<?xml version="1.0" encoding="utf-8"?>
<!-- Generator: Adobe Illustrator 18.1.0, SVG Export Plug-In . SVG Version: 6.00 Build 0)  -->
<svg version="1.1" id="Layer_1" xmlns="http://www.w3.org/2000/svg" xmlns:xlink="http://www.w3.org/1999/xlink" x="0px" y="0px"
	 viewBox="0 0 150 150" enable-background="new 0 0 150 150" xml:space="preserve">
<g>
	<path fill="#80A8A5" d="M36.5,39.1c-0.9-0.2-1.8-0.3-2.7-0.3c-5,0-9.3,3.4-10.6,8.3L10.6,97.1l0,0.2c-1.5,5.8,2.1,11.8,7.9,13.3
		l7,1.8v-8.9v-37c0-7.3,5.9-13.3,13.3-13.3h53.6L36.5,39.1z"/>
	<path fill="#2D4447" d="M133.8,55.5h-2.5c-1,0-1.9-0.5-2.4-1.3l-1.9-2.9c-0.4-0.6-1.1-1-1.9-1h-6.7c-0.8,0-1.5,0.4-1.9,1l-0.1,0.1
		l-0.7,1l-0.5,0.8l-0.2,0.2l-0.5,0.7c-0.6,0.8-1.5,1.3-2.4,1.3h-0.9h-1h-0.8h-2h-0.9h-4.8H38.8c-6,0-10.9,4.9-10.9,10.9v38v8.5v1.2
		v1.2v3c0,6,4.9,10.9,10.9,10.9h44.2h3.5h1.3h1H91h1.3h41.5c6,0,10.9-4.9,10.9-10.9V66.5C144.7,60.4,139.8,55.5,133.8,55.5z
		 M85.4,68.6c14.5,0,26.3,11.8,26.3,26.3c0,14.5-11.8,26.3-26.3,26.3c-14.5,0-26.3-11.8-26.3-26.3C59.1,80.4,70.8,68.6,85.4,68.6z"
		/>
	<g>
		<path fill="#88AB56" d="M40.7,27.3c-6.2-2.6-13.2,0.3-15.8,6.4L4.7,81.5c-2.2,5.2-0.5,11.1,3.8,14.3l12.4-49.4
			c1.5-5.9,6.8-10,12.8-10c1.1,0,2.2,0.1,3.3,0.4l64.6,16.3L40.7,27.3z"/>
		<path fill="#88AB56" d="M85.4,68.6c-14.5,0-26.3,11.8-26.3,26.3c0,14.5,11.8,26.3,26.3,26.3c14.5,0,26.3-11.8,26.3-26.3
			C111.6,80.4,99.9,68.6,85.4,68.6z M85.4,117.1c-12.2,0-22.2-9.9-22.2-22.2s9.9-22.2,22.2-22.2V117.1z"/>
	</g>
</g>
</svg>
