<?xml version="1.0" encoding="utf-8"?>
<!-- Generator: Adobe Illustrator 18.1.0, SVG Export Plug-In . SVG Version: 6.00 Build 0)  -->
<svg version="1.1" id="Layer_1" xmlns="http://www.w3.org/2000/svg" xmlns:xlink="http://www.w3.org/1999/xlink" x="0px" y="0px"
	 viewBox="0 0 150 150" enable-background="new 0 0 150 150" xml:space="preserve">
<g>
	<g>
		<path d="M81.1,121.1H52V52.2c0-2.9-1.1-5.4-3.2-7.5c-2.2-2.1-4.6-3.1-7.4-3.1c-3.1,0-5.6,1-7.7,3.1c-2.1,2.1-3.2,4.6-3.2,7.5v79.5
			c0.2,3.1,1.3,5.6,3.3,7.7c2,2.1,4.5,3.1,7.6,3.1h39.7c2.8,0,5.3-1,7.3-3.1c2.1-2.1,3.1-4.6,3.1-7.7c0-2.9-1-5.4-3.1-7.5
			C86.4,122.1,83.9,121.1,81.1,121.1z"/>
	</g>
	<g>
		<path d="M109.7,121.2c-6.2,0-11.3,5.1-11.3,11.3c0,6.2,5.1,11.3,11.3,11.3c6.2,0,11.3-5.1,11.3-11.3
			C121,126.3,115.9,121.2,109.7,121.2z"/>
	</g>
	<g>
		<path fill="#9AB78B" d="M38.3,31.2h60.4v66.6c0,4.8,4.9,8.8,11,8.8c6.1,0,11-3.9,11-8.8V23c0.2-0.9,0.3-1.8,0.3-2.8
			c0-6.1-3.7-11-8.2-11H38.3c-4.5,0-8.2,4.9-8.2,11C30.1,26.2,33.8,31.2,38.3,31.2z"/>
	</g>
</g>
</svg>
