<?xml version="1.0" encoding="utf-8"?>
<!-- Generator: Adobe Illustrator 18.1.0, SVG Export Plug-In . SVG Version: 6.00 Build 0)  -->
<svg version="1.1" id="Layer_1" xmlns="http://www.w3.org/2000/svg" xmlns:xlink="http://www.w3.org/1999/xlink" x="0px" y="0px"
	 viewBox="0 0 1500 1500" enable-background="new 0 0 1500 1500" xml:space="preserve">
<g>
	<path fill="#385988" d="M898.6,364.3c14.2,15.1,130.2,145.4,34.5,275.5c-101.7,138.3,11.5,189.5,51.4,186.6
		c0,0-79.5-51.9-17.5-144.2c62-92.2,70.3-218.4-69.8-319.3C897.2,362.8,897.7,363.3,898.6,364.3z"/>
	<path fill="#385988" d="M1018.1,1008.8c31.6-36.6-34.9-108.1-34.9-108.1L913.3,944c38.3,49.9,31.6,106.5,31.6,106.5
		S986.5,1045.4,1018.1,1008.8z"/>
	<path fill="#385988" d="M776.8,950.6c156.4,3.6,206.3-84.8,206.3-84.8s-39.9,39.9-178,49.9c-138.1,10-189.7-43.3-189.7-43.3
		S633.8,947.3,776.8,950.6z"/>
	<path fill="#385988" d="M506.3,492.1c0,0-9.3-36.1,17.5-50.6l174.3-36.6l-5.2-45.7l110.2-1c0,0,179.3,111.2,54.9,271.3
		c-98.8,127.1-13.3,202.4-13.3,202.4s-10.3-86.7,34-140.6c41.9-50.9,149.2-218.3-21-339c30.4-15.9,43.1-57.2,43.1-57.2
		s-4.7,6.8-54.2,12.1c-33.8,3.6-51.2,18.2-58.8,27.1l-131.8,9.2l-1.8,29.8l-158,34.8C496.3,408.2,473.8,461.9,506.3,492.1z"/>
	<path fill="#385988" d="M672.2,1220c-58.1,0-167.9,0-167.9,0s6.5,42,40.9,42s90.4,0,90.4,0s2.2,17-12.9,17c-15.1,0-133.5,0-133.5,0
		l-62.3-55.1c0,0-38.7-45-75.3-11.9l116.2,125h109.8c0,0,43.2,0.6,51.3,49.6l126.5-2.1l-16.4-106.1
		C738.9,1278.4,730.3,1220,672.2,1220z"/>
	<path fill="#385988" d="M1093.7,1223.9l-62.3,55.1c0,0-118.4,0-133.5,0c-15.1,0-12.9-17-12.9-17s56,0,90.4,0
		c34.4,0,40.9-42,40.9-42s-109.8,0-167.9,0c-58.1,0-66.7,58.3-66.7,58.3l-16.4,105.9l126.5,2.3c8.1-49.1,51.3-49.6,51.3-49.6h109.8
		l116.2-125C1132.4,1178.8,1093.7,1223.9,1093.7,1223.9z"/>
	<path fill="#385988" d="M1123.8,960h-47.1c-8.6-17-30.9-55.1-83.9-81.3c0,0,42.3,49.8,56,87.9c0.5,2.9,0.8,6.1,0.8,9.1
		c0,65-112.3,117.8-250.8,117.8c-138.2,0-250.2-52.3-250.8-117.1c0.1-1.3,0-2.6,0.2-4c0.3-2.9,0.7-7.2,1.2-10.2
		c0.1-0.3,0.2-2.2,0.3-2.2h-0.1c8.8-42,48-103.2,48-103.2c-62.1,40.9-77.5,86.2-81.3,103.2h-81.2l-167.5,218h976L1123.8,960z"/>
	<path fill="#385988" d="M269.4,1213.1l163.3,112.8l-99.9-115.7C304.5,1185.1,269.4,1213.1,269.4,1213.1z"/>
	<path fill="#385988" d="M641.1,651c109.4-55.2,143.1-110.6,143.1-110.6s-51.6,24.8-92.3-5.5c0,0,10.2,34.2-64.6,68
		c-74.7,33.8-124.9,124.5-30.5,245.5C596.8,848.4,531.7,706.2,641.1,651z"/>
	<path fill="#385988" d="M785.1,495.1c-34,17.6-91.5-32-91.5-32l-94.8,18.8c0,0-54,44.1-86.3,26.8c0,0,0.3,1,1,2.6
		c3.2,7.6,37.3,36.2,65.4,39.4l27.9-34.5l72.3-5.5c0,0,38.3,32.8,89.3,21.8c51-11,74.5-46,62.4-78.2c-12.1-32.2-26.7-36.2-26.7-36.2
		S819.1,477.5,785.1,495.1z"/>
	<path fill="#385988" d="M1187.7,1210.2l-99.9,115.7l163.3-112.8C1251.1,1213.1,1216,1185.1,1187.7,1210.2z"/>
	<path fill="#385988" d="M707.2,634.3c-82.6,71.2,5.5,153.9,5.5,153.9s-45.1-92,65.4-174.9c120.9-90.7,77.5-156.1,69.1-171
		c-1.2-2.2-1.4,1.4-1.4,1.4C866.8,506.3,789.8,563.1,707.2,634.3z"/>
	<polygon fill="#AB5153" points="1298.1,624 1238.5,624 1220.1,565.6 1201.7,624 1142.1,624 1190.3,660.2 1171.9,718.7 
		1220.1,682.6 1268.3,718.7 1249.9,660.2 	"/>
	<polygon fill="#AB5153" points="989.5,320.8 1037.8,284.7 1086,320.8 1067.5,262.4 1115.7,226.3 1056.2,226.4 1037.8,168 
		1019.3,226.4 959.7,226.3 1008,262.4 	"/>
	<polygon fill="#AB5153" points="1152.3,498.6 1200.5,462.5 1248.7,498.6 1230.3,440.2 1278.5,404.1 1218.9,404.1 1200.5,345.7 
		1182.1,404.1 1122.5,404.1 1170.7,440.2 	"/>
	<polygon fill="#AB5153" points="711.4,268.3 759.6,232.2 807.8,268.3 789.4,208.5 837.6,171 778,171 759.6,112.6 741.2,171 
		681.6,171 729.8,208.5 	"/>
	<polygon fill="#AB5153" points="280.1,718.7 328.3,682.6 376.5,718.7 358.1,660.2 406.3,624 346.7,624 328.3,565.6 309.9,624 
		250.3,624 298.5,660.2 	"/>
	<polygon fill="#AB5153" points="1144.4,817 1126,758.6 1107.6,817 1048,817 1096.2,853.7 1077.8,912.3 1126,876.4 1174.2,912.6 
		1155.8,853.6 1204,817 	"/>
	<polygon fill="#AB5153" points="299.7,498.6 347.9,462.5 396.1,498.6 377.7,440.2 425.9,404.1 366.3,404.1 347.9,345.7 
		329.5,404.1 269.9,404.1 318.1,440.2 	"/>
	<polygon fill="#AB5153" points="440.8,817 422.4,758.6 404,817 344.4,817 392.6,853.7 374.2,912.3 422.4,876.4 470.6,912.6 
		452.2,853.6 500.4,817 	"/>
	<polygon fill="#AB5153" points="462.4,320.8 510.6,284.7 558.8,320.8 540.4,262.4 588.6,226.3 529,226.4 510.6,168 492.2,226.4 
		432.6,226.3 480.8,262.4 	"/>
</g>
</svg>
