<?xml version="1.0" encoding="utf-8"?>
<!-- Generator: Adobe Illustrator 18.1.0, SVG Export Plug-In . SVG Version: 6.00 Build 0)  -->
<svg version="1.1" id="Layer_1" xmlns="http://www.w3.org/2000/svg" xmlns:xlink="http://www.w3.org/1999/xlink" x="0px" y="0px"
	 viewBox="0 0 2000 2000" enable-background="new 0 0 2000 2000" xml:space="preserve">
<g>
	<path fill="#D91C51" d="M748.2,412.7c0.9,3.6,1.6,7.2,2.6,10.8c0.8-0.5,1.8-0.9,2.7-1.3c30.4,67.8,89.5,118.2,168.8,121.2
		c99.1,3.7,155.5-64.4,223.7-122.9c31.2-26.8,87.2-64.2,129.7-64c-60-11-107.2-15.2-145.9-6.7c-93.3,20.5-168,100.2-266.5,101
		c-34.6,0.3-66.4-14.2-92.1-36c22-7.4,48.8-11.3,71.5-10.7c65.3,1.8,99.4,7.5,147.6-15.4c41.5-19.8,73.6-62.1,98-102.8
		c-25.9,25.8-49.5,35.1-86.8,36.6c-56.6,2.3-110.8-17-165.9,5.6c-33.3,13.7-59.9,38.3-74.4,69.1c8.6-34.9,27.6-67.4,58.4-87.7
		c82.2-54.1,188.7-29.4,277.6-64.2c36.9-14.4,73.8-44.2,117.5-86.7c-35.3,23.8-102.5,23.9-143.4,19c-89.3-10.8-173.9-36-254.2,22.2
		c-64.2,46.6-85.2,121.2-72.9,194.4c-0.4,0.1-0.8,0.1-1.2,0.2c0.8,2.7,1.9,5.3,2.8,8c0.7,3.4,1.6,6.7,2.4,10.1
		c0.6-0.6,1.1-1.2,1.7-1.8C749.3,411.3,748.8,412,748.2,412.7z"/>
	<path fill="#D91C51" d="M255.1,883.4c27.8,51,80.1,73.3,134.4,71.2c0,0.3,0,0.6,0,0.9c2.1-0.4,4.1-0.9,6.1-1.3
		c2.1-0.2,4.2-0.5,6.3-0.7c0-0.4,0-0.7,0-1.1c0-6.9,0.2-13.7,0.4-20.5c0.3,7.2,1,14.3,1.6,21.4c2.5-0.3,5.1-0.4,7.6-0.8
		c-0.3-0.7-0.5-1.4-0.7-2.1c52.1-15.8,94.3-54,103.9-111.4c12-71.7-32.2-119-68.5-174.1c-16.6-25.2-38.5-69.3-34.4-100.3
		c-13.6,42.6-21.1,76.5-18.5,105.4c6.2,69.7,57.1,131.5,48.5,203.1c-3,25.1-16.6,46.9-34.8,63.6c-3.3-16.7-3.7-36.5-1.1-52.9
		c7.4-47.3,14.8-71.6,2.6-108.7c-10.5-32-38.3-59.3-65.6-80.8c16.3,21.2,20.9,39.2,18.5,66.5c-3.6,41.3-22.7,79-11.4,121.1
		c6.8,25.5,22.2,47.1,43.3,60.5c-24.6-9.5-46.4-26.4-58.2-50.6c-31.6-64.8-3.7-139.9-20.7-207.8c-7-28.1-25.2-57.7-52-93.5
		c14,27.9,7.8,76.8,0.4,106C246.6,760.4,220.3,819.6,255.1,883.4z"/>
	<path fill="#D91C51" d="M459.8,1328.7c-45.8-56.4-110.5-54.6-175.8-63.9c-29.9-4.3-77.4-17-97.9-40.6
		c22.9,38.4,43.4,66.4,66.7,83.6c56.4,41.5,136.4,44.2,184.4,98c16.8,18.9,24.2,43.5,24.6,68.2c-14.7-8.5-29.8-21.4-40.4-34.2
		c-30.5-36.8-43.9-58.4-79.8-73.8c-30.9-13.3-69.7-10.5-104-4.3c26.7,1.8,43.2,10.3,62.1,30.2c28.6,30.1,44.1,69.3,83.2,88.7
		c23.6,11.7,50,14.5,74,7.6c-23.4,12.1-50.5,17.3-76.5,10.1c-69.5-19.2-107.3-89.8-169.5-122c-25.8-13.3-60-19.3-104.5-22.9
		c30.2,8,62.7,45,79.7,69.9c37.2,54.4,64.2,113.2,135,129.3c56.7,12.9,108-11.6,142.3-53.7c0.2,0.2,0.5,0.4,0.7,0.6
		c1.1-1.8,2-3.6,3.1-5.4c3.2-4.2,6.3-8.5,9.2-13c-0.7-0.2-1.4-0.6-2.1-0.9C497.1,1430.7,496.4,1373.8,459.8,1328.7z"/>
	<path fill="#252525" d="M1224.5,1724.5c-293.4,0-557.9-85.7-744.7-222.9c171.8,166.4,439.2,273.4,739.6,273.4
		c282.7,0,536.2-94.8,708.3-244.7C1744.3,1650.6,1496.8,1724.5,1224.5,1724.5z"/>
	<path fill="#252525" d="M401.9,952.3c0,0.4,0,0.7,0,1.1c0.8,392.5,420.7,710.4,938.6,710.4c162.4,0,315.1-31.3,448.3-86.3
		c-112.7,29.6-234.9,45.9-362.6,45.9c-545.8,0-991.6-296.5-1022.4-670.3c-0.6-7.1-1.3-14.2-1.6-21.4
		C402.1,938.6,401.9,945.5,401.9,952.3z"/>
	<path fill="#252525" d="M1497,1552.9c148.3,0,288.6-26.1,413.3-72.6c-97.6,20.9-201.8,32.2-309.9,32.2
		c-556,0-1006.8-298.2-1006.8-666.1c0-148.5,46.1-303,154.5-433.7c0.6-0.7,1.1-1.4,1.7-2.1c-0.6,0.6-1.1,1.2-1.7,1.8
		c-119.1,119.3-189.8,267.8-189.8,429C558.3,1234.3,978.6,1552.9,1497,1552.9z"/>
</g>
</svg>
