<?xml version="1.0" encoding="utf-8"?>
<!-- Generator: Adobe Illustrator 18.1.0, SVG Export Plug-In . SVG Version: 6.00 Build 0)  -->
<svg version="1.1" id="Layer_1" xmlns="http://www.w3.org/2000/svg" xmlns:xlink="http://www.w3.org/1999/xlink" x="0px" y="0px"
	 viewBox="0 0 2000 2000" enable-background="new 0 0 2000 2000" xml:space="preserve">
<g>
	<path fill="none" d="M846.1,1162.6c0.1,2.9,0.3,8.4,0.4,8.4h137.1c1.9,0,4.1-14,6.2-14H859.3c-0.1,0-0.3-3.8-0.4-6.7
		c-0.7-13.7-1.1-29-0.8-46.3c-5.2,2.7-9.6,5.8-12.8,7.9C844.9,1130.4,845.4,1148,846.1,1162.6z"/>
	<path fill="none" d="M1372.1,1446.7l-5.7,13.8c0.6,0.1,1.5,0.2,2.3,0.2c3.2-6.4,6.1-12.8,9.1-19.3
		C1376,1443.1,1374,1444.9,1372.1,1446.7z"/>
	<path fill="none" d="M1285.3,1032.2c-37.1,0-76.9,19.2-118.6,55.4c37.1-29.2,72.6-43.5,105.8-43.5c73.1,0,100.3,71,106.1,127h45.7
		c-0.6,0-1.3,0-2-14h-30.9C1385.6,1115,1358.4,1032.2,1285.3,1032.2z"/>
	<path fill="none" d="M1062.2,1060.1c-13.7-11.3-36.8-25.7-75-37.7c-44.4-13.9-92.3,1.2-123.2,15.2c2-11.4,4.6-22.6,7.7-33.7
		c-4,1.7-7.3,3.4-9.2,4.8c-0.9,0.9-1.8,1.7-2.8,2.4c-3.7,12.1-6.5,24.4-8.6,36.9c30.8-13.9,78.8-29,123.1-15.1
		c40,12.5,63.7,27.8,77,39.3C1054.9,1068.1,1058.6,1064.2,1062.2,1060.1z"/>
	<path fill="none" d="M333.8,1157h-39.4c4.3-14,31.1-129.2,146.6-226.6C314.7,1030.2,286.1,1143,281.6,1171h49.2
		C331.7,1171,332.9,1157,333.8,1157z"/>
	<path fill="none" d="M1197.8,952.7c-10.7-16.9-31.3-45.5-61.7-70.1c-43.2-35-99.2-79.9-192.2-36.3c-17.7,8.3-32.8,18.5-45.8,30.1
		c9.9-7.4,20.9-14,33.1-19.7c93.1-43.7,149,1.3,192.2,36.2c30.3,24.6,50.9,53.2,61.7,70.1c7-3.1,14-5.8,21-7.9
		c8.5-2.6,16.8-4.7,25-6.5c-0.8-2-1.7-4.2-2.6-6.5c-3.2,0.9-6.3,1.5-9.6,2.5C1211.8,946.9,1204.8,949.6,1197.8,952.7z"/>
	<path fill="none" d="M999.6,937.4c50.1,15.6,92.2,53.9,111.7,73.9c9.7-8.3,19.6-16,29.6-23c-0.1-0.2-0.3-0.5-0.4-0.7
		c-5.5,4.2-11,8.6-16.3,13.2c-19.5-20-61.6-58.3-111.7-73.9c-29.1-9.1-66.9-6.4-99.3,1.6c1.2-1.2,2.6-2.4,3.9-3.6
		c-6,4.2-11.6,8.9-16.7,14C932.7,931,970.5,928.2,999.6,937.4z"/>
	<path fill="none" d="M653.5,1112.2c-4.6-41.3-14.6-73.2-29.9-94.7c-14.7-20.6-37.1-38.8-57.1-52.6c-5.4,2.4-10.9,5-16.5,7.9
		c21,14.1,45.3,33.3,60.9,55.1c15.2,21.5,25.3,53.3,29.8,94.7c0.8,7-1,13.6-4.4,19C647.5,1137.7,655,1125.5,653.5,1112.2z"/>
	<path fill="none" d="M522.2,1157.4c-0.7,0-1.4-0.4-2.1-0.4H396c8.7-28,22.5-58.2,40.8-84.8c-1.3-0.8-2.6-0.7-3.9-1.4
		c-23,30.1-39.6,58.2-49.7,100.2h323.5c0,0,0.1,0,0.1-14H525C524,1157,523.1,1157.4,522.2,1157.4z"/>
	<path fill="none" d="M522.3,1075.5c11.5,13.5,19.7,30.6,24.3,50.7c1.8,8,0.2,16-3.8,22.2c12.4-4.5,19.8-18.6,16.6-32.7
		c-4.7-20.1-12.8-37.2-24.3-50.7c-14.6-17.2-35.6-33-52.9-44.5c3.8-3.6,7.8-7,11.8-10.4c-8.6,6.8-16.9,13.7-24.6,20.9
		C486.7,1042.5,507.7,1058.3,522.3,1075.5z"/>
	<path fill="none" d="M726.1,1000.1c0.8-3.6,1.8-7.1,2.7-10.7c-14.3-1.6-38.3-9.6-64.4-40.8c-6.9-1-14.2-1.7-22.3-1.7
		C679.7,999.6,715,1001.2,726.1,1000.1z"/>
	<path fill="none" d="M1154.5,1043.2c-41.4,32.2-81.3,85.8-111,127.8h284.3c-0.5,0-1.2,0-2-14h-165.5c-3.3,0-6.6,0-9.9,0h-94.1
		C1082.9,1115,1117.8,1074.8,1154.5,1043.2z"/>
	<path fill="none" d="M1197.8,1131.4c-6.2,4.8-12.5,10.2-18.8,16c2-1.1,4-2.3,5.7-4C1189.1,1139.2,1193.5,1135.2,1197.8,1131.4z"/>
	<path fill="none" d="M800,1171c0.2,0,0.4-14,0.6-14h-30.9c0.2-56,10.1-236.5,105.9-321.9C767.9,915.8,757.1,1101,756.9,1171H800z"
		/>
	<path fill="none" d="M1384.6,1426.1c0-0.1,0.1-0.2,0.1-0.2C1384.7,1425.9,1384.6,1426,1384.6,1426.1z"/>
	<path fill="none" d="M1382.2,1429.5c0.3,0.1,0.4,0.3,0.6,0.5c0.4-1.1,1-2.1,1.4-3.1c-0.2-0.3-0.4-0.5-0.3-0.4
		C1379,1426.9,1381.7,1429.4,1382.2,1429.5z"/>
	<path fill="none" d="M1382.1,1422.7l-0.2,0.4c0.8,0.9,1.6,1.6,2.5,2.2C1383.3,1424.8,1382.6,1423.8,1382.1,1422.7z"/>
	<path fill="none" d="M512.6,929.5c-1.4,0.9-2.7,1.7-4.1,2.7c-14.4,9.6-27.6,19.8-40.2,30.3c8.8-6.8,17.8-13.4,27.4-19.8
		c1.4-0.9,2.7-1.8,4.1-2.7c130.7-84.5,219-36.8,249.5-14c2-5.1,4.2-10.1,6.4-15C720.3,887.2,635,850.3,512.6,929.5z"/>
	<path fill="#F7DAB1" d="M1360.2,1301.6c-0.2-0.7-0.2-0.9,0.1-0.4c0,0.2,0-1.5-0.1-2.9c0.1,1-0.3-0.4,2.3,1.4
		c0.1,0.1-0.9-1.2-0.9-0.9c-0.4,0-0.5,0-0.3-0.2c-0.8-0.3-0.8-0.8,0.1-1.7c-0.4-0.7-2-6.1-1.4-7c-0.9,1.9-1.3,2.1-1.1,0.5
		c-0.4,0.9-0.7,1.3-1,1.2c3.3,4.9-1.6,1.8-1.7,1.7c-1.4,0.9-0.9-0.5-1.8-1c0.2,1,0.1,1.2-0.3,0.6c0.2,0.4-0.1,0.2-0.8-0.6
		c-4.8,2.7-0.1,7.3-6.6,1.6c1.2-2.1-27.8,21.7-27.4,22.2C1324.2,1318.4,1356.6,1297.7,1360.2,1301.6z M1358.3,1301L1358.3,1301
		C1357.7,1300.9,1357.9,1300.9,1358.3,1301z"/>
	<path fill="#F7DAB1" d="M1427.4,1249.1c0.1-1.2,0.2-2.4,0.3-3.6C1427.6,1246.7,1427.5,1248,1427.4,1249.1z"/>
	<path fill="#F7DAB1" d="M1256.6,1596.3c-0.1,1.9,12.1-4.1,19.9-8C1264.3,1591.8,1249.5,1586.8,1256.6,1596.3z"/>
	<path fill="#F7DAB1" d="M391.5,1230.4L391.5,1230.4L391.5,1230.4C391.4,1230.4,391.5,1230.4,391.5,1230.4z"/>
	<path fill="#F7DAB1" d="M1362.5,1239.3c-4.5,10.6,10.3,22,15.1,26.2c0.2-0.2,1.1-0.1,2.7,0.6c-1.5-1-1.4-1.4,0.3-1.1
		c-1.3-2.1-2.1-2.5-2.3-1.2c-1.1-5,0.7-1.2,1.9-1c-0.9-2.7-5.2-16.1-3.6-16.1c0,0-0.2-0.7-0.5-1.8c-0.6,0.2-1.8-0.7-0.2-0.7
		c-1.2-4.4-3.6-13.5-4.7-19l-10.7,0C1358.3,1230,1357.7,1235.9,1362.5,1239.3z M1368.5,1250l-0.2,0.3
		C1367.8,1250,1368.1,1250,1368.5,1250z"/>
	<path fill="#F7DAB1" d="M390.9,1233.7c-0.2-0.3-0.5-0.8,0.1,0.3C391.3,1234.6,391,1234,390.9,1233.7z"/>
	<path fill="#F7DAB1" d="M607,1633.3C606.7,1633,606.6,1632.9,607,1633.3L607,1633.3z"/>
	<path fill="#F7DAB1" d="M556.1,1622c-0.1-0.5,0.1-1.1-0.7-0.1C555.2,1622.5,555.9,1622.1,556.1,1622z"/>
	<path fill="#F7DAB1" d="M1358.2,1431.3c2.5,0.3,1.4-2.3,2.7-4.7C1360.9,1426.3,1346.6,1433.5,1358.2,1431.3z"/>
	<path fill="#F7DAB1" d="M1351.8,1492c0.4-1.7,0.8-3.3,1.5-5.1c-0.1-0.1-0.1-0.3,0.2-0.4c0.1-0.3,0.2-0.6,0.3-0.9
		c-7.3,2.2-9.3,14-8.4,11.6c-1.5,4-2.7,7.8-3.5,11.4C1345.2,1503.1,1348.6,1497.6,1351.8,1492z"/>
	<path fill="#F7DAB1" d="M1360.9,1426.5C1360.4,1424.9,1360.6,1427.1,1360.9,1426.5L1360.9,1426.5z"/>
	<path fill="#F7DAB1" d="M1356.8,1462.9c0,0.1,0,0.1-0.1,0.2c-0.1,0.1-0.1,0.2-0.2,0.4c1.7,4.7,1.6-3.1-0.8-3.6
		C1343.1,1462.8,1359,1458.3,1356.8,1462.9z"/>
	<path fill="#F7DAB1" d="M1347.1,1266.2c-1.1-3.2-0.7-3.8,1.2-2c-0.3-1.1-0.5-1.6-0.5-1.7c0.1,0.1,0.3,0.3,0.8,0.1
		c-0.5-0.3,0.4,0.2,1.6-0.5c1.6-4.7-0.7-9-7-13.1c-0.4,0.3-0.7,0.1-1-0.4c0.1,0.6,0,0.5-0.3-0.1c-0.4,1.9-0.4,3-0.3,3.8
		c-0.6-0.5-1.7-1.1-3.6-1.7c0.1,0.7,1.7,3.1,0.2,1.1c0.1,0.8-0.2,0.4-1.1-1.2c4.5,10.9-30.4,24-29.5,24.6c0.2,1.9,0.4,0.9,0.2,0.3
		C1310.1,1279.8,1343.2,1264.5,1347.1,1266.2z"/>
	<path fill="#F7DAB1" d="M1366.4,1460.5l5.7-13.8C1365.3,1453,1359.5,1458.9,1366.4,1460.5z M1368.8,1452.7l-0.4,0.8
		C1368.3,1451.6,1368.6,1452.2,1368.8,1452.7z"/>
	<path fill="#F7DAB1" d="M1387.1,1393.5c-0.2,0,0.2-1.3,0.5-1.7c0.5-1.7,0.9-3.2,1.3-4.6c-0.1-0.2-0.1-0.4-0.2-0.6
		c0.1,0.1,0.2,0.3,0.2,0.4c1.1-4.6,1.2-7.8-1.4-7.6c-1.6-3.9,0.9-19.1,0.6-19.6c-3.7-4.8-8.8,9.4-10.8,25.9c1.9,1.2,1.1,1.1-0.1,0.6
		c-1.7,14.3-1.1,30.2,4.7,36.9l0.2-0.4C1379.3,1416.8,1383.9,1403.8,1387.1,1393.5z"/>
	<path fill="#F7DAB1" d="M1385.4,1352.4c6.9-2,2.3-13.5-8.8-10.1C1379,1351.4,1370.7,1356.5,1385.4,1352.4z M1386.8,1345.4
		c0,0-0.3-0.1-0.4-0.1C1386.5,1345.4,1386.7,1345.4,1386.8,1345.4z M1386.3,1349.8C1386.2,1349.6,1387.1,1350.8,1386.3,1349.8
		L1386.3,1349.8z"/>
	<path fill="#F7DAB1" d="M548,1699.1v41.4c0,28.9,28.5,48.5,57.4,48.5h498.8c15.4,0,47.8-16,47.8-48.5v-41.4l8.7-6.8
		c41.8-26.4,78.3-57.3,111.3-92c-4.6,0.9-10.3,1.3-9.2,1.6c-5.7-1.4-82.6,47-113.8,24c-0.2,0-0.5-0.1-0.8-0.2c1.6,2-0.7,1.9-6.8-0.1
		c-2,0.4-5.4-0.4-8.1-0.4c36.9-13.4,106.2-22.6,110.2-27c-0.4,0.6-9-9.9-4.3-8.7c1.4,0.1-1.2,0.2,2.7,2.6c-0.6-2.4-1-3.8-1.3-4.3
		c-0.1,0-0.3,0.1-0.3,0.1c0,0.3,0,3.1,0.1,4.2c-1.7-1.9-9.5,0-16,0h-0.1c-3,0-5.7-0.9-7.3,0.6c1.9,0.2-5.1-0.2-5.3,0.5
		c0.3-0.3,3.1-2.6,3.4-2.7c4-2.6,3-4.3-1-2.8c1.5,0.8-5.2-0.6-5.2-0.7c0.3-0.1,3.7-0.7,3.9-0.8c1.4-0.2,16.5-1.9,16.3-4.1
		c0.4-0.9,5-3.7,3-5.8c-0.7,1.4-1.1,1.5-1,0.2c-0.4,2.1-0.7,2.7-0.8,1.9c-1.5,1.2-2.2,1.2-2.1,0.1c-0.6,0.1-5.2,2.5-3.9,2.4
		c-10.2,1-68.1,19.6-87.9,5.4c-0.2-0.1-0.5-0.1-1-0.3c1.7,2.2-0.8,2-7.4-0.5c-2.2,0.3-5.8-1-8.7-0.8c84-23.1,125.9-16.6,175.8-48.8
		c-1.7-0.5-6.9-1.3-2.4-4.6c-0.5,0.2,7.1,1.1,2.9-2.8c-0.2,0.1,0.3,0-1.3-0.9c-2.3,4.2,0.7-0.2-2.4,1.5c-1.3,0.3-1.7,0.1-1.2-0.5
		c-1.1,2.6-1.5,2.7-1,0.2c-1.5,6.4-1.8,2.2-2.9-1.3c-0.4,1.6-0.5,1.5-0.5-0.3c0.6-1-58.5,39.6-80.2,23.2c-0.1,0-0.3,0-0.7-0.2
		c1.2,1.5-0.4,1.6-4.9,0.3c0.4-0.3,0-0.2-1.3,0.2c0.2,0.1-3.5-0.2-4.5,0c0.2-0.1,3.1-1.1,3.2-1.2c5.1-1.8,21.2-7,22.3-5.8
		c0.3-0.2,3.3-1.9,3.7-2.5c-1.8-0.7-1.8-1.1,0-1.2c-2.8-2.1-6.2,2.8-5.8,2.7c-13.7-0.6-67.3,9.1-84.8-6.5c-0.2-0.1-0.5-0.2-1-0.4
		c1.5,2.5-1.1,2-7.8-1.5c-2.4,0.1-6.1-1.4-9.2-2c0.8-0.1,4.9,0.1,5.6,0.1c68.4,1.9,134.1,2.9,172.9-19.1c0.4,0,2.7,1.2,5.1-0.1
		c-1.3-0.6-1.5-1.2-0.4-1.8c-2.8,0.2-3.6-0.6-2.3-2.5c-2.2,0.2-0.8,3.2-4.4,1.9c-13.7-2.4-42.2,17.2-62.6,3c1.6,0-5.6-2-5.5-1.8
		c1.2,0.9,1.2,1,0,0.4c0.9,1.9-0.9,1.6-5.4-1c-1.6,0.2-4.2-1.3-6.4-1.3c3.1-0.8,17.2-0.5,17-0.7c5.7,4.6,58.1-3.6,61.3-8.7
		c0.2,0.6,4.6,1.5,2.8-1.3c-1-0.6,0-1.6-1.1-2.5c-1.2,0.5,0,1.7-1.4,2.1c-0.1-2.1-0.4-2.1-0.9,0.1c-3.6,0.3,3.2,0-0.4,1.8
		c-1.6-1.2-1.7-1.2-0.4,0c-3.4-2.1-4-2.1-1.6,0.2c0.1-0.3-16.8-0.9-30.6,1.9c24.6-23-72.3,13.9-98.9-11.6c-0.2-0.1-0.5-0.2-0.8-0.3
		c1.4,2.5-1.2,1.9-7.7-1.5c-2.3,0.1-6-1.6-9-2c0.8-0.1,4.9,0.1,5.5,0.2c35.4,1.3,123-5.8,101-4.2c13.4-9.6,43.2-18,50.2-18.9
		c2.5,0,4.6,1.4,5.3-2.4c1.7,2.8,2.7-3,2.8-3.5c1.2-0.8-6.6,1.2-4.3,1.2c-2,0.1-6.4,0.9-12.2,2c0.2,0.1,0.3,0.2,0.6,0.3
		c-0.3,0.3-0.7,1.2-1.1,0.5c0-0.4,0.1-0.7,0.1-0.8c-26.2,5.1-81.8,16-100.1-2.8c-0.2-0.1-0.5-0.2-0.9-0.4c1.2,2.5-1.2,1.9-7.3-1.7
		c-2.3,0.1-5.6-2.1-8.6-2.2c60.9-6.1,104.3,7,141.4-9.3c-0.1-0.9,0.5-1.3,1.9-1.2c-1.6-2.4-1.1-2.7,1.7-0.8
		c-0.9-1.1-0.9-1.5-0.2-1.3c-1.3-0.9-1.2-3.9-0.2-3.4c-0.5-1.3-3.1-1-2.2-1.2c-1.3,0.4-3-1.3-2.9-0.6c0.1,0,0.3,0.3,0.5,0.5
		c0,0-0.1,0.2-0.1,0.3c0.4,0.7,1,1.7,2,3.5c-2.8-0.9-3.5-1.8-1.9-2.8c-2.2,0-3-0.6-2.5-1.9c-0.3,0.4-0.4,0.2-0.3-0.6
		c-1.6,4.2-51.1,11.6-62.5,3.9c1.5-0.1-5.4-1.8-5.3-1.6c1.2,0.8,1.2,1,0,0.4c0.9,1.8-0.8,1.6-5.1-0.7c-1.5,0.2-4.1-1-6.1-1
		c2.8-1,16.2-1.3,16-1.6c8.4,6.5,59.5-9.4,71.1-9.7c0-0.3,0.4-0.7,2.2-1c-1-1-0.8-1.3,0.5-0.9c-7-5.1,3-1.6,2.3-1.9
		c-1.3-4.2-1.7-4.8-1-1.8c-1.8-0.8-2.2-2-1.3-3.6c0.1,0.5,0.2,0.5,0.3,0.1c-2.2-0.7-2.7-1.4-1.4-2.3c-2.2,0.1-3-0.5-2.6-1.7
		c-0.2,0.4-0.4,0.2-0.4-0.6c-1.4,4.4-50.4,13.8-62.2,6.3c1.5-0.1-5.4-1.6-5.3-1.5c1.2,0.8,1.2,0.9,0,0.4c1,1.8-0.7,1.6-5.2-0.5
		c-1.5,0.3-4.1-0.9-6.1-0.8c2.8-1.1,16.2-1.7,16-2c12.5,9.2,58.7-17.6,64.5-13.7c-0.6,1.6,0.3,2.9,2.6,3.9c0.2-0.2,1.2-0.4,1.8,0.1
		c-0.2-0.8-0.6-3.4-0.7-5.2c-1,0.3-1.3-0.6-0.8-2.9c-0.8,1.4-2.7,4-1.9-0.5c-2.9-1.9-29.7,6.1-42.6,9.2c1.2,0.3,0.9,0.3-1.1,0.2
		c1.4-0.3-4.6-0.8-4.6-0.8c1.1,0.6,1.2,0.7,0.1,0.3c1,1.4-0.4,1.4-4.2,0c0.4-0.3,0-0.3-1.1,0.1c-0.2-0.1-2.9-0.3-3.9-0.3
		c1.9-1.3,12.8-3,12.3-3.6c4.6,2.9,15.8-7.3,17.6-7c-0.3,0.1,1.3,1.3,2,1.3c-1.4-1.4-1-1.9,1.5-1.7c-2,0.1-1.8-0.6,0.8-1.9
		c-1.3,0.3-1.5-0.1-0.6-1.1c-2.1-1.1-1.7,2.7-1.7,2.7c-1.7,0.3-2.2,0.3-1.4-0.1c-1.2,0.2-1.9,0.1-2.4,0c0,0.2,0,0.3,0,0.6
		c-3-4.8-17.2,4.9-23.2,0.9c-0.2,0-0.3-0.1-0.7-0.2c1.1,1.6-0.6,1.6-5.1-0.2c-1.3,0.4-4.2-0.3-6-0.4c29.3-14.4,68.9-14.3,73-17.2
		c0.6-1.5,0.1-5.3,1.8-7c-1,1.7-1.1,1.7-0.5,0.1c0.4-0.1-0.4-5.4-0.9-6.6c-0.9,0.2-1.2,0.6-1.3,0.8c0.1-0.2,0.4-1.3,0-4.6
		c-3.1,2.9-5.1,11-6.1,2.5c1.4,1.6,1.4,1-0.1-1.6c-0.1,1-0.2,0.6-0.5-1.1c-15.7,4.3-55.3,39.5-88.1,18.1c1.7,0-6-2.1-5.9-1.8
		c1.3,0.9,1.3,1,0,0.4c1,2-0.9,1.6-5.7-1c-1.7,0.3-4.5-1.6-6.8-1.5c54.2-13,92.5-19.2,123.6-26.3c0,0.1,0.2,0.3,0.7,0.9
		c0.1-0.1,0.1-0.1,0.2-0.2c-0.5-0.4-0.8-0.7-0.9-0.7c0.3-0.1,0.7-0.2,1.1-0.2c-3-1.9-28.1-0.3-28.5,0.7c10.8-10.1-8.8-7.7-29-8.2
		c1,0.6,0.6,0.5-1-0.1c1.3,0.1-3.6-1.8-3.6-1.9c0.7,0.9,0.7,1,0,0.4c0.4,1.5-0.8,1.1-3.6-1c0.4-0.1,0.1-0.2-1-0.2
		c0,0-2.4-1.2-3.2-1.3c4.7-1.6,18.4-2.4,24.9-2.9c-0.4,0-0.8-0.2-0.9-0.2c-0.8,0-1.4-0.1-1.8-0.2c0,0.2,0,0.3-0.1,0.5
		c-2.3-5.6-9.5,3.5-13.8-0.5c1.3-0.1-3.7-1.5-3.8-1.5c0.9,0.8,0.9,0.9,0,0.3c0.6,1.4-0.6,1.2-3.7-0.6c0.3-0.2,0-0.2-1,0
		c-0.3-0.3-2.4-0.7-3.3-0.9c1.9-1,11.6-1,11.3-1.7c2.5,2.6,38.8-5.8,39.8-9.1c1.3,3.6,2.6-3.7,3-3.2c1.4,3.1,1.6,3,0.7-0.2
		c-0.2-0.2-0.2-0.4,0.2-0.7c-1.6,0.1-2.4-0.4-2.5-1.3c0,0-0.1-0.2-0.2-0.8c0,2-0.2,2.4-1.4,2.8c0.2-2.4-1.7,0.2-1.4,0.9
		c-1.3-1.2-1.7,0-1,3.8c-0.5-0.6-0.8-3.4-0.7-3.7c-4.7-4.4-34.1,14.8-43.1,4c-0.1,0.2,0,0.3,0,0.3c-0.6-0.1-1.6-0.2-3.6-0.1
		c0.3-0.2,0-0.2-1,0.1c-0.2-0.1-2.6-0.5-3.5-0.4c0.1-0.1,2.5-0.8,2.5-0.8c2.4-0.8,11-2.7,14-4c-3.3-4.4-18.1,5.4-23-0.3
		c1.2,0.8,1.2,0.9,0.1,0.4c1,1.7-0.6,1.5-4.8-0.3c-1.3,0.4-3.9-0.6-5.8-0.6c2.5-1.2,15.1-2.2,14.7-2.6c5.9,4.2,53.2-9.7,56.1-14.9
		c-0.4,0.5-0.5,0.1-0.6-1.1c-1.2-0.1-2.4,0.9-2,0.8c-0.4,0.4-4,1.2-3.1,0.8c-1.2,0.1-1.5,0-0.9-0.2c-0.7-2.8-20.3-0.6-30.2,1.1
		c1.1,0.3,0.8,0.4-1,0.1c0.7,0,0.6-0.3-0.3-0.8c-0.5-0.1-1,2.6-3.3,0.1c-0.1,0-0.1,0-0.4-0.2c0.8,1.4-0.5,1.3-3.9-0.3
		c-1.1-0.1-3.3,0-4.6-0.5c7.9-4.7,29.4-2.2,28.4-8.1c0.1,2.1,0.4,2.2,0.9,0.5c-1.7,0.3,7.4-2.7,8.5,0.4c-0.4-1,0.5-1.7,0.3-3
		c-1.1-0.2-1.5-0.8-1.1-1.9c-0.2,1.3-0.5,1.5-0.8,0.5c-0.9,4.2-1.7-0.9-3.5,1.7c-3.1,0-4.5,0.2-4.3,0.5c-18.5-11.4-37.6,19.9-62,9
		c1.6-0.3-6-0.9-5.8-0.8c1.4,0.7,1.4,0.8,0.1,0.4c1.3,1.7-0.5,1.7-5.5,0c-1.5,0.5-4.4-0.5-6.5-0.2c2.8-1.3,16.7-3.5,16.4-3.7
		c13.3,7,64.3-27.1,69.8-21.3c1-0.4,3.8-1.3,3.5-2.1c3.7-0.4,5.5-2.7,4.4-5.1c0,0.6-1.3,0.2-1,0.2c-0.3-0.1-0.5,0-0.6,0.2
		c-0.3-0.8-0.8-1.5-1.7-2c-1.7,2.3,0.5,0.2,0.8,2.4c-2.1,0.5-3.1-0.1-3-1.8c-0.7,0.8-0.5,1.7,0.5,2.6c-13.6,3.2-40,13.5-54.3,6.4
		c1.6-0.2-5.9-1.2-5.7-1.1c1.3,0.7,1.4,0.9,0.1,0.4c1.2,1.7-0.6,1.6-5.5-0.3c-1.5,0.5-4.4-0.7-6.5-0.5c2.9-1.2,16.8-2.6,16.6-2.9
		c6.4,3.8,47-10.8,50-12.7c29.6-19.5,60.8-36.5,37.6-25.5c-0.2-1.1-9.2,5-13,6.5c-4,1.6-105.2,41.8-120.5,34.4
		c1.4-0.1-0.3-0.5-0.7-0.4c-1,0.5-5.7-1.7-5.8-2.1c-0.4,0.1,2.2,4-5.1-3.3c0.7,0.3,0.3-0.1-1.1-1.2c-0.3-3.4-2.7-4.8-0.3-3
		c-2,0.5,6.4,4.1,8.3,5.3c10.4,0.1,42.6-10.8,44.1-12.2c-5.6-1.8,3.7-6.8,3.7-6.9c0.1,1.8,1.5,1.5,4.4-0.9c-0.5,0.3-0.6,0.3-0.5,0.1
		c-2.6-1-3.6-0.9-2.9,0.1c-6.4,2.4-12.5-1.5-18.9-2.4c0.6-0.2,0.1-0.3-1.4-0.2c1.4,1.1-4.4-1.6-4.8-1.2c25.4-7.1,49.9-2.2,65.7-8.7
		c-0.2-0.4-0.5-1-0.8-1.8c0.6,0.4,1.1,1,1.4,1.6c4.1-1.8,7.6-4.3,10.3-8.1l-1023.9-4.4c5.7,192.6,103,368.1,267.6,472L548,1699.1z
		 M1259.2,1604.1c0,0.4-0.4,0.4-1,0.1C1258.8,1604.5,1259.2,1604.6,1259.2,1604.1z M1239,1613.8c-0.2,0.3-0.4,1.3-0.9,0.6
		C1237.9,1612.9,1238.4,1613.5,1239,1613.8z M1284,1530.4c0,0.5-0.3,0.3-0.7,0C1283.4,1530.2,1283.6,1530.2,1284,1530.4z
		 M1270.1,1538.4c-0.1,0.3-0.2,1.2-0.6,0.6C1269.1,1537.5,1269.6,1538.1,1270.1,1538.4z M1252.1,1507.5l0.2,0.2
		C1251.9,1508,1252,1507.8,1252.1,1507.5z M1173.7,1532.7l0.3,0.2C1173.3,1533.2,1173.5,1533,1173.7,1532.7z M1267.3,1433.1l0.2,0.2
		C1267.1,1433.7,1267.2,1433.4,1267.3,1433.1z M1273.9,1411l0.2,0.2C1273.8,1411.5,1273.8,1411.2,1273.9,1411z M1304.7,1372.1
		c-0.2,0.3-0.4,1.3-0.8,0.6C1303.7,1371.2,1304.2,1371.8,1304.7,1372.1z M1290.1,1324.9l0.2,0.2
		C1290,1325.4,1290.1,1325.2,1290.1,1324.9z M1277.9,1307.8l0.2,0.2C1277.7,1308.3,1277.8,1308,1277.9,1307.8z M1291,1290.3
		c-0.2,0.4-0.2,0.1-0.2-0.2L1291,1290.3z M1250.7,1286.2l0.3,0.2C1250.6,1286.8,1250.7,1286.5,1250.7,1286.2z M1268.3,1262.1
		l0.3,0.2C1268.2,1262.7,1268.2,1262.4,1268.3,1262.1z M1222.1,1256.8c-0.3,0.4-0.3,0.2-0.3-0.1L1222.1,1256.8z M546.9,1665.7
		C544.7,1661.1,563.6,1673.2,546.9,1665.7L546.9,1665.7z M550,1651.7c0.3,0.2,0.6,0.3,0.6,0.3C550.6,1652,550.4,1651.9,550,1651.7
		c-0.3-0.1-0.8-0.4-1.5-0.7c-0.3-0.2-0.6-0.3-0.7-0.3c0.1,0,0.4,0.2,0.7,0.3C549.2,1651.3,549.7,1651.6,550,1651.7z M549.8,1647.2
		C551.2,1647.8,554.3,1649.4,549.8,1647.2L549.8,1647.2z M549.7,1654C555.5,1658.4,549.6,1655.3,549.7,1654L549.7,1654z
		 M552.6,1652.6C553.6,1652.8,555.6,1653.4,552.6,1652.6L552.6,1652.6z M553.4,1651.1C561.3,1653.5,553.3,1653.1,553.4,1651.1
		L553.4,1651.1z M556,1624.3C556,1624.4,556.1,1626.7,556,1624.3L556,1624.3z M557,1653c0.9,0.3,1.8,0.4,1.5,0.6L557,1653z
		 M564.1,1655C564.2,1655.1,562.6,1654.6,564.1,1655C566.7,1655.7,564.9,1655.6,564.1,1655z M569.4,1646.2
		C568.9,1646,567,1645.2,569.4,1646.2L569.4,1646.2z M571.3,1660C569.8,1659.3,571.8,1660.1,571.3,1660
		C571,1659.8,574.6,1660.9,571.3,1660z M575.9,1660.1c0.2,0.1,0.1-0.1-0.9-0.1h0h0l0-0.1c-0.6-0.5-3.1-2.9,2.1-0.5
		C579.7,1659,579.3,1660.9,575.9,1660.1z M585.7,1663.8C586.3,1662.2,585.7,1663.8,585.7,1663.8L585.7,1663.8z M599,1672.2
		c0.8-0.7,1.1-1.1,1.3-1.3C599.9,1671.3,599.1,1672,599,1672.2z M596.4,1665.2C602.9,1665.1,601,1669.6,596.4,1665.2L596.4,1665.2z
		 M602.7,1675.4c0.4,0.2,0.9,0.4,1.9,0.7C603,1675.9,602.6,1675.6,602.7,1675.4z M606,1662.4l0.4,0.3
		C605.3,1662.7,605.7,1662.6,606,1662.4z M817.2,1379.5c-0.2-0.3-0.3-0.6-0.3-0.9C816.9,1378.9,817,1379.2,817.2,1379.5z
		 M643.1,1670C639.4,1669.6,641.4,1669.2,643.1,1670L643.1,1670z M578.2,1649.4c-1.4-0.5-4.1-1.6-6.3-2.3c-0.1,0-0.3-0.1-0.5-0.2
		c-0.5-0.2-1-0.4-1.4-0.5c26.6,6.2,49,8.5,68.5,7.9C620.5,1657,600.6,1655.9,578.2,1649.4z M602.2,1638.3c-0.8-0.1,0.2-0.4,0.3-0.7
		C603,1638,602.3,1638.1,602.2,1638.3z M603.2,1635.2C603.1,1635.3,601.7,1635.8,603.2,1635.2L603.2,1635.2z M604.4,1637.8
		C603.7,1636.8,604.5,1637.9,604.4,1637.8L604.4,1637.8z M610.7,1638.1C609.5,1638,611.3,1638,610.7,1638.1L610.7,1638.1z
		 M618.2,1637.3c0,0,0.1,0,0.2,0.1c0.3,0.1,0.6,0.2,0,0C618.2,1637.3,618.2,1637.3,618.2,1637.3z M630.3,1648c-0.6,0-0.6,0-0.5,0
		C629.7,1648,629.7,1648,630.3,1648z M628.9,1641.1c0.5,0.2-0.5-0.2-1.3-0.5c-1.1-0.4-0.7-0.3,0,0
		C627.9,1640.8,628.3,1640.9,628.9,1641.1z M624.9,1639.6c0.5,0,0.2-0.2-0.1-0.3C625.7,1639.5,625.7,1639.8,624.9,1639.6z
		 M624.1,1639C625.5,1639.1,624.1,1639.1,624.1,1639L624.1,1639z M623.7,1639.6C626.1,1639.1,623.1,1639.7,623.7,1639.6
		L623.7,1639.6z M622.5,1638.9c-0.5,0.2-0.2,0.4-0.4,0.6C621.5,1639.1,622.1,1639,622.5,1638.9z M621.7,1637.6
		C621.9,1637,621.5,1639.6,621.7,1637.6L621.7,1637.6z M621.5,1639.6C621.7,1639.8,619.5,1639.2,621.5,1639.6L621.5,1639.6z
		 M620.2,1637.3c0.2,0.5,0.3,0.6,0.2,0.4C620.4,1637.9,620.4,1637.8,620.2,1637.3z M619.6,1636.9
		C620.9,1636.3,619.9,1636.8,619.6,1636.9L619.6,1636.9z M617.8,1635.9C618.2,1635.8,619.9,1635.7,617.8,1635.9L617.8,1635.9z
		 M618.1,1636.9C618.4,1637,616.5,1637.6,618.1,1636.9L618.1,1636.9z M616.8,1636.8c0-0.1,0.1-0.1,0.1-0.3
		C616.9,1636.6,616.9,1636.7,616.8,1636.8L616.8,1636.8C616.3,1637.8,616.4,1636.6,616.8,1636.8z M614.8,1636
		C614.8,1635.8,617.1,1636.7,614.8,1636L614.8,1636z M614.9,1635.1c-0.3,0.3-0.4,0.5-0.5,0.6
		C614.5,1635.6,614.6,1635.5,614.9,1635.1z M614,1636.5C615.5,1640.7,611.2,1637.2,614,1636.5L614,1636.5z M534,1596.5v0.2
		C534,1596.8,534,1596.6,534,1596.5z M518.3,1586.7c3.8,31.7,92.7,30.8,94.7,48.9c-4.8-4-22.2,0.4-25.5,1.1c0.3,0.2,0.2,0.3-0.7,0.2
		c0,0,0.4-0.1,0.7-0.2c-0.3-0.2-1.1-0.5-2.5-1c-0.2,0.4-0.4,0.4-0.8-0.1c0-0.1,0-0.1,0.1-0.2c-7.1-2.5-23.5-8.2-38.6-16.4
		c0,0.2,0.1,0.4,0.3,0.4c-0.1-0.2-0.5-0.1-0.7-0.3c0.1-0.2,0.1-0.3,0.2-0.3c-14.2-7.7-27.1-17.7-29.3-29.2c0.9,0.7-2.1-4-2.1-3.8
		c-0.1,0-0.2,0.1-0.2,0.1c-0.1,0.2,0.1,0.5,0.2,0.6c-0.1-0.1-0.3-0.4-0.2-0.6c-0.4-0.5-1.1-1.4-2.5-3.1c-1-0.7-1.8-2.7-2.9-4
		C510.5,1580,518.3,1586.9,518.3,1586.7z M543.3,1644.3c-0.3-0.1-0.5-0.3-0.9-0.5C543.4,1644.2,543.5,1644.3,543.3,1644.3z
		 M541.2,1643.4C537.6,1641.3,540.6,1642.9,541.2,1643.4L541.2,1643.4z M538.5,1641.9c-0.3-0.5-0.4,0.5-1.1,0
		C533.1,1640,539.7,1641.7,538.5,1641.9z M529.5,1637.6L529.5,1637.6C527.8,1636.4,528.4,1636.8,529.5,1637.6z M521.9,1627.7
		C523.6,1628.8,519.2,1625.9,521.9,1627.7L521.9,1627.7z M519.8,1626.5C517.5,1625.1,519.3,1626.2,519.8,1626.5L519.8,1626.5z
		 M511,1626.5c-0.7,0.2-1.7-1.1-3.1-2.5C508.8,1624.7,509.8,1625.4,511,1626.5z M504.8,1621.8c6,1.6,2.1,2.6-0.7-0.2
		C504.5,1621.7,504.7,1621.7,504.8,1621.8z M474,1563.4C473.7,1563.2,472,1561.7,474,1563.4L474,1563.4z M472.7,1560.5
		C473.3,1561,471.9,1560.5,472.7,1560.5L472.7,1560.5z M472.5,1561.2c0.3,0.3,0.2,0.6-0.2,0.3
		C472.6,1561.6,472.5,1561.4,472.5,1561.2z M472.2,1561.3C470.9,1561.2,472,1561.3,472.2,1561.3L472.2,1561.3z M471.6,1559.3
		C471.7,1559.1,470.9,1560.5,471.6,1559.3L471.6,1559.3z M471.4,1560.5c-0.3,0-0.3,0.3-0.5,0.4
		C471.1,1560.9,471,1560.6,471.4,1560.5z M471.3,1558.2c-0.5,0.2-0.6,0.2-0.4,0.2C470.7,1558.4,470.8,1558.4,471.3,1558.2z
		 M470.6,1557.8C470.6,1556.5,471,1557.6,470.6,1557.8L470.6,1557.8z M470,1558.1c-0.5,0.1-0.4,0.2-0.3,0.1
		C469.6,1558.2,469.6,1558.2,470,1558.1z M469.4,1557.8c0.1-0.1,0.1-0.1,0.2-0.2C469.5,1557.6,469.5,1557.7,469.4,1557.8
		L469.4,1557.8C468.4,1558.7,469.3,1557.5,469.4,1557.8z M468.8,1556.4C468.8,1556.5,468.8,1556.5,468.8,1556.4
		C468.7,1556.7,468.7,1556.6,468.8,1556.4C469.1,1555.7,468.9,1556.1,468.8,1556.4z M469.1,1557c0.1,0.1,0,0.2-0.4-0.2
		C469.1,1557.2,469.2,1557.2,469.1,1557z M466.8,1556.7C468.1,1556.5,465.7,1558.2,466.8,1556.7L466.8,1556.7z M467.6,1558.3
		C464.5,1557.9,469.1,1557.7,467.6,1558.3L467.6,1558.3z M466.7,1553.8c0.1-0.2-0.4,0.5-0.4,0.3
		C465.7,1554,467.3,1553.3,466.7,1553.8z M464,1553.4L464,1553.4C464,1553,464,1553.2,464,1553.4z M463.8,1550.6
		C464.6,1550.1,463.5,1551.6,463.8,1550.6L463.8,1550.6z M464.1,1551c0.1,0.1,0.1,0.3,0,0.6C463.7,1552.1,464,1551.4,464.1,1551z
		 M458.2,1550l0-1.1c0.1,0.1,0.2-0.4,0.3-0.3c0.1,0,0.1-0.3,0.1-0.3c0,0,0-0.1-0.1-0.1c2.7,2.7,4.8,4.8,6.3,6.2
		c0.9,0.9,1.5,1.5,1.6,1.6c-0.2-0.2-0.8-0.8-1.6-1.7c-5-1.7-19,3.7-6.3-6.3l0,0c-0.7,0.3-0.8,0.2-0.3-0.3l0-0.1
		c-3.5,0.9-6.2,1.2-8.1,0.8c-0.5,0.4-1.1,0.7-1.4,1c0,0,0.3-0.2,0.4-0.3c-0.1,0.1-0.4,0.3-0.4,0.3c0.6-0.4,1-0.7,1.4-1
		c-3.2-0.6-3.9-3-1.2-7.6c-0.7,0.4-0.5,0.2,0.7-0.7c-12-11.9-9.6-5.5-22.1-26.3c-0.1,0.7-0.2,0.5-0.3-0.5c0.2,0.4,0.4,0.2,0.6-0.4
		c-0.1-0.1-2.1-0.2-0.3-2.2c-0.2,0-0.3,0.1-0.3,0.1c0-0.2,0-0.8-0.5-2.2c0.2,0.1,0.2-0.1-0.2-0.6c0.1-0.1,0-1.6-0.2-2.1
		c1.2,0.7,3.7,7.3,4.2,6.8C427.8,1517.3,446.7,1536,458.2,1550L458.2,1550z M462,1554.8C461.3,1554.8,463.8,1553.9,462,1554.8
		L462,1554.8z M461.8,1556.9C462.1,1555.4,461.9,1557.6,461.8,1556.9L461.8,1556.9z M460.9,1556.4c0.1,0.4-0.3,0.3-0.6,0.5
		C459.9,1556.8,460.7,1556.6,460.9,1556.4z M452.2,1551.6C450.8,1552.5,450.2,1552.3,452.2,1551.6L452.2,1551.6z M447.3,1573.9
		C449.5,1579.4,446.7,1574.9,447.3,1573.9L447.3,1573.9z M447.8,1541.4C447,1541.6,449.6,1540.6,447.8,1541.4L447.8,1541.4z
		 M439.8,1539.1c-0.3,0.1-0.9,0.3-0.5-0.1C440.4,1538.3,440,1538.8,439.8,1539.1z M438.5,1540.9
		C438.5,1541,437.2,1542.8,438.5,1540.9L438.5,1540.9z M436.6,1537.9C438.9,1535.9,437,1537.6,436.6,1537.9L436.6,1537.9z
		 M434,1536.4c0-0.2-0.3-0.1-0.3-0.3C434.9,1535.2,433.6,1536.3,434,1536.4z M433.3,1533.4l0.9-0.4
		C433.7,1533.3,433.4,1533.6,433.3,1533.4z M428.6,1465.1C427,1465.7,426.7,1465.4,428.6,1465.1L428.6,1465.1z M436.1,1519.1
		l-0.2,0.2L436.1,1519.1z M436.1,1473c-0.4-0.3,0.4-0.2,0.6-0.4C436.8,1473,436.3,1472.9,436.1,1473z M437.6,1473.4
		C438.1,1472,437.6,1473.9,437.6,1473.4L437.6,1473.4z M441.4,1476C442.3,1474.9,441.6,1475.8,441.4,1476L441.4,1476z M442.8,1474.8
		C444.2,1475,441.3,1476,442.8,1474.8L442.8,1474.8z M442.9,1475.5l-0.1-0.2L442.9,1475.5z M443.3,1476.7
		C440.4,1475.4,444.8,1476.6,443.3,1476.7L443.3,1476.7z M448.7,1484.2C448.5,1483.9,447.1,1481.7,448.7,1484.2L448.7,1484.2z
		 M447.7,1481.4c0.3,0.5,0.1,0.7-0.2,0.3C447.7,1481.9,447.7,1481.7,447.7,1481.4z M447.1,1479.7
		C447.1,1479.6,447.3,1478.5,447.1,1479.7L447.1,1479.7z M446.9,1481.2C446.6,1481.1,448.4,1481.8,446.9,1481.2L446.9,1481.2z
		 M446.5,1477.2C446.8,1475.8,446.9,1477.2,446.5,1477.2L446.5,1477.2z M446.7,1480.3c-0.4-0.1-0.4,0.2-0.6,0.3
		C446.1,1480.1,446.5,1480.3,446.7,1480.3z M445.9,1477.3C446,1477.5,444.8,1477.3,445.9,1477.3L445.9,1477.3z M445.5,1476.6
		c-0.1,0.1-0.1,0.1-0.2,0.1c0,0,0,0,0,0c-1.1,0.6-0.1-0.2,0,0C445.3,1476.7,445.3,1476.7,445.5,1476.6z M444.8,1475.3
		C445.7,1474.1,444.5,1475.8,444.8,1475.3L444.8,1475.3z M444.7,1475.5C444.9,1475.4,445.5,1476.7,444.7,1475.5L444.7,1475.5z
		 M443.3,1471.7c0.2-0.2-0.6,0.4-0.5,0.2C442.2,1471.6,443.9,1471.4,443.3,1471.7z M440.8,1467.4
		C441.8,1467.2,440.3,1468.5,440.8,1467.4L440.8,1467.4z M441.1,1467.9c0,0.1,0,0.4-0.1,0.7C440.4,1468.9,440.8,1468.4,441.1,1467.9
		z M414.3,1427l-0.1,0.2C413.9,1427.1,414.1,1427.1,414.3,1427z M399,1223.5C399.2,1224.8,399,1223.5,399,1223.5L399,1223.5z
		 M399.4,1384.4C399.1,1383.7,398,1380.6,399.4,1384.4L399.4,1384.4z M398.7,1380.1c-0.1-0.1-0.2-0.4-0.2-0.4
		S398.6,1380,398.7,1380.1z M398.4,1380.7c0.2,0.3,0.2,0,0.3-0.2C398.9,1381.2,398.7,1381.4,398.4,1380.7z M398.4,1377.2
		C398.9,1377.1,396.8,1378.2,398.4,1377.2L398.4,1377.2z M398.3,1380.3c-0.3-0.3-0.4-0.3-0.5-0.5
		C398,1379.9,398.1,1380,398.3,1380.3z M398.1,1223.4C398.2,1224.2,398.3,1225.2,398.1,1223.4L398.1,1223.4z M397.7,1373.6
		C398,1373.7,398.9,1374.9,397.7,1373.6L397.7,1373.6z M397.6,1222.6C397.6,1222.8,397.6,1224.3,397.6,1222.6L397.6,1222.6z
		 M397.6,1227L397.6,1227L397.6,1227z M398,1225.2C396.5,1229.2,398.1,1221.8,398,1225.2L398,1225.2z M380.4,1232.8
		c0.8,0.6,0.8,0.6,0.1-0.1c-0.2-1.7,2.9,1,0.3-1.3c-0.7-0.6,9.3-8.4,14.1-9c0-0.1-0.1-0.2-0.1-0.2l0.1,0.2c0.5,0,1-0.2,1.3-0.1
		c0-0.1,0-0.1,0,0c0.5,0.1,0.9,0.5,1.1,1.2c-0.1-0.2-0.2,2.3-0.4,4.6c0,0,0,0,0,0c-0.4,3.5-1.3,6.3-3.8-3.8c0.2,1,0.1,1-0.2,0.1
		c1.6,6,2,7.7,1.3,5.5c0.3,1.8,0,3.1-2.5-4.1c-0.7,0.7,3.1,12.9-0.6,2.5c0,0.9,0.1,1.4,0.2,2c0,0,0,0,0.2,0.1c0.1,0.3,0,0.2-0.1-0.1
		c0,0.3,0,0.8,0.1,1c0.1,0.7,0.2,1,0.2,1c0,0-0.1-0.3-0.2-1c-0.2-0.6-0.4-1.4-0.8-2.4c0.7,1.4,0.6,1-0.3-0.8c0,0.1,0,0.2,0.1,0.5
		c0.2,0.7-0.1-0.3-0.1-0.5c-0.1-0.2-0.1-0.2-0.2-0.4c0.3,0.7,0.1,0.4-0.4-0.9c-0.9,0.9,2.7,9,2.6,8.9c-1.3-2.5-1.5-2.6-0.4-0.3
		c-0.2,0-4-6.8,0.6,1.4c-3.9-6.3-3-2.8-1.1,0.5c-0.8-1.2-1.1-1.9-1.4-2.3c0.1,0.3,0.3,0.7,0.4,1.3c-3.3-1.2-6.3,0.3-7.4-0.5
		c0-0.6-0.8-0.2-0.3-0.2c0,0.1-0.2,0.4-1.1-0.3c0.6,0.8,0.6-0.1-0.5,0.4c0-0.1-0.1,0-0.2,0.1c-0.2-0.1-0.7,0-0.9,0
		c0,0,0.1-0.9-0.1-0.8C382,1234.1,380.7,1233.6,380.4,1232.8z M397.1,1374.3C397.2,1374.6,395.7,1373.6,397.1,1374.3L397.1,1374.3z
		 M396.4,1371c-0.1,0.2-0.3,0.4-0.2,0.2C396.1,1371.3,396.3,1371.1,396.4,1371z M395.1,1232.8
		C394.6,1231.5,395.3,1233.2,395.1,1232.8C394.9,1232.5,393.7,1228.9,395.1,1232.8z M394.9,1365.9c0.2-0.1-0.6,0.2-0.5,0
		C393.7,1365.3,395.6,1365.8,394.9,1365.9z M394.1,1232.6c0,0,0-0.1-0.1-0.3c-0.1-0.3-0.1-0.2,0,0
		C394,1232.4,394,1232.4,394.1,1232.6C391.7,1225.3,393.6,1230.9,394.1,1232.6z M393.8,1364.5L393.8,1364.5
		C393.9,1364,393.8,1364.2,393.8,1364.5z M392.5,1236.3c-0.1-0.1-0.3-0.5-0.4-0.7c-0.1-0.1-0.1-0.1,0,0
		C392.1,1235.8,392.3,1235.9,392.5,1236.3z M391.2,1235.6c-0.3-0.5-0.4-0.7-0.5-0.9C390.8,1234.9,390.9,1235.1,391.2,1235.6z
		 M391.3,1237.1c-0.1-0.1,0,0.2,0,0.1C390.5,1235.8,391.3,1237.3,391.3,1237.1z M389.3,1346.5c-0.5,0.2-0.8,0.5-0.9,0.6
		C388.4,1347.1,388.8,1346.7,389.3,1346.5z M349.7,1365.5l-1,0C349.2,1365.4,349.5,1365,349.7,1365.5z M348.4,1359.7
		c0,0.3,0.4,0.4,0.4,0.7C347.4,1361.1,348.8,1360.1,348.4,1359.7z M345.1,1354.8C344.8,1355,342.5,1356.6,345.1,1354.8L345.1,1354.8
		z M342.8,1347.9C342.7,1347.8,344.1,1345.9,342.8,1347.9L342.8,1347.9z M341.2,1349.8c0.3,0.1,1.1,0.2,0.5,0.6
		C340.4,1350.6,340.9,1350.3,341.2,1349.8z M328.4,1314.6C330.4,1315,329.7,1315.3,328.4,1314.6L328.4,1314.6z M321.7,1294.9
		c0.3,0.9-0.5,0-0.8,0C321,1294.2,321.4,1294.9,321.7,1294.9z M320.6,1293.1C320.2,1293.1,318.6,1293.1,320.6,1293.1L320.6,1293.1z
		 M318.5,1295.6C318.6,1295.5,320,1296.8,318.5,1295.6L318.5,1295.6z M317.2,1285.8C316.9,1285.1,317.8,1287.2,317.2,1285.8
		L317.2,1285.8z M317.1,1283L317.1,1283C317.1,1283,316.9,1283,317.1,1283z M314.3,1282.7C317.2,1279.3,316,1285.4,314.3,1282.7
		L314.3,1282.7z M315.2,1285.4C313.9,1283.6,317,1284.8,315.2,1285.4L315.2,1285.4z M315.2,1283.9c0,0.1,0,0.2,0.1,0.4
		C315.2,1284.1,314.9,1284,315.2,1283.9z M314,1276.4C314.5,1276.5,315.4,1278.2,314,1276.4L314,1276.4z M313.6,1274.1
		C312.5,1272.8,316.4,1272.3,313.6,1274.1L313.6,1274.1z M313.2,1279.5c-0.1,0-0.1,0-0.3,0C313,1279.4,313.1,1279.4,313.2,1279.5
		C313.2,1279.5,313.2,1279.5,313.2,1279.5c0,0.2,0.3,0.3,0.4,0.2C313.5,1279.7,313.2,1279.7,313.2,1279.5z M313.5,1282.1
		C313.2,1282.2,313,1279.1,313.5,1282.1L313.5,1282.1z M312.9,1273.6C313.9,1274.8,312.9,1273.7,312.9,1273.6L312.9,1273.6z
		 M313,1276.9C313.5,1278.7,313,1276.9,313,1276.9L313,1276.9z M312.8,1277.9C312.7,1277.4,314.2,1279.6,312.8,1277.9L312.8,1277.9z
		 M312.9,1272c0.3,0.5,0.5,0.1,0.7,0.3C313.5,1273,313.2,1272.3,312.9,1272z M313.1,1266.1C313.1,1264.7,313.2,1266.1,313.1,1266.1
		L313.1,1266.1z M313.1,1270.5C312.9,1270,312.1,1268,313.1,1270.5L313.1,1270.5z M312.7,1266C312,1267.1,313.4,1257.7,312.7,1266
		L312.7,1266z M312.4,1261.9C312.5,1262.2,312.8,1263.2,312.4,1261.9L312.4,1261.9z M312.6,1268.9c-0.2-0.5-0.2-0.1-0.3,0.2
		C312.2,1268,312.5,1267.8,312.6,1268.9z M312.2,1257.7l0-0.2C312.2,1257.9,312.2,1257.7,312.2,1257.7z M312.4,1270
		C311.9,1268.4,312.4,1270,312.4,1270L312.4,1270z M312,1273.4C311.2,1273.3,314.2,1272.7,312,1273.4L312,1273.4z M283.8,1261.9
		C283.3,1258.6,283.8,1261.2,283.8,1261.9L283.8,1261.9z M295.2,1289.7C295.2,1289.6,294.1,1291.8,295.2,1289.7L295.2,1289.7z
		 M296,1309.8c0-0.8,0-1.3,0-0.3C296,1309.7,296,1309.8,296,1309.8z M298.1,1296.2l0,0.8C297.5,1295.3,297.8,1295.8,298.1,1296.2z
		 M312.1,1278.6C311.8,1278.3,310.9,1276.1,312.1,1278.6L312.1,1278.6z M311.7,1275.5C311.9,1275.7,312.9,1276.7,311.7,1275.5
		L311.7,1275.5z M312.7,1275L312.7,1275L312.7,1275c0,0.6,0,0.6,0,0.5C312.8,1275.6,312.8,1275.6,312.7,1275c-0.1,0-0.3,0.1-0.4,0.1
		C312.4,1275.1,312.6,1275,312.7,1275z M312.6,1282.4C313.1,1282.5,314.5,1283,312.6,1282.4L312.6,1282.4z M313.9,1290.1
		c-0.2,0.1,0.7-0.1,0.5,0.1C314.9,1291.2,313.1,1290,313.9,1290.1z M314.8,1292.4L314.8,1292.4
		C314.6,1292.9,314.7,1292.7,314.8,1292.4z M315.5,1299.9C313.9,1299.2,316.4,1298.4,315.5,1299.9L315.5,1299.9z M315.4,1298.8
		c0-0.3,0.1-0.6,0.3-1.1C316.3,1297.7,315.7,1298.2,315.4,1298.8z M316.3,1353.2l0.1,1C315.5,1352.1,315.9,1352.6,316.3,1353.2z
		 M317.6,1390.4l1.4,1.1C318.5,1391.4,318.4,1392.6,317.6,1390.4z M318.7,1318.2C320.2,1316.8,319.6,1317.9,318.7,1318.2
		L318.7,1318.2z M322.5,1306.4C322.1,1306.4,317.8,1307,322.5,1306.4L322.5,1306.4z M324.3,1410.8c1.4-0.9,0.4,1.1,1.5,3.3
		C325.5,1413,324.7,1411.9,324.3,1410.8z M331.6,1337.4C332,1337.7,329.8,1337,331.6,1337.4L331.6,1337.4z M333.1,1335.9
		c0.3-0.4,0.4-0.7,0-0.7C333.5,1335.3,333.4,1335.5,333.1,1335.9z M336.8,1436.1C338,1432.6,337,1435.6,336.8,1436.1L336.8,1436.1z
		 M329.4,1322.3C327.3,1322.2,328.1,1322.2,329.4,1322.3c-3.2-7.9-6.1-14.9-8.5-20.5c-1.1-2.7-2.1-5-3-7c-1.8-3.9-3-6.3-3.5-6.5
		c-1,0.5-1.1-0.5-1.1-1.7c0,0-0.1-0.1-0.2-0.3c0,0,0.2,0.2,0.3,0.3c0.1-1.1,0.4-2.3,0.5-2.4c0.6,2.3,1.2,2.8,1.8,1.3
		c2,0.3-0.4,2.2-0.4,1.2c-0.3,1.6,2.1,3,2.1,1.7c-0.9,0.9-0.5,3.3,0.5,6.2c0.9,1.9,1.9,4.3,3,7c4.3,8.6,10.3,17.7,8.1,14.3
		c4.5,7,6.4,15.9,8.5,26.5c12.6,31.3,26.8,66.7,33,78.2c-24.3-32-29-58.3-33-78.2C334.8,1335.4,332,1328.6,329.4,1322.3z
		 M363.2,1314l1,0C363.7,1314.1,363.3,1314.4,363.2,1314z M363.5,1318.5c0-0.2-0.3-0.3-0.3-0.5
		C364.7,1317.4,363.2,1318.2,363.5,1318.5z M366.2,1322.2C366.5,1322,368.8,1320.7,366.2,1322.2L366.2,1322.2z M368.8,1325.3
		c1.2-0.2,0.7,0.1,0.5,0.5C369,1325.7,368.3,1325.6,368.8,1325.3z M343.1,1446.1l0.5,0L343.1,1446.1z M350,1465.6
		C350,1465.8,350.2,1460.4,350,1465.6L350,1465.6z M350.4,1390.8l0.1-0.3C350.9,1390.8,350.7,1390.8,350.4,1390.8z M363.5,1490.6
		c1.2-1.1,0.6,1.3,2.2,3.8C365.1,1493.2,364.1,1491.9,363.5,1490.6z M370.4,1420.6c0.1,0.1,0.3,0.4,0.4,0.5
		C370.7,1421,370.4,1420.7,370.4,1420.6z M371.2,1421.6c0.4,0.4,0.3,0.3,0.2,0.1C371.5,1421.9,371.6,1422,371.2,1421.6z
		 M379.9,1350.9C377.9,1351,378.3,1350.5,379.9,1350.9L379.9,1350.9z M381.7,1520.4C381.8,1519.7,382.1,1516.4,381.7,1520.4
		L381.7,1520.4z M387.8,1510.1C387.9,1510.4,386.7,1510.1,387.8,1510.1L387.8,1510.1z M387,1364.3c-0.4-0.6,0.4-0.2,0.7-0.2
		C387.8,1364.6,387.3,1364.2,387,1364.3z M388.6,1365.4C389.2,1364.3,388.6,1365.7,388.6,1365.4L388.6,1365.4z M390.5,1536h0.5
		H390.5z M386.6,1355.7c-0.3,0.1-0.5,0.2-0.9,0.3C386.1,1355.8,386.3,1355.8,386.6,1355.7c-0.1-0.2,1.5-0.5,1.5-0.7
		c-3.6-3.2-8-9.3-8-12.5v-3.4h-3.4h3.4v3.4c0-3.4-3.8-5.4,1.2-10.1c-4.1-8.9-31.7-29.3-22.2-50.6c0.4,1.1-0.1-3.5-0.1-3.4
		c-0.5,1-0.8,1.2-0.5,0.3c-1.2,1-1.5-0.1-0.6-3.5c-0.4-0.9-0.2-2.8-0.5-4.2c2.3,2.6,3.8,11.9,5.3,11.6c9.7,15.9,17.5,52.9,23.8,72.4
		c0.2,0.2,0.4,0.4,0.6,0.6c0.8-0.2,1.3-0.4,0,0c3.6,3.4,6.5,7,5.5,11.8C390.7,1366.5,388.7,1362.1,386.6,1355.7z M375.9,1336
		c0.2-0.3,0.2-0.4,0-0.5C376.1,1335.6,376.1,1335.8,375.9,1336z M377.5,1334.2C376.9,1334,379.3,1334.4,377.5,1334.2L377.5,1334.2z
		 M392.9,1360c0,0.2,0,0.5-0.2,0.8C392.1,1361,392.6,1360.5,392.9,1360z M392,1369.7c-0.1-0.1-0.2-0.2,0.1,0.1
		C391.8,1369.4,391.8,1369.5,392,1369.7z M392,1367L392,1367C392,1367,392.3,1367,392,1367z M392.5,1370.2
		C392.4,1370.2,393.6,1370.6,392.5,1370.2L392.5,1370.2z M392.6,1359.2C394,1359.3,391.9,1360.4,392.6,1359.2L392.6,1359.2z
		 M394,1369.6C395.5,1370.5,392.3,1370.5,394,1369.6L394,1369.6z M394.1,1370.6c0-0.1-0.1-0.2-0.1-0.3
		C394.2,1370.5,394.4,1370.5,394.1,1370.6z M395.9,1371.4C394,1373.5,391.6,1373,395.9,1371.4L395.9,1371.4z M396.5,1373.3
		c0.8,0.5-1,0.6-1.2,0.2C396.2,1372.4,396.5,1372.7,396.5,1373.3z M395.4,1375.4c-0.1-0.1,0-0.1,0.7,0.3
		C395.4,1375.3,395.3,1375.3,395.4,1375.4z M396.1,1378C396.7,1377.1,397,1378.4,396.1,1378L396.1,1378z M397,1375
		c0,0-0.1-0.1-0.2-0.3c-0.2-0.3-0.1-0.2,0,0C396.9,1374.8,396.9,1374.9,397,1375z M397,1378.5c0.1-0.6,0.5-0.2,0.7,0
		C397.3,1378.3,397.3,1378.6,397,1378.5z M397.7,1543c1.7,0.3,1.8,1.5,2.5,3.2C399.4,1545.4,397.6,1544,397.7,1543z M402,1552.3
		c0,0.2,0.1,0.6,0.2,1.1c0.1,0.7,0.3,1.5,0.3,1.4c-0.1-0.6-0.2-1-0.3-1.4C402.1,1553,402,1552.5,402,1552.3z M411.6,1445.5
		c0-0.2-0.3-0.2-0.3-0.3C412.6,1444.4,411.3,1445.3,411.6,1445.5z M411.1,1442.2l0.9-0.3C411.5,1442.1,411.2,1442.5,411.1,1442.2z
		 M414.2,1447.5c0.5-0.4,0.8-0.6,1-0.7c-4.3-5.1-2.3-12.8-9.9-26.1c-5.2-6.3-1.8-7.7,5.3,1.5c2.7,3.5,15.9,26.8,24.7,40.6
		c0,0,0.1,0,0.1,0c-0.1,0,0,0.1-0.1,0.1c0.1,0.2,0.1,0.3,0.2,0.4c0.1,0,0.1,0.1,0.2,0l-0.2,0c2,3.2,3.8,5.9,5.1,7.6
		c0.5,0,0.8,0.2,0.7,0.7l0,0c0.7,0.9,1.3,1.4,1.6,1.3c1.3-1.4,1,1.8,1,1.8c-0.9-0.7-1.5-0.7-1.7,0.3c-0.4-1-0.6-1.1-0.4-0.3
		c-0.8-0.4-0.3-0.4-2.2-0.1c-1.3-2.3-1.4-3-0.3-2.1c-0.1-0.1,0.6,1.3,2-0.9c-0.2-0.3-0.4-0.5-0.6-0.8c-1.6-0.2-5.4,1.4-5.4,1.4
		c6.2-7.3-17.2-0.7,0.2-9l0-0.1c-0.6,0.1-0.7,0-0.2-0.4l-0.1-0.1c-3.5-0.1-6.5-0.4-8.4-1.2c-0.6,0.2-1.2,0.5-1.5,0.7
		c1.1-0.5,0,0,0,0c0.6-0.3,1.1-0.5,1.5-0.7c-3.3-1.4-3.8-4.1,0.5-9c-4.6-1-7.5-2.2-9.6-3.6c0,0.1-0.2,0.2-0.3,0.4
		c-0.3,0-1,0.2-0.5-0.2c0.6-0.3,0.7-0.3,0.7-0.3c-1-0.7-1.8-1.4-2.4-2.1C415.1,1446.9,414.8,1447.1,414.2,1447.5z M425.4,1453.3
		C424.6,1453.3,427.3,1452.9,425.4,1453.3L425.4,1453.3z M424.1,1454.7c0.1,0,0.2,0.2,0,0.4C424.3,1454.9,424.2,1454.8,424.1,1454.7
		z M415.8,1450.9C415.9,1451,414.4,1452.7,415.8,1450.9L415.8,1450.9z M418.5,1555.3C412.1,1557.5,419.1,1554.6,418.5,1555.3
		L418.5,1555.3z M449.2,1603.7c-0.5-0.7-0.3-0.9,0.1-0.7C449.1,1603.1,449.1,1603.4,449.2,1603.7z M452.7,1602
		C457.1,1604.3,453.4,1602.5,452.7,1602L452.7,1602z M454.9,1606.7c0.8,0.6,1.6,1.5,2.3,2.6C456.4,1609,455.6,1608,454.9,1606.7z
		 M509.4,1649.4c0.3,0,0.4,0,0.6,0c0.2,0,0.4,0,0.5,0c0,0-0.2,0-0.5,0C509.7,1649.4,509.7,1649.4,509.4,1649.4
		C515.4,1649.5,517.1,1649.5,509.4,1649.4z M419.6,1560.3c2,1.9,1.8,1.6,1,0.7c7.3,5.7,20.3,17.1,41,30.6
		c-4.5-0.4,40.1,31.4,80.1,53.6c-7.4-0.1-14.7-1-21.9-2.8C479.5,1624.7,440.6,1598.2,419.6,1560.3z M543.8,1648.5
		C543.8,1648.8,538.7,1645.2,543.8,1648.5L543.8,1648.5z"/>
	<path fill="#F0B75A" d="M1350,1020.9c-33.6-25.6-77.6-29.7-130.5-13.5c-21.2,6.5-43.3,18.3-65.1,35.2
		c-36.7,31.5-71.6,72.4-98.2,114.4h94.1c-5.2,0-10.1-2.5-13.9-7.2c-9.2-11.4-8.1-28,2.3-38c9.4-9,18.7-16.6,28-23.8
		c41.7-36.2,81.6-56,118.6-56c73.1,0,100.3,83,106.1,125h30.9C1414.1,1115,1394.5,1054.8,1350,1020.9z"/>
	<path fill="#F0B75A" d="M1272.5,1097.6c-21.8,0-47.2,11.9-74.6,33.1c-4.3,3.8-8.7,8.1-13.1,12.3c-1.8,1.7-3.7,3.2-5.7,4.2
		c-2.4,2.2-4.7,2.7-7.1,5c-3.4,3.3-7.5,4.8-11.7,4.8h165.5C1320.1,1129,1306.2,1097.6,1272.5,1097.6z"/>
	<path fill="#F0B75A" d="M987.1,1022.5c38.2,12,61.4,26.4,75,37.7c3.7-4.2,7.3-8.4,11.1-12.4c-17.3-17.1-50.4-46-87.4-57.5
		c-32.6-10.2-89.9,3.5-114.1,13.8c-3.2,11-5.8,22.3-7.7,33.7C894.8,1023.7,942.8,1008.6,987.1,1022.5z"/>
	<path fill="#F0B75A" d="M858.9,1150.3c0.1,2.8,0.3,6.7,0.4,6.7h130.4c8.7-14,18.3-28.8,29.2-44.2c-8.5-7-26.2-17.7-58.4-27.8
		c-34.3-10.7-77.8,5.6-102.4,18.6C857.8,1120.9,858.2,1136.6,858.9,1150.3z"/>
	<path fill="#F0B75A" d="M1012.4,926.9c50.1,15.6,92.2,54,111.7,73.9c5.4-4.6,10.9-9,16.3-13.2c-22.7-38.1-87.2-122.5-199.7-75.9
		c-8.7,3.6-16.6,8.1-23.8,13.2c-1.3,1.2-2.6,2.3-3.9,3.6C945.5,920.5,983.3,917.7,1012.4,926.9z"/>
	<path fill="#F0B75A" d="M769.7,1157h30.9c4.2-71,3.7-212.6,97.4-282c13.1-11.6,28.2-21.1,45.8-29.4c93.1-43.6,149.1,1.7,192.2,36.6
		c30.3,24.6,50.9,53.3,61.7,70.3c7-3.1,14-5.7,21-7.8c3.3-1,6.4-1.6,9.6-2.4c-22.6-54.9-93.4-173.6-274.1-140.2
		c-30.8,5.7-56.7,16.3-78.7,32.8C779.8,920.2,769.9,1101,769.7,1157z"/>
	<path fill="#F0B75A" d="M294.4,1157h39.4c20.6-71,65.6-142.9,134.5-196c12.6-10.5,25.8-20,40.2-29.5c1.4-0.9,2.7-1.4,4.1-2.3
		C635,849.9,720.3,887,755.6,910.8c2.8-6.3,5.7-12.4,8.9-18.6c-14.6-15.1-103.9-96.3-261.4-3.1c-23,13.6-43.5,26.4-62.1,41
		C325.6,1027.5,298.8,1143,294.4,1157z"/>
	<path fill="#F0B75A" d="M520.1,1157c-10.4,0-19.6-7.2-22.3-18.9c-2.6-11-6.7-19.3-12.4-26c-12-14.2-32.4-30-48.7-40.3
		c-18.2,26.6-32,57.2-40.8,85.2H520.1z"/>
	<path fill="#F0B75A" d="M535.1,1065c11.5,13.5,19.7,30.6,24.3,50.7c3.2,14.1-4.2,28.2-16.6,32.7c-3.3,5.3-8.3,7.9-14.5,9.6
		c-1.1,0.3-2.3-1-3.4-1h181.8c0.5-28,2.5-61.8,8.8-103.6c-30.9-2-82.3-18.1-128.6-97.3c-6.6,2.2-13.5,5.3-20.5,8.5
		c20.1,13.8,42.5,32.2,57.1,52.8c15.2,21.5,25.3,53.4,29.9,94.8c1.5,13.3-6,25.5-17.2,29.5c-3.9,6.2-10.1,10.7-17.5,11.6
		c-1.1,0.2-2,0.2-3,0.2c-12.6,0-23.4-10.2-25-24.2c-4.3-39-13-58.2-19.6-67.5c-15.8-22.2-50.2-44.6-71.1-56.5
		c-2.1,1.6-4,3.2-6.1,4.8c-4,3.4-8,6.9-11.8,10.4C499.5,1032,520.5,1047.8,535.1,1065z"/>
	<path fill="#F0B75A" d="M728.9,989.5c0.8-3.2,1.6-6.4,2.4-9.6c-1.6-1-3.1-2.2-4.5-3.6c-1.8-1.8-23.4-21.8-62.3-27.5
		C690.5,979.9,714.5,987.9,728.9,989.5z"/>
	<path fill="#6E1010" d="M564.1,1655C564.9,1655.6,566.7,1655.7,564.1,1655L564.1,1655z"/>
	<path fill="#6E1010" d="M564.1,1655C562.6,1654.6,564.2,1655.1,564.1,1655L564.1,1655z"/>
	<path fill="#6E1010" d="M577.1,1659.3c-5.2-2.4-2.7,0-2.1,0.6l0,0.1h0h0c1,0,1,0.2,0.9,0.1C579.3,1660.9,579.7,1658.9,577.1,1659.3
		z"/>
	<polyline fill="none" stroke="#6E1010" stroke-width="0" stroke-linecap="round" stroke-linejoin="round" points="575,1659.8 
		575,1659.8 575,1659.8 	"/>
	<path fill="#6E1010" d="M585.7,1663.8C585.7,1663.8,586.3,1662.2,585.7,1663.8L585.7,1663.8z"/>
	
		<line fill="none" stroke="#6E1010" stroke-width="0" stroke-linecap="round" stroke-linejoin="round" x1="343.5" y1="1446.2" x2="343.1" y2="1446.1"/>
	<path fill="#6E1010" d="M447.3,1573.9C446.7,1574.9,449.5,1579.4,447.3,1573.9L447.3,1573.9z"/>
	<path fill="#6E1010" d="M319,1391.5l-1.4-1.1C318.4,1392.6,318.5,1391.4,319,1391.5z"/>
	<path fill="#6E1010" d="M511,1626.5c-1.2-1.1-2.2-1.9-3.1-2.5C509.2,1625.4,510.2,1626.8,511,1626.5z"/>
	<path fill="#6E1010" d="M504.8,1621.8c-0.1,0-0.2-0.1-0.7-0.2C506.8,1624.3,510.8,1623.4,504.8,1621.8z"/>
	<path fill="#6E1010" d="M543.3,1644.3c0.2,0,0.1-0.1-0.9-0.5C542.8,1644,543.1,1644.2,543.3,1644.3z"/>
	<path fill="#6E1010" d="M541.2,1643.4C540.6,1642.9,537.6,1641.3,541.2,1643.4L541.2,1643.4z"/>
	<path fill="#6E1010" d="M296,1309.8c0-0.1,0-0.1,0-0.3C296,1308.5,296,1309,296,1309.8z"/>
	<path fill="#6E1010" d="M549.8,1647.2C554.3,1649.4,551.2,1647.8,549.8,1647.2L549.8,1647.2z"/>
	<path fill="#6E1010" d="M571.3,1660C574.6,1660.9,571,1659.8,571.3,1660L571.3,1660z"/>
	<path fill="#6E1010" d="M571.3,1660C571.8,1660.1,569.8,1659.3,571.3,1660L571.3,1660z"/>
	<path fill="#6E1010" d="M553.4,1651.1C553.3,1653.1,561.3,1653.5,553.4,1651.1L553.4,1651.1z"/>
	<path fill="#6E1010" d="M558.5,1653.7c0.3-0.2-0.6-0.3-1.5-0.6L558.5,1653.7z"/>
	<path fill="#6E1010" d="M537.4,1641.9c0.7,0.5,0.8-0.5,1.1,0C539.7,1641.7,533.1,1640,537.4,1641.9z"/>
	<path fill="#6E1010" d="M552.6,1652.6C555.6,1653.4,553.6,1652.8,552.6,1652.6L552.6,1652.6z"/>
	<path fill="#6E1010" d="M543.8,1648.5C538.7,1645.2,543.8,1648.8,543.8,1648.5L543.8,1648.5z"/>
	<path fill="none" stroke="#6E1010" stroke-width="0" stroke-linecap="round" stroke-linejoin="round" d="M547.8,1650.6
		c0.1,0,0.4,0.2,0.7,0.3"/>
	<path fill="none" stroke="#6E1010" stroke-width="0" stroke-linecap="round" stroke-linejoin="round" d="M550,1651.7
		c-0.3-0.1-0.8-0.4-1.5-0.7"/>
	<path fill="none" stroke="#6E1010" stroke-width="0" stroke-linecap="round" stroke-linejoin="round" d="M550.6,1652
		c0,0-0.3-0.1-0.6-0.3"/>
	<path fill="#6E1010" d="M350,1465.6C350.2,1460.4,350,1465.8,350,1465.6L350,1465.6z"/>
	<path fill="#6E1010" d="M336.8,1436.1C337,1435.6,338,1432.6,336.8,1436.1L336.8,1436.1z"/>
	<path fill="#6E1010" d="M324.3,1410.8c0.4,1.1,1.1,2.2,1.5,3.3C324.7,1411.9,325.7,1410,324.3,1410.8z"/>
	<path fill="#6E1010" d="M569.4,1646.2C567,1645.2,568.9,1646,569.4,1646.2L569.4,1646.2z"/>
	<path fill="#6E1010" d="M521.9,1627.7C519.2,1625.9,523.6,1628.8,521.9,1627.7L521.9,1627.7z"/>
	<path fill="#6E1010" d="M519.8,1626.5C519.3,1626.2,517.5,1625.1,519.8,1626.5L519.8,1626.5z"/>
	
		<line fill="none" stroke="#6E1010" stroke-width="0" stroke-linecap="round" stroke-linejoin="round" x1="393.9" y1="1535.8" x2="393.9" y2="1535.8"/>
	<path fill="#6E1010" d="M549.7,1654C549.6,1655.3,555.5,1658.4,549.7,1654L549.7,1654z"/>
	<path fill="#6E1010" d="M452.7,1602C453.4,1602.5,457.1,1604.3,452.7,1602L452.7,1602z"/>
	<path fill="#6E1010" d="M509.4,1649.4C517.1,1649.5,515.4,1649.5,509.4,1649.4L509.4,1649.4z"/>
	<path fill="none" stroke="#6E1010" stroke-width="0" stroke-linecap="round" stroke-linejoin="round" d="M509.9,1649.4
		c-0.2,0-0.2,0-0.6,0"/>
	
		<line fill="none" stroke="#6E1010" stroke-width="0" stroke-linecap="round" stroke-linejoin="round" x1="506.3" y1="1648.1" x2="506.3" y2="1648.1"/>
	<path fill="#6E1010" d="M449.2,1603.7c-0.1-0.3,0-0.5,0.1-0.7C448.8,1602.8,448.7,1602.9,449.2,1603.7z"/>
	<path fill="#6E1010" d="M604.6,1676.1c-1-0.3-1.6-0.5-1.9-0.7C602.6,1675.6,603,1675.9,604.6,1676.1z"/>
	<path fill="#6E1010" d="M600.3,1670.9c-0.2,0.2-0.6,0.6-1.3,1.3C599.1,1672,599.9,1671.3,600.3,1670.9z"/>
	<path fill="#6E1010" d="M546.9,1665.7C563.6,1673.2,544.7,1661.1,546.9,1665.7L546.9,1665.7z"/>
	<path fill="#6E1010" d="M402.2,1553.4c-0.1-0.5-0.2-0.9-0.2-1.1C402,1552.5,402.1,1553,402.2,1553.4z"/>
	<path fill="#6E1010" d="M402.2,1553.4c0.1,0.4,0.1,0.8,0.3,1.4C402.5,1554.9,402.4,1554.1,402.2,1553.4z"/>
	<path fill="#6E1010" d="M381.7,1520.4C382.1,1516.4,381.8,1519.7,381.7,1520.4L381.7,1520.4z"/>
	<path fill="#6E1010" d="M363.5,1490.6c0.6,1.3,1.6,2.6,2.2,3.8C364.1,1491.9,364.7,1489.6,363.5,1490.6z"/>
	<path fill="#6E1010" d="M571.5,1647c0.2,0.1,0.3,0.1,0.5,0.2c2.2,0.8,4.9,1.9,6.3,2.3c22.4,6.5,42.3,7.5,60.4,5
		c-19.6,0.6-41.9-1.8-68.5-7.9C570.5,1646.6,571,1646.8,571.5,1647z"/>
	<path fill="#6E1010" d="M461.7,1591.6c-20.7-13.6-33.7-25-41-30.6c0.8,0.9,1,1.1-1-0.7c20.9,37.9,59.9,64.4,100.2,82.1
		c7.2,1.7,14.5,2.6,21.9,2.8C501.8,1623.1,457.2,1591.2,461.7,1591.6z"/>
	<path fill="#6E1010" d="M457.2,1609.2c-0.7-1.1-1.5-1.9-2.3-2.6C455.6,1608,456.4,1609,457.2,1609.2z"/>
	<path fill="#6E1010" d="M643.1,1670C641.4,1669.2,639.4,1669.6,643.1,1670L643.1,1670z"/>
	<path fill="#6E1010" d="M606.4,1662.8l-0.4-0.3C605.7,1662.6,605.3,1662.7,606.4,1662.8z"/>
	<path fill="#6E1010" d="M596.4,1665.2C601,1669.6,602.9,1665.1,596.4,1665.2L596.4,1665.2z"/>
	<path fill="#6E1010" d="M529.5,1637.6C528.4,1636.8,527.8,1636.4,529.5,1637.6L529.5,1637.6z"/>
	<path fill="#6E1010" d="M418.5,1555.3C419.1,1554.6,412.1,1557.5,418.5,1555.3L418.5,1555.3z"/>
	<path fill="#6E1010" d="M387.8,1510.1C386.7,1510.1,387.9,1510.4,387.8,1510.1L387.8,1510.1z"/>
	<path fill="#6E1010" d="M316.4,1354.1l-0.1-1C315.9,1352.6,315.5,1352.1,316.4,1354.1z"/>
	<path fill="#6E1010" d="M298.2,1296.9l0-0.8C297.8,1295.8,297.5,1295.3,298.2,1296.9z"/>
	<path fill="#6E1010" d="M295.2,1289.7C294.1,1291.8,295.2,1289.6,295.2,1289.7L295.2,1289.7z"/>
	<path fill="#6E1010" d="M283.8,1261.9C283.8,1261.2,283.3,1258.6,283.8,1261.9L283.8,1261.9z"/>
	<path fill="#6E1010" d="M397.7,1543c-0.1,1,1.7,2.4,2.5,3.2C399.5,1544.4,399.4,1543.3,397.7,1543z"/>
	<path fill="#6E1010" d="M474,1563.4C472,1561.7,473.7,1563.2,474,1563.4L474,1563.4z"/>
	<path fill="#6E1010" d="M472.7,1560.5C471.9,1560.5,473.3,1561,472.7,1560.5L472.7,1560.5z"/>
	<path fill="#6E1010" d="M472.5,1561.2c0,0.2,0.1,0.4-0.2,0.3C472.7,1561.8,472.8,1561.6,472.5,1561.2z"/>
	<path fill="#6E1010" d="M471.6,1559.3C470.9,1560.5,471.7,1559.1,471.6,1559.3L471.6,1559.3z"/>
	<path fill="#6E1010" d="M472.2,1561.3C472,1561.3,470.9,1561.2,472.2,1561.3L472.2,1561.3z"/>
	<path fill="none" stroke="#6E1010" stroke-width="0" stroke-linecap="round" stroke-linejoin="round" d="M470.9,1558.4
		c-0.1,0-0.1,0,0.4-0.2"/>
	<path fill="#6E1010" d="M470.6,1557.8C471,1557.6,470.6,1556.5,470.6,1557.8L470.6,1557.8z"/>
	<path fill="none" stroke="#6E1010" stroke-width="0" stroke-linecap="round" stroke-linejoin="round" d="M471.4,1560.5
		c-0.3,0-0.3,0.3-0.5,0.4"/>
	<path fill="none" stroke="#6E1010" stroke-width="0" stroke-linecap="round" stroke-linejoin="round" d="M469.7,1558.2
		c-0.1,0-0.2,0,0.3-0.1"/>
	<path fill="#6E1010" d="M467.6,1558.3C469.1,1557.7,464.5,1557.9,467.6,1558.3L467.6,1558.3z"/>
	<path fill="none" stroke="#6E1010" stroke-width="0" stroke-linecap="round" stroke-linejoin="round" d="M468.6,1556.8
		c0.5,0.4,0.5,0.4,0.4,0.2"/>
	<path fill="#6E1010" d="M469.6,1557.6c-0.1,0.1-0.1,0.1-0.2,0.2h0C469.5,1557.7,469.5,1557.6,469.6,1557.6z"/>
	<path fill="#6E1010" d="M469.4,1557.8C469.3,1557.5,468.4,1558.7,469.4,1557.8L469.4,1557.8z"/>
	<path fill="#6E1010" d="M468.8,1556.4C468.9,1556.1,469.1,1555.7,468.8,1556.4L468.8,1556.4z"/>
	<path fill="#6E1010" d="M468.8,1556.5C468.8,1556.5,468.8,1556.5,468.8,1556.5C468.7,1556.6,468.7,1556.7,468.8,1556.5z"/>
	<path fill="#6E1010" d="M447.8,1541.4C449.6,1540.6,447,1541.6,447.8,1541.4L447.8,1541.4z"/>
	<path fill="#6E1010" d="M434.1,1533l-0.9,0.4C433.4,1533.6,433.7,1533.3,434.1,1533z"/>
	<path fill="#6E1010" d="M464.1,1551.6c0.1-0.3,0.1-0.5,0-0.6C464,1551.4,463.7,1552.1,464.1,1551.6z"/>
	<path fill="#6E1010" d="M463.8,1550.6C463.5,1551.6,464.6,1550.1,463.8,1550.6L463.8,1550.6z"/>
	<path fill="none" stroke="#6E1010" stroke-width="0" stroke-linecap="round" stroke-linejoin="round" d="M449,1549.3
		c-0.1,0.1-0.4,0.3-0.4,0.3"/>
	<path fill="#6E1010" d="M439.8,1539.1c0.2-0.3,0.6-0.8-0.5-0.1C438.9,1539.5,439.6,1539.2,439.8,1539.1z"/>
	<path fill="#6E1010" d="M464,1553.5L464,1553.5C464,1553.2,464,1553,464,1553.5z"/>
	<path fill="#6E1010" d="M430.4,1511.7c-0.5,0.5-3-4.9-4.2-5.7c0.2,0.5,0.3,2,0.2,2.1c0.4,0.5,0.4,0.7,0.2,0.6
		c0.5,1.5,0.5,2,0.5,2.2c0,0,0.1-0.2,0.3-0.1c-1.8,2,0.2,2.1,0.3,2.2c-0.2,0.7-0.4,0.8-0.6,0.4c0.1,1,0.2,1.2,0.3,0.5
		c12.5,20.8,10.1,14.4,22.1,26.3c-1.2,0.8-1.5,1.1-0.7,0.7c-2.7,4.6-2,7.1,1.2,7.6c-0.4,0.3-0.8,0.5-1.4,1c0.3-0.2,0.9-0.6,1.4-1
		c1.9,0.4,4.6,0,8.1-0.8C446.7,1536.2,427.8,1516.1,430.4,1511.7z"/>
	
		<line fill="none" stroke="#6E1010" stroke-width="0" stroke-linecap="round" stroke-linejoin="round" x1="436.1" y1="1519.1" x2="436" y2="1519.3"/>
	<polygon fill="#6E1010" points="458.2,1547.8 458.1,1547.8 458.2,1547.8 	"/>
	<path fill="#6E1010" d="M458.5,1548.1c-0.1-0.1-0.2-0.2-0.3-0.3C457.6,1548.3,457.8,1548.4,458.5,1548.1z"/>
	<path fill="none" stroke="#6E1010" stroke-width="0" stroke-linecap="round" stroke-linejoin="round" d="M466.4,1556.1
		c-0.2-0.2-0.8-0.8-1.6-1.7"/>
	<path fill="#6E1010" d="M464.7,1554.4c-1.4-1.4-3.6-3.6-6.3-6.3C445.7,1558.2,459.7,1552.7,464.7,1554.4z"/>
	<path fill="#6E1010" d="M458.6,1548.1C458.5,1548.1,458.5,1548.1,458.6,1548.1L458.6,1548.1
		C458.5,1548.1,458.6,1548.1,458.6,1548.1z"/>
	<path fill="#6E1010" d="M466.8,1556.7C465.7,1558.2,468.1,1556.5,466.8,1556.7L466.8,1556.7z"/>
	<path fill="#6E1010" d="M466.3,1554.1c0,0.2,0.5-0.6,0.4-0.3C467.3,1553.3,465.7,1554,466.3,1554.1z"/>
	<path fill="#6E1010" d="M462,1554.8C463.8,1553.9,461.3,1554.8,462,1554.8L462,1554.8z"/>
	<path fill="#6E1010" d="M461.8,1556.9C461.9,1557.6,462.1,1555.4,461.8,1556.9L461.8,1556.9z"/>
	<path fill="#6E1010" d="M460.9,1556.4c-0.2,0.2-0.9,0.3-0.6,0.5C460.5,1556.8,461,1556.8,460.9,1556.4z"/>
	<path fill="#6E1010" d="M452.2,1551.6C450.2,1552.3,450.8,1552.5,452.2,1551.6L452.2,1551.6z"/>
	<path fill="#6E1010" d="M438.5,1540.9C437.2,1542.8,438.5,1541,438.5,1540.9L438.5,1540.9z"/>
	<path fill="#6E1010" d="M436.6,1537.9C437,1537.6,438.9,1535.9,436.6,1537.9L436.6,1537.9z"/>
	<path fill="#6E1010" d="M433.6,1536.2c0,0.1,0.3,0.1,0.3,0.3C433.6,1536.3,434.9,1535.2,433.6,1536.2z"/>
	<path fill="#6E1010" d="M312.2,1257.7c0,0,0,0.2,0-0.2L312.2,1257.7z"/>
	<path fill="#6E1010" d="M312.4,1261.9C312.8,1263.2,312.5,1262.2,312.4,1261.9L312.4,1261.9z"/>
	<path fill="#6E1010" d="M312.7,1266C313.4,1257.7,312,1267.1,312.7,1266L312.7,1266z"/>
	<path fill="#6E1010" d="M312.4,1270C312.4,1270,311.9,1268.4,312.4,1270L312.4,1270z"/>
	<path fill="#6E1010" d="M312.6,1268.9c-0.1-1.1-0.4-0.8-0.3,0.2C312.4,1268.7,312.4,1268.3,312.6,1268.9z"/>
	<path fill="#6E1010" d="M313.1,1266.1C313.2,1266.1,313.1,1264.7,313.1,1266.1L313.1,1266.1z"/>
	<path fill="#6E1010" d="M312,1273.4C314.2,1272.7,311.2,1273.3,312,1273.4L312,1273.4z"/>
	<path fill="#6E1010" d="M313.1,1270.5C312.1,1268,312.9,1270,313.1,1270.5L313.1,1270.5z"/>
	<path fill="#6E1010" d="M311.7,1275.5C312.9,1276.7,311.9,1275.7,311.7,1275.5L311.7,1275.5z"/>
	<path fill="#6E1010" d="M312.1,1278.6C310.9,1276.1,311.8,1278.3,312.1,1278.6L312.1,1278.6z"/>
	
		<line fill="none" stroke="#6E1010" stroke-width="0" stroke-linecap="round" stroke-linejoin="round" x1="309.7" y1="1269" x2="309.7" y2="1269"/>
	
		<line fill="none" stroke="#6E1010" stroke-width="0" stroke-linecap="round" stroke-linejoin="round" x1="309.7" y1="1269" x2="309.7" y2="1269"/>
	<path fill="none" stroke="#6E1010" stroke-width="0" stroke-linecap="round" stroke-linejoin="round" d="M312.7,1275
		c-0.1,0-0.3,0.1-0.4,0.1"/>
	<path fill="#6E1010" d="M313.7,1272.2c-0.3-0.2-0.4,0.2-0.7-0.3C313.2,1272.3,313.5,1273,313.7,1272.2z"/>
	<path fill="#6E1010" d="M312.9,1273.6C312.9,1273.7,313.9,1274.8,312.9,1273.6L312.9,1273.6z"/>
	<path fill="#6E1010" d="M312.8,1277.9C314.2,1279.6,312.7,1277.4,312.8,1277.9L312.8,1277.9z"/>
	<path fill="#6E1010" d="M313,1276.9C313,1276.9,313.5,1278.7,313,1276.9L313,1276.9z"/>
	<path fill="#6E1010" d="M314.3,1282.7C316,1285.4,317.2,1279.3,314.3,1282.7L314.3,1282.7z"/>
	<path fill="#6E1010" d="M313.5,1282.1C313,1279.1,313.2,1282.2,313.5,1282.1L313.5,1282.1z"/>
	<path fill="#6E1010" d="M313,1279.4c0.2,0,0.2,0,0.3,0c0,0,0,0,0,0C313.1,1279.4,313,1279.4,313,1279.4z"/>
	<path fill="none" stroke="#6E1010" stroke-width="0" stroke-linecap="round" stroke-linejoin="round" d="M313.2,1279.5
		c0,0.2,0.3,0.3,0.4,0.2"/>
	<path fill="#6E1010" d="M313.6,1274.1C316.4,1272.3,312.5,1272.8,313.6,1274.1L313.6,1274.1z"/>
	<path fill="#6E1010" d="M314,1276.4C315.4,1278.2,314.5,1276.5,314,1276.4L314,1276.4z"/>
	<path fill="#6E1010" d="M312.6,1282.4C314.5,1283,313.1,1282.5,312.6,1282.4L312.6,1282.4z"/>
	<path fill="#6E1010" d="M318.7,1318.2C319.6,1317.9,320.2,1316.8,318.7,1318.2L318.7,1318.2z"/>
	<path fill="#6E1010" d="M331.6,1337.4C329.8,1337,332,1337.7,331.6,1337.4L331.6,1337.4z"/>
	<path fill="#6E1010" d="M349.7,1365.5c-0.2-0.5-0.6-0.1-1,0L349.7,1365.5z"/>
	<path fill="#6E1010" d="M315.4,1298.8c0.3-0.5,0.9-1.1,0.3-1.1C315.4,1298.1,315.3,1298.5,315.4,1298.8z"/>
	<path fill="#6E1010" d="M315.5,1299.9C316.4,1298.4,313.9,1299.2,315.5,1299.9L315.5,1299.9z"/>
	<path fill="none" stroke="#6E1010" stroke-width="0" stroke-linecap="round" stroke-linejoin="round" d="M321,1301.8
		c-1.1-2.7-2.1-5-3-7"/>
	<path fill="#6E1010" d="M337.6,1342.5c4,19.9,8.7,46.2,33,78.2C364.4,1409.2,350.2,1373.9,337.6,1342.5z"/>
	<path fill="#6E1010" d="M350.4,1390.8c0.3,0,0.5,0,0.1-0.3L350.4,1390.8z"/>
	<path fill="#6E1010" d="M321,1301.8c2.4,5.6,5.3,12.6,8.5,20.5c-1.3,0-2.2,0,0,0c2.6,6.4,5.3,13.2,8.2,20.3
		c-2.1-10.6-4-19.5-8.5-26.5C331.2,1319.4,325.3,1310.4,321,1301.8z"/>
	<path fill="#6E1010" d="M341.2,1349.8c-0.2,0.5-0.7,0.8,0.5,0.6C342.2,1350,341.4,1349.9,341.2,1349.8z"/>
	<path fill="#6E1010" d="M314.9,1292.4L314.9,1292.4C314.7,1292.7,314.6,1292.9,314.9,1292.4z"/>
	<path fill="none" stroke="#6E1010" stroke-width="0" stroke-linecap="round" stroke-linejoin="round" d="M333.1,1335.2
		c0.4,0,0.3,0.3,0,0.7"/>
	<path fill="#6E1010" d="M317.4,1288.6c0,1.3-2.4-0.2-2.1-1.7c0.1,1,2.5-0.9,0.4-1.2c-0.6,1.4-1.2,1-1.8-1.3c0,0.1-0.4,1.3-0.5,2.4
		c-0.1-0.1-0.3-0.3-0.3-0.3c0.2,0.2,0.2,0.3,0.2,0.3c0,1.2,0.1,2.3,1.1,1.7c0.4,0.1,1.7,2.6,3.5,6.5
		C316.9,1291.9,316.5,1289.5,317.4,1288.6z"/>
	<path fill="#6E1010" d="M315.2,1285.4C317,1284.8,313.9,1283.6,315.2,1285.4L315.2,1285.4z"/>
	<path fill="#6E1010" d="M315.3,1284.3c0-0.2-0.1-0.3-0.1-0.4C314.9,1284,315.2,1284.1,315.3,1284.3z"/>
	<path fill="#6E1010" d="M313.9,1290.1c-0.8-0.1,1.1,1.2,0.5,0.1C314.5,1289.9,313.6,1290.2,313.9,1290.1z"/>
	<path fill="#6E1010" d="M317.1,1283C316.9,1283,317.1,1283,317.1,1283L317.1,1283z"/>
	<path fill="#6E1010" d="M317.2,1285.8C317.8,1287.2,316.9,1285.1,317.2,1285.8L317.2,1285.8z"/>
	<path fill="#6E1010" d="M318.5,1295.6C320,1296.8,318.6,1295.5,318.5,1295.6L318.5,1295.6z"/>
	<path fill="#6E1010" d="M320.6,1293.1C318.6,1293.1,320.2,1293.1,320.6,1293.1L320.6,1293.1z"/>
	<path fill="#6E1010" d="M321.7,1294.9c-0.3,0-0.7-0.7-0.8,0C321.3,1294.9,322,1295.8,321.7,1294.9z"/>
	<path fill="#6E1010" d="M322.5,1306.4C317.8,1307,322.1,1306.4,322.5,1306.4L322.5,1306.4z"/>
	<path fill="#6E1010" d="M328.4,1314.6C329.7,1315.3,330.4,1315,328.4,1314.6L328.4,1314.6z"/>
	<path fill="none" stroke="#6E1010" stroke-width="0" stroke-linecap="round" stroke-linejoin="round" d="M370.7,1421
		c-0.1-0.1-0.3-0.4-0.4-0.5"/>
	<path fill="none" stroke="#6E1010" stroke-width="0" stroke-linecap="round" stroke-linejoin="round" d="M371.3,1421.7
		c0.1,0.2,0.2,0.3-0.2-0.1"/>
	<path fill="#6E1010" d="M342.8,1347.9C344.1,1345.9,342.7,1347.8,342.8,1347.9L342.8,1347.9z"/>
	<path fill="#6E1010" d="M345.1,1354.8C342.5,1356.6,344.8,1355,345.1,1354.8L345.1,1354.8z"/>
	<path fill="#6E1010" d="M348.8,1360.4c0-0.3-0.4-0.4-0.4-0.7C348.8,1360.1,347.4,1361.1,348.8,1360.4z"/>
	<path fill="#6E1010" d="M399,1223.5C399,1223.5,399.2,1224.8,399,1223.5L399,1223.5z"/>
	<path fill="#6E1010" d="M398,1225.2C398.1,1221.8,396.5,1229.2,398,1225.2L398,1225.2z"/>
	<path fill="#6E1010" d="M398.1,1223.4C398.3,1225.2,398.2,1224.2,398.1,1223.4L398.1,1223.4z"/>
	<path fill="#6E1010" d="M397.6,1222.6C397.6,1224.3,397.6,1222.8,397.6,1222.6L397.6,1222.6z"/>
	<path fill="#6E1010" d="M394.1,1232.6C393.6,1230.9,391.7,1225.3,394.1,1232.6L394.1,1232.6z"/>
	<path fill="#6E1010" d="M394.1,1232.6c-0.1-0.2-0.1-0.2-0.1-0.3C394,1232.4,394.1,1232.6,394.1,1232.6z"/>
	<path fill="#6E1010" d="M394,1232.3C393.9,1232.1,393.9,1232,394,1232.3L394,1232.3z"/>
	<path fill="#6E1010" d="M391.6,1230.5c-0.1-0.2-0.1-0.2-0.2-0.1l0,0C391.6,1230.7,391.7,1230.8,391.6,1230.5z"/>
	<path fill="#6E1010" d="M390.6,1228.7c-0.1-0.4-0.1-0.5-0.1-0.5C390.5,1228.4,390.7,1229.4,390.6,1228.7z"/>
	<path fill="#6E1010" d="M380.1,1235.1c0.2-0.1,0.1,0.8,0.1,0.8c0.2,0,0.7-0.1,0.9,0c0.1-0.2,0.1-0.2,0.2-0.1
		c1.1-0.5,1.2,0.4,0.5-0.4c0.9,0.7,1.1,0.4,1.1,0.3c-0.5,0,0.3-0.4,0.3,0.2c1.1,0.8,4.1-0.7,7.4,0.5c-0.2-0.6-0.3-1-0.4-1.3
		c0.2,0.4,0.6,1.1,1.4,2.3c-2-3.3-2.8-6.8,1.1-0.5c-4.6-8.3-0.8-1.4-0.6-1.4c-1.1-2.3-1-2.2,0.4,0.3c0.1,0.1-3.5-8-2.6-8.9
		c0.5,1.3,0.7,1.7,0.4,0.9c0.1,0.2,0.1,0.2,0.2,0.4c0.8,1.8,1,2.2,0.3,0.8c0.4,1,0.7,1.8,0.8,2.4c0-0.2-0.1-0.7-0.1-1c0,0,0,0,0,0
		l0,0c-0.1-0.6-0.1-1.1-0.2-2c3.7,10.4-0.1-1.8,0.6-2.5c2.5,7.2,2.8,6,2.5,4.1c0.7,2.2,0.3,0.4-1.3-5.5c0.3,0.9,0.3,0.8,0.2-0.1
		c2.4,10.2,3.3,7.4,3.8,3.8c0,0,0,0,0,0c0.2-2.3,0.3-4.8,0.4-4.6c-0.1-0.6-0.5-1-1.1-1.2c0-0.1,0-0.1,0,0c-0.3-0.1-0.8,0-1.3,0.1
		l-0.1-0.2c0,0,0.1,0.1,0.1,0.2c-4.7,0.6-14.7,8.4-14.1,9c2.6,2.3-0.5-0.4-0.3,1.3c0.7,0.6,0.6,0.6-0.1,0.1
		C380.7,1233.6,382,1234.1,380.1,1235.1z M390.9,1233.7c0.1,0.2,0.4,0.9,0.1,0.3C390.4,1232.9,390.7,1233.4,390.9,1233.7z"/>
	<path fill="none" stroke="#6E1010" stroke-width="0" stroke-linecap="round" stroke-linejoin="round" d="M391.5,1231.4
		c0.1,0.7,0.2,1,0.2,1"/>
	
		<line fill="none" stroke="#6E1010" stroke-width="0" stroke-linecap="round" stroke-linejoin="round" x1="393.9" y1="1226.9" x2="393.9" y2="1226.9"/>
	<path fill="#6E1010" d="M395.1,1232.8C395.3,1233.2,394.6,1231.5,395.1,1232.8L395.1,1232.8z"/>
	<path fill="#6E1010" d="M395.1,1232.8C393.7,1228.9,394.9,1232.5,395.1,1232.8L395.1,1232.8z"/>
	<path fill="#6E1010" d="M392.1,1235.7C392,1235.6,392,1235.5,392.1,1235.7L392.1,1235.7z"/>
	<path fill="#6E1010" d="M392.5,1236.3c-0.2-0.4-0.3-0.6-0.4-0.7C392.2,1235.8,392.4,1236.2,392.5,1236.3z"/>
	<path fill="none" stroke="#6E1010" stroke-width="0" stroke-linecap="round" stroke-linejoin="round" d="M390.7,1234.8
		c0.1,0.2,0.2,0.3,0.5,0.9"/>
	<path fill="#6E1010" d="M391.3,1237.2c0,0-0.1-0.2,0-0.1C391.3,1237.3,390.5,1235.8,391.3,1237.2z"/>
	<path fill="#6E1010" d="M399.4,1384.4C398,1380.6,399.1,1383.7,399.4,1384.4L399.4,1384.4z"/>
	<path fill="none" stroke="#6E1010" stroke-width="0" stroke-linecap="round" stroke-linejoin="round" d="M398.5,1379.8
		c0,0,0.2,0.3,0.2,0.4"/>
	<path fill="#6E1010" d="M398.4,1380.7c0.3,0.7,0.5,0.5,0.3-0.2C398.7,1380.7,398.7,1381,398.4,1380.7z"/>
	<path fill="#6E1010" d="M398.4,1377.2C396.8,1378.2,398.9,1377.1,398.4,1377.2L398.4,1377.2z"/>
	<path fill="none" stroke="#6E1010" stroke-width="0" stroke-linecap="round" stroke-linejoin="round" d="M398.3,1380.3
		c-0.3-0.3-0.4-0.3-0.5-0.5"/>
	<path fill="#6E1010" d="M397.7,1373.6C398.9,1374.9,398,1373.7,397.7,1373.6L397.7,1373.6z"/>
	<path fill="#6E1010" d="M397,1378.5c0.3,0.1,0.3-0.2,0.7,0C397.4,1378.4,397.1,1377.9,397,1378.5z"/>
	<path fill="#6E1010" d="M397.1,1374.3C395.7,1373.6,397.2,1374.6,397.1,1374.3L397.1,1374.3z"/>
	<path fill="#6E1010" d="M396.8,1374.8c0.1,0.1,0.2,0.3,0.2,0.3C396.9,1374.9,396.9,1374.8,396.8,1374.8z"/>
	<path fill="#6E1010" d="M396.8,1374.8C396.7,1374.6,396.7,1374.5,396.8,1374.8L396.8,1374.8z"/>
	<path fill="#6E1010" d="M395.9,1371.4C391.6,1373,394,1373.5,395.9,1371.4L395.9,1371.4z"/>
	<path fill="#6E1010" d="M396.5,1373.3c0-0.6-0.3-0.9-1.2,0.2C395.5,1374,397.3,1373.8,396.5,1373.3z"/>
	<path fill="#6E1010" d="M396.1,1378C397,1378.4,396.7,1377.1,396.1,1378L396.1,1378z"/>
	<path fill="none" stroke="#6E1010" stroke-width="0" stroke-linecap="round" stroke-linejoin="round" d="M396.1,1375.7
		c-0.7-0.4-0.8-0.4-0.7-0.3"/>
	<path fill="none" stroke="#6E1010" stroke-width="0" stroke-linecap="round" stroke-linejoin="round" d="M396.2,1371.2
		c-0.1,0.2,0.1-0.1,0.2-0.2"/>
	<path fill="none" stroke="#6E1010" stroke-width="0" stroke-linecap="round" stroke-linejoin="round" d="M388.4,1347.2
		c0-0.1,0.4-0.4,0.9-0.6"/>
	<path fill="#6E1010" d="M377.5,1334.2C379.3,1334.4,376.9,1334,377.5,1334.2L377.5,1334.2z"/>
	<path fill="#6E1010" d="M363.2,1314c0.1,0.4,0.5,0.1,1,0L363.2,1314z"/>
	<path fill="#6E1010" d="M392.9,1360c-0.3,0.5-0.8,1-0.2,0.8C392.9,1360.5,392.9,1360.2,392.9,1360z"/>
	<path fill="#6E1010" d="M392.6,1359.2C391.9,1360.4,394,1359.3,392.6,1359.2L392.6,1359.2z"/>
	<path fill="none" stroke="#6E1010" stroke-width="0" stroke-linecap="round" stroke-linejoin="round" d="M375.9,1335.5
		c0.1,0.1,0.2,0.3,0,0.5"/>
	<polyline fill="none" stroke="#6E1010" stroke-width="0" stroke-linecap="round" stroke-linejoin="round" points="376.6,1345.7 
		376.6,1345.7 376.6,1345.7 	"/>
	<path fill="#6E1010" d="M357.2,1270.9c0.3,1.4,0,3.3,0.4,4.2c-0.9,3.4-0.7,4.5,0.5,3.6c-0.3,0.9-0.2,0.9,0.3-0.1
		c0,0,0.1,4.9-0.3,3.8c-9.5,21.3,17.2,42.6,21.4,51.4c-5,4.7-5,8.4-2.9,11.7c2.1,3.2,6.2,6.1,9.7,9.3c-6.3-19.5-14.1-56.6-23.8-72.4
		C361,1282.8,359.5,1273.6,357.2,1270.9z"/>
	<path fill="#6E1010" d="M368.8,1325.3c-0.6,0.3,0.2,0.4,0.5,0.5C369.6,1325.4,370.1,1325.1,368.8,1325.3z"/>
	<path fill="#6E1010" d="M393.7,1364.4L393.7,1364.4C393.8,1364.2,393.9,1364,393.7,1364.4z"/>
	<path fill="#6E1010" d="M394,1369.6C392.3,1370.5,395.5,1370.5,394,1369.6L394,1369.6z"/>
	<path fill="#6E1010" d="M394,1370.4c0,0.1,0.1,0.2,0.1,0.3C394.4,1370.5,394.2,1370.5,394,1370.4z"/>
	<path fill="#6E1010" d="M394.3,1365.9c-0.1,0.2,0.7-0.2,0.5,0C395.6,1365.8,393.7,1365.3,394.3,1365.9z"/>
	<path fill="#6E1010" d="M392.5,1370.2C393.6,1370.6,392.4,1370.2,392.5,1370.2L392.5,1370.2z"/>
	<path fill="#6E1010" d="M392,1367C392.3,1367,392,1367,392,1367L392,1367z"/>
	<path fill="none" stroke="#6E1010" stroke-width="0" stroke-linecap="round" stroke-linejoin="round" d="M392.1,1369.8
		c-0.3-0.4-0.2-0.3-0.1-0.1"/>
	<path fill="#6E1010" d="M388.6,1365.4C388.6,1365.7,389.2,1364.3,388.6,1365.4L388.6,1365.4z"/>
	<path fill="#6E1010" d="M387.8,1364.1c-0.3,0.1-1.1-0.4-0.7,0.2C387.3,1364.2,387.8,1364.6,387.8,1364.1z"/>
	<path fill="none" stroke="#6E1010" stroke-width="0" stroke-linecap="round" stroke-linejoin="round" d="M385.7,1355.9
		c0.4-0.1,0.6-0.2,0.9-0.3"/>
	<path fill="#6E1010" d="M387,1355.5C388.3,1355.1,387.8,1355.3,387,1355.5c-0.2-0.2-0.4-0.4-0.6-0.6c0.1,0.2,0.1,0.5,0.2,0.7
		c2.1,6.5,4.1,10.9,5.9,11.7C393.5,1362.6,390.6,1358.9,387,1355.5z"/>
	<path fill="#6E1010" d="M379.9,1350.9C378.3,1350.5,377.9,1351,379.9,1350.9L379.9,1350.9z"/>
	<path fill="#6E1010" d="M366.2,1322.2C368.8,1320.7,366.5,1322,366.2,1322.2L366.2,1322.2z"/>
	<path fill="#6E1010" d="M363.5,1318.5c-0.3-0.3,1.1-1.1-0.3-0.5C363.2,1318.2,363.5,1318.3,363.5,1318.5z"/>
	<path fill="#6E1010" d="M448.7,1484.2C447.1,1481.7,448.5,1483.9,448.7,1484.2L448.7,1484.2z"/>
	<path fill="#6E1010" d="M447.7,1481.4c0,0.2,0,0.4-0.2,0.3C447.8,1482.1,448,1481.9,447.7,1481.4z"/>
	<path fill="#6E1010" d="M447.1,1479.7C447.3,1478.5,447.1,1479.6,447.1,1479.7L447.1,1479.7z"/>
	<path fill="#6E1010" d="M446.9,1481.2C448.4,1481.8,446.6,1481.1,446.9,1481.2L446.9,1481.2z"/>
	<path fill="#6E1010" d="M446.5,1477.2C446.9,1477.2,446.8,1475.8,446.5,1477.2L446.5,1477.2z"/>
	<path fill="#6E1010" d="M446.1,1480.6c0.2,0,0.3-0.3,0.6-0.3C446.5,1480.3,446.1,1480.1,446.1,1480.6z"/>
	<path fill="#6E1010" d="M445.9,1477.3C444.8,1477.3,446,1477.5,445.9,1477.3L445.9,1477.3z"/>
	<path fill="#6E1010" d="M443.3,1476.7C444.8,1476.6,440.4,1475.4,443.3,1476.7L443.3,1476.7z"/>
	<path fill="#6E1010" d="M444.7,1475.5C445.5,1476.7,444.9,1475.4,444.7,1475.5L444.7,1475.5z"/>
	<path fill="#6E1010" d="M445.2,1476.7C445.2,1476.5,444.1,1477.4,445.2,1476.7L445.2,1476.7z"/>
	<path fill="#6E1010" d="M445.5,1476.6c-0.1,0.1-0.1,0.1-0.2,0.1c0,0,0,0,0,0C445.3,1476.7,445.4,1476.7,445.5,1476.6z"/>
	<path fill="#6E1010" d="M444.8,1475.3C444.5,1475.8,445.7,1474.1,444.8,1475.3L444.8,1475.3z"/>
	<path fill="#6E1010" d="M425.4,1453.3C427.3,1452.9,424.6,1453.3,425.4,1453.3L425.4,1453.3z"/>
	<path fill="#6E1010" d="M412,1441.9l-0.9,0.3C411.2,1442.5,411.5,1442.1,412,1441.9z"/>
	<path fill="#6E1010" d="M441.1,1467.9c-0.2,0.4-0.7,1-0.1,0.7C441.1,1468.3,441.1,1468.1,441.1,1467.9z"/>
	<path fill="#6E1010" d="M440.8,1467.4C440.3,1468.5,441.8,1467.2,440.8,1467.4L440.8,1467.4z"/>
	<path fill="#6E1010" d="M425.3,1462.2C425.3,1462.2,426.4,1461.7,425.3,1462.2L425.3,1462.2z"/>
	<path fill="#6E1010" d="M435.8,1463.2c-0.1,0-0.1,0-0.2,0l0,0.1L435.8,1463.2z"/>
	<path fill="#6E1010" d="M414.3,1427c-0.2,0-0.4,0.1-0.1,0.2L414.3,1427z"/>
	<path fill="none" stroke="#6E1010" stroke-width="0" stroke-linecap="round" stroke-linejoin="round" d="M424.1,1454.7
		c0.1,0,0.2,0.2,0,0.4"/>
	<path fill="#6E1010" d="M416.9,1449.1c-0.5,0.4,0.2,0.2,0.5,0.2c0.1-0.2,0.3-0.3,0.3-0.4c2.1,1.4,5,2.6,9.6,3.6
		c-4.3,4.9-3.8,7.6-0.5,9c-0.4,0.2-0.8,0.4-1.5,0.7c0.3-0.1,0.9-0.4,1.5-0.7c2,0.8,4.9,1.1,8.4,1.2c-8.7-13.8-21.9-37.1-24.7-40.6
		c-7.1-9.2-10.5-7.8-5.3-1.5c7.7,13.3,5.6,21.1,9.9,26.1c0.6,0.8,1.5,1.5,2.4,2.1C417.7,1448.9,417.5,1448.9,416.9,1449.1z"/>
	<path fill="#6E1010" d="M435.4,1462.7c-0.1,0-0.1,0-0.1,0H435.4C435.4,1462.8,435.3,1462.8,435.4,1462.7z"/>
	<path fill="none" stroke="#6E1010" stroke-width="0" stroke-linecap="round" stroke-linejoin="round" d="M415.2,1446.8
		c-0.2,0.1-0.4,0.3-1,0.7"/>
	<path fill="#6E1010" d="M435.4,1472.2c0,0,3.8-1.6,5.4-1.4c-1.3-1.7-3.1-4.3-5.1-7.6C418.2,1471.5,441.6,1464.9,435.4,1472.2z"/>
	<path fill="#6E1010" d="M439.3,1472.4c-1.2-0.9-1.1-0.2,0.3,2.1c2-0.3,1.4-0.3,2.2,0.1c-0.1-0.8,0-0.7,0.4,0.3
		c0.2-0.9,0.7-1,1.7-0.3c0,0,0.3-3.2-1-1.8c-0.3,0.1-0.9-0.4-1.6-1.3C440,1473.7,439.2,1472.4,439.3,1472.4z"/>
	<path fill="#6E1010" d="M435.5,1463.2c-0.1-0.1-0.2-0.2-0.2-0.4C434.8,1463.2,434.9,1463.3,435.5,1463.2z"/>
	<path fill="#6E1010" d="M441.4,1471.6c0.1-0.5-0.2-0.7-0.7-0.7C440.9,1471.1,441.2,1471.3,441.4,1471.6L441.4,1471.6z"/>
	<path fill="#6E1010" d="M442.8,1474.8C441.3,1476,444.2,1475,442.8,1474.8L442.8,1474.8z"/>
	
		<line fill="none" stroke="#6E1010" stroke-width="0" stroke-linecap="round" stroke-linejoin="round" x1="442.9" y1="1475.5" x2="442.8" y2="1475.4"/>
	<path fill="#6E1010" d="M443.3,1471.7c0.7-0.4-1.1-0.1-0.5,0.2C442.7,1472.1,443.4,1471.5,443.3,1471.7z"/>
	<path fill="#6E1010" d="M441.4,1476C441.6,1475.8,442.3,1474.9,441.4,1476L441.4,1476z"/>
	<path fill="#6E1010" d="M437.6,1473.4C437.6,1473.9,438.1,1472,437.6,1473.4L437.6,1473.4z"/>
	<path fill="#6E1010" d="M436.7,1472.6c-0.2,0.1-1,0-0.6,0.4C436.3,1472.9,436.8,1473,436.7,1472.6z"/>
	<path fill="#6E1010" d="M428.6,1465.1C426.7,1465.4,427,1465.7,428.6,1465.1L428.6,1465.1z"/>
	<path fill="#6E1010" d="M415.8,1450.9C414.4,1452.7,415.9,1451,415.8,1450.9L415.8,1450.9z"/>
	<path fill="#6E1010" d="M411.3,1445.2c0,0.2,0.3,0.2,0.3,0.3C411.3,1445.3,412.6,1444.4,411.3,1445.2z"/>
	
		<line fill="none" stroke="#6E1010" stroke-width="0" stroke-linecap="round" stroke-linejoin="round" x1="632.6" y1="1648.1" x2="632.6" y2="1648.1"/>
	<path fill="#6E1010" d="M627.6,1640.6C626.9,1640.4,626.5,1640.2,627.6,1640.6L627.6,1640.6z"/>
	<path fill="#6E1010" d="M628.9,1641.1c-0.6-0.2-0.9-0.3-1.3-0.5C628.3,1640.9,629.3,1641.3,628.9,1641.1z"/>
	<path fill="#6E1010" d="M624.1,1639C624.1,1639.1,625.5,1639.1,624.1,1639L624.1,1639z"/>
	<path fill="#6E1010" d="M624.9,1639.6c0.8,0.2,0.8-0.1-0.1-0.3C625.1,1639.4,625.4,1639.6,624.9,1639.6z"/>
	<path fill="#6E1010" d="M621.7,1637.6C621.5,1639.6,621.9,1637,621.7,1637.6L621.7,1637.6z"/>
	<path fill="#6E1010" d="M623.7,1639.6C623.1,1639.7,626.1,1639.1,623.7,1639.6L623.7,1639.6z"/>
	<path fill="#6E1010" d="M619.6,1636.9C619.9,1636.8,620.9,1636.3,619.6,1636.9L619.6,1636.9z"/>
	<path fill="#6E1010" d="M617.8,1635.9C619.9,1635.7,618.2,1635.8,617.8,1635.9L617.8,1635.9z"/>
	<path fill="none" stroke="#6E1010" stroke-width="0" stroke-linecap="round" stroke-linejoin="round" d="M620.2,1637.3
		c0.2,0.5,0.3,0.6,0.2,0.4"/>
	<path fill="#6E1010" d="M622.5,1638.9c-0.3,0.1-1,0.2-0.4,0.6C622.3,1639.4,622,1639.1,622.5,1638.9z"/>
	<path fill="#6E1010" d="M618.1,1636.9C616.5,1637.6,618.4,1637,618.1,1636.9L618.1,1636.9z"/>
	<path fill="none" stroke="#6E1010" stroke-width="0" stroke-linecap="round" stroke-linejoin="round" d="M618.4,1637.3
		c-0.1,0-0.2-0.1-0.2-0.1"/>
	<path fill="#6E1010" d="M618.4,1637.3C619,1637.5,618.6,1637.4,618.4,1637.3L618.4,1637.3z"/>
	<path fill="#6E1010" d="M614,1636.5C611.2,1637.2,615.5,1640.7,614,1636.5L614,1636.5z"/>
	<path fill="#6E1010" d="M614.8,1636C617.1,1636.7,614.8,1635.8,614.8,1636L614.8,1636z"/>
	<path fill="#6E1010" d="M616.9,1636.5c-0.1,0.2-0.1,0.2-0.1,0.3h0C616.9,1636.7,616.9,1636.6,616.9,1636.5z"/>
	<path fill="#6E1010" d="M616.8,1636.8C616.4,1636.6,616.3,1637.8,616.8,1636.8L616.8,1636.8z"/>
	<path fill="#6E1010" d="M621.5,1639.6C619.5,1639.2,621.7,1639.8,621.5,1639.6L621.5,1639.6z"/>
	<path fill="none" stroke="#6E1010" stroke-width="0" stroke-linecap="round" stroke-linejoin="round" d="M614.4,1635.7
		c0.1-0.1,0.2-0.3,0.5-0.6"/>
	<path fill="none" stroke="#6E1010" stroke-width="0" stroke-linecap="round" stroke-linejoin="round" d="M513.6,1586
		c-0.1,0.2,0.1,0.5,0.2,0.6"/>
	<path fill="#6E1010" d="M513.6,1586c0,0,0.1-0.1,0.2-0.1c0-0.2,3,4.6,2.1,3.8c2.2,11.6,15.1,21.5,29.3,29.2c-0.1,0-0.1,0.1-0.2,0.3
		c0.2,0.2,0.5,0.1,0.7,0.3c-0.2,0-0.2-0.2-0.3-0.4c15.1,8.2,31.6,13.9,38.6,16.4c0,0.1,0,0.1-0.1,0.2c0.4,0.5,0.6,0.4,0.8,0.1
		c1.4,0.5,2.2,0.9,2.5,1c3.3-0.7,20.8-5.1,25.5-1.1c-2-18.1-90.9-17.2-94.7-48.9c0,0.2-7.9-6.7-10.1-7.7c1.1,1.3,1.9,3.2,2.9,4
		C512.6,1584.6,513.3,1585.5,513.6,1586z M607,1633.3L607,1633.3C606.6,1632.9,606.7,1633,607,1633.3z M556.1,1622
		c-0.3,0.1-0.9,0.5-0.7-0.1C556.2,1620.9,556,1621.5,556.1,1622z"/>
	<path fill="#6E1010" d="M534,1596.5c0,0.1,0,0.2,0,0.2V1596.5z"/>
	<path fill="#6E1010" d="M587.5,1636.8c-0.3,0.1-0.7,0.2-0.7,0.2C587.7,1637,587.8,1637,587.5,1636.8z"/>
	<path fill="#6E1010" d="M610.7,1638.1C611.3,1638,609.5,1638,610.7,1638.1L610.7,1638.1z"/>
	<path fill="#6E1010" d="M603.2,1635.2C601.7,1635.8,603.1,1635.3,603.2,1635.2L603.2,1635.2z"/>
	<path fill="#6E1010" d="M604.4,1637.8C604.5,1637.9,603.7,1636.8,604.4,1637.8L604.4,1637.8z"/>
	<path fill="#6E1010" d="M602.2,1638.3c0.1-0.2,0.8-0.3,0.3-0.7C602.4,1637.9,601.4,1638.2,602.2,1638.3z"/>
	<path fill="#6E1010" d="M556,1624.3C556.1,1626.7,556,1624.4,556,1624.3L556,1624.3z"/>
	<path fill="#6E1010" d="M1222.1,1256.8l-0.3-0.1C1221.8,1256.9,1221.8,1257.2,1222.1,1256.8z"/>
	<path fill="#6E1010" d="M1268.3,1262.1c0,0.3-0.1,0.5,0.3,0.2L1268.3,1262.1z"/>
	<path fill="#6E1010" d="M1250.7,1286.2c0,0.3-0.1,0.6,0.3,0.2L1250.7,1286.2z"/>
	<path fill="#6E1010" d="M1291,1290.3l-0.2-0.2C1290.8,1290.4,1290.7,1290.7,1291,1290.3z"/>
	<path fill="#6E1010" d="M1277.9,1307.8c0,0.3-0.1,0.5,0.2,0.2L1277.9,1307.8z"/>
	<path fill="#6E1010" d="M1290.1,1324.9c0,0.3-0.1,0.5,0.2,0.2L1290.1,1324.9z"/>
	<path fill="#6E1010" d="M1304.7,1372.1c-0.6-0.3-1-0.9-0.8,0.6C1304.4,1373.4,1304.6,1372.5,1304.7,1372.1z"/>
	<path fill="#6E1010" d="M1273.9,1411c-0.1,0.3-0.2,0.6,0.2,0.2L1273.9,1411z"/>
	<path fill="#6E1010" d="M1267.3,1433.1c-0.1,0.3-0.2,0.5,0.2,0.2L1267.3,1433.1z"/>
	<path fill="#6E1010" d="M1252.1,1507.5c-0.1,0.3-0.2,0.5,0.2,0.2L1252.1,1507.5z"/>
	<path fill="#6E1010" d="M1173.7,1532.7c-0.2,0.3-0.4,0.5,0.3,0.2L1173.7,1532.7z"/>
	<path fill="#6E1010" d="M1358.3,1301C1357.9,1300.9,1357.7,1300.9,1358.3,1301L1358.3,1301z"/>
	<path fill="#6E1010" d="M1368.5,1453.5l0.4-0.8C1368.6,1452.2,1368.3,1451.6,1368.5,1453.5z"/>
	<path fill="none" stroke="#6E1010" stroke-width="0" stroke-linecap="round" stroke-linejoin="round" d="M1386.4,1345.3
		c0.1,0,0.3,0.1,0.4,0.1"/>
	<path fill="#6E1010" d="M1386.3,1349.8C1387.1,1350.8,1386.2,1349.6,1386.3,1349.8L1386.3,1349.8z"/>
	<path fill="#6E1010" d="M1368.5,1250c-0.3,0-0.7,0-0.2,0.3L1368.5,1250z"/>
	<path fill="#6E1010" d="M1270.1,1538.4c-0.5-0.3-1-0.9-0.6,0.6C1269.9,1539.6,1270,1538.7,1270.1,1538.4z"/>
	<path fill="#6E1010" d="M1284,1530.4c-0.4-0.2-0.6-0.2-0.7,0C1283.7,1530.8,1284,1530.9,1284,1530.4z"/>
	<path fill="#6E1010" d="M1239,1613.8c-0.6-0.3-1.1-0.9-0.9,0.6C1238.5,1615,1238.8,1614.1,1239,1613.8z"/>
	<path fill="none" stroke="#6E1010" stroke-width="0" stroke-linecap="round" stroke-linejoin="round" d="M1259.2,1604.1
		c0,0.4-0.4,0.4-1,0.1"/>
	<path fill="none" stroke="#6E1010" stroke-width="0" stroke-linecap="round" stroke-linejoin="round" d="M816.9,1378.5
		c0,0.3,0.1,0.6,0.3,0.9"/>
	<path fill="#6E1010" d="M1379,977.5c-28-21.4-60-32.5-96-33.6c-6.6-20.6-24.8-68.3-63.4-112.3c-46.3-52.7-131.3-109.9-273.6-83.6
		c-69.1,12.8-118.3,50.2-153.4,98.3c-13.4-12.2-39-31.8-75.9-44.3c-49.9-16.8-131.6-23.7-237.5,38.9
		c-217.8,128.9-246.7,317.4-247.9,325.4c-0.2,1.5-0.3,4.8-0.3,4.8h-7.5c0.5,0,0.7,13.5,0.7,18.7c0,11.7-1.3,23.3-3.6,37.3h4.9
		c5.6,196,112.5,384.3,280.5,497.5v16c0,54.4,44.9,104.5,99.4,104.5h498.8c42.5,0,89.8-48,89.8-104.5v-16
		c169-114.9,278.8-301.5,281.5-511.5h-2c0.7,0,1.6-3.8,2.1-5.4c1.9-4.3,2.8-9.6,2.5-14.6C1477.6,1187,1466.6,1044.5,1379,977.5z
		 M1424.3,1171h-45.7c-5.8-56-33-126.6-106.1-126.6c-33.2,0-68.7,14.9-105.8,44.1c-9.2,7.3-18.5,15.1-28,24.1
		c-10.4,10-11.5,27.4-2.3,38.8c3.8,4.7,8.7,7.5,13.9,8.7c3.3,0.7,6.6,0.7,9.9,0c4.2-0.9,8.2-2.9,11.7-6.2c2.4-2.3,4.7-4.3,7.1-6.5
		c6.4-5.8,12.7-11.2,18.8-16c27.4-21.2,52.9-32.3,74.6-32.3c33.7,0,47.6,35.3,53.3,61.2c0.8,3.7,1.5,10.7,2,10.7h-284.3
		c29.7-42,69.7-94,111-126.2c21.7-16.9,43.8-30,65.1-36.5c52.9-16.2,96.8-11.5,130.5,14.2c44.5,33.9,64.1,97.6,72.3,137.9
		C1423.1,1164,1423.7,1171,1424.3,1171z M500,1005.2c20.9,11.9,55.3,34.2,71.1,56.5c6.6,9.3,15.3,28.5,19.6,67.5
		c1.6,14,12.4,24.2,25,24.2c1,0,2,0,3-0.2c7.4-1,13.6-5.4,17.5-11.6c3.4-5.3,5.2-12,4.4-19c-4.6-41.4-14.6-73.2-29.8-94.7
		c-15.6-21.8-39.9-41-60.9-55.1c5.7-3,11.1-5.5,16.5-7.9c7-3.1,13.9-5.9,20.5-8.1c46.3,79.1,97.7,96,128.6,98
		c-6.4,41.8-8.4,79.4-8.8,105.4c-0.1,3.7-0.1,10.7-0.1,10.7H383.1c10.2-42,26.8-69.4,49.7-99.5c1.2,0.8,2.6,1.5,3.9,2.3
		c16.2,10.3,36.7,24.9,48.7,39.1c5.7,6.7,9.8,15.6,12.4,26.7c2.7,11.7,11.9,19.4,22.3,20.4c0.7,0.1,1.4,0.4,2.1,0.4
		c0.9,0,1.9-0.3,2.8-0.4c1.1-0.1,2.2-0.2,3.4-0.5c6.2-1.7,11.1-5.8,14.5-11.1c4-6.3,5.6-14.3,3.8-22.3
		c-4.7-20.1-12.8-37.2-24.3-50.7c-14.6-17.1-35.6-32.9-52.9-44.5c7.7-7.2,16-14.2,24.6-20.9C496,1008.5,497.9,1006.8,500,1005.2z
		 M664.4,948.7c38.9,5.7,60.5,25.7,62.3,27.5c1.4,1.4,3,2.6,4.5,3.6c-0.9,3.2-1.6,6.4-2.4,9.6c-0.9,3.6-1.9,7.1-2.7,10.7
		c-11.1,1-46.4-0.6-84-53.1C650.2,947,657.5,947.7,664.4,948.7z M940.8,911.7c112.5-46.6,177,37.7,199.7,75.9
		c0.1,0.2,0.3,0.5,0.4,0.7c-10,7-19.9,14.7-29.6,23c-19.5-20-61.6-58.3-111.7-73.9c-29.1-9.2-66.9-6.4-99.3,1.6
		c5.1-5.1,10.7-9.8,16.7-14C924.2,919.8,932.1,915.3,940.8,911.7z M960.5,1085.8c32.2,10.1,49.9,21.6,58.4,28.5
		c-10.8,15.4-20.4,30.9-29.2,46c-2,3.5-4.3,10.7-6.2,10.7H846.5c-0.1,0-0.3-5.6-0.4-8.4c-0.7-14.5-1.2-31.8-0.8-50.3
		c3.2-2.1,7.6-4.7,12.8-7.5C882.7,1091.9,926.2,1075.1,960.5,1085.8z M974.3,1033c-44.4-13.8-92.3,1.2-123.1,15.1
		c2.1-12.5,4.9-24.8,8.6-36.9c0.9-0.8,1.9-1.5,2.8-2.4c1.9-1.4,5.1-3.1,9.2-4.8c24.2-10.3,81.5-24,114.1-13.8
		c37,11.6,70.2,40.4,87.4,57.5c-3.8,4-7.4,8.3-11.1,12.4c-3.6,4-7.3,8-10.8,12.1C1038,1060.8,1014.4,1045.5,974.3,1033z
		 M875.6,836.7c22-16.5,47.9-28.7,78.7-34.5c180.7-33.5,251.5,85.2,274.1,140.1c0.9,2.3,1.8,4.4,2.6,6.4c-8.2,1.7-16.5,3.9-25,6.5
		c-7,2.1-14,4.8-21,7.9c-10.7-16.9-31.3-45.5-61.7-70.1c-43.2-35-99.2-79.9-192.2-36.3c-12.2,5.7-23.1,12.3-33.1,19.7
		c-93.8,69.4-93.2,206.2-97.4,283.8c-0.2,3.6-0.4,10.7-0.6,10.7h-43.1C757.1,1101,767.9,917.3,875.6,836.7z M441,931.9
		c18.5-14.6,39.1-29.1,62.1-42.6c157.5-93.2,246.8-12.1,261.4,3.1c-3.1,6.2-6.1,12.4-8.9,18.7c-2.2,5-4.4,10-6.4,15
		c-30.5-22.8-118.9-70.5-249.5,14c-1.3,0.9-2.7,1.7-4.1,2.7c-9.6,6.4-18.6,13-27.4,19.8c-68.9,53.2-113.9,119.7-134.5,197.8
		c-0.9,3.5-2.1,10.7-3,10.7h-49.2C286.1,1143,314.7,1031.8,441,931.9z M272.1,1220.3l1023.9,4.4c-2.8,3.8-6.2,6.3-10.3,8.1
		c-0.3-0.6-0.7-1.2-1.4-1.6c0.3,0.8,0.6,1.4,0.8,1.8c-15.8,6.5-40.3,1.6-65.7,8.7c0.3-0.4,6.1,2.3,4.8,1.2c1.5-0.1,2,0,1.4,0.2
		c6.4,0.9,12.5,4.8,18.9,2.4c-0.7-1.1,0.3-1.1,2.9-0.1c-0.2,0.2,0,0.2,0.5-0.1c-2.9,2.4-4.4,2.6-4.4,0.9c0,0.1-9.3,5.1-3.7,6.9
		c-1.4,1.3-33.7,12.3-44.1,12.2c-1.9-1.1-10.3-4.8-8.3-5.3c-2.4-1.8,0-0.4,0.3,3c1.4,1.1,1.7,1.5,1.1,1.2c7.4,7.2,4.8,3.4,5.1,3.3
		c0.1,0.4,4.9,2.6,5.8,2.1c0.3-0.1,2,0.3,0.7,0.4c15.3,7.4,116.6-32.8,120.5-34.4c3.8-1.5,12.8-7.6,13-6.5
		c23.2-11.1-8,5.9-37.6,25.5c-2.9,1.9-43.5,16.6-50,12.7c0.2,0.3-13.7,1.7-16.6,2.9c2.1-0.2,5,1,6.5,0.5c4.9,2,6.7,2,5.5,0.3
		c1.3,0.4,1.3,0.3-0.1-0.4c-0.1-0.1,7.3,0.8,5.7,1.1c14.2,7.1,40.7-3.3,54.3-6.4c-1.1-0.9-1.2-1.8-0.5-2.6c-0.1,1.7,0.9,2.3,3,1.8
		c-0.3-2.2-2.5-0.1-0.8-2.4c0.9,0.5,1.4,1.2,1.7,2c0.1-0.2,0.2-0.3,0.6-0.2c-0.3,0,1,0.4,1-0.2c1,2.4-0.7,4.7-4.4,5.1
		c0.3,0.7-2.5,1.6-3.5,2.1c-5.4-5.7-56.5,28.4-69.8,21.3c0.2,0.2-13.6,2.4-16.4,3.7c2.1-0.3,5.1,0.7,6.5,0.2c5,1.7,6.8,1.7,5.5,0
		c1.3,0.4,1.3,0.3-0.1-0.4c-0.2-0.1,7.4,0.5,5.8,0.8c24.4,10.9,43.5-20.4,62-9c-0.2-0.3,1.3-0.5,4.3-0.5c1.8-2.6,2.6,2.5,3.5-1.7
		c0.3,0.9,0.6,0.8,0.8-0.5c-0.3,1.1,0.1,1.8,1.1,1.9c0.2,1.3-0.7,2-0.3,3c-1.1-3.1-10.2-0.2-8.5-0.4c-0.5,1.8-0.8,1.6-0.9-0.5
		c1,5.9-20.5,3.4-28.4,8.1c1.3,0.5,3.5,0.4,4.6,0.5c3.4,1.5,4.7,1.6,3.9,0.3c0.3,0.2,0.3,0.1,0.4,0.2c2.3,2.4,2.8-0.2,3.3-0.1
		c0.9,0.5,1,0.7,0.3,0.8c1.8,0.3,2.1,0.2,1-0.1c9.9-1.7,29.5-3.9,30.2-1.1c-0.6,0.2-0.3,0.2,0.9,0.2c-0.9,0.4,2.7-0.4,3.1-0.8
		c-0.4,0.1,0.8-0.9,2-0.8c0.1,1.2,0.2,1.5,0.6,1.1c-2.9,5.2-50.2,19-56.1,14.9c0.3,0.4-12.2,1.5-14.7,2.6c1.8,0,4.5,1,5.8,0.6
		c4.2,1.9,5.8,2,4.8,0.3c1.2,0.5,1.1,0.4-0.1-0.4c4.9,5.7,19.7-4.1,23,0.3c-3,1.3-11.5,3.2-14,4c0,0-2.4,0.7-2.5,0.8
		c0.9,0,3.3,0.3,3.5,0.4c1-0.3,1.3-0.3,1-0.1c2-0.1,3,0,3.6,0.1c0,0,0-0.2,0-0.3c9,10.8,38.4-8.4,43.1-4c-0.1,0.4,0.2,3.1,0.7,3.7
		c-0.6-3.9-0.3-5.1,1-3.8c-0.2-0.7,1.6-3.3,1.4-0.9c1.1-0.4,1.3-0.8,1.4-2.8c0.1,0.6,0.2,0.8,0.2,0.8c0.1,0.9,0.9,1.4,2.5,1.3
		c-0.4,0.3-0.5,0.5-0.2,0.7c0.9,3.2,0.7,3.2-0.7,0.2c-0.4-0.5-1.7,6.8-3,3.2c-1,3.3-37.3,11.7-39.8,9.1c0.4,0.6-9.3,0.7-11.3,1.7
		c0.9,0.2,3,0.6,3.3,0.9c1-0.2,1.3-0.2,1,0c3,1.8,4.3,2,3.7,0.6c0.9,0.6,0.8,0.4,0-0.3c0.1,0.1,5.1,1.5,3.8,1.5
		c4.4,3.9,11.5-5.2,13.8,0.5c0.1-0.2,0-0.4,0.1-0.5c0.4,0.1,0.9,0.2,1.8,0.2c0.2,0,0.6,0.2,0.9,0.2c-6.4,0.5-20.2,1.3-24.9,2.9
		c0.8,0.1,3.2,1.3,3.2,1.3c1,0,1.4,0,1,0.2c2.8,2.2,4,2.5,3.6,1c0.8,0.6,0.8,0.5,0-0.4c0,0.1,4.9,2,3.6,1.9c1.6,0.6,1.9,0.6,1,0.1
		c20.3,0.5,39.8-1.8,29,8.2c0.4-1,25.6-2.7,28.5-0.7c-0.3,0.1-0.7,0.1-1.1,0.2c0.1,0.1,0.4,0.3,0.9,0.7c-0.1,0-0.1,0.1-0.2,0.2
		c-0.5-0.6-0.7-0.8-0.7-0.9c-31.1,7.2-69.4,13.3-123.6,26.3c2.3-0.1,5.1,1.7,6.8,1.5c4.8,2.6,6.7,3,5.7,1c1.3,0.6,1.3,0.5,0-0.4
		c-0.2-0.2,7.5,1.8,5.9,1.8c32.8,21.4,72.3-13.8,88.1-18.1c0.3,1.7,0.5,2.1,0.5,1.1c1.5,2.6,1.5,3.2,0.1,1.6c1,8.5,3,0.4,6.1-2.5
		c0.4,3.3,0.1,4.4,0,4.6c0.1-0.1,0.4-0.5,1.3-0.8c0.5,1.1,1.3,6.5,0.9,6.6c-0.6,1.6-0.5,1.6,0.5-0.1c-1.7,1.7-1.2,5.5-1.8,7
		c-4.1,2.9-43.6,2.8-73,17.2c1.8,0.1,4.7,0.8,6,0.4c4.5,1.8,6.2,1.8,5.1,0.2c0.4,0.1,0.6,0.2,0.7,0.2c6,4,20.2-5.7,23.2-0.9
		c0-0.3,0-0.4,0-0.6c0.6,0.1,1.3,0.2,2.4,0c-0.7,0.4-0.3,0.4,1.4,0.1c0,0-0.4-3.8,1.7-2.7c-0.9,1-0.7,1.3,0.6,1.1
		c-2.5,1.4-2.8,2-0.8,1.9c-2.5-0.2-2.9,0.4-1.5,1.7c-0.7-0.1-2.3-1.2-2-1.3c-1.8-0.3-13.1,9.9-17.6,7c0.5,0.6-10.4,2.3-12.3,3.6
		c1-0.1,3.8,0.2,3.9,0.3c1.1-0.3,1.5-0.3,1.1-0.1c3.8,1.3,5.2,1.3,4.2,0c1.1,0.4,1,0.2-0.1-0.3c0,0,5.9,0.5,4.6,0.8
		c1.9,0.1,2.3,0.1,1.1-0.2c12.9-3.1,39.7-11.1,42.6-9.2c-0.8,4.4,1.1,1.9,1.9,0.5c-0.5,2.3-0.1,3.2,0.8,2.9c0.1,1.8,0.5,4.5,0.7,5.2
		c-0.5-0.5-1.5-0.3-1.8-0.1c-2.3-1-3.2-2.4-2.6-3.9c-5.8-3.9-51.9,22.9-64.5,13.7c0.2,0.3-13.2,0.9-16,2c2.1,0,4.6,1.1,6.1,0.8
		c4.4,2.1,6.1,2.3,5.2,0.5c1.2,0.6,1.2,0.4,0-0.4c-0.1-0.1,6.9,1.3,5.3,1.5c11.8,7.5,60.9-1.9,62.2-6.3c0,0.8,0.1,1,0.4,0.6
		c-0.4,1.3,0.4,1.9,2.6,1.7c-1.3,0.8-0.8,1.6,1.4,2.3c-0.1,0.4-0.2,0.4-0.3-0.1c-1,1.6-0.5,2.8,1.3,3.6c-0.6-3-0.3-2.4,1,1.8
		c0.7,0.2-9.4-3.3-2.3,1.9c-1.4-0.4-1.5-0.2-0.5,0.9c-1.7,0.3-2.2,0.6-2.2,1c-11.6,0.3-62.8,16.2-71.1,9.7c0.2,0.3-13.2,0.5-16,1.6
		c2,0,4.6,1.2,6.1,1c4.3,2.2,6.1,2.5,5.1,0.7c1.2,0.6,1.2,0.4,0-0.4c-0.1-0.1,6.8,1.6,5.3,1.6c11.4,7.7,60.9,0.3,62.5-3.9
		c0,0.8,0.1,1,0.3,0.6c-0.5,1.2,0.2,1.9,2.5,1.9c-1.5,0.9-0.9,1.9,1.9,2.8c-1.1-1.8-1.7-2.8-2-3.5c0.1-0.2,0.1-0.3,0.1-0.3
		c-0.2-0.3-0.4-0.5-0.5-0.5c-0.1-0.7,1.6,1.1,2.9,0.6c-0.9,0.2,1.7-0.1,2.2,1.2c-1-0.4-1,2.5,0.2,3.4c-0.7-0.2-0.7,0.3,0.2,1.3
		c-2.8-1.9-3.3-1.6-1.7,0.8c-1.4-0.1-2,0.3-1.9,1.2c-37.1,16.3-80.5,3.2-141.4,9.3c3,0.1,6.3,2.3,8.6,2.2c6.1,3.6,8.5,4.1,7.3,1.7
		c0.5,0.2,0.8,0.3,0.9,0.4c18.2,18.8,73.9,7.9,100.1,2.8c-0.1,0.1-0.1,0.4-0.1,0.8c0.4,0.7,0.9-0.2,1.1-0.5
		c-0.2-0.1-0.4-0.2-0.6-0.3c5.9-1.1,10.2-2,12.2-2c-2.3,0,5.6-2,4.3-1.2c-0.1,0.5-1.1,6.3-2.8,3.5c-0.7,3.8-2.7,2.4-5.3,2.4
		c-7,0.9-36.8,9.3-50.2,18.9c22-1.6-65.6,5.5-101,4.2c-0.6-0.1-4.7-0.2-5.5-0.2c3.1,0.5,6.7,2.1,9,2c6.5,3.5,9,4,7.7,1.5
		c0.4,0.1,0.6,0.2,0.8,0.3c26.6,25.5,123.5-11.4,98.9,11.6c13.9-2.8,30.8-2.2,30.6-1.9c-2.4-2.3-1.9-2.3,1.6-0.2
		c-1.3-1.2-1.2-1.2,0.4,0c3.6-1.8-3.2-1.4,0.4-1.8c0.5-2.2,0.8-2.2,0.9-0.1c1.5-0.4,0.2-1.6,1.4-2.1c1,0.9,0,1.9,1.1,2.5
		c1.8,2.9-2.6,2-2.8,1.3c-3.2,5-55.5,13.3-61.3,8.7c0.2,0.3-13.9-0.1-17,0.7c2.2,0,4.8,1.6,6.4,1.3c4.5,2.5,6.3,2.9,5.4,1
		c1.2,0.6,1.2,0.5,0-0.4c-0.1-0.2,7.1,1.8,5.5,1.8c20.4,14.2,48.9-5.3,62.6-3c3.6,1.2,2.3-1.7,4.4-1.9c-1.2,1.9-0.5,2.7,2.3,2.5
		c-1.1,0.5-0.9,1.2,0.4,1.8c-2.4,1.3-4.6,0.1-5.1,0.1c-38.8,22-104.5,21-172.9,19.1c-0.7-0.1-4.8-0.2-5.6-0.1c3.1,0.5,6.8,2.1,9.2,2
		c6.6,3.5,9.2,3.9,7.8,1.5c0.4,0.2,0.8,0.3,1,0.4c17.5,15.6,71.1,5.9,84.8,6.5c-0.4,0.1,3-4.7,5.8-2.7c-1.8,0.1-1.8,0.5,0,1.2
		c-0.4,0.6-3.5,2.3-3.7,2.5c-1.2-1.1-17.2,4-22.3,5.8c-0.1,0-3,1-3.2,1.2c1-0.3,4.7,0,4.5,0c1.3-0.4,1.7-0.5,1.3-0.2
		c4.5,1.3,6.1,1.1,4.9-0.3c0.4,0.1,0.6,0.2,0.7,0.2c21.7,16.5,80.8-24.2,80.2-23.2c-0.1,1.7,0.1,1.8,0.5,0.3
		c1.1,3.5,1.4,7.7,2.9,1.3c-0.5,2.5-0.1,2.4,1-0.2c-0.5,0.7-0.1,0.8,1.2,0.5c3-1.8,0,2.6,2.4-1.5c1.6,0.9,1.1,1,1.3,0.9
		c4.2,3.8-3.4,3-2.9,2.8c-4.6,3.3,0.7,4.1,2.4,4.6c-49.9,32.2-91.8,25.7-175.8,48.8c3-0.2,6.5,1.1,8.7,0.8c6.6,2.5,9,2.7,7.4,0.5
		c0.5,0.2,0.8,0.2,1,0.3c19.7,14.2,77.7-4.4,87.9-5.4c-1.3,0,3.3-2.4,3.9-2.4c-0.1,1.1,0.6,1.1,2.1-0.1c0.1,0.8,0.4,0.2,0.8-1.9
		c0,1.2,0.3,1.1,1-0.3c2,2.1-2.6,4.9-3,5.8c0.1,2.1-15,3.8-16.3,4c-0.3,0.1-3.6,0.6-3.9,0.7c0,0.1,6.7,1.4,5.2,0.6c4-1.4,5,0,1,2.6
		c-0.3,0.2-3.1,1.9-3.4,2.2c0.2-0.6,7.2,0.8,5.3,0.6c1.6-1.5,4.3-0.6,7.3-0.6h0.1c6.5,0,14.3-1.9,16,0c-0.1-1-0.1-2.7-0.1-3.1
		c0,0,0.2-0.6,0.3-0.6c0.3,0.5,0.7,1.6,1.3,4c-4-2.5-1.3-2.6-2.7-2.8c-4.8-1.2,3.8,9.3,4.3,8.7c-4,4.5-73.3,13.6-110.3,27
		c2.7-0.1,6.1,0.8,8.1,0.3c6.1,2.1,8.4,2.1,6.8,0.1c0.3,0.1,0.5,0.1,0.7,0.2c31.1,23,107.8-25.4,113.5-24c-1.1-0.3,4.1-0.7,8.7-1.6
		c-33,34.7-68.5,65.6-110.3,92l-8.7,6.8v41.4c0,32.5-32.4,48.5-47.8,48.5H605.4c-28.9,0-57.4-19.6-57.4-48.5v-41.4l-8.3-6.8
		C375.1,1588.4,277.8,1413,272.1,1220.3z M1353.8,1485.6c-0.1,0.3-0.2,0.6-0.3,0.9c-0.3,0.1-0.3,0.3-0.2,0.4
		c-0.7,1.8-1.1,3.5-1.5,5.1c-3.2,5.6-6.6,11.1-10,16.6c0.9-3.5,2-7.3,3.5-11.4C1344.5,1499.6,1346.5,1487.8,1353.8,1485.6z
		 M1307.6,1275c-0.9-0.6,34-13.7,29.5-24.6c0.8,1.6,1.2,2,1.1,1.2c1.6,2,0-0.4-0.2-1.1c1.9,0.5,2.9,1.1,3.6,1.7
		c-0.1-0.8-0.1-1.9,0.3-3.8c0.3,0.6,0.4,0.7,0.3,0.1c0.3,0.5,0.6,0.6,1,0.4c6.2,4,8.6,8.4,7,13.1c-1.1,0.7-2.1,0.2-1.6,0.5
		c-0.5,0.2-0.8,0-0.8-0.1c0.1,0.2,0.3,0.6,0.5,1.7c-1.9-1.8-2.3-1.2-1.2,2c-3.9-1.7-37,13.7-39.2,9.1
		C1308,1275.9,1307.9,1276.9,1307.6,1275z M1360.9,1426.5c-1.4,2.4-0.3,5-2.7,4.7C1346.6,1433.5,1360.9,1426.3,1360.9,1426.5
		C1360.6,1427.1,1360.4,1424.9,1360.9,1426.5z M1355.7,1459.9c2.4,0.5,2.5,8.3,0.8,3.6c0.1-0.1,0.1-0.2,0.2-0.4
		c0.1-0.1,0.1-0.1,0.1-0.2C1359,1458.3,1343.1,1462.8,1355.7,1459.9z M1368.7,1460.7c-0.8-0.1-1.7-0.1-2.3-0.2
		c-6.9-1.6-1.1-7.5,5.7-13.8c1.9-1.8,3.8-3.5,5.6-5.3C1374.8,1447.9,1371.9,1454.3,1368.7,1460.7z M1376.5,1342.3
		c11.1-3.4,15.8,8.1,8.8,10.1C1370.7,1356.5,1379,1351.4,1376.5,1342.3z M1377.2,1386.2c1.2,0.5,1.9,0.6,0.1-0.6
		c2-16.5,7.1-30.8,10.8-25.9c0.3,0.5-2.2,15.6-0.6,19.6c2.6-0.1,2.6,3,1.4,7.6c-0.1-0.1-0.1-0.3-0.2-0.4c0.1,0.3,0.1,0.4,0.2,0.6
		c-0.3,1.4-0.8,3-1.3,4.6c-0.3,0.4-0.7,1.6-0.5,1.7c-3.2,10.3-7.8,23.3-5,29.2c0.5,1.1,1.2,2.1,2.4,2.6c-0.9-0.5-1.8-1.3-2.5-2.2
		C1376.1,1416.4,1375.5,1400.5,1377.2,1386.2z M1382.8,1430c-0.2-0.1-0.3-0.3-0.6-0.5c-0.5-0.1-3.2-2.6,1.7-3.1
		c-0.1-0.1,0.1,0.1,0.3,0.4C1383.8,1427.9,1383.3,1428.9,1382.8,1430z M1384.6,1426.1c0-0.1,0.1-0.2,0.1-0.2
		C1384.7,1425.9,1384.6,1426,1384.6,1426.1z M1427.6,1245.6c-0.1,1.2-0.2,2.4-0.3,3.6C1427.5,1248,1427.6,1246.7,1427.6,1245.6z
		 M1371.2,1225.1c1.1,5.6,3.6,14.6,4.7,19c-1.6,0-0.4,1,0.2,0.7c0.3,1.1,0.5,1.8,0.5,1.8c-1.6,0,2.7,13.4,3.6,16.1
		c-1.2-0.3-3-4-1.9,1c0.3-1.3,1-0.9,2.3,1.2c-1.7-0.3-1.8,0.1-0.3,1.1c-1.7-0.6-2.6-0.8-2.7-0.6c-4.8-4.2-19.7-15.6-15.1-26.2
		c-4.8-3.4-4.1-9.3-1.9-14.2L1371.2,1225.1z M1346.6,1293.9c6.5,5.7,1.9,1,6.6-1.6c0.7,0.8,1,1,0.8,0.6c0.4,0.6,0.5,0.4,0.3-0.6
		c0.9,0.5,0.4,2,1.8,1c0.1,0.1,5,3.2,1.7-1.7c0.3,0.2,0.7-0.2,1-1.2c-0.2,1.5,0.2,1.4,1.1-0.5c-0.6,0.9,1,6.3,1.4,7
		c-0.9,0.8-0.9,1.4-0.1,1.7c-0.2,0.2-0.1,0.2,0.3,0.2c0-0.2,1,1,0.9,0.9c-2.7-1.8-2.2-0.4-2.3-1.4c0.1,1.3,0.1,3.1,0.1,2.9
		c-0.3-0.4-0.3-0.3-0.1,0.4c-3.6-3.9-36,16.8-41,14.5C1318.8,1315.6,1347.9,1291.8,1346.6,1293.9z M1256.6,1596.3
		c-7.1-9.5,7.8-4.4,19.9-8C1268.7,1592.1,1256.5,1598.2,1256.6,1596.3z"/>
	<path fill="#F0B75A" d="M1869.2,161.1c-26.5-21.4-65.4-17.9-87,8.6l-519.5,635.1c14.2,11.9,27.4,24.5,40.1,38.1l571.6-590.9
		c1.2-1.6,2.4-2.8,3.3-3.9C1899.3,221.6,1895.4,182.7,1869.2,161.1z"/>
	<path fill="#F0B75A" d="M1616.5,200.6c0.9-1.6,2.1-3,3-4.6c17.2-29.5,7.2-67.1-22.3-84.3c-29.5-17.1-67.5-7.3-84.6,22.3
		l-354.2,607.5c20.2,8.6,39.5,19.3,57.8,30.8L1616.5,200.6z"/>
</g>
</svg>
