<?xml version="1.0" encoding="utf-8"?>
<!-- Generator: Adobe Illustrator 18.1.0, SVG Export Plug-In . SVG Version: 6.00 Build 0)  -->
<svg version="1.0" id="Layer_1" xmlns="http://www.w3.org/2000/svg" xmlns:xlink="http://www.w3.org/1999/xlink" x="0px" y="0px"
	 viewBox="0 0 150 150" enable-background="new 0 0 150 150" xml:space="preserve">
<g>
	<path fill="#88AB58" d="M104,24.1H88.8c-4.9,0.3-8.9,2-11.7,5.1c-2.9,2.9-5.4,5.4-7.4,7.7c-1.4,1.6-3.3,2.7-5.7,3.4
		c-3,0.1-5.6,0.1-6.7,0.2H17.5c-1.7,0-2.9,0-4,0.6c-0.3,0-0.9,0-0.9,0c-0.3,0.3-0.6,0.3-0.6,0.6c-2.9,1.1-4.3,3.4-4.6,6.9
		c0,0.3,0,0.9-0.3,1.1v44.9c0.3,1.7,0.6,3.2,1.1,4.6c0.6,1.1,2.6,3.5,5.3,4.4c0.6,0.1,1,0.2,1.2,0.2c0,0,0,0,0,0c0.1,0,0.3,0,0.4,0
		c0.6,0.1,1.1,0.1,1.7,0c0.3-0.6,0.3-1.4,0.3-2.3V57c0-0.3,0-0.9,0.3-1.1c0.3-2.9,1.1-4.9,2.9-6c0.3-0.3,0.3-0.3,0.6-0.6
		c1.4-0.9,3.4-1.4,6-1.4h87V34.1C114,27.5,110.6,24.1,104,24.1z"/>
	<polygon fill="#88AB58" points="123.1,58.8 129.6,74.4 132.9,82.3 143.1,64.2 	"/>
	<path fill="#2C3B39" d="M127.9,75L95.6,88.1c0,0-17.4-17.9-20.5-21.2c-4.5,2.1-48,24.4-48,24.4l0.2-9.2l49.4-24.4
		c0,0,17.8,18.3,20.8,21.4c3.2-1.3,19.8-8.1,27.5-11.1l-4.6-10.8l6.5,1.8c-0.8-1.5-1.9-2.6-3.4-3.4c-1.4-0.6-3.1-0.9-5.4-0.9H33.4
		c-6,0-9.4,2.6-9.7,8c-0.3,0.3-0.3,0.9-0.3,1.1v44.6c0,1.7,0.3,3.4,1.1,4.6c1.1,3.1,4.3,4.9,8.9,4.9h84.7c6.6,0,9.7-3.1,10-9.7V75.5
		L127.9,75z M45,109.5H29.2V94c3.2-1.5,9.3-4.5,15.8-7.6V109.5z M63.9,109.5H48.1V85c5.7-2.7,11.5-5.5,15.8-7.6V109.5z M82.8,109.5
		H66.9V75.9c2-0.9,3.4-1.6,4-1.9c1.6,1.6,7.2,7.4,11.8,12.2V109.5z M101.7,109.5H85.8V89.3c2.3,2.4,4,4.1,4,4.1l11.9-4.8V109.5z
		 M120.5,109.5h-15.8V87.4l14.8-6l1,2.4V109.5z"/>
</g>
</svg>
