<?xml version="1.0" encoding="utf-8"?>
<!-- Generator: Adobe Illustrator 18.1.0, SVG Export Plug-In . SVG Version: 6.00 Build 0)  -->
<svg version="1.0" id="Layer_1" xmlns="http://www.w3.org/2000/svg" xmlns:xlink="http://www.w3.org/1999/xlink" x="0px" y="0px"
	 viewBox="0 0 150 150" enable-background="new 0 0 150 150" xml:space="preserve">
<g>
	<path fill="#EC9429" d="M55.9,90.8L32,94.8l3.8-0.3c2.9-1,6.1-1.4,9.3-0.8l11.2-1l-7.1,2.2c0.9,0.3,1.8,0.5,2.7,0.8l5-1.1l-3.3,1.6
		c1,0.2,2,0.5,3,0.7l1.4-0.5l-0.9,0.6c0.3,0.1,0.6,0.1,0.8,0.2c1.8,0.3,3.6,0.6,5.4,0.9c6-1.2,12.1-1.7,18.6-2
		c2-0.1,3.9-0.1,5.9-0.2l-2.7-1.3l5.5,1.2c1.6,0,3.3,0,4.9-0.1l-9.7-3l24.3,2.1l-23.9-4.1l24.4-1l-24.4-1l23.9-4.1l-24.3,2.1
		l22.8-7.1L85.1,85l21.2-9.9L84,83.3l19-12.5L82.6,81.7L99,66.9L80.9,80.3l13.4-16.7L79,79.2L89,61L76.9,78.3L83.2,59l-8.7,18.7
		l2.6-19.8l-5,19.5L71,57.5l-1.2,19.9l-5-19.5l2.6,19.9L58.8,59l6.4,19.3L53.1,61l10,18.2L47.8,63.6l13.4,16.7L43.1,66.9l16.4,14.8
		L39.1,70.8l19,12.5l-22.2-8.2L57,85l-23.5-5.2l22.8,7.1L32,84.7l23.9,4.1l-24.4,1L55.9,90.8z"/>
	<path fill="#231F20" d="M47.2,95c0,0,17.8,13.3,46.3,0l3.4,41.8c0,0-0.7,8.4-21.8,9.6c-16.2,0.9-29.3-5.2-28.7-10.2L47.2,95z"/>
	<path d="M111.3,93.1l-0.5,2.1c0,0-2.5,17.3-54.6,13.1c0,0-18.2-1.3-24.5-8.9C25.4,91.8,38,84.6,38,84.6L111.3,93.1z"/>
	<path fill="#D2D3D4" d="M96.8,90.7c0,5.3-11.6,9.5-26,9.5c-14.4,0-26-4.3-26-9.5c0-5.3,11.6-9.5,26-9.5
		C85.2,81.2,96.8,85.5,96.8,90.7z"/>
	<polygon fill="#EC9429" points="89.9,11.1 92.4,9.8 94.9,11.1 94.4,8.4 96.4,6.4 93.6,6 92.4,3.5 91.2,6 88.4,6.4 90.4,8.4 	"/>
	<polygon fill="#EC9429" points="84.3,40 81.6,34.5 78.9,40 72.9,40.9 77.2,45.1 76.2,51.1 81.6,48.3 87,51.1 86,45.1 90.3,40.9 	
		"/>
	<polygon fill="#EC9429" points="118.5,41.5 113,40.7 110.6,35.7 108.1,40.7 102.7,41.5 106.6,45.3 105.7,50.7 110.6,48.2 
		115.5,50.7 114.5,45.3 	"/>
	<polygon fill="#EC9429" points="99.8,22.8 102.6,20 98.7,19.4 96.9,15.9 95.2,19.4 91.2,20 94.1,22.8 93.4,26.7 96.9,24.9 
		100.5,26.7 	"/>
	<path fill-rule="evenodd" clip-rule="evenodd" fill="#EC9429" d="M66.9,79.1c-4.6,9.5-6.4,7.9-9.8,10.3c0,0,2.5,2.2,2.8,2.5
		c0.3,0.3,6.2-0.7,6.7-1c0.5-0.3-3.8,2.1-4.1,2.2c-0.3,0.2,2.3,2.3,3.6,2.9c1.3,0.6,2.2-0.7,3.4-1.4c1.2-0.6-1.6,1.8-1.6,2.8
		c-0.1,1,3.5,2.7,3.7,3.2c0.2,0.5,2.1-4.1,2.6-3.7c0.3,0.2-1.1,3.4-1,4.4c0.1,0.4,0.6,1,0.6,1c1-1.7,1.6-3.2,1.8-3.3
		c0.5-0.2-1,2.2-0.4,3.9c0.2,0.7,5,3,5.5,4.3c0.1,0.3,7-1.4,9.9-15.8L66.9,79.1z"/>
	<path d="M95.5,30.4c1.7-4.6,8.7-2.1,7,2.5L86.1,74.4c-0.9,1.9-4.9,0.3-4.2-1.2L95.5,30.4z"/>
	<path fill="#232D36" d="M80.1,78.9c1,1.3,1.7,2.8,1.9,4.5c7.2,1.5,12.1,4.4,12.1,7.8c0,4.9-10.4,8.9-23.2,8.9
		c-12.8,0-23.2-4-23.2-8.9c0-4.1,7.4-7.6,17.4-8.6c0.2-0.4,0.4-0.7,0.6-1c0.4-1.1,1-2.1,1.8-3c-21,0.6-37.5,6.9-37.5,14.5
		c0,8.1,18.2,14.6,40.6,14.6c22.4,0,40.6-6.5,40.6-14.6C111.3,86.2,98,80.4,80.1,78.9z"/>
	<path fill="#808080" d="M94.3,82.5c-11.4-4.2-27-4.8-46.5-0.4C27,86.7,33.4,97.7,33.4,97.7c3.3,3.6,11.1,2.3,16.9-0.1
		c-4.9-2-7.7-4.6-7.1-7.4c1.3-5.1,12.2-9.5,27.3-9.5c11.7,0,21.7,2.6,25.6,6.2C103.4,85.1,94.3,82.5,94.3,82.5z"/>
	<path fill-rule="evenodd" clip-rule="evenodd" d="M77.9,71.4c4.5,0.7,7.1,1.4,10.6,5.3c4.9,5.4,3.1,9.7,1.8,15.9L87.9,93L66.1,81
		C67.3,76.8,69.6,70.2,77.9,71.4z"/>
	<polygon fill="#F2F2F2" points="88.1,89.1 89.4,92.7 86.3,94.5 89.8,93.6 91.5,96.8 90.3,93.2 93.3,91.7 90.1,92.4 	"/>
	<polygon fill="#F2F2F2" points="90.8,83.7 91.6,86 89.6,87.1 91.8,86.6 92.9,88.6 92.2,86.3 94.1,85.4 92.1,85.8 	"/>
</g>
</svg>
