<?xml version="1.0" encoding="utf-8"?>
<!-- Generator: Adobe Illustrator 18.1.0, SVG Export Plug-In . SVG Version: 6.00 Build 0)  -->
<svg version="1.0" id="Layer_1" xmlns="http://www.w3.org/2000/svg" xmlns:xlink="http://www.w3.org/1999/xlink" x="0px" y="0px"
	 viewBox="0 0 150 150" enable-background="new 0 0 150 150" xml:space="preserve">
<path fill="#9DD6C9" d="M96,16.4c0,0,0-0.1,0.1-0.1c-0.2,0.2-0.3,0.3-0.5,0.5C95.8,16.7,95.9,16.6,96,16.4z"/>
<g>
	<path fill="none" d="M99.8,92.6c-1.2-2.4-3.8-4.3-5.3-6.6c-0.3,1.7-1,3.3-1.6,4.8c-0.8,3-2.8,5.5-3.4,8.6l0.2,0.1
		c2.5-1.8,5.4-2.8,8-4.6C98.6,94.5,99.9,93.7,99.8,92.6z"/>
	<path fill="none" d="M76.4,19.2c-30.7,0.1-55.5,24.9-55.5,55.5c0,28,20.8,51.1,47.8,54.9c-1.3-0.9-2.1-2.3-2.2-4.2
		c-1.8-0.9-3.8-1.8-5.2-3.7c-2.7-3.2-4.5-6.7-4.7-10.9c-1-1.3-2.5-2.6-1.6-4.4c-0.4-0.3-0.6-0.7-0.7-1.1c0.1-0.7,1.2-1.2,0.5-1.9
		c0-1.1,1.3-1.7,0.9-2.8c1-1.9,3.2-2.7,4.5-4.4l2.6-1.3c1.2-1.7,2.5-3.4,4-5c-1.5-0.8-3-2.1-3.3-3.9c-0.6-3.1,3.3-4.1,4.7-6.2
		c3.3-3.5,5.4-7.6,7.8-11.5c1-1.7,0.1-4.3,2.5-5.3c-0.5-0.6-0.9-1.3-1.4-1.9c-1.1,1.3-2.8,1.3-4.4,1c-1.4-0.4-1.3-2.1-2.5-2.7
		c-0.2-0.4-0.2-1.2-0.8-1.2c-0.3-0.5-0.6-0.9-1-1.4c-0.4,0.5-1.1,0.3-1.6,0.2l-0.2-0.5c-0.5-1.6,0.2-3.8-1.5-4.7l-2.5-2.5
		c-0.4,0.7,0.5,1.8-0.3,2.3c-2.5-0.4-5.3-1.2-6.5-3.8c-1.2-2.3-0.1-5,1.3-6.9c1.5-1.7,4-2.9,4.4-5.1c0.6-1,1.4-2.2,2.7-2.3
		c1.4-2.3,3.5-4.4,5.9-5.5c3-1.1,6,0.8,7.3,3.5l0.2,0.4c3.2,0.9,6.5,2.2,8.4,5.4c0.5,1,0.5,2.3,0.4,3.5c1.1,0.5,2.5,1.4,2.7,2.7
		l-0.2,1.9c1.6,1,4.5,2,4.2,4.6c0.1,1.7-0.9,3.1-2.2,4.1l-2.6,1.4c0.3,1.4,1,2.8,1.7,4c2.3,2.3,5.4,3.3,7.5,6
		c1.7,1.9,1.2,4.7,2.4,6.8c3.2,7,7.6,13.6,10.4,20.8c0.2,1.3,1.2,2.9-0.1,4.1c-3.3,2.4-6.8,4.6-10.7,5.7c-2.8,1.2-5.8,2-8.2,4.3
		c1,3.7,3.8,6.7,6.4,9.6c2.1,2,3.1,4.7,3.2,7.6c18.4-9,31.1-27.9,31.2-49.8C131.9,44.1,107.1,19.2,76.4,19.2z"/>
	<path fill="#CD448D" d="M120.8,119.1c-0.1,0.1-0.1,0.3,0,0.5l1.3,1.3c0.1,0.1,0.4,0.1,0.5,0c0.1-0.1,0.1-0.3,0-0.5l-1.3-1.3
		C121.2,119,120.9,119,120.8,119.1z"/>
	<path fill="#CD448D" d="M48,130.5l-0.9,1.7c-0.1,0.2,0,0.4,0.1,0.5c0.2,0.1,0.4,0,0.5-0.1l0.8-1.7c0.1-0.2,0-0.4-0.2-0.4
		C48.3,130.3,48.1,130.4,48,130.5z"/>
	<path fill="#CD448D" d="M42.6,127.4l-1,1.6c-0.1,0.2-0.1,0.4,0.1,0.5c0.2,0.1,0.4,0,0.5-0.1l1-1.6c0.1-0.1,0.1-0.3-0.1-0.5
		C42.9,127.2,42.7,127.3,42.6,127.4z"/>
	<path fill="#CD448D" d="M45.3,129l-0.9,1.6c-0.1,0.2,0,0.4,0.1,0.5c0.2,0.1,0.4,0.1,0.5-0.1l0.9-1.6c0.1-0.2,0-0.4-0.1-0.5
		C45.6,128.8,45.4,128.9,45.3,129z"/>
	<path fill="#CD448D" d="M37.5,123.7l-1.2,1.5c-0.1,0.1-0.1,0.4,0.1,0.5c0.2,0.1,0.4,0.1,0.5-0.1l1.2-1.5c0.1-0.1,0.1-0.3-0.1-0.5
		C37.8,123.6,37.6,123.6,37.5,123.7z"/>
	<path fill="#CD448D" d="M40,125.6l-1.1,1.5c-0.1,0.1-0.1,0.4,0.1,0.5c0.2,0.1,0.4,0.1,0.5-0.1l1.1-1.5c0.1-0.1,0.1-0.4-0.1-0.5
		C40.3,125.4,40.1,125.5,40,125.6z"/>
	<path fill="#CD448D" d="M29.2,118.6c-0.1,0.1-0.1,0.4,0,0.5c0.1,0.1,0.3,0.2,0.5,0l1.4-1.3c0.1-0.1,0.1-0.3,0-0.5
		c-0.1-0.1-0.3-0.1-0.5,0L29.2,118.6z"/>
	<path fill="#CD448D" d="M32.8,119.6l-1.3,1.3c-0.1,0.1-0.1,0.3,0,0.5c0.1,0.1,0.4,0.1,0.5,0l1.3-1.4c0.1-0.1,0.1-0.3,0-0.5
		C33.1,119.4,32.9,119.4,32.8,119.6z"/>
	<path fill="#CD448D" d="M35.1,121.7l-1.3,1.4c-0.1,0.1-0.1,0.4,0,0.5c0.1,0.1,0.4,0.1,0.5,0l1.2-1.4c0.1-0.1,0.1-0.4,0-0.5
		C35.4,121.6,35.2,121.6,35.1,121.7z"/>
	<path fill="#CD448D" d="M53.8,133.1l-0.7,1.7c-0.1,0.2,0,0.4,0.2,0.5c0.2,0,0.4,0,0.4-0.2l0.7-1.8c0.1-0.2,0-0.4-0.2-0.4
		C54,132.9,53.8,133,53.8,133.1z"/>
	<path fill="#CD448D" d="M50.9,131.9l-0.8,1.7c-0.1,0.2,0,0.4,0.2,0.5c0.2,0.1,0.4,0,0.4-0.1l0.8-1.7c0.1-0.2,0-0.4-0.2-0.5
		C51.1,131.7,50.9,131.7,50.9,131.9z"/>
	<path fill="#CD448D" d="M62.8,135.9l-0.4,1.8c0,0.2,0.1,0.4,0.3,0.4c0.2,0,0.4-0.1,0.4-0.3l0.4-1.8c0-0.2-0.1-0.4-0.2-0.4
		C63,135.6,62.8,135.7,62.8,135.9z"/>
	<path fill="#CD448D" d="M69,137l-0.2,1.9c0,0.2,0.1,0.4,0.3,0.4c0.2,0,0.4-0.1,0.4-0.3l0.2-1.9c0-0.2-0.1-0.4-0.3-0.4
		C69.1,136.7,69,136.8,69,137z"/>
	<path fill="#CD448D" d="M65.8,136.5l-0.3,1.8c0,0.2,0.1,0.4,0.3,0.4c0.2,0,0.4-0.1,0.4-0.3l0.3-1.8c0-0.2-0.1-0.4-0.3-0.4
		C66.1,136.2,65.9,136.3,65.8,136.5z"/>
	<path fill="#CD448D" d="M27.1,116.2c-0.1,0.1-0.2,0.3,0,0.5c0.1,0.1,0.3,0.2,0.5,0l1.4-1.2c0.1-0.1,0.2-0.3,0-0.5
		c-0.1-0.1-0.3-0.1-0.5,0L27.1,116.2z"/>
	<path fill="#CD448D" d="M56.7,134.2l-0.6,1.8c-0.1,0.2,0,0.4,0.2,0.4c0.2,0.1,0.4,0,0.4-0.2l0.6-1.8c0.1-0.2,0-0.4-0.2-0.4
		C57,133.9,56.8,134,56.7,134.2z"/>
	<path fill="#CD448D" d="M59.7,135.1l-0.5,1.8c0,0.2,0.1,0.4,0.2,0.4c0.2,0.1,0.4-0.1,0.4-0.2l0.5-1.8c0.1-0.2-0.1-0.4-0.2-0.4
		C60,134.8,59.8,134.9,59.7,135.1z"/>
	<path fill="#CD448D" d="M25.2,110.1c-0.1-0.1-0.3-0.2-0.5-0.1l-1.6,1.1c-0.2,0.1-0.2,0.3-0.1,0.5c0.1,0.2,0.3,0.2,0.5,0.1l1.5-1.1
		C25.2,110.4,25.3,110.2,25.2,110.1z"/>
	<path fill="#CD448D" d="M14.9,84.1c0-0.2-0.2-0.3-0.4-0.3l-1.9,0.3c-0.2,0-0.3,0.2-0.3,0.4c0,0.2,0.2,0.3,0.4,0.3l1.9-0.3
		C14.8,84.5,14.9,84.3,14.9,84.1z"/>
	<path fill="#CD448D" d="M14.4,81c0-0.2-0.2-0.3-0.4-0.3l-1.9,0.2c-0.2,0-0.3,0.2-0.3,0.4c0,0.2,0.2,0.3,0.4,0.3l1.9-0.2
		C14.3,81.4,14.4,81.2,14.4,81z"/>
	<path fill="#CD448D" d="M26.6,112.5l-1.5,1.1c-0.2,0.1-0.2,0.3-0.1,0.5c0.1,0.2,0.3,0.2,0.5,0.1L27,113c0.1-0.1,0.2-0.3,0.1-0.5
		C26.9,112.4,26.7,112.4,26.6,112.5z"/>
	<path fill="#CD448D" d="M16.1,90.2c0-0.2-0.2-0.3-0.4-0.2l-1.8,0.4c-0.2,0.1-0.3,0.2-0.3,0.4c0.1,0.2,0.2,0.3,0.4,0.2l1.8-0.5
		C16.1,90.6,16.2,90.4,16.1,90.2z"/>
	<path fill="#CD448D" d="M13.9,72c0.2,0,0.3-0.1,0.4-0.3c0-0.2-0.1-0.3-0.3-0.4L12,71.2c-0.2,0-0.3,0.1-0.4,0.3
		c0,0.2,0.1,0.3,0.3,0.3L13.9,72z"/>
	<path fill="#CD448D" d="M13.9,78.3c0.2,0,0.3-0.2,0.3-0.4c0-0.2-0.2-0.3-0.4-0.3L12,77.7c-0.2,0-0.3,0.2-0.3,0.4
		c0,0.2,0.2,0.3,0.4,0.3L13.9,78.3z"/>
	<path fill="#CD448D" d="M13.8,75.1c0.2,0,0.3-0.1,0.3-0.3c0-0.2-0.2-0.3-0.4-0.3h-1.9c-0.2,0-0.3,0.1-0.3,0.3
		c0,0.2,0.2,0.3,0.4,0.3L13.8,75.1z"/>
	<path fill="#CD448D" d="M15.4,87.2c0-0.2-0.2-0.3-0.4-0.3l-1.8,0.4c-0.2,0-0.3,0.2-0.3,0.4c0,0.2,0.2,0.3,0.4,0.3l1.8-0.4
		C15.3,87.6,15.4,87.4,15.4,87.2z"/>
	<path fill="#CD448D" d="M21.9,104.8c-0.1-0.2-0.3-0.2-0.5-0.1l-1.6,0.9c-0.2,0.1-0.2,0.3-0.1,0.5c0.1,0.2,0.3,0.2,0.5,0.1l1.6-0.9
		C21.9,105.1,22,104.9,21.9,104.8z"/>
	<path fill="#CD448D" d="M16.9,93.3c-0.1-0.2-0.2-0.3-0.4-0.2l-1.8,0.5c-0.2,0.1-0.3,0.3-0.2,0.4c0.1,0.2,0.3,0.3,0.4,0.2l1.8-0.6
		C16.9,93.6,17,93.4,16.9,93.3z"/>
	<path fill="#CD448D" d="M72.1,137.3l-0.1,1.9c0,0.2,0.1,0.4,0.3,0.4c0.2,0,0.4-0.1,0.4-0.3l0.1-1.9c0-0.2-0.1-0.4-0.3-0.4
		C72.3,137,72.1,137.1,72.1,137.3z"/>
	<path fill="#CD448D" d="M23.5,107.4c-0.1-0.2-0.3-0.2-0.5-0.1l-1.6,1c-0.2,0.1-0.2,0.3-0.1,0.5c0.1,0.2,0.3,0.2,0.5,0.1l1.6-1
		C23.5,107.8,23.6,107.6,23.5,107.4z"/>
	<path fill="#CD448D" d="M18,96.2c-0.1-0.2-0.3-0.3-0.4-0.2l-1.8,0.6c-0.2,0.1-0.3,0.2-0.2,0.4c0.1,0.2,0.3,0.3,0.4,0.2l1.8-0.7
		C18,96.6,18.1,96.4,18,96.2z"/>
	<path fill="#CD448D" d="M19.1,99.1C19,99,18.8,98.9,18.7,99l-1.7,0.7c-0.2,0.1-0.2,0.3-0.2,0.4c0.1,0.2,0.3,0.3,0.5,0.2l1.7-0.8
		C19.1,99.5,19.2,99.3,19.1,99.1z"/>
	<path fill="#CD448D" d="M20.5,101.9c-0.1-0.2-0.3-0.2-0.5-0.1l-1.7,0.8c-0.2,0.1-0.2,0.3-0.2,0.5c0.1,0.2,0.3,0.3,0.5,0.2l1.7-0.8
		C20.5,102.3,20.6,102.1,20.5,101.9z"/>
	<path fill="#CD448D" d="M123.4,116.8c-0.1-0.1-0.4-0.1-0.5,0c-0.1,0.1-0.1,0.3,0,0.5l1.4,1.3c0.1,0.1,0.4,0.1,0.5,0
		c0.1-0.1,0.1-0.4,0-0.5L123.4,116.8z"/>
	<path fill="#CD448D" d="M130.9,106.7c-0.2-0.1-0.4,0-0.5,0.1c-0.1,0.2,0,0.4,0.1,0.5l1.6,1c0.2,0.1,0.4,0.1,0.5-0.1
		c0.1-0.2,0-0.4-0.1-0.5L130.9,106.7z"/>
	<path fill="#CD448D" d="M132.5,104c-0.2-0.1-0.4,0-0.4,0.1c-0.1,0.2,0,0.4,0.1,0.5l1.6,0.9c0.2,0.1,0.4,0,0.5-0.1
		c0.1-0.2,0-0.4-0.1-0.5L132.5,104z"/>
	<path fill="#CD448D" d="M133.9,101.2c-0.2-0.1-0.4,0-0.5,0.2c-0.1,0.2,0,0.4,0.2,0.4l1.7,0.8c0.2,0.1,0.4,0,0.5-0.2
		c0.1-0.2,0-0.4-0.2-0.5L133.9,101.2z"/>
	<path fill="#CD448D" d="M129.3,109.4c-0.2-0.1-0.4-0.1-0.5,0.1c-0.1,0.1-0.1,0.3,0.1,0.4l1.6,1.1c0.1,0.1,0.4,0.1,0.5-0.1
		c0.1-0.2,0.1-0.4-0.1-0.5L129.3,109.4z"/>
	<path fill="#CD448D" d="M125.5,114.5c-0.1-0.1-0.3-0.1-0.5,0c-0.1,0.1-0.1,0.3,0,0.5l1.4,1.2c0.2,0.1,0.4,0.1,0.5,0
		c0.1-0.1,0.1-0.4,0-0.5L125.5,114.5z"/>
	<path fill="#CD448D" d="M127.4,112c-0.2-0.1-0.4-0.1-0.5,0.1c-0.1,0.1-0.1,0.4,0.1,0.5l1.5,1.1c0.1,0.1,0.4,0.1,0.5-0.1
		c0.1-0.2,0.1-0.4-0.1-0.5L127.4,112z"/>
	<path fill="#CD448D" d="M135.1,98.4c-0.2-0.1-0.4,0-0.4,0.2c-0.1,0.2,0,0.4,0.2,0.4l1.7,0.7c0.2,0.1,0.4,0,0.4-0.2
		c0.1-0.2,0-0.4-0.2-0.4L135.1,98.4z"/>
	<path fill="#CD448D" d="M136.2,95.4c-0.2,0-0.4,0-0.4,0.2c-0.1,0.2,0,0.3,0.2,0.4l1.8,0.6c0.2,0.1,0.4,0,0.4-0.2
		c0.1-0.2,0-0.4-0.2-0.4L136.2,95.4z"/>
	<path fill="#CD448D" d="M139.2,83.2c-0.2,0-0.4,0.1-0.4,0.3c0,0.2,0.1,0.4,0.3,0.4l1.9,0.3c0.2,0,0.4-0.1,0.4-0.3
		c0-0.2-0.1-0.4-0.3-0.4L139.2,83.2z"/>
	<path fill="#CD448D" d="M139.6,80.1c-0.2,0-0.3,0.1-0.4,0.3c0,0.2,0.1,0.4,0.3,0.4l1.9,0.2c0.2,0,0.3-0.1,0.4-0.3
		c0-0.2-0.1-0.4-0.3-0.4L139.6,80.1z"/>
	<path fill="#CD448D" d="M75.2,137.5l0,1.9c0,0.2,0.2,0.4,0.3,0.4c0.2,0,0.4-0.1,0.4-0.3l0-1.9c0-0.2-0.1-0.4-0.3-0.4
		C75.4,137.1,75.2,137.3,75.2,137.5z"/>
	<path fill="#CD448D" d="M14,68.9c0.2,0,0.3-0.1,0.4-0.3c0-0.2-0.1-0.3-0.3-0.4L12.2,68c-0.2,0-0.3,0.1-0.4,0.3
		c0,0.2,0.1,0.4,0.3,0.4L14,68.9z"/>
	<path fill="#CD448D" d="M137.2,92.4c-0.2-0.1-0.4,0.1-0.4,0.2c0,0.2,0.1,0.4,0.2,0.4l1.8,0.6c0.2,0.1,0.4-0.1,0.4-0.2
		c0-0.2-0.1-0.4-0.2-0.4L137.2,92.4z"/>
	<path fill="#CD448D" d="M138.7,86.3c-0.2,0-0.3,0.1-0.4,0.3c0,0.2,0.1,0.4,0.3,0.4l1.8,0.4c0.2,0,0.4-0.1,0.4-0.3
		c0-0.2-0.1-0.4-0.3-0.4L138.7,86.3z"/>
	<path fill="#CD448D" d="M138,89.4c-0.2,0-0.4,0.1-0.4,0.3c0,0.2,0.1,0.3,0.2,0.4l1.8,0.4c0.2,0.1,0.4-0.1,0.4-0.2
		c0-0.2-0.1-0.4-0.3-0.4L138,89.4z"/>
	<path fill="#CD448D" d="M139.7,76.9c-0.2,0-0.3,0.1-0.4,0.3c0,0.2,0.1,0.3,0.3,0.3l1.9,0.1c0.2,0,0.3-0.1,0.4-0.3
		c0-0.2-0.1-0.4-0.3-0.4L139.7,76.9z"/>
	<path fill="#CD448D" d="M88,136.1c-0.2,0-0.3,0.2-0.3,0.4l0.3,1.8c0,0.2,0.2,0.3,0.4,0.3c0.2,0,0.3-0.2,0.3-0.4l-0.3-1.9
		C88.4,136.2,88.2,136.1,88,136.1z"/>
	<path fill="#CD448D" d="M118.5,121.2c-0.1,0.1-0.1,0.4,0,0.5l1.2,1.4c0.1,0.1,0.3,0.2,0.5,0c0.1-0.1,0.2-0.3,0-0.5l-1.3-1.4
		C118.8,121.1,118.6,121.1,118.5,121.2z"/>
	<path fill="#CD448D" d="M94.1,134.7c-0.2,0-0.3,0.2-0.2,0.4l0.5,1.8c0.1,0.2,0.2,0.3,0.4,0.3c0.2-0.1,0.3-0.2,0.2-0.4l-0.5-1.8
		C94.5,134.8,94.3,134.7,94.1,134.7z"/>
	<path fill="#CD448D" d="M78.7,137.1c-0.2,0-0.3,0.2-0.3,0.4l0,1.9c0,0.2,0.2,0.3,0.4,0.3c0.2,0,0.3-0.2,0.3-0.4l-0.1-1.9
		C79,137.2,78.9,137.1,78.7,137.1z"/>
	<path fill="#CD448D" d="M97.1,133.8c-0.2,0.1-0.3,0.3-0.2,0.4l0.6,1.8c0.1,0.2,0.3,0.3,0.4,0.2c0.2-0.1,0.3-0.3,0.2-0.4l-0.6-1.8
		C97.4,133.8,97.2,133.7,97.1,133.8z"/>
	<path fill="#CD448D" d="M81.8,136.9c-0.2,0-0.3,0.2-0.3,0.4l0.1,1.9c0,0.2,0.2,0.3,0.4,0.3c0.2,0,0.3-0.2,0.3-0.4l-0.2-1.9
		C82.2,137.1,82,136.9,81.8,136.9z"/>
	<path fill="#CD448D" d="M84.9,136.6c-0.2,0-0.3,0.2-0.3,0.4l0.2,1.9c0,0.2,0.2,0.3,0.4,0.3c0.2,0,0.3-0.2,0.3-0.4l-0.3-1.9
		C85.3,136.7,85.1,136.6,84.9,136.6z"/>
	<path fill="#CD448D" d="M91.1,135.5c-0.2,0-0.3,0.2-0.3,0.4l0.4,1.8c0,0.2,0.2,0.3,0.4,0.2c0.2-0.1,0.3-0.2,0.3-0.4l-0.4-1.8
		C91.4,135.6,91.2,135.4,91.1,135.5z"/>
	<path fill="#CD448D" d="M113.6,125.1c-0.1,0.1-0.2,0.3-0.1,0.5l1.1,1.5c0.1,0.1,0.3,0.2,0.5,0.1c0.2-0.1,0.2-0.3,0.1-0.5l-1.1-1.5
		C114,125.1,113.8,125,113.6,125.1z"/>
	<path fill="#CD448D" d="M100,132.7c-0.2,0.1-0.3,0.3-0.2,0.4l0.7,1.7c0.1,0.2,0.3,0.3,0.5,0.2c0.2-0.1,0.3-0.3,0.2-0.4l-0.7-1.7
		C100.4,132.7,100.2,132.6,100,132.7z"/>
	<path fill="#CD448D" d="M116.1,123.3c-0.1,0.1-0.2,0.3-0.1,0.5l1.2,1.5c0.1,0.1,0.3,0.2,0.5,0.1c0.2-0.1,0.2-0.3,0.1-0.5l-1.2-1.5
		C116.5,123.2,116.3,123.2,116.1,123.3z"/>
	<path fill="#CD448D" d="M111.1,127c-0.2,0.1-0.2,0.3-0.1,0.4l1,1.6c0.1,0.2,0.3,0.2,0.5,0.1c0.2-0.1,0.2-0.3,0.1-0.5l-1-1.6
		C111.5,126.9,111.2,126.9,111.1,127z"/>
	<path fill="#CD448D" d="M108.4,128.6c-0.2,0.1-0.2,0.3-0.1,0.5l0.9,1.6c0.1,0.1,0.3,0.2,0.5,0.1c0.2-0.1,0.2-0.3,0.1-0.5l-1-1.6
		C108.8,128.5,108.6,128.5,108.4,128.6z"/>
	<path fill="#CD448D" d="M102.9,131.5c-0.2,0.1-0.2,0.3-0.2,0.5l0.8,1.7c0.1,0.2,0.3,0.2,0.5,0.1c0.2-0.1,0.3-0.3,0.2-0.5l-0.8-1.7
		C103.2,131.5,103,131.4,102.9,131.5z"/>
	<path fill="#CD448D" d="M105.7,130.1c-0.2,0.1-0.2,0.3-0.1,0.4l0.9,1.7c0.1,0.2,0.3,0.3,0.5,0.2c0.2-0.1,0.2-0.3,0.1-0.5l-0.9-1.7
		C106.1,130.1,105.9,130,105.7,130.1z"/>
	<path fill="#CD448D" d="M127,36.4l1.5-1.1c0.1-0.1,0.2-0.3,0.1-0.5c-0.1-0.2-0.3-0.2-0.5-0.1l-1.5,1.2c-0.1,0.1-0.2,0.3-0.1,0.5
		C126.7,36.5,126.9,36.5,127,36.4z"/>
	<path fill="#CD448D" d="M113.6,23.3l1.1-1.5c0.1-0.1,0.1-0.4-0.1-0.5c-0.2-0.1-0.4-0.1-0.5,0.1l-1.1,1.5c-0.1,0.1-0.1,0.4,0.1,0.5
		C113.3,23.5,113.5,23.4,113.6,23.3z"/>
	<path fill="#CD448D" d="M111,21.5l1-1.6c0.1-0.2,0.1-0.4-0.1-0.5c-0.2-0.1-0.4-0.1-0.5,0.1l-1,1.6c-0.1,0.2-0.1,0.4,0.1,0.5
		C110.7,21.7,110.9,21.7,111,21.5z"/>
	<path fill="#CD448D" d="M108.3,19.9l0.9-1.6c0.1-0.1,0-0.4-0.1-0.5c-0.2-0.1-0.4-0.1-0.5,0.1l-0.9,1.6c-0.1,0.1,0,0.4,0.1,0.5
		C108,20.1,108.2,20.1,108.3,19.9z"/>
	<path fill="#CD448D" d="M116.1,25.2l1.2-1.5c0.1-0.1,0.1-0.3-0.1-0.5c-0.1-0.1-0.4-0.1-0.5,0.1l-1.2,1.5c-0.1,0.1-0.1,0.4,0.1,0.5
		C115.8,25.4,116,25.3,116.1,25.2z"/>
	<path fill="#CD448D" d="M105.5,18.4l0.9-1.7c0.1-0.2,0-0.4-0.2-0.5c-0.2-0.1-0.4,0-0.5,0.2l-0.8,1.7c-0.1,0.2,0,0.4,0.2,0.4
		C105.3,18.6,105.5,18.5,105.5,18.4z"/>
	<path fill="#CD448D" d="M120.8,29.3l1.3-1.3c0.1-0.1,0.1-0.3,0-0.5c-0.1-0.1-0.4-0.1-0.5,0l-1.3,1.3c-0.1,0.1-0.1,0.4,0,0.5
		C120.5,29.5,120.7,29.5,120.8,29.3z"/>
	<path fill="#CD448D" d="M118.5,27.2l1.2-1.4c0.1-0.1,0.1-0.4,0-0.5c-0.1-0.1-0.4-0.1-0.5,0l-1.2,1.4c-0.1,0.1-0.1,0.4,0,0.5
		C118.1,27.4,118.4,27.4,118.5,27.2z"/>
	<path fill="#CD448D" d="M102.7,17l0.8-1.7c0.1-0.2,0-0.4-0.2-0.5c-0.2-0.1-0.4,0-0.4,0.1l-0.8,1.7c-0.1,0.2,0,0.4,0.2,0.4
		C102.4,17.3,102.6,17.2,102.7,17z"/>
	<path fill="#CD448D" d="M90.8,13l0.4-1.9c0-0.2-0.1-0.4-0.3-0.4c-0.2,0-0.4,0.1-0.4,0.3l-0.4,1.8c0,0.2,0.1,0.4,0.3,0.4
		C90.6,13.3,90.8,13.2,90.8,13z"/>
	<path fill="#CD448D" d="M87.7,12.4l0.3-1.9c0-0.2-0.1-0.4-0.3-0.4c-0.2,0-0.4,0.1-0.4,0.3l-0.3,1.9c0,0.2,0.1,0.4,0.3,0.4
		C87.5,12.7,87.7,12.6,87.7,12.4z"/>
	<path fill="#CD448D" d="M84.6,11.9l0.2-1.9c0-0.2-0.1-0.4-0.3-0.4c-0.2,0-0.4,0.1-0.4,0.3L84,11.8c0,0.2,0.1,0.4,0.3,0.4
		C84.4,12.2,84.6,12.1,84.6,11.9z"/>
	<path fill="#CD448D" d="M96.9,14.7l0.6-1.8c0.1-0.2,0-0.4-0.2-0.4c-0.2-0.1-0.4,0-0.4,0.2l-0.6,1.8c0,0.2,0,0.4,0.2,0.4
		C96.6,15,96.8,14.9,96.9,14.7z"/>
	<path fill="#CD448D" d="M99.8,15.8l0.7-1.7c0.1-0.2,0-0.4-0.2-0.4c-0.2-0.1-0.4,0-0.5,0.2l-0.7,1.8c-0.1,0.2,0,0.4,0.2,0.4
		C99.6,16.1,99.8,16,99.8,15.8z"/>
	<path fill="#CD448D" d="M93.9,13.8l0.5-1.8c0.1-0.2-0.1-0.4-0.2-0.4c-0.2-0.1-0.4,0.1-0.4,0.2l-0.5,1.8c-0.1,0.2,0.1,0.4,0.2,0.4
		C93.6,14.1,93.8,14,93.9,13.8z"/>
	<path fill="#CD448D" d="M124.3,30.3c0.1-0.1,0.2-0.4,0-0.5c-0.1-0.1-0.3-0.2-0.5,0l-1.4,1.3c-0.1,0.1-0.2,0.3,0,0.5
		c0.1,0.1,0.3,0.1,0.5,0L124.3,30.3z"/>
	<path fill="#CD448D" d="M126.5,32.7c0.1-0.1,0.2-0.3,0-0.5c-0.1-0.1-0.4-0.2-0.5,0l-1.4,1.2c-0.1,0.1-0.2,0.3,0,0.5
		c0.1,0.1,0.3,0.1,0.5,0L126.5,32.7z"/>
	<path fill="#CD448D" d="M139.7,70.6c-0.2,0-0.3,0.2-0.3,0.4c0,0.2,0.2,0.3,0.4,0.3l1.9-0.1c0.2,0,0.3-0.2,0.3-0.4
		c0-0.2-0.2-0.3-0.4-0.3L139.7,70.6z"/>
	<path fill="#CD448D" d="M133.1,47c0.1,0.2,0.3,0.2,0.5,0.1l1.7-0.8c0.2-0.1,0.2-0.3,0.2-0.5c-0.1-0.2-0.3-0.2-0.5-0.1l-1.7,0.8
		C133.1,46.6,133,46.8,133.1,47z"/>
	<path fill="#CD448D" d="M135.6,52.7c0.1,0.2,0.3,0.3,0.4,0.2l1.8-0.6c0.2-0.1,0.3-0.3,0.2-0.5c-0.1-0.2-0.3-0.3-0.4-0.2l-1.8,0.7
		C135.6,52.4,135.5,52.5,135.6,52.7z"/>
	<path fill="#CD448D" d="M137.4,58.7c0.1,0.2,0.2,0.3,0.4,0.2l1.8-0.5c0.2,0,0.3-0.2,0.3-0.4c-0.1-0.2-0.2-0.3-0.4-0.2l-1.8,0.5
		C137.5,58.3,137.4,58.5,137.4,58.7z"/>
	<path fill="#CD448D" d="M136.6,55.7c0.1,0.2,0.2,0.3,0.4,0.2l1.8-0.5c0.2-0.1,0.3-0.3,0.2-0.4c-0.1-0.2-0.3-0.3-0.4-0.2l-1.8,0.6
		C136.7,55.3,136.6,55.5,136.6,55.7z"/>
	<path fill="#CD448D" d="M138.2,61.7c0.1,0.2,0.2,0.3,0.4,0.3l1.8-0.4c0.2,0,0.3-0.2,0.3-0.4c0-0.2-0.2-0.3-0.4-0.3l-1.8,0.4
		C138.3,61.4,138.2,61.5,138.2,61.7z"/>
	<path fill="#CD448D" d="M131.7,44.2c0.1,0.2,0.3,0.2,0.5,0.1l1.6-0.9c0.2-0.1,0.2-0.3,0.1-0.5c-0.1-0.1-0.3-0.2-0.5-0.1l-1.6,0.9
		C131.7,43.8,131.6,44,131.7,44.2z"/>
	<path fill="#CD448D" d="M134.5,49.8c0.1,0.2,0.3,0.3,0.5,0.2l1.7-0.7c0.2-0.1,0.2-0.3,0.2-0.5c-0.1-0.2-0.3-0.2-0.5-0.2l-1.7,0.8
		C134.5,49.4,134.4,49.6,134.5,49.8z"/>
	<path fill="#CD448D" d="M81.5,11.6l0.1-1.9c0-0.2-0.1-0.3-0.3-0.4c-0.2,0-0.4,0.1-0.4,0.3l-0.1,1.9c0,0.2,0.1,0.3,0.3,0.3
		C81.3,12,81.5,11.8,81.5,11.6z"/>
	<path fill="#CD448D" d="M14.4,65.7c0.2,0,0.4-0.1,0.4-0.3c0-0.2-0.1-0.3-0.3-0.4l-1.9-0.3c-0.2,0-0.4,0.1-0.4,0.3
		c0,0.2,0.1,0.3,0.3,0.4L14.4,65.7z"/>
	<path fill="#CD448D" d="M130.1,41.5c0.1,0.2,0.3,0.2,0.5,0.1l1.6-1c0.2-0.1,0.2-0.3,0.1-0.5c-0.1-0.2-0.3-0.2-0.5-0.1l-1.6,1
		C130,41.1,130,41.3,130.1,41.5z"/>
	<path fill="#CD448D" d="M139.2,67.9c0,0.2,0.2,0.3,0.4,0.3l1.9-0.2c0.2,0,0.3-0.2,0.3-0.4c0-0.2-0.2-0.3-0.4-0.3l-1.9,0.2
		C139.3,67.5,139.1,67.7,139.2,67.9z"/>
	<path fill="#CD448D" d="M139.8,73.8c-0.2,0-0.3,0.1-0.3,0.3c0,0.2,0.2,0.3,0.4,0.3h1.9c0.2,0,0.3-0.2,0.3-0.3
		c0-0.2-0.2-0.4-0.4-0.4L139.8,73.8z"/>
	<path fill="#CD448D" d="M128.4,38.9c0.1,0.1,0.3,0.2,0.5,0.1l1.6-1.1c0.2-0.1,0.2-0.3,0.1-0.5c-0.1-0.2-0.3-0.2-0.5-0.1l-1.5,1.1
		C128.3,38.5,128.3,38.7,128.4,38.9z"/>
	<path fill="#CD448D" d="M138.7,64.8c0,0.2,0.2,0.3,0.4,0.3l1.9-0.3c0.2,0,0.3-0.2,0.3-0.4c0-0.2-0.2-0.3-0.4-0.3l-1.9,0.3
		C138.8,64.5,138.7,64.6,138.7,64.8z"/>
	<path fill="#CD448D" d="M24.3,39.5c0.2,0.1,0.4,0.1,0.5-0.1c0.1-0.1,0.1-0.3-0.1-0.5l-1.5-1.1c-0.2-0.1-0.4-0.1-0.5,0.1
		c-0.1,0.2-0.1,0.4,0.1,0.5L24.3,39.5z"/>
	<path fill="#CD448D" d="M26.2,37c0.2,0.1,0.4,0.1,0.5-0.1c0.1-0.2,0.1-0.4-0.1-0.5l-1.5-1.1c-0.2-0.1-0.4-0.1-0.5,0.1
		c-0.1,0.2-0.1,0.4,0.1,0.5L26.2,37z"/>
	<path fill="#CD448D" d="M22.7,42.2c0.2,0.1,0.4,0,0.5-0.1c0.1-0.1,0-0.4-0.1-0.5l-1.6-1c-0.2-0.1-0.4,0-0.5,0.1
		c-0.1,0.2,0,0.4,0.1,0.5L22.7,42.2z"/>
	<path fill="#CD448D" d="M28.1,34.4c0.1,0.1,0.3,0.1,0.5,0c0.1-0.1,0.1-0.3,0-0.5l-1.4-1.2c-0.1-0.1-0.4-0.1-0.5,0
		c-0.1,0.1-0.1,0.3,0,0.5L28.1,34.4z"/>
	<path fill="#CD448D" d="M32.8,29.8c0.1-0.1,0.1-0.3,0-0.5L31.5,28c-0.1-0.1-0.3-0.1-0.5,0c-0.1,0.1-0.1,0.4,0,0.5l1.3,1.3
		C32.4,29.9,32.6,29.9,32.8,29.8z"/>
	<path fill="#CD448D" d="M21.1,44.9c0.2,0.1,0.4,0,0.4-0.1c0.1-0.2,0-0.4-0.1-0.5l-1.7-0.9c-0.2-0.1-0.4,0-0.5,0.1
		c-0.1,0.2,0,0.4,0.2,0.5L21.1,44.9z"/>
	<path fill="#CD448D" d="M35.1,27.7c0.1-0.1,0.1-0.3,0-0.5l-1.3-1.4c-0.1-0.1-0.3-0.2-0.5,0c-0.1,0.1-0.2,0.3,0,0.5l1.2,1.4
		C34.7,27.8,35,27.8,35.1,27.7z"/>
	<path fill="#CD448D" d="M30.2,32.1c0.1,0.1,0.4,0.1,0.5,0c0.1-0.1,0.1-0.3,0-0.5l-1.4-1.3c-0.1-0.1-0.3-0.1-0.5,0
		c-0.1,0.1-0.1,0.4,0,0.5L30.2,32.1z"/>
	<path fill="#CD448D" d="M15.6,59.6c0.2,0,0.4-0.1,0.4-0.3c0-0.2-0.1-0.3-0.2-0.4l-1.8-0.5c-0.2,0-0.4,0.1-0.4,0.3
		c0,0.2,0.1,0.4,0.2,0.4L15.6,59.6z"/>
	<path fill="#CD448D" d="M16.4,56.5c0.2,0,0.4-0.1,0.4-0.2c0-0.2-0.1-0.4-0.2-0.4l-1.8-0.5c-0.2-0.1-0.4,0.1-0.4,0.2
		c0,0.2,0.1,0.4,0.2,0.4L16.4,56.5z"/>
	<path fill="#CD448D" d="M14.9,62.6c0.2,0,0.4-0.1,0.4-0.3c0-0.2-0.1-0.4-0.3-0.4l-1.8-0.4c-0.2,0-0.4,0.1-0.4,0.3
		c0,0.2,0.1,0.4,0.3,0.4L14.9,62.6z"/>
	<path fill="#CD448D" d="M17.4,53.5c0.2,0.1,0.4,0,0.4-0.2c0.1-0.2,0-0.4-0.2-0.4l-1.8-0.6c-0.2-0.1-0.4,0-0.4,0.2
		c-0.1,0.2,0,0.4,0.2,0.4L17.4,53.5z"/>
	<path fill="#CD448D" d="M18.4,50.6c0.2,0.1,0.4,0,0.4-0.2c0.1-0.2,0-0.4-0.2-0.4l-1.7-0.7c-0.2-0.1-0.4,0-0.4,0.2
		c-0.1,0.2,0,0.4,0.2,0.5L18.4,50.6z"/>
	<path fill="#CD448D" d="M19.7,47.7c0.2,0.1,0.4,0,0.4-0.2c0.1-0.2,0-0.4-0.2-0.4l-1.7-0.8c-0.2-0.1-0.4,0-0.5,0.2
		c-0.1,0.2,0,0.4,0.2,0.5L19.7,47.7z"/>
	<path fill="#CD448D" d="M74.9,11.8c0.2,0,0.3-0.2,0.3-0.4l0-1.9c0-0.2-0.2-0.3-0.4-0.3c-0.2,0-0.3,0.2-0.3,0.4l0.1,1.9
		C74.6,11.7,74.7,11.8,74.9,11.8z"/>
	<path fill="#CD448D" d="M65.6,12.8c0.2,0,0.3-0.2,0.3-0.4l-0.3-1.9c0-0.2-0.2-0.3-0.4-0.3c-0.2,0-0.3,0.2-0.3,0.4l0.3,1.9
		C65.2,12.7,65.4,12.8,65.6,12.8z"/>
	<path fill="#CD448D" d="M59.5,14.2c0.2,0,0.3-0.2,0.2-0.4L59.2,12c-0.1-0.2-0.2-0.3-0.4-0.2c-0.2,0.1-0.3,0.2-0.2,0.4l0.5,1.8
		C59.1,14.1,59.3,14.2,59.5,14.2z"/>
	<path fill="#CD448D" d="M62.5,13.4c0.2-0.1,0.3-0.2,0.2-0.4l-0.4-1.9c0-0.2-0.2-0.3-0.4-0.2c-0.2,0-0.3,0.2-0.3,0.4l0.4,1.8
		C62.2,13.4,62.3,13.5,62.5,13.4z"/>
	<path fill="#CD448D" d="M56.5,15.2c0.2-0.1,0.3-0.3,0.2-0.4l-0.6-1.8c-0.1-0.2-0.3-0.3-0.4-0.2c-0.2,0.1-0.3,0.3-0.2,0.4l0.6,1.8
		C56.2,15.1,56.3,15.2,56.5,15.2z"/>
	<path fill="#CD448D" d="M78.4,11.5l0-1.9c0-0.2-0.2-0.3-0.3-0.4c-0.2,0-0.4,0.1-0.4,0.3l0,1.9c0,0.2,0.1,0.3,0.3,0.4
		C78.2,11.8,78.4,11.7,78.4,11.5z"/>
	<path fill="#CD448D" d="M37.4,25.6c0.2-0.1,0.2-0.3,0.1-0.5l-1.2-1.5c-0.1-0.2-0.3-0.2-0.5,0c-0.2,0.1-0.2,0.3-0.1,0.5l1.2,1.5
		C37.1,25.7,37.3,25.8,37.4,25.6z"/>
	<path fill="#CD448D" d="M68.7,12.3c0.2,0,0.3-0.2,0.3-0.4l-0.2-1.9c0-0.2-0.2-0.3-0.4-0.3c-0.2,0-0.3,0.2-0.3,0.4l0.3,1.9
		C68.3,12.2,68.5,12.3,68.7,12.3z"/>
	<path fill="#CD448D" d="M71.8,12c0.2,0,0.3-0.2,0.3-0.4l-0.1-1.9c0-0.2-0.2-0.3-0.4-0.3c-0.2,0-0.3,0.2-0.3,0.4l0.2,1.9
		C71.4,11.9,71.6,12,71.8,12z"/>
	<path fill="#CD448D" d="M53.6,16.2c0.2-0.1,0.3-0.3,0.2-0.4L53.1,14c-0.1-0.2-0.3-0.3-0.5-0.2c-0.2,0.1-0.3,0.3-0.2,0.4l0.7,1.7
		C53.2,16.2,53.4,16.3,53.6,16.2z"/>
	<path fill="#CD448D" d="M39.9,23.8c0.1-0.1,0.2-0.3,0.1-0.5l-1.1-1.5c-0.1-0.1-0.3-0.2-0.5-0.1c-0.2,0.1-0.2,0.3-0.1,0.5l1.1,1.5
		C39.6,23.8,39.8,23.9,39.9,23.8z"/>
	<path fill="#CD448D" d="M50.7,17.5c0.2-0.1,0.2-0.3,0.2-0.4l-0.8-1.7c-0.1-0.2-0.3-0.2-0.5-0.2c-0.2,0.1-0.2,0.3-0.2,0.5l0.8,1.7
		C50.4,17.5,50.6,17.5,50.7,17.5z"/>
	<path fill="#CD448D" d="M47.9,18.8c0.2-0.1,0.2-0.3,0.1-0.5l-0.9-1.7c-0.1-0.2-0.3-0.2-0.5-0.2c-0.2,0.1-0.2,0.3-0.2,0.5l0.9,1.7
		C47.5,18.8,47.7,18.9,47.9,18.8z"/>
	<path fill="#CD448D" d="M42.5,22c0.2-0.1,0.2-0.3,0.1-0.4l-1-1.6c-0.1-0.2-0.3-0.2-0.5-0.1c-0.2,0.1-0.2,0.3-0.1,0.5l1,1.6
		C42.1,22,42.3,22.1,42.5,22z"/>
	<path fill="#CD448D" d="M45.2,20.4c0.2-0.1,0.2-0.3,0.1-0.5l-0.9-1.6c-0.1-0.1-0.3-0.2-0.5-0.1c-0.2,0.1-0.2,0.3-0.1,0.5l1,1.6
		C44.8,20.4,45,20.4,45.2,20.4z"/>
	<path fill="#CD448D" d="M76.4,15.7c-32.6,0-59,26.4-59.1,59c0,32.6,26.4,59,59.1,59c32.6,0,59-26.4,59-59
		C135.4,42.1,109,15.7,76.4,15.7z M89.6,99.4c0.6-3.1,2.5-5.6,3.4-8.6c0.6-1.6,1.3-3.2,1.6-4.8c1.5,2.3,4.1,4.2,5.3,6.6
		c0.1,1.1-1.2,1.8-2,2.3c-2.6,1.8-5.4,2.8-8,4.6L89.6,99.4z M100.8,124.5c-0.1-2.8-1.2-5.5-3.2-7.6c-2.6-3-5.4-6-6.4-9.6
		c2.4-2.3,5.4-3.1,8.2-4.3c3.9-1.1,7.4-3.3,10.7-5.7c1.2-1.2,0.3-2.8,0.1-4.1c-2.7-7.2-7.2-13.8-10.4-20.8c-1.2-2.1-0.8-4.9-2.4-6.8
		c-2-2.7-5.2-3.6-7.5-6c-0.8-1.3-1.4-2.7-1.7-4l2.6-1.4c1.3-1,2.3-2.4,2.2-4.1c0.3-2.5-2.5-3.5-4.2-4.6l0.2-1.9
		c-0.2-1.3-1.6-2.2-2.7-2.7c0.1-1.1,0.1-2.4-0.4-3.5c-1.9-3.2-5.2-4.5-8.4-5.4l-0.2-0.4c-1.3-2.8-4.3-4.6-7.3-3.5
		c-2.4,1.1-4.5,3.2-5.9,5.5C63,33.7,62.2,35,61.6,36c-0.5,2.2-3,3.4-4.4,5.1c-1.4,1.9-2.4,4.5-1.3,6.9c1.2,2.6,4,3.4,6.5,3.8
		c0.8-0.5-0.1-1.6,0.3-2.3l2.5,2.5c1.7,0.9,1,3.1,1.5,4.7l0.2,0.5c0.5,0.1,1.2,0.3,1.6-0.2c0.3,0.5,0.7,0.9,1,1.4
		c0.6,0,0.5,0.8,0.8,1.2c1.2,0.6,1.1,2.3,2.5,2.7c1.6,0.3,3.2,0.3,4.4-1c0.6,0.6,0.9,1.3,1.4,1.9c-2.4,1-1.5,3.6-2.5,5.3
		c-2.5,3.9-4.5,8-7.8,11.5c-1.4,2.1-5.3,3-4.7,6.2c0.3,1.7,1.8,3.1,3.3,3.9c-1.5,1.6-2.8,3.2-4,5l-2.6,1.3c-1.3,1.7-3.5,2.5-4.5,4.4
		c0.4,1.1-0.9,1.7-0.9,2.8c0.7,0.8-0.5,1.2-0.5,1.9c0.1,0.4,0.3,0.8,0.7,1.1c-0.9,1.8,0.6,3.1,1.6,4.4c0.2,4.2,1.9,7.8,4.7,10.9
		c1.4,1.9,3.3,2.7,5.2,3.7c0.1,1.9,0.9,3.3,2.2,4.2c-27-3.8-47.7-26.9-47.8-54.9c0.1-30.7,24.9-55.5,55.5-55.5
		c30.7,0.1,55.5,24.9,55.5,55.5C131.9,96.6,119.2,115.5,100.8,124.5z"/>
</g>
</svg>
