<?xml version="1.0" encoding="utf-8"?>
<!-- Generator: Adobe Illustrator 16.0.0, SVG Export Plug-In . SVG Version: 6.00 Build 0)  -->
<!DOCTYPE svg PUBLIC "-//W3C//DTD SVG 1.1//EN" "http://www.w3.org/Graphics/SVG/1.1/DTD/svg11.dtd">
<svg version="1.1" id="Layer_1" xmlns="http://www.w3.org/2000/svg" xmlns:xlink="http://www.w3.org/1999/xlink" x="0px" y="0px"
	 width="100px" height="100px" viewBox="0 0 100 100" enable-background="new 0 0 100 100" xml:space="preserve">
<g>
	<path fill="#ED2E34" d="M60.35,71.67c0.027,0.474,0.041,0.938,0.041,1.404c0,2.843-0.537,5.786-1.601,8.744
		c-0.195,0.547-0.411,1.098-0.645,1.645c5.367,3.936,10.892,5.509,10.892,5.509s1.938-6.269,1.222-13.515
		c-3.227-0.547-6.146-1.562-8.718-3.047C61.14,72.177,60.741,71.93,60.35,71.67z"/>
	<path fill="#ED2E34" d="M37.716,73.074c0-0.466,0.017-0.931,0.044-1.404c-0.392,0.26-0.79,0.507-1.191,0.74
		c-2.94,1.696-6.332,2.784-10.119,3.25c-0.726,6.614,0.675,12.187,0.675,12.187s6.395-1.458,12.315-5.7
		c-0.041-0.107-0.081-0.22-0.122-0.328C38.257,78.86,37.716,75.917,37.716,73.074z"/>
	<path fill="#ED2E34" d="M60.391,31.146c0,0.465-0.014,0.932-0.041,1.404c0.392-0.26,0.79-0.506,1.191-0.739
		c2.939-1.698,6.332-2.781,10.119-3.25c0.726-6.615-0.676-12.187-0.676-12.187s-6.396,1.458-12.315,5.7
		c0.04,0.108,0.081,0.219,0.121,0.327C59.854,25.36,60.391,28.304,60.391,31.146z"/>
	<path fill="#ED2E34" d="M72.878,51.446c-0.401,0.232-0.813,0.453-1.234,0.661c0.421,0.213,0.833,0.434,1.234,0.666
		c2.461,1.42,4.742,3.357,6.774,5.762c0.374,0.441,0.742,0.904,1.1,1.377c6.093-2.681,10.217-6.677,10.217-6.677
		s-4.458-4.813-11.097-7.817c-0.075,0.088-0.146,0.179-0.22,0.267C77.62,48.088,75.339,50.026,72.878,51.446z"/>
	<path fill="#ED2E34" d="M37.76,32.549c-0.027-0.472-0.044-0.938-0.044-1.404c0-2.842,0.541-5.785,1.604-8.745
		c0.195-0.546,0.412-1.097,0.645-1.644c-5.366-3.935-10.891-5.508-10.891-5.508s-1.938,6.268-1.222,13.514
		c3.226,0.546,6.146,1.562,8.718,3.047C36.97,32.043,37.369,32.29,37.76,32.549z"/>
	<path fill="#ED2E34" d="M25.232,52.773c0.402-0.229,0.813-0.453,1.235-0.666c-0.422-0.208-0.833-0.429-1.235-0.661
		c-2.46-1.42-4.742-3.358-6.773-5.761c-0.375-0.442-0.743-0.904-1.101-1.377c-6.092,2.68-10.216,6.676-10.216,6.676
		s4.458,4.813,11.098,7.816c0.074-0.087,0.145-0.18,0.219-0.266C20.49,56.134,22.771,54.193,25.232,52.773z"/>
	<path fill="#6D6E70" d="M76.102,74.194c5.271,0,9.265-1.12,9.265-1.12s-3.328-13.008-13.355-18.799
		c-1.667-0.962-3.416-1.664-5.171-2.168c1.755-0.498,3.504-1.201,5.171-2.162c10.027-5.792,13.355-18.8,13.355-18.8
		s-3.996-1.12-9.265-1.12c-4.213,0-9.238,0.715-13.693,3.287c-1.667,0.962-3.148,2.126-4.461,3.396
		c0.442-1.772,0.708-3.635,0.708-5.563c0-11.58-9.599-20.963-9.599-20.963s-9.602,9.383-9.602,20.963
		c0,1.927,0.266,3.791,0.708,5.563c-1.313-1.27-2.794-2.434-4.461-3.396c-4.455-2.572-9.481-3.287-13.692-3.287
		c-5.272,0-9.265,1.12-9.265,1.12s3.328,13.007,13.355,18.8c1.667,0.961,3.416,1.664,5.17,2.162
		c-1.755,0.504-3.503,1.206-5.17,2.168c-10.028,5.791-13.355,18.799-13.355,18.799s3.996,1.12,9.265,1.12
		c4.211,0,9.237-0.715,13.692-3.286c1.667-0.963,3.149-2.127,4.461-3.396c-0.442,1.772-0.708,3.635-0.708,5.563
		c0,11.58,9.602,20.963,9.602,20.963s9.599-9.383,9.599-20.963c0-1.928-0.266-3.79-0.708-5.563c1.313,1.27,2.794,2.434,4.461,3.396
		C66.863,73.479,71.889,74.194,76.102,74.194z M57.68,64.252c-1.076-0.624-2.035-1.374-2.882-2.193
		c0.287,1.143,0.459,2.349,0.459,3.591c0,7.479-6.2,13.54-6.2,13.54s-6.203-6.061-6.203-13.54c0-1.242,0.172-2.448,0.459-3.591
		c-0.847,0.819-1.806,1.569-2.882,2.193c-6.477,3.735-14.827,1.397-14.827,1.397s2.15-8.4,8.627-12.141
		c1.076-0.622,2.203-1.073,3.337-1.401c-1.134-0.323-2.261-0.774-3.337-1.396c-6.477-3.74-8.627-12.141-8.627-12.141
		s8.351-2.339,14.827,1.398c1.076,0.624,2.035,1.374,2.882,2.193c-0.287-1.144-0.459-2.349-0.459-3.591
		c0-7.479,6.203-13.541,6.203-13.541s6.2,6.062,6.2,13.541c0,1.243-0.172,2.447-0.459,3.591c0.847-0.82,1.806-1.569,2.882-2.193
		c6.478-3.737,14.827-1.398,14.827-1.398s-2.149,8.401-8.627,12.141c-1.076,0.622-2.203,1.073-3.338,1.396
		c1.135,0.328,2.262,0.779,3.338,1.401c6.478,3.74,8.627,12.141,8.627,12.141S64.157,67.987,57.68,64.252z"/>
</g>
</svg>
