<?xml version="1.0" encoding="iso-8859-1"?>
<!-- Generator: Adobe Illustrator 13.0.0, SVG Export Plug-In . SVG Version: 6.00 Build 14948)  -->
<!DOCTYPE svg PUBLIC "-//W3C//DTD SVG 1.1//EN" "http://www.w3.org/Graphics/SVG/1.1/DTD/svg11.dtd">
<svg version="1.1" id="Layer_1" xmlns="http://www.w3.org/2000/svg" xmlns:xlink="http://www.w3.org/1999/xlink" x="0px" y="0px"
	 width="100px" height="100px" viewBox="0 0 100 100" enable-background="new 0 0 100 100" xml:space="preserve">
<g>
	<g>
		<path fill="#F7E1AB" d="M47.787,28.86c-0.292,0.033-0.574,0.091-0.86,0.132C47.213,28.951,47.495,28.893,47.787,28.86z"/>
		<path fill="#F7E1AB" d="M29.229,38.954c-0.109,0.136-0.203,0.276-0.305,0.412C29.027,39.23,29.12,39.089,29.229,38.954z"/>
		<path fill="#F7E1AB" d="M27.518,41.312c-0.148,0.226-0.281,0.467-0.424,0.702C27.237,41.779,27.37,41.538,27.518,41.312z"/>
		<path fill="#F7E1AB" d="M42.061,30.11c-0.305,0.101-0.6,0.215-0.9,0.326C41.461,30.326,41.756,30.211,42.061,30.11z"/>
		<path fill="#F7E1AB" d="M44.871,29.338c-0.315,0.065-0.615,0.159-0.924,0.237C44.255,29.497,44.555,29.403,44.871,29.338z"/>
		<path fill="#F7E1AB" d="M26.054,43.853c-0.137,0.272-0.265,0.546-0.392,0.822C25.789,44.399,25.917,44.122,26.054,43.853z"/>
		<path fill="#F7E1AB" d="M36.627,32.601c-0.315,0.185-0.633,0.37-0.939,0.567C35.994,32.97,36.312,32.785,36.627,32.601z"/>
		<path fill="#F7E1AB" d="M34.083,34.308c-0.244,0.181-0.492,0.356-0.733,0.546C33.591,34.664,33.843,34.488,34.083,34.308z"/>
		<path fill="#F7E1AB" d="M23.726,62.679c0.115,0.493,0.241,0.979,0.378,1.461C23.967,63.657,23.841,63.172,23.726,62.679z"/>
		<path fill="#F7E1AB" d="M24.427,65.192c0.148,0.452,0.318,0.9,0.487,1.338C24.745,66.093,24.576,65.645,24.427,65.192z"/>
		<path fill="#F7E1AB" d="M25.332,67.574c0.192,0.433,0.405,0.852,0.618,1.277C25.737,68.426,25.524,68.007,25.332,67.574z"/>
		<path fill="#F7E1AB" d="M24.845,46.58c-0.104,0.288-0.21,0.568-0.313,0.86C24.635,47.148,24.741,46.868,24.845,46.58z"/>
		<path fill="#F7E1AB" d="M23.249,59.97c0.074,0.566,0.152,1.131,0.261,1.689C23.401,61.104,23.323,60.536,23.249,59.97z"/>
		<path fill="#F7E1AB" d="M31.208,36.762c0.057-0.05,0.113-0.1,0.167-0.152C31.321,36.662,31.265,36.712,31.208,36.762z"/>
		<path fill="#F7E1AB" d="M23.006,56.464c0,0.89,0.052,1.768,0.135,2.633C23.058,58.231,23.006,57.354,23.006,56.464z"/>
		<path fill="#F7E1AB" d="M23.265,52.873c-0.028,0.198-0.07,0.395-0.094,0.597C23.19,53.268,23.236,53.071,23.265,52.873z"/>
		<path fill="#F7E1AB" d="M68.253,34.903c-0.125-0.1-0.258-0.193-0.382-0.291C67.995,34.709,68.128,34.803,68.253,34.903z"/>
		<path fill="#F7E1AB" d="M77.812,62.683c-0.114,0.498-0.234,0.987-0.378,1.473C77.578,63.67,77.698,63.181,77.812,62.683z"/>
		<path fill="#F7E1AB" d="M77.11,65.208c-0.152,0.449-0.317,0.894-0.488,1.337C76.793,66.102,76.958,65.657,77.11,65.208z"/>
		<path fill="#F7E1AB" d="M78.292,59.976c-0.072,0.565-0.152,1.134-0.263,1.692C78.14,61.109,78.22,60.541,78.292,59.976z"/>
		<path fill="#F7E1AB" d="M75.091,69.849c-0.37,0.679-0.771,1.333-1.193,1.969C74.32,71.182,74.721,70.527,75.091,69.849z"/>
		<path fill="#F7E1AB" d="M77.016,47.453c-0.095-0.267-0.194-0.536-0.297-0.807C76.821,46.917,76.921,47.186,77.016,47.453z"/>
		<path fill="#F7E1AB" d="M78.537,56.464c0,0.89-0.051,1.772-0.135,2.64C78.486,58.236,78.537,57.354,78.537,56.464z"/>
		<path fill="#F7E1AB" d="M54.776,29.017c-0.331-0.046-0.66-0.116-0.997-0.152C54.116,28.901,54.445,28.971,54.776,29.017z"/>
		<path fill="#F7E1AB" d="M78.306,53.045c0.019,0.152,0.056,0.301,0.07,0.453C78.361,53.346,78.324,53.197,78.306,53.045z"/>
		<path fill="#F7E1AB" d="M60.641,30.535c-0.374-0.144-0.743-0.287-1.127-0.411C59.897,30.248,60.267,30.391,60.641,30.535z"/>
		<path fill="#F7E1AB" d="M65.918,33.205c-0.222-0.142-0.453-0.272-0.679-0.409C65.465,32.933,65.696,33.063,65.918,33.205z"/>
		<path fill="#F7E1AB" d="M57.831,29.634c-0.378-0.095-0.749-0.202-1.131-0.285C57.082,29.432,57.453,29.539,57.831,29.634z"/>
		<path fill="#F7E1AB" d="M72.762,39.55c-0.135-0.171-0.255-0.346-0.389-0.514C72.507,39.204,72.627,39.378,72.762,39.55z"/>
		<path fill="#F7E1AB" d="M74.498,42.101c-0.141-0.239-0.279-0.484-0.432-0.719C74.219,41.616,74.357,41.861,74.498,42.101z"/>
		<path fill="#F7E1AB" d="M75.908,44.717c-0.131-0.268-0.255-0.535-0.39-0.798C75.653,44.182,75.777,44.449,75.908,44.717z"/>
		<path fill="#F7E1AB" d="M26.629,70.144c0.317,0.557,0.639,1.107,0.996,1.642C27.268,71.251,26.946,70.7,26.629,70.144z"/>
		<path fill="#F7E1AB" d="M76.201,67.591c-0.188,0.431-0.4,0.851-0.608,1.271C75.801,68.441,76.013,68.021,76.201,67.591z"/>
		<path fill="#F7E1AB" d="M62.482,81.607c0.305-0.137,0.604-0.28,0.904-0.433C63.087,81.327,62.787,81.471,62.482,81.607z"/>
		<path fill="#F7E1AB" d="M67.667,78.457c0.176-0.133,0.365-0.258,0.534-0.396C68.032,78.199,67.843,78.324,67.667,78.457z"/>
		<path fill="#F7E1AB" d="M35.661,79.736c0.252,0.165,0.513,0.312,0.77,0.47C36.174,80.048,35.914,79.901,35.661,79.736z"/>
		<path fill="#F7E1AB" d="M56.903,83.524c0.331-0.074,0.655-0.168,0.981-0.251C57.559,83.356,57.23,83.45,56.903,83.524z"/>
		<path fill="#F7E1AB" d="M38.167,81.18c0.295,0.147,0.596,0.291,0.896,0.428C38.762,81.471,38.462,81.327,38.167,81.18z"/>
		<path fill="#F7E1AB" d="M40.837,82.365c0.319,0.124,0.64,0.238,0.961,0.35C41.477,82.604,41.156,82.489,40.837,82.365z"/>
		<path fill="#F7E1AB" d="M43.686,83.277c0.317,0.083,0.635,0.177,0.959,0.251C44.32,83.454,44.003,83.36,43.686,83.277z"/>
		<path fill="#F7E1AB" d="M46.748,83.902c0.283,0.041,0.563,0.096,0.85,0.128C47.311,83.998,47.03,83.943,46.748,83.902z"/>
		<path fill="#F7E1AB" d="M59.745,82.715c0.328-0.115,0.649-0.235,0.973-0.355C60.395,82.479,60.073,82.6,59.745,82.715z"/>
		<path fill="#F7E1AB" d="M65.105,80.206c0.265-0.158,0.521-0.305,0.775-0.47C65.627,79.901,65.366,80.048,65.105,80.206z"/>
		<path fill="#F7E1AB" d="M33.341,78.062c0.166,0.132,0.35,0.252,0.52,0.387C33.691,78.313,33.507,78.193,33.341,78.062z"/>
		<path fill="#F7E1AB" d="M53.95,84.03c0.299-0.036,0.6-0.091,0.899-0.139C54.55,83.939,54.249,83.994,53.95,84.03z"/>
		<path fill="#F7E1AB" d="M82.754,30.954c0.061-0.041,0.13-0.087,0.193-0.135"/>
		<path fill="#F7E1AB" d="M90.781,65.664c-0.077-0.02-0.152-0.048-0.229-0.07"/>
		<path fill="#F7E1AB" d="M18.867,30.843c0.063,0.05,0.12,0.111,0.176,0.165"/>
		<path fill="#F7E1AB" d="M33.065,93.148c-0.04,0.067-0.085,0.133-0.122,0.21"/>
		<path fill="#F7E1AB" d="M24.845,46.58c0.25-0.65,0.517-1.283,0.817-1.905c0.126-0.276,0.255-0.55,0.392-0.822
			c0.324-0.63,0.67-1.239,1.04-1.839c0.144-0.235,0.276-0.476,0.424-0.702c0.437-0.675,0.913-1.32,1.407-1.946
			c0.102-0.135,0.195-0.276,0.305-0.412c0.617-0.76,1.278-1.493,1.979-2.191c0.057-0.05,0.113-0.1,0.167-0.152
			c0.633-0.617,1.292-1.204,1.974-1.756c0.242-0.189,0.489-0.365,0.733-0.546c0.526-0.396,1.056-0.778,1.605-1.14
			c0.306-0.198,0.624-0.383,0.939-0.567c0.516-0.309,1.042-0.603,1.576-0.876c0.176-0.087,0.333-0.194,0.503-0.276
			c-0.009-0.017-0.018-0.041-0.022-0.061c-0.867-2.346-2.94-3.094-4.355-3.266c-1.411-0.173-4.212,0.835-8.805,2.925
			c-3.828,1.74-5.891,0.444-6.48-0.037c2.07,1.871,1.518,5.634,1.338,7.098c-0.355,2.815-1.011,3.206-1.029,6.878
			c-0.028,4.269,3.312,4.956,4.406,5.067c0.045-0.188,0.115-0.361,0.161-0.55c0.181-0.696,0.383-1.384,0.613-2.061
			C24.635,47.148,24.741,46.868,24.845,46.58z"/>
		<path fill="#F7E1AB" d="M42.061,30.11c0.618-0.204,1.25-0.374,1.886-0.535c0.309-0.079,0.608-0.172,0.924-0.237
			c0.678-0.146,1.366-0.248,2.057-0.346c0.286-0.042,0.568-0.1,0.86-0.132c0.979-0.103,1.974-0.164,2.982-0.164
			c1.019,0,2.022,0.061,3.01,0.168c0.337,0.037,0.666,0.106,0.997,0.152c0.645,0.095,1.292,0.193,1.924,0.332
			c0.382,0.083,0.753,0.189,1.131,0.285c0.567,0.148,1.128,0.305,1.683,0.49c0.384,0.124,0.753,0.267,1.127,0.411
			c0.534,0.202,1.061,0.419,1.576,0.65c0.172,0.078,0.353,0.135,0.518,0.213c0.177-0.332,2.118-4.244-0.77-6.243
			c-3.019-2.094-3.89-2.616-6.331-4.069c-2.34-1.39-4.563-2.668-4.747-5.334c-0.014,0.868-0.41,3.164-3.983,5.002
			c-4.488,2.307-7.01,3.875-7.754,5.097c-0.744,1.22-1.436,3.31-0.126,5.44c0,0.005,0,0.005,0,0.005
			c0.113-0.046,0.232-0.083,0.348-0.129c0.585-0.267,1.185-0.504,1.79-0.73C41.461,30.326,41.756,30.211,42.061,30.11z"/>
		<path fill="#F7E1AB" d="M68.201,78.062c-0.169,0.138-0.358,0.263-0.534,0.396c-0.577,0.447-1.171,0.876-1.786,1.279
			c-0.254,0.165-0.511,0.312-0.775,0.47c-0.562,0.341-1.134,0.67-1.719,0.969c-0.3,0.152-0.6,0.296-0.904,0.433
			c-0.578,0.272-1.164,0.522-1.765,0.752c-0.323,0.12-0.645,0.24-0.973,0.355c-0.609,0.209-1.231,0.394-1.86,0.559
			c-0.326,0.083-0.65,0.177-0.981,0.251c-0.68,0.151-1.362,0.267-2.054,0.367c-0.3,0.048-0.601,0.103-0.899,0.139
			c-0.845,0.098-1.705,0.148-2.575,0.165c-0.133,0-0.266,0.024-0.405,0.024c0,0.02,0,0.028-0.004,0.041
			c-0.25,2.492,1.287,4.075,2.48,4.85c1.2,0.78,4.159,1.094,9.201,1.226c4.023,0.104,5.38,2.019,5.758,2.784
			c-0.946-2.566,1.161-5.655,1.955-6.874c1.551-2.376,2.315-2.446,3.94-5.741c2.045-4.134-1.292-6.236-1.938-6.593
			c-0.009,0.01-0.021,0.02-0.033,0.032C71.104,75.459,69.715,76.833,68.201,78.062z"/>
		<path fill="#F7E1AB" d="M11.098,65.553c-0.115,0.015-0.226,0.037-0.341,0.063C10.756,65.616,10.885,65.608,11.098,65.553z"/>
		<path fill="#F7E1AB" d="M68.405,93.12c0.047,0.107,0.083,0.21,0.14,0.317C68.545,93.438,68.506,93.313,68.405,93.12z"/>
		<path fill="#F7E1AB" d="M26.629,70.144c-0.24-0.423-0.461-0.858-0.679-1.292c-0.213-0.426-0.426-0.845-0.618-1.277
			c-0.147-0.342-0.278-0.692-0.417-1.044c-0.169-0.438-0.339-0.886-0.487-1.338c-0.117-0.351-0.221-0.695-0.324-1.053
			c-0.137-0.482-0.263-0.968-0.378-1.461c-0.074-0.337-0.152-0.674-0.216-1.02c-0.108-0.559-0.187-1.123-0.261-1.689
			c-0.035-0.289-0.083-0.577-0.108-0.873c-0.083-0.865-0.135-1.743-0.135-2.633c0-1.012,0.061-2.012,0.165-2.994
			c0.024-0.202,0.065-0.398,0.094-0.597c0.102-0.777,0.215-1.55,0.383-2.306c0.008-0.047,0.008-0.092,0.023-0.138
			c-0.087-0.029-0.176-0.056-0.27-0.083c-2.383-0.767-4.253,0.406-5.263,1.413c-1.007,1.009-1.933,3.833-3.118,8.741
			c-0.943,3.918-3.092,4.84-3.923,5.053c2.709-0.397,5.289,2.32,6.311,3.346c2.005,2.02,1.907,2.767,4.791,5.05
			c3.363,2.669,5.981,0.408,6.721-0.369c-0.185-0.234-0.346-0.482-0.521-0.72c-0.261-0.354-0.527-0.705-0.774-1.074
			C27.268,71.251,26.946,70.7,26.629,70.144z"/>
		<path fill="#F7E1AB" d="M50.887,15.751c0.006-0.221-0.014-0.35-0.014-0.35C50.873,15.521,50.884,15.637,50.887,15.751z"/>
		<path fill="#F7E1AB" d="M86.278,59.771c-0.901-2.693-0.479-3.331-2.052-6.65c-1.939-4.104-5.55-2.908-6.335-2.595
			c0.004,0.023,0.004,0.042,0.008,0.061c0.177,0.808,0.305,1.629,0.406,2.459c0.019,0.152,0.056,0.301,0.07,0.453
			c0.106,0.972,0.161,1.963,0.161,2.966c0,0.89-0.051,1.772-0.135,2.64c-0.021,0.294-0.072,0.581-0.11,0.872
			c-0.072,0.565-0.152,1.134-0.263,1.692c-0.061,0.345-0.138,0.678-0.217,1.015c-0.114,0.498-0.234,0.987-0.378,1.473
			c-0.102,0.35-0.209,0.7-0.324,1.053c-0.152,0.449-0.317,0.894-0.488,1.337c-0.138,0.351-0.272,0.705-0.421,1.046
			c-0.188,0.431-0.4,0.851-0.608,1.271c-0.165,0.327-0.322,0.663-0.502,0.987c-0.37,0.679-0.771,1.333-1.193,1.969
			c-0.242,0.371-0.514,0.717-0.777,1.07c-0.185,0.25-0.355,0.51-0.543,0.753c0.032,0.037,0.069,0.065,0.099,0.102
			c1.801,1.749,3.993,1.518,5.344,1.066c1.353-0.457,3.442-2.579,6.671-6.45c2.695-3.225,5.116-2.949,5.861-2.765
			C87.879,64.806,86.745,61.165,86.278,59.771z"/>
		<path fill="#F7E1AB" d="M46.748,83.902c-0.709-0.103-1.412-0.223-2.103-0.374c-0.324-0.074-0.642-0.168-0.959-0.251
			c-0.637-0.165-1.27-0.35-1.888-0.562c-0.321-0.111-0.642-0.226-0.961-0.35c-0.604-0.231-1.194-0.485-1.775-0.758
			c-0.3-0.137-0.6-0.28-0.896-0.428c-0.596-0.304-1.172-0.633-1.735-0.974c-0.257-0.158-0.518-0.305-0.77-0.47
			c-0.617-0.403-1.213-0.836-1.8-1.288c-0.169-0.135-0.354-0.255-0.52-0.387c-1.514-1.229-2.899-2.599-4.125-4.113
			c-0.013-0.017-0.032-0.032-0.048-0.049c-2.103,1.351-2.374,3.538-2.239,4.956c0.132,1.42,1.735,3.929,4.775,7.962
			c2.522,3.35,1.705,5.652,1.362,6.331c1.374-2.423,5.175-2.705,6.636-2.842c2.829-0.268,3.351,0.285,6.946-0.494
			c4.446-0.961,4.088-4.779,3.957-5.593c-0.1,0-0.202-0.013-0.304-0.019c-0.91-0.014-1.814-0.068-2.704-0.171
			C47.311,83.998,47.03,83.943,46.748,83.902z"/>
		<path fill="#F7E1AB" d="M65.918,33.205c0.67,0.439,1.32,0.915,1.953,1.407c0.124,0.098,0.257,0.191,0.382,0.291
			c1.518,1.229,2.897,2.616,4.12,4.133c0.134,0.168,0.254,0.342,0.389,0.514c0.456,0.594,0.894,1.198,1.305,1.832
			c0.152,0.235,0.291,0.48,0.432,0.719c0.361,0.592,0.708,1.196,1.021,1.818c0.135,0.263,0.259,0.53,0.39,0.798
			c0.293,0.633,0.562,1.275,0.811,1.929c0.103,0.271,0.202,0.54,0.297,0.807c0.238,0.698,0.441,1.407,0.626,2.131
			c0.048,0.168,0.105,0.328,0.146,0.493c0.099-0.013,0.19-0.026,0.297-0.042c2.48-0.325,3.668-2.189,4.146-3.534
			c0.478-1.341,0.107-4.29-0.935-9.226c-0.863-4.112,0.853-5.845,1.458-6.322c-2.279,1.616-5.837,0.25-7.221-0.244
			c-2.671-0.961-2.906-1.685-6.493-2.507c-4.423-1.018-5.723,2.575-5.96,3.373c0.107,0.052,0.199,0.122,0.307,0.172
			c0.636,0.321,1.249,0.678,1.853,1.048C65.465,32.933,65.696,33.063,65.918,33.205z"/>
		<path fill="#F7E1AB" d="M36.431,80.206c0.563,0.341,1.14,0.67,1.735,0.974C37.571,80.876,36.995,80.547,36.431,80.206z"/>
		<path opacity="0.6" fill="#F7E1AB" d="M36.431,80.206c0.563,0.341,1.14,0.67,1.735,0.974
			C37.571,80.876,36.995,80.547,36.431,80.206z"/>
		<path fill="#F7E1AB" d="M33.861,78.448c0.587,0.452,1.183,0.885,1.8,1.288C35.044,79.333,34.448,78.9,33.861,78.448z"/>
		<path opacity="0.6" fill="#F7E1AB" d="M33.861,78.448c0.587,0.452,1.183,0.885,1.8,1.288C35.044,79.333,34.448,78.9,33.861,78.448
			z"/>
		<path fill="#F7E1AB" d="M24.915,66.53c0.14,0.352,0.27,0.702,0.417,1.044C25.185,67.232,25.054,66.882,24.915,66.53z"/>
		<path opacity="0.6" fill="#F7E1AB" d="M24.915,66.53c0.14,0.352,0.27,0.702,0.417,1.044C25.185,67.232,25.054,66.882,24.915,66.53
			z"/>
		<path fill="#F7E1AB" d="M25.95,68.852c0.218,0.434,0.439,0.869,0.679,1.292C26.383,69.725,26.167,69.285,25.95,68.852z"/>
		<path opacity="0.6" fill="#F7E1AB" d="M25.95,68.852c0.218,0.434,0.439,0.869,0.679,1.292
			C26.383,69.725,26.167,69.285,25.95,68.852z"/>
		<path fill="#F7E1AB" d="M28.399,72.859c-0.261-0.354-0.527-0.705-0.774-1.074C27.872,72.154,28.138,72.506,28.399,72.859z"/>
		<path opacity="0.6" fill="#F7E1AB" d="M28.399,72.859c-0.261-0.354-0.527-0.705-0.774-1.074
			C27.872,72.154,28.138,72.506,28.399,72.859z"/>
		<path fill="#F7E1AB" d="M23.141,59.097c0.026,0.296,0.074,0.584,0.108,0.873C23.214,59.681,23.167,59.393,23.141,59.097z"/>
		<path opacity="0.6" fill="#F7E1AB" d="M23.141,59.097c0.026,0.296,0.074,0.584,0.108,0.873
			C23.214,59.681,23.167,59.393,23.141,59.097z"/>
		<path fill="#F7E1AB" d="M24.104,64.14c0.103,0.357,0.207,0.702,0.324,1.053C24.31,64.847,24.206,64.497,24.104,64.14z"/>
		<path opacity="0.6" fill="#F7E1AB" d="M24.104,64.14c0.103,0.357,0.207,0.702,0.324,1.053
			C24.31,64.847,24.206,64.497,24.104,64.14z"/>
		<path fill="#F7E1AB" d="M23.647,50.567c-0.168,0.756-0.281,1.528-0.383,2.306C23.367,52.099,23.479,51.323,23.647,50.567z"/>
		<path opacity="0.6" fill="#F7E1AB" d="M23.647,50.567c-0.168,0.756-0.281,1.528-0.383,2.306
			C23.367,52.099,23.479,51.323,23.647,50.567z"/>
		<path fill="#F7E1AB" d="M29.229,38.954c0.617-0.76,1.278-1.493,1.979-2.191C30.508,37.46,29.847,38.193,29.229,38.954z"/>
		<path opacity="0.6" fill="#F7E1AB" d="M29.229,38.954c0.617-0.76,1.278-1.493,1.979-2.191
			C30.508,37.46,29.847,38.193,29.229,38.954z"/>
		<path fill="#F7E1AB" d="M39.062,81.607c0.581,0.272,1.17,0.526,1.775,0.758C40.232,82.134,39.643,81.88,39.062,81.607z"/>
		<path opacity="0.6" fill="#F7E1AB" d="M39.062,81.607c0.581,0.272,1.17,0.526,1.775,0.758
			C40.232,82.134,39.643,81.88,39.062,81.607z"/>
		<path fill="#F7E1AB" d="M23.51,61.659c0.063,0.346,0.142,0.683,0.216,1.02C23.652,62.342,23.573,62.005,23.51,61.659z"/>
		<path opacity="0.6" fill="#F7E1AB" d="M23.51,61.659c0.063,0.346,0.142,0.683,0.216,1.02
			C23.652,62.342,23.573,62.005,23.51,61.659z"/>
		<path fill="#F7E1AB" d="M23.171,53.47c-0.104,0.982-0.165,1.982-0.165,2.994C23.006,55.448,23.066,54.452,23.171,53.47z"/>
		<path opacity="0.6" fill="#F7E1AB" d="M23.171,53.47c-0.104,0.982-0.165,1.982-0.165,2.994
			C23.006,55.448,23.066,54.452,23.171,53.47z"/>
		<path fill="#F7E1AB" d="M23.919,49.501c0.181-0.696,0.383-1.388,0.613-2.061C24.302,48.117,24.1,48.805,23.919,49.501z"/>
		<path opacity="0.6" fill="#F7E1AB" d="M23.919,49.501c0.181-0.696,0.383-1.388,0.613-2.061
			C24.302,48.117,24.1,48.805,23.919,49.501z"/>
		<path fill="#F7E1AB" d="M65.881,79.736c0.615-0.403,1.209-0.832,1.786-1.279C67.09,78.904,66.496,79.333,65.881,79.736z"/>
		<path opacity="0.6" fill="#F7E1AB" d="M65.881,79.736c0.615-0.403,1.209-0.832,1.786-1.279
			C67.09,78.904,66.496,79.333,65.881,79.736z"/>
		<path fill="#F7E1AB" d="M68.201,78.062c1.514-1.229,2.903-2.603,4.129-4.117C71.104,75.459,69.715,76.833,68.201,78.062z"/>
		<path opacity="0.6" fill="#F7E1AB" d="M68.201,78.062c1.514-1.229,2.903-2.603,4.129-4.117
			C71.104,75.459,69.715,76.833,68.201,78.062z"/>
		<path fill="#F7E1AB" d="M63.387,81.175c0.585-0.299,1.157-0.628,1.719-0.969C64.548,80.547,63.972,80.876,63.387,81.175z"/>
		<path opacity="0.6" fill="#F7E1AB" d="M63.387,81.175c0.585-0.299,1.157-0.628,1.719-0.969
			C64.548,80.547,63.972,80.876,63.387,81.175z"/>
		<path fill="#F7E1AB" d="M73.12,72.888c0.264-0.354,0.535-0.699,0.777-1.07C73.655,72.188,73.384,72.534,73.12,72.888z"/>
		<path opacity="0.6" fill="#F7E1AB" d="M73.12,72.888c0.264-0.354,0.535-0.699,0.777-1.07
			C73.655,72.188,73.384,72.534,73.12,72.888z"/>
		<path fill="#F7E1AB" d="M60.718,82.359c0.601-0.229,1.187-0.479,1.765-0.752C61.904,81.88,61.318,82.13,60.718,82.359z"/>
		<path opacity="0.6" fill="#F7E1AB" d="M60.718,82.359c0.601-0.229,1.187-0.479,1.765-0.752
			C61.904,81.88,61.318,82.13,60.718,82.359z"/>
		<path fill="#F7E1AB" d="M25.663,44.675c-0.3,0.622-0.567,1.254-0.817,1.905C25.095,45.935,25.367,45.297,25.663,44.675z"/>
		<path opacity="0.6" fill="#F7E1AB" d="M25.663,44.675c-0.3,0.622-0.567,1.254-0.817,1.905
			C25.095,45.935,25.367,45.297,25.663,44.675z"/>
		<path fill="#F7E1AB" d="M41.798,82.715c0.618,0.213,1.25,0.397,1.888,0.562C43.048,83.112,42.416,82.928,41.798,82.715z"/>
		<path opacity="0.6" fill="#F7E1AB" d="M41.798,82.715c0.618,0.213,1.25,0.397,1.888,0.562
			C43.048,83.112,42.416,82.928,41.798,82.715z"/>
		<path fill="#F7E1AB" d="M33.341,78.062c-1.514-1.225-2.899-2.599-4.125-4.113C30.442,75.463,31.828,76.833,33.341,78.062z"/>
		<path opacity="0.6" fill="#F7E1AB" d="M33.341,78.062c-1.514-1.225-2.899-2.599-4.125-4.113
			C30.442,75.463,31.828,76.833,33.341,78.062z"/>
		<path fill="#F7E1AB" d="M44.645,83.528c0.691,0.151,1.394,0.271,2.103,0.374C46.038,83.8,45.336,83.68,44.645,83.528z"/>
		<path opacity="0.6" fill="#F7E1AB" d="M44.645,83.528c0.691,0.151,1.394,0.271,2.103,0.374
			C46.038,83.8,45.336,83.68,44.645,83.528z"/>
		<path fill="#F7E1AB" d="M50.301,84.201c-0.91-0.014-1.814-0.068-2.704-0.171C48.486,84.133,49.391,84.188,50.301,84.201z"/>
		<path opacity="0.6" fill="#F7E1AB" d="M50.301,84.201c-0.91-0.014-1.814-0.068-2.704-0.171
			C48.486,84.133,49.391,84.188,50.301,84.201z"/>
		<path fill="#F7E1AB" d="M54.85,83.892c0.691-0.101,1.374-0.216,2.054-0.367C56.224,83.676,55.541,83.791,54.85,83.892z"/>
		<path opacity="0.6" fill="#F7E1AB" d="M54.85,83.892c0.691-0.101,1.374-0.216,2.054-0.367
			C56.224,83.676,55.541,83.791,54.85,83.892z"/>
		<path fill="#F7E1AB" d="M51.375,84.195c0.87-0.017,1.73-0.067,2.575-0.165C53.105,84.128,52.245,84.179,51.375,84.195z"/>
		<path opacity="0.6" fill="#F7E1AB" d="M51.375,84.195c0.87-0.017,1.73-0.067,2.575-0.165
			C53.105,84.128,52.245,84.179,51.375,84.195z"/>
		<path fill="#F7E1AB" d="M57.885,83.273c0.629-0.165,1.251-0.35,1.86-0.559C59.136,82.924,58.514,83.108,57.885,83.273z"/>
		<path opacity="0.6" fill="#F7E1AB" d="M57.885,83.273c0.629-0.165,1.251-0.35,1.86-0.559
			C59.136,82.924,58.514,83.108,57.885,83.273z"/>
		<path fill="#F7E1AB" d="M77.642,49.583c-0.185-0.724-0.388-1.433-0.626-2.131C77.254,48.151,77.463,48.859,77.642,49.583z"/>
		<path opacity="0.6" fill="#F7E1AB" d="M77.642,49.583c-0.185-0.724-0.388-1.433-0.626-2.131
			C77.254,48.151,77.463,48.859,77.642,49.583z"/>
		<path fill="#F7E1AB" d="M75.519,43.919c-0.312-0.622-0.659-1.226-1.021-1.818C74.859,42.693,75.206,43.297,75.519,43.919z"/>
		<path opacity="0.6" fill="#F7E1AB" d="M75.519,43.919c-0.312-0.622-0.659-1.226-1.021-1.818
			C74.859,42.693,75.206,43.297,75.519,43.919z"/>
		<path fill="#F7E1AB" d="M74.066,41.381c-0.411-0.634-0.849-1.238-1.305-1.832C73.212,40.144,73.655,40.748,74.066,41.381z"/>
		<path opacity="0.6" fill="#F7E1AB" d="M74.066,41.381c-0.411-0.634-0.849-1.238-1.305-1.832
			C73.212,40.144,73.655,40.748,74.066,41.381z"/>
		<path fill="#F7E1AB" d="M75.593,68.861c-0.17,0.327-0.322,0.663-0.502,0.987C75.271,69.524,75.428,69.188,75.593,68.861z"/>
		<path opacity="0.6" fill="#F7E1AB" d="M75.593,68.861c-0.17,0.327-0.322,0.663-0.502,0.987
			C75.271,69.524,75.428,69.188,75.593,68.861z"/>
		<path fill="#F7E1AB" d="M76.719,46.646c-0.249-0.654-0.518-1.296-0.811-1.929C76.201,45.35,76.47,45.992,76.719,46.646z"/>
		<path opacity="0.6" fill="#F7E1AB" d="M76.719,46.646c-0.249-0.654-0.518-1.296-0.811-1.929
			C76.201,45.35,76.47,45.992,76.719,46.646z"/>
		<path fill="#F7E1AB" d="M67.871,34.612c-0.633-0.492-1.283-0.968-1.953-1.407C66.588,33.644,67.238,34.12,67.871,34.612z"/>
		<path opacity="0.6" fill="#F7E1AB" d="M67.871,34.612c-0.633-0.492-1.283-0.968-1.953-1.407
			C66.588,33.644,67.238,34.12,67.871,34.612z"/>
		<path fill="#F7E1AB" d="M68.253,34.903c1.518,1.229,2.897,2.616,4.12,4.133C71.15,37.519,69.771,36.132,68.253,34.903z"/>
		<path opacity="0.6" fill="#F7E1AB" d="M68.253,34.903c1.518,1.229,2.897,2.616,4.12,4.133
			C71.15,37.519,69.771,36.132,68.253,34.903z"/>
		<path fill="#F7E1AB" d="M77.899,50.586c0.177,0.808,0.305,1.629,0.406,2.459C78.204,52.215,78.076,51.394,77.899,50.586z"/>
		<path opacity="0.6" fill="#F7E1AB" d="M77.899,50.586c0.177,0.808,0.305,1.629,0.406,2.459
			C78.204,52.215,78.076,51.394,77.899,50.586z"/>
		<path fill="#F7E1AB" d="M78.402,59.104c-0.021,0.294-0.072,0.581-0.11,0.872C78.33,59.685,78.381,59.397,78.402,59.104z"/>
		<path opacity="0.6" fill="#F7E1AB" d="M78.402,59.104c-0.021,0.294-0.072,0.581-0.11,0.872
			C78.33,59.685,78.381,59.397,78.402,59.104z"/>
		<path fill="#F7E1AB" d="M78.376,53.498c0.106,0.972,0.161,1.963,0.161,2.966C78.537,55.461,78.482,54.47,78.376,53.498z"/>
		<path opacity="0.6" fill="#F7E1AB" d="M78.376,53.498c0.106,0.972,0.161,1.963,0.161,2.966
			C78.537,55.461,78.482,54.47,78.376,53.498z"/>
		<path fill="#F7E1AB" d="M76.622,66.545c-0.138,0.351-0.272,0.705-0.421,1.046C76.35,67.25,76.484,66.896,76.622,66.545z"/>
		<path opacity="0.6" fill="#F7E1AB" d="M76.622,66.545c-0.138,0.351-0.272,0.705-0.421,1.046
			C76.35,67.25,76.484,66.896,76.622,66.545z"/>
		<path fill="#F7E1AB" d="M63.387,31.748c0.636,0.321,1.249,0.678,1.853,1.048C64.636,32.426,64.022,32.069,63.387,31.748z"/>
		<path opacity="0.6" fill="#F7E1AB" d="M63.387,31.748c0.636,0.321,1.249,0.678,1.853,1.048
			C64.636,32.426,64.022,32.069,63.387,31.748z"/>
		<path fill="#F7E1AB" d="M78.029,61.668c-0.061,0.345-0.138,0.678-0.217,1.015C77.892,62.346,77.969,62.013,78.029,61.668z"/>
		<path opacity="0.6" fill="#F7E1AB" d="M78.029,61.668c-0.061,0.345-0.138,0.678-0.217,1.015
			C77.892,62.346,77.969,62.013,78.029,61.668z"/>
		<path fill="#F7E1AB" d="M27.094,42.014c-0.37,0.601-0.715,1.209-1.04,1.839C26.378,43.223,26.724,42.614,27.094,42.014z"/>
		<path opacity="0.6" fill="#F7E1AB" d="M27.094,42.014c-0.37,0.601-0.715,1.209-1.04,1.839
			C26.378,43.223,26.724,42.614,27.094,42.014z"/>
		<path fill="#F7E1AB" d="M77.435,64.155c-0.102,0.35-0.209,0.7-0.324,1.053C77.226,64.855,77.333,64.505,77.435,64.155z"/>
		<path opacity="0.6" fill="#F7E1AB" d="M77.435,64.155c-0.102,0.35-0.209,0.7-0.324,1.053
			C77.226,64.855,77.333,64.505,77.435,64.155z"/>
		<path fill="#F7E1AB" d="M38.203,31.724c-0.535,0.273-1.061,0.567-1.576,0.876C37.143,32.292,37.668,31.998,38.203,31.724z"/>
		<path opacity="0.6" fill="#F7E1AB" d="M38.203,31.724c-0.535,0.273-1.061,0.567-1.576,0.876
			C37.143,32.292,37.668,31.998,38.203,31.724z"/>
		<path fill="#F7E1AB" d="M43.947,29.576c-0.635,0.161-1.268,0.331-1.886,0.535C42.679,29.906,43.312,29.736,43.947,29.576z"/>
		<path opacity="0.6" fill="#F7E1AB" d="M43.947,29.576c-0.635,0.161-1.268,0.331-1.886,0.535
			C42.679,29.906,43.312,29.736,43.947,29.576z"/>
		<path fill="#F7E1AB" d="M39.371,31.167c0.581-0.267,1.185-0.504,1.79-0.73C40.556,30.663,39.956,30.9,39.371,31.167z"/>
		<path opacity="0.6" fill="#F7E1AB" d="M39.371,31.167c0.581-0.267,1.185-0.504,1.79-0.73C40.556,30.663,39.956,30.9,39.371,31.167
			z"/>
		<path fill="#F7E1AB" d="M35.688,33.168c-0.549,0.361-1.079,0.744-1.605,1.14C34.609,33.912,35.139,33.529,35.688,33.168z"/>
		<path opacity="0.6" fill="#F7E1AB" d="M35.688,33.168c-0.549,0.361-1.079,0.744-1.605,1.14
			C34.609,33.912,35.139,33.529,35.688,33.168z"/>
		<path fill="#F7E1AB" d="M28.925,39.365c-0.494,0.626-0.97,1.271-1.407,1.946C27.955,40.637,28.431,39.991,28.925,39.365z"/>
		<path opacity="0.6" fill="#F7E1AB" d="M28.925,39.365c-0.494,0.626-0.97,1.271-1.407,1.946
			C27.955,40.637,28.431,39.991,28.925,39.365z"/>
		<path fill="#F7E1AB" d="M62.217,31.185c-0.516-0.23-1.042-0.448-1.576-0.65C61.175,30.737,61.701,30.954,62.217,31.185z"/>
		<path opacity="0.6" fill="#F7E1AB" d="M62.217,31.185c-0.516-0.23-1.042-0.448-1.576-0.65
			C61.175,30.737,61.701,30.954,62.217,31.185z"/>
		<path fill="#F7E1AB" d="M33.35,34.854c-0.683,0.552-1.341,1.14-1.974,1.756C32.008,35.993,32.667,35.406,33.35,34.854z"/>
		<path opacity="0.6" fill="#F7E1AB" d="M33.35,34.854c-0.683,0.552-1.341,1.14-1.974,1.756
			C32.008,35.993,32.667,35.406,33.35,34.854z"/>
		<path fill="#F7E1AB" d="M56.7,29.349c-0.632-0.139-1.279-0.237-1.924-0.332C55.421,29.112,56.068,29.21,56.7,29.349z"/>
		<path opacity="0.6" fill="#F7E1AB" d="M56.7,29.349c-0.632-0.139-1.279-0.237-1.924-0.332C55.421,29.112,56.068,29.21,56.7,29.349
			z"/>
		<path fill="#F7E1AB" d="M59.514,30.124c-0.555-0.185-1.115-0.341-1.683-0.49C58.398,29.782,58.959,29.938,59.514,30.124z"/>
		<path opacity="0.6" fill="#F7E1AB" d="M59.514,30.124c-0.555-0.185-1.115-0.341-1.683-0.49
			C58.398,29.782,58.959,29.938,59.514,30.124z"/>
		<path fill="#F7E1AB" d="M50.77,28.697c-1.008,0-2.004,0.061-2.982,0.164C48.766,28.758,49.761,28.697,50.77,28.697z"/>
		<path opacity="0.6" fill="#F7E1AB" d="M50.77,28.697c-1.008,0-2.004,0.061-2.982,0.164C48.766,28.758,49.761,28.697,50.77,28.697z
			"/>
		<path fill="#F7E1AB" d="M53.779,28.865c-0.987-0.107-1.991-0.168-3.01-0.168C51.788,28.697,52.792,28.758,53.779,28.865z"/>
		<path opacity="0.6" fill="#F7E1AB" d="M53.779,28.865c-0.987-0.107-1.991-0.168-3.01-0.168
			C51.788,28.697,52.792,28.758,53.779,28.865z"/>
		<path fill="#F7E1AB" d="M46.927,28.993c-0.691,0.098-1.378,0.2-2.057,0.346C45.549,29.192,46.236,29.091,46.927,28.993z"/>
		<path opacity="0.6" fill="#F7E1AB" d="M46.927,28.993c-0.691,0.098-1.378,0.2-2.057,0.346
			C45.549,29.192,46.236,29.091,46.927,28.993z"/>
	</g>
	<g>
		<path fill="#696762" d="M63.663,43.541c-0.044,0.752-0.078,1.505-0.104,2.258c-0.057,0.111-0.148,0.196-0.272,0.25
			c-0.126,0.057-0.229,0.098-0.314,0.126l-0.377-0.253c-0.056-0.277-0.104-0.578-0.145-0.898c-0.041-0.319-0.12-0.62-0.231-0.899
			v0.041c-0.057-0.304-0.167-0.5-0.334-0.584c-0.168-0.083-0.393-0.14-0.67-0.168c-1.449-0.025-2.905-0.006-4.371,0.063
			c-1.464,0.07-2.921,0.104-4.37,0.104c-0.056,3.068-0.091,6.115-0.104,9.139c-0.013,3.027-0.007,6.059,0.021,9.099
			c0,1.45,0,2.898,0,4.35c0,1.45,0.027,2.886,0.083,4.308c0.056,0.781,0.341,1.457,0.858,2.029c0.515,0.571,1.177,0.844,1.984,0.815
			l0.336,0.125l0.041,0.418l-0.377,0.21h-6.481c-0.53-0.027-1.068-0.027-1.611,0c-0.544,0.026-1.081,0.014-1.609-0.042
			c-0.113,0-0.195-0.076-0.252-0.23c-0.054-0.152-0.097-0.257-0.124-0.313l0.376-0.208c0.752,0,1.4-0.279,1.944-0.838
			c0.543-0.557,0.815-1.213,0.815-1.966c0-4.488,0-8.964,0-13.425c0-4.464-0.013-8.938-0.041-13.428
			c-2.955,0-5.897-0.042-8.824-0.124c-0.837,0-1.675,0.111-2.512,0.334c-0.835,0.222-1.574,0.641-2.216,1.254l-0.335,0.083
			l-0.417-0.249l0.041-0.421c0.556-0.556,1.101-1.106,1.631-1.649c0.53-0.545,1.059-1.096,1.589-1.653l0.335-0.084
			c5.8,0.223,11.614,0.265,17.442,0.125c1.421-0.028,2.815-0.076,4.182-0.146c1.367-0.07,2.745-0.119,4.142-0.147
			c0.14,0,0.229,0.036,0.272,0.105c0.042,0.071,0.09,0.147,0.146,0.229C63.753,42.036,63.705,42.788,63.663,43.541z"/>
	</g>
</g>
</svg>
