<?xml version="1.0" encoding="utf-8"?>
<!-- Generator: Adobe Illustrator 14.0.0, SVG Export Plug-In . SVG Version: 6.00 Build 43363)  -->
<!DOCTYPE svg PUBLIC "-//W3C//DTD SVG 1.1//EN" "http://www.w3.org/Graphics/SVG/1.1/DTD/svg11.dtd">
<svg version="1.1" id="Layer_1" xmlns="http://www.w3.org/2000/svg" xmlns:xlink="http://www.w3.org/1999/xlink" x="0px" y="0px"
	 width="150px" height="150px" viewBox="0 0 150 150" enable-background="new 0 0 150 150" xml:space="preserve">
<g>
	<path fill="none" d="M70.87,58.196c-0.373,0.194-1.194,0.572-1.206,0.554c0.003,0.031,0.873-0.36,1.24-0.551
		c0.321,0.037,0.668,0.089,1.032,0.176c0.101,0.021,0.203,0.043,0.307,0.07c-0.497,0.309-1.672,0.994-1.688,0.987
		c0,0.027,1.221-0.669,1.711-0.973c0.003-0.002,0.006-0.006,0.006-0.006c0.812,0.202,1.652,0.498,2.377,0.806
		c-0.499,0.307-1.783,0.847-1.805,0.821c0.004,0.048,1.321-0.494,1.826-0.803c0,0,0.003-0.003,0.006-0.006
		c0.54,0.233,1.016,0.47,1.369,0.681c0.013,0.006,0.022,0.009,0.028,0.015c-0.016,0.003-0.034,0.009-0.054,0.016
		c-0.758,0.255-1.803,0.675-2.86,1.241c-0.472-0.113-1.278-0.258-1.974-0.307c-0.703-0.063-1.284,0.025-1.302,0.041
		c0,0,0.582-0.082,1.287-0.012c0.679,0.052,1.457,0.196,1.932,0.306c-0.542,0.293-1.09,0.627-1.608,0.987
		c-0.656-0.047-2.129-0.082-2.138-0.047c-0.015-0.02,1.43,0.023,2.105,0.072c-0.309,0.218-0.606,0.448-0.881,0.694
		c-0.068,0.055-0.134,0.109-0.198,0.166c-0.452,0.012-1.402,0.158-1.45,0.216c0.051-0.046,0.973-0.183,1.429-0.197
		c-0.35,0.312-0.66,0.629-0.927,0.936c-0.269,0.081-0.795,0.235-0.804,0.244c0,0,0.514-0.148,0.789-0.229
		c-0.899,1.042-1.326,1.937-1.309,1.905c0.034,0.005,0.867-1.639,2.557-3.005c0.416-0.347,0.87-0.674,1.341-0.974
		c-0.014,0.775-0.281,2.5-0.381,2.486c0.109,0.049,0.407-1.741,0.415-2.505c1.411-0.891,2.977-1.547,4.019-1.899
		c0.019-0.006,0.037-0.012,0.045-0.018l-0.002,0.015c-0.091,0.367-0.255,0.831-0.452,1.331c-0.005,0-0.015,0-0.023,0.006
		c-0.606,0.174-1.918,0.862-1.954,0.969c0.044-0.091,1.362-0.77,1.962-0.945l0.002-0.003c-0.257,0.647-0.578,1.347-0.893,1.974
		c-0.558,1.135-1.199,1.968-1.21,1.977c0.003,0.031,0.667-0.793,1.243-1.932c0.037-0.069,0.075-0.142,0.112-0.216
		c0.224,0.383,0.622,1.243,0.602,1.257c0.034,0-0.368-0.899-0.593-1.274c0.285-0.563,0.563-1.174,0.797-1.737
		c0.274,0.454,0.855,1.498,0.847,1.515c0.03,0-0.563-1.095-0.838-1.543c0.208-0.512,0.375-0.983,0.469-1.359
		c0.006-0.028,0.008-0.046,0.006-0.061c0.233,0.134,0.479,0.361,0.718,0.64c-0.054,0.482-0.049,1.604,0.004,1.665
		c-0.041-0.061-0.037-1.157,0.015-1.641c0.795,0.938,1.508,2.404,1.575,2.447c-0.04-0.049-0.331-0.648-0.736-1.321
		c0.279,0.076,0.902,0.228,0.902,0.228s-0.639-0.17-0.915-0.243c-0.172-0.289-0.369-0.588-0.572-0.864
		c0.627,0.006,2.096,0.015,2.105,0.009c0.015-0.009-1.497-0.03-2.119-0.033h-0.006c-0.307-0.407-0.631-0.754-0.945-0.93
		c-0.009-0.002-0.018-0.009-0.023-0.009c0.006-0.002,0.017-0.005,0.026-0.014c0.378-0.268,0.956-0.806,1.335-1.364
		c0.393-0.546,0.549-1.086,0.551-1.093c-0.006-0.015-0.169,0.524-0.566,1.069c-0.377,0.547-0.954,1.081-1.329,1.344
		c0.004-0.006,0.004-0.009,0.004-0.015c0.03-0.384,0.012-0.942-0.11-1.508l0.007-0.006c0.444-0.352,1.242-1.436,1.232-1.451
		c0.01-0.009-0.803,1.081-1.241,1.433c-0.085-0.378-0.215-0.762-0.41-1.1c0.169-0.352,0.573-1.179,0.576-1.181
		c-0.003-0.012-0.412,0.809-0.585,1.16c-0.035-0.055-0.069-0.112-0.107-0.167c-0.134-0.217-0.283-0.413-0.427-0.575v-0.009
		c-0.031-0.349-0.106-1.188-0.116-1.196c0,0,0.069,0.83,0.101,1.188c-0.436-0.5-0.849-0.761-0.849-0.769
		c-0.027,0.006,0.47,0.333,0.948,0.94c-0.405,0.071-1.341,0.023-1.341-0.023c-0.018,0.055,0.954,0.112,1.353,0.042
		c0.098,0.124,0.194,0.26,0.286,0.405c0.579,0.867,0.679,2.102,0.625,2.802c-0.01-0.013-0.026-0.024-0.05-0.04
		c-0.596-0.358-1.517-0.774-2.507-1.115c-0.185-0.604-0.951-1.841-1.063-1.868c0.097,0.039,0.84,1.251,1.033,1.859
		c-0.433-0.145-0.875-0.272-1.311-0.375c-0.082-0.354-0.537-1.014-0.604-1.021c0.058,0.012,0.503,0.664,0.588,1.017
		c-0.085-0.02-0.17-0.04-0.254-0.057c-1.517-0.345-2.813-0.157-2.823-0.148C69.132,58.187,69.861,58.086,70.87,58.196z"/>
	<path fill="none" d="M75.071,62.709c-0.003-0.006-0.009-0.009-0.022-0.006c-0.425,0.118-1.384,0.505-1.419,0.572
		c0.043-0.058,1.003-0.439,1.423-0.551C75.068,62.717,75.071,62.709,75.071,62.709z"/>
	<path fill="none" d="M77.359,66.74l0.008-0.009c-0.055-0.017-0.087-0.031-0.098-0.04C77.276,66.706,77.307,66.723,77.359,66.74z"/>
	<path fill="none" d="M74.305,64.226c0-0.003-0.01-0.006-0.016-0.003c-0.317,0.067-1.018,0.382-1.038,0.423
		c0.029-0.033,0.726-0.345,1.041-0.411C74.305,64.232,74.305,64.226,74.305,64.226z"/>
	<path fill="none" d="M87.523,69.48c-0.031,0.006-0.033,0.024-0.033,0.024c0.002,0.009,0.014,0.016,0.039,0.009
		c0.803-0.333,2.74,0.167,2.734,0.188C90.31,69.671,88.336,69.145,87.523,69.48z"/>
	<path fill="none" d="M88.979,70.846c-0.012,0-0.014,0.002-0.019,0.014c0,0,0.007,0,0.019,0.006c0.364-0.012,1.232,0,1.237,0.012
		C90.229,70.86,89.344,70.839,88.979,70.846z"/>
	<path fill="none" d="M30.989,81.447c-0.518,0.023-1.063,0.093-1.517,0.188c-0.454,0.097-0.814,0.215-0.989,0.274
		c-0.803,0.267-1.578,0.681-2.259,1.242c-0.682,0.556-1.263,1.25-1.693,2.047c-0.214,0.396-0.394,0.815-0.526,1.247
		c-0.134,0.438-0.216,0.893-0.237,1.355c-0.049,0.92,0.142,1.856,0.544,2.683c0.404,0.824,1.019,1.54,1.759,2.055
		c0.737,0.508,1.594,0.816,2.448,0.876c0.854,0.062,1.684-0.173,2.326-0.604c0.648-0.429,1.112-1.048,1.312-1.686
		c0.09-0.275,0.131-0.568,0.142-0.852c-0.014-0.704-0.225-1.396-0.621-1.965c-0.408-0.591-1.009-1.034-1.688-1.232
		c-0.62-0.187-1.316-0.068-1.85,0.298c-0.269,0.184-0.491,0.423-0.653,0.704c-0.043,0.071-0.08,0.139-0.115,0.216
		c-0.031,0.065-0.058,0.14-0.079,0.21c-0.045,0.136-0.072,0.284-0.077,0.438c-0.006,0.145,0.004,0.337,0.052,0.548
		c0.052,0.208,0.146,0.428,0.257,0.632c0.119,0.204,0.255,0.387,0.367,0.547c0.113,0.163,0.191,0.305,0.161,0.432
		c-0.045,0.207-0.202,0.325-0.464,0.325c-0.258,0-0.607-0.124-0.935-0.391c-0.325-0.26-0.606-0.664-0.764-1.105
		c-0.16-0.444-0.194-0.923-0.139-1.312c0.03-0.219,0.083-0.436,0.161-0.639c0.078-0.208,0.166-0.379,0.275-0.557
		c0.216-0.35,0.488-0.65,0.803-0.891c0.663-0.511,1.49-0.738,2.259-0.683c0.387,0.029,0.76,0.125,1.099,0.283
		c0.216,0.095,0.418,0.219,0.612,0.35c-0.009-0.118,0-0.237,0.035-0.343c0.077-0.24,0.274-0.465,0.622-0.577
		c0.346-0.112,0.849-0.106,1.409,0.15c0.378,0.172,0.738,0.444,1.056,0.78c-0.012-0.044-0.027-0.085-0.036-0.129
		c-0.13-0.56-0.194-1.156-0.2-1.659c-0.004-0.507,0.042-0.917,0.067-1.133c0.09-0.771,0.29-1.529,0.583-2.248
		c-0.618,0.074-1.245,0.102-1.877,0.092C32.269,81.466,31.654,81.408,30.989,81.447z"/>
	<path fill="none" d="M86.07,68.002c0.003,0.012,0.02,0.021,0.057,0.018c1.162-0.167,3.992,0.035,3.985,0.157
		c0.056-0.139-2.816-0.381-3.995-0.209C86.076,67.975,86.067,67.99,86.07,68.002z"/>
	<path fill="none" d="M44.86,74.21c-0.394,0.763-0.859,1.5-1.419,2.192c0.757,0.195,1.483,0.515,2.141,0.949
		c0.03,0.018,0.057,0.044,0.084,0.062c0.163-0.526,0.251-1.036,0.17-1.497C45.732,75.331,45.339,74.77,44.86,74.21z"/>
	<path fill="none" d="M83.983,52.45c-0.157,0.045-0.229,0.324-0.202,0.588c0.329,0.024,0.733-0.098,0.762-0.3
		C84.647,52.574,84.205,52.368,83.983,52.45z"/>
	<path fill="none" d="M37.728,78.171c-0.572,0.39-1.084,0.869-1.529,1.407c0.459-0.109,0.914-0.242,1.359-0.408
		c1.397-0.503,2.702-1.254,3.843-2.206c-0.457,0.003-0.917,0.054-1.374,0.153C39.21,77.308,38.43,77.68,37.728,78.171z"/>
	<path fill="none" d="M95.021,54.41c0.234-0.014,0.511,0.041,0.665,0.356c0.069,0.206,0.045,0.375-0.029,0.558
		c-0.064,0.182-0.321,0.357-0.553,0.278c-0.349-0.148-0.424-0.445-0.433-0.699c-0.086,0.037-0.165,0.088-0.222,0.14
		c0.372,0.579,0.612,1.142,0.719,1.553c0.169,0.687,0.309,2.806-0.89,4.278c1.149,1.58,2.061,3.25,2.652,4.976
		c0.638,1.838,0.947,3.725,0.953,5.614c-0.006,1.892-0.312,3.779-0.953,5.616c-0.631,1.837-1.59,3.617-2.853,5.288
		c1.034-1.739,1.829-3.534,2.371-5.356c0.532-1.827,0.807-3.687,0.802-5.547c0.005-1.859-0.27-3.715-0.802-5.541
		c-0.509-1.711-1.256-3.388-2.198-5.022c-0.62,0.744-1.564,1.33-3.08,1.444c-1.782,0.133-3.658-1.22-3.965-2.78
		c-0.307-1.562,1.408-2.301,2.208-2.205l-0.007,0.182c-0.724-0.084-2.284,0.584-2.012,1.991c0.271,1.401,1.964,2.61,3.585,2.479
		c4.09-0.324,3.969-4.279,3.745-5.215c-0.388-1.607-2.568-4.843-6.829-3.83c-6.112,1.453-6.587,7.282-8.278,11.897
		c-0.015,0.052-0.034,0.106-0.053,0.158c-0.141-0.164-0.331-0.251-0.513-0.343c0.007-0.024,0.013-0.042,0.021-0.067
		c0.373-1.02,0.678-2.11,1.012-3.21c0.17-0.036,0.339-0.079,0.485-0.124c-0.114-0.122-0.229-0.229-0.347-0.33
		c1.133-3.665,2.661-7.316,7.777-8.555c3.048-0.736,5.109,0.79,6.226,2.328c0.138-0.105,0.305-0.203,0.505-0.26
		c0.161-0.462,0.541-0.703,0.808-0.859c-4.939-5.729-12.232-9.378-20.375-9.378c-14.839,0-26.91,12.076-26.91,26.909
		c0,3.638,0.723,7.098,2.032,10.26c0.439,1.067,0.954,2.105,1.523,3.1c1.26,2.188,2.817,4.191,4.615,5.938
		c0.563,0.548,1.152,1.073,1.76,1.57c1.303,1.064,2.705,2.009,4.195,2.816c1.005,0.546,2.052,1.022,3.133,1.44
		c2.999,1.155,6.252,1.798,9.652,1.798c14.844,0,26.917-12.076,26.917-26.923c0-6.641-2.433-12.719-6.439-17.418
		C95.434,53.869,95.157,54.098,95.021,54.41z M82.248,51.802c0.194,0.333,0.51,0.815,0.967,1.066
		c0.015-0.349,0.141-0.748,0.623-0.93c0.318-0.069,0.563-0.012,0.818,0.13c0.26,0.121,0.484,0.523,0.332,0.849
		c-0.127,0.321-0.436,0.457-0.675,0.509c-0.139,0.027-0.281,0.039-0.424,0.033c0.069,0.176,0.166,0.33,0.261,0.451
		c0.038,0.046-0.04,0.155-0.158,0.265c-0.119,0.108-0.229,0.178-0.293,0.102c-0.194-0.248-0.375-0.572-0.45-0.974
		c-0.72-0.331-1.025-1.023-1.213-1.436c-0.212-0.518-0.261-0.857-0.221-0.854C81.854,51.005,81.981,51.329,82.248,51.802z
		 M50.988,77.082c-0.321-0.917-0.542-1.851-0.708-2.789c-0.154-0.938-0.226-1.886-0.237-2.824c0.011-0.95,0.083-1.895,0.237-2.831
		c0.167-0.939,0.387-1.875,0.712-2.789c0.625-1.839,1.564-3.626,2.836-5.285c-0.908,1.766-1.634,3.561-2.116,5.387
		c-0.233,0.913-0.43,1.827-0.542,2.748c-0.118,0.92-0.185,1.847-0.178,2.764c-0.007,0.929,0.057,1.846,0.181,2.768
		c0.112,0.923,0.309,1.837,0.542,2.751c0.482,1.821,1.205,3.616,2.113,5.385C52.557,80.702,51.618,78.922,50.988,77.082z
		 M53.535,77.011c0.542,1.825,1.336,3.617,2.372,5.356c-1.26-1.671-2.22-3.451-2.853-5.288c-0.638-1.836-0.947-3.724-0.951-5.616
		c0.003-1.889,0.312-3.775,0.951-5.614c0.633-1.835,1.593-3.617,2.853-5.285c-1.038,1.739-1.829,3.532-2.372,5.358
		c-0.532,1.826-0.808,3.682-0.802,5.541C52.73,73.324,53.005,75.184,53.535,77.011z M68.298,57.712
		c0.476-0.201,0.955-0.268,1.43-0.301l0.106-0.279c0.003,0.011,0.633,0.055,0.633,0.055l0.489,0.297l0.223-0.127l-0.341-0.373
		l0.717-0.157l0.087-0.64l1.52,0.446l0.346,0.417l0.367-0.024l0.417,1.104l0.552,0.283l0.145-0.3l-0.547-0.312l-0.439-0.854
		l-0.43-0.154l-0.286-0.969l0.254-0.167c0,0-0.263-0.621-0.638-0.663c1.112-0.221,1.839,0.339,1.839,0.339s0.258-0.379,0.278-0.407
		c-0.023,0.04,0.523,0.404,0.523,0.404l0.407-0.343l0.483,0.827l0.276-0.269l0.845,0.87l0.161-0.292c0,0,0.631,0.404,0.723,1.021
		c0.268-0.13,0.468-0.312,0.468-0.312s0.405,0.623,0.317,1.021c0,0,0.154-0.098,0.417-0.034c-0.048,0.373-0.866,0.873-0.866,0.873
		s0.198,0.127,0.213,0.333c-1.031,0.63-1.678,0.884-1.678,0.884l0.058,0.112c1.39,0.095,2.201,0.373,2.857,0.927
		c-0.044,0.151-0.09,0.3-0.139,0.451c-0.428,0.087-0.853,0.139-0.853,0.139l-0.527-0.146l0.377,0.665l-0.15,0.241l0.231,1.451
		l-1.275-0.378l-0.471,1.042l-1.049-0.566l-0.404-0.881l-0.325,0.135L76,64.056l-0.432,1.055l-0.395-0.393l-0.024-0.064l-0.03,0.642
		l-0.595,0.185l-0.084,0.26l-0.569,0.015l-0.854,0.899l0.239-1.041l-0.358-0.294l0.133-0.251l-0.188-0.39l0.422-0.361l-0.015-1.948
		l-0.33,0.006l0.11,1.857l-0.35-0.023l-0.319,0.911l-0.233-0.085l-0.475,0.452l-0.328-0.521c-0.197,0.105-0.397,0.142-0.59,0.142
		c-0.033-0.228,0.003-0.479-0.194-0.615c-0.418,0.3-2.032,1.236-2.75,2.457c-0.214-0.908,0.773-2.896,0.773-2.896
		s-0.167-0.157-0.511-0.164c-0.004-0.16,0.35-0.656,0.562-0.805c-0.067-0.086-0.221-0.125-0.399-0.136
		c-0.026-0.292,0.318-0.794,0.582-0.982l-0.375-0.352l0.583-0.284l-0.216-0.225l0.647-0.069l-0.165-0.442
		c0,0,0.517-0.203,0.656-0.237c0.139-0.036,0.022-0.202,0.104-0.387c0.154,0,1.124,0.288,1.702,0.392l0.136-0.282l-2.005-0.445
		l0.294-0.243l-0.844-0.281l0.166-0.191c-0.367-0.219-0.772-0.34-1.197-0.418l0.109-0.226c-0.251-0.127-0.558-0.159-0.866-0.176
		c0.228-0.121,0.558-0.251,0.864-0.239L68.298,57.712z M66.192,67.222c2.134,0,3.87,1.739,3.87,3.872v0.009
		c-0.83,0.573-1.46,1.414-1.769,2.396c-0.037,0.115-0.063,0.234-0.095,0.349c-0.027,0.124-0.047,0.254-0.066,0.378
		c-0.009,0.074-0.024,0.15-0.03,0.23c-0.563,0.322-1.217,0.509-1.911,0.509c-0.779,0-1.505-0.236-2.112-0.633
		c-0.109-0.067-0.211-0.148-0.312-0.224c-0.093-0.077-0.185-0.154-0.27-0.24c-0.728-0.707-1.179-1.689-1.179-2.774
		C62.321,68.961,64.057,67.222,66.192,67.222z M63.498,74.796c0.757,0.552,1.687,0.881,2.693,0.881c0.685,0,1.33-0.15,1.911-0.423
		c0.07,0.839,0.367,1.614,0.833,2.266c-0.75,0.733-1.252,1.716-1.365,2.81c-0.018,0.156-0.027,0.319-0.027,0.479
		c0,0.128,0.01,0.248,0.022,0.373c-0.012,0.006-0.029,0.015-0.029,0.015c-0.111,0.038-0.226,0.073-0.341,0.103
		c-0.317,0.09-0.653,0.141-1.002,0.141c-1.742,0-3.219-1.163-3.704-2.745c-0.033-0.115-0.063-0.23-0.087-0.349
		c-0.024-0.116-0.043-0.234-0.055-0.353c-0.016-0.142-0.024-0.281-0.024-0.426C62.321,76.479,62.772,75.497,63.498,74.796z
		 M61.817,78.942c0.563,1.79,2.192,3.103,4.141,3.197c-0.431,0.366-0.792,0.799-1.067,1.293c-0.06,0.104-0.112,0.21-0.164,0.316
		c-0.049,0.109-0.093,0.221-0.136,0.337c-0.182,0.49-0.288,1.022-0.288,1.579c0,0.181,0.016,0.36,0.034,0.535
		c-0.269,0.06-0.555,0.092-0.844,0.092c-1.488,0-2.78-0.843-3.43-2.076c-0.057-0.109-0.107-0.219-0.153-0.332
		c-0.046-0.118-0.089-0.235-0.125-0.354c-0.106-0.345-0.161-0.719-0.161-1.103C59.624,80.891,60.521,79.569,61.817,78.942z
		 M62.415,91.154c-2.134,0-3.87-1.739-3.87-3.872c0-0.984,0.373-1.884,0.982-2.566c0.792,1.372,2.271,2.295,3.966,2.295
		c0.337,0,0.669-0.039,0.984-0.109c0.239,0.854,0.717,1.603,1.361,2.177C65.188,90.309,63.899,91.154,62.415,91.154z M68.892,89.537
		c-0.808,0-1.56-0.249-2.181-0.678c-0.102-0.067-0.2-0.142-0.293-0.223c-0.103-0.086-0.201-0.174-0.291-0.269
		c-0.452-0.461-0.787-1.035-0.963-1.674c-0.034-0.118-0.061-0.23-0.083-0.355c-0.021-0.117-0.036-0.242-0.044-0.365
		c-0.009-0.102-0.016-0.205-0.016-0.309c0-0.376,0.055-0.74,0.155-1.083c0.035-0.129,0.081-0.254,0.13-0.371
		c0.046-0.117,0.101-0.229,0.157-0.342c0.41-0.777,1.077-1.398,1.884-1.75c0.112-0.051,0.23-0.098,0.352-0.137h0.003
		c0.084,0.323,0.203,0.631,0.353,0.917c0.763,1.479,2.301,2.493,4.075,2.493c0.206,0,0.413-0.021,0.616-0.047
		c0.008,0.106,0.015,0.213,0.015,0.319C72.76,87.797,71.025,89.537,68.892,89.537z M73.317,84.488
		c-0.116,0.036-0.228,0.064-0.346,0.094c-0.114,0.024-0.232,0.048-0.351,0.061c-0.164,0.021-0.326,0.034-0.491,0.034
		c-1.78,0-3.283-1.206-3.73-2.851c-0.018-0.065-0.04-0.136-0.055-0.21c-0.009-0.044-0.015-0.092-0.023-0.137
		c-0.016-0.079-0.029-0.156-0.038-0.239c-0.002-0.036-0.005-0.076-0.009-0.115c-0.008-0.098-0.015-0.191-0.015-0.298
		c0,0,0-0.013,0-0.019c0-1.067,0.43-2.035,1.133-2.736c0.166,0.169,0.348,0.329,0.542,0.471c0.1,0.074,0.204,0.147,0.312,0.213
		c0.104,0.068,0.213,0.127,0.321,0.184c0.629,0.33,1.345,0.519,2.1,0.519c0.284,0,0.561-0.033,0.83-0.08
		c-0.009,0.115-0.019,0.229-0.019,0.348c0,1.411,0.643,2.677,1.651,3.52C74.661,83.82,74.034,84.258,73.317,84.488z M78.066,83.594
		c-0.712,0-1.38-0.19-1.951-0.525c-0.104-0.062-0.203-0.13-0.301-0.195c-0.096-0.073-0.194-0.147-0.284-0.228
		c-0.817-0.707-1.335-1.755-1.335-2.92c0-0.189,0.015-0.372,0.042-0.556c0.021-0.135,0.048-0.274,0.085-0.41
		c0.041-0.156,0.09-0.317,0.15-0.471c0.058-0.142,0.116-0.271,0.188-0.402c0.058-0.106,0.121-0.214,0.188-0.313
		c0.07-0.101,0.139-0.191,0.215-0.284c0.328-0.401,0.732-0.739,1.193-0.981c0.146-0.077,0.301-0.143,0.452-0.201
		c0.131-0.047,0.267-0.089,0.403-0.127c0.305-0.074,0.623-0.121,0.954-0.121c2.131,0,3.868,1.737,3.868,3.868
		C81.935,81.862,80.197,83.594,78.066,83.594z M86.081,70.529l0.957,1.792l0.209-0.562l0.455,0.832c0,0,0.085-0.252,0.244-0.583
		c0.445,0.639,1.242,1.064,1.572,1.219c0.032,0.065,0.18,0.367,0.408,0.736c-0.205,0.103-1.486-0.198-1.486-0.198l0.255,0.432
		l-0.79,0.162c0,0,0.54,0.767,0.671,1.204c0,0-0.388-0.124-1.078,0.006c0.398,0.443,0.304,1.23,0.285,1.502
		c-0.199-0.111-0.729,0-0.729,0c-0.13,0.938-0.605,1.946-0.92,2.455c-0.388-1.188-0.413-1.405-0.413-1.405l-0.114,0.275
		l-0.191-0.846l-0.681,0.302l0.015-1.532l-0.363-0.035c0,0-0.434,0.715-0.66,0.798c-0.082-0.521-0.229-0.792-0.229-0.792
		l-0.764-0.012l0.051-0.255c0,0-1.104,0.438-1.772,0.115c0.456-0.21,1.366-0.694,1.318-1.244c-0.079-0.271-0.388-0.403-0.388-0.403
		l0.406-0.344c0,0-0.104-0.162-0.381-0.153c0.079-0.306,0.789-0.79,0.878-0.834c0,0-0.548-0.024-0.719-0.216
		c0.098-0.328,0.303-0.676,0.303-0.676s1.42-0.776,0.948-1.367c-0.474-0.592-1.251,1.757-1.485,2.235
		c-0.368,0.332-1.65,0.429-1.849,0.317c0.057-0.187,0.242-0.387,0.242-0.387s-1.263,0.479-1.58,0.405
		C78.769,73.25,78.919,73,78.919,73l-1.324,0.069l0.152-0.249c0,0-0.933-0.216-1.296-0.483c0.629-0.07,1.872-0.49,1.872-0.49
		l-0.396-0.332l0.619-0.429l-0.223-0.379l0.962-0.302l-0.396-0.389l0.359-0.293c0.382,0.151,1.487-0.861,1.487-0.861l-0.029-0.291
		c-0.312-0.117-1.919,1.23-2.558,0.521c0.37-0.146,0.413-0.511,0.413-0.511s-0.113-0.037-0.255-0.079
		c-0.24,0.205-0.531,0.354-0.754,0.577c-0.047,0.045-0.091,0.09-0.137,0.136c-0.176,0.182-0.346,0.367-0.505,0.561
		c-0.035,0.042-0.066,0.085-0.1,0.129c-0.059,0.077-0.118,0.152-0.176,0.227c-0.109,0.15-0.224,0.295-0.328,0.447
		c-0.086,0.13-0.157,0.272-0.237,0.408c-0.1,0.172-0.209,0.337-0.298,0.514c-0.055,0.113-0.115,0.219-0.164,0.332
		c-0.055,0.119-0.1,0.243-0.146,0.367c0.006,0.006,0.012,0.012,0.019,0.021c0.083,0.091,0.162,0.18,0.238,0.275
		c-0.002,0-0.004,0-0.006-0.004c0.002,0.004,0.003,0.004,0.004,0.007c-0.032-0.03-0.075-0.047-0.107-0.074
		c0.556,0.668,0.926,1.505,0.926,2.442c0,0.189-0.017,0.373-0.044,0.557c-0.799,0.292-1.493,0.795-2.014,1.447
		c-0.073,0.096-0.149,0.19-0.216,0.291c-0.066,0.094-0.127,0.201-0.185,0.304c-0.203,0.359-0.356,0.743-0.457,1.148
		c-0.306,0.073-0.624,0.12-0.954,0.12c-0.708,0-1.372-0.194-1.941-0.522c-0.115-0.067-0.224-0.145-0.33-0.219
		c-0.122-0.086-0.237-0.181-0.342-0.278c-0.04-0.038-0.077-0.067-0.112-0.103c-0.084-0.084-0.167-0.172-0.243-0.267
		c-0.075-0.092-0.147-0.184-0.214-0.281c-0.433-0.624-0.687-1.381-0.687-2.197v-0.009c0-0.047,0.002-0.092,0.005-0.136
		c0.006-0.115,0.012-0.222,0.027-0.334c0.003-0.036,0.009-0.074,0.015-0.107c0.022-0.129,0.049-0.26,0.082-0.384
		c0.006-0.035,0.015-0.068,0.024-0.101c0.179-0.624,0.512-1.182,0.954-1.635c0.143-0.146,0.294-0.272,0.451-0.394
		c0.127-0.094,0.261-0.183,0.4-0.257c0.563-0.325,1.214-0.518,1.908-0.518c0.037,0,0.069,0.012,0.104,0.012c0.001,0,0.002,0,0.004,0
		c0.003,0,0.007,0,0.007,0c0.179,0.006,0.357,0.024,0.531,0.047c0.176,0.03,0.351,0.071,0.518,0.125
		c0.048-0.112,0.106-0.219,0.158-0.322c0.05-0.109,0.101-0.222,0.156-0.323c0.194-0.371,0.413-0.719,0.639-1.059
		c0.125-0.184,0.264-0.36,0.401-0.534c0.038-0.052,0.078-0.101,0.118-0.152c0.061-0.08,0.12-0.163,0.184-0.238
		c0.064-0.077,0.134-0.146,0.202-0.22c0.133-0.149,0.265-0.299,0.404-0.442c0.023-0.025,0.047-0.049,0.07-0.074
		c0.023-0.024,0.048-0.049,0.072-0.072c0.247-0.244,0.502-0.478,0.767-0.706c0.619-0.523,1.28-0.997,1.985-1.425l0.009-0.008
		c0,0,0,0,0.002,0c-0.107-0.161-0.193-0.275-0.254-0.285c0.054,0.017,0.142,0.13,0.245,0.292c-0.707,0.43-1.368,0.903-1.987,1.424
		c0.002,0,0.002,0.001,0.002,0.001h-0.002v-0.001c-0.379-0.275-0.727-0.655-0.839-1.169c0.593,0.335,1.136,0.572,1.466,0.653
		c0.08-0.058,0.169-0.112,0.251-0.172c-0.196-0.336-0.315-0.794-0.315-0.794l0.571-0.018l0.238-0.315c0,0-0.233-0.249-0.279-0.667
		c0.256-0.076,1.045,0.314,1.533,0.681c0,0,0-0.001,0.002-0.001c0.104-0.057,0.205-0.118,0.309-0.176
		c0.001,0,0.001-0.001,0.003-0.001c-0.024-0.26-0.087-0.55-0.087-0.55c0.333-0.046,0.616,0.024,0.87,0.155
		c0.52-0.255,1.046-0.5,1.584-0.725c0.059-0.026,0.115-0.041,0.167-0.052c0.024-0.005,0.048-0.006,0.071-0.009
		s0.048-0.007,0.069-0.008h0.002h0.002h-0.002c0.707-0.041,1.004,0.87,0.636,1.483c0.369-0.611,0.072-1.526-0.633-1.485
		c0.58-0.176,1.32,0.436,1.32,0.436s0.252-0.89,0.881-1.566c0.264,0.569,0.397,0.781,0.397,0.781s0.517-0.908,1.189-1.246
		c0.119,0.402,0.391,1.05,0.391,1.05s0.421-0.627,0.545-1.014c0.157,0.161,0.285,0.586,0.285,0.586s0.505-0.847,0.412-1.507
		c0.559,0.512,0.941,1.926,0.941,1.926l-0.233,0.445l0.578,0.251l-0.624,0.41c0,0,0.369,0.254,0.49,0.232
		c-0.145,0.367-0.951,0.585-1.104,0.63c0.12,0.176,0.411,0.358,0.411,0.358s-0.635,0.37-0.827,0.243
		c0.04,0.202,0.133,0.315,0.243,0.381c-0.112,0.055-0.246,0.099-0.402,0.13c-0.354,0.075-0.903-0.225-0.897,0.263
		c0.013,0.763,0.718,0.515,0.961,0.115c0.114-0.19,0.296-0.332,0.466-0.447c0.171,0.048,0.323,0.015,0.323,0.015l0.845-0.327
		l-0.157,0.488l0.417,0.178c0,0-0.234-0.009-0.319,0.446c0.765,0.232,1.261,0.807,1.665,1.241c-0.329,0.063-1.063,0.551-1.063,0.551
		c0.519,0.197,1.137,1.055,1.137,1.055s-0.679,0.032-0.964,0.35c0.321,0.089,0.942,1.068,0.942,1.068s-0.256-0.057-0.442,0.125
		c0.222,0.373,0.66,1.283,0.679,1.979c-0.331-0.357-0.857-0.379-1.215-0.346v0.006c-1.05,0.124-1.959-1.322-1.959-1.322
		l-0.287,0.505l-0.39-0.705l-0.201,0.435c0,0-0.539-0.997-0.742-1.605c-0.207-0.605-0.697-0.796-0.77-0.46
		C85.446,70.437,85.749,70.522,86.081,70.529z M98.997,65.85c0.32,0.914,0.541,1.85,0.709,2.789
		c0.156,0.936,0.226,1.881,0.235,2.831c-0.01,0.938-0.079,1.886-0.233,2.824c-0.166,0.938-0.387,1.872-0.707,2.789
		c-0.631,1.84-1.57,3.62-2.845,5.285c0.908-1.769,1.632-3.563,2.116-5.385c0.233-0.914,0.431-1.829,0.542-2.751
		c0.122-0.922,0.188-1.839,0.178-2.768c0.011-0.92-0.056-1.843-0.178-2.764c-0.111-0.921-0.309-1.835-0.542-2.751
		c-0.483-1.823-1.208-3.619-2.116-5.384C97.429,62.224,98.367,64.01,98.997,65.85z"/>
	<path fill="none" d="M109.648,77.117c-0.451-0.1-0.914-0.15-1.372-0.153c1.142,0.952,2.446,1.703,3.843,2.206
		c0.445,0.166,0.899,0.299,1.361,0.408c-0.445-0.538-0.961-1.018-1.527-1.407C111.246,77.68,110.467,77.308,109.648,77.117z"/>
	<path fill="none" d="M103.723,85.703c0.256,0.248,0.544,0.459,0.854,0.633c0.149,0.085,0.314,0.17,0.471,0.231
		s0.314,0.115,0.479,0.153c0.616,0.146,1.26,0.109,1.832-0.098c0.575-0.202,1.074-0.567,1.423-1.029
		c0.16-0.207,0.298-0.446,0.403-0.698c0.09-0.229,0.146-0.481,0.156-0.728c0.028-0.499-0.127-1.006-0.401-1.401
		c-0.14-0.201-0.31-0.372-0.497-0.518c-0.046-0.038-0.095-0.071-0.142-0.104c-0.052-0.035-0.104-0.064-0.15-0.092
		c-0.084-0.048-0.179-0.091-0.271-0.121c-0.381-0.142-0.809-0.142-1.215-0.032c-0.45,0.124-0.751,0.311-0.975,0.349
		c-0.125,0.023-0.227-0.006-0.301-0.092c-0.498,0.843-1.674,1.369-2.749,1.939C102.884,84.707,103.252,85.263,103.723,85.703z"/>
	<path fill="none" d="M105.008,74.48c-0.37,0.47-0.665,0.947-0.75,1.437c-0.071,0.396-0.012,0.825,0.105,1.274
		c0.59-0.351,1.218-0.621,1.872-0.789c-0.476-0.588-0.882-1.213-1.236-1.857C105.005,74.521,105.005,74.503,105.008,74.48z"/>
	<path fill="none" d="M120.206,81.635c-0.454-0.095-1.001-0.164-1.521-0.188c-0.656-0.039-1.274,0.019-1.629-0.032
		c-0.63,0.01-1.261-0.018-1.873-0.092c0.289,0.719,0.496,1.477,0.584,2.248c0.023,0.216,0.068,0.626,0.062,1.133
		c-0.003,0.503-0.066,1.1-0.199,1.659c-0.01,0.044-0.024,0.085-0.033,0.129c0.314-0.336,0.678-0.608,1.058-0.78
		c0.56-0.257,1.062-0.263,1.407-0.15c0.349,0.112,0.545,0.337,0.62,0.577c0.037,0.105,0.047,0.225,0.037,0.343
		c0.194-0.131,0.395-0.255,0.608-0.35c0.343-0.158,0.716-0.254,1.103-0.283c0.77-0.056,1.593,0.172,2.26,0.683
		c0.312,0.24,0.591,0.541,0.802,0.891c0.11,0.178,0.197,0.349,0.276,0.557c0.078,0.203,0.13,0.42,0.159,0.639
		c0.056,0.39,0.023,0.868-0.139,1.312c-0.156,0.441-0.441,0.846-0.763,1.105c-0.327,0.267-0.68,0.391-0.936,0.391
		c-0.26,0-0.423-0.118-0.467-0.325c-0.03-0.127,0.052-0.269,0.162-0.432c0.114-0.16,0.249-0.343,0.367-0.547
		c0.115-0.204,0.206-0.424,0.255-0.632c0.051-0.211,0.061-0.403,0.055-0.548c-0.006-0.154-0.029-0.303-0.075-0.438
		c-0.021-0.07-0.049-0.145-0.078-0.21c-0.038-0.077-0.075-0.145-0.112-0.216c-0.168-0.281-0.391-0.521-0.659-0.704
		c-0.535-0.366-1.229-0.484-1.852-0.298c-0.676,0.198-1.277,0.642-1.685,1.232c-0.396,0.568-0.608,1.261-0.625,1.965
		c0.017,0.283,0.056,0.576,0.146,0.852c0.203,0.638,0.659,1.257,1.31,1.686c0.644,0.431,1.473,0.666,2.327,0.604
		c0.854-0.06,1.709-0.368,2.447-0.876c0.738-0.515,1.357-1.23,1.757-2.055c0.406-0.826,0.597-1.763,0.552-2.683
		c-0.026-0.463-0.105-0.917-0.243-1.355c-0.133-0.432-0.309-0.852-0.526-1.247c-0.424-0.797-1.012-1.491-1.69-2.047
		c-0.682-0.562-1.452-0.976-2.262-1.242C121.02,81.85,120.656,81.731,120.206,81.635z"/>
	<path fill="none" d="M83.062,66.854l0.255,0.04c0.075-0.234,0.009-0.763-0.167-1.338c0,0-0.012,0.009-0.021,0.016
		c-0.002,0.002-0.002,0.004-0.002,0.004c-0.087,0.078-0.188,0.15-0.312,0.202c0-0.001,0-0.001,0.001-0.001
		c-0.001,0-0.001,0-0.002,0.001c-0.237,0.099-0.469,0.216-0.704,0.324C82.413,66.496,82.71,66.818,83.062,66.854z"/>
	<path fill="none" d="M95.353,54.897c-0.069-0.116-0.234-0.13-0.408-0.09c0.009,0.22,0.114,0.48,0.252,0.488
		C95.313,55.351,95.42,55.041,95.353,54.897z"/>
	<path fill="none" d="M90.27,72.59c0.075-0.006-0.823-1.27-2.329-2.353c-1.461-1.121-3.31-2.248-4.437-2.82
		c-0.008,0-0.016-0.005-0.023-0.009c0.518-0.266,1.159-0.749,1.804-1.298c0.549-0.022,1.757-0.068,1.823-0.138
		c-0.066,0.054-1.234,0.091-1.795,0.109c0.408-0.35,0.817-0.729,1.19-1.098c0.544-0.106,1.868-0.071,1.94-0.156
		c-0.069,0.07-1.342,0.028-1.91,0.125c0.011-0.011,0.025-0.023,0.036-0.037c0.999-0.957,1.572-1.968,1.553-2.023
		c-0.012,0.055-0.58,1.034-1.574,1.964c-0.396,0.394-0.843,0.801-1.283,1.174c0.189-0.688,0.51-2.034,0.701-2.604
		c-0.088,0.199-0.199,0.5-0.28,0.845c-0.17,0.633-0.332,1.378-0.474,1.805c-0.291,0.246-0.581,0.475-0.855,0.679
		c0.005-0.863,0.171-2.837,0.256-2.837c-0.099-0.038-0.294,2.02-0.294,2.861v0.003c-0.32,0.231-0.621,0.424-0.881,0.561
		c-0.014,0.009-0.034,0.018-0.043,0.023c-0.013-0.005-0.03-0.015-0.056-0.018c-0.367-0.045-0.847-0.087-1.37-0.136
		c0,0-0.002-0.006-0.006-0.006c-0.201-0.142-0.394-0.446-0.583-0.767c-0.006,0.003-0.008,0.004-0.014,0.006
		c-0.003,0-0.01,0.004-0.012,0.006c0.18,0.308,0.361,0.599,0.56,0.758c-0.542-0.045-1.131-0.093-1.7-0.142
		c-0.003,0-0.003,0.001-0.005,0.001c-0.012,0.008-0.024,0.015-0.038,0.023c-0.018,0.01-0.036,0.021-0.054,0.031
		c-0.008,0.004-0.015,0.012-0.022,0.016c0.008-0.004,0.015-0.008,0.021-0.013c0.186,0.015,0.36,0.029,0.545,0.044
		c-0.239,0.309-0.804,0.627-1.333,0.739c-0.117,0.03-0.214,0.041-0.32,0.062c-0.01,0.007-0.021,0.018-0.033,0.024
		c0.115-0.018,0.221-0.029,0.349-0.06c0.548-0.108,1.145-0.442,1.378-0.763c0.327,0.028,0.65,0.055,0.966,0.08
		c-0.267,0.396-1.169,0.966-1.182,0.954c0,0.029,0.939-0.551,1.204-0.954c0.608,0.051,1.165,0.102,1.585,0.163
		c-0.957,0.291-1.959,1.632-2.583,2.816c-0.339,0.582-0.653,1.131-1.01,1.416c-0.355,0.298-0.677,0.197-0.683,0.207
		c0.021,0.006,0.327,0.104,0.677-0.162c0.371-0.275,0.7-0.826,1.049-1.408c0.645-1.196,1.653-2.523,2.586-2.797
		c0.016-0.005,0.033-0.017,0.033-0.017c0,0.026,0.008,0.066,0.028,0.112c0.088,0.194,0.179,0.405,0.274,0.637
		c-0.55,0.274-1.269,1.026-1.739,1.75c-0.498,0.729-0.667,1.448-0.664,1.457c0.006,0.014,0.182-0.702,0.681-1.425
		c0.482-0.717,1.212-1.471,1.743-1.737c0.116,0.29,0.237,0.605,0.362,0.938c-0.376,0.257-0.906,0.794-1.269,1.322
		c-0.389,0.536-0.494,1.083-0.494,1.083c0,0.018,0.114-0.526,0.508-1.056c0.364-0.523,0.897-1.06,1.266-1.312
		c0.216,0.582,0.428,1.223,0.627,1.882c-0.152,0.746-0.523,1.99-1.061,2.958c-0.517,0.994-1.264,1.564-1.267,1.573
		c-0.014,0.024,0.757-0.535,1.293-1.532c0.532-0.923,0.907-2.112,1.075-2.869c0.228,0.757,0.438,1.532,0.608,2.289
		c-0.109,0.44-0.391,1.141-0.693,1.715c-0.304,0.582-0.646,1.017-0.646,1.017c-0.003,0.013,0.351-0.408,0.663-0.993
		c0.298-0.541,0.572-1.209,0.697-1.657c0.023,0.113,0.051,0.228,0.071,0.338c0.149,0.642,0.277,1.253,0.385,1.804
		c-0.121,0.55-0.82,1.596-0.878,1.561c0.052,0.06,0.739-0.939,0.891-1.508c0.275,1.391,0.427,2.373,0.448,2.389
		c0.018,0.027-0.184-1.492-0.578-3.453c0.454,0.758,1.744,1.798,1.861,1.804c-0.115-0.023-1.502-1.168-1.886-1.916
		c-0.043-0.213-0.088-0.429-0.136-0.654c-0.067-0.329-0.14-0.662-0.222-1.003c0.754,0.731,2.586,1.946,2.611,1.935
		c0.017,0.018-1.925-1.296-2.63-2.011c-0.131-0.546-0.281-1.097-0.436-1.638c0.577,0.532,1.589,1.3,2.577,1.762
		c1.018,0.502,1.956,0.638,1.966,0.645c0.024-0.018-0.912-0.166-1.926-0.675c-1.022-0.491-2.075-1.312-2.638-1.839l-0.016-0.012
		c-0.415-1.41-0.891-2.725-1.302-3.611c1.12,0.575,2.924,1.656,4.365,2.735C89.367,71.33,90.294,72.551,90.27,72.59z"/>
	<path fill="#8CBD43" d="M75.031,100.423c0.021,0,0.04,0.003,0.06,0.006c-0.014-0.003-0.027-0.009-0.043-0.009
		C75.043,100.42,75.037,100.423,75.031,100.423z"/>
	<path fill="#8CBD43" d="M102.772,73.682c0.101-0.959,0.155-1.935,0.155-2.919c0-15.4-12.482-27.884-27.882-27.884
		c-15.401,0-27.883,12.484-27.883,27.884c0,15.396,12.482,27.883,27.883,27.883c14.24,0,25.964-10.686,27.651-24.467
		C102.691,74.004,102.729,73.85,102.772,73.682z M75.166,98.055c-3.399,0-6.653-0.643-9.652-1.798
		c-1.081-0.418-2.128-0.895-3.133-1.44c-1.491-0.808-2.893-1.752-4.195-2.816c-0.608-0.497-1.196-1.022-1.76-1.57
		c-1.798-1.747-3.355-3.75-4.615-5.938c-0.569-0.994-1.084-2.032-1.523-3.1c-1.309-3.162-2.032-6.622-2.032-10.26
		c0-14.833,12.071-26.909,26.91-26.909c8.143,0,15.436,3.648,20.375,9.378c-0.267,0.157-0.646,0.397-0.808,0.859
		c-0.2,0.058-0.367,0.155-0.505,0.26c-1.116-1.538-3.178-3.064-6.226-2.328c-5.116,1.238-6.645,4.89-7.777,8.555
		c0.118,0.101,0.232,0.208,0.347,0.33c-0.146,0.045-0.315,0.088-0.485,0.124c-0.334,1.1-0.639,2.19-1.012,3.21
		c-0.009,0.025-0.015,0.043-0.021,0.067c0.182,0.092,0.372,0.179,0.513,0.343c0.019-0.052,0.038-0.106,0.053-0.158
		c1.691-4.615,2.166-10.444,8.278-11.897c4.261-1.014,6.441,2.222,6.829,3.83c0.224,0.936,0.345,4.892-3.745,5.215
		c-1.621,0.13-3.314-1.078-3.585-2.479c-0.272-1.406,1.288-2.075,2.012-1.991l0.007-0.182c-0.8-0.096-2.515,0.642-2.208,2.205
		c0.307,1.56,2.183,2.914,3.965,2.78c1.516-0.114,2.46-0.7,3.08-1.444c0.009-0.01,0.018-0.017,0.027-0.026
		c1.198-1.472,1.059-3.591,0.89-4.278c-0.106-0.411-0.347-0.975-0.719-1.553c0.057-0.052,0.136-0.103,0.222-0.14
		c0.009,0.254,0.084,0.551,0.433,0.699c0.231,0.08,0.488-0.096,0.553-0.278c0.074-0.182,0.099-0.352,0.029-0.558
		c-0.154-0.315-0.431-0.37-0.665-0.356c0.136-0.312,0.412-0.542,0.622-0.696c4.007,4.699,6.439,10.777,6.439,17.418
		C102.083,85.979,90.01,98.055,75.166,98.055z M94.944,54.807c0.174-0.04,0.339-0.025,0.408,0.09
		c0.067,0.144-0.039,0.454-0.156,0.397C95.059,55.287,94.953,55.027,94.944,54.807z"/>
	<path fill="#8A1840" d="M51.173,74.231c-0.125-0.922-0.188-1.839-0.181-2.768c-0.007-0.917,0.06-1.843,0.178-2.764
		c0.112-0.921,0.309-1.835,0.542-2.748c0.482-1.826,1.208-3.622,2.116-5.387c-1.272,1.659-2.211,3.446-2.836,5.285
		c-0.325,0.914-0.546,1.85-0.712,2.789c-0.154,0.936-0.226,1.881-0.237,2.831c0.011,0.938,0.083,1.886,0.237,2.824
		c0.167,0.938,0.387,1.872,0.708,2.789c0.63,1.84,1.569,3.62,2.841,5.285c-0.908-1.769-1.631-3.563-2.113-5.385
		C51.482,76.068,51.285,75.154,51.173,74.231z"/>
	<path fill="#8A1840" d="M55.906,60.564c-1.26,1.668-2.22,3.45-2.853,5.285c-0.638,1.838-0.947,3.725-0.951,5.614
		c0.003,1.892,0.312,3.779,0.951,5.616c0.633,1.837,1.593,3.617,2.853,5.288c-1.035-1.739-1.829-3.531-2.372-5.356
		c-0.529-1.827-0.805-3.687-0.802-5.547c-0.005-1.859,0.27-3.715,0.802-5.541C54.077,64.096,54.868,62.304,55.906,60.564z"/>
	<path fill="#8A1840" d="M98.814,68.7c0.122,0.92,0.188,1.844,0.178,2.764c0.011,0.929-0.056,1.846-0.178,2.768
		c-0.111,0.923-0.309,1.837-0.542,2.751c-0.484,1.821-1.208,3.616-2.116,5.385c1.274-1.665,2.214-3.445,2.845-5.285
		c0.32-0.917,0.541-1.851,0.707-2.789c0.154-0.938,0.224-1.886,0.233-2.824c-0.01-0.95-0.079-1.895-0.235-2.831
		c-0.168-0.939-0.389-1.875-0.709-2.789c-0.63-1.839-1.568-3.626-2.841-5.285c0.908,1.766,1.633,3.561,2.116,5.384
		C98.506,66.864,98.703,67.778,98.814,68.7z"/>
	<path fill="#8A1840" d="M97.252,71.463c0.005,1.86-0.27,3.72-0.802,5.547c-0.542,1.822-1.337,3.617-2.371,5.356
		c1.263-1.671,2.222-3.451,2.853-5.288c0.641-1.836,0.947-3.724,0.953-5.616c-0.006-1.889-0.315-3.775-0.953-5.614
		c-0.592-1.726-1.503-3.396-2.652-4.976c-0.01,0.009-0.019,0.016-0.027,0.026c0.942,1.634,1.689,3.312,2.198,5.022
		C96.982,67.749,97.257,69.604,97.252,71.463z"/>
	<path fill="#8A1840" d="M146.95,75.743c-0.104-0.866-0.36-1.712-0.761-2.493c-0.783-1.565-2.147-2.834-3.763-3.502
		c-0.171-0.077-0.341-0.134-0.52-0.198c-0.183-0.06-0.366-0.115-0.558-0.157c-0.378-0.091-0.771-0.147-1.171-0.167
		c-0.8-0.035-1.627,0.081-2.407,0.364c-0.782,0.278-1.518,0.72-2.145,1.299c-0.624,0.575-1.132,1.293-1.477,2.077
		c-0.083,0.198-0.158,0.396-0.223,0.606c-0.072,0.209-0.121,0.428-0.164,0.645c-0.078,0.44-0.103,0.89-0.067,1.328
		c0.067,0.887,0.368,1.738,0.837,2.448c0.473,0.716,1.112,1.29,1.825,1.669c0.355,0.194,0.726,0.333,1.106,0.434
		c0.39,0.104,0.79,0.143,1.18,0.128c0.61-0.023,1.168-0.195,1.624-0.438c0.461-0.243,0.82-0.562,1.075-0.882
		c0.258-0.325,0.412-0.653,0.497-0.934c0.086-0.279,0.098-0.524,0.072-0.698c-0.054-0.355-0.229-0.447-0.464-0.326
		c-0.238,0.112-0.541,0.455-1.107,0.775c-0.516,0.287-1.123,0.426-1.724,0.343c-0.147-0.023-0.294-0.059-0.438-0.107
		c-0.069-0.022-0.151-0.052-0.227-0.091c-0.08-0.032-0.158-0.067-0.233-0.113c-0.306-0.156-0.581-0.362-0.827-0.617
		c-0.485-0.496-0.803-1.183-0.87-1.893c-0.028-0.348,0-0.71,0.083-1.05c0.094-0.367,0.232-0.707,0.405-1.023
		c0.388-0.695,0.995-1.287,1.724-1.671c0.728-0.385,1.571-0.557,2.41-0.479c0.225,0.017,0.444,0.056,0.666,0.106
		c0.218,0.056,0.445,0.13,0.663,0.213c0.437,0.165,0.855,0.384,1.238,0.65c0.775,0.541,1.425,1.277,1.871,2.13
		c0.444,0.854,0.686,1.827,0.682,2.81c-0.002,0.491-0.063,0.987-0.183,1.473c-0.124,0.479-0.297,0.958-0.514,1.414
		c-0.438,0.913-1.059,1.75-1.832,2.437c-0.77,0.692-1.683,1.23-2.682,1.579c-0.994,0.347-2.075,0.494-3.153,0.42
		c-1.078-0.067-2.146-0.384-3.144-0.854c-1.599-0.755-2.995-1.98-3.982-3.464c-0.996-1.491-1.59-3.227-1.739-4.99
		c-0.018-0.198-0.04-0.559-0.04-0.979c0.002-0.419,0.031-0.907,0.083-1.36c0.078-0.701,0.219-1.318,0.212-1.538
		c0.061-0.485,0.097-0.972,0.095-1.466c0-0.735-0.072-1.459-0.216-2.182c-0.14-0.743-0.371-1.47-0.687-2.167
		c-0.618-1.384-1.569-2.601-2.729-3.543c-1.156-0.951-2.529-1.621-3.968-1.957c-0.717-0.167-1.453-0.254-2.187-0.25
		c-0.366-0.003-0.73,0.017-1.086,0.057c-0.182,0.021-0.361,0.046-0.539,0.076l-0.268,0.048c-0.09,0.018-0.185,0.036-0.275,0.062
		c-1.463,0.333-2.815,1.086-3.847,2.118c-1.038,1.025-1.77,2.309-2.116,3.684c-0.173,0.688-0.255,1.387-0.243,2.077
		c0.007,0.344,0.039,0.691,0.085,1.023c0.028,0.17,0.059,0.333,0.096,0.503c0.032,0.176,0.078,0.346,0.129,0.512
		c0.2,0.67,0.541,1.399,1.063,2.079c0.523,0.671,1.223,1.286,2.05,1.721c0.826,0.438,1.774,0.692,2.717,0.719
		c0.471,0.009,0.938-0.033,1.384-0.125c0.45-0.094,0.906-0.251,1.305-0.461c0.807-0.414,1.432-1.032,1.827-1.68
		c0.402-0.646,0.581-1.322,0.617-1.877c0.043-0.561-0.057-1.009-0.185-1.306c-0.131-0.296-0.288-0.445-0.421-0.451
		c-0.22-0.015-0.382,0.125-0.517,0.341c-0.137,0.211-0.265,0.508-0.432,0.829c-0.166,0.324-0.385,0.682-0.689,1.005
		c-0.305,0.323-0.697,0.613-1.157,0.782c-0.115,0.045-0.236,0.081-0.357,0.107c-0.125,0.03-0.242,0.047-0.397,0.062
		c-0.29,0.032-0.585,0.026-0.882-0.013c-0.588-0.076-1.18-0.304-1.677-0.665c-0.503-0.362-0.902-0.849-1.159-1.385
		c-0.131-0.272-0.222-0.546-0.282-0.841c-0.067-0.31-0.101-0.618-0.109-0.916c-0.011-0.338,0.018-0.682,0.078-1.018
		c0.035,0.336,0.107,0.676,0.252,1c0.183,0.399,0.448,0.763,0.784,1.066c0.346,0.312,0.782,0.533,1.236,0.636
		c0.458,0.104,0.933,0.087,1.369-0.037c0.439-0.124,0.835-0.359,1.147-0.659c0.075-0.075,0.148-0.155,0.218-0.233
		c0.066-0.087,0.133-0.176,0.191-0.27c0.112-0.188,0.195-0.391,0.247-0.59c0.053-0.201,0.089-0.464,0.055-0.739
		c-0.026-0.275-0.12-0.557-0.257-0.777c-0.142-0.225-0.317-0.389-0.472-0.465c-0.155-0.081-0.283-0.084-0.349-0.018
		c-0.115,0.104-0.131,0.234-0.119,0.37c0.016,0.136,0.061,0.278,0.098,0.439c0.039,0.16,0.066,0.336,0.07,0.515
		c0,0.182-0.031,0.364-0.09,0.512c-0.055,0.17-0.152,0.33-0.289,0.488c-0.137,0.154-0.3,0.29-0.489,0.396
		c-0.398,0.231-0.909,0.321-1.406,0.196c-0.504-0.118-0.968-0.462-1.288-0.925c-0.308-0.447-0.463-1.006-0.446-1.56
		c0.021-0.546,0.205-1.087,0.51-1.542c0.127-0.166,0.262-0.321,0.409-0.472c0.488-0.494,1.076-0.893,1.729-1.167
		c0.164-0.07,0.332-0.127,0.503-0.177c0.089-0.028,0.174-0.049,0.261-0.074c0.092-0.018,0.183-0.042,0.273-0.061
		c0.37-0.079,0.746-0.12,1.124-0.139c1.612-0.072,3.286,0.442,4.63,1.462c1.347,1.011,2.344,2.551,2.725,4.279
		c0.4,1.742,0.298,3.635-0.335,5.379c-0.627,1.74-1.781,3.33-3.309,4.478c-0.735,0.557-1.552,1.012-2.422,1.34
		c-0.869,0.334-1.789,0.529-2.716,0.627c-1.104,0.118-2.224,0.08-3.322-0.104c-0.327-0.482-0.697-0.936-1.122-1.343
		c-0.351-0.349-0.735-0.657-1.141-0.935c-0.206-0.139-0.415-0.269-0.631-0.385c-0.217-0.127-0.445-0.236-0.675-0.34
		c-0.93-0.4-1.95-0.595-2.968-0.57c-0.121,0.012-0.245,0.021-0.366,0.028c-0.011-0.008-0.021-0.017-0.034-0.028
		c-0.702-0.705-1.308-1.5-1.825-2.349c0.897-0.988,1.911-1.975,1.911-3.061c0-1.843-2.92-3.402-3.226-5.156
		c-0.314-1.799,1.89-4.261,1.275-5.941c-0.622-1.71-3.898-2.181-4.797-3.732c-0.91-1.57,0.317-4.642-0.841-6.023
		c-1.162-1.384-4.404-0.708-5.786-1.868c-1.381-1.161-1.269-4.47-2.841-5.376c-1.557-0.899-4.368,0.843-6.075,0.219
		c-1.681-0.612-2.714-3.759-4.516-4.073c-1.75-0.307-3.791,2.293-5.629,2.293c-1.842,0-3.883-2.6-5.634-2.293
		c-1.801,0.314-2.835,3.461-4.515,4.073c-1.71,0.624-4.522-1.118-6.076-0.219c-1.567,0.907-1.459,4.212-2.84,5.376
		c-1.383,1.16-4.625,0.483-5.787,1.865c-1.157,1.381,0.069,4.456-0.84,6.023c-0.899,1.554-4.179,2.024-4.8,3.735
		c-0.61,1.68,1.594,4.142,1.28,5.941c-0.307,1.754-3.227,3.312-3.227,5.156c0,0.984,0.836,1.889,1.663,2.788
		c-0.551,0.952-1.214,1.84-1.993,2.621c-0.012,0.012-0.023,0.021-0.033,0.028c-0.122-0.008-0.246-0.017-0.367-0.028
		c-1.017-0.024-2.038,0.17-2.968,0.57c-0.23,0.104-0.457,0.213-0.676,0.34c-0.214,0.116-0.424,0.246-0.626,0.385
		c-0.408,0.277-0.792,0.586-1.147,0.935c-0.421,0.407-0.79,0.86-1.118,1.343c-1.099,0.184-2.22,0.222-3.321,0.104
		c-0.927-0.098-1.848-0.293-2.716-0.627c-0.87-0.328-1.687-0.783-2.424-1.34c-1.529-1.148-2.679-2.738-3.307-4.478
		c-0.633-1.745-0.736-3.638-0.34-5.379c0.385-1.729,1.381-3.268,2.73-4.279c1.344-1.02,3.015-1.535,4.627-1.462
		c0.381,0.02,0.757,0.061,1.127,0.139c0.09,0.019,0.184,0.042,0.271,0.061c0.089,0.024,0.176,0.046,0.261,0.074
		c0.173,0.05,0.34,0.107,0.502,0.177c0.658,0.274,1.245,0.673,1.73,1.167c0.145,0.151,0.281,0.306,0.405,0.472
		c0.309,0.456,0.494,0.997,0.511,1.542c0.02,0.554-0.136,1.113-0.445,1.56c-0.32,0.463-0.783,0.807-1.283,0.925
		c-0.5,0.125-1.012,0.035-1.413-0.196c-0.188-0.106-0.35-0.243-0.486-0.396c-0.137-0.158-0.234-0.318-0.294-0.488
		c-0.055-0.148-0.084-0.33-0.084-0.512c0-0.179,0.03-0.355,0.07-0.515c0.035-0.161,0.081-0.303,0.096-0.439
		c0.013-0.136-0.003-0.266-0.114-0.37c-0.071-0.066-0.198-0.063-0.352,0.018c-0.154,0.076-0.33,0.24-0.468,0.465
		c-0.144,0.22-0.234,0.502-0.266,0.777c-0.026,0.275,0.007,0.539,0.062,0.739c0.048,0.2,0.133,0.403,0.245,0.59
		c0.058,0.093,0.124,0.182,0.191,0.27c0.066,0.078,0.139,0.158,0.219,0.233c0.312,0.3,0.708,0.535,1.145,0.659
		c0.439,0.124,0.914,0.141,1.373,0.037c0.454-0.103,0.89-0.324,1.234-0.636c0.336-0.303,0.603-0.667,0.786-1.066
		c0.142-0.324,0.217-0.664,0.248-1c0.063,0.336,0.09,0.679,0.082,1.018c-0.009,0.297-0.043,0.606-0.107,0.916
		c-0.063,0.295-0.153,0.569-0.284,0.841c-0.254,0.537-0.661,1.023-1.161,1.385c-0.497,0.361-1.083,0.589-1.677,0.665
		c-0.294,0.039-0.594,0.044-0.884,0.013c-0.153-0.015-0.271-0.033-0.395-0.062c-0.125-0.026-0.242-0.062-0.357-0.107
		c-0.461-0.168-0.852-0.458-1.158-0.782c-0.305-0.324-0.526-0.682-0.691-1.005c-0.168-0.321-0.292-0.618-0.429-0.829
		c-0.138-0.216-0.297-0.356-0.522-0.341c-0.133,0.006-0.287,0.155-0.417,0.451c-0.126,0.297-0.225,0.745-0.185,1.306
		c0.036,0.556,0.218,1.231,0.621,1.877c0.394,0.648,1.018,1.266,1.824,1.68c0.399,0.21,0.856,0.367,1.301,0.461
		c0.448,0.091,0.918,0.133,1.387,0.125c0.942-0.026,1.89-0.281,2.716-0.719c0.824-0.435,1.526-1.05,2.051-1.721
		c0.523-0.68,0.865-1.409,1.063-2.079c0.05-0.166,0.096-0.335,0.13-0.512c0.036-0.17,0.07-0.333,0.093-0.503
		c0.049-0.333,0.079-0.679,0.084-1.023c0.014-0.69-0.069-1.39-0.241-2.077c-0.349-1.375-1.078-2.659-2.115-3.684
		c-1.035-1.032-2.387-1.786-3.852-2.118c-0.087-0.026-0.182-0.043-0.272-0.062l-0.266-0.048c-0.179-0.03-0.358-0.055-0.537-0.076
		c-0.361-0.04-0.727-0.061-1.09-0.057c-0.73-0.003-1.465,0.084-2.187,0.25c-1.442,0.336-2.807,1.006-3.971,1.957
		c-1.156,0.942-2.107,2.159-2.731,3.543c-0.309,0.696-0.542,1.424-0.682,2.167c-0.142,0.723-0.214,1.447-0.217,2.182
		c-0.003,0.494,0.036,0.981,0.093,1.466c-0.002,0.219,0.136,0.837,0.211,1.538c0.055,0.453,0.086,0.941,0.086,1.36
		c0.003,0.42-0.022,0.781-0.04,0.979c-0.147,1.763-0.742,3.499-1.734,4.99c-0.991,1.483-2.387,2.709-3.99,3.464
		c-0.995,0.47-2.061,0.786-3.142,0.854c-1.075,0.074-2.158-0.073-3.152-0.42c-0.998-0.349-1.913-0.887-2.681-1.579
		c-0.769-0.687-1.393-1.523-1.829-2.437c-0.217-0.456-0.394-0.936-0.518-1.414c-0.121-0.485-0.179-0.981-0.182-1.473
		c-0.003-0.982,0.237-1.956,0.685-2.81c0.445-0.853,1.093-1.589,1.869-2.13c0.385-0.266,0.802-0.485,1.238-0.65
		c0.219-0.083,0.445-0.157,0.664-0.213c0.221-0.05,0.442-0.089,0.663-0.106c0.843-0.078,1.69,0.094,2.415,0.479
		c0.726,0.384,1.332,0.976,1.719,1.671c0.176,0.316,0.315,0.656,0.406,1.023c0.088,0.34,0.115,0.702,0.081,1.05
		c-0.063,0.71-0.384,1.397-0.868,1.893c-0.243,0.255-0.522,0.461-0.824,0.617c-0.08,0.046-0.152,0.081-0.233,0.113
		c-0.079,0.039-0.161,0.068-0.228,0.091c-0.145,0.049-0.292,0.084-0.442,0.107c-0.593,0.083-1.208-0.056-1.723-0.343
		c-0.563-0.32-0.867-0.663-1.105-0.775c-0.233-0.121-0.413-0.029-0.467,0.326c-0.024,0.174-0.009,0.419,0.073,0.698
		c0.086,0.28,0.243,0.608,0.5,0.934c0.257,0.319,0.615,0.639,1.075,0.882c0.454,0.242,1.014,0.414,1.624,0.438
		c0.39,0.015,0.791-0.023,1.185-0.128c0.378-0.101,0.745-0.239,1.102-0.434c0.711-0.379,1.354-0.953,1.827-1.669
		c0.47-0.71,0.766-1.562,0.835-2.448c0.034-0.438,0.014-0.888-0.067-1.328c-0.041-0.216-0.093-0.436-0.162-0.645
		c-0.067-0.21-0.139-0.409-0.228-0.606c-0.338-0.784-0.847-1.502-1.471-2.077c-0.627-0.58-1.361-1.021-2.147-1.299
		c-0.779-0.283-1.606-0.399-2.408-0.364c-0.397,0.02-0.791,0.076-1.169,0.167c-0.191,0.042-0.376,0.097-0.558,0.157
		c-0.179,0.064-0.348,0.122-0.518,0.198c-1.618,0.668-2.982,1.937-3.768,3.502c-0.396,0.781-0.65,1.626-0.757,2.493
		c-0.102,0.87-0.054,1.753,0.153,2.596c0.052,0.211,0.112,0.417,0.179,0.625c0.069,0.2,0.142,0.396,0.223,0.591
		c0.165,0.391,0.355,0.769,0.567,1.13c0.43,0.722,0.962,1.384,1.569,1.954c1.219,1.142,2.75,1.914,4.352,2.233
		c1.257,0.249,2.568,0.22,3.803-0.086c0.31-0.073,0.615-0.168,0.916-0.271c0.29-0.109,0.584-0.225,0.865-0.355
		c0.569-0.26,1.112-0.57,1.627-0.926c2.062-1.407,3.589-3.548,4.276-5.938c0.078-0.26,0.222-0.769,0.318-1.401
		c0.083-0.529,0.124-1.142,0.109-1.751c0.523,1.266,1.263,2.442,2.179,3.452c0.976,1.066,2.147,1.954,3.432,2.587
		c0.284,0.142,0.576,0.267,0.873,0.385c-0.988,0.302-1.924,0.799-2.724,1.473c-0.977,0.816-1.749,1.881-2.234,3.064
		c-0.119,0.292-0.228,0.591-0.312,0.893c-0.087,0.313-0.154,0.645-0.2,0.967c-0.092,0.66-0.082,1.329,0.017,1.979
		c0.203,1.304,0.783,2.531,1.636,3.522c0.515,0.594,1.139,1.108,1.829,1.498c0.342,0.195,0.706,0.361,1.078,0.498
		c0.364,0.129,0.775,0.242,1.185,0.301c0.826,0.128,1.681,0.071,2.488-0.153c0.806-0.233,1.566-0.627,2.214-1.171
		c0.56-0.465,1.061-1.056,1.421-1.739c0.182-0.34,0.327-0.698,0.436-1.076c0.116-0.396,0.176-0.811,0.182-1.219
		c0.003-0.373-0.045-0.73-0.13-1.076c-0.003-0.035-0.012-0.083-0.025-0.13l-0.003-0.007c-0.058-0.228-0.194-0.603-0.306-1.02
		c-0.196-0.684-0.302-1.481-0.317-1.796c-0.1-1.369,0.134-2.779,0.707-4.045c0.018-0.039,0.038-0.071,0.056-0.113
		c0.068-0.005,0.138-0.013,0.201-0.023c2.625-0.485,5.005-1.744,6.813-3.442c0.218-0.201,0.426-0.411,0.63-0.626
		c0.929,0.215,1.792,0.644,2.509,1.235c-0.505,1.239-1.125,2.508-0.763,3.502c0.337,0.925,1.457,1.483,2.554,2.055
		c-0.239,0.684-0.639,1.305-1.15,1.786c-0.262,0.248-0.549,0.459-0.855,0.633c-0.153,0.085-0.318,0.17-0.476,0.231
		c-0.157,0.062-0.318,0.115-0.48,0.153c-0.615,0.146-1.254,0.109-1.829-0.098c-0.575-0.202-1.076-0.567-1.425-1.029
		c-0.162-0.207-0.295-0.446-0.399-0.698c-0.095-0.229-0.148-0.481-0.161-0.728c-0.03-0.499,0.127-1.006,0.403-1.401
		c0.139-0.201,0.307-0.372,0.494-0.518c0.047-0.038,0.097-0.071,0.145-0.104c0.049-0.035,0.107-0.064,0.145-0.092
		c0.089-0.048,0.182-0.091,0.277-0.121c0.381-0.142,0.811-0.142,1.214-0.032c0.45,0.124,0.75,0.311,0.971,0.349
		c0.222,0.041,0.381-0.062,0.407-0.366c0.012-0.145-0.019-0.343-0.109-0.56c-0.091-0.225-0.252-0.473-0.491-0.709
		c-0.243-0.231-0.566-0.444-0.965-0.592c-0.397-0.148-0.873-0.213-1.37-0.16c-0.318,0.035-0.639,0.121-0.944,0.251
		c-0.293,0.13-0.573,0.291-0.836,0.491c-0.527,0.399-0.972,0.949-1.257,1.582c-0.289,0.639-0.419,1.367-0.355,2.092
		c0.031,0.364,0.109,0.725,0.233,1.067c0.06,0.175,0.133,0.344,0.216,0.503c0.084,0.159,0.169,0.308,0.264,0.452
		c0.378,0.583,0.881,1.086,1.462,1.465c0.076,0.053,0.16,0.094,0.24,0.142c-0.092,0.006-0.188,0.012-0.282,0.025
		c-0.544,0.086-1.061,0.322-1.5,0.672c-0.229,0.184-0.435,0.391-0.613,0.633c-0.179,0.239-0.318,0.521-0.411,0.823
		c-0.181,0.597-0.142,1.294,0.156,1.916c0.136,0.292,0.333,0.567,0.575,0.799c0.127,0.121,0.249,0.224,0.405,0.322
		c0.156,0.098,0.318,0.177,0.494,0.233c0.312,0.112,0.708,0.165,1.099,0.106c0.392-0.056,0.768-0.222,1.031-0.449
		c0.272-0.229,0.427-0.5,0.454-0.717c0.03-0.225-0.061-0.377-0.243-0.461c-0.115-0.057-0.251-0.018-0.402,0.029
		c-0.152,0.051-0.321,0.119-0.497,0.166c-0.173,0.041-0.354,0.071-0.518,0.065c-0.159,0-0.3-0.024-0.403-0.057
		c-0.105-0.026-0.206-0.068-0.296-0.127c-0.049-0.024-0.089-0.056-0.138-0.089c-0.044-0.036-0.093-0.076-0.136-0.118
		c-0.175-0.16-0.312-0.357-0.399-0.58c-0.182-0.438-0.165-0.939,0.055-1.362c0.236-0.466,0.638-0.851,1.129-1.08
		c0.489-0.233,1.066-0.316,1.632-0.233h0.067c0.127,0.034,0.257,0.067,0.387,0.092c0.663,0.117,1.342,0.105,1.974-0.033
		c0.315-0.073,0.625-0.168,0.916-0.293c0.145-0.059,0.281-0.127,0.42-0.201c0.133-0.07,0.261-0.145,0.382-0.224
		c1.167-0.728,2.06-1.882,2.486-3.178c0.448,0.284,0.827,0.61,1.053,1.006c0.909,1.564-0.321,4.638,0.84,6.02
		c1.162,1.384,4.403,0.706,5.787,1.869c1.378,1.159,1.273,4.466,2.838,5.379c1.557,0.894,4.368-0.847,6.079-0.225
		c1.68,0.608,2.714,3.762,4.515,4.075c1.745,0.304,3.778-2.271,5.617-2.289c0.005,0,0.012-0.003,0.017-0.003
		c0.016,0,0.029,0.006,0.043,0.009c1.827,0.035,3.848,2.585,5.586,2.283c1.802-0.313,2.835-3.467,4.516-4.075
		c1.704-0.622,4.519,1.118,6.075,0.225c1.57-0.913,1.46-4.22,2.841-5.379c1.382-1.163,4.621-0.485,5.786-1.869
		c1.158-1.382-0.069-4.455,0.841-6.02c0.205-0.36,0.537-0.656,0.933-0.926c-0.024,0.16-0.049,0.323-0.074,0.482
		c0.478,1.065,1.273,1.993,2.264,2.615c0.124,0.079,0.25,0.153,0.383,0.224c0.137,0.074,0.276,0.143,0.423,0.201
		c0.294,0.125,0.598,0.22,0.917,0.293c0.634,0.139,1.309,0.15,1.969,0.033c0.134-0.024,0.261-0.058,0.39-0.092h0.067
		c0.566-0.083,1.139,0,1.633,0.233c0.491,0.229,0.893,0.614,1.13,1.08c0.217,0.423,0.236,0.925,0.055,1.362
		c-0.089,0.223-0.228,0.42-0.4,0.58c-0.044,0.042-0.091,0.082-0.14,0.118c-0.045,0.033-0.084,0.064-0.133,0.089
		c-0.091,0.059-0.193,0.101-0.297,0.127c-0.103,0.032-0.242,0.057-0.406,0.057c-0.16,0.006-0.342-0.024-0.515-0.065
		c-0.175-0.047-0.346-0.115-0.496-0.166c-0.152-0.047-0.291-0.086-0.404-0.029c-0.184,0.084-0.275,0.236-0.241,0.461
		c0.03,0.217,0.181,0.488,0.454,0.717c0.264,0.228,0.64,0.394,1.029,0.449c0.388,0.059,0.785,0.006,1.096-0.106
		c0.176-0.057,0.343-0.136,0.498-0.233c0.157-0.099,0.279-0.201,0.403-0.322c0.245-0.231,0.442-0.507,0.577-0.799
		c0.302-0.622,0.337-1.319,0.154-1.916c-0.09-0.303-0.229-0.584-0.41-0.823c-0.177-0.242-0.383-0.449-0.612-0.633
		c-0.44-0.35-0.957-0.586-1.503-0.672c-0.092-0.014-0.186-0.02-0.281-0.025c0.084-0.048,0.163-0.089,0.245-0.142
		c0.578-0.379,1.081-0.882,1.461-1.465c0.092-0.145,0.178-0.293,0.262-0.452c0.081-0.159,0.154-0.328,0.215-0.503
		c0.125-0.343,0.205-0.703,0.233-1.067c0.063-0.725-0.065-1.453-0.353-2.092c-0.285-0.633-0.73-1.183-1.257-1.582
		c-0.266-0.2-0.543-0.361-0.837-0.491c-0.305-0.13-0.631-0.216-0.941-0.251c-0.499-0.053-0.978,0.012-1.371,0.16
		c-0.401,0.147-0.726,0.36-0.969,0.592c-0.104,0.1-0.188,0.213-0.262,0.313c-0.091-0.87-0.574-1.853-0.949-2.808
		c0.647-0.463,1.394-0.812,2.193-0.995c0.203,0.215,0.412,0.425,0.631,0.626c1.808,1.698,4.184,2.957,6.81,3.442
		c0.07,0.011,0.138,0.019,0.2,0.023c0.018,0.042,0.043,0.074,0.062,0.113c0.568,1.266,0.805,2.676,0.706,4.045
		c-0.019,0.314-0.123,1.112-0.319,1.796c-0.116,0.417-0.248,0.792-0.307,1.02l-0.002,0.007c-0.013,0.047-0.021,0.095-0.024,0.13
		c-0.084,0.346-0.136,0.703-0.126,1.076c0.003,0.408,0.062,0.822,0.178,1.219c0.105,0.378,0.252,0.736,0.435,1.076
		c0.361,0.684,0.863,1.274,1.422,1.739c0.647,0.544,1.406,0.938,2.213,1.171c0.809,0.225,1.663,0.281,2.491,0.153
		c0.41-0.059,0.822-0.172,1.182-0.301c0.373-0.137,0.737-0.303,1.08-0.498c0.69-0.39,1.313-0.904,1.828-1.498
		c0.854-0.991,1.434-2.219,1.635-3.522c0.102-0.65,0.109-1.319,0.02-1.979c-0.045-0.322-0.112-0.653-0.203-0.967
		c-0.085-0.302-0.191-0.601-0.309-0.893c-0.484-1.184-1.256-2.248-2.238-3.064c-0.797-0.674-1.731-1.171-2.72-1.473
		c0.295-0.118,0.587-0.243,0.876-0.385c1.28-0.633,2.45-1.521,3.428-2.587c0.919-1.01,1.656-2.186,2.181-3.452
		c-0.02,0.609,0.022,1.222,0.105,1.751c0.097,0.633,0.241,1.142,0.319,1.401c0.687,2.391,2.217,4.531,4.277,5.938
		c0.515,0.355,1.058,0.666,1.624,0.926c0.288,0.131,0.574,0.246,0.87,0.355c0.292,0.104,0.602,0.198,0.91,0.271
		c1.239,0.306,2.552,0.335,3.809,0.086c1.601-0.319,3.13-1.092,4.351-2.233c0.604-0.57,1.14-1.232,1.568-1.954
		c0.213-0.361,0.403-0.739,0.566-1.13c0.082-0.195,0.154-0.391,0.222-0.591c0.066-0.208,0.13-0.414,0.179-0.625
		C147.002,77.496,147.053,76.612,146.95,75.743z M33.913,83.571c-0.025,0.216-0.071,0.626-0.067,1.133
		c0.006,0.503,0.07,1.1,0.2,1.659c0.008,0.044,0.023,0.085,0.036,0.129c-0.318-0.336-0.678-0.608-1.056-0.78
		c-0.561-0.257-1.063-0.263-1.409-0.15c-0.348,0.112-0.544,0.337-0.622,0.577c-0.035,0.105-0.044,0.225-0.035,0.343
		c-0.194-0.131-0.396-0.255-0.612-0.35c-0.339-0.158-0.711-0.254-1.099-0.283c-0.769-0.056-1.597,0.172-2.259,0.683
		c-0.315,0.24-0.587,0.541-0.803,0.891c-0.109,0.178-0.197,0.349-0.275,0.557c-0.079,0.203-0.131,0.42-0.161,0.639
		c-0.055,0.39-0.021,0.868,0.139,1.312c0.158,0.441,0.439,0.846,0.764,1.105c0.327,0.267,0.677,0.391,0.935,0.391
		c0.262,0,0.418-0.118,0.464-0.325c0.03-0.127-0.048-0.269-0.161-0.432c-0.112-0.16-0.248-0.343-0.367-0.547
		c-0.111-0.204-0.205-0.424-0.257-0.632c-0.047-0.211-0.058-0.403-0.052-0.548c0.004-0.154,0.031-0.303,0.077-0.438
		c0.021-0.07,0.047-0.145,0.079-0.21c0.035-0.077,0.072-0.145,0.115-0.216c0.162-0.281,0.385-0.521,0.653-0.704
		c0.534-0.366,1.23-0.484,1.85-0.298c0.679,0.198,1.279,0.642,1.688,1.232c0.396,0.568,0.606,1.261,0.621,1.965
		c-0.011,0.283-0.052,0.576-0.142,0.852c-0.199,0.638-0.663,1.257-1.312,1.686c-0.642,0.431-1.471,0.666-2.326,0.604
		c-0.854-0.06-1.711-0.368-2.448-0.876c-0.741-0.515-1.355-1.23-1.759-2.055c-0.403-0.826-0.593-1.763-0.544-2.683
		c0.021-0.463,0.103-0.917,0.237-1.355c0.133-0.432,0.312-0.852,0.526-1.247c0.43-0.797,1.011-1.491,1.693-2.047
		c0.681-0.562,1.456-0.976,2.259-1.242c0.175-0.06,0.536-0.178,0.989-0.274c0.454-0.095,1-0.164,1.517-0.188
		c0.665-0.039,1.28,0.019,1.63-0.032c0.633,0.01,1.26-0.018,1.877-0.092C34.203,82.042,34.003,82.8,33.913,83.571z M37.558,79.17
		c-0.445,0.166-0.899,0.299-1.359,0.408c0.445-0.538,0.957-1.018,1.529-1.407c0.702-0.491,1.482-0.863,2.299-1.054
		c0.457-0.1,0.917-0.15,1.374-0.153C40.26,77.916,38.956,78.667,37.558,79.17z M45.666,77.414c-0.028-0.019-0.055-0.045-0.084-0.062
		c-0.658-0.435-1.384-0.754-2.141-0.949c0.561-0.692,1.026-1.429,1.419-2.192c0.479,0.559,0.873,1.121,0.977,1.707
		C45.917,76.378,45.829,76.888,45.666,77.414z M75.046,98.646c-15.401,0-27.883-12.486-27.883-27.883
		c0-15.4,12.482-27.884,27.883-27.884c15.399,0,27.882,12.484,27.882,27.884c0,0.984-0.055,1.96-0.155,2.919
		c-0.044,0.168-0.081,0.322-0.075,0.497C101.01,87.96,89.286,98.646,75.046,98.646z M105.39,82.157
		c0.074,0.086,0.176,0.115,0.301,0.092c0.224-0.038,0.524-0.225,0.975-0.349c0.406-0.109,0.834-0.109,1.215,0.032
		c0.093,0.03,0.188,0.073,0.271,0.121c0.047,0.027,0.099,0.057,0.15,0.092c0.047,0.032,0.096,0.065,0.142,0.104
		c0.188,0.146,0.357,0.316,0.497,0.518c0.274,0.396,0.43,0.902,0.401,1.401c-0.011,0.246-0.066,0.498-0.156,0.728
		c-0.105,0.252-0.243,0.491-0.403,0.698c-0.349,0.462-0.848,0.827-1.423,1.029c-0.572,0.207-1.216,0.243-1.832,0.098
		c-0.165-0.038-0.323-0.092-0.479-0.153s-0.321-0.146-0.471-0.231c-0.311-0.174-0.599-0.385-0.854-0.633
		c-0.471-0.44-0.839-0.996-1.082-1.606C103.716,83.526,104.892,83,105.39,82.157z M104.363,77.191
		c-0.117-0.449-0.177-0.878-0.105-1.274c0.085-0.49,0.38-0.967,0.75-1.437c-0.003,0.023-0.003,0.041-0.009,0.065
		c0.354,0.644,0.761,1.269,1.236,1.857C105.581,76.57,104.953,76.841,104.363,77.191z M112.119,79.17
		c-1.396-0.503-2.701-1.254-3.843-2.206c0.458,0.003,0.921,0.054,1.372,0.153c0.818,0.19,1.598,0.562,2.305,1.054
		c0.566,0.39,1.082,0.869,1.527,1.407C113.019,79.469,112.564,79.336,112.119,79.17z M123.455,83.151
		c0.679,0.556,1.267,1.25,1.69,2.047c0.218,0.396,0.394,0.815,0.526,1.247c0.138,0.438,0.217,0.893,0.243,1.355
		c0.045,0.92-0.146,1.856-0.552,2.683c-0.399,0.824-1.019,1.54-1.757,2.055c-0.738,0.508-1.593,0.816-2.447,0.876
		c-0.854,0.062-1.684-0.173-2.327-0.604c-0.65-0.429-1.106-1.048-1.31-1.686c-0.091-0.275-0.13-0.568-0.146-0.852
		c0.017-0.704,0.229-1.396,0.625-1.965c0.407-0.591,1.009-1.034,1.685-1.232c0.623-0.187,1.316-0.068,1.852,0.298
		c0.269,0.184,0.491,0.423,0.659,0.704c0.037,0.071,0.074,0.139,0.112,0.216c0.029,0.065,0.057,0.14,0.078,0.21
		c0.046,0.136,0.069,0.284,0.075,0.438c0.006,0.145-0.004,0.337-0.055,0.548c-0.049,0.208-0.14,0.428-0.255,0.632
		c-0.118,0.204-0.253,0.387-0.367,0.547c-0.11,0.163-0.192,0.305-0.162,0.432c0.044,0.207,0.207,0.325,0.467,0.325
		c0.256,0,0.608-0.124,0.936-0.391c0.321-0.26,0.606-0.664,0.763-1.105c0.162-0.444,0.194-0.923,0.139-1.312
		c-0.029-0.219-0.081-0.436-0.159-0.639c-0.079-0.208-0.166-0.379-0.276-0.557c-0.211-0.35-0.49-0.65-0.802-0.891
		c-0.667-0.511-1.49-0.738-2.26-0.683c-0.387,0.029-0.76,0.125-1.103,0.283c-0.214,0.095-0.414,0.219-0.608,0.35
		c0.01-0.118,0-0.237-0.037-0.343c-0.075-0.24-0.271-0.465-0.62-0.577c-0.345-0.112-0.848-0.106-1.407,0.15
		c-0.38,0.172-0.743,0.444-1.058,0.78c0.009-0.044,0.023-0.085,0.033-0.129c0.133-0.56,0.196-1.156,0.199-1.659
		c0.006-0.507-0.039-0.917-0.062-1.133c-0.088-0.771-0.295-1.529-0.584-2.248c0.612,0.074,1.243,0.102,1.873,0.092
		c0.354,0.051,0.973-0.007,1.629,0.032c0.521,0.023,1.067,0.093,1.521,0.188c0.45,0.097,0.813,0.215,0.987,0.274
		C122.003,82.176,122.773,82.59,123.455,83.151z"/>
	<path fill="#8A1840" d="M63.493,87.011c-1.695,0-3.174-0.923-3.966-2.295c-0.609,0.683-0.982,1.582-0.982,2.566
		c0,2.133,1.736,3.872,3.87,3.872c1.484,0,2.773-0.846,3.423-2.076c-0.644-0.574-1.122-1.322-1.361-2.177
		C64.162,86.972,63.83,87.011,63.493,87.011z"/>
	<path fill="#8A1840" d="M59.91,83.884c0.045,0.113,0.096,0.223,0.153,0.332c0.65,1.233,1.942,2.076,3.43,2.076
		c0.29,0,0.575-0.032,0.844-0.092c-0.018-0.175-0.034-0.354-0.034-0.535c0-0.557,0.106-1.089,0.288-1.579
		c0.043-0.116,0.087-0.228,0.136-0.337c0.052-0.106,0.104-0.213,0.164-0.316c0.275-0.494,0.636-0.927,1.067-1.293
		c-1.948-0.095-3.577-1.407-4.141-3.197c-1.296,0.627-2.193,1.948-2.193,3.484c0,0.384,0.055,0.758,0.161,1.103
		C59.821,83.648,59.863,83.766,59.91,83.884z"/>
	<path fill="#8A1840" d="M72.129,85.393c-1.774,0-3.312-1.015-4.075-2.493c-0.15-0.286-0.268-0.594-0.353-0.917h-0.003
		c-0.121,0.039-0.24,0.086-0.352,0.137c-0.808,0.352-1.475,0.973-1.884,1.75c-0.056,0.113-0.11,0.225-0.157,0.342
		c-0.049,0.117-0.095,0.242-0.13,0.371c-0.101,0.343-0.155,0.707-0.155,1.083c0,0.104,0.007,0.207,0.016,0.309
		c0.009,0.123,0.023,0.248,0.044,0.365c0.022,0.125,0.049,0.237,0.083,0.355c0.176,0.639,0.512,1.213,0.963,1.674
		c0.09,0.095,0.188,0.183,0.291,0.269c0.093,0.081,0.191,0.155,0.293,0.223c0.621,0.429,1.373,0.678,2.181,0.678
		c2.133,0,3.868-1.74,3.868-3.872c0-0.106-0.006-0.213-0.015-0.319C72.542,85.372,72.335,85.393,72.129,85.393z"/>
	<path fill="#8A1840" d="M62.4,78.346c0.023,0.118,0.054,0.233,0.087,0.349c0.485,1.582,1.962,2.745,3.704,2.745
		c0.349,0,0.685-0.051,1.002-0.141c0.116-0.029,0.23-0.064,0.341-0.103c0,0,0.017-0.009,0.029-0.015
		c-0.012-0.125-0.022-0.245-0.022-0.373c0-0.159,0.01-0.322,0.027-0.479c0.113-1.094,0.615-2.076,1.365-2.81
		c-0.466-0.651-0.763-1.427-0.833-2.266c-0.581,0.272-1.226,0.423-1.911,0.423c-1.006,0-1.936-0.329-2.693-0.881
		c-0.726,0.701-1.177,1.682-1.177,2.771c0,0.145,0.009,0.284,0.024,0.426C62.357,78.111,62.376,78.229,62.4,78.346z"/>
	<path fill="#8A1840" d="M73.496,79.378c-0.269,0.047-0.546,0.08-0.83,0.08c-0.754,0-1.47-0.188-2.1-0.519
		c-0.108-0.057-0.218-0.115-0.321-0.184c-0.108-0.065-0.211-0.139-0.312-0.213c-0.194-0.142-0.376-0.302-0.542-0.471
		c-0.703,0.701-1.133,1.669-1.133,2.736c0,0.006,0,0.019,0,0.019c0,0.106,0.006,0.2,0.015,0.298
		c0.003,0.039,0.006,0.079,0.009,0.115c0.009,0.083,0.022,0.16,0.038,0.239c0.008,0.045,0.015,0.093,0.023,0.137
		c0.015,0.074,0.037,0.145,0.055,0.21c0.448,1.645,1.95,2.851,3.73,2.851c0.165,0,0.327-0.014,0.491-0.034
		c0.119-0.013,0.237-0.036,0.351-0.061c0.119-0.029,0.23-0.058,0.346-0.094c0.716-0.23,1.344-0.668,1.811-1.243
		c-1.009-0.843-1.651-2.108-1.651-3.52C73.477,79.607,73.487,79.493,73.496,79.378z"/>
	<path fill="#8A1840" d="M63.769,74.107c0.1,0.076,0.202,0.157,0.312,0.224c0.606,0.397,1.333,0.633,2.112,0.633
		c0.694,0,1.347-0.187,1.911-0.509c0.006-0.08,0.021-0.157,0.03-0.23c0.019-0.125,0.04-0.255,0.066-0.378
		c0.031-0.115,0.058-0.234,0.095-0.349c0.309-0.981,0.939-1.822,1.769-2.396v-0.009c0-2.132-1.736-3.872-3.87-3.872
		c-2.135,0-3.872,1.739-3.872,3.872c0,1.085,0.451,2.067,1.179,2.774C63.584,73.953,63.676,74.031,63.769,74.107z"/>
	
		<line fill="none" stroke="#8A1840" stroke-width="0" stroke-linecap="round" stroke-linejoin="round" x1="82.617" y1="63.867" x2="82.619" y2="63.867"/>
	<path fill="#8A1840" d="M82.615,63.867c-0.021,0.001-0.046,0.005-0.069,0.008c0.023-0.003,0.05-0.008,0.071-0.008H82.615z"/>
	<path fill="#8A1840" d="M72.773,71.007c-0.001,0-0.003,0-0.004,0c-0.035,0-0.067-0.012-0.104-0.012
		c-0.694,0-1.345,0.192-1.908,0.518c-0.139,0.074-0.273,0.163-0.4,0.257c-0.157,0.122-0.308,0.249-0.451,0.394
		c-0.442,0.453-0.775,1.011-0.954,1.635c-0.009,0.033-0.018,0.066-0.024,0.101c-0.033,0.125-0.06,0.255-0.082,0.384
		c-0.006,0.033-0.012,0.071-0.015,0.107c-0.015,0.112-0.021,0.219-0.027,0.334c-0.003,0.044-0.005,0.089-0.005,0.136v0.009
		c0,0.816,0.254,1.573,0.687,2.197c0.067,0.098,0.14,0.189,0.214,0.281c0.076,0.095,0.159,0.183,0.243,0.267
		c0.036,0.035,0.073,0.064,0.112,0.103c0.105,0.098,0.22,0.192,0.342,0.278c0.106,0.074,0.215,0.151,0.33,0.219
		c0.569,0.328,1.233,0.522,1.941,0.522c0.33,0,0.648-0.047,0.954-0.12c0.1-0.405,0.254-0.789,0.457-1.148
		c0.058-0.103,0.119-0.21,0.185-0.304c0.067-0.101,0.144-0.195,0.216-0.291c0.521-0.652,1.214-1.155,2.014-1.447
		c0.027-0.184,0.044-0.367,0.044-0.557c0-0.938-0.37-1.774-0.926-2.442c-0.767-0.669-1.704-1.177-2.842-1.42
		C72.77,71.007,72.771,71.007,72.773,71.007z"/>
	<path fill="#8A1840" d="M75.72,72.499c-0.076-0.095-0.154-0.184-0.238-0.275c0.079,0.085,0.157,0.177,0.231,0.271
		C75.716,72.499,75.718,72.499,75.72,72.499z"/>
	<path fill="#8CBD43" d="M68.393,58.276l-0.109,0.226c0.425,0.079,0.83,0.199,1.197,0.418l-0.166,0.191l0.844,0.281l-0.294,0.243
		l2.005,0.445l-0.136,0.282c-0.578-0.104-1.548-0.392-1.702-0.392c-0.081,0.185,0.036,0.351-0.104,0.387
		c-0.139,0.034-0.656,0.237-0.656,0.237l0.165,0.442l-0.647,0.069l0.216,0.225l-0.583,0.284l0.375,0.352
		c-0.264,0.188-0.608,0.69-0.582,0.982c0.179,0.011,0.333,0.05,0.399,0.136c-0.211,0.148-0.566,0.645-0.562,0.805
		c0.344,0.007,0.511,0.164,0.511,0.164s-0.988,1.988-0.773,2.896c0.719-1.221,2.332-2.157,2.75-2.457
		c0.197,0.136,0.161,0.387,0.194,0.615c0.193,0,0.393-0.037,0.59-0.142l0.328,0.521l0.475-0.452l0.233,0.085l0.319-0.911l0.35,0.023
		l-0.11-1.857l0.33-0.006l0.015,1.948l-0.422,0.361l0.188,0.39l-0.133,0.251l0.358,0.294l-0.239,1.041l0.854-0.899l0.569-0.015
		l0.084-0.26l0.595-0.185l0.03-0.642l0.024,0.064l0.395,0.393L76,64.056l-0.36-0.954l0.325-0.135l0.404,0.881l1.049,0.566
		l0.471-1.042l1.275,0.378l-0.231-1.451l0.15-0.241l-0.377-0.665l0.527,0.146c0,0,0.425-0.052,0.853-0.139
		c0.049-0.151,0.095-0.3,0.139-0.451c-0.656-0.555-1.468-0.833-2.857-0.927l-0.058-0.112c0,0,0.646-0.254,1.678-0.884
		c-0.015-0.206-0.213-0.333-0.213-0.333s0.818-0.5,0.866-0.873c-0.263-0.063-0.417,0.034-0.417,0.034
		c0.088-0.397-0.317-1.021-0.317-1.021s-0.2,0.182-0.468,0.312c-0.092-0.618-0.723-1.021-0.723-1.021l-0.161,0.292l-0.845-0.87
		l-0.276,0.269l-0.483-0.827l-0.407,0.343c0,0-0.547-0.364-0.523-0.404c-0.021,0.028-0.278,0.407-0.278,0.407
		s-0.727-0.56-1.839-0.339c0.375,0.042,0.638,0.663,0.638,0.663l-0.254,0.167l0.286,0.969l0.43,0.154l0.439,0.854l0.547,0.312
		l-0.145,0.3l-0.552-0.283l-0.417-1.104l-0.367,0.024l-0.346-0.417l-1.52-0.446l-0.087,0.64l-0.717,0.157l0.341,0.373l-0.223,0.127
		l-0.489-0.297c0,0-0.63-0.044-0.633-0.055l-0.106,0.279c-0.475,0.033-0.954,0.1-1.43,0.301l0.092,0.148
		c-0.306-0.012-0.636,0.118-0.864,0.239C67.835,58.117,68.142,58.148,68.393,58.276z M73.251,64.646
		c0.02-0.042,0.72-0.356,1.038-0.423c0.006-0.003,0.016,0,0.016,0.003c0,0,0,0.006-0.013,0.009
		C73.977,64.301,73.28,64.613,73.251,64.646z M73.629,63.275c0.036-0.067,0.994-0.454,1.419-0.572c0.014-0.003,0.02,0,0.022,0.006
		c0,0-0.003,0.008-0.019,0.015C74.632,62.836,73.672,63.218,73.629,63.275z M71.976,58.317c0.084,0.018,0.169,0.037,0.254,0.057
		c-0.085-0.353-0.53-1.005-0.588-1.017c0.066,0.006,0.522,0.667,0.604,1.021c0.437,0.103,0.878,0.23,1.311,0.375
		c-0.193-0.608-0.936-1.82-1.033-1.859c0.113,0.026,0.878,1.263,1.063,1.868c0.991,0.34,1.912,0.757,2.507,1.115
		c0.023,0.015,0.04,0.027,0.05,0.04c0.055-0.7-0.046-1.935-0.625-2.802c-0.092-0.145-0.188-0.281-0.286-0.405
		c-0.399,0.069-1.371,0.012-1.353-0.042c0,0.046,0.936,0.094,1.341,0.023c-0.478-0.607-0.975-0.934-0.948-0.94
		c0,0.008,0.413,0.269,0.849,0.769c-0.031-0.358-0.101-1.188-0.101-1.188c0.009,0.009,0.084,0.847,0.116,1.196v0.009
		c0.145,0.162,0.293,0.357,0.427,0.575c0.038,0.055,0.072,0.112,0.107,0.167c0.173-0.352,0.583-1.172,0.585-1.16
		c-0.003,0.002-0.407,0.829-0.576,1.181c0.195,0.338,0.325,0.722,0.41,1.1c0.438-0.352,1.251-1.442,1.241-1.433
		c0.01,0.015-0.788,1.099-1.232,1.451l-0.007,0.006c0.122,0.566,0.141,1.124,0.11,1.508c0,0.006,0,0.009-0.004,0.015
		c0.375-0.264,0.952-0.797,1.329-1.344c0.397-0.545,0.561-1.084,0.566-1.069c-0.002,0.006-0.158,0.547-0.551,1.093
		c-0.379,0.558-0.957,1.096-1.335,1.364c-0.01,0.009-0.021,0.012-0.026,0.014c0.006,0,0.015,0.007,0.023,0.009
		c0.314,0.176,0.639,0.523,0.945,0.93h0.006c0.622,0.003,2.134,0.023,2.119,0.033c-0.01,0.006-1.479-0.003-2.105-0.009
		c0.203,0.275,0.4,0.575,0.572,0.864c0.276,0.072,0.915,0.243,0.915,0.243s-0.623-0.152-0.902-0.228
		c0.405,0.673,0.696,1.271,0.736,1.321c-0.067-0.043-0.78-1.509-1.575-2.447c-0.052,0.484-0.056,1.581-0.015,1.641
		c-0.053-0.061-0.058-1.183-0.004-1.665c-0.238-0.278-0.484-0.506-0.718-0.64c0.002,0.015,0,0.033-0.006,0.061
		c-0.094,0.375-0.261,0.847-0.469,1.359c0.275,0.448,0.869,1.543,0.838,1.543c0.009-0.017-0.572-1.061-0.847-1.515
		c-0.234,0.563-0.512,1.174-0.797,1.737c0.225,0.375,0.627,1.274,0.593,1.274c0.02-0.014-0.378-0.874-0.602-1.257
		c-0.037,0.074-0.075,0.146-0.112,0.216c-0.576,1.139-1.24,1.963-1.243,1.932c0.011-0.009,0.652-0.842,1.21-1.977
		c0.315-0.627,0.636-1.327,0.893-1.974l-0.002,0.003c-0.601,0.176-1.918,0.854-1.962,0.945c0.036-0.106,1.347-0.795,1.954-0.969
		c0.009-0.006,0.018-0.006,0.023-0.006c0.197-0.5,0.361-0.964,0.452-1.331l0.002-0.015c-0.008,0.006-0.026,0.012-0.045,0.018
		c-1.042,0.352-2.607,1.008-4.019,1.899c-0.008,0.764-0.306,2.554-0.415,2.505c0.1,0.015,0.367-1.711,0.381-2.486
		c-0.472,0.3-0.926,0.627-1.341,0.974c-1.69,1.367-2.522,3.011-2.557,3.005c-0.018,0.032,0.41-0.864,1.309-1.905
		c-0.275,0.082-0.789,0.229-0.789,0.229c0.008-0.009,0.535-0.163,0.804-0.244c0.268-0.307,0.577-0.625,0.927-0.936
		c-0.457,0.014-1.378,0.15-1.429,0.197c0.048-0.059,0.999-0.205,1.45-0.216c0.064-0.057,0.13-0.111,0.198-0.166
		c0.275-0.246,0.572-0.476,0.881-0.694c-0.675-0.048-2.12-0.092-2.105-0.072c0.009-0.035,1.482,0,2.138,0.047
		c0.518-0.359,1.066-0.693,1.608-0.987c-0.476-0.109-1.253-0.254-1.932-0.306c-0.705-0.07-1.287,0.012-1.287,0.012
		c0.018-0.015,0.599-0.104,1.302-0.041c0.696,0.049,1.502,0.193,1.974,0.307c1.057-0.566,2.103-0.986,2.86-1.241
		c0.02-0.007,0.038-0.013,0.054-0.016c-0.006-0.006-0.016-0.009-0.028-0.015c-0.353-0.211-0.829-0.448-1.369-0.681
		c-0.003,0.003-0.006,0.006-0.006,0.006c-0.505,0.309-1.822,0.851-1.826,0.803c0.022,0.026,1.306-0.515,1.805-0.821
		c-0.726-0.309-1.566-0.604-2.377-0.806c0,0-0.003,0.004-0.006,0.006c-0.49,0.303-1.711,1-1.711,0.973
		c0.015,0.006,1.19-0.678,1.688-0.987c-0.104-0.027-0.206-0.049-0.307-0.07c-0.363-0.087-0.711-0.139-1.032-0.176
		c-0.367,0.191-1.236,0.583-1.24,0.551c0.012,0.018,0.833-0.36,1.206-0.554c-1.009-0.109-1.738-0.009-1.717-0.027
		C69.162,58.16,70.458,57.973,71.976,58.317z"/>
	<path fill="#8CBD43" d="M83.249,53.301c0.075,0.402,0.256,0.726,0.45,0.974c0.063,0.076,0.174,0.006,0.293-0.102
		c0.118-0.109,0.196-0.219,0.158-0.265c-0.095-0.121-0.191-0.275-0.261-0.451c0.143,0.006,0.285-0.006,0.424-0.033
		c0.239-0.052,0.548-0.188,0.675-0.509c0.152-0.325-0.072-0.728-0.332-0.849c-0.255-0.142-0.5-0.199-0.818-0.13
		c-0.482,0.182-0.608,0.581-0.623,0.93c-0.457-0.251-0.772-0.733-0.967-1.066c-0.267-0.473-0.395-0.797-0.433-0.791
		c-0.04-0.003,0.009,0.337,0.221,0.854C82.224,52.278,82.529,52.97,83.249,53.301z M83.983,52.45
		c0.222-0.082,0.664,0.124,0.56,0.288c-0.028,0.202-0.433,0.324-0.762,0.3C83.755,52.773,83.826,52.495,83.983,52.45z"/>
	<path fill="#8CBD43" d="M86.312,70.458c0.203,0.609,0.742,1.605,0.742,1.605l0.201-0.435l0.39,0.705l0.287-0.505
		c0,0,0.909,1.446,1.959,1.322v-0.006c0.357-0.033,0.884-0.011,1.215,0.346c-0.019-0.695-0.457-1.606-0.679-1.979
		c0.187-0.181,0.442-0.125,0.442-0.125s-0.621-0.979-0.942-1.068c0.285-0.318,0.964-0.35,0.964-0.35s-0.618-0.858-1.137-1.055
		c0,0,0.734-0.488,1.063-0.551c-0.404-0.434-0.9-1.009-1.665-1.241c0.085-0.455,0.319-0.446,0.319-0.446l-0.417-0.178l0.157-0.488
		l-0.845,0.327c0,0-0.152,0.034-0.323-0.015c-0.17,0.115-0.352,0.257-0.466,0.447c-0.243,0.4-0.948,0.648-0.961-0.115
		c-0.006-0.488,0.543-0.188,0.897-0.263c0.156-0.031,0.29-0.076,0.402-0.13c-0.11-0.066-0.203-0.179-0.243-0.381
		c0.192,0.127,0.827-0.243,0.827-0.243s-0.291-0.182-0.411-0.358c0.152-0.044,0.959-0.263,1.104-0.63
		c-0.121,0.022-0.49-0.232-0.49-0.232l0.624-0.41l-0.578-0.251l0.233-0.445c0,0-0.383-1.414-0.941-1.926
		c0.093,0.66-0.412,1.507-0.412,1.507s-0.128-0.426-0.285-0.586c-0.124,0.387-0.545,1.014-0.545,1.014s-0.271-0.648-0.391-1.05
		c-0.673,0.338-1.189,1.246-1.189,1.246s-0.134-0.211-0.397-0.781c-0.629,0.676-0.881,1.566-0.881,1.566s-0.74-0.612-1.32-0.436
		c0.705-0.042,1.002,0.874,0.633,1.485c0.368-0.613,0.071-1.523-0.636-1.483c-0.021,0-0.048,0.005-0.071,0.008
		s-0.047,0.004-0.071,0.009c-0.052,0.011-0.108,0.026-0.167,0.052c-0.538,0.225-1.064,0.47-1.584,0.725
		c-0.254-0.131-0.537-0.202-0.87-0.155c0,0,0.062,0.29,0.087,0.55c-0.002,0-0.002,0.001-0.003,0.001
		c-0.104,0.058-0.205,0.119-0.309,0.176c-0.002,0-0.002,0.001-0.002,0.001c-0.488-0.367-1.277-0.757-1.533-0.681
		c0.046,0.418,0.279,0.667,0.279,0.667l-0.238,0.315l-0.571,0.018c0,0,0.119,0.458,0.315,0.794c-0.082,0.06-0.171,0.114-0.251,0.172
		c-0.33-0.081-0.873-0.318-1.466-0.653c0.112,0.514,0.46,0.895,0.839,1.169c0.619-0.521,1.28-0.994,1.987-1.424
		c-0.104-0.162-0.191-0.275-0.245-0.292c0.061,0.01,0.146,0.124,0.254,0.285c-0.002,0-0.002,0-0.002,0l-0.009,0.008
		c-0.705,0.429-1.366,0.902-1.985,1.425c-0.265,0.228-0.52,0.461-0.767,0.706c-0.024,0.023-0.049,0.048-0.072,0.072
		c-0.023,0.025-0.047,0.049-0.07,0.074c-0.14,0.143-0.271,0.293-0.404,0.442c-0.068,0.074-0.138,0.144-0.202,0.22
		c-0.064,0.076-0.123,0.159-0.184,0.238c-0.04,0.052-0.08,0.101-0.118,0.152c-0.138,0.173-0.276,0.35-0.401,0.534
		c-0.226,0.34-0.445,0.688-0.639,1.059c-0.055,0.101-0.106,0.213-0.156,0.323c-0.052,0.103-0.11,0.21-0.158,0.322
		c-0.167-0.053-0.342-0.095-0.518-0.125c-0.173-0.023-0.352-0.041-0.531-0.047c0,0-0.004,0-0.007,0c-0.001,0-0.003,0-0.004,0
		c1.138,0.243,2.075,0.751,2.842,1.42c0.033,0.026,0.075,0.044,0.107,0.074c-0.001-0.003-0.002-0.003-0.004-0.007
		c-0.074-0.094-0.152-0.186-0.231-0.271c-0.006-0.009-0.012-0.016-0.019-0.021c0.046-0.124,0.091-0.248,0.146-0.367
		c0.049-0.112,0.109-0.218,0.164-0.332c0.089-0.177,0.198-0.342,0.298-0.514c0.08-0.136,0.151-0.278,0.237-0.408
		c0.104-0.152,0.219-0.297,0.328-0.447c0.058-0.075,0.117-0.15,0.176-0.227c0.033-0.043,0.064-0.087,0.1-0.129
		c0.159-0.194,0.329-0.378,0.505-0.561c0.046-0.045,0.09-0.09,0.137-0.136c0.223-0.224,0.514-0.373,0.754-0.577
		c0.142,0.042,0.255,0.079,0.255,0.079s-0.043,0.365-0.413,0.511c0.639,0.709,2.246-0.638,2.558-0.521l0.029,0.291
		c0,0-1.105,1.012-1.487,0.861l-0.359,0.293l0.396,0.389l-0.962,0.302l0.223,0.379l-0.619,0.429l0.396,0.332
		c0,0-1.243,0.42-1.872,0.49c0.363,0.267,1.296,0.483,1.296,0.483l-0.152,0.249L78.919,73c0,0-0.15,0.25-0.214,0.471
		c0.317,0.074,1.58-0.405,1.58-0.405s-0.186,0.2-0.242,0.387c0.198,0.112,1.48,0.015,1.849-0.317
		c0.234-0.479,1.012-2.828,1.485-2.235c0.472,0.591-0.948,1.367-0.948,1.367s-0.205,0.349-0.303,0.676
		c0.171,0.192,0.719,0.216,0.719,0.216c-0.089,0.045-0.799,0.529-0.878,0.834c0.277-0.009,0.381,0.153,0.381,0.153l-0.406,0.344
		c0,0,0.309,0.132,0.388,0.403c0.048,0.55-0.862,1.034-1.318,1.244c0.668,0.322,1.772-0.115,1.772-0.115l-0.051,0.255l0.764,0.012
		c0,0,0.147,0.271,0.229,0.792c0.227-0.083,0.66-0.798,0.66-0.798l0.363,0.035l-0.015,1.532l0.681-0.302l0.191,0.846l0.114-0.275
		c0,0,0.025,0.217,0.413,1.405c0.314-0.509,0.79-1.517,0.92-2.455c0,0,0.53-0.111,0.729,0c0.019-0.272,0.113-1.06-0.285-1.502
		c0.69-0.13,1.078-0.006,1.078-0.006c-0.131-0.437-0.671-1.204-0.671-1.204l0.79-0.162l-0.255-0.432c0,0,1.281,0.301,1.486,0.198
		c-0.229-0.37-0.376-0.671-0.408-0.736c-0.33-0.154-1.127-0.58-1.572-1.219c-0.159,0.331-0.244,0.583-0.244,0.583l-0.455-0.832
		l-0.209,0.562l-0.957-1.792c-0.332-0.006-0.635-0.092-0.539-0.531C85.614,69.662,86.104,69.853,86.312,70.458z M77.359,66.74
		c-0.053-0.018-0.083-0.034-0.09-0.049c0.011,0.009,0.043,0.023,0.098,0.04L77.359,66.74z M90.217,70.877
		c-0.005-0.012-0.873-0.023-1.237-0.012c-0.012-0.006-0.019-0.006-0.019-0.006c0.005-0.012,0.007-0.014,0.019-0.014
		C89.344,70.839,90.229,70.86,90.217,70.877z M90.264,69.701c0.006-0.021-1.932-0.521-2.734-0.188c-0.025,0.007-0.037,0-0.039-0.009
		c0,0,0.002-0.018,0.033-0.024C88.336,69.145,90.31,69.671,90.264,69.701z M90.112,68.177c0.007-0.122-2.823-0.324-3.985-0.157
		c-0.037,0.003-0.054-0.006-0.057-0.018c-0.003-0.013,0.006-0.027,0.047-0.034C87.296,67.796,90.168,68.038,90.112,68.177z
		 M82.813,65.777c0.001-0.001,0.001-0.001,0.002-0.001C82.814,65.776,82.814,65.776,82.813,65.777
		c0.124-0.052,0.226-0.124,0.312-0.202c0,0,0-0.001,0.002-0.004c0.01-0.007,0.021-0.016,0.021-0.016
		c0.176,0.575,0.242,1.104,0.167,1.338l-0.255-0.04c-0.352-0.036-0.648-0.358-0.952-0.752
		C82.345,65.993,82.576,65.876,82.813,65.777z M84.804,71.15l0.016,0.012c0.562,0.526,1.615,1.348,2.638,1.839
		c1.014,0.509,1.95,0.657,1.926,0.675c-0.01-0.006-0.948-0.143-1.966-0.645c-0.988-0.462-2-1.23-2.577-1.762
		c0.154,0.541,0.305,1.091,0.436,1.638c0.705,0.715,2.646,2.029,2.63,2.011c-0.025,0.012-1.857-1.204-2.611-1.935
		c0.082,0.341,0.154,0.674,0.222,1.003c0.048,0.225,0.093,0.441,0.136,0.654c0.384,0.748,1.771,1.893,1.886,1.916
		c-0.117-0.006-1.407-1.046-1.861-1.804c0.395,1.961,0.596,3.48,0.578,3.453c-0.021-0.016-0.173-0.998-0.448-2.389
		c-0.151,0.568-0.839,1.567-0.891,1.508c0.058,0.035,0.757-1.011,0.878-1.561c-0.107-0.55-0.235-1.162-0.385-1.804
		c-0.021-0.11-0.048-0.225-0.071-0.338c-0.125,0.447-0.399,1.116-0.697,1.657c-0.312,0.585-0.666,1.006-0.663,0.993
		c0,0,0.342-0.435,0.646-1.017c0.303-0.575,0.584-1.275,0.693-1.715c-0.171-0.757-0.381-1.532-0.608-2.289
		c-0.168,0.757-0.543,1.946-1.075,2.869c-0.536,0.997-1.307,1.556-1.293,1.532c0.003-0.009,0.75-0.58,1.267-1.573
		c0.537-0.968,0.908-2.212,1.061-2.958c-0.199-0.66-0.411-1.301-0.627-1.882c-0.368,0.251-0.901,0.788-1.266,1.312
		c-0.394,0.529-0.508,1.073-0.508,1.056c0,0,0.105-0.547,0.494-1.083c0.362-0.527,0.893-1.064,1.269-1.322
		c-0.125-0.333-0.246-0.647-0.362-0.938c-0.531,0.266-1.261,1.02-1.743,1.737c-0.499,0.723-0.675,1.438-0.681,1.425
		c-0.003-0.009,0.166-0.729,0.664-1.457c0.471-0.725,1.189-1.476,1.739-1.75c-0.096-0.231-0.187-0.442-0.274-0.637
		c-0.021-0.045-0.028-0.085-0.028-0.112c0,0-0.018,0.012-0.033,0.017c-0.933,0.274-1.941,1.601-2.586,2.797
		c-0.349,0.583-0.678,1.133-1.049,1.408c-0.35,0.266-0.655,0.168-0.677,0.162c0.006-0.009,0.327,0.092,0.683-0.207
		c0.356-0.284,0.671-0.834,1.01-1.416c0.624-1.184,1.626-2.525,2.583-2.816c-0.42-0.061-0.977-0.112-1.585-0.163
		c-0.265,0.403-1.204,0.983-1.204,0.954c0.013,0.012,0.915-0.558,1.182-0.954c-0.315-0.025-0.639-0.051-0.966-0.08
		c-0.233,0.321-0.83,0.655-1.378,0.763c-0.128,0.031-0.233,0.042-0.349,0.06c0.012-0.007,0.023-0.018,0.033-0.024
		c0.106-0.021,0.203-0.033,0.32-0.062c0.529-0.112,1.094-0.43,1.333-0.739c-0.185-0.015-0.359-0.03-0.545-0.044
		c-0.006,0.004-0.013,0.009-0.021,0.013c0.008-0.004,0.015-0.011,0.022-0.016c0.018-0.01,0.036-0.021,0.054-0.031
		c0.014-0.008,0.026-0.015,0.038-0.023c0.002,0,0.002-0.001,0.005-0.001c0.569,0.049,1.158,0.096,1.7,0.142
		c-0.198-0.16-0.38-0.451-0.56-0.758c0.002-0.002,0.009-0.006,0.012-0.006c0.006-0.001,0.008-0.003,0.014-0.006
		c0.189,0.321,0.382,0.625,0.583,0.767c0.004,0,0.006,0.006,0.006,0.006c0.523,0.048,1.003,0.09,1.37,0.136
		c0.025,0.003,0.043,0.012,0.056,0.018c0.009-0.005,0.029-0.015,0.043-0.023c0.26-0.136,0.561-0.33,0.881-0.561v-0.003
		c0-0.841,0.195-2.898,0.294-2.861c-0.085,0-0.251,1.974-0.256,2.837c0.274-0.204,0.564-0.433,0.855-0.679
		c0.142-0.427,0.304-1.172,0.474-1.805c0.081-0.345,0.192-0.646,0.28-0.845c-0.191,0.569-0.512,1.916-0.701,2.604
		c0.44-0.373,0.887-0.78,1.283-1.174c0.994-0.93,1.562-1.909,1.574-1.964c0.02,0.055-0.554,1.066-1.553,2.023
		c-0.011,0.014-0.025,0.026-0.036,0.037c0.568-0.096,1.841-0.055,1.91-0.125c-0.072,0.085-1.396,0.049-1.94,0.156
		c-0.373,0.37-0.782,0.749-1.19,1.098c0.561-0.018,1.729-0.055,1.795-0.109c-0.066,0.069-1.274,0.116-1.823,0.138
		c-0.645,0.549-1.286,1.032-1.804,1.298c0.008,0.003,0.016,0.009,0.023,0.009c1.127,0.573,2.976,1.7,4.437,2.82
		c1.506,1.083,2.404,2.347,2.329,2.353c0.024-0.039-0.902-1.261-2.402-2.316c-1.441-1.079-3.245-2.16-4.365-2.735
		C83.913,68.425,84.389,69.74,84.804,71.15z"/>
	<polygon fill="#8CBD43" points="77.003,67.036 77.001,67.034 77.001,67.036 	"/>
	<path fill="#8A1840" d="M78.066,75.858c-0.331,0-0.649,0.047-0.954,0.121c-0.137,0.039-0.272,0.081-0.403,0.127
		c-0.151,0.059-0.307,0.124-0.452,0.201c-0.46,0.242-0.865,0.58-1.193,0.981c-0.076,0.093-0.145,0.184-0.215,0.284
		c-0.067,0.1-0.13,0.207-0.188,0.313c-0.072,0.131-0.13,0.261-0.188,0.402c-0.06,0.153-0.109,0.314-0.15,0.471
		c-0.037,0.136-0.064,0.275-0.085,0.41c-0.027,0.184-0.042,0.366-0.042,0.556c0,1.165,0.518,2.213,1.335,2.92
		c0.09,0.08,0.188,0.154,0.284,0.228c0.098,0.065,0.196,0.134,0.301,0.195c0.571,0.335,1.239,0.525,1.951,0.525
		c2.131,0,3.868-1.731,3.868-3.868C81.935,77.595,80.197,75.858,78.066,75.858z"/>
</g>
</svg>
