<?xml version="1.0" encoding="utf-8"?>
<!-- Generator: Adobe Illustrator 18.1.0, SVG Export Plug-In . SVG Version: 6.00 Build 0)  -->
<svg version="1.1" id="Layer_1" xmlns="http://www.w3.org/2000/svg" xmlns:xlink="http://www.w3.org/1999/xlink" x="0px" y="0px"
	 viewBox="0 0 150 150" enable-background="new 0 0 150 150" xml:space="preserve">
<g>
	<path fill="#C170AE" d="M59.6,30.8c0,0-9.3-5.5-19.6,3.4c-3.7,3.2-5.8,7.9-6.6,12.8c-12-3.6-21.1-7-22-16.5c0,0-8,26.7,6.8,43.3
		c14.8,16.6,33.1,8.4,35.8,0.5c0,0-12,10.3-28.1-1.4C10,61.1,12,42.1,12,42.1s5.3,7.7,18.8,9.9c0.8,0.1,1.6,0.3,2.4,0.4
		c0.3,7,3.3,13.5,8.4,15.7c10,4.3,11.8-15.1-2.8-19.5c-0.5-0.2-1.1-0.3-1.6-0.5c0.2-1.2,0.5-2.4,0.9-3.6
		C42.1,32.2,54.1,30.3,59.6,30.8z M46.1,65.7c-3.4,4.2-8.6-3.1-9.1-12.3C46.1,56.1,49.9,61.1,46.1,65.7z"/>
	<path fill="#C170AE" d="M74.2,29.4c-5.3-1.7-19.3,1.7-19.6,11.8c-0.3,10.1,5.3,10.8,11,31.7C71.4,93.8,50.1,100,50.1,100
		S67.7,99.3,71.9,83c4.3-16.3-6.4-25.8-10.8-38.7C56.8,31.2,74.2,29.4,74.2,29.4z M32.7,100.2c0.1-0.2,0-0.4-0.2-0.5
		c-0.2-0.1-0.4,0-0.5,0.2c-1.5,2.4-5.9,8.4-8.6,7.6c-0.2,0-0.2-0.1-0.2-0.2c0-2.3,15-14.4,32.7-19.8c0.2-0.1,0.4-0.3,0.3-0.5
		c-0.1-0.2-0.3-0.4-0.5-0.3c-1,0.2-24,5.6-32.6,15.1c-4.7,5.2-4.6,7.5-3.7,8.5c1.4,1.5,5,0.5,7.4-1.4
		C31.3,105.2,32.6,100.4,32.7,100.2z M36.4,117.2c-0.2,0-0.4,0.2-0.4,0.4c-0.3,3.3-1.8,12-5.1,12.5c-0.3,0-0.3,0-0.4-0.2
		c-1.3-2.6,8-22.8,24.1-37.7c0.2-0.2,0.2-0.4,0-0.6c-0.2-0.2-0.4-0.2-0.6-0.1c-0.9,0.7-22.5,18.1-26.6,32.5
		c-2.3,8.3-0.6,10.3,0.7,10.8c2.3,0.9,5.5-2,7-5.2c3-6.1,1.8-12,1.7-12.2C36.8,117.3,36.6,117.2,36.4,117.2z"/>
	<path fill="#C1A2CD" d="M84.4,72.9c5.8-20.9,11.3-21.6,11-31.7C95.1,31,81.1,27.7,75.8,29.4c0,0,17.4,1.9,13,14.9
		c-4.4,12.9-15,22.4-10.8,38.7C82.3,99.3,99.9,100,99.9,100S78.6,93.8,84.4,72.9z"/>
	<path fill="#C1A2CD" d="M138.5,31.1c-0.9,9.5-10,12.9-22,16.5c-0.8-4.9-2.9-9.6-6.6-12.8c-10.3-8.9-19.6-3.4-19.6-3.4
		c5.5-0.5,17.5,1.4,21.6,13.7c0.4,1.2,0.7,2.4,0.9,3.6c-0.5,0.2-1.1,0.3-1.6,0.5c-14.5,4.3-12.8,23.8-2.8,19.5
		c5.1-2.2,8.1-8.7,8.4-15.7c0.8-0.2,1.6-0.3,2.4-0.4c13.5-2.2,18.8-9.9,18.8-9.9s2,19-14,30.8c-16,11.8-28.1,1.4-28.1,1.4
		c2.8,7.9,21.1,16.1,35.8-0.5C146.5,57.8,138.5,31.1,138.5,31.1z M103.9,66.2c-3.8-4.6,0-9.5,9.1-12.3
		C112.5,63.1,107.3,70.4,103.9,66.2z"/>
	<path fill="#C1A2CD" d="M127.1,102.3c-8.7-9.5-31.7-14.9-32.6-15.1c-0.2-0.1-0.5,0.1-0.5,0.3c-0.1,0.2,0.1,0.5,0.3,0.5
		c17.7,5.4,32.7,17.5,32.7,19.9c0,0.1,0,0.1-0.2,0.2c-2.7,0.8-7.2-5.2-8.6-7.6c-0.1-0.2-0.3-0.3-0.5-0.2c-0.2,0.1-0.3,0.3-0.2,0.5
		c0.1,0.2,1.4,5.1,6,8.7c2.4,1.9,6,2.9,7.4,1.4C131.7,109.7,131.8,107.4,127.1,102.3z"/>
	<path fill="#C1A2CD" d="M123.4,124.7c-4.1-14.5-25.6-31.8-26.6-32.5c-0.2-0.1-0.4-0.1-0.6,0.1c-0.2,0.2-0.1,0.4,0,0.6
		c16.1,14.9,25.3,35.1,24.1,37.7c-0.1,0.1-0.1,0.2-0.4,0.2c-3.3-0.6-4.8-9.2-5.1-12.5c0-0.2-0.2-0.4-0.4-0.4c-0.2,0-0.4,0.1-0.5,0.3
		c-0.1,0.2-1.3,6.1,1.7,12.2c1.5,3.2,4.7,6,7,5.2C124,135,125.7,133,123.4,124.7z"/>
</g>
</svg>
