<?xml version="1.0" encoding="iso-8859-1"?>
<!-- Generator: Adobe Illustrator 13.0.0, SVG Export Plug-In . SVG Version: 6.00 Build 14948)  -->
<!DOCTYPE svg PUBLIC "-//W3C//DTD SVG 1.1//EN" "http://www.w3.org/Graphics/SVG/1.1/DTD/svg11.dtd">
<svg version="1.1" id="Layer_1" xmlns="http://www.w3.org/2000/svg" xmlns:xlink="http://www.w3.org/1999/xlink" x="0px" y="0px"
	 width="100px" height="100px" viewBox="0 0 100 100" enable-background="new 0 0 100 100" xml:space="preserve">
<g>
	<g>
		<path fill="#314592" d="M28.561,45.408c6.631-0.661,12.803-3.854,17.868-8.071c4.14-3.472,7.557-7.737,10.354-12.343
			c0.946,2.79,1.823,5.608,2.77,8.398c-4.711,8.774-12.845,16.163-22.739,18.362C34.064,49.639,31.316,47.517,28.561,45.408z"/>
		<path fill="#314592" d="M52.469,59.324c4.599-0.521,8.259-4.008,10.388-7.932c8.69,11.467,17.374,22.926,26.058,34.4
			c-0.974,2.436-2.449,4.801-4.703,6.234c-1.064,0.682-2.303,0.994-3.549,1.078C71.27,81.84,61.875,70.576,52.469,59.324z"/>
	</g>
	<g>
		<path fill="#BA2B2B" d="M37.815,52.533c7.055-0.793,13.436-4.773,18.188-9.915c2.024-2.178,3.771-4.599,5.315-7.132
			c0.773,2.338,1.531,4.683,2.311,7.027c-3.924,7.313-10.694,13.401-18.905,15.314C42.4,56.096,40.125,54.287,37.815,52.533z"/>
		<g>
			<path fill="#BA2B2B" d="M35.178,27.478c0.612-0.424,1.231-0.849,1.858-1.266c1.419,1.607,2.609,3.396,3.994,5.03
				c0.021,0.411,0.056,0.821,0.083,1.232c-0.828,0.786-1.614,1.621-2.345,2.498c-1.308-2.379-3.994-3.423-5.552-5.587
				c0.647-0.146,1.377-0.745,2.039-0.313c1.844,1.044,2.574,3.639,4.822,4.008C38.894,30.832,36.556,29.572,35.178,27.478z"/>
			<g>
				<g>
					<path fill="#BA2B2B" d="M30.759,23.484c-2.658-4.05-5.573-7.912-8.461-11.794c3.883,2.936,7.223,6.506,10.875,9.699
						c0.689-0.466,1.364-0.953,2.032-1.447c-0.647-4.683-1.774-9.261-2.554-13.902c2.261,4.07,3.792,8.502,5.977,12.615
						c0.758-0.167,1.51-0.341,2.261-0.515c1.357-3.757,3.243-7.313,4.307-11.175c0.327,3.361-0.216,6.75-0.348,10.11
						c-0.056,1.016,0.334,1.969,0.842,2.825c-0.25,0.16-0.759,0.487-1.009,0.654c0.459,0.39,0.953,0.751,1.454,1.1
						c-0.104-0.341-0.32-1.03-0.425-1.371c3.486,0.619,6.757-1.002,10.075-1.768c-2.143,2.366-4.759,4.196-7.25,6.158
						c0.494,1.489,0.452,3.243,1.343,4.551c-1.906,0.285-3.952,0.522-5.566,1.656c-1.238-2.31-2.839-4.376-4.188-6.61
						c0.737-0.125,1.663-0.529,2.212,0.229c1.419,1.649,1.816,3.924,3.243,5.587c0.028-0.306,0.09-0.905,0.118-1.211
						c-0.933-1.865-2.004-3.66-2.755-5.608c0.717,0.216,1.628,0.236,2.025,0.995c0.939,1.621,1.183,3.562,2.373,5.051
						c0.188-2.115-1.141-3.917-1.649-5.886c1.35,0.751,1.969,2.136,2.4,3.542c0.181,0.542,1.691,0.821,0.396-0.459
						c-0.508-1.482-1.197-3.193-2.832-3.708c-2.338-0.835-4.787,0.209-6.902,1.197c-0.083,0.362-0.174,0.738-0.25,1.106
						c2.463,0.383,3.013,3.263,4.432,4.933l0.271,0.202c0.919,0.682-0.891,1.371-1.245,1.907c-0.209-0.153-0.612-0.466-0.814-0.619
						l0.508-0.334c-1.211-2.025-2.818-3.771-4.057-5.775l0.64-0.334c-0.118-0.153-0.355-0.452-0.473-0.605
						c-2.922,2.234-5.935,4.808-7.111,8.413c-0.633,1.809-0.286,4.133,1.447,5.211c1.44,0.856,3.11,1.252,4.724,1.628
						c-1.774-1.44-4.516-1.621-5.545-3.924c2.303,0.445,4.105,2.053,6.241,2.922c-0.208,0.675-0.403,1.343-0.598,2.018
						c-1.538-0.661-3.069-1.329-4.564-2.074c-2.415,2.178-4.836,4.356-7.278,6.513c0.355-1.022,0.731-2.032,1.141-3.026
						l-0.487-0.139c0.536-0.244,1.085-0.473,1.649-0.668l-0.48,1.127c1.169-1.663,2.546-3.201,3.493-5.017
						c-0.236-0.313-0.487-0.619-0.744-0.905c-0.884,1.419-1.81,2.867-2.136,4.53c-0.432-0.264-0.849-0.557-1.259-0.849l0.695,0.327
						c0.592-1.377,1.211-2.741,1.781-4.133c-1.148-1.225-2.644-2.143-4.369-2.143c-3.09-0.042-6.13-0.599-9.199-0.897
						c3.319-1.155,6.888-1.252,10.242-2.262c1.197-0.292,2.039-1.398,1.969-2.63c-3.792-2.616-7.717-5.044-11.613-7.494
						c4.572,1.043,8.858,3.02,13.318,4.418C29.639,24.785,30.203,24.131,30.759,23.484z M34.252,11.69
						c0.348,2.567,1.197,5.051,1.447,7.626c0.118,1.747-1.566,2.721-2.804,3.562c-0.049,0.995,0.035,1.997,0.32,2.957
						c1.51-1.357,3.047-2.721,4.87-3.667C36.75,18.704,35.964,15.009,34.252,11.69z M20.83,23.331
						c2.63,1.413,5.323,2.707,7.953,4.126c0.098,1.204,0.348,2.387,0.988,3.423c0.724-1.356,1.35-2.776,2.379-3.945
						c-0.334-0.87-0.64-1.747-0.918-2.637c-0.696,0.633-1.398,1.266-2.087,1.893C26.369,25.251,23.704,23.957,20.83,23.331z
						 M41.607,19.003c-0.87,0.09-1.732,0.188-2.602,0.306c0.167,0.737,0.327,1.468,0.501,2.199c1.405-0.258,2.839-0.411,4.265-0.571
						c-0.292-0.668-0.599-1.322-0.898-1.983c0.271-2.178,0.779-4.307,1.19-6.457C43.089,14.605,42.456,16.846,41.607,19.003z
						 M19.119,33.037c2.637,0.104,5.274-0.278,7.911-0.021c0.584,1.023,1.308,1.955,2.317,2.595
						c-0.027-1.043-0.056-2.08,0.049-3.117c-0.55-0.716-1.085-1.433-1.628-2.15c-0.16,0.25-0.494,0.751-0.661,1.002
						C24.504,32.104,21.721,32.216,19.119,33.037z M46.965,21.834c0.09,0.32,0.174,0.633,0.271,0.954
						c1.447-0.654,2.922-1.315,4.126-2.38C49.873,20.812,48.405,21.292,46.965,21.834z M48.454,28.076"/>
				</g>
			</g>
			<g>
				<path fill="#BA2B2B" d="M34.252,11.69c1.711,3.319,2.498,7.014,3.833,10.479c-1.823,0.946-3.36,2.31-4.87,3.667
					c-0.286-0.96-0.369-1.962-0.32-2.957c1.238-0.842,2.922-1.816,2.804-3.562C35.449,16.741,34.6,14.257,34.252,11.69z"/>
			</g>
			<g>
				<path fill="#BA2B2B" d="M41.607,19.003c0.849-2.157,1.482-4.397,2.456-6.506c-0.411,2.15-0.918,4.279-1.19,6.457
					c0.299,0.661,0.605,1.315,0.898,1.983c-1.426,0.16-2.86,0.313-4.265,0.571c-0.174-0.731-0.334-1.461-0.501-2.199
					C39.875,19.19,40.737,19.093,41.607,19.003z"/>
			</g>
			<g>
				<path fill="#BA2B2B" d="M19.119,33.037c2.602-0.821,5.385-0.933,7.988-1.691c0.167-0.25,0.501-0.751,0.661-1.002
					c0.542,0.717,1.078,1.434,1.628,2.15c-0.104,1.037-0.076,2.074-0.049,3.117c-1.009-0.64-1.732-1.572-2.317-2.595
					C24.393,32.759,21.756,33.142,19.119,33.037z"/>
			</g>
			<g>
				<path fill="#BA2B2B" d="M37.731,36.788c-1.211-2.512-4.801-2.776-5.469-5.643c2.804-0.188,4.063,2.88,6.228,4.105
					c-0.355,0.933-0.675,1.886-0.87,2.867c-2.143-1.454-5.205-2.06-6.262-4.676C33.932,33.51,35.345,36.182,37.731,36.788z"/>
			</g>
			<g>
				<path fill="#BA2B2B" d="M46.965,21.834c1.44-0.542,2.908-1.022,4.397-1.426c-1.204,1.064-2.679,1.726-4.126,2.38
					C47.139,22.468,47.055,22.155,46.965,21.834z"/>
			</g>
			<g>
				<path fill="#BA2B2B" d="M48.454,28.076"/>
			</g>
		</g>
	</g>
</g>
</svg>
