<?xml version="1.0" encoding="utf-8"?>
<!-- Generator: Adobe Illustrator 18.1.0, SVG Export Plug-In . SVG Version: 6.00 Build 0)  -->
<svg version="1.1" id="Layer_1" xmlns="http://www.w3.org/2000/svg" xmlns:xlink="http://www.w3.org/1999/xlink" x="0px" y="0px"
	 viewBox="0 0 150 150" enable-background="new 0 0 150 150" xml:space="preserve">
<g>
	<g>
		<path fill="none" d="M77.5,105c0.3-0.1,0.6-0.1,0.8-0.2l1-0.7c-0.6,0.1-1.3,0.1-1.9,0.2L77.5,105z"/>
		<path fill="#006C86" d="M78.4,78.4c7.5-5.2,16.1-8,22.9-9.8c4.3-0.8,9.4-1.7,14.8-1.7c1,0,1.9,0.1,2.9,0.2
			C110.6,60,102.7,54,93.5,47.7C72.7,33.5,49.7,21.8,25,16.1c-0.3,0.3-0.5,0.6-0.8,1c1.3,1.8,2.7,3.5,3.9,5.2
			c4.2,5.9,7.2,12.5,9.7,19.2c2.2,5.8,3.3,11.8,4.8,17.8c0.6,2.1,0.9,5.6,1.3,8.8c10.9,1.1,21.9,5.2,32.1,11.8L78.4,78.4z"/>
		<path fill="#006C86" d="M92.5,35.2c0.6,0,1.4,0.1,1.5-0.7c0-3,0-6,0-9c0-0.7,0-0.9-0.3-1.7c-1-2.6-3.4-4.3-5.9-4.9
			c-3.3-0.8-5.6-0.2-5.6,0.8c-0.1,2.9,0,5.7-0.1,8.6c0.6,0.5,1.3,0.9,1.9,1.3C86.9,31.3,89.5,33.5,92.5,35.2z"/>
		<path fill="#006C86" d="M33,38.7c-0.2-0.4-8.3-16.2-9.5-16.7c0,0.2-0.1,0.7-0.1,1c-0.3,0.5-0.3,1.1-0.4,1.7
			c-0.2,0.4-0.3,0.9-0.4,1.4c-0.2,0.7-0.3,1.4-0.4,2.1c-0.1,0.5-0.2,0.9-0.3,1.4c-0.1,0.5-0.2,0.9-0.4,1.4c-0.1,0.3-0.1,0.6-0.2,0.9
			c-0.3,0.5-0.3,1.1-0.3,1.7c-0.4,0.9-0.4,1.9-0.2,2.8c0.8,1.5,1.9,2.8,2.7,4.2c1.8,2.9,3.8,5.8,5.6,8.7c2.7,4.2,6.9,13.1,9.5,18.6
			c0.9,0,1.9,0.1,2.8,0.1C40.2,58.6,36.1,45.7,33,38.7z"/>
		<path fill="#006C86" d="M116.4,60.8c1,0.7,1.9,1.6,3.1,2.1c0-0.4,0.1-0.9,0.1-1.3c0.5-1.1,0.3-2.3,0.2-3.5
			c-9.2-7.2-18.4-14.5-28-21.2c-3.2-2.3-6.7-4.1-9.9-6.2c-0.6,0-1.2,0-1.8,0.2c-0.5,0.1-0.9,0.2-1.3,0.4c-0.3,0-0.6,0.1-1,0.2
			c-1.5,0.7-3.2,0-4.8-0.1c0,0.2,0.2,0.7,0.2,0.9C88.2,41,102.7,50.4,116.4,60.8z"/>
		<path fill="#006C86" d="M98.2,37c0.1,0.4,0.2,0.7,0.4,1.1c1.8,2.7,5,4,7.6,5.9c0.3,0.3,0.6,0.4,0.7,0.2c0.6-2.4,0.1-3.6,0.2-5.3
			v-3.3c-1.4-1.5-5.7-5.6-7.7-4.9c-0.2,0.1-0.6,0.3-0.8,0.5c-1.2,1.2-0.8,2.8-0.7,4.6C97.9,36.1,98.1,36.7,98.2,37z"/>
		<path fill="#006C86" d="M116.7,52.8c0.2,0.1,0.6,0.2,0.7,0.1c0.3-0.2,0.3-0.5,0.4-1c0-0.9,0.5-4.2,0-5.1c-0.8-1.6-2.5-2.4-3.9-3.5
			c-2.5-0.9-3.9-0.4-3.9,0.1c0,0.9,0,1.8,0,2.7C110,47.7,114.4,51.2,116.7,52.8z"/>
	</g>
	<path fill="#006C86" d="M118.1,84.4c-9.6,4.4-18.7,10.2-27.2,16.4c4.8,0,9.6-0.1,14.4,0.4c1.5,0.3,3,0.7,4.6,1
		c6.1,1.4,11.9,4,16.8,7.9c6.6-4.7,11.3-11.6,15-18.7c0.9-1.6,1.4-3.5,1.7-5.3C136.4,81.9,123.2,82,118.1,84.4z"/>
	<path fill="#009FC5" d="M45.6,112.3c2.4-0.3,4.7-0.7,7.1-1.1c8.3-1.5,15.8-5.3,23.7-7.8c-9-1-17.9-3-26-6.9c-7-3-13.1-8.2-20.6-10
		c-5.5-1.5-11.5-1.7-16.9-0.1c-1.5,0.4-3.6,1.4-5.6,2.2c0.4,1.4,0.6,2.9,1.3,4.3c2.1,4.7,7.4,12.1,13.5,15.3
		C29.1,112.3,37.6,112.8,45.6,112.3z"/>
	<path fill="#00B5E0" d="M107.1,106.7l-0.1-0.2c-17.8-3.3-34.6,5.2-51.6,8.9c-13,2.8-27.3,1.9-39.3-4.5c5,5.8,11.2,10.5,17.8,14.4
		c3,1.9,6.1,3.5,9.4,4.9c3,1.3,6.2,2.5,9.4,3.3c25.5,7.8,53.3-2.3,72.4-19.8c-0.6-0.3-1.9-1-2.5-1.4
		C117.8,109.6,112.5,107.7,107.1,106.7z"/>
	<path fill="#72CDE5" d="M37.3,72c-3.7,0.1-7.3,0.5-10.9,1.1c-6.8,1.9-14,3.8-19.7,8.2c9.7-2.1,20.2-3.5,29.4,1
		c8,4.3,15.2,9.9,23.8,13c6.9,2.7,14.5,3.4,21.7,1.9c2-0.4,4-0.9,5.9-1.3c-2-3-5.6-6.1-7.7-7.8C68,78.4,53,71.7,37.3,72z"/>
	<path fill="#00B5E0" d="M121.3,71.3c-6.2-0.8-12.5,0-18.6,1.2c-7.4,2-14.9,4.6-21.2,9c1.7,1.8,2.4,2.4,3.5,3.5
		c0.9,0.8,1.8,1.7,2.6,2.5c1.9,2.1,3.6,4.2,5.3,6.5c8.8-7.8,19.4-14.1,31.2-15.9c7.1-0.7,14.3,0.6,20.6,3.9c-4.7-4.6-11-8-17.3-9.4
		C125.4,72,123.3,71.6,121.3,71.3z"/>
</g>
</svg>
