<?xml version="1.0" encoding="utf-8"?>
<!-- Generator: Adobe Illustrator 18.1.0, SVG Export Plug-In . SVG Version: 6.00 Build 0)  -->
<svg version="1.0" id="Layer_1" xmlns="http://www.w3.org/2000/svg" xmlns:xlink="http://www.w3.org/1999/xlink" x="0px" y="0px"
	 viewBox="0 0 150 150" enable-background="new 0 0 150 150" xml:space="preserve">
<g>
	<path fill="none" d="M56.7,57.8c1.5,1.7,2.5,3.8,3,6.2l15.9,0.3L91.4,64c0.5-2.4,1.5-4.5,3-6.2l-18.8,0L56.7,57.8z"/>
	<polygon fill="none" points="60,135 60,129.8 60,135 	"/>
	<path fill="none" d="M105.3,78.7c3.2,0,6.1-1.3,8.4-3.7c5.6-6,5.6-15.6-0.1-21.4c-4.4-4.5-9.7-4.9-17.7-5.4l-20.4,0l-20.4,0
		c-8.3,0.5-13.3,0.8-17.7,5.4C31.9,59.4,31.8,69,37.4,75c2.2,2.4,5.2,3.7,8.4,3.7c3.1,0,6.1-1.3,8.4-3.7c3.9-4.2,3.9-10.9,0-15.1
		c-3.1-3.3-8.4-3.3-11.5,0c-2.7,2.9-2.7,7.5,0,10.4c2.1,2.2,5.7,2.2,7.8,0c1.4-1.5,1.7-3.7,0.9-5.6c0.6,1.7,0.3,3.6-0.9,5
		c-1.9,2-5.2,2-7,0c-2.1-2.3-2.1-5.9,0-8.2c2.3-2.5,6.6-2.5,9,0c2.7,2.8,3.6,7.9,0.8,11c-1.5,1.6-4.2,2.7-6.5,2.7
		c-2.2,0-5.4-1.4-6.9-3c-3.8-4-2.4-10.5,1-14.1c2-2.2,4.8-3.4,7.7-3.4c1.2,0,2.3,0.1,3.3,0.3l48,0c0.8-0.2,1.8-0.3,3.1-0.3
		c2.9,0,5.7,1.2,7.7,3.4c3.4,3.6,4.8,10.1,1,14.1c-1.5,1.6-4.7,3-7,3c-2.3,0-4.9-1.1-6.5-2.7c-2.9-3.1-1.9-8.1,0.8-11
		c2.4-2.5,6.6-2.5,9,0c2.1,2.3,2.1,5.9,0,8.2c-1.9,2-5.2,2-7,0c-1.2-1.3-1.5-3.2-1-4.8c-0.7,1.8-0.4,3.9,1,5.4
		c2.1,2.2,5.7,2.2,7.8,0c2.7-2.9,2.7-7.5,0-10.4c-1.5-1.6-3.6-2.5-5.8-2.5c-2.2,0-4.2,0.9-5.8,2.5c-3.9,4.1-3.9,10.9,0,15.1
		C99.2,77.4,102.2,78.7,105.3,78.7z"/>
	<path fill="none" d="M93.9,75.3c-0.2-0.2-0.3-0.4-0.5-0.6l-17.9-0.2l-17.9,0.3c-0.2,0.2-0.3,0.3-0.5,0.6c0.2,1.1,1.2,1.7,2.3,1.7
		h32.1C92.7,77,93.7,76.4,93.9,75.3z"/>
	<path fill="none" d="M116.3,17H34.9C24.9,17,17,25.6,17,35.5v81.4c0,10,7.9,18.1,17.9,18.1H57v-6.3V79.8c-1-0.4-1.4-1.1-1.8-2
		c-2.6,2.3-5.9,3.5-9.3,3.5c-4.3,0-8.5-1.7-11-4.3c-6.7-7.1-6.7-18.9-0.1-25.7c4.7-4.8,10.6-5.1,18-5.6l1.3-0.1l44.2,0.1
		c7.5,0.4,13.3,0.8,18,5.6c6.6,6.8,6.6,18.6-0.1,25.7c-2.5,2.7-6.7,4.3-11,4.3c-3.4,0-6.8-1.3-9.4-3.5c-0.4,0.9-0.9,1.6-1.9,2v46.7
		v8.5h22.3c10,0,17.7-8.1,17.7-18.1V35.5C134,25.6,126.2,17,116.3,17z"/>
	<polygon fill="#B32C25" points="71.7,80.2 71.7,140.2 78.6,140.2 78.6,80.2 75.6,80.2 	"/>
	<path fill="#1E2E3E" d="M116.3,12.3H34.9c-12.8,0-23.3,10.4-23.3,23.3v81.4c0,12.8,10.4,23.3,23.3,23.3h27.5v0h2.3V80.3l7-0.1
		l3.9,0l3,0l8.7,0.1v59.9h1.4v0h27.7c12.8,0,23.3-10.4,23.3-23.3V35.5C139.5,22.7,129.1,12.3,116.3,12.3z M97,59.9
		c1.5-1.6,3.6-2.5,5.8-2.5c2.2,0,4.2,0.9,5.8,2.5c2.7,2.9,2.7,7.5,0,10.4c-2.1,2.2-5.7,2.2-7.8,0c-1.4-1.5-1.7-3.6-1-5.4
		c-0.5,1.6-0.2,3.5,1,4.8c1.9,2,5.2,2,7,0c2.1-2.3,2.1-5.9,0-8.2c-2.4-2.5-6.6-2.5-9,0c-2.7,2.8-3.6,7.9-0.8,11
		c1.5,1.6,4.2,2.7,6.5,2.7c2.3,0,5.4-1.4,7-3c3.8-4,2.5-10.5-1-14.1c-2.1-2.2-4.8-3.4-7.7-3.4c-1.2,0-2.3,0.1-3.1,0.3l-48,0
		c-1-0.2-2.1-0.3-3.3-0.3c-2.9,0-5.7,1.2-7.7,3.4c-3.4,3.6-4.8,10.1-1,14.1c1.5,1.6,4.7,3,6.9,3c2.3,0,4.9-1.1,6.5-2.7
		c2.9-3.1,1.9-8.1-0.8-11c-2.4-2.5-6.6-2.5-9,0c-2.1,2.3-2.1,5.9,0,8.2c1.8,2,5.2,2,7,0c1.3-1.3,1.6-3.3,0.9-5
		c0.8,1.8,0.5,4.1-0.9,5.6c-2.1,2.2-5.7,2.2-7.8,0c-2.7-2.9-2.7-7.5,0-10.4c3.1-3.3,8.4-3.3,11.5,0c3.9,4.1,3.9,10.9,0,15.1
		c-2.2,2.4-5.2,3.7-8.4,3.7c-3.1,0-6.1-1.3-8.4-3.7c-5.6-6-5.6-15.6,0.1-21.4c4.4-4.5,9.4-4.8,17.7-5.4l20.4,0l20.4,0
		c8,0.5,13.3,0.8,17.7,5.4c5.7,5.8,5.7,15.4,0.1,21.4c-2.2,2.4-5.2,3.7-8.4,3.7c-3.1,0-6.1-1.3-8.3-3.7C93.1,70.8,93.1,64.1,97,59.9
		z M91.4,64l-15.9,0.3L59.7,64c-0.5-2.4-1.5-4.5-3-6.2l18.9,0l18.8,0C92.9,59.5,91.9,61.6,91.4,64z M60,135L60,135v-5.3V135z
		 M59.5,77.3c-1.1,0-2.1-0.8-2.3-1.9c0.2-0.2,0.3-0.5,0.5-0.7l17.9-0.3l17.9,0.3c0.1,0.2,0.3,0.5,0.5,0.7c-0.2,1.1-1.2,1.9-2.3,1.9
		H59.5z M134.4,116.9c0,10-8.1,18.1-18.1,18.1h-22v-8.5V79.8c0.7-0.4,1.3-1.2,1.8-2c2.6,2.3,5.9,3.5,9.3,3.5c4.2,0,8.5-1.7,11-4.3
		c6.7-7.1,6.7-18.9,0.1-25.7c-4.7-4.8-10.6-5.1-18-5.6l-44.2-0.1l-1.3,0.1c-7.5,0.4-13.4,0.8-18,5.6c-6.7,6.8-6.6,18.6,0.1,25.7
		c2.5,2.7,6.7,4.3,11,4.3c3.4,0,6.6-1.2,9.3-3.5c0.4,0.9,1,1.6,1.7,2v48.8v6.4h-22c-10,0-18.1-8.1-18.1-18.1V35.5
		c0-10,8.1-18.1,18.1-18.1h81.4c10,0,18.1,8.1,18.1,18.1V116.9z"/>
</g>
</svg>
