<?xml version="1.0" encoding="utf-8"?>
<!-- Generator: Adobe Illustrator 18.1.0, SVG Export Plug-In . SVG Version: 6.00 Build 0)  -->
<svg version="1.1" id="Layer_1" xmlns="http://www.w3.org/2000/svg" xmlns:xlink="http://www.w3.org/1999/xlink" x="0px" y="0px"
	 viewBox="0 0 150 150" enable-background="new 0 0 150 150" xml:space="preserve">
<g>
	<path fill="#798E41" d="M100.7,59.6c3.9,7.2,6.7,14.8,8.6,22.7c6.5-4.8,13.6-8.9,21.1-11.9c-0.9-4-1.9-8-3.3-12
		c-1.4-3.9-3.2-7.6-5.1-11.2c-3.8,1.5-7.5,3.3-11,5.4C107.3,54.7,103.9,57.1,100.7,59.6z"/>
	<path fill="#ED7F46" d="M60.8,122c0.2-3,0.6-6,1.1-8.9c-1.1-1.9-2.2-3.7-3.4-5.5c-3.2-4.6-6.7-8.8-10.6-12.7
		c-0.6,5.8-0.7,11.7-0.1,17.5c0.1,0.1,0.2,0.1,0.4,0.2C52.8,115.5,57.1,118.7,60.8,122z"/>
	<path fill="#ED7F46" d="M103.5,87c-1.5-7.9-4.2-15.6-8-23c-6,5.5-11.2,11.8-15.4,18.8c3.6,6.5,6.5,13.4,8.4,20.8
		C92.8,97.4,97.9,91.9,103.5,87z"/>
	<path fill="#ED7F46" d="M105.1,109.1c0.5-5.5,0.5-11-0.1-16.5c-3.9,3.8-7.5,8-10.7,12.6c-1.2,1.8-2.3,3.6-3.4,5.5
		c0.4,2.3,0.6,4.6,0.8,6.9c2.3-1.7,4.7-3.4,7.3-5C101,111.3,103.1,110.2,105.1,109.1z"/>
	<path fill="#798E41" d="M55.2,53.8c2.2-3.5,4.6-7,7.3-10.2c2.7-3.2,5.6-6.1,8.6-8.8c-6.6-5-13.8-9-21.5-11.9
		c-6.1,5.4-11.4,11.6-15.8,18.6c3.8,1.6,7.5,3.3,11.1,5.3C48.4,48.9,51.9,51.3,55.2,53.8z"/>
	<path fill="#ED7F46" d="M92,58.1c-2.2-3.5-4.5-6.9-7.2-10.1c-2.7-3.2-5.6-6-8.6-8.7c-3,2.7-5.9,5.6-8.6,8.7
		c-2.7,3.2-5.1,6.6-7.2,10.1c6.1,5.4,11.4,11.6,15.8,18.4C80.6,69.7,85.9,63.5,92,58.1z"/>
	<path fill="#798E41" d="M51.7,59.6c-3.2-2.6-6.6-5-10.3-7.1c-3.6-2.1-7.2-3.8-11-5.4c-1.9,3.6-3.7,7.3-5.1,11.2
		c-1.4,3.9-2.5,8-3.3,12c7.6,3,14.7,7,21.2,11.9C45,74.4,47.8,66.8,51.7,59.6z"/>
	<path fill="#ED7F46" d="M57,64.1c-3.8,7.3-6.5,15.1-8,23c5.6,4.9,10.6,10.4,15,16.6c2-7.3,4.9-14.3,8.4-20.8
		C68.2,75.9,63,69.6,57,64.1z"/>
	<path fill="#798E41" d="M89.9,43.7c2.7,3.2,5.1,6.7,7.3,10.2c3.3-2.5,6.7-4.9,10.4-7.1c3.6-2.1,7.3-3.8,11.1-5.3
		c-4.4-7-9.8-13.2-16-18.7c-7.7,3-14.8,7-21.4,12.1C84.4,37.6,87.2,40.5,89.9,43.7z"/>
	<path fill="#798E41" d="M96.8,18c-4.6-3.3-9.5-6.3-14.8-8.7c-1.9-0.9-3.9-1.6-5.9-2.4c-2,0.8-3.9,1.5-5.9,2.4
		c-5.3,2.5-10.2,5.4-14.8,8.8c7.4,3.2,14.3,7.3,20.6,12.3C82.5,25.3,89.5,21.2,96.8,18z"/>
	<path fill="#798E41" d="M131.5,100.4c1.1-7.7,1.1-15.5,0.1-23.2c-7.5,3.1-14.6,7.3-20.9,12.4c0.8,5.4,1.2,10.8,1.1,16.3
		c-2.2,0.9-4.4,2-6.7,3.2c-2,1.1-4.1,2.2-6.1,3.5c-2.6,1.6-5,3.3-7.3,5c-7.7,5.8-13.9,12.3-18.1,18.8c-3.2-4.9-7.5-9.8-12.7-14.4
		c-3.8-3.3-8-6.5-12.7-9.4c-0.1-0.1-0.2-0.1-0.4-0.2c-2.3-1.4-4.7-2.7-7-3.9c-0.3-6.4,0.1-12.6,1-18.8c-6.4-5.1-13.4-9.3-21-12.4
		c-1,8-1,16.1,0.3,24.1c-6.6-1.4-12.7-1.7-17.9-0.8c10.9,2.4,23.3,7.4,35.4,15c14.1,8.7,25.3,19.2,32.2,29.1c0-0.1,0.2-0.1,0.2-0.1
		v0.6h5v-0.4c7-9.9,18.3-20.4,32.3-29.1c12.2-7.6,24.7-12.6,35.6-15C140.1,99.9,136,99.9,131.5,100.4z"/>
</g>
</svg>
