<?xml version="1.0" encoding="utf-8"?>
<!-- Generator: Adobe Illustrator 18.1.0, SVG Export Plug-In . SVG Version: 6.00 Build 0)  -->
<svg version="1.1" id="Layer_1" xmlns="http://www.w3.org/2000/svg" xmlns:xlink="http://www.w3.org/1999/xlink" x="0px" y="0px"
	 viewBox="0 0 150 150" enable-background="new 0 0 150 150" xml:space="preserve">
<g>
	<path opacity="0.96" fill="#1C3F48" d="M129.1,58.3c0,0-4.9-5.7-9.9-1.4c-2.8,2.4-6.6,6.3-10.8,9.3c-9.2-2.2-15.3-21.4-17.2-28.9
		c-2.3-9-16-1.9-16-1.9l-4.9,1.9c-3.3-1.9-6.6-2.7-9.7-2.1C52.7,36.4,21,53.1,3.3,52.7c0,0,3.5,9.2,25.4,3.5
		c21.9-5.7,43.4,1.4,42.7,16C70.6,88.6,67.6,105,57,108.5c-10.6,3.5-16.3,2.1-16.3,2.1l6,3.8l-0.4,12.5c0,0,7.1-15.6,29-21.9
		c21.9-6.4,27,1.2,41.7-25.4c10.2-18.5,16.3-18.4,16.3-18.4l7.8-0.7C141.1,60.4,138.2,55.5,129.1,58.3z M98,70.3
		c-7.8,0-8.5-1.4-14.1-15.5c-3-7.4-7.1-12.8-11.4-16.1c0.2-0.1,0.5-0.2,0.7-0.3c10.1-3.9,11.7-2.8,14.3,2.7
		c2.5,5.3,1.2,17.2,9.4,25.9c1.5,1.6,3.2,2.4,5,2.6C100.5,70.1,99.2,70.3,98,70.3z M123.4,62.5c-0.9,0-1.7-0.8-1.7-1.7
		c0-0.9,0.8-1.7,1.7-1.7c0.9,0,1.7,0.8,1.7,1.7C125.1,61.8,124.4,62.5,123.4,62.5z"/>
</g>
</svg>
