<?xml version="1.0" encoding="utf-8"?>
<!-- Generator: Adobe Illustrator 18.1.0, SVG Export Plug-In . SVG Version: 6.00 Build 0)  -->
<svg version="1.0" id="Layer_1" xmlns="http://www.w3.org/2000/svg" xmlns:xlink="http://www.w3.org/1999/xlink" x="0px" y="0px"
	 viewBox="0 0 150 150" enable-background="new 0 0 150 150" xml:space="preserve">
<path fill="#9DD6C9" d="M96,16.4c0,0,0-0.1,0.1-0.1c-0.2,0.2-0.3,0.3-0.5,0.5C95.8,16.7,95.9,16.6,96,16.4z"/>
<g>
	<g>
		<path fill="#00B6E2" d="M90.3,73.5c0.1-0.1,0.2-0.2,0.3-0.3c0,0,0,0,0,0c1.2-1.3,2.8-2.3,4.4-3c0.1-0.1,0.2-0.1,0.3-0.2h0
			c0.3-0.1,0.6-0.3,0.9-0.4c0,0,0.1,0,0.1,0c0.1,0,0.2-0.1,0.3-0.1c0,0,0,0,0.1,0c0.2-0.1,0.3-0.1,0.5-0.2c0,0,0.1,0,0.1,0
			c0.1,0,0.1,0,0.2-0.1c0,0,0.1,0,0.1,0c0.1,0,0.1,0,0.2-0.1c0.1,0,0.2,0,0.3-0.1c0,0,0.1,0,0.1,0c0.1,0,0.1,0,0.2-0.1
			c0.1,0,0.1,0,0.1,0c0.1,0,0.1,0,0.2-0.1c0,0,0.1,0,0.1,0c0.1,0,0.2,0,0.3,0c0,0,0.1,0,0.1,0c0.1,0,0.1,0,0.2,0c0,0,0,0,0.1,0
			c0.1,0,0.2,0,0.2-0.1c4.5-0.8,7.9-4.3,8.4-8.8c1.1-8.7-7.4-17.1-16-16c-5,0.6-8.6,4.3-9,9.3c-0.2,2.3-2.1,5.7-2.9,6.8
			c-0.1,0.2-0.3,0.3-0.4,0.5c0,0-0.1,0.1-0.1,0.1c-0.1,0.2-0.3,0.3-0.4,0.4c0,0,0,0,0,0c-0.2,0.2-0.3,0.3-0.5,0.4c0,0,0,0-0.1,0.1
			c-0.2,0.1-0.3,0.3-0.5,0.4h0c-0.6,0.5-1.3,0.9-2,1.4c-3.2-4.4-4.7-7.9-5.8-8.9c-1.8-1.7-4-3-6.4-3.6c-3.9-0.9-7.8,0.8-9.7,4.4
			c-1.4,2.7-1.5,5.6-1.2,8.5c0.6,4.5,2.3,8.6,4.7,12.4c0.5,0.8,0.9,1.5,1.4,2.3C48.6,77.2,40.7,84.9,40.2,94
			c-0.5,9.4,6.8,17.4,16.1,17.9c9.4,0.5,18.5-7.4,17.5-18.5c0.3,0.2,0.5,0.3,0.8,0.5c3.2,2.2,6.7,4.1,10.5,5.2
			c3.2,0.9,6.4,1.4,9.7,0.6c2.1-0.5,4-1.5,5.3-3.3c2.4-3.3,3-7.3,1.1-10.7c-1.6-3-4.2-5.7-7.2-7.2c-1.8-0.9-3.4-1.9-4.9-2.9
			c0.3-0.6,0.6-1.1,1-1.5C90,73.8,90.1,73.7,90.3,73.5z M63.4,105.4c-4.4,2.7-10,2.3-13.9-0.8c-5.8-4.8-6.3-13.2-0.5-18.8
			c2.6-2.3,6.2-3.4,10.4-2.6c0.5,0.1,0.7,0.3,0.8,0.9c0.4,4.4,3.5,7.5,7.8,8.1c0.5,0.1,0.8,0.2,0.9,0.8
			C69.8,97.8,67.6,102.9,63.4,105.4z M83.6,82.2c-0.9,0.2-1.9,0.2-2.8,0c-3-0.8-5.4-2.7-7.5-5c-1.3-1.5-2.5-3.1-3.1-5
			c-0.9-2.5-0.3-4.3,1.9-5.7c-0.7,1.1-0.7,2.4-0.1,4c0.7,1.9,1.8,3.5,3.1,5c2.1,2.3,4.4,4.2,7.5,5c0.9,0.2,1.9,0.2,2.8,0
			c0.4-0.1,0.7-0.2,1.1-0.3C85.9,81.2,84.9,82,83.6,82.2z M88.5,72c-1.7,1.5-2.5,4.9-4.2,4.5c-0.1,0-0.1,0-0.1,0c0,0,0,0,0,0
			c0,0-0.1,0-0.1-0.1c0,0,0,0-0.1,0c0,0,0,0-0.1-0.1c0,0,0,0-0.1,0c0,0,0,0-0.1,0c0,0,0,0,0-0.1c0,0,0,0-0.1-0.1c0,0,0,0,0-0.1
			c0,0,0-0.1-0.1-0.1c0,0,0,0,0-0.1c0,0,0-0.1,0-0.1c0,0,0-0.1,0-0.1c0,0,0-0.1,0-0.1c0,0,0-0.1,0-0.1c0,0,0,0,0-0.1
			c0,0,0-0.1,0-0.1c0,0,0-0.1,0-0.1c0,0,0-0.1,0-0.1c0-0.1,0-0.1,0-0.1c0,0,0-0.1,0-0.1V75c0,0,0-0.1,0-0.1v0c0-0.3,0-0.5,0.1-0.8
			c0,0,0,0,0,0c0-0.1,0-0.1,0-0.2c0,0,0,0,0,0c0-0.1,0-0.1,0-0.2c0,0,0,0,0,0c0-0.1,0-0.1,0.1-0.2c0,0,0,0,0-0.1
			c0,0,0.1-0.1,0.1-0.2c0,0,0-0.1,0-0.1c0-0.1,0.1-0.1,0.1-0.2c0,0,0-0.1,0-0.1c0-0.1,0.1-0.1,0.1-0.2c0,0,0,0,0-0.1
			c0-0.1,0.1-0.2,0.1-0.2c0,0,0,0,0,0c0-0.1,0.1-0.1,0.1-0.2c0,0,0,0,0,0c0-0.1,0.1-0.2,0.1-0.2l0,0c0.3-0.5,0.8-1.1,1.3-1.6
			c0,0,0,0,0,0c0.1-0.1,0.2-0.2,0.3-0.3c0,0,0,0,0,0c0.1-0.1,0.2-0.2,0.3-0.3c3.4-3.1,5.1-1.2,5.1-1.2C92.3,68.6,90.2,70.6,88.5,72z
			"/>
	</g>
	<path fill="#D9579F" d="M143.8,83.7l-5.8-11.8c-1.1-2.2-2.1-5.4-2.7-8.7c-0.6-3.1-0.9-6-0.8-8.1l0.6-13.2c0.3-6.5-4.6-13-11-14.3
		l-12.9-2.8c-4.7-1-11.8-4.6-15.4-7.8l-9.9-8.7c-2.5-2.2-5.7-3.4-9.3-3.4c-3.3,0-6.4,1.1-8.8,3l-10.2,8.3c-3.7,3-10.9,6.3-15.6,7.2
		l-13,2.3c-6.4,1.1-11.6,7.4-11.6,13.9l0.1,13.2c0,2.7-0.6,6.5-1.6,10.2c-0.8,2.6-1.6,4.9-2.5,6.5L7.1,81.1
		C4,86.8,5.6,94.7,10.8,98.8l8.9,7l1.5,1.2c3.8,3,8.6,9.2,10.5,13.7l5.1,12.1c2.1,5,7.5,8.5,13.1,8.5c1,0,2-0.1,3-0.4l12.8-3
		c2-0.5,4.7-0.8,7.7-0.8c3.6,0,7.1,0.4,9.5,1.1l12.7,3.5c1.1,0.3,2.3,0.5,3.5,0.5c5.5,0,10.7-3.2,12.9-8l5.6-11.9
		c2.1-4.4,7.1-10.4,11-13.2l4.4-3.2l6.2-4.5C144.7,97.5,146.6,89.6,143.8,83.7z M24.6,64.4c1-3.7,1.5-7.4,1.5-10.2L26,41.8
		c0-3.7,3-7.3,6.6-7.9l12.2-2.2c5.4-1,12.8-4.4,17.1-7.8l9.6-7.8c1.3-1.1,3.1-1.7,5-1.7c2,0,3.9,0.7,5.3,1.9l9.3,8.2
		c4.1,3.6,11.4,7.3,16.7,8.5l12.1,2.6c3.6,0.8,6.4,4.5,6.3,8.2l-0.6,12.4c-0.1,2.3,0.1,5.1,0.6,8.1c0.7,3.9,1.9,7.7,3.2,10.3
		l5.5,11.1c1.6,3.3,0.5,7.9-2.5,10l-8.2,5.9l-1.8,1.3c-4.4,3.2-9.7,9.5-12,14.4l-5.3,11.2c-1.3,2.7-4.3,4.6-7.5,4.6
		c-0.7,0-1.3-0.1-1.9-0.3l-11.9-3.3c-2.8-0.8-6.5-1.2-10.4-1.2c-3.2,0-6.1,0.3-8.4,0.8l-12,2.9c-0.5,0.1-1.1,0.2-1.6,0.2
		c-3.2,0-6.4-2-7.6-4.8l-4.8-11.4c-1.9-4.6-6.5-10.7-10.8-14.4l-0.6-0.5l-9.7-7.6c-2.9-2.3-3.8-6.9-2.1-10.1l5.9-10.9
		C22.7,70.2,23.8,67.5,24.6,64.4z"/>
</g>
</svg>
