<?xml version="1.0" encoding="utf-8"?>
<!-- Generator: Adobe Illustrator 16.0.0, SVG Export Plug-In . SVG Version: 6.00 Build 0)  -->
<!DOCTYPE svg PUBLIC "-//W3C//DTD SVG 1.1//EN" "http://www.w3.org/Graphics/SVG/1.1/DTD/svg11.dtd">
<svg version="1.1" id="Layer_1" xmlns="http://www.w3.org/2000/svg" xmlns:xlink="http://www.w3.org/1999/xlink" x="0px" y="0px"
	 width="100px" height="100px" viewBox="0 0 100 100" enable-background="new 0 0 100 100" xml:space="preserve">
<g>
	<g>
		<g>
			<path fill="#00BCF1" d="M40.746,51.76c-0.509,3.622-3.572,6.184-6.828,5.722c-3.264-0.463-5.484-3.777-4.967-7.4
				c0.514-3.627,3.574-6.19,6.833-5.727C39.039,44.814,41.263,48.132,40.746,51.76z"/>
			<path fill="#00BCF1" d="M57.406,55.891c-6.728-1.41-11.986-1.82-16.339-1.548c-1.365,2.917-4.262,4.745-7.317,4.307
				c-1.376-0.196-2.592-0.825-3.555-1.748c-0.602,0.259-1.185,0.526-1.766,0.81c-24.152,11.845-9.29,24.19-9.29,24.19
				c1.272-12.622,17.675-16.896,17.675-16.896c23.51-6.928,37.926,5.826,37.926,5.826C73.81,62.452,63.008,57.067,57.406,55.891z"/>
		</g>
	</g>
	<g>
		<path fill="#8BC53F" d="M74.611,29.418c-0.923,6.464-6.379,11.035-12.191,10.208c-5.811-0.826-9.779-6.74-8.861-13.201
			c0.919-6.469,6.377-11.035,12.188-10.208C71.561,17.034,75.525,22.948,74.611,29.418z"/>
		<path fill="#8BC53F" d="M71.794,38.341c-2.617,2.404-6.069,3.668-9.638,3.16c-4.373-0.618-7.829-3.724-9.44-7.872
			c-1.479-0.1-2.98-0.158-4.5-0.158c-24.266,0-43.94,13.944-43.94,31.152c0,1.582,0.171,3.139,0.497,4.662
			c3.894-7.9,12.291-14.327,23.047-17.784c-0.021-0.513,0.004-1.039,0.08-1.568c0.609-4.274,4.207-7.288,8.046-6.745
			c2.905,0.409,5.1,2.742,5.747,5.701c1.407-0.1,2.83-0.159,4.274-0.159c22.384,0,40.814,11.816,43.294,27.016
			c1.86-3.46,2.896-7.208,2.896-11.123C92.157,53.57,84.03,43.871,71.794,38.341z"/>
	</g>
</g>
</svg>
