<?xml version="1.0" encoding="utf-8"?>
<!-- Generator: Adobe Illustrator 18.1.0, SVG Export Plug-In . SVG Version: 6.00 Build 0)  -->
<svg version="1.1" id="Layer_1" xmlns="http://www.w3.org/2000/svg" xmlns:xlink="http://www.w3.org/1999/xlink" x="0px" y="0px"
	 viewBox="0 0 150 150" enable-background="new 0 0 150 150" xml:space="preserve">
<g>
	<g>
		<g>
			<path fill="#B55366" d="M132.5,62.6c0.1,1.3,0.2,2.7,0.2,4.1c0,25.9-21,46.9-46.9,46.9c-25.9,0-46.9-21-46.9-46.9
				c0-25.9,21-46.9,46.9-46.9c0.7,0,1.4,0,2.1,0.1c-4-0.9-8.1-1.3-12.3-1.3c-32.5,0-58.8,26.3-58.8,58.8c0,32.5,26.3,58.8,58.8,58.8
				c32.5,0,58.8-26.3,58.8-58.8C134.3,72.3,133.7,67.4,132.5,62.6z"/>
		</g>
		<circle fill="#B55366" cx="70.1" cy="81.6" r="16.9"/>
	</g>
	<g>
		<g>
			<path fill="#4CA950" d="M95.8,22.8c-18.3,0-33.1,14.8-33.1,33.1c0,2.9,0.4,5.6,1,8.3c-0.1-0.8-0.1-1.5-0.1-2.3
				c0-14.6,11.8-26.3,26.3-26.3c14.6,0,26.3,11.8,26.3,26.3c0,14.5-11.8,26.3-26.3,26.3c-0.4,0-0.8,0-1.2,0c2.2,0.5,4.6,0.7,6.9,0.7
				c18.3,0,33.1-14.8,33.1-33.1C128.9,37.6,114.1,22.8,95.8,22.8z"/>
		</g>
		<circle fill="#4CA950" cx="98.9" cy="53.5" r="9.5"/>
	</g>
</g>
</svg>
