<?xml version="1.0" encoding="iso-8859-1"?>
<!-- Generator: Adobe Illustrator 13.0.0, SVG Export Plug-In . SVG Version: 6.00 Build 14948)  -->
<!DOCTYPE svg PUBLIC "-//W3C//DTD SVG 1.1//EN" "http://www.w3.org/Graphics/SVG/1.1/DTD/svg11.dtd">
<svg version="1.1" id="Layer_1" xmlns="http://www.w3.org/2000/svg" xmlns:xlink="http://www.w3.org/1999/xlink" x="0px" y="0px"
	 width="100px" height="100px" viewBox="0 0 100 100" enable-background="new 0 0 100 100" xml:space="preserve">
<g>
	<g>
		<path fill-rule="evenodd" clip-rule="evenodd" fill="#E5E6E7" d="M88.441,82.234c0,1.433-15.926,2.589-35.574,2.589
			c-19.646,0-35.57-1.156-35.57-2.589c0-1.425,15.924-2.588,35.57-2.588C72.516,79.646,88.441,80.81,88.441,82.234z"/>
		<g>
			<path fill-rule="evenodd" clip-rule="evenodd" fill="#3D3A45" d="M83.571,64.978c-0.471,4.289-1.89,12.928-2.87,17.42
				c-4.004,0-8.012,0-12.018,0c0.196-2.519,1.883-3.259,3.058-4.606c-10.794,2.722-25.191,2.314-35.439-0.727
				c-1.466,1.162-1.765,3.715-2.85,5.333c-3.263-0.158-7.05,0.317-9.977-0.243c0.316-3.501,1.915-5.476,3.869-7.029
				c-4.125-4.955-10.784-6.889-16.901-9.461c-2.221-4.72,2.705-12.701,8.014-11.696c6.628,1.247,12.668,13.23,17.313,17.214
				C49.8,78.448,70.262,76.2,83.571,64.978z M15.732,61.06c1.279,0.078,2.125-1.745,2.04-3.881
				C14.835,54.819,12.869,60.888,15.732,61.06z"/>
			<path fill-rule="evenodd" clip-rule="evenodd" fill="#3D3A45" d="M85.032,61.896c3.348,1.676,7.982,1.817,9.983,5.094
				c-2.859,1.448-7.501,0.775-9.983,2.671C85.305,67.597,85.032,65.458,85.032,61.896z"/>
		</g>
	</g>
	<g>
		<path fill="#33A056" d="M58.61,57.641l1.616-0.085c1.58-0.312,2.979-0.903,4.198-1.771c1.221-0.865,2.255-1.906,3.108-3.119
			c0.852-1.213,1.513-2.576,1.979-4.084c0.468-1.508,0.732-3.041,0.801-4.603s0.041-3.047-0.087-4.46
			c-0.13-1.414-0.331-2.786-0.604-4.117c-0.271-1.334-0.596-2.635-0.974-3.901c-0.379-1.268-0.78-2.552-1.211-3.858l10.917-5.251
			c1.126,2.028,2.081,3.887,2.855,5.572c0.777,1.685,1.407,3.372,1.889,5.061c0.48,1.689,0.811,3.474,0.988,5.359
			c0.178,1.885,0.212,4.076,0.101,6.572c-0.206,4.682-1.163,8.809-2.866,12.383c-1.703,3.573-3.929,6.542-6.673,8.905
			c-2.744,2.364-5.916,4.118-9.51,5.264c-3.596,1.144-7.368,1.63-11.323,1.454c-3.954-0.175-7.633-1.023-11.042-2.545
			c-3.409-1.523-6.348-3.591-8.822-6.202c-2.472-2.61-4.379-5.683-5.719-9.216c-1.336-3.534-1.913-7.418-1.727-11.648
			c0.186-4.232,1.055-7.956,2.603-11.171c1.55-3.216,3.614-5.895,6.192-8.041c2.581-2.144,5.572-3.75,8.971-4.815
			c3.399-1.067,7.026-1.567,10.88-1.502c0.873-0.065,1.734-0.089,2.583-0.066c0.852,0.019,1.727,0.083,2.625,0.19L58.61,57.641z
			 M39.494,44.339c-0.086,1.942,0.073,3.609,0.483,5c0.406,1.391,0.999,2.571,1.77,3.543c0.775,0.974,1.669,1.76,2.686,2.359
			c1.016,0.603,2.088,1.082,3.219,1.447l0.993-22.528c-1.188,0.193-2.313,0.49-3.373,0.895c-1.062,0.406-2.008,0.988-2.843,1.751
			c-0.831,0.763-1.509,1.75-2.03,2.96C39.877,40.978,39.574,42.502,39.494,44.339z"/>
	</g>
</g>
</svg>
