<?xml version="1.0" encoding="utf-8"?>
<!-- Generator: Adobe Illustrator 18.1.0, SVG Export Plug-In . SVG Version: 6.00 Build 0)  -->
<svg version="1.1" id="Layer_1" xmlns="http://www.w3.org/2000/svg" xmlns:xlink="http://www.w3.org/1999/xlink" x="0px" y="0px"
	 viewBox="0 0 150 150" enable-background="new 0 0 150 150" xml:space="preserve">
<g>
	<path fill="none" d="M112.8,109.6c-0.4,0-0.7,0.1-1.1,0.1c0.2,0.1,0.4,0.1,0.6,0.2C112.4,109.8,112.6,109.7,112.8,109.6z"/>
	<path opacity="0.42" fill="#6AC5E9" d="M59.5,59.6c1.6,1.3,3,2.7,4.3,4.3c0,0,0,0,0,0C63.1,62.9,61.7,60.9,59.5,59.6z"/>
	<path fill="#A9DAF0" d="M66.2,46.2c0,0,1.5,3.4,4.4,1.3c0.4-1.2,0.8-2.3,1.3-3.4c-3-3.3-19-4-13.6,13.9c1.9,0.6,4,1.9,6,4.2
		c1-3.4,2.8-6.6,5.2-9.3c0.2-1.5,0.4-3,0.8-4.4C67,49.5,66.2,46.2,66.2,46.2z"/>
	<path fill="#6AC5E9" d="M56.9,57.7c0.4,0.1,0.8,0.2,1.3,0.3c-0.5-1.1-4.7-11.1,3.8-15.3c5.1-2.5,8.6-1.1,10,1
		c3.9-8.4,11.5-14.6,20.8-16.6c-6.1-5.9-14.5-9.6-23.7-9.6c-18.8,0-34.1,15.3-34.1,34.1c0,0.6,0,1.2,0,1.7c1.9-0.4,3.8-0.6,5.8-0.6
		C46.7,52.9,52.2,54.7,56.9,57.7z"/>
	<path fill="#6AC5E9" d="M35.5,87.4c6.9-5.6,14.8-4.7,22-3.6C50.8,81.4,45,77,41,71.2c-4.3,0.2-7.2-5.6-4.7-9.6
		c-0.8-2.6-1.3-5.3-1.4-8.1c-13.6,2.7-23.9,14.7-23.9,29.1c0,13.7,9.2,25.2,21.8,28.6c-1.3-2-2.3-4.2-2.8-6.6
		C28.7,97.9,30.8,91.2,35.5,87.4z M23.9,74.8c0,0,0.1-0.4,0.3-0.9l-0.5,0.9c0,0-6-4.7-11.4,2.2c0,0,1.7-6.9,12.1-3.5
		c0.9-1.9,3.8-5.1,12-5l0.7,1.2C37.1,69.8,27.9,68.6,23.9,74.8z"/>
	<path fill="#A9DAF0" d="M40.6,70C40.6,70,40.6,70,40.6,70c-1.5-1-2.8-4.9-3.7-7.6C34.9,65.8,36.9,70,40.6,70z"/>
	<path opacity="0.42" fill="#6AC5E9" d="M38.6,59.4c6.2-4,12.9-0.7,12.9-0.7c-8.6-0.9-13.1,1.5-14.7,4.3c0.9,2.7,2.2,5.3,3.8,7.6
		c6.7,0.2,5.2-6.2,5.2-6.2s2,5.2-3.7,6.7c-0.4,0.1-0.7,0.1-1,0.2c4,5.8,9.7,10.2,16.4,12.6c0.4,0.1,0.8,0.1,1.2,0.2
		c2.3,0.4,4.5,0.7,6.5,0.8c1.6,0.1,2.9,0,4.2-0.2c-3.8-4.4-6.1-9.9-6.1-15.8c0-1.7,0.2-3.3,0.5-4.9c-1.3-1.6-2.7-3-4.3-4.3
		c-2.1-1.3-4.9-2.1-8.4-1.2c0,0,2.5-1.3,5.9-0.7c-4.6-3-10.2-4.8-16.2-4.8c-2,0-3.9,0.2-5.8,0.6c0.1,2.8,0.6,5.5,1.4,8.1
		C36.9,60.7,37.6,60,38.6,59.4z"/>
	<path fill="#A9DAF0" d="M38.6,59.4c6.2-4,12.9-0.7,12.9-0.7c-8.6-0.9-13.1,1.5-14.7,4.3c0.9,2.7,2.2,5.3,3.8,7.6
		c6.7,0.2,5.2-6.2,5.2-6.2s2,5.2-3.7,6.7c-0.4,0.1-0.7,0.1-1,0.2c4,5.8,9.7,10.2,16.4,12.6c0.4,0.1,0.8,0.1,1.2,0.2
		c2.3,0.4,4.5,0.7,6.5,0.8c1.6,0.1,2.9,0,4.2-0.2c-3.8-4.4-6.1-9.9-6.1-15.8c0-1.7,0.2-3.3,0.5-4.9c-1.3-1.6-2.7-3-4.3-4.3
		c-2.1-1.3-4.9-2.1-8.4-1.2c0,0,2.5-1.3,5.9-0.7c-4.6-3-10.2-4.8-16.2-4.8c-2,0-3.9,0.2-5.8,0.6c0.1,2.8,0.6,5.5,1.4,8.1
		C36.9,60.7,37.6,60,38.6,59.4z"/>
	<path fill="#6AC5E9" d="M139.5,80.1c0-9.3-4.3-17.6-11-23c-0.2,7.5-3.2,14.3-8,19.4c0,0,0.1,0.1,0.1,0.1c0.4,0.7,0.7,1.9,0.1,3.6
		c-0.7,1.9-2.4,3.2-4.4,3.3c-5.1,6.6-13.5,11-23.1,11.3c2.5,3.8,8.8,11.9,18.4,15c0.4,0,0.7,0,1.1-0.1c1.5-0.9,4-2,6.8-1.7
		c0.1,0,0.2,0,0.3,0.1C131.3,103.8,139.5,92.9,139.5,80.1z"/>
	<path fill="#6AC5E9" d="M102.4,44.6c1.3,0.4,2.6,1,3.8,1.6c1.8,0.3,3.7,0.9,5.5,1.6c0,0-1.5-0.5-4.1-0.9c1.9,1.1,3.6,2.3,5.2,3.7
		c5.9,0.6,11.2,2.9,15.6,6.5c0-0.3,0-0.6,0-0.8c0-16.4-13.3-29.7-29.7-29.7c-2.1,0-4.1,0.2-6.1,0.6C97.5,31.8,101,37.8,102.4,44.6z"
		/>
	<path opacity="0.42" fill="#6AC5E9" d="M71.9,46.2c0.6-0.7,0.5-1.4-0.1-2.1c-0.5,1.1-0.9,2.2-1.3,3.4C71,47.2,71.4,46.8,71.9,46.2z
		"/>
	<path opacity="0.42" fill="#6AC5E9" d="M71.9,46.2c0.6-0.7,0.5-1.4-0.1-2.1c-0.5,1.1-0.9,2.2-1.3,3.4C71,47.2,71.4,46.8,71.9,46.2z
		"/>
	<path opacity="0.42" fill="#6AC5E9" d="M72,43.8c1.1,1.6,0.9,3.6-0.8,4.4c-0.3,0.2-0.6,0.3-0.9,0.4c-0.4,1.4-0.7,2.9-0.8,4.4
		c5.3-6.1,13.6-10,22.9-10c3.5,0,6.9,0.6,10.1,1.6c-1.4-6.7-4.9-12.7-9.7-17.4C83.5,29.1,75.9,35.4,72,43.8z M88.8,37.7
		c0,0-7.7-2-15.4,4C73.4,41.7,80.6,32.8,88.8,37.7z"/>
	<path fill="#A9DAF0" d="M72,43.8c1.1,1.6,0.9,3.6-0.8,4.4c-0.3,0.2-0.6,0.3-0.9,0.4c-0.4,1.4-0.7,2.9-0.8,4.4
		c5.3-6.1,13.6-10,22.9-10c3.5,0,6.9,0.6,10.1,1.6c-1.4-6.7-4.9-12.7-9.7-17.4C83.5,29.1,75.9,35.4,72,43.8z M88.8,37.7
		c0,0-7.7-2-15.4,4C73.4,41.7,80.6,32.8,88.8,37.7z"/>
	<path opacity="0.42" fill="#6AC5E9" d="M121.5,68.8c0,2.5-0.4,4.9-1.2,7.2c0.1,0.1,0.2,0.2,0.3,0.4c4.8-5.1,7.8-11.9,8-19.4
		c-4.3-3.5-9.7-5.9-15.6-6.5C118.2,55.3,121.5,61.7,121.5,68.8z"/>
	<path fill="#A9DAF0" d="M121.5,68.8c0,2.5-0.4,4.9-1.2,7.2c0.1,0.1,0.2,0.2,0.3,0.4c4.8-5.1,7.8-11.9,8-19.4
		c-4.3-3.5-9.7-5.9-15.6-6.5C118.2,55.3,121.5,61.7,121.5,68.8z"/>
	<path fill="#FFC1BB" d="M83.5,49.9c0,0,6.5-3.8,15.3-4.3c-2.1-0.4-4.2-0.7-6.4-0.7c-15,0-27.1,10.7-27.1,23.9
		c0,6.6,3,12.5,7.8,16.8c-2,0.8-4.6,1.4-8,1.2c-5.9-0.4-12.7-2.4-19.1-1.6l6.8,25.3c-0.5,0-1.1-0.1-1.6-0.1
		c7.6,0.4,11.2,3.8,11.5,4.8c0.5,1.5-0.7,1.2-0.7,1.2c-9.2-8-24.9-3.7-24.9-3.7c3.2-1.1,6.1-1.8,8.7-2.1c-3.9,0.4-7.4,1.3-9.3,1.8
		c0.2,0.2,0.3,0.3,0.5,0.5c-1.3,0.2-2.7,0.6-4.3,1.2c-8.5,3.5-7.8,15.2-7.8,15.2s4.4-2.5,10.2-1.5c5.8,1,35.9,8.9,40.5-5
		c0.8-2.4,0.8-4.8,0.4-7c4.3-1.5,7.6-4.2,9.6-5.8c0.4-0.1,0.7-0.3,1-0.4c13.4,10.9,22.4,11,25.6,10.6c3.7-0.5,11.9-7.5,11.9-7.5
		c-4.7-6.2-11.4-0.7-11.4-0.7c-13.6-3.5-21.2-16.3-22.2-18.1c0-0.4-0.1-0.8-0.1-1.2c0.7,0,1.4,0.1,2.1,0.1c9.8,0,18.3-4.5,23.1-11.4
		c1.3,0.4,2.9-0.4,3.4-1.9c0.7-2-0.6-2.5-1-2.7c1-2.5,1.5-5.2,1.5-8c0-10.3-7.4-19-17.7-22.4C96.8,46.4,90.5,47.1,83.5,49.9z
		 M97.5,50.3c4,2.8,0.6,7.1-1.6,6.1c-2.2-1-0.7-2.8-0.7-2.8s-1.1,2.5,1.5,2.5c2.6,0,3.5-6.1-1.6-6.3c-5.1-0.2-9.9,1.9-10.9,1.8
		C84.1,51.6,93.6,47.4,97.5,50.3z M116.6,65.5c0,5.6-3.6,10.1-8,10.1c-4.4,0-8-4.5-8-10.1c0-0.1,0-0.2,0-0.3c0-0.1,0-0.2,0-0.4
		c0-0.1,0-0.2,0-0.3c0-0.1,0-0.2,0-0.3c0-3.2,1.5-5.9,3.5-7c1.3-1.1,2.8-1.7,4.5-1.7C113,55.4,116.6,59.9,116.6,65.5z M85.6,67.2
		c0.5,1,0.7,2.1,0.7,2.1C86.1,68.5,85.9,67.8,85.6,67.2c-0.5-1-1.4-1.8-2.8-1.1c-2.7,1.2-0.5,8.9,4.5,8.9c0,0-5,0.5-6.7-4.5
		C79,66.1,83.4,62.7,85.6,67.2z M84.6,110.6c-10.9-7.7-11.2-18.6-11.2-18.6c4,10.9,11.7,17.4,12.4,17.4L84.6,110.6z"/>
	<path fill="#E4BBB9" d="M45.8,110.7c-2.6,0.3-5.5,1-8.7,2.1c0,0,15.7-4.2,24.9,3.7c0,0,1.2,0.2,0.7-1.2c-0.3-1-3.9-4.5-11.5-4.8
		C49.3,110.4,47.5,110.5,45.8,110.7z"/>
	<path fill="#E4BBB9" d="M73.4,91.9c0,0,0.2,10.9,11.2,18.6l1.2-1.2C85.1,109.3,77.3,102.9,73.4,91.9z"/>
	<path fill="#E4BBB9" d="M80.6,70.6c1.7,5,6.7,4.5,6.7,4.5c-5,0-7.2-7.7-4.5-8.9c1.4-0.6,2.2,0.2,2.8,1.1
		C83.4,62.7,79,66.1,80.6,70.6z"/>
	<path fill="#E4BBB9" d="M85.6,67.2c0.3,0.6,0.5,1.3,0.7,2.1C86.3,69.3,86.1,68.2,85.6,67.2z"/>
	<path fill="#FFD69D" d="M112,64.1c0,0.6-0.1,1.2-0.2,1.8c0.4,0.1,0.7,0.3,1,0.5c0.1-0.5,0.1-1.1,0.1-1.7c0-4.5-2.8-8.2-6.2-8.2
		c-0.1,0-0.2,0-0.2,0C109.5,56.7,112,60.1,112,64.1z"/>
	<path fill="#FFD69D" d="M106.8,73c1.7,0,3.3-0.9,4.4-2.5c-0.5,0-1-0.2-1.4-0.5c-1,1-2.2,1.7-3.6,1.7c-3.1,0-5.6-3.2-5.7-7.2
		c0,0.1,0,0.2,0,0.3c0,0.1,0,0.2,0,0.4C100.7,69.5,103.4,73,106.8,73z"/>
	<path fill="#FFC1BB" d="M103,58.3c0.3-0.4,0.7-0.8,1.1-1.1c-2.1,1.1-3.5,3.8-3.5,7c0,0.1,0,0.2,0,0.3
		C100.6,61.9,101.6,59.7,103,58.3z"/>
	<path fill="#FFFFFE" d="M103,58.3c1-1,2.2-1.6,3.5-1.7c-0.1,0-0.2,0-0.2,0c-0.8,0-1.5,0.2-2.2,0.6C103.7,57.5,103.3,57.8,103,58.3z
		"/>
	<path fill="#FFD69D" d="M106.3,71.7c1.3,0,2.6-0.6,3.6-1.7c-0.5-0.4-0.9-1.1-0.9-1.9c0-1.3,1.1-2.4,2.4-2.4c0.2,0,0.4,0,0.5,0.1
		c0.1-0.6,0.2-1.2,0.2-1.8c0-4.1-2.4-7.4-5.5-7.6c-1.3,0.1-2.5,0.7-3.5,1.7c-1.4,1.4-2.4,3.7-2.4,6.2
		C100.7,68.5,103.2,71.7,106.3,71.7z M108,63.1c0.5,0,1,0.4,1,1c0,0.5-0.4,1-1,1c-0.5,0-1-0.4-1-1C107,63.5,107.5,63.1,108,63.1z"/>
	<path fill="#6AC5E9" d="M106.3,71.7c1.3,0,2.6-0.6,3.6-1.7c-0.5-0.4-0.9-1.1-0.9-1.9c0-1.3,1.1-2.4,2.4-2.4c0.2,0,0.4,0,0.5,0.1
		c0.1-0.6,0.2-1.2,0.2-1.8c0-4.1-2.4-7.4-5.5-7.6c-1.3,0.1-2.5,0.7-3.5,1.7c-1.4,1.4-2.4,3.7-2.4,6.2
		C100.7,68.5,103.2,71.7,106.3,71.7z M108,63.1c0.5,0,1,0.4,1,1c0,0.5-0.4,1-1,1c-0.5,0-1-0.4-1-1C107,63.5,107.5,63.1,108,63.1z"/>
	<path fill="#8B8D90" d="M106.3,46.1c-2.6-0.5-5.1-0.6-7.5-0.5c-8.8,0.5-15.3,4.3-15.3,4.3c7-2.8,13.4-3.5,18.3-3.5
		c2.4,0,4.4,0.2,6,0.5c2.6,0.4,4.1,0.9,4.1,0.9C109.9,47,108.1,46.5,106.3,46.1z"/>
	<path fill="#8B8D90" d="M95,49.8c5.1,0.2,4.2,6.3,1.6,6.3c-2.6,0-1.5-2.5-1.5-2.5s-1.5,1.8,0.7,2.8c2.2,1,5.6-3.3,1.6-6.1
		c-4-2.8-13.4,1.3-13.4,1.3C85.1,51.7,90,49.6,95,49.8z"/>
	<circle fill="#FFFFFE" cx="108" cy="64.1" r="1"/>
	<path fill="#FFFFFE" d="M58.2,58c-5.3-17.9,10.6-17.2,13.6-13.9c0.6,0.6,0.7,1.3,0.1,2.1c-0.5,0.6-0.9,1-1.3,1.3
		c-2.9,2.1-4.4-1.3-4.4-1.3s0.8,3.3,4.1,2.3c0.3-0.1,0.6-0.2,0.9-0.4c1.7-0.9,1.9-2.8,0.8-4.4c-1.4-2.1-5-3.6-10-1
		C53.5,46.9,57.7,56.9,58.2,58c-0.5-0.1-0.9-0.3-1.3-0.3c-3.4-0.6-5.9,0.7-5.9,0.7c3.5-0.9,6.4-0.1,8.4,1.2c2.3,1.4,3.7,3.3,4.3,4.3
		c0.3,0.4,0.4,0.7,0.4,0.7l0.5-1.7c-0.2-0.2-0.3-0.4-0.5-0.6C62.2,59.9,60.1,58.6,58.2,58z"/>
	<path fill="#FFFFFE" d="M45.8,64.1c0,0,1.5,5.9-5.2,5.9c0,0,0,0,0,0c-3.6,0-5.7-3.9-3.7-7.3c1.6-2.9,6-5.1,14.7-4.2
		c0,0-6.7-3.2-12.9,0.8c-1,0.6-1.7,1.4-2.2,2.2c-2.5,4.1,0.4,9.8,4.7,9.7c0.3,0,0.7-0.2,1-0.3C47.8,69.4,45.8,64.1,45.8,64.1z"/>
	<path fill="#FFFFFE" d="M37.1,69.8l-0.7-1.2c-8.2-0.2-11,3.1-12,5C14,70.1,12.2,77,12.2,77c5.5-7,11.4-2.2,11.4-2.2l0.5-0.9
		c-0.2,0.5-0.3,0.9-0.3,0.9C27.9,68.6,37.1,69.8,37.1,69.8z"/>
	<path fill="#FFFFFE" d="M73.4,41.7c7.7-6,15.4-4,15.4-4C80.6,32.8,73.4,41.7,73.4,41.7z"/>
	<path fill="#FFF3E1" d="M45.8,110.7c1.7-0.2,3.6-0.3,5.4-0.2c0.5,0,1.1,0,1.6,0.1l-6.8-25.3l-0.4-1.5c0,0-12.3,1.7-14.1,12.8
		c-1.4,8.6,2.4,14.1,4.3,16.1c0.2-0.1,0.4-0.1,0.7-0.2C38.3,112,41.9,111.1,45.8,110.7z"/>
</g>
</svg>
