<?xml version="1.0" encoding="utf-8"?>
<!-- Generator: Adobe Illustrator 18.1.0, SVG Export Plug-In . SVG Version: 6.00 Build 0)  -->
<svg version="1.0" id="Layer_1" xmlns="http://www.w3.org/2000/svg" xmlns:xlink="http://www.w3.org/1999/xlink" x="0px" y="0px"
	 viewBox="0 0 150 150" enable-background="new 0 0 150 150" xml:space="preserve">
<g>
	<g>
		<path fill="#002D3E" d="M75,14.1c-31.9,0-57.7,25.9-57.7,57.8c0,12.1,3.8,23.4,10.2,32.7c8.8-12.9,27.2-21.9,48.4-21.9
			c20.6,0,38.5,8.4,47.6,20.7c5.9-9.1,9.4-19.9,9.4-31.6C132.7,40,106.9,14.1,75,14.1z M45.9,84.4c-4.5,2.4-8.6,5.3-12.3,8.6V47.6
			c0-2.9,2.8-5.3,6.1-5.3c3.4,0,6.1,2.4,6.1,5.3V84.4z M62.8,80.2c-4.3,0.8-8.4,2-12.3,3.6V40.3c0-2.9,2.8-5.3,6.1-5.3
			c3.4,0,6.1,2.4,6.1,5.3V80.2z M82.1,79.2C80.1,79,78.2,79,76.2,79c-2.2,0-4.3,0.1-6.4,0.3v-48c0-3,2.8-5.3,6.1-5.3
			c3.4,0,6.1,2.4,6.1,5.3V79.2z M101.3,83.6c-3.9-1.5-8-2.7-12.3-3.5V40.3c0-2.9,2.7-5.3,6.1-5.3c3.4,0,6.2,2.4,6.2,5.3V83.6z
			 M120.5,95.5c-3.6-3.3-7.8-6.2-12.3-8.6V50.1c0-2.9,2.7-5.3,6.1-5.3c3.4,0,6.1,2.4,6.1,5.3V95.5z"/>
	</g>
	<path fill="#00AEEF" d="M72.8,87.6c10.2-1.3,20-0.8,29,1.3c-10.7-3.5-22.9-4.7-35.6-3.1c-18,2.3-33.6,9.9-44.5,20.4
		c-9.3,8.9-15.1,20-15.8,31.7c2.6-5.2,6.4-10.2,11.1-14.7c1.3-2.7,2.9-5.3,4.8-7.8C32.3,101.1,50.8,90.4,72.8,87.6z"/>
	<path fill="#002D3E" d="M139.3,113c-4.9-6.1-11.4-11.2-19.1-15c-0.5-0.2-1-0.5-1.5-0.7c-12.4-5.7-27.6-8.2-43.5-6.2
		c-12.5,1.6-23.9,5.7-33.3,11.6c-5.4,3.4-10.2,7.4-14.2,11.8c-1.8,2-3.4,4.1-4.9,6.3c3.2-3.7,7-7.1,11.3-10.1
		c5.2-3.7,11.1-6.8,17.6-9.2c6-2.2,12.4-3.8,19.1-4.7c0.9-0.1,1.8-0.2,2.7-0.3c13.8-1.3,26.9,0.7,38.1,5.3c0.3,0.1,0.7,0.3,1,0.4
		c3.7,1.6,7.3,3.5,10.5,5.7c7.1,2.2,13.5,5.2,19,8.9C141.2,115.5,140.3,114.2,139.3,113z"/>
</g>
</svg>
