<?xml version="1.0" encoding="utf-8"?>
<!-- Generator: Adobe Illustrator 18.1.0, SVG Export Plug-In . SVG Version: 6.00 Build 0)  -->
<svg version="1.1" id="Layer_1" xmlns="http://www.w3.org/2000/svg" xmlns:xlink="http://www.w3.org/1999/xlink" x="0px" y="0px"
	 viewBox="0 0 150 150" enable-background="new 0 0 150 150" xml:space="preserve">
<g>
	<path fill="#A21D2B" d="M144.8,66.5L145,66h-0.4l-19.2-26H90V26.7L64,7.4V7.1l-0.5,0.2L63,7.1v0.4L37,26.7V63H23.7L4.4,89H4.1
		l0.2,0.5L4.1,90h0.4l19.2,26H60v12.4l26,19.2v0.4l0.5-0.2L87,148v-0.4l26-19.2V93h12.4l19.2-26h0.4L144.8,66.5z M75,43h49.3l1.8,3
		H75V43z M75,49h53.2l1.8,3H75V49z M75,55h57.1l1.8,2H75V55z M75,60h61l1.8,3H75V60z M74.5,77.5L74.5,77.5L74.5,77.5L74.5,77.5
		L74.5,77.5z M60,14.3V78h-3V16.1L60,14.3z M54,18.2V78h-2V20L54,18.2z M49,22.1V78h-3V23.9L49,22.1z M40,27.7l3-1.8V78h-3V27.7z
		 M75,112H24.7l-1.8-2H75V112z M75,107H20.9l-1.8-3H75V107z M75,101H17l-1.8-3H75V101z M75,95H13.1l-1.8-2H75V95z M90,140.7V78h2
		v60.9L90,140.7z M95,136.9V78h3v57.1L95,136.9z M101,133V78h3v53.2L101,133z M109,127.3l-2,1.8V78h2V127.3z"/>
</g>
</svg>
