<?xml version="1.0" encoding="iso-8859-1"?>
<!-- Generator: Adobe Illustrator 13.0.0, SVG Export Plug-In . SVG Version: 6.00 Build 14948)  -->
<!DOCTYPE svg PUBLIC "-//W3C//DTD SVG 1.1//EN" "http://www.w3.org/Graphics/SVG/1.1/DTD/svg11.dtd">
<svg version="1.1" id="Layer_1" xmlns="http://www.w3.org/2000/svg" xmlns:xlink="http://www.w3.org/1999/xlink" x="0px" y="0px"
	 width="100px" height="100px" viewBox="0 0 100 100" enable-background="new 0 0 100 100" xml:space="preserve">
<g>
	<path fill="#31455E" d="M8.591,49.459V38.295h26.783V11.767H62.17v6.3c0,0,10.677,1.379,5.204,11.023c0,0,1.754-8.124-6.688-8.958
		c0,0-6.194-0.918-14.353,9.114c0,0-10.323,11.617-18.68,16.029C27.652,45.274,19.592,50.386,8.591,49.459z"/>
	<path fill="#A5A7A9" d="M88.996,53.998v11.171H62.199v26.529H35.401v-6.3c0,0-10.675-1.379-5.204-11.022
		c0,0-1.752,8.131,6.689,8.965c0,0,6.292,0.99,14.353-9.121c0,0,10.323-11.616,18.68-16.021
		C69.919,58.198,77.979,53.079,88.996,53.998z"/>
	<path fill="#71B353" d="M62.312,29.747v6.548c0,0,0.977,4.037,8.075,0.275c0,0,10.464-6.971,18.269,3.903
		c0,0-15.342-12.267-31.646,19.09c0,0-9.616,13.384-21.734,13.943v-4.603c0,0,1.244-7.247-9.758-1.111c0,0-9.616,7.249-16.729-2.368
		c0,0,12.827,7.657,28.989-17.704C37.777,47.72,49.628,27.654,62.312,29.747z"/>
	<path fill="#31455E" d="M89.052,14.206c0,4.292-3.465,7.756-7.749,7.756s-7.748-3.464-7.748-7.756c0-4.278,3.464-7.749,7.748-7.749
		S89.052,9.928,89.052,14.206z"/>
	<path fill="#A5A7A9" d="M25.333,85.561c0,4.285-3.465,7.756-7.749,7.756c-4.285,0-7.764-3.471-7.764-7.756s3.479-7.749,7.764-7.749
		C21.869,77.812,25.333,81.275,25.333,85.561z"/>
</g>
</svg>
