<?xml version="1.0" encoding="iso-8859-1"?>
<!-- Generator: Adobe Illustrator 13.0.0, SVG Export Plug-In . SVG Version: 6.00 Build 14948)  -->
<!DOCTYPE svg PUBLIC "-//W3C//DTD SVG 1.1//EN" "http://www.w3.org/Graphics/SVG/1.1/DTD/svg11.dtd">
<svg version="1.1" id="Layer_1" xmlns="http://www.w3.org/2000/svg" xmlns:xlink="http://www.w3.org/1999/xlink" x="0px" y="0px"
	 width="100px" height="100px" viewBox="0 0 100 100" enable-background="new 0 0 100 100" xml:space="preserve">
<g>
	<g>
		<path fill-rule="evenodd" clip-rule="evenodd" fill="#90AF4B" d="M26.547,60.396c2.647,10.336,5.029,20.938,18.451,20.499
			c2.053,2.729,4.279,5.289,4.101,10.255C28.825,94.271,21.177,76.391,26.547,60.396z"/>
		<path fill-rule="evenodd" clip-rule="evenodd" fill="#90AF4B" d="M77.102,60.396c-2.647,10.336-5.029,20.938-18.451,20.499
			c-2.06,2.729-4.28,5.289-4.102,10.255C74.823,94.271,82.472,76.391,77.102,60.396z"/>
	</g>
	<path fill="#90AF4B" d="M39.011,29.285v14.944c1.234-0.675,2.521-1.257,3.864-1.736V30.353c0-4.943,4.009-8.952,8.952-8.952
		c4.942,0,8.945,4.009,8.945,8.952v12.141c1.344,0.479,2.631,1.062,3.865,1.736V29.285c0-7.077-5.739-12.811-12.811-12.811
		C44.75,16.475,39.011,22.208,39.011,29.285z"/>
	<path fill="#272525" d="M42.079,44.841c-1.465,0.52-2.866,1.153-4.21,1.886v3.998v13.104c0,7.705,6.246,13.952,13.958,13.952
		c7.705,0,13.952-6.247,13.952-13.952V50.725v-3.998c-1.344-0.732-2.751-1.366-4.211-1.886c-3.045-1.09-6.321-1.684-9.741-1.684
		C48.4,43.157,45.125,43.751,42.079,44.841z M61.568,63.696c0,5.381-4.36,9.747-9.741,9.747c-5.388,0-9.748-4.366-9.748-9.747
		v-14.87c3.046-1.09,6.321-1.684,9.748-1.684c3.42,0,6.696,0.594,9.741,1.684V63.696z"/>
	<path fill="#90AF4B" d="M38.884,18.032c-0.951-1.725-2.312-3.294-3.501-4.966c1.522,1.366,3.178,2.572,4.614,4.164
		c0.571,0.635,1.102,1.332,1.563,2.094c0.201-1.159,0.155-2.134,0.017-3.028c-0.225-1.269-0.727-2.318-1.436-3.201
		c-0.716-0.883-1.633-1.609-2.826-2.105c-1.212-0.473-2.631-0.842-4.667-0.564c-0.536,1.949-0.542,3.345-0.328,4.619
		c0.23,1.252,0.727,2.29,1.419,3.167c0.697,0.877,1.604,1.592,2.78,2.1c0.975,0.393,2.076,0.681,3.547,0.687
		C39.83,19.987,39.432,18.989,38.884,18.032z"/>
</g>
</svg>
