<?xml version="1.0" encoding="utf-8"?>
<!-- Generator: Adobe Illustrator 18.1.0, SVG Export Plug-In . SVG Version: 6.00 Build 0)  -->
<svg version="1.0" id="Layer_1" xmlns="http://www.w3.org/2000/svg" xmlns:xlink="http://www.w3.org/1999/xlink" x="0px" y="0px"
	 viewBox="0 0 150 150" enable-background="new 0 0 150 150" xml:space="preserve">
<g>
	<path fill="#015096" d="M104.3,45.5c-7.6-7.9-16.9-11.9-27.9-11.9c0,0-0.1,0-0.1,0V7.1c0,0,0.1,0,0.1,0c18.4,0,34.3,6.5,47.5,19.6
		c13.2,13,19.8,28.7,19.8,47.1h-28C115.6,62.9,111.8,53.4,104.3,45.5"/>
	<path fill="#231F20" d="M46.9,45.5c-7.6,7.9-11.4,17.3-11.5,28.3h-28c0-18.4,6.7-34.1,19.9-47.1c13.3-13,29.2-19.6,47.5-19.6v26.5
		C63.9,33.6,54.6,37.6,46.9,45.5"/>
	<path fill="#015096" d="M7.4,75.2h28c0,0.1,0,0.1,0,0.2c0,11,3.8,20.4,11.5,28.3c7.6,7.8,16.9,11.7,27.9,11.8v26.5
		c-18.4,0-34.3-6.5-47.5-19.4C14,109.5,7.4,93.8,7.4,75.4C7.4,75.3,7.4,75.3,7.4,75.2"/>
	<path fill="#231F20" d="M115.7,75.2c0,0.1,0,0.1,0,0.2c0,9.3-2.7,17.4-8.1,24.4l0,0c-10.5,13.5-25,15.6-31.2,15.6h-0.1v26.5
		c0,0,0.1,0,0.1,0c18.4,0,34.3-6.5,47.5-19.4c13.2-13,19.8-28.7,19.8-47.1v-0.2H115.7z"/>
	<g>
		<path fill="#231F20" d="M86.3,50.6v6c6.4,3.6,10.8,10.4,10.8,18.3c0,11.6-9.4,20.9-20.9,20.9c-11.6,0-20.9-9.4-20.9-20.9
			c0-7.9,4.4-14.7,10.8-18.3v-6c-9.5,4-16.2,13.4-16.2,24.3c0,14.5,11.8,26.3,26.3,26.3c14.6,0,26.3-11.8,26.3-26.3
			C102.5,64,95.8,54.6,86.3,50.6z"/>
		<polygon fill="#015096" points="82.6,78.3 82.6,73.5 82.6,46.6 69.7,46.6 69.7,73.5 69.7,78.3 		"/>
	</g>
</g>
</svg>
