<?xml version="1.0" encoding="utf-8"?>
<!-- Generator: Adobe Illustrator 16.0.0, SVG Export Plug-In . SVG Version: 6.00 Build 0)  -->
<!DOCTYPE svg PUBLIC "-//W3C//DTD SVG 1.1//EN" "http://www.w3.org/Graphics/SVG/1.1/DTD/svg11.dtd">
<svg version="1.1" id="Layer_1" xmlns="http://www.w3.org/2000/svg" xmlns:xlink="http://www.w3.org/1999/xlink" x="0px" y="0px"
	 width="100px" height="100px" viewBox="0 0 100 100" enable-background="new 0 0 100 100" xml:space="preserve">
<g>
	<path fill="#FFDE0E" d="M61.808,40.962c-5.106-4.623-11.63-6.689-19.228-4.697c-9.432,2.476-14.881,9.477-16.427,17.568
		c4.032,0.579,8.041,1.368,11.957,2.511c3.446,1.186,6.813,2.617,9.862,4.632c1.553-0.534,9.066-3.175,11.278-3.827
		c3.284-0.897,6.57-1.809,9.912-2.452C68.372,49.459,65.94,44.374,61.808,40.962z"/>
	<g>
		<path fill="#EFAF1D" d="M34.354,7.563c-3.29-0.021-6.592-0.029-9.882,0.014c3.03,5.216,5.678,10.64,8.677,15.869
			c1.448,2.848,2.912,5.686,4.507,8.461c1.221-0.382,2.453-0.763,3.688-1.135c-0.791-2.666-1.609-5.313-2.29-7.997
			C37.509,17.695,35.878,12.649,34.354,7.563z"/>
		<path fill="#EFAF1D" d="M43.963,19.151c0.292,3.631,0.57,7.268,0.898,10.896c1.368-0.066,2.754-0.119,4.127-0.176
			c0.163-3.525,0.527-7.038,0.857-10.549c0.453-3.917,0.818-7.838,1.296-11.751c-2.789-0.016-5.57-0.023-8.357-0.016
			C43.093,11.426,43.596,15.282,43.963,19.151z"/>
		<path fill="#EFAF1D" d="M69.278,7.576c-3.306-0.043-6.613-0.029-9.921,0.008c-1.142,4.631-2.715,9.146-4.118,13.697
			c-0.908,2.971-1.662,5.977-2.562,8.95c1.332,0.286,2.655,0.577,3.986,0.869c1.844-3.196,3.396-6.557,5.239-9.753
			C64.326,16.736,66.887,12.199,69.278,7.576z"/>
		<path fill="#EFAF1D" d="M79.399,9.572c-4.729,5.322-8.972,11.049-13.619,16.443c-1.784,2.29-3.622,4.542-5.502,6.752
			c1.419,0.724,2.856,1.448,4.288,2.153c3.279-3.014,7.025-5.48,10.141-8.657c2.13-1.229,4.011-2.862,5.759-4.572
			c1.031-0.777,0.615-2.196,0.764-3.294C81.205,15.394,81.639,11.968,79.399,9.572z"/>
		<path fill="#EFAF1D" d="M30.128,28.69c-3.836-5.104-8.107-9.862-12.01-14.916c-0.854-0.967-1.556-2.202-2.816-2.673
			c-1.002,3.78-0.577,7.774-0.446,11.626c2.84,2.834,6.175,5.177,9.271,7.745c2.194,1.924,4.478,3.744,6.803,5.508
			c1.129-0.783,2.262-1.55,3.412-2.31c-1.362-1.679-2.73-3.345-4.093-5.015L30.128,28.69z"/>
		<path fill="#EFAF1D" d="M71.284,41.943c3.258-1.067,6.527-2.128,9.871-2.913C81.2,36.265,81.2,33.507,81.2,30.74
			c-4.369,2.511-8.922,4.684-13.288,7.203C69.045,39.26,70.173,40.596,71.284,41.943z"/>
		<path fill="#EFAF1D" d="M14.754,39.377c3.425,0.978,6.819,2.082,10.238,3.1c0.904-1.208,1.828-2.406,2.756-3.6
			c-4.257-2.53-8.7-4.734-13.039-7.119C14.725,34.298,14.725,36.836,14.754,39.377z"/>
		<path fill="#EFAF1D" d="M14.732,52.344c2.129-0.237,4.257-0.472,6.386-0.681c0.542-1.701,1.098-3.382,1.692-5.058
			c-2.699-0.25-5.393-0.563-8.085-0.841C14.725,47.959,14.732,50.146,14.732,52.344z"/>
		<path fill="#EFAF1D" d="M75.594,52.211c1.86,0.177,3.716,0.355,5.575,0.54c0.021-2.335,0.021-4.674,0.031-7.009
			c-2.482,0.256-4.956,0.54-7.436,0.775C74.447,48.391,75.038,50.292,75.594,52.211z"/>
	</g>
	<path fill="#596130" d="M19.019,58.23c-1.462-0.021-2.932-0.043-4.396-0.058c0.006,2.211-0.024,4.421-0.03,6.621
		c3.394-0.203,6.79,0.045,10.177-0.051c0.233,0.096,0.695,0.299,0.928,0.396c-0.168,0.139-0.511,0.41-0.687,0.549
		c-3.65,2.094-7.214,4.367-10.506,7.002c0,3.842-0.045,7.69-0.11,11.532c4.991-6.088,11.274-10.982,17.788-15.343
		c2.846-1.801,5.823-3.389,8.946-4.646C34.312,60.627,26.708,58.662,19.019,58.23z"/>
	<g>
		<path fill="#3BA047" d="M81.241,63.172c0-1.854-0.028-3.696-0.064-5.547c-11.378,1.536-22.384,5.289-32.612,10.439
			C36.491,74.306,24.83,81.747,15.339,91.567c1.223,0.921,2.333,2.349,4.024,2.277c3.433,0.093,6.878,0.355,10.317,0.129
			c1.507-0.898,2.715-2.201,4.024-3.349c7.15-6.446,14.656-12.572,22.99-17.425C64.332,68.681,72.66,65.41,81.241,63.172z"/>
		<path fill="#3BA047" d="M81.294,68.395c-14.567,5.904-28.265,14.451-39.088,25.932c5.651,0.132,11.298-0.174,16.946-0.147
			c5.759-8.261,13.969-14.273,22.078-20.056C81.3,72.214,81.317,70.303,81.294,68.395z"/>
		<path fill="#3BA047" d="M81.344,81.484c-4.88,2.993-7.785,8.027-11.024,12.549c3.612-0.051,8.26,0.299,10.418-3.279
			C81.761,87.807,81.134,84.55,81.344,81.484z"/>
	</g>
</g>
</svg>
