<?xml version="1.0" encoding="utf-8"?>
<!-- Generator: Adobe Illustrator 18.1.0, SVG Export Plug-In . SVG Version: 6.00 Build 0)  -->
<svg version="1.1" id="Layer_1" xmlns="http://www.w3.org/2000/svg" xmlns:xlink="http://www.w3.org/1999/xlink" x="0px" y="0px"
	 viewBox="0 0 150 150" enable-background="new 0 0 150 150" xml:space="preserve">
<g>
	<path fill="#DBDBDB" d="M116.1,20.8c-0.1,0.2-0.1,0.3-0.2,0.5L96.5,96.4c-4,15-13.5,22.5-28.4,22.5h-39c-3.1,0-5.7-0.5-7.7-1.3
		c12.5,15.9,31.9,26.2,53.7,26.2c37.7,0,68.3-30.6,68.3-68.3C143.5,53.1,132.7,33.3,116.1,20.8z"/>
	<path fill="#6FC6B4" d="M23.8,96.5c3.7,0,5.1,1.9,4.1,5.6c-1,3.8,0.4,5.8,4.2,5.8h39.1c7.5,0,12.2-3.8,14.2-11.3l19.4-75.3
		c1.3-2.3,2.9-3.9,4.8-4.8c-10.1-5.9-21.8-9.4-34.4-9.4C37.5,7.1,6.9,37.7,6.9,75.5c0,12.3,3.3,23.9,9,33.8
		c-0.1-2.1,0.2-4.4,0.9-7.1C17.8,98.4,20.1,96.5,23.8,96.5z"/>
</g>
</svg>
