<?xml version="1.0" encoding="iso-8859-1"?>
<!-- Generator: Adobe Illustrator 13.0.0, SVG Export Plug-In . SVG Version: 6.00 Build 14948)  -->
<!DOCTYPE svg PUBLIC "-//W3C//DTD SVG 1.1//EN" "http://www.w3.org/Graphics/SVG/1.1/DTD/svg11.dtd">
<svg version="1.1" id="Layer_1" xmlns="http://www.w3.org/2000/svg" xmlns:xlink="http://www.w3.org/1999/xlink" x="0px" y="0px"
	 width="100px" height="100px" viewBox="0 0 100 100" enable-background="new 0 0 100 100" xml:space="preserve">
<g>
	<path fill="#272525" d="M82.996,70.478c4.16-6.188,6.588-13.631,6.588-21.644c0-11.524-5.049-21.844-13.021-28.956L64.281,40.126
		L82.996,70.478z"/>
	<path fill="#187DBC" d="M46.622,59.352l2.479-4.281l10.317,17.934h20.093L59.149,40.126l13.999-22.98
		C66.816,12.661,59.102,10,50.75,10c-2.059,0-4.065,0.208-6.037,0.516l7.139,13.297l-2.705,4.239l-8.938-16.565
		c-4.888,1.379-9.376,3.684-13.279,6.722l13.834,23.266L20.587,72.918h18.29l-2.612,4.413H24.432
		c6.923,6.396,16.148,10.336,26.318,10.336c10.22,0,19.485-3.974,26.42-10.427H56.978L46.622,59.352z"/>
	<path fill="#187DBC" d="M23.59,21.1c-7.197,7.051-11.674,16.864-11.674,27.734c0,7.515,2.171,14.51,5.868,20.457l17.852-27.998
		L23.59,21.1z"/>
</g>
</svg>
