<?xml version="1.0" encoding="utf-8"?>
<!-- Generator: Adobe Illustrator 18.1.0, SVG Export Plug-In . SVG Version: 6.00 Build 0)  -->
<svg version="1.1" id="Layer_1" xmlns="http://www.w3.org/2000/svg" xmlns:xlink="http://www.w3.org/1999/xlink" x="0px" y="0px"
	 viewBox="0 0 150 150" enable-background="new 0 0 150 150" xml:space="preserve">
<g>
	<g>
		<polygon fill="none" points="41.7,86.4 41.8,86.4 42,85 42,85 		"/>
	</g>
	<g>
		<polygon fill="none" points="4.4,85 4,86.4 20.4,86.4 20.4,85 		"/>
	</g>
	<g>
		<path fill="#639065" d="M55.2,15.2H33.6c-7.3,0-13.3,5.9-13.3,13.3v40.9H45L55.2,15.2z"/>
	</g>
	<g>
		<polygon fill="#639065" points="20.4,85 20.4,86.4 41.7,86.4 42,85 		"/>
	</g>
	<g>
		<path fill="#639065" d="M129.3,15.2h-11.9L115,27.8H68l-8,41.3h43.3l-2.4,12.2h0.1v0.1l-0.9,3.6H56.9l-0.3,1.4h43.1l-0.9,3.7H56
			L55,96l-0.1,0l-7.7,41.4h82.2c7.3,0,13.3-5.9,13.3-13.2V28.4C142.6,21.1,136.7,15.2,129.3,15.2z"/>
	</g>
	<g>
		<path fill="#639065" d="M20.4,124.2c0,6.8,5.1,12.4,11.6,13.1l9-47.2H20.4V124.2z"/>
	</g>
	<g>
		<polygon fill="#F16128" points="20.4,85 42,85 42,85 42.7,81.2 17.4,81.2 5.3,81.2 4.4,85 		"/>
	</g>
	<g>
		<polygon fill="#F16128" points="100.1,85 101,81.4 101,81.2 100.9,81.2 57.6,81.2 56.9,85 		"/>
	</g>
	<g>
		<polygon points="41.7,86.4 20.4,86.4 4,86.4 3.1,90.1 20.4,90.1 41,90.1 41.1,90.1 41.8,86.4 		"/>
	</g>
	<g>
		<polygon points="98.8,90.1 99.7,86.4 56.7,86.4 56,90.1 		"/>
	</g>
</g>
</svg>
