<?xml version="1.0" encoding="utf-8"?>
<!-- Generator: Adobe Illustrator 18.1.0, SVG Export Plug-In . SVG Version: 6.00 Build 0)  -->
<svg version="1.1" id="Layer_1" xmlns="http://www.w3.org/2000/svg" xmlns:xlink="http://www.w3.org/1999/xlink" x="0px" y="0px"
	 viewBox="0 0 150 150" enable-background="new 0 0 150 150" xml:space="preserve">
<g>
	<polygon fill="none" points="69.2,30 69.2,92.7 69.2,92.7 69.2,30 	"/>
	<g>
		<polygon fill="#455564" points="118,52.5 118,100.7 75.9,125.7 75.9,146.7 136.4,110.8 136.4,41.7 		"/>
		<polygon fill="#455564" points="75,125.4 33.2,101.3 32.6,52.3 14.5,41.8 15.2,112.1 75.1,146.7 75.1,125.3 		"/>
		<polygon fill="#455564" points="115.5,54.1 112.6,55.7 103.5,60.8 103.5,90.8 99.2,93.2 87.5,99.8 75.7,106.3 75.7,107.8 
			75.7,119.4 115.5,97.1 		"/>
		<polygon fill="#455564" points="75.2,106.1 75.1,106.2 62.7,99.4 51,93 47.6,91.2 47.2,60.7 36.4,54.8 35.3,54.2 35.8,97.9 
			75.2,119.4 75.2,108.1 		"/>
	</g>
	<g>
		<polygon fill="#F7BE31" points="69.2,8.8 69.2,30 69.2,30 69.2,92.7 74.2,95.6 74.2,95.5 74.3,95.6 80.6,92 80.6,30.1 80.6,24.4 
			80.6,9.4 74.3,5.8 		"/>
		<polygon fill="#F7BE31" points="89.1,14.2 89.1,24.3 89.1,34.9 89.1,87.1 99.2,81.2 99.2,40.6 108.3,45.7 112.6,48.1 117.4,50.8 
			135.6,40.3 		"/>
		<polygon fill="#F7BE31" points="32.9,51.1 32.9,50.9 36.3,49 41.3,46.1 51,40.5 51,82.2 61.6,88.3 61.6,34.4 61.6,24.7 61.6,13.2 
			14.5,40.4 		"/>
	</g>
</g>
</svg>
