<?xml version="1.0" encoding="iso-8859-1"?>
<!-- Generator: Adobe Illustrator 13.0.0, SVG Export Plug-In . SVG Version: 6.00 Build 14948)  -->
<!DOCTYPE svg PUBLIC "-//W3C//DTD SVG 1.1//EN" "http://www.w3.org/Graphics/SVG/1.1/DTD/svg11.dtd">
<svg version="1.1" id="Layer_1" xmlns="http://www.w3.org/2000/svg" xmlns:xlink="http://www.w3.org/1999/xlink" x="0px" y="0px"
	 width="100px" height="100px" viewBox="0 0 100 100" enable-background="new 0 0 100 100" xml:space="preserve">
<g>
	<circle fill="#64A7DE" cx="53.062" cy="65.945" r="10.107"/>
	<path fill="#6D6E70" d="M48.908,7.969c-22.98,0-41.61,18.631-41.61,41.611c0,22.982,18.63,41.612,41.61,41.612
		c22.982,0,41.612-18.63,41.612-41.612C90.521,26.6,71.891,7.969,48.908,7.969z M48.908,88.471
		c-21.477,0-38.888-17.412-38.888-38.891c0-21.478,17.411-38.889,38.888-38.889c21.479,0,38.891,17.411,38.891,38.889
		C87.799,71.059,70.387,88.471,48.908,88.471z"/>
	<path fill="#64A7DE" d="M53.062,52.409c6.876,0,12.559,5.156,13.414,11.803h9.621C75.104,52.705,66.002,51.354,65.597,51.3
		l-0.134-0.023c-6.571-1.409-10.686-2.334-13.662-3.269H14.39c-0.023,0.521-0.039,1.045-0.039,1.572
		c0,5.231,1.167,10.188,3.248,14.632h22.05C40.504,57.565,46.187,52.409,53.062,52.409z"/>
	<path fill="#64A7DE" d="M43.834,43.797c-10.346-8.139-19.962-12.412-23.399-13.796c-2.93,4.254-4.934,9.197-5.715,14.539h30.084
		C44.488,44.305,44.166,44.06,43.834,43.797z"/>
	<path fill="#6D6E70" d="M48.908,15.022c-10.52,0-19.937,4.707-26.274,12.124c4.2,1.752,13.36,6.072,23.344,13.926
		c2.016,1.585,3.589,2.542,6.361,3.467h0.437v0.142c2.786,0.888,6.759,1.776,13.382,3.198c1.233,0.212,13.006,2.659,13.475,17.52
		c2.445-4.74,3.836-10.116,3.836-15.818C83.468,30.494,67.995,15.022,48.908,15.022z"/>
	<path fill="#64A7DE" d="M53.062,79.483c-6.875,0-12.559-5.156-13.414-11.804h-20.18c6.084,9.874,16.992,16.459,29.439,16.459
		c12.449,0,23.357-6.585,29.441-16.459H66.477C65.621,74.327,59.938,79.483,53.062,79.483z"/>
	<circle fill="#FFFFFF" cx="53.062" cy="65.945" r="2.879"/>
</g>
</svg>
