<?xml version="1.0" encoding="utf-8"?>
<!-- Generator: Adobe Illustrator 18.1.0, SVG Export Plug-In . SVG Version: 6.00 Build 0)  -->
<svg version="1.1" id="Layer_1" xmlns="http://www.w3.org/2000/svg" xmlns:xlink="http://www.w3.org/1999/xlink" x="0px" y="0px"
	 viewBox="0 0 150 150" enable-background="new 0 0 150 150" xml:space="preserve">
<g>
	<path fill="#C26032" d="M101,20.2L74.7,4.9l-0.7-0.4l-0.7-0.4l-1.4,0.8L45.5,20.2l-0.7,0.4L44.1,21v1.6v19h0v0h23.3v0h2.7V25.5h6.1
		v16.1h2.7v0h23.3v0h0v-19v-0.8V21L101,20.2z M76.3,22.8L76.3,22.8l-6.1,0v0h-2.7v16.1H46.8V22.6v0l0,0L73.2,7.3l0,0l0,0l26.4,15.2
		l0,0v0v16.3H79.1V22.8H76.3z"/>
	<rect x="53.2" y="23.2" fill="#C26032" width="3.7" height="3.7"/>
	<rect x="57.5" y="23.2" fill="#C26032" width="3.7" height="3.7"/>
	<rect x="53.2" y="27.5" fill="#C26032" width="3.7" height="3.7"/>
	<rect x="57.5" y="27.5" fill="#C26032" width="3.7" height="3.7"/>
	<rect x="85.5" y="23.2" fill="#C26032" width="3.7" height="3.7"/>
	<rect x="89.8" y="23.2" fill="#C26032" width="3.7" height="3.7"/>
	<rect x="85.5" y="27.5" fill="#C26032" width="3.7" height="3.7"/>
	<rect x="89.8" y="27.5" fill="#C26032" width="3.7" height="3.7"/>
	<rect x="51.5" y="53" fill="#9C573D" width="20" height="20"/>
	<rect x="74.5" y="53" fill="#713F2B" width="20" height="20"/>
	<rect x="51.5" y="76" fill="#F69A70" width="20" height="20"/>
	<rect x="74.5" y="76" fill="#C26032" width="20" height="20"/>
	<path fill="#F69A70" d="M102.4,129.5v-0.8v-0.8v-19h0v0H79.1v0h-2.7V125h-6.1v-16.1h-2.7v0H44.2v0h0v19v1.6l0.7,0.4l0.7,0.4
		l26.4,15.2l1.4,0.8l0.7-0.4l0.7-0.4l26.4-15.2L102.4,129.5z M79.1,127.7v-16.1h20.7v16.3v0l0,0l-26.4,15.2l0,0l0,0l-26.4-15.2l0,0
		v0v-16.3h20.7v16.1h2.7v0h6.1v0H79.1z"/>
	<rect x="53.2" y="123.6" fill="#F69A70" width="3.7" height="3.7"/>
	<rect x="57.5" y="123.6" fill="#F69A70" width="3.7" height="3.7"/>
	<rect x="53.2" y="119.3" fill="#F69A70" width="3.7" height="3.7"/>
	<rect x="57.5" y="119.3" fill="#F69A70" width="3.7" height="3.7"/>
	<rect x="85.5" y="123.6" fill="#F69A70" width="3.7" height="3.7"/>
	<rect x="89.8" y="123.6" fill="#F69A70" width="3.7" height="3.7"/>
	<rect x="85.5" y="119.3" fill="#F69A70" width="3.7" height="3.7"/>
	<rect x="89.8" y="119.3" fill="#F69A70" width="3.7" height="3.7"/>
	<path fill="#713F2B" d="M19,47.5L3.7,73.8l-0.4,0.7l-0.4,0.7l0.8,1.4L19,103l0.4,0.7l0.4,0.7h1.6h19v0h0V81h0v-2.7H24.3v-6.1h16.1
		v-2.7h0V46.1h0v0h-19h-0.8h-0.8L19,47.5z M21.6,72.2L21.6,72.2l0,6.1h0V81h16.1v20.7H21.4h0l0,0L6.1,75.3l0,0l0,0l15.2-26.4l0,0h0
		h16.3v20.7H21.6V72.2z"/>
	<rect x="22" y="91.6" fill="#713F2B" width="3.7" height="3.7"/>
	<rect x="22" y="87.4" fill="#713F2B" width="3.7" height="3.7"/>
	<rect x="26.3" y="91.6" fill="#713F2B" width="3.7" height="3.7"/>
	<rect x="26.3" y="87.4" fill="#713F2B" width="3.7" height="3.7"/>
	<rect x="22" y="59.3" fill="#713F2B" width="3.7" height="3.7"/>
	<rect x="22" y="55" fill="#713F2B" width="3.7" height="3.7"/>
	<rect x="26.3" y="59.3" fill="#713F2B" width="3.7" height="3.7"/>
	<rect x="26.3" y="55" fill="#713F2B" width="3.7" height="3.7"/>
	<path fill="#9C573D" d="M128.3,46.1h-0.8h-0.8h-19v0h-0.1v23.3h0v2.7h16.1v6.1h-16.1V81h0v23.3h0.1v0h19h1.6l0.4-0.7l0.4-0.7
		l15.2-26.4l0.8-1.4l-0.4-0.7l-0.4-0.7l-15.2-26.4L128.3,46.1z M126.5,69.5h-16.1V48.8h16.3h0l0,0L142,75.2l0,0l0,0l-15.2,26.4l0,0
		h0h-16.3V81h16.1v-2.7h0v-6.1h0V69.5z"/>
	<rect x="122.3" y="91.6" fill="#9C573D" width="3.7" height="3.7"/>
	<rect x="122.3" y="87.4" fill="#9C573D" width="3.7" height="3.7"/>
	<rect x="118.1" y="91.6" fill="#9C573D" width="3.7" height="3.7"/>
	<rect x="118.1" y="87.4" fill="#9C573D" width="3.7" height="3.7"/>
	<rect x="122.3" y="59.3" fill="#9C573D" width="3.7" height="3.7"/>
	<rect x="122.3" y="55" fill="#9C573D" width="3.7" height="3.7"/>
	<rect x="118.1" y="59.3" fill="#9C573D" width="3.7" height="3.7"/>
	<rect x="118.1" y="55" fill="#9C573D" width="3.7" height="3.7"/>
</g>
</svg>
