<?xml version="1.0" encoding="utf-8"?>
<!-- Generator: Adobe Illustrator 18.1.0, SVG Export Plug-In . SVG Version: 6.00 Build 0)  -->
<svg version="1.1" id="Layer_1" xmlns="http://www.w3.org/2000/svg" xmlns:xlink="http://www.w3.org/1999/xlink" x="0px" y="0px"
	 viewBox="0 0 150 150" enable-background="new 0 0 150 150" xml:space="preserve">
<g>
	<path fill="none" d="M93.1,47.2c-0.6-0.2-1-0.8-0.9-1.5c0,0,0.4-1.3,1.3-2.8c-0.1,0-0.1,0-0.2,0c-1.7,0-3.1,1.4-3.1,3.1
		c0,1.7,1.4,3.1,3.1,3.1c1.7,0,3.1-1.4,3.1-3.1c0-0.8-0.3-1.5-0.8-2c-0.8,1.2-1.1,2.3-1.2,2.4C94.4,47,93.8,47.3,93.1,47.2z"/>
	<path fill="none" d="M99.1,56.2c-0.6-0.2-1-0.8-0.9-1.5c0,0,0.4-1.3,1.3-2.8c-0.1,0-0.1,0-0.2,0c-1.7,0-3.1,1.4-3.1,3.1
		c0,1.7,1.4,3.1,3.1,3.1c1.7,0,3.1-1.4,3.1-3.1c0-0.8-0.3-1.5-0.8-2c-0.8,1.2-1.1,2.2-1.2,2.4C100.4,56,99.8,56.4,99.1,56.2z"/>
	<path fill="none" d="M117.1,83.4c-0.6-0.2-1-0.8-0.9-1.5c0,0,0.4-1.3,1.3-2.8c-0.1,0-0.1,0-0.2,0c-1.7,0-3.1,1.4-3.1,3.1
		c0,1.7,1.4,3.1,3.1,3.1c1.7,0,3.1-1.4,3.1-3.1c0-0.8-0.3-1.5-0.8-2c-0.8,1.2-1.1,2.2-1.2,2.4C118.4,83.2,117.8,83.6,117.1,83.4z"/>
	<path fill="none" d="M87.1,38.1c-0.6-0.2-1-0.8-0.9-1.5c0,0,0.4-1.3,1.3-2.8c-0.1,0-0.1,0-0.2,0c-1.7,0-3.1,1.4-3.1,3.1
		c0,1.7,1.4,3.1,3.1,3.1c1.7,0,3.1-1.4,3.1-3.1c0-0.8-0.3-1.5-0.8-2c-0.8,1.2-1.1,2.2-1.2,2.4C88.4,37.9,87.8,38.3,87.1,38.1z"/>
	<path fill="none" d="M126.3,100.4c0,1.7,1.4,3.1,3.1,3.1c1.7,0,3.1-1.4,3.1-3.1c0-0.8-0.3-1.5-0.8-2c-0.8,1.2-1.1,2.2-1.2,2.4
		c-0.2,0.6-0.8,1-1.5,0.8c-0.6-0.2-1-0.8-0.9-1.5c0,0,0.4-1.3,1.3-2.8c-0.1,0-0.1,0-0.2,0C127.7,97.3,126.3,98.7,126.3,100.4z"/>
	<path fill="none" d="M111.1,74.4c-0.6-0.2-1-0.8-0.9-1.5c0,0,0.4-1.3,1.3-2.8c-0.1,0-0.1,0-0.2,0c-1.7,0-3.1,1.4-3.1,3.1
		c0,1.7,1.4,3.1,3.1,3.1c1.7,0,3.1-1.4,3.1-3.1c0-0.8-0.3-1.5-0.8-2c-0.8,1.2-1.1,2.3-1.2,2.4C112.4,74.2,111.8,74.6,111.1,74.4z"/>
	<path fill="none" d="M105.1,65.3c-0.6-0.2-1-0.8-0.9-1.5c0,0,0.4-1.3,1.3-2.8c-0.1,0-0.1,0-0.2,0c-1.7,0-3.1,1.4-3.1,3.1
		c0,1.7,1.4,3.1,3.1,3.1c1.7,0,3.1-1.4,3.1-3.1c0-0.8-0.3-1.5-0.8-2c-0.8,1.2-1.1,2.2-1.2,2.4C106.4,65.1,105.8,65.5,105.1,65.3z"/>
	<path fill="none" d="M81.1,29c-0.6-0.2-1-0.8-0.9-1.5c0,0,0.4-1.3,1.3-2.8c-0.1,0-0.1,0-0.2,0c-1.7,0-3.1,1.4-3.1,3.1
		c0,1.7,1.4,3.1,3.1,3.1c1.7,0,3.1-1.4,3.1-3.1c0-0.8-0.3-1.5-0.8-2c-0.8,1.2-1.1,2.3-1.2,2.4C82.4,28.8,81.8,29.2,81.1,29z"/>
	<path fill="none" d="M123.1,92.5c-0.6-0.2-1-0.8-0.9-1.5c0,0,0.4-1.3,1.3-2.8c-0.1,0-0.1,0-0.2,0c-1.7,0-3.1,1.4-3.1,3.1
		c0,1.7,1.4,3.1,3.1,3.1c1.7,0,3.1-1.4,3.1-3.1c0-0.8-0.3-1.5-0.8-2c-0.8,1.2-1.1,2.2-1.2,2.4C124.4,92.3,123.8,92.7,123.1,92.5z"/>
	<path fill="#C2EAD8" d="M54.2,94.4c-0.5-2.1-0.8-4.3-0.8-6.5c0-11.2,7.1-20.6,17-24.2c-0.5-0.5-1-1-1.4-1.4
		c-6.5-6.5-10.3-10.1-13.8-10.8c-9.8,3.6-16.7,13.1-16.7,24.1c0,3.3,0.6,6.5,1.8,9.4C43.6,89.5,48.5,92.9,54.2,94.4z"/>
	<path fill="#C2EAD8" d="M56.7,93.9c0,0.4,0,0.7,0,1.1c1.3,0.2,2.7,0.3,4.1,0.3c14.1,0,25.6-11.4,25.7-25.4
		c-5-2.1-8.8,1.4-17.8,10.4c-0.7,0.7-1.5,1.5-2.3,2.3c0.8-0.8,1.6-1.6,2.3-2.3c5.3-5.3,8.7-8.8,10.1-11.8
		C66.3,70.2,56.7,80.9,56.7,93.9z"/>
	<path fill="#C2EAD8" d="M89.1,69.1c1.6,2.9,4.9,6.2,9.8,11.2c0.7,0.7,1.5,1.5,2.3,2.3c-0.8-0.8-1.6-1.6-2.3-2.3
		c-3.9-3.9-6.9-6.8-9.4-8.6c0.2,1.3,0.3,2.6,0.3,3.9c0,14.2-11.5,25.7-25.7,25.7c-2.3,0-4.5-0.3-6.6-0.9c0.3,1,0.6,2,0.9,2.9
		c4.7,6.3,12.2,10.3,20.6,10.3c14.2,0,25.7-11.5,25.7-25.7c0-3.3-0.6-6.5-1.8-9.4C99.6,74,94.8,70.6,89.1,69.1z"/>
	<path fill="#C2EAD8" d="M131.7,98.4c0.5,0.5,0.8,1.3,0.8,2c0,1.7-1.4,3.1-3.1,3.1c-1.7,0-3.1-1.4-3.1-3.1c0-1.7,1.4-3.1,3.1-3.1
		c0.1,0,0.1,0,0.2,0c0.7-1.1,1.8-2.4,3.3-3.3l-4.6-7.1c-1.1,0.7-1.9,1.5-2.5,2.3c0.5,0.5,0.8,1.3,0.8,2c0,1.7-1.4,3.1-3.1,3.1
		c-1.7,0-3.1-1.4-3.1-3.1c0-1.7,1.4-3.1,3.1-3.1c0.1,0,0.1,0,0.2,0c0.7-1.1,1.8-2.4,3.3-3.3l-4.6-7.1c-1.1,0.7-2,1.5-2.5,2.4
		c0.5,0.5,0.8,1.3,0.8,2c0,1.7-1.4,3.1-3.1,3.1c-1.7,0-3.1-1.4-3.1-3.1c0-1.7,1.4-3.1,3.1-3.1c0.1,0,0.1,0,0.2,0
		c0.7-1.1,1.8-2.4,3.4-3.3l-4.6-7.1c-1.2,0.7-2,1.5-2.6,2.4c0.5,0.5,0.8,1.3,0.8,2c0,1.7-1.4,3.1-3.1,3.1c-1.7,0-3.1-1.4-3.1-3.1
		c0-1.7,1.4-3.1,3.1-3.1c0.1,0,0.1,0,0.2,0c0.7-1.1,1.8-2.4,3.4-3.3l-4.6-7.1c-1.2,0.7-2,1.5-2.6,2.4c0.5,0.5,0.8,1.3,0.8,2
		c0,1.7-1.4,3.1-3.1,3.1c-1.7,0-3.1-1.4-3.1-3.1c0-1.7,1.4-3.1,3.1-3.1c0.1,0,0.1,0,0.2,0c0.7-1.1,1.8-2.4,3.4-3.4l-4.6-7
		c-1.2,0.7-2,1.6-2.6,2.4c0.5,0.5,0.8,1.3,0.8,2c0,1.7-1.4,3.1-3.1,3.1c-1.7,0-3.1-1.4-3.1-3.1c0-1.7,1.4-3.1,3.1-3.1
		c0.1,0,0.1,0,0.2,0c0.7-1.1,1.9-2.4,3.4-3.4l-4.6-7c-1.2,0.7-2.1,1.6-2.6,2.4c0.5,0.5,0.8,1.3,0.8,2c0,1.7-1.4,3.1-3.1,3.1
		c-1.7,0-3.1-1.4-3.1-3.1c0-1.7,1.4-3.1,3.1-3.1c0.1,0,0.1,0,0.2,0c0.7-1.2,1.9-2.4,3.5-3.4l-4.6-7c-1.2,0.7-2.1,1.6-2.7,2.4
		c0.5,0.5,0.8,1.3,0.8,2c0,1.7-1.4,3.1-3.1,3.1c-1.7,0-3.1-1.4-3.1-3.1c0-1.7,1.4-3.1,3.1-3.1c0.1,0,0.1,0,0.2,0
		c0.8-1.2,1.9-2.5,3.5-3.4l-4.6-7c-1.2,0.7-2.1,1.6-2.7,2.4c0.5,0.5,0.8,1.3,0.8,2c0,1.7-1.4,3.1-3.1,3.1c-1.7,0-3.1-1.4-3.1-3.1
		c0-1.7,1.4-3.1,3.1-3.1c0.1,0,0.1,0,0.2,0c0.8-1.2,1.9-2.5,3.5-3.4l-4.1-6.2L45.5,38.5c8.7,7.7,11.5,5.6,23.5-6.5
		c0.7-0.7,1.5-1.5,2.3-2.3c-0.8,0.8-1.6,1.6-2.3,2.3c-5.3,5.3-8.7,8.8-10.2,11.9c0.7-0.1,1.3-0.1,2-0.1c10.9,0,20.2,6.8,23.9,16.3
		c0.2,0.2,0.3,0.5,0.5,0.7c3.5-0.8,7.2-4.4,13.7-10.8c0.7-0.7,1.5-1.5,2.3-2.3c-0.8,0.8-1.6,1.6-2.3,2.3
		c-6.5,6.5-10.1,10.3-10.8,13.8c6.8,2.5,12.3,7.9,15,14.7c3.2,4.3,5.1,9.6,5.1,15.4c0,14.2-11.5,25.7-25.7,25.7
		c-10.9,0-20.2-6.8-23.9-16.3c-0.8-1-1.4-2.1-2-3.2C49,97.7,43,92.1,40.2,84.9c-3.2-4.3-5.1-9.6-5.1-15.4c0-10.2,6-19,14.6-23.2
		c-0.3-2.2-1.8-4.6-4.5-7.6L8.1,63.1l45.8,69.6l24.1-8l8.4,10.9l-0.7,0.3c-9.8-0.9-24.2-2.2-31.8-3c7.9,0.8,23.2,2.2,33,3.1
		l51.3-33.7l-4-6.1C133.1,96.7,132.3,97.6,131.7,98.4z"/>
	<path fill="#C2EAD8" d="M70.4,63.7c2.7-1,5.6-1.5,8.6-1.5c-1.3-3-4.7-6.5-10.1-11.9c-1.6-0.3-3.2-0.5-4.8-0.5
		c-1.8,0-3.6,0.2-5.4,0.6c1.4,3,4.8,6.5,10.2,11.9C69.4,62.7,69.9,63.2,70.4,63.7z"/>
	<path fill="#C2EAD8" d="M68.9,50.3c7.9,7.9,11.8,11.4,16.1,10.6c-0.1-0.2-0.2-0.5-0.3-0.7C81,55.1,75.4,51.5,68.9,50.3z"/>
	<path fill="#D27E3D" d="M58.8,50.4c1.7-0.4,3.5-0.6,5.4-0.6c1.6,0,3.2,0.2,4.8,0.5c-0.1-0.1-0.2-0.2-0.2-0.2
		c-0.7-0.7-1.5-1.5-2.3-2.3c0.8,0.8,1.6,1.6,2.3,2.3c0.1,0.1,0.2,0.2,0.2,0.2c6.4,1.2,12,4.8,15.8,9.9C81,50.6,71.7,43.8,60.8,43.8
		c-0.7,0-1.4,0-2,0.1C57.7,46.2,57.7,48.1,58.8,50.4z"/>
	<path fill="#D27E3D" d="M55.2,51.4c-4.4-0.9-8.3,2.7-16.4,10.8c-0.7,0.7-1.5,1.5-2.3,2.3c0.8-0.8,1.6-1.6,2.3-2.3
		c7.8-7.8,11.5-11.7,10.9-15.9c-8.6,4.1-14.6,13-14.6,23.2c0,5.8,1.9,11.1,5.1,15.4c-1.1-2.9-1.8-6.1-1.8-9.4
		C38.4,64.5,45.4,55.1,55.2,51.4z"/>
	<path fill="#D27E3D" d="M89.1,69.1c5.6,1.5,10.5,4.9,13.9,9.5c-2.7-6.8-8.1-12.2-15-14.7C87.7,65.5,88.1,67.2,89.1,69.1z"/>
	<path fill="#D27E3D" d="M85.2,60.8c-0.2-0.2-0.3-0.5-0.5-0.7c0.1,0.2,0.2,0.5,0.3,0.7C85.1,60.9,85.2,60.9,85.2,60.8z"/>
	<path fill="#D27E3D" d="M64.1,101.3c14.2,0,25.7-11.5,25.7-25.7c0-1.3-0.1-2.6-0.3-3.9c-1.1-0.8-2.1-1.4-3-1.8
		c-0.1,14.1-11.6,25.4-25.7,25.4c-1.4,0-2.8-0.1-4.1-0.3c0-0.4,0-0.7,0-1.1c0-13,9.6-23.7,22.1-25.5c1.1-2.2,1.1-4.1,0.2-6.2
		c-3,0-5.9,0.5-8.6,1.5c0.3,0.3,0.6,0.6,0.9,0.9c-0.3-0.3-0.6-0.6-0.9-0.9c-9.9,3.6-17,13.1-17,24.2c0,2.2,0.3,4.4,0.8,6.5
		c-5.7-1.5-10.6-4.9-14-9.5c2.8,7.2,8.8,12.8,16.2,15.1c0.6,1.1,1.3,2.2,2,3.2c-0.4-0.9-0.7-1.9-0.9-2.9
		C59.7,101,61.9,101.3,64.1,101.3z"/>
	<path fill="#D27E3D" d="M79.1,113.6c-8.4,0-15.9-4.1-20.6-10.3c3.8,9.6,13.1,16.3,23.9,16.3c14.2,0,25.7-11.5,25.7-25.7
		c0-5.8-1.9-11.1-5.1-15.4c1.1,2.9,1.8,6.1,1.8,9.4C104.8,102.1,93.3,113.6,79.1,113.6z"/>
	<path fill="#00B583" d="M141.4,92.8c-3.8-0.7-6.5,0-8.5,1.2c-1.5,0.9-2.6,2.2-3.3,3.3c-1,1.5-1.3,2.8-1.3,2.8
		c-0.2,0.6,0.2,1.3,0.9,1.5c0.6,0.2,1.3-0.2,1.5-0.8c0-0.1,0.3-1.2,1.2-2.4c0.6-0.8,1.4-1.7,2.5-2.3c1.6-0.9,3.7-1.4,6.7-0.9
		c0.7,0.1,1.3-0.3,1.4-1C142.5,93.6,142,93,141.4,92.8z"/>
	<path fill="#00B583" d="M111.6,70.1c-1,1.5-1.3,2.8-1.3,2.8c-0.2,0.6,0.2,1.3,0.9,1.5c0.6,0.2,1.3-0.2,1.5-0.8
		c0-0.1,0.3-1.2,1.2-2.4c0.6-0.8,1.4-1.7,2.6-2.4c1.5-0.9,3.7-1.4,6.6-0.8c0.7,0.1,1.3-0.3,1.4-1c0.1-0.7-0.3-1.3-1-1.4
		c-3.7-0.7-6.4,0-8.4,1.2C113.4,67.7,112.3,69,111.6,70.1z"/>
	<path fill="#00B583" d="M105.6,61c-1,1.5-1.3,2.8-1.3,2.8c-0.2,0.6,0.2,1.3,0.9,1.5c0.6,0.2,1.3-0.2,1.5-0.8c0-0.1,0.3-1.2,1.2-2.4
		c0.6-0.8,1.4-1.7,2.6-2.4c1.5-0.9,3.7-1.4,6.6-0.8c0.7,0.1,1.3-0.3,1.4-1c0.1-0.7-0.3-1.3-1-1.4c-3.7-0.7-6.4,0-8.4,1.1
		C107.4,58.6,106.3,59.9,105.6,61z"/>
	<path fill="#00B583" d="M123.6,88.3c-1,1.5-1.3,2.8-1.3,2.8c-0.2,0.6,0.2,1.3,0.9,1.5c0.6,0.2,1.3-0.2,1.5-0.8
		c0-0.1,0.3-1.2,1.2-2.4c0.6-0.8,1.4-1.7,2.5-2.3c1.5-0.9,3.7-1.4,6.7-0.9c0.7,0.1,1.3-0.3,1.4-1c0.1-0.7-0.3-1.3-1-1.4
		c-3.7-0.7-6.5,0-8.4,1.2C125.4,85.9,124.3,87.1,123.6,88.3z"/>
	<path fill="#00B583" d="M81.6,24.8c-1,1.5-1.3,2.8-1.3,2.8c-0.2,0.6,0.2,1.3,0.9,1.5c0.6,0.2,1.3-0.2,1.5-0.8
		c0-0.1,0.3-1.2,1.2-2.4c0.6-0.9,1.5-1.8,2.7-2.4c1.5-0.8,3.6-1.3,6.5-0.8c0.7,0.1,1.3-0.3,1.4-1c0.1-0.7-0.3-1.3-1-1.4
		c-3.6-0.7-6.3-0.1-8.3,1.1C83.5,22.3,82.4,23.6,81.6,24.8z"/>
	<path fill="#00B583" d="M117.6,79.2c-1,1.5-1.3,2.8-1.3,2.8c-0.2,0.6,0.2,1.3,0.9,1.5c0.6,0.2,1.3-0.2,1.5-0.8
		c0-0.1,0.3-1.2,1.2-2.4c0.6-0.8,1.4-1.7,2.5-2.4c1.5-0.9,3.7-1.4,6.6-0.8c0.7,0.1,1.3-0.3,1.4-1c0.1-0.7-0.3-1.3-1-1.4
		c-3.7-0.7-6.4,0-8.4,1.2C119.4,76.8,118.3,78.1,117.6,79.2z"/>
	<path fill="#00B583" d="M87.6,33.8c-1,1.5-1.3,2.8-1.3,2.8c-0.2,0.6,0.2,1.3,0.9,1.5c0.6,0.2,1.3-0.2,1.5-0.8
		c0-0.1,0.3-1.2,1.2-2.4c0.6-0.8,1.5-1.7,2.7-2.4c1.5-0.9,3.6-1.3,6.5-0.8c0.7,0.1,1.3-0.3,1.4-1c0.1-0.7-0.3-1.3-1-1.4
		c-3.6-0.7-6.3-0.1-8.3,1.1C89.5,31.4,88.4,32.7,87.6,33.8z"/>
	<path fill="#00B583" d="M93.6,42.9c-1,1.5-1.3,2.8-1.3,2.8c-0.2,0.6,0.2,1.3,0.9,1.5c0.6,0.2,1.3-0.2,1.5-0.8
		c0-0.1,0.3-1.2,1.2-2.4c0.6-0.8,1.4-1.7,2.6-2.4c1.5-0.9,3.6-1.3,6.5-0.8c0.7,0.1,1.3-0.3,1.4-1c0.1-0.7-0.3-1.3-1-1.4
		c-3.7-0.7-6.4,0-8.3,1.1C95.5,40.5,94.4,41.8,93.6,42.9z"/>
	<path fill="#00B583" d="M99.6,52c-1,1.5-1.3,2.8-1.3,2.8c-0.2,0.6,0.2,1.3,0.9,1.5c0.6,0.2,1.3-0.2,1.5-0.8c0-0.1,0.3-1.2,1.2-2.4
		c0.6-0.8,1.4-1.7,2.6-2.4c1.5-0.9,3.7-1.4,6.6-0.8c0.7,0.1,1.3-0.3,1.4-1c0.1-0.7-0.3-1.3-1-1.4c-3.7-0.7-6.4,0-8.3,1.1
		C101.5,49.6,100.3,50.8,99.6,52z"/>
	<polygon opacity="0.35" fill="#FFFFFF" points="53.9,132.7 54,132.8 53.9,132.7 	"/>
	<path fill="#C2EAD8" d="M86.4,135.5L78,124.7l-24.1,8l0.1,0.1c7.6,0.7,22,2.1,31.8,3L86.4,135.5z"/>
	<path opacity="0.35" fill="#FFFFFF" d="M86.4,135.5L78,124.7l-24.1,8l0.1,0.1c7.6,0.7,22,2.1,31.8,3L86.4,135.5z"/>
	<path fill="#73D1AE" d="M78.6,13.8L40.1,33.4c1.1,1.1,2.1,2.1,3.1,3L78.6,13.8z"/>
	<path fill="#73D1AE" d="M16.4,45.5l3.6,5.7l23.1-14.8c-0.9-1-1.9-2-3-3.1L16.4,45.5z"/>
	<path fill="none" stroke="#FFFFFF" stroke-width="0" stroke-linecap="round" stroke-linejoin="round" d="M101.3,82.6
		c-0.8-0.8-1.6-1.6-2.3-2.3"/>
	<path fill="none" stroke="#FFFFFF" stroke-width="0" stroke-linecap="round" stroke-linejoin="round" d="M98.9,50
		c0.7-0.7,1.5-1.5,2.3-2.3"/>
	<path fill="none" stroke="#FFFFFF" stroke-width="0" stroke-linecap="round" stroke-linejoin="round" d="M71.3,29.7
		c-0.8,0.8-1.6,1.6-2.3,2.3"/>
	<path fill="none" stroke="#FFFFFF" stroke-width="0" stroke-linecap="round" stroke-linejoin="round" d="M69,62.3
		c0.5,0.5,0.9,0.9,1.4,1.4"/>
	<path fill="none" stroke="#FFFFFF" stroke-width="0" stroke-linecap="round" stroke-linejoin="round" d="M70.4,63.7
		c0.3,0.3,0.6,0.6,0.9,0.9"/>
	<path fill="#FFFFFF" d="M36.4,29.7c0.8,0.8,1.6,1.6,2.3,2.3C38,31.3,37.3,30.6,36.4,29.7z"/>
	<path fill="#FFFFFF" d="M68.7,80.2c-0.7,0.7-1.5,1.5-2.3,2.3C67.2,81.8,68,81,68.7,80.2z"/>
	<path fill="#EAF7F0" d="M68.9,50.3c-0.1-0.1-0.2-0.2-0.2-0.2C68.8,50.1,68.9,50.2,68.9,50.3c5.4,5.4,8.7,8.9,10.1,11.9
		c0.9,2.1,0.9,4.1-0.2,6.2c-1.5,3-4.8,6.5-10.1,11.8c9-9,12.8-12.5,17.8-10.4c0.9,0.4,1.9,1,3,1.8c2.5,1.8,5.4,4.7,9.4,8.6
		c-4.9-4.9-8.2-8.3-9.8-11.2c-1.1-1.9-1.4-3.5-1-5.3c0.7-3.5,4.3-7.3,10.8-13.8c-6.4,6.4-10.2,10-13.7,10.8c-0.1,0-0.1,0-0.2,0
		C80.7,61.7,76.9,58.2,68.9,50.3z"/>
	<path fill="#FFFFFF" d="M36.4,64.6c0.8-0.8,1.6-1.6,2.3-2.3C38,63,37.3,63.8,36.4,64.6z"/>
	<path fill="#EAF7F0" d="M38.8,62.3c8.1-8.1,12-11.7,16.4-10.8c3.5,0.7,7.3,4.3,13.8,10.8c-5.4-5.4-8.7-8.9-10.2-11.9
		c-1.1-2.2-1.1-4.2,0-6.4c1.4-3,4.8-6.5,10.2-11.9c-12,12-14.8,14.2-23.5,6.5c-0.7-0.6-1.5-1.3-2.3-2.1c-1-0.9-2-1.9-3.1-3
		c-0.4-0.4-0.9-0.9-1.4-1.4c0.5,0.5,0.9,0.9,1.4,1.4c1.1,1.1,2.1,2.1,3,3.1c0.8,0.8,1.4,1.5,2.1,2.2c2.7,3.1,4.2,5.4,4.5,7.6
		C50.2,50.5,46.6,54.4,38.8,62.3z"/>
	<path fill="#FFFFFF" d="M66.4,47.7c0.8,0.8,1.6,1.6,2.3,2.3C68,49.3,67.2,48.5,66.4,47.7z"/>
</g>
</svg>
