<?xml version="1.0" encoding="utf-8"?>
<!-- Generator: Adobe Illustrator 16.0.0, SVG Export Plug-In . SVG Version: 6.00 Build 0)  -->
<!DOCTYPE svg PUBLIC "-//W3C//DTD SVG 1.1//EN" "http://www.w3.org/Graphics/SVG/1.1/DTD/svg11.dtd">
<svg version="1.1" id="Layer_1" xmlns="http://www.w3.org/2000/svg" xmlns:xlink="http://www.w3.org/1999/xlink" x="0px" y="0px"
	 width="100px" height="100px" viewBox="0 0 100 100" enable-background="new 0 0 100 100" xml:space="preserve">
<g>
	<path fill="#8BC53F" d="M9.437,35.223c0,0,15.533,3.219,34.487,22.172l3.354,0.342l0.481-0.412v-0.951l-6.161-9.887l1.779-11.811
		C43.376,34.675,22.298,30.844,9.437,35.223z"/>
	<path fill="#1588B4" d="M36.084,50.228c0,0-11.729,18.394-9.13,43.917c0,0,2.6-13.209,22.995-29.013l11.429-8.967l1.844-1.784
		l-1.641-2.597l-16.673,5.343L36.084,50.228z"/>
	<polygon fill="#EC1C24" points="52.308,63.313 52.506,63.432 78.62,78.612 68.426,52.126 61.169,41.931 58.364,41.108 
		60.902,56.532 	"/>
	<path fill="#3D6C34" d="M90.798,29.82c0,0-4.376,11.702-22.372,22.306l-6.334-8.897l-13.169-5.605l1.839-1.774
		c0,0,30.045-2.27,39.769-6.029"/>
	<polyline fill="#149AC3" points="50.762,35.85 62.508,36.69 51.927,9.723 39.015,43.277 41.598,46.486 	"/>
	<path fill="#3D6C34" d="M90.798,29.82c0,0-4.376,11.702-22.372,22.306l-6.334-8.897l-12.653-5.387l1.323-1.992
		c0,0,30.045-2.27,39.769-6.029"/>
</g>
</svg>
