<?xml version="1.0" encoding="utf-8"?>
<!-- Generator: Adobe Illustrator 18.1.0, SVG Export Plug-In . SVG Version: 6.00 Build 0)  -->
<svg version="1.0" id="Layer_1" xmlns="http://www.w3.org/2000/svg" xmlns:xlink="http://www.w3.org/1999/xlink" x="0px" y="0px"
	 viewBox="0 0 150 150" enable-background="new 0 0 150 150" xml:space="preserve">
<g>
	<path fill="#00A896" d="M48.2,28.6c0.8,2.6,0.5,5.1-0.7,7.5c-1.2,2.4-3.1,4-5.5,4.8c-2.5,0.8-4.9,0.6-7.2-0.7
		c-2.3-1.3-3.8-3.2-4.6-5.8c-0.8-2.6-0.5-5.1,0.7-7.5c1.2-2.4,3.1-4,5.5-4.8c2.5-0.8,4.9-0.6,7.2,0.7C45.9,24.1,47.5,26,48.2,28.6z"
		/>
	<path fill="#1D76BB" d="M56.7,14.9c0.4,1.3,0.2,2.5-0.4,3.8c-0.6,1.3-1.6,2.1-2.8,2.5c-1.2,0.4-2.4,0.3-3.6-0.4
		c-1.2-0.7-2-1.6-2.4-2.9c-0.4-1.3-0.2-2.5,0.4-3.8c0.6-1.3,1.6-2.1,2.8-2.5c1.2-0.4,2.4-0.2,3.6,0.4C55.6,12.7,56.4,13.7,56.7,14.9
		z"/>
	<path fill="#00A896" d="M69,40.1c0.8,2.6,0.5,5.1-0.7,7.5c-1.2,2.4-3.1,4-5.5,4.8c-2.5,0.8-4.9,0.6-7.2-0.7
		c-2.3-1.3-3.8-3.2-4.6-5.8c-0.8-2.6-0.5-5.1,0.7-7.5c1.2-2.4,3.1-4,5.5-4.8c2.5-0.8,4.9-0.6,7.2,0.7C66.7,35.6,68.3,37.5,69,40.1z"
		/>
	<path fill="#1D76BB" d="M80,18.3c0.8,2.6,0.5,5.1-0.7,7.5c-1.2,2.4-3.1,4-5.6,4.8c-2.5,0.8-4.9,0.6-7.2-0.7
		c-2.3-1.3-3.8-3.2-4.6-5.8c-0.8-2.6-0.5-5.1,0.7-7.5c1.2-2.4,3.1-4,5.5-4.8c2.5-0.8,4.9-0.6,7.2,0.7C77.7,13.8,79.3,15.8,80,18.3z"
		/>
	<path fill="#00A896" d="M89.8,51.6c0.8,2.6,0.5,5.1-0.7,7.5c-1.2,2.4-3.1,4-5.5,4.8c-2.5,0.8-4.9,0.6-7.2-0.7
		c-2.3-1.3-3.9-3.2-4.6-5.8c-0.8-2.6-0.5-5.1,0.7-7.5c1.2-2.4,3.1-4,5.5-4.8c2.5-0.8,4.9-0.6,7.2,0.7C87.5,47.1,89.1,49,89.8,51.6z"
		/>
	<path fill="#1D76BB" d="M100.8,29.8c0.8,2.6,0.5,5.1-0.7,7.5c-1.2,2.4-3,4-5.5,4.8c-2.5,0.8-4.8,0.6-7.2-0.7
		c-2.3-1.3-3.8-3.2-4.6-5.8c-0.8-2.6-0.5-5.1,0.7-7.5c1.2-2.4,3.1-4,5.5-4.8c2.5-0.8,4.9-0.6,7.2,0.7C98.5,25.3,100,27.3,100.8,29.8
		z"/>
	<path fill="#00A896" d="M104.2,57.9c0.4,1.3,0.3,2.5-0.4,3.8c-0.6,1.3-1.6,2.1-2.8,2.5c-1.2,0.4-2.4,0.3-3.6-0.4
		c-1.2-0.7-2-1.6-2.3-2.9c-0.4-1.3-0.2-2.5,0.4-3.8c0.6-1.3,1.6-2.1,2.7-2.5c1.2-0.4,2.4-0.3,3.6,0.4
		C103,55.7,103.8,56.7,104.2,57.9z"/>
	<path fill="#1D76BB" d="M121.6,41.3c0.8,2.6,0.5,5.1-0.7,7.5c-1.2,2.4-3.1,4-5.5,4.8c-2.5,0.8-4.9,0.5-7.2-0.7
		c-2.3-1.3-3.8-3.2-4.6-5.8c-0.8-2.6-0.5-5.1,0.7-7.5c1.2-2.4,3.1-4,5.5-4.8c2.5-0.8,4.9-0.6,7.2,0.7
		C119.3,36.8,120.8,38.8,121.6,41.3z"/>
	<path fill="#1D76BB" d="M67.9,112.4c-1.2-0.3-2.2-1.1-2.9-2.2c-0.7-1.2-0.9-2.5-0.7-3.7c0.3-1.3,1-2.3,2.2-3.1
		c1.2-0.7,2.3-1,3.6-0.7c1.2,0.3,2.2,1.1,2.9,2.2c0.7,1.2,0.9,2.5,0.7,3.7c-0.3,1.3-1,2.3-2.1,3.1C70.3,112.4,69.1,112.7,67.9,112.4
		z"/>
	<path fill="#E24301" d="M72.9,136.4c-2.5-0.6-4.5-2.1-5.9-4.4c-1.4-2.3-1.8-4.8-1.2-7.4c0.6-2.6,2-4.7,4.2-6.2
		c2.2-1.5,4.6-1.9,7.1-1.3c2.5,0.6,4.5,2.1,5.9,4.4c1.4,2.3,1.8,4.8,1.2,7.5c-0.6,2.6-2,4.7-4.2,6.1C77.8,136.6,75.4,137,72.9,136.4
		z"/>
	<path fill="#1D76BB" d="M80.3,102.5c-2.5-0.6-4.5-2.1-5.9-4.4c-1.4-2.3-1.8-4.8-1.2-7.4c0.6-2.6,2-4.7,4.2-6.1
		c2.2-1.5,4.6-1.9,7.1-1.3c2.5,0.6,4.5,2.1,5.9,4.4c1.4,2.3,1.8,4.8,1.2,7.4c-0.6,2.6-2,4.7-4.2,6.2
		C85.2,102.6,82.8,103.1,80.3,102.5z"/>
	<path fill="#E24301" d="M92.8,123.3c-2.5-0.6-4.5-2.1-5.9-4.4c-1.4-2.3-1.8-4.8-1.2-7.4c0.6-2.6,2-4.7,4.2-6.1
		c2.2-1.5,4.6-1.9,7.1-1.3c2.5,0.6,4.5,2.1,5.9,4.4c1.4,2.3,1.8,4.8,1.2,7.4c-0.6,2.6-2,4.7-4.2,6.2
		C97.7,123.5,95.3,123.9,92.8,123.3z"/>
	<path fill="#1D76BB" d="M100.2,89.4c-2.5-0.6-4.5-2.1-5.9-4.4c-1.4-2.3-1.8-4.8-1.2-7.4c0.6-2.6,2-4.7,4.2-6.1
		c2.2-1.5,4.6-1.9,7.1-1.3c2.5,0.6,4.5,2.1,5.9,4.4c1.4,2.3,1.8,4.8,1.2,7.4c-0.6,2.6-2,4.7-4.2,6.2C105.1,89.6,102.7,90,100.2,89.4
		z"/>
	<path fill="#E24301" d="M112.7,110.2c-2.5-0.6-4.5-2.1-5.9-4.4c-1.4-2.3-1.8-4.8-1.2-7.4c0.6-2.6,2-4.7,4.2-6.2
		c2.2-1.4,4.6-1.9,7.1-1.3c2.5,0.6,4.5,2.1,5.9,4.4c1.4,2.3,1.8,4.8,1.2,7.5c-0.6,2.6-2,4.7-4.2,6.2
		C117.6,110.4,115.2,110.8,112.7,110.2z"/>
	<path fill="#1D76BB" d="M120.1,76.3c-2.5-0.6-4.5-2.1-5.9-4.4c-1.4-2.3-1.8-4.8-1.2-7.4c0.6-2.7,2-4.7,4.2-6.1
		c2.2-1.5,4.6-1.9,7.1-1.3c2.5,0.6,4.5,2.1,5.9,4.4c1.4,2.3,1.8,4.8,1.2,7.4c-0.6,2.6-2,4.7-4.2,6.2C125,76.5,122.6,76.9,120.1,76.3
		z"/>
	<path fill="#E24301" d="M127.2,90.8c-1.2-0.3-2.2-1.1-2.9-2.2c-0.7-1.2-1-2.4-0.7-3.7c0.3-1.3,1-2.3,2.1-3.1c1.1-0.8,2.4-1,3.6-0.7
		c1.2,0.3,2.2,1.1,2.9,2.3c0.7,1.2,0.9,2.4,0.7,3.7c-0.3,1.3-1,2.3-2.2,3C129.6,90.9,128.4,91.1,127.2,90.8z"/>
	<path fill="#00A896" d="M22.1,46.9c1.8-2,3.9-3,6.6-3.1c2.6-0.1,4.9,0.8,6.7,2.6c1.9,1.8,2.9,4.1,3,6.9c0.1,2.7-0.7,5.1-2.5,7.1
		c-1.8,2-3.9,3-6.5,3.1c-2.6,0.1-4.9-0.8-6.8-2.6c-1.9-1.9-2.9-4.1-3-6.9C19.5,51.2,20.4,48.8,22.1,46.9z"/>
	<path fill="#00A896" d="M23,71.5c1.8-2,4-3,6.6-3.1c2.6-0.1,4.9,0.8,6.8,2.6c1.9,1.8,2.9,4.1,3,6.9c0.1,2.7-0.7,5.1-2.5,7.1
		c-1.8,2-4,3-6.6,3.1c-2.6,0.1-4.9-0.8-6.8-2.6c-1.9-1.8-2.9-4.1-3-6.9C20.4,75.8,21.2,73.5,23,71.5z"/>
	<path fill="#00A896" d="M23.9,96.1c1.8-2,4-3,6.6-3.2c2.6-0.1,4.9,0.8,6.8,2.6c1.9,1.9,2.9,4.1,3,6.9c0.1,2.7-0.7,5.1-2.5,7.1
		c-1.8,2-4,3-6.6,3.1c-2.6,0.1-4.9-0.8-6.8-2.6c-1.9-1.9-2.9-4.1-3-6.9C21.3,100.4,22.1,98.1,23.9,96.1z"/>
	<path fill="#00A896" d="M32.7,118.9c0.9-1,1.9-1.5,3.3-1.5c1.4-0.1,2.5,0.4,3.4,1.3c0.9,0.9,1.4,2,1.5,3.5c0,1.4-0.4,2.6-1.2,3.6
		c-0.8,1-1.9,1.5-3.3,1.5c-1.4,0.1-2.5-0.4-3.4-1.2c-0.9-0.9-1.4-2-1.4-3.5C31.4,121.1,31.8,119.9,32.7,118.9z"/>
	<path fill="#E24301" d="M44.5,54.4c0.8-1,2-1.5,3.3-1.5c1.4-0.1,2.5,0.4,3.4,1.3c0.9,0.9,1.4,2.1,1.5,3.5c0,1.4-0.3,2.6-1.2,3.6
		c-0.8,1-1.9,1.5-3.3,1.5c-1.4,0-2.5-0.4-3.4-1.3c-0.9-0.9-1.4-2.1-1.5-3.5C43.2,56.5,43.6,55.3,44.5,54.4z"/>
	<path fill="#E24301" d="M46.5,70.6c1.8-2,4-3,6.6-3.1c2.6-0.1,4.9,0.8,6.8,2.6c1.9,1.8,2.9,4.1,3,6.9c0.1,2.7-0.7,5.1-2.5,7.1
		c-1.8,2-4,3-6.6,3.1c-2.6,0.1-4.9-0.8-6.8-2.6c-1.9-1.9-2.9-4.1-3-6.9C43.9,74.9,44.7,72.5,46.5,70.6z"/>
	<path fill="#E24301" d="M47.4,95.2c1.8-2,3.9-3,6.6-3.1c2.6-0.1,4.9,0.8,6.7,2.6c1.9,1.8,2.9,4.1,3,6.9c0.1,2.7-0.7,5.1-2.5,7.1
		c-1.7,2-3.9,3-6.5,3.1c-2.6,0.1-4.9-0.8-6.8-2.6c-1.9-1.8-2.9-4.1-3-6.9C44.8,99.5,45.6,97.1,47.4,95.2z"/>
	<path fill="#E24301" d="M48.2,119.8c1.8-2,3.9-3,6.6-3.1c2.6-0.1,4.9,0.8,6.7,2.6c1.9,1.8,2.9,4.1,3,6.8c0.1,2.7-0.7,5.1-2.5,7.1
		c-1.7,2-3.9,3-6.5,3.1c-2.6,0.1-4.9-0.8-6.8-2.6c-1.9-1.8-2.9-4.1-3-6.9C45.7,124.1,46.5,121.8,48.2,119.8z"/>
</g>
</svg>
