<?xml version="1.0" encoding="utf-8"?>
<!-- Generator: Adobe Illustrator 18.1.0, SVG Export Plug-In . SVG Version: 6.00 Build 0)  -->
<svg version="1.0" id="Layer_1" xmlns="http://www.w3.org/2000/svg" xmlns:xlink="http://www.w3.org/1999/xlink" x="0px" y="0px"
	 viewBox="0 0 150 150" enable-background="new 0 0 150 150" xml:space="preserve">
<g>
	<path fill="#00AE4D" d="M67.2,75.6c2.5-0.1,4.5-2.1,4.4-4.6c0-2.5-2.1-4.5-4.6-4.4c-2.5,0-4.5,2.1-4.5,4.6
		C62.6,73.6,64.7,75.6,67.2,75.6"/>
	<path fill="#00AE4D" d="M84.1,75.2c2.5,0,4.5-2.1,4.4-4.6c0-2.5-2.1-4.5-4.6-4.5c-2.5,0-4.5,2.1-4.4,4.6
		C79.6,73.2,81.6,75.2,84.1,75.2"/>
	<path fill="#ECB11F" d="M58.6,50.7c1.3-2.1-6-10.2-8.8-8.7C45.6,44.1,47,54.2,47,54.2C51.6,55,57.3,52.8,58.6,50.7"/>
	<path fill="#ECB11F" d="M69.9,82.1c0.8,1.9,2.6,4.3,5,5.8C75,88,75,88.3,75,88.6c-0.7,3.2-12.3,15.8-22.1,2.5
		c-0.6-0.9-1.7-1.2-2.6-0.7c-0.9,0.6-1.2,1.7-0.6,2.6c5.8,12.1,22,7.4,27.3-0.6c0.1-0.1,0.4-0.1,0.5,0c5.6,8.1,24.5,12.5,27.4-1.3
		c0.5-0.9,0.1-2.1-0.9-2.6c-0.9-0.5-2.2-0.2-2.6,0.8C95.7,105.7,79.7,91.7,79,88c-0.1-0.2,0-0.4,0.1-0.5c1.6-1.6,3-4.2,3-5.9
		c0-0.6-0.1-1.1-0.5-1.4c-1.8-1.5-7.2-1.8-11.3,0.1C69.8,80.4,69.6,81.6,69.9,82.1"/>
	<path fill="#ECB11F" d="M105.4,50.9c0,0,0.7-9.4-3.7-11.7c-2.8-1.4-9.5,6.8-8.1,8.9C95,50.1,100.8,52,105.4,50.9"/>
	<path fill="#ECB11F" d="M42.2,81.2c-0.2,0.9-0.8,1.5-1.3,1.3l-31.3-14c-0.5-0.2-0.7-1.2-0.5-2.1l0,0c0.2-1,0.8-1.5,1.3-1.3
		l31.3,14.1C42.2,79.4,42.4,80.3,42.2,81.2L42.2,81.2z"/>
	<path fill="#ECB11F" d="M41.7,85.6c-0.1,1-0.6,1.6-1.1,1.5L8.3,78.9c-0.5-0.1-0.8-1-0.6-2l0,0c0.1-1,0.6-1.7,1.1-1.5l32.3,8.3
		C41.6,83.8,41.8,84.7,41.7,85.6L41.7,85.6z"/>
	<path fill="#ECB11F" d="M41.2,90c0,1-0.5,1.7-1,1.7L7.3,89.2c-0.5,0-0.9-0.9-0.8-1.9l0,0c0-1,0.5-1.8,1-1.7l32.9,2.5
		C40.9,88.2,41.3,89,41.2,90L41.2,90z"/>
	<path fill="#ECB11F" d="M110.1,80c0.2,0.9,0.7,1.6,1.1,1.4l32.2-11.8c0.5-0.2,0.8-1.1,0.6-2l0,0c-0.1-1-0.7-1.6-1.1-1.4L110.7,78
		C110.2,78.2,109.9,79.1,110.1,80L110.1,80z"/>
	<path fill="#ECB11F" d="M110.3,84.5c0.1,1,0.5,1.7,1,1.6l32.8-6c0.5-0.1,0.8-0.9,0.8-1.9l0,0c-0.1-1-0.5-1.7-1-1.6l-32.8,6
		C110.5,82.6,110.2,83.5,110.3,84.5L110.3,84.5z"/>
	<path fill="#ECB11F" d="M110.4,88.8c0,1,0.4,1.8,0.9,1.8l33-0.1c0.5,0,0.9-0.8,0.9-1.8l0,0c0-1-0.4-1.8-0.9-1.8l-33,0.2
		C110.9,87,110.4,87.8,110.4,88.8L110.4,88.8z"/>
</g>
</svg>
