<?xml version="1.0" encoding="utf-8"?>
<!-- Generator: Adobe Illustrator 18.1.0, SVG Export Plug-In . SVG Version: 6.00 Build 0)  -->
<svg version="1.0" id="Layer_1" xmlns="http://www.w3.org/2000/svg" xmlns:xlink="http://www.w3.org/1999/xlink" x="0px" y="0px"
	 viewBox="0 0 150 150" enable-background="new 0 0 150 150" xml:space="preserve">
<path fill="#9DD6C9" d="M96,16.4c0,0,0-0.1,0.1-0.1c-0.2,0.2-0.3,0.3-0.5,0.5C95.8,16.7,95.9,16.6,96,16.4z"/>
<g>
	<path fill="none" d="M35.4,59.7c-1.3,0.1-2.5,0.4-3.7,0.7c-5.9,1.8-10.6,6.2-13.3,12.5c-2.9,6.6-3.2,14.3-0.9,21.8
		c3.8,12.6,14.2,21.5,25.2,21.5c1.9,0,3.9-0.3,5.7-0.8c4.5-1.4,8.2-4.2,10.9-8.1c-4.7-4.9-9.2-10.8-13-17.5
		C40.4,79.7,36.8,69.3,35.4,59.7z"/>
	<path fill="#C8CDC7" d="M144.8,34.6c-5.4-10.5-18.3-14.6-28.8-9.2c-5,2.6-8.4,6.8-10.2,11.7l-0.2,0.1c-0.8,3-2.7,5.6-5.6,7.2
		c2.5,3.2,4.9,6.8,7.1,10.6c1.9,3.3,3.6,6.7,5,10.1c2.6-0.9,5.4-0.9,7.9,0.1l0.2-0.1c5,1.3,10.5,1,15.4-1.6
		C146.1,58,150.3,45.1,144.8,34.6z M144,47.2c0.2-2.9-0.4-5.8-1.7-8.4c-4.7-9.1-17.3-11.9-28.2-6.3c-1.9,1-3.6,2.2-5.1,3.6
		c1.6-3.7,4.4-6.9,8.2-8.9c9.1-4.7,20.3-1.1,25,8C144.3,39,144.8,43.3,144,47.2z"/>
	<path fill="#9DB63B" d="M100,44.4C84.8,25.1,64.5,16,50.9,23.8c-0.7,0.4-1.3,0.8-2,1.3c15.1-5.4,37.5,8.7,51.7,33.4
		c14.6,25.2,15.3,52.3,2.1,62.2c1.1-0.4,2.1-0.9,3.1-1.5c13.8-8,16-30.9,6.2-54.1c-1.4-3.4-3.1-6.7-5-10.1
		C104.9,51.2,102.5,47.6,100,44.4z"/>
	<path fill="#B7D25C" d="M51,75.3c0-3.3,1-6.3,2.6-8.8c-4.6-4.3-10.3-6.9-16.3-6.9c-0.7,0-1.3,0-2,0.1c1.4,9.5,5,20,10.8,30.1
		c3.8,6.7,8.3,12.6,13,17.5c3.1-4.5,4.9-10.2,4.9-16.4C56.7,89.7,51,83.2,51,75.3z"/>
	<path fill="#B7D25C" d="M100.7,58.5C86.5,33.8,64.1,19.7,49,25.1c-1,0.4-2,0.8-3,1.4c-7.1,4.1-10.8,12.5-11.1,23
		c0.9-0.1,1.7-0.1,2.6-0.1c9.1,0,17.8,4.1,24.5,10.9c1.5-0.5,3.2-0.8,4.8-0.8c8.7,0,15.7,7.1,15.7,15.9c0,6-3.3,11.2-8.1,13.9
		c0.4,9.4-2.4,18.3-7.5,25.1c12,9.5,24.9,12.9,34.1,7.6c0.6-0.4,1.2-0.8,1.8-1.2C116,110.8,115.2,83.7,100.7,58.5z"/>
	<path fill="#4F95CA" d="M74.4,89.2c-2.3,1.3-4.8,2-7.6,2c-0.9,0-1.8-0.1-2.6-0.2c0,6.2-1.7,11.9-4.9,16.4
		c-2.7,3.8-6.4,6.7-10.9,8.1c-1.8,0.6-3.8,0.8-5.7,0.8c-11,0-21.4-8.8-25.2-21.5c-2.3-7.5-2-15.2,0.9-21.8
		c2.7-6.3,7.5-10.7,13.3-12.5c1.2-0.4,2.5-0.6,3.7-0.7c0.7-0.1,1.3-0.1,2-0.1c5.9,0,11.6,2.6,16.3,6.9c1.9-2.9,4.8-5.2,8.2-6.3
		c-6.7-6.8-15.4-10.9-24.5-10.9c-0.9,0-1.7,0.1-2.6,0.1c-2.1,0.2-4.1,0.6-6.1,1.2C19.9,53.3,12.9,59.8,9,68.9
		C5.1,77.7,4.7,88,7.7,97.8c5.1,16.9,19.6,28.8,35.1,28.8c3,0,5.9-0.4,8.7-1.3c6.3-1.9,11.6-5.8,15.5-10.9
		C72,107.6,74.7,98.7,74.4,89.2z"/>
	<path fill="#4F95CA" d="M53.7,66.5C52,69,51,72.1,51,75.3c0,7.9,5.7,14.4,13.1,15.7c0.9,0.1,1.7,0.2,2.6,0.2c2.8,0,5.4-0.7,7.6-2
		c4.8-2.7,8.1-7.9,8.1-13.9c0-8.8-7-15.9-15.7-15.9c-1.7,0-3.3,0.3-4.8,0.8C58.5,61.3,55.6,63.6,53.7,66.5z"/>
	<path fill="#EDF3F3" d="M117.3,27.2c-3.9,2-6.6,5.2-8.2,8.9c1.5-1.3,3.2-2.6,5.1-3.6c10.8-5.6,23.5-2.8,28.2,6.3
		c1.4,2.6,1.9,5.5,1.7,8.4c0.8-4,0.3-8.2-1.7-12.1C137.6,26.1,126.3,22.5,117.3,27.2z"/>
</g>
</svg>
