<?xml version="1.0" encoding="utf-8"?>
<!-- Generator: Adobe Illustrator 16.0.0, SVG Export Plug-In . SVG Version: 6.00 Build 0)  -->
<!DOCTYPE svg PUBLIC "-//W3C//DTD SVG 1.1//EN" "http://www.w3.org/Graphics/SVG/1.1/DTD/svg11.dtd">
<svg version="1.1" id="Layer_1" xmlns="http://www.w3.org/2000/svg" xmlns:xlink="http://www.w3.org/1999/xlink" x="0px" y="0px"
	 width="100px" height="100px" viewBox="0 0 100 100" enable-background="new 0 0 100 100" xml:space="preserve">
<g>
	<path fill="#93C83D" d="M22.494,26.231c0.766-0.376,1.946,0.469,2.639,1.889c0.689,1.42,0.626,2.866-0.142,3.243
		c-0.766,0.373-1.949-0.473-2.641-1.889C21.664,28.058,21.726,26.604,22.494,26.231z"/>
	<path fill="#93C83D" d="M29.447,25.499c0.81,0.279,1.043,1.713,0.528,3.203c-0.51,1.485-1.58,2.471-2.387,2.192
		c-0.807-0.28-1.045-1.715-0.531-3.2C27.573,26.204,28.641,25.223,29.447,25.499z"/>
	<path fill="#93C83D" d="M34.886,29.896c0.372,0.768-0.476,1.951-1.888,2.641c-1.419,0.691-2.87,0.628-3.246-0.139
		c-0.372-0.768,0.476-1.947,1.891-2.637S34.511,29.132,34.886,29.896z"/>
	<path fill="#93C83D" d="M35.616,36.854c-0.279,0.807-1.712,1.047-3.2,0.531c-1.491-0.516-2.473-1.586-2.193-2.389
		c0.279-0.811,1.712-1.048,3.202-0.532C34.913,34.977,35.896,36.048,35.616,36.854z"/>
	
		<ellipse transform="matrix(0.4376 0.8992 -0.8992 0.4376 52.5739 -4.6038)" fill="#93C83D" cx="29.967" cy="39.726" rx="2.853" ry="1.546"/>
	<path fill="#93C83D" d="M24.262,43.025c-0.807-0.283-1.045-1.714-0.531-3.204c0.515-1.489,1.583-2.471,2.391-2.195
		c0.807,0.283,1.045,1.714,0.529,3.204C26.137,42.319,25.067,43.301,24.262,43.025z"/>
	
		<ellipse transform="matrix(-0.8991 0.4377 -0.4377 -0.8991 56.9784 61.6169)" fill="#93C83D" cx="21.389" cy="37.374" rx="2.853" ry="1.544"/>
	<path fill="#93C83D" d="M18.091,31.665c0.279-0.802,1.71-1.043,3.202-0.531c1.489,0.516,2.473,1.591,2.194,2.393
		c-0.278,0.807-1.712,1.048-3.202,0.532C18.797,33.546,17.814,32.476,18.091,31.665z"/>
	<path fill="#93C83D" d="M20.515,29.043c0.388-0.047,0.743,0.236,0.788,0.628c0.043,0.391-0.241,0.74-0.63,0.787
		c-0.394,0.042-0.745-0.241-0.792-0.633C19.84,29.435,20.122,29.082,20.515,29.043z"/>
	<path fill="#93C83D" d="M18.739,34.621c0.392-0.043,0.747,0.236,0.79,0.628c0.043,0.392-0.238,0.745-0.63,0.788
		c-0.392,0.042-0.745-0.237-0.79-0.632C18.066,35.016,18.35,34.663,18.739,34.621z"/>
	<path fill="#93C83D" d="M27.735,40.663c0.388-0.043,0.74,0.241,0.783,0.632c0.045,0.388-0.237,0.74-0.628,0.783
		c-0.394,0.042-0.745-0.237-0.79-0.628C27.06,41.059,27.341,40.706,27.735,40.663z"/>
	<circle fill="#93C83D" cx="32.654" cy="39.296" r="0.712"/>
	<path fill="#93C83D" d="M34.203,32.782c0.394-0.04,0.747,0.241,0.79,0.632c0.042,0.392-0.237,0.745-0.631,0.788
		c-0.391,0.042-0.744-0.237-0.787-0.628C33.532,33.182,33.813,32.828,34.203,32.782z"/>
	<path fill="#93C83D" d="M31.226,27.496c0.392-0.046,0.744,0.236,0.788,0.628c0.044,0.392-0.237,0.744-0.628,0.788
		c-0.394,0.046-0.749-0.237-0.79-0.628C30.551,27.887,30.834,27.538,31.226,27.496z"/>
	<path fill="#93C83D" d="M25.699,26.192c0.394-0.042,0.744,0.241,0.79,0.632c0.042,0.388-0.239,0.742-0.633,0.788
		c-0.392,0.043-0.742-0.24-0.785-0.632C25.024,26.588,25.308,26.235,25.699,26.192z"/>
	<path fill="#93C83D" d="M76.679,26.231c-0.769-0.376-1.951,0.469-2.643,1.889c-0.689,1.42-0.624,2.866,0.141,3.243
		c0.771,0.373,1.95-0.473,2.642-1.889C77.504,28.058,77.445,26.604,76.679,26.231z"/>
	<path fill="#93C83D" d="M69.724,25.499c-0.807,0.279-1.047,1.713-0.531,3.203c0.517,1.485,1.583,2.471,2.394,2.192
		c0.806-0.28,1.039-1.715,0.526-3.2C71.601,26.204,70.53,25.223,69.724,25.499z"/>
	<path fill="#93C83D" d="M64.286,29.896c-0.372,0.768,0.474,1.951,1.885,2.641c1.42,0.691,2.87,0.628,3.247-0.139
		c0.371-0.768-0.474-1.947-1.89-2.637C66.109,29.07,64.658,29.132,64.286,29.896z"/>
	<path fill="#93C83D" d="M63.553,36.854c0.279,0.807,1.715,1.047,3.2,0.531c1.489-0.516,2.475-1.586,2.195-2.389
		c-0.279-0.811-1.715-1.048-3.204-0.532C64.259,34.977,63.274,36.048,63.553,36.854z"/>
	
		<ellipse transform="matrix(-0.4377 0.8991 -0.8991 -0.4377 135.2154 -5.1056)" fill="#93C83D" cx="69.204" cy="39.726" rx="2.853" ry="1.545"/>
	<path fill="#93C83D" d="M74.91,43.025c0.806-0.283,1.042-1.714,0.53-3.204s-1.586-2.471-2.39-2.195
		c-0.806,0.283-1.047,1.714-0.535,3.204C73.032,42.319,74.103,43.301,74.91,43.025z"/>
	<path fill="#93C83D" d="M80.347,38.623c0.373-0.768-0.473-1.951-1.889-2.637c-1.42-0.69-2.87-0.628-3.242,0.14
		c-0.373,0.768,0.473,1.947,1.889,2.637C78.52,39.453,79.971,39.391,80.347,38.623z"/>
	<path fill="#93C83D" d="M81.08,31.665c-0.278-0.802-1.715-1.043-3.203-0.531c-1.49,0.516-2.472,1.591-2.196,2.393
		c0.28,0.807,1.715,1.048,3.203,0.532C80.374,33.546,81.355,32.476,81.08,31.665z"/>
	<path fill="#93C83D" d="M78.655,29.043c-0.391-0.047-0.748,0.236-0.787,0.628c-0.038,0.391,0.24,0.74,0.628,0.787
		c0.396,0.042,0.745-0.241,0.787-0.633C79.33,29.435,79.048,29.082,78.655,29.043z"/>
	<path fill="#93C83D" d="M80.428,34.621c-0.391-0.043-0.744,0.236-0.782,0.628c-0.047,0.392,0.236,0.745,0.628,0.788
		c0.388,0.042,0.745-0.237,0.787-0.632C81.104,35.016,80.82,34.663,80.428,34.621z"/>
	<path fill="#93C83D" d="M71.438,40.663c-0.393-0.043-0.745,0.241-0.783,0.632c-0.047,0.388,0.232,0.74,0.628,0.783
		c0.388,0.042,0.74-0.237,0.783-0.628C72.112,41.059,71.83,40.706,71.438,40.663z"/>
	<path fill="#93C83D" d="M66.598,38.588c-0.396-0.046-0.744,0.237-0.791,0.628c-0.043,0.392,0.24,0.745,0.628,0.787
		c0.396,0.043,0.753-0.241,0.791-0.628C67.269,38.983,66.986,38.631,66.598,38.588z"/>
	<path fill="#93C83D" d="M64.965,32.782c-0.392-0.04-0.741,0.241-0.787,0.632c-0.043,0.392,0.24,0.745,0.632,0.788
		c0.392,0.042,0.741-0.237,0.788-0.628C65.64,33.182,65.356,32.828,64.965,32.782z"/>
	<path fill="#93C83D" d="M67.939,27.496c-0.388-0.046-0.74,0.236-0.783,0.628c-0.043,0.392,0.241,0.744,0.629,0.788
		c0.392,0.046,0.744-0.237,0.791-0.628C68.614,27.887,68.335,27.538,67.939,27.496z"/>
	<path fill="#93C83D" d="M73.471,26.192c-0.392-0.042-0.745,0.241-0.792,0.632c-0.039,0.388,0.241,0.742,0.636,0.788
		c0.389,0.043,0.741-0.24,0.785-0.632C74.146,26.588,73.858,26.235,73.471,26.192z"/>
	<path fill="#93C83D" d="M63.944,47.501c0,8.152-6.608,14.761-14.761,14.761c-8.156,0-14.764-6.608-14.764-14.761
		c0-8.157,6.607-14.77,14.764-14.77C57.336,32.731,63.944,39.344,63.944,47.501z"/>
	<path fill="#93C83D" d="M76.263,67.076c1.626-3.777,2.606-8.309,2.685-13.211c0-0.093,0-0.182,0.004-0.275
		c0.101-0.086,0.206-0.17,0.307-0.252c2.125,7.036,11.409-0.551,12.775-5.872c-4.739,2.218-12.652-3.646-12.97,4.22l-0.133,0.101
		c-0.236-6.271-1.953-11.93-4.623-16.083c0.203-0.311,0.334-0.671,0.381-1.063c0.147-1.338-0.822-2.541-2.156-2.691
		c-1.339-0.147-2.541,0.818-2.691,2.153c-0.148,1.337,0.817,2.544,2.156,2.691c0.745,0.082,1.45-0.183,1.95-0.66
		c2.105,4.231,3.315,9.459,3.224,15.084c-0.047,3.021-0.796,5.926-1.908,8.599c-0.14-0.116-0.357-0.287-0.698-0.535
		c-0.26-6.45-6.749-1.642-10.639-3.46c1.12,4.362,8.737,10.584,10.476,4.813c0.128,0.098,0.247,0.198,0.368,0.303
		c-0.834,1.792-1.814,3.467-2.835,4.995c-14.223-3.297-30.12-2.609-43.926,1.112c-1.295-1.815-2.569-3.871-3.608-6.107
		c0.122-0.104,0.244-0.205,0.366-0.303c1.74,5.771,9.355-0.451,10.478-4.813c-3.888,1.818-10.377-2.99-10.639,3.46
		c-0.342,0.248-0.555,0.419-0.696,0.535c-1.116-2.673-1.862-5.578-1.911-8.599c-0.093-5.625,1.119-10.853,3.225-15.084
		c0.502,0.477,1.207,0.741,1.951,0.66c1.338-0.147,2.302-1.354,2.153-2.691c-0.147-1.335-1.352-2.3-2.69-2.153
		c-1.337,0.151-2.301,1.354-2.152,2.691c0.041,0.392,0.176,0.752,0.377,1.063c-2.67,4.154-4.392,9.813-4.621,16.083l-0.134-0.101
		c-0.32-7.865-8.23-2.001-12.974-4.22c1.37,5.321,10.655,12.908,12.778,5.872c0.101,0.082,0.206,0.166,0.306,0.252
		c0,0.094,0.002,0.183,0.003,0.275c0.086,5.485,1.31,10.503,3.289,14.525c-6.491,2.137-12.387,4.965-17.239,8.385
		c27.459-9.246,62.37-10.689,88.177-0.736C89.155,72.024,82.953,69.073,76.263,67.076z"/>
	<path fill="#FFFFFF" d="M57.794,47.501c0,4.751-3.855,8.609-8.61,8.609s-8.614-3.858-8.614-8.609c0-4.759,3.859-8.614,8.614-8.614
		S57.794,42.742,57.794,47.501z"/>
</g>
</svg>
