<?xml version="1.0" encoding="utf-8"?>
<!-- Generator: Adobe Illustrator 18.1.0, SVG Export Plug-In . SVG Version: 6.00 Build 0)  -->
<svg version="1.0" id="Layer_1" xmlns="http://www.w3.org/2000/svg" xmlns:xlink="http://www.w3.org/1999/xlink" x="0px" y="0px"
	 viewBox="0 0 150 150" enable-background="new 0 0 150 150" xml:space="preserve">
<g>
	<path fill="#1C88B0" d="M119.4,62.5c-0.6-2.1-1.3-4.3-1.9-6.4c-1.8-7-3.4-14-4.9-21c-1.4-7-2.9-14.2-4.4-21.5l-4.7,0.2
		c-1.5,1.1-9.4,9.5-17.4,19.3C87.7,34.9,101.2,51,119.4,62.5z"/>
	<path fill="#1C88B0" d="M132.5,100.5c-0.7-1.6-1.2-3.1-1.9-4.7c-26.6-8-48.8-24.7-63-37.6c-0.5,0.7-1,1.4-1.5,2.1
		c-0.7,0.9-1.4,1.9-2.1,2.8c14.5,12.5,37.2,28.1,67.5,37.2C131.8,100.5,132.1,100.5,132.5,100.5z"/>
	<path fill="#1C88B0" d="M43.3,108.5c8.9-3.2,18.2-5.4,27.7-6.8c11-1.6,22.2-2,33.5-1.4c-13.8-6-30.7-15-47.2-28.1
		c-1.1,1.4-2.1,2.8-3.2,4.3c-7.8,10.8-19.4,28.2-26.8,39.3c2.5-1.3,4.9-2.8,7.5-3.9C37.6,110.7,40.5,109.6,43.3,108.5z"/>
	<path fill="#1C88B0" d="M125.9,83.5c-0.7-1.9-1.4-3.9-2-5.8c-0.1-0.3-0.2-0.7-0.3-1c-11.6-5.9-28.6-16.4-45.2-33.1
		c-0.2,0.2-0.3,0.5-0.5,0.7c-1,1.4-2,2.7-3,4.1C92.1,65.7,112.9,77.3,125.9,83.5z"/>
	<path fill="#93B1C0" d="M135.3,105.3c-4.7-1.3-9.5-2.3-14.3-3.2c-5.4-0.9-10.9-1.5-16.3-1.8c-0.1,0-0.1,0-0.2,0
		c-11.2-0.7-22.5-0.2-33.5,1.4c-9.4,1.4-18.8,3.6-27.7,6.8c-2.9,1-5.7,2.1-8.5,3.4c-2.6,1.1-5,2.6-7.5,3.9
		c-6.5,3.5-12.8,7.3-18.3,12.1c-1.7,1.5-3.4,2.9-5,4.5c6.2-4.9,13.1-8.8,20.3-12c3.1-1.4,6.3-2.6,9.6-3.7c0.8-0.3,1.6-0.6,2.5-0.9
		c11.5-3.5,23.5-5.3,35.5-5.7c23.9-0.7,47.8,4,68.3,14.4l6.7-15.6C143,107.5,139.2,106.4,135.3,105.3z"/>
</g>
</svg>
