<?xml version="1.0" encoding="utf-8"?>
<!-- Generator: Adobe Illustrator 18.1.0, SVG Export Plug-In . SVG Version: 6.00 Build 0)  -->
<svg version="1.0" id="Layer_1" xmlns="http://www.w3.org/2000/svg" xmlns:xlink="http://www.w3.org/1999/xlink" x="0px" y="0px"
	 viewBox="0 0 150 150" enable-background="new 0 0 150 150" xml:space="preserve">
<g>
	<path fill="#D6EEF1" d="M94.8,39.6c0.2-0.7,0.3-1.5,0.4-2.2c-3.1-1.4-4.9-4.8-4.1-8.2c0.3-1,0.7-2,1.4-2.8
		c-2.2-3.3-5.7-5.9-9.9-6.9c-8.9-2.2-17.9,3.3-20.1,12.2c-1.9,7.8,2,15.7,9,19c1.7-2.2,4.5-3.3,7.4-2.6c2,0.5,3.6,1.8,4.6,3.5
		C88.9,50,93.4,45.6,94.8,39.6z"/>
	
		<linearGradient id="SVGID_1_" gradientUnits="userSpaceOnUse" x1="167.5393" y1="-192.8368" x2="37.0021" y2="-3.6314" gradientTransform="matrix(0.9717 0.2364 -0.2364 0.9717 -12.1831 124.2179)">
		<stop  offset="0" style="stop-color:#55C2EF"/>
		<stop  offset="0.5" style="stop-color:#2AA2DC"/>
		<stop  offset="1" style="stop-color:#1D8ECD"/>
	</linearGradient>
	<path fill="url(#SVGID_1_)" d="M111.5,39.3c-8.9-2.2-17.9,3.3-20.1,12.3c-1.1,4.5-0.3,8.9,2,12.6c1.6-2.3,4.6-3.5,7.5-2.8
		c3.8,0.9,6.2,4.8,5.3,8.6c-0.2,0.7-0.5,1.4-0.8,2c8.4,1.2,16.4-4.2,18.5-12.6C125.9,50.5,120.4,41.5,111.5,39.3z"/>
	<path fill="#C2E3F6" d="M105,32.6C105,32.6,105,32.6,105,32.6c0.9,0.6,1.8,1,2.8,1.2c5.7,1.4,11.5-2.1,12.9-7.9
		c1.4-5.7-2.1-11.5-7.8-12.9c-5.7-1.4-11.5,2.1-12.9,7.9c-0.2,1-0.3,2-0.3,3l0,0C103.6,24.9,105.9,28.7,105,32.6z"/>
	<path fill="#66CDEF" d="M93.3,64.1c-0.5,0.7-0.9,1.5-1.1,2.5c-0.9,3.8,1.4,7.7,5.3,8.6c3.1,0.8,6.2-0.6,7.8-3.3
		c-0.5-0.1-1.1-0.2-1.7-0.3C99.2,70.6,95.5,67.8,93.3,64.1z"/>
	<path fill="#2280C3" d="M100.8,61.3c-2.9-0.7-5.9,0.5-7.5,2.8c2.2,3.6,5.8,6.4,10.3,7.5c0.6,0.1,1.1,0.2,1.7,0.3
		c0.4-0.6,0.6-1.3,0.8-2C107,66.1,104.7,62.3,100.8,61.3z"/>
	<path fill="#73B3E2" d="M74.7,51.9c-1.1-0.3-2.2-0.7-3.2-1.1c-0.6,0.8-1,1.7-1.3,2.7c-0.9,3.8,1.4,7.7,5.3,8.6
		c3.8,0.9,7.7-1.4,8.6-5.3c0.4-1.8,0.1-3.6-0.7-5.1C80.7,52.4,77.7,52.6,74.7,51.9z"/>
	<path fill="#D6EEF1" d="M78.8,48.1c-2.8-0.7-5.7,0.4-7.4,2.6c1,0.5,2.1,0.9,3.2,1.1c3,0.7,6,0.6,8.7-0.2
		C82.5,49.9,80.9,48.6,78.8,48.1z"/>
	<path fill="#60A8D8" d="M78.8,48.1c-2.8-0.7-5.7,0.4-7.4,2.6c1,0.5,2.1,0.9,3.2,1.1c3,0.7,6,0.6,8.7-0.2
		C82.5,49.9,80.9,48.6,78.8,48.1z"/>
	<path fill="#0F8ACB" d="M95.2,37.4c0.4,0.2,0.8,0.3,1.2,0.4c3.8,0.9,7.7-1.4,8.6-5.2c-3.1-1.8-5.1-5.1-5.3-8.7
		c-2.8-0.7-5.6,0.4-7.3,2.5C94.6,29.6,95.6,33.5,95.2,37.4z"/>
	<path fill="#167BBF" d="M95.2,37.4c0.4-4-0.6-7.8-2.7-11c-0.6,0.8-1.1,1.7-1.4,2.8C90.3,32.6,92.1,36.1,95.2,37.4z"/>
	<path fill="#167BBF" d="M105,32.6C105,32.6,105,32.6,105,32.6c0.9-3.9-1.4-7.8-5.2-8.7l0,0C99.9,27.5,101.9,30.8,105,32.6z"/>
	<g>
		<path fill="none" d="M38.3,111.4c-0.5,0.2-1,0.4-1.4,0.6c4.5,2.1,9.4,3.3,14.7,3.3c5.6,0,10.9-1.4,15.5-3.7
			C56.2,108.9,46.8,108.3,38.3,111.4z"/>
		<polygon fill="none" points="23,110.9 23,110.9 23,110.9 		"/>
		<path fill="none" d="M15.4,109.6c0,0,0,0.1,0,0.1c0.1-0.1,0.1-0.3,0.2-0.4C15.5,109.4,15.4,109.5,15.4,109.6z"/>
		<path fill="#26A8E0" d="M82.2,96.3c2.2,0.9,4.3,1.8,6.5,2.7c0.4-0.8,0.8-1.6,1.1-2.5c-2.2-0.9-4.4-1.8-6.6-2.7
			C82.9,94.8,82.6,95.6,82.2,96.3z"/>
		<path fill="#26A8E0" d="M85.1,88c2.2,1,4.3,2,6.6,3.1c0.3-1.2,0.5-2.4,0.7-3.6c-2.3-1-4.5-2-6.8-2.9C85.5,85.7,85.3,86.8,85.1,88z
			"/>
		<path fill="#26A8E0" d="M17.3,81.1c0-18.9,15.4-34.2,34.2-34.2c18,0,32.7,13.9,34.1,31.6c2.4,1.2,4.8,2.4,7.2,3.5
			c0-0.3,0-0.6,0-0.9c0-22.8-18.5-41.3-41.3-41.3c-22.8,0-41.3,18.5-41.3,41.3c0,7.2,1.9,14,5.2,20c0.8-3.7,1.9-7.3,3.2-10.7
			C17.8,87.4,17.3,84.3,17.3,81.1z"/>
		<path fill="#26A8E0" d="M75.8,105.2c2.3,0.8,4.7,1.7,7.1,2.7c0.8-0.9,1.5-1.9,2.2-2.9c-2.4-0.8-4.7-1.7-7-2.5
			C77.4,103.4,76.6,104.3,75.8,105.2z"/>
		<path fill="#26A8E0" d="M19.2,93.9c-1.2,2.4-2.3,5-3.4,7.8c0.2,0.3,0.3,0.6,0.5,0.8c0.3-0.6,0.5-1.2,0.8-1.7
			C17.7,98.4,18.4,96.1,19.2,93.9z"/>
		<path fill="#26A8E0" d="M67.1,111.5c-4.7,2.4-9.9,3.7-15.5,3.7c-5.3,0-10.2-1.2-14.7-3.3c-2.5,1-4.9,2.4-7.3,4
			c6.4,4,13.9,6.4,22,6.4c9.3,0,17.8-3.1,24.7-8.3c-2.3-0.7-4.5-1.4-6.7-1.9C68.7,112,67.9,111.7,67.1,111.5z"/>
		<path fill="#2E7E96" d="M134.7,122.1c-8.9,0.7-18.7-1.2-28.1-4c-8.7-2.6-17-5.9-24.9-8.9c-2.5-0.9-5-1.8-7.3-2.7
			c-2.5-0.9-5-1.7-7.4-2.4c-11.8-3.5-21.9-4.2-30.9,0c-2.1,0.9-4.1,2.1-6,3.6c-1.8,1.4-3.6,2.9-5.4,4.7c-4.4,4.5-8.5,10.2-12.3,16.8
			c-0.6,1.1-1.2,2.1-1.7,3c-1.1,2.2-1.8,3.9-1.5,4.2c0.3,0.4,2.4-1.6,4.7-4.3c4.9-6.7,10.1-12.2,15.7-16.2c2.4-1.6,4.8-3,7.3-4
			c0.5-0.2,1-0.4,1.4-0.6c8.5-3.1,17.9-2.5,28.8,0.1c0.8,0.2,1.7,0.4,2.5,0.6c2.2,0.6,4.4,1.2,6.7,1.9c10.2,3.1,21.3,7.1,32.8,9.5
			c13.9,2.9,28.4,3.3,38.2-4.9C143.5,120.7,139.2,121.7,134.7,122.1z"/>
		<path fill="#55C6D3" d="M119.4,95.1c-8.2-2.6-16.4-6.4-24.3-10.3c-0.8-0.4-1.6-0.8-2.4-1.2c-2.4-1.2-4.7-2.3-7-3.5
			c-10.1-5-19.8-9.3-28.6-10.9c-11.5-2.2-21.5,0.4-29,8.9c-3.5,3.9-6.5,9-8.7,14.9c-0.1,0.3-0.2,0.6-0.3,0.9
			c-0.8,2.2-1.5,4.5-2.1,6.9c-0.2,0.7-0.4,1.4-0.5,2.2c-0.3,1.4-0.6,2.8-0.8,4.2c0.4-1.2,0.8-2.4,1.3-3.5c1.1-2.9,2.3-5.6,3.6-8.1
			c1.8-3.6,3.8-6.7,6-9.4c0.9-1.2,1.9-2.2,2.9-3.2c7.9-7.9,17.9-10,29.2-7.8c8.3,1.5,17.3,5.2,26.8,9.4c2.2,1,4.5,2,6.8,2.9
			c1.3,0.6,2.6,1.1,4,1.7c13.4,5.6,27.3,10.6,40.5,9.1C131,98.1,125.2,96.9,119.4,95.1z"/>
		<path fill="#399CB0" d="M128.4,112.7c-8.7-0.7-17.9-3.4-26.6-6.7c-4.7-1.8-9.3-3.7-13.8-5.6c-2.2-0.9-4.4-1.9-6.6-2.7
			c-6.4-2.7-12.5-5-18.2-6.5c-11.6-3.2-21.5-2.9-30.2,3c-3,2-5.8,4.6-8.5,7.8c-1.5,1.8-2.9,3.8-4.3,5.9c-2.1,3.2-4,6.7-5.9,10.6
			c-0.9,1.8-1.7,3.6-2.5,5.5c-0.2,0.5-0.4,0.9-0.6,1.4c0,0.1-0.1,0.2-0.1,0.3c-1.8,4.3-3.3,8.4-3.2,8.7c0,0.1,0.1,0,0.2-0.1
			c0.5-0.5,2-3.1,3.8-6.2c3.4-6.6,7.1-12.5,11.1-17.2c0,0,0,0,0,0c1.6-1.9,3.2-3.6,4.9-5.1c2.3-2.1,4.7-3.9,7.1-5.2
			c8.8-5,18.8-4.9,30.4-2c4.1,1,8.4,2.4,12.8,4c2.3,0.8,4.6,1.6,7,2.5c6,2.2,12.2,4.4,18.6,6.2c13.7,3.9,28,6,39.4,0.3
			C138.5,112.8,133.5,113.1,128.4,112.7z"/>
		<path fill="#43B7C9" d="M124,104.8c-8.6-1.8-17.3-5.3-25.7-9.1c-2.4-1.1-4.7-2.2-7.1-3.3c-2.2-1-4.4-2-6.5-3
			c-8.7-4.1-17-7.7-24.6-9.5c-11.5-2.8-21.5-1.5-29.7,5.8c-3.3,2.9-6.4,6.7-9.1,11.3c-1.3,2.3-2.6,4.7-3.8,7.4
			c-0.7,1.6-1.4,3.2-2,4.8c-0.1,0.1-0.1,0.3-0.2,0.4c-0.7,1.9-1.4,3.8-2,5.8c-0.1,0.4-0.2,0.7-0.3,1.1c0,0.1-0.1,0.3-0.1,0.4
			c-0.4,1.4-0.9,2.9-1.3,4.4c-0.3,0.9-0.5,1.9-0.8,2.8c-0.4,1.3-0.7,2.4-1,3.5c0,0,0,0,0,0c0,0,0,0,0-0.1c0.4-1,0.8-2,1.2-3.2
			c0.2-0.4,0.3-0.8,0.5-1.3c1-2.7,2.1-5.3,3.2-7.8c1.4-3.1,2.9-6,4.4-8.7c1.3-2.3,2.7-4.4,4.1-6.3c0.8-1.1,1.6-2.2,2.5-3.2
			c2-2.3,4.1-4.4,6.3-6c8.5-6.5,18.4-7.4,29.8-4.6c6.7,1.5,13.8,4.3,21.3,7.4c2.2,0.9,4.3,1.8,6.6,2.7c3.3,1.3,6.7,2.7,10.1,3.9
			c13.6,5,27.9,8.8,40.5,5.5C135,106.5,129.5,106,124,104.8z"/>
	</g>
</g>
</svg>
