<?xml version="1.0" encoding="utf-8"?>
<!-- Generator: Adobe Illustrator 16.0.0, SVG Export Plug-In . SVG Version: 6.00 Build 0)  -->
<!DOCTYPE svg PUBLIC "-//W3C//DTD SVG 1.1//EN" "http://www.w3.org/Graphics/SVG/1.1/DTD/svg11.dtd">
<svg version="1.1" id="Layer_1" xmlns="http://www.w3.org/2000/svg" xmlns:xlink="http://www.w3.org/1999/xlink" x="0px" y="0px"
	 width="100px" height="100px" viewBox="0 0 100 100" enable-background="new 0 0 100 100" xml:space="preserve">
<g>
	<path fill="#F6921E" d="M43.124,70.27c1.039,5.141,0.995,10.558-0.304,15.916c5.678-12.149,19.727-18.412,32.756-14.072
		l3.014-9.038C65.91,58.854,52.518,62.041,43.124,70.27z"/>
	<path fill="#00ADEE" d="M34.646,53.148c6.005-1.326,11.608-4.153,16.236-8.205c-1.042-5.141-0.995-10.558,0.307-15.92
		c-5.069,10.85-16.804,16.99-28.531,15.107C27.342,46.326,31.385,49.425,34.646,53.148z"/>
	<path fill="#8BC53F" d="M42.512,70.064C39.929,57.847,31.128,47.262,18.45,43.041l-3.012,9.035
		c13.03,4.339,20.512,17.775,17.771,30.907C35.38,77.917,38.595,73.554,42.512,70.064z"/>
	<path fill="#00ADEE" d="M59.565,61.448c4.84-1.019,9.934-1.074,14.999-0.023C64.05,55.896,58.349,43.945,60.801,32.23
		c-2.176,5.062-5.39,9.429-9.307,12.919C52.77,51.167,55.553,56.789,59.565,61.448z"/>
	<path fill="#00ADEE" d="M67.797,23.065c-1.595,4.786-6.767,7.372-11.549,5.777c-4.785-1.595-7.371-6.768-5.776-11.545
		c1.595-4.785,6.768-7.372,11.549-5.781C66.807,13.112,69.393,18.284,67.797,23.065z"/>
	<path fill="#F6921E" d="M69.171,82.982c-1.204,3.609-5.105,5.56-8.718,4.359c-3.608-1.208-5.56-5.104-4.359-8.718
		c1.209-3.608,5.109-5.56,8.719-4.359C68.421,75.469,70.376,79.375,69.171,82.982z"/>
	<path fill="#8BC53F" d="M25.782,68.524c-1.205,3.608-5.105,5.559-8.718,4.359c-3.609-1.201-5.563-5.11-4.355-8.719
		c1.2-3.609,5.102-5.56,8.71-4.358C25.036,61.006,26.986,64.911,25.782,68.524z"/>
</g>
</svg>
