<?xml version="1.0" encoding="iso-8859-1"?>
<!-- Generator: Adobe Illustrator 13.0.0, SVG Export Plug-In . SVG Version: 6.00 Build 14948)  -->
<!DOCTYPE svg PUBLIC "-//W3C//DTD SVG 1.1//EN" "http://www.w3.org/Graphics/SVG/1.1/DTD/svg11.dtd">
<svg version="1.1" id="Layer_1" xmlns="http://www.w3.org/2000/svg" xmlns:xlink="http://www.w3.org/1999/xlink" x="0px" y="0px"
	 width="600px" height="600px" viewBox="0 0 600 600" enable-background="new 0 0 600 600" xml:space="preserve">
<g id="untitled_10_" transform="matrix(1.8802344799041748,0.0021985662169754505,-0.0021985662169754505,1.8802344799041748,307.1142798924819,63.88843175708317)">
	<g id="untitled_1_">
		<path id="untitled" fill="#00A4B7" d="M53.077,105.391l0,58.458c12.814,1.376,46.316,6.335,77.948,16.597
			c-2.389,2.894-4.606,6.321-7.014,9.228c-77.611-21.385-175.728-21.384-252.978,0.679c-1.535-2.389-5.64-7.352-7.695-9.406
			c8.89-3.067,18.633-5.978,28.899-8.39c-0.337-3.408-0.678-8.191-0.678-13.314c0-3.09,0.16-6.161,0.338-8.894
			c-6.16-4.78-10.604-18.292-10.603-34.196c-0.001-19.811,7.013-36.053,15.368-36.053c8.565,0.001,15.566,16.245,15.566,36.054
			c0,19.83-6.998,36.075-15.566,36.075c0,0,0,0-0.163,0c0.163,2.211,0.162,4.621,0.162,7.014c0,4.782-0.163,9.047-0.5,12.477
			c14.69-3.249,30.594-5.981,47.354-7.695v-58.633l-21.028,0l72.647-45.284l26.31,15.209v-4.863l12.657-0.001l0,12.04l40.003,22.898
			L53.077,105.391L53.077,105.391 M6.755,161.115l0.001-26.15l-20.169,0l0,26.329C-6.754,161.116-0.077,161.116,6.755,161.115z"/>
	</g>
	<path id="untitled_2_" fill="#50B748" d="M78.966,173.802c6.696-2.313-2.573,0.936,5.16-0.886c-0.251-2.56-0.509-6.156-0.51-10.017
		c0-2.326,0.125-4.638,0.259-6.693c-4.641-3.615-7.989-13.776-7.989-25.755c0-14.916,5.284-27.141,11.575-27.142
		c6.446,0.001,11.719,12.225,11.718,27.141c0,14.935-5.268,27.166-11.719,27.167c0,0,0,0-0.124,0
		c0.125,1.66,0.125,3.471,0.124,5.278c0,3.599-0.123,6.813-0.373,9.39c11.06-2.446-10.548,3.893,2.068,2.606"/>
	<path id="untitled_3_" fill="#50B748" d="M104.938,179.924c7.552-2.615-2.898,1.052,5.82-0.993
		c-0.277-2.892-0.573-6.964-0.574-11.312c0.001-2.618,0.143-5.23,0.296-7.549c-5.243-4.077-9.013-15.537-9.013-29.039
		c0-16.82,5.963-30.619,13.059-30.619c7.263,0,13.215,13.798,13.216,30.619c-0.001,16.841-5.954,30.629-13.216,30.629
		c0,0,0,0-0.143,0c0.143,1.882,0.143,3.915,0.143,5.96c0,4.061-0.144,7.685-0.417,10.596c12.464-2.758-11.911,4.39,2.325,2.943"/>
	<rect id="untitled_4_" x="-37.643" y="113.462" fill="#FFFFFF" width="14.986" height="14.973"/>
	
		<rect id="untitled_5_" x="-30.879" y="111.532" transform="matrix(-1 0.0012 -0.0012 -1 -60.1678 244.3569)" fill="#50B748" width="1.446" height="21.258"/>
	<rect id="untitled_6_" x="-40.775" y="120.223" fill="#00B7CC" width="21.258" height="1.446"/>
	<rect id="untitled_7_" x="18.896" y="113.462" fill="#FFFFFF" width="14.984" height="14.973"/>
	
		<rect id="untitled_8_" x="25.66" y="111.531" transform="matrix(-1 0.0012 -0.0012 -1 52.9074 244.2894)" fill="#50B748" width="1.445" height="21.258"/>
	<rect id="untitled_9_" x="15.762" y="120.224" fill="#50B748" width="21.258" height="1.446"/>
</g>
</svg>
