<?xml version="1.0" encoding="utf-8"?>
<!-- Generator: Adobe Illustrator 14.0.0, SVG Export Plug-In . SVG Version: 6.00 Build 43363)  -->
<!DOCTYPE svg PUBLIC "-//W3C//DTD SVG 1.1//EN" "http://www.w3.org/Graphics/SVG/1.1/DTD/svg11.dtd">
<svg version="1.1" id="Layer_1" xmlns="http://www.w3.org/2000/svg" xmlns:xlink="http://www.w3.org/1999/xlink" x="0px" y="0px"
	 width="150px" height="150px" viewBox="0 0 150 150" enable-background="new 0 0 150 150" xml:space="preserve">
<g>
	<polygon fill="none" points="54.717,97.17 56.045,97.17 55.059,96.691 	"/>
	<path fill="none" d="M56.575,92.941l-0.36,0.189l2.374,1.617l-1.964,0.91l-0.287,1.512h16.267v-5.123H57.136
		c-0.195,0.25-0.404,0.475-0.654,0.645L56.575,92.941z"/>
	<path fill="none" d="M58.122,89.807h14.482v-4.479h-14.09C58.539,86.686,58.472,88.348,58.122,89.807z"/>
	<path fill="none" d="M53.459,97.111l0.634-3.102l-0.821-0.648l0.22-0.68c-0.339-0.141-0.739-0.398-1.123-0.635h-4.279
		c1.191,1.604,2.582,3.521,4.147,5.123h2.279l-0.385-1.123L53.459,97.111z"/>
	<path fill="none" d="M95.831,97.17c1.57-1.602,2.96-3.52,4.151-5.123h-3.816c-1.131,1.963-2.387,3.641-3.69,5.123H95.831z"/>
	<path fill="none" d="M53.781,62.3h-7.042c-0.899,1.595-1.63,3.517-2.167,5.435h6.231c0.427-0.974,0.866-1.927,1.328-2.793
		C52.64,63.985,53.219,63.159,53.781,62.3z"/>
	<path fill="none" d="M49.682,78.682c-0.087,0.455-0.107,0.939-0.142,1.438c-0.018,0.25-0.038,0.51-0.052,0.77
		c-0.015,0.254,0,0.52,0.01,0.789c0.01,0.359,0.04,0.729,0.067,1.094h0.832c-0.04-0.375-0.075-0.754-0.09-1.125
		c-0.01-0.258-0.038-0.508-0.038-0.758s0.007-0.5,0.007-0.738c0.015-0.494-0.018-0.969,0.025-1.414
		c0.025-0.385,0.042-0.738,0.055-1.084h-0.502C49.794,77.982,49.737,78.312,49.682,78.682z"/>
	<path fill="none" d="M103.75,82.771c0.404-1.604,0.671-3.521,0.773-5.119h-3.567c-0.235,1.738-0.604,3.451-1.048,5.119H103.75z"/>
	<path fill="none" d="M50.394,75.417h0.14c0.025-0.359,0.037-0.589,0.037-0.589S50.496,75.057,50.394,75.417z"/>
	<path fill="none" d="M58.407,82.771h14.197v-5.119h-13.84C58.412,79.77,58.364,81.527,58.407,82.771z"/>
	<path fill="none" d="M50.306,86.385c0.072,0.246,0.185,0.471,0.287,0.695c0.107,0.219,0.187,0.443,0.314,0.645
		c0.115,0.203,0.232,0.404,0.344,0.594s0.25,0.35,0.367,0.52c0.117,0.164,0.234,0.318,0.369,0.449
		c0.127,0.139,0.235,0.279,0.362,0.385c0.055,0.049,0.1,0.094,0.15,0.135h0.359c-0.085-0.105-0.172-0.221-0.275-0.346
		c-0.097-0.125-0.177-0.27-0.279-0.414c-0.053-0.074-0.098-0.15-0.15-0.225c-0.045-0.08-0.092-0.164-0.137-0.25
		c-0.2-0.334-0.37-0.713-0.552-1.117c-0.103-0.195-0.16-0.42-0.242-0.635c-0.07-0.221-0.172-0.436-0.225-0.67
		c-0.06-0.229-0.127-0.469-0.192-0.709c-0.012-0.035-0.015-0.074-0.025-0.113h-0.784C50.094,85.688,50.191,86.047,50.306,86.385z"/>
	<path fill="none" d="M62.698,67.735h9.906V62.3h-5.145c-0.447,0.429-0.879,0.846-1.38,1.323
		C64.7,64.941,63.634,66.332,62.698,67.735z"/>
	<path fill="none" d="M60.634,54.621h-8.538c-1.548,1.6-2.928,3.518-4.099,5.118h7.609C57.219,57.709,58.918,55.961,60.634,54.621z"
		/>
	<path fill="none" d="M74.035,108.449c-1.513,0-2.999-0.096-4.459-0.279c1.568,0.24,3.161,0.398,4.793,0.398
		c17.909,0,32.48-14.578,32.48-32.482c0-0.121-0.018-0.23-0.018-0.35C106.777,93.77,92.089,108.449,74.035,108.449z"/>
	<path fill="none" d="M68.081,107.939c-0.165-0.025-0.327-0.064-0.492-0.1C67.753,107.881,67.916,107.91,68.081,107.939z"/>
	<path fill="none" d="M64.184,104.844h8.42v-5.117H54.705C57.496,101.648,60.701,103.566,64.184,104.844z"/>
	<path fill="none" d="M63.964,106.826c0.412,0.141,0.824,0.279,1.243,0.404c-0.417-0.129-0.833-0.25-1.243-0.408V106.826z"/>
	<path fill="none" d="M63.665,106.717c-1.218-0.414-2.382-0.934-3.53-1.482C61.275,105.793,62.451,106.293,63.665,106.717z"/>
	<path fill="none" d="M57.568,103.83c-0.487-0.289-0.974-0.578-1.445-0.893C56.592,103.256,57.084,103.537,57.568,103.83z"/>
	<path fill="none" d="M72.604,75.417v-5.12H61.18c-0.881,1.755-1.53,3.49-1.947,5.12H72.604z"/>
	<path fill="none" d="M44.045,70.296c-0.327,1.6-0.512,3.517-0.542,5.12h4.773c0.384-1.75,0.924-3.46,1.528-5.12H44.045z"/>
	<path fill="none" d="M75.64,50.145h1.007l-0.605,1.258l1.094,0.656h16.412c-2.879-2.239-6.229-3.899-9.752-5.118h-9.273v2.804
		l0.856-1.256L75.64,50.145z"/>
	<path fill="none" d="M72.26,51.505l0.327-0.389l0.018,0.007v-4.182h-8.855c-3.39,1.278-6.503,3.201-9.224,5.118H64.79
		C68.108,50.47,70.974,50.235,72.26,51.505z"/>
	<path fill="none" d="M44.949,85.328c0.501,1.607,1.131,2.885,1.867,4.479h3.076c-0.971-1.27-1.583-2.791-1.935-4.479H44.949z"/>
	<path fill="none" d="M43.548,77.652c0.103,1.598,0.37,3.516,0.771,5.119h3.26c-0.087-1.639,0.058-3.365,0.325-5.119H43.548z"/>
	<path fill="none" d="M72.604,59.739v-2.846c-0.582,0.793-1.405,1.715-2.526,2.846H72.604z"/>
	<path fill="none" d="M79.361,103.336l-0.291,0.42l-0.914-0.34l-0.133-0.273l0.103,0.623l-0.597,1.078h6.358
		c3.483-1.277,6.688-3.195,9.479-5.117h-3.413C85.604,103.551,81.225,104.865,79.361,103.336z"/>
	<path fill="none" d="M97.289,89.807h3.967c0.736-1.594,1.365-2.871,1.867-4.479h-3.965c-0.316,0.953-0.644,1.896-1.006,2.76
		C97.893,88.707,97.57,89.227,97.289,89.807z"/>
	<polygon fill="none" points="74.521,103.271 74.521,104.844 75.213,104.844 75.605,103.791 	"/>
	<path fill="none" d="M98.787,78.102c0,0,0.037-0.189,0.09-0.449h-0.105C98.779,77.912,98.787,78.102,98.787,78.102z"/>
	<polygon fill="none" points="74.521,102.123 74.521,102.918 75.166,102.438 	"/>
	<path fill="none" d="M74.521,92.047v5.123h4.533c0.901-1.293,2.274-2.941,4.159-5.123H74.521z"/>
	<path fill="none" d="M76.98,100.984l0.849,0.314c-0.183-0.498-0.204-1.008-0.077-1.572h-3.23v2.152l3.045,0.309L76.98,100.984z"/>
	<path fill="none" d="M99.313,74.178c0.04-0.455,0.021-0.946,0.005-1.448c-0.005-0.25-0.013-0.504-0.022-0.766
		c-0.01-0.26-0.05-0.522-0.08-0.781c-0.034-0.295-0.093-0.589-0.138-0.886h-0.833c0.06,0.329,0.124,0.659,0.172,0.988
		c0.025,0.25,0.077,0.502,0.103,0.747c0.025,0.254,0.045,0.502,0.067,0.747c0.03,0.484,0.103,0.956,0.097,1.405
		c0.016,0.435,0.035,0.844,0.053,1.233h0.49C99.254,75.027,99.289,74.618,99.313,74.178z"/>
	<path fill="none" d="M97.973,66.566c-0.092-0.237-0.225-0.452-0.347-0.667c-0.135-0.209-0.237-0.424-0.374-0.611
		c-0.138-0.19-0.27-0.38-0.4-0.56c-0.132-0.172-0.284-0.327-0.419-0.479c-0.128-0.16-0.265-0.297-0.407-0.419
		c-0.14-0.123-0.262-0.252-0.395-0.347c-0.132-0.097-0.254-0.19-0.367-0.277c-0.125-0.078-0.236-0.143-0.334-0.21
		c-0.205-0.117-0.372-0.195-0.484-0.245c-0.117-0.047-0.18-0.067-0.18-0.067s0.058,0.035,0.154,0.107
		c0.104,0.072,0.24,0.189,0.412,0.337c0.082,0.083,0.175,0.17,0.277,0.262c0.092,0.103,0.195,0.209,0.303,0.327
		c0.111,0.107,0.209,0.25,0.321,0.387c0.05,0.067,0.112,0.14,0.17,0.205c0.055,0.083,0.104,0.16,0.162,0.242
		c0.229,0.305,0.435,0.674,0.649,1.059c0.122,0.182,0.199,0.402,0.302,0.606c0.093,0.215,0.21,0.419,0.287,0.649
		c0.08,0.22,0.167,0.457,0.255,0.687c0.022,0.057,0.037,0.122,0.057,0.182h0.819C98.295,67.333,98.138,66.941,97.973,66.566z"/>
	<path fill="none" d="M74.521,77.652v5.119h14.414c0.627-1.793,1.031-3.516,1.243-5.119H74.521z"/>
	<path fill="none" d="M101.153,75.417h3.415c-0.029-1.603-0.215-3.52-0.547-5.12h-2.969
		C101.264,71.926,101.275,73.649,101.153,75.417z"/>
	<path fill="none" d="M74.521,85.328v4.479h10.52c1.168-1.475,2.105-2.977,2.834-4.479H74.521z"/>
	<path fill="none" d="M90.159,70.296H74.521v5.12h15.875C90.504,73.189,90.331,71.395,90.159,70.296z"/>
	<path fill="none" d="M100.502,67.735h2.998c-0.537-1.917-1.268-3.839-2.167-5.435h-4.241
		C98.762,63.648,99.87,65.511,100.502,67.735z"/>
	<path fill="none" d="M90.291,62.3h-15.77v5.435h15.312C89.68,65.955,89.695,63.828,90.291,62.3z"/>
	<path fill="none" d="M90.82,57.929l0.152-1.67l1.303,0.489l0.415-0.709l0.574,1.263l0.566-1.121l-0.342,3.146l0.634,0.412h5.951
		c-1.223-1.922-2.521-3.465-4.121-5.118H74.521v5.118h15.744l-1.322-0.729L90.82,57.929z"/>
	<polyline fill="none" stroke="#6AA543" stroke-width="0" stroke-linecap="round" stroke-linejoin="round" points="151,15.37 
		150.949,15.345 150.915,15.327 	"/>
	<path fill="#6AA543" d="M132.023,11.363l-0.117,0.005c0.056-0.005,0.117-0.005,0.162-0.005H132.023z"/>
	<path fill="#6AA543" d="M132.199,11.358l-0.021,0.005C132.359,11.358,132.252,11.358,132.199,11.358z"/>
	<path fill="#8E1F1E" d="M139.174,65.995c3.288-2.633,4.791-7.097,3.453-11.366c-1.331-4.249-5.108-7.065-9.303-7.367
		c2.337-3.498,2.462-8.201-0.074-11.878c-2.517-3.68-6.965-5.245-11.064-4.299c1.221-4.024-0.047-8.558-3.537-11.334
		c-3.502-2.771-8.201-2.971-11.854-0.859c-0.015-4.209-2.561-8.171-6.723-9.796c-4.162-1.618-8.728-0.41-11.573,2.684
		c-1.269-4.009-4.868-7.04-9.317-7.357c-4.448-0.317-8.44,2.172-10.265,5.939c-2.384-3.455-6.723-5.29-11.064-4.299
		c-4.356,1.014-7.449,4.566-8.063,8.728c-3.318-2.601-8.006-3.073-11.865-0.829c-3.84,2.229-5.742,6.545-5.108,10.707
		c-3.937-1.525-8.548-0.594-11.561,2.679c-3.031,3.273-3.587,7.961-1.768,11.743c-4.189-0.302-8.335,1.942-10.263,5.966
		c-1.932,4.024-1.088,8.655,1.78,11.743c-4.099,0.951-7.402,4.327-8.053,8.745c-0.649,4.401,1.54,8.578,5.175,10.669
		c-3.635,2.127-5.792,6.301-5.127,10.705c0.679,4.418,3.977,7.779,8.079,8.713c-2.844,3.09-3.677,7.734-1.735,11.752
		c1.945,4.016,6.111,6.246,10.298,5.928c-1.81,3.785-1.236,8.473,1.81,11.729c3.033,3.26,7.659,4.168,11.576,2.641
		c-0.619,4.158,1.298,8.453,5.168,10.686c3.862,2.23,8.55,1.727,11.853-0.889c0.634,4.158,3.737,7.697,8.093,8.697
		c4.354,0.979,8.68-0.879,11.047-4.354c1.735,3.555,5.37,5.951,9.483,5.951c0.268,0,0.527-0.02,0.795-0.031
		c4.453-0.344,8.051-3.395,9.304-7.404c2.863,3.082,7.429,4.27,11.575,2.627c4.162-1.633,6.693-5.607,6.693-9.816
		c3.65,2.098,8.368,1.867,11.846-0.918c3.482-2.771,4.733-7.324,3.502-11.34c4.095,0.924,8.528-0.658,11.032-4.338h0.011
		c2.506-3.689,2.368-8.414,0.018-11.879c4.19-0.328,7.958-3.164,9.273-7.418c1.309-4.264-0.215-8.729-3.497-11.365
		c3.899-1.531,6.675-5.346,6.675-9.811v-0.285C145.867,71.332,143.096,67.533,139.174,65.995z M74.369,137.203
		c-33.702,0-61.123-27.416-61.123-61.117c0-33.708,27.42-61.128,61.123-61.128c33.701,0,61.122,27.42,61.122,61.128
		C135.491,109.787,108.07,137.203,74.369,137.203z"/>
	<path fill="#4F3616" d="M74.369,14.958c-33.702,0-61.123,27.42-61.123,61.128c0,33.701,27.42,61.117,61.123,61.117
		c33.701,0,61.122-27.416,61.122-61.117C135.491,42.378,108.07,14.958,74.369,14.958z M74.369,134.191
		c-32.042,0-58.107-26.066-58.107-58.105c0-32.042,26.065-58.112,58.107-58.112c32.041,0,58.111,26.07,58.111,58.112
		C132.48,108.125,106.41,134.191,74.369,134.191z"/>
	<path fill="#4F3616" d="M38.872,76.086c0,19.572,15.925,35.498,35.497,35.498s35.496-15.926,35.496-35.498
		c0-19.573-15.924-35.5-35.496-35.5S38.872,56.513,38.872,76.086z M106.838,75.636c0,0.035-0.006,0.069-0.006,0.1
		c0,0.12,0.018,0.229,0.018,0.35c0,17.904-14.571,32.482-32.48,32.482c-1.633,0-3.226-0.158-4.793-0.398
		c-0.501-0.061-1.001-0.141-1.495-0.23c-0.165-0.029-0.327-0.059-0.492-0.1c-0.804-0.16-1.601-0.365-2.382-0.609
		c-0.419-0.125-0.831-0.264-1.243-0.404v0.016c-0.105-0.035-0.195-0.09-0.299-0.125c-1.213-0.424-2.389-0.924-3.53-1.482
		c-0.886-0.42-1.728-0.91-2.566-1.404c-0.484-0.293-0.976-0.574-1.445-0.893c-8.837-5.883-14.676-15.863-14.676-27.247
		c0-9.084,3.642-17.328,9.721-23.267c5.914-5.442,13.978-9.614,22.868-9.614C92.123,42.811,106.838,57.547,106.838,75.636z"/>
	<path fill="#BBA07E" d="M74.369,17.974c-32.042,0-58.107,26.07-58.107,58.112c0,32.039,26.065,58.105,58.107,58.105
		c32.041,0,58.111-26.066,58.111-58.105C132.48,44.043,106.41,17.974,74.369,17.974z M109.865,76.086
		c0,19.572-15.924,35.498-35.496,35.498S38.872,95.658,38.872,76.086c0-19.573,15.925-35.5,35.497-35.5
		S109.865,56.513,109.865,76.086z M70.185,123.607l-0.083,0.789c0,0-2.699-0.17-7.08-1.334c-0.584,0.975-1.927,2.842-4.336,4.311
		c-2.731,1.666-6.473,0.518-6.473,0.518s1.785-3.979,4.848-5.227c0.854-0.346,1.995-0.459,3.078-0.469
		c-1.535-0.525-3.2-1.174-4.955-1.992c-0.722,0.838-2.342,2.42-4.928,3.434c-2.918,1.145-6.341-0.604-6.341-0.604
		s2.404-3.529,5.575-4.215c0.894-0.193,2.044-0.104,3.103,0.076c-0.599-0.32-1.196-0.66-1.805-1.029
		c-0.961-0.523-1.927-1.127-2.888-1.787c-0.854,0.689-2.669,1.918-5.302,2.447c-3.011,0.609-6.012-1.664-6.012-1.664
		s2.918-2.994,6.094-3.119c0.859-0.031,1.902,0.229,2.864,0.564c-1.356-1.1-2.691-2.318-3.979-3.65
		c-0.919,0.514-2.908,1.418-5.582,1.492c-3.011,0.064-5.522-2.631-5.522-2.631s3.328-2.402,6.411-1.977
		c0.911,0.129,1.979,0.629,2.916,1.168c-1.213-1.393-2.375-2.891-3.453-4.475c-0.929,0.34-3.061,0.934-5.757,0.525
		c-2.914-0.439-4.883-3.471-4.883-3.471s3.625-1.748,6.525-0.814c0.938,0.305,1.977,1.07,2.836,1.812
		c-1.021-1.652-1.962-3.385-2.801-5.191c-0.957,0.164-3.108,0.375-5.64-0.475c-2.741-0.924-4.122-4.18-4.122-4.18
		s3.794-1.078,6.438,0.32c0.839,0.443,1.697,1.338,2.392,2.188c-0.731-1.789-1.356-3.646-1.855-5.547
		c-0.956,0-3.063-0.166-5.347-1.414c-2.487-1.357-3.268-4.742-3.268-4.742s3.845-0.391,6.156,1.406
		c0.727,0.57,1.396,1.553,1.917,2.477c-0.394-1.887-0.661-3.824-0.789-5.791c-0.899-0.15-2.938-0.67-4.963-2.287
		c-2.169-1.727-2.342-5.125-2.342-5.125s3.772,0.272,5.699,2.398c0.625,0.695,1.111,1.809,1.458,2.816
		c-0.097-2.082-0.035-4.144,0.17-6.166c-0.856-0.312-2.716-1.156-4.384-3.043c-1.792-2.04-1.386-5.347-1.386-5.347
		s3.595,0.911,5.093,3.292c0.492,0.782,0.771,1.962,0.937,3.006c0.312-2.094,0.771-4.157,1.355-6.149
		c-0.722-0.404-2.459-1.54-3.8-3.732c-1.391-2.282-0.434-5.4-0.434-5.4s3.317,1.493,4.356,4.044c0.387,0.951,0.43,2.347,0.382,3.46
		c0.706-2.142,1.565-4.202,2.526-6.166c-0.587-0.475-2.142-1.875-3.088-4.299c-0.956-2.434,0.502-5.288,0.502-5.288
		s2.943,2.004,3.512,4.648c0.23,1.063-0.02,2.566-0.282,3.665c1.106-2.1,2.336-4.074,3.657-5.894
		c-0.497-0.572-1.74-2.182-2.242-4.663c-0.504-2.514,1.385-5.016,1.385-5.016s2.506,2.434,2.604,5.083
		c0.04,1.039-0.435,2.396-0.864,3.415c1.445-1.873,2.98-3.562,4.566-5.03c-0.385-0.629-1.316-2.399-1.375-4.888
		c-0.058-2.511,2.192-4.601,2.192-4.601s2,2.771,1.643,5.343c-0.145,1.068-0.896,2.372-1.503,3.288
		c0.566-0.492,1.133-0.951,1.708-1.386c1.283-1.033,2.551-1.95,3.782-2.761c-0.225-0.542-0.937-2.497-0.542-5.068
		c0.37-2.434,2.894-4.069,2.894-4.069s1.463,3.016,0.676,5.44c-0.369,1.151-1.56,2.469-2.312,3.23
		c2.294-1.46,4.454-2.551,6.338-3.363c-0.117-0.502-0.504-2.546,0.327-5.025c0.774-2.282,3.493-3.433,3.493-3.433
		s0.896,3.161-0.27,5.365c-0.594,1.119-2.127,2.27-2.96,2.841c1.293-0.537,2.444-0.939,3.405-1.241
		c0.292-0.365,1.708-2.05,3.445-2.347c1.38-0.235,3.707,0.659,3.707,0.659s-1.113,1.518-3.37,2.294
		c-1.508,0.517-3.178-0.202-3.68-0.455c-1.171,0.405-2.624,0.966-4.279,1.733c0.971-0.167,2.948-0.422,4.182-0.02
		c2.367,0.779,3.922,3.677,3.922,3.677s-2.756,1.058-4.893-0.058c-2.292-1.186-3.43-2.893-3.712-3.363
		c-1.854,0.894-3.942,2.05-6.141,3.553c1.019-0.347,2.701-0.814,3.872-0.644c2.514,0.357,4.591,2.996,4.591,2.996
		s-2.581,1.55-4.93,0.814c-2.377-0.747-3.812-2.152-4.264-2.654c-0.976,0.689-1.967,1.445-2.968,2.284
		c-0.896,0.696-1.785,1.463-2.654,2.302c0.956-0.527,2.586-1.318,3.82-1.361c2.591-0.082,5.143,2.2,5.143,2.2
		s-2.322,2.02-4.811,1.692c-2.551-0.332-4.244-1.508-4.771-1.922c-1.575,1.585-3.088,3.378-4.499,5.357
		c0.889-0.689,2.234-1.61,3.353-1.845c2.591-0.547,5.552,1.293,5.552,1.293s-1.967,2.439-4.528,2.551
		c-2.506,0.118-4.361-0.687-5.048-1.038c-1.221,1.814-2.356,3.762-3.363,5.824c0.762-0.814,1.82-1.8,2.796-2.195
		c2.512-1.006,5.819,0.322,5.819,0.322s-1.55,2.796-4.102,3.37c-2.396,0.532-4.346,0.112-5.163-0.13
		c-0.906,2.01-1.693,4.112-2.332,6.286c0.624-0.951,1.508-2.122,2.411-2.686c2.342-1.456,5.907-0.709,5.907-0.709
		s-1.068,3.088-3.527,4.109c-2.317,0.966-4.346,0.891-5.21,0.794c-0.562,2.177-0.966,4.416-1.196,6.703
		c0.454-1.086,1.161-2.481,1.997-3.233c2.092-1.875,5.804-1.758,5.804-1.758s-0.522,3.293-2.813,4.753
		c-2.172,1.385-4.236,1.667-5.113,1.717c-0.137,2.122-0.117,4.28,0.083,6.436c0.277-1.129,0.716-2.496,1.375-3.33
		c1.775-2.262,5.517-2.801,5.517-2.801s0.062,3.405-1.985,5.282c-1.88,1.729-3.854,2.387-4.758,2.617
		c0.214,2.076,0.586,4.109,1.088,6.092c0.082-1.18,0.279-2.611,0.791-3.566c1.375-2.576,5.053-3.779,5.053-3.779
		s0.659,3.406-1.063,5.648c-1.565,2.051-3.4,3.061-4.286,3.455c0.579,1.916,1.278,3.764,2.087,5.551
		c-0.117-1.148-0.142-2.512,0.18-3.484c0.929-2.846,4.401-4.703,4.401-4.703s1.273,3.295-0.06,5.865
		c-1.183,2.283-2.798,3.611-3.637,4.199c0.881,1.729,1.853,3.396,2.901,4.979c-0.297-1.104-0.532-2.381-0.39-3.375
		c0.43-3.016,3.59-5.502,3.59-5.502s1.865,3.09,0.981,5.906c-0.771,2.477-2.137,4.084-2.883,4.834
		c1.206,1.637,2.484,3.174,3.819,4.592c-0.517-1.088-1.034-2.416-1.068-3.488c-0.098-3.107,2.636-6.162,2.636-6.162
		s2.419,2.775,2.029,5.762c-0.347,2.682-1.47,4.568-2.074,5.418c1.493,1.441,3.041,2.74,4.611,3.863
		c-0.731-1.018-1.503-2.281-1.732-3.375c-0.649-3.105,1.56-6.66,1.56-6.66s2.923,2.357,3.056,5.432
		c0.123,2.727-0.654,4.814-1.118,5.787c0.602,0.385,1.201,0.734,1.805,1.059c1.088,0.639,2.157,1.203,3.195,1.713
		c-0.854-0.859-1.755-1.912-2.147-2.896c-1.203-3.006,0.382-6.969,0.382-6.969s3.36,1.855,4.039,4.918
		c0.599,2.66,0.209,4.857-0.083,5.945c1.907,0.818,3.688,1.428,5.288,1.887c-1.001-0.697-2.069-1.586-2.634-2.49
		c-1.743-2.811-0.844-7.086-0.844-7.086s3.697,1.279,4.925,4.234c1.063,2.557,1.074,4.812,0.976,5.973
		c3.542,0.793,5.655,0.938,5.655,0.938L70.185,123.607z M116.082,52.002c0.572-2.644,3.518-4.648,3.518-4.648
		s1.453,2.854,0.502,5.288c-0.951,2.424-2.502,3.824-3.088,4.299c0.961,1.964,1.814,4.024,2.523,6.166
		c-0.05-1.113-0.01-2.509,0.379-3.46c1.044-2.551,4.357-4.044,4.357-4.044s0.961,3.118-0.43,5.4
		c-1.341,2.192-3.078,3.328-3.805,3.732c0.589,1.992,1.049,4.055,1.355,6.154c0.162-1.048,0.449-2.229,0.941-3.011
		c1.498-2.381,5.09-3.292,5.09-3.292s0.409,3.308-1.391,5.347c-1.66,1.887-3.522,2.731-4.376,3.043
		c0.204,2.022,0.267,4.083,0.169,6.166c0.348-1.008,0.834-2.117,1.459-2.816c1.927-2.126,5.699-2.398,5.699-2.398
		s-0.176,3.398-2.348,5.125c-2.02,1.617-4.059,2.137-4.957,2.287c-0.135,1.967-0.395,3.904-0.789,5.791
		c0.517-0.924,1.186-1.906,1.912-2.477c2.316-1.797,6.161-1.406,6.161-1.406s-0.781,3.385-3.268,4.742
		c-2.284,1.248-4.392,1.414-5.348,1.414c-0.507,1.9-1.131,3.758-1.854,5.547c0.689-0.85,1.548-1.744,2.392-2.188
		c2.644-1.398,6.436-0.32,6.436-0.32s-1.378,3.256-4.119,4.18c-2.531,0.85-4.683,0.639-5.64,0.475
		c-0.838,1.807-1.779,3.539-2.801,5.191c0.854-0.742,1.891-1.508,2.836-1.812c2.903-0.934,6.523,0.814,6.523,0.814
		s-1.963,3.031-4.881,3.471c-2.701,0.408-4.833-0.186-5.756-0.525c-1.086,1.584-2.24,3.082-3.453,4.475
		c0.936-0.539,2.004-1.039,2.916-1.168c3.08-0.426,6.41,1.977,6.41,1.977s-2.512,2.695-5.521,2.631
		c-2.679-0.074-4.664-0.979-5.585-1.492c-1.288,1.332-2.621,2.551-3.977,3.65c0.961-0.336,2.005-0.596,2.863-0.564
		c3.175,0.125,6.094,3.119,6.094,3.119s-3.001,2.273-6.011,1.664c-2.635-0.529-4.454-1.758-5.309-2.447
		c-0.955,0.66-1.922,1.264-2.883,1.787c-0.609,0.369-1.211,0.709-1.805,1.029c1.063-0.18,2.209-0.27,3.104-0.076
		c3.17,0.686,5.571,4.215,5.571,4.215s-3.42,1.748-6.339,0.604c-2.591-1.014-4.209-2.596-4.928-3.434
		c-1.755,0.818-3.422,1.467-4.955,1.992c1.084,0.01,2.225,0.123,3.073,0.469c3.067,1.248,4.851,5.227,4.851,5.227
		s-3.742,1.148-6.471-0.518c-2.409-1.469-3.755-3.336-4.336-4.311c-4.382,1.164-7.088,1.334-7.088,1.334l-0.075-0.789l-0.077-0.789
		c0,0,2.107-0.145,5.649-0.938c-0.097-1.16-0.087-3.416,0.972-5.973c1.228-2.955,4.928-4.234,4.928-4.234s0.896,4.275-0.85,7.086
		c-0.561,0.904-1.625,1.793-2.626,2.49c1.601-0.459,3.38-1.068,5.285-1.887c-0.29-1.088-0.679-3.285-0.085-5.945
		c0.684-3.062,4.045-4.918,4.045-4.918s1.584,3.963,0.381,6.969c-0.395,0.984-1.293,2.037-2.151,2.896
		c1.044-0.51,2.106-1.074,3.2-1.713c0.6-0.324,1.201-0.674,1.805-1.059c-0.459-0.973-1.248-3.061-1.125-5.787
		c0.145-3.074,3.062-5.432,3.062-5.432s2.209,3.555,1.555,6.66c-0.225,1.094-1.003,2.357-1.727,3.375
		c1.567-1.123,3.113-2.422,4.611-3.863c-0.605-0.85-1.729-2.736-2.078-5.418c-0.387-2.986,2.025-5.762,2.025-5.762
		s2.74,3.055,2.639,6.162c-0.035,1.072-0.547,2.4-1.064,3.488c1.336-1.418,2.614-2.955,3.815-4.592
		c-0.747-0.75-2.107-2.357-2.878-4.834c-0.885-2.816,0.976-5.906,0.976-5.906s3.165,2.486,3.595,5.502
		c0.143,0.994-0.092,2.271-0.39,3.375c1.049-1.582,2.021-3.25,2.898-4.979c-0.837-0.588-2.448-1.916-3.635-4.199
		c-1.333-2.57-0.065-5.865-0.065-5.865s3.476,1.857,4.406,4.703c0.322,0.973,0.298,2.336,0.18,3.484
		c0.807-1.787,1.508-3.635,2.08-5.551c-0.884-0.395-2.713-1.404-4.283-3.455c-1.719-2.242-1.055-5.648-1.055-5.648
		s3.668,1.203,5.053,3.779c0.505,0.955,0.705,2.387,0.782,3.566c0.507-1.982,0.878-4.016,1.089-6.092
		c-0.904-0.23-2.874-0.889-4.756-2.617c-2.045-1.877-1.982-5.282-1.982-5.282s3.742,0.54,5.518,2.801
		c0.653,0.834,1.098,2.201,1.369,3.33c0.203-2.156,0.226-4.314,0.086-6.436c-0.874-0.05-2.938-0.332-5.113-1.717
		c-2.289-1.46-2.811-4.753-2.811-4.753s3.707-0.117,5.797,1.758c0.838,0.751,1.545,2.147,2.004,3.233
		c-0.229-2.287-0.639-4.526-1.195-6.703c-0.863,0.097-2.894,0.172-5.21-0.794c-2.464-1.021-3.522-4.109-3.522-4.109
		s3.557-0.747,5.895,0.709c0.91,0.569,1.795,1.735,2.418,2.686c-0.639-2.174-1.426-4.276-2.336-6.286
		c-0.814,0.242-2.762,0.662-5.158,0.13c-2.551-0.574-4.102-3.37-4.102-3.37s3.309-1.328,5.814-0.322
		c0.98,0.395,2.039,1.381,2.801,2.2c-1.006-2.062-2.142-4.015-3.365-5.829c-0.684,0.352-2.539,1.156-5.051,1.038
		c-2.556-0.112-4.523-2.551-4.523-2.551s2.959-1.84,5.553-1.293c1.118,0.235,2.464,1.156,3.353,1.845
		c-1.411-1.979-2.923-3.772-4.499-5.357c-0.531,0.415-2.224,1.59-4.775,1.922c-2.484,0.327-4.805-1.692-4.805-1.692
		s2.551-2.282,5.143-2.2c1.232,0.042,2.863,0.834,3.818,1.361c-0.868-0.839-1.757-1.605-2.653-2.302
		c-1.006-0.839-1.992-1.595-2.966-2.284c-0.459,0.501-1.885,1.907-4.269,2.654c-2.347,0.736-4.929-0.814-4.929-0.814
		s2.07-2.639,4.586-2.996c1.182-0.17,2.854,0.302,3.875,0.644c-2.197-1.503-4.283-2.659-6.139-3.553
		c-0.282,0.47-1.428,2.177-3.712,3.363c-2.142,1.116-4.894,0.058-4.894,0.058s1.556-2.898,3.917-3.677
		c1.235-0.402,3.216-0.147,4.187,0.02c-1.65-0.767-3.107-1.328-4.279-1.733c-0.501,0.252-2.166,0.971-3.682,0.455
		c-2.254-0.776-3.373-2.294-3.373-2.294s2.332-0.894,3.718-0.659c1.728,0.297,3.147,1.982,3.435,2.347
		c0.961,0.302,2.112,0.704,3.405,1.241c-0.833-0.572-2.366-1.728-2.956-2.841c-1.166-2.204-0.27-5.365-0.27-5.365
		s2.719,1.151,3.49,3.433c0.829,2.479,0.444,4.523,0.327,5.025c1.888,0.812,4.039,1.902,6.341,3.363
		c-0.756-0.762-1.947-2.08-2.316-3.23c-0.781-2.424,0.682-5.44,0.682-5.44s2.523,1.635,2.893,4.069
		c0.388,2.571-0.316,4.526-0.541,5.068c1.23,0.811,2.498,1.728,3.781,2.761c0.572,0.435,1.142,0.894,1.708,1.386
		c-0.608-0.916-1.36-2.219-1.508-3.288c-0.352-2.571,1.646-5.343,1.646-5.343s2.252,2.09,2.194,4.601
		c-0.067,2.489-0.991,4.259-1.376,4.888c1.586,1.468,3.118,3.158,4.566,5.03c-0.43-1.019-0.906-2.376-0.863-3.415
		c0.097-2.649,2.601-5.083,2.601-5.083s1.893,2.501,1.386,5.016c-0.5,2.481-1.742,4.091-2.239,4.663
		c1.32,1.82,2.546,3.8,3.657,5.894C116.107,54.569,115.857,53.066,116.082,52.002z"/>
	<path fill="#8E1F1E" d="M112.712,49.773c0.497-0.572,1.739-2.182,2.239-4.663c0.507-2.514-1.386-5.016-1.386-5.016
		s-2.504,2.434-2.601,5.083c-0.043,1.039,0.434,2.396,0.863,3.415c-1.448-1.873-2.98-3.562-4.566-5.03
		c0.385-0.629,1.309-2.399,1.376-4.888c0.058-2.511-2.194-4.601-2.194-4.601s-1.997,2.771-1.646,5.343
		c0.147,1.068,0.899,2.372,1.508,3.288c-0.566-0.492-1.136-0.951-1.708-1.386c-1.283-1.033-2.551-1.95-3.781-2.761
		c0.225-0.542,0.929-2.497,0.541-5.068c-0.369-2.434-2.893-4.069-2.893-4.069s-1.463,3.016-0.682,5.44
		c0.369,1.151,1.561,2.469,2.316,3.23c-2.302-1.46-4.453-2.551-6.341-3.363c0.117-0.502,0.502-2.546-0.327-5.025
		c-0.771-2.282-3.49-3.433-3.49-3.433s-0.896,3.161,0.27,5.365c0.59,1.114,2.123,2.27,2.956,2.841
		c-1.293-0.537-2.444-0.939-3.405-1.241c-0.287-0.365-1.707-2.05-3.435-2.347c-1.386-0.235-3.718,0.659-3.718,0.659
		s1.119,1.518,3.373,2.294c1.516,0.517,3.181-0.202,3.682-0.455c1.172,0.405,2.629,0.966,4.279,1.733
		c-0.971-0.167-2.951-0.422-4.187-0.02c-2.361,0.779-3.917,3.677-3.917,3.677s2.752,1.058,4.894-0.058
		c2.284-1.186,3.43-2.893,3.712-3.363c1.855,0.894,3.941,2.05,6.139,3.553c-1.021-0.342-2.693-0.814-3.875-0.644
		c-2.516,0.357-4.586,2.996-4.586,2.996s2.582,1.55,4.929,0.814c2.384-0.747,3.81-2.152,4.269-2.654
		c0.974,0.689,1.96,1.445,2.966,2.284c0.896,0.696,1.785,1.463,2.653,2.302c-0.955-0.527-2.586-1.318-3.818-1.361
		c-2.592-0.082-5.143,2.2-5.143,2.2s2.32,2.02,4.805,1.692c2.552-0.332,4.244-1.508,4.775-1.922
		c1.576,1.585,3.088,3.378,4.499,5.357c-0.889-0.689-2.234-1.61-3.353-1.845c-2.594-0.547-5.553,1.293-5.553,1.293
		s1.968,2.439,4.523,2.551c2.512,0.118,4.367-0.687,5.051-1.038c1.224,1.814,2.359,3.767,3.365,5.829
		c-0.762-0.819-1.82-1.805-2.801-2.2c-2.506-1.006-5.814,0.322-5.814,0.322s1.551,2.796,4.102,3.37
		c2.396,0.532,4.344,0.112,5.158-0.13c0.91,2.01,1.697,4.112,2.336,6.286c-0.623-0.951-1.508-2.117-2.418-2.686
		c-2.338-1.456-5.895-0.709-5.895-0.709s1.059,3.088,3.522,4.109c2.316,0.966,4.347,0.891,5.21,0.794
		c0.557,2.177,0.966,4.416,1.195,6.703c-0.459-1.086-1.166-2.481-2.004-3.233c-2.09-1.875-5.797-1.758-5.797-1.758
		s0.521,3.293,2.811,4.753c2.175,1.385,4.239,1.667,5.113,1.717c0.14,2.122,0.117,4.28-0.086,6.436
		c-0.271-1.129-0.716-2.496-1.369-3.33c-1.775-2.262-5.518-2.801-5.518-2.801s-0.062,3.405,1.982,5.282
		c1.882,1.729,3.852,2.387,4.756,2.617c-0.211,2.076-0.582,4.109-1.089,6.092c-0.077-1.18-0.277-2.611-0.782-3.566
		c-1.385-2.576-5.053-3.779-5.053-3.779s-0.664,3.406,1.055,5.648c1.57,2.051,3.399,3.061,4.283,3.455
		c-0.572,1.916-1.273,3.764-2.08,5.551c0.118-1.148,0.143-2.512-0.18-3.484c-0.931-2.846-4.406-4.703-4.406-4.703
		s-1.268,3.295,0.065,5.865c1.187,2.283,2.798,3.611,3.635,4.199c-0.878,1.729-1.85,3.396-2.898,4.979
		c0.298-1.104,0.532-2.381,0.39-3.375c-0.43-3.016-3.595-5.502-3.595-5.502s-1.86,3.09-0.976,5.906
		c0.771,2.477,2.131,4.084,2.878,4.834c-1.201,1.637-2.479,3.174-3.815,4.592c0.518-1.088,1.029-2.416,1.064-3.488
		c0.102-3.107-2.639-6.162-2.639-6.162s-2.412,2.775-2.025,5.762c0.35,2.682,1.473,4.568,2.078,5.418
		c-1.498,1.441-3.044,2.74-4.611,3.863c0.724-1.018,1.502-2.281,1.727-3.375c0.654-3.105-1.555-6.66-1.555-6.66
		s-2.918,2.357-3.062,5.432c-0.123,2.727,0.666,4.814,1.125,5.787c-0.604,0.385-1.205,0.734-1.805,1.059
		c-1.094,0.639-2.156,1.203-3.2,1.713c0.858-0.859,1.757-1.912,2.151-2.896c1.203-3.006-0.381-6.969-0.381-6.969
		s-3.361,1.855-4.045,4.918c-0.594,2.66-0.205,4.857,0.085,5.945c-1.905,0.818-3.685,1.428-5.285,1.887
		c1.001-0.697,2.065-1.586,2.626-2.49c1.746-2.811,0.85-7.086,0.85-7.086s-3.7,1.279-4.928,4.234
		c-1.059,2.557-1.068,4.812-0.972,5.973c-3.542,0.793-5.649,0.938-5.649,0.938l0.077,0.789l0.075,0.789c0,0,2.706-0.17,7.088-1.334
		c0.581,0.975,1.927,2.842,4.336,4.311c2.729,1.666,6.471,0.518,6.471,0.518s-1.783-3.979-4.851-5.227
		c-0.849-0.346-1.989-0.459-3.073-0.469c1.533-0.525,3.2-1.174,4.955-1.992c0.719,0.838,2.337,2.42,4.928,3.434
		c2.919,1.145,6.339-0.604,6.339-0.604s-2.401-3.529-5.571-4.215c-0.895-0.193-2.04-0.104-3.104,0.076
		c0.594-0.32,1.195-0.66,1.805-1.029c0.961-0.523,1.928-1.127,2.883-1.787c0.854,0.689,2.674,1.918,5.309,2.447
		c3.01,0.609,6.011-1.664,6.011-1.664s-2.919-2.994-6.094-3.119c-0.858-0.031-1.902,0.229-2.863,0.564
		c1.355-1.1,2.688-2.318,3.977-3.65c0.921,0.514,2.906,1.418,5.585,1.492c3.01,0.064,5.521-2.631,5.521-2.631
		s-3.33-2.402-6.41-1.977c-0.912,0.129-1.98,0.629-2.916,1.168c1.213-1.393,2.367-2.891,3.453-4.475
		c0.923,0.34,3.055,0.934,5.756,0.525c2.918-0.439,4.881-3.471,4.881-3.471s-3.62-1.748-6.523-0.814
		c-0.945,0.305-1.982,1.07-2.836,1.812c1.021-1.652,1.963-3.385,2.801-5.191c0.957,0.164,3.108,0.375,5.64-0.475
		c2.741-0.924,4.119-4.18,4.119-4.18s-3.792-1.078-6.436,0.32c-0.844,0.443-1.702,1.338-2.392,2.188
		c0.724-1.789,1.348-3.646,1.854-5.547c0.956,0,3.063-0.166,5.348-1.414c2.486-1.357,3.268-4.742,3.268-4.742
		s-3.845-0.391-6.161,1.406c-0.727,0.57-1.396,1.553-1.912,2.477c0.395-1.887,0.654-3.824,0.789-5.791
		c0.898-0.15,2.938-0.67,4.957-2.287c2.172-1.727,2.348-5.125,2.348-5.125s-3.772,0.272-5.699,2.398
		c-0.625,0.699-1.111,1.809-1.459,2.816c0.098-2.082,0.035-4.144-0.169-6.166c0.854-0.312,2.716-1.156,4.376-3.043
		c1.8-2.04,1.391-5.347,1.391-5.347s-3.592,0.911-5.09,3.292c-0.492,0.782-0.779,1.962-0.941,3.011
		c-0.307-2.099-0.767-4.162-1.355-6.154c0.727-0.404,2.464-1.54,3.805-3.732c1.391-2.282,0.43-5.4,0.43-5.4
		s-3.313,1.493-4.357,4.044c-0.389,0.951-0.429,2.347-0.379,3.46c-0.709-2.142-1.562-4.202-2.523-6.166
		c0.586-0.475,2.137-1.875,3.088-4.299c0.951-2.434-0.502-5.288-0.502-5.288s-2.945,2.004-3.518,4.648
		c-0.225,1.063,0.025,2.566,0.287,3.665C115.258,53.573,114.032,51.593,112.712,49.773z"/>
	<path fill="#8E1F1E" d="M63.637,115.908c-1.228-2.955-4.925-4.234-4.925-4.234s-0.899,4.275,0.844,7.086
		c0.564,0.904,1.633,1.793,2.634,2.49c-1.6-0.459-3.38-1.068-5.288-1.887c0.292-1.088,0.682-3.285,0.083-5.945
		c-0.679-3.062-4.039-4.918-4.039-4.918s-1.585,3.963-0.382,6.969c0.392,0.984,1.293,2.037,2.147,2.896
		c-1.039-0.51-2.107-1.074-3.195-1.713c-0.604-0.324-1.203-0.674-1.805-1.059c0.464-0.973,1.241-3.061,1.118-5.787
		c-0.132-3.074-3.056-5.432-3.056-5.432s-2.209,3.555-1.56,6.66c0.229,1.094,1.001,2.357,1.732,3.375
		c-1.57-1.123-3.118-2.422-4.611-3.863c0.604-0.85,1.728-2.736,2.074-5.418c0.39-2.986-2.029-5.762-2.029-5.762
		s-2.734,3.055-2.636,6.162c0.035,1.072,0.552,2.4,1.068,3.488c-1.335-1.418-2.614-2.955-3.819-4.592
		c0.746-0.75,2.112-2.357,2.883-4.834c0.884-2.816-0.981-5.906-0.981-5.906s-3.161,2.486-3.59,5.502
		c-0.142,0.994,0.093,2.271,0.39,3.375c-1.048-1.582-2.02-3.25-2.901-4.979c0.839-0.588,2.454-1.916,3.637-4.199
		c1.333-2.57,0.06-5.865,0.06-5.865s-3.473,1.857-4.401,4.703c-0.322,0.973-0.297,2.336-0.18,3.484
		c-0.809-1.787-1.508-3.635-2.087-5.551c0.886-0.395,2.721-1.404,4.286-3.455c1.723-2.242,1.063-5.648,1.063-5.648
		s-3.677,1.203-5.053,3.779c-0.512,0.955-0.709,2.387-0.791,3.566c-0.502-1.982-0.874-4.016-1.088-6.092
		c0.903-0.23,2.878-0.889,4.758-2.617c2.047-1.877,1.985-5.282,1.985-5.282s-3.742,0.54-5.517,2.801
		c-0.659,0.834-1.099,2.201-1.375,3.33c-0.2-2.156-0.22-4.314-0.083-6.436c0.876-0.05,2.941-0.332,5.113-1.717
		c2.292-1.46,2.813-4.753,2.813-4.753s-3.712-0.117-5.804,1.758c-0.836,0.751-1.543,2.147-1.997,3.233
		c0.229-2.287,0.634-4.526,1.196-6.703c0.864,0.097,2.893,0.172,5.21-0.794c2.459-1.021,3.527-4.109,3.527-4.109
		s-3.565-0.747-5.907,0.709c-0.903,0.564-1.787,1.735-2.411,2.686c0.639-2.174,1.425-4.276,2.332-6.286
		c0.816,0.242,2.766,0.662,5.163,0.13c2.551-0.574,4.102-3.37,4.102-3.37s-3.308-1.328-5.819-0.322
		c-0.976,0.395-2.034,1.381-2.796,2.195c1.006-2.062,2.142-4.01,3.363-5.824c0.687,0.352,2.542,1.156,5.048,1.038
		c2.561-0.112,4.528-2.551,4.528-2.551s-2.96-1.84-5.552-1.293c-1.119,0.235-2.464,1.156-3.353,1.845
		c1.411-1.979,2.923-3.772,4.499-5.357c0.527,0.415,2.22,1.59,4.771,1.922c2.489,0.327,4.811-1.692,4.811-1.692
		s-2.551-2.282-5.143-2.2c-1.233,0.042-2.864,0.834-3.82,1.361c0.869-0.839,1.758-1.605,2.654-2.302
		c1.001-0.839,1.992-1.595,2.968-2.284c0.452,0.501,1.887,1.907,4.264,2.654c2.349,0.736,4.93-0.814,4.93-0.814
		s-2.077-2.639-4.591-2.996c-1.171-0.17-2.854,0.297-3.872,0.644c2.199-1.503,4.287-2.659,6.141-3.553
		c0.282,0.47,1.42,2.177,3.712,3.363c2.137,1.116,4.893,0.058,4.893,0.058s-1.555-2.898-3.922-3.677
		c-1.233-0.402-3.21-0.147-4.182,0.02c1.655-0.767,3.108-1.328,4.279-1.733c0.502,0.252,2.172,0.971,3.68,0.455
		c2.257-0.776,3.37-2.294,3.37-2.294s-2.327-0.894-3.707-0.659c-1.737,0.297-3.153,1.982-3.445,2.347
		c-0.961,0.302-2.112,0.704-3.405,1.241c0.833-0.572,2.367-1.723,2.96-2.841c1.166-2.204,0.27-5.365,0.27-5.365
		s-2.719,1.151-3.493,3.433c-0.832,2.479-0.444,4.523-0.327,5.025c-1.885,0.812-4.044,1.902-6.338,3.363
		c0.751-0.762,1.942-2.08,2.312-3.23c0.787-2.424-0.676-5.44-0.676-5.44s-2.524,1.635-2.894,4.069
		c-0.395,2.571,0.317,4.526,0.542,5.068c-1.231,0.811-2.499,1.728-3.782,2.761c-0.574,0.435-1.141,0.894-1.708,1.386
		c0.606-0.916,1.358-2.219,1.503-3.288c0.357-2.571-1.643-5.343-1.643-5.343s-2.25,2.09-2.192,4.601
		c0.06,2.489,0.991,4.259,1.375,4.888c-1.585,1.468-3.121,3.158-4.566,5.03c0.429-1.019,0.903-2.376,0.864-3.415
		c-0.098-2.649-2.604-5.083-2.604-5.083s-1.89,2.501-1.385,5.016c0.501,2.481,1.745,4.091,2.242,4.663
		c-1.321,1.82-2.551,3.794-3.657,5.894c0.262-1.098,0.512-2.601,0.282-3.665c-0.569-2.644-3.512-4.648-3.512-4.648
		s-1.458,2.854-0.502,5.288c0.946,2.424,2.501,3.824,3.088,4.299c-0.961,1.964-1.82,4.024-2.526,6.166
		c0.047-1.113,0.005-2.509-0.382-3.46c-1.039-2.551-4.356-4.044-4.356-4.044s-0.957,3.118,0.434,5.4
		c1.341,2.192,3.078,3.328,3.8,3.732c-0.584,1.992-1.043,4.055-1.355,6.149c-0.165-1.043-0.444-2.224-0.937-3.006
		c-1.498-2.381-5.093-3.292-5.093-3.292s-0.407,3.308,1.386,5.347c1.667,1.887,3.527,2.731,4.384,3.043
		c-0.205,2.022-0.267,4.083-0.17,6.166c-0.347-1.008-0.833-2.121-1.458-2.816c-1.927-2.126-5.699-2.398-5.699-2.398
		s0.172,3.398,2.342,5.125c2.024,1.617,4.064,2.137,4.963,2.287c0.127,1.967,0.395,3.904,0.789,5.791
		c-0.521-0.924-1.19-1.906-1.917-2.477c-2.312-1.797-6.156-1.406-6.156-1.406s0.781,3.385,3.268,4.742
		c2.284,1.248,4.391,1.414,5.347,1.414c0.499,1.9,1.124,3.758,1.855,5.547c-0.694-0.85-1.553-1.744-2.392-2.188
		c-2.644-1.398-6.438-0.32-6.438-0.32s1.38,3.256,4.122,4.18c2.531,0.85,4.683,0.639,5.64,0.475c0.839,1.807,1.78,3.539,2.801,5.191
		c-0.859-0.742-1.897-1.508-2.836-1.812c-2.901-0.934-6.525,0.814-6.525,0.814s1.969,3.031,4.883,3.471
		c2.696,0.408,4.828-0.186,5.757-0.525c1.078,1.584,2.239,3.082,3.453,4.475c-0.937-0.539-2.005-1.039-2.916-1.168
		c-3.083-0.426-6.411,1.977-6.411,1.977s2.511,2.695,5.522,2.631c2.674-0.074,4.663-0.979,5.582-1.492
		c1.288,1.332,2.624,2.551,3.979,3.65c-0.961-0.336-2.005-0.596-2.864-0.564c-3.175,0.125-6.094,3.119-6.094,3.119
		s3.001,2.273,6.012,1.664c2.633-0.529,4.448-1.758,5.302-2.447c0.961,0.66,1.927,1.264,2.888,1.787
		c0.609,0.369,1.206,0.709,1.805,1.029c-1.059-0.18-2.209-0.27-3.103-0.076c-3.17,0.686-5.575,4.215-5.575,4.215
		s3.423,1.748,6.341,0.604c2.586-1.014,4.207-2.596,4.928-3.434c1.755,0.818,3.42,1.467,4.955,1.992
		c-1.083,0.01-2.224,0.123-3.078,0.469c-3.063,1.248-4.848,5.227-4.848,5.227s3.742,1.148,6.473-0.518
		c2.409-1.469,3.752-3.336,4.336-4.311c4.381,1.164,7.08,1.334,7.08,1.334l0.083-0.789l0.083-0.789c0,0-2.112-0.145-5.655-0.938
		C64.71,120.721,64.7,118.465,63.637,115.908z"/>
	<path fill="#BBA07E" d="M98.969,69.592l-0.178-0.792c-0.072-0.262-0.164-0.517-0.242-0.774c-0.027-0.102-0.079-0.192-0.114-0.292
		h-0.819c0.056,0.177,0.105,0.357,0.163,0.532c0.072,0.247,0.155,0.487,0.214,0.736l0.16,0.759c0.045,0.174,0.061,0.357,0.093,0.534
		h0.833C99.044,70.062,99.026,69.824,98.969,69.592z"/>
	<path fill="#BBA07E" d="M50.361,75.526c-0.06,0.224-0.137,0.499-0.225,0.81c-0.075,0.318-0.19,0.668-0.24,1.068
		c-0.015,0.074-0.027,0.17-0.042,0.248h0.502c0.002-0.059,0.007-0.129,0.01-0.189c0.013-0.395,0.067-0.748,0.087-1.072
		c0.025-0.324,0.053-0.605,0.072-0.834c0.005-0.06,0.005-0.09,0.008-0.14h-0.14C50.381,75.457,50.374,75.476,50.361,75.526z"/>
	<path fill="#BBA07E" d="M49.594,83.279l0.103,0.805c0.047,0.264,0.112,0.529,0.17,0.789c0.027,0.16,0.092,0.299,0.132,0.455h0.784
		c-0.05-0.205-0.083-0.416-0.13-0.625c-0.045-0.244-0.107-0.49-0.142-0.748l-0.083-0.766c-0.025-0.139-0.02-0.279-0.032-0.418
		h-0.832C49.577,82.941,49.569,83.111,49.594,83.279z"/>
	<path fill="#BBA07E" d="M52.692,89.986c0.112,0.084,0.215,0.158,0.312,0.234c0.19,0.145,0.347,0.229,0.459,0.289
		c0.115,0.064,0.175,0.084,0.175,0.084s-0.055-0.039-0.147-0.123c-0.097-0.076-0.225-0.211-0.379-0.375
		c-0.077-0.086-0.157-0.18-0.25-0.285l-0.002-0.004H52.5C52.565,89.865,52.633,89.926,52.692,89.986z"/>
	<path fill="#BBA07E" d="M99.071,76.555c0.052-0.32,0.128-0.684,0.149-1.083c0.003-0.015,0.003-0.04,0.006-0.055h-0.49
		c0.003,0.01,0.003,0.02,0.003,0.035c0.024,0.4,0.01,0.754,0.015,1.078c0.006,0.324,0.006,0.605,0.01,0.84
		c0.003,0.125,0.006,0.189,0.008,0.283h0.105c0.018-0.09,0.029-0.154,0.052-0.27C98.969,77.154,99.021,76.875,99.071,76.555z"/>
	<path fill="#BBA07E" d="M51.167,52.424c-6.079,5.939-9.721,14.182-9.721,23.267c0,11.383,5.839,21.364,14.676,27.247
		c0.472,0.314,0.958,0.604,1.445,0.893c0.839,0.494,1.68,0.984,2.566,1.404c1.148,0.549,2.312,1.068,3.53,1.482
		c0.104,0.035,0.194,0.09,0.299,0.125v-0.016v-0.004c0.41,0.158,0.826,0.279,1.243,0.408c0.781,0.244,1.578,0.449,2.382,0.609
		c0.165,0.035,0.327,0.074,0.492,0.1c0.494,0.09,0.994,0.17,1.495,0.23c1.46,0.184,2.946,0.279,4.459,0.279
		c18.054,0,32.743-14.68,32.797-32.713c0-0.03,0.006-0.064,0.006-0.1c0-18.089-14.715-32.826-32.803-32.826
		C65.145,42.811,57.081,46.982,51.167,52.424z M72.604,104.844h-8.42c-3.482-1.277-6.688-3.195-9.479-5.117h17.899V104.844z
		 M72.604,59.739h-2.526c-0.741,0.747-1.623,1.608-2.619,2.562h5.145v5.435h-9.906c-0.572,0.854-1.086,1.705-1.518,2.562h11.424
		v5.12H59.233c-0.2,0.773-0.35,1.517-0.47,2.236h13.84v5.119H58.407c0.01,0.295,0.015,0.623,0.033,0.854
		c0.032,0.439,0.062,1.039,0.075,1.703h14.09v4.479H58.122c-0.209,0.877-0.529,1.656-0.986,2.24h15.468v5.123H56.337l-0.025,0.131
		l-0.267-0.131h-1.328l-0.138,0.195l-0.064-0.195h-2.279c-1.565-1.602-2.956-3.52-4.147-5.123h4.279
		c-0.212-0.125-0.392-0.193-0.617-0.35c-0.751-0.523-1.326-1.193-1.86-1.891h-3.076c-0.736-1.594-1.366-2.871-1.867-4.479h3.008
		c-0.172-0.83-0.332-1.664-0.377-2.557h-3.26c-0.402-1.604-0.669-3.521-0.771-5.119h4.356c0.112-0.748,0.207-1.486,0.372-2.236
		h-4.773c0.03-1.603,0.215-3.52,0.542-5.12h5.759c0.319-0.876,0.639-1.738,0.999-2.562h-6.231c0.537-1.917,1.268-3.839,2.167-5.435
		h7.042c0.592-0.906,1.191-1.763,1.825-2.562h-7.609c1.171-1.6,2.551-3.518,4.099-5.118h8.538c1.425-1.116,2.816-1.92,4.156-2.562
		H54.525c2.721-1.917,5.834-3.839,9.224-5.118h8.855v4.182l0.861,0.412l0.103,0.287l-0.035-0.629l0.989-1.448v-2.804h9.273
		c3.523,1.218,6.873,2.878,9.752,5.118H77.135l0.213,0.127l-0.999,0.602l1.229,0.747l-3.635-0.722l0.464,1.258l-0.813-0.392
		c0.262,0.971-0.055,1.939-0.989,3.213V59.739z M104.523,77.652c-0.103,1.598-0.369,3.516-0.773,5.119h-3.842
		c-0.235,0.873-0.473,1.732-0.75,2.557h3.965c-0.502,1.607-1.131,2.885-1.867,4.479h-3.967c-0.369,0.758-0.722,1.541-1.123,2.24
		h3.816c-1.191,1.604-2.581,3.521-4.151,5.123h-3.355c-0.831,0.949-1.67,1.803-2.521,2.557h3.413
		c-2.791,1.922-5.996,3.84-9.479,5.117h-6.358l-0.993,1.787l-0.415-1.627l-1.003,0.096l0.095-0.256h-0.691v-1.572l-0.292-0.141
		l0.292-0.213v-0.795l-0.644-0.314l0.644,0.07v-2.152h3.23c0.162-0.715,0.6-1.543,1.303-2.557h-4.533v-5.123h8.692
		c0.382-0.443,0.744-0.863,1.169-1.352c0.252-0.291,0.424-0.59,0.658-0.889h-10.52v-4.479h13.354
		c0.414-0.865,0.764-1.713,1.061-2.557H74.521v-5.119h15.657c0.103-0.777,0.185-1.531,0.218-2.236H74.521v-5.12h15.638
		c-0.011-0.065-0.021-0.165-0.03-0.225c-0.098-0.571-0.215-1.405-0.295-2.336H74.521V62.3h15.77
		c0.228-0.579,0.518-1.094,0.943-1.436l-0.111-0.24l0.342-0.225l-1.199-0.662H74.521v-5.118h21.432
		c1.6,1.653,2.898,3.195,4.121,5.118h-5.951l0.245,0.16l-0.152,0.689c0.542,0.175,1.144,0.442,1.819,0.824
		c0.415,0.234,0.697,0.599,1.057,0.889h4.241c0.899,1.595,1.63,3.517,2.167,5.435h-2.998c0.232,0.826,0.437,1.66,0.551,2.562h2.969
		c0.332,1.6,0.518,3.517,0.547,5.12h-3.415c-0.052,0.75-0.098,1.482-0.197,2.236H104.523z"/>
	<path fill="#8E1F1E" d="M73.593,53.68l0.813,0.392l-0.464-1.258l3.635,0.722l-1.229-0.747l0.999-0.602l-0.213-0.127l-1.094-0.656
		l0.605-1.258H75.64l-0.262-1.655l-0.856,1.256l-0.989,1.448l0.035,0.629l-0.103-0.287l-0.861-0.412l-0.018-0.007l-0.327,0.389
		c-1.286-1.271-4.152-1.036-7.47,0.554c-1.34,0.642-2.731,1.446-4.156,2.562c-1.715,1.34-3.415,3.088-5.028,5.118
		c-0.634,0.799-1.233,1.655-1.825,2.562c-0.562,0.858-1.141,1.685-1.65,2.641c-0.462,0.866-0.901,1.82-1.328,2.793
		c-0.359,0.824-0.679,1.685-0.999,2.562c-0.604,1.66-1.144,3.37-1.528,5.12c-0.165,0.75-0.26,1.488-0.372,2.236
		c-0.267,1.754-0.412,3.48-0.325,5.119c0.045,0.893,0.205,1.727,0.377,2.557c0.352,1.688,0.963,3.209,1.935,4.479
		c0.534,0.697,1.108,1.367,1.86,1.891c0.225,0.156,0.404,0.225,0.617,0.35c0.384,0.236,0.784,0.494,1.123,0.635l-0.22,0.68
		l0.821,0.648l-0.634,3.102l0.671-1.064l0.385,1.123l0.064,0.195l0.138-0.195l0.342-0.479l0.986,0.479l0.267,0.131l0.025-0.131
		l0.287-1.512l1.964-0.91l-2.374-1.617l0.36-0.189l-0.093-0.25c0.25-0.17,0.459-0.395,0.654-0.645
		c0.457-0.584,0.776-1.363,0.986-2.24c0.35-1.459,0.417-3.121,0.392-4.479c-0.012-0.664-0.042-1.264-0.075-1.703
		c-0.018-0.23-0.022-0.559-0.033-0.854c-0.042-1.244,0.005-3.002,0.357-5.119c0.12-0.719,0.27-1.463,0.47-2.236
		c0.417-1.63,1.066-3.365,1.947-5.12c0.432-0.856,0.946-1.708,1.518-2.562c0.936-1.403,2.002-2.793,3.38-4.112
		c0.501-0.477,0.934-0.894,1.38-1.323c0.996-0.954,1.877-1.815,2.619-2.562c1.121-1.131,1.945-2.052,2.526-2.846
		C73.538,55.62,73.855,54.651,73.593,53.68z M50.525,75.556c-0.02,0.229-0.047,0.51-0.072,0.834
		c-0.02,0.324-0.075,0.678-0.087,1.072c-0.002,0.061-0.007,0.131-0.01,0.189c-0.013,0.346-0.03,0.699-0.055,1.084
		c-0.042,0.445-0.01,0.92-0.025,1.414c0,0.238-0.007,0.488-0.007,0.738s0.027,0.5,0.038,0.758c0.015,0.371,0.05,0.75,0.09,1.125
		c0.012,0.139,0.007,0.279,0.032,0.418l0.083,0.766c0.035,0.258,0.097,0.504,0.142,0.748c0.047,0.209,0.08,0.42,0.13,0.625
		c0.01,0.039,0.013,0.078,0.025,0.113c0.065,0.24,0.132,0.48,0.192,0.709c0.052,0.234,0.155,0.449,0.225,0.67
		c0.083,0.215,0.14,0.439,0.242,0.635c0.182,0.404,0.352,0.783,0.552,1.117c0.045,0.086,0.092,0.17,0.137,0.25
		c0.052,0.074,0.097,0.15,0.15,0.225c0.102,0.145,0.182,0.289,0.279,0.414c0.103,0.125,0.19,0.24,0.275,0.346l0.002,0.004
		c0.092,0.105,0.172,0.199,0.25,0.285c0.155,0.164,0.282,0.299,0.379,0.375c0.093,0.084,0.147,0.123,0.147,0.123
		s-0.06-0.02-0.175-0.084c-0.112-0.061-0.27-0.145-0.459-0.289c-0.097-0.076-0.2-0.15-0.312-0.234
		c-0.06-0.061-0.127-0.121-0.192-0.18c-0.05-0.041-0.095-0.086-0.15-0.135c-0.127-0.105-0.235-0.246-0.362-0.385
		c-0.135-0.131-0.252-0.285-0.369-0.449c-0.117-0.17-0.255-0.33-0.367-0.52s-0.229-0.391-0.344-0.594
		c-0.127-0.201-0.208-0.426-0.314-0.645c-0.103-0.225-0.215-0.449-0.287-0.695c-0.115-0.338-0.212-0.697-0.307-1.057
		c-0.04-0.156-0.105-0.295-0.132-0.455c-0.058-0.26-0.123-0.525-0.17-0.789l-0.103-0.805c-0.025-0.168-0.017-0.338-0.03-0.508
		c-0.027-0.365-0.058-0.734-0.067-1.094c-0.01-0.27-0.025-0.535-0.01-0.789c0.015-0.26,0.035-0.52,0.052-0.77
		c0.035-0.498,0.055-0.982,0.142-1.438c0.055-0.369,0.112-0.699,0.172-1.029c0.015-0.078,0.027-0.174,0.042-0.248
		c0.05-0.4,0.165-0.75,0.24-1.068c0.087-0.311,0.165-0.585,0.225-0.81c0.013-0.05,0.02-0.07,0.033-0.11
		c0.102-0.359,0.177-0.589,0.177-0.589s-0.012,0.23-0.037,0.589C50.531,75.466,50.531,75.496,50.525,75.556z"/>
	<path fill="#8E1F1E" d="M101.053,70.296c-0.114-0.901-0.318-1.735-0.551-2.562c-0.632-2.224-1.74-4.087-3.41-5.435
		c-0.359-0.29-0.642-0.654-1.057-0.889c-0.676-0.382-1.277-0.649-1.819-0.824l0.152-0.689l-0.245-0.16l-0.634-0.412l0.342-3.146
		l-0.566,1.121l-0.574-1.263l-0.415,0.709l-1.303-0.489l-0.152,1.67l-1.877,1.081l1.322,0.729l1.199,0.662l-0.342,0.225l0.111,0.24
		c-0.426,0.342-0.716,0.856-0.943,1.436c-0.596,1.528-0.611,3.655-0.457,5.435c0.08,0.931,0.197,1.765,0.295,2.336
		c0.01,0.06,0.02,0.16,0.03,0.225c0.172,1.098,0.345,2.893,0.237,5.12c-0.033,0.705-0.115,1.458-0.218,2.236
		c-0.212,1.604-0.616,3.326-1.243,5.119c-0.297,0.844-0.646,1.691-1.061,2.557c-0.729,1.502-1.666,3.004-2.834,4.479
		c-0.234,0.299-0.406,0.598-0.658,0.889c-0.425,0.488-0.787,0.908-1.169,1.352c-1.885,2.182-3.258,3.83-4.159,5.123
		c-0.703,1.014-1.141,1.842-1.303,2.557c-0.127,0.564-0.105,1.074,0.077,1.572l-0.849-0.314l0.586,1.203l-3.045-0.309l-0.644-0.07
		l0.644,0.314l0.644,0.314l-0.644,0.48l-0.292,0.213l0.292,0.141l1.083,0.52l-0.392,1.053l-0.095,0.256l1.003-0.096l0.415,1.627
		l0.993-1.787l0.597-1.078l-0.103-0.623l0.133,0.273l0.914,0.34l0.291-0.42c1.863,1.529,6.242,0.215,10.593-3.609
		c0.852-0.754,1.69-1.607,2.521-2.557c1.304-1.482,2.56-3.16,3.69-5.123c0.401-0.699,0.754-1.482,1.123-2.24
		c0.281-0.58,0.604-1.1,0.863-1.719c0.362-0.863,0.689-1.807,1.006-2.76c0.277-0.824,0.515-1.684,0.75-2.557
		c0.443-1.668,0.812-3.381,1.048-5.119c0.1-0.754,0.146-1.486,0.197-2.236C101.275,73.649,101.264,71.926,101.053,70.296z
		 M98.787,78.102c0,0-0.008-0.189-0.016-0.449c-0.002-0.094-0.005-0.158-0.008-0.283c-0.004-0.234-0.004-0.516-0.01-0.84
		c-0.005-0.324,0.01-0.678-0.015-1.078c0-0.015,0-0.025-0.003-0.035c-0.018-0.39-0.037-0.799-0.053-1.233
		c0.006-0.449-0.066-0.921-0.097-1.405c-0.022-0.245-0.042-0.492-0.067-0.747c-0.025-0.245-0.077-0.497-0.103-0.747
		c-0.048-0.33-0.112-0.659-0.172-0.988c-0.032-0.177-0.048-0.36-0.093-0.534l-0.16-0.759c-0.059-0.25-0.142-0.489-0.214-0.736
		c-0.058-0.175-0.107-0.354-0.163-0.532c-0.02-0.06-0.034-0.125-0.057-0.182c-0.088-0.23-0.175-0.467-0.255-0.687
		c-0.077-0.23-0.194-0.435-0.287-0.649c-0.103-0.205-0.18-0.424-0.302-0.606c-0.215-0.384-0.42-0.754-0.649-1.059
		c-0.058-0.082-0.107-0.16-0.162-0.242c-0.058-0.065-0.12-0.137-0.17-0.205c-0.112-0.137-0.21-0.279-0.321-0.387
		c-0.107-0.118-0.211-0.225-0.303-0.327c-0.103-0.092-0.195-0.18-0.277-0.262c-0.172-0.147-0.309-0.265-0.412-0.337
		c-0.097-0.072-0.154-0.107-0.154-0.107s0.062,0.02,0.18,0.067c0.112,0.05,0.279,0.127,0.484,0.245
		c0.098,0.067,0.209,0.132,0.334,0.21c0.113,0.087,0.235,0.18,0.367,0.277c0.133,0.095,0.255,0.225,0.395,0.347
		c0.143,0.122,0.279,0.259,0.407,0.419c0.135,0.152,0.287,0.307,0.419,0.479c0.131,0.18,0.263,0.37,0.4,0.56
		c0.137,0.187,0.239,0.402,0.374,0.611c0.122,0.215,0.255,0.43,0.347,0.667c0.165,0.375,0.322,0.767,0.462,1.168
		c0.035,0.1,0.087,0.19,0.114,0.292c0.078,0.257,0.17,0.512,0.242,0.774l0.178,0.792c0.058,0.232,0.075,0.469,0.109,0.704
		c0.045,0.297,0.104,0.591,0.138,0.886c0.03,0.259,0.07,0.521,0.08,0.781c0.01,0.262,0.018,0.517,0.022,0.766
		c0.016,0.502,0.035,0.994-0.005,1.448c-0.024,0.439-0.06,0.849-0.087,1.238c-0.003,0.015-0.003,0.04-0.006,0.055
		c-0.021,0.399-0.098,0.763-0.149,1.083c-0.05,0.32-0.103,0.6-0.143,0.828c-0.022,0.115-0.034,0.18-0.052,0.27
		C98.824,77.912,98.787,78.102,98.787,78.102z"/>
</g>
</svg>
