<?xml version="1.0" encoding="utf-8"?>
<!-- Generator: Adobe Illustrator 18.1.0, SVG Export Plug-In . SVG Version: 6.00 Build 0)  -->
<svg version="1.1" id="Layer_1" xmlns="http://www.w3.org/2000/svg" xmlns:xlink="http://www.w3.org/1999/xlink" x="0px" y="0px"
	 viewBox="0 0 150 150" enable-background="new 0 0 150 150" xml:space="preserve">
<g>
	<path fill="#1C3E71" d="M28.4,123.9h3c3.6,0,5.8-0.2,6.6-0.7c1.3-0.7,2.3-1.7,3-3.2c0.5-1,0.8-3.2,0.8-6.6V39.4
		c0-3.4-0.3-5.6-1-6.7c-0.7-1.1-1.8-2-3.4-2.6c-0.4-0.2-1.4-0.3-2.9-0.4c-0.9,0.9-1.9,1.7-2.8,2.6C1,63-4.6,107.2,19.2,131
		c20.3,20.3,55.5,19.2,84.5-0.7H28.4V123.9z"/>
	<path fill="#6ABC45" d="M129.5,104.7c20.1-29,21.4-64.5,0.9-84.9C110-0.6,74.7,0.6,45.6,20.7H24.1v6.5c1.6,0,3,0,4.2,0.1V23h86.3
		l10,28.2l-6.7,2.5c-1.7-4.6-3.5-8.2-5.5-10.9c-2-2.6-4.4-4.9-7.1-6.7c-2.8-1.8-5.6-3.1-8.4-3.7c-2.8-0.6-7.9-0.9-15.3-0.9H55.9
		v39.3h12.8c4.7,0,8.3-0.8,10.7-2.4c2.4-1.6,4.1-3.6,5-6c0.7-1.8,1.1-4.9,1.1-9.4v-1.8H93v47.1h-7.5v-4.1c0-3.6-0.3-6.2-0.8-7.8
		c-0.5-1.6-1.5-3.1-2.9-4.5c-1.4-1.4-3-2.4-4.6-2.9c-1.6-0.5-4.5-0.8-8.4-0.8H55.9v34.9c0,3.6,0.2,5.8,0.5,6.6
		c0.3,0.8,0.9,1.4,1.6,1.7c0.8,0.4,2.8,0.5,6.2,0.5h15.9c8.9,0,15.8-1.1,20.8-3.2c5-2.2,9.4-5.5,13.2-9.9c3-3.5,5.9-8.4,8.6-14.7
		l6.9,2.5L118.4,129h2L129.5,104.7z"/>
</g>
</svg>
