<?xml version="1.0" encoding="utf-8"?>
<!-- Generator: Adobe Illustrator 18.1.0, SVG Export Plug-In . SVG Version: 6.00 Build 0)  -->
<svg version="1.0" id="Layer_1" xmlns="http://www.w3.org/2000/svg" xmlns:xlink="http://www.w3.org/1999/xlink" x="0px" y="0px"
	 viewBox="0 0 150 150" enable-background="new 0 0 150 150" xml:space="preserve">
<path fill="#9DD6C9" d="M96,16.4c0,0,0-0.1,0.1-0.1c-0.2,0.2-0.3,0.3-0.5,0.5C95.8,16.7,95.9,16.6,96,16.4z"/>
<g>
	<polygon fill="#E8E976" points="122.5,75.7 123.5,81.5 129.4,82.4 124.2,85.2 125.2,91 120.9,86.9 115.7,89.7 118.3,84.3 114,80.2 
		119.9,81 	"/>
	<polygon fill="#EC1464" points="109.7,26.2 106.3,31 109.8,35.8 104.2,34 100.8,38.9 100.7,33 95,31.2 100.6,29.3 100.5,23.4 
		104.1,28.1 	"/>
	<polygon fill="#E8E976" points="64.1,9.6 62.4,12 64.2,14.3 61.4,13.5 59.7,15.9 59.6,13 56.9,12.1 59.6,11.2 59.6,8.2 61.3,10.6 	
		"/>
	<polygon fill="#EC1464" points="54.5,36.2 52.8,38.6 54.5,40.9 51.8,40.1 50.1,42.5 50,39.6 47.2,38.7 50,37.8 50,34.8 51.7,37.2 	
		"/>
	<g>
		<path fill="none" d="M63.9,117.9c4.6,0.8-1.2-1.9-1.2-1.9c-4.5-2.1-8.3-4-11.5-5.8l-1.8,1.3C55.8,115,61.5,117.4,63.9,117.9z"/>
		<path fill="none" d="M66.4,107.5c5.3,0.7-1.3-2.1-1.3-2.1c-1.6-0.8-3-1.4-4.4-2.1l-2.6,1.9C61.8,106.5,64.7,107.2,66.4,107.5z"/>
		<path fill="none" d="M74.5,96.9c4.6,1,7.7,1.4,7.7,1.4c-2.5-2.4-5.1-3.9-7.2-5.4L70.8,96C72,96.4,73.3,96.7,74.5,96.9z"/>
		<path fill="none" d="M57.4,122.9c4,0.6-1-1.6-1-1.6c-5-2.3-9-4.3-12.2-6l-1.7,1.3C48.5,119.8,55.3,122.6,57.4,122.9z"/>
		<path fill="#E8E976" d="M75,93c-0.8-0.6-1.5-1.1-2.1-1.8c-3.4-3.5-7.2-6.9-6.5-9.2c2.5-7.3,9-4.3,10.7-2.2c2.6,3.9,5.8,6.4,8.8,8
			c3.8,2.7,8.5,5.6,14.4,8.4c0.8,0.4,1.6,0.9,2.3,1.3l-6.5-20l33.6-24.4H88.3L75.5,13.5L62.6,53.1H21l33.7,24.4l-3.6,10.9
			c6.2,3.4,13.5,6,19.6,7.6L75,93z"/>
		<path fill="#EC1464" d="M102.7,97.5c-0.8-0.4-1.5-0.9-2.3-1.3c-6-2.8-10.6-5.7-14.4-8.4c-3.1-1.6-6.2-4.1-8.8-8
			c-1.8-2.1-8.3-5.1-10.7,2.2c-0.8,2.4,3.1,5.7,6.5,9.2c0.6,0.6,1.4,1.2,2.1,1.8c2.1,1.5,4.7,3,7.2,5.4c0,0-3.1-0.4-7.7-1.4
			c-1.2-0.3-2.4-0.6-3.7-0.9c-6.2-1.6-13.4-4.2-19.6-7.6c-4.4-2.4-8.2-5.2-10.8-8.4c-1.9-2.4-5.7-4.7-6.8-1.9
			c-0.7,1.8-0.9,4.1,0.1,7.5c0,0,0.9,1.3,1.6,2.2c3.3,4.2,5.8,6,12.9,9.5c3.1,1.5,7.2,3.4,12.6,6c1.4,0.7,2.8,1.3,4.4,2.1
			c0,0,6.6,2.8,1.3,2.1c-1.7-0.2-4.6-0.9-8.3-2.3c-3.1-1.2-6.8-2.9-10.8-5.2c-4-2.3-8.3-5.2-12.7-9c-7.6,1.8-3.7,6.2,0.6,9.1
			l1.6,1.1c0,0,2.5,2.1,8.3,5.6c1.7,1,3.7,2.2,6.1,3.4c3.2,1.7,7,3.6,11.5,5.8c0,0,5.8,2.7,1.2,1.9c-2.4-0.4-8.2-2.8-14.5-6.3
			c-1.6-0.9-3.2-1.8-4.9-2.9c-3.4-2.1-6.7-4.4-9.7-6.9C28,105.2,34,109,38.6,112c1.1,0.7,2.6,1.5,4.1,2.4c0.5,0.3,1,0.6,1.6,0.9
			c3.2,1.8,7.1,3.8,12.2,6c0,0,5,2.3,1,1.6c-2.1-0.4-8.9-3.1-14.9-6.4c-0.2-0.1-0.3-0.2-0.5-0.3c-0.6-0.4-1.3-0.7-1.9-1.1
			c-11.1,0,18.1,19.2,41.1,19.3c31.9,0.2,35.4,7.3,35.4,7.3S129,112,102.7,97.5z"/>
	</g>
</g>
</svg>
