<?xml version="1.0" encoding="utf-8"?>
<!-- Generator: Adobe Illustrator 18.1.0, SVG Export Plug-In . SVG Version: 6.00 Build 0)  -->
<svg version="1.1" id="Layer_1" xmlns="http://www.w3.org/2000/svg" xmlns:xlink="http://www.w3.org/1999/xlink" x="0px" y="0px"
	 viewBox="0 0 2000 2000" enable-background="new 0 0 2000 2000" xml:space="preserve">
<g>
	<path fill="none" d="M1341.8,1290c-3.5,21.6-7.4,42.1-11.6,61.6c12.9-16.1,42.6-31.9,81.9-39.6c43.5-8.5,62-32.3,64.4-55
		c5.4-51.2-55.2-71.1-102-39.7c-15.5,10.4-21.6-4.1-14.2-8.9c61.6-40,138.8-22.4,135.6,50.5c-1.4,31.1-35,58.7-65.9,64.5
		c-64.8,12-85.6,30.6-89.2,39.3c-2.3,5.7-10.2,7.8-14.3,5.5c-5.3,22.5-11.2,43.4-17.5,63c18.1-27.8,49.2-54,116.5-67.1
		c88.7-17.4,126.5-65.9,131.4-112.2c10.3-97.8-97.3-139.7-189.6-92c-3.3,6.1-7,12.1-11.4,18C1349,1236.4,1344.1,1274,1341.8,1290z"
		/>
	<path fill="#633C20" d="M811.3,189.2c13.6,6,69.9,12.7,73.9-41.7c0,0,43.5,17.5,65.6,115.9c13.6,176.9,13.3,362.7-17.9,529.3
		c7.6,2,16.6,1,25.2,1.3c14.2-164.9,21.9-324.9,16.6-487.9c-1.5-66.1-2.6-136.8-41.7-189.4c-17.2-20.5-35.4-42.1-60.9-49
		C780.2,55.4,741.8,147.3,811.3,189.2z"/>
	<path fill="#633C20" d="M759.9,712.8c36.8-21.5,60.9,56,60.9,56c6.4-74.9-51.4-97.3-89.4-74.4c-50.6,30.4-16.9,74.1,39,79
		c-5.6-8.6-17.6-16.2-22.5-26.2C741.7,734.7,748,721.1,759.9,712.8z"/>
	<path fill="#633C20" d="M791.1,570.7c23.9,34.5,39.6,72.3,53.2,111C863.5,736.6,860,788,860,788l35.8,1
		c-10.9-115.9-70.5-212-119.2-312.3c-8-32.8-13.9-67.6-12.9-102.7c0,0,13.3,11.9,21.5,17.9c35.7,23.5,112.5,7.8,50-88.1
		c-63.2-60.1-190.3-24.7-149,111.9C709.6,472.4,756,519.4,791.1,570.7z"/>
	<path fill="#633C20" d="M1088.3,694.3c-27.3,17.1-30.3,56.1-36.2,86.4l7.3-2.3c3-16.9,17.2-45.7,32.1-40.7
		c24,36.4,57,15.7,65.6-16.6C1161.5,678.8,1119.2,674.9,1088.3,694.3z"/>
	<path fill="#633C20" d="M1044.8,496.9c32.4-80.2,139.8-99.6,181.5-20.2c14.5,56.6,0.7,109.5-52.8,122.6
		c-27.9,6.8-55.6-7.6-61.7-37.9c-5.6-20.5,8-40.7,21.5-53.7c-28.7-1-59.1,53.9-31.7,91.5c31.4,43.1,122.8,46.1,155.6-45.2
		c16.1-59.4,0.9-99.7-26.6-124.4c-65.4-58.7-197.2-29-209.6,76.8c-11.7,99-11.1,195.2-28.4,294.3c10.3-2.3,26.2,0.7,34.4-7
		C1032.2,690,1014,594.6,1044.8,496.9z"/>
	<path fill="#633C20" d="M1329.2,1160.8c-6.3,4.1-9.3,10.1-8.6,14.3c3.5-4.8,6.6-9.7,9.4-14.8
		C1329.7,1160.4,1329.4,1160.6,1329.2,1160.8z"/>
	<path fill="#633C20" d="M1378,1135.2c-2.6,8.3-6.2,16.5-10.7,24.7c92.2-47.7,199.9-5.8,189.6,92c-4.9,46.3-42.6,94.9-131.4,112.2
		c-67.3,13.2-98.5,39.3-116.5,67.1c-5.5,16.9-11.3,33-17.5,47.8c-0.3,0.8-0.7,1.6-1.1,2.4c3.3,3.4,11.6-1.9,16.2-13
		c7.3-17.9,23.1-56.6,155.4-81.1c63.1-11.7,122.7-70.4,125.5-133.9C1592.1,1148.9,1494.4,1088.1,1378,1135.2z"/>
	<path fill="#633C20" d="M1340.8,1362.6c3.6-8.8,24.3-27.3,89.2-39.3c30.9-5.7,64.6-33.4,65.9-64.5c3.2-72.9-74-90.4-135.6-50.5
		c-7.4,4.8-1.3,19.3,14.2,8.9c46.8-31.4,107.4-11.5,102,39.7c-2.4,22.7-20.9,46.5-64.4,55c-39.3,7.7-69,23.5-81.9,39.6
		c-1.2,5.6-2.4,11.2-3.7,16.6C1330.6,1370.5,1338.5,1368.3,1340.8,1362.6z"/>
	<path fill="#633C20" d="M1389.9,1513.3c-37.3-26.5-71.3-26.2-102.3,0.6c70,47.7,103,92.2,98.8,133.7c-4.6,41.2-15.4,74.9-32,100.7
		c-17,25.5-77.2,49-180.2,71c-103.3,21.6-205,12.7-305.4-26.2c-99.7-39.6-188-97.1-264.2-172.7c-73.6-72.9-130.1-156.3-170.4-250.5
		l-6.5-7.5c-2.9,1.3-4.6,2.6-4.6,4.3c2,78.8,31.7,153.3,89.3,223.7c168.1,204.4,382.9,297.6,644.2,280.2
		c75.5-5.9,144.5-29.1,207.6-70c50.4-32.7,80.1-77.8,89.6-135C1464.4,1601.6,1443.2,1550.9,1389.9,1513.3z"/>
	<path fill="#9E5917" d="M1309,1431.2c6.3-19.6,12.2-40.5,17.5-63c1.3-5.4,2.5-11,3.7-16.6c4.2-19.5,8.2-40,11.6-61.6
		c2.3-16,7.2-53.6,14.1-112.2c4.4-5.9,8.1-12,11.4-18c4.5-8.1,8.1-16.3,10.7-24.7c1.2-4,2.3-7.9,3.1-11.9
		c11.4-57.2-16.7-114.4-84.7-171.7c-69-54.9-152.4-92.5-250.8-112.5c-123.3-25.2-235.8-18.3-337.5,20.3
		c-97.4,37.3-153,89.9-166.4,157.6c-9.6,45,26,88.6,106.2,131c-0.1-0.3-0.2-0.5-0.3-0.8c0.9,0.7,1.7,1.4,2.6,2.1
		c0,0,110.6-166.2,228.2-12.4c117.6,153.8,87.6-132.4,182-9.9c94.4,122.5,186.2-10.1,186.2-10.1c6-38-16.9-84.6-73.1-128.1
		c-55.3-42.8-139.7-78-237-91.8c-97.4-14-188.4-3.8-253.5,21.9c-44.7,17.7-75.2,41.1-91.7,66.2c-0.4-8.3,0.2-16.8,2-25.5
		c7.8-37.6,48.7-68.7,122.9-91.3c72.9-22.2,144.5-25.4,214.8-15.4h0l97.1,16.1c89.3,18,163.8,48.3,224,89.1
		c74.2,47.4,105.6,100.3,94.2,157.9c-3.2,15.7-8.8,30.4-16.4,44c-2.8,5.1-6,10.1-9.4,14.9c-13.9,19.3-32.6,36.4-56.2,51.2
		c-28.1,17.7-63.4,32.1-105.6,43.5c-102.3,27.5-214.8,28.8-338.1,3.9c-60.5-12.4-101.4-23.9-123.3-34.7
		c-29.8-15.4-70.3-45.8-121-90.9c51,86.3,136.4,141.6,255.7,165.5c76.2,15.7,157.3,16.7,242.6,3.3c71-11.4,133.4-32.4,187-62.1
		c-6.2,51-9.5,79.1-10.5,84.4c-9.5,63.1-22.2,112.8-38.3,148.8c-19.6,44.2-47.4,77.2-83.7,99.7c-39.6,24.5-92.2,38.6-157.9,42.2
		c-125.2,6.9-219.4-19-281.9-76.9c-54.9-51.3-86.7-104.6-95.5-159.9l-1.3,0.7c31,213.2,160.9,313.6,389.1,301.5
		c147.9-7.8,250.5-79,308.6-213.7c0.4-0.8,0.8-1.6,1.1-2.4C1297.7,1464.2,1303.5,1448.1,1309,1431.2z"/>
</g>
</svg>
