<?xml version="1.0" encoding="utf-8"?>
<!-- Generator: Adobe Illustrator 18.1.0, SVG Export Plug-In . SVG Version: 6.00 Build 0)  -->
<svg version="1.0" id="Layer_1" xmlns="http://www.w3.org/2000/svg" xmlns:xlink="http://www.w3.org/1999/xlink" x="0px" y="0px"
	 viewBox="0 0 150 150" enable-background="new 0 0 150 150" xml:space="preserve">
<path fill="#CA92C1" d="M160.8,246.4c-0.2-0.7-0.9-1.2-1.7-1c-0.7,0.2-1.1,0.8-1,1.5c0-0.6,0.4-1.1,1-1.2c0.7-0.2,1.3,0.2,1.5,0.9
	c0.1,0.6-0.1,1.1-0.6,1.4C160.6,247.7,161,247.1,160.8,246.4"/>
<path fill="#C64D9B" d="M159.8,248.5c-0.9,0.2-1.8-0.3-2-1.1c-0.2-0.8,0.2-1.6,0.9-2c-0.6,0.3-0.9,1-0.7,1.7c0.2,0.8,1.1,1.3,1.8,1
	c0.7-0.2,1.1-0.8,1.1-1.5C161.1,247.5,160.6,248.3,159.8,248.5"/>
<g>
	<path fill="#0697CC" d="M159.8,247.2L159.8,247.2C159.8,247.2,159.8,247.2,159.8,247.2z"/>
	<path fill="#0697CC" d="M159.7,246.9C159.7,246.9,159.7,246.9,159.7,246.9C159.7,246.9,159.7,246.9,159.7,246.9z"/>
	<path fill="#C64D9B" d="M159.8,247.2c0.3-0.1,0.4-0.4,0.4-0.4s-0.2,0-0.5,0c0,0,0,0,0,0c0,0,0,0,0,0c0-0.1,0.1-0.2,0.1-0.2
		s-0.1,0-0.1,0c0,0,0,0,0,0c0,0,0,0,0,0c0.1-0.3,0-0.6,0-0.6s-0.1,0-0.1,0.1c0-0.2-0.1-0.3-0.1-0.3s-0.4,0.5-0.4,1
		c0,0,0-0.1-0.1-0.1c0-0.1-0.1-0.1-0.3,0c-0.1,0-0.2,0.1-0.3,0.1c0.2,0,0.6,0.2,0.7,0.4c0,0,0,0,0,0c0,0.2-0.1,0.4-0.3,0.4
		c0.2,0,0.4-0.2,0.4-0.4c0,0,0,0,0-0.1c0,0,0-0.1,0-0.1C159.4,247.3,159.6,247.3,159.8,247.2C159.8,247.3,159.8,247.2,159.8,247.2
		L159.8,247.2"/>
</g>
<g>
	<polygon fill="#006380" points="75.8,103.9 71.8,100.5 67.1,102.9 63.8,98.8 58.7,100.3 56.2,95.6 50.9,96.2 50.1,93.7 40.8,137.4 
		60.4,119.1 70.9,143.8 78.7,107.3 77.7,102.5 	"/>
	<polygon fill="#BFB384" points="103.1,92.9 101.1,97.8 95.9,96.9 93.1,101.4 88.1,99.5 84.6,103.4 80,100.8 77.7,102.5 78.7,107.3 
		86.7,144.2 97.2,119.5 116.8,137.8 107.1,92.9 	"/>
	<path fill="#006380" d="M121.8,58.4l3.2-4l-3.3-3.9l2.4-4.5l-4-3.3l1.6-4.9l-4.5-2.5l0.7-5.1l-4.9-1.7l-0.3-5.1l-5.1-0.8l-1.2-5
		l-5.1,0.1l-2-4.7l-5,1l-2.9-4.3l-4.8,1.9l-3.6-3.7l-4.4,2.7l-4.2-3L70.8,11l-4.6-2.2l-3.1,4.1l-5-1.3l-2.3,4.6l-5.1-0.4l-1.5,4.9
		L44,21l-0.6,5.1l-5,1.4l0.3,5.1l-4.6,2.3l1.3,5l-4.1,3l2.1,4.7l-3.5,3.7l2.9,4.2L30,59.9l3.6,3.6l-2,4.7l4.2,2.9l-1.1,5l4.7,2.1
		l-0.2,5.1l5,1.3l0.7,5.1l5.1,0.3l0.8,2.4l0.8,2.5l5.1-0.6l2.5,4.5l4.9-1.5l3.2,4l4.6-2.3l3.9,3.4l1.8-1.4l2.3-1.7l4.4,2.6l3.5-3.8
		l4.8,1.8l2.7-4.4l5.1,0.9l1.9-4.8l3.9,0h1.3l1-5l5.1-0.9l0.1-5.1l4.8-1.8l-0.8-5.1l4.4-2.7l-1.7-4.9l3.9-3.4L121.8,58.4z
		 M100.9,27.3l1.1-3.5l1.1,3.5h3.7l-3,2.2L105,33l-3-2.2L99,33l1.1-3.5l-3-2.2H100.9z M76.9,17.3l1.1-3.5l1.1,3.5H83l-3,2.2l1.1,3.5
		l-3-2.2l-3,2.2l1.1-3.5l-3-2.2H76.9z M51.4,26.9l1.1-3.5l1.1,3.5h3.7l-3,2.2l1.1,3.5l-3-2.2l-3,2.2l1.1-3.5l-3-2.2H51.4z
		 M43.4,56.9l-3-2.2l-3,2.2l1.1-3.5l-3-2.2h3.7l1.1-3.5l1.2,3.5h3.7l-3,2.2L43.4,56.9z M52.8,82.1l-3-2.2l-3,2.2l1.1-3.5l-3-2.2h3.7
		l1.1-3.5l1.1,3.5h3.7l-3,2.2L52.8,82.1z M81.1,96l-3-2.2l-3,2.2l1.1-3.5l-3-2.2h3.7l1.1-3.5l1.1,3.5H83l-3,2.2L81.1,96z M77.1,83.9
		c-15.8,0-28.5-12.8-28.5-28.5c0-15.8,12.8-28.5,28.5-28.5c15.8,0,28.5,12.8,28.5,28.5C105.6,71.1,92.9,83.9,77.1,83.9z M106.7,79.8
		l1.1,3.5l-3-2.2l-3,2.2l1.1-3.5l-3-2.2h3.7l1.1-3.5l1.1,3.5h3.7L106.7,79.8z M114.9,53.4l1.2,3.5l-3-2.2l-3,2.2l1.1-3.5l-3-2.2h3.7
		l1.1-3.5l1.2,3.5h3.7L114.9,53.4z"/>
	<path fill="#BFB384" d="M68.1,51.8c-1.7-3-4.8-4.5-7-3.3c-2.1,1.2-2.5,4.6-0.8,7.7c1.7,3,4.8,4.5,7,3.3
		C69.4,58.3,69.8,54.9,68.1,51.8z"/>
	<path fill="#BFB384" d="M74,51.1c2.1-1.2,2.5-4.6,0.8-7.7c-1.7-3-4.8-4.5-7-3.3c-2.1,1.2-2.5,4.7-0.8,7.7
		C68.7,50.9,71.8,52.4,74,51.1z"/>
	<path fill="#BFB384" d="M84.9,60.5c0.1-0.4,0.1-0.8,0.1-1.2c-0.1-3.4-3.8-6.9-7.3-6.8c-3.4,0.1-6.9,3.8-6.8,7.3
		c0,0.4,0.1,0.8,0.1,1.1c-2.2,0.2-3.1,2.9-3,5.1c0.1,2.4,2,4.2,4.4,4.1c2.1-0.1,5.3-1.6,5.8-1.8c2.6,1.2,3.8,1.4,5.9,1.4
		c2.3-0.1,4.2-2,4.1-4.4C88,63.2,87,60.7,84.9,60.5z"/>
	<path fill="#BFB384" d="M92.9,47.5c-2.2-1.1-5.2,0.6-6.7,3.8c-1.5,3.1-0.9,6.5,1.3,7.6c2.2,1.1,5.2-0.6,6.7-3.7
		C95.7,52,95.2,48.6,92.9,47.5z"/>
	<path fill="#BFB384" d="M80.3,50.9c2.2,1.1,5.2-0.6,6.7-3.8c1.5-3.1,0.9-6.5-1.3-7.6c-2.2-1.1-5.2,0.6-6.7,3.8
		C77.5,46.5,78.1,49.9,80.3,50.9z"/>
</g>
</svg>
