<?xml version="1.0" encoding="utf-8"?>
<!-- Generator: Adobe Illustrator 18.1.0, SVG Export Plug-In . SVG Version: 6.00 Build 0)  -->
<svg version="1.0" id="Layer_1" xmlns="http://www.w3.org/2000/svg" xmlns:xlink="http://www.w3.org/1999/xlink" x="0px" y="0px"
	 viewBox="0 0 150 150" enable-background="new 0 0 150 150" xml:space="preserve">
<g>
	<path fill="#2C3744" d="M109.2,29.9C108.3,15.9,93.7,4.7,75.6,4.7c-18,0-32.7,11.2-33.6,25.3H109.2z"/>
	<polygon fill="#CD9768" points="107.8,104.4 75.3,145.9 42.7,104.4 75.3,101.5 	"/>
	<path fill="#F9B67C" d="M76.2,134.4v-31.5l-32.5,2.9l25.1,32C70.8,136,73.4,134.7,76.2,134.4z"/>
	<polygon fill="#2C3744" points="92.1,124.7 75.2,146.2 58.7,125.1 75.4,123.4 	"/>
	<path fill="#FBBE15" d="M102.1,32.8h-9.2c-3.5,0-6.4,2.9-6.4,6.4v63.5c0,3.5,2.9,6.4,6.4,6.4h9.2c3.5,0,6.4-2.9,6.4-6.4V39.2
		C108.5,35.7,105.6,32.8,102.1,32.8z"/>
	<path fill="#2C3744" d="M57.8,70.6H49c-3.6,0-6.5,2.9-6.5,6.5V102c0,3.6,2.9,6.5,6.5,6.5h8.9c3.6,0,6.5-2.9,6.5-6.5V77.2
		C64.4,73.6,61.5,70.6,57.8,70.6z"/>
	<path fill="#E95434" d="M79.9,51.4H71c-3.6,0-6.5,2.9-6.5,6.5V102c0,3.6,2.9,6.5,6.5,6.5h8.9c3.6,0,6.5-2.9,6.5-6.5V57.9
		C86.4,54.3,83.5,51.4,79.9,51.4z"/>
</g>
</svg>
