<?xml version="1.0" encoding="utf-8"?>
<!-- Generator: Adobe Illustrator 18.1.0, SVG Export Plug-In . SVG Version: 6.00 Build 0)  -->
<svg version="1.1" id="Layer_1" xmlns="http://www.w3.org/2000/svg" xmlns:xlink="http://www.w3.org/1999/xlink" x="0px" y="0px"
	 viewBox="0 0 150 150" enable-background="new 0 0 150 150" xml:space="preserve">
<g>
	<path fill="none" d="M46.6,70.9c0.1-0.1,0.2-0.1,0.4-0.2c-0.1-0.2-0.5-0.6-0.9-1.3C46.1,69.8,46.3,70.3,46.6,70.9z"/>
	<path fill="none" d="M60.5,83.2c-1.6-3.8-2.2-5.9-4.6-7.9c-0.1-0.1-0.3-0.2-0.5-0.4c0.8,1.2,1.7,2.5,2.6,3.7
		C58.9,80,59.8,81.6,60.5,83.2z"/>
	<path fill="none" d="M71,116c-2.5-3.4-7.1-13.9-10.1-22.4c-1-2.9-2.3-5.3-3.7-7.3c2.2,5.6,4.4,14.6,6,19.5
		C64.7,110.2,68.3,114,71,116z"/>
	<path fill="none" d="M43.9,72.7c0,0-2.1,6.8,0.2,7c1.6,0.1,4.6-0.1,7.3,0.6c-1.9-1.4-3.7-2-4.7-2c-2.9,0-2-3.2-2-3.2
		c-0.1-0.7,0-1.5,0.2-2.2c-0.2-0.3-0.4-0.7-0.5-1.1C44.1,72.3,43.9,72.7,43.9,72.7z"/>
	<path fill="none" d="M117.2,74.1c1.4,2.6-1.5,7,0.6,13.9c0.4,1.3,0.6,2.4,0.7,3.5c0.1-3.7,0.1-7.2,0.1-9.4c0-6.6,1.2-6.8-0.4-8.9
		c-1.4-2-1.2-4.6-4.9-4.4c0.2,0.3,0.4,0.7,0.6,1.1c0.4,0.7,0.6,1.5,0.7,2.3C116,72.6,116.3,72.6,117.2,74.1z"/>
	<path fill="none" d="M62.9,88.3c-0.3-0.5-0.5-1-0.7-1.5C62.9,88.8,63.3,89.8,62.9,88.3z"/>
	<path fill="none" d="M65.6,71.8c0.6-0.2,1.1,0,1.7,0.4c0-0.2,0-0.3,0.1-0.5c0.6-2.9-3.1,0-3.1,0s-0.6-0.4-1.2-1
		c-1,2-1.8,6.4-2.1,8.5c0.3,0.9,0.7,1.8,1,2.8c0.2,0.5,0.4,1.2,0.7,2C62.8,79,64.1,72.2,65.6,71.8z"/>
	<path fill="none" d="M73.2,78.6c-0.2-0.5-0.3-1.1-0.3-1.8c0,0-0.8-0.3-1.6-0.1C71.9,77.2,72.5,77.8,73.2,78.6
		C73.1,78.5,73.2,78.5,73.2,78.6z"/>
	<path fill="none" d="M85.5,84.9c-0.2-0.1-0.4-0.2-0.7-0.3c1.7,1.3,3.6,2.8,5.1,4C89.9,87.8,89.3,86.4,85.5,84.9z"/>
	<path fill="#F4D9D7" d="M73.2,78.6C73.2,78.5,73.1,78.5,73.2,78.6c-0.7-0.7-1.3-1.4-1.8-2c-0.7,0.1-1.2,0.5-1.1,1.7
		c0,0-3.1-3.3-3-6.1c-0.6-0.4-1.1-0.6-1.7-0.4c-1.5,0.4-2.7,7.2-3,12.1c2,5,6.2,14.1,8.5,17.5c0.5,0.7,0.8,1.1,0.8,1.1
		c-0.2-0.2-0.5-0.6-0.8-1.1c-1.6-2.2-5.5-7.4-8.3-13.1c0.4,1.5,0.1,0.4-0.7-1.5c-0.6-1.3-1.1-2.5-1.6-3.6c-0.8-1.6-1.6-3.3-2.5-4.5
		c-0.9-1.3-1.8-2.6-2.6-3.7c-2.2-1.7-5.1-3.1-6.6-4.7c-0.7,0-1.3,0.1-1.8,0.3l0,0.1c0,0,0,0,0-0.1c-0.1,0.1-0.3,0.1-0.4,0.2
		c0.7,1.4,1.9,3.1,4.3,4.5c5,2.9,5.6,3.7,5.6,3.7s-3.5-2.7-6.6-2.9c-2-0.1-4-1.6-5-3.3c-0.3,0.7-0.3,1.5-0.2,2.2c0,0-0.9,3.2,2,3.2
		c1.1,0,2.8,0.6,4.7,2c1.1,0.3,2.2,0.7,3.1,1.4c0.9,0.7,1.8,2.4,2.7,4.7c1.4,2,2.7,4.5,3.7,7.3c3,8.5,7.6,19,10.1,22.4
		c0.6,0.4,1.2,0.8,1.7,1c1.4-1,2.1-0.1,1.3-6c-0.9-6.1-2-13.3-2.9-16.8c-0.9-3.5-1.7-8.7,0.3-11c1.5-1.7,3.5-1.5,3.3-2.6
		C74,80,73.5,79.3,73.2,78.6z"/>
	<path fill="#F4D9D7" d="M117.8,88.1c-2-7,0.9-11.3-0.6-13.9c-0.9-1.6-1.2-1.6-2.6-1.9c0.5,4.4-3.2,9.5-3.2,9.5l-1.2-1.2l0,1.4
		c-2.9,0-5.2-3.3-5.2-3.3v2.1c-5-1.4-5.2-4.3-3.9-7.5c1.4-3.3-4.7-6-9.6-7c-3.7-0.7-5-5.2-3.9-9.1c-0.4-0.6-0.4-1.9,0.4-3.9
		c3.2-8.2-2.4-9.3-2.4-9.3l1.4,3.8c0,0,2,0.9,0,0.9s-5.7-6.1-5.7-6.1c0,4.1,2.7,5.8,2.7,5.8c-6.3-3-5.6-10.1-5.3-12
		c-0.5,0.3-1,0.6-1.7,0.8c-5.4,2.3-7.7,4.6-6,6.2l-1.7-1.5c0,0-0.1,0.5-0.2,1.3l-0.3-0.3c0,0-0.2,26.8,10.3,22.2
		c0.4-0.2,0.7-0.3,1-0.5c1.3-0.3,2.9-0.9,4.5-2.4c0,0-1.6,2-4.1,3.3c2.5,1.3,4.6,3.8,3.5,6.6c-1.7,4.3-1.7,6.2,2.3,7.9
		c2.9,1.2,3.9,4.3,3.9,6.9c1.4,1.2,2.6,1.9,3.2,1.6c2-0.9,2.6-2.9,7-4.6c3.4-1.4,6.7-0.7,9-0.4c1.4-0.3,2.7-0.3,3.9,0
		c0,0-0.7,0-1.8,0.2c0.8,0.6,1.5,3.3,2,6.6c-0.3-3.2-0.6-5.9-0.6-5.9c0.6,2.5,0.8,5,0.8,7.5c0.5,4.5,0.5,9.6-0.6,11.7
		c-1.5,2.9-2,4.2-2,7.1c0.5,3,1.1,7.3,1,10.6c0,0.6,0,1.2-0.1,1.8c0.4,4.6,0.7,8.6,0.7,8.6s4.1,3.2,4.1-0.9c0-4.1,0.6,0.6,0.3-16.8
		c-0.2-10.8,0.9-15.4,1.2-19.1c0-1.1,0-2.2,0.1-3.3C118.4,90.5,118.2,89.4,117.8,88.1z"/>
	<path d="M63.2,105.7c-1.6-5-3.8-13.9-6-19.5c-0.9-2.3-1.8-4-2.7-4.7c-0.9-0.7-2-1.1-3.1-1.4c-2.7-0.7-5.7-0.4-7.3-0.6
		c-2.3-0.2-0.2-7-0.2-7s0.2-0.4,0.5-0.9c0.1,0.4,0.3,0.7,0.5,1.1c1,1.8,3,3.2,5,3.3c3.1,0.2,6.6,2.9,6.6,2.9s-0.6-0.8-5.6-3.7
		c-2.4-1.4-3.6-3.1-4.3-4.5c-0.3-0.6-0.4-1.1-0.5-1.5c0.5,0.7,0.8,1.2,0.9,1.3c0,0,0,0.1,0,0.1l0,0.1L43.9,55h-0.6
		c0,0,0.6-0.2,1.7-0.3c1.2-0.2-1.4-1.2-0.6-1.2c0.8,0,1.2-2,1.2-2s2.9-1.8,1.7-1.8c-1.2,0,1-2.1,1.5-2.3c0.6-0.2,3.1-1.7,3.9-2.1
		c0.8-0.4-1.9-1-0.6-1.4c1.4-0.4,1-2.7,1-2.7s0.6-2.7,1.9-3.5c1.4-0.8-1.9-0.2-1.9-0.2s-0.6-2.7-0.4-4.6c0.2-1.9,0,0-1,0
		c-1,0-1.5-0.2-1.4-1.5c0.2-1.4-0.8-1.9-1.5-1.4c-0.8,0.6-1.2,1.2-2.1,0.2c-1-1-0.4-1.5-1.7-1c-1.4,0.6-1.7,1.2-2.7-0.4
		c-1-1.5-1.2-0.4-1.4,0.4c-0.2,0.8-1.9,1-3.7,0.6c-1.7-0.4-1,0-1.9,2.3c-1,2.3-1.9,0-3.1-0.8c-1.2-0.8,0.4,1.5,0.2,2.7
		c-0.2,1.2-2.5-0.2-2.3,0.4c0.2,0.6,1.2,3.3,1.2,3.3s-1.4,0.2-0.2,1.2c1.2,1,0.4,1.4-1,2.1c-1.4,0.8,0,0,1,0.6
		c1,0.6,1.5,0.2,0.2,1.5c-1.4,1.4,1,1.5,1.5,1.7c0.6,0.2,1.5,0,0.8,1.7c-0.8,1.7,1.4,1.5,2.7,1.5c1.4,0-0.4,0.8,0.2,1.4
		c0.6,0.6,1,0.6,2.3,0.4c1.4-0.2-0.6,1.7-0.6,1.7s1.7,1.4,1.9,1.9c0.2,0.6,1-0.8,1-0.2c0,0.6,3.1,13,3.1,13l0.2,0.3
		c-0.3-0.1-0.6,0-0.6,0.4c0,1.2-1.9,5.6-1.9,5.6S40,77.9,40,80.2c0,2.3,0.8,2.5,4.3,1.9c3.5-0.6,8.7-0.8,9.3,2.3
		c0.6,3.1,8.7,22.6,12.2,28.8c3.5,6.2,8.3,7.2,10.2,5.8c1.9-1.4,2.5-9.5,1.2-12c-1.4-2.5-4.1-9.7-7-18c0,0,3.5,12.8,5.4,17.8
		c1.9,5,0.2,9.1-1.2,10.3c-0.3,0.3-1,0.2-1.8-0.2c-0.5-0.2-1.1-0.6-1.7-1C68.3,114,64.7,110.2,63.2,105.7z"/>
	<path d="M71.1,101.4c0.3,0.5,0.6,0.8,0.8,1.1C71.9,102.5,71.6,102.1,71.1,101.4z"/>
	<path d="M69.2,28.6c0,0,1.2-1.3,2.5-3C71,26.3,70.1,27.3,69.2,28.6z"/>
	<path d="M84.5,26.4c5.6,1.7,10.7,3.1,14.7,8.9c-0.1-2.5-0.6-6.3-2.9-9.2c-3.3-4.3-7.7-7.2-12-7.3c-2.8-0.1-6.6-0.4-8.2,1.7
		C77.7,22.3,80.7,25.2,84.5,26.4z"/>
	<path d="M94.8,101.9c0.4-5.8-3.3-10.1-10.2-9.9c-7,0.2-10.3,5.6-10.1,6.2l0.2,0.8c2.7,2.5,4.8,8.7,4.3,14.9
		c-0.6,6.2-1.4,10.4-0.8,14.3c0.6,3.9,11,4.8,10.1,3.3C87.2,129.9,94.4,107.7,94.8,101.9z"/>
	<path d="M109.4,83.3c-6,1.3-12.5,7.6-12.5,7.6c5.8-5.1,11.7-6.8,14.6-7.3c1.1-0.2,1.8-0.2,1.8-0.2C112.1,83,110.8,83,109.4,83.3z"
		/>
	<path d="M113.1,67.6l-0.3,0.5c-1.4-2.7-0.7-2.9-0.9-5.5c-0.2-3.1-0.8-4.1-3.5-6c-2.7-1.9-2.9-1.2-2.9-5c0-3.9,0.6-4.1-2.9-7.2
		c-3.5-3.1-3.5-5.6-3.5-6.8c0-0.4,0-1.2,0-2.4c-0.5-0.3-7.5-4.7-14.1-6.6c-6.8-1.9-12.8-2-15.8-0.1c-4.8,7-5,23.8-4.6,24.6
		c0.4,0.8-0.8,4.6-3.5,9.7c-1.7,3.2,0,6,1.5,7.5c-1.2,0.8-3.2,2.6-3.2,5.7c-0.9-1.5-1.9-2.5-3.4-3c-2.9-1-8.5-5-8.5-5
		c0,0.8,0.5,1.6,1.2,2.3c1.6,1.5,4.4,3,6.6,4.7c0.2,0.1,0.3,0.2,0.5,0.4c2.4,2,3,4.1,4.6,7.9c0.4,1,0.9,2.2,1.6,3.6
		c0.2,0.5,0.5,1,0.7,1.5c2.8,5.6,6.6,10.9,8.3,13.1c-2.3-3.4-6.5-12.5-8.5-17.5c-0.3-0.7-0.5-1.4-0.7-2c-0.3-1-0.7-1.9-1-2.8
		c0.3-2,1.1-6.4,2.1-8.5c0.7,0.7,1.2,1,1.2,1s3.7-2.9,3.1,0c0,0.2,0,0.3-0.1,0.5c-0.1,2.8,3,6.1,3,6.1c-0.1-1.2,0.5-1.6,1.1-1.7
		c0.7-0.1,1.6,0.1,1.6,0.1c0,0.7,0.1,1.3,0.3,1.8c0.3,0.8,0.8,1.4,1.4,1.9c0.6,0.5,1.4,0.9,2.2,1.3c-2.2,0.9-4.2,3.5-5.5,7.5
		c0,0,2.7-8,7.5-6.7c0.2,0.1,0.4,0.1,0.6,0.2c0.2,0.1,0.4,0.2,0.6,0.3c3.2,1.7,7,4.2,9.7,6c0,0,0,0.1-0.1,0.1c0,0,0,0,0.1-0.1
		c2.1,1.4,3.6,2.5,3.6,2.5s-1.5-1.3-3.5-3c0.1-0.6,0.2-1.2,0.2-2c0-2.5-1-5.6-3.9-6.9c-4.1-1.7-4.1-3.7-2.3-7.9
		c1.2-2.8-1-5.3-3.5-6.6c2.4-1.3,4.1-3.3,4.1-3.3c-1.6,1.5-3.2,2.1-4.5,2.4c-0.3,0.1-0.6,0.3-1,0.5c-10.5,4.7-10.3-22.2-10.3-22.2
		l0.3,0.3c0.1-0.8,0.2-1.3,0.2-1.3l1.7,1.5c-1.7-1.5,0.6-3.9,6-6.2c0.6-0.3,1.2-0.6,1.7-0.8c-0.3,2-0.9,9,5.3,12
		c0,0-2.7-1.7-2.7-5.8c0,0,3.7,6.1,5.7,6.1s0-0.9,0-0.9l-1.4-3.8c0,0,5.6,1.2,2.4,9.3c-0.8,2.1-0.8,3.3-0.4,3.9
		c-1.2,3.9,0.2,8.4,3.8,9.1c4.8,1,11,3.7,9.7,7c-1.4,3.3-1.1,6.2,3.9,7.5v-2.1c0,0,2.3,3.3,5.2,3.3l0.1-1.4l1.1,1.2
		c0,0,3.7-5.1,3.2-9.5c-0.1-0.8-0.3-1.6-0.7-2.3c-0.2-0.4-0.4-0.7-0.6-1.1c3.6-0.2,3.4,2.4,4.9,4.4c1.5,2.1,0.4,2.3,0.4,8.9
		c0,2.2,0,5.6-0.1,9.4c0,1.1-0.1,2.2-0.1,3.3c-0.1,6.6-0.3,13.4-0.3,15.4c0,3.5,0,20.2,0,20.2s0.5-1.7,0.5-5.8
		c0-4.1,1.4-11.7,1-14.8c-0.4-3.1,0.4-21.9,0.4-32.5C119.9,66.7,113.1,67.6,113.1,67.6z M84.8,84.6c0.2,0.1,0.4,0.2,0.7,0.3
		c3.8,1.5,4.5,3,4.4,3.8C88.4,87.4,86.6,85.9,84.8,84.6z"/>
	<path d="M113.5,100.9c0.4-1.5,0.4-4.9,0.2-8.2c-0.2,6.7-2.1,12.3-2.1,12.3S112.6,104.2,113.5,100.9z"/>
	<path d="M112.9,84.3c0,0,0.3,2.7,0.6,5.9c0.1,0.8,0.1,1.7,0.2,2.5c0-0.3,0-0.6,0-0.9C113.7,89.3,113.5,86.7,112.9,84.3z"/>
	<path d="M111.1,110.5c-0.2-1.3-0.5-2.4-0.6-3c1.5-3.8,2-6.3,2-7.8c0-2.3-2.3-9.7-12.2-5.8c0,0,0,5-2.7,11.2
		c-2.7,6.2-7.2,18.6-7.4,21.9c-0.2,3.3,0,4.4,1,4.6c1,0.2,6.6-0.4,7.9-1c1.4-0.6,1.5-2.3,1.4-3.7c-0.2-1.4,0.2-15.1,9.1-26.1l1-1.5
		c0,0-11.6,26.1-7.5,30.4c0,0-0.6-6,3.9-14.5c1.5-2.8,2.6-5.2,3.4-7.2c-0.3,6.7,1.6,25.8,1.6,25.8s0-5.6,0.1-10.8
		c0-0.6,0-1.2,0.1-1.8C112.3,117.9,111.7,113.6,111.1,110.5z"/>
	<path fill="#B85856" d="M85,28.7c6.7,1.9,13.7,6.3,14.1,6.6c0,0,0,0,0,0c0,0,0,0,0-0.1c-4.1-5.8-9.1-7.1-14.7-8.9
		c-3.8-1.2-6.7-4.1-8.3-6c-0.8-0.9-1.2-1.6-1.2-1.6c0,2.1-1.7,4.8-3.2,6.8c-1.3,1.7-2.5,3-2.5,3C72.3,26.7,78.2,26.8,85,28.7z"/>
	<path fill="#FFE18E" d="M124.3,54c-3.1-4.7-3.7-11.5-2.6-16.3c1-4.7,2.6-11-1.1-13.6c-3.7-2.6-1-4.7-7.9-8.9c-4.8-3-9.6-1.2-12,0
		c0,0,0,0-0.1,0l-11.5-4.2c0,0-21-0.5-26.8,0.5c-5.8,1-13.1,8.4-8.4,10c4.7,1.6,6.3,3.7,5.8,8.9c-0.5,5.2-1.1,18.4-3.7,20.5
		c-2.6,2.1-6.3,12.1-3.1,12.1s7.3-21.5,8.4-23.1c1.1-1.6-0.5-18.4,4.7-21.5c5.2-3.1,15.2-2.6,21.5-2.6c3.3,0,8.3,0.9,11.5,1.2
		c-0.3,3-1.4,15.3,3.2,16.7c5.2,1.6,5.8,5.8,5.8,9.4c0,3.7,8.4,12.1,8.9,15.2c0.5,3.1,3.7,8.9,5.8,7.3
		C124.8,63.9,127.4,58.7,124.3,54z"/>
	<path fill="#FFE18E" d="M72.3,125.3c-1.6,0.5,1.1-5.2-8.4-6.3c-9.4-1.1-9.4-15.2-11-24.7c-1.6-9.4-3.7-5.8-9.4-5.8
		c-5.8,0-7.9-19.9-6.8-24.7c1-4.7-6.3-12.1-6.3-12.1s-4.2-0.5-5.8,3.7C23,59.7,24,68.1,26.6,78.6c2.6,10.5-1,13.6-2.1,20.5
		c-1,6.8,0.5,20.5,4.2,23.1c3.7,2.6,4.7,5.2,14.7,6.8c10,1.6,22.6,3.7,27.3,3.1C75.4,131.6,73.9,124.8,72.3,125.3z"/>
</g>
</svg>
