<?xml version="1.0" encoding="utf-8"?>
<!-- Generator: Adobe Illustrator 18.1.0, SVG Export Plug-In . SVG Version: 6.00 Build 0)  -->
<svg version="1.1" id="Layer_1" xmlns="http://www.w3.org/2000/svg" xmlns:xlink="http://www.w3.org/1999/xlink" x="0px" y="0px"
	 viewBox="0 0 2000 2000" enable-background="new 0 0 2000 2000" xml:space="preserve">
<g>
	<path fill="none" d="M1156.2,1028.6l-2-17.6c-1-9-1.7-18.1-2.3-27.1c-104.4,113.2-50.9,354.5-49.3,495.1
		C1181,1341.6,1172.5,1174.7,1156.2,1028.6z"/>
	<path fill="none" d="M817.5,961.9c-1.6,8.9-3.5,17.8-5.6,26.6l-4.1,17.2c-34.3,143-63.3,307.6-2.5,453.5
		C824.3,1320,907.1,1087.2,817.5,961.9z"/>
	<path fill="none" d="M955.5,1797.3c23.9,46,129.3-33.5,140.3-270.1c-9,9.1-17.8,18.2-25.7,27.9c-36.5,45-107,151.6-99.4,207.7
		c1.4,10.2,4.5,15.9,9,17.4c7,2.3,13.4,0.9,18.9-2.6c13.6-8.7,16.9-20,20.6-34.7c0,0-0.5,2.7-1.4,6.5c-3.8,16-10.7,30.6-26.7,37.8
		c-3.9,1.8-9,2.4-13.6,0.8c-4.5-1.6-8.5-5.3-10.3-12.2c-14.2-55,66.6-177.4,102-223.9c8.3-10.9,17.5-22.2,26.9-33.5
		c0.2-6,0.4-12,0.5-18.1C959.4,1679.7,938.6,1764.7,955.5,1797.3z"/>
	<path fill="none" d="M902.9,1770.6c-2.6,6.6-7,9.8-11.7,10.8c-4.7,1-9.7-0.2-13.4-2.5c-14.9-9.1-20-24.5-21.8-40.8
		c-0.4-4-0.6-6.7-0.6-6.7c1.8,15,3.7,26.6,16.1,37c5.1,4.2,11.3,6.4,18.5,4.9c4.6-0.9,8.4-6.2,11.1-16.1
		c14.5-54.8-42.4-169.3-73-218.4c-6.6-10.6-14.2-20.8-22-30.9c-18.3,236.2,76.5,328.1,105.9,285.4c20.9-30.3,10.7-117.2-103.4-312.2
		c-0.7,6.1-1.2,12.1-1.7,18.1c7.9,12.4,15.7,24.7,22.6,36.5C858.8,1586.3,923.8,1717.8,902.9,1770.6z"/>
	<path fill="#6CAB36" d="M795.9,646.5c0,0,0.1,0,0.1,0C796.1,646.5,796,646.5,795.9,646.5C796,646.5,796,646.5,795.9,646.5z"/>
	<path fill="#6CAB36" d="M795.6,646.4c-5.1-3.8-85.8-66.7-56.3-226c7.7-41.6,17.5-75.2,27.8-102.2c-43.9-73.2-82.5-88.8-82.5-88.8
		C682.5,413,555.3,565,795.6,646.4z"/>
	<path fill="#227D74" d="M795.6,646.4c0.2,0.1,0.3,0.2,0.3,0.2c0,0,0.1,0,0.1-0.1c0,0,0.1,0,0.1-0.1c-0.5-2-29.9-126.5-11.6-194.8
		c13-48.5,49.4-120,69.9-158.3c-8.6-24.6-16.3-50.2-21.4-76.9c0,0-35.2,22.1-65.8,101.8c-10.3,27-20.1,60.6-27.8,102.2
		C709.8,579.7,790.5,642.6,795.6,646.4z"/>
	<path fill="#FFC03B" d="M784.5,451.6C766.2,520,795.6,644.5,796,646.5c0,0,0,0.1,0,0.1s94.3-33.6,134.1-113.9
		c39.8-80.3-61.3-265.7-61.3-265.7s-5.9,10.3-14.5,26.5C833.8,331.6,797.4,403.2,784.5,451.6z"/>
	<path fill="#6CAB36" d="M342.7,721.6c-32.3-27.3-56.7-52.4-75-74.8c-85.3,1.9-118,27.7-118,27.7
		c158.1,92.7,227.2,277.9,416.1,111.1c-0.2-0.1-0.4-0.2-0.6-0.2C551.1,790.8,460,820.7,342.7,721.6z"/>
	<path fill="#227D74" d="M342.7,721.6c117.4,99.1,208.4,69.2,222.5,63.7c-2.4-0.9-4.2-1.6-5.4-2.1l0.2-0.1l0.2,0l0-0.1l0.1,0
		c0,0,0.1-0.3,0.3-0.7c-26.3-8.2-124.8-41.2-168.5-84.4c-35.7-35.3-79.8-102.3-102.9-139.1c-25.6-4.7-51.7-10.7-77.4-19.5
		c0,0,1.7,41.5,55.9,107.5C286,669.2,310.3,694.3,342.7,721.6z"/>
	<path fill="#FFC03B" d="M392.1,697.9c43.7,43.2,142.2,76.2,168.5,84.4c0.5-1.2,1.7-4.1,3.2-8.4c1.1,0.3,2.7,0.8,4.6,1.4
		c2.9-25.8,7.2-103-33.8-164c-50-74.4-261.2-78.3-261.2-78.3s6.1,10.2,15.8,25.7C312.3,595.6,356.5,662.6,392.1,697.9z"/>
	<path fill="#6CAB36" d="M892.9,1168.1c-6.2,68.1-66.2,293.7-66.2,293.7s65.2-230.2,74.2-248.9c8.9-18.7,82.9-158.1,89.3-308.4
		c2.6-62.2,17.2-113,33.4-158.8l-19.6,26.1C938.9,914.8,915,927.3,892.9,1168.1z"/>
	<path fill="#718F40" d="M828.1,1538.9c30.7,49.1,87.5,163.6,73,218.4c-2.6,10-6.5,15.3-11.1,16.1c-7.2,1.4-13.4-0.8-18.5-4.9
		c-12.4-10.3-14.3-22-16.1-37c0,0,0.1,2.7,0.6,6.7c1.8,16.3,6.9,31.7,21.8,40.8c3.7,2.2,8.7,3.5,13.4,2.5c4.7-1,9.1-4.2,11.7-10.8
		c20.9-52.8-44.2-184.3-73.6-234.8c-6.9-11.9-14.7-24.2-22.6-36.5c-3.9-6.1-7.8-12.2-11.8-18.2c-17.5-27-34.6-53.5-45-75.7
		c-34.8-75.1-43.3-129.1-171.5-239.1c-9.1-7.9-18.1-14.8-27.1-21.1c53.1,70.5,91.8,158.3,137.5,227c16.8,25.2,50.4,50.5,67.8,73.8
		c12.3,16.4,25,31.6,37.1,46.5c4.2,5.2,8.2,10.4,12.2,15.6C813.9,1518.1,821.5,1528.3,828.1,1538.9z"/>
	<path fill="#718F40" d="M439.5,1046.6c-69.5-34.2-164.4-69-183.6-116.2c-27.5-67.7-3.1-96.8-3.1-96.8s-78.5,87.8,2.6,183.1
		c75.4,88.5,178.8,46.7,295.9,128.5c0,0,0,0,0.1,0.1c0,0,0,0,0-0.1C520.4,1104,484.6,1068.7,439.5,1046.6z"/>
	<path fill="#6CAB36" d="M1212.6,673.5c248.6-51.1,141.1-217.7,161.5-400.1c0,0-40.2,10.7-92.8,77.9c6.9,28.1,12.5,62.6,15,104.9
		C1306,618,1218,670.4,1212.6,673.5z"/>
	<path fill="#6CAB36" d="M1212.1,673.6c0,0,0.1,0,0.1,0C1212.2,673.5,1212.2,673.5,1212.1,673.6
		C1212.2,673.5,1212.1,673.6,1212.1,673.6z"/>
	<path fill="#227D74" d="M1247.7,481.6c9.7,70.1-34.9,190.2-35.6,191.9c0,0,0,0,0.1,0.1c0,0,0.1,0,0.1,0.1c0,0,0.1-0.1,0.3-0.1
		c5.4-3.1,93.4-55.5,83.8-217.3c-2.5-42.2-8.1-76.8-15-104.9c-20.4-82.8-52.7-109.1-52.7-109.1c-8.3,25.9-19.1,50.4-30.7,73.7
		C1213.6,356.4,1240.8,431.9,1247.7,481.6z"/>
	<path fill="#FFC03B" d="M1212.1,673.6C1212.1,673.6,1212.2,673.5,1212.1,673.6c0.7-1.8,45.3-121.9,35.6-192
		c-6.9-49.7-34.2-125.2-49.8-165.7c-6.6-17.1-11.1-28.1-11.1-28.1s-123.3,171.6-93.7,256.1C1122.8,628.6,1212.1,673.6,1212.1,673.6z
		"/>
	<path fill="#6CAB36" d="M1424.1,839.8c-0.2,0-0.4,0.1-0.6,0.2c166.8,188.9,258.3,13.6,426.6-58.8c0,0-29.2-29.6-113.7-42
		c-21,19.9-48.2,41.9-83.7,65C1524.1,887.8,1437.5,847,1424.1,839.8z"/>
	<path fill="#227D74" d="M1606.6,774.4c-48.8,37.5-150.6,58-177.6,62.9c0.1,0.5,0.2,0.7,0.2,0.7l0.1,0l0,0.1l0.2,0.1l0.2,0.1
		c-1.2,0.3-3.1,0.8-5.6,1.4c13.3,7.3,100,48.1,228.7-35.7c35.5-23.1,62.7-45,83.7-65c61.9-58.8,68.7-99.8,68.7-99.8
		c-26.7,5.6-53.2,8.3-79.3,9.8C1698.5,682.7,1646.4,743.8,1606.6,774.4z"/>
	<path fill="#FFC03B" d="M1426.9,828.6c1,4.4,1.8,7.4,2.1,8.7c27-4.9,128.9-25.5,177.6-62.9c39.8-30.6,91.8-91.7,119.3-125.3
		c11.6-14.2,18.9-23.6,18.9-23.6s-210.1-22.2-268.9,45.4c-48.2,55.4-53.5,132.5-53.8,158.5C1424.1,829.1,1425.7,828.8,1426.9,828.6z
		"/>
	<path fill="#2D7F67" d="M955.5,1797.3c-17-32.6,3.8-117.6,141.2-297c-0.1,6.2-0.3,12.2-0.5,18.1c4.6-5.6,9.3-11.1,13.9-16.6
		c0-3.3,0.2-6.5,0.2-9.8c101.1-151.4,83.7-306.2,65.9-465.7c-1.3-12-1.1-9.4-2-17.5c-1.7-14.8-2.6-29.5-3-44.1
		c86.8-78.9,219.1-116.3,252.3-124.8c0.2-0.1,0.4-0.1,0.6-0.2c2.5-0.6,4.4-1.1,5.6-1.4l-0.2-0.1l-0.2-0.1l0-0.1l-0.1,0
		c0,0-0.1-0.3-0.2-0.7c-0.4-1.3-1.2-4.3-2.1-8.7c-1.2,0.2-2.8,0.5-4.7,0.9c-31,5.9-159.5,33.7-251,109.2
		c-13.4-67.6,36.1-236.4,43.1-259.3c-1,0.2-2,0.4-3,0.7l-0.2,0.1l-0.1-0.1l-0.1,0c-0.1,0-1.1-0.6-3.1-1.6
		c-10.2,23.4-58.1,140.9-56.7,278.1c-133,127.3-60.8,365-60.9,529.2c-4.8,7.1-9.9,14.1-15.3,21.1
		c-77.6,101.3-119.6,180.2-137.8,236.8c-10.9-58.5-42.6-142.2-107.7-253.2c-4.5-7.6-8.7-15.3-12.6-22.9
		c20.2-163,121.2-389.9,5-532.7c18.3-136.1-14.7-258.6-21.9-283c-2,0.8-3.2,1.2-3.2,1.2l-0.1-0.1l-0.1,0.1l-0.3-0.2
		c-1-0.4-1.9-0.7-2.9-1c4.1,23.6,32.3,197.3,10.7,262.7C722.6,828.5,598.5,785,568.4,775.4c-1.9-0.6-3.5-1.1-4.6-1.4
		c-1.5,4.3-2.7,7.1-3.2,8.4c-0.2,0.4-0.3,0.7-0.3,0.7l-0.1,0l0,0.1l-0.2,0l-0.2,0.1c1.2,0.4,3,1.1,5.4,2.1c0.2,0.1,0.4,0.2,0.6,0.2
		c31.9,12.5,158.6,66,234.9,155c-2.2,14.4-4.9,28.8-8.4,43.3c-1.9,8-1.3,5.4-4.1,17.1c-37.4,156.1-73.7,307.5,7.8,470.2
		c-0.4,3.3-0.7,6.5-1,9.8c3.9,6.1,7.9,12.1,11.8,18.2c0.5-6,1.1-11.9,1.7-18.1c114.1,195,124.3,281.9,103.4,312.2
		c-29.4,42.7-124.2-49.2-105.9-285.4c-4-5.2-8-10.4-12.2-15.6c-25.5,264.8,91.4,388.9,133.4,345.8c1.4-1.4,2.6-3.2,3.8-5
		c1.1,2.5,2.5,4.7,3.9,6.7c36.3,48.1,167.6-60.7,175-326.7c-4.8,4.6-9.4,9.3-14.1,13.9C1084.8,1763.9,979.5,1843.3,955.5,1797.3z
		 M1151.9,983.9c0.5,9,1.3,18,2.3,27.1l2,17.6c16.4,146.1,24.8,313-53.5,450.4C1101,1338.4,1047.5,1097.1,1151.9,983.9z
		 M805.2,1459.3c-60.8-146-31.7-310.6,2.5-453.5l4.1-17.2c2.1-8.9,4-17.8,5.6-26.6C907.1,1087.2,824.3,1320,805.2,1459.3z"/>
	<path fill="#6CAB36" d="M1014.2,468.6c-12.3,149.9,44,297.4,50.5,317c6.6,19.6,35,226.1,35,226.1l2.7-1.4c0,0-26.4-200-24.2-268.3
		c7.8-241.7-14.3-257.1-61.3-406.9l-16.2-28.4C1011.1,354.4,1019.2,406.5,1014.2,468.6z"/>
	<path fill="none" stroke="#6CAB36" stroke-width="0" stroke-linecap="round" stroke-linejoin="round" d="M1073.3,1722.6
		C1073.3,1722.6,1073.2,1722.6,1073.3,1722.6c-0.2,0.2-0.3,0.3-0.3,0.4"/>
	<path fill="#6CAB36" d="M1068.6,1731.3c-0.8-0.9,0.8-3.9,4.3-8.3C1069.4,1727.3,1067.7,1730.2,1068.6,1731.3z"/>
	<path fill="#6CAB36" d="M1274.6,1561.7c-52,21.1-175.3,128.8-201.3,160.9c26.8-31.5,154.8-132.7,176.1-127.6
		c20.2-6.8,144.4-30,275.1-56c55.8-12.1,106.7-2,150.1,14.8c-8.1-6.6-16.5-13.1-25.1-19.3C1514.2,1488,1469,1452.6,1274.6,1561.7z"
		/>
	<path fill="none" stroke="#6CAB36" stroke-width="0" stroke-linecap="round" stroke-linejoin="round" d="M775.4,1555.5
		c-0.1-0.1-0.2-0.2-0.3-0.3c0,0,0-0.1-0.1-0.1"/>
	<path fill="#6CAB36" d="M779.7,1563.8c0.9-1.1-0.8-4-4.3-8.3C779,1560,780.6,1562.9,779.7,1563.8z"/>
	<path fill="#6CAB36" d="M573.8,1394.2c-194.4-109.1-239.6-73.7-375-27.3c-8.6,6.2-16.9,12.7-25.1,19.3
		c43.4-16.7,94.3-26.9,150.2-14.8c130.8,26,255,49.2,275.1,56c21.3-5.1,149.3,96.1,176.1,127.6
		C749.1,1523,625.8,1415.4,573.8,1394.2z"/>
	<path fill="#718F40" d="M1164.1,1432.2c-13,20.8-33.3,44.9-54,69.6c-4.7,5.5-9.3,11.1-13.9,16.6c-9.4,11.3-18.6,22.5-26.9,33.5
		c-35.4,46.5-116.2,168.9-102,223.9c1.8,6.9,5.8,10.6,10.3,12.2c4.5,1.6,9.6,1,13.6-0.8c16-7.2,22.9-21.8,26.7-37.8
		c0.9-3.9,1.4-6.5,1.4-6.5c-3.7,14.6-7,26-20.6,34.7c-5.5,3.5-11.9,5-18.9,2.6c-4.5-1.4-7.6-7.1-9-17.4
		c-7.6-56.1,62.9-162.7,99.4-207.7c7.9-9.7,16.6-18.8,25.7-27.9c4.6-4.6,9.2-9.3,14.1-13.9c13.9-13.3,28.4-26.7,42.6-41.5
		c20.2-21,56.6-42,76.4-64.9c53.9-62.4,103.1-144.8,164.4-208.2c-9.7,5.1-19.5,10.9-29.5,17.5
		C1223,1309.5,1207.9,1362.1,1164.1,1432.2z"/>
	<path fill="#718F40" d="M1713,1021.9c-24.9,44.5-123.3,67.3-196.5,92.6c-47.4,16.4-87.3,47-123.1,84c0,0,0,0.1-0.1,0.1
		c0,0,0.1,0,0.1-0.1c126.3-66.7,223.8-12.5,309.5-91c92.3-84.6,25.2-181.3,25.2-181.3S1748.7,958.1,1713,1021.9z"/>
</g>
</svg>
