<?xml version="1.0" encoding="utf-8"?>
<!-- Generator: Adobe Illustrator 16.0.0, SVG Export Plug-In . SVG Version: 6.00 Build 0)  -->
<!DOCTYPE svg PUBLIC "-//W3C//DTD SVG 1.1//EN" "http://www.w3.org/Graphics/SVG/1.1/DTD/svg11.dtd">
<svg version="1.1" id="Layer_1" xmlns="http://www.w3.org/2000/svg" xmlns:xlink="http://www.w3.org/1999/xlink" x="0px" y="0px"
	 width="100px" height="100px" viewBox="0 0 100 100" enable-background="new 0 0 100 100" xml:space="preserve">
<g>
	<g>
		<defs>
			<path id="SVGID_1_" d="M48.542,90.006c2.41-0.008,4.821-0.249,7.184-0.729c2.36-0.478,4.667-1.217,6.878-2.16
				c4.421-1.898,8.434-4.704,11.729-8.168c3.298-3.459,5.851-7.582,7.531-11.992c1.664-4.421,2.399-9.145,2.225-13.801
				c-0.319-9.328-4.475-18.246-11.088-24.454c-3.288-3.124-7.148-5.605-11.322-7.276c-4.171-1.669-8.648-2.537-13.136-2.524
				c-4.492-0.014-8.97,0.847-13.142,2.518c-4.175,1.667-8.037,4.149-11.327,7.27c-6.62,6.212-10.774,15.137-11.092,24.469
				c-0.174,4.654,0.558,9.38,2.231,13.804c1.679,4.411,4.232,8.532,7.533,11.991c3.295,3.464,7.31,6.266,11.733,8.164
				c2.211,0.943,4.516,1.685,6.878,2.16C43.721,89.757,46.13,89.998,48.542,90.006z"/>
		</defs>
		<clipPath id="SVGID_2_">
			<use xlink:href="#SVGID_1_"  overflow="visible"/>
		</clipPath>
		<path clip-path="url(#SVGID_2_)" fill="#53672E" d="M6.966,54.452c0,0,10.542,1.298,16.486-1.819
			c5.947-3.12,11.893-7.799,18.783-7.019c6.894,0.78,11.352,4.679,15.54,5.979c4.191,1.298,11.218,1.04,11.218,1.04
			s-9.46-4.939-17.162-9.616c-7.701-4.679-12.296-10.396-22.161-2.082C20.757,48.449,9.399,54.71,6.966,54.452L6.966,54.452z"/>
		<path clip-path="url(#SVGID_2_)" fill="#77A340" d="M46.651,36.778l7.656,5.198c0,0,3.545-7.005,8.648-6.063
			c5.835,1.076,15.275,11.833,21.041,14.26c5.766,2.423,9.226,1.157,9.226,1.157s-6.025-2.188-12.468-7.784
			c-6.284-5.458-13.714-16.719-20.471-16.371C53.525,27.522,46.651,36.778,46.651,36.778L46.651,36.778z"/>
		<path clip-path="url(#SVGID_2_)" fill="#53672E" d="M96.107,55.837H76.559c0,0-5.728-2.413-11.08,10.396
			c-7.747,18.536-20.726,26.303-20.726,26.303S75.328,95.976,96.107,55.837L96.107,55.837z"/>
		<path clip-path="url(#SVGID_2_)" fill="#53672E" d="M42.326,55.491l18.557-0.262c0,0-3.962,0.443-8.558,9.788
			c-6.305,12.82-11.709,25.29-19.82,25.469c-10.123,0.225-16.845-9.01-16.845-9.01s7.117,1.387,11.8-6.41
			C32.147,67.271,35.84,56.875,42.326,55.491L42.326,55.491z"/>
		<path clip-path="url(#SVGID_2_)" fill="#53672E" d="M22.957,57.395c0,0-2.791,0.348-5.765,4.852
			c-2.971,4.506-5.403,7.011-7.116,7.104C6.834,69.521,5.48,57.914,5.48,57.914L22.957,57.395L22.957,57.395z"/>
		<path clip-path="url(#SVGID_2_)" fill="#77A340" d="M71.694,55.837c0,0-2.162,1.039-5.045,5.717
			c-2.885,4.679-6.034,11.607-10.811,17.672c-4.774,6.065-6.499,7.589-11.352,9.702c-3.292,1.436-6.395,1.211-6.395,1.211
			s5.495-4.678,9.009-11.954c3.516-7.276,6.848-15.247,10.091-18.709c3.243-3.467,5.854-3.639,5.854-3.639H71.694L71.694,55.837z"/>
		<path clip-path="url(#SVGID_2_)" fill="#77A340" d="M37.643,56.876c0,0-2.252,1.558-4.686,5.542
			c-2.432,3.986-5.731,11.73-8.918,14.729c-4.054,3.81-8.205,3.262-9.563,1.871c-3.04-3.122-5.303-8.627-5.303-8.627
			s1.892,1.73,5.947-3.292c4.052-5.026,7.207-9.186,10.63-9.878C29.174,56.53,37.643,56.876,37.643,56.876L37.643,56.876z"/>
	</g>
	<g>
		<g>
			<path fill="#53672E" d="M48.542,91.182c-4.972,0.015-9.945-0.947-14.569-2.805c-4.626-1.855-8.899-4.612-12.535-8.076
				c-3.629-3.464-6.646-7.625-8.725-12.264c-2.101-4.622-3.311-9.693-3.482-14.838c-0.182-5.142,0.645-10.367,2.5-15.247
				c1.866-4.872,4.699-9.408,8.342-13.223c3.637-3.812,8.067-6.904,12.948-8.998c2.443-1.038,4.987-1.849,7.597-2.38
				c2.605-0.526,5.266-0.792,7.922-0.802c5.314,0.004,10.644,1.074,15.523,3.178c4.884,2.087,9.316,5.179,12.956,8.992
				c3.649,3.808,6.478,8.352,8.342,13.227c1.86,4.881,2.686,10.111,2.502,15.251c-0.322,10.317-4.903,20.224-12.217,27.104
				c-3.635,3.465-7.91,6.221-12.535,8.076C58.485,90.234,53.514,91.196,48.542,91.182z M48.542,91.182
				c2.485-0.013,4.969-0.259,7.404-0.753c2.435-0.493,4.811-1.255,7.092-2.227c4.557-1.958,8.693-4.851,12.089-8.418
				c3.397-3.569,6.03-7.817,7.76-12.363c1.719-4.557,2.475-9.428,2.295-14.224c-0.33-9.614-4.612-18.808-11.432-25.21
				c-3.389-3.216-7.365-5.775-11.667-7.5c-4.299-1.718-8.914-2.613-13.541-2.601c-4.628-0.012-9.246,0.875-13.545,2.599
				c-4.303,1.716-8.285,4.274-11.676,7.495C16.499,34.38,12.216,43.58,11.889,53.199c-0.18,4.798,0.575,9.67,2.298,14.226
				c1.733,4.548,4.366,8.797,7.767,12.362c3.394,3.569,7.534,6.46,12.09,8.415c2.281,0.974,4.657,1.735,7.093,2.227
				C43.573,90.923,46.057,91.169,48.542,91.182z"/>
		</g>
	</g>
	<g>
		<g>
			<g>
				<g>
					<path fill="none" d="M48.542,91.182c-4.972,0.015-9.945-0.947-14.569-2.805c-4.626-1.855-8.899-4.612-12.535-8.076
						c-3.629-3.464-6.646-7.625-8.725-12.264c-2.101-4.622-3.311-9.693-3.482-14.838c-0.182-5.142,0.645-10.367,2.5-15.247
						c1.866-4.872,4.699-9.408,8.342-13.223c3.637-3.812,8.067-6.904,12.948-8.998c2.443-1.038,4.987-1.849,7.597-2.38
						c2.605-0.526,5.266-0.792,7.922-0.802c5.314,0.004,10.644,1.074,15.523,3.178c4.884,2.087,9.316,5.179,12.956,8.992
						c3.649,3.808,6.478,8.352,8.342,13.227c1.86,4.881,2.686,10.111,2.502,15.251c-0.322,10.317-4.903,20.224-12.217,27.104
						c-3.635,3.465-7.91,6.221-12.535,8.076C58.485,90.234,53.514,91.196,48.542,91.182z"/>
					<g>
						<g>
							<g>
								<g>
									<path fill="#53672E" d="M54.774,91.791c-0.564,0.117-1.08,0.041-0.875-0.045c-1.136,0.315-1.187,0.111-1.302,0.451
										c-0.739,0.228-1.558,0.071-0.715-0.126c-0.713,0.126-1.432,0.226-2.155,0.313c0.435,0.005,0.869,0.006,1.302-0.006
										c-0.344,0.303-2.082,0.002-2.494,0.303c0.792-0.012,1.582-0.034,2.37-0.094l-0.113,0.096
										c0.533-0.12,1.581-0.162,1.949-0.17c-0.053,0.049-0.011,0.116-0.427,0.166c1.43-0.134,1.606-0.296,1.718-0.436
										c0.114-0.145,0.165-0.287,1.32-0.521C55.209,91.759,55.026,91.778,54.774,91.791z"/>
									<path fill="#53672E" d="M57.276,91.984l0.899-0.548c0.547-0.108,1.093-0.223,1.637-0.351
										c-0.01-0.107,1.121-0.556,0.308-0.411c-0.146,0.066-0.443,0.185-0.693,0.243c0.12-0.27,2.073-0.762,1.533-0.853
										c-1.224,0.456-1.432,0.449-2.154,0.857c-1.168,0.285-2.039,0.396-2.604,0.422c-0.342,0.104-0.363,0.258-0.804,0.369
										l0.303-0.064l0.113,0.359c0.363-0.145,0.721-0.181,1.133-0.272c-0.605,0.274-1.225,0.541-1.852,0.787
										c0.69,0.255,2.57-0.331,3.356-0.392C57.441,92.054,59.159,91.813,57.276,91.984z"/>
									<path fill="#53672E" d="M55.398,91.714l-0.045,0.009L55.398,91.714z"/>
									<path fill="#53672E" d="M26.492,20.587c-0.313,0.233-0.356,0.372-0.376,0.438c1.181-0.857,2.41-1.651,3.681-2.372
										c-0.167-0.022-1.323,0.513-0.622,0.036c-0.385,0.094-1.321,0.782-1.383,0.987l0.188-0.296
										c-0.755,0.7-1.529,0.8-1.044,0.327l-0.071,0.051c-0.65,0.729-1.261,1.484-1.839,2.25
										C25.86,21.419,25.488,21.316,26.492,20.587z"/>
									<path fill="#53672E" d="M42.087,89.964c-0.575-0.069-0.65-0.047-0.594,0C41.703,89.977,41.902,89.978,42.087,89.964z"/>
									<path fill="#53672E" d="M24.623,22.549l-0.518,0.731C24.33,23.01,24.51,22.752,24.623,22.549z"/>
									<path fill="#53672E" d="M27.814,16.103c-0.003-0.012,0-0.026-0.03-0.03l-0.309,0.319l0.009-0.006L27.814,16.103z"/>
									<path fill="#53672E" d="M13.986,38.654L13.9,38.918L13.986,38.654z"/>
									<path fill="#53672E" d="M39.491,10.189c-0.703,0.226-1.387,0.469-2.067,0.731c0.254-0.177-0.751,0.129-0.339-0.108
										c-0.161,0.053-0.892,0.319-0.674,0.311l0.424-0.136c-1.005,0.629-0.325,0.518-2.022,1.332
										c1.153-0.205,1.587-0.5,2.14-0.811l0.53-0.19c0.536-0.299,1.084-0.575,1.641-0.853L39.491,10.189z"/>
									<path fill="#53672E" d="M17.449,77.568h-0.034C17.436,77.578,17.443,77.576,17.449,77.568z"/>
									<path fill="#53672E" d="M17.283,77.563l0.132,0.006C17.307,77.513,17.004,77.212,17.283,77.563z"/>
									<path fill="#53672E" d="M24.749,22.195c0.015,0.061-0.032,0.183-0.126,0.354l0.401-0.54L24.749,22.195z"/>
									<path fill="#53672E" d="M25.528,20.753c0.439-0.339,0.881-0.676,1.336-0.995l0.424-0.475
										C26.785,19.684,26.189,20.14,25.528,20.753z"/>
									<path fill="#53672E" d="M15.135,36.418c-1.295,3.026-0.004-0.889-0.7,0.459c-0.331,0.863-0.293,1.229-0.449,1.777
										c0.856-2.463,0.36,0.526,1.318-1.903c0.115,0.463-0.448,1.844-0.817,2.634c-0.623,0.825,0.091-0.885-0.081-1.207
										c-0.344,0.991-0.216,0.843-0.214,1.314c-0.639,1.514-0.659,3.316-1.274,4.169c-0.189,1.174-0.029,1.125,0.004,1.82
										c0.275,0.185,0.496-1.682,0.85-2.04c-0.046,0.082-0.136,0.236-0.169,0.177l0.306-0.96
										c-0.338,0.902-0.282-0.207-0.159-0.711c0.089-0.365,0.305-1.076,0.355-0.955l-0.1,0.561
										c0.304-0.662,0.263-1.606,0.696-2.265c0.082-0.012,0.013,0.271,0.041,0.33c0.087-0.878,0.408-1.651,0.804-2.884
										l-0.018,0.808c0.075-1.084,1.21-3.147,2.222-4.408c-0.136,0.126-0.338,0.379-0.288,0.185
										c0.423-0.853,1.004-1.326,0.904-0.871c0.135-0.459,0.672-1.157,1.246-1.868c0.583-0.707,1.203-1.428,1.48-2.013
										c0.831-1.807,1.841-3.579,3.015-5.288c-0.146,0.179-0.302,0.364-0.48,0.534c-0.59,0.157-0.795,0.383-0.246-0.455
										c-0.61,0.744-0.2,0.658-1.209,1.645c0.302-0.485,0.179-0.826-0.817,0.12c-2.193,2.664-2.92,4.957-4.195,7.775
										c-0.259-0.024-1.415,2.12-1.948,3.176c-0.009-0.504,0.318-1.331,0.727-2.157c-0.294,0.496-0.758,1.377-1.082,2.039
										L15.135,36.418z"/>
									<path fill="#53672E" d="M18.498,29.4c-0.065,0.055-0.128,0.118-0.189,0.185C18.351,29.557,18.41,29.504,18.498,29.4z"/>
									<path fill="#53672E" d="M16.077,33.675c-0.002-0.012-0.009-0.012-0.014-0.021l-0.126,0.264L16.077,33.675z"/>
									<path fill="#53672E" d="M23.819,22.331l0.347-0.467l-0.304,0.325C23.769,22.305,23.734,22.37,23.819,22.331z"/>
									<path fill="#53672E" d="M24.589,22.186l-0.03,0.136l0.189-0.126C24.738,22.143,24.693,22.128,24.589,22.186z"/>
									<path fill="#53672E" d="M9.973,48.272l0.016,0.333C9.999,48.404,9.991,48.319,9.973,48.272z"/>
									<path fill="#53672E" d="M13.417,39.678c0.376-1.084-0.276-0.242,0.323-1.769l-0.196,0.44
										c0.295-1.149,1.208-3.032,1.882-4.265c0.038,0.201,0.545-0.672,0.637-0.431c0.43-0.851,0.887-1.677,0.991-2.197
										c0.371-0.467,0.743-1.307,1.254-1.873c-0.282,0.193,0.313-1.114-0.655,0.472c0.074-0.13-0.002-0.069,0.07-0.199
										c-0.827,0.881-0.856,1.444-1.391,2.317c-0.424,0.463,0.368-0.958,0.021-0.487c-0.616,1.129-2.113,3.462-1.659,3.59
										c-0.383,0.851-0.514,0.932-0.707,1.149c-0.091,0.77-0.667,2.002-1.077,3.105c-0.424,1.103-0.698,2.061-0.408,2.134
										c0.115-0.521,0.389-1.344,0.522-2.128L13.417,39.678z"/>
									<path fill="#53672E" d="M22.335,23.68l-0.173,0.152L22.335,23.68z"/>
									<path fill="#53672E" d="M35.676,17.459L35.371,18c-2.447,1.086-3.352,1.438-5.383,2.618
										c-0.181,0.048,0.044-0.132,0.161-0.218c-1.413,0.854-3.489,2.222-4.301,3.131c-0.416,0.315-1.54,1.125-1.222,0.695
										c-0.169,0.197-0.367,0.413-0.595,0.602c-0.158-0.057,0.469-0.468,0.403-0.567c-0.182,0.148-0.268,0.188-0.279,0.255
										c0.223-0.345-0.646-0.097,0.786-1.293c0.763-0.207-0.964,0.856-0.398,0.863c0.466-0.396,0.324-0.455,0.335-0.521
										c0.606-0.498,0.656-0.403,0.673-0.315c0.16-0.28,1.035-0.753,1.268-1.133c1.222-0.908,0.092,0.271,0.897-0.309l0.264-0.624
										c0.473-0.289,0.948-0.571,1.433-0.833c2.017-1.318-0.649-0.404,1.692-1.931c-0.234,0.345,0.903,0.102,2.095-0.355
										c-0.697,0.327-1.851,1.169-2.759,1.56c1.345-0.437-1.637,0.982-0.84,0.916c0.498-0.493,1.487-1.072,2.318-1.395
										l-0.244,0.162c0.853-0.394,1.335-1.058,2.597-1.434c0.597-0.26,0.521-0.115,0.448,0.008
										C35.206,17.626,35.645,17.386,35.676,17.459z M34.388,18.051c-0.272,0.097-0.539,0.203-0.806,0.309
										C33.794,18.334,34.083,18.197,34.388,18.051z"/>
									<path fill="#53672E" d="M69.77,86.926l-0.268,0.124C69.566,87.031,69.664,86.983,69.77,86.926z"/>
									<path fill="#53672E" d="M68.438,15.827l0.484,0.286C68.737,15.995,68.584,15.9,68.438,15.827z"/>
									<path fill="#53672E" d="M79.276,22.656l0.639,0.561C79.684,22.978,79.479,22.807,79.276,22.656z"/>
									<polygon fill="#53672E" points="75.186,83.028 75.207,83.013 75.293,82.914 									"/>
									<path fill="#53672E" d="M89.65,45.85c-0.012,0.13-0.019,0.274-0.016,0.469C89.667,46.291,89.673,46.115,89.65,45.85z"/>
									<polygon fill="#53672E" points="79.158,22.555 79.187,22.597 79.276,22.656 									"/>
									<path fill="#53672E" d="M63.796,12.475l-0.36-0.1C63.6,12.43,63.706,12.456,63.796,12.475z"/>
									<path fill="#53672E" d="M64.154,13.748c-0.124-0.041-0.243-0.079-0.336-0.102L64.154,13.748z"/>
									<path fill="#53672E" d="M45.039,10.119l-0.761,0.122C44.653,10.2,44.877,10.164,45.039,10.119z"/>
									<path fill="#53672E" d="M62.359,12.803c-0.047,0-0.096,0.002-0.128,0.008C62.335,12.836,62.39,12.832,62.359,12.803z"/>
									<polygon fill="#53672E" points="65.078,88.17 65.119,88.151 65.117,88.104 									"/>
									<path fill="#53672E" d="M63.644,89.377l-0.6,0.268C63.271,89.557,63.488,89.467,63.644,89.377z"/>
									<path fill="#53672E" d="M89.18,56.831c-0.077,0.191-0.201,0.646-0.233,0.423C88.962,57.64,89.167,57.643,89.18,56.831z"/>
									<path fill="#53672E" d="M67.108,84.525c-0.07,0.095-0.172,0.196-0.273,0.297C67.032,84.651,67.207,84.504,67.108,84.525z"
										/>
									<path fill="#53672E" d="M66.835,84.822l-0.288,0.257C66.652,84.996,66.748,84.906,66.835,84.822z"/>
									<path fill="#53672E" d="M86.409,51.778c0.026-0.045,0.048-0.117,0.051-0.213C86.412,51.593,86.402,51.67,86.409,51.778z"/>
									<path fill="#53672E" d="M62.53,89.776c-0.069,0.137-2.718,1.235-0.427,0.5c0.008,0.303-1.426,0.619-2.024,0.863
										c0.467-0.073-0.173,0.239-0.01,0.29c0.3-0.126,0.644-0.309,1.153-0.452c0.271,0.044-0.472,0.373-1.093,0.511
										c0.792-0.084-0.89,0.483,0.205,0.28c2.244-0.775,3.771-1.509,5.106-2.548c-1.181,0.616-2.554,1.236-3.626,1.486
										l0.353-0.376c1.23-0.224,1.885-0.654,3.002-1.125c-0.845,0.34-1.704,0.634-2.565,0.914
										c-1.265,0.239-0.473-0.077,0.439-0.476C62.814,89.731,62.604,89.798,62.53,89.776z"/>
									<path fill="#53672E" d="M63.403,87.188l-0.043,0.01c-0.03,0.022-0.07,0.045-0.091,0.063L63.403,87.188z"/>
									<path fill="#53672E" d="M45.565,14.901l-0.204,0.107C45.537,14.952,45.588,14.919,45.565,14.901z"/>
									<path fill="#53672E" d="M65.284,87.605l-0.003,0.003C65.295,87.599,65.301,87.596,65.284,87.605z"/>
									<path fill="#53672E" d="M50.839,14.867c-0.008,0.006-0.014,0.012-0.028,0.018C50.829,14.878,50.829,14.873,50.839,14.867z"
										/>
									<path fill="#53672E" d="M52.756,9.883c-0.008-0.014-0.012-0.025-0.036-0.039C52.589,9.849,52.65,9.863,52.756,9.883z"/>
									<path fill="#53672E" d="M50.847,14.844c-0.001,0.008,0.002,0.016-0.008,0.022C50.846,14.86,50.854,14.852,50.847,14.844z"
										/>
									<path fill="#53672E" d="M74.554,24.175c0,0-0.032-0.085-0.103-0.203C74.4,23.954,74.42,24.009,74.554,24.175z"/>
									<path fill="#53672E" d="M70.742,20.609l-0.063-0.077L70.742,20.609z"/>
									<path fill="#53672E" d="M90.384,55.612c0.035-0.286,0.041-0.499,0.042-0.678C90.406,55.141,90.393,55.365,90.384,55.612z"
										/>
									<path fill="#53672E" d="M50.811,14.885c-0.055,0.022-0.13,0.042-0.256,0.067C50.692,14.925,50.768,14.905,50.811,14.885z"
										/>
									<polygon fill="#53672E" points="80.705,29.459 80.59,29.339 80.637,29.427 									"/>
									<path fill="#53672E" d="M82.069,31.894c-0.073-0.065-0.118-0.089-0.167-0.122c0.608,0.794,1.364,2.455,1.681,2.539
										c-0.148-0.303-0.857-1.915-0.59-1.727c-0.396-0.576-0.777-1.553-1.02-1.85c0.486,1.053-0.106,0.211-0.603-0.386
										c-0.326-0.627,0.248-0.004-0.055-0.532c-0.311-0.446-0.632-0.885-0.959-1.32c0.267,0.392,0.538,0.78,0.79,1.182
										l-0.442-0.219l0.101,0.108C82.221,31.496,80.646,29.915,82.069,31.894z"/>
									<path fill="#53672E" d="M81.902,31.772c-0.092-0.12-0.176-0.219-0.251-0.292C81.771,31.667,81.839,31.73,81.902,31.772z"/>
									<path fill="#53672E" d="M85.459,40.718l0.153,0.388L85.459,40.718z"/>
									<path fill="#53672E" d="M28.316,18.685c0.07,0.03,1.332-0.534,1.22-0.679c-0.364,0.187-0.733,0.372-1.096,0.575
										L28.316,18.685z"/>
									<path fill="#53672E" d="M85.243,66.733c0.063-0.144,0.128-0.286,0.182-0.435l0.006-0.095
										C85.374,66.283,85.287,66.582,85.243,66.733z"/>
									<path fill="#53672E" d="M83.278,32.926c-0.148-0.216-0.229-0.301-0.285-0.342C83.089,32.725,83.184,32.847,83.278,32.926z"
										/>
									<path fill="#53672E" d="M84.8,66.649c-0.124,0.16-0.31,0.396-0.393,0.405c-0.165,0.366-0.184,0.669-0.325,1.055
										C84.249,67.676,84.488,67.197,84.8,66.649z"/>
									<path fill="#53672E" d="M84.072,68.139l0.01-0.029L84.072,68.139z"/>
									<path fill="#53672E" d="M27.576,19.054l-0.288,0.229l0.135-0.145l-0.827,0.478c-0.086,0.077-0.185,0.154-0.306,0.248
										c0.047-0.041,0.076-0.085,0.088-0.12l-0.264,0.16c-0.522,0.581-1.919,1.84-2.252,2.285
										c-0.499,0.513-1.115,1.127-1.526,1.491c0.371-0.344,0.854-0.815,0.632-0.762c-0.839,0.603-1.452,0.707-2.504,2.185
										l0.732-0.751c-0.457,0.656-0.899,1.314-1.311,1.986c-0.677,0.495,0.621-1.007,0.754-1.336
										c-1.117,1.448-2.487,2.291-2.731,3.188c-0.235-0.033-0.658-0.102-1.35,0.903c0.706-0.57-0.298,0.681,0.333,0.248
										c-0.145,0.406-0.827,1.064-0.731,1.212l-0.011-0.144c-1.405,1.551-1.27,2.431-1.532,3.271
										c-1.052,2.199-1.624,3.176-2.29,5.052c-0.163,0.021-0.719,0.404-0.958,1.18c0.063,0.417-0.357,2.183-0.142,2.427
										c0.464-1.352,0.099-1.184,0.295-2.024c0.459-0.604,0.259,0.012,0.712-0.859c-0.379,0.703-0.894,3.407-1.281,4.197
										l0.034-0.303c-0.419,1.302-1.113,1.466-1.049,3.812c0,0.37,0.022,0.739,0.035,1.109c-0.021-0.055-0.048-0.063-0.068-0.096
										c-0.162,1.789-0.429,1.29-0.254,3.286c-0.016-0.152-0.044-0.057-0.061-0.214c-0.156,1.139,0.166,2.28,0.281,3.126
										c-0.169,0.536-0.216-0.107-0.378-0.427c0.016,2.016,0.69,4.122,1.185,5.27c0.037,0.427,0.092,0.849,0.146,1.275
										c-0.257-0.719-0.641-1.597-0.72-1.345c0.178,0.69,0.243,0.537,0.422,1.523c-0.163-0.136-0.381-0.521-0.639-0.954
										c0.237,2.1,0.546,0.351,0.496,1.87c0.164,0.642,0.457,0.954,0.627,0.979l0.146,1.191c0.233,0.067,0.699,1.447,1.087,2.323
										c0.126,0.074-0.077-0.792-0.269-1.105c0.172,0.016,0.588,0.934,0.84,1.53c-0.153,0.188,0.273,1.169,0.685,2.017
										c0.406,0.842,0.789,1.562,0.386,1.338c0.74,1.273,1.679,2.768,2.661,4.08c0.973,1.314,1.968,2.455,2.668,3.123
										c0.321,0.56,1.203,1.515,0.527,1.078c1.622,1.734,2.805,2.248,4.518,3.815c0.113,0.166-0.815-0.666-0.84-0.51
										c1.275,0.848,2.039,1.915,4.094,3.127c-0.339-0.212-0.485-0.202-0.556-0.195c0.004-0.08,0.895,0.415,1.453,0.673
										c0.276,0.211-0.417-0.194-0.28-0.051c1.903,1.294,3.771,2.129,5.674,2.789c1.907,0.658,3.85,1.153,6.049,1.676
										c-1.255-0.302-1.797-0.179-1.844-0.067c0.408,0.119,0.822,0.225,1.235,0.332c0.51-0.017,1.444,0.194,2.248,0.232
										c0.087,0.07,0.461,0.194,0.057,0.188c2.457,0.707,3.958,0.083,6.988,0.264c-1.232,0.191-2.486,0.325-3.753,0.395
										l0.914,0.274c-0.559,0.045-1.121,0.078-1.686,0.1c0.98,0.271,1.876-0.032,1.979,0.186
										c-0.212,0.054-0.721-0.011-0.745,0.102c0.955,0.162,1.042,0,1.765-0.01c-0.958,0.185-2.386,0.193-3.818,0.063
										c-1.433-0.121-2.865-0.382-3.864-0.57c-0.321-0.037,0.291-0.041,0.355-0.069c-0.812-0.17-1.257-0.427-2.276-0.636
										c-0.674-0.006,0.437,0.27,0.928,0.416c-0.109,0.14-0.357,0.061-0.917-0.073c-0.067-0.211-2.991-1.021-3.566-1.573
										c-2.84-1.13,0.228,0.734-2.479-0.579c-0.236-0.198-0.47-0.401-0.698-0.609c-1.641-0.602-3.693-1.608-5.282-2.798
										l0.348,0.23c0.287,0.073-0.054-0.24-0.188-0.399c-1.155-0.937-2.385-1.542-2.917-2.314
										c-1.481-0.873-3.654-2.744-5.026-4.159c-0.12-0.589,1.896,1.734,2.64,2.133c-0.419-0.415-0.832-0.835-1.231-1.269
										c0.749,0.794,1.147,1.012,1.741,1.335c-1.052-1.121-1.605-1.29-2.641-2.342c0.141,0.031,0.051-0.15-0.384-0.669
										l-0.287-0.011c0.003-0.019-0.032-0.088-0.152-0.258c-0.59-0.646-1.149-1.316-1.699-1.998
										c0.257,0.498,0.115,0.639,0.529,1.18c-0.045-0.271,0.317,0.182,0.743,0.71c-0.483-0.378,0.325,0.591,0.23,0.654
										c-0.88-1.055-1.896-2.403-2.448-3.117l0.002-0.354c-0.687-1.109-1.482-2.241-1.855-3.048l0.227,0.192
										c-0.71-1.391-1.48-2.737-1.84-4.084c-0.75-1.189-1.51-2.796-2.059-3.834c-0.214-0.258-0.425-1.281-0.629-2.419
										c-0.204-1.144-0.373-2.402-0.669-3.161c0.008-0.108,0.359,1.049,0.563,1.558c-0.165-1.035-0.592-1.822-0.374-2.187
										c0.264,2.347,0.187-0.155,0.423,0.878c-0.18-1.078-0.354-2.226-0.496-2.755c0.178,1.776-0.439-0.596-0.127,1.195
										c-0.401-1.368-0.62-3.309-0.519-4.991c0.118,0.017,0.162-0.19,0.228-0.814l-0.156-0.51
										c0.052-0.783,0.158,1.524,0.259-0.054c-0.113-0.814,0.003-2.039,0.138-3.14c0.139-1.1,0.274-2.083,0.081-2.483
										c0.402-1.186-0.168,2.368,0.378,0.563c0.007,1.09-0.358,2.549-0.128,2.926c0.032-1.054,0.257-0.359,0.333-1.031
										c-0.002-0.394-0.016-0.789-0.009-1.182l-0.047,0.254c0.003-1.99,0.783-5.053,1.578-7.447
										c0.451-2.111,0.669-3.654,1.88-5.963c-0.225,0.744,1.15-1.823,0.629-0.256c0.676-0.987,1.156-2.063,1.07-2.148
										c-0.582,0.879-0.223,0.299-0.721,1.036c0.169-0.595,0.906-1.777,1.298-2.197c-0.151,0.215-0.075,0.148-0.07,0.219
										c0.77-0.999,0.218-0.579,0.683-1.371c0.324-0.124,1.222-1.604,1.839-2.177l0.561-1.111
										c-0.296,0.623,0.813-0.837,1.079-0.854c0.491-0.723,0.835-1.413,1.832-2.296c-0.334,0.444,0.98-0.725,1.128-0.589
										c1.801-1.344,2.578-2.79,4.521-3.783c-0.032,0.077-0.322,0.418,0.223,0.107c0.383-0.313,1.126-0.753,1.57-1.038
										l-0.011,0.012l0.021-0.019c0.216-0.142,0.347-0.242,0.329-0.282c0.697-0.607,1.008-1.013,2.56-1.947
										c-0.216-0.146-1.546,0.625-2.087,1.007l-0.392,0.463c-0.637-0.015-1.371,0.871-1.77,1.004
										c0.697-0.924,3.469-2.392,5.115-3.34c-1.182,0.187-3.475,1.278-5.313,2.49l0.893-0.396
										c-0.325,0.203-0.656,0.394-0.976,0.605c0.349-0.138,0.709-0.258,1.063-0.386c-0.953,0.516-1.699,1.084-2.513,1.625
										c0.943-0.65,1.478-0.642,0.916-0.327c-1.171,0.538-1.013,0.859-1.797,1.417c0.44-0.308,1.017-0.704,0.719-0.345
										c-1.688,0.918-1.982,1.375-3.478,2.3c0.383,0.11-1.587,1.487-1.555,1.891l0.596-0.538
										c-0.359,0.449-0.714,0.892-1.054,1.346c-1.294,0.932,0.749-1.214-1.049,0.384c-1.516,1.625-1.176,1.838-2.225,3.207
										c0.174-0.581,0.89-1.781,1.844-2.822l-0.642,0.572c0.198-0.429,1.541-1.858,2.254-2.524
										c-0.969,1.312,0.574-0.491,1.257-0.829c-0.039-0.244-0.779,0.486,0.011-0.465l-2.036,1.887
										c1.135-1.095,1.547-1.689,1.928-2.265c0.387-0.563,0.746-1.1,1.894-1.9c-0.946,0.871,0.532-0.051,0.714-0.059l1.809-1.46
										l-0.543,0.016c1.276-1.029,2.079-0.805,3.536-2.002c0.12-0.282-1.454,0.778-1.177,0.585
										c2.114-1.476,3.182-1.466,5.321-2.191c0.083-0.132-0.02-0.298,0.656-0.743c-0.162,0.257,0.41,0.12-0.358,0.577
										c0.723-0.224,1.499-0.668,2.102-0.959c-1.509,0.445,0.512-0.465,0.762-0.65c0.79-0.227-0.183,0.242-0.634,0.463
										c0.631-0.181,1.45-0.167,1.724-0.532c0.073,0.167-1.586,1.018-2.671,1.509l0.762-0.263
										c-0.485,0.291-0.591,0.291-1.345,0.569c0.78-0.164,0.766,0.025,0.646,0.207c-0.104,0.013,0.037-0.059-0.063-0.051
										c-0.612,0.195-1.044,0.433-0.869,0.465c-0.43,0.453,0.872-0.199,1.322-0.229l0.885-0.384
										c0.94-0.625,1.917-1.214,2.929-1.767c1.363-0.461,2.051-0.414,3.125-0.498l0.251-0.266
										c1.232-0.203,2.405-0.279,1.653,0.096c-0.055-0.063-0.213-0.028-0.479,0.004c-0.03,0.037-0.089,0.067-0.162,0.095
										l-0.055,0.047c1.293-0.279,2.114-0.4,2.189-0.418c-2.191,0.579-0.063,0.394-0.394,0.82c0.733-0.13,1.472-0.241,2.215-0.331
										c-1.364-0.025-0.041-0.188,0.44-0.266c0.143,0.197,1.81-0.084,2.608-0.037l-0.059,0.043
										c0.735,0.072,2.01,0.105,2.922,0.117c-0.036-0.075,1.162-0.325,1.755-0.463c-1.567-0.253-0.624-0.231-0.737-0.379
										c0.163,0.026,0.459,0.064,0.496,0.04c0.235-0.034-0.299-0.116-0.335-0.191c-1.708-0.081-3.459-0.097-4.158,0.202
										c0.518,0.14,0.892-0.12,1.468-0.004c-0.838,0.161-1.925,0.107-3.322,0.156l-0.468-0.161
										c-0.467,0.063-0.934,0.118-1.399,0.193c0.581-0.14,0.209-0.307,1.693-0.425c-0.199-0.17-1.472,0.118-2.382,0.15
										l-0.438,0.287c0.164-0.158-1.777,0.055-0.42-0.292c0.742-0.152,1.488-0.288,2.238-0.404l-0.644-0.113
										c0.64-0.067,1.28-0.124,1.921-0.161L46.56,9.302c3.093-0.241,0.922,0.398,4.029,0.191c0.983-0.231,2.048-0.207,3.935,0.122
										c-1.38-0.124-0.167,0.183-0.703,0.278c1.371,0.303,1.868,0.154,2.609,0.177c0.323,0.219,0.548,0.378-0.678,0.136
										c-0.207,0.277,1.628,0.242,1.669,0.602c2.008,0.436,2.867,0.438,3.815,0.5c0.935,0.085,1.99,0.225,4.166,1.362
										l-0.223,0.049c2.902,1.088,4.414,2.104,6.877,3.562c0.564,0.512,1.116,1.032,1.652,1.568
										c-0.435-0.262-1.68-0.82-1.257-0.333c-0.697-0.896-1.736-1.419-2.654-2.167c-0.147,0.018,0.232,0.311,0.38,0.467
										c-0.604-0.362-0.832-0.679-1.684-1.066c0.004,0.082,0.859,0.638,0.166,0.311c-0.338-0.26-0.678-0.526-1.025-0.776
										c-1.571-0.656-0.96,0.065-2.726-0.823c0.408-0.024,1.211,0.022,1.935,0.323c-0.811-0.433,1.146,0.433,0.443-0.037
										c-1.313-0.319-1.792-0.784-3.491-1.273c0.204,0.04,0.279,0.001,0.684,0.152c-0.771-0.357-1.56-0.69-2.354-1
										c0.549,0.338-2.063-0.473-1.907-0.154l2.228,0.744c0.493,0.169,1.044,0.343,2.431,0.999
										c-0.818-0.29-1.954-0.458-2.518-0.412c-0.02-0.018-0.061-0.041-0.146-0.073c-0.516,0.067-0.089,0.287-0.237,0.677
										c1.387,0.174,2.152,0.737,3.682,1.242c0.371-0.079-0.732-0.658-1.503-0.901c0.459,0.132,0.916,0.272,1.37,0.424
										l-0.297-0.018c1.093,0.509,2.17,1.064,3.21,1.673c-0.609-0.315-0.873-0.313-1.239-0.382
										c0.413,0.213,0.784,0.494,1.182,0.784c0.017-0.242,0.149-0.345,0.542-0.116c1.997,1.206,2.933,2.135,3.478,2.825
										l0.226,0.144c-0.179-0.416,1.556,0.661,2.25,0.959c-0.171,0.152,0.835,0.877,1.249,1.417
										c0.44,0.047,0.343-0.548-0.146-1.259c-1.379-0.845-0.839-0.396-1.639-0.597c-0.707-0.472-1.43-0.91-2.16-1.333l0.583,0.156
										c-0.972-0.825-2.153-1.234-1.926-1.415c0.67,0.197,1.519,0.921,2.169,1.164l-0.629-0.571
										c1.368,0.649,0.476,0.64,2.016,1.588c-0.378-0.593,0.143,0.079,0.838,0.453c-0.364-0.542-2.558-1.896-1.894-1.886
										c0.887,0.416,2.237,2.296,3.409,2.848l-0.076-0.008c1.336,1.279,1.925,1.604,2.518,1.998
										c0.45,0.66,1.323,1.345,1.884,2.003l-0.104,0.059c0.276,0.297,0.541,0.599,0.805,0.908
										c-0.522-0.319-0.882-1.113-1.603-1.868l-0.077,0.239c-0.605-1.066-1.446-1.374-2.227-1.882
										c1.104,0.788,2.55,2.774,3.053,2.764c0.127,0.258,0.246,0.518,0.36,0.782l0.31,0.26c0.255,0.589-0.33,0.242-1.125-0.644
										c-0.089-0.191-0.135-0.289-0.062-0.268c-0.43-0.362-0.88-0.642-1.756-1.641l0.569,0.443
										c-1.111-1.235-2.277-2.209-2.838-2.431c1.704,1.667,3.269,3.401,4.656,5.156c0.787,0.221,1.479,0.701,2.043,0.721
										c0.974,1.198,2.139,2.955,2.629,4.212l-0.138-0.067c0.277,0.593,0.574,1.108,0.849,1.535
										c0.203,0.665-0.427-0.311-0.269,0.142c0.371,0.628,0.728,1.267,1.072,1.914c-0.239-0.045-0.999-1.712-1.435-2.47
										c0.092,0.136,0.273,0.418,0.248,0.311c-0.379-0.954-1.622-2.416-1.613-2.938c-0.308-0.396,0.717,0.746-0.159-0.692
										c-0.516-1.016-0.96-1.162-1.093-1.21c-0.097,0.048,0.848,1.549,0.389,1.113c0.483,0.721,0.796,0.937,1.262,1.956
										c-0.437-0.745-1.265-1.604-1.363-2.083c-1.132-1.291-1.436-0.763-1.016-0.102c0.053-0.27,1.835,2.458,0.833,0.479
										c0.734,0.709,1.668,2.28,2.382,3.383l-0.067-0.035c0.271,0.469,0.523,0.949,0.774,1.432
										c-0.152-0.181-0.414-0.599-0.525-0.563c0.424,0.624,0.834,1.259,1.226,1.911c-0.696-1.079,0.191,0.77,0.301,1.348
										c0.255,0.155,0.686,0.947,0.481,0.11c-0.238-0.934-0.287-0.485-0.638-1.275c0.248,0.336,0.484,0.684,0.723,1.036
										l0.014,0.105c0.166,0.203,0.317,0.414,0.476,0.621c0.551,1.604-0.725-0.52,0.179,1.45l0.206-0.363
										c0.783,2.406,1.108,5.619,1.476,7.337c-0.248-0.457-0.559-0.618-0.628,0.057c-0.044-0.751-0.322-2.233-0.595-3.273
										c0.006-0.217,0.666,1.236,0.78,2.414c0.428-0.662-0.867-2.84-0.412-3.082c-0.274-1.487-0.573-1.99-0.822-2.437
										c-0.257-0.451-0.468-0.843-0.765-2.094c-0.223,0.044-0.36-0.638-0.602-0.685c-0.058,0.818,1.183,3.166,1.435,4.801
										c-0.055-0.152-0.167-0.453-0.229-0.501c0.234,1.146,0.388,1.6,0.64,2.38l0.006-0.108c0.504,1.354,0.003,0.9,0.051,1.734
										c0.09,0.315,0.191,1.469,0.329,1.263c-0.01,0.51-0.016,1.02-0.047,1.525l0.25-0.098c0.103,0.849-0.061,1.046,0.142,1.812
										l0.234,0.02c-0.012-0.711-0.045-1.423-0.094-2.132c0.181,1.07,0.262,0.277,0.4,1.466c-0.348-1.314-0.057,0.953-0.278,1.093
										l0.158,0.869l-0.068-0.223c-0.096,0.688,0.103,0.818,0.074,1.621c0.127-0.943,0.29-1.578,0.061-2.779
										c0.195,0.869,0.348,2.627,0.34,3.059c0.075,0.929-0.117,1.571-0.212,2.439c0.003-1.671-0.686,0.528-0.418-2.757
										c0.045,0.063,0.026,0.328-0.001,0.43c0.313-0.434-0.015-1.983-0.165-2.687c-0.165,0.191-0.229-0.546-0.28,0.711
										c0.098-0.42,0.42,1.058,0.242,2.256l-0.357-0.217c-0.022,0.574-0.066,1.151-0.112,1.727l-0.006-0.162
										c-0.272,0.635-0.082,1.852-0.382,3.019c0.055,0.877-0.714,4.103-0.063,2.78c-0.442,1.007-0.38,1.988-0.657,3.142
										c0.176-0.459,0.358-0.92,0.523-1.387c-0.192,1.76-0.226,1.225-0.242,2.693c-0.138,0.105-0.313,0.377-0.322,0.074
										c-0.713,2.256-2.181,5.276-2.591,6.62c-0.811,1.466-1.282,1.488-2.399,3.53c-0.23,0.433,0.51-0.127-0.459,1.09
										c-0.078,0.069,0.626-1.373-0.329,0.054c-0.48,1.17-1.835,2.209-2.709,3.549c-0.625,0.57-1.619,1.635-1.567,1.265
										c0.978-0.902,2.159-2.367,2.253-2.655c-0.013,0.227,0.694-0.652,0.158,0.175c1.383-1.466,0.711-1.097,1.864-2.479
										c0.001-0.148-0.738,0.606-0.906,0.958c-0.215-0.157,1.909-2.959,0.713-1.862c-1.099,1.525-0.956,2.364-2.256,3.442
										c0.289-0.618,1.054-1.336,1.296-2.195l-0.912,0.99l-0.447,0.896l0.005-0.073c-1.763,1.613-1.208,1.873-2.629,3.5
										c1.042-0.717,0.156,0.576,0.922,0.009c-1.009,1.052-1.833,1.725-2.044,1.507c1.813-2.007-0.079-0.321,1.491-2.255
										c-0.365,0.203,0.105-0.715-0.959,0.273c-1.045,1.281,0.536-0.149-0.596,1.042c-0.089,0.045-0.181,0.092-0.169,0.022
										c-0.462,0.619-0.691,0.547-1.281,1.268l0.127-0.185c-0.983,0.578-0.827,0.947-1.723,1.385
										c0.447-0.058-0.41,0.54-0.829,1.006c0.851-0.519,1.5-0.56,3.012-1.843c0.067-0.292-0.1-0.267,0.451-0.86
										c-0.311,0.291-0.637,0.561-0.955,0.846c0.191-0.202,0.324-0.371,0.491-0.562l0.98-0.739
										c-1.079,1.127-0.421,0.796-0.807,1.368c-1.158,0.859-0.888,0.794-1.64,1.304c-0.074-0.239-2.478,1.299-3.972,1.98
										c0.222-0.124,0.493-0.305,0.647-0.392c0.912-0.771-0.804,0.255-0.881,0.207l-0.672,0.55
										c0.13-0.097,0.294-0.262-0.041-0.107c-0.989,0.609-0.808,0.807-1.827,1.387c-0.139-0.088,0.635-0.726-0.041-0.465
										c-0.283-0.002-1.119,0.074-2.466,0.798c-0.077,0.098-0.432,0.274-0.846,0.474c0.057-0.031,0.125-0.067,0.149-0.088
										c-0.333,0.086-0.668,0.155-1,0.229c0.716-0.529,1.664-0.545,2.357-1.124l-0.031-0.242c0.607-0.279,1.377-0.775,1.687-1.075
										c-0.919,0.428-1.079,0.578-2.095,1.093c-0.203-0.067,0.478-0.494,0.57-0.561l-0.095,0.19c1.306-0.41,1.72-1.074,3.184-1.87
										c0.223-0.12,0.099-0.028,0.071,0.038c1.05-0.877,2.332-1.354,3.224-2.37l-0.274,0.353c0.676-0.6,1.932-1.839,3.063-3.161
										l-0.051-0.074c-0.179,0.087,0.307-0.341,0.583-0.553l0,0c0.559-0.668,1.074-1.322,1.485-1.859
										c-0.188,0.117-0.418,0.275-0.647,0.495c-0.107,0.27-1.311,1.287-0.991,1.312c-0.627,0.398-1.377,1.316-1.851,1.586
										c0.848-0.502-0.384,0.604-0.44,0.814c-0.352,0.086-1.153,0.89-1.174,0.644c-0.189,0.071,0.471-0.171,0.725-0.525
										c0.701-0.765-1.594,0.988-0.686,0.08c-1.204,1.087-3.028,2.188-4.405,3.145l0.857-0.386
										c-0.652,0.357-2.198,1.203-2.362,1.167c0.483-0.267,1.059-0.558,1.656-0.937c-0.074-0.207-1.493,0.797-1.632,0.695
										c-0.555,0.418-1.122,0.818-1.7,1.21l0.829-0.355c-0.459,0.368-2.265,0.965-3.599,1.369c0.649-0.557,1.978-0.719,3.27-1.438
										c0.916-0.542-0.722-0.006,0.16-0.487c-0.267,0.038-0.854,0.316-1.121,0.507l-0.384,0.1c0.715-0.587,2.541-1.362,3.57-2.218
										c-0.087,0.082-0.159,0.157-0.178,0.203c0.945-0.382,1.835-0.909,2.625-1.507c-0.493,0.199-0.631,0.363-0.869,0.547
										c-0.064-0.038,0.704-0.557,0.953-0.814c-0.811,0.423-0.23-0.051-0.744,0.217c0.467-0.368,0.877-0.613,1.486-0.996
										c0.37-0.127-0.169,0.298-0.026,0.371c0.563-0.495,1.049-0.412,1.823-1.215c-1.197,0.835,0.125-0.469,0.439-0.863
										l-0.193,0.146c0.254-0.414,0.545-0.666,0.883-0.754c-0.404,0.437-0.886,0.751-0.645,0.779
										c0.303-0.248,0.594-0.507,0.901-0.832l-0.23,0.354c0.492-0.427,0.969-0.863,1.438-1.322
										c0.128-0.318,0.353-0.828,0.39-1.172c0.427-0.226,0.797-0.759,1.052-1.116l-0.093,0.19c0.688-0.516,1.83-2.025,1.813-2.24
										c0.516-0.392-2.154,3.834,0.559,0.45c1.021-1.297,0.3-1.063,0.736-1.898c0,0,0.004,0.069,0.079,0.011
										c0.44-0.563,0.352-0.717,0.622-1.239c-0.29,0.321-0.644,0.822-0.714,1.02c-0.013-0.272,0.857-1.206,1.03-1.742
										c-0.145,0.745,0.813-1.109,0.643-0.57c0.889-1.123,1.396-2.588,1.529-3.337c0.718-0.724,0.67-1.54,1.372-2.927
										c-0.097,0.22-0.199,0.645-0.365,0.94c-0.129,0.908,0.706-1.464,0.384-0.115c0.079-0.284-0.099-0.061-0.182,0.229
										c-0.175,0.5-0.291,0.988-0.147,0.908c0.235-0.363,0.449-0.739,0.674-1.111l-0.124,0.437
										c0.333-0.573,0.648-1.153,0.948-1.744c-0.024-0.065-0.136,0.091-0.193,0.173c0.893-2.113,1.386-4.694,1.73-6.652
										c-0.271-0.238-0.14-1.446-0.061-2.812c0.088-1.36,0.104-2.902-0.096-3.689c0.175,0.424,0.486,0.662,0.611,0.395
										c0.029,0.356,0.269,1.106,0.175,1.926c-0.095,0.13-0.276,1.125-0.345,0.472c-0.092,2.247,0.292-0.284,0.469,0.395
										c0.1-2.53-0.317-4.006-0.566-5.557l0.067-0.045c-0.07-0.392-0.156-0.782-0.242-1.167c0.055,0.967-0.29,0.944-0.299-0.295
										l0.034,0.146c0.069-0.721-0.306-2.156-0.51-3.237l-0.349-0.688c-0.217-1.077,0.109-1.208,0.243-1.619
										c-0.437-1.7-1.063-2.559-1.667-3.633c-0.019-0.584-1.065-2.985-0.316-1.801c-0.803-1.375-1.397-0.711-2.254-3.273
										c0.162,0.174,0.32,0.351,0.477,0.53c-0.629-1.117-1.517-2.396-2.361-3.483c-0.843-1.088-1.623-1.994-1.941-2.494
										c0.516,0.185,0.126-0.528-0.428-1.354c-0.555-0.824-1.278-1.756-1.258-2.11c0.002,0.177-0.73-0.475-0.887-0.518
										c-0.112-0.193-0.334-0.485-0.697-0.648c0.682,0.758-0.899-0.055,0.672,1.083c-0.973-0.39-2.072-1.005-3.739-2.277
										l0.161-0.167c0.436,0.351,0.856,0.713,1.276,1.081c-0.025-0.237,0.632,0.319,0.95,0.496
										c-1.147-1.063-1.004-1.085-0.854-1.121c0.143-0.024,0.286-0.065-1.015-1.03c-0.34-0.069-0.141,0.002-0.857-0.438
										c0.325,0.221,0.477,0.136-0.041-0.237l-0.608-0.191c-0.718-0.967,1.686,0.857,1.043,0.087
										c1.146,0.566,2.903,1.9,2.774,1.417c-1.566-1.399-1.794-0.753-3.486-2.094L69.909,19.7
										c-0.688-0.347-0.896-0.242-1.313-0.354c0.007-0.079-0.133-0.225-0.535-0.496c-1.255-0.39-2.027-0.729-3.216-0.946
										c1.441,0.569,1.995,0.953,2.547,1.338c0.551,0.39,1.106,0.78,2.488,1.582c-0.454-0.226-2.396-1.343-2.68-1.119l0.143-0.185
										c-0.95-0.417-1.905-0.788-3.036-1.401l0.766,0.221c-1.596-0.597-2.465-1.5-3.87-1.604c0.444,0.172,0.8,0.316,1.09,0.386
										c-0.854-0.232-1.882-0.614-2.784-0.931c-0.668-0.071-1.334-0.124-1.998-0.156c0.047-0.111-1.165-0.4-0.538-0.444
										c-1.353-0.486-2.085-0.244-2.897-0.317c-1.399-0.451,1.259,0.067,1.456-0.187c-1.964-0.492-4.122-0.583-5.262-0.418
										c0.406,0.065,0.601,0.124,0.578,0.175c-0.057-0.081-0.865-0.1-1.313-0.118l-0.311,0.144c-0.742-0.111-0.64-0.195-0.002-0.3
										c-0.717-0.047-1.557,0.255-2.307,0.075c1.225-0.246,2.778-0.055,3.426-0.132c-1.29,0.014-1.923-0.083-2.66-0.181
										c-0.737-0.08-1.578-0.17-3.205,0.097c-0.048-0.065,0.494-0.268-0.138-0.199c-1.458,0.229-0.345,0.351-0.778,0.572
										c1.101-0.235,1.637-0.185,2.294-0.046l-0.288,0.145c-0.049-0.057-0.748-0.006-0.957-0.041l-0.152,0.266
										c0.055-0.282-1.091-0.368-1.952-0.118c0.912,0.054,0.674,0.091,0.954,0.363c-1.165,0.467-1.426-0.087-2.709,0.496
										c0.077-0.116,1.247-0.406,0.215-0.272c-0.843,0.17-0.682,0.35-1.222,0.555c0.572-0.376,0.371-0.501,1.007-0.916
										c1.513-0.328,0.607-0.13,2.088-0.478c-0.431,0.01-0.869,0.002-1.302,0.024c1.295-0.266,0.908-0.416,1.001-0.523
										c-2.291,0.162-1.623,0.64-3.046,0.904c-0.642,0.316,1.326-0.287,0.303,0.128c-1.318,0.294-0.268,0.211-1.694,0.706
										l0.213-0.17c-0.483,0-0.875,0.285-1.373,0.478c-0.528,0.262,0.854,0.518-1.369,1.338c0.086-0.102,0.112-0.154,0.104-0.181
										c0.501-0.865,1.043-1.73,1.637-2.575c-2.421,0.742-5.152,1.781-7.776,3.119c-0.803,0,1.71-1.273,1.482-1.324
										c0.418-0.181,0.838-0.349,1.26-0.516c-0.014,0.156-2.525,1.29-1.308,0.995c2.084-1.158,3.151-1.385,5.178-2.437
										c-0.798-0.14-2.792,1.062-4.238,1.442c0.577-0.236,1.039-0.491,1.493-0.731c-1.308,0.49-2.684,1.087-4.106,1.808
										l-0.267,0.255c0.953-0.491,1.632-0.792,1.722-0.822c-1.283,0.611-2.207,1.407-2.144,1.689l0.219-0.12l-0.388,0.337
										C28.149,18.731,27.859,18.889,27.576,19.054z M39.205,89.731c-0.089,0.003-0.16,0.017-0.217,0.041
										C39.046,89.747,38.996,89.709,39.205,89.731z M53.932,12.379c-1.885-0.301-3.812-0.492-5.66-0.514
										c1.669,0.254,3.046,0.611,3.333,0.798c0.286,0.211-0.506,0.173-3.215,0.145l-0.351,0.044
										c0.704,0.048,1.92,0.077,3.069,0.118c0.47-0.073,1.471-0.207,2.364-0.311c0.89-0.096,1.671-0.163,1.659-0.193
										c-0.309-0.209-0.82-0.118-1.421-0.244L53.932,12.379z M55.126,13.479c1.029,0.247,0.813,0.092,0.995,0.013
										c-0.369-0.055-0.737-0.116-1.105-0.158C55.152,13.384,55.213,13.433,55.126,13.479z M56.08,13.374
										c-0.115-0.026-0.215-0.048-0.266-0.075L56.08,13.374z M35.588,14.698l0.101-0.044l-0.733,0.234
										C35.058,14.87,35.247,14.815,35.588,14.698z M37.73,14.29l0.189-0.258l-0.699,0.181
										C37.324,14.275,37.428,14.326,37.73,14.29z M44.594,13.632c0.406-0.287,1.853-0.4,1.928-0.674
										c0.089-0.077-0.22-0.083-0.567-0.083c-0.384,0.014-0.794,0.046-1.23,0.077c-0.013,0.041-0.096,0.082-0.234,0.137
										c0.431-0.011,0.721,0.039,0.565,0.219c-1.133-0.258-0.955,0.352-2.132,0.419C42.58,13.963,44.247,13.74,44.594,13.632z
										 M78.955,76.504c-0.039,0.01-0.16,0.063-0.323,0.142l0.425-0.739c0.966-1.133,1.985-1.909,2.429-3.236
										c0.41-0.487,0.736-0.688,1.032-0.895c-0.172,0.265-0.33,0.509-0.48,0.703c-0.808,1.753-1.236,2.079-1.59,2.321
										C80.083,75.039,79.786,75.202,78.955,76.504z M87.082,61.22c-0.022,0.159,0.009,0.226,0.009,0.226
										c0.349-3.436,0.428-6.189,0.52-8c-0.203,0.345-0.465,1.944-0.638,2.69l-0.161-0.692l0.217-0.404
										c-0.045-0.395-0.077-0.786-0.132-1.18c-0.162,0.318-0.196,1.254-0.379,1.865c0.052,0.058,0.064,2.084,0.085,2.668
										c0.146-0.521,0.274-1.049,0.397-1.577c-0.104,0.429-0.402,2.559-0.554,3.406c0.113,0.044,0.589-1.377,0.365-1.606
										c0.21-0.145-0.122,1.539,0.267,0.511c-0.054,1.305-0.716,3.27-1.089,4.143l-0.316,0.07
										c-0.427,0.946,0.118,0.774-0.455,1.889c0.456-1.449-0.376,0.134,0.002-1.006c-0.228,0.325-0.28-0.09-0.668,1.039
										c-0.007,1.064-0.673,1.081-0.742,2.068c-0.358,0.523,0.065-0.705-0.479,0.396c-0.417,1.36-0.28,1.345-0.064,1.549
										c0.663-1.167,0.326-1.504,0.823-2.467c-0.14,0.721-0.296,1.446-0.475,2.17c0.238-0.332,0.365-0.603,0.457-0.838
										c-0.161,0.411-0.257,0.78-0.317,1.109l-0.102,0.519c0.575-1.111,1.019-2.132,1.204-2.266l0.051,0.214
										c0.3-0.357,0.484-1.07,0.517-1.416c0.405-1.052,0.574-2.177,0.814-2.355l-0.017,0.444
										C86.613,63.056,86.647,62.905,87.082,61.22z M73.214,20.425c0.18,0.453,0.382,0.907,0.903,1.554
										c0.516,0.66,1.359,1.502,2.73,2.859l-0.236-0.193c1.119,1.59,2.869,2.548,3.979,4.695
										c-0.819-0.822-0.769-0.793-1.873-1.519c0.291,0.287,0.569,0.581,0.854,0.879c-0.417-0.11,0.427,0.771,0.911,1.522
										c-0.239-0.156-0.466-0.314-0.707-0.462c-0.227-0.492-1.035-1.608-1.074-1.53c0.224,0.215-0.819-1.688-1.695-2.469
										c-0.058,0.219,1.586,2.013,0.614,1.415c0.727,0.634,0.635,0.863,1.301,1.604c-0.694-0.67-0.376-0.01-0.932-0.467
										c0.357,0.402,0.698,0.818,1.039,1.238c-0.019,0.059-1.555-1.767-0.949-0.567c0.488,0.433,1.361,1.916,1.562,1.816
										l-0.037,0.075c0.617,1.031,0.581,0.254,1.249,1.59c0.107-0.044,0.025-0.33-0.271-0.774c-0.296-0.348-0.449-0.331-1-1.074
										c-0.083-0.445,0.607,0.938,0.502,0.235c-0.045-0.363-1.521-1.936-0.85-1.582c0.22,0.343,0.453,0.676,0.665,1.023
										c0.208-0.105,0.695,0.636,0.835,0.518c0.481,0.586,0.639,1.324,1.189,1.891c0.284,0.208,0.264-0.426,0.773,0.759
										c0.208,1.03,1.496,3.655,1.91,4.681l0.47,0.853c0.117-0.126-0.666-1.722-0.274-1.207c0.206,0.463,0.391,0.93,0.577,1.401
										l-0.122-0.082c0.143,0.481,0.396,0.937,0.577,1.361c-0.291-0.406-0.583-1.455-0.739-1.171
										c0.185,0.684,0.13,0.812,0.365,1.417c-0.06-0.129-0.12-0.237-0.144-0.211c0.307,1.389,0.639,1.249,0.808,1.578
										c0.671,1.328-0.091-1.489,0.179-1.379c0.442,1.356,0.814,2.739,1.107,4.139c-0.134-0.348-0.291-0.693-0.355-0.539
										c0.076,1.048-0.17,0.057,0.083,1.495c0.314-0.154,0.471,1.797,0.727,2.823c-0.102,0.496-0.111,0.595-0.207-0.463
										c-0.188,0.14-0.008,1.549-0.013,2.057c0.065,0.29,0.108,0.788,0.161,1.103c0.097-0.427,0.243-0.249,0.333,0.679
										l0.044,0.053c0.089-1.516,0.155-3.911-0.191-4.837l0.137,0.258c-0.002-1.797-0.96-3.731-0.759-4.604
										c0.173,0.039-0.043-0.354,0.187-0.377c-0.164-0.411-0.323-0.821-0.499-1.223l0.173,0.234
										c-0.214-0.711-0.437-1.422-0.688-2.12l0.062,0.045c-0.53-0.943-0.984-1.649-1.356-2.204
										c-0.093,0.035-0.098,0.108-0.294-0.185c-0.184-0.301-0.293-0.54-0.375-0.763h-0.001h0.001
										c-0.192-0.498-0.198-0.892-0.44-1.511c0.307,0.607,0.594,1.227,0.866,1.852c0.217,0.087,0.329-0.145,0.022-1.117
										c0.176,0.374,0.369,0.479,0.174,0.001c-0.058-0.038-0.668-1.186-0.583-0.678c-0.871-1.735-2.057-4.771-4.141-6.967
										c1.438,1.612-0.845-1.523,0.636,0.357c-0.786-1.507-1.067-0.998-2.115-2.324c-0.021-0.172,0.586,0.711,0.975,0.899
										c-1.715-2.276-3.467-3.293-5.447-5.127l0.052-0.238C74.16,21.111,73.703,20.768,73.214,20.425z M68.631,17.626
										c-0.464-0.24-0.935-0.481-1.42-0.707l0.132,0.078c-0.48-0.199-0.975-0.378-1.462-0.561c0.82,0.506,1.262,0.993,0.032,0.496
										c0.14-0.03-0.16-0.304,0.276-0.14c-0.731-0.526-2.488-1.426-2.146-0.924c1.688,0.42,0.199,0.526,1.504,0.889
										c-0.734-0.122-1.342-0.498-2.002-0.671c0.716,0.115,0.013-0.441-0.959-0.902c-0.445-0.13-1.619-0.587-2.379-0.733
										c0.201,0.268-0.465,0.173,0.702,0.603c-0.451-0.096-1.131-0.272-1.866-0.581c0.315,0.046,0.845,0.188,0.83,0.107
										c-0.438-0.325-1.024-0.473-1.325-0.633l-0.778-0.163c0.071,0.037,0.131,0.073,0.171,0.112l-0.894-0.03
										c1.159,0.17,0.502,0.21,0.461,0.316c0.085-0.223-0.723-0.194-1.11-0.268l0.789,0.416c-0.428,0.027-1.398-0.473-1.234-0.188
										l4.042,0.993l-0.59-0.371c1.824,0.424,1.012,0.627,2.959,1.332c0.879,0.129,2.878,1.216,3.061,0.938
										c-0.276-0.025,1.03,0.846,1.725,1.057c0.854,0.086,2.928,1.338,2.384,0.833c-0.551-0.361-1.394-0.658-1.751-1.093
										c0.379,0.189,0.758,0.382,1.13,0.587c-0.207-0.193-0.414-0.392-0.63-0.579C68.625,18.109,68.673,17.947,68.631,17.626z
										 M40.391,11.05l-0.053,0.009l0.057-0.012L40.391,11.05z"/>
									<path fill="#53672E" d="M64.37,88.454c-0.309,0.225-1.17,0.56-0.938,0.648C63.343,88.944,64.943,88.435,64.37,88.454z"/>
									<path fill="#53672E" d="M63.286,88.711c-0.044,0.067,0.023,0.115-0.357,0.271c0.349-0.147,0.692-0.313,1.034-0.471
										L63.286,88.711z"/>
									<path fill="#53672E" d="M61.772,87.931c-0.485,0.325-0.8,0.522-1.655,0.784c-0.453-0.322,1.349-0.577,1.576-1.123
										c-1.529,0.504-1.885,1.027-3.17,1.423C59.22,89.06,61.855,88.292,61.772,87.931z"/>
									<path fill="#53672E" d="M62.237,87.14l-0.798,0.409l0.091-0.004c0.272-0.128,0.534-0.276,0.801-0.414L62.237,87.14z"/>
									<path fill="#53672E" d="M80.771,78.446c0.165,0.021,0.445-0.546,0.622-0.822C81.219,77.827,80.955,78.095,80.771,78.446z"
										/>
									<path fill="#53672E" d="M19.313,81.888c1.833,1.72,3.813,3.273,5.913,4.638C23.431,85.326,21.798,84.161,19.313,81.888z"/>
									<path fill="#53672E" d="M89.256,55.66c-0.07,1.978,0.044,2.896-0.313,4.896c0.419-1.275,0.453-2.175,0.459-3.01
										c0.004-0.837-0.013-1.608,0.213-2.715C89.498,55.112,89.383,55.388,89.256,55.66z"/>
									<path fill="#53672E" d="M90.314,56.48c-0.294,0.303-0.157-1.586-0.387-1.308c-0.063,1.354,0.208,0.653,0.038,1.874
										L90.314,56.48z"/>
									<polygon fill="#53672E" points="84.118,63.992 84.159,63.428 84.07,63.862 									"/>
									<polygon fill="#53672E" points="90.085,47.288 90.168,47.503 90.136,46.485 									"/>
									<path fill="#53672E" d="M90.252,47.72l-0.084-0.217L90.252,47.72z"/>
									<path fill="#53672E" d="M83.794,63.144l-0.307,0.746l-0.021,0.415C83.585,63.922,83.693,63.533,83.794,63.144z"/>
									<path fill="#53672E" d="M86.743,56.39l-0.013,0.756C86.744,56.996,86.968,55.989,86.743,56.39z"/>
									<path fill="#53672E" d="M89.08,41.191l-0.363-0.93l0.002,0.106c0.119,0.308,0.25,0.615,0.361,0.928V41.191z"/>
									<path fill="#53672E" d="M86.251,50.568c-0.179,0.51-0.118-1.458-0.25-0.409C86.064,51.077,86.155,50.701,86.251,50.568z"/>
									<path fill="#53672E" d="M85.701,39.561c-0.041-0.118-0.092-0.24-0.152-0.352L85.701,39.561z"/>
									<path fill="#53672E" d="M85.701,39.561c0.134,0.381,0.166,0.794,0.309,1.038C85.948,40.093,85.867,39.926,85.701,39.561z"
										/>
									<path fill="#53672E" d="M83.939,35.298l0.141,0.337c-0.248-0.294-0.16-0.145,0.051,0.125
										c0.166,0.35,0.217,0.305,0.278,0.327l0.167,0.187l-0.197-0.263C84.135,35.467,83.971,35.135,83.939,35.298z"/>
									<path fill="#53672E" d="M75.755,19.182c1.073,1.003,1.316,1.3,1.153,1.361c0.984,0.975,1.007,0.638,1.658,1.175
										C77.415,20.64,77.229,20.361,75.755,19.182z"/>
									<path fill="#53672E" d="M78.566,21.718l0.395,0.382C78.805,21.934,78.683,21.816,78.566,21.718z"/>
									<path fill="#53672E" d="M84.227,40.834c-0.154-0.232-0.311-0.461-0.478-0.685l0.126,0.264L84.227,40.834z"/>
									<path fill="#53672E" d="M74.094,17.771c0.211,0.173,0.564,0.428,0.698,0.607C74.956,18.292,73.882,17.596,74.094,17.771z"
										/>
									<path fill="#53672E" d="M76.205,23.69c0.038,0.163,0.687,0.743,0.907,1.025C76.771,24.342,76.694,23.828,76.205,23.69z"/>
									<path fill="#53672E" d="M70.255,15.978c0.228,0.146,0.521,0.453,0.299,0.473C70.919,16.594,71.525,16.627,70.255,15.978z"
										/>
									<path fill="#53672E" d="M74.394,21.984l0.111,0.169c0.255,0.181,0.514,0.357,0.765,0.544
										C74.986,22.451,74.687,22.22,74.394,21.984z"/>
									<path fill="#53672E" d="M75.136,25.91c0.833,0.581-0.783-1.454,0.537-0.335c-1.436-1.718-0.063,0.303-1.21-0.867
										C75.11,25.418,75.255,25.928,75.136,25.91z"/>
									<path fill="#53672E" d="M74.463,24.707c-0.092-0.104-0.199-0.209-0.321-0.32L74.463,24.707z"/>
									<path fill="#53672E" d="M63.203,16.012c0.145,0.038,0.246,0.056,0.342,0.073C63.433,16.054,63.32,16.028,63.203,16.012z"/>
									<path fill="#53672E" d="M70.353,21.511c0.461,0.207,0.914,0.437,1.368,0.666c-0.89-0.491-2.958-1.903-2.994-1.559
										c0.649,0.481,1.479,0.98,1.878,1.117L70.353,21.511z"/>
									<path fill="#53672E" d="M55.559,9.93l0.739,0.016C55.999,9.873,55.701,9.82,55.4,9.757
										C55.651,9.84,55.152,9.97,55.559,9.93z"/>
									<path fill="#53672E" d="M55.228,9.723L55.4,9.757C55.363,9.743,55.309,9.73,55.228,9.723z"/>
									<path fill="#53672E" d="M65.922,17.094c0.438,0.239,0.795,0.416,1.221,0.591C67.006,17.541,65.916,16.926,65.922,17.094z"
										/>
									<path fill="#53672E" d="M50.42,9.804c0.4-0.002,0.8,0.016,1.197,0.022c-0.436-0.019-0.869-0.046-1.304-0.053L50.42,9.804z"
										/>
									<path fill="#53672E" d="M44.801,9.45L44.59,9.416l-0.985,0.203l0.217,0.03C44.147,9.574,44.475,9.511,44.801,9.45z"/>
									<path fill="#53672E" d="M51.7,15.01c0.707,0.089,1.289-0.086,1.11-0.166c-0.461-0.055-0.926-0.087-1.387-0.126
										c0.333,0.258,0.384,0.021,1.183,0.165C52.304,14.915,52.001,14.966,51.7,15.01z"/>
									<path fill="#53672E" d="M11.504,31.671c0.022-0.388,0.978-1.83,1.151-1.826c-0.072,0.226-0.496,1.054-0.12,0.599
										c0.133-0.445,0.255-0.902,0.403-1.347c1.172-1.393-0.355,1.405-0.644,2.248c0.958-1.545,1.036-2.138,2.154-3.734
										c-0.365,0.446-0.634,0.7-0.875,0.907c-0.253-0.087,0.862-1.547,1.661-2.583c-0.592,0.597-0.385,0.15-0.083-0.392
										c0.063-0.091,0.098-0.156,0.116-0.207l0.103-0.185l-0.101,0.122c-0.014-0.026-0.065-0.02-0.174,0.039
										c-0.631,0.916-1.3,1.476-1.716,2.065c0.371-0.172,0.047,0.341-0.415,1.005c-0.455,0.666-1.024,1.502-1.194,1.923
										l-0.477,0.919l-0.185,0.337c-0.079,0.049-0.077-0.077,0.136-0.635c-0.175,0.469-0.963,1.915-0.767,1.842
										c-0.561,1.117-1.07,2.256-1.536,3.419c-0.061,0.102-0.124,0.204-0.182,0.271c-0.025,0.134-0.011,0.161,0.015,0.152
										c-1.96,5.116-2.884,10.575-2.773,16.015c0.017-0.804,0.12-1.501,0.191-2.325c0.234,1.248,0.104-1.353,0.362-0.971
										c0.061,0.558,0.003,1.362-0.069,1.843c0.129,0.184,0.265-0.501,0.422-0.416c0.241-2.002-0.367-2.357-0.042-4.332
										c0.152,0.1,0.206,0.721,0.355-0.563L7.21,46.193c0.132-2.078,0.603-1.527,0.42-2.888l0.218,0.082
										c0.009-0.955,0.456-2.731,0.737-3.725l0.024,0.071c0.301-1.421,0.441-1.807,0.601-2.234l0.938-2.4
										c-0.112,0.496-0.233,0.985-0.329,1.482c0.523-0.993,0.359-1.334,0.719-2.055c0.016,0.071,0.246-0.028-0.027,0.676
										c0.398-1.249,0.865-2.483,1.386-3.697C12.212,30.595,11.656,31.585,11.504,31.671z"/>
									<path fill="#53672E" d="M14.45,27.612c0.131-0.163,0.274-0.352,0.431-0.585L14.45,27.612z"/>
									<path fill="#53672E" d="M6.042,53.771C6.02,53.391,6.01,53.01,6.003,52.626C5.998,52.981,5.998,53.351,6.042,53.771z"/>
									<path fill="#53672E" d="M17.665,22.892c-0.557,0.424,0.232-0.5,0.26-0.642c-0.581,0.597-1.137,1.214-1.684,1.846
										c0.074,0.048-0.009,0.303,0.085,0.314C16.761,23.893,17.207,23.388,17.665,22.892z"/>
									<path fill="#53672E" d="M15.648,24.543c-0.008,0.104-0.135,0.343-0.277,0.609c0.279-0.363,0.58-0.705,0.87-1.056
										C16.187,24.06,16.042,24.139,15.648,24.543z"/>
									<path fill="#53672E" d="M19.442,27.386l-0.25,0.309L18.873,28.2C19.058,27.924,19.247,27.654,19.442,27.386z"/>
									<path fill="#53672E" d="M15.532,32.207c0.358-0.338,0.75-1.153,0.893-1.423C15.862,31.659,16.063,31.253,15.532,32.207z"/>
									<path fill="#53672E" d="M17.423,31.893l-0.446,0.86l0.068-0.063C17.168,32.424,17.292,32.157,17.423,31.893z"/>
									<path fill="#53672E" d="M8.15,61.933l0.146,0.513C8.233,62.21,8.192,62.055,8.15,61.933z"/>
									<path fill="#53672E" d="M6.692,52.712c-0.188,2.614-0.257-1.704-0.555-0.888c0.032,0.479,0.086,0.956,0.132,1.43
										l-0.091-0.118c0.029,0.581,0.063,1.164,0.119,1.747c0.125-0.37,0.117-0.638,0.282-0.569
										c0.113,2.322-0.144,0.744-0.171,2.472c0.105,0.865,0.254,1.725,0.415,2.581L6.74,59.167
										c0.04,0.217,0.076,0.312,0.116,0.378c0.571,2.885,1.439,5.7,2.59,8.396c0.73,1.421-0.072-0.919,0.593,0.072
										c-0.739-1.688-1.39-4.328-1.721-4.393c0.059,0.046,0.178,0.138,0.108-0.229l-0.535-0.953l0.189,1.002
										c-0.27-0.481-0.627-1.565-0.847-2.627C7,59.754,6.89,58.73,6.919,58.408c0.205,0.969,0.352,1.189,0.487,1.508
										c0.135,0.324,0.243,0.744,0.489,2.09c0.048-0.14,0.064-0.656,0.255-0.073C7.296,58.86,7.041,56.005,6.692,52.712z"/>
									<path fill="#53672E" d="M19.133,81.362l-0.038,0.006C19.146,81.396,19.168,81.4,19.133,81.362z"/>
									<path fill="#53672E" d="M18.414,80.575c-0.428-0.307-0.86-0.613-1.281-0.936c0.542,0.604,1.109,1.184,1.682,1.757
										l0.28-0.028c-0.188-0.117-0.868-0.643-1.026-0.947L18.414,80.575z"/>
									<path fill="#53672E" d="M15.813,78.378c0.876,0.916,1.034,0.683,0.68,0.091c0.833,0.795,0.18,0.646,0.908,1.059
										c0.117-0.141-0.888-1.131-1.113-1.366L15.813,78.378z"/>
									<polygon fill="#53672E" points="10.886,70.484 11.142,70.757 10.779,69.961 									"/>
									<path fill="#53672E" d="M11.142,70.757l0.374,0.782c0.043-0.092,0.083-0.179,0.066-0.329L11.142,70.757z"/>
									<path fill="#53672E" d="M12.574,73.553c0.176,0.325,0.379,0.677,0.642,1.097L12.574,73.553z"/>
									<polygon fill="#53672E" points="12.126,72.665 12.112,72.708 12.574,73.553 									"/>
									<path fill="#53672E" d="M11.516,71.539c-0.092,0.208-0.191,0.45,0.482,1.521l0.115-0.352
										C11.913,72.316,11.704,71.935,11.516,71.539z"/>
									<polygon fill="#53672E" points="13.943,38.025 13.719,38.876 13.777,38.799 14.002,37.948 									"/>
									<path fill="#53672E" d="M12.225,42.791c-0.024,0.22-0.029,0.386-0.027,0.541C12.227,43.104,12.244,42.921,12.225,42.791z"
										/>
									<path fill="#53672E" d="M12.723,46.678c-0.326,0.973-0.039-1.415-0.383,0.429c-0.188,0.145-0.297-0.765-0.057-1.63
										c0.14,0.097-0.044,0.869,0.206,0.359c-0.08-0.611,0.083-0.81-0.188-0.652c0.038-1.004-0.102-1.149-0.102-1.852
										c-0.089,0.605-0.315,1.519-0.486,2.492c-0.167,0.971-0.268,1.999-0.185,2.778c0.225,0.87,0.655,0.38,1.069,0.422
										C12.681,48.899,12.966,46.796,12.723,46.678z"/>
									<path fill="#53672E" d="M13.387,45.196c0.109-0.447,0.122-0.587,0.142-0.869C13.375,44.372,13.453,44.832,13.387,45.196z"
										/>
									<path fill="#53672E" d="M9.865,56.044c0.07,0.089,0.252,0.975,0.33,0.768c-0.08-0.446-0.161-0.896-0.227-1.345
										C9.991,55.785,9.929,55.906,9.865,56.044z"/>
									<path fill="#53672E" d="M9.886,54.873l0.083,0.594C9.962,55.316,9.931,55.135,9.886,54.873z"/>
									<path fill="#53672E" d="M9.836,56.113l0.029-0.069C9.851,56.027,9.838,56.03,9.836,56.113z"/>
									<path fill="#53672E" d="M14.486,76.601c-0.104,0.051,0.341,0.547,0.574,0.787C14.899,77.17,14.705,76.843,14.486,76.601z"
										/>
									<path fill="#53672E" d="M34.189,90.975l0.514,0.283C34.528,91.137,34.438,91.074,34.189,90.975z"/>
									<path fill="#53672E" d="M43.242,90.047c0.018-0.02,0.059-0.032,0.113-0.042C43.301,90.012,43.262,90.024,43.242,90.047z"/>
									<path fill="#53672E" d="M43.355,90.005c0.372-0.044,1.475,0.233,1.891,0.115l-0.057,0.041l0.757-0.027
										C45.242,90.105,43.778,89.932,43.355,90.005z"/>
								</g>
							</g>
						</g>
					</g>
				</g>
			</g>
		</g>
	</g>
</g>
</svg>
