<?xml version="1.0" encoding="utf-8"?>
<!-- Generator: Adobe Illustrator 18.1.0, SVG Export Plug-In . SVG Version: 6.00 Build 0)  -->
<svg version="1.0" id="Layer_1" xmlns="http://www.w3.org/2000/svg" xmlns:xlink="http://www.w3.org/1999/xlink" x="0px" y="0px"
	 viewBox="0 0 150 150" enable-background="new 0 0 150 150" xml:space="preserve">
<g>
	<polygon fill="none" points="46.4,54.9 27,54.9 16.1,69.9 46.4,69.9 	"/>
	<path fill="#0080A1" d="M20.1,94.6c0-2.2,0.9-4.1,2.3-5.5c1.4-1.4,3.4-2.3,5.5-2.3c1.9,0,3.6,0.7,5,1.9c9.6-10.9,20.6-16,21.2-16.5
		l-1,4c1.6-1.9,10.3-6.2,10.3-6.2c-4.7,11.8-3.4,24.9-2.3,26.9c1.2,2,3.2,2.2,3.4,2.3l5.4,0.5c12.2-8.5,27.4-21.6,45.8-41.7V42.8
		c-21.8-5.2-48.2-4.6-62.7-0.3v4.2H33.5c-3.6,0.4-12.5,2.2-16.8,8.6v-0.2L6.9,68.6v14.8H4.8v14.9h2.1h3.3h2.1c0.7,3,2.2,5.6,4.3,7.7
		c1.6,1.6,3.6,2.9,5.8,3.7c0-2.9,1-5.8,1.9-8.1c-0.7-0.4-1.4-0.8-1.9-1.4C21,98.7,20.1,96.8,20.1,94.6z M16.1,69.9l10.9-15h19.4v15
		H16.1z"/>
	<path fill="#404048" d="M36.6,116.1c0,0,11.7-3.8,17.2-6.3c0,0-24.8-0.4-2.5-32.3c0,0-17.2,15.5-22.2,23.5
		C29.1,101,17.7,119.5,36.6,116.1z"/>
	<path fill="#505262" d="M48,103.1c0,0,3.4,7.6,15.1,1.7c0,0-15.5-0.8-5-27.3C58,77.5,43.3,90.9,48,103.1z"/>
	<path fill="#0080A1" d="M144.9,30.1C65.2,131.2,29.5,120.3,29.5,120.3C74.4,148,144.9,30.1,144.9,30.1z"/>
	<path fill="#009E73" d="M49.8,128.1c-0.2,0-0.4,0.1-0.6,0.1c0,0,0.2,0,0.6,0c6.5,0.4,68.9,1.7,88-80.2
		C137.8,48.1,99,116,49.8,128.1z"/>
</g>
</svg>
