<?xml version="1.0" encoding="iso-8859-1"?>
<!-- Generator: Adobe Illustrator 13.0.0, SVG Export Plug-In . SVG Version: 6.00 Build 14948)  -->
<!DOCTYPE svg PUBLIC "-//W3C//DTD SVG 1.1//EN" "http://www.w3.org/Graphics/SVG/1.1/DTD/svg11.dtd">
<svg version="1.1" id="Layer_1" xmlns="http://www.w3.org/2000/svg" xmlns:xlink="http://www.w3.org/1999/xlink" x="0px" y="0px"
	 width="100px" height="100px" viewBox="0 0 100 100" enable-background="new 0 0 100 100" xml:space="preserve">
<g>
	<path fill="#1A77BB" d="M77.357,55.793c2.4-5.572,3.624-11.297,3.621-17.151c0.003-4.833-1.01-9.092-3.077-12.708
		c-0.176-0.308-0.361-0.6-0.544-0.893V10.183H18.254v26.838L8.269,93.111h1.403h22.793l2.314-12.869h42.579V55.793z M11.074,90.761
		l12.624-70.917l19.057-0.103l-1.128,6.772l0.002,0.972c2.187-3.107,4.937-5.368,8.327-6.852c3.466-1.515,6.728-2.251,9.811-2.251
		c0.999,0,2.031,0,3.098,0c0.896,0.202,1.807,0.372,2.729,0.511c0.676,0.093,1.875,0.555,3.408,1.427
		c2.742,1.316,4.999,3.517,6.861,6.776c1.832,3.214,2.769,7.036,2.769,11.545c0,5.759-1.229,11.37-3.704,16.874
		c-2.468,5.478-6.02,9.92-10.693,13.395c-4.653,3.445-9.812,5.146-15.634,5.152c-5.305-0.033-9.067-2.114-11.838-6.541l-1.613-2.604
		l-4.647,25.843H11.074z"/>
	<path fill="#FFFFFF" d="M37.406,49.757l0.013-0.08c0.782-5.627,2.166-9.932,4.303-12.94c2.114-3.013,5.134-4.655,8.653-4.63
		c2.617-0.012,4.845,0.817,6.302,2.568c1.45,1.746,2.072,4.181,2.072,7.201c0,2.387-0.254,4.548-0.771,6.484
		c-0.513,1.916-1.282,3.792-2.319,5.648c-2.134,3.608-5.451,5.599-9.461,5.599c-0.035,0-0.068,0-0.103,0
		c-2.714,0.011-5.002-0.805-6.52-2.551c-1.512-1.739-2.167-4.194-2.168-7.217V49.757z"/>
	<path fill="#1A77BB" d="M46.095,59.607c0.035,0,0.068,0,0.103,0c4.01,0,7.328-1.99,9.461-5.599
		c1.037-1.856,1.807-3.733,2.319-5.648c0.517-1.937,0.771-4.098,0.771-6.484c0-3.021-0.622-5.456-2.072-7.201
		c-1.457-1.75-3.685-2.58-6.302-2.568c-3.519-0.025-6.539,1.617-8.653,4.63c-2.137,3.008-3.521,7.313-4.303,12.94l-0.013,0.08v0.083
		c0.002,3.022,0.656,5.478,2.168,7.217C41.092,58.803,43.38,59.618,46.095,59.607z"/>
</g>
</svg>
