<?xml version="1.0" encoding="utf-8"?>
<!-- Generator: Adobe Illustrator 18.1.0, SVG Export Plug-In . SVG Version: 6.00 Build 0)  -->
<svg version="1.1" id="Layer_1" xmlns="http://www.w3.org/2000/svg" xmlns:xlink="http://www.w3.org/1999/xlink" x="0px" y="0px"
	 viewBox="0 0 150 150" enable-background="new 0 0 150 150" xml:space="preserve">
<g>
	<path fill="none" d="M102.6,130.1c1.1-1.6-1-3-2.8-3.4c-0.5,0.3-1.1,0.7-1.6,1C98.9,128.7,101.5,131.6,102.6,130.1z"/>
	<path fill="none" d="M74.7,14.8c0.1,0,0.1,0.1,0.2,0.1C74.9,14.6,74.9,14.3,74.7,14.8z"/>
	<path fill="none" d="M84.5,39.4c0.1,0,0.1-0.1,0.2-0.1C84.5,38.9,84.5,39.2,84.5,39.4z"/>
	<path fill="none" d="M51.7,120.4c1.9,1.7,4.7,0.4,6.6-0.9c-0.4-0.3-0.8-0.5-1.2-0.8L51.7,120.4z"/>
	<path fill="none" d="M67.2,13.6c-1.9,3.4,5.4,2.1,7.2,1.8c0.1-0.3,0.2-0.5,0.3-0.6C71.9,13,68.1,12,67.2,13.6z"/>
	<path fill="none" d="M91.1,38.5c-0.7-1.4-4-0.6-6.4,0.8c0.1,0.1,0.1,0.3,0.2,0.5C86.4,40.2,92.6,41.4,91.1,38.5z"/>
	<path fill="#EE7686" d="M60.4,9.6c-21.2,11.7-7,27.4-7,27.4C73.4,32.6,60.4,9.6,60.4,9.6z"/>
	<path fill="#EE7686" d="M102.4,58.9c0,0,12.5-13.1-5.4-23.6C97,35.2,85.4,54.7,102.4,58.9z"/>
	<path fill="#EE7686" d="M84.5,39.4c0,0.2,0.1,0.4,0.1,0.4s0.1,0,0.3,0.1c-0.1-0.2-0.2-0.4-0.2-0.5C84.6,39.4,84.6,39.4,84.5,39.4z"
		/>
	<path fill="#EE7686" d="M73.8,16.7c0.2-0.6,0.4-1,0.6-1.3c-1.8,0.3-9,1.6-7.2-1.8c0.9-1.6,4.7-0.5,7.5,1.2c0.2-0.5,0.2-0.2,0.2,0.1
		c3.7,2.4,5.4,5.8-4.2,5.4c0,0,13.6,4.7,9.8-2.6c-3.8-7.4-15.9-11.2-16.7-6C62.9,16.9,72.2,20.7,73.8,16.7z"/>
	<path fill="#EE7686" d="M78.7,13.8l0.5-5.9l-3.9,0c-6.8-2-9.9,0.9-9.9,0.9C77,7,78.7,13.8,78.7,13.8z"/>
	<path fill="#EE7686" d="M66.5,22.7c1.5,14.1-10,15.4-10,15.4C73,43.8,82.3,26.4,82.3,26.4C74.7,19.1,66.5,22.7,66.5,22.7z"/>
	<path fill="#EE7686" d="M79.7,41.7C76.2,48,88,44.2,88,44.2c-8.2,0.1-6.7-2.8-3.5-4.8c0-0.3,0-0.5,0.2-0.1c2.4-1.4,5.7-2.3,6.4-0.8
		c1.5,2.9-4.7,1.7-6.2,1.4c0.1,0.3,0.3,0.7,0.4,1.2c1.3,3.4,9.3,0.4,8.8-4.1C93.6,32.5,83.1,35.5,79.7,41.7z"/>
	<path fill="#EE7686" d="M77.9,49.1c0,0,7.6,15.1,21.9,10.7c0,0-9.8-1.3-8.2-13.4C91.5,46.4,84.6,43.1,77.9,49.1z"/>
	<path fill="#EE7686" d="M74.4,15.4c0.2,0,0.4-0.1,0.4-0.1s0.1-0.2,0.1-0.4c-0.1,0-0.1-0.1-0.2-0.1C74.6,14.9,74.5,15.1,74.4,15.4z"
		/>
	<path fill="#EE7686" d="M81.2,38.4c0,0,1.6-5.8,11.5-3.9c0,0-2.7-2.6-8.5-1l-3.3-0.1L81.2,38.4z"/>
	<path fill="#909A34" d="M45.7,39.3l-3.9-8.1c0,0,5.8,8.7,7.5,4.5c0,0,4.1-8.1-11.6-13.6C37.6,22.1,35.7,38.2,45.7,39.3z"/>
	<path fill="#909A34" d="M126.6,74.2c-6.6-12.4-28.5-19.5-38.7-7.6c-7.3,8.5-6.5,28.9,8.8,25c2.9-0.7,6-4.5,5.8-7.6
		c0,0.3-1.5,1.6-1.4,2.3c0.3,5.4-10.5,3.4-13,0.9c-5.6-5.8-4.3-17,2.1-21.4c1.6-1.1,3.4-1.9,5.2-2.4c-1.6,1.2-6.6,5.8-0.4,14.2
		l2.1,4.1c0,0,7.1-7.3,2-17.2l-3.6,7.1l0.3-8.3c12.1-3.1,26.9,6,31,17c2,5.4,2,10.5,0.6,15.2c-0.1,0.5-0.3,1-0.4,1.4
		c-4.4,12.6-18.3,22.5-29,29.4c0.1,0.2,0.3,0.4,0.3,0.6c0.1,0.2,0.2,0.3,0.2,0.3c-0.2-0.1-0.3-0.1-0.4-0.2c-0.2-0.1-0.4-0.2-0.6-0.4
		c-4.4,2.8-10.3,5.7-15.1,9.5c-1.7-4.5-6.5-7.8-10.2-10.5c-3.4-2.5-6.8-4.8-10.3-7.1c-0.2,0-0.4,0-0.6,0c0,0,0.1-0.1,0.3-0.3
		c-0.3-0.2-0.5-0.3-0.8-0.5c-0.1,0.5-0.3,1-0.5,1.4c-0.2,0.4-0.5,0.8-0.9,1.1c2.9,1.9,5.7,3.8,8.5,5.7c4.3,2.9,10.3,6.6,12.7,11.7
		c-2.8,2.6-5,5.5-5.8,9.1c0.1-0.5,1.2-1.5,1.4-2.3c0.5-2.2,2.9-4.1,4.9-5.5c0.1,0.4,0.3,0.8,0.3,1.2c-0.1-0.5,1.6-1.7,1.4-2.4
		c0,0,0,0,0,0c3.2-2.3,6.5-4.4,9.9-6.4c1.7-1.1,3.4-2.1,5.1-3.2c0-0.2,0-0.3,0-0.5c0,0,0.1,0.1,0.3,0.3c0.5-0.3,1.1-0.7,1.6-1
		c-0.2-0.1-0.5-0.1-0.7-0.1c0,0,0.6-0.2,1.5-0.3c1.2-0.8,2.3-1.6,3.5-2.4c-1.7,0.4-3,1.6-3,1.6c0.1-0.1,0.1-0.3,0.2-0.4
		c1.1-2,2.8-2.5,3.9-2.7c0.4-0.1,0.8,0,1,0c3-2.2,5.9-4.5,8.7-7.1C125.4,105.2,134.2,88.5,126.6,74.2z"/>
	<path fill="#909A34" d="M57.2,118.7c0.4,0.3,0.8,0.5,1.2,0.8c0.4-0.3,0.9-0.6,1.2-0.9c0.6-0.4,1-0.8,1.1-1c-3.1-2-6.2-4.1-9.2-6.2
		c-15.1-10.7-30.6-25.9-28.9-46.1C24.1,48.1,45.3,38,61,42.9L61,52l-4-8.4c-6.3,11.4,1.9,20.1,1.9,20.1l2.6-4.7
		c6.2-8,3.3-13.2,1.1-15.6c0.7,0.3,1.4,0.6,2,0.9c7.3,3.7,9.9,12.3,8.7,19.9c-0.6,4.2-2.9,8.1-7.3,9c-3.6,0.8-8.6-0.4-11-3.4
		c-0.7-0.9-1.1-2.3-1-3.5c0,0.4-1.4,1.5-1.4,2.3c-0.5,6,7.7,7.6,12,7c4.3-0.6,7.2-5.4,8.7-9c2.6-6.2,2.3-13.3-1.2-19.1
		c-4.1-6.9-12.8-8.8-20.3-8.3c-13.3,0.8-26,10.1-29.7,23.2c-5.3,18.9,8,35.6,21.8,46.7c3.3,2.7,6.8,5.1,10.3,7.5
		c2,0.7,3.7,1.7,3.7,1.7L57.2,118.7z"/>
	<path fill="#909A34" d="M106,57.8c1.4,3.7,6.5-3.7,6.5-3.7L109,61c8.6-0.7,7.3-14.6,7.3-14.6C102.7,50.8,106,57.8,106,57.8z"/>
	<path fill="#FCB8BD" d="M57.9,114.6c0,0-3.7-3.3-3.4-6.8c0.3-3.5-2.7-6-2.7-6s1.4,3.9,0.7,5.8C52.5,107.6,52.3,112.9,57.9,114.6z"
		/>
	<path fill="#FCB8BD" d="M105,122.3c-1.2,0.1-2.8,0.7-3.9,2.7c-0.1,0.1-0.1,0.2-0.2,0.4c0,0,1.4-1.1,3-1.6c0.7-0.2,1.4-0.2,2.1-0.1
		c2.4,0.6,4.5-1.3,4.5-1.3s-2.9,0.6-4.1-0.1c0,0-0.1,0-0.3,0C105.8,122.2,105.5,122.2,105,122.3z"/>
	<path fill="#FCB8BD" d="M99.7,126.6c1.9,0.5,4,1.8,2.8,3.4c-1.1,1.5-3.6-1.4-4.4-2.4c-0.2-0.2-0.3-0.3-0.3-0.3c0,0.2,0,0.4,0,0.5
		c0,2,1.3,3.3,3,3.9c2.1,0.7,4.6,0,4.6-2.6c0-3.3-3.1-3.3-5-3c-0.8,0.1-1.5,0.3-1.5,0.3C99.2,126.5,99.5,126.6,99.7,126.6z"/>
	<path fill="#FCB8BD" d="M98.6,127.1c0,0-0.1-0.1-0.2-0.3c-0.1-0.1-0.2-0.3-0.3-0.6c-0.9-1.4-2.2-4.3-0.5-5.7l0.7,4.5
		c0,0,5-6.1,0.7-7c-3.2-0.7-4,4.1-2.5,7.1c-1.4-1.2-3.7-3.8-3.7-6.7c-0.1-4.1-3.8-6.7-3.8-6.7s2.1,4.4,1.4,6.7c0,0,0.4,5.8,6.5,7.4
		c0.2,0.3,0.4,0.5,0.7,0.7c0.2,0.2,0.4,0.3,0.6,0.4C98.3,127,98.4,127,98.6,127.1z"/>
	<path fill="#FCB8BD" d="M60.8,117.7c0-0.1,0-0.1,0-0.2C60.8,117.5,60.8,117.6,60.8,117.7c-0.3,0.1-0.7,0.5-1.2,0.9
		c-0.4,0.3-0.8,0.6-1.2,0.9c-2,1.3-4.7,2.5-6.6,0.9l5.5-1.7l0.8-0.2c0,0-1.7-1-3.7-1.7c-2.8-1-6.1-1.4-6.4,2.2
		c-0.4,4.7,6.7,4.8,10.6,2c-1.5,2.2-4.6,5.9-8.6,6.6c-5.8,1-8.6,6.7-8.6,6.7s5.8-3.8,9.1-3.4c0,0,8.1-1.8,9-10.7c0,0,0,0,0.1-0.1
		c0.3-0.3,0.6-0.7,0.9-1.1C60.5,118.6,60.7,118.2,60.8,117.7z"/>
	<path fill="#FCB8BD" d="M61.9,118.4c2.9-0.3,4.6-2.6,5-5c0.6-3.1-1-6.5-4.6-6c-6.7,1-2.4,9.6-2.4,9.6c0-2.9,1.4-7.2,4.3-5.8
		c2.5,1.3-1.5,5.8-2.6,6.9c-0.2,0.2-0.3,0.3-0.3,0.3C61.5,118.5,61.7,118.5,61.9,118.4z"/>
</g>
</svg>
