<?xml version="1.0" encoding="utf-8"?>
<!-- Generator: Adobe Illustrator 18.1.0, SVG Export Plug-In . SVG Version: 6.00 Build 0)  -->
<svg version="1.1" id="Layer_1" xmlns="http://www.w3.org/2000/svg" xmlns:xlink="http://www.w3.org/1999/xlink" x="0px" y="0px"
	 viewBox="0 0 150 150" enable-background="new 0 0 150 150" xml:space="preserve">
<g>
	<path fill="none" d="M100.3,65.1c0,13.8-11.2,24.9-24.9,24.9S50.4,78.9,50.4,65.1c0-9.5,5.4-17.8,13.3-22c1-5.5,5.8-9.7,11.6-9.7
		c5.7,0,10.5,4.1,11.5,9.5C94.8,47.1,100.3,55.5,100.3,65.1z"/>
	<path fill="none" d="M55.7,65.1c0,10.8,8.8,19.6,19.6,19.6c10.8,0,19.6-8.8,19.6-19.6c0-6.7-3.4-12.6-8.6-16.2c-1.6,4.7-6,8-11.1,8
		c-5.1,0-9.5-3.3-11.1-7.9C59.1,52.7,55.7,58.5,55.7,65.1z"/>
	<linearGradient id="SVGID_1_" gradientUnits="userSpaceOnUse" x1="95.548" y1="65.9068" x2="83.1297" y2="66.2425">
		<stop  offset="0" style="stop-color:#4891CE"/>
		<stop  offset="1" style="stop-color:#015AA3"/>
	</linearGradient>
	<path fill="url(#SVGID_1_)" d="M86.3,49c5.2,3.5,8.6,9.5,8.6,16.2c0,10.8-8.8,19.6-19.6,19.6c-10.8,0-19.6-8.8-19.6-19.6
		c0-6.6,3.3-12.5,8.4-16c-0.4-1.2-0.7-2.5-0.7-3.9c0-0.7,0.1-1.4,0.2-2.1c-7.9,4.2-13.3,12.5-13.3,22c0,13.8,11.2,24.9,24.9,24.9
		s24.9-11.2,24.9-24.9c0-9.6-5.5-18-13.5-22.2c0.1,0.7,0.2,1.5,0.2,2.2C87,46.5,86.7,47.8,86.3,49z"/>
	<radialGradient id="SVGID_2_" cx="108.3865" cy="103.2719" r="76.3916" gradientUnits="userSpaceOnUse">
		<stop  offset="0" style="stop-color:#6DB36C"/>
		<stop  offset="2.057038e-02" style="stop-color:#6AB075"/>
		<stop  offset="0.1043" style="stop-color:#5DA595"/>
		<stop  offset="0.1911" style="stop-color:#549CAE"/>
		<stop  offset="0.2813" style="stop-color:#4D96C0"/>
		<stop  offset="0.3771" style="stop-color:#4992CB"/>
		<stop  offset="0.4876" style="stop-color:#4891CE"/>
		<stop  offset="0.5702" style="stop-color:#4A92CA"/>
		<stop  offset="0.6575" style="stop-color:#4E97BD"/>
		<stop  offset="0.747" style="stop-color:#569EA8"/>
		<stop  offset="0.838" style="stop-color:#62A98A"/>
		<stop  offset="0.9293" style="stop-color:#70B665"/>
		<stop  offset="1" style="stop-color:#7DC242"/>
	</radialGradient>
	<path fill="url(#SVGID_2_)" d="M110.7,49.3c2.1,4.8,3.3,10,3.3,15.5c0,21.3-17.3,38.6-38.6,38.6S36.7,86.2,36.7,64.9
		c0-5.5,1.2-10.7,3.2-15.5c-1.7-0.7-3.2-1.8-4.5-3.2c-2.7,5.7-4.2,12-4.2,18.6c0,24.3,19.7,44,44,44c24.3,0,44-19.7,44-44
		c0-6.7-1.5-13.1-4.2-18.8C113.9,47.5,112.4,48.6,110.7,49.3z"/>
	<linearGradient id="SVGID_3_" gradientUnits="userSpaceOnUse" x1="50.5989" y1="102.9017" x2="112.6903" y2="67.9962">
		<stop  offset="0" style="stop-color:#4891CE"/>
		<stop  offset="1" style="stop-color:#015AA3"/>
	</linearGradient>
	<path fill="url(#SVGID_3_)" d="M128.4,76.7c-5.2,24.5-27,43-53,43c-26.2,0-48.2-18.7-53.2-43.5c-1.4,0.6-3,1-4.7,1
		c-0.2,0-0.4,0-0.6,0c5.5,27.3,29.6,47.9,58.4,47.9c28.9,0,53.1-20.7,58.5-48.1c-0.7,0.1-1.5,0.2-2.2,0.2
		C130.5,77.1,129.4,77,128.4,76.7z"/>
	<linearGradient id="SVGID_4_" gradientUnits="userSpaceOnUse" x1="26.6129" y1="60.2342" x2="88.7043" y2="25.3288">
		<stop  offset="0" style="stop-color:#4891CE"/>
		<stop  offset="1" style="stop-color:#015AA3"/>
	</linearGradient>
	<path fill="url(#SVGID_4_)" d="M22.2,76.1c4.2-1.8,7.1-6,7.1-10.8c0-4.8-2.9-9-7.1-10.8c-1.4-0.6-3-1-4.7-1c-0.2,0-0.4,0-0.6,0
		c-6.2,0.3-11.2,5.4-11.2,11.7c0,6.3,5,11.4,11.2,11.7c0.2,0,0.4,0,0.6,0C19.1,77.1,20.7,76.8,22.2,76.1z M11.8,65.4
		c0-2.6,1.8-4.8,4.2-5.5c0.5-0.1,1-0.2,1.5-0.2c1.5,0,2.8,0.6,3.8,1.5c1.2,1,1.9,2.6,1.9,4.2c0,1.7-0.8,3.2-1.9,4.2
		c-1,0.9-2.3,1.5-3.8,1.5c-0.5,0-1-0.1-1.5-0.2C13.6,70.2,11.8,68,11.8,65.4z"/>
	<linearGradient id="SVGID_5_" gradientUnits="userSpaceOnUse" x1="54.3105" y1="109.5041" x2="116.4019" y2="74.5986">
		<stop  offset="0" style="stop-color:#4891CE"/>
		<stop  offset="1" style="stop-color:#015AA3"/>
	</linearGradient>
	<path fill="url(#SVGID_5_)" d="M143.4,65.9c0-5.6-4-10.3-9.4-11.3c-0.7-0.1-1.4-0.2-2.2-0.2c-1.1,0-2.2,0.2-3.2,0.5
		c-4.8,1.4-8.4,5.8-8.4,11.1c0,5.3,3.6,9.7,8.4,11.1c1,0.3,2.1,0.4,3.2,0.4c0.7,0,1.5-0.1,2.2-0.2C139.3,76.2,143.4,71.6,143.4,65.9
		z M134.9,70.6c-0.9,0.6-1.9,0.9-3.1,0.9c-0.8,0-1.6-0.2-2.2-0.5c-2-0.9-3.4-2.8-3.4-5.1c0-2.3,1.4-4.3,3.4-5.1
		c0.7-0.3,1.4-0.5,2.2-0.5c1.1,0,2.2,0.3,3.1,0.9c1.5,1,2.5,2.7,2.5,4.7C137.4,67.9,136.4,69.6,134.9,70.6z"/>
	<radialGradient id="SVGID_6_" cx="108.3865" cy="103.2719" r="76.3916" gradientUnits="userSpaceOnUse">
		<stop  offset="0" style="stop-color:#6DB36C"/>
		<stop  offset="2.057038e-02" style="stop-color:#6AB075"/>
		<stop  offset="0.1043" style="stop-color:#5DA595"/>
		<stop  offset="0.1911" style="stop-color:#549CAE"/>
		<stop  offset="0.2813" style="stop-color:#4D96C0"/>
		<stop  offset="0.3771" style="stop-color:#4992CB"/>
		<stop  offset="0.4876" style="stop-color:#4891CE"/>
		<stop  offset="0.5702" style="stop-color:#4A92CA"/>
		<stop  offset="0.6575" style="stop-color:#4E97BD"/>
		<stop  offset="0.747" style="stop-color:#569EA8"/>
		<stop  offset="0.838" style="stop-color:#62A98A"/>
		<stop  offset="0.9293" style="stop-color:#70B665"/>
		<stop  offset="1" style="stop-color:#7DC242"/>
	</radialGradient>
	<path fill="url(#SVGID_6_)" d="M100,28.5c-1.6,1-2.9,2.3-3.9,3.9c-1.1,1.8-1.8,3.9-1.8,6.2c0,6.5,5.3,11.8,11.8,11.8
		c1.6,0,3.2-0.3,4.6-0.9c1.7-0.7,3.2-1.9,4.4-3.3c1.7-2,2.8-4.7,2.8-7.5c0-6.5-5.3-11.8-11.8-11.8C103.9,26.8,101.8,27.4,100,28.5z
		 M111.8,38.5c0,0.5-0.1,1-0.2,1.5c-0.5,1.9-2,3.4-3.8,4c-0.5,0.2-1.1,0.3-1.7,0.3c-3.2,0-5.7-2.6-5.7-5.7c0-0.9,0.2-1.7,0.6-2.5
		c0.8-1.7,2.5-2.9,4.5-3.2c0.2,0,0.4-0.1,0.6-0.1C109.2,32.8,111.8,35.4,111.8,38.5z"/>
	<radialGradient id="SVGID_7_" cx="108.3865" cy="103.2719" r="76.3916" gradientUnits="userSpaceOnUse">
		<stop  offset="0" style="stop-color:#6DB36C"/>
		<stop  offset="2.057038e-02" style="stop-color:#6AB075"/>
		<stop  offset="0.1043" style="stop-color:#5DA595"/>
		<stop  offset="0.1911" style="stop-color:#549CAE"/>
		<stop  offset="0.2813" style="stop-color:#4D96C0"/>
		<stop  offset="0.3771" style="stop-color:#4992CB"/>
		<stop  offset="0.4876" style="stop-color:#4891CE"/>
		<stop  offset="0.5702" style="stop-color:#4A92CA"/>
		<stop  offset="0.6575" style="stop-color:#4E97BD"/>
		<stop  offset="0.747" style="stop-color:#569EA8"/>
		<stop  offset="0.838" style="stop-color:#62A98A"/>
		<stop  offset="0.9293" style="stop-color:#70B665"/>
		<stop  offset="1" style="stop-color:#7DC242"/>
	</radialGradient>
	<path fill="url(#SVGID_7_)" d="M39.9,49.4c1.4,0.6,2.8,0.9,4.4,0.9c6.5,0,11.8-5.3,11.8-11.8c0-2.2-0.6-4.3-1.7-6.1
		c-1-1.6-2.3-2.9-3.8-3.9c-1.8-1.1-3.9-1.8-6.2-1.8c-6.5,0-11.8,5.3-11.8,11.8c0,3,1.1,5.7,2.9,7.7C36.7,47.6,38.2,48.7,39.9,49.4z
		 M38.6,38.5c0-3.2,2.6-5.7,5.7-5.7c0.3,0,0.6,0,0.8,0.1c1.9,0.3,3.6,1.5,4.4,3.3c0.3,0.7,0.5,1.5,0.5,2.4c0,3.2-2.6,5.7-5.7,5.7
		c-0.5,0-1-0.1-1.5-0.2c-1.9-0.5-3.4-1.9-3.9-3.8C38.7,39.7,38.6,39.1,38.6,38.5z"/>
	<linearGradient id="SVGID_8_" gradientUnits="userSpaceOnUse" x1="94.9746" y1="44.6938" x2="82.5564" y2="45.0294">
		<stop  offset="0" style="stop-color:#4891CE"/>
		<stop  offset="1" style="stop-color:#015AA3"/>
	</linearGradient>
	<path fill="url(#SVGID_8_)" d="M75.2,33.5c-5.8,0-10.6,4.2-11.6,9.7c-0.1,0.7-0.2,1.4-0.2,2.1c0,1.4,0.2,2.7,0.7,3.9
		c1.6,4.6,6,7.9,11.1,7.9c5.2,0,9.6-3.4,11.1-8c0.4-1.2,0.6-2.4,0.6-3.7c0-0.8-0.1-1.5-0.2-2.2C85.7,37.6,80.9,33.5,75.2,33.5z
		 M80.9,45.2c0,0.4,0,0.8-0.1,1.1c-0.5,2.6-2.8,4.6-5.6,4.6c-2.7,0-5-1.9-5.6-4.5c-0.1-0.4-0.1-0.8-0.1-1.2c0-2,1.1-3.8,2.6-4.8
		c0.9-0.6,2-0.9,3.1-0.9c1.1,0,2.1,0.3,3,0.9C79.8,41.4,80.9,43.2,80.9,45.2z"/>
</g>
</svg>
