<?xml version="1.0" encoding="utf-8"?>
<!-- Generator: Adobe Illustrator 18.1.0, SVG Export Plug-In . SVG Version: 6.00 Build 0)  -->
<svg version="1.1" id="Layer_1" xmlns="http://www.w3.org/2000/svg" xmlns:xlink="http://www.w3.org/1999/xlink" x="0px" y="0px"
	 viewBox="0 0 150 150" enable-background="new 0 0 150 150" xml:space="preserve">
<g>
	<path fill="#00ADBF" d="M137.5,50.4c-0.2-0.3-0.4-0.5-0.5-0.6c-0.2-0.3-0.6-0.8-0.8-1c-1.2-1.1,0,0.8-0.4,0.8
		c-0.2,0-0.4-0.5-0.7-0.5c0.2-0.2-0.1-0.5-0.3,0c-0.1,0.2,0.1,0.4,0.2,0.6c0.4,0.9,1.2,1.6,1.6,2.5c0.2,0.5-0.4-0.1-0.4-0.1
		c-0.2-0.3-0.4-0.6-0.6-0.9c-0.1-0.2-1.2-1.8-1.4-1.7c-0.1,0.1,0.4,0.9,0.3,1c0,0-0.8-0.7-0.8-0.5c0,0.2,0.4,0.4,0.5,0.6
		c0.3,0.5,0,0.8-0.4,0.2c-0.1-0.2-0.6-0.8-0.8-0.9c-0.2-0.1-0.1-0.4-0.4-0.4c-0.4,0-0.2-0.2-0.4-0.4c-0.1-0.1-0.2,0.2-0.3,0.1
		c0.1,0.1-0.4-0.5-0.3-0.3c0.1,0.1,0.2,0.2,0,0.3c0,0,0,0,0-0.1c0,0-0.3-0.2-0.3-0.1c0,0.1,0.1,0.2,0.1,0.3
		c-0.1,0.1-0.1,0.3,0.1,0.3c0,0,0,0,0.1-0.1c0,0,0,0,0,0c0,0,0.1,0.1,0.1,0.1c0.1,0.1,0.3,0.2,0.3,0.2c-0.6-0.3,0,0.8,0.1,0.8
		c0.1,0.2,0.1,0.2,0,0.4c-0.1,0.2,0.1,0.5,0.2,0.7c0.2,0.5,0.6,0.8,0.7,1.4c0.1,0.8-0.3,0.1-0.5-0.2c-0.4-0.9-0.6-1.9-1.2-2.7
		c-0.3-0.4-0.5,0.4-0.4,0.6c0.1,0.4,0.5,0.9,0.5,1.3c-0.1-0.2-0.5-0.9-0.7-0.9c-0.1,0-0.5-0.2-0.5-0.1c0-0.2,0.3-0.4,0.2-0.6
		c0-0.2-0.2-0.3-0.3-0.4c-0.1-0.2-0.4-0.5-0.5-0.7c-0.2-0.3-0.5-0.1-0.4,0c0.1,0.1,0.3,0.1,0.3,0.2c0,0.2-0.2,0.1-0.4,0
		c0.1,0.3,0.1,1,0.1,1c0.1,0.3,0.2,0.6,0.3,0.9c0.1,0.2-0.1,0.3-0.3,0.1c-0.1-0.1-0.7-1.1-0.6-0.4c0.1,0.3-0.1,0.5-0.4,0.5
		c-0.4,0-0.2-0.6-0.5-0.7c-0.3-0.2-0.3-1,0.1-1c0.6,0-0.1-0.9-0.3-1c-0.3-0.1-0.3-0.7-0.6-0.9c-0.1,0-0.9-0.8-1-0.7
		c-0.1,0.3,0.6,0.7,0.7,1c0,0.1,0.3,0.3,0.3,0.4c0,0.1-0.1,0.2-0.1,0.2c-0.1,0-0.2,0-0.3,0c0,0.1,1.3,1.7,0.7,1.7
		c-0.5,0,0,0.7,0.1,0.9c0.2,0.3,0.4,0.8,0.5,1.2c0,0.1,0,1-0.1,0.8c-0.2-0.3-0.2-0.8-0.4-1.1c-0.2-0.4-0.6-0.9-0.7-1.3
		c-0.1-0.3-0.3,0.2-0.3,0.3c0,0.3,0.4,0.1,0.4,0.3c-0.1,0-0.2,0-0.2,0.1c0,0,0.3,0.8,0.3,0.9c0,0.1,0.4,1.4-0.1,0.9
		c-0.2-0.2-0.1-0.9-0.3-1.2c-0.1-0.1-0.5-1-0.6-1c0.1,0,0.4,2.3-0.1,1.5c-0.1-0.2-0.6-2.1-0.9-2c-0.1,0,0,0.8,0,0.9
		c-0.1,0.5-0.6,0.2-0.9,0.4c-0.9,0.5,1.4,1.1,1.2,1.5c-0.1,0.1-1.3-0.8-1.4-0.5c-0.1,0.2,0.7,0.8,0.9,0.9c0.1,0.2,0.5,0.4,0.6,0.5
		c0.1,0.2,1.2,1.4,1,1.5c-0.1,0.1-0.7-0.7-0.9-0.7c-0.6,0,0.8,1,0.8,1.1c0.4,0.3,0.7,0.7,1.1,1c0.2,0.1,0.3,0.3,0,0.3
		c-0.3,0.1-0.4-0.1-0.6-0.2c-0.2-0.1,0.2,0.7,0.2,0.6c0.2,0.4,0.5,0.8,0.7,1.3c0.2,0.5,0.4,0.9,0.8,1.3c0,0.1,0.5,0.7,0.1,0.5
		c-0.5-0.2-1-1.1-1.3-1.5c-0.1-0.1-1-1.5-1.2-1.4c-0.2,0.1,0.2,1.1,0.2,1.2c0.1,0.6-0.6-0.2-0.5,0.4c0,0.6-0.5,0.8-0.3,1.5
		c0,0.2,0.3,1.4,0.5,1.3c0.1,0,0.1-0.9,0.1-1c0-0.2-0.3-0.7-0.2-0.8c0.2-0.3,0.3,0.5,0.3,0.5c0,0.2,0,0.4,0.1,0.6
		c0.2,0.2,0.3-0.6,0.3-0.7c0-0.3,0.3-0.3,0.1-0.7c-0.1-0.2-0.3-0.3-0.3-0.6c0.2-0.2,1.3,1,1.4,1.2c0.4,0.8,0.9,1.7,1.3,2.5
		c0.2,0.4,0.3,0.9,0.5,1.3c0.3,0.6,0.5,1.2,0.8,1.8c0.1,0.2,0.6,2.5,0.6,2.5c-0.2,0-0.6-1.3-0.7-1.4c0-0.1-0.5-1-0.6-1
		c-0.2,0,0,0.8,0,1c0,0.1,0.2,0.6,0,0.7c-0.3,0.1-0.3-0.5-0.3-0.6c0-0.2-0.1-1.2-0.4-1.1c-0.3,0.1,0.3,1.1,0.1,1.3
		c-0.2,0.2-0.5-1-0.5-1.1c-0.1-0.3-0.3-0.6-0.4-0.9c-0.1-0.3-0.3-0.9-0.5-1.2c-0.1-0.2-0.5-0.1-0.3,0.1c0.2,0.3,0.1,0.4,0.2,0.8
		c0.1,0.2,0.5,1.2,0.4,1.3c0-0.1-0.4,0.3-0.4,0.3c-0.2,0-0.2-0.5-0.2-0.6c-0.1-0.3-0.3,0.1-0.4,0.1c-0.2,0.1-0.4-0.7-0.4-0.9
		c0-0.2-0.2-0.7-0.2-0.9c0-0.1,0-0.5-0.3-0.3c-0.3,0.2,0,0.3-0.1,0.6c-0.1,0.3,0,0.5,0,0.6c-0.1,0.3,0.4,0.5,0.4,0.6
		c0,0.2-0.6-0.3-0.7-0.3c-0.3-0.3,0-0.8-0.2-1.1c-0.1-0.2-0.3,0.4-0.3,0.5c0,0.1,0.1,0.6,0,0.5c-0.2,0-0.2,0.4-0.4,0.2
		c-0.2-0.2,0-0.8,0-1c0-0.2,0-0.6-0.1-0.8c-0.2-0.4-0.1-0.1-0.1-0.5c0-0.2,0-1.8-0.2-1.9c-0.2-0.1,0,1-0.1,1c0,0-0.1-0.1-0.2-0.1
		c0,0.1,0.3,0.2,0.1,0.4c-0.1,0.1-0.1-0.1-0.2-0.1c-0.2,0.1-0.2,0.7-0.4,0.7c-0.2,0.1-0.2-0.3-0.4,0c0,0-0.1,0.4-0.2,0.4
		c-0.5-0.3,0.2-2.1-0.2-2.5c-0.2-0.1,0.1-0.9-0.1-1.1c-0.1-0.1-0.1,0.3-0.1,0.3c0,0.4-0.1,0.4-0.3,0.7c-0.1,0.1,0,1.2-0.3,1.2
		c-0.4,0-0.1-2.5-0.6-2.4c-0.3,0,0.1,1.1-0.2,1.2c-0.5,0.2-0.4-0.7-0.5-0.9c0-0.1-0.1-1.3-0.3-1c-0.2-0.4-0.8-0.3-0.5,0.2
		c0.1,0.3,0.3,0.2,0.1,0.5c-0.1,0.1,0.1,0.6-0.1,0.6c-0.3,0-0.6-2-0.7-2.4c-0.1-0.3,0.1-1.4-0.2-1.6c-0.3-0.2-0.2-1.5-0.3-1.9
		c-0.1,0.3,0,0.9-0.3,1c0.2,0,0.1,0.4,0,0.5c-0.2,0.1,0.2,0.3,0,0.4c-0.1,0.1-0.1-0.1-0.2-0.1c0,0-0.1,0.4-0.1,0.3
		c0,0.2,0.1,0.5,0.2,0.6c-0.1,0.1-0.1,0-0.2-0.1c-0.1,0.1-0.1,0.1,0,0.2c-0.2-0.1-0.3-0.3-0.5-0.4c-0.2-0.1-0.1,0.1-0.2,0.1
		c-0.1,0-0.6-0.6-0.8-0.4c0,0,0,0.3,0.1,0.3c0.4,0,0.1,0,0.1,0.2c0,0.2,0.3-0.1,0.4-0.1c0,0,0.3,0.6,0.3,0.5c-0.1,0.2,0.2,0,0.3,0.1
		c0.2,0.3,0.3-0.1,0.4,0.4c0,0.4,0.2,0.6-0.2,0.7c0.3,0,0.2,2.2,0,2.4c-0.2,0.2,0.2,1.4-0.1,1.6c-0.1,0-0.1,1.7-0.1,1.8
		c0,0.2-0.1,0.5-0.1,0.7c0.1,0.5-0.3,0.1-0.3,0.3c-0.1,0.3,0.4,0.1,0.3,0.3c-0.1,0.1-0.1,0.7-0.1,0.9c0,0.1-0.1,1-0.3,0.9
		c-0.1,0-0.6-0.3-0.4,0.1c0.1,0.2,0.6-0.1,0.4,0.4c-0.1,0.2,0,0.7-0.1,0.8c-0.1,0.1-0.4-0.2-0.5-0.2c-0.5,0.2,0.5,0.4,0.4,0.3
		c0.4,0.3-0.3,1.3-0.4,1.6c0,0.2-0.1,0.9,0,1c0.1,0.2-0.2,0.5-0.2,0.7c0,0.4,0,0.8-0.1,1.1c-0.1,0.3-0.4,0.7-0.4,1.1
		c-0.1,0.7,0.1,1.7-0.5,2.2c0.1-0.3-0.4-0.5-0.4-0.3c0,0,0.5,0.2,0.3,0.4c0,0-0.5-0.1-0.4,0.1c0.1,0,0.1,0,0.2,0
		c0,0-0.5,0.4-0.4,0.5c0.1,0.5,0.5,0.2,0.6,0c0,0.1,0.2,0.4,0.2,0.3c0.1,0.3-0.3,0.5-0.3,0.8c0,0.2-0.3,0.2-0.2,0.3
		c0.2,0.3-0.2,0.6-0.2,0.9c-0.1,1-0.8,2.2-0.7,3.2c0,0.2,0.1,1-0.1,1.1c-0.2,0.1-0.1,0.5-0.1,0.7c0,0.3-0.5,0.3-0.7,0.4
		c-0.2,0-0.4,0.4-0.1,0.4c0.2,0,0.3-0.2,0.5-0.1c0.3,0-0.7,0.4-0.7,0.4c-0.2,0.1-0.5,0.3-0.6,0.5c-0.1,0.1-0.8,0.2-0.8,0.3
		c-0.1,0.2,0.4,0.3,0.5,0.2c0.3-0.3,0.4,0.1,0.3,0.1c-0.5,0.1-1,0.3-0.8,0.9c0.1,0.4,0.9-0.4,0.6,0.5c0,0-0.3,0.2-0.2,0.2
		c-0.3,0,0.1,0.2,0.1,0.3c-0.4,0.1-0.9,0.3-1.2,0.5c-0.2,0.1-0.2,0.2-0.4-0.1c-0.1-0.1-0.7-0.2-0.7-0.3c0.1-0.2,0.3-0.4,0.3-0.7
		c0.1-0.3,0.1-0.6,0.2-0.9c0.1-0.3,0.1-1.4,0.3-1.6c0.1,0,0.1,0.5,0.2,0.4c0.2-0.2,0.3,0.2,0.6,0.2c0.4-0.1-0.2-0.3-0.2-0.3
		c-0.1-0.2-0.1-0.3-0.3-0.5c-0.1-0.2-0.1,0.1-0.2,0c0-0.1-0.1-0.3-0.1-0.4c0.1-0.1,0.1,0.2,0.2,0.1c-0.4-0.5,0.4-1.4,0.5-1.9
		c0-0.6,0.4-1.2,0.5-1.9c0-0.4,0.3-0.7,0.3-1c0-0.2,0-0.8,0.2-0.9c0.1,0,0.3-0.8,0.3-0.9c0-0.2,0-0.5,0.1-0.7c0-0.2,0.2-0.4,0.3-0.6
		c0.1-1,0.5-2,0.7-2.9c0.1-0.5,0.1-0.9,0.1-1.4c0-0.3,0.3-0.7,0.3-1c0,0,0,0,0,0c0,0,0,0,0,0c0,0,0-0.1,0-0.1c0,0-0.3,0-0.2-0.1
		c0.1,0,0.1,0,0.2-0.1c-0.2,0-0.2-0.3-0.1-0.4c0,0.1,0.3,0,0.3,0c0.1,0,0.1,0.1,0.2,0.2c0.1,0.3-0.2,0.1-0.3,0.1
		c-0.1,0.1,0.1,0.2-0.1,0.3l0,0c0.1,0,0.4,0.1,0.4,0.1c0.3,0,0.1-0.1,0.2-0.2c0,0,0.6,0.1,0.7,0.2c0,0.1-0.1,0.2-0.1,0.3
		c0-0.1,0.9,0.3,0.9,0.2c0-0.3-0.5-0.2-0.5-0.3c0.3-0.4-0.4-0.4-0.5-0.4c0-0.1,0.1-0.3,0-0.4c0,0,0.1,0,0.1,0c0,0-0.3-0.3-0.2-0.4
		c-0.3,0,0,0.3-0.2,0.4c-0.1,0.1-0.1-0.2-0.3-0.2c0,0.1,0,0.1,0,0.2c0,0-0.2-0.4,0.1-0.4c0-0.1-0.2,0-0.2-0.2c0.3,0,0.1-0.3-0.1-0.3
		c0.3-0.1,0.5,0.1,0.5,0.3c0,0,0,0,0,0.1l0,0c0,0.1,0,0.1,0,0.1c0.2,0,0.2-0.8,0.1-0.8c0.2,0.1,0.2-0.1,0.3-0.2
		c0-0.1-0.1-0.1-0.2-0.1c-0.1,0.1-0.2,0.4-0.2,0.4c0,0-0.6-0.4-0.6-0.4c0.3-0.2,0.4,0.3,0.6,0.2c0,0,0.1-0.7,0.1-0.7
		c-0.1,0-0.1,0.1-0.2,0.2c0-0.3,0.2-0.7,0-1c0.1,0,0.2,0.2,0.3,0.2c0.1-0.1,0-0.4-0.1-0.4c0,0-0.1,0.1-0.1,0.1
		c0-0.1,0.1-0.9,0.2-0.9c0.1-0.1,0.3-0.8,0.3-1c0.1-0.6-0.1-1.2,0.2-1.8c0.3-0.7,0.4-1.5,0.6-2.2c0-0.2,0.1-0.8,0-1
		c-0.1-0.5,0.7,0.2,0.7-0.1c0-0.1-0.8-0.2-0.6-0.5c0.1-0.1,0.6,0.1,0.8,0.2c0.2,0.1,0.4-0.1,0.6,0c0.1,0,0.4,0.3,0.5,0.2
		c0.1-0.2-0.9-0.7-0.9-0.8c-0.1-0.2-0.7-0.4-0.8-0.5c-0.1-0.2,0.1-0.7,0.1-0.9c0.1-0.6,0-1.2,0.2-1.8c0.1-0.3,0-0.6,0.1-1
		c0-0.2,0-0.6,0.2-0.5c-0.3-0.3-0.1-1.6,0-2c0.1-0.2-0.3-1.2-0.5-0.7c0,0.1-0.1,0.6-0.3,0.5c-0.2-0.1-0.3,0.1-0.4,0
		c-0.2-0.1,0.3-0.5,0-0.6c-0.3-0.1-0.1,0.4-0.1,0.4c0,0-0.4-0.1-0.3,0.1c0.1,0.1,0.3,0.1,0.3,0.2c0,0-0.3,0.3-0.3,0.2
		c-0.2-0.1-0.1-0.7-0.2-0.8c-0.3-0.1-0.1,0.3-0.1,0.4c0,0.1,0,0.5,0,0.4c0-0.1,0-0.1,0-0.2c-0.2,0,0.1,0.3,0,0.4
		c-0.3,0.2-0.3-0.3-0.5-0.4c-0.2,0,0,1.9,0.1,1.9c-0.2,0.1-0.4-0.3-0.3-0.4c0.2-0.3-0.4-0.1-0.4-0.1c-0.1-0.1,0.1-0.1,0-0.3
		c-0.1-0.3-0.3,0-0.3,0.2c0,0,0.1,0.7-0.2,0.5c-0.1-0.1,0.2-0.3,0.1-0.4c-0.1-0.1-0.2,0.2-0.3,0.1c0.1,0-0.2-0.6-0.2-0.6
		c-0.1-0.2,0-0.4-0.1-0.6c-0.1-0.2-0.6-0.8-0.8-0.5c-0.2,0.3-0.1-0.4-0.4-0.2c-0.2,0.1-0.1,0.6-0.1,0.8c0,0.2,0.3,0.7,0.1,0.9
		c-0.3,0.2-0.4-0.6-0.4-0.7c0.1,0.2-0.2,2.2-0.6,0.5c-0.1-0.3-0.2-0.7-0.2-1c0,0.1-0.2-0.9-0.3-0.5c0,0.1-0.2,1.4-0.2,1.3
		c-0.1-0.1,0.2-1.6-0.1-1.6c-0.3,0-0.1,2.2-0.1,2.4c0,0.4,0.1,0.8,0.2,1.1c0,0-0.4,0.4-0.4,0.4c-0.3-0.1-0.1-3.1-0.5-3.1
		c-0.5,0.1-0.3,2.4-0.2,2.6c0.1,0.3,0.1,0.6,0.1,0.9c0,0.5-0.5-0.5-0.5-0.7c-0.1-0.5-0.2-1-0.3-1.5c0-0.5,0.2-1.2,0-1.8
		c-0.2-0.6-0.1-1.2-0.2-1.9c0-0.3-0.2-1.1-0.5-1.2c-0.3-0.1-0.4,2.5-0.4,2.8c0,0.9-0.1,1.8-0.3,2.8c-0.1,0.5-0.2,0.9-0.2,1.4
		c0,0.1,0,1.2,0,1.2c-0.4,0.3-0.2-0.4-0.4-0.3c-0.3,0.1-0.5-0.2-0.6-0.2c-0.3,0.1,0.2,0.5,0.2,0.4c0,0.1-0.2,0-0.2,0.2
		c0,0.1,0.1,0.6,0,0.6c-0.1,0-0.4-0.5-0.4,0.1c0,0,0.2,0.3,0.2,0.4c0,0.1-0.4-0.2-0.4-0.3c-0.3-0.4-0.2,0.1-0.5,0
		c-0.1-0.1,0.1-0.4,0-0.4c-0.3-0.1-0.1,0.4-0.2,0.5c-0.2,0.2,0,0.8-0.2,0.9c0,0-0.6-0.4-0.6-0.5c0-0.2-0.4-0.1-0.5-0.1
		c-0.2,0.2,0,0.3,0,0.4c-0.1,0-0.1,0.1-0.2,0.1c-0.1,0.1-0.2,0.5-0.2,0.6c-0.1,0.3-0.4,0.2-0.4-0.2c0-0.3,0.1-0.7-0.1-0.9
		c0.1,0.1-0.2-0.8-0.3-0.4c0,0.1,0.1,0.1,0.1,0.2c0,0.1-1.1,0.9-1-0.1c0-0.1,0.1-0.8-0.1-0.8c-0.4-0.2-0.9,2.4-1,2.6
		c-0.2,0.3-0.3-0.6-0.2-0.7c0.1-0.2,0.2-0.9,0.2-1.1c-0.1-0.2,0-0.2,0-0.5c0-0.2,0.4-0.7,0.1-0.8c-0.2-0.1-0.2,0.6-0.2,0.7
		c-0.2,0.3-0.5,0.7-0.7,1c-0.1,0.3-0.5,2.7-0.9,2.6c0,0-0.2-0.6-0.2-0.7c0.2-0.6,0.4-1,0.6-1.6c0-0.2,1-2.9,0.8-2.9
		c-0.4-0.2-0.7,2.2-0.9,1.1c-0.1-0.4,0.3-1,0.5-1.4c0.3-0.7,0.6-1.3,1-2c0.6-1.3,1.1-2.6,1.8-3.8c0.3-0.6,0.2-0.9,0.3-1.6
		c0-0.2,0.4-1.7,0.2-1.8c-0.1-0.1-0.6,1.5-0.6,1.6c0,0.1-0.2,1.3-0.5,1c-0.5-0.5,1-3.4,0.4-3.6c-0.3-0.1-0.9,3.2-1.2,3.2
		c-0.2,0.1-0.7,0.6-0.7,0.8c-0.1,0.4-0.3,1.2-0.3,1.4c0,0.1-0.1,0.1-0.1,0.2c-0.2,0,0.2-1.1,0.1-1.2c-0.1-0.1-0.2,0.1-0.3,0.1
		c-0.2-0.1,0-0.4-0.3-0.2c-0.5,0.3-0.2,1.2-0.7,1.4c-0.1,0,0.1-1.1,0.2-1.2c0-0.2,0.1-0.5,0-0.7c-0.1-0.3-0.1-0.3,0-0.6
		c0.1-0.6,0.2-1.2,0.3-1.8c0-0.2,0.3-0.8,0.1-1c0,0-0.5,1.2-0.6,1.3c-0.1,0.2,0,0.3,0,0.5c0,0.2-0.3,0.5-0.3,0.7
		c0,0.1,0,1.3-0.4,0.8c-0.2-0.3,0.2-1.1,0.1-1.2c-0.1-0.1-0.5,0.6-0.5,0.2c0-0.2,0.2-0.8,0-0.8c-0.2-0.1-0.8,2-0.8,2.2
		c-0.1,0.3-0.4,0.2-0.3-0.1c0-0.3,0.2-0.6,0.3-0.8c0.1-0.3,0.9-2.2,0.6-2.3c-0.5-0.2-1,1.8-1.1,2.1c-0.1,0.3,0,0.8-0.2,1
		c-0.3,0.3-0.4,0.7-0.6,1.1c-0.3,0.7-0.1-0.6,0-0.8c0.2-0.7,0.6-1.4,0.7-2.2c0.1-0.2,0.4-2.4,0.3-2.4c-0.4-0.3-1.7,4.3-2.1,4.6
		c-0.3,0.2-0.1-1.6,0-1.8c0.1-0.1,0.9-2.3,0.6-2.4c-0.6-0.2-1.9,4.2-2.2,4.6c-0.1-0.2,0.7-2.7,0.6-2.7c-0.6,0.1-0.7,1.9-0.9,2.3
		c-0.2,0.4-0.4,0.6-0.5,1.1c0,0.2-0.1,0.9-0.4,1c0,0,0.1-1.3,0.1-1.3c0.1-0.8,0-1-0.3-0.3c-0.3,0.6-0.1-0.9-0.4-0.5
		c-0.1,0.1-0.4,1.4-0.7,1.4c-0.2,0,0.6-2.1,0.7-2.3c0.1-0.4-0.1-0.4,0.2-0.6c0.1-0.1,0.2-0.6,0-0.6c0,0-0.4,0.6-0.4,0.7
		c-0.2,0.5-0.4,1-0.7,1.5c-0.1,0.2-0.2,0.1-0.3,0.2c-0.1,0.1-0.2,0.4-0.3,0.6c-0.1,0.1-0.6,1.4-0.8,1.3c-0.2-0.1,0.2-0.7,0.2-0.8
		c0.3-0.6-0.5,0-0.4,0c-0.1,0,1.5-3.1,1.5-3.4c0.1-0.7-0.9,1-0.9,1c-0.6,0.2-0.3,1.7-0.8,1.8c-0.4,0.1,0.3-2.3,0.4-2.5
		c0.1-0.3,0.9-2.1,0.7-2.2c-0.9-0.6-1.8,3.7-2.4,3.8c-0.1,0,0.2-0.7,0.1-0.8c-0.2-0.2-1,2-1.1,1.9c-0.2-0.2,0.2-0.6,0-0.8
		c-0.1-0.2,0.3-0.8,0.4-1c0.3-0.5,0.4-1,0.6-1.5c0.2-0.4,0.5-0.9,0.6-1.4c0.1-0.4-0.8,0.8-0.9,1c-0.1,0.3-1.1,2.9-1.4,2.8
		c-0.2-0.1,0.9-2,0.7-2.1c-0.5-0.3-1.2,2.2-1.3,2.3c-0.2,0.1,0.2-1.8,0.2-1.8c0,0-1.1,1.4-1.1,1.5c0-0.3,0.4-0.7,0.5-1
		c0.2-0.5,0.5-1.1,0.7-1.6c0.1-0.2,1.2-2.2,1-2.4c-0.2-0.2-1.4,2.9-1.6,2.8c-0.4-0.1,1.1-2.1,0.8-2.3c-0.1-0.1-0.4,0.4-0.5,0.4
		c-0.2,0.1-0.3-0.1-0.4-0.1c-0.2,0.1-0.4,0.2-0.5,0.4c-0.3,0.3-0.5,0.6-0.6,1c-0.2,0.4-0.3,1.1-0.6,1.4c0.2-0.3-0.3-0.9-0.2-1.2
		c0.1-0.4,1.7-2.6,1.7-2.6c-0.3-0.2-2,1.5-1.8,1.6c0.1,0.1,0.2-0.2,0.3-0.2c0.2,0.1-0.2,0.4-0.3,0.5c-0.1,0.1-0.2,0.1-0.3,0.1
		c-0.2,0-0.3,0.2-0.5,0.4c-0.3,0.2-0.6,0.4-0.8,0.7c0,0.1-0.6,0.7-0.5,0.2c0.2-0.7,0.8-1.4,1.3-1.9c0.2-0.2,1.9-1.9,1.8-2
		c-0.2-0.2-1.8,1.4-1.9,1.5c-0.2,0.2-1.6,2.2-1.8,2.1c-0.5-0.4,1.4-2.2,1.6-2.4c0.3-0.3,2.6-2.1,2.5-2.3c-0.5-0.8-2.5,2.4-3,2.1
		c-0.5-0.4,3-2.6,3-2.7c0-0.2-1.2,0.5-1.3,0.5c-0.1,0.1-1.4,0.8-1.3,0.5c0.1-0.3,0.9-0.5,1-0.6c0.4-0.2,0.8-0.4,1.3-0.5
		c0.4-0.1,0.2,0.1,0.4,0.1c0.4,0.1,1.6-0.9,1.9-1.1c0.2-0.2,0.4-0.4,0.7-0.5c0.4-0.1,0.8-0.3,1.2-0.5c0.6-0.3,1.6-0.3,2.1-0.7
		c0.2-0.1,1.3-1.6,1-1.8c-0.2-0.1-0.6,0.6-0.6,0.7c0,0.1-0.1,0.5-0.2,0.5c-0.2,0.1-0.3,0-0.6,0.2c-0.1,0.1-1.1,0.9-0.9,0.3
		c0.2-0.4,0.5-0.7,0.7-1c0,0,0.7-0.9,0.4-0.8c-0.3,0.1-0.5,0.5-0.9,0.6c-0.5,0.2,0.1-0.5,0.2-0.5c0.4-0.4,0-0.9-0.2-0.6
		c-0.2,0.1-0.3,0.3-0.4,0.5c-0.3,0.3-0.4,0.2-0.7,0.3c-0.3,0.1-0.6,0.5-0.8,0.7c-0.4,0.3-0.7,0-0.2-0.3c0.6-0.5,1.2-1,1.8-1.5
		c0.4-0.3,2.2-2.5,1.1-2.5c-0.2,0-1.3-0.2-1.3-0.2c0,0.1-0.2,0.2-0.2,0.3c0,0.3,0.4,0.1,0.5,0.3c0.1,0.3-1.7,1.8-2,2.1
		c-0.1,0.1-1,0.8-0.9,1c0.1,0.3,0.7-0.3,0.7,0c0.1,0.2-0.9,0.6-1,0.7c-0.2,0.1-0.3-0.1-0.4,0c-0.1,0.1-0.5,0.5-0.7,0.4
		c-0.1-0.1,0.9-1.1,1-1.5c0.1-0.4-0.5,0.2-0.5,0.2c-0.4,0.3-0.8,0.6-1.2,0.8c-0.4,0.3-0.7,0.6-1,0.8c-0.1,0-1,0.7-0.9,0.4
		c0.1-0.3,0.7-1,1-1.1c0.8-0.4,1.3-1.3,1.9-1.9c0.3-0.3,0.5-0.5,0.8-0.8c0.1-0.1,0.8-0.7,0.8-0.7c-0.1,0.4-2.2,2.4-2,2.5
		c0.2,0.2,1.7-1.4,1.8-1.5c0.1-0.1,0.3-0.6,0.5-0.4c0.1,0.1-0.1,0.7-0.2,0.7c0.6-0.3,0.7-1.3,1.3-1.7c0,0,0.8-0.5,0.4-0.5
		c-0.3,0-0.7,0.2-1,0.3c-0.8,0.2-1.6,0.6-2.4,0.9c-0.2,0.1-0.4,0.1-0.6,0.2c-0.2,0.1,0.1,0.2,0,0.3c-0.1,0.2-0.8,0.2-0.7,0.5
		c0.1,0.3,2-1,2.1-0.9c0.2,0.2-2.2,2.4-2.4,2.6c-0.3,0.3-2.7,2.8-2.8,2.8c-0.3-0.2,0.8-1.3,1-1.4c0.2-0.2,0.2-0.3,0.3-0.5
		c0.1-0.5,0.2-0.1,0.3-0.1c0.3,0.1,1.5-1.3,1.8-1.6c0,0,0.7-0.7,0.7-0.8c-0.7-0.1-3.3,3.1-3.6,2.9c-0.1-0.1,1.8-1.9,2-2.1
		c-0.4,0.2-0.8,0.6-1.2,0.9c-0.5,0.4-1,0.8-1.5,1.1c-0.8,0.6,0.6-1.1,0.6-1c-0.1,0-0.3,0.2-0.4,0.2c-0.3,0.3-0.7,0.5-1.1,0.6
		c-0.2,0.1-1.5,0.5-1.5,0.3c0-0.1,1.4-0.8,1.5-0.9c0.3-0.3,0.7-0.5,1-0.7c0.2-0.2,0.7-0.4,0.8-0.6c0-0.1,0-0.2,0-0.3
		c0-0.2,0.3-0.4,0.5-0.4c0.5-0.2,0.9-0.5,1.4-0.7c0.5-0.2,2.6-0.7,2.6-1.2c0.2-1,4.1-0.7,4.1-1c0-0.3-3.5,0.1-3.8,0.2
		c-0.5,0.2-0.9,0.4-1.4,0.4c-0.4,0-0.9-0.1-0.2-0.3c1.3-0.4,2.8-0.6,4.1-0.6c0.6,0,1.3,0,1.9,0c0.5,0,1.7,0.4,2.1,0.1
		c0.1-0.1-0.5-0.3-0.5-0.3c-0.7-0.2-1.5-0.2-2.2-0.3c-0.5-0.1-1,0-1.6,0c-0.6-0.1-0.1-0.3,0.3-0.3c1.1,0.1,2.2,0,3.3,0.3
		c0.4,0.1,1.2,0.2,1.3,0.7c0,0.2,0.7,0.4,0.7,0.3c0.1-0.1-0.8-0.6,0.1-0.4c0.7,0.2,1.3-0.6,1.9-0.9c0.4-0.2,0.7-0.4,1.1-0.6
		c0.2-0.1,0.6-0.2,0.7-0.4c0.2-0.3-0.5,0-0.5,0c-0.5,0.2-0.9,0.2-1.4,0.5c-0.7,0.4-1.3,0.7-2,1.1c-0.4,0.2,0.5-0.6,0.6-0.7
		c0.7-0.5,1.1-1,1.9-1.3c0.1,0,1.7-0.5,1.7-0.6c-0.1-0.2-1.8,0.3-2,0.3c-0.1,0-1.5,0.5-1.1,0c0.3-0.4,1.4-0.6,1.9-0.8
		c0.2-0.1,1.5-0.4,1.5-0.5c0-0.2-1-0.2-1.2-0.2c-0.4,0-0.8,0.1-1.1,0.3c-0.1,0-0.7,0.1-0.4-0.2c0.1-0.1-1.1,0.1-1.3,0.1
		c-0.2,0-0.7,0.3-0.8,0.2c-0.1,0-0.1-0.1-0.1-0.2c-0.1-0.1-0.3,0.1-0.4,0c-0.1-0.1,1.5-0.5,1.7-0.5c0.3,0,2.4-0.4,2.4-0.4
		c-0.2-0.3-1.4-0.2-1.7-0.2c-0.3,0-1.5,0.2-1.7,0c-0.1-0.1,0.6-0.2,0.6-0.2c0.5-0.1,1-0.1,1.5,0c0.3,0,3,0.4,3,0.3
		c0.1-0.3-1.3-0.5-1.4-0.5c-0.2,0-0.4-0.1-0.6-0.1c-0.3-0.1-0.2-0.3,0.1-0.3c0.6,0.1,1.1,0.2,1.7,0.3c0.3,0.1,0.4-0.1,0.1-0.3
		c-0.3-0.1-0.3,0.1-0.5,0c-0.3-0.1-0.6-0.2-1-0.3c-0.2-0.1-0.3,0.2-0.5,0.2c-0.7-0.3-1.2-0.6-1.9-0.8c-0.9-0.3-1.7-0.7-2.7-0.8
		c-0.1,0-1.7-0.2-1.6-0.3c0,0,1.2-0.1,1.3-0.1c1,0.1,2.1,0.2,3.1,0.3c0.4,0.1,0.5,0.2,0.8,0.4c0.2,0.2,1.1,0,1.1,0.2
		c0,0.3,0.9,0.3,0.9,0.3c-0.1-0.4-1-0.6-1.3-0.7c-0.5-0.3-1-0.5-1.4-0.8c-0.1-0.1-0.9-0.7-0.5-0.6c0.7,0.2,1.3,0.7,2,1
		c0.5,0.2,0.9,0.5,1.4,0.7c0.5,0.3,0.5,0.8,1,1c1,0.5,2.3,1.1,3.2,1.9c0.5,0.5,1.1,0.9,1.6,1.3c0.2,0.2,0.3,0.3,0.6,0.2
		c0.3-0.1,0.3,0.2,0.5,0.3c0.1,0.1,0.3,0.2,0.4,0.1c0.3-0.2-0.4-0.3-0.4-0.4c-0.3-0.2-0.3-0.6-0.6-0.8c-0.3-0.3-0.6-0.5-1-0.7
		c-0.5-0.4-1.1-0.7-1.7-1.1c0,0-0.3-0.4,0-0.3c0.3,0.1,0.6,0.3,0.8,0.5c0.2,0.1,0.4,0.3,0.6,0.4c0.2,0.2,0.3-0.1,0.4,0.1
		c0.1,0.1,0.5,0.6,0.6,0.4c0.1-0.1-0.1-0.3-0.1-0.3c0.3,0.1,0.3,0.3,0.5,0c0.3-0.4,0.5-0.2,0.3,0.2c-0.2,0.3,0.2,0.7,0.5,0.5
		c0.3-0.2,0.3-0.7,0.6-0.9c0.2-0.2,0.9-0.7,0.2-0.8c-0.5,0-0.8,0.3-1.2,0.5c-0.4,0.3-0.4-0.2-0.1-0.4c0.1-0.1,0.8-0.4,0.8-0.5
		c0-0.4-1.2,0.3-1.3,0.3c-0.7,0.3,0-0.6,0.2-0.7c0.9-0.6,2.6-1.1,3.7-1c0.5,0,1.1-0.2,1.6-0.4c0.3-0.1,0.6,0,0.9-0.2
		c0.2-0.1-0.7-0.4-0.8-0.5c-0.8-0.3-1.7,0.1-2.4,0.1c-1.2,0-2.5,0.7-3.5,1.4c-0.2,0.1-0.7,0.5-0.4,0c0.2-0.6,1-0.8,1.4-1.2
		c0.1-0.1,1.1-0.9,1-1c-0.1-0.2-0.9-0.1-1-0.1c-0.8,0.1,0.1-0.4,0.4-0.5c0.2,0,1.5-0.2,1.5-0.3c0.1-0.2-3.2-0.8-3.5-0.8
		c-0.1,0-1.4,0.1-0.9-0.3c0.3-0.2,0.8,0.1,1.2,0c0.2-0.1,0.2-0.2,0.3-0.3c0.3-0.2,0.6,0,0.9,0.1c0.5,0.2,0.6-0.2,1.1-0.2
		c0.3,0,0.5,0.2,0.8,0.3c0.1,0,0.7,0.1,0.7,0.1c0.1-0.1-0.9-0.5-1-0.5c-0.4-0.3-1-0.2-1.5-0.3c-0.6-0.1-1.2-0.3-1.7-0.6
		c-0.2-0.1-0.9,0-1-0.2c-0.1-0.4,0.5-0.2,0.6-0.3c0.5-0.2,0.9,0,1.4,0c0.4,0,0.9,0.2,1.3,0.1c0.4-0.1-0.1-0.3-0.2-0.3
		c-0.4-0.1-0.8-0.3-1.1-0.4c-0.4-0.1-0.9-0.3-1.3-0.4c-0.3-0.1-0.6-0.4-0.1-0.4c0.4,0,2.4,0.5,2.6,0.2c0.2-0.2-0.6-0.3-0.6-0.3
		c-0.5-0.2-1-0.6-1.4-0.9c-0.3-0.2-0.7-0.7-1-0.8c-0.1,0-0.7-0.1-0.7-0.3c0,0,1,0.1,1.1,0.2c0.9,0.2,1.7,0.8,2.5,1.2
		c0.7,0.3,1.2,0.8,1.9,1.1c0.1,0.1,1.2,0.7,1.4,0.6c0.2-0.2-1.8-1.5-2-1.6c-0.5-0.3-1-0.6-1.6-0.8c-0.2-0.1-0.7-0.5-0.6-0.8
		c0.1-0.2,2,1,2.2,1.1c0.2,0.1,0.7,0.6,0.9,0.5c0.1,0,0.1-0.2,0.3-0.1c0.2,0.1,0.4,0.3,0.5,0.4c0.3,0.3,0.6,0.4,0.9,0.6
		c0,0,0.6,0.3,0.6,0.3c0.2,0,0.9,1,1.2,0.9c0.1,0-2-1.7-1.9-2.1c0.1-0.3-0.4-0.7-0.6-0.8c-0.2-0.1-0.3-0.2-0.5-0.4
		c-0.7-0.5-1.5-0.8-2.3-1.2c-0.7-0.4-1.5-0.6-2.3-0.9c-0.4-0.2,0.3-0.3,0.4-0.2c0.4,0,0.9,0.4,1.3,0.3c0.9-0.2,2.2,0.8,2.9,1.2
		c0.2,0.1,1.8,1.6,1.9,1.5c0.4-0.3-3.4-3.2-3.6-3.3c-0.5-0.3-1-0.7-1.5-1c-0.2-0.1-1.2-0.8-0.3-0.5c0.3,0.1,2.6,0.9,2.6,0.9
		c0.1-0.2-2.2-1.6-2.4-1.9c-1.1-1.2,1.5,0.3,1.5,0.2c0.2-0.2-1.4-1.2-1.5-1.5c0-0.4,1.3,0.3,0.8-0.2C94.1,9.2,84.7,7,74.7,7
		C37.6,7,7.6,37.1,7.6,74.2c0,37.1,30.1,67.1,67.1,67.1c4.4,0,8.8-0.5,13-1.3c0-0.1,0.1-0.1,0.2-0.2c0.1-0.2,0.3-0.4,0.4-0.6
		c0.1-0.1,0.1-0.1,0.3-0.1c0.4,0.1,0.1-0.1,0.3-0.2c0,0,0.9-0.2,0.5-0.3c-0.2-0.1-0.5-0.1-0.3-0.5c0.1-0.5,0.8-0.3,0.8-0.3
		c-0.1,0.1-0.4,0.2-0.2,0.3c0.1,0.1,0.2,0.1,0.3,0.1c0,0,0.1-0.3,0.1-0.3c0.3-0.1,0.3-0.1,0.4,0.1c0.1,0.2,0.4-0.2,0.4-0.3
		c0.1-0.2-0.2-0.1-0.1-0.3c0.1-0.2-0.9,0.2-0.9-0.3c0-0.5,0.8-0.2,0.7-0.5c-0.1-0.5,0.5-0.5,0.4-1c0,0,0.7-0.8,0.5-0.6
		c0.3-0.4,0.6-0.9,0.9-1.4c0.2-0.3,0.4-1.3,0.8-1.4c0.1,0,0.1,0.4,0.3-0.1c0.1-0.2-0.1-0.5,0.1-0.6c0.3-0.3,0.2-0.3,0.6-0.1
		c0.6,0.3,0.3-0.1,0.3-0.1c-0.2,0.4-0.3-0.5-0.3-0.5c-0.1-0.1,0-0.3,0-0.5c0.1-0.1,0.3-0.7,0.4-0.7c0.2,0,0.4,0.3,0.5,0.4
		c0.2,0.1,0.2-0.1,0.5,0.1c0.4,0.3,0.3-0.2,0.2-0.2c0,0.1-0.1,0.1-0.1,0.1c-0.1-0.1,0.1-0.4-0.3-0.2c0.1-0.2,0.1-0.3,0-0.5
		c0.5,0,1,0.3,1.5,0.5c0.3,0.1,0.6,0.3,0.8,0.3c0,0,0.6,0.3,0.6,0.2c0.1,0.1,0,0.9-0.2,0.9c0,0-0.1-0.1-0.1-0.1
		c-0.1,0.8-0.7,1.7-1,2.5c-0.1,0.4-0.4,0.8-0.7,1.2c-0.1,0.2-0.4,1.2-0.5,1.3c-0.1,0-0.1-0.2-0.2-0.1c0.1,0-0.2,0.9-0.4,1
		c-0.1,0.4-0.6,1-0.8,1.4c27.7-8.3,47.8-34,47.8-64.3C141.8,65.8,140.3,57.8,137.5,50.4z M131.9,49.7c0,0,0-0.1-0.1-0.1
		c0.1,0,0.1-0.1,0.2,0C132.1,49.6,132,49.6,131.9,49.7z M131.1,50.7c0-0.1,0.1-0.1,0.1,0C131.2,50.7,131.1,50.8,131.1,50.7z
		 M129.3,63c-0.3-0.4-0.2-1.1,0.1-0.4C129.6,63,129.8,63.7,129.3,63z M130,61.4c-0.4-0.7-0.8-1.4-1.4-2c-0.1-0.1-0.7-0.6-0.6-0.9
		c0.3-0.4,0.5,0.4,0.6,0.5c0.4,0.6,1,1.1,1.3,1.7C130.1,61,130.4,62.1,130,61.4z M130.5,52c0,0,0-0.1,0.1-0.1
		C130.8,51.9,130.4,52.2,130.5,52z M114.1,71.6c0.1,0,0.4,0.3,0.4,0.4c-0.1-0.1-0.5-0.1-0.6-0.1C114,71.9,114.2,71.6,114.1,71.6z
		 M115.9,61.9c0.2,0,0.8,0.5,0.8,0.7C116.6,62.9,115,62,115.9,61.9z M115.7,55.4c0.1,0.1-0.3,0.2-0.2,0
		C115.5,55.4,115.7,55.4,115.7,55.4z M115.1,55.8c0,0.1-0.2,0-0.2-0.1C115,55.6,115.2,55.8,115.1,55.8z M115.1,56.2
		c0,0-0.3,0.1-0.3,0C114.9,56.1,115.1,56.1,115.1,56.2z M114.3,70.7c-0.1-0.1-0.1,0.6-0.2,0.7c0,0-0.1,0-0.1,0
		C113.9,71.3,114,70.5,114.3,70.7z M111.8,55.9c0.1,0,0.2,0.1,0.2,0.2C111.9,56.2,111.5,56.1,111.8,55.9z M91.2,29.4
		c0.2,0,2.5,0.2,2.3,0.8c0,0.1-1.6-0.3-1.7-0.3c-0.4-0.1-0.8,0-1.2-0.2C90.1,29.4,91,29.4,91.2,29.4z M100.3,20.8
		c0.1,0,0.6,0.1,0.5,0.4C100.8,21.4,99.5,20.8,100.3,20.8z M95.6,28.6c-0.1,0.1,2.7,1.2,2.5,1.5c-0.1,0.1-0.3-0.1-0.3-0.1
		c-0.3-0.1-0.3,0-0.5-0.2c-0.2-0.2-0.4-0.4-0.6-0.3C96.4,29.5,95.5,28.9,95.6,28.6z M53.6,34.5L53.6,34.5c0.5,0.4,0.9,0.9,1.5,1.2
		c0.6,0.4,1.2,0.8,1.8,1.1c0.3,0.2,0.6,0.3,0.9,0.6c0.3,0.3,0.5,0.6,0.8,0.9c0.1,0.2,0.3,0.3,0.4,0.5c0.3,0.5,0.6,1,0.9,1.3
		c0.1,0.1,0.3,0.2,0.4,0.3c0.3,0.1,0.4-0.1,0.6-0.2c0.1-0.1,0.3-0.2,0.4-0.1c0.2,0.1,0.3,0.2,0.4,0.4c0.1,0.1,0.2,0.1,0.2,0.2
		c0,0.1-0.5,0.1-0.4,0.3c0,0.1,0.5,0.1,1,0c0.6,0,1.4-0.1,1.7,0.1c0.4,0.3,1.5,1.8,2.2,2.3c0.2,0.1,0.7,0.5,0.7,0.6
		c0,0.1-0.9-0.2-1.3-0.6c-0.2-0.2-0.3-0.1-0.5-0.1c-0.3-0.1-0.5-0.3-0.8-0.5c-0.2-0.1-0.4-0.1-0.6-0.2c-0.3-0.1-0.5-0.3-0.8-0.4
		C62.6,42,62.1,42,61.7,42c-0.3,0-0.7,0-0.9,0.1c-0.2,0.1-0.4,0.2-0.5,0.4c-0.1,0.1-0.3,0.2-0.4,0.3c-0.2,0.1-0.4,0.1-0.6,0.2
		c-0.2,0.1-0.5,0.5-0.8,0.6c0,0-0.5,0.2-0.6,0.1c-0.1-0.1,0.2-0.2,0.1-0.3c-0.1-0.1-0.5,0-0.7-0.2c0-0.1,0-0.2-0.1-0.3
		c0,0-0.1-0.1-0.2-0.2c-0.1-0.1-0.1-0.2-0.2-0.3c-0.1-0.1-0.2-0.2-0.1-0.3c0-0.1,0.4,0,0.5,0c0.4,0,0.6,0,1,0c0.2,0,0.4,0,0.5-0.2
		c0.1-0.1,0-0.4-0.1-0.6c-0.1-0.2-0.3-0.4-0.4-0.6c-0.1-0.2-0.3-0.4-0.5-0.6c-0.3-0.4-0.7-0.7-1-1.2c-0.1-0.2-0.2-0.5-0.4-0.6
		c-0.2-0.2-0.4-0.3-0.5-0.4c-0.4-0.3-0.7-0.6-0.8-0.9c-0.1-0.1-0.1-0.3-0.2-0.5c-0.2-0.3-0.6-0.6-0.8-0.8c-0.2-0.2-0.1-0.4-0.2-0.7
		c0-0.1-0.2-0.3-0.2-0.5C53.5,34.4,53.5,34.4,53.6,34.5z M40.6,44c0.3-0.3,0.6-0.6,0.8-0.9c0.2-0.2,0.3-0.4,0.5-0.7
		c0.2-0.2,0.3-0.5,0.5-0.6c0.2-0.1,0.5-0.2,0.8-0.3c0.2-0.1,0.8-0.3,0.7-0.7c0-0.1-0.2-0.2-0.1-0.2c0-0.1,0.2-0.1,0.2-0.1
		c0.1,0,0.1-0.1,0.2,0c0.2,0,0.2,0.3,0.4,0.3c0.2,0.1,0.5-0.1,0.7-0.2c0.2-0.1,0.4-0.4,0.7-0.4c0.2,0,0.4,0,0.7,0
		c0.5,0,0.9,0.1,1.4,0.2c0.2,0,0.5,0.1,0.7,0.1l0,0c0.2,0.1-0.1,0.2-0.2,0.2c-0.5,0-0.9-0.1-1.3,0c-0.2,0.1-0.5,0.2-0.7,0.3
		c-0.2,0.1-0.5,0.1-0.7,0.2c-0.2,0.1-0.4,0.2-0.6,0.4c-0.3,0.1-0.6,0.2-0.7,0.5c0,0.1,0,0.3,0,0.5c0,0.1,0,0.4,0,0.5
		c-0.1,0-0.2,0-0.4,0c0,0-0.2,0.1-0.2,0.1c0,0-0.1-0.1-0.1-0.1c-0.1,0-0.2,0.2-0.2,0.1c-0.1-0.1,0.1-0.4,0.2-0.6
		c0.1-0.2,0.3-0.5,0.1-0.6c-0.1-0.1-0.2,0-0.3,0.1c-0.4,0.1-0.7,0.2-1,0.4c-0.2,0.1-0.4,0.3-0.7,0.6c-0.2,0.2-0.4,0.4-0.7,0.6
		c-0.2,0.2-0.4,0.4-0.6,0.4C40.1,44.4,40.5,44.1,40.6,44z M23.3,62c-0.1-0.1-0.2-0.2-0.3-0.3c-0.2-0.1-0.5-0.3-0.7-0.4
		c-0.2-0.1-0.4-0.1-0.5-0.1c-0.1,0.1-0.2,0.4-0.1,0.5c0,0.1,0,0.2,0,0.2c0,0,0,0-0.1-0.1c0,0-0.1,0-0.1,0c-0.1,0-0.2-0.1-0.2-0.1
		c-0.1,0-0.1-0.1-0.1-0.2c0,0-0.1,0-0.1,0c-0.1-0.1,0-0.1-0.1-0.2c-0.1-0.1-0.2-0.1-0.2-0.1c0-0.1,0.2-0.1,0.2-0.2
		c0.2,0,0.3-0.1,0.4-0.4c0-0.1,0-0.2-0.1-0.3c-0.1-0.2-0.2-0.4-0.4-0.6c-0.2-0.2-0.3-0.5-0.5-0.6c-0.1-0.1-0.3-0.3-0.4-0.4
		c-0.1-0.1-0.1-0.2-0.1-0.3c-0.1-0.1-0.1-0.1-0.2-0.2c0,0-0.2-0.2-0.1-0.2c0,0,0,0,0,0c0.1,0.1,0.2,0.1,0.4,0.2
		c0.6,0.4,1.4,0.6,1.6,1.1c0,0.1,0.1,0.3,0.1,0.4c0.1,0.1,0.1,0.3,0.2,0.4c0.1,0,0.2-0.1,0.3-0.1c0,0,0.3,0.1,0.3,0.1
		c0,0-0.1,0.1-0.1,0.1c0,0-0.2,0.2-0.2,0.3c0,0.1,0.2,0.1,0.3,0.1c0.3,0.1,0.7,0.2,0.9,0.3c0.3,0.2,0.4,0.6,0.5,0.8
		c0.1,0.2,0.2,0.5,0.3,0.7c0,0,0.1,0.2,0.1,0.2c-0.1,0.1-0.3-0.2-0.4-0.2C23.7,62.4,23.5,62.2,23.3,62z M77.6,66.3
		c-0.1,0.2-0.4,0.4-0.6,0.6c-0.7,0.6-1.4,1.1-2.2,1.6c-0.7,0.4-2.2,1.2-3.3,1.7c-1.1,0.5-2.4,0.8-3.9,1.1c-0.6,0.2-1.4,0.3-2.1,0.5
		c-0.3,0.1-0.6,0.2-0.9,0.4c-0.3,0.2-0.6,0.5-0.5,1c0.1,0.4,0.8,1,1,1.3c0.4,0.5,0.8,1.5,0.5,2.4c-0.2,0.6-0.7,0.9-0.7,1
		c0,0.2,0,0.7,0.1,1.1c0.1,0.9,0.5,1.8,0.5,2.6c0,1.1-0.6,2.9-0.8,3.5c-0.1,0.6,0.1,3.2,0,4.5c-0.2,2.3-0.8,3.7-0.9,4.2
		c0,0.2,0.7,2,1.2,3c1.1,2.1,3.4,6.6,4.2,8.5c0.8,1.9,1.5,4.1,2,6.4c0.3,1.1,0.5,2.1,0.7,3.5c0.2,1.4,0,2.5-0.7,3.1
		c-0.4,0.3-0.9,0.5-1.5,0.7c-1.1,0.3-1.9,0.8-2.9,1.2c-1,0.4-4.3,1.9-5.7,2.6c-2.3,1.1-4.7,2.1-6.4,3.7c-0.7,0.7-1,1.4-1.7,2.3
		c-0.3,0.4-0.7,0.7-1.1,1.1c-0.4,0.4-0.8,0.7-1.1,1.3c-0.1,0.3-0.2,0.5-0.3,0.8c-0.1,0.2-0.1,0.3-0.2,0.6c-0.1,0.2-0.1,0.6-0.3,0.6
		c-0.2,0.1-0.5-0.1-0.6-0.3c-0.4-0.6,0-1.3,0-1.9c0-0.4-0.1-1,0-1.3c0.2-1,0.8-1.7,1-2.5c0.2-0.5,0.4-1.3,0.4-1.9
		c0-0.5-0.2-1-0.1-1.5c0-0.8,0.3-1.2,0.8-1.5c0.6-0.3,1.1-0.3,1.7-0.1c0.5,0.1,1.3,0.3,1.6,0.2c1.1-0.3,2.1-1.3,2.8-1.9
		c0.8-0.7,2.8-2.9,3.4-3.5c1.1-1,2.5-2,4-2.3c0.4-0.1,0.5,0,0.4-0.3c-0.7-1.5-2.1-3.5-2.8-4.5c-0.5-0.6-1.4-1.8-2.2-2.9
		c-1.2-1.7-2.9-4.5-3-4.6c-0.1-0.1-0.4-0.1-0.6-0.2c-0.2-0.1-0.4-0.2-0.5-0.2c-0.2,0-2.4,3-3.2,4c-1,1.4-2.7,3.6-4.5,6.2
		c-1,1.5-2.6,3.6-3.4,4c-0.7,0.4-1.8,0.8-2.7,0.3c-0.8-0.5-2.3-3.9-2.6-4.9c-0.7-1.8-1.3-3.7-2-5.5c-0.4-1-0.8-1.8-1.3-2.5
		c-0.7-1.2-1.6-2-2.1-3.4c-0.4-1.1-0.7-2.5-1.7-3.1c-0.2-0.2-0.5-0.2-0.6-0.4c-0.1-0.4,0.5-0.5,1.2-0.4c0.2,0,0.7,0,1.3,0.2
		c0.9,0.4,1.2,1.2,1.7,1.3c0.5,0.1,1,0,1.6,0.3c0.4,0.2,0.8,0.6,0.8,1.1c0.1,0.9-0.4,1.5-0.3,2.1c0.1,0.4,0.4,0.9,0.6,1.2
		c0.7,1,1.5,1.5,2.2,2.4c0.7,0.8,1.3,1.6,1.9,2.8c0.1,0.3,0.3,0.7,0.4,1.1c0.1,0.1,0.2-0.3,0.2-0.4c0.7-2.3,2-4.3,2.8-6.5
		c0.5-1.2,1.7-4.2,2.2-5.3c0.2-0.5,0.8-1.7,0.8-1.7c0.1-2.1,0.7-3.2,1.6-4.5c0.3-0.4,0.7-0.9,0.8-1.2c0.1-0.3,0.1-0.5,0.2-0.8
		c0.1-0.5,0.4-0.9,0.6-1.3c0.1-0.2,0.3-0.5,0.3-0.7c0.1-0.3,0-0.8,0-1.2c0-0.4,0.1-0.8,0.1-1.2c0.1-0.8-0.2-1.6-0.5-2.1
		c-0.3-0.6-0.6-1.1-0.9-1.8c-0.3-0.6-0.9-1.2-1.2-1.3c-0.7-0.1-1.9,2.6-2.6,3.9c-0.6,1-1.5,2.5-2.1,3.2c-0.6,0.8-0.9,1.7-1.5,2.3
		c-0.4,0.4-0.8,0.6-1.3,0.7c-1.6,0.5-3.3,1-5.3,1.3c-1.7,0.2-3.6,0.3-5.4,0.4c-0.4,0-1.5,0.1-1.7,0.3c-0.4,0.3-0.6,0.5-1.3,0.8
		c-0.7,0.4-1,0.6-1.3,0.8c-0.2,0.1-0.6,0.1-0.9,0.1c-0.4,0-0.6,0-0.9-0.1c-0.2-0.1-0.5-0.3-0.8-0.3c-0.3-0.1-0.7-0.2-0.9-0.3
		c-0.2-0.1-0.1-0.3-0.2-0.3c-0.1-0.1-0.2-0.1-0.3-0.2c-0.1-0.2,0-0.3-0.1-0.3c0-0.1-0.3-0.1-0.3-0.4c0.1-0.3,0.9-0.1,1.2-0.1
		c0.3,0,0.7,0.1,0.3-0.1c-0.2-0.1-0.4-0.1-0.6-0.2c-0.3-0.2-0.8-0.2-0.8-0.4c0-0.1,0.1-0.2,0.3-0.2c0.5-0.1,0.9,0.2,1.3,0.3
		c0.2,0,0.4,0,0.7,0c0.4,0,0.5,0.1,0.7,0.1c0.1,0,0.3-0.1,0.5-0.2c0.1-0.1,0.2-0.3,0.2-0.4c0-0.1-0.1-0.2-0.4-0.2
		c-0.4,0-0.6,0-0.8,0.1c-0.2,0-0.4,0.2-0.8,0.2c-0.2,0-0.4-0.1-0.4-0.3c0-0.2,0.2-0.2,0.4-0.3c0.3-0.1,0.4-0.2,0.5-0.3
		c0.2-0.1,0.4-0.1,0.7-0.2c0.4-0.2,0.5-0.2,0.7-0.3c0.1,0,0.3,0,0.8,0c0.6,0.1,1,0.2,1.5,0.3c0.3,0.1,0.4,0.2,0.5,0.2
		c0.6,0.1,1.5-0.1,1.8-0.2c0.5-0.1,1-0.3,1.5-0.4c1.8-0.6,3.9-1.3,5.6-1.9c0.9-0.3,1.8-0.5,2.6-0.9c0.3-0.1,0.8-1.5,1.2-2.3
		c0.7-1.6,1.4-3,2.2-4.5c0.4-0.7,0.8-1.6,1.1-2.4c0.2-0.4,0.2-0.7,0.3-1.2c0.1-0.5,0.1-1.4,0.7-2.5c0.4-0.8,0.9-1.2,1.8-1.5
		c0.8-0.2,1.3-0.6,2-0.9c-0.1-0.3-0.2-0.7-0.5-1.2c0-0.1-0.1-0.2-0.2-0.3c-0.1-0.1-0.2-0.2-0.2-0.4c-0.1-0.1-0.1-0.3-0.2-0.4
		c0,0.1,0,0.2,0,0.4c0.1,0.4,0.3,0.6,0.4,1c0.1,0.3,0.2,0.8,0,1.1c0-0.4-0.1-0.8-0.3-1.1c-0.2-0.4-0.5-0.7-0.7-1.1c0,0,0,0.1,0,0.1
		c0.1,0.9,0.2,1.5,0.2,1.5c0,0-0.1-0.4-0.2-1c0,0.3-0.1,0.6,0,0.8c0,0.5,0.4,0.7,0.4,0.7c0,0-0.3-0.2-0.4-0.7c0-0.1,0-0.3,0-0.4
		c0,0.2-0.1,0.4-0.2,0.6c0.1-0.3,0.2-0.7,0.2-1c0-0.3,0-0.5-0.1-0.8c0,0.7-0.2,1.2-0.2,1.2c0,0,0.2-0.6,0.1-1.3c0-0.1,0-0.2-0.1-0.4
		c-0.1-0.5-0.3-0.9-0.6-1.3c-0.2-0.3-0.4-0.6-0.5-1c0,0.5,0.2,0.9,0.3,1.4c0.4,0.6,0.5,1,0.5,1s-0.1-0.3-0.4-0.7
		c0.1,0.3,0.2,0.6,0.3,0.9c0.1,0.3,0.2,1.2-0.3,1.3c0.3-0.1,0.3-0.6,0.2-0.9c-0.1-0.6-0.3-1.2-0.6-1.8c0,0.3,0,0.5-0.1,0.9
		c-0.2,0.5-0.7,0.8-0.8,1.3c0-0.6,0.8-1,0.6-1.7c-0.1,0.7-0.9,1.4-1.6,1.2c0.3,0,0.6,0,0.9-0.2c0.7-0.5,0.6-1.3,0.4-2.2
		c-0.3-0.3-0.6-0.7-0.7-1.1c-0.2-0.4-0.2-0.9-0.2-1.3c-0.1,0.2-0.1,0.4-0.1,0.6c0,0.5,0.3,0.9,0.5,1.3c0.2,0.6-0.2,1.2,0,1.7
		c-0.1-0.1-0.1-0.2-0.1-0.4c0-0.3,0.1-0.6,0-0.8c0-0.2-0.1-0.4-0.1-0.6c0,0.2,0,0.5-0.1,0.6c0-0.5-0.2-0.8-0.4-1.2
		c-0.2-0.3-0.3-0.7-0.4-1c0,0.7,0.2,1.3,0.2,1.2c-0.1,0-0.4-0.5-0.3-1.4c0-0.1,0-0.2,0.1-0.4c0-0.4,0.2-0.8,0.5-1.2
		c0.2-0.4,0.2-0.7,0.2-1.1v0c-1,0.4-0.8,0.9-0.8,1.5c0,0.7-0.2,1.2-0.2,1.2c0,0,0-0.5,0.1-1.1c0-0.3,0.1-0.6,0.2-0.9
		c-0.3,0.4-0.5,0.9-0.5,1.4c0,0.4,0,0.8,0,1c-0.1,0.3-0.2,0.4-0.2,0.4c0,0,0.1-0.1,0.1-0.4c0-0.2,0-0.6,0-1s0-0.9,0.3-1.2
		c-0.3,0.3-0.6,0.5-0.9,0.8c-0.2,0.1-0.3,0.3-0.4,0.4c0.2,0.7,0.7,1.4,0.3,2c0.2-0.5-0.1-0.9-0.3-1.4c-0.1-0.2-0.1-0.3-0.1-0.5
		c-0.1,0.2-0.2,0.4-0.2,0.4c0,0,0-0.2,0.2-0.5c0-0.1,0-0.1,0-0.2l0,0c-0.5,0.7-0.9,1.6-0.2,2.1C44.1,64,44,63.7,44,63.4
		c-0.1-0.5,0.2-1.1,0.6-1.6c0-0.3,0.1-0.5,0.2-0.8c0-0.1,0-0.1,0-0.2c-0.2,0.2-0.3,0.4-0.3,0.4s0.1-0.2,0.3-0.5c0-0.1,0-0.2,0-0.3
		c0.1-0.7,0.6-0.9,1-1.3c0.2-0.2,0.4-0.5,0.6-0.6c-0.3,0.1-0.7,0.2-1,0.4c-0.7,0.3-0.9,0.8-0.9,0.8c0,0,0.2-0.6,0.8-0.9
		c0.4-0.2,0.8-0.3,1.2-0.5c-0.1,0-0.2,0-0.3,0.1c-0.6,0.1-1,0.3-1,0.3s0.4-0.3,0.9-0.3c0.4-0.1,0.8-0.2,1.1-0.3c0,0,0.1,0,0.1-0.1
		c-0.4,0.1-0.9,0.1-1.4,0.1c-0.5,0-0.7,0.1-1.2,0.5c0.2-0.2,0.2-0.4,0.5-0.5c0.4-0.2,0.8-0.1,1.3-0.2c0.4-0.1,0.8-0.2,1.1-0.5
		c-0.4,0.1-0.9,0.2-0.8,0.3c0,0,0.2-0.2,0.5-0.2c-0.1,0-0.3,0-0.4,0.1c-0.3,0.1-0.5,0.3-0.5,0.3s0.2-0.2,0.5-0.3
		c0.1-0.1,0.3-0.1,0.5-0.1c-0.2,0-0.4,0-0.6,0.1c-0.4,0.1-0.5,0.4-0.8,0.4c0.4-0.2,0.3-0.3,0.6-0.4c0.5-0.2,0.9-0.1,1.3-0.5
		c0.2-0.2,0.5-0.4,0.8-0.4c0.2-0.1,0.4-0.6,0.8-0.9c0.5-0.4,1.3-0.4,1.4-0.4c0.1,0,0.1,0,0.2,0c0.1,0,0.2-0.1,0.2-0.2
		c0.4-0.4,0.9-0.5,0.9-0.5c0,0-0.4,0.1-0.9,0.5c0,0,0,0-0.1,0.1c0.6-0.2,0.7-0.5,1.2-0.5c0.5,0,1,0.3,1.5,0.1
		c-0.4,0.2-0.8,0.2-1.2,0.1c-0.5,0-0.6,0.1-0.8,0.3c0.5-0.2,1.2-0.2,1.7,0c0.4,0.1,0.7,0.3,1,0.3c0.3,0,0.4,0,0.4,0
		s-0.1,0.1-0.4,0.1c-0.3,0-0.6-0.2-0.9-0.3c-0.1,0-0.1-0.1-0.2-0.1c0.6,0.2,1.2,0.6,1.9,0.7c0.4,0.1,0.8,0,1.2-0.2
		c-0.3,0.2-0.9,0.3-1.3,0.2c0,0,0,0,0,0c0.1,0,0.1,0,0.2,0c0.5,0.1,0.9-0.1,1.2-0.1c0.3,0,0.5,0,0.5,0s-0.2-0.1-0.5,0
		c-0.3,0-0.7,0.1-1.2,0.1c0,0,0,0,0,0c0.3,0,0.7,0.3,1,0.3c0.5,0,1-0.2,1.5,0c0.2,0.1,0.3,0.2,0.4,0.4c-0.3-0.4-0.7-0.4-1.1-0.3
		c-0.3,0-0.5,0.1-0.8,0.2c-0.2,0-0.4,0-0.5,0c0.1,0,0.2,0.1,0.3,0.1c0.6,0.3,0.9,0.2,1.5,0.1c0.4-0.1,0.8,0.1,1.2,0.2
		c0.2,0,0.4,0,0.6,0c0.2-0.1,0.2-0.3,0.3-0.3c0,0,0,0.1-0.1,0.2c0.2,0,0.4-0.1,0.6-0.3c-0.2,0.2-0.4,0.4-0.7,0.4
		c-0.1,0-0.1,0.1-0.2,0.2c-0.1,0.1-0.3,0.2-0.5,0.2c0.8-0.1,1.3-0.3,1.3-0.3c0,0-0.5,0.2-1.1,0.3c0.3,0.1,0.6,0.1,0.9,0.2
		c1.2,0.3,2.2-0.3,2.2-0.1c0-0.1-0.9,0.5-2.1,0.3c-0.4-0.1-0.9-0.2-1.3-0.2c0.3,0.1,0.5,0.2,0.8,0.4c0.6,0.3,1.3,0.4,1.9,0.4
		c0.6-0.1,1.1-0.3,1.6-0.5l0,0c0.2-0.4,0.6-0.9,1-0.9c-0.4,0.1-0.7,0.5-0.9,0.9c0.1,0,0.2,0,0.4,0c0.3,0,0.6,0.2,0.8,0.4
		c-0.3-0.4-0.8-0.4-1.2-0.3c0,0.1-0.1,0.1-0.1,0.2c0.1,0,0.2,0,0.3,0c0.2,0,0.4,0.2,0.4,0.1c0,0-0.1-0.1-0.3-0.1c-0.1,0-0.2,0-0.3,0
		c0,0,0,0,0,0.1c-0.6,0.9-1.5,1-2.4,0.8c-0.3,0-0.5-0.4-0.8-0.4C60.3,59,61.2,59,62,59c0,0,0.1,0,0.1,0c0.4,0,0.8-0.3,1.2-0.3
		c0,0,0.1,0.2,0.1,0.2c0.1,0,0.1,0,0.1,0c0.4-0.3,1-0.4,1.5-0.1c-0.5-0.1-1-0.1-1.4,0.2c0.4,0,0.6,0.1,0.6,0.1c0,0-0.3,0-0.7,0
		c-0.1,0.2-0.2,0.3-0.4,0.5c0.2-0.1,0.4-0.1,0.4-0.1c0,0-0.1,0.1-0.4,0.2c-0.1,0.1-0.2,0.3-0.3,0.4c0.3,0,0.5,0,0.7-0.1
		c0.1-0.2,0.3-0.3,0.5-0.5c0.2-0.1,0.4-0.1,0.6-0.2c-0.4,0.1-0.6,0.3-0.8,0.6c0.2-0.1,0.4-0.1,0.4-0.1S64,59.9,63.8,60
		c-0.1,0.1-0.1,0.2-0.2,0.3c-0.1,0.2-0.3,0.4-0.5,0.6c0.1,0,0.3-0.1,0.4-0.1c1.2-0.6,1.8-1.5,1.9-1.5c0,0-0.4,0.6-1.2,1.2
		c0.4-0.2,0.7-0.4,0.9-0.7c0.3-0.3,0.5-0.8,0.9-0.9c-0.3,0.2-0.5,0.5-0.7,0.8c-0.3,0.4-0.6,0.7-0.9,1c-0.2,0.2-0.4,0.3-0.6,0.4
		c0.4-0.2,0.9-0.3,1.4,0c-0.5-0.1-0.9,0.1-1.4,0.4c-0.1,0.1-0.2,0.2-0.4,0.2c0.1,0,0.1,0,0.2,0c0.5-0.1,1-0.1,1.4,0
		c0.4,0.1,0.5,0.3,0.5,0.3c0,0-0.2-0.1-0.5-0.2c-0.3-0.1-0.8-0.1-1.3,0c-0.1,0-0.1,0-0.2,0c0.8-0.1,1.4,0.2,1.3,0.3
		c0,0-0.6-0.3-1.4-0.1c-0.4,0-0.8,0.3-1.2,0.4c-0.2,0.1-0.4,0.1-0.6,0.1c0.1,0,0.1,0,0.2,0c0.7,0.1,1.2-0.2,1.8-0.3
		c0.3,0,0.5,0,0.8,0.2c-0.9-0.3-1.6,0.4-2.5,0.5c-0.1,0-0.3,0-0.4,0c0.1,0,0.1,0.1,0.2,0.1c0.5,0.1,0.9,0.2,1.4,0.1
		c0.4,0,0.8-0.1,1.2,0c0.3,0.1,0.6,0.3,0.8,0.6c-0.3-0.4-0.9-0.6-1.4-0.5c-0.2,0-0.4,0.1-0.6,0.2c0,0,0.1,0,0.1,0
		c0.5,0.1,1,0.2,1.2,0.5c0.3,0.3,0.2,0.5,0.2,0.5c0,0,0-0.6-0.3-0.8C63.9,63.6,63.4,64,63,63c0,0,0,0-0.1,0c0.8,1,1.1,1.2,1.1,1.2
		c0,0-0.4-0.5-1.4-0.5c-0.1,0-0.3,0.1-0.4,0.1c-0.1,0-0.2,0.1-0.3,0.1c0.2,0,0.3,0,0.5,0c0.4,0,0.7,0.1,0.9,0.3
		c0.2,0.1,0.3,0.3,0.3,0.3c0,0-0.1-0.1-0.3-0.2c-0.2-0.1-0.5-0.2-0.8-0.2c-0.3,0-0.7,0-1-0.1c0.3,0.3,0.6,0.5,0.9,0.6
		c0.5,0.1,0.9,0.2,1.3,0.6c0.1,0.1,0.2,0.3,0.2,0.5c0,0,0.1,0,0.1,0c0.3,0.1,0.7,0.1,0.9,0.4c-0.3-0.1-0.5-0.2-1.1-0.3
		c0,0.1-0.1,0.2-0.2,0.3c0.1-0.1,0.1-0.2,0.1-0.3c0,0-0.1,0-0.1,0c-0.3,0-0.5,0-0.8,0c-0.1,0.1-0.2,0.2-0.4,0.3
		c0.1,0.1,0.2,0.1,0.3,0.1c0,0,0.1,0,0.1,0c0.1-0.1,0.2-0.2,0.4-0.2c-0.1,0-0.2,0.1-0.3,0.2c0.2,0.1,0.5,0.1,0.7,0.1
		c-0.3,0.1-0.5,0-0.8,0c-0.2,0.1-0.3,0.3-0.5,0.3c-0.7,0.2-1.4-0.1-2-0.5c0.2,0.3,0.4,0.5,0.6,0.8c0.4,0,0.7,0,1-0.1
		c0.5-0.1,0.9-0.3,1.5-0.3c1.1-0.1,2.1,0.2,3.1,0.2c1.7,0,3.1-0.5,4.3-1c1-0.4,2.5-1,2.6-1c0,0-0.1-0.5-0.1-0.7
		c-0.3-1.5-0.8-3-1.3-4.2c-0.4-1-0.9-2.2-1.5-3.2c-0.2-0.3-0.3-0.8-0.6-1c-0.1-0.1-0.4-0.1-0.5-0.2c-0.3-0.2-0.5-0.5-0.8-0.6
		c-0.4-0.3-0.7-0.3-0.9-0.4c-0.2-0.1-0.4-0.3-0.5-0.4c-0.4-0.3-0.7-0.5-1.2-0.7c-0.2-0.1-0.6-0.2-0.6-0.3c0-0.2,0.1-0.3,0.2-0.4
		c0.4-0.1,0.8-0.1,1.2,0c0.2,0.1,0.5,0.2,0.6,0.3c0.2,0.1,0.4,0.1,0.6,0.1c0.2-0.2-0.1-1.1-0.2-1.3c-0.2-0.5-0.3-0.7-0.5-1
		c-0.2-0.4-0.3-0.7-0.4-1.1c-0.1-0.3-0.4-1.1,0-1.2c0.2-0.1,0.4,0.3,0.5,0.5c0.2,0.6,0.4,1,0.7,1.5c0,0.1,0.3,0.6,0.5,0.5
		c0.2-0.1,0-0.4-0.1-0.7c-0.1-0.2-0.2-0.5-0.2-0.7c-0.2-0.6-0.4-0.9-0.5-1.4c0-0.3,0-0.6,0.3-0.6c0.2,0,0.4,0.4,0.4,0.6
		c0.1,0.2,0.3,0.5,0.4,0.7c0.1,0.3,0.3,0.6,0.4,0.9c0.1,0.2,0.3,0.7,0.5,0.6c0.3-0.1,0-1.2,0-1.5c-0.1-0.2-0.1-0.5-0.1-0.7
		c-0.1-0.4-0.2-0.8,0.1-0.9c0.3-0.1,0.4,0.3,0.5,0.7c0.1,0.3,0.2,0.6,0.2,0.8c0.1,0.3,0.1,0.6,0.2,0.9c0,0.3,0.2,0.8,0.3,0.8
		c0.1,0,0.2-0.1,0.2-0.3c0.1-0.2,0.1-0.5,0-0.7c-0.1-0.2-0.1-0.3-0.2-0.6c-0.1-0.3-0.1-0.8,0.1-0.9c0.3-0.1,0.4,0.5,0.5,0.7
		c0.1,0.4,0.2,0.6,0.3,0.9c0.1,0.3,0,0.8,0.1,1.2c0,0.4,0.1,0.7,0.2,1.1c0.2,0.7,0.5,1.2,0.4,2c0,0.2-0.1,0.4-0.1,0.6
		c0,0.2,0.2,0.6,0.3,0.8c0.9,1.6,1.9,3,2.8,4.6c0.9,1.5,1.7,3.2,2.3,5.1C77.7,65.4,77.8,65.9,77.6,66.3z M112.7,88.6
		c0.3,0.1-0.5,0.4-0.6,0.4C112.2,88.9,112.5,88.5,112.7,88.6z M112.2,90c-0.1,0.1-0.4,0.3-0.5,0.3C111.6,90.2,111.9,90,112.2,90z
		 M109.9,90.8c0.1,0,0.1,0.4,0,0.5C109.9,91.2,109.8,90.8,109.9,90.8z M108,95.7C108.4,95.3,108.2,95.8,108,95.7L108,95.7z
		 M108.2,96.1c0.5,0,0.9,0,1.4,0c0.4,0,0.9-0.1,1.3,0c-0.5,0.2-1.1,0.1-1.6,0.1c-0.4,0-1.3,0.1-1.5,0.4
		C107.9,96.3,107.7,96.1,108.2,96.1z M105.4,60.5c0.1,0,0,0.3-0.1,0.2C105.2,60.7,105.4,60.6,105.4,60.5z M105.3,61
		c0,0.1-0.2,0.1-0.2,0C105.1,60.9,105.3,60.9,105.3,61z M105,62.3c0,0-0.2,0-0.1,0C104.9,62.1,105,62.2,105,62.3z M103.6,62.3
		c0.2,0.1-0.2,0.3-0.1,0.1C103.5,62.4,103.6,62.3,103.6,62.3z M94.7,129.6c0,0-0.3-0.2,0-0.3C94.7,129.3,94.8,129.5,94.7,129.6z
		 M98.7,129.2c-0.1,0.1-0.4-0.2-0.2-0.1C98.6,129.1,98.8,129.1,98.7,129.2z M109.2,102.8c0.1,0.3-0.2,0.3-0.1,0.6
		c0,0.3-0.1,0.9-0.2,1.2c-0.1,0.3-0.2,0.8-0.3,1c-0.2,0.5-0.4,1-0.6,1.6c-0.1,0.3-0.2,0.8-0.4,1c-0.1,0.1,0,0.5,0,0.6
		c0,0.4-0.2,0.2-0.2,0.6c0,0.1-0.1,0.7-0.2,0.7c0,0-0.2,0.7-0.2,0.7c-0.1,0.8-0.7,1.4-0.9,2.1c-0.1,0.4-0.6,0.8-0.9,1
		c-0.1,0.1-0.8,0.7-0.9,0.7c-0.3-0.1-0.4,0.7-0.8,0.5c0,0-0.2-0.5-0.2-0.6c0,0,0.2,0,0.1-0.1c-0.6-0.6,0,1,0.1,0.9
		c-0.2,0.3-0.6,0.1-0.8,0.2c-0.6,0.2-0.1,0.4,0.1,0.6c-0.4,0.2-1.3-0.3-1.6,0.1c-0.3,0.4,1.1,0,1.1,0c-0.4,0.3-0.7,0.7-1.1,0.9
		c-0.1,0,0.2,0.1,0.2,0.1c0.2-0.1,0.3-0.3,0.5-0.4c0.1-0.1,0.6-0.5,0.7-0.6c0.4-0.2,1,0.1,1.2,0.5c0.1,0.1-0.2,0.2,0.1,0.3
		c0.2,0.1,0.3,0.1,0.3-0.2c-0.1-0.4-0.5-1.3-0.1-1.4c0.2-0.1,0.7-0.4,0.8-0.5c0.1-0.1,0.6-0.8,0.8-0.7c0.2,0-0.9,2-1,2.2
		c-0.3,0.5-0.7,1.1-0.8,1.7c-0.1,0.4-0.1,0.2-0.2,0.2c-0.3,0,0.1,0.5,0,0.6c-0.1,0.1-0.1-0.1-0.3,0c0.4,0.1,0.1,0.7,0,0.8
		c-0.1,0.1-0.7,0.2-0.6,0.3c0.1,0.2,0.3-0.3,0.4,0c0,0-0.1,0.6-0.1,0.6c-0.1,0-0.6-0.1-0.6-0.1c-0.1,0.1,0.7,0.2,0.6,0.2
		c0,0-0.4,0.6-0.5,0.5c0,0.1,0.1,0.2,0.1,0.2c-0.1,0.2-0.5,0.1-0.5,0c0.1,0-0.2,0-0.1,0.1c0.1,0.2,0.6-0.1,0.7,0.2
		c0.1,0.2-0.5,1-0.6,1.2c-0.4,0.6-0.8,1.2-1.2,1.9c-0.4,0.8-0.7,1.8-1,2.6c-0.1,0.2-0.1,0.4-0.2,0.6c-0.2,0.4-0.4-0.1-0.6,0.2
		c0-0.2-0.1-0.2-0.3,0c0,0,0.4,0.4,0.4,0.5c0,0-0.5-0.1-0.5-0.2c-0.2,0.3-0.2-0.3-0.1-0.2c0,0-0.4,0.1-0.4,0.1
		c-0.2,0-0.7-0.6-0.9-0.3c-0.1,0.2,0.5,0.3,0.5,0.3c0,0.1,0,0.1,0,0.2c0.1,0.1,0.2-0.1,0.3,0c0.1,0.1-0.2,0.5-0.2,0.4
		c0.1,0.2,0.3,0,0.2,0c0.4,0,0,0.3,0.1,0.4c0,0,0.6,0.2,0.3,0.3c-0.1,0-0.1-0.2-0.1-0.2c0,0-0.7,0.1-0.7,0.1c0,0.2,0.6,0.1,0.6,0.4
		c0,0-0.3,0.1-0.2,0.1c0.1,0,0.4-0.2,0.5-0.1c0.1,0.2-0.4,0.3-0.6,0.3c-0.2,0,0,0.1,0,0.2c-0.1,0-0.2-0.1-0.3-0.2
		c0.1,0,0.2-0.1,0.1-0.1c-0.1-0.1-0.2,0.1-0.2,0.1c-0.3,0-0.6-0.3-0.9-0.4c-0.4-0.2-1.5-0.2-1.7-0.6c0.2-0.1,0.6,0.2,0.9,0.2
		c0.2,0,1.2,0.2,1.2,0.1c0.2-0.2-1.4-0.3-1.4-0.3c-0.7-0.2-0.5-0.3-0.3-0.9c0.2-0.5,0.4-1,0.6-1.5c0.1-0.2,0.2-0.3,0.2-0.5
		c0.1-0.1,0.1-0.2,0.2-0.3c0.1-0.2,0-0.5,0.1-0.7c0.1-0.3,0.3-0.6,0.5-0.9c0.2-0.3,0.3-0.6,0.5-0.9c0.1-0.3,0.2-0.7,0.4-0.9
		c0.4-0.4,0.6-0.7,0.7-1.2c0.1-0.2,0.2-0.6,0.3-0.8c0.3-0.3,0.4-0.8,0.5-1.2c0.1-0.2,0.1-0.2,0.1-0.4c0,0,0.3-0.8,0.3-0.8
		c0.1,0,0.3-1,0.4-1.1c0.1-0.2,0.7-1.2,0.6-1.4c-0.1-0.3,0.4-0.7,0.4-1c0.1-0.4,0.4-0.7,0.7-1.1c0.2-0.2,0.1-0.8,0.5-0.9
		c0.1,0,0.7,0.2,0.5-0.1c-0.1-0.1-0.5-0.1-0.5-0.1c-0.2-0.7,0.7,0.3,0.7,0.3c0.2,0-0.3-0.5-0.3-0.6c0.1,0,0.3,0.2,0.4,0.2
		c-0.1,0-0.1-0.6-0.1-0.5c-0.1-0.1-0.3,0.1-0.4-0.1c0,0,0.9-1.5,1-1.6c0.4-0.8,0.5-1.6,0.8-2.4c0.3-0.7,0.6-1.4,0.8-2.2
		c0-0.1,0.2-0.8,0.4-0.8c0.1,0,0.7,0,0.7,0c0.1-0.1-0.5-0.2-0.5-0.5c0-0.4,0-0.8,0.1-1.2c0.1-0.1,0.1-0.3,0.2-0.4c0-0.1,0-0.2,0-0.3
		c0-0.1,0.2-0.5,0.2-0.5c0.5-0.2,0.1,0.5,0.1,0.6c0.1,0.2,0.1-0.1,0.3,0c0.2,0.1,0.2,0.4,0.4,0.5c0,0,0.5,0.1,0.5,0.1
		c0.2,0,0-0.3,0.1-0.4c0.1-0.2,0-0.6-0.5-0.4c-0.1,0-0.3,0.3-0.5,0.1c-0.1-0.2,0.2-0.3-0.1-0.5c0.3,0.1,0.7-0.1,1,0.1
		c0,0.1-0.1,0.1,0,0.2c0.3,0.2,1-0.5,1.2,0.1c0.4,1.1,0.3-0.6,0.7-0.2C109.6,102,109.2,102.7,109.2,102.8z M103.7,116.5
		c-0.1-0.1-0.9-0.7-0.3-0.9C103.6,115.5,103.8,116.4,103.7,116.5z M103.1,116c-0.1,0.2-0.6-0.2-0.6-0.2c0-0.2,0.2-0.3,0.4-0.2
		c0,0.1-0.1,0.1-0.1,0.2C102.7,115.9,103,115.9,103.1,116z M101.4,116.9C101.7,116.7,101.3,116.9,101.4,116.9L101.4,116.9z
		 M98.4,129c0,0-0.2-0.1-0.2-0.1c-0.2,0.1,0.1-0.2,0.1-0.2C98.4,128.9,98.4,129,98.4,129z M110,100.6c0.2-0.4-0.4-0.7-0.6-0.3
		c-0.2,0.6,0.4,0.2,0.5,0.4c0,0.1-0.2,0.5-0.3,0.5c0-0.1,0-0.1,0-0.2c0,0.1-0.1,0.4-0.1,0.5c-0.1,0.5-0.3,0.2-0.7,0.2
		c-0.5,0-3,0.3-2.3-0.6c0.3-0.5,0.1-1.2,0.3-1.7c0.2-0.4,0.1-0.9,0.3-1.2c0.3-0.6,0.4-0.7,1.1-0.7c0.2,0,0.5,0,0.6,0.2
		c0.2,0.2,1,0,1.3,0c0.5,0,0.9,0.1,0.8,0.6C110.8,99.1,110.3,99.9,110,100.6z M111.1,97.2c-0.1,0.2,0.1,0.7-0.3,0.6
		c-0.7-0.3-1.4,0.1-2.1-0.2c-0.7-0.2-1.2,0.3-1-0.6c0.1-0.5,0.9-0.6,1.3-0.6c0.5-0.1,1,0,1.5-0.1c0.1,0,0.9-0.2,1-0.1L111.1,97.2z
		 M112.4,91.2c-0.2,0.1-0.1,0.1,0,0.3c0.1,0.1-0.1,0.2-0.1,0.4c0,0.2-0.2,0.5-0.2,0.8c0,0.2,0,0.6-0.1,0.8c0,0.1-0.4,1.2-0.4,1.1
		c-0.1,0.1-0.2-0.3-0.3-0.3c-0.2-0.2-0.2,0.2-0.2,0.1c0.1,0-0.1,0.9,0.3,0.3c0.1,0.1,0,1.1-0.1,1.2c-0.1,0.3-0.4,0.5-0.8,0.3
		c0-0.1,0-0.1-0.1-0.2c-0.1,0,0.1,0.2-0.1,0.2c-0.2,0-0.4,0-0.6,0c-0.6,0-1.2,0.1-1.7-0.3c0,0,0.4-0.3,0.2-0.3
		c-0.3-0.1-0.2-0.1-0.2-0.4c0-0.6,0.6-1.2,0.5-1.8c-0.1-0.4,0.3-1,0.4-1.4c0-0.1,0.1-0.8,0.2-0.9c0.4-0.2,0.2,0.3,0.3,0.4
		c0,0,0.9,0.2,1,0.3c0.1,0,0.5,0.2,0.6,0.1c0.3-0.2-0.4-0.3-0.4-0.3c-0.4-0.3,0.5-0.6,0.6-0.5c0.2,0.2,0.2,0,0.3-0.2
		c0-0.1,0.5-0.3,0.6-0.4C112.7,90,112.7,90.9,112.4,91.2z M112.9,89.3c-0.1,0.2-0.5,0.3-0.6,0.1C112.1,89,113.1,88.7,112.9,89.3z"/>
</g>
</svg>
