<?xml version="1.0" encoding="utf-8"?>
<!-- Generator: Adobe Illustrator 18.1.0, SVG Export Plug-In . SVG Version: 6.00 Build 0)  -->
<svg version="1.0" id="Layer_1" xmlns="http://www.w3.org/2000/svg" xmlns:xlink="http://www.w3.org/1999/xlink" x="0px" y="0px"
	 viewBox="0 0 150 150" enable-background="new 0 0 150 150" xml:space="preserve">
<g>
	<path fill="#08B26C" d="M75.6,94c-0.8,1.9-1.3,3.1-1.3,3.1s-8.2-32.1-50.1-36v28.1c0,0,32.2,0.5,49.8,13.3c0.5-2.1,1-4.2,1.6-6.5
		V94z"/>
	<path fill="#08B26C" d="M75.6,64.7v-8.2c-4.7-2-8-6.6-8-12.1c0-5.4,3.3-10.1,8-12.1v-5.7C73.8,25.1,58.8,11.9,24.1,8v51.6
		C30,57.8,52.2,52.4,75.6,64.7z"/>
	<path fill="#08B26C" d="M24.1,60.2v0.2c0.2-0.1,0.5-0.1,0.7-0.2C24.6,60.3,24.4,60.3,24.1,60.2z"/>
	<path fill="#007444" d="M80.7,31.4c7.2,0,13.1,5.9,13.1,13.1c0,7.2-5.9,13.1-13.1,13.1c-1.8,0-3.5-0.4-5.1-1v8.2
		c3.4,1.8,6.7,3.9,10.1,6.5c7.9-13.9,20-26.9,38.5-34.2c0,0-0.8,0.5-2.1,1.6c0.6-0.3,1.1-0.6,1.7-0.9c0,0-22.4,17-28.1,55.6
		c15.6-4.6,31.6-4.9,31.6-4.9V7.5c-37.1,4.1-51.6,18.9-51.6,18.9v0.3v5.7C77.1,31.8,78.9,31.4,80.7,31.4z"/>
	<path fill="#FFFFFF" d="M93,145.1c-0.1-0.5-0.1-0.9-0.2-1.4c-7.2-4.6-11.5-7.3-14-8.8C82.1,137.2,86.7,140.5,93,145.1z"/>
	<path fill="#08B26C" d="M123.8,37.8c-0.6,0.3-1.1,0.6-1.7,0.9c-49.3,24.2-46.9,88.6-46.6,93.9c0,0.2,0,0.4,0,0.4s0.6,0.3,3.4,2
		c2.5,1.5,6.8,4.2,14,8.8c1.8,1.1,3.7,2.4,5.8,3.7c-4.9-21.3-5.2-39.2-3-54C101.3,54.8,123.8,37.8,123.8,37.8z"/>
	<path fill="#007444" d="M74.8,98.8l0.8-2.8c0.3-1.1,0.6-2.2,1-3.3c-0.1-0.1,5.9-14.4,7.7-17.8C59.6,53.3,32.4,58.3,24.9,60.3
		c-0.3,0.1-0.5,0.1-0.7,0.2c-0.9,0.2-1.4,0.4-1.4,0.4c0.5,0,0.9,0.1,1.4,0.2C66.1,65.1,74.8,98.8,74.8,98.8z"/>
	<path fill="#08B26C" d="M80.7,55c5.8,0,10.5-4.7,10.5-10.5c0-5.8-4.7-10.5-10.5-10.5s-10.5,4.7-10.5,10.5
		C70.2,50.3,74.9,55,80.7,55z"/>
</g>
</svg>
