<?xml version="1.0" encoding="utf-8"?>
<!-- Generator: Adobe Illustrator 18.1.0, SVG Export Plug-In . SVG Version: 6.00 Build 0)  -->
<svg version="1.0" id="Layer_1" xmlns="http://www.w3.org/2000/svg" xmlns:xlink="http://www.w3.org/1999/xlink" x="0px" y="0px"
	 viewBox="0 0 150 150" enable-background="new 0 0 150 150" xml:space="preserve">
<g>
	<path fill="#909295" d="M125.2,23c0-0.1,0-0.2,0-0.3c1.3,0,2.5,0.1,3.8,0.2c1.3,0,2.5,0.1,3.7,0.2c1.3,0.1,2.5,0.1,3.8,0.2
		c0,0.1,0.1,0.2,0.1,0.2c0.1,1,0.2,2,0.3,3c0.1,0.8,0.2,1.6,0.3,2.4c0,0.8,0.1,1.6,0.2,2.5c0.1,0.9,0.2,1.9,0.3,2.8
		c0.1,0.9,0.1,1.9,0.2,2.8c0.1,1.1,0.2,2.3,0.2,3.4c0,0.6,0.1,1.1,0.1,1.6c0.1,1.3,0.1,2.6,0.2,3.8c0.1,1.6,0.2,3.1,0.3,4.7
		c0,1.2,0.1,2.4,0.1,3.7c0.1,1.3,0.1,2.6,0.2,3.8c0,0.6,0,1.2,0,1.9c0,1.1,0.1,2.3,0.1,3.5c0,0.6,0,1.3,0,1.9c0,2.3,0,4.6,0.1,6.9
		c0,1.9,0,3.8,0,5.7c0,2.3,0,4.6-0.1,7c0,1.6,0,3.2-0.1,4.8c0,1.5-0.1,2.9-0.1,4.4c0,1.8-0.1,3.6-0.2,5.5c-0.1,1.5-0.1,2.9-0.2,4.4
		c-0.1,1.9-0.2,3.8-0.3,5.7c-0.1,1.5-0.2,3-0.3,4.5c-0.1,1.2-0.2,2.4-0.2,3.6c-0.1,1.1-0.2,2.2-0.2,3.3c-0.1,1.1-0.2,2.1-0.3,3.2
		c0,0.9-0.1,1.8-0.2,2.8c-0.1,0.8-0.2,1.7-0.2,2.5c-0.1,0.9-0.2,1.8-0.3,2.7c0,0.1,0,0.1-0.1,0.3c-0.2,0-0.4,0.1-0.5,0.1
		c-1,0.1-1.9,0.1-2.9,0.1c-1.2,0.1-2.4,0.1-3.6,0.2c-1.2,0.1-2.4,0.1-3.6,0.2c-0.2,0-0.5,0-0.7,0.1c-0.1-0.1-0.1-0.2-0.1-0.3
		c0.1-1.2,0.3-2.5,0.4-3.7c0.1-1.1,0.2-2.3,0.3-3.4c0.1-1.2,0.2-2.4,0.3-3.6c0.1-1,0.2-1.9,0.2-2.9c0.1-1,0.2-2,0.2-3.1
		c0-0.5,0.1-1.1,0.1-1.6c0.1-1.2,0.1-2.5,0.2-3.7c0.1-1.4,0.2-2.8,0.2-4.2c0.1-1.3,0.1-2.5,0.2-3.8c0.1-1.5,0.1-3,0.2-4.5
		c0-1.3,0.1-2.6,0.1-3.9c0-1.2,0.1-2.4,0.1-3.5c0-1.6,0.1-3.2,0.1-4.8c0.1-3.9,0-7.7,0.1-11.6c0-1,0-1.9,0-2.9c0-1.9,0-3.9-0.1-5.9
		c0-1.5-0.1-3.1-0.1-4.6c0-1.9-0.1-3.7-0.2-5.5c-0.1-1.4-0.1-2.8-0.2-4.3c-0.1-1.7-0.2-3.5-0.3-5.2c-0.1-1.8-0.2-3.5-0.3-5.3
		c-0.1-1.5-0.2-3.1-0.3-4.6c-0.1-1.4-0.2-2.7-0.3-4.1c-0.1-0.8-0.1-1.7-0.2-2.5c-0.1-1.1-0.2-2.2-0.3-3.4
		C125.4,25.1,125.3,24,125.2,23"/>
	<path fill="#909295" d="M25.9,23c0-0.1,0-0.2,0-0.3c-1.3,0-2.5,0.1-3.8,0.2c-1.3,0-2.5,0.1-3.8,0.2c-1.3,0.1-2.5,0.1-3.7,0.2
		c0,0.1-0.1,0.2-0.1,0.2c-0.1,1-0.2,2-0.3,3c-0.1,0.8-0.2,1.6-0.3,2.4c-0.1,0.8-0.1,1.6-0.2,2.5c-0.1,0.9-0.2,1.9-0.3,2.8
		c-0.1,0.9-0.1,1.9-0.2,2.8c-0.1,1.1-0.2,2.3-0.2,3.4c0,0.6-0.1,1.1-0.1,1.6c-0.1,1.3-0.1,2.6-0.2,3.8c-0.1,1.6-0.2,3.1-0.2,4.7
		c0,1.2-0.1,2.4-0.1,3.7c0,1.3-0.1,2.6-0.2,3.8c0,0.6,0,1.2,0,1.9c0,1.1,0,2.3-0.1,3.5c0,0.6,0,1.3,0,1.9c0,2.3,0,4.6-0.1,6.9
		c0,1.9-0.1,3.8-0.1,5.7c0,2.3,0.1,4.6,0.1,7c0,1.6,0.1,3.2,0.1,4.8c0,1.5,0.1,2.9,0.1,4.4c0.1,1.8,0.1,3.6,0.2,5.5
		c0,1.5,0.1,2.9,0.2,4.4c0.1,1.9,0.2,3.8,0.3,5.7c0.1,1.5,0.2,3,0.3,4.5c0.1,1.2,0.2,2.4,0.2,3.6c0.1,1.1,0.1,2.2,0.2,3.3
		c0.1,1.1,0.2,2.1,0.3,3.2c0,0.9,0.1,1.8,0.2,2.8c0.1,0.8,0.2,1.7,0.2,2.5c0.1,0.9,0.2,1.8,0.2,2.7c0,0.1,0,0.1,0.1,0.3
		c0.2,0,0.4,0.1,0.5,0.1c0.9,0.1,1.9,0.1,2.9,0.1c1.2,0.1,2.4,0.1,3.6,0.2c1.2,0.1,2.4,0.1,3.6,0.2c0.3,0,0.5,0,0.7,0.1
		c0.1-0.1,0.1-0.2,0-0.3c-0.1-1.2-0.3-2.5-0.4-3.7c-0.1-1.1-0.2-2.3-0.3-3.4c-0.1-1.2-0.2-2.4-0.3-3.6c-0.1-1-0.2-1.9-0.2-2.9
		c-0.1-1-0.2-2-0.2-3.1c0-0.5-0.1-1.1-0.1-1.6c-0.1-1.2-0.2-2.5-0.2-3.7c-0.1-1.4-0.2-2.8-0.3-4.2c-0.1-1.3-0.1-2.5-0.2-3.8
		c0-1.5-0.1-3-0.2-4.5c-0.1-1.3-0.1-2.6-0.1-3.9c0-1.2-0.1-2.4-0.1-3.5c0-1.6-0.1-3.2-0.1-4.8c-0.1-3.9-0.1-7.7-0.1-11.6
		c0-1,0-1.9,0-2.9c0-1.9,0.1-3.9,0.1-5.9c0-1.5,0.1-3.1,0.1-4.6c0-1.9,0.1-3.7,0.2-5.5c0.1-1.4,0.1-2.8,0.2-4.3
		c0.1-1.7,0.2-3.5,0.3-5.2c0.1-1.8,0.2-3.5,0.3-5.3c0.1-1.5,0.2-3.1,0.3-4.6c0.1-1.4,0.2-2.7,0.3-4.1c0.1-0.8,0.2-1.7,0.2-2.5
		c0.1-1.1,0.2-2.2,0.3-3.4C25.6,25.1,25.7,24,25.9,23"/>
	<g>
		<path fill="#E5E5E5" d="M62.6,90.7C62.6,90.7,62.6,90.7,62.6,90.7c-2.7-3.2-7.5-1.8-11.4,2.1c-6.1,6.1-7.3,18-7.3,18s0,0,0.1,0
			l-0.1,0.1c0,0,11-1.1,17.4-8.7C64.9,98,65.3,93.1,62.6,90.7L62.6,90.7z"/>
		<path fill="#E5E5E5" d="M105.7,49c0.3-0.3,0.5-0.7,0.6-1.1c0-0.1,0-0.1,0-0.2c0-0.1,0-0.1,0-0.2c0-0.4,0-0.9-0.3-1.4
			c-0.1-0.1-0.1-0.2-0.2-0.3c0,0,0,0,0,0c-0.1-0.2-0.3-0.4-0.4-0.5l-0.7-0.6c-1.1-1-2.6-1-3.6,0.1l-24,23.8l6.5,6.4L105.7,49z"/>
		<path fill="#E5E5E5" d="M67,78.5c-0.5,0.6-0.7,1.3-0.7,1.9l-5.8,6.3l3.1,2.9l2.6,2.4l5.5-6c0.9,0.3,1.9,0.2,2.7-0.6l0,0
			c0,0,0,0,0,0l0.8-0.9l-6.6-7.7L67,78.5z"/>
		<path fill="#82CAA4" d="M101.4,92.8c-3.9-3.9-8.7-5.3-11.4-2.1c0,0,0,0.1,0,0.1h0c-2.6,2.4-2.3,7.3,1.3,11.5
			c6.4,7.5,17.4,8.7,17.4,8.7l-0.1-0.1c0.1,0,0.1,0,0.1,0S107.5,98.9,101.4,92.8z"/>
		<path fill="#82CAA4" d="M92.1,86.7l-5.8-6.3c0.1-0.7-0.1-1.4-0.7-1.9L51.5,44.7c-1-1.1-2.5-1.1-3.6-0.1l-0.7,0.6
			c-0.2,0.2-0.3,0.3-0.4,0.5c0,0,0,0,0,0c-0.1,0.1-0.2,0.2-0.2,0.3c-0.3,0.5-0.3,0.9-0.3,1.4c0,0.1,0,0.1,0,0.2c0,0,0,0.1,0.1,0.2
			c0.1,0.4,0.3,0.8,0.6,1.1l22.2,26l8.9,10.5h0l0.1,0.1c0.7,0.8,1.7,1,2.7,0.6l5.5,6l2.6-2.4L92.1,86.7z"/>
	</g>
	<path fill="#909295" d="M140.2,115.9c0.1,0,0.2,0,0.3,0c0,1.5-0.1,3-0.2,4.5c-0.1,1.5-0.1,3-0.2,4.5c-0.1,1.5-0.1,3-0.2,4.5
		c-0.1,0-0.2,0.1-0.3,0.1c-1.2,0.1-2.4,0.3-3.6,0.4c-0.9,0.1-1.9,0.2-2.8,0.3c-1,0.1-1.9,0.2-2.9,0.3c-1.1,0.1-2.2,0.2-3.3,0.3
		c-1.1,0.1-2.2,0.2-3.4,0.2c-1.3,0.1-2.7,0.2-4.1,0.3c-0.7,0.1-1.3,0.1-1.9,0.2c-1.5,0.1-3,0.2-4.6,0.2c-1.9,0.1-3.7,0.2-5.6,0.3
		c-1.5,0.1-2.9,0.1-4.4,0.2c-1.5,0-3.1,0.1-4.6,0.2c-0.8,0-1.5,0-2.3,0c-1.4,0-2.7,0.1-4.1,0.1c-0.8,0-1.5,0-2.3,0
		c-2.7,0-5.5,0-8.2,0.1c-2.2,0-4.5,0.1-6.7,0c-2.7,0-5.5,0-8.3-0.1c-1.9,0-3.8,0-5.7-0.1c-1.7,0-3.5-0.1-5.2-0.2
		c-2.2,0-4.3-0.1-6.5-0.2c-1.7-0.1-3.5-0.2-5.2-0.2c-2.2-0.1-4.5-0.2-6.8-0.3c-1.8-0.1-3.6-0.2-5.4-0.3c-1.4-0.1-2.8-0.2-4.2-0.3
		c-1.3-0.1-2.6-0.2-3.9-0.3c-1.3-0.1-2.5-0.2-3.8-0.3c-1.1-0.1-2.2-0.2-3.3-0.3c-1-0.1-2-0.2-3-0.2c-1.1-0.1-2.1-0.2-3.2-0.3
		c-0.1,0-0.2,0-0.3-0.1c0-0.2-0.1-0.4-0.1-0.6c0-1.2-0.1-2.3-0.2-3.5c-0.1-1.4-0.2-2.8-0.2-4.2c-0.1-1.4-0.1-2.9-0.2-4.3
		c0-0.3,0-0.6-0.1-0.8c0.1-0.1,0.2-0.1,0.3-0.1c1.5,0.2,2.9,0.3,4.4,0.4c1.4,0.1,2.7,0.3,4.1,0.4c1.4,0.1,2.9,0.3,4.3,0.4
		c1.1,0.1,2.3,0.2,3.4,0.3c1.2,0.1,2.4,0.2,3.7,0.3c0.6,0.1,1.3,0.1,1.9,0.1c1.5,0.1,2.9,0.2,4.4,0.3c1.7,0.1,3.3,0.2,5,0.3
		c1.5,0.1,3,0.1,4.5,0.2c1.8,0.1,3.6,0.2,5.3,0.2c1.6,0.1,3.2,0.1,4.7,0.1c1.4,0,2.8,0.1,4.2,0.1c1.9,0,3.9,0.1,5.8,0.1
		c4.6,0.1,9.2,0.1,13.8,0.1c1.2,0,2.3,0,3.5,0c2.3-0.1,4.6-0.1,7-0.1c1.8,0,3.6-0.1,5.5-0.2c2.2,0,4.4-0.1,6.6-0.2
		c1.7-0.1,3.4-0.1,5.1-0.2c2.1-0.1,4.1-0.2,6.2-0.3c2.1-0.1,4.2-0.2,6.3-0.4c1.8-0.1,3.6-0.3,5.4-0.4c1.6-0.1,3.2-0.3,4.9-0.4
		c1-0.1,2-0.2,3-0.3c1.3-0.1,2.7-0.3,4-0.4C137.7,116.1,138.9,116,140.2,115.9"/>
	<path fill="#909295" d="M9.5,41c-0.1,0-0.2,0-0.3,0c0.1-1.5,0.2-3,0.2-4.5c0-1.5,0.2-3,0.2-4.5c0.1-1.5,0.1-3,0.2-4.4
		c0.1,0,0.2-0.1,0.3-0.1c1.2-0.1,2.4-0.2,3.6-0.4c0.9-0.1,1.9-0.2,2.8-0.3c1-0.1,1.9-0.2,2.9-0.2c1.1-0.1,2.2-0.2,3.3-0.3
		c1.1-0.1,2.2-0.2,3.3-0.2c1.3-0.1,2.7-0.2,4.1-0.3c0.7-0.1,1.3-0.1,1.9-0.1c1.5-0.1,3.1-0.2,4.6-0.2c1.9-0.1,3.7-0.2,5.6-0.3
		c1.5-0.1,2.9-0.1,4.4-0.2c1.5-0.1,3.1-0.1,4.6-0.2c0.8,0,1.5,0,2.3-0.1c1.4,0,2.7-0.1,4.1-0.1c0.8,0,1.5,0,2.3-0.1
		c2.7,0,5.5,0,8.2-0.1c2.3,0,4.5,0,6.8,0c2.7,0,5.5,0,8.3,0.1c1.9,0,3.8,0.1,5.7,0.1c1.7,0,3.5,0.1,5.2,0.1c2.2,0.1,4.3,0.1,6.5,0.2
		c1.7,0.1,3.5,0.1,5.2,0.2c2.3,0.1,4.5,0.2,6.8,0.3c1.8,0.1,3.6,0.2,5.4,0.3c1.4,0.1,2.8,0.2,4.2,0.3c1.3,0.1,2.6,0.2,3.9,0.3
		c1.3,0.1,2.5,0.2,3.8,0.3c1.1,0.1,2.2,0.2,3.3,0.3c1,0.1,2,0.2,3,0.2c1.1,0.1,2.2,0.2,3.2,0.3c0.1,0,0.2,0,0.3,0.1
		c0,0.2,0,0.4,0.1,0.6c0.1,1.2,0.1,2.3,0.2,3.5c0.1,1.4,0.1,2.9,0.2,4.3c0.1,1.4,0.2,2.9,0.2,4.3c0,0.3,0,0.6,0,0.8
		c-0.1,0.2-0.2,0.1-0.3,0.1c-1.4-0.2-2.9-0.3-4.4-0.4c-1.4-0.1-2.7-0.3-4.1-0.4c-1.4-0.1-2.9-0.3-4.3-0.4c-1.1-0.1-2.3-0.2-3.4-0.3
		c-1.2-0.1-2.4-0.2-3.7-0.3c-0.6-0.1-1.3-0.1-1.9-0.1c-1.5-0.1-3-0.2-4.4-0.3c-1.7-0.1-3.3-0.2-5-0.3c-1.5-0.1-3-0.2-4.5-0.2
		c-1.8-0.1-3.6-0.2-5.3-0.2c-1.6-0.1-3.1-0.1-4.7-0.1c-1.4,0-2.8-0.1-4.2-0.1c-1.9-0.1-3.9-0.1-5.8-0.1c-4.6-0.1-9.2-0.1-13.8-0.1
		c-1.2,0-2.3,0-3.5,0c-2.3,0-4.6,0.1-7,0.1c-1.8,0-3.6,0.1-5.5,0.2c-2.2,0.1-4.4,0.1-6.6,0.2c-1.7,0.1-3.4,0.2-5.1,0.2
		c-2.1,0.1-4.1,0.2-6.2,0.3c-2.1,0.1-4.2,0.2-6.3,0.4c-1.8,0.1-3.7,0.2-5.5,0.4c-1.6,0.1-3.2,0.3-4.9,0.4c-1,0.1-2,0.2-3,0.3
		c-1.3,0.1-2.7,0.3-4,0.4C12.1,40.7,10.8,40.8,9.5,41"/>
</g>
</svg>
