<?xml version="1.0" encoding="utf-8"?>
<!-- Generator: Adobe Illustrator 18.1.0, SVG Export Plug-In . SVG Version: 6.00 Build 0)  -->
<svg version="1.0" id="Layer_1" xmlns="http://www.w3.org/2000/svg" xmlns:xlink="http://www.w3.org/1999/xlink" x="0px" y="0px"
	 viewBox="0 0 150 150" enable-background="new 0 0 150 150" xml:space="preserve">
<g>
	<g>
		<path d="M28.5,74.5l0.8-1.3l1.1-1.7l1.8,0.9c0,0,6,2.1,17.8-7.8c0,0,1.8,11.6,6.4,15.5c0,0-1.3,1.5-1.9,3.5l9.3,4.7
			c0,0,9.4,3.5,10.4,3.5h0.1h0.2c1.2,0.1,2.1,0.6,3.5,0.1c0.1,0,0.3,0,0.4,0c1.8-1.9,4-5.5,2-10.7c0,0,6.4-7.6,4.4-19
			c7.1,9.3-4.7,21.7,5.2,26.6c0.3,0.1,0.7,0.1,1,0.2c2-2,4.8-3.1,7.9-3.2c3.4-3.9,5.2-11,2.8-19.4C97.7,52,82.6,53.9,80,55.8
			c0,0-14.9-6.2-23.6,0.7c0,0-9-6.6-18.3-3.3c-9.3,3.3-21.7,18.6-16.2,22.1c1.5,1,5.4,1.1,5.4,1.1L28.5,74.5z M75.1,66.7
			c1.5,0,2.8,0.9,2.8,2.1c0,1.2-1.2,2.1-2.8,2.1c-1.5,0-2.8-0.9-2.8-2.1C72.3,67.6,73.6,66.7,75.1,66.7z M62.3,66.7
			c1.5,0,2.8,0.9,2.8,2.1c0,1.2-1.2,2.1-2.8,2.1c-1.5,0-2.8-0.9-2.8-2.1C59.5,67.6,60.7,66.7,62.3,66.7z"/>
		<path fill="#0E4C96" d="M69.4,101.9c1.6,1.2,2.8,2.1,3.4,2.6c2.1,2,5.8,7.5,7.6,10.4c-1.5,4.2,0.6,9.3,5.2,11.9
			c5,2.9,11,1.8,13.6-2.4c0-0.1,0.1-0.2,0.1-0.2c2.5-4.4,0.4-10.3-4.6-13.2c-4.4-2.5-9.5-2-12.5,1l-8.1-11.3
			C72.2,101.1,70.6,101.6,69.4,101.9z M97.1,122.9L97,123c-1.8,3-6.4,3.7-10.1,1.5c-3.8-2.2-5.5-6.5-3.7-9.6l0.1-0.2
			c1.8-3,6.4-3.7,10.1-1.5C97.2,115.4,98.9,119.8,97.1,122.9z"/>
		<path fill="#0E4C96" d="M103.8,88.4c-4.8-1.8-10.1-0.3-12.4,3.5c0,0-0.1,0.1-0.1,0.2c-2.9,0.8-9.2,2.2-16.8,1.6
			c-3,0.3-46.9-10.9-46.9-10.9l-0.2,1.6l40.3,16.2c0,0,15.7-4.7,22.5-4.8c-0.2,4.1,2.7,8.2,7.3,9.8c4.9,1.8,10.1,0.3,12.4-3.5
			c0.3-0.5,0.5-0.9,0.7-1.4C112.3,95.9,109.3,90.4,103.8,88.4z M68.9,97.4c-0.5,0.8-1.5,1-2.2,0.5c-0.8-0.5-1-1.5-0.5-2.2
			c0.5-0.8,1.5-1,2.2-0.5C69.1,95.7,69.4,96.7,68.9,97.4z M108.1,99.7c-0.1,0.3-0.3,0.7-0.5,1c-1.7,2.7-5.6,3.7-9.3,2.4
			c-4.1-1.5-6.5-5.5-5.2-8.9c0.1-0.3,0.3-0.7,0.5-1c1.7-2.7,5.6-3.7,9.3-2.4C107,92.4,109.3,96.3,108.1,99.7z"/>
		<path fill="#0E4C96" d="M46.6,86.1c5.5,1.4,11.3,2.7,16.2,3.8L31.2,74l-0.8,1.3L46.6,86.1z"/>
	</g>
	<g>
		<g>
			<polygon fill="#C7E0A1" points="29.3,44.2 35.2,42.3 38.6,45.3 40.2,40.1 46.3,35.8 41.3,34.4 41.7,29.4 36.6,34 31.6,34.2 
				32.8,38.7 			"/>
			<path fill="#C7E0A1" d="M62.7,33.5l-2.9,6.3l6.6-3l5.5,3.1l1.2-6.4l8.1-5.4l-7.5-0.8l-1.2-5.8c0,0-3.6,4-5.4,6
				c-2.5,0.4-7.4,1.3-7.4,1.3L62.7,33.5z"/>
			<path fill="#C7E0A1" d="M91.9,50c1.5-0.6,10-3.9,10-3.9l7.7,3.7c0,0,0.7-5.1,1.1-7.7c3.3-2.3,10.3-6.1,10.3-6.1
				s-7.1-0.2-10.6-0.5c-0.7-2.3-2-6.9-2-6.9s-4.7,5.1-7.2,7.4c-2.1,0.3-9.6,1.5-9.6,1.5s3.3,3.3,4.9,5C94.8,44.9,93.4,47.5,91.9,50z
				"/>
			<path fill="#C7E0A1" d="M116.1,70.8c-1.2,2.7-2.6,5.3-3.7,8.1c3.8-1.3,7.6-2.8,11.4-4c3.4,1.3,10.1,3.8,10.1,3.8
				s-0.4-5.3-0.6-7.9c3.3-2.7,7.4-4.5,10.9-6.9c-4.4-0.3-8.7-0.4-13.1-0.6c-1.1-2.5-2.4-4.9-3.8-7.2c-2.3,2.6-6.9,7.8-6.9,7.8
				l-11.6,1.8C108.9,65.7,113.6,69.2,116.1,70.8z"/>
			<path fill="#C7E0A1" d="M9.9,56.2l-1.1,5.2l4.4-3.4l4.3,1.3l-0.5-5.1c0,0,2.4-3.2,3.7-4.6c-1.7,0.2-5.1,1-5.1,1l-2-3.9l-2.1,5.7
				l-4.4,1.4L9.9,56.2z"/>
		</g>
	</g>
</g>
</svg>
