<?xml version="1.0" encoding="utf-8"?>
<!-- Generator: Adobe Illustrator 18.1.0, SVG Export Plug-In . SVG Version: 6.00 Build 0)  -->
<svg version="1.0" id="Layer_1" xmlns="http://www.w3.org/2000/svg" xmlns:xlink="http://www.w3.org/1999/xlink" x="0px" y="0px"
	 viewBox="0 0 150 150" enable-background="new 0 0 150 150" xml:space="preserve">
<g>
	<g>
		<path fill="#494E5C" d="M77.3,116.5c28.9,0,52.4-23.5,52.4-52.4h-1.1c0,28.3-23,51.3-51.3,51.3V116.5z"/>
		<path fill="#494E5C" d="M136.5,88.8c0,0-5.4,10.7-15.3,7C121.2,95.9,124.8,86.3,136.5,88.8"/>
		<path fill="#494E5C" d="M116.3,74.4c0,0,8.5,8.4,2.1,16.7C118.4,91,110.4,84.7,116.3,74.4"/>
		<path fill="#494E5C" d="M127.6,101.4c0,0-6.6,9.9-16,5.2C111.6,106.6,116.3,97.5,127.6,101.4"/>
		<path fill="#494E5C" d="M110.3,84.3c0,0,7.5,9.3,0.2,16.8C110.5,101,103.2,93.8,110.3,84.3"/>
		<path fill="#494E5C" d="M141.6,74.6c0,0-3.8,11.3-14,9.2C127.6,83.8,129.7,73.8,141.6,74.6"/>
		<path fill="#494E5C" d="M119.9,62.1c0,0,9.7,7,4.6,16.2C124.5,78.2,115.6,73.2,119.9,62.1"/>
		<path fill="#494E5C" d="M126.9,43.1c0,0,9.6,9.7,2.2,19.1C129.1,62.2,120,54.9,126.9,43.1"/>
		<path fill="#494E5C" d="M144.2,59.9c0,0-2.7,11.6-13.1,10.5C131.1,70.4,132.3,60.3,144.2,59.9"/>
		<path fill="#494E5C" d="M115.5,113.5c0,0-9.2,7.6-16.8,0.4C98.7,113.9,105.8,106.5,115.5,113.5"/>
		<path fill="#494E5C" d="M103.8,92.1c0,0,4.5,11.1-4.6,16.1C99.2,108.2,94.3,99.3,103.8,92.1"/>
		<path fill="#494E5C" d="M100.5,121.1c0,0-10.5,5.7-16.5-2.9C84,118.2,92.4,112.4,100.5,121.1"/>
		<path fill="#494E5C" d="M93.3,97.9c0,0,2.3,11.7-7.7,14.9C85.6,112.8,82.6,103,93.3,97.9"/>
		<path fill="#494E5C" d="M72.1,116.5c-28.9,0-52.4-23.5-52.4-52.4h1.1c0,28.3,23,51.3,51.3,51.3V116.5z"/>
		<path fill="#494E5C" d="M13,88.8c0,0,5.4,10.7,15.2,7C28.2,95.9,24.6,86.3,13,88.8"/>
		<path fill="#494E5C" d="M33.2,74.4c0,0-8.5,8.4-2.1,16.7C31.1,91,39.1,84.7,33.2,74.4"/>
		<path fill="#494E5C" d="M21.9,101.4c0,0,6.6,9.9,16,5.2C37.8,106.6,33.1,97.5,21.9,101.4"/>
		<path fill="#494E5C" d="M39.1,84.3c0,0-7.5,9.3-0.2,16.8C39,101,46.2,93.8,39.1,84.3"/>
		<path fill="#494E5C" d="M7.8,74.6c0,0,3.8,11.3,14,9.2C21.9,83.8,19.7,73.8,7.8,74.6"/>
		<path fill="#494E5C" d="M29.5,62.1c0,0-9.7,7-4.6,16.2C24.9,78.2,33.8,73.2,29.5,62.1"/>
		<path fill="#494E5C" d="M22.5,43.1c0,0-9.7,9.7-2.2,19.1C20.3,62.2,29.4,54.9,22.5,43.1"/>
		<path fill="#494E5C" d="M5.3,59.9c0,0,2.7,11.6,13.1,10.5C18.3,70.4,17.2,60.3,5.3,59.9"/>
		<path fill="#494E5C" d="M34,113.5c0,0,9.2,7.6,16.8,0.4C50.7,113.9,43.7,106.5,34,113.5"/>
		<path fill="#494E5C" d="M45.6,92.1c0,0-4.5,11.1,4.6,16.1C50.2,108.2,55.1,99.3,45.6,92.1"/>
		<path fill="#494E5C" d="M48.9,121.1c0,0,10.5,5.7,16.5-2.9C65.5,118.2,57.1,112.4,48.9,121.1"/>
		<path fill="#494E5C" d="M56.1,97.9c0,0-2.3,11.7,7.7,14.9C63.9,112.8,66.9,103,56.1,97.9"/>
	</g>
	<path fill="#494E5C" d="M53.8,72.7l0-0.2c0-0.1,0-0.2,0-0.3c0,0-0.1,0-0.1,0L49.8,55l0,0l0,0c0.2,0,0.5-0.1,0.7-0.2
		c0.6-0.4,0.8-1.3,0.4-1.9c0.1,0.4-0.1,0.9-0.4,1.1c-0.5,0.3-1.2,0.2-1.5-0.3c-0.3-0.4-0.2-1,0.1-1.4c-0.1,0-0.1,0.1-0.2,0.1
		c-0.7,0.5-0.8,1.3-0.4,2c0.2,0.4,0.6,0.6,1,0.6l0,0.1L43,72.3c0,0-0.1,0-0.1,0c0,0.1,0,0.1,0,0.2l-0.1,0.1l0.1,0
		c0.3,2.4,2.6,4.2,5.4,4.2C51.1,76.9,53.4,75.1,53.8,72.7L53.8,72.7z M43.3,72.3L49.4,56l-1.3,16.7C46.4,72.7,44.8,72.6,43.3,72.3
		 M48.3,72.7l1.3-17l3.8,16.6C51.9,72.6,50.2,72.7,48.3,72.7"/>
	<path fill="#494E5C" d="M107.3,72.3l-0.1-0.1c0-0.1,0-0.1,0-0.2c0,0-0.1,0-0.1,0l-6.6-17.1c0.2,0,0.3-0.1,0.4-0.2
		c0.6-0.5,0.7-1.4,0.3-2c-0.1-0.1-0.1-0.1-0.2-0.2c0.2,0.5,0.1,1-0.3,1.4c-0.5,0.4-1.1,0.3-1.5-0.2c-0.3-0.4-0.3-0.8-0.1-1.2
		c-0.6,0.5-0.7,1.3-0.2,2c0.3,0.3,0.7,0.5,1.1,0.6l-4,17c0,0-0.1,0-0.1,0c0,0.1,0,0.2,0,0.2l0,0.2l0.1,0c0.4,2.3,2.7,4.1,5.6,4.1
		C104.5,76.5,106.9,74.7,107.3,72.3L107.3,72.3z M96.3,72l4-16.6l1.4,17C99.7,72.4,97.9,72.2,96.3,72 M101.9,72.4l-1.3-16.7
		l6.3,16.4C105.3,72.2,103.6,72.3,101.9,72.4"/>
	<polygon fill="#005120" points="47,50.1 64.6,62.7 57.8,83.2 75.2,70.3 75.3,70.4 92.6,83.2 85.8,62.7 103.4,50.1 81.7,50.2 
		75.3,29.8 75.2,29.6 75.1,29.9 68.7,50.2 	"/>
</g>
</svg>
