<?xml version="1.0" encoding="utf-8"?>
<!-- Generator: Adobe Illustrator 18.1.0, SVG Export Plug-In . SVG Version: 6.00 Build 0)  -->
<svg version="1.0" id="Layer_1" xmlns="http://www.w3.org/2000/svg" xmlns:xlink="http://www.w3.org/1999/xlink" x="0px" y="0px"
	 viewBox="0 0 150 150" enable-background="new 0 0 150 150" xml:space="preserve">
<g>
	<rect x="73.9" y="9.9" fill="#8C6933" width="67.5" height="131.4"/>
	<g>
		<path fill="#FCBB61" d="M73.7,37.4c-4.2,0.5-5.8-0.9-5.8-0.9c3.9,0.7,5.9-0.1,5.9-0.1c-1.4-1-2.7-1.6-3.9-1.9
			c-1.3-0.4-2.4-0.4-3.4-0.3c-2.5,0.4-3.8,2.1-3.8,2.1C69.8,42.5,73.7,37.4,73.7,37.4z"/>
		<path fill="#FCBB61" d="M122.7,78.7c1,0.9,2.1,1.4,3,1.6c2.4,0.7,4.3-0.3,4.3-0.3c-3.9-8.5-9.5-5.6-9.5-5.6c4,1.3,4.9,3.3,4.9,3.3
			c-3.2-2.3-5.5-2.3-5.5-2.3C120.8,76.9,121.7,78,122.7,78.7z"/>
		<path fill="#FCBB61" d="M87.8,84.4c-1.7,0.5-3,1.1-3.9,1.8c-1.1,0.8-1.9,1.6-2.4,2.5c-1.3,2.2-0.8,4.2-0.8,4.2
			c9.3-1.5,7.9-7.7,7.9-7.7c-2.3,3.5-4.4,3.8-4.4,3.8C87.2,86.6,87.8,84.4,87.8,84.4z"/>
		<path fill="#FCBB61" d="M88.1,81.9c1.7,0,3.1-0.1,4.3-0.5c1.3-0.4,2.2-1,3-1.6c1.9-1.7,2.1-3.8,2.1-3.8c-9.3-1.3-9.8,5-9.8,5
			c3.2-2.7,5.4-2.4,5.4-2.4C89.3,80.1,88.1,81.9,88.1,81.9z"/>
		<path fill="#FCBB61" d="M91.5,85.3c-0.7,1.6-1.1,3-1.3,4.1c-0.2,1.4,0,2.5,0.3,3.4c0.8,2.4,2.6,3.5,2.6,3.5c5-8-0.6-11-0.6-11
			c1.1,4,0,5.8,0,5.8C92.6,87.1,91.5,85.3,91.5,85.3z"/>
		<path fill="#FCBB61" d="M123.6,89.5c-3.3-1.1-11.1-3.5-13.2-7c-2.9-4.8-3.4-6.2-0.7-6c2.6,0.7,4.2,0.6,5.5,0.2
			c-0.4,1.4-0.6,2.7-0.6,3.7c0,1.4,0.3,2.5,0.8,3.3c1.1,2.3,3,3.1,3,3.1c3.8-8.2-1.5-10.7-1.9-10.8c0.6-0.4,1.2-0.9,1.9-1.5
			c1.4-1.2,2-1.3,2.6-1.2c3,0.1,4.9-1.5,5.5-2.6c0.9-1.7,1.6-3.8,1.7-5c1.2-1.2,3.5-4.7-1.2-10.5c0,0-1.7,1.2-2.2,3.7
			c-0.2,1-0.2,2.1,0,3.4c0.3,1.2,0.8,2.5,1.7,4c0,0,0.9-2,0.4-5.9c0,0,1.4,1.7,0.7,5.8c0,0,0,0,0.1,0c-1.5,4.5-2.1,4.8-3.7,5.5
			c-1.8,0.8-3.6-0.6-6.4,2.4c-2.7,3-7.6,0.6-11.3-0.2c-3.7-0.7-8.7-0.7-7.5-2.2c0.6-0.8,1.1-1.6,1.5-2.5c0.8-0.2,2.6-0.7,4.8-2.3
			c0,0-0.8,2-4.8,3.4c0,0,5.7,2.9,9.4-5.8c0,0-1.9-0.9-4.3-0.2c-0.9,0.3-2,0.8-3,1.7c-0.6,0.5-1.1,1.1-1.7,1.9
			c0.1-0.5,0.2-1.1,0.3-1.8c0.3-2.8,0.1-3.4,3.3-5.8c3.6-2.7,3.3-4.9,4.4-6.5c1.6-2.3,1.8-3.4,1.7-4.3c0,0,0,0.1,0,0.1
			s1.3-1.8,1.4-5.7c0,0,1,1.9-0.3,5.8c0,0,5.7-2.7,1.2-10.9c0,0-1.9,0.9-2.8,3.2c-0.3,0.9-0.6,2-0.5,3.4c0,0.9,0.2,1.9,0.6,3
			c0,0.1,0,0.1,0,0.1c0.4,3.3-1,2.8-2.8,6.5c-1.1,2.5-2.7,3.2-4.4,4.7c0.9-1.8,1.3-4.7-1.8-9c0,0-1.7,1.1-2.4,3.6
			c-0.3,0.9-0.4,2.1-0.1,3.4c0.2,1.2,0.7,2.5,1.5,4.1c0,0,1-1.9,0.7-5.9c0,0,1.2,1.7,0.4,5.6c-0.3,0.4-0.6,0.8-0.9,1.3
			c-2.5,4.2-1,5.5-3.2,8c-2.1,2.3-4.5,1.9-7.8,1.8c-3-2.9-3-5-3-5c2,3.5,3.9,4.4,3.9,4.4c-0.2-1.7-0.6-3.1-1.1-4.2
			c-0.6-1.2-1.3-2.1-2-2.7c-1.9-1.6-4-1.6-4-1.6c-0.1,7.3,3.7,8.8,5.4,9.1c-0.1,0-0.1,0-0.2,0c-3.8,0-5.8-0.4-7.2,0.7
			c-1.7,1.3-3.1,5.7-4.4,6.3c-1.1,0.5-1,0.1-3.5-1.6C70.5,76,70.2,72,70.7,69c0.5-3,0.7-7.4-0.2-10.7c-0.7-2.3-1.6-3.3-1-5.5
			c0.2,0,5.3,1,8.5-1.8c3.2-2.9,2.5-5.4,4.2-6.1c0.8-0.3,1.6,0.8,2.7,1.9c1.1,1,5.7-1.5,7.9-2.8c1.6,0,5.8-0.7,6.8-8.1
			c0,0-2.1-0.4-4.2,0.9c-0.8,0.5-1.7,1.3-2.4,2.4c-0.7,1-1.3,2.3-1.7,4c0,0,2.1-0.7,4.5-3.8c0,0-0.3,2.1-3.7,4.5
			c-5.1,2.9-8,2.7-9.1-0.6c-1-3-1.9-6.4-1.1-7c0.6-0.5,0.9-0.7,1.2-0.8c0.8-0.1,2.6-0.4,5-1.7c0,0-1.1,1.8-5.2,2.7
			c0,0,5.3,3.6,10-4.5c0,0-1.8-1.2-4.2-0.8c-1,0.1-2,0.5-3.1,1.3c-1,0.6-2.1,1.6-3.1,3c-1.3,0.7-1.7,1.6-1.3,3.5
			c0.3,1.6,0.9,2.6,0.4,4.2c-0.4,1.5-2.2,3.6-3.2,5.1c-1.4,2.1-8,4.9-7.4,0.9c2.4-4.1,2.9-3.1,4.1-6.6c2.1-5.8-1-8-0.7-10
			c0.1-0.7,0.4-1.2,0.9-1.7c1.3-0.3,2.4-0.7,3.3-1.2c1.2-0.7,2-1.4,2.6-2.2c1.5-2,1.3-4.1,1.3-4.1c-9.4,0.5-8.7,6.8-8.7,6.8
			c2.7-3.2,4.8-3.3,4.8-3.3c-2.5,1.7-3.6,3.2-4,3.9c-1.6,1.2-1,2.5-0.2,5.4c1,3.7-2.2,6.7-4,9.7c-0.5,0.9-1.1,1.7-1.7,2.7
			c-1.4,2.1-2.6,4.3-2.1,6.6c0.8,3.2,3.5,5.3,1.7,10c-1.7,4.7-3.5,1.8-9,1.9c-4.7,0.1-8.3,0.5-8.3-0.7c0-1.2,0.2-4.5-1.8-8.4
			c-1.1-2.2-2.2-4,1.1-5.8c1.3-0.7,2.2-1.4,2.6-2.1c0.1,0,2.2-0.2,5.3-2.5c0,0-0.8,2-4.7,3.4c0,0,5.7,2.8,9.3-5.9
			c0,0-1.9-0.9-4.3-0.2c-0.9,0.3-2,0.8-3,1.7c-0.8,0.7-1.6,1.6-2.3,2.9c0.3-0.6,0.3-1.2,0.2-1.6c0.4-0.8,2-5.9-5.9-9.2
			c0,0-0.9,1.9-0.2,4.3c0.3,0.9,0.8,2,1.7,3c0.8,0.9,1.9,1.8,3.4,2.7c0,0-0.1-2.2-2.5-5.3c0,0,1.7,0.7,3.1,3.9c-0.1,0-0.1,0.1,0,0.5
			c0.5,2.7-2.3,2.5-4.8,4.5c-2.5,2-1.2,5-0.2,7.5c1,2.6,1.7,5.2,0.2,7c-1.5,1.7-3.1,1.6-5.7,2.5c-3,1-9.4,1.2-14.2,0.2
			c-1.5-0.3-3.1-1.6-3.5-4.2c-0.6-3.2-2.3-4.8-3.4-5.3c-1.2-1.2-2.3-2.1-3.3-2.6c-1.2-0.7-2.3-0.9-3.3-1c-2.5-0.1-4.1,1.2-4.1,1.2
			c5.6,7.6,10.5,3.5,10.5,3.5c-4.2-0.4-5.4-2.2-5.4-2.2c2.1,0.9,3.7,1.2,4.7,1.2c0.1,0.1,0.2,0.2,0.4,0.4c1.1,0.8,1.7,1.9,2.1,3.1
			c0.3,1,0.4,2.1,0.4,3.2c0,2.5,3.7,5,7.5,5c3.7,0,8-0.3,8,1.5c0,1.7-3.7,4-4.5,7.4c-0.8,3.5,3.2,2.8,5,7.2c1.5,3.5,0.1,7.4-0.5,9
			c-0.6,0.7-1.5,2.2-2.3,4.6c0,0-0.5-2.1,1.8-5.6c0,0-6.2,1.2-4,10.3c0,0,2.1-0.4,3.6-2.4c0.6-0.8,1.1-1.8,1.4-3.1
			c0.2-1.1,0.3-2.4,0.1-3.9c1.3-2.6,1.6-7.5,1.1-8.8c-1.6-4.1-4-4.1-4-7.2c0-3,4.7-7,6.5-8.7c1.7-1.7,5.7-2.5,8.2-2.5
			c2.5,0,4.7-0.3,9,0c4.2,0.3,5,0.7,6,3.2c1,2.5,1.2,5.7,2,7c0.8,1.3,3,3,2,7.8c-1,4.8,0,19,0,19s0.7,4.7,0.5,8
			c-0.2,2.8-0.1,8.4-0.2,10.3c-0.1,1.7-3.2,2.2-5.3,2.4c-1.9,0.2-5.4,0.9-8.9,1.1v1h34.2V128c-3.6-0.2-7.3-0.8-9.2-1.2
			c-1.9-0.3-4.2-0.9-4.4-2.4c-0.5-2.8-0.1-8.8-0.2-12c-0.2-3.4-0.1-6.7-0.4-10.2c-0.4-4.2,0.3-9.5,0.3-14c0-4.5,2-4.3,4-4
			c2,0.3,4.8,0.3,7.5-0.3c2.7-0.5,5.9-0.2,7.2,3c0.4,1,1.3,1.6,2.2,2.1c1,1.5,3.8,4,10.2,1.5c0,0-0.7-2-2.9-3.2
			c-0.9-0.5-2-0.8-3.3-1c-1.2-0.1-2.6,0-4.3,0.5c0,0,1.6,1.5,5.5,2.1c0,0-2,0.7-5.6-1c-0.2-0.1-0.3-0.3-0.4-0.4
			c-0.7-0.8-1.2-1.6-1.7-2.2c1.7,0.2,3.1,0.1,4.3-0.1c1.3-0.3,2.4-0.8,3.1-1.4c2-1.6,2.4-3.6,2.4-3.6c-9.2-2.2-10.2,4-10.2,4
			c3.5-2.3,5.5-1.9,5.5-1.9c-3.6,1.1-5,2.7-5.1,2.9c-1.6-2-3.1-3.1-8.8-3.3c-7.5-0.3-6.8-3.1-4-6.5c2.7-3.5,15.2-0.5,17.2-1.3
			c1.2-0.4,2.9,0,5.1,0.6c0,0,3.4,7.4,6.1,9.6c2.7,2.2,11,5.1,13.5,5.4c3,2,3.4,3.9,3.4,3.9c-2.7-2.9-4.8-3.5-4.8-3.5
			c0.5,1.6,1.2,2.9,2,3.9c0.8,1,1.7,1.8,2.6,2.2c2.2,1.2,4.3,0.6,4.3,0.6C129.6,89.1,124.8,89.3,123.6,89.5z M116.3,76
			c1.6,3.8,0.7,5.8,0.7,5.8c-0.3-2.9-1.1-4.6-1.5-5.3C115.8,76.3,116.1,76.2,116.3,76z"/>
		<path fill="#FCBB61" d="M118.6,89.4c0.9,4.1-0.4,5.8-0.4,5.8c0.3-3.9-0.7-5.9-0.7-5.9c-0.8,1.6-1.3,2.9-1.5,4.1
			c-0.2,1.4-0.2,2.5,0.1,3.4c0.7,2.5,2.4,3.6,2.4,3.6C124,92.7,118.6,89.4,118.6,89.4z"/>
		<path fill="#FCBB61" d="M111.3,91.9c2.7-2.9,2.9-5.1,2.9-5.1c-1.6,0.7-2.8,1.5-3.6,2.3c-1,0.9-1.6,1.9-2,2.8
			c-0.9,2.3-0.2,4.3-0.2,4.3c8.9-2.9,6.7-8.8,6.7-8.8C113.4,91.3,111.3,91.9,111.3,91.9z"/>
		<path fill="#FCBB61" d="M48.6,51.1c-4-1.1-5-3.1-5-3.1c3.3,2.2,5.5,2.2,5.5,2.2c-0.9-1.5-1.9-2.6-2.9-3.3c-1-0.8-2.1-1.3-3-1.5
			c-2.5-0.6-4.3,0.4-4.3,0.4C43.1,54.3,48.6,51.1,48.6,51.1z"/>
		<path fill="#FCBB61" d="M46.6,55.3c-2.9,3.1-5,3-5,3c3.4-2,4.4-3.9,4.4-3.9c-1.7,0.2-3.1,0.6-4.2,1.1c-1.2,0.6-2.1,1.3-2.7,2
			c-1.6,2-1.5,4.1-1.5,4.1C46.9,61.6,46.6,55.3,46.6,55.3z"/>
		<path fill="#FCBB61" d="M58.2,66.8c1.7-0.5,3-1.1,4-1.7c1.1-0.8,1.9-1.7,2.4-2.5c1.3-2.2,0.8-4.2,0.8-4.2
			c-9.3,1.4-7.9,7.6-7.9,7.6c2.3-3.5,4.4-3.8,4.4-3.8C58.9,64.7,58.2,66.8,58.2,66.8z"/>
		<path fill="#FCBB61" d="M50.6,52.6c0.1,1.8,0.4,3.1,0.8,4.3c0.5,1.3,1.2,2.2,1.9,2.9c1.8,1.7,3.9,1.8,3.9,1.8
			c0.7-9.4-5.6-9.5-5.6-9.5c2.9,3.1,2.7,5.2,2.7,5.2C52.5,53.7,50.6,52.6,50.6,52.6z"/>
		<path fill="#FCBB61" d="M76,52.4c-0.9,1.5-1.4,2.9-1.6,4c-0.3,1.3-0.2,2.5,0,3.4c0.6,2.5,2.3,3.7,2.3,3.7c5.6-7.5,0.4-11,0.4-11
			c0.8,4.1-0.6,5.8-0.6,5.8C77,54.4,76,52.4,76,52.4z"/>
		<path fill="#FCBB61" d="M81.6,46.7c0,0-3.9,4.9,3.7,10.3c0,0,1.3-1.6,1.1-4.2c-0.1-1-0.4-2.1-1-3.3c-0.6-1-1.5-2.2-2.8-3.3
			c0,0-0.4,2.2,1.3,5.7C83.9,52.1,82.1,50.9,81.6,46.7z"/>
		<path fill="#FCBB61" d="M92.9,45.2c0,0,1.6,1.5,5.5,2.2c0,0-2,0.8-5.8-1.1c0,0,1.9,6,10.7,2.7c0,0-0.7-2-2.8-3.2
			c-0.9-0.5-1.9-0.9-3.3-1C96,44.6,94.6,44.8,92.9,45.2z"/>
		<path fill="#FCBB61" d="M109.3,52.6c0,0,2.2,0.5,5.8-0.9c0,0-1.3,1.7-5.5,2c0,0,4.7,4.3,10.6-3c0,0-1.6-1.4-4.1-1.4
			c-1,0-2.1,0.2-3.3,0.8C111.7,50.6,110.5,51.4,109.3,52.6z"/>
		<path fill="#FCBB61" d="M97.8,66.9c0,0,2.7-5.7-6-9.2c0,0-0.9,1.9-0.1,4.3c0.3,0.9,0.9,1.9,1.8,2.9c0.8,0.8,1.9,1.7,3.5,2.5
			c0,0-0.2-2.2-2.6-5.3C94.3,62.2,96.3,63,97.8,66.9z"/>
		<path fill="#FCBB61" d="M114.4,59.2c-0.8-0.6-1.9-0.9-3.3-1.2c-1.2-0.1-2.6-0.1-4.3,0.3c0,0,1.6,1.6,5.4,2.4c0,0-2,0.7-5.7-1.4
			c0,0,1.7,6.1,10.6,3.2C117.1,62.5,116.5,60.5,114.4,59.2z"/>
		<path fill="#FCBB61" d="M133.4,66.7c-1,0.1-2.1,0.4-3.2,1.1c-1.1,0.6-2.1,1.5-3.3,2.8c0,0,2.2,0.3,5.7-1.4c0,0-1.2,1.8-5.3,2.4
			c0,0,5,3.8,10.3-4C137.6,67.7,135.9,66.5,133.4,66.7z"/>
		<path fill="#FCBB61" d="M129.2,82.8c-1,0.1-2.1,0.4-3.3,1.1c-1,0.6-2.1,1.5-3.2,2.9c0,0,2.1,0.3,5.7-1.4c0,0-1.2,1.8-5.3,2.5
			c0,0,5,3.8,10.3-4C133.4,83.8,131.7,82.5,129.2,82.8z"/>
		<path fill="#FCBB61" d="M118.6,67.7c0.2,1.2,0.7,2.5,1.6,4c0,0,1-2,0.6-5.9c0,0,1.3,1.8,0.4,5.8c0,0,5.3-3.4-0.2-11
			c0,0-1.8,1.2-2.4,3.6C118.4,65.2,118.3,66.3,118.6,67.7z"/>
		<path fill="#FCBB61" d="M134,61.1c0,0-0.2,2.1-3.5,4.7c0,0,6.2,1,7.1-8.3c0,0-2.1-0.3-4.2,1.1c-0.8,0.6-1.6,1.4-2.3,2.5
			c-0.6,1.1-1.1,2.4-1.5,4.1C129.6,65.1,131.7,64.3,134,61.1z"/>
		<path fill="#FCBB61" d="M114.4,64.1c0,0-1.8,1.1-2.4,3.6c-0.2,1-0.3,2.1-0.1,3.4c0.2,1.2,0.7,2.6,1.6,4c0,0,1-1.9,0.7-5.8
			c0,0,1.2,1.7,0.4,5.8C114.6,75.2,119.9,71.8,114.4,64.1z"/>
		<path fill="#FCBB61" d="M22.9,53.5c0,0,0.9,2-0.8,5.8c0,0,5.9-2.2,2.1-10.8c0,0-1.9,0.8-3.1,3c-0.4,0.9-0.8,2-0.8,3.4
			c0,1.2,0.2,2.6,0.7,4.2C21.1,59.1,22.5,57.4,22.9,53.5z"/>
		<path fill="#FCBB61" d="M28.6,57.5c0,0-0.2,2.2-3.6,4.6c0,0,6.2,1.1,7.4-8.2c0,0-2-0.3-4.2,1c-0.8,0.5-1.7,1.3-2.4,2.5
			c-0.6,1-1.2,2.3-1.6,4C24.1,61.4,26.2,60.6,28.6,57.5z"/>
		<path fill="#FCBB61" d="M26.1,65.7c0,0,2.2,0.3,5.7-1.5c0,0-1.2,1.8-5.3,2.6c0,0,5.2,3.7,10.2-4.2c0,0-1.7-1.2-4.2-0.9
			c-1,0.1-2.1,0.4-3.2,1.2C28.2,63.4,27.1,64.3,26.1,65.7z"/>
		<path fill="#FCBB61" d="M23,65.2c0,0-2.2,0.1-5.4,2.5c0,0,0.8-2,4.8-3.4c0,0-5.7-2.8-9.4,5.8c0,0,1.9,0.9,4.3,0.2
			c0.9-0.3,2-0.8,3-1.7C21.2,67.8,22.1,66.7,23,65.2z"/>
		<path fill="#FCBB61" d="M22.3,75.4c0,0-0.7-2,1.3-5.7c0,0-6.1,1.7-3.1,10.6c0,0,2-0.6,3.3-2.7c0.5-0.8,0.9-1.9,1.1-3.2
			c0.2-1.2,0.1-2.7-0.2-4.3C24.7,70,23.1,71.5,22.3,75.4z"/>
		<path fill="#FCBB61" d="M27.9,72.1c0,0-4.2,4.7,3.1,10.6c0,0,1.4-1.6,1.4-4.1c0-1-0.2-2.1-0.8-3.3c-0.5-1.1-1.3-2.2-2.5-3.5
			c0,0-0.5,2.1,0.9,5.8C29.9,77.7,28.2,76.3,27.9,72.1z"/>
		<path fill="#FCBB61" d="M43.3,72.1c0,0-4.3,4.7,3.1,10.6c0,0,1.4-1.6,1.4-4.1c0-1-0.2-2.1-0.9-3.3c-0.5-1.1-1.3-2.2-2.5-3.5
			c0,0-0.5,2.1,0.9,5.8C45.3,77.7,43.5,76.3,43.3,72.1z"/>
		<path fill="#FCBB61" d="M36.6,94.1c0.8-0.9,1.6-2.1,2.3-3.7c0,0-2.2,0.3-5.1,3c0,0,0.6-2.1,4.4-3.8c0,0-5.9-2.3-8.8,6.7
			c0,0,2,0.7,4.3-0.2C34.7,95.7,35.7,95.1,36.6,94.1z"/>
		<path fill="#FCBB61" d="M50.6,98.7c0,0-0.1-2.1-1.9-3.9c-0.7-0.7-1.6-1.3-2.9-1.7c-1.1-0.4-2.5-0.7-4.3-0.7c0,0,1.1,1.9,4.8,3.5
			c0,0-2.1,0.2-5.3-2.5C40.9,93.4,41.3,99.8,50.6,98.7z"/>
		<path fill="#FCBB61" d="M46.9,86.6c0,0-1.7,1.3-5.8,0.6c0,0,3.6,5.2,11-0.6c0,0-1.2-1.7-3.6-2.3c-1-0.2-2.1-0.2-3.4,0
			c-1.2,0.3-2.5,0.8-4,1.7C41,86.1,43,87.1,46.9,86.6z"/>
		<path fill="#FCBB61" d="M88.3,57c0,0,2-0.6,3.3-2.8c0.5-0.8,0.9-1.9,1-3.2c0.1-1.2,0-2.6-0.3-4.3c0,0-1.5,1.5-2.3,5.4
			c0,0-0.7-2,1.2-5.8C91.2,46.4,85.1,48.2,88.3,57z"/>
		<path fill="#FCBB61" d="M71.6,33.1c-3.4-2.4-3.7-4.6-3.7-4.6c2.4,3.1,4.5,3.8,4.5,3.8c-0.4-1.7-1-3-1.6-4c-0.7-1.1-1.6-2-2.4-2.5
			c-2.1-1.4-4.2-1-4.2-1C65.3,34.2,71.6,33.1,71.6,33.1z"/>
	</g>
	<rect x="9.2" y="9.9" fill="#FCBB61" width="64.3" height="131.4"/>
	<g>
		<path fill="#8C6933" d="M68.1,36.5c0,0,1.6,1.3,5.6,0.9v-1C73.4,36.6,71.6,37.1,68.1,36.5z"/>
		<path fill="#8C6933" d="M68.1,36.5c3.5,0.6,5.3,0.1,5.6-0.1v-0.2c-1.3-0.9-2.5-1.5-3.6-1.8c-1.3-0.4-2.4-0.4-3.4-0.3
			c-2.5,0.4-3.8,2.1-3.8,2.1c6.3,5.5,10,2.1,10.8,1.4v-0.2C69.7,37.8,68.1,36.5,68.1,36.5z"/>
		<path fill="#8C6933" d="M73.1,77.8C70.6,76,70.4,72,70.9,69c0.5-3,0.7-7.4-0.2-10.7c-0.7-2.3-1.6-3.3-1-5.5c0.1,0,2,0.3,4.1,0V51
			c-1.6,0.3-2.8,0-2.5-1.9c1.2-2.1,1.9-2.9,2.5-3.6v-4.5c-0.9,1.6-2.2,3.2-3.1,4.7c-0.5,0.9-1.1,1.7-1.7,2.7c-1.3,2.1-2.6,4.3-2,6.6
			c0.8,3.2,3.5,5.3,1.7,10c-1.7,4.7-3.5,1.8-9,1.9c-4.7,0.1-8.3,0.5-8.3-0.7c0-1.2,0.2-4.5-1.8-8.4c-1.1-2.2-2.2-4,1.1-5.8
			c1.4-0.7,2.2-1.4,2.6-2.1c0.1,0,2.2-0.2,5.3-2.5c0,0-0.8,2-4.7,3.4c0,0,5.7,2.8,9.3-5.9c0,0-1.9-0.9-4.3-0.2c-0.9,0.3-2,0.8-3,1.7
			c-0.8,0.7-1.6,1.6-2.3,2.9c0.3-0.6,0.3-1.2,0.2-1.6c0.4-0.8,2-5.9-5.9-9.2c0,0-0.9,1.9-0.2,4.3c0.3,0.9,0.8,2,1.7,3
			c0.8,0.9,1.9,1.8,3.4,2.7c0,0-0.1-2.2-2.5-5.3c0,0,1.7,0.7,3.1,3.9c-0.1,0-0.1,0.1,0,0.5c0.5,2.7-2.4,2.5-4.8,4.5
			c-2.5,2-1.2,5-0.3,7.5c1,2.6,1.7,5.2,0.3,7c-1.5,1.7-3.1,1.6-5.7,2.5c-3,1-9.4,1.2-14.2,0.2c-1.6-0.3-3.1-1.6-3.5-4.2
			c-0.6-3.2-2.3-4.8-3.4-5.3c-1.2-1.2-2.3-2.1-3.3-2.6c-1.2-0.7-2.3-0.9-3.3-1c-2.5-0.1-4.1,1.2-4.1,1.2c5.6,7.6,10.5,3.5,10.5,3.5
			c-4.2-0.4-5.4-2.2-5.4-2.2c2.1,0.9,3.8,1.2,4.7,1.2c0.1,0.1,0.2,0.2,0.4,0.4c1.1,0.8,1.7,1.9,2.1,3.1c0.3,1,0.4,2.1,0.4,3.2
			c0,2.5,3.7,5,7.5,5c3.7,0,8-0.3,8,1.5c0,1.7-3.7,4-4.5,7.4c-0.8,3.5,3.2,2.8,5,7.2c1.5,3.5,0.1,7.4-0.5,9
			c-0.6,0.7-1.5,2.2-2.3,4.6c0,0-0.5-2.1,1.8-5.6c0,0-6.2,1.2-4,10.3c0,0,2.1-0.4,3.6-2.4c0.6-0.8,1.1-1.8,1.4-3.1
			c0.2-1.1,0.3-2.4,0.1-3.9c1.3-2.6,1.6-7.5,1.1-8.8c-1.6-4.1-4-4.1-4-7.2c0-3,4.7-7,6.5-8.7c1.7-1.7,5.7-2.5,8.2-2.5
			c2.5,0,4.7-0.3,9,0c4.2,0.3,5,0.7,6,3.2c1,2.5,1.3,5.7,2,7c0.7,1.3,3,3,2,7.8c-1,4.8,0,19,0,19s0.7,4.7,0.5,8
			c-0.2,2.8-0.1,8.4-0.2,10.3c-0.1,1.7-3.2,2.2-5.2,2.4c-1.9,0.2-5.5,0.9-8.9,1.1v1h17.2V78.2C73.5,78,73.5,78,73.1,77.8z"/>
		<path fill="#8C6933" d="M48.8,51.1c-4-1.1-5-3.1-5-3.1c3.3,2.2,5.5,2.2,5.5,2.2c-0.9-1.5-1.9-2.6-2.9-3.3c-1-0.8-2.1-1.3-3-1.5
			c-2.5-0.6-4.3,0.4-4.3,0.4C43.2,54.3,48.8,51.1,48.8,51.1z"/>
		<path fill="#8C6933" d="M46.7,55.3c-2.9,3.1-5,3-5,3c3.4-2,4.4-3.9,4.4-3.9c-1.7,0.2-3.1,0.6-4.2,1.1c-1.2,0.6-2.1,1.3-2.7,2
			c-1.6,2-1.5,4.1-1.5,4.1C47.1,61.6,46.7,55.3,46.7,55.3z"/>
		<path fill="#8C6933" d="M62.4,65.1c1.1-0.8,1.9-1.7,2.4-2.5c1.3-2.2,0.8-4.2,0.8-4.2c-9.3,1.4-7.9,7.6-7.9,7.6
			c2.3-3.5,4.4-3.8,4.4-3.8c-3,2.5-3.7,4.6-3.7,4.6C60.1,66.3,61.4,65.7,62.4,65.1z"/>
		<path fill="#8C6933" d="M50.7,52.6c0.1,1.8,0.4,3.1,0.8,4.3c0.5,1.3,1.2,2.2,1.9,2.9c1.8,1.7,3.9,1.8,3.9,1.8
			c0.7-9.4-5.6-9.5-5.6-9.5c2.9,3.1,2.7,5.2,2.7,5.2C52.6,53.7,50.7,52.6,50.7,52.6z"/>
		<path fill="#8C6933" d="M23.1,53.5c0,0,0.9,2-0.8,5.8c0,0,5.9-2.2,2.1-10.8c0,0-1.9,0.8-3.1,3c-0.4,0.9-0.8,2-0.8,3.4
			c0,1.2,0.2,2.6,0.7,4.2C21.3,59.1,22.7,57.4,23.1,53.5z"/>
		<path fill="#8C6933" d="M28.8,57.5c0,0-0.2,2.2-3.7,4.6c0,0,6.2,1.1,7.4-8.2c0,0-2-0.3-4.2,1c-0.8,0.5-1.6,1.3-2.4,2.5
			c-0.6,1-1.2,2.3-1.6,4C24.3,61.4,26.4,60.6,28.8,57.5z"/>
		<path fill="#8C6933" d="M26.2,65.7c0,0,2.2,0.3,5.7-1.5c0,0-1.2,1.8-5.3,2.6c0,0,5.1,3.7,10.2-4.2c0,0-1.7-1.2-4.2-0.9
			c-1,0.1-2.1,0.4-3.2,1.2C28.4,63.4,27.3,64.3,26.2,65.7z"/>
		<path fill="#8C6933" d="M23.2,65.2c0,0-2.2,0.1-5.3,2.5c0,0,0.8-2,4.8-3.4c0,0-5.7-2.8-9.4,5.8c0,0,1.9,0.9,4.3,0.2
			c0.9-0.3,2-0.8,3-1.7C21.4,67.8,22.3,66.7,23.2,65.2z"/>
		<path fill="#8C6933" d="M22.5,75.4c0,0-0.7-2,1.3-5.7c0,0-6.1,1.7-3.1,10.6c0,0,2-0.6,3.3-2.7c0.5-0.8,0.9-1.9,1.1-3.2
			c0.2-1.2,0.1-2.7-0.2-4.3C24.9,70,23.3,71.5,22.5,75.4z"/>
		<path fill="#8C6933" d="M32.5,78.6c0-1-0.2-2.1-0.8-3.3c-0.5-1.1-1.3-2.2-2.6-3.5c0,0-0.5,2.1,0.9,5.8c0,0-1.7-1.3-2-5.5
			c0,0-4.2,4.7,3.1,10.6C31.2,82.7,32.5,81.2,32.5,78.6z"/>
		<path fill="#8C6933" d="M46.5,82.7c0,0,1.4-1.6,1.3-4.1c0-1-0.2-2.1-0.8-3.3c-0.5-1.1-1.3-2.2-2.6-3.5c0,0-0.5,2.1,0.9,5.8
			c0,0-1.7-1.3-2-5.5C43.5,72.1,39.2,76.9,46.5,82.7z"/>
		<path fill="#8C6933" d="M39.1,90.5c0,0-2.2,0.3-5.1,3c0,0,0.6-2.1,4.4-3.8c0,0-5.9-2.3-8.8,6.7c0,0,2,0.7,4.3-0.2
			c0.9-0.4,1.9-1,2.8-1.9C37.6,93.2,38.4,92.1,39.1,90.5z"/>
		<path fill="#8C6933" d="M45.9,93.1c-1.1-0.4-2.5-0.7-4.3-0.7c0,0,1.2,1.9,4.8,3.5c0,0-2.1,0.2-5.3-2.5c0,0,0.4,6.3,9.7,5.3
			c0,0-0.1-2.1-1.9-3.9C48.1,94.2,47.2,93.6,45.9,93.1z"/>
		<path fill="#8C6933" d="M48.6,84.4c-1-0.2-2.1-0.2-3.4,0c-1.2,0.3-2.5,0.8-4,1.7c0,0,2,1,5.9,0.5c0,0-1.7,1.3-5.8,0.6
			c0,0,3.6,5.2,11-0.6C52.3,86.6,51.1,84.9,48.6,84.4z"/>
		<path fill="#8C6933" d="M71.8,33.1c-3.4-2.4-3.7-4.6-3.7-4.6c2.4,3.1,4.5,3.8,4.5,3.8c-0.4-1.7-1-3-1.6-4c-0.7-1.1-1.6-2-2.4-2.5
			c-2.1-1.4-4.2-1-4.2-1C65.5,34.2,71.8,33.1,71.8,33.1z"/>
	</g>
</g>
</svg>
