<?xml version="1.0" encoding="utf-8"?>
<!-- Generator: Adobe Illustrator 18.1.0, SVG Export Plug-In . SVG Version: 6.00 Build 0)  -->
<svg version="1.0" id="Layer_1" xmlns="http://www.w3.org/2000/svg" xmlns:xlink="http://www.w3.org/1999/xlink" x="0px" y="0px"
	 viewBox="0 0 150 150" enable-background="new 0 0 150 150" xml:space="preserve">
<g>
	<path fill="#27B373" d="M70.9,69.5C70.9,69.5,70.9,69.5,70.9,69.5C70.9,69.5,70.9,69.5,70.9,69.5C70.8,69.4,70.8,69.4,70.9,69.5
		C70.8,69.5,70.9,69.5,70.9,69.5z"/>
	<path fill="#8B6339" d="M71.2,52.4c-1.1-2.9-2.2-5.7-3.6-8.4c0.2-0.1,0.4-0.1,0.6-0.1c1.6-0.4,3.3-0.7,5-0.9
		c16.6-1.4,31.3,10.9,32.7,27.5c1.2,14.1-7.5,26.8-20.4,31.2c-0.5,6.5-2.2,12.3-4.4,17.3c24.7-2.8,42.9-24.9,40.8-49.8
		c-2.2-25.4-24.6-44.2-50-42c-4.5,0.4-8.8,1.4-12.8,3c-0.6-0.7-1.1-1.3-1.6-2c0.2,0.5,0.4,1.1,0.6,1.6
		C60.5,36.3,65.8,43.4,71.2,52.4z"/>
	<path fill="#3B2416" d="M140.3,67.4c-3.1-35.6-34.5-62.1-70.2-59c-5.7,0.5-11.2,1.7-16.4,3.6c0.3,4.1,1.3,9.7,3.5,16
		c0.5,0.6,1.1,1.3,1.6,2c4-1.6,8.3-2.6,12.8-3c25.4-2.2,47.8,16.7,50,42c2.2,24.9-16,47-40.8,49.8c-3.8,8.6-9.2,14.9-13.5,18.4
		c4.5,0.6,9.1,0.7,13.8,0.3c28.1-2.4,50.4-22.5,57.1-48.3c0.2-1,0.5-1.9,0.7-2.8c0.1-0.3,0.1-0.6,0.1-0.8
		C140.5,79.8,140.9,73.7,140.3,67.4z"/>
	<path fill="#8BC540" d="M76.5,89.1c-4.6-26.8-20.2-41.4-25-53.9c-4.9-12.5-4-22.5-4-22.5s-61,59.5-24.6,118c5.2,6.1,9.6,7.9,13,8
		c5-4.2,10.7-10.1,14.6-17.2c2.2-4.1,3.6-8.5,3.9-12.9c0.5-4.9,0.5-9.1,0.2-13.1c-0.7-7.9-2.8-13.6-3.4-15.5
		c-0.6-1.9-1.8-5.2-3.2-9.3c-1.5-3.9-3.1-8.9-4-13.5c-2-9.3-2.7-17.6-2.7-17.6c0,0,1.7,8.2,4.7,17.1c1.4,4.5,3.3,8.8,5.2,12.7
		c1.8,3.9,3.2,7.3,3.9,9.2c1.2,3.7,9.6,24.7,0.6,45.5c-2.5,5-5.7,9.4-9,13.2c2.5,1.3,6.2,2.4,10.2,0.5
		C63.8,134.6,81.1,115.9,76.5,89.1z"/>
</g>
</svg>
