<?xml version="1.0" encoding="utf-8"?>
<!-- Generator: Adobe Illustrator 18.1.0, SVG Export Plug-In . SVG Version: 6.00 Build 0)  -->
<svg version="1.1" id="Layer_1" xmlns="http://www.w3.org/2000/svg" xmlns:xlink="http://www.w3.org/1999/xlink" x="0px" y="0px"
	 viewBox="0 0 150 150" enable-background="new 0 0 150 150" xml:space="preserve">
<g>
	<path fill="#F392AF" d="M120.9,83.3c-0.3-0.4-0.5-0.8-0.6-1.2c-0.2,0.3-0.8,0.4-1.2,0.5c-1.8,0.8-3.4,1.5-4.9,2.8
		c0.4-0.7,3.7-2.7,5.1-3.4c0.3-0.1,0.6-0.3,0.9-0.4c-0.2-1.4,0-2.9-1.4-3.7c-0.8,0.7-2.3,4.3-5.9,8.3c0.3-0.4,5.7,0.9,6.5,1.8
		c0,0,0,0,0,0C121.6,86.5,122,84.6,120.9,83.3z"/>
	<path fill-rule="evenodd" clip-rule="evenodd" fill="#BFDB88" d="M119.9,90.5c-0.1-0.4-0.6-1.9-0.2-2.2c1.8-1.4,2.8-3.9,1.3-5.3
		c-1.6-1.7,0.3-4.4-2.4-5.5c-2.7-1.7-1.1-4.4,0.6-6.1c1-1.7,3-4.4,1-6c-3.1-1.5-6.3-2.7-8.9-4.9c-7.4-4.8-4.9-15.3-5.5-23.3
		c-0.4,0-0.8,6-0.9,6.3c-0.6,5.4,0.2,11.5,4.1,15.5c2.6,2.8,6.2,4.4,9.6,6c3.4,0.8,1.6,4.5,0.1,6.2c-1.7,1.9-3,4.8-0.3,6.5
		c0.1,0.1,0.2,0.1,0.3,0.2c1.4,0.8,1.1,2.4,1.4,3.7c-0.3,0.1-0.6,0.2-0.9,0.4c-1.3,0.7-4.6,2.8-5.1,3.4c1.5-1.3,3.1-2,4.9-2.8
		c0.3-0.2,1-0.2,1.2-0.5c0.1,0.4,0.3,0.8,0.6,1.2c1.1,1.3,0.7,3.2-1.6,4.7c0,0,0,0,0,0c-0.5,0.4-0.1,2.3,0.4,3
		c4.1,7.9-0.4,9.1-9.7,9.5c-6-0.2-10.9-1.2-18.9-2.1c-2.7,0.4-5.2-3-6.4-5.1c3,6.7,3.5,6.3,7,6.1c3,0,6.2,0.5,9.3,0.9
		c2.9,10.7-13.4,22.7-12.7,33.9c0.6-5.8,3.6-11,7.3-15.3c4-5,8-11.7,8.8-18.2c1.9,0.2,3.8,0.4,5.7,0.4
		C121.8,101.3,123.9,97.7,119.9,90.5z"/>
	<path fill-rule="evenodd" clip-rule="evenodd" fill="#BFDB88" d="M103.5,50.9c0.3-1.7-0.1-2.1,0.2-2.7c-7,4.5-11.1,10-11.7,18.1
		C92.9,59.2,100.2,51.1,103.5,50.9z"/>
	<path fill="#BFDB88" d="M100,67.9c-1.6,0.4-3.4,0.5-5.1,0.7c1.7,0.5,3.5,0.8,5.3,0.6c0.9-0.1,1.8-0.3,2.8-0.6
		c0.9-0.4,1.8-0.9,2.4-1.8c0.7-0.8,1-1.8,1.1-2.8c0.1-1,0-1.9-0.3-2.8c-0.5-1.8-1.4-3.4-2.6-4.7c0.6,1.7,1.1,3.3,1.3,5
		c0.2,1.6,0,3.2-0.9,4.3C103.2,66.9,101.6,67.5,100,67.9z"/>
	<path fill="#F392AF" d="M83.8,33.4c6.5,0,12.1-4,12.1-4s-11.3-16.1-25-4.6c0,0.1,0.1,0.1,0.1,0.2C77.8,26.3,81.6,29.6,83.8,33.4z"
		/>
	<path fill="#BFDB88" d="M36,33.7c1.3-4,3.1-6.7,5.2-8.5c11.7-9.7,19.9-10.1,29.2,0c0-0.1,0.1-0.3,0.1-0.4c0.2,0,0.4,0.1,0.6,0.1
		c0-0.1-0.1-0.1-0.1-0.2C61.7,12.4,50,2.8,31.5,12.1c-21.8,11-7.3,44.6,1.1,59.8c13,23.4,29.6,48.4,46.6,69.1
		C65.4,115.8,28,57.8,36,33.7z"/>
	<path fill="#DEC1C6" d="M71,25c-0.2,0-0.4-0.1-0.6-0.1c-0.1,0.1-0.1,0.3-0.1,0.4c-7.3,19.8,15.1,26,15.1,26s2.8-10.1-1.6-17.9
		C81.6,29.6,77.8,26.3,71,25z"/>
</g>
</svg>
