<?xml version="1.0" encoding="utf-8"?>
<!-- Generator: Adobe Illustrator 18.1.0, SVG Export Plug-In . SVG Version: 6.00 Build 0)  -->
<svg version="1.1" id="Layer_1" xmlns="http://www.w3.org/2000/svg" xmlns:xlink="http://www.w3.org/1999/xlink" x="0px" y="0px"
	 viewBox="0 0 150 150" enable-background="new 0 0 150 150" xml:space="preserve">
<g>
	<path fill-rule="evenodd" clip-rule="evenodd" fill="#006C80" d="M51.6,82.2c0,0,0,0-0.5,0l0,0H51.6L51.6,82.2l8.9,4.2
		c1.6-1.6,2.1-2.1,2.6-2.1c0.5-0.5,1.6-1,2.1-0.5c1,0,1.6,0.5,2.6,0.5l-2.1-3.1C61,82.2,56.3,82.7,51.6,82.2L51.6,82.2z M60.5,93.2
		h8.4l-5.8-3.1C62.1,91.1,61,92.2,60.5,93.2L60.5,93.2z M64.7,88c-0.5,0-0.5,0-0.5,0l1.6,1L64.7,88z M7.9,96.4
		c9.4-1,8.6-1.6,18.6-2.1c10-0.5,20.4-1.1,30.4-1.1L60,88c0,0.5,0,0-1-0.5l-16.2-8.4c-1.6-1-1.6-1.6,0.5-1l1.6,1l3.1,1.6
		c0.5-0.5,2.1-0.5,4.7,0c1.6,0,4.2-0.5,6.8-0.5c2.1-0.5,4.2-1.6,5.8-3.1c0.5-0.5,0.5-0.5,0.5-0.5l0,0c-2.1-0.5-3.1-1-3.7-2.6
		c-0.5-1-0.5-1.6-0.5-2.1c0-1.6,0.5-2.6,1.6-3.1c1.1-0.5,2.6-0.5,3.7,0.5c1,1,1.6,2.1,1.6,3.1c0,1-0.5,2.1-1.1,3.1
		c1.1-0.5,2.1,0,2.6,1c2.1,2.1,3.7,4.7,5.8,7.3c1.6,2.6,2.6,5.7,2.6,8.9l0,0v0.5c12.6-0.5,25.1,0,37.2,0.5
		c12.6,0.5,13.8,1.6,26.4,2.6c1.1,0,1.6,0.5,1.6,1c0,0,0,0.5-1.1,0.5H82.5l13.1,6.8l6.3,0.5l10,6.8l-2.6,5.2l-10.5-5.2l-4.2-5.8
		l-16.2-8.4H7.9c-0.5,0-1.1,0-1.1-1C7.4,96.4,7.4,96.4,7.9,96.4L7.9,96.4z"/>
	<g>
		<path fill="none" d="M60,84.9l-0.1,0.2C59.9,85.2,60,85.2,60,84.9z"/>
		<path fill="none" d="M64.2,84.9l1.6,1l-1-1C64.2,84.9,64.2,84.9,64.2,84.9z"/>
		<path fill="#465A63" d="M35.2,53.7c6.8-9.4,17.2-16.1,28.6-18.4c10.9-2.3,22.6-0.7,32.4,4.6c9.3,5,16.9,13.2,21,22.9
			c4,9.2,4.7,19.7,2.3,29.4c2.3,0.2,4.6,0.3,6.9,0.5c3.6-16.2-1-33.9-12.3-46.1c-9.7-10.7-24-17.1-38.4-16.9
			c-20.2-0.4-39.7,12.5-47.5,31c-4.4,9.9-5.4,21.3-3.2,31.9c1-0.1,1.9-0.1,2.9-0.2C24.4,79.2,27.1,64.6,35.2,53.7z"/>
	</g>
	<g>
		<path fill="#6F8995" d="M38.1,58.5c5.9-8.2,14.9-14,24.8-16.1c9.4-2,19.6-0.7,28.1,3.9c8.1,4.3,14.7,11.4,18.3,19.8
			c3.5,8,4.2,17.1,2.1,25.5c2,0.1,4,0.3,6,0.4c3.1-14.1-0.9-29.5-10.8-40c-8.4-9.3-20.9-14.8-33.4-14.6c-17.5-0.3-34.4,11-41.2,27.1
			c-3.8,8.6-4.7,18.5-2.7,27.7c0.8-0.1,1.7-0.1,2.5-0.1C28.8,80.6,31.1,68,38.1,58.5z"/>
	</g>
</g>
</svg>
