<?xml version="1.0" encoding="utf-8"?>
<!-- Generator: Adobe Illustrator 18.1.0, SVG Export Plug-In . SVG Version: 6.00 Build 0)  -->
<svg version="1.1" id="Layer_1" xmlns="http://www.w3.org/2000/svg" xmlns:xlink="http://www.w3.org/1999/xlink" x="0px" y="0px"
	 viewBox="0 0 150 150" enable-background="new 0 0 150 150" xml:space="preserve">
<g>
	<path fill="none" d="M30.5,77.1l0.1,0.2l16.5,28.6c4.3-5.7,10.3-14.1,11.5-16.5c1.9-4,6.1-25.4,1.8-26.6c-4.4-1.2-6.4,1.7-6.4,1.7
		L43,58c0,0,6.6-3.6,10.5-2.9c3.9,0.6,9.5,5,9.5,5s-0.7-6.3-4.2-9c-0.3-0.3-7.4-4.3-10-5.9L30.5,77C30.4,77,30.4,77.1,30.5,77.1z"/>
	<path fill="none" d="M52.7,116h0.2h20.6l0-11.9c0,0-11-12.2-12.7-11.9c0,0-7.5,10.4-12.1,16.6l3.9,7C52.6,115.8,52.7,116,52.7,116z
		"/>
	<path fill="none" d="M52.7,39c0,0-0.1-0.2-0.1-0.1l-3.5,6L60,47.7c0,0,3.9,3.8,4.7,6.9c0.8,3.1,1.1,10.6-0.2,18.7
		c-1.3,8.1-2.3,14-1.8,14.4c0.3,0.2,23.6,0.2,23.9,0c0.5-0.3-0.5-6.3-1.8-14.4c-1.3-8.1-1-15.7-0.2-18.7c0.8-3.1,4.7-6.9,4.7-6.9
		l11.3-3l-3.5-5.8c0,0-0.1,0.1-0.1,0.1h-0.2H52.9H52.7z"/>
	<path fill="none" d="M75.8,104.1l0,11.9h21H97c0,0,0.1-0.3,0.1-0.3l3.9-6.8c-4-5.2-12.5-16.6-12.5-16.6
		C86.7,91.9,75.8,104.1,75.8,104.1z"/>
	<path fill="none" d="M86.3,60.1c0,0,5.7-4.4,9.5-5c3.9-0.6,10.5,2.9,10.5,2.9l-10.9,6.5c0,0-2-3-6.4-1.7
		c-4.4,1.2-0.2,22.5,1.8,26.6c1.4,2.9,8,12.3,11.5,17.2l16.9-29.2l0.1-0.2c0,0,0-0.1,0-0.1l-18.5-32c-2.3,1.5-10,5.9-10.3,6.1
		C87,53.8,86.3,60.1,86.3,60.1z"/>
	<path fill="#69294D" d="M52.9,39h43.9c-1.9-4-7.3-13-15.4-19H68.3C60.2,26,54.9,35,52.9,39z"/>
	<path fill="#F47E20" d="M30.5,77.1c0,0,0-0.1,0-0.1l18.4-31.9l0.2-0.4l3.5-5.9c0,0,0.1,0.1,0.1,0.1h0.2c1.9-4,7.3-13,15.3-19h-16
		c-6,0-12.3,3.8-15.2,9L14.5,68.2c-3,5.2-3,12.5,0,17.7l7.7,13.3c1.5-10.4,6.8-19.4,8.4-21.9L30.5,77.1z"/>
	<path fill="#A8315D" d="M52.9,116h-0.2c0,0-0.1-0.3-0.1-0.3l-3.9-6.9l-1.6-2.9L30.5,77.3c-1.5,2.5-6.8,11.5-8.4,21.9l14.9,25.9
		c3,5.2,9.3,8.9,15.2,8.9h16C60.2,128,54.9,119,52.9,116z"/>
	<path fill="#EE4B61" d="M102.3,106.5l-1.3,2.3l-3.9,6.9c0,0-0.1,0.3-0.1,0.3h-0.2c-2,3-7.3,12-15.4,18h16c6,0,12.3-3.7,15.2-8.9
		l14.9-25.8c-1.5-10.4-6.8-19.4-8.4-21.9L102.3,106.5z"/>
	<path fill="#ED2F24" d="M135.2,68.3L112.7,29c-3-5.2-9.3-9-15.2-9h-16c8,6,13.4,15,15.4,19H97c0,0,0.1-0.2,0.1-0.1l3.5,5.9l0.2,0.2
		l18.5,32c0,0,0,0.1,0,0.1l-0.1,0.1c1.5,2.5,6.8,11.5,8.4,21.9l7.7-13.3C138.2,80.7,138.2,73.4,135.2,68.3z"/>
	<path fill="#69294D" d="M96.8,116h-21l0-11.9c0,0,11-12.2,12.7-11.9c0,0,8.5,11.4,12.5,16.6l1.3-2.3c-3.5-4.9-10.1-14.3-11.5-17.2
		c-1.9-4-6.1-25.4-1.8-26.6c4.4-1.2,6.4,1.7,6.4,1.7l10.9-6.5c0,0-6.6-3.6-10.5-2.9c-3.9,0.6-9.5,5-9.5,5s0.7-6.3,4.2-9
		c0.3-0.3,8-4.6,10.3-6.1l-0.2-0.3l-11.3,3c0,0-3.9,3.9-4.7,6.9c-0.8,3.1-1.1,10.7,0.2,18.7c1.3,8.1,2.3,14.1,1.8,14.4
		c-0.3,0.2-23.6,0.2-23.9,0c-0.5-0.3,0.5-6.3,1.8-14.4c1.3-8.1,1-15.7,0.2-18.7c-0.8-3.1-4.7-6.9-4.7-6.9l-10.9-2.9l-0.2,0.4
		c2.6,1.7,9.7,5.7,10,5.9c3.5,2.7,4.2,9,4.2,9s-5.7-4.4-9.5-5C49.6,54.5,43,58,43,58l10.9,6.5c0,0,2-3,6.4-1.7
		c4.4,1.2,0.2,22.5-1.8,26.6c-1.2,2.5-7.2,10.8-11.5,16.5l1.6,2.8c4.6-6.2,12.1-16.6,12.1-16.6c1.8-0.3,12.7,12,12.7,12l0,11.9H52.9
		c1.9,3,7.3,12,15.3,18h13.2C89.5,128,94.8,119,96.8,116z"/>
</g>
</svg>
