<?xml version="1.0" encoding="iso-8859-1"?>
<!-- Generator: Adobe Illustrator 13.0.0, SVG Export Plug-In . SVG Version: 6.00 Build 14948)  -->
<!DOCTYPE svg PUBLIC "-//W3C//DTD SVG 1.1//EN" "http://www.w3.org/Graphics/SVG/1.1/DTD/svg11.dtd">
<svg version="1.1" id="Layer_1" xmlns="http://www.w3.org/2000/svg" xmlns:xlink="http://www.w3.org/1999/xlink" x="0px" y="0px"
	 width="100px" height="100px" viewBox="0 0 100 100" enable-background="new 0 0 100 100" xml:space="preserve">
<g>
	<path fill="#D04D38" d="M50.402,10.5L12.08,22.111l0.877,3.579c6.389,26.065,17.757,50.072,36.174,69.79l1.27,1.353l1.168-1.245
		C70.046,75.854,81.444,51.803,87.845,25.69l0.876-3.579L50.402,10.5z M86.61,25.388C80.23,51.417,68.876,75.347,50.402,94.98
		C31.925,75.347,20.57,51.417,14.19,25.388l-0.588-2.411l36.8-11.149l36.802,11.149L86.61,25.388z"/>
	<g>
		<path fill="#D04D38" d="M66.464,52.547c0,12.133-6.122,17.903-16.386,17.903c-9.913,0-15.744-5.482-15.744-18.021V39.362H20.938
			c6.95,20.899,17.114,38.716,29.464,51.801c12.349-13.085,22.513-30.902,29.462-51.801h-13.4V52.547z"/>
		<path fill="#929292" d="M43.228,30.502h0.028v22.628c0,6.764,2.564,10.206,7.114,10.206c4.664,0,7.231-3.266,7.231-10.206V30.502
			h0.131v-0.111h24.86c0.513-1.855,1.007-3.729,1.475-5.627L50.402,14.562L16.734,24.765c0.466,1.897,0.962,3.771,1.477,5.627
			h25.017V30.502z"/>
	</g>
</g>
</svg>
