<?xml version="1.0" encoding="utf-8"?>
<!-- Generator: Adobe Illustrator 18.1.0, SVG Export Plug-In . SVG Version: 6.00 Build 0)  -->
<svg version="1.0" id="Layer_1" xmlns="http://www.w3.org/2000/svg" xmlns:xlink="http://www.w3.org/1999/xlink" x="0px" y="0px"
	 viewBox="0 0 150 150" enable-background="new 0 0 150 150" xml:space="preserve">
<g>
	<path fill="#7FC142" d="M109.3,32.9c-4.3,4.3-8.1,9.1-10.9,14.5c-6.9,14.7-5.2,32.5,2.8,46.3c-2.2-12.7,0.9-25.5,5.2-37.5
		c3-8.4,5.9-13.7,8.8-17.6c0.4-0.5,1.3-1.4,1.7-1.9c-1.4,2.9-2.9,5.7-4.2,8.6c-1.3,3-3.1,8.1-4.5,12.2c-2.8,8.5-4.5,17.3-4.8,26.3
		c4.7-5.5,10.7-9.5,15.6-14.8c2.7-2.8,5.1-5.8,7.4-8.9c10-14.7,9-34.3,1.9-50c-0.5,3.1-1.6,6.2-3.9,8.5
		C119.7,23.7,114.2,28,109.3,32.9z"/>
	<path fill="#7FC142" d="M49,32.9c4.3,4.3,8.1,9.1,10.9,14.5c6.9,14.7,5.2,32.5-2.8,46.3c2.2-12.7-0.9-25.5-5.2-37.5
		c-3-8.4-5.9-13.7-8.8-17.6c-0.4-0.5-1.3-1.4-1.7-1.9c1.4,2.9,2.9,5.7,4.2,8.6c1.3,3,3.1,8.1,4.5,12.2c2.8,8.5,4.5,17.3,4.8,26.3
		C50,78.3,44,74.3,39.1,69c-2.7-2.8-5.1-5.8-7.4-8.9c-10-14.7-9-34.3-1.9-50c0.5,3.1,1.6,6.2,3.9,8.5C38.6,23.7,44.1,28,49,32.9z"/>
	<path fill="#7FC142" d="M76.6,64.9c0.8-8.5,1.2-17,1.8-25.5c0.2-4.6,0.4-9.2,0.6-13.8h0.2c0.2,4.6,0.6,9.2,1.1,13.7
		c0.6,8.5,1.1,16.9,1.8,25.3c7.4-6.2,13.6-14.8,13.8-24.6c0.1-3.9-0.2-10.6-2-15.5C91,16.8,85.3,10.3,79.5,4.2
		c-6,5.9-11.6,12.5-14.6,20.4c-1.8,4.7-2.5,9.9-2.3,14.9C63.1,49.6,69.3,58.3,76.6,64.9z"/>
	<g>
		<path fill="#58595B" d="M16.4,92.6c14-0.8,17.4,2.1,22.8-1.8c2.9-2-4.5-13.9-7.1-18.6c-4.2-7.8,2.3-0.4,4.3,2.6
			c6,9,13.2,20.8,13.8,31.9c0.5,8.4-4,16.1-7.4,23.5c-2.1,4.7-4.5,8.7-7.7,12.8c1.2-7.4,4.6-17.2,7.1-24.3
			c2.4-6.7,2.4-15.5-3.5-20.1C32.7,93.9,22.2,95.8,16.4,92.6L16.4,92.6z"/>
		<path fill="#58595B" d="M32.1,84c-1.3,0.9-1.4,3.1-0.1,4.9c1.2,1.8,3.3,2.6,4.7,1.7c1.3-0.9,1.4-3.1,0.1-4.9
			C35.5,83.8,33.4,83.1,32.1,84L32.1,84z"/>
		<polygon fill="#58595B" points="51.2,112.5 56.3,143.2 48,122.8 51.2,112.5 		"/>
	</g>
	<g>
		<path fill="#58595B" d="M141.4,92.6c-14-0.8-17.4,2.1-22.8-1.8c-2.9-2,4.5-13.9,7.1-18.6c4.1-7.8-2.3-0.4-4.3,2.6
			c-6,9-13.1,20.8-13.8,31.9c-0.5,8.4,4,16.1,7.4,23.5c2.1,4.7,4.5,8.7,7.7,12.8c-1.2-7.4-4.6-17.2-7.1-24.3
			c-2.4-6.7-2.4-15.5,3.5-20.1C125.1,93.9,135.6,95.8,141.4,92.6L141.4,92.6z"/>
		<path fill="#58595B" d="M125.7,84c1.3,0.9,1.4,3.1,0.1,4.9c-1.3,1.8-3.3,2.6-4.7,1.7c-1.3-0.9-1.4-3.1-0.1-4.9
			C122.3,83.8,124.4,83.1,125.7,84L125.7,84z"/>
		<polygon fill="#58595B" points="106.6,112.5 101.5,143.2 109.8,122.8 106.6,112.5 		"/>
	</g>
	<g>
		<path fill="#333333" d="M94.3,123.2l0-28.6c0-1.4-1.1-2.5-2.5-2.5c-1.4,0-2.5,1.1-2.5,2.5v26.7c1,0.3,2,0.5,3,0.9
			C93,122.6,93.6,122.9,94.3,123.2z"/>
		<path fill="#333333" d="M69.1,121.3V94.7c0-1.4-1.1-2.5-2.5-2.5c-1.4,0-2.5,1.1-2.5,2.5l0,28.4c0.6-0.3,1.2-0.5,1.8-0.8
			C67.1,121.9,68.1,121.6,69.1,121.3z"/>
		<path fill="#7FC142" d="M84.2,120.7v-26c0-2.8-2.2-5-5-5c-2.8,0-5,2.3-5,5v26c2.5,0.1,4.1,1,4.9,1.9
			C80,121.7,81.6,120.8,84.2,120.7z"/>
		<path fill="#333333" d="M71.2,88.7c0.3-0.4,0.6-0.8,0.9-1.1c1.9-1.9,4.4-2.9,7.1-2.9c2.7,0,5.2,1.1,7.1,2.9c0.4,0.4,0.7,0.8,1,1.2
			c1.3-1,2.8-1.6,4.5-1.6c0.1,0,0.3,0,0.4,0.1L82,70.2l-5.6-0.1L66.2,87.2c0.2,0,0.3-0.1,0.5-0.1C68.3,87.1,69.9,87.7,71.2,88.7z"/>
		<polygon fill="#333333" points="79.1,65.6 76.4,70.1 82,70.2 		"/>
		
			<line fill="none" stroke="#333333" stroke-width="0" stroke-linecap="round" stroke-linejoin="round" x1="76.4" y1="70.1" x2="82" y2="70.2"/>
		<path fill="#FFFFFF" d="M73.7,142.4c-4.4,0-9.9,2.4-11.9,3.3v-0.3v-18.8c1.7-0.9,3.3-1.6,4.7-2.1c2.7-1,5-1.5,6.9-1.5
			c2.4,0,3.6,0.8,4.3,1.5c0.4,0.4,0.6,0.9,0.7,1.1c0,0.1,0,0.1,0,0.1c0,0,0,0.1,0,0.1v18.1v0.3C77.7,143.2,76.2,142.4,73.7,142.4z
			 M96.3,145.4v0.3c-2-0.9-7.5-3.3-11.9-3.3c-2.5,0-3.9,0.8-4.8,1.8c0,0-0.1,0.1-0.1,0.1V144v-18.1c0,0,0-0.1,0.1-0.2
			c0.1-0.3,0.3-0.7,0.7-1.1c0.7-0.8,2-1.5,4.3-1.5c1.9,0,4.2,0.5,6.9,1.5c1.5,0.6,3,1.3,4.7,2.1V145.4z"/>
		<path fill="#7FC142" d="M78.6,144.2v-0.3v-18.1c0,0,0-0.1,0-0.1c0,0,0,0,0-0.1c-0.1-0.2-0.3-0.7-0.7-1.1c-0.7-0.8-2-1.5-4.3-1.5
			c-1.9,0-4.2,0.5-6.9,1.5c-1.5,0.6-3,1.3-4.7,2.1v18.8v0.3c2-0.9,7.5-3.3,11.9-3.3C76.2,142.4,77.7,143.2,78.6,144.2z"/>
		<path fill="#7FC142" d="M91.6,124.5c-2.7-1-5-1.5-6.9-1.5c-2.3,0-3.6,0.8-4.3,1.5c-0.4,0.4-0.6,0.9-0.7,1.1c0,0.1-0.1,0.2-0.1,0.2
			V144v0.3c0,0,0.1-0.1,0.1-0.1c0.9-1,2.3-1.8,4.8-1.8c4.4,0,9.9,2.4,11.9,3.3v-0.3v-18.8C94.6,125.8,93.1,125.1,91.6,124.5z"/>
	</g>
</g>
</svg>
