<?xml version="1.0" encoding="utf-8"?>
<!-- Generator: Adobe Illustrator 18.1.0, SVG Export Plug-In . SVG Version: 6.00 Build 0)  -->
<svg version="1.1" id="Layer_1" xmlns="http://www.w3.org/2000/svg" xmlns:xlink="http://www.w3.org/1999/xlink" x="0px" y="0px"
	 viewBox="0 0 150 150" enable-background="new 0 0 150 150" xml:space="preserve">
<g>
	<path fill="none" d="M79.2,92.7l-10.4-0.5c-0.2,0-0.3-0.1-0.5-0.2l-7.2-0.4c-0.1,0.2-0.3,0.3-0.6,0.2l-10.4-0.5
		c-0.3,0-0.5-0.2-0.7-0.4l-14-0.8c-4.1,0-7.5-3.3-7.5-7.4V43.1l-5.2,0.4c-2.3,0-3.8,1.8-3.8,4v47.3c0,2.3,1.7,4,4,4l56.4,3.5
		l12.9,13.6l-0.1-12.8l18.5,1.1c2.2,0,3.9-1.8,3.9-4.2l0.3-5.3l-35.5-2.2C79.4,92.7,79.3,92.7,79.2,92.7z"/>
	<path fill="#00667D" d="M114.3,36.5L28,43.1v39.5c0,4.1,3.4,7.4,7.5,7.4l13.9,0.8c-0.1-0.1-0.1-0.3-0.1-0.4l0-16.2l8.6-9.2l1,0
		l2.4,1.1L61.3,91c0,0.2-0.1,0.4-0.2,0.5l7.2,0.4c-0.2-0.2-0.3-0.4-0.3-0.6l-0.1-17.4c0-0.5,0.3-0.8,0.8-0.8l10.4,0.5
		c0.4,0,0.8,0.4,0.8,0.9l0.1,17.4c0,0.4-0.2,0.6-0.5,0.7l35.5,2.2l3.3-54.4C118.3,38.4,116.4,36.5,114.3,36.5z M76.5,69.2
		c-0.4,0.5-1.1,0.6-1.7,0.4L57.7,62l-9.8,10.5c-0.3,0.3-0.7,0.5-1.1,0.5c-0.4,0-0.8-0.2-1.1-0.5c-0.6-0.7-0.6-1.7-0.1-2.3l10.5-11.2
		c0.4-0.5,1.1-0.6,1.6-0.3l17.2,7.6l15-16.8l-3.7-3.5C86,45.7,86,45.5,86,45.3c0-0.1,0-0.2,0-0.2c0.1-0.2,0.3-0.4,0.5-0.4l9-0.4
		c0.3,0,0.6,0.3,0.6,0.6l0.8,9.6c0,0.3-0.1,0.5-0.3,0.6c-0.2,0.1-0.5,0.1-0.6-0.1l-3.7-3.5L76.5,69.2z M96.8,93.5L86.4,93
		c-0.4,0-0.8-0.4-0.8-0.9l-0.1-29.6l6.8-7.7l1.9,1.8c0.5,0.5,1.1,0.8,1.8,0.8c0.4,0,0.9-0.1,1.3-0.3c0,0,0.1-0.1,0.1-0.1l0.1,35.7
		C97.5,93.2,97.2,93.6,96.8,93.5z"/>
	<path fill="#00667D" d="M128.5,20.2l-93,7.1c-4.1,0-7.5,3.3-7.5,7.4v1.9l86.2-6.7c0,0,0,0,0,0c2.9,0,5.5,1.1,7.5,3.1
		c2,2,3.1,4.7,3.1,7.5l-3.4,54.6l3.3,0.2c4.1,0,7.3-3.3,7.3-7.3l3.8-60.5C135.8,23.5,132.5,20.2,128.5,20.2z"/>
	<path fill="#C9DA2A" d="M121.7,33.1c-2-2-4.6-3.1-7.5-3.1c0,0,0,0,0,0l-85.9,6.6l-5.9,0.5c-5.7,0-10.4,4.7-10.4,10.5v47.3
		c0,5.8,4.9,10.2,10.7,10.2h0l53.7,3.5l22.4,23.7l-0.2-22.2l11.8,0.7c5.9,0,10.6-4.7,10.6-10.4l0.3-5.1l3.4-54.6
		C124.8,37.8,123.7,35.1,121.7,33.1z M114.6,100.1c0,2.3-1.8,4.2-4,4.2l-18.6-1.1l0.1,12.8l-12.9-13.6L23,98.9c-2.3,0-4-1.8-4-4
		V47.6c0-2.2,1.7-4,4-4l5.4-0.4l86.1-6.6c2.1,0,3.8,1.9,3.8,4L115,94.8L114.6,100.1z"/>
	<path fill="#C9DA2A" d="M50.2,91.2l10.4,0.5c0.2,0,0.4-0.1,0.6-0.2c0.1-0.1,0.2-0.3,0.2-0.5l-0.1-24.8l-2.4-1.1l-1,0l-8.6,9.2
		l0,16.2c0,0.2,0,0.3,0.1,0.4C49.6,91.1,49.9,91.2,50.2,91.2z"/>
	<path fill="#C9DA2A" d="M79.2,92.7c0.1,0,0.2,0,0.3,0c0.3-0.1,0.5-0.4,0.5-0.7l-0.1-17.4c0-0.5-0.3-0.8-0.8-0.9l-10.4-0.5
		c-0.4,0-0.8,0.3-0.8,0.8L68,91.3c0,0.3,0.1,0.5,0.3,0.6c0.1,0.1,0.3,0.2,0.5,0.2L79.2,92.7z"/>
	<path fill="#C9DA2A" d="M97.3,57.2c-0.4,0.2-0.8,0.3-1.3,0.3c-0.7,0-1.3-0.3-1.8-0.8l-1.9-1.8l-6.8,7.7l0.1,29.6
		c0,0.5,0.3,0.8,0.8,0.9l10.4,0.5c0.4,0,0.8-0.3,0.8-0.8l-0.1-35.7C97.4,57.1,97.3,57.1,97.3,57.2z"/>
	<path fill="#C9DA2A" d="M96,55c0.2,0.2,0.4,0.2,0.6,0.1c0.2-0.1,0.3-0.3,0.3-0.6l-0.8-9.6c0-0.3-0.3-0.6-0.6-0.6l-9,0.4
		c-0.2,0-0.4,0.2-0.5,0.4c0,0.1,0,0.2,0,0.2c0,0.2,0.1,0.3,0.2,0.4l3.7,3.5l-15,16.8l-17.2-7.6c-0.6-0.3-1.2-0.1-1.6,0.3L45.7,70
		c-0.6,0.6-0.6,1.7,0.1,2.3c0.3,0.3,0.7,0.5,1.1,0.5c0.4,0,0.8-0.1,1.1-0.5L57.7,62l17.2,7.6c0.6,0.3,1.2,0.1,1.7-0.4l15.7-17.7
		L96,55z"/>
</g>
</svg>
