<?xml version="1.0" encoding="utf-8"?>
<!-- Generator: Adobe Illustrator 18.1.0, SVG Export Plug-In . SVG Version: 6.00 Build 0)  -->
<svg version="1.1" id="Layer_1" xmlns="http://www.w3.org/2000/svg" xmlns:xlink="http://www.w3.org/1999/xlink" x="0px" y="0px"
	 viewBox="0 0 2000 2000" enable-background="new 0 0 2000 2000" xml:space="preserve">
<g>
	<path fill="#5C191B" d="M1714.9,1063c48-6.8,95.9-14,143.7-22.2l-150.1-71.7c-3.7,12.5-6,25-6,37.8
		C1702.6,1025.9,1707.5,1044.6,1714.9,1063z"/>
	<path fill="#5C191B" d="M317.1,1006.9c0-13.5-2.5-26.9-6.6-40.1l-147.2,75.2c47,8,94.1,15.1,141.2,21.7
		C312,1045,317.1,1026.1,317.1,1006.9z"/>
	<path fill="#E7727F" d="M1528.5,1345.9c-110.7,169-301.6,280.8-518.7,280.8c-216.9,0-407.7-111.5-518.4-280.3
		c-62.2-6.1-124.3-13.2-186.2-21.5c49.4,27.3,112.3,45.3,144.2,89.2c51.3,70.6,14.2,196.3,84.7,247.6
		c70.6,51.3,178.7-22.9,261.7,4.1c83,26.9,126.8,150.5,214.1,150.5c87.2,0,131.1-123.6,214-150.5c83-26.9,191.1,47.2,261.6-4.1
		c70.6-51.3,33.5-177,84.8-247.6c32.2-44.3,95.9-62.2,145.5-90C1653.5,1332.5,1591,1339.7,1528.5,1345.9z"/>
	<path fill="#E7727F" d="M304.5,1063.6c29.8,4.2,59.7,8.2,89.5,11.9c-2.5-22.5-3.9-45.4-3.9-68.6c0-342.2,277.4-619.7,619.7-619.7
		c342.2,0,619.7,277.4,619.7,619.7c0,10.6-0.3,21.1-0.8,31.5c0.6-0.7,1.2-1.4,1.9-2c-0.5,12.9-1.6,25.6-2.9,38.3
		c29.1-3.6,58.2-7.6,87.3-11.7c-7.5-18.4-12.4-37.1-12.4-56.1c0-12.7,2.3-25.3,6-37.8c21.6-72.8,94-141.5,71-212.3
		c-26.9-83-158-86.5-209.2-157.1c-51.3-70.6-14.2-196.3-84.8-247.6c-70.5-51.3-178.7,22.9-261.6-4.1c-83-27-126.9-150.5-214-150.5
		c-87.2,0-131.1,123.5-214.1,150.5c-83,26.9-191.1-47.2-261.7,4.1c-70.6,51.3-33.4,177-84.7,247.6
		c-51.3,70.6-182.3,74.1-209.3,157.1c-22.8,70.1,47.8,138,70.3,209.9c4.1,13.2,6.6,26.6,6.6,40.1
		C317.1,1026.1,312,1045,304.5,1063.6z"/>
	<path fill="#5C191B" d="M1502.7,1349.5c0,16.7-13.7,30.4-30.4,30.4c-15.3,0-27.9-11.4-30-26.1c-40.2,3.3-80.3,6.1-120.5,8.5
		c-4.8,10.4-15.3,17.6-27.5,17.6c-11,0-20.6-6-26-14.8c-43.2,2.1-86.5,3.8-129.8,4.9c-5.6,6-13.4,9.9-22.3,9.9
		c-8.5,0-16.1-3.5-21.6-9.1c-45.1,0.7-90.2,0.8-135.2,0.4c-5.5,5.3-12.9,8.7-21.2,8.7c-8.5,0-16.1-3.5-21.6-9.1
		c-43.9-0.8-87.8-1.9-131.7-3.8c-5.5,7.7-14.5,12.8-24.7,12.8c-11.3,0-21.1-6.3-26.3-15.5c-40.8-2.1-81.5-4.7-122.2-7.7
		c-3.2,13.3-15.2,23.2-29.5,23.2c-15.9,0-28.8-12.3-30.1-27.8c-20.2-1.7-40.4-3.8-60.6-5.7c110.7,168.8,301.5,280.3,518.4,280.3
		c217.1,0,408-111.7,518.7-280.8c-8.6,0.9-17.3,1.7-25.9,2.5C1502.6,1348.7,1502.7,1349.1,1502.7,1349.5z M695.2,1505.3
		c-14-9.6-27.6-19.8-40.8-30.5c3.3-1.2,6.9-2,10.6-2c16.8,0,30.4,13.7,30.4,30.4C695.4,1503.9,695.2,1504.6,695.2,1505.3z
		 M843,1533.6c-16.8,0-30.4-13.6-30.4-30.4c0-16.7,13.6-30.4,30.4-30.4c16.8,0,30.4,13.7,30.4,30.4
		C873.4,1520,859.8,1533.6,843,1533.6z M1021,1533.6c-16.8,0-30.4-13.6-30.4-30.4c0-16.7,13.6-30.4,30.4-30.4
		c16.8,0,30.4,13.7,30.4,30.4C1051.5,1520,1037.8,1533.6,1021,1533.6z M1199.1,1533.6c-16.8,0-30.4-13.6-30.4-30.4
		c0-16.7,13.6-30.4,30.4-30.4c16.8,0,30.4,13.7,30.4,30.4C1229.5,1520,1215.9,1533.6,1199.1,1533.6z M1350.5,1517.7
		c-2.4-4.3-3.8-9.2-3.8-14.5c0-16.7,13.6-30.4,30.4-30.4c9.1,0,17.1,4.1,22.7,10.3C1384,1495.5,1367.5,1507,1350.5,1517.7z"/>
	<path fill="#5C191B" d="M991.4,639.3c-15.6,33.4-31.2,66.8-46.8,100.2c8.4,1.8,15.5,7.2,19.8,14.4l43.7-93.7
		C999.7,656.2,993.4,648.6,991.4,639.3z"/>
	<path fill="#5C191B" d="M1009.8,387.2c-342.3,0-619.7,277.4-619.7,619.7c0,23.2,1.4,46.1,3.9,68.6c408.6,50.1,822,50,1230.5-0.4
		c-2.8-4.6-4.6-9.9-4.6-15.7c0-8.2,3.5-15.5,8.8-21c0.5-10.4,0.8-20.9,0.8-31.5C1629.5,664.7,1352.1,387.2,1009.8,387.2z
		 M1294.3,799.7c-16.8,0-30.4-13.7-30.4-30.4c0-16.7,13.6-30.4,30.4-30.4c16.8,0,30.4,13.7,30.4,30.4
		C1324.7,786,1311.1,799.7,1294.3,799.7z M1270,461.1c18.3,7.9,36.1,16.8,53.4,26.4c-3.7,12.7-15.2,22-29.1,22
		c-16.8,0-30.4-13.6-30.4-30.4C1263.9,472.4,1266.2,466.2,1270,461.1z M786.9,464.7c2.3,4.3,3.8,9.2,3.8,14.4
		c0,16.7-13.7,30.4-30.4,30.4c-12,0-22.3-7-27.3-17.2C750.4,482.3,768.4,473.1,786.9,464.7z M665,602.5c16.8,0,30.4,13.6,30.4,30.4
		c0,16.8-13.6,30.4-30.4,30.4c-16.7,0-30.4-13.6-30.4-30.4C634.6,616.1,648.3,602.5,665,602.5z M582.2,738.9
		c16.8,0,30.4,13.7,30.4,30.4c0,16.7-13.6,30.4-30.4,30.4c-16.7,0-30.4-13.7-30.4-30.4C551.8,752.5,565.5,738.9,582.2,738.9z
		 M487,953.4c-16.8,0-30.4-13.6-30.4-30.4c0-16.8,13.6-30.4,30.4-30.4c16.8,0,30.4,13.6,30.4,30.4
		C517.4,939.7,503.8,953.4,487,953.4z M582.2,1089.8c-16.7,0-30.4-13.7-30.4-30.4c0-16.8,13.7-30.4,30.4-30.4
		c16.8,0,30.4,13.6,30.4,30.4C612.6,1076.1,599,1089.8,582.2,1089.8z M665,953.4c-16.7,0-30.4-13.6-30.4-30.4
		c0-16.8,13.7-30.4,30.4-30.4c16.8,0,30.4,13.6,30.4,30.4C695.4,939.7,681.8,953.4,665,953.4z M760.3,1089.8
		c-16.8,0-30.4-13.7-30.4-30.4c0-16.8,13.7-30.4,30.4-30.4c16.8,0,30.4,13.6,30.4,30.4C790.7,1076.1,777,1089.8,760.3,1089.8z
		 M1116.3,1089.8c-10.9,0-20.4-5.8-25.8-14.5c0.8,7.9-3.3,15.8-10.9,19.3l-8.7,4c-9.6,4.5-21,0.3-25.4-9.2l-15.3-32.8
		c9.7-13.9,12.7-29.3,16.1-46.6c0.9-4.4,4.6-8.6,9.2-12.3l30.8,65.9c-0.2-1.4-0.4-2.8-0.4-4.2c0-16.8,13.6-30.4,30.4-30.4
		c16.8,0,30.4,13.6,30.4,30.4C1146.7,1076.1,1133.1,1089.8,1116.3,1089.8z M1074.4,978.5l-41.2-19.2l-60.7,130.1
		c-4.5,9.6-15.9,13.7-25.4,9.2l-8.7-4c-2.8-1.3-5.1-3.3-6.9-5.6c-13.5-3.1-23.7-15.2-23.7-29.6c0-16.8,13.6-30.4,30.4-30.4
		c3.1,0,6.1,0.6,9,1.5l42.6-91.5l-41.2-19.2c-27.8-13-40-46.4-27-74.2l21.6-46.4c-1.6,0.3-3.3,0.5-5,0.5c-7,0-13.5-2.5-18.6-6.6
		c-6.3,13.4-12.5,26.9-18.8,40.3c-0.5,1-0.9,2-1.2,3.1c-0.5,0.8-0.9,1.7-1.2,2.7c-21.3,54.4,13.8,88.4,58.8,113
		c-3.9,8.5-7.9,17-11.8,25.4l-1.8,0.8c-27.8,13-61.2,0.8-74.2-27l-3.8-8.2c-5.6,6.2-13.6,10.2-22.5,10.2
		c-16.8,0-30.4-13.6-30.4-30.4c0-16.4,13.1-29.7,29.4-30.3L789,778.9c-4.1,12-15.3,20.8-28.7,20.8c-16.8,0-30.4-13.7-30.4-30.4
		c0-16.7,13.7-30.4,30.4-30.4c3.9,0,7.6,0.8,11,2.2l-52.9-113.4c-13-27.8-0.8-61.2,27-74.2l125.8-58.7c12.9-6,27-6.4,39.7-2.6
		c-1.9-3.9-3-8.3-3-13c0-16.8,13.6-30.4,30.4-30.4c16.8,0,30.4,13.6,30.4,30.4c0,16.7-13.6,30.4-30.4,30.4c-0.3,0-0.7-0.1-1-0.1
		c3.1,3.7,6,7.7,8.1,12.3l47.1,101c4.2-11.8,15.3-20.3,28.5-20.3c4.5,0,8.8,1.1,12.6,2.8l39-83.6c4.6-9.9,11.9-17.6,20.4-23.2
		c-4.4-5.3-7.2-12-7.2-19.4c0-16.8,13.6-30.4,30.4-30.4c16.8,0,30.4,13.6,30.4,30.4c0,5.2-1.4,9.9-3.7,14.2c1.3,0.5,2.6,0.8,3.9,1.3
		l125.8,58.7c27.8,13,40,46.3,27,74.2l-151,323.9C1135.7,979.3,1102.3,991.4,1074.4,978.5z M1199.1,953.4
		c-16.8,0-30.4-13.6-30.4-30.4c0-16.8,13.6-30.4,30.4-30.4c16.8,0,30.4,13.6,30.4,30.4C1229.5,939.7,1215.9,953.4,1199.1,953.4z
		 M1294.3,1089.8c-16.8,0-30.4-13.7-30.4-30.4c0-16.8,13.6-30.4,30.4-30.4c16.8,0,30.4,13.6,30.4,30.4
		C1324.7,1076.1,1311.1,1089.8,1294.3,1089.8z M1377,953.4c-16.7,0-30.4-13.6-30.4-30.4c0-16.8,13.6-30.4,30.4-30.4
		c16.8,0,30.5,13.6,30.5,30.4C1407.5,939.7,1393.9,953.4,1377,953.4z M1377,663.3c-16.7,0-30.4-13.6-30.4-30.4
		c0-16.8,13.6-30.4,30.4-30.4c16.8,0,30.5,13.6,30.5,30.4C1407.5,649.6,1393.9,663.3,1377,663.3z M1472.3,1089.8
		c-16.8,0-30.4-13.7-30.4-30.4c0-16.8,13.6-30.4,30.4-30.4c16.7,0,30.4,13.6,30.4,30.4C1502.7,1076.1,1489.1,1089.8,1472.3,1089.8z
		 M1472.3,799.7c-16.8,0-30.4-13.7-30.4-30.4c0-16.7,13.6-30.4,30.4-30.4c16.7,0,30.4,13.7,30.4,30.4
		C1502.7,786,1489.1,799.7,1472.3,799.7z M1555.1,953.4c-16.8,0-30.4-13.6-30.4-30.4c0-16.8,13.6-30.4,30.4-30.4
		c16.8,0,30.4,13.6,30.4,30.4C1585.5,939.7,1571.9,953.4,1555.1,953.4z"/>
	<path fill="#FDCB8F" d="M760.3,509.5c16.8,0,30.4-13.6,30.4-30.4c0-5.3-1.5-10.1-3.8-14.4c-18.5,8.3-36.4,17.6-53.9,27.7
		C738,502.5,748.2,509.5,760.3,509.5z"/>
	<path fill="#FDCB8F" d="M937.3,509.4c0.3,0,0.7,0.1,1,0.1c16.8,0,30.4-13.6,30.4-30.4c0-16.8-13.6-30.4-30.4-30.4
		c-16.8,0-30.4,13.6-30.4,30.4c0,4.7,1.1,9,3,13C921,495.2,930.2,501.1,937.3,509.4z"/>
	<path fill="#FDCB8F" d="M1143,493.4c2.3-4.3,3.7-9,3.7-14.2c0-16.8-13.6-30.4-30.4-30.4c-16.8,0-30.4,13.6-30.4,30.4
		c0,7.4,2.8,14.1,7.2,19.4C1107.6,489.2,1126,486.9,1143,493.4z"/>
	<path fill="#FDCB8F" d="M1294.3,509.5c13.8,0,25.4-9.3,29.1-22c-17.3-9.7-35.1-18.5-53.4-26.4c-3.8,5.1-6.1,11.3-6.1,18
		C1263.9,495.9,1277.5,509.5,1294.3,509.5z"/>
	<path fill="#FDCB8F" d="M665,663.3c16.8,0,30.4-13.6,30.4-30.4c0-16.8-13.6-30.4-30.4-30.4c-16.7,0-30.4,13.6-30.4,30.4
		C634.6,649.6,648.3,663.3,665,663.3z"/>
	<path fill="#FDCB8F" d="M991.4,639.3c2,9.3,8.3,16.9,16.7,20.9l25.6-54.9c-3.9-1.8-8.1-2.8-12.6-2.8c-13.2,0-24.3,8.5-28.5,20.3
		l3.3,7.1C994.3,633,992.9,636.2,991.4,639.3z"/>
	<path fill="#FDCB8F" d="M1377,602.5c-16.7,0-30.4,13.6-30.4,30.4c0,16.8,13.6,30.4,30.4,30.4c16.8,0,30.5-13.6,30.5-30.4
		C1407.5,616.1,1393.9,602.5,1377,602.5z"/>
	<path fill="#FDCB8F" d="M582.2,799.7c16.8,0,30.4-13.7,30.4-30.4c0-16.7-13.6-30.4-30.4-30.4c-16.7,0-30.4,13.7-30.4,30.4
		C551.8,786,565.5,799.7,582.2,799.7z"/>
	<path fill="#FDCB8F" d="M760.3,738.9c-16.8,0-30.4,13.7-30.4,30.4c0,16.7,13.7,30.4,30.4,30.4c13.4,0,24.6-8.8,28.7-20.8L771.3,741
		C767.9,739.7,764.2,738.9,760.3,738.9z"/>
	<path fill="#FDCB8F" d="M944.6,739.6c-8.3,17.9-16.7,35.7-25,53.6c5.2,4,11.6,6.6,18.6,6.6c1.7,0,3.4-0.2,5-0.5l21.1-45.2
		C960.1,746.7,953.1,741.4,944.6,739.6z"/>
	<path fill="#FDCB8F" d="M1294.3,738.9c-16.8,0-30.4,13.7-30.4,30.4c0,16.7,13.6,30.4,30.4,30.4c16.8,0,30.4-13.7,30.4-30.4
		C1324.7,752.5,1311.1,738.9,1294.3,738.9z"/>
	<path fill="#FDCB8F" d="M1472.3,738.9c-16.8,0-30.4,13.7-30.4,30.4c0,16.7,13.6,30.4,30.4,30.4c16.7,0,30.4-13.7,30.4-30.4
		C1502.7,752.5,1489.1,738.9,1472.3,738.9z"/>
	<path fill="#FDCB8F" d="M487,892.6c-16.8,0-30.4,13.6-30.4,30.4c0,16.8,13.6,30.4,30.4,30.4c16.8,0,30.4-13.6,30.4-30.4
		C517.4,906.2,503.8,892.6,487,892.6z"/>
	<path fill="#FDCB8F" d="M665,892.6c-16.7,0-30.4,13.6-30.4,30.4c0,16.8,13.7,30.4,30.4,30.4c16.8,0,30.4-13.6,30.4-30.4
		C695.4,906.2,681.8,892.6,665,892.6z"/>
	<path fill="#FDCB8F" d="M812.6,923c0,16.8,13.6,30.4,30.4,30.4c9,0,17-4,22.5-10.2L842,892.7C825.7,893.2,812.6,906.6,812.6,923z"
		/>
	<path fill="#FDCB8F" d="M1199.1,892.6c-16.8,0-30.4,13.6-30.4,30.4c0,16.8,13.6,30.4,30.4,30.4c16.8,0,30.4-13.6,30.4-30.4
		C1229.5,906.2,1215.9,892.6,1199.1,892.6z"/>
	<path fill="#FDCB8F" d="M1377,892.6c-16.7,0-30.4,13.6-30.4,30.4c0,16.8,13.6,30.4,30.4,30.4c16.8,0,30.5-13.6,30.5-30.4
		C1407.5,906.2,1393.9,892.6,1377,892.6z"/>
	<path fill="#FDCB8F" d="M1555.1,892.6c-16.8,0-30.4,13.6-30.4,30.4c0,16.8,13.6,30.4,30.4,30.4c16.8,0,30.4-13.6,30.4-30.4
		C1585.5,906.2,1571.9,892.6,1555.1,892.6z"/>
	<path fill="#FDCB8F" d="M582.2,1029c-16.7,0-30.4,13.6-30.4,30.4c0,16.8,13.7,30.4,30.4,30.4c16.8,0,30.4-13.7,30.4-30.4
		C612.6,1042.6,599,1029,582.2,1029z"/>
	<path fill="#FDCB8F" d="M760.3,1029c-16.8,0-30.4,13.6-30.4,30.4c0,16.8,13.7,30.4,30.4,30.4c16.8,0,30.4-13.7,30.4-30.4
		C790.7,1042.6,777,1029,760.3,1029z"/>
	<path fill="#FDCB8F" d="M929.2,1069.1l18-38.7c-2.9-0.9-5.8-1.5-9-1.5c-16.8,0-30.4,13.6-30.4,30.4c0,14.5,10.2,26.6,23.7,29.6
		C927.2,1083.5,926,1075.9,929.2,1069.1z"/>
	<path fill="#FDCB8F" d="M1116.3,1029c-16.8,0-30.4,13.6-30.4,30.4c0,1.5,0.2,2.8,0.4,4.2l2.6,5.5c0.9,2,1.4,4.1,1.6,6.2
		c5.4,8.7,14.9,14.5,25.8,14.5c16.8,0,30.4-13.7,30.4-30.4C1146.7,1042.6,1133.1,1029,1116.3,1029z"/>
	<path fill="#FDCB8F" d="M1294.3,1029c-16.8,0-30.4,13.6-30.4,30.4c0,16.8,13.6,30.4,30.4,30.4c16.8,0,30.4-13.7,30.4-30.4
		C1324.7,1042.6,1311.1,1029,1294.3,1029z"/>
	<path fill="#FDCB8F" d="M1472.3,1029c-16.8,0-30.4,13.6-30.4,30.4c0,16.8,13.6,30.4,30.4,30.4c16.7,0,30.4-13.7,30.4-30.4
		C1502.7,1042.6,1489.1,1029,1472.3,1029z"/>
	<path fill="#FDCB8F" d="M665,1472.8c-3.7,0-7.3,0.8-10.6,2c13.2,10.8,26.8,20.9,40.8,30.5c0.1-0.7,0.2-1.4,0.2-2.1
		C695.4,1486.5,681.8,1472.8,665,1472.8z"/>
	<path fill="#FDCB8F" d="M873.4,1503.2c0-16.7-13.6-30.4-30.4-30.4c-16.8,0-30.4,13.7-30.4,30.4c0,16.8,13.6,30.4,30.4,30.4
		C859.8,1533.6,873.4,1520,873.4,1503.2z"/>
	<path fill="#FDCB8F" d="M1051.5,1503.2c0-16.7-13.7-30.4-30.4-30.4c-16.8,0-30.4,13.7-30.4,30.4c0,16.8,13.6,30.4,30.4,30.4
		C1037.8,1533.6,1051.5,1520,1051.5,1503.2z"/>
	<path fill="#FDCB8F" d="M1199.1,1472.8c-16.8,0-30.4,13.7-30.4,30.4c0,16.8,13.6,30.4,30.4,30.4c16.8,0,30.4-13.6,30.4-30.4
		C1229.5,1486.5,1215.9,1472.8,1199.1,1472.8z"/>
	<path fill="#FDCB8F" d="M1346.7,1503.2c0,5.3,1.5,10.2,3.8,14.5c17-10.7,33.4-22.3,49.2-34.6c-5.6-6.3-13.6-10.3-22.7-10.3
		C1360.3,1472.8,1346.7,1486.5,1346.7,1503.2z"/>
	<path fill="#F1BEA4" d="M1299.7,627.6c13-27.8,0.8-61.2-27-74.2l-125.8-58.7c-1.3-0.6-2.6-0.9-3.9-1.3c-17-6.4-35.4-4.1-49.9,5.2
		c-8.6,5.5-15.8,13.3-20.4,23.2l-39,83.6l-25.6,54.9l-43.7,93.7l-21.1,45.2l-21.6,46.4c-13,27.8-0.8,61.2,27,74.2l41.2,19.2
		l-42.6,91.5l-18,38.7c-3.2,6.8-2,14.4,2.3,19.9c1.8,2.3,4.1,4.2,6.9,5.6l8.7,4c9.6,4.5,21,0.3,25.4-9.2l60.7-130.1l41.2,19.2
		c27.8,13,61.2,0.8,74.2-27L1299.7,627.6z M1138.7,914.8c-7.9,16.2-21.9,25.7-31.2,21.1c-9.3-4.6-10.4-21.4-2.5-37.6l138.3-282.8
		c7.9-16.2,21.9-25.7,31.2-21.2c9.3,4.6,10.4,21.4,2.5,37.6L1138.7,914.8z"/>
	<path fill="#F1BEA4" d="M1086.3,1063.6l-30.8-65.9c-4.6,3.7-8.4,7.9-9.2,12.3c-3.4,17.3-6.4,32.6-16.1,46.6l15.3,32.8
		c4.5,9.6,15.9,13.7,25.4,9.2l8.7-4c7.6-3.5,11.7-11.4,10.9-19.3c-0.2-2.1-0.7-4.2-1.6-6.2L1086.3,1063.6z"/>
	<path fill="#F1BEA4" d="M991.4,639.3c1.5-3.2,3-6.3,4.4-9.5l-3.3-7.1l-47.1-101c-2.1-4.6-5-8.6-8.1-12.3
		c-7-8.3-16.2-14.2-26.4-17.3c-12.7-3.9-26.8-3.5-39.7,2.6l-125.8,58.7c-27.8,13-40,46.3-27,74.2L771.3,741l17.7,37.9L842,892.7
		l23.6,50.5l3.8,8.2c13,27.8,46.4,40,74.2,27l1.8-0.8c3.9-8.5,7.9-16.9,11.8-25.4c-45-24.6-80.1-58.7-58.8-113
		c0.3-1,0.8-1.8,1.2-2.7c0.3-1,0.7-2.1,1.2-3.1c6.3-13.4,12.5-26.9,18.8-40.3c8.3-17.9,16.7-35.7,25-53.6
		C960.2,706.1,975.8,672.7,991.4,639.3z"/>
	<path fill="#FDCB8F" d="M552.1,1352.1c1.3,15.5,14.3,27.8,30.1,27.8c14.3,0,26.2-9.9,29.5-23.2c40.7,3,81.5,5.6,122.2,7.7
		c5.2,9.2,15,15.5,26.3,15.5c10.2,0,19.2-5.1,24.7-12.8c43.9,1.8,87.8,3,131.7,3.8c5.5,5.6,13.2,9.1,21.6,9.1
		c8.2,0,15.7-3.3,21.2-8.7c45.1,0.4,90.2,0.3,135.2-0.4c5.5,5.6,13.2,9.1,21.6,9.1c8.8,0,16.7-3.9,22.3-9.9
		c43.3-1.1,86.5-2.8,129.8-4.9c5.3,8.8,14.9,14.8,26,14.8c12.2,0,22.7-7.3,27.5-17.6c40.2-2.4,80.4-5.2,120.5-8.5
		c2.1,14.7,14.7,26.1,30,26.1c16.7,0,30.4-13.6,30.4-30.4c0-0.4-0.1-0.8-0.1-1.1c8.6-0.8,17.3-1.6,25.9-2.5
		c62.5-6.2,124.9-13.4,187.3-21.8c63.2-8.5,126.3-17.9,189.3-28.7c-15.5-84.9-30.9-169.8-46.4-254.6c-47.8,8.2-95.7,15.4-143.7,22.2
		c-29.1,4.1-58.2,8.1-87.3,11.7c1.4-12.7,2.4-25.4,2.9-38.3c-0.7,0.6-1.2,1.3-1.9,2c-5.3,5.5-8.8,12.8-8.8,21
		c0,5.8,1.7,11.1,4.6,15.7c-408.5,50.4-821.9,50.5-1230.5,0.4c-29.9-3.7-59.7-7.7-89.5-11.9c-47.2-6.6-94.3-13.7-141.2-21.7
		c-15.3,84.9-30.7,169.7-46,254.6c62.5,10.6,125.2,19.9,188,28.3c62,8.3,124.1,15.4,186.2,21.5
		C511.6,1348.3,531.9,1350.3,552.1,1352.1z M1249,1189.6l11.2,34.4h36.2l-29.3,21l11.2,34.3l-29.3-21.3l-29.3,21.2l11.2-34.1
		l-29.3-21h36.2L1249,1189.6z M987.2,1213l22.4-69l22.4,69h72.6l-58.7,42.5l22.4,68.9l-58.7-42.7l-58.7,42.6l22.4-68.8l-58.7-42.5
		H987.2z M747.7,1224l11.2-34.4l11.2,34.4h36.2l-29.3,21l11.2,34.3l-29.3-21.3l-29.3,21.2l11.2-34.1l-29.3-21H747.7z"/>
	<path fill="#F1BEA4" d="M1277,632.1c7.9-16.2,6.8-33.1-2.5-37.6c-9.3-4.5-23.3,4.9-31.2,21.2L1105,898.4
		c-7.9,16.2-6.8,33.1,2.5,37.6c9.3,4.5,23.3-4.9,31.2-21.1L1277,632.1z"/>
	<path opacity="0.2" fill="#FFFFFF" d="M1277,632.1c7.9-16.2,6.8-33.1-2.5-37.6c-9.3-4.5-23.3,4.9-31.2,21.2L1105,898.4
		c-7.9,16.2-6.8,33.1,2.5,37.6c9.3,4.5,23.3-4.9,31.2-21.1L1277,632.1z"/>
	<polygon fill="#E7727F" points="950.9,1324.3 1009.6,1281.7 1068.4,1324.4 1045.9,1255.5 1104.6,1213 1032.1,1213 1009.6,1144 
		987.2,1213 914.7,1213 973.4,1255.5 	"/>
	<polygon fill="#E7727F" points="1201.6,1224 1230.9,1245 1219.7,1279.1 1249,1257.9 1278.2,1279.3 1267.1,1245 1296.3,1224 
		1260.2,1224 1249,1189.6 1237.8,1224 	"/>
	<polygon fill="#E7727F" points="740.8,1245 729.7,1279.1 758.9,1257.9 788.2,1279.3 777,1245 806.3,1224 770.1,1224 758.9,1189.6 
		747.7,1224 711.6,1224 	"/>
</g>
</svg>
