<?xml version="1.0" encoding="utf-8"?>
<!-- Generator: Adobe Illustrator 18.1.0, SVG Export Plug-In . SVG Version: 6.00 Build 0)  -->
<svg version="1.1" id="Layer_1" xmlns="http://www.w3.org/2000/svg" xmlns:xlink="http://www.w3.org/1999/xlink" x="0px" y="0px"
	 viewBox="0 0 150 150" enable-background="new 0 0 150 150" xml:space="preserve">
<g>
	<g>
		<path fill="#8A173C" d="M74.3,118.4c-2.3-0.2-4.6-0.3-7-0.5c-2.4-0.1-5-0.2-7.8-0.2c-3.4,0-6.2,0.1-8.5,0.2
			c-2.3,0.1-4.5,0.3-6.7,0.5c-0.2-0.9-0.3-1.7-0.3-2.5c0-0.6,0.2-1,0.5-1.2c0.3-0.2,0.6-0.4,1-0.5c2.8-0.4,4.7-1,5.7-1.6
			c1-0.6,1.6-1.6,1.6-2.9V41.3c0-2.6-0.4-4.6-1.3-5.9c-0.9-1.3-2.9-2.1-6.1-2.4c-1.1-0.2-1.7-0.9-1.7-2.1c0-0.3,0-0.6,0-1
			c0-0.4,0.1-0.8,0.3-1.1c0.5,0,1.3,0,2.3-0.1c1,0,2.1-0.1,3.2-0.1c1.1,0,2.3-0.1,3.4-0.2c1.1-0.1,2.2-0.2,3.1-0.3
			c2.2-0.3,4.3-0.6,6.3-1c2-0.4,3.3-0.7,4-0.7c1.4,0,2.1,0.7,2.1,2c0,1-0.1,2.2-0.4,3.7c-0.3,1.5-0.4,3.7-0.4,6.4v33.8
			c2.8-3.7,5.9-6.6,9.2-8.8s6.9-3.3,10.6-3.3c5.3,0,9.5,1.5,12.5,4.4c3,3,4.6,7.4,4.6,13.3v31.8c0,1.2,0.5,2.1,1.5,2.7
			c1,0.6,2.9,1.2,5.8,1.7c0.3,0.1,0.7,0.2,1,0.5c0.3,0.2,0.5,0.6,0.5,1.2c0,0.8-0.1,1.6-0.3,2.5c-2.3-0.2-4.5-0.3-6.8-0.5
			c-2.3-0.1-5.1-0.2-8.5-0.2c-2.8,0-5.4,0.1-7.8,0.2c-2.4,0.1-4.8,0.3-7,0.5c-0.2-0.4-0.3-0.7-0.3-1.2s0-0.9,0-1.3
			c0-1,0.5-1.5,1.4-1.7c2.3-0.4,3.9-1,4.6-1.6c0.7-0.6,1.1-1.6,1.1-2.9V84.2c0-5.1-0.6-8.7-1.9-10.6c-1.3-2-3.3-2.9-6.1-2.9
			c-3.9,0-7.3,1.3-10,4c-2.8,2.6-4.2,6.6-4.2,11.8v23.3c0,1.3,0.3,2.3,1,2.9c0.7,0.6,2.3,1.1,4.7,1.6c1,0.2,1.4,0.7,1.4,1.7
			c0,0.4,0,0.9,0,1.3S74.5,118,74.3,118.4z"/>
	</g>
	<g>
		<g>
			<path fill="#8A173C" d="M81.2,144.6c-0.2,0-0.5-0.1-0.7-0.2l-5.5-2.6l-5.5,2.6c-0.5,0.3-1.2,0.2-1.6-0.2l-5-3.6l-5.9,1.5
				c-0.6,0.1-1.2,0-1.6-0.4l-4.2-4.4l-6.1,0.4c-0.6,0-1.1-0.2-1.5-0.7l-3.3-5.1l-6.1-0.7c-0.6-0.1-1.1-0.5-1.3-1l-2.4-5.6l-5.8-1.8
				c-0.6-0.2-1-0.6-1.1-1.2l-1.3-6l-5.4-2.9c-0.5-0.3-0.8-0.8-0.9-1.4l-0.2-6.1l-4.8-3.8c-0.5-0.4-0.7-1-0.6-1.5l1-6l-4-4.6
				c-0.4-0.4-0.5-1.1-0.3-1.6l2.1-5.8l-3.1-5.3c-0.3-0.5-0.3-1.1,0-1.6l3.1-5.3l-2.1-5.8c-0.2-0.6-0.1-1.2,0.3-1.6l4-4.6l-1-6.1
				c-0.1-0.6,0.1-1.2,0.6-1.5l4.8-3.8l0.2-6.1c0-0.6,0.3-1.1,0.9-1.4l5.4-2.9l1.3-6c0.1-0.6,0.5-1,1.1-1.2l5.8-1.8l2.4-5.6
				c0.2-0.5,0.7-0.9,1.3-1l6.1-0.7l3.3-5.1c0.3-0.5,0.9-0.8,1.5-0.7l6.1,0.4l4.2-4.4c0.4-0.4,1-0.6,1.6-0.5l5.9,1.5l5-3.6
				c0.5-0.3,1.1-0.4,1.6-0.1L75,9.4l5.5-2.6C81,6.6,81.7,6.6,82.1,7l5,3.6L93,9c0.6-0.1,1.2,0,1.6,0.5l4.2,4.4l6.1-0.4
				c0.6,0,1.1,0.2,1.5,0.7l3.4,5.1l6.1,0.7c0.6,0.1,1.1,0.5,1.3,1l2.4,5.6l5.8,1.8c0.6,0.2,1,0.6,1.1,1.2l1.3,6l5.4,2.9
				c0.5,0.3,0.9,0.8,0.9,1.4l0.2,6.1l4.8,3.8c0.5,0.4,0.7,0.9,0.6,1.5l-1,6l4,4.6c0.4,0.4,0.5,1.1,0.3,1.6l-2.1,5.8l3.1,5.3
				c0.3,0.5,0.3,1.1,0,1.6l-3.1,5.3l2.1,5.8c0.2,0.6,0.1,1.2-0.3,1.6l-4,4.6l1,6c0.1,0.6-0.1,1.2-0.6,1.5l-4.8,3.8l-0.2,6.1
				c0,0.6-0.3,1.1-0.9,1.4l-5.4,2.9l-1.3,6c-0.1,0.6-0.5,1-1.1,1.2l-5.8,1.8l-2.4,5.6c-0.2,0.5-0.7,0.9-1.3,1l-6.1,0.7l-3.3,5.1
				c-0.3,0.5-0.9,0.8-1.5,0.7l-6.1-0.4l-4.2,4.4c-0.4,0.4-1,0.6-1.6,0.5l-5.9-1.5l-5,3.6C81.9,144.5,81.5,144.6,81.2,144.6z
				 M75,138.4c0.2,0,0.5,0,0.7,0.2l5.4,2.5l4.8-3.4c0.4-0.3,0.9-0.4,1.4-0.3l5.7,1.5l4.1-4.3c0.3-0.3,0.8-0.5,1.3-0.5l5.9,0.4l3.2-5
				c0.3-0.4,0.7-0.7,1.2-0.7l5.9-0.7l2.3-5.5c0.2-0.4,0.6-0.8,1-0.9l5.7-1.8l1.2-5.8c0.1-0.5,0.4-0.9,0.8-1.1l5.2-2.8l0.2-5.9
				c0-0.5,0.2-0.9,0.6-1.2l4.6-3.7l-0.9-5.9c-0.1-0.5,0.1-1,0.4-1.3l3.9-4.5l-2-5.6c-0.2-0.5-0.1-1,0.1-1.4l3-5.1l-3-5.1
				c-0.2-0.4-0.3-0.9-0.1-1.4l2-5.6l-3.9-4.5c-0.3-0.4-0.5-0.8-0.4-1.3l0.9-5.9l-4.6-3.7c-0.4-0.3-0.6-0.8-0.6-1.2l-0.2-5.9
				l-5.2-2.8c-0.4-0.2-0.7-0.6-0.8-1.1l-1.2-5.8l-5.7-1.8c-0.5-0.1-0.8-0.5-1-0.9l-2.3-5.5l-5.9-0.7c-0.5-0.1-0.9-0.3-1.2-0.7
				l-3.2-5l-5.9,0.4c-0.5,0-0.9-0.2-1.3-0.5l-4.1-4.3l-5.7,1.5c-0.5,0.1-1,0-1.4-0.3L81,10.2l-5.4,2.5c-0.4,0.2-0.9,0.2-1.4,0
				l-5.4-2.5l-4.8,3.4c-0.4,0.3-0.9,0.4-1.4,0.3L57,12.4l-4.1,4.3c-0.3,0.3-0.8,0.5-1.3,0.5l-5.9-0.4l-3.2,5
				c-0.3,0.4-0.7,0.7-1.2,0.7l-5.9,0.7l-2.3,5.5c-0.2,0.4-0.6,0.8-1,0.9l-5.7,1.8l-1.2,5.8c-0.1,0.5-0.4,0.9-0.8,1.1L19.2,41
				L19,46.9c0,0.5-0.2,0.9-0.6,1.2l-4.6,3.7l0.9,5.9c0.1,0.5-0.1,1-0.4,1.3l-3.9,4.5l2,5.6c0.2,0.5,0.1,1-0.1,1.4l-3,5.1l3,5.1
				c0.2,0.4,0.3,0.9,0.1,1.4l-2,5.6l3.9,4.5c0.3,0.4,0.5,0.8,0.4,1.3l-0.9,5.9l4.6,3.7c0.4,0.3,0.6,0.8,0.6,1.2l0.2,5.9l5.2,2.8
				c0.4,0.2,0.7,0.6,0.8,1.1l1.2,5.8l5.7,1.8c0.5,0.1,0.8,0.5,1,0.9l2.3,5.5l5.9,0.7c0.5,0.1,0.9,0.3,1.2,0.7l3.2,5l5.9-0.4
				c0.5,0,0.9,0.1,1.3,0.5l4.1,4.3l5.7-1.5c0.5-0.1,1,0,1.4,0.3l4.8,3.4l5.4-2.5C74.5,138.5,74.7,138.4,75,138.4z"/>
		</g>
	</g>
</g>
</svg>
