<?xml version="1.0" encoding="iso-8859-1"?>
<!-- Generator: Adobe Illustrator 13.0.0, SVG Export Plug-In . SVG Version: 6.00 Build 14948)  -->
<!DOCTYPE svg PUBLIC "-//W3C//DTD SVG 1.1//EN" "http://www.w3.org/Graphics/SVG/1.1/DTD/svg11.dtd">
<svg version="1.1" id="Layer_1" xmlns="http://www.w3.org/2000/svg" xmlns:xlink="http://www.w3.org/1999/xlink" x="0px" y="0px"
	 width="100px" height="100px" viewBox="0 0 100 100" enable-background="new 0 0 100 100" xml:space="preserve">
<g>
	<g>
		<path fill="#9E2529" d="M39.743,80.894H22.919l-0.007-16.074L10.367,52.259L22.927,39.7l0.15-14.392l0.033-2.943l17.37-0.217
			l11.816-11.815l11.799,11.804h16.077V38.96l11.665,11.655L80.172,63.944v16.949H65.433L51.342,92.5L39.743,80.894L39.743,80.894z
			 M28.923,42.228l-10.031,10.04l10.05,10.042L28.938,74.87h13.308l9.498,9.491l11.53-9.491H74.15V61.68l9.432-10.781l-9.432-9.432
			l-0.009-13.309H61.589l-9.293-9.298l-9.283,9.282l-13.944,0.176L28.923,42.228L28.923,42.228z"/>
	</g>
	<g>
		<path fill="#827959" d="M70.681,72.138H59.672V56.025H43.778v16.112H32.772V31.125h11.006v15.496h15.894V31.125h11.009V72.138z"/>
	</g>
</g>
</svg>
