<?xml version="1.0" encoding="utf-8"?>
<!-- Generator: Adobe Illustrator 16.0.0, SVG Export Plug-In . SVG Version: 6.00 Build 0)  -->
<!DOCTYPE svg PUBLIC "-//W3C//DTD SVG 1.1//EN" "http://www.w3.org/Graphics/SVG/1.1/DTD/svg11.dtd">
<svg version="1.1" id="Layer_1" xmlns="http://www.w3.org/2000/svg" xmlns:xlink="http://www.w3.org/1999/xlink" x="0px" y="0px"
	 width="100px" height="100px" viewBox="0 0 100 100" enable-background="new 0 0 100 100" xml:space="preserve">
<g>
	<radialGradient id="SVGID_1_" cx="35.9204" cy="7.2271" r="29.1773" gradientUnits="userSpaceOnUse">
		<stop  offset="0" style="stop-color:#00BCF1"/>
		<stop  offset="1" style="stop-color:#008ED3"/>
	</radialGradient>
	<path fill="url(#SVGID_1_)" d="M66.607,18.321c0,0-44.458,11.348-44.707,47.486c0,0-6.094-12.778,5.586-30.986
		C39.167,16.623,66.607,18.321,66.607,18.321z"/>
	<radialGradient id="SVGID_2_" cx="35.9204" cy="7.2275" r="29.1686" gradientUnits="userSpaceOnUse">
		<stop  offset="0" style="stop-color:#00BCF1"/>
		<stop  offset="1" style="stop-color:#008ED3"/>
	</radialGradient>
	<path fill="url(#SVGID_2_)" d="M43.672,15.653c-0.997,2.862-4.146,4.376-7.017,3.379c-2.862-0.997-4.376-4.146-3.379-7.008
		c0.997-2.872,4.136-4.386,7.008-3.389C43.155,9.643,44.669,12.782,43.672,15.653z"/>
	<radialGradient id="SVGID_3_" cx="41.7959" cy="41.0718" r="60.6583" fx="94.1296" fy="10.4025" gradientUnits="userSpaceOnUse">
		<stop  offset="0" style="stop-color:#8BC53F"/>
		<stop  offset="0.1152" style="stop-color:#37B34A"/>
		<stop  offset="0.2727" style="stop-color:#009345"/>
		<stop  offset="0.6061" style="stop-color:#00310D"/>
		<stop  offset="1" style="stop-color:#006838"/>
	</radialGradient>
	<path fill="url(#SVGID_3_)" d="M77.521,14.148c-0.074,2.068-0.443,4.1-0.979,6.076c-0.536,1.967-1.302,3.869-2.253,5.65
		c-1.884,3.564-4.654,6.574-7.95,8.772s-7.101,3.564-10.996,4.385c-3.896,0.804-7.941,1.007-11.967,0.942
		c-0.517-0.01-1.053,0.23-1.375,0.683c-0.545,0.739-0.379,1.773,0.369,2.318l0.064,0.046c0.12,0.083,0.351,0.268,0.517,0.415
		c0.185,0.166,0.37,0.333,0.554,0.499c0.378,0.332,0.729,0.692,1.071,1.062c0.693,0.757,1.33,1.561,1.902,2.4
		c1.163,1.69,2.086,3.527,2.797,5.448c1.413,3.85,1.846,8.061,1.487,12.215c-0.351,4.165-1.385,8.311-2.89,12.299
		c-1.117,3.01-2.493,5.938-4.017,8.8c-0.286-0.601-0.572-1.219-0.831-1.838c-0.665-1.542-1.265-3.121-1.81-4.718
		c-1.08-3.204-1.92-6.501-2.53-9.843c-1.237-6.685-1.551-13.555-1.034-20.387c-0.942,6.777-1.062,13.721-0.231,20.58
		c0.416,3.436,1.062,6.842,1.967,10.203c0.453,1.681,0.979,3.343,1.561,4.986c0.083,0.221,0.166,0.442,0.249,0.664
		c-0.609-0.489-1.219-0.987-1.819-1.514c-1.708-1.515-3.305-3.148-4.783-4.875c-2.945-3.463-5.235-7.479-6.426-11.828
		c-1.191-4.358-1.062-9.039,0.231-13.472c1.292-4.44,3.638-8.596,6.426-12.409c-3.231,3.444-6.048,7.414-7.774,11.957
		c-0.859,2.263-1.459,4.653-1.671,7.109c-0.212,2.447-0.064,4.94,0.434,7.359c0.979,4.884,3.398,9.344,6.362,13.222
		c1.486,1.958,3.167,3.749,4.958,5.42c0.896,0.831,1.819,1.625,2.77,2.4c0.97,0.776,1.902,1.487,3.01,2.207
		c0.018,0.009,0.037,0.027,0.046,0.037c0.813,0.489,1.875,0.24,2.373-0.572l0.037-0.065c2.345-3.822,4.395-7.848,6.039-12.095
		c1.606-4.238,2.807-8.707,3.139-13.333c0.352-4.607-0.156-9.381-1.828-13.795c-0.83-2.197-1.984-4.293-3.37-6.195
		c-0.563-0.775-1.182-1.514-1.837-2.216c2.844-0.203,5.688-0.637,8.476-1.339c4.137-1.024,8.181-2.77,11.615-5.392
		c3.453-2.576,6.168-6.113,7.84-10C77.087,22.522,77.845,18.285,77.521,14.148z"/>
</g>
</svg>
