<?xml version="1.0" encoding="utf-8"?>
<!-- Generator: Adobe Illustrator 16.0.0, SVG Export Plug-In . SVG Version: 6.00 Build 0)  -->
<!DOCTYPE svg PUBLIC "-//W3C//DTD SVG 1.1//EN" "http://www.w3.org/Graphics/SVG/1.1/DTD/svg11.dtd">
<svg version="1.1" id="Layer_1" xmlns="http://www.w3.org/2000/svg" xmlns:xlink="http://www.w3.org/1999/xlink" x="0px" y="0px"
	 width="100px" height="100px" viewBox="0 0 100 100" enable-background="new 0 0 100 100" xml:space="preserve">
<g>
	<g>
		<path fill-rule="evenodd" clip-rule="evenodd" fill="#27A8E0" d="M44.09,37.642c3.9,0.003,7.798-0.02,11.693,0.006
			c6.919,0.048,11.13,4.262,11.134,11.121c0.003,4.392-0.036,8.783,0.02,13.178c0.022,1.482-0.448,2.166-2.022,2.093
			c-1.912-0.091-3.837-0.049-5.752-0.014c-1.064,0.022-1.657-0.271-1.935-1.454c-0.761-3.263-3.327-5.152-6.268-4.82
			c-3.031,0.342-5.112,2.831-5.193,6.21c-0.024,1.048,0.123,2.147-0.137,3.134c-0.169,0.629-0.938,1.1-1.439,1.642
			c-0.555-0.561-1.425-1.041-1.596-1.702c-0.287-1.106-0.113-2.328-0.161-3.505c-0.116-2.87-1.999-5.075-4.628-5.449
			c-3.237-0.464-5.855,0.98-6.611,3.998c-0.409,1.632-1.173,2.066-2.697,1.979c-1.789-0.097-3.587-0.058-5.383-0.01
			c-1.217,0.032-1.847-0.39-1.838-1.695c0.031-4.953-0.146-9.908,0.071-14.848c0.256-5.804,4.554-9.734,10.492-9.85
			C35.92,37.577,40.007,37.642,44.09,37.642z M56.119,51.822c-0.046-2.512-2.213-4.579-4.721-4.501
			c-2.493,0.077-4.501,2.28-4.398,4.827c0.097,2.318,2.367,4.395,4.74,4.34C54.1,56.43,56.157,54.236,56.119,51.822z"/>
	</g>
	<path fill-rule="evenodd" clip-rule="evenodd" fill="#8CC542" d="M25.912,67.228c1.401,0.132,3.179-0.2,4.092,0.535
		c0.757,0.612,0.535,2.479,0.682,3.798c0.663,5.975,3.621,10.244,9.449,12.065c8.626,2.698,17.068-3.376,17.487-12.42
		c0.178-3.84,0.178-3.84,3.953-3.84c1.238,0,2.477,0.016,3.714,0.016c1.055-0.003,1.555,0.497,1.612,1.573
		c0.658,12.563-8.279,23.112-20.313,24.411c-13.318,1.441-24.48-8.834-25.067-20.951c-0.003-0.062-0.014-0.122-0.021-0.184
		C20.929,67.347,20.929,67.347,25.912,67.228z"/>
	<path fill-rule="evenodd" clip-rule="evenodd" fill="#27A8E0" d="M53.739,27.614c-0.187-0.003-0.374,0-0.562-0.003
		c-4.978-0.02-5.455,0.416-5.874,5.384c-0.148,1.78-1.338,3.008-2.912,3.002c-1.616-0.003-2.992-1.351-3.094-3.083
		c-0.4-6.732,3.318-11.849,10.616-11.356c0.926,0.062,1.857,0.049,2.786,0.032c2.16-0.045,2.792-0.709,2.95-2.911
		c0.235-3.244-0.807-6.207-1.867-9.192c-0.945-2.66,0.787-4.74,3.485-4.153c0.784,0.171,1.835,0.899,2.048,1.593
		c1.031,3.35,2.222,6.729,2.604,10.182C64.566,22.936,61.742,28.343,53.739,27.614z"/>
</g>
</svg>
