<?xml version="1.0" encoding="utf-8"?>
<!-- Generator: Adobe Illustrator 18.1.0, SVG Export Plug-In . SVG Version: 6.00 Build 0)  -->
<svg version="1.1" id="Layer_1" xmlns="http://www.w3.org/2000/svg" xmlns:xlink="http://www.w3.org/1999/xlink" x="0px" y="0px"
	 viewBox="0 0 150 150" enable-background="new 0 0 150 150" xml:space="preserve">
<g>
	<path fill="#FEC2D7" d="M66.4,55.2c-1.7,0-3.4-0.5-4.8-1.3C61.4,53.9,61,54,61,54.1v8.5c0,0.2,0.1,0.5,0,0.7c3.7-2.2,7-4.5,11-6.9
		v-3.1C70,54.5,68.5,55.2,66.4,55.2z"/>
	<path fill="#FEC2D7" d="M75,47.6c0,1.7,0,3.9,0,6.5c9-5.9,14.9-11.1,14.2-12.6c-1.5-2.9-8.2,1.2-14.2,4.8v0
		C75,46.7,75,47.2,75,47.6z"/>
	<path fill="#FEC2D7" d="M58,62.6v-6.8c-8,4.6-15,10.9-17.7,13.3c-0.7,0.7-1.1,1.1-1.1,1.1c-6,7.7,6.3,2.2,20.3-6.1
		C58.6,64.1,58,63.4,58,62.6z"/>
	<path fill="#FEC2D7" d="M102.8,94.8c-0.1,0.2-0.2,0.4-0.3,0.6c-0.1,0.1-0.1,0.2-0.2,0.4c-0.1,0.2-0.2,0.4-0.3,0.5
		c-1.1,1.8-2.7,3.9-4.5,5.8c2.9,0.8,6.1,1.1,9,0.4c2.7-0.6,6.7-2.3,7.8-7.3c-3.4,0.1-7.2-0.3-11.1-1.2c-0.1,0.1-0.1,0.3-0.2,0.5
		C102.9,94.6,102.9,94.7,102.8,94.8z"/>
	<path fill="#FEC2D7" d="M75.3,8.7C38.5,8.7,8.6,38.6,8.6,75.4c0,36.8,29.9,66.7,66.7,66.7c36.8,0,66.7-29.9,66.7-66.7
		C142,38.6,112.1,8.7,75.3,8.7z M55.2,17.1c1.9-1.6,6.3-0.3,3,1.9C54.9,21.3,55.2,17.1,55.2,17.1z M18.2,63.1c-2.2,0.7-1.7-1-1.7-1
		c4.9-28.5,33.6-42.5,33.6-42.5c3.8-0.2,1.5,2.4,1.5,2.4C21.2,39.4,20.4,62.5,18.2,63.1z M118.7,94.7c-0.9,6.2-4.9,10.5-11.3,11.9
		c-4.1,0.9-9.1,0.4-13.2-1.2c-0.2,0.2-0.5,0.4-0.7,0.6c0,0-0.1,0.1-0.1,0.1c-0.6,0.5-1.2,1.2-1.7,1.7c0,0,0,0.2,0,0.2c0,0,0,0,0,0
		c-1,0-2,1.3-2.9,1.8c-5.3,3.1-15,3.9-12.8,0.3c2.2-3.5-16.8-15.1-26.5-16.4c-9.7-1.3-15,1.7-10.2,1.7c4.9,0,46,13.3,25.6,14.6
		c-20.3,1.3-30.5-12.4-30.5-12.4c-3.5-4-11.5-19.5-11.1-23.4c0.4-3.2,23.4-19.4,34.1-26C57.2,47.6,57,47,57,46.3v-6.8
		c0-4.9,4.2-8.8,9.2-8.8c4.6,0,8.4,3.3,9,7.5c6-2.9,13.4-5.7,15.6-5.5c3.4,0.4,10.8,10.7,14.2,16.6c2-1.2,4.3-2,6.8-2
		c7,0,12.7,5.7,12.7,12.7c0,5.4-3.4,10-8.1,11.8c8.9,4.2,14.4,10.4,13,15.8C128.5,91.3,124.4,93.8,118.7,94.7z"/>
	<path fill="#FFFFFF" d="M93.3,106.1c-0.6,0.5-1.2,1-1.7,1.5C92.2,107.1,92.7,106.6,93.3,106.1z"/>
	<path fill="#FFFFFF" d="M101.7,96.6c-0.5-0.1-1.1-0.2-1.6-0.4c-4.3-1.1-8.1-2.7-11.4-4.6c0,1.3,0.2,2.7,0.7,4.2
		c0.8,2.7,4.1,5,8,6.1c1.8-2,3.4-4,4.5-5.8C101.9,96.3,101.8,96.5,101.7,96.6z"/>
	<path fill="#FFFFFF" d="M93.4,106c0.2-0.2,0.5-0.4,0.7-0.6c0,0,0,0,0,0C93.9,105.6,93.6,105.8,93.4,106z"/>
	<path fill="#FFFFFF" d="M83.7,99.7c-1.5-4.7-1-8.6,0.2-11.4c-4-3.4-6-7.3-5.1-10.8c0.3-1.2,1-2.3,1.9-3.3c1.8-4.7,8.9-7.3,17.8-6.9
		c-0.6-1.5-1-3.1-1-4.8c0-3.1,1.2-6,3.1-8.2c1-2.1,2.6-3.8,4.5-5c-3.4-5.9-10.8-16.2-14.2-16.6c-2.3-0.3-9.9,2.6-15.8,5.5
		c0.1,0.4-0.1,0.9-0.1,1.3v6.8c6-3.6,12.8-7.7,14.2-4.8c0.7,1.4-5.2,6.7-14.2,12.6c0,9.5,0,22.9,0,23c0,0.1,0.2,0.3,0.2,0.7
		c0,1.7-0.4,5.5-4.7,7.7c-0.8,0.4-1.8,0.1-2.3-0.7c-0.4-0.8-0.1-1.9,0.7-2.3c3.3-1.7,3-4.7,3-5.1c0-0.1,0-0.2,0-0.2V56.4
		c-4,2.3-7.3,4.7-10.9,6.9c-0.2,0.6-0.8,1-1.5,1c0,0-0.1,0-0.1,0c-14,8.3-26.3,13.8-20.3,6.1c0,0,0.4-0.4,1.1-1.1
		C43,66.7,50,60.4,58,55.8v-6c0-0.5-0.4-1-0.5-1.5c-10.7,6.6-33.8,22.8-34.2,26c-0.4,4,7.5,19.5,11,23.4c0,0,10.2,13.7,30.5,12.4
		c20.3-1.3-20.8-14.6-25.6-14.6c-4.9,0,0.4-3.1,10.2-1.8c9.7,1.3,28.7,12.8,26.5,16.4c-2.2,3.5,7.5,2.7,12.8-0.4
		c0.9-0.5,1.9-1.2,2.9-2C87.8,105.9,84.8,103.2,83.7,99.7z"/>
	<path fill="#FFFFFF" d="M102.3,95.7c0.1-0.1,0.1-0.2,0.2-0.4C102.4,95.4,102.4,95.5,102.3,95.7z"/>
	<path fill="#FFFFFF" d="M102.8,94.8c0.1-0.1,0.1-0.2,0.2-0.3C102.9,94.6,102.9,94.7,102.8,94.8z"/>
	<path fill="#FFFFFF" d="M61.6,53.9c-0.1-0.1-0.3-0.2-0.4-0.3v0.5C61.3,54,61.5,53.9,61.6,53.9z"/>
	<path fill="#7D7E81" d="M72,53.3v3.1v20.7c0,0.1,0,0.2,0,0.2c0,0.3,0.3,3.4-3,5.1c-0.8,0.4-1.2,1.5-0.7,2.3
		c0.4,0.8,1.5,1.2,2.3,0.7c4.3-2.2,4.6-6.1,4.6-7.7c0-0.3-0.2-0.5-0.2-0.7c0-0.1,0-13.5,0-23c0-2.6,0-4.8,0-6.5
		C75,49.9,74,51.9,72,53.3z"/>
	<path fill="#7D7E81" d="M61,54.1v-0.5c-1-0.9-2-2.3-3-3.8v6v6.8c0,0.8,0.6,1.5,1.5,1.6c0,0,0.1,0,0.1,0c0.7,0,1.1-0.4,1.4-1
		C61,63,61,62.8,61,62.6V54.1z"/>
	<path fill="#D49394" d="M61.2,53.6c0.1,0.1,0.3,0.2,0.4,0.3c1.4,0.8,3,1.3,4.7,1.3c2.1,0,4.1-0.7,5.6-1.9c1.8-1.4,2.9-3.4,3.2-5.7
		c0.1-0.4-0.1-0.8-0.1-1.3v0v-6.8c0-0.5,0.2-0.9,0.1-1.3c-0.7-4.2-4.4-7.5-9-7.5c-5,0-9.1,4-9.1,8.8v6.8c0,0.7,0.2,1.3,0.3,1.9
		c0.1,0.5,0.3,1,0.6,1.5C58.6,51.3,59.8,52.7,61.2,53.6z M72.9,48.6c-0.5,0-0.8-0.4-0.8-1c0-0.6,0.4-1,0.8-1c0.5,0,0.8,0.4,0.8,1
		C73.8,48.1,73.4,48.6,72.9,48.6z M68.4,32.9c0.4-1.2,3.5,1.1,4.5,3.9c0,0,0,1,0,1.8v6c0,0-0.6,1.3-1.1,0.6
		c-0.5-0.6,0.1-3.6,0.1-3.8v-1.8c0,0,0.3-1.8-1.3-3.5C69,34.5,68,34.1,68.4,32.9z"/>
	<path fill="#FFFFFE" d="M70.7,36.1c1.6,1.6,1.3,3.5,1.3,3.5v1.8c0,0.2-0.6,3.2-0.1,3.8c0.5,0.6,1.1-0.6,1.1-0.6v-6
		c0-0.8,0-1.8,0-1.8c-1-2.8-4.3-5.1-4.7-3.9C67.8,34.1,69,34.5,70.7,36.1z"/>
	<ellipse fill="#FFFFFE" cx="72.9" cy="47.6" rx="0.8" ry="1"/>
	<path fill="#FEC2D7" d="M93.4,106C93.4,106.1,93.3,106.1,93.4,106C93.3,106.1,93.4,106.1,93.4,106z"/>
	<path opacity="0.12" d="M93.4,106C93.4,106.1,93.3,106.1,93.4,106C93.3,106.1,93.4,106.1,93.4,106z"/>
	<path fill="#FEC2D7" d="M91.6,107.6C91.6,107.6,91.6,107.6,91.6,107.6C91.6,107.6,91.6,107.6,91.6,107.6
		C91.6,107.6,91.6,107.6,91.6,107.6z"/>
	<path opacity="0.12" d="M91.6,107.6C91.6,107.6,91.6,107.6,91.6,107.6C91.6,107.6,91.6,107.6,91.6,107.6
		C91.6,107.6,91.6,107.6,91.6,107.6z"/>
	<path fill="#FEC2D7" d="M102.5,95.3c0.1-0.2,0.2-0.4,0.3-0.6C102.7,94.9,102.6,95.1,102.5,95.3z"/>
	<path opacity="0.12" d="M102.5,95.3c0.1-0.2,0.2-0.4,0.3-0.6C102.7,94.9,102.6,95.1,102.5,95.3z"/>
	<path fill="#FEC2D7" d="M103.2,94C103.2,94,103.2,94,103.2,94c-0.1,0.1-0.1,0.3-0.2,0.5C103,94.3,103.1,94.2,103.2,94z"/>
	<path opacity="0.12" d="M103.2,94C103.2,94,103.2,94,103.2,94c-0.1,0.1-0.1,0.3-0.2,0.5C103,94.3,103.1,94.2,103.2,94z"/>
	<path fill="#FEC2D7" d="M102,96.2c0.1-0.2,0.2-0.4,0.3-0.5C102.2,95.8,102.1,96,102,96.2z"/>
	<path opacity="0.12" d="M102,96.2c0.1-0.2,0.2-0.4,0.3-0.5C102.2,95.8,102.1,96,102,96.2z"/>
	<path fill="#FFFFFF" d="M100.6,54.2c-1.9,2.2-3.1,5.1-3.1,8.2c0,1.7,0.4,3.3,1,4.8c1.1,0,2.2,0.1,3.3,0.3c-1.6-2.1-2.6-4.8-2.6-7.7
		C99.2,57.9,99.7,56,100.6,54.2z"/>
	<path opacity="0.12" d="M100.6,54.2c-1.9,2.2-3.1,5.1-3.1,8.2c0,1.7,0.4,3.3,1,4.8c1.1,0,2.2,0.1,3.3,0.3c-1.6-2.1-2.6-4.8-2.6-7.7
		C99.2,57.9,99.7,56,100.6,54.2z"/>
	<path fill="#FFFFFF" d="M88.7,91.7c3.2,1.9,7.1,3.5,11.4,4.6c0.5,0.1,1.1,0.3,1.6,0.4c0.1-0.1,0.2-0.3,0.3-0.4
		c0.1-0.2,0.2-0.4,0.3-0.5c0.1-0.1,0.1-0.2,0.2-0.4c0.1-0.2,0.2-0.4,0.3-0.6c0.1-0.1,0.1-0.2,0.2-0.3c0.1-0.2,0.1-0.3,0.2-0.5
		c-0.4-0.1-0.9-0.2-1.3-0.3c-4.8-1.2-9.1-3.1-12.6-5.3C88.9,89.3,88.7,90.4,88.7,91.7z"/>
	<path opacity="0.12" d="M88.7,91.7c3.2,1.9,7.1,3.5,11.4,4.6c0.5,0.1,1.1,0.3,1.6,0.4c0.1-0.1,0.2-0.3,0.3-0.4
		c0.1-0.2,0.2-0.4,0.3-0.5c0.1-0.1,0.1-0.2,0.2-0.4c0.1-0.2,0.2-0.4,0.3-0.6c0.1-0.1,0.1-0.2,0.2-0.3c0.1-0.2,0.1-0.3,0.2-0.5
		c-0.4-0.1-0.9-0.2-1.3-0.3c-4.8-1.2-9.1-3.1-12.6-5.3C88.9,89.3,88.7,90.4,88.7,91.7z"/>
	<path fill="#FFFFFF" d="M85.4,97.2c-1.5-4.7-1-8.6,0.2-11.4c-4-3.4-6-7.3-5.1-10.8c0.1-0.2,0.1-0.5,0.2-0.7c-0.9,1-1.6,2-1.9,3.3
		c-0.9,3.5,1.1,7.4,5.1,10.8c-1.2,2.9-1.7,6.7-0.2,11.4c1.1,3.5,4.1,6.2,7.9,7.9c0,0,0,0,0,0c0.6-0.5,1.1-0.9,1.7-1.5
		c0,0,0.1-0.1,0.1-0.1c0.2-0.2,0.5-0.4,0.7-0.7C89.9,103.7,86.5,100.9,85.4,97.2z"/>
	<path opacity="0.12" d="M85.4,97.2c-1.5-4.7-1-8.6,0.2-11.4c-4-3.4-6-7.3-5.1-10.8c0.1-0.2,0.1-0.5,0.2-0.7c-0.9,1-1.6,2-1.9,3.3
		c-0.9,3.5,1.1,7.4,5.1,10.8c-1.2,2.9-1.7,6.7-0.2,11.4c1.1,3.5,4.1,6.2,7.9,7.9c0,0,0,0,0,0c0.6-0.5,1.1-0.9,1.7-1.5
		c0,0,0.1-0.1,0.1-0.1c0.2-0.2,0.5-0.4,0.7-0.7C89.9,103.7,86.5,100.9,85.4,97.2z"/>
	<path fill="#B6DFF2" d="M106.4,102.5c-2.9,0.6-6.2,0.4-9-0.4c-3.9-1.1-7.1-3.4-8-6.1c-0.5-1.6-0.7-3-0.7-4.2c0-1.3,0.2-2.4,0.4-3.3
		c-1.3-0.8-2.5-1.7-3.6-2.6c-1.2,2.9-1.7,6.7-0.2,11.4c1.2,3.8,4.6,6.6,8.7,8.2c0,0,0,0,0,0c4.2,1.6,9.1,2.1,13.2,1.2
		c6.4-1.4,10.4-5.7,11.3-11.9c-1.4,0.2-2.9,0.4-4.4,0.4C113.1,100.1,109.1,101.9,106.4,102.5z"/>
	<path fill="#7ECBEB" d="M116.5,71.7c-0.3,0.1-0.6,0.2-1,0.3l0.1,0c-6.2,3.4,0,9.9-5.2,10.2c-5.2,0.3-12.1-3.3-12.2-4.9
		c-0.1-1.6,2.9-3,4-5.6c1.1-2.6-0.1-3.7-0.1-3.7l0.2,0.1c-0.1-0.1-0.2-0.3-0.3-0.4c-1.1-0.1-2.2-0.2-3.3-0.3
		c-8.9-0.4-16,2.2-17.8,6.9c-0.1,0.2-0.2,0.5-0.2,0.7c-0.9,3.5,1.1,7.4,5.1,10.8c1.1,0.9,2.3,1.8,3.6,2.6c3.5,2.2,7.8,4.1,12.6,5.3
		c0.4,0.1,0.9,0.3,1.3,0.3c0,0,0,0,0,0c3.9,1,7.7,1.3,11.1,1.2c1.5,0,3-0.2,4.4-0.4c5.7-1,9.9-3.5,10.8-7.2
		C130.9,82.2,125.4,75.9,116.5,71.7z M90.9,87.6c-10.4-5.4-9.2-12-8.4-11.8c0.8,0.1,1.1,2.1,1.1,2.1c2.1,5.8,7,8,7.8,8.9
		C92.2,87.8,90.9,87.6,90.9,87.6z M124,90.9c-2.1,1.4-7.4,2.1-7.4,2.1c-2.3,0-0.7-1.1-0.7-1.1c7-0.5,8.1-2.7,8.1-2.7
		S126,89.5,124,90.9z"/>
	<path fill="#C9E7F5" d="M100.6,54.2c-0.9,1.7-1.4,3.6-1.4,5.7c0,2.9,1,5.5,2.6,7.7c0.1,0.1,0.2,0.3,0.3,0.4L102,68
		c0,0,1.2,1.1,0.1,3.7c-1.1,2.6-4.1,4-4,5.6c0.1,1.7,7,5.2,12.2,4.9c5.2-0.3-1-6.7,5.2-10.2l-0.1,0c0.3-0.1,0.7-0.2,1-0.3
		c4.7-1.8,8.1-6.4,8.1-11.8c0-7-5.7-12.7-12.7-12.7c-2.5,0-4.8,0.7-6.8,2C103.2,50.5,101.6,52.2,100.6,54.2z M121.2,63.6
		c0-0.7,1.5-2.6,1.8,0.1c0.3,2.7-6.2,6.2-8.7,7.1c-2.5,1-2.7,2.9-2.7,2.9c-1.7,0.5,0.3-3.3,4-4.8C119.3,67.4,121.2,64.3,121.2,63.6z
		 M109.7,49c4.1,0.4,5.2,3.4,1.6,6.9c-3.6,3.4-9.2,0-7.6-3.3C105.4,49.3,109.7,49,109.7,49z"/>
	<path fill="#C9E7F5" d="M83.6,77.9c0,0-0.3-1.9-1.1-2.1c-0.8-0.1-2.1,6.5,8.4,11.8c0,0,1.4,0.1,0.5-0.8
		C90.6,85.8,85.6,83.6,83.6,77.9z"/>
	<path fill="#FFFFFF" d="M103.8,52.6c-1.7,3.3,4,6.7,7.6,3.3c3.6-3.4,2.5-6.5-1.6-6.9C109.7,49,105.4,49.3,103.8,52.6z"/>
	<path fill="#FFFFFF" d="M111.6,73.7c0,0,0.3-1.9,2.7-2.9c2.5-1,8.9-4.4,8.7-7.1c-0.3-2.7-1.8-0.8-1.8-0.1s-1.9,3.9-5.6,5.4
		C111.9,70.4,110,74.3,111.6,73.7z"/>
	<path fill="#FFFFFF" d="M124,89.1c0,0-1.1,2.2-8.1,2.7c0,0-1.6,1.1,0.7,1.1c0,0,5.4-0.7,7.4-2.1C126,89.5,124,89.1,124,89.1z"/>
	<path fill="#FFFFFF" d="M58.2,19.1c3.3-2.2-1.1-3.6-3-1.9C55.2,17.1,54.9,21.3,58.2,19.1z"/>
	<path fill="#FFFFFF" d="M51.6,22c0,0,2.3-2.6-1.5-2.4c0,0-28.6,14-33.6,42.5c0,0-0.5,1.7,1.7,1C20.4,62.5,21.2,39.4,51.6,22z"/>
</g>
</svg>
