<?xml version="1.0" encoding="utf-8"?>
<!-- Generator: Adobe Illustrator 14.0.0, SVG Export Plug-In . SVG Version: 6.00 Build 43363)  -->
<!DOCTYPE svg PUBLIC "-//W3C//DTD SVG 1.1//EN" "http://www.w3.org/Graphics/SVG/1.1/DTD/svg11.dtd">
<svg xmlns="http://www.w3.org/2000/svg" xmlns:xlink="http://www.w3.org/1999/xlink" version="1.1" id="Layer_1" x="0px" y="0px" width="100px" height="100px" viewBox="0 0 100 100" enable-background="new 0 0 100 100" xml:space="preserve">









<g>
	<g>
		
			<image overflow="visible" opacity="0.25" width="55" height="48" xlink:href="36B9D6C0.png" transform="matrix(1 0 0 1 22.0347 5.6782)">
		</image>
		<g>
			<path fill="#7A7BB9" d="M41.331,28.053c0-0.328,0.063-0.655,0.135-0.983c0.063-0.521,0.256-0.983,0.458-1.441L41.331,28.053      M47.363,25.499c-0.193-0.588-0.261-1.248-0.193-1.903c2.159-0.987,4.061-0.723,5.7,0.853c1.117,1.113,1.383,2.293,0.789,3.541     c-1.111,2.558-2.951,3.474-5.64,2.688c-3.276-0.853-5.31-2.886-6.095-6.095c-0.202-0.856-0.395-1.772-0.458-2.629     c-1.252,0.135-2.495,0.655-3.806,1.58c-0.462,0.521-0.655,1.243-0.655,2.226c0,1.05,0.193,2.1,0.655,3.15     c0.328,0.588,0.723,1.113,1.05,1.706c1.374,2.033,3.15,3.671,5.309,4.914c2.033,0.983,4.326,1.512,6.889,1.512     c2.621,0,4.721-0.529,6.225-1.512c0.201-0.13,0.395-0.26,0.592-0.395c0.723-0.588,1.248-1.307,1.576-2.159     c0.588-1.117,0.852-2.558,0.852-4.2c0-1.378-0.264-2.621-0.852-3.604c-2.033-2.298-4.658-3.671-7.805-4.201     c-2.819-0.588-5.705-0.521-8.527,0.202c-0.458,2.033-0.261,3.865,0.723,5.637c1.117,1.898,2.692,3.016,4.721,3.343     c2.818,0.462,4.197-0.525,4.066-2.818c-0.062-1.248-0.654-2.163-1.836-2.751c-0.852-0.462-1.768-0.395-2.692,0.067l2.756,1.898     c0,0.063,0,0.063,0,0.13c0,0.063,0,0.063-0.064,0.13c0,0.067,0,0.067-0.066,0.13c-0.066,0.067-0.13,0.13-0.198,0.198     c-0.723,0.134-1.378,0-2.033-0.395C47.888,26.415,47.56,26.024,47.363,25.499z"/>
		</g>
	</g>
	<g>
		<g>
			<path fill="#7A7BB9" d="M35.102,28.448c-1.117,0-1.705,0.92-1.705,2.688c0,0.655,0.13,1.378,0.395,2.1     c-0.395,0.328-0.592,0.853-0.592,1.571c0,0.328,0.135,0.857,0.458,1.575c0.067,0.592,0.328,1.508,0.79,2.818     c0.786,2.297,1.769,4.461,3.016,6.494c3.608,6.099,8.329,9.114,14.165,9.114c3.213,0,5.834-1.637,7.736-4.981     c1.311-2.293,1.971-4.331,1.971-5.969c0.062-0.592,0-1.05-0.197-1.378c-0.068-0.458-0.266-0.853-0.594-1.05     c-0.197-0.979-0.785-1.441-1.768-1.441c-2.559,1.05-4.852,1.571-6.951,1.571c-5.44,0-9.64-2.033-12.661-6.032l-1.504-2.36     c-0.462-0.786-0.92-1.706-1.377-2.688C35.694,29.103,35.299,28.448,35.102,28.448"/>
		</g>
	</g>
	<g>
		<g>
			<radialGradient id="SVGID_5_" cx="47.0596" cy="31.9697" r="22.8622" gradientUnits="userSpaceOnUse">
				<stop offset="0" style="stop-color:#363636"/>
				<stop offset="0.3117" style="stop-color:#323232"/>
				<stop offset="0.5601" style="stop-color:#282828"/>
				<stop offset="0.7859" style="stop-color:#181818"/>
				<stop offset="0.9984" style="stop-color:#000000"/>
				<stop offset="1" style="stop-color:#000000"/>
			</radialGradient>
			<path fill="url(#SVGID_5_)" d="M44.216,36.449c0.391,0.13,0.786,0.265,1.181,0.395c6.033,1.248,11.214-0.462,15.474-5.116     c-0.328,0.391-0.654,0.786-0.982,1.181C55.756,38.024,50.51,39.201,44.216,36.449 M55.756,12.843     c6.232,3.801,7.674,9.11,4.199,15.865c-2.428,4.789-6.426,6.956-11.937,6.427c-8.195-0.979-11.803-5.637-10.883-14.029     c0.853-7.544,4.918-10.951,12.329-10.295C51.756,10.94,53.857,11.596,55.756,12.843z M30.906,30.48l0.193-0.26     c-0.458-1.243-0.722-2.495-0.916-3.738c-1.113-7.149,1.377-12.458,7.607-15.802c3.869-1.642,7.872-2.36,12-2.033     c10.098,0.718,15.016,5.637,14.688,14.886c0-3.281-1.18-6.167-3.473-8.657C57.398,11.07,52.938,9.302,47.56,9.63     c-8.59,0.26-13.181,4.721-13.706,13.374c-0.197,2.953,0.655,5.578,2.558,8.002c6.754,8.724,15.018,10.102,24.725,4.066     c-0.463,2.428-0.723,4.918-0.854,7.409c-0.328,7.02-3.607,11.605-9.707,13.707c-2.096,0.654-3.932,0.328-5.507-1.051     c-7.934-6.884-11.605-15.734-10.887-26.555h-1.503c-0.332,0.328-0.462,0.655-0.462,1.046c-0.462,4.528-0.13,8.985,0.983,13.445     c2.293,8.788,7.737,13.509,16.331,14.097c2.164,0.328,4-0.328,5.503-1.836c6.301-6.098,9.119-13.706,8.459-22.753     c2.037-2.885,3.213-6.166,3.676-9.904c0.197-2.226-0.266-4.259-1.379-6.162C61.334,9.496,54.643,6.219,45.792,6.74     c-10.69,0.723-16.852,5.969-18.625,15.806C26.314,27.204,27.562,29.893,30.906,30.48z"/>
		</g>
	</g>
	<radialGradient id="SVGID_6_" cx="47.6255" cy="76.2861" r="16.4149" gradientUnits="userSpaceOnUse">
		<stop offset="0" style="stop-color:#363636"/>
		<stop offset="0.3117" style="stop-color:#323232"/>
		<stop offset="0.5601" style="stop-color:#282828"/>
		<stop offset="0.7859" style="stop-color:#181818"/>
		<stop offset="0.9984" style="stop-color:#000000"/>
		<stop offset="1" style="stop-color:#000000"/>
	</radialGradient>
	<path fill="url(#SVGID_6_)" d="M37.92,80.256c0.067-0.982,0.265-2.033,0.588-3.084c0.723-2.033,1.907-3.016,3.608-3.016   c2.23,0,4.268,0.193,6.103,0.521c0.391,2.953,0.983,4.393,1.765,4.393c0.856,0,1.315-0.26,1.315-0.848   c0-0.857-0.068-1.84-0.131-2.891c1.639,0.463,3.016,1.117,4.26,1.908c2.691,1.764,4.066,3.797,4.066,6.094   c0.066,1.576-0.262,3.084-0.984,4.592c-1.377,2.949-3.932,4.393-7.602,4.393c-4.398,0-7.872-1.834-10.367-5.443   C38.777,84.316,37.92,82.154,37.92,80.256 M50.773,71.662c-0.328-2.689-0.525-4.982-0.525-6.947   c0.261-4.395-0.13-6.562-1.113-6.562c-0.982,0-1.512,2.168-1.512,6.562c0,0,0.134,2.422,0.327,7.207   c0,0.463,0.067,0.857,0.135,1.314c-1.117-0.131-2.361-0.197-3.608-0.197c-4.919,0-8.262,1.902-10.031,5.637   c-0.853,1.84-1.314,4.004-1.314,6.432c0,0.062,0.067,0.525,0.202,1.508c0.193,1.176,0.588,2.227,1.046,3.146   c1.508,3.082,4.003,4.658,7.342,4.658c0.396,0,0.79-0.135,1.248-0.463c-2.688-0.723-4.717-2.1-6.032-4.26   c-0.853-1.512-1.244-3.016-1.244-4.59c0.063-0.727,0.063-1.182,0.063-1.508l0.067,0.129c0.197,0.197,0.588,0.92,1.243,2.033   c0.786,1.248,1.643,2.357,2.625,3.281c3.083,2.881,7.212,4.326,12.391,4.326c4.133,0,7.02-1.576,8.656-4.721   c0.92-1.705,1.379-3.479,1.379-5.314c0-2.428-1.508-4.658-4.592-6.75c-1.898-1.252-4.066-2.234-6.49-2.822   C50.971,73.105,50.84,72.385,50.773,71.662z"/>
</g>
</svg>
