<?xml version="1.0" encoding="utf-8"?>
<!-- Generator: Adobe Illustrator 18.1.0, SVG Export Plug-In . SVG Version: 6.00 Build 0)  -->
<svg version="1.0" id="Layer_1" xmlns="http://www.w3.org/2000/svg" xmlns:xlink="http://www.w3.org/1999/xlink" x="0px" y="0px"
	 viewBox="0 0 150 150" enable-background="new 0 0 150 150" xml:space="preserve">
<g>
	<path d="M107.5,57.1l-21.3,9.7l0.7,1.6L85,67.9c0,0-0.1,0-0.2,0l-1.1-0.3c-0.3-0.1-0.6-0.1-0.9-0.1c-3-0.5-8.6-1-12.2,1.4
		c-0.4,0.3-0.7,0.5-1.1,0.7c-0.9-0.7-2.1-1-3.2-0.7l-4.7,1.2l-0.3-0.2l1.3-3l-21.3-9.4L41.6,83l11.6,5.2l1.3-2.9
		c0.6,0.9,1.3,1.7,2,2.4c-0.5,0.7-0.7,1.5-0.6,2.4c0.2,1.6,1.6,2.9,3.3,2.9c0.2,0,0.3,0,0.4-0.1c0.3,0,0.6-0.1,0.8-0.2
		c0,0.2,0,0.4,0,0.7c0.2,1.6,1.7,2.8,3.3,2.8c0.2,0,0.3,0,0.5,0c0.3,0,0.6-0.2,0.8-0.3c0,0.3,0,0.5,0,0.7c0.2,1.6,1.7,2.9,3.3,2.9
		c0.2,0,0.3,0,0.4,0c1-0.2,1.8-0.8,2.3-1.5l4.7,2.8c1.1,0.7,2.6,0.3,3.3-0.8c0.7-1.1,0.3-2.6-0.8-3.3l0,0c0.3,0,0.5-0.2,0.7-0.3
		l2.4,1.5c0.4,0.2,0.8,0.3,1.3,0.3c0.8,0,1.6-0.5,2.1-1.1c0.3-0.6,0.4-1.2,0.2-1.8c-0.2-0.6-0.6-1.2-1.1-1.5l-0.5-0.3
		c0.2-0.2,0.4-0.3,0.5-0.4l2.1,1.3c0.4,0.2,0.8,0.3,1.3,0.3c0.8,0,1.6-0.4,2.1-1.1c0.6-1.1,0.3-2.5-0.8-3.3l0.6-0.4l1,0.6
		c0.3,0.2,0.8,0.3,1.2,0.3c0.8,0,1.6-0.4,2.1-1.2c0.5-0.8,0.4-1.9-0.2-2.7c0.1-0.1,0.2-0.2,0.3-0.2l0.2-0.2c0.3-0.3,0.6-0.8,0.9-1.1
		l1.3,2.9l11.5-5.2L107.5,57.1z M92.1,84.9l-0.2,0.2c-0.2,0.2-0.3,0.4-0.5,0.5l-14.1-8.5c-0.3-0.2-0.5-0.4-0.8-0.5
		c-0.3-0.1-0.6-0.2-0.9-0.2h0c-0.2,0-0.2,0-0.3,0c-0.1,0-0.2,0-0.2,0c-0.3-0.1-0.6-0.1-0.8-0.1c-0.1,0-0.2,0-0.3,0
		c-0.3,0-0.5,0-0.7,0c0,0-0.1,0-0.2,0c-0.6,0-1,0.1-1.5,0.3c0,0-0.1,0-0.1,0c-0.2,0.1-0.4,0.2-0.6,0.2c0,0-0.1,0.1-0.2,0.1
		c-0.2,0.1-0.3,0.2-0.5,0.2c-0.2,0.1-0.5,0.2-0.7,0.4c-2.3,1.1-4.1,1.1-5.2,0.6c-0.2-0.1-0.5-0.2-0.6-0.4c0,0-0.1,0-0.2-0.1
		c0-0.1-0.1-0.1-0.1-0.2c-0.1-0.2-0.2-0.3-0.2-0.4c-0.1-0.2-0.8-2.6,0.3-2.8c0.7-0.1,4.4-1,7.6-3.1c0.4-0.3,0.8-0.5,1.3-0.7
		c0.2-0.1,0.4-0.2,0.7-0.3c0.3-0.1,0.5-0.2,0.8-0.2c0.2,0,0.5-0.1,0.7-0.2c0.3-0.1,0.6-0.1,0.9-0.2c0.2,0,0.4,0,0.6-0.1
		c0.5,0,1-0.1,1.4-0.1c0,0,0.1,0,0.1,0s0,0,0.1,0c1.8,0,3.6,0.2,4.9,0.4h0c1,0.1,1.6,0.3,1.8,0.3l3.5,0.9l0.1-0.1l5.5,12.3
		C93.2,83.7,92.7,84.3,92.1,84.9"/>
	<polygon fill="#566494" points="74.5,3.1 47.7,18.6 109.5,54.2 109.5,90 109.5,90 109.5,91.8 76.8,110.6 103.7,126.2 129.6,111.2 
		136.4,107.3 136.4,99.6 136.4,90 136.4,56.1 136.4,46.6 136.4,38.8 129.6,35 	"/>
	<polygon points="39.7,56.1 39.7,56.1 39.7,54.3 72.4,35.5 45.5,20 19.5,35 12.8,38.8 12.8,46.6 12.8,56.1 12.8,90 12.8,99.6 
		12.8,107.3 19.5,111.2 74.8,143 101.5,127.5 39.7,91.9 	"/>
</g>
</svg>
