<?xml version="1.0" encoding="utf-8"?>
<!-- Generator: Adobe Illustrator 18.1.0, SVG Export Plug-In . SVG Version: 6.00 Build 0)  -->
<svg version="1.0" id="Layer_1" xmlns="http://www.w3.org/2000/svg" xmlns:xlink="http://www.w3.org/1999/xlink" x="0px" y="0px"
	 viewBox="0 0 150 150" enable-background="new 0 0 150 150" xml:space="preserve">
<path fill="#CA92C1" d="M160.8,246.4c-0.2-0.7-0.9-1.2-1.7-1c-0.7,0.2-1.1,0.8-1,1.5c0-0.6,0.4-1.1,1-1.2c0.7-0.2,1.3,0.2,1.5,0.9
	c0.1,0.6-0.1,1.1-0.6,1.4C160.6,247.7,161,247.1,160.8,246.4"/>
<path fill="#C64D9B" d="M159.8,248.5c-0.9,0.2-1.8-0.3-2-1.1c-0.2-0.8,0.2-1.6,0.9-2c-0.6,0.3-0.9,1-0.7,1.7c0.2,0.8,1.1,1.3,1.8,1
	c0.7-0.2,1.1-0.8,1.1-1.5C161.1,247.5,160.6,248.3,159.8,248.5"/>
<g>
	<path fill="#0697CC" d="M159.8,247.2L159.8,247.2C159.8,247.2,159.8,247.2,159.8,247.2z"/>
	<path fill="#0697CC" d="M159.7,246.9C159.7,246.9,159.7,246.9,159.7,246.9C159.7,246.9,159.7,246.9,159.7,246.9z"/>
	<path fill="#C64D9B" d="M159.8,247.2c0.3-0.1,0.4-0.4,0.4-0.4s-0.2,0-0.5,0c0,0,0,0,0,0c0,0,0,0,0,0c0-0.1,0.1-0.2,0.1-0.2
		s-0.1,0-0.1,0c0,0,0,0,0,0c0,0,0,0,0,0c0.1-0.3,0-0.6,0-0.6s-0.1,0-0.1,0.1c0-0.2-0.1-0.3-0.1-0.3s-0.4,0.5-0.4,1
		c0,0,0-0.1-0.1-0.1c0-0.1-0.1-0.1-0.3,0c-0.1,0-0.2,0.1-0.3,0.1c0.2,0,0.6,0.2,0.7,0.4c0,0,0,0,0,0c0,0.2-0.1,0.4-0.3,0.4
		c0.2,0,0.4-0.2,0.4-0.4c0,0,0,0,0-0.1c0,0,0-0.1,0-0.1C159.4,247.3,159.6,247.3,159.8,247.2C159.8,247.3,159.8,247.2,159.8,247.2
		L159.8,247.2"/>
</g>
<g>
	<g>
		<path fill="#808481" d="M28.5,26.2C7.1,47.1,2.4,78.7,14.6,104.3c-9.6-24.9,0-54.7,18.8-73.1c24.2-23.7,63-23.2,86.7,1
			c23.7,24.2,23.3,63-1,86.7c-19.4,19-48.8,28.4-73.5,17.2c25.3,12.7,57,8.7,78.4-12.2c27-26.4,27.4-69.6,1.1-96.5
			C98.7,0.3,55.5-0.2,28.5,26.2"/>
	</g>
	<g>
		<path fill="#F6A9B8" d="M95.6,75.2c-0.1,0.5-0.2,1-0.3,1.5c12.1-24.9-11.2-47-11.2-47s-1.4,3.2-3,7.8C89.7,45.6,98.2,58,95.6,75.2
			"/>
		<path fill="#F6A9B8" d="M81.9,78.6c-1.9-0.4-3.6-1.2-5.1-2.4c-23.8,1.2-25.3,26.4-25.3,26.4s2.1,0,5.4-0.5
			C58.7,92.9,64.7,82.4,81.9,78.6"/>
		<path fill="#EE849C" d="M95.4,76.7c0.1-0.5,0.2-1,0.3-1.5c2.5-17.2-5.9-29.6-14.4-37.6C73.7,30.5,66.1,27,66.1,27
			s-3.3,38.6,10.7,49.2c1.5,1.1,3.2,2,5.1,2.4c-17.1,3.9-23.2,14.3-25,23.6c-1.8,9,0.4,16.9,0.4,16.9S89.8,108,95.4,76.7"/>
	</g>
</g>
</svg>
