<?xml version="1.0" encoding="utf-8"?>
<!-- Generator: Adobe Illustrator 18.1.0, SVG Export Plug-In . SVG Version: 6.00 Build 0)  -->
<svg version="1.0" id="Layer_1" xmlns="http://www.w3.org/2000/svg" xmlns:xlink="http://www.w3.org/1999/xlink" x="0px" y="0px"
	 viewBox="0 0 150 150" enable-background="new 0 0 150 150" xml:space="preserve">
<g>
	<path fill="none" d="M43.5,61.2c-4,6.7-3.9,11.5-2.9,15.4c-0.6-6,1.1-10.7,2.8-13.9c0.2-0.9,0.5-1.8,0.8-2.8L43.5,61.2z"/>
	<path fill="none" d="M107.4,75.8c1-3.9,1.1-8.6-2.9-15.4l-0.6-1c0.4,1,0.7,2,0.9,3C106.4,65.6,108,70.2,107.4,75.8z"/>
	<path fill="none" d="M104.3,80.6C104.2,80.6,104.2,80.6,104.3,80.6c-0.1,0-0.1,0-0.1,0.1C104.2,80.7,104.2,80.7,104.3,80.6z"/>
	<g>
		<path fill="#A97A4E" d="M90,97.9c6.1,0.5,12.9-2.1,18.2-5.5c14.8-9.5,21.8-10.5,32.3-7.8c-1.7-1.1-15.1-6.9-30.1,4.6
			c-4.8,3.6-12.8,6.6-18.1,7.2C91.5,97,90.7,97.5,90,97.9z"/>
		<path fill="#A97A4E" d="M40.2,92.2c5.2,3.3,11.8,5.9,17.8,5.5c-0.8-0.5-1.6-1-2.3-1.5c-5.3-0.7-13-3.6-17.7-7.2
			C23,77.5,9.6,83.3,7.9,84.5C18.5,81.7,25.4,82.8,40.2,92.2z"/>
		<path fill="#A97A4E" d="M47.1,102.6C36.8,98.4,28,86.8,17.5,85.9c-4.9-0.5-10.1,0.6-13.1,4.5c-0.6,0.8-1.3,2.3-1.6,4.1
			c-0.4,2.2,0.2,4.5,1.6,6.2c0,0.1,0.1,0.1,0.1,0.2c0,0,0,0,0-0.1c0.7,0.9,1.6,1.6,2.7,2.1c2.4,1.1,5.6,0.6,7-1.9
			c1.7-1.8,0.5-6.7-3.2-6c-1.9,0.4-2.5,2-2.2,3.1c0.3,1.3,2,2.3,2.8,2.3c-1.1-2.1,1.1-4.4,2.3-2.2c0.8,1.9-0.9,3.8-2.6,4.4
			c-2.8,0.9-5.6-0.8-6.9-3.3C4,98.6,3.7,97.8,3.5,97c-0.2-3.1,1.3-5.7,2.5-6.8c1.7-1.5,3.6-2.4,5.6-2.8c0.3,0,0.6-0.1,0.9-0.1
			c0.8-0.1,1.5-0.1,2.2-0.1c5.4,0.2,11.2,3.3,15.8,7.9c5.9,6,10.2,8.8,16.8,11c2.3,0.7,12.6,3.3,20.8-4.4c-0.4-0.1-0.8-0.2-1.2-0.2
			C58.5,107.2,48.9,103.4,47.1,102.6z"/>
		<path fill="#A97A4E" d="M145.6,94.4c-0.2-1.8-1-3.3-1.6-4.1c-3-3.9-8.2-4.9-13.1-4.5c-10.5,1-19.3,12.5-29.6,16.7
			c-1.8,0.7-11.3,4.6-19.9-1.2c-0.4,0.1-0.8,0.2-1.2,0.3c8.2,7.7,18.5,5.2,20.8,4.4c6.6-2.2,10.9-5,16.8-11
			c4.6-4.6,10.4-7.7,15.8-7.9c0.7,0,1.5,0.1,2.2,0.1c0.3,0,0.6,0.1,0.9,0.1c2,0.4,4,1.3,5.7,2.8c1.2,1.1,2.6,3.7,2.5,6.8
			c-0.2,0.8-0.4,1.6-0.8,2.4c-1.4,2.5-4.1,4.1-6.9,3.3c-1.7-0.6-3.4-2.4-2.6-4.4c1.2-2.2,3.4,0,2.3,2.2c0.9,0,2.5-1,2.8-2.3
			c0.3-1.1-0.3-2.7-2.2-3.1c-3.7-0.7-4.9,4.1-3.2,6c1.4,2.5,4.5,3,7,1.9c1.1-0.5,1.9-1.2,2.7-2.1c0,0,0,0,0,0.1
			c0-0.1,0.1-0.1,0.1-0.2C145.3,98.9,146,96.6,145.6,94.4z"/>
		<path fill="#A97A4E" d="M107.3,57.6c1.5,1.6,3.3,3.2,5.1,4.4c5.1,3.4,11.4,4.7,16.7,0.3c2.8-2.4,4.6-6.8,3.6-10.6
			c-2.7-8.1-15.9-1.1-12.3,6.5c0.7,1.5,3.3,3.4,6,1c-2.8,2.1-4.9,0.5-5.5-1.2c-0.9-2.4,0-4.9,1.4-6.4c1.1-1.2,2.6-2,4.2-2.4
			c2.6-0.7,5.4,0.9,5.9,3.8c0.1,0.8,0.1,1.6,0,2.3c-0.8,4.7-4.7,7.9-8.8,8.6c-6.2,1.1-10.5-3.6-14.8-7.7C103.4,51,99,46.2,92.9,42.7
			c-3-1.7-5.6-2.5-8.7-2.4c0.1,0,0.1,0,0.2,0.1C93,40.7,99.3,49.3,107.3,57.6z"/>
		<path fill="#A97A4E" d="M139.7,70.1c1.2,0.3,2.4-0.4,2.7-1.5c0.3-1.2-0.4-2.4-1.5-2.7c-1.2-0.3-2.4,0.3-2.7,1.5
			C137.9,68.6,138.5,69.8,139.7,70.1z"/>
		<path fill="#A97A4E" d="M131.8,69.7c-0.3,1,0.3,2,1.2,2.2c1,0.3,2-0.3,2.2-1.2c0.3-1-0.3-1.9-1.2-2.2
			C133.1,68.2,132.1,68.8,131.8,69.7z"/>
		<circle fill="#A97A4E" cx="127.7" cy="70.8" r="1.5"/>
		<path fill="#A97A4E" d="M124,70.1c0.2-0.7-0.2-1.4-0.9-1.6c-0.7-0.2-1.4,0.2-1.6,0.9c-0.2,0.7,0.2,1.4,0.9,1.6
			C123.1,71.2,123.8,70.8,124,70.1z"/>
		<circle fill="#A97A4E" cx="118.5" cy="67.9" r="1"/>
		<circle fill="#A97A4E" cx="115.2" cy="66" r="0.8"/>
		<circle fill="#A97A4E" cx="112.3" cy="64.2" r="0.7"/>
		<circle fill="#A97A4E" cx="109.8" cy="62.4" r="0.6"/>
		<circle fill="#A97A4E" cx="107.6" cy="60.4" r="0.5"/>
		<path fill="#A97A4E" d="M106.2,58.6c0.1-0.2-0.1-0.4-0.3-0.5c-0.2-0.1-0.4,0.1-0.5,0.3c-0.1,0.2,0.1,0.4,0.3,0.5
			C105.9,58.9,106.1,58.8,106.2,58.6z"/>
		<circle fill="#A97A4E" cx="104.1" cy="56.8" r="0.3"/>
		<circle fill="#A97A4E" cx="102.7" cy="55.2" r="0.3"/>
		<circle fill="#A97A4E" cx="101.5" cy="53.7" r="0.3"/>
		<path fill="#A97A4E" d="M99.9,52c0.1,0.1,0.2,0.2,0.2,0.3c0.1,0,0.2-0.1,0.3-0.2c0-0.1,0-0.3-0.2-0.3C100.1,51.8,100,51.9,99.9,52
			z"/>
		<path fill="#A97A4E" d="M98.6,50.3c0.1,0.1,0.2,0.3,0.3,0.4c0.1,0,0.1-0.1,0.2-0.2c0-0.1,0-0.3-0.2-0.3
			C98.8,50.1,98.7,50.2,98.6,50.3z"/>
		<path fill="#A97A4E" d="M103.2,83.2c0.6,1.9,3,4.1,5.1,5.5c-3.8-4.9,4-8.5,3.3-12.1c0.5-0.9,2.6-0.1,0.5-3c-1-1.4-0.3-1.6-0.3-1.6
			c6.2-0.4-5.2-11-8.3-13.6c0.1,0.3,0.3,0.6,0.4,1l0.6,1c4,6.7,3.9,11.5,2.9,15.4c0.6-5.7-0.9-10.2-2.6-13.4c0.7,2.6,1,5.2,1,8
			c0,3.6-0.6,7-1.7,10.2c0,0,0.1,0,0.1,0c0,0-0.1,0-0.1,0.1C103.9,81.6,103.5,82.4,103.2,83.2z"/>
		<path fill="#A97A4E" d="M123.5,75.6c3.6-1.2,3.3-0.3,4.4,0.5c-3.4-5.8-7.1-2.4-11.3-6.2C116.3,70.2,119.9,76.8,123.5,75.6z"/>
		<path fill="#A97A4E" d="M18.9,63.1c5.3,4.4,11.6,3.1,16.7-0.3c1.8-1.3,3.5-2.8,5.1-4.4c7.3-7.5,13.2-15.3,20.6-16.9
			c0.2-0.1,0.5-0.2,0.7-0.3c-2.3,0.2-4.5,1-6.9,2.3c-6.1,3.5-10.5,8.3-15.9,13.6c-4.3,4.2-8.5,8.9-14.8,7.7c-4-0.7-7.9-3.9-8.8-8.6
			c-0.1-0.8-0.1-1.6,0-2.3c0.5-2.9,3.3-4.5,5.9-3.8c1.5,0.4,3.1,1.2,4.2,2.4c1.5,1.6,2.3,4,1.4,6.4c-0.6,1.6-2.6,3.2-5.5,1.2
			c2.7,2.4,5.2,0.5,6-1c3.7-7.6-9.6-14.7-12.3-6.5C14.3,56.3,16.1,60.6,18.9,63.1z"/>
		<path fill="#A97A4E" d="M8.3,70.9c1.2-0.3,1.8-1.5,1.5-2.7c-0.3-1.2-1.5-1.8-2.7-1.5c-1.2,0.3-1.8,1.5-1.5,2.7
			C5.9,70.6,7.1,71.2,8.3,70.9z"/>
		<path fill="#A97A4E" d="M14.9,72.7c1-0.3,1.5-1.3,1.2-2.2c-0.3-1-1.3-1.5-2.2-1.2c-1,0.3-1.5,1.3-1.2,2.2
			C12.9,72.4,13.9,73,14.9,72.7z"/>
		<circle fill="#A97A4E" cx="20.3" cy="71.6" r="1.5"/>
		<circle fill="#A97A4E" cx="25.2" cy="70.5" r="1.3"/>
		<circle fill="#A97A4E" cx="29.4" cy="68.6" r="1"/>
		<path fill="#A97A4E" d="M33,67.6c0.4-0.1,0.6-0.5,0.5-0.9c-0.1-0.4-0.5-0.6-0.9-0.5c-0.4,0.1-0.6,0.5-0.5,0.9
			C32.1,67.4,32.6,67.7,33,67.6z"/>
		<circle fill="#A97A4E" cx="35.7" cy="65" r="0.7"/>
		<path fill="#A97A4E" d="M38.3,63.8c0.3-0.1,0.5-0.4,0.4-0.8c-0.1-0.3-0.4-0.5-0.8-0.4c-0.3,0.1-0.5,0.4-0.4,0.8
			C37.6,63.7,37.9,63.9,38.3,63.8z"/>
		<circle fill="#A97A4E" cx="40.3" cy="61.2" r="0.5"/>
		<circle fill="#A97A4E" cx="42.1" cy="59.2" r="0.4"/>
		<path fill="#A97A4E" d="M43.9,57.9c0.2,0,0.3-0.2,0.2-0.4c0-0.2-0.2-0.3-0.4-0.2c-0.2,0-0.3,0.2-0.2,0.4
			C43.6,57.8,43.7,57.9,43.9,57.9z"/>
		<circle fill="#A97A4E" cx="45.2" cy="56" r="0.3"/>
		<path fill="#A97A4E" d="M46.7,54.6L46.7,54.6c0-0.1,0-0.1,0-0.2c0-0.1-0.2-0.2-0.3-0.2c-0.1,0-0.2,0.2-0.2,0.3
			c0,0.1,0.2,0.2,0.3,0.2C46.6,54.7,46.6,54.7,46.7,54.6z"/>
		<path fill="#A97A4E" d="M47.9,52.7c-0.1,0-0.1-0.1-0.2,0c-0.1,0-0.2,0.2-0.2,0.3c0,0.1,0.1,0.1,0.1,0.1
			C47.7,53,47.8,52.8,47.9,52.7z"/>
		<path fill="#A97A4E" d="M49.1,50.9c-0.1,0-0.2,0.2-0.2,0.3c0,0,0,0,0,0C49,51.2,49.1,51.1,49.1,50.9
			C49.1,50.9,49.1,50.9,49.1,50.9z"/>
		<path fill="#A97A4E" d="M36.2,72.8c0,0,0.7,0.2-0.3,1.6c-2.1,2.9,0.1,2.1,0.5,3c-0.6,3.5,7.1,7.2,3.3,12.1c3.2-2.1,7.3-6.4,4-8
			c0.2,0,0.4,0,0.7,0c-1.3-3.4-2-7.1-2-11c0-2.7,0.3-5.3,1-7.8c-1.7,3.2-3.5,7.9-2.8,13.9c-1-3.9-1.1-8.6,2.9-15.4l0.8-1.3
			c0.1-0.2,0.2-0.5,0.3-0.7C41.5,61.7,29.9,72.4,36.2,72.8z"/>
		<path fill="#A97A4E" d="M20.1,76.9c1.1-0.8,0.9-1.7,4.4-0.5c3.6,1.2,7.1-5.4,6.9-5.7C27.2,74.5,23.4,71.1,20.1,76.9z"/>
		<polygon fill="#A97A4E" points="65.1,84.1 65.6,83.9 66.4,83.9 65.8,83.4 65.3,83.1 64.7,83 64.2,83.1 63.8,83.3 63.5,83.7 
			63.4,84.3 63.5,85.1 64.2,86.3 65,87.3 66,88.1 67.3,88.8 68.6,89.2 69.5,89.4 70.1,89.6 71.5,89.7 71.7,89.7 73.3,89.8 
			74.9,89.8 76.5,89.6 76.7,89.6 78.1,89.4 78.7,89.2 79.5,89 80.8,88.6 82,88.2 83,87.8 83.7,87.3 84.2,86.7 84.3,86.1 84.2,85.5 
			84,84.9 83.7,84.3 83.4,83.9 83.1,83.6 83.1,83.5 82.4,84.1 81.6,84.7 80.8,85.2 80,85.6 79,85.9 78.1,86.2 77.4,86.3 77.1,86.3 
			76,86.4 75.6,86.4 75,86.5 74,86.5 72.9,86.5 71.9,86.4 70.9,86.3 69.9,86.2 68.9,86.2 68,86 66.7,85.8 65.7,85.5 65.1,85.1 
			64.8,84.8 64.8,84.4 		"/>
		<polygon fill="#A97A4E" points="68.5,81.5 67.4,81.3 66.7,81 66.2,80.8 65.9,80.4 65.9,80.2 66.2,79.9 66.6,79.8 67.2,79.7 
			66.8,79.3 66.3,79.1 65.8,79 65.4,79.1 65.1,79.3 64.9,79.6 64.8,80.1 64.9,80.7 65.4,81.6 66,82.4 66.9,83.1 67.9,83.6 69,84 
			70.2,84.3 71.5,84.4 72.7,84.5 74,84.4 75.3,84.3 76.5,84.1 77.7,83.9 78.7,83.6 79.7,83.3 80.4,82.9 81,82.5 81.4,82 81.5,81.6 
			81.5,81 81.3,80.5 81,80.1 80.8,79.7 80.6,79.5 80.5,79.4 80,80 79.4,80.4 78.7,80.8 78,81.1 77.3,81.4 76.5,81.6 75.7,81.7 
			74.9,81.8 74.1,81.8 73.3,81.8 72.4,81.8 71.6,81.8 70.8,81.7 70,81.6 69.2,81.6 		"/>
		<polygon fill="#A97A4E" points="80.7,93.9 81.5,93.6 82,93.2 82.1,93.2 82.5,92.7 82.6,92.2 82.5,91.7 82.3,91.2 82.1,90.8 
			81.8,90.4 81.6,90.1 81.5,90.1 81,90.6 80.4,91.1 80.1,91.3 79.7,91.5 79,91.8 78.5,92 78.3,92.1 77.5,92.3 76.7,92.4 75.9,92.5 
			75.1,92.5 74.3,92.5 73.5,92.5 72.6,92.5 71.8,92.4 71,92.3 70.2,92.2 69.5,92.1 69.5,92.1 68.4,92 67.7,91.7 67.7,91.7 
			67.2,91.4 66.9,91.1 66.9,90.9 67.2,90.6 67.6,90.5 68.2,90.4 67.8,90 67.3,89.7 66.9,89.7 66.5,89.7 66.1,89.9 65.9,90.3 
			65.8,90.7 65.9,91.3 66.4,92.3 66.7,92.7 67.1,93.2 67.8,93.7 67.9,93.8 68.9,94.3 70,94.7 71.2,95 72.5,95.1 73,95.1 73,95.1 
			73.8,95.2 75,95.1 75.3,95.1 75.4,95.1 76.3,95 77.6,94.8 78.7,94.6 79.8,94.3 80.6,94 		"/>
		<polygon fill="#A97A4E" points="61.4,55.8 61.2,55.9 61,56.1 60.8,56.3 60.7,56.6 60.6,56.9 60.6,57.1 60.6,57.4 60.7,57.7 
			60.8,57.9 61,58.1 61.2,58.3 61.4,58.4 61.7,58.5 62,58.5 62.3,58.5 62.5,58.4 62.7,58.3 63,58.1 63.1,57.9 63.3,57.7 63.3,57.4 
			63.4,57.1 63.3,56.9 63.3,56.6 63.1,56.3 63,56.1 62.7,55.9 62.5,55.8 62.3,55.7 62,55.7 61.7,55.7 		"/>
		<polygon fill="#A97A4E" points="82.5,57.7 82.6,57.9 82.8,58.1 83,58.3 83.2,58.4 83.5,58.5 83.8,58.5 84.1,58.5 84.3,58.4 
			84.6,58.3 84.8,58.1 85,57.9 85.1,57.7 85.2,57.4 85.2,57.1 85.2,56.9 85.1,56.6 85,56.3 84.8,56.1 84.6,55.9 84.3,55.8 
			84.1,55.7 83.8,55.7 83.5,55.7 83.2,55.8 83,55.9 82.8,56.1 82.6,56.3 82.5,56.6 82.4,56.9 82.3,57.1 82.4,57.4 		"/>
		<polygon fill="#A97A4E" points="61.6,63.8 61,63.6 60.6,63.5 58.5,63.2 56.6,63.2 54.8,63.4 53.3,63.8 51.8,64.4 50.5,65.2 
			49.4,66.2 48.5,67.2 48,67.9 47.7,68.4 47.6,68.7 47.1,69.7 46.7,71.1 46.7,71.1 46.5,72.4 46.5,73.8 46.7,75.2 47.1,76.5 
			47.4,77.2 47.7,77.8 48.3,78.7 48.9,79.5 49.6,80 50.4,80.4 50.5,80.5 51.2,80.7 52,80.8 52.8,80.8 53.5,80.8 53.6,80.8 
			54.4,80.6 55.1,80.4 55.8,80.1 56.4,79.8 56.9,79.4 57.3,79.1 57.7,78.7 57.9,78.4 57.5,78.6 56.9,78.7 56.3,78.6 55.6,78.5 
			54.8,78.1 54.8,78.1 54.1,77.7 53.3,77.3 52.7,76.7 52.1,76.1 51.7,75.4 51.5,74.6 51.5,73.9 51.5,73.8 51.6,73.1 52.1,72.3 
			52.2,72.2 52.8,71.6 52.9,71.5 54,70.8 55.3,70.2 56.6,70 57.9,70.1 58.2,70.2 59.1,70.4 59.3,70.5 60.3,71 61.5,71.7 62.6,72.5 
			63.7,73.5 64.6,74.4 65.5,75.4 66.2,76.4 66.9,77.3 67.4,78 67.8,78.6 68,79 68.1,79.1 68.5,78.7 68.8,78.2 69.2,77.4 69.4,76.5 
			69.6,75.4 69.6,74.2 69.6,73 69.4,71.7 69,70.4 68.5,69.2 67.8,67.9 66.9,66.8 65.7,65.7 64.3,64.8 62.6,64.1 		"/>
		<polygon fill="#A97A4E" points="77.8,75.2 78,76.3 78.3,77.2 78.6,77.9 79,78.5 79.4,78.8 79.4,78.7 79.6,78.3 80,77.7 80.5,76.9 
			81.1,76 81.8,75 82.7,74 83.5,73 84.6,72 85.6,71.1 86.7,70.3 87.9,69.7 88.4,69.6 89.2,69.3 89.6,69.3 90.5,69.2 91.8,69.3 
			93.1,69.8 94.3,70.5 94.7,70.9 95.1,71.3 95.3,71.5 95.6,72 95.8,72.8 95.8,73.1 95.8,73.5 95.6,74.3 95.2,75 94.7,75.6 94,76.3 
			93.3,76.8 92.7,77.2 92.6,77.3 91.9,77.6 91.2,77.8 90.5,77.9 90,77.8 89.6,77.6 89.8,77.9 90.1,78.3 90.6,78.6 91.1,78.9 
			91.7,79.2 92.4,79.5 93.2,79.7 94,79.8 94.5,79.8 94.8,79.8 95.6,79.8 96.4,79.6 97.1,79.3 97.3,79.2 97.9,78.9 98.6,78.3 
			99.2,77.5 99.8,76.6 100,75.9 100.3,75.2 100.6,73.9 100.7,72.5 100.6,71.4 100.6,71.1 100.3,69.8 100,68.7 99.9,68.4 99.6,67.8 
			99.2,67.2 98.4,66 97.4,65 96.3,64.1 95,63.4 93.5,62.8 91.9,62.5 90.1,62.4 88.2,62.5 86.9,62.7 86.4,62.8 86.1,62.9 84.2,63.5 
			82.5,64.4 81.2,65.3 80,66.4 79.2,67.6 78.5,68.9 78.1,70.2 77.8,71.5 77.6,72.8 77.7,74 		"/>
	</g>
	<g>
		<path fill="#8C6339" d="M104.8,62.4c-0.3-1-0.6-2-0.9-3c-0.1-0.3-0.3-0.7-0.4-1c-0.9-2.2-2-4.2-3.3-6.1c-0.1-0.1-0.2-0.2-0.2-0.3
			c-0.3-0.5-0.7-0.9-1-1.4c-0.1-0.1-0.2-0.3-0.3-0.4c-3.7-4.5-8.6-7.9-14.2-9.8c-0.1,0-0.1,0-0.2-0.1c-3.2-1.1-6.5-1.6-10-1.6
			c-4.3,0-8.4,0.9-12.2,2.4c-0.2,0.1-0.5,0.2-0.7,0.3c-4.8,2.1-8.9,5.4-12.1,9.5c-0.1,0.1-0.2,0.2-0.3,0.3c-0.3,0.4-0.7,0.9-1,1.4
			c-0.1,0.1-0.2,0.3-0.3,0.4c-0.3,0.5-0.6,1-0.9,1.5h0c-0.8,1.5-1.6,3-2.2,4.6c-0.1,0.2-0.2,0.5-0.3,0.7c-0.3,0.9-0.6,1.8-0.8,2.8
			c-0.6,2.5-1,5.1-1,7.8c0,3.9,0.7,7.6,2,11c2.2,6,6.2,11.2,11.4,14.8c0.7,0.5,1.5,1,2.3,1.5c2.8,1.6,5.8,2.9,9,3.6
			c0.4,0.1,0.8,0.2,1.2,0.2c1.9,0.4,3.9,0.6,5.9,0.6c2.1,0,4.1-0.2,6-0.6c0.4-0.1,0.8-0.2,1.2-0.3c3.1-0.7,6-1.9,8.6-3.4
			c0.8-0.4,1.5-0.9,2.2-1.4c4.8-3.3,8.6-7.9,11-13.3c0.4-0.8,0.7-1.7,1-2.5c0,0,0,0,0-0.1c1.1-3.2,1.7-6.6,1.7-10.2
			C105.9,67.7,105.5,65,104.8,62.4z M101.4,79.7c-0.8,2.3-1.8,4.5-3.1,6.5c-0.5,0.8-1.1,1.6-1.7,2.3c-2.5,3.2-5.7,5.8-9.4,7.6
			c-0.6,0.3-1.2,0.6-1.8,0.8c-2.2,0.9-4.6,1.6-7,2c-0.2,0-0.4,0.1-0.6,0.1c-1.2,0.2-2.4,0.2-3.7,0.2c-1.2,0-2.4-0.1-3.6-0.2
			c-0.2,0-0.4,0-0.6-0.1c-2.6-0.4-5-1.1-7.3-2.1c-0.6-0.3-1.2-0.6-1.8-0.9c-3.6-1.9-6.8-4.5-9.3-7.7c-0.8-1-1.6-2.1-2.3-3.3
			c-1-1.7-1.8-3.5-2.4-5.4c-1-2.9-1.5-5.9-1.5-9.1c0-0.8,0-1.6,0.1-2.4c0.2-1.9,0.5-3.7,1-5.4c0.4-1.5,1-3,1.6-4.4
			c1.6-3.4,3.9-6.5,6.7-9c1.1-1,2.4-2,3.6-2.8c0.6-0.4,1.3-0.8,1.9-1.2c0.6-0.3,1.2-0.6,1.9-0.9c0.8-0.4,1.6-0.7,2.4-1c0,0,0,0,0,0
			c3-1.1,6.2-1.6,9.6-1.6c5.1,0,9.9,1.3,14,3.7c0.6,0.3,1.2,0.7,1.7,1.1c4.2,2.8,7.7,6.7,10,11.3c0.6,1.2,1.1,2.5,1.6,3.8
			c0.6,1.7,1,3.4,1.2,5.2c0.2,1.3,0.3,2.5,0.3,3.8C102.9,73.7,102.4,76.8,101.4,79.7z"/>
		<circle fill="#8C6339" cx="73.7" cy="32.4" r="3.5"/>
		<circle fill="#8C6339" cx="65.2" cy="34.7" r="2.3"/>
		<circle fill="#8C6339" cx="58.4" cy="37.4" r="1.7"/>
		<circle fill="#8C6339" cx="82.1" cy="34.7" r="2.3"/>
		<circle fill="#8C6339" cx="88.9" cy="37.4" r="1.7"/>
		<polygon fill="#8C6339" points="67,57.5 73.7,79 79.1,57.5 72.7,42.1 		"/>
	</g>
</g>
</svg>
