<?xml version="1.0" encoding="utf-8"?>
<!-- Generator: Adobe Illustrator 18.1.0, SVG Export Plug-In . SVG Version: 6.00 Build 0)  -->
<svg version="1.1" id="Layer_1" xmlns="http://www.w3.org/2000/svg" xmlns:xlink="http://www.w3.org/1999/xlink" x="0px" y="0px"
	 viewBox="0 0 150 150" enable-background="new 0 0 150 150" xml:space="preserve">
<g>
	<path fill="#70655C" d="M79,29h9V9h-9v5.1v6.2V29z M80,13h7v2h-7V13z M80,25h6v2h-6V25z"/>
	<polygon fill="#766B65" points="19,127.1 19.4,134.3 22.3,127.5 23.1,125 19.6,125 	"/>
	<polygon fill="#70655C" points="18,120 18,125 19.6,125 23.1,125 27,125 27,120 24.5,120 20.9,120 	"/>
	<path fill="#766B65" d="M49.8,36.3l1.4-0.6l-0.6,62.8c0.3-0.3,0.6-0.6,0.9-0.9l0.9-56.4L66.7,89c0.8-0.2,1.5-0.5,2.3-0.7L52.8,35
		H55l14.6,53.1c0.4-0.1,0.8-0.3,1.2-0.4L56.6,34H60v-8h13v-6h6v-6h-6v-3h-8.5C63,8,57.4,5.9,50.8,5.9C44.2,5.9,38.7,8,37.1,11H35v15
		h3v8h5.8l-22.9,86h3.6L48,41.7l-0.7,61c0.9-1.3,1.8-2.5,2.9-3.7L49.8,36.3z M36,13h35v3H36V13z M58,33h-6v-7h6V33z M23.9,118.7
		l-1.1,0.3l23.4-83.2l2.5,0.3L23.9,118.7z"/>
	<path fill="#968172" d="M52.8,35L69,88.3c0.2-0.1,0.5-0.1,0.7-0.2L55,35H52.8z"/>
	<path fill="#968172" d="M51.2,35.7l-1.4,0.6L50.2,99c0.1-0.2,0.3-0.3,0.4-0.5L51.2,35.7z"/>
	<polygon fill="#968172" points="46.2,35.7 22.8,118.9 23.9,118.7 48.7,36 	"/>
	<rect x="52" y="26" fill="#968172" width="6" height="7"/>
	<rect x="36" y="13" fill="#968172" width="35" height="3"/>
	<rect x="80" y="13" fill="#968172" width="7" height="2"/>
	<rect x="80" y="25" fill="#968172" width="6" height="2"/>
	<path fill="#FFFFFE" d="M43,130.9l0.6-0.1c-0.4-0.2-0.8-0.3-1.2-0.5c0,0-1.9-35.4,31.7-39.7l-0.2-0.2c0,0,0,0,0,0
		c0,0,0.3,0,0.9-0.1c5.6-0.5,35.5-2,45.6,26.8c36.8,7.2,13.4,18-1.4,24.4c-15.1,6.5-55-1.3-66.8-3.3C40.4,136.2,43,130.9,43,130.9z"
		/>
	<path fill="#FFFFFE" d="M73.8,90.4L73.8,90.4C73.8,90.4,73.8,90.4,73.8,90.4C73.8,90.4,73.8,90.4,73.8,90.4z"/>
	<path fill="#D27E3D" d="M52.2,138.1c11.8,2,51.7,9.8,66.8,3.3c14.7-6.4,38.2-17.2,1.4-24.4c0.5,1.3,0.9,2.7,1.3,4.1l-4.7,4.7
		c0,0.2,0.1,0.4,0.1,0.6c0,0-1.3,7.9-32.1,7.2l-0.7-6.5l-16.4,0.7l-0.7,6.5c0,0-13.8,0.6-23.6-3.4l-0.6,0.1
		C43,130.9,40.4,136.2,52.2,138.1z M107.8,139.4c13.7-0.7,30.8-11.8,30.8-11.8c-2.6,3.9-17,10.5-28.8,14.4
		c-11.8,3.9-63.5-7.2-63.5-7.2S94.1,140.1,107.8,139.4z"/>
	<path fill="#FFC06C" d="M73.8,90.4C73.8,90.4,73.8,90.4,73.8,90.4l0.2,0.2c0.3,0,0.7-0.1,1-0.1C74.6,90.4,74.3,90.4,73.8,90.4z"/>
	<path fill="#FFC06C" d="M79.4,90.3c9.3,0.2,33,4,37.5,35.5l4.7-4.7c-0.4-1.4-0.8-2.8-1.3-4.1c-10.2-28.7-40.1-27.2-45.6-26.8
		C75.6,90.2,77.3,90.1,79.4,90.3z"/>
	<path fill="#FFC06C" d="M73.8,90.4L73.8,90.4C73.8,90.4,73.8,90.4,73.8,90.4z"/>
	<path fill="#FC9F4C" d="M67.2,134.2l0.7-6.5l16.4-0.7l0.7,6.5c30.8,0.7,32.1-7.2,32.1-7.2l-4.6,2.6c0,0-2.6-36.4-37.4-38.5
		c-0.4,0-0.7,0.1-1,0.1c-33.5,4.3-31.7,39.7-31.7,39.7c0.4,0.2,0.8,0.4,1.2,0.5C53.4,134.8,67.2,134.2,67.2,134.2z M102.5,105.5
		C78.2,91.7,63.1,107,63.1,107l-6.4-6.9C82.2,83.2,102.5,105.5,102.5,105.5z"/>
	<path fill="#FC9F4C" d="M79.4,90.3c10.5,0.6,32.6,5.5,37.6,36.1c0-0.2-0.1-0.4-0.1-0.6C112.5,94.3,88.7,90.5,79.4,90.3z"/>
	<path fill="#F67D4B" d="M75.1,90.4c34.8,2.1,37.4,38.5,37.4,38.5l4.6-2.6c-4.9-30.6-27-35.5-37.6-36.1c-2.1-0.1-3.8-0.1-4.8,0
		c-0.6,0-0.9,0.1-0.9,0.1c0,0,0,0,0,0C74.3,90.4,74.6,90.4,75.1,90.4z"/>
	<path fill="#F1C3A3" d="M46.3,134.9c0,0,51.7,11.1,63.5,7.2c11.8-3.9,26.2-10.5,28.8-14.4c0,0-17,11.1-30.8,11.8
		C94.1,140.1,46.3,134.9,46.3,134.9z"/>
	<path fill="#FFFFFE" d="M63.1,107c0,0,15-15.3,39.4-1.5c0,0-20.3-22.3-45.8-5.4L63.1,107z"/>
</g>
</svg>
