<?xml version="1.0" encoding="iso-8859-1"?>
<!-- Generator: Adobe Illustrator 13.0.0, SVG Export Plug-In . SVG Version: 6.00 Build 14948)  -->
<!DOCTYPE svg PUBLIC "-//W3C//DTD SVG 1.1//EN" "http://www.w3.org/Graphics/SVG/1.1/DTD/svg11.dtd">
<svg version="1.1" id="Layer_1" xmlns="http://www.w3.org/2000/svg" xmlns:xlink="http://www.w3.org/1999/xlink" x="0px" y="0px"
	 width="100px" height="100px" viewBox="0 0 100 100" enable-background="new 0 0 100 100" xml:space="preserve">
<g>
	<g>
		<path fill="#5BA59B" d="M40.996,37.009c-0.805-0.15-1.584-0.226-2.339-0.226c-0.705,0-1.447,0.076-2.226,0.226v6.908l5.809-4.859
			L40.996,37.009z"/>
		<path fill="#5BA59B" d="M54.088,36.783c-0.83,0-1.698,0.076-2.604,0.226v17.279l-8.412-13.856
			c-2.379,2.132-5.207,4.888-6.641,6.303v17.4c0.779,0.149,1.584,0.226,2.414,0.226c0.831,0,1.648-0.076,2.453-0.226V46.893
			l10.563,17.242c0.83,0.149,1.598,0.226,2.302,0.226c0.654,0,1.383-0.076,2.188-0.226V37.009
			C55.622,36.859,54.866,36.783,54.088,36.783z"/>
	</g>
	<g>
		<path fill="#CFD0D2" d="M39.024,26.089c5.512-1.717,11.584-1.451,16.963,0.625c-1.634,0.854-3.146,2.104-4.876,2.655
			c-5.713-1.121-11.873-0.034-16.684,3.287c-6.145,4.087-9.87,11.458-9.549,18.835c-1.187,1.36-2.263,2.823-3.52,4.124
			c-1.039-5.544-0.307-11.424,2.248-16.472C26.695,32.942,32.387,28.098,39.024,26.089z"/>
		<path fill="#CFD0D2" d="M54.694,30.46c1.266-0.805,2.454-2.2,3.899-2.492c8.013,4.101,13.424,12.763,13.648,21.76
			c0.292,7.231-2.67,14.507-7.934,19.47c-5.434,5.266-13.277,7.88-20.782,6.934c-8.548-0.951-16.44-6.551-20.059-14.366
			c0.366-1.497,1.697-2.678,2.603-3.917c2.038,5.586,6.356,10.337,11.849,12.684c6.002,2.651,13.21,2.353,18.961-0.805
			c5.439-2.911,9.515-8.245,10.851-14.271c1.394-5.988,0.074-12.548-3.558-17.511C61.801,34.615,58.438,32.069,54.694,30.46z"/>
	</g>
	<g>
		<g>
			<radialGradient id="SVGID_1_" cx="31.7959" cy="33.2168" r="84.0586" gradientUnits="userSpaceOnUse">
				<stop  offset="0" style="stop-color:#5BA59B"/>
				<stop  offset="1" style="stop-color:#1C433F"/>
			</radialGradient>
			<path fill="url(#SVGID_1_)" d="M46.419,10.5c0.283,0.839,0.434,1.717,0.466,2.605c0.211,3.388,0.639,6.759,0.822,10.141
				c2.721,0.298,5.47,0.647,8.044,1.649c0.953,0.286,1.837,0.879,2.833,1.019c2.574-1.037,4.932-2.64,7.633-3.388
				c-2.205,1.329-4.577,2.392-6.64,3.96c2.044,1.279,4.043,2.634,5.828,4.273c1.878-1.297,3.358-3.125,5.383-4.193
				c-1.393,1.783-2.962,3.42-4.339,5.215c4.499,4.811,7.134,11.188,7.539,17.743c3.841,0.176,7.663,0.624,11.496,0.919
				c0.438,0.016,0.839,0.211,1.25,0.354c-4.266,0.072-8.488,0.805-12.752,0.923c-0.396,6.55-3.017,12.942-7.543,17.716
				c1.495,1.938,3.145,3.751,4.612,5.71c-1.977-1.401-3.607-3.239-5.651-4.547c-2.368,1.902-4.805,3.787-7.63,4.979
				c-3.153,1.469-6.605,2.127-10.055,2.413c-0.225,3.513-0.617,7.014-0.864,10.525c-0.085,0.727-0.015,1.534-0.494,2.149
				c-0.025-3.86-0.652-7.688-0.837-11.536c-0.06-0.456,0.044-1.301-0.682-1.198c-6.312-0.4-12.428-3.056-17.016-7.4
				c-2.04,1.344-3.692,3.188-5.768,4.489c1.508-1.9,3.241-3.612,4.628-5.609c-1.896-2.003-3.392-4.332-4.735-6.729
				c-1.635,2.896-3.428,5.941-3.517,9.357c-0.077,1.867,1.156,3.634,2.931,4.219c3.438,1.224,7.107,0.26,10.605-0.11
				c-3.267,1.573-6.79,2.645-10.377,3.156c-2.262,0.209-4.927,0.271-6.674-1.423c-1.727-1.599-1.691-4.227-1.254-6.36
				c1.02-4.907,3.778-9.2,6.521-13.307c-0.503-2.105-0.602-4.351-1.129-6.398c-4.031-0.344-8.065-0.793-12.106-0.984
				c0.519-0.339,1.12-0.473,1.738-0.479c3.52-0.232,7.024-0.646,10.549-0.854c0.268-6.541,2.988-12.899,7.461-17.664
				c-1.274-1.857-2.995-3.378-4.206-5.274c1.874,1.273,3.471,2.892,5.314,4.204c4.71-4.485,11.055-7.197,17.56-7.443
				C45.743,19.048,46.213,14.777,46.419,10.5z M36.206,26.304c-6.919,2.907-12.473,8.933-14.764,16.086
				c-1.564,4.682-1.722,9.812-0.551,14.597c1.098-0.82,1.747-2.063,2.65-3.072c9.288-11.176,20.929-20.296,33.674-27.21
				c-0.014-0.092-0.034-0.27-0.051-0.362C50.562,23.527,42.795,23.409,36.206,26.304z M58.495,27.186
				c-7.984,5.206-15.22,11.518-22.047,18.158c-5.013,5.094-9.955,10.361-13.802,16.404c3.349,7.688,10.808,13.381,19.029,14.89
				c5.245,0.956,10.802,0.4,15.655-1.842c6.438-2.827,11.625-8.354,14.052-14.962c2.447-6.499,2.181-13.981-0.773-20.274
				c-2.453-5.313-6.712-9.781-11.922-12.446L58.495,27.186z"/>
		</g>
	</g>
</g>
</svg>
