<?xml version="1.0" encoding="iso-8859-1"?>
<!-- Generator: Adobe Illustrator 13.0.0, SVG Export Plug-In . SVG Version: 6.00 Build 14948)  -->
<!DOCTYPE svg PUBLIC "-//W3C//DTD SVG 1.1//EN" "http://www.w3.org/Graphics/SVG/1.1/DTD/svg11.dtd">
<svg version="1.1" id="Layer_1" xmlns="http://www.w3.org/2000/svg" xmlns:xlink="http://www.w3.org/1999/xlink" x="0px" y="0px"
	 width="600px" height="600px" viewBox="0 0 600 600" enable-background="new 0 0 600 600" xml:space="preserve">
<g>
	<path fill="#48A856" d="M378.436,235.865L350.88,201.42l-4.921,6.889l-3.936-5.904l-23.62,23.62
		c-13.777,13.778-7.873,34.444-7.873,34.444c7.275,12.934,23.837,29.842,29.524,35.473v244.022h1.969h6.888h1.969V297.442
		l24.604-28.117C388.277,251.61,378.436,235.865,378.436,235.865z"/>
	<path fill="#48A856" d="M274.436,235.865L246.88,201.42l-4.921,6.889l-3.936-5.904l-23.62,23.62
		c-13.777,13.778-7.873,34.444-7.873,34.444c7.275,12.934,23.837,29.842,29.524,35.473v244.022h1.969h6.888h1.969V297.442
		l24.604-28.117C284.277,251.61,274.436,235.865,274.436,235.865z"/>
	<path fill="#2C7EA5" d="M358.603,100.656c-22.482,7.272-26.518,21.222-41.458,30.15c-7.594-19.416-13.501-44.529-25.312-58.306
		c-14.762,18.698-14.955,38.768-23.682,58.306c-14.943-8.928-19.62-23.862-41.456-30.15c-6.223,56.471,26.204,74.294,60.3,90.449
		l0.9-0.15V540.5h10.826V189.075C335.523,176.443,363.226,154.712,358.603,100.656z"/>
</g>
</svg>
