<?xml version="1.0" encoding="utf-8"?>
<!-- Generator: Adobe Illustrator 18.1.0, SVG Export Plug-In . SVG Version: 6.00 Build 0)  -->
<svg version="1.0" id="Layer_1" xmlns="http://www.w3.org/2000/svg" xmlns:xlink="http://www.w3.org/1999/xlink" x="0px" y="0px"
	 viewBox="0 0 150 150" enable-background="new 0 0 150 150" xml:space="preserve">
<g>
	<g>
		<path fill="#6AB863" d="M133.1,105.5l-10-26.2L97.2,92.1l8,3c-2.5,2.6-5.3,5.1-8.4,7.3c-22,15.9-49.3,15.8-60.9-0.2
			c-8-11-6.6-26.6,2.1-40.5l-9.1,2.4l-2.1-13.2C6.1,73.4,0,102.5,14,121.7c16.8,23.1,56,23.3,87.6,0.3c8.3-6,15.3-13.1,20.7-20.6
			L133.1,105.5z"/>
		<path fill="#005A9B" d="M144.4,61.4l-9.5-8.4c0-0.1,0-0.1,0-0.2c-0.1,0-0.1,0-0.2,0l-8.2-7.3l-6.3,8.7c-0.1,0-0.2,0-0.3,0
			c0,0.1,0,0.2,0,0.3l-8,10.9l8.6-1.1c-0.4,4.9-1.8,9.9-4.1,14.8l8.3-4.1l5.2,13.7c4.1-8.8,6.2-17.8,6.1-26.3L144.4,61.4z"/>
		<path fill="#005A9B" d="M128.5,38.7c-3.6-4.9-8.2-8.8-13.5-11.6l3.6-9.2L96,26.1l10.7,22.2l3.6-9.2c1.9,1.5,3.7,3.3,5.1,5.3
			c1.4,2,2.6,4.1,3.4,6.3l7.2-9.9l7.2,6.4C132,44.3,130.5,41.4,128.5,38.7z"/>
		<path fill="#005A9B" d="M98.6,21.9c-8.4-1.2-17.6-0.6-27,1.8l-5-10l-9,22.3l23.7,7l-4.6-9.1c6.7-1.6,13.2-1.9,19.1-0.8l-4.1-8.5
			L98.6,21.9z"/>
		<path fill="#005A9B" d="M54.5,44.2c2.1-1.5,4.3-2.8,6.4-4.1l-7.4-2.2l3.7-9.1c-5.6,2.5-11.1,5.7-16.3,9.5
			c-1.6,1.2-3.2,2.4-4.7,3.7l-8.6-5.5l3.8,23.7L55.2,54l-7.1-4.5C50.1,47.6,52.2,45.9,54.5,44.2z"/>
	</g>
	<polygon fill="#EE3E23" points="98.7,64 84.9,64 84.9,50.2 65.7,50.2 65.7,64 51.9,64 51.9,83.2 65.7,83.2 65.7,97 84.9,97 
		84.9,83.2 98.7,83.2 	"/>
</g>
</svg>
