<?xml version="1.0" encoding="utf-8"?>
<!-- Generator: Adobe Illustrator 18.1.0, SVG Export Plug-In . SVG Version: 6.00 Build 0)  -->
<svg version="1.1" id="Layer_1" xmlns="http://www.w3.org/2000/svg" xmlns:xlink="http://www.w3.org/1999/xlink" x="0px" y="0px"
	 viewBox="0 0 1000 1000" enable-background="new 0 0 1000 1000" xml:space="preserve">
<g>
	<path fill="#333D00" d="M756.3,507.2c-134.5,16.1-70,134.5-26.9,107.6c64.6-48.4,215.2,75.3,86.1,145.3
		c-129.1,70-226-129.1-392.8-139.9c-166.8-10.8-247.5,193.7-247.5,193.7c139.9-150.7,328.2,16.1,565,0
		C976.9,797.7,890.8,491,756.3,507.2z M425.3,789c-143.3-40.4-215.9,30.3-215.9,30.3c104.9-32.3,175.6,26.2,341,60.5
		c165.5,34.3,262.3-66.6,262.3-66.6C703.8,875.7,568.6,829.3,425.3,789z"/>
	<path fill="#E7CF1C" d="M368.8,380.7c-117.4,0-212.5,95.2-212.5,212.5c0,50.1,17.3,96,46.3,132.4c5-8.1,11.3-17.5,19.2-27.5
		c-9.2-17.7-14.4-37.8-14.4-59.1c0-71.3,57.8-129.1,129.1-129.1c58.8,0,108.4,39.4,124,93.2c47.6,6.2,87.5,23.6,114.4,42.3
		c4.2-16.7,6.5-34.1,6.5-52.1C581.4,475.9,486.2,380.7,368.8,380.7z M115.9,741.2l56.5-8.1l-18.8-29.6L115.9,741.2z M124,593.3
		L81,625.5l51.1,10.8L124,593.3z M156.3,480.3H89l48.4,43L156.3,480.3z M231.6,399.5l-67.3-35l26.9,67.3L231.6,399.5z M304.3,286.5
		l-18.8,78l48.4-5.4L304.3,286.5z M465.7,278.5l-53.8,72.6l48.4,18.8L465.7,278.5z M621.7,367.3l-96.9,29.6l35,43L621.7,367.3z
		 M594.8,501.8l13.5,61.9l96.9-69.9L594.8,501.8z"/>
	<path fill="#E7CF1C" d="M770.2,294.8l-3.2-27.1c0,0,41.7,35.5,49.7,79.3l8.1-41.4c0,0,35.8,28.2,34.5,78.9c0,0,34.3-76.2-1.2-114.6
		l21.5-7.6c0,0-25.5-33.1-69.4-20c0,0,12.5-15.9,24.7-16.6c0,0-54.3-18.1-111.2,21.1c10.1-16.7,31.4-41.4,68-38.4l-37.3-10
		c0,0,46.5-34.3,77.4-16.3l-19.8-20.8c0,0,42.6-42.5,92.6-16c0,0-65.3-64.5-112.7-32.2l1.8-33.4c0,0-61.5,28.9-50.5,73.8l-16.4-34.9
		c0,0-49.8,30-18.1,123.2c-0.6-0.1-1.1-0.1-1.6-0.2c-24.3-69.2-67.4-75.2-67.4-75.2l14,31.7c-44.5-43.5-108.6,7.2-108.6,7.2
		l24.7,7.5c-62.3,21.7-56.8,112.1-56.8,112.1c16.6-39.4,46.6-44,46.6-44l7.2,33.8c2.6-43.4,67.6-61.5,67.6-61.5l-3.9,41.6
		c15.5-30.4,49.2-36.8,68-37.9c0.1,0.9,0.3,1.9,0.5,2.9c-42.6,18.3-64.5,67.3-64.5,67.3l29.8-16.5c-28.5,45.9-13.3,88.9-13.3,88.9
		l16.8-22.9c-1.2,50.6,49.5,89.4,49.5,89.4l8.4-94.1l37,20.2l-43.9-67l31.3,2.8l-1.8-3.6c72.5,83.2,204.1,265.1,134.2,424.8
		C882.7,749.3,1016.6,571.5,770.2,294.8z"/>
</g>
</svg>
