<?xml version="1.0" encoding="utf-8"?>
<!-- Generator: Adobe Illustrator 18.1.0, SVG Export Plug-In . SVG Version: 6.00 Build 0)  -->
<svg version="1.1" id="Layer_1" xmlns="http://www.w3.org/2000/svg" xmlns:xlink="http://www.w3.org/1999/xlink" x="0px" y="0px"
	 viewBox="0 0 1500 1500" enable-background="new 0 0 1500 1500" xml:space="preserve">
<g>
	<path fill="none" d="M427,951.4c2.6-54,43.3-85.3,95.9-103.6c60.6,46.8,152,76.1,278.2,76.1c86.5,0,158.1-26,209.8-63.2
		c7.7,2.1,15.4,4.2,22.8,6.5c67.8,21.1,81.4,77.4,52.2,134.8c60.2-74.6,96.4-170.3,96.4-274.6c0-238.1-188.3-431.2-420.7-431.2
		s-420.6,193-420.6,431.2c0,98.9,32.6,190,87.2,262.7C426.8,977.9,426.3,965,427,951.4z M566.5,376.4
		c127-30.8,311.6-12.5,311.6-12.5s194.4,25.6,175.7,131.4c-18.7,105.8-125.4,178.6-334,139.4C511.3,595.5,439.6,407.2,566.5,376.4z
		 M491.2,564.2c38.2,47.7,109.7,91.5,207.8,105.7c156.1,22.6,256.6-7.9,308-64.5c11.3,4.2,22.4,8.5,33.1,13.2
		c146,63.7,19.9,267.6-239,267.6S429.3,777.9,429.3,650.5C429.3,608.1,455.8,581.3,491.2,564.2z"/>
	<path fill="none" d="M1324.8,722.6c0-319.9-266.6-579.2-595.4-579.2c-227.5,0-425.1,124.1-525.4,306.5
		c101.9-164.2,287.1-274,498.6-274c321.4,0,582,253.5,582,566.2c0,162.2-70.1,308.3-182.4,411.5c2.4,5.2,4.4,10.4,6.2,15.5
		C1240.6,1062.9,1324.8,902.4,1324.8,722.6z"/>
	<path fill="none" d="M665.9,245.1c-261.1,51.8-457.4,273.2-457.4,538.5c0,86.5,20.9,168.4,58.2,241.2c13.2-7.7,27.5-12.5,42.2-15
		c-39.3-73.4-61.6-156.5-61.6-244.7C247.3,515.4,425,305.5,665.9,245.1z"/>
	<path fill="none" d="M783,1333.5c70.4,0,137.9-12.2,200.2-34.4c-34.5-3.3-58-4.1-58-4.1c-6-0.2-11.8-0.4-17.6-0.7
		c-32.1,5.5-65.1,8.4-98.8,8.4c-208.3,0-389.9-108.7-486.9-269.9c-24.5,3.1-34.4,11-42.1,16.2C377.7,1218.5,566.3,1333.5,783,1333.5
		z"/>
	<path fill="none" d="M1289.8,1042.5c-43,68.1-101.3,126.4-170.4,170.4c0.9,5.2,1.6,10.1,2.4,14.6
		C1191.3,1178.8,1249,1115.6,1289.8,1042.5z"/>
	<path fill="#9BD2F1" d="M783,1333.5c-216.7,0-405.3-114.9-503.1-284.5c-4.1,2.8-7.6,4.7-12.3,4.7c-26.5,0-13.3-20.6-13.3-20.6
		c4-3.1,8.2-5.8,12.4-8.3c-37.2-72.8-58.2-154.7-58.2-241.2c0-265.3,196.2-486.7,457.4-538.5C425,305.5,247.3,515.4,247.3,765
		c0,88.2,22.3,171.3,61.6,244.7c42.7-7.5,88.3,3.6,119.5,14.3c-0.8-13-0.1-22.8,0.5-28.1c-0.3-1.9-0.5-3.8-0.7-5.8
		c-54.6-72.7-87.2-163.8-87.2-262.7c0-238.1,188.3-431.2,420.6-431.2s420.7,193,420.7,431.2c0,104.4-36.2,200-96.4,274.6
		c-11.7,23.1-30.3,46.3-55.2,67.5c37.8,26.7,59,56.3,71.6,84c112.3-103.2,182.4-249.4,182.4-411.5c0-312.7-260.6-566.2-582-566.2
		c-211.5,0-396.7,109.8-498.6,274C304.3,267.5,502,143.4,729.4,143.4c328.8,0,595.4,259.3,595.4,579.2
		c0,179.8-84.2,340.3-216.3,446.5c5.6,15.9,8.8,30.8,11,43.8c69.1-44,127.4-102.3,170.4-170.4c-40.9,73.2-98.5,136.4-168,185.1
		c1.8,11.4,3.3,20.2,6.3,25.4c1.3,2.2,2.8,4.6,4.4,6.9c155.6-115.8,256.5-301.2,256.5-510.3c0-350.9-284.1-635.4-634.5-635.4
		S119.9,398.7,119.9,749.6S404,1385,754.5,1385c109.5,0,212.5-27.8,302.4-76.6c-26.8-4.3-52.3-7.2-73.7-9.3
		C920.8,1321.3,853.4,1333.5,783,1333.5z"/>
	<path fill="#9BD2F1" d="M808.8,1302.6c33.7,0,66.7-2.9,98.8-8.4c-388.7-16.8-464.6-171.1-477.3-252.7
		c-53.5-10.4-86.7-11.6-108.4-8.8C418.8,1194,600.5,1302.6,808.8,1302.6z"/>
	<path fill="#619F42" d="M1132.5,1259.9c-1.6-2.4-3.1-4.7-4.4-6.9c-3-5.2-4.5-14-6.3-25.4c-0.7-4.5-1.5-9.4-2.4-14.6
		c-2.2-12.9-5.3-27.8-11-43.8c-1.8-5.1-3.9-10.3-6.2-15.5c-12.5-27.8-33.8-57.4-71.6-84c-28.1,24-64.2,45.5-107.2,61.1
		c1,1.9,1.9,4,2.7,6.3c0,0,2.5,79.8-94,28.1c26.3,24.8,56.3,64.6,21.2,94.8c0,0-70.5,28.2-57.1-79.1c-12.2,33.8-35.4,72.8-73.9,52.3
		c0,0-40.7-43.2,17.6-73.7c-35.9,0.9-68.8-0.3-98.7-3.7c-6.3,1.1-14.4,0.3-24.9-3.5c-3.8-0.6-7.6-1.2-11.2-1.9
		c15.7,16.6,29.3,39.7,8.4,57.7c0,0-47.2,18.9-38.3-53c-8.2,22.7-23.7,48.8-49.6,35.1c0,0-32.4-34.3,24-54.7
		c-70.4-25.7-111.4-71.9-120.9-139.4c-0.6,5.3-1.3,15.1-0.5,28.1c-31.2-10.8-76.8-21.8-119.5-14.3c-14.7,2.6-28.9,7.3-42.2,15
		c-4.2,2.5-8.4,5.2-12.4,8.3c0,0-13.3,20.6,13.3,20.6c4.7,0,8.2-2,12.3-4.7c7.7-5.2,17.6-13.2,42.1-16.2
		c21.7-2.7,54.9-1.6,108.4,8.8c12.7,81.6,88.6,235.9,477.3,252.7c5.8,0.3,11.6,0.5,17.6,0.7c0,0,23.5,0.8,58,4.1
		c21.3,2,46.9,5,73.7,9.3c66.8,10.6,141.2,29.4,176.9,62.3C1233.7,1370.6,1160.9,1302.8,1132.5,1259.9z"/>
	<path fill="#787A81" d="M719.9,634.7c208.6,39.2,315.3-33.7,334-139.4c18.7-105.8-175.7-131.4-175.7-131.4s-184.6-18.3-311.6,12.5
		C439.6,407.2,511.3,595.5,719.9,634.7z"/>
	<path fill="#82848A" d="M801,886.2c258.9,0,385-203.9,239-267.6c-10.6-4.6-21.7-9-33.1-13.2c-51.3,56.7-151.9,87.2-308,64.5
		c-98.1-14.2-169.6-58.1-207.8-105.7c-35.3,17-61.8,43.8-61.8,86.2C429.3,777.9,542.2,886.2,801,886.2z"/>
	<path fill="#787A81" d="M1085.9,1002.1c29.2-57.5,15.6-113.8-52.2-134.8c-7.4-2.3-15.1-4.4-22.8-6.5
		c-51.7,37.2-123.3,63.2-209.8,63.2c-126.2,0-217.5-29.3-278.2-76.1c-52.6,18.2-93.4,49.5-95.9,103.6c-0.6,13.6-0.2,26.5,1.2,38.8
		c0.2,1.9,0.4,3.9,0.7,5.8c9.5,67.5,50.4,113.8,120.9,139.4c4.9-1.8,10.5-3.5,16.9-5c-24-1.5-58.4-9-51.7-41.1
		c0,0,25.5-44.3,60.9,15.9c-3.9-23.9-3.3-54.9,25.9-56.4c0,0,52.2,15.2-5.5,71.7c20.9-12.3,54.8-26.2,66,5.1c0,0,0.8,26.2-21,30
		c29.9,3.4,62.9,4.6,98.7,3.7c10.8-5.7,24.9-10.9,43.4-15.3c-35.8-2.2-87.1-13.5-77.1-61.3c0,0,38-66.1,90.8,23.7
		c-5.8-35.7-4.8-81.8,38.7-84.1c0,0,77.9,22.6-8.2,107.1c29.7-17.6,76.9-37.1,95.9,1.3c43-15.7,79-37.1,107.2-61.1
		C1055.5,1048.3,1074.2,1025.1,1085.9,1002.1z"/>
	<path fill="#787A81" d="M605.1,1150.3c3.7,0.7,7.5,1.3,11.2,1.9c-5.1-1.8-10.8-4.4-17.1-7.7
		C601.2,1146.3,603.2,1148.3,605.1,1150.3z"/>
	<path fill="#F5F4F4" d="M827.6,1129.4c86.2-84.5,8.2-107.1,8.2-107.1c-43.5,2.2-44.5,48.4-38.7,84.1
		c-52.8-89.7-90.8-23.7-90.8-23.7c-10,47.8,41.3,59.1,77.1,61.3c-18.5,4.4-32.6,9.7-43.4,15.3c-58.4,30.5-17.6,73.7-17.6,73.7
		c38.6,20.4,61.7-18.5,73.9-52.3c-13.4,107.3,57.1,79.1,57.1,79.1c35.1-30.1,5.1-69.9-21.2-94.8c96.5,51.7,94-28.1,94-28.1
		c-0.8-2.2-1.7-4.3-2.7-6.3C904.5,1092.3,857.3,1111.9,827.6,1129.4z M795.6,1142.3c0-7,6-12.7,13.5-12.7c7.5,0,13.5,5.7,13.5,12.7
		c0,7-6,12.7-13.5,12.7C801.7,1155,795.6,1149.3,795.6,1142.3z"/>
	<path fill="#FFC26D" d="M809.1,1155c7.5,0,13.5-5.7,13.5-12.7c0-7-6-12.7-13.5-12.7c-7.4,0-13.5,5.7-13.5,12.7
		C795.6,1149.3,801.7,1155,809.1,1155z"/>
	<path fill="#F5F4F4" d="M662.2,1125.7c-11.3-31.3-45.1-17.4-66-5.1c57.7-56.6,5.5-71.7,5.5-71.7c-29.2,1.5-29.8,32.5-25.9,56.4
		c-35.4-60.2-60.9-15.9-60.9-15.9c-6.7,32.1,27.7,39.6,51.7,41.1c-6.4,1.5-12,3.2-16.9,5c-56.4,20.3-24,54.7-24,54.7
		c25.9,13.7,41.4-12.4,49.6-35.1c-9,72,38.3,53,38.3,53c20.9-18,7.3-41.1-8.4-57.7c-1.9-2-3.9-4-5.8-5.8c6.3,3.4,12,5.9,17.1,7.7
		c10.5,3.8,18.7,4.6,24.9,3.5C663,1151.9,662.2,1125.7,662.2,1125.7z M583.8,1137.7c-5,0-9-3.8-9-8.5c0-4.7,4-8.5,9-8.5
		c5,0,9,3.8,9,8.5C592.8,1133.9,588.8,1137.7,583.8,1137.7z"/>
	<path fill="#FFC26D" d="M592.8,1129.2c0-4.7-4-8.5-9-8.5c-5,0-9,3.8-9,8.5c0,4.7,4,8.5,9,8.5
		C588.8,1137.7,592.8,1133.9,592.8,1129.2z"/>
</g>
</svg>
