<?xml version="1.0" encoding="utf-8"?>
<!-- Generator: Adobe Illustrator 18.1.0, SVG Export Plug-In . SVG Version: 6.00 Build 0)  -->
<svg version="1.1" id="Layer_1" xmlns="http://www.w3.org/2000/svg" xmlns:xlink="http://www.w3.org/1999/xlink" x="0px" y="0px"
	 viewBox="0 0 150 150" enable-background="new 0 0 150 150" xml:space="preserve">
<g>
	<g>
		<path fill="#2D4C18" d="M54.2,70.8h41.9v10.8H69.9v8h24.3V100H69.9v10h27v11.4H54.2V70.8z"/>
	</g>
	<g>
		<path fill="#638B3D" d="M123.7,65.1c0.1-0.8,0.1-1.6,0.1-2.5c0-19.8-11.5-38.7-35.7-38.7c-19.9,0-27.1,11.5-32.6,24.1
			c-3.1-2.7-7.1-4.3-11.5-4.3c-9.9,0-17.9,8.1-17.9,18c0,1,0.1,2.1,0.3,3.1C12.9,67.1,2.6,78.8,2.6,93c0,15.7,12.6,28.4,28.2,28.4
			h9.6v-2.3V76l32.5-31.6l1.8-1.8l1.7,1.8L108.8,76v5.3v37.8v2.3h9.2c15.6,0,28.2-12.7,28.2-28.4C146.3,79.2,136.6,67.8,123.7,65.1z
			"/>
	</g>
</g>
</svg>
