<?xml version="1.0" encoding="utf-8"?>
<!-- Generator: Adobe Illustrator 18.1.0, SVG Export Plug-In . SVG Version: 6.00 Build 0)  -->
<svg version="1.1" id="Layer_1" xmlns="http://www.w3.org/2000/svg" xmlns:xlink="http://www.w3.org/1999/xlink" x="0px" y="0px"
	 viewBox="0 0 2000 2000" enable-background="new 0 0 2000 2000" xml:space="preserve">
<g>
	<path fill="none" d="M946,1047.6c1.2,1,2.5,2,3.7,3c4.6-4.5,9.3-8.9,14.1-13.2C957.9,1040.8,951.9,1044.2,946,1047.6z"/>
	<path fill="none" d="M972.2,1251.1c6.1,8.9,12,18.3,17.7,28C984.3,1269.3,978.3,1260,972.2,1251.1z"/>
	<path fill="none" d="M963,1795.1C963,1795.1,963,1795.1,963,1795.1c124-236,93.7-403.7,28.9-516
		C1056.7,1391.4,1087,1559.1,963,1795.1z"/>
	<path fill="none" d="M1654,1025.7c50.9,0,98.8,12.5,141.1,34.3C1752.8,1038.2,1704.9,1025.7,1654,1025.7z"/>
	<path fill="none" d="M1813,1069.9C1813,1069.9,1813,1069.9,1813,1069.9c-6-3.3-11.1-6.4-16.8-9.4
		C1801.9,1063.5,1807,1066.6,1813,1069.9z"/>
	<path fill="#FFFFFE" d="M1691,969.6c-45.3,0-88.6,9.1-128,25.6c-26.5-17.8-55-32.8-84.8-45.2c-6.8,15.2-13.4,35.1-19.9,58.6
		c26.9,11.4,52.5,25,76.4,41c36.7-15.3,77-23.8,119.3-23.8c50.9,0,98.8,12.5,141.1,34.3c0.3,0.2,0.6,0.3,0.9,0.5
		c5.7,3,11.3,6.1,16.8,9.4c3.3-24.4,5.7-49,6.8-74C1780.1,979,1736.7,969.6,1691,969.6z"/>
	<path fill="#FFFFFE" d="M1089.5,955.4c-37.6,27.3-79.4,54.8-125.8,82c-4.8,4.3-9.5,8.7-14.1,13.2c11.4,9.1,23.6,19.3,36.2,30.3
		c79.5-67.5,182.3-108.4,294.8-108.4c18.9,0,37.5,1.5,55.8,3.7l0.9-3.7l117.6-31.3c-51.4-18.4-106.7-28.6-164.4-28.6
		C1218.9,912.4,1150.9,927.8,1089.5,955.4z"/>
	<path fill="#FFFFFE" d="M635,1330.3l29.3,34.8c52.2-31.9,112-52.4,176.2-57.7c13.5-48.9,34.9-94.5,62.8-135.3
		c-10.3-9.5-20.6-18.1-30.4-25.9c-23.8,38.7-42.3,80.8-54.6,125.6C751.7,1277.3,689.6,1298.1,635,1330.3z"/>
	<path fill="#FFFFFE" d="M570,1376.9c-64.3,56.1-111.6,130.9-133.9,216c14,12,28.2,23.7,43,34.8c16.7-81.5,58.2-153.9,116-209.3
		L570,1376.9z"/>
	<path fill="#FFFFFE" d="M1812.9,1069.9L1812.9,1069.9C1812.8,1069.9,1812.8,1069.9,1812.9,1069.9
		C1812.9,1069.9,1812.9,1069.9,1812.9,1069.9z"/>
	<path fill="#FFB602" d="M985.9,1080.8c74.5,64.6,161.5,151.5,161.5,151.5l140-60l49.1-196.3c-18.3-2.2-36.9-3.7-55.8-3.7
		C1168.2,972.4,1065.4,1013.3,985.9,1080.8z M1182.4,1162.3c-35.9,0-65-26.9-65-60c0-33.1,29.1-60,65-60c35.9,0,65,26.9,65,60
		C1247.3,1135.5,1218.3,1162.3,1182.4,1162.3z"/>
	<path fill="#FFB602" d="M928.9,1634.4c-3.5,37.6-13.9,109.4-22,157.4c4.6,0.4,1,0.9,15,1.2v-0.2L928.9,1634.4z"/>
	<path fill="#FFB602" d="M1505,1612.5L1505,1612.5c1.6-1.2,3.2-2.5,4.9-3.8c3.6-3,7.2-6.1,10.8-9.1l9.1-152.3
		C1526,1487.4,1512.7,1567.8,1505,1612.5z"/>
	<path fill="#FFB602" d="M1401.3,1316c-26.7,190-43.9,376.3-43.9,376.3l-130,60l27.2-326c-10.8,83.7-50.1,252.7-72,344.1
		c-0.1,0.4-0.2,0.7-0.3,1.1l0,0c0.6-0.1,1.1-0.3,1.6-0.4c5.9-1.5,11.8-3,17.6-4.6c6.9-1.9,13.8-3.8,20.7-5.9
		c5.9-1.8,11.8-3.6,17.6-5.5c6.6-2.1,13.2-4.4,19.8-6.7c5.9-2.1,11.8-4.2,17.7-6.4c5.1-1.9,10.1-3.9,15.1-5.9
		c1.3-0.5,2.5-1.1,3.8-1.6c5.9-2.4,11.9-4.8,17.7-7.3c6-2.6,11.9-5.3,17.8-8c6-2.8,12-5.5,18-8.3c5.4-2.7,10.7-5.5,16.1-8.2
		c6.3-3.2,12.5-6.4,18.7-9.7c3.9-2.1,7.6-4.4,11.4-6.6c16.5-9.4,32.6-19.2,48.4-29.6l-31.7,7.1
		C1496.9,1471.9,1442.5,1364.1,1401.3,1316z"/>
	<path fill="#FFB602" d="M989.9,1279.1c-5.6-9.8-11.5-19.1-17.7-28c-21.4-31.3-45.4-57.5-68.8-79.1c-27.9,40.9-49.3,86.4-62.8,135.3
		c-64.3,5.3-124.1,25.8-176.2,57.7l36.5,43.2l-82.1,49.1l-23.6-39c-57.8,55.5-99.1,127.8-116.1,209.3v0c0,0,0.1,0.1,0.1,0.1
		c3.7,2.8,7.6,5.5,11.4,8.2c6.2,4.5,12.4,8.9,18.7,13.3c4.6,3.1,9.3,6.2,13.9,9.2c5.7,3.7,11.4,7.4,17.2,11c4.8,3,9.7,6,14.6,8.9
		c5.9,3.5,12,7,18,10.4c4.7,2.7,9.5,5.4,14.3,7.9c7.5,4,15.1,7.9,22.7,11.7c4.4,2.2,8.8,4.4,13.3,6.5c9.7,4.6,19.6,9.1,29.5,13.4
		c4.5,1.9,9,3.7,13.6,5.5c7.1,2.9,14.3,5.8,21.5,8.5c4.9,1.8,9.8,3.6,14.8,5.4c7.2,2.5,14.4,5,21.6,7.3c4.8,1.6,9.6,3.1,14.4,4.6
		c8.3,2.5,16.6,4.8,25,7.1c3.9,1,7.7,2.2,11.6,3.2c12.1,3.1,24.3,5.9,36.6,8.5c3.2,0.7,6.5,1.2,9.8,1.8c3.8,0.7,7.6,1.5,11.4,2.1
		l0-0.1c66.4-229.7-75.5-316.5-75.5-316.5l36.2-40.4c14.5,0,94.1,111.2,94.1,111.2l50.7-30.3l18.1-101.1l54.3-20.2
		c-25.3,55.6-47,384.3-47,384.3l-38.1,24.6l-0.1,0.1c1.5,0.1,3.1,0.2,4.7,0.3c4.2,0.3,8.3,0.6,12.5,0.8c6.1,0.3,12.1,0.4,18.2,0.6
		c0,0,0-0.1,0.1-0.1C1082.1,1559.1,1054.7,1391.4,989.9,1279.1z M900.3,1500.9c-13,0-23.5-13.6-23.5-30.3
		c0-16.8,10.5-30.3,23.5-30.3c13,0,23.5,13.6,23.5,30.3C923.8,1487.4,913.3,1500.9,900.3,1500.9z"/>
	<path fill="#FFB602" d="M1796,1060.5c-0.3-0.2-0.6-0.3-0.9-0.5c-42.3-21.8-90.2-34.3-141.1-34.3c-42.3,0-82.5,8.5-119.3,23.8
		c-23.9-16-49.6-29.7-76.4-41c-17.3,62.7-33.5,150.8-47.6,243c24.4,21.4,81.8,101.6,81.8,101.6l48.6-29.2l17.4-97.1l52.1-19.4
		c-20.8,45.6-39,282.7-43.9,350.7c6.5-6.3,12.8-12.7,19.1-19.2c2.3-2.3,4.5-4.7,6.7-7c6.5-7,13-14,19.3-21.2
		c1.8-2.1,3.6-4.2,5.4-6.2c6.6-7.6,13-15.3,19.3-23.2c1.2-1.5,2.5-3.1,3.7-4.7c6.7-8.5,13.4-17.1,19.8-25.9c0.3-0.5,0.7-1,1-1.5
		c64.8-89.3,112.4-192,138-303c0.1-0.3,0.1-0.6,0.2-0.9c2.8-12.1,5.3-24.4,7.5-36.7c0.1-0.3,0.1-0.6,0.2-0.9
		c2.3-12.4,4.3-25,5.9-37.6c0,0-0.1,0-0.1,0C1807.3,1066.6,1801.7,1063.5,1796,1060.5z M1504.6,1319.1c-12.5,0-22.6-13-22.6-29.1
		c0-16.1,10.1-29.1,22.6-29.1c12.5,0,22.6,13,22.6,29.1C1527.2,1306,1517.1,1319.1,1504.6,1319.1z"/>
	<path fill="#B1DDF2" d="M326,964.2l309,366.1c54.6-32.2,116.7-53,183.3-58.5c12.3-44.8,30.9-87,54.6-125.6
		c-18.7-14.7-36-26.2-50.1-34.7c-68.2,32.2-144,63.1-228.1,91.5L461.5,970.9l454.9-177.2l290.2-401.2L1403,608.3
		c0,0-67.2,168.7-313.4,347.1c61.3-27.6,129.3-43.1,200.9-43.1c57.7,0,113,10.3,164.4,28.6l32.4-8.6c-3.1,4.8-6.1,10.7-9.2,17.6
		c29.8,12.4,58.3,27.4,84.8,45.2c39.4-16.4,82.6-25.6,128-25.6c45.7,0,89.1,9.5,128.7,26.2c0.6-12.8,1-25.6,1-38.5
		c0-360.9-228.1-668.5-548-786.6L879.9,764.3L326,964.2z"/>
	<path fill="#B1DDF2" d="M570,1376.9l-248.8-411l-161.8,58.4L637,357.7L1224,154.6c-76.6-23-157.6-35.5-241.7-35.5
		c-462.9,0-838.2,375.3-838.2,838.3c0,254.2,113.3,481.8,292,635.5C458.4,1507.9,505.8,1433.1,570,1376.9z"/>
	<path fill="#B1DDF2" d="M786.8,633.9c53.8-39.6,81.3-93.4,61.5-120.3c-19.8-26.9-79.4-16.6-133.2,23
		c-53.8,39.6-81.4,93.5-61.6,120.3C673.5,683.7,733.1,673.4,786.8,633.9z"/>
	<path fill="#58595B" d="M159.4,1024.3l161.8-58.4l248.8,411l25.1,41.5l23.6,39l82.1-49.1l-36.5-43.2l-29.3-34.8L326,964.2
		l553.8-199.9l392.8-593.5l28.3-42.8l-76.9,26.6L637,357.7L159.4,1024.3z M715.2,536.5c53.8-39.6,113.4-49.8,133.2-23
		c19.8,26.9-7.8,80.8-61.5,120.3c-53.8,39.6-113.4,49.8-133.2,23C633.9,630,661.4,576.1,715.2,536.5z"/>
	<path fill="#58595B" d="M1504.6,1260.8c-12.5,0-22.6,13-22.6,29.1c0,16.1,10.1,29.1,22.6,29.1c12.5,0,22.6-13,22.6-29.1
		C1527.2,1273.9,1517.1,1260.8,1504.6,1260.8z"/>
	<path fill="#58595B" d="M1558.5,1226.8l-17.4,97.1l-48.6,29.2c0,0-57.4-80.2-81.8-101.6c14.1-92.2,30.2-180.3,47.6-243
		c6.5-23.5,13.1-43.4,19.9-58.6c3-6.8,6.1-12.7,9.2-17.6l-32.4,8.6l-117.6,31.3l-0.9,3.7l-49.1,196.3l-140,60c0,0-87-87-161.5-151.5
		c-12.6-10.9-24.8-21.1-36.2-30.3c-1.2-1-2.5-2-3.7-3c5.9-3.4,12-6.8,17.8-10.2c46.4-27.2,88.1-54.7,125.8-82
		C1335.7,777,1403,608.3,1403,608.3l-196.3-215.8L916.4,793.7L461.5,970.9L594.8,1203c84.1-28.5,159.9-59.3,228.1-91.5
		c14.1,8.5,31.4,20,50.1,34.7c9.9,7.7,20.1,16.3,30.4,25.9c23.4,21.6,47.4,47.8,68.8,79.1c6.1,8.9,13.1,18.3,18.7,28
		c64.8,112.3,96.1,280-27.9,516c0,0,0,0,0,0c0,0-1.1,0.1-1.1,0.1c0,0.1-0.6,0.2-0.6,0.2c-12.8,24.9-27.5,50.6-43.7,76.9l249.9-40
		c0,0,5.9-24,14.8-60.8l0,0c0.1-0.4,0.1-0.7,0.2-1.1c22-91.3,61.3-260.4,72-344.1l-27.2,326l130-60c0,0,17.2-186.3,43.9-376.3
		c41.3,48.1,95.6,158,11.3,350l31.7-5h0l9.1-4.1l46.1-11.3c0,0,1.7-9.8,4.2-24.5c0.4-2.5,0.9-5.4,1.4-8.1l0-0.2
		c7.7-44.8,17.7-125.2,21.4-165.3l-12.4,152.3v0.2l3,5.8l17-9.9l30.7-19.2c0,0,1.7-2.4,2-6.4c0.2-3,2.4-7,2.4-12v0
		c0-68,22-305,42.8-350.7L1558.5,1226.8z"/>
	<path fill="#58595B" d="M1182.4,1042.4c-35.9,0-65,26.9-65,60c0,33.1,29.1,60,65,60c35.9,0,65-26.9,65-60
		C1247.3,1069.2,1218.3,1042.4,1182.4,1042.4z"/>
	<path fill="#58595B" d="M963.7,1768.9c0,0,21.7-328.7,47-384.3l-54.3,20.2L938.3,1506l-50.7,30.3c0,0-79.6-111.2-94.1-111.2
		l-36.2,40.4c0,0,142,86.8,75.5,316.5l0,0.1c-0.3,0.9-0.5,1.8-0.8,2.7c-6.9,23.5-16,48.5-27.7,75.1l90.5-20.2c0,0,3.5-19.3,8.1-46.7
		c0.1-0.4,0.2-0.8,0.2-1.2c8.1-47.9,22.3-119.7,25.7-157.4l-6.9,158.4v0.2l-2.6,0.8l-1.6,5.4l7-4.9l0.9-0.8l-0.1-0.1L963.7,1768.9z"
		/>
	<path fill="#58595B" d="M900.3,1440.3c-13,0-23.5,13.6-23.5,30.3c0,16.7,10.5,30.3,23.5,30.3c13,0,23.5-13.6,23.5-30.3
		C923.8,1453.9,913.3,1440.3,900.3,1440.3z"/>
</g>
</svg>
