<?xml version="1.0" encoding="utf-8"?>
<!-- Generator: Adobe Illustrator 18.1.0, SVG Export Plug-In . SVG Version: 6.00 Build 0)  -->
<svg version="1.1" id="Layer_1" xmlns="http://www.w3.org/2000/svg" xmlns:xlink="http://www.w3.org/1999/xlink" x="0px" y="0px"
	 viewBox="0 0 150 150" enable-background="new 0 0 150 150" xml:space="preserve">
<g>
	<path fill="none" d="M43.8,93.5c0.2,0,0.5,0,0.8,0c0.4,0,0.7,0,1.1,0c3.1-0.8,6.4-1.5,9.7-2.1c0-0.2,0-0.5,0-0.7c0-2,0.8-3.9,2-5.3
		c1.6,2.7,4.5,4.6,7.8,4.7c0.8-0.1,1.5-0.1,2.3-0.2c0,0,0.1,0,0.1,0c0,0,0,0,0,0c0.5,0,1-0.1,1.5-0.1c0-0.1-0.1-0.2-0.1-0.3
		c-0.1-0.2-0.1-0.5-0.2-0.7c0-0.3-0.1-0.5-0.1-0.8c0-0.2,0-0.4,0-0.6c0-0.8,0.1-1.5,0.3-2.2c0.1-0.3,0.2-0.5,0.3-0.8
		c0.1-0.2,0.2-0.5,0.3-0.7c0.8-1.6,2.2-2.9,3.9-3.6c0.2-0.1,0.5-0.2,0.7-0.3l0,0c0.2,0.7,0.4,1.3,0.7,1.9c1.6,3.1,4.8,5.1,8.4,5.1
		c0.4,0,0.9,0,1.3-0.1c0,0.2,0,0.4,0,0.7c0,0.8-0.1,1.6-0.4,2.4c14.4,0.7,27.5,3.6,37.9,8.1l-4.3-2.5c0.9-1.8,1.8-3.7,2.5-5.6
		l9.6,2.6l0.3,0.1l-0.3-0.1l-9.3-3.5c0.6-1.9,1.2-3.9,1.5-6l9.8,1l0.3,0l-0.3-0.1l-9.6-2c0.3-2,0.5-4.1,0.6-6.2l9.8-0.5l0.3,0
		l-0.3,0l-9.7-0.5c0-0.1,0-0.1,0-0.2c0-2-0.1-4-0.4-6l9.5-2l0.2,0l-0.2,0l-9.6,1c-0.3-2.1-0.8-4.1-1.4-6.1l9-3.4l0.2-0.1l-0.2,0
		l-9.3,2.5c-0.6-2-1.4-4-2.3-5.8l8.3-4.8l0.1-0.1l-0.1,0.1l-8.8,3.9c-1-1.9-2-3.7-3.3-5.4l7.5-6l0.1,0l-0.1,0l-8,5.3
		c-1.2-1.7-2.6-3.3-4.1-4.8l6.5-7.1l0,0l0,0l-7.1,6.5c-1.5-1.5-3.1-2.8-4.8-4.1l5.3-8l-6,7.5c-1.7-1.2-3.5-2.3-5.4-3.3l4-8.8
		l-4.8,8.4c-1.9-0.9-3.8-1.7-5.9-2.4l2.5-9.3l-3.4,9c-2-0.6-4-1.1-6.1-1.4l1-9.7l-2,9.5c-2-0.3-4.1-0.5-6.2-0.5c0,0,0,0,0,0
		l-0.5-9.7l-0.5,9.8c-2.1,0-4.2,0.2-6.2,0.6l-2-9.6l1.1,9.8c-2.1,0.4-4.1,0.9-6.1,1.5l-3.5-9.3l2.6,9.6c-2,0.7-3.9,1.5-5.7,2.5
		l-5-8.7l4.1,9.2c-1.8,1-3.6,2.1-5.2,3.3L44.5,30l5.6,8.6c-1.6,1.3-3.2,2.6-4.6,4.1l-7.7-6.9l7,7.7c-1.4,1.5-2.7,3.1-3.9,4.7
		l-8.8-5.7l8.2,6.6c-1.1,1.7-2.2,3.4-3.1,5.2l-9.7-4.4l9.2,5.3c-0.9,1.8-1.6,3.7-2.2,5.6l-10.4-2.8l10.1,3.8c-0.6,1.9-1,3.9-1.3,5.9
		l-10.8-1.2l10.7,2.2c-0.2,1.9-0.4,3.8-0.4,5.8c0,0.1,0,0.1,0,0.2l-11,0.5l11,0.5c0.1,2,0.2,4,0.5,5.9l-10.9,2.3l11-1.2
		c0.4,2,0.8,3.9,1.5,5.8l-10.5,4l10.8-2.9c0.7,1.9,1.4,3.7,2.3,5.4l-7.7,4.4c2.4-1.2,5-2.3,7.8-3.3l0.4-0.2c0,0,0,0,0,0
		c2.1-0.7,4.2-1.4,6.4-2c-0.2,0-0.4-0.1-0.6-0.1C43.8,93.7,43.8,93.6,43.8,93.5z M85.9,85c-0.2,0.1-0.5,0.1-0.7,0.2
		c-0.2,0.1-0.5,0.1-0.7,0.1c-0.3,0-0.7,0.1-1,0.1c-3.7,0-6.8-2.5-7.7-5.9c0-0.1-0.1-0.3-0.1-0.4c0-0.1,0-0.2,0-0.3
		c0-0.2-0.1-0.3-0.1-0.5c0-0.1,0-0.2,0-0.2c0-0.2,0-0.4,0-0.6c0,0,0,0,0-0.1c0-2.2,0.9-4.2,2.3-5.6c0.3,0.4,0.7,0.7,1.1,1
		c0.2,0.2,0.4,0.3,0.7,0.4c0.2,0.1,0.4,0.3,0.7,0.4c1.3,0.7,2.8,1.1,4.3,1.1c0.6,0,1.2-0.1,1.7-0.2c0,0.2,0,0.5,0,0.7
		c0,2.9,1.3,5.5,3.4,7.3C88.7,83.6,87.4,84.5,85.9,85z M103.6,76.7c-0.1,0.4-0.2,0.8-0.3,1.2c-0.4,1-0.9,2-1.7,2.7
		c-0.2,0.2-0.4,0.4-0.7,0.7c-1.4,1.2-3.2,1.9-5.2,1.9c-1.5,0-2.8-0.4-4-1.1c-0.2-0.1-0.4-0.3-0.6-0.4c-0.2-0.1-0.4-0.3-0.6-0.5
		c-1.7-1.5-2.8-3.6-2.8-6c0-0.4,0-0.8,0.1-1.1c0-0.3,0.1-0.6,0.2-0.8c0.1-0.3,0.2-0.7,0.3-1c0.1-0.3,0.2-0.6,0.4-0.8
		c0.1-0.2,0.3-0.4,0.4-0.6c0.1-0.2,0.3-0.4,0.4-0.6c0.7-0.8,1.5-1.5,2.5-2c0.3-0.2,0.6-0.3,0.9-0.4c0.3-0.1,0.5-0.2,0.8-0.3
		c0.6-0.2,1.3-0.3,2-0.3c2,0,3.8,0.7,5.2,2c0.2,0.2,0.5,0.4,0.7,0.7c0.7,0.8,1.3,1.7,1.6,2.8c0.1,0.4,0.2,0.8,0.3,1.2
		c0.1,0.5,0.1,0.9,0.1,1.4C103.7,75.7,103.7,76.2,103.6,76.7z M108.7,60.4c0.8,1.8,1.3,3.1,1.3,3.1c0,0-0.1,0-0.1,0.1
		c-1.1,0.7-2.7,1.1-4.5,1.2c-1.2,0.1-2.6,0-3.8-0.3c-1.4-0.3-2.8-0.7-3.9-1.4c-0.2-0.1-0.3-0.2-0.5-0.3c-1-0.6-1.7-1.4-2.2-2.4
		c-0.1-0.1-0.1-0.3-0.2-0.4c-0.5-1.5-0.1-3.4,1.7-5.6c1.9-2.3,3.7-2.8,5.4-2.3c1,0.3,1.9,1,2.8,1.9c0.5,0.5,0.9,1,1.3,1.6
		c0.7,0.9,1.2,1.9,1.8,2.9C108.1,59.2,108.4,59.8,108.7,60.4z M80.7,58.2c1.2-0.7,2.5-1.1,3.9-1.1c0.8,0,1.6,0.1,2.4,0.4
		c0.1-0.2,0.2-0.4,0.3-0.7c0.1-0.2,0.2-0.4,0.3-0.7c0.9-1.8,2.1-3.4,3.4-4.8c1.7-1.9,3.8-3.6,6-5c1.2-0.8,2.5-1.5,3.9-2.2
		c1.2-0.6,2.4-1.1,3.6-1.7c1.6-0.7,2.6,0.9,2.3,2.3c-0.1,0.6-0.5,1.2-1.3,1.5c-0.3,0.1-0.6,0.3-0.9,0.4c-3.3,1.4-6.5,3.2-9.1,5.5
		c-1.9,1.7-3.5,3.6-4.6,5.9c-0.1,0.2-0.2,0.5-0.3,0.7c-0.1,0.2-0.2,0.5-0.3,0.8c1.4,1.4,2.2,3.4,2.2,5.5c0,0.4,0,0.8-0.1,1.1
		c-1.6,0.6-3.1,1.7-4.2,3c-0.2,0.2-0.3,0.4-0.4,0.6c-0.1,0.2-0.3,0.4-0.4,0.6c-0.4,0.7-0.7,1.5-0.9,2.4c-0.6,0.2-1.3,0.3-2,0.3
		c-1.5,0-2.8-0.4-4-1.1c-0.2-0.1-0.5-0.3-0.7-0.4c-0.2-0.2-0.5-0.4-0.7-0.6c-0.1-0.1-0.2-0.1-0.2-0.2c-0.2-0.2-0.3-0.4-0.5-0.5
		c-0.2-0.2-0.1-0.4-0.3-0.6c-0.9-1.3-1.2-2.9-1.2-4.5c0,0,0,0,0,0c0-0.1-0.2-0.2-0.2-0.3c0-0.2-0.1-0.5,0-0.7c0-0.1,0-0.2,0-0.2
		c0-0.3,0.1-0.5,0.1-0.8c0-0.1,0-0.1,0-0.2c0.4-1.3,1.1-2.4,2-3.4c0.3-0.3,0.6-0.6,0.9-0.8C80.1,58.5,80.4,58.3,80.7,58.2z
		 M63.9,54.1c0.2-0.3,0.3-0.7,0.5-1c0.6-0.9,1.3-1.7,2.1-2.3c0.4-0.3,0.8-0.5,1.2-0.7c0.8-0.4,1.7-0.7,2.7-0.8c0.3,0,0.5,0,0.8,0
		c0.2,0,0.4,0,0.6,0c1.1,0.1,2.2,0.4,3.1,0.9c0.3,0.2,0.6,0.3,0.9,0.5c2.1,1.4,3.4,3.8,3.4,6.5c0,0,0,0,0,0c-1.7,1.2-3,2.9-3.7,4.9
		c-0.1,0.2-0.1,0.5-0.2,0.7c-0.1,0.3-0.1,0.5-0.1,0.8c0,0.2,0,0.3-0.1,0.5c-1.2,0.7-2.5,1.1-3.9,1.1c-1.6,0-3.1-0.5-4.4-1.3
		c-0.2-0.1-0.4-0.3-0.6-0.5c-0.2-0.2-0.4-0.3-0.6-0.5c-1.1-1.1-2-2.6-2.3-4.2c0,0,0,0,0,0c-0.1-0.5-0.1-1-0.1-1.5
		C63.2,56.2,63.5,55.1,63.9,54.1z M65.7,65c1.6,1.1,3.5,1.8,5.6,1.8c1.4,0,2.7-0.3,3.9-0.9c0.1,1.7,0.8,3.3,1.7,4.7
		c-1.6,1.5-2.6,3.5-2.8,5.8c0,0.3-0.1,0.7-0.1,1c0,0.3,0,0.5,0,0.8c0,0,0,0-0.1,0c-0.2,0.1-0.5,0.2-0.7,0.2
		c-0.7,0.2-1.4,0.3-2.1,0.3c-3.6,0-6.6-2.4-7.6-5.7c-0.1-0.2-0.1-0.5-0.2-0.7c0-0.2-0.1-0.5-0.1-0.7c0-0.3,0-0.6,0-0.9
		C63.2,68.4,64.2,66.4,65.7,65z M62.2,73.5c1.2,3.7,4.5,6.4,8.6,6.6c-0.9,0.7-1.6,1.6-2.2,2.7c-0.1,0.2-0.2,0.4-0.3,0.7
		c-0.1,0.2-0.2,0.5-0.3,0.7c-0.4,1-0.6,2.1-0.6,3.3c0,0.4,0,0.7,0.1,1.1c-0.6,0.1-1.1,0.2-1.7,0.2c-3.1,0-5.7-1.7-7.1-4.3
		c-0.1-0.2-0.2-0.5-0.3-0.7c-0.1-0.2-0.2-0.5-0.3-0.7c-0.2-0.7-0.3-1.5-0.3-2.3C57.7,77.6,59.5,74.8,62.2,73.5z"/>
	<path fill="#B48B38" d="M126.9,107.2c0.5-0.7,0.9-1.5,1.4-2.2C127.8,105.7,127.3,106.4,126.9,107.2
		C126.9,107.1,126.9,107.1,126.9,107.2z"/>
	<path fill="#B48B38" d="M37.5,96.1c0.2-0.1,0.3-0.1,0.5-0.2c0,0,0,0,0,0L37.5,96.1z"/>
	<path fill="#B48B38" d="M119.9,115.8c-1.2,1.3-2.5,2.6-3.9,3.8c0,0,0,0,0,0C117.4,118.4,118.7,117.2,119.9,115.8
		C120,115.9,119.9,115.8,119.9,115.8z"/>
	<path fill="#B48B38" d="M37.4,95c-0.9-1.8-1.7-3.6-2.3-5.4l-10.8,2.9l10.5-4c-0.6-1.9-1.1-3.8-1.5-5.8l-11,1.2l10.9-2.3
		c-0.3-1.9-0.5-3.9-0.5-5.9l-11-0.5l11-0.5c0-0.1,0-0.1,0-0.2c0-2,0.1-3.9,0.4-5.8l-10.7-2.2L33,67.6c0.3-2,0.7-4,1.3-5.9l-10.1-3.8
		l10.4,2.8c0.6-1.9,1.4-3.8,2.2-5.6l-9.2-5.3l9.7,4.4c0.9-1.8,1.9-3.6,3.1-5.2l-8.2-6.6l8.8,5.7c1.2-1.7,2.5-3.2,3.9-4.7l-7-7.7
		l7.7,6.9c1.4-1.5,3-2.8,4.6-4.1L44.5,30l6.4,7.9c1.7-1.2,3.4-2.3,5.2-3.3L52,25.5l5,8.7c1.8-1,3.7-1.8,5.7-2.5l-2.6-9.6l3.5,9.3
		c2-0.6,4-1.2,6.1-1.5l-1.1-9.8l2,9.7c2-0.3,4.1-0.5,6.2-0.5l0.5-9.8l0.5,9.7c0,0,0,0,0,0c2.1,0,4.2,0.2,6.2,0.5l2-9.5l-1,9.7
		c2.1,0.3,4.2,0.8,6.1,1.4l3.4-9l-2.5,9.3c2,0.7,4,1.5,5.9,2.4l4.8-8.4l-4,8.8c1.9,1,3.7,2.1,5.4,3.3l6-7.5l-5.3,8
		c1.7,1.3,3.3,2.6,4.8,4.1l7.1-6.5l0,0l0,0l-6.5,7.1c1.5,1.5,2.8,3.1,4.1,4.8l8-5.3l0.1,0l-0.1,0l-7.5,6c1.2,1.7,2.3,3.5,3.3,5.4
		l8.8-3.9l0.1-0.1l-0.1,0.1l-8.3,4.8c0.9,1.9,1.7,3.8,2.3,5.8l9.3-2.5l0.2,0l-0.2,0.1l-9,3.4c0.6,2,1.1,4,1.4,6.1l9.6-1l0.2,0
		l-0.2,0l-9.5,2c0.3,2,0.4,4,0.4,6c0,0.1,0,0.1,0,0.2l9.7,0.5l0.3,0l-0.3,0l-9.8,0.5c-0.1,2.1-0.2,4.1-0.6,6.2l9.6,2l0.3,0.1l-0.3,0
		l-9.8-1c-0.4,2-0.9,4-1.5,6l9.3,3.5l0.3,0.1l-0.3-0.1l-9.6-2.6c-0.7,1.9-1.5,3.8-2.5,5.6l4.3,2.5c2.7,1.2,5.3,2.4,7.7,3.8
		c4.1-8,6.4-17.1,6.4-26.7c0-32.7-26.6-59.3-59.3-59.3c-32.7,0-59.3,26.6-59.3,59.3c0,9.8,2.4,19.1,6.7,27.2c1.6-1,3.4-1.9,5.2-2.8
		L37.4,95z"/>
	<path fill="#73963D" d="M104.7,54.1c-0.8-0.9-1.8-1.6-2.8-1.9c-1.7-0.5-3.5-0.1-5.4,2.3c-1.8,2.2-2.2,4.1-1.7,5.6
		c0,0.1,0.1,0.3,0.2,0.4c0.4,0.9,1.2,1.7,2.2,2.4c0.2,0.1,0.3,0.2,0.5,0.3c1.1,0.6,2.5,1.1,3.9,1.4c1.3,0.2,2.6,0.3,3.8,0.3
		c1.8-0.1,3.4-0.5,4.5-1.2c0,0,0.1,0,0.1-0.1c0,0-0.5-1.3-1.3-3.1c-0.3-0.6-0.6-1.2-0.9-1.9c-0.5-1-1.1-2-1.8-2.9
		C105.6,55.1,105.2,54.5,104.7,54.1z"/>
	<path fill="#6C8B3B" d="M84.4,89.8c-0.4,1.2-1,2.3-1.9,3.1c12.5,2,29.2,6.4,44.3,14.2c0.5-0.7,1-1.5,1.4-2.2
		c0.6-1.1,1.2-2.2,1.8-3.3c-2.4-1.4-4.9-2.6-7.7-3.8C111.9,93.4,98.8,90.5,84.4,89.8z"/>
	<path fill="#6C8B3B" d="M65.7,90.2c0.7,0,1.3-0.1,1.9-0.2c-0.8,0.1-1.5,0.1-2.3,0.2C65.4,90.2,65.5,90.2,65.7,90.2z"/>
	<path fill="#6C8B3B" d="M80.2,94.6c-1,0.5-2.2,0.8-3.4,0.8c-1.7,0-3.2-0.5-4.5-1.4c-0.2-0.1-0.4-0.3-0.6-0.5
		c-0.2-0.2-0.4-0.4-0.6-0.6c-0.2-0.2-0.3-0.3-0.4-0.5c-0.7-0.1-1.3-0.2-2-0.3c0.5,0.9,1.1,1.6,1.9,2.3c-0.5,0.9-1.2,1.8-2,2.5
		c15.3,3.7,33.9,10.8,47.5,22.7c1.3-1.2,2.6-2.4,3.9-3.8C110.5,108.2,96.9,99.4,80.2,94.6z"/>
	<path fill="#6C8B3B" d="M70,91.6c-0.3-0.5-0.6-1.1-0.8-1.7c-0.5,0-1,0.1-1.5,0.1c0.2,0.6,0.4,1.1,0.6,1.6
		C68.9,91.6,69.4,91.6,70,91.6z"/>
	<path fill="#6C8B3B" d="M56.4,94.5c-0.5-0.9-0.8-2-0.9-3.1c-3.4,0.6-6.6,1.3-9.7,2.1C48.5,93.6,52.1,93.9,56.4,94.5z"/>
	<path fill="#6C8B3B" d="M62.8,98.7c-1.4-0.1-2.8-0.6-3.9-1.4c-4.5-1.5-9.3-2.6-14.3-3.3c-0.1,0-0.2,0-0.3-0.1
		c-2.2,0.6-4.3,1.3-6.4,2c-0.2,0.1-0.3,0.1-0.5,0.2c-2.8,1-5.4,2.1-7.8,3.3c-1.8,0.9-3.6,1.8-5.2,2.8c9.9,19,29.8,32.1,52.7,32.1
		c0.9,0,1.7,0,2.6-0.1c-4.2-5.7-23.3-29.6-46.9-33.4c-0.2,0-0.4-0.1-0.6-0.2c0-0.1,0-0.1,0-0.2c0.2,0,0.4,0,0.6,0
		c10.2-0.2,43.6,7,56.7,32.5c5.3-1.1,10.4-3,15-5.4C99.1,121.6,84.3,106.8,62.8,98.7z"/>
	<path fill="#36451D" d="M68.3,91.6c0.1,0.2,0.2,0.4,0.3,0.6c0.7,0.1,1.4,0.2,2,0.3c-0.2-0.3-0.5-0.6-0.7-0.9
		C69.4,91.6,68.9,91.6,68.3,91.6z"/>
	<path fill="#36451D" d="M82.6,92.9c-0.7,0.7-1.5,1.3-2.4,1.7c16.7,4.7,30.3,13.5,39.7,21.2c0,0,0.1,0,0.1,0.1
		c2.6-2.7,4.9-5.6,6.9-8.7c0,0,0,0,0,0C111.7,99.4,95.1,94.9,82.6,92.9z"/>
	<path fill="#9EC43B" d="M56.4,94.5c-4.2-0.6-7.9-0.9-10.7-1c-0.4,0-0.8,0-1.1,0c-0.3,0-0.6,0-0.8,0c0,0.1,0,0.2,0,0.3
		c0.2,0,0.4,0.1,0.6,0.1c0.1,0,0.2,0.1,0.3,0.1c5,0.7,9.8,1.9,14.3,3.3C57.9,96.6,57,95.7,56.4,94.5z"/>
	<path fill="#9EC43B" d="M68.5,96.9c-1.4,1.1-3.1,1.8-5.1,1.8c-0.2,0-0.4,0-0.6,0c21.4,8.1,36.3,22.9,41.7,28.8
		c4.2-2.2,8.1-4.9,11.6-7.9c0,0,0,0,0,0C102.4,107.7,83.8,100.6,68.5,96.9z"/>
	<path fill="#8B9C5B" d="M32.8,100.4c-0.2,0-0.4,0-0.6,0c0,0.1,0,0.1,0,0.2c0.2,0.1,0.4,0.1,0.6,0.2c23.7,3.8,42.7,27.7,46.9,33.4
		c3.3-0.1,6.6-0.6,9.7-1.2C76.4,107.4,42.9,100.2,32.8,100.4z"/>
	<path fill="#3B1B54" d="M70.5,94.5c-0.7-0.7-1.4-1.4-1.9-2.3c-0.1-0.2-0.2-0.4-0.3-0.6c-0.2-0.5-0.5-1-0.6-1.6c0,0,0,0,0,0
		c0,0-0.1,0-0.1,0c-0.6,0.1-1.3,0.2-1.9,0.2c-0.1,0-0.2,0-0.4,0c-3.3-0.1-6.2-2-7.8-4.7c-1.3,1.4-2,3.3-2,5.3c0,0.2,0,0.5,0,0.7
		c0.1,1.1,0.4,2.2,0.9,3.1c0.6,1.1,1.5,2.1,2.5,2.8c1.1,0.8,2.5,1.3,3.9,1.4c0.2,0,0.4,0,0.6,0c1.9,0,3.7-0.7,5.1-1.8
		C69.3,96.2,70,95.4,70.5,94.5z"/>
	<path fill="#3B1B54" d="M84.8,86.8c-0.4,0.1-0.8,0.1-1.3,0.1c-3.7,0-6.8-2.1-8.4-5.1c-0.3-0.6-0.6-1.2-0.7-1.9l0,0
		c-0.2,0.1-0.5,0.2-0.7,0.3c-1.7,0.7-3,2-3.9,3.6c-0.1,0.2-0.2,0.5-0.3,0.7c-0.1,0.3-0.2,0.5-0.3,0.8c-0.2,0.7-0.3,1.5-0.3,2.2
		c0,0.2,0,0.4,0,0.6c0,0.3,0.1,0.5,0.1,0.8c0,0.2,0.1,0.5,0.2,0.7c0,0.1,0.1,0.2,0.1,0.3c0.2,0.6,0.5,1.2,0.8,1.7
		c0.2,0.3,0.4,0.6,0.7,0.9c0.1,0.2,0.3,0.3,0.4,0.5c0.2,0.2,0.4,0.4,0.6,0.6c0.2,0.2,0.4,0.3,0.6,0.5c1.3,0.9,2.8,1.4,4.5,1.4
		c1.2,0,2.3-0.3,3.4-0.8c0.9-0.4,1.7-1,2.4-1.7c0.8-0.9,1.5-2,1.9-3.1c0.2-0.7,0.4-1.5,0.4-2.4C84.8,87.2,84.8,87,84.8,86.8z"/>
	<path fill="#3B1B54" d="M58.3,83.7c0.1,0.2,0.2,0.5,0.3,0.7c1.3,2.5,4,4.3,7.1,4.3c0.6,0,1.2-0.1,1.7-0.2c0-0.4-0.1-0.7-0.1-1.1
		c0-1.1,0.2-2.2,0.6-3.3c0.1-0.2,0.2-0.5,0.3-0.7c0.1-0.2,0.2-0.4,0.3-0.7c0.6-1,1.3-1.9,2.2-2.7c-4-0.2-7.4-2.9-8.6-6.6
		c-2.7,1.3-4.5,4-4.5,7.2c0,0.8,0.1,1.6,0.3,2.3C58.1,83.3,58.2,83.5,58.3,83.7z"/>
	<path fill="#3B1B54" d="M63.4,72.3c0,0.2,0.1,0.5,0.2,0.7c1,3.3,4,5.7,7.6,5.7c0.7,0,1.4-0.1,2.1-0.3c0.2-0.1,0.5-0.1,0.7-0.2
		c0,0,0,0,0.1,0c0-0.3,0-0.5,0-0.8c0-0.3,0-0.7,0.1-1c0.2-2.3,1.3-4.3,2.8-5.8c-1-1.3-1.6-2.9-1.7-4.7c-1.2,0.6-2.5,0.9-3.9,0.9
		c-2.1,0-4-0.7-5.6-1.8c-1.5,1.5-2.4,3.5-2.4,5.7c0,0.3,0,0.6,0,0.9C63.3,71.8,63.4,72.1,63.4,72.3z"/>
	<path fill="#3B1B54" d="M86.3,75.2c0-0.2,0-0.5,0-0.7c-0.6,0.1-1.1,0.2-1.7,0.2c-1.6,0-3-0.4-4.3-1.1c-0.2-0.1-0.4-0.2-0.7-0.4
		c-0.2-0.1-0.4-0.3-0.7-0.4c-0.4-0.3-0.8-0.6-1.1-1c-1.4,1.4-2.3,3.4-2.3,5.6c0,0,0,0,0,0.1c0,0.2,0,0.4,0,0.6c0,0.1,0,0.2,0,0.2
		c0,0.2,0,0.3,0.1,0.5c0,0.1,0,0.2,0,0.3c0,0.1,0.1,0.3,0.1,0.4c0.9,3.4,4,5.9,7.7,5.9c0.3,0,0.7,0,1-0.1c0.2,0,0.5-0.1,0.7-0.1
		c0.2-0.1,0.5-0.1,0.7-0.2c1.5-0.5,2.8-1.4,3.7-2.6C87.6,80.7,86.3,78.1,86.3,75.2z"/>
	<path fill="#3B1B54" d="M63.4,58.8c0.3,1.6,1.1,3.1,2.3,4.2c0.2,0.2,0.4,0.3,0.6,0.5c0.2,0.2,0.4,0.3,0.6,0.5
		c1.3,0.8,2.8,1.3,4.4,1.3c1.4,0,2.8-0.4,3.9-1.1c0-0.2,0-0.3,0.1-0.5c0-0.3,0.1-0.5,0.1-0.8c0.1-0.2,0.1-0.5,0.2-0.7
		c0.6-2,1.9-3.8,3.7-4.9c0,0,0,0,0,0c0-2.7-1.4-5.1-3.4-6.5c-0.3-0.2-0.6-0.4-0.9-0.5c-0.9-0.5-2-0.8-3.1-0.9c-0.2,0-0.4,0-0.6,0
		c-0.3,0-0.5,0-0.8,0c-1,0.1-1.9,0.4-2.7,0.8c-0.4,0.2-0.8,0.4-1.2,0.7c-0.8,0.6-1.6,1.4-2.1,2.3c-0.2,0.3-0.4,0.7-0.5,1
		c-0.4,1-0.7,2.1-0.7,3.2C63.2,57.8,63.3,58.3,63.4,58.8C63.4,58.8,63.4,58.8,63.4,58.8z"/>
	<path fill="#3B1B54" d="M76.9,62.9c0,0.1,0,0.1-0.1,0.2c-0.1,0.3-0.1,0.5-0.2,0.8c0,0.1,0,0.2,0,0.2c0,0.2,0.1,0.5,0.1,0.7
		c0,0.1,0.2,0.2,0.2,0.3c0,0,0,0,0,0c0,1.7,0.3,3.2,1.2,4.5c0.1,0.2,0.2,0.4,0.3,0.6c0.2,0.2,0.3,0.4,0.5,0.5
		c0.1,0.1,0.1,0.1,0.2,0.2c0.2,0.2,0.4,0.4,0.7,0.6c0.2,0.2,0.4,0.3,0.7,0.4c1.2,0.7,2.5,1.1,4,1.1c0.7,0,1.3-0.1,2-0.3
		c0.2-0.8,0.5-1.6,0.9-2.4c0.1-0.2,0.2-0.4,0.4-0.6c0.1-0.2,0.3-0.4,0.4-0.6c1.1-1.4,2.5-2.4,4.2-3c0.1-0.4,0.1-0.8,0.1-1.1
		c0-2.1-0.8-4.1-2.2-5.5c0.1-0.3,0.2-0.5,0.3-0.8c0.1-0.2,0.2-0.5,0.3-0.7c1.2-2.3,2.8-4.3,4.6-5.9c2.6-2.3,5.8-4.1,9.1-5.5
		c0.3-0.1,0.6-0.3,0.9-0.4c0.7-0.3,1.1-0.9,1.3-1.5c0.3-1.4-0.7-2.9-2.3-2.3c-1.2,0.5-2.4,1.1-3.6,1.7c-1.3,0.7-2.6,1.4-3.9,2.2
		c-2.2,1.4-4.2,3.1-6,5c-1.3,1.4-2.5,3-3.4,4.8c-0.1,0.2-0.2,0.4-0.3,0.7c-0.1,0.2-0.2,0.4-0.3,0.7c-0.8-0.2-1.6-0.4-2.4-0.4
		c-1.4,0-2.8,0.4-3.9,1.1c-0.3,0.2-0.6,0.3-0.8,0.5c-0.3,0.2-0.6,0.5-0.9,0.8C78,60.5,77.3,61.6,76.9,62.9z"/>
	<path fill="#3B1B54" d="M103.3,72.5c-0.4-1-0.9-2-1.6-2.8c-0.2-0.2-0.4-0.5-0.7-0.7c-1.4-1.2-3.2-2-5.2-2c-0.7,0-1.3,0.1-2,0.3
		c-0.3,0.1-0.6,0.2-0.8,0.3c-0.3,0.1-0.6,0.3-0.9,0.4c-1,0.5-1.8,1.2-2.5,2c-0.2,0.2-0.3,0.4-0.4,0.6c-0.1,0.2-0.3,0.4-0.4,0.6
		c-0.1,0.3-0.3,0.5-0.4,0.8c-0.1,0.3-0.2,0.6-0.3,1c-0.1,0.3-0.1,0.6-0.2,0.8c-0.1,0.4-0.1,0.8-0.1,1.1c0,2.4,1.1,4.6,2.8,6
		c0.2,0.2,0.4,0.3,0.6,0.5c0.2,0.1,0.4,0.3,0.6,0.4c1.2,0.7,2.6,1.1,4,1.1c2,0,3.8-0.7,5.2-1.9c0.2-0.2,0.5-0.4,0.7-0.7
		c0.7-0.8,1.3-1.7,1.7-2.7c0.1-0.4,0.2-0.8,0.3-1.2c0.1-0.5,0.1-1,0.1-1.5c0-0.5-0.1-1-0.1-1.4C103.5,73.3,103.4,72.9,103.3,72.5z"
		/>
	<path fill="#3B1B54" d="M77.1,12.9c-34.2,0-62,27.8-62,62c0,34.2,27.8,62,62,62c34.2,0,62-27.8,62-62
		C139.2,40.7,111.3,12.9,77.1,12.9z M116.1,119.6c-3.5,3.1-7.4,5.8-11.6,7.9c-4.7,2.4-9.7,4.3-15,5.4c-3.2,0.7-6.4,1.1-9.7,1.2
		c-0.9,0-1.7,0.1-2.6,0.1c-22.9,0-42.8-13-52.7-32.1C20.2,94,17.8,84.8,17.8,75c0-32.7,26.6-59.3,59.3-59.3
		c32.7,0,59.3,26.6,59.3,59.3c0,9.6-2.3,18.7-6.4,26.7c-0.6,1.1-1.2,2.2-1.8,3.3c-0.4,0.8-0.9,1.5-1.4,2.2c-2,3.1-4.3,6-6.9,8.7
		C118.7,117.2,117.4,118.4,116.1,119.6z"/>
</g>
</svg>
