<?xml version="1.0" encoding="utf-8"?>
<!-- Generator: Adobe Illustrator 18.1.0, SVG Export Plug-In . SVG Version: 6.00 Build 0)  -->
<svg version="1.1" id="Layer_1" xmlns="http://www.w3.org/2000/svg" xmlns:xlink="http://www.w3.org/1999/xlink" x="0px" y="0px"
	 viewBox="0 0 150 150" enable-background="new 0 0 150 150" xml:space="preserve">
<g>
	<g>
		<rect x="63.1" y="119.4" fill="#666351" width="25.7" height="2.8"/>
		<rect x="63.1" y="115" fill="#666351" width="25.7" height="2.8"/>
		<rect x="63.1" y="110.6" fill="#666351" width="25.7" height="2.8"/>
		<rect x="63.1" y="106.3" fill="#666351" width="25.7" height="2.8"/>
		<rect x="63.1" y="101.9" fill="#666351" width="25.7" height="2.8"/>
		<rect x="63.1" y="97.5" fill="#666351" width="25.7" height="2.8"/>
		<rect x="63.1" y="93.2" fill="#666351" width="25.7" height="2.8"/>
		<rect x="63.1" y="88.8" fill="#666351" width="25.7" height="2.8"/>
		<rect x="63.1" y="84.4" fill="#666351" width="25.7" height="2.8"/>
		<rect x="63.1" y="80.1" fill="#666351" width="25.7" height="2.8"/>
		<rect x="63.1" y="75.7" fill="#666351" width="25.7" height="2.8"/>
		<rect x="63.1" y="71.3" fill="#666351" width="25.7" height="2.8"/>
		<rect x="63.1" y="66.9" fill="#666351" width="25.7" height="2.8"/>
		<rect x="44.7" y="119.4" fill="#EED97B" width="16.7" height="2.8"/>
		<rect x="44.7" y="115" fill="#EED97B" width="16.7" height="2.8"/>
		<rect x="44.7" y="110.6" fill="#EED97B" width="16.7" height="2.8"/>
		<rect x="44.7" y="106.3" fill="#EED97B" width="16.7" height="2.8"/>
		<rect x="44.7" y="101.9" fill="#EED97B" width="16.7" height="2.8"/>
		<rect x="44.7" y="97.5" fill="#EED97B" width="16.7" height="2.8"/>
		<rect x="44.7" y="93.2" fill="#EED97B" width="16.7" height="2.8"/>
		<rect x="44.7" y="88.8" fill="#EED97B" width="16.7" height="2.8"/>
		<rect x="44.7" y="84.4" fill="#EED97B" width="16.7" height="2.8"/>
		<rect x="44.7" y="80.1" fill="#EED97B" width="16.7" height="2.8"/>
		<rect x="63.1" y="62.8" fill="#666351" width="25.7" height="2.8"/>
		<rect x="63.1" y="58.5" fill="#666351" width="25.7" height="2.8"/>
		<rect x="63.1" y="54.1" fill="#666351" width="25.7" height="2.8"/>
		<rect x="63.1" y="49.7" fill="#666351" width="25.7" height="2.8"/>
		<rect x="63.1" y="45.3" fill="#666351" width="25.7" height="2.8"/>
		<rect x="44.7" y="75.8" fill="#EED97B" width="16.7" height="2.8"/>
		<rect x="44.7" y="71.5" fill="#EED97B" width="16.7" height="2.8"/>
		<rect x="90.3" y="119.4" fill="#E9AC6F" width="16.7" height="2.8"/>
		<rect x="90.3" y="115" fill="#E9AC6F" width="16.7" height="2.8"/>
		<rect x="90.3" y="110.6" fill="#E9AC6F" width="16.7" height="2.8"/>
		<rect x="90.3" y="106.3" fill="#E9AC6F" width="16.7" height="2.8"/>
		<rect x="90.3" y="101.9" fill="#E9AC6F" width="16.7" height="2.8"/>
		<rect x="90.3" y="97.5" fill="#E9AC6F" width="16.7" height="2.8"/>
		<rect x="90.3" y="93.2" fill="#E9AC6F" width="16.7" height="2.8"/>
		<rect x="90.3" y="88.8" fill="#E9AC6F" width="16.7" height="2.8"/>
		<rect x="90.3" y="84.4" fill="#E9AC6F" width="16.7" height="2.8"/>
		<rect x="90.3" y="80.1" fill="#E9AC6F" width="16.7" height="2.8"/>
		<rect x="108.5" y="120.8" fill="#E5C81E" width="12.8" height="1.3"/>
		<rect x="108.5" y="118.7" fill="#E5C81E" width="12.8" height="1.3"/>
		<rect x="108.5" y="116.6" fill="#E5C81E" width="12.8" height="1.3"/>
		<rect x="108.5" y="114.5" fill="#E5C81E" width="12.8" height="1.3"/>
		<rect x="108.5" y="112.4" fill="#E5C81E" width="12.8" height="1.3"/>
		<rect x="108.5" y="110.3" fill="#E5C81E" width="12.8" height="1.3"/>
		<rect x="108.5" y="108.2" fill="#E5C81E" width="12.8" height="1.3"/>
		<rect x="108.5" y="106" fill="#E5C81E" width="12.8" height="1.3"/>
		<rect x="108.5" y="103.9" fill="#E5C81E" width="12.8" height="1.3"/>
		<rect x="108.5" y="101.8" fill="#E5C81E" width="12.8" height="1.3"/>
		<rect x="108.5" y="99.7" fill="#E5C81E" width="12.8" height="1.3"/>
		<rect x="108.5" y="97.6" fill="#E5C81E" width="12.8" height="1.3"/>
		<rect x="108.5" y="95.5" fill="#E5C81E" width="12.8" height="1.3"/>
		<rect x="108.5" y="93.3" fill="#E5C81E" width="12.8" height="1.3"/>
		<rect x="108.5" y="91.2" fill="#E5C81E" width="12.8" height="1.3"/>
		<rect x="30.6" y="120.8" fill="#E9AC6F" width="12.8" height="1.3"/>
		<rect x="30.6" y="118.7" fill="#E9AC6F" width="12.8" height="1.3"/>
		<rect x="30.6" y="116.6" fill="#E9AC6F" width="12.8" height="1.3"/>
		<rect x="30.6" y="114.5" fill="#E9AC6F" width="12.8" height="1.3"/>
		<rect x="30.6" y="112.4" fill="#E9AC6F" width="12.8" height="1.3"/>
		<rect x="30.6" y="110.3" fill="#E9AC6F" width="12.8" height="1.3"/>
		<rect x="30.6" y="108.2" fill="#E9AC6F" width="12.8" height="1.3"/>
		<rect x="30.6" y="106" fill="#E9AC6F" width="12.8" height="1.3"/>
		<rect x="30.6" y="103.9" fill="#E9AC6F" width="12.8" height="1.3"/>
		<rect x="30.6" y="101.8" fill="#E9AC6F" width="12.8" height="1.3"/>
	</g>
	<g>
		<path fill="#E5C81E" d="M30,62.8c11.8-15.3,28-24.7,45.9-24.7c17.8,0,34,9.4,45.9,24.7c11.7,15.1,21.9,36.1,22.1,59.3l0,0
			c-0.4-47.9-30.3-92.7-68-92.8c-37.7,0.1-67.6,44.9-68,92.8l0,0C8.1,98.9,18.3,78,30,62.8z"/>
	</g>
</g>
</svg>
