<?xml version="1.0" encoding="utf-8"?>
<!-- Generator: Adobe Illustrator 18.1.0, SVG Export Plug-In . SVG Version: 6.00 Build 0)  -->
<svg version="1.0" id="Layer_1" xmlns="http://www.w3.org/2000/svg" xmlns:xlink="http://www.w3.org/1999/xlink" x="0px" y="0px"
	 viewBox="0 0 150 150" enable-background="new 0 0 150 150" xml:space="preserve">
<g>
	<path fill="#480000" d="M111.3,5.7v73.4c-4.7,2.9-12.2,7.2-21.6,12V5.7H111.3z"/>
	<path fill="#AC1519" d="M82.1,29.9v65c-6.6,3.2-13.8,6.5-21.5,9.6V29.9H82.1z"/>
	<path fill="#DC1F26" d="M51.9,58.4v49.4c-6.9,2.6-14.1,5-21.6,7.1V58.4H51.9z"/>
	<path fill="#DC1F26" d="M124.8,88.6c-45,32.4-76.9,40.3-77.9,40.5c30.9-5.1,67.3-27.1,77.1-33.3c-4.8,28.1-29.8,49-59.1,48
		c-17.7-0.6-33.2-9.1-43.4-21.9c47.7-4.6,102.5-45.8,102.5-45.8c0.7,3.8,0.9,7.8,0.8,11.8C124.9,88.2,124.8,88.4,124.8,88.6z"/>
</g>
</svg>
