<?xml version="1.0" encoding="utf-8"?>
<!-- Generator: Adobe Illustrator 18.1.0, SVG Export Plug-In . SVG Version: 6.00 Build 0)  -->
<svg version="1.1" id="Layer_1" xmlns="http://www.w3.org/2000/svg" xmlns:xlink="http://www.w3.org/1999/xlink" x="0px" y="0px"
	 viewBox="0 0 150 150" enable-background="new 0 0 150 150" xml:space="preserve">
<g>
	<polygon fill="#7B8014" points="50.3,43.2 50.3,46.3 99.5,46.3 99.5,40.5 97.9,40.5 94.8,35.2 90.2,27.2 85.6,35.2 82.5,40.5 
		79.5,35.2 74.8,27.2 70.2,35.2 67.2,40.5 64.1,35.2 59.5,27.2 54.9,35.2 51.8,40.5 50.3,40.5 50.3,43.1 50.3,43.2 	"/>
	<rect x="50.3" y="49.6" fill="#CCCE2A" width="49.2" height="5.8"/>
	<g>
		<path fill="#CCCE2A" d="M26.5,106.6C14.5,96.6,7,82.9,7,67.8c0-30.5,30.4-55.4,67.9-55.4s67.9,24.8,67.9,55.4
			c0,15-7.4,28.6-19.3,38.6c-1.3,1.1-2.7,2.1-4,3.1l1.7,3.7c1.4-1,2.8-1.9,4.1-3c13.4-10.8,21.7-25.9,21.7-42.5
			c0-32.8-32.3-59.5-72-59.5S2.8,35,2.8,67.8c0,16.7,8.4,31.8,21.8,42.6c1.4,1.1,2.9,2.2,4.4,3.2l1.8-3.8
			C29.4,108.8,27.9,107.7,26.5,106.6z"/>
		<path fill="#7B8014" d="M137.9,67.8c0-26.6-24.4-48.5-55.8-51.5c-2.4-0.2-4.8-0.4-7.2-0.4c-1.8,0-3.5,0.1-5.2,0.2
			c-32.3,2.2-57.8,24.5-57.8,51.7c0,13.4,6.3,25.7,16.5,34.9c1.4,1.2,2.8,2.3,4.3,3.4l0.6-1.3c-1.5-1.1-3-2.2-4.3-3.5
			c-9.8-8.9-15.7-20.7-15.7-33.6C13.2,41.6,37.8,20,69,17.6c1.9-0.1,3.9-0.2,5.9-0.2c2.7,0,5.3,0.2,7.9,0.5
			c30.3,3.2,53.7,24.4,53.7,50c0,12.8-5.9,24.5-15.5,33.4c-1.2,1.2-2.6,2.2-3.9,3.3l0.6,1.3c1.4-1,2.7-2.1,4-3.3
			C131.7,93.3,137.9,81.2,137.9,67.8z"/>
		<path fill="#CCCE2A" d="M90.5,58.1H60.9L20.8,142h17l13.4-27.8h39.5l12.7,27.8H129L90.5,58.1z M55.9,104.7l15.6-32.9l15.1,32.9
			H55.9z"/>
	</g>
</g>
</svg>
