<?xml version="1.0" encoding="utf-8"?>
<!-- Generator: Adobe Illustrator 18.1.0, SVG Export Plug-In . SVG Version: 6.00 Build 0)  -->
<svg version="1.1" id="Layer_1" xmlns="http://www.w3.org/2000/svg" xmlns:xlink="http://www.w3.org/1999/xlink" x="0px" y="0px"
	 viewBox="0 0 2000 2000" enable-background="new 0 0 2000 2000" xml:space="preserve">
<g>
	<path fill="none" d="M973.6,330.2c-358.4,0-650,291.6-650,650c0,358.4,291.6,650,650,650c156,0,299.4-55.3,411.5-147.3l223.1,71.6
		l-79.6-236.3c60.2-98.6,95-214.3,95-338C1623.6,621.8,1332,330.2,973.6,330.2z M683.7,525.5c64.7,0,117.2,52.4,117.2,117.2
		c0,64.7-52.5,117.2-117.2,117.2c-64.7,0-117.2-52.5-117.2-117.2C566.5,577.9,619,525.5,683.7,525.5z M684.5,1437.6
		c-64.7,0-117.2-52.5-117.2-117.2c0-64.7,52.5-117.2,117.2-117.2c64.7,0,117.2,52.5,117.2,117.2
		C801.7,1385.2,749.2,1437.6,684.5,1437.6z M1303.7,792.5c-64.7,0-117.2-52.5-117.2-117.2s52.5-117.2,117.2-117.2
		c64.7,0,117.2,52.5,117.2,117.2S1368.4,792.5,1303.7,792.5z"/>
	<path fill="#C36C69" d="M1722.2,1373.1c60.8-116.5,95.4-258.1,95.4-385.1h-194.1c0,117-34.8,235.6-95,334.1l79.6,234.4l-224.8-72.6
		c-112.2,92-255.3,146.3-413.3,146.3v194c180,0,342.6-54.7,478.3-147.9l422,137.1L1722.2,1373.1z"/>
	<path fill="#FD9A2B" d="M684.5,1203.3c-64.7,0-117.2,52.5-117.2,117.2c0,64.7,52.5,117.2,117.2,117.2
		c64.7,0,117.2-52.5,117.2-117.2C801.7,1255.7,749.2,1203.3,684.5,1203.3z"/>
	<path fill="#FD9A2B" d="M323.5,988h-194c0,456,374.5,836.3,840.5,836.3v-194C610,1630.2,323.5,1348,323.5,988z"/>
	<path fill="#6CAB36" d="M683.7,759.8c64.7,0,117.2-52.5,117.2-117.2c0-64.7-52.5-117.2-117.2-117.2c-64.7,0-117.2,52.4-117.2,117.2
		C566.5,707.3,619,759.8,683.7,759.8z"/>
	<path fill="#6CAB36" d="M970,330.2v-194C504,136.2,129.5,523,129.5,988h194C323.5,618,610,330.2,970,330.2z"/>
	<path fill="#00A9DE" d="M1623.6,988h194.1c0-465-382.6-851.8-847.6-851.8v194C1329,330.2,1623.6,618,1623.6,988z"/>
	<path fill="#00A9DE" d="M1303.7,558.2c-64.7,0-117.2,52.5-117.2,117.2s52.5,117.2,117.2,117.2c64.7,0,117.2-52.5,117.2-117.2
		S1368.4,558.2,1303.7,558.2z"/>
</g>
</svg>
