<?xml version="1.0" encoding="utf-8"?>
<!-- Generator: Adobe Illustrator 18.1.0, SVG Export Plug-In . SVG Version: 6.00 Build 0)  -->
<svg version="1.1" id="Layer_1" xmlns="http://www.w3.org/2000/svg" xmlns:xlink="http://www.w3.org/1999/xlink" x="0px" y="0px"
	 viewBox="0 0 2000 2000" enable-background="new 0 0 2000 2000" xml:space="preserve">
<g>
	<path fill="#F79420" d="M1094.6,652.1c7.9,108.3,47.6,229.2,156.2,348.3c85.4,66.5,141.2,170.5,143,287.3
		c0.2,10.6-1.9,41.2-1.9,41.2l-79.9,388.1h-19c0.1,0,0.4-5.1,0.4-6.9l-41.3-393.6c0-9.6-1.4-18.8-3.4-27.2l-0.3-16.9
		c11.6-11.2,19.1-26.7,19.1-44.1c0-34.2-27.7-62-61.9-62c-34.2,0-62,27.7-62,61.9c0,17.1,6.9,32.5,18.1,43.7
		c-8,12.1-13,27.1-13,43.6l-31,394.4c0,1.8,0.3,6.9,0.4,6.9h-10.1l-40.5-386.5c0-4.8-0.7-10.2-1.2-14.7l-0.5-32
		c10.4-11,17.1-25.8,17.1-42.2c0-17.3-7.1-32.9-18.5-44.2l0-3.5l-4,0c-10.7-8.9-24.4-14.5-39.4-14.5c-34.2,0-62,27.7-62,61.9
		c0,17.1,6.9,32.5,18.1,43.8c-8,12.2-13,27.2-13,43.7l-29.4,372.7l-38.5-366.1c0-13.7-2.3-26.2-6.4-37.1l0-3.5
		c13.3-11.3,21.9-27.9,21.9-46.8c0-34.2-27.7-62-61.9-62c-16.8,0-32,6.7-43.1,17.6l-3.2,0l0,3.5c-9.7,10.9-15.7,25.1-15.7,40.9
		c0,16.5,6.5,31.4,17,42.5l0,3.1c-7.4,11.8-11.9,27.8-11.9,43.5L763.5,1717h-15.7L654,1298.7c0,0-0.6-18-0.4-24.6
		c5.4-96.6,47.1-183.5,111.7-246.7c0.3-0.3,1.1-1.4,1.1-2C878.8,907.3,913.3,773,915.8,650.9c-305.1,41.6-540.4,305.7-540.4,625.5
		c0,348.7,279.7,631.4,624.9,631.4c345.1,0,624.9-282.7,624.9-631.4C1625.1,960.1,1394.9,698.1,1094.6,652.1z"/>
	<path fill="#8CBD43" d="M614.4,394.5c103.2-10.5,71.4,106.1,154.3,165.8c75.4,54.4,129.6,57.1,166.5,44.1
		c-11.8-1.4-84.2-29.7-113-102.7c-31.4-79.5,95,71.2,134.6,40.7c-25.3-28.3-6.3-106.4-71.9-151.2
		C741.1,293.1,566.3,399.3,614.4,394.5z"/>
	<path fill="#8CBD43" d="M1033.9,464.6c45.9-77.1,132.2-69,194.9-147.8c0,0-11.8,58.6-87.7,110.9c-45.9,31.8-60.3,60.2-69.5,101.9
		c94.2-46.3,215.9-46.2,294.3-164.2c58-87.4-8.8-307.3-36.8-268c-72.9,102.3-174.9,73.8-296.1,208.6
		c-136,151.3-18.9,300.8-18.9,300.8C1011.5,598.3,1008.7,507.2,1033.9,464.6z"/>
</g>
</svg>
