<?xml version="1.0" encoding="utf-8"?>
<!-- Generator: Adobe Illustrator 16.0.0, SVG Export Plug-In . SVG Version: 6.00 Build 0)  -->
<!DOCTYPE svg PUBLIC "-//W3C//DTD SVG 1.1//EN" "http://www.w3.org/Graphics/SVG/1.1/DTD/svg11.dtd">
<svg version="1.1" id="Layer_1" xmlns="http://www.w3.org/2000/svg" xmlns:xlink="http://www.w3.org/1999/xlink" x="0px" y="0px"
	 width="100px" height="100px" viewBox="0 0 100 100" enable-background="new 0 0 100 100" xml:space="preserve">
<g>
	<path fill="#8BC53F" d="M19.697,34.407c0,0-2.396,4.61,1.677,8.558c4.074,3.947,9.561,8.253,6.443,13.872
		c-3.12,5.62-10.241,2.78-12.37-3.956C13.324,46.145,13.801,41.04,19.697,34.407z"/>
	<path fill="#8BC53F" d="M38.999,34.407c0,0,2.393,4.61-1.684,8.558c-4.071,3.947-9.558,8.253-6.44,13.872
		c3.12,5.62,10.245,2.78,12.37-3.956C45.371,46.145,44.891,41.04,38.999,34.407z"/>
	<path fill="#8BC53F" d="M91.005,71.052c-3.224-1.62-6.524-2.985-9.886-4.116c-3.346-1.161-6.763-2.06-10.194-2.75
		c-6.882-1.33-13.888-1.662-20.743-0.715l-5.317,0.746c-1.787,0.229-3.577,0.458-5.375,0.65c-3.596,0.367-7.225,0.68-10.908,0.629
		c-3.663-0.023-7.449-0.417-10.988-1.716c-3.534-1.317-6.573-3.572-8.989-6.242c3.002,2.008,6.174,3.672,9.552,4.369
		c3.358,0.765,6.844,0.719,10.331,0.48c7.004-0.584,14.019-1.844,21.158-2.865c7.374-1.007,14.933-0.382,22,1.649
		c3.545,0.988,6.963,2.348,10.23,3.968C85.112,66.81,88.256,68.688,91.005,71.052z"/>
	<radialGradient id="SVGID_1_" cx="53.1465" cy="66.7061" r="26.7831" gradientUnits="userSpaceOnUse">
		<stop  offset="0" style="stop-color:#009345"/>
		<stop  offset="0.2423" style="stop-color:#00863F"/>
		<stop  offset="0.69" style="stop-color:#00642F"/>
		<stop  offset="1" style="stop-color:#004822"/>
	</radialGradient>
	<path fill="url(#SVGID_1_)" d="M90.778,71.009c-3.046-1.184-6.125-2.14-9.244-2.888c-3.106-0.772-6.249-1.31-9.39-1.659
		c-6.285-0.656-12.6-0.424-18.679,0.933l-4.737,1.068c-1.592,0.337-3.189,0.673-4.797,0.978c-3.218,0.591-6.473,1.137-9.803,1.348
		c-3.315,0.238-6.771,0.146-10.065-0.785c-3.298-0.953-6.197-2.789-8.55-5.05c2.878,1.552,5.866,2.786,8.952,3.137
		c3.074,0.414,6.194,0.092,9.311-0.391c6.246-1.077,12.468-2.737,18.832-4.191c6.596-1.463,13.479-1.445,20.011-0.109
		c3.273,0.644,6.458,1.635,9.521,2.875C85.176,67.564,88.145,69.05,90.778,71.009z"/>
	<radialGradient id="SVGID_2_" cx="27.6577" cy="44.9683" r="15.1436" gradientUnits="userSpaceOnUse">
		<stop  offset="0" style="stop-color:#009345"/>
		<stop  offset="0.2423" style="stop-color:#00863F"/>
		<stop  offset="0.69" style="stop-color:#00642F"/>
		<stop  offset="1" style="stop-color:#004822"/>
	</radialGradient>
	<path fill="url(#SVGID_2_)" d="M12.262,38.601c0,0-0.104,5.194,5.297,6.929c5.401,1.735,12.23,3.16,11.926,9.581
		c-0.308,6.418-7.95,7.029-12.841,1.937C11.753,51.948,9.917,47.162,12.262,38.601z"/>
	<radialGradient id="SVGID_3_" cx="27.6558" cy="44.9683" r="15.1445" gradientUnits="userSpaceOnUse">
		<stop  offset="0" style="stop-color:#009345"/>
		<stop  offset="0.2423" style="stop-color:#00863F"/>
		<stop  offset="0.69" style="stop-color:#00642F"/>
		<stop  offset="1" style="stop-color:#004822"/>
	</radialGradient>
	<path fill="url(#SVGID_3_)" d="M46.431,38.601c0,0,0.104,5.194-5.297,6.929c-5.401,1.735-12.23,3.16-11.925,9.581
		c0.307,6.418,7.952,7.029,12.841,1.937C46.939,51.948,48.778,47.162,46.431,38.601z"/>
	<radialGradient id="SVGID_4_" cx="27.6567" cy="44.9692" r="15.1454" gradientUnits="userSpaceOnUse">
		<stop  offset="0" style="stop-color:#009345"/>
		<stop  offset="0.2423" style="stop-color:#00863F"/>
		<stop  offset="0.69" style="stop-color:#00642F"/>
		<stop  offset="1" style="stop-color:#004822"/>
	</radialGradient>
	<path fill="url(#SVGID_4_)" d="M29.955,30.138c-3.459,4.654-7.676,12.513-8.989,16.185c1.181,4.456,8.989,8.788,8.989,8.788
		s7.812-4.332,8.992-8.788C37.634,42.651,33.42,34.792,29.955,30.138z"/>
</g>
</svg>
