<?xml version="1.0" encoding="utf-8"?>
<!-- Generator: Adobe Illustrator 18.1.0, SVG Export Plug-In . SVG Version: 6.00 Build 0)  -->
<svg version="1.1" id="Layer_1" xmlns="http://www.w3.org/2000/svg" xmlns:xlink="http://www.w3.org/1999/xlink" x="0px" y="0px"
	 viewBox="0 0 150 150" enable-background="new 0 0 150 150" xml:space="preserve">
<g>
	<path fill="#1D4077" d="M88.4,14.7c1.2,2.4,1.8,5.1,1.8,8.1c0,8.1-4.1,19.1-12.2,33C69.9,69.6,61,79.4,51.4,85
		c-3.7,9.8-5.6,19.1-5.6,27.8c0,0.4,0,1,0.1,1.8c0.1,0.8,0.1,1.3,0.1,1.6c0.2-0.3,0.9-2,2.1-5.1c1.2-3.1,2.6-6.3,4.2-9.6
		c1.6-3.4,3.7-6.8,6.1-10.5c2.4-3.6,5.4-6.6,9.1-8.9c3.6-2.3,7.5-3.5,11.7-3.5c5.1,0,8.7,1.6,11,4.7s3.5,6.9,3.5,11.1
		c0,3.9-1.1,8.6-3.4,14.4c-2.3,5.7-3.4,9.7-3.4,11.9c0,3.5,1.4,5.3,4.3,5.3h0.2c3.6,0,8.1-2.6,13.4-7.9c5.3-5.3,9.7-11.5,13.1-18.6
		l2.6,2.8c-4.1,9-9,16.3-14.8,21.9c-5.8,5.6-12,8.4-18.6,8.4c-4.1,0-7.3-1.1-9.6-3.2c-2.3-2.1-3.4-4.9-3.4-8.3
		c0-2.2,0.8-6.2,2.4-11.9c1.6-5.7,2.4-9.7,2.4-12c0-4.6-2-6.9-5.9-6.9c-3.7,0-7.2,2.3-10.5,7c-3.2,4.7-5.8,9.8-7.8,15.3
		c-1.9,5.6-4.3,10.7-7,15.3c-1.3,2.3-2.7,4-4,5.1c8.4,4,17.7,6.3,27.6,6.3c35.5,0,64.2-28.8,64.2-64.2c0-30-20.6-55.2-48.5-62.2
		C87.6,13.4,88,14,88.4,14.7z M113.7,51l3.3-0.5l-3.4-4.7l4.7,3.4l0.5-3.3l0.5,3.3l4.7-3.4l-3.4,4.7l3.3,0.5l-3.3,0.5l3.4,4.7
		l-4.7-3.4l-0.5,3.3l-0.5-3.3l-4.7,3.4l3.4-4.7L113.7,51z"/>
	<path fill="#1D4077" d="M41.8,76.2c6.2-16.9,13.3-32,21.6-45.2c6.9-11.2,12.7-17.6,17.4-19.3c-3.1-0.5-6.2-0.8-9.4-0.8
		c-35.5,0-64.2,28.8-64.2,64.2c0,21.3,10.4,40.2,26.4,51.9c-0.6-3-1-6.6-1-10.7C32.6,106.4,35.7,93.1,41.8,76.2z M24.9,84.1l-1.7-2
		l-2.5,1l2-1.7l-1-2.5l1.7,2l2.5-1l-2,1.7L24.9,84.1z M28,62.9l-2.7-2l-0.9,5.7L23.4,61l-2.7,2l2-2.7L17,59.3l5.7-0.9l-2-2.7l2.7,2
		l0.9-5.7l0.9,5.7l2.7-2l-2,2.7l5.7,0.9l-5.7,0.9L28,62.9z"/>
	<path fill="#1D4077" d="M82.6,26.4c-2.3,0.9-6.6,6.4-12.8,16.4c-6.2,10.1-11.2,20.5-14.9,31.4c6.7-6,13-14.5,18.9-25.2
		C79.7,38.2,82.6,30.6,82.6,26.4z"/>
	<path fill="#73BF44" d="M129.1,30.2C104.7,0.1,60.5-4.5,30.4,19.9C25.1,24.1,20.7,29,17,34.2c3.3-4.3,7.1-8.3,11.5-11.8
		c29.5-23.9,72.7-19.3,96.6,10.1c23.9,29.5,19.3,72.7-10.1,96.6c-13.6,11.1-30.3,16-46.5,15.2c17.5,1.5,35.6-3.4,50.4-15.4
		C148.9,104.6,153.5,60.4,129.1,30.2z"/>
</g>
</svg>
