<?xml version="1.0" encoding="utf-8"?>
<!-- Generator: Adobe Illustrator 18.1.0, SVG Export Plug-In . SVG Version: 6.00 Build 0)  -->
<svg version="1.1" id="Layer_1" xmlns="http://www.w3.org/2000/svg" xmlns:xlink="http://www.w3.org/1999/xlink" x="0px" y="0px"
	 viewBox="0 0 150 150" enable-background="new 0 0 150 150" xml:space="preserve">
<g>
	<path fill="#3797B6" d="M24.4,90.7c-11.9-30.3,16.9-39.1,26.7-34c0,0,6.7-25.1,32-16.8c0,0-19.8-14.8-35.7,7.3
		c0,0-29.8-6.8-38.1,15c-10.7,28.1,17.1,69.7,73.2,57.5C82.4,119.6,36.2,121,24.4,90.7z M34.9,98.7c0,0,31.9,25.9,69.9,13.3
		C104.8,112,63.8,115,34.9,98.7z M127.6,84.4c0,0,22.7-21.3,12.3-28.1c-10.4-6.8-25.3,31.4-25.3,31.4l-6.4-11.9
		c-1.2,0.5,7.1,19.2,7.1,19.2l0.8-3c0,0,25.4,7.3,26.8-2.9C144.3,79,127.6,84.4,127.6,84.4z"/>
	<path fill="#006DB6" d="M77.4,77.4c-2.2-27.2,24.4-20,26.4-9.1c0,0-1.1-8.5-7.3-17.1c0,0-10.9-17-32.8-4.7c0,0-10.3,7.6-9.5,18.4
		c0,0-8.4,0.7-15.9,11.4c0,0,20-1.4,25.3,1.1l-6.4,0.9c0,0,13.1,44.7,62.1,20.6C119.2,98.9,79.7,104.6,77.4,77.4z M65.3,69.8
		c-2.5,0-4.5-2-4.5-4.5c0-2.5,2-4.5,4.5-4.5c2.5,0,4.5,2,4.5,4.5C69.8,67.8,67.8,69.8,65.3,69.8z"/>
</g>
</svg>
