<?xml version="1.0" encoding="utf-8"?>
<!-- Generator: Adobe Illustrator 18.1.0, SVG Export Plug-In . SVG Version: 6.00 Build 0)  -->
<svg version="1.1" id="Layer_1" xmlns="http://www.w3.org/2000/svg" xmlns:xlink="http://www.w3.org/1999/xlink" x="0px" y="0px"
	 viewBox="0 0 2000 2000" enable-background="new 0 0 2000 2000" xml:space="preserve">
<g>
	<path fill="none" d="M1055.5,668.5c5.5,0,6.5-4.5,6.5-10v-31.4c0-5.5-1-10-6.5-10c-5.5,0-6.5,4.5-6.5,10v31.4
		C1049,664.1,1050,668.5,1055.5,668.5z"/>
	<path fill="#FFB602" d="M631.8,761.7c62.6,10.4,114.8-3.5,114.8-3.5s62.6,17.4,128.7,3.5c12.1,3,87.4,16.6,95.3-23.5
		c-20.8-62.5-99-98.2-192.7-98.2c-91.2,0-167.8,36.3-190.9,94.5C588.4,744.1,597.7,756,631.8,761.7z M829.4,725.6
		c-1.6,0-2.8-1.3-2.8-2.9c0-1.6,1.3-2.8,2.8-2.8c1.6,0,2.8,1.3,2.8,2.8C832.2,724.3,830.9,725.6,829.4,725.6z M867.9,691.4
		c2.4,0,4.3,1.9,4.3,4.3c0,2.4-1.9,4.3-4.3,4.3s-4.3-1.9-4.3-4.3C863.6,693.3,865.5,691.4,867.9,691.4z M819.4,662.8
		c8.7,0,15.7,7,15.7,15.7c0,8.7-7,15.7-15.7,15.7c-8.7,0-15.7-7-15.7-15.7C803.7,669.9,810.7,662.8,819.4,662.8z M783.7,660
		c4.7,0,8.6,3.8,8.6,8.6c0,4.7-3.8,8.5-8.6,8.5c-4.7,0-8.6-3.8-8.6-8.5C775.2,663.8,779,660,783.7,660z M735.2,682.8
		c3.2,0,5.7,2.6,5.7,5.7c0,3.1-2.6,5.7-5.7,5.7c-3.1,0-5.7-2.6-5.7-5.7C729.6,685.3,732.1,682.8,735.2,682.8z"/>
	<path fill="#FFB602" d="M903.2,793c-8.2,1.2-16.4,2.1-24.6,2.7c-12.4,6.9-24.9,5.4-35.3,1.1c-22.1,0-44.5-1.2-67.2-2.4
		c-4.6,1.9-10.5,3.7-17.9,5.3c-15.8,0-26.1-3-32.9-7.1c-12.4-0.2-25-0.2-37.7,0.4c-44.7-11.9-99.4-16.7-103.3,6.4
		c4.4,13.7,12,24.6,22.2,37.6h343.1c5.2,0,9.6-11.6,13.4-18.1C962.8,809.6,956.6,790.3,903.2,793z"/>
	<path fill="#FFAF3A" d="M1416.8,660c-85.5-31.4-185.3,62.7-185.3,62.7L1220,828.2c0,0,99.8-2.9,102.7,0
		C1391.1,819.7,1502.3,691.4,1416.8,660z M1351.2,702.8c-3.1,0-5.7-2.5-5.7-5.7c0-3.1,2.6-5.7,5.7-5.7c3.2,0,5.7,2.6,5.7,5.7
		C1356.9,700.2,1354.3,702.8,1351.2,702.8z M1371.1,742.7c-3.1,0-5.7-2.6-5.7-5.7c0-3.1,2.6-5.7,5.7-5.7c3.2,0,5.7,2.6,5.7,5.7
		C1376.8,740.1,1374.3,742.7,1371.1,742.7z M1409.6,711.3c-1.6,0-3-0.4-4.3-1.1c-3.3-1.6-5.6-4.9-5.6-8.9c0-0.1,0.1-0.2,0.1-0.3
		c0.2-5.4,4.5-9.7,9.9-9.7c5.5,0,10,4.5,10,10C1419.6,706.8,1415.1,711.3,1409.6,711.3z"/>
	<path fill="#FFB602" d="M1522.3,824c0,0,20-25,8.5-44.9c-22.8-34.2-51.3-8.9-51.3-8.9l17.1,53.8H1522.3z"/>
	<path fill="#FFAF3A" d="M735.2,694.2c3.2,0,5.7-2.6,5.7-5.7c0-3.2-2.6-5.7-5.7-5.7c-3.1,0-5.7,2.6-5.7,5.7
		C729.6,691.7,732.1,694.2,735.2,694.2z"/>
	<path fill="#FFAF3A" d="M783.7,677.1c4.7,0,8.6-3.8,8.6-8.5c0-4.7-3.8-8.6-8.6-8.6c-4.7,0-8.6,3.8-8.6,8.6
		C775.2,673.3,779,677.1,783.7,677.1z"/>
	<path fill="#FFAF3A" d="M819.4,694.2c8.7,0,15.7-7,15.7-15.7c0-8.7-7-15.7-15.7-15.7c-8.7,0-15.7,7-15.7,15.7
		C803.7,687.2,810.7,694.2,819.4,694.2z"/>
	<path fill="#FFAF3A" d="M867.9,699.9c2.4,0,4.3-1.9,4.3-4.3c0-2.4-1.9-4.3-4.3-4.3s-4.3,1.9-4.3,4.3
		C863.6,698,865.5,699.9,867.9,699.9z"/>
	<path fill="#FFAF3A" d="M829.4,719.9c-1.6,0-2.8,1.3-2.8,2.8c0,1.6,1.3,2.9,2.8,2.9c1.6,0,2.8-1.3,2.8-2.9
		C832.2,721.1,830.9,719.9,829.4,719.9z"/>
	<path fill="#FFB602" d="M1351.2,691.4c-3.1,0-5.7,2.6-5.7,5.7c0,3.2,2.6,5.7,5.7,5.7c3.2,0,5.7-2.5,5.7-5.7
		C1356.9,693.9,1354.3,691.4,1351.2,691.4z"/>
	<path fill="#FFB602" d="M1409.6,691.4c-5.4,0-9.7,4.3-9.9,9.7c0,0.1-0.1,0.2-0.1,0.3c0,3.9,2.3,7.3,5.6,8.9
		c1.3,0.7,2.8,1.1,4.3,1.1c5.5,0,10-4.5,10-10C1419.6,695.8,1415.1,691.4,1409.6,691.4z"/>
	<path fill="#FFB602" d="M1371.1,731.3c-3.1,0-5.7,2.6-5.7,5.7c0,3.1,2.6,5.7,5.7,5.7c3.2,0,5.7-2.6,5.7-5.7
		C1376.8,733.8,1374.3,731.3,1371.1,731.3z"/>
	<path fill="#D36149" d="M776,794.4c20.1-8.1,16.3-17.5,16.3-17.5l-45.6-8.5l-34.2,2.8c0,0-1.3,13,12.8,21.4
		c6.8,4.1,17.1,7.1,32.9,7.1C765.5,798.1,771.4,796.3,776,794.4z"/>
	<path fill="#D36149" d="M1436.7,765.5l-42.8,39.9l-2.8,19.9c0,0,94.1,2.9,97,0C1488,762.6,1436.7,765.5,1436.7,765.5z"/>
	<path fill="#D36149" d="M878.6,795.7c6.5-3.6,13.1-9.5,19.2-18.8l-79.8,2.8c0,0,10.6,11.1,25.3,17.1
		C853.7,801,866.2,802.6,878.6,795.7z"/>
	<path fill="#D36149" d="M1031.8,467l-2.8,370h148V467h-102v111.7c0,7.1-5.9,12.8-13,12.8c-7.1,0-13-5.8-13-12.8V467H1031.8z
		 M1049,627.2c0-5.5,1-10,6.5-10c5.5,0,6.5,4.5,6.5,10v31.4c0,5.5-1,10-6.5,10c-5.5,0-6.5-4.5-6.5-10V627.2z"/>
	<path fill="#5DCB87" d="M579.8,774c7.3-7.8,10.7-16.8,1.5-19.3c-0.9-0.2-1.7-0.5-2.8-0.6c0,0-28.5,2.8-25.6,25.7
		C554.3,792.2,570.2,784.3,579.8,774z"/>
	<path fill="#5DCB87" d="M926.3,776.9c0,0,42.8,22.8,45.6,8.6C974.8,771.2,926.3,776.9,926.3,776.9z"/>
	<path fill="#0DB14B" d="M1418,886.9c6.9-11.8-27.8-52.2-121.8-7c-7,3.5-66.1,31.3-66.1,31.3s13.9-52.2-7-52.2
		c-20.9,0-139.1,24.3-247,20.9c-90.5,3.5-128.7,23.8-132.2,51.6c0,0-292.2-18.5-327-94.5h89.4c-10.2-13-17.8-24-22.2-37.6
		c3.9-23.1,58.6-18.6,103.3-6.7c12.8-0.6,25.3-0.4,37.7-0.2c-14-8.4-12.8-21.3-12.8-21.3l34.2-2.8l45.6,8.6c0,0,3.8,9.4-16.3,17.5
		c22.8,1.2,45.1,2.4,67.2,2.4c-14.7-5.9-25.3-17.1-25.3-17.1l79.8-2.8c-6.1,9.2-12.7,15.1-19.2,18.8c8.2-0.6,16.4-1.5,24.6-2.7
		c53.4-2.7,59.6,16.6,59.6,26c-3.7,6.5-8.2,18.1-13.4,18.1H998V519.1c0,0-14.5-160.8,74.5-238.9c0,0-2.4-4.1-4.1-17.1h-0.6
		c-2.5-13-5.3-32.2-5.3-59.9c-0.1-33.7,3.9-76.4,17.8-128.5c0-2.8-6.8,0.4-3.4-19.5c-2.3-8.5-25.1-1.5-13.7,27c0-2.7-25.7,54-16,181
		H674.7C563.3,263,476,358.7,476,472.4V1646c0,113.7,87.3,211,198.7,211H833v-701h150.3l-1.1,2.8L845,1118.9v-105.6
		c0,0-13.2-102,102.7-102c116,0,209-13.9,255.4-27.8c13.9,0-4.5,97.4-143.6,106.7c-4.6,9.3,102.1,18.6,185.6-46.4
		c83.5-64.9,102.1-55.7,148.5-46.4c13.9,4.6-111.3,111.3-153,116c4.6,9.3,60.3,13.9,185.5-102c18.6-13.9,40.1-13.9,54.1,0
		c4.6,9.3-112.2,204.1-456.2,208.7v36h64v701h272.4c111.4,0,198.6-97.3,198.6-211V898.8c-12,6.2-31,11.7-51.6,15.9
		C1508.3,910.9,1492.7,862.9,1418,886.9z M971.9,785.5c-2.8,14.2-45.6-8.6-45.6-8.6S974.8,771.2,971.9,785.5z M777.9,639.9
		c93.6,0,171.9,35.7,192.7,98.2c-7.9,40.1-83.2,26.5-95.3,23.5c-66.1,13.9-128.7-3.5-128.7-3.5s-52.2,13.9-114.8,3.5
		c-34.2-5.7-43.4-17.6-44.8-27.2C610.2,676.2,686.8,639.9,777.9,639.9z M578.4,754.1c1.1,0.1,2,0.4,2.8,0.6
		c9.3,2.5,5.8,11.5-1.5,19.3c-9.6,10.2-25.5,18.1-27,5.7C549.9,756.9,578.4,754.1,578.4,754.1z"/>
	<path fill="#0DB14B" d="M1035.8,1216.6c-9,0-16.2,7.3-16.2,16.2c0,9,7.3,16.2,16.2,16.2c9,0,16.2-7.3,16.2-16.2
		C1052,1223.8,1044.8,1216.6,1035.8,1216.6z"/>
	<path fill="#0DB14B" d="M1508,571.6c22.8-17.1,29.8,5.7,29.8,28.5c0,4.1,21.1,3.8,21.1,12.5V472.4c0-113.7-87.2-209.4-198.6-209.4
		h-221.9c-1.7,13-1,17.1-1,17.1c88.9,78.2,77.5,238.9,77.5,238.9V837h344V643c-12,8.9-29.8,4.1-38.3-8.6c0,2.8-84.8,48.5-84.8,31.4
		l66-51.3C1501.9,614.4,1485.2,588.7,1508,571.6z M1530.8,779.1c11.4,20-8.5,44.9-8.5,44.9h-25.7l-17.1-53.8
		C1479.5,770.2,1508,744.8,1530.8,779.1z M1488,825.4c-2.8,2.9-97,0-97,0l2.8-19.9l42.8-39.9C1436.7,765.5,1488,762.6,1488,825.4z
		 M1322.7,828.2c-2.9-2.9-102.7,0-102.7,0l11.4-105.5c0,0,99.8-94.1,185.3-62.7C1502.3,691.4,1391.1,819.7,1322.7,828.2z"/>
</g>
</svg>
