<?xml version="1.0" encoding="iso-8859-1"?>
<!-- Generator: Adobe Illustrator 13.0.0, SVG Export Plug-In . SVG Version: 6.00 Build 14948)  -->
<!DOCTYPE svg PUBLIC "-//W3C//DTD SVG 1.1//EN" "http://www.w3.org/Graphics/SVG/1.1/DTD/svg11.dtd">
<svg version="1.1" id="Layer_1" xmlns="http://www.w3.org/2000/svg" xmlns:xlink="http://www.w3.org/1999/xlink" x="0px" y="0px"
	 width="100px" height="100px" viewBox="0 0 100 100" enable-background="new 0 0 100 100" xml:space="preserve">
<g>
	<g>
		<path fill="#B7252B" d="M16.572,32.587c1.55,1.938,2.981,3.974,4.512,5.931c2.108,0.145,4.223,0.289,6.331,0.434
			c-1.222,1.103-2.45,2.186-3.632,3.336c4.459,6.66,8.86,13.352,13.312,20.011c2.562,3.967,5.293,7.836,7.795,11.843
			c-8.163-7.344-16.202-14.83-24.352-22.187c1.537-1.693,3.113-3.356,4.715-4.985c-1.261-0.749-2.515-1.503-3.783-2.246
			c-1.248,1.261-2.496,2.529-3.776,3.764c-0.158-2.062-0.302-4.125-0.42-6.194c-2.325-1.406-4.669-2.772-6.961-4.222
			c2.227,0.111,4.459,0.026,6.686,0.137C16.829,36.338,16.684,34.466,16.572,32.587z"/>
		<path fill="#B7252B" d="M80.96,38.525c1.523-1.971,2.942-4.013,4.485-5.964c-0.157,1.878-0.268,3.757-0.446,5.635
			c2.233-0.079,4.466-0.02,6.699-0.124c-2.307,1.431-4.644,2.804-6.956,4.222c-0.143,2.056-0.308,4.111-0.413,6.167
			c-1.279-1.216-2.509-2.496-3.763-3.73c-1.262,0.741-2.516,1.484-3.764,2.246c1.603,1.615,3.153,3.297,4.716,4.958
			c-8.17,7.389-16.247,14.868-24.438,22.225c6.977-10.679,14.107-21.259,21.128-31.905c-1.194-1.117-2.416-2.2-3.617-3.31
			C76.711,38.821,78.832,38.65,80.96,38.525z"/>
	</g>
	<g>
		<path fill="#314592" d="M37.575,42.59c0.046-0.007,0.138-0.013,0.184-0.02c0.722,1.3,1.32,2.66,2.016,3.966
			c1.681,0.105,3.363,0.198,5.037,0.342c-1.195,0.861-2.404,1.702-3.612,2.535c2.896,7.618,5.871,15.21,8.741,22.835
			c-3.915-4.946-7.763-9.95-11.651-14.922c1.012-1.353,2.062-2.673,3.094-4.013c-0.959-0.768-1.918-1.536-2.883-2.298
			c-1.281,1.063-2.582,2.127-3.908,3.133c0.374-1.623,0.762-3.238,1.143-4.86c-1.517-1.012-3.034-2.017-4.545-3.034
			c1.786-0.034,3.573,0.019,5.353,0.084C36.899,45.092,37.188,43.831,37.575,42.59z"/>
		<path fill="#314592" d="M62.302,46.518c0.663-1.373,1.229-2.811,2.075-4.085c0.407,1.293,0.756,2.606,1.13,3.907
			c1.754-0.072,3.515-0.118,5.274-0.092c-1.479,1.038-2.977,2.017-4.466,3.021c0.368,1.642,0.729,3.291,1.096,4.939
			c-1.279-1.084-2.6-2.121-3.895-3.191c-0.938,0.781-1.897,1.536-2.857,2.298c1.039,1.34,2.089,2.66,3.101,4.013
			c-3.888,4.966-7.73,9.964-11.638,14.909c2.851-7.631,5.84-15.205,8.729-22.815c-1.208-0.848-2.424-1.682-3.62-2.542
			C58.913,46.728,60.614,46.663,62.302,46.518z"/>
		<path fill="#314592" d="M13.387,50.367c1.648,1.602,3.316,3.178,4.932,4.813c1.615,0.105,3.231,0.204,4.847,0.275
			c-0.723,0.717-1.445,1.439-2.154,2.175c6.108,6.429,12.235,12.853,18.264,19.354c-6.752-3.927-13.45-7.939-20.182-11.893
			c1.254-1.405,2.594-2.726,3.868-4.124c-1.221-0.651-2.45-1.288-3.685-1.926c-0.637,0.973-1.28,1.944-1.937,2.91
			c-0.479-1.471-0.913-2.955-1.373-4.434c-1.813-0.854-3.639-1.687-5.458-2.548c1.629-0.033,3.264,0,4.893,0.086
			C14.74,53.492,14.037,51.936,13.387,50.367z"/>
		<path fill="#314592" d="M83.718,55.188c1.629-1.551,3.1-3.271,4.849-4.697c-0.631,1.523-1.303,3.034-1.918,4.565
			c1.595-0.086,3.205-0.125,4.808-0.079c-1.801,0.867-3.62,1.694-5.426,2.535c-0.459,1.472-0.899,2.948-1.359,4.426
			c-0.683-0.952-1.313-1.938-1.97-2.901c-1.196,0.661-2.41,1.279-3.612,1.924c1.261,1.392,2.542,2.758,3.841,4.11
			c-6.737,3.967-13.436,8.012-20.201,11.934c6.068-6.502,12.189-12.95,18.277-19.434c-0.748-0.689-1.491-1.385-2.2-2.115
			C80.441,55.384,82.084,55.285,83.718,55.188z"/>
	</g>
</g>
</svg>
