<?xml version="1.0" encoding="utf-8"?>
<!-- Generator: Adobe Illustrator 16.0.0, SVG Export Plug-In . SVG Version: 6.00 Build 0)  -->
<!DOCTYPE svg PUBLIC "-//W3C//DTD SVG 1.1//EN" "http://www.w3.org/Graphics/SVG/1.1/DTD/svg11.dtd">
<svg version="1.1" id="Layer_1" xmlns="http://www.w3.org/2000/svg" xmlns:xlink="http://www.w3.org/1999/xlink" x="0px" y="0px"
	 width="100px" height="100px" viewBox="0 0 100 100" enable-background="new 0 0 100 100" xml:space="preserve">
<g>
	<path fill="#4A642E" d="M71.191,17.297C82.01,23.894,89.208,35.6,89.208,48.942c0,20.612-17.167,37.325-38.347,37.325
		c-21.187,0-38.354-16.713-38.354-37.325c0-15.97,10.311-29.595,24.804-34.924C21.737,19.373,10.57,33.825,10.57,50.816
		c0,21.551,17.951,39.021,40.093,39.021c22.143,0,40.094-17.471,40.094-39.021C90.757,36.565,82.906,24.106,71.191,17.297z"/>
	<g>
		<path fill="#D6DE23" d="M30.753,26.505c0-1.721,1.398-3.125,3.123-3.125s3.123,1.404,3.123,3.125c0,1.728-1.398,3.125-3.123,3.125
			S30.753,28.232,30.753,26.505z"/>
		<path fill="#D6DE23" d="M64.718,26.505c0-1.721,1.397-3.125,3.122-3.125c1.728,0,3.129,1.404,3.129,3.125
			c0,1.728-1.401,3.125-3.129,3.125C66.115,29.63,64.718,28.232,64.718,26.505z"/>
		<path fill="#D6DE23" d="M48.008,18.526c0-1.442,1.166-2.608,2.603-2.608c1.438,0,2.604,1.167,2.604,2.608
			c0,1.43-1.166,2.596-2.604,2.596C49.174,21.122,48.008,19.956,48.008,18.526z"/>
	</g>
	<g>
		<path fill="#D6DE23" d="M52.196,35.361c1.354,0.821,2.42,1.637,3.389,2.451c0.969,0.821,1.828,1.637,2.593,2.452
			c1.515,1.637,2.706,3.27,3.611,4.903c1.834,3.272,2.618,6.542,2.634,9.813c0.003,3.267-0.771,6.539-2.603,9.806
			c-0.896,1.634-2.094,3.271-3.611,4.906c-0.765,0.813-1.63,1.634-2.608,2.448c-0.972,0.822-2.037,1.637-3.404,2.458
			c-1.37-0.821-2.438-1.636-3.411-2.458c-0.972-0.814-1.84-1.636-2.602-2.448c-1.523-1.636-2.715-3.272-3.618-4.906
			c-1.831-3.267-2.605-6.539-2.602-9.806c0.019-3.271,0.802-6.54,2.636-9.813c0.906-1.634,2.094-3.267,3.612-4.903
			c0.762-0.815,1.62-1.631,2.593-2.452C49.773,36.998,50.836,36.183,52.196,35.361z"/>
		<path fill-rule="evenodd" clip-rule="evenodd" fill="#4A642E" d="M65.42,39.55c-1.455,0.357-2.872,0.847-4.229,1.461
			c-2.417-3.273-5.427-5.693-8.994-7.612c-3.574,1.912-6.583,4.338-9.001,7.612c-1.354-0.614-2.768-1.104-4.229-1.461
			c3.373-5.179,7.938-8.211,13.229-11.042C57.488,31.339,62.047,34.371,65.42,39.55L65.42,39.55z M62.254,74.436
			c-2.932,3.092-6.371,5.051-10.058,7.022c-3.689-1.972-7.129-3.931-10.057-7.022C48.315,77.047,56.071,77.047,62.254,74.436z"/>
		<path fill-rule="evenodd" clip-rule="evenodd" fill="#4A642E" d="M62.153,42.469c3.031-1.326,6.332-1.969,9.655-1.862
			c4.188,6.749,4.624,15.521,0.377,22.876c-3.612,6.251-9.801,10.088-16.45,10.94c6.188-4.464,9.947-11.655,9.947-19.437
			C65.683,50.554,64.473,46.24,62.153,42.469z"/>
		<path fill-rule="evenodd" clip-rule="evenodd" fill="#4A642E" d="M42.233,42.469c-3.028-1.326-6.333-1.969-9.656-1.862
			c-4.188,6.749-4.621,15.521-0.376,22.876c3.612,6.251,9.807,10.088,16.453,10.94c-6.189-4.464-9.951-11.655-9.951-19.437
			C38.703,50.554,39.917,46.24,42.233,42.469z"/>
		<path fill="#FFFFFF" d="M55.735,46.312c0,1.953-1.583,3.54-3.539,3.54s-3.542-1.587-3.542-3.54c0-1.959,1.586-3.539,3.542-3.539
			S55.735,44.353,55.735,46.312z"/>
	</g>
</g>
</svg>
