<?xml version="1.0" encoding="utf-8"?>
<!-- Generator: Adobe Illustrator 16.0.0, SVG Export Plug-In . SVG Version: 6.00 Build 0)  -->
<!DOCTYPE svg PUBLIC "-//W3C//DTD SVG 1.1//EN" "http://www.w3.org/Graphics/SVG/1.1/DTD/svg11.dtd">
<svg version="1.1" id="Layer_1" xmlns="http://www.w3.org/2000/svg" xmlns:xlink="http://www.w3.org/1999/xlink" x="0px" y="0px"
	 width="100px" height="100px" viewBox="0 0 100 100" enable-background="new 0 0 100 100" xml:space="preserve">
<g>
	<g>
		<path fill="#FFFFFF" d="M60.891,24.13c0.046,0.04,0.136,0.116,0.18,0.156c-0.867,1.537-1.756,3.067-2.667,4.581
			c0.682,0.687,1.42,1.639,1.019,2.669c-0.533,1.295-1.377,2.434-2.026,3.672c-1.081,1.843-2.147,3.686-3.211,5.535
			c-0.377,0.662-0.894,1.332-1.689,1.468c-0.731,0.233-1.643-0.559-2.141,0.344c0.051-0.27,0.118-0.531,0.18-0.801
			c-0.36-0.469-0.657-0.979-0.831-1.55c0.076-0.662,0.308-1.292,0.661-1.852c1.783-3.011,3.501-6.061,5.278-9.068
			c0.767-0.514,1.676-0.653,2.579-0.537C59.104,27.208,60.014,25.678,60.891,24.13z"/>
		<path fill="#FFFFFF" d="M25.456,55.179c2.235-2.488,5.613-3.779,8.936-3.507c11.785,0.015,23.563-0.012,35.348,0.015
			c2.749-0.021,5.543,1.575,6.584,4.185c1.085,2.378,0.416,5.036-0.085,7.469c0.231-1.709,0.169-3.521-0.678-5.068
			c-1.152-2.371-3.793-3.745-6.378-3.752c-11.68-0.017-23.362,0-35.043-0.006c-1.136-0.005-2.28-0.036-3.395,0.214
			c-3.994,0.829-7.368,4.106-8.271,8.088C22.642,60.044,23.479,57.215,25.456,55.179z"/>
	</g>
	<g>
		<path fill="#47BDED" d="M43.047,19.881c1.783-1.777,4.505-2.53,6.948-1.931c1.37,0.287,2.521,1.119,3.717,1.798
			c-4.622,2.715-9.282,5.351-13.914,8.045c-0.7,0.432-1.438,0.781-2.208,1.054c0.878-1.747,1.946-3.388,2.896-5.089
			C41.307,22.449,41.918,20.975,43.047,19.881z"/>
	</g>
	<g>
		<path fill="#47BDED" d="M65.56,19.578c1.346-0.344,2.76-0.165,4.061,0.284c-0.863,0.56-1.732,1.113-2.533,1.758
			c-2.033,0.168-3.771,1.497-4.834,3.175c-0.396-0.165-0.795-0.324-1.183-0.508c-0.044-0.04-0.134-0.117-0.18-0.156
			c-0.216-0.188-0.432-0.372-0.653-0.551C61.464,21.679,63.316,20.086,65.56,19.578z"/>
	</g>
	<g>
		<path fill="#3FADE2" d="M39.798,27.793c4.631-2.694,9.292-5.33,13.914-8.045c2.169,1.289,4.4,2.479,6.525,3.831
			c0.222,0.179,0.438,0.364,0.653,0.551c-0.877,1.548-1.786,3.078-2.669,4.618c-0.903-0.116-1.813,0.023-2.579,0.537
			c-0.677,0.281-1.363,0.534-1.999,0.903c-5.965,3.522-11.988,6.941-17.979,10.417c-1.229-0.727-2.471-1.432-3.699-2.156
			c0.064-0.108,0.191-0.329,0.253-0.437c0.396-0.679,0.801-1.35,1.181-2.031c1.36-2.38,2.752-4.734,4.118-7.103l0.072-0.031
			C38.36,28.574,39.098,28.225,39.798,27.793z"/>
	</g>
	<g>
		<path fill="#3FB0E4" d="M69.62,19.861c1.196,0.491,2.301,1.182,3.286,2.017c-0.729,0.432-1.474,0.829-2.252,1.175
			c-1.063-0.747-2.272-1.261-3.567-1.434C67.888,20.975,68.757,20.421,69.62,19.861z"/>
	</g>
	<g>
		<path fill="#479FD7" d="M72.906,21.878c1.474,1.306,2.712,2.84,4.062,4.274c-0.719,0.343-1.418,0.732-2.084,1.164
			c-1.384-1.448-2.605-3.066-4.229-4.263C71.433,22.707,72.177,22.31,72.906,21.878z"/>
		<path fill="#479FD7" d="M61.07,24.286c0.388,0.185,0.786,0.343,1.183,0.508c2.313,1.13,4.477,2.562,6.736,3.811
			c-2.544,1.545-5.117,3.044-7.718,4.493c-1.291,0.716-2.511,1.551-3.876,2.11c0.649-1.238,1.493-2.377,2.026-3.672
			c0.401-1.031-0.337-1.982-1.019-2.669C59.314,27.353,60.203,25.823,61.07,24.286z"/>
	</g>
	<g>
		<path fill="#4889C8" d="M74.884,27.316c0.666-0.432,1.365-0.821,2.084-1.164c1.343,1.366,2.66,2.789,4.272,3.851
			c-0.714,0.404-1.378,0.898-1.948,1.488C77.669,30.27,76.271,28.796,74.884,27.316z"/>
		<path fill="#4889C8" d="M49.62,46.227c7.661-4.467,15.354-8.877,23.021-13.325c0.588,1.977,0.423,4.187-0.619,5.984
			c-1.817,3.153-3.646,6.299-5.481,9.446c-5.898-0.006-11.796,0.048-17.691-0.026c-0.431-0.256-0.853-0.528-1.27-0.795
			c0.17-0.275,0.347-0.551,0.511-0.832C48.624,46.61,49.157,46.508,49.62,46.227z"/>
	</g>
	<g>
		<path fill="#4895D0" d="M61.271,33.098c2.601-1.448,5.174-2.948,7.718-4.493c1.723,0.897,3.033,2.471,3.652,4.296
			c-7.667,4.448-15.36,8.858-23.021,13.325c-0.463,0.281-0.996,0.383-1.529,0.452c0.749-1.227,1.354-2.548,2.253-3.681
			c-0.113-0.145-0.226-0.292-0.333-0.437c-0.638,1.738-1.741,3.26-2.68,4.848c-1.635-1.002-3.309-1.937-4.961-2.902
			c2.413-1.488,4.93-2.797,7.333-4.302c0.174,0.571,0.471,1.082,0.831,1.55c-0.062,0.27-0.129,0.531-0.18,0.801
			c0.498-0.903,1.409-0.111,2.141-0.344c0.796-0.136,1.313-0.806,1.689-1.468c1.063-1.849,2.13-3.692,3.211-5.535
			C58.761,34.649,59.98,33.814,61.271,33.098z"/>
		<path fill="#4895D0" d="M42.965,45.128c1.824,1.048,3.631,2.118,5.458,3.164c-3.501,0.096-7.003,0.025-10.505,0.04
			C39.458,47.042,41.368,46.341,42.965,45.128z"/>
	</g>
	<g>
		<path fill="#48A0D8" d="M53.644,30.187c0.636-0.369,1.322-0.622,1.999-0.903c-1.777,3.008-3.495,6.058-5.278,9.068
			c-0.354,0.559-0.585,1.189-0.661,1.852c-2.403,1.505-4.921,2.814-7.333,4.302c-1.269-0.681-2.439-1.587-3.81-2.053
			c1.351,1.062,2.948,1.766,4.405,2.675c-1.597,1.212-3.507,1.914-5.047,3.204c-2.373,0.082-4.765-0.179-7.117,0.164
			c-2.434,0.421-4.683,1.619-6.526,3.249c1.268-2.247,2.583-4.464,3.866-6.699c1.231-2.127,2.469-4.249,3.702-6.381
			c2.101,1.176,4.113,2.525,6.286,3.559c-0.653-0.755-1.65-1.079-2.464-1.619C41.655,37.128,47.679,33.709,53.644,30.187z"/>
	</g>
	<g>
		<path fill="#4B70B6" d="M84.777,30.932c2.357-0.165,4.586-1.002,6.841-1.653c0.204,0.732,0.438,1.462,0.682,2.192
			c-2.908,0.872-5.879,2.033-8.969,1.692c-1.477-0.162-2.836-0.835-4.039-1.673c0.57-0.59,1.234-1.084,1.948-1.488
			C82.299,30.645,83.53,31.019,84.777,30.932z"/>
	</g>
	<g>
		<path fill="#F3B62A" d="M10.151,35.964c1.555-1.52,3.732-2.289,5.889-2.306c3.523-0.008,7.044,0,10.567-0.006
			c2.396-0.002,4.791,0.767,6.736,2.159l0.057,0.17c-0.38,0.681-0.785,1.352-1.181,2.031c-1.869,0.104-3.702,0.517-5.54,0.852
			c-5.121,0.906-10.244,1.797-15.364,2.718c-1.221,0.165-2.455,0.35-3.609,0.801C7.633,40.031,8.43,37.611,10.151,35.964z"/>
	</g>
	<g>
		<path fill="#E8A62F" d="M26.679,38.863c1.837-0.335,3.671-0.747,5.54-0.852c-0.062,0.108-0.189,0.329-0.253,0.437
			c1.228,0.724,2.471,1.429,3.699,2.156c0.814,0.54,1.812,0.863,2.464,1.619c-2.173-1.034-4.186-2.383-6.286-3.559
			c-1.232,2.133-2.471,4.254-3.702,6.381c-6.516,0.915-12.944,2.368-19.46,3.255c-0.328-1.971-0.754-3.928-0.976-5.919
			c1.154-0.451,2.389-0.636,3.609-0.801C16.436,40.661,21.559,39.77,26.679,38.863z"/>
		<path fill="#E8A62F" d="M38.56,42.453c1.37,0.466,2.541,1.372,3.81,2.053c1.652,0.965,3.326,1.9,4.961,2.902
			c0.938-1.587,2.042-3.11,2.68-4.848c0.107,0.145,0.22,0.292,0.333,0.437c-0.898,1.133-1.504,2.454-2.253,3.681
			c-0.164,0.281-0.341,0.557-0.511,0.832c0.417,0.267,0.839,0.54,1.27,0.795c-0.107-0.005-0.322-0.009-0.427-0.014
			c-1.827-1.045-3.634-2.116-5.458-3.164C41.508,44.219,39.911,43.515,38.56,42.453z"/>
	</g>
	<g>
		<path fill="#DD962C" d="M8.681,48.301c6.516-0.887,12.944-2.34,19.46-3.255c-1.283,2.235-2.598,4.453-3.866,6.699
			c-0.556,0.628-1.15,1.215-1.715,1.829c-1.924,0.046-3.779,0.603-5.684,0.852c-2.278,0.48-4.6,0.722-6.864,1.275l-0.047,0.008
			C9.559,53.236,9.102,50.771,8.681,48.301z"/>
	</g>
	<g>
		<g>
			<path fill="#FCC930" d="M30.801,48.496c2.352-0.343,4.744-0.082,7.117-0.164c3.502-0.015,7.003,0.056,10.505-0.04
				c0.104,0.005,0.319,0.009,0.427,0.014c5.896,0.074,11.793,0.02,17.691,0.026c2.284,0.017,4.688-0.236,6.817,0.766
				c2.526,1.057,4.409,3.409,4.963,6.083c0.463,1.951,0.097,3.959-0.275,5.896c-0.768,4.343-1.525,8.693-2.297,13.041
				c-0.999,4.797-4.901,8.714-9.547,10.11c-1.217,0.222-2.445,0.38-3.68,0.386c-9.402-0.006-18.796,0.021-28.198-0.025
				c-1.32-0.801-2.896-0.762-4.359-1.068c-2.5-0.471-5.022-0.837-7.517-1.354c-0.863-0.188-1.747-0.225-2.624-0.213
				c-2.245-2.192-2.937-5.587-2.28-8.591c0.293-1.588,0.581-3.173,0.833-4.761c0.292-1.573,0.58-3.152,0.841-4.728
				c0.369-1.768,0.595-3.562,0.965-5.328c0.405-1.809,1.244-3.513,2.377-4.973c0.565-0.614,1.16-1.201,1.715-1.829
				C26.118,50.115,28.368,48.917,30.801,48.496z M25.456,55.179c-1.977,2.036-2.813,4.865-2.982,7.637
				c0.903-3.981,4.277-7.259,8.271-8.088c1.115-0.25,2.259-0.219,3.395-0.214c11.681,0.006,23.363-0.011,35.043,0.006
				c2.585,0.007,5.226,1.381,6.378,3.752c0.847,1.548,0.909,3.359,0.678,5.068c0.501-2.433,1.17-5.091,0.085-7.469
				c-1.041-2.609-3.835-4.206-6.584-4.185c-11.785-0.026-23.563,0-35.348-0.015C31.068,51.399,27.69,52.69,25.456,55.179z"/>
		</g>
	</g>
	<g>
		<path fill="#CE812A" d="M16.876,54.426c1.905-0.249,3.76-0.806,5.684-0.852c-1.133,1.46-1.973,3.164-2.377,4.973
			c-0.37,1.767-0.596,3.561-0.965,5.328c-0.051-0.205-0.153-0.626-0.2-0.844c-2.526,0.309-5.016,0.829-7.512,1.292
			c-0.508-2.877-1.037-5.742-1.494-8.622C12.276,55.147,14.598,54.906,16.876,54.426z"/>
	</g>
	<g>
		<path fill="#C47429" d="M11.505,64.323c2.496-0.463,4.985-0.983,7.512-1.292c0.047,0.218,0.149,0.639,0.2,0.844
			c-0.261,1.575-0.549,3.154-0.841,4.728c-0.052-0.222-0.161-0.649-0.217-0.871c-1.981,0.054-3.897,0.621-5.854,0.914l-0.055,0.012
			C12.029,67.203,11.752,65.763,11.505,64.323z"/>
	</g>
	<g>
		<path fill="#BD6928" d="M12.306,68.646c1.957-0.293,3.873-0.86,5.854-0.914c0.056,0.222,0.165,0.649,0.217,0.871
			c-0.252,1.588-0.54,3.173-0.833,4.761c-1.412,0.354-2.994,0.209-4.256,1.027l-0.029,0.018
			C12.989,72.48,12.553,70.577,12.306,68.646z"/>
	</g>
	<g>
		<path fill="#B45E27" d="M13.287,74.391c1.263-0.818,2.844-0.673,4.256-1.027c-0.657,3.004,0.036,6.398,2.28,8.591
			c1.73,1.843,4.303,2.635,6.778,2.66c2.577,0,5.15,0.026,7.723-0.025c9.402,0.046,18.796,0.02,28.198,0.025
			c1.234-0.006,2.463-0.164,3.68-0.386c-1.918,0.622-3.949,0.438-5.931,0.462c-11.591-0.011-23.186,0.009-34.773-0.014
			C19.67,84.742,14.19,80.15,13.287,74.391z"/>
	</g>
	<g>
		<path fill="#F8B62D" d="M19.824,81.954c0.877-0.012,1.761,0.025,2.624,0.213c2.495,0.517,5.017,0.883,7.517,1.354
			c1.463,0.307,3.039,0.268,4.359,1.068c-2.573,0.052-5.146,0.025-7.723,0.025C24.126,84.589,21.554,83.797,19.824,81.954z"/>
	</g>
</g>
</svg>
