<?xml version="1.0" encoding="utf-8"?>
<!-- Generator: Adobe Illustrator 14.0.0, SVG Export Plug-In . SVG Version: 6.00 Build 43363)  -->
<!DOCTYPE svg PUBLIC "-//W3C//DTD SVG 1.1//EN" "http://www.w3.org/Graphics/SVG/1.1/DTD/svg11.dtd">
<svg version="1.1" id="Layer_1" xmlns="http://www.w3.org/2000/svg" xmlns:xlink="http://www.w3.org/1999/xlink" x="0px" y="0px"
	 width="150px" height="150px" viewBox="0 0 150 150" enable-background="new 0 0 150 150" xml:space="preserve">
<g>
	<path fill-rule="evenodd" clip-rule="evenodd" fill="#E7D6BA" d="M76.258,18.625c-30.515,0-55.335,24.824-55.335,55.335
		c0,30.512,24.82,55.334,55.335,55.334c30.51,0,55.334-24.822,55.334-55.334C131.592,43.448,106.768,18.625,76.258,18.625
		 M129.22,78.047l-3.765,0.248l-1.933,3.246l-1.396-3.509l-3.683-0.832l2.902-2.417l-0.35-3.761l3.196,2.014l3.468-1.487
		l-0.929,3.658L129.22,78.047z M120.407,49.818l1.933,3.245l3.768,0.247l-2.489,2.842l0.932,3.657l-3.474-1.489l-3.19,2.016
		l0.343-3.76l-2.904-2.417l3.686-0.834L120.407,49.818z M107.806,34.762l3.028,2.257l3.575-1.212l-1.212,3.575l2.258,3.027
		l-3.772-0.049l-2.182,3.08l-1.122-3.604l-3.602-1.121l3.08-2.181L107.806,34.762z M90.406,25.669l3.659,0.929l2.843-2.488
		l0.245,3.767l3.24,1.932l-3.5,1.398l-0.833,3.683l-2.416-2.901l-3.764,0.345l2.016-3.196L90.406,25.669z M74.583,23.388
		l1.674-3.386l1.669,3.386l3.737,0.544l-2.706,2.633l0.641,3.724l-3.341-1.761l-3.344,1.761l0.638-3.724l-2.705-2.633L74.583,23.388
		z M55.361,27.876l0.247-3.767l2.842,2.488l3.654-0.929l-1.485,3.468l2.013,3.196l-3.76-0.345l-2.413,2.901l-0.839-3.683
		l-3.503-1.403L55.361,27.876z M39.315,39.381l-1.21-3.575l3.574,1.212l3.022-2.257l-0.044,3.771l3.08,2.18l-3.604,1.123
		l-1.122,3.606l-2.18-3.084l-3.774,0.047L39.315,39.381z M30.172,53.063l1.929-3.245l1.404,3.503l3.683,0.836l-2.902,2.417
		l0.341,3.758l-3.195-2.014l-3.468,1.489l0.931-3.657l-2.488-2.842L30.172,53.063z M25.684,75.632l-3.382-1.672l3.382-1.67
		l0.548-3.738l2.63,2.704l3.725-0.639l-1.76,3.343l1.76,3.341l-3.725-0.638l-2.633,2.699L25.684,75.632z M32.101,98.102
		l-1.929-3.244l-3.765-0.251l2.488-2.839l-0.931-3.659l3.468,1.491l3.195-2.017l-0.341,3.761l2.902,2.418l-3.683,0.831
		L32.101,98.102z M44.701,113.159l-3.022-2.258l-3.576,1.213l1.212-3.574l-2.258-3.028l3.774,0.05l2.18-3.084l1.122,3.605
		l3.604,1.122l-3.084,2.18L44.701,113.159z M62.104,122.254l-3.654-0.934l-2.842,2.491l-0.247-3.77l-3.245-1.928l3.503-1.402
		l0.837-3.684l2.415,2.905l3.758-0.346l-2.011,3.196L62.104,122.254z M77.927,124.532l-1.669,3.383l-1.674-3.383l-3.736-0.545
		l2.705-2.63l-0.638-3.725l3.344,1.757l3.341-1.757l-0.641,3.725l2.706,2.63L77.927,124.532z M97.155,120.042l-0.249,3.768
		l-2.841-2.489l-3.659,0.93l1.49-3.47l-2.016-3.192l3.764,0.343l2.409-2.902l0.84,3.684l3.5,1.402L97.155,120.042z M113.197,108.54
		l1.217,3.574l-3.58-1.213l-3.028,2.258l0.052-3.774l-3.08-2.18l3.602-1.122l1.122-3.605l2.182,3.084l3.772-0.05L113.197,108.54z
		 M123.013,95.75l-0.687,4.729l-3.335-3.424l-4.7,0.812l2.218-4.23l-1.658-3.16c-1.022,2.377-2.265,4.677-3.738,6.87
		c-6.249,9.312-15.749,15.635-26.747,17.799c-2.693,0.529-5.435,0.796-8.154,0.796c-19.975,0-37.275-14.246-41.138-33.877
		c-2.165-11,0.083-22.184,6.331-31.493c6.248-9.312,15.746-15.633,26.744-17.796c2.693-0.53,5.437-0.799,8.154-0.799
		c19.975,0,37.277,14.247,41.141,33.875c1.591,8.081,0.792,16.256-2.216,23.717l3.767,0.648l3.333-3.421l0.687,4.726l4.28,2.117
		L123.013,95.75z"/>
	<path fill-rule="evenodd" clip-rule="evenodd" fill="#E7D6BA" d="M114.584,66.415c-3.596-18.267-19.696-31.525-38.28-31.525
		c-2.531,0-5.085,0.25-7.59,0.743c-10.241,2.017-19.078,7.896-24.892,16.561c-5.816,8.662-7.905,19.072-5.89,29.308
		c3.596,18.268,19.696,31.525,38.28,31.525c2.53,0,5.083-0.25,7.587-0.74c10.239-2.017,19.077-7.898,24.893-16.561
		C114.506,87.06,116.597,76.652,114.584,66.415 M45.601,58.262c7.471-14.245,23.384-21.194,38.374-17.934
		c-0.027,0.304-0.06,0.614-0.102,0.931c-0.095,0.757-0.223,1.506-0.384,2.246c-0.161,0.729-0.349,1.445-0.569,2.145l-3.762-1.489
		c-0.846-0.337-1.806,0.079-2.141,0.924c-0.335,0.847,0.079,1.807,0.926,2.141l3.794,1.504c-0.891,1.933-2.013,3.739-3.337,5.396
		l-3.929-2.987c-0.724-0.549-1.758-0.409-2.308,0.316c-0.55,0.727-0.407,1.759,0.317,2.31l3.709,2.817
		c-1.55,1.529-3.283,2.893-5.176,4.079l-3.012-4.004c-0.545-0.731-1.581-0.876-2.308-0.332c-0.73,0.547-0.875,1.581-0.332,2.31
		l2.746,3.647c-2.075,1.021-4.292,1.849-6.614,2.455l-1.64-4.419c-0.319-0.857-1.27-1.294-2.127-0.977
		c-0.857,0.319-1.296,1.27-0.978,2.129l1.471,3.968c-1.868,0.31-3.791,0.484-5.748,0.516L52.032,61.5
		c-0.088-0.908-0.895-1.572-1.806-1.482c-0.906,0.09-1.567,0.896-1.477,1.804l0.397,4.043c-1.954-0.134-3.933-0.414-5.924-0.85
		l-0.297-0.066C43.569,62.678,44.46,60.436,45.601,58.262 M107.519,90.742c-7.026,13.396-21.521,20.34-35.692,18.405
		c0-0.204,0.002-0.406,0.008-0.609c0.012-0.335,0.032-0.727,0.064-1.17c0.122-1.58,0.389-3.112,0.789-4.602l2.584,1.023
		c0.845,0.335,1.803-0.076,2.141-0.923c0.335-0.847-0.078-1.807-0.925-2.14l-2.731-1.083c0.797-1.915,1.826-3.725,3.061-5.414
		l2.735,2.078c0.723,0.55,1.756,0.409,2.306-0.318c0.551-0.725,0.407-1.758-0.315-2.306l-2.629-1.999
		c1.295-1.398,2.739-2.682,4.315-3.844c0.123-0.088,0.244-0.179,0.37-0.267l2.42,3.216c0.549,0.729,1.582,0.878,2.311,0.328
		c0.729-0.544,0.875-1.577,0.33-2.307l-2.274-3.023c1.948-1.115,4.042-2.055,6.246-2.798l1.536,4.138
		c0.318,0.856,1.271,1.295,2.127,0.977c0.856-0.316,1.297-1.271,0.977-2.127l-1.446-3.904c1.84-0.44,3.741-0.746,5.691-0.91
		l0.475,4.784c0.087,0.907,0.897,1.571,1.803,1.48c0.907-0.088,1.572-0.897,1.481-1.802l-0.456-4.601
		c0.998,0,2.008,0.039,3.026,0.115c0.801,0.06,1.571,0.139,2.31,0.238c0.221,0.03,0.443,0.061,0.67,0.098
		C110.184,84.631,109.092,87.748,107.519,90.742 M111.331,78.213c-0.241-0.035-0.487-0.073-0.736-0.104
		c-0.86-0.115-1.697-0.204-2.504-0.266c-1.211-0.092-2.41-0.131-3.599-0.122l-0.286-2.882c-0.087-0.904-0.897-1.568-1.805-1.479
		c-0.907,0.09-1.571,0.897-1.48,1.804l0.268,2.71c-2.234,0.189-4.417,0.555-6.521,1.08l-1.161-3.14
		c-0.32-0.854-1.271-1.292-2.128-0.976c-0.859,0.319-1.296,1.272-0.979,2.129l1.085,2.922c-2.513,0.854-4.894,1.945-7.101,3.243
		l-2.24-2.98c-0.548-0.729-1.581-0.876-2.311-0.33c-0.73,0.546-0.873,1.58-0.328,2.31l2.108,2.803
		c-0.114,0.081-0.225,0.162-0.337,0.244c-1.837,1.348-3.512,2.856-5.005,4.5l-3.359-2.556c-0.725-0.549-1.758-0.406-2.308,0.318
		c-0.548,0.726-0.41,1.76,0.317,2.307l3.263,2.483c-1.413,1.925-2.593,3.997-3.504,6.192l-4.271-1.691
		c-0.847-0.335-1.804,0.078-2.139,0.925c-0.339,0.847,0.078,1.807,0.923,2.14l4.401,1.743c-0.512,1.801-0.849,3.663-0.992,5.583
		c-0.03,0.384-0.052,0.825-0.066,1.322l-0.002,0.093c-2.795-0.663-5.555-1.682-8.214-3.076
		c-13.902-7.295-20.858-22.626-18.152-37.294c0.138,0.033,0.257,0.061,0.355,0.083c2.334,0.507,4.662,0.823,6.954,0.949l0.336,3.407
		c0.09,0.908,0.901,1.572,1.807,1.482c0.907-0.088,1.571-0.896,1.481-1.804L52.8,69.256c2.248-0.047,4.449-0.273,6.59-0.668
		l1.126,3.045c0.321,0.854,1.272,1.293,2.129,0.977c0.857-0.318,1.294-1.273,0.978-2.129l-0.976-2.63
		c2.631-0.711,5.139-1.681,7.481-2.884l1.752,2.332c0.546,0.728,1.579,0.875,2.308,0.329c0.729-0.547,0.877-1.58,0.331-2.308
		l-1.513-2.007c2.139-1.365,4.099-2.943,5.836-4.708l2.267,1.719c0.725,0.551,1.759,0.41,2.31-0.315
		c0.548-0.724,0.407-1.757-0.317-2.308l-2.067-1.573c1.505-1.892,2.777-3.959,3.782-6.177l3.204,1.27
		c0.843,0.337,1.804-0.08,2.141-0.924c0.333-0.847-0.079-1.806-0.926-2.141l-3.233-1.28c0.28-0.871,0.521-1.761,0.719-2.667
		c0.185-0.845,0.33-1.696,0.437-2.548c0.021-0.15,0.039-0.304,0.055-0.46c1.896,0.608,3.766,1.385,5.587,2.342
		C105.877,50.399,112.807,64.374,111.331,78.213"/>
	<path fill="#0E252B" d="M66.41,96.732l4.271,1.691c0.909-2.195,2.091-4.268,3.504-6.193l-3.263-2.481
		c-0.725-0.548-0.865-1.582-0.317-2.308c0.549-0.725,1.583-0.867,2.308-0.318l3.359,2.556c1.491-1.645,3.171-3.151,5.003-4.5
		c0.114-0.082,0.225-0.163,0.337-0.246l-2.106-2.801c-0.547-0.729-0.402-1.763,0.328-2.31c0.729-0.546,1.763-0.398,2.311,0.328
		l2.24,2.98c2.207-1.296,4.587-2.387,7.101-3.241l-1.085-2.922c-0.319-0.856,0.117-1.81,0.977-2.129
		c0.859-0.316,1.81,0.12,2.127,0.976l1.164,3.142c2.107-0.527,4.287-0.893,6.521-1.082l-0.268-2.71
		c-0.089-0.907,0.573-1.716,1.48-1.804c0.909-0.089,1.716,0.572,1.803,1.479l0.288,2.882c1.188-0.009,2.388,0.03,3.599,0.12
		c0.807,0.063,1.644,0.15,2.504,0.268c0.249,0.033,0.495,0.069,0.736,0.104c1.476-13.839-5.454-27.815-18.532-34.673
		c-1.821-0.957-3.69-1.734-5.587-2.341c-0.016,0.155-0.033,0.31-0.055,0.459c-0.106,0.853-0.252,1.702-0.437,2.548
		c-0.197,0.906-0.438,1.796-0.719,2.667l3.231,1.28c0.847,0.335,1.261,1.294,0.926,2.141c-0.337,0.845-1.296,1.262-2.141,0.925
		l-3.202-1.271c-1.005,2.217-2.279,4.285-3.782,6.177l2.067,1.57c0.723,0.553,0.865,1.586,0.317,2.31
		c-0.551,0.725-1.585,0.867-2.31,0.315l-2.267-1.721c-1.737,1.767-3.697,3.343-5.836,4.71l1.513,2.007
		c0.546,0.728,0.397,1.761-0.331,2.308c-0.729,0.545-1.762,0.399-2.308-0.329l-1.754-2.332c-2.34,1.204-4.848,2.174-7.479,2.884
		l0.974,2.631c0.318,0.857-0.119,1.81-0.976,2.128c-0.857,0.316-1.808-0.121-2.129-0.976l-1.126-3.046
		c-2.139,0.395-4.343,0.621-6.59,0.668l0.299,3.029c0.092,0.908-0.572,1.715-1.479,1.804c-0.905,0.088-1.716-0.573-1.807-1.482
		l-0.336-3.406c-2.294-0.127-4.618-0.443-6.954-0.95c-0.098-0.022-0.217-0.049-0.355-0.082c-2.706,14.667,4.25,29.998,18.152,37.293
		c2.662,1.395,5.419,2.411,8.214,3.074l0.004-0.091c0.012-0.497,0.034-0.937,0.064-1.324c0.143-1.918,0.479-3.78,0.992-5.581
		l-4.399-1.743c-0.847-0.335-1.262-1.293-0.925-2.14C64.606,96.811,65.563,96.397,66.41,96.732"/>
	<path fill="#0E252B" d="M79.158,44.161l3.762,1.49c0.219-0.7,0.408-1.416,0.567-2.145c0.161-0.74,0.291-1.492,0.386-2.247
		c0.04-0.316,0.074-0.626,0.102-0.932c-14.99-3.261-30.903,3.688-38.374,17.934c-1.142,2.175-2.031,4.416-2.676,6.688l0.297,0.068
		c1.989,0.434,3.968,0.714,5.924,0.846l-0.397-4.04c-0.09-0.908,0.57-1.715,1.479-1.804c0.909-0.09,1.716,0.573,1.804,1.479
		l0.441,4.455c1.958-0.028,3.877-0.203,5.748-0.516l-1.471-3.965c-0.319-0.859,0.119-1.813,0.976-2.131
		c0.857-0.316,1.81,0.119,2.127,0.979l1.64,4.417c2.324-0.604,4.54-1.432,6.616-2.455l-2.746-3.646
		c-0.545-0.729-0.399-1.763,0.332-2.31c0.727-0.546,1.762-0.398,2.306,0.332l3.014,4.003c1.893-1.184,3.626-2.548,5.176-4.078
		l-3.709-2.816c-0.726-0.553-0.867-1.582-0.317-2.31c0.55-0.726,1.585-0.868,2.308-0.317l3.929,2.986
		c1.322-1.659,2.444-3.462,3.337-5.395l-3.794-1.504c-0.847-0.335-1.261-1.296-0.926-2.141
		C77.353,44.24,78.312,43.824,79.158,44.161"/>
	<path fill="#0E252B" d="M110.825,81.478c-0.227-0.034-0.451-0.066-0.67-0.097c-0.738-0.101-1.509-0.181-2.31-0.24
		c-1.019-0.076-2.026-0.114-3.028-0.114l0.458,4.601c0.091,0.904-0.574,1.714-1.481,1.802c-0.905,0.091-1.716-0.574-1.805-1.479
		l-0.473-4.785c-1.95,0.163-3.852,0.47-5.693,0.91l1.448,3.904c0.32,0.856-0.118,1.81-0.977,2.127
		c-0.855,0.317-1.809-0.12-2.127-0.977l-1.536-4.137c-2.206,0.744-4.298,1.682-6.244,2.799l2.272,3.021
		c0.545,0.729,0.396,1.763-0.33,2.308c-0.73,0.55-1.764,0.402-2.309-0.327L83.6,87.574c-0.123,0.088-0.247,0.179-0.372,0.27
		c-1.574,1.16-3.019,2.445-4.313,3.841l2.629,2c0.725,0.548,0.866,1.581,0.315,2.308c-0.548,0.726-1.583,0.866-2.309,0.316
		l-2.732-2.078c-1.232,1.687-2.264,3.499-3.061,5.414l2.733,1.081c0.843,0.335,1.256,1.295,0.92,2.14
		c-0.335,0.849-1.293,1.263-2.14,0.927l-2.581-1.025c-0.403,1.489-0.668,3.025-0.788,4.602c-0.032,0.443-0.056,0.833-0.066,1.17
		c-0.004,0.203-0.008,0.407-0.008,0.609c14.172,1.933,28.666-5.009,35.694-18.406C109.09,87.747,110.184,84.63,110.825,81.478"/>
	<path fill="#0E252B" d="M76.258,17.167c-31.366,0-56.793,25.428-56.793,56.791c0,31.367,25.428,56.792,56.793,56.792
		c31.365,0,56.79-25.425,56.79-56.792C133.048,42.595,107.623,17.167,76.258,17.167 M76.258,129.294
		c-30.513,0-55.335-24.824-55.335-55.335c0-30.512,24.822-55.333,55.335-55.333c30.512,0,55.331,24.821,55.331,55.333
		C131.589,104.47,106.77,129.294,76.258,129.294"/>
	<polygon fill="#0E252B" points="72.914,30.29 76.258,28.529 79.599,30.29 78.96,26.566 81.661,23.931 77.929,23.387 76.258,20.002 
		74.585,23.387 70.847,23.931 73.554,26.566 	"/>
	<polygon fill="#0E252B" points="79.599,117.633 76.258,119.388 72.914,117.633 73.552,121.355 70.847,123.987 74.583,124.532 
		76.258,127.915 77.927,124.532 81.664,123.987 78.958,121.355 	"/>
	<polygon fill="#0E252B" points="43.012,45.441 44.131,41.834 47.735,40.714 44.655,38.534 44.701,34.762 41.679,37.018 
		38.105,35.805 39.315,39.38 37.058,42.403 40.834,42.358 	"/>
	<polygon fill="#0E252B" points="109.501,102.478 108.379,106.083 104.777,107.205 107.857,109.385 107.808,113.159 
		110.836,110.901 114.412,112.114 113.197,108.54 115.457,105.512 111.683,105.562 	"/>
	<polygon fill="#0E252B" points="32.586,77.302 30.826,73.96 32.586,70.617 28.862,71.256 26.229,68.553 25.685,72.29 22.3,73.96 
		25.685,75.633 26.227,79.362 28.862,76.665 	"/>
	<path fill="#0E252B" d="M122.326,86.795l-3.333,3.421l-3.767-0.647c-0.123,0.303-0.247,0.607-0.376,0.907l1.658,3.16l-2.218,4.23
		l4.7-0.809l3.335,3.421l0.687-4.726l4.28-2.115l-4.28-2.116L122.326,86.795z"/>
	<polygon fill="#0E252B" points="44.131,106.083 43.012,102.478 40.832,105.562 37.058,105.512 39.315,108.538 38.105,112.114 
		41.679,110.901 44.703,113.159 44.655,109.385 47.737,107.205 	"/>
	<polygon fill="#0E252B" points="108.379,41.834 109.501,45.439 111.683,42.359 115.455,42.409 113.197,39.381 114.412,35.805 
		110.834,37.019 107.808,34.762 107.857,38.534 104.777,40.715 	"/>
	<polygon fill="#0E252B" points="56.458,34.89 58.871,31.988 62.631,32.333 60.619,29.138 62.102,25.669 58.45,26.598 55.608,24.11 
		55.361,27.876 52.116,29.804 55.62,31.208 	"/>
	<polygon fill="#0E252B" points="96.056,113.028 93.642,115.931 89.879,115.588 91.896,118.78 90.408,122.253 94.065,121.32 
		96.906,123.81 97.153,120.042 100.391,118.114 96.894,116.712 	"/>
	<polygon fill="#0E252B" points="27.965,59.81 31.435,58.319 34.625,60.334 34.286,56.574 37.186,54.157 33.503,53.323 
		32.101,49.819 30.17,53.062 26.406,53.309 28.896,56.151 	"/>
	<polygon fill="#0E252B" points="124.192,73.037 120.996,71.021 121.346,74.784 118.443,77.201 122.124,78.033 123.522,81.539 
		125.455,78.294 129.222,78.045 126.731,75.207 127.66,71.55 	"/>
	<polygon fill="#0E252B" points="34.286,91.344 34.627,87.583 31.435,89.6 27.965,88.109 28.896,91.768 26.408,94.606 
		30.172,94.857 32.101,98.102 33.505,94.593 37.188,93.763 	"/>
	<polygon fill="#0E252B" points="118.231,56.574 117.886,60.334 121.078,58.321 124.548,59.809 123.621,56.151 126.109,53.309 
		122.343,53.062 120.407,49.819 119.012,53.323 115.324,54.158 	"/>
	<polygon fill="#0E252B" points="58.871,115.934 56.457,113.028 55.62,116.714 52.116,118.114 55.361,120.042 55.608,123.812 
		58.45,121.32 62.104,122.254 60.617,118.784 62.629,115.588 	"/>
	<polygon fill="#0E252B" points="93.645,31.987 96.062,34.889 96.896,31.207 100.394,29.807 97.153,27.875 96.908,24.109 
		94.065,26.597 90.406,25.668 91.896,29.137 89.881,32.333 	"/>
	<path fill="#FF3852" d="M145.226,73.417l-3.237-5.55l2.169-6.049c0.135-0.365,0.059-0.771-0.194-1.062l-4.201-4.867l1.017-6.343
		c0.064-0.384-0.088-0.767-0.391-1.009l-5.027-4.004l-0.175-6.426c-0.01-0.384-0.227-0.738-0.57-0.917l-5.676-3.011l-1.352-6.282
		c-0.081-0.379-0.356-0.684-0.729-0.799l-6.133-1.919l-2.473-5.934c-0.152-0.355-0.479-0.606-0.864-0.651l-6.379-0.767l-3.522-5.377
		c-0.211-0.323-0.573-0.506-0.966-0.481l-6.413,0.421l-4.453-4.635c-0.271-0.275-0.666-0.39-1.039-0.294l-6.225,1.602l-5.234-3.731
		c-0.314-0.224-0.729-0.261-1.077-0.098L76.258,7.95l-5.826-2.716c-0.349-0.163-0.76-0.125-1.076,0.098l-5.235,3.731L57.9,7.461
		c-0.378-0.096-0.771,0.019-1.04,0.294l-4.453,4.635l-6.414-0.421c-0.391-0.024-0.756,0.159-0.967,0.481l-3.522,5.377l-6.381,0.765
		c-0.381,0.047-0.714,0.296-0.859,0.653l-2.476,5.934l-6.133,1.917c-0.37,0.114-0.648,0.419-0.727,0.799l-1.353,6.282l-5.677,3.01
		c-0.339,0.181-0.56,0.53-0.57,0.917l-0.172,6.425l-5.031,4.003c-0.301,0.24-0.452,0.627-0.389,1.009l1.016,6.347l-4.2,4.867
		c-0.255,0.294-0.33,0.698-0.197,1.062l2.173,6.049l-3.238,5.55c-0.195,0.335-0.195,0.75,0,1.083l3.238,5.552l-2.173,6.05
		c-0.132,0.361-0.058,0.769,0.197,1.061l4.2,4.865l-1.016,6.347c-0.062,0.382,0.088,0.768,0.389,1.008l5.027,4.008l0.174,6.422
		c0.012,0.387,0.231,0.736,0.572,0.921l5.677,3.006l1.351,6.283c0.08,0.379,0.357,0.683,0.729,0.801l6.13,1.917l2.477,5.934
		c0.146,0.353,0.475,0.605,0.861,0.648l6.379,0.767l3.522,5.376c0.212,0.324,0.58,0.514,0.967,0.483l6.414-0.42l4.453,4.632
		c0.271,0.281,0.664,0.394,1.039,0.297l6.223-1.603l5.235,3.734c0.315,0.225,0.727,0.26,1.076,0.097l5.826-2.716l5.823,2.719
		c0.146,0.065,0.301,0.099,0.456,0.099c0.217,0,0.437-0.066,0.621-0.198l5.234-3.734l6.224,1.603
		c0.374,0.097,0.77-0.016,1.038-0.293l4.452-4.636l6.416,0.422c0.393,0.028,0.755-0.157,0.966-0.481l3.521-5.378l6.381-0.765
		c0.384-0.047,0.712-0.3,0.863-0.652l2.474-5.934l6.133-1.917c0.372-0.116,0.647-0.422,0.729-0.801l1.352-6.283l5.676-3.006
		c0.342-0.185,0.558-0.534,0.568-0.921l0.173-6.424l5.031-4.006c0.303-0.24,0.455-0.626,0.391-1.008l-1.017-6.349l4.201-4.863
		c0.253-0.292,0.329-0.699,0.194-1.061l-2.169-6.052l3.237-5.55C145.418,74.167,145.418,73.753,145.226,73.417 M76.258,17.168
		c31.365,0,56.79,25.426,56.79,56.791c0,31.368-25.425,56.789-56.79,56.789c-31.366,0-56.793-25.421-56.793-56.789
		C19.464,42.594,44.892,17.168,76.258,17.168"/>
	<path fill="#FF3852" d="M35.075,82.064c3.863,19.63,21.163,33.878,41.138,33.878c2.718,0,5.461-0.269,8.149-0.798
		c11.004-2.166,20.504-8.485,26.75-17.796c1.474-2.196,2.713-4.497,3.736-6.872c0.131-0.301,0.255-0.604,0.378-0.907
		c3.008-7.462,3.807-15.64,2.216-23.719c-3.863-19.629-21.167-33.874-41.141-33.874c-2.719,0-5.462,0.269-8.151,0.798
		c-11.001,2.165-20.501,8.486-26.747,17.794C35.155,59.88,32.906,71.063,35.075,82.064 M43.822,52.192
		c5.813-8.664,14.653-14.544,24.89-16.558c2.507-0.494,5.061-0.744,7.59-0.744c18.586,0,34.687,13.256,38.28,31.525
		c2.017,10.237-0.076,20.646-5.893,29.308c-5.814,8.665-14.652,14.545-24.89,16.562c-2.506,0.493-5.057,0.74-7.587,0.74
		c-18.586,0-34.685-13.254-38.28-31.523C35.916,71.265,38.009,60.856,43.822,52.192"/>
</g>
</svg>
