<?xml version="1.0" encoding="utf-8"?>
<!-- Generator: Adobe Illustrator 18.1.0, SVG Export Plug-In . SVG Version: 6.00 Build 0)  -->
<svg version="1.1" id="Layer_1" xmlns="http://www.w3.org/2000/svg" xmlns:xlink="http://www.w3.org/1999/xlink" x="0px" y="0px"
	 viewBox="0 0 150 150" enable-background="new 0 0 150 150" xml:space="preserve">
<g>
	<path fill="none" d="M27,107.4c0,0.1-0.2,0.3-0.6,0.5c0.1,0.2,0.1,0.5,0.2,0.6c0.5,0,1,0,1.5-0.1c0.4-0.4,0.8-0.8,1.3-1.2
		c-1-0.6-2-1.2-3-1.9C26.8,106.1,27,107.2,27,107.4z"/>
	<path fill="none" d="M25.2,108.1l0.4,0.4c0,0,0,0,0,0l0-0.4C25.5,108.1,25.3,108.1,25.2,108.1z"/>
	<path fill="#008EA2" d="M22.4,90.5c-6,2.9-7.9-4.8-7.9-4.8s1.2,1.5,4.6,1.6c2.7,0.1,2.9,1.7,2.9,2.3c4.1,0.6,8.4-5.3,8.8-16.4
		c0.3-8.2,3.8-11.3,6.3-12.4c1-1.3,2.2-2.2,3.8-2.7c6.4-1.9,14.8-1.1,23.5-0.1c8.7,1,17.7,1.9,19.3,1c1.6-0.8,3.6-2,3.6-2L86,56.9
		c0,0,2.5-4.2,6.6-4.1c4.1,0.1,5.6,0.1,5.6,0.1l-1.5-0.7c0,0,2-1.4,7.2,0.8c0,0,1.9,0.9,3.5,0.8c1.5-0.1,2-0.4,2-0.4s4-2.5,5.9-1.8
		c1.9,0.8,2.3,0.8,2.3,0.8s-1.4,0.7-1.5,1.3c0,0,2-0.5,3.7,2.8l-1.6-0.1c0,0,2.7,2.3,2.7,4.3l-1.9-0.9c0,0,1.4,2.2,1.5,3.6
		c0.1,1.4,4.6,8.1,4.6,8.1L124,73h-0.5c0,0-0.7,2.2-1.5,2.3c0,0,0.2,0.4,0,1c-0.2,0.6-0.6,1.7-1.9,1.8c-1.3,0.1-1.5-1.6-2-2.1
		c-0.5-0.5-2.2-1.1-2.2-1.1s-1,4.5-2.9,5.8c-1.9,1.3-2.7,2.6-2.7,2.6l0.2-1.5c0,0-0.8,1.3-2.5,3.2c-1.6,1.9-2.5,3.7-2.3,4.1
		c0.2,0.5,3.6,10,4,11.9c0.5,1.9,1,2.9,2.6,4.6c0.6,0.6,1,1,1.3,1.3c0.2,0.1,0.6,0.2,1,0.5c0.5-0.1,4-0.1,4.1,1.1c0,0.1,0,0.2,0,0.3
		c0.2-0.1,0.4-0.1,0.5-0.2c0.9-0.5,1.5-0.1,2.4,0.2c10.7-5.5,18.1-16.8,18.1-29.9c0-18.4-14.6-33.3-32.6-33.3c-0.2,0-0.4,0-0.6,0
		c-5.8-9.2-15.9-15.4-27.5-15.4c-11.3,0-21.3,5.9-27.2,14.9c-2.2-0.5-4.5-0.7-6.8-0.7c-18,0-32.6,14.9-32.6,33.3
		c0,9.2,3.7,17.6,9.6,23.6c0.9-2.9,2.8-9.5,3.3-11.3C24.2,90.5,23.2,90.6,22.4,90.5z"/>
	<path fill="#008EA2" d="M33.3,75.2c0.1-2,0.2-4.7,0.8-7.4c-1.1,1.9-1.9,4-1.9,5.7c0,1.9-0.3,4.7-0.9,7.3C32.4,79,33.3,77,33.3,75.2
		z"/>
	<path fill="#008EA2" d="M45,111.3c0.3,0,0.7,0,1,0l-5.8-0.3C41.8,111.1,43.4,111.3,45,111.3z"/>
	<path fill="#008EA2" d="M44.9,103.9c-1.7-1.5-5.1-7.8-5.1-7.8s3.2-6.3,1.9-10.6c0,0-8.9,5.7-10.5,7.2c-1.5,1.4-3.7,4.3-4,5.4
		c-0.3,1-1.5,5.9-1.1,6.7c0.1,0.2,0.2,0.4,0.3,0.7c1,0.7,1.9,1.3,3,1.9c2-1.7,4.5-3.5,4.5-3.5s-1,5-0.2,4c0.8-1,2.9-4.6,2.9-4.6
		s-0.2,4.4,2.1,3.4c2.3-1,3.4-3.4,3.4-3.4s2.7,4.6,3.4,3.6c0.1-0.2,0.3-0.5,0.5-0.8C45.9,105.2,45.6,104.5,44.9,103.9z"/>
	<path fill="#008EA2" d="M97.4,91.7l-1.9,1.2c0,0,0.4-2.6-0.3-3.9c0,0-0.4,0.3-2,2.1c-1.6,1.8-2.4,2.6-2.4,2.6l-0.6-2.4
		c0,0-0.4,1.2-1.5,1.9c-1.2,0.7-1.6-0.9-1.6-0.9l-0.4,0.6c0,0-2.2-4.4-2.5-4c-0.3,0.4-0.3,2.6-0.6,2.2c-0.4-0.5-1.8-3.6-1.8-3.6
		s-1.6,5.6-2.3,7.5c-0.6,2-2.6,9.6-2.4,11.1c0,0.2,0.1,0.4,0.1,0.5c1.7-0.8,2.4-1.4,2.6-1.1c0.5,0.6,1.4,2.1,3,2.4c0.3,0,0.7,0,1,0
		c0.2,0,0.4-0.1,0.6-0.1c2.5-0.8,5.2-2.9,7.1-2.1c1.9,0.8,6.3,2.9,8.2,2.3c1.9-0.6,2.5-1.9,2.5-1.9s0.6,1.7,2.1,2.4
		c0.9,0,1.7,0.1,2.6,0.1c0.2-0.1,0.3-0.1,0.5-0.2c-0.3-0.3-0.5-0.6-0.7-0.8C106,106.5,97.4,91.7,97.4,91.7z"/>
	<path fill="#008EA2" d="M70.7,105.1c0.2-1.7,1.5-6.7,2-11.6c0.5-4.9,1-8.9,1-8.9s-6.6,6.6-17.6-4.1l-1.3-1.5c0,0-0.7,0.4-1.1,1.5
		c-0.4,1.1-8.6,16-7,18.6c1.5,2.6,4.7,7,4.7,7s1.5,0.4,1.9,1.1c2.3-1.5,3.5-3.5,3.5-3.5s0,3.1,3.6,3.1c3.6,0,8.8-1.5,9.4-1
		c0.3,0.2,0.5,0.7,1,1.2C70.6,106.4,70.6,105.7,70.7,105.1z"/>
	<path fill="#A6A6A6" d="M22.4,105.4l2.7,2.7c0.2,0,0.3,0,0.4,0l0.4-4.4c0,0,0.1,2.5,0.5,4.1c0.4-0.2,0.6-0.3,0.6-0.5
		c0-0.2-0.3-1.3-0.6-2.1c-0.1-0.2-0.2-0.5-0.3-0.7c-0.5-0.8,0.8-5.7,1.1-6.7c0.3-1,2.5-4,4-5.4c1.5-1.4,10.5-7.2,10.5-7.2
		c1.3,4.3-1.9,10.6-1.9,10.6s3.4,6.3,5.1,7.8c0.7,0.6,1,1.3,1.1,2c0.9-1.2,2.4-2.8,2.4-2.8s0.7,4.2,2.7,4.8c0.3,0,0.6,0,0.9,0
		c0.1,0,0.3-0.1,0.4-0.1c0.3-0.2,0.6-0.3,0.9-0.5c-0.4-0.8-1.9-1.1-1.9-1.1s-3.2-4.3-4.7-7c-1.5-2.6,6.6-17.5,7-18.6
		c0.4-1.1,1.1-1.5,1.1-1.5l1.3,1.5c11,10.7,17.6,4.1,17.6,4.1s-0.5,4.1-1,8.9c-0.5,4.9-1.8,9.9-2,11.6c-0.1,0.6,0,1.3,0.1,1.9
		c0.3,0.3,0.6,0.6,1.1,0.7c0.5,0,1,0,1.5,0c0.1,0,0.1,0,0.2,0c1.6-0.4,2.8-0.8,3.7-1.2c-0.1-0.2-0.1-0.4-0.1-0.5
		c-0.3-1.5,1.7-9.1,2.4-11.1c0.6-2,2.3-7.5,2.3-7.5s1.5,3.1,1.8,3.6c0.4,0.5,0.4-1.8,0.6-2.2c0.3-0.4,2.5,4,2.5,4l0.4-0.6
		c0,0,0.5,1.6,1.6,0.9c1.2-0.7,1.5-1.9,1.5-1.9l0.6,2.4c0,0,0.7-0.8,2.4-2.6c1.6-1.8,2-2.1,2-2.1c0.6,1.2,0.3,3.9,0.3,3.9l1.9-1.2
		c0,0,8.6,14.9,9.3,15.9c0.2,0.2,0.4,0.5,0.7,0.8c0.7-0.4,1-1.1,1-1.1s2.3,1,3.6,0.8c1-0.2,0.8-1.3,1.7-1.1
		c-0.3-0.3-0.7-0.7-1.3-1.3c-1.6-1.7-2.2-2.7-2.6-4.6c-0.5-1.9-3.8-11.4-4-11.9c-0.2-0.5,0.6-2.3,2.3-4.1c1.6-1.9,2.5-3.2,2.5-3.2
		l-0.2,1.5c0,0,0.8-1.3,2.7-2.6c1.9-1.3,2.9-5.8,2.9-5.8s1.7,0.7,2.2,1.1c0.5,0.5,0.7,2.2,2,2.1c1.3-0.1,1.7-1.2,1.9-1.8
		c0.2-0.6,0-1.1,0-1.1c0.8-0.1,1.5-2.3,1.5-2.3h0.5l1.1-1.4c0,0-4.5-6.8-4.6-8.2c-0.1-1.4-1.5-3.5-1.5-3.5l1.9,1
		c0-2.1-2.7-4.3-2.7-4.3l1.6,0.1c-1.7-3.3-3.7-2.8-3.7-2.8c0.1-0.7,1.5-1.3,1.5-1.3s-0.4,0-2.3-0.8c-1.9-0.8-5.9,1.8-5.9,1.8
		s-0.5,0.3-2,0.4C105.9,54,104,53,104,53c-5.2-2.3-7.2-0.8-7.2-0.8l1.5,0.7c0,0-1.6,0-5.6-0.1c-4.1-0.1-6.6,4.1-6.6,4.1l1.2,0.1
		c0,0-1.9,1.1-3.6,2c-1.6,0.8-10.7,0-19.3-1c-8.7-1-17.1-1.8-23.5,0.1c-1.6,0.5-2.8,1.4-3.8,2.7c-2.5,1.2-6,4.2-6.3,12.4
		c-0.4,11.1-4.7,17-8.8,16.4c0-0.6-0.2-2.2-2.9-2.3c-3.4-0.1-4.6-1.6-4.6-1.6s1.9,7.7,7.9,4.8c0.9,0.1,1.9,0.1,2.9-0.2
		c-0.5,1.8-2.4,8.4-3.3,11.3c-0.1,0.5-0.3,0.8-0.3,1.1c-0.4,1.2,0,3,0.7,4.2C22.6,106,22.4,105.4,22.4,105.4z M34.1,67.8
		c-0.5,2.7-0.7,5.4-0.8,7.4c-0.1,1.8-0.9,3.8-2,5.6c0.6-2.7,0.9-5.4,0.9-7.3C32.3,71.8,33,69.6,34.1,67.8z"/>
	<path fill="#A6A6A6" d="M114.7,107.6c1.8,1.2,2.9,1.8,4.1,1.4c0-0.1,0-0.2,0-0.3C118.7,107.5,115.1,107.5,114.7,107.6z"/>
	<path fill="#7A7A7A" d="M123.7,109.4c-0.9,0-1.5-0.2-2-0.4c-0.9-0.4-1.4-0.8-2.4-0.2c-0.2,0.1-0.4,0.2-0.5,0.2
		c-1.2,0.4-2.2-0.2-4.1-1.4c-0.4-0.3-0.8-0.4-1-0.5c-0.9-0.2-0.7,0.9-1.7,1.1c-1.3,0.2-3.6-0.8-3.6-0.8s-0.2,0.6-1,1.1
		c-0.1,0.1-0.3,0.2-0.5,0.2c-0.9,0-1.7-0.1-2.6-0.1c-1.5-0.7-2.1-2.4-2.1-2.4s-0.6,1.3-2.5,1.9c-1.9,0.6-6.3-1.5-8.2-2.3
		c-1.9-0.8-4.6,1.3-7.1,2.1c-0.2,0.1-0.4,0.1-0.6,0.1c-0.3,0-0.7,0-1,0c-1.5-0.3-2.5-1.8-3-2.4c-0.2-0.3-0.9,0.4-2.6,1.1
		c-0.9,0.4-2.1,0.8-3.7,1.2c-0.1,0-0.1,0-0.2,0c-0.5,0-1,0-1.5,0c-0.5-0.1-0.8-0.4-1.1-0.7c-0.4-0.5-0.7-1-1-1.2
		c-0.6-0.4-5.9,1-9.4,1c-3.6,0-3.6-3.1-3.6-3.1s-1.2,2-3.5,3.5c-0.3,0.2-0.6,0.4-0.9,0.5c-0.1,0.1-0.3,0.1-0.4,0.1
		c-0.3,0-0.6,0-0.9,0c-2-0.5-2.7-4.8-2.7-4.8s-1.5,1.6-2.4,2.8c-0.2,0.3-0.4,0.6-0.5,0.8c-0.6,1-3.4-3.6-3.4-3.6s-1,2.3-3.4,3.4
		c-2.3,1-2.1-3.4-2.1-3.4s-2.1,3.6-2.9,4.6c-0.8,1,0.2-4,0.2-4s-2.6,1.7-4.5,3.5c-0.5,0.4-0.9,0.8-1.3,1.2c-0.5,0-1,0-1.5,0.1
		c-0.1-0.2-0.1-0.4-0.2-0.6c-0.4-1.6-0.5-4.1-0.5-4.1l-0.4,4.6l0,0.7c0,0,0,0,0,0l-0.4-0.6l-2.7-2.9c0,0,0.2,0.6,0,1.3
		c-0.2,0.6-0.6,1.2-1.7,1.6c-2.3,0.8-2.1-0.4-2.1-0.4l-1.2,0.9c-4.5,0.2-7.2,0.3-7.2,0.3l30,1.7l5.8,0.3l0.7,0l-0.8,2.1
		c6.7-1.7,32.3,1.7,32.3,1.7l-3.4,4.2c11.3-2.1,59.5-8.4,59.5-8.4c-2.7-0.3-5.6-0.7-8.5-0.9C125.4,109.6,124.7,109.4,123.7,109.4z"
		/>
</g>
</svg>
