<?xml version="1.0" encoding="utf-8"?>
<!-- Generator: Adobe Illustrator 18.1.0, SVG Export Plug-In . SVG Version: 6.00 Build 0)  -->
<svg version="1.1" id="Layer_1" xmlns="http://www.w3.org/2000/svg" xmlns:xlink="http://www.w3.org/1999/xlink" x="0px" y="0px"
	 viewBox="0 0 1500 1500" enable-background="new 0 0 1500 1500" xml:space="preserve">
<g>
	<path fill="#FF854F" d="M250.8,1037.8c17.9,88,58.9,171.2,121.1,240c22.5-19.6,68.4-73,73.6-185.8
		C366,1075,299.1,1054.6,250.8,1037.8z"/>
	<path fill="#FF854F" d="M369.2,778.5c-3.7-7.1-6.7-12.7-8.8-17.3c-17.9-39.3-29.8-73.6-35.8-105.3c-65,98.7-91.3,211.9-82.3,321.6
		c44.8,16.4,115.6,39.5,202.7,58.8C437.2,908,390.1,818.3,369.2,778.5z"/>
	<path fill="#FF854F" d="M1040,1355.5c50.6-35,95.8-79.6,132.4-133.6c46.7-69.1,74.1-145.5,83.7-223
		c-135.4,78.5-294.4,121.1-469.9,126.2C803.9,1277.5,973.7,1337.7,1040,1355.5z"/>
	<path fill="#FF854F" d="M1041,731c-12.2,10.6-27.1,22.3-43,34.8c-81.9,64.2-201.8,158.2-212.9,305.2
		c156.6-4.3,323.7-40.2,474.7-137.2c-0.7-114.5-39.8-227.4-113.5-318.4C1120.7,650.7,1085.4,692.2,1041,731z"/>
	<path fill="#97A822" d="M416.7,753.6c23.3,44.3,76.9,146.4,82.5,293.7c25,4.6,51,8.8,77.9,12.3c-2.5-173.6,21.4-401.9,131.5-630.3
		l-0.7-1.1V55.1c0,0-20.3,228.1-141.7,334.9C445,496.8,381,268.6,381,268.6v321c0,0.6-3.5,1.2-4.1,1.9c-4,38.7,4.2,83.3,33.5,147.5
		C411.9,742.2,413.5,747.5,416.7,753.6z"/>
	<path fill="#97A822" d="M578.9,1114.8c-7.4-0.9-14.9-1.9-22.4-3c-19.8-2.8-39.1-5.9-57.9-9.3c-7.7,120.9-57.9,184.8-88.7,213
		c17,15.3,35.1,29.6,54.6,42.8c50.9,34.4,105.7,58.4,162,72.5c-16.3-62.1-38.8-167.6-46.7-300
		C579.5,1125.5,579.2,1120.2,578.9,1114.8z"/>
	<path fill="#97A822" d="M507.6,360.9c24.1,0,43.7-16.3,43.7-36.4c0-20.1-19.6-36.4-43.7-36.4c-24.1,0-43.7,16.3-43.7,36.4
		C463.9,344.6,483.4,360.9,507.6,360.9z"/>
	<path fill="#AF6148" d="M910.5,341.5c24.1,0,43.7-16.3,43.7-36.4c0-20.1-19.6-36.4-43.7-36.4c-24.1,0-43.7,16.3-43.7,36.4
		C866.8,325.2,886.3,341.5,910.5,341.5z"/>
	<path fill="#AF6148" d="M732.2,1125.6c-32.3-0.4-65.2-2.1-98.5-5c8.3,150.9,36.5,267.5,51.6,321.1c100.1,12.8,201.9-4.5,292-49.3
		C886,1359.7,747.2,1284.2,732.2,1125.6z"/>
	<path fill="#AF6148" d="M964.9,723.5c15.9-12.5,29.7-23.3,40.8-33c43.6-38,81.3-80.6,105.9-115.8l2.4,0V118.2
		C878,691,773,191,773,191v236c-117,224.1-144.3,452.6-140.6,638.8c32.4,3,65.3,4.9,99.4,5.5C742.5,898.3,879.7,790.2,964.9,723.5z"
		/>
</g>
</svg>
