<?xml version="1.0" encoding="utf-8"?>
<!-- Generator: Adobe Illustrator 18.1.0, SVG Export Plug-In . SVG Version: 6.00 Build 0)  -->
<svg version="1.1" id="Layer_1" xmlns="http://www.w3.org/2000/svg" xmlns:xlink="http://www.w3.org/1999/xlink" x="0px" y="0px"
	 viewBox="0 0 2000 2000" enable-background="new 0 0 2000 2000" xml:space="preserve">
<g>
	<path fill="#8A173B" d="M976,1299h60v-89.8l0,0v-14.4c0-14.7-14.8-26.6-30-26.6c-15.1,0-30,11.9-30,26.6v14.4l0,0V1299z"/>
	<path fill="#8A173B" d="M1006,884c-15.1,0-30,12-30,26.7v14.4l0,0v89.9h60v-89.9l0,0v-14.4C1036,896,1021.2,884,1006,884z"/>
	<path fill="#8A173B" d="M1245,1837h254c0,0-135-792-185.6-1091h96.6V521h-210v120h-119V521H931v120H812V521H602v225h96.6
		C642.5,1060,513,1837,513,1837h254c0-119,0-209,0-284c0,0,1.7,0,1.5,0l-1.5-7.3c0-8.9,0-17.4,0-25.4c0-54.8,0-90.4,0-99.4
		c0-42,12.9-86,28.7-111.3c17-27.5,32.5-49.4,54.2-71c21.6-21.6,66-63.4,66-97.7c0-15.1,0-36.3,0-51.2l0,0c0-74.8,0-156.7,0-238.3
		c0-0.5,0-0.9,0-1.2c0-30.1,0-60.1,0-90.2c0-0.7,0-1.9,0-3c0-8.3,0-10.9,0-25.9h0.5c1.3,0,43.8-12.1,96-12.1
		c52.2,0,94.5,5.8,96.1,13.3l1.5,0.4c0,0,0.8,0.2,0.8,0.4c0,8.3,0,16,0,23.8c0,1.1,0,2.4,0,3c0,30.1,0,60.2,0,90.2
		c0,0.3,0,0.7,0,1.2c0,7,0,14.3,0,21.2c0,2.6-1.9,4.7-1.9,7.5c0.2,85.3-0.8,170.3-0.7,256.1c0,34.3,39.7,77.5,59.4,97.7
		c19,20,38.3,44.7,51.9,67.2c17,28.4,25.4,74.5,25.4,107.8c0,36.9,0,74.3,0,111.4C1245,1625.8,1245,1733,1245,1837z"/>
	<path fill="#00A595" d="M976,316.4V521h15V294.6v-168V103h-15v30.5c-45,23.1-55.3-0.1-116.1-0.1c-116.4,0-138.9,91.2-138.9,91.2
		S871,164.9,976,316.4z"/>
	<path fill="#8A173B" d="M1005.9,1628.3c-41.5,0-74.9,33.7-74.9,75.4V1837h150v-133.3C1081,1662,1047.6,1628.3,1005.9,1628.3z"/>
</g>
</svg>
