<?xml version="1.0" encoding="utf-8"?>
<!-- Generator: Adobe Illustrator 18.1.0, SVG Export Plug-In . SVG Version: 6.00 Build 0)  -->
<svg version="1.1" id="Layer_1" xmlns="http://www.w3.org/2000/svg" xmlns:xlink="http://www.w3.org/1999/xlink" x="0px" y="0px"
	 viewBox="0 0 2000 2000" enable-background="new 0 0 2000 2000" xml:space="preserve">
<g>
	<path fill="#707173" d="M503.2,1467.5c1.4,3.6,2.8,7.2,4.1,10.7C505.9,1474.6,504.6,1471.1,503.2,1467.5z"/>
	<path fill="#707173" d="M480.9,1409.6c0.4,0.9,0.7,1.8,1.1,2.8C481.6,1411.5,481.2,1410.5,480.9,1409.6z"/>
	<path fill="#707173" d="M490.9,1435.8c1.4,3.6,2.8,7.3,4.2,10.9C493.7,1443,492.3,1439.4,490.9,1435.8z"/>
	<path fill="#707173" d="M514.1,1495.7c1.4,3.6,2.8,7.2,4.2,10.8C516.9,1502.9,515.5,1499.3,514.1,1495.7z"/>
	<path fill="#707173" d="M524.1,1521.2c2.1,5.4,4.2,10.7,6.2,15.9C528.2,1531.9,526.2,1526.6,524.1,1521.2z"/>
	<path fill="#707173" d="M467.7,1375.2c0.6,1.6,1.2,3.2,1.8,4.8C468.9,1378.4,468.3,1376.8,467.7,1375.2z"/>
	<path fill="#707173" d="M249.5,798.7c0.1,0.1,0.1,0.3,0.2,0.4C249.6,799,249.6,798.9,249.5,798.7z"/>
	<path fill="#707173" d="M442.2,1308.6c0.6,1.5,1.2,3.1,1.8,4.6C443.4,1311.7,442.8,1310.2,442.2,1308.6z"/>
	<path fill="#707173" d="M535.7,1550.9c1.3,3.4,2.6,6.7,3.9,10C538.3,1557.6,537,1554.3,535.7,1550.9z"/>
	<path fill="#707173" d="M579.2,1659.8c0.9,2.2,1.8,4.4,2.7,6.6C581,1664.2,580.1,1662.1,579.2,1659.8z"/>
	<path fill="#707173" d="M545,1574.6c1.8,4.6,3.6,9.1,5.4,13.6C548.6,1583.7,546.8,1579.2,545,1574.6z"/>
	<path fill="#707173" d="M572,1642.2c1,2.4,1.9,4.7,2.8,7C573.9,1646.9,573,1644.6,572,1642.2z"/>
	<path fill="#707173" d="M555,1599.7c1.3,3.2,2.5,6.3,3.7,9.4C557.5,1606.1,556.2,1602.9,555,1599.7z"/>
	<path fill="#707173" d="M563.5,1621.2c1.3,3.3,2.7,6.6,3.9,9.8C566.2,1627.8,564.9,1624.6,563.5,1621.2z"/>
	<path fill="#707173" d="M1598.3,453.6c-146.2-156.5-354.3-254.4-585.3-254.4c-331.7,0-616.3,201.6-738,488.9L1359,496L1598.3,453.6
		C1598.3,453.6,1598.3,453.6,1598.3,453.6z"/>
	<path fill="#005770" d="M1629.6,488.8l71.3,691.4L673.1,1725.7c103.2,48.4,218.4,75.6,339.9,75.6c442.4,0,801.1-358.7,801.1-801.1
		C1814.1,805.8,1744.8,627.5,1629.6,488.8z"/>
	<path fill="#707173" d="M579.2,1659.8c-1.4-3.4-2.9-7-4.4-10.6c-0.9-2.3-1.9-4.6-2.8-7c-1.5-3.6-3-7.3-4.5-11.2
		c-1.3-3.2-2.6-6.4-3.9-9.8c-1.6-3.9-3.2-8-4.8-12.1c-1.2-3.1-2.5-6.2-3.7-9.4c-1.5-3.8-3-7.7-4.6-11.6c-1.8-4.4-3.5-8.9-5.4-13.6
		c-1.8-4.5-3.6-9-5.4-13.6c-1.3-3.3-2.6-6.6-3.9-10c-1.8-4.5-3.6-9.1-5.4-13.8c-2-5.2-4.1-10.5-6.2-15.9c-1.9-4.9-3.8-9.7-5.7-14.7
		c-1.4-3.6-2.8-7.2-4.2-10.8c-2.2-5.8-4.5-11.6-6.8-17.5c-1.4-3.6-2.8-7.1-4.1-10.7c-2.7-6.9-5.3-13.8-8.1-20.8
		c-1.4-3.6-2.8-7.2-4.2-10.9c-3-7.7-6-15.5-9-23.4c-0.4-0.9-0.7-1.8-1.1-2.8c-3.8-9.8-7.5-19.6-11.4-29.6c-0.6-1.6-1.2-3.2-1.8-4.8
		c-7.8-20.3-15.7-41-23.7-62c-0.6-1.5-1.2-3.1-1.8-4.6C369.4,1118,290.8,909,249.7,799.1c-0.1-0.1-0.1-0.3-0.2-0.4
		c-2.3-6.2-4.5-12-6.6-17.6c-0.1-0.2-0.2-0.4-0.2-0.6c-19.9,69.8-30.8,143.5-30.8,219.7c0,285.9,149.8,536.6,375.1,678.3
		c-0.3-0.8-0.7-1.7-1.1-2.5c-1.3-3.1-2.6-6.3-4.1-9.7C581,1664.3,580.1,1662.1,579.2,1659.8z"/>
	<path fill="#707173" d="M1329.5,817.4L1608,472l-461.5,548.6L267.1,741.9c0,0-11.6,2.9,0,14.5l595.2,191.9l-226.5,734.1
		l243.8-728.5l270,87l166-205.9l365.2,324.9L1329.5,817.4z"/>
</g>
</svg>
