<?xml version="1.0" encoding="utf-8"?>
<!-- Generator: Adobe Illustrator 18.1.0, SVG Export Plug-In . SVG Version: 6.00 Build 0)  -->
<svg version="1.1" id="Layer_1" xmlns="http://www.w3.org/2000/svg" xmlns:xlink="http://www.w3.org/1999/xlink" x="0px" y="0px"
	 viewBox="0 0 2000 2000" enable-background="new 0 0 2000 2000" xml:space="preserve">
<g>
	<path fill="#97D3EE" d="M1255.4,924.4c-288,38.8-237.5,281.7-115.8,281.7c122.1,0,96.8-151.5,37.9-151.5
		c-58.9,0-33.7,58.9-33.7,58.9s-42.1-12.6-21-92.6c12.8-48.7,114.6-66.1,176.1-29.5c1.7-5.4,3.4-10.9,4.9-16.8
		C1312.1,941.4,1285.5,932.7,1255.4,924.4z M701.9,1256.5c-18.4-4.2-31-2.7-39.4,1.6c19.5,5.5,40.4,10,62.5,13.5
		C719.6,1264.3,711.9,1258.9,701.9,1256.5z M589.8,1230.8c14.9,7.3,30.7,13.8,47.6,19.5c4.5-9.8,15.8-19.6,39.2-27.4
		c48.8-16.3,74.8,16.4,80.4,52.9c48.6,5.3,103,6.1,163.7,1.8c15.4-1.1,31-2.3,46.6-3.6c-67.8-57-135.7-97.9-206.5-101.6
		C668.8,1167.5,615.3,1194.9,589.8,1230.8z M971.3,1008.2c3.9-20.9,9.7-40.1,16.7-57.8c-8,1.9-16,3.7-23.9,5
		c-201.8,69.4-456.2,136.1-506.4,10.7c-58.9-147.3,122.1-151.5,122.1-96.8c0,54.7-54.7,63.1-58.9,42.1c0,0,4.2,50.5,58.9,12.6
		c54.7-37.9,25.2-101-37.9-109.4c-63.1-8.4-168.4,63.1-117.8,223.1c19.7,62.3,54.1,115.6,106.4,156.3
		c43.5-46.7,122.9-83.8,229.6-80.7c2.3-2.5,5.5-4.1,9.2-4.1c4.1,0,7.6,2.1,9.9,5.2c66.7,4.8,143.2,25.1,227.5,67.6
		C973.8,1141.9,957.1,1083.8,971.3,1008.2z M506.2,1105c-8.1,0-14.7-6.6-14.7-14.7c0-8.1,6.6-14.7,14.7-14.7
		c8.1,0,14.7,6.6,14.7,14.7C520.9,1098.4,514.3,1105,506.2,1105z M598.8,1121.9c-8.1,0-14.7-6.6-14.7-14.7c0-8.1,6.6-14.7,14.7-14.7
		s14.7,6.6,14.7,14.7C613.5,1115.3,606.9,1121.9,598.8,1121.9z M653.5,1084c-5.8,0-10.5-4.7-10.5-10.5c0-5.8,4.7-10.5,10.5-10.5
		c5.8,0,10.5,4.7,10.5,10.5C664,1079.3,659.3,1084,653.5,1084z M802.9,1079.8c-9.3,0-16.8-7.5-16.8-16.8c0-9.3,7.5-16.8,16.8-16.8
		c9.3,0,16.8,7.5,16.8,16.8C819.8,1072.3,812.2,1079.8,802.9,1079.8z M857.6,1100.8c-4.7,0-8.4-3.8-8.4-8.4c0-4.7,3.8-8.4,8.4-8.4
		c4.7,0,8.4,3.8,8.4,8.4C866.1,1097.1,862.3,1100.8,857.6,1100.8z M1128.5,1249.1c0.7-0.5,1.4-1,2.2-1.5c-2.1-0.3-4.3-0.4-6.4-0.8
		C1125.7,1247.7,1127.1,1248.4,1128.5,1249.1z"/>
	<path fill="#2EBAE5" d="M1367.4,1241.6c-8.3-11.7-20.4-22.7-38.4-35.5c-11.6-8.3-18.2-17.1-21.5-25.9
		c-41.8,53.4-111.4,75.7-176.9,67.5c-0.7,0.5-1.5,1-2.2,1.5c5.3,2.8,10.4,5.5,15.6,8.2c95.5,50,174,81.2,240.8,96.4
		C1385,1295.8,1385.3,1266.9,1367.4,1241.6z"/>
	<path fill="#FFAFBF" d="M1854.8,1639.4c-9.6-19.2-21.4-35.6-34.9-49.7c-6.6-7-13.7-13.3-21.1-19.2c-26.5,15.1-52.9,26.9-79.2,35.9
		c0.5,1.1,0.8,2.3,0.8,3.6c0,4.7-3.8,8.4-8.4,8.4c-4.1,0-7.4-3-8.1-6.9c-141.5,42.7-277.6,4.8-401.2-48c-0.4,0-0.7,0.2-1.1,0.2
		c-3.4,0-6.3-1.7-8.2-4.2c-17.1-7.4-34-15.1-50.6-22.9c-94.6-44.3-180.7-91.1-254.7-107.6c-227.3-50.5-374.6,58.9-345.1,176.8
		c29.5,117.9,168.4,126.3,168.4,29.5c0-96.8-84.2-71.5-84.2-71.5c50.5-8.4,75.8,84.2,0,88.4c-75.8,4.2-122.1-122.1,12.6-164.2
		c134.7-42.1,227.3,54.7,576.6,239.9c234.6,124.3,463.3,66.5,588.3,15.1C1889.8,1710.9,1873,1675.9,1854.8,1639.4z M1070.2,1525.9
		c-8.1,0-14.7-6.6-14.7-14.7s6.6-14.7,14.7-14.7c8.2,0,14.7,6.6,14.7,14.7S1078.3,1525.9,1070.2,1525.9z M1177.5,1547
		c0-11.6,9.4-21,21.1-21c11.6,0,21,9.4,21,21c0,11.6-9.4,21-21,21C1186.9,1568,1177.5,1558.6,1177.5,1547z M1223.8,1664.8
		c-9.3,0-16.8-7.5-16.8-16.8c0-9.3,7.6-16.8,16.8-16.8c9.3,0,16.8,7.5,16.8,16.8C1240.7,1657.3,1233.1,1664.8,1223.8,1664.8z
		 M1648.9,1652.2c4.7,0,8.4,3.8,8.4,8.4c0,4.7-3.8,8.4-8.4,8.4c-4.7,0-8.4-3.8-8.4-8.4C1640.5,1656,1644.3,1652.2,1648.9,1652.2z
		 M1531.1,1648c2.3,0,4.2,1.9,4.2,4.2c0,2.3-1.9,4.2-4.2,4.2c-2.3,0-4.2-1.9-4.2-4.2C1526.9,1649.9,1528.7,1648,1531.1,1648z
		 M1364.8,1635.4c-10.5,0-18.9-8.5-18.9-18.9c0-0.6,0.3-1.2,0.4-1.8c0.9-9.6,8.8-17.2,18.6-17.2c10.5,0,18.9,8.5,18.9,18.9
		c0,6.4-3.4,11.8-8.3,15.3C1372.4,1633.8,1368.9,1635.4,1364.8,1635.4z M1419.5,1656.4c-7.7,0-14.3-4.7-17.2-11.3
		c-1.1-2.4-1.7-4.9-1.7-7.7c0-10.5,8.5-18.9,18.9-18.9c10.5,0,18.9,8.5,18.9,18.9c0,8.2-5.3,15-12.5,17.6
		C1423.9,1655.8,1421.8,1656.4,1419.5,1656.4z M1611,1744.8c-7,0-12.6-5.6-12.6-12.6c0-7,5.6-12.6,12.6-12.6c7,0,12.6,5.6,12.6,12.6
		C1623.7,1739.1,1618,1744.8,1611,1744.8z M1705.7,1757.4c-8.2,0-14.7-6.6-14.7-14.7c0-8.1,6.6-14.7,14.7-14.7
		c8.1,0,14.7,6.6,14.7,14.7C1720.5,1750.8,1713.9,1757.4,1705.7,1757.4z M1768.9,1711.1c-3.5,0-6.3-2.8-6.3-6.3
		c0-3.5,2.8-6.3,6.3-6.3c3.5,0,6.3,2.8,6.3,6.3C1775.2,1708.3,1772.4,1711.1,1768.9,1711.1z"/>
	<path fill="#A0C48A" d="M894.2,672.7c-12.6,8-24,11.4-24,11.4C876.3,684.1,885.8,679.9,894.2,672.7z M1516.3,279.9
		c-41.8,3.1-79.4,8.8-113.5,16.3c-30.1,23.5-62.6,58.9-95.9,111.1c36.2,0.3,63.9,31.6,30.5,95.7c-19.9,38.3-78.2,59.7-133.6,58.9
		C1084,723.7,947.2,840.6,815.5,797.8c-168.3-54.7-37.9-273.6,50.5-218.9c63,39,49,75.9,28.2,93.8c19-12.1,40.9-34.8,30.8-72.8
		c-16.8-63.1-164.1-113.7-265.2,63.1c-85.2,149.2,69.3,334.3,304.3,292.3c7.9-1.4,15.8-3.1,23.9-5c35.1-8.4,71.8-21.9,109.6-41.2
		c1.4-0.7,2.7-1.3,4.1-2c30.2-15.7,59.7-32.5,88.5-49.7c16.7-29.7,80.4-69.7,145.9-117.9c93.3-68.6,189.8-153.8,157.9-249.7
		C1470.4,419.1,1487.5,344.2,1516.3,279.9z M946,877.7c-2.3,0-4.2-1.9-4.2-4.2c0-2.3,1.9-4.2,4.2-4.2c2.3,0,4.2,1.9,4.2,4.2
		C950.2,875.9,948.4,877.7,946,877.7z M1076.5,890.4c-9.3,0-16.8-7.5-16.8-16.8c0-9.3,7.6-16.8,16.8-16.8s16.8,7.5,16.8,16.8
		C1093.3,882.8,1085.8,890.4,1076.5,890.4z M1093.3,776.7c-11.6,0-21.1-9.4-21.1-21c0-11.6,9.4-21,21.1-21c11.6,0,21,9.4,21,21
		C1114.4,767.3,1105,776.7,1093.3,776.7z M1177.5,730.4c-7,0-12.6-5.7-12.6-12.6c0-7,5.6-12.6,12.6-12.6c7,0,12.6,5.7,12.6,12.6
		C1190.1,724.8,1184.5,730.4,1177.5,730.4z M1371.1,583.1c-7,0-12.6-5.7-12.6-12.6c0-7,5.7-12.6,12.6-12.6c7,0,12.6,5.7,12.6,12.6
		C1383.8,577.5,1378.1,583.1,1371.1,583.1z M1379.6,503.2c-4.7,0-8.4-3.8-8.4-8.4c0-4.7,3.8-8.4,8.4-8.4c4.7,0,8.4,3.8,8.4,8.4
		C1388,499.4,1384.2,503.2,1379.6,503.2z M1409,406.3c-7,0-12.6-5.6-12.6-12.6c0-7,5.7-12.6,12.6-12.6c7,0,12.6,5.7,12.6,12.6
		C1421.7,400.7,1416,406.3,1409,406.3z M1423.7,347.4c-5.8,0-10.5-4.7-10.5-10.5c0-5.8,4.7-10.5,10.5-10.5c5.8,0,10.5,4.7,10.5,10.5
		C1434.3,342.7,1429.5,347.4,1423.7,347.4z M1446.9,507.4c-4.7,0-8.4-3.8-8.4-8.4c0-4.7,3.8-8.4,8.4-8.4c4.7,0,8.4,3.8,8.4,8.4
		C1455.3,503.6,1451.5,507.4,1446.9,507.4z M1299.6,482.1c3.1-24.3-3.8-35.9-13.8-40.9c-22.3,35.6-45.5,70.5-69.4,103.7
		C1255.7,543.2,1294.7,521.3,1299.6,482.1z"/>
	<path fill="#EFBA81" d="M1298.9,991.4c-61.5-36.6-163.3-19.3-176.1,29.5c-21.1,80,21,92.6,21,92.6s-25.2-58.9,33.7-58.9
		c58.9,0,84.2,151.5-37.9,151.5c-121.8,0-172.2-242.9,115.8-281.7c-21.3-5.9-44.1-11.9-57.7-26.2c-6.1-6.4-10.5-14.2-11.8-24.7
		c-0.6-4.9,1.1-10.3,4.3-16.1c-28.8,17.3-58.2,34-88.5,49.7c-1.4,0.7-2.8,1.3-4.1,2c-37.8,19.3-74.5,32.8-109.6,41.2
		c-7,17.8-12.8,36.9-16.7,57.8c-14.2,75.6,2.5,133.6,35.4,173.8c29.6,36.2,72.3,57.8,117.6,64.9c2.1,0.3,4.3,0.5,6.4,0.8
		c65.5,8.2,135.1-14.1,176.9-67.5c-2.9-7.9-3.2-15.8-1.6-23.4c5.4-26.2,31.5-47.5,31.5-47.5
		C1256.9,1074.7,1281.3,1046.9,1298.9,991.4z M1057.6,949.3c5.8,0,10.5,4.7,10.5,10.5c0,5.8-4.7,10.5-10.5,10.5s-10.5-4.7-10.5-10.5
		C1047.1,954,1051.8,949.3,1057.6,949.3z M1021.8,1054.5c-7,0-12.6-5.7-12.6-12.6c0-7,5.6-12.6,12.6-12.6c7,0,12.6,5.6,12.6,12.6
		C1034.4,1048.9,1028.8,1054.5,1021.8,1054.5z M1160.7,322.2c-142,168.7-53.8,238.5,43.2,239.9c55.4,0.8,113.7-20.7,133.6-58.9
		c33.4-64.2,5.7-95.4-30.5-95.7c-23.2-0.2-49.8,12.2-66.3,36.8c0,0,27.5-11.9,45.2-3c10,5,16.8,16.6,13.8,40.9
		c-4.9,39.1-43.9,61.1-83.2,62.8c-28.3,1.2-56.7-8-72.6-29.1c-27.6-36.8,34.4-169.7,259-219.5c34-7.6,71.7-13.2,113.5-16.3
		c4.1-9.1,8.4-17.9,12.9-26.5c24.5-47.2,53.4-86.7,73.7-111.7C1447.1,151.5,1268.5,194,1160.7,322.2z M1409,254.8
		c-9.3,0-16.8-7.5-16.8-16.8c0-9.3,7.5-16.8,16.8-16.8c9.3,0,16.8,7.5,16.8,16.8C1425.9,247.3,1418.3,254.8,1409,254.8z
		 M424.1,1420.7C306.3,1538.6,260,1446,260,1446s21,101,147.3,105.2c126.3,4.2,105.2-159.9,105.2-159.9S479.5,1365.3,424.1,1420.7z
		 M550.4,1420.7c0,0-54.7,63.1-4.2,117.9c50.5,54.7,4.2,105.2,4.2,105.2s75.8-46.3,67.3-122.1C609.3,1446,550.4,1420.7,550.4,1420.7
		z M365.2,1319.7c54.7,84.2,122.1,29.5,122.1,29.5c-46.3-168.3-231.5-130.5-231.5-130.5S310.5,1235.5,365.2,1319.7z M329.4,1193.4
		c5.8,0,10.5-4.7,10.5-10.5c0-5.8-4.7-10.5-10.5-10.5c-5.8,0-10.5,4.7-10.5,10.5C318.9,1188.7,323.6,1193.4,329.4,1193.4z
		 M222.1,1134.5c-7,0-12.6,5.6-12.6,12.6c0,7,5.6,12.6,12.6,12.6c7,0,12.6-5.6,12.6-12.6C234.7,1140.1,229.1,1134.5,222.1,1134.5z
		 M272.6,1277.6c0-9.3-7.5-16.8-16.8-16.8c-9.3,0-16.8,7.5-16.8,16.8s7.5,16.8,16.8,16.8C265.1,1294.4,272.6,1286.9,272.6,1277.6z
		 M339.9,1387c0,11.6,9.4,21,21,21c11.6,0,21.1-9.4,21.1-21c0-11.6-9.4-21.1-21.1-21.1C349.4,1366,339.9,1375.4,339.9,1387z
		 M272.6,1408.1c0,4.7,3.8,8.4,8.4,8.4c4.7,0,8.4-3.8,8.4-8.4c0-4.7-3.8-8.4-8.4-8.4C276.4,1399.6,272.6,1403.4,272.6,1408.1z
		 M148.4,1328.1c-10.5,0-18.9,8.5-18.9,18.9c0,10.5,8.5,18.9,18.9,18.9c10.5,0,19-8.5,19-18.9
		C167.4,1336.6,158.9,1328.1,148.4,1328.1z"/>
	<path fill="#FA87A2" d="M1467.9,1500.7c-90-7.5-85.5-38.3-83.5-110.6c0.2-8.6,0.4-17.7,0.4-27.5c0-3.1,0-5.8,0-8.7
		c-66.9-15.2-145.4-46.4-240.8-96.4c-5.2-2.7-10.3-5.4-15.6-8.2c-1.4-0.8-2.8-1.5-4.3-2.2c-45.2-7-88-28.7-117.6-64.9
		c-84.3-42.6-160.8-62.9-227.5-67.6c1.6,2.1,2.7,4.6,2.7,7.4c0,7-5.7,12.6-12.6,12.6s-12.6-5.7-12.6-12.6c0-3.3,1.3-6.3,3.5-8.6
		c-106.7-3.1-186.1,34-229.6,80.7c-41.9,44.9-50.6,98.6-18,134.1c92.6,101,210.5,46.3,235.7,4.2c9-15,12-36.4,8.9-56.6
		c-5.7-36.5-31.6-69.1-80.4-52.9c-23.4,7.8-34.7,17.6-39.2,27.4c-10.1,22,14,44.1,14,44.1c-5.6-8.4-5.5-27.8,11.1-36.3
		c8.4-4.3,21-5.8,39.4-1.6c10,2.3,17.7,7.8,23.1,15.1c24,32.5,0.5,102-82,98.6c-62.3-2.6-94-81.9-53.2-139.4
		c25.4-35.8,79-63.2,171-58.4c70.8,3.7,138.8,44.6,206.5,101.6c89.8,75.5,179.5,179.2,275.4,262.7c16.6,7.8,33.5,15.5,50.6,22.9
		c-1.4-1.8-2.3-3.9-2.3-6.3c0-5.8,4.7-10.5,10.5-10.5c5.8,0,10.5,4.7,10.5,10.5c0,5.4-4.2,9.7-9.5,10.3
		c123.6,52.8,259.7,90.7,401.2,48c-0.1-0.5-0.3-1-0.3-1.5c0-4.7,3.8-8.4,8.4-8.4c3.4,0,6.2,2,7.6,4.9c26.2-9,52.6-20.8,79.2-35.9
		C1703.2,1495.2,1549.5,1507.5,1467.9,1500.7z M967.1,1210.3c-7,0-12.6-5.6-12.6-12.6c0-7,5.7-12.6,12.6-12.6
		c7,0,12.6,5.7,12.6,12.6C979.7,1204.6,974,1210.3,967.1,1210.3z M1116.5,1323.9c-5.8,0-10.5-4.7-10.5-10.5
		c0-5.8,4.7-10.5,10.5-10.5c5.8,0,10.5,4.7,10.5,10.5C1127,1319.2,1122.3,1323.9,1116.5,1323.9z M1276.4,1454.4
		c-5.8,0-10.5-4.7-10.5-10.5c0-5.8,4.7-10.5,10.5-10.5c5.8,0,10.5,4.7,10.5,10.5C1286.9,1449.7,1282.2,1454.4,1276.4,1454.4z
		 M1594.2,1589.1c-2.3,0-4.2-1.9-4.2-4.2c0-2.3,1.9-4.2,4.2-4.2c2.3,0,4.2,1.9,4.2,4.2C1598.4,1587.2,1596.5,1589.1,1594.2,1589.1z
		 M853.4,499c0,0,92.6-58.9,63.1-151.5c-29.5-92.6,8.4-138.9,8.4-138.9S798.7,246.4,781.9,339C765,431.6,853.4,499,853.4,499z
		 M664,578.9c0,0,71.6-75.8,151.5-75.8v-12.6c0,0-46.3-122.1-181-88.4c-134.7,33.7-181-12.6-181-12.6S558.8,574.7,664,578.9z
		 M992.3,553.7c54.7-33.7,58.9-96.8,58.9-96.8s-8.4,25.2-58.9,25.2c-50.5,0-88.4,29.5-88.4,29.5S937.6,587.3,992.3,553.7z
		 M600.9,701c54.7-29.5,58.9-96.8,58.9-96.8s-88.4-12.6-126.3,37.9c-37.9,50.5-75.8,42.1-75.8,42.1S546.2,730.4,600.9,701z
		 M695.6,326.4c8.1,0,14.7-6.6,14.7-14.7c0-8.2-6.6-14.7-14.7-14.7c-8.1,0-14.7,6.6-14.7,14.7C680.9,319.8,687.5,326.4,695.6,326.4z
		 M638.8,229.6c4.7,0,8.4-3.8,8.4-8.4c0-4.7-3.8-8.4-8.4-8.4c-4.7,0-8.4,3.8-8.4,8.4C630.4,225.8,634.1,229.6,638.8,229.6z
		 M731.4,221.2c4.7,0,8.4-3.8,8.4-8.4c0-4.7-3.8-8.4-8.4-8.4c-4.7,0-8.4,3.8-8.4,8.4C723,217.4,726.7,221.2,731.4,221.2z
		 M609.3,372.7c11.6,0,21-9.4,21-21c0-11.6-9.4-21-21-21c-11.6,0-21.1,9.4-21.1,21C588.3,363.2,597.7,372.7,609.3,372.7z
		 M670.4,162.2c8.1,0,14.7-6.6,14.7-14.7c0-8.1-6.6-14.7-14.7-14.7c-8.1,0-14.7,6.6-14.7,14.7C655.6,155.6,662.2,162.2,670.4,162.2z
		"/>
</g>
</svg>
