<?xml version="1.0" encoding="utf-8"?>
<!-- Generator: Adobe Illustrator 18.1.0, SVG Export Plug-In . SVG Version: 6.00 Build 0)  -->
<svg version="1.1" id="Layer_1" xmlns="http://www.w3.org/2000/svg" xmlns:xlink="http://www.w3.org/1999/xlink" x="0px" y="0px"
	 viewBox="0 0 150 150" enable-background="new 0 0 150 150" xml:space="preserve">
<g>
	<circle fill="none" cx="103.4" cy="49.1" r="2.9"/>
	<circle fill="none" cx="109.4" cy="39.8" r="3.8"/>
	<circle fill="none" cx="121.3" cy="35.2" r="1.7"/>
	<circle fill="none" cx="112" cy="47.8" r="1.3"/>
	<circle fill="none" cx="91.4" cy="36.7" r="4.6"/>
	<path fill="#00ADD2" d="M99.1,40.9c-3.5,3.1-7,6.7-10.6,10.9c3.7,0.3,3.4,4.7,3.4,4.7c4.8-2.9,7.1,2.3,7.1,2.3s-1.5,2.9,0.8,0.8
		c2.3-2,2.9,1.5,2.9,1.5C98.3,73.1,84.4,75,84.4,75c1.3-5.7-6.5-4-6.5-4c-0.1-0.9-1-1.6-1.9-2.2c-0.5,0.7-0.9,1.3-1.4,2l3.4,2.4
		c2.1,0.4,4.9,1.2,4.6,2.2C82,77,64.1,96.5,54,97.2l0-0.1c-11.9,13.5-25.1,24.4-38.6,26.2l0.7,6.6c0,0,16-2.2,29.9-13.8
		c0,0,37.2,26.2,55.4-9.5c18.2-35.7,16-67.8,36.4-76.5C137.9,30.1,118.7,25.6,99.1,40.9z M103.4,52.1c-1.6,0-2.9-1.3-2.9-2.9
		c0-1.6,1.3-2.9,2.9-2.9s2.9,1.3,2.9,2.9C106.3,50.8,105,52.1,103.4,52.1z M105.7,39.8c0-2.1,1.7-3.8,3.8-3.8c2.1,0,3.8,1.7,3.8,3.8
		c0,2.1-1.7,3.8-3.8,3.8C107.3,43.5,105.7,41.9,105.7,39.8z M112,49c-0.7,0-1.3-0.6-1.3-1.3c0-0.7,0.6-1.3,1.3-1.3
		c0.7,0,1.3,0.6,1.3,1.3C113.2,48.5,112.7,49,112,49z M121.3,36.8c-0.9,0-1.7-0.8-1.7-1.7c0-0.9,0.7-1.7,1.7-1.7
		c0.9,0,1.7,0.8,1.7,1.7C123,36.1,122.3,36.8,121.3,36.8z"/>
	<path fill="#6CAB36" d="M99.1,40.9c3.7-3.2,7.4-5.8,11.4-7.9c-1.6-0.3-2.9-1.7-2.9-3.4c0-1.9,1.5-3.5,3.5-3.5s3.5,1.5,3.5,3.5
		c0,0.7-0.2,1.3-0.5,1.8c6.8-2.8,14.6-4,24.5-3.6c0,0-37.2-15.7-70-0.4c-32.8,15.3-34.8,46-32.1,56.8c3.5,13.8,7.5,9.5,7.5,9.5
		s0.1,9.3-27.9,23v5.1c0-0.2,4.2-1.8,4.5-2c4.2-2,8.2-4.4,12.1-7c3.7-2.5,7.3-5.2,10.7-8.1c2-1.7,3.9-3.5,5.8-5.3
		c3.9-3.8,7.4-7.8,10-12.6c2.4-4.5,4.3-9.2,6.2-13.9c0.2-0.5,2.9-6.8,2.6-7l5.9,4.2c0.5-0.6,1-1.2,1.4-1.8c-1.2-0.5-2.3-0.7-2.3-0.7
		c-0.7-3-4.6-3.1-4.6-3.1c-4.4-5.3-3.8-14,0.5-18.8c4.3-4.7,6.7,1.6,6.7,1.6c2.3-3.7,10.1,4.9,10.1,4.9c1-0.3,1.9-0.5,2.6-0.5
		c0.1,0,0.3,0,0.4,0C92.2,47.6,95.6,44,99.1,40.9z M86.8,36.7c0-2.5,2.1-4.6,4.6-4.6c2.5,0,4.6,2.1,4.6,4.6c0,2.5-2.1,4.6-4.6,4.6
		C88.8,41.3,86.8,39.3,86.8,36.7z"/>
</g>
</svg>
