<?xml version="1.0" encoding="utf-8"?>
<!-- Generator: Adobe Illustrator 18.1.0, SVG Export Plug-In . SVG Version: 6.00 Build 0)  -->
<svg version="1.0" id="Layer_1" xmlns="http://www.w3.org/2000/svg" xmlns:xlink="http://www.w3.org/1999/xlink" x="0px" y="0px"
	 viewBox="0 0 150 150" enable-background="new 0 0 150 150" xml:space="preserve">
<g>
	<path fill="none" d="M97.7,74.1c1.3,1.2,2.5,2.6,3.7,4c5.5,6.8,8.6,14.1,9.2,22c6.1-0.1,11.5-2,16.2-5.5c5.9-4.3,8.9-10.2,8.9-17.8
		c0-9.2-2.7-16.2-8.3-21c-4.6-4.2-10.4-6.3-17.4-6.4c-1.2,6.9-3.8,13.5-8.1,19.7C100.7,70.9,99.2,72.6,97.7,74.1z"/>
	<path fill="none" d="M49.3,75c-1.3-1.2-2.5-2.6-3.7-4c-5.5-6.8-8.6-14.1-9.2-22c-6.1,0.1-11.5,2-16.2,5.5c-6,4.3-8.9,10.2-8.9,17.8
		c0,9.2,2.8,16.2,8.3,21.1c4.6,4.2,10.4,6.3,17.4,6.4c1.2-6.9,3.8-13.5,8.1-19.7C46.4,78.3,47.8,76.5,49.3,75z"/>
	<path fill="none" d="M74,98.8c-1.2,1.3-2.5,2.5-4,3.7c-6.8,5.5-14.1,8.6-22,9.2c0.1,6.1,2,11.5,5.5,16.2c4.3,6,10.2,8.9,17.8,8.9
		c9.2,0,16.2-2.8,21-8.3c4.2-4.6,6.3-10.4,6.4-17.4c-6.9-1.1-13.5-3.8-19.7-8.1C77.2,101.7,75.5,100.3,74,98.8z"/>
	<path fill="none" d="M73.1,50.3c1.2-1.3,2.5-2.5,4-3.7c6.8-5.5,14.2-8.6,22-9.2c-0.1-6.1-2-11.5-5.5-16.2c-4.3-6-10.2-8.9-17.8-8.9
		c-9.2,0-16.2,2.8-21,8.3c-4.2,4.6-6.3,10.4-6.4,17.4c6.9,1.2,13.5,3.8,19.7,8.1C69.8,47.4,71.5,48.8,73.1,50.3z"/>
	<path fill="#F05B22" d="M36.9,99.8c-7-0.1-12.8-2.3-17.4-6.4c-5.5-4.9-8.3-11.9-8.3-21.1c0-7.6,3-13.5,8.9-17.8
		c4.7-3.6,10.1-5.4,16.2-5.5c-0.1-1.1-0.1-2.2-0.1-3.3c0-2.8,0.3-5.6,0.9-8.3c-7.3,0.7-14,3.7-20.1,8.9C9,53,4.9,61.7,4.9,72.4
		c0,12.1,4.5,21.9,13.4,29.5c5.6,4.7,11.6,7.7,18,9.1c-0.1-1.1-0.2-2.2-0.2-3.3C36.2,105,36.5,102.4,36.9,99.8z"/>
	<path fill="#98C13C" d="M48.2,37.9c0.1-7,2.3-12.8,6.4-17.4c4.9-5.5,11.9-8.3,21-8.3c7.6,0,13.5,3,17.8,8.9
		c3.6,4.7,5.4,10.1,5.5,16.2c1.1-0.1,2.2-0.1,3.3-0.1c2.8,0,5.6,0.3,8.3,0.9c-0.7-7.3-3.7-14-8.9-20.1C95.1,10,86.4,6,75.7,6
		c-12.1,0-21.9,4.5-29.5,13.4C41.5,25,38.5,31,37.1,37.4c1.1-0.1,2.2-0.2,3.4-0.2C43.1,37.3,45.7,37.5,48.2,37.9z"/>
	<path fill="#00A4DE" d="M128.7,47.2c-5.6-4.7-11.6-7.7-18-9.1c0.1,1.1,0.2,2.2,0.2,3.4c0,2.6-0.2,5.2-0.7,7.8
		c7,0.1,12.8,2.3,17.4,6.4c5.5,4.9,8.3,11.9,8.3,21c0,7.6-3,13.5-8.9,17.8c-4.7,3.6-10.1,5.4-16.2,5.5c0.1,1.1,0.1,2.2,0.1,3.3
		c0,2.8-0.3,5.6-0.9,8.3c7.3-0.7,14-3.6,20.1-8.9c8-6.6,12.1-15.3,12.1-26C142.1,64.7,137.6,54.8,128.7,47.2z"/>
	<path fill="#E5252D" d="M98.8,111.2c-0.1,7-2.3,12.8-6.4,17.4c-4.9,5.5-11.9,8.3-21,8.3c-7.6,0-13.5-3-17.8-8.9
		c-3.6-4.7-5.4-10.1-5.5-16.2c-1.1,0.1-2.2,0.1-3.2,0.1c-2.9,0-5.6-0.3-8.3-0.9c0.7,7.3,3.7,14,8.9,20.1c6.6,8,15.3,12.1,26,12.1
		c12.1,0,21.9-4.5,29.5-13.4c4.7-5.6,7.7-11.6,9.1-18.1c-1.1,0.1-2.2,0.2-3.4,0.2C103.9,111.8,101.3,111.6,98.8,111.2z"/>
	<path fill="#04A79F" d="M101.4,78.1c-1.2-1.5-2.4-2.8-3.7-4c1.5-1.5,2.9-3.2,4.3-5.1c4.3-6.2,7-12.8,8.1-19.7
		c0.4-2.5,0.7-5.1,0.7-7.8c0-1.1-0.1-2.2-0.2-3.4c-2.7-0.6-5.5-0.9-8.3-0.9c-1.1,0-2.2,0-3.3,0.1c-7.8,0.7-15.2,3.7-22,9.2
		c-1.5,1.2-2.8,2.4-4,3.7c-1.5-1.5-3.2-2.9-5.1-4.3c-6.2-4.3-12.8-7-19.7-8.1c-2.5-0.4-5.1-0.7-7.8-0.7c-1.1,0-2.3,0.1-3.4,0.2
		c-0.6,2.7-0.9,5.5-0.9,8.3c0,1.1,0,2.2,0.1,3.3c0.7,7.8,3.7,15.2,9.2,22c1.2,1.5,2.4,2.8,3.7,4c-1.5,1.5-2.9,3.2-4.3,5.1
		c-4.3,6.2-7,12.8-8.1,19.7c-0.4,2.6-0.7,5.1-0.7,7.8c0,1.1,0.1,2.2,0.2,3.3c2.7,0.6,5.5,0.9,8.3,0.9c1.1,0,2.2,0,3.2-0.1
		c7.8-0.7,15.2-3.7,22-9.2c1.5-1.2,2.8-2.4,4-3.7c1.5,1.5,3.2,2.9,5.1,4.3c6.2,4.3,12.8,7,19.7,8.1c2.5,0.4,5.1,0.7,7.8,0.7
		c1.1,0,2.2-0.1,3.4-0.2c0.6-2.7,0.9-5.5,0.9-8.3c0-1.1-0.1-2.2-0.1-3.3C110,92.3,106.9,84.9,101.4,78.1z M73.4,86.8
		c-2.5,0-4.8,0.3-7,0.8c-0.6-1.4-1-2.8-1.4-4.3c-1.6-0.3-3.2-0.8-4.6-1.4c0.6-2.3,0.9-4.8,0.9-7.5c0-2.5-0.3-4.8-0.8-7
		c1.4-0.6,2.8-1,4.3-1.4c0.3-1.6,0.8-3.1,1.4-4.6c2.3,0.6,4.8,0.9,7.5,0.9c2.5,0,4.8-0.3,7-0.8c0.6,1.4,1,2.8,1.4,4.3
		c1.6,0.3,3.1,0.8,4.6,1.4c-0.6,2.3-0.9,4.8-0.9,7.5c0,2.5,0.3,4.8,0.8,7c-1.4,0.6-2.8,1-4.3,1.4c-0.4,1.6-0.8,3.2-1.4,4.7
		C78.5,87.2,76,86.8,73.4,86.8z"/>
</g>
</svg>
