<?xml version="1.0" encoding="utf-8"?>
<!-- Generator: Adobe Illustrator 18.1.0, SVG Export Plug-In . SVG Version: 6.00 Build 0)  -->
<svg version="1.0" id="Layer_1" xmlns="http://www.w3.org/2000/svg" xmlns:xlink="http://www.w3.org/1999/xlink" x="0px" y="0px"
	 viewBox="0 0 150 150" enable-background="new 0 0 150 150" xml:space="preserve">
<g>
	<path fill="none" d="M70.3,25.5c-1.3,1.8-3.3,3.1-5.7,3.3c-2.4,0.2-4.6-0.6-6.2-2L36.2,41.8l59-6.2L70.3,25.5z"/>
	<path fill="none" d="M19.3,50.7l6.8,64.1l67.7-7.1c10.1-9.2,18-18.4,24.2-26.9l-4.2-40L19.3,50.7z M91.3,56.1c0-0.3,0-0.2,0.5-1
		c0.5-0.8,0.9-1.2,1.8-1.4c1-0.2,0.8,0.3,1,1c0.2,0.6-0.1,0.2-0.4,0.2c-0.3,0,0,0-0.1,0.1c-0.1,0,0.1,0.2,0.3,0.2
		c0.2,0.1-0.4,0.5-0.4,0.5s0,0,0-0.2c0-0.2-0.1-0.1-0.3-0.3c-0.2-0.1-0.1,0-0.5,0.1c-0.3,0.1,0,0.2,0.1,0.6c0.2,0.3,0.3,0,0.5-0.1
		c0.2-0.1,0.1,0.1-0.1,0.8s-0.3,0.2-0.6,0.4c-0.3,0.2-0.3,0.3-0.4,0.5c-0.1,0.1,0,0-0.5-0.1c-0.5-0.1,0.1,0.2,0.2,0.2
		c0.1,0,0.2,0.2,0.4,0.5c0.1,0.3-0.3,0-0.5-0.2c-0.2-0.1-0.3-0.2-0.4-0.2c-0.1-0.1,0,0.2,0.1,0.3c0.2,0.2,0.5,0.2,0.5,0.2
		s-0.1,0.1-0.4,0.1c-0.2,0-0.4-0.2-0.4-0.1c0,0,0.2,0.3,0,0.3c-0.2,0-0.2,0.1-0.3,0.4c-0.1,0.3-0.1,0.4-0.4,0.7
		c-0.3,0.3-0.5,0.1-0.9,0.3c-0.4,0.2-0.1,0.2-0.5,0.7c-0.4,0.5-0.1,0.1-0.2,0.9c-0.2,0.8-0.2,0.3-0.8,0.5c-0.5,0.2-0.4,0.2-0.4,0.3
		c0,0.1-0.1,0.2-0.7,0.9c-0.6,0.7-0.3,0.3-0.6,0.6c-0.2,0.3-0.3,0.1-0.2,0.3c0.1,0.2-0.2,0.3-0.3,0.3c-0.2,0.1,0.4-1,0.6-1.1
		c0.2-0.2,0.2-0.3,0.4-0.8c0.2-0.5,0.2-0.3,0.6-0.4c0.4-0.1,0.4-0.3,0.3-0.5c0-0.2,0-0.4,0.4-0.9c0.4-0.5,0.4,0.1,0.8-0.2
		c0.4-0.3-0.2-0.2,0.1-0.4c0.4-0.2,0.4-0.3,0.5-0.7c0.1-0.4,0.1-0.6,0.3-1.2c0.2-0.5,0.2-0.1,0.1-0.6c-0.1-0.5,0.1-0.4,0.2-0.7
		c0.1-0.3,0.2,0,0.2-0.2c0-0.2,0-0.2,0.1-0.6C91.2,56,91.3,56.4,91.3,56.1z M85.5,56.7c0.3-0.3,0.4-0.1,0.6-0.8
		c0.2-0.7,0.1-1,0.3-1.4c0.2-0.4,0.4-0.3,0.4-0.6c0-0.3-0.1-0.3,0.1-0.8c0.2-0.4,0.5-1,0.5-1c0.6-0.7,0.7-0.5,0.9-0.9
		c0.1-0.4,0.1-0.5,0.3-0.6c0.2-0.1,0-0.1,0.3-0.4c0.3-0.3,0.3-0.1,0.5-0.3c0.2-0.1,0.3-0.1,0.5-0.2c0.2-0.1,0.5,0,0.8,0.1
		c0.3,0.1,0.5-0.1,0.5,0.5c0,0.5,0.1,0.8-0.1,1c-0.2,0.2-0.3,0.1-0.3,0.5c0,0.3-0.2,0.6-0.3,0.8c-0.1,0.2-0.1,0.3-0.5,0.9
		c-0.5,0.6-0.3,0.4-0.9,1c-0.6,0.6-0.6,0.4-0.6,0.4c-0.1,0-0.2,0.2-0.7,0.7c-0.5,0.5-0.6,0.4-0.6,0.5c-0.1,0.1-0.2,0.1-0.5,0.6
		c-0.3,0.5-0.4,0.6-0.6,0.5c-0.2-0.1-0.2,0-0.4,0C85.4,56.9,85.2,57,85.5,56.7z M83.9,58.2C83.9,58.2,83.9,58.1,83.9,58.2
		c0.5-0.3,0.3,0,0.6,0c0.3,0,0.5,0,0.5-0.2c0-0.2-0.1-0.5,0.1-0.5c0.1,0.1,0,0.4,0.2,0.3c0.2-0.1,0.3-0.4,0.3-0.4
		c-0.3,0.7-0.7,0.8-0.4,1.1c0.3,0.3,0.8,0.1,0.5,0.7c-0.3,0.6-0.5,0.7-0.6,0.7c-0.1,0-0.6-0.4-0.9-0.3c0,0-0.1,0-0.1,0.1
		c-0.3,0.1-0.5-0.2-0.2,0.1c0.4,0.3,0,0.1,0.3,0.3c0,0,0.1,0.1,0.1,0.1c0.5,0.4,0.7-0.2,0.2,0.5c-0.1,0.1-0.1,0.1-0.1,0.1
		c-0.4,0.5-0.4,0.3-0.6,0.5c-0.1,0.1-0.1,0.1-0.2,0.2c0.1,0,0.1,0.2,0.1,0.2s0,0-0.1-0.1c-0.1,0-0.1,0,0-0.1c-0.1,0-0.1,0-0.2,0.2
		c-0.2,0.3-0.3,0.5-0.4,0.8c0,0.2,0.1-0.2,0,0.2S83,63.1,83,63.1s0.4,0.4-0.1,0.1c-0.5-0.3-1-0.2-0.6-0.5c0.4-0.4,0.3-0.3,0.3-0.6
		c0-0.3,0.1-0.3,0.2-0.6c0.2-0.3,0-0.2,0-0.7c0-0.5-0.1-0.6,0.3-1.1c0.4-0.6,0.7-0.9,0.6-1.1C83.7,58.4,83.5,58.4,83.9,58.2z
		 M76.6,59.9c0.1-0.2,0.2-0.3,0.2-0.3s0,0-0.2-0.3c-0.2-0.3,0.2-1.2,0.2-1.9c0.1-0.7,0-0.3,0-0.3l0.3,0c0,0-0.3,0-0.1-0.3
		c0.2-0.3,0.3-0.3,0.5-0.7c0.1-0.3,0.1-0.3,0.1-0.3c0,0,0.2,0.1,0.7,0.1c0.2,0,0.3,0,0.4,0c0,0,0,0,0,0c0-0.1-0.2-0.2-0.8-0.3
		c-0.5-0.1-0.3-0.3-0.3-0.3s0.1-0.2,0.2-0.3c0.1-0.1,0.3-0.1,0.9,0.1c0.6,0.2,0.6,0.2,0.6,0.2s-0.3-0.1-0.6-0.5
		c-0.3-0.3-0.1-0.1-0.6-0.2c-0.1,0-0.2,0-0.3,0c-0.1,0.1-0.1,0.2-0.1,0.2s0-0.1,0.1-0.2c0.1-0.2,0.2-0.4,0.5-0.9
		c0.4-0.8,0.2-0.3,0.2-0.3s0.1,0.1,0.6,0c0.5,0,0.4-0.1,0.4-0.1s-0.1-0.1-0.4-0.1c-0.4,0-0.4,0-0.4,0s0,0,0.4-0.7
		c0.4-0.7,0.4-0.3,0.4-0.3s0.3,0.1,0.1-0.4c-0.2-0.5,0.4-2,0.7-2.7c0.3-0.7,0.8-0.1,0.9-0.2c0.1,0-0.2-0.4-0.2-0.6
		c0-0.2,1.7,0,2.1,0.3c0.4,0.3-0.7,2.7-0.9,3.1c-0.2,0.5-0.6,0.6-0.9,0.6c-0.4,0-0.4,0.2-0.1,0.3c0.3,0.1,0.3,0.1-0.1,0.9
		c-0.5,0.8-0.5,0.5-0.6,0.9c-0.1,0.4-0.1,0.8-0.6,1.6c-0.5,0.8-0.2,0.3-0.1,0.9c0.2,0.6-0.3,0.9-0.8,1.6c-0.4,0.7-0.3,1-0.4,1.5
		c-0.2,0.5-0.5,0.4-1.1,0.6c-0.6,0.3-0.3,0.1-0.5,0.3c0,0-0.3-0.5-0.5-0.8C76.3,60,76.4,60.2,76.6,59.9z M64,58.1
		c-0.1-0.3,0.4-0.2,1.2-0.1c0.9,0.2,0.3,0.6,0.5,1.2c0.2,0.6,0.5,1.7,0.4,2.3c0,0-0.2,0-0.3,0.2c-0.1,0.2,0.2,0.1,0,0.3
		c-0.2,0.2-0.3,0.1-0.6,0.4c-0.3,0.3-0.1,0.5,0.2,0.6c0.3,0.2,0.4,0,0.9,0c0.5,0,0.2,0.1,0,0.5c-0.1,0.5-0.3-0.1-0.6-0.2
		c-0.3-0.1-0.2,0-0.6-0.1c-0.4-0.1-0.6-0.5-0.7-0.7c-0.1-0.2,0.2-0.3,0-0.3c-0.3-0.1-0.2-0.9-0.5-1.8c-0.3-0.9,0.2-0.8,0.2-0.9
		c-0.1-0.2-0.2-0.3-0.3-0.8C63.8,58.5,64.1,58.4,64,58.1z M58.1,72.9c0.4-0.2,2.1-0.1,2.1,0.1c0,0.2-0.3,0.5-0.3,0.6
		c0.1,0.1,0.7-0.4,0.9,0.3c0.2,0.7,0.5,2.4,0.2,2.8c-0.3,0.4,0.1,0.4,0.1,0.4s0.1-0.4,0.3,0.4c0.3,0.8,0.3,0.8,0.3,0.8
		s-0.1,0-0.5-0.1c-0.3-0.1-0.4,0-0.4,0s-0.2,0.1,0.3,0.2c0.5,0.1,0.6,0.1,0.6,0.1s-0.1-0.5,0.1,0.4c0.1,0.5,0.2,0.8,0.3,1
		c0.1,0.1,0.1,0.2,0.1,0.2s0-0.1-0.1-0.2c0,0-0.1-0.1-0.3-0.1c-0.4,0-0.2-0.2-0.6,0.1c-0.4,0.2-0.7,0.3-0.7,0.3s0,0.1,0.6-0.1
		c0.6-0.1,0.8-0.1,0.9,0c0.1,0.1,0.1,0.4,0.1,0.4s0.2,0.2-0.3,0.2c-0.5,0-0.7,0-0.8,0.1l0,0c0.1,0,0.2,0,0.4,0
		c0.5,0.1,0.7,0.1,0.7,0.1c0,0-0.1,0,0,0.3c0.1,0.4,0.2,0.4,0.3,0.8c0.1,0.3-0.1,0.3-0.1,0.3l0.3,0.1c0,0,0-0.4,0,0.3
		c-0.1,0.7,0.1,1.6-0.1,1.9c-0.2,0.2-0.2,0.2-0.2,0.2s0.1,0.1,0.2,0.3c0.1,0.3,0.2,0.1-0.1,0.4c-0.3,0.3-0.7,0.7-0.7,0.7
		c-0.1-0.2,0.2,0-0.4-0.4c-0.6-0.4-0.9-0.3-1-0.8c-0.1-0.5,0.2-0.8-0.2-1.6c-0.3-0.8-0.7-1.2-0.5-1.7c0.3-0.5,0.4-0.1,0.1-0.9
		c-0.3-0.9-0.3-1.2-0.3-1.6c0-0.4-0.1-0.2-0.4-1c-0.3-0.9-0.3-0.8,0-0.9c0.3-0.1,0.4-0.2,0-0.4c-0.4-0.1-0.7-0.3-0.8-0.8
		C58.3,75.7,57.7,73.2,58.1,72.9z M54.7,81.3c0.1,0,0,0.3,0,0.5c0,0.2,0.1,0.2,0.5,0.2c0.3,0.1,0.2-0.2,0.6,0.2c0,0,0,0,0,0
		c0.4,0.3,0.2,0.3,0,0.5c-0.1,0.2,0.1,0.5,0.4,1.1c0.2,0.6,0.1,0.7,0.1,1.2c0,0.4-0.2,0.3-0.1,0.6c0.1,0.3,0.2,0.3,0.1,0.7
		c-0.1,0.3-0.1,0.2,0.2,0.6c0.3,0.4-0.1,0.2-0.7,0.4c-0.5,0.2-0.1-0.1-0.1-0.1s0.1-0.1,0-0.6c-0.1-0.4,0,0,0-0.2
		c0-0.2-0.1-0.4-0.2-0.8c-0.1-0.2-0.1-0.2-0.2-0.2c0.1,0.1,0.1,0.1,0,0.1c-0.1,0-0.1,0-0.1,0s0-0.1,0.1-0.1c0,0-0.1-0.1-0.1-0.2
		c-0.1-0.2-0.2,0-0.5-0.6c0-0.1-0.1-0.1-0.1-0.2c-0.4-0.8-0.3-0.2,0.3-0.5c0.1,0,0.1,0,0.2-0.1c0.3-0.1-0.1,0,0.3-0.2
		c0.4-0.2,0.1-0.1-0.1-0.2c0,0-0.1,0-0.1-0.1c-0.3-0.2-0.9,0.1-0.9,0.1c-0.1,0-0.3-0.1-0.5-0.8c-0.2-0.7,0.3-0.4,0.6-0.6
		c0.3-0.2,0-0.4-0.2-1.2c0,0,0.1,0.3,0.3,0.4C54.6,81.7,54.6,81.3,54.7,81.3z M50.1,73.1c0.1-0.5,0.3-0.4,0.6-0.4
		c0.3,0,0.6-0.1,0.8,0.1c0.1,0.2,0.2,0.2,0.4,0.3c0.2,0.1,0.2,0,0.4,0.3c0.2,0.3,0,0.3,0.2,0.4c0.2,0.2,0.1,0.3,0.2,0.7
		c0.1,0.4,0.2,0.2,0.7,1.1c0,0,0.2,0.6,0.3,1.1c0.1,0.5,0,0.6,0,0.8c-0.1,0.3,0.1,0.3,0.2,0.6c0.2,0.4,0.1,0.7,0.1,1.4
		c0.1,0.7,0.1,0.6,0.4,0.9c0.3,0.3,0.1,0.3,0,0.3c-0.2,0-0.2-0.2-0.4-0.1c-0.2,0.1-0.2,0-0.5-0.6c-0.3-0.5-0.3-0.5-0.4-0.6
		c-0.1-0.1-0.2,0-0.6-0.6c-0.4-0.6-0.5-0.8-0.5-0.8c-0.1,0-0.1,0.2-0.6-0.5c-0.5-0.7-0.4-0.5-0.7-1.1c-0.3-0.6-0.3-0.7-0.4-0.9
		c-0.1-0.2-0.2-0.5-0.1-0.9s0-0.3-0.2-0.5C49.9,73.9,50,73.7,50.1,73.1z M45.8,76.9c0.3-0.6,0.3-1.1,1.2-0.8
		c0.9,0.3,1.2,0.8,1.5,1.7c0.3,0.9,0.4,0.8,0.3,1.1c0,0.2,0.2-0.1,0.2,0.3c0,0.3,0,0.3-0.1,0.6c-0.1,0.2,0.2,0,0.2,0.3
		c0,0.3,0.3,0.2,0.1,0.7c-0.2,0.5-0.1,0.1,0,0.6c0.1,0.6,0,0.8,0.1,1.2c0.1,0.5,0.1,0.5,0.4,0.8c0.3,0.3-0.3,0,0.1,0.4
		c0.3,0.4,0.5-0.2,0.7,0.4c0.3,0.6,0.3,0.8,0.2,1c-0.1,0.2-0.2,0.4,0.3,0.6c0.4,0.2,0.5,0,0.5,0.5c0.1,0.5,0.1,0.6,0.2,0.8
		c0.1,0.2,0.5,1.3,0.4,1.2c-0.2-0.1-0.4-0.2-0.3-0.4c0.2-0.2,0.1,0-0.1-0.4c-0.2-0.4,0,0.1-0.5-0.7c-0.5-0.8-0.6-0.9-0.6-1
		c0.1-0.1,0.2-0.1-0.3-0.4c-0.5-0.3-0.6,0.2-0.7-0.6c0-0.8,0.3-0.4-0.1-1c-0.3-0.6,0-0.5-0.4-0.7c-0.3-0.3-0.6-0.2-0.9-0.5
		c-0.3-0.3-0.3-0.5-0.3-0.8c0-0.3,0-0.4-0.2-0.5c-0.2,0,0-0.3,0.1-0.3c0,0-0.2,0.1-0.5,0.1c-0.2,0-0.3-0.2-0.3-0.2s0.3,0,0.5-0.1
		c0.2-0.1,0.3-0.3,0.2-0.3c-0.1,0-0.2,0-0.4,0.1c-0.2,0.1-0.7,0.4-0.5,0.1c0.2-0.3,0.3-0.5,0.5-0.5c0.1,0,0.7-0.2,0.2-0.2
		c-0.5,0-0.4,0.2-0.5,0c-0.1-0.2-0.1-0.3-0.3-0.5c-0.2-0.3-0.4,0.2-0.5-0.5c-0.1-0.8-0.1-1,0-0.8c0.1,0.2,0.2,0.5,0.4,0.2
		c0.2-0.3,0.5-0.4,0.2-0.6c-0.3-0.2-0.2-0.3-0.5-0.2c-0.2,0.1-0.3,0.1-0.3,0.2c0,0.2,0,0.2,0,0.2s-0.5-0.5-0.3-0.5
		c0.2,0,0.4-0.1,0.3-0.2c-0.1-0.1,0.2,0-0.1-0.1C45.8,77.1,45.4,77.4,45.8,76.9z M55.3,106L55.3,106L55.3,106L55.3,106z M55.9,106.7
		c-0.1-0.1-0.2-0.2-0.3-0.2c0,0,0-0.1-0.1-0.1l0.1,0.1l0.6,0.5C56.1,106.9,56,106.8,55.9,106.7z M57.9,107.5c-0.1,0-0.2,0-0.4-0.1
		l0-0.1l0.2-0.1v0l0.1,0l0.1,0l0-0.1l0-0.1l0.1,0.2l0,0.1C58.1,107.5,58,107.5,57.9,107.5z M68.4,104.7c-0.1,0.1-0.1,0.1-0.2,0.2
		c-0.2,0.1-0.3,0.2-0.5,0.3l0.7-0.8l0.6-0.7C68.8,104.1,68.7,104.4,68.4,104.7z M72.1,95.3c-0.2,1-0.4,1.9-0.6,2
		c-0.2,0.2-0.1,1.3-0.8,1.6c-0.8,0.3-1.2,0.4-1.2,0.4l0.7,0.2c0,0,0.1,0.3,0.1,0.6l-0.6-0.2l0,0.6c0,0.3-0.1,0.8-0.2,0.9
		c-0.1,0.1-0.1,0.2-0.1,0.3l-0.7-0.6l-0.1,0.4l-0.1,0.2l-0.2-0.1l-0.4,0.4l0.4,0.3c0.2,0.1,0.6,0.5,0.8,0.7l0,0
		c0,0.1-0.1,0.2-0.1,0.2l0,0h0l-0.5-0.1l-0.3,0.4c0,0-0.1,0.1-0.1,0.1c-0.2,0.2-0.4,0.4-0.6,0.6l-0.4,0.3l-0.4-0.6l-0.4-0.6
		l-0.4,0.6l-0.4,0.6l0,0.5v0.6l-0.3,0l-0.2,0l0.4-0.5l-0.4-0.4l-0.3,0.4l-0.3,0.5l0.4,0.3l-0.2,0.1c-0.1,0-0.1,0-0.2,0
		c-1,0.1-2.7-0.1-3,0c-0.3,0.1-0.1,0.4-0.5,0.6c-0.3,0.2-1.5,0.2-1.9,0.2c-0.1,0-0.3,0-0.4,0.1l0-0.1c0-0.1,0.2-0.4,0.3-0.7l0.2-0.5
		H59l-0.2,0l-0.2,0.2l-0.2-0.3l-0.1,0.1v0l-0.3-0.2l-0.1-0.1h-0.1l-0.3-0.2c-0.4-0.2-0.8-0.4-1-0.4c-0.1,0-0.4-0.1-0.8-0.2
		c-0.1-0.1-0.3-0.1-0.4-0.2l-0.8-0.3l0.3,0.4l0,0h0v0l-0.5-0.5c-0.1-0.2-0.3-0.4-0.4-0.6c-0.5-0.8-1.7-3-1.7-3s0.5,0,0.4-0.5
		c-0.1-0.4-0.5-0.9-0.8-0.9c-0.3,0-0.9-0.5-1.4-1.7c-0.5-1.2-0.8-2-0.8-2.5c0-0.5,0-1.3-0.1-1.4c-0.1-0.1,0.1,0.1-0.7-0.8
		c-0.8-0.8-0.9-1.1-1.7-1.3l0,0c-0.8-0.2-0.7,0.2-1.4-0.4c-0.7-0.6-0.6-0.3-1.3-1.4c-0.8-1.1-0.2-0.7-1.3-1.3
		c-1.1-0.6-1.2-0.8-1.3-1.2c-0.1-0.4,0.2-0.5-0.2-0.6c-0.4-0.1-0.6,0.5-0.7-0.6c-0.1-1.1-0.3-1.4,0.2-1.5c0.5-0.1,0.7,0,1,0.2
		c0.3,0.2,0.7,0,1,0.2c0.3,0.2,0.7,0.7,0.9,1.4c0.2,0.7,1.7,3,3,3.8c0.4,0.3,0.8,0.6,1.3,1.1c0.8,0.8,1.5,1.8,2,2.3
		c0.9,0.8,2.3,1.9,2.4,1.4c0.1-0.5-0.6-0.9-0.6-1.3c0-0.4-0.2-0.4,0.2-0.8c0.4-0.4-0.1-0.2,0.4-0.9c0.3-0.5,0.2-0.8,0.5-1
		c0.1-0.1,0.3-0.2,0.6-0.3c1-0.3,0.4,0.6,1.2-0.4c0.7-1,0.9-2.3,1.8-2.3c0.9,0,1,0.4,1.9,0.1c0.9-0.3,2.3-1.5,3.2-1.2
		c0.3,0.1,0.6,0.1,0.8,0.1c0.4,0,0.6,0,0.9,1.2c0.4,1.7-0.3,3.1-0.4,3.6c-0.1,0.4,0,0.3,0.4,0.1c0.4-0.3,0.9-0.6,0.6,0.2
		c-0.3,0.8-0.7,1.4-0.7,1.4s-0.5,0.7,0.2,0.2c0.7-0.5,0.7-0.6,1.3-0.2c0.6,0.4,1,0.2,1.1,0.7c0.2,0.5,0.3,1.1,0.2,1.3
		c-0.1,0.2-0.2,0.4-0.2,0.6c0.1-0.1,0.3-0.4,0.6-0.3c0.3,0.2,0.2,0.4,1,0.8c0.8,0.3,0.8,0.7,1.3,0.4c0.5-0.3,0.8-0.8,0.9-0.5
		c0,0.3-0.2,0.4,0.4,0.2c0.6-0.1,1.2-0.6,1.4-0.9C71.8,95.4,72.3,94.3,72.1,95.3z M67.1,76.9l0.5,0.8l0.5,0.9
		c-0.2-0.1-0.3-0.3-0.5-0.4c-0.1-0.1-0.1-0.1-0.2-0.2C67.2,77.6,67.2,77.3,67.1,76.9z M75,88.2c-0.5,0.8-0.5,1.7-0.9,1.7
		c-0.3,0,0.1,0.2-0.1,0.3c-0.2,0.1-0.4,0.5-0.8,0.5c-0.4,0.1-0.3,0-0.6,0c-0.3,0-0.6,0.5-0.7,0.1c-0.1-0.5-0.4-0.6,0.1-0.5
		c0.6,0.1,0.6,0.3,0.9,0.2c0.3-0.1,0.5-0.3,0.3-0.6c-0.2-0.3-0.3-0.3-0.5-0.5c-0.2-0.2,0.1-0.1,0.1-0.3c-0.1-0.2-0.2-0.2-0.2-0.2
		c0-0.7,0.6-1.7,0.8-2.2c0.3-0.6-0.2-1.1,0.7-1.1c0.9,0,1.3,0,1.2,0.3c-0.1,0.2,0.1,0.3,0,0.8c-0.1,0.5-0.3,0.5-0.4,0.7
		C74.9,87.4,75.5,87.4,75,88.2z M77.3,82.6c-0.1,0-0.2-0.1-0.3-0.1l0.1-0.1l0.2-0.2l0,0.1l0,0.1h0.1h0.1l0-0.1l0.2,0.1v0.1
		C77.5,82.7,77.4,82.7,77.3,82.6z M79.7,82c-0.1,0.1-0.2,0.1-0.3,0.2c-0.1,0.1-0.2,0.2-0.4,0.2L79.7,82L79.7,82
		C79.7,82,79.7,82,79.7,82z M80.1,81.6L80.1,81.6L80.1,81.6L80.1,81.6z M97.7,64.7c-0.3,1.1-0.4,0.4-0.8,0.5
		c-0.4,0.1-0.2,0.2-0.3,0.5c-0.2,0.4-0.3,0.6-1.5,1c-1.2,0.4-0.6,0.1-1.5,1c-0.9,0.9-0.8,0.7-1.6,1.2c-0.8,0.4-0.6,0.1-1.5,0.1h0
		c-0.9,0.1-1,0.3-1.9,1c-1,0.7-0.7,0.6-0.8,0.6c-0.1,0.1-0.3,0.9-0.3,1.4c-0.1,0.5-0.6,1.2-1.3,2.3c-0.7,1.2-1.3,1.5-1.7,1.5
		c-0.3,0-0.7,0.3-0.9,0.8c-0.2,0.4,0.3,0.5,0.3,0.5s-1.5,1.9-2.2,2.7c-0.2,0.2-0.4,0.4-0.5,0.5l-0.6,0.4h0l0.4-0.4l-0.8,0.2
		c-0.1,0-0.3,0.1-0.4,0.1c-0.3,0.1-0.6,0.1-0.8,0.1c-0.2,0-0.7,0.1-1.1,0.2L77.6,81l-0.1,0L77.5,81l-0.3,0.1v0L77.1,81l-0.3,0.3
		L76.7,81L76.5,81l-0.2,0l0.2,0.5c0.1,0.3,0.2,0.6,0.2,0.7v0.2c-0.1-0.1-0.2-0.1-0.4-0.2c-0.4,0-1.5-0.2-1.8-0.5
		c-0.3-0.3-0.1-0.6-0.3-0.7c-0.3-0.1-2-0.2-2.9-0.5c-0.1,0-0.1,0-0.2-0.1l-0.2-0.2l0.4-0.3L71,79.5L70.8,79l-0.5,0.3l0.3,0.5l-0.2,0
		l-0.3-0.1l0.1-0.5l0.1-0.6L70,77.9l-0.3-0.6l-0.5,0.5l-0.5,0.5l-0.3-0.4c-0.1-0.2-0.3-0.5-0.5-0.7c0,0-0.1-0.1-0.1-0.1l-0.3-0.4
		l-0.5,0h0l0-0.1c0-0.1,0-0.2,0-0.2l0.1,0c0.3-0.2,0.7-0.4,0.9-0.5l0.5-0.2l-0.3-0.5l-0.3,0.1l0-0.2l-0.1-0.4L67,75
		c0.1-0.1,0-0.2,0-0.3c-0.1-0.2-0.1-0.6,0-0.9l0.1-0.6l-0.6,0.1c0-0.3,0.2-0.6,0.2-0.6l0.7-0.1c0,0-0.4-0.2-1.1-0.7
		c-0.7-0.4-0.3-1.5-0.5-1.7c-0.2-0.2-0.2-1.1-0.3-2.1c0-1,0.3,0.2,0.4,0.5c0.1,0.3,0.6,0.9,1.2,1.1c0.5,0.3,0.4,0.1,0.5-0.1
		c0.1-0.3,0.3,0.3,0.7,0.7c0.5,0.4,0.5,0,1.3-0.2c0.8-0.2,0.7-0.5,1.1-0.6c0.3-0.1,0.5,0.2,0.5,0.3c0-0.1,0-0.4-0.1-0.6
		c-0.1-0.3,0.1-0.8,0.4-1.3c0.3-0.5,0.5-0.3,1.2-0.5c0.7-0.2,0.6-0.2,1.2,0.4c0.6,0.6,0.2-0.1,0.2-0.1s-0.3-0.7-0.4-1.5
		c-0.1-0.9,0.3-0.4,0.6-0.1c0.3,0.3,0.5,0.5,0.4,0.1c0-0.5-0.4-2,0.2-3.6c0.4-1.1,0.7-1.1,1-1c0.2,0.1,0.5,0.1,0.8,0.1
		c1-0.2,2,1.2,2.9,1.7c0.9,0.5,1,0.1,1.9,0.2c0.9,0.2,0.8,1.5,1.4,2.6c0.5,1.1,0.2,0.1,1.1,0.6c0.3,0.2,0.5,0.3,0.5,0.4
		c0.2,0.3,0.1,0.5,0.3,1.1c0.3,0.8-0.1,0.5,0.2,0.9c0.3,0.5,0.2,0.4,0.1,0.8c-0.1,0.4-0.9,0.7-0.8,1.2c0,0.5,1.7-0.4,2.6-0.9
		c0.6-0.4,1.5-1.2,2.4-1.9c0.5-0.3,0.9-0.6,1.4-0.8c1.3-0.5,3.3-2.5,3.6-3.2c0.3-0.6,0.8-1,1.1-1.2c0.3-0.2,0.7,0.1,1,0
		c0.3-0.1,0.5-0.2,1,0C98.2,63.4,98,63.6,97.7,64.7z"/>
	<path fill="#4B394E" d="M119.3,94.9l1.1,9.9l-11.5,1.2c-3.1,2.9-6.3,5.6-9.5,8.1l25.3-2.7c1.9-0.2,3.3-1.9,3.1-3.9l-2.2-21
		C123.6,89.5,121.5,92.2,119.3,94.9z"/>
	<path fill="#4B394E" d="M26,114.8l-6.8-64.1l94.4-10l4.2,40c2.3-3.1,4.3-6.2,6.1-9l-3.7-35.2c-0.2-1.9-1.9-3.3-3.9-3.1l-13.8,1.5
		L71.7,22.1c0.1-0.7,0.2-1.5,0.1-2.2c-0.5-4.4-4.4-7.6-8.9-7.2c-4.4,0.5-7.6,4.4-7.2,8.9c0.1,0.8,0.3,1.5,0.6,2.1L28.8,42.6L15,44.1
		c-1.9,0.2-3.3,1.9-3.1,3.9l7.5,71.1c0.2,1.9,1.9,3.3,3.9,3.1l61-6.4c3.3-2.7,6.5-5.4,9.4-8.1L26,114.8z M58.5,26.7
		c1.6,1.5,3.8,2.3,6.2,2c2.4-0.2,4.4-1.5,5.7-3.3l24.9,10.1l-59,6.2L58.5,26.7z"/>
	<path fill="none" stroke="#93529F" stroke-width="0" stroke-linecap="round" stroke-linejoin="round" d="M77.9,54.9
		c0,0,0-0.1,0.1-0.2"/>
	<path fill="#93529F" d="M83.8,61.6c0,0,0-0.1-0.1-0.2c-0.1,0.1-0.1,0.1,0,0.1C83.8,61.6,83.8,61.6,83.8,61.6z"/>
	<path fill="#A1D9D7" d="M83.2,59.7c-0.4,0.6-0.2,0.7-0.3,1.1c-0.1,0.4,0.1,0.3,0,0.7c-0.1,0.3-0.2,0.3-0.2,0.6
		c0,0.3,0.1,0.2-0.3,0.6c-0.4,0.4,0.1,0.2,0.6,0.5c0.5,0.3,0.1-0.1,0.1-0.1s0-0.1,0.1-0.5s0,0,0-0.2c0.1-0.2,0.1-0.4,0.4-0.8
		c0.1-0.1,0.2-0.2,0.2-0.2c0,0,0.1-0.1,0.2-0.2c0.2-0.2,0.2,0,0.6-0.5c0-0.1,0.1-0.1,0.1-0.1c0.5-0.7,0.3-0.2-0.2-0.5
		c-0.1,0-0.1-0.1-0.1-0.1c-0.3-0.2,0.1,0-0.3-0.3c-0.4-0.3-0.1-0.1,0.2-0.1c0.1,0,0.1,0,0.1-0.1c0.3-0.2,0.8,0.3,0.9,0.3
		c0.1,0,0.3,0,0.6-0.7c0.3-0.6-0.2-0.4-0.5-0.7c-0.3-0.3,0.1-0.4,0.4-1.1c0,0-0.2,0.3-0.3,0.4c-0.2,0.1-0.1-0.3-0.2-0.3
		C85,57.4,85,57.7,85,57.9c0,0.2-0.2,0.1-0.5,0.2c-0.3,0-0.1-0.2-0.6,0c0,0,0,0,0,0c-0.4,0.2-0.2,0.2-0.1,0.4
		C83.8,58.8,83.5,59.1,83.2,59.7z"/>
	<path fill="#A1D9D7" d="M77.1,61.2c0.2-0.2-0.2-0.1,0.5-0.3c0.6-0.2,0.9-0.1,1.1-0.6c0.1-0.5,0-0.8,0.4-1.5
		c0.5-0.7,0.9-1.1,0.8-1.6c-0.2-0.6-0.4-0.1,0.1-0.9c0.5-0.8,0.5-1.2,0.6-1.6c0.1-0.4,0.1-0.1,0.6-0.9c0.5-0.8,0.4-0.8,0.1-0.9
		c-0.3-0.1-0.3-0.3,0.1-0.3c0.4-0.1,0.7-0.1,0.9-0.6c0.2-0.5,1.3-2.8,0.9-3.1c-0.4-0.3-2.1-0.5-2.1-0.3c0,0.2,0.2,0.6,0.2,0.6
		c-0.1,0.1-0.6-0.5-0.9,0.2c-0.3,0.7-0.9,2.3-0.7,2.7c0.2,0.5-0.1,0.4-0.1,0.4s0-0.4-0.4,0.3c-0.4,0.7-0.4,0.7-0.4,0.7s0.1,0,0.4,0
		c0.4,0,0.4,0.1,0.4,0.1s0.2,0.1-0.4,0.1c-0.5,0-0.6,0-0.6,0s0.2-0.5-0.2,0.3c-0.2,0.5-0.4,0.8-0.5,0.9c0.1,0,0.1,0,0.3,0
		c0.4,0.1,0.2-0.1,0.6,0.2c0.3,0.3,0.6,0.5,0.6,0.5s0,0.1-0.6-0.2c-0.6-0.2-0.7-0.2-0.9-0.1c-0.2,0.1-0.2,0.3-0.2,0.3
		s-0.3,0.2,0.3,0.3c0.5,0.1,0.7,0.2,0.8,0.3c0,0,0,0,0,0c-0.1,0-0.2,0-0.4,0c-0.5,0-0.7-0.1-0.7-0.1c0,0,0,0.1-0.1,0.3
		c-0.2,0.4-0.3,0.4-0.5,0.7c-0.2,0.3,0.1,0.3,0.1,0.3l-0.3,0c0,0,0-0.3,0,0.3c-0.1,0.7-0.4,1.6-0.2,1.9c0.2,0.3,0.2,0.3,0.2,0.3
		s-0.1,0-0.2,0.3c-0.2,0.2-0.3,0.1,0,0.4C76.8,60.7,77.1,61.2,77.1,61.2z"/>
	<path fill="#A1D9D7" d="M63.9,60.6c0.3,0.9,0.2,1.7,0.5,1.8c0.3,0.1-0.1,0.1,0,0.3c0.2,0.2,0.3,0.5,0.7,0.7c0.4,0.1,0.3,0,0.6,0.1
		c0.3,0.1,0.5,0.6,0.6,0.2c0.2-0.5,0.5-0.5,0-0.5c-0.6,0-0.7,0.2-0.9,0c-0.3-0.2-0.5-0.4-0.2-0.6c0.3-0.3,0.4-0.2,0.6-0.4
		c0.2-0.2-0.1-0.1,0-0.3c0.1-0.2,0.3-0.2,0.3-0.2c0.1-0.7-0.2-1.7-0.4-2.3c-0.2-0.6,0.3-1.1-0.5-1.2c-0.9-0.2-1.3-0.2-1.2,0.1
		c0.1,0.3-0.2,0.3-0.2,0.8c0.1,0.5,0.2,0.6,0.3,0.8C64.1,59.9,63.6,59.7,63.9,60.6z"/>
	<path fill="#93529F" d="M78.9,82.4c0.2-0.1,0.3-0.1,0.4-0.2c0.1-0.1,0.2-0.1,0.3-0.2c0,0,0.1,0,0.1-0.1L79.7,82L78.9,82.4z"/>
	<path fill="#93529F" d="M77.5,82.5L77.5,82.5l-0.1,0.1h-0.1l0-0.1l0-0.1L77,82.5L77,82.5c0.1,0.1,0.2,0.1,0.3,0.1
		c0.1,0,0.2,0,0.4,0v-0.1L77.5,82.5z"/>
	<path fill="#93529F" d="M68.1,78.6l-0.5-0.9l-0.5-0.8c0,0.4,0.1,0.7,0.3,1c0.1,0.1,0.1,0.1,0.2,0.2C67.8,78.3,67.9,78.5,68.1,78.6z
		"/>
	<polygon fill="#93529F" points="80.1,81.6 80.1,81.6 80.1,81.6 	"/>
	<path fill="#A1D9D7" d="M85.9,57c0.2,0.1,0.2,0,0.6-0.5c0.4-0.5,0.4-0.5,0.5-0.6c0.1-0.1,0.2,0,0.6-0.5c0.5-0.5,0.6-0.7,0.7-0.7
		c0.1,0,0,0.2,0.6-0.4c0.6-0.6,0.5-0.4,0.9-1c0.5-0.6,0.4-0.6,0.5-0.9c0.1-0.2,0.3-0.5,0.3-0.8c0-0.3,0-0.3,0.3-0.5
		c0.2-0.2,0.1-0.4,0.1-1c0-0.6-0.2-0.4-0.5-0.5c-0.3-0.1-0.6-0.2-0.8-0.1c-0.2,0.1-0.3,0.2-0.5,0.2c-0.2,0.1-0.2,0-0.5,0.3
		c-0.3,0.3-0.1,0.2-0.3,0.4c-0.2,0.1-0.2,0.2-0.3,0.6c-0.1,0.4-0.2,0.2-0.9,0.9c0,0-0.3,0.6-0.5,1c-0.2,0.5-0.1,0.6-0.1,0.8
		c0,0.3-0.1,0.2-0.4,0.6c-0.2,0.4-0.2,0.7-0.3,1.4c-0.2,0.7-0.2,0.5-0.6,0.8c-0.3,0.3-0.2,0.2,0,0.3C85.7,57,85.7,56.9,85.9,57z"/>
	<path fill="#A1D9D7" d="M91,56.9c0,0.2-0.1-0.1-0.2,0.2c-0.1,0.3-0.3,0.2-0.2,0.7c0.1,0.5,0.1,0.1-0.1,0.6
		c-0.2,0.5-0.2,0.7-0.3,1.2c-0.1,0.4-0.2,0.5-0.5,0.7c-0.4,0.2,0.3,0.1-0.1,0.4c-0.4,0.3-0.4-0.2-0.8,0.2c-0.4,0.5-0.5,0.7-0.4,0.9
		c0.1,0.2,0.1,0.4-0.3,0.5c-0.5,0.1-0.5-0.1-0.6,0.4c-0.1,0.5-0.2,0.6-0.4,0.8c-0.2,0.2-0.8,1.2-0.6,1.1c0.2-0.1,0.5-0.1,0.3-0.3
		c-0.2-0.2-0.1,0,0.2-0.3c0.3-0.3,0,0.1,0.6-0.6c0.6-0.7,0.8-0.8,0.7-0.9c0-0.1-0.1-0.2,0.4-0.3c0.6-0.2,0.6,0.4,0.8-0.5
		c0.2-0.8-0.2-0.5,0.2-0.9c0.4-0.5,0.1-0.4,0.5-0.7c0.4-0.2,0.6,0,0.9-0.3c0.3-0.3,0.4-0.4,0.4-0.7c0.1-0.3,0.1-0.4,0.3-0.4
		c0.2,0,0-0.3,0-0.3c0-0.1,0.2,0.1,0.4,0.1c0.2,0,0.4-0.1,0.4-0.1s-0.3-0.1-0.5-0.2c-0.2-0.1-0.2-0.4-0.1-0.3
		c0.1,0.1,0.2,0.1,0.4,0.2c0.2,0.1,0.6,0.5,0.5,0.2c-0.1-0.3-0.3-0.5-0.4-0.5c-0.1,0-0.7-0.3-0.2-0.2c0.5,0.1,0.4,0.3,0.5,0.1
		c0.1-0.1,0.1-0.2,0.4-0.5c0.3-0.2,0.3,0.3,0.6-0.4s0.3-0.9,0.1-0.8c-0.2,0.1-0.3,0.4-0.5,0.1c-0.2-0.3-0.5-0.5-0.1-0.6
		c0.4-0.1,0.3-0.3,0.5-0.1c0.2,0.1,0.3,0.1,0.3,0.3c0,0.2,0,0.2,0,0.2s0.5-0.4,0.4-0.5c-0.2-0.1-0.4-0.2-0.3-0.2
		c0.1-0.1-0.2,0,0.1-0.1c0.3,0,0.6,0.4,0.4-0.2c-0.2-0.6-0.1-1.1-1-1c-0.9,0.2-1.3,0.6-1.8,1.4c-0.5,0.8-0.6,0.8-0.5,1
		c0,0.3-0.2-0.1-0.2,0.2C91,56.7,91,56.7,91,56.9z"/>
	<path fill="#A1D9D7" d="M96.7,63.2c-0.3,0.1-0.6-0.2-1,0c-0.3,0.1-0.8,0.6-1.1,1.2c-0.3,0.6-2.3,2.7-3.6,3.2
		c-0.5,0.2-0.9,0.5-1.4,0.8c-0.9,0.7-1.8,1.5-2.4,1.9c-1,0.6-2.6,1.4-2.6,0.9c0-0.5,0.7-0.7,0.8-1.2c0.1-0.4,0.3-0.3-0.1-0.8
		c-0.3-0.5,0.1-0.1-0.2-0.9c-0.2-0.6-0.1-0.8-0.3-1.1c-0.1-0.1-0.2-0.3-0.5-0.4c-0.9-0.5-0.5,0.5-1.1-0.6c-0.5-1.1-0.5-2.4-1.4-2.6
		c-0.9-0.2-1.1,0.2-1.9-0.2c-0.9-0.5-1.9-1.9-2.9-1.7c-0.3,0.1-0.6,0-0.8-0.1c-0.4-0.1-0.6-0.1-1,1c-0.7,1.6-0.3,3.2-0.2,3.6
		c0.1,0.5-0.1,0.3-0.4-0.1c-0.3-0.3-0.8-0.8-0.6,0.1c0.1,0.9,0.4,1.5,0.4,1.5s0.4,0.8-0.2,0.1c-0.6-0.6-0.6-0.7-1.2-0.4
		c-0.7,0.2-1,0-1.2,0.5c-0.3,0.5-0.5,1-0.4,1.3c0.1,0.2,0.1,0.5,0.1,0.6c-0.1-0.1-0.3-0.4-0.5-0.3c-0.4,0.1-0.3,0.4-1.1,0.6
		c-0.8,0.2-0.9,0.6-1.3,0.2c-0.4-0.4-0.6-1-0.7-0.7c-0.1,0.3,0.1,0.4-0.5,0.1c-0.6-0.2-1.1-0.8-1.2-1.1c-0.1-0.3-0.4-1.5-0.4-0.5
		c0,1,0.1,1.9,0.3,2.1c0.2,0.2-0.2,1.3,0.5,1.7c0.7,0.4,1.1,0.7,1.1,0.7l-0.7,0.1c0,0-0.1,0.3-0.2,0.6l0.6-0.1L67,73.8
		c-0.1,0.3-0.1,0.8,0,0.9c0.1,0.1,0.1,0.2,0,0.3l0.8-0.5l0.1,0.4l0,0.2l0.3-0.1l0.3,0.5L68,75.8c-0.2,0.1-0.6,0.4-0.9,0.5l-0.1,0
		c0,0.1,0,0.2,0,0.2l0,0.1h0l0.5,0l0.3,0.4c0,0,0.1,0.1,0.1,0.1c0.2,0.2,0.4,0.5,0.5,0.7l0.3,0.4l0.5-0.5l0.5-0.5l0.3,0.6l0.3,0.7
		l-0.1,0.6l-0.1,0.5l0.3,0.1l0.2,0l-0.3-0.5l0.5-0.3l0.2,0.5l0.2,0.5l-0.4,0.3l0.2,0.2c0.1,0,0.1,0,0.2,0.1c0.9,0.3,2.7,0.4,2.9,0.5
		c0.2,0.1,0,0.4,0.3,0.7c0.3,0.3,1.5,0.5,1.8,0.5c0.1,0,0.2,0.1,0.4,0.2v-0.2c0-0.1-0.1-0.4-0.2-0.7l-0.2-0.5l0.2,0l0.2,0.1l0.1,0.2
		l0.3-0.3l0.1,0.2v0l0.3-0.1l0.1-0.1l0.1,0l0.3-0.1c0.4-0.2,0.9-0.2,1.1-0.2c0.1,0,0.4,0,0.8-0.1c0.1,0,0.3-0.1,0.4-0.1l0.8-0.2
		l-0.4,0.4h0l0.6-0.4c0.1-0.1,0.3-0.3,0.5-0.5c0.6-0.8,2.2-2.7,2.2-2.7s-0.5-0.1-0.3-0.5c0.2-0.4,0.6-0.8,0.9-0.8
		c0.3,0,0.9-0.3,1.7-1.5c0.7-1.1,1.2-1.9,1.3-2.3c0.1-0.5,0.2-1.3,0.3-1.4c0.1-0.1-0.2,0,0.8-0.6c0.9-0.7,1-0.9,1.9-1h0
		c0.9-0.1,0.7,0.3,1.5-0.1c0.8-0.5,0.6-0.2,1.6-1.2c1-0.9,0.3-0.6,1.5-1c1.2-0.4,1.3-0.6,1.5-1c0.1-0.4-0.1-0.5,0.3-0.5
		c0.4-0.1,0.5,0.6,0.8-0.5c0.3-1.1,0.5-1.3,0-1.5C97.2,63,97,63.1,96.7,63.2z"/>
	<path fill="#93529F" d="M59.3,77c0.4,0.1,0.3,0.3,0,0.4c-0.3,0.1-0.3,0.1,0,0.9c0.3,0.9,0.4,0.6,0.4,1c0,0.4,0,0.7,0.3,1.6
		c0.3,0.9,0.2,0.4-0.1,0.9c-0.3,0.5,0.2,0.9,0.5,1.7c0.3,0.8,0.1,1,0.2,1.6c0.1,0.5,0.4,0.5,1,0.8c0.6,0.4,0.3,0.1,0.4,0.4
		c0,0,0.4-0.4,0.7-0.7c0.3-0.3,0.2-0.2,0.1-0.4c-0.1-0.3-0.2-0.3-0.2-0.3s0,0,0.2-0.2c0.2-0.3,0.1-1.2,0.1-1.9c0.1-0.7,0-0.3,0-0.3
		l-0.3-0.1c0,0,0.3,0.1,0.1-0.3c-0.1-0.3-0.2-0.4-0.3-0.8c-0.1-0.3,0-0.3,0-0.3c0,0-0.2,0-0.7-0.1c-0.2,0-0.3,0-0.4,0l0,0
		c0-0.1,0.2-0.1,0.8-0.1c0.5,0,0.3-0.2,0.3-0.2s0-0.3-0.1-0.4c-0.1-0.1-0.3-0.1-0.9,0c-0.6,0.1-0.6,0.1-0.6,0.1s0.3-0.1,0.7-0.3
		c0.4-0.3,0.1-0.1,0.6-0.1c0.1,0,0.2,0,0.3,0.1c-0.1-0.2-0.2-0.5-0.3-1c-0.2-0.9-0.1-0.4-0.1-0.4s-0.1,0-0.6-0.1
		c-0.5-0.1-0.3-0.2-0.3-0.2s0.1-0.1,0.4,0c0.4,0.1,0.5,0.1,0.5,0.1s0,0-0.3-0.8c-0.3-0.8-0.3-0.4-0.3-0.4s-0.3,0-0.1-0.4
		c0.3-0.5-0.1-2.1-0.2-2.8c-0.2-0.8-0.8-0.3-0.9-0.3c-0.1-0.1,0.3-0.4,0.3-0.6c0-0.2-1.7-0.3-2.1-0.1c-0.4,0.3,0.2,2.8,0.3,3.3
		C58.6,76.7,58.9,76.9,59.3,77z"/>
	<path fill="#93529F" d="M55.3,85.6c0.1,0,0.1,0,0-0.1c-0.1,0-0.1,0.1-0.1,0.1S55.2,85.6,55.3,85.6z"/>
	<path fill="none" stroke="#93529F" stroke-width="0" stroke-linecap="round" stroke-linejoin="round" d="M62.2,79.9
		c0.1,0.1,0.1,0.2,0.1,0.2"/>
	<path fill="#93529F" d="M75.3,85.8c0.1-0.3-0.3-0.3-1.2-0.3c-0.9,0-0.5,0.5-0.7,1.1c-0.3,0.6-0.8,1.5-0.8,2.2c0,0,0.2,0,0.2,0.2
		c0.1,0.2-0.2,0.1-0.1,0.3c0.2,0.2,0.3,0.2,0.5,0.5c0.2,0.3,0,0.5-0.3,0.6c-0.3,0.1-0.3-0.1-0.9-0.2c-0.5-0.1-0.2,0-0.1,0.5
		c0.1,0.5,0.4,0,0.7-0.1c0.3,0,0.2,0.1,0.6,0c0.4-0.1,0.7-0.4,0.8-0.5c0.2-0.2-0.2-0.3,0.1-0.3c0.3,0,0.4-0.8,0.9-1.7
		c0.5-0.8-0.1-0.8,0-1c0.1-0.1,0.3-0.2,0.4-0.7C75.5,86.1,75.2,86,75.3,85.8z"/>
	<path fill="#93529F" d="M71.6,95.7c-0.1,0.3-0.8,0.8-1.4,0.9c-0.6,0.2-0.4,0.1-0.4-0.2c-0.1-0.3-0.3,0.2-0.9,0.5
		c-0.5,0.3-0.5-0.1-1.3-0.4c-0.8-0.3-0.6-0.6-1-0.8c-0.3-0.1-0.5,0.1-0.6,0.3c0.1-0.1,0.1-0.4,0.2-0.6c0.2-0.2,0-0.8-0.2-1.3
		c-0.2-0.5-0.5-0.4-1.1-0.7c-0.6-0.3-0.6-0.3-1.3,0.2c-0.7,0.5-0.2-0.2-0.2-0.2s0.4-0.6,0.7-1.4c0.3-0.8-0.2-0.5-0.6-0.2
		c-0.4,0.2-0.6,0.4-0.4-0.1c0.1-0.5,0.8-1.9,0.4-3.6C63.4,87,63.2,87,62.8,87c-0.2,0-0.5,0-0.8-0.1c-0.9-0.3-2.2,0.9-3.2,1.2
		c-0.9,0.3-1-0.1-1.9-0.1c-1,0-1.1,1.3-1.8,2.3c-0.7,1-0.2,0.1-1.2,0.4c-0.3,0.1-0.5,0.2-0.6,0.3c-0.2,0.2-0.2,0.5-0.5,1
		c-0.4,0.7,0,0.5-0.4,0.9c-0.4,0.4-0.2,0.4-0.2,0.8c0.1,0.4,0.7,0.8,0.6,1.3c-0.1,0.5-1.6-0.6-2.4-1.4c-0.6-0.5-1.3-1.5-2-2.3
		c-0.4-0.4-0.8-0.8-1.3-1.1c-1.3-0.7-2.8-3.1-3-3.8c-0.2-0.7-0.6-1.2-0.9-1.4c-0.3-0.2-0.7,0-1-0.2c-0.3-0.2-0.5-0.3-1-0.2
		c-0.5,0.1-0.3,0.4-0.2,1.5c0.1,1.1,0.3,0.5,0.7,0.6c0.4,0.1,0.1,0.2,0.2,0.6c0.1,0.4,0.2,0.6,1.3,1.2c1.1,0.6,0.6,0.2,1.3,1.3
		c0.8,1.1,0.6,0.8,1.3,1.4c0.7,0.6,0.6,0.2,1.4,0.4l0,0c0.9,0.2,0.9,0.5,1.7,1.3c0.8,0.8,0.6,0.7,0.7,0.8c0.1,0.1,0.1,0.9,0.1,1.4
		c0,0.5,0.3,1.3,0.8,2.5c0.5,1.3,1.1,1.7,1.4,1.7c0.3,0,0.7,0.5,0.8,0.9c0.1,0.4-0.4,0.5-0.4,0.5s1.2,2.1,1.7,3
		c0.2,0.3,0.3,0.5,0.4,0.6l0.5,0.5l-0.3-0.4l0.8,0.3c0.1,0.1,0.2,0.1,0.4,0.2c0.3,0.1,0.6,0.2,0.8,0.2c0.2,0,0.6,0.2,1,0.4l0.3,0.2
		h0.1l0.1,0.1l0.3,0.2v0l0.1-0.1l0.2,0.3l0.2-0.2l0.2,0h0.2l-0.2,0.5c-0.1,0.2-0.3,0.5-0.3,0.7l0,0.1c0.1,0,0.2-0.1,0.4-0.1
		c0.3,0.1,1.5,0.1,1.9-0.2c0.3-0.2,0.2-0.5,0.5-0.6c0.3-0.1,2,0.2,3,0c0.1,0,0.1,0,0.2,0l0.2-0.1l-0.4-0.3l0.3-0.5l0.3-0.4l0.4,0.4
		l-0.4,0.5l0.2,0l0.3,0v-0.6l0-0.5l0.4-0.6l0.4-0.6l0.4,0.6l0.4,0.6l0.4-0.3c0.2-0.2,0.4-0.4,0.6-0.6c0-0.1,0.1-0.1,0.1-0.1l0.3-0.4
		l0.5,0.1h0l0,0c0-0.1,0.1-0.2,0.1-0.2l0,0c-0.2-0.2-0.6-0.5-0.8-0.7l-0.4-0.3l0.4-0.4l0.2,0.1l0.1-0.2l0.1-0.4l0.7,0.6
		c0-0.1,0-0.2,0.1-0.3c0.1-0.1,0.2-0.5,0.2-0.9l0-0.6l0.6,0.2c0-0.3-0.1-0.6-0.1-0.6l-0.7-0.2c0,0,0.4-0.2,1.2-0.4
		c0.8-0.3,0.6-1.5,0.8-1.6c0.2-0.1,0.4-1,0.6-2C72.3,94.3,71.8,95.4,71.6,95.7z"/>
	<polygon fill="#93529F" points="55,104.9 55,104.9 55,104.9 	"/>
	<path fill="#93529F" d="M58,107.2l0,0.1l0,0.1l-0.1,0l-0.1,0v0l-0.2,0.1l0,0.1c0.1,0.1,0.2,0.1,0.4,0.1c0.1,0,0.2,0,0.3-0.1l0-0.1
		L58,107.2z"/>
	<path fill="#93529F" d="M67.6,105.2c0.2-0.1,0.4-0.2,0.5-0.3c0.1-0.1,0.1-0.1,0.2-0.2c0.3-0.3,0.4-0.6,0.5-1l-0.6,0.7L67.6,105.2z"
		/>
	<polygon fill="#93529F" points="55.3,106 55.3,106 55.3,106 	"/>
	<path fill="#93529F" d="M55.6,106.4C55.6,106.4,55.6,106.5,55.6,106.4c0.1,0.2,0.2,0.2,0.3,0.3c0.1,0.1,0.2,0.2,0.4,0.3L55.6,106.4
		L55.6,106.4z"/>
	<path fill="#93529F" d="M46.2,77.2c0.1,0.1-0.1,0.1-0.3,0.2c-0.2,0.1,0.3,0.5,0.3,0.5s0,0,0-0.2c0-0.2,0.1-0.1,0.3-0.2
		c0.2-0.1,0.1,0.1,0.5,0.2c0.3,0.2,0,0.3-0.2,0.6c-0.2,0.3-0.3,0-0.4-0.2c-0.1-0.1-0.1,0.1,0,0.8c0.1,0.8,0.3,0.2,0.5,0.5
		c0.2,0.3,0.2,0.4,0.3,0.5c0.1,0.2,0,0,0.5,0c0.5,0-0.1,0.1-0.2,0.2c-0.1,0-0.3,0.1-0.5,0.5c-0.2,0.3,0.3,0,0.5-0.1
		c0.2-0.1,0.3-0.1,0.4-0.1c0.1,0,0,0.2-0.2,0.3c-0.2,0.1-0.5,0.1-0.5,0.1s0.1,0.2,0.3,0.2c0.2,0,0.5-0.1,0.5-0.1
		c0,0.1-0.2,0.3-0.1,0.3c0.2,0,0.2,0.2,0.2,0.5c0,0.3,0,0.4,0.3,0.8c0.3,0.3,0.5,0.2,0.9,0.5c0.3,0.3,0,0.2,0.4,0.7
		c0.3,0.6,0,0.1,0.1,1c0,0.8,0.2,0.3,0.7,0.6c0.5,0.2,0.4,0.2,0.3,0.4c-0.1,0.1,0.1,0.2,0.6,1c0.5,0.8,0.3,0.3,0.5,0.7
		c0.2,0.4,0.3,0.2,0.1,0.4c-0.2,0.2,0.1,0.3,0.3,0.4c0.1,0.1-0.3-1-0.4-1.2c-0.1-0.2-0.2-0.3-0.2-0.8c-0.1-0.5-0.1-0.4-0.5-0.5
		c-0.4-0.2-0.3-0.4-0.3-0.6c0.1-0.2,0.1-0.4-0.2-1c-0.3-0.5-0.4,0-0.7-0.4c-0.3-0.4,0.2-0.1-0.1-0.4c-0.3-0.3-0.3-0.4-0.4-0.8
		c0-0.5,0-0.6-0.1-1.2c-0.1-0.5-0.2-0.2,0-0.6c0.2-0.5-0.1-0.4-0.1-0.7c0-0.3-0.2-0.1-0.2-0.3c0.1-0.2,0.1-0.2,0.1-0.6
		c0-0.4-0.2,0-0.2-0.3c0.1-0.3,0-0.2-0.3-1.1c-0.4-0.9-0.6-1.3-1.5-1.7c-0.9-0.4-0.8,0.2-1.2,0.8C45.4,77.4,45.8,77.1,46.2,77.2
		C46.4,77.2,46.1,77.2,46.2,77.2z"/>
	<path fill="#93529F" d="M50.4,75.5c0.1,0.2,0,0.3,0.4,0.9c0.3,0.6,0.2,0.4,0.7,1.1C52,78.2,52,78,52,78.1c0.1,0,0.2,0.3,0.5,0.8
		c0.4,0.6,0.5,0.5,0.6,0.6c0.1,0.1,0.1,0.1,0.4,0.6c0.3,0.5,0.3,0.7,0.5,0.6c0.2-0.1,0.2,0.1,0.4,0.1c0.2,0,0.3,0.1,0-0.3
		c-0.3-0.4-0.4-0.2-0.4-0.9c-0.1-0.7,0.1-1-0.1-1.4c-0.2-0.4-0.3-0.4-0.2-0.6c0-0.2,0.2-0.3,0-0.8c-0.1-0.5-0.3-1.1-0.3-1.1
		c-0.5-0.8-0.6-0.6-0.7-1.1c-0.1-0.4,0-0.5-0.2-0.7c-0.2-0.1,0-0.1-0.2-0.4c-0.2-0.3-0.3-0.2-0.4-0.3c-0.2-0.1-0.3-0.2-0.4-0.3
		c-0.1-0.2-0.5-0.1-0.8-0.1c-0.3,0-0.5-0.2-0.6,0.4c-0.1,0.5-0.2,0.8,0,1c0.2,0.2,0.3,0.2,0.2,0.5S50.3,75.3,50.4,75.5z"/>
	<path fill="#93529F" d="M54.2,81.2c0.2,0.7,0.5,0.9,0.2,1.2c-0.3,0.2-0.8-0.1-0.6,0.6c0.2,0.7,0.4,0.8,0.5,0.8
		c0.1,0,0.7-0.3,0.9-0.1c0,0,0.1,0,0.1,0.1c0.3,0.1,0.6-0.1,0.1,0.2c-0.4,0.2,0,0.1-0.3,0.2c0,0-0.1,0-0.2,0.1
		c-0.6,0.3-0.7-0.3-0.3,0.5c0,0.1,0.1,0.1,0.1,0.2c0.3,0.6,0.4,0.3,0.5,0.6c0,0.1,0.1,0.2,0.1,0.2c0.1,0,0.1,0,0.2,0.2
		c0.2,0.4,0.2,0.6,0.2,0.8c0,0.2-0.1-0.2,0,0.2c0.1,0.4,0,0.6,0,0.6s-0.5,0.4,0.1,0.1c0.5-0.2,1,0,0.7-0.4c-0.3-0.5-0.3-0.3-0.2-0.6
		c0.1-0.3,0-0.3-0.1-0.7c-0.1-0.3,0.1-0.2,0.1-0.6c0-0.4,0.1-0.5-0.1-1.2c-0.3-0.6-0.5-1-0.4-1.1c0.1-0.2,0.3-0.2,0-0.5c0,0,0,0,0,0
		c-0.4-0.3-0.3-0.1-0.6-0.2c-0.3-0.1-0.5-0.1-0.5-0.2c0-0.2,0.1-0.5,0-0.5c-0.2,0-0.1,0.4-0.3,0.3C54.3,81.5,54.2,81.2,54.2,81.2z"
		/>
	<path fill="#A1D9D7" d="M132.5,64.2c2.2-6.4,4-13.2,5-20.7c0,0-3.3,11.8-13.5,28.1c-1.8,2.9-3.8,5.9-6.1,9
		c-6.2,8.5-14.1,17.7-24.2,26.9c-3,2.7-6.1,5.4-9.4,8.1c-8.7,6.9-18.5,13.7-30,20.1c0,0,5.6-1.7,13.7-5.5
		C86.7,121.7,119.3,101.7,132.5,64.2z"/>
</g>
</svg>
