<?xml version="1.0" encoding="utf-8"?>
<!-- Generator: Adobe Illustrator 18.1.0, SVG Export Plug-In . SVG Version: 6.00 Build 0)  -->
<svg version="1.0" id="Layer_1" xmlns="http://www.w3.org/2000/svg" xmlns:xlink="http://www.w3.org/1999/xlink" x="0px" y="0px"
	 viewBox="0 0 150 150" enable-background="new 0 0 150 150" xml:space="preserve">
<g>
	<path fill-rule="evenodd" clip-rule="evenodd" fill="#413E3B" d="M130,89c0.9-3.4,1.4-6.9,1.7-10.4l0.1-2l12.2-2.2l-1.3-13.7
		l-12.4,0.3l-0.5-1.9c-0.9-3.4-2.1-6.7-3.6-9.9l-0.9-1.8l9.5-8.1L126.9,28l-10.6,6.5l-1.4-1.4c-2.5-2.5-5.2-4.7-8-6.7l-1.6-1.1
		l4.2-11.9L97.2,7.8l-5.9,11l-1.9-0.5c-3.3-0.9-6.8-1.5-10.3-1.7l-2-0.1L75,4L61.6,5.4L61.8,18L60,18.5c-3.3,0.9-6.6,2.2-9.7,3.7
		l-1.8,0.9l-7.9-9.7l-11,8L36,32.3l-1.4,1.4c-2.4,2.5-4.6,5.3-6.6,8.2l-1.1,1.7l-11.6-4.3L9.7,51.7l10.9,6.1L20,59.7
		c-0.9,3.4-1.4,6.9-1.7,10.4l-0.1,2L6,74.3L7.3,88l12.4-0.3l0.5,1.9c0.9,3.4,2.1,6.8,3.6,9.9l0.8,1.8l-9.5,8.1l7.9,11.2l10.6-6.6
		l1.4,1.4c2.5,2.5,5.2,4.7,8,6.7l1.6,1.1l-4.2,11.9l12.3,5.7l0.4-0.8l0.1-18.1c-16.1-7.6-27.8-23.4-29.6-42.5
		c-1.3-14,2.7-27.6,11.5-38.5C43.9,30.2,56.3,23.4,70,22.1c1.7-0.2,3.4-0.3,5.1-0.3c26.6,0,48.6,20.4,51.3,47.4
		c2.8,28.8-18,54.6-46.3,57.4c-1.7,0.2-3.4,0.3-5.1,0.3h-0.2l0.1,17.1l0.1,0.6l13.5-1.4l-0.3-12.6l1.9-0.5c3.3-0.9,6.6-2.2,9.7-3.7
		l1.8-0.9l7.9,9.7l11-8l-6.4-10.8l1.4-1.4c2.4-2.5,4.6-5.2,6.6-8.2l1.1-1.6l11.6,4.3l5.6-12.5l-10.9-6.1L130,89z"/>
	<g>
		<path fill="#003C3C" d="M91,58.9l5.3-9.3h14.9c-3.3-6.3-9.8-10.5-17.3-10.5c-3.4,0-6.3,0.9-8.7,2.4c-2.8,1.7-5.2,4.5-6.7,8.1h-21
			v1.6v17.2v10.7h-5.3c-0.7-1.7-1.9-3-3.2-3.8c-1.2-0.7-2.5-1.1-4.1-1.1c-3.6,0-6.7,2-8.2,5h7.1l2.5,4.4l-2.5,4.4h-7.1
			c1.6,3,4.7,5,8.2,5c1.6,0,3-0.4,4.2-1.2c1.3-0.8,2.4-2.1,3.1-3.8h4.2h1.1v54.5c3.6,0.9,7.6,1.5,12.1,1.8v-76h8.9
			c1.5,3.5,3.8,6.4,6.6,8c2.5,1.5,5.4,2.4,8.8,2.4c7.5,0,14-4.3,17.3-10.5l-14.9,0L91,58.9z"/>
	</g>
</g>
</svg>
