<?xml version="1.0" encoding="utf-8"?>
<!-- Generator: Adobe Illustrator 18.1.0, SVG Export Plug-In . SVG Version: 6.00 Build 0)  -->
<svg version="1.1" id="Layer_1" xmlns="http://www.w3.org/2000/svg" xmlns:xlink="http://www.w3.org/1999/xlink" x="0px" y="0px"
	 viewBox="0 0 2000 2000" enable-background="new 0 0 2000 2000" xml:space="preserve">
<g>
	<path fill="#6996CC" d="M1385.1,1491.3c46.6-25.4,81.3-55.6,100.4-88.7c-13.4-2-26.6-4.3-39.2-7
		C1441.3,1430.1,1419.6,1462.6,1385.1,1491.3z"/>
	<path fill="#6996CC" d="M1014.1,1116.3c-182.9,0-342.1,46.9-425.7,116.2c89.5-48.8,222.5-79.7,371-79.7
		c77.4,0,150.5,8.4,215.5,23.3c-4.6-15.6-8-31.9-10.3-48.8C1117.2,1120.2,1066.6,1116.3,1014.1,1116.3z"/>
	<path fill="#5EB9DD" d="M917,807.5c0-273.4,225.1-265.3,225.1-265.3L1013.5,494c0-136.7-201-265.3-369.8-136.7
		c-22.4,17-47,46-72.9,83.4l0,0h0l159.4,419.8c-5.2,6.6-10.7,12.6-16.4,18.4c-1.7,1.7-3.4,3.3-5.1,4.9c-4.4,4.2-9,8.2-13.7,11.9
		c-1.7,1.3-3.3,2.7-4.9,4c-6.2,4.7-12.6,9-19.2,12.9c-1,0.6-2.1,1.1-3.1,1.7c-5.8,3.3-11.6,6.2-17.6,8.9c-2,0.9-4.1,1.8-6.1,2.6
		c-5.7,2.4-11.5,4.5-17.3,6.3c-1.5,0.5-3,1-4.5,1.5c-7.4,2.2-14.9,4-22.5,5.4c-1.4,0.3-2.8,0.4-4.2,0.6c-6.4,1.1-12.8,1.9-19.3,2.4
		c-1.9,0.2-3.8,1.8-5.7,2c-7.3,0.4-14.7,1.9-22.1,1.9c-0.4,0-0.8,0-1.2,0c-8.1,0-16.3-2.5-24.5-3.6c-1.2-0.2-2.4-1.1-3.6-1.3
		c-7.1-1-14.1-2.7-21.1-4.3c-1.3-0.3-2.6-0.8-3.9-1.1c-16.3-3.9-32.3-9.5-48-16.4c-0.9-0.4-1.8-0.9-2.7-1.3c-7.3-3.3-14.5-7-21.6-11
		c-0.6-0.3-1.1-0.6-1.7-0.9c-15.3-8.7-30-19-43.8-30.6c-0.7-0.6-1.5-1.3-2.2-1.9c-6.7-5.8-13.5-11.8-19.7-18.2c0,0-0.3-1.6-0.3-1.6
		V852c0,0,0.4,0,0.4,0c-98.9,229-177.1,436.2-177.1,436.2c8,193,128.6,282.3,128.6,282.3l32.2-449.8
		C716,1225.2,917,1080.9,917,807.5z"/>
	<path fill="#FFAF3E" d="M643.9,925.8c-5.7,2.4-11.5,4.5-17.3,6.3C632.4,930.3,638.2,928.2,643.9,925.8z"/>
	<path fill="#FFAF3E" d="M667.6,914.3c-5.8,3.3-11.6,6.2-17.6,8.9C656,920.5,661.9,917.5,667.6,914.3z"/>
	<path fill="#FFAF3E" d="M622,933.6c-7.4,2.2-14.9,4-22.5,5.4C607.2,937.6,614.7,935.8,622,933.6z"/>
	<path fill="#FFAF3E" d="M595.4,939.7c-6.4,1.1-12.8,1.9-19.3,2.4C582.6,941.6,589,940.7,595.4,939.7z"/>
	<path fill="#FFAF3E" d="M689.9,899.7c-6.2,4.7-12.6,9-19.2,12.9C677.3,908.7,683.7,904.3,689.9,899.7z"/>
	<path fill="#FFAF3E" d="M730.1,860.5c-5.2,6.6-10.7,12.6-16.4,18.4C719.4,873.1,724.9,867.1,730.1,860.5z"/>
	<path fill="#FFAF3E" d="M708.6,883.8c-4.4,4.2-9,8.2-13.7,11.9C699.6,891.9,704.2,888,708.6,883.8z"/>
	<path fill="#FFAF3E" d="M443.3,918c-7.3-3.3-14.5-7-21.6-10.9C428.8,911,436,914.7,443.3,918z"/>
	<path fill="#FFAF3E" d="M573,439.1v0.8l-113.7-296c0,0-200,216.1-191,497.1c2.9,89.5,36.5,159,86.1,211c0,0,0,0,0,0
		C422.9,696,500,539.1,573,439.1z"/>
	<path fill="#FFAF3E" d="M374,873.7c-6.7-5.8-13.2-11.8-19.5-18.2C360.8,861.9,367.3,867.9,374,873.7z"/>
	<path fill="#FFAF3E" d="M570.4,942.5c-7.3,0.4-14.7,0.6-22.1,0.4C555.7,943.1,563.1,943,570.4,942.5z"/>
	<path fill="#FFAF3E" d="M420,906.2c-15.3-8.7-30-19-43.8-30.6C390,887.2,404.7,897.4,420,906.2z"/>
	<path fill="#FFAF3E" d="M518.9,940.3c-7-1-14.1-2.3-21.1-3.9C504.9,938,511.9,939.3,518.9,940.3z"/>
	<path fill="#FFAF3E" d="M494,935.5c-16.3-3.9-32.4-9.4-48-16.3C461.6,926.2,477.7,931.6,494,935.5z"/>
	<path fill="#FFAF3E" d="M547.1,942.9c-8.1-0.3-16.3-1-24.5-2.1C530.8,941.9,538.9,942.7,547.1,942.9z"/>
	<path fill="#009ACE" d="M354,855.4c0,0,0.3,0,0.3,0.1c6.3,6.4,12.9,12.5,19.6,18.2c0.7,0.6,1.5,1.3,2.3,1.9
		c13.8,11.6,28.5,21.9,43.9,30.6c0.6,0.3,1.1,0.6,1.7,0.9c7.1,4,14.3,7.6,21.6,10.9c0.9,0.4,1.8,0.8,2.7,1.2
		c15.6,6.9,31.7,12.4,48,16.3c1.3,0.3,2.6,0.6,3.9,0.9c7,1.6,14,2.9,21.1,3.9c1.2,0.2,2.4,1.9,3.6,2.1c8.2,1.1,16.3,3.6,24.5,3.6
		c0.4,0,0.8,0,1.2,0c7.4,0,14.8-1.5,22.1-1.9c1.9-0.1,3.8-1,5.7-1.2c6.5-0.5,12.9-1.7,19.3-2.8c1.4-0.2,2.8-0.6,4.2-0.8
		c7.6-1.4,15.1-3.3,22.5-5.5c1.5-0.4,3-1.1,4.5-1.5c5.8-1.9,11.6-4,17.3-6.3c2.1-0.9,4.1-1.7,6.1-2.6c6-2.7,11.9-5.7,17.6-8.9
		c1-0.6,2.1-1.1,3.1-1.7c6.6-3.9,13-8.3,19.2-12.9c1.7-1.3,3.3-2.6,4.9-4c4.7-3.7,9.3-7.7,13.7-11.9c1.7-1.6,3.4-3.2,5.1-4.9
		c5.7-5.8,11.3-11.6,16.4-18.2L570.7,441h-0.2C501.1,541,423,700.8,354,855.4C354,855.4,354,855.4,354,855.4z"/>
	<path fill="#F386A3" d="M1686.8,1161.7c-16.1,8.5-32.8,15.4-49.8,20.7c-0.4,0.1-0.8,0.2-1.1,0.3c-8.1,2.5-16.2,4.5-24.3,6.3
		c-0.7,0.2-1.4,0.3-2.2,0.5c-17,3.5-34,5.4-50.9,5.7c-1.1,0-2.2,0-3.3,0c-7.5,0.1-14.9-0.2-22.3-0.7c-1-0.1-2-0.1-3-0.2
		c-8.3-0.7-16.6-1.8-24.8-3.3c-0.1,0-0.2,0-0.3-0.1c-7.6-1.4-15.1-3.2-22.4-5.3c-1.7-0.5-3.3-1-5-1.5c-6.4-2-12.8-4.2-19-6.7
		c-1.1-0.5-2.3-0.8-3.4-1.3c-7.2-3-14.2-6.4-21-10.2c-1.3-0.7-2.5-1.5-3.7-2.2c-5.5-3.1-10.8-6.5-16-10.1c-1.7-1.2-3.5-2.4-5.2-3.7
		c-5.4-4-10.6-8.2-15.6-12.8c-0.8-0.7-1.6-1.3-2.4-2c-5.7-5.2-11-10.9-16.1-16.8c-1.3-1.6-2.6-3.2-3.9-4.8
		c-3.8-4.7-7.5-9.6-10.9-14.7c-1.3-1.9-2.6-3.8-3.9-5.8c-4.3-6.9-8.5-14-12.2-21.5l245.4-376.1c-17.3-42-35.2-75.6-53.4-97
		c-137.5-161.7-361.3-79-390.5,54.5l-136,19.6c0,0,221.7,40.2,163.3,307.3c-11.5,52.7-14.2,102.2-8.2,147.5
		c2.2,16.9,5.6,33.1,10.3,48.8c32.1,108.7,122.4,187.2,271.4,219.3c12.6,2.7,25.8,5,39.2,7c55,8.3,116.9,11.1,185.9,7.3l-64.7,446.7
		c0,0,136.7-60.6,185.8-247.4c0,0-31.3-223.1-80.2-462.4c-7.6,5-15.4,9.6-23.3,13.8C1688.2,1161,1687.5,1161.4,1686.8,1161.7z"/>
	<path fill="#9CC576" d="M1842.3,957.7c68.9-272.6-79.5-527.8-79.5-527.8l-173.3,265.5c46.4,112.5,88.8,285.7,122.7,451.3
		c-7.6,5-15.4,9.6-23.3,13.8c7.9-4.2,15.7-8.8,23.3-13.8C1771.5,1107.5,1820.3,1044.5,1842.3,957.7z"/>
	<path fill="#9CC576" d="M1455,1176.2c-7.2-3-14.2-6.4-21-10.2C1440.7,1169.8,1447.8,1173.1,1455,1176.2z"/>
	<path fill="#9CC576" d="M1555.2,1195.3c-7.5,0.1-14.9-0.2-22.3-0.7C1540.2,1195.1,1547.7,1195.4,1555.2,1195.3z"/>
	<path fill="#9CC576" d="M1430.2,1163.8c-5.5-3.1-10.8-6.5-16-10.1C1419.4,1157.3,1424.7,1160.7,1430.2,1163.8z"/>
	<path fill="#9CC576" d="M1477.3,1184.2c-6.4-2-12.8-4.2-19-6.7C1464.6,1180,1470.9,1182.2,1477.3,1184.2z"/>
	<path fill="#9CC576" d="M1504.8,1191c-7.6-1.4-15.1-3.3-22.4-5.3C1489.7,1187.8,1497.2,1189.6,1504.8,1191z"/>
	<path fill="#9CC576" d="M1356.2,1093c-4.3-6.9-8.5-14-12.2-21.5C1347.7,1079.1,1351.9,1086.1,1356.2,1093z"/>
	<path fill="#9CC576" d="M1371,1113.5c-3.8-4.7-7.5-9.6-10.9-14.7C1363.6,1103.9,1367.2,1108.8,1371,1113.5z"/>
	<path fill="#9CC576" d="M1391,1135.2c-5.7-5.2-11-10.9-16.1-16.8C1380,1124.2,1385.4,1129.9,1391,1135.2z"/>
	<path fill="#9CC576" d="M1409.1,1150c-5.4-4-10.6-8.2-15.6-12.8C1398.4,1141.7,1403.7,1146,1409.1,1150z"/>
	<path fill="#9CC576" d="M1529.9,1194.4c-8.3-0.7-16.6-1.8-24.8-3.3C1513.3,1192.6,1521.5,1193.7,1529.9,1194.4z"/>
	<path fill="#9CC576" d="M1635.9,1182.8c-8,2.5-16.2,4.5-24.3,6.3C1619.7,1187.3,1627.8,1185.2,1635.9,1182.8z"/>
	<path fill="#9CC576" d="M1686.8,1161.7c-16.1,8.5-32.8,15.4-49.8,20.7C1654,1177.2,1670.7,1170.2,1686.8,1161.7z"/>
	<path fill="#9CC576" d="M1609.4,1189.5c-16.9,3.5-34,5.4-50.9,5.7C1575.4,1194.9,1592.4,1193,1609.4,1189.5z"/>
	<path fill="#C87282" d="M1356.2,1093c1.3,2,2.6,3.9,3.9,5.8c3.5,5.1,7.1,10,10.9,14.7c1.3,1.6,2.6,3.3,3.9,4.8
		c5.1,5.9,10.5,11.6,16.1,16.8c0.8,0.7,1.6,1.3,2.4,2c5,4.5,10.2,8.8,15.6,12.8c1.7,1.3,3.4,2.5,5.2,3.7c5.2,3.6,10.5,7,16,10.1
		c1.3,0.7,2.5,1.5,3.7,2.2c6.8,3.7,13.8,7.1,21,10.2c1.1,0.5,2.3,0.9,3.4,1.3c6.2,2.5,12.6,4.7,19,6.7c1.7,0.5,3.3,1,5,1.5
		c7.4,2.1,14.8,3.9,22.4,5.3c0.1,0,0.2,0,0.3,0.1c8.2,1.5,16.4,2.6,24.8,3.3c1,0.1,2,0.1,3,0.2c7.4,0.5,14.8,0.8,22.3,0.7
		c1.1,0,2.2,0,3.3,0c16.9-0.4,34-2.3,50.9-5.7c0.7-0.1,1.4-0.3,2.2-0.5c8.1-1.7,16.3-3.8,24.3-6.3c0.4-0.1,0.8-0.2,1.1-0.3
		c17-5.3,33.7-12.2,49.8-20.7c0.7-0.4,1.4-0.7,2.1-1.1c7.9-4.2,16.9-8.8,24.5-13.8c-33.9-165.6-79.4-338.9-121.4-451.3
		c0,0,0,0.6,0,0.6h-1.2l-246.1,375.8C1348.4,1079.3,1351.9,1086.1,1356.2,1093z"/>
	<path fill="#6996CC" d="M1617.7,1451.1l-66.6-4.6c-137.9,130.9-324.2,211.4-529.4,211.4c-288.6,0-539.9-159-671.5-394.1l-6.8,116.9
		c144.3,221.7,394.1,368.5,678.3,368.5c234.9,0,446.3-100.2,594-260.1L1617.7,1451.1z"/>
	<path fill="#6996CC" d="M260.5,999.3c-5.2-36.2-8.1-73.1-8.1-110.8c0-39.4,3.2-78,8.9-115.8c-8-18.2-13.8-35.7-18-52
		c-19.7,69.8-30.4,143.4-30.4,219.5c0,46,4,91.1,11.4,135C236.6,1048.7,249,1022.6,260.5,999.3z"/>
	<path fill="#6996CC" d="M1680.7,491.9l6.7-10.4c-44.5-64.4-97.8-122.2-158.7-171.2C1588.3,362.5,1639.6,423.8,1680.7,491.9z"/>
	<path fill="#6996CC" d="M1116.9,1534.3c13.5-10.4,21.4-22.5,21.4-35.6c0-38.1-66.3-68.9-148-68.9c-81.7,0-148,30.9-148,68.9
		c0,0.3,0.1,0.6,0.1,0.9c25.9-20,72.8-33.4,126.6-33.4C1050,1466.3,1115.8,1496.6,1116.9,1534.3z"/>
</g>
</svg>
