<?xml version="1.0" encoding="utf-8"?>
<!-- Generator: Adobe Illustrator 16.0.0, SVG Export Plug-In . SVG Version: 6.00 Build 0)  -->
<!DOCTYPE svg PUBLIC "-//W3C//DTD SVG 1.1//EN" "http://www.w3.org/Graphics/SVG/1.1/DTD/svg11.dtd">
<svg version="1.1" id="Layer_1" xmlns="http://www.w3.org/2000/svg" xmlns:xlink="http://www.w3.org/1999/xlink" x="0px" y="0px"
	 width="100px" height="100px" viewBox="0 0 100 100" enable-background="new 0 0 100 100" xml:space="preserve">
<g>
	<g>
		<g>
			<radialGradient id="SVGID_1_" cx="50.5352" cy="51.1289" r="57.5713" gradientUnits="userSpaceOnUse">
				<stop  offset="0.0303" style="stop-color:#F28AB8"/>
				<stop  offset="0.2667" style="stop-color:#ED4F9B"/>
				<stop  offset="0.5515" style="stop-color:#EB008B"/>
				<stop  offset="1" style="stop-color:#7C003A"/>
			</radialGradient>
			<polygon fill="url(#SVGID_1_)" points="49.401,7.024 45.833,17.324 15.748,47.641 5.679,50.804 			"/>
			<radialGradient id="SVGID_2_" cx="50.5313" cy="51.1299" r="57.5663" gradientUnits="userSpaceOnUse">
				<stop  offset="0.0303" style="stop-color:#F28AB8"/>
				<stop  offset="0.2667" style="stop-color:#ED4F9B"/>
				<stop  offset="0.5515" style="stop-color:#EB008B"/>
				<stop  offset="1" style="stop-color:#7C003A"/>
			</radialGradient>
			<polygon fill="url(#SVGID_2_)" points="5.778,51.138 16.06,54.767 46.202,85.028 49.298,95.115 			"/>
			<radialGradient id="SVGID_3_" cx="50.5381" cy="51.1289" r="57.5618" gradientUnits="userSpaceOnUse">
				<stop  offset="0.0303" style="stop-color:#F28AB8"/>
				<stop  offset="0.2667" style="stop-color:#ED4F9B"/>
				<stop  offset="0.5515" style="stop-color:#EB008B"/>
				<stop  offset="1" style="stop-color:#7C003A"/>
			</radialGradient>
			<polygon fill="url(#SVGID_3_)" points="49.77,7.024 53.332,17.324 83.42,47.641 93.483,50.804 			"/>
			<radialGradient id="SVGID_4_" cx="50.5352" cy="51.1299" r="57.5672" gradientUnits="userSpaceOnUse">
				<stop  offset="0.0303" style="stop-color:#F28AB8"/>
				<stop  offset="0.2667" style="stop-color:#ED4F9B"/>
				<stop  offset="0.5515" style="stop-color:#EB008B"/>
				<stop  offset="1" style="stop-color:#7C003A"/>
			</radialGradient>
			<polygon fill="url(#SVGID_4_)" points="93.386,51.138 83.106,54.767 52.963,85.028 49.867,95.115 			"/>
		</g>
		<g>
			<radialGradient id="SVGID_5_" cx="50.5322" cy="51.1289" r="57.5756" gradientUnits="userSpaceOnUse">
				<stop  offset="0.0303" style="stop-color:#F28AB8"/>
				<stop  offset="0.2667" style="stop-color:#ED4F9B"/>
				<stop  offset="0.5515" style="stop-color:#EB008B"/>
				<stop  offset="1" style="stop-color:#7C003A"/>
			</radialGradient>
			<polygon fill="url(#SVGID_5_)" points="52.383,18.431 49.328,26.662 62.241,35.474 			"/>
			<radialGradient id="SVGID_6_" cx="50.5303" cy="51.126" r="57.5714" gradientUnits="userSpaceOnUse">
				<stop  offset="0.0303" style="stop-color:#F28AB8"/>
				<stop  offset="0.2667" style="stop-color:#ED4F9B"/>
				<stop  offset="0.5515" style="stop-color:#EB008B"/>
				<stop  offset="1" style="stop-color:#7C003A"/>
			</radialGradient>
			<polygon fill="url(#SVGID_6_)" points="82.041,47.901 73.811,50.956 64.999,38.049 			"/>
			<radialGradient id="SVGID_7_" cx="50.5303" cy="51.1309" r="57.5699" gradientUnits="userSpaceOnUse">
				<stop  offset="0.0303" style="stop-color:#F28AB8"/>
				<stop  offset="0.2667" style="stop-color:#ED4F9B"/>
				<stop  offset="0.5515" style="stop-color:#EB008B"/>
				<stop  offset="1" style="stop-color:#7C003A"/>
			</radialGradient>
			<polygon fill="url(#SVGID_7_)" points="82.041,55.135 73.811,52.08 64.999,64.987 			"/>
			<radialGradient id="SVGID_8_" cx="50.5332" cy="51.1309" r="57.5655" gradientUnits="userSpaceOnUse">
				<stop  offset="0.0303" style="stop-color:#F28AB8"/>
				<stop  offset="0.2667" style="stop-color:#ED4F9B"/>
				<stop  offset="0.5515" style="stop-color:#EB008B"/>
				<stop  offset="1" style="stop-color:#7C003A"/>
			</radialGradient>
			<polygon fill="url(#SVGID_8_)" points="17.122,55.135 25.352,52.08 34.164,64.987 			"/>
			<radialGradient id="SVGID_9_" cx="50.5332" cy="51.126" r="57.5688" gradientUnits="userSpaceOnUse">
				<stop  offset="0.0303" style="stop-color:#F28AB8"/>
				<stop  offset="0.2667" style="stop-color:#ED4F9B"/>
				<stop  offset="0.5515" style="stop-color:#EB008B"/>
				<stop  offset="1" style="stop-color:#7C003A"/>
			</radialGradient>
			<polygon fill="url(#SVGID_9_)" points="17.122,47.901 25.352,50.956 34.164,38.049 			"/>
			<radialGradient id="SVGID_10_" cx="50.5342" cy="51.1289" r="57.5715" gradientUnits="userSpaceOnUse">
				<stop  offset="0.0303" style="stop-color:#F28AB8"/>
				<stop  offset="0.2667" style="stop-color:#ED4F9B"/>
				<stop  offset="0.5515" style="stop-color:#EB008B"/>
				<stop  offset="1" style="stop-color:#7C003A"/>
			</radialGradient>
			<polyline fill="url(#SVGID_10_)" points="35.857,35.474 45.706,18.431 48.766,26.662 			"/>
			<radialGradient id="SVGID_11_" cx="50.5322" cy="51.125" r="57.5748" gradientUnits="userSpaceOnUse">
				<stop  offset="0.0303" style="stop-color:#F28AB8"/>
				<stop  offset="0.2667" style="stop-color:#ED4F9B"/>
				<stop  offset="0.5515" style="stop-color:#EB008B"/>
				<stop  offset="1" style="stop-color:#7C003A"/>
			</radialGradient>
			<polygon fill="url(#SVGID_11_)" points="52.383,83.705 49.328,75.473 62.241,66.662 			"/>
			<radialGradient id="SVGID_12_" cx="50.5342" cy="51.125" r="57.5735" gradientUnits="userSpaceOnUse">
				<stop  offset="0.0303" style="stop-color:#F28AB8"/>
				<stop  offset="0.2667" style="stop-color:#ED4F9B"/>
				<stop  offset="0.5515" style="stop-color:#EB008B"/>
				<stop  offset="1" style="stop-color:#7C003A"/>
			</radialGradient>
			<polyline fill="url(#SVGID_12_)" points="35.857,66.662 45.706,83.705 48.766,75.473 			"/>
		</g>
	</g>
	<g>
		<radialGradient id="SVGID_13_" cx="50.3926" cy="35.1772" r="37.9345" gradientUnits="userSpaceOnUse">
			<stop  offset="0.0303" style="stop-color:#F28AB8"/>
			<stop  offset="0.2667" style="stop-color:#ED4F9B"/>
			<stop  offset="0.5515" style="stop-color:#EB008B"/>
			<stop  offset="1" style="stop-color:#7C003A"/>
		</radialGradient>
		<path fill="url(#SVGID_13_)" d="M38.618,41.472c0.17,0.412,0.315,0.835,0.454,1.264c0.272-0.731,0.587-1.47,1.167-2.02
			c0.23-0.218,0.472-0.411,0.714-0.623c-1.349-0.15-2.71-0.278-4.064-0.163C37.466,40.438,38.14,40.861,38.618,41.472z"/>
		<radialGradient id="SVGID_14_" cx="50.3911" cy="35.1792" r="37.9179" gradientUnits="userSpaceOnUse">
			<stop  offset="0.0303" style="stop-color:#F28AB8"/>
			<stop  offset="0.2667" style="stop-color:#ED4F9B"/>
			<stop  offset="0.5515" style="stop-color:#EB008B"/>
			<stop  offset="1" style="stop-color:#7C003A"/>
		</radialGradient>
		<path fill="url(#SVGID_14_)" d="M39.495,45.004c-0.442,1.627-2.867,2.231-4.052,1.101c-0.738-0.774-0.181-1.814,0.157-2.631
			c-0.498,0.267-1.182,0.333-1.469,0.889c-0.175,0.671,0.014,1.439-0.384,2.044c-0.381,0.66-1.02,1.337-0.747,2.166
			c0.35,1.445,2.002,0.744,2.002,0.744s-1.371-0.478-1.053-1.283c0.354-0.876,1.4-0.284,2.104-0.224
			c1.146,0.291,2.407,0.164,3.38-0.422c0.267-0.164,0.37-0.502,0.557-0.756c0.581,0.962,2.123,1.784,2.123,1.784
			s-0.974-1.482-1.416-2.25c-0.218-1.409,0.339-2.854,1.185-3.961c1.767-1.99,5.51-0.967,6.242,1.518
			c0.375,1.294-0.326,2.885-1.681,3.242c-1.705,0.539-3.447-0.236-4.765-1.301c0.169,0.842,0.489,1.725,1.263,2.196
			c2.359,1.651,5.993,0.393,6.937-2.316c0.908,2.793,4.754,4.022,7.065,2.195c0.726-0.472,0.918-1.325,1.112-2.099
			c-1.313,1.113-3.14,1.881-4.851,1.288c-1.354-0.387-1.978-2.025-1.572-3.302c0.799-2.346,4.245-3.333,6.066-1.573
			c0.913,1.041,1.433,2.468,1.409,3.847c-0.29,0.938-1.191,1.536-1.524,2.474c0.695-0.333,1.313-0.871,2.092-1.01
			c1.367-0.132,2.644,0.847,4.017,0.436c0.677-0.048,2.014-0.684,2.067,0.26c0.062,1.247-0.743,1.379-0.743,1.379
			s2.171,0.581,1.771-1.729c-0.103-0.611-0.743-0.999-0.979-1.566c-0.235-0.563,0.024-1.24-0.218-1.796
			c-0.254-0.581-0.943-0.647-1.481-0.822c0.32,0.756,0.877,1.639,0.297,2.413c-0.702,1.021-2.081,0.756-3.085,0.453
			c-1.657-1.059-1.191-3.332-2.273-4.76c-2.383-2.878-7.947-2.159-9.199,1.47c-0.557-2.014-2.692-3.066-4.633-3.229
			c-1.609-0.158-3.235,0.453-4.409,1.548C40.045,42.483,39.912,43.801,39.495,45.004z"/>
		<radialGradient id="SVGID_15_" cx="50.3926" cy="35.1714" r="37.9421" gradientUnits="userSpaceOnUse">
			<stop  offset="0.0303" style="stop-color:#F28AB8"/>
			<stop  offset="0.2667" style="stop-color:#ED4F9B"/>
			<stop  offset="0.5515" style="stop-color:#EB008B"/>
			<stop  offset="1" style="stop-color:#7C003A"/>
		</radialGradient>
		<path fill="url(#SVGID_15_)" d="M34.908,42.628c0.65-0.508,1.821-0.351,2.089,0.508c0.297,0.792-0.036,1.621-0.166,2.413
			c0.487-0.338,1.113-0.604,1.309-1.221c0.309-0.781,0.048-1.609-0.291-2.323c-0.429-0.605-1.119-0.961-1.854-0.974
			c-0.604,0.054-0.805-0.605-1.152-0.962c-0.214,0.333-0.423,0.653-0.625,0.979c-1.685,2.462-4.881,7.5-4.881,7.5
			S32.96,43.765,34.908,42.628z"/>
		<radialGradient id="SVGID_16_" cx="50.3936" cy="35.1709" r="37.9633" gradientUnits="userSpaceOnUse">
			<stop  offset="0.0303" style="stop-color:#F28AB8"/>
			<stop  offset="0.2667" style="stop-color:#ED4F9B"/>
			<stop  offset="0.5515" style="stop-color:#EB008B"/>
			<stop  offset="1" style="stop-color:#7C003A"/>
		</radialGradient>
		<path fill="url(#SVGID_16_)" d="M46.71,45.228c0.677-1.373-0.557-3.199-2.104-2.951c-1.156-0.126-2.346,1.59-1.161,2.334
			c0.81,0.617,1.487-0.181,1.693-0.932c0.919,0.599,0.4,1.664,0.03,2.438C45.724,45.93,46.456,45.845,46.71,45.228z"/>
		<radialGradient id="SVGID_17_" cx="50.3926" cy="35.1865" r="37.9144" gradientUnits="userSpaceOnUse">
			<stop  offset="0.0303" style="stop-color:#F28AB8"/>
			<stop  offset="0.2667" style="stop-color:#ED4F9B"/>
			<stop  offset="0.5515" style="stop-color:#EB008B"/>
			<stop  offset="1" style="stop-color:#7C003A"/>
		</radialGradient>
		<path fill="url(#SVGID_17_)" d="M67.248,46.813c0.097,0.243,0.278,0.738,0.369,0.98c0.332,1.342-0.127,3.375-1.754,3.538
			c-1.112,0.133-1.543-1.07-2.195-1.723c-1.754-2.093-5.976-1.071-6.15,1.801c-0.2,1.452,1.118,2.396,2.376,2.68
			c-0.012,0.043-0.574,0.665-0.901,0.817c-1.342,0.61-2.77-0.817-3.09-2.19c-0.072-0.32-0.078-0.604-0.055-0.828
			c0.127-0.948,0.49-1.844,0.92-2.691c-1.337-0.187-2.934-0.181-3.877,0.932c-0.557,0.538-0.332,1.324-0.284,1.99
			c0.448-0.865,1.064-1.634,2.068-1.833c-0.127,1.735-0.163,3.635,0.913,5.123c0.557,0.726,1.355,1.203,2.25,1.408
			c0.145,0.013,0.441,0.03,0.593,0.043c0.435-0.025,0.865-0.066,1.294-0.127c0.599-0.169,1.053-0.617,1.524-0.992
			c0.967-1.088,1.125-2.685,0.436-3.961c-0.363,0.018-0.521,0.387-0.762,0.604c-0.581,0.126-1.374,0.176-1.657-0.479
			c-0.496-1.063,0.574-2.279,1.699-1.995c2.425,0.211,3.489,3.12,2.86,5.219c1.318-1.614,3.181-2.721,4.402-4.426
			C69.136,49.456,68.7,47.436,67.248,46.813z"/>
		<radialGradient id="SVGID_18_" cx="50.3867" cy="35.1753" r="37.9395" gradientUnits="userSpaceOnUse">
			<stop  offset="0.0303" style="stop-color:#F28AB8"/>
			<stop  offset="0.2667" style="stop-color:#ED4F9B"/>
			<stop  offset="0.5515" style="stop-color:#EB008B"/>
			<stop  offset="1" style="stop-color:#7C003A"/>
		</radialGradient>
		<path fill="url(#SVGID_18_)" d="M60.645,42.736c0.175-1.288,1.239-2.068,2.188-2.793c-1.349-0.133-2.697,0-4.04,0.15
			C59.664,40.771,60.354,41.654,60.645,42.736z"/>
		<radialGradient id="SVGID_19_" cx="50.3867" cy="35.1816" r="37.9328" gradientUnits="userSpaceOnUse">
			<stop  offset="0.0303" style="stop-color:#F28AB8"/>
			<stop  offset="0.2667" style="stop-color:#ED4F9B"/>
			<stop  offset="0.5515" style="stop-color:#EB008B"/>
			<stop  offset="1" style="stop-color:#7C003A"/>
		</radialGradient>
		<path fill="url(#SVGID_19_)" d="M66.147,41.872c-0.448-0.593-0.884-1.204-1.343-1.791c-0.278,0.599-0.688,1.004-1.415,1.004
			c-2.195-0.012-2.733,3.889-0.448,4.415c-0.26-0.896-0.61-1.978,0.049-2.806c0.563-0.586,1.464-0.375,2.051-0.012
			c0.925,0.574,1.675,1.421,2.304,2.328c0.943,1.234,3.048,3.556,3.048,3.556S67.6,44.08,66.147,41.872z"/>
		<radialGradient id="SVGID_20_" cx="50.3882" cy="35.1787" r="37.9345" gradientUnits="userSpaceOnUse">
			<stop  offset="0.0303" style="stop-color:#F28AB8"/>
			<stop  offset="0.2667" style="stop-color:#ED4F9B"/>
			<stop  offset="0.5515" style="stop-color:#EB008B"/>
			<stop  offset="1" style="stop-color:#7C003A"/>
		</radialGradient>
		<path fill="url(#SVGID_20_)" d="M54.584,43.68c0.193,0.744,0.883,1.524,1.669,0.944c1.24-0.75,0-2.503-1.173-2.341
			c-1.518-0.223-2.734,1.591-2.063,2.933c0.26,0.611,0.968,0.726,1.542,0.883C54.179,45.331,53.689,44.285,54.584,43.68z"/>
		<radialGradient id="SVGID_21_" cx="50.394" cy="35.1826" r="37.9214" gradientUnits="userSpaceOnUse">
			<stop  offset="0.0303" style="stop-color:#F28AB8"/>
			<stop  offset="0.2667" style="stop-color:#ED4F9B"/>
			<stop  offset="0.5515" style="stop-color:#EB008B"/>
			<stop  offset="1" style="stop-color:#7C003A"/>
		</radialGradient>
		<path fill="url(#SVGID_21_)" d="M39.549,56.508c1.379,0.695,3.066,0.355,4.209-0.635c0.98-1.181,1.784-2.922,1.065-4.385
			c-0.157-0.297-0.412-0.957-0.642-1.276c1.646-0.237,2.503,1.046,2.915,1.898c0.049-0.604,0.278-1.263-0.121-1.796
			c-0.919-1.222-2.576-1.337-3.955-1.125c0,0.453-0.302,1.239,0.55,1.185c0.575,1.572,0.169,3.611-1.433,4.392
			c-0.859,0.5-1.736-0.08-2.419-0.588c1.137-0.387,2.51-1.039,2.504-2.449c0.097-2.455-2.879-3.846-4.953-2.975
			c-1.149,0.38-1.645,1.573-2.483,2.346c-0.726,0.478-1.777,0.176-2.234-0.544c-0.804-1.131-0.556-2.625-0.132-3.853
			c-0.442,0.405-0.88,0.834-1.198,1.354c-0.348,0.926-0.242,2.02,0.39,2.8c1.24,1.609,3,2.697,4.289,4.264
			c-0.69-2.195,0.62-5.34,3.226-5.213c1.259-0.169,2.044,1.82,0.883,2.443c-0.726,0.423-1.378-0.242-1.965-0.587
			c-0.369,0.834-0.645,1.815-0.27,2.697c0.215,0.448,0.408,0.926,0.747,1.294C38.805,56.072,39.186,56.278,39.549,56.508z"/>
		<radialGradient id="SVGID_22_" cx="50.3945" cy="35.1836" r="37.9137" gradientUnits="userSpaceOnUse">
			<stop  offset="0.0303" style="stop-color:#F28AB8"/>
			<stop  offset="0.2667" style="stop-color:#ED4F9B"/>
			<stop  offset="0.5515" style="stop-color:#EB008B"/>
			<stop  offset="1" style="stop-color:#7C003A"/>
		</radialGradient>
		<path fill="url(#SVGID_22_)" d="M60.384,57.953c-0.248,0.041-0.756,0.126-1.01,0.169c-0.943-0.024-1.893-0.158-2.806-0.423
			c-0.859-0.496-1.592-1.211-2.069-2.086c-0.313-0.823-0.459-1.694-0.544-2.565c-0.822,0.018-1.887,0.267-2.432-0.526
			c-0.719-1.016-0.351-2.304-0.005-3.387c-1.168,1.071-1.845,2.939-1.047,4.409c0.653,0.75,1.705,0.943,2.552,1.422
			c-0.145,0.023-0.423,0.071-0.568,0.096c-0.925,0.006-1.917,0.431-2.146,1.325c-0.14,0.544-0.157,1.186,0.126,1.668
			c0.339,0.601,1.143,0.757,1.772,1.04c-0.283-0.67-0.925-1.414-0.604-2.091c0.078-0.176,0.375-0.466,0.556-0.516
			c0.213-0.064,0.666,0.098,0.883,0.128c0.092,0.018,0.248,0.048,0.334,0.055c0.32,0.253,0.635,0.514,0.937,0.799
			c0.623,0.604,2.788,2.279,3.901,2.188c0.339-0.03,0.678-0.115,1.004-0.199c0.466-0.108,0.955-0.229,1.354-0.521
			c0.896-0.647,1.295-1.494,1.295-1.494S60.807,57.784,60.384,57.953z"/>
		<radialGradient id="SVGID_23_" cx="50.3906" cy="35.189" r="37.9118" gradientUnits="userSpaceOnUse">
			<stop  offset="0.0303" style="stop-color:#F28AB8"/>
			<stop  offset="0.2667" style="stop-color:#ED4F9B"/>
			<stop  offset="0.5515" style="stop-color:#EB008B"/>
			<stop  offset="1" style="stop-color:#7C003A"/>
		</radialGradient>
		<path fill="url(#SVGID_23_)" d="M55.249,63.348c-0.218-0.738-0.411-1.513-0.931-2.1c-0.89-1.391-2.891-2.116-4.234-0.905
			c-0.048,0.041-0.157,0.139-0.206,0.187c-0.363-0.267-0.689-0.594-1.106-0.773c-0.636-0.284-1.374-0.062-1.996,0.24
			c-0.889,0.503-1.639,1.302-1.905,2.269c-0.158,0.593-0.164,0.769-0.46,1.076c-0.919-0.827-3.133-2.358-3.133-2.358l8.576,9.404
			c0,0,2.994-2.891,4.379-4.439c1.451-1.62,4.233-4.97,4.233-4.97S55.516,63.159,55.249,63.348z M53.646,63.432
			c-0.271,2.34-2.534,3.623-3.792,5.425c-0.907-1.202-2.056-2.207-2.963-3.398c-0.635-0.817-1.083-1.911-0.726-2.891
			c0.121-0.345,0.229-0.75,0.533-0.968c0.405-0.302,1.003-0.314,1.511-0.17c1.137,0.309,1.627,2.093,0.611,2.806
			c-0.804,0.146-0.949-0.797-1.342-1.287c-0.145,0.878-0.267,2.009,0.604,2.559c0.562,0.41,1.21-0.006,1.784-0.171
			c0.568,0.152,1.209,0.601,1.766,0.176c0.883-0.544,0.762-1.686,0.611-2.563c-0.273,0.436-0.382,1.058-0.842,1.294
			c-1.433,0.745-1.197-2.594,0.134-2.818C52.739,61.038,53.846,62.247,53.646,63.432z"/>
		<radialGradient id="SVGID_24_" cx="50.3921" cy="35.1855" r="37.9122" gradientUnits="userSpaceOnUse">
			<stop  offset="0.0303" style="stop-color:#F28AB8"/>
			<stop  offset="0.2667" style="stop-color:#ED4F9B"/>
			<stop  offset="0.5515" style="stop-color:#EB008B"/>
			<stop  offset="1" style="stop-color:#7C003A"/>
		</radialGradient>
		<path fill="url(#SVGID_24_)" d="M43.861,58.848c0.302-0.217,0.568-0.466,0.853-0.708c0.84-0.67,1.742-1.904,2.945-1.506
			c1.004,0.563,0.115,1.725-0.2,2.456c0.327-0.127,0.653-0.248,0.986-0.394c0.133-0.091,0.43-0.247,0.557-0.355
			c0.731-0.66,0.695-1.937,0.054-2.613c-0.194-0.212-0.979-0.617-1.082-0.641c-0.381-0.11-0.793-0.02-1.18-0.02
			c0.75-0.622,1.899-0.719,2.468-1.517c0.967-1.373,0.115-3.357-1.07-4.421c0.368,1.077,0.708,2.333,0.018,3.379
			c-0.369,0.563-1.076,0.696-1.657,0.661c-0.206-0.014-0.466-0.146-0.75-0.345c-0.084,1.148-0.145,2.388-0.834,3.313
			c-0.333,0.448-0.762,0.829-1.198,1.181c-1.487,1.172-3.756,1.239-5.383,0.175c-0.072,0.092-0.229,0.278-0.305,0.369
			c0,0,0.042,0.169,0.076,0.217c0.182,0.297,0.496,0.484,0.78,0.69C40.384,59.792,42.428,59.857,43.861,58.848z"/>
		<radialGradient id="SVGID_25_" cx="50.3804" cy="35.1587" r="37.9543" gradientUnits="userSpaceOnUse">
			<stop  offset="0.0303" style="stop-color:#F28AB8"/>
			<stop  offset="0.2667" style="stop-color:#ED4F9B"/>
			<stop  offset="0.5515" style="stop-color:#EB008B"/>
			<stop  offset="1" style="stop-color:#7C003A"/>
		</radialGradient>
		<path fill="url(#SVGID_25_)" d="M44.188,61.527c0.659-1.36,1.796-2.377,2.679-3.574c-0.569,0.284-1.125,0.604-1.627,1.003
			c-0.756,0.745-1.669,1.234-2.679,1.519C43.117,60.807,43.655,61.157,44.188,61.527z"/>
		<radialGradient id="SVGID_26_" cx="50.396" cy="35.1733" r="37.9265" gradientUnits="userSpaceOnUse">
			<stop  offset="0.0303" style="stop-color:#F28AB8"/>
			<stop  offset="0.2667" style="stop-color:#ED4F9B"/>
			<stop  offset="0.5515" style="stop-color:#EB008B"/>
			<stop  offset="1" style="stop-color:#7C003A"/>
		</radialGradient>
		<path fill="url(#SVGID_26_)" d="M55.516,61.527c0.574-0.388,1.173-0.756,1.741-1.161c-0.423-0.098-0.858-0.169-1.288-0.225
			c-0.744-0.581-1.433-1.246-2.256-1.712c-0.284-0.156-0.574-0.314-0.864-0.459c0.768,0.95,1.699,1.771,2.304,2.849
			C55.237,60.995,55.419,61.346,55.516,61.527z"/>
	</g>
</g>
</svg>
