<?xml version="1.0" encoding="utf-8"?>
<!-- Generator: Adobe Illustrator 18.1.0, SVG Export Plug-In . SVG Version: 6.00 Build 0)  -->
<svg version="1.1" id="Layer_1" xmlns="http://www.w3.org/2000/svg" xmlns:xlink="http://www.w3.org/1999/xlink" x="0px" y="0px"
	 viewBox="0 0 150 150" enable-background="new 0 0 150 150" xml:space="preserve">
<g>
	<g>
		<path fill="#7B6648" d="M142.1,57.5l-2,2l-2-2l-3.2-3.2l-7.2-7.2v0l-2-2l2-2l-2.8-2.8L110.1,55v12.4l-0.4,0.4l-5.2,5.2v2.6
			L80.7,99.5L69,111.2l0.2,0.2l-2-2l11.7-11.7l-7.6-7.6l-12.5,12.5c-7.5,7.5-8.3,18.9-1.8,25.5c6.5,6.5,17.9,5.7,25.5-1.8L95,113.8
			l-9.4-9.4l23.8-23.8h2.6l5.6-5.6h12.4l14.7-14.7L142.1,57.5z M126.5,69.3h-5.4H118l-2-2v0l-0.3-0.3v-2.7v-5.8l7.6-7.6l1,1l1.4,1.4
			v0l7.6,7.6l0.9,0.8L126.5,69.3z"/>
	</g>
	<g>
		<path fill="#487157" d="M42.7,122.3h-4.1v-8.2c0,0-5.9-26.4-31-23.7c3.2-6.8,25.1-7.7,32.8,9.1V83.6h3.2v12.8
			c0,0,13.5-26.8,44.6-17.3C88.3,79.1,43.6,83.6,42.7,122.3z"/>
		<path fill="#4CA950" d="M49.4,61.8c-5.1,5.1-7.7,11.7-7.9,18.4c6.7-0.2,13.3-2.8,18.4-7.9c5.1-5.1,7.7-11.7,7.9-18.4
			C61.2,54.1,54.5,56.7,49.4,61.8z"/>
		<path fill="#4CA950" d="M48.7,44c-3.3,3.3-5,7.7-5.1,12c4.4-0.1,8.7-1.8,12-5.1c3.3-3.3,5-7.7,5.1-12C56.4,39,52.1,40.7,48.7,44z"
			/>
		<path fill="#4CA950" d="M35.3,49.3c5.1,5.1,7.7,11.7,7.9,18.4c-6.7-0.2-13.3-2.8-18.4-7.9c-5.1-5.1-7.7-11.7-7.8-18.4
			C23.5,41.6,30.2,44.2,35.3,49.3z"/>
		<path fill="#4CA950" d="M47,30.9c0,5.2-2.1,10-5.4,13.5c-3.3-3.5-5.4-8.2-5.4-13.5c0-5.2,2.1-10,5.4-13.5C45,21,47,25.7,47,30.9z"
			/>
	</g>
</g>
</svg>
