<?xml version="1.0" encoding="utf-8"?>
<!-- Generator: Adobe Illustrator 18.1.0, SVG Export Plug-In . SVG Version: 6.00 Build 0)  -->
<svg version="1.1" id="Layer_1" xmlns="http://www.w3.org/2000/svg" xmlns:xlink="http://www.w3.org/1999/xlink" x="0px" y="0px"
	 viewBox="0 0 150 150" enable-background="new 0 0 150 150" xml:space="preserve">
<g>
	<path fill="#80C242" d="M13.7,49.4c-18.8,72.7,22.4,58.9,35.1,87.2c8.4-22.3-11.1-38.2-23.3-53c41.4,22.9,35.4,42.1,32.1,55
		C96.3,80.1,22.3,86.6,13.7,49.4z"/>
	<path fill="#80C242" d="M131.8,49.4c18.8,72.7-22.4,58.9-35.1,87.2c-8.4-22.3,11.1-38.2,23.3-53c-41.4,22.9-35.5,42.1-32.1,55
		C49.2,80.1,123.2,86.6,131.8,49.4z"/>
	<path fill-rule="evenodd" clip-rule="evenodd" fill="#EC297B" d="M86.8,25.7c3.3-3.5,6.2-6.5,9.4-10c6.9,13.2,13.6,25.6,10.8,41
		C104.7,69.6,91,81.1,76.1,73.5c-1-0.5-2.6-0.4-3.6,0.1c-15,7.3-29.2-1-30.9-17.7c-1.1-11.2,2.2-21.1,7.4-30.7
		c1.7-3.2,3.4-6.5,5.3-10.1c3.3,3.7,6.4,7.2,9.9,11.1c4.2-4.9,8.1-9.6,12.5-14.8C79.9,16,83.1,20.6,86.8,25.7z"/>
</g>
</svg>
