<?xml version="1.0" encoding="utf-8"?>
<!-- Generator: Adobe Illustrator 18.1.0, SVG Export Plug-In . SVG Version: 6.00 Build 0)  -->
<svg version="1.0" id="Layer_1" xmlns="http://www.w3.org/2000/svg" xmlns:xlink="http://www.w3.org/1999/xlink" x="0px" y="0px"
	 viewBox="0 0 150 150" enable-background="new 0 0 150 150" xml:space="preserve">
<g>
	<g>
		<path fill="#183E6D" d="M75,11.4c-35.8,0-64.8,29-64.8,64.8c0,5.9,1,11.6,2.5,17l17.7-6.6c-0.8-3.4-1.3-6.8-1.3-10.4
			c0-25.4,20.5-45.9,45.9-46c25.4,0,45.9,20.6,45.9,46c0,25.3-20.5,45.9-45.9,45.9c-4.7,0-9.1-0.9-13.4-2.2l-7.9,17.3
			c6.7,2.3,13.8,3.9,21.3,3.9c35.8,0,64.8-29,64.8-64.8C139.8,40.4,110.8,11.4,75,11.4z"/>
		<path fill="#1C76BC" d="M107.9,77c0-18.2-14.8-32.9-32.9-32.9c-18.2,0-32.8,14.7-32.8,32.9c0,1.7,0.2,3.4,0.5,5.1l9.2-3.5
			c0-0.6-0.3-1-0.3-1.6C51.6,64,62.1,53.5,75,53.5C88,53.5,98.4,64,98.4,77c0,13-10.5,23.4-23.4,23.4c-1.4,0-2.7-0.6-4.1-0.8
			l-4.2,9.1c2.7,0.7,5.4,1.2,8.2,1.2C93.1,109.8,107.9,95.1,107.9,77z"/>
		<path fill="#ED2924" d="M77.4,74.1L14.3,97.7c0,0,5.8,25,34.7,38.5L77.4,74.1z"/>
	</g>
	<path fill="#183E6D" d="M87.8,76c0-6.5-5.3-11.8-11.8-11.8c-6.5,0-11.8,5.3-11.8,11.8c0,0.6,0.1,1.2,0.2,1.8l3.3-1.3
		c0-0.2-0.1-0.4-0.1-0.6c0-4.7,3.8-8.4,8.4-8.5c4.6,0,8.4,3.8,8.4,8.5c0,4.6-3.8,8.4-8.4,8.4c-0.5,0-1-0.2-1.5-0.3L73,87.4
		c0.9,0.2,1.9,0.4,3,0.4C82.5,87.8,87.8,82.5,87.8,76z"/>
</g>
</svg>
