<?xml version="1.0" encoding="utf-8"?>
<!-- Generator: Adobe Illustrator 18.1.0, SVG Export Plug-In . SVG Version: 6.00 Build 0)  -->
<svg version="1.0" id="Layer_1" xmlns="http://www.w3.org/2000/svg" xmlns:xlink="http://www.w3.org/1999/xlink" x="0px" y="0px"
	 viewBox="0 0 150 150" enable-background="new 0 0 150 150" xml:space="preserve">
<g>
	<path fill="#785C8B" d="M141.2,89.1l-3.4-49.6c-0.5-4.6-2.4-9-5.3-12.9c-90.5,53.5-64.1,81.6-40,93.7l18.2-1.5
		C128.6,117.4,142.2,104.1,141.2,89.1z"/>
	<path fill="#0090D3" d="M33,63c0.2-22.4,11.4-37.4,21.9-46.7c0,0-11.8,17.9-9.1,29.5c1.8,7.8,10.8,10.2,21.7,6
		C101.8,38.5,125.2,28.5,132,26c-6.4-8.2-17.2-14.2-29.2-15.1L43.2,6.6c-18.4-1.3-32,12-30.5,29.8l5.8,62.8
		c3.7,14.5,17.2,24.9,32.6,24.4L45.9,144l32.8-22.5l1.5-0.1C56.9,112,32.6,92.7,33,63z M71.8,29c3.7,4.1,2.6,11.1-2.5,15.8
		c-5.1,4.6-12.2,5.1-15.9,1S50.8,34.7,55.9,30C61,25.4,68.1,24.9,71.8,29z"/>
</g>
</svg>
