<?xml version="1.0" encoding="utf-8"?>
<!-- Generator: Adobe Illustrator 18.1.0, SVG Export Plug-In . SVG Version: 6.00 Build 0)  -->
<svg version="1.1" id="Layer_1" xmlns="http://www.w3.org/2000/svg" xmlns:xlink="http://www.w3.org/1999/xlink" x="0px" y="0px"
	 viewBox="0 0 150 150" enable-background="new 0 0 150 150" xml:space="preserve">
<g>
	<g>
		<g>
			<path fill="#00A8DE" d="M100.2,20.4c0,7.2-2.9,13.6-7.6,18.3c-4.7,4.7-11.1,7.6-18.3,7.6c-7.2,0-13.6-2.9-18.3-7.6
				c-4.7-4.7-7.6-11.1-7.6-18.3c0-2.4-1.9-4.3-4.3-4.3c-2.4,0-4.3,1.9-4.3,4.3c0,9.5,3.9,18.2,10.1,24.4
				c6.2,6.2,14.9,10.1,24.4,10.1c9.5,0,18.2-3.9,24.4-10.1c6.2-6.2,10.1-14.9,10.1-24.4c0-2.4-1.9-4.3-4.3-4.3
				C102.2,16,100.2,18,100.2,20.4"/>
		</g>
		<circle fill="#00A8DE" cx="74.7" cy="33.1" r="6.9"/>
	</g>
	<g>
		<g>
			<path fill="#FFAF3A" d="M28.7,45.7c5.3,1.7,9.4,5.4,11.7,10c2.3,4.6,2.9,10.1,1.2,15.4c-1.7,5.3-5.4,9.4-10,11.7
				c-4.6,2.3-10.1,2.9-15.4,1.2c-1.8-0.6-3.7,0.4-4.3,2.2c-0.6,1.8,0.4,3.7,2.2,4.3c7.1,2.3,14.4,1.5,20.6-1.6
				c6.1-3.1,11.1-8.6,13.4-15.7c2.3-7.1,1.5-14.4-1.6-20.6c-3.1-6.1-8.6-11.1-15.7-13.4c-1.8-0.6-3.7,0.4-4.3,2.2
				C26,43.2,27,45.1,28.7,45.7"/>
		</g>
		<circle fill="#FFAF3A" cx="32" cy="67.7" r="5.4"/>
	</g>
	<g>
		<g>
			<path fill="#97A822" d="M33.7,106.5c3.7-5.1,9.1-8.2,14.8-9.1c5.8-0.9,11.8,0.4,16.9,4.1c5.1,3.7,8.2,9.1,9.1,14.8
				c0.9,5.8-0.4,11.8-4.1,16.9c-1.2,1.7-0.9,4.1,0.8,5.3c1.7,1.2,4.1,0.9,5.3-0.8c4.9-6.8,6.6-14.9,5.4-22.6
				c-1.2-7.7-5.4-14.9-12.1-19.8c-6.8-4.9-14.9-6.6-22.6-5.4c-7.7,1.2-14.9,5.4-19.8,12.1c-1.2,1.7-0.9,4.1,0.8,5.3
				C30.1,108.6,32.4,108.2,33.7,106.5"/>
		</g>
		<circle fill="#97A822" cx="58.4" cy="110.7" r="6.1"/>
	</g>
	<g>
		<g>
			<path fill="#B86645" d="M94.6,117.7c-2.7-3.7-3.6-8.1-2.9-12.3c0.7-4.2,2.9-8.1,6.6-10.8c3.7-2.7,8.1-3.6,12.3-2.9
				c4.2,0.7,8.1,2.9,10.8,6.6c0.9,1.2,2.6,1.5,3.9,0.6c1.2-0.9,1.5-2.6,0.6-3.9c-3.6-4.9-8.8-7.9-14.4-8.8
				c-5.6-0.9-11.5,0.4-16.4,3.9c-4.9,3.6-7.9,8.8-8.8,14.4c-0.9,5.6,0.4,11.5,3.9,16.4c0.9,1.2,2.6,1.5,3.9,0.6
				C95.2,120.7,95.5,119,94.6,117.7"/>
		</g>
		<circle fill="#B86645" cx="103" cy="101.6" r="4.4"/>
	</g>
	<g>
		<g>
			<path fill="#20AD8A" d="M133.8,77.2c-5.1,1.7-10.3,1.1-14.8-1.2c-4.4-2.3-8-6.2-9.6-11.3c-1.7-5.1-1.1-10.3,1.2-14.8
				c2.3-4.4,6.2-8,11.3-9.6c1.7-0.6,2.6-2.4,2.1-4.1c-0.6-1.7-2.4-2.6-4.1-2.1c-6.8,2.2-12.1,7-15,12.9c-3,5.9-3.8,12.9-1.6,19.7
				c2.2,6.8,7,12.1,12.9,15c5.9,3,12.9,3.8,19.7,1.6c1.7-0.6,2.6-2.4,2.1-4.1C137.3,77.6,135.5,76.7,133.8,77.2"/>
		</g>
		<circle fill="#20AD8A" cx="118.8" cy="62" r="5.2"/>
	</g>
</g>
</svg>
