<?xml version="1.0" encoding="utf-8"?>
<!-- Generator: Adobe Illustrator 14.0.0, SVG Export Plug-In . SVG Version: 6.00 Build 43363)  -->
<!DOCTYPE svg PUBLIC "-//W3C//DTD SVG 1.1//EN" "http://www.w3.org/Graphics/SVG/1.1/DTD/svg11.dtd">
<svg version="1.1" id="Layer_1" xmlns="http://www.w3.org/2000/svg" xmlns:xlink="http://www.w3.org/1999/xlink" x="0px" y="0px"
	 width="150px" height="150px" viewBox="0 0 150 150" enable-background="new 0 0 150 150" xml:space="preserve">
<g>
	<path fill="none" d="M75.371,18.547c-32.415,0-58.785,26.37-58.785,58.787s26.37,58.787,58.785,58.787
		c32.423,0,58.792-26.37,58.792-58.787S107.794,18.547,75.371,18.547z M75.371,134.127c-31.313,0-56.791-25.471-56.791-56.793
		c0-31.312,25.478-56.788,56.791-56.788c31.315,0,56.794,25.476,56.794,56.788C132.165,108.656,106.687,134.127,75.371,134.127z"/>
	<path fill="#E7727F" d="M75.371,20.546c-31.313,0-56.791,25.476-56.791,56.788c0,31.322,25.478,56.793,56.791,56.793
		c31.315,0,56.794-25.471,56.794-56.793C132.165,46.021,106.687,20.546,75.371,20.546z M75.369,125.453
		c-26.571,0-48.11-21.549-48.11-48.119s21.539-48.113,48.11-48.113c26.575,0,48.118,21.543,48.118,48.113
		S101.944,125.453,75.369,125.453z"/>
	<path fill="#731015" d="M137.663,57.098c-2.243-6.915-0.172-16.099-4.361-21.852c-4.218-5.814-13.625-6.662-19.438-10.889
		c-5.758-4.19-9.442-12.896-16.357-15.139c-6.67-2.167-14.738,2.636-22.135,2.636c-7.392,0-15.464-4.803-22.133-2.636
		C46.326,11.46,42.64,20.167,36.882,24.356c-5.814,4.227-15.214,5.075-19.446,10.889c-4.186,5.753-2.111,14.933-4.358,21.852
		c-2.167,6.666-9.309,12.841-9.309,20.236c0,7.397,7.141,13.566,9.309,20.242c2.247,6.919,0.173,16.099,4.358,21.852
		c4.232,5.819,13.632,6.657,19.446,10.884c5.758,4.195,9.444,12.903,16.352,15.146c6.673,2.167,14.746-2.636,22.137-2.636
		c7.396,0,15.465,4.803,22.135,2.636c6.915-2.242,10.6-10.95,16.357-15.14c5.813-4.232,15.221-5.07,19.438-10.89
		c4.189-5.753,2.118-14.933,4.361-21.852c2.171-6.676,9.315-12.845,9.315-20.242C146.979,69.938,139.834,63.764,137.663,57.098z
		 M75.371,136.121c-32.415,0-58.785-26.37-58.785-58.787s26.37-58.787,58.785-58.787c32.423,0,58.792,26.37,58.792,58.787
		S107.794,136.121,75.371,136.121z"/>
	<path fill="#F4ECD6" d="M75.369,29.221c-26.571,0-48.11,21.543-48.11,48.113s21.539,48.119,48.11,48.119
		c26.575,0,48.118-21.549,48.118-48.119S101.944,29.221,75.369,29.221z M92.751,107.425H56.922l-3.53-19.028
		c1.142,0.284,2.327,0.449,3.553,0.449c3.553,0,6.975-1.301,9.634-3.633c3.361,1.839,7.144,2.805,11.064,2.805
		c2.561,0,5.059-0.413,7.46-1.223c2.42,2.045,5.443,3.155,8.656,3.155c0.767,0,1.524-0.085,2.262-0.206L92.751,107.425z
		 M97.638,87.048c-0.194,0.075-0.391,0.15-0.593,0.21c-0.196,0.062-0.394,0.104-0.589,0.15c-0.869,0.216-1.771,0.341-2.699,0.341
		c-3.209,0-6.092-1.348-8.15-3.49c-2.435,0.991-5.123,1.563-7.962,1.563c-4.256,0-8.179-1.256-11.395-3.367
		c-2.282,2.566-5.604,4.19-9.304,4.19c-1.404,0-2.741-0.238-3.998-0.664c-0.201-0.071-0.402-0.146-0.599-0.221
		c-0.207-0.085-0.407-0.173-0.609-0.263c-4.276-1.976-7.254-6.291-7.254-11.304c0-6.878,5.576-12.458,12.459-12.458
		c0.705,0,1.404,0.074,2.081,0.187c2.371-6.451,8.597-11.24,16.152-12.115c1.325-2.462,4.147-3.347,7.346-2.79
		c2.387-6.034,7.817-10.57,14.505-11.713c0.355-0.046,0.686,0.268,0.73,0.693c0.042,0.426-0.192,0.8-0.52,0.843
		c-6.168,0.65-11.662,4.494-14.404,10.242c3.367,0.674,5.879,2.659,5.922,5.782c4.57,2.907,7.777,7.504,8.421,12.85
		c4.56,1.452,7.862,5.711,7.862,10.749C105.041,81.333,101.958,85.46,97.638,87.048z"/>
	<path fill="#F4ECD6" d="M85.387,92.211c-0.6-0.079-1.166,0.334-1.248,0.932l-1.381,9.542c-0.089,0.598,0.333,1.154,0.932,1.244
		c0.052,0.004,0.106,0.01,0.162,0.01c0.533,0,1.001-0.394,1.084-0.947l1.381-9.534C86.403,92.852,85.986,92.301,85.387,92.211z"/>
	<path fill="#F4ECD6" d="M66.072,92.211c-0.599,0.09-1.016,0.646-0.929,1.246l1.381,9.534c0.078,0.554,0.546,0.947,1.083,0.947
		c0.057,0,0.105-0.006,0.157-0.01c0.604-0.09,1.023-0.65,0.937-1.244l-1.376-9.542C67.233,92.545,66.671,92.132,66.072,92.211z"/>
	<path fill="#F4ECD6" d="M75.728,92.15c-0.604,0-1.099,0.491-1.099,1.101v9.638c0,0.609,0.495,1.101,1.099,1.101
		c0.608,0,1.103-0.491,1.103-1.101v-9.638C76.83,92.642,76.336,92.15,75.728,92.15z"/>
	<path fill="#731015" d="M85.104,86.795c-2.401,0.81-4.899,1.223-7.46,1.223c-3.921,0-7.704-0.966-11.064-2.805
		c-2.659,2.332-6.082,3.633-9.634,3.633c-1.227,0-2.411-0.165-3.553-0.449l3.53,19.028h35.829l3.271-17.681
		c-0.737,0.121-1.495,0.206-2.262,0.206C90.548,89.95,87.524,88.84,85.104,86.795z M67.764,103.929
		c-0.052,0.004-0.101,0.01-0.157,0.01c-0.538,0-1.006-0.394-1.083-0.947l-1.381-9.534c-0.086-0.6,0.33-1.156,0.929-1.246
		c0.6-0.079,1.161,0.334,1.252,0.932l1.376,9.542C68.787,103.278,68.368,103.839,67.764,103.929z M76.83,102.889
		c0,0.609-0.494,1.101-1.103,1.101c-0.604,0-1.099-0.491-1.099-1.101v-9.638c0-0.609,0.495-1.101,1.099-1.101
		c0.608,0,1.103,0.491,1.103,1.101V102.889z M84.936,102.991c-0.083,0.554-0.551,0.947-1.084,0.947c-0.056,0-0.11-0.006-0.162-0.01
		c-0.599-0.09-1.021-0.646-0.932-1.244l1.381-9.542c0.082-0.598,0.648-1.011,1.248-0.932c0.6,0.09,1.017,0.641,0.93,1.246
		L84.936,102.991z"/>
	<path fill="#731015" d="M97.179,65.715c-0.644-5.346-3.851-9.943-8.421-12.85c0.007,0.398-0.017,0.814-0.097,1.25
		c-0.716,3.918-4.468,6.516-8.389,5.805c-3.918-0.716-6.521-4.465-5.807-8.389c0.124-0.688,0.428-1.193,0.713-1.723
		c-7.555,0.875-13.781,5.665-16.152,12.115c-0.677-0.113-1.376-0.187-2.081-0.187c-6.884,0-12.459,5.58-12.459,12.458
		c0,5.013,2.978,9.328,7.254,11.304c0.202,0.09,0.402,0.178,0.609,0.263c0.196,0.074,0.398,0.149,0.599,0.221
		c1.257,0.426,2.594,0.664,3.998,0.664c3.701,0,7.022-1.624,9.304-4.19c3.216,2.111,7.139,3.367,11.395,3.367
		c2.839,0,5.527-0.572,7.962-1.563c2.059,2.143,4.941,3.49,8.15,3.49c0.929,0,1.83-0.125,2.699-0.341
		c0.195-0.047,0.393-0.088,0.589-0.15c0.202-0.06,0.398-0.135,0.593-0.21c4.32-1.588,7.403-5.715,7.403-10.584
		C105.041,71.427,101.738,67.167,97.179,65.715z"/>
	<path fill="#E7727F" d="M80.272,59.92c3.921,0.711,7.673-1.887,8.389-5.805c0.08-0.435,0.104-0.852,0.097-1.25
		c-0.043-3.123-2.555-5.107-5.922-5.782c2.742-5.749,8.236-9.592,14.404-10.242c0.327-0.042,0.562-0.417,0.52-0.843
		c-0.045-0.426-0.375-0.74-0.73-0.693c-6.688,1.143-12.118,5.679-14.505,11.713c-3.198-0.557-6.021,0.328-7.346,2.79
		c-0.285,0.529-0.589,1.034-0.713,1.723C73.751,55.455,76.354,59.204,80.272,59.92z"/>
</g>
</svg>
