<?xml version="1.0" encoding="iso-8859-1"?>
<!-- Generator: Adobe Illustrator 13.0.0, SVG Export Plug-In . SVG Version: 6.00 Build 14948)  -->
<!DOCTYPE svg PUBLIC "-//W3C//DTD SVG 1.1//EN" "http://www.w3.org/Graphics/SVG/1.1/DTD/svg11.dtd">
<svg version="1.1" id="Layer_1" xmlns="http://www.w3.org/2000/svg" xmlns:xlink="http://www.w3.org/1999/xlink" x="0px" y="0px"
	 width="100px" height="100px" viewBox="0 0 100 100" enable-background="new 0 0 100 100" xml:space="preserve">
<g>
	<g>
		<path fill-rule="evenodd" clip-rule="evenodd" fill="#FFFFFF" d="M20.76,18.856C6.43,31.918,8.5,85.942,27.542,93.448
			c12.84,5.064,32.673-5.095,40.202-9.201c9.629-5.255,23.77-13.795,24.22-27.608c0.351-10.75-9.293-20.486-16.952-26.16
			C63.562,22.001,48.786,13.123,32.87,14.494C27.811,14.933,23.487,16.368,20.76,18.856z"/>
		<path fill-rule="evenodd" clip-rule="evenodd" fill="#D04F37" d="M32.87,14.494c15.916-1.372,30.692,7.507,42.142,15.984
			c7.659,5.674,17.303,15.41,16.952,26.16c-0.45,13.813-14.591,22.354-24.22,27.608c-7.529,4.106-27.362,14.266-40.202,9.201
			C8.5,85.942,6.43,31.918,20.76,18.856C23.487,16.368,27.811,14.933,32.87,14.494z M32.388,20.308
			c-23.318,1.833-16.067,64.016-1.94,68.299c5.369,1.627,14.684-0.961,18.893-2.423c5.962-2.069,10.74-5.007,15.016-7.265
			c7.915-4.179,21.86-11.23,21.798-23.253c-0.055-10.208-12.7-19.486-19.861-24.216c-8.859-5.852-22.766-12.233-32.937-11.142
			C33.035,20.344,32.705,20.283,32.388,20.308z"/>
		<path fill-rule="evenodd" clip-rule="evenodd" fill="#FFFFFF" d="M33.355,20.308c10.171-1.091,24.077,5.29,32.937,11.142
			c7.161,4.73,19.807,14.008,19.861,24.216c0.062,12.022-13.883,19.074-21.798,23.253c-4.275,2.258-9.054,5.195-15.016,7.265
			c-4.209,1.462-13.523,4.05-18.893,2.423c-14.126-4.283-21.377-66.466,1.94-68.299C32.705,20.283,33.035,20.344,33.355,20.308z
			 M60.964,74.559c6.22-3.301,19.493-10.603,19.376-18.893c-0.037-2.58-3.122-7.242-4.846-9.201
			c-7.229-8.233-24.986-19.084-37.296-20.343c-11.976-1.226-13.831,7.636-14.533,17.438c-0.96,13.43,1.355,33.874,8.236,38.75
			C43.31,83.105,51.995,79.316,60.964,74.559z"/>
	</g>
	<g>
		<path fill="#A49897" d="M61.735,41.099L43.433,65.352h31.479c3.155-2.908,5.477-6.206,5.428-9.686
			c-0.037-2.58-3.122-7.242-4.846-9.201c-7.229-8.233-24.986-19.084-37.296-20.343c-10.437-1.07-13.186,5.525-14.185,13.723h37.722
			V41.099z"/>
		<path fill="#D04F37" d="M33.677,68.797l18.124-23.939H23.594c-0.729,13.413,1.641,32.73,8.308,37.452
			c11.408,0.796,20.094-2.993,29.062-7.751c1.951-1.033,4.596-2.467,7.304-4.195H33.677V68.797z"/>
	</g>
</g>
</svg>
