<?xml version="1.0" encoding="utf-8"?>
<!-- Generator: Adobe Illustrator 18.1.0, SVG Export Plug-In . SVG Version: 6.00 Build 0)  -->
<svg version="1.0" id="Layer_1" xmlns="http://www.w3.org/2000/svg" xmlns:xlink="http://www.w3.org/1999/xlink" x="0px" y="0px"
	 viewBox="0 0 150 150" enable-background="new 0 0 150 150" xml:space="preserve">
<g>
	<path fill="#9E2922" d="M103.9,11.3h-60c-11,0-18.8,8.1-18.8,17.3v77.7c0,9.2,7.8,16.6,18.8,16.6h32.5l30.3,21v-20.9
		c9.3-0.7,16.3-7.9,16.3-16.6V28.6C123.1,19.4,114.9,11.3,103.9,11.3"/>
	<path fill="#6A1107" d="M105,41.2l-14.6,2.9c-1.1-3-2.4-5.3-3.8-6.9c-2.3-2.5-5.5-4.1-9.7-4.6v24.3c9.2,1.4,16.4,4.2,21.7,8.5
		c6.3,5.1,9.4,12,9.4,20.8c0,8.8-3.3,15.8-9.9,21.2c-5.9,4.7-12.9,7.1-21.2,7.1v12.7H66.4v-12.7c-2.2,0-4.6-0.4-7.3-1.1
		c-5.7-1.4-10.7-3.7-14.8-7.1c-5.7-4.6-9.6-10.9-11.4-18.9l15-3.3c1.4,4.6,3.6,8.5,6.9,11.6c3.2,3.1,7.1,4.6,11.6,4.6v-27
		c-1.1-0.4-3.1-0.9-5.9-1.5c-2.8-0.6-5.5-1.5-7.8-2.7c-5.7-2.8-9.9-6.1-12.3-9.9c-2.5-3.8-3.7-8.5-3.7-14c0-8.1,3.1-14.7,9.2-19.8
		c5.7-4.7,12.5-7.1,20.6-7.1V10h10.5v8.9c1.4,0,3.3,0.3,5.6,1c4.4,1.2,8.3,3.2,11.8,6C99.1,29.7,102.7,34.8,105,41.2 M53.3,43.4
		c0,4,1.7,7,5.1,9c1.7,1,4.3,1.8,7.9,2.6V32c-3.7,0-6.9,1-9.3,3C54.6,36.9,53.3,39.8,53.3,43.4 M91.8,86.9c0-3.7-1.9-6.7-5.7-9.2
		c-1.6-1-3.2-1.8-4.6-2.3c-1.5-0.5-3-0.7-4.5-0.7V101c4.6-0.8,8.2-2.3,10.9-4.6C90.5,94,91.8,90.9,91.8,86.9"/>
	<path fill="#F6E7B0" d="M109.8,38.5l-14.6,2.9c-1.1-3-2.4-5.3-3.8-6.9c-2.3-2.5-5.5-4.1-9.7-4.6v24.3c9.2,1.4,16.4,4.2,21.7,8.5
		c6.3,5.1,9.4,12,9.4,20.8c0,8.8-3.3,15.8-9.9,21.2c-5.9,4.7-12.9,7.1-21.2,7.1v12.7H71.2v-12.7c-2.2,0-4.6-0.4-7.3-1.1
		c-5.7-1.4-10.7-3.7-14.8-7.1c-5.7-4.6-9.5-10.9-11.4-18.9l15-3.3c1.4,4.6,3.6,8.5,6.9,11.6c3.2,3.1,7.1,4.6,11.6,4.6v-27
		c-1.1-0.4-3.1-0.9-5.9-1.5c-2.8-0.6-5.5-1.5-7.8-2.7c-5.7-2.8-9.9-6.1-12.3-9.9c-2.5-3.8-3.7-8.5-3.7-14c0-8.1,3.1-14.7,9.2-19.8
		c5.7-4.7,12.5-7.1,20.6-7.1V7.3h10.5v8.9c1.4,0,3.3,0.3,5.6,1c4.4,1.2,8.3,3.2,11.8,6C103.9,27,107.5,32.1,109.8,38.5 M58.1,40.7
		c0,4,1.7,7,5.1,9c1.7,1,4.3,1.8,7.9,2.6v-23c-3.7,0-6.9,1-9.3,3C59.4,34.2,58.1,37,58.1,40.7 M96.6,84.1c0-3.7-1.9-6.7-5.7-9.2
		c-1.6-1-3.2-1.8-4.6-2.3c-1.5-0.5-3-0.7-4.6-0.7v26.3c4.6-0.8,8.2-2.3,10.9-4.6C95.3,91.3,96.6,88.1,96.6,84.1"/>
</g>
</svg>
