<?xml version="1.0" encoding="utf-8"?>
<!-- Generator: Adobe Illustrator 18.1.0, SVG Export Plug-In . SVG Version: 6.00 Build 0)  -->
<svg version="1.1" id="Layer_1" xmlns="http://www.w3.org/2000/svg" xmlns:xlink="http://www.w3.org/1999/xlink" x="0px" y="0px"
	 viewBox="0 0 150 150" enable-background="new 0 0 150 150" xml:space="preserve">
<g>
	<path fill="#96BCC5" d="M32.1,34.4l7.2-0.9c0.7-3.1,3.2-4.6,5.2-5.3c3.9-2.4,9.2-0.9,12.5,3.1l51.3-6.6c-9.3-6-20.4-9.5-32.3-9.5
		C58.7,15.1,43.1,22.5,32.1,34.4z M136,75c0-20.1-9.9-37.9-25.1-48.8l3.9,32.2c0.9-0.3,1.8-0.5,2.7-0.7c5.4-1,12.8-0.1,14.7,6
		c1,3.3,0,7.4-0.7,10.7c-0.5,2.3-1,4.7-1.7,7l0.2,4.2l0.6-0.1v1.2l3.8,0.9c0,0,0,0.4,0,1.1C135.5,84.4,136,79.8,136,75z"/>
	
		<rect x="77.5" y="56" transform="matrix(-0.2739 -0.9617 0.9617 -0.2739 51.0653 156.7325)" fill="#00A9DE" width="14.5" height="6.2"/>
	<path fill="#D27E3D" d="M87.5,114l-18.7,6.6l-2.5,13.4c3.2,0.5,6.5,0.8,9.9,0.8c-0.3,0-0.6,0-0.9,0v-14.4h32.4v-8.3h8
		c0.2-2.9,0.4-5.7,0.6-8.3L87.5,114z M106.4,117.4l-9.4-0.3c0-1.8,5.1-3.9,5.1-3.9h4.2V117.4z M25.8,42.5c-0.1,0.1-0.2,0.3-0.3,0.4
		c-0.3,0.5-0.7,1.1-1,1.6c-0.1,0.1-0.1,0.2-0.2,0.3c-0.7,1.2-1.4,2.4-2,3.7c0,0,0,0,0,0c-0.3,0.5-0.5,1-0.7,1.6
		c-0.1,0.3-0.2,0.5-0.4,0.8c-0.2,0.5-0.4,1-0.6,1.5c-0.1,0.3-0.2,0.6-0.4,0.9c-0.2,0.5-0.4,1.1-0.6,1.6c-0.2,0.7-0.5,1.3-0.7,2
		c-0.1,0.4-0.2,0.8-0.4,1.2c-0.1,0.5-0.3,0.9-0.4,1.4c-0.1,0.4-0.2,0.8-0.3,1.2c-0.1,0.5-0.2,1-0.4,1.6c-0.1,0.3-0.2,0.7-0.2,1
		c-0.2,0.8-0.3,1.7-0.5,2.5c0,0.2-0.1,0.4-0.1,0.7c-0.1,0.7-0.2,1.4-0.3,2.1c0,0.3-0.1,0.6-0.1,0.9c-0.1,0.6-0.1,1.3-0.1,1.9
		c0,0.3,0,0.6-0.1,0.9c0,0.9-0.1,1.8-0.1,2.8c0,16.9,7,32.2,18.4,43.1c-0.1-1.7,0-3.4,0.3-4.9c0.5-2.7,1.3-5.7,2-8.5L25.8,42.5
		C25.8,42.5,25.8,42.5,25.8,42.5z M72.3,70.2l6-1.7l-2.5-8.8l-6,1.7L72.3,70.2z M95.1,63.7l6-1.7l-5-17.6l-6,1.7L95.1,63.7z
		 M88.9,39.6l1.6,1.6l0.1-6.3L85,35.7l1.6,1.6L66.5,57.5L88.9,39.6z"/>
	<path fill="#7C5F47" d="M86.7,84.9l-0.8-2.1l-1.3-3.7l1.5-1.7l1.8,0.6l5.3-1.4l2.6-5.3h2.4l0.2-1l-2.9-0.8l-2.2-0.6l-5.9,1.8
		L83,74.8l-0.2-0.6l-4.1,2.6l-9.4,5.9l-4-9.1l0.2,2c-1.5-5.9-2.9-10.6-3.8-13c-0.4-1.1-0.7-1.7-0.8-1.9c-1.1-1.1-3.8-2.3-4.5-2.6
		c-0.1,0-0.2-0.1-0.2-0.1s0,0,0-0.1c-0.1-0.3-0.5-1.5-1-2.3c-0.3-0.5-1.8-0.9-3.3-1.3c-0.6-0.1-1.3-0.3-1.8-0.3l7.8,22.9L39.4,55.3
		L49.9,54c-0.8-0.1-1.3-0.2-1.3-0.2l0.5-1.7l0.5-1.8l2.6,0.8c7.9-6.1,4.9-18.2,4.9-18.2l2,1.6c-0.5-1.3-1.2-2.4-2-3.4
		c-3.3-3.9-8.6-5.5-12.5-3.1c-2,0.7-4.5,2.2-5.2,5.3c-0.1,0.5-0.2,1-0.2,1.6c0,6.7-2.2,11.9-5.1,8.1c0,0,0.2,0.5,0.6,1.3
		c1,1.9,3.3,5.3,7.6,5.5l-1.5,4.7c0,0-7.1,1.6-9.9,4.9c-2.8,3.2,9.5,32.8,9.5,32.8s-1.8,5.8-3.5,12.4c-0.7,2.8-1.4,5.8-2,8.5
		c-0.3,1.5-0.4,3.2-0.3,4.9l0,0c0,0,0,0,0,0c1.7,1.6,3.5,3.2,5.4,4.6c0.5,0.3,0.9,0.7,1.4,1l0.1,0.1c2.1,1.5,4.3,2.8,6.6,4.1
		c0.3,0.1,0.5,0.3,0.8,0.4c0.1,0,0.2,0.1,0.2,0.1c0.6,0.3,1.2,0.6,1.9,0.9c0,0,0.1,0,0.1,0.1c2,0.9,4,1.7,6,2.4
		c0.1,0,0.2,0.1,0.2,0.1c0.6,0.2,1.3,0.4,2,0.6c0.1,0,0.3,0.1,0.4,0.1c2.1,0.6,4.3,1.1,6.4,1.4c0,0,0,0,0.1,0l2.5-13.4l1.1-5.8
		l1.2-1.4c-0.1-6.3-0.9-13.2-2-19.9L86.7,84.9z M129.8,81.5c0.7-2.3,1.2-4.6,1.7-7c0.7-3.3,1.7-7.4,0.7-10.7c-1.9-6.2-9.3-7-14.7-6
		c-0.9,0.2-1.8,0.4-2.7,0.7c-1.8,0.6-3.6,1.5-5,2.7c-0.3,0.2-2.1,2.6-2.3,2.5c0,0,2.7,0.7,2.7,0.7l-2.7,4.9l1.6,2.2l-1.6,5.8h1.1
		l2.5,8l5.1-1.8l2,3.6l0.7,1.3l11.1-2.6L129.8,81.5z M130.6,86.7v0.7c-3.8-0.4-6.9,4.3-9,9.4c-0.6,1.5-1.2,3-1.7,4.4
		c-0.2,0.5-0.3,1-0.5,1.5c-1,3.2-1.5,5.7-1.5,5.7c-0.2-1.8-0.2-3.5-0.3-5.1c-0.1-2.5,0-4.7,0.1-6.7c0.2-3,0.5-5.3,0.8-6.7
		c0.2-1.1,0.3-1.7,0.3-1.7l-0.4,1l-1,2.4c0,0-0.3,2-0.6,5.1c-0.2,2-0.5,4.4-0.7,7.1c-0.2,2.6-0.4,5.4-0.6,8.3h-8v8.3H75.2v14.4
		c0.3,0,0.6,0,0.9,0c0.8,0,1.7,0,2.5-0.1c0.1,0,0.3,0,0.4,0c0.1,0,0.2,0,0.3,0c0.2,0,0.4,0,0.7,0c0.4,0,0.8,0,1.1-0.1
		c0.2,0,0.5,0,0.7-0.1c0,0,0,0,0,0c0,0,0,0,0,0c0.4,0,0.8-0.1,1.2-0.1c0.3,0,0.6-0.1,0.9-0.1c0.1,0,0.3,0,0.4,0c0.1,0,0.2,0,0.4-0.1
		c0.4-0.1,0.9-0.1,1.3-0.2c0.3,0,0.5-0.1,0.8-0.1c0.1,0,0.3-0.1,0.4-0.1c0.1,0,0.2,0,0.3-0.1c0.5-0.1,0.9-0.2,1.4-0.3
		c0.1,0,0.3-0.1,0.4-0.1c0.2,0,0.4-0.1,0.6-0.1c0.1,0,0.2-0.1,0.4-0.1c0.5-0.1,1-0.2,1.5-0.4c0.1,0,0.2,0,0.2-0.1
		c0.1,0,0.2-0.1,0.3-0.1c0.2-0.1,0.4-0.1,0.6-0.2c0.5-0.2,1-0.3,1.6-0.5c0.3-0.1,0.6-0.2,0.9-0.3c0.6-0.2,1.1-0.4,1.7-0.6
		c0,0,0,0,0,0c0.1,0,0.1-0.1,0.2-0.1c0.1,0,0.2-0.1,0.3-0.1c0.6-0.2,1.3-0.5,1.9-0.8c0.1,0,0.1,0,0.2-0.1c2.7-1.2,5.4-2.6,7.9-4.1v0
		c0.3-0.2,0.6-0.4,1-0.6c0.1,0,0.2-0.1,0.2-0.1c0,0,0.1,0,0.1-0.1c0,0,0.1-0.1,0.1-0.1c0.2-0.1,0.3-0.2,0.5-0.3
		c0.1,0,0.1-0.1,0.2-0.1c0.4-0.3,0.8-0.5,1.1-0.8c0,0,0.1,0,0.1-0.1c0,0,0.1-0.1,0.1-0.1c0,0,0,0,0,0c0,0,0,0,0,0
		c0.1,0,0.1-0.1,0.2-0.1c0.1,0,0.1-0.1,0.2-0.1c0,0,0.1-0.1,0.1-0.1c0.5-0.3,0.9-0.7,1.4-1c0,0,0.1,0,0.1-0.1
		c0.1-0.1,0.2-0.2,0.3-0.2c0,0,0,0,0.1,0c0.5-0.4,0.9-0.8,1.4-1.2c0,0,0.1-0.1,0.1-0.1c0,0,0.1-0.1,0.1-0.1c0,0,0,0,0,0c0,0,0,0,0,0
		c0,0,0,0,0,0h0c0.1-0.1,0.2-0.2,0.3-0.3v0c0,0,0,0,0,0c0.1-0.1,0.2-0.2,0.4-0.3c0.3-0.2,0.6-0.5,0.8-0.7c0,0,0,0,0,0
		c0.1-0.1,0.2-0.2,0.3-0.3c0.2-0.2,0.4-0.4,0.6-0.6c0.3-0.3,0.7-0.6,1-1c0.2-0.2,0.5-0.5,0.7-0.7c0.3-0.3,0.6-0.6,0.9-0.9
		c0.1-0.1,0.2-0.2,0.2-0.2c0,0,0,0,0.1-0.1c0.1-0.2,0.3-0.3,0.4-0.5c0.2-0.2,0.3-0.4,0.5-0.6l0,0l0,0c0.2-0.2,0.3-0.4,0.5-0.6
		c0,0,0.1-0.1,0.1-0.1c0.5-0.6,0.9-1.1,1.4-1.7c0,0,0,0,0,0c0,0,0,0,0,0c0,0,0,0,0,0c1.4-1.8,2.7-3.7,4-5.7c0,0,0,0,0,0
		c0.4-0.6,0.8-1.3,1.1-1.9c0-0.1,0.1-0.2,0.1-0.2c0.2-0.3,0.4-0.7,0.5-1c0.2-0.3,0.3-0.6,0.5-0.9c0,0,0,0,0,0
		c1.8-3.5,3.2-7.1,4.3-10.9c0,0,0,0,0,0c0.2-0.8,0.4-1.5,0.6-2.3c0,0,0,0,0,0c0,0,0,0,0,0c0-0.7,0-1.1,0-1.1L130.6,86.7z M97,117.1
		l9.4,0.3v-4.2h-4.2C102.1,113.1,97,115.2,97,117.1z"/>
</g>
</svg>
