<?xml version="1.0" encoding="utf-8"?>
<!-- Generator: Adobe Illustrator 18.1.0, SVG Export Plug-In . SVG Version: 6.00 Build 0)  -->
<svg version="1.1" id="Layer_1" xmlns="http://www.w3.org/2000/svg" xmlns:xlink="http://www.w3.org/1999/xlink" x="0px" y="0px"
	 viewBox="0 0 2000 2000" enable-background="new 0 0 2000 2000" xml:space="preserve">
<g>
	<path fill="none" d="M1185.1,1236.2c-4.6-33.5,25.5-62.3,48.9-62.4c4.5-33.8,19-70.6,52.8-86.5c28.5-12.4,57.1-16.8,85.8-17.1
		c-27-20.7-45.5-51.1-46.6-88.3c-31.4-12.7-41.2-53.2-29.6-73.5c-27.1-20.8-51.6-51.7-48.5-89c3.6-30.8,14-57.9,28.1-82.9
		c-31.4,13.1-67,13.9-99.8-3.8c-26.7,20.8-66.6,9.1-78.5-11.1c-31.5,13.1-70.6,18.9-101.3-2.4c-25-18.5-43.1-41-57.7-65.8
		c-4.4,33.8-21.5,65-53.1,84.6c4.7,33.5-25.5,62.2-48.8,62.4c-4.5,33.8-19,70.5-52.8,86.5c-28.5,12.3-57.1,16.8-85.8,17.1
		c27,20.7,45.6,51.1,46.7,88.3c31.3,12.7,41.1,53.1,29.6,73.5c27.1,20.8,51.6,51.7,48.5,89c-3.5,30.8-14,57.9-28.1,82.8
		c31.4-13,67-13.9,99.8,3.8c26.7-20.8,66.6-9.1,78.5,11.1c31.5-13.1,70.6-18.8,101.3,2.4c25,18.5,43.1,41,57.7,65.7
		C1136.4,1287,1153.5,1255.8,1185.1,1236.2z"/>
	<path fill="#200C0C" d="M531.7,441.6c1.6,13.8,20.4,29.9,39.9,25c30.5,39.4,91.3,31.4,122.3-5l-27.6-23.4
		c22.4-19,37.4-45.7,40.8-76.4c-24.8,1.5-49.8,0.7-74.3,7.7c-0.9-13.3,5.1-27.3,5.3-40.5c53.1-59.2,136.5-112.5,217-113.3
		c-0.5-0.4-1.1-0.8-1.6-1.2c59.2-3,122.5,13,173,37.6c5.1,12.3,16,23,20.2,35.6c-25.3,2.7-48.2,12.8-71.7,20.7
		c14.8,27.2,38.8,46.3,66.6,55.5l-16.7,32.1c42.4,22,101.8,6.5,115.2-41.5c19.9-2.8,28.5-21,27.6-38.2c18.5-8.1,37.2-22.4,40.7-44.2
		c3.4-26.4-2.5-50.2-11.7-73.2c-7.4,5.4-15.4,12.6-21.1,20c-21-35.2-54.4-53.7-85.9-72.5c-6.6,24.2,2.4,45.4,1.8,68.5
		c-19.9-7.4-42.2-12.3-62.8-16.8l-8.9,22.4c-61.8-15.3-133-34.9-197.8-29.4c-0.2-0.2-0.5-0.3-0.7-0.5c-1.1,0.3-2.1,0.7-3.2,1
		c-4.5,0.4-9,0.7-13.3,1.4c-0.6,1-1.3,2.1-2,3.1C741.4,215.5,683.5,260,632.5,297l-16.6-17.3c-17.4,11.9-36.2,24.8-51.9,39.1
		c-9.3-21.2-8.8-44.1-24.2-64.1c-22,29.3-46,59-52.1,99.6c-8.1-4.7-18.3-8.4-27.2-10.6c0.2,24.8,3.7,49.1,16.8,72.2
		C488.9,434.9,511.5,441.2,531.7,441.6z M1044.7,386.6c11.2-9.9,34.2-31.4,34.2-31.4l0.2-1c-1.5-4.2-23.9-0.1-29.3-1.2
		c-27.7,0.9-44.4-20.8-62-38.9c0,0,42.7-14.8,64-12.4c13.1,9.3,26.8,18,42.7,22.8c3.1,31.7,15,36.8,30.1,34.8
		C1107.7,387.8,1073.8,389.1,1044.7,386.6z M1110.1,175.6c9.8,2,19.7,10.5,29.4,16.6c17.9,16.3,21.2,41,18.4,65.3
		c11.1-3.6,26.8-31.6,33.2-29.2c6.3,9.9,6.3,21.9,7.8,33.2c0,19.8-14.7,34.8-30.9,41.7l-7.2-15.9
		C1129.1,258.7,1105,218.8,1110.1,175.6z M1047.2,216c28.4,6.7,56.7,17.2,73.2,42.5c20.9,32.2-16.5,67.7-47.7,40.4
		C1053.9,282.5,1035.5,240.4,1047.2,216z M633.6,384.4c18.8-10.3,64-12.6,64-12.6c-9.5,23.4-16.9,49.8-42.9,59.4
		c-4.6,3-26.8,7.7-26.7,12.1l0.6,1c0,0,29.4,11.2,43.5,16.2c-26,13.3-57.9,24.8-84.3,4.7c14.8-3.8,23.9-13,14.9-43.5
		C615.6,411.1,625,398,633.6,384.4z M553.7,370.3c5.7-29.7,28.1-50,51.7-67c20.1,18.1,18.8,64.1,7.6,86.5
		C594.6,426.8,546.5,408.1,553.7,370.3z M476.9,368.9c5-4.5,30.1,15.5,41.7,14.6c-11.7-21.4-17.9-45.6-7.5-67.5
		c6.6-9.2,12.6-20.9,20.9-26.4c21.1,38.2,13.7,84.1-4.9,122.6l-0.8,17.4c-17.5-0.3-36.9-8.6-44.3-26.9
		C479.3,391.5,474.8,380.5,476.9,368.9z"/>
	<path fill="#DDAE39" d="M1094.4,324.4c-15.9-4.8-29.6-13.5-42.7-22.8c-21.3-2.4-64,12.4-64,12.4c17.6,18.1,34.4,39.8,62,38.9
		c5.4,1.1,27.8-3,29.3,1.2l-0.2,1c0,0-23,21.5-34.2,31.4c29.1,2.6,63,1.2,79.9-27.4C1109.4,361.2,1097.6,356.1,1094.4,324.4z"/>
	<path fill="#DDAE39" d="M1160.8,287.3l7.2,15.9c16.2-6.9,30.9-21.9,30.9-41.7c-1.6-11.3-1.5-23.3-7.8-33.2
		c-6.4-2.3-22.1,25.7-33.2,29.2c2.8-24.3-0.6-49-18.4-65.3c-9.6-6-19.6-14.6-29.4-16.6C1105,218.8,1129.1,258.7,1160.8,287.3z"/>
	<path fill="#DDAE39" d="M1120.5,258.5c-16.5-25.3-44.9-35.8-73.2-42.5c-11.7,24.4,6.7,66.4,25.5,82.9
		C1104,326.3,1141.4,290.8,1120.5,258.5z"/>
	<path fill="#DDAE39" d="M602.7,421.6c9,30.6,0,39.7-14.9,43.5c26.4,20.1,58.3,8.6,84.3-4.7c-14-5-43.5-16.2-43.5-16.2l-0.6-1
		c-0.2-4.4,22-9.1,26.7-12.1c26-9.6,33.3-36,42.9-59.4c0,0-45.2,2.3-64,12.6C625,398,615.6,411.1,602.7,421.6z"/>
	<path fill="#DDAE39" d="M613.1,389.8c11.2-22.4,12.4-68.4-7.6-86.5c-23.7,17-46,37.3-51.7,67C546.5,408.1,594.6,426.8,613.1,389.8z
		"/>
	<path fill="#DDAE39" d="M526.4,429.6l0.8-17.4c18.6-38.4,26-84.4,4.9-122.6c-8.3,5.6-14.3,17.2-20.9,26.4
		c-10.4,21.8-4.2,46,7.5,67.5c-11.6,0.8-36.7-19.2-41.7-14.6c-2.2,11.6,2.3,22.7,5.2,33.8C489.5,421,508.9,429.3,526.4,429.6z"/>
	<path fill="#200C0C" d="M1242.4,339.2c-18.9,46.1,18.4,94.7,65.4,103.4l6.5-35.7c27.6,9.9,58.3,9.6,86.6-2.8
		c-13.7-20.8-25.6-42.8-43.9-60.5c11-7.4,26.2-9.2,37.7-15.7c77.8,16.4,165.6,62,206.6,131.3c0.1-0.7,0.2-1.4,0.3-2
		c32.2,49.8,49.9,112.6,53.9,168.6c-8,10.5-11.9,25.4-20.7,35.3c-15-20.5-35.2-35.3-53.9-51.7c-16.2,26.4-20.7,56.7-14.7,85.4
		l-36.2,1.5c2.1,47.7,45.2,91.4,93.5,79c12.4,15.8,32.4,14.2,46.9,4.8c16.2,12.1,38,21,58.7,13.1c24.6-10.2,42.2-27.3,57.6-46.8
		c-8.4-3.7-18.6-7-27.9-8.3c20-35.8,19.3-73.9,19.9-110.6c-24.3,6.4-38.1,24.8-58.4,35.8c-3.6-20.9-10.5-42.6-16.9-62.7l-23.8,3.4
		c-17.7-61.1-36.3-132.6-73.5-185.9c0-0.3,0-0.6,0.1-0.9c-0.8-0.8-1.7-1.5-2.4-2.3c-2.6-3.6-5.1-7.4-7.9-10.8
		c-1.2,0-2.4-0.1-3.7-0.2c-47.7-43.4-115.2-71.3-172.8-96.9l6.7-23c-19-9.1-39.7-19-59.8-25.3c13.8-18.6,33.8-29.7,43.5-53
		c-36.4-4.3-74.1-10.3-112.3,4.6c0-9.4-1.9-20-4.4-28.8c-21.4,12.5-40.6,27.7-54.1,50.6c-10.6,19.5-4.8,42.2,4.9,60
		C1232.9,300.4,1228.5,324.7,1242.4,339.2z M1611.9,764.3c-33.1-0.3-51.3-29-63.7-55.5c14.2,4.7,44.3,13.9,44.3,13.9l1-0.4
		c2.8-3.4-11.9-20.7-13.7-25.9c-14.6-23.5-4.2-48.9,2.6-73.2c0,0,34.2,29.5,42.8,49.2c-1.5,16-2.2,32.2,1.6,48.4
		C1601,739.4,1602.5,752.2,1611.9,764.3z M1763.7,660c3.2,9.5,0.7,22.4,0.3,33.8c-5.1,23.6-24.9,38.9-47.3,48.6
		c8.7,7.8,40.8,7.4,41.9,14.2c-5.4,10.4-15.8,16.3-24.8,23.4c-17.1,9.9-37.5,4.7-51.5-5.9l10.1-14.2
		C1701.2,718,1723.6,677.1,1763.7,660z M1697.3,625.7c8.3,28,13.5,57.7-0.2,84.7c-17.5,34.2-66.9,19.6-58.9-21.1
		C1643,664.8,1670.3,627.7,1697.3,625.7z M1387.5,400.9c-25.1,3.4-51.6,10.2-72.9-7.4c-4.9-2.5-20-19.4-23.8-17.1l-0.6,1
		c0,0,5.1,31.1,7.7,45.8c-24.5-15.8-50.4-37.8-46.2-70.7c10.7,11,23.2,14.2,45.1-8.9c15.6,5.9,31.6,7.5,47.7,8.2
		C1362.9,363,1387.5,400.9,1387.5,400.9z M1400.7,286.9c-5.7,26.4-46.1,48.4-71.1,49.8c-41.3,2.4-49.1-48.6-12.8-61.2
		C1345.4,265.7,1374.2,274.8,1400.7,286.9z M1253,229.7c8.2-8,15.5-17.5,26.7-21.4c6.4,2.1,1.6,33.8,8.2,43.5
		c12.7-20.8,30.6-38.4,54.7-40.2c11.3,1.1,24.4,0.5,33.3,4.9c-22.5,37.4-66,53.9-108.6,57l-15.4,8.1
		C1243.3,266.2,1240.9,245.3,1253,229.7z"/>
	<path fill="#DDAE39" d="M1625.4,672.5c-8.6-19.6-42.8-49.2-42.8-49.2c-6.9,24.3-17.3,49.7-2.6,73.2c1.8,5.2,16.5,22.6,13.7,25.9
		l-1,0.4c0,0-30.1-9.3-44.3-13.9c12.4,26.5,30.5,55.1,63.7,55.5c-9.4-12.1-10.9-24.9,15-43.5
		C1623.1,704.6,1623.8,688.5,1625.4,672.5z"/>
	<path fill="#DDAE39" d="M1682.2,774c14.1,10.6,34.5,15.9,51.5,5.9c9-7,19.4-13,24.8-23.4c-1.2-6.8-33.3-6.4-41.9-14.2
		c22.4-9.7,42.2-25,47.3-48.6c0.4-11.4,2.9-24.3-0.3-33.8c-40,17.1-62.5,58-71.4,99.8L1682.2,774z"/>
	<path fill="#DDAE39" d="M1697,710.4c13.7-27,8.5-56.7,0.2-84.7c-27,2-54.2,39-59.1,63.6C1630.1,730,1679.6,744.7,1697,710.4z"/>
	<path fill="#DDAE39" d="M1296.9,343.5c-22,23.1-34.4,19.8-45.1,8.9c-4.2,32.9,21.7,54.9,46.2,70.7c-2.7-14.7-7.7-45.8-7.7-45.8
		l0.6-1c3.7-2.3,18.8,14.6,23.8,17.1c21.3,17.7,47.8,10.9,72.9,7.4c0,0-24.6-37.9-42.9-49.1C1328.5,351.1,1312.5,349.5,1296.9,343.5
		z"/>
	<path fill="#DDAE39" d="M1316.8,275.5c-36.3,12.6-28.5,63.6,12.8,61.2c25-1.4,65.4-23.4,71.1-49.8
		C1374.2,274.8,1345.4,265.7,1316.8,275.5z"/>
	<path fill="#DDAE39" d="M1267.3,273.4c42.6-3.1,86.1-19.6,108.6-57c-9-4.4-22-3.8-33.3-4.9c-24.1,1.9-42,19.4-54.7,40.2
		c-6.5-9.6-1.7-41.4-8.2-43.5c-11.2,3.9-18.4,13.4-26.7,21.4c-12.2,15.6-9.7,36.5-1.2,51.8L1267.3,273.4z"/>
	<path fill="#200C0C" d="M1887.5,934.8c-14.4-33.7-28.1-69.3-60.2-95c8.2-4.7,16.4-11.6,22.7-18.3c-21.5-12.2-44.3-21.3-70.9-21.5
		c-22.2,0.5-39,17-49.5,34.2c-12.8-5.5-36.1,2.8-41.6,22.1c-49.4,6.7-72.8,63.3-56.9,108.4l34.1-12.2c5.3,28.8,20.9,55.3,45.8,73.6
		c11.1-22.3,24.3-43.5,30.5-68.2c11.9,5.8,21,18.1,32.4,24.9c24.8,75.6,29.2,174.5-10.4,244.6c0.6-0.2,1.3-0.6,1.9-0.8
		c-27,52.8-72.6,99.6-119.1,131c-13.2-1.7-27.9,2.4-40.9-0.3c10.3-23.3,13-48.1,17.9-72.5c-30.9-0.8-59.5,10.4-81.3,30l-19.4-30.6
		c-18.2,11.6-31.4,30.1-37.3,50.1c-15.5-28.7-32.2-58.7-51.4-84.6c37.2-11.7,75.5-7,111.7-29.1c-45.3-42.1-90.7-87.5-157.6-105.1
		c6-8.2,11.3-17.8,15.7-27.4c28.9,12.2,62.2,15.8,93.6,8.3l-14.4-59.2c49.3-3.7,96.3-25.2,131.4-63.8c-35.3-22.6-68.6-48.4-108.9-63
		c74.9-64.3,65.9-139.3,65.9-139.3c-35.6-1.1-74-2.1-109.5,1.9c8.5-38.1,31.7-68.9,30.7-111.3c-59,18.2-121.1,34.8-169.8,84
		c-4.1-9.3-9.8-18.7-15.9-27.4c25-18.9,44.8-46,54-76.9l-58.5-17.1c21.4-44.5,26.3-96,10.6-145.7c-37.2,19.3-76.2,35.2-109.1,62.8
		c-18.2-97-87.6-126.7-87.6-126.7c-18.7,30.2-38.9,63-53.1,95.7c-28.8-26.4-43.8-62-81-82.3c-13.8,60.3-30.4,122.3-12.2,189.1
		c-10.1-1.1-21.1-0.9-31.7,0.1c-3.9-31.1-17.4-61.7-39.6-85.2l-44.1,42.1c-27.9-40.9-70-70.7-120.9-82c-1.9,41.9-7.6,83.6-0.2,125.8
		c-93.1-32.7-153.5,12.5-153.5,12.5c16.8,31.3,35.1,65.2,56.4,93.8c-37.2,11.7-75.5,6.9-111.8,29c45.3,42.1,90.7,87.5,157.6,105.1
		c-6,8.2-11.3,17.8-15.7,27.4c-19.9-8.4-41.8-12.8-63.8-12.2c-10,0.3-20,1.6-29.8,3.9l14.4,59.3c-43.1,3.2-84.3,20.1-117.6,50
		c-4.8,4.3-9.5,8.9-13.9,13.8c24.8,15.9,48.7,33.3,74.6,47.3c11,6,22.3,11.4,34.2,15.7c-35.9,30.8-52.5,64-60,90.3
		c-0.7,2.4-1.3,4.8-1.9,7.1c-3.6,14.9-4.3,27.2-4.3,34.4c0,4.7,0.3,7.3,0.3,7.3c35.5,1.1,74,2.2,109.5-1.8
		c-8.5,38.1-31.6,68.9-30.6,111.2c0,0,0.1,0,0.1,0s0,0,0,0c59-18.1,121-34.8,169.7-83.9c3.1,7,7,14,11.3,20.7c1.5,2.3,3,4.4,4.5,6.6
		c-25,18.9-44.8,45.9-54,76.9l58.5,17.2c-21.4,44.6-26.3,95.9-10.5,145.7c37.2-19.3,76.2-35.2,109-62.8
		c18.2,97,87.6,126.7,87.6,126.7c18.7-30.3,38.9-63.1,53.1-95.8c28.8,26.4,43.8,62,81,82.2c13.8-60.2,30.4-122.3,12.2-189
		c10.1,1.1,21,0.8,31.6-0.1c3.9,31.1,17.4,61.7,39.6,85.1l44.1-42.1c27.9,40.8,70,70.7,120.9,82c1.9-41.9,7.6-83.6,0.2-125.9
		c73.5,25.9,126.5,3.1,145.6-7.6c-2.3,20.1,3.1,40.5,18.5,56.3c-7.4,18.7,3.9,35.2,19.3,43c-2.3,20.1,0.8,43.4,18,57.4
		c21.1,16.1,44.7,22.9,69.3,26.5c-1-9.1-3.2-19.6-6.8-28.3c41-0.5,73.7-20.3,105.8-38.1c-17.7-17.9-40.4-20.6-60.3-32.7
		c16.3-13.5,31.7-30.4,46-46l-14.9-18.8c44.1-45.9,96.7-97.7,124.3-156.6c0.3-0.1,0.6-0.3,0.8-0.4c0.3-1,0.5-2.2,0.8-3.2
		c1.8-4.1,3.9-8.1,5.4-12.2c-0.6-1.1-1.1-2.1-1.7-3.2c13.7-63.1,4.1-135.5-2.5-198.1l23.3-5.7c-1.6-21.1-3.4-43.8-8-64.5
		C1842.9,926.3,1862.6,938.1,1887.5,934.8z M1448.1,1161.5c14.3,12.8,32.7,24.8,40.5,39.8c-67.7,28.6-143.3,8.1-204.4-30l-29-4.3
		c3.5-29.4,21-60.3,53-69.3c19.1-2.9,38.5-8.6,57.5-2.8c6.7,9.2-31.2,47.7-31.9,67.3C1371.7,1146.4,1413.3,1140.3,1448.1,1161.5z
		 M1591.4,977.6c-36.2,22.4-72.4,51-117.2,38.4c-9.3-0.4-44.2-16.1-48.4-10l-0.1,1.8c0,0,29,44.5,43.2,65.3
		c-48.6-7.6-103.5-23.7-119.5-77.3c24,9.6,45.4,6,63.5-44.6c28-1.5,53.8-10,79-19.9C1527.6,936.1,1591.4,977.6,1591.4,977.6z
		 M1533.9,793c9.3,44.6-37.9,105.9-75.4,125.3c-61.9,32-108.8-41.2-61.6-85.5C1434.2,798.2,1484.7,792.5,1533.9,793z M1336.1,816.1
		c5.3-40.7,20.8-79.8,56.6-99.3c18.3-5.9,37.9-15.9,54.7-15.2c-9.1,73-64.6,128.2-128.2,162.1l-18.2,23
		c-23.7-17.8-41.7-48.4-33.6-80.6c7.1-18,11.8-37.6,26.3-51.2C1305.1,753.6,1319.5,805.8,1336.1,816.1z M1215.2,563.8
		c22-28.6,89.8-63.1,89.8-63.1c1.3,42.5,8.1,88.2-25.4,120.7c-5,7.9-36,30.2-32.9,36.9l1.5,1.1c0,0,53-2.9,78.1-4.8
		c-30.9,38.3-72.3,77.8-126.7,64.9c20.3-16.1,27.9-36.3-6.8-77.3C1205.7,617.3,1211.2,590.7,1215.2,563.8z M1116.5,458.2
		c43.3,14.3,72.8,85.8,70.9,128c-3.3,69.7-90.2,73.6-104.8,10.6C1071.1,547.2,1091.5,500.6,1116.5,458.2z M1037.6,641
		c-32.6-24.9-58.7-57.9-57.7-98.6c4-18.8,5.1-40.7,14.2-55c58.6,44.3,78.7,120.1,76.3,192l10.8,27.3c-27.2,11.7-62.8,12-86.6-11.2
		c-12-15.1-26.7-29-31.2-48.4C967.9,636.7,1020.3,650.3,1037.6,641z M748.9,510.2c37.5,20.1,80.4,37.1,91.9,82.3
		c4.3,8.3,8.2,46.3,15.6,46.9l1.7-0.8c0,0,24-47.4,34.9-70c17.8,45.9,31.3,101.4-7.2,142.1c-3.7-25.6-17.5-42.3-70.3-32.7
		c-15.3-23.5-35.5-41.6-56.8-58.4C744.9,586.2,748.9,510.2,748.9,510.2z M617.8,652.3c34-30.4,110.7-20.1,146.3,2.6
		c58.7,37.7,18.7,114.9-43.3,96.1C672.1,736.1,642,695.2,617.8,652.3z M622.4,812.7c-14.3-12.9-32.7-24.9-40.6-39.8
		c67.7-28.5,143.3-8.1,204.4,29.9l29,4.3c-3.5,29.3-21,60.3-53,69.3c-19.1,2.9-38.5,8.7-57.5,2.8c-6.7-9.2,31.2-47.8,31.9-67.3
		C698.8,827.8,657.1,834,622.4,812.7z M677.8,1257.5c-2.3,0.7-4.6,1.5-6.9,2.4c-16.2,5.9-33.1,13.4-47.8,12.8
		c9.1-72.9,64.6-128.2,128.1-162.1l18.3-22.9c23.7,17.7,41.7,48.4,33.6,80.6c-7.1,18-11.8,37.6-26.3,51.2
		c-11.3,1.2-25.7-50.9-42.3-61.3C729.1,1198.8,713.5,1238,677.8,1257.5z M536.6,1181.2c-9.3-44.7,37.9-106,75.4-125.3
		c62-32,108.8,41.2,61.6,85.4C636.3,1176,585.8,1181.7,536.6,1181.2z M596.3,958.2c9.3,0.4,44.2,16.1,48.4,10l0.1-1.9
		c0,0-29-44.4-43.2-65.2c48.6,7.5,103.5,23.7,119.5,77.2c-24-9.6-45.4-6-63.4,44.5c-28,1.5-53.8,10-79,19.9
		c-35.8-4.7-99.6-46.2-99.6-46.2C515.3,974.2,551.5,945.5,596.3,958.2z M855.2,1410.4c-22,28.6-89.8,63.1-89.8,63.1
		c-1.3-42.6-8.1-88.2,25.4-120.7c5-7.9,36-30.2,32.9-36.9l-1.5-1c0,0-53,2.9-78.1,4.9c30.8-38.4,72.3-77.8,126.6-64.9
		c-20.3,16-27.9,36.3,6.8,77.2C864.8,1357,859.3,1383.6,855.2,1410.4z M954,1516c-43.3-14.3-72.8-85.8-70.8-128
		c3.3-69.7,90.1-73.6,104.8-10.5C999.4,1427.1,979,1473.7,954,1516z M1032.9,1333.1c32.6,25,58.7,58,57.7,98.7
		c-4,18.8-5.1,40.7-14.2,55c-58.6-44.3-78.7-120-76.3-192l-10.7-27.3c27.2-11.6,62.7-11.9,86.6,11.2c12,15.1,26.7,29,31.2,48.4
		C1102.5,1337.6,1050.2,1323.9,1032.9,1333.1z M1074.3,1255c-30.7-21.3-69.8-15.5-101.3-2.4c-11.9-20.2-51.8-31.9-78.5-11.1
		c-32.8-17.6-68.3-16.8-99.8-3.8c14.1-25,24.5-52,28.1-82.8c3.1-37.3-21.5-68.1-48.5-89c11.5-20.4,1.7-60.8-29.6-73.5
		c-1.1-37.2-19.6-67.6-46.7-88.3c28.7-0.3,57.3-4.7,85.8-17.1c33.8-16,48.3-52.7,52.8-86.5c23.4-0.2,53.5-28.9,48.8-62.4
		c31.7-19.6,48.7-50.8,53.1-84.6c14.6,24.7,32.8,47.3,57.7,65.8c30.7,21.3,69.8,15.5,101.3,2.4c11.8,20.2,51.8,31.9,78.5,11.1
		c32.8,17.7,68.4,16.8,99.8,3.8c-14.1,25-24.5,52-28.1,82.9c-3.1,37.2,21.5,68.2,48.5,89c-11.5,20.3-1.7,60.8,29.6,73.5
		c1.1,37.2,19.6,67.6,46.6,88.3c-28.7,0.3-57.3,4.8-85.8,17.1c-33.8,15.9-48.3,52.7-52.8,86.5c-23.4,0.2-53.5,28.9-48.9,62.4
		c-31.7,19.6-48.7,50.8-53.1,84.5C1117.4,1296,1099.2,1273.5,1074.3,1255z M1321.6,1464c-37.5-20.1-80.4-37.1-91.9-82.3
		c-4.3-8.3-8.2-46.3-15.6-46.9l-1.7,0.8c0,0-24,47.4-34.9,70.1c-17.8-45.9-31.3-101.5,7.1-142.1c3.7,25.6,17.5,42.3,70.3,32.7
		c15.3,23.5,35.5,41.5,56.8,58.4C1325.6,1388,1321.6,1464,1321.6,1464z M1306.4,1319.3c-58.7-37.6-18.7-114.8,43.3-96
		c48.7,15,78.9,55.8,103,98.7C1418.6,1352.3,1342,1342.1,1306.4,1319.3z M1504.7,1388.9c-16.3-28.9-0.6-58.9,16.2-82.9
		c3,14.7,10.1,45.3,10.1,45.3l0.9,0.7c4.3,0.7,12-20.7,15.6-24.8c13-24.4,40.2-28,64.7-34.3c0,0-8.5,44.4-21.2,61.7
		c-14.6,6.7-28.9,14.1-41.1,25.6C1520.8,1367.1,1510.5,1374.8,1504.7,1388.9z M1670.9,1468.2c-6.7,7.5-19,11.8-29.1,17.1
		c-23,7.3-46.2-2.2-65.8-16.7c-2.4,11.4,14,39,8.7,43.4c-11.7,0.5-22.1-5.4-32.7-9.8c-17.2-9.9-22.8-30.1-20.6-47.6l17.3,1.6
		C1589.5,1443.1,1636.1,1442.1,1670.9,1468.2z M1594,1435.8c-38.4,2-50.4-48.2-11.2-61.6c23.7-8.1,69.4-3,84.6,19.3
		C1647.3,1414.8,1624.2,1434.1,1594,1435.8z M1707.2,1012.9c-15.5-19.9-34.7-37.5-30-64.8c-0.3-5.5,6.8-27.1,2.9-27.1h-1.1
		c0,0-24.4,17.8-35.8,27.5c1.4-29.2,7.5-63.6,38.1-76.4c-4.1,14.7-0.7,26.7,30.3,34.1c2.6,16.5,9.3,30.9,16.7,45.2
		C1727.8,972.8,1707.2,1012.9,1707.2,1012.9z M1733.9,930.7c-22.8-34.6,17.5-66.8,46.6-41.7c22.8,19.8,29.3,49.4,32.1,78.4
		C1786.9,975.6,1747.7,951.6,1733.9,930.7z M1757.5,845.1l-14.7-9.3c9-15.1,25.9-27.7,45.5-24.9c11.1,3,22.9,4.6,31.9,12.3
		c1.4,6.7-28.5,18.3-33.6,28.8c24.4,0.6,48.5,7.3,62.2,27.2c4.7,10.4,11.8,21.3,12.4,31.4C1817.6,909.8,1781.5,880.4,1757.5,845.1z"
		/>
	<path fill="#DDAE39" d="M1591,1354.6c12.7-17.3,21.2-61.7,21.2-61.7c-24.5,6.3-51.7,9.9-64.7,34.3c-3.6,4.1-11.3,25.5-15.6,24.8
		l-0.9-0.7c0,0-7.1-30.7-10.1-45.3c-16.8,24-32.5,54-16.2,82.9c5.8-14.2,16.1-21.9,45.2-8.7C1562,1368.8,1576.4,1361.3,1591,1354.6z
		"/>
	<path fill="#DDAE39" d="M1548.9,1456.3l-17.3-1.6c-2.2,17.4,3.5,37.7,20.6,47.6c10.6,4.4,20.9,10.3,32.7,9.8
		c5.2-4.4-11.2-32-8.7-43.4c19.6,14.5,42.8,24,65.8,16.7c10.1-5.3,22.4-9.6,29.1-17.1C1636.1,1442.1,1589.5,1443.1,1548.9,1456.3z"
		/>
	<path fill="#DDAE39" d="M1582.8,1374.2c-39.3,13.4-27.2,63.5,11.2,61.6c30.2-1.7,53.4-21,73.5-42.2
		C1652.2,1371.2,1606.5,1366.1,1582.8,1374.2z"/>
	<path fill="#DDAE39" d="M1681.3,871.1c-30.6,12.8-36.7,48.2-38.1,77.4c11.3-9.7,35.8-27.5,35.8-27.5h1.1c3.9,0-3.2,21.6-2.9,27.1
		c-4.7,27.3,14.5,45.8,30,65.8c0,0,20.5-40.8,21.1-62.2c-7.4-14.3-14.1-29.2-16.7-45.7C1680.6,898.5,1677.2,885.9,1681.3,871.1z"/>
	<path fill="#DDAE39" d="M1733.9,930.7c13.8,20.9,53,45,78.7,36.7c-2.8-29-9.3-58.5-32.1-78.4
		C1751.4,863.8,1711.1,896.1,1733.9,930.7z"/>
	<path fill="#DDAE39" d="M1786.6,852c5.1-10.5,34.9-22.2,33.6-28.8c-9-7.7-20.8-9.3-31.9-12.3c-19.5-2.8-36.4,9.8-45.5,24.9
		l14.7,9.3c24,35.3,60.1,64.7,103.7,65.5c-0.7-10-7.7-21-12.4-31.4C1835.1,859.3,1811,852.6,1786.6,852z"/>
	<path fill="#200C0C" d="M1503,1526c-1.6-13.8-20.5-29.9-39.9-25c-30.5-39.4-91.3-31.4-122.3,4.9l27.6,23.4
		c-22.4,19-37.4,45.7-40.8,76.4c24.8-1.5,49.8-0.7,74.3-7.7c0.9,13.3-5.2,27.2-5.3,40.5c-53.1,59.2-136.5,112.5-217,113.3
		c0.5,0.4,1.1,0.8,1.6,1.2c-59.2,3-122.5-13-173-37.6c-5.2-12.2-16.1-23-20.2-35.5c25.3-2.8,48.2-12.9,71.7-20.8
		c-14.8-27.2-38.8-46.3-66.6-55.4l16.7-32.1c-42.4-22-101.7-6.5-115.1,41.5c-19.9,2.8-28.5,20.9-27.6,38.2
		c-18.5,8-37.1,22.4-40.7,44.2c-3.4,26.4,2.5,50.2,11.7,73.2c7.4-5.4,15.4-12.6,21.2-20c21,35.3,54.4,53.7,85.8,72.6
		c6.6-24.3-2.4-45.4-1.8-68.5c19.9,7.4,42.2,12.3,62.8,16.8l8.8-22.3c61.8,15.2,133,34.9,197.8,29.3c0.3,0.2,0.5,0.4,0.7,0.5
		c1-0.2,2-0.6,3-0.8c4.5-0.4,9.1-0.7,13.5-1.4c0.6-1,1.3-2.1,2-3.1c61.4-19.6,119.3-64.2,170.3-101.2l16.6,17.3
		c17.4-11.9,36.2-24.9,51.9-39.2c9.2,21.2,8.8,44.1,24.1,64.2c22-29.4,46-59.1,52.1-99.7c8.1,4.7,18.3,8.4,27.2,10.6
		c-0.2-24.8-3.7-49.1-16.8-72.2C1545.9,1532.7,1523.2,1526.4,1503,1526z M990.1,1581c-11.2,9.9-34.2,31.4-34.2,31.4l-0.2,1.1
		c1.5,4.1,23.9,0.1,29.3,1.2c27.7-1,44.4,20.7,62,38.8c0,0-42.7,14.8-64,12.5c-13.1-9.3-26.7-18-42.7-22.8
		c-3.2-31.7-15-36.8-30.2-34.7C927,1579.8,960.9,1578.5,990.1,1581z M924.7,1792c-9.8-2-19.7-10.5-29.3-16.6
		c-17.9-16.3-21.2-41.1-18.4-65.3c-11.1,3.6-26.8,31.6-33.2,29.3c-6.3-9.9-6.3-21.9-7.8-33.2c0-19.7,14.7-34.8,30.9-41.7l7.3,15.8
		C905.7,1708.9,929.8,1748.8,924.7,1792z M987.6,1751.6c-28.4-6.8-56.8-17.2-73.2-42.5c-20.9-32.2,16.5-67.7,47.7-40.5
		C980.9,1685.1,999.3,1727.2,987.6,1751.6z M1401.1,1583.2c-18.9,10.2-64,12.6-64,12.6c9.5-23.4,16.9-49.8,42.9-59.4
		c4.7-3,26.9-7.6,26.7-12.1l-0.6-1c0,0-29.4-11.2-43.5-16.2c26-13.3,57.9-24.8,84.3-4.7c-14.8,3.8-23.9,12.9-14.8,43.5
		C1419.2,1556.5,1409.8,1569.6,1401.1,1583.2z M1481,1597.2c-5.8,29.7-28,50.1-51.8,67c-20-18.2-18.8-64.1-7.6-86.5
		C1440.2,1540.8,1488.3,1559.6,1481,1597.2z M1557.9,1598.7c-5.1,4.6-30.2-15.4-41.8-14.6c11.7,21.4,17.9,45.6,7.5,67.4
		c-6.6,9.3-12.6,20.9-20.9,26.4c-21.1-38.2-13.7-84.1,4.9-122.6l0.8-17.4c17.6,0.3,36.9,8.6,44.2,26.9
		C1555.5,1576.1,1560,1587.1,1557.9,1598.7z"/>
	<path fill="#DDAE39" d="M940.4,1643.2c15.9,4.8,29.6,13.5,42.7,22.8c21.3,2.4,64-12.5,64-12.5c-17.6-18.1-34.3-39.8-62-38.8
		c-5.4-1.1-27.8,2.9-29.3-1.2l0.2-1.1c0,0,23-21.5,34.2-31.4c-29.1-2.6-63-1.2-79.9,27.4C925.4,1606.4,937.2,1611.4,940.4,1643.2z"
		/>
	<path fill="#DDAE39" d="M874,1680.3l-7.3-15.8c-16.2,6.9-30.9,21.9-30.9,41.7c1.5,11.3,1.5,23.3,7.8,33.2
		c6.5,2.3,22.1-25.7,33.2-29.3c-2.8,24.3,0.6,49.1,18.4,65.3c9.6,6.1,19.5,14.6,29.3,16.6C929.8,1748.8,905.7,1708.9,874,1680.3z"/>
	<path fill="#DDAE39" d="M914.3,1709.1c16.5,25.3,44.8,35.8,73.2,42.5c11.7-24.4-6.7-66.5-25.5-83
		C930.8,1641.4,893.4,1676.9,914.3,1709.1z"/>
	<path fill="#DDAE39" d="M1432.1,1546c-9-30.6,0-39.7,14.8-43.5c-26.4-20.1-58.3-8.7-84.3,4.7c14,5,43.5,16.2,43.5,16.2l0.6,1
		c0.1,4.4-22.1,9.1-26.7,12.1c-26,9.6-33.3,36-42.9,59.4c0,0,45.1-2.3,64-12.6C1409.8,1569.6,1419.2,1556.5,1432.1,1546z"/>
	<path fill="#DDAE39" d="M1421.7,1577.8c-11.2,22.4-12.5,68.3,7.6,86.5c23.8-16.9,46-37.3,51.8-67
		C1488.3,1559.6,1440.2,1540.8,1421.7,1577.8z"/>
	<path fill="#DDAE39" d="M1508.3,1538l-0.8,17.4c-18.6,38.5-26,84.4-4.9,122.6c8.3-5.6,14.3-17.1,20.9-26.4
		c10.4-21.8,4.1-46-7.5-67.4c11.6-0.9,36.7,19.2,41.8,14.6c2.2-11.6-2.4-22.6-5.3-33.8C1545.2,1546.6,1525.9,1538.3,1508.3,1538z"/>
	<path fill="#200C0C" d="M792.3,1628.4c18.8-46.2-18.5-94.8-65.5-103.5l-6.5,35.6c-27.6-9.9-58.3-9.5-86.6,2.9
		c13.7,20.7,25.6,42.8,43.8,60.5c-11,7.4-26.2,9.2-37.8,15.7c-77.8-16.4-165.6-62-206.6-131.3c-0.1,0.7-0.2,1.4-0.3,2
		c-32.2-49.8-50-112.6-53.9-168.6c8-10.5,11.8-25.3,20.7-35.2c15,20.5,35.2,35.3,53.9,51.7c16.2-26.4,20.7-56.7,14.7-85.5l36.2-1.5
		c-2.1-47.7-45.2-91.4-93.5-79c-12.4-15.8-32.4-14.2-46.9-4.7c-16.2-12.1-38-21-58.7-13.1c-24.6,10.2-42.2,27.2-57.6,46.7
		c8.4,3.6,18.6,7,27.9,8.3c-20,35.8-19.3,74-19.9,110.7c24.3-6.4,38.1-24.7,58.4-35.8c3.6,20.9,10.5,42.6,16.9,62.8l23.8-3.5
		c17.7,61.1,36.3,132.6,73.5,186c0,0.3,0,0.6-0.1,0.9c0.7,0.8,1.6,1.5,2.3,2.2c2.6,3.7,5.1,7.5,7.9,11c1.2,0,2.5,0.1,3.7,0.1
		c47.7,43.4,115.2,71.3,172.8,96.9l-6.7,23c19,9.2,39.6,19,59.8,25.3c-13.8,18.6-33.8,29.7-43.5,53c36.4,4.3,74.1,10.3,112.3-4.6
		c0,9.4,1.9,20,4.5,28.8c21.4-12.5,40.6-27.8,54.1-50.7c10.6-19.4,4.8-42.2-4.9-59.9C801.9,1667.2,806.3,1642.9,792.3,1628.4z
		 M422.9,1203.3c33.2,0.3,51.4,29,63.6,55.5c-14.2-4.7-44.3-14-44.3-14l-1,0.4c-2.8,3.4,11.9,20.7,13.7,25.9
		c14.6,23.5,4.2,48.9-2.6,73.2c0,0-34.2-29.5-42.8-49.2c1.5-16,2.2-32.2-1.6-48.4C433.7,1228.2,432.2,1215.4,422.9,1203.3z
		 M271.1,1307.6c-3.2-9.5-0.7-22.3-0.3-33.7c5.1-23.6,25-38.9,47.3-48.6c-8.7-7.9-40.7-7.5-41.9-14.2c5.5-10.4,15.8-16.3,24.8-23.4
		c17.1-9.9,37.5-4.7,51.5,5.9l-10.1,14.2C333.6,1249.6,311.2,1290.5,271.1,1307.6z M337.5,1341.9c-8.3-28-13.5-57.8,0.2-84.7
		c17.5-34.3,66.9-19.6,58.9,21.1C391.7,1302.8,364.5,1339.9,337.5,1341.9z M647.3,1566.7c25-3.4,51.6-10.3,72.8,7.4
		c5,2.5,20.1,19.4,23.8,17.1l0.5-1c0,0-5-31.1-7.7-45.8c24.5,15.8,50.4,37.8,46.2,70.7c-10.7-11-23.2-14.2-45.1,8.9
		c-15.6-6-31.6-7.5-47.7-8.2C671.9,1604.6,647.3,1566.7,647.3,1566.7z M634,1680.7c5.7-26.4,46.1-48.3,71.1-49.8
		c41.3-2.4,49.1,48.6,12.8,61.2C689.3,1701.9,660.6,1692.8,634,1680.7z M781.7,1737.9c-8.2,8.1-15.5,17.6-26.6,21.4
		c-6.5-2.1-1.7-33.8-8.2-43.4c-12.7,20.8-30.6,38.3-54.7,40.2c-11.4-1.2-24.4-0.5-33.3-4.9c22.5-37.4,65.9-53.9,108.6-57l15.4-8.1
		C791.5,1701.4,793.9,1722.4,781.7,1737.9z"/>
	<path fill="#DDAE39" d="M409.4,1295.2c8.6,19.6,42.8,49.2,42.8,49.2c6.8-24.3,17.3-49.7,2.6-73.2c-1.8-5.2-16.5-22.5-13.7-25.9
		l1-0.4c0,0,30.1,9.2,44.3,14c-12.3-26.5-30.5-55.2-63.6-55.5c9.4,12.1,10.9,24.9-15,43.5C411.6,1263,410.9,1279.1,409.4,1295.2z"/>
	<path fill="#DDAE39" d="M352.6,1193.7c-14-10.6-34.4-15.9-51.5-5.9c-9,7-19.4,13-24.8,23.4c1.2,6.7,33.3,6.3,41.9,14.2
		c-22.4,9.7-42.2,25-47.3,48.6c-0.4,11.4-2.9,24.2,0.3,33.7c40-17.1,62.4-58,71.4-99.8L352.6,1193.7z"/>
	<path fill="#DDAE39" d="M337.7,1257.2c-13.7,27-8.5,56.7-0.2,84.7c27-2,54.2-39.1,59.1-63.6
		C404.6,1237.6,355.2,1222.9,337.7,1257.2z"/>
	<path fill="#DDAE39" d="M737.8,1624.1c22-23.1,34.4-19.9,45.1-8.9c4.2-32.9-21.7-54.9-46.2-70.7c2.7,14.7,7.7,45.8,7.7,45.8l-0.5,1
		c-3.8,2.3-18.9-14.6-23.8-17.1c-21.3-17.7-47.8-10.9-72.8-7.4c0,0,24.6,37.9,42.9,49.1C706.2,1616.5,722.3,1618.1,737.8,1624.1z"/>
	<path fill="#DDAE39" d="M717.9,1692.1c36.3-12.6,28.5-63.6-12.8-61.2c-25,1.5-65.4,23.4-71.1,49.8
		C660.6,1692.8,689.3,1701.9,717.9,1692.1z"/>
	<path fill="#DDAE39" d="M767.4,1694.1c-42.6,3.1-86.1,19.7-108.6,57c9,4.4,22,3.7,33.3,4.9c24.1-1.9,41.9-19.4,54.7-40.2
		c6.5,9.6,1.7,41.4,8.2,43.4c11.2-3.9,18.4-13.4,26.6-21.4c12.2-15.5,9.8-36.4,1.2-51.8L767.4,1694.1z"/>
	<path fill="#DDAE39" d="M815.4,678c52.8-9.6,66.6,7,70.3,32.7c38.4-40.6,24.9-96.2,7.2-142.1c-10.9,22.7-34.9,70-34.9,70l-1.7,0.8
		c-7.4-0.6-11.2-38.6-15.6-46.9c-11.4-45.2-54.4-62.2-91.9-82.3c0,0-4,76,9.8,109.4C779.9,636.5,800.1,654.6,815.4,678z"/>
	<path fill="#DDAE39" d="M720.8,751c61.9,18.8,101.9-58.4,43.3-96.1c-35.6-22.8-112.3-33-146.3-2.6C642,695.2,672.1,736.1,720.8,751
		z"/>
	<path fill="#DDAE39" d="M704.8,879.4c19,5.8,38.4,0,57.5-2.8c31.9-9,49.4-40,53-69.3l-29-4.3c-61.1-38-136.7-58.5-204.4-29.9
		c7.8,15,26.2,27,40.6,39.8c34.7,21.2,76.3,15.1,114.3-0.7C736.1,831.6,698.1,870.2,704.8,879.4z"/>
	<path fill="#DDAE39" d="M1199.8,719.5c54.4,12.9,95.8-26.6,126.7-64.9c-25.1,1.9-78.1,4.8-78.1,4.8l-1.5-1.1
		c-3.1-6.7,27.9-29,32.9-36.9c33.4-32.5,26.7-78.2,25.4-120.7c0,0-67.8,34.5-89.8,63.1c-4,26.8-9.5,53.4-22.2,78.3
		C1227.7,683.1,1220.2,703.4,1199.8,719.5z"/>
	<path fill="#DDAE39" d="M1187.4,586.2c1.9-42.2-27.6-113.7-70.9-128c-25,42.4-45.4,88.9-34,138.5
		C1097.2,659.8,1184.1,655.9,1187.4,586.2z"/>
	<path fill="#DDAE39" d="M1081.1,706.7l-10.8-27.3c2.4-71.9-17.7-147.7-76.3-192c-9,14.3-10.2,36.2-14.2,55
		c-1,40.7,25.1,73.7,57.7,98.6c-17.3,9.2-69.6-4.3-74.2,6.1c4.5,19.4,19.2,33.3,31.2,48.4C1018.3,718.7,1053.9,718.4,1081.1,706.7z"
		/>
	<path fill="#DDAE39" d="M1412.8,951.3c-18.1,50.5-39.4,54.1-63.5,44.6c16,53.6,70.9,69.7,119.5,77.3
		c-14.2-20.8-43.2-65.3-43.2-65.3l0.1-1.8c4.3-6.1,39.1,9.6,48.4,10c44.9,12.6,81-16,117.2-38.4c0,0-63.8-41.5-99.6-46.2
		C1466.6,941.3,1440.8,949.8,1412.8,951.3z"/>
	<path fill="#DDAE39" d="M1458.5,918.4c37.5-19.4,84.7-80.7,75.4-125.3c-49.2-0.5-99.7,5.2-137,39.9
		C1349.7,877.1,1396.5,950.4,1458.5,918.4z"/>
	<path fill="#DDAE39" d="M1293.8,754.9c-14.5,13.6-19.2,33.2-26.3,51.2c-8.1,32.2,9.9,62.8,33.6,80.6l18.2-23
		c63.5-33.9,119.1-89.1,128.2-162.1c-16.9-0.7-36.5,9.3-54.7,15.2c-35.7,19.5-51.2,58.6-56.6,99.3
		C1319.5,805.8,1305.1,753.6,1293.8,754.9z"/>
	<path fill="#DDAE39" d="M1255.1,1296.2c-52.8,9.6-66.6-7.1-70.3-32.7c-38.4,40.7-24.9,96.2-7.1,142.1
		c10.9-22.7,34.9-70.1,34.9-70.1l1.7-0.8c7.4,0.7,11.2,38.6,15.6,46.9c11.4,45.2,54.4,62.2,91.9,82.3c0,0,4-76-9.8-109.4
		C1290.6,1337.8,1270.3,1319.7,1255.1,1296.2z"/>
	<path fill="#DDAE39" d="M1349.6,1223.2c-61.9-18.8-102,58.4-43.3,96c35.6,22.8,112.3,33,146.3,2.6
		C1428.5,1279.1,1398.3,1238.2,1349.6,1223.2z"/>
	<path fill="#DDAE39" d="M1365.6,1094.9c-19-5.8-38.4,0-57.5,2.8c-32,9-49.5,39.9-53,69.3l29,4.3c61.1,38.1,136.7,58.6,204.4,30
		c-7.8-15-26.3-26.9-40.5-39.8c-34.7-21.2-76.4-15.1-114.3,0.6C1334.4,1142.6,1372.4,1104.1,1365.6,1094.9z"/>
	<path fill="#DDAE39" d="M870.6,1254.8c-54.4-12.9-95.8,26.5-126.6,64.9c25.1-1.9,78.1-4.9,78.1-4.9l1.5,1
		c3.1,6.7-27.9,29.1-32.9,36.9c-33.4,32.5-26.7,78.2-25.4,120.7c0,0,67.8-34.5,89.8-63.1c4-26.8,9.5-53.4,22.2-78.4
		C842.8,1291.1,850.3,1270.8,870.6,1254.8z"/>
	<path fill="#DDAE39" d="M883.1,1388c-2,42.2,27.5,113.7,70.8,128c25-42.4,45.4-88.9,34-138.5C973.3,1314.4,886.4,1318.3,883.1,1388
		z"/>
	<path fill="#DDAE39" d="M989.4,1267.5l10.7,27.3c-2.4,72,17.7,147.7,76.3,192c9-14.3,10.2-36.2,14.2-55c1-40.7-25.1-73.7-57.7-98.7
		c17.3-9.2,69.6,4.4,74.2-6c-4.5-19.3-19.2-33.2-31.2-48.4C1052.1,1255.6,1016.6,1255.9,989.4,1267.5z"/>
	<path fill="#DDAE39" d="M479.1,996.7c0,0,63.8,41.5,99.6,46.2c25.2-9.9,51-18.4,79-19.9c18.1-50.5,39.4-54.1,63.4-44.5
		c-16-53.5-70.9-69.7-119.5-77.2c14.2,20.8,43.2,65.2,43.2,65.2l-0.1,1.9c-4.3,6.1-39.1-9.6-48.4-10
		C551.5,945.5,515.3,974.2,479.1,996.7z"/>
	<path fill="#DDAE39" d="M612,1055.9c-37.6,19.4-84.7,80.7-75.4,125.3c49.2,0.5,99.7-5.2,137-39.9
		C720.8,1097.1,674,1023.9,612,1055.9z"/>
	<path fill="#DDAE39" d="M734.4,1158.1c16.6,10.3,31,62.5,42.3,61.3c14.5-13.6,19.2-33.2,26.3-51.2c8.1-32.2-9.9-62.8-33.6-80.6
		l-18.3,22.9c-63.5,33.9-119.1,89.2-128.1,162.1c14.7,0.6,31.6-6.9,47.8-12.8c2.3-0.8,4.6-1.6,6.9-2.4
		C713.5,1238,729.1,1198.8,734.4,1158.1z"/>
	<path fill="#200C0C" d="M263.6,1166.7c18.2-3.7,32.2-18.2,41.4-33.3c3.2,1.4,7,1.8,11.1,1.6c2-0.2,4.1-0.5,6.2-1
		c6.3-1.7,12.5-5.1,17.2-10.3c3.2-3.4,5.7-7.5,7.1-12.4c18.5-2.5,33.4-12,43.9-25.4c1.8-2.2,3.4-4.5,4.9-6.9
		c9-14.5,13.6-32.2,12.9-49.9c-0.3-8.9-1.9-17.7-4.9-26.2l-34.4,12.2c-5.3-28.8-14.1-55.2-46.1-73.5v0v0c0,10.6-10.8,21-16,31.6
		c-5.8,11.6-10.8,23.6-14,36.6c-9.6-4.7-17.3-13.3-25.8-20.1c-2.1-1.7-4.2-3.4-6.5-4.7c-7-21.3-12.2-44.4-15.4-68.2
		c-8.2-60.8-2.6-126,25.8-176.4c-0.6,0.2-1.2,0.5-1.9,0.7c27-52.8,72.5-99.6,119.1-131c13.1,1.6,27.9-2.5,40.9,0.3
		c-10.3,23.3-13,48.2-17.9,72.5c27.1,0.7,52.3-7.7,72.8-23c2.9-2.2,5.8-4.5,8.5-7l19.4,30.6c10.1-6.4,18.6-15,25.3-24.6
		c19.9-29.2,22.5-69.1-3.6-95.8c6.7-16.8-1.8-31.7-14.8-40.3c-1.4-1-2.9-1.9-4.4-2.7c1.2-10.6,0.8-22.2-2.3-32.8
		c-2.8-9.3-7.6-18-15.7-24.6c-16.3-12.4-34-22.7-52.5-26.9c-5.6-1.2-11.1-6.6-16.8-6.6h0c0.4,17,1.2,11.9,2.2,16.2
		c1.1,5.4,2.6,12.5,4.6,17.4c-41,0.5-73.7,21.1-105.8,38.9c17.7,17.9,40.5,21.1,60.3,33.1c-16.3,13.5-31.7,30.6-46,46.3l7.5,9.5
		l7.4,9.5c-18,18.7-37.5,38.5-56.1,59.3c-24.8,27.7-48.1,57.3-64.5,89c-1.4,2.8-2.4,5.6-3.7,8.4c-0.3,0.1-0.5,0.2-0.8,0.4
		c-0.3,1-0.5,2.1-0.8,3.2c-1.9,4.1-3.9,8.1-5.5,12.3c0.6,1.1,1.1,2.2,1.7,3.3c-13.7,63-4.1,135.4,2.4,198.1l-23.3,5.7
		c1.2,15.8,2.5,32.6,5.1,48.6c0.8,5.4,1.8,10.7,3,15.9c-20.2-2.3-37.7-11.6-58.5-11.8c-3,0-6,0.2-9.1,0.6
		c14.4,33.7,28.1,69.4,60.2,95c-5.7,3.2-11.1,7.7-16.1,12.2c-2.3,2-4.6,4-6.6,6c5.4,3.1,10.8,6,16.4,8.5
		c16.7,7.7,34.5,12.9,54.5,13.1C258.3,1167.5,261,1167.2,263.6,1166.7z M512.7,593.8c9-1.1,14-7,17.4-15.1
		c16.3,28.9,0.6,59-16.2,82.8c-0.3-1.3-0.6-2.9-0.9-4.4c-3.3-15.6-9.1-40.9-9.1-40.9l-0.9-0.6c-4.3-0.7-12,20.7-15.6,24.8
		c-9.8,18.4-27.5,24.9-46.1,29.7c-6.2,1.6-12.5,3-18.6,4.6c0,0,0-0.2,0.1-0.5c0.9-4.3,7.4-36,17.1-54.5c1.3-2.5,2.6-4.7,4-6.6
		c14.7-6.7,29-14.2,41.1-25.6c10.9,4.9,19.2,6.9,25.5,6.7C511.2,594.1,511.9,593.9,512.7,593.8z M363.8,499.4
		c2.5-2.8,5.9-5.1,9.6-7.2c6.1-3.6,13.2-6.6,19.5-9.9c5.7-1.8,11.5-2.6,17.2-2.5c14.3,0.2,28.3,5.8,41.1,14c2.6,1.7,5.1,3.4,7.5,5.2
		c1.2-5.7-2.3-15.5-5.4-24.3c-1.6-4.4-3.1-8.7-3.8-12c-0.8-3.4-0.8-5.9,0.5-7c11.8-0.5,22.1,5.5,32.7,9.8
		c17.2,9.8,22.8,30.2,20.7,47.6l-17.3-1.7c-15.2,5-31.3,8.2-47.3,8.9C412,521.5,385.6,515.7,363.8,499.4z M440.8,531.9
		c29.6-1.5,43.4,27.8,30.2,47.5c-3.9,5.9-10.1,10.9-19.1,14c-5.9,2-13.2,3.2-21.1,3.5c-15.7,0.6-33.7-2.3-47.2-9.3
		c-6.8-3.4-12.5-7.9-16.3-13.5C387.4,552.8,410.6,533.5,440.8,531.9z M327.5,954.8c15.5,19.9,34.7,39.5,30,66.7
		c0.2,3.5-2.5,14.4-3.6,21.7c-0.7,4.4-0.7,9.8,0.7,9.8h1.1c0,0,1.5-2.4,4-4.4c7.4-6,23.3-19.6,31.8-26.9c-0.7,13.4-2.4,27.3-6.9,40
		c-5.3,15.1-14.6,28-31.1,34.9c2.2-7.8,2.1-15.1-3-21.2c-4.5-5.4-12.8-10.1-27.3-13.6c-1-6.2-2.7-12.1-4.6-17.8
		c-0.8-2.3-1.6-4.7-2.5-7c-2.8-7.1-6.1-13.9-9.6-20.7C307,995.1,327.5,954.8,327.5,954.8z M232.4,998.6
		c24.9-0.6,56.4,20.1,68.5,38.4c17.1,25.9-1.3,50.5-23.9,50.6c-7.5,0-15.5-2.7-22.7-9c-22.8-19.8-29.3-49.3-32.1-78.3
		C225.4,999.3,228.8,998.7,232.4,998.6z M246.5,1156.8c-11.1-3.1-22.9-4.7-31.9-12.4c-0.2-0.8,0.2-1.7,0.9-2.7
		c4.8-6.8,28.3-17,32.7-26.1c-24.3-0.6-48.5-7.3-62.2-27.2c-4.7-10.4-11.8-21.3-12.4-31.3c43.6,0.8,79.7,30.2,103.7,65.5l14.7,9.4
		c-1.1,1.9-2.4,3.7-3.8,5.5c-8.2,10.7-20.4,19.1-34.6,19.7C251.3,1157.2,248.9,1157.1,246.5,1156.8z"/>
	<path fill="#DDAE39" d="M277,1087.6c22.5-0.1,40.9-24.7,23.9-50.6c-12.1-18.3-43.6-39-68.5-38.4c-3.6,0.2-7,0.7-10.2,1.7
		c2.8,29,9.3,58.5,32.1,78.3C261.5,1084.9,269.5,1087.6,277,1087.6z"/>
	<path fill="#DDAE39" d="M318.5,1044.1c1.9,5.7,3.7,11.6,4.6,17.8c14.5,3.5,22.8,8.1,27.3,13.5c5.1,6.1,5.2,13.3,3,21.1
		c16.6-6.9,25.8-20,31.1-35c4.5-12.7,6.3-26.9,6.9-40.3c-8.5,7.3-24.4,21.4-31.8,27.4c-2.5,2.1-4,4.4-4,4.4h-1.1
		c-1.5,0-1.4-5.4-0.7-9.8c1.1-7.3,3.8-17.6,3.6-21.1c4.7-27.2-14.5-47.1-30-67c0,0-20.5,40.1-21.1,61.5c3.5,6.8,6.8,13.6,9.6,20.6
		C316.9,1039.4,317.7,1041.7,318.5,1044.1z"/>
	<path fill="#DDAE39" d="M438.6,520.2c16-0.7,32-4,47.3-8.9l17.3,1.7c2.1-17.4-3.5-37.7-20.7-47.6c-10.6-4.3-20.9-10.3-32.7-9.8
		c-1.3,1.1-1.3,3.7-0.5,7c0.8,3.4,2.2,7.6,3.8,12c3.2,8.8,6.6,18.6,5.4,24.3c-2.5-1.8-5-3.5-7.5-5.2c-12.8-8.2-26.8-13.8-41.1-14
		c-5.7-0.1-11.5,0.7-17.2,2.5c-6.3,3.3-13.3,6.3-19.5,9.9c-3.7,2.1-7.1,4.4-9.6,7.2C385.6,515.7,412,521.5,438.6,520.2z"/>
	<path fill="#DDAE39" d="M383.7,587.6c13.6,7,31.5,10,47.2,9.3c7.8-0.3,15.1-1.5,21.1-3.5c9-3.1,15.2-8.1,19.1-14
		c13.2-19.7-0.7-49.1-30.2-47.5c-30.2,1.6-53.4,20.9-73.5,42.2C371.1,579.6,376.9,584.2,383.7,587.6z"/>
	<path fill="#DDAE39" d="M443.8,613c-1.4,1.9-2.7,4.1-4,6.6c-9.7,18.5-16.2,50.2-17.1,54.5c-0.1,0.3-0.1,0.5-0.1,0.5
		c6.1-1.5,12.4-2.9,18.6-4.6c18.6-4.8,36.3-11.4,46.1-29.7c3.6-4.2,11.3-25.5,15.6-24.8l0.9,0.6c0,0,5.8,25.3,9.1,40.9
		c0.3,1.5,0.7,3.1,0.9,4.4c16.8-23.9,32.5-54,16.2-82.8c-3.4,8.2-8.3,14-17.4,15.1c-0.8,0.1-1.5,0.3-2.3,0.3
		c-6.4,0.2-14.7-1.8-25.5-6.7C472.7,598.8,458.4,606.3,443.8,613z"/>
	<path fill="#DDAE39" d="M288.2,1137.4c1.4-1.8,2.6-3.6,3.8-5.5l-14.7-9.4c-24-35.3-60.1-64.7-103.7-65.5c0.7,10,7.7,20.9,12.4,31.3
		c13.7,19.9,37.8,26.6,62.2,27.2c-4.4,9.1-27.9,19.3-32.7,26.1c-0.7,1-1,1.9-0.9,2.7c9,7.7,20.8,9.3,31.9,12.4
		c2.5,0.3,4.8,0.4,7.2,0.3C267.8,1156.5,280,1148.1,288.2,1137.4z"/>
</g>
</svg>
