<?xml version="1.0" encoding="utf-8"?>
<!-- Generator: Adobe Illustrator 18.1.0, SVG Export Plug-In . SVG Version: 6.00 Build 0)  -->
<svg version="1.1" id="Layer_1" xmlns="http://www.w3.org/2000/svg" xmlns:xlink="http://www.w3.org/1999/xlink" x="0px" y="0px"
	 viewBox="0 0 150 150" enable-background="new 0 0 150 150" xml:space="preserve">
<g>
	<path fill="#949394" d="M35,27.5c-9,2.6-18.1,6.2-27.5,10.9c0,0,10.5-4.5,27.5-8V27.5z"/>
	<path fill="#949394" d="M110.7,27.1c0.7,0.7,1.4,1.4,2.1,2.2c10.2,2,20.8,4.9,31.4,9.2c0,0-13.7-8.4-36-13.3
		C109,25.7,109.9,26.3,110.7,27.1z"/>
	<path fill="#ADADAD" d="M35,37.2c-9,2.6-18.1,6.2-27.5,10.9c0,0,10.5-4.4,27.5-8V37.2z"/>
	<path fill="#ADADAD" d="M117,37.1c0.3,0.9,0.5,1.9,0.6,2.9c8.7,1.9,17.5,4.6,26.4,8.1C144.1,48.1,134,41.9,117,37.1z"/>
	<path fill="#B4B4B5" d="M35,54.4C25,57,16.3,60.7,6.6,65.6c0,0,10.4-4.6,28.4-8.2V54.4z"/>
	<path fill="#B4B4B5" d="M64,53.4c8-0.4,15.5-0.5,23.9,0c0.7-1.1,1-2.4,1.2-4c-7.7-0.8-16-0.9-25-0.3V53.4z"/>
	<path fill="#B4B4B5" d="M114,56.9c9.5,2,19.3,4.8,29.2,8.7c0,0-10.3-6.3-27.7-11.2C115,55.2,114.5,56.1,114,56.9z"/>
	<path fill="#ADADAD" d="M144.1,56.8c0,0-9.8-5.9-26.2-10.8c-0.1,0.9-0.2,1.8-0.4,2.6C126.2,50.6,135.1,53.3,144.1,56.8z"/>
	<path fill="#ADADAD" d="M88.5,44.7c-0.5-1.1-1.1-2-2-2.8c-0.8-0.7-2-1.3-3.4-1.6C77.1,39.9,71,40,64,40.5v4.3
		C72,44.3,79.9,44.2,88.5,44.7z"/>
	<path fill="#ADADAD" d="M35,45.9c-9,2.6-18.1,6.2-27.5,10.9c0,0,10.5-4.5,27.5-8V45.9z"/>
	<path fill="#BFBEBE" d="M35,74.4C26,77,17.5,80.4,8.5,85c0,0,9.5-4.3,26.5-7.8V74.4z"/>
	<path fill="#BFBEBE" d="M118.2,74.1c0.7,1,1.3,2.1,1.9,3.2c8.2,1.9,16.6,4.4,25,7.8C145.1,85,135.1,78.9,118.2,74.1z"/>
	<path fill="#B4B4B5" d="M35,64.4C26,67,16.9,70.5,7.5,75.3c0,0,10.5-4.4,27.5-8V64.4z"/>
	<path fill="#B4B4B5" d="M103,64.5c13.2,1.8,27.1,5.2,41.1,10.8c0,0-13.6-8.3-35.8-13.3C106.7,63,105,63.8,103,64.5z"/>
	<path fill="#D0D0D1" d="M35,103.7c-10,2.6-19.3,6.3-29.4,11.5c0,0,10.4-4.8,29.4-8.4V103.7z"/>
	<path fill="#D0D0D1" d="M116.8,104.6c-0.6,0.8-1.3,1.5-2,2.2c8.9,1.9,18.1,4.6,27.3,8.3C142.2,115.1,132.8,109.4,116.8,104.6z"/>
	<path fill="#D0D0D1" d="M121.3,96c-0.2,0.7-0.5,1.5-0.7,2.2c7.4,1.8,15,4.2,22.6,7.2C143.2,105.4,135.1,100.5,121.3,96z"/>
	<path fill="#D0D0D1" d="M35,97.2v-2.9c-10,2.6-18.7,6.3-28.4,11.2C6.6,105.4,17,100.8,35,97.2z"/>
	<path fill="#D0D0D1" d="M64,89v4.3c8-0.4,15.6-0.5,24,0c0.7-0.3,1.3-0.7,1.8-1.1c0.9-0.7,1.5-1.6,2-2.6C83.3,88.6,74,88.3,64,89z"
		/>
	<path fill="#BFBEBE" d="M35,83.8C26,86.4,16.9,90,7.5,94.7c0,0,10.5-4.4,27.5-8V83.8z"/>
	<path fill="#BFBEBE" d="M122.4,87.7c7.2,1.8,14.4,4.1,21.7,7c0,0-8.1-4.9-21.9-9.4C122.3,86.1,122.4,86.9,122.4,87.7z"/>
	<path fill="#BFBEBE" d="M90.3,78.6c-8.1-0.8-16.3-1-26.3-0.2v4.3c9-0.6,18.5-0.6,28.6,0.2C92.3,81.2,91.5,79.8,90.3,78.6z"/>
	<path fill="#DDDDDC" d="M7.2,134.6c0,0,66.1-28.2,137,0C144.1,134.6,82,96.7,7.2,134.6z"/>
	<path fill="#949394" d="M35,20h4.6c25.9-4,63.5-6,102.6,9.5c0,0-62-37.8-136.8,0.1c0,0,10.6-4.7,29.6-8.4V20z"/>
	<path fill="#DDDDDC" d="M35,115v-1.3c-10,2.6-18.9,6.1-28.6,11.1c0,0,13.7-5.7,35.5-9.7H35z"/>
	<path fill="#DDDDDC" d="M143.2,124.8c0,0-13.4-8.2-35.3-13.1c-2.1,0.9-4.8,1.6-8.2,2.1C113.6,115.5,128.3,118.9,143.2,124.8z"/>
</g>
</svg>
