<?xml version="1.0" encoding="utf-8"?>
<!-- Generator: Adobe Illustrator 18.1.0, SVG Export Plug-In . SVG Version: 6.00 Build 0)  -->
<svg version="1.1" id="Layer_1" xmlns="http://www.w3.org/2000/svg" xmlns:xlink="http://www.w3.org/1999/xlink" x="0px" y="0px"
	 viewBox="0 0 150 150" enable-background="new 0 0 150 150" xml:space="preserve">
<g>
	<g>
		<path fill="#4B6170" d="M25.2,100.6c0-2.6,1.9,2.7,5,7.8V95.8h5.7v20.5c2,2.3,4.1,4.5,6.3,6.6V95.8H48V128c2.1,1.7,4.2,3.4,6.3,5
			V95.8H60v41.3c2.3,1.5,4.4,2.9,6.3,4.1V95.8H72v48.9c2,1.1,3.1,1.7,3.1,1.7s1.2-0.6,3.2-1.7V95.8H84v45.4c1.9-1.2,4-2.6,6.3-4.1
			V95.8H96V133c2.1-1.5,4.2-3.2,6.3-5V95.8h5.7v27.1c2.2-2.1,4.3-4.3,6.3-6.6V95.8h5.7v12.7c3.1-5.1,5-10.4,5-7.8V88.1H25.2V100.6z"
			/>
	</g>
	<g>
		<path fill="#FFE700" d="M26.3,65.4l0.5-1.5l1.2-0.2v-0.5l2.3-0.1l0.5,0l0.2-0.9v-2.3l1.5,0.2v-0.7l2.3-0.1v-2.4v-2.4h2.4h7.3v-1.5
			h2.4h1.8v-0.8v-1.6l1.5-0.6l2.5-1l0.4-0.2h0.1v-1.5v-2.4h2.4h0.5v-1.6h2.4h1.3l1.1-0.8l2.5-0.1l2.5,0l0.4,2.4h0.1l2.5,0V47v1.1
			l0.6-0.1l0.2-0.2v0.2l2.4-0.2v0.5h0.2l3.9-0.1l2.5,0l0,1.8h0.9l0.3-0.8l0.2-0.5l0.3-0.3v-0.2v-2.4l2.4,0l2,0l2.4,0v2.4v0.4
			l0.1,0.2l0.6,1.1l0.8,0l1.1,0v-9.3v-1.7l1.6-0.6l7.3-2.5l0.8-0.3L100,36l9.9,3.4l1.6,0.6v0.8h1.2h3h2.4v0.6h6.3
			C117.8,20.8,98.5,5.8,75.7,5.8C47.5,5.8,24.6,28.7,24.6,57c0,3.2,0.3,6.4,0.9,9.4l0.7-0.5L26.3,65.4z"/>
	</g>
	<g>
		<rect x="57" y="60" fill="none" width="2" height="2"/>
		<rect x="74" y="64" fill="none" width="2" height="3"/>
		<rect x="57" y="66" fill="none" width="2" height="3"/>
		<rect x="64" y="72" fill="none" width="2" height="2"/>
		<rect x="68" y="55" fill="none" width="2" height="2"/>
		<rect x="56.8" y="49.1" fill="none" width="1.3" height="1.4"/>
		<rect x="49.6" y="74" fill="none" width="1.3" height="1.4"/>
		<rect x="38.1" y="58.6" fill="none" width="1.3" height="1.4"/>
		<rect x="28.4" y="71.2" fill="none" width="1.3" height="1.4"/>
		<rect x="43.4" y="60.7" fill="none" width="1.3" height="1.4"/>
		<rect x="48" y="64" fill="none" width="2" height="3"/>
		<rect x="61" y="60" fill="none" width="2" height="2"/>
		<rect x="121" y="55" fill="none" width="2" height="2"/>
		<rect x="122" y="59" fill="none" width="2" height="2"/>
		<rect x="113" y="49" fill="none" width="2" height="2"/>
		<rect x="114" y="67" fill="none" width="2" height="2"/>
		<rect x="87" y="69" fill="none" width="2" height="2"/>
		<rect x="98" y="48" fill="none" width="2" height="2"/>
		<rect x="93" y="43" fill="none" width="2" height="2"/>
		<rect x="104" y="56" fill="none" width="2" height="2"/>
		<rect x="103" y="48" fill="none" width="2" height="2"/>
		<rect x="94" y="56" fill="none" width="2" height="2"/>
		<rect x="104" y="59" fill="none" width="2" height="2"/>
		<path fill="#0076A0" d="M124.4,44h-0.8H117v1h-1v-2h-3v2v0.4l-4,0.1v-3.8l-9.8-3.5L92,40.8v10.6V51v-0.9l-1-0.1v1.1l-1,0.1V53
			l-0.6,0.8l-0.7-1.3l-2.7,0v-1.3l-0.5-1L85,49.3v-1l-2,0v1.1L82.4,50L82,51.2v8l-1,0.1V60l-1-0.1v-7.5l-3.7,0l0.3-1.7L73,50.8V52
			h-2v-0.8l-1,0v0.6v-0.6v-0.1l-1,0.1v1l-2,0V47l-3,0.1v-1.7v0v-0.6l-2,0V44h-1v1h-1v1h-1v1h-3v4h-2.1L51,52.1v8.5v0V60h-1v-1.6v0
			v-1.1v0V55h-3v7.9l-1,0v6.6v0V57h-9v4.6v0.1V61l-1,0v0.6l-1,0v0.9l-1,0v-0.5v0V63h-1v2.3l-2,0.2v1.2l-0.8,0l0-0.7L29,66.1
			l-0.4,1.4L26,69.3V76l-1,0v0.7c0,0.5,0.2,4.4,0.4,9.4h98.3h1.4V44H124.4z M29.7,72.6h-1.3v-1.4h1.3V72.6z M39.4,60h-1.3v-1.4h1.3
			V60z M44.7,62.1h-1.3v-1.4h1.3V62.1z M50,67h-2v-3h2V67z M50.9,75.5h-1.3V74h1.3V75.5z M56.8,49.1h1.3v1.4h-1.3V49.1z M59,69h-2
			v-3h2V69z M59,62h-2v-2h2V62z M63,62h-2v-2h2V62z M66,74h-2v-2h2V74z M70,57h-2v-2h2V57z M76,67h-2v-3h2V67z M89,71h-2v-2h2V71z
			 M93,43h2v2h-2V43z M96,58h-2v-2h2V58z M100,50h-2v-2h2V50z M103,48h2v2h-2V48z M106,61h-2v-2h2V61z M106,58h-2v-2h2V58z M113,49
			h2v2h-2V49z M116,69h-2v-2h2V69z M121,55h2v2h-2V55z M124,61h-2v-2h2V61z"/>
	</g>
</g>
</svg>
