<?xml version="1.0" encoding="utf-8"?>
<!-- Generator: Adobe Illustrator 18.1.0, SVG Export Plug-In . SVG Version: 6.00 Build 0)  -->
<svg version="1.0" id="Layer_1" xmlns="http://www.w3.org/2000/svg" xmlns:xlink="http://www.w3.org/1999/xlink" x="0px" y="0px"
	 viewBox="0 0 150 150" enable-background="new 0 0 150 150" xml:space="preserve">
<g>
	<path fill="#43312B" d="M116.6,144.2c-7.8-3.3-20.7-5.7-35.7-6.3c-4.8-4.9-7.4-15.5,4.3-38.4c8.3-8.7-15-2.4-15-2.4l-13.9,0.3
		c0,0,4.7,14.8,6.3,25.2c0.3,5.9-0.7,11.8-4.6,15.8c-13.2,1.1-24.1,3.6-30.4,6.8c8.4-1.7,18.6-2.9,29.9-3.6c0,0,0.1,0,0.1,0.1
		c0.5-0.1,1.1-0.1,1.6-0.2c5-0.3,10.3-0.4,15.6-0.4C90.5,141.2,104.9,142.3,116.6,144.2z"/>
	<g>
		<g>
			<g>
				<path fill="#599542" d="M30.9,37.4c0,0,1.9-9.2,6.5-2.1C43.6,46.9,49.4,49,51,56.8c1.1,5.4-8,14.8-16.1,5.7
					C29,55.7,29.3,46.6,30.9,37.4z"/>
				<path fill="#528A3F" d="M45,65.5c0,0-8.6-11.5-11.5-29.9c0,0,2.4,14.7,12.5,29.5C45.8,65.3,45,65.5,45,65.5z"/>
			</g>
			<g>
				<path fill="#58A545" d="M61.9,43.8c0,0,8.3-4.5,5.8,3.6c-5,12.2-3,18-7.9,24.2c-3.5,4.2-16.5,3.2-14.6-8.7
					C46.6,53.9,53.8,48.3,61.9,43.8z"/>
				<path fill="#528A3F" d="M49.2,72.6c0,0,3.4-14,15.7-27.9c0,0-9.8,11.2-14.8,28.5C49.8,73,49.2,72.6,49.2,72.6z"/>
			</g>
			<g>
				<path fill="#58A545" d="M19.4,63.3c0,0-9,2.8-1.4,6.6c12.2,5,14.9,10.5,22.8,11.4c5.4,0.5,13.9-9.5,4-16.6
					C37.4,59.5,28.3,60.7,19.4,63.3z"/>
				<path fill="#528A3F" d="M48.8,74.5c0,0-12.4-7.3-30.9-8.3c0,0,14.9,0.9,30.7,9.5C48.7,75.2,48.8,74.5,48.8,74.5z"/>
			</g>
		</g>
		<g>
			<g>
				<path fill="#599542" d="M135.5,56.3c0,0,13.3,3.6,2.5,9.6c-17.5,8-21.2,16.2-32.6,17.9c-7.9,1-20.9-13.1-6.8-23.9
					C109,51.8,122.3,53,135.5,56.3z"/>
				<path fill="#528A3F" d="M93.2,74.2c0,0,17.6-11.4,44.6-13.9c0,0-21.7,2.1-44.2,15.5C93.4,75.3,93.2,74.2,93.2,74.2z"/>
			</g>
			<g>
				<path fill="#58A545" d="M123.3,100.9c0,0,5.7,12.5-5.8,8.1c-17.3-8.4-26-6-34.6-13.8C77,89.7,79.7,70.7,97,74.7
					C109.9,77.6,117.4,88.6,123.3,100.9z"/>
				<path fill="#528A3F" d="M82.5,79.7c0,0,20,6.3,39.1,25.5c0,0-15.4-15.4-40.1-24.2C81.8,80.5,82.5,79.7,82.5,79.7z"/>
			</g>
			<g>
				<path fill="#58A545" d="M98.8,37.1c0,0-3.2-13.4-9.6-2.7C80.8,51.6,72.5,55,70.5,66.5c-1.2,7.9,12.6,21.2,23.8,7.4
					C102.6,63.6,101.7,50.3,98.8,37.1z"/>
				<path fill="#528A3F" d="M79.8,78.9c0,0,11.9-17.3,15-44.2c0,0-2.6,21.6-16.6,43.8C78.7,78.7,79.8,78.9,79.8,78.9z"/>
			</g>
		</g>
		<g>
			<g>
				<path fill="#599542" d="M77.2,7.6c0,0,7.8-8.1,7.9,2c-1.1,15.7,3.3,21.6,0,30.5c-2.4,6.1-17.6,9.8-19.9-4.5
					C63.5,24.9,69.6,15.8,77.2,7.6z"/>
				<path fill="#528A3F" d="M73.4,45.1c0,0-1.2-17.2,7.6-37.6c0,0-7,16.4-6.3,37.9C74.2,45.4,73.4,45.1,73.4,45.1z"/>
			</g>
			<g>
				<path fill="#58A545" d="M104.4,34c0,0,11.2,0.8,3.5,7.4c-12.9,9.2-14.5,16.3-23.5,19.4c-6.2,2-18.8-7.3-9.2-18.2
					C82.4,34.4,93.3,33.4,104.4,34z"/>
				<path fill="#528A3F" d="M73.1,55c0,0,12.5-11.9,33.8-18.1c0,0-17.1,5-33.2,19.3C73.4,55.8,73.1,55,73.1,55z"/>
			</g>
			<g>
				<path fill="#58A545" d="M48.9,26.5c0,0-10.9-2.9-5.7,5.8c9.1,12.9,8.3,20.2,15.8,26.1c5.2,4,20.2-0.7,14.7-14.2
					C69.5,34.1,59.6,29.6,48.9,26.5z"/>
				<path fill="#528A3F" d="M71.5,56.6c0,0-7.8-15.4-25.9-28.3c0,0,14.5,10.4,25,29.2C70.9,57.3,71.5,56.6,71.5,56.6z"/>
			</g>
		</g>
		<g>
			<g>
				<path fill="#599542" d="M66.5,67.1c0,0,3.8-6,5.1,0.2c1.3,9.8,4.7,12.9,3.8,18.8c-0.7,4.1-9.6,8.3-12.8-0.3
					C60.2,79.5,62.8,73.1,66.5,67.1z"/>
				<path fill="#528A3F" d="M68.8,90.7c0,0-2.9-10.4,0-24.1c0,0-2.3,11,0.9,24.1C69.4,90.7,68.8,90.7,68.8,90.7z"/>
			</g>
			<g>
				<path fill="#58A545" d="M86.5,79.9c0,0,7-0.9,3.1,4.1c-6.8,7.2-6.9,11.9-12,14.9c-3.6,2-12.5-2.2-7.9-10.1
					C73,83,79.6,81,86.5,79.9z"/>
				<path fill="#528A3F" d="M69.9,96.8c0,0,6.2-8.9,18.5-15.4c0,0-9.9,5.2-18,16.1C70.2,97.3,69.9,96.8,69.9,96.8z"/>
			</g>
			<g>
				<path fill="#58A545" d="M51.4,82.3c0,0-7.1-0.5-2.8,4.3c7.2,6.8,7.7,11.4,13,14.1c3.7,1.8,12.3-3,7.3-10.6
					C65.1,84.4,58.4,82.8,51.4,82.3z"/>
				<path fill="#528A3F" d="M69.1,98c0,0-6.7-8.5-19.5-14.2c0,0,10.2,4.6,19,14.9C68.8,98.5,69.1,98,69.1,98z"/>
			</g>
		</g>
		<g>
			<g>
				<path fill="#599542" d="M63.4,50.3c0,0,4.5-7.2,6.1,0.3c1.5,11.8,5.7,15.5,4.6,22.5c-0.8,4.9-11.6,9.9-15.4-0.4
					C55.9,65.1,59.1,57.5,63.4,50.3z"/>
				<path fill="#528A3F" d="M66.3,78.6c0,0-3.5-12.5,0-28.9c0,0-2.7,13.2,1.1,29C66.9,78.7,66.3,78.6,66.3,78.6z"/>
			</g>
			<g>
				<path fill="#58A545" d="M87.5,65.7c0,0,8.4-1.1,3.7,4.9c-8.1,8.7-8.3,14.2-14.5,17.9c-4.3,2.5-15-2.6-9.5-12.1
					C71.3,69.3,79.2,66.9,87.5,65.7z"/>
				<path fill="#528A3F" d="M67.5,85.9c0,0,7.4-10.7,22.2-18.5c0,0-11.9,6.3-21.6,19.3C67.9,86.5,67.5,85.9,67.5,85.9z"/>
			</g>
			<g>
				<path fill="#58A545" d="M45.3,68.5c0,0-8.5-0.5-3.4,5.1c8.7,8.1,9.2,13.7,15.6,16.9c4.4,2.2,14.8-3.6,8.7-12.7
					C61.8,71,53.7,69.2,45.3,68.5z"/>
				<path fill="#528A3F" d="M66.6,87.3c0,0-8.1-10.2-23.4-17c0,0,12.3,5.5,22.8,17.8C66.3,87.9,66.6,87.3,66.6,87.3z"/>
			</g>
		</g>
		<g>
			<g>
				<path fill="#599542" d="M86.9,55.4c0,0,3.8-6,5.1,0.2c1.3,9.8,4.7,12.9,3.8,18.8c-0.7,4.1-9.6,8.3-12.8-0.3
					C80.6,67.7,83.3,61.4,86.9,55.4z"/>
				<path fill="#528A3F" d="M89.3,78.9c0,0-2.9-10.4,0-24.1c0,0-2.3,11,0.9,24.1C89.8,79,89.3,78.9,89.3,78.9z"/>
			</g>
			<g>
				<path fill="#58A545" d="M107,68.2c0,0,7-0.9,3.1,4.1c-6.8,7.2-6.9,11.9-12,14.9c-3.6,2-12.5-2.2-7.9-10.1
					C93.5,71.2,100,69.2,107,68.2z"/>
				<path fill="#528A3F" d="M90.3,85c0,0,6.2-8.9,18.5-15.4c0,0-9.9,5.2-18,16.1C90.6,85.5,90.3,85,90.3,85z"/>
			</g>
			<g>
				<path fill="#58A545" d="M71.8,70.5c0,0-7.1-0.5-2.8,4.3c7.2,6.8,7.7,11.4,13,14.1c3.7,1.8,12.3-3,7.3-10.6
					C85.5,72.6,78.8,71.1,71.8,70.5z"/>
				<path fill="#528A3F" d="M89.5,86.2c0,0-6.7-8.5-19.5-14.2c0,0,10.2,4.6,19,14.9C89.2,86.7,89.5,86.2,89.5,86.2z"/>
			</g>
		</g>
		<g>
			<g>
				<path fill="#599542" d="M15.1,83c0,0-4.6-5.6,1.9-4.9c10,2,14.1-0.4,19.5,2.4c3.7,2,4.9,12-4.4,12.4
					C25.1,93.1,19.7,88.5,15.1,83z"/>
				<path fill="#528A3F" d="M38.8,88.4c0,0-11.1-0.5-23.4-7.8c0,0,9.9,5.8,23.8,7C39,87.9,38.8,88.4,38.8,88.4z"/>
			</g>
			<g>
				<path fill="#58A545" d="M34.1,67.7c0,0,1.4-7.1,5-1.7c4.9,8.9,9.3,10.6,10.6,16.5c0.8,4.1-6.2,11.5-12.4,4.5
					C32.6,81.8,32.8,74.7,34.1,67.7z"/>
				<path fill="#528A3F" d="M45,89.3c0,0-6.6-8.9-9-23c0,0,1.9,11.3,9.8,22.7C45.6,89.2,45,89.3,45,89.3z"/>
			</g>
			<g>
				<path fill="#58A545" d="M24.9,102.6c0,0-2.7,6.7,3.3,4.1c8.9-4.8,13.6-3.8,17.9-8c3-3,1.1-13-7.9-10.5
					C31.4,90,27.7,96,24.9,102.6z"/>
				<path fill="#528A3F" d="M45.9,90.5c0,0-10.4,3.8-20.1,14.4c0,0,7.8-8.5,20.6-13.7C46.3,90.9,45.9,90.5,45.9,90.5z"/>
			</g>
		</g>
		<g>
			<g>
				<path fill="#599542" d="M34.8,79.7c0,0-1.1-7.2,4.1-3.3c7.6,6.7,12.3,6.7,15.6,11.9c2.2,3.6-1.8,12.9-10.1,8.4
					C38.3,93.4,36,86.8,34.8,79.7z"/>
				<path fill="#528A3F" d="M52.5,96.3c0,0-9.3-6.1-16.3-18.5c0,0,5.7,10,17,18C53,95.9,52.5,96.3,52.5,96.3z"/>
			</g>
			<g>
				<path fill="#58A545" d="M58.9,76c0,0,4.8-5.4,5.1,1.1c-0.3,10.2,2.7,13.8,0.8,19.6c-1.4,4-11.1,6.8-12.9-2.4
					C50.5,87.5,54.3,81.5,58.9,76z"/>
				<path fill="#528A3F" d="M57.4,100.2c0,0-1.2-11,3.9-24.4c0,0-4.1,10.7-3.1,24.6C58,100.4,57.4,100.2,57.4,100.2z"/>
			</g>
			<g>
				<path fill="#58A545" d="M33.4,101.5c0,0-5.8,4.4,0.7,5.2c10.2,0.4,13.6,3.6,19.5,2.1c4.1-1.1,7.5-10.6-1.5-13.1
					C45.4,94,39.1,97.3,33.4,101.5z"/>
				<path fill="#528A3F" d="M57.6,101.7c0,0-10.9-2-24.6,2.2c0,0,11-3.4,24.7-1.4C57.8,102.3,57.6,101.7,57.6,101.7z"/>
			</g>
		</g>
	</g>
</g>
</svg>
