<?xml version="1.0" encoding="iso-8859-1"?>
<!-- Generator: Adobe Illustrator 13.0.0, SVG Export Plug-In . SVG Version: 6.00 Build 14948)  -->
<!DOCTYPE svg PUBLIC "-//W3C//DTD SVG 1.1//EN" "http://www.w3.org/Graphics/SVG/1.1/DTD/svg11.dtd">
<svg version="1.1" id="Layer_1" xmlns="http://www.w3.org/2000/svg" xmlns:xlink="http://www.w3.org/1999/xlink" x="0px" y="0px"
	 width="100px" height="100px" viewBox="0 0 100 100" enable-background="new 0 0 100 100" xml:space="preserve">
<g>
	<g>
		<path fill="#8EBF66" d="M77.076,70.882c-0.288,0.604-1,0.85-1.591,0.561c-0.598-0.279-0.849-0.996-0.562-1.584
			c0.278-0.602,0.989-0.854,1.591-0.559C77.108,69.577,77.361,70.297,77.076,70.882L77.076,70.882z M79.705,67.399
			c-0.301,0.626-1.059,0.904-1.686,0.594c-0.63-0.299-0.895-1.051-0.596-1.687c0.308-0.63,1.059-0.897,1.688-0.587
			C79.741,66.013,80.013,66.771,79.705,67.399L79.705,67.399z M81.843,63.485c-0.324,0.662-1.12,0.941-1.789,0.625
			c-0.667-0.318-0.941-1.11-0.626-1.781c0.313-0.664,1.119-0.941,1.779-0.629C81.873,62.021,82.159,62.814,81.843,63.485
			L81.843,63.485z M83.395,59.205c-0.333,0.698-1.18,0.999-1.876,0.664c-0.701-0.334-1-1.175-0.656-1.879
			c0.327-0.696,1.173-0.997,1.872-0.662C83.432,57.668,83.73,58.501,83.395,59.205L83.395,59.205z M84.291,54.643
			c-0.355,0.736-1.229,1.044-1.966,0.69c-0.74-0.351-1.056-1.237-0.698-1.969c0.354-0.731,1.23-1.044,1.969-0.696
			C84.331,53.022,84.647,53.905,84.291,54.643L84.291,54.643z M84.441,49.88c-0.369,0.778-1.298,1.1-2.062,0.731
			c-0.774-0.37-1.102-1.292-0.733-2.072c0.369-0.765,1.291-1.085,2.072-0.724C84.48,48.191,84.812,49.115,84.441,49.88L84.441,49.88
			z M83.799,45.055c-0.383,0.808-1.353,1.149-2.159,0.758c-0.808-0.383-1.146-1.353-0.764-2.159
			c0.387-0.799,1.351-1.139,2.157-0.756C83.84,43.279,84.182,44.249,83.799,45.055L83.799,45.055z M82.325,40.278
			c-0.397,0.849-1.41,1.203-2.257,0.799c-0.833-0.402-1.188-1.413-0.794-2.253c0.413-0.842,1.415-1.188,2.255-0.793
			C82.38,38.435,82.734,39.447,82.325,40.278L82.325,40.278z M80.001,35.729c-0.424,0.874-1.476,1.24-2.352,0.826
			c-0.875-0.423-1.244-1.468-0.827-2.344c0.418-0.879,1.47-1.251,2.351-0.835C80.047,33.802,80.424,34.854,80.001,35.729
			L80.001,35.729z M76.816,31.547c-0.438,0.913-1.53,1.298-2.441,0.869c-0.908-0.445-1.294-1.54-0.861-2.454
			c0.433-0.91,1.534-1.291,2.441-0.854C76.868,29.545,77.253,30.638,76.816,31.547L76.816,31.547z M72.819,27.924
			c-0.45,0.945-1.593,1.34-2.534,0.89c-0.945-0.452-1.354-1.595-0.89-2.534c0.45-0.943,1.586-1.353,2.527-0.896
			C72.88,25.843,73.273,26.968,72.819,27.924L72.819,27.924z M68.076,25.022c-0.471,0.99-1.646,1.401-2.63,0.935
			c-0.986-0.47-1.402-1.653-0.933-2.639c0.475-0.981,1.657-1.399,2.64-0.92C68.132,22.869,68.548,24.046,68.076,25.022
			L68.076,25.022z M62.705,23.04c-0.485,1.011-1.708,1.449-2.727,0.956c-1.016-0.491-1.446-1.707-0.961-2.727
			c0.491-1.018,1.713-1.447,2.724-0.954C62.759,20.792,63.191,22.022,62.705,23.04L62.705,23.04z M56.864,22.125
			c-0.5,1.05-1.764,1.488-2.813,0.991c-1.054-0.507-1.504-1.766-1-2.824c0.507-1.052,1.771-1.497,2.822-0.99
			C56.927,19.808,57.368,21.07,56.864,22.125L56.864,22.125z M50.769,22.432c-0.52,1.093-1.831,1.552-2.917,1.025
			c-1.085-0.52-1.552-1.817-1.023-2.91c0.518-1.087,1.821-1.543,2.917-1.032C50.824,20.04,51.289,21.351,50.769,22.432
			L50.769,22.432z M44.667,24.085c-0.54,1.126-1.878,1.602-3.006,1.057c-1.127-0.529-1.598-1.876-1.059-3.002
			c0.534-1.121,1.886-1.6,3.008-1.059C44.729,21.618,45.208,22.964,44.667,24.085L44.667,24.085z M38.857,27.114
			c-0.552,1.153-1.938,1.645-3.091,1.091c-1.164-0.552-1.657-1.938-1.102-3.103c0.555-1.16,1.945-1.646,3.102-1.092
			C38.92,24.563,39.413,25.957,38.857,27.114L38.857,27.114z M33.693,31.526c-0.564,1.198-2.002,1.701-3.189,1.128
			c-1.196-0.575-1.701-2.004-1.135-3.196c0.575-1.191,2.007-1.698,3.198-1.128C33.762,28.902,34.268,30.337,33.693,31.526
			L33.693,31.526z M29.546,37.246c-0.587,1.23-2.064,1.741-3.294,1.161c-1.23-0.593-1.75-2.063-1.153-3.292
			c0.587-1.23,2.056-1.75,3.285-1.162C29.612,34.548,30.131,36.016,29.546,37.246L29.546,37.246z M26.766,44.044
			c-0.61,1.264-2.12,1.796-3.385,1.198c-1.269-0.604-1.801-2.12-1.194-3.391c0.608-1.264,2.123-1.797,3.381-1.189
			C26.839,41.27,27.373,42.786,26.766,44.044L26.766,44.044z M25.72,51.629c-0.621,1.3-2.179,1.854-3.483,1.23
			c-1.299-0.617-1.847-2.181-1.226-3.478c0.625-1.297,2.18-1.851,3.479-1.229C25.787,48.774,26.335,50.332,25.72,51.629
			L25.72,51.629z M26.704,59.562c-0.642,1.333-2.241,1.892-3.574,1.266c-1.331-0.645-1.9-2.243-1.265-3.583
			c0.643-1.331,2.244-1.897,3.581-1.255C26.778,56.623,27.346,58.23,26.704,59.562L26.704,59.562z M29.9,67.271
			c-0.648,1.363-2.294,1.943-3.663,1.299c-1.365-0.666-1.945-2.303-1.288-3.679c0.653-1.365,2.294-1.945,3.668-1.292
			C29.985,64.256,30.566,65.894,29.9,67.271L29.9,67.271z"/>
	</g>
	<g>
		<path fill="#2B5F98" d="M43.235,66.874c1.849,0.086,3.609,0.264,5.086,0.431c0.881,0.108,1.719,0.237,2.545,0.359l1.273,0.221
			l0.383,0.071v-1.089l-4.515-1.288V52.083H55.7l1.612,5.942h1.613V43.932h-1.752l-1.427,5.94h-7.738v-8.429
			c0-0.368,0.062-0.729,0.185-1.082c0.123-0.352,0.292-0.667,0.507-0.945c0.213-0.306,0.489-0.568,0.827-0.781
			c0.34-0.215,0.708-0.37,1.107-0.461c0.706-0.123,1.42-0.201,2.141-0.231s1.45-0.016,2.188,0.046
			c0.922,0.062,1.835,0.208,2.74,0.438c0.906,0.23,1.772,0.531,2.603,0.899c0.706,0.306,1.398,0.66,2.073,1.059
			c0.675,0.398,1.318,0.829,1.935,1.29c0.614,0.49,1.197,1.013,1.749,1.564c0.554,0.554,1.06,1.135,1.521,1.751l1.427-0.415
			l-3.086-8.567H38.982v1.429l4.191,1.151v27.08l-4.006,1.062v0.103c0.359-0.007,0.725-0.021,1.081-0.021
			C41.239,66.812,42.233,66.835,43.235,66.874z"/>
		<path fill="#8EBF66" d="M88.623,70.544c-0.794,0.197-1.586,0.368-2.379,0.53c-1.597,0.313-3.183,0.567-4.78,0.766
			c-3.179,0.392-6.361,0.582-9.541,0.582c-0.792,0-1.584-0.017-2.378-0.027c-0.797-0.028-1.591-0.048-2.385-0.098
			c-1.584-0.094-3.172-0.204-4.746-0.374c-1.59-0.17-3.165-0.364-4.734-0.608c-0.789-0.124-1.58-0.253-2.367-0.39l-1.182-0.219
			c-0.149-0.034-0.357-0.075-0.539-0.114l-0.582-0.139l-0.657-0.128l-0.612-0.117l-1.229-0.21c-0.81-0.125-1.626-0.25-2.449-0.351
			c-1.639-0.184-3.278-0.34-4.919-0.417c-1.653-0.062-3.294-0.091-4.939-0.016c-0.822,0.037-1.649,0.078-2.468,0.147
			c-0.819,0.065-1.637,0.156-2.458,0.258c-3.274,0.424-6.528,1.132-9.717,2.22c-1.593,0.548-3.171,1.175-4.714,1.92
			c-0.774,0.378-1.536,0.779-2.3,1.227c-0.74,0.441-1.486,0.898-2.198,1.452c0.787-0.26,1.585-0.477,2.377-0.671
			c0.794-0.201,1.586-0.368,2.38-0.53c1.596-0.313,3.186-0.569,4.784-0.759c3.175-0.396,6.357-0.58,9.538-0.58
			c0.792-0.014,1.584,0.004,2.377,0.019c0.794,0.028,1.586,0.055,2.378,0.096c1.591,0.096,3.169,0.199,4.755,0.37
			c1.587,0.169,3.157,0.363,4.73,0.614c0.79,0.117,1.582,0.252,2.363,0.39l1.173,0.212l1.136,0.221l0.615,0.133
			c0.212,0.05,0.409,0.097,0.653,0.146c0.413,0.061,0.822,0.135,1.217,0.204c0.822,0.129,1.64,0.253,2.462,0.35
			c0.818,0.101,1.639,0.185,2.46,0.251c0.818,0.069,1.639,0.137,2.466,0.163c1.642,0.062,3.287,0.091,4.929,0.015
			c0.831-0.027,1.653-0.073,2.472-0.143c0.82-0.069,1.638-0.156,2.458-0.26c3.274-0.418,6.533-1.136,9.717-2.214
			c1.593-0.548,3.172-1.177,4.715-1.928c0.772-0.368,1.539-0.777,2.292-1.208c0.749-0.447,1.493-0.91,2.205-1.463
			C90.209,70.126,89.415,70.343,88.623,70.544z"/>
		<path fill="#2B5F98" d="M88.623,70.544c-0.794,0.197-1.586,0.368-2.379,0.53c-1.597,0.313-3.183,0.567-4.78,0.766
			c-3.179,0.392-6.361,0.582-9.541,0.582c-0.792,0-1.584-0.017-2.378-0.027c-0.797-0.028-1.591-0.048-2.385-0.098
			c-1.584-0.094-3.172-0.204-4.746-0.374c-1.59-0.17-3.165-0.364-4.734-0.608c-0.789-0.124-1.58-0.253-2.367-0.39l-1.182-0.219
			c-0.149-0.034-0.357-0.075-0.539-0.114l-0.582-0.139l-0.657-0.128l-0.612-0.117l-1.229-0.21c-0.81-0.125-1.626-0.25-2.449-0.351
			c-1.639-0.184-3.278-0.34-4.919-0.417c-1.653-0.062-3.294-0.091-4.939-0.016c-0.822,0.037-1.649,0.078-2.468,0.147
			c-0.819,0.065-1.637,0.156-2.458,0.258c-3.274,0.424-6.528,1.132-9.717,2.22c-1.593,0.548-3.171,1.175-4.714,1.92
			c-0.774,0.378-1.536,0.779-2.3,1.227c-0.74,0.441-1.486,0.898-2.198,1.452c0.787-0.26,1.585-0.477,2.377-0.671
			c0.794-0.201,1.586-0.368,2.38-0.53c1.596-0.313,3.186-0.569,4.784-0.759c3.175-0.396,6.357-0.58,9.538-0.58
			c0.792-0.014,1.584,0.004,2.377,0.019c0.794,0.028,1.586,0.055,2.378,0.096c1.591,0.096,3.169,0.199,4.755,0.37
			c1.587,0.169,3.157,0.363,4.73,0.614c0.79,0.117,1.582,0.252,2.363,0.39l1.173,0.212l1.136,0.221l0.615,0.133
			c0.212,0.05,0.409,0.097,0.653,0.146c0.413,0.061,0.822,0.135,1.217,0.204c0.822,0.129,1.64,0.253,2.462,0.35
			c0.818,0.101,1.639,0.185,2.46,0.251c0.818,0.069,1.639,0.137,2.466,0.163c1.642,0.062,3.287,0.091,4.929,0.015
			c0.831-0.027,1.653-0.073,2.472-0.143c0.82-0.069,1.638-0.156,2.458-0.26c3.274-0.418,6.533-1.136,9.717-2.214
			c1.593-0.548,3.172-1.177,4.715-1.928c0.772-0.368,1.539-0.777,2.292-1.208c0.749-0.447,1.493-0.91,2.205-1.463
			C90.209,70.126,89.415,70.343,88.623,70.544z"/>
	</g>
</g>
</svg>
