<?xml version="1.0" encoding="utf-8"?>
<!-- Generator: Adobe Illustrator 18.1.0, SVG Export Plug-In . SVG Version: 6.00 Build 0)  -->
<svg version="1.1" id="Layer_1" xmlns="http://www.w3.org/2000/svg" xmlns:xlink="http://www.w3.org/1999/xlink" x="0px" y="0px"
	 viewBox="0 0 150 150" enable-background="new 0 0 150 150" xml:space="preserve">
<g>
	<path fill="#242B3B" d="M13.1,50.8c2.5,0,4.5-2,4.5-4.5V21.5h24.8c2.5,0,4.5-2,4.5-4.5c0-2.5-2-4.5-4.5-4.5H16.9
		c-4.6,0-8.3,3.7-8.3,8.3v25.5C8.6,48.8,10.6,50.8,13.1,50.8z"/>
	<path fill="#242B3B" d="M132.9,12.5h-25.5c-2.5,0-4.5,2-4.5,4.5c0,2.5,2,4.5,4.5,4.5h24.8v24.8c0,2.5,2,4.5,4.5,4.5
		c2.5,0,4.5-2,4.5-4.5V20.8C141.2,16.2,137.5,12.5,132.9,12.5z"/>
	<path fill="#242B3B" d="M136.7,98.9c-2.5,0-4.5,2-4.5,4.5v24.8h-24.8c-2.5,0-4.5,2-4.5,4.5c0,2.5,2,4.5,4.5,4.5h25.5
		c4.6,0,8.3-3.7,8.3-8.3v-25.5C141.2,100.9,139.2,98.9,136.7,98.9z"/>
	<path fill="#242B3B" d="M42.4,128.2H17.5v-24.8c0-2.5-2-4.5-4.5-4.5c-2.5,0-4.5,2-4.5,4.5v25.5c0,4.6,3.7,8.3,8.3,8.3h25.5
		c2.5,0,4.5-2,4.5-4.5C46.8,130.2,44.8,128.2,42.4,128.2z"/>
	<polygon fill="#6FBEC5" points="132.6,56.2 74,79.9 15.5,56.2 74,32.4 	"/>
	<path fill="#6FBEC5" d="M74,83.8L35,68v24.7c0,2.6,17.5,16.1,39,16.1c21.6,0,39-13.5,39-16.1V68L74,83.8z"/>
	<path fill="#ECB34E" d="M124.2,90.4c2.1,0,3.8-1.8,3.8-4c0-1.7-1.1-3.2-2.5-3.8V63l-2.3,0.9v18.6c-1.6,0.5-2.8,2-2.8,3.8
		C120.4,88.6,122.1,90.4,124.2,90.4z"/>
	<path fill="#ECB34E" d="M128,90.4c-3.8,3.3-7.7-0.1-7.7-0.1s-1.4,5.5-1.7,9.2c-0.2,3.7,1.6,7.2,1.1,10.3c-0.5,3.1,0,6.8,0.6,8.7
		c0.6,1.9,1.8,1,1.8,1s-0.7-0.7-0.7-1.4c0-0.7,1.6-0.6,1.6-0.6v2c0,0,1,0,1.2-0.7c0.2-0.7,1.7-0.7,1.7-0.7l0.6-2.3c0,0,0.2,1,0.2,2
		c0,1.1,1.1,1.4,1.9,0C131.5,105.6,129,93.8,128,90.4z"/>
</g>
</svg>
