<?xml version="1.0" encoding="utf-8"?>
<!-- Generator: Adobe Illustrator 18.1.0, SVG Export Plug-In . SVG Version: 6.00 Build 0)  -->
<svg version="1.0" id="Layer_1" xmlns="http://www.w3.org/2000/svg" xmlns:xlink="http://www.w3.org/1999/xlink" x="0px" y="0px"
	 viewBox="0 0 150 150" enable-background="new 0 0 150 150" xml:space="preserve">
<g>
	<g>
		<path fill="#00A1DE" d="M33.6,42.2C39,44.4,54,51,70.1,63.7c0.5,0.4,1,0.8,1.5,1.2H24.8C26,56.5,29.1,48.8,33.6,42.2z M24.2,72.7
			c0-0.8,0-1.6,0-2.4h58.3c4.6,1.5,11,2.9,21.3,5.1l0.2,0c0.6,0.1,14.8,2.2,16.4,20.1h-15c-1.3-10.3-10.2-18.4-20.9-18.4
			c-10.7,0-19.6,8-20.9,18.4H29.3C26,88.6,24.2,80.9,24.2,72.7z M100.2,98.2c0,8.7-7,15.7-15.7,15.7c-8.7,0-15.7-7-15.7-15.7
			c0-8.7,7-15.7,15.7-15.7C93.2,82.4,100.2,89.5,100.2,98.2z M78,126.5c-19.4,0-36.4-10.3-45.9-25.6h31.4
			c1.3,10.3,10.2,18.4,20.9,18.4c10.7,0,19.6-8.1,20.9-18.4h18.5C114.4,116.3,97.4,126.5,78,126.5z M104.9,70
			c-10.3-2.2-16.5-3.6-20.8-5v-0.2h-0.7c-4.3-1.4-6.8-2.9-9.9-5.4c-15.5-12.2-29.8-19-36.4-21.7C47,26.2,61.6,18.9,78,18.9
			c29.7,0,53.8,24.1,53.8,53.8c0,8.9-2.2,17.3-6,24.6C125.1,74.2,106.8,70.4,104.9,70z"/>
		<path fill="#00A1DE" d="M84.5,82.4c-8.7,0-15.7,7.1-15.7,15.7c0,8.7,7,15.7,15.7,15.7c8.7,0,15.7-7,15.7-15.7
			C100.2,89.5,93.2,82.4,84.5,82.4z"/>
		<path fill="#00A1DE" d="M84.5,77.1c10.7,0,19.6,8,20.9,18.4h15c-1.5-17.9-15.7-20-16.4-20.1l-0.2,0c-10.3-2.2-16.6-3.6-21.3-5.1
			H24.2c0,0.8,0,1.6,0,2.4c0,8.2,1.8,15.9,5.1,22.8h34.3C64.9,85.1,73.8,77.1,84.5,77.1z"/>
		<path fill="#00A1DE" d="M70.1,63.7C54,51,39,44.4,33.6,42.2c-4.6,6.6-7.7,14.3-8.9,22.6h46.9C71.1,64.5,70.6,64.1,70.1,63.7z"/>
		<path fill="#00A1DE" d="M78,18.9c-16.4,0-31.1,7.4-40.9,18.9c6.6,2.7,20.8,9.5,36.4,21.7c3.1,2.5,5.6,4,9.9,5.4H84v0.2
			c4.3,1.4,10.5,2.8,20.8,5c1.9,0.3,20.3,4.1,21,27.3c3.8-7.4,6-15.8,6-24.6C131.9,43,107.8,18.9,78,18.9z"/>
		<path fill="#00A1DE" d="M84.5,119.3c-10.7,0-19.6-8.1-20.9-18.4H32.2c9.5,15.4,26.5,25.6,45.9,25.6c19.4,0,36.4-10.3,45.9-25.6
			h-18.5C104.1,111.2,95.2,119.3,84.5,119.3z"/>
	</g>
	<path fill="#8BC53F" d="M69.6,8.9c-8.5,0.9-16.8,3.3-24.6,7c-7.8,3.7-15.1,8.9-21.1,15.4c-6,6.5-10.8,14.5-13.5,23.1
		c-2.8,8.6-3.7,18-2.7,27c1,9.1,3.8,18,8.4,25.9c4.5,7.9,11,14.4,17.9,20.4c4.8,4.2,16,0.4,16.5,0.1c-3.9-2-7.5-4.5-10.9-7.2
		c-6-5.1-11.1-11.2-14.7-18.1c-3.6-6.9-6-14.5-7-22.1c-1-7.8-0.5-15.7,1.4-23.3c1.9-7.6,5.1-15,9.6-21.7
		c4.5-6.7,10.4-12.7,17.4-17.2c7-4.5,15.1-7.4,23.4-8.3c2.5-0.3,5-0.4,7.5-0.3c0-0.4,0-0.7,0.1-1.1C74.8,8.4,72.2,8.6,69.6,8.9z"/>
	<path fill="#8BC53F" d="M119.1,20.6c-3.7-2.5-7.6-4.6-11.6-6.4c-4-1.7-8.2-3-12.4-4c-1.8-0.4-3.6-0.7-5.4-1
		c0.1,0.6,0.1,1.3-0.1,1.9c1.6,0.4,3.2,0.9,4.8,1.4c7.9,2.8,14.9,7.3,20.8,12.8c11.8,11,19.5,25.6,21.9,41.3
		c0.6,3.9,0.9,7.9,0.8,11.9c-0.1,4-0.6,8-1.4,12c-1.8,7.9-5.2,15.6-10.2,22.2c-5,6.6-11.5,12-18.8,15.8c-5.9,3.2-12.4,5.1-18.9,6
		c-0.6,0.9-3.3,5.1-3.7,5.6c4.2-0.7,8.4-1.8,12.4-3.3c2-0.7,4.1-1.6,6-2.5c2-0.9,3.9-1.9,5.8-3c7.5-4.4,14.1-10.1,19.6-16.8
		c5.5-6.7,10-14.3,12.9-22.6c1.5-4.2,2.5-8.5,3.1-12.9c0.6-4.4,0.7-8.9,0.4-13.4c-0.7-8.9-3.4-17.8-7.9-25.6
		C132.8,32.3,126.4,25.6,119.1,20.6z"/>
</g>
</svg>
