<?xml version="1.0" encoding="utf-8"?>
<!-- Generator: Adobe Illustrator 18.1.0, SVG Export Plug-In . SVG Version: 6.00 Build 0)  -->
<svg version="1.0" id="Layer_1" xmlns="http://www.w3.org/2000/svg" xmlns:xlink="http://www.w3.org/1999/xlink" x="0px" y="0px"
	 viewBox="0 0 150 150" enable-background="new 0 0 150 150" xml:space="preserve">
<g>
	<path fill="#0095C7" d="M7.5,75.1c0-37.2,30.2-67.5,67.5-67.5c13.5,0,26.1,4,36.6,10.9C100.6,10.9,87.4,6.4,73.1,6.4
		C35.8,6.4,5.6,36.6,5.6,73.9c0,19.7,8.5,37.3,21.9,49.6c-1.4-1.6-2.8-3.2-4.1-5C13.5,106.8,7.5,91.7,7.5,75.1z"/>
	<path fill="#0095C7" d="M133.4,40.9c0.1,2.2-0.2,4.5-1.1,6.6c-1.7,4.3-5.3,7.5-9.4,9.7c-6.4,3.3-13.9,4.1-20.9,3
		c-2.8-0.5-6.1-2-6.7-5.2c-0.8-3,2-6,5-6c7.9,0.2,16.3,2.4,23.9-1c3.9-1.8,6.6-5.5,7.4-9.6c-0.9-1.3-1.9-2.6-3-3.9
		c-12.4-14.7-30.9-24-51.6-24c-22.1,0-41.6,10.7-53.9,27c0.6-0.2,1.1-0.5,1.8-0.6c17.1-3.2,35.6-1.6,51,6.9
		c-1.6,2.8-3.1,5.6-4.7,8.5c2.5-0.6,4.9-1.6,7.4-2.3c-0.8,0.8-0.8,2.1-1.5,2.9c-4.9,5-11.8,8.7-19,8c-8.7-0.8-17.5-2.8-24.9-7.5
		c-2.3,1.1-4.5,2.2-6.7,3.4c0.3,2.5,0.6,5.1,0.9,7.7c11,4.8,23.8,4.4,35.3,1.5c4.5-0.9,8.8-3.1,12.6-5.9c2.9-2.1,4.5-5.4,7-8
		c1.1,1.8,2.4,3.5,3.7,5.2c0.3-1.9,0.5-3.7,0.8-5.5c7.9,7.3,12.1,17.7,13.7,28.2c1,4.7,1,7.3,0.2,12.6c-1.3,15.1-7.5,29.3-15.9,41.8
		c-2.6,3.8-5.4,7.4-8.3,10.9c0.2,0,0.4,0,0.7,0c37.2,0,67.5-30.2,67.5-67.5C144.6,64.3,140.5,51.6,133.4,40.9z M85.4,38.7
		c-2.9,1.8-6.6,0.7-9-1.3c-4.5-3.7-6.8-9.7-6.4-15.4c0.2-3.3,1.9-7,5.3-8c3.1-0.9,6.3,0.6,8.5,2.7c3.5,3.4,5.4,8.2,5.5,13
		C89.5,33,88.5,36.8,85.4,38.7z"/>
	<path d="M78.8,103.8c-7.8-10.4-6.9-8.7-11.6-9.2c-3.4-0.7-6.9-0.7-10.4-0.3c-10,1-19.7,4-29.5,6.1c-3.7,0.8-7.6,1.6-11.4,1.2
		c-0.8,0-1.6-0.3-2.2-0.7c2.3,6.4,5.6,12.4,9.6,17.7c1.3,1.7,2.7,3.4,4.1,5c10.2,11.1,24.1,18.8,39.8,21.1
		c3.3-5.3,6.3-10.7,8.7-16.4C79.1,120.6,81.5,111.9,78.8,103.8z"/>
	<path d="M24.3,88C32.5,84.4,41,81.5,49,77.5c4.9-2.5,9.6-5.4,13.2-9.5c-7.3,1.9-15,2.4-22.5,1.6c-4.9-0.6-9.8-1.5-14.1-4
		c-0.1-3.3-0.6-6.5-1-9.7c2.9-1.4,5.8-3,8.7-4.4c3.9,2.5,8.2,4.6,12.8,5.7c6,1.5,12.3,2.7,18.5,1.8c-0.8-4.6-4.9-7.4-8.8-9.4
		c-8.4-4.2-17.8-6.1-27-7.3c-2.7-0.4-5.5-0.3-8-1.5C13.9,51.3,9.7,64.1,9.7,77.9c0,6.5,1,12.8,2.7,18.8c0.3-1.2,1.2-2.3,2.1-3.1
		C17.4,91.1,20.9,89.6,24.3,88z"/>
</g>
</svg>
