<?xml version="1.0" encoding="utf-8"?>
<!-- Generator: Adobe Illustrator 18.1.0, SVG Export Plug-In . SVG Version: 6.00 Build 0)  -->
<svg version="1.1" id="Layer_1" xmlns="http://www.w3.org/2000/svg" xmlns:xlink="http://www.w3.org/1999/xlink" x="0px" y="0px"
	 viewBox="0 0 150 150" enable-background="new 0 0 150 150" xml:space="preserve">
<g>
	<g>
		
			<rect x="58.5" y="-27.9" transform="matrix(0.318 0.9481 -0.9481 0.318 66.8533 -37.6859)" fill="#231F20" width="2.2" height="111"/>
		
			<rect x="60.5" y="-21.9" transform="matrix(0.318 0.9481 -0.9481 0.318 73.8285 -35.528)" fill="#231F20" width="2.2" height="111"/>
		<rect x="62.5" y="-16" transform="matrix(0.318 0.9481 -0.9481 0.318 80.8036 -33.37)" fill="#231F20" width="2.2" height="111"/>
		
			<rect x="64.5" y="-10.1" transform="matrix(0.318 0.9481 -0.9481 0.318 87.7788 -31.212)" fill="#231F20" width="2.2" height="111"/>
		
			<rect x="66.5" y="-4.2" transform="matrix(0.318 0.9481 -0.9481 0.318 94.7539 -29.054)" fill="#231F20" width="2.2" height="111"/>
		
			<rect x="68.4" y="1.8" transform="matrix(0.318 0.9481 -0.9481 0.318 101.7291 -26.8961)" fill="#231F20" width="2.2" height="111"/>
		
			<rect x="70.4" y="7.7" transform="matrix(0.318 0.9481 -0.9481 0.318 108.7042 -24.7381)" fill="#231F20" width="2.2" height="111"/>
		
			<rect x="72.4" y="13.6" transform="matrix(0.318 0.9481 -0.9481 0.318 115.6794 -22.5801)" fill="#231F20" width="2.2" height="111"/>
		
			<rect x="74.4" y="19.5" transform="matrix(0.318 0.9481 -0.9481 0.318 122.6545 -20.4221)" fill="#231F20" width="2.2" height="111"/>
		
			<rect x="76.4" y="25.5" transform="matrix(0.318 0.9481 -0.9481 0.318 129.6297 -18.2642)" fill="#231F20" width="2.2" height="111"/>
		
			<rect x="78.4" y="31.4" transform="matrix(0.318 0.9481 -0.9481 0.318 136.6048 -16.1062)" fill="#231F20" width="2.2" height="111"/>
		
			<rect x="80.4" y="37.3" transform="matrix(0.318 0.9481 -0.9481 0.318 143.58 -13.9482)" fill="#231F20" width="2.2" height="111"/>
		
			<rect x="82.4" y="43.3" transform="matrix(0.318 0.9481 -0.9481 0.318 150.5551 -11.7902)" fill="#231F20" width="2.2" height="111"/>
		
			<rect x="84.3" y="49.2" transform="matrix(0.318 0.9481 -0.9481 0.318 157.5302 -9.6323)" fill="#231F20" width="2.2" height="111"/>
		
			<rect x="86.3" y="55.1" transform="matrix(0.318 0.9481 -0.9481 0.318 164.5054 -7.4743)" fill="#231F20" width="2.2" height="111"/>
		
			<rect x="88.3" y="61" transform="matrix(0.318 0.9481 -0.9481 0.318 171.4805 -5.3163)" fill="#231F20" width="2.2" height="111"/>
		
			<rect x="90.3" y="67" transform="matrix(0.318 0.9481 -0.9481 0.318 178.4557 -3.1583)" fill="#231F20" width="2.2" height="111"/>
	</g>
	<g>
		<path fill="#545456" d="M20.6,116.4c1.5-7.1,3.3-16,5.1-26.5c0.2-1.4,0.4-2.4,0.5-3l1.4-7.4c0.8-4.5,1.4-8.5,1.8-12.1
			c0.4-3.6,0.7-6,0.7-7.2c0-1.4-0.3-2.6-0.9-3.6s-1.3-1.4-2.2-1.4c-0.5,0-1.3,0.3-2.3,0.8c-1,0.5-2.7,1.5-5.1,3.1l-2.1-3.8
			c1.2-0.9,2.9-2.1,5-3.8c6.2-4.7,10.3-7.1,12.5-7.1c2,0,3.6,0.9,4.8,2.6s1.8,4,1.8,6.9c0,2.3-0.3,6.2-0.9,11.8
			c-0.1,0.8-0.2,1.4-0.2,1.9c1.5-1.7,3.7-4,6.4-7.1c9.7-10.7,16.3-16,19.7-16c2.8,0,5.2,1.2,6.9,3.6c1.8,2.4,2.7,5.6,2.7,9.6
			c0,1.4,0,2.9-0.1,4.6c-0.1,1.7-0.3,3.7-0.6,6c0.8-0.9,1.9-2.1,3.3-3.8c11.2-13.3,19-20,23.5-20c2.9,0,5.2,1.2,7,3.6
			s2.7,5.6,2.7,9.5c0,5.6-1.2,13.4-3.5,23.3s-3.5,16.7-3.5,20.3c0,1.4,0.2,2.6,0.7,3.5c0.5,0.9,1.1,1.3,1.8,1.3
			c0.6,0,1.8-0.7,3.4-2.1c1.7-1.4,3.6-3.3,5.9-5.7l2.5,4.4c-5.9,6.2-9.9,10-12,11.6s-3.9,2.3-5.4,2.3c-2.7,0-4.9-1-6.4-3.1
			c-1.5-2-2.2-4.9-2.2-8.6c0-5.4,1.2-13.2,3.6-23.4s3.6-17,3.6-20.7c0-1.7-0.3-3.1-0.9-4s-1.5-1.4-2.6-1.4c-1.1,0-3.1,1.3-5.9,3.8
			c-2.8,2.5-8.4,8.3-16.8,17.2c-1.7,9.1-3,16.4-3.8,22c-0.8,5.6-1.5,10.6-1.8,14.8l-12.7,3.4c2.8-14.8,5.1-27.1,6.6-36.8
			c1.6-9.7,2.4-15.9,2.4-18.6c0-1.8-0.3-3.2-1-4.2c-0.7-1-1.5-1.6-2.4-1.6c-1.3,0-7.6,5.5-18.9,16.6L39.5,75
			c-1.8,9.4-3.1,16.9-4,22.6s-1.6,10.7-2,15L20.6,116.4z"/>
	</g>
</g>
</svg>
