<?xml version="1.0" encoding="utf-8"?>
<!-- Generator: Adobe Illustrator 18.1.0, SVG Export Plug-In . SVG Version: 6.00 Build 0)  -->
<svg version="1.0" id="Layer_1" xmlns="http://www.w3.org/2000/svg" xmlns:xlink="http://www.w3.org/1999/xlink" x="0px" y="0px"
	 viewBox="0 0 150 150" enable-background="new 0 0 150 150" xml:space="preserve">
<g>
	<path fill-rule="evenodd" clip-rule="evenodd" fill="#EE3337" d="M70.2,94.6h11.4c1,0,1.8-0.8,1.8-1.8V81.6h11.1
		c1,0,1.8-0.8,1.8-1.8V68.5c0-1-0.8-1.8-1.8-1.8H83.4V55.5c0-1-0.8-1.8-1.8-1.8H70.2c-1,0-1.8,0.8-1.8,1.8v11.1H57.3
		c-1,0-1.8,0.8-1.8,1.8v11.4c0,1,0.8,1.8,1.8,1.8h11.1v11.1C68.4,93.8,69.2,94.6,70.2,94.6z"/>
	<g>
		<g>
			<path fill="#EE2E37" d="M51.8,72.7c0.1-9.9-7.8-18-17.7-18.1l-2.7,0c-9.9-0.1-18,7.8-18.1,17.7l-0.1,11.6l-0.4,34
				c-0.1,9.9,7.8,18,17.7,18.1l38.5,0.5c-9.9-0.1-17.8-8.2-17.7-18.1l0-2.7l0.1-9L51.8,72.7z"/>
		</g>
	</g>
	<g>
		<g>
			<path fill="#905D41" d="M75,97c-9.9-0.1-18,7.8-18.1,17.7l0,2.7c-0.1,9.9,7.8,18,17.7,18.1l11.6,0.1l34,0.4
				c9.9,0.1,18-7.8,18.1-17.7l0.5-38.5c-0.1,9.9-8.2,17.8-18.1,17.7l-2.7,0l-9-0.1L75,97z"/>
		</g>
	</g>
	<path fill="#C2E6EA" d="M98.6,74.9c-0.1,9.9,7.8,18,17.7,18.1l2.7,0c9.9,0.1,18-7.8,18.1-17.7l0.1-11.6l0.4-34
		c0.1-9.9-7.8-18-17.7-18.1l-38.5-0.5c9.9,0.1,17.8,8.2,17.7,18.1l0,2.7l-0.1,9L98.6,74.9z"/>
	<path fill="#26A7E0" d="M75.6,49.5c9.9,0.1,18-7.8,18.1-17.7l0-2.7c0.1-9.9-7.8-18-17.7-18.1l-11.6-0.1l-34-0.4
		c-9.9-0.1-18,7.8-18.1,17.7l-0.5,38.5c0.1-9.9,8.2-17.8,18.1-17.7l2.7,0l8.9,0.1L75.6,49.5z"/>
</g>
</svg>
