<?xml version="1.0" encoding="utf-8"?>
<!-- Generator: Adobe Illustrator 18.1.0, SVG Export Plug-In . SVG Version: 6.00 Build 0)  -->
<svg version="1.1" id="Layer_1" xmlns="http://www.w3.org/2000/svg" xmlns:xlink="http://www.w3.org/1999/xlink" x="0px" y="0px"
	 viewBox="0 0 2000 2000" enable-background="new 0 0 2000 2000" xml:space="preserve">
<g>
	<path fill="#D8505C" d="M514.5,1592.4c-127.3-204.3-110.3-426.1,13.1-616.9C622.1,836.9,771.1,756.4,927.9,735
		c16.6,8.1,26,13.6,26,13.6s-6-3.6-16.8-9.1c69.1-326.9,380.2-440.8,380.2-440.8l-52.1-60.8c-223.8,57.5-334.5,336-377.5,479.2
		c-104.5-42.2-317-98-522.6,28.5c-287.7,177-109.9,924.7,245.1,1066.1c102.6,40.9,144,16.1,177.7-9.9
		C675.4,1764.6,576.6,1694.3,514.5,1592.4z"/>
	<path fill="#D8505C" d="M932.7,1791.4c-0.1,0-0.1-0.1-0.2-0.1C932.6,1791.3,932.6,1791.4,932.7,1791.4z"/>
	<path fill="#D8505C" d="M1407.6,649.1c-224.8-21.4-439.1,91.7-452.9,99.2c3.2-1.7,16.8-8.9,38.6-18.8
		c111.3-3.6,223.3,22.1,319.6,77.6c346,205,388.4,655.2,175.4,949.4c-7.1,5.9-14.2,11.7-21.4,17.2
		c208.2-285.6,176.4-726.3-150.5-937.8c-206.9-136-466.8-104.5-667.6,51.7c-226.2,188.5-258.1,532.7-40.7,755.4
		c69.1,70.7,155.3,105,244.9,131c0,0,0,0,0,0c10.3-13,22.1-2.9,35.8,1.2c-0.1,0-0.1-1.7-0.2-1.7c182,16.1,370.1-77.5,450.5-265.5
		c65.6-183.8-3.9-395.5-191.2-490c-106.3-31-209.1-33.4-304.9,22.1c-137.3,75.3-177.6,226.5-131.2,367.4
		c78.7,166.3,316.7,195.9,414.7,37.6c59.9-109.8-18.8-276.1-172.4-213.5c48.6,38.1,126,72.6,62.6,153.5
		c-105,100.7-257.7-71.3-197.7-181.1c59.9-109.8,191.6-111.1,281.7-92.8c93.6,47.2,145.7,114.2,159.7,229.7
		c11.8,218.3-189,374.5-385.4,325.1c-151.4-40.2-268.2-157.9-301.9-315c-21-173.2,77-331.6,227-423
		c166.2-78.7,420.4-36.3,536.3,126.8c44.9,55.9,77.2,124.5,92.1,203.3c47.2,292.6-163.5,545.6-438.2,571.9c0,0-0.1,0-0.1-0.1
		c3.6,2.7,7,5.1,10.7,8c243.4,188.1,683.1-137.7,760.6-524.9C1839.1,925.7,1639.9,671.2,1407.6,649.1z"/>
	<path fill="#D8505C" d="M796.2,1795.2c-2.6,2.1-5.3,4.2-8,6.2C790.9,1799.4,793.6,1797.3,796.2,1795.2z"/>
	<path fill="#D8505C" d="M953.9,748.6c0,0,0.2-0.1,0.7-0.4C954.2,748.5,953.9,748.6,953.9,748.6z"/>
	<path fill="#6CAB36" d="M1095.3,513.6c156.4,173.8,356.2,0,356.2,0C1251.7,339.8,1095.3,513.6,1095.3,513.6z"/>
	<path fill="#6CAB36" d="M989.1,54.5C814.8,210.4,988,410.8,988,410.8C1162.4,211.4,989.1,54.5,989.1,54.5z"/>
</g>
</svg>
