<?xml version="1.0" encoding="utf-8"?>
<!-- Generator: Adobe Illustrator 16.0.0, SVG Export Plug-In . SVG Version: 6.00 Build 0)  -->
<!DOCTYPE svg PUBLIC "-//W3C//DTD SVG 1.1//EN" "http://www.w3.org/Graphics/SVG/1.1/DTD/svg11.dtd">
<svg version="1.1" id="Layer_1" xmlns="http://www.w3.org/2000/svg" xmlns:xlink="http://www.w3.org/1999/xlink" x="0px" y="0px"
	 width="100px" height="100px" viewBox="0 0 100 100" enable-background="new 0 0 100 100" xml:space="preserve">
<g>
	<radialGradient id="SVGID_1_" cx="47.5376" cy="-0.585" r="93.4994" gradientUnits="userSpaceOnUse">
		<stop  offset="0" style="stop-color:#00ADEE"/>
		<stop  offset="0.0448" style="stop-color:#099ADD"/>
		<stop  offset="0.1099" style="stop-color:#1386CA"/>
		<stop  offset="0.1743" style="stop-color:#1979BF"/>
		<stop  offset="0.2364" style="stop-color:#1B75BB"/>
		<stop  offset="0.5212" style="stop-color:#2B388F"/>
		<stop  offset="0.7576" style="stop-color:#1C1651"/>
		<stop  offset="1" style="stop-color:#120742"/>
	</radialGradient>
	<path fill="url(#SVGID_1_)" d="M14.893,5.342c-1.032,9.035-22.199,67.117,35.106,89.316c57.308-22.199,36.14-80.281,35.108-89.316
		H14.893z"/>
	<radialGradient id="SVGID_2_" cx="33.937" cy="26.8994" r="89.7734" gradientUnits="userSpaceOnUse">
		<stop  offset="0" style="stop-color:#00ADEE"/>
		<stop  offset="0.0448" style="stop-color:#099ADD"/>
		<stop  offset="0.1099" style="stop-color:#1386CA"/>
		<stop  offset="0.1743" style="stop-color:#1979BF"/>
		<stop  offset="0.2364" style="stop-color:#1B75BB"/>
		<stop  offset="0.5212" style="stop-color:#2B388F"/>
		<stop  offset="0.7576" style="stop-color:#1C1651"/>
		<stop  offset="1" style="stop-color:#120742"/>
	</radialGradient>
	<path fill="url(#SVGID_2_)" d="M49.999,7.981H17.102c-0.171,0.805-0.379,1.729-0.62,2.786c-3.863,17-14.075,61.977,33.517,81.058
		V7.981z"/>
	<radialGradient id="SVGID_3_" cx="68.7666" cy="29.2822" r="63.1852" gradientUnits="userSpaceOnUse">
		<stop  offset="0" style="stop-color:#F69B7A"/>
		<stop  offset="0.0205" style="stop-color:#F4846A"/>
		<stop  offset="0.055" style="stop-color:#F26455"/>
		<stop  offset="0.0924" style="stop-color:#F04A43"/>
		<stop  offset="0.1334" style="stop-color:#EE3535"/>
		<stop  offset="0.1796" style="stop-color:#ED272B"/>
		<stop  offset="0.2355" style="stop-color:#EC1F26"/>
		<stop  offset="0.3273" style="stop-color:#EC1C24"/>
		<stop  offset="0.355" style="stop-color:#E31B23"/>
		<stop  offset="0.5078" style="stop-color:#B81620"/>
		<stop  offset="0.6269" style="stop-color:#9D121E"/>
		<stop  offset="0.697" style="stop-color:#93111D"/>
		<stop  offset="0.9818" style="stop-color:#6E0008"/>
	</radialGradient>
	<path fill="url(#SVGID_3_)" d="M82.897,7.981H49.999v83.844c47.594-19.081,37.379-64.059,33.52-81.058
		C83.276,9.71,83.067,8.786,82.897,7.981z"/>
	<g>
		<g>
			<g>
				<g>
					<path fill="#FFFFFF" d="M38.328,37.846H24.011c-0.139,0-0.251-0.109-0.251-0.246c0-0.14,0.113-0.253,0.251-0.253h14.317
						c0.138,0,0.25,0.113,0.25,0.253C38.578,37.736,38.466,37.846,38.328,37.846z"/>
				</g>
				<g>
					<path fill="#FFFFFF" d="M35.917,38.963h-9.492c-0.136,0-0.248-0.113-0.248-0.253s0.112-0.246,0.248-0.246h9.492
						c0.136,0,0.248,0.106,0.248,0.246S36.053,38.963,35.917,38.963z"/>
				</g>
				<g>
					<g>
						<path fill="#FFFFFF" d="M35.917,44.441h-9.491c-0.138,0-0.25-0.113-0.25-0.253c0-0.136,0.112-0.246,0.25-0.246h9.491
							c0.136,0,0.248,0.11,0.248,0.246C36.164,44.328,36.053,44.441,35.917,44.441z"/>
					</g>
					<g>
						<path fill="#FFFFFF" d="M35.917,55.426h-9.491c-0.138,0-0.25-0.113-0.25-0.253s0.112-0.253,0.25-0.253h9.491
							c0.136,0,0.248,0.113,0.248,0.253S36.053,55.426,35.917,55.426z"/>
					</g>
				</g>
				<g>
					<path fill="#FFFFFF" d="M34.314,40.073h-6.288c-0.138,0-0.25-0.113-0.25-0.249s0.111-0.25,0.25-0.25h6.288
						c0.139,0,0.249,0.113,0.249,0.25S34.454,40.073,34.314,40.073z"/>
				</g>
				<g>
					<path fill="#FFFFFF" d="M26.005,58.039h-0.497V41.03c0-1.21-1.303-2.228-2.844-2.228c-1.507,0-2.443,0.785-2.443,2.055
						c0,1.177,0.962,1.901,1.853,1.901c1.26,0,1.845-0.402,1.894-1.31c0.028-0.492-0.093-0.898-0.351-1.17
						c-0.231-0.242-0.569-0.379-0.953-0.379c-0.75,0-1.22,0.359-1.261,0.951c-0.027,0.346,0.055,0.639,0.224,0.825
						c0.14,0.146,0.357,0.219,0.597,0.219c0.812-0.007,0.932-0.429,0.932-0.678c0-0.293-0.258-0.585-0.836-0.585V40.14
						c0.917,0,1.336,0.559,1.336,1.077c0,0.565-0.375,1.169-1.431,1.177c-0.371,0.006-0.725-0.126-0.959-0.379
						c-0.27-0.286-0.396-0.711-0.363-1.204c0.06-0.851,0.751-1.406,1.76-1.406c0.522,0,0.989,0.189,1.315,0.535
						c0.354,0.373,0.522,0.904,0.487,1.536c-0.063,1.183-0.869,1.781-2.392,1.781c-1.132,0-2.354-0.917-2.354-2.4
						c0-1.556,1.157-2.553,2.944-2.553c1.81,0,3.341,1.25,3.341,2.726V58.039z"/>
				</g>
				<g>
					<path fill="#FFFFFF" d="M36.836,58.039h-0.499V41.03c0-1.476,1.527-2.726,3.337-2.726c1.79,0,2.945,0.997,2.945,2.553
						c0,1.482-1.22,2.4-2.352,2.4c-1.522,0-2.327-0.598-2.391-1.781c-0.035-0.632,0.133-1.164,0.487-1.536
						c0.325-0.346,0.792-0.535,1.314-0.535c1.009,0,1.699,0.555,1.758,1.406c0.033,0.493-0.093,0.917-0.36,1.204
						c-0.232,0.253-0.565,0.386-0.961,0.379c-1.054-0.007-1.429-0.612-1.429-1.177c0-0.519,0.419-1.077,1.336-1.077v0.492
						c-0.579,0-0.838,0.292-0.838,0.585c0,0.249,0.121,0.671,0.934,0.678c0.256,0,0.458-0.073,0.594-0.219
						c0.174-0.18,0.252-0.479,0.228-0.825c-0.04-0.591-0.514-0.951-1.262-0.951c-0.384,0-0.723,0.137-0.953,0.379
						c-0.256,0.272-0.379,0.679-0.351,1.17c0.048,0.908,0.632,1.31,1.893,1.31c0.893,0,1.853-0.725,1.853-1.901
						c0-1.27-0.936-2.055-2.446-2.055c-1.539,0-2.838,1.018-2.838,2.228V58.039z"/>
				</g>
				<g>
					<path fill="#FFFFFF" d="M36.584,41.576H25.758c-0.138,0-0.25-0.113-0.25-0.253c0-0.133,0.111-0.246,0.25-0.246h10.827
						c0.138,0,0.251,0.113,0.251,0.246C36.836,41.462,36.723,41.576,36.584,41.576z"/>
				</g>
				<g>
					<path fill="#FFFFFF" d="M28.143,57.606h0.658v-16.33h-0.658V57.606z"/>
				</g>
				<g>
					<path fill="#FFFFFF" d="M30.85,57.606h0.657v-16.33H30.85V57.606z"/>
				</g>
				<g>
					<path fill="#FFFFFF" d="M33.557,57.606h0.658v-16.33h-0.658V57.606z"/>
				</g>
			</g>
			<g>
				<g>
					<path fill="#FFFFFF" d="M77.195,37.846H62.879c-0.136,0-0.25-0.109-0.25-0.246c0-0.14,0.114-0.253,0.25-0.253h14.316
						c0.138,0,0.25,0.113,0.25,0.253C77.445,37.736,77.333,37.846,77.195,37.846z"/>
				</g>
				<g>
					<path fill="#FFFFFF" d="M74.783,38.963h-9.491c-0.137,0-0.249-0.113-0.249-0.253s0.112-0.246,0.249-0.246h9.491
						c0.139,0,0.249,0.106,0.249,0.246S74.922,38.963,74.783,38.963z"/>
				</g>
				<g>
					<g>
						<path fill="#FFFFFF" d="M74.783,44.441h-9.491c-0.137,0-0.249-0.113-0.249-0.253c0-0.136,0.112-0.246,0.249-0.246h9.491
							c0.139,0,0.249,0.11,0.249,0.246C75.032,44.328,74.922,44.441,74.783,44.441z"/>
					</g>
					<g>
						<path fill="#FFFFFF" d="M74.783,55.426h-9.491c-0.137,0-0.249-0.113-0.249-0.253s0.112-0.253,0.249-0.253h9.491
							c0.139,0,0.249,0.113,0.249,0.253S74.922,55.426,74.783,55.426z"/>
					</g>
				</g>
				<g>
					<path fill="#FFFFFF" d="M73.184,40.073h-6.293c-0.132,0-0.246-0.113-0.246-0.249s0.114-0.25,0.246-0.25h6.293
						c0.137,0,0.249,0.113,0.249,0.25S73.32,40.073,73.184,40.073z"/>
				</g>
				<g>
					<path fill="#FFFFFF" d="M64.873,58.039h-0.495V41.03c0-1.21-1.307-2.228-2.845-2.228c-1.51,0-2.447,0.785-2.447,2.055
						c0,1.177,0.963,1.901,1.855,1.901c1.264,0,1.848-0.402,1.894-1.31c0.027-0.492-0.092-0.898-0.353-1.17
						c-0.229-0.242-0.564-0.379-0.949-0.379c-0.752,0-1.222,0.359-1.264,0.951c-0.026,0.346,0.057,0.645,0.227,0.825
						c0.14,0.146,0.346,0.219,0.595,0.219c0.814-0.007,0.934-0.429,0.934-0.678c0-0.293-0.26-0.585-0.835-0.585V40.14
						c0.915,0,1.334,0.559,1.334,1.077c0,0.565-0.376,1.169-1.431,1.177c-0.395,0.013-0.728-0.126-0.96-0.379
						c-0.266-0.286-0.396-0.711-0.361-1.204c0.063-0.851,0.75-1.406,1.762-1.406c0.521,0,0.99,0.189,1.314,0.535
						c0.354,0.373,0.52,0.904,0.486,1.536c-0.063,1.183-0.871,1.781-2.393,1.781c-1.131,0-2.351-0.917-2.351-2.4
						c0-1.556,1.153-2.553,2.942-2.553c1.812,0,3.34,1.25,3.34,2.726V58.039z"/>
				</g>
				<g>
					<path fill="#FFFFFF" d="M75.7,58.039h-0.499V41.03c0-1.476,1.533-2.726,3.345-2.726c1.788,0,2.941,0.997,2.941,2.553
						c0,1.482-1.219,2.4-2.35,2.4c-1.526,0-2.33-0.598-2.394-1.781c-0.033-0.632,0.133-1.164,0.485-1.536
						c0.325-0.346,0.791-0.535,1.316-0.535c1.007,0,1.698,0.555,1.759,1.406c0.032,0.493-0.097,0.917-0.362,1.204
						c-0.233,0.253-0.55,0.386-0.958,0.379c-1.057-0.007-1.433-0.612-1.433-1.177c0-0.519,0.415-1.077,1.333-1.077v0.492
						c-0.575,0-0.831,0.292-0.831,0.585c0,0.249,0.119,0.671,0.931,0.678c0.246,0,0.459-0.073,0.596-0.219
						c0.169-0.18,0.248-0.479,0.226-0.825c-0.04-0.591-0.513-0.951-1.26-0.951c-0.386,0-0.726,0.137-0.951,0.379
						c-0.259,0.272-0.383,0.679-0.355,1.17c0.05,0.908,0.635,1.31,1.898,1.31c0.888,0,1.852-0.725,1.852-1.901
						c0-1.27-0.938-2.055-2.443-2.055c-1.543,0-2.846,1.018-2.846,2.228V58.039z"/>
				</g>
				<g>
					<path fill="#FFFFFF" d="M75.455,41.576H64.624c-0.139,0-0.246-0.113-0.246-0.253c0-0.133,0.107-0.246,0.246-0.246h10.831
						c0.136,0,0.245,0.113,0.245,0.246C75.7,41.462,75.591,41.576,75.455,41.576z"/>
				</g>
				<g>
					<path fill="#FFFFFF" d="M67.011,57.606h0.658v-16.33h-0.658V57.606z"/>
				</g>
				<g>
					<path fill="#FFFFFF" d="M69.717,57.606h0.658v-16.33h-0.658V57.606z"/>
				</g>
				<g>
					<path fill="#FFFFFF" d="M72.422,57.606h0.659v-16.33h-0.659V57.606z"/>
				</g>
			</g>
		</g>
		<g>
			<rect x="24.674" y="58.039" fill="#FFFFFF" width="51.86" height="1.022"/>
		</g>
		<g>
			<rect x="24.674" y="60.339" fill="#FFFFFF" width="51.86" height="1.03"/>
		</g>
		<g>
			<rect x="24.674" y="62.632" fill="#FFFFFF" width="51.86" height="1.037"/>
		</g>
		<g>
			<rect x="24.674" y="64.933" fill="#FFFFFF" width="51.86" height="1.031"/>
		</g>
		<g>
			<path fill="#FFFFFF" d="M49.999,33.152l5.37,2.818l-1.027-5.977l4.346-4.235l-6.004-0.871l-2.685-5.438l-2.686,5.438
				l-6.004,0.871l4.347,4.235l-1.027,5.977L49.999,33.152z"/>
		</g>
		<g>
			<path fill="#FFFFFF" d="M83.788,37.181H56.952c-0.17,0-0.316-0.126-0.346-0.292l-1.085-6.339c-0.02-0.11,0.018-0.229,0.101-0.309
				l5.359-5.226l-7.407-1.074c-0.113-0.016-0.213-0.09-0.265-0.192l-3.311-6.711l-3.312,6.711c-0.053,0.103-0.151,0.176-0.265,0.192
				l-7.403,1.074l5.357,5.226c0.081,0.08,0.122,0.199,0.1,0.309l-1.086,6.339c-0.027,0.167-0.173,0.292-0.346,0.292H16.208
				c-0.155,0-0.288-0.103-0.334-0.252c-0.045-0.143,0.008-0.306,0.134-0.392l33.79-23.283c0.122-0.086,0.279-0.086,0.399,0
				L83.99,36.536c0.127,0.086,0.18,0.249,0.134,0.392C84.077,37.078,83.944,37.181,83.788,37.181z M57.25,36.476h25.411
				L49.999,13.965L17.334,36.476h25.414l1.007-5.864l-5.734-5.591c-0.098-0.093-0.131-0.232-0.089-0.359
				c0.042-0.126,0.149-0.219,0.282-0.24l7.925-1.15l3.545-7.187c0.12-0.232,0.514-0.232,0.63,0l3.547,7.187l7.924,1.15
				c0.134,0.021,0.24,0.113,0.284,0.24c0.042,0.126,0.01,0.266-0.091,0.359l-5.733,5.591L57.25,36.476z"/>
		</g>
	</g>
</g>
</svg>
