<?xml version="1.0" encoding="utf-8"?>
<!-- Generator: Adobe Illustrator 18.1.0, SVG Export Plug-In . SVG Version: 6.00 Build 0)  -->
<svg version="1.1" id="Layer_1" xmlns="http://www.w3.org/2000/svg" xmlns:xlink="http://www.w3.org/1999/xlink" x="0px" y="0px"
	 viewBox="0 0 150 150" enable-background="new 0 0 150 150" xml:space="preserve">
<g>
	<linearGradient id="SVGID_1_" gradientUnits="userSpaceOnUse" x1="120.9602" y1="69.8057" x2="-45.2979" y2="218.9827">
		<stop  offset="5.618000e-03" style="stop-color:#FFB602"/>
		<stop  offset="1" style="stop-color:#E3A06F"/>
	</linearGradient>
	<circle fill="url(#SVGID_1_)" cx="90.4" cy="97.2" r="41"/>
	<g>
		<g>
			<linearGradient id="SVGID_2_" gradientUnits="userSpaceOnUse" x1="67.8047" y1="51.6582" x2="33.2482" y2="187.2258">
				<stop  offset="5.618000e-03" style="stop-color:#909A34"/>
				<stop  offset="1" style="stop-color:#69714C"/>
			</linearGradient>
			<path fill="url(#SVGID_2_)" d="M71.4,20.6c0,0,1.5-2.9,5.4-2.6c3.9,0.4,4.2-1.3,4.2-1.3s-0.1,3.7-3,5.7c-2.9,2-6.9-1.4-6.9-1.4"
				/>
			<linearGradient id="SVGID_3_" gradientUnits="userSpaceOnUse" x1="43.789" y1="45.5388" x2="9.2342" y2="181.0997">
				<stop  offset="5.618000e-03" style="stop-color:#909A34"/>
				<stop  offset="1" style="stop-color:#69714C"/>
			</linearGradient>
			<path fill="url(#SVGID_3_)" d="M30.3,70.4c0,0,0.8-4.1,7.4-4.1c6.6,0.1,5.1,2.2,8,0.1C45.7,66.4,39.1,80.4,30.3,70.4z"/>
			<linearGradient id="SVGID_4_" gradientUnits="userSpaceOnUse" x1="29.7212" y1="41.953" x2="-4.8327" y2="177.5105">
				<stop  offset="5.618000e-03" style="stop-color:#909A34"/>
				<stop  offset="1" style="stop-color:#69714C"/>
			</linearGradient>
			<path fill="url(#SVGID_4_)" d="M28.3,68.7c0,0,2.6-3.4-1.8-8.2c-4.4-4.9-5-2.3-5.4-6C21.1,54.5,15,68.7,28.3,68.7z"/>
			<linearGradient id="SVGID_5_" gradientUnits="userSpaceOnUse" x1="30.1116" y1="42.0498" x2="-4.4443" y2="177.6153">
				<stop  offset="5.618000e-03" style="stop-color:#909A34"/>
				<stop  offset="1" style="stop-color:#69714C"/>
			</linearGradient>
			<path fill="url(#SVGID_5_)" d="M31.3,58.3c0,0,2.6-3.4-1.8-8.3c-4.4-4.9-5-2.3-5.3-6C24.2,44.1,18,58.3,31.3,58.3z"/>
			<linearGradient id="SVGID_6_" gradientUnits="userSpaceOnUse" x1="33.234" y1="42.8467" x2="-1.3209" y2="178.4078">
				<stop  offset="5.618000e-03" style="stop-color:#909A34"/>
				<stop  offset="1" style="stop-color:#69714C"/>
			</linearGradient>
			<path fill="url(#SVGID_6_)" d="M35.6,49.5c0,0,3-2.6-0.1-8c-3.1-5.3-4.2-3.1-3.8-6.5C31.7,35,23.3,47,35.6,49.5z"/>
			<linearGradient id="SVGID_7_" gradientUnits="userSpaceOnUse" x1="37.9067" y1="44.0391" x2="3.3474" y2="179.6176">
				<stop  offset="5.618000e-03" style="stop-color:#909A34"/>
				<stop  offset="1" style="stop-color:#69714C"/>
			</linearGradient>
			<path fill="url(#SVGID_7_)" d="M41.8,40.8c0,0,3.4-2,1.4-7.9c-2.1-5.8-3.5-3.9-2.5-7.1C40.7,25.8,30.2,36,41.8,40.8z"/>
			<linearGradient id="SVGID_8_" gradientUnits="userSpaceOnUse" x1="44.0852" y1="45.6105" x2="9.5308" y2="181.17">
				<stop  offset="5.618000e-03" style="stop-color:#909A34"/>
				<stop  offset="1" style="stop-color:#69714C"/>
			</linearGradient>
			<path fill="url(#SVGID_8_)" d="M49.2,33.1c0,0,3.8-1.2,3-7.4c-0.8-6.1-2.6-4.5-0.9-7.5C51.3,18.2,38.9,25.9,49.2,33.1z"/>
			<linearGradient id="SVGID_9_" gradientUnits="userSpaceOnUse" x1="44.2737" y1="45.6614" x2="9.7177" y2="181.2271">
				<stop  offset="5.618000e-03" style="stop-color:#909A34"/>
				<stop  offset="1" style="stop-color:#69714C"/>
			</linearGradient>
			<path fill="url(#SVGID_9_)" d="M33.1,61.5c0,0,0.8-4.1,7.4-4.1c6.6,0,5.1,2.2,8,0C48.4,57.4,41.9,71.4,33.1,61.5z"/>
			<linearGradient id="SVGID_10_" gradientUnits="userSpaceOnUse" x1="46.6281" y1="46.2588" x2="12.0655" y2="181.8501">
				<stop  offset="5.618000e-03" style="stop-color:#909A34"/>
				<stop  offset="1" style="stop-color:#69714C"/>
			</linearGradient>
			<path fill="url(#SVGID_10_)" d="M37.7,51.3c0,0,1.4-4,7.9-3.1c6.5,0.9,4.7,2.9,7.9,1.1C53.5,49.4,45.1,62.4,37.7,51.3z"/>
			<linearGradient id="SVGID_11_" gradientUnits="userSpaceOnUse" x1="50.3451" y1="47.2074" x2="15.7975" y2="182.7403">
				<stop  offset="5.618000e-03" style="stop-color:#909A34"/>
				<stop  offset="1" style="stop-color:#69714C"/>
			</linearGradient>
			<path fill="url(#SVGID_11_)" d="M44.3,42.6c0,0,1.8-3.4,7.5-1.6c5.7,1.7,3.8,3.2,6.9,2.1C58.6,43.1,49.3,53.5,44.3,42.6z"/>
			<linearGradient id="SVGID_12_" gradientUnits="userSpaceOnUse" x1="54.5308" y1="48.2735" x2="19.9786" y2="183.824">
				<stop  offset="5.618000e-03" style="stop-color:#909A34"/>
				<stop  offset="1" style="stop-color:#69714C"/>
			</linearGradient>
			<path fill="url(#SVGID_12_)" d="M50.9,35.3c0,0,1.7-3.3,7.2-1.7c5.5,1.6,3.7,3.1,6.7,1.9C64.7,35.5,55.9,45.8,50.9,35.3z"/>
			<linearGradient id="SVGID_13_" gradientUnits="userSpaceOnUse" x1="60.7139" y1="49.8497" x2="26.1607" y2="185.4041">
				<stop  offset="5.618000e-03" style="stop-color:#909A34"/>
				<stop  offset="1" style="stop-color:#69714C"/>
			</linearGradient>
			<path fill="url(#SVGID_13_)" d="M60.3,28.5c0,0,1.9-2.3,6-0.2c4.1,2.2,2.5,3.1,5,2.7C71.3,31,62.6,37.7,60.3,28.5z"/>
			<linearGradient id="SVGID_14_" gradientUnits="userSpaceOnUse" x1="52.2155" y1="47.6824" x2="17.6602" y2="183.2453">
				<stop  offset="5.618000e-03" style="stop-color:#909A34"/>
				<stop  offset="1" style="stop-color:#69714C"/>
			</linearGradient>
			<path fill="url(#SVGID_14_)" d="M58.6,25.9c0,0,3.4-0.5,3.6-5.8c0.2-5.3-1.6-4.2,0.3-6.5C62.5,13.6,50.9,18.4,58.6,25.9z"/>
			<linearGradient id="SVGID_15_" gradientUnits="userSpaceOnUse" x1="66.4749" y1="51.3279" x2="31.9073" y2="186.9393">
				<stop  offset="5.618000e-03" style="stop-color:#909A34"/>
				<stop  offset="1" style="stop-color:#69714C"/>
			</linearGradient>
			<path fill="url(#SVGID_15_)" d="M67.5,24.4c0,0,1.9-2.3,5.9-0.2c4.1,2.2,2.5,3,5,2.6C78.5,26.9,69.8,33.5,67.5,24.4z"/>
			<linearGradient id="SVGID_16_" gradientUnits="userSpaceOnUse" x1="59.4827" y1="49.5356" x2="24.9279" y2="185.0966">
				<stop  offset="5.618000e-03" style="stop-color:#909A34"/>
				<stop  offset="1" style="stop-color:#69714C"/>
			</linearGradient>
			<path fill="url(#SVGID_16_)" d="M67.3,21.7c0,0,2.9-0.4,3.1-5.1c0.2-4.6-1.4-3.7,0.2-5.6C70.7,11,60.6,15.2,67.3,21.7z"/>
			<g>
				<linearGradient id="SVGID_17_" gradientUnits="userSpaceOnUse" x1="71.9585" y1="52.7229" x2="37.4016" y2="188.2921">
					<stop  offset="5.618000e-03" style="stop-color:#909A34"/>
					<stop  offset="1" style="stop-color:#69714C"/>
				</linearGradient>
				<path fill="url(#SVGID_17_)" d="M29.8,68.8c10.2-37.7,49-60,86.8-49.9c1.1,0.3,2.1,0.6,3.1,0.9c-1.6-0.5-3.1-1-4.7-1.5
					c-37.4-10.1-75.9,12-86,49.5c-5.7,21.2-1.1,42.8,10.9,59.4C28.4,110.7,24.1,89.6,29.8,68.8z"/>
			</g>
		</g>
		<g>
			<linearGradient id="SVGID_18_" gradientUnits="userSpaceOnUse" x1="82.613" y1="55.4285" x2="48.0569" y2="190.9945">
				<stop  offset="5.618000e-03" style="stop-color:#909A34"/>
				<stop  offset="1" style="stop-color:#69714C"/>
			</linearGradient>
			<path fill="url(#SVGID_18_)" d="M37.4,92.9c5-29.5,32.9-49.3,62.3-44.4c7.9,1.3,15.1,4.3,21.3,8.5c-6.8-5.3-15-9.1-24.2-10.6
				c-29.2-4.9-56.9,14.8-61.8,44c-2.9,17.1,2.7,33.7,13.6,45.5C39.3,124.2,34.8,108.8,37.4,92.9z"/>
		</g>
		<linearGradient id="SVGID_19_" gradientUnits="userSpaceOnUse" x1="78.3821" y1="54.3527" x2="43.8252" y2="189.922">
			<stop  offset="5.618000e-03" style="stop-color:#909A34"/>
			<stop  offset="1" style="stop-color:#69714C"/>
		</linearGradient>
		<path fill="url(#SVGID_19_)" d="M48.3,133c0,0-14.5-23.2-5-44.2c0,0-2.5,28.5,19.6,42.5c0,0-10.6-11.5-12.3-23.2
			c0,0,7.5,23.8,33.3,30.8c0,0-24,2.8-36.6-17.9C47.1,121,45.7,123.8,48.3,133z"/>
		<linearGradient id="SVGID_20_" gradientUnits="userSpaceOnUse" x1="101.0235" y1="60.1277" x2="66.4628" y2="195.7119">
			<stop  offset="5.618000e-03" style="stop-color:#909A34"/>
			<stop  offset="1" style="stop-color:#69714C"/>
		</linearGradient>
		<circle fill="url(#SVGID_20_)" cx="103.9" cy="48.8" r="5"/>
		<linearGradient id="SVGID_21_" gradientUnits="userSpaceOnUse" x1="37.3731" y1="43.8992" x2="2.8147" y2="179.4744">
			<stop  offset="5.618000e-03" style="stop-color:#909A34"/>
			<stop  offset="1" style="stop-color:#69714C"/>
		</linearGradient>
		<circle fill="url(#SVGID_21_)" cx="27.6" cy="82.4" r="4.5"/>
	</g>
	<path fill="#FFFFFE" d="M107.9,79.7c0,0-4-1.8-6.6,0.5c-2.6,2.2-3.7,6.1-5.3,6.7c0,0-0.2-5.3-6.4-5.3c-6.3,0-11.1,1.1-12-2.2
		c0,0-1.1,4.8,1.6,6.9c2.7,2.1,4.3,1.9,4.3,1.9s-4.5-0.5-3.2,1.6c1.3,2.1,4.5,1.8,4.5,1.8s-1.8,1.4,0,2.1c1.8,0.6,5,0.6,5,0.6
		s-0.8,4.8-3.5,7.2c0,0,11.8,2,16.5-3.8C110.9,87.5,102.3,80.1,107.9,79.7z"/>
	<path fill="#FFFFFE" d="M97.1,83.3c0,0,1-5.5-3.8-5.9c-4.8-0.5-7.9,0.5-7.9-1.6c0,0-1.4,3.5,1.6,3.8C90.1,80,97.5,79.5,97.1,83.3z"
		/>
</g>
</svg>
