<?xml version="1.0" encoding="utf-8"?>
<!-- Generator: Adobe Illustrator 18.1.0, SVG Export Plug-In . SVG Version: 6.00 Build 0)  -->
<svg version="1.0" id="Layer_1" xmlns="http://www.w3.org/2000/svg" xmlns:xlink="http://www.w3.org/1999/xlink" x="0px" y="0px"
	 viewBox="0 0 150 150" enable-background="new 0 0 150 150" xml:space="preserve">
<g>
	<path fill="#0082B6" d="M47.7,120c-2-0.4-3.8-1.2-5.8-1.6c5.9,3.6,12.9,5.3,19.7,5.2c11.4,0.1,22.5-3.4,32.6-8.4
		c0.7-0.4,1.3-0.8,2-1.2H83.5c-2.6,1.2-5.2,2.5-8,3.5C66.7,120.5,57,122,47.7,120z"/>
	<path fill="#0082B6" d="M142.9,50.3c0-6.1-2-12.3-5.8-17.1c-2-2.4-4.4-4.5-7-6.1c-7.1-4.2-15.6-5.2-23.7-4.5
		c-7.2,0.6-14.2,2.6-20.9,5.3c0.6,0.1,1.2,0.1,1.8,0.2c2.1,0.3,4.3,0.7,6.5,1c2-0.3,3.9-0.7,5.9-0.8c8.1-0.4,16.6,1.5,22.9,7
		c0.7,0.6,1.2,1.5,1.8,2.2c0,0,0.1,0.1,0.1,0.1c1.7,1.7,2.7,3.3,3.5,4.8c0.9,1.6,1.4,2.8,1.8,4c0.7,2,1.3,3.8,1.8,5.6
		c1,3.5,1.8,6.9,2.5,10.4c0.9,4.4,1.6,8.5,2.2,12.5c1.2-2.3,2.3-4.6,3.3-7C141.6,62.2,143,56.3,142.9,50.3z"/>
	<path fill="#BF3F27" d="M42,72.3c6.6-5.5,13.1-11,19.5-16.7c1.6-1.4,3.2-2.9,4.8-4.4c0.7-0.7,1.4-1.3,2.2-1.8
		c0.7-0.5,1.5-0.9,2.1-1.1c0.7-0.2,1.2-0.2,1.6-0.1c0.4,0.1,0.8,0.3,1.3,0.8c0.5,0.5,0.9,1.2,1.3,2c0.4,0.8,0.7,1.6,1,2.6
		c0.6,1.8,1,3.8,1.4,5.8c0.3,2,0.6,4.1,0.8,6.1c0.2,2.4,0.4,4.9,0.5,7.3c-0.7-0.4-1.3-0.7-2-1c-2.4-1.1-4.9-2-7.6-2.4
		c-2.7-0.4-5.5-0.4-8.2,0.3c-1.3,0.3-2.6,0.8-3.9,1.5c-0.3,0.2-0.6,0.3-0.9,0.5c-0.3,0.2-0.6,0.4-0.8,0.6l-1.5,1
		c-4.1,2.6-8.1,5.4-12.1,8.1c-2,1.4-4,2.7-6,4.1c-2,1.4-4,2.8-6,4.2c1.1-0.5,2.2-1,3.3-1.6c1.1-0.5,2.2-1.1,3.3-1.6
		c2.2-1.1,4.4-2.1,6.5-3.3c4.3-2.2,8.7-4.4,12.9-6.8l1.6-0.9c0.3-0.2,0.5-0.3,0.7-0.4c0.2-0.1,0.5-0.2,0.7-0.3c1-0.4,2-0.7,3-0.9
		c2.1-0.4,4.2-0.2,6.3,0.2c2.1,0.5,4.2,1.3,6.2,2.4c1,0.5,2,1.1,2.9,1.7c0.5,0.3,0.9,0.6,1.4,1c0.2,0.2,0.4,0.3,0.7,0.5l0.3,0.2
		l0.3,0.2c0.5,0.4,1.1,0.6,1.8,0.6c1.5,0,2.8-1.2,2.8-2.7v0c0-2.2,0-4.3-0.1-6.5c-0.1-2.2-0.2-4.3-0.4-6.5c-0.2-2.2-0.5-4.4-0.8-6.6
		c-0.4-2.2-0.9-4.4-1.6-6.6c-0.4-1.1-0.8-2.2-1.4-3.4c-0.6-1.1-1.3-2.3-2.3-3.3c-0.5-0.5-1.1-1-1.8-1.4c-0.7-0.4-1.5-0.8-2.3-0.9
		c-0.8-0.2-1.7-0.2-2.5-0.1c-0.8,0.1-1.5,0.3-2.2,0.5c-1.4,0.5-2.5,1.2-3.5,1.9c-1,0.8-1.9,1.6-2.7,2.4l-4.5,4.5
		c-6.1,6-12.2,11.9-18.2,18c-5.8,5.9-11.7,11.9-17.3,18c0,0,0,0.1,0,0.1C29.1,82.8,35.6,77.6,42,72.3z"/>
	<path fill="#BF3F27" d="M136.8,87.6c-0.7-7.2-1.7-14.3-3.2-21.3c-0.7-3.5-1.5-7-2.5-10.5c-0.5-1.7-1-3.5-1.6-5.3
		c-0.3-0.9-0.7-1.8-1.2-2.7c-0.5-0.9-1-1.8-1.8-2.7c-0.8-0.8-1.9-1.6-3-1.9c-1.1-0.4-2.1-0.5-3-0.6c-0.9-0.1-1.7-0.2-2.6-0.3
		l-2.6-0.4L104.9,40c-3.5-0.6-7-1.2-10.5-1.7c-3.5-0.5-7-1.1-10.6-1.5c6.9,1.8,13.7,3.8,20.6,5.6c3.4,0.9,6.9,1.8,10.3,2.7
		c0.9,0.2,1.7,0.4,2.6,0.6c0.9,0.2,1.8,0.4,2.7,0.5c0.8,0.1,1.6,0.3,2.2,0.6c0.6,0.3,1,0.5,1.4,1c0.1,0.1,0.2,0.2,0.2,0.3
		c-2.9-0.7-5.8-1.4-8.7-2c-3.7-0.9-7.5-1.7-11.2-2.5c-3.7-0.8-7.5-1.6-11.3-2.4l-11.3-2.3l-1.4-0.3l0.4,1.4l2.4,9l0.1,0.6l0.6,0.1
		L92,51l8.7,1c2.9,0.3,5.8,0.7,8.8,1c2.9,0.3,5.8,0.6,8.8,0.9c-2.9-0.6-5.8-1.1-8.7-1.6c-2.9-0.5-5.8-1-8.7-1.4l-8.7-1.4l-8.1-1.2
		l-1.8-7.1l9.9,1.9c3.8,0.7,7.5,1.4,11.3,2.1c3.8,0.7,7.6,1.4,11.3,2c3,0.5,6,1,9.1,1.5c0.6,0.9,1,2.1,1.4,3.4
		c0.5,1.6,0.9,3.3,1.2,5c0.7,3.4,1.4,6.9,2,10.3c0.5,3.1,1,6.2,1.4,9.3c-3.1-0.4-6.1-0.7-9.2-0.9c-1.9-0.2-3.7-0.3-5.6-0.4
		c-1.8-0.1-3.7-0.2-5.6-0.3c-7.1-0.4-14.3-0.6-21.4-0.8c0-1.5-0.1-2.9-0.3-4.4c-0.1-0.9-0.2-1.8-0.3-2.7c-0.1-0.9-0.2-1.8-0.4-2.7
		c-0.3-1.8-0.6-3.5-1-5.2c-0.4-1.7-0.8-3.4-1.3-5.1l0.5,5.3c0.2,1.8,0.3,3.5,0.4,5.3c0.1,0.9,0.1,1.8,0.2,2.6c0,0.9,0.1,1.8,0.1,2.6
		c0,1.8,0.1,3.5,0,5.2l-0.1,1l1,0.1c7.4,0.4,14.9,0.7,22.4,0.9c1.9,0,3.7,0.1,5.6,0.1c1.9,0,3.7,0,5.6,0c3.1,0,6.2-0.1,9.3-0.2
		c0.5,3.7,0.9,7.5,1.2,11.2c0.1,1.7,0.2,3.5,0.3,5.2c0.1,1.7,0.1,3.3-0.1,4.8c-0.2,1.5-0.6,2.9-1.1,3.9c-0.6,0.9-1.3,1.5-2.5,1.9
		c-2.4,0.8-6.1,0.3-9.8,0.5l-10.6,0.2c-13.6,0.3-27.3,0.7-41,1.2c-0.1-2.1-0.4-4.2-0.8-6.2c-0.3-1.3-0.6-2.6-1-3.9
		c-0.4-1.3-0.9-2.6-1.7-3.8c-0.4-0.6-0.8-1.2-1.4-1.7c-0.5-0.5-1.2-1-1.9-1.2c-0.7-0.3-1.5-0.4-2.3-0.3c-0.7,0.1-1.4,0.3-2.1,0.6
		c-1.3,0.7-2.2,1.9-2.7,3c-0.6,1.2-1,2.5-1.1,3.8c0.4-1.3,0.9-2.5,1.6-3.5c0.7-1.1,1.6-1.9,2.7-2.4c0.5-0.2,1.1-0.3,1.7-0.3
		c0.6,0,1.1,0.2,1.5,0.4c0.9,0.5,1.6,1.5,2.2,2.5c0.5,1.1,0.9,2.2,1.2,3.4c0.3,1.2,0.5,2.4,0.6,3.7c0.2,2,0.2,4,0.2,6
		c-0.7,0-1.4,0-2.1,0c0.4-1.4,0.5-3,0.4-4.7c-0.3-4.6-2.4-8.3-4.7-8.1c-2.3,0.1-4,4-3.6,8.7c0.1,1.6,0.4,3.1,0.9,4.3
		c-0.5,0-0.9,0-1.4,0c-0.1-0.4-0.2-0.8-0.3-1.3c-0.2-0.7-0.3-1.4-0.5-2.1c-0.1-0.7-0.3-1.4-0.4-2.1c-0.1-0.7-0.2-1.4-0.2-2.1
		c-0.1,0.7-0.2,1.4-0.2,2.2c0,0.7,0,1.5,0,2.2c0,0.7,0.1,1.5,0.2,2.2c0,0.4,0.1,0.7,0.1,1.1c-3.5,0.1-6.9,0.2-10.4,0.3
		c-1.6,0.1-3.2,0.1-4.8,0.2c0.1-1,0.1-1.9,0-2.9c-0.1-0.8-0.2-1.7-0.7-2.6c-0.2-0.5-0.6-0.9-1.2-1.3c-0.5-0.3-1.2-0.5-1.8-0.5
		c-0.4,0-0.7,0.1-1.1,0.2c-0.3,0.2-0.6,0.4-0.8,0.6c-0.4,0.5-0.7,0.9-0.9,1.4c-0.4,0.9-0.5,1.7-0.6,2.5c-0.1,1-0.2,2-0.2,3
		c-1.5,0.1-3,0.2-4.5,0.2c0.2,0.4,0.3,0.8,0.5,1.2h107c0.3-0.1,0.5-0.3,0.8-0.4c0,0,0.1,0,0.1,0c1-0.8,1.9-1.8,2.5-2.8
		c0.6-1,1-2.1,1.3-3.2c0.3-1,0.5-2.1,0.6-3.1c0-0.2,0-0.4,0-0.7c0.1-1.7,0.2-3.5,0.1-5.1C137.1,91.2,137,89.4,136.8,87.6z
		 M31.3,106.8c0-0.8,0.1-1.7,0.2-2.5c0.1-0.7,0.3-1.3,0.5-1.8c0.1-0.2,0.2-0.4,0.3-0.5c0.1-0.1,0,0,0.1,0c0.2,0,0.2,0,0.3,0.1
		c0.1,0.1,0.2,0.2,0.3,0.4c0.2,0.4,0.4,1,0.4,1.6c0.1,0.9,0.1,1.8,0,2.7C32.7,106.7,32,106.7,31.3,106.8z"/>
	<path fill="#BF3F27" d="M108.4,84.4c3.1-0.1,6.3-0.4,9.3-0.9c3.1-0.5,6.1-1.3,9-2.5c-3.1,0.4-6.2,0.8-9.2,1.1
		c-3.1,0.3-6.1,0.4-9.2,0.5c-3.1,0.1-6.1,0.1-9.2,0.1c-3.1-0.1-6.2-0.1-9.3-0.3c3,0.9,6.1,1.4,9.2,1.7
		C102.2,84.4,105.3,84.5,108.4,84.4z"/>
	<path fill="#BF3F27" d="M117.9,85.9c-3.1,0.3-6.1,0.4-9.2,0.5c-3.1,0.1-6.2,0.1-9.2,0.1c-3.1-0.1-6.2-0.1-9.3-0.3
		c3,0.9,6.1,1.4,9.2,1.7c3.1,0.3,6.2,0.4,9.4,0.3c3.1-0.1,6.2-0.4,9.3-0.9c3.1-0.5,6.1-1.3,9-2.5C124,85.2,121,85.6,117.9,85.9z"/>
	<path fill="#BF3F27" d="M118.3,89.7c-3.1,0.3-6.1,0.4-9.2,0.5c-3.1,0.1-6.1,0.1-9.2,0.1c-3.1-0.1-6.2-0.2-9.3-0.3
		c3,0.9,6.1,1.3,9.2,1.7c3.1,0.3,6.2,0.4,9.4,0.3c3.1-0.1,6.3-0.4,9.3-0.9c3.1-0.5,6.1-1.3,9-2.5C124.4,89.1,121.3,89.4,118.3,89.7z
		"/>
	<path fill="#BF3F27" d="M90.4,101.3c0.8-0.1,1.4-0.5,1.9-1.1c0.4-0.5,0.6-1,0.6-1.5c-0.1,0.5-0.4,1-0.8,1.4
		c-0.5,0.4-1.2,0.5-1.7,0.4c-0.6-0.1-1-0.5-1.2-0.8c-0.3-0.4-0.4-0.8-0.4-1.2c0-0.4,0.1-0.8,0.4-1.2c0.3-0.4,0.7-0.7,1.2-0.8
		c0.6-0.1,1.2,0,1.7,0.4c0.4,0.3,0.7,0.8,0.8,1.4c-0.1-0.6-0.3-1.1-0.6-1.5c-0.4-0.6-1.1-1-1.8-1.1c-0.8-0.2-1.7,0-2.3,0.6
		c-0.7,0.6-1.1,1.4-1.1,2.3c0,0.9,0.4,1.8,1.1,2.3C88.8,101.2,89.7,101.4,90.4,101.3z"/>
	<path fill="#BF3F27" d="M123.4,95.4c-0.8,0.1-1.4,0.6-1.9,1.1c-0.4,0.5-0.6,1-0.6,1.5c0.1-0.5,0.4-1,0.8-1.4
		c0.5-0.4,1.1-0.5,1.7-0.4c0.6,0.1,1,0.5,1.2,0.8c0.3,0.4,0.4,0.8,0.4,1.2c0,0.4-0.1,0.8-0.4,1.2c-0.3,0.4-0.7,0.7-1.2,0.8
		c-0.6,0.1-1.2,0-1.7-0.4c-0.4-0.3-0.7-0.8-0.8-1.4c0.1,0.6,0.3,1.1,0.6,1.5c0.4,0.5,1.1,1,1.8,1.1c0.8,0.1,1.7-0.1,2.3-0.7
		c0.7-0.5,1.1-1.4,1.1-2.3c0-0.9-0.4-1.8-1.1-2.3C125.1,95.5,124.2,95.3,123.4,95.4z"/>
	<path fill="#BF3F27" d="M26.3,79.3c1.1-1,2.2-2.1,3.3-3.1c1.1-1.1,2.2-2.1,3.2-3.3c2.1-2.3,4-4.6,6.2-6.8c2.1-2.2,4.4-4.2,6.7-6.2
		c2.3-2,4.7-3.9,7-6c1.1-1,2.3-2,3.4-3.1l3.4-3.1c4.4-4,8.6-8.3,12.7-12.7c1.4,0.1,2.9,0.2,4.4,0.3l2.5,0.1c0.8,0,1.6,0,2.5,0l0-0.3
		c-0.8-0.2-1.6-0.4-2.4-0.6l-2.4-0.6c-1.6-0.4-3.2-0.7-4.8-1L71.5,33l-0.4,0.4c-4.7,4-9.2,8.1-13.5,12.4L54.4,49
		c-1.1,1.1-2.1,2.2-3.2,3.3C49,54.5,47,56.8,44.9,59c-2.1,2.2-4.2,4.4-6.5,6.5c-2.3,2.1-4.7,3.9-7,5.9c-1.2,1-2.3,2-3.4,3.1
		c-0.8,0.8-1.5,1.5-2.3,2.3c-0.6,1.5-1.1,3-1.6,4.6C24.8,80.6,25.6,80,26.3,79.3z"/>
	<path fill="#005F9C" d="M102.6,114c-4.3,2.4-8.7,4.7-13.4,6.4c-9.9,3.9-20.5,6.3-31.2,6.1c-8.5-0.1-17.1-2.3-24.1-7.1l0,0
		c-2.1-1.5-3.9-3.3-5.5-5.3c-1.4-1.8-2.7-3.6-3.7-5.7c-0.2-0.4-0.3-0.8-0.5-1.2c-0.5-1.2-1-2.3-1.3-3.5c-1.4-5.1-1.4-10.5-0.6-15.7
		c0,0,0-0.1,0-0.1c0-0.2,0-0.4,0-0.6c0.4-2,1-3.9,1.6-5.9c0.5-1.5,1-3.1,1.6-4.6c2.9-7.3,7.1-14,12-20.1
		c9.2-11.1,20.7-20.1,33.4-26.8c1.4-0.7,2.8-1.3,4.2-1.9c0.4-0.2,0.8-0.4,1.2-0.5c0.4-0.2,0.9-0.4,1.3-0.6c10.6-4.6,22-7.6,33.6-7.7
		c6.7,0.1,13.6,1,19.6,4c0-0.1-0.1-0.3-0.1-0.4c-9.4-6-21-7.6-32-6.8c-10.5,0.8-20.7,3.7-30.4,7.9c-5.4,2.3-10.8,4.9-15.8,8
		c-5.6,3.5-11,7.5-16,11.9c-3.8,3.3-7.4,6.9-10.7,10.7c-1.9,2.2-3.8,4.4-5.5,6.7C14.7,68.9,10.2,77.8,8,87.3
		c-0.2,1.1-0.6,2.1-0.8,3.2C7.1,91,7.1,91.6,7,92.2c-0.6,4.7-0.6,9.4,0.3,14.1c0.6,2.7,1.7,5.3,3,7.8c2.1,4,5,7.6,8.5,10.4
		c4,3.1,8.7,5.3,13.6,6.6c8.1,2.2,16.6,2.4,24.9,1.3c10.2-1.3,20.2-4.5,29.5-8.8c5.7-2.7,11.2-5.9,16.4-9.5c1-0.7,2.1-1.3,3-2
		C105.1,112.7,103.9,113.3,102.6,114z"/>
</g>
</svg>
