<?xml version="1.0" encoding="utf-8"?>
<!-- Generator: Adobe Illustrator 18.1.0, SVG Export Plug-In . SVG Version: 6.00 Build 0)  -->
<svg version="1.1" id="Layer_1" xmlns="http://www.w3.org/2000/svg" xmlns:xlink="http://www.w3.org/1999/xlink" x="0px" y="0px"
	 viewBox="0 0 1500 1500" enable-background="new 0 0 1500 1500" xml:space="preserve">
<g>
	
		<radialGradient id="SVGID_1_" cx="1388.7142" cy="1590.2634" r="709.2269" gradientTransform="matrix(-8.550000e-02 -0.9963 -0.9963 8.550000e-02 1967.1038 1869.2249)" gradientUnits="userSpaceOnUse">
		<stop  offset="5.618000e-03" style="stop-color:#BFD5B8"/>
		<stop  offset="1" style="stop-color:#00A251"/>
	</radialGradient>
	<path fill="url(#SVGID_1_)" d="M679.3,1014.4c-25.7-66.3-103.8-48.6-121.4-14.4c-21,41,23.7,98.5,56.5,68.7
		c31.8-28.9,10.4-49.9,10.4-49.9s-4.6,60.8-36.6,30.9c-33.6-31.5-5.7-66.5,43.8-60.9c28.5,3.2,37,51.9,39,92.6c2-15.3,4-30,5.7-43.8
		C677.8,1029.5,678.6,1021.9,679.3,1014.4z"/>
	
		<radialGradient id="SVGID_2_" cx="2045.0463" cy="848.1033" r="1090.5007" gradientTransform="matrix(-0.1657 -0.9862 0.9862 -0.1657 712.182 2032.6617)" gradientUnits="userSpaceOnUse">
		<stop  offset="5.618000e-03" style="stop-color:#BFD5B8"/>
		<stop  offset="1" style="stop-color:#00A251"/>
	</radialGradient>
	<path fill="url(#SVGID_2_)" d="M741.9,619.4c3.9,10.8,8,21.9,12.5,33.5c7.8,19.9,16.5,41,25.3,63c-12.6-61.4-18.6-137.1,22.6-152.8
		c71.6-27.3,126.6,14.2,88.6,74c-36.1,56.8-66.3-32-66.3-32s-23.8,39.5,34.6,70.3c60.3,31.8,104.9-70.9,57.9-123.9
		C877.9,507.3,754.8,510.8,741.9,619.4z"/>
	
		<radialGradient id="SVGID_3_" cx="1931.8951" cy="651.145" r="748.0196" gradientTransform="matrix(-0.1657 -0.9862 0.9862 -0.1657 712.182 2032.6617)" gradientUnits="userSpaceOnUse">
		<stop  offset="5.618000e-03" style="stop-color:#BFD5B8"/>
		<stop  offset="1" style="stop-color:#00A251"/>
	</radialGradient>
	<path fill="url(#SVGID_3_)" d="M779.8,716l-37.9-96.5c-76.3-213.9-19.9-277.2-19.9-277.2c-48.4,37.2-84,103.1,45.4,443.3
		c104.8,275.3-20.8,411.9-73.8,454.6c3.3,16.4,7.8,31.3,13.1,44.7c44.6-26.8,103.8-70.1,134.7-202.3
		C870.9,955.7,823.4,824.7,779.8,716C789,761.2,779.8,716,779.8,716z"/>
	
		<radialGradient id="SVGID_4_" cx="2090.3462" cy="1196.549" r="1256.5098" gradientTransform="matrix(-0.3843 -0.9232 0.9232 -0.3843 948.9494 2148.4775)" gradientUnits="userSpaceOnUse">
		<stop  offset="5.618000e-03" style="stop-color:#BFD5B8"/>
		<stop  offset="1" style="stop-color:#00A251"/>
	</radialGradient>
	<path fill="url(#SVGID_4_)" d="M927.2,404.3c0,0-116.6-81.1-203.8,30.9C723.3,435.2,791.6,523.6,927.2,404.3z"/>
	
		<radialGradient id="SVGID_5_" cx="2153.3259" cy="907.2118" r="1256.384" gradientTransform="matrix(-0.1657 -0.9862 0.9862 -0.1657 712.182 2032.6617)" gradientUnits="userSpaceOnUse">
		<stop  offset="5.618000e-03" style="stop-color:#BFD5B8"/>
		<stop  offset="1" style="stop-color:#00A251"/>
	</radialGradient>
	<path fill="url(#SVGID_5_)" d="M657.9,389.9c0,0,46-81.3-89.8-147.1C568.1,242.8,543.3,358.9,657.9,389.9z"/>
	
		<radialGradient id="SVGID_6_" cx="2314.7732" cy="1368.7893" r="2371.0325" gradientTransform="matrix(-0.1657 -0.9862 0.9862 -0.1657 712.182 2032.6617)" gradientUnits="userSpaceOnUse">
		<stop  offset="5.618000e-03" style="stop-color:#E67ECE"/>
		<stop  offset="1" style="stop-color:#B54878"/>
	</radialGradient>
	<path fill="url(#SVGID_6_)" d="M713.8,287.7c-8.5-32.4,11.3-40.1,64.5-110.8c53.3-70.7,2.9-109.8,2.9-109.8
		c9.8,26-27.3,56-75.6,113.6C657.4,238.3,713.8,287.7,713.8,287.7z M723.7,172.6c28.4-26.7,59.3-51.6,60.4-71.6
		c0,0,3.9,23.5-43,70.8l-36.9,41.3C704.2,213.2,695.3,199.4,723.7,172.6z"/>
	
		<radialGradient id="SVGID_7_" cx="2314.7939" cy="1368.9243" r="2371.2549" gradientTransform="matrix(-0.1657 -0.9862 0.9862 -0.1657 712.182 2032.6617)" gradientUnits="userSpaceOnUse">
		<stop  offset="5.618000e-03" style="stop-color:#E67ECE"/>
		<stop  offset="1" style="stop-color:#B54878"/>
	</radialGradient>
	<path fill="url(#SVGID_7_)" d="M856.9,245.8c-63.1,62.1-68.1,82.7-101.4,78.6c0,0,56.5,49.4,107.2-6
		c50.7-55.5,75.6-96.2,102.7-89.9C965.5,228.4,920,183.7,856.9,245.8z"/>
	
		<radialGradient id="SVGID_8_" cx="2314.7646" cy="1368.8772" r="2371.1709" gradientTransform="matrix(-0.1657 -0.9862 0.9862 -0.1657 712.182 2032.6617)" gradientUnits="userSpaceOnUse">
		<stop  offset="5.618000e-03" style="stop-color:#E67ECE"/>
		<stop  offset="1" style="stop-color:#B54878"/>
	</radialGradient>
	<path fill="url(#SVGID_8_)" d="M722.5,265.4c-13,16.8,2,37,8.3,44.2l-0.2,0.3c0,0,0.6,0.5,1.5,1.2c0.8,0.9,1.3,1.3,1.3,1.3l0.3-0.3
		c8,5.3,30,17.5,44.9,2.4c18.6-18.7,111.5-144.6,153.4-127.9c0,0-8.5-22.5-33.2-21.6l-8.3-34.3l0.2-0.3l-0.3-0.1l-0.1-0.3l-0.2,0.3
		l-35.1-3.8c-2.3-24.5-25.7-30-25.7-30C851.2,135.9,738.7,244.6,722.5,265.4z"/>
	<path fill="#DBC0B0" d="M784.1,101.1c-1,19.9-31.9,44.9-60.4,71.6c-28.4,26.7-19.5,40.6-19.5,40.6l36.9-41.3
		C788,124.5,784.1,101.1,784.1,101.1z"/>
	
		<radialGradient id="SVGID_9_" cx="1307.0828" cy="1462.2063" r="477.9576" gradientTransform="matrix(-8.550000e-02 -0.9963 -0.9963 8.550000e-02 1967.1038 1869.2249)" gradientUnits="userSpaceOnUse">
		<stop  offset="5.618000e-03" style="stop-color:#BFD5B8"/>
		<stop  offset="1" style="stop-color:#00A251"/>
	</radialGradient>
	<path fill="url(#SVGID_9_)" d="M672.2,1255.4c0,0,8.6-4.9,21.4-15.3c-6.5-32.5-8.6-71.1-3.4-117c26.3-235.2-8.1-266.4-43.3-286.5
		c0,0,45.8,30.7,32.4,177.9l-8.2,67c-9.9,75.6-18.6,165.7,20.6,240.7c48,92,100.1,85.1,134.1,81.7l0.5-0.2
		c0,0-81.4-22.1-119.6-118.8c-7.8,4.7-15.2,8.9-21.9,13L672.2,1255.4z"/>
	
		<radialGradient id="SVGID_10_" cx="1931.8951" cy="651.145" r="748.0196" gradientTransform="matrix(-0.1657 -0.9862 0.9862 -0.1657 712.182 2032.6617)" gradientUnits="userSpaceOnUse">
		<stop  offset="5.618000e-03" style="stop-color:#BFD5B8"/>
		<stop  offset="1" style="stop-color:#00A251"/>
	</radialGradient>
	<path fill="url(#SVGID_10_)" d="M672.2,1255.4l12.7,42.3c6.7-4.1,14.1-8.3,21.9-13c-5.3-13.4-9.8-28.3-13.1-44.7
		C680.8,1250.4,672.2,1255.4,672.2,1255.4z"/>
	
		<radialGradient id="SVGID_11_" cx="1307.0828" cy="1462.2063" r="477.9576" gradientTransform="matrix(-8.550000e-02 -0.9963 -0.9963 8.550000e-02 1967.1038 1869.2249)" gradientUnits="userSpaceOnUse">
		<stop  offset="5.618000e-03" style="stop-color:#BFD5B8"/>
		<stop  offset="1" style="stop-color:#00A251"/>
	</radialGradient>
	<path fill="url(#SVGID_11_)" d="M672.2,1255.4l12.7,42.3c6.7-4.1,14.1-8.3,21.9-13c-5.3-13.4-9.8-28.3-13.1-44.7
		C680.8,1250.4,672.2,1255.4,672.2,1255.4z"/>
	
		<radialGradient id="SVGID_12_" cx="1249.4005" cy="1742.1206" r="817.106" gradientTransform="matrix(0.142 -0.9899 -0.9899 -0.142 1766.6888 2038.9958)" gradientUnits="userSpaceOnUse">
		<stop  offset="5.618000e-03" style="stop-color:#BFD5B8"/>
		<stop  offset="1" style="stop-color:#00A251"/>
	</radialGradient>
	<path fill="url(#SVGID_12_)" d="M661.1,895.4C588,839,527.7,908.9,527.7,908.9C632.4,962.1,661.1,895.4,661.1,895.4z"/>
	
		<radialGradient id="SVGID_13_" cx="1459.0956" cy="1628.8851" r="817.306" gradientTransform="matrix(-8.550000e-02 -0.9963 -0.9963 8.550000e-02 1967.1038 1869.2249)" gradientUnits="userSpaceOnUse">
		<stop  offset="5.618000e-03" style="stop-color:#BFD5B8"/>
		<stop  offset="1" style="stop-color:#00A251"/>
	</radialGradient>
	<path fill="url(#SVGID_13_)" d="M727.7,749c-74.8,63.5-32.7,107.2-32.7,107.2C762.1,818.1,727.7,749,727.7,749z"/>
	
		<radialGradient id="SVGID_14_" cx="1564.173" cy="1928.986" r="1542.1709" gradientTransform="matrix(-8.550000e-02 -0.9963 -0.9963 8.550000e-02 1967.1038 1869.2249)" gradientUnits="userSpaceOnUse">
		<stop  offset="5.618000e-03" style="stop-color:#E67ECE"/>
		<stop  offset="1" style="stop-color:#B54878"/>
	</radialGradient>
	<path fill="url(#SVGID_14_)" d="M584.5,741.6c45,35.9,58.7,37.5,58.6,59.3c0,0,27.5-40.3-12.2-68.7c-39.8-28.5-68-41.3-66.1-59.3
		C564.9,672.9,539.5,705.7,584.5,741.6z M618.3,730.1c22.2,12.2,18.9,22.4,18.9,22.4l-30-20c-37.2-22.2-38.5-37.6-38.5-37.6
		C572.5,707.2,596,717.9,618.3,730.1z"/>
	
		<radialGradient id="SVGID_15_" cx="1564.1604" cy="1929.0081" r="1542.1912" gradientTransform="matrix(-8.550000e-02 -0.9963 -0.9963 8.550000e-02 1967.1038 1869.2249)" gradientUnits="userSpaceOnUse">
		<stop  offset="5.618000e-03" style="stop-color:#E67ECE"/>
		<stop  offset="1" style="stop-color:#B54878"/>
	</radialGradient>
	<path fill="url(#SVGID_15_)" d="M622.8,830.7c-20.3,8-26.7-4.1-76.6-33c-49.8-28.9-71.2,6.7-71.2,6.7c16.1-8.3,38.3,13.3,79.2,40
		C595.3,871.1,622.8,830.7,622.8,830.7z"/>
	
		<radialGradient id="SVGID_16_" cx="1564.1788" cy="1928.9584" r="1542.1455" gradientTransform="matrix(-8.550000e-02 -0.9963 -0.9963 8.550000e-02 1967.1038 1869.2249)" gradientUnits="userSpaceOnUse">
		<stop  offset="5.618000e-03" style="stop-color:#E67ECE"/>
		<stop  offset="1" style="stop-color:#B54878"/>
	</radialGradient>
	<path fill="url(#SVGID_16_)" d="M606.7,828.3c11.9,7,23.7-4.2,27.9-8.8l0.2,0.1c0,0,0.2-0.4,0.6-1.1c0.5-0.6,0.8-1,0.8-1l-0.2-0.1
		c2.8-5.6,8.9-20.7-2-29.2c-13.5-10.5-102.1-60.7-94.6-89c0,0-13.8,7.3-11.3,23.1l-21.5,8.1l-0.2-0.2l0,0.2l-0.2,0.1l0.2,0.1
		l0.3,22.9c-15.7,3.4-17.4,19-17.4,19C513,755.3,592,819.6,606.7,828.3z"/>
	<path fill="#DBC0B0" d="M607.2,732.4l30,20c0,0,3.4-10.2-18.9-22.4c-22.2-12.2-45.7-22.9-49.6-35.3
		C568.6,694.8,570,710.2,607.2,732.4z"/>
</g>
</svg>
