<?xml version="1.0" encoding="utf-8"?>
<!-- Generator: Adobe Illustrator 14.0.0, SVG Export Plug-In . SVG Version: 6.00 Build 43363)  -->
<!DOCTYPE svg PUBLIC "-//W3C//DTD SVG 1.1//EN" "http://www.w3.org/Graphics/SVG/1.1/DTD/svg11.dtd">
<svg version="1.1" id="Layer_1" xmlns="http://www.w3.org/2000/svg" xmlns:xlink="http://www.w3.org/1999/xlink" x="0px" y="0px"
	 width="150px" height="150px" viewBox="0 0 150 150" enable-background="new 0 0 150 150" xml:space="preserve">
<g>
	<polygon fill="none" points="6.068,56.601 11.458,61.964 13.271,61.119 	"/>
	<path fill="none" d="M12.749,63.298c-0.052,0.062-0.052,0.218,0,0.306l21.534,21.507c0.043,0.052,0.096,0.069,0.157,0.069
		c0.043,0,0.104-0.018,0.14-0.069c0.104-0.061,0.104-0.201,0-0.313l-21.507-21.5C12.984,63.203,12.853,63.203,12.749,63.298z"/>
	<polygon fill="none" points="16.7,45.942 22.089,51.324 23.912,50.487 	"/>
	<path fill="none" d="M34.544,42.445c-0.079,0.104-0.079,0.262,0,0.332l19.571,19.57c0.035,0.07,0.096,0.087,0.157,0.087
		c0.069,0,0.13-0.018,0.148-0.087c0.096-0.078,0.096-0.227,0-0.296L34.866,42.445C34.762,42.393,34.623,42.393,34.544,42.445z"/>
	<polygon fill="none" points="90.413,12.653 90.413,20.275 92.307,20.956 	"/>
	<path fill="none" d="M44.164,133.881c0.043-0.794,0.366-1.465,0.366-2.145c0-0.28-0.061-0.558-0.227-0.803
		c-0.139-0.183-0.296-0.278-0.497-0.278c-1.056,0.096-2.058,2.678-2.102,4.29c0,0.34,0.044,0.662,0.201,0.934
		c0.305,0.479,0.688,1.09,1.36,1.09c0.209,0,0.436-0.069,0.654-0.21c0.471-0.209,0.628-0.575,0.628-0.941
		c-0.018-0.645-0.401-1.299-0.383-1.901V133.881z"/>
	<path fill="none" d="M23.397,52.624c-0.078,0.096-0.078,0.235,0,0.323l48.98,48.963v-0.611L23.703,52.624
		C23.625,52.562,23.511,52.562,23.397,52.624z"/>
	<polygon fill="none" points="27.357,35.294 32.747,40.675 34.579,39.829 	"/>
	<path fill="none" d="M99.745,129.276c0.035,0.044,0.088,0.062,0.131,0.062c0.062,0,0.122-0.018,0.184-0.062
		c0.061-0.096,0.061-0.244,0-0.305l-22.677-22.668v0.611L99.745,129.276z"/>
	<path fill="none" d="M126.529,52.946c0.087-0.087,0.087-0.227,0-0.323c-0.078-0.061-0.219-0.061-0.322,0l-48.824,48.849v0.619
		L126.529,52.946z"/>
	<path fill="none" d="M90.641,50.705V23.023c0-0.096-0.122-0.209-0.228-0.209c-0.139,0-0.226,0.114-0.226,0.209v27.682
		c0,0.148,0.087,0.227,0.226,0.227C90.519,50.932,90.641,50.853,90.641,50.705z"/>
	<path fill="none" d="M49.894,129.276c0.052,0.044,0.104,0.062,0.166,0.062c0.061,0,0.095-0.018,0.14-0.062l22.179-22.179v-0.619
		l-22.484,22.493C49.815,129.032,49.815,129.181,49.894,129.276z"/>
	<polygon fill="none" points="75.343,12.653 75.343,20.275 77.244,20.956 	"/>
	<path fill="none" d="M105.389,135.817c-0.018,0.366,0.157,0.732,0.602,0.941c0.245,0.141,0.471,0.21,0.689,0.21
		c0.688,0,1.046-0.61,1.369-1.09c0.139-0.271,0.184-0.594,0.184-0.934c-0.045-1.612-1.073-4.194-2.096-4.29
		c-0.208,0-0.365,0.096-0.496,0.278l0.035,0.017c-0.21,0.244-0.253,0.506-0.253,0.786c0,0.68,0.332,1.359,0.349,2.11v0.069
		C105.771,134.545,105.389,135.173,105.389,135.817z"/>
	<polygon fill="none" points="133.227,45.942 126.032,50.478 127.846,51.324 	"/>
	<path fill="none" d="M95.821,62.348l19.57-19.57c0.104-0.088,0.104-0.228,0-0.332c-0.077-0.053-0.219-0.053-0.296,0l-19.58,19.606
		c-0.079,0.07-0.079,0.218,0,0.296c0.044,0.07,0.088,0.087,0.14,0.087C95.726,62.435,95.787,62.417,95.821,62.348z"/>
	<path fill="none" d="M115.349,84.798c-0.079,0.112-0.079,0.253,0,0.313c0.043,0.052,0.078,0.069,0.147,0.069
		c0.062,0,0.096-0.018,0.157-0.069l21.533-21.507c0.079-0.087,0.079-0.244,0-0.314c-0.078-0.104-0.227-0.104-0.305,0L115.349,84.798
		z"/>
	<polygon fill="none" points="122.578,35.294 115.374,39.829 117.188,40.675 	"/>
	<polygon fill="none" points="136.681,61.119 138.504,61.964 143.884,56.592 	"/>
	<polygon fill="none" points="60.272,20.275 62.165,20.956 60.272,12.653 	"/>
	<path fill="none" d="M60.046,22.36v30.421c0,0.122,0.104,0.235,0.227,0.235c0.113,0,0.218-0.113,0.218-0.235V22.36
		c0-0.131-0.104-0.236-0.218-0.236C60.15,22.124,60.046,22.229,60.046,22.36z"/>
	<path fill="none" d="M76.154,137.788c-0.55,0.672-1.928,0.715-1.963,1.841c0,0.131,0.018,0.244,0.07,0.384
		c0.148,0.68,0.654,0.968,1.142,0.968h0.043c0.306,0,0.593-0.086,0.881-0.139c1.248-0.384,2.503-3.054,2.547-4.396
		c0-0.401-0.156-0.802-0.61-0.802c-0.078,0-0.121,0-0.158,0.017v0.018C77.078,135.869,76.877,137.047,76.154,137.788z"/>
	<path fill="#00A0C1" d="M134.526,61.903l0.942,0.218l-20.408,20.426c-2.852,1.979-5.076,2.765-7.448,2.782
		c-0.532,0-1.143-0.034-1.78-0.148c-1.237-0.253-1.378-0.515-2.118-1.5c-0.428-0.593-0.89-1.5-1.553-2.485l26.165-26.173
		l0.209,0.889l7.457-12.105l-12.106,7.466l0.951,0.2l-26.19,26.191c-0.985-0.646-1.901-1.135-2.503-1.553
		c-0.984-0.75-1.229-0.889-1.491-2.164c-0.123-0.627-0.166-1.185-0.166-1.761c0-2.354,0.803-4.57,3.078-7.719l20.129-20.12
		l0.201,0.924l7.466-12.097l-12.124,7.449l0.926,0.217L93.737,61.231c-2.835,3.907-4.248,7.292-4.248,10.954
		c0,0.837,0.079,1.701,0.218,2.546c0.383,2.73,2.164,4.631,3.672,5.53c0.603,0.384,1.124,0.707,1.64,1.012L77.383,98.908v2.564
		l48.824-48.849c0.104-0.061,0.244-0.061,0.322,0c0.087,0.096,0.087,0.235,0,0.323l-49.146,49.146v4.212l22.677,22.668
		c0.061,0.061,0.061,0.209,0,0.305c-0.062,0.044-0.122,0.062-0.184,0.062c-0.043,0-0.096-0.018-0.131-0.062l-22.362-22.361v3.871
		l20.906,20.915l0.462-0.471c-0.025,0.121-0.062,0.226-0.062,0.322c0,1.562,0.803,3.358,2.26,4.823
		c1.456,1.456,3.253,2.241,4.806,2.241c0.942,0,1.797-0.305,2.433-0.898c0.627-0.654,0.917-1.499,0.917-2.451
		c0-1.568-0.786-3.349-2.241-4.805c-1.475-1.431-3.254-2.232-4.824-2.232c-0.131,0-0.227,0.033-0.339,0.033l0.112-0.095
		L78.5,104.856l20.042-20.059c0.331,0.514,0.61,1.046,0.994,1.64c0.941,1.534,2.817,3.313,5.564,3.68
		c0.828,0.113,1.657,0.191,2.512,0.191h0.062c3.646,0,7.037-1.413,10.604-3.959l20.724-20.67l0.175,0.89l7.49-12.105L134.526,61.903
		z M122.578,35.294l-5.39,5.381l-1.814-0.846L122.578,35.294z M95.516,62.051l19.58-19.606c0.077-0.053,0.219-0.053,0.296,0
		c0.104,0.104,0.104,0.244,0,0.332l-19.57,19.57c-0.034,0.07-0.096,0.087-0.166,0.087c-0.052,0-0.096-0.018-0.14-0.087
		C95.437,62.27,95.437,62.121,95.516,62.051z M126.032,50.478l7.194-4.536l-5.381,5.381L126.032,50.478z M105.423,131.736
		c0-0.28,0.043-0.542,0.253-0.786l-0.035-0.017c0.131-0.183,0.288-0.278,0.496-0.278c1.022,0.096,2.051,2.678,2.096,4.29
		c0,0.34-0.045,0.662-0.184,0.934c-0.323,0.479-0.681,1.09-1.369,1.09c-0.219,0-0.444-0.069-0.689-0.21
		c-0.444-0.209-0.619-0.575-0.602-0.941c0-0.645,0.383-1.272,0.383-1.901v-0.069C105.755,133.096,105.423,132.416,105.423,131.736z
		 M137.187,63.604l-21.533,21.507c-0.062,0.052-0.096,0.069-0.157,0.069c-0.069,0-0.104-0.018-0.147-0.069
		c-0.079-0.061-0.079-0.201,0-0.313l21.533-21.508c0.078-0.104,0.227-0.104,0.305,0C137.266,63.36,137.266,63.517,137.187,63.604z
		 M138.504,61.964l-1.823-0.846l7.203-4.527L138.504,61.964z"/>
	<path fill="#00A0C1" d="M50.199,129.276c-0.044,0.044-0.079,0.062-0.14,0.062c-0.062,0-0.114-0.018-0.166-0.062
		c-0.079-0.096-0.079-0.244,0-0.305l22.484-22.493v-4.569l-48.98-48.963c-0.078-0.087-0.078-0.227,0-0.323
		c0.114-0.061,0.227-0.061,0.306,0l48.675,48.674v-2.563L54.917,81.273c0.506-0.305,1.038-0.593,1.64-1.012
		c1.535-0.925,3.306-2.8,3.689-5.53c0.122-0.863,0.183-1.691,0.183-2.546c0.017-3.646-1.396-7.047-3.977-10.64L35.791,40.84
		l0.907-0.217l-12.097-7.449l7.439,12.097l0.218-0.924l20.399,20.426c1.98,2.86,2.765,5.058,2.765,7.413
		c0,0.549-0.044,1.134-0.114,1.779c-0.288,1.264-0.523,1.413-1.517,2.162c-0.585,0.385-1.492,0.873-2.486,1.536l-26.19-26.191
		l0.951-0.2l-12.123-7.466l7.466,12.105l0.201-0.889l26.173,26.173c-0.646,0.985-1.134,1.893-1.535,2.485
		c-0.742,0.985-0.916,1.247-2.181,1.5c-0.628,0.114-1.212,0.148-1.753,0.148c-2.364-0.018-4.579-0.804-7.735-3.018l-20.112-20.19
		l0.941-0.218L3.277,54.463l7.474,12.105l0.201-0.89l20.426,20.4c3.845,2.816,7.256,4.229,10.875,4.229h0.061
		c0.864,0,1.675-0.078,2.459-0.191c2.817-0.366,4.692-2.146,5.634-3.68c0.375-0.576,0.68-1.126,0.985-1.64l20.051,20.05
		l-23.321,23.321l0.122,0.095c-0.122,0-0.209-0.033-0.34-0.033c-1.561,0-3.358,0.784-4.815,2.232h-0.017
		c-1.448,1.456-2.233,3.236-2.259,4.805c0,0.952,0.323,1.797,0.934,2.451c0.636,0.594,1.482,0.898,2.459,0.898
		c1.534,0,3.332-0.785,4.779-2.241c1.456-1.465,2.276-3.262,2.276-4.823c0-0.097-0.079-0.218-0.079-0.322l0.489,0.471l20.705-20.723
		v-3.881L50.199,129.276z M27.357,35.294l7.222,4.535l-1.832,0.846L27.357,35.294z M54.42,62.348
		c-0.018,0.07-0.079,0.087-0.148,0.087c-0.061,0-0.123-0.018-0.157-0.087l-19.571-19.57c-0.079-0.07-0.079-0.228,0-0.332
		c0.079-0.053,0.218-0.053,0.322,0L54.42,62.051C54.516,62.121,54.516,62.27,54.42,62.348z M16.7,45.942l7.212,4.544l-1.823,0.837
		L16.7,45.942z M6.068,56.601l7.203,4.518l-1.813,0.846L6.068,56.601z M34.579,85.111c-0.035,0.052-0.097,0.069-0.14,0.069
		c-0.062,0-0.114-0.018-0.157-0.069L12.749,63.604c-0.052-0.087-0.052-0.244,0-0.306c0.104-0.095,0.236-0.095,0.323,0l21.507,21.5
		C34.684,84.91,34.684,85.051,34.579,85.111z M43.919,136.759c-0.218,0.141-0.445,0.21-0.654,0.21c-0.672,0-1.055-0.61-1.36-1.09
		c-0.157-0.271-0.201-0.594-0.201-0.934c0.044-1.612,1.046-4.194,2.102-4.29c0.201,0,0.358,0.096,0.497,0.278
		c0.166,0.245,0.227,0.522,0.227,0.803c0,0.68-0.322,1.351-0.366,2.145v0.035c-0.018,0.603,0.366,1.257,0.383,1.901
		C44.547,136.184,44.391,136.55,43.919,136.759z"/>
	<path fill="#3D7E8D" d="M77.383,106.304v-4.212v-0.619v-2.564v-34.24c1.048,0.279,2.25,0.593,3.829,0.645h0.123
		c1.369,0,2.991-0.462,4.413-1.517c3.759-2.661,5.816-6.628,6.663-11.983l0.019-29.27l0.836,0.498L89.935,9.199L86.662,23.04
		l0.786-0.498v28.869c-0.786,4.291-2.032,6.437-4.613,8.354c-0.732,0.489-1.073,0.524-1.623,0.55
		c-0.767,0.096-2.05-0.427-3.829-0.768V22.525l0.819,0.515L74.898,9.199L71.601,23.04l0.777-0.479v36.988
		c-1.78,0.34-3.088,0.863-3.838,0.768c-0.54-0.026-0.88-0.061-1.613-0.55c-2.581-1.917-3.829-4.063-4.666-8.756l0.044-28.484
		l0.837,0.515L59.828,9.199L56.539,23.04l0.785-0.479v28.851c0.863,5.756,2.931,9.724,6.681,12.384
		c1.43,1.055,3.018,1.517,4.422,1.517h0.07c1.596-0.052,2.834-0.366,3.881-0.645v34.066v2.563v0.611v4.569v0.619v3.881v19.991h0.715
		c-1.282,1.055-2.127,2.946-2.146,5.214c0.018,3.306,1.814,6.026,4.187,6.045c2.346-0.019,4.16-2.739,4.177-6.045
		c-0.017-2.268-0.88-4.159-2.153-5.214h0.226v-20.184v-3.871V106.304z M90.413,12.653l1.894,8.303l-1.894-0.681V12.653z
		 M90.188,23.023c0-0.096,0.087-0.209,0.226-0.209c0.105,0,0.228,0.114,0.228,0.209v27.682c0,0.148-0.122,0.227-0.228,0.227
		c-0.139,0-0.226-0.079-0.226-0.227V23.023z M60.49,52.781c0,0.122-0.104,0.235-0.218,0.235c-0.122,0-0.227-0.113-0.227-0.235V22.36
		c0-0.131,0.104-0.236,0.227-0.236c0.113,0,0.218,0.105,0.218,0.236V52.781z M60.272,20.275v-7.623l1.892,8.303L60.272,20.275z
		 M75.343,12.653l1.901,8.303l-1.901-0.681V12.653z M78.106,135.678v-0.018c0.037-0.017,0.08-0.017,0.158-0.017
		c0.454,0,0.61,0.4,0.61,0.802c-0.044,1.343-1.299,4.013-2.547,4.396c-0.288,0.053-0.575,0.139-0.881,0.139h-0.043
		c-0.488,0-0.994-0.288-1.142-0.968c-0.053-0.14-0.07-0.253-0.07-0.384c0.035-1.126,1.413-1.169,1.963-1.841
		C76.877,137.047,77.078,135.869,78.106,135.678z"/>
</g>
</svg>
