<?xml version="1.0" encoding="utf-8"?>
<!-- Generator: Adobe Illustrator 18.1.0, SVG Export Plug-In . SVG Version: 6.00 Build 0)  -->
<svg version="1.1" id="Layer_1" xmlns="http://www.w3.org/2000/svg" xmlns:xlink="http://www.w3.org/1999/xlink" x="0px" y="0px"
	 viewBox="0 0 2000 2000" enable-background="new 0 0 2000 2000" xml:space="preserve">
<g>
	<path fill="none" d="M1493.7,732.1c7-29.8,13.1-59.1,18.4-87.7c-25.1-7.3-50.6-14.2-76.6-20.8c-5.8,28.4-12.6,57.5-20.1,87
		C1441.9,717.4,1468.1,724.6,1493.7,732.1z"/>
	<path fill="none" d="M1366.9,266.8c-55.7,42.1-113,95.7-170,159.2c58.1,14,115,33.1,169.9,57C1375.8,402.4,1376,329.4,1366.9,266.8
		z"/>
	<path fill="none" d="M1327.6,689.7c7.6-29.5,14.2-58.5,20-86.8c-71.9-15.5-146.8-28.6-224-38.6c-11.9-1.6-23.7-2.9-35.5-4.3
		c-19.3,26.1-38.4,53.3-57.2,81.5c21,2.2,42.1,4.7,63.4,7.5C1174.9,659.4,1252.9,673.2,1327.6,689.7z"/>
	<path fill="none" d="M869.3,720.7c-33.4-1.9-66.3-3-98.7-3.5c-9.8,18.4-19.5,36.8-29,55.6c-75.4,149.7-133.3,298.1-173.4,437.2
		c25.8,8.4,52.4,16.4,79.5,24c39.7-129.9,94.4-267.2,164.1-405.6C830.5,791.6,849.7,755.7,869.3,720.7z"/>
	<path fill="none" d="M1062,1491.1c34.6,2.6,68.8,4.5,102.5,5.7c17.3-27.4,34.4-55.3,51.2-84.1c-33.1-0.9-66.6-2.5-100.6-4.7
		C1097.6,1436.5,1080,1464.2,1062,1491.1z"/>
	<path fill="none" d="M542.6,1307.9c-7,29.8-13.1,59.1-18.4,87.7c25.1,7.3,50.6,14.2,76.7,20.8c5.8-28.4,12.6-57.5,20.1-87
		C594.4,1322.6,568.2,1315.4,542.6,1307.9z"/>
	<path fill="none" d="M942,1391.1c-80.6-10.5-158.6-24.3-233.3-40.7c-7.6,29.5-14.2,58.5-20,86.8c71.9,15.5,146.8,28.6,224,38.6
		c11.9,1.5,23.7,2.9,35.5,4.3c19.3-26.1,38.4-53.3,57.2-81.5C984.4,1396.3,963.2,1393.8,942,1391.1z"/>
	<path fill="none" d="M974.2,549c-34.6-2.6-68.8-4.5-102.5-5.7c-17.3,27.4-34.4,55.3-51.1,84.1c33.1,0.9,66.6,2.4,100.6,4.7
		C938.6,603.5,956.3,575.8,974.2,549z"/>
	<path fill="none" d="M1301,783.3c-79.4-18.8-163.1-34.3-250.1-45.6c-25.4-3.3-50.6-6.2-75.6-8.7c-32.6,53.9-64.1,110.6-94,169.9
		c-61.4,121.9-110.1,243-146,357.9c79.4,18.8,163.1,34.3,250.1,45.6c25.4,3.3,50.6,6.2,75.6,8.7c32.6-53.9,64.1-110.6,94-169.9
		C1216.4,1019.3,1265.2,898.2,1301,783.3z"/>
	<path fill="none" d="M1468,830c-25.8-8.4-52.4-16.4-79.5-24c-39.7,129.9-94.4,267.2-164.1,405.6c-18.6,36.9-37.8,72.8-57.4,107.8
		c33.4,1.9,66.3,3,98.7,3.5c9.8-18.4,19.5-36.8,29-55.6C1370,1117.5,1427.9,969.1,1468,830z"/>
	<path fill="none" d="M669.4,1773.2c55.7-42.1,113-95.7,170-159.2c-58.1-14-115-33.1-169.9-57
		C660.5,1637.6,660.3,1710.6,669.4,1773.2z"/>
	<path fill="#6EC829" d="M1415.3,710.6c7.5-29.5,14.3-58.6,20.1-87c-28.8-7.3-58-14.2-87.8-20.7c-5.7,28.3-12.4,57.3-20,86.8
		C1357.4,696.2,1386.6,703.2,1415.3,710.6z"/>
	<path fill="#6EC829" d="M510.4,1485.4c0.6-4.6,1.3-9.3,1.9-13.8c-2.2-1.5-4.3-3-6.5-4.4C507.4,1473.2,508.8,1479.3,510.4,1485.4z"
		/>
	<path fill="#6EC829" d="M977.9,1752.5c66.8-31.4,129.1-69.7,186.5-113.8c-33.1,2.8-66.2,3.9-99.2,3.5
		C1036.5,1681.1,1007.3,1718,977.9,1752.5z"/>
	<path fill="#6EC829" d="M1525.8,554.7c-0.6,4.5-1.3,9.2-1.9,13.8c2.2,1.4,4.3,2.9,6.5,4.4C1528.9,566.8,1527.5,560.7,1525.8,554.7z
		"/>
	<path fill="#6EC829" d="M741.7,772.8c9.5-18.8,19.2-37.2,29-55.6c16.3-30.6,32.9-60.7,49.9-89.9c16.7-28.8,33.8-56.7,51.1-84.1
		c32.3-51.1,65.5-99.8,99.2-145.4c28.8-38.9,58-75.8,87.4-110.3c-66.8,31.4-129.2,69.7-186.5,113.8c-54.7,42-104.7,89.3-149.6,141
		c-23.8,27.5-46.3,56.1-67,86c-20.9,30.1-40.1,61.3-57.7,93.5c-75.1,137.3-119.2,292.3-124.5,454.5c30.6,11.8,62.3,23.1,95.2,33.8
		C608.4,1070.9,666.3,922.5,741.7,772.8z"/>
	<path fill="#6EC829" d="M1493.7,732.1c22.8,6.7,45.1,13.7,67,20.9c-2.5-32.5-6.4-65.1-12.1-97.8c-12-3.7-24.3-7.3-36.5-10.8
		C1506.8,673,1500.7,702.3,1493.7,732.1z"/>
	<path fill="#6EC829" d="M542.6,1307.9c-22.8-6.7-45.1-13.7-67-20.9c2.5,32.5,6.4,65.1,12.1,97.8c12,3.7,24.3,7.3,36.5,10.8
		C529.5,1367,535.6,1337.7,542.6,1307.9z"/>
	<path fill="#6EC829" d="M1388.5,805.9c-28.5-8-57.6-15.6-87.5-22.7c-35.8,114.9-84.6,236-146,357.9c-29.9,59.3-61.4,116-94,169.9
		c35.8,3.6,71.1,6.3,105.9,8.3c19.6-35,38.8-70.9,57.4-107.8C1294,1073.2,1348.8,935.8,1388.5,805.9z"/>
	<path fill="#6EC829" d="M621,1329.4c-7.5,29.5-14.3,58.6-20.1,87c28.7,7.3,57.9,14.2,87.8,20.7c5.7-28.3,12.4-57.3,20-86.8
		C678.9,1343.8,649.7,1336.8,621,1329.4z"/>
	<path fill="#6EC829" d="M1005.3,1398.6c-18.8,28.2-37.9,55.3-57.2,81.5c38.4,4.5,76.4,8.2,113.9,11c18-26.9,35.6-54.6,53-83.1
		C1078.9,1405.6,1042.4,1402.5,1005.3,1398.6z"/>
	<path fill="#6EC829" d="M1294.6,1267.2c-9.5,18.8-19.2,37.2-29,55.6c59.9,0.8,117.7-0.7,173.1-4.6
		c75.1-137.3,119.2-292.3,124.5-454.5c-30.6-11.8-62.3-23.1-95.2-33.8C1427.9,969.1,1370,1117.5,1294.6,1267.2z"/>
	<path fill="#6EC829" d="M921.2,632c-17.6,28.8-34.9,58.4-51.9,88.7c-19.6,35-38.9,70.9-57.4,107.8
		c-69.7,138.3-124.4,275.7-164.1,405.6c28.5,8,57.6,15.6,87.5,22.7c35.8-114.9,84.6-236,146-357.9c29.9-59.3,61.4-116,94-169.9
		c18.2-30.1,36.8-59.3,55.7-87.5c18.8-28.1,37.9-55.3,57.2-81.5c35.7-48.4,72.2-93.2,108.7-134c57-63.5,114.3-117.1,170-159.2
		c9.1,62.6,9,135.6-0.1,216.2c29.2,12.7,57.9,26.7,85.8,42.1c6.6-47,10.6-92,11.9-134.4c-23-48.1-49.6-94-79.3-137.3
		c36.6-26.1,72.3-47.1,106.7-62.4c-58.1,0.1-116.9,4.8-176,15.2c-24.8,4.4-49.2,9.6-73.1,15.6c-54.8,52.4-110.1,113.9-164.4,183
		c-35.3,44.9-70.1,93.1-104.1,144.1C956.3,575.8,938.6,603.5,921.2,632z"/>
	<path fill="#6EC829" d="M669.4,1773.2c-9.1-62.5-9-135.6,0.1-216.2c-29.2-12.7-57.9-26.7-85.8-42.1c-6.6,47-10.6,92-11.9,134.4
		c23,48.1,49.6,94,79.3,137.3c-36.6,26.1-72.4,47.1-106.7,62.4c58.1-0.1,116.9-4.8,176-15.2c24.8-4.3,49.2-9.6,73.1-15.6
		c54.8-52.4,110.1-113.9,164.4-183c-39.9-4.7-79.5-11.8-118.5-21.2C782.5,1677.5,725.1,1731.1,669.4,1773.2z"/>
	<path fill="#6EC829" d="M1215.7,1412.7c-16.8,28.8-33.8,56.7-51.2,84.1c51.1,1.8,101,2.1,149.5,0.9c23.8-27.5,46.3-56.1,67-86
		C1327.7,1413.9,1272.4,1414.3,1215.7,1412.7z"/>
	<path fill="#006DB6" d="M1164.5,1496.8c-33.7-1.2-67.9-3.1-102.5-5.7c-37.5-2.8-75.5-6.5-113.9-11c-11.8-1.4-23.6-2.7-35.5-4.3
		c-77.2-10.1-152.1-23.1-224-38.6c-29.8-6.5-59-13.4-87.8-20.7c-26.1-6.6-51.6-13.6-76.7-20.8c-12.3-3.6-24.5-7.1-36.5-10.8
		c-48-14.8-94.1-30.5-137.7-47.4c47.9,48.8,100.2,92.1,155.8,129.7c2.2,1.5,4.3,3,6.5,4.4c23.3,15.4,47.1,29.9,71.5,43.3
		c28,15.4,56.6,29.4,85.8,42.1c54.9,23.9,111.7,43,169.9,57c39,9.4,78.6,16.4,118.5,21.2c35.6,4.2,71.4,6.5,107.3,7
		c33,0.4,66.1-0.7,99.2-3.5c140.4-11.9,280.6-53.2,411.5-126.6c29.7-16.7,58.2-34.7,85.6-53.8c-102.6,22.6-220.1,36.1-347.5,39.3
		C1265.5,1498.9,1215.6,1498.6,1164.5,1496.8z"/>
	<path fill="#006DB6" d="M921.2,632c-34-2.2-67.5-3.8-100.6-4.7c-17,29.3-33.6,59.3-49.9,89.9c32.3,0.5,65.2,1.6,98.7,3.5
		C886.3,690.4,903.6,660.8,921.2,632z"/>
	<path fill="#006DB6" d="M621,1329.4c28.7,7.4,57.9,14.4,87.7,20.9c74.8,16.4,152.8,30.2,233.3,40.7c21.2,2.8,42.4,5.3,63.4,7.5
		c37,4,73.6,7,109.7,9.4c34,2.2,67.5,3.8,100.6,4.7c56.7,1.6,112,1.2,165.3-1c158.2-6.6,300-29.2,415-65.5
		c49.7-49.4,93.7-103.4,131.6-160.8c-105.8,71.4-279.2,118.4-488.9,132.9c-55.3,3.9-113.2,5.4-173.1,4.6
		c-32.3-0.5-65.2-1.6-98.7-3.5c-34.8-2-70.2-4.7-105.9-8.3c-25-2.5-50.2-5.4-75.6-8.7c-87-11.3-170.7-26.8-250.1-45.6
		c-29.8-7.1-59-14.7-87.5-22.7c-27.2-7.6-53.7-15.6-79.5-24c-32.9-10.7-64.6-22-95.2-33.8c-157.5-61-282.3-136-357.6-216
		c19.3,54.8,43.2,108.7,72.6,161.1c12.3,22,25.3,43.2,38.9,63.9c73.4,37.4,157.1,71.6,248.6,101.8c21.9,7.2,44.2,14.2,67,20.9
		C568.2,1315.4,594.4,1322.6,621,1329.4z"/>
	<path fill="#006DB6" d="M1196.8,426c-36.5,40.7-72.9,85.5-108.7,134c11.8,1.4,23.6,2.7,35.5,4.3c77.2,10,152.1,23.1,224,38.6
		c29.8,6.5,59,13.4,87.8,20.7c26,6.6,51.6,13.6,76.6,20.8c12.3,3.6,24.5,7.1,36.5,10.8c48,14.8,94.1,30.5,137.7,47.4
		c-47.9-48.8-100.2-92.1-155.8-129.7c-2.2-1.5-4.3-3-6.5-4.4c-23.3-15.5-47.1-29.9-71.5-43.4c-28-15.4-56.6-29.4-85.8-42.1
		C1311.8,459.1,1255,440,1196.8,426z"/>
	<path fill="#006DB6" d="M240.3,693.8c-49.7,49.4-93.7,103.4-131.6,160.8c105.8-71.4,279.2-118.4,488.9-132.9
		c17.6-32.2,36.8-63.4,57.7-93.5C497.1,634.9,355.3,657.5,240.3,693.8z"/>
	<path fill="#006DB6" d="M1415.3,710.6c-28.7-7.4-57.9-14.4-87.7-20.9c-74.8-16.4-152.8-30.2-233.3-40.7
		c-21.2-2.8-42.4-5.3-63.4-7.5c-18.9,28.2-37.5,57.4-55.7,87.5c25,2.5,50.2,5.4,75.6,8.7c87,11.3,170.7,26.8,250.1,45.6
		c29.8,7.1,59,14.7,87.5,22.7c27.2,7.6,53.7,15.7,79.5,24c32.9,10.7,64.6,22,95.2,33.8c157.5,61,282.3,136,357.6,216
		c-19.3-54.8-43.2-108.7-72.6-161.1c-12.3-21.9-25.3-43.2-38.9-63.9c-73.4-37.4-157.1-71.6-248.6-101.8c-21.9-7.2-44.2-14.2-67-20.9
		C1468.1,724.6,1441.9,717.4,1415.3,710.6z"/>
	<path fill="#006DB6" d="M974.2,549c34-51,68.8-99.2,104.1-144.1c-35.6-4.2-71.4-6.5-107.3-7c-33.7,45.6-66.9,94.3-99.2,145.4
		C905.4,544.4,939.6,546.4,974.2,549z"/>
	<path fill="#006DB6" d="M871.8,401.3c-140.4,11.9-280.6,53.2-411.5,126.6c-29.7,16.7-58.2,34.7-85.6,53.8
		c102.6-22.6,220.1-36.1,347.5-39.4C767.1,490.6,817.1,443.3,871.8,401.3z"/>
</g>
</svg>
