<?xml version="1.0" encoding="utf-8"?>
<!-- Generator: Adobe Illustrator 18.1.0, SVG Export Plug-In . SVG Version: 6.00 Build 0)  -->
<svg version="1.1" id="Layer_1" xmlns="http://www.w3.org/2000/svg" xmlns:xlink="http://www.w3.org/1999/xlink" x="0px" y="0px"
	 viewBox="0 0 2000 2000" enable-background="new 0 0 2000 2000" xml:space="preserve">
<g>
	<path fill="none" d="M1222.5,393.3c1.6-0.4,3-0.8,4.6-1.2c-3.2-1.7-6.1-3.4-8.8-5.1C1219.7,389.1,1221.1,391.2,1222.5,393.3z"/>
	<path fill="none" d="M789.6,615.7c0.7,2.1,1.5,4.3,2.2,6.4c8.2,8.1,16.2,16.4,24.2,25c0.2-1.1,0.4-2.2,0.7-3.4
		C807.7,634.1,798.7,624.8,789.6,615.7z"/>
	<path fill="none" d="M1272.3,356.3c-1.3-1.5-2.6-2.9-4-4.4c0.8,2.4,1.5,4.8,2.2,7.4C1271.2,358.2,1271.8,357.3,1272.3,356.3z"/>
	<path fill="none" d="M875.3,717.4c-1-2.7-2.1-5.3-3.1-8c-6.7-8-13.5-16-20.4-24c-0.6-0.6-1-1.3-1.6-1.9c-0.5,0.2-0.9,0.4-1.4,0.6
		C857.8,694.9,866.6,706,875.3,717.4z"/>
	<path fill="none" d="M1006.3,263.1c-0.3-1.4-0.6-2.9-0.9-4.3c-0.6,1.1-1.2,2.1-1.8,3.1l0.9,0.4
		C1004.8,262.2,1005.5,262.6,1006.3,263.1z"/>
	<path fill="none" d="M933.8,553c15.9,18.1,31.2,36.5,46.2,55.2c1.9,1.3,3.9,2.7,5.8,3.8c-4.7-14-11.2-29.6-19.7-46.4
		c-7.3-7.7-14.8-15.3-22.3-22.9C941.5,546.9,938.1,550.5,933.8,553z"/>
	<path fill="none" d="M1252.1,399.7c-1.8-7.2,2.5-14.2,9.7-15.8c7.2-1.6,14.5,3,16.3,10.1c0.3,1.1,0.1,2.1,0.1,3.1
		c2.6-1.8,5.3-3.6,7.9-5.3c3.2-3.6,6.3-7.1,8.9-10.4c-2-2.3-4.1-4.5-6.1-6.8c-4.5,1.9-9.2,4-14.1,6.5c-1.1-8.2-2.6-15.3-4.3-21.9
		c-3,5.8-6,12.5-8.9,20c-9.1-8.2-17.6-14.7-25.3-19.5c2.9,8.5,7.1,18.1,13,28.8c-8.3,0.8-15.6,2-22.2,3.5c6.1,3.2,12.9,6.4,20.8,9.5
		c-4.3,4.7-8.1,9.2-11.4,13.5c1.4,2.2,2.8,4.4,4.2,6.6c3.5-1.4,7.3-3.1,11.1-4.9c3.2-2.5,6.5-5,9.8-7.5
		C1257.1,407.9,1253.4,404.5,1252.1,399.7z"/>
	<path fill="none" d="M903.4,503.3c-13-12.2-26.5-24.2-40.3-36.1c2.7,6.6,5.8,13.4,9.2,20.6c7.7,7.5,15.3,15.1,22.7,22.8
		C897.2,507.6,900.1,505.2,903.4,503.3z"/>
	<path fill="none" d="M1008.9,273.9c-4.3-3.3-7.8-5.5-9.1-5.8c1.3-1.9,2.6-4,3.8-6.2l-0.7-0.3c-0.5,0,0.4-2.1,2-5
		c-4.4-22.1-5.6-44.7,4.6-68.2c34.4-9,56.7,11.3,76.6,33.2c0.9,0.1,3.1,0.2,3.9,0.3c2.2,0.3,5,0.4,5,0.4c0,0,0-0.1,0-0.1
		c0-0.1,0-0.1,0-0.1c0,0,0,0.1,0,0.1c0,0.1-0.7,0.2-1.3,0.1c0,2-0.5,4.3-0.2,6.7c7.7,8.6,14.8,17,22.7,23.5
		c28,31.7,53.8,64.8,77.9,98.7c5.2-5.9,20.5-5.1,42.5,8.7c-7.7-22.7-5.5-37.1,0.7-41.6c-23.6-25.2-47.5-50.2-72.6-75
		c-37.4-31.6-55.4-64.9-127.2-93.1c-13.3-2.2-34.4-2-49.1,13.6c-14.5,14.2-13.8,24.5-17.2,35.2c-1.9,17.2-0.6,31.2,1.2,43.9
		c3.7,25.7,9.8,49.1,16.1,72.8c5.3,19.4,11,38.6,16.5,57.8c11.1-0.2,18.8,6.9,21.1,19.7c-3.4-26.9-6-53.1-7.4-78.2
		C1016.3,301.2,1012.4,287.6,1008.9,273.9z"/>
	<path fill="none" d="M1141.1,819.4c0.5-0.2,0.9-0.3,1.4-0.5c5.1-0.6,9.2-1,12.7-1.3c-2-6.9-4-13.7-6-20.6
		c-6.9,0.8-14.3,2.4-21.9,4.8C1131.9,807.7,1136.5,813.7,1141.1,819.4z"/>
	<path fill="none" d="M991.7,909.5c8.1-5.6,16-10.7,23.7-15.1c-8.2-10.5-16.1-21-24.2-31.5c-3.2,7.9-6.4,15.9-9.6,23.9
		c2.5,6.6,5,13.2,7.5,19.8C990,907.5,990.8,908.5,991.7,909.5z"/>
	<path fill="none" d="M1160.2,834.9c1.3,3.9,2.6,7.7,3.9,11.6c4.1,4.4,8,8.4,11.1,11.7c-1.7-7.7-3.5-15.3-5.3-23
		c-1.5-6.1-3.2-12.1-4.8-18.1c-2.6,0-5.8,0.2-9.9,0.6C1156.9,823.4,1158.6,829.1,1160.2,834.9z"/>
	<path fill="none" d="M1159.5,796.4c-1.5-5.2-3-10.4-4.4-15.6c-5.3-5.8-10.6-11.6-15.8-17.7c3.4,11.3,6.7,22.7,10,33.9
		C1152.9,796.6,1156.4,796.4,1159.5,796.4z"/>
	<path fill="none" d="M980.3,917.6c-1.8-4.8-3.5-9.6-5.3-14.3c-3.4,8.7-6.9,17.3-10.3,26c0,0.1,0.1,0.2,0.1,0.3
		C970.1,925.4,975.2,921.4,980.3,917.6z"/>
	<path fill="none" d="M888.6,729.2c1.4,3.9,2.7,7.8,4.1,11.7c8.2,11.3,16.2,22.8,23.9,34.6c2.5,4.1,3.3,7.6,1.9,8.3
		c-2.1,0-5.6-3.2-8.1-7.2c-3.2-4.8-6.5-9.4-9.8-14c8.7,23.7,17.6,47.5,26.9,71.5c7.2,8.7,14.5,17.5,22,26.5c1.7-3.7,3.3-7.5,5-11.2
		c-9.3-24.2-18.7-48.4-28.2-72.7C914,760.6,901.4,744.8,888.6,729.2z"/>
	<path fill="none" d="M961.3,834.7c1.1-2.5,2.3-5,3.4-7.5c-4.5-6.1-9.1-12.1-13.5-18.1C954.5,817.5,957.9,826.1,961.3,834.7z"/>
	<path fill="none" d="M943.3,874.7c1.1-2.6,2.3-5.1,3.4-7.7c-4-4.8-8.1-9.6-12-14.4C937.5,860,940.4,867.4,943.3,874.7z"/>
	<path fill="none" d="M1185.6,820c4.9,1.5,8.9,3.1,12.1,4.5c-8.7-7.7-18.7-17.9-28.1-27.9c-2.1-0.1-4.1-0.2-6.1-0.2
		c-1.2-0.1-2.6,0-3.9-0.1c1.9,6.9,3.7,13.8,5.6,20.7C1173.6,817,1176,818.4,1185.6,820z"/>
	<path fill="none" d="M966.8,523.8c6.9,7.2,13.8,14.4,20.5,21.7c5.5-0.9,10.7-1.9,15.8-3c-0.2-0.8-0.5-1.5-0.7-2.3
		C991.7,534.6,979.9,529.1,966.8,523.8z"/>
	<path fill="none" d="M923.8,839.4c-2.1-2.5-4.2-5.1-6.3-7.6c8.8,13.6,16.1,31.5,21,53.9c0.6-1.5,1.3-2.9,1.9-4.4
		c-3.3-8.2-6.4-16.5-9.7-24.7C928.3,850.8,926.1,845.2,923.8,839.4z"/>
	<path fill="none" d="M1070.6,518c5.9,24,12.1,48,18.7,72c1.9-2.9,3.9-5.8,5.8-8.6c-6.7-22.1-13.1-44.3-19.7-66.5
		C1073.8,516,1072.2,517,1070.6,518z"/>
	<path fill="none" d="M876.1,664.3c5.2,6.5,10.3,13.2,15.3,19.8c-1.6-4.4-3.2-8.8-4.8-13.2c-2.6-3.2-5.3-6.4-7.9-9.5
		C877.9,662.4,877,663.4,876.1,664.3z"/>
	<path fill="none" d="M1027.7,632.8c-12.3-4.3-26.3-11-41.9-20.8c0.6,1.9,1.2,3.7,1.7,5.5c15.2,19.3,30,38.8,44.6,58.7l3.7,5.3
		c2.5-4.7,5-9.3,7.4-13.9c-2.9-9-5.9-18.1-8.8-27.1C1032.2,637.9,1029.9,635.4,1027.7,632.8z"/>
	<path fill="none" d="M1156.8,508.5c8.3-9,16.9-18.2,25.7-27.3c-16.7-23.6-33.4-47.9-50.5-71.5
		C1140.1,442.6,1148.3,475.5,1156.8,508.5z"/>
	<path fill="none" d="M1105.5,374.8c-12.5-15.6-25.4-30.7-38.4-44.9c19.6,68.5,41.1,137.8,62.9,207.5c2.7-2.9,5.4-5.7,8.1-8.7
		c-13.4-50-23.4-99.2-31.8-148.3C1106.1,378.6,1105.8,376.7,1105.5,374.8z"/>
	<path fill="none" d="M1200.3,401.4c-31.4-37.6-63.3-74.6-96.4-109.8c4.6,21,10,43.5,15,64.4c3.1,13.1,6.4,26.1,9.5,39.2
		c20.2,26.1,40,53,59.5,80.3c10.3-10.6,21-21.1,32.1-31.4c1.3-3.8,3.1-7.9,5.5-12.3c-1.1-1.4-2.3-2.8-3.4-4.2
		C1183.6,436.7,1172.4,416.4,1200.3,401.4z"/>
	<path fill="none" d="M1043.6,234.7c1.7,11.4,4.1,23.6,7,36c4.1,15.1,8.4,30.3,12.7,45.6c12.3,13.6,24.5,28,36.5,42.6
		c1.3,1.6,2.6,3.4,4,5c-4.8-29-9.8-59.3-13-86.1C1075.4,262.1,1058.6,246.2,1043.6,234.7z"/>
	<path fill="none" d="M1087,222.5c0.1,0.1,0.2,0.2,0.3,0.4c0,0,0-0.1,0-0.1C1087.2,222.6,1087.2,222.6,1087,222.5z"/>
	<path fill="none" d="M1086.2,221.5c0.1,0.2,0.3,0.3,0.4,0.5C1086.7,221.4,1089.6,222.1,1086.2,221.5z"/>
	<path fill="none" d="M814.9,658c-5.5-5.8-11.1-11.4-16.6-17c9,25.5,19,51.4,29.5,77.5c11.9,13.1,23.7,26.4,35.3,39.5
		c17.9,20,35.2,40.8,53,62.3c-11-27.3-21.7-54.1-32-80.5c-14.1-18.7-28.5-36.5-43.4-53.5C825,689,814.6,678.4,814.9,658z"/>
	<path fill="none" d="M962.6,519.3c4.3-4.7,8.3-9.3,12.2-13.9c-6.1-6.5-12.2-13-18.3-19.5c-5.5,2.6-11.2,5.3-17.1,8.3
		c-1.5-11.4-3.4-21.9-5.5-31.8c-2.6-2.6-5.2-5.2-7.8-7.8c-3,6.1-6,12.6-8.9,19.4C932.7,489,947.9,504.1,962.6,519.3z"/>
	<path fill="none" d="M987,490c-1.5-4.9-3-9.9-4.5-14.9c-5.1,1.9-10.3,4-15.7,6.3c4.9,5.3,9.7,10.5,14.6,15.8
		C983.3,494.8,985.2,492.4,987,490z"/>
	<path fill="none" d="M810.6,426c-16.2-11.3-34.1-22-57.3-31.1c-17-5.2-48.8-16.1-83.2,8c-29.8,25.8-29.7,52.8-31.4,69.8
		c0.7,70,20.6,119.8,37.6,174.2c8.7,26,18.3,51.2,27.6,76.4c-18.8-75.7-42.3-150.7-41.5-238.7c-3.1-9.2-7.1-25.3,4-49.2
		c19.1-38,69.5-31.3,85-21.6c7.4,2.9,14,6.2,20.4,9.7C780.7,420.2,793.8,420.7,810.6,426z"/>
	<path fill="none" d="M1036,461c-3.7-21.7-6.9-42.9-9.6-63.9c0.6,8.6-0.9,19.4-5.2,32c3.3,10.9,6.6,21.7,9.9,32.6
		C1032.8,461.5,1034.4,461.3,1036,461z"/>
	<path fill="none" d="M861.3,569.9c0.2,0.6,0.3,1.2,0.5,1.8c2.8,3,5.5,5.9,8.3,8.9c0.1,0,0.2-0.1,0.4-0.2
		C867.4,576.9,864.4,573.4,861.3,569.9z"/>
	<path fill="none" d="M815.5,620.7c-6.2-7.1-12.5-14-18.7-20.9c-3,0.2-5.8,0.3-8.5,0.4c10.5,10.5,21,21.5,31.4,32.7
		c0-0.1,0.1-0.3,0.1-0.4C818.3,628.6,816.8,624.7,815.5,620.7z"/>
	<path fill="none" d="M818.5,596.8c0.1,0.2,0.1,0.4,0.2,0.6c3.6,3.9,7.3,7.6,10.9,11.6c0.3-0.7,0.7-1.4,1.1-2
		c-3.3-3.6-6.7-7.1-10.1-10.7C819.9,596.5,819.2,596.7,818.5,596.8z"/>
	<path fill="none" d="M1059.1,459.9c-2.4-8.3-4.9-16.5-7.3-24.8c1.7,8.2,3.6,16.5,5.4,24.7C1057.8,459.8,1058.4,459.8,1059.1,459.9z
		"/>
	<path fill="none" d="M904.2,692.5c2.4,6.1,4.7,12.3,7.1,18.4c9.2,12.6,18.4,25.3,27.2,38.1c13.4,15.9,26.2,32.7,39.2,49.9
		c0.9-1.8,1.7-3.7,2.6-5.5c-11.7-16.6-23.4-33-35.6-49C931.5,726.9,918,709.6,904.2,692.5z"/>
	<path fill="none" d="M735.4,746.3c14.5,52.9,31,105.4,46.2,156.9c6.3,4.1,12.7,8.4,19.3,13.2c-13.9-36-28-72.2-42.5-108.7
		C750.8,787.1,742.7,766.9,735.4,746.3z"/>
	<path fill="none" d="M903.4,814.8c-13.9-16.8-27.7-33.2-41.9-49c-8.9-10.2-18-20.4-27.1-30.6c8.9,21.7,18.1,43.7,27.5,65.8
		C875.6,798,890.2,802.6,903.4,814.8z"/>
	<path fill="none" d="M750.8,647c-9.3-9-18.5-17.7-27.6-25.8c19.3,59.5,41.7,118.8,65.1,178.4c9.3,22.9,18.4,45.7,27.4,68.5
		c2.2-13.7,5.9-25.3,10.5-34.9C798.8,771.1,772.6,709.3,750.8,647z"/>
	<path fill="none" d="M950.6,1013.6c5.7,14.7,11.3,29.5,16.7,44.4c11.9-6.4,22.9-12.8,33.4-19.2c-3.9-10.7-7.9-21.3-11.9-32
		C976.6,1008.7,963.8,1011,950.6,1013.6z"/>
	<path fill="none" d="M769.5,1270c20.4-31.6,33.7-52.5,33.7-52.5s3.2-8.5,9-23.7c-24.1,18.9-46.7,32.7-67,42.1
		C753.3,1247.2,761.4,1258.6,769.5,1270z"/>
	<path fill="none" d="M853.9,1087.2c-5.1-3.5-9.3-7.7-12.4-12.5c2.7,7.8,5.4,15.6,8.1,23.4C851,1094.5,852.4,1090.9,853.9,1087.2z"
		/>
	<path fill="none" d="M943,984.4c-0.6,1.6-1.2,3.2-1.9,4.7c0.4,1,0.8,2,1.2,3C942.5,989.5,942.8,986.9,943,984.4z"/>
	<path fill="none" d="M835.8,1056.4c0-8.5,3.4-16.5,9-23c-7.5-20.7-15.2-41.4-23-62.2c3.5,15.7,8.1,32.5,14.1,50.3
		c-4.8-0.4-9.3-0.8-13.9-1.1c4.8,13.1,9.6,26.1,14.2,39.2C836.1,1058.6,835.8,1057.5,835.8,1056.4z"/>
	<path fill="none" d="M882.9,1016c2.2-5.4,4.5-10.8,6.8-16.3c-13.2-15.1-26.2-28.8-39-41.1c7.4,19.7,14.7,39.3,21.8,59
		C875.8,1016.8,879.3,1016.2,882.9,1016z"/>
	<path fill="none" d="M781.1,1018.1c2.9,8.3,5.5,16.8,8.3,25.2c1.2,0.7,2.4,1.4,3.7,2.1c-3.3-9.1-6.7-18.2-10.1-27.2
		C782.3,1018.1,781.7,1018.1,781.1,1018.1z"/>
	<path fill="none" d="M1044.4,1101.2c-3.5,0.1-6.8,0.2-10.3,0.2c4.7,3.2,9.1,6.4,13.4,9.5
		C1046.4,1107.6,1045.5,1104.4,1044.4,1101.2z"/>
	<path fill="none" d="M1431.8,333.7c1.3-3,3.8-5.4,7.3-6.1c4-0.9,7.9,0.7,10.6,3.5c4.4-0.6,8.9-1.1,13.4-1.5
		c4.1-4.9,7.8-9.7,10.5-14.1c-7,2.1-15,5.3-23.8,9.8c-0.9-6.7-2.1-12.5-3.5-17.9c-2.5,4.8-5,10.1-7.4,16.3
		c-7.5-6.8-14.5-12.1-20.9-16.1c2.4,7,5.8,15,10.7,23.8c-6.8,0.7-12.6,1.7-18,2.9c1.6,0.9,3.4,1.7,5.1,2.5
		C1421.1,335.7,1426.4,334.6,1431.8,333.7z"/>
	<path fill="none" d="M1315.7,404.4c-1.4,0.7-2.8,1.4-4.3,2.2c6.8,4,12.4,8.1,16.8,12C1324,413.8,1319.8,409.1,1315.7,404.4z"/>
	<path fill="none" d="M841.2,1224.9c-13.9,29.1-28.3,57.5-43.4,84.8c37.9,54.6,74.8,110.3,111.2,166.6
		c-9.7-60.4-23.3-121.9-39.6-183.6c-7.9-10.5-14.8-24.2-20.1-41.1c-2.9-6.5-5.4-14.2-6.9-21.6
		C841.9,1228.4,841.6,1226.6,841.2,1224.9z"/>
	<path fill="none" d="M747.1,1457.1c42.9,53.3,86,107.5,129.4,163.6c13.8,17.8,27.6,35.9,41.5,54.2c1.3-5.2,3-12.7,3-19.1
		c3-25.3,1.6-56.2-0.9-87.8l-46.3-71.5c-32.6-49.9-65.1-99.7-97.2-150.1c-17,28.3-34.8,55.3-53.8,80.5
		C730.9,1437,739,1447,747.1,1457.1z"/>
	<path fill="none" d="M1034.1,1101.3c-1.3-0.9-2.7-1.8-4.1-2.7c0.3,0.9,0.7,1.8,1,2.7C1032,1101.3,1033.1,1101.3,1034.1,1101.3z"/>
	<path fill="none" d="M955.8,1549.1c14.1,22.3,27.8,45,41.7,67.6c-6.5-101.9-35-204.1-63.2-304.3c-6.3,4-13.1,6-20.1,6.3
		c0.9,3.9,2,7.7,2.9,11.6C933,1399.3,949,1477.5,955.8,1549.1z"/>
	<path fill="none" d="M1023.2,1101.2c-1.1-3.1-2.2-6.2-3.3-9.3c-15.3-9.9-32.4-20.1-51.3-30.4c4.6,12.7,9.1,25.5,13.4,38.3
		C996.4,1100.6,1010.1,1101.1,1023.2,1101.2z"/>
	<path fill="none" d="M1189.1,705.2c-2.8-1.6-5.5-3.1-8-4.7c0.8,2.6,1.6,5.1,2.4,7.7c2-0.5,3.9-1.1,6.1-1.6
		C1189.4,706.2,1189.3,705.7,1189.1,705.2z"/>
	<path fill="none" d="M1295.2,675.3c25.6-7.6,43.5-6.5,52.8-1.2c-12.4-13.1-24.9-26.5-37.5-40.1
		C1310.2,644.3,1305.8,658.3,1295.2,675.3z"/>
	<path fill="none" d="M1245.4,829.6c4.8,22.4,11.1,38.9,12,78.7c-0.2,6.7-1.5,16.8-3.3,24.8c-1.3,8.2-12.6,36.9-31.5,51.5
		c-13.6,11.4-33.8,19.7-51.5,21.3c10.3,2.6,18.8,5.8,25.9,9.3c53-19.5,60.9-51.2,70.2-74.5c2.5-10.8,4.3-27.6,3.8-33.9
		c-0.6-14.5-2.3-25.4-4.1-33.5c-3.6-17.7-7.7-31.3-11.6-45.4c-6.1-20.7-12-40.5-17.8-60.2c-2,3.8-4.1,7.4-6.2,10.7
		C1236,795.2,1240.7,812.2,1245.4,829.6z"/>
	<path fill="none" d="M1203.5,662.4c-6.5-19.2-7.7-34-5.8-44c-1.8-7.5-3.8-15.1-5.5-22.6c-1.1-4.8-0.8-9.3,0.9-8.8
		c1.8,0,4.1,4.4,5.7,10.2c0.8,3.8,1.9,7.7,2.8,11.4c10.3-14.4,35.2,0.7,48.6,52.9c15.4-29.4,31.9-43.2,43.8-45.4
		c-18.6-20.4-37.5-41.4-56.6-63.4c-15.6-17.9-30.5-37.6-45.3-58c-10.3,10.6-20.4,21.8-30.2,33.8c11.3,43.6,23.2,86.7,35.6,130.5
		C1199.6,660.1,1201.5,661.1,1203.5,662.4z"/>
	<path fill="none" d="M1087.5,975c-8.2,7.7-17.4,15.7-27.9,23.9c25.1-1.5,47.2-1.3,66.4,0.2c-11-4-14.2-7.1-18.9-9.6
		C1098.6,983.7,1092.4,979.1,1087.5,975z"/>
	<path fill="none" d="M1172.3,647.8c-9-30.5-18.1-61.1-26.8-92.3c-0.4-1.4-0.7-2.7-1.1-4.1c-2.3,3.2-4.6,6.3-6.9,9.6
		c8.9,28.3,17.8,56.7,26.7,85.1C1166.7,646.5,1169.4,647,1172.3,647.8z"/>
	<path fill="none" d="M1132.3,703.9l-9.2,0.7c5.1,6.4,10.1,12.6,15.1,18.8C1136.2,716.9,1134.3,710.4,1132.3,703.9z"/>
	<path fill="none" d="M1128.2,972.8c15,3.6,27.2,18.9,70.2-1.5c49.5-45.2,29.3-63.2,34.5-71.9c-0.1-12.5-1.6-19-2.6-28.1
		c-4-20.1-8.3-39.4-12.9-58.5c-1.1-1-2.4-2.1-3.6-3.3c-0.4-0.2-0.8-0.4-1.3-0.7c1.8,7,3.7,13.9,5.5,21c4.7,21.3,10.1,39.2,11.6,70.4
		c-1,8.9,3,15.9-8.8,42.4c-4.3,11.5-22.2,31.8-52.7,35.6c-15.9,1.3-31.9-4.6-38.9-8.3c-10.3-6-17-10.9-22.2-15.3
		c-0.6,0.7-1.2,1.4-1.9,2.2c1.2,1.1,2.4,2.1,3.6,3.2C1112.5,963.2,1121.6,969.1,1128.2,972.8z"/>
	<path fill="none" d="M1108.2,657.2c4,13.9,8,27.7,12.1,41.5l11,1.6c-2.6-8.4-5.1-16.9-7.7-25.3
		C1118.4,669.1,1113.3,663.2,1108.2,657.2z"/>
	<path fill="none" d="M1117.5,655.3c-4.2-13.8-8.4-27.5-12.6-41.3c-0.1,0.2-0.2,0.4-0.3,0.6c-1.9,3.5-3.7,7-5.6,10.5
		c1.2,4.1,2.3,8.3,3.5,12.4C1107.5,643.5,1112.5,649.4,1117.5,655.3z"/>
	<path fill="none" d="M1097.8,841.5c-2.1-7.1-4.1-14.1-6.2-21.3c-1.4,1.2-3,2.3-4.3,3.6c-17.7,12.4-28.5,33.7-34,47.5
		c0.6,1.5,1.2,3,1.7,4.5c7.6-2.7,14.7-4.7,21.4-6.1C1080.5,860.9,1086.4,850.9,1097.8,841.5z"/>
	<path fill="none" d="M994.7,1005.9c3.8,9.8,7.6,19.7,11.4,29.5c4.6-2.8,9.2-5.6,13.5-8.4c-2.7-7.8-5.4-15.7-8.1-23.5
		C1006,1004.3,1000.4,1005.1,994.7,1005.9z"/>
	<path fill="none" d="M1214.4,799.8c-1.1,1.1-2.2,2.1-3.3,3c0.5,1.8,0.9,3.6,1.4,5.4c0.5,0.5,0.9,0.9,1.4,1.3
		c1.2,0.6,2.3,1.3,3.3,1.8C1216.2,807.5,1215.3,803.6,1214.4,799.8z"/>
	<path fill="none" d="M1209.4,666.3c-2-1.4-4-2.7-5.9-3.9c3.1,9.1,7.4,19.3,13,30.3C1214.2,683.9,1211.7,675.1,1209.4,666.3z"/>
	<path fill="none" d="M1030.2,1020c10.6-7.1,20.6-14.2,29.4-21.1c-11.2,0.7-23.2,1.8-35.5,3.2C1026.2,1008,1028.2,1014,1030.2,1020z
		"/>
	<path fill="none" d="M1163.7,930.4c20.4-4.9,15.9-18.8,18-24.2c-0.2-15.6-2.6-29.6-5.5-43.2c-2.4-0.8-4.8-1.3-7.5-1.6
		c4.2,13.7,7.7,27.8,9.1,43.1c-0.9,5.4,2.9,16.2-11.9,22.6c-12.2,1.3-17.5-4.5-23.2-7.7c-3.5-2.6-6.6-5.4-9.8-8.2
		c-0.1,0.4-0.3,0.8-0.4,1.2c2.8,2.7,5.4,5.3,8.5,7.9C1146.5,923.9,1151.3,929.2,1163.7,930.4z"/>
	<path fill="none" d="M1201,747.7c-0.4-1.6-0.9-3.1-1.3-4.7c-0.5,0.6-1,1.3-1.4,2C1199.2,745.9,1200.1,746.8,1201,747.7z"/>
	<path fill="none" d="M1035.8,876.5c-1.2-3.5-2.4-6.9-3.7-10.5c-9.3-12.6-18.2-25-26.9-37.4c-0.6,1.5-1.2,3-1.8,4.5
		c9.8,13.2,19.7,26.6,30,40.2C1034.2,874.4,1035,875.5,1035.8,876.5z"/>
	<path fill="none" d="M1214,717c1.7,0.7,3.3,1.5,5.1,2.2c-1.2,1.3-2.3,2.6-3.4,3.9c1.8,6.2,3.5,12.4,5.3,18.7
		c2.6-1.2,5.2-2.5,7.9-3.8c-3.4-12-6.7-24.1-9.9-36.1c-3.1,0.3-6,0.7-9,1.1C1211.4,707.7,1212.7,712.4,1214,717z"/>
	<path fill="none" d="M809.5,520c-1-4-1.9-7.8-2.7-11.4c-4.6-4.8-9.3-9.4-14.1-13.9c0.4,3.5,1,7.6,1.8,12
		C799.6,511,804.5,515.5,809.5,520z"/>
	<path fill="none" d="M757,1017.6c-2.8,0-5.7-0.1-8.4-0.1c3.6,2.5,7.4,5,11.2,7.5C758.9,1022.5,758,1020,757,1017.6z"/>
	<path fill="none" d="M832.9,1806.9l-0.1-0.1l0,0C831.4,1805,830.4,1803.6,832.9,1806.9z"/>
	<path fill="none" d="M765.9,480.3c-0.1,0-0.2-0.1-0.3-0.1c-1.7-0.3-3.4-0.5-5-0.8C762.4,479.7,764.1,480,765.9,480.3z"/>
	<path fill="none" d="M765.1,480c0.2,0.1,0.4,0.1,0.6,0.2c0.6,0.1,1.2,0.2,1.9,0.3C766.7,480.3,765.9,480.2,765.1,480z"/>
	<path fill="none" d="M972.4,1687.6c-14.7,2.9-20,7.4-21.7,9.8c-0.5,2.3-1.3,1.8,0,0c0.1-0.5,0.2-1.2,0.3-2.1
		c3.2-13.2,5.3-27.8,6.7-43.2c-2.5,0.6-4.9,1.2-7.1,1.8c-9.3,3-18.6,10.1-23.6,15.6l-6.5,5.9c-0.3,0.6-0.5,1-0.8,1.4
		c7.4,9.8,14.9,19.6,22.3,29.6c10.8,15,21.7,32.2,34.9,31.3c10.7-0.3,17.3-16.8,20.3-33.4c0.3-4.1,0.4-8.2,0.7-12.3
		c-0.2-0.2-0.4-0.4-0.7-0.7C998.6,1693.1,984.5,1682.9,972.4,1687.6z"/>
	<path fill="none" d="M700.7,541.2c0.7,3,1.5,6,2.3,9c6.6,3.5,14,8.2,22,14c-0.8-2.9-1.6-5.7-2.3-8.6c-4.1-3.1-8.2-6-11.9-8.3
		C707.2,544.9,703.4,542.6,700.7,541.2z"/>
	<path fill="none" d="M703.2,522.9c-0.4,1.2-0.9,2.3-1.3,3.4c-0.4,1.1-0.9,2.3-1.4,3.5c-0.2,0.5-0.3,0.9-0.5,1.4
		c1.4-3.3,2.9-7.1,4.4-11.1c0.2-0.6,0.3-1,0.5-1.6C704.4,520,703.8,521.4,703.2,522.9z"/>
	<path fill="none" d="M709.2,505.4c0.3-1.1,0.5-2.3,0.8-3.4c0,0,0-0.1,0-0.1c-0.3,1.2-0.6,2.4-1,3.6c-0.5,2.3-1.2,4.8-2,7.3
		c-0.1,0.4-0.2,0.7-0.3,1.2c-0.1,0.4-0.3,0.9-0.5,1.3c-0.6,1.6-1.2,3.2-1.8,4.8c-0.2,0.7-0.4,1.3-0.6,2c-6.5,14.4,2.3,5.4,6.4,12.1
		c2.6,1.6,5.4,3.4,8.2,5.4c-2.8-11.2-5.3-22.5-7.6-33.8C709.8,505.4,709,505.2,709.2,505.4z"/>
	<path fill="none" d="M710,501.8c0-0.1,0-0.2-0.1-0.3c-0.1,0.4-0.2,0.7-0.3,1.1c-0.1,0.5-0.2,0.9-0.3,1.5
		C709.5,503.4,709.8,502.5,710,501.8z"/>
	<path fill="none" d="M832.9,1807l0.1,0.1c1.8,2.4,1.9,2.5,1.4,1.9C833.8,1808.1,833.3,1807.5,832.9,1807L832.9,1807z"/>
	<path fill="none" d="M965.1,1179.9c-10.2-34.1-21.9-67.6-34.4-100.8c-7.1,8.4-18.2,14.6-31.1,17c5.3,15.7,10.5,31.4,15.5,47.1
		c18.2,18.9,36,35.2,53,48.8c-0.2-1.9-0.5-4-0.8-5.9C966.6,1184,965.9,1182,965.1,1179.9z"/>
	<path fill="none" d="M1622.3,364.4c-3.9-2.1-8.1-4.1-13.2-6.1c1.1-1.2,2-2.3,3-3.5c-3.4-0.3-6.8-0.5-10.3-0.8
		c1.4,1.2,2.6,2.7,3.1,4.6c1.2,4.6-1.6,9.2-6.3,10.2c-4.6,1-9.3-1.9-10.5-6.5c-0.9-3.5,0.6-7,3.3-8.9c-2-0.1-4.1-0.2-6.1-0.3
		c0.4,0.7,0.6,1.3,1,2c-5.3,0.5-9.9,1.3-14.1,2.3c3.9,2.1,8.1,4.1,13.2,6.1c-5.2,5.6-9.2,10.9-12.2,15.7c5.5-1.6,11.7-4.1,18.6-7.6
		c0.7,5.2,1.7,9.8,2.8,14c2-3.8,3.9-7.9,5.8-12.8c5.9,5.3,11.4,9.5,16.3,12.6c-1.8-5.5-4.6-11.7-8.4-18.6
		C1613.5,366.1,1618,365.3,1622.3,364.4z"/>
	<path fill="none" d="M780.6,484c-1.2-0.6-1.2-0.9-0.9-1c0,0,0,0,0,0c-4.7-0.6-9.2-1.4-13.3-2.5c-2.3-0.3-4.6-0.7-6.8-1.1
		c3.1,2.1,6.1,4.2,8.9,6.4c4.5,3.4,8.8,7.1,13.2,10.6c-0.2-1.7-0.5-3.5-0.7-5L780.6,484z"/>
	<path fill="none" d="M759.4,479.1c0.7,0.1,1.4,0.2,2.1,0.2c0,0-0.1,0-0.1,0c-0.7-0.1-1.4-0.2-2.1-0.3
		C759.3,479.1,759.3,479.1,759.4,479.1z"/>
	<path fill="none" d="M705.6,516.3c0.2-0.5,0.3-1.1,0.5-1.6c-0.8,2.4-1.7,4.9-2.6,7.3C704.3,520,704.9,518.2,705.6,516.3z"/>
	<path fill="none" d="M708.6,506.3c-0.5,1.7-0.9,3.4-1.5,5.2C707.7,509.7,708.2,508,708.6,506.3z"/>
	<path fill="none" d="M998,1689.8c0,0.7-0.1,1.5-0.1,2.2c0.9,0.9,0.6,0.4,0.4,0.1c-0.3-0.5-0.2-0.3,0,0c0.6,0.8,2.6,3.7,8.6,12
		l-5.2-8.5L998,1689.8z"/>
	<path fill="none" d="M1262,435.8c0,0.1,0,0.1,0,0.2c0.1-0.1,0.1-0.2,0.2-0.3C1262.2,435.7,1262.1,435.7,1262,435.8z"/>
	<path fill="none" d="M1437.7,363.3c0.5,2.4,1,4.7,1.6,7c1.3-2.5,2.6-5.2,3.9-8C1441.4,362.6,1439.5,362.9,1437.7,363.3z"/>
	<path fill="none" d="M737.3,1319.2l-118.5-20.6c24.2,29.9,48.4,59.6,72.5,89.5C707.4,1364.4,723.1,1340.9,737.3,1319.2z"/>
	<path fill="none" d="M1454.3,360.3c4.6,3.8,9.1,7.1,13.3,9.7c-1.2-3.5-2.6-7.2-4.4-11.2C1460.2,359.3,1457.2,359.8,1454.3,360.3z"
		/>
	<path fill="none" d="M1026,1667.2L1026,1667.2C1025.6,1666.5,1025.7,1666.7,1026,1667.2z"/>
	<path fill="none" d="M1026.2,1667.3l-0.1-0.1c0.1,0.2,0.3,0.5,0.6,0.8l-0.1-0.2L1026.2,1667.3z"/>
	<path fill="none" d="M1280.5,423.9c5.5,4.5,10.9,8.5,15.8,11.6c-1.7-5.2-4.2-10.9-7-16.9C1286.3,420.3,1283.4,422.1,1280.5,423.9z"
		/>
	<path fill="none" d="M1295.2,675.3c-11.6,3.5-24.7,8.7-39.2,16.1c-1.5-11.1-3.5-21-5.7-29.9c-4.2,8-8.3,17.1-12.2,27.4
		c-7.4-6.7-14.4-12.4-21.2-17.4c2.9,11.2,6.1,22.4,9.2,33.7c2.2-4.9,6.5-8.7,12.2-9.9c9.8-2.1,19.7,4,22.2,13.7
		c2.5,9.7-3.5,19.3-13.2,21.4c-5.5,1.2-11-0.3-15.2-3.5c1.7,6.1,3.2,12.1,5,18.2c1.4,5,3,10,4.4,15c3.2-6.5,6.3-13.5,9.3-21.4
		c12.4,11.2,24,19.9,34.4,26.5c-3.9-11.5-9.6-24.7-17.7-39.2c11.3-1.1,21.2-2.8,30.2-4.7c-8.3-4.4-17.6-8.7-28.2-12.9
		C1280.4,696.5,1288.8,685.4,1295.2,675.3z"/>
	<path fill="none" d="M998.8,1651.6c-8.4-2.5-17.4-2.8-26.2-2l25.3,40.2C998.6,1677.1,998.9,1664.3,998.8,1651.6z"/>
	<path fill="none" d="M711.1,568.6c-1.3-0.8-2.6-1.6-3.9-2.4c4.3,15.3,8.9,30.2,12.6,44.1c8.7,7.6,17.5,15.5,26.4,23.9
		c-6-17.6-11.6-35.2-16.7-52.9C723.3,576.7,717.1,572.4,711.1,568.6z"/>
	<path fill="none" d="M959.4,1628.6l-0.5-0.7c-0.2,8.3-0.6,16.4-1.3,24.3c4.7-1.1,9.8-2,15-2.5L959.4,1628.6z"/>
	<path fill="none" d="M814.1,1106.5c-4.1-12.7-8.5-25.1-12.9-37.7c-1,0.6-2.1,1.2-3.1,1.8c3.4,13.4,2.9,23.9-2.2,24
		c-3.7,0.2-9.2-5.5-14.3-14.3c-22.5,13.6-42.1,26.9-58.5,39.7c27.1-1.6,57.7-5.3,91.6-11.4C814.4,1107.9,814.3,1107.2,814.1,1106.5z
		"/>
	<path fill="none" d="M700.8,528.9c0.2-0.5,0.4-1,0.6-1.5c3.4-9.4,6.3-18.3,8.4-26.2c-0.1-0.3-0.1-0.5-0.2-0.8
		c-3.2-18.7,0.4-35.4,2.3-40.5c0-0.1,0-0.1,0-0.2c0,0,0,0,0,0c-0.3-1-0.2-1,0.4-0.5c0.5-1,0.8-1.3,0.8-0.1c8.4-1.2,28.5,8,45.9,19.8
		c0.8,0.2,1.5,0.3,2.3,0.5c0.1,0,0.3,0,0.4,0.1c0.6,0.1,1.2,0.2,1.9,0.2c0.1,0,0.2,0.1,0.3,0.1c0,0,0.1,0,0.1,0
		c1.7,0.3,3.2,0.6,4.5,0.9c3.4,0.5,6.8,1,10.1,1.4c-23.3-19.7-47.7-34.1-73.2-37.2c-16.4,20.6-14.2,53.7-6.5,88.5
		C699.5,531.9,700.2,530.4,700.8,528.9z"/>
	<path fill="#80CCEB" d="M1225.6,431.9c1-1.9,2.1-3.9,3.3-5.9c-2.4,0.7-4.6,1.2-6.8,1.7C1223.3,429.1,1224.4,430.5,1225.6,431.9z"/>
	<path fill="#80CCEB" d="M1228.9,426c3.7-1.1,7.7-2.6,11.8-4.2c-1.4-2.2-2.8-4.4-4.2-6.6C1233.7,418.9,1231.1,422.5,1228.9,426z"/>
	<path fill="#80CCEB" d="M1021.2,429.2c-4,11.7-10.2,24.8-19.3,39.3c10.5-3.2,20.3-5.3,29.2-6.8
		C1027.8,450.9,1024.5,440,1021.2,429.2z"/>
	<path fill="#80CCEB" d="M820.6,596.3c3.4,3.5,6.7,7.1,10.1,10.7c2.6-5,5.5-10.1,8.9-15.5C832.9,593.5,826.6,595.1,820.6,596.3z"/>
	<path fill="#80CCEB" d="M1004.9,373.2c-5.6-19.2-11.2-38.3-16.5-57.8c-6.3-23.6-12.3-47-16.1-72.8c-1.9-12.7-3.1-26.7-1.2-43.9
		c3.4-10.6,2.7-20.9,17.2-35.2c14.7-15.6,35.8-15.8,49.1-13.6c71.8,28.2,89.8,61.5,127.2,93.1c25,24.9,49,49.9,72.6,75
		c7.8-5.7,22,4.5,31.3,33.7c1.3,1.4,2.6,2.9,4,4.4c4.7-8.4,9.5-15.1,14.1-19.9c-50.7-70.3-101.7-138.7-196.8-213.5
		c-10.6-5.8-26.3-17.3-60.4-20.1c-38.5-11.6-98.9,44-97.4,62.6c-16.3,49.8-8,63.1-7.8,84.9c5,36.8,13.5,68.9,21.4,97.8
		c4.9,17.7,10.1,35.3,15.1,52.9C977.2,382.1,992.9,373.4,1004.9,373.2z"/>
	<path fill="#80CCEB" d="M980,608.2c-14.9-18.7-30.3-37.1-46.2-55.2c-2.6,1.5-5.4,2.8-8.5,3.5c-15.6,3.4-31.4-6.4-35.4-22
		c-2.2-8.8-0.1-17.4,5-23.9c-7.4-7.7-15-15.3-22.7-22.8c3.5,7.3,7.3,14.8,11.6,22.7c-17.9,1.8-33.9,4.4-48.2,7.5
		c13.2,7,28.1,13.9,45.1,20.6c-17.5,19-31.1,36.7-41.2,52.8c9.5-2.8,19.8-6.5,30.6-10.9c-2.8-3-5.5-6-8.3-8.9
		c-0.2-0.6-0.3-1.2-0.5-1.8c3.1,3.6,6.1,7.1,9.2,10.5c10.1-4.2,20.6-9,31.7-14.7c2.4,17.8,5.5,33.6,9.2,47.8
		c6.7-12.8,13.3-27.2,19.5-43.8C948.4,585.7,964.8,598.2,980,608.2z"/>
	<path fill="#80CCEB" d="M1027.7,632.8c2.3,2.6,4.6,5.1,6.8,7.7c3,9.1,5.9,18.1,8.8,27.1c5.5-10.1,10.9-19.8,16.2-29.2
		C1051,638.9,1040.3,637.2,1027.7,632.8z"/>
	<path fill="#80CCEB" d="M1005.8,542c42,22.4,65.3,45.5,73.4,63.5c3.3-5.4,6.7-10.5,9.9-15.4c-6.6-24-12.7-48-18.7-72
		C1055.6,527.2,1034.2,535.7,1005.8,542z"/>
	<path fill="#80CCEB" d="M1309.2,367.9c-0.9-1.2-1.7-2.4-2.6-3.6c-0.9,1.6-1.7,3.2-2.8,5C1305.7,368.7,1307.4,368.4,1309.2,367.9z"
		/>
	<path fill="#80CCEB" d="M903.4,503.3c2.4-1.3,4.9-2.4,7.7-3c15.6-3.4,31.5,6.4,35.4,21.9c1.8,7.3,0.6,14.5-2.7,20.5
		c7.5,7.6,15,15.2,22.3,22.9c-2.6-5.3-5.5-10.6-8.5-16.2c10.6-1,20.5-2.4,29.8-4c-6.7-7.3-13.6-14.5-20.5-21.7c-2-0.8-4-1.7-6.1-2.5
		c0.6-0.7,1.2-1.3,1.8-2c-14.7-15.2-29.8-30.3-45.4-45.2c-2.2,5.2-4.4,10.5-6.5,16.1c-19.8-17.9-38.2-31.8-54.9-42.3
		c2.1,6.1,4.6,12.6,7.3,19.3C876.9,479.1,890.4,491.1,903.4,503.3z"/>
	<path fill="#80CCEB" d="M1003.1,542.5c0.9-0.2,1.8-0.4,2.7-0.6c-1.1-0.6-2.3-1.2-3.4-1.8C1002.6,541,1002.9,541.7,1003.1,542.5z"/>
	<path fill="#80CCEB" d="M1002,468.5c-6.2,1.8-12.7,4.1-19.5,6.6c1.5,5,3,9.9,4.5,14.9C992.6,482.6,997.7,475.4,1002,468.5z"/>
	<path fill="#80CCEB" d="M795.9,1094.6c5.1-0.1,5.6-10.6,2.2-24c-5.7,3.2-11.1,6.5-16.5,9.7C786.7,1089.1,792.2,1094.8,795.9,1094.6
		z"/>
	<path fill="#80CCEB" d="M998.2,1692.1C998,1691.8,997.9,1691.6,998.2,1692.1L998.2,1692.1z"/>
	<path fill="#80CCEB" d="M934.2,1312.4c28.2,100.2,56.7,202.4,63.2,304.3c-13.9-22.6-27.6-45.3-41.7-67.6
		c-6.8-71.6-22.7-149.8-38.7-218.8c-0.9-3.9-2-7.7-2.9-11.6c-15.3,0.6-31.4-8-44.8-25.9c16.3,61.6,29.9,123.2,39.6,183.6
		c-36.4-56.3-73.3-112-111.2-166.6c-6.9,12.5-13.9,24.7-21.2,36.7c32.1,50.4,64.6,100.2,97.2,150.1l46.3,71.5
		c2.5,31.6,3.9,62.5,0.9,87.8c0,6.3-1.7,13.8-3,19.1c-13.9-18.3-27.7-36.4-41.5-54.2c-43.4-56.1-86.4-110.3-129.4-163.6
		c-8.1-10.1-16.2-20.1-24.3-30.1c-3.9,5.2-7.9,10.3-11.9,15.4c10.2,12.4,20.3,24.7,30.5,37.1c42.4,51.6,84.9,104.1,127.7,159.8
		c21.4,27.9,43,56.5,64.6,86.3c6.2,11.7,32.7,42.9,58.7,26.5c20.7-15.7,23.1-37.5,26.6-56.7c0.7-11.4,1.1-22.6,1.3-33.8l4,3.6
		l1.6,1.9c-0.4-0.5-0.5-0.6,0,0l0.1,0.1l0.4,0.5l0.1,0.2c1.5,2,5.2,6.9,12.9,17.2l-0.6-0.9l-9.2-15.2c-3.1-5.1-6.3-10.1-9.4-15.3
		c0.9-129.2-31.8-249.7-63.8-368.3C950.6,1297.9,942.9,1306.9,934.2,1312.4z M998.2,1692.1c0.2,0.4,0.5,0.9-0.4-0.1
		c-0.2,4.1-0.3,8.2-0.7,12.3c-3,16.6-9.6,33.1-20.3,33.4c-13.3,0.8-24.1-16.3-34.9-31.3c-7.5-10-14.9-19.7-22.3-29.6
		c0.3-0.5,0.5-0.9,0.8-1.4l6.5-5.9c5-5.5,14.3-12.6,23.6-15.6c2.2-0.6,4.6-1.3,7.1-1.8c0.7-7.9,1.1-16,1.3-24.3l0.5,0.7l13.2,21
		c8.7-0.9,17.8-0.5,26.2,2c0.2,12.8-0.2,25.5-0.8,38.2l3.6,5.8l5.2,8.5C1000.8,1695.9,998.8,1693,998.2,1692.1z"/>
	<path fill="#80CCEB" d="M842.3,1230.1c1.5,7.4,3.9,15.1,6.9,21.6c-2.8-8.8-5.1-18.5-6.9-29.1c-0.4,0.8-0.7,1.5-1.1,2.3
		C841.6,1226.6,841.9,1228.4,842.3,1230.1z"/>
	<path fill="#80CCEB" d="M950.7,1697.4C949.4,1699.2,950.2,1699.7,950.7,1697.4L950.7,1697.4z"/>
	<path fill="#80CCEB" d="M1165.1,817.1c-1.8-6.9-3.7-13.8-5.6-20.7c-3.2-0.1-6.6,0.1-10.3,0.6c2,6.9,4,13.8,6,20.6
		C1159.3,817.3,1162.5,817.1,1165.1,817.1z"/>
	<path fill="#80CCEB" d="M972.6,1649.6c-5.2,0.5-10.3,1.4-15,2.5c-1.3,15.4-3.4,29.9-6.7,43.2c0,0.9-0.1,1.5-0.3,2.1
		c1.7-2.3,7-6.8,21.7-9.8c12.1-4.8,26.2,5.4,24.8,3.7c0.3,0.3,0.5,0.5,0.7,0.7c0-0.7,0.1-1.5,0.1-2.2L972.6,1649.6z"/>
	<path fill="#80CCEB" d="M757,1017.6c0.9,2.5,1.9,4.9,2.8,7.4c9.2,6,19.1,12.1,29.5,18.3c-2.7-8.4-5.4-16.8-8.3-25.2
		C772.8,1017.8,764.8,1017.6,757,1017.6z"/>
	<path fill="#80CCEB" d="M887.3,1121.8c1.4-1.6,2.7-3,4.1-4.6c8,9.3,15.9,17.8,23.8,26c-5-15.7-10.2-31.5-15.5-47.1
		c-0.6,0.1-1.2,0.3-1.8,0.4C894.4,1105,890.8,1113.4,887.3,1121.8z"/>
	<path fill="#80CCEB" d="M939.4,1015.7c1.2-8.1,2.1-16,2.9-23.6c-0.4-1-0.8-2-1.2-3c-5.2,13.2-10.5,26.4-15.7,39.5
		c8.6,7.3,14,17,14,27.8c0,8.4-3.2,16.1-8.7,22.6c12.5,33.2,24.2,66.7,34.4,100.8c0.7,2.1,1.5,4.1,2.3,6.2
		c-3-25.9-9.4-55.4-20.6-88.8c12.2,1.1,23.8,1.9,35.2,2.5c-4.3-12.8-8.8-25.5-13.4-38.3c-1.3-0.7-2.6-1.4-3.9-2.2
		c0.9-0.5,1.7-1,2.6-1.4c-5.4-14.8-11-29.6-16.7-44.4C946.8,1014.3,943.3,1014.9,939.4,1015.7z"/>
	<path fill="#80CCEB" d="M841.5,1074.7c-2.9-4.6-4.8-9.7-5.3-15.1c-4.6-13.1-9.4-26.2-14.2-39.2c-13.6-1.1-26.6-1.8-39-2.3
		c3.4,9.1,6.8,18.1,10.1,27.2c8,4.6,16.2,9.3,24.9,14c-5.9,3.2-11.2,6.3-16.8,9.4c4.4,12.5,8.8,25,12.9,37.7
		c0.2,0.7,0.3,1.4,0.5,2.1c9.3-1.7,18.8-3.4,28.7-5.5c-0.8,5.4-1.5,10.7-2.1,15.9c2.7-6.7,5.4-13.7,8.3-20.9
		C846.9,1090.3,844.2,1082.5,841.5,1074.7z"/>
	<path fill="#80CCEB" d="M1328.2,418.5c4,3.6,7,7.1,9.1,10.3c3.2,3.6,6.3,7.1,9.5,10.7c1.5,1.7,2.8-1.4,4.2-2.6c5,4.6,7.9,3.8,6.3-2
		c-1.2-5.1-6.7-13.8-11.8-18.4c-5-6.5-9.9-12.9-14.7-19.3c-5,2.3-10.1,4.7-15.1,7.2C1319.8,409.1,1324,413.8,1328.2,418.5z"/>
	<path fill="#80CCEB" d="M872.4,1017.6c-7.1-19.7-14.4-39.3-21.8-59c-12.3-11.8-24.4-22.5-36.1-31.8c1.3,13.7,3.7,28.5,7.3,44.4
		c7.8,20.8,15.5,41.5,23,62.2C851.3,1025.9,861.1,1020.3,872.4,1017.6z"/>
	<path fill="#80CCEB" d="M749.1,1303.8c7.4-11.2,14.2-23,20.4-32.6c-8.1-11.4-16.2-23.5-24.3-34.8c-10.9,5-21.1,10.9-30.5,13.4
		c8.9,14.7,17.9,21.2,27,46.2h10L749.1,1303.8z"/>
	<path fill="#80CCEB" d="M489.5,1139.7c-7.6-10-14.2-13.8-14.5-7.5c-0.6,6.2,5.1,20.9,12.8,30.9c33.4,45.8,66.8,81.9,100.1,132.9
		h24.9C571.8,1245,530.8,1192.1,489.5,1139.7z"/>
	<path fill="#80CCEB" d="M618.8,1298.6l-28.9-5c30,37.8,60,74.6,90.1,111.2c3.8-5.6,7.6-11.1,11.4-16.7
		C667.2,1358.2,643,1328.5,618.8,1298.6z"/>
	<path fill="#80CCEB" d="M1026,1667.2c0.2,0.3,0.4,0.6,0.7,0.9l-0.1-0.1C1026.4,1667.7,1026.2,1667.4,1026,1667.2L1026,1667.2z"/>
	<path fill="#80CCEB" d="M1303.8,369.3c-4.6,1.4-9.5,3.2-14.7,5.4c2,2.3,4.1,4.5,6.1,6.8C1298.5,377.2,1301.3,373.1,1303.8,369.3z"
		/>
	<path fill="#80CCEB" d="M735.4,746.3c7.2,20.6,15.4,40.8,23,61.4c14.5,36.5,28.6,72.7,42.5,108.7c4.5,3.3,9,6.7,13.6,10.4
		c-2.2-22.6-1.6-42.2,1.1-58.8c-9-22.8-18.1-45.6-27.4-68.5c-23.5-59.6-45.8-118.9-65.1-178.4c9.1,8.1,18.3,16.8,27.6,25.8
		c21.8,62.3,48,124.1,75.4,186.2c9-18.5,21.8-29.3,35.8-32.2c-9.4-22.1-18.6-44-27.5-65.8c9.1,10.2,18.2,20.4,27.1,30.6
		c14.2,15.8,28,32.2,41.9,49c5,4.6,9.7,10.3,14.1,17c2.1,2.5,4.2,5.1,6.3,7.6c2.3,5.8,4.6,11.3,6.9,17.2c3.3,8.2,6.4,16.5,9.7,24.7
		c1-2.2,1.9-4.4,2.9-6.6c-2.9-7.3-5.7-14.7-8.6-22c3.9,4.7,8,9.5,12,14.4c1-2.2,1.9-4.3,2.9-6.5c-7.5-8.9-14.8-17.8-22-26.5
		c-9.2-24-18.2-47.8-26.9-71.5c3.3,4.7,6.6,9.3,9.8,14c2.5,4,6,7.2,8.1,7.2c1.4-0.8,0.6-4.3-1.9-8.3c-7.8-11.8-15.8-23.3-23.9-34.6
		c-1.4-3.9-2.7-7.8-4.1-11.7c12.8,15.6,25.3,31.4,37.8,47.5c9.5,24.2,18.9,48.4,28.2,72.7c2.2-4.9,4.4-9.8,6.7-14.7
		c-3.4-8.5-6.7-17.2-10.1-25.6c4.5,6,9,12,13.5,18.1c4.3-9.5,8.7-18.9,13.1-28.3c-12.9-17.2-25.8-34-39.2-49.9
		c-8.9-12.8-18-25.5-27.2-38.1c-2.4-6.1-4.8-12.3-7.1-18.4c13.7,17.1,27.2,34.5,40.5,51.9c12.2,16,23.9,32.3,35.6,49
		c1.8-3.8,3.6-7.7,5.4-11.5l-57.6-86.5l66.2,58.8l-5.1,20.5c15.6-32.6,31.3-64.1,46.7-93.2l-3.7-5.3c-14.6-19.8-29.4-39.4-44.6-58.7
		c35,111.8-42.8,125.8-76.2-4c-10.8,20.5-21.9,36.3-32.6,47.9c2.7,3.2,5.3,6.3,7.9,9.5c1.6,4.4,3.2,8.8,4.8,13.2
		c-5.1-6.7-10.2-13.3-15.3-19.8c-9.2,9.4-18,15.7-25.9,19.2c0.5,0.6,1,1.3,1.6,1.9c6.9,8,13.7,16,20.4,24c1,2.7,2.1,5.3,3.1,8
		c-8.7-11.4-17.5-22.5-26.5-33.3c-2.8,1.1-5.5,1.9-8.1,2.3c14.8,17,29.3,34.8,43.4,53.5c10.4,26.4,21.1,53.1,32,80.5
		c-17.8-21.5-35.1-42.3-53-62.3c-11.6-13.2-23.4-26.4-35.3-39.5c-10.5-26.1-20.4-52-29.5-77.5c5.6,5.6,11.1,11.2,16.6,17
		c0.1-3.4,0.4-7,1.1-10.9c-8-8.5-16-16.9-24.2-25c-0.7-2.1-1.5-4.3-2.2-6.4c9.1,9.1,18.1,18.4,27.1,28c0.7-3.4,1.7-7,2.9-10.8
		c-10.4-11.2-20.8-22.2-31.4-32.7c-68.1,0.5-62.6-58,47.5-82.2c-77.5-41.2-91.2-85-63.9-94.7c-6.4-3.5-13-6.8-20.4-9.7
		c-15.6-9.7-65.9-16.4-85,21.6c-11.1,23.9-7.1,40-4,49.2c-0.8,88,22.7,163,41.5,238.7c-9.3-25.2-18.9-50.4-27.6-76.4
		c-17-54.4-36.9-104.2-37.6-174.2c1.7-17,1.6-44,31.4-69.8c34.5-24.1,66.2-13.2,83.2-8c23.2,9.1,41,19.9,57.3,31.1
		c13,4.2,28.2,11.2,45.1,21.9c-4.5-13.2-7.3-25.1-9-35.7c-23.2-18.2-51.4-35.9-94.8-52c-18.5-6.1-68.3-15.4-110.6,23.1
		c-33.3,35-33.8,65.5-36.1,84.1c-1.8,39.7,4.3,66.9,10,94.4c6.5,102.4,42.7,206.5,82.2,306.5c22.5,2.8,51.4,13.8,84.2,34.9
		C766.4,851.7,750,799.1,735.4,746.3z M719.9,610.3c-3.8-13.9-8.3-28.8-12.6-44.1c1.3,0.8,2.6,1.6,3.9,2.4c6,3.8,12.2,8.1,18.5,12.7
		c5.1,17.7,10.7,35.3,16.7,52.9C737.4,625.8,728.6,617.9,719.9,610.3z M725,564.2c-8-5.7-15.5-10.5-22-14c-0.8-3-1.5-6-2.3-9
		c2.7,1.4,6.5,3.7,10,6.1c3.7,2.3,7.8,5.2,11.9,8.3C723.4,558.5,724.2,561.4,725,564.2z M710.2,534.2c-4.1-6.7-12.9,2.3-6.4-12.1
		c0.2-0.7,0.4-1.3,0.6-2c-1.5,4-3.1,7.8-4.4,11.1c0.2-0.5,0.3-0.9,0.5-1.4c0.4-1.1,1-2.4,1.4-3.5c0.5-1.2,0.9-2.3,1.3-3.4
		c0.6-1.5,1.1-2.9,1.7-4.4c-0.2,0.5-0.3,1-0.5,1.6c0.6-1.6,1.2-3.2,1.8-4.8c0.2-0.4,0.4-0.9,0.5-1.3c0.1-0.4,0.2-0.7,0.3-1.2
		c0.8-2.5,1.5-5,2-7.3c0.3-1.2,0.7-2.4,1-3.6c0,0,0,0.1,0,0.1c-0.3,1.1-0.5,2.3-0.8,3.4c-0.1-0.3,0.6,0,1.7,0.3
		c2.3,11.3,4.8,22.6,7.6,33.8C715.6,537.6,712.8,535.8,710.2,534.2z M765.9,480.3c-1.8-0.2-3.5-0.6-5.3-0.9c1.6,0.3,3.3,0.5,5,0.8
		c-0.2-0.1-0.4-0.1-0.6-0.2c0.8,0.2,1.6,0.3,2.5,0.4c-0.6-0.1-1.2-0.2-1.9-0.3C765.7,480.2,765.8,480.3,765.9,480.3z M709.9,501.6
		c0,0.1,0,0.2,0.1,0.3c-0.2,0.7-0.4,1.6-0.6,2.3c0.1-0.5,0.2-1,0.3-1.5C709.7,502.3,709.8,501.9,709.9,501.6z M705.6,516.3
		c-0.7,1.9-1.3,3.7-2.1,5.7c0.9-2.5,1.8-4.9,2.6-7.3C706,515.2,705.8,515.7,705.6,516.3z M707.1,511.5c0.5-1.8,1-3.5,1.5-5.2
		C708.2,508,707.7,509.7,707.1,511.5z M768.6,485.7c-2.8-2.2-5.8-4.3-8.9-6.4c2.2,0.4,4.5,0.8,6.8,1.1c4,1.1,8.6,1.9,13.3,2.5
		c0,0,0,0,0,0c-0.4,0.1-0.4,0.4,0.9,1l0.4,7.4c0.2,1.6,0.5,3.4,0.7,5C777.3,492.9,773,489.1,768.6,485.7z M806.8,508.6
		c0.8,3.6,1.7,7.5,2.7,11.4c-5-4.5-9.9-9-15-13.3c-0.8-4.5-1.4-8.5-1.8-12C797.4,499.2,802.1,503.8,806.8,508.6z M705.4,444.8
		c25.5,3.1,49.9,17.5,73.2,37.2c-3.3-0.4-6.7-0.9-10.1-1.4c-1.4-0.3-2.9-0.6-4.5-0.9c0,0-0.1,0-0.1,0c-0.1,0-0.2,0-0.3-0.1
		c-0.6,0-1.2-0.2-1.9-0.2c-0.1,0-0.3,0-0.4-0.1c0,0,0.1,0,0.1,0c-0.7-0.1-1.4-0.2-2.1-0.2c0,0-0.1,0-0.1-0.1
		c0.7,0.1,1.4,0.2,2.1,0.3c-0.8-0.2-1.5-0.3-2.3-0.5c-17.4-11.7-37.6-21-45.9-19.8c0.1-1.2-0.3-0.9-0.8,0.1
		c-0.6-0.6-0.6-0.5-0.4,0.5c0,0,0,0,0,0c0,0.1,0,0.1,0,0.2c-2,5.1-5.6,21.8-2.3,40.5c0.1,0.3,0.1,0.5,0.2,0.8
		c-2.1,8-5,16.8-8.4,26.2c-0.2,0.5-0.4,1-0.6,1.5c-0.6,1.5-1.3,3-1.9,4.5C691.2,498.5,689,465.5,705.4,444.8z"/>
	<path fill="#80CCEB" d="M1248.4,459.6c8.7,11.9,18.3,19.5,21.1,15.8c3.5-2.9-1.4-15.9-9.8-27.8l1.3,7.3c-1.7-2.8-3.4-5.6-5.1-8.4
		c-2.9,4.5-5.9,8.3-8.8,11.5C1247.5,458.5,1248,459.1,1248.4,459.6z"/>
	<path fill="#80CCEB" d="M1026.7,1668.1L1026.7,1668.1C1028.8,1670.9,1027.7,1669.4,1026.7,1668.1z"/>
	<path fill="#80CCEB" d="M1005,1240.8c4.5-1,7-7.9,7.6-18.1c-13.5-7.9-27.7-17.6-42.4-29.3C981.5,1222.3,995.2,1242.9,1005,1240.8z"
		/>
	<path fill="#80CCEB" d="M1198.8,597.2c-1.5-5.8-3.8-10.2-5.7-10.2c-1.7-0.5-2,4-0.9,8.8c1.7,7.5,3.7,15.1,5.5,22.6
		c0.8-4,2.1-7.4,3.8-9.8C1200.7,604.8,1199.7,600.9,1198.8,597.2z"/>
	<path fill="#80CCEB" d="M1216.5,692.7c1.5,2.9,3,5.9,4.7,8.9c-0.8,0.1-1.4,0.2-2.2,0.3c3.3,12,6.5,24.1,9.9,36.1
		c1.2-0.6,2.4-1.2,3.7-1.8c1.5,11.1,3.5,21.1,5.7,30c1-1.9,2-4.1,2.9-6.1c-1.5-5-3-10-4.4-15c-1.8-6.1-3.3-12.1-5-18.2
		c-3.3-2.5-5.9-6-7-10.3c-1-4-0.5-8,1-11.5c-3.1-11.2-6.3-22.5-9.2-33.7c-2.5-1.8-4.9-3.6-7.3-5.2
		C1211.7,675.1,1214.2,683.9,1216.5,692.7z"/>
	<path fill="#80CCEB" d="M1237.5,767.7c5.8,19.7,11.7,39.4,17.8,60.2c3.9,14,8,27.6,11.6,45.4c1.8,8.1,3.5,19,4.1,33.5
		c0.6,6.4-1.3,23.2-3.8,33.9c-9.3,23.3-17.2,55-70.2,74.5c2.5,1.2,4.8,2.5,6.8,3.8c44.8-18.2,56.6-43.9,67.2-68.6
		c14.4-69.2,0.7-64.2,0-87.4c-3.8-15.5-7.7-28.9-11.6-42.1c-1.4-4.8-2.8-9.3-4.2-13.9c-6.3-9.5-12.3-22.8-16.9-40.8
		C1238.1,766.7,1237.8,767.2,1237.5,767.7z"/>
	<path fill="#80CCEB" d="M1088.4,1250.9c27.9,106.2,50,217.4,63.1,336.9c-0.6,59,15.7,101.6-29.1,209.3
		c-13,19.8-18.7,32.6-43.9,53.8c-33,24-69.7,40-112.8,35.3c-20.6-1.4-44.7-8-58.7-14.7c-10.2-5.3-20.3-11.5-29.9-18.4l-13.9-10.9
		l-6.6-5.7l-3.2-2.9l-1.6-1.5l-0.2-0.2c-9.1-12.1-14.3-19.1-17.1-22.9c0.5,0.6,0.4,0.5-1.4-1.9l-0.1-0.1l-0.1-0.1
		c-2.5-3.3-1.4-1.9-0.1-0.1l-4.8-6.7c-12.9-17.7-26-34.9-39.2-51.5c-4.3-5.8-8.5-8.1-9-4.7c-0.5,3.9,2.7,11,7.3,17.5l19.4,27
		l9.6,13.6l4.8,6.8l2.4,3.4l0.3,0.4c39.9,53.3,11.5,15.2,20.6,27.4l0.8,0.8l3.4,3.2l7,6.2c24.7,17.3,28.6,27.5,75.5,41.5
		c46.5,12,89.9,7,127.5-14.5c44.9-25.8,50.3-41.5,64.5-59.8c14.8-21.7,18.9-34.5,22.5-45.2c28.1-93.4,17.6-139.8,16.6-196.8
		c-9.9-105.4-29.6-201.1-53.7-295c-2.4-9.8-5.2-19.5-7.7-29.2C1096.8,1251.3,1092.8,1251.3,1088.4,1250.9z"/>
	<path fill="#80CCEB" d="M1047.5,1110.9c5.9,4.3,11.5,8.6,16.8,12.8c-2.4-7.6-4.8-15.2-7.2-22.7c-4.1,0.1-8.4,0.2-12.6,0.2
		C1045.5,1104.4,1046.4,1107.6,1047.5,1110.9z"/>
	<path fill="#80CCEB" d="M1011.5,1003.6c2.7,7.8,5.4,15.6,8.1,23.5c3.7-2.4,7.1-4.7,10.6-7.1c-2.1-6-4-12-6.1-17.9
		C1020,1002.5,1015.8,1003,1011.5,1003.6z"/>
	<path fill="#80CCEB" d="M991.7,909.5c-0.9-1-1.7-1.9-2.6-2.9c-2.5-6.6-5-13.2-7.5-19.8c-2.2,5.5-4.4,11-6.6,16.6
		c1.8,4.8,3.5,9.5,5.3,14.3C984.2,914.8,988,912,991.7,909.5z"/>
	<path fill="#80CCEB" d="M832.9,1806.9c0.4,0.6,0.9,1.2,1.6,2.1c-0.4-0.5-1-1.4-1.7-2.2l0,0L832.9,1806.9z"/>
	<path fill="#80CCEB" d="M1031,1101.3c-0.3-0.9-0.7-1.8-1-2.7c-3.3-2.2-6.6-4.5-10.1-6.7c1.1,3.1,2.2,6.2,3.3,9.3
		C1025.8,1101.3,1028.4,1101.3,1031,1101.3z"/>
	<path fill="#80CCEB" d="M988.8,1006.8c4,10.6,8,21.3,11.9,32c1.9-1.1,3.6-2.2,5.5-3.3c-3.8-9.9-7.6-19.7-11.4-29.5
		C992.8,1006.2,990.8,1006.5,988.8,1006.8z"/>
	<path fill="#80CCEB" d="M1086,1286.7c1.7,6.4,4.4,10,6,9.9c1.7-0.9,1.6-6.7,0-12.3c-3.3-11.4-6.8-22.9-10.3-34.3
		c-2.7-0.4-5.5-1-8.4-1.6C1077.5,1261.2,1081.9,1273.8,1086,1286.7z"/>
	<path fill="#80CCEB" d="M964.7,929.3c-0.1,0.2-0.2,0.4-0.2,0.6c0.1-0.1,0.2-0.2,0.4-0.3C964.8,929.6,964.8,929.5,964.7,929.3z"/>
	<path fill="#80CCEB" d="M931.4,444.2c-0.9-0.9-1.7-1.7-2.6-2.6c0.4,1.6,0.9,3.2,1.3,4.9C930.6,445.7,931,445,931.4,444.2z"/>
	<path fill="#80CCEB" d="M981.4,497.3c-4.9-5.3-9.7-10.6-14.6-15.8c-3.4,1.5-6.8,2.9-10.4,4.5c6.1,6.5,12.2,13,18.3,19.5
		C977,502.7,979.2,500,981.4,497.3z"/>
	<path fill="#80CCEB" d="M930.2,446.5c-1.4,2.6-2.8,5.4-4.1,8.2c2.6,2.6,5.3,5.2,7.8,7.8C932.7,457,931.5,451.6,930.2,446.5z"/>
	<path fill="#80CCEB" d="M845.7,368c-15.6-11.3-31.3-22.7-57-34.4c-24.9-7.3-61.3-35-142.3-1.6c-77,45.8-78.2,108.3-81.8,128.7
		c-3,29.4-0.9,49,1,67.8c1.5,15.3,6,25,9.2,26.1c3.3-0.4,3.7-8.4,2.4-23.6c-2-18.7-3.8-38.3-1.4-65.9c3.7-20.2,3.2-77.5,74.4-121.7
		c76.5-32.5,111.5-5.3,135,1.7c25,11.5,39.9,22.8,55.7,34.1c1.6,1.2,3.1,2.5,4.6,3.7c0.5-4.8,1.5-9.1,2.8-12.8
		C847.5,369.4,846.7,368.7,845.7,368z"/>
	<path fill="#80CCEB" d="M1221.1,741.8c-1.8-6.3-3.5-12.5-5.3-18.7c-6.2,6.9-11.5,13.6-16.1,19.9c0.4,1.6,0.9,3.1,1.3,4.7
		c-0.9-0.9-1.8-1.8-2.7-2.7c-1.8,2.5-3.4,5-4.9,7.4C1201.8,749.8,1211.1,746.4,1221.1,741.8z"/>
	<path fill="#80CCEB" d="M1191,706.3c6.9,3.6,14.6,7.2,23.1,10.7c-1.3-4.7-2.7-9.4-4-14C1203.3,704,1196.8,705,1191,706.3z"/>
	<path fill="#80CCEB" d="M1172.3,647.8c7.3,2,15.8,5.7,25.3,11.1c-12.4-43.8-24.3-86.9-35.6-130.5c-6,7.4-11.8,15.1-17.6,23
		c0.4,1.4,0.7,2.7,1.1,4.1C1154.2,586.8,1163.3,617.3,1172.3,647.8z"/>
	<path fill="#80CCEB" d="M1254.1,933.1c1.8-8.1,3.1-18.1,3.3-24.8c-0.9-39.9-7.2-56.3-12-78.7c-4.7-17.4-9.4-34.3-14.1-51.1
		c-5.7,9.1-11.4,16-17,21.3c0.9,3.8,1.9,7.7,2.8,11.6c-1-0.6-2.1-1.2-3.3-1.8c1.3,1.2,2.5,2.3,3.6,3.3c4.5,19,8.9,38.3,12.9,58.5
		c1,9.1,2.5,15.6,2.6,28.1c-5.3,8.7,15,26.7-34.5,71.9c-42.9,20.3-55.1,5.1-70.2,1.5c-6.6-3.7-15.7-9.6-19.3-12.9
		c-1.3-1.1-2.4-2.1-3.6-3.2c-5.2,5.9-11.1,12-17.7,18.3c4.9,4.1,11,8.7,19.7,14.5c4.7,2.5,7.9,5.6,18.9,9.6
		c17.3,1.3,32.4,3.7,45,6.9c17.7-1.6,37.9-9.9,51.5-21.3C1241.5,970.1,1252.8,941.3,1254.1,933.1z"/>
	<path fill="#80CCEB" d="M1055.1,875.8c-0.6-1.5-1.1-3-1.7-4.5c5.5-13.9,16.2-35.1,34-47.5c1.3-1.3,2.8-2.4,4.3-3.6
		c2.1,7.1,4.2,14.2,6.2,21.3c-11.4,9.5-17.4,19.4-21.4,28.3c42.2-8.6,65.7,8.8,56.5,41.3c3.2,2.8,6.3,5.6,9.8,8.2
		c5.7,3.2,11,9,23.2,7.7c14.8-6.4,11-17.1,11.9-22.6c-1.4-15.3-4.9-29.4-9.1-43.1c2.7,0.3,5.1,0.8,7.5,1.6
		c2.9,13.6,5.3,27.6,5.5,43.2c-2.1,5.4,2.4,19.3-18,24.2c-12.4-1.1-17.3-6.4-22.7-10.2c-3.1-2.6-5.7-5.3-8.5-7.9
		c-3.7,12.2-11.9,26.5-25.4,42.3c5.2,4.4,11.9,9.3,22.2,15.3c7,3.7,23,9.6,38.9,8.3c30.5-3.8,48.4-24.1,52.7-35.6
		c11.7-26.5,7.8-33.5,8.8-42.4c-1.5-31.2-6.9-49.1-11.6-70.4c-1.8-7.1-3.6-14.1-5.5-21c0.4,0.2,0.8,0.4,1.3,0.7
		c-0.5-0.5-0.9-0.8-1.4-1.3c-0.5-1.8-0.9-3.6-1.4-5.4c-28.5,24-48.4-1.3-17.7-50.4c-71.2,21.3-84.5-24.6-9.9-44.1
		c-0.8-2.6-1.6-5.1-2.4-7.7c-48.1-29.2-47.1-58.2-16.9-54.4c-8.9-28.4-17.8-56.8-26.7-85.1c-11.4,16.4-22.2,34-32.6,52.9
		c4.2,13.8,8.4,27.6,12.6,41.3c-5-5.9-10-11.8-15.1-17.9c-1.2-4.1-2.3-8.3-3.5-12.4c-11.4,21.4-22.5,43.4-33.2,65.9l54.5,7.8
		c-4.1-13.8-8.1-27.7-12.1-41.5c5.2,6,10.3,11.9,15.3,17.8c2.6,8.4,5.1,16.9,7.7,25.3l17.5,2.5l-16.4,1.2c1.9,6.5,3.9,12.9,5.8,19.4
		c-4.9-6.1-10-12.4-15.1-18.8l-66,4.7c-18,38.7-35.2,78.7-51.9,119.3c8.7,12.3,17.6,24.8,26.9,37.4c1.3,3.6,2.5,7,3.7,10.5
		c-0.8-1.1-1.6-2.1-2.5-3.2c-10.4-13.6-20.3-27-30-40.2c-4.1,9.9-8.1,19.8-12.1,29.8c8.1,10.6,16,21,24.2,31.5
		C1029.6,886.3,1042.8,880.2,1055.1,875.8z M1139.2,763.1c5.3,6.1,10.6,11.9,15.8,17.7c1.5,5.2,3,10.4,4.4,15.6
		c1.3,0,2.7-0.1,3.9,0.1c2,0,4.1,0.1,6.1,0.2c9.4,10,19.4,20.2,28.1,27.9c-3.1-1.4-7.2-3-12.1-4.5c-9.6-1.6-11.9-3-20.5-2.9
		c1.6,6,3.3,12.1,4.8,18.1c1.8,7.7,3.6,15.3,5.3,23c-3.1-3.3-7-7.3-11.1-11.7c-1.3-3.9-2.6-7.7-3.9-11.6c-1.6-5.7-3.3-11.5-5-17.2
		c-3.5,0.3-7.6,0.7-12.7,1.3c-0.5,0.2-0.9,0.3-1.4,0.5c-4.6-5.7-9.2-11.7-13.8-17.6c7.6-2.4,15.1-4,21.9-4.8
		C1145.9,785.7,1142.6,774.4,1139.2,763.1z"/>
	<path fill="#80CCEB" d="M1119,356c-5-20.9-10.4-43.4-15-64.4c33.1,35.2,65,72.2,96.4,109.8c5.7-3,13.2-5.8,22.2-8.1
		c-1.4-2.1-2.8-4.2-4.2-6.3c-23.8-14.9-30.3-29.5-24.5-35.9c-24.1-33.9-50-67-78-98.7c-7.8-6.4-15.3-14.8-23-23.5
		c-0.2-2.4-0.4-4.7-0.4-6.7c-0.5,0-1.5-0.1-3.7-0.4c-0.8-0.1-1.7-0.2-2.6-0.3c-19.9-21.9-42.2-42.2-76.6-33.2
		c-10.2,23.5-9,46.1-4.6,68.2c-1.6,2.9-2.6,5-2,5l0.7,0.3c0.6-1,1.2-2.1,1.8-3.1c0.3,1.4,0.6,2.9,0.9,4.3c-0.8-0.5-1.5-0.9-1.8-0.8
		l-0.9-0.4c-1.3,2.2-2.5,4.3-3.8,6.2c1.3,0.3,4.7,2.5,9.1,5.8c3.5,13.7,7.4,27.3,9.7,40.9c1.4,25.1,4,51.4,7.4,78.2
		c0.2,1.3,0.4,2.8,0.5,4.2c2.7,20.9,5.9,42.2,9.6,63.9c7.7-1,14.7-1.4,21.1-1.3c-1.8-8.2-3.7-16.5-5.4-24.7
		c2.4,8.3,4.9,16.5,7.3,24.8c43.7,1.9,52.4,30.3,16.2,55.1c6.6,22.2,13,44.4,19.7,66.5c11.1-16.1,21.7-29.8,31.6-40.4
		c1.1-1.2,2.3-2.4,3.4-3.7c-21.9-69.7-43.3-138.9-62.9-207.5c13,14.2,25.8,29.3,38.4,44.9c0.3,1.9,0.6,3.8,0.9,5.6
		c8.4,49,18.3,98.3,31.8,148.3c6.1-6.6,12.4-13.4,18.7-20.2c-8.5-33-16.7-65.9-24.8-98.8c17.2,23.6,33.8,47.9,50.5,71.5
		c1.8-1.9,3.6-3.7,5.4-5.6c-19.5-27.4-39.3-54.3-59.5-80.3C1125.3,382.2,1122.1,369.1,1119,356z M1087,222.5
		c0.1,0.1,0.1,0.2,0.3,0.3c0,0,0,0.1,0,0.1C1087.3,222.7,1087.2,222.6,1087,222.5z M1086.6,222c-0.1-0.2-0.3-0.3-0.4-0.5
		C1089.6,222.1,1086.7,221.4,1086.6,222z M1099.7,358.8c-11.9-14.5-24.2-29-36.5-42.6c-4.3-15.2-8.6-30.4-12.7-45.6
		c-2.9-12.4-5.3-24.6-7-36c15.1,11.5,31.8,27.4,47.1,43c3.3,26.9,8.2,57.1,13,86.1C1102.3,362.2,1101.1,360.4,1099.7,358.8z"/>
	<path fill="#80CCEB" d="M1095,222.1c0,0,0,0.1,0,0.1C1095,222.3,1095,222.2,1095,222.1z"/>
	<path fill="#80CCEB" d="M818.5,596.8c-7.9,1.6-15.1,2.5-21.8,3c6.3,6.9,12.5,13.8,18.7,20.9c1.4,3.9,2.8,7.9,4.2,11.8
		c2.4-7.2,5.6-15.1,9.9-23.5c-3.6-4-7.2-7.7-10.9-11.6C818.7,597.2,818.6,597,818.5,596.8z"/>
	<path fill="#80CCEB" d="M1095,222.1C1095,222.1,1095,222,1095,222.1C1095,222,1095,222,1095,222.1z"/>
	<path fill="#80CCEB" d="M1189.5,706.7c0.5-0.1,0.9-0.3,1.4-0.4c-0.7-0.4-1.2-0.7-1.9-1.1C1189.3,705.7,1189.4,706.2,1189.5,706.7z"
		/>
	<path fill="#80CCEB" d="M1237.4,552.6c19.1,22,37.9,43,56.6,63.4c10.2-1.9,16.9,4.8,16.5,18c12.6,13.6,25.1,26.9,37.5,40.1
		c3.1,1.8,5.2,4,6.3,6.6c19.1,20.1,38.1,39.9,56.9,59.4c3.4,3.6,5.2,3.1,4.2-0.8c-0.2-3-3.6-8.8-6.7-11.7
		c-56.3-58.4-114.5-125.3-172.4-182.8c-12.8-18.8-25.7-37.4-38.7-55.8c-1.8,1.8-3.6,3.7-5.4,5.6
		C1206.9,515,1221.8,534.7,1237.4,552.6z"/>
	<path fill="#7C5F47" d="M1286.3,391.9c-2.7,1.8-5.3,3.5-7.9,5.3c0-1,0.1-2.1-0.1-3.1c-1.8-7.1-9.1-11.7-16.3-10.1
		c-7.2,1.6-11.5,8.6-9.7,15.8c1.2,4.8,5,8.2,9.4,9.6c-3.3,2.5-6.6,5-9.8,7.5c2-0.9,3.9-1.7,5.9-2.7c1.1,8.1,2.6,15.1,4.3,21.7
		c0.1,0,0.1-0.1,0.2-0.1c3-5.8,6-12.3,8.8-19.7c3.3,3,6.4,5.4,9.5,7.9c2.9-1.8,5.9-3.6,8.8-5.3c-1.8-3.9-3.7-7.8-6-12
		c8.3-0.8,15.6-2,22.2-3.5c-6.1-3.2-12.9-6.4-20.8-9.5C1285.3,393,1285.7,392.5,1286.3,391.9z"/>
	<path fill="#7C5F47" d="M1628.3,340.9c-1.7-0.4-3.6-0.8-5.3-1.2c-0.5,1-1,1.9-1.6,2.9C1623.8,341.9,1626.1,341.3,1628.3,340.9z"/>
	<path fill="#7C5F47" d="M1600.3,335.7c-0.2,0-0.4-0.1-0.6-0.1c0.1,0.3,0.2,0.5,0.2,0.7C1600.1,336.1,1600.2,335.9,1600.3,335.7z"/>
	<path fill="#7C5F47" d="M1576.7,332.1c-3.2-0.4-6.5-0.9-9.7-1.3c3.3,1.3,6.9,3.1,10.9,5.6C1577.4,335,1577,333.6,1576.7,332.1z"/>
	<path fill="#7C5F47" d="M1602.8,350.3c-0.7-5.2-1.7-9.8-2.8-14c-2,3.8-3.9,7.9-5.8,12.8c-5.9-5.3-11.3-9.4-16.3-12.5
		c1.7,4.9,4.1,10.5,7.3,16.5c2.1,0.1,4.1,0.2,6.1,0.3c-2.8,1.9-4.2,5.3-3.3,8.9c1.2,4.6,5.9,7.5,10.5,6.5c4.7-1,7.4-5.6,6.3-10.2
		c-0.5-1.9-1.7-3.4-3.1-4.6c3.5,0.2,6.9,0.5,10.3,0.8c3.7-4.3,6.9-8.4,9.3-12.2C1615.8,344.3,1609.6,346.7,1602.8,350.3z"/>
	<path fill="#7C5F47" d="M1640.6,357.8c91.5,11.3,155.1,36.2,155.1,36.2c-53.1-21.8-101.7-37.6-146.3-48.3
		C1650.5,349.2,1647.7,353.7,1640.6,357.8z"/>
	<path fill="#7C5F47" d="M1463.2,329.5c-4.5,0.4-9,1-13.4,1.5c-2.7-2.8-6.6-4.4-10.6-3.5c-3.5,0.7-6,3.1-7.3,6.1
		c-5.4,1-10.7,2-16,3.2c3.6,1.8,7.4,3.6,11.7,5.3c-6.6,7.2-11.8,13.9-15.6,20.1c7-2.1,15-5.3,23.8-9.8c0.5,3.9,1.2,7.5,1.9,10.9
		c1.8-0.4,3.7-0.7,5.5-1.1c1.2-2.6,2.3-5.3,3.5-8.3c2.6,2.4,5.1,4.3,7.6,6.3c3-0.5,5.9-1,8.9-1.4c-1.8-4-3.9-8.2-6.3-12.6
		c6.8-0.7,12.6-1.7,18-2.9c-5-2.7-10.4-5.3-16.8-7.8C1460,333.5,1461.5,331.5,1463.2,329.5z"/>
	<path fill="#7C5F47" d="M776.6,1346.5c7.2-12,14.3-24.3,21.2-36.7c15.1-27.3,29.5-55.7,43.4-84.8c0.4-0.8,0.7-1.5,1.1-2.3
		c-2.6-15.1-4.1-32-4.1-50.7c-8.8,8-17.5,15.2-26,21.9c-5.8,15.2-9,23.7-9,23.7s-13.2,20.9-33.7,52.5c-6.2,9.6-13,22.6-20.4,33.8
		l2.6-7.8h-10H612.7h-24.9h-12.7l14.7,0.1l28.9,3.8l118.5,20c-14.3,21.7-29.9,44.9-46,68.5c-3.8,5.6-7.6,11-11.4,16.5
		c-13,18.9-26,37.6-38.6,55.3c-73.5,102.9-330.9,176.4-330.9,176.4c161.1,4.7,278.9-57.8,370.6-158.2l20.9,106.7v-129.6
		c0-4.3,6.3-8.7,9.8-13.2c4-5.1,7.5-10.2,11.4-15.4C742.2,1401.7,759.6,1374.8,776.6,1346.5z"/>
	<path fill="#7C5F47" d="M1220.1,444.2c-11.2,10.3-21.9,20.8-32.1,31.4c-1.8,1.9-3.6,3.7-5.4,5.6c-8.8,9.2-17.4,18.3-25.7,27.3
		c-6.3,6.8-12.5,13.6-18.7,20.2c-2.7,2.9-5.4,5.8-8.1,8.7c-1.1,1.2-2.3,2.5-3.4,3.7c-10,10.6-20.6,24.3-31.6,40.4
		c-1.9,2.8-3.9,5.7-5.8,8.6c-3.3,5-6.6,10.1-9.9,15.4c8.5,18.8,0.5,31.9-19.7,33c-5.4,9.3-10.8,19.1-16.2,29.2
		c-2.5,4.6-5,9.2-7.4,13.9c-15.4,29.1-31.1,60.6-46.7,93.2l5.1-20.5l-66.2-58.8l57.6,86.5c-1.8,3.8-3.6,7.6-5.4,11.5
		c-0.9,1.8-1.7,3.7-2.6,5.5c-4.4,9.4-8.8,18.8-13.1,28.3c-1.1,2.5-2.3,5-3.4,7.5c-2.2,4.9-4.5,9.8-6.7,14.7c-1.7,3.7-3.4,7.5-5,11.2
		c-1,2.2-1.9,4.3-2.9,6.5c-1.1,2.6-2.3,5.1-3.4,7.7c-1,2.2-1.9,4.4-2.9,6.6c-0.6,1.5-1.3,2.9-1.9,4.4c3.8,17.7,6.1,38.1,6.1,61.3
		c6.7-6.1,13.4-11.7,19.9-17c0.1-0.2,0.2-0.4,0.2-0.6c3.4-8.7,6.9-17.4,10.3-26c2.2-5.5,4.4-11,6.6-16.6c3.2-8,6.4-15.9,9.6-23.9
		c4-10,8.1-19.9,12.1-29.8c0.6-1.5,1.2-3,1.8-4.5c16.7-40.7,33.9-80.6,51.9-119.3l66-4.7l9.2-0.7l16.4-1.2l-17.5-2.5l-11-1.6
		l-54.5-7.8c10.7-22.5,21.8-44.5,33.2-65.9c1.9-3.5,3.7-7,5.6-10.5c0.1-0.2,0.2-0.4,0.3-0.6c10.3-18.9,21.2-36.5,32.6-52.9
		c2.3-3.3,4.6-6.4,6.9-9.6c5.8-8,11.6-15.7,17.6-23c9.8-12,19.9-23.3,30.2-33.8c1.8-1.9,3.6-3.8,5.4-5.6
		c7.7-7.6,15.5-14.8,23.4-21.6C1217.1,463.6,1216.3,455.4,1220.1,444.2z"/>
	<path fill="#7C5F47" d="M1552.4,329.5c-15.5-1.4-30.5-2.2-44.9-2.2c-4.4,5.9-14.9,12.1-32.7,16c7.5,4,13.3,8,17.8,11.9
		c24.4-2.4,48.4-3.2,71.4-2.8C1548.8,342.1,1546.2,332.3,1552.4,329.5z"/>
	<path fill="#7C5F47" d="M1382.8,345.7c-17.8,5.6-34.7,12.2-50.5,19.9c25.9,2.5,21.1,27.1-26.8,37.6c2.1,1.1,3.9,2.3,5.9,3.4
		c1.4-0.7,2.8-1.4,4.3-2.2c5-2.5,10-4.9,15.1-7.2c25.4-11.5,51.1-20.4,76.8-27.1c1.2-2.6,2.7-5.2,4.4-8
		C1378.9,372,1366.5,358.1,1382.8,345.7z"/>
	<path fill="#7C5F47" d="M891.4,1001.6c-0.6-0.7-1.1-1.2-1.7-1.9c-2.3,5.5-4.5,10.9-6.8,16.3c-3.6,0.3-7.1,0.8-10.5,1.6
		c-11.3,2.7-21.1,8.3-27.6,15.8c-5.7,6.6-9,14.5-9,23c0,1.1,0.3,2.1,0.4,3.2c0.5,5.4,2.4,10.5,5.3,15.1c3.1,4.8,7.3,9,12.4,12.5
		c-1.5,3.7-2.9,7.3-4.3,10.8c-2.9,7.2-5.7,14.2-8.3,20.9c-2.2,19-3.1,36.6-3.1,52.9c15.9-14.4,32.4-31.1,49.1-50
		c3.6-8.4,7.1-16.9,10.6-25.3c0.6-0.1,1.2-0.3,1.8-0.4c12.9-2.4,23.9-8.6,31.1-17c5.5-6.5,8.7-14.2,8.7-22.6
		c0-10.8-5.4-20.5-14-27.8c5.3-13.2,10.5-26.3,15.7-39.5c0.6-1.6,1.2-3.2,1.9-4.7c1.1-13.2,1.6-25.7,1.6-37.4
		C927.3,962.6,909.5,980.7,891.4,1001.6z"/>
	<path fill="#FF6F49" d="M1171,1005.9c-12.6-3.2-27.7-5.5-45-6.9c-19.3-1.5-41.3-1.7-66.4-0.2c-8.8,6.9-18.8,14-29.4,21.1
		c-3.5,2.4-6.9,4.7-10.6,7.1c-4.3,2.8-8.9,5.6-13.5,8.4c-1.8,1.1-3.6,2.2-5.5,3.3c-10.5,6.3-21.5,12.7-33.4,19.2
		c-0.9,0.5-1.7,1-2.6,1.4c1.3,0.7,2.6,1.4,3.9,2.2c18.9,10.3,36,20.4,51.3,30.4c3.5,2.2,6.8,4.5,10.1,6.7c1.3,0.9,2.8,1.8,4.1,2.7
		c3.6,0,6.9-0.1,10.3-0.2c4.2-0.1,8.5-0.1,12.6-0.2c145.2-4.9,192.2-53.2,146.8-81.9c-2.1-1.3-4.4-2.6-6.8-3.8
		C1189.9,1011.7,1181.3,1008.5,1171,1005.9z"/>
	<path fill="#FF6F49" d="M915.2,1143.2c-7.9-8.2-15.8-16.7-23.8-26c-1.4,1.6-2.7,3-4.1,4.6c-16.7,18.9-33.2,35.6-49.1,50
		c0.1,18.8,1.6,35.6,4.1,50.7c1.8,10.6,4.1,20.3,6.9,29.1c5.3,16.9,12.3,30.6,20.1,41.1c13.4,17.9,29.5,26.4,44.8,25.9
		c7-0.3,13.7-2.3,20.1-6.3c8.7-5.5,16.3-14.5,22.4-26.9c10.3-21.2,15.6-52.4,11.6-93.5C951.1,1178.4,933.4,1162.1,915.2,1143.2z"/>
	<path fill="#FF6F49" d="M942.3,992.1c-0.8,7.7-1.7,15.5-2.9,23.6c3.8-0.8,7.4-1.4,11.2-2.1c13.2-2.6,25.9-4.8,38.2-6.7
		c2-0.3,4-0.6,5.9-0.9c5.7-0.8,11.3-1.6,16.8-2.3c4.3-0.5,8.5-1,12.6-1.5c12.3-1.4,24.3-2.5,35.5-3.2c10.5-8.2,19.7-16.2,27.9-23.9
		c6.6-6.3,12.6-12.4,17.7-18.3c0.6-0.7,1.3-1.4,1.9-2.2c13.5-15.8,21.7-30.1,25.4-42.3c0.1-0.4,0.3-0.8,0.4-1.2
		c9.2-32.5-14.3-49.8-56.5-41.3c-6.7,1.4-13.8,3.4-21.4,6.1c-12.2,4.4-25.5,10.4-39.7,18.6c-7.6,4.4-15.6,9.5-23.7,15.1
		c-3.7,2.6-7.5,5.3-11.4,8.2c-5.1,3.8-10.3,7.8-15.5,12c-0.1,0.1-0.2,0.2-0.4,0.3c-6.6,5.3-13.2,10.9-19.9,17
		c0,11.8-0.5,24.3-1.6,37.4C942.8,986.9,942.5,989.5,942.3,992.1z"/>
	<path fill="#FF6F49" d="M1034.1,1101.3c-1,0-2.1,0-3.1,0c-2.6,0-5.2,0-7.8-0.1c-13.1-0.1-26.8-0.6-41.2-1.4
		c-11.3-0.6-23-1.4-35.2-2.5c11.2,33.4,17.6,62.9,20.6,88.8c0.2,1.9,0.6,4,0.8,5.9c0.7,0.5,1.3,1,2,1.5c14.8,11.6,29,21.3,42.4,29.3
		c22.7,13.4,43.2,21.7,60.8,25.7c2.9,0.7,5.7,1.2,8.4,1.6c2.3,0.4,4.5,0.7,6.6,0.9c4.4,0.4,8.5,0.4,12.3,0.2
		c49.3-2.9,51.7-56.8-36.5-127.5c-5.2-4.2-10.9-8.5-16.8-12.8C1043.1,1107.7,1038.8,1104.5,1034.1,1101.3z"/>
	<path fill="#FF6F49" d="M812.1,1193.8c8.5-6.7,17.2-13.9,26-21.9c-0.1-16.3,0.9-33.9,3.1-52.9c0.6-5.2,1.3-10.5,2.1-15.9
		c-9.8,2-19.3,3.8-28.7,5.5c-33.8,6-64.4,9.7-91.6,11.4c-110.2,85.9-87.5,148.3-8.4,127.1c9.4-2.5,19.6-6.2,30.5-11.2
		C765.4,1226.5,788,1212.7,812.1,1193.8z"/>
	<path fill="#FF6F49" d="M798.1,1070.6c1-0.6,2.1-1.2,3.1-1.8c5.5-3.1,10.9-6.2,16.8-9.4c-8.7-4.7-17-9.4-24.9-14
		c-1.2-0.7-2.4-1.4-3.7-2.1c-10.5-6.2-20.3-12.3-29.5-18.3c-3.8-2.5-7.6-5-11.2-7.5c-243.6,0.5-244.9,115.7-25.6,102.4
		c16.4-12.8,36-26.1,58.5-39.7C786.9,1077,792.4,1073.8,798.1,1070.6z"/>
	<path fill="#FF6F49" d="M781.1,1018.1c0.6,0,1.2,0,1.8,0.1c12.5,0.5,25.5,1.2,39,2.3c4.6,0.4,9.2,0.7,13.9,1.1
		c-6-17.8-10.6-34.6-14.1-50.3c-3.5-15.9-5.9-30.7-7.3-44.4c-4.6-3.7-9.1-7.1-13.6-10.4c-6.6-4.8-13-9.2-19.3-13.2
		c-32.8-21.2-61.7-32.1-84.2-34.9c-69.5-8.6-77.5,60.8,51.2,149.2c2.7,0,5.6,0.1,8.4,0.1C764.8,1017.6,772.8,1017.8,781.1,1018.1z"
		/>
	<path fill="#FF6F49" d="M903.4,814.8c-13.2-12.2-27.8-16.8-41.5-13.9c-13.9,3-26.8,13.8-35.8,32.2c-4.7,9.6-8.3,21.2-10.5,34.9
		c-2.7,16.6-3.3,36.2-1.1,58.8c11.7,9.3,23.8,20,36.1,31.8c12.8,12.3,25.8,25.9,39,41.1c0.6,0.7,1.1,1.2,1.7,1.9
		c18.1-20.9,35.9-39,53.2-54.6c-0.1-23.2-2.3-43.6-6.1-61.3c-4.8-22.4-12.2-40.3-21-53.9C913.1,825,908.3,819.4,903.4,814.8z"/>
	<path fill="#FF6F49" d="M980,608.2c-15.2-10-31.6-22.6-49.1-38.5c-6.2,16.5-12.8,31-19.5,43.8c33.3,129.8,111.2,115.8,76.2,4
		c-0.6-1.8-1.1-3.6-1.7-5.5C983.9,610.9,981.9,609.5,980,608.2z"/>
	<path fill="#FF6F49" d="M981.4,497.3c-2.2,2.7-4.3,5.4-6.7,8.2c-3.8,4.5-7.9,9.2-12.2,13.9c-0.6,0.7-1.2,1.3-1.8,2
		c2.1,0.8,4,1.7,6.1,2.5c13.1,5.3,24.9,10.8,35.6,16.4c1.1,0.6,2.3,1.2,3.4,1.8c28.4-6.2,49.7-14.7,64.7-23.9c1.7-1,3.2-2.1,4.7-3.1
		c36.1-24.8,27.5-53.2-16.2-55.1c-0.7,0-1.3-0.1-2-0.1c-6.3-0.2-13.4,0.3-21.1,1.3c-1.6,0.2-3.2,0.4-4.9,0.7
		c-8.9,1.4-18.6,3.6-29.2,6.8c-4.3,6.9-9.4,14.1-15,21.5C985.2,492.4,983.3,494.8,981.4,497.3z"/>
	<path fill="#FF6F49" d="M870.5,580.4c-0.1,0-0.2,0.1-0.4,0.2c-10.8,4.5-21,8.1-30.6,10.9c-3.4,5.4-6.2,10.5-8.9,15.5
		c-0.4,0.7-0.7,1.4-1.1,2c-4.3,8.4-7.5,16.3-9.9,23.5c0,0.1-0.1,0.3-0.1,0.4c-1.2,3.8-2.2,7.4-2.9,10.8c-0.2,1.1-0.5,2.3-0.7,3.4
		c-0.7,3.9-1,7.5-1.1,10.9c-0.3,20.3,10,30.9,25.8,28.4c2.6-0.4,5.3-1.2,8.1-2.3c0.5-0.2,0.9-0.4,1.4-0.6
		c7.9-3.5,16.7-9.7,25.9-19.2c0.9-0.9,1.8-1.9,2.6-2.9c10.7-11.6,21.8-27.3,32.6-47.9c-3.6-14.2-6.8-30.1-9.2-47.8
		C891.1,571.4,880.5,576.2,870.5,580.4z"/>
	<path fill="#FF6F49" d="M1005.8,542c-0.9,0.2-1.8,0.4-2.7,0.6c-5,1.1-10.3,2.1-15.8,3c-9.3,1.6-19.1,2.9-29.8,4
		c3,5.5,5.9,10.9,8.5,16.2c8.5,16.9,15,32.4,19.7,46.4c15.6,9.8,29.6,16.5,41.9,20.8c12.6,4.4,23.4,6.1,31.9,5.7
		c20.2-1.1,28.2-14.2,19.7-33C1071.1,587.4,1047.9,564.3,1005.8,542z"/>
	<path fill="#FF6F49" d="M910.7,490.2c2.1-5.6,4.3-11,6.5-16.1c2.9-6.9,5.9-13.3,8.9-19.4c1.4-2.8,2.7-5.5,4.1-8.2
		c-0.4-1.7-0.9-3.2-1.3-4.9c-23.8-87.3-68-106-80.4-71.5c-1.3,3.7-2.2,7.9-2.8,12.8c-0.9,8.2-0.6,17.9,1.1,29.3
		c1.6,10.6,4.5,22.5,9,35.7C872.4,458.4,890.9,472.3,910.7,490.2z"/>
	<path fill="#FF6F49" d="M883.9,510.5c-4.3-7.9-8.1-15.4-11.6-22.7c-3.4-7.1-6.5-14-9.2-20.6c-2.7-6.7-5.3-13.2-7.3-19.3
		c-17-10.6-32.1-17.7-45.1-21.9c-16.8-5.4-30-5.8-38.8-2.7c-27.3,9.7-13.6,53.4,63.9,94.7C850,514.9,866,512.3,883.9,510.5z"/>
	<path fill="#FF6F49" d="M933.9,462.5c2.1,9.9,4,20.4,5.5,31.8c5.8-3,11.5-5.8,17.1-8.3c3.6-1.6,7-3.1,10.4-4.5
		c5.4-2.3,10.6-4.4,15.7-6.3c6.7-2.5,13.3-4.8,19.5-6.6c9.1-14.5,15.3-27.7,19.3-39.3c4.3-12.6,5.8-23.3,5.2-32
		c-0.1-1.5-0.3-2.9-0.5-4.2c-2.2-12.9-10-19.9-21.1-19.7c-11.9,0.2-27.7,8.8-44.3,27.7c-9.6,10.9-19.5,25.2-29.1,43.2
		c-0.4,0.8-0.8,1.5-1.2,2.2C931.5,451.6,932.7,457,933.9,462.5z"/>
	<path fill="#FF6F49" d="M818.5,596.8c0.7-0.1,1.4-0.3,2.1-0.5c6-1.3,12.3-2.8,18.9-4.8c10.1-16.1,23.6-33.9,41.2-52.8
		c-17-6.7-31.9-13.6-45.1-20.6c-110.1,24.2-115.6,82.7-47.5,82.2c2.7,0,5.6-0.1,8.5-0.4C803.4,599.4,810.7,598.4,818.5,596.8z"/>
	<path fill="#7C5F47" d="M943.8,542.7c3.3-6,4.5-13.2,2.7-20.5c-4-15.5-19.8-25.3-35.4-21.9c-2.8,0.6-5.3,1.7-7.7,3
		c-3.4,1.9-6.2,4.3-8.5,7.3c-5,6.5-7.2,15.2-5,23.9c3.9,15.5,19.8,25.3,35.4,22c3.1-0.7,5.9-1.9,8.5-3.5
		C938.1,550.5,941.5,546.9,943.8,542.7z"/>
	<path fill="#FF6F49" d="M1250.2,661.5c2.3,8.9,4.2,18.8,5.7,29.9c14.5-7.4,27.6-12.7,39.2-16.1c10.6-16.9,15.1-30.9,15.3-41.2
		c0.4-13.2-6.3-19.9-16.5-18C1282.1,618.3,1265.6,632.1,1250.2,661.5z"/>
	<path fill="#FF6F49" d="M1201.6,608.6c-1.7,2.4-3,5.7-3.8,9.8c-2,10-0.7,24.8,5.8,44c1.9,1.2,3.9,2.6,5.9,3.9
		c2.4,1.6,4.8,3.4,7.3,5.2c6.7,5,13.8,10.7,21.2,17.4c3.9-10.4,8-19.4,12.2-27.4C1236.8,609.3,1211.9,594.2,1201.6,608.6z"/>
	<path fill="#FF6F49" d="M1241.3,760.1c-1,2-1.9,4.2-2.9,6.1c4.6,18,10.6,31.3,16.9,40.8c22.6,34.1,49.1,15.6,29.7-41.7
		c-10.5-6.6-22-15.3-34.4-26.5C1247.6,746.6,1244.5,753.6,1241.3,760.1z"/>
	<path fill="#FF6F49" d="M1285,765.3c66.4,41.7,89.2-3.2,12.6-43.9c-9,2-19,3.6-30.2,4.7C1275.4,740.6,1281.2,753.7,1285,765.3z"/>
	<path fill="#FF6F49" d="M1229,738c-2.7,1.3-5.3,2.6-7.9,3.8c-10,4.6-19.2,8.1-27.7,10.6c-30.7,49.1-10.8,74.4,17.7,50.4
		c1.1-0.9,2.2-1.9,3.3-3c5.5-5.3,11.2-12.2,17-21.3c2.1-3.3,4.1-6.9,6.2-10.7c0.3-0.6,0.6-1,0.9-1.6c-2.3-8.9-4.3-18.8-5.7-30
		C1231.4,736.8,1230.2,737.4,1229,738z"/>
	<path fill="#FF6F49" d="M1198.3,745c0.4-0.6,0.9-1.3,1.4-2c4.5-6.3,9.9-13,16.1-19.9c1.2-1.3,2.2-2.6,3.4-3.9
		c-1.8-0.7-3.4-1.5-5.1-2.2c-8.4-3.5-16.2-7.1-23.1-10.7c-0.5,0.1-0.9,0.3-1.4,0.4c-2.2,0.5-4.1,1.1-6.1,1.6
		c-74.6,19.5-61.2,65.3,9.9,44.1C1194.9,750,1196.5,747.5,1198.3,745z"/>
	<path fill="#FF6F49" d="M1348,674.1c-9.3-5.4-27.2-6.5-52.8,1.2c-6.3,10.1-14.8,21.2-25.8,33.1c10.6,4.2,20,8.5,28.2,12.9
		c44.7-9.8,61.6-28.6,56.7-40.6C1353.2,678.1,1351.1,675.9,1348,674.1z"/>
	<path fill="#FF6F49" d="M1191,706.3c5.8-1.3,12.3-2.3,19.1-3.3c2.9-0.4,5.9-0.8,9-1.1c0.7-0.1,1.4-0.2,2.2-0.3
		c-1.7-3-3.2-6-4.7-8.9c-5.6-11-9.9-21.2-13-30.3c-2.1-1.3-4-2.3-5.9-3.4c-9.5-5.4-18-9.1-25.3-11.1c-2.9-0.8-5.6-1.3-8.1-1.7
		c-30.2-3.9-31.2,25.2,16.9,54.4c2.6,1.6,5.2,3.1,8,4.7C1189.8,705.6,1190.3,705.9,1191,706.3z"/>
	<path fill="#7C5F47" d="M1225,716.6c1.1,4.3,3.7,7.8,7,10.3c4.2,3.2,9.7,4.7,15.2,3.5c9.8-2.1,15.7-11.7,13.2-21.4
		c-2.5-9.7-12.4-15.8-22.2-13.7c-5.7,1.2-10.1,5.1-12.2,9.9C1224.4,708.6,1223.9,712.6,1225,716.6z"/>
	<path fill="#FF6F49" d="M1247.9,401.6c-7.8-3.1-14.7-6.3-20.8-9.5c-1.7,0.4-3.1,0.8-4.6,1.2c-9,2.3-16.5,5.1-22.2,8.1
		c-27.9,14.9-16.8,35.2,21.8,26.2c2.2-0.5,4.4-1,6.8-1.7c2.2-3.4,4.7-7.1,7.6-10.8C1239.8,410.8,1243.6,406.3,1247.9,401.6z"/>
	<path fill="#FF6F49" d="M1270.6,359.3c1.7,6.6,3.2,13.7,4.3,21.9c4.9-2.5,9.6-4.6,14.1-6.5c5.2-2.2,10.2-4,14.7-5.4
		c1.1-1.7,1.9-3.3,2.8-5c19.5-35.1,1.9-51.2-20.2-28c-4.6,4.8-9.4,11.5-14.1,19.9C1271.8,357.3,1271.2,358.2,1270.6,359.3z"/>
	<path fill="#FF6F49" d="M1193.8,351.1c-5.8,6.5,0.8,21.1,24.5,35.9c2.7,1.7,5.6,3.4,8.8,5.1c6.6-1.5,14-2.7,22.2-3.5
		c-5.9-10.7-10.1-20.3-13-28.8C1214.4,346.1,1199.1,345.2,1193.8,351.1z"/>
	<path fill="#FF6F49" d="M1236.4,359.8c7.7,4.8,16.2,11.2,25.3,19.5c2.8-7.5,5.8-14.2,8.9-20c-0.7-2.7-1.5-5-2.2-7.4
		c-9.2-29.2-23.4-39.4-31.3-33.7C1230.9,322.7,1228.7,337.1,1236.4,359.8z"/>
	<path fill="#FF6F49" d="M1295.2,381.4c-2.6,3.4-5.7,6.9-8.9,10.4c-0.5,0.6-0.9,1.2-1.5,1.8c7.8,3.1,14.7,6.3,20.8,9.5
		c47.9-10.5,52.7-35,26.8-37.6c-6.1-0.6-13.8,0.1-23.1,2.3c-1.8,0.4-3.5,0.8-5.4,1.4C1301.3,373.1,1298.5,377.2,1295.2,381.4z"/>
	<path fill="#FF6F49" d="M1328.2,418.5c-4.3-3.9-9.9-7.9-16.8-12c-1.9-1.1-3.7-2.3-5.9-3.4c-6.6,1.5-13.9,2.6-22.2,3.5
		c2.3,4.2,4.2,8.1,6,12c2.8,6,5.3,11.7,7,16.9c34.3,21.6,52.7,11.6,41-6.6C1335.2,425.6,1332.2,422.1,1328.2,418.5z"/>
	<path fill="#FF6F49" d="M1271,416c-2.8,7.4-5.7,13.9-8.8,19.7c-0.1,0.1-0.1,0.2-0.2,0.3c15.6,60.7,52.4,53.3,34.2-0.5
		c-4.9-3.1-10.3-7.1-15.8-11.6C1277.4,421.4,1274.3,418.9,1271,416z"/>
	<path fill="#FF6F49" d="M1257.8,414.1c-2.1,1.1-3.9,1.8-5.9,2.7c-3.8,1.8-7.6,3.6-11.1,4.9c-4.1,1.6-8.1,3.1-11.8,4.2
		c-1.3,2-2.3,4-3.3,5.9c-2.4,4.4-4.2,8.5-5.5,12.3c-3.8,11.2-3,19.4,0.9,23.2c5.1,5,15.1,2.6,26.1-9.4c2.9-3.1,5.8-6.9,8.8-11.5
		c2.1-3.2,4.2-6.7,6.2-10.6c0-0.1,0-0.1,0-0.2C1260.4,429.2,1258.9,422.2,1257.8,414.1z"/>
	<path fill="#FF6F49" d="M1446.4,307.4c-12.9-50.3-43.2-44.2-28.3,0.3c6.4,4,13.4,9.3,20.9,16.1
		C1441.3,317.5,1443.8,312.2,1446.4,307.4z"/>
	<path fill="#FF6F49" d="M1418.1,307.6c-40.3-25.3-53.9,2-7.3,26.7c5.4-1.2,11.2-2.2,18-2.9C1423.9,322.6,1420.5,314.6,1418.1,307.6
		z"/>
	<path fill="#FF6F49" d="M1473.7,315.4c24.3-38.9-3.7-53.2-27.3-8.1c1.4,5.4,2.6,11.2,3.5,17.9
		C1458.7,320.7,1466.6,317.5,1473.7,315.4z"/>
	<path fill="#FF6F49" d="M1435.8,352.4c-8.8,4.5-16.8,7.7-23.8,9.8c-1.8,2.8-3.2,5.5-4.4,8c-15.8,32.6,9.9,41.9,31.7,0.1
		c-0.6-2.2-1.1-4.6-1.6-7C1437,359.9,1436.3,356.3,1435.8,352.4z"/>
	<path fill="#FF6F49" d="M1458,335.5c6.4,2.5,11.8,5.1,16.8,7.8c17.8-3.9,28.3-10.1,32.7-16c8.1-10.8-5-20.5-33.9-11.9
		c-2.7,4.4-6.4,9.1-10.5,14.1C1461.5,331.5,1460,333.5,1458,335.5z"/>
	<path fill="#FF6F49" d="M1456.8,346.2c2.4,4.4,4.5,8.6,6.3,12.6c1.8,3.9,3.2,7.7,4.4,11.2c33.8,21.2,48.7,5.4,25.1-14.8
		c-4.5-3.9-10.3-7.9-17.8-11.9C1469.4,344.5,1463.6,345.5,1456.8,346.2z"/>
	<path fill="#FF6F49" d="M1412,362.2c3.8-6.1,9-12.9,15.6-20.1c-4.3-1.7-8.1-3.5-11.7-5.3c-1.7-0.8-3.5-1.7-5.1-2.5
		c-13.1,2.9-22.3,7-28,11.4C1366.5,358.1,1378.9,372,1412,362.2z"/>
	<path fill="#FF6F49" d="M1446.7,353.9c-1.1,3-2.3,5.7-3.5,8.3c-1.3,2.8-2.6,5.5-3.9,8c12.9,50.2,43.2,44.2,28.2-0.3
		c-4.1-2.6-8.6-6-13.3-9.7C1451.8,358.3,1449.3,356.3,1446.7,353.9z"/>
	<path fill="#FF6F49" d="M1585.3,353c-3.2-6-5.7-11.6-7.3-16.5c-4-2.5-7.7-4.3-10.9-5.6c-6.6-2.6-11.6-2.8-14.6-1.4
		c-6.2,2.9-3.6,12.6,11.6,22.9c2.4,1.7,5.1,3.3,8.2,5c4.2-0.9,8.8-1.7,14.1-2.3C1585.9,354.4,1585.6,353.7,1585.3,353z"/>
	<path fill="#FF6F49" d="M1572.2,357.4c-39.5,8.6-33.9,32.2,0.9,21.8c3-4.8,7-10.1,12.2-15.7
		C1580.3,361.5,1576.1,359.4,1572.2,357.4z"/>
	<path fill="#FF6F49" d="M1594.5,385.4c10,39.3,33.8,34.5,22.1-0.2c-5-3.1-10.4-7.2-16.3-12.6
		C1598.4,377.6,1596.4,381.7,1594.5,385.4z"/>
	<path fill="#FF6F49" d="M1573.1,379.1c-19.1,30.4,2.9,41.6,21.3,6.3c-1.1-4.2-2.1-8.7-2.8-14C1584.8,375,1578.6,377.5,1573.1,379.1
		z"/>
	<path fill="#FF6F49" d="M1622.3,364.4c-4.2,0.9-8.8,1.8-14.1,2.3c3.8,6.9,6.5,13.1,8.4,18.6C1648,405,1658.6,383.7,1622.3,364.4z"
		/>
	<path fill="#FF6F49" d="M1602.8,350.3c6.9-3.5,13.1-6,18.6-7.7c0.6-1,1.1-1.9,1.6-2.9c15.7-28-4.9-37.4-22.6-4.1
		c-0.1,0.2-0.2,0.4-0.4,0.6C1601.1,340.5,1602,345,1602.8,350.3z"/>
	<path fill="#FF6F49" d="M1612.1,354.8c-1,1.2-1.9,2.3-3,3.5c5,2,9.3,4,13.2,6.1c7.9-1.7,13.9-4.1,18.3-6.6
		c7.1-4.1,9.9-8.6,8.8-12.1c-1.3-4.4-8.7-7.1-21.2-4.7c-2.2,0.4-4.5,0.9-6.9,1.7C1619,346.4,1615.8,350.5,1612.1,354.8z"/>
	<path fill="#FF6F49" d="M1594.2,349.1c1.8-4.9,3.8-9,5.8-12.8c-0.1-0.3-0.2-0.5-0.2-0.7c-9.7-36.7-31.3-33.8-23.1-3.4
		c0.4,1.4,0.8,2.8,1.3,4.4C1582.9,339.6,1588.3,343.8,1594.2,349.1z"/>
	<path fill="#FF6F49" d="M514.2,1249.9c-19.8-50.2-97.5-219.5-228.8-177c-135,43.7,120.5,171.5,184.4,201.7
		c0.1-6.8,2.5-13.7,7.4-19.2C486.8,1244.8,502.3,1242.8,514.2,1249.9z"/>
	<path fill="#FF6F49" d="M475,1312.8c44.3-49.2-201.7,224-25.7,204.4c0,0,79.4-18.5,71.7-222.5c0,0,0,0.1-0.1,0.1
		c-10.9,12.1-29.4,13-41.5,2.2c-6.1-5.5-9.3-13-9.7-20.6c-51-16.4-223.9-64.9-218.8,32.6C256.9,1423.2,430.7,1362,475,1312.8z"/>
	<path fill="#7C5F47" d="M479.4,1296.9c12.1,10.9,30.7,9.9,41.5-2.2c0,0,0-0.1,0.1-0.1c10.8-12.1,9.8-30.6-2.3-41.4
		c-1.4-1.3-3-2.4-4.6-3.3c-11.8-7.1-27.4-5.1-37,5.5c-4.9,5.5-7.3,12.3-7.4,19.2c0,0.6-0.1,1.2-0.1,1.8
		C470,1284,473.3,1291.5,479.4,1296.9z"/>
	<path fill="#FF6F49" d="M873,1664.9c0,0-3-58.9-153.3-63.5c0,0,0,0,0,0c7.4,8.6,5.7,22.2-3.9,30.4c-4.8,4.2-10.7,6.2-16.3,6
		c-18.7,36.4-77.2,160.2-5.2,161.3c84.4,1.3,62.7-128.6,32.5-163.4C696.7,1601.1,864,1794.4,873,1664.9z"/>
	<path fill="#FF6F49" d="M686,1604.2c-39.3,12-173.6,60.2-159.9,158.2c14.1,100.8,141.5-79.5,172.1-124.6c-5-0.4-9.7-2.5-13.1-6.4
		C678.6,1623.9,679.2,1612.5,686,1604.2z"/>
	<path fill="#7C5F47" d="M715.9,1631.9c9.5-8.3,11.3-21.9,3.9-30.4c0,0,0,0,0,0c-7.4-8.5-21.1-8.7-30.6-0.4c-1.1,1-2.2,2.1-3.1,3.2
		c-6.8,8.3-7.4,19.7-0.9,27.3c3.4,3.9,8.1,6,13.1,6.4c0.4,0,0.9,0.1,1.3,0.1C705.1,1638.1,711,1636.1,715.9,1631.9z"/>
</g>
</svg>
