<?xml version="1.0" encoding="utf-8"?>
<!-- Generator: Adobe Illustrator 18.1.0, SVG Export Plug-In . SVG Version: 6.00 Build 0)  -->
<svg version="1.1" id="Layer_1" xmlns="http://www.w3.org/2000/svg" xmlns:xlink="http://www.w3.org/1999/xlink" x="0px" y="0px"
	 viewBox="0 0 1000 1000" enable-background="new 0 0 1000 1000" xml:space="preserve">
<g>
	<path fill="none" d="M460.6,733.2c-8.3,0-15,6.7-15,15c0,8.3,6.7,15,15,15c8.3,0,15-6.7,15-15C475.6,739.9,468.9,733.2,460.6,733.2
		z"/>
	<path fill="none" d="M407.6,770.3c-1.5,0-2.7,1.2-2.7,2.6c0,1.5,1.2,2.7,2.7,2.7c1.5,0,2.6-1.2,2.6-2.7
		C410.3,771.5,409.1,770.3,407.6,770.3z"/>
	<path fill="none" d="M377.6,757.9c-3.4,0-6.2,2.8-6.2,6.2c0,3.4,2.8,6.2,6.2,6.2c3.4,0,6.2-2.8,6.2-6.2
		C383.8,760.7,381.1,757.9,377.6,757.9z"/>
	<path fill="none" d="M174.7,826.7c-2.4,0-4.4,2-4.4,4.4c0,2.4,2,4.4,4.4,4.4s4.4-2,4.4-4.4C179.1,828.7,177.2,826.7,174.7,826.7z"
		/>
	<path fill="none" d="M325.6,879.7c-5.8,0-10.6,4.7-10.6,10.6c0,5.8,4.7,10.6,10.6,10.6c5.8,0,10.6-4.7,10.6-10.6
		C336.2,884.4,331.4,879.7,325.6,879.7z"/>
	<path fill="none" d="M225,853.2c-3.9,0-7.1,3.2-7.1,7.1c0,3.9,3.2,7.1,7.1,7.1c3.9,0,7.1-3.2,7.1-7.1
		C232.1,856.4,228.9,853.2,225,853.2z"/>
	<path fill="none" d="M188.8,738.5c-4.4,0-7.9,3.6-7.9,7.9c0,4.4,3.6,7.9,7.9,7.9c4.4,0,7.9-3.6,7.9-7.9
		C196.8,742.1,193.2,738.5,188.8,738.5z"/>
	<path fill="none" d="M144.7,717.3c-5.4,0-9.7,4.3-9.7,9.7c0,5.4,4.3,9.7,9.7,9.7c5.4,0,9.7-4.3,9.7-9.7
		C154.4,721.7,150.1,717.3,144.7,717.3z"/>
	<path fill="none" d="M362.6,865.6c-4.9,0-8.8,4-8.8,8.8c0,4.9,3.9,8.8,8.8,8.8c4.9,0,8.8-4,8.8-8.8
		C371.5,869.5,367.5,865.6,362.6,865.6z"/>
	<path fill="none" d="M217.1,759.7c-4.4,0-7.9,3.6-7.9,7.9c0,4.4,3.6,7.9,7.9,7.9c4.4,0,7.9-3.6,7.9-7.9
		C225,763.2,221.5,759.7,217.1,759.7z"/>
	<path fill="none" d="M321.2,752.6c-1.5,0-2.6,1.2-2.6,2.7c0,1.5,1.2,2.6,2.6,2.6c1.5,0,2.7-1.2,2.7-2.6
		C323.8,753.8,322.6,752.6,321.2,752.6z"/>
	<path fill="none" d="M255.9,752.6c-6.3,0-11.5,5.1-11.5,11.5c0,6.3,5.1,11.5,11.5,11.5c6.3,0,11.5-5.1,11.5-11.5
		C267.4,757.8,262.2,752.6,255.9,752.6z"/>
	<path fill="none" d="M258.5,856.7c-3.9,0-7.1,3.2-7.1,7.1c0,3.9,3.2,7.1,7.1,7.1c3.9,0,7.1-3.2,7.1-7.1
		C265.6,859.9,262.4,856.7,258.5,856.7z"/>
	<path fill="none" d="M742.2,142.7c3.9,0,7-3.2,7-7.1c0-3.9-3.1-7.1-7-7.1c-3.9,0-7.1,3.2-7.1,7.1
		C735.2,139.6,738.3,142.7,742.2,142.7z"/>
	<path fill="none" d="M775.7,146.3c3.9,0,7.1-3.2,7.1-7.1c0-3.9-3.2-7-7.1-7c-3.9,0-7,3.1-7,7C768.7,143.1,771.8,146.3,775.7,146.3z
		"/>
	<path fill="none" d="M540.2,266.2c8.3,0,15-6.7,15-15c0-8.3-6.7-15-15-15c-8.3,0-15,6.7-15,15C525.2,259.5,531.9,266.2,540.2,266.2
		z"/>
	<path fill="none" d="M675.2,119.8c5.8,0,10.6-4.7,10.6-10.6c0-5.8-4.7-10.6-10.6-10.6c-5.8,0-10.6,4.7-10.6,10.6
		C664.6,115,669.3,119.8,675.2,119.8z"/>
	<path fill="none" d="M638.1,133.9c4.9,0,8.8-4,8.8-8.8c0-4.9-3.9-8.8-8.8-8.8c-4.9,0-8.8,3.9-8.8,8.8
		C629.3,129.9,633.2,133.9,638.1,133.9z"/>
	<path fill="none" d="M593.1,229.2c1.5,0,2.7-1.2,2.7-2.6c0-1.5-1.2-2.6-2.7-2.6c-1.5,0-2.6,1.2-2.6,2.6
		C590.5,228,591.7,229.2,593.1,229.2z"/>
	<path fill="none" d="M826,172.7c2.4,0,4.4-2,4.4-4.4c0-2.4-2-4.4-4.4-4.4c-2.4,0-4.4,2-4.4,4.4C821.6,170.7,823.6,172.7,826,172.7z
		"/>
	<path fill="none" d="M783.7,239.8c4.4,0,7.9-3.6,7.9-7.9c0-4.4-3.6-7.9-7.9-7.9c-4.4,0-7.9,3.5-7.9,7.9
		C775.7,236.2,779.3,239.8,783.7,239.8z"/>
	<path fill="none" d="M856,282.1c5.4,0,9.7-4.3,9.7-9.7c0-5.4-4.3-9.7-9.7-9.7s-9.7,4.3-9.7,9.7C846.3,277.8,850.7,282.1,856,282.1z
		"/>
	<path fill="none" d="M811.9,260.9c4.4,0,7.9-3.6,7.9-7.9c0-4.4-3.6-7.9-7.9-7.9c-4.4,0-7.9,3.6-7.9,7.9
		C804,257.4,807.5,260.9,811.9,260.9z"/>
	<path fill="none" d="M623.1,241.5c3.4,0,6.2-2.8,6.2-6.2c0-3.4-2.8-6.2-6.2-6.2c-3.4,0-6.2,2.8-6.2,6.2
		C616.9,238.8,619.7,241.5,623.1,241.5z"/>
	<path fill="none" d="M744.9,246.8c6.3,0,11.5-5.1,11.5-11.5c0-6.3-5.1-11.5-11.5-11.5c-6.3,0-11.5,5.1-11.5,11.5
		C733.4,241.7,738.5,246.8,744.9,246.8z"/>
	<path fill="none" d="M679.6,246.8c1.5,0,2.6-1.2,2.6-2.7c0-1.5-1.2-2.6-2.6-2.6c-1.5,0-2.6,1.2-2.6,2.6
		C676.9,245.6,678.1,246.8,679.6,246.8z"/>
	<path fill="#00A9DE" d="M954.3,496.7c-0.1-1-0.2-1.9-0.4-2.9c-20.4-124.3-193.5-199.3-386.6-167.6
		c-148.1,24.3-264.9,104.4-302.1,196.4c27.3-88.6,115-178.7,237.6-232c31.3-13.6,62.7-23.8,93.6-31c-0.4-0.9-0.6-1.9-0.6-3
		c0-4.4,3.6-7.9,7.9-7.9c4.3,0,7.8,3.4,7.9,7.7c134.4-26.7,255.9,6.9,301.3,90.3c-2-11.9-5.4-23.5-10.3-34.7
		c-1.6-3.7-3.3-7.3-5.2-10.8c-0.3,3.1-2.9,5.6-6.1,5.6c-3.4,0-6.2-2.8-6.2-6.2c0-3.4,2.8-6.2,6.2-6.2c0.9,0,1.7,0.2,2.4,0.5
		c-35-58.5-108.6-91.1-197.4-93.9c2.2,2.6,3.6,5.9,3.6,9.6c0,8.3-6.7,15-15,15c-8.3,0-15-6.7-15-15c0-3.7,1.4-7,3.6-9.7
		c-58.9,1.5-123.2,15.4-186.8,43.1C360,299.1,270.6,393.5,246.6,484.9c14.1-90.3,84.3-190.9,193.3-262.7
		c45.4-29.9,92.8-51.7,139-65.2c-4.7-3.4-7.8-8.9-7.8-15.1c0-10.2,8.3-18.5,18.5-18.5c10.2,0,18.5,8.3,18.5,18.5
		c0,2.9-0.7,5.5-1.9,8c32.6-7.4,64.2-10.5,93.8-9.5c-0.1-0.7-0.2-1.3-0.2-2c0-5.4,4.3-9.7,9.7-9.7c5.4,0,9.7,4.3,9.7,9.7
		c0,1.1-0.2,2.2-0.6,3.2c56.6,5.5,104.5,27.3,134.8,65.5c-4-11.3-9.4-22.2-16.1-32.4c-23.2-35.3-59.9-58.4-104.5-69.6
		c0.3,0.8,0.5,1.6,0.5,2.4c0,3.9-3.2,7-7.1,7c-3.9,0-7.1-3.1-7.1-7c0-2,0.8-3.7,2.1-5C634.2,85,520,110.6,416,179.2
		C255.5,285,179.1,453.4,242.2,559c2,12.2,5.4,24.1,10.4,35.5c0.1,0.3,0.3,0.6,0.4,0.8c0.3,4.4,0.8,8.8,1.5,13.2
		c0.7,4.3,1.7,8.6,2.7,12.9c8.7-111.8,139.8-217.7,314.2-246.4c108.1-17.8,209.8-2,282.1,37.1c-18.8,17.1-22,56.6-6,96
		c18.4,45.5,55.4,73.4,82.6,62.4C951.7,561.8,960.5,531.4,954.3,496.7z M856,262.7c5.4,0,9.7,4.3,9.7,9.7c0,5.4-4.3,9.7-9.7,9.7
		s-9.7-4.3-9.7-9.7C846.3,267.1,850.7,262.7,856,262.7z M811.9,245.1c4.4,0,7.9,3.6,7.9,7.9c0,4.4-3.6,7.9-7.9,7.9
		c-4.4,0-7.9-3.6-7.9-7.9C804,248.6,807.5,245.1,811.9,245.1z M783.7,223.9c4.4,0,7.9,3.5,7.9,7.9c0,4.4-3.6,7.9-7.9,7.9
		c-4.4,0-7.9-3.6-7.9-7.9C775.7,227.4,779.3,223.9,783.7,223.9z M744.9,223.9c6.3,0,11.5,5.1,11.5,11.5c0,6.3-5.1,11.5-11.5,11.5
		c-6.3,0-11.5-5.1-11.5-11.5C733.4,229,738.5,223.9,744.9,223.9z M679.6,241.5c1.5,0,2.6,1.2,2.6,2.6c0,1.5-1.2,2.7-2.6,2.7
		c-1.5,0-2.6-1.2-2.6-2.7C676.9,242.7,678.1,241.5,679.6,241.5z M623.1,229.2c3.4,0,6.2,2.8,6.2,6.2c0,3.4-2.8,6.2-6.2,6.2
		c-3.4,0-6.2-2.8-6.2-6.2C616.9,232,619.7,229.2,623.1,229.2z M593.1,223.9c1.5,0,2.7,1.2,2.7,2.6c0,1.5-1.2,2.6-2.7,2.6
		c-1.5,0-2.6-1.2-2.6-2.6C590.5,225.1,591.7,223.9,593.1,223.9z M540.2,236.2c8.3,0,15,6.7,15,15c0,8.3-6.7,15-15,15
		c-8.3,0-15-6.7-15-15C525.2,243,531.9,236.2,540.2,236.2z M826,163.9c2.4,0,4.4,2,4.4,4.4c0,2.4-2,4.4-4.4,4.4
		c-2.4,0-4.4-2-4.4-4.4C821.6,165.9,823.6,163.9,826,163.9z M775.7,132.1c3.9,0,7.1,3.1,7.1,7c0,3.9-3.2,7.1-7.1,7.1
		c-3.9,0-7-3.2-7-7.1C768.7,135.3,771.8,132.1,775.7,132.1z M742.2,128.6c3.9,0,7,3.2,7,7.1c0,3.9-3.1,7.1-7,7.1
		c-3.9,0-7.1-3.2-7.1-7.1C735.2,131.8,738.3,128.6,742.2,128.6z M675.2,98.6c5.8,0,10.6,4.7,10.6,10.6c0,5.8-4.7,10.6-10.6,10.6
		c-5.8,0-10.6-4.7-10.6-10.6C664.6,103.3,669.3,98.6,675.2,98.6z M638.1,116.3c4.9,0,8.8,3.9,8.8,8.8c0,4.9-3.9,8.8-8.8,8.8
		c-4.9,0-8.8-4-8.8-8.8C629.3,120.2,633.2,116.3,638.1,116.3z"/>
	<path fill="#EC5A4F" d="M748.1,405c-0.1-0.3-0.3-0.6-0.4-0.8c-0.3-4.4-0.8-8.8-1.5-13.2c-0.7-4.3-1.7-8.6-2.7-12.8
		c-8.7,111.8-139.8,217.7-314.2,246.4c-108.1,17.8-209.8,2-282.1-37.1c18.8-17.1,22-56.6,6-96c-18.4-45.5-55.4-73.4-82.6-62.4
		c-21.5,8.7-30.3,39.1-24.1,73.8c0.1,1,0.2,2,0.4,2.9C67.3,630,240.4,705.1,433.5,673.4C581.6,649.1,698.3,569,735.6,476.9
		c-27.3,88.6-115,178.7-237.6,232c-31.2,13.6-62.7,23.8-93.6,31c0.4,0.9,0.6,1.9,0.6,3c0,4.4-3.6,7.9-7.9,7.9
		c-4.3,0-7.8-3.4-7.9-7.7c-134.4,26.7-255.9-6.9-301.3-90.3c2,11.8,5.4,23.4,10.3,34.6c1.6,3.7,3.3,7.3,5.2,10.7
		c0.3-3.1,2.9-5.6,6.1-5.6c3.4,0,6.2,2.8,6.2,6.2c0,3.4-2.8,6.2-6.2,6.2c-0.9,0-1.7-0.2-2.4-0.5c35,58.5,108.6,91.1,197.4,93.9
		c-2.2-2.6-3.6-5.9-3.6-9.6c0-8.3,6.7-15,15-15c8.3,0,15,6.7,15,15c0,3.7-1.4,7-3.6,9.7c58.9-1.5,123.2-15.4,186.8-43.1
		c126.7-55.1,216.1-149.5,240.1-240.8c-14.1,90.3-84.3,190.9-193.3,262.7c-45.4,29.9-92.8,51.7-139,65.2c4.7,3.4,7.9,8.8,7.9,15.1
		c0,10.2-8.3,18.5-18.5,18.5c-10.2,0-18.5-8.3-18.5-18.5c0-2.9,0.7-5.5,1.9-8c-32.6,7.3-64.2,10.5-93.8,9.5c0.1,0.6,0.2,1.3,0.2,2
		c0,5.4-4.3,9.7-9.7,9.7c-5.4,0-9.7-4.3-9.7-9.7c0-1.1,0.2-2.2,0.6-3.2c-56.6-5.5-104.5-27.3-134.8-65.5c4,11.3,9.4,22.2,16.1,32.4
		c23.2,35.3,59.9,58.4,104.5,69.6c-0.3-0.8-0.5-1.6-0.5-2.4c0-3.9,3.2-7,7.1-7c3.9,0,7.1,3.1,7.1,7c0,2-0.8,3.7-2.1,5
		c87.2,17.5,201.3-8.2,305.3-76.7c160.6-105.8,236.9-274.2,173.8-379.8C756.5,428.3,753.1,416.4,748.1,405z M144.7,736.8
		c-5.4,0-9.7-4.3-9.7-9.7c0-5.4,4.3-9.7,9.7-9.7c5.4,0,9.7,4.3,9.7,9.7C154.4,732.4,150.1,736.8,144.7,736.8z M188.8,754.4
		c-4.4,0-7.9-3.6-7.9-7.9c0-4.4,3.6-7.9,7.9-7.9c4.4,0,7.9,3.6,7.9,7.9C196.8,750.8,193.2,754.4,188.8,754.4z M217.1,775.6
		c-4.4,0-7.9-3.6-7.9-7.9c0-4.4,3.6-7.9,7.9-7.9c4.4,0,7.9,3.6,7.9,7.9C225,772,221.5,775.6,217.1,775.6z M255.9,775.6
		c-6.3,0-11.5-5.1-11.5-11.5c0-6.3,5.1-11.5,11.5-11.5c6.3,0,11.5,5.1,11.5,11.5C267.4,770.4,262.2,775.6,255.9,775.6z M321.2,757.9
		c-1.5,0-2.6-1.2-2.6-2.6c0-1.5,1.2-2.7,2.6-2.7c1.5,0,2.7,1.2,2.7,2.7C323.8,756.7,322.6,757.9,321.2,757.9z M377.6,770.3
		c-3.4,0-6.2-2.8-6.2-6.2c0-3.4,2.8-6.2,6.2-6.2c3.4,0,6.2,2.8,6.2,6.2C383.8,767.5,381.1,770.3,377.6,770.3z M407.6,775.6
		c-1.5,0-2.7-1.2-2.7-2.7c0-1.5,1.2-2.6,2.7-2.6c1.5,0,2.6,1.2,2.6,2.6C410.3,774.4,409.1,775.6,407.6,775.6z M460.6,763.2
		c-8.3,0-15-6.7-15-15c0-8.3,6.7-15,15-15c8.3,0,15,6.7,15,15C475.6,756.5,468.9,763.2,460.6,763.2z M174.7,835.6
		c-2.4,0-4.4-2-4.4-4.4c0-2.4,2-4.4,4.4-4.4s4.4,2,4.4,4.4C179.1,833.6,177.2,835.6,174.7,835.6z M225,867.3c-3.9,0-7.1-3.2-7.1-7.1
		c0-3.9,3.2-7.1,7.1-7.1c3.9,0,7.1,3.2,7.1,7.1C232.1,864.2,228.9,867.3,225,867.3z M258.5,870.9c-3.9,0-7.1-3.2-7.1-7.1
		c0-3.9,3.2-7.1,7.1-7.1c3.9,0,7.1,3.2,7.1,7.1C265.6,867.7,262.4,870.9,258.5,870.9z M325.6,900.9c-5.8,0-10.6-4.7-10.6-10.6
		c0-5.8,4.7-10.6,10.6-10.6c5.8,0,10.6,4.7,10.6,10.6C336.2,896.1,331.4,900.9,325.6,900.9z M362.6,883.2c-4.9,0-8.8-4-8.8-8.8
		c0-4.9,3.9-8.8,8.8-8.8c4.9,0,8.8,4,8.8,8.8C371.5,879.3,367.5,883.2,362.6,883.2z"/>
</g>
</svg>
