<?xml version="1.0" encoding="utf-8"?>
<!-- Generator: Adobe Illustrator 18.1.0, SVG Export Plug-In . SVG Version: 6.00 Build 0)  -->
<svg version="1.1" id="Layer_1" xmlns="http://www.w3.org/2000/svg" xmlns:xlink="http://www.w3.org/1999/xlink" x="0px" y="0px"
	 viewBox="0 0 150 150" enable-background="new 0 0 150 150" xml:space="preserve">
<g>
	<path fill="none" d="M67.1,138.8c12.4,0,24-0.6,32.8-1.7c12.8-1.6,13.2-3.5,13.2-3.7c0-0.2-0.4-2.1-13.2-3.7
		c-8.8-1.1-20.4-1.7-32.8-1.7c-25.8,0-41.6,2.4-45.2,4.5l-0.7,1.2C22.9,135.9,39.1,138.8,67.1,138.8z M57.1,129.7
		c5.4-0.7,12.6-1.1,20.2-1.1c7.6,0,14.8,0.4,20.2,1.1c8.7,1.1,8.7,2.5,8.7,3c0,0.5,0,1.9-8.7,3c-5.4,0.7-12.6,1.1-20.2,1.1
		c-10,0-28.9-0.8-28.9-4C48.4,132.1,48.4,130.8,57.1,129.7z"/>
	<path fill="none" d="M77.3,135.8c7.6,0,14.7-0.4,20.1-1c7.6-1,7.9-2.1,7.9-2.1c0,0-0.3-1.1-7.9-2.1c-5.4-0.7-12.5-1-20.1-1
		c-7.6,0-14.7,0.4-20.1,1c-7.6,1-7.9,2.1-7.9,2.1C49.3,133.7,58.9,135.8,77.3,135.8z"/>
	<path fill="#8E9092" d="M20.2,133.4c0,0.3,0.1,0.6,0.3,0.8l1.4-2.6C20.8,132.1,20.2,132.7,20.2,133.4z"/>
	<path fill="#8E9092" d="M67.1,128c12.4,0,24,0.6,32.8,1.7c12.8,1.6,13.2,3.5,13.2,3.7c0,0.2-0.4,2.1-13.2,3.7
		c-8.8,1.1-20.4,1.7-32.8,1.7c-28.1,0-44.2-2.9-45.8-5l-0.4,0.8c4,3.4,25.7,5.2,46.2,5.2c12.4,0,24.1-0.6,32.9-1.7
		c14-1.8,14-3.9,14-4.6c0-0.7,0-2.8-14-4.6c-8.8-1.1-20.5-1.7-32.9-1.7c-18.5,0-38,1.5-44.5,4.2l-0.6,1.2
		C25.5,130.4,41.3,128,67.1,128z"/>
	<path d="M77.3,136.7c7.6,0,14.8-0.4,20.2-1.1c8.7-1.1,8.7-2.5,8.7-3c0-0.5,0-1.9-8.7-3c-5.4-0.7-12.6-1.1-20.2-1.1
		c-7.6,0-14.8,0.4-20.2,1.1c-8.7,1.1-8.7,2.5-8.7,3C48.4,135.9,67.3,136.7,77.3,136.7z M57.2,130.6c5.4-0.7,12.5-1,20.1-1
		c7.6,0,14.7,0.4,20.1,1c7.6,1,7.9,2.1,7.9,2.1c0,0-0.3,1.1-7.9,2.1c-5.4,0.7-12.5,1-20.1,1c-18.4,0-28-2-28-3.1
		C49.3,132.6,49.6,131.5,57.2,130.6z"/>
	<path fill="#FFFFFF" d="M83.5,32.3c0-3-2.4-5.5-5.5-5.5c-3,0-5.5,2.4-5.5,5.5s2.4,5.5,5.5,5.5C81.1,37.8,83.5,35.3,83.5,32.3z
		 M78,35c-1.5,0-2.7-1.2-2.7-2.7c0-1.5,1.2-2.7,2.7-2.7c1.5,0,2.7,1.2,2.7,2.7C80.8,33.8,79.6,35,78,35z"/>
	<circle fill="#7A7C7F" cx="78" cy="32.3" r="2.7"/>
	<path fill="#7A7C7F" d="M78,20.5c1.5,0,3-1.2,3-2.7v-5.5c0-1.5-1.5-2.7-3-2.7c-1.5,0-3,1.2-3,2.7v5.5C75,19.2,76.5,20.5,78,20.5z"
		/>
	<path fill="#7A7C7F" d="M134.3,135.7l-9.2-17.4l1.1-0.6l-4.8-9.2c0.4-0.7,0.5-1.5,0.1-2.2L85.9,38.5c1.3-1.7,2.2-3.9,2.2-6.2
		c0-5.5-4.5-10-10-10s-10,4.5-10,10c0,1.6,0.4,3.2,1.1,4.5L33,105.4c-0.4,0.7-0.3,1.6,0.1,2.2l-4.8,9.2l1.1,0.6L22,131.5l-1.4,2.6
		l-0.3,0.6l0.4,0.2l0.3-0.5l0.4-0.8l0.7-1.2l0.6-1.2l7.2-13.7l1.1,0.6l4.8-9.2c0.8,0,1.5-0.5,1.9-1.2l35.2-66.9
		c1.5,0.9,3.3,1.5,5.2,1.5c1.3,0,2.5-0.2,3.6-0.7l35.3,67.1c0.4,0.7,1.1,1.1,1.9,1.2l4.8,9.2l1.1-0.6l9.2,17.4L134.3,135.7z
		 M72.6,32.3c0-3,2.4-5.5,5.5-5.5c3,0,5.5,2.4,5.5,5.5s-2.4,5.5-5.5,5.5C75,37.8,72.6,35.3,72.6,32.3z"/>
	<path fill="#7A7C7F" d="M113.1,89.6c0.7,1.3,2.4,1.8,3.7,1.1c1.3-0.7,1.8-2.4,1.1-3.7l-5.3-9.7c-0.7-1.3-2.4-1.8-3.7-1.1
		c-1.3,0.7-1.8,2.4-1.1,3.7L113.1,89.6z"/>
</g>
</svg>
