<?xml version="1.0" encoding="utf-8"?>
<!-- Generator: Adobe Illustrator 18.1.0, SVG Export Plug-In . SVG Version: 6.00 Build 0)  -->
<svg version="1.0" id="Layer_1" xmlns="http://www.w3.org/2000/svg" xmlns:xlink="http://www.w3.org/1999/xlink" x="0px" y="0px"
	 viewBox="0 0 150 150" enable-background="new 0 0 150 150" xml:space="preserve">
<g>
	<g>
		<path opacity="0.5" fill="#19BAED" d="M47.8,42.5c-1.6,0-3.1,0.8-4,1.9c2.7-0.8,5.5-1.4,8.4-1.9H47.8z"/>
		<path opacity="0.5" fill="#D1DD27" d="M47.8,42.5c-1.6,0-3.1,0.8-4,1.9c2.7-0.8,5.5-1.4,8.4-1.9H47.8z"/>
		<path opacity="0.5" fill="#19BAED" d="M84.3,42.9c0-0.1,0.1-0.3,0.1-0.4h-1.8C83.2,42.6,83.8,42.8,84.3,42.9z"/>
		<path opacity="0.5" fill="#D1DD27" d="M84.3,42.9c0-0.1,0.1-0.3,0.1-0.4h-1.8C83.2,42.6,83.8,42.8,84.3,42.9z"/>
		<path fill="none" d="M118.8,60.6v-1c-0.1,0.3-0.2,0.5-0.3,0.8C118.6,60.5,118.7,60.5,118.8,60.6z"/>
		<path opacity="0.5" fill="#19BAED" d="M108.2,79.4v23.4c0,0.8-0.2,1.5-0.5,2.2c2.1,3.1,4,6.3,5.8,9.6c3.2-2.9,5.3-7.1,5.3-11.8
			V60.6c-0.1-0.1-0.2-0.2-0.3-0.2C115.5,66.9,112.2,73.4,108.2,79.4z"/>
		<path opacity="0.5" fill="#19BAED" d="M103,108H72.6c-2.4,0.9-4.8,1.8-7.3,2.5c2.4,2.5,4.7,5.2,6.8,8.1H103c4,0,7.7-1.5,10.5-4
			c-1.8-3.3-3.7-6.5-5.8-9.6C106.9,106.8,105.1,108,103,108z"/>
		<path opacity="0.5" fill="#19BAED" d="M103,108H72.6c-2.4,0.9-4.8,1.8-7.3,2.5c2.4,2.5,4.7,5.2,6.8,8.1H103c4,0,7.7-1.5,10.5-4
			c-1.8-3.3-3.7-6.5-5.8-9.6C106.9,106.8,105.1,108,103,108z"/>
		<path opacity="0.5" fill="#2F368F" d="M36.8,114.1c2.9,2.8,6.7,4.5,11,4.5h24.3c-2.2-2.9-4.4-5.6-6.8-8.1
			C55.5,113.5,45.8,114.7,36.8,114.1z"/>
		<path opacity="0.5" fill="#19BAED" d="M36.8,114.1c2.9,2.8,6.7,4.5,11,4.5h24.3c-2.2-2.9-4.4-5.6-6.8-8.1
			C55.5,113.5,45.8,114.7,36.8,114.1z"/>
		<path opacity="0.5" fill="#19BAED" d="M36.8,114.1c2.9,2.8,6.7,4.5,11,4.5h24.3c-2.2-2.9-4.4-5.6-6.8-8.1
			C55.5,113.5,45.8,114.7,36.8,114.1z"/>
		<path opacity="0.5" fill="#19BAED" d="M103,31.9H86.4c-0.4,3.6-1.1,7.2-2,10.6H103c2.9,0,5.2,2.3,5.2,5.2v5.8
			c3.5,2.1,7,4.5,10.3,6.8c0.1-0.3,0.2-0.5,0.3-0.8V47.7C118.8,39,111.7,31.9,103,31.9z"/>
		<path opacity="0.5" fill="#19BAED" d="M118.5,60.4c-3.3-2.4-6.7-4.7-10.3-6.8v25.9C112.2,73.4,115.5,66.9,118.5,60.4z"/>
		<path opacity="0.5" fill="#19BAED" d="M118.5,60.4c-3.3-2.4-6.7-4.7-10.3-6.8v25.9C112.2,73.4,115.5,66.9,118.5,60.4z"/>
		<path opacity="0.5" fill="#19BAED" d="M42.6,93.3v-1.4c-0.5,0.2-1,0.5-1.4,0.7C41.7,92.8,42.2,93,42.6,93.3z"/>
		<path opacity="0.5" fill="#19BAED" d="M42.6,93.3v-1.4c-0.5,0.2-1,0.5-1.4,0.7C41.7,92.8,42.2,93,42.6,93.3z"/>
		<path opacity="0.5" fill="#19BAED" d="M42.6,93.3v-1.4c-0.5,0.2-1,0.5-1.4,0.7C41.7,92.8,42.2,93,42.6,93.3z"/>
		<path opacity="0.5" fill="#19BAED" d="M65.3,110.5c2.4-0.7,4.8-1.6,7.3-2.5h-9.7C63.7,108.8,64.5,109.7,65.3,110.5z"/>
		<path opacity="0.5" fill="#19BAED" d="M65.3,110.5c2.4-0.7,4.8-1.6,7.3-2.5h-9.7C63.7,108.8,64.5,109.7,65.3,110.5z"/>
		<path opacity="0.5" fill="#19BAED" d="M65.3,110.5c2.4-0.7,4.8-1.6,7.3-2.5h-9.7C63.7,108.8,64.5,109.7,65.3,110.5z"/>
		<path opacity="0.5" fill="#2F368F" d="M62.9,108h-15c-2.9,0-5.2-2.3-5.2-5.2v-9.5c-0.5-0.2-1-0.5-1.4-0.7c-3,1.4-6.1,2.6-9.2,3.5
			v6.7c0,4.4,1.8,8.4,4.8,11.3c9,0.5,18.7-0.6,28.5-3.6C64.5,109.7,63.7,108.8,62.9,108z"/>
		<path opacity="0.5" fill="#19BAED" d="M62.9,108h-15c-2.9,0-5.2-2.3-5.2-5.2v-9.5c-0.5-0.2-1-0.5-1.4-0.7c-3,1.4-6.1,2.6-9.2,3.5
			v6.7c0,4.4,1.8,8.4,4.8,11.3c9,0.5,18.7-0.6,28.5-3.6C64.5,109.7,63.7,108.8,62.9,108z"/>
		<path opacity="0.5" fill="#19BAED" d="M62.9,108h-15c-2.9,0-5.2-2.3-5.2-5.2v-9.5c-0.5-0.2-1-0.5-1.4-0.7c-3,1.4-6.1,2.6-9.2,3.5
			v6.7c0,4.4,1.8,8.4,4.8,11.3c9,0.5,18.7-0.6,28.5-3.6C64.5,109.7,63.7,108.8,62.9,108z"/>
		<path opacity="0.5" fill="#19BAED" d="M62.9,108h-15c-2.9,0-5.2-2.3-5.2-5.2v-9.5c-0.5-0.2-1-0.5-1.4-0.7c-3,1.4-6.1,2.6-9.2,3.5
			v6.7c0,4.4,1.8,8.4,4.8,11.3c9,0.5,18.7-0.6,28.5-3.6C64.5,109.7,63.7,108.8,62.9,108z"/>
		<path opacity="0.5" fill="#19BAED" d="M47.8,42.5h4.4c5.7-1,11.7-1.6,17.9-1.6c4.2,0,8.4,0.6,12.5,1.6h1.8c0.9-3.4,1.5-7,2-10.6
			H47.8C39.1,31.9,32,39,32,47.7v0.9c3.7-1.6,7.7-3,11.8-4.2C44.8,43.2,46.2,42.5,47.8,42.5z"/>
		<path opacity="0.5" fill="#D1DD27" d="M47.8,42.5h4.4c5.7-1,11.7-1.6,17.9-1.6c4.2,0,8.4,0.6,12.5,1.6h1.8c0.9-3.4,1.5-7,2-10.6
			H47.8C39.1,31.9,32,39,32,47.7v0.9c3.7-1.6,7.7-3,11.8-4.2C44.8,43.2,46.2,42.5,47.8,42.5z"/>
		<path opacity="0.5" fill="#19BAED" d="M42.6,70.9V47.7c0-1.2,0.5-2.4,1.2-3.3c-4.1,1.1-8.1,2.5-11.8,4.2v22.9
			C35.5,71,39,70.9,42.6,70.9z"/>
		<path opacity="0.5" fill="#19BAED" d="M42.6,70.9V47.7c0-1.2,0.5-2.4,1.2-3.3c-4.1,1.1-8.1,2.5-11.8,4.2v22.9
			C35.5,71,39,70.9,42.6,70.9z"/>
		<path opacity="0.5" fill="#D1DD27" d="M42.6,70.9V47.7c0-1.2,0.5-2.4,1.2-3.3c-4.1,1.1-8.1,2.5-11.8,4.2v22.9
			C35.5,71,39,70.9,42.6,70.9z"/>
		<path opacity="0.5" fill="#19BAED" d="M70.1,40.9c-6.2,0-12.2,0.6-17.9,1.6h30.4C78.5,41.5,74.3,40.9,70.1,40.9z"/>
		<path opacity="0.5" fill="#19BAED" d="M70.1,40.9c-6.2,0-12.2,0.6-17.9,1.6h30.4C78.5,41.5,74.3,40.9,70.1,40.9z"/>
		<path opacity="0.5" fill="#D1DD27" d="M70.1,40.9c-6.2,0-12.2,0.6-17.9,1.6h30.4C78.5,41.5,74.3,40.9,70.1,40.9z"/>
		<path opacity="0.5" fill="#19BAED" d="M41.2,92.6c0.5-0.2,1-0.5,1.4-0.7V70.9C39,70.9,35.5,71,32,71.5V89
			C35.1,89.9,38.2,91.1,41.2,92.6z"/>
		<path opacity="0.5" fill="#19BAED" d="M41.2,92.6c0.5-0.2,1-0.5,1.4-0.7V70.9C39,70.9,35.5,71,32,71.5V89
			C35.1,89.9,38.2,91.1,41.2,92.6z"/>
		<path opacity="0.5" fill="#19BAED" d="M41.2,92.6c0.5-0.2,1-0.5,1.4-0.7V70.9C39,70.9,35.5,71,32,71.5V89
			C35.1,89.9,38.2,91.1,41.2,92.6z"/>
		<path opacity="0.5" fill="#D1DD27" d="M41.2,92.6c0.5-0.2,1-0.5,1.4-0.7V70.9C39,70.9,35.5,71,32,71.5V89
			C35.1,89.9,38.2,91.1,41.2,92.6z"/>
		<path opacity="0.5" fill="#2F368F" d="M32,96.1c3.1-0.9,6.1-2.1,9.2-3.5c-3-1.4-6.1-2.6-9.2-3.5V96.1z"/>
		<path opacity="0.5" fill="#19BAED" d="M32,96.1c3.1-0.9,6.1-2.1,9.2-3.5c-3-1.4-6.1-2.6-9.2-3.5V96.1z"/>
		<path opacity="0.5" fill="#19BAED" d="M32,96.1c3.1-0.9,6.1-2.1,9.2-3.5c-3-1.4-6.1-2.6-9.2-3.5V96.1z"/>
		<path opacity="0.5" fill="#19BAED" d="M32,96.1c3.1-0.9,6.1-2.1,9.2-3.5c-3-1.4-6.1-2.6-9.2-3.5V96.1z"/>
		<path opacity="0.5" fill="#D1DD27" d="M32,96.1c3.1-0.9,6.1-2.1,9.2-3.5c-3-1.4-6.1-2.6-9.2-3.5V96.1z"/>
	</g>
	<path fill="#4CC7ED" d="M89.8,99.2H63.9c-4.1,0-7.4-3.3-7.4-7.4V65.8c0-4.1,3.3-7.4,7.4-7.4h25.9c4.1,0,7.4,3.3,7.4,7.4v25.9
		C97.3,95.9,93.9,99.2,89.8,99.2z"/>
	<path fill="#19B5E9" d="M126.2,49.9h11.6c1.1,0,1.9-0.9,1.9-1.9c0-1.1-0.9-1.9-1.9-1.9h-11.6c-1.1,0-1.9,0.9-1.9,1.9
		C124.3,49,125.2,49.9,126.2,49.9L126.2,49.9z M126.2,49.9"/>
	<path fill="#19B5E9" d="M137.8,56.6h-11.6c-1.1,0-1.9,0.9-1.9,1.9c0,1.1,0.9,1.9,1.9,1.9h11.6c1.1,0,1.9-0.9,1.9-1.9
		C139.7,57.4,138.9,56.6,137.8,56.6L137.8,56.6z M137.8,56.6"/>
	<path fill="#19B5E9" d="M137.8,67.3h-11.6c-1.1,0-1.9,0.9-1.9,1.9s0.9,1.9,1.9,1.9h11.6c1.1,0,1.9-0.9,1.9-1.9
		S138.9,67.3,137.8,67.3L137.8,67.3z M137.8,67.3"/>
	<path fill="#19B5E9" d="M137.8,77.8h-11.6c-1.1,0-1.9,0.9-1.9,1.9c0,1.1,0.9,1.9,1.9,1.9h11.6c1.1,0,1.9-0.9,1.9-1.9
		C139.7,78.7,138.9,77.8,137.8,77.8L137.8,77.8z M137.8,77.8"/>
	<path fill="#19B5E9" d="M137.8,87.6h-11.6c-1.1,0-1.9,0.9-1.9,1.9c0,1.1,0.9,1.9,1.9,1.9h11.6c1.1,0,1.9-0.9,1.9-1.9
		C139.7,88.4,138.9,87.6,137.8,87.6L137.8,87.6z M137.8,87.6"/>
	<path fill="#19B5E9" d="M137.8,98.1h-11.6c-1.1,0-1.9,0.9-1.9,1.9s0.9,1.9,1.9,1.9h11.6c1.1,0,1.9-0.9,1.9-1.9
		S138.9,98.1,137.8,98.1L137.8,98.1z M137.8,98.1"/>
	<path opacity="0.5" fill="#19BAED" d="M23.5,46H12C10.9,46,10,46.9,10,48c0,1.1,0.9,1.9,1.9,1.9h11.6c1.1,0,1.9-0.9,1.9-1.9
		C25.5,46.9,24.6,46,23.5,46L23.5,46z M23.5,46"/>
	<path opacity="0.5" fill="#19BAED" d="M23.5,56.6H12c-1.1,0-1.9,0.9-1.9,1.9c0,1.1,0.9,1.9,1.9,1.9h11.6c1.1,0,1.9-0.9,1.9-1.9
		C25.5,57.4,24.6,56.6,23.5,56.6L23.5,56.6z M23.5,56.6"/>
	<path opacity="0.5" fill="#19BAED" d="M23.5,67.3H12c-1.1,0-1.9,0.9-1.9,1.9s0.9,1.9,1.9,1.9h11.6c1.1,0,1.9-0.9,1.9-1.9
		S24.6,67.3,23.5,67.3L23.5,67.3z M23.5,67.3"/>
	<path opacity="0.5" fill="#19BAED" d="M23.5,77.8H12c-1.1,0-1.9,0.9-1.9,1.9c0,1.1,0.9,1.9,1.9,1.9h11.6c1.1,0,1.9-0.9,1.9-1.9
		C25.5,78.7,24.6,77.8,23.5,77.8L23.5,77.8z M23.5,77.8"/>
	<path opacity="0.5" fill="#19BAED" d="M23.5,87.6H12c-1.1,0-1.9,0.9-1.9,1.9c0,1.1,0.9,1.9,1.9,1.9h11.6c1.1,0,1.9-0.9,1.9-1.9
		C25.5,88.4,24.6,87.6,23.5,87.6L23.5,87.6z M23.5,87.6"/>
	<path opacity="0.5" fill="#19BAED" d="M23.5,98.1H12c-1.1,0-1.9,0.9-1.9,1.9s0.9,1.9,1.9,1.9h11.6c1.1,0,1.9-0.9,1.9-1.9
		S24.6,98.1,23.5,98.1L23.5,98.1z M23.5,98.1"/>
	<path fill="#A9D48E" d="M102.2,124.9c-1.1,0-1.9,0.9-1.9,1.9v11.6c0,1.1,0.9,1.9,1.9,1.9c1.1,0,1.9-0.9,1.9-1.9v-11.6
		C104.1,125.8,103.3,124.9,102.2,124.9L102.2,124.9z M102.2,124.9"/>
	<path fill="#A9D48E" d="M91.7,124.9c-1.1,0-1.9,0.9-1.9,1.9v11.6c0,1.1,0.9,1.9,1.9,1.9s1.9-0.9,1.9-1.9v-11.6
		C93.6,125.8,92.7,124.9,91.7,124.9L91.7,124.9z M91.7,124.9"/>
	<path fill="#A9D48E" d="M80.9,124.9c-1.1,0-1.9,0.9-1.9,1.9v11.6c0,1.1,0.9,1.9,1.9,1.9c1.1,0,1.9-0.9,1.9-1.9v-11.6
		C82.9,125.8,82,124.9,80.9,124.9L80.9,124.9z M80.9,124.9"/>
	<path fill="#A9D48E" d="M70.4,124.9c-1.1,0-1.9,0.9-1.9,1.9v11.6c0,1.1,0.9,1.9,1.9,1.9c1.1,0,1.9-0.9,1.9-1.9v-11.6
		C72.3,125.8,71.5,124.9,70.4,124.9L70.4,124.9z M70.4,124.9"/>
	<path fill="#A9D48E" d="M60.7,124.9c-1.1,0-1.9,0.9-1.9,1.9v11.6c0,1.1,0.9,1.9,1.9,1.9c1.1,0,1.9-0.9,1.9-1.9v-11.6
		C62.6,125.8,61.7,124.9,60.7,124.9L60.7,124.9z M60.7,124.9"/>
	<path fill="#A9D48E" d="M50.1,124.9c-1.1,0-1.9,0.9-1.9,1.9v11.6c0,1.1,0.9,1.9,1.9,1.9c1.1,0,1.9-0.9,1.9-1.9v-11.6
		C52.1,125.8,51.2,124.9,50.1,124.9L50.1,124.9z M50.1,124.9"/>
	<path fill="#8CCA8B" d="M102.2,26.1c1.1,0,1.9-0.9,1.9-1.9V12.6c0-1.1-0.9-1.9-1.9-1.9c-1.1,0-1.9,0.9-1.9,1.9v11.6
		C100.3,25.2,101.1,26.1,102.2,26.1L102.2,26.1z M102.2,26.1"/>
	<path fill="#8CCA8B" d="M91.7,26.1c1.1,0,1.9-0.9,1.9-1.9V12.6c0-1.1-0.9-1.9-1.9-1.9s-1.9,0.9-1.9,1.9v11.6
		C89.7,25.2,90.6,26.1,91.7,26.1L91.7,26.1z M91.7,26.1"/>
	<path fill="#8CCA8B" d="M80.9,26.1c1.1,0,1.9-0.9,1.9-1.9V12.6c0-1.1-0.9-1.9-1.9-1.9c-1.1,0-1.9,0.9-1.9,1.9v11.6
		C79,25.2,79.9,26.1,80.9,26.1L80.9,26.1z M80.9,26.1"/>
	<path fill="#8CCA8B" d="M70.4,26.1c1.1,0,1.9-0.9,1.9-1.9V12.6c0-1.1-0.9-1.9-1.9-1.9c-1.1,0-1.9,0.9-1.9,1.9v11.6
		C68.5,25.2,69.3,26.1,70.4,26.1L70.4,26.1z M70.4,26.1"/>
	<path fill="#8CCA8B" d="M60.7,26.1c1.1,0,1.9-0.9,1.9-1.9V12.6c0-1.1-0.9-1.9-1.9-1.9c-1.1,0-1.9,0.9-1.9,1.9v11.6
		C58.7,25.2,59.6,26.1,60.7,26.1L60.7,26.1z M60.7,26.1"/>
	<path fill="#8CCA8B" d="M50.1,26.1c1.1,0,1.9-0.9,1.9-1.9V12.6c0-1.1-0.9-1.9-1.9-1.9c-1.1,0-1.9,0.9-1.9,1.9v11.6
		C48.2,25.2,49.1,26.1,50.1,26.1L50.1,26.1z M50.1,26.1"/>
</g>
</svg>
