<?xml version="1.0" encoding="iso-8859-1"?>
<!-- Generator: Adobe Illustrator 13.0.0, SVG Export Plug-In . SVG Version: 6.00 Build 14948)  -->
<!DOCTYPE svg PUBLIC "-//W3C//DTD SVG 1.1//EN" "http://www.w3.org/Graphics/SVG/1.1/DTD/svg11.dtd">
<svg version="1.1" id="Layer_1" xmlns="http://www.w3.org/2000/svg" xmlns:xlink="http://www.w3.org/1999/xlink" x="0px" y="0px"
	 width="100px" height="100px" viewBox="0 0 100 100" enable-background="new 0 0 100 100" xml:space="preserve">
<g>
	<g>
		<path fill="#E7AE4A" d="M17.27,61.396c2.379-14.808,16.308-24.879,31.113-22.506c12.034,1.935,20.909,11.51,22.542,22.975h3.424
			c-0.41-3.229-1.304-6.338-2.663-9.214c0.059,0.124,0.125,0.244,0.181,0.371l6.479-4.297l-7.327,2.583
			c0.175,0.332,0.334,0.674,0.502,1.013c-1.174-2.409-2.665-4.642-4.416-6.658c0.25,0.286,0.508,0.568,0.748,0.866l5.188-5.756
			l-6.437,4.311c0.023,0.03,0.048,0.058,0.075,0.09c-3.091-3.413-6.971-6.131-11.408-7.878c0.138,0.056,0.282,0.101,0.42,0.157
			l1.759-7.481l-3.536,6.814c0.16,0.051,0.313,0.121,0.472,0.178c-1.747-0.626-3.566-1.115-5.465-1.421
			c-2.981-0.48-5.926-0.491-8.776-0.121c0.16-0.021,0.316-0.052,0.476-0.069l-2.044-7.337l0.186,7.606
			c0.183-0.032,0.364-0.054,0.549-0.082c-4.739,0.751-9.179,2.594-12.992,5.319c0.023-0.018,0.049-0.037,0.073-0.054l-5.286-5.414
			l3.8,6.539c0.3-0.244,0.611-0.468,0.922-0.696c-2.109,1.569-4.013,3.41-5.659,5.483c0.185-0.239,0.366-0.483,0.56-0.715
			l-6.45-3.908l5.299,5.371c0.039-0.053,0.083-0.102,0.121-0.153c-2.912,3.852-4.961,8.447-5.779,13.548
			c-0.054,0.338-0.08,0.672-0.125,1.008h3.419C17.235,61.707,17.244,61.553,17.27,61.396z"/>
		<path fill="#E7AE4A" d="M48.136,27.802l-1.723,7.449c0.631,0.047,1.249,0.114,1.876,0.201L48.136,27.802z"/>
		<path fill="#E7AE4A" d="M33.166,37.171l-3.791-6.573l2.063,7.297C32.01,37.636,32.582,37.399,33.166,37.171z"/>
		<path fill="#E7AE4A" d="M74.145,60.31l7.357-2.562l-7.748,0.679C73.902,59.046,74.033,59.673,74.145,60.31z"/>
		<path fill="#E7AE4A" d="M65.927,34.385l-5.137,5.743c0.531,0.353,1.047,0.713,1.559,1.09L65.927,34.385z"/>
		<path fill="#E7AE4A" d="M16.553,52.46l-7.208-2.181l6.452,3.877C16.036,53.577,16.284,53.016,16.553,52.46z"/>
		<path fill="#E7AE4A" d="M6.588,59.432l7.234,2.16c0.032-0.249,0.056-0.492,0.097-0.735c0.058-0.371,0.133-0.739,0.208-1.103
			L6.588,59.432z"/>
	</g>
	<rect x="13.819" y="63.967" fill="#414C42" width="60.529" height="16.885"/>
	<g>
		<path fill="#414C42" d="M36.423,50.001l8.499,13.964h4.526L39.203,47.067h-9.091v1.788h0.767c1.077,0,1.797,0.108,2.159,0.319
			c0.361,0.215,0.603,0.564,0.732,1.047c0.056,0.259,0.086,0.978,0.086,2.164v11.58h2.568V50.001z"/>
		<path fill="#414C42" d="M55.256,52.385c0-0.957,0.111-1.698,0.326-2.228c0.221-0.527,0.549-0.889,0.983-1.091
			c0.311-0.142,0.905-0.211,1.774-0.211h0.53v-1.788h-9.905v1.788h0.767c0.78,0,1.366,0.112,1.762,0.34
			c0.396,0.229,0.694,0.564,0.892,1.004c0.199,0.444,0.297,1.171,0.297,2.185v11.58h2.573V52.385z"/>
		<polygon fill="#FFFFFF" points="52.691,69.303 49.456,63.965 44.931,63.965 52.691,76.718 55.265,76.718 55.265,63.965 
			52.691,63.965 		"/>
		<path fill="#FFFFFF" d="M33.864,71.173c0,1.146-0.099,1.96-0.297,2.442c-0.202,0.482-0.478,0.823-0.84,1.022
			c-0.362,0.197-1.056,0.296-2.072,0.296h-0.534v1.784h10.034v-1.784c-1.077-0.013-1.792-0.072-2.146-0.172
			c-0.358-0.1-0.664-0.28-0.927-0.552c-0.263-0.267-0.443-0.564-0.543-0.892c-0.069-0.255-0.107-0.97-0.107-2.146v-7.208h-2.568
			V71.173z"/>
	</g>
</g>
</svg>
