<?xml version="1.0" encoding="utf-8"?>
<!-- Generator: Adobe Illustrator 18.1.0, SVG Export Plug-In . SVG Version: 6.00 Build 0)  -->
<svg version="1.1" id="Layer_1" xmlns="http://www.w3.org/2000/svg" xmlns:xlink="http://www.w3.org/1999/xlink" x="0px" y="0px"
	 viewBox="0 0 150 150" enable-background="new 0 0 150 150" xml:space="preserve">
<g>
	<g>
		<g>
			<g>
				<g>
					<g>
						<g>
							<path fill="#B4D88C" d="M67,81.7c-4.6,0-8.3,3.7-8.3,8.3c0,4.6,3.7,8.3,8.3,8.3c4.6,0,8.3-3.7,8.3-8.3
								C75.3,85.4,71.6,81.7,67,81.7z"/>
						</g>
					</g>
				</g>
			</g>
		</g>
	</g>
	<g>
		<g>
			<g>
				<g>
					<g>
						<g>
							<path fill="#51C8E7" d="M86,83.2c-4.6,0-8.3,3.7-8.3,8.3c0,4.6,3.7,8.3,8.3,8.3c4.6,0,8.3-3.7,8.3-8.3
								C94.2,86.9,90.5,83.2,86,83.2z"/>
						</g>
					</g>
				</g>
			</g>
		</g>
	</g>
	<g>
		<g>
			<g>
				<g>
					<g>
						<g>
							<path fill="#8BC540" d="M80.8,59.4c-4.6,0-8.3,3.7-8.3,8.3c0,4.6,3.7,8.3,8.3,8.3c4.6,0,8.3-3.7,8.3-8.3
								C89.1,63.1,85.4,59.4,80.8,59.4z"/>
						</g>
					</g>
				</g>
			</g>
		</g>
	</g>
	<g>
		<g>
			<g>
				<g>
					<g>
						<g>
							<path fill="#51C8E7" d="M64.1,37.1c-4.6,0-8.3,3.7-8.3,8.3s3.7,8.3,8.3,8.3c4.6,0,8.3-3.7,8.3-8.3S68.7,37.1,64.1,37.1z"/>
						</g>
					</g>
				</g>
			</g>
		</g>
	</g>
	<g>
		<g>
			<g>
				<g>
					<g>
						<g>
							<path fill="#1C75BB" d="M76.7,15.8c-3.4,0-6.1,2.7-6.1,6.1c0,3.4,2.7,6.1,6.1,6.1c3.4,0,6.1-2.7,6.1-6.1
								C82.8,18.5,80.1,15.8,76.7,15.8z"/>
						</g>
					</g>
				</g>
			</g>
		</g>
	</g>
	<g>
		<g>
			<g>
				<g>
					<g>
						<g>
							<circle fill="#8BC540" cx="101.4" cy="76.9" r="6.1"/>
						</g>
					</g>
				</g>
			</g>
		</g>
	</g>
	<g>
		<g>
			<g>
				<g>
					<g>
						<g>
							<path fill="#51C8E7" d="M105.2,90.7c-3.4,0-6.1,2.7-6.1,6.1c0,3.4,2.7,6.1,6.1,6.1c3.4,0,6.1-2.7,6.1-6.1
								C111.3,93.5,108.6,90.7,105.2,90.7z"/>
						</g>
					</g>
				</g>
			</g>
		</g>
	</g>
	<g>
		<g>
			<g>
				<g>
					<g>
						<g>
							<ellipse fill="#1C75BB" cx="57.3" cy="62.7" rx="6.1" ry="6.1"/>
						</g>
					</g>
				</g>
			</g>
		</g>
	</g>
	<g>
		<g>
			<g>
				<g>
					<g>
						<g>
							<path fill="#343433" d="M64.1,118.4c-4.4,0-7.9,3.5-7.9,7.9c0,4.3,3.5,7.9,7.9,7.9c4.4,0,7.9-3.5,7.9-7.9
								C72,121.9,68.5,118.4,64.1,118.4z"/>
						</g>
					</g>
				</g>
			</g>
		</g>
	</g>
	<g>
		<g>
			<g>
				<g>
					<g>
						<g>
							<path fill="#343433" d="M111.7,118.4c-4.3,0-7.9,3.5-7.9,7.9c0,4.3,3.5,7.9,7.9,7.9c4.3,0,7.9-3.5,7.9-7.9
								C119.6,121.9,116.1,118.4,111.7,118.4z"/>
						</g>
					</g>
				</g>
			</g>
		</g>
	</g>
	<g>
		<g>
			<g>
				<g>
					<g>
						<g>
							<path fill="#1BA8E1" d="M134.1,38.2H133c-0.1,0-0.2,0-0.3,0c0,0,0,0-0.1,0H92.7c-2.7,0-5,2.7-5,5.9c0,3.3,2.2,5.9,5,5.9h33.9
								l-12.1,56h-27V118h30.8h0c2.3,0,4.2-1.8,4.8-4.5l14-63.7c0,0,0.9-3.4,1.3-6.2C138.8,40.4,136.9,38.2,134.1,38.2z"/>
						</g>
					</g>
				</g>
			</g>
		</g>
	</g>
	<g>
		<g>
			<g>
				<g>
					<g>
						<g>
							<path fill="#8BC540" d="M85.5,106.1h-1h-27L41.7,42.7c-0.7-2.6-2.9-4.5-5.5-4.5h-21c-3.2,0-5.7,2.7-5.7,5.9
								c0,3.3,2.6,5.9,5.7,5.9h16.6l15.8,63.4c0.6,2.6,2.9,4.5,5.5,4.5h8.6h23.9V106.1z"/>
						</g>
					</g>
				</g>
			</g>
		</g>
	</g>
</g>
</svg>
