<?xml version="1.0" encoding="utf-8"?>
<!-- Generator: Adobe Illustrator 18.1.0, SVG Export Plug-In . SVG Version: 6.00 Build 0)  -->
<svg version="1.1" id="Layer_1" xmlns="http://www.w3.org/2000/svg" xmlns:xlink="http://www.w3.org/1999/xlink" x="0px" y="0px"
	 viewBox="0 0 150 150" enable-background="new 0 0 150 150" xml:space="preserve">
<g>
	<path fill="#A52227" d="M30.3,81.5C30.3,48.2,53,21.2,81,21.2c19.3,0,36.1,12.8,44.6,31.7c-7.7-22.8-27-39-49.5-39
		C46.8,14,23,41.4,23,75.2c0,21.5,9.6,40.5,24.2,51.4C36.8,115.5,30.3,99.5,30.3,81.5z"/>
	<path fill="#051837" d="M86.3,93C86.3,93,86.3,93,86.3,93L86.3,93L86.3,93z"/>
	<path fill="#051837" d="M100,99.5l0.2-0.3c-0.1,0-0.2,0.1-0.3,0.1l-2.3,0.5l0.9,2.3L100,99.5z"/>
	<path fill="#051837" d="M98.9,42.3l-37.9-3c-5.5-0.4-10.2,4.1-10.2,10.3l0,56.7l7.1-5.1c0-2,1.5-3.9,3.4-4.2l3.2-0.6l13.4-9.8
		c-0.8-0.5-1.3-1.5-1.3-2.6l0-3.4c0-1.9,1.2-3.5,2.8-3.7l5.4-0.5c1.4-0.1,2.6,1.2,2.7,3l0,0.2l0.3-0.2c0.5-0.3,1-0.4,1.5-0.3
		c0.5,0.2,0.9,0.6,1.1,1.2c0,0,0.3,0.9,0.9,2.4c0.8,2.2,2,5.4,3.1,8.5c0.2-0.1,0.4-0.2,0.7-0.3l4.7-0.8c1.3-0.2,2.3,1,2.3,2.6l0.1,3
		c0,0,0,0.1,0,0.1l4-6.8l0.3-0.4l-0.7-37.3C105.5,46.6,102.6,42.6,98.9,42.3z M70.7,84.7c0,1.9-1.3,3.7-3.1,3.9l-6.4,0.9
		c-1.8,0.3-3.4-1.2-3.4-3.2l0-3.7c0-2,1.5-3.8,3.3-4l6.4-0.6c1.7-0.2,3.1,1.3,3.1,3.2L70.7,84.7z M101.8,80.8c0,1.6-1,3.1-2.2,3.3
		l-4.7,0.7c-1.3,0.2-2.4-1.1-2.5-2.8l0-3.1c0-1.7,1.1-3.2,2.4-3.4l4.7-0.4c1.2-0.1,2.3,1.1,2.3,2.8L101.8,80.8z M101.6,65.9
		c0,1.6-0.9,3-2.2,3.1l-38.2,2.4c-1.8,0.1-3.3-1.4-3.4-3.5l0-18.2c0-2,1.5-3.5,3.3-3.4l38,1.8c1.2,0.1,2.3,1.4,2.3,3L101.6,65.9z"/>
	<path fill="#051837" d="M96.8,51.1l-4.7-0.2c-1.4,0-2.4,1.3-2.4,3l0.1,9.4c0,1.7,1.2,3.1,2.5,3l4.8-0.2c1.3-0.1,2.3-1.4,2.2-3.1
		l-0.1-8.9C99.1,52.5,98.1,51.1,96.8,51.1z M97,63.1l-4.7,0.1L92.1,54l4.7,0.1L97,63.1z"/>
	<path fill="#051837" d="M102.3,108l-4.1,7.2l-0.2,0.4c-0.4,0.7-1,1.2-1.6,1.2c-0.5,0-1-0.2-1.2-0.7c0-0.1-0.1-0.2-0.1-0.3l-0.3-0.9
		l-1.7-4.6l-0.2-0.5l-5.1-13.3l0,2.2c0,1.8-1.1,3.5-2.6,3.9l-5.5,1.2c-1.6,0.4-2.9-0.9-2.9-2.8l0-0.5l-13.3,10.6l-10.7,8.5
		c-0.6,0.5-1.3,0.7-1.9,0.7l0,5.4c0,6.5,4.9,10.1,10.5,8.2l38.8-13.3c3.7-1.3,6.6-6.3,6.5-11.2l-0.2-9.2l-3.8,6.7L102.3,108z
		 M70.9,120c0,2-1.4,4-3.1,4.5l-6.5,2c-1.9,0.6-3.4-0.7-3.4-2.8l0-3.8c0-2.1,1.5-4.2,3.4-4.7l6.5-1.7c1.7-0.4,3.1,0.8,3.1,2.8
		L70.9,120z M87.9,115.1c0,1.8-1.1,3.7-2.6,4.1l-5.5,1.7c-1.6,0.5-2.9-0.7-2.9-2.6l0-3.4c0-1.9,1.3-3.8,2.8-4.2l5.5-1.4
		c1.5-0.4,2.7,0.8,2.7,2.6L87.9,115.1z"/>
	<path fill="#A52227" d="M121,82.6l-0.5-11.1c0-0.5-0.2-1-0.5-1.4c-0.3-0.4-0.7-0.5-1-0.5l-8.6,1.3c-0.2,0-0.4,0.1-0.6,0.3
		c-0.5,0.4-0.9,1.2-0.8,2.1c0,0.6,0.2,1.1,0.5,1.4c0.3,0.3,0.7,0.5,1.1,0.4l2-0.4l1.7-0.3l1.5-0.3l-2.1,3.6l-0.2,0.4L106.3,91l0,0
		l-0.9,1.5L99.3,103l-1.6,2.7l-1-2.7c0,0-0.4-1.1-1-2.8c-0.7-2-1.7-4.7-2.7-7.3c-0.9-2.4-1.8-4.8-2.4-6.5c-0.5-1.5-0.9-2.4-0.9-2.4
		c-0.2-0.6-0.6-1-1.1-1.2c-0.4-0.1-0.8-0.1-1.1,0.1c-0.1,0.1-0.3,0.1-0.4,0.2l-4.6,3.5l-12.8,9.7L57.9,105l-6.5,4.9
		c-0.2,0.2-0.4,0.3-0.6,0.5c-0.3,0.4-0.6,0.8-0.7,1.2c0,0.1-0.1,0.2-0.1,0.3c-0.2,0.8-0.2,1.6,0.1,2.2c0.1,0.3,0.3,0.5,0.6,0.7
		c0,0,0.1,0.1,0.1,0.1c0.3,0.2,0.6,0.3,0.9,0.3c0.7,0.1,1.4-0.2,2.1-0.7l8.8-6.9l1.7-1.4l6.4-5l6.1-4.7l3.9-3.1l4.5-3.5l1.6-1.3
		l0.7,2l6.3,16.8l0.7,1.9l0.5,1.4l0.3,0.9c0.3,0.7,0.8,1.1,1.4,1c0.6,0,1.2-0.5,1.6-1.2l2.1-3.8l1-1.7l4.8-8.4l9.6-16.8l2-3.6
		l0.2,4.5l0.1,2.8c0,0.6,0.2,1,0.5,1.4c0.3,0.3,0.6,0.5,1,0.4c0.3-0.1,0.6-0.3,0.8-0.5c0.1-0.1,0.1-0.2,0.2-0.3
		c0.2-0.4,0.4-1,0.3-1.5L121,82.6z"/>
</g>
</svg>
