<?xml version="1.0" encoding="iso-8859-1"?>
<!-- Generator: Adobe Illustrator 13.0.0, SVG Export Plug-In . SVG Version: 6.00 Build 14948)  -->
<!DOCTYPE svg PUBLIC "-//W3C//DTD SVG 1.1//EN" "http://www.w3.org/Graphics/SVG/1.1/DTD/svg11.dtd">
<svg version="1.1" id="Layer_1" xmlns="http://www.w3.org/2000/svg" xmlns:xlink="http://www.w3.org/1999/xlink" x="0px" y="0px"
	 width="100px" height="100px" viewBox="0 0 100 100" enable-background="new 0 0 100 100" xml:space="preserve">
<g>
	<path fill="none" d="M26.371,62.774c0.791,1.605,1.676,3.188,2.679,4.723c2.89,4.425,6.391,8.052,10.236,10.823
		c3.728,2.687,7.729,4.496,11.755,5.475c3.861,0.925,7.73,1.042,11.396,0.376c3.501-0.634,6.829-1.974,9.782-4.002
		c0.423-0.29,0.822-0.587,1.229-0.893c0.407-0.321,0.799-0.643,1.19-0.987c0.392-0.328,0.768-0.681,1.128-1.041
		c0.384-0.36,0.736-0.736,1.08-1.12c2.694-2.952,4.691-6.398,6-10.087c1.276-3.557,1.957-7.362,2.067-11.216
		c0.109-3.774-0.313-7.644-1.284-11.45c-0.956-3.767-2.468-7.519-4.512-11.105l-0.102-0.156l-0.102,0.07
		c-2.318,1.629-4.214,3.955-5.639,6.813c-1.48,2.969-2.444,6.501-2.82,10.347c-0.392,3.954-0.18,8.207,0.682,12.499
		c0.854,4.339,2.373,8.646,4.543,12.609c-2.781-4.308-5.945-8.075-9.438-11.317c-3.588-3.32-7.566-6.14-11.865-8.411
		c-4.465-2.357-9.344-4.159-14.544-5.333c-5.498-1.238-11.427-1.794-17.7-1.566c0.157,1.66,0.407,3.336,0.768,5.012
		c0.384,1.676,0.846,3.353,1.426,5.021C24.891,59.509,25.58,61.161,26.371,62.774z"/>
	<path fill="none" d="M62.28,48.004c0.234-0.109,0.47-0.234,0.689-0.36c0.234-0.125,0.445-0.259,0.673-0.399
		c0.22-0.141,0.431-0.281,0.643-0.446c1.637-1.198,2.897-2.757,3.79-4.519c0.861-1.739,1.387-3.682,1.559-5.733
		c0.173-2.005,0-4.143-0.509-6.281c-0.509-2.114-1.354-4.276-2.569-6.336c-1.064-1.824-2.326-3.454-3.728-4.863
		c-1.401-1.425-2.96-2.632-4.597-3.587c-1.661-0.987-3.415-1.708-5.193-2.115c-1.816-0.446-3.649-0.572-5.451-0.336
		c-0.258,0.039-0.517,0.078-0.775,0.133c-0.266,0.039-0.524,0.102-0.774,0.165c-0.267,0.071-0.518,0.141-0.775,0.227
		c-0.259,0.078-0.517,0.18-0.768,0.282c-2.021,0.799-3.729,2.075-5.028,3.72c-1.347,1.684-2.264,3.728-2.749,6.007
		c-0.478,2.318-0.485,4.856,0.031,7.448c0.509,2.624,1.543,5.271,3.109,7.793c1.354,2.185,3,4.072,4.793,5.607
		c1.794,1.535,3.72,2.71,5.702,3.524c1.941,0.791,3.916,1.222,5.842,1.284c0.165,0.016,0.321,0.016,0.463,0.016
		c1.715,0,3.383-0.306,4.918-0.924C61.81,48.215,62.045,48.113,62.28,48.004z M60.636,42.937c-0.157,0.079-0.321,0.157-0.502,0.235
		c-0.164,0.07-0.345,0.141-0.532,0.203c-1.214,0.439-2.522,0.611-3.869,0.518c-1.37-0.078-2.78-0.432-4.15-1.019
		c-1.387-0.61-2.749-1.473-3.979-2.562c-1.252-1.104-2.396-2.436-3.336-3.979c-1.096-1.762-1.824-3.609-2.177-5.45
		c-0.376-1.817-0.399-3.595-0.095-5.24c0.306-1.613,0.925-3.085,1.841-4.307c0.893-1.19,2.067-2.154,3.478-2.78
		c0.188-0.079,0.36-0.157,0.556-0.22c0.173-0.062,0.36-0.125,0.541-0.18c0.18-0.055,0.384-0.102,0.556-0.149
		c0.195-0.039,0.376-0.086,0.557-0.102c0.524-0.094,1.072-0.133,1.605-0.133c0.768,0,1.551,0.086,2.317,0.25
		c1.301,0.274,2.593,0.768,3.822,1.465c1.206,0.682,2.357,1.551,3.415,2.6c1.033,1.018,1.973,2.216,2.771,3.563
		c0.886,1.527,1.535,3.125,1.896,4.699c0.375,1.582,0.477,3.157,0.328,4.644c-0.141,1.496-0.548,2.913-1.222,4.167
		c-0.673,1.269-1.629,2.357-2.851,3.188c-0.141,0.117-0.313,0.211-0.47,0.312C60.964,42.749,60.808,42.843,60.636,42.937z"/>
	<path fill="#686EA2" d="M64.457,39.162c0.674-1.254,1.081-2.671,1.222-4.167c0.148-1.487,0.047-3.062-0.328-4.644
		c-0.361-1.574-1.011-3.172-1.896-4.699c-0.799-1.347-1.738-2.545-2.771-3.563c-1.058-1.049-2.209-1.918-3.415-2.6
		c-1.229-0.697-2.521-1.19-3.822-1.465c-0.767-0.164-1.55-0.25-2.317-0.25c-0.533,0-1.081,0.039-1.605,0.133
		c-0.181,0.016-0.361,0.062-0.557,0.102c-0.172,0.047-0.376,0.094-0.556,0.149c-0.181,0.055-0.368,0.117-0.541,0.18
		c-0.195,0.062-0.368,0.141-0.556,0.22c-1.41,0.626-2.585,1.59-3.478,2.78c-0.916,1.222-1.535,2.694-1.841,4.307
		c-0.305,1.645-0.281,3.422,0.095,5.24c0.353,1.841,1.081,3.688,2.177,5.45c0.939,1.543,2.084,2.875,3.336,3.979
		c1.23,1.089,2.593,1.951,3.979,2.562c1.37,0.587,2.78,0.94,4.15,1.019c1.347,0.094,2.655-0.078,3.869-0.518
		c0.188-0.062,0.368-0.133,0.532-0.203c0.181-0.078,0.345-0.156,0.502-0.235c0.172-0.094,0.328-0.188,0.501-0.274
		c0.156-0.102,0.329-0.195,0.47-0.312C62.828,41.52,63.784,40.431,64.457,39.162z M45.966,20.076
		c0.494-0.376,1.019-0.697,1.605-0.971c0.165-0.055,0.329-0.133,0.494-0.188c0.18-0.07,0.353-0.125,0.524-0.18
		c0.165-0.039,0.337-0.086,0.517-0.125c0.173-0.039,0.36-0.078,0.518-0.11c0.501-0.079,1.018-0.125,1.52-0.125
		c0.712,0,1.448,0.086,2.192,0.251c1.222,0.25,2.443,0.729,3.626,1.394c1.175,0.658,2.287,1.503,3.281,2.491
		c1.034,1.018,1.936,2.177,2.671,3.454c0.862,1.449,1.48,2.968,1.833,4.527c0.36,1.512,0.462,3,0.321,4.44
		c-0.079,0.807-0.251,1.559-0.478,2.287C59.444,30.469,53.147,24.657,45.966,20.076z"/>
	<path fill="#364D9C" d="M49.601,90.609c4.597,0.947,9.155,0.916,13.432-0.023c4.072-0.909,7.895-2.624,11.277-5.123
		c0.47-0.352,0.939-0.72,1.395-1.104c0.47-0.368,0.924-0.768,1.347-1.183c0.438-0.399,0.861-0.822,1.276-1.269
		c0.415-0.424,0.822-0.878,1.214-1.34c3.023-3.501,5.2-7.542,6.642-11.818c1.371-4.08,2.067-8.442,2.162-12.828
		c0.07-4.276-0.447-8.662-1.566-12.954c-1.089-4.229-2.773-8.466-5.083-12.507c-2.036-3.556-4.425-6.743-7.057-9.508
		c-2.694-2.835-5.679-5.255-8.851-7.213c-3.273-2.021-6.781-3.571-10.4-4.542c-2.835-0.752-5.732-1.151-8.662-1.151
		c-0.986,0-1.988,0.047-2.983,0.141c-0.587,0.055-1.175,0.118-1.771,0.219c-0.587,0.086-1.182,0.204-1.77,0.329
		c-0.604,0.125-1.198,0.274-1.793,0.438c-0.611,0.172-1.191,0.36-1.794,0.572c-4.855,1.692-9.093,4.542-12.539,8.341
		c-3.634,4.018-6.328,9.045-7.895,14.748c-1.613,5.929-1.958,12.483-0.869,19.141c1.12,6.806,3.689,13.557,7.762,19.713
		c3.493,5.31,7.753,9.594,12.405,12.789C39.975,87.586,44.784,89.622,49.601,90.609z M36.827,10.325
		c0.579-0.211,1.158-0.392,1.754-0.564c0.579-0.157,1.159-0.297,1.738-0.431c0.596-0.125,1.175-0.227,1.755-0.321
		c0.571-0.094,1.151-0.165,1.723-0.211c0.972-0.102,1.958-0.141,2.913-0.141c2.836,0,5.687,0.384,8.521,1.135
		c3.524,0.932,6.971,2.444,10.244,4.464c3.141,1.942,6.077,4.331,8.709,7.111c2.662,2.788,5.012,5.944,6.97,9.39
		c2.24,3.908,3.932,8.075,5.036,12.375c1.104,4.221,1.613,8.513,1.535,12.773c-0.086,4.433-0.791,8.693-2.123,12.648
		c-1.456,4.347-3.617,8.191-6.414,11.489c-0.031-1.833-0.133-3.657-0.266-5.475c1.887-2.467,3.391-5.255,4.487-8.325
		c1.292-3.556,2.005-7.393,2.114-11.411c0.109-3.845-0.32-7.753-1.308-11.614c-0.995-3.916-2.529-7.699-4.581-11.254L79.541,31.8
		l-0.438-0.493l-0.548,0.368c-2.365,1.676-4.323,4.041-5.827,7.048c-1.089,2.193-1.88,4.645-2.396,7.315
		c-0.596-1.081-1.229-2.153-1.888-3.203c0.062-0.086,0.118-0.196,0.173-0.29c0.9-1.777,1.448-3.782,1.621-5.937
		c0.188-2.106,0-4.292-0.518-6.477c-0.54-2.232-1.425-4.44-2.639-6.524c-1.073-1.825-2.342-3.501-3.807-4.981
		c-1.441-1.441-3.031-2.694-4.738-3.681c-1.723-1.018-3.524-1.754-5.364-2.193c-1.261-0.306-2.53-0.454-3.768-0.454
		c-0.642,0-1.269,0.039-1.888,0.117c-0.281,0.039-0.548,0.086-0.822,0.141c-0.281,0.04-0.556,0.11-0.814,0.172
		c-0.266,0.078-0.54,0.148-0.814,0.243c-0.273,0.086-0.532,0.188-0.799,0.282c-1.793,0.721-3.352,1.817-4.645,3.219
		c-2.678-1.339-5.442-2.522-8.285-3.532C33.075,11.907,34.899,10.999,36.827,10.325z M56.657,49.233c-0.142,0-0.298,0-0.463-0.016
		c-1.926-0.062-3.9-0.493-5.842-1.284c-1.982-0.814-3.908-1.989-5.702-3.524c-1.793-1.535-3.438-3.423-4.793-5.607
		c-1.566-2.522-2.601-5.169-3.109-7.793c-0.517-2.592-0.509-5.13-0.031-7.448c0.485-2.279,1.402-4.323,2.749-6.007
		c1.3-1.645,3.008-2.921,5.028-3.72c0.251-0.102,0.509-0.204,0.768-0.282c0.258-0.086,0.509-0.156,0.775-0.227
		c0.25-0.063,0.509-0.125,0.774-0.165c0.259-0.055,0.518-0.094,0.775-0.133c1.802-0.235,3.635-0.11,5.451,0.336
		c1.778,0.407,3.532,1.128,5.193,2.115c1.637,0.955,3.195,2.162,4.597,3.587c1.401,1.41,2.663,3.039,3.728,4.863
		c1.215,2.06,2.061,4.222,2.569,6.336c0.509,2.139,0.682,4.276,0.509,6.281c-0.172,2.052-0.697,3.994-1.559,5.733
		c-0.893,1.762-2.153,3.32-3.79,4.519c-0.212,0.165-0.423,0.306-0.643,0.446c-0.228,0.141-0.438,0.274-0.673,0.399
		c-0.22,0.126-0.455,0.251-0.689,0.36c-0.235,0.109-0.471,0.211-0.705,0.306C60.04,48.928,58.372,49.233,56.657,49.233z
		 M22.901,52.836c-0.36-1.676-0.61-3.352-0.768-5.012c6.273-0.228,12.202,0.328,17.7,1.566c5.2,1.174,10.079,2.976,14.544,5.333
		c4.299,2.271,8.277,5.091,11.865,8.411c3.492,3.242,6.656,7.01,9.438,11.317c-2.17-3.963-3.689-8.271-4.543-12.609
		c-0.861-4.292-1.073-8.545-0.682-12.499c0.376-3.846,1.34-7.378,2.82-10.347c1.425-2.858,3.32-5.185,5.639-6.813l0.102-0.07
		l0.102,0.156c2.044,3.587,3.556,7.339,4.512,11.105c0.971,3.807,1.394,7.676,1.284,11.45c-0.11,3.854-0.791,7.659-2.067,11.216
		c-1.309,3.688-3.306,7.135-6,10.087c-0.344,0.384-0.696,0.76-1.08,1.12c-0.36,0.36-0.736,0.713-1.128,1.041
		c-0.392,0.345-0.783,0.666-1.19,0.987c-0.407,0.306-0.807,0.603-1.229,0.893c-2.953,2.028-6.281,3.368-9.782,4.002
		c-3.665,0.666-7.534,0.549-11.396-0.376c-4.025-0.979-8.027-2.788-11.755-5.475c-3.846-2.771-7.347-6.398-10.236-10.823
		c-1.003-1.535-1.888-3.117-2.679-4.723c-0.791-1.613-1.48-3.266-2.044-4.918C23.747,56.188,23.285,54.512,22.901,52.836z"/>
	
		<linearGradient id="SVGID_1_" gradientUnits="userSpaceOnUse" x1="-480.3721" y1="537.8848" x2="-473.0388" y2="537.8848" gradientTransform="matrix(-8.0544 -8.0544 -8.0544 8.0544 556.2659 -8134.4238)">
		<stop  offset="0" style="stop-color:#616078"/>
		<stop  offset="0.7717" style="stop-color:#17182A"/>
		<stop  offset="1" style="stop-color:#17182A"/>
	</linearGradient>
	<path fill="url(#SVGID_1_)" d="M44.267,13.254c0.267-0.094,0.525-0.195,0.799-0.282c0.274-0.094,0.549-0.165,0.814-0.243
		c0.259-0.062,0.533-0.133,0.814-0.172c0.274-0.055,0.541-0.102,0.822-0.141c0.619-0.078,1.246-0.117,1.888-0.117
		c1.237,0,2.507,0.148,3.768,0.454c1.84,0.438,3.642,1.175,5.364,2.193c1.707,0.987,3.297,2.24,4.738,3.681
		c1.465,1.48,2.733,3.156,3.807,4.981c1.214,2.083,2.099,4.292,2.639,6.524c0.518,2.185,0.705,4.37,0.518,6.477
		c-0.173,2.154-0.721,4.159-1.621,5.937c-0.055,0.094-0.11,0.204-0.173,0.29c0.658,1.05,1.292,2.122,1.888,3.203
		c0.517-2.671,1.308-5.122,2.396-7.315c1.504-3.007,3.462-5.372,5.827-7.048l0.548-0.368l0.438,0.493l0.095,0.165
		c2.052,3.555,3.586,7.338,4.581,11.254c0.987,3.861,1.417,7.77,1.308,11.614c-0.109,4.019-0.822,7.855-2.114,11.411
		c-1.097,3.07-2.601,5.858-4.487,8.325c0.133,1.817,0.234,3.642,0.266,5.475c2.797-3.298,4.958-7.143,6.414-11.489
		c1.332-3.955,2.037-8.216,2.123-12.648c0.078-4.261-0.431-8.553-1.535-12.773c-1.104-4.3-2.796-8.467-5.036-12.375
		c-1.958-3.446-4.308-6.602-6.97-9.39c-2.632-2.78-5.568-5.169-8.709-7.111c-3.273-2.021-6.72-3.532-10.244-4.464
		c-2.835-0.751-5.686-1.135-8.521-1.135c-0.955,0-1.941,0.039-2.913,0.141c-0.571,0.047-1.151,0.117-1.723,0.211
		c-0.58,0.094-1.159,0.196-1.755,0.321c-0.579,0.133-1.159,0.274-1.738,0.431c-0.596,0.172-1.175,0.353-1.754,0.564
		c-1.928,0.673-3.752,1.582-5.49,2.616c2.843,1.01,5.607,2.193,8.285,3.532C40.915,15.071,42.474,13.975,44.267,13.254z"/>
	<path fill="#2D3F7F" d="M44.267,13.254c0.267-0.094,0.525-0.195,0.799-0.282c0.274-0.094,0.549-0.165,0.814-0.243
		c0.259-0.062,0.533-0.133,0.814-0.172c0.274-0.055,0.541-0.102,0.822-0.141c0.619-0.078,1.246-0.117,1.888-0.117
		c1.237,0,2.507,0.148,3.768,0.454c1.84,0.438,3.642,1.175,5.364,2.193c1.707,0.987,3.297,2.24,4.738,3.681
		c1.465,1.48,2.733,3.156,3.807,4.981c1.214,2.083,2.099,4.292,2.639,6.524c0.518,2.185,0.705,4.37,0.518,6.477
		c-0.173,2.154-0.721,4.159-1.621,5.937c-0.055,0.094-0.11,0.204-0.173,0.29c0.658,1.05,1.292,2.122,1.888,3.203
		c0.517-2.671,1.308-5.122,2.396-7.315c1.504-3.007,3.462-5.372,5.827-7.048l0.548-0.368l0.438,0.493l0.095,0.165
		c2.052,3.555,3.586,7.338,4.581,11.254c0.987,3.861,1.417,7.77,1.308,11.614c-0.109,4.019-0.822,7.855-2.114,11.411
		c-1.097,3.07-2.601,5.858-4.487,8.325c0.133,1.817,0.234,3.642,0.266,5.475c2.797-3.298,4.958-7.143,6.414-11.489
		c1.332-3.955,2.037-8.216,2.123-12.648c0.078-4.261-0.431-8.553-1.535-12.773c-1.104-4.3-2.796-8.467-5.036-12.375
		c-1.958-3.446-4.308-6.602-6.97-9.39c-2.632-2.78-5.568-5.169-8.709-7.111c-3.273-2.021-6.72-3.532-10.244-4.464
		c-2.835-0.751-5.686-1.135-8.521-1.135c-0.955,0-1.941,0.039-2.913,0.141c-0.571,0.047-1.151,0.117-1.723,0.211
		c-0.58,0.094-1.159,0.196-1.755,0.321c-0.579,0.133-1.159,0.274-1.738,0.431c-0.596,0.172-1.175,0.353-1.754,0.564
		c-1.928,0.673-3.752,1.582-5.49,2.616c2.843,1.01,5.607,2.193,8.285,3.532C40.915,15.071,42.474,13.975,44.267,13.254z"/>
	
		<linearGradient id="SVGID_2_" gradientUnits="userSpaceOnUse" x1="-532.1621" y1="585.4834" x2="-524.8279" y2="585.4834" gradientTransform="matrix(-2.645 -2.645 2.645 -2.645 -2888.2747 177.116)">
		<stop  offset="0" style="stop-color:#84B54F"/>
		<stop  offset="1" style="stop-color:#36502D"/>
	</linearGradient>
	<path fill="url(#SVGID_2_)" d="M65.068,34.933c0.141-1.44,0.039-2.929-0.321-4.44c-0.353-1.559-0.971-3.078-1.833-4.527
		c-0.735-1.277-1.637-2.436-2.671-3.454c-0.994-0.987-2.106-1.833-3.281-2.491c-1.183-0.666-2.404-1.144-3.626-1.394
		c-0.744-0.165-1.48-0.251-2.192-0.251c-0.502,0-1.019,0.047-1.52,0.125c-0.157,0.032-0.345,0.071-0.518,0.11
		c-0.18,0.039-0.352,0.086-0.517,0.125c-0.172,0.055-0.345,0.11-0.524,0.18c-0.165,0.055-0.329,0.133-0.494,0.188
		c-0.587,0.274-1.111,0.595-1.605,0.971c7.182,4.582,13.479,10.393,18.625,17.144C64.817,36.491,64.989,35.739,65.068,34.933z"/>
	<path fill="#525780" d="M65.068,34.933c0.141-1.44,0.039-2.929-0.321-4.44c-0.353-1.559-0.971-3.078-1.833-4.527
		c-0.735-1.277-1.637-2.436-2.671-3.454c-0.994-0.987-2.106-1.833-3.281-2.491c-1.183-0.666-2.404-1.144-3.626-1.394
		c-0.744-0.165-1.48-0.251-2.192-0.251c-0.502,0-1.019,0.047-1.52,0.125c-0.157,0.032-0.345,0.071-0.518,0.11
		c-0.18,0.039-0.352,0.086-0.517,0.125c-0.172,0.055-0.345,0.11-0.524,0.18c-0.165,0.055-0.329,0.133-0.494,0.188
		c-0.587,0.274-1.111,0.595-1.605,0.971c7.182,4.582,13.479,10.393,18.625,17.144C64.817,36.491,64.989,35.739,65.068,34.933z"/>
</g>
</svg>
