<?xml version="1.0" encoding="utf-8"?>
<!-- Generator: Adobe Illustrator 18.1.0, SVG Export Plug-In . SVG Version: 6.00 Build 0)  -->
<svg version="1.1" id="Layer_1" xmlns="http://www.w3.org/2000/svg" xmlns:xlink="http://www.w3.org/1999/xlink" x="0px" y="0px"
	 viewBox="0 0 2000 2000" enable-background="new 0 0 2000 2000" xml:space="preserve">
<g>
	<g>
		<g>
			<path fill="#E44486" d="M992.5,994c0,0,3.2-63.3-47.4-164.5c-50.6-101.2-107.6-170.8-101.2-306.8
				c6.3-136,126.5-265.7,142.3-322.6c0,0,140,142.7,151.8,275.2c15.8,177.1-55.8,255.7-85.4,325.8
				C1017.8,883.3,992.5,984.5,992.5,994z"/>
			<path fill="#FF85C8" d="M1049.9,975.7c0,0,46.9-42.6,82.5-149.9c35.6-107.4,44.5-196.9,145-288.8
				c100.5-91.8,277.2-98.8,328.6-127.9c0,0-1.6,199.9-86.8,302c-113.9,136.6-220,141.7-290.5,170.4
				C1146,915.2,1056.6,969,1049.9,975.7z"/>
			<path fill="#C652B4" d="M1127.2,999.8c0,0,63.2,3.7,164.8-46.1c101.6-49.8,171.6-106.2,307.6-98.8
				c136,7.4,264.7,128.6,321.4,144.9c0,0-143.8,138.8-276.4,149.6c-177.3,14.4-255.3-57.8-325.1-88
				C1237.7,1026,1136.7,999.9,1127.2,999.8z"/>
			<path fill="#BF77CE" d="M1054.6,1029.7c0,0,42.7,46.8,150.2,82.1c107.5,35.3,197,43.9,289.1,144.1
				c92.1,100.3,99.6,276.9,128.9,328.3c0,0-199.9-1.1-302.3-86c-136.9-113.5-142.3-219.6-171.2-290
				C1115.4,1125.6,1061.3,1036.4,1054.6,1029.7z"/>
			<path fill="#CF9F24" d="M993.9,1006.4c0,0-1.5,63.3,51.7,163.1c53.3,99.8,112,167.9,109.3,304
				c-2.7,136.1-119.4,268.9-133.8,326.3c0,0-143.7-139-159-271.1c-20.5-176.6,49-257.1,76.8-327.9
				C971.5,1117.8,994.1,1015.9,993.9,1006.4z"/>
		</g>
		<g>
			<path fill="#D27E3D" d="M958.5,1020.9c0,0-47,42.6-82.6,150c-35.6,107.4-44.4,196.9-144.9,288.7
				c-100.5,91.9-277.2,98.8-328.6,128c0,0,1.6-199.9,86.8-302c113.8-136.6,220.1-141.7,290.5-170.4
				C862.3,1081.4,951.7,1027.6,958.5,1020.9z"/>
			<path fill="#5B8EDC" d="M881.1,996.8c0,0-63.2-3.7-164.8,46.1c-101.6,49.8-171.7,106.2-307.6,98.8
				C272.7,1134.3,144,1013,87.2,996.8c0,0,143.8-138.8,276.4-149.6c177.2-14.4,255.3,57.8,325.1,88
				C770.6,970.6,871.6,996.8,881.1,996.8z"/>
			<path fill="#97A822" d="M953.8,966.9c0,0-42.7-46.8-150.2-82.2c-107.5-35.3-197-43.8-289.1-144.1
				c-92.1-100.3-99.5-276.9-128.8-328.2c0,0,199.8,1.1,302.3,85.9c136.9,113.5,142.4,219.7,171.2,290C893,871,947,960.3,953.8,966.9
				z"/>
		</g>
	</g>
	<path fill="#C652B4" d="M1045.6,1169.5c-40.3-75.5-49.2-130.1-51.2-152.2c-4,20-14,60.2-27.4,100.5c-8,27.1-17.5,56-28.1,83
		c-8.9,22.7-22.1,46.5-35.3,74.1c-7.8,32.6-11.4,71.7-5.8,120.8c11.5,98.9,119,202.9,119,202.9c10.7-42.9,98.1-142.3,100.1-244.2
		c0.5-25.8-1.9-48.3-6.5-68.8C1091.2,1247.6,1068,1211.4,1045.6,1169.5z M904.7,1053.9c-34.4,19.3-80.6,43.1-125.1,61.2
		c-23.3,9.5-50.6,16.5-80.8,26.5c-25.6,16.4-52.6,39.1-80.1,72.1c-63.7,76.5-64.9,226-64.9,226c38.5-21.8,170.7-27,245.9-95.7
		c12.8-11.7,23.4-23.3,32.7-34.9c16.4-43.6,27.2-89,43.5-138.2c28-84.3,62.8-128.5,76.5-143.7
		C940.6,1034.3,923.9,1043.8,904.7,1053.9z M687.7,849.6c36.8,12.2,75,21.8,115.8,35.1c70.4,23.2,112.8,51.1,133.9,67.8
		c4.4,2.8,8.2,5.5,11.6,7.9c-15.5-23-60.3-100-89.9-172.1c-12.3-30.1-20.4-66.7-36.3-107.6c-14.4-18.3-32.3-37.1-55.3-56.2
		c-76.6-63.5-226.2-64.3-226.2-64.3c21.9,38.4,27.5,170.6,96.4,245.6C654.4,824.1,671,838.2,687.7,849.6z M1318.2,1146.1
		c-36-11.8-73.4-21.2-113.4-34.3c-63.9-21-104.7-46-127.5-62.8c-6.6-4-12.2-7.8-16.9-11.2c16.3,24.6,59.9,99.8,88.9,170.4
		c12.5,30.5,20.6,67.6,36.9,109.2c14.3,18.1,32,36.6,54.7,55.4c76.7,63.5,226.2,64.3,226.2,64.3c-21.9-38.4-27.5-170.6-96.4-245.6
		C1353.1,1172.4,1335.7,1157.8,1318.2,1146.1z M593.2,1106c40.4-18.4,78.7-41.4,123.1-63.1c101.6-49.8,164.8-46.1,164.8-46.1
		c-9.5-0.1-110.5-26.2-192.4-61.7c-28.6-12.3-58.7-31.7-96.3-49.4c-20.2-1.9-42.6-2.2-67.6-0.2c-99.2,8.1-206.8,112-206.8,112
		c42.5,12.1,138.8,102.9,240.6,108.4C570.7,1106.7,582.2,1106.6,593.2,1106z M1449.8,891.4c-13-0.7-25.2-0.6-36.7,0.1
		c-39.7,18.2-77.5,40.8-121,62.1c-101.6,49.8-164.8,46.1-164.8,46.1c9.4,0.1,110.5,26.2,192.4,61.7c29.1,12.6,59.8,32.5,98.4,50.4
		c19.7,1.8,41.3,2,65.5,0c99.2-8.1,206.8-111.9,206.8-111.9C1647.9,987.7,1551.6,897,1449.8,891.4z M1078.3,957.2
		c34.2-20.4,93.8-52.8,150.4-75.8c24.1-9.8,52.4-17,83.7-27.4c24.7-16.3,50.7-38.5,77.2-70.3c63.7-76.4,64.9-226,64.9-226
		c-38.5,21.8-170.7,27-245.9,95.8c-13.1,11.9-23.9,23.8-33.3,35.7c-16.1,43.1-26.8,88-42.9,136.5c-29.1,87.8-65.8,132.2-78.2,145.5
		C1060.7,967.3,1068.9,962.5,1078.3,957.2z M945,829.6c19.2,38.4,30.7,71.4,37.5,97.5c7.9,24.1,11,42.7,12.2,54.3
		c6.8-31.3,29.1-112.2,57.9-180.3c11.9-28.1,30.5-57.8,47.6-94.5c5.4-27.9,7.6-60.4,4.1-99.3c-8.8-99.1-113.6-205.9-113.6-205.9
		C978.9,444,888.9,541.1,884.1,642.9c-1.6,35.3,2.5,64.6,10.1,91.1C910.1,764.7,927.9,795.3,945,829.6z"/>
	<path fill="#FF85C8" d="M914.4,1048.4c-35.1,20.1-86,46.9-134.7,66.7c-13.7,5.6-28.8,10.3-45.1,15.2
		c-14.5,11.5-29.3,25.6-44.4,43.7c-51.9,62.3-52.9,184.1-52.9,184.1c31.3-17.8,139-22,200.3-78c2.5-2.3,4.7-4.5,7.1-6.8
		c10.3-32.6,19.3-66.6,31.2-102.5c27.2-82,60.9-126.1,75.4-142.4C941,1034.4,928.3,1041.4,914.4,1048.4z M1280.4,1134.6
		c-24.4-7.2-49.5-14.2-75.7-22.8c-70.4-23.1-112.9-51.2-133.9-67.8c-3.8-2.1-7.2-4.2-10.3-6.2c16.4,24.8,59.9,99.8,88.8,170.3
		c8.9,21.6,15.5,46.7,24.5,74.3c7,7,14.6,14.1,23.2,21.2c62.4,51.8,184.3,52.4,184.3,52.4c-17.9-31.3-22.4-139-78.6-200
		C1295.3,1147.9,1287.9,1140.9,1280.4,1134.6z M1045.6,1169.5c-38.3-71.8-48.2-124.6-50.8-148.6c-4.3,19.6-13,52.8-24.2,84.7
		c-8.7,30.5-19.5,64.2-31.7,95.3c-5.5,14.2-12.8,28.8-20.7,44.5c-3.2,21.9-4.1,47.2-0.6,77c9.4,80.5,96.9,165.2,96.9,165.2
		c8.7-35,79.9-115.9,81.5-198.9c0.2-11.7-0.4-22.6-1.5-32.8C1079,1228.1,1062.1,1200.4,1045.6,1169.5z M725.5,861.4
		c25.1,7.4,51,14.6,78,23.4c77.6,25.5,121.3,56.9,139.7,72.4c2.2,1.3,4.2,2.6,6.2,3.8c-15.1-22.2-60.5-100-90.3-172.6
		c-8.7-21.1-15.2-45.5-23.8-72.3c-7.2-7.3-15-14.5-23.9-21.9C748.9,642.5,627,641.8,627,641.8c17.9,31.3,22.4,138.9,78.6,200.1
		C712.3,849.1,718.9,855.6,725.5,861.4z M1371.8,912c-25.5,13.4-51.4,27.8-79.7,41.6c-101.6,49.8-164.8,46.1-164.8,46.1
		c9.4,0.1,110.5,26.2,192.4,61.7c18.5,8,37.7,19,59,30.5c5.2-0.2,10.4-0.4,15.9-0.9c80.8-6.6,168.5-91.2,168.5-91.2
		C1529.2,990.2,1453,919,1371.8,912z M881.1,996.8c-9.5-0.1-110.5-26.2-192.4-61.7c-17.9-7.7-36.3-18.2-56.8-29.3
		c-5.9,0.2-11.9,0.4-18.2,1c-80.8,6.6-168.5,91.2-168.5,91.2c33.7,9.6,108.9,79.6,189.2,87.6c26.2-13.7,52.8-28.5,81.9-42.8
		C817.9,993.1,881.1,996.8,881.1,996.8z M1071.9,961.2c32.7-19.9,96.5-55.1,156.8-79.7c14.5-5.9,30.5-10.8,47.8-16.1
		c13.6-11.1,27.5-24.6,41.6-41.5c51.9-62.3,52.8-184.1,52.8-184.1c-31.3,17.8-139,22-200.3,78c-2.7,2.5-5.2,5-7.7,7.4
		c-10.1,32.1-18.9,65.3-30.6,100.6c-28.8,86.9-65,131.3-77.8,145.1C1059.7,967.9,1065.6,964.6,1071.9,961.2z M945,829.6
		c20.9,41.7,32.5,76.9,39.1,104c6.6,18.5,9.8,33.4,11.4,44.1c7.7-33.7,29.3-111,57-176.5c8.6-20.4,20.9-41.7,33.4-65.8
		c1.5-16.5,1.5-34.8-0.3-55.2c-7.2-80.7-92.5-167.7-92.5-167.7c-9.7,34.7-82.9,113.7-86.8,196.6c-0.9,20.2,0.5,38,3.5,54.3
		C921.4,784.6,933.4,806.2,945,829.6z"/>
	<path fill="#E44486" d="M803.5,884.8c90.2,29.7,134.7,67.3,146.7,78.7c0.4,0.3,0.9,0.5,1.3,0.7c-12.2-16.8-61-99.1-92.5-175.7
		c-3-7.3-5.7-15.1-8.4-23.1c-48.3-31.2-127-31.7-127-31.7c12.7,22.3,16.5,96.7,53.5,142.9C785.9,879.2,794.6,881.9,803.5,884.8z
		 M945,829.6c23.3,46.7,35.2,85.1,41.2,113.2c5.1,12.8,8.1,23.6,9.9,32.1c8.2-35,29.4-109.9,56.4-173.8c3.7-8.9,8.2-17.9,13-27.2
		c-0.2-3.9-0.4-7.7-0.7-11.8C1059.5,702,996,637.3,996,637.3c-7.2,25.8-61.7,84.6-64.6,146.3c-0.3,7.1-0.2,13.7,0.2,20.1
		C936.1,812.1,940.6,820.7,945,829.6z M995.2,1024.3c-4.3,17.6-11.4,43.1-20.2,65.7c-9.4,34.3-21.8,74.4-36.1,110.8
		c-0.2,0.4-0.4,0.8-0.5,1.3c-0.5,11.4-0.2,23.8,1.4,37.6c7,59.9,72.1,122.9,72.1,122.9c6.4-25.7,58-84.7,60.5-145.6
		c-8.8-15.3-17.8-31-26.7-47.6C1009.1,1101,998.4,1049.7,995.2,1024.3z M1204.8,1111.8c-80.4-26.4-124.5-59.3-141.7-74.1
		c-1.5-0.8-2.8-1.5-4.2-2.2c14.9,22,60.5,99.9,90.4,172.8c3.3,8,6.3,16.6,9.2,25.4c48.4,30.7,126.2,31.2,126.2,31.2
		c-12.9-22.7-16.6-99.5-55.6-145.4C1221,1117,1213,1114.5,1204.8,1111.8z M1063.8,966.1c28.7-18.1,96.5-56.3,161.1-83
		c4.2-4.4,8.4-8.9,12.7-14.1c38.6-46.3,39.4-137,39.4-137c-20.2,11.5-83,15.4-129.1,43.3c-4.8,16.4-9.8,33.1-15.6,50.4
		c-29.1,87.7-65.7,132.1-78.1,145.5C1057.3,969.6,1060.5,967.8,1063.8,966.1z M1313.6,942.8c-7,3.6-14.2,7.3-21.5,10.9
		c-101.6,49.8-164.8,46.1-164.8,46.1c9.4,0.1,110.5,26.2,192.4,61.7c0.5,0.2,1,0.5,1.5,0.7c51.3-16.5,98.8-62.2,98.8-62.2
		C1399.8,994.2,1359.6,959.3,1313.6,942.8z M926.5,1041.4c-33.3,19.6-87.4,48.8-140,70.8c-5.3,5.2-10.6,10.9-15.9,17.3
		c-38.6,46.3-39.4,136.9-39.4,136.9c20.1-11.4,82.4-15.3,128.4-42.9c5-17.1,10.2-34.6,16.2-52.6c26.9-81,60.2-125.1,74.9-141.9
		C943.3,1033,935.1,1037.3,926.5,1041.4z M881.1,996.8c-9.4-0.1-109.8-26-191.6-61.3c-52.2,15.8-101.1,63-101.1,63
		c19.8,5.7,59.1,39.5,104.2,56.4c7.7-4,15.6-8,23.7-12C817.9,993.1,881.1,996.8,881.1,996.8z"/>
</g>
</svg>
