<?xml version="1.0" encoding="utf-8"?>
<!-- Generator: Adobe Illustrator 18.1.0, SVG Export Plug-In . SVG Version: 6.00 Build 0)  -->
<svg version="1.0" id="Layer_1" xmlns="http://www.w3.org/2000/svg" xmlns:xlink="http://www.w3.org/1999/xlink" x="0px" y="0px"
	 viewBox="0 0 150 150" enable-background="new 0 0 150 150" xml:space="preserve">
<g>
	<g>
		<path fill="#869F68" d="M108.9,86.1v1.4c5.7,1.8,8.9,3.8,8.9,5.6c0,4-15.7,9.5-41.4,9.5s-41.4-5.5-41.4-9.5c0-1.7,2.9-3.7,8.3-5.4
			v-1.4c-6,1.9-9.7,4.3-9.7,6.9c0,6,19.1,10.8,42.7,10.8c23.6,0,42.7-4.8,42.7-10.8C119.2,90.5,115.3,88,108.9,86.1z"/>
		<path fill="#738858" d="M105.6,96.4L105.6,96.4l-19.5,3v0l-3.8,0.6l-38.9-6.7v-5.5c-5.4,1.7-8.3,3.7-8.3,5.4
			c0,4,15.7,9.5,41.4,9.5s41.4-5.5,41.4-9.5c0-1.8-3.2-3.8-8.9-5.6v8.4L105.6,96.4z"/>
		<polygon fill="#403E40" points="97.2,48 95.6,49.5 102.9,55.1 108.9,68.3 108.9,68.8 111.5,68.8 112,68.2 104.8,54.3 		"/>
		<path fill="#C32026" d="M43.4,93.3l38.9,6.7V71.8L43.4,67v19.3v1.4V93.3z M77.1,75.9V87l-9.1-1.3V74.9L77.1,75.9z M65.4,74.3v11.1
			L56.4,84V73.2L65.4,74.3z M45.4,82.6V71.8l9.1,1v11.1L45.4,82.6z"/>
		<path fill="#EE2E2F" d="M102.9,55.1l-7.2-5.7l-7,6.6l-5.8,15.7l-0.3,0l-0.2,0V100l3.8-0.6V76.8l19.5-1.9v21.6l3.4-0.5v-8.4v-1.4
			V68.8v-0.5L102.9,55.1z M91.9,69.2V58.6l8.6-0.7v10.6L91.9,69.2z"/>
		<polygon fill="#403E40" points="82.5,71.8 88.4,55.9 88.6,55.7 46.4,52.6 46.3,52.7 41,66.7 43.4,67 82.3,71.8 		"/>
		<path fill="#AD1F23" d="M54.5,72.8l-9.1-1v10.8l9.1,1.3V72.8z M53.7,83.1L46.1,82v-9.4l7.6,0.9V83.1z"/>
		<path fill="#AD1F23" d="M56.4,84l9.1,1.3V74.3l-9.1-1.1V84z M57.1,74l7.6,0.9v9.6l-7.6-1.1V74z"/>
		<path fill="#AD1F23" d="M68.1,85.7l9.1,1.3V75.9l-9.1-1V85.7z M76.4,76.6v9.6L68.8,85v-9.4L76.4,76.6z"/>
		<polygon fill="#403E40" points="53,74.1 46.8,73.4 46.8,81.3 53,82.2 		"/>
		<polygon fill="#403E40" points="64,83.7 64,75.6 57.8,74.9 57.8,82.8 		"/>
		<polygon fill="#403E40" points="69.5,84.4 75.7,85.3 75.7,77.2 69.5,76.5 		"/>
		<path fill="#C32026" d="M100.5,57.9l-8.6,0.7v10.6l8.6-0.8V57.9z M99.8,67.8l-7.1,0.6v-9.1l7.1-0.6V67.8z"/>
		<polygon fill="#6D6F72" points="99.1,59.4 93.4,59.9 93.4,67.6 99.1,67.1 		"/>
		<path fill="#C32026" d="M105.6,96.4L105.6,96.4V74.9l-19.5,1.9v22.6v0L105.6,96.4z M86.8,77.5l0.5-0.1l0,0l8.4-0.8l0,0h0.1l0.4,0
			v0l0.1,0l0,0l8.5-0.9v20.9l-18,2.7v0V77.5z"/>
		<polygon fill="#818386" points="88.6,55.7 97.2,47.6 54.9,44.5 46.4,52.6 46.4,52.6 		"/>
		<path fill="#F3F5F5" d="M91.5,87.4l-4.6,11.8l0.5,0L91.7,88l4.5,9.6v0.2l0.6-0.1l0-0.3l3.7-10.1l4,9.2l0.4-0.1l-4.1-9.7l4.1-11.2
			l-0.5,0.1l-3.9,10.5l-4.1-9.7l0,0l-0.1,0v0l-0.4,0h-0.1l0,0l-4,10.3l-4.4-9.4l0,0l-0.5,0.1L91.5,87.4z M100.2,86.8l-3.5,9.4
			l-0.5-18.6L100.2,86.8z M95.8,77.5l0.4,18.9L92,87.4L95.8,77.5z"/>
	</g>
	<g>
		<path fill="#403E40" d="M75.9,139.9c-27,0-50.1-16.2-60.4-39.4c8.9,24.8,32.5,42.6,60.4,42.6c27.8,0,51.5-17.8,60.3-42.6
			C126,123.7,102.9,139.9,75.9,139.9z"/>
		<path fill="#403E40" d="M75.9,137.9c35.4,0,64.1-28.7,64.1-64.1c0-35.4-28.7-64.1-64.1-64.1c-35.4,0-64.2,28.7-64.2,64.1
			C11.8,109.2,40.5,137.9,75.9,137.9z M131.6,76.7c-1.6,29.5-25.8,52.9-55.7,53c-30.1-0.1-54.5-23.8-55.8-53.6
			c0-0.8-0.1-1.5-0.1-2.3C20.1,42.9,45,18,75.9,17.9c30.9,0.1,55.8,25,55.9,55.9C131.8,74.8,131.7,75.7,131.6,76.7z"/>
	</g>
</g>
</svg>
