<?xml version="1.0" encoding="utf-8"?>
<!-- Generator: Adobe Illustrator 18.1.0, SVG Export Plug-In . SVG Version: 6.00 Build 0)  -->
<svg version="1.1" id="Layer_1" xmlns="http://www.w3.org/2000/svg" xmlns:xlink="http://www.w3.org/1999/xlink" x="0px" y="0px"
	 viewBox="0 0 150 150" enable-background="new 0 0 150 150" xml:space="preserve">
<g>
	<g>
		<path fill="#29A9E1" d="M61.5,79.4c0,0,1.5,1.3,6.1,1.2c5.1,0,7.1-2.2,8.3-3.2c-0.1-1.9-3.2-5.6-3.2-5.6s-7,7.2-13.1,4.6
			c6.3-0.3,10.4-10.9,13.9-9.2c10.9,4.7,10.2,12.6,10.2,12.6h2c0,0,0.1-3.7,3.8-4.1c3.7-0.4,5.3,3.7,4.4,5.1c1.5,1.6,5,0.1,5,0.1
			l2,0.7c0.8-2.4,1.3-5,1.3-7.7c0-13.5-10.9-24.4-24.5-24.4c-13.5,0-24.5,10.9-24.5,24.4c0,2.4,0.4,4.7,1,6.9
			C57.6,80.6,61.5,79.4,61.5,79.4z"/>
		<path fill="#29A9E1" d="M84.4,84.2c0,0-4.6,0.9-10.8,0.3c-3.9,0.9-9.4,1.1-12.3-1.1c-1.6,1.3-3.7,1.8-5.4,1.9
			c4.1,7.7,12.2,13,21.6,13c9.9,0,18.5-5.9,22.3-14.4C94.5,84.9,84.4,84.2,84.4,84.2z"/>
	</g>
	<path fill="#8FBB83" d="M120.6,51C107.1,51,96.2,62,96.2,75.5c0,8.5,4.4,16,11,20.4c12.4-9.2,13.9-25.9,13.9-25.9
		c-6-1.2-5.3,5.5-3.5,9c-2.7-2-3.8-10.6,1.1-13.9c4.6-3.1,8.2-1.6,8.2-1.6s2.5,0.7,2.8,3.4c0.6,4.7,5.1,2.3,5.1,2.3s0.3,1.3-2.3,3.2
		c-1.1,0.8-3.4,0.2-3.4,0.2l-2,5c0,0,7.4,3.1,8.5,6.1c0.9,2.3-13.7,12-13.7,12l6.5-10.4c0,0,1.2-0.8-4.5-2.6
		c-3.8,6.4-10.8,12.2-15.6,14c3.6,2.1,7.8,3.3,12.3,3.3c13.5,0,24.5-10.9,24.5-24.5C145.1,62,134.1,51,120.6,51z M128.2,62.9
		c-1.7,0-3.1-1.4-3.1-3.1s1.4-3.1,3.1-3.1s3.1,1.4,3.1,3.1S130,62.9,128.2,62.9z"/>
	<g>
		<g>
			<circle fill="#F05A26" cx="43.2" cy="83.2" r="5.5"/>
		</g>
		<g>
			<path fill="#F05A26" d="M33.1,53C19.6,53,8.6,64,8.6,77.5c0,13.5,10.9,24.5,24.5,24.5S57.5,91,57.5,77.5C57.5,64,46.6,53,33.1,53
				z M43.2,89.9c-3.7,0-6.7-3-6.7-6.7s3-6.7,6.7-6.7l0,0c-0.1,0-0.4,0-1.2-0.1c-4.4-1.9-5.3-5.3-5.6-7.3c-1.7,0.2-2.7,0.5-3.3,0.9
				c1.4,0.5,5,2.8,4.2,4.3c-0.3,0.5-0.5,0.4-0.8,0.8l1.4,1.3l-7.2,7.1c-0.1,3.6-3,6.5-6.7,6.5c-3.7,0-6.7-3-6.7-6.7s3-6.7,6.7-6.7
				c3,0,5.5,2,6.4,4.7l2.2-4.9c0,0-7.7-3.4-6.3-6.3c3.8-6.4,10.4-5.9,12.1-5.5c-0.2-0.4-0.4-0.8-0.4-1.2c0-0.1,0-0.3,0-0.4
				c-0.2-0.6-0.2-2-0.2-2s0,0,2.3-0.1c2.3-0.1,3,1.8,3,1.8l-0.2,0.1c0.1,0.2,0.1,0.5,0.1,0.7c0,1.4-1.1,2.4-2.5,2.4
				c-0.7,0-1.3-0.3-1.8-0.7c-1,7.6,4.2,11.4,4.4,11.5c0.1,0,0,0,0,0c3.7,0,6.7,3,6.7,6.7S46.9,89.9,43.2,89.9z"/>
		</g>
		<g>
			<circle fill="#F05A26" cx="24" cy="83.2" r="5.5"/>
		</g>
	</g>
</g>
</svg>
