<?xml version="1.0" encoding="utf-8"?>
<!-- Generator: Adobe Illustrator 18.1.0, SVG Export Plug-In . SVG Version: 6.00 Build 0)  -->
<svg version="1.1" id="Layer_1" xmlns="http://www.w3.org/2000/svg" xmlns:xlink="http://www.w3.org/1999/xlink" x="0px" y="0px"
	 viewBox="0 0 150 150" enable-background="new 0 0 150 150" xml:space="preserve">
<g>
	<path fill="#FFBA73" d="M113.1,124.5c0,0.1,0,0.2,0,0.3C113.1,124.7,113.1,124.6,113.1,124.5z"/>
	<path fill="#FFBA73" d="M113.2,125.7C113.2,125.7,113.1,125.7,113.2,125.7C113.1,125.7,113.2,125.7,113.2,125.7z"/>
	<path fill="#FFBA73" d="M113.2,125c0,0.1,0,0.1,0,0.2C113.2,125.1,113.2,125,113.2,125z"/>
	<path fill="#FFBA73" d="M113.1,125.9C113,125.9,113,125.9,113.1,125.9C113,125.9,113,125.9,113.1,125.9z"/>
	<path fill="#FFBA73" d="M112.3,126.5c-0.1,0-0.1,0.1-0.2,0.1C112.1,126.6,112.2,126.5,112.3,126.5z"/>
	<path fill="#FFBA73" d="M111.9,126.7c-0.1,0-0.2,0.1-0.3,0.1C111.7,126.8,111.8,126.7,111.9,126.7z"/>
	<path fill="#FFBA73" d="M112.9,123.2c0,0.2,0,0.3,0.1,0.5C113,123.5,113,123.4,112.9,123.2z"/>
	<path fill="#FFBA73" d="M112.6,126.3c-0.1,0-0.1,0.1-0.2,0.1C112.5,126.4,112.6,126.3,112.6,126.3z"/>
	<path fill="#FFBA73" d="M113,123.9c0,0.1,0,0.3,0,0.4C113.1,124.1,113,124,113,123.9z"/>
	<path fill="#FFBA73" d="M112.9,126.1c0,0-0.1,0.1-0.1,0.1C112.8,126.2,112.8,126.1,112.9,126.1z"/>
	<path fill="#FFBA73" d="M134.8,110.8c0,0.1-0.1,0.2-0.2,0.4C134.7,111.1,134.7,111,134.8,110.8z"/>
	<path fill="#FFBA73" d="M134.6,111.3c-0.1,0.1-0.1,0.3-0.2,0.4c-0.8,0.4-1.8,0.2-2.7-1.6c-1-2-1.9-10.3-2.6-18.6
		c-0.2,0.2-0.5,0.4-0.8,0.6c-0.2,0.1-0.3,0.2-0.5,0.3c-0.1,0.1-0.3,0.1-0.4,0.2c0,0-0.1,0-0.1,0c-1.4,0.5-3.3,0.6-4.7,0.6
		c0,0,0,0,0,0c-2.4,0-5.1-0.3-7.4-1c-3.4-1-5.9-2.6-7.4-4.7c-4-1.2-8.5-2.3-14.4-2c-8.1,0.3-13.5,1.8-18.5,3.1
		c-1.5,1.8-3.7,3-6.7,3.7c-4.5,1-10.1,0.7-13.7-0.2c-0.2-0.1-0.4-0.1-0.6-0.2c0,0-0.1,0-0.1,0c-0.5-0.2-1-0.3-1.4-0.5
		c0,0,0.2,0,0.2,0C52.2,91.2,52,91.1,52,91v0c0-0.1-0.3-0.1-0.4-0.2c0.6,1.6-0.2,3.1-0.5,3.6c0.5,3.3-0.7,9.7-1.5,13.9
		c-1.1,5.8-4.8,17.5,1.8,18.6c6,1.1,10.4,0.8,12.8-0.9c-0.7,0.5-1.6,0.9-2.6,1.1c-0.2-0.5-0.3-1.1-0.3-1.6c0.1-3.3-0.9-18,2.3-23.5
		c3.2-5.6,6.5-1.5,6.5-1.5l-0.1,0.4c0,0,0,0,0,0c0.6-0.2,0.9-0.1,0.9,1.3c0,1.9-4.2,29.3-0.5,32.2c3.7,2.9,18.3,2,19.4-0.3
		c0-0.1,0.1-0.2,0.1-0.4c-1.9,1.6-5.8,2.6-6.8-0.1c-1.2-3.3-1.2-24.8,0.7-30.8c1.6-5,5-2.8,6.1-1.8c0,0,0,0,0,0c0.5,0,1.2-0.3,1.6,1
		c0.6,1.9-0.6,24.8,2.4,26.2c2.3,1.1,13.3,0.3,17.6-1.4c-0.1,0.1-0.3,0.1-0.4,0.2c-0.9-0.1-1.9-0.3-2.7-0.8
		c-2.5-1.5-4.3-18.6-2.3-24.2c1.6-4.5,3.2-2.2,3.8-1.2c0.2,1.1,2.3,16.1,3,22.3c-0.8-6.4-3-22.4-3-22.4s0.7-2,1.5-0.5
		c0.7,1.5,2.4,17.6,4.9,18.3C118.7,119.1,131.9,116.6,134.6,111.3z"/>
	<path fill="#FFBA73" d="M134.9,110.4c0,0.1-0.1,0.2-0.1,0.3C134.9,110.5,134.9,110.4,134.9,110.4z"/>
	<path fill="#FFBA73" d="M90,128C90,128,90,128,90,128C90,128,90,128,90,128z"/>
	<path fill="#FFBA73" d="M89.3,103.5c0,0.1,0,0.1,0,0.2C89.3,103.6,89.3,103.5,89.3,103.5z"/>
	<path fill="#FFBA73" d="M89.3,102.3c0,0.1,0,0.1,0,0.2C89.3,102.4,89.3,102.3,89.3,102.3z"/>
	<path fill="#FFBA73" d="M89.3,104.3c0,0,0,0.1,0,0.1C89.3,104.3,89.3,104.3,89.3,104.3z"/>
	<path fill="#FFBA73" d="M89.3,101.9c0,0,0,0.1,0,0.1C89.3,102,89.3,101.9,89.3,101.9z"/>
	<path fill="#FFBA73" d="M89.6,101.6c-0.1,0.1-0.2,0.1-0.3,0.1C89.4,101.7,89.5,101.6,89.6,101.6z"/>
	<path fill="#FFBA73" d="M89.3,105.2C89.3,105.2,89.3,105.2,89.3,105.2C89.3,105.2,89.3,105.2,89.3,105.2z"/>
	<path fill="#FFBA73" d="M89.4,101.7C89.4,101.7,89.3,101.7,89.4,101.7C89.3,101.7,89.4,101.7,89.4,101.7z"/>
	<path fill="#FFBA73" d="M90.2,130.2c0,0.2,0,0.4,0,0.6C90.2,130.6,90.2,130.4,90.2,130.2z"/>
	<path fill="#FFBA73" d="M90.2,132c0,0.2,0,0.4,0,0.5C90.2,132.3,90.2,132.1,90.2,132z"/>
	<path fill="#FFBA73" d="M90.1,132.7c0,0.2,0,0.3,0,0.5C90.1,133,90.1,132.8,90.1,132.7z"/>
	<path fill="#FFBA73" d="M90,129.1C90,129.1,90,129.1,90,129.1C90,129.1,90,129.1,90,129.1z"/>
	<path fill="#FFBA73" d="M90.1,133.2c0,0.1,0,0.2-0.1,0.4C90.1,133.5,90.1,133.4,90.1,133.2z"/>
	<path fill="#FFBA73" d="M90.2,131.1c0,0.2,0,0.4,0,0.6C90.2,131.5,90.2,131.3,90.2,131.1z"/>
	<path fill="#FFBA73" d="M89,103c0-0.1,0-0.1,0-0.2C89,102.9,89,102.9,89,103z"/>
	<path fill="#FFBA73" d="M13.7,90.2c-0.3-0.3-0.6-0.6-0.9-0.9C13,89.6,13.3,89.9,13.7,90.2z"/>
	<path fill="#FFBA73" d="M11.1,84.5c0-0.4,0-0.8,0-1.3C11.1,83.6,11.1,84,11.1,84.5z"/>
	<path fill="#FFBA73" d="M11.3,85.7c-0.1-0.4-0.1-0.8-0.2-1.2C11.1,84.9,11.2,85.3,11.3,85.7z"/>
	<path fill="#FFBA73" d="M11.1,83.2c0-0.4,0-0.9,0.1-1.3C11.1,82.3,11.1,82.7,11.1,83.2z"/>
	<path fill="#FFBA73" d="M13.7,83.5c2.3,2.1,25.7,1.2,33.1,3.7c1.3,0.4,2.2,0.9,2.9,1.5c-0.3-0.6-0.4-1.3-0.5-2.1c0,0,0-0.1,0-0.1
		c-2.5-0.3-4.5-0.9-5.6-1.6c-1.5-0.9-2.3-2.5-2.4-4.4c-0.1-2.1,0.8-4.6,2.5-7.2c-1.4-0.2-2.7-0.6-3.9-0.9c-1,1-2.2,2-3.3,2
		c-2.4,0-18,0.7-21.3,0.7c-1.8,0-3.7,3.3-4.1,7c0.1-0.4,0.1-0.9,0.2-1.3C11.9,81.5,12.6,82.5,13.7,83.5z"/>
	<path fill="#FFBA73" d="M50.4,92.6C50.4,92.6,50.4,92.6,50.4,92.6C50.4,92.6,50.4,92.6,50.4,92.6z"/>
	<path fill="#FFBA73" d="M50.2,92.4C50.2,92.4,50.3,92.4,50.2,92.4C50.3,92.4,50.2,92.4,50.2,92.4z"/>
	<path fill="#FFBA73" d="M11.6,87c-0.1-0.4-0.2-0.8-0.3-1.2C11.3,86.2,11.5,86.6,11.6,87z"/>
	<path fill="#FFBA73" d="M50.1,92.3C50.1,92.3,50,92.3,50.1,92.3C50,92.3,50.1,92.3,50.1,92.3z"/>
	<path fill="#FFBA73" d="M12.1,88.1c-0.2-0.4-0.3-0.7-0.5-1.1C11.7,87.4,11.9,87.8,12.1,88.1z"/>
	<path fill="#FFBA73" d="M12.8,89.2c-0.3-0.3-0.5-0.7-0.7-1C12.3,88.6,12.5,88.9,12.8,89.2z"/>
	<path fill="#FFBA73" d="M65,125.4c-0.2,0.2-0.4,0.3-0.6,0.5C64.6,125.8,64.8,125.6,65,125.4z"/>
	<path fill="#FFBA73" d="M69.9,101c-0.2,0.1-0.3,0.1-0.5,0.2C69.6,101.1,69.7,101,69.9,101z"/>
	<path fill="#556757" d="M113,123.7c0,0.1,0,0.1,0,0.2C113,123.8,113,123.8,113,123.7z"/>
	<path opacity="0.19" fill="#A58886" d="M113,123.7c0,0.1,0,0.1,0,0.2C113,123.8,113,123.8,113,123.7z"/>
	<path fill="#556757" d="M112.9,123c0,0.1,0,0.1,0,0.1C112.9,123.1,112.9,123.1,112.9,123z"/>
	<path opacity="0.19" fill="#A58886" d="M112.9,123c0,0.1,0,0.1,0,0.1C112.9,123.1,112.9,123.1,112.9,123z"/>
	<path fill="#556757" d="M112.1,126.6c0,0-0.1,0-0.1,0.1C112,126.7,112,126.6,112.1,126.6z"/>
	<path opacity="0.19" fill="#A58886" d="M112.1,126.6c0,0-0.1,0-0.1,0.1C112,126.7,112,126.6,112.1,126.6z"/>
	<path fill="#556757" d="M112.4,126.4c0,0-0.1,0.1-0.2,0.1C112.3,126.5,112.4,126.4,112.4,126.4z"/>
	<path opacity="0.19" fill="#A58886" d="M112.4,126.4c0,0-0.1,0.1-0.2,0.1C112.3,126.5,112.4,126.4,112.4,126.4z"/>
	<path fill="#556757" d="M113.1,124.3c0,0.1,0,0.2,0,0.2C113.1,124.4,113.1,124.3,113.1,124.3z"/>
	<path opacity="0.19" fill="#A58886" d="M113.1,124.3c0,0.1,0,0.2,0,0.2C113.1,124.4,113.1,124.3,113.1,124.3z"/>
	<path fill="#556757" d="M113.2,125.4c0,0.1,0,0.2,0,0.2C113.2,125.6,113.2,125.5,113.2,125.4z"/>
	<path opacity="0.19" fill="#A58886" d="M113.2,125.4c0,0.1,0,0.2,0,0.2C113.2,125.6,113.2,125.5,113.2,125.4z"/>
	<path fill="#556757" d="M112.7,126.2c0,0-0.1,0.1-0.1,0.1C112.7,126.3,112.7,126.2,112.7,126.2z"/>
	<path opacity="0.19" fill="#A58886" d="M112.7,126.2c0,0-0.1,0.1-0.1,0.1C112.7,126.3,112.7,126.2,112.7,126.2z"/>
	<path fill="#556757" d="M113.1,125.7c0,0,0,0.1-0.1,0.1C113.1,125.8,113.1,125.8,113.1,125.7z"/>
	<path opacity="0.19" fill="#A58886" d="M113.1,125.7c0,0,0,0.1-0.1,0.1C113.1,125.8,113.1,125.8,113.1,125.7z"/>
	<path fill="#556757" d="M111.6,126.8C111.6,126.8,111.5,126.8,111.6,126.8C111.5,126.8,111.6,126.8,111.6,126.8z"/>
	<path opacity="0.19" fill="#A58886" d="M111.6,126.8C111.6,126.8,111.5,126.8,111.6,126.8C111.5,126.8,111.6,126.8,111.6,126.8z"/>
	<path fill="#556757" d="M113.1,124.7c0,0.1,0,0.1,0,0.2C113.1,124.9,113.1,124.8,113.1,124.7z"/>
	<path opacity="0.19" fill="#A58886" d="M113.1,124.7c0,0.1,0,0.1,0,0.2C113.1,124.9,113.1,124.8,113.1,124.7z"/>
	<path fill="#556757" d="M113.2,125.1c0,0.1,0,0.2,0,0.3C113.2,125.3,113.2,125.3,113.2,125.1z"/>
	<path opacity="0.19" fill="#A58886" d="M113.2,125.1c0,0.1,0,0.2,0,0.3C113.2,125.3,113.2,125.3,113.2,125.1z"/>
	<path fill="#556757" d="M113,126c0,0-0.1,0.1-0.1,0.1C112.9,126,112.9,126,113,126z"/>
	<path opacity="0.19" fill="#A58886" d="M113,126c0,0-0.1,0.1-0.1,0.1C112.9,126,112.9,126,113,126z"/>
	<path fill="#556757" d="M134.8,110.6c0,0.1,0,0.1-0.1,0.2C134.8,110.8,134.8,110.7,134.8,110.6z"/>
	<path opacity="0.19" fill="#A58886" d="M134.8,110.6c0,0.1,0,0.1-0.1,0.2C134.8,110.8,134.8,110.7,134.8,110.6z"/>
	<path fill="#556757" d="M135,109.8c0,0.2-0.1,0.3-0.1,0.5C135,110.2,135,110,135,109.8z"/>
	<path opacity="0.19" fill="#A58886" d="M135,109.8c0,0.2-0.1,0.3-0.1,0.5C135,110.2,135,110,135,109.8z"/>
	<path fill="#556757" d="M134.6,111.2C134.6,111.2,134.6,111.2,134.6,111.2C134.6,111.2,134.6,111.2,134.6,111.2z"/>
	<path opacity="0.19" fill="#A58886" d="M134.6,111.2C134.6,111.2,134.6,111.2,134.6,111.2C134.6,111.2,134.6,111.2,134.6,111.2z"/>
	<path fill="#556757" d="M89.3,101.8c0,0,0,0.1,0,0.1C89.3,101.9,89.3,101.8,89.3,101.8z"/>
	<path opacity="0.19" fill="#A58886" d="M89.3,101.8c0,0,0,0.1,0,0.1C89.3,101.9,89.3,101.8,89.3,101.8z"/>
	<path fill="#556757" d="M90,101.4c-0.1,0.1-0.2,0.1-0.3,0.2C89.7,101.5,89.8,101.4,90,101.4z"/>
	<path opacity="0.19" fill="#A58886" d="M90,101.4c-0.1,0.1-0.2,0.1-0.3,0.2C89.7,101.5,89.8,101.4,90,101.4z"/>
	<path fill="#556757" d="M89.3,103.6c0,0.2,0,0.4,0,0.6C89.3,104,89.3,103.8,89.3,103.6z"/>
	<path opacity="0.19" fill="#A58886" d="M89.3,103.6c0,0.2,0,0.4,0,0.6C89.3,104,89.3,103.8,89.3,103.6z"/>
	<path fill="#556757" d="M90.2,132.5c0,0.1,0,0.1,0,0.2C90.2,132.6,90.2,132.5,90.2,132.5z"/>
	<path opacity="0.19" fill="#A58886" d="M90.2,132.5c0,0.1,0,0.1,0,0.2C90.2,132.6,90.2,132.5,90.2,132.5z"/>
	<path fill="#556757" d="M90.2,131.7c0,0.1,0,0.2,0,0.2C90.2,131.9,90.2,131.8,90.2,131.7z"/>
	<path opacity="0.19" fill="#A58886" d="M90.2,131.7c0,0.1,0,0.2,0,0.2C90.2,131.9,90.2,131.8,90.2,131.7z"/>
	<path fill="#556757" d="M90,133.7C90,133.7,90,133.6,90,133.7C90,133.6,90,133.7,90,133.7C90,133.7,90,133.7,90,133.7z"/>
	<path opacity="0.19" fill="#A58886" d="M90,133.7C90,133.7,90,133.6,90,133.7C90,133.6,90,133.7,90,133.7
		C90,133.7,90,133.7,90,133.7z"/>
	<path fill="#556757" d="M89.3,102c0,0.1,0,0.1,0,0.2C89.3,102.2,89.3,102.1,89.3,102z"/>
	<path opacity="0.19" fill="#A58886" d="M89.3,102c0,0.1,0,0.1,0,0.2C89.3,102.2,89.3,102.1,89.3,102z"/>
	<path fill="#556757" d="M90.2,130.7c0,0.1,0,0.3,0,0.4C90.2,131,90.2,130.9,90.2,130.7z"/>
	<path opacity="0.19" fill="#A58886" d="M90.2,130.7c0,0.1,0,0.3,0,0.4C90.2,131,90.2,130.9,90.2,130.7z"/>
	<path fill="#556757" d="M89.3,103.5c0-0.2,0-0.3,0-0.5C89.3,103.1,89.3,103.3,89.3,103.5z"/>
	<path opacity="0.19" fill="#A58886" d="M89.3,103.5c0-0.2,0-0.3,0-0.5C89.3,103.1,89.3,103.3,89.3,103.5z"/>
	<path fill="#556757" d="M90.1,133.1c0,0,0,0.1,0,0.1C90.1,133.2,90.1,133.2,90.1,133.1z"/>
	<path opacity="0.19" fill="#A58886" d="M90.1,133.1c0,0,0,0.1,0,0.1C90.1,133.2,90.1,133.2,90.1,133.1z"/>
	<path fill="#556757" d="M89.3,105.2c0.2,5.5,0.8,16,0.9,22.8C90.1,121.2,89.5,110.7,89.3,105.2z"/>
	<path opacity="0.19" fill="#A58886" d="M89.3,105.2c0.2,5.5,0.8,16,0.9,22.8C90.1,121.2,89.5,110.7,89.3,105.2z"/>
	<path fill="#556757" d="M89.3,104.4c0,0.3,0,0.5,0,0.8C89.3,104.9,89.3,104.6,89.3,104.4z"/>
	<path opacity="0.19" fill="#A58886" d="M89.3,104.4c0,0.3,0,0.5,0,0.8C89.3,104.9,89.3,104.6,89.3,104.4z"/>
	<path fill="#556757" d="M89.3,102.4c0,0.1,0,0.2,0,0.3C89.3,102.7,89.3,102.5,89.3,102.4z"/>
	<path opacity="0.19" fill="#A58886" d="M89.3,102.4c0,0.1,0,0.2,0,0.3C89.3,102.7,89.3,102.5,89.3,102.4z"/>
	<path fill="#556757" d="M90.2,129.2c0,0.3,0,0.7,0,1C90.2,129.9,90.2,129.5,90.2,129.2z"/>
	<path opacity="0.19" fill="#A58886" d="M90.2,129.2c0,0.3,0,0.7,0,1C90.2,129.9,90.2,129.5,90.2,129.2z"/>
	<path fill="#556757" d="M90.2,128c0,0.4,0,0.7,0,1C90.2,128.7,90.2,128.4,90.2,128z"/>
	<path opacity="0.19" fill="#A58886" d="M90.2,128c0,0.4,0,0.7,0,1C90.2,128.7,90.2,128.4,90.2,128z"/>
	<path fill="#556757" d="M12.8,89.2C12.8,89.2,12.8,89.2,12.8,89.2C12.8,89.2,12.8,89.2,12.8,89.2z"/>
	<path opacity="0.19" fill="#A58886" d="M12.8,89.2C12.8,89.2,12.8,89.2,12.8,89.2C12.8,89.2,12.8,89.2,12.8,89.2z"/>
	<path fill="#556757" d="M11.6,87C11.6,87,11.6,87,11.6,87C11.6,87,11.6,87,11.6,87z"/>
	<path opacity="0.19" fill="#A58886" d="M11.6,87C11.6,87,11.6,87,11.6,87C11.6,87,11.6,87,11.6,87z"/>
	<path fill="#556757" d="M12.1,88.2C12.1,88.2,12.1,88.2,12.1,88.2C12.1,88.2,12.1,88.2,12.1,88.2z"/>
	<path opacity="0.19" fill="#A58886" d="M12.1,88.2C12.1,88.2,12.1,88.2,12.1,88.2C12.1,88.2,12.1,88.2,12.1,88.2z"/>
	<path fill="#556757" d="M50,92.3c-0.1,0-0.2-0.1-0.2-0.1C49.9,92.2,49.9,92.2,50,92.3z"/>
	<path opacity="0.19" fill="#A58886" d="M50,92.3c-0.1,0-0.2-0.1-0.2-0.1C49.9,92.2,49.9,92.2,50,92.3z"/>
	<path fill="#556757" d="M50.2,92.4c-0.1,0-0.1-0.1-0.2-0.1C50.1,92.3,50.2,92.4,50.2,92.4z"/>
	<path opacity="0.19" fill="#A58886" d="M50.2,92.4c-0.1,0-0.1-0.1-0.2-0.1C50.1,92.3,50.2,92.4,50.2,92.4z"/>
	<path fill="#556757" d="M51,94.4C51,94.4,51,94.4,51,94.4c-0.1-0.8-0.3-1.4-0.6-1.8C50.7,93,50.9,93.7,51,94.4z"/>
	<path opacity="0.19" fill="#A58886" d="M51,94.4C51,94.4,51,94.4,51,94.4c-0.1-0.8-0.3-1.4-0.6-1.8C50.7,93,50.9,93.7,51,94.4z"/>
	<path fill="#556757" d="M11.1,84.5C11.1,84.5,11.1,84.5,11.1,84.5C11.1,84.5,11.1,84.5,11.1,84.5z"/>
	<path opacity="0.19" fill="#A58886" d="M11.1,84.5C11.1,84.5,11.1,84.5,11.1,84.5C11.1,84.5,11.1,84.5,11.1,84.5z"/>
	<path fill="#556757" d="M11.3,85.8C11.3,85.8,11.3,85.8,11.3,85.8C11.3,85.8,11.3,85.8,11.3,85.8z"/>
	<path opacity="0.19" fill="#A58886" d="M11.3,85.8C11.3,85.8,11.3,85.8,11.3,85.8C11.3,85.8,11.3,85.8,11.3,85.8z"/>
	<path fill="#556757" d="M50.3,92.5c0.1,0.1,0.1,0.1,0.2,0.2C50.4,92.6,50.3,92.5,50.3,92.5z"/>
	<path opacity="0.19" fill="#A58886" d="M50.3,92.5c0.1,0.1,0.1,0.1,0.2,0.2C50.4,92.6,50.3,92.5,50.3,92.5z"/>
	<path fill="#556757" d="M11.2,81.9C11.2,81.9,11.2,81.9,11.2,81.9C11.2,81.9,11.2,81.9,11.2,81.9z"/>
	<path opacity="0.19" fill="#A58886" d="M11.2,81.9C11.2,81.9,11.2,81.9,11.2,81.9C11.2,81.9,11.2,81.9,11.2,81.9z"/>
	<path fill="#556757" d="M11.1,83.2C11.1,83.2,11.1,83.2,11.1,83.2C11.1,83.2,11.1,83.2,11.1,83.2z"/>
	<path opacity="0.19" fill="#A58886" d="M11.1,83.2C11.1,83.2,11.1,83.2,11.1,83.2C11.1,83.2,11.1,83.2,11.1,83.2z"/>
	<path fill="#556757" d="M64.4,125.9c0,0-0.1,0.1-0.1,0.1C64.3,126,64.4,126,64.4,125.9z"/>
	<path opacity="0.19" fill="#A58886" d="M64.4,125.9c0,0-0.1,0.1-0.1,0.1C64.3,126,64.4,126,64.4,125.9z"/>
	<path fill="#556757" d="M70.1,100.9c-0.1,0-0.1,0.1-0.2,0.1C70,100.9,70.1,100.9,70.1,100.9z"/>
	<path opacity="0.19" fill="#A58886" d="M70.1,100.9c-0.1,0-0.1,0.1-0.2,0.1C70,100.9,70.1,100.9,70.1,100.9z"/>
	<path fill="#FFBA73" d="M106.1,101.9c-2,5.6-0.3,22.7,2.3,24.2c0.9,0.5,1.8,0.8,2.7,0.8c0.1,0,0.3-0.1,0.4-0.2c0,0,0.1,0,0.1,0
		c0.1,0,0.2-0.1,0.3-0.1c0,0,0.1,0,0.1-0.1c0.1,0,0.2-0.1,0.2-0.1c0.1,0,0.1-0.1,0.2-0.1c0.1,0,0.1-0.1,0.2-0.1c0,0,0.1-0.1,0.1-0.1
		c0,0,0.1-0.1,0.1-0.1c0,0,0.1-0.1,0.1-0.1c0,0,0.1-0.1,0.1-0.1c0,0,0.1-0.1,0.1-0.1c0,0,0-0.1,0-0.1c0-0.1,0-0.1,0-0.2
		c0-0.1,0-0.2,0-0.3c0,0,0-0.1,0-0.2c0-0.1,0-0.1,0-0.2c0-0.1,0-0.2,0-0.3c0-0.1,0-0.1,0-0.2c0-0.1,0-0.2,0-0.4c0-0.1,0-0.1,0-0.2
		c0-0.2,0-0.3-0.1-0.5c0,0,0-0.1,0-0.1c-0.8-6.2-2.9-21.2-3-22.3C109.4,99.7,107.7,97.4,106.1,101.9z"/>
	<path opacity="0.19" fill="#A58886" d="M106.1,101.9c-2,5.6-0.3,22.7,2.3,24.2c0.9,0.5,1.8,0.8,2.7,0.8c0.1,0,0.3-0.1,0.4-0.2
		c0,0,0.1,0,0.1,0c0.1,0,0.2-0.1,0.3-0.1c0,0,0.1,0,0.1-0.1c0.1,0,0.2-0.1,0.2-0.1c0.1,0,0.1-0.1,0.2-0.1c0.1,0,0.1-0.1,0.2-0.1
		c0,0,0.1-0.1,0.1-0.1c0,0,0.1-0.1,0.1-0.1c0,0,0.1-0.1,0.1-0.1c0,0,0.1-0.1,0.1-0.1c0,0,0.1-0.1,0.1-0.1c0,0,0-0.1,0-0.1
		c0-0.1,0-0.1,0-0.2c0-0.1,0-0.2,0-0.3c0,0,0-0.1,0-0.2c0-0.1,0-0.1,0-0.2c0-0.1,0-0.2,0-0.3c0-0.1,0-0.1,0-0.2c0-0.1,0-0.2,0-0.4
		c0-0.1,0-0.1,0-0.2c0-0.2,0-0.3-0.1-0.5c0,0,0-0.1,0-0.1c-0.8-6.2-2.9-21.2-3-22.3C109.4,99.7,107.7,97.4,106.1,101.9z"/>
	<path fill="#FFBA73" d="M134.3,111.7c0.1-0.1,0.2-0.3,0.2-0.4c0,0,0-0.1,0-0.1c0.1-0.1,0.1-0.2,0.2-0.4c0-0.1,0-0.1,0.1-0.2
		c0-0.1,0.1-0.2,0.1-0.3c0-0.2,0.1-0.3,0.1-0.5c0.3-3,0.6-12.7,0.1-22.8c-1,0.5-2.6,0.9-4.4,1c0,0-0.1,0.1-0.1,0.1
		c0,0.1,0,0.2,0,0.3c0,0.4-0.1,0.8-0.3,1.2c-0.3,0.8-0.7,1.4-1.2,1.9c0.7,8.3,1.6,16.6,2.6,18.6
		C132.6,111.9,133.5,112.1,134.3,111.7z"/>
	<path opacity="0.19" fill="#A58886" d="M134.3,111.7c0.1-0.1,0.2-0.3,0.2-0.4c0,0,0-0.1,0-0.1c0.1-0.1,0.1-0.2,0.2-0.4
		c0-0.1,0-0.1,0.1-0.2c0-0.1,0.1-0.2,0.1-0.3c0-0.2,0.1-0.3,0.1-0.5c0.3-3,0.6-12.7,0.1-22.8c-1,0.5-2.6,0.9-4.4,1
		c0,0-0.1,0.1-0.1,0.1c0,0.1,0,0.2,0,0.3c0,0.4-0.1,0.8-0.3,1.2c-0.3,0.8-0.7,1.4-1.2,1.9c0.7,8.3,1.6,16.6,2.6,18.6
		C132.6,111.9,133.5,112.1,134.3,111.7z"/>
	<path fill="#FFBA73" d="M133.7,73.2c-0.6-3.8-1.4-7.1-2.5-9.5c-1.2,1-2.4,1.8-3.8,2.4c0.3,0.3,0.6,0.6,0.9,0.9
		C130.5,69.1,132.3,71.2,133.7,73.2z"/>
	<path opacity="0.19" fill="#A58886" d="M133.7,73.2c-0.6-3.8-1.4-7.1-2.5-9.5c-1.2,1-2.4,1.8-3.8,2.4c0.3,0.3,0.6,0.6,0.9,0.9
		C130.5,69.1,132.3,71.2,133.7,73.2z"/>
	<path fill="#FFBA73" d="M83.9,102.8c-1.9,6-1.9,27.4-0.7,30.7c1,2.7,4.9,1.8,6.8,0.1c0,0,0,0,0-0.1c0-0.1,0-0.2,0.1-0.3
		c0,0,0-0.1,0-0.1c0-0.1,0-0.3,0-0.5c0-0.1,0-0.1,0-0.2c0-0.2,0-0.3,0-0.5c0-0.1,0-0.2,0-0.2c0-0.2,0-0.4,0-0.6c0-0.1,0-0.3,0-0.4
		c0-0.2-0.1-0.4-0.1-0.6c0-0.3-0.1-0.7-0.1-1c0,0,0-0.1,0-0.1c0-0.3,0-0.7,0-1c0,0,0,0,0,0c0-6.8-0.6-17.3-0.8-22.8
		c0,0,0.1,0,0.1-0.1c0-0.3,0-0.5,0-0.8c0,0,0-0.1,0-0.1c0-0.2,0-0.4,0-0.6c0-0.1-0.1-0.1-0.1-0.2c0-0.2-0.1-0.3-0.1-0.5
		c0-0.1,0-0.1,0-0.2c0-0.1,0.1-0.2,0.1-0.3c0-0.1,0.1-0.1,0.1-0.2c0-0.1,0-0.2,0-0.2c0-0.1,0-0.1,0-0.1c0,0,0-0.1,0-0.1
		c0-0.1,0-0.1,0-0.1c0.1,0,0.2-0.3,0.3-0.3c0.1-0.1,0.2-0.4,0.3-0.4c0,0,0,0,0,0C88.9,100,85.5,97.8,83.9,102.8z"/>
	<path opacity="0.19" fill="#A58886" d="M83.9,102.8c-1.9,6-1.9,27.4-0.7,30.7c1,2.7,4.9,1.8,6.8,0.1c0,0,0,0,0-0.1
		c0-0.1,0-0.2,0.1-0.3c0,0,0-0.1,0-0.1c0-0.1,0-0.3,0-0.5c0-0.1,0-0.1,0-0.2c0-0.2,0-0.3,0-0.5c0-0.1,0-0.2,0-0.2c0-0.2,0-0.4,0-0.6
		c0-0.1,0-0.3,0-0.4c0-0.2-0.1-0.4-0.1-0.6c0-0.3-0.1-0.7-0.1-1c0,0,0-0.1,0-0.1c0-0.3,0-0.7,0-1c0,0,0,0,0,0
		c0-6.8-0.6-17.3-0.8-22.8c0,0,0.1,0,0.1-0.1c0-0.3,0-0.5,0-0.8c0,0,0-0.1,0-0.1c0-0.2,0-0.4,0-0.6c0-0.1-0.1-0.1-0.1-0.2
		c0-0.2-0.1-0.3-0.1-0.5c0-0.1,0-0.1,0-0.2c0-0.1,0.1-0.2,0.1-0.3c0-0.1,0.1-0.1,0.1-0.2c0-0.1,0-0.2,0-0.2c0-0.1,0-0.1,0-0.1
		c0,0,0-0.1,0-0.1c0-0.1,0-0.1,0-0.1c0.1,0,0.2-0.3,0.3-0.3c0.1-0.1,0.2-0.4,0.3-0.4c0,0,0,0,0,0C88.9,100,85.5,97.8,83.9,102.8z"/>
	<path fill="#FFBA73" d="M51.4,90.8c-0.8-0.6-1.3-1.3-1.7-2.2c-0.7-0.5-1.7-1-2.9-1.5c-7.4-2.5-30.9-1.6-33.1-3.7
		c-1-1-1.8-2-2.3-2.9c-0.1,0.4-0.2,0.8-0.2,1.3c0,0,0,0,0,0c-0.1,0.4-0.1,0.9-0.1,1.3c0,0,0,0,0,0c0,0.4,0,0.8,0,1.3c0,0,0,0,0,0.1
		c0,0.4,0.1,0.8,0.2,1.2c0,0,0,0,0,0.1c0.1,0.4,0.2,0.8,0.3,1.2c0,0,0,0,0,0.1c0.1,0.4,0.3,0.8,0.5,1.1c0,0,0,0,0,0.1
		c0.2,0.4,0.4,0.7,0.7,1c0,0,0,0,0,0c0.3,0.3,0.6,0.6,0.9,0.9c5.1,4.4,33.5,1.5,36.1,2c0.1,0,0.2,0,0.2,0.1c0,0,0,0,0.1,0
		c0.1,0,0.1,0.1,0.2,0.1c0,0,0,0,0,0c0.1,0.1,0.1,0.1,0.2,0.2c0,0,0,0,0,0c0.3,0.4,0.5,1,0.6,1.8C51.3,93.9,52,92.4,51.4,90.8z"/>
	<path opacity="0.19" fill="#A58886" d="M51.4,90.8c-0.8-0.6-1.3-1.3-1.7-2.2c-0.7-0.5-1.7-1-2.9-1.5c-7.4-2.5-30.9-1.6-33.1-3.7
		c-1-1-1.8-2-2.3-2.9c-0.1,0.4-0.2,0.8-0.2,1.3c0,0,0,0,0,0c-0.1,0.4-0.1,0.9-0.1,1.3c0,0,0,0,0,0c0,0.4,0,0.8,0,1.3c0,0,0,0,0,0.1
		c0,0.4,0.1,0.8,0.2,1.2c0,0,0,0,0,0.1c0.1,0.4,0.2,0.8,0.3,1.2c0,0,0,0,0,0.1c0.1,0.4,0.3,0.8,0.5,1.1c0,0,0,0,0,0.1
		c0.2,0.4,0.4,0.7,0.7,1c0,0,0,0,0,0c0.3,0.3,0.6,0.6,0.9,0.9c5.1,4.4,33.5,1.5,36.1,2c0.1,0,0.2,0,0.2,0.1c0,0,0,0,0.1,0
		c0.1,0,0.1,0.1,0.2,0.1c0,0,0,0,0,0c0.1,0.1,0.1,0.1,0.2,0.2c0,0,0,0,0,0c0.3,0.4,0.5,1,0.6,1.8C51.3,93.9,52,92.4,51.4,90.8z"/>
	<path fill="#FFBA73" d="M70.2,100.5c0,0-3.3-4.1-6.5,1.5c-3.2,5.6-2.1,20.2-2.3,23.5c0,0.6,0.1,1.1,0.3,1.6c1-0.3,1.9-0.6,2.6-1.1
		c0,0,0.1-0.1,0.1-0.1c0.2-0.2,0.4-0.3,0.6-0.5c2.2-2.2,3.3-23.7,4.4-24.2c0.2-0.1,0.4-0.2,0.5-0.2c0.1,0,0.1-0.1,0.2-0.1
		c0,0,0,0,0,0L70.2,100.5z"/>
	<path opacity="0.19" fill="#A58886" d="M70.2,100.5c0,0-3.3-4.1-6.5,1.5c-3.2,5.6-2.1,20.2-2.3,23.5c0,0.6,0.1,1.1,0.3,1.6
		c1-0.3,1.9-0.6,2.6-1.1c0,0,0.1-0.1,0.1-0.1c0.2-0.2,0.4-0.3,0.6-0.5c2.2-2.2,3.3-23.7,4.4-24.2c0.2-0.1,0.4-0.2,0.5-0.2
		c0.1,0,0.1-0.1,0.2-0.1c0,0,0,0,0,0L70.2,100.5z"/>
	<path fill="#FFBA73" d="M107.6,87.5c-0.3-0.4-0.5-0.8-0.8-1.2c-0.2-0.3-0.3-0.6-0.5-0.9c-2.4-0.7-5-1.3-8.1-1.6
		c-1.3,0.2-2.7,0.3-4.2,0.3c-2.5,0.1-4.8,0.1-6.9,0c-4.3,0.5-7.8,1.3-11,2.1c-0.2,0.4-0.5,0.8-0.7,1.3c-0.2,0.4-0.5,0.7-0.8,1.1
		c5-1.3,10.4-2.7,18.5-3.1C99.1,85.2,103.6,86.3,107.6,87.5z"/>
	<path opacity="0.58" fill="#A58886" d="M107.6,87.5c-0.3-0.4-0.5-0.8-0.8-1.2c-0.2-0.3-0.3-0.6-0.5-0.9c-2.4-0.7-5-1.3-8.1-1.6
		c-1.3,0.2-2.7,0.3-4.2,0.3c-2.5,0.1-4.8,0.1-6.9,0c-4.3,0.5-7.8,1.3-11,2.1c-0.2,0.4-0.5,0.8-0.7,1.3c-0.2,0.4-0.5,0.7-0.8,1.1
		c5-1.3,10.4-2.7,18.5-3.1C99.1,85.2,103.6,86.3,107.6,87.5z"/>
	<path fill="#FFBA73" d="M130.5,88C130.5,88,130.5,88,130.5,88c0,0.1,0.1,0,0.1,0C130.6,88,130.6,88,130.5,88z"/>
	<path opacity="0.19" fill="#A58886" d="M130.5,88C130.5,88,130.5,88,130.5,88c0,0.1,0.1,0,0.1,0C130.6,88,130.6,88,130.5,88z"/>
	<path opacity="0.58" fill="#A58886" d="M130.5,88C130.5,88,130.5,88,130.5,88c0,0.1,0.1,0,0.1,0C130.6,88,130.6,88,130.5,88z"/>
	<path fill="#FFBA73" d="M105,82.5c-2,0.6-4.2,1-6.7,1.3c3,0.3,5.6,0.9,8.1,1.6C105.8,84.4,105.4,83.4,105,82.5z"/>
	<path opacity="0.58" fill="#A58886" d="M105,82.5c-2,0.6-4.2,1-6.7,1.3c3,0.3,5.6,0.9,8.1,1.6C105.8,84.4,105.4,83.4,105,82.5z"/>
	<path opacity="0.58" fill="#A58886" d="M105,82.5c-2,0.6-4.2,1-6.7,1.3c3,0.3,5.6,0.9,8.1,1.6C105.8,84.4,105.4,83.4,105,82.5z"/>
	<path fill="#FFBA73" d="M78,82.5c-0.5,1.2-1.1,2.4-1.8,3.7c3.2-0.8,6.7-1.6,11-2.1C83.5,83.8,80.5,83.3,78,82.5z"/>
	<path opacity="0.58" fill="#A58886" d="M78,82.5c-0.5,1.2-1.1,2.4-1.8,3.7c3.2-0.8,6.7-1.6,11-2.1C83.5,83.8,80.5,83.3,78,82.5z"/>
	<path opacity="0.58" fill="#A58886" d="M78,82.5c-0.5,1.2-1.1,2.4-1.8,3.7c3.2-0.8,6.7-1.6,11-2.1C83.5,83.8,80.5,83.3,78,82.5z"/>
	<path fill="#556757" d="M137.3,80.4c-0.7-7.3-1.9-14.3-4.1-18.5c4.8-5.2,6.9-12.2,6.9-13.8c0-0.6,0-2.3-1.5-3.2
		c-1.7-1-3.1-0.2-5.6,1.1l-3.2,1.7c-0.4,0.2-0.8,0.4-1.2,0.6c-1.7-5.6-5-11.9-9.8-17.2c-5.5-6-15.1-13-29.9-12.8
		C72.4,18.3,61,28.3,54.1,37.3c-0.4,0.1-0.8,0.3-1.2,0.4c-3.3,1.4-5,3.8-5.9,6.3c-0.3-0.1-0.6-0.3-0.8-0.4c-0.6-0.4-0.9-1-0.9-1.7
		c0-0.4-0.1-0.7-0.2-1.1c0-0.1,0-0.2,0-0.2c-0.1-0.3-0.1-0.6-0.2-0.9c0-0.1,0-0.1,0-0.2c-0.9-3.2-2.8-6.1-5.5-8.2c0,0,0,0-0.1,0
		c-0.2-0.2-0.5-0.4-0.8-0.5c-0.1-0.1-0.2-0.1-0.3-0.2c-0.2-0.1-0.4-0.2-0.6-0.3c-0.1-0.1-0.3-0.1-0.4-0.2c0,0-0.1,0-0.1-0.1
		c0,0-0.1,0-0.1-0.1c-0.4-0.2-0.9-0.4-1.4-0.6c-0.1,0-0.1-0.1-0.2-0.1c-0.4-0.2-0.8-0.3-1.2-0.4c-0.1,0-0.1,0-0.2-0.1
		c-0.1,0-0.3-0.1-0.4-0.1c-0.4-0.1-0.9-0.2-1.3-0.2c-0.1,0-0.1,0-0.2,0c-0.5-0.1-1-0.1-1.5-0.1c-0.1,0-0.2,0-0.2,0
		c-4.4,0-8.5,2.1-11.5,5.9c-3.6,4.6-3.5,12.3,0.2,20c3.1,6.3,9.2,13.5,18,17.1c-0.2,0.2-0.4,0.3-0.6,0.3c-0.2,0-9.2,0.3-9.2,0.3
		c-4.8,0.2-10.3,0.4-12,0.4c-1.6,0-3.1,0.9-4.3,2.6l-0.8-1.3L8.8,80c0,0,0,0.1,0,0.1c-0.1,0.5-0.2,1.1-0.3,1.6c0,0,0,0.1,0,0.1
		c-0.1,0.6-0.1,1.1-0.1,1.7c0,0,0,0.1,0,0.1c0,0,0,0,0,0c0,0.5,0,1,0.1,1.5c0,0.1,0,0.2,0,0.4c0.1,0.5,0.1,0.9,0.3,1.4
		c0,0,0,0.1,0,0.1c0.1,0.5,0.3,1,0.5,1.4c0,0,0,0.1,0.1,0.1c0.2,0.4,0.4,0.8,0.6,1.1c0.1,0.1,0.1,0.2,0.2,0.3
		c0.2,0.3,0.4,0.6,0.7,0.9c0.1,0.1,0.1,0.2,0.2,0.3c0.3,0.4,0.6,0.7,1,1c4.2,3.6,17.2,3.4,31.3,2.8c0.4,0,0.8,0,1.2,0
		c1.5-0.1,3-0.1,4-0.1c0,0,0,0.3,0.1,0.7c0,0.2,0,0.4,0,0.7c0,1.9-0.3,5.3-1.5,11.6l-0.5,2.6c-0.7,3.2-1.5,6.9-1.5,10.2
		c0,2.3,0.4,4.5,1.5,6.1c1,1.6,2.6,2.6,4.5,2.9c3.5,0.6,6.5,0.8,9,0.5l0.1,0.2l2.3-0.6c1.6-0.4,3-1.1,4-1.9c0.1,4.9,0.9,7.5,2.5,8.7
		c3.9,3.1,14.3,2.7,18.8,1.6c2.6-0.6,4-1.5,4.7-2.9l0.1-0.1l0.2-0.9c0.1-0.7,0.2-1.9,0.2-3.5c3,1.4,13,0.6,18.5-1.1l0.1,0l0.5-0.2
		c0.4-0.2,0.8-0.3,1.2-0.5c0.4-0.2,0.7-0.3,1-0.5c0.6-0.4,1-0.8,1.2-1.2c0.1-0.1,0.1-0.2,0.2-0.3c0-0.1,0.1-0.1,0.1-0.2
		c0.1-0.1,0.1-0.3,0.2-0.5c0-0.1,0-0.2,0.1-0.3c0-0.1,0-0.1,0-0.2c0-0.1,0-0.3,0-0.4c0-0.1,0.1-0.2,0.1-0.2c0-0.1,0.1-0.2,0.1-0.3
		c0,0,0,0,0,0c0-0.7-0.3-2.2-0.6-4c0.1,0,0.1,0.1,0.2,0.1c2.9,0.8,12.4-1.1,17.6-4.7c1.2-0.8,2.1-1.7,2.8-2.6l0.1,0l0.4-0.7
		c0,0,0,0,0,0c0.1-0.2,0.3-0.4,0.4-0.6c0,0,0-0.1,0.1-0.1c0.1-0.2,0.2-0.4,0.3-0.6c0-0.1,0.1-0.2,0.1-0.2c0.1-0.2,0.1-0.3,0.1-0.5
		c0.1-0.3,0.1-0.5,0.1-0.8c0.2-1.8,0.8-14.6-0.1-27.1C137.6,82.2,137.5,81.3,137.3,80.4z M128.3,67c-0.3-0.3-0.6-0.6-0.9-0.9
		c1.4-0.6,2.7-1.5,3.8-2.4c1.1,2.4,1.9,5.7,2.5,9.5C132.3,71.2,130.5,69.1,128.3,67z M20.9,35.8c3.3-4.3,7.9-5.5,12-4.6
		c0,0,0.1,0,0.1,0c0.2,0,0.4,0.1,0.6,0.2c0,0,0.1,0,0.1,0c0.9,0.3,1.7,0.6,2.5,1c0.1,0,0.1,0.1,0.2,0.1c0.1,0.1,0.3,0.2,0.4,0.3
		c0.1,0.1,0.2,0.1,0.2,0.2c0.1,0.1,0.3,0.2,0.4,0.3c0.1,0.1,0.2,0.1,0.3,0.2c0.1,0.1,0.3,0.2,0.4,0.3c0.1,0.1,0.2,0.1,0.3,0.2
		c0.2,0.2,0.4,0.3,0.6,0.5c0.1,0.1,0.2,0.2,0.3,0.3c0.1,0.1,0.2,0.2,0.3,0.3c0.1,0.1,0.2,0.2,0.3,0.3c0.1,0.1,0.2,0.2,0.2,0.3
		c0.1,0.1,0.2,0.2,0.3,0.4c0.1,0.1,0.1,0.2,0.2,0.3c0.1,0.1,0.2,0.3,0.3,0.4c0.1,0.1,0.1,0.2,0.2,0.3c0.1,0.2,0.2,0.4,0.3,0.6
		c0,0.1,0.1,0.1,0.1,0.2c0.1,0.2,0.2,0.5,0.3,0.7c0,0.1,0.1,0.2,0.1,0.3c0.1,0.2,0.1,0.3,0.2,0.5c0,0.1,0.1,0.2,0.1,0.3
		c0.1,0.2,0.1,0.3,0.2,0.5c0,0.1,0.1,0.2,0.1,0.3c0,0.2,0.1,0.4,0.1,0.6c0,0.1,0,0.2,0.1,0.3c0.1,0.3,0.1,0.6,0.1,0.9
		c0.4,3.5,3.3,4.7,6.3,5.1c0.4-2.7,1.7-5.7,5-7.1c0.6-0.3,1.2-0.4,1.8-0.6c6.5-8.7,17.4-18.6,33.1-18.8
		c23.4-0.3,35.2,18.7,37.9,30.8c1.3-0.3,2.7-0.8,4.3-1.5c5.7-2.8,6.5-3.9,6.5-2c0,1.8-4.2,14.8-14.3,16.7c-0.3,0.3-0.6,0.6-0.9,0.8
		c1.4,0.9,2.7,2,4.1,3.3c8.6,8.4,9.7,14.4,7.4,15.7c-0.9,0.5-3.5,0.9-6.4,0.6c0.7,2.3,0.4,3.9-0.6,4.5c-0.1,0-0.2,0.1-0.3,0.1
		c0,0-0.1,0-0.1,0c-0.1,0-0.1,0.1-0.2,0.1c-0.1,0-0.1,0-0.2,0c-0.1,0-0.2,0-0.3,0.1c-0.1,0-0.1,0-0.2,0c-0.1,0-0.2,0-0.4,0.1
		c0,0-0.1,0-0.1,0c-0.2,0-0.4,0.1-0.5,0.1c-0.1,0-0.1,0-0.2,0c-0.1,0-0.3,0-0.4,0c-0.1,0-0.1,0-0.2,0c-0.2,0-0.3,0-0.5,0
		c0,0-0.1,0-0.1,0c-4.6,0.2-11.7-1-14-5.4c-1.1-2.1-1.9-4.1-2.7-5.9c-3.3,1.2-7.4,2-12.6,2.3c-8,0.4-13.5-0.7-17.4-2.2
		c-1,2-2,4.4-3.5,6.9c-2.2,3.7-8.6,4.4-13.7,4l0,0c0,0,0,0,0,0c-1.8-0.1-3.4-0.4-4.6-0.7c0,0,0,0-0.1,0c-0.2-0.1-0.4-0.1-0.6-0.2
		c0,0,0,0,0,0c-0.2-0.1-0.3-0.1-0.5-0.2c0,0-0.1,0-0.1,0c-0.1-0.1-0.3-0.1-0.4-0.2c-1.2-0.8-1.6-2.4-0.7-4.7
		c-3.3-0.2-6.2-0.8-7.3-1.5C43,81.2,43.4,76,49,71c0,0,0,0,0,0C26.4,71,13.5,45.4,20.9,35.8z M116.3,118.5
		c-2.6-0.7-4.2-16.8-4.9-18.3c-0.7-1.5-1.5,0.5-1.5,0.5s2.2,16,3,22.4c0,0.1,0,0.1,0,0.1c0,0.2,0,0.3,0.1,0.5c0,0.1,0,0.1,0,0.2
		c0,0.1,0,0.3,0,0.4c0,0.1,0,0.1,0,0.2c0,0.1,0,0.2,0,0.3c0,0.1,0,0.1,0,0.2c0,0.1,0,0.1,0,0.2c0,0.1,0,0.2,0,0.3c0,0.1,0,0.2,0,0.2
		c0,0,0,0.1,0,0.1c0,0,0,0.1-0.1,0.1c0,0-0.1,0.1-0.1,0.1c0,0-0.1,0.1-0.1,0.1c0,0-0.1,0.1-0.1,0.1c0,0-0.1,0.1-0.1,0.1
		c-0.1,0-0.1,0.1-0.2,0.1c0,0-0.1,0.1-0.2,0.1c-0.1,0-0.1,0.1-0.2,0.1c0,0-0.1,0-0.1,0.1c-0.1,0-0.2,0.1-0.3,0.1c0,0-0.1,0-0.1,0
		c-4.2,1.7-15.2,2.5-17.6,1.5c-2.9-1.4-1.8-24.2-2.4-26.1c-0.4-1.3-1.1-1.1-1.6-0.8c-0.1,0.1-0.2,0.1-0.3,0.2
		c-0.1,0.1-0.2,0.1-0.3,0.1c0,0,0,0,0,0.1c0,0,0,0.1,0,0.1c0,0,0,0.1,0,0.1c0,0.1,0,0.1,0,0.2c0,0.1-0.1,0.1-0.1,0.2
		c0,0.1-0.1,0.2-0.1,0.3c0,0.1,0,0.1,0,0.2c0,0.1,0.1,0.3,0.1,0.5c0,0.1-0.1,0.1-0.1,0.2c0,0.2-0.1,0.4-0.1,0.6c0,0,0,0.1,0,0.1
		c0,0.3,0.2,0.5,0.2,0.8c0,0,0,0,0,0.1c0.2,5.5,0.9,16,0.9,22.8c0,0,0,0,0,0c0,0.4,0,0.7,0,1c0,0,0,0.1,0,0.1c0,0.3,0.1,0.7,0.1,1
		c0,0.2,0.1,0.4,0,0.6c0,0.1,0,0.3,0,0.4c0,0.2,0,0.4,0,0.6c0,0.1,0,0.2,0,0.2c0,0.2,0,0.4,0,0.5c0,0.1,0,0.1,0,0.2
		c0,0.2,0,0.3,0,0.5c0,0,0,0.1,0,0.1c0,0.1,0,0.2-0.1,0.4c0,0,0,0.1,0,0.1c0,0,0,0,0,0c0,0.2-0.1,0.3-0.1,0.4
		c-1.1,2.4-15.8,3.2-19.4,0.3c-3.7-2.9,0.5-30.3,0.5-32.2c0-1.4-0.3-1.6-0.9-1.3c-0.1,0-0.1,0.1-0.2,0.1c-0.2,0.1-0.3,0.1-0.5,0.2
		c-1.1,0.5-2.2,22-4.4,24.2c-0.2,0.2-0.4,0.3-0.6,0.5c0,0-0.1,0.1-0.1,0.1c-2.4,1.7-6.9,2-12.8,0.9c-6.6-1.2-2.9-12.9-1.8-18.6
		c0.8-4.2,1.9-10.5,1.4-13.9c0,0,0,0,0,0c-0.1-0.8-0.3-1.4-0.6-1.8c0,0,0,0,0,0c-0.1-0.1-0.1-0.1-0.2-0.2c0,0,0,0,0,0
		c-0.1,0-0.1-0.1-0.2-0.1c0,0,0,0-0.1,0c-0.1,0-0.2-0.1-0.2-0.1c-2.6-0.5-31,2.4-36.1-2c-0.3-0.3-0.6-0.6-0.9-0.9c0,0,0,0,0,0
		c-0.3-0.3-0.5-0.7-0.7-1c0,0,0,0,0-0.1c-0.2-0.4-0.3-0.7-0.5-1.1c0,0,0,0,0-0.1c-0.1-0.4-0.2-0.8-0.3-1.2c0,0,0,0,0-0.1
		c-0.1-0.4-0.1-0.8-0.2-1.2c0,0,0,0,0-0.1c0-0.4,0-0.8,0-1.3c0,0,0,0,0,0c0-0.4,0-0.9,0.1-1.3c0,0,0,0,0,0c0.5-3.7,2.3-7,4.1-7
		c3.3,0,18.9-0.7,21.3-0.7c1.1,0,2.3-0.9,3.3-2c1.3,0.4,2.6,0.7,3.9,0.9c-1.7,2.6-2.6,5-2.5,7.2c0.1,1.9,0.9,3.5,2.4,4.4
		c1.1,0.7,3.2,1.3,5.6,1.6c0,0,0,0.1,0,0.1c0,0.8,0.2,1.4,0.5,2.1c0.4,0.9,1.1,1.6,1.9,2.2c0.1,0.1,0.4,0.1,0.4,0.2v0
		c0,0.1,0.2,0.2,0.4,0.3c0,0-0.1,0-0.1,0c0.4,0.2,0.9,0.4,1.4,0.5c0,0,0,0,0.1,0c0.2,0.1,0.4,0.1,0.6,0.2c3.6,1,9.2,1.3,13.7,0.2
		c3-0.7,5.2-2,6.7-3.7c0.3-0.3,0.5-0.7,0.8-1.1c0.3-0.4,0.5-0.9,0.7-1.3c0.7-1.3,1.3-2.5,1.8-3.7c2.5,0.8,5.5,1.3,9.1,1.5
		c2.1,0.1,4.4,0.2,6.9,0c1.5-0.1,2.9-0.2,4.2-0.3c2.5-0.3,4.7-0.7,6.7-1.3c0.4,0.9,0.8,1.9,1.3,2.9c0.2,0.3,0.3,0.6,0.5,0.9
		c0.2,0.4,0.5,0.8,0.8,1.2c1.6,2.1,4.1,3.7,7.4,4.7c2.3,0.7,5,1,7.4,1c0,0,0,0,0,0c1.4,0,3.3-0.1,4.7-0.6c0,0,0.1,0,0.1,0
		c0.1-0.1,0.3-0.1,0.4-0.2c0.2-0.1,0.4-0.2,0.5-0.3c0.3-0.2,0.6-0.4,0.8-0.6c0.5-0.5,1-1.2,1.2-1.9c0.1-0.4,0.2-0.8,0.3-1.2
		c0-0.1,0-0.2,0-0.3c0,0,0-0.1,0-0.1c0,0,0.1,0,0.1,0c1.9-0.1,3.4-0.4,4.4-1c0.5,10.1,0.3,19.9-0.1,22.8c0,0.2-0.1,0.3-0.1,0.5
		c0,0.1-0.1,0.2-0.1,0.3c0,0.1,0,0.1-0.1,0.2c0,0.1-0.1,0.2-0.2,0.4c0,0,0,0.1,0,0.1C131.9,116.6,118.7,119.1,116.3,118.5z"/>
	<path fill="#72AE3F" d="M127.2,57.5c-0.2,2.4-1.7,4.9-4,7.3c10-1.9,14.3-14.9,14.3-16.7c0-2-0.9-0.9-6.5,2c-1.6,0.8-3,1.3-4.3,1.5
		C127.2,53.8,127.4,55.9,127.2,57.5z"/>
	<path fill="#5C9755" d="M61.3,73.4c0.3-0.3,0.7-0.5,1-0.7c-1.8-0.6-3.5-1.3-5-2.1c-2,0.3-4.6,0.5-8.2,0.4c-5.6,5.8-6,10.2-3.9,11.5
		c1,0.7,3.9,1.3,7.3,1.5C53.3,81.2,56,77.6,61.3,73.4z"/>
	<path fill="#72AE3F" d="M54.8,89.4c1.2,0.3,2.8,0.6,4.6,0.7C57.6,90,56,89.7,54.8,89.4z"/>
	<path fill="#72AE3F" d="M54.1,89.2c-0.2-0.1-0.3-0.1-0.5-0.2C53.7,89.1,53.9,89.1,54.1,89.2z"/>
	<path fill="#72AE3F" d="M54.7,89.4c-0.2-0.1-0.4-0.1-0.6-0.2C54.3,89.3,54.5,89.3,54.7,89.4z"/>
	<path fill="#72AE3F" d="M53.5,88.9c-0.1-0.1-0.3-0.1-0.4-0.2C53.2,88.8,53.3,88.9,53.5,88.9z"/>
	<path fill="#72AE3F" d="M62.3,72.7C62.3,72.7,62.3,72.7,62.3,72.7c-0.4,0.2-0.7,0.5-1,0.7C61.6,73.1,62,72.9,62.3,72.7z"/>
	<path fill="#5C9755" d="M115.1,70.5c0.5,0.3,1,0.7,1.5,1.1c0.1,0.1,0.1,0.1,0.2,0.2c0.4,0.3,0.8,0.6,1.2,1c0.1,0.1,0.1,0.1,0.2,0.2
		c0.4,0.4,0.8,0.7,1.2,1.1c4.7,4.6,7.1,8.4,8,11.2c2.9,0.2,5.5-0.1,6.4-0.6c2.2-1.3,1.2-7.3-7.4-15.7c-1.3-1.3-2.7-2.4-4.1-3.3
		C120.4,67.4,118,69,115.1,70.5z"/>
	<path fill="#A6CB83" d="M66.9,78c0.9-1.2,2-2.2,3.1-3.1c-2.7-0.6-5.3-1.3-7.7-2.2c-0.3,0.2-0.7,0.5-1,0.7c-5.3,4.1-8,7.8-8.9,10.6
		c-0.8,2.3-0.4,4,0.7,4.7c0.1,0.1,0.2,0.1,0.4,0.2c0,0,0.1,0,0.1,0c0.1,0.1,0.3,0.1,0.5,0.2c0,0,0,0,0,0c0.2,0.1,0.4,0.1,0.6,0.2
		c0,0,0,0,0.1,0c1.2,0.3,2.8,0.6,4.6,0.7c0,0,0,0,0,0l0,0C61,87.7,63.4,82.6,66.9,78z"/>
	<path fill="#72AE3F" d="M125.7,90.2c-0.1,0-0.2,0-0.4,0.1C125.4,90.2,125.5,90.2,125.7,90.2z"/>
	<path fill="#72AE3F" d="M126.1,90.1c-0.1,0-0.2,0-0.3,0.1C125.9,90.1,126,90.1,126.1,90.1z"/>
	<path fill="#72AE3F" d="M123.8,90.4c-0.2,0-0.3,0-0.5,0C123.5,90.4,123.6,90.4,123.8,90.4z"/>
	<path fill="#72AE3F" d="M124.4,90.4c-0.1,0-0.3,0-0.4,0C124.2,90.4,124.3,90.4,124.4,90.4z"/>
	<path fill="#72AE3F" d="M118.5,81.2c-1.4-3.9-4.6-7-7-8.9c-7.7,3.3-17.5,5.3-27.2,4.6c-4.8-0.3-9.7-1-14.3-2
		c-1.1,0.9-2.2,1.9-3.1,3.1c-3.5,4.7-5.9,9.8-7.5,12.2c5.1,0.4,11.5-0.3,13.7-4c1.5-2.5,2.5-4.9,3.5-6.9c3.8,1.5,9.4,2.5,17.4,2.2
		c5.1-0.2,9.3-1.1,12.6-2.3c0.7,1.8,1.6,3.8,2.7,5.9c2.3,4.3,9.4,5.5,14,5.4c-0.2,0-0.5,0-0.7,0C121.1,88.7,120.2,85.6,118.5,81.2z"
		/>
	<path fill="#72AE3F" d="M125.2,90.3c-0.2,0-0.4,0.1-0.5,0.1C124.8,90.3,125,90.3,125.2,90.3z"/>
	<path fill="#72AE3F" d="M126.5,90c-0.1,0-0.1,0.1-0.2,0.1C126.3,90,126.4,90,126.5,90z"/>
	<path fill="#72AE3F" d="M126.9,89.8c-0.1,0-0.2,0.1-0.3,0.1C126.7,89.9,126.8,89.8,126.9,89.8z"/>
	<path fill="#72AE3F" d="M119.4,74.1c-0.4-0.4-0.8-0.8-1.2-1.1C118.6,73.3,119,73.7,119.4,74.1z"/>
	<path fill="#72AE3F" d="M115.1,70.5C115.1,70.5,115.1,70.5,115.1,70.5c0.5,0.3,1,0.7,1.5,1.1C116.1,71.2,115.6,70.9,115.1,70.5z"/>
	<path fill="#72AE3F" d="M118,72.7c-0.4-0.3-0.8-0.7-1.2-1C117.2,72.1,117.6,72.4,118,72.7z"/>
	<path fill="#A6CB83" d="M119.4,74.1c-0.4-0.4-0.8-0.8-1.2-1.1c-0.1-0.1-0.1-0.1-0.2-0.2c-0.4-0.3-0.8-0.7-1.2-1
		c-0.1-0.1-0.1-0.1-0.2-0.2c-0.5-0.4-1-0.7-1.5-1c-1.1,0.6-2.3,1.2-3.6,1.7c2.5,1.9,5.6,5,7,8.9c1.6,4.5,2.6,7.5,3.9,9.3
		c0.2,0,0.5,0,0.7,0c0,0,0.1,0,0.1,0c0.2,0,0.3,0,0.5,0c0.1,0,0.1,0,0.2,0c0.2,0,0.3,0,0.4,0c0.1,0,0.1,0,0.2,0c0.2,0,0.4,0,0.5-0.1
		c0,0,0.1,0,0.1,0c0.1,0,0.3,0,0.4-0.1c0.1,0,0.1,0,0.2,0c0.1,0,0.2,0,0.3-0.1c0.1,0,0.1,0,0.2,0c0.1,0,0.2-0.1,0.2-0.1
		c0,0,0.1,0,0.1,0c0.1,0,0.2-0.1,0.3-0.1c1-0.6,1.3-2.2,0.6-4.5C126.6,82.5,124.1,78.6,119.4,74.1z"/>
	<path fill="#4F765D" d="M55.1,47.1c0.4,0.1,0.7,0.2,1.1,0.3c0.1,0,0.2,0.1,0.3,0.1c0.3,0.1,0.6,0.3,0.9,0.4c0,0,0,0,0.1,0
		c0.3,0.2,0.6,0.4,0.9,0.6c0.1,0,0.1,0.1,0.2,0.1c0.2,0.2,0.5,0.4,0.7,0.7c0,0,0,0,0,0.1c0.2,0.3,0.5,0.6,0.7,0.9
		c0,0,0.1,0.1,0.1,0.1c0.2,0.3,0.4,0.6,0.5,0.9c0,0,0,0,0,0.1c0.2,0.4,0.3,0.7,0.5,1.1c0,0,0,0.1,0,0.1c0.1,0.4,0.3,0.3,0.4,0.7
		c0,0,0-0.4,0-0.4c0,0,0,0,0,0c1.8,6,1,13.5,1,13.5s2,2.8-5.2,3.9c1.6,0.8,3.2,1.6,5,2.2c0,0,0,0.1,0,0.1c2.4,0.8,5,1.6,7.7,2.2
		c4.6,1,9.5,1.7,14.3,2c9.7,0.6,19.5-1.1,27.2-4.4c1.3-0.5,2.5-0.5,3.6-1.5c0,0,0,0,0,0c2.8-2,5.3-3.4,7.3-5.2
		c0.3-0.3,0.6-0.7,0.9-1c2.3-2.3,3.7-4.9,4-7.3c0.2-1.6,0-3.7-0.5-6c-2.6-12-14.5-31.1-37.9-30.8C73.2,21,62.3,30.9,55.8,39.6
		c-0.6,0.1-1.2,0.3-1.8,0.6c-3.3,1.4-4.6,4.4-5,7.1C52,47.6,55.1,47.1,55.1,47.1z M83.1,32.6c1.7-4.2,14.4-3.1,14.4-3.1
		c1.7,0.1,9.2,14.1,4.6,17.6c-4.6,3.5-14.4,3.2-18.1,2.2C80.2,48.4,81.4,36.8,83.1,32.6z M123.9,61c-0.7,2-5.4,4.5-8.1,5.8
		c-2.7,1.3-3.3,0.7-3.2-0.9c0.1-1.4,6-4.2,7.4-4.8c0.2-0.1,0.3-0.1,0.3-0.1H123.9z M82.4,74.4c-5,0.3-11.3-0.7-12.3-2.4
		c-0.8-1.4,1.2-2.9,1.9-3.4c0.1-0.1,0.2-0.1,0.2-0.1l14,2.8C88.8,72.5,87.4,74.1,82.4,74.4z M92.6,52.3c3.8,0.7,2.5,11.9,1.5,13.8
		c-1,2-9.8,2.8-17.2,0.1c-7.4-2.7-3.9-12.9-3.8-13.4C73.8,50.9,88.8,51.6,92.6,52.3z M113.4,59.4c-0.7,2.1-6.4,5.6-11,5.9
		c-4.6,0.3-6.6-7.5-5.9-11c0.7-3.5,12.8-5.2,12.8-5.2C114.9,49.5,114.1,57.3,113.4,59.4z M91.8,71.3c0.4-1.7,8.8-2.1,8.8-2.1
		s5.2-2.2,6.7-2.2c1.5,0,1.8,2.1,0.8,3c-1,0.9-7.2,3.2-11.2,3.7C93,74.2,91.4,73,91.8,71.3z M120.7,58c-4.2,1.8-6.3-7.5-6.3-9.5
		c0-2,5.7-3.9,5.7-3.9l0.7,0.1C125.5,47.3,124.8,56.2,120.7,58z M118.4,37.8c1,6.1-6.1,6.3-9.3,6.6c-3.2,0.3-7-10.9-7.4-14.2
		c-0.4-3.3,4.7-3.4,5.2-3.5C109.1,26.3,117.4,31.7,118.4,37.8z M88,22.2c13.7,0.4,13.5,4.5,4.6,5.4c-8.9,0.9-16.2-0.5-13.7-3
		C81.4,22.1,88,22.2,88,22.2z M69,29.3c1-1.1,3.7-0.9,6.4-0.4c0.3-0.3,0.6-0.4,0.9-0.3l-0.3,0.3c0,0,2.2,0,3.2,1.1
		c0.4,0.1,0.8,0.3,1.1,0.4c2.8,1,0.6,13.8-4,16.2c-4.6,2.4-16.3-3.1-16.2-6.8C60.2,35.8,69,29.3,69,29.3z M51.6,43.1
		c0.6-0.8,2.5-2.5,6.9-1c2.9,1,5.3,2.8,7,5.2c0.7-0.4,1.7-0.7,2.1,0.1c0.7,1.2,1.7,4.9,0.8,6.8c0.1,0.3,0.1,0.6,0.2,0.9
		c1.1,6.3-2.2,16.2-3.6,14.9c-1.4-1.3-1.4-15.6-2-18c-0.6-2.4-6.3-8.9-11.7-8.5C51.4,43.4,51.4,43.3,51.6,43.1z"/>
	<path fill="#72AE3F" d="M49,71C49,71,49,71,49,71c3.6,0,6.3-0.1,8.3-0.4c7.2-1.1,5.2-3.7,5.2-3.7s0.8-7.3-1-13
		c-1.8,1.1-5.2,2.5-10.7,2c-8.2-0.7-13.9-4.6-16.9-12.1c-0.3,0.3-0.6,0.4-0.9,0.4c-0.9,0-1.7-1.1-1.7-2.3c0-1.1,0.5-2,1.2-2.3
		c-2-5.9-5.5-7.1-7.4-7.4c2.5-1.4,5.3-1.6,7.8-1.1c-4.1-0.9-8.6,0.3-12,4.6C13.5,45.4,26.4,71,49,71z M22,52.6c0,0,2.8,4,8.4,1.8
		c5.7-2.2,4.8-4.7,4.8-4.7l0.8-0.1c0,0-3,9.9-12.7,5.2L22,52.6z"/>
	<path fill="#72AE3F" d="M33,31.2c0.2,0,0.4,0.1,0.6,0.2C33.4,31.3,33.2,31.3,33,31.2z"/>
	<path fill="#72AE3F" d="M37.7,33.4c0.1,0.1,0.3,0.2,0.4,0.3C37.9,33.6,37.8,33.5,37.7,33.4z"/>
	<path fill="#72AE3F" d="M41.3,37.6c0,0.1,0.1,0.1,0.1,0.2C41.3,37.7,41.3,37.6,41.3,37.6z"/>
	<path fill="#72AE3F" d="M40.7,36.7c0.1,0.1,0.1,0.2,0.2,0.3C40.9,36.9,40.8,36.8,40.7,36.7z"/>
	<path fill="#72AE3F" d="M42.5,41c0,0.1,0,0.2,0.1,0.3C42.5,41.1,42.5,41,42.5,41z"/>
	<path fill="#72AE3F" d="M42.3,40.1c0,0.1,0.1,0.2,0.1,0.3C42.3,40.3,42.3,40.2,42.3,40.1z"/>
	<path fill="#72AE3F" d="M40.3,36c0.1,0.1,0.1,0.2,0.2,0.3C40.4,36.2,40.3,36.1,40.3,36z"/>
	<path fill="#72AE3F" d="M41.7,38.4c0,0.1,0.1,0.2,0.1,0.3C41.8,38.6,41.7,38.5,41.7,38.4z"/>
	<path fill="#72AE3F" d="M42,39.2c0,0.1,0.1,0.2,0.1,0.3C42.1,39.4,42,39.3,42,39.2z"/>
	<path fill="#72AE3F" d="M39.7,35.3c0.1,0.1,0.2,0.2,0.2,0.3C39.9,35.5,39.8,35.4,39.7,35.3z"/>
	<path fill="#72AE3F" d="M33.7,31.4c0.9,0.3,1.7,0.6,2.5,1C35.4,32,34.5,31.6,33.7,31.4z"/>
	<path fill="#72AE3F" d="M37,32.9c0.1,0.1,0.3,0.2,0.4,0.3C37.3,33.1,37.2,33,37,32.9z"/>
	<path fill="#72AE3F" d="M36.3,32.5c0.1,0.1,0.3,0.2,0.4,0.3C36.6,32.7,36.5,32.6,36.3,32.5z"/>
	<path fill="#72AE3F" d="M38.3,33.9c0.2,0.2,0.4,0.3,0.6,0.5C38.7,34.3,38.5,34.1,38.3,33.9z"/>
	<path fill="#72AE3F" d="M39.2,34.7c0.1,0.1,0.2,0.2,0.3,0.3C39.4,34.9,39.3,34.8,39.2,34.7z"/>
	<path fill="#72AE3F" d="M61,52.7c0.1,0.4,0.3,0.7,0.4,1.1C61.3,53.4,61.2,53,61,52.7z"/>
	<path fill="#72AE3F" d="M56.4,47.5c0.3,0.1,0.6,0.3,0.9,0.4C57,47.7,56.7,47.6,56.4,47.5z"/>
	<path fill="#72AE3F" d="M56.1,47.4c-0.3-0.1-0.7-0.2-1.1-0.3C55.4,47.2,55.8,47.3,56.1,47.4z"/>
	<path fill="#72AE3F" d="M60.5,51.4c-0.2-0.3-0.3-0.6-0.5-0.9C60.1,50.8,60.3,51.1,60.5,51.4z"/>
	<path fill="#72AE3F" d="M61,52.6c-0.2-0.4-0.3-0.8-0.5-1.1C60.7,51.8,60.8,52.2,61,52.6z"/>
	<path fill="#72AE3F" d="M58.2,48.5c-0.3-0.2-0.6-0.4-0.9-0.6C57.7,48.1,58,48.3,58.2,48.5z"/>
	<path fill="#72AE3F" d="M58.4,48.7c0.2,0.2,0.5,0.4,0.7,0.7C58.9,49.1,58.6,48.9,58.4,48.7z"/>
	<path fill="#72AE3F" d="M59.8,50.3c-0.2-0.3-0.4-0.6-0.7-0.9C59.4,49.7,59.6,50,59.8,50.3z"/>
	<path fill="#A6CB83" d="M25.1,32.2c1.8,0.2,5.4,1.5,7.4,7.4c0.1-0.1,0.3-0.1,0.4-0.1c0.9,0,1.7,1.1,1.7,2.3c0,0.8-0.3,1.5-0.7,1.9
		c3,7.4,8.7,10.9,16.9,11.6c5.5,0.5,8.9-0.4,10.7-2.4c0,0,0,0,0,0c0,0,0,0.4,0,0.4c-0.1-0.4-0.2-0.5-0.4-0.9c0,0,0,0,0,0
		c-0.2-0.4-0.3-0.7-0.5-1.1c0,0,0,0,0,0c-0.2-0.3-0.3-0.6-0.5-0.9c0,0-0.1-0.1-0.1-0.1c-0.2-0.3-0.4-0.6-0.7-0.9c0,0,0,0,0,0
		c-0.2-0.3-0.5-0.5-0.7-0.7c-0.1,0-0.1-0.1-0.2-0.1c-0.3-0.2-0.6-0.4-0.9-0.6c0,0,0,0-0.1,0c-0.3-0.2-0.6-0.3-0.9-0.4
		c-0.1,0-0.2-0.1-0.3-0.1c-0.3-0.1-0.7-0.2-1.1-0.3c0,0-3,0.5-6.1,0.1c-2.9-0.4-5.9-1.7-6.3-5.1c0-0.3-0.1-0.6-0.1-0.9
		c0-0.1,0-0.2-0.1-0.3c0-0.2-0.1-0.4-0.1-0.6c0-0.1-0.1-0.2-0.1-0.3c0-0.2-0.1-0.3-0.2-0.5c0-0.1-0.1-0.2-0.1-0.3
		c-0.1-0.2-0.1-0.3-0.2-0.5c0-0.1-0.1-0.2-0.1-0.3c-0.1-0.2-0.2-0.5-0.3-0.7c0-0.1-0.1-0.1-0.1-0.2c-0.1-0.2-0.2-0.4-0.3-0.6
		c-0.1-0.1-0.1-0.2-0.2-0.3c-0.1-0.1-0.2-0.3-0.3-0.4c-0.1-0.1-0.1-0.2-0.2-0.3c-0.1-0.1-0.2-0.2-0.3-0.4c-0.1-0.1-0.2-0.2-0.2-0.3
		c-0.1-0.1-0.2-0.2-0.3-0.3c-0.1-0.1-0.2-0.2-0.3-0.3c-0.1-0.1-0.2-0.2-0.3-0.3c-0.2-0.2-0.4-0.3-0.6-0.5c-0.1-0.1-0.2-0.2-0.3-0.2
		c-0.1-0.1-0.2-0.2-0.4-0.3c-0.1-0.1-0.2-0.1-0.3-0.2c-0.1-0.1-0.3-0.2-0.4-0.3c-0.1-0.1-0.2-0.1-0.2-0.2c-0.1-0.1-0.3-0.2-0.4-0.3
		c-0.1,0-0.1-0.1-0.2-0.1c-0.8-0.4-1.6-0.8-2.5-1c0,0-0.1,0-0.1,0c-0.2-0.1-0.4-0.1-0.6-0.2c0,0-0.1,0-0.1,0
		C30.3,30.6,27.6,30.9,25.1,32.2z"/>
	<path fill="#4F765D" d="M32.9,39.5c-0.2,0-0.3,0-0.4,0.1c-0.7,0.3-1.2,1.2-1.2,2.3c0,1.3,0.7,2.3,1.7,2.3c0.3,0,0.7-0.2,0.9-0.4
		c0.4-0.4,0.7-1.1,0.7-1.9C34.5,40.6,33.8,39.5,32.9,39.5z"/>
	<path fill="#4F765D" d="M36,49.6l-0.8,0.1c0,0,0.8,2.5-4.8,4.7c-5.7,2.2-8.4-1.8-8.4-1.8l1.4,2.2C33,59.5,36,49.6,36,49.6z"/>
	<path fill="#4F765D" d="M60.1,39.6c-0.1,3.8,11.6,9.2,16.2,6.8c4.6-2.4,6.8-15.2,4-16.2c-0.3-0.1-0.7-0.2-1.1-0.4
		c0.3,0.3,0.5,0.8,0.5,1.3c0,2.5,0.4,7.8-2.9,8.9c-2.9,1-3.2-9.2-1.4-11.3c-2.7-0.6-5.4-0.7-6.4,0.4C69,29.3,60.2,35.8,60.1,39.6z"
		/>
	<path opacity="0.61" fill="#72AE3F" d="M60.1,39.6c-0.1,3.8,11.6,9.2,16.2,6.8c4.6-2.4,6.8-15.2,4-16.2c-0.3-0.1-0.7-0.2-1.1-0.4
		c0.3,0.3,0.5,0.8,0.5,1.3c0,2.5,0.4,7.8-2.9,8.9c-2.9,1-3.2-9.2-1.4-11.3c-2.7-0.6-5.4-0.7-6.4,0.4C69,29.3,60.2,35.8,60.1,39.6z"
		/>
	<path fill="#4F765D" d="M84,49.4c3.8,1,13.5,1.3,18.1-2.2c4.6-3.5-2.9-17.4-4.6-17.6c0,0-12.7-1.1-14.4,3.1
		C81.4,36.8,80.2,48.4,84,49.4z M89.9,31c0,0,6.9-1.7,9,1.8c2.1,3.5,4.1,11.1,1.2,11.5C97.2,44.7,89.4,32.3,89.9,31z"/>
	<path opacity="0.61" fill="#72AE3F" d="M84,49.4c3.8,1,13.5,1.3,18.1-2.2c4.6-3.5-2.9-17.4-4.6-17.6c0,0-12.7-1.1-14.4,3.1
		C81.4,36.8,80.2,48.4,84,49.4z M89.9,31c0,0,6.9-1.7,9,1.8c2.1,3.5,4.1,11.1,1.2,11.5C97.2,44.7,89.4,32.3,89.9,31z"/>
	<path fill="#4F765D" d="M101.7,30.1c0.4,3.3,4.2,14.5,7.4,14.2c3.2-0.3,10.3-0.4,9.3-6.6c-1-6.1-9.3-11.4-11.6-11.2
		C106.4,26.7,101.3,26.8,101.7,30.1z M113.9,31.9c2.4,3.6,2.2,6.6,0.2,5.8c-2-0.8-7.3-8.3-6-9.6C108.1,28.1,111.5,28.3,113.9,31.9z"
		/>
	<path opacity="0.61" fill="#72AE3F" d="M101.7,30.1c0.4,3.3,4.2,14.5,7.4,14.2c3.2-0.3,10.3-0.4,9.3-6.6c-1-6.1-9.3-11.4-11.6-11.2
		C106.4,26.7,101.3,26.8,101.7,30.1z M113.9,31.9c2.4,3.6,2.2,6.6,0.2,5.8c-2-0.8-7.3-8.3-6-9.6C108.1,28.1,111.5,28.3,113.9,31.9z"
		/>
	<path fill="#4F765D" d="M63.1,52c0.6,2.4,0.6,16.7,2,18c1.4,1.3,4.7-8.7,3.6-14.9c-0.1-0.3-0.1-0.6-0.2-0.9
		c-0.1,0.2-0.2,0.5-0.4,0.6c-1.6,1.6-3.5-1.7-3.6-6.8l0.3-0.3c0,0,0.3-0.3,0.8-0.5c-1.7-2.4-4-4.2-7-5.2c-4.4-1.4-6.3,0.3-6.9,1
		c-0.2,0.2-0.2,0.4-0.2,0.4C56.8,43,62.5,49.6,63.1,52z"/>
	<path opacity="0.61" fill="#72AE3F" d="M63.1,52c0.6,2.4,0.6,16.7,2,18c1.4,1.3,4.7-8.7,3.6-14.9c-0.1-0.3-0.1-0.6-0.2-0.9
		c-0.1,0.2-0.2,0.5-0.4,0.6c-1.6,1.6-3.5-1.7-3.6-6.8l0.3-0.3c0,0,0.3-0.3,0.8-0.5c-1.7-2.4-4-4.2-7-5.2c-4.4-1.4-6.3,0.3-6.9,1
		c-0.2,0.2-0.2,0.4-0.2,0.4C56.8,43,62.5,49.6,63.1,52z"/>
	<path fill="#4F765D" d="M73.2,52.9c-0.2,0.5-3.6,10.7,3.8,13.4c7.4,2.7,16.2,1.8,17.2-0.1c1-2,2.2-13.1-1.5-13.8
		C88.8,51.6,73.8,50.9,73.2,52.9z M87.8,53.1c0,0,5-0.6,5.4,1.4c0.4,2-0.1,9.5-1.1,9.4c-1-0.1-4.5-10.8-4.5-11.4L87.8,53.1z"/>
	<path opacity="0.61" fill="#72AE3F" d="M73.2,52.9c-0.2,0.5-3.6,10.7,3.8,13.4c7.4,2.7,16.2,1.8,17.2-0.1c1-2,2.2-13.1-1.5-13.8
		C88.8,51.6,73.8,50.9,73.2,52.9z M87.8,53.1c0,0,5-0.6,5.4,1.4c0.4,2-0.1,9.5-1.1,9.4c-1-0.1-4.5-10.8-4.5-11.4L87.8,53.1z"/>
	<path fill="#4F765D" d="M109.4,49.1c0,0-12.1,1.7-12.8,5.2c-0.7,3.5,1.3,11.3,5.9,11c4.6-0.3,10.3-3.8,11-5.9
		C114.1,57.3,114.9,49.5,109.4,49.1z M111.5,59.6c-1.8-0.4-5.9-9.2-5.9-9.2l0.3,0.3c0,0,4.2-1.7,5.5,0
		C112.7,52.4,113.3,60,111.5,59.6z"/>
	<path opacity="0.61" fill="#72AE3F" d="M109.4,49.1c0,0-12.1,1.7-12.8,5.2c-0.7,3.5,1.3,11.3,5.9,11c4.6-0.3,10.3-3.8,11-5.9
		C114.1,57.3,114.9,49.5,109.4,49.1z M111.5,59.6c-1.8-0.4-5.9-9.2-5.9-9.2l0.3,0.3c0,0,4.2-1.7,5.5,0
		C112.7,52.4,113.3,60,111.5,59.6z"/>
	<path fill="#4F765D" d="M120.8,44.8l-0.7-0.1c0,0-5.7,2-5.7,3.9c0,2,2.1,11.3,6.3,9.5C124.8,56.2,125.5,47.3,120.8,44.8z
		 M122.2,46.3c1.2,1.3,1.8,8,0.3,8.3c-1.5,0.3-3.8-8.2-3.8-8.2S121,45,122.2,46.3z"/>
	<path opacity="0.61" fill="#72AE3F" d="M120.8,44.8l-0.7-0.1c0,0-5.7,2-5.7,3.9c0,2,2.1,11.3,6.3,9.5
		C124.8,56.2,125.5,47.3,120.8,44.8z M122.2,46.3c1.2,1.3,1.8,8,0.3,8.3c-1.5,0.3-3.8-8.2-3.8-8.2S121,45,122.2,46.3z"/>
	<path fill="#4F765D" d="M72.2,68.5c0,0-0.1,0-0.2,0.1c-0.7,0.4-2.7,1.9-1.9,3.4c1,1.7,7.3,2.7,12.3,2.4c5-0.3,6.4-1.8,3.8-3.1
		L72.2,68.5z"/>
	<path opacity="0.61" fill="#72AE3F" d="M72.2,68.5c0,0-0.1,0-0.2,0.1c-0.7,0.4-2.7,1.9-1.9,3.4c1,1.7,7.3,2.7,12.3,2.4
		c5-0.3,6.4-1.8,3.8-3.1L72.2,68.5z"/>
	<path fill="#4F765D" d="M108.1,69.9c1-0.9,0.7-3-0.8-3c-1.5,0-6.7,2.2-6.7,2.2s-8.4,0.4-8.8,2.1c-0.4,1.7,1.3,2.9,5.2,2.4
		C100.8,73.1,107.1,70.8,108.1,69.9z"/>
	<path opacity="0.61" fill="#72AE3F" d="M108.1,69.9c1-0.9,0.7-3-0.8-3c-1.5,0-6.7,2.2-6.7,2.2s-8.4,0.4-8.8,2.1
		c-0.4,1.7,1.3,2.9,5.2,2.4C100.8,73.1,107.1,70.8,108.1,69.9z"/>
	<path fill="#4F765D" d="M120.2,61c0,0-0.1,0-0.3,0c-1.4,0.6-7.3,3.5-7.4,4.9c-0.1,1.5,0.6,2.2,3.2,0.9c2.7-1.3,7.4-3.8,8.1-5.8
		H120.2z"/>
	<path opacity="0.61" fill="#72AE3F" d="M120.2,61c0,0-0.1,0-0.3,0c-1.4,0.6-7.3,3.5-7.4,4.9c-0.1,1.5,0.6,2.2,3.2,0.9
		c2.7-1.3,7.4-3.8,8.1-5.8H120.2z"/>
	<path fill="#4F765D" d="M92.6,27.6c8.9-0.9,9.1-5-4.6-5.4c0,0-6.6-0.1-9.1,2.4C76.4,27.1,83.7,28.5,92.6,27.6z M89.3,23h0.5
		c0,0,5.2-0.5,5.6,1.3c0.4,1.8-2.3,1.5-3.3,1.1C91.1,25,88.2,23,89.3,23z"/>
	<path opacity="0.61" fill="#72AE3F" d="M92.6,27.6c8.9-0.9,9.1-5-4.6-5.4c0,0-6.6-0.1-9.1,2.4C76.4,27.1,83.7,28.5,92.6,27.6z
		 M89.3,23h0.5c0,0,5.2-0.5,5.6,1.3c0.4,1.8-2.3,1.5-3.3,1.1C91.1,25,88.2,23,89.3,23z"/>
	<path fill="#4F765D" d="M100.1,44.3c2.9-0.4,0.9-8-1.2-11.5c-2.1-3.5-9-1.8-9-1.8C89.4,32.3,97.2,44.7,100.1,44.3z"/>
	<path opacity="0.61" fill="#72AE3F" d="M100.1,44.3c2.9-0.4,0.9-8-1.2-11.5c-2.1-3.5-9-1.8-9-1.8C89.4,32.3,97.2,44.7,100.1,44.3z"
		/>
	<path opacity="0.61" fill="#72AE3F" d="M100.1,44.3c2.9-0.4,0.9-8-1.2-11.5c-2.1-3.5-9-1.8-9-1.8C89.4,32.3,97.2,44.7,100.1,44.3z"
		/>
	<path fill="#4F765D" d="M114.1,37.7c2,0.8,2.2-2.2-0.2-5.8c-2.4-3.6-5.8-3.8-5.8-3.8C106.8,29.4,112.1,36.9,114.1,37.7z"/>
	<path opacity="0.61" fill="#72AE3F" d="M114.1,37.7c2,0.8,2.2-2.2-0.2-5.8c-2.4-3.6-5.8-3.8-5.8-3.8
		C106.8,29.4,112.1,36.9,114.1,37.7z"/>
	<path opacity="0.61" fill="#72AE3F" d="M114.1,37.7c2,0.8,2.2-2.2-0.2-5.8c-2.4-3.6-5.8-3.8-5.8-3.8
		C106.8,29.4,112.1,36.9,114.1,37.7z"/>
	<path fill="#4F765D" d="M76.1,28.8l0.3-0.3c-0.4-0.1-0.7,0-0.9,0.3c1.4,0.3,2.7,0.7,3.8,1C78.2,28.8,76.1,28.8,76.1,28.8z"/>
	<path opacity="0.61" fill="#72AE3F" d="M76.1,28.8l0.3-0.3c-0.4-0.1-0.7,0-0.9,0.3c1.4,0.3,2.7,0.7,3.8,1
		C78.2,28.8,76.1,28.8,76.1,28.8z"/>
	<path fill="#4F765D" d="M76.8,40.2c3.3-1.2,2.9-6.4,2.9-8.9c0-0.6-0.2-1-0.5-1.3c-1.1-0.3-2.4-0.7-3.8-1
		C73.6,31,73.9,41.2,76.8,40.2z"/>
	<path opacity="0.61" fill="#72AE3F" d="M76.8,40.2c3.3-1.2,2.9-6.4,2.9-8.9c0-0.6-0.2-1-0.5-1.3c-1.1-0.3-2.4-0.7-3.8-1
		C73.6,31,73.9,41.2,76.8,40.2z"/>
	<path opacity="0.61" fill="#72AE3F" d="M76.8,40.2c3.3-1.2,2.9-6.4,2.9-8.9c0-0.6-0.2-1-0.5-1.3c-1.1-0.3-2.4-0.7-3.8-1
		C73.6,31,73.9,41.2,76.8,40.2z"/>
	<path fill="#4F765D" d="M111.4,50.7c-1.3-1.7-5.5,0-5.5,0l-0.3-0.3c0,0,4.1,8.8,5.9,9.2C113.3,60,112.7,52.4,111.4,50.7z"/>
	<path opacity="0.61" fill="#72AE3F" d="M111.4,50.7c-1.3-1.7-5.5,0-5.5,0l-0.3-0.3c0,0,4.1,8.8,5.9,9.2
		C113.3,60,112.7,52.4,111.4,50.7z"/>
	<path opacity="0.61" fill="#72AE3F" d="M111.4,50.7c-1.3-1.7-5.5,0-5.5,0l-0.3-0.3c0,0,4.1,8.8,5.9,9.2
		C113.3,60,112.7,52.4,111.4,50.7z"/>
	<path fill="#4F765D" d="M92.1,63.9c1,0.1,1.5-7.4,1.1-9.4c-0.4-2-5.4-1.4-5.4-1.4l-0.2-0.6C87.6,53.1,91.1,63.8,92.1,63.9z"/>
	<path opacity="0.61" fill="#72AE3F" d="M92.1,63.9c1,0.1,1.5-7.4,1.1-9.4c-0.4-2-5.4-1.4-5.4-1.4l-0.2-0.6
		C87.6,53.1,91.1,63.8,92.1,63.9z"/>
	<path opacity="0.61" fill="#72AE3F" d="M92.1,63.9c1,0.1,1.5-7.4,1.1-9.4c-0.4-2-5.4-1.4-5.4-1.4l-0.2-0.6
		C87.6,53.1,91.1,63.8,92.1,63.9z"/>
	<path fill="#4F765D" d="M122.5,54.6c1.5-0.3,0.9-7-0.3-8.3c-1.2-1.3-3.5,0.1-3.5,0.1S121,54.9,122.5,54.6z"/>
	<path opacity="0.61" fill="#72AE3F" d="M122.5,54.6c1.5-0.3,0.9-7-0.3-8.3c-1.2-1.3-3.5,0.1-3.5,0.1S121,54.9,122.5,54.6z"/>
	<path opacity="0.61" fill="#72AE3F" d="M122.5,54.6c1.5-0.3,0.9-7-0.3-8.3c-1.2-1.3-3.5,0.1-3.5,0.1S121,54.9,122.5,54.6z"/>
	<path fill="#4F765D" d="M92.1,25.4c1,0.4,3.7,0.7,3.3-1.1C95,22.5,89.8,23,89.8,23h-0.5C88.2,23,91.1,25,92.1,25.4z"/>
	<path opacity="0.61" fill="#72AE3F" d="M92.1,25.4c1,0.4,3.7,0.7,3.3-1.1C95,22.5,89.8,23,89.8,23h-0.5C88.2,23,91.1,25,92.1,25.4z
		"/>
	<path opacity="0.61" fill="#72AE3F" d="M92.1,25.4c1,0.4,3.7,0.7,3.3-1.1C95,22.5,89.8,23,89.8,23h-0.5C88.2,23,91.1,25,92.1,25.4z
		"/>
	<path fill="#4F765D" d="M68.4,54.1c0.9-1.9-0.1-5.6-0.8-6.8c-0.5-0.8-1.5-0.5-2.1-0.1C66.9,49.2,67.8,51.5,68.4,54.1z"/>
	<path opacity="0.61" fill="#72AE3F" d="M68.4,54.1c0.9-1.9-0.1-5.6-0.8-6.8c-0.5-0.8-1.5-0.5-2.1-0.1
		C66.9,49.2,67.8,51.5,68.4,54.1z"/>
	<path fill="#4F765D" d="M64.7,47.7L64.4,48c0.1,5.1,2,8.4,3.6,6.8c0.2-0.2,0.3-0.4,0.4-0.6c-0.6-2.6-1.6-5-3-6.9
		C65,47.4,64.7,47.7,64.7,47.7z"/>
	<path opacity="0.61" fill="#72AE3F" d="M64.7,47.7L64.4,48c0.1,5.1,2,8.4,3.6,6.8c0.2-0.2,0.3-0.4,0.4-0.6c-0.6-2.6-1.6-5-3-6.9
		C65,47.4,64.7,47.7,64.7,47.7z"/>
	<path opacity="0.61" fill="#72AE3F" d="M64.7,47.7L64.4,48c0.1,5.1,2,8.4,3.6,6.8c0.2-0.2,0.3-0.4,0.4-0.6c-0.6-2.6-1.6-5-3-6.9
		C65,47.4,64.7,47.7,64.7,47.7z"/>
</g>
</svg>
