<?xml version="1.0" encoding="utf-8"?>
<!-- Generator: Adobe Illustrator 18.1.0, SVG Export Plug-In . SVG Version: 6.00 Build 0)  -->
<svg version="1.1" id="Layer_1" xmlns="http://www.w3.org/2000/svg" xmlns:xlink="http://www.w3.org/1999/xlink" x="0px" y="0px"
	 viewBox="0 0 150 150" enable-background="new 0 0 150 150" xml:space="preserve">
<g>
	<g>
		<path fill="#DE1F26" d="M34.9,117.4c2,0,3,1.1,3.5,2c3.1,5.6,6.1,8.8,7.5,8.8c1.4,0,2.5-1.9,4.7-10C55.9,99,61.3,79,66.9,58.2
			H55.2c-0.9-2.6,0.4-5.9,1.9-6.5h11.7c2.2-7.2,4.9-14.6,8.6-21.2c5.6-10.1,14.5-18,26.8-18.1c-9-4.2-19-6.6-29.6-6.6
			c-38.6,0-70,31.3-70,70c0,20.5,8.9,39,23,51.8c-0.2-0.7-0.3-1.5-0.3-2.3C27.3,121.3,31.6,117.4,34.9,117.4z"/>
	</g>
	<g>
		<path fill="#F49291" d="M117.3,20.4c0.1,0.7,0.2,1.5,0.2,2.3c-0.1,6.1-5.5,9.2-8,9.2c-2,0-3-1.5-3.6-3.6c-2.1-8-4.9-10.3-6.5-10.3
			c-1.6,0-4.1,3-6.8,9.2c-3.6,7.8-6,16.3-8.2,24.5h14.2c0.9,1.7,0.1,5.5-2,6.5H82.5C77.9,73.6,74,88.4,69.4,103
			c-2.6,8.2-5.5,16.1-9.1,21c-4,5.6-11.5,11-20.4,11c-1.1,0-2.1-0.1-3.1-0.3c10.9,7,23.9,11.1,37.8,11.1c38.6,0,70-31.3,70-70
			C144.6,53.3,133.9,33.2,117.3,20.4z"/>
	</g>
</g>
</svg>
