<?xml version="1.0" encoding="iso-8859-1"?>
<!-- Generator: Adobe Illustrator 13.0.0, SVG Export Plug-In . SVG Version: 6.00 Build 14948)  -->
<!DOCTYPE svg PUBLIC "-//W3C//DTD SVG 1.1//EN" "http://www.w3.org/Graphics/SVG/1.1/DTD/svg11.dtd">
<svg version="1.1" id="Layer_1" xmlns="http://www.w3.org/2000/svg" xmlns:xlink="http://www.w3.org/1999/xlink" x="0px" y="0px"
	 width="100px" height="100px" viewBox="0 0 100 100" enable-background="new 0 0 100 100" xml:space="preserve">
<g>
	<g>
		<path fill="#00A2DD" d="M21.575,60.968c1.81-0.624,3.618-1.392,5.539-1.6c-3.971,1.167-8,2.6-11.234,5.258
			c-1.585,1.319-3.009,3.206-2.831,5.376c0.253,2.281,1.958,4.047,3.742,5.311c3.722,2.627,8.131,4.027,12.507,5.123
			c7.577,1.84,15.417,2.479,23.196,2.439c8.209-0.145,16.465-0.984,24.34-3.367c3.487-1.106,6.977-2.482,9.872-4.784
			c1.537-1.241,2.899-2.969,2.977-5.034c-0.008-2.169-1.479-3.984-3.104-5.273c-3.184-2.505-7.071-3.904-10.915-5.032
			c1.637,0.145,3.154,0.798,4.697,1.294c3.403,1.251,6.836,2.794,9.467,5.356c1.67,1.63,2.761,4.135,1.904,6.447
			c-1.12,3.025-4.018,4.863-6.736,6.323c-5.953,2.974-12.555,4.392-19.109,5.309c-10.897,1.396-22.018,1.275-32.853-0.589
			c-5.728-1.058-11.506-2.512-16.601-5.434c-2.345-1.408-4.777-3.241-5.568-5.993c-0.632-2.176,0.416-4.441,1.943-5.984
			C15.239,63.687,18.408,62.182,21.575,60.968z"/>
		<path fill="#004964" d="M23.143,65.817c1.857-1.567,4.084-2.713,6.401-3.425c-1.479,1.007-3.231,1.592-4.591,2.809
			c-1.409,1.104-2.625,2.998-1.943,4.842c0.775,2.103,2.8,3.359,4.681,4.375c4.865,2.399,10.288,3.383,15.647,3.976
			c7.874,0.761,15.91,0.473,23.653-1.231c3.826-0.919,7.762-2.072,10.873-4.6c1.448-1.176,2.61-3.227,1.715-5.073
			c-1.194-2.642-4.089-3.657-6.372-5.082c1.673,0.48,3.234,1.279,4.715,2.185c1.487,0.985,3.015,2.218,3.568,3.985
			c0.438,1.375,0.007,2.895-0.88,4c-1.473,1.864-3.634,2.994-5.77,3.945c-4.984,2.088-10.361,3.031-15.725,3.551
			c-6.958,0.635-14.015,0.45-20.914-0.687c-4.295-0.761-8.616-1.826-12.48-3.903c-1.858-1.081-3.833-2.45-4.513-4.604
			C20.606,68.978,21.719,67.025,23.143,65.817z"/>
	</g>
	<g>
		<path fill="#00A2DD" d="M31.769,66.289c0.226-0.367,0.543-0.449,0.913-0.247c-0.32,0.751-0.865,1.535-0.641,2.4
			c0.385,1.582,1.89,2.527,3.233,3.247c2.818,1.401,5.92,2.072,9.008,2.512c6.475,0.833,13.153,0.642,19.475-1.104
			c2.401-0.76,5.104-1.614,6.578-3.815c0.674-0.938,0.265-2.05-0.136-2.987c0.057-0.135,0.154-0.413,0.192-0.566
			c0.743,0.745,1.569,1.601,1.543,2.728c0.056,1.514-1.118,2.69-2.305,3.457c-2.494,1.64-5.456,2.401-8.351,3.001
			c-6.273,1.168-12.756,1.192-19.054,0.151c-2.848-0.51-5.702-1.231-8.279-2.608c-1.265-0.734-2.592-1.654-3.057-3.104
			C30.521,68.264,30.985,67.073,31.769,66.289z"/>
	</g>
	<g>
		<path fill="#004964" d="M52.67,59.28c-0.232,1.076-0.38,1.866-0.443,2.361c-0.064,0.497-0.095,0.915-0.095,1.253
			c0,0.635,0.105,1.132,0.317,1.49c0.212,0.361,0.538,0.635,0.983,0.825c0.443,0.19,1.173,0.338,2.188,0.443l-0.285,1.556h-9.832
			l4.789-21.376c0.275-1.227,0.465-2.205,0.572-2.935c0.106-0.729,0.158-1.335,0.158-1.823c0-0.612-0.09-1.089-0.27-1.427
			c-0.18-0.338-0.481-0.592-0.903-0.762c-0.423-0.168-1.152-0.273-2.188-0.316l0.349-1.682l7.738-0.285h1.872L52.67,59.28z
			 M60.505,24.456l-1.459,6.153h-5.613l1.458-6.153H60.505z"/>
	</g>
</g>
</svg>
