<?xml version="1.0" encoding="utf-8"?>
<!-- Generator: Adobe Illustrator 18.1.0, SVG Export Plug-In . SVG Version: 6.00 Build 0)  -->
<svg version="1.1" id="Layer_1" xmlns="http://www.w3.org/2000/svg" xmlns:xlink="http://www.w3.org/1999/xlink" x="0px" y="0px"
	 viewBox="0 0 150 150" enable-background="new 0 0 150 150" xml:space="preserve">
<g>
	<path fill="#440D43" d="M78.9,91.5C90.4,97,105.9,106,105.9,106s-37.9,14.1-58,10.2c-20.2-3.9-19.5-22.8-5.2-38.4
		C56.9,62.2,64.1,45.9,55,32.9C45.9,19.9,13.3,29,15.3,68c0,0,5.8-26.7,20.8-29.9C47,35.8,55,49.8,39.4,67.4
		C23.7,85,14.6,96.7,22.4,112.9c7.8,16.3,31.9,13.2,49.7,10.1c25.7-4.4,59.2-12.7,59.2-12.7S114.5,100,97.9,90.6
		C93.3,91.3,86,92.2,78.9,91.5z M35.9,35.2c-1.2,0-2.2-1-2.2-2.2c0-1.2,1-2.3,2.2-2.3c1.2,0,2.2,1,2.2,2.3
		C38.1,34.2,37.1,35.2,35.9,35.2z M105.1,27.8c-10.3-3.4-61.3,54-61.3,54c0,0,0,0,0,0C39,86.6,36.6,93,38.8,99.2c0,0,26.6,0,37,0
		c0,0-16.5-2.9-22.4-4.2c-3.6-0.8-4.5-5.4,0-7.7c4.1,0.7,6.9-0.9,7.5-1.2c0.1,0,0.2,0,0.4,0c1.4,0.6,2.8,0.9,4.3,1.1
		c1.1,0.1,2.2,0.2,3.3,0.2c0.1,0,0.2,0,0.3,0C74,88.6,84,90.2,92,87.3c-0.1-0.1-0.2-0.1-0.4-0.2c0.7-0.1,1.3-0.3,2-0.5
		c0.5-0.2,1.1-0.3,1.6-0.5c5.9-2.2,9.9-6.5,9.9-6.5c8.4,3.4,13.4-8,13.4-8c5,1.9,7.7-7.7,7.7-7.7c6.5,1.1,11.1-11.5,11.1-11.5
		C117.8,54.7,115.5,31.3,105.1,27.8z"/>
</g>
</svg>
