<?xml version="1.0" encoding="utf-8"?>
<!-- Generator: Adobe Illustrator 18.1.0, SVG Export Plug-In . SVG Version: 6.00 Build 0)  -->
<svg version="1.0" id="Layer_1" xmlns="http://www.w3.org/2000/svg" xmlns:xlink="http://www.w3.org/1999/xlink" x="0px" y="0px"
	 viewBox="0 0 150 150" enable-background="new 0 0 150 150" xml:space="preserve">
<g>
	<g>
		<path fill-rule="evenodd" clip-rule="evenodd" fill="#B2334E" d="M82.6,82.1c-0.7,1.4-0.9,2.6-0.6,2.7c0.3,0.2,1-1,1.4-2.4
			c0.4-1.5,0.6-2.6,0.6-2.7C83.9,79.7,83.3,80.7,82.6,82.1z M80.7,90.9c-0.5,1.4-0.2,2.8,0.5,3c0.7,0.1,1.5-1,1.7-2.5
			c0.2-1.5,0-2.8-0.5-2.9C82,88.4,81.2,89.5,80.7,90.9z M81.4,100.2c-0.2,1.5,0.4,2.9,1.6,2.9c1.1,0.1,2-1.1,2-2.7
			c0-1.5-0.7-2.8-1.6-2.8C82.5,97.7,81.6,98.7,81.4,100.2z M84.6,109.4c0,1.5,1.2,2.7,2.7,2.7c1.5,0,2.5-1.6,2.3-3
			c-0.2-1.5-1.4-2.5-2.7-2.5C85.7,106.6,84.6,107.9,84.6,109.4z M90.3,118c0.2,1.5,1.9,2.6,3.7,2.2c1.8-0.4,3-2,2.5-3.5
			c-0.4-1.5-2.1-2.3-3.7-1.9C91.3,115.1,90.2,116.4,90.3,118z M98.4,125.5c0.4,1.5,2.5,2.2,4.6,1.4c2.2-0.7,3.3-2.7,2.7-4
			c-0.6-1.4-2.6-1.8-4.5-1.1C99.3,122.4,98.1,124,98.4,125.5z M108.7,131.3c0.6,1.4,3,1.7,5.4,0.5c2.3-1.3,3.5-3.5,2.6-4.8
			c-0.8-1.3-3.2-1.3-5.2-0.1C109.4,127.9,108.2,129.9,108.7,131.3z M120.9,135c0.8,1.3,3.6,1.1,6-0.7c2.5-1.8,3.5-4.3,2.5-5.5
			c-1-1.1-3.5-0.6-5.7,1C121.4,131.5,120.1,133.7,120.9,135z M111.5,108.8c1,1.2,2.9,1.1,4.3-0.2c1.3-1.4,1.4-3.3,0.3-4.3
			c-1.2-1-3-0.8-4.1,0.4C110.8,105.7,110.6,107.6,111.5,108.8z M124.7,121c0.5,0.6,1.7,0.3,2.6-0.5c0.9-0.9,1.2-2.1,0.6-2.6
			c-0.6-0.5-1.7-0.2-2.5,0.7C124.5,119.3,124.2,120.4,124.7,121z M122.4,110.7c1.1,1,3.3,0.6,4.7-1.3c1.4-1.8,1.4-4,0.1-4.8
			c-1.3-0.8-3.2-0.1-4.4,1.5C121.5,107.6,121.2,109.6,122.4,110.7z M104.6,90.1c1.2,0.9,2.7,0.8,3.4-0.2c0.5-1-0.2-2.4-1.6-3
			c-1.4-0.6-2.8-0.5-3.2,0.3C102.6,87.9,103.3,89.2,104.6,90.1z M120.2,98.7c0.6,0.4,1.6,0.1,2-0.7c0.5-0.8,0.2-1.8-0.5-2.1
			c-0.7-0.4-1.5,0-1.9,0.7C119.4,97.4,119.6,98.3,120.2,98.7z M114.2,91.1c1.3,0.7,3.1,0.2,3.6-1.3c0.5-1.4-0.2-2.9-1.7-3.4
			c-1.4-0.4-3,0.2-3.4,1.3C112.3,89,112.8,90.4,114.2,91.1z M90.5,78.7c1.4,0.5,2.6,0.6,2.8,0.2c0.1-0.4-1.1-0.8-2.6-1.1
			c-1.5-0.2-2.7-0.3-2.7-0.2C87.8,77.7,89,78.2,90.5,78.7z M107.7,83.2c0.7,0.2,1.4,0,1.6-0.6c0.2-0.5-0.4-1.1-1.1-1.2
			c-0.8-0.1-1.4,0.1-1.5,0.6C106.5,82.5,107,83,107.7,83.2z M99.4,79.4c1.5,0.3,2.9-0.1,2.9-0.9c0-0.8-1.1-1.4-2.7-1.4
			c-1.5,0-2.8,0.4-2.8,0.9C96.8,78.5,97.9,79.1,99.4,79.4z M90.7,76.9c0.8,0,1.4-0.1,1.4-0.3c0-0.2-0.6-0.2-1.3-0.2
			c-0.8,0.1-1.4,0.2-1.4,0.3C89.3,76.8,89.9,76.9,90.7,76.9z M98.8,81.7c-0.7-0.2-1.4-0.2-1.5,0c-0.1,0.3,0.4,0.7,1.1,1
			c0.7,0.3,1.3,0.3,1.5,0C100,82.4,99.5,82,98.8,81.7z M90.1,79.5c-0.7-0.4-1.2-0.5-1.3-0.5c-0.1,0.1,0.4,0.5,1.1,0.9
			c0.6,0.4,1.2,0.6,1.3,0.5C91.3,80.3,90.7,79.8,90.1,79.5z M109.6,95.9c-0.4,0.5-0.2,1.4,0.3,1.8c0.6,0.5,1.4,0.4,1.8-0.2
			c0.4-0.6,0.3-1.4-0.3-1.8C110.8,95.3,110,95.4,109.6,95.9z M97.2,84.9c-1.3-0.8-2.5-1.1-2.8-0.8c-0.2,0.4,0.3,1.5,1.5,2.6
			c1.1,1,2.5,1.5,2.9,0.8C99.2,86.9,98.5,85.8,97.2,84.9z M100.5,92.8c-0.4,0.3-0.2,1,0.3,1.6c0.5,0.6,1.2,0.7,1.6,0.4
			c0.4-0.4,0.2-1.1-0.3-1.7C101.5,92.6,100.8,92.5,100.5,92.8z M89.3,80.7c-1.2-1-2.2-1.7-2.2-1.6c-0.1,0,0.6,1.1,1.6,2.3
			c1,1.2,1.9,1.9,2.3,1.7C91.1,82.7,90.4,81.7,89.3,80.7z M113.9,116.5c-0.8,0.6-1.2,1.6-0.8,2.2c0.4,0.6,1.5,0.6,2.4,0
			c0.9-0.7,1.2-1.7,0.7-2.3C115.8,115.8,114.7,115.9,113.9,116.5z M106.1,101.6c-1-1.1-2.6-1.4-3.6-0.7c-1,0.8-1.2,2.3-0.4,3.6
			c0.8,1.3,2.5,1.8,3.7,0.8C107,104.5,107.1,102.8,106.1,101.6z M94.1,88.4c-0.5-0.6-1.1-1-1.3-0.8c-0.2,0.2-0.1,0.8,0.4,1.5
			c0.4,0.6,1,1,1.3,0.8C94.7,89.6,94.5,89,94.1,88.4z M103.8,112.3c-0.8,0.4-1.1,1.2-0.8,1.9c0.3,0.7,1.3,0.9,2.1,0.5
			c0.8-0.5,1.1-1.4,0.7-2C105.5,112.1,104.6,111.9,103.8,112.3z M97.6,96.8c-0.8-1.3-2.1-2-2.8-1.5c-0.8,0.3-0.9,1.8-0.3,3.2
			c0.6,1.4,1.9,2.1,2.9,1.7C98.3,99.6,98.5,98.1,97.6,96.8z M87.8,81.8c-0.4-0.7-0.8-1.1-0.8-1.1c-0.1,0,0.1,0.6,0.4,1.3
			c0.3,0.7,0.7,1.2,0.9,1.2C88.4,83.1,88.2,82.5,87.8,81.8z M95.6,106.2c-0.6,0.2-0.9,1-0.7,1.7c0.2,0.7,1,1.1,1.6,0.9
			c0.7-0.2,1-1,0.7-1.7C97,106.4,96.2,106,95.6,106.2z M91,90.2c-0.6-1.4-1.5-2.3-2-2.2c-0.4,0.2-0.5,1.5-0.1,2.9
			c0.4,1.5,1.3,2.5,2,2.2C91.7,93.1,91.7,91.6,91,90.2z M89.6,98.6c-0.4,0.2-0.7,0.7-0.6,1.5c0.1,0.7,0.7,1.4,1.2,1.2
			c0.5-0.1,0.8-0.8,0.6-1.6C90.5,99,90,98.5,89.6,98.6z M86.6,82.4c-0.4-1.5-0.9-2.7-1-2.6c-0.1,0-0.1,1.2,0.1,2.8
			c0.2,1.5,0.6,2.7,1,2.6C87.1,85.1,87.1,83.9,86.6,82.4z M86.5,91.5c-0.1-0.8-0.4-1.3-0.7-1.3c-0.3,0-0.5,0.6-0.5,1.4
			c0,0.8,0.3,1.4,0.7,1.4C86.4,92.9,86.6,92.2,86.5,91.5z M84.7,82.6c0-0.8,0-1.4-0.1-1.4c-0.1,0-0.2,0.6-0.3,1.4
			c-0.1,0.8,0,1.3,0.1,1.3C84.6,84,84.7,83.4,84.7,82.6z"/>
	</g>
	<g>
		<path fill-rule="evenodd" clip-rule="evenodd" fill="#B2334E" d="M81.8,72.2c-0.9-1.2-1.8-2.1-2.1-1.9c-0.3,0.3,0.4,1.3,1.4,2.4
			c1.1,1.1,2,1.9,2.1,1.8C83.2,74.6,82.6,73.5,81.8,72.2z M75,66.2c-1-1.1-2.3-1.6-2.8-1c-0.6,0.5,0.1,1.8,1.3,2.7
			c1.2,0.9,2.4,1.3,2.8,1C76.6,68.5,76,67.3,75,66.2z M66.6,62.1c-1.2-1-2.7-1-3.4-0.1c-0.6,1,0,2.4,1.3,3.1c1.3,0.7,2.8,0.8,3.2,0
			C68.3,64.5,67.8,63.1,66.6,62.1z M57,60.3c-1.3-0.8-3-0.4-3.7,1c-0.7,1.3,0,2.9,1.4,3.5c1.4,0.5,2.9,0,3.5-1.1
			C58.8,62.6,58.3,61.1,57,60.3z M46.7,61c-1.4-0.6-3.1,0.3-3.7,2.1c-0.5,1.8,0.3,3.6,1.8,3.9c1.5,0.3,3-0.7,3.5-2.2
			C48.8,63.3,48.1,61.6,46.7,61z M36.2,64.3c-1.4-0.4-3.2,1-3.5,3.3c-0.4,2.2,0.6,4.2,2.2,4.3c1.5,0.1,2.9-1.4,3.3-3.4
			C38.4,66.6,37.7,64.7,36.2,64.3z M26,70.3c-1.5-0.2-2.9,1.8-3.1,4.5c-0.1,2.7,1.3,4.7,2.8,4.6c1.6-0.1,2.6-2.1,2.7-4.4
			C28.6,72.6,27.5,70.5,26,70.3z M16.8,79c-1.5,0-2.8,2.5-2.4,5.5c0.4,3,2,5.2,3.5,4.9c1.5-0.3,2.3-2.7,2-5.5
			C19.6,81.1,18.4,78.9,16.8,79z M44.2,84c-1.5,0.2-2.5,1.9-2,3.8c0.4,1.9,2.1,2.9,3.6,2.4c1.4-0.5,2.1-2.1,1.8-3.7
			C47.1,84.8,45.6,83.7,44.2,84z M27,89.2c-0.7,0.2-1.1,1.3-0.8,2.6c0.3,1.3,1.2,2.1,1.9,1.9c0.7-0.2,1.1-1.4,0.8-2.5
			C28.6,89.9,27.7,89.1,27,89.2z M37.1,92.4c-1.5,0.4-2,2.6-1.2,4.7c0.9,2.1,2.8,3.2,4.2,2.5c1.3-0.7,1.7-2.7,0.9-4.6
			C40.2,93.1,38.5,91.9,37.1,92.4z M63.8,87.2c-1.4,0.6-2.1,2-1.5,3c0.5,1,2.1,1,3.3,0.1c1.2-0.9,1.8-2.2,1.4-2.9
			C66.6,86.7,65.2,86.6,63.8,87.2z M48.5,96.5c-0.7,0.4-0.8,1.3-0.4,2.1c0.5,0.8,1.4,1.1,2,0.7c0.6-0.4,0.8-1.3,0.4-2.1
			C50,96.5,49.1,96.2,48.5,96.5z M58.1,95.1c-1.3,0.8-1.6,2.5-0.7,3.7c1,1.2,2.7,1.2,3.8,0.2c1.1-1.1,1.3-2.6,0.5-3.6
			C61,94.4,59.3,94.3,58.1,95.1z M80.8,80.7c-1.1,1-1.9,2.1-1.6,2.3c0.3,0.3,1.3-0.5,2.2-1.7c0.9-1.2,1.6-2.2,1.6-2.3
			C82.8,79,81.9,79.7,80.8,80.7z M68.1,93.4c-0.6,0.5-0.7,1.2-0.3,1.6c0.4,0.4,1.1,0.2,1.6-0.4c0.5-0.6,0.6-1.3,0.3-1.6
			C69.4,92.7,68.7,92.9,68.1,93.4z M75.6,88.2c-1,1.2-1.3,2.4-0.7,2.9c0.6,0.4,1.8-0.3,2.5-1.6c0.8-1.3,1-2.6,0.6-2.9
			C77.8,86.3,76.6,87,75.6,88.2z M82.2,81.9c-0.4,0.7-0.6,1.3-0.4,1.3c0.1,0.1,0.5-0.4,0.8-1.1c0.3-0.7,0.5-1.3,0.4-1.3
			C83,80.7,82.6,81.3,82.2,81.9z M73.9,86.4c0.6-0.5,0.9-1.1,0.7-1.3c-0.2-0.2-0.8-0.1-1.4,0.4c-0.6,0.4-0.9,1-0.8,1.3
			C72.6,87.2,73.3,86.9,73.9,86.4z M80.2,80c0.6-0.4,1.1-0.8,1.1-0.9c0-0.1-0.7,0.2-1.3,0.5c-0.7,0.4-1.1,0.7-1.1,0.9
			C79,80.6,79.5,80.4,80.2,80z M56.2,88.7c-0.2-0.6-1-0.9-1.7-0.7c-0.7,0.3-1.1,1-0.9,1.7c0.3,0.7,1.1,0.9,1.8,0.6
			C56.1,90.1,56.4,89.3,56.2,88.7z M71.9,83.5c1.3-0.7,2.3-1.6,2.1-2c-0.1-0.5-1.4-0.5-2.9,0c-1.5,0.4-2.4,1.4-2.2,2.1
			C69.2,84.2,70.6,84.2,71.9,83.5z M63.5,82.4c-0.1-0.5-0.8-0.7-1.6-0.5c-0.7,0.2-1.2,0.7-1.1,1.2c0.1,0.5,0.8,0.8,1.5,0.6
			C63.1,83.4,63.6,82.8,63.5,82.4z M79.6,78.8c1.4-0.5,2.5-1,2.6-1.1c0-0.1-1.3,0-2.8,0.2c-1.5,0.2-2.7,0.7-2.6,1.1
			C76.9,79.4,78.2,79.3,79.6,78.8z M36.3,82.1c-0.2-1-0.8-1.8-1.5-1.8c-0.7,0-1.4,1-1.2,2.1c0.1,1.1,0.9,1.9,1.6,1.8
			C35.9,84.1,36.4,83.1,36.3,82.1z M53,82.8c1.5-0.3,2.6-1.5,2.4-2.8c-0.2-1.2-1.3-2.2-2.9-2.2c-1.5,0-2.8,1.3-2.6,2.8
			C50.2,82.2,51.5,83.1,53,82.8z M70.5,79c0.8-0.1,1.3-0.4,1.3-0.7c-0.1-0.3-0.7-0.5-1.4-0.4c-0.8,0-1.4,0.4-1.3,0.7
			C69.1,79,69.8,79.2,70.5,79z M45,75.5c0.1-0.8-0.5-1.6-1.3-1.6c-0.8-0.1-1.4,0.6-1.5,1.5c-0.1,0.9,0.6,1.6,1.4,1.6
			C44.3,77.1,44.9,76.4,45,75.5z M61.5,77.9c1.5-0.1,2.7-0.9,2.7-1.7c0.1-0.9-1.1-1.7-2.6-1.9c-1.5-0.2-2.8,0.6-2.9,1.7
			C58.6,77.1,60,78,61.5,77.9z M79.3,76.9c0.8,0,1.3-0.1,1.4-0.2c0-0.1-0.6-0.2-1.3-0.3c-0.8-0.1-1.4,0-1.4,0.2
			C77.9,76.8,78.5,76.9,79.3,76.9z M54.4,71.5c0.1-0.6-0.4-1.3-1.2-1.5c-0.7-0.2-1.4,0.3-1.6,1c-0.1,0.7,0.4,1.4,1.1,1.5
			C53.6,72.5,54.3,72.1,54.4,71.5z M70.4,75.4c1.5,0.1,2.8-0.2,2.9-0.6c0-0.5-1-1.2-2.5-1.6c-1.4-0.4-2.9-0.2-2.9,0.6
			C67.8,74.6,68.9,75.3,70.4,75.4z M63.9,70c0.2-0.4-0.3-1-1-1.3c-0.7-0.3-1.4-0.1-1.6,0.4c-0.2,0.5,0.3,1.1,1.1,1.3
			C63.1,70.6,63.7,70.4,63.9,70z M79.5,75.6c1.5,0.3,2.7,0.6,2.7,0.4c0.1-0.1-1.1-0.6-2.5-1.3c-1.4-0.6-2.6-0.8-2.8-0.5
			C76.9,74.6,78,75.2,79.5,75.6z M71.6,70.9c0.7,0.3,1.4,0.4,1.5,0.1c0.1-0.2-0.3-0.8-1-1.1c-0.7-0.4-1.3-0.4-1.5-0.1
			S70.9,70.6,71.6,70.9z M80.2,73.9c0.6,0.4,1.2,0.7,1.2,0.6c0.1-0.1-0.4-0.5-1-0.9c-0.6-0.5-1.2-0.7-1.3-0.6
			C79.1,73.1,79.5,73.5,80.2,73.9z"/>
	</g>
	<g>
		<path fill-rule="evenodd" clip-rule="evenodd" fill="#B2334E" d="M90.7,76.4c1.5-0.1,2.6-0.5,2.6-0.9c0-0.4-1.4-0.4-2.8,0
			c-1.5,0.4-2.6,0.7-2.6,0.9C87.9,76.5,89.2,76.5,90.7,76.4z M99.2,73.6c1.5-0.3,2.6-1.2,2.4-1.9c-0.3-0.7-1.6-0.8-3-0.2
			c-1.4,0.6-2.5,1.4-2.3,1.9C96.5,73.8,97.7,73.9,99.2,73.6z M107,68.4c1.5-0.5,2.3-1.8,1.8-2.8c-0.4-1.1-2-1.2-3.3-0.4
			c-1.3,0.8-2,2-1.6,2.8C104.2,68.7,105.6,68.9,107,68.4z M113.3,61c1.3-0.7,1.8-2.4,1-3.7c-0.9-1.2-2.6-1.4-3.8-0.5
			c-1.2,1-1.6,2.5-0.8,3.5C110.4,61.5,112,61.7,113.3,61z M117.9,51.7c1.2-0.9,1.3-2.9,0-4.3c-1.2-1.4-3.2-1.6-4.3-0.5
			c-1,1.1-0.9,2.9,0.2,4.1C114.9,52.3,116.7,52.6,117.9,51.7z M120.3,41c1.1-1.1,0.6-3.2-1.1-4.7c-1.8-1.4-4-1.5-4.8-0.3
			c-0.9,1.3-0.3,3.2,1.3,4.5C117.2,41.8,119.2,42.1,120.3,41z M120.2,29.2c0.9-1.2,0-3.5-2.3-4.9c-2.2-1.4-4.7-1.3-5.4,0.1
			c-0.7,1.3,0.5,3.3,2.5,4.6C117,30.2,119.3,30.4,120.2,29.2z M117.4,16.8c0.7-1.3-0.8-3.5-3.6-4.8c-2.8-1.2-5.5-0.8-6,0.6
			c-0.5,1.5,1.2,3.4,3.8,4.4C114.1,18.2,116.6,18.2,117.4,16.8z M99.3,38c0.5-1.4-0.4-3.2-2.3-3.6c-1.8-0.5-3.6,0.4-3.8,1.9
			c-0.3,1.5,0.8,3,2.3,3.4C97.1,40.1,98.8,39.5,99.3,38z M103.3,20.5c0.2-0.7-0.6-1.6-1.8-2c-1.3-0.3-2.4,0-2.6,0.7
			c-0.2,0.7,0.6,1.6,1.8,1.9C102,21.5,103.1,21.2,103.3,20.5z M95.6,27.6c0.3-1.5-1.2-3-3.5-3.4c-2.3-0.3-4.2,0.9-4.2,2.4
			c-0.1,1.5,1.5,2.8,3.5,3.1C93.3,30,95.2,29.1,95.6,27.6z M86.7,53.4c0.1-1.5-0.7-2.9-1.8-2.8c-1.1,0.1-1.9,1.3-1.8,2.8
			c0.1,1.5,1,2.7,1.8,2.7C85.7,56,86.5,55,86.7,53.4z M86.3,35.5c0-0.8-0.7-1.4-1.6-1.4c-0.9,0-1.6,0.7-1.6,1.4
			c0,0.8,0.8,1.4,1.6,1.3C85.6,36.8,86.3,36.3,86.3,35.5z M82.7,44.5c-0.1-1.6-1.4-2.7-2.9-2.4c-1.5,0.2-2.4,1.7-2.1,3.2
			c0.4,1.5,1.6,2.4,2.9,2.3C81.8,47.3,82.8,46,82.7,44.5z M83.8,71.3c-0.3-1.5-0.8-2.6-1.2-2.6c-0.3,0.2-0.2,1.4,0.4,2.8
			c0.6,1.4,1.1,2.6,1.2,2.5C84.2,74.1,84.1,72.8,83.8,71.3z M79.1,54.1c-0.2-0.7-0.8-1.2-1.3-1.1c-0.5,0.2-0.7,0.9-0.5,1.6
			c0.2,0.7,0.8,1.2,1.2,1C79.1,55.5,79.3,54.8,79.1,54.1z M79.9,63.2c-0.5-1.4-1.5-2.4-2.2-2.1c-0.7,0.3-0.6,1.6,0.2,3
			c0.7,1.3,1.7,2.2,2.1,2C80.4,65.9,80.4,64.6,79.9,63.2z M82.1,72c-0.4-0.7-0.8-1.1-0.9-1.1c-0.1,0.1,0.1,0.7,0.6,1.3
			c0.4,0.6,0.8,1,0.9,1C82.8,73.2,82.5,72.7,82.1,72z M82.2,62.5c0.1,0.7,0.5,1.3,0.8,1.3c0.3,0,0.4-0.7,0.4-1.4
			c-0.1-0.8-0.4-1.3-0.8-1.3C82.3,61.1,82.1,61.8,82.2,62.5z M84.8,71.2c0,0.8,0.2,1.4,0.2,1.4c0.1,0,0.2-0.6,0.2-1.4
			c0-0.8-0.1-1.4-0.2-1.4C84.8,69.9,84.7,70.5,84.8,71.2z M89.2,46.1c0.6,0.1,1.3-0.4,1.4-1.2c0.1-0.7-0.3-1.4-1-1.6
			c-0.7-0.2-1.4,0.5-1.4,1.2C88,45.3,88.5,45.9,89.2,46.1z M85.9,62.3c-0.1,1.6,0.3,2.7,0.8,2.8c0.5,0.1,1.1-1.1,1.5-2.6
			c0.3-1.5,0-2.7-0.7-2.9C86.6,59.5,85.9,60.8,85.9,62.3z M91,55.6c0.4,0.1,1-0.4,1.3-1.1c0.2-0.7,0-1.4-0.5-1.5
			c-0.5-0.1-1.1,0.3-1.2,1.1C90.4,54.7,90.6,55.4,91,55.6z M86.1,71.3c-0.3,1.5-0.4,2.7-0.3,2.8c0.1,0,0.6-1.1,1.2-2.5
			c0.5-1.4,0.7-2.8,0.3-2.8C86.9,68.7,86.4,69.8,86.1,71.3z M104.9,32.1c0.9,0.4,2,0.3,2.3-0.4c0.3-0.7-0.2-1.6-1.2-2.1
			c-1-0.5-2.1-0.2-2.4,0.5C103.3,30.8,103.9,31.7,104.9,32.1z M95.8,46.3c-0.5,1.5,0.1,2.9,1.2,3.4c1.1,0.6,2.6-0.1,3.4-1.4
			c0.7-1.3,0.2-3-1.1-3.6C97.9,44.1,96.3,44.8,95.8,46.3z M90.4,63.3c-0.3,0.7-0.3,1.3,0,1.5c0.2,0.1,0.7-0.3,1.1-1
			c0.3-0.7,0.4-1.4,0.1-1.5C91.2,62.1,90.7,62.6,90.4,63.3z M106.2,42.9c0.7,0.4,1.7,0.3,2.1-0.3c0.4-0.6,0.2-1.5-0.6-2
			c-0.8-0.5-1.7-0.3-2.1,0.3C105.2,41.6,105.5,42.5,106.2,42.9z M95.9,56c-0.7,1.3-0.6,2.8,0.1,3.2c0.8,0.4,2-0.1,3-1.3
			c0.9-1.2,1-2.8,0-3.4C98,54,96.6,54.6,95.9,56z M87.8,71.9c-0.4,0.7-0.6,1.3-0.6,1.3c0.1,0,0.5-0.4,0.9-1.1
			c0.4-0.6,0.7-1.2,0.5-1.3C88.6,70.8,88.2,71.3,87.8,71.9z M105.1,53.1c0.5,0.5,1.3,0.4,1.8-0.2c0.5-0.6,0.5-1.4,0-1.9
			c-0.6-0.4-1.4-0.3-1.9,0.3C104.5,51.9,104.5,52.7,105.1,53.1z M93.5,65c-0.9,1.2-1.3,2.5-0.9,2.8c0.3,0.4,1.5-0.3,2.6-1.3
			c1.1-1.1,1.5-2.3,0.9-2.9C95.6,63.2,94.4,63.8,93.5,65z M101.5,62.1c0.3,0.3,1,0.2,1.6-0.2c0.6-0.5,0.8-1.2,0.4-1.6
			c-0.4-0.4-1.1-0.3-1.6,0.2C101.4,61.1,101.2,61.8,101.5,62.1z M88.9,72.8c-1,1.1-1.8,2-1.7,2.2c0.1,0.1,1.1-0.6,2.3-1.5
			c1.2-0.9,2-1.9,1.8-2.2C91.1,71,90,71.7,88.9,72.8z M96.9,68.3c-0.6,0.5-1,1-0.8,1.2c0.1,0.2,0.8,0.1,1.4-0.3c0.6-0.4,1-1,0.9-1.3
			C98.1,67.8,97.5,67.9,96.9,68.3z M90.1,74.3c-0.7,0.4-1.2,0.7-1.2,0.8c0,0.1,0.6-0.1,1.3-0.4c0.7-0.3,1.2-0.6,1.1-0.8
			C91.3,73.7,90.7,73.9,90.1,74.3z"/>
	</g>
</g>
</svg>
