<?xml version="1.0" encoding="utf-8"?>
<!-- Generator: Adobe Illustrator 18.1.0, SVG Export Plug-In . SVG Version: 6.00 Build 0)  -->
<svg version="1.0" id="Layer_1" xmlns="http://www.w3.org/2000/svg" xmlns:xlink="http://www.w3.org/1999/xlink" x="0px" y="0px"
	 viewBox="0 0 150 150" enable-background="new 0 0 150 150" xml:space="preserve">
<g>
	<path fill="#961A2E" d="M75.2,20.7c-29.6,0-53.6,24-53.6,53.6c0,25.3,17.5,46.4,41,52.1c-2.2-1-4.3-2.1-6.2-3.4
		c-1.9-1.3-3.6-2.8-5.2-4.4c-1.6-1.6-2.9-3.6-3.8-5.7c-1.9-4.2-2.8-8.8-2.9-13.4c-0.2-4.6,0.2-9.2,1.3-13.7c0.6-2.2,1.3-4.5,2.5-6.4
		c1.3-1.9,2.9-3.6,4.7-5c3.6-2.8,7.7-4.8,11.9-6.3h0h0c0.4-0.1,0.8-0.1,1.1-0.2l-0.8-3.7c-1.2,0.5-2.3,1.1-3.2,1.9
		c-1.1,0.9-2,1.8-2.9,2.9c-0.5,0.5-0.9,1-1.4,1.5c-0.1,0.1-0.3,0.2-0.5,0.3c-0.3,0.1-0.5-0.2-0.5-0.4c-0.1-0.4-0.1-0.7-0.1-1.1l0,0
		v0c0.2-1.8,0.4-3.5,0.7-5.3c0.4-1.7,0.8-3.5,1.6-5.1c0.3-0.5,0.6-1,1-1.5c-0.2-0.3-0.4-0.6-0.7-0.8c-1.5-1.5-3.4-2.6-5.5-3.1
		c-2.1-0.5-4.3-0.5-6.4,0.1L47,53.7l0.4-0.3c0.6-0.6,1.4-1.1,2.1-1.7c0.4-0.4,0.9-0.7,1.3-1c0.5-0.4,1-0.8,1.5-1.2
		c1.7-1.1,3.6-2.1,5.7-2.4c2.1-0.4,4.3,0.2,5.9,1.6c0.3,0.3,0.6,0.7,0.9,1c0.2,0.2,0.4,0.4,0.6,0.6c0.1,0.1,0.2,0.2,0.2,0.3
		c0-1.5,0.2-3,0.5-4.4c0.4-2.2,0.9-4.4,1.6-6.6l0-0.1l0,0c1,2,2.7,3.7,4.2,5.3c0.8,0.8,1.6,1.6,2.3,2.5c0.5,0.7,1,1.4,1.3,2.3
		c0.3-0.6,0.6-1.2,1-1.7c1.5-2.2,3.9-3.6,6.4-4.2c1.8-0.4,3.7-0.5,5.6-0.3c0.8,0,1.4,0.1,1.8,0.2c0.1,0,0.3,0,0.4,0l0.1,0l0,0
		c-2.3,1.9-4.1,4.3-5.4,7c-0.6,1.3-1.2,2.7-1.7,4.1c-0.1,0.2-0.1,0.3-0.2,0.5c0.4-0.1,0.8-0.2,1.2-0.2c1.6-0.1,3.3,0.2,4.7,1
		c1.4,0.8,2.6,2,3.5,3.4c0.9,1.4,1.5,2.9,2,4.4l0,0.1l-0.1,0c-2.1-0.5-4.3-0.9-6.4-1.1c-2-0.2-4-0.4-6-0.3c0,0.1,0,0.1,0,0.2
		c0,0.3,0.1,0.6,0.1,0.9c0.1,0.5,0.2,0.9,0.3,1.3c0.7-0.2,1.5-0.3,2.2-0.5c2.2-0.7,4.6-0.6,6.7,0c4.4,1.3,8.1,4,11.7,6.7
		c1.8,1.4,3.5,2.8,5.2,4.3c1.7,1.6,3.1,3.4,4.1,5.5c2.1,4.1,3.2,8.7,3.4,13.3c0.2,4.6-0.4,9.3-1.5,13.7c-0.5,2-1.4,3.8-2.5,5.5
		c10.4-9.8,16.9-23.6,16.9-39.1C128.9,44.7,104.9,20.7,75.2,20.7z"/>
	<path fill="#859B3B" d="M75.2,10.8c-34.6,0-62.7,28.1-62.7,62.7c0,34.6,28.1,62.7,62.7,62.7c34.6,0,62.7-28.1,62.7-62.7
		C138,39,109.8,10.8,75.2,10.8z M75.2,131.3c-31.8,0-57.7-25.9-57.7-57.7c0-31.8,25.9-57.7,57.7-57.7c31.8,0,57.7,25.9,57.7,57.7
		C132.9,105.4,107,131.3,75.2,131.3z"/>
	<path fill="#961A2E" d="M145.8,73.6c0-2.6-5.4-4.8-5.7-7.3c-0.3-2.5,4.5-5.9,4-8.4c-0.6-2.5-6.4-3.5-7.2-5.8
		c-0.8-2.4,3.1-6.8,2-9.1c-1.1-2.3-7-1.9-8.3-4.1c-1.4-2.2,1.5-7.3-0.1-9.3c-1.6-2-7.2-0.3-9-2.1c-1.8-1.8-0.1-7.4-2.1-9
		c-2-1.6-7.1,1.3-9.3-0.1c-2.1-1.3-1.8-7.2-4.1-8.3c-2.3-1.1-6.7,2.8-9.1,2c-2.4-0.8-3.4-6.6-5.8-7.2c-2.5-0.6-5.8,4.3-8.4,4
		C80,8.5,77.8,3,75.2,3c-2.6,0-4.8,5.4-7.3,5.7c-2.5,0.3-5.9-4.5-8.4-4c-2.5,0.6-3.5,6.4-5.8,7.2c-2.4,0.8-6.8-3.1-9.1-2
		c-2.3,1.1-1.9,7-4.1,8.3c-2.2,1.4-7.3-1.5-9.3,0.1c-2,1.6-0.3,7.2-2.1,9c-1.8,1.8-7.4,0.1-9,2.1c-1.6,2,1.3,7.1-0.1,9.3
		c-1.3,2.1-7.2,1.8-8.3,4.1c-1.1,2.3,2.8,6.7,2,9.1c-0.8,2.4-6.6,3.4-7.2,5.8c-0.6,2.5,4.3,5.8,4,8.4c-0.3,2.5-5.7,4.7-5.7,7.3
		c0,2.6,5.4,4.8,5.7,7.3c0.3,2.5-4.5,5.9-4,8.4c0.6,2.5,6.4,3.5,7.2,5.8c0.8,2.4-3.1,6.8-2,9.1c1.1,2.3,7,1.9,8.3,4.1
		c1.4,2.2-1.5,7.3,0.1,9.3c1.6,2,7.2,0.3,9,2.1c1.8,1.8,0.1,7.4,2.1,9c2,1.6,7.1-1.3,9.3,0.1c2.1,1.3,1.8,7.2,4.1,8.3
		c2.3,1.1,6.7-2.8,9.1-2c2.4,0.8,3.4,6.6,5.8,7.2c2.5,0.6,5.8-4.3,8.4-4c2.5,0.3,4.7,5.7,7.3,5.7c2.6,0,4.8-5.4,7.3-5.7
		c2.5-0.3,5.9,4.5,8.4,4c2.5-0.6,3.5-6.4,5.8-7.2c2.4-0.8,6.8,3.1,9.1,2c2.3-1.1,1.9-7,4.1-8.3c2.2-1.4,7.3,1.5,9.3-0.1
		c2-1.6,0.3-7.2,2.1-9c1.8-1.8,7.4-0.1,9-2.1c1.6-2-1.3-7.1,0.1-9.3c1.3-2.1,7.2-1.8,8.3-4.1c1.1-2.3-2.8-6.7-2-9.1
		c0.8-2.4,6.6-3.4,7.2-5.8c0.6-2.5-4.3-5.8-4-8.4C140.3,78.4,145.8,76.1,145.8,73.6z M75.2,138.6c-35.9,0-65-29.2-65-65
		c0-35.9,29.2-65,65-65c35.9,0,65,29.2,65,65C140.3,109.4,111.1,138.6,75.2,138.6z"/>
</g>
</svg>
