<?xml version="1.0" encoding="iso-8859-1"?>
<!-- Generator: Adobe Illustrator 13.0.0, SVG Export Plug-In . SVG Version: 6.00 Build 14948)  -->
<!DOCTYPE svg PUBLIC "-//W3C//DTD SVG 1.1//EN" "http://www.w3.org/Graphics/SVG/1.1/DTD/svg11.dtd">
<svg version="1.1" id="Layer_1" xmlns="http://www.w3.org/2000/svg" xmlns:xlink="http://www.w3.org/1999/xlink" x="0px" y="0px"
	 width="100px" height="100px" viewBox="0 0 100 100" enable-background="new 0 0 100 100" xml:space="preserve">
<g>
	<g>
		<radialGradient id="SVGID_1_" cx="53.6572" cy="72.001" r="69.5066" gradientUnits="userSpaceOnUse">
			<stop  offset="0" style="stop-color:#7CC5F1"/>
			<stop  offset="0.009" style="stop-color:#79C4F1"/>
			<stop  offset="0.2612" style="stop-color:#22B2ED"/>
			<stop  offset="0.3758" style="stop-color:#00ABEB"/>
			<stop  offset="0.465" style="stop-color:#00A4E3"/>
			<stop  offset="0.6054" style="stop-color:#0091CC"/>
			<stop  offset="0.7795" style="stop-color:#0072A7"/>
			<stop  offset="0.9788" style="stop-color:#004775"/>
			<stop  offset="1" style="stop-color:#00426F"/>
		</radialGradient>
		<path fill="url(#SVGID_1_)" d="M17.754,48.946c1.989-0.686,3.977-1.529,6.088-1.757c-4.365,1.282-8.795,2.856-12.348,5.779
			c-1.743,1.449-3.307,3.523-3.111,5.91c0.278,2.505,2.152,4.447,4.112,5.836c4.091,2.888,8.938,4.428,13.747,5.633
			c8.33,2.021,16.946,2.724,25.498,2.68c9.022-0.159,18.098-1.081,26.753-3.701c3.834-1.216,7.671-2.729,10.854-5.259
			c1.688-1.362,3.185-3.262,3.271-5.531c-0.008-2.385-1.626-4.382-3.412-5.799c-3.499-2.752-7.773-4.292-11.997-5.532
			c1.798,0.16,3.467,0.878,5.162,1.423c3.741,1.374,7.513,3.07,10.406,5.887c1.837,1.794,3.035,4.546,2.094,7.087
			c-1.232,3.326-4.415,5.346-7.405,6.95c-6.544,3.27-13.799,4.828-21.004,5.837c-11.979,1.533-24.203,1.4-36.113-0.648
			c-6.295-1.163-12.646-2.762-18.248-5.973c-2.577-1.547-5.251-3.562-6.121-6.587c-0.694-2.393,0.457-4.883,2.137-6.578
			C10.79,51.936,14.273,50.28,17.754,48.946z"/>
		<radialGradient id="SVGID_2_" cx="53.6572" cy="71.9971" r="69.5095" gradientUnits="userSpaceOnUse">
			<stop  offset="0" style="stop-color:#7CC5F1"/>
			<stop  offset="0.009" style="stop-color:#79C4F1"/>
			<stop  offset="0.2612" style="stop-color:#22B2ED"/>
			<stop  offset="0.3758" style="stop-color:#00ABEB"/>
			<stop  offset="0.465" style="stop-color:#00A4E3"/>
			<stop  offset="0.6054" style="stop-color:#0091CC"/>
			<stop  offset="0.7795" style="stop-color:#0072A7"/>
			<stop  offset="0.9788" style="stop-color:#004775"/>
			<stop  offset="1" style="stop-color:#00426F"/>
		</radialGradient>
		<path fill="url(#SVGID_2_)" d="M19.478,54.277c2.042-1.723,4.49-2.983,7.036-3.765c-1.625,1.106-3.551,1.75-5.047,3.086
			c-1.548,1.213-2.885,3.297-2.136,5.322c0.852,2.312,3.078,3.693,5.145,4.811c5.348,2.637,11.308,3.719,17.2,4.37
			c8.655,0.836,17.487,0.52,25.999-1.354c4.206-1.01,8.533-2.278,11.952-5.057c1.591-1.292,2.869-3.546,1.884-5.575
			c-1.312-2.903-4.495-4.021-7.003-5.586c1.838,0.528,3.556,1.406,5.183,2.401c1.635,1.083,3.313,2.437,3.922,4.379
			c0.482,1.512,0.007,3.184-0.967,4.397c-1.619,2.05-3.995,3.29-6.343,4.338c-5.478,2.293-11.388,3.332-17.282,3.903
			c-7.65,0.695-15.406,0.494-22.99-0.756c-4.721-0.836-9.471-2.007-13.718-4.29c-2.042-1.189-4.212-2.694-4.96-5.06
			C16.689,57.75,17.914,55.605,19.478,54.277z"/>
	</g>
	<g>
		<radialGradient id="SVGID_3_" cx="53.6553" cy="72.0039" r="69.5038" gradientUnits="userSpaceOnUse">
			<stop  offset="0" style="stop-color:#7CC5F1"/>
			<stop  offset="0.009" style="stop-color:#79C4F1"/>
			<stop  offset="0.2612" style="stop-color:#22B2ED"/>
			<stop  offset="0.3758" style="stop-color:#00ABEB"/>
			<stop  offset="0.465" style="stop-color:#00A4E3"/>
			<stop  offset="0.6054" style="stop-color:#0091CC"/>
			<stop  offset="0.7795" style="stop-color:#0072A7"/>
			<stop  offset="0.9788" style="stop-color:#004775"/>
			<stop  offset="1" style="stop-color:#00426F"/>
		</radialGradient>
		<path fill="url(#SVGID_3_)" d="M28.96,54.796c0.248-0.404,0.597-0.494,1.003-0.271c-0.352,0.824-0.951,1.687-0.705,2.637
			c0.423,1.74,2.079,2.78,3.553,3.57c3.097,1.54,6.508,2.278,9.903,2.761c7.116,0.916,14.459,0.706,21.406-1.213
			c2.64-0.835,5.611-1.774,7.231-4.194c0.74-1.03,0.29-2.252-0.148-3.281c0.061-0.149,0.167-0.455,0.209-0.623
			c0.818,0.817,1.726,1.759,1.696,2.998c0.061,1.663-1.229,2.956-2.532,3.799c-2.742,1.804-5.997,2.64-9.18,3.298
			c-6.896,1.284-14.021,1.312-20.943,0.166c-3.13-0.56-6.268-1.353-9.101-2.865c-1.39-0.809-2.85-1.819-3.36-3.413
			C27.587,56.967,28.098,55.656,28.96,54.796z"/>
	</g>
	<g>
		<path fill="#272525" d="M78.145,41.716H56.503v12.298h-3.935V25.485h27.545v3.936h-23.61v8.362h21.642V41.716z"/>
	</g>
	<g>
		<path fill="#272525" d="M21.951,37.782h21.642V29.42h-23.61v-3.936h27.543v28.529h-3.934V41.716H21.951V37.782z"/>
	</g>
</g>
</svg>
