<?xml version="1.0" encoding="utf-8"?>
<!-- Generator: Adobe Illustrator 18.1.0, SVG Export Plug-In . SVG Version: 6.00 Build 0)  -->
<svg version="1.1" id="Layer_1" xmlns="http://www.w3.org/2000/svg" xmlns:xlink="http://www.w3.org/1999/xlink" x="0px" y="0px"
	 viewBox="0 0 150 150" enable-background="new 0 0 150 150" xml:space="preserve">
<g>
	<polygon fill-rule="evenodd" clip-rule="evenodd" fill="#F17023" points="135.2,66.6 114.9,116.1 100.6,86.6 135.2,66.6 	"/>
	<polygon fill-rule="evenodd" clip-rule="evenodd" fill="#FDDD00" points="17.7,66.6 40.1,121.5 112.8,121.5 17.7,66.6 	"/>
	<polygon fill-rule="evenodd" clip-rule="evenodd" fill="#F8A51B" points="76.5,47 109.4,114.6 58,84.9 76.5,47 	"/>
	<path fill="#595A5E" d="M144.1,52l-17.2-1.2l5.3,8.7l-31.3,18.3L76.9,31l-22.8,47L6.4,54.8l27.4,66.9c1.6-0.3,3.2-0.2,4.8,0
		L14.7,64.2l41.4,19.9l20.5-41.2l22.8,41.6l35-21.6l3.1,5.1L144.1,52z"/>
</g>
</svg>
