<?xml version="1.0" encoding="utf-8"?>
<!-- Generator: Adobe Illustrator 14.0.0, SVG Export Plug-In . SVG Version: 6.00 Build 43363)  -->
<!DOCTYPE svg PUBLIC "-//W3C//DTD SVG 1.1//EN" "http://www.w3.org/Graphics/SVG/1.1/DTD/svg11.dtd">
<svg version="1.1" id="Layer_1" xmlns="http://www.w3.org/2000/svg" xmlns:xlink="http://www.w3.org/1999/xlink" x="0px" y="0px"
	 width="150px" height="150px" viewBox="0 0 150 150" enable-background="new 0 0 150 150" xml:space="preserve">
<g>
	<path fill="none" d="M74.171,19.31c-26.748,0-48.499,21.758-48.499,48.496c0,26.743,21.75,48.499,48.499,48.499
		c26.74,0,48.492-21.756,48.492-48.499C122.663,41.067,100.911,19.31,74.171,19.31z M74.169,112.615
		c-24.746,0-44.811-20.062-44.811-44.805c0-24.754,20.065-44.807,44.811-44.807c24.75,0,44.811,20.053,44.811,44.807
		C118.979,92.553,98.919,112.615,74.169,112.615z"/>
	<path fill="#6E543A" d="M50.18,127.376c1.448-3.137,0.074-6.859-3.07-8.312c-0.24-0.108-0.49-0.204-0.737-0.279
		c-1.027,3.691,0.084,6.369,3.496,8.454c-3.95-1.307-6.89-0.516-9.192,2.482c0.359,0.287,0.763,0.526,1.191,0.726
		C45.011,131.894,48.729,130.517,50.18,127.376z"/>
	<path fill="#6E543A" d="M43.122,123.835c1.706-2.917,0.719-6.669-2.196-8.371c-0.229-0.128-0.458-0.246-0.693-0.348
		c-1.346,3.496-0.523,6.212,2.601,8.557c-3.722-1.642-6.647-1.157-9.174,1.551c0.324,0.307,0.688,0.58,1.09,0.815
		C37.663,127.753,41.413,126.754,43.122,123.835z"/>
	<path fill="#6E543A" d="M138.418,82.672c0.357-3.249-0.823-5.313-3.732-6.487c-0.072,0.193-0.135,0.402-0.184,0.616
		c-0.632,2.765,1.094,5.515,3.854,6.146c2.763,0.628,5.517-1.09,6.146-3.865c0.084-0.368,0.133-0.745,0.133-1.122
		C141.526,77.949,139.554,79.458,138.418,82.672z"/>
	<path fill="#6E543A" d="M67.399,125.544c-0.288-0.005-0.571,0-0.847,0.021c0.512,4.063,2.721,6.247,6.937,6.885
		c-4.43,0.352-7,2.331-8.018,6.257c0.469,0.118,0.961,0.196,1.461,0.205c3.692,0.133,6.791-2.76,6.916-6.451
		C73.978,128.772,71.086,125.672,67.399,125.544z"/>
	<path fill="#6E543A" d="M35.658,111.152c-0.199-0.157-0.403-0.301-0.617-0.433c-1.79,3.191-1.367,5.925,1.315,8.628
		c-3.361-2.102-6.26-2.039-9.08,0.225c0.27,0.337,0.584,0.653,0.94,0.939c2.583,2.06,6.345,1.633,8.403-0.959
		C38.672,116.972,38.244,113.208,35.658,111.152z"/>
	<path fill="#6E543A" d="M60.423,124.122c-0.273-0.052-0.543-0.082-0.816-0.097c-0.105,4.003,1.708,6.436,5.691,7.673
		c-4.332-0.309-7.107,1.23-8.667,4.873c0.434,0.188,0.892,0.329,1.382,0.427c3.552,0.663,6.974-1.682,7.642-5.23
		C66.318,128.211,63.978,124.796,60.423,124.122z"/>
	<path fill="#6E543A" d="M53.377,122.076c-0.263-0.071-0.522-0.137-0.782-0.178c-0.487,3.896,1.037,6.435,4.799,8.026
		c-4.195-0.729-7.041,0.51-8.92,3.901c0.408,0.225,0.847,0.413,1.312,0.552c3.394,0.983,6.951-0.965,7.943-4.361
		C58.719,126.632,56.771,123.071,53.377,122.076z"/>
	<path fill="#6E543A" d="M30.615,106.314c-0.178-0.17-0.367-0.331-0.561-0.472c-2.035,2.93-1.879,5.632,0.482,8.508
		c-3.07-2.355-5.9-2.569-8.851-0.622c0.235,0.358,0.505,0.684,0.824,0.999c2.323,2.235,6.021,2.162,8.257-0.162
		C33.006,112.249,32.938,108.553,30.615,106.314z"/>
	<path fill="#6E543A" d="M139.664,75.67c0.028-3.188-1.312-5.065-4.242-5.921c-0.054,0.194-0.089,0.397-0.121,0.612
		c-0.338,2.739,1.588,5.232,4.331,5.573c2.73,0.347,5.227-1.585,5.572-4.318c0.044-0.379,0.05-0.75,0.015-1.108
		C142.21,70.789,140.445,72.446,139.664,75.67z"/>
	<path fill="#6E543A" d="M14.612,89.857c2.759-0.929,4.243-3.917,3.318-6.676c-0.075-0.215-0.151-0.418-0.246-0.612
		c-2.863,1.499-3.86,3.728-3.169,7.012c-1.479-3.168-3.656-4.52-6.825-4.188c0.035,0.378,0.12,0.765,0.244,1.143
		C8.859,89.3,11.845,90.789,14.612,89.857z"/>
	<path fill="#6E543A" d="M26.576,101.04c-0.146-0.193-0.306-0.37-0.475-0.541c-2.376,2.549-2.596,5.182-0.708,8.282
		c-2.649-2.701-5.35-3.3-8.465-1.821c0.176,0.373,0.396,0.736,0.658,1.076c1.933,2.474,5.507,2.93,7.995,0.994
		C28.065,107.099,28.514,103.518,26.576,101.04z"/>
	<path fill="#6E543A" d="M21.162,102.989c2.588-1.649,3.358-5.084,1.711-7.671c-0.13-0.193-0.265-0.388-0.411-0.562
		c-2.544,2.255-3.003,4.784-1.468,7.978c-2.313-2.876-4.878-3.704-8.042-2.562c0.135,0.379,0.313,0.745,0.543,1.104
		C15.135,103.865,18.572,104.631,21.162,102.989z"/>
	<path fill="#6E543A" d="M17.49,96.567c2.67-1.357,3.733-4.61,2.377-7.277c-0.104-0.214-0.22-0.406-0.344-0.591
		c-2.675,1.952-3.358,4.365-2.162,7.603c-1.98-2.998-4.394-4.038-7.569-3.231c0.099,0.381,0.235,0.758,0.423,1.122
		C11.57,96.86,14.826,97.919,17.49,96.567z"/>
	<path fill="#6E543A" d="M120.373,114.351c2.358-2.876,2.517-5.578,0.479-8.508c-0.194,0.141-0.381,0.302-0.558,0.472
		c-2.324,2.238-2.393,5.935-0.159,8.251c2.241,2.324,5.938,2.397,8.256,0.162c0.319-0.315,0.597-0.641,0.826-0.999
		C126.273,111.781,123.448,111.995,120.373,114.351z"/>
	<path fill="#6E543A" d="M114.543,119.348c2.69-2.703,3.115-5.437,1.315-8.628c-0.208,0.132-0.412,0.275-0.613,0.433
		c-2.58,2.056-3.008,5.819-0.956,8.4c2.059,2.592,5.816,3.019,8.402,0.959c0.354-0.286,0.668-0.603,0.939-0.939
		C120.807,117.309,117.913,117.246,114.543,119.348z"/>
	<path fill="#6E543A" d="M125.516,108.781c1.885-3.101,1.664-5.733-0.717-8.282c-0.165,0.171-0.323,0.348-0.474,0.541
		c-1.927,2.478-1.479,6.059,1.002,7.99c2.48,1.936,6.062,1.479,7.997-0.994c0.26-0.34,0.478-0.703,0.656-1.076
		C130.862,105.481,128.162,106.08,125.516,108.781z"/>
	<path fill="#6E543A" d="M136.389,89.581c0.688-3.284-0.303-5.513-3.16-7.012c-0.1,0.194-0.183,0.397-0.256,0.612
		c-0.92,2.759,0.564,5.747,3.326,6.676c2.762,0.932,5.749-0.558,6.673-3.321c0.127-0.378,0.21-0.765,0.248-1.143
		C140.042,85.062,137.871,86.413,136.389,89.581z"/>
	<path fill="#6E543A" d="M133.548,96.302c1.194-3.237,0.51-5.65-2.162-7.603c-0.126,0.185-0.24,0.377-0.344,0.591
		c-1.36,2.667-0.293,5.92,2.367,7.277c2.671,1.352,5.929,0.293,7.281-2.375c0.188-0.364,0.323-0.741,0.418-1.122
		C137.938,92.264,135.526,93.304,133.548,96.302z"/>
	<path fill="#6E543A" d="M129.907,102.734c1.534-3.193,1.081-5.723-1.461-7.978c-0.146,0.174-0.284,0.368-0.409,0.562
		c-1.65,2.587-0.882,6.021,1.704,7.671c2.596,1.642,6.03,0.876,7.675-1.713c0.225-0.358,0.402-0.725,0.538-1.104
		C134.784,99.03,132.228,99.858,129.907,102.734z"/>
	<path fill="#6E543A" d="M85.604,131.698c3.995-1.237,5.8-3.67,5.695-7.673c-0.27,0.015-0.542,0.045-0.813,0.097
		c-3.557,0.674-5.896,4.089-5.229,7.646c0.665,3.549,4.084,5.894,7.636,5.23c0.485-0.098,0.951-0.239,1.39-0.427
		C92.715,132.929,89.941,131.39,85.604,131.698z"/>
	<path fill="#6E543A" d="M77.425,132.449c4.216-0.638,6.418-2.821,6.932-6.885c-0.278-0.021-0.561-0.025-0.842-0.021
		c-3.691,0.128-6.586,3.229-6.457,6.916c0.122,3.691,3.219,6.584,6.912,6.451c0.507-0.009,0.995-0.087,1.468-0.205
		C84.417,134.78,81.847,132.801,77.425,132.449z"/>
	<path fill="#6E543A" d="M93.515,129.925c3.758-1.592,5.284-4.13,4.804-8.026c-0.267,0.041-0.533,0.106-0.793,0.178
		c-3.396,0.995-5.342,4.556-4.346,7.94c0.992,3.396,4.542,5.345,7.949,4.361c0.458-0.139,0.897-0.327,1.306-0.552
		C100.553,130.435,97.707,129.196,93.515,129.925z"/>
	<path fill="#6E543A" d="M101.039,127.238c3.41-2.085,4.521-4.763,3.489-8.454c-0.245,0.075-0.492,0.171-0.737,0.279
		c-3.139,1.453-4.511,5.176-3.061,8.312c1.445,3.141,5.167,4.518,8.309,3.07c0.429-0.199,0.826-0.438,1.19-0.726
		C107.922,126.723,104.986,125.932,101.039,127.238z"/>
	<path fill="#6E543A" d="M108.075,123.673c3.121-2.345,3.946-5.061,2.594-8.557c-0.229,0.102-0.46,0.22-0.684,0.348
		c-2.92,1.702-3.907,5.454-2.198,8.371c1.703,2.919,5.456,3.918,8.369,2.204c0.404-0.235,0.766-0.509,1.092-0.815
		C114.728,122.516,111.798,122.031,108.075,123.673z"/>
	<path fill="#6E543A" d="M118.779,24.815c0.085,0.137,0.188,0.27,0.293,0.387c1.377,1.627,3.812,1.821,5.437,0.439
		c1.619-1.382,1.816-3.81,0.434-5.431c-0.194-0.225-0.398-0.418-0.622-0.581c-1.405,1.855-1.38,3.732,0.046,5.849
		C122.565,23.8,120.793,23.585,118.779,24.815z"/>
	<path fill="#6E543A" d="M15.991,42.271c2.157,0.975,4.689,0,5.65-2.151c0.08-0.164,0.141-0.342,0.189-0.511
		c-2.522-0.672-4.351,0.113-5.745,2.458c0.857-2.713,0.298-4.708-1.78-6.258c-0.184,0.245-0.347,0.521-0.477,0.812
		C12.863,38.783,13.834,41.317,15.991,42.271z"/>
	<path fill="#6E543A" d="M37.915,14.603c-2.282-0.049-3.493,0.953-3.876,3.2C36.316,17.853,37.527,16.852,37.915,14.603z"/>
	<path fill="#6E543A" d="M114.514,20.72c0.099,0.117,0.209,0.235,0.317,0.347c1.467,1.428,3.823,1.397,5.248-0.082
		c1.431-1.468,1.4-3.82-0.068-5.25c-0.209-0.195-0.423-0.361-0.652-0.502c-1.182,1.917-0.987,3.702,0.581,5.614
		C118.058,19.406,116.341,19.357,114.514,20.72z"/>
	<path fill="#6E543A" d="M36.076,21.066c0.11-0.112,0.22-0.23,0.319-0.347c-1.828-1.362-3.552-1.313-5.421,0.127
		c1.562-1.913,1.75-3.697,0.575-5.614c-0.23,0.142-0.449,0.308-0.653,0.502c-1.467,1.43-1.505,3.781-0.066,5.25
		C32.254,22.464,34.603,22.494,36.076,21.066z"/>
	<path fill="#6E543A" d="M140.132,68.646c-0.276-3.07-1.755-4.758-4.674-5.309c-0.031,0.2-0.047,0.408-0.051,0.607
		c-0.069,2.683,2.047,4.906,4.721,4.973c2.679,0.066,4.896-2.046,4.966-4.723c0.01-0.362-0.021-0.724-0.089-1.066
		C142.127,63.695,140.574,65.465,140.132,68.646z"/>
	<path fill="#6E543A" d="M18.931,36.324c1.984,1.133,4.508,0.434,5.64-1.555c0.084-0.153,0.164-0.311,0.23-0.464
		c-2.377-0.887-4.203-0.306-5.761,1.821c1.082-2.525,0.727-4.503-1.131-6.186c-0.2,0.224-0.382,0.469-0.533,0.739
		C16.25,32.674,16.942,35.197,18.931,36.324z"/>
	<path fill="#6E543A" d="M31.842,25.202c0.104-0.117,0.199-0.25,0.288-0.387c-2.018-1.229-3.792-1.015-5.59,0.662
		c1.426-2.116,1.446-3.993,0.043-5.849c-0.222,0.163-0.423,0.356-0.617,0.581c-1.384,1.622-1.186,4.049,0.438,5.431
		C28.023,27.023,30.457,26.829,31.842,25.202z"/>
	<path fill="#6E543A" d="M116.871,17.803c-0.385-2.247-1.596-3.249-3.878-3.2C113.377,16.852,114.592,17.853,116.871,17.803z"/>
	<path fill="#6E543A" d="M129.072,39.608c0.052,0.169,0.116,0.347,0.191,0.511c0.962,2.151,3.494,3.126,5.65,2.151
		c2.158-0.954,3.124-3.487,2.163-5.65c-0.13-0.291-0.29-0.566-0.479-0.812c-2.073,1.55-2.638,3.544-1.779,6.258
		C133.428,39.721,131.6,38.936,129.072,39.608z"/>
	<path fill="#6E543A" d="M126.105,34.305c0.068,0.153,0.143,0.311,0.229,0.464c1.13,1.989,3.656,2.688,5.641,1.555
		c1.991-1.127,2.686-3.65,1.559-5.645c-0.159-0.271-0.337-0.515-0.534-0.739c-1.858,1.683-2.216,3.661-1.128,6.186
		C130.31,33.999,128.48,33.418,126.105,34.305z"/>
	<path fill="#6E543A" d="M122.659,29.354c0.076,0.152,0.167,0.29,0.262,0.433c1.27,1.805,3.761,2.244,5.565,0.979
		c1.808-1.274,2.247-3.764,0.981-5.569c-0.176-0.245-0.369-0.464-0.584-0.658c-1.634,1.78-1.792,3.713-0.517,6.048
		C126.668,28.685,124.858,28.288,122.659,29.354z"/>
	<path fill="#6E543A" d="M133.559,50.89c0.015,0.188,0.029,0.382,0.066,0.571c0.438,2.484,2.804,4.141,5.285,3.703
		s4.141-2.805,3.702-5.284c-0.062-0.341-0.155-0.663-0.287-0.974c-2.548,1.065-3.644,2.983-3.455,6.013
		C138.038,52.128,136.352,50.854,133.559,50.89z"/>
	<path fill="#6E543A" d="M137.176,48.35c-1.2-2.56-2.996-3.539-5.67-3.101c0.035,0.179,0.088,0.357,0.145,0.531
		c0.777,2.32,3.285,3.57,5.601,2.794c2.312-0.77,3.559-3.284,2.787-5.599c-0.105-0.312-0.244-0.607-0.406-0.888
		C137.34,43.475,136.56,45.479,137.176,48.35z"/>
	<path fill="#6E543A" d="M139.861,61.711c-0.563-2.942-2.161-4.437-5.028-4.671c-0.014,0.189-0.005,0.388,0.006,0.586
		c0.19,2.591,2.454,4.533,5.043,4.34c2.591-0.189,4.534-2.458,4.34-5.044c-0.026-0.352-0.094-0.698-0.193-1.025
		C141.302,56.729,139.981,58.59,139.861,61.711z"/>
	<path fill="#6E543A" d="M27.986,29.787c0.094-0.143,0.184-0.281,0.263-0.433c-2.203-1.066-4.011-0.669-5.709,1.233
		c1.275-2.335,1.114-4.269-0.514-6.048c-0.214,0.194-0.414,0.413-0.587,0.658c-1.262,1.805-0.828,4.294,0.982,5.569
		C24.227,32.031,26.718,31.592,27.986,29.787z"/>
	<path fill="#6E543A" d="M11.021,61.966c2.593,0.193,4.855-1.75,5.048-4.34c0.016-0.198,0.016-0.397,0.005-0.586
		c-2.866,0.234-4.46,1.729-5.033,4.671c-0.115-3.121-1.438-4.982-4.164-5.814c-0.105,0.327-0.166,0.674-0.191,1.025
		C6.493,59.508,8.436,61.777,11.021,61.966z"/>
	<path fill="#6E543A" d="M12.551,82.946c2.762-0.631,4.486-3.381,3.853-6.146c-0.046-0.214-0.104-0.423-0.184-0.616
		c-2.915,1.174-4.093,3.238-3.733,6.487c-1.132-3.214-3.109-4.723-6.214-4.713c0,0.377,0.041,0.754,0.13,1.122
		C7.036,81.856,9.788,83.574,12.551,82.946z"/>
	<path fill="#6E543A" d="M11.277,75.934c2.731-0.341,4.668-2.834,4.329-5.573c-0.033-0.214-0.068-0.418-0.119-0.612
		c-2.93,0.856-4.274,2.734-4.241,5.921c-0.785-3.224-2.554-4.881-5.558-5.162c-0.036,0.358-0.031,0.729,0.018,1.108
		C6.049,74.349,8.541,76.28,11.277,75.934z"/>
	<path fill="#6E543A" d="M10.779,68.917c2.675-0.066,4.783-2.29,4.722-4.973c-0.005-0.2-0.022-0.408-0.053-0.607
		c-2.915,0.551-4.401,2.239-4.679,5.309c-0.444-3.182-1.989-4.952-4.869-5.518c-0.065,0.342-0.102,0.704-0.091,1.066
		C5.881,66.872,8.102,68.983,10.779,68.917z"/>
	<path fill="#6E543A" d="M11.996,55.163c2.481,0.438,4.847-1.219,5.286-3.703c0.031-0.189,0.059-0.382,0.069-0.571
		c-2.794-0.036-4.483,1.239-5.312,4.029c0.188-3.029-0.911-4.947-3.463-6.013c-0.125,0.311-0.224,0.632-0.283,0.974
		C7.855,52.358,9.517,54.725,11.996,55.163z"/>
	<path fill="#6E543A" d="M13.653,48.574c2.317,0.775,4.824-0.474,5.596-2.794c0.064-0.174,0.11-0.352,0.146-0.531
		c-2.667-0.438-4.464,0.541-5.661,3.101c0.613-2.871-0.166-4.875-2.453-6.262c-0.167,0.281-0.303,0.576-0.412,0.888
		C10.091,45.29,11.338,47.805,13.653,48.574z"/>
	<path fill="#454239" d="M131.004,67.805c0-31.338-25.494-56.831-56.833-56.831c-31.338,0-56.834,25.493-56.834,56.831
		c0,31.336,25.496,56.836,56.834,56.836C105.51,124.642,131.004,99.142,131.004,67.805z M74.171,116.304
		c-26.748,0-48.499-21.756-48.499-48.499c0-26.738,21.75-48.496,48.499-48.496c26.74,0,48.492,21.758,48.492,48.496
		C122.663,94.548,100.911,116.304,74.171,116.304z"/>
	<path fill="#6E543A" d="M74.169,23.004c-24.746,0-44.811,20.053-44.811,44.807c0,24.742,20.065,44.805,44.811,44.805
		c24.75,0,44.811-20.062,44.811-44.805C118.979,43.057,98.919,23.004,74.169,23.004z M96.07,40.557l3.362,1.658l3.275-1.831
		l-0.538,3.718l2.753,2.545l-3.703,0.643l-1.568,3.401l-1.747-3.32l-3.724-0.443l2.615-2.688L96.07,40.557z M108.433,77.348
		c0,0,1.697,2.524-3.364,6.858c-1.964-2.616-5.999-4.88-11.356-6.482c-2.518-2.968-5.985-5.093-7.624-5.997
		C94.029,70.513,103.957,70.636,108.433,77.348z M91.834,77.208C86.899,75.95,81.04,75.21,74.738,75.21
		c-0.229,0-0.449,0.004-0.673,0.004c-0.229-0.069-0.464-0.151-0.683-0.218c0.455-0.173,0.877-0.332,1.251-0.455
		c0,0,1.6-0.582,4.122-1.254C83.945,73.726,88.936,75.796,91.834,77.208z M73.379,30.154l2.104-4.258l2.104,4.258l4.701,0.688
		l-3.401,3.315l0.806,4.676l-4.21-2.203l-4.209,2.203l0.811-4.676l-3.399-3.315L73.379,30.154z M48.127,35.192l3.369,1.657
		l3.274-1.831l-0.538,3.713l2.747,2.56l-3.698,0.632l-1.57,3.402l-1.745-3.32l-3.728-0.448l2.621-2.683L48.127,35.192z
		 M32.433,68.229c4.475-6.717,14.404-6.834,22.345-5.621c-1.795,0.98-5.786,3.417-8.323,6.845c0,0,7.609-4.6,15.656-5.294
		c2.522,0.684,4.121,1.259,4.121,1.259c0.375,0.127,0.798,0.281,1.252,0.454c-3.336,0.969-7.943,3.08-10.276,7.594
		c0,0,7.494-4.901,14.277-5.912c1.654,0.75,3.467,1.653,5.316,2.657c-2.302,0.75-5.228,2.01-7.295,3.928
		c-11.046,0.952-19.965,3.527-24.053,6.868C29.128,73.124,32.433,68.229,32.433,68.229z M73.509,99.042
		c-32.513-0.404-30.256-8.7-30.256-8.7c2.057-7.798,11.41-11.122,19.325-12.54c-1.377,1.504-4.371,5.104-5.666,9.163
		c0,0,5.714-6.813,13.108-10.061c2.606-0.171,4.302-0.148,4.302-0.148c0.398,0,0.852,0.011,1.339,0.03
		c-2.848,1.993-6.523,5.481-7.275,10.506c0,0,5.502-7.058,11.597-10.212c1.812,0.18,3.815,0.44,5.893,0.797
		c-2.76,2.08-6.397,5.529-6.677,9.415c0,0,4.832-6.019,9.703-8.823c8.674,1.86,17.52,5.508,17.85,12.065
		C107.243,100.295,73.509,99.042,73.509,99.042z"/>
	<path fill="#E6D4BC" d="M69.505,74.14c2.068-1.918,4.993-3.178,7.295-3.928c-1.849-1.004-3.662-1.907-5.316-2.657
		c-6.783,1.011-14.277,5.912-14.277,5.912c2.333-4.514,6.94-6.625,10.276-7.594c-0.454-0.173-0.878-0.327-1.252-0.454
		c0,0-1.599-0.576-4.121-1.259c-8.047,0.694-15.656,5.294-15.656,5.294c2.537-3.427,6.527-5.865,8.323-6.845
		c-7.94-1.213-17.87-1.096-22.345,5.621c0,0-3.305,4.895,13.02,12.778C49.54,77.667,58.459,75.092,69.505,74.14z"/>
	<path fill="#E6D4BC" d="M88.902,78.469c-4.871,2.805-9.703,8.823-9.703,8.823c0.279-3.886,3.917-7.335,6.677-9.415
		c-2.077-0.356-4.08-0.617-5.893-0.797c-6.095,3.154-11.597,10.212-11.597,10.212c0.752-5.024,4.427-8.513,7.275-10.506
		c-0.487-0.02-0.941-0.03-1.339-0.03c0,0-1.696-0.022-4.302,0.148c-7.394,3.247-13.108,10.061-13.108,10.061
		c1.295-4.059,4.289-7.659,5.666-9.163c-7.915,1.418-17.268,4.742-19.325,12.54c0,0-2.257,8.296,30.256,8.7
		c0,0,33.734,1.253,33.243-8.508C106.422,83.977,97.576,80.329,88.902,78.469z"/>
	<path fill="#E6D4BC" d="M93.712,77.724c5.357,1.603,9.393,3.866,11.356,6.482c5.062-4.334,3.364-6.858,3.364-6.858
		c-4.476-6.712-14.403-6.835-22.345-5.621C87.727,72.63,91.194,74.756,93.712,77.724z"/>
	<polygon fill="#E6D4BC" points="71.273,38.833 75.482,36.63 79.692,38.833 78.887,34.157 82.288,30.842 77.587,30.154 
		75.482,25.896 73.379,30.154 68.684,30.842 72.083,34.157 	"/>
	<polygon fill="#E6D4BC" points="49.965,42.006 51.71,45.326 53.28,41.924 56.979,41.292 54.232,38.732 54.77,35.019 51.496,36.85 
		48.127,35.192 48.859,38.875 46.238,41.558 	"/>
	<polygon fill="#E6D4BC" points="97.904,47.371 99.651,50.69 101.22,47.289 104.923,46.646 102.17,44.102 102.708,40.384 
		99.433,42.215 96.07,40.557 96.796,44.239 94.181,46.927 	"/>
</g>
</svg>
