<?xml version="1.0" encoding="utf-8"?>
<!-- Generator: Adobe Illustrator 18.1.0, SVG Export Plug-In . SVG Version: 6.00 Build 0)  -->
<svg version="1.1" id="Layer_1" xmlns="http://www.w3.org/2000/svg" xmlns:xlink="http://www.w3.org/1999/xlink" x="0px" y="0px"
	 viewBox="0 0 1000 1000" enable-background="new 0 0 1000 1000" xml:space="preserve">
<g>
	<path fill="none" d="M466.8,754.5c-26.9-20.8-74.6-33.8-67.7-17.3c2.5,6-2.1,11.8-10.3,16c11.6,0.3,25.3,4.5,44,15.1
		c30.3,17.2,46.7,8.3,67.1-3.5C488.9,765.3,476.9,762.3,466.8,754.5z"/>
	<path fill="none" d="M777.8,460.4c0,0-5.9-1.9-10-1.9l0.5,34.3l10.5,3.9L777.8,460.4z"/>
	<path fill="#006DB6" d="M244.2,708.3c0,0,6.8-4.9,16.9-8.2c1.5-0.3,2-0.1,2-0.1l3.7-1.5c10.1-2.3,22.4-2.3,34.4,4.7
		c27.5,16.2,50.5-10.1,37.6-12.1c-12.9-2,11.9-22.3,45.9,1c34,23.3,79.9,10.1,58.8,0c-21.1-10.1,5.5-14.2,25.7-3
		c20.2,11.1,29.4,3,45.9-3c16.5-6.1,34.9,5.1,34.9,5.1S535.3,678,505.9,677c-29.4-1-44.1,8.4-69.8-20.9
		c-25.7-29.3-22-37.1-84.5-37.1s-108.4,0-108.4,0l-37.3,1.3v3l-8-6.1l194.4-8.1c0,0,11.3-29.3,54.5-31.4
		c43.2-2,422.6,29.3,422.6,29.3l-3.6-7.1l-465.5-38.4c0,0-54.1-5-137.7,0c-100.9,6.1-90.7-0.3-210.3,5.1c0,0,114.7,84.6,166.8,123
		c-6.7,5.3-13.4,11.6-19.9,18.6c-35.6,37.9-64,23.7-60.5,3.6c3.6-20.2,22.5-14.2,22.5-14.2s-15.4,17.8,2.4,17.8
		c17.8,0,24.9-28.4-4.7-34.4c-29.6-5.9-60.5,22.5-39.1,52.1c21.3,29.6,69.9,14.2,103.1-10.7c8.7-6.5,15.6-11.2,21.1-14.5
		C244,708.1,244.2,708.3,244.2,708.3z"/>
	<polygon fill="#006DB6" points="447.2,611.2 881.5,622.3 883.4,617.3 446.3,607.2 	"/>
	<path fill="#006DB6" d="M598.7,429.2l-10.1-25.3l-84.5-28.3l-0.9,9.1l70.7,28.3l11.9,19.2l270.9,101.1l-1.8-8.1l-70.3-26.4
		l-3.8-41.7c0,0,0.6-3.9-16.5-3.9c-17.1,0-16.5,11-16.5,11l-2.9,19.5l1.5,0.8L598.7,429.2z M767.8,458.5c4.1,0,10,1.9,10,1.9l1,36.3
		l-10.5-3.9L767.8,458.5z"/>
	<path fill="#006DB6" d="M237.8,490.9l11,13.1c88.4-22,184.6-8.1,184.6-8.1l18.6-20c0,0-21.7-13.4-94.2-13.4
		C285.2,462.5,237.8,490.9,237.8,490.9z"/>
	<path fill="#006DB6" d="M476.4,435.6c0,0-21.7-13.4-94.2-13.4c-72.5,0-120,28.4-120,28.4l11,13.1c88.4-22,184.6-8.1,184.6-8.1
		L476.4,435.6z"/>
	<polygon fill="#006DB6" points="397.6,515.3 229.6,519.4 230.5,524.4 385.7,528.5 	"/>
	<polygon fill="#006DB6" points="363,548 206,548 206,553.6 363,554.6 	"/>
	<polygon fill="#006DB6" points="443.1,500.3 876,583.9 876.9,579.9 452,488.7 	"/>
	<polygon fill="#006DB6" points="868,563.7 467.5,466.1 456.5,477.7 868,569.8 	"/>
	<polygon fill="#006DB6" points="872.4,554.6 483,445.4 472.9,456.5 871.4,559.6 	"/>
	<polygon fill="#006DB6" points="518.8,439.3 872.4,552.6 873.3,545.5 524.3,429.2 	"/>
	<polygon fill="#006DB6" points="880.6,592 434.4,508.3 420.4,522.3 879.7,597.1 	"/>
	<polygon fill="#006DB6" points="413.2,533.3 391.2,556.6 748.4,578.9 	"/>
	<polygon fill="#006DB6" points="624.4,417 602.4,407.9 615.2,432.2 638.2,443.3 	"/>
	<polygon fill="#006DB6" points="496.3,397.6 336.1,399.4 323.9,414 486.9,414 	"/>
	<polygon fill="#006DB6" points="357.8,387.4 492.5,385.5 498.6,373.3 371.1,374.6 	"/>
	<path fill="#006DB6" d="M895.1,328.1c0,0-0.1,7.4-2.3,14C896.3,336.6,895.1,328.1,895.1,328.1z"/>
	<path fill="#006DB6" d="M874.8,344.3c-24-9.6-57.6,1-49.8,37.4c7.8,36.4-15.2,25.9-31.8,15.3c-16.6-10.5-30.9,13.4-31.3,52.7
		l7.4,1.9c0,0,1.8-66.1,26.3-50.8c24.4,15.3,40.6,21.1,33.2-14.4c-7.4-35.5,24.4-52.7,45.2-38.3c11.1,7.7,16.4,1.4,18.9-6.2
		C890.2,346.1,885,348.4,874.8,344.3z"/>
	<path fill="#006DB6" d="M915.8,296.4c-24.9-24-46.5-21.1-40.6,1.9c6,23-2.3,37.4-40.5,23c-38.3-14.4-39.2,20.1-34.1,35.5
		c5.1,15.3,4.2,34.5-17,24c-21.2-10.5-24.9,65.2-24.9,65.2l0.9,2.9c5.1-70,17.5-56.5,31.8-53.7c14.3,2.9,19.8,1,12-30.7
		c-7.8-31.6,6.9-35.5,36-32.6c29,2.9,42.4,3.8,39.6-21.1c-2.8-24.9,14.3-24,39.2-1c24.9,23,30.4-4.8,30.4-4.8
		S940.7,320.4,915.8,296.4z"/>
	<path fill="#D27E3D" d="M311.6,258.3c116.9-55.7,256.8-6.1,312.5,110.8c10.8,22.7,17.5,46.2,20.7,69.8l21.7,7.7
		c1-37.8-6.6-76.3-24-112.7c-58.7-123.2-206.2-175.5-329.4-116.8C204.3,269,150.8,390,180.2,502.4
		C166.4,403.8,216.9,303.4,311.6,258.3z"/>
	<path fill="#FD9A2B" d="M597.4,361.8c-53.2-99.5-175.7-140.6-278.7-91.5c-98.2,46.8-143.9,159.1-109.9,259.6l20.1-37.3
		c-7.9-82,35.3-163.8,114-201.2C434.6,247.7,542.8,279.5,597.4,361.8z"/>
	<path fill="#FFB602" d="M569.5,381c-43.6-81.5-144-115.2-228.3-75c-66.2,31.5-103.3,99.4-98.8,168.4l30.7-46.8
		c12.5-44.2,43.2-83,87.9-104.3C436.2,287.5,524.8,313.6,569.5,381z"/>
	<path fill="#006DB6" d="M740.1,690.3c-28.6-13.9-39.9-11.3-65.1,7.8c-25.2,19.1-59,26-100.6,9.5c-41.6-16.5-75.5-11.3-73.7,3.5
		c1.7,14.7-33,14.7-80.7-4.3c-47.7-19.1-74.6,1.7-65.1,13.9c9.5,12.1-18.2,28.6-45.1,10.4c-26.9-18.2-48.6,0.9-48.6,0.9
		c13-8.7,44.2,8.7,71.1,22.6c8.5,4.4,19,5.9,29.2,5.4c-16.3,8.2-31.8,22.3-63.6,1.7c-34-22-64.8,2.2-64.8,2.2l1.1,3.3
		c14.3-8.8,35.1-1.1,46.1,12.1c11,13.2,37.3,15.4,62.6,0c25.2-15.4,58.2,6.6,77.9,27.4c19.8,20.9,58.2,2.2,84.5-17.6
		c26.3-19.8,36.2-4.4,58.2,1.1c22,5.5,41.7-27.4,41.7-27.4s-17.6,12.1-42.8,0c-15-7.2-24.2-10.7-34-9.8c3.3-3.6,5.2-7.8,5.2-12.3
		c0-20.8,32.1-15.6,56.4,0c24.3,15.6,82.4,0.9,94.6-12.1c12.1-13,32.1-18.2,57.3-6.9c25.2,11.3,46-28.6,46-28.6
		S768.7,704.2,740.1,690.3z M432.9,768.2c-18.7-10.6-32.4-14.8-44-15.1c8.2-4.2,12.8-10,10.3-16c-6.9-16.5,40.8-3.5,67.7,17.3
		c10.1,7.8,22.1,10.8,33.1,10.2C479.5,776.5,463.2,785.4,432.9,768.2z"/>
	<path fill="#006DB6" d="M636.2,690.2c36.1-27.3,60.8-21.1,60.8-21.1s-38.7-13.2-61.6-0.9c-22.9,12.3-48.4,29.9-73.1,13.2
		C562.2,681.4,600.1,717.5,636.2,690.2z"/>
	<path fill="#006DB6" d="M790.3,657.6c-12.3,7.1-13.2,26.4-36.1,15.9c0,0,11.4,19.4,35.2,6.2c23.8-13.2,37.8-12.3,37.8-12.3
		S802.7,650.6,790.3,657.6z"/>
	<polygon fill="#006DB6" points="506.8,602.6 506.8,595.7 499.9,594.6 500.7,602.4 	"/>
	<polygon fill="#006DB6" points="536,603.6 536,596.8 528.9,595.6 529.8,603.4 	"/>
	<polygon fill="#006DB6" points="564.5,604.7 564.5,597.8 557.6,596.7 558.4,604.5 	"/>
	<polygon fill="#006DB6" points="594,605.7 594,598.8 586.7,597.7 587.8,605.5 	"/>
	<polygon fill="#006DB6" points="623,606.8 623,599.9 615.7,598.8 616.7,606.6 	"/>
	<polygon fill="#006DB6" points="651,607.8 651,600.9 644.1,599.8 644.9,607.6 	"/>
	<polygon fill="#006DB6" points="680,608.9 680,602 673,600.9 673.9,608.6 	"/>
	<polygon fill="#006DB6" points="708.8,609.9 708.8,603 701.8,601.9 702.7,609.7 	"/>
	<polygon fill="#006DB6" points="738,611 738,604.1 730.9,603 731.8,610.7 	"/>
	<polygon fill="#006DB6" points="766.5,612 766.5,605.1 759.5,604 760.4,611.8 	"/>
	<polygon fill="#006DB6" points="796,613.1 796,606.1 788.7,605 789.8,612.8 	"/>
</g>
</svg>
