<?xml version="1.0" encoding="utf-8"?>
<!-- Generator: Adobe Illustrator 18.1.0, SVG Export Plug-In . SVG Version: 6.00 Build 0)  -->
<svg version="1.1" id="Layer_1" xmlns="http://www.w3.org/2000/svg" xmlns:xlink="http://www.w3.org/1999/xlink" x="0px" y="0px"
	 viewBox="0 0 150 150" enable-background="new 0 0 150 150" xml:space="preserve">
<g>
	<path fill="#F0574A" d="M134.1,89c0-9-2.4-17.4-6.5-24.7c-0.5,1.2-1,2.4-1.5,3.5c0.2,0.4,0.4,0.8,0.6,1.2c0,0.2-0.1,0.3-0.1,0.5
		c-0.2-0.4-0.5-0.8-0.7-1.3c-0.3,0.7-0.7,1.3-1.1,2c0.3,0.6,0.6,1.2,0.9,1.8c-0.4,0.8-0.8,1.6-1.4,2.5c-0.3-0.6-0.6-1.3-0.9-1.9
		c-0.4,0.7-0.8,1.4-1.2,2.1c0.2,0.5,0.5,1,0.7,1.5c-0.8,1-1.9,1.9-3.1,2.9c0-0.1-0.1-0.2-0.1-0.3c-1,1.6-2.1,3.1-3.2,4.6
		c0.8-0.4,1.6-0.9,2.3-1.4c1.2,3.4,2.2,7.1,3,11c-1.7,1.2-3.8,2.3-6.1,3.3c-0.5-3.3-1.2-6.5-2-9.4c-0.5,0.6-1,1.3-1.5,1.9
		c0.7,2.7,1.2,5.5,1.7,8.4c-2.5,1-5.5,1.8-8.7,2.6c-0.1-1.2-0.3-2.2-0.5-3.3c-0.6,0.5-1.2,1-1.8,1.5c0.1,0.8,0.2,1.5,0.3,2.3
		c-1.1,0.2-2.4,0.4-3.6,0.6c-1.1,0.9-2.2,1.7-3.3,2.5c2.6-0.3,4.9-0.7,7.2-1.2c0.2,2.4,0.5,4.8,0.6,7.5c0.1,1.1,0.1,2.1,0.1,3.2
		c-3.1,0.8-6.5,1.5-10.2,2c0-0.6,0-1.2,0-1.8c-0.1-2.6-0.3-5.1-0.4-7.6c-0.6,0.4-1.2,0.9-1.9,1.3c0.1,2.1,0.3,4.2,0.3,6.4
		c0,0.7,0,1.3,0,1.9c-3.5,0.4-7.3,0.6-11.5,0.6c-0.3,0-0.5,0-0.8,0c0-0.7,0-1.5,0-2.3c-0.6,0.3-1.3,0.6-1.9,0.9c0,0.4,0,0.9,0,1.3
		c-0.9,0-1.8,0-2.6-0.1c-1.4,0.6-2.9,1.2-4.4,1.7c2.2,0.2,4.6,0.3,7,0.3c0,3.4,0.1,6.4,0.1,9c-4.1-0.1-7.8-0.4-11.2-0.9
		c-0.1-2-0.2-4.3-0.3-6.9c-0.6,0.2-1.3,0.4-1.9,0.6c0,2.2,0.1,4.2,0.2,6.1c-3.9-0.6-7.3-1.5-10.3-2.6c0-0.3-0.1-0.6-0.1-0.9
		c-1.6,0.3-3.3,0.7-4.9,1c1,0.4,2.2,0.8,3.3,1.2c0.3,2.1,0.7,3.9,1.2,5.4c-2.9-1.2-5.4-2.6-7.5-4c-0.2-0.6-0.5-1.4-0.7-2.1
		c-0.6,0.1-1.3,0.2-1.9,0.2c0,0,0,0.1,0,0.1c0,0-0.1-0.1-0.1-0.1c-1.5,0.2-3,0.3-4.5,0.4c0.3,0.4,0.7,0.8,1,1.1
		c0.9,1.2,1.5,1.8,1.7,1.9c2,2.1,4.2,4.1,6.6,5.9l0,0c0,0,0.1,0.1,0.1,0.1c0.2,0.1,0.4,0.3,0.6,0.5c0.4,0.4,0.7,0.6,0.7,0.6l0,0
		c8.5,6,19,9.7,30.7,9.7c6.3,0,12.2-1,17.5-2.7l0,0.1v0c0,0,0.2-0.1,0.2-0.1c3.2-1,6.2-2.4,9-3.9l0.1,0.1v0c0.2-0.1,0.4-0.3,0.7-0.5
		c3.3-1.9,6.4-4.3,9.1-6.9c0.2-0.2,0.4-0.4,0.4-0.4l0,0l0,0l0,0c0.1,0,0.3-0.3,0.5-0.6c3.1-3.1,5.8-6.6,8.1-10.3
		c0.1-0.1,0.2-0.3,0.3-0.3l-0.1,0c0.2-0.3,0.3-0.6,0.5-0.9l0.1,0.1v0c0,0,0.2-0.5,0.6-1.3c1.5-2.9,2.7-5.9,3.7-9
		c0.1-0.1,0.1-0.3,0.2-0.4l-0.1,0c1.3-4.1,2.1-8.3,2.5-12.7l0.1,0c0,0,0-0.3,0-0.6c0,0,0-0.1,0-0.1l-0.1,0c0,0,0,0,0-0.1
		C134,91.8,134.1,90.4,134.1,89z M124.7,117.3c-0.1,0.2-0.6,0.7-1.4,1.6c0.3-0.9,0.6-1.9,0.8-2.9c0.8-0.7,1.5-1.4,2.2-2.1
		c-0.3,0.9-0.6,1.6-0.8,2C125.2,116.4,124.9,116.9,124.7,117.3z M69,138.8c-0.3-0.8-0.7-1.8-1-3.1c3.1,0.5,6.5,0.8,10.1,1
		c0.1,1.2,0.1,2.3,0.2,3.1C75,139.7,71.9,139.3,69,138.8z M66.7,138.3c-2.9-0.7-5.5-1.5-7.8-2.4c-0.2-0.3-0.4-0.6-0.6-0.9
		c-0.3-0.6-0.7-1.2-1.1-1.9c2.6,0.9,5.5,1.7,8.7,2.3C66.1,136.5,66.4,137.4,66.7,138.3z M78.4,141.8c0,0,0,0.1,0,0.1
		c-1.7-0.1-3.3-0.2-5-0.4C75,141.6,76.7,141.7,78.4,141.8z M80,136.7c0.5,0,0.9,0.1,1.4,0.1c3,0,5.7-0.3,8.4-0.6
		c-0.3,1.2-0.6,2.1-0.9,2.9c-2.7,0.4-5.7,0.6-8.8,0.7C80.1,139,80.1,138,80,136.7z M124.3,95.7c-0.1-0.7-0.3-1.4-0.4-2.1
		c1.5-1.1,2.8-2.3,3.8-3.4c0.6,2.9,0.9,5.6,1,8.1c-1,1.2-2.2,2.6-3.7,3.9C124.9,100.2,124.7,98,124.3,95.7z M125.1,104.6
		c1.4-1.1,2.6-2.3,3.6-3.4c-0.1,3.1-0.5,5.8-1.1,8c-0.8,1.1-1.8,2.4-3.1,3.6c0.3-2.2,0.6-4.6,0.6-7.2
		C125.1,105.3,125.1,104.9,125.1,104.6z M129.3,88.3c0.6-0.8,1.1-1.5,1.5-2.3c0.7,3.2,1.1,5.8,1.2,7c-0.2,0.5-0.7,1.5-1.5,2.7
		C130.3,93.5,129.9,90.9,129.3,88.3z M122.2,115c-1.7,1.4-3.7,2.7-6,4c0.4-2.5,0.6-5.2,0.6-8.4c0-0.2,0-0.4,0-0.5
		c2.5-1.3,4.5-2.6,6.4-4C123.1,109.5,122.8,112.5,122.2,115z M120.1,121.9c-1.4,1.2-3.1,2.5-5.3,3.9c0.4-1.3,0.8-2.8,1.1-4.3
		c2.1-1.1,4-2.2,5.6-3.4C121,119.5,120.6,120.8,120.1,121.9z M116.2,128.1c0,0-1.2,1-3.3,2.4c0.3-0.6,0.6-1.2,0.9-1.9
		c1.5-0.9,2.8-1.7,4.1-2.6C116.9,127.4,116.2,128.1,116.2,128.1L116.2,128.1z M102.6,135.6c0.4-0.8,0.7-1.5,1.1-2.5
		c2.6-0.9,5-1.9,7.2-3c-0.5,0.9-1,1.8-1.6,2.4C107.4,133.6,105.2,134.6,102.6,135.6z M114.1,120.2c-2.4,1.2-5.2,2.3-8.4,3.2
		c0.2-2.3,0.4-4.8,0.4-7.6c0-0.4,0-1,0-1.4c3.3-1,6.2-2.1,8.8-3.3C114.8,114.6,114.5,117.6,114.1,120.2z M113.6,122.5
		c-0.4,1.8-0.9,3.4-1.4,4.7c-2.3,1.3-4.9,2.5-7.9,3.6c0.4-1.5,0.8-3.3,1.1-5.3C108.5,124.6,111.2,123.6,113.6,122.5z M102.1,131.7
		c-3,1-6.2,1.8-9.7,2.3c0.4-1.8,0.7-3.8,1-6.1c3.7-0.4,7-1.1,10-1.8C103,128.2,102.6,130.1,102.1,131.7z M90.3,134.2
		c-2.8,0.3-5.7,0.6-8.8,0.6c-0.5,0-1,0-1.5-0.1c-0.1-1.7-0.1-3.8-0.2-6.2c0.1,0,0.2,0,0.4,0c4.1,0,7.8-0.2,11.2-0.6
		C91,130.5,90.7,132.5,90.3,134.2z M91.9,136c3.4-0.5,6.5-1.2,9.3-2c-0.2,0.5-0.5,1.2-0.7,1.6c-0.2,0.4-0.4,0.6-0.6,0.9
		c-2.6,0.9-5.6,1.6-8.8,2.1C91.4,137.9,91.6,137,91.9,136z M97.5,139.3c-0.1,0.1-0.1,0.1-0.2,0.1c-2.2,0.7-4.6,1.3-7,1.7
		c0-0.1,0.1-0.2,0.1-0.3C92.9,140.4,95.3,139.9,97.5,139.3z M130.7,98.9c0.3-0.4,0.5-0.7,0.8-1.1c-0.2,1.5-0.5,3-0.8,4.4
		c0.1-0.9,0.1-1.9,0.1-2.9C130.7,99.2,130.7,99,130.7,98.9z M128,71.5c1.8,3.8,2.9,6.7,2.9,6.7h0c0.1,0.3,0.1,0.5,0.2,0.7
		c0,0.1,0,0.3-0.1,0.6c-0.8-2.5-1.9-5-3.2-7.7C127.9,71.7,127.9,71.6,128,71.5z M126.8,74.1c1.5,3.2,2.5,6.3,3.3,9.2
		c-0.3,0.8-0.8,1.7-1.3,2.6c-0.1-0.3-0.1-0.5-0.2-0.8c-1-3.1-2.1-6-3.3-8.7C125.8,75.6,126.3,74.8,126.8,74.1z M120.5,80.9
		c1.3-1,2.4-1.9,3.3-2.9c1.1,2.4,2,4.9,2.9,7.7c0.3,0.8,0.3,1.6,0.5,2.4c-1,1.2-2.2,2.4-3.7,3.7C122.7,87.8,121.7,84.2,120.5,80.9z
		 M122.2,94.9c0.1,0.4,0.2,0.7,0.2,1.1c0.4,2.8,0.6,5.4,0.7,7.8c-1.8,1.4-3.9,2.8-6.4,4.2c0-0.6,0-1.2,0-1.8
		c-0.2-2.8-0.5-5.4-0.8-7.9C118.3,97.2,120.4,96.1,122.2,94.9z M105.9,109.6c-0.2-2.8-0.4-5.3-0.7-7.9c3.3-0.8,6.2-1.7,8.8-2.6
		c0.3,2.4,0.6,4.7,0.8,7.3c0,0.9,0,1.8,0.1,2.7c-2.6,1.2-5.5,2.4-8.8,3.4C106,111.4,106,110.5,105.9,109.6z M104.1,114.9
		c0,0.3,0,0.6,0,0.9c0,3.2-0.2,5.8-0.5,8.2c-3,0.8-6.4,1.4-10.2,1.9c0.2-2.4,0.4-5.1,0.4-8.1c0-0.3,0-0.7,0-1
		C97.6,116.3,101,115.7,104.1,114.9z M79.6,117.6c0.2,0,0.4,0,0.7,0c0.1,0,0.1,0,0.2,0c4.2,0,7.9-0.3,11.5-0.6c0,0.3,0,0.5,0,0.8
		c0,3.1-0.2,5.8-0.4,8.3c-3.5,0.4-7.3,0.6-11.4,0.6c-0.1,0-0.3,0-0.4,0C79.6,124.1,79.6,121,79.6,117.6z M77.8,128.5
		c0.1,2.4,0.1,4.5,0.2,6.2c-3.8-0.2-7.3-0.5-10.5-1.1c-0.3-1.6-0.6-3.6-0.8-6C70.1,128.1,73.8,128.5,77.8,128.5z M54.6,125
		c3,1,6.4,1.8,10.1,2.4c0.2,2.2,0.4,4.2,0.7,5.9c-3.5-0.7-6.6-1.6-9.3-2.7C55.5,129.1,55,127.3,54.6,125z M54.6,132.1
		c0.4,1,0.9,1.9,1.2,2.5c-3.2-1.4-5.3-2.5-6.1-3c-0.6-0.6-1.3-1.6-2.1-2.9C49.8,129.9,52,131.1,54.6,132.1z M43.2,125.9
		c0.5,0.4,1,0.7,1.6,1.1c0.1,0.3,0.2,0.5,0.3,0.8C44.4,127.1,43.8,126.5,43.2,125.9z M80.3,142c0-0.1,0-0.2,0-0.3
		c2.7-0.1,5.4-0.2,7.8-0.5c0,0.1-0.1,0.2-0.1,0.2c-2.5,0.3-4.9,0.5-7.6,0.5C80.4,142,80.4,142,80.3,142z"/>
	<path fill="#757779" d="M131.3,42.9c-1.9-0.5-4.5,0.1-7.5,1.7c-7.4,3.4-14.7,6-22,7.9c1.5-3.5,2.3-7.4,2.3-11.5
		c0-16.4-13.4-29.7-29.9-29.7c-16.5,0-29.9,13.3-29.9,29.7c0,4.4,1,8.5,2.6,12.2c-8.3-2-16.6-4.8-25-8.7c-6-3.2-10.4-2.3-10.4,2.8
		c0,7.9,0,15.8,0,23.7C28,71.2,41.3,81.7,41.3,94.7c0,13-13.3,23.5-29.8,23.6c0,0.7,0,1.5,0,2.2c6.1,1.1,12.5,1.6,18.9,1.6
		C81.3,122.1,123.5,87.8,131.3,42.9z"/>
</g>
</svg>
