<?xml version="1.0" encoding="utf-8"?>
<!-- Generator: Adobe Illustrator 16.0.0, SVG Export Plug-In . SVG Version: 6.00 Build 0)  -->
<!DOCTYPE svg PUBLIC "-//W3C//DTD SVG 1.1//EN" "http://www.w3.org/Graphics/SVG/1.1/DTD/svg11.dtd">
<svg version="1.1" id="Layer_1" xmlns="http://www.w3.org/2000/svg" xmlns:xlink="http://www.w3.org/1999/xlink" x="0px" y="0px"
	 width="100px" height="100px" viewBox="0 0 100 100" enable-background="new 0 0 100 100" xml:space="preserve">
<g>
	<path fill-rule="evenodd" clip-rule="evenodd" fill="#26A9E0" d="M86.959,93.641c-0.48,0.925-1.089,0.573-1.696,0.162
		c-4.427-9.847-6.116-14.218-9.823-24.126c-2.433,2.799-2.775,5.392-5.21,8.186c-0.999-3.321,1.564-6.986,3.274-10.563
		c-0.694-7.058-4.2-13.854-8.776-20.546c0.759-1.639-1.209-3.021,0.831-4.78c-6.167-2.159-2.125-8.501-2.901-12.549
		c4.427,1.871,7.606,7.542,5.361,11.465c6.281,4.057,3.63,12.41,6.844,18.156c2.339-3.878,5.019-4.177,8.008-1.178
		c-1.113,1.693-3.367,5.22-5.211,8.185C80.592,77.168,84.268,82.499,86.959,93.641z M67.105,44.821
		c-1.315,2.41,2.147,6.623,3.261,7.385C68.893,49.781,69.094,47.197,67.105,44.821z"/>
	<g>
		<path fill="#231F20" d="M72.458,67.115c-0.207-1.86-0.617-3.754-1.252-5.727h-35.26l20.391-40.19l4.966,13.084
			c0.039-0.225,0.073-0.45,0.107-0.671c0.236-1.482,0.459-2.883,0.244-3.996l-0.359-1.884l1.761,0.75
			c2.854,1.202,5.245,3.796,6.248,6.764c0.634,1.87,0.626,3.717,0.009,5.301c3.53,2.728,4.063,6.803,4.585,10.753
			c0.266,2.022,0.523,3.964,1.157,5.704c1.131-1.35,2.374-2.069,3.711-2.164L62.07,8.806h-9.354L26.032,61.389h-8.969l-1.157,7.204
			h6.502l-9.545,20.042h9.179l9.735-20.042l40.011-0.166C72.017,67.988,72.244,67.547,72.458,67.115z"/>
	</g>
	<g>
		<path fill="#26A9E0" d="M80.5,82.28H43.236l-2.266,5.077h41.437C81.757,85.666,81.122,83.973,80.5,82.28z"/>
	</g>
	<polygon fill="#F4F5F5" points="53.568,20.477 19.246,87.024 18.284,85.823 52.608,19.517 	"/>
	<g>
		<polygon fill="#26A9E0" points="44.672,52.978 43.721,53.085 43.275,53.93 42.881,53.06 41.945,52.9 42.646,52.253 42.513,51.312 
			43.344,51.778 44.192,51.361 44.004,52.292 		"/>
		<polygon fill="#26A9E0" points="52.291,47.445 51.555,47.531 51.203,48.187 50.895,47.514 50.162,47.385 50.71,46.877 
			50.604,46.143 51.254,46.507 51.918,46.179 51.777,46.91 		"/>
		<polygon fill="#26A9E0" points="52.197,54.43 51.641,54.134 51.083,54.435 51.189,53.809 50.736,53.372 51.357,53.282 
			51.636,52.712 51.915,53.273 52.54,53.367 52.095,53.809 		"/>
		<polygon fill="#26A9E0" points="59.859,45.577 59.314,45.978 59.327,46.652 58.788,46.258 58.145,46.479 58.359,45.84 
			57.948,45.303 58.621,45.303 59.002,44.746 59.212,45.391 		"/>
		<polygon fill="#26A9E0" points="59.19,40.589 57.982,40.194 56.967,40.962 56.971,39.689 55.926,38.96 57.139,38.573 
			57.507,37.351 58.248,38.387 59.524,38.358 58.771,39.387 		"/>
	</g>
</g>
</svg>
