<?xml version="1.0" encoding="utf-8"?>
<!-- Generator: Adobe Illustrator 18.1.0, SVG Export Plug-In . SVG Version: 6.00 Build 0)  -->
<svg version="1.1" id="Layer_1" xmlns="http://www.w3.org/2000/svg" xmlns:xlink="http://www.w3.org/1999/xlink" x="0px" y="0px"
	 viewBox="0 0 2000 2000" enable-background="new 0 0 2000 2000" xml:space="preserve">
<g>
	<path fill="#FFD28F" d="M1152.4,800.8c0,0,43.8-10.9-21.9,153.3c-65.7,164.2-142.3,481.7-142.3,481.7s219-230.2,517.6-268.8
		c-38.2-206.4-205.1-367.6-414.3-397.3c-3.6,38.9-36,69.5-75.9,69.5c-39.2,0-71.2-29.6-75.7-67.6c-22.3,3.7-44.1,9-65.3,15.6
		c30,43.2,59.5,95.5,80.8,156C955.4,943.1,988.2,1074.5,1152.4,800.8z"/>
	<path fill="#FFD28F" d="M988.2,1435.7l-27.4-301l-60.2,147.8c0,0,22.2-230.8-74.3-477.5c-149.2,64.6-260,200.9-289.3,365.4
		C638.5,1189.4,856.8,1250.5,988.2,1435.7z"/>
	<path fill="#00A9DE" d="M1798.5,1397.2l-36.2-71.7c-380.7-104-751,175.4-751,175.4C1508.1,1305.2,1798.5,1397.2,1798.5,1397.2z"/>
	<path fill="#00A9DE" d="M1933.6,1488.6l-136.7-124l48.6,75.2c-395.4-70.6-823.6,109.5-823.6,109.5l913.7-20L1933.6,1488.6z"/>
	<path fill="#00A9DE" d="M1728.2,1294.5l-47.6-66.5c0,0-367.7-76.6-670.4,248.4C1010.2,1476.4,1274.5,1202.2,1728.2,1294.5z"/>
	<path fill="#00A9DE" d="M253.5,1325.5l-36.2,71.7c0,0,290.3-92,787.1,103.6C1004.5,1500.8,634.2,1221.5,253.5,1325.5z"/>
	<path fill="#00A9DE" d="M170.4,1439.8l48.6-75.2l-136.7,124l-2,40.7l913.7,20C994,1549.4,565.8,1369.2,170.4,1439.8z"/>
	<path fill="#00A9DE" d="M335.2,1228l-47.6,66.5c453.6-92.3,718,181.9,718,181.9C703,1151.4,335.2,1228,335.2,1228z"/>
	<path fill="#006DB6" d="M900.6,1282.5l60.2-147.8l27.4,301c0,0,76.6-317.5,142.3-481.7c65.7-164.2,21.9-153.3,21.9-153.3
		c-164.2,273.7-197.1,142.3-197.1,142.3c-21.3-60.5-50.8-112.8-80.8-156c-62.3-89.6-127.2-139.6-127.2-139.6
		c32.6,51.8,58.4,105,79,157.5C922.8,1051.7,900.6,1282.5,900.6,1282.5z"/>
	<path fill="#006DB6" d="M1015.6,839.1c39.9,0,72.3-30.6,75.9-69.5c0.2-2.4,0.7-4.7,0.7-7.1c0-42.3-34.3-76.6-76.6-76.6
		c-42.3,0-76.6,34.3-76.6,76.6c0,3.1,0.6,6,0.9,9C944.4,809.5,976.3,839.1,1015.6,839.1z"/>
	<polygon fill="#E57B3D" points="748.7,590.1 792.6,646.9 811,577.6 878.5,553.5 818.3,514.6 816.2,442.9 760.6,488.1 691.7,468 
		717.6,534.8 677.1,594.1 	"/>
</g>
</svg>
