<?xml version="1.0" encoding="utf-8"?>
<!-- Generator: Adobe Illustrator 18.1.0, SVG Export Plug-In . SVG Version: 6.00 Build 0)  -->
<svg version="1.1" id="Layer_1" xmlns="http://www.w3.org/2000/svg" xmlns:xlink="http://www.w3.org/1999/xlink" x="0px" y="0px"
	 viewBox="0 0 150 150" enable-background="new 0 0 150 150" xml:space="preserve">
<g>
	<path fill="#B9E2DD" d="M33.1,50.1c4.4-5.8,10,4.9,14.1,15.7c2.6-2.7,5.6,0,8.4,4.8c2.6-10.7,6.7-24.4,10.8-24.4
		c1.6,0,3.2,1.8,4.7,4.5c2.1-1.6,4.8-2.6,7.7-2.6c4.7,0,8.9,2.6,11,6.4c2.2-4.2,4.6-7.2,6.9-7.2c3.3,0,7.2,7.8,10.5,16.3
		c2.9,0,6.2,5.9,9.2,13c1.8-6,4.6-12.8,7.9-12.7c4.8,0.2,9.6,29,11.1,39h2c1.3-5,1.9-10.4,1.9-15.8c0-35.7-28.9-64.6-64.6-64.6
		s-64.6,29-64.6,64.7c0,5.4,0.7,10.8,1.9,15.8H13c0,0,0.1-0.2,0.1-0.3C16,92.8,26.2,59.1,33.1,50.1z"/>
	<path fill="#FAAF3B" d="M76.9,62.6c1.6,0,3.3,1.8,4.8,4.7l3.6-2.4c1.4-3.6,2.9-7.2,4.5-10.3c-2.1-3.8-6.3-6.4-11-6.4
		c-2.9,0-5.6,1-7.7,2.6c1.8,3.1,3.4,7.6,4.9,12C76.3,62.7,76.6,62.6,76.9,62.6z"/>
	<path fill="#603916" d="M12.3,105.4C12.3,105.4,12.3,105.4,12.3,105.4C12.3,105.3,12.3,105.3,12.3,105.4
		C12.3,105.3,12.3,105.4,12.3,105.4z"/>
	<path fill="#603916" d="M87.9,83.8C87.9,83.8,87.9,83.8,87.9,83.8l5.6,2.6c0,0,0,0,0.1,0L87.9,83.8z"/>
	<path fill="#603916" d="M124.3,63.9c-3.3-0.1-6.1,6.8-7.9,12.8c2.2,5.4,4.3,11.4,5.7,16.2c7.4,3.1,12.3,6.8,13.5,11
		c-0.1-0.4-0.1-0.8-0.2-1.2C133.9,93,129,64.1,124.3,63.9z"/>
	<path fill="#603916" d="M69.1,75.6c2-6.3,4.4-11.7,6.9-12.8c-1.4-4.4-3.1-8.8-4.9-12c-1.5-2.7-3.1-4.5-4.7-4.5
		c-4.2,0-8.3,13.6-10.8,24.4c1.7,3,3.4,6.8,4.9,10.7L69.1,75.6z"/>
	<path fill="#603916" d="M47.2,65.8C43.1,55,37.5,44.3,33.1,50.1c-6.8,9-17,42.5-20,52.4c2.6-5.2,11-9.8,23-12.9
		c3.5-9.8,7.4-19.1,10.5-23.3C46.8,66.2,47,66,47.2,65.8z"/>
	<path fill="#603916" d="M86.6,64L86.6,64L86.6,64L86.6,64L86.6,64l10.2,14.6c3.1-7.6,6.9-14.8,10.4-14.8c0,0,0,0,0,0
		c-3.3-8.5-7.2-16.3-10.5-16.3c-2.3,0-4.6,3-6.9,7.2c-1.6,3-3.2,6.7-4.5,10.3L86.6,64z"/>
	<path fill="#8C6339" d="M107.2,63.7C107.2,63.7,107.2,63.7,107.2,63.7c-3.5,0-7.4,7.2-10.4,14.8l6.4,9.2c7.3,1.3,13.8,3.1,18.9,5.2
		c-1.5-4.8-3.5-10.9-5.7-16.2C113.4,69.6,110.1,63.8,107.2,63.7z"/>
	<path fill="#8C6339" d="M55.5,70.7c-2.8-4.8-5.8-7.5-8.4-4.8c-0.2,0.2-0.3,0.4-0.5,0.6c-3.1,4.1-7,13.4-10.5,23.3
		c4.9-1.3,10.4-2.3,16.3-3l8-5.3C58.9,77.5,57.3,73.7,55.5,70.7z"/>
	<path fill="#8C6339" d="M76.9,62.6c-0.3,0-0.6,0.1-0.9,0.2c-2.4,1.1-4.8,6.4-6.9,12.8l12.5-8.3C80.1,64.4,78.5,62.6,76.9,62.6z"/>
	<path fill="#8C6339" d="M74.9,77.7L74.9,77.7l13,6.1c0,0,0,0,0,0L74.9,77.7z"/>
	<path fill="#8BC540" d="M48,107.1V92.5L38.7,96l9.3-6.2v0l0-0.1l4.5-3.1c-5.9,0.7-11.5,1.8-16.4,3c-12,3.1-20.5,7.7-23,12.9
		c0,0.1-0.1,0.1-0.1,0.2c-0.4,0.8-0.6,1.7-0.7,2.5c0,0,0,0.1,0,0.1c0,0.2,0,0.4,0,0.6c0,10.1,22,18.6,50.9,20.3
		c20.1-4.4,9-18.8,9-18.8l6.2-0.4h-4.1L48,107.1z"/>
	<path fill="#8BC540" d="M93.6,86.4C93.5,86.4,93.5,86.4,93.6,86.4l7.7,3.6L93.6,86.4z"/>
	<path fill="#8BC540" d="M122.1,93c-5.2-2.1-11.6-4.1-18.9-5.4L107,93h-5.7l-0.3,0.3V107H78.5c9.9,5,9.6,13.5,8.2,18.9
		c28.1-1.9,49.2-10.1,49.2-20.1c0-0.7-0.1-1.3-0.3-1.9C134.4,99.8,129.5,96.1,122.1,93z"/>
	<path fill="#002D3E" d="M101,93.3V90l-7.6-3.6l-5.5-2.6l-13-6l-5.2,6.4L48,92.5v14.7l26.3-0.1h4.1h0.1H101V93.3z M94.4,90l0,11H81
		V84.6L94.4,90z M67.4,107.3L54,107.2l0.1-13.8l13.5-5.7l0.1,19.5L67.4,107.3z"/>
	<polygon fill="#002D3E" points="47.6,89.8 47.6,89.8 47.8,89.7 	"/>
	<polygon fill="#B9E2DD" points="81,101 94.4,101 94.4,90 81,84.6 	"/>
	<polygon fill="#A1202A" points="86.6,64 74.9,77.7 87.9,83.8 93.4,86.4 101,90 101,93.3 101.3,93 107,93 103.2,87.6 96.8,78.5 	"/>
	<polygon fill="#A1202A" points="86.6,64 86.6,64 86.6,64 	"/>
	<polygon fill="#EA2127" points="86.6,64 86.7,64 86.6,64 86.6,64 85.3,64.9 81.7,67.3 69.1,75.6 60.4,81.4 52.4,86.7 47.8,89.7 
		47.6,89.8 38.3,96 47.6,92.5 69.4,84.1 74.9,77.8 74.9,77.7 	"/>
	<polygon fill="#B9E2DD" points="67.6,87.7 54.1,93.4 54,107.2 67.4,107.3 67.7,107.2 	"/>
</g>
</svg>
