<?xml version="1.0" encoding="utf-8"?>
<!-- Generator: Adobe Illustrator 18.1.0, SVG Export Plug-In . SVG Version: 6.00 Build 0)  -->
<svg version="1.1" id="Layer_1" xmlns="http://www.w3.org/2000/svg" xmlns:xlink="http://www.w3.org/1999/xlink" x="0px" y="0px"
	 viewBox="0 0 150 150" enable-background="new 0 0 150 150" xml:space="preserve">
<g>
	<path fill="#4D311C" d="M73.5,122.7c-4.4,0-8.6-0.6-12.7-1.7c-4.5,1-8.8,2.6-12.8,4.7c7.9,4.1,16.8,6.4,26.3,6.4
		c9.7,0,18.9-2.4,26.9-6.7c-3.8-1.5-9.1-3.2-15.3-4.4C82,122.1,77.8,122.7,73.5,122.7z"/>
	<path fill="#4D311C" d="M30.3,110.7l-0.2,0.1l3.7-7.2l1.3,3.4c0.6-0.4,1.2-0.8,1.9-1.2c-7.1-8.3-11.4-19.2-11.4-31
		c0-26.4,21.4-47.8,47.8-47.8c22,0,40.5,14.9,46.1,35.1c0,0,0,0,0,0c0,0.1,0,0.1,0,0.2c1.1,4,1.7,8.2,1.7,12.6
		c0,11.3-3.9,21.6-10.4,29.8c1.4,0.8,2.8,1.6,4.2,2.4l1.5-3.8l3.3,6.4c7.5-9.7,12-21.9,12-35.1c0-31.8-25.7-57.5-57.5-57.5
		c-31.8,0-57.5,25.7-57.5,57.5c0,14,5,26.9,13.4,36.9c0-0.2,0-0.3,0-0.5C30.2,110.9,30.3,110.8,30.3,110.7z"/>
	<path fill="#C9C4CB" d="M97.8,93.9c-0.3,0.6-1.5,1.7-1.7,2c-0.1,0.2-0.5,1-1,2.2c3.2,0.9,6.4,2.1,9.5,3.5l2.1-6.7
		c-1.1-0.5-2.7-2-1.8-6.3c1.1,0.5,2.4,1.1,3.1,2.2l0.5-1.6c-1-0.7-2.1-2.3-1.2-6c0.8,0.5,1.8,1,2.5,1.8l0.4-1.5
		c-1-0.6-2.2-2.2-1.3-6c0.8,0.5,1.9,1,2.5,1.8l0.4-1.3c-0.7-0.8-1.3-2.4-0.7-5.7c-2.1,3.2-3.9,6.7-6,10.4
		C104.5,83.7,98.5,92.3,97.8,93.9z"/>
	<path fill="#C9C4CB" d="M86,121.1c-4.1-0.8-8.5-1.3-13.2-1.3c-4.2,0-8.2,0.4-12,1.2c4,1.1,8.3,1.7,12.7,1.7
		C77.8,122.7,82,122.1,86,121.1z"/>
	<path fill="#C9C4CB" d="M111.2,72.2c0.6,0.5,1.4,1,1.9,1.8l0.4-1.4c-0.4-0.4-0.8-1.1-0.9-2.4c-0.2,0.3-0.4,0.6-0.6,0.9
		C111.7,71.4,111.4,71.8,111.2,72.2z"/>
	<path fill="#C9C4CB" d="M119.6,62.3c0.2,5.6-2.8,5.8-2.8,5.8c-1.1-4.2,1.2-5.1,2.8-5.9C114,41.9,95.5,27.1,73.5,27.1
		c-26.4,0-47.8,21.4-47.8,47.8c0,11.8,4.3,22.6,11.4,31c1.7-1,3.6-2,5.8-3.1c-8.2-10.5-11.1-35-11.5-38.1c-3.5-4.1-1.9-6.3-1-8
		c3.7,6.2,1.3,8,1.1,8.1l1.4,4.7c0.3-1,1.1-1.6,1.6-2.2c0.9,3.7,0.1,5.3-0.5,5.9l0.4,1.4c0.5-0.8,1.3-1.3,1.9-1.8
		c0.7,3.4,0,5.1-0.7,5.9l0.4,1.3c0.6-0.8,1.7-1.4,2.5-1.8c1,3.8-0.3,5.4-1.3,6l0.4,1.5c0.7-0.8,1.7-1.3,2.5-1.8
		c0.9,3.7-0.2,5.3-1.2,6l0.5,1.6c0.7-1.1,2-1.7,3.1-2.2c0.9,4.3-0.7,5.8-1.8,6.3l2.2,7.1c1.3-0.6,2.6-1.2,4-1.8
		c-1.8-2.6-4.5-7.7-4-13c0.1-1.5,0.7-2.9,3.1-3.4c1.2-0.1,1.9,0.1,3,0.1c-0.8-0.7-1.8-1.5-1.8-2.7c0.2,0,1.4,0.5,2.8,0.8
		c-0.2-1.3-0.2-2.6-0.1-3.9c0-0.2,0.1-0.4,0.1-0.5c-0.1-0.1-0.1-0.1-0.2-0.2c0-0.1,0.1-0.2,0.3-0.3c1-5.8,4.6-11.2,8.3-13.4
		c1.2-0.7,5.8-1.9,6.7-2.4c-1.2-1.5-2.4-3.4-2.9-5.6c-0.2-0.9-0.2-4.1,2.3,0c1.1,1.8,6.1,6.3,7.3,6c0.4-1-1.5-4-1.1-5
		c1.1,0.2,3.1,0.4,3.9,0.7c0.4,1.4,0.1,3.7-0.2,4.7c1.8,0.1,3.4-0.4,4.4-1.7c0.4-0.5,2.8-4.2,3-6.1c0.1-0.1,1,0.2,0.8,1.9
		c-0.3,1.9,0.3,4.3-1.1,6.2c1.7,0.7,3.6,0.8,5.3,1.5c1.5,0.6,2.9,1.3,4.1,2.1c-0.8-4.1-1.8-7.3-2.4-8c0.9-0.1,4.6-0.3,5.3-0.2
		c0.4,0,1.8,6.9,2,10c1-1.1,4.1-9.7,4.8-9.8c0.7,0.4,0.8,0.5,2.1,1c0.6-0.3,1-2.1,1.4-2.4c1.6,0.2,3,0.7,4.4,1.5
		c-0.2,0.6-5.8,9.8-5.7,12c1.9-2.6,3.8-6.6,5.3-9c0.6,0.1,3.6,1.4,4.9,2.1c0-0.7,0.1-1.5,0.3-2.5c1.1,1,2.9,2.3,1.3,6.3
		c0,0-1.4-0.3-1.6-3c-0.5,0.7-1.1,1.2-1.5,1.9c0.4,0.2,0.8,0.3,1.2,0.4c0-0.1,0-0.3,0.1-0.4c0.2,0.2,0.4,0.4,0.7,0.7
		c0.4,0.1,0.7,0.3,1,0.5c-0.1,0.1-0.3,0.2-0.4,0.3c0.1,0.2,0.2,0.4,0.3,0.7l1.4-4.7c-0.2-0.1-2.6-1.9,1.1-8.1c0.9,1.7,2.4,3.9-1,8
		c-0.3,3.1-3.2,27.1-11.2,37.8c2,0.9,4,1.8,6,2.9c6.5-8.2,10.4-18.5,10.4-29.8C121.3,70.5,120.7,66.3,119.6,62.3z M38.1,97.1
		c0,0-4.7,1.5-6.3-4.9C34.4,92.2,38.3,92,38.1,97.1z M35.9,91.4c0,0-4.5,1.2-5.7-5C32.7,86.6,36.3,86.5,35.9,91.4z M34.3,85.2
		c0,0-4.5,1.2-5.7-4.9C31.1,80.5,34.7,80.4,34.3,85.2z M32.3,79.8c0,0-3.8,0.1-3.8-6C30.4,74.5,33.3,75.3,32.3,79.8z M31.3,73.9
		c0,0-3.1-0.1-2.8-6C30,68.7,32.4,69.7,31.3,73.9z M30.8,68.7c0,0-3.1-0.1-2.8-5.9C29.5,63.6,31.9,64.5,30.8,68.7z M32.9,68.3
		c-1.6-4,0.2-5.2,1.3-6.3C35.3,67.7,32.9,68.3,32.9,68.3z M109.5,96.4c-0.2-5.1,3.7-4.8,6.3-4.9C114.2,97.9,109.5,96.4,109.5,96.4z
		 M111.7,90.7c-0.4-4.8,3.2-4.8,5.7-5C116.2,91.9,111.7,90.7,111.7,90.7z M113.3,84.5c-0.4-4.7,3.2-4.7,5.7-4.9
		C117.8,85.7,113.3,84.5,113.3,84.5z M115.3,79.1c-1-4.5,1.9-5.3,3.8-6C119.1,79.3,115.3,79.1,115.3,79.1z M116.3,73.2
		c-1.1-4.2,1.3-5.1,2.8-6C119.4,73.1,116.3,73.2,116.3,73.2z"/>
	<path fill="#3D3D3F" d="M116.6,103.3l-1.5,3.8c-1.4-0.8-2.8-1.6-4.2-2.4c-2-1.1-4-2-6-2.9c8-10.7,10.9-34.7,11.2-37.8
		c3.5-4.1,1.9-6.3,1-8c-3.7,6.2-1.3,8-1.1,8.1l-1.4,4.7c-0.1-0.3-0.2-0.5-0.3-0.7c-0.6,0.5-1.2,1.2-1.7,2c0.1,1.3,0.5,2.1,0.9,2.4
		L113,74c-0.5-0.8-1.2-1.3-1.9-1.8c0,0-0.1,0.1-0.1,0.1c-0.7,3.3,0,4.9,0.7,5.7l-0.4,1.3c-0.6-0.8-1.7-1.4-2.5-1.8
		c-1,3.8,0.3,5.4,1.3,6l-0.4,1.5c-0.7-0.8-1.7-1.3-2.5-1.8c-0.9,3.7,0.2,5.3,1.2,6l-0.5,1.6c-0.7-1.1-2-1.7-3.1-2.2
		c-0.9,4.3,0.7,5.8,1.8,6.3l-2.1,6.7c-3.1-1.4-6.3-2.5-9.5-3.5c-0.1,0.3-0.2,0.5-0.3,0.8c8.3,2.4,16.4,6.3,24.3,11.6l-2.8,3.9
		c-0.9-0.8-1.9-1.6-2.8-2.3c-1.2-0.9-2.4-1.7-3.5-2.3c-2.2-1.3-4.2-2.2-5.6-2.8c-1.4-0.6-2.2-0.8-2.2-0.8c0,0,0.8,0.4,2.1,1.2
		c1.3,0.8,3.1,1.9,5.2,3.4c1,0.7,2.1,1.6,3.2,2.5c0.9,0.8,1.8,1.6,2.7,2.5l-1.3,1.8c-0.2-0.2-0.4-0.3-0.6-0.5
		c-1.2-0.9-2.4-1.7-3.5-2.3c-2.2-1.3-4.2-2.2-5.6-2.8c-1.4-0.6-2.2-0.8-2.2-0.8c0,0,0.8,0.4,2.1,1.2c1.3,0.8,3.1,1.9,5.2,3.4
		c1,0.7,2.1,1.6,3.2,2.5c0.2,0.2,0.4,0.4,0.7,0.6l-1.3,1.9c-0.7-0.5-1.3-0.9-2-1.3c-2.2-1.3-4.2-2.2-5.6-2.8
		c-1.4-0.6-2.2-0.8-2.2-0.8c0,0,0.8,0.4,2.1,1.2c1.3,0.8,3.1,1.9,5.2,3.4c0.6,0.4,1.2,0.9,1.8,1.4l-1.7,2.4c-1.8-1-3.3-1.7-4.5-2.2
		c-1.4-0.6-2.2-0.8-2.2-0.8c0,0,0.8,0.4,2.1,1.2c1.1,0.6,2.5,1.5,4.1,2.6l-1.7,2.4c-2.4-1.2-17.2-8.2-34.4-8.2
		c-10.8,0-20.5,2.7-28.7,8.2c-0.9-0.9-2-1.9-3-3c1.6-1.1,3-2,4.1-2.6c1.3-0.7,2.1-1.1,2.1-1.1s-0.8,0.3-2.2,0.8
		c-1.2,0.5-2.8,1.2-4.5,2.2c-0.7-0.7-1.4-1.5-2.1-2.2c0.6-0.4,1.1-0.9,1.6-1.3c2.1-1.5,3.9-2.6,5.2-3.4c1.3-0.7,2.1-1.1,2.1-1.2
		c0,0-0.8,0.3-2.2,0.8c-1.4,0.6-3.4,1.5-5.6,2.8c-0.6,0.4-1.3,0.8-1.9,1.2c-0.5-0.6-1-1.2-1.5-1.7c0.3-0.2,0.5-0.5,0.8-0.7
		c1.1-0.9,2.2-1.8,3.2-2.5c2.1-1.5,3.9-2.6,5.2-3.4c1.3-0.7,2.1-1.1,2.1-1.2c0,0-0.8,0.3-2.2,0.8c-1.4,0.6-3.4,1.5-5.6,2.8
		c-1.1,0.7-2.3,1.4-3.5,2.3c-0.3,0.2-0.6,0.4-0.9,0.7c-0.5-0.6-0.9-1.1-1.4-1.7c1-1,2-1.9,3-2.7c1.1-0.9,2.2-1.8,3.2-2.5
		c2.1-1.5,3.9-2.6,5.2-3.4c1.3-0.7,2.1-1.1,2.1-1.1s-0.8,0.3-2.2,0.8c-1.4,0.6-3.4,1.5-5.6,2.8c-1.1,0.7-2.3,1.4-3.5,2.3
		c-1,0.8-2.1,1.6-3.1,2.5c-1.1-1.6-1.8-2.8-1.8-3.5c0-0.1,0.1-0.2,0.1-0.2c0.1-0.1,6.2-5.1,16.5-9.3c-0.2-0.2-0.4-0.5-0.6-0.7
		c-1.4,0.6-2.8,1.2-4,1.8l-2.2-7.1c1.1-0.5,2.7-2,1.8-6.3c-1.1,0.5-2.4,1.1-3.1,2.2l-0.5-1.6c1-0.7,2.1-2.3,1.2-6
		c-0.8,0.5-1.8,1-2.5,1.8l-0.4-1.5c1-0.6,2.2-2.2,1.3-6c-0.8,0.5-1.9,1-2.5,1.8l-0.4-1.3c0.7-0.8,1.4-2.5,0.7-5.9
		c-0.6,0.5-1.4,1-1.9,1.8l-0.4-1.4c0.6-0.6,1.4-2.2,0.5-5.9c-0.6,0.6-1.3,1.2-1.6,2.2l-1.4-4.7c0.2-0.1,2.6-1.9-1.1-8.1
		c-0.9,1.7-2.4,3.9,1,8c0.3,3.1,3.3,27.6,11.5,38.1c-2.2,1.1-4.2,2.1-5.8,3.1c-0.7,0.4-1.3,0.8-1.9,1.2l-1.3-3.4l-3.7,7.2l0.2-0.1
		c0,0.1,0,0.2-0.1,0.3c0,0.1,0,0.3,0,0.5c0.7,3.9,12.1,15.1,13.5,16.4l0.3,0.3l0.3-0.2c1.2-0.8,2.5-1.6,3.7-2.2
		c4-2.2,8.2-3.7,12.8-4.7c3.8-0.8,7.8-1.2,12-1.2c4.6,0,9.1,0.5,13.2,1.3c6.2,1.2,11.5,2.9,15.3,4.4c3.6,1.4,5.8,2.5,5.9,2.6
		l0.3,0.2l12.8-17.7l-0.4-0.7L116.6,103.3z"/>
	<path fill="#3D3D3F" d="M116.8,68.1c0,0,3-0.1,2.8-5.8c0-0.1,0-0.1,0-0.2c0,0,0,0,0,0C118,63,115.7,63.9,116.8,68.1z"/>
	<path fill="#3D3D3F" d="M116.3,73.2c0,0,3.1-0.1,2.8-6C117.6,68.1,115.2,69,116.3,73.2z"/>
	<path fill="#3D3D3F" d="M115.3,79.1c0,0,3.8,0.1,3.8-6C117.2,73.9,114.3,74.6,115.3,79.1z"/>
	<path fill="#3D3D3F" d="M113.3,84.5c0,0,4.5,1.2,5.7-4.9C116.5,79.8,112.9,79.8,113.3,84.5z"/>
	<path fill="#3D3D3F" d="M111.7,90.7c0,0,4.5,1.2,5.7-5C114.9,85.9,111.2,85.9,111.7,90.7z"/>
	<path fill="#3D3D3F" d="M109.5,96.4c0,0,4.7,1.5,6.3-4.9C113.2,91.6,109.3,91.4,109.5,96.4z"/>
	<path fill="#3D3D3F" d="M113.2,64.7c0.2,2.7,1.6,3,1.6,3c1.6-4-0.2-5.2-1.3-6.3c-0.2,1-0.3,1.8-0.3,2.5c0.1,0.1,0.3,0.2,0.4,0.2
		C113.4,64.3,113.3,64.5,113.2,64.7z"/>
	<path fill="#3D3D3F" d="M113,66.6c0,0.1,0,0.3-0.1,0.4c0.3,0.1,0.5,0.2,0.7,0.3C113.4,67.1,113.2,66.8,113,66.6z"/>
	<path fill="#3D3D3F" d="M30.8,68.7c1.1-4.2-1.3-5.1-2.8-5.9C27.7,68.6,30.8,68.7,30.8,68.7z"/>
	<path fill="#3D3D3F" d="M28.5,67.9c-0.2,5.8,2.8,6,2.8,6C32.4,69.7,30,68.7,28.5,67.9z"/>
	<path fill="#3D3D3F" d="M28.5,73.8c0.1,6.2,3.8,6,3.8,6C33.3,75.3,30.4,74.5,28.5,73.8z"/>
	<path fill="#3D3D3F" d="M34.3,85.2c0.4-4.7-3.2-4.7-5.7-4.9C29.8,86.3,34.3,85.2,34.3,85.2z"/>
	<path fill="#3D3D3F" d="M35.9,91.4c0.4-4.8-3.2-4.8-5.7-5C31.4,92.5,35.9,91.4,35.9,91.4z"/>
	<path fill="#3D3D3F" d="M38.1,97.1c0.2-5.1-3.7-4.8-6.3-4.9C33.4,98.6,38.1,97.1,38.1,97.1z"/>
	<path fill="#3D3D3F" d="M32.9,68.3c0,0,2.5-0.6,1.3-6.3C33,63.1,31.3,64.3,32.9,68.3z"/>
	<path fill="#265A4A" d="M50.9,82.4c-0.1-1.4-0.2-2.4,0-3.8c-0.2-0.1-0.4-0.2-0.5-0.4c0,0.2-0.1,0.4-0.1,0.5
		c-0.2,1.3-0.1,2.6,0.1,3.9c0.2,0,0.4,0.1,0.6,0.1C50.9,82.7,50.9,82.6,50.9,82.4z"/>
	<path fill="#265A4A" d="M51.2,76.8c2.2-8.4,7.2-13.4,15.2-14c0.7,0.6,1.2,1.3,2,1.9c-1,3.7-4.2,4.1-6.5,5.9
		c0.3,0.9,1.6,0.3,2.3,0.2c2.3-0.4,5.4-0.8,7.2-2c0.6,1.8,1.2,2.9,2.6,4.4c0.7,0.8,3.1,2.9,3.6,2.3c-1-2.2-2.5-4.5-2.2-7.2
		c1.4-0.1,5.2,3.3,9.9,1.9c0.6-0.2,2.3-1.2,1.7-1.3c-2.3-0.5-7.5-1.2-8.4-2.8c0.8-0.8,1.7-1.2,2.4-2c0.8,0.3,4.9,0.8,6.2,1.2
		c1.6,0.5,2.9,1.3,4.1,2.3c-0.1-0.3-0.1-0.6-0.2-0.9c-1.2-0.8-2.6-1.5-4.1-2.1c-1.8-0.7-3.6-0.8-5.3-1.5c1.4-1.9,0.9-4.2,1.1-6.2
		c0.2-1.7-0.7-2-0.8-1.9c-0.2,1.9-2.6,5.6-3,6.1c-1,1.3-2.6,1.8-4.4,1.7c0.3-1,0.6-3.4,0.2-4.7c-0.9-0.3-2.8-0.6-3.9-0.7
		c-0.3,1.1,1.5,4,1.1,5c-1.2,0.3-6.2-4.2-7.3-6c-2.5-4.1-2.5-0.9-2.3,0c0.5,2.2,1.7,4.1,2.9,5.6c-0.9,0.5-5.6,1.7-6.7,2.4
		c-3.7,2.3-7.3,7.7-8.3,13.4c0.2-0.1,0.4-0.3,0.7-0.5C51.1,77.2,51.2,77,51.2,76.8z M63,54.9c0.4-0.2,0.8,1.2,1.4,1.9
		c0.4,0.5,6.4,6.4,8.1,6.6c1.1-1.7,0-3.5-0.2-5c0.6-0.2,1.7,0,2.2,0.4c-0.1,1.6,0,3.3-0.9,4.7c4.4,1.8,7-2.8,8.6-6.9
		c0.8,2.4-0.2,5.8-1.4,7.1c-0.8,0.8-2.1,2.2-3.4,2.2c0.4,0.6,1.1,1,1.4,1.6c2.3,0.7,4.8,1.2,6.6,1.9c-1.2,1.3-6.1,0.1-6.5-0.1
		c-1.5-0.5-3.2-2.7-4.3-1.5c-0.2,2.6,1.1,4.6,1.8,6.8c-2.1-1.5-4.1-3.8-4.1-6.9c-0.8-0.5-1.1,0.4-1.6,0.8c-2,1.2-4.5,1.2-6.7,1.7
		c2.1-1.4,4.6-2.8,5.4-5.8C65.9,62.1,63.5,59.3,63,54.9z"/>
	<path fill="#DD5926" d="M81.1,64c-0.7,0.8-1.7,1.3-2.4,2c0.8,1.6,6.1,2.3,8.4,2.8c0.5,0.1-1.1,1.1-1.7,1.3c-4.7,1.4-8.5-2-9.9-1.9
		c-0.3,2.7,1.2,5,2.2,7.2c-0.5,0.6-2.9-1.6-3.6-2.3c-1.4-1.6-2-2.7-2.6-4.4c-1.8,1.2-4.9,1.6-7.2,2c-0.7,0.1-2,0.7-2.3-0.2
		c2.3-1.8,5.5-2.2,6.5-5.9c-0.8-0.5-1.4-1.2-2-1.9c-8,0.6-13,5.7-15.2,14c-0.1,0.2-0.1,0.4-0.2,0.6c0.7-0.4,1.5-0.7,2.1-0.7
		c1.5,1.3,2.6,3.6,3.1,5.5c1.3-1.2,5.4-3.8,6-3.8c0.2,0.9-0.1,2.6-0.3,2.9c2.5-0.4,4.9,1.6,6.3,3.3c1.5,2.8,2.1,4.3,2,6.5
		c-0.1,2.1-0.6,3.9-1.1,5.2c1.9-0.2,3.8-0.3,5.8-0.3c4.5,0,9,0.4,13.5,1.3c1.2-2.9,2.1-5.6,2.3-7.3c0.1-0.6,0.8-5.9,1.1-7.8
		c0.4-2.7,0.5-5.8,0.2-8.7c-0.3-0.7-0.8-1.3-1.6-1.8c0-0.2,0.2-0.2,0.2-0.4c0.5,0.3,1,0.6,1.3,1c-0.2-1.7-0.4-3.3-0.7-4.9
		c-1.2-1-2.5-1.8-4.1-2.3C86,64.8,82,64.4,81.1,64z"/>
	<path fill="#DD5926" d="M50.9,82.4c0,0.1,0,0.3,0.1,0.4c1.2,0.2,2.4,0.2,3.3-0.4c0-0.8-0.6-1.9-1.1-2.5c-0.6-0.6-1.5-0.9-2.3-1.3
		C50.7,80,50.7,81.1,50.9,82.4z"/>
	<path fill="#8BC53F" d="M69.4,64.3c-0.7,3-3.3,4.4-5.4,5.8c2.2-0.4,4.7-0.4,6.7-1.7c0.5-0.3,0.8-1.2,1.6-0.8c0,3.1,2,5.4,4.1,6.9
		c-0.7-2.2-2-4.3-1.8-6.8c1.2-1.2,2.9,1,4.3,1.5c0.4,0.2,5.3,1.3,6.5,0.1c-1.8-0.7-4.3-1.2-6.6-1.9c-0.3-0.7-1-1.1-1.4-1.6
		c1.3,0,2.5-1.4,3.4-2.2c1.3-1.2,2.3-4.7,1.4-7.1c-1.6,4.1-4.2,8.7-8.6,6.9c0.9-1.4,0.8-3.1,0.9-4.7c-0.6-0.3-1.7-0.5-2.2-0.4
		c0.2,1.5,1.3,3.3,0.2,5c-1.7-0.2-7.7-6.2-8.1-6.6c-0.5-0.6-1-2-1.4-1.9C63.5,59.3,65.9,62.1,69.4,64.3z"/>
	<path fill="#265A4A" d="M90.8,71.4c0,0.2-0.2,0.2-0.2,0.4c0.8,0.4,1.3,1.1,1.6,1.8c0-0.4-0.1-0.8-0.1-1.2
		C91.7,72,91.3,71.7,90.8,71.4z"/>
	<path fill="#333333" d="M113.6,67.3c-0.2-0.1-0.5-0.2-0.7-0.3c-0.4-0.1-0.8-0.3-1.2-0.4c0.4-0.7,1-1.2,1.5-1.9
		c0.1-0.2,0.3-0.4,0.4-0.6c-0.1-0.1-0.2-0.1-0.4-0.2c-1.3-0.7-4.2-2-4.9-2.1c-1.4,2.5-3.4,6.4-5.3,9c-0.1-2.2,5.5-11.4,5.7-12
		c-1.4-0.8-2.8-1.3-4.4-1.5c-0.4,0.3-0.8,2.1-1.4,2.4c-1.3-0.5-1.4-0.6-2.1-1c-0.7,0.1-3.9,8.7-4.8,9.8c-0.1-3.1-1.5-10-2-10
		c-0.7-0.1-4.4,0.1-5.3,0.2c0.5,0.7,1.6,3.9,2.4,8c0.1,0.3,0.1,0.6,0.2,0.9c0.3,1.5,0.5,3.2,0.7,4.9c0,0.4,0.1,0.8,0.1,1.2
		c0.2,3,0.2,6-0.2,8.7c-0.3,2-1,7.2-1.1,7.8c-0.3,1.8-1.2,4.4-2.3,7.3c0.2,0,0.4,0.1,0.6,0.1c0.6-1.6,1.4-3.1,2-5.1
		c0.2-0.7,1.5-11.1,1.8-14.3c0.4-4.3-1.7-16.9-3-19.2c1.4,0,2.5-0.2,4-0.1c1.4,4.4,2.2,9.5,2.1,14.5c0,0.9,0.1,11.2,0,11.5
		c-0.2,1.6-0.5,8.4,0.4,9.6c-0.3,0.8-1.1,2.5-2,4.3c0.1,0,0.2,0.1,0.3,0.1c0.1-0.3,0.2-0.6,0.3-0.8c0.5-1.2,0.9-2,1-2.2
		c0.2-0.3,1.4-1.4,1.7-2c0.7-1.7,6.8-10.3,7.3-11.2c2.1-3.6,3.9-7.1,6-10.4c0,0,0.1-0.1,0.1-0.1c0.3-0.4,0.5-0.8,0.8-1.2
		c0.2-0.3,0.4-0.6,0.6-0.9c0.5-0.7,1.1-1.4,1.7-2c0.1-0.1,0.3-0.2,0.4-0.3C114.4,67.6,114,67.4,113.6,67.3z M105.3,67.9
		c0.9-1.9,2.3-3.6,3.3-5.5c0.9,0.2,3.3,1.6,4.3,1.9c-0.5,0.7-1.1,1.4-1.7,2.2c-0.6-0.2-0.8-0.6-1.4-0.6c-0.9,1.1-1.3,2.5-2,3.7
		c-0.7,1.2-7.3,12-7.8,13.1c-1.4-0.3-2.9-0.1-1.5-5.5c0.2-0.8,3.8-4.2,4.4-5.1C103.6,71,105.2,68.1,105.3,67.9z M104.6,57.6
		c1.3-0.2,2.1,0.6,3.4,1.1c-0.4,0.7-6.7,12.3-5.9,13.3c-1,1.3-2.1,2.4-3.2,3.6c1.4-5.4,3-11.4,6.3-15c-0.2-0.5-1.3-0.3-1.6-0.9
		C103.9,59,104.4,58.4,104.6,57.6z M96.5,76.7c-0.1-1.4-0.2-6-0.1-6.7c0.8-3.8,3-7,4.8-10.6c1.1,0.5,2.5,0.7,3.3,1.3
		c-0.5,1.2-2,2.7-2.7,4.4c-1.5,3.7-2.5,8.8-3.9,12.7c-0.9,2.4-0.5,4.8,1.7,5.5c-0.9,1.6-2,2.9-3.1,4.3
		C96.5,86.3,96.5,77.5,96.5,76.7z M105.3,81.5c-0.6,1.2-8.4,12.5-8.4,12.5c-0.9-1.7-0.4-4.1-0.4-5.7c5.2-6.4,9.1-14.7,13.6-21.8
		c1.3,0.5,2.7,0.8,3.5,1.4C112.6,68.5,107.3,77.5,105.3,81.5z"/>
	<path fill="#5EA62F" d="M110.1,66.4c-4.5,7.1-8.4,15.4-13.6,21.8c0,1.6-0.5,4,0.4,5.7c0,0,7.7-11.3,8.4-12.5
		c2.1-4,7.3-12.9,8.4-13.6C112.8,67.2,111.4,67,110.1,66.4z"/>
	<path fill="#5EA62F" d="M98.5,77.1c-1.4,5.4,0.1,5.2,1.5,5.5c0.5-1,7.1-11.9,7.8-13.1c0.7-1.3,1.1-2.6,2-3.7c0.6,0,0.8,0.4,1.4,0.6
		c0.6-0.8,1.2-1.5,1.7-2.2c-1-0.2-3.3-1.7-4.3-1.9c-1,1.9-2.4,3.6-3.3,5.5c-0.1,0.2-1.7,3.2-2.4,4.1C102.3,72.9,98.7,76.3,98.5,77.1
		z"/>
	<path fill="#5EA62F" d="M105.3,60.7c-3.4,3.6-5,9.5-6.3,15c1.1-1.2,2.2-2.4,3.2-3.6c-0.8-1,5.5-12.7,5.9-13.3
		c-1.3-0.5-2.1-1.2-3.4-1.1c-0.3,0.7-0.7,1.3-0.9,2.2C104,60.3,105.1,60.2,105.3,60.7z"/>
	<path fill="#5EA62F" d="M96.4,87.5c1.1-1.4,2.2-2.7,3.1-4.3c-2.2-0.7-2.6-3.1-1.7-5.5c1.4-3.8,2.4-8.9,3.9-12.7
		c0.7-1.6,2.2-3.1,2.7-4.4c-0.8-0.6-2.1-0.8-3.3-1.3c-1.8,3.6-4,6.8-4.8,10.6c-0.2,0.7,0,5.3,0.1,6.7C96.5,77.5,96.5,86.3,96.4,87.5
		z"/>
	<path fill="#5EA62F" d="M94.4,98.9c0.8-1.8,1.6-3.5,2-4.3c-1-1.3-0.6-8.1-0.4-9.6c0-0.3-0.1-10.6,0-11.5c0.2-5-0.7-10.1-2.1-14.5
		c-1.5-0.1-2.6,0.1-4,0.1c1.3,2.3,3.3,14.9,3,19.2c-0.3,3.2-1.6,13.6-1.8,14.3c-0.5,2.1-1.3,3.5-2,5.1C90.8,98,92.6,98.4,94.4,98.9z
		"/>
	<path fill="#383738" d="M44.1,91.3c-0.1-0.6-0.1-4.5,0.8-5.5c1.2-0.8,2.6-0.4,4.6-0.7c1.4,1,3.3,1.6,3-0.8c1-1,3-1.9,4.9-1.6
		c1.1,0.2,1.2,1,2.1,1.2c0.8-0.2,0.6-1,1-1.5c2.8-1.2,4.4,0,5.7,1.4c1.3,1.5,2.7,4.5,3,7.1c0.1,1.7-0.3,3.7-1,5.4
		c0.3,0,0.6,0,0.9-0.1c0.5-1.3,1-3.1,1.1-5.2c0.1-2.2-0.5-3.7-2-6.5c-1.4-1.7-3.8-3.8-6.3-3.3c0.2-0.3,0.5-2,0.3-2.9
		c-0.6,0-4.8,2.6-6,3.8c-0.5-2-1.6-4.2-3.1-5.5c-0.5,0-1.4,0.3-2.1,0.7c-0.3,0.2-0.5,0.3-0.7,0.5c-0.1,0.1-0.3,0.2-0.3,0.3
		c0.1,0.1,0.1,0.1,0.2,0.2c0.2,0.1,0.3,0.3,0.5,0.4c0.8,0.4,1.7,0.7,2.3,1.3c0.5,0.6,1.1,1.7,1.1,2.5c-0.9,0.6-2.1,0.6-3.3,0.4
		c-0.2,0-0.4-0.1-0.6-0.1c-1.4-0.3-2.6-0.8-2.8-0.8c0,1.2,1,2,1.8,2.7c-1.1,0-1.8-0.2-3-0.1c-2.4,0.5-3,1.9-3.1,3.4
		c-0.5,5.2,2.2,10.4,4,13c0.2,0.3,0.4,0.5,0.6,0.7c0.2-0.1,0.3-0.1,0.5-0.2C45.9,98.6,44.5,94.9,44.1,91.3z M61.5,79.4
		c0.7,0.5-0.2,1.6-0.3,2.3c-0.6,0.1-1.2,1-2,1.3c-0.2-0.6-0.9-0.6-1.5-0.8C58.5,81,61,80.8,61.5,79.4z M51.6,78.2
		c0.7,0,1-0.6,1.4-0.4c1.2,0.9,1.9,2.3,2.2,4.1C54.2,80.4,53.4,78.8,51.6,78.2z M48.5,82.7c1.1,0.4,2.1,1,3.7,0.9
		c-0.3,0.5-0.5,1.1-0.8,1.5C50.9,85.2,49,83.8,48.5,82.7z"/>
	<path fill="#FDDA16" d="M69.3,91.1c-0.2-2.7-1.6-5.6-3-7.1c-1.3-1.4-2.9-2.6-5.7-1.4c-0.4,0.5-0.2,1.2-1,1.5
		c-0.9-0.2-1-1.1-2.1-1.2c-1.9-0.3-3.9,0.6-4.9,1.6c0.3,2.4-1.6,1.8-3,0.8c-2,0.3-3.5-0.2-4.6,0.7c-1,1-0.9,4.9-0.8,5.5
		c0.3,3.6,1.8,7.2,4.1,10.1c5.6-2.2,12.4-4.2,20.1-4.9C69,94.8,69.4,92.8,69.3,91.1z"/>
	<path fill="#9BC63C" d="M59.2,83c0.8-0.3,1.4-1.2,2-1.3c0.1-0.7,1-1.8,0.3-2.3c-0.4,1.4-2.9,1.7-3.7,2.8C58.3,82.4,59,82.5,59.2,83
		z"/>
	<path fill="#9BC63C" d="M53,77.7c-0.5-0.1-0.8,0.4-1.4,0.4c1.8,0.6,2.6,2.2,3.6,3.7C54.9,80.1,54.2,78.6,53,77.7z"/>
	<path fill="#9BC63C" d="M51.4,85.1c0.3-0.5,0.5-1,0.8-1.5c-1.6,0.1-2.6-0.4-3.7-0.9C49,83.8,50.9,85.2,51.4,85.1z"/>
	<path fill="#F39325" d="M89,97.6c-0.2,0-0.4-0.1-0.6-0.1c-4.5-0.9-8.9-1.3-13.5-1.3c-2,0-3.9,0.1-5.8,0.3c-0.3,0-0.6,0-0.9,0.1
		c-7.7,0.7-14.5,2.7-20.1,4.9c-0.2,0.1-0.3,0.1-0.5,0.2c-10.2,4.2-16.4,9.2-16.5,9.3c0,0-0.1,0.1-0.1,0.2c0,0.7,0.6,1.9,1.8,3.5
		c1-0.9,2.1-1.8,3.1-2.5c1.2-0.9,2.4-1.7,3.5-2.3c2.2-1.3,4.2-2.2,5.6-2.8c1.4-0.6,2.2-0.8,2.2-0.8s-0.8,0.4-2.1,1.1
		c-1.3,0.8-3.1,1.9-5.2,3.4c-1,0.7-2.1,1.6-3.2,2.5c-1,0.8-2,1.8-3,2.7c0.4,0.5,0.9,1.1,1.4,1.7c0.3-0.2,0.6-0.4,0.9-0.7
		c1.2-0.9,2.4-1.7,3.5-2.3c2.2-1.3,4.2-2.2,5.6-2.8c1.4-0.6,2.2-0.8,2.2-0.8c0,0-0.8,0.4-2.1,1.2c-1.3,0.8-3.1,1.9-5.2,3.4
		c-1,0.7-2.1,1.6-3.2,2.5c-0.3,0.2-0.5,0.4-0.8,0.7c0.5,0.6,1,1.1,1.5,1.7c0.6-0.4,1.3-0.9,1.9-1.2c2.2-1.3,4.2-2.2,5.6-2.8
		c1.4-0.6,2.2-0.8,2.2-0.8c0,0-0.8,0.4-2.1,1.2c-1.3,0.8-3.1,1.9-5.2,3.4c-0.5,0.4-1.1,0.8-1.6,1.3c0.7,0.7,1.4,1.5,2.1,2.2
		c1.8-1,3.4-1.7,4.5-2.2c1.4-0.6,2.2-0.8,2.2-0.8s-0.8,0.4-2.1,1.1c-1.1,0.6-2.5,1.5-4.1,2.6c1,1.1,2,2.1,3,3
		c8.2-5.4,17.9-8.2,28.7-8.2c17.1,0,31.9,7,34.4,8.2l1.7-2.4c-1.6-1.1-3-2-4.1-2.6c-1.3-0.7-2.1-1.1-2.1-1.2c0,0,0.8,0.3,2.2,0.8
		c1.2,0.5,2.7,1.2,4.5,2.2l1.7-2.4c-0.6-0.5-1.2-1-1.8-1.4c-2.1-1.5-3.9-2.6-5.2-3.4c-1.3-0.7-2.1-1.1-2.1-1.2c0,0,0.8,0.3,2.2,0.8
		c1.4,0.6,3.4,1.5,5.6,2.8c0.6,0.4,1.3,0.8,2,1.3l1.3-1.9c-0.2-0.2-0.4-0.4-0.7-0.6c-1.1-0.9-2.2-1.8-3.2-2.5
		c-2.1-1.5-3.9-2.6-5.2-3.4c-1.3-0.7-2.1-1.2-2.1-1.2c0,0,0.8,0.3,2.2,0.8c1.4,0.6,3.4,1.5,5.6,2.8c1.1,0.7,2.3,1.4,3.5,2.3
		c0.2,0.2,0.4,0.3,0.6,0.5l1.3-1.8c-0.9-0.9-1.8-1.7-2.7-2.5c-1.1-0.9-2.2-1.8-3.2-2.5c-2.1-1.5-3.9-2.6-5.2-3.4
		c-1.3-0.7-2.1-1.1-2.1-1.2c0,0,0.8,0.3,2.2,0.8c1.4,0.6,3.4,1.5,5.6,2.8c1.1,0.7,2.3,1.4,3.5,2.3c0.9,0.7,1.9,1.5,2.8,2.3l2.8-3.9
		c-7.9-5.4-16.1-9.3-24.3-11.6c-0.1,0-0.2-0.1-0.3-0.1C92.6,98.4,90.8,98,89,97.6z"/>
</g>
</svg>
