<?xml version="1.0" encoding="utf-8"?>
<!-- Generator: Adobe Illustrator 18.1.0, SVG Export Plug-In . SVG Version: 6.00 Build 0)  -->
<svg version="1.1" id="Layer_1" xmlns="http://www.w3.org/2000/svg" xmlns:xlink="http://www.w3.org/1999/xlink" x="0px" y="0px"
	 viewBox="0 0 1500 1500" enable-background="new 0 0 1500 1500" xml:space="preserve">
<g>
	<rect x="732" y="845" fill="none" width="33" height="36"/>
	<rect x="773" y="889" fill="none" width="36" height="34"/>
	<rect x="773" y="845" fill="none" width="36" height="36"/>
	<rect x="732" y="889" fill="none" width="33" height="34"/>
	<path fill="#718F40" d="M1019.7,908.9l87.3-51.1c-3.2-4.3-5.5-9.3-7-14.7l-37.5,22L1045,753.4c-4.8,1.8-10,2.9-15.4,2.9
		c-0.2,0-0.3-0.1-0.5-0.1l18.5,117.6l-123.9,72.6l-97.2-264.9l109.2-86.7l182.6,105.9c2.4-7.6,6.6-14.5,12.1-20.1l-175-101.5
		l148.1-117.6c-5.6-5.5-9.9-12.4-12.5-20l-83.1,66l-55.3-180.5c-6.6,4-14.2,6.6-22.3,7.3L988,523.3L817.9,658.4l-53.5-145.8
		l-47.7,143.9L588.8,554.9l57.8-188.7c-8.1-1-15.6-3.8-22.1-8.1l-55.5,181.2l-72.2-57.4c-2.4,7.7-6.6,14.7-12.1,20.3l136.8,108.7
		l-159.8,92.7c5.4,5.7,9.5,12.6,11.9,20.2l167.7-97.2l67.5,53.6l-93.1,280.9L517,903.3l17.1-109c-5.6-0.1-11-1.2-15.9-3.2L502,894.5
		l-41.3-24.2c-2,5.1-4.9,9.7-8.6,13.7l92.6,54.3l-93,73.3c4,3.6,7.4,7.9,9.8,12.8l98.2-77.3l50.8,30.9l-134.2,406H722v-188h110v188
		h251.3l-154-420.9l75.5-44.8l96.6,75.8c2.4-4.9,5.7-9.4,9.7-13.1L1019.7,908.9z M765,923h-33v-34h33V923z M765,881h-33v-36h33V881z
		 M809,923h-36v-34h36V923z M809,881h-36v-36h36V881z"/>
	<path fill="#718F40" d="M763.5,488.1c32,0,57.9-25.9,57.9-57.9c0-32-25.9-57.9-57.9-57.9c-32,0-57.9,25.9-57.9,57.9
		C705.6,462.2,731.5,488.1,763.5,488.1z"/>
	<path fill="#FFAC74" d="M422.9,1000.5c-24,0-43.4,19.5-43.4,43.4c0,24,19.4,43.4,43.4,43.4c24,0,43.4-19.4,43.4-43.4
		c0-7-1.8-13.6-4.8-19.5c-2.5-4.9-5.8-9.2-9.8-12.8C444,1004.7,434,1000.5,422.9,1000.5z"/>
	<path fill="#FFAC74" d="M424.6,687.6c-28.3,0-51.2,22.9-51.2,51.2c0,28.3,22.9,51.2,51.2,51.2c28.3,0,51.2-22.9,51.2-51.2
		c0-5.2-0.8-10.3-2.3-15c-2.3-7.7-6.5-14.6-11.9-20.2C452.4,693.8,439.2,687.6,424.6,687.6z"/>
	<path fill="#FFAC74" d="M1115.8,716.4c0,28.3,22.9,51.2,51.2,51.2c28.3,0,51.2-22.9,51.2-51.2c0-28.3-22.9-51.2-51.2-51.2
		c-14.4,0-27.4,6-36.7,15.6c-5.5,5.6-9.6,12.5-12.1,20.1C1116.6,705.7,1115.8,711,1115.8,716.4z"/>
	<path fill="#F555A7" d="M661.3,719.7c0-13.8-11.2-25-25-25c-13.8,0-25,11.2-25,25c0,13.8,11.2,25,25,25
		C650,744.8,661.3,733.6,661.3,719.7z"/>
	<path fill="#F555A7" d="M517.3,167.2c13.8,0,25.1-11.2,25.1-25c0-13.8-11.2-25-25.1-25c-13.8,0-25,11.2-25,25
		C492.3,156,503.5,167.2,517.3,167.2z"/>
	<path fill="#F555A7" d="M486.2,608.9c13.8,0,25-11.2,25-25c0-13.8-11.2-25-25-25c-13.8,0-25,11.2-25,25
		C461.1,597.7,472.3,608.9,486.2,608.9z"/>
	<path fill="#F555A7" d="M463.8,854.7c0-24-19.5-43.4-43.4-43.4c-24,0-43.4,19.5-43.4,43.4c0,24,19.4,43.4,43.4,43.4
		c12.6,0,23.9-5.5,31.8-14c3.7-4,6.6-8.6,8.6-13.7C462.6,865.5,463.8,860.2,463.8,854.7z"/>
	<path fill="#F555A7" d="M1045,753.4c16.4-6.2,28.1-22,28.1-40.5c0-24-19.5-43.4-43.5-43.4c-24,0-43.4,19.5-43.4,43.4
		c0,23.8,19.2,43.1,42.9,43.4c0.2,0,0.4,0.1,0.5,0.1C1035,756.4,1040.2,755.2,1045,753.4z"/>
	<path fill="#F555A7" d="M239.4,665.9c0-13.8-11.2-25-25.1-25s-25,11.2-25,25c0,13.8,11.2,25,25,25S239.4,679.8,239.4,665.9z"/>
	<path fill="#F555A7" d="M499.2,466.6c0-28.3-22.9-51.2-51.2-51.2c-28.3,0-51.2,22.9-51.2,51.2c0,28.3,22.9,51.2,51.2,51.2
		c14.4,0,27.5-6,36.8-15.6c5.5-5.7,9.7-12.6,12.1-20.3C498.4,477.1,499.2,472,499.2,466.6z"/>
	<path fill="#F555A7" d="M1032.6,402.2c13.8,0,25-11.2,25-25c0-13.8-11.2-25-25-25c-13.8,0-25,11.2-25,25
		C1007.6,391,1018.8,402.2,1032.6,402.2z"/>
	<path fill="#F555A7" d="M939.2,877.9c13.8,0,25.1-11.2,25.1-25.1c0-13.8-11.2-25-25.1-25c-13.8,0-25,11.2-25,25
		C914.1,866.7,925.3,877.9,939.2,877.9z"/>
	<path fill="#F555A7" d="M977.1,283.4c0-28.3-22.9-51.2-51.2-51.2c-28.3,0-51.2,22.9-51.2,51.2c0,28.3,22.9,51.2,51.2,51.2
		c1.5,0,2.9-0.1,4.3-0.2c8.1-0.7,15.7-3.3,22.3-7.3C967.2,318.1,977.1,301.9,977.1,283.4z"/>
	<path fill="#F555A7" d="M859.9,150.2c13.8,0,25-11.2,25-25c0-13.8-11.2-25-25-25s-25,11.2-25,25C834.9,139,846.1,150.2,859.9,150.2
		z"/>
	<path fill="#F555A7" d="M1236.5,921.2c-13.8,0-25,11.2-25,25c0,13.8,11.2,25.1,25,25.1c13.8,0,25-11.2,25-25.1
		C1261.5,932.4,1250.3,921.2,1236.5,921.2z"/>
	<path fill="#F555A7" d="M1250.6,623.9c-13.8,0-25,11.2-25,25c0,13.8,11.2,25,25,25c13.8,0,25.1-11.2,25.1-25
		C1275.7,635.1,1264.4,623.9,1250.6,623.9z"/>
	<path fill="#E8A26C" d="M1341.2,587.1c-13.8,0-25,11.2-25,25c0,13.8,11.2,25,25,25c13.8,0,25-11.2,25-25
		C1366.3,598.3,1355.1,587.1,1341.2,587.1z"/>
	<path fill="#E8A26C" d="M981.2,767.9c0-13.8-11.2-25-25-25c-13.8,0-25,11.2-25,25c0,13.8,11.2,25.1,25,25.1
		C970,792.9,981.2,781.7,981.2,767.9z"/>
	<path fill="#E8A26C" d="M1182.7,1136.4c-13.8,0-25,11.2-25,25c0,13.8,11.2,25.1,25,25.1c13.8,0,25-11.2,25-25.1
		C1207.7,1147.6,1196.5,1136.4,1182.7,1136.4z"/>
	<path fill="#E8A26C" d="M1208.6,481.9c0,13.8,11.2,25,25,25c13.8,0,25.1-11.2,25.1-25c0-13.8-11.2-25-25.1-25
		C1219.8,456.9,1208.6,468.1,1208.6,481.9z"/>
	<path fill="#E8A26C" d="M910.4,456.4c0-13.8-11.2-25-25-25c-13.8,0-25,11.2-25,25c0,13.8,11.2,25,25,25
		C899.2,481.5,910.4,470.3,910.4,456.4z"/>
	<path fill="#E8A26C" d="M1183.6,1012.8c0-24-19.4-43.4-43.4-43.4c-11.3,0-21.4,4.4-29.1,11.4c-4,3.7-7.3,8-9.7,12.9
		c-2.8,5.8-4.6,12.2-4.6,19.1c0,24,19.4,43.4,43.4,43.4C1164.2,1056.2,1183.6,1036.8,1183.6,1012.8z"/>
	<path fill="#E8A26C" d="M383.8,623.5c0-13.8-11.2-25-25.1-25c-13.8,0-25,11.2-25,25c0,13.8,11.2,25,25,25
		C372.6,648.5,383.8,637.3,383.8,623.5z"/>
	<path fill="#E8A26C" d="M310.6,875.9c-13.8,0-25,11.2-25,25c0,13.8,11.2,25,25,25c13.8,0,25-11.2,25-25
		C335.7,887.1,324.4,875.9,310.6,875.9z"/>
	<path fill="#E8A26C" d="M1211,235.1c13.8,0,25-11.2,25-25c0-13.8-11.2-25-25-25c-13.8,0-25,11.2-25,25
		C1185.9,223.9,1197.1,235.1,1211,235.1z"/>
	<path fill="#E8A26C" d="M777.8,238c13.8,0,25-11.2,25-25c0-13.8-11.2-25-25-25c-13.8,0-25,11.2-25,25
		C752.7,226.8,764,238,777.8,238z"/>
	<path fill="#E8A26C" d="M271,464.5c13.8,0,25.1-11.2,25.1-25c0-13.8-11.2-25-25.1-25c-13.8,0-25,11.2-25,25
		C245.9,453.3,257.1,464.5,271,464.5z"/>
	<path fill="#E8A26C" d="M990.6,997.2c0,13.8,11.2,25.1,25,25.1c13.8,0,25-11.2,25-25.1c0-13.8-11.2-25-25-25
		C1001.8,972.2,990.6,983.4,990.6,997.2z"/>
	<path fill="#E8A26C" d="M486.2,345.6c13.8,0,25-11.2,25-25c0-13.8-11.2-25-25-25c-13.8,0-25,11.2-25,25
		C461.1,334.4,472.3,345.6,486.2,345.6z"/>
	<path fill="#39BCE5" d="M293.6,1023.1c-13.8,0-25,11.2-25,25s11.2,25,25,25c13.8,0,25.1-11.2,25.1-25S307.5,1023.1,293.6,1023.1z"
		/>
	<path fill="#39BCE5" d="M652.8,366.6c28.3,0,51.2-22.9,51.2-51.2c0-28.3-22.9-51.2-51.2-51.2c-28.3,0-51.2,22.9-51.2,51.2
		c0,17.8,9.2,33.6,23,42.7c6.5,4.3,14,7.1,22.1,8.1C648.6,366.5,650.7,366.6,652.8,366.6z"/>
	<path fill="#39BCE5" d="M534.4,794.4c24,0,43.5-19.5,43.5-43.5c0-24-19.5-43.4-43.5-43.4c-24,0-43.4,19.5-43.4,43.4
		c0,18.3,11.3,33.8,27.3,40.3c4.9,2,10.3,3.1,15.9,3.2C534.2,794.4,534.3,794.4,534.4,794.4z"/>
	<path fill="#39BCE5" d="M248.3,745.7c-13.8,0-25,11.2-25,25c0,13.8,11.2,25.1,25,25.1c13.8,0,25-11.2,25-25.1
		C273.4,756.9,262.1,745.7,248.3,745.7z"/>
	<path fill="#39BCE5" d="M1354.9,430.9c0-13.8-11.2-25-25-25c-13.8,0-25,11.2-25,25c0,13.8,11.2,25,25,25
		C1343.7,456,1354.9,444.8,1354.9,430.9z"/>
	<path fill="#39BCE5" d="M952.9,657.4c0-13.8-11.2-25-25-25c-13.8,0-25,11.2-25,25c0,13.8,11.2,25,25,25
		C941.7,682.5,952.9,671.3,952.9,657.4z"/>
	<path fill="#39BCE5" d="M1141.9,875.6c24,0,43.4-19.5,43.4-43.4c0-24-19.4-43.4-43.4-43.4c-24,0-43.4,19.5-43.4,43.4
		c0,3.8,0.7,7.4,1.6,10.9c1.4,5.4,3.8,10.3,7,14.7C1114.9,868.5,1127.5,875.6,1141.9,875.6z"/>
	<path fill="#39BCE5" d="M273.8,524.8c-13.8,0-25,11.2-25,25c0,13.8,11.2,25,25,25c13.8,0,25.1-11.2,25.1-25
		C298.9,536,287.6,524.8,273.8,524.8z"/>
	<path fill="#39BCE5" d="M1151.5,558.8c-13.8,0-25,11.2-25,25c0,13.8,11.2,25,25,25s25-11.2,25-25
		C1176.6,570,1165.3,558.8,1151.5,558.8z"/>
	<path fill="#39BCE5" d="M580,855.6c0,13.8,11.2,25.1,25,25.1c13.8,0,25-11.2,25-25.1c0-13.8-11.2-25-25-25
		C591.3,830.6,580,841.8,580,855.6z"/>
	<path fill="#39BCE5" d="M1139.3,476.4c28.3,0,51.2-22.9,51.2-51.2c0-28.3-22.9-51.2-51.2-51.2c-28.3,0-51.2,22.9-51.2,51.2
		c0,5.8,1,11.3,2.8,16.4c2.6,7.6,6.9,14.5,12.5,20C1112.6,470.7,1125.3,476.4,1139.3,476.4z"/>
	<path fill="#39BCE5" d="M851.8,530c0,13.8,11.2,25,25,25c13.8,0,25-11.2,25-25c0-13.8-11.2-25-25-25
		C863.1,505,851.8,516.2,851.8,530z"/>
	<path fill="#39BCE5" d="M616.4,221c13.8,0,25-11.2,25-25c0-13.8-11.2-25-25-25c-13.8,0-25,11.2-25,25
		C591.4,209.8,602.6,221,616.4,221z"/>
	<path fill="#39BCE5" d="M322,297.4c13.8,0,25-11.2,25-25c0-13.8-11.2-25-25-25c-13.8,0-25,11.2-25,25
		C296.9,286.2,308.1,297.4,322,297.4z"/>
	<path fill="#39BCE5" d="M1052.4,286.1c13.8,0,25.1-11.2,25.1-25c0-13.8-11.2-25-25.1-25c-13.8,0-25,11.2-25,25
		C1027.4,274.9,1038.6,286.1,1052.4,286.1z"/>
</g>
</svg>
