<?xml version="1.0" encoding="utf-8"?>
<!-- Generator: Adobe Illustrator 16.0.0, SVG Export Plug-In . SVG Version: 6.00 Build 0)  -->
<!DOCTYPE svg PUBLIC "-//W3C//DTD SVG 1.1//EN" "http://www.w3.org/Graphics/SVG/1.1/DTD/svg11.dtd">
<svg version="1.1" id="Layer_1" xmlns="http://www.w3.org/2000/svg" xmlns:xlink="http://www.w3.org/1999/xlink" x="0px" y="0px"
	 width="100px" height="100px" viewBox="0 0 100 100" enable-background="new 0 0 100 100" xml:space="preserve">
<g>
	<g>
		<g>
			<radialGradient id="SVGID_1_" cx="51.9404" cy="30.4077" r="55.3857" gradientUnits="userSpaceOnUse">
				<stop  offset="0" style="stop-color:#FDBC11"/>
				<stop  offset="0.3576" style="stop-color:#EC1C24"/>
				<stop  offset="0.6606" style="stop-color:#BE1E2D"/>
				<stop  offset="1" style="stop-color:#620000"/>
			</radialGradient>
			<path fill="url(#SVGID_1_)" d="M35.669,19.649c0.499-0.915,1.775-1.008,2.572-0.436c0.667-0.255,1.295-0.049,1.781,0.455
				c0.661-0.093,1.214,0.156,1.62,0.679c0.461,0.137,0.934,0.262,1.401,0.392c0.124,0.336,0.249,0.673,0.38,1.016
				c0.679-0.293,1.606-0.778,2.21-0.087c1.227,1.058,3.083,1.052,4.091,2.379c-0.243,0.448-0.53,0.872-0.835,1.264
				c2.242,0.834,4.154,2.286,6.371,3.158c1.769,0.748,3.45,1.719,5.281,2.292c0.18-0.536,0.361-1.065,0.529-1.607
				c-0.643-1.258-0.343-2.752,0.367-3.904c0.299-1.495,1.295-2.678,2.267-3.805c1.015-1.24,2.708-1.669,4.253-1.731
				c1.208,0.162,2.354,0.667,3.456,1.189c1.028,0.673,1.594,1.831,2.191,2.871c0.61,0.978,0.106,2.111,0.095,3.164
				c0.124,0.647,0.609,1.251,0.323,1.93c-0.336-0.144-0.66-0.273-0.989-0.417c-0.954,1.582-1.807,3.232-2.05,5.081
				c-0.174,0.05-0.522,0.149-0.703,0.199c-0.219,0.393-0.442,0.784-0.661,1.178c5.257,2.709,10.537,5.367,15.837,7.995
				c2.093,1.426,4.813,1.482,6.793,3.101c0.973,0.805,0.767,2.242,0.86,3.377c-0.05,0.889,0.211,2.109-0.76,2.608
				c-0.772,0.535-1.737,0.306-2.484-0.143c-0.474-0.274-0.642-0.668-0.505-1.178c0.273-1.501,0.941-2.89,1.525-4.284
				c-7.291-3.295-14.459-6.845-21.67-10.3c-0.442-0.286-0.954-0.162-1.346,0.143c0.697,0.292,1.962,0.169,2.079,1.152
				c0.231,1.7,1.053,3.275,1.085,5.02c0.229,1.632-0.368,3.219-1.028,4.689c-0.716,1.183-1.669,2.229-2.173,3.53
				c-0.2,0.572-0.947,0.729-1.083,1.338c-0.461,1.303-1.053,2.554-1.626,3.812c-0.119,0.368-0.405,0.635-0.76,0.805
				c-7.722,3.967-15.693,7.528-24.013,10.056c-0.834-0.565-1.669-1.139-2.497-1.719c0.056-1.195,0-2.459,0.572-3.543
				c0.897-1.818,2.336-3.412,2.697-5.461c0.137-0.623,0.087-1.313,0.473-1.844c0.274-0.461,0.635-0.922,0.61-1.488
				c0.106-1.631,0.635-3.214,0.561-4.851c-0.841,0.08-1.688,0.205-2.522,0.33c-0.069-0.219-0.199-0.635-0.274-0.848
				c-2.765,0.269-5.654,0.798-8.357-0.099c-0.865-0.635-1.613-1.632-1.557-2.759c0.075-2.865-0.342-5.724,0.056-8.581
				c0.53-3.868,1.134-7.854,3.095-11.291C33.969,22.838,34.698,21.175,35.669,19.649z M37.139,26.899
				c-0.324,1.78-0.168,3.599-0.349,5.386c-0.2,1.98,0.292,3.929,0.654,5.866c1.88,0.049,3.537-0.772,5.262-1.37
				c-1.04-1.855-1.83-3.824-2.634-5.786c-0.517-1.495-0.604-3.106-0.436-4.657C38.727,26.095,37.88,26.381,37.139,26.899z
				 M44.761,28.306c0.996,2.136,2.871,3.624,4.428,5.325c0.667,0.809,1.712,0.187,2.572,0.235c1.346-0.249,2.585,1.114,3.886,0.361
				c1.165-0.597,2.497-0.474,3.756-0.69c0.255-0.505,0.41-1.047,0.598-1.575c-4.098-1.919-8.239-3.737-12.386-5.531
				C46.667,27.035,45.808,27.82,44.761,28.306z"/>
		</g>
		<radialGradient id="SVGID_2_" cx="51.9424" cy="30.3838" r="55.4136" gradientUnits="userSpaceOnUse">
			<stop  offset="0" style="stop-color:#FDBC11"/>
			<stop  offset="0.3576" style="stop-color:#EC1C24"/>
			<stop  offset="0.6606" style="stop-color:#BE1E2D"/>
			<stop  offset="1" style="stop-color:#620000"/>
		</radialGradient>
		<path fill="url(#SVGID_2_)" d="M54.625,70.757c2.722-1.227,5.475-2.378,8.178-3.642c-0.455,0.846-0.468,1.799-0.418,2.732
			C59.851,70.527,57.235,70.701,54.625,70.757z"/>
	</g>
	<g>
		<path fill="#FFFFFF" d="M37.139,26.899c0.741-0.518,1.588-0.804,2.497-0.561c-0.168,1.551-0.081,3.163,0.436,4.657
			c0.804,1.962,1.594,3.931,2.634,5.786c-1.725,0.598-3.381,1.419-5.262,1.37c-0.361-1.938-0.854-3.886-0.654-5.866
			C36.971,30.498,36.815,28.679,37.139,26.899z"/>
		<path fill="#FFFFFF" d="M44.761,28.306c1.046-0.486,1.906-1.271,2.853-1.875c4.147,1.793,8.289,3.612,12.386,5.531
			c-0.188,0.528-0.343,1.07-0.598,1.575c-1.259,0.217-2.591,0.094-3.756,0.69c-1.301,0.753-2.54-0.61-3.886-0.361
			c-0.859-0.049-1.905,0.573-2.572-0.235C47.632,31.93,45.757,30.442,44.761,28.306z"/>
	</g>
	<g>
		<radialGradient id="SVGID_3_" cx="76.1172" cy="69.4229" r="49.1485" gradientUnits="userSpaceOnUse">
			<stop  offset="0" style="stop-color:#8BC53F"/>
			<stop  offset="0.3455" style="stop-color:#37B34A"/>
			<stop  offset="0.4555" style="stop-color:#2CA547"/>
			<stop  offset="0.6642" style="stop-color:#117F3D"/>
			<stop  offset="0.7758" style="stop-color:#006838"/>
			<stop  offset="1" style="stop-color:#000600"/>
		</radialGradient>
		<path fill="url(#SVGID_3_)" d="M57.689,11.554c9.995-0.841,20.12,3.413,26.995,10.63c3.998,4.322,7.006,9.602,8.383,15.344
			c1.637,6.558,1.313,13.595-0.954,19.959c-3.767,10.848-13.32,19.46-24.528,22.02c-7.1,1.669-14.729,1.09-21.454-1.775
			c-1.52-0.604-2.933-1.443-4.396-2.179c2.136-0.96,4.434-1.501,6.601-2.392c1.37-0.418,2.665-1.172,4.079-1.42
			c4.079,0.324,8.238-0.069,12.143-1.339c6.427-2.08,12.156-6.345,15.855-12.02c0.305-0.44,0.598-0.922,1.077-1.194
			c2.82-1.732,5.716-3.363,8.376-5.343c0.747,0.448,1.712,0.678,2.484,0.143c0.971-0.499,0.71-1.72,0.76-2.608
			c-0.094-1.135,0.112-2.572-0.86-3.377c-1.979-1.618-4.7-1.675-6.793-3.101c0.305-5.741-1.221-11.514-4.086-16.477
			c-3.082-5.131-7.622-9.397-13.033-11.963C65.006,12.825,61.363,11.972,57.689,11.554z"/>
		<radialGradient id="SVGID_4_" cx="76.1338" cy="69.4258" r="49.1648" gradientUnits="userSpaceOnUse">
			<stop  offset="0" style="stop-color:#8BC53F"/>
			<stop  offset="0.3455" style="stop-color:#37B34A"/>
			<stop  offset="0.4555" style="stop-color:#2CA547"/>
			<stop  offset="0.6642" style="stop-color:#117F3D"/>
			<stop  offset="0.7758" style="stop-color:#006838"/>
			<stop  offset="1" style="stop-color:#000600"/>
		</radialGradient>
		<path fill="url(#SVGID_4_)" d="M25.102,48.065c0.168-0.076,0.499-0.231,0.661-0.306c1.257,5.891,4.24,11.421,8.605,15.581
			c1.364,1.432,3.027,2.509,4.553,3.748c-1.819,0.542-3.649,1.077-5.505,1.439C28.564,62.811,25.569,55.557,25.102,48.065z"/>
	</g>
	<radialGradient id="SVGID_5_" cx="33.4326" cy="74.4229" r="45.9242" gradientUnits="userSpaceOnUse">
		<stop  offset="0" style="stop-color:#44C7F4"/>
		<stop  offset="0.1775" style="stop-color:#22BAF1"/>
		<stop  offset="0.3758" style="stop-color:#00ADEE"/>
		<stop  offset="0.4645" style="stop-color:#00A6E6"/>
		<stop  offset="0.6041" style="stop-color:#0092CF"/>
		<stop  offset="0.7772" style="stop-color:#0072AA"/>
		<stop  offset="0.9754" style="stop-color:#004678"/>
		<stop  offset="1" style="stop-color:#004071"/>
	</radialGradient>
	<path fill="url(#SVGID_5_)" d="M89.797,46.64c-1.656-0.661-3.263-1.464-4.907-2.162c-0.323-0.181-0.616-0.149-0.884,0.112
		c-6.602,4.652-13.127,9.496-20.345,13.189c-6.426,3.288-13.077,6.178-19.902,8.563c-1.458,0.535-2.995,0.864-4.422,1.487
		c-6.358,1.669-12.896,3.413-19.528,2.803c-2.547-0.255-5.418-1.059-6.738-3.469c-1.115-2.16-0.317-4.714,0.653-6.774
		c2.279-4.534,5.929-8.165,9.59-11.596c1.171-1.122,2.497-2.074,3.556-3.301c-5.386,4.098-10.474,8.65-14.858,13.819
		c-2.56,3.138-4.994,6.582-5.91,10.592c-0.561,2.453,0.062,5.262,2.167,6.806c3.413,2.454,7.84,2.529,11.881,2.41
		c6.881-0.385,13.638-2.005,20.208-4.034c17.1-5.374,33.267-13.489,48.281-23.229C88.302,50.002,89.367,48.364,89.797,46.64z"/>
</g>
</svg>
