<?xml version="1.0" encoding="utf-8"?>
<!-- Generator: Adobe Illustrator 18.1.0, SVG Export Plug-In . SVG Version: 6.00 Build 0)  -->
<svg version="1.0" id="Layer_1" xmlns="http://www.w3.org/2000/svg" xmlns:xlink="http://www.w3.org/1999/xlink" x="0px" y="0px"
	 viewBox="0 0 150 150" enable-background="new 0 0 150 150" xml:space="preserve">
<g>
	<path fill="#059A99" d="M140.5,65.2c-4.8-36.1-37.9-61.5-74-56.7C30.4,13.3,5,46.4,9.8,82.5c4.8,36.1,37.9,61.5,74,56.7
		C119.9,134.5,145.3,101.3,140.5,65.2z M105.2,25.6l1.5-3l1.5,3l3.3,0.5l-2.4,2.3l0.6,3.3l-3-1.6l-3,1.6l0.6-3.3l-2.4-2.3
		L105.2,25.6z M71.9,13.7l1.5-3l1.5,3l3.3,0.5l-2.4,2.3l0.6,3.3l-3-1.6l-3,1.6l0.6-3.3l-2.4-2.3L71.9,13.7z M118.9,122.3l-3-1.6
		l-3,1.6l0.6-3.3l-2.4-2.3l3.3-0.5l1.5-3l1.5,3l3.3,0.5l-2.4,2.3L118.9,122.3z M75.2,122.5c-26.8,0-48.6-21.8-48.6-48.6
		c0-26.9,21.8-48.6,48.6-48.6c26.9,0,48.6,21.8,48.6,48.6C123.8,100.7,102,122.5,75.2,122.5z M123.6,51l3.3-0.5l1.5-3l1.5,3l3.3,0.5
		l-2.4,2.3l0.6,3.3l-3-1.6l-3,1.6l0.6-3.3L123.6,51z M135,93.5l-3-1.6l-3,1.6l0.6-3.3l-2.4-2.3l3.3-0.5l1.5-3l1.5,3l3.3,0.5
		l-2.4,2.3L135,93.5z"/>
	<path fill="#C32126" d="M75.2,25.3c-26.8,0-48.6,21.8-48.6,48.6c0,26.8,21.8,48.6,48.6,48.6c26.9,0,48.6-21.8,48.6-48.6
		C123.8,47,102,25.3,75.2,25.3z M60.9,46.5c0-2.4,0.1-4.3,0.3-5.7c0.1-0.4,0.1-0.8,0.2-1.2c0.3-1.5,0.9-2.7,1.7-3.7
		c0.9-1.2,2.1-2.1,3.5-2.6c1.4-0.5,3.1-0.8,5.2-0.8h4.3h3.8c4.3,0,7.2,1,8.9,3c1.7,2,2.5,5.7,2.5,11v7.3c-6.5,0.3-16,2.2-22.5,9.3
		c-4.5-1.1-7-6.2-7.9-12.7V46.5z M88.8,110.5c-1.7,2-4.6,3-8.9,3h-3.8h-4.3c-2.1,0-3.8-0.3-5.2-0.8c-1.4-0.5-2.5-1.4-3.5-2.6
		c-0.8-1-1.4-2.3-1.7-3.7c-0.1-0.3-0.1-0.7-0.2-1.2c-0.2-1.4-0.3-3.3-0.3-5.7V89.4c0-0.4,0-0.8,0-1.1c-0.4,0-0.8,0-1.1,0H49.6
		c-3.1,0-5.4-0.2-6.8-0.5c-1.5-0.3-2.7-0.9-3.7-1.7c-1.2-1-2.1-2.1-2.6-3.5c-0.5-1.4-0.8-3.1-0.8-5.2v-8.1c0-4.3,1-7.2,3-8.9
		c2-1.7,5.7-2.5,11-2.5h1.9c-0.2-3.4-0.2-6.8,0.3-10c0.6-4.6,2.5-9,4.4-13.6c-0.4,4.1,0,0,0,0s0.1-0.5,0,0c-2,10.8-0.1,37,4.3,47
		c1.3,2.9,2.8,5.9,4.6,8.5c5.5,8,13.9,13.4,22.3,17.9c0.9,0.5,1.7,0.9,2.5,1.2C89.5,109.5,89.2,110,88.8,110.5z M116.6,69.2v8.1
		c0,2.1-0.3,3.8-0.8,5.2c-0.5,1.4-1.4,2.5-2.6,3.5c-1,0.8-2.3,1.4-3.7,1.7c-1.5,0.3-3.7,0.5-6.8,0.5H92.5c-0.4,0-0.8,0-1.1,0
		c0,0.4,0,0.8,0,1.1v10.1c0,2.7-0.2,5-0.7,6.8c3,1.7,6.1,3,8.5,3.9c-2-0.5-4.4-1.1-7-1.9c-1.1-0.7-2.2-1.4-3.2-2.2
		c-9.1-7.1-16.6-18.5-10.7-36.3C80.9,62,86.6,58,91.3,56v0.7c0,0.4,0,0.8,0,1.1c0.4,0,0.7,0,1.1,0h10.1c5.3,0,9,0.8,11,2.5
		C115.6,62,116.6,65,116.6,69.2z"/>
	<path fill="#C32126" d="M74.1,52.3c2.4-2.4,2.4-6.4,0-8.9c-2.4-2.4-6.4-2.4-8.9,0c-2.4,2.4-2.4,6.4,0,8.9
		C67.7,54.7,71.7,54.7,74.1,52.3z"/>
</g>
</svg>
