<?xml version="1.0" encoding="utf-8"?>
<!-- Generator: Adobe Illustrator 18.1.0, SVG Export Plug-In . SVG Version: 6.00 Build 0)  -->
<svg version="1.1" id="Layer_1" xmlns="http://www.w3.org/2000/svg" xmlns:xlink="http://www.w3.org/1999/xlink" x="0px" y="0px"
	 viewBox="0 0 150 150" enable-background="new 0 0 150 150" xml:space="preserve">
<g>
	<path fill="none" d="M105.8,116.7c-7.7,6.6-17.6,11-28,12.4c-5.2,0.7-10.5,0.6-15.7-0.2c-5.3-0.9-10-2.4-15.2-4.8
		c-4-2-9-5.2-12.6-8.7c-3.7-3.6-7-7.6-9.6-12c-5.1-8.8-7.5-18.7-7.1-28.2c0.4-9.5,3.5-18.5,7.9-25.6c4.7-7.4,10.8-12.8,17.2-16.6
		c6.4-3.7,13-5.6,18.8-6.3c4.2-0.6,7.9-0.4,11.3-0.1c1.6-0.5,4.6-1.3,8.2-2.3c-2.5-3.3-4.5-5.8-5.5-7c-3.9-0.1-8.2,0-12.7,1
		c-7,1.3-14.8,4.1-22.1,9c-7.2,4.8-14,11.9-18.7,20.3c-4.9,8.8-7.5,19-7.3,29.6c0.2,10.6,3.6,21.3,9.6,30.3c3.1,4.5,6.8,8.5,10.9,12
		c4.4,3.5,8.4,5.8,14.2,8.5c4.5,1.7,10.1,3.3,15.3,3.8c5.3,0.4,10.6,0.2,15.8-0.8c10.3-2.1,19.6-7.1,26.6-13.8
		c3.4-3.3,6.7-7.3,8.7-11c1.1-1.5,2.3-4.3,3.4-6.6c-1.1,1.9-1.9,3.6-3.5,5.9C113,109.8,109.7,113.3,105.8,116.7z"/>
	<path fill="none" d="M50.1,89.7c0.2,0.8-0.2,1.6-1,1.8l-14.8,4.1c-0.8,0.2-1.6-0.2-1.8-1l-3.8-13.9c-0.2-0.8,0.2-1.6,1-1.8L44,75
		l2.4-4.1l-3.7-13.3c-0.2-0.8,0.2-1.6,1-1.8l14.8-4.1c0.8-0.2,1.6,0.3,1.8,1l3.8,13.9c0.2,0.8-0.2,1.6-1,1.8l-13.8,3.8l-2.7,4.7
		L50.1,89.7z M55.9,91.3l-3.8-13.9c-0.2-0.8,0.2-1.6,1-1.8l14.3-3.9l2.4-4.2l-3.7-13.3c-0.2-0.8,0.2-1.6,1-1.8L82,48.3
		c0.8-0.2,1.6,0.3,1.8,1l3.8,13.9c0.2,0.8-0.2,1.6-1,1.8l-13.8,3.8l-2.7,4.7l3.5,12.9c0.2,0.8-0.2,1.6-1,1.8l-14.8,4.1
		C57,92.5,56.2,92.1,55.9,91.3z M93.6,87.5l-13.8,3.8L77,96l3.5,12.9c0.2,0.8-0.2,1.6-1,1.8l-14.8,4.1c-0.8,0.2-1.6-0.2-1.8-1
		l-3.8-13.9c-0.2-0.8,0.2-1.6,1-1.8l14.3-3.9l2.4-4.2l-3.7-13.3c-0.2-0.8,0.2-1.6,1-1.8L89,70.8c0.8-0.2,1.6,0.3,1.8,1l3.8,13.9
		C94.8,86.5,94.4,87.3,93.6,87.5z"/>
	<path fill-rule="evenodd" clip-rule="evenodd" fill="#7F1338" d="M63.1,68.3c0.8-0.2,1.3-1,1-1.8l-3.8-13.9c-0.2-0.8-1-1.3-1.8-1
		l-14.8,4.1c-0.8,0.2-1.3,1-1,1.8l3.7,13.3L44,75l-14.3,3.9c-0.8,0.2-1.3,1-1,1.8l3.8,13.9c0.2,0.8,1,1.3,1.8,1l14.8-4.1
		c0.8-0.2,1.3-1,1-1.8l-3.5-12.9l2.7-4.7L63.1,68.3z"/>
	<path fill-rule="evenodd" clip-rule="evenodd" fill="#46BBE7" d="M73.6,86.4l-3.5-12.9l2.7-4.7L86.6,65c0.8-0.2,1.3-1,1-1.8
		l-3.8-13.9c-0.2-0.8-1-1.3-1.8-1l-14.8,4.1c-0.8,0.2-1.3,1-1,1.8l3.7,13.3l-2.4,4.2l-14.3,3.9c-0.8,0.2-1.3,1-1,1.8l3.8,13.9
		c0.2,0.8,1,1.3,1.8,1l14.8-4.1C73.4,88,73.8,87.2,73.6,86.4z"/>
	<path fill-rule="evenodd" clip-rule="evenodd" fill="#7F1338" d="M90.8,71.8c-0.2-0.8-1-1.3-1.8-1l-14.8,4.1c-0.8,0.2-1.3,1-1,1.8
		L76.8,90l-2.4,4.2l-14.3,3.9c-0.8,0.2-1.3,1-1,1.8l3.8,13.9c0.2,0.8,1,1.3,1.8,1l14.8-4.1c0.8-0.2,1.3-1,1-1.8L77,96l2.7-4.7
		l13.8-3.8c0.8-0.2,1.3-1,1-1.8L90.8,71.8z"/>
	<path fill="#7F1338" d="M142.1,66c-1.4-10.4-5.1-19.5-9.5-26.9c-4.4-7.4-9.6-13-14.3-17.1c-1.6-1.5-3.5-2.9-5.2-4.1l0.1-0.3
		l9.2-12.9c-7.2,0.5-38.2,9.2-45.8,11.4c-4.2-0.5-8.9-0.6-14.2,0.1c-7.3,1-15.6,3.3-23.7,8c-8,4.7-15.6,11.6-21.6,20.8
		c-5.6,8.8-9.5,20.2-10,32.1c-0.5,11.9,2.5,24.4,8.9,35.5c3.2,5.5,7.4,10.5,12.1,15c4.6,4.3,10.9,8.4,15.9,10.9
		c6.5,3,12.4,4.9,19.1,6.1c6.5,1,13.2,1.1,19.7,0.2c13.1-1.8,25.4-7.4,35.1-15.6c4.8-4.3,9-8.6,12.6-14.2c2.1-2.9,3.1-5,4.4-7.4
		c1.6-3.3,2.6-5.6,3.7-8.5C142.7,87.9,143.5,76.3,142.1,66z M122.3,92.7c-0.9,2.3-1.6,4.2-2.9,6.8c-1.1,2.3-2.3,5.1-3.4,6.6
		c-2,3.7-5.3,7.6-8.7,11c-7,6.8-16.3,11.7-26.6,13.8c-5.1,1-10.5,1.2-15.8,0.8c-5.2-0.5-10.8-2.1-15.3-3.8c-5.9-2.6-9.8-5-14.2-8.5
		c-4.1-3.5-7.9-7.5-10.9-12c-6.1-9.1-9.4-19.8-9.6-30.3c-0.2-10.6,2.4-20.7,7.3-29.6c4.7-8.4,11.5-15.4,18.7-20.3
		c7.3-4.8,15-7.6,22.1-9c4.6-0.9,8.9-1.1,12.7-1c0.9,1.2,3,3.7,5.5,7c9.8-2.7,24.1-6.5,28.3-6.8L102,27.8l-0.1,0.2
		c1.4,1,2.8,2.1,4.2,3.3c3.7,3.3,7.9,7.7,11.4,13.6c3.5,5.9,6.4,13.1,7.6,21.4C126.1,74.6,125.4,83.8,122.3,92.7z"/>
	<path fill="#46BBE7" d="M117.4,45c-3.5-5.9-7.7-10.3-11.4-13.6c-1.3-1.2-2.7-2.3-4.2-3.3l0.1-0.2l7.3-10.3
		c-4.2,0.3-18.5,4.1-28.3,6.8c-3.6,1-6.6,1.8-8.2,2.3c-3.3-0.4-7.1-0.5-11.3,0.1c-5.9,0.8-12.4,2.6-18.8,6.3
		c-6.4,3.8-12.4,9.2-17.2,16.6c-4.5,7-7.6,16.1-7.9,25.6c-0.4,9.5,2,19.5,7.1,28.2c2.6,4.4,5.9,8.4,9.6,12c3.7,3.4,8.7,6.7,12.6,8.7
		c5.2,2.4,9.9,3.9,15.2,4.8c5.2,0.8,10.5,0.9,15.7,0.2c10.4-1.4,20.2-5.9,28-12.4c3.8-3.4,7.2-6.8,10.1-11.3c1.6-2.3,2.4-4,3.5-5.9
		c1.3-2.6,2-4.5,2.9-6.8c3.1-8.9,3.8-18.1,2.7-26.4C123.9,58.1,120.9,50.8,117.4,45z M108.6,88.3c-0.5,1.6-1.2,3.6-1.7,4.8
		c-0.9,1.8-1.8,4-2.7,5.3c-1.6,2.9-4.2,6.1-6.9,8.7c-5.6,5.4-13,9.3-21.2,11c-4.1,0.8-8.3,1-12.6,0.6c-4.1-0.4-8.6-1.6-12.2-3
		c-4.7-2.1-7.8-4-11.4-6.7c-3.3-2.8-6.3-6-8.7-9.6c-4.8-7.2-7.5-15.7-7.7-24.2c-0.2-8.4,2-16.5,5.8-23.5c3.8-6.7,9.2-12.3,14.9-16.1
		c5.8-3.8,12-6.1,17.6-7.1c3.7-0.7,7.1-0.9,10.1-0.8c2.9,3.6,18.5,23.3,21.7,31.2l3.1-11.7c0.6,0.5,1.1,1,1.7,1.6
		c1.5,1.5,3,3.3,4.4,5.4c0.1,0.2,0.2,0.4,0.4,0.5c2.5,3.9,4.8,8.7,6,14.3C110.5,74.8,110.5,81.5,108.6,88.3z"/>
</g>
</svg>
