<?xml version="1.0" encoding="utf-8"?>
<!-- Generator: Adobe Illustrator 18.1.0, SVG Export Plug-In . SVG Version: 6.00 Build 0)  -->
<svg version="1.1" id="Layer_1" xmlns="http://www.w3.org/2000/svg" xmlns:xlink="http://www.w3.org/1999/xlink" x="0px" y="0px"
	 viewBox="0 0 2000 2000" enable-background="new 0 0 2000 2000" xml:space="preserve">
<g>
	<path fill="#945465" d="M1581,499.4l-154.2-27.6c-55.1,88.7-179.2,176.5-362.9,233.5l20,215.2c0,0,19.1,146.2-100.4,155.8
		c-4.8-0.1-10.7-2-15.3-3.8l27.4,589.9c7.4,90.5,76.4,112.2,77.7,112.6c119.6,16.3,209.2,27.2,209.2,23.5
		c182.4,16.6,265.4-132.7,265.4-132.7s248.8-801.6,248.8-834.8C1885.1,532.5,1581,499.4,1581,499.4z"/>
	<path fill="#945465" d="M995,816.7c8.7,19.2,40.7,20.1,41.6-11.6l4.3-92.9c-17,4.9-34.5,9.5-52.4,13.8
		C990.5,752.7,992.6,782.7,995,816.7z"/>
	<path fill="#945465" d="M899.8,799.9c-0.8,31.7,31.2,32.5,40.9,13.8c3.6-29.2,6.9-55.3,9.9-79c-16.5,3.5-33.2,6.9-50.4,9.9
		L899.8,799.9z"/>
	<path fill="#945465" d="M858.9,1652.9l80.6-579.5c-0.3,0-0.7,0.1-1,0c-118.8-15.8-92-160.8-92-160.8l23.5-163
		c-93.7,14.6-197.5,22-310.8,19.8c-2.8-0.1-5.5-0.2-8-0.3c-1.2,0-2.4-0.1-3.5-0.2c-2.5-0.1-4.8-0.2-7-0.3c-0.7,0-1.4-0.1-2-0.1
		c-2.4-0.1-4.7-0.3-6.8-0.5c-0.9-0.1-1.7-0.2-2.6-0.2c-1.5-0.1-3-0.3-4.4-0.5c-0.7-0.1-1.5-0.2-2.2-0.3c-1.8-0.3-3.5-0.6-5.2-0.9
		c-0.8-0.2-1.6-0.4-2.3-0.6c-1.1-0.3-2.1-0.6-3.2-0.9c-0.7-0.2-1.4-0.4-2.1-0.7c-1.5-0.5-2.9-1.1-4.3-1.8c-0.7-0.3-1.4-0.7-2.1-1.1
		c-0.9-0.5-1.7-1-2.6-1.5c-0.7-0.4-1.4-0.9-2.1-1.3c-0.5-0.4-1-0.8-1.5-1.1c-31.7-17.2-49.6-54.7-55-65.5
		c-3.5,3.5,3.5-60.2,3.5-60.2l-49.5-70.7l1.4-3.1l-1.1-1.6l11.7-22.3l27-61.5L421,444.3l8-25.2l57.7-22.2l12.6-6.9
		c0,0,147.2,12.4,325.6-26l-355-63.6c0,0-121.6-22.1-188,33.2C138.1,433,210,637.6,210,637.6l165.9,961.9
		c16.6,55.3,93.5,88.4,93.5,88.4s361,54,602,86.8c-94.8-12.9-208-29-310.6-43.9C841.8,1734.1,858.9,1652.9,858.9,1652.9z"/>
	<path fill="#B86645" d="M1426.2,271.2c1,1.3,2,2.7,2.9,4C1428.2,273.8,1427.2,272.5,1426.2,271.2z"/>
	<path fill="#B86645" d="M1418,261.3c0.8,0.8,1.4,1.7,2.2,2.5C1419.4,263,1418.7,262.1,1418,261.3z"/>
	<path fill="#B86645" d="M1405.3,249c1.3,1.2,2.6,2.3,3.9,3.5C1408,251.3,1406.6,250.2,1405.3,249z"/>
	<path fill="#B86645" d="M1433.7,281.7c0.9,1.4,1.8,2.9,2.7,4.3C1435.6,284.6,1434.6,283.2,1433.7,281.7z"/>
	<path fill="#B86645" d="M1341.5,212.8c2.1,0.7,4.2,1.4,6.3,2.1C1345.7,214.2,1343.6,213.5,1341.5,212.8z"/>
	<path fill="#B86645" d="M1372.1,225.8c1.7,0.9,3.2,1.9,4.8,2.8C1375.3,227.7,1373.8,226.7,1372.1,225.8z"/>
	<path fill="#B86645" d="M1355.2,217.9c1.8,0.7,3.6,1.4,5.4,2.2C1358.9,219.4,1357,218.7,1355.2,217.9z"/>
	<path fill="#B86645" d="M1394.7,240.3c1.6,1.2,3.1,2.4,4.6,3.6C1397.9,242.7,1396.3,241.5,1394.7,240.3z"/>
	<path fill="#B86645" d="M1440.5,293.1c0.7,1.4,1.5,2.7,2.2,4.2C1442,295.9,1441.2,294.5,1440.5,293.1z"/>
	<path fill="#B86645" d="M1383.7,232.7c1.7,1.1,3.3,2.2,5,3.3C1387.1,234.9,1385.4,233.8,1383.7,232.7z"/>
	<path fill="#B86645" d="M1447,306.6c0.3,0.8,0.7,1.5,1,2.3C1447.7,308.1,1447.3,307.3,1447,306.6z"/>
	<path fill="#B86645" d="M1454.8,406c-0.4,1.6-0.8,3.3-1.2,4.9C1454.1,409.3,1454.5,407.6,1454.8,406z"/>
	<path fill="#B86645" d="M1457.5,391.8c-0.2,1.5-0.5,3.1-0.8,4.6C1457,394.9,1457.3,393.4,1457.5,391.8z"/>
	<path fill="#B86645" d="M1450.8,420.8c-0.5,1.5-0.9,2.9-1.4,4.4C1449.9,423.7,1450.3,422.3,1450.8,420.8z"/>
	<path fill="#B86645" d="M1459,378c-0.1,0.9-0.2,1.8-0.3,2.7C1458.8,379.8,1458.9,378.9,1459,378z"/>
	<path fill="#B86645" d="M1455.5,333.4c0.3,1.5,0.6,3,0.9,4.6C1456.1,336.5,1455.9,334.9,1455.5,333.4z"/>
	<path fill="#B86645" d="M1452.2,320.8c0.4,1.2,0.7,2.5,1.1,3.8C1452.9,323.3,1452.6,322.1,1452.2,320.8z"/>
	<path fill="#B86645" d="M1457.8,346.6c0.2,1.5,0.4,3,0.6,4.6C1458.2,349.6,1458,348.1,1457.8,346.6z"/>
	<path fill="#B86645" d="M1459.1,361c0,1.2,0.2,2.3,0.2,3.5C1459.2,363.3,1459.1,362.2,1459.1,361z"/>
	<path fill="#B86645" d="M1293.7,203.3c3.4,0.3,6.7,0.6,10,1C1300.4,203.9,1297.1,203.6,1293.7,203.3z"/>
	<path fill="#B86645" d="M1276.8,202.5c2.5,0,4.9,0,7.4,0.1C1281.8,202.5,1279.3,202.5,1276.8,202.5z"/>
	<path fill="#B86645" d="M1260.6,202.9c2.6-0.2,5.2-0.3,7.8-0.3C1265.8,202.6,1263.2,202.8,1260.6,202.9z"/>
	<path fill="#B86645" d="M1327.6,208.8c2.3,0.6,4.5,1.2,6.7,1.8C1332.1,210,1329.8,209.4,1327.6,208.8z"/>
	<path fill="#B86645" d="M1313.3,205.7c2.3,0.4,4.5,0.9,6.8,1.4C1317.8,206.6,1315.5,206.1,1313.3,205.7z"/>
	<path fill="#B86645" d="M1227.4,207c2.4-0.4,4.7-0.7,7-1.1C1232.1,206.2,1229.8,206.5,1227.4,207z"/>
	<path fill="#B86645" d="M1244.2,204.4c2.6-0.3,5.2-0.6,7.8-0.8C1249.4,203.8,1246.8,204.1,1244.2,204.4z"/>
	<path fill="#B86645" d="M517.3,766c-0.8-0.2-1.6-0.4-2.3-0.6C515.7,765.7,516.5,765.9,517.3,766z"/>
	<polygon fill="#B86645" points="396.4,555.9 397.5,557.5 408.1,533.6 	"/>
	<path fill="#B86645" d="M505.4,762.1c-0.7-0.3-1.4-0.7-2.1-1.1C504,761.4,504.7,761.8,505.4,762.1z"/>
	<path fill="#B86645" d="M524.7,767.2c-0.7-0.1-1.5-0.2-2.2-0.3C523.2,767.1,524,767.2,524.7,767.2z"/>
	<path fill="#B86645" d="M511.8,764.6c-0.7-0.2-1.4-0.4-2.1-0.7C510.4,764.1,511.1,764.4,511.8,764.6z"/>
	<path fill="#B86645" d="M500.7,759.5c-0.7-0.4-1.4-0.9-2.1-1.3C499.3,758.7,500.1,759.1,500.7,759.5z"/>
	<path fill="#B86645" d="M499.2,389.9l-12.6,6.9l12.9-6L571,458v67.2l27.6,38.9l-2.1,38.9L583,624.3l0.7,1.1l3-3.3
		c4,0,514.9,9.3,719.2-241.5c72.5-95.4,16.3-185.3-78.5-173.6c-36.8,7-76.1,22.2-116.5,47.6c-93,56-193.7,89.5-286,109.4
		C646.5,402.3,499.2,389.9,499.2,389.9z"/>
	<path fill="#B86645" d="M531.7,768c-0.9-0.1-1.7-0.2-2.6-0.2C530,767.8,530.8,767.9,531.7,768z"/>
	<path fill="#B86645" d="M540.6,768.6c-0.7,0-1.4-0.1-2-0.1C539.2,768.5,539.9,768.5,540.6,768.6z"/>
	<path fill="#B86645" d="M551.1,769.1c-1.2-0.1-2.3-0.1-3.5-0.2C548.7,769,549.9,769,551.1,769.1z"/>
	<path opacity="0.23" fill="#662E1A" d="M1449.4,425.2c-1.6,4.7-3.4,9.5-5.5,14.2C1446,434.7,1447.8,429.9,1449.4,425.2z"/>
	<path opacity="0.23" fill="#662E1A" d="M1442.7,297.3c1.5,3.1,2.9,6.2,4.3,9.3C1445.6,303.4,1444.2,300.3,1442.7,297.3z"/>
	<path opacity="0.23" fill="#662E1A" d="M1448,308.9c1.6,3.9,3,7.9,4.2,12C1451,316.8,1449.6,312.8,1448,308.9z"/>
	<path opacity="0.23" fill="#662E1A" d="M1234.5,205.8c3.3-0.5,6.5-1.1,9.7-1.5C1241,204.8,1237.7,205.3,1234.5,205.8z"/>
	<path opacity="0.23" fill="#662E1A" d="M1284.2,202.6c3.2,0.1,6.3,0.4,9.5,0.7C1290.6,203,1287.4,202.8,1284.2,202.6z"/>
	<path opacity="0.23" fill="#662E1A" d="M1453.6,410.9c-0.8,3.3-1.8,6.6-2.9,9.9C1451.8,417.5,1452.8,414.2,1453.6,410.9z"/>
	<path opacity="0.23" fill="#662E1A" d="M1436.4,286.1c1.4,2.3,2.7,4.7,4,7C1439.2,290.7,1437.8,288.4,1436.4,286.1z"/>
	<path opacity="0.23" fill="#662E1A" d="M1429.2,275.2c1.6,2.1,3.1,4.3,4.5,6.5C1432.3,279.5,1430.7,277.3,1429.2,275.2z"/>
	<path opacity="0.23" fill="#662E1A" d="M1227.4,207C1227.4,207,1227.4,207,1227.4,207C1227.4,207,1227.4,207,1227.4,207
		C1227.4,207,1227.4,207,1227.4,207z"/>
	<path opacity="0.23" fill="#662E1A" d="M1268.4,202.6c2.8-0.1,5.6-0.1,8.4,0C1274,202.5,1271.2,202.5,1268.4,202.6z"/>
	<path opacity="0.23" fill="#662E1A" d="M1458.4,351.2c0.3,3.3,0.5,6.6,0.7,9.9C1458.9,357.7,1458.7,354.4,1458.4,351.2z"/>
	<path opacity="0.23" fill="#662E1A" d="M1456.4,338c0.5,2.8,1,5.7,1.4,8.6C1457.4,343.7,1457,340.8,1456.4,338z"/>
	<path opacity="0.23" fill="#662E1A" d="M1252,203.6c2.9-0.3,5.8-0.5,8.6-0.7C1257.8,203.1,1254.9,203.3,1252,203.6z"/>
	<path opacity="0.23" fill="#662E1A" d="M1459.3,364.5c0.1,4.5,0,9-0.3,13.6C1459.3,373.5,1459.4,369,1459.3,364.5z"/>
	<path opacity="0.23" fill="#662E1A" d="M1458.7,380.7c-0.3,3.7-0.7,7.4-1.2,11.1C1458.1,388.1,1458.4,384.4,1458.7,380.7z"/>
	<path opacity="0.23" fill="#662E1A" d="M1453.3,324.6c0.8,2.9,1.6,5.8,2.3,8.8C1454.9,330.4,1454.1,327.5,1453.3,324.6z"/>
	<path opacity="0.23" fill="#662E1A" d="M1320,207.1c2.5,0.5,5.1,1.1,7.6,1.7C1325.1,208.2,1322.6,207.6,1320,207.1z"/>
	<path opacity="0.23" fill="#662E1A" d="M1456.7,396.5c-0.5,3.2-1.2,6.3-1.9,9.5C1455.6,402.8,1456.2,399.6,1456.7,396.5z"/>
	<path opacity="0.23" fill="#662E1A" d="M1334.3,210.6c2.4,0.7,4.8,1.4,7.2,2.2C1339.1,212,1336.7,211.3,1334.3,210.6z"/>
	<path opacity="0.23" fill="#662E1A" d="M1303.7,204.3c3.2,0.4,6.4,0.8,9.6,1.4C1310.1,205.2,1306.9,204.8,1303.7,204.3z"/>
	<path opacity="0.23" fill="#662E1A" d="M1377,228.6c2.3,1.3,4.6,2.7,6.8,4.1C1381.5,231.3,1379.2,229.9,1377,228.6z"/>
	<path opacity="0.23" fill="#662E1A" d="M1360.6,220.1c3.9,1.8,7.8,3.7,11.5,5.7C1368.4,223.8,1364.5,221.9,1360.6,220.1z"/>
	<path opacity="0.23" fill="#662E1A" d="M1420.1,263.8c2.1,2.4,4.2,4.8,6.1,7.3C1424.3,268.7,1422.2,266.2,1420.1,263.8z"/>
	<path opacity="0.23" fill="#662E1A" d="M1347.8,215c2.5,0.9,5,1.9,7.5,3C1352.8,216.9,1350.3,215.9,1347.8,215z"/>
	<path opacity="0.23" fill="#662E1A" d="M1399.4,243.9c2,1.6,4,3.3,5.9,5.1C1403.4,247.3,1401.4,245.6,1399.4,243.9z"/>
	<path opacity="0.23" fill="#662E1A" d="M1409.2,252.5c3,2.9,6,5.8,8.7,8.8C1415.2,258.3,1412.2,255.3,1409.2,252.5z"/>
	<path opacity="0.23" fill="#662E1A" d="M1388.7,236c2,1.4,4.1,2.8,6,4.3C1392.8,238.9,1390.8,237.4,1388.7,236z"/>
	<path fill="#945465" d="M547.6,768.9c-2.5-0.1-4.8-0.2-7-0.3C542.8,768.7,545.1,768.8,547.6,768.9z"/>
	<path opacity="0.23" fill="#662E1A" d="M547.6,768.9c-2.5-0.1-4.8-0.2-7-0.3C542.8,768.7,545.1,768.8,547.6,768.9z"/>
	<path fill="#945465" d="M515,765.5c-1.1-0.3-2.1-0.6-3.2-0.9C512.8,764.9,513.9,765.2,515,765.5z"/>
	<path opacity="0.23" fill="#662E1A" d="M515,765.5c-1.1-0.3-2.1-0.6-3.2-0.9C512.8,764.9,513.9,765.2,515,765.5z"/>
	<path fill="#945465" d="M509.7,763.9c-1.5-0.5-2.9-1.1-4.3-1.8C506.8,762.8,508.2,763.4,509.7,763.9z"/>
	<path opacity="0.23" fill="#662E1A" d="M509.7,763.9c-1.5-0.5-2.9-1.1-4.3-1.8C506.8,762.8,508.2,763.4,509.7,763.9z"/>
	<path fill="#945465" d="M538.5,768.5c-2.4-0.1-4.6-0.3-6.8-0.5C533.9,768.2,536.1,768.3,538.5,768.5z"/>
	<path opacity="0.23" fill="#662E1A" d="M538.5,768.5c-2.4-0.1-4.6-0.3-6.8-0.5C533.9,768.2,536.1,768.3,538.5,768.5z"/>
	<path fill="#945465" d="M529.1,767.7c-1.5-0.1-3-0.3-4.4-0.5C526.1,767.4,527.6,767.6,529.1,767.7z"/>
	<path opacity="0.23" fill="#662E1A" d="M529.1,767.7c-1.5-0.1-3-0.3-4.4-0.5C526.1,767.4,527.6,767.6,529.1,767.7z"/>
	<path fill="#945465" d="M559.1,769.4c-2.9-0.1-5.4-0.2-8-0.3C553.6,769.2,556.3,769.3,559.1,769.4z"/>
	<path opacity="0.23" fill="#662E1A" d="M559.1,769.4c-2.9-0.1-5.4-0.2-8-0.3C553.6,769.2,556.3,769.3,559.1,769.4z"/>
	<path fill="#945465" d="M503.3,761c-0.9-0.5-1.7-1-2.6-1.5C501.6,760.1,502.4,760.6,503.3,761z"/>
	<path opacity="0.23" fill="#662E1A" d="M503.3,761c-0.9-0.5-1.7-1-2.6-1.5C501.6,760.1,502.4,760.6,503.3,761z"/>
	<path fill="#945465" d="M522.5,767c-1.8-0.3-3.5-0.6-5.2-0.9C519,766.4,520.7,766.7,522.5,767z"/>
	<path opacity="0.23" fill="#662E1A" d="M522.5,767c-1.8-0.3-3.5-0.6-5.2-0.9C519,766.4,520.7,766.7,522.5,767z"/>
	<path fill="#945465" d="M497.1,757.1c0.5,0.4,1,0.8,1.5,1.1C498.2,757.9,497.7,757.5,497.1,757.1
		C497.2,757.1,497.2,757.1,497.1,757.1z"/>
	<path opacity="0.23" fill="#662E1A" d="M497.1,757.1c0.5,0.4,1,0.8,1.5,1.1C498.2,757.9,497.7,757.5,497.1,757.1
		C497.2,757.1,497.2,757.1,497.1,757.1z"/>
	<path fill="#B86645" d="M1305.9,378.1c-204.3,250.8-715.2,242.7-719.1,242.7l-2.8,3.9l14.7,48.7l-16.8,18v38.9
		c0,0,2.6,35.4-50.4,35.4c-12.5,0-24.1-3.4-33.9-8.7c0.5,0.4,0.7,0.8,1.2,1.1c0.7,0.5,1.3,0.9,2,1.3c0.8,0.5,1.6,1,2.5,1.5
		c0.7,0.4,1.4,0.8,2.1,1.1c1.4,0.7,2.8,1.3,4.2,1.8c0.7,0.2,1.4,0.5,2.1,0.7c1,0.3,2.1,0.6,3.2,0.9c0.8,0.2,1.5,0.4,2.3,0.6
		c1.7,0.4,3.4,0.7,5.2,0.9c0.7,0.1,1.5,0.2,2.2,0.3c1.4,0.2,2.9,0.4,4.4,0.5c0.8,0.1,1.7,0.2,2.6,0.2c2.2,0.2,4.4,0.3,6.8,0.5
		c0.6,0,1.4,0.1,2,0.1c2.3,0.1,4.6,0.2,7,0.3c1.1,0.1,2.3,0.1,3.5,0.2c2.6,0.1,5.2,0.2,8,0.3c113.4,2.2,217.1-5.8,310.8-20.4
		l13.6-95h17.2l-0.6,90c17.2-3,34-6.7,50.4-10.2C954.5,703,958,677,961,654H983c1.6,23,3.4,44.3,5.5,71.5
		c17.9-4.4,35.5-9.2,52.4-14.1l2.7-57.3h15.7l4.7,50.7c183.7-57.1,307.8-144.5,362.9-233.2c6.7-10.8,12.4-21.4,17.1-32.2
		c2-4.7,3.8-9.4,5.5-14.1c0.5-1.5,0.9-2.9,1.4-4.4c1-3.3,2-6.6,2.9-9.8c0.4-1.7,0.8-3.3,1.2-4.9c0.7-3.2,1.4-6.4,1.9-9.5
		c0.3-1.5,0.6-3.1,0.8-4.6c0.5-3.7,0.9-7.4,1.2-11.1c0.1-0.9,0.2-1.8,0.3-2.7c0.3-4.6,0.4-9.1,0.3-13.6c0-1.2-0.1-2.3-0.2-3.5
		c-0.1-3.3-0.3-6.6-0.7-9.9c-0.2-1.5-0.4-3-0.6-4.6c-0.4-2.9-0.8-5.8-1.4-8.6c-0.3-1.5-0.6-3.1-0.9-4.6c-0.7-3-1.4-5.9-2.3-8.8
		c-0.4-1.3-0.7-2.5-1.1-3.8c-1.3-4.1-2.7-8.1-4.2-12c-0.3-0.8-0.7-1.5-1-2.3c-1.3-3.1-2.7-6.3-4.3-9.3c-0.7-1.4-1.5-2.8-2.2-4.2
		c-1.3-2.4-2.6-4.7-4-7c-0.9-1.5-1.8-2.9-2.7-4.3c-1.5-2.2-3-4.4-4.5-6.5c-1-1.3-1.9-2.7-2.9-4c-1.9-2.5-4-4.9-6.1-7.3
		c-0.7-0.8-1.4-1.7-2.2-2.5c-2.8-3-5.7-6-8.7-8.8c-1.3-1.2-2.6-2.3-3.9-3.5c-1.9-1.7-3.9-3.4-5.9-5.1c-1.5-1.2-3.1-2.4-4.6-3.6
		c-2-1.5-4-2.9-6-4.3c-1.6-1.1-3.3-2.3-5-3.3c-2.2-1.4-4.5-2.7-6.8-4.1c-1.6-0.9-3.2-1.9-4.8-2.8c-3.7-2-7.6-3.9-11.5-5.7
		c-1.8-0.8-3.6-1.5-5.4-2.2c-2.5-1-4.9-2-7.5-3c-2.1-0.8-4.2-1.4-6.3-2.1c-2.4-0.8-4.8-1.5-7.2-2.2c-2.2-0.6-4.4-1.2-6.7-1.8
		c-2.5-0.6-5-1.2-7.6-1.7c-2.2-0.5-4.5-1-6.8-1.4c-3.2-0.6-6.4-1-9.6-1.4c-3.3-0.4-6.6-0.8-10-1c-3.1-0.3-6.3-0.5-9.5-0.7
		c-2.4-0.1-4.9-0.1-7.4-0.1c-2.8,0-5.6,0-8.4,0c-2.6,0.1-5.2,0.2-7.8,0.3c-2.9,0.2-5.7,0.4-8.6,0.7c-2.6,0.2-5.2,0.5-7.8,0.8
		c-3.2,0.4-6.5-1.6-9.7-1c-2.3,0.4-4.7-1.4-7-1.4c0,0,0,0,0,0C1322.2,191,1378.4,282.7,1305.9,378.1z"/>
	<path opacity="0.23" fill="#662E1A" d="M1305.9,378.1c-204.3,250.8-715.2,242.7-719.1,242.7l-2.8,3.9l14.7,48.7l-16.8,18v38.9
		c0,0,2.6,35.4-50.4,35.4c-12.5,0-24.1-3.4-33.9-8.7c0.5,0.4,0.7,0.8,1.2,1.1c0.7,0.5,1.3,0.9,2,1.3c0.8,0.5,1.6,1,2.5,1.5
		c0.7,0.4,1.4,0.8,2.1,1.1c1.4,0.7,2.8,1.3,4.2,1.8c0.7,0.2,1.4,0.5,2.1,0.7c1,0.3,2.1,0.6,3.2,0.9c0.8,0.2,1.5,0.4,2.3,0.6
		c1.7,0.4,3.4,0.7,5.2,0.9c0.7,0.1,1.5,0.2,2.2,0.3c1.4,0.2,2.9,0.4,4.4,0.5c0.8,0.1,1.7,0.2,2.6,0.2c2.2,0.2,4.4,0.3,6.8,0.5
		c0.6,0,1.4,0.1,2,0.1c2.3,0.1,4.6,0.2,7,0.3c1.1,0.1,2.3,0.1,3.5,0.2c2.6,0.1,5.2,0.2,8,0.3c113.4,2.2,217.1-5.8,310.8-20.4
		l13.6-95h17.2l-0.6,90c17.2-3,34-6.7,50.4-10.2C954.5,703,958,677,961,654H983c1.6,23,3.4,44.3,5.5,71.5
		c17.9-4.4,35.5-9.2,52.4-14.1l2.7-57.3h15.7l4.7,50.7c183.7-57.1,307.8-144.5,362.9-233.2c6.7-10.8,12.4-21.4,17.1-32.2
		c2-4.7,3.8-9.4,5.5-14.1c0.5-1.5,0.9-2.9,1.4-4.4c1-3.3,2-6.6,2.9-9.8c0.4-1.7,0.8-3.3,1.2-4.9c0.7-3.2,1.4-6.4,1.9-9.5
		c0.3-1.5,0.6-3.1,0.8-4.6c0.5-3.7,0.9-7.4,1.2-11.1c0.1-0.9,0.2-1.8,0.3-2.7c0.3-4.6,0.4-9.1,0.3-13.6c0-1.2-0.1-2.3-0.2-3.5
		c-0.1-3.3-0.3-6.6-0.7-9.9c-0.2-1.5-0.4-3-0.6-4.6c-0.4-2.9-0.8-5.8-1.4-8.6c-0.3-1.5-0.6-3.1-0.9-4.6c-0.7-3-1.4-5.9-2.3-8.8
		c-0.4-1.3-0.7-2.5-1.1-3.8c-1.3-4.1-2.7-8.1-4.2-12c-0.3-0.8-0.7-1.5-1-2.3c-1.3-3.1-2.7-6.3-4.3-9.3c-0.7-1.4-1.5-2.8-2.2-4.2
		c-1.3-2.4-2.6-4.7-4-7c-0.9-1.5-1.8-2.9-2.7-4.3c-1.5-2.2-3-4.4-4.5-6.5c-1-1.3-1.9-2.7-2.9-4c-1.9-2.5-4-4.9-6.1-7.3
		c-0.7-0.8-1.4-1.7-2.2-2.5c-2.8-3-5.7-6-8.7-8.8c-1.3-1.2-2.6-2.3-3.9-3.5c-1.9-1.7-3.9-3.4-5.9-5.1c-1.5-1.2-3.1-2.4-4.6-3.6
		c-2-1.5-4-2.9-6-4.3c-1.6-1.1-3.3-2.3-5-3.3c-2.2-1.4-4.5-2.7-6.8-4.1c-1.6-0.9-3.2-1.9-4.8-2.8c-3.7-2-7.6-3.9-11.5-5.7
		c-1.8-0.8-3.6-1.5-5.4-2.2c-2.5-1-4.9-2-7.5-3c-2.1-0.8-4.2-1.4-6.3-2.1c-2.4-0.8-4.8-1.5-7.2-2.2c-2.2-0.6-4.4-1.2-6.7-1.8
		c-2.5-0.6-5-1.2-7.6-1.7c-2.2-0.5-4.5-1-6.8-1.4c-3.2-0.6-6.4-1-9.6-1.4c-3.3-0.4-6.6-0.8-10-1c-3.1-0.3-6.3-0.5-9.5-0.7
		c-2.4-0.1-4.9-0.1-7.4-0.1c-2.8,0-5.6,0-8.4,0c-2.6,0.1-5.2,0.2-7.8,0.3c-2.9,0.2-5.7,0.4-8.6,0.7c-2.6,0.2-5.2,0.5-7.8,0.8
		c-3.2,0.4-6.5-1.6-9.7-1c-2.3,0.4-4.7-1.4-7-1.4c0,0,0,0,0,0C1322.2,191,1378.4,282.7,1305.9,378.1z"/>
	<path fill="#E7BEAE" d="M531.6,765.8c53.1,0,50.4-35.4,50.4-35.4v-38.9l16.8-17.7l-14.3-48.4l-0.5-1.1l14-21.2l0.7-38.9L571,525.2
		V458l-71.5-67.2l-14.3,6l-57,22.2l-7.6,25.2l14.3,27.8l-27,61.5l-10.5,23.9l-1.4,3.1l49.6,70.7c0,0-7.1,63.7-3.5,60.2
		c5.4,10.8,23.2,48.3,55,65.5c0,0,0.5,0,0.5,0C507.5,762.4,519,765.8,531.6,765.8z M471.4,454.9l-10.6-6.6l9.3-5.3l5.3,8
		L471.4,454.9z M475.4,600.9l-5.3-4l4-6.6L475.4,600.9z M470,492.1v6.6l-11.9,8l-11.3-4l8.9-19.9L470,492.1z M455.5,542.5l6.6,8
		l-5.3,2.6l-7.9-1.3L455.5,542.5z M479.3,474.4l9.3-2.5l4,5l-5.3,5h-4L479.3,474.4z M544.3,476.1l4,4l-2.7,6.6l-6.6-2.6L544.3,476.1
		z M541.7,530.5l10.6,7.9l-2.7,6.6l-11.9-5.3L541.7,530.5z M531,626.1l-11.9,5.3l-10.6-7.9l5.3-10.6l10.6,1.3l6.6,4V626.1z
		 M501.9,433.7l18.6,6.6l-8,11.9l-14.6-4L501.9,433.7z M513.8,502.7l11.9,14.6l-15.9,15.9l-14.6-23.9L513.8,502.7z M493.9,421.7
		l-5.3,6.6l-4-9.3c0,0,0-4,4-2.6C492.6,417.8,493.9,421.7,493.9,421.7z M444.8,436.3l-6.6-1.3l4-6.6L444.8,436.3z M434.2,571.7
		l-5.3-2.6l4-6.6L434.2,571.7z"/>
	<polygon fill="#D59980" points="446.2,502.7 458.1,506.6 470,498.7 470,492.1 455.4,482.8 	"/>
	<polygon fill="#D59980" points="520.5,440.3 501.9,433.7 497.9,448.3 512.5,452.2 	"/>
	<polygon fill="#D59980" points="525.8,517.3 513.8,502.7 495.3,509.3 509.8,533.2 	"/>
	<polygon fill="#D59980" points="462.1,550.4 455.5,542.5 448.8,551.8 456.8,553.1 	"/>
	<polygon fill="#D59980" points="470,443 460.8,448.3 471.4,454.9 475.4,450.9 	"/>
	<polygon fill="#D59980" points="513.8,612.8 508.5,623.4 519.1,631.4 531,626.1 531,618.1 524.4,614.1 	"/>
	<polygon fill="#D59980" points="552.3,538.5 541.7,530.5 537.7,539.8 549.6,545.1 	"/>
	<polygon fill="#D59980" points="548.3,480.1 544.3,476.1 539,484.1 545.7,486.7 	"/>
	<polygon fill="#D59980" points="492.6,477.1 488.6,472 479.3,474.3 483.3,482 487.3,482 	"/>
	<polygon fill="#D59980" points="444.8,436.3 442.2,428.4 438.2,435 	"/>
	<path fill="#D59980" d="M484.6,419.1l4,9.3l5.3-6.6c0,0-1.3-4-5.3-5.3C484.6,415.1,484.6,419.1,484.6,419.1z"/>
	<polygon fill="#D59980" points="475.4,600.9 474,590.2 470,596.9 	"/>
	<polygon fill="#D59980" points="434.2,571.7 432.9,562.4 428.9,569 	"/>
	<path fill="#D9CAD7" d="M995.6,1662.4l-27.4-589.9c4.6,1.8,10.5,3.6,15.3,3.8c119.5-9.5,100.4-155.8,100.4-155.8l-20-215.8
		l-4.7-50.7h-15.7l-2.7,57.6l-4.3,93.2c-0.8,31.7-32.9,31-41.6,11.7c-2.4-34-4.6-64.6-6.5-91.2c-2-27.2-3.9-48.4-5.5-71.4H961
		c-3,23-6.4,49.3-10.3,80.1c-3,23.6-6.3,50.1-9.9,79.3c-9.7,18.8-41.7,18.1-40.9-13.6l0.4-55.8l0.6-89.9h-17.2l-13.6,95l-23.5,163.3
		c0,0-26.8,145.2,92,161c0.3,0,0.7,0,1,0l-80.6,579.5c0,0-17.1,81.3-98.2,77.9c102.6,14.9,215.9,31.1,310.6,44
		c0.6,0.1,1.3,0.3,2,0.3c0,0,0,0,0,0C1072.1,1775,1003.1,1752.9,995.6,1662.4z"/>
</g>
</svg>
