<?xml version="1.0" encoding="utf-8"?>
<!-- Generator: Adobe Illustrator 18.1.0, SVG Export Plug-In . SVG Version: 6.00 Build 0)  -->
<svg version="1.1" id="Layer_1" xmlns="http://www.w3.org/2000/svg" xmlns:xlink="http://www.w3.org/1999/xlink" x="0px" y="0px"
	 viewBox="0 0 150 150" enable-background="new 0 0 150 150" xml:space="preserve">
<g>
	<polygon fill="none" points="95.7,115.5 95.7,115.5 95.7,115.5 	"/>
	<path fill="none" d="M72.6,50C72.6,50,72.6,50,72.6,50C72.6,50,72.6,50,72.6,50z"/>
	<path fill="none" d="M102.5,96.7c0.1-0.1,0.1-0.1,0.2-0.1c0.1-0.4,0.1-0.7,0.2-1c-0.1,0.2-0.1,0.4-0.2,0.6
		C102.6,96.4,102.5,96.6,102.5,96.7z"/>
	<path fill="none" d="M56.6,115.5C56.6,115.5,56.6,115.5,56.6,115.5l0.7,0C57.1,115.5,56.8,115.5,56.6,115.5z"/>
	<path fill="none" d="M31.1,78.9c0,0.1,0,0.3,0,0.4c0,0,0,0,0,0c0,0,0-0.1,0-0.1C31.1,79.1,31.1,79,31.1,78.9z"/>
	<path fill="none" d="M39.9,54.4c0.4-3,1.1-5.6,3.1-7.7c0,0,0,0,0,0c0,0,0,0,0,0c0.3-0.4,0.6-0.7,0.9-1.1c0,0,0-0.1,0.1-0.1
		c-0.1-0.2-0.1-0.4-0.2-0.6c0.1,0.2,0.1,0.5,0.2,0.6c0,0-0.1,0.1-0.1,0.1c-0.3,0.4-0.5,0.7-0.8,1.1c0,0,0,0,0,0c0,0,0,0,0,0
		c-2,2.1-2.7,4.5-3.1,7.5c-0.5,4,0,9.6,1,15.2C40,63.7,39.5,58.3,39.9,54.4z"/>
	<path fill="none" d="M102.8,111.1C102.8,111.1,102.8,111.1,102.8,111.1C102.8,111.1,102.7,111.1,102.8,111.1L102.8,111.1z"/>
	<path fill="none" d="M57.1,48.3C57.2,48.3,57.2,48.3,57.1,48.3C57.2,48.3,57.2,48.3,57.1,48.3z"/>
	<path fill="none" d="M47.8,95.7c0.1,0.2,0.1,0.5,0.2,1c0.1,0,0.1,0,0.2,0.1c-0.1-0.2-0.1-0.3-0.2-0.5C47.9,96,47.9,95.8,47.8,95.7z
		"/>
	<path fill="none" d="M45.5,47.9C45.5,47.9,45.5,47.9,45.5,47.9C45.5,47.9,45.5,47.9,45.5,47.9C45.5,47.9,45.5,47.9,45.5,47.9z"/>
	<path fill="none" d="M44.8,86.3c0-0.1,0-0.2-0.1-0.2c0,0.1,0,0.3,0.1,0.4c0.3,1.5,0.6,1.5,0.9,2.9c0,0,0,0,0,0c0-0.1,0-0.1,0-0.2
		C45.4,88.3,45.1,87.3,44.8,86.3z"/>
	<path fill="none" d="M42.1,75.5c0.1,0.9,0.1,0.9,0.2,0.9c0.1,0.7,0.2,1.1,0.4,1.5c-0.1-0.5-0.2-1-0.4-1.5
		C42.2,76,42.1,75.7,42.1,75.5z"/>
	<path fill="none" d="M34.8,93.5c0.1,0.2,0.2,0.5,0.3,0.7c0.2,0.4,0.4,0.9,0.6,1.3c-0.2-0.5-0.4-0.9-0.6-1.8
		C35,93.7,34.9,93.6,34.8,93.5z"/>
	<path fill="none" d="M47,93.4c-0.1-0.3-0.2-0.7-0.3-1C46.8,92.8,46.9,93.1,47,93.4z"/>
	<path fill="none" d="M33.2,89.4c0.2,0.6,0.4,1.2,0.6,1.8c0.1,0.3,0.3,0.6,0.4,0.9c-0.1-0.4-0.3-0.9-0.4-1.3
		C33.6,90.8,33.4,89.6,33.2,89.4z"/>
	<path fill="none" d="M31.6,83.1c0.1,0.4,0.1,0.8,0.2,1.2c0.1,0.6,0.3,1.2,0.4,1.7c-0.1-1-0.3-1.2-0.4-2.4
		C31.7,83.6,31.7,83.4,31.6,83.1z"/>
	<path fill="none" d="M43.3,80.6c-0.1-0.4-0.2-0.8-0.3-1.3C43.1,80.2,43.2,80.5,43.3,80.6z"/>
	<path fill="none" d="M93.9,106.8C93.9,106.8,93.9,106.8,93.9,106.8c-0.6,0.2-1.2,0.4-1.8,0.6C92.7,107.2,93.4,107,93.9,106.8z"/>
	<path fill="none" d="M104,92.4c-0.1,0.3-0.2,0.7-0.3,1C103.8,93.1,103.9,92.8,104,92.4z"/>
	<path fill="none" d="M58.6,48.7c-0.3,0-0.6-0.1-0.9-0.2C58,48.6,58.3,48.7,58.6,48.7L58.6,48.7z"/>
	<path fill="none" d="M38.9,100.9C39,100.9,39,100.9,38.9,100.9l0.2,0.1C39.1,101,39,100.9,38.9,100.9z"/>
	<path fill="none" d="M31.2,80.6c0,0.2,0,0.4,0.1,0.6c0.1,0.4,0.1,0.8,0.2,1.2C31.4,81.9,31.4,81.3,31.2,80.6
		C31.3,80.7,31.3,80.7,31.2,80.6z"/>
	<path fill="none" d="M41.3,103.8C41.3,103.9,41.3,103.9,41.3,103.8l0.1,0C41.4,103.9,41.4,103.8,41.3,103.8z"/>
	<path fill="none" d="M107.7,79.3c-0.1,0.4-0.2,0.8-0.3,1.3C107.5,80.5,107.6,80.2,107.7,79.3z"/>
	<path fill="none" d="M30.9,75.3C30.9,75.3,30.9,75.3,30.9,75.3C30.9,75.3,30.9,75.3,30.9,75.3C30.9,75.3,30.9,75.3,30.9,75.3z"/>
	<path fill="none" d="M48.9,98.7c0.1,0.3,0.2,0.6,0.2,0.9c0.1,0,0.1,0.1,0.2,0.2c-0.1-0.2-0.1-0.3-0.2-0.5
		C49.1,99,49,98.8,48.9,98.7z"/>
	<path fill="none" d="M107.3,45.4C107.3,45.4,107.3,45.4,107.3,45.4C107.3,45.4,107.3,45.4,107.3,45.4c-0.1,0-0.1,0-0.2,0
		c-0.1,0-0.1,0-0.2,0c0.1,0,0.1,0,0.2,0C107.2,45.5,107.2,45.4,107.3,45.4z"/>
	<path fill="none" d="M109,45C109,45,109,45,109,45c1.2-0.8,1.3-2.5,2.6-3.6c1.4-1.2,4.5-1.8,4.5-1.8v0c0,0-3.1,0.6-4.5,1.8
		C110.3,42.5,110.2,44.2,109,45z"/>
	<path fill="none" d="M91.9,49c0.2,0,0.4,0,0.6-0.1c3-0.8,4.5-4.4,7.4-5c0.4-0.1,0.7-0.1,1.1-0.1c0.2,0,0.5,0,0.7,0.1
		c1,0.1,1.9,0.5,2.9,0.8c0.1,0,0.1,0,0.2,0.1c-1.2-0.4-2.5-0.9-3.7-1c-0.4,0-0.7,0-1.1,0.1c-2.9,0.6-4.4,4.2-7.4,5
		C92.3,49,92.1,49,91.9,49c-2.8,0-7.1-4-10.1-3.8c-0.2,0-0.4,0-0.6,0c0.2-0.1,0.4,0.1,0.6,0.1C84.8,45.1,89,49.1,91.9,49z"/>
	<path fill="none" d="M101.3,99.7c0.1-0.1,0.1-0.2,0.2-0.2c0.1-0.3,0.1-0.6,0.2-0.9c-0.1,0.2-0.2,0.4-0.2,0.6
		C101.5,99.4,101.4,99.6,101.3,99.7z"/>
	<path fill="none" d="M105,89.3c0,0.1,0,0.1,0,0.2c0,0,0,0,0,0c0.3-1.5,0.6-1.5,0.9-2.9c0-0.2,0-0.3,0.1-0.4c0,0.1,0,0.2-0.1,0.2
		C105.6,87.3,105.3,88.3,105,89.3z"/>
	<path fill="none" d="M120.6,75.3C120.6,75.3,120.6,75.3,120.6,75.3C120.6,75.3,120.6,75.3,120.6,75.3
		C120.6,75.3,120.6,75.3,120.6,75.3z"/>
	<path fill="none" d="M110.9,58.7c0-1.6,0-3.2-0.2-4.5c-0.3-2.5-1.1-4.5-2.3-6.3c1.1,1.9,2,4.1,2.3,6.5
		C110.9,55.7,111,57.1,110.9,58.7z"/>
	<path fill="none" d="M108.1,77.8c0.1-0.4,0.2-0.7,0.4-1.5c0.1,0,0.1,0,0.2-0.9c-0.1,0.3-0.1,0.6-0.2,0.8
		C108.3,76.8,108.2,77.3,108.1,77.8z"/>
	<path fill="none" d="M119.7,83.6c-0.1,1.3-0.3,1.4-0.4,2.4c0.1-0.6,0.3-1.1,0.4-1.7c0.1-0.4,0.1-0.8,0.2-1.2
		C119.9,83.4,119.8,83.6,119.7,83.6z"/>
	<path fill="none" d="M120.2,80.7c-0.1,0.6-0.1,1.3-0.2,1.8c0.1-0.4,0.1-0.8,0.2-1.2C120.3,81.1,120.3,80.8,120.2,80.7
		C120.3,80.7,120.2,80.7,120.2,80.7z"/>
	<path fill="none" d="M120.4,79.3C120.4,79.3,120.4,79.3,120.4,79.3c0-0.2,0-0.3,0-0.4c0,0.1,0,0.2,0,0.3
		C120.4,79.3,120.4,79.3,120.4,79.3z"/>
	<path fill="none" d="M73.8,50.2c-0.2,0-0.3,0-0.5,0c0,0,0,0,0,0c-0.2,0-0.4-0.1-0.6-0.1c0.4,0.1,0.8,0.1,1.3,0.1
		C74,50.2,73.9,50.2,73.8,50.2z"/>
	<path fill="#537134" d="M75.8,13.8c-34,0-61.5,27.5-61.5,61.5c0,34,27.5,61.5,61.5,61.5c34,0,61.5-27.5,61.5-61.5
		C137.3,41.3,109.7,13.8,75.8,13.8z M48.2,33.8c0-0.1,0.1-0.2,0.2-0.2c-1.6-1.9-2-5.9,0.1-8.3c0,0,0,0,0,0c0,0,0.1,0,0.1-0.1
		c0.2-0.3,0.5-0.5,0.8-0.7c2.6-1.8,13.7-2.7,26-2.7c0,0,0,0,0,0c0,0,0,0,0,0h0c7.7,0,14.9,0.3,19.9,1c3,0.4,5.1,1,6.1,1.6
		c0.3,0.2,0.5,0.4,0.7,0.6c0.1,0.1,0.1,0.1,0.2,0.2c0.2,0.2,0.4,0.5,0.6,0.7c0,0,0,0,0,0c0,0,0,0,0,0c1.4,2.4,0.9,5.7-0.5,7.5
		c0.1,0,0.2,0.1,0.2,0.2c0,0.1,0,0.5-0.1,0.6c3.5,0.7,9.4,0.7,13.5,5.7c0,0,0,0,0,0c0,0,1-0.2,1-0.1l0,0v-0.1c0,0-3.5,0.5-4.9,1.8
		c-1.3,1.1-1.4,2.7-2.6,3.5c7.2,8,11.6,18.3,11.6,29.9c0,0.2,0,0.3,0,0.4c0,0,0,0,0,0c0,0,0,0,0,0c0,1-0.2,1-0.2,1
		c0,1.3-0.2,1.5-0.2,2.6c0,0.1-0.1,0.3-0.1,0.4c0,0,0,0,0,0c0,0.9-0.1,1.2-0.2,1.3c0,0.2,0,0.4-0.1,0.6c-0.1,0.4-0.1,0.8-0.2,1.2
		c0,0.3-0.1,0.5-0.1,0.7c-0.1,0.4-0.1,0.8-0.2,1.2c-0.1,0.6-0.3,1.2-0.4,1.7c0,0.1,0,0.3-0.1,0.5c-0.1,0.8-0.3,1.2-0.5,1.6l0,0
		c-0.1,0.1-0.3,0.6-0.6,1.3c-0.2,0.4-0.4,0.9-0.6,1.5c-0.4,0.8-0.8,1.8-1.3,2.9c-0.4,0.9-0.9,1.9-1.5,2.9c-0.5,0.9-1.1,1.9-1.7,2.9
		c-0.3,0.5-0.6,1-0.9,1.5c-0.6,1-1.3,1.9-2.1,2.9c-0.7,1-1.5,1.9-2.4,2.9c-0.2,0.2-0.3,0.4-0.5,0.5c-0.3,0.2-0.6,0.5-0.8,0.9
		c-0.5,0.5-1,1-1.5,1.5c-0.1,0.1-0.2,0.2-0.2,0.2c-0.6,0.4-1.2,1.1-1.7,1.1c0,0,0,0,0,0h0.4c-1.2,1-2.5,2.1-3.9,3
		c-0.7,0.5-1.9,1-2.7,1.4c-0.4,0-0.6,0.2-1.6,0.2v0.4h1.9c-0.4,0-0.9,0.2-1.3,0.4c-2.8,1.1-6.7,2-9.4,3.1c-0.8,0.2-1.6,0.2-2.4,0.3
		c-1.9,0.3-3.9,0.4-6,0.4c-0.4,0-0.8,0-1.2,0l-0.7,0c-1.4-0.1-2.7-0.2-4.1-0.4c-5.8-0.7-10.9-2.3-15.1-4.4c0,0,0,0,0,0
		c-1-0.5-1.9-0.9-2.8-1.4c-1.6-0.9-3.2-1.9-4.5-2.9c-0.7-0.5-1.3-1-1.9-1.5c-1.2-1-2.3-1.9-3.3-2.9c-1-1-1.9-2-2.8-2.9c0,0,0,0,0,0
		c-0.9-1-1.6-2-2.3-2.9c0,0,0-0.1-0.1-0.1c-0.2-0.3-0.4-0.6-0.6-0.9c-0.1-0.1-0.1-0.2-0.2-0.3c-0.1-0.1-0.1-0.1-0.2-0.2
		c-0.8-1.2-1.4-2.2-1.8-2.9c-0.1-0.1-0.2-0.3-0.2-0.4c-0.1-0.3-0.2-0.5-0.2-0.7c-0.2-0.4-0.4-0.9-0.6-1.3c-0.1-0.2-0.2-0.5-0.3-0.7
		c-0.2-0.3-0.4-0.8-0.6-1.4c-0.1-0.3-0.3-0.6-0.4-0.9c-0.2-0.6-0.4-1.2-0.6-1.8c0,0,0,0-0.1,0c-0.3-1.5-0.6-1.5-0.9-2.9
		c0-0.2,0-0.3-0.1-0.5c-0.1-0.6-0.3-1.1-0.4-1.7c-0.1-0.4-0.1-0.8-0.2-1.2c0-0.2-0.1-0.4-0.1-0.7c-0.1-0.4-0.1-0.8-0.2-1.2
		c0-0.2,0-0.4-0.1-0.6c-0.1-0.1-0.1-0.4-0.1-1.3c0,0,0,0,0,0c0-0.1,0-0.3,0-0.4C31,77.8,31,77.6,31,76.3c0,0,0,0,0-1c0,0,0,0,0,0
		c0,0,0,0,0,0c0-0.1,0-0.2,0-0.4C31,63.3,35.7,52,43.5,44c-0.3-0.9-0.7-1.8-1.3-2.5c0,0,0,0,0,0c-0.2-0.2-0.4-0.4-0.7-0.6
		c-1.6-1.1-3.4-1.4-4.8-1.4c-1.1,0-1.7,0.1-1.7,0.1c0,0,0,0,0,0c0,0-0.2,0-0.2,0c4.1-3.3,10-4.8,13.5-5.5
		C48.2,34,48.1,33.9,48.2,33.8z M34.7,108.7C27,99.3,22.8,87.5,22.8,75.3c0-12.2,4.2-24.1,12-33.5l1.3,1.1
		c-7.5,9.1-11.6,20.7-11.6,32.5c0,11.8,4.1,23.3,11.5,32.4L34.7,108.7z M43.9,118.5l-2.6-1.4l-2.6,1.4l0.5-2.9l-2.1-2.1l2.9-0.4
		l1.3-2.7l1.3,2.7l2.9,0.4l-2.1,2.1L43.9,118.5z M60,129.1l-2.6-1.4l-2.6,1.4l0.5-2.9l-2.1-2.1l2.9-0.4l1.3-2.7l1.3,2.7l2.9,0.4
		l-2.1,2.1L60,129.1z M82.5,132.6l-2.6-1.4l-2.6,1.4l0.5-2.9l-2.1-2.1l2.9-0.4l1.3-2.7l1.3,2.7l2.9,0.4l-2.1,2.1L82.5,132.6z
		 M104.2,126.8l-2.6-1.4l-2.6,1.4l0.5-2.9l-2.1-2.1l2.9-0.4l1.3-2.7l1.3,2.7l2.9,0.4l-2.1,2.1L104.2,126.8z M116.1,116.7l-2.6-1.4
		l-2.6,1.4l0.5-2.9l-2.1-2.1l2.9-0.4l1.3-2.7l1.3,2.7l2.9,0.4l-2.1,2.1L116.1,116.7z M118.8,106.1l-1.4-1c6.3-8.7,9.6-19.1,9.6-29.9
		c0-11.8-4.1-23.4-11.6-32.5l1.3-1.1c7.7,9.4,12,21.3,12,33.6C128.7,86.4,125.3,97.1,118.8,106.1z"/>
	<path fill="#FFFFFF" d="M36,42.8l-1.3-1.1c-7.7,9.4-12,21.3-12,33.5c0,12.2,4.2,24,11.9,33.5l1.3-1.1c-7.4-9.1-11.5-20.6-11.5-32.4
		C24.5,63.5,28.6,51.9,36,42.8z"/>
	<path fill="#FFFFFF" d="M116.8,41.7l-1.3,1.1c7.5,9.1,11.6,20.7,11.6,32.5c0,10.8-3.3,21.1-9.6,29.9l1.4,1c6.5-9,9.9-19.7,9.9-30.8
		C128.7,63.1,124.5,51.2,116.8,41.7z"/>
	<path fill="#CCE5D6" d="M108.9,45.1c-0.3,0.2-0.5,0.3-0.9,0.4c-0.2,0-0.4,0-0.7,0c0,0,0,0,0,0c0.4,0.7,0.8,1.5,1.2,2.4
		c1.1,1.9,2,3.8,2.3,6.3c0.2,1.3,0.2,2.9,0.2,4.6c-0.1,4.7-1,11.3-2.2,16.3h11.9C120.6,63,117,53,108.9,45.1
		C109,45,109,45,108.9,45.1C109,45,108.9,45,108.9,45.1z"/>
	<path fill="#CCE5D6" d="M41.9,75c-0.4-2-0.8-3.8-1.1-5.6c-1-5.6-1.4-11.2-0.9-15.2c0.4-3,1.1-5.4,3.1-7.6c0,0,0,0,0,0c0,0,0,0,0,0
		c0.3-0.4,0.6-0.7,0.9-1.1c0,0,0-0.1,0.1-0.1c-0.1-0.2-0.1-0.4-0.2-0.6c-0.1-0.2-0.2-0.4-0.2-0.6c0-0.1,0,0-0.1-0.1
		c-7.8,8.1-12.5,19-12.5,31H41.9z"/>
	<path fill="#EB8C1C" d="M101.6,111h-0.2H71.7h-0.2H49.3c1.4,1,2.9,2,4.5,2h7.8h6.9h3h0.2h19.8h7.7c1.4,0,2.7-1,3.9-2h-0.4h-0.1
		H101.6z"/>
	<path fill="#EB8C1C" d="M101.4,107h-7.5c-0.5,0-1.2,0.3-1.8,0.5c-2.7,0.8-5.8,1.4-8.9,1.8c-0.8,0.1-1.7-0.2-2.5-0.1
		c0.8,0.1,1.7-0.2,2.5-0.2h0.2h18h0.2h3.2c0.5,0,1-0.6,1.5-1.1c0.3-0.3,0.6-0.4,0.8-0.6c0.2-0.2,0.3-0.2,0.5-0.2h-6H101.4z"/>
	<path fill="#EB8C1C" d="M104.4,91.3c-0.1,0.4-0.2,0.7-0.4,1.1c-0.1,0.4-0.2,0.9-0.3,1.1c0,0.1-0.1-0.5-0.1,0.5h12.6
		c0.5-2,1-2,1.3-3h-13C104.5,91,104.4,91.2,104.4,91.3z"/>
	<path fill="#EB8C1C" d="M91.6,116H71.7h-0.2h-3h-6.9h-4.4h-0.6c4.3,2,9.3,3,15.1,4h12c0.8,0,1.6-0.3,2.4-0.5c2.7-1.1,6.7-2,9.4-3
		c0.4-0.2,0.9-0.5,1.3-0.5h-1.2h0H91.6z"/>
	<path fill="#EB8C1C" d="M105.9,87c-0.3,1-0.6,1-0.9,2h13.2c0.3,0,0.5-1,0.6-1.1l0,0.4c0.2-0.4,0.3-0.3,0.5-1.3H105.9z"/>
	<path fill="#EB8C1C" d="M41.6,79h0.2h1.1c-0.1,0-0.2-1-0.3-1.5c-0.1-0.4-0.2-0.5-0.4-1.5h-0.4h-0.2H30.9c0,1,0.1,1.5,0.1,2.6
		c0,0.1,0,0.4,0,0.4H41.6z"/>
	<path fill="#EB8C1C" d="M101.4,101h-0.6c0,0-0.1,0.2-0.1,0.3c-0.6,1.3-1.1,2.7-1.5,2.7h2.3h0.2h8.4c0.7-1,1.4-2,2.1-3h-10.4H101.4z
		"/>
	<path fill="#EB8C1C" d="M102.5,96.4c-0.3,0.7-0.5,1.7-0.7,2.3c-0.1,0.3-0.2,1.3-0.2,1.3h0.1H113c0.6-1,1.2-3,1.7-4h-12
		C102.6,96,102.5,96.4,102.5,96.4z"/>
	<path fill="#EB8C1C" d="M31.8,84h6.8h3h0.2H44c-0.2-2-0.4-2.1-0.6-2.8C43.4,81,43.3,81,43.3,80h-1.5h-0.2H31.3
		c0.1,1,0.1,1.6,0.2,2.1c0,0.3,0.1,0.9,0.1,1.1C31.7,83.4,31.7,84,31.8,84z"/>
	<path fill="#EB8C1C" d="M38.6,89h3h0.2h3.9c-0.3-1-0.6-1-0.9-2h-3h-0.2h-3h-6.3c0.3,1,0.5,1,0.9,2H38.6z"/>
	<path fill="#EB8C1C" d="M35.1,94h6.5h0.2h5.3c0-1-0.1-0.4-0.1-0.5c-0.1-0.2-0.2-0.7-0.3-1.1c-0.1-0.4-0.2-0.7-0.4-1.1
		c0-0.1-0.1-0.4-0.1-0.4h-4.4h-0.2h-3h-4.8c0.1,0,0.2,0.8,0.4,1.2c0.2,0.6,0.4,1.2,0.6,1.5C34.9,93.8,35,94,35.1,94z"/>
	<path fill="#EB8C1C" d="M108.4,76c-0.1,1-0.2,1.2-0.4,1.5c-0.1,0.5-0.2,1.5-0.3,1.5h12.7c0,0,0-0.3,0-0.4c0.1-1.1,0.1-1.6,0.1-2.6
		H108.4z"/>
	<path fill="#EB8C1C" d="M70,109.1c-0.8-0.1-1.7,0.1-2.5,0c-3.7-0.5-7.6-1.1-10.7-2.1H44.1c1,1,2.1,2,3.3,2h20.1
		C68.3,109,69.1,109.2,70,109.1z"/>
	<path fill="#EB8C1C" d="M41.6,104h0.2h9.7c-0.4,0-0.9-1.4-1.5-2.7c0-0.1-0.1-0.3-0.1-0.3h-8.1h-0.2h-2.4H39c0.7,1,1.4,1.9,2.3,2.9
		c0,0,0.1,0.1,0.1,0.1H41.6z"/>
	<path fill="#EB8C1C" d="M107.4,80c-0.1,1-0.1,1-0.2,1.2c-0.2,0.8-0.4,0.8-0.6,2.8h13.1c0.1,0,0.1-0.4,0.2-0.7
		c0-0.2,0.1-0.9,0.1-1.1c0.1-0.5,0.1-1.2,0.2-2.2H107.4z"/>
	<path fill="#EB8C1C" d="M41.6,100h0.2h7.3c-0.1,0-0.1-0.8-0.2-1.1c-0.2-0.6-0.5-1.7-0.7-2.3C48.1,96.5,48.1,96,48,96h-6.2h-0.2
		h-5.4c0.4,1,1,3,1.8,4H41.6z"/>
	<path fill="#FFD559" d="M107.7,79c0,0,0,0.2,0,0.2c0,0,0,0.1,0,0.1c-0.1,0.9-0.2,0.9-0.3,1c0,0,0-0.3,0-0.3h12.8c0,0,0,0.3,0.1,0.3
		c0.1-0.1,0.1-0.3,0.1-1.2c0,0,0-0.1,0-0.1H107.7z"/>
	<path fill="#FFD559" d="M108.7,75c0,0-0.1,0.2-0.1,0.4c0,0.1,0-0.1,0,0c-0.1,0.9-0.1,0.7-0.2,0.7h12.2c0,0,0.4,0.3,0.4-0.7
		c0,0,0,0,0-0.1c0-0.1,0-0.3,0-0.3H108.7z"/>
	<path fill="#FFD559" d="M101.6,109h-0.2h-18h-0.2c-0.8,0-1.7,0.2-2.5,0.1c-1.9,0.2-3.7,0.4-5.4,0.4c-1.6,0-3.5-0.3-5.4-0.5
		c-0.8,0.1-1.7,0-2.5,0H47.4c0.6,1,1.2,1,1.9,2h22.2h0.2h29.7h0.2h1.1c0,0,0.1,0,0.1,0c0.6-0.1,1.2-1.1,1.7-1.5
		c0.1-0.1,0.2-0.5,0.2-0.5H101.6z"/>
	<path fill="#FFD559" d="M101.5,100c-0.1,0-0.1-0.1-0.2,0c-0.2,0.4-0.4,1-0.5,1h0.6h0.2h10.4c0.3,0,0.6-1,0.9-1h-11.4H101.5z"/>
	<path fill="#FFD559" d="M104.9,89.3c-0.1,0.5-0.3,0.7-0.4,1.7h13c0.2-1,0.5-1,0.6-2H105C105,89,105,89.3,104.9,89.3z"/>
	<path fill="#FFD559" d="M101.4,104h-2.3c0,0-0.1,0-0.1,0.1c-0.1,0.1-0.2,0.1-0.3,0.2c-0.9,0.7-2.1,1.4-3.4,2
		c-0.5,0.2-0.9,0.5-1.4,0.7c0,0,0,0.1,0,0.1h7.5h0.2h6c0.9-1,1.7-2,2.4-3h-8.4H101.4z"/>
	<path fill="#FFD559" d="M103.4,94.4c-0.2,0.5-0.3,0.6-0.5,1c-0.1,0.2-0.1,0.6-0.2,0.6h12c0.6-1,1.1-2,1.5-2h-12.6
		C103.5,94,103.4,94.2,103.4,94.4z"/>
	<path fill="#FFD559" d="M106.6,84c-0.1,0-0.1,0.3-0.2,0.5c-0.2,0.6-0.3,1.3-0.5,1.9c0,0.1,0,0.6-0.1,0.6h13.4c0,0,0-0.4,0.1-0.5
		c0.1-1,0.3-1.5,0.4-2.5H106.6z"/>
	<path fill="#FFD559" d="M71.8,120c1.3,0,2.7,0.2,4.1,0.3l0.7,0c0.4,0,0.8,0.1,1.2,0.1c2.1,0,4.1-0.4,6-0.4H71.8z"/>
	<path fill="#FFD559" d="M91.6,113H71.7h-0.2h-3h-6.9h-7.8c0.9,2,1.8,1.8,2.8,2.2c0.2,0,0.4,0.8,0.7,0.8h4.4h6.9h3h0.2h19.8h4.1
		c0,0,0,0,0,0c0.4,0,0.9-0.8,1.3-0.8c0.8-0.4,1.6-0.2,2.3-2.2H91.6z"/>
	<path fill="#FFD559" d="M55.3,106.3c-1.4-0.6-2.6-1.3-3.4-2c-0.1-0.1-0.2-0.1-0.3-0.2c0,0-0.1-0.1-0.1-0.1h-9.7h-0.2h-0.1h-0.1
		c0.8,1,1.7,2,2.8,3h12.7C56.3,107,55.8,106.5,55.3,106.3z"/>
	<path fill="#FFD559" d="M31.3,80h10.3h0.2h1.5c0,0,0,0.3,0,0.3c-0.1-0.1-0.2-0.2-0.3-1.1c0,0,0-0.1,0-0.1c0,0,0-0.1,0-0.1h-1.1
		h-0.2H31.1c0,0,0,0.2,0,0.2c0,0.9,0.1,0.9,0.1,1C31.3,80.3,31.3,80,31.3,80z"/>
	<path fill="#FFD559" d="M41.6,76h0.2h0.4c-0.1,0-0.1,0.1-0.2-0.7c0-0.1,0,0,0,0c0-0.1-0.1-0.3-0.1-0.3H31c0,0,0,0.1,0,0.3
		c0,0,0,0,0,0.1c0,1-0.1,0.7-0.1,0.7H41.6z"/>
	<path fill="#FFD559" d="M41.6,101h0.2h8.1c-0.2,0-0.3-0.6-0.5-1c-0.1-0.1-0.1,0-0.2,0h-7.3h-0.2H38c0.1,0,0.1-0.1,0.2,0
		c0.1,0.1,0.1,0,0.2,0.1c0.2,0.3,0.4,0.5,0.6,0.8c0.1,0.1,0.1,0.1,0.2,0.1H41.6z"/>
	<path fill="#FFD559" d="M33.8,91h4.8h3h0.2h4.4c-0.1-1-0.3-1.2-0.4-1.7c0,0,0-0.3,0-0.3h-3.9h-0.2h-3h-5.5c0,0,0,0.3,0.1,0.3
		C33.4,89.5,33.6,91,33.8,91z"/>
	<path fill="#FFD559" d="M41.6,96h0.2H48c-0.1,0-0.1-0.4-0.2-0.6c-0.2-0.5-0.3-0.6-0.5-1.1c-0.1-0.2-0.1-0.2-0.2-0.2h-5.3h-0.2h-6.5
		c0.2,0,0.4,1.1,0.6,1.7c0.1,0.2,0.2,0,0.2,0.3c0.1,0.1,0.1,0,0.2,0H41.6z"/>
	<path fill="#FFD559" d="M38.6,87h3h0.2h3c0,0,0-0.6-0.1-0.7c-0.2-0.6-0.3-1.1-0.5-1.7C44.2,84.4,44.1,84,44,84h-2.2h-0.2h-3h-6.8
		c0.1,1,0.3,1.5,0.4,2.5c0,0.1,0,0.5,0.1,0.5H38.6z"/>
	<path fill="#FCB813" d="M97.8,101.5c-4.2,3.8-16,5.7-23.7,5.7c-6.3,0-15.4-1.3-20.8-3.9c5,1.3,11,2,15.5,2c7.7,0,19.5-1.9,23.7-5.7
		c2.8-2.5,13.4-35,11.7-49.6c-0.2-1.3-0.5-2.5-0.9-3.6c-1-0.3-2-0.6-3.1-0.3c-2.9,0.6-3.5,4.1-7.9,5c-3,0.6-7-4.4-10.2-3.5
		c-1.8,0.5-2.4,1.9-3.5,3.2c-0.9,1-2.2,1.8-4.7,2c-4.2,0.2-5.5-4.2-7.9-4.6c-2.4-0.4-4.8,2.8-7.2,2.6c-3-0.2-3.9-2.9-7.1-2.9
		c-3.3,0-4.6,2.6-6.3,2.1c-0.9-0.3-1.6-1.8-2.5-3.4c-1.5,2.1-2.7,4.7-3.1,7.7c-0.5,4,0,9.3,0.9,15c0.3,1.8,0.7,3.7,1.1,5.6
		c0,0.1,0.1,0.3,0.1,0.4c0,0.1,0,0.1,0,0.2c0.1,0.3,0.1,0.6,0.2,0.8c0.1,0.5,0.2,1,0.4,1.5c0.1,0.5,0.2,0.9,0.3,1.4c0,0,0,0,0,0.1
		c0,0,0,0,0,0.1c0.1,0.4,0.2,0.8,0.3,1.3c0,0,0,0,0,0.1c0.1,0.2,0.1,0.4,0.2,0.6c0.2,0.8,0.4,1.5,0.6,2.3c0.1,0.2,0.1,0.5,0.2,0.7
		c0.2,0.6,0.3,1.2,0.5,1.8c0,0.1,0,0.2,0.1,0.2c0.3,1,0.6,2,0.9,3c0,0.1,0,0.1,0,0.2c0.1,0.5,0.3,0.9,0.4,1.4c0,0.1,0.1,0.3,0.1,0.4
		c0.1,0.4,0.2,0.7,0.4,1.1c0.1,0.3,0.2,0.7,0.3,1c0,0.1,0.1,0.2,0.1,0.3c0.1,0.2,0.1,0.4,0.2,0.5c0.2,0.5,0.3,1,0.5,1.4
		c0.1,0.2,0.1,0.4,0.2,0.6c0.1,0.2,0.1,0.3,0.2,0.5c0.3,0.7,0.5,1.3,0.7,1.9c0.1,0.2,0.2,0.4,0.2,0.6c0.1,0.2,0.1,0.3,0.2,0.5
		c0.2,0.4,0.4,0.9,0.5,1.2c0,0.1,0.1,0.2,0.1,0.2c0.6,1.3,1.1,2.2,1.5,2.7c0,0,0.1,0.1,0.1,0.1c0.1,0.1,0.2,0.1,0.3,0.2
		c0.9,0.7,2.1,1.4,3.4,2c0.5,0.2,1,0.4,1.5,0.6c3.1,1.1,6.9,1.9,10.7,2.4c0.8,0.1,1.7,0.2,2.5,0.3c1.9,0.2,3.7,0.3,5.4,0.3
		c1.6,0,3.5-0.1,5.4-0.3c0.8-0.1,1.7-0.2,2.5-0.3c3-0.4,6.1-1,8.9-1.8c0.6-0.2,1.2-0.4,1.8-0.6c0.5-0.2,1-0.4,1.4-0.6
		c1.4-0.6,2.6-1.3,3.4-2c0.1-0.1,0.2-0.1,0.3-0.2c0,0,0.1-0.1,0.1-0.1c0.4-0.4,0.9-1.3,1.5-2.7c0-0.1,0.1-0.2,0.1-0.2
		c0.2-0.4,0.3-0.8,0.5-1.2c0.1-0.2,0.1-0.3,0.2-0.5c0.1-0.2,0.1-0.4,0.2-0.6c0.2-0.6,0.5-1.2,0.7-1.9c0.1-0.2,0.1-0.3,0.2-0.5
		c0.1-0.2,0.1-0.4,0.2-0.6c0.2-0.5,0.3-0.9,0.5-1.4c0.1-0.2,0.1-0.4,0.2-0.5c0-0.1,0.1-0.2,0.1-0.3c0.1-0.3,0.2-0.7,0.3-1
		c0.1-0.4,0.2-0.7,0.4-1.1c0-0.1,0.1-0.3,0.1-0.4c0.1-0.5,0.3-0.9,0.4-1.4c0-0.1,0-0.1,0-0.2c0.3-1,0.6-2,0.9-3c0-0.1,0-0.2,0.1-0.2
		c0.2-0.6,0.3-1.2,0.5-1.8c0.1-0.2,0.1-0.5,0.2-0.7c0.2-0.8,0.4-1.5,0.6-2.3c0.1-0.2,0.1-0.4,0.2-0.6c0,0,0,0,0-0.1
		c0.1-0.4,0.2-0.8,0.3-1.3c0,0,0,0,0-0.1c0,0,0,0,0-0.1c0.1-0.5,0.2-0.9,0.3-1.4c0.1-0.5,0.2-1,0.4-1.5c0.1-0.3,0.1-0.6,0.2-0.8
		c0-0.1,0-0.1,0-0.2c0-0.1,0.1-0.3,0.1-0.4c1.2-5.8,2.1-11.5,2.2-16.2c0-1.5,0-3-0.2-4.3c-0.3-2.5-1.1-4.7-2.3-6.5
		c0.5,1.3,0.9,2.6,1,4.1C111.2,66.5,100.6,99,97.8,101.5z"/>
	<path fill="#FBAE17" d="M106.7,45.4c0.6,0.7,1.1,1.3,1.6,2.1c-0.1,0-0.2,0.1-0.3,0.1c-1.4,0.3-2.9-0.6-4.6-1.2
		c0.4,1.1,0.7,2.3,0.9,3.6c1.7,14.6-8.9,47.1-11.7,49.6c-4.2,3.8-16,5.7-23.7,5.7c-4.5,0-10.5-0.7-15.5-2c5.4,2.6,14.5,3.9,20.8,3.9
		c7.7,0,19.5-1.9,23.7-5.7c2.8-2.5,13.4-35,11.7-49.6c-0.2-1.5-0.5-2.8-1-4.1c-0.3-0.8-0.7-1.6-1.2-2.4c-0.1,0-0.1,0-0.2,0
		C107,45.4,106.8,45.4,106.7,45.4z"/>
	<path fill="#CCE5D6" d="M43.9,45.4C43.9,45.4,43.9,45.4,43.9,45.4C43.9,45.4,43.9,45.5,43.9,45.4C43.9,45.5,43.9,45.4,43.9,45.4z"
		/>
	<path opacity="0.15" fill="#F6921E" d="M43.9,45.4C43.9,45.4,43.9,45.4,43.9,45.4C43.9,45.4,43.9,45.5,43.9,45.4
		C43.9,45.5,43.9,45.4,43.9,45.4z"/>
	<path fill="#CCE5D6" d="M43,46.6C43,46.6,43,46.6,43,46.6C43,46.6,43,46.6,43,46.6C43,46.6,43,46.6,43,46.6z"/>
	<path opacity="0.15" fill="#F6921E" d="M43,46.6C43,46.6,43,46.6,43,46.6C43,46.6,43,46.6,43,46.6C43,46.6,43,46.6,43,46.6z"/>
	<path fill="#FCB813" d="M57.2,48.3C57.2,48.3,57.2,48.3,57.2,48.3C57.1,48.3,57.1,48.3,57.2,48.3c0,0,0.1,0,0.1,0.1
		C57.3,48.4,57.2,48.4,57.2,48.3z"/>
	<path opacity="0.15" fill="#F6921E" d="M57.2,48.3C57.2,48.3,57.2,48.3,57.2,48.3C57.1,48.3,57.1,48.3,57.2,48.3c0,0,0.1,0,0.1,0.1
		C57.3,48.4,57.2,48.4,57.2,48.3z"/>
	<path fill="#FCB813" d="M52.4,45.9c1.2,0,2,0.4,2.7,0.9C54.4,46.3,53.6,45.9,52.4,45.9z"/>
	<path opacity="0.15" fill="#F6921E" d="M52.4,45.9c1.2,0,2,0.4,2.7,0.9C54.4,46.3,53.6,45.9,52.4,45.9z"/>
	<path fill="#FCB813" d="M43.9,45.5c-0.3,0.4-0.6,0.7-0.9,1.1c0,0,0,0,0,0c0.8,1.6,1.6,3.1,2.5,3.4c1.7,0.5,3-2.1,6.3-2.1
		c3.3,0,4.2,2.7,7.1,2.9c2.4,0.2,4.8-3,7.2-2.6c2.4,0.4,3.6,4.8,7.9,4.6c2.5-0.1,3.8-1,4.7-2c1.1-1.2,1.8-2.6,3.5-3.2
		c3.2-1,7.2,4.1,10.2,3.5c4.4-0.9,5-4.4,7.9-5c1.1-0.2,2.1,0,3.1,0.3c-0.3-0.8-0.7-1.6-1.1-2.4c-0.2-0.1-0.4-0.1-0.6-0.1
		c-0.2,0-0.5-0.1-0.7-0.1c-0.4,0-0.7,0-1.1,0.1c-2.9,0.6-4.4,4.2-7.4,5c-0.2,0-0.4,0.1-0.6,0.1c-2.8,0.1-7.1-3.9-10.1-3.7
		c-0.2,0-0.4-0.3-0.6-0.2c-3.2,1-2.9,4.8-7.1,4.8c0,0,0,0,0,0c0,0,0,0,0,0c-0.5,0-0.9,0.1-1.3,0c0,0-0.1,0-0.1,0c0,0,0,0.1,0,0.1
		c-3-0.8-3.9-4.1-6-4.1c0,0,0,0,0,0c-0.2,0-0.2,0.1-0.4,0.1c-2.3,0-5.3,2.7-7.3,2.6v0v0c-1,0-0.8-0.1-1.1-0.2c0,0-0.1,0.1-0.1,0.1
		c0.4,0.1,0.7,0.3,1.2,0.3c0,0,0,0,0,0c-0.5,0-0.9-0.2-1.3-0.3c-0.1,0-0.2-0.1-0.3-0.2c-0.1,0-0.2-0.1-0.3-0.2c-0.8-0.4-1.3-1-2-1.5
		c-0.7-0.5-1.5-0.9-2.7-0.9c-2.9,0-4.7,2-6.2,2.1c-0.2,0-0.4,0-0.6-0.1c0,0,0,0,0,0c0,0,0,0,0,0c-0.1,0-0.3-0.1-0.4-0.2
		c0,0-0.1-0.1-0.1-0.1c-0.1-0.1-0.2-0.3-0.3-0.4c0-0.1-0.1-0.1-0.1-0.2c-0.1-0.1-0.1-0.3-0.2-0.4C44.2,46.1,44.1,45.8,43.9,45.5
		C43.9,45.4,43.9,45.5,43.9,45.5z"/>
	<path opacity="0.15" fill="#F6921E" d="M43.9,45.5c-0.3,0.4-0.6,0.7-0.9,1.1c0,0,0,0,0,0c0.8,1.6,1.6,3.1,2.5,3.4
		c1.7,0.5,3-2.1,6.3-2.1c3.3,0,4.2,2.7,7.1,2.9c2.4,0.2,4.8-3,7.2-2.6c2.4,0.4,3.6,4.8,7.9,4.6c2.5-0.1,3.8-1,4.7-2
		c1.1-1.2,1.8-2.6,3.5-3.2c3.2-1,7.2,4.1,10.2,3.5c4.4-0.9,5-4.4,7.9-5c1.1-0.2,2.1,0,3.1,0.3c-0.3-0.8-0.7-1.6-1.1-2.4
		c-0.2-0.1-0.4-0.1-0.6-0.1c-0.2,0-0.5-0.1-0.7-0.1c-0.4,0-0.7,0-1.1,0.1c-2.9,0.6-4.4,4.2-7.4,5c-0.2,0-0.4,0.1-0.6,0.1
		c-2.8,0.1-7.1-3.9-10.1-3.7c-0.2,0-0.4-0.3-0.6-0.2c-3.2,1-2.9,4.8-7.1,4.8c0,0,0,0,0,0c0,0,0,0,0,0c-0.5,0-0.9,0.1-1.3,0
		c0,0-0.1,0-0.1,0c0,0,0,0.1,0,0.1c-3-0.8-3.9-4.1-6-4.1c0,0,0,0,0,0c-0.2,0-0.2,0.1-0.4,0.1c-2.3,0-5.3,2.7-7.3,2.6v0v0
		c-1,0-0.8-0.1-1.1-0.2c0,0-0.1,0.1-0.1,0.1c0.4,0.1,0.7,0.3,1.2,0.3c0,0,0,0,0,0c-0.5,0-0.9-0.2-1.3-0.3c-0.1,0-0.2-0.1-0.3-0.2
		c-0.1,0-0.2-0.1-0.3-0.2c-0.8-0.4-1.3-1-2-1.5c-0.7-0.5-1.5-0.9-2.7-0.9c-2.9,0-4.7,2-6.2,2.1c-0.2,0-0.4,0-0.6-0.1c0,0,0,0,0,0
		c0,0,0,0,0,0c-0.1,0-0.3-0.1-0.4-0.2c0,0-0.1-0.1-0.1-0.1c-0.1-0.1-0.2-0.3-0.3-0.4c0-0.1-0.1-0.1-0.1-0.2
		c-0.1-0.1-0.1-0.3-0.2-0.4C44.2,46.1,44.1,45.8,43.9,45.5C43.9,45.4,43.9,45.5,43.9,45.5z"/>
	<path fill="#FBAE17" d="M107.9,47.6c0.1,0,0.2,0,0.3-0.1c-0.5-0.7-1-1.4-1.6-2.1c-0.7-0.1-1.4-0.4-2.2-0.6
		c-0.7-0.3-1.5-0.5-2.2-0.7c0.4,0.7,0.8,1.5,1.1,2.4C105,47,106.5,47.8,107.9,47.6z"/>
	<path opacity="0.15" fill="#F6921E" d="M107.9,47.6c0.1,0,0.2,0,0.3-0.1c-0.5-0.7-1-1.4-1.6-2.1c-0.7-0.1-1.4-0.4-2.2-0.6
		c-0.7-0.3-1.5-0.5-2.2-0.7c0.4,0.7,0.8,1.5,1.1,2.4C105,47,106.5,47.8,107.9,47.6z"/>
	<path fill="#402211" d="M74.8,37.8c9.5,0,21-1.8,27.4-4.2c0.1,0,0.1,0,0.2,0c1.4-1.7,1.9-5.1,0.5-7.5c-6.1,2.9-14,4.7-24,5.2
		c-14.7,0.7-25.7-2.1-30.4-6c-2.1,2.4-1.7,6.3-0.1,8.3c0.1,0,0.1,0,0.2,0C57.1,36.6,64.5,37.8,74.8,37.8z"/>
	<path fill="#402211" d="M34.7,39.6c7.6-5.2,14.6-5.1,16.4-3.8c1.9,1.4-1.8,3.6,0.7,4c2.5,0.3,5.5-2.3,8.1-1.6
		c2.6,0.7,1.5,3.7,6,3.9c4.5,0.2,3.8-3.2,6.9-3.2c2.7,0,4.9,4.9,8,4.2c3.1-0.7,3.1-4.1,5.8-4.7c2.7-0.6,5.6,3.5,8.1,2.6
		c2.5-0.9,2.2-3.5,4.1-4.7c0.5-0.3,1.3-0.7,2.3-0.9c0.5-0.1,1.1-0.2,1.7-0.2c0.6,0,1.3,0,2,0c2.9,0.2,6.7,1.4,11.2,4.4
		c-4.1-3.3-10-4.7-13.5-5.4c0,0,0,0.1-0.1,0.1c-3,1.2-7.4,2.2-12.2,3C85,38,79.7,38.5,74.8,38.5c-10.4,0-17.9-1.2-26.5-4.3
		c0,0-0.1-0.1-0.1-0.1C44.8,34.8,38.8,36.3,34.7,39.6C34.7,39.6,34.7,39.6,34.7,39.6z"/>
	
		<line fill="none" stroke="#402211" stroke-width="0" stroke-linecap="round" stroke-linejoin="round" x1="75.4" y1="21.8" x2="75.4" y2="21.8"/>
	<path fill="#402211" d="M44.5,46.9c0,0.1,0.1,0.2,0.1,0.2C44.6,47,44.6,46.9,44.5,46.9z"/>
	<path fill="#402211" d="M45.1,47.6c0,0-0.1-0.1-0.1-0.1C45,47.5,45,47.6,45.1,47.6z"/>
	<path fill="#402211" d="M41.5,40.9c-1.6-1.1-3.6-1.4-5-1.4C38,39.5,39.9,39.7,41.5,40.9c0.2,0.2,0.4,0.4,0.6,0.6
		C42,41.3,41.8,41,41.5,40.9z"/>
	<path fill="#402211" d="M45.5,47.9C45.5,47.9,45.5,47.9,45.5,47.9C45.5,47.9,45.5,47.9,45.5,47.9C45.5,47.9,45.5,47.9,45.5,47.9
		C45.5,47.9,45.5,47.9,45.5,47.9z"/>
	<path fill="#402211" d="M43.7,44.8c0.1,0.2,0.1,0.4,0.2,0.6c0,0,0,0,0,0c0.1,0.4,0.3,0.7,0.4,1.1c-0.6-1.5-1.1-3.6-2.2-5
		c0.5,0.7,0.9,1.6,1.3,2.5c0,0.1,0,0.1,0.1,0.2C43.6,44.4,43.6,44.6,43.7,44.8z"/>
	<path fill="#402211" d="M74.1,50.2c-0.1,0-0.2,0-0.3,0C73.9,50.2,74,50.2,74.1,50.2C74.1,50.2,74.1,50.2,74.1,50.2z"/>
	<path fill="#402211" d="M73.3,50C73.3,50,73.3,50,73.3,50C73.3,50,73.3,50,73.3,50z"/>
	<polygon fill="#402211" points="66.6,45.9 66.6,45.9 66.6,45.9 	"/>
	<path fill="#402211" d="M57.3,48.4c-0.1,0-0.2-0.1-0.2-0.1c0,0,0,0,0,0C57.2,48.3,57.3,48.4,57.3,48.4
		C57.4,48.4,57.4,48.4,57.3,48.4z"/>
	<path fill="#402211" d="M55.1,46.8c-0.7-0.5-1.5-0.8-2.7-0.8c0,0,0,0,0,0C53.6,46,54.4,46.4,55.1,46.8
		C55.1,46.9,55.1,46.8,55.1,46.8z"/>
	<path fill="#402211" d="M59,48.8C59,48.8,59,48.8,59,48.8c-0.5,0-0.9-0.1-1.2-0.2c0,0,0,0,0,0C58.1,48.7,58.5,48.8,59,48.8z"/>
	<path fill="#402211" d="M91.9,49c-2.8,0.1-7.1-3.9-10.1-3.7C84.8,45.1,89,49.1,91.9,49z"/>
	<path fill="#402211" d="M101.7,43.9c0.2,0,0.4,0.1,0.6,0.1c0.8,0.2,1.5,0.5,2.2,0.7C103.6,44.4,102.6,44.1,101.7,43.9z"/>
	<path fill="#402211" d="M101.7,43.9c-0.2,0-0.5-0.1-0.7-0.1C101.2,43.8,101.4,43.9,101.7,43.9z"/>
	<path fill="#402211" d="M106.7,45.4c0.1,0,0.3,0.1,0.4,0.1c-0.1,0-0.1,0-0.2,0c-0.7-0.1-1.5-0.3-2.2-0.6c-0.1,0-0.1,0-0.2-0.1
		C105.3,45,106,45.3,106.7,45.4z"/>
	<path fill="#603916" d="M102.8,35.1c-0.6,0-1.2,0.1-1.7,0.2c-1,0.2-1.8,0.6-2.3,0.9c-1.9,1.2-1.6,3.8-4.1,4.7
		c-2.5,0.9-5.4-3.2-8.1-2.6c-2.7,0.6-2.7,4-5.8,4.7c-3.1,0.7-5.3-4.1-8-4.2c-3.1,0-2.4,3.4-6.9,3.2c-4.5-0.2-3.5-3.1-6-3.9
		c-2.6-0.7-5.6,1.9-8.1,1.6c-2.5-0.3,1.2-2.5-0.7-4c-1.7-1.3-8.8-1.4-16.4,3.8c0,0,0,0,0,0c0,0,0.8-0.1,1.9-0.1c1.4,0,3.4,0.3,5,1.4
		c0.2,0.2,0.4,0.4,0.6,0.6c0,0,0,0,0,0c1.1,1.3,1.5,3.5,2.2,5c0.1,0.1,0.1,0.3,0.2,0.4c0,0.1,0.1,0.2,0.1,0.2
		c0.1,0.2,0.2,0.3,0.3,0.4c0,0,0.1,0.1,0.1,0.1c0.1,0.1,0.2-0.2,0.4-0.2c0,0,0-0.4,0-0.4c0,0,0,0,0,0c0,0,0,0.4,0,0.4
		c0.2,0.1,0.4,0.4,0.6,0.4c1.5-0.2,3.3-1.8,6.2-1.8c0,0,0,0,0,0c1.3,0,2,0.3,2.7,0.8c0,0,0,0,0,0c0.7,0.5,1.2,1.1,2,1.5c0,0,0,0,0,0
		c0,0,0,0,0,0c0,0,0,0,0.1,0c0,0,0.1,0,0.1,0.1c0,0,0,0,0.1,0c0.1,0,0.2,0.1,0.3,0.1c0,0,0,0,0,0c0,0,0.2,0,0.2,0
		c0.3,0.1,0.1,0.1,1.1,0.2v0c2,0.1,5-2.5,7.3-2.6c0.2,0,0.2-0.1,0.4-0.1c0,0,0,0,0,0c0,0,0,0,0,0c2.1,0,3,3.3,6,4.1c0,0,0,0,0,0
		c0,0,0.1-0.1,0.1-0.1c0.2,0,0.4,0,0.6,0c0,0,0,0,0,0c0.2,0,0.3,0,0.5,0c0.1,0,0.2,0,0.3,0c0,0,0,0,0,0c4.2,0,3.9-3.9,7.1-4.8
		c0.2-0.1,0.4,0.1,0.6,0c3-0.2,7.2,3.8,10.1,3.7c0.2,0,0.4,0,0.6,0c3-0.8,4.5-4.4,7.4-5c0.4-0.1,0.7-0.1,1.1-0.1
		c1.3,0,2.5,0.5,3.7,1c0.8,0.3,1.5,0.5,2.2,0.6c0.1,0,0.1,0.3,0.2,0.3c0.1,0,0.1,0.3,0.2,0.3c0,0,0,0,0,0c0.2,0,0.5-0.3,0.7-0.3
		c0.4-0.1,0.7-0.3,0.9-0.5c0,0,0.1-0.1,0.1-0.2c1.2-0.8,1.3-2.5,2.6-3.6c1.4-1.2,4.5-1.6,4.5-1.6l0,0c0,0-0.1,0.2-0.1,0.2
		c0,0,0,0,0,0c-4.4-2-8.2-4.4-11.2-4.7C104.1,35.3,103.4,35,102.8,35.1z"/>
	<path fill="#603916" d="M78.9,31.3c10.1-0.5,17.9-2.3,24-5.2c0,0,0,0,0,0c0,0,0,0,0,0c-0.2-0.3-0.4-0.5-0.6-0.7
		c-0.1-0.1-0.1-0.1-0.2-0.2c-0.2-0.2-0.5-0.5-0.7-0.6c-1-0.7-3.1-1.2-6.1-1.6c-5-0.7-12.2-1-19.9-1h0c-12.3,0-23.5,0.9-26,2.7
		c-0.3,0.2-0.6,0.4-0.8,0.7c0,0-0.1,0-0.1,0.1c0,0,0,0,0,0C53.2,29.2,64.2,32,78.9,31.3z"/>
	<path fill="#FFFFFF" d="M74.8,38.5c4.9,0,10.2-0.4,15.3-1.3c4.9-0.8,9.2-1.9,12.2-3c0,0,0.1-0.1,0.1-0.1c0.1-0.1,0.1-0.2,0.1-0.3
		c0-0.1-0.1-0.2-0.2-0.2c-0.1,0-0.1,0-0.2,0c-6.4,2.5-17.9,4.2-27.4,4.2c-10.4,0-17.7-1.2-26.3-4.2c-0.1,0-0.1,0-0.2,0
		c-0.1,0-0.2,0.1-0.2,0.2c0,0.1,0,0.2,0.1,0.3c0,0,0.1,0.1,0.1,0.1C57,37.3,64.4,38.5,74.8,38.5z"/>
	<polygon fill="#FCB813" points="42.6,113.1 41.2,110.4 39.9,113.1 37,113.5 39.1,115.6 38.6,118.5 41.2,117.1 43.9,118.5 
		43.4,115.6 45.5,113.5 	"/>
	<polygon fill="#FCB813" points="58.7,123.6 57.4,121 56,123.6 53.1,124.1 55.2,126.1 54.7,129.1 57.4,127.7 60,129.1 59.5,126.1 
		61.6,124.1 	"/>
	<polygon fill="#FCB813" points="81.2,127.1 79.9,124.5 78.5,127.1 75.6,127.6 77.7,129.6 77.2,132.6 79.9,131.2 82.5,132.6 
		82,129.6 84.1,127.6 	"/>
	<polygon fill="#FCB813" points="102.9,121.4 101.5,118.7 100.2,121.4 97.3,121.8 99.4,123.9 98.9,126.8 101.5,125.4 104.2,126.8 
		103.7,123.9 105.8,121.8 	"/>
	<polygon fill="#FCB813" points="114.8,111.2 113.5,108.6 112.2,111.2 109.3,111.7 111.4,113.7 110.9,116.7 113.5,115.3 
		116.1,116.7 115.6,113.7 117.8,111.7 	"/>
</g>
</svg>
