<?xml version="1.0" encoding="utf-8"?>
<!-- Generator: Adobe Illustrator 18.1.0, SVG Export Plug-In . SVG Version: 6.00 Build 0)  -->
<svg version="1.1" id="Layer_1" xmlns="http://www.w3.org/2000/svg" xmlns:xlink="http://www.w3.org/1999/xlink" x="0px" y="0px"
	 viewBox="0 0 150 150" enable-background="new 0 0 150 150" xml:space="preserve">
<g>
	<circle fill="none" cx="109.4" cy="41.3" r="3"/>
	<circle fill="none" cx="119.7" cy="56.9" r="3"/>
	<circle fill="none" cx="115.3" cy="48.6" r="3"/>
	<circle fill="none" cx="102.1" cy="35.4" r="3"/>
	<circle fill="none" cx="84.8" cy="28.2" r="3"/>
	<path fill="none" d="M75.5,30.3c1.6,0,3-1.3,3-3c0-1.6-1.3-3-3-3c-1.6,0-3,1.3-3,3C72.5,29,73.9,30.3,75.5,30.3z"/>
	<circle fill="none" cx="122.5" cy="65.9" r="3"/>
	<circle fill="none" cx="66.2" cy="28.2" r="3"/>
	<path fill="none" d="M87.2,89.9c0.1-0.3,0.1-0.6,0.2-0.9l0-0.2c0.1-0.3,0.1-0.8,0.1-1.1l0.2-1.6h0c0.1,0,0.1-1.1,0.1-1.8
		c0-0.3,0-0.5,0-0.8l0-0.1c0-0.3,0-0.6-0.1-0.9l0-0.2c0,0,0-0.1,0-0.1c0-0.3-0.1-0.6-0.1-0.9l0-0.1c0-0.3-0.1-0.6-0.2-1
		c-0.1-0.3-0.1-0.6-0.2-0.9l-0.1-0.5c0.7,0.3,1.4,0.7,2.1,1c0.9,0.4,1.9,0.8,2.9,1.1c1.9,0.6,3.7,0.8,5.3,0.8c2.6,0,4.6-0.8,5.9-2.2
		c0.7-0.8,1.2-1.7,1.4-2.9c0-0.1,0-0.3,0.1-0.4c0-0.2,0-0.3,0-0.5c0-1.2-0.3-2.5-1.2-3.7c-1.4-2-4.2-3.8-8.9-4.7
		c-3.1-0.5-6-0.8-8.7-0.8c-0.7,0-1.4,0-2.1,0.1c0.1-0.6,0.2-1.3,0.2-2.1c0-0.1,0-0.2,0-0.4c0.8-1.1,0.9-2.8,0.1-4.2
		c0-0.1-0.1-0.2-0.1-0.3c-0.9-1.6-2.5-2.5-4-2.2c0.3-0.5,0.6-1,1.1-1.4c1.3-1.1,3.2-1.6,5.3-1.3l0.2,0c0.2,0,0.4,0,0.5-0.1
		c0.5-0.2,0.8-0.6,0.9-1.1c0-0.1,0-0.2,0-0.4c0,0,0,0,0,0c0-0.2-0.1-0.5-0.2-0.7c-0.1-0.1-0.2-0.2-0.3-0.3c-0.2-0.1-0.4-0.3-0.7-0.3
		c-2.9-0.4-5.7-0.4-7.6,1.3c-1.1,1-1.9,2.8-2.2,2.8c-0.1,0-0.1,0-0.2,0c-0.4,0-1.1-1.8-2.2-2.8c-1.9-1.7-4.7-2.1-7.6-1.6
		c-0.4,0.1-0.7,0.4-0.9,0.7c-0.2,0.3-0.3,0.9-0.3,1.3c0.1,0.7,0.7,1.4,1.4,1.4h0.2c2.1,0,4,0,5.3,1.2c0.5,0.4,0.8,0.8,1.1,1.3
		c-1.5-0.2-3,0.6-4,2.2c-0.2,0.3-0.3,0.6-0.4,0.9c-0.4,1.3-0.3,2.6,0.4,3.5c0,0.1,0,0.2,0,0.4c0,0.8,0.1,1.4,0.2,2.1
		c-0.9-0.1-1.8-0.1-2.7-0.1c-2.5,0-5.2,0.3-8,0.8c-3.4,0.6-6.2,1.8-7.9,3.5c-0.6,0.5-1,1.2-1.4,1.8c-0.7,1.3-1,2.6-0.7,4.1
		c0.2,0.9,0.5,1.7,1,2.4c1.2,1.7,3.4,2.7,6.3,2.7c1.6,0,3.4-0.3,5.3-0.8c0.8-0.2,1.6-0.5,2.3-0.8c0.9-0.4,1.8-0.8,2.6-1.2
		c0,0,0,0,0,0c0,0,0,0,0,0c0,0.1-0.1,0.3-0.1,0.5c-0.1,0.3-0.2,0.6-0.2,0.9l0,0.1c-0.1,0.3-0.1,0.6-0.2,0.9l0,0.2
		c0,0.3-0.1,0.7-0.1,1l0,0.1c0,0.3,0,0.5-0.1,0.8c0,0.1,0,0.1,0,0.2c0,0.3,0,0.6,0,1c0,1.1,0.1,2.2,0.2,3.3l0,0.2
		c0,0.3,0.1,0.6,0.1,0.9l0,0.3c0.1,0.3,0.1,0.6,0.2,0.8l0,0.2c0,0.1,0,0.1,0,0.1c0.1,0.3,0.2,0.6,0.2,0.8l0,0.1
		c0.1,0.3,0.2,0.6,0.3,0.9l0.1,0.2c0.2,0.5,0.4,1,0.7,1.5c0.5,1,1.1,1.9,1.7,2.7l0.1,0.1c0.1,0.2,0.2,0.3,0.4,0.4l0.1,0.1
		c0.1,0.1,0.2,0.2,0.3,0.3l0.2,0.2c0.1,0.1,0.2,0.2,0.3,0.3c0.1,0.1,0.1,0.1,0.2,0.2l0.9,0.8c0.1,0.1,0.2,0.1,0.3,0.2l0.9,0.6
		l1.5,0.8c0.1,0,0.2,0.1,0.3,0.1l0.7,0.2l0.3-1.1l-0.2,1.1l0.5,0.1c0.1,0,0.3,0,0.4,0c0.1,0,0.3,0,0.4,0c0.1,0,0.1,0,0.2,0l0.4-0.1
		c0.1,0,0.1,0,0.2,0l0.2,0c0.1,0,0.2,0,0.2-0.1c0.1,0,0.1,0,0.2-0.1l0.7-0.3l2-1.2c0.1-0.1,0.2-0.1,0.3-0.2l0.7-0.5
		c0.1-0.1,0.2-0.2,0.4-0.3l0.6-0.6c0.1-0.1,0.2-0.3,0.4-0.4l0.1-0.1c0.1-0.2,0.3-0.3,0.4-0.5c0.5-0.6,1-1.4,1.4-2.1
		c0.3-0.5,0.6-1.1,0.8-1.6l0.3-0.7c0.1-0.3,0.2-0.6,0.3-0.8l0-0.1c0,0,0,0,0,0c0.1-0.3,0.2-0.6,0.3-1L87.2,89.9z M85.4,75.2
		l-3.8-2.4l2.2,3.9c0.5,0.9,0.9,1.9,1.2,3l0,0.1c0.1,0.2,0.1,0.5,0.2,0.8c0,0,0,0,0,0c0.1,0.3,0.1,0.5,0.1,0.8l0,0.2
		c0,0.3,0.1,0.6,0.1,1c0,0.2,0,0.4,0,0.6l0,0.4c0,0.3,0,0.6,0,0.9c0,0.5,0,1,0,1.4c0,0.5-0.1,1.1-0.2,1.6l0,0.1
		c0,0.2-0.1,0.5-0.1,0.7c0,0,0,0.1,0,0.1l0,0.2c-0.1,0.3-0.1,0.5-0.2,0.8l1,0.3l0.1,0l0,0l-1-0.1c-0.1,0.3-0.2,0.6-0.2,0.8l0,0.1
		c-0.1,0.2-0.1,0.4-0.2,0.7l-0.1,0.2c-0.1,0.3-0.2,0.5-0.3,0.8c-0.5,1.1-1.1,2.1-1.8,3c-0.1,0.1-0.2,0.3-0.4,0.4l0.8,0.7l-0.9-0.6
		c-0.1,0.1-0.2,0.2-0.3,0.3l0.8,0.8l-0.9-0.6l-0.4,0.4c-0.1,0.1-0.1,0.1-0.2,0.2l-1.2,0.9l-1.4,0.8l0.4,1l-0.6-1L78,98.5l0.3,1
		l-0.5-1l-0.7,0.2c-0.1,0-0.2,0-0.4,0L76,98.5l-0.3,1l0.2-1.1l-0.5-0.2l-0.4,1l0.3-1.1l-0.6-0.3l-2.1-1.6c-0.1-0.1-0.1-0.1-0.2-0.2
		l-0.2-0.2c-0.1-0.1-0.2-0.2-0.3-0.3l-0.1-0.1c-0.1-0.1-0.2-0.3-0.3-0.4L71.4,95c-0.8-1.1-1.5-2.3-2.1-3.7c0,0,0-0.1,0-0.1l-0.1-0.1
		c-0.1-0.2-0.2-0.5-0.3-0.7c-0.1-0.3-0.2-0.6-0.3-0.9l0-0.1c-0.1-0.2-0.1-0.5-0.2-0.8l0-0.2c0-0.3-0.1-0.5-0.1-0.7l-0.2-0.2
		c0,0-0.2-0.1-0.2-0.1c0,0,0,0,0,0c0-1,0-1.9,0-2.9c0-0.3,0.1-0.6,0.1-1c0-0.3,0.1-0.6,0.1-0.9l0-0.1c0-0.3,0.1-0.6,0.1-0.9l0-0.1
		l0-0.1c0-0.3,0.1-0.5,0.1-0.7l0-0.1c0.1-0.3,0.1-0.5,0.2-0.9c0.3-1.1,0.7-2.1,1.2-3l2.2-3.9l-3.8,2.4c-0.8,0.5-1.7,1.1-2.8,1.6
		c-0.8,0.4-1.7,0.9-2.6,1.2c-0.6,0.2-1.2,0.5-1.8,0.6c-1.7,0.5-3.3,0.8-4.7,0.8c-2.3,0-3.9-0.7-4.7-2.1c-0.2-0.4-0.4-0.7-0.4-1.2
		c-0.1-0.6-0.1-1.1,0.1-1.6c0.2-0.8,0.7-1.6,1.4-2.2c1.4-1.4,3.8-2.4,6.8-2.9c2.2-0.4,4.3-0.6,6.3-0.7c0.6,0,1.2,0,1.7,0
		c0.5,0,1.1,0,1.6,0c0.7,0,1.5,0.1,2.1,0.2l2,0.3l-0.8-1.8c-0.2-0.4-0.3-0.9-0.4-1.4C72,65.5,72,65,72,64.5c0-0.2,0-0.5,0-0.7l0-0.5
		l-0.2-0.2l-0.2-0.2c-0.4-0.4-0.5-1.3,0-2.2c0.4-0.7,1-1.2,1.6-1.2c0.2,0,0.3,0,0.5,0.2l0.4,0.3l0.5-0.1c0.2-0.1,0.5-0.1,0.8-0.2
		l0.6-0.1c0.6,0,1.2,0,1.8,0l0.6,0.1c0.3,0,0.5,0.1,0.8,0.2l0.5,0.1l0.4-0.2c0.1-0.1,0.3-0.1,0.4-0.1c0.6,0,1.1,0.4,1.6,1.2
		c0.5,0.9,0.4,1.8,0,2.2L82,63.1l-0.2,0.2l0,0.5c0,0.2,0,0.4,0,0.7c0,0.5,0,1-0.1,1.5c-0.1,0.5-0.2,1-0.4,1.4l-0.8,1.8l2-0.3
		c0.4-0.1,0.9-0.1,1.4-0.1c0.7-0.1,1.5-0.1,2.2-0.1c0.3,0,0.7,0,1,0c2.2,0.1,4.6,0.3,7,0.7c4.3,0.8,7.2,2.5,8.1,4.7
		c0.2,0.6,0.3,1.3,0.2,2c-0.1,0.4-0.2,0.8-0.4,1.2c-0.8,1.3-2.4,2.1-4.7,2.1c-1.4,0-2.9-0.3-4.7-0.8c-0.8-0.2-1.6-0.5-2.4-0.9
		c-0.9-0.4-1.8-0.8-2.6-1.3C86.8,76.1,86.1,75.6,85.4,75.2z"/>
	<path fill="none" d="M120.9,90.8c-1.5-0.6-3.3,0.1-3.9,1.6c-0.4,0.9-0.3,1.8,0.2,2.6c1.8-0.3,3.6-0.7,5.5-1.1
		C122.8,92.6,122.1,91.3,120.9,90.8z"/>
	<path fill="none" d="M34,92.4c-0.6-1.5-2.4-2.2-3.9-1.6c-1.2,0.5-1.9,1.7-1.8,2.9c2,0.4,3.8,0.8,5.6,1.1
		C34.3,94.1,34.3,93.2,34,92.4z"/>
	<circle fill="none" cx="123.4" cy="75.2" r="3"/>
	<circle fill="none" cx="122.5" cy="84.6" r="3"/>
	<circle fill="none" cx="93.8" cy="31" r="3"/>
	<circle fill="none" cx="27.6" cy="75.2" r="3"/>
	<circle fill="none" cx="28.5" cy="65.9" r="3"/>
	<circle fill="none" cx="31.3" cy="56.9" r="3"/>
	<circle fill="none" cx="57.2" cy="31" r="3"/>
	<circle fill="none" cx="28.5" cy="84.5" r="3"/>
	<circle fill="none" cx="35.7" cy="48.6" r="3"/>
	<circle fill="none" cx="48.9" cy="35.4" r="3"/>
	<circle fill="none" cx="41.6" cy="41.3" r="3"/>
	<path fill="#FDBE33" d="M75.5,34.2c22.6,0,41,18.4,41,41c0,7.6-2.1,14.7-5.6,20.7c0.5-0.1,0.9-0.1,1.4-0.2
		c3.4-6.1,5.4-13.1,5.4-20.6c0-23.3-18.8-42.1-42.1-42.1c-23.3,0-42.1,18.8-42.1,42.1c0,7.4,1.9,14.4,5.3,20.4
		c0.5,0.1,0.9,0.1,1.4,0.2c-3.5-6.1-5.6-13.1-5.6-20.6C34.5,52.6,52.9,34.2,75.5,34.2z"/>
	<path fill="#FDBE33" d="M66.7,107.2l-4.1-7.2H51.4l0.7,6.1C57.2,106.6,62.3,107,66.7,107.2z"/>
	<path fill="#FDBE33" d="M86.5,107.1c4.1-0.2,8.8-0.6,13.4-1l0.7-6.1h-10L86.5,107.1z"/>
	<path fill="#FDBE33" d="M111.1,87.3l-5.3,9.2c1-0.1,2.1-0.2,3.3-0.3c3.8-6.1,6-13.3,6-21c0-21.9-17.7-39.6-39.6-39.6
		c-21.9,0-39.6,17.7-39.6,39.6c0,7.6,2.2,14.8,5.9,20.8c2,0.2,3.8,0.4,5.5,0.5L42,87.3l6.6-11.4L42,65.2L49.4,53h13.1l6.6-12H84
		l6.6,12h13.1l7.4,12.2L104.7,76c0,0.2,0,0.2,0,0.3L111.1,87.3z"/>
	<path fill="#F6921E" d="M66,82.4l0-0.1c0-0.3,0.1-0.7,0.1-1l0-0.2c0-0.3,0.1-0.6,0.2-0.9l0-0.1c0.1-0.3,0.1-0.6,0.2-0.9
		c0-0.2,0.1-0.3,0.1-0.5l0,0c-0.8,0.4-1.7,0.9-2.6,1.2l1.9,3.3C66,82.9,66,82.6,66,82.4z"/>
	<path fill="#F6921E" d="M87.2,79.2c0.1,0.3,0.1,0.6,0.2,0.9c0.1,0.4,0.1,0.7,0.2,1l0,0.1c0,0.3,0.1,0.6,0.1,0.9l1.4-2.5
		c-0.7-0.3-1.4-0.7-2.1-1L87.2,79.2z"/>
	<path fill="#FFDD00" d="M103.5,71.9l4.2-7.2L102,55h-7.3h-4.1l-5.7,9.8l1.1,1.8c2.6,0,5.6,0.2,8.7,0.7
		C99.3,68.1,102.1,69.9,103.5,71.9z"/>
	<path fill="#FFDD00" d="M86.4,54.7c-2.1-0.3-4,0.2-5.3,1.3c-0.5,0.4-0.8,0.9-1.1,1.4c1.5-0.2,3,0.6,4,2.2c0,0.1,0.1,0.2,0.1,0.3
		l3-5.3c-0.2,0.1-0.3,0.1-0.5,0.1L86.4,54.7z"/>
	<path fill="#FFDD00" d="M88,53.1L88,53.1C88,53.1,88,53.1,88,53.1L88,53.1z"/>
	<path fill="#FFDD00" d="M73.8,57.4c-0.3-0.5-0.6-1-1.1-1.4c-1.3-1.1-3.2-1.6-5.3-1.3l-0.2,0c-0.7,0-1.3-0.5-1.4-1.2
		c-0.1-0.4,0-0.7,0.3-1.1c0.2-0.3,0.6-0.5,0.9-0.6c2.9-0.4,5.7-0.4,7.6,1.3c1.1,1,1.9,2.8,2.2,2.8c0.1,0,0.1,0,0.2,0
		c0.4,0,1.1-1.8,2.2-2.8c1.9-1.7,4.7-2.1,7.6-1.6c0.2,0,0.5,0.2,0.7,0.4L82.3,43H75h-4.1l-5.7,10l4.3,7.5c0.1-0.3,0.2-0.6,0.4-0.9
		C70.8,58,72.3,57.2,73.8,57.4z"/>
	<path fill="#FFDD00" d="M59.2,67.3c2.8-0.5,5.5-0.8,8-0.8l1.1-1.7L62.6,55h-7.3h-4.1l-5.7,9.8l4.6,7.8c0.4-0.6,0.8-1.3,1.4-1.8
		C53.1,69.1,55.8,67.9,59.2,67.3z"/>
	<path fill="#FFDD00" d="M107.8,87.3l-4.5-7.9c-1.3,1.4-3.3,2.2-5.9,2.2c-1.6,0-3.4-0.3-5.3-0.8c-1-0.3-1.9-0.7-2.9-1.1l-1.4,2.5
		c0,0,0,0.1,0,0.1l0,0.2c0,0.2,0,0.6,0.1,0.9l0,0.2c0,0.3,0,0.4,0,0.7c0,0.7,0,1.8-0.1,1.8h0l-0.2,1.6c0,0.3-0.1,0.7-0.1,1l0,0.3
		c-0.1,0.3-0.1,0.6-0.2,0.9l0,0.2c-0.1,0.3-0.2,1-0.3,1.3l3.6,6.6h4.1h6.2l0.1-1c0.4,0,0.9-0.2,1.4-0.2L107.8,87.3z"/>
	<path fill="#FFDD00" d="M66.6,89.8c-0.1-0.3-0.1-0.6-0.2-0.8l0-0.3c-0.1-0.3-0.1-0.6-0.1-0.9l0-0.2c-0.1-1.1-0.2-2.2-0.2-3.3
		c0-0.3,0-0.7,0-1c0-0.1,0-0.1,0-0.2l-1.9-3.3c-0.8,0.3-1.5,0.6-2.3,0.8c-1.9,0.6-3.7,0.8-5.3,0.8c-2.9,0-5-1-6.3-2.7l-4.8,8.4
		l5.4,9.4c0.1,0,0.1,0,0.2,0l0.1,0.8l0.1,0.5h4.1h7.3l4.1-7.4c0-0.1,0-0.3,0-0.3L66.6,89.8z"/>
	<path fill="#FFDD00" d="M66.7,78.7C66.7,78.7,66.7,78.7,66.7,78.7L66.7,78.7C66.7,78.7,66.7,78.7,66.7,78.7z"/>
	<path fill="#FFDD00" d="M83.7,96.9L83.7,96.9c-0.2,0.2-0.3,0.4-0.4,0.5L82.7,98c-0.2,0.2-0.3,0.2-0.4,0.3l-0.7,0.5
		c-0.1,0.1-0.2,0.1-0.3,0.2l-2,1.2l-0.7,0.3c-0.1,0-0.1,0-0.2,0.1c-0.1,0-0.2,0-0.2,0.1l-0.2,0c-0.1,0-0.1,0-0.2,0l-0.4,0.1
		c-0.1,0-0.2,0-0.2,0c-0.1,0-0.2,0-0.4,0c-0.1,0-0.3,0-0.4,0l-0.5-0.1l0.2-1.1l-0.3,1.1l-0.7-0.2c-0.1,0-0.2-0.1-0.3-0.1l-1.5-0.8
		l-0.9-0.6c-0.1-0.1-0.2-0.1-0.3-0.2l-0.9-0.8c-0.1-0.1-0.1-0.1-0.2-0.2c-0.1-0.1-0.2-0.2-0.3-0.3l-0.2-0.2
		c-0.1-0.1-0.2-0.2-0.3-0.3l-0.1-0.1c-0.1-0.1-0.2-0.3-0.4-0.4l-0.1-0.1c-0.6-0.8-1.2-1.7-1.7-2.7l-2.9,5l5,8.7
		c2.3,0.1,4.3,0.1,5.9,0.1c1.9,0,4.3,0,7-0.2l5-8.7l-2.5-4.4c-0.4,0.7-0.9,1.5-1.4,2.1C84,96.6,83.8,96.8,83.7,96.9z"/>
	<path fill="#603813" d="M75.5,35.6c21.9,0,39.6,17.7,39.6,39.6c0,7.7-2.2,14.9-6,21c0.6-0.1,1.2-0.1,1.8-0.2
		c3.6-6.1,5.6-13.2,5.6-20.7c0-22.6-18.4-41-41-41c-22.6,0-41,18.4-41,41c0,7.5,2,14.6,5.6,20.6c0.6,0.1,1.2,0.2,1.8,0.2
		c-3.8-6.1-5.9-13.2-5.9-20.8C35.9,53.3,53.6,35.6,75.5,35.6z"/>
	<path fill="#603813" d="M30.1,90.8c1.5-0.6,3.3,0.1,3.9,1.6c0.3,0.8,0.3,1.7-0.1,2.4c1.7,0.3,3.2,0.6,4.8,0.8
		c-3.4-6-5.3-13-5.3-20.4c0-23.3,18.8-42.1,42.1-42.1c23.3,0,42.1,18.8,42.1,42.1c0,7.5-2,14.5-5.4,20.6c1.6-0.2,3.2-0.5,4.9-0.8
		c-0.4-0.8-0.5-1.7-0.2-2.6c0.6-1.5,2.4-2.2,3.9-1.6c1.3,0.5,2,1.8,1.8,3.1c0.7-0.1,1.4-0.3,2.1-0.4c0-1.5-0.7-3-1.9-3.9
		c2.2-0.2,4.1-1.8,4.5-4c0.5-2.3-0.7-4.5-2.7-5.5c2.1-0.6,3.7-2.5,3.7-4.8c0-2.3-1.6-4.3-3.7-4.9c2-1,3.1-3.2,2.7-5.5
		c-0.5-2.3-2.4-3.9-4.5-4c1.7-1.4,2.4-3.8,1.5-5.9c-0.9-2.1-3.1-3.3-5.2-3.1c1.4-1.7,1.6-4.2,0.4-6.1c-1.3-1.9-3.7-2.7-5.7-2
		c1.1-1.9,0.8-4.4-0.8-6c-1.6-1.6-4.1-1.9-6-0.8c0.7-2.1-0.1-4.5-2-5.7c-1.9-1.3-4.4-1.1-6.1,0.4c0.3-2.2-0.9-4.4-3.1-5.2
		c-2.1-0.9-4.5-0.2-5.9,1.5c-0.2-2.2-1.8-4.1-4-4.5c-2.3-0.4-4.5,0.7-5.5,2.7c-0.6-2.1-2.5-3.7-4.8-3.7c-2.3,0-4.3,1.6-4.9,3.7
		c-1-2-3.2-3.1-5.5-2.7c-2.3,0.5-3.9,2.4-4,4.5c-1.4-1.7-3.8-2.4-5.9-1.5c-2.1,0.9-3.3,3.1-3.1,5.2c-1.7-1.4-4.1-1.6-6.1-0.4
		c-1.9,1.3-2.7,3.7-2,5.7c-1.9-1.1-4.4-0.8-6,0.8c-1.6,1.6-1.9,4.1-0.8,6c-2.1-0.7-4.5,0.1-5.7,2c-1.3,1.9-1.1,4.4,0.4,6.1
		c-2.2-0.3-4.4,0.9-5.2,3.1c-0.9,2.1-0.2,4.5,1.5,5.9c-2.2,0.2-4.1,1.8-4.5,4c-0.4,2.3,0.7,4.5,2.7,5.5c-2.1,0.6-3.7,2.5-3.7,4.8
		c0,2.3,1.6,4.2,3.7,4.8c-2,1-3.1,3.2-2.7,5.5c0.5,2.3,2.4,3.9,4.5,4c-1.1,0.9-1.8,2.3-1.9,3.7c0.7,0.2,1.4,0.3,2,0.5
		C28.2,92.5,28.9,91.3,30.1,90.8z M125.4,85.1c-0.3,1.6-1.9,2.7-3.5,2.3c-1.6-0.3-2.7-1.9-2.3-3.5c0.3-1.6,1.9-2.7,3.5-2.3
		C124.7,82,125.7,83.5,125.4,85.1z M126.4,75.2c0,1.6-1.3,3-3,3c-1.6,0-3-1.3-3-3c0-1.6,1.3-3,3-3C125,72.2,126.4,73.6,126.4,75.2z
		 M125.4,65.3c0.3,1.6-0.7,3.2-2.3,3.5c-1.6,0.3-3.2-0.7-3.5-2.3c-0.3-1.6,0.7-3.2,2.3-3.5C123.5,62.6,125.1,63.7,125.4,65.3z
		 M122.5,55.7c0.6,1.5-0.1,3.3-1.6,3.9c-1.5,0.6-3.3-0.1-3.9-1.6c-0.6-1.5,0.1-3.3,1.6-3.9C120.1,53.5,121.9,54.2,122.5,55.7z
		 M113.7,46.1c1.4-0.9,3.2-0.5,4.1,0.8c0.9,1.4,0.5,3.2-0.8,4.1c-1.4,0.9-3.2,0.5-4.1-0.8C111.9,48.9,112.3,47,113.7,46.1z
		 M107.3,39.2c1.2-1.2,3-1.2,4.2,0c1.2,1.2,1.2,3,0,4.2c-1.2,1.2-3,1.2-4.2,0C106.1,42.3,106.1,40.4,107.3,39.2z M99.6,33.7
		c0.9-1.4,2.8-1.7,4.1-0.8c1.4,0.9,1.7,2.8,0.8,4.1c-0.9,1.4-2.8,1.7-4.1,0.8C99.1,36.9,98.7,35.1,99.6,33.7z M91.1,29.8
		c0.6-1.5,2.4-2.2,3.9-1.6c1.5,0.6,2.2,2.4,1.6,3.9c-0.6,1.5-2.4,2.2-3.9,1.6C91.2,33.1,90.5,31.3,91.1,29.8z M81.9,27.7
		c0.3-1.6,1.9-2.7,3.5-2.3c1.6,0.3,2.7,1.9,2.3,3.5c-0.3,1.6-1.9,2.7-3.5,2.3C82.7,30.8,81.6,29.3,81.9,27.7z M75.5,24.3
		c1.6,0,3,1.3,3,3c0,1.6-1.3,3-3,3c-1.6,0-3-1.3-3-3C72.5,25.7,73.9,24.3,75.5,24.3z M65.6,25.3c1.6-0.3,3.2,0.7,3.5,2.3
		c0.3,1.6-0.7,3.2-2.3,3.5c-1.6,0.3-3.2-0.7-3.5-2.3C62.9,27.2,64,25.6,65.6,25.3z M56,28.2c1.5-0.6,3.3,0.1,3.9,1.6
		c0.6,1.5-0.1,3.3-1.6,3.9c-1.5,0.6-3.3-0.1-3.9-1.6C53.8,30.6,54.5,28.8,56,28.2z M47.2,32.9c1.4-0.9,3.2-0.5,4.1,0.8
		c0.9,1.4,0.5,3.2-0.8,4.1c-1.4,0.9-3.2,0.5-4.1-0.8C45.5,35.7,45.9,33.8,47.2,32.9z M39.5,39.2c1.2-1.2,3-1.2,4.2,0
		c1.2,1.2,1.2,3,0,4.2c-1.2,1.2-3,1.2-4.2,0C38.4,42.3,38.4,40.4,39.5,39.2z M33.2,46.9c0.9-1.4,2.8-1.7,4.1-0.8
		c1.4,0.9,1.7,2.8,0.8,4.1c-0.9,1.4-2.8,1.7-4.1,0.8C32.7,50.2,32.3,48.3,33.2,46.9z M28.5,55.7c0.6-1.5,2.4-2.2,3.9-1.6
		c1.5,0.6,2.2,2.4,1.6,3.9c-0.6,1.5-2.4,2.2-3.9,1.6C28.6,59,27.9,57.3,28.5,55.7z M25.6,65.3c0.3-1.6,1.9-2.7,3.5-2.3
		c1.6,0.3,2.7,1.9,2.3,3.5c-0.3,1.6-1.9,2.7-3.5,2.3C26.3,68.5,25.3,66.9,25.6,65.3z M24.6,75.2c0-1.6,1.3-3,3-3c1.6,0,3,1.3,3,3
		c0,1.6-1.3,3-3,3C26,78.2,24.6,76.8,24.6,75.2z M25.6,85.1c-0.3-1.6,0.7-3.2,2.3-3.5c1.6-0.3,3.2,0.7,3.5,2.3
		c0.3,1.6-0.7,3.2-2.3,3.5C27.5,87.8,25.9,86.7,25.6,85.1z"/>
	<path fill="#603813" d="M90.3,77.8c0.8,0.3,1.6,0.6,2.4,0.9c1.7,0.5,3.3,0.8,4.7,0.8c2.3,0,3.9-0.7,4.7-2.1
		c0.2-0.4,0.4-0.7,0.4-1.2c0.1-0.7,0-1.4-0.2-2c-0.8-2.2-3.7-4-8.1-4.7c-2.5-0.4-4.8-0.7-7-0.7c-0.3,0-0.7,0-1,0
		c-0.8,0-1.5,0-2.2,0.1c-0.5,0-1,0.1-1.4,0.1l-2,0.3l0.8-1.8c0.2-0.4,0.3-0.9,0.4-1.4c0.1-0.5,0.1-1,0.1-1.5c0-0.2,0-0.5,0-0.7
		l0-0.5l0.2-0.2l0.2-0.2c0.4-0.4,0.5-1.3,0-2.2c-0.4-0.8-1-1.2-1.6-1.2c-0.2,0-0.3,0-0.4,0.1l-0.4,0.2l-0.5-0.1
		c-0.2-0.1-0.5-0.1-0.8-0.2l-0.6-0.1c-0.6,0-1.2,0-1.8,0l-0.6,0.1c-0.3,0-0.5,0.1-0.8,0.2L74.2,60l-0.4-0.3
		c-0.2-0.1-0.3-0.2-0.5-0.2c-0.6,0-1.1,0.4-1.6,1.2c-0.5,0.9-0.4,1.8,0,2.2l0.2,0.2l0.2,0.2l0,0.5c0,0.2,0,0.4,0,0.7
		c0,0.5,0,1,0.1,1.5c0.1,0.5,0.2,1,0.4,1.4l0.8,1.8l-2-0.3c-0.6-0.1-1.4-0.1-2.1-0.2c-0.5,0-1,0-1.6,0c-0.6,0-1.1,0-1.7,0
		c-2,0.1-4.1,0.3-6.3,0.7c-3,0.5-5.4,1.5-6.8,2.9c-0.7,0.7-1.2,1.4-1.4,2.2c-0.1,0.5-0.2,1.1-0.1,1.6c0.1,0.4,0.2,0.8,0.4,1.2
		c0.8,1.3,2.4,2.1,4.7,2.1c1.4,0,2.9-0.3,4.7-0.8c0.6-0.2,1.2-0.4,1.8-0.6c0.9-0.4,1.8-0.8,2.6-1.2c1.1-0.6,2-1.1,2.8-1.6l3.8-2.4
		l-2.2,3.9c-0.5,0.9-0.9,1.9-1.2,3c-0.1,0.3-0.2,0.6-0.2,0.9l0,0.1c0,0.2-0.1,0.5-0.1,0.7l0,0.1l0,0.1c0,0.3-0.1,0.6-0.1,0.9l0,0.1
		c0,0.3,0,0.6-0.1,0.9c0,0.4-0.2,0.7-0.2,1c0,1,0,1.9,0,2.9c0,0,0,0,0,0c0,0,0.2,0.1,0.2,0.1l0.1,0.2c0,0.2,0.1,0.5,0.2,0.7l0.1,0.2
		c0.1,0.3,0.1,0.5,0.2,0.8l0,0.1c0.1,0.3,0.2,0.6,0.3,0.9c0.1,0.3,0.2,0.5,0.3,0.7l0.1,0.1c0,0,0,0.1,0,0.1c0.5,1.4,1.2,2.6,2.1,3.7
		l0.1,0.1c0.1,0.1,0.2,0.2,0.3,0.4l0.1,0.1c0.1,0.1,0.2,0.2,0.3,0.3l0.2,0.2c0.1,0.1,0.1,0.2,0.2,0.2l2.1,1.6l0.6,0.3l-0.3,1.1
		l0.4-1l0.5,0.2l-0.2,1.1l0.3-1l0.8,0.2c0.1,0,0.2,0,0.4,0l0.7-0.2l0.5,1l-0.3-1l0.2-0.1l0.6,1l-0.4-1l1.4-0.8l1.2-0.9
		c0.1-0.1,0.2-0.1,0.2-0.2l0.4-0.4l0.9,0.6l-0.8-0.8c0.1-0.1,0.2-0.2,0.3-0.3l0.9,0.6L82,95.5c0.1-0.2,0.3-0.3,0.4-0.4
		c0.7-0.9,1.3-1.9,1.8-3c0.1-0.3,0.2-0.5,0.3-0.8l0.1-0.2c0.1-0.2,0.2-0.5,0.2-0.7l0-0.1c0.1-0.2,0.1-0.5,0.2-0.8l1,0.1l0,0l-0.1,0
		l-1-0.3c0.1-0.3,0.1-0.5,0.2-0.8l0-0.2c0,0,0-0.1,0-0.1c0-0.2,0.1-0.5,0.1-0.7l0-0.1c0.1-0.5,0.1-1,0.2-1.6c0-0.5,0-1,0-1.4
		c0-0.3,0-0.6,0-0.9l0-0.4c0-0.2,0-0.4,0-0.6c0-0.4-0.1-0.7-0.1-1l0-0.2c0-0.2-0.1-0.5-0.1-0.8c0,0,0,0,0,0
		c-0.1-0.3-0.1-0.5-0.2-0.8l0-0.1c-0.3-1.1-0.7-2.1-1.2-3l-2.2-3.9l3.8,2.4c0.6,0.4,1.4,0.9,2.3,1.3C88.5,77,89.4,77.4,90.3,77.8z"
		/>
	<path fill="#F6921E" d="M48.2,98.1L48.2,98.1L48.2,98.1C40.5,98,29.4,96,16.9,92h-0.1l5.9,11.8l-9.1,5.8l0.1,0.1
		c4.7,1.8,9.8,3.2,15.2,4.2l0,0c-4.8-0.9-9.9-2.2-15.1-4.2l9-5.6L17,92.7c12.5,3.5,23.5,5.5,31.2,5.5l0,0.1c0,0,0,0,0.1-0.1
		L48.2,98.1z"/>
	<path fill="#5D0912" d="M48.2,98.1L48.2,98.1L48.2,98.1C40.5,98,29.4,96,16.9,92h-0.1l5.9,11.8l-9.1,5.8l0.1,0.1
		c4.7,1.8,9.8,3.2,15.2,4.2l0,0c-4.8-0.9-9.9-2.2-15.1-4.2l9-5.6L17,92.7c12.5,3.5,23.5,5.5,31.2,5.5l0,0.1c0,0,0,0,0.1-0.1
		L48.2,98.1z"/>
	<path fill="#603813" d="M48.2,98.2C48.2,98.2,48.2,98.3,48.2,98.2c-5.5,2.8-12.3,4.3-16.7,4.3c4.8,1.7,12.6,2.9,20.6,3.7l-0.7-6.1
		L51,97.1L51,96.7C50.1,97.2,49.2,97.7,48.2,98.2z"/>
	<path fill="#F6921E" d="M117.2,95c-1.7,0.3-3.4,0.6-4.9,0.8c-0.5,0.1-0.9,0.1-1.4,0.2c-0.6,0.1-1.2,0.1-1.8,0.2
		c-1.1,0.1-2.2,0.2-3.3,0.3l5.3-9.2l-6.4-11.2c0,0.1,0,0.3-0.1,0.4c-0.2,1.1-0.7,2.1-1.4,2.9l4.5,7.9l-5.4,9.3c-0.5,0-0.9,0-1.4,0
		c5.6,3.8,14.3,5.8,19.5,5.8l2.8,12.8c5.6-1.1,11.8-2.7,18-5l-10.6-6.6l6.9-13.5c-4.6,1.3-9,2.4-13,3.3c-0.7,0.2-1.4,0.3-2.1,0.4
		C120.8,94.3,118.9,94.7,117.2,95z"/>
	<path fill="#603813" d="M123.3,115.1l-2.8-12.7c-5.2,0-13.9-2-19.5-5.8l-0.1,0.6l-0.3,2.9l-0.7,6.1c8-0.8,15.8-2.2,20.6-3.9
		l4.6,20.7c0,0,0,0,0,0L123.3,115.1z"/>
	<path fill="#F6921E" d="M119,104.7c-10.1,3.2-33.8,4.3-43.1,4.3c-9.3,0-33-1.1-43.1-4.3l-4.4,17.8c15,4.8,47.2,5,47.5,5
		c0.3,0,32.5-0.2,47.5-5L119,104.7z"/>
	<path fill="#F6921E" d="M120.5,102.5c-4.8,1.7-12.6,2.9-20.6,3.7c-4.6,0.5-9.3,0.7-13.4,0.9l4.1-7.1h10l0.3-2h-6.2h-4.1l-3.6-6.6
		c0,0,0-0.2,0-0.1l0,0c-0.1,0.3-0.2,0.5-0.3,0.8l-0.3,0.7c-0.2,0.6-0.5,1.1-0.8,1.6l2.5,4.4l-5,8.7c-2.8,0.1-5.2,0.2-7,0.2
		c-1.6,0-3.6,0-5.9-0.1l-5-8.7l2.9-5c-0.2-0.5-0.5-1-0.7-1.5l-0.1-0.2c-0.1-0.3-0.2-0.6-0.3-0.9l0-0.1c-0.1-0.2-0.1-0.1-0.2-0.4
		L62.6,98h-7.3h-4.1L51,97.4l0.4,2.6h11.2l4.1,7.2c-4.4-0.2-9.5-0.5-14.6-1c-8-0.8-15.8-2-20.6-3.7c4.4,0,11.3-1.5,16.7-4.2l0-0.1
		c-7.6,0-18.7-2-31.2-5.5l5.9,11.5l-9,5.6c5.2,2,10.3,3.3,15.1,4.2l0,0.1c-5.4-1-10.4-2.4-15.2-4.2l-0.1,0l9.1-5.6l-5.9-11.5l0.1,0
		C29.4,96.1,40.5,98,48.2,98h0l0,0.1l0,0.1c1-0.5,1.9-1,2.7-1.6c-0.1,0-0.1,0-0.2,0l-5.4-9.3l4.8-8.4c-0.5-0.7-0.8-1.5-1-2.4
		c-0.2-1.4,0-2.8,0.7-4.1l-4.6-7.7l5.7-9.8h4.1h7.3l5.7,9.8l-1.1,1.8c1,0,1.9,0,2.7,0c-0.1-0.6-0.2-1.3-0.2-2.1c0-0.1,0-0.2,0-0.4
		c-0.7-0.9-0.8-2.3-0.4-3.5L65.1,53l5.7-10H75h7.3l5.2,9.1c0.1,0.1,0.2,0.2,0.3,0.3c0.2,0.2,0.2,0.5,0.3,0.7l0,0l0,0
		c0,0.1,0,0.2,0,0.4c-0.1,0.5-0.4,0.9-0.9,1.1l-3,5.3c0.7,1.5,0.7,3.1-0.1,4.2c0,0.1,0,0.2,0,0.4c0,0.8-0.1,1.4-0.2,2.1
		c0.7,0,1.3-0.1,2.1-0.1l-1.1-1.7l5.7-9.8h4.1h7.3l5.7,9.8l-4.2,7.3c0.8,1.2,1.2,2.5,1.2,3.7l6.4-10.5L103.7,53H90.5L84,41H69.2
		l-6.6,12H49.4L42,65.2l6.6,11.1L42,87.5l5.3,9.2c-1.7-0.1-3.5-0.3-5.5-0.5c-0.6-0.1-1.2-0.2-1.8-0.2c-0.5-0.1-0.9-0.1-1.4-0.2
		c-1.5-0.2-3.1-0.5-4.8-0.8c-1.8-0.3-3.7-0.7-5.6-1.1c-0.7-0.1-1.4-0.3-2-0.5c-3.7-0.8-7.7-1.9-12-3.1l6.9,13.5l-10.6,6.6
		c6.2,2.4,12.4,4,18,5l-1.8,8c15.4,5.6,48.8,5.8,49.1,5.8c0.3,0,33.7-0.3,49.1-5.8l0,0L120.5,102.5z M123.6,122.7
		c-15,4.9-47.3,5.1-47.7,5.1c-0.3,0-32.7-0.2-47.7-5.1l-0.1,0l4.5-18.4l0.1,0c10.1,3.3,33.9,4.4,43.2,4.4c9.3,0,33.1-1.1,43.2-4.4
		l0.1,0l4.5,18.4L123.6,122.7z"/>
	<path fill="#F6921E" d="M119.2,104.3L119.2,104.3c-10.2,3.3-33.9,4.4-43.3,4.4c-9.3,0-33.1-1.1-43.2-4.4l-0.1,0l-4.5,18.4l0.1,0
		c15,4.9,47.3,5.1,47.7,5.1c0.3,0,32.7-0.2,47.7-5.1l0.1,0L119.2,104.3z M75.9,127.6c-0.3,0-32.5-0.2-47.5-5l4.4-17.8
		c10.1,3.2,33.8,4.3,43.1,4.3c9.3,0,33-1.1,43.1-4.3l4.4,17.8C108.4,127.3,76.2,127.6,75.9,127.6z"/>
	<path fill="#F6921E" d="M119.2,104.3L119.2,104.3c-10.2,3.3-33.9,4.4-43.3,4.4c-9.3,0-33.1-1.1-43.2-4.4l-0.1,0l-4.5,18.4l0.1,0
		c15,4.9,47.3,5.1,47.7,5.1c0.3,0,32.7-0.2,47.7-5.1l0.1,0L119.2,104.3z M75.9,127.6c-0.3,0-32.5-0.2-47.5-5l4.4-17.8
		c10.1,3.2,33.8,4.3,43.1,4.3c9.3,0,33-1.1,43.1-4.3l4.4,17.8C108.4,127.3,76.2,127.6,75.9,127.6z"/>
</g>
</svg>
