<?xml version="1.0" encoding="utf-8"?>
<!-- Generator: Adobe Illustrator 18.1.0, SVG Export Plug-In . SVG Version: 6.00 Build 0)  -->
<svg version="1.1" id="Layer_1" xmlns="http://www.w3.org/2000/svg" xmlns:xlink="http://www.w3.org/1999/xlink" x="0px" y="0px"
	 viewBox="0 0 150 150" enable-background="new 0 0 150 150" xml:space="preserve">
<g>
	<path fill="#FAA8D2" d="M57.6,24.1c0.5,0.8,1.8,2.6,3.9,5.4c2.9,3.8,4.9,6.7,5.9,8.5c1,1.8,1.8,3.8,2.3,5.9c0.5-2,1.3-4,2.4-5.8
		c1.3-2.3,3.4-5.3,6.3-9c2.2-2.8,3.7-5.1,4.5-6.8c0.8-1.7,1.1-3.4,1.1-5c0-1.8-0.7-3.4-2-4.7c-1.3-1.3-3-2-4.9-2
		c-1.9,0-3.6,0.7-5,2.1c-1.1,1-1.9,2.5-2.4,4.5c-0.7-2-1.5-3.5-2.6-4.6c-1.4-1.4-3.1-2.1-5.1-2.1c-1.9,0-3.5,0.7-4.8,2
		c-1.3,1.3-2,3-2,4.9c0,1.1,0.2,2.1,0.5,3.1C56.2,21.8,56.8,22.9,57.6,24.1z"/>
	<path fill="#F663AE" d="M86.8,29.7c0.6,4.8,1,8.2,0.9,10.3c0,2.1-0.3,4.2-0.8,6.3c1.5-1.5,3.1-2.8,4.9-3.9c2.3-1.4,5.6-3,9.9-4.7
		c3.3-1.4,5.8-2.6,7.3-3.7c1.5-1.1,2.7-2.4,3.4-3.8c0.9-1.6,1.1-3.2,0.6-5c-0.5-1.8-1.6-3.2-3.3-4.1c-1.7-0.9-3.5-1.1-5.4-0.6
		c-1.4,0.4-2.9,1.3-4.3,2.7c0.4-2.1,0.4-3.8,0-5.3c-0.6-1.9-1.7-3.3-3.4-4.3c-1.6-0.9-3.3-1.1-5.1-0.6c-1.8,0.5-3.2,1.6-4.1,3.3
		c-0.5,0.9-0.9,1.9-1.1,3c-0.2,1.1-0.2,2.4-0.1,3.8C86.1,24,86.3,26.2,86.8,29.7z"/>
	<path fill="#FAA8D2" d="M108.8,42.4c-1.8,4.5-3.2,7.6-4.2,9.4c-1,1.8-2.3,3.5-3.8,5c2-0.6,4.1-0.9,6.2-1c2.7-0.1,6.3,0.2,11,0.7
		c3.6,0.4,6.3,0.6,8.2,0.3c1.9-0.2,3.5-0.8,4.9-1.6c1.5-0.9,2.5-2.3,3-4.1c0.4-1.8,0.1-3.5-0.8-5.2c-1-1.6-2.5-2.7-4.4-3.2
		c-1.4-0.4-3.1-0.3-5.1,0.3c1.4-1.6,2.2-3.2,2.5-4.6c0.4-1.9,0.1-3.7-0.9-5.5c-1-1.6-2.4-2.6-4.2-3c-1.8-0.4-3.5-0.1-5.2,0.9
		c-0.9,0.5-1.7,1.2-2.4,2.1c-0.7,0.8-1.4,1.9-2,3.3C110.9,37.1,110.1,39.1,108.8,42.4z"/>
	<path fill="#F663AE" d="M137.9,73.1c-1.1-1-2.6-1.8-4.6-2.3c2-0.7,3.5-1.7,4.5-2.8c1.3-1.5,2-3.2,1.9-5.2c-0.1-1.9-0.8-3.4-2.2-4.7
		c-1.4-1.3-3-1.9-5-1.8c-1.1,0-2.1,0.2-3.1,0.6c-1,0.4-2.1,1-3.3,1.9c-0.7,0.5-2.5,1.9-5.2,4.1c-3.8,3-6.5,5.1-8.3,6.1
		c-1.8,1.1-3.7,1.9-5.8,2.5c2,0.5,4,1.2,5.9,2.2c2.4,1.2,5.5,3.2,9.2,6c2.9,2.1,5.2,3.6,6.9,4.3c1.7,0.7,3.4,1,5,1
		c1.8-0.1,3.3-0.8,4.6-2.1c1.3-1.4,1.9-3,1.8-4.9C140.1,76.2,139.3,74.5,137.9,73.1z"/>
	<path fill="#FAA8D2" d="M134.5,87.5c-0.9-0.5-2-0.8-3-1c-1.1-0.2-2.4-0.2-3.8,0c-0.9,0.1-3.1,0.4-6.6,1c-4.8,0.8-8.2,1.2-10.3,1.3
		c-2.1,0.1-4.2-0.2-6.3-0.6c1.5,1.4,2.9,3,4.1,4.8c1.5,2.3,3.2,5.5,5.1,9.8c1.5,3.3,2.8,5.7,4,7.1c1.2,1.5,2.5,2.6,3.9,3.3
		c1.6,0.8,3.3,1,5.1,0.4c1.8-0.6,3.1-1.7,4-3.4c0.9-1.7,1-3.5,0.4-5.5c-0.4-1.4-1.4-2.8-2.9-4.2c2.1,0.3,3.9,0.3,5.3-0.2
		c1.9-0.6,3.3-1.8,4.2-3.6c0.8-1.7,1-3.4,0.4-5.1C137.4,89.8,136.3,88.4,134.5,87.5z"/>
	<path fill="#F663AE" d="M118.1,112.9c-0.9-0.7-2-1.3-3.3-1.9c-0.8-0.4-2.9-1.2-6.2-2.4c-4.5-1.6-7.7-2.9-9.6-3.9
		c-1.8-1-3.6-2.2-5.2-3.6c0.6,2,1,4.1,1.2,6.2c0.2,2.7,0.1,6.3-0.4,11c-0.3,3.6-0.3,6.3-0.1,8.2c0.3,1.9,0.9,3.5,1.8,4.8
		c1,1.5,2.4,2.4,4.2,2.8c1.8,0.4,3.5,0,5.1-1c1.6-1,2.6-2.6,3.1-4.5c0.3-1.4,0.2-3.1-0.4-5.1c1.7,1.3,3.2,2.1,4.7,2.4
		c1.9,0.4,3.8,0,5.4-1c1.6-1,2.5-2.5,2.9-4.3c0.4-1.8,0-3.6-1.1-5.2C119.7,114.3,119,113.6,118.1,112.9z"/>
	<path fill="#FAA8D2" d="M91.6,125.5c-0.5-0.7-2-2.4-4.3-5.1c-3.1-3.7-5.3-6.4-6.4-8.1c-1.1-1.8-2-3.7-2.7-5.7c-0.4,2.1-1.1,4-2,6
		c-1.2,2.4-3.1,5.6-5.7,9.4c-2,3-3.4,5.3-4.1,7.1c-0.7,1.8-0.9,3.4-0.8,5c0.1,1.8,0.9,3.3,2.3,4.5c1.4,1.2,3.1,1.8,5,1.6
		c1.9-0.1,3.5-0.9,4.9-2.5c1-1.1,1.7-2.7,2.1-4.7c0.8,2,1.8,3.4,2.9,4.4c1.5,1.3,3.3,1.9,5.2,1.8c1.9-0.1,3.4-0.9,4.6-2.3
		c1.2-1.4,1.8-3.1,1.6-5c-0.1-1.1-0.3-2.1-0.7-3.1C93.2,127.8,92.5,126.7,91.6,125.5z"/>
	<path fill="#F663AE" d="M63.3,120.4c-0.9-4.7-1.5-8.1-1.6-10.2c-0.1-2.1,0-4.2,0.4-6.3c-1.4,1.6-2.9,3-4.7,4.2
		c-2.2,1.5-5.4,3.3-9.6,5.4c-3.2,1.6-5.6,3-7,4.2c-1.4,1.2-2.5,2.5-3.2,4c-0.8,1.6-0.9,3.3-0.2,5.1c0.6,1.8,1.8,3,3.5,3.9
		c1.7,0.8,3.5,0.9,5.5,0.3c1.4-0.5,2.8-1.5,4.1-3c-0.3,2.1-0.1,3.9,0.4,5.2c0.7,1.9,1.9,3.2,3.7,4.1c1.7,0.8,3.4,0.9,5.2,0.2
		c1.7-0.6,3-1.8,3.9-3.6c0.5-1,0.8-2,0.9-3.1c0.1-1.1,0.1-2.4-0.1-3.8C64.4,126.1,64,123.9,63.3,120.4z"/>
	<path fill="#FAA8D2" d="M38.6,117.5c0.6-0.9,1.2-2,1.8-3.4c0.3-0.8,1.1-2.9,2.2-6.3c1.5-4.6,2.7-7.8,3.6-9.7
		c0.9-1.9,2.1-3.6,3.5-5.3c-2,0.7-4,1.2-6.1,1.4c-2.7,0.3-6.3,0.3-11,0c-3.6-0.2-6.3-0.1-8.2,0.2c-1.8,0.4-3.4,1-4.7,1.9
		c-1.5,1-2.4,2.5-2.7,4.3c-0.3,1.8,0.1,3.5,1.2,5.1c1.1,1.6,2.6,2.5,4.6,2.9c1.5,0.3,3.2,0.1,5.1-0.6c-1.3,1.7-2,3.3-2.2,4.8
		c-0.3,2,0.1,3.8,1.2,5.4c1.1,1.5,2.5,2.4,4.4,2.7c1.8,0.3,3.5-0.1,5.2-1.2C37.2,119.2,38,118.4,38.6,117.5z"/>
	<path fill="#F663AE" d="M19.4,94.4c1.1-0.1,2.1-0.4,3.1-0.8c1-0.5,2.1-1.1,3.2-2.1c0.7-0.6,2.4-2,5-4.4c3.5-3.3,6.2-5.5,7.9-6.7
		c1.7-1.2,3.6-2.1,5.6-2.9c-2.1-0.3-4.1-0.9-6-1.8c-2.5-1.1-5.7-2.9-9.6-5.4c-3-2-5.4-3.2-7.2-3.8c-1.8-0.6-3.5-0.8-5.1-0.7
		c-1.8,0.2-3.3,1-4.4,2.4c-1.2,1.5-1.7,3.1-1.5,5c0.2,1.9,1.1,3.5,2.6,4.8c1.1,1,2.7,1.6,4.7,2c-1.9,0.9-3.4,1.9-4.3,3
		c-1.2,1.5-1.8,3.3-1.6,5.3c0.2,1.9,1,3.4,2.5,4.5C15.8,94.1,17.5,94.6,19.4,94.4z"/>
	<path fill="#FAA8D2" d="M17.2,63.9c1,0.4,2,0.7,3.1,0.8c1.1,0.1,2.4,0,3.8-0.2c0.9-0.1,3.1-0.6,6.5-1.4c4.7-1.1,8.1-1.7,10.2-1.9
		c2.1-0.2,4.2-0.1,6.3,0.2c-1.6-1.3-3.1-2.8-4.4-4.5c-1.6-2.2-3.5-5.3-5.7-9.4c-1.7-3.2-3.2-5.5-4.4-6.9c-1.3-1.4-2.6-2.4-4.1-3.1
		c-1.6-0.7-3.3-0.7-5.1-0.1c-1.7,0.7-3,1.9-3.8,3.7c-0.8,1.7-0.8,3.6-0.1,5.5c0.5,1.4,1.6,2.7,3.1,4c-2.1-0.2-3.9,0-5.2,0.5
		c-1.8,0.7-3.2,2-4,3.8c-0.7,1.7-0.8,3.4-0.1,5.2C14.1,61.8,15.4,63.1,17.2,63.9z"/>
	<path fill="#F663AE" d="M32.7,39c0.9,0.6,2.1,1.2,3.4,1.7c0.8,0.3,3,1,6.4,2c4.6,1.3,7.9,2.4,9.8,3.3c1.9,0.9,3.7,2,5.4,3.3
		c-0.8-2-1.3-4-1.6-6.1c-0.3-2.7-0.5-6.3-0.3-11c0.1-3.6-0.1-6.3-0.5-8.1c-0.4-1.8-1.1-3.4-2.1-4.7c-1.1-1.4-2.5-2.3-4.4-2.5
		c-1.8-0.3-3.5,0.2-5.1,1.3c-1.5,1.1-2.4,2.7-2.8,4.7c-0.2,1.5,0,3.2,0.8,5.1c-1.7-1.2-3.4-1.9-4.8-2.1c-2-0.2-3.7,0.2-5.3,1.4
		c-1.5,1.1-2.4,2.6-2.6,4.5c-0.3,1.8,0.2,3.5,1.4,5.1C31,37.7,31.8,38.4,32.7,39z"/>
	<path fill="#52C0E7" d="M71.7,57.8c0.5,0.8,0.8,1.7,1.1,2.7c0.2-0.9,0.6-1.8,1.1-2.7c0.6-1.1,1.6-2.4,2.9-4.1c1-1.3,1.7-2.3,2-3.1
		c0.3-0.8,0.5-1.5,0.5-2.3c0-0.8-0.3-1.5-0.9-2.1c-0.6-0.6-1.3-0.9-2.2-0.9c-0.9,0-1.6,0.3-2.3,1c-0.5,0.5-0.9,1.2-1.1,2.1
		c-0.3-0.9-0.7-1.6-1.2-2.1c-0.6-0.6-1.4-0.9-2.3-0.9c-0.9,0-1.6,0.3-2.2,0.9c-0.6,0.6-0.9,1.4-0.9,2.2c0,0.5,0.1,1,0.2,1.4
		c0.2,0.5,0.4,1,0.8,1.5c0.2,0.3,0.8,1.2,1.8,2.4C70.3,55.6,71.2,56.9,71.7,57.8z"/>
	<path fill="#92D2ED" d="M82.6,46.3c-0.8,0.2-1.4,0.7-1.9,1.5c-0.2,0.4-0.4,0.9-0.5,1.4c-0.1,0.5-0.1,1.1-0.1,1.7
		c0,0.4,0.1,1.4,0.4,3c0.3,2.2,0.4,3.7,0.4,4.7c0,1-0.1,1.9-0.4,2.9c0.7-0.7,1.4-1.3,2.2-1.8c1-0.6,2.6-1.4,4.5-2.2
		c1.5-0.6,2.6-1.2,3.3-1.7c0.7-0.5,1.2-1.1,1.6-1.7c0.4-0.7,0.5-1.5,0.3-2.3C92.2,51,91.7,50.4,91,50c-0.8-0.4-1.6-0.5-2.5-0.3
		c-0.7,0.2-1.3,0.6-2,1.2c0.2-1,0.2-1.8,0-2.4c-0.3-0.9-0.8-1.5-1.6-2C84.2,46.2,83.4,46.1,82.6,46.3z"/>
	<path fill="#52C0E7" d="M98,55.5c-0.4-0.7-1.1-1.2-1.9-1.4c-0.8-0.2-1.6-0.1-2.4,0.4c-0.4,0.2-0.8,0.6-1.1,1
		c-0.3,0.4-0.6,0.9-0.9,1.5c-0.2,0.4-0.6,1.3-1.2,2.8c-0.8,2-1.5,3.5-1.9,4.3c-0.5,0.8-1.1,1.6-1.7,2.3c0.9-0.3,1.9-0.4,2.8-0.5
		c1.2,0,2.9,0.1,5,0.3c1.6,0.2,2.9,0.3,3.7,0.1c0.8-0.1,1.6-0.3,2.2-0.7c0.7-0.4,1.1-1.1,1.3-1.9c0.2-0.8,0.1-1.6-0.4-2.4
		c-0.4-0.7-1.1-1.2-2-1.5c-0.7-0.2-1.4-0.1-2.3,0.1c0.6-0.7,1-1.4,1.2-2.1C98.6,57.1,98.4,56.3,98,55.5z"/>
	<path fill="#92D2ED" d="M104.8,76c0-0.9-0.4-1.6-1-2.3c-0.5-0.5-1.2-0.8-2.1-1c0.9-0.3,1.6-0.8,2-1.3c0.6-0.7,0.9-1.5,0.9-2.4
		c0-0.8-0.4-1.6-1-2.1c-0.6-0.6-1.4-0.8-2.3-0.8c-0.5,0-1,0.1-1.4,0.3c-0.5,0.2-1,0.5-1.5,0.8c-0.3,0.2-1.1,0.9-2.4,1.9
		c-1.7,1.4-3,2.3-3.8,2.8c-0.8,0.5-1.7,0.9-2.6,1.1c0.9,0.2,1.8,0.6,2.7,1c1.1,0.6,2.5,1.5,4.2,2.7c1.3,1,2.4,1.6,3.2,1.9
		c0.8,0.3,1.6,0.5,2.3,0.4c0.8,0,1.5-0.4,2.1-1C104.6,77.6,104.8,76.9,104.8,76z"/>
	<path fill="#52C0E7" d="M101.7,86.1c0.9-0.3,1.5-0.8,1.9-1.6c0.4-0.8,0.4-1.5,0.2-2.3c-0.3-0.8-0.8-1.4-1.6-1.8
		c-0.4-0.2-0.9-0.4-1.4-0.4c-0.5-0.1-1.1-0.1-1.7,0c-0.4,0-1.4,0.2-3,0.5c-2.2,0.4-3.7,0.6-4.7,0.6c-1,0-1.9-0.1-2.9-0.3
		c0.7,0.6,1.3,1.4,1.9,2.2c0.7,1,1.4,2.5,2.3,4.4c0.7,1.5,1.3,2.6,1.8,3.3c0.5,0.7,1.1,1.2,1.8,1.5c0.7,0.4,1.5,0.4,2.3,0.2
		c0.8-0.3,1.4-0.8,1.8-1.6c0.4-0.8,0.5-1.6,0.2-2.5c-0.2-0.6-0.6-1.3-1.3-1.9C100.3,86.3,101.1,86.3,101.7,86.1z"/>
	<path fill="#92D2ED" d="M94.9,97.2c0.7-0.5,1.1-1.1,1.3-1.9c0.2-0.8,0-1.6-0.5-2.4c-0.3-0.4-0.6-0.8-1-1.1
		c-0.4-0.3-0.9-0.6-1.5-0.9c-0.4-0.2-1.3-0.5-2.8-1.1c-2.1-0.7-3.5-1.3-4.4-1.8c-0.8-0.4-1.6-1-2.3-1.7c0.3,0.9,0.5,1.8,0.5,2.8
		c0.1,1.2,0,2.9-0.2,5c-0.2,1.6-0.2,2.9,0,3.7c0.1,0.8,0.4,1.6,0.8,2.2c0.4,0.7,1.1,1.1,1.9,1.3c0.8,0.2,1.6,0,2.3-0.5
		c0.7-0.5,1.2-1.2,1.4-2.1c0.1-0.7,0.1-1.4-0.2-2.3c0.8,0.6,1.5,1,2.1,1.1C93.3,97.9,94.2,97.7,94.9,97.2z"/>
	<path fill="#52C0E7" d="M74.2,104.3c0.9-0.1,1.6-0.4,2.2-1.1c0.5-0.5,0.8-1.2,1-2.1c0.4,0.9,0.8,1.6,1.3,2c0.7,0.6,1.5,0.8,2.4,0.8
		c0.8-0.1,1.5-0.4,2.1-1.1c0.6-0.6,0.8-1.4,0.7-2.3c0-0.5-0.1-1-0.3-1.4c-0.2-0.5-0.5-1-0.9-1.5c-0.2-0.3-0.9-1.1-1.9-2.3
		c-1.4-1.7-2.4-2.9-2.9-3.7c-0.5-0.8-0.9-1.7-1.2-2.6c-0.2,0.9-0.5,1.8-0.9,2.7c-0.5,1.1-1.4,2.5-2.6,4.3c-0.9,1.3-1.5,2.4-1.8,3.2
		c-0.3,0.8-0.4,1.6-0.4,2.3c0.1,0.8,0.4,1.5,1,2.1C72.6,104.1,73.3,104.4,74.2,104.3z"/>
	<path fill="#92D2ED" d="M68.2,103.1c0.8-0.3,1.4-0.8,1.8-1.6c0.2-0.4,0.3-0.9,0.4-1.4c0.1-0.5,0-1.1,0-1.7c-0.1-0.4-0.2-1.4-0.6-3
		c-0.4-2.2-0.7-3.7-0.7-4.7c-0.1-0.9,0-1.9,0.2-2.9c-0.6,0.7-1.3,1.4-2.1,1.9c-1,0.7-2.5,1.5-4.4,2.5c-1.5,0.7-2.5,1.4-3.2,1.9
		c-0.7,0.6-1.1,1.2-1.5,1.8c-0.4,0.7-0.4,1.5-0.1,2.3c0.3,0.8,0.8,1.4,1.6,1.8c0.8,0.4,1.6,0.4,2.5,0.1c0.6-0.2,1.3-0.7,1.9-1.4
		c-0.1,1-0.1,1.8,0.2,2.4c0.3,0.8,0.9,1.5,1.7,1.9C66.7,103.3,67.5,103.3,68.2,103.1z"/>
	<path fill="#52C0E7" d="M53.2,94.3c0.5,0.7,1.2,1.1,2,1.2c0.8,0.1,1.6,0,2.3-0.6c0.4-0.3,0.7-0.6,1-1c0.3-0.4,0.6-0.9,0.8-1.5
		c0.2-0.4,0.5-1.3,1-2.9c0.7-2.1,1.2-3.6,1.6-4.4c0.4-0.9,0.9-1.7,1.6-2.4c-0.9,0.3-1.8,0.5-2.8,0.6c-1.2,0.1-2.9,0.1-5,0
		c-1.6-0.1-2.9-0.1-3.7,0.1c-0.8,0.2-1.6,0.5-2.2,0.9c-0.7,0.5-1.1,1.1-1.2,2c-0.1,0.8,0,1.6,0.5,2.3c0.5,0.7,1.2,1.2,2.1,1.3
		c0.7,0.1,1.4,0,2.3-0.3c-0.6,0.8-0.9,1.5-1,2.2C52.5,92.7,52.7,93.6,53.2,94.3z"/>
	<path fill="#92D2ED" d="M47.1,78.3c-0.6,0.7-0.8,1.5-0.7,2.4c0.1,0.8,0.5,1.5,1.1,2.1c0.7,0.5,1.4,0.8,2.3,0.7
		c0.5,0,0.9-0.2,1.4-0.4c0.5-0.2,0.9-0.5,1.5-0.9c0.3-0.3,1.1-0.9,2.3-2c1.6-1.5,2.8-2.5,3.6-3c0.8-0.5,1.6-1,2.6-1.3
		c-0.9-0.2-1.9-0.4-2.7-0.8c-1.1-0.5-2.6-1.3-4.4-2.5c-1.4-0.9-2.5-1.5-3.3-1.7c-0.8-0.3-1.6-0.4-2.3-0.3c-0.8,0.1-1.5,0.4-2,1.1
		c-0.5,0.7-0.8,1.4-0.7,2.3c0.1,0.9,0.5,1.6,1.2,2.2c0.5,0.4,1.2,0.7,2.2,0.9C48.2,77.3,47.5,77.7,47.1,78.3z"/>
	<path fill="#52C0E7" d="M48.9,63.7c-0.8,0.3-1.4,0.9-1.8,1.7c-0.3,0.8-0.3,1.6,0,2.4c0.3,0.8,0.9,1.4,1.7,1.7
		c0.4,0.2,0.9,0.3,1.4,0.4c0.5,0,1.1,0,1.7-0.1c0.4-0.1,1.4-0.3,3-0.6c2.1-0.5,3.7-0.8,4.6-0.9c0.9-0.1,1.9-0.1,2.9,0.1
		c-0.7-0.6-1.4-1.3-2-2.1c-0.7-1-1.6-2.4-2.6-4.3c-0.8-1.5-1.4-2.5-2-3.1c-0.6-0.6-1.2-1.1-1.9-1.4c-0.8-0.3-1.5-0.3-2.3,0
		c-0.8,0.3-1.4,0.9-1.7,1.7c-0.4,0.8-0.4,1.6,0,2.5c0.2,0.6,0.7,1.2,1.4,1.8C50.4,63.4,49.6,63.5,48.9,63.7z"/>
	<path fill="#92D2ED" d="M67.2,62.9c-0.4-0.9-0.6-1.8-0.7-2.8c-0.2-1.2-0.2-2.9-0.2-5c0-1.6,0-2.9-0.2-3.7c-0.2-0.8-0.5-1.5-0.9-2.1
		c-0.5-0.7-1.2-1-2-1.2c-0.8-0.1-1.6,0.1-2.3,0.6c-0.7,0.5-1.1,1.2-1.3,2.2c-0.1,0.7,0,1.4,0.3,2.3c-0.8-0.6-1.5-0.9-2.2-1
		c-0.9-0.1-1.7,0.1-2.4,0.6c-0.7,0.5-1.1,1.2-1.2,2c-0.1,0.8,0.1,1.6,0.6,2.3c0.3,0.4,0.6,0.7,1.1,1c0.4,0.3,0.9,0.5,1.6,0.8
		c0.4,0.1,1.4,0.4,2.9,0.9c2.1,0.6,3.6,1.1,4.5,1.5C65.7,61.7,66.5,62.2,67.2,62.9z"/>
</g>
</svg>
