<?xml version="1.0" encoding="utf-8"?>
<!-- Generator: Adobe Illustrator 18.1.0, SVG Export Plug-In . SVG Version: 6.00 Build 0)  -->
<svg version="1.0" id="Layer_1" xmlns="http://www.w3.org/2000/svg" xmlns:xlink="http://www.w3.org/1999/xlink" x="0px" y="0px"
	 viewBox="0 0 150 150" enable-background="new 0 0 150 150" xml:space="preserve">
<g>
	<path fill="#F69220" d="M107.7,72.1c2.6,3.8,6.8,1.5,9.7-1L107.7,72.1z"/>
	<g>
		<polygon fill="#F69220" points="97.7,119.1 100.1,120.5 102.4,119 102.5,121.8 104.9,123.1 102.6,124.5 102.6,127.3 100.2,126 
			97.8,127.4 97.8,124.7 95.4,123.3 97.7,121.9 		"/>
		<polygon fill="#F69220" points="70,127 72.8,126.8 74,124.3 75.5,126.6 78.3,126.4 77.1,128.9 78.6,131.1 75.9,131.3 74.7,133.8 
			73.1,131.6 70.4,131.8 71.6,129.3 		"/>
		<polygon fill="#F69220" points="85.5,123 87.9,124.4 90.3,123.1 90.2,125.8 92.6,127.3 90.2,128.6 90.1,131.3 87.8,129.9 
			85.4,131.2 85.4,128.5 83.1,127.1 85.5,125.7 		"/>
		<polygon fill="#F69220" points="59.3,123.6 61.8,124.8 64,123.1 64.3,125.9 66.9,127 64.6,128.6 64.9,131.3 62.4,130.2 
			60.2,131.9 59.9,129.1 57.4,128 59.6,126.4 		"/>
		<polygon fill="#F69220" points="49.1,119.5 51.6,120.6 53.8,119 54.1,121.7 56.6,122.8 54.4,124.4 54.7,127.2 52.2,126 
			49.9,127.7 49.7,124.9 47.1,123.8 49.4,122.2 		"/>
	</g>
	<path fill="#F69220" d="M28.3,64.9c1.1-0.6,2.3-1.1,3.4-1.7c0.2-0.1,0.3-0.2,0.5-0.2c1.2-0.5,2.3-1.1,3.5-1.6c0.1,0,0.1,0,0.2-0.1
		c1.2-0.5,2.4-1,3.6-1.5c0,0,0,0,0,0l-12.8-5.5l17.5,3.8c1.1-0.4,2.1-0.7,3.2-0.9c0,0,0,0,0,0l-7-5l11.9,3.9L34,40l21.2,12.4
		l-7.5-10.2l10.1,7.4l-12.4-21l16.3,18.4l-4-12L65.1,45l-5.3-23.8l9.8,22.5l0-12.7L73.4,43l2.3-24.3l2.4,24.4l3.9-12l0,12.5
		l9.7-22.4l-5.3,24l7.4-10.3l-3.9,11.9L106,28.5L93.6,49.7l10.2-7.5l-7.4,10.1l21-12.4L99.1,56.2l12-4L101,59.5l23.8-5.3l-20.5,8.9
		c0,0.1,0.1,0.2,0.1,0.3c0.1,0.2,0.1,0.4,0.2,0.6l10.3,0l-9.3,3c0.1,0.3,0.2,0.5,0.3,0.8c0,0.1,0.1,0.2,0.1,0.3l13.4,1.3
		c0.2-0.2,0.4-0.3,0.6-0.5c0,0,0,0,0,0c0.2-0.2,0.4-0.3,0.6-0.5c0,0,0,0,0,0c0.2-0.2,0.4-0.3,0.6-0.4c0,0,0,0,0,0
		c0.8-0.6,1.6-1.1,2.4-1.5c0,0,0,0,0,0c0.1-0.1,0.3-0.1,0.4-0.2c0.1,0,0.1-0.1,0.2-0.1c0.1-0.1,0.2-0.1,0.4-0.2
		c0.1,0,0.2-0.1,0.3-0.1c0.1,0,0.2-0.1,0.3-0.1c0.1,0,0.2-0.1,0.3-0.1c0.1,0,0.2-0.1,0.3-0.1c0.1,0,0.2-0.1,0.3-0.1
		c0.1,0,0.2,0,0.3-0.1c0.1,0,0.2,0,0.3,0c0.1,0,0.2,0,0.3,0c0.1,0,0.2,0,0.3,0c0.1,0,0.2,0,0.2,0c0.1,0,0.2,0,0.4,0
		c0.1,0,0.1,0,0.2,0c0.2,0,0.4,0.1,0.5,0.1c0-0.3,0-0.6,0-1c0-0.2,0-0.5,0-0.7c-2.7-28.8-28.2-49.9-57-47.2
		c-17.3,1.6-31.8,11.6-40,25.4c-4.4,7.4-7,16-7.3,25c1.2-0.6,2.3-1.2,3.5-1.8C28,65.1,28.1,65,28.3,64.9z"/>
	<path fill="#016938" d="M81.5,120.8c22.8-2.2,40.7-18.6,45.9-39.7c-2.1,1.2-3.6,5.2-6.6,8.7c-2.5,3.1-7.7,6.1-9.9,1.3
		c-0.7-1.6-1.4-3.5-2.1-5c-1.8-3.6-4.3,0.3-7.6,3.2c-11.6,10.4-12,7.9-21.2-0.5c-3.8-3.5-11.4-1.3-20,3.5C53.4,96,46.3,101,39.9,106
		C50.5,116.4,65.5,122.3,81.5,120.8z"/>
	<path fill="#00A59B" d="M73.9,75.2c10.5,10.7,11,13.6,23.7,2.5c3.5-3.1,6.2-7.4,8.2-3.1c0.8,1.7,1.5,4,2.3,5.9
		c2.4,5.7,8,2.8,10.6-0.6c3.6-4.7,7.3-8.2,9.9-7.3c0-0.1,0-0.2,0-0.3c-3.1-2.1-8.7,2.3-12.7,4.9c-3.5,2.3-7,4.3-9.6-1.8
		c-0.9-2.1-1.6-4.5-2.4-6.3c-2.1-4.7-7.2-0.7-10.9,2.4c-13.7,11.4-12,8.2-26.2-4c-4.8-4.2-13.6-3.8-24-0.8c-5.8,1.7-12.1,4.1-18.4,7
		c0.6,6.1,2.2,11.7,4.7,17c7.3-5.2,15.3-10.3,22.7-13.7C61.4,72.5,69.7,70.9,73.9,75.2z"/>
	<path fill="#39B24A" d="M80,88.9c9.2,8.4,9.6,10.9,21.2,0.5c3.2-2.9,5.7-6.8,7.6-3.2c0.7,1.5,1.4,3.3,2.1,5
		c2.2,4.9,7.4,1.8,9.9-1.3c2.9-3.6,4.4-7.5,6.6-8.7c0.1-0.3,0.2-0.7,0.3-1c-2.9,0.4-6.5,4.6-9.4,7.5c-2.9,2.9-6.6,4.3-8.9-0.9
		c-0.8-1.7-1.5-3.7-2.2-5.3c-1.9-3.9-6.5-0.1-9.9,2.9C84.7,95,86.3,92.2,74,82.9c-4.3-3.2-12.1-2-21.3,1.5
		C46,86.9,38.4,90.8,31.4,95c2.4,4.1,5.2,7.8,8.6,11C46.3,101,53.4,96,60,92.3C68.7,87.6,76.2,85.4,80,88.9z"/>
	<g>
		<g>
			<g>
				<path fill="#00A59B" d="M48.7,122.3c-19.4-2.1-33.5-19.5-31.4-38.9l0.7,0.1c-2.1,18.9,11.7,36,30.7,38.1L48.7,122.3z"/>
			</g>
		</g>
		<g>
			<g>
				<path fill="#00A59B" d="M11,99.5c0,0,2.9,7.5,9.7,5.8C20.7,105.3,19,98.6,11,99.5z"/>
			</g>
		</g>
		<g>
			<g>
				<path fill="#00A59B" d="M25.6,91.3c0,0-6.3,5-2.6,11C23,102.3,28.8,98.6,25.6,91.3z"/>
			</g>
		</g>
		<g>
			<g>
				<path fill="#00A59B" d="M16,108.5c0,0,3.7,7.1,10.3,4.6C26.4,113.2,23.9,106.8,16,108.5z"/>
			</g>
		</g>
		<g>
			<g>
				<path fill="#00A59B" d="M28.9,98.3c0,0-5.7,5.7-1.3,11.2C27.5,109.5,32.9,105.3,28.9,98.3z"/>
			</g>
		</g>
		<g>
			<g>
				<path fill="#00A59B" d="M8.6,89.6c0,0,1.7,7.9,8.8,7.2C17.3,96.8,16.6,89.9,8.6,89.6z"/>
			</g>
		</g>
		<g>
			<g>
				<path fill="#00A59B" d="M24,82.8c0,0-7,4-4.2,10.5C19.8,93.3,26.1,90.5,24,82.8z"/>
			</g>
		</g>
		<g>
			<g>
				<path fill="#00A59B" d="M20.7,69.6c0,0-7.2,5.8-2.9,12.6C17.9,82.2,24.5,78,20.7,69.6z"/>
			</g>
		</g>
		<g>
			<g>
				<path fill="#00A59B" d="M7.9,79.5c0,0,0.9,8,8,8C15.9,87.5,15.9,80.7,7.9,79.5z"/>
			</g>
		</g>
		<g>
			<g>
				<path fill="#00A59B" d="M23.3,117.5c0,0,5.6,5.8,11.2,1.5C34.5,119,30.3,113.6,23.3,117.5z"/>
			</g>
		</g>
		<g>
			<g>
				<path fill="#00A59B" d="M32.7,104.1c0,0-3.8,7.1,1.9,11.1C34.6,115.2,38.5,109.6,32.7,104.1z"/>
			</g>
		</g>
		<g>
			<g>
				<path fill="#00A59B" d="M32.8,123.7c0,0,6.7,4.6,11.3-0.7C44.1,122.9,38.9,118.5,32.8,123.7z"/>
			</g>
		</g>
		<g>
			<g>
				<path fill="#00A59B" d="M39.3,108.7c0,0-2.4,7.7,4.1,10.5C43.4,119.2,46.2,112.9,39.3,108.7z"/>
			</g>
		</g>
	</g>
	<g>
		<g>
			<g>
				<path fill="#00A59B" d="M105.6,119.2c19.3-2.8,32.8-20.7,30-39.9l-0.7,0.1c2.7,18.8-10.5,36.4-29.4,39.1L105.6,119.2z"/>
			</g>
		</g>
		<g>
			<g>
				<path fill="#00A59B" d="M142.5,95.1c0,0-2.6,7.6-9.5,6.1C133,101.2,134.5,94.5,142.5,95.1z"/>
			</g>
		</g>
		<g>
			<g>
				<path fill="#00A59B" d="M127.6,87.4c0,0,6.5,4.8,3,10.9C130.7,98.3,124.7,94.8,127.6,87.4z"/>
			</g>
		</g>
		<g>
			<g>
				<path fill="#00A59B" d="M137.8,104.3c0,0-3.5,7.3-10.2,5C127.6,109.3,129.9,102.8,137.8,104.3z"/>
			</g>
		</g>
		<g>
			<g>
				<path fill="#00A59B" d="M124.6,94.5c0,0,5.9,5.5,1.7,11.2C126.3,105.7,120.8,101.6,124.6,94.5z"/>
			</g>
		</g>
		<g>
			<g>
				<path fill="#00A59B" d="M144.6,85.1c0,0-1.4,7.9-8.5,7.5C136.1,92.6,136.6,85.7,144.6,85.1z"/>
			</g>
		</g>
		<g>
			<g>
				<path fill="#00A59B" d="M128.9,78.8c0,0,7.1,3.7,4.6,10.3C133.5,89.2,127.1,86.7,128.9,78.8z"/>
			</g>
		</g>
		<g>
			<g>
				<path fill="#00A59B" d="M131.8,65.6c0,0,7.4,5.5,3.3,12.5C135.1,78.1,128.3,74,131.8,65.6z"/>
			</g>
		</g>
		<g>
			<g>
				<path fill="#00A59B" d="M144.9,75.1c0,0-0.7,8-7.7,8.3C137.2,83.3,137,76.5,144.9,75.1z"/>
			</g>
		</g>
		<g>
			<g>
				<path fill="#00A59B" d="M130.8,113.5c0,0-5.4,6-11.2,1.9C119.7,115.4,123.7,109.8,130.8,113.5z"/>
			</g>
		</g>
		<g>
			<g>
				<path fill="#00A59B" d="M121,100.4c0,0,4.1,6.9-1.6,11.2C119.5,111.6,115.3,106.1,121,100.4z"/>
			</g>
		</g>
		<g>
			<g>
				<path fill="#00A59B" d="M121.6,120c0,0-6.5,4.8-11.3-0.4C110.2,119.7,115.3,115,121.6,120z"/>
			</g>
		</g>
		<g>
			<g>
				<path fill="#00A59B" d="M114.5,105.2c0,0,2.6,7.6-3.8,10.7C110.8,115.9,107.8,109.7,114.5,105.2z"/>
			</g>
		</g>
	</g>
</g>
</svg>
