<?xml version="1.0" encoding="utf-8"?>
<!-- Generator: Adobe Illustrator 14.0.0, SVG Export Plug-In . SVG Version: 6.00 Build 43363)  -->
<!DOCTYPE svg PUBLIC "-//W3C//DTD SVG 1.1//EN" "http://www.w3.org/Graphics/SVG/1.1/DTD/svg11.dtd">
<svg xmlns="http://www.w3.org/2000/svg" xmlns:xlink="http://www.w3.org/1999/xlink" version="1.1" id="Layer_1" x="0px" y="0px" width="100px" height="100px" viewBox="0 0 100 100" enable-background="new 0 0 100 100" xml:space="preserve">









<g>
	<circle fill="#231F20" cx="50.788" cy="49.18" r="39.9"/>
	<circle fill="#FFFFFF" cx="50.787" cy="49.18" r="32.718"/>
	<g>
		<path fill="#C44D9B" d="M51.324,20.724c-15.716,0-28.456,12.74-28.456,28.456c0,0.559,0.053,1.104,0.085,1.654h19.543    l23.536-17.558l1.2,1.895L45.54,50.462l22.078-7.81l0.628,2.124l-18.695,6.058h4.59c0,0.259,0,0.526,0,0.844    c0,4.994-1.773,9.285-5.359,12.774c-0.214,0.225-0.388,0.398-0.606,0.617c-1.104,0.973-2.256,1.804-3.492,2.52H29.65    c5.216,6.141,12.986,10.047,21.674,10.047c15.717,0,28.456-12.74,28.456-28.456C79.78,33.463,67.041,20.724,51.324,20.724z"/>
	</g>
</g>
</svg>
