<?xml version="1.0" encoding="utf-8"?>
<!-- Generator: Adobe Illustrator 18.1.0, SVG Export Plug-In . SVG Version: 6.00 Build 0)  -->
<svg version="1.0" id="Layer_1" xmlns="http://www.w3.org/2000/svg" xmlns:xlink="http://www.w3.org/1999/xlink" x="0px" y="0px"
	 viewBox="0 0 150 150" enable-background="new 0 0 150 150" xml:space="preserve">
<path fill="#CA92C1" d="M160.8,246.4c-0.2-0.7-0.9-1.2-1.7-1c-0.7,0.2-1.1,0.8-1,1.5c0-0.6,0.4-1.1,1-1.2c0.7-0.2,1.3,0.2,1.5,0.9
	c0.1,0.6-0.1,1.1-0.6,1.4C160.6,247.7,161,247.1,160.8,246.4"/>
<path fill="#C64D9B" d="M159.8,248.5c-0.9,0.2-1.8-0.3-2-1.1c-0.2-0.8,0.2-1.6,0.9-2c-0.6,0.3-0.9,1-0.7,1.7c0.2,0.8,1.1,1.3,1.8,1
	c0.7-0.2,1.1-0.8,1.1-1.5C161.1,247.5,160.6,248.3,159.8,248.5"/>
<g>
	<path fill="#0697CC" d="M159.8,247.2L159.8,247.2C159.8,247.2,159.8,247.2,159.8,247.2z"/>
	<path fill="#0697CC" d="M159.7,246.9C159.7,246.9,159.7,246.9,159.7,246.9C159.7,246.9,159.7,246.9,159.7,246.9z"/>
	<path fill="#C64D9B" d="M159.8,247.2c0.3-0.1,0.4-0.4,0.4-0.4s-0.2,0-0.5,0c0,0,0,0,0,0c0,0,0,0,0,0c0-0.1,0.1-0.2,0.1-0.2
		s-0.1,0-0.1,0c0,0,0,0,0,0c0,0,0,0,0,0c0.1-0.3,0-0.6,0-0.6s-0.1,0-0.1,0.1c0-0.2-0.1-0.3-0.1-0.3s-0.4,0.5-0.4,1
		c0,0,0-0.1-0.1-0.1c0-0.1-0.1-0.1-0.3,0c-0.1,0-0.2,0.1-0.3,0.1c0.2,0,0.6,0.2,0.7,0.4c0,0,0,0,0,0c0,0.2-0.1,0.4-0.3,0.4
		c0.2,0,0.4-0.2,0.4-0.4c0,0,0,0,0-0.1c0,0,0-0.1,0-0.1C159.4,247.3,159.6,247.3,159.8,247.2C159.8,247.3,159.8,247.2,159.8,247.2
		L159.8,247.2"/>
</g>
<g>
	<path fill="none" d="M98.2,105.8l-1.1,0.5c0.4,0.4,0.8,0.8,1.3,1.2l3-1.4c-0.5,0-1.1,0-1.5-0.1C99.2,106,98.7,105.9,98.2,105.8z"/>
	<path fill="none" d="M141,72.1c-2-11.2-9.8-14.5-9.8-14.5c-0.2-0.1-0.5-0.2-0.7-0.3L75.9,32.5c-0.2-0.1-0.5-0.2-0.7-0.2
		s-0.5,0.1-0.7,0.2L19.8,57.2c-0.2,0.1-0.5,0.2-0.7,0.3c0,0-7.8,3.4-9.8,14.5C9.1,73,9,74.6,9,74.6c0,0.2,0,0.4,0,0.4
		c0,0.1,0,0.1,0,0.1s0,0.3,0,0.5c0,0,0.2,1.5,0.3,2.5c2,11.2,9.8,14.6,9.8,14.6c0.2,0.1,0.5,0.2,0.7,0.3l54.6,24.7
		c0.2,0.1,0.5,0.1,0.7,0.1s0.5-0.1,0.7-0.1l18.3-8.3c-0.3-0.5-0.6-0.9-1-1.4l-17.7,8c-0.2,0.1-0.4,0.2-0.4,0.2c0,0-0.2-0.1-0.4-0.2
		L20.5,91.5c-0.2-0.1-0.5-0.2-0.8-0.3c0,0-6.9-2.5-8.8-13.3c-0.1-0.9-0.3-2.3-0.3-2.3c0-0.2,0-0.6,0-0.8c0,0,0.2-1.4,0.3-2.3
		C12.8,61.5,19.7,59,19.7,59c0.2-0.1,0.6-0.2,0.8-0.3l54.3-24.6c0.2-0.1,0.4-0.2,0.4-0.2c0,0,0.2,0.1,0.4,0.2L112.7,51
		c0.2-0.2,0.5-0.4,0.7-0.5c0,0,0.1,0,0.1,0c0.1-0.1,0.2-0.3,0.3-0.4c0.1,0,0.1,0,0.1,0c0.1,0.2,0.3,0.5,0.4,0.7
		c0.3,0.4,0.4,0.8,0.6,1.2l14.9,6.7c0.2,0.1,0.6,0.2,0.8,0.3c0,0,6.9,2.5,8.8,13.3c0.1,0.9,0.3,2.3,0.3,2.3c0,0.2,0,0.6,0,0.8
		c0,0-0.1,1.5-0.3,2.3c-1.9,10.8-8.8,13.3-8.8,13.3c-0.2,0.1-0.5,0.2-0.7,0.3l-28.6,13c1.1,0.3,2.2,0.4,3.2,0.4l0.4-0.2
		c0-0.1,0-0.2,0.1-0.2c0.1-0.6,0.3-1,0.5-0.9v0c-0.2,0-0.4,0.4-0.5,0.9c0,0.1,0,0.2,0,0.2l1.9-0.9c0.2-0.4,0.6-0.7,0.5-1.2
		c0-0.1-0.1,0.3-0.1,1L130.5,93c0.2-0.1,0.5-0.2,0.7-0.3c0,0,7.8-3.4,9.8-14.6c0.2-0.9,0.3-2.5,0.3-2.5c0-0.2,0-0.4,0-0.4
		c0-0.1,0-0.1,0-0.1c0,0,0-0.2,0-0.5C141.3,74.6,141.2,73,141,72.1z"/>
	<path fill="#446B8E" d="M88.9,103.9c-1-0.7-1.9-1.4-2.9-2.1c-1.3-0.7-2.8-1.2-4.2-1.8c-1.2-0.4-2.4-0.7-3.6-0.9
		c-3.3-0.5-6.7-0.4-10.1-0.8c-2.6-0.4-5.1-0.8-7.4-1.5c-2.8-0.7-5.5-2-7.8-4.2c-3.7-3.5-6.5-7.8-8.2-12.6c-1-2.9-1.9-5.8-2.7-8.6
		c-0.4-1.4-0.7-3-1.5-4.3c-0.9,0-1.8-0.1-2.6-0.3c-1.3-0.4-3.1-1.6-3.6-3.2c-0.5,0.3-1,0.6-1.5,0.9c-0.4,0.3-0.8,0.3-1.2,0.5
		c0,0,0,0,0,0c0.4-0.4,0.7-1,1-1.5c0.3-0.5,0.6-0.9,0.9-1.4c0.1-0.1,0.2-0.2,0.2-0.3c-0.2,0-0.4,0.1-0.6,0.1c-0.1,0-0.2,0-0.3,0
		c-1.3,0.4-2.5,0.5-3.8,0.6c-0.3,0.1-0.7,0.3-1,0.4c-0.1,0-0.1,0-0.1,0c1.1-1.1,2.7-1.8,4-2.6c0.3-0.1,0.6-0.4,0.9-0.6
		c2.2-3.7,4.2-7.1,9.2-7c2.5,0,4.9,0.7,6.8,2.5c1.3,1.3,2.6,2.8,4.3,3.7c0.4,0.2,0.7,0.4,0.9,0.5c2.1,0.1,4.1-0.1,6-1.3
		c2.9-1.8,5.5-4.2,8.5-5.9c3.1-1.7,6.3-3.3,9.6-4.8c2.7-1.2,5.9-2.8,8-5c0.4-0.5,0.7-0.9,1.1-1.4c0-0.1,0.1-0.1,0.1,0
		c-0.3,3.3-1.9,6.5-4.2,9.3c0.4-0.1,0.9-0.2,1.3-0.3c0-0.1,0.1,0,0.1,0.1c-0.3,1.5-1.1,2.6-2.2,3.5c0.4-0.1,0.8-0.1,1.3-0.1
		c0-0.1,0.1-0.1,0.1-0.1c0.1-0.1,0.2,0,0.3,0.1c1,2.9-3.4,6.7-5.5,8c-1,0.6-2,1.2-3.1,1.7c0.4-0.1,0.8-0.2,1.2-0.4
		c0.1,0,0.1,0.1,0.1,0.1c-2.1,2.9-5.6,4-9.1,4.8c-1.2,0.2-2.4,0.6-3.6,0.9c-0.1,0.1-0.2,0.3-0.3,0.5c-0.4,0.5,0,0.8,1.3,0.9
		c0,0,0,0,0.1,0c0.9-0.3,1.9-0.7,2.8-1.2c1.7-0.7,3.5-1.6,5.3-2.1c5-1.3,10.1-2.1,15.1-3.6c4.8-1.4,9.7-2.9,14.2-5.1
		c3.7-1.9,6.8-4.6,10.3-6.8L75.5,34.1c-0.2-0.1-0.4-0.2-0.4-0.2c0,0-0.2,0.1-0.4,0.2L20.5,58.7c-0.2,0.1-0.5,0.2-0.8,0.3
		c0,0-6.9,2.5-8.8,13.3c-0.1,0.9-0.3,2.3-0.3,2.3c0,0.2,0,0.6,0,0.8c0,0,0.2,1.5,0.3,2.3c1.9,10.8,8.8,13.3,8.8,13.3
		c0.2,0.1,0.6,0.2,0.8,0.3l54.3,24.6c0.2,0.1,0.4,0.2,0.4,0.2c0,0,0.2-0.1,0.4-0.2l17.7-8C91.9,106.5,90.5,105.1,88.9,103.9z"/>
	<path fill="#0078BF" d="M67.9,74.1c0,0-0.9,3.5,2.9,4.9C70.7,79,71.1,75.6,67.9,74.1z"/>
	<path fill="#0078BF" d="M72.7,73.9c0,0-0.6,4.5,3.8,6.3C76.5,80.3,77.1,75.5,72.7,73.9z"/>
	<path fill="#0078BF" d="M113.4,59.8c0.5-0.3,0.9-0.6,1.4-0.8c0.1,0,0.2,0,0.2,0.1c0.1,0.7-0.1,1.4-0.3,2.1c0,3.7-3,7.3-5.6,9.9
		c-0.2,0.2-0.5,0.5-0.8,0.7c0.8-0.4,1.6-0.8,2.3-1.1c0.1-0.1,0.3,0,0.2,0.2c-3,6.2-11.3,11-17.7,12.7c-3.7,1-7,1.4-10.8,0.8
		c-1.9-0.3-4-0.5-6-0.8v0c1,0.3,2,0.7,3.2,1.3c0,0,0,0,0,0.1c-0.9,0.5-1.4,0.4-2.5,0.4c-0.5,0-0.9,0-1.4,0c1.9,1.8,3.4,3.9,5,6
		c2.8,3.6,6.7,5.3,10.3,7.9c2.7,1.9,6.4,4.3,10.1,5.2l28.6-13c0.2-0.1,0.5-0.2,0.7-0.3c0,0,6.9-2.5,8.8-13.3
		c0.2-0.9,0.3-2.3,0.3-2.3c0-0.2,0-0.6,0-0.8c0,0-0.2-1.4-0.3-2.3c-1.9-10.8-8.8-13.3-8.8-13.3c-0.2-0.1-0.5-0.2-0.8-0.3L115,52
		C116,54.4,114.9,57.3,113.4,59.8z"/>
	<path fill="#446B8E" d="M107.8,58.4c-3,3.5-12.1,8.3-23.8,9.9c-11.7,1.7-18.2,5.3-18.2,5.3c8.5-2.3,11.2-0.9,25-3.4
		C106,67.5,107.8,58.4,107.8,58.4z"/>
	<path fill="#0078BF" d="M106.2,66.1c0,0,1.2,0.9,2.8,0.1C109,66.2,108.2,64.9,106.2,66.1z"/>
	<path fill="#0078BF" d="M91.1,72.8c0,0,0,4.7,5,6.1C96.1,78.9,96.5,73.2,91.1,72.8z"/>
	<path fill="#0078BF" d="M98.3,70.8c0,0-1.4,4.1,4.1,4.9C102.4,75.8,102.3,70.7,98.3,70.8z"/>
	<path fill="#446B8E" d="M36.6,59.6c1.2,0,1.2-1.8,0-1.8C35.5,57.7,35.5,59.6,36.6,59.6z"/>
	<path fill="#0078BF" d="M103.1,68.7c0,0,0.7,2.5,3.2,2.3C106.4,71,105.9,68.5,103.1,68.7z"/>
	<path fill="#0078BF" d="M84.8,73.7c0,0-0.8,4.9,4.8,6.3C89.7,80,89.5,74.6,84.8,73.7z"/>
	<path fill="#0078BF" d="M78.3,73.9c0,0-0.4,4.6,4.6,6.3C82.9,80.2,84.5,75.5,78.3,73.9z"/>
	<path fill="#446B8E" d="M77.8,50.1c-0.9,1.6-4,4.4-8.5,6.1c-4.5,1.7-6.8,3.8-6.8,3.8c3.2-1.7,4.4-1.4,9.6-3.6
		C77.9,53.9,77.8,50.1,77.8,50.1z"/>
	<path fill="#FFFFFF" d="M106.8,103.7l0.4-0.2c0-0.7,0.1-1.1,0.1-1C107.4,103,107,103.3,106.8,103.7z"/>
	<path fill="#FFFFFF" d="M104.9,104.6L104.9,104.6c0-0.1,0-0.2,0.1-0.2C104.9,104.4,104.9,104.5,104.9,104.6z"/>
	<path fill="#FFFFFF" d="M105.4,103.4c-0.2-0.1-0.4,0.4-0.5,0.9C105.1,103.8,105.2,103.4,105.4,103.4L105.4,103.4z"/>
	<path fill="#446B8E" d="M142.9,74.4c0,0-0.2-1.6-0.3-2.6c-2.1-11.9-10.8-15.7-10.8-15.7c-0.2-0.1-0.5-0.3-0.7-0.3L76.2,30.9
		c-0.2-0.1-0.6-0.2-0.8-0.2h-0.6c-0.2,0-0.6,0.1-0.8,0.2L19.2,55.7c-0.2,0.1-0.5,0.2-0.7,0.3c0,0-8.7,3.8-10.8,15.7
		c-0.2,1-0.3,2.6-0.3,2.6c0,0.2,0,0.5-0.1,0.5c0,0.1,0,0.2,0,0.3c0,0.1,0,0.3,0.1,0.5c0,0,0.2,1.6,0.3,2.6
		c2.1,11.9,10.8,15.8,10.8,15.8c0.2,0.1,0.5,0.2,0.7,0.3l51.2,23.2l3.6,1.6c0.2,0.1,0.6,0.2,0.8,0.2h0.6c0.1,0,0.3-0.1,0.5-0.1
		c0.1,0,0.2,0,0.3-0.1l18.9-8.5l4.5-2l4.9-2.2l0.2-0.1l2.4-1.1l1.2-0.5l22.8-10.3c0.2-0.1,0.5-0.3,0.7-0.3c0,0,8.7-3.9,10.8-15.8
		c0.2-1,0.3-2.6,0.3-2.6c0-0.2,0-0.5,0.1-0.5c0-0.1,0-0.2,0-0.3C143,74.9,143,74.7,142.9,74.4z M141.4,75.2c0,0,0,0.2,0,0.5
		c0,0-0.2,1.5-0.3,2.5c-2,11.2-9.8,14.6-9.8,14.6c-0.2,0.1-0.5,0.2-0.7,0.3l-23.2,10.5l-0.4,0.2l-1.9,0.9h0l-0.4,0.2l-3.1,1.4
		l-3,1.4l-4.2,1.9l-18.3,8.3c-0.2,0.1-0.5,0.1-0.7,0.1s-0.5-0.1-0.7-0.1L19.8,93c-0.2-0.1-0.5-0.2-0.7-0.3c0,0-7.8-3.4-9.8-14.6
		C9.1,77.2,9,75.6,9,75.6c0-0.2,0-0.4,0-0.4s0-0.1,0-0.1c0,0,0-0.3,0-0.5c0,0,0.2-1.6,0.3-2.5c2-11.2,9.8-14.5,9.8-14.5
		c0.2-0.1,0.5-0.2,0.7-0.3l54.6-24.7c0.2-0.1,0.5-0.2,0.7-0.2s0.5,0.1,0.7,0.2l54.6,24.7c0.2,0.1,0.5,0.2,0.7,0.3
		c0,0,7.8,3.4,9.8,14.5c0.2,0.9,0.3,2.5,0.3,2.5c0,0.2,0,0.4,0,0.4C141.4,75.1,141.4,75.1,141.4,75.2z"/>
</g>
</svg>
