<?xml version="1.0" encoding="utf-8"?>
<!-- Generator: Adobe Illustrator 18.1.0, SVG Export Plug-In . SVG Version: 6.00 Build 0)  -->
<svg version="1.1" id="Layer_1" xmlns="http://www.w3.org/2000/svg" xmlns:xlink="http://www.w3.org/1999/xlink" x="0px" y="0px"
	 viewBox="0 0 150 150" enable-background="new 0 0 150 150" xml:space="preserve">
<g>
	<path fill="#F6921E" d="M130.7,55.8c-0.5,0.3-1.2,0.5-1.8,0.7c0.1,0.1,0.3,0.2,0.4,0.2c-1.7,1.5-6.9,2.7-11,2.6
		c0.5,0.8,1,1.6,1.6,2.3c-0.9,0.5-2.1,0.8-3.2,1c0.2,0.3,0.4,0.5,0.6,0.8c-1.6,0.9-3.7,1.2-6,1.1c4.3,2.4,7.6,5.6,10.6,9.6
		c2.9,3.8,5.7,7.8,7.8,12c1.3,2.6,2.3,7.4,4.2,9.5c0,0,0,0,0.1,0c0.1,0.2,0.1,0.2,0,0c0,0,0,0,0-0.1c-1.1-0.5-2.7-1.1-4.5-1.6
		c0.5,1.3,1.1,2.6,1.8,3.4c0,0,0,0,0,0c0.1,0.2,0.1,0.2,0,0c0,0,0,0,0-0.1c-2.7-1.3-8.5-2.5-11.5-5.1c0,0.2,0,0.5,0,0.7
		c-0.7-0.3-1.6-1-2.5-1.8c-0.3,1.1-0.3,2.3-0.1,3.5c-2.9-1.4-8.3-7.2-9-11.7c-0.2-0.2-0.3-0.4-0.5-0.6c-0.4,1.2-0.6,2.5-0.5,4
		c-2.5-2.3-5.5-6.2-7.5-10.2c1.6,6,5,12.3,5.8,17.2c0.9,5.5,1.2,10.8-0.8,16.1c-1.2,3.3-3.4,7.8-7,9.2c-1,1-2.2,1.8-3.5,2
		c-2.3-3.3-7.3-13.2-6.1-18.7c-0.1-0.5-0.2-1.1-0.2-1.6c-1.2,1-2,2.3-2.3,3.7c-0.5-4.1-1.6-7.6-0.6-11.7c0.4-1.5,3-9.1,4.8-9.2
		c-1.8,0.1-3.9,0.7-5.1,2.1c-0.8-7.1,4.9-14.6,9.5-19.9c-0.2,0.1-0.3,0.2-0.5,0.3c-3.8,3.1-10,4.6-14.2,6.3c-5.1,2-10.1,0.4-7.3-4.5
		c-0.5,0.4-1.1,0.7-1.6,1c-2.5,1.9-5.9,3.6-8.3,4.1c-5.6,1.1-2.9-3.4-0.1-5.2c-12.9,4.5-15.8-1.6-25.3-8.9c2.7,1.5,5.2,2.1,7.5,2.2
		c-1.5-1.2-3-2.6-4.8-4c10.1,5.6,16.1-0.8,26.2-2.2c3.9-0.5,16.4-2.6,24.1-1.1c-3.5-3.6-8.4-6.2-12.2-8.7c-5.2-3.4-8.1-8.9-9.8-14.7
		c-0.4-1.4-2.2-16.1-2.3-16.1c1.1,0.5,2.2,1.1,3.1,1.8C68.2,13.5,68,12,68,12c5.5,2.4,8.7,7.2,11,12.5c0.3-0.6,0.5-1.1,0.6-1.5
		c0.6,0.2,1.1,0.5,1.6,0.9c0.4-1.1,0.9-2.1,1.1-2.6c4.5,1.4,5.8,8.5,7.4,13.7c0.1-0.7,0.1-1.5,0-2.3c0.1,1,1,2.3,2,3.5
		c0.5-1.7,0.8-3.3,0.7-5.3c0.2,2.1,3.7,5.2,5.2,7.5c0.5-4.1,1.6-8.1,3.2-11.4c1.8-3.8,4-6.8,6.6-9.3c-5.6-3.7-11.8-6.6-18.5-8.4
		c-30.5-8-64.2,11.7-72.6,42.1C11.3,69.5,18,101.2,34,116.7c-21.8-17-31.4-47.5-23.8-74.9c-16.5,27.5-1,69.8,25.4,87.4
		c0.2-0.3,0.3-0.5,0.5-0.8c3.1-5.8,5.8-11.4,9.8-16.5c5.3-7.1,10.8-13.9,17-20.2c1-1,2-2,3.1-3.1c0.4-0.5,0.9-0.9,1.3-1.4
		c2.9-3,6-6.1,9.1-8.8c3-2.7,7-4,10.1-6.6c-2,1.7-3.9,3.6-5.8,5.6c0.1-0.1,0.3-0.2,0.4-0.3c-0.3,0.3-0.6,0.6-0.9,0.9
		c-1.2,1.2-2.3,2.5-3.4,3.7c-2.9,3.3-6.1,6.4-8.9,9.8c-4.1,5.3-7.7,10.6-10.3,16.5c-1.6,3.9-3.2,7.6-4.1,11.8
		c-0.6,2.5-1.5,4.8-3.2,6.9c-0.7,0.8-2.4,1.7-3.8,2.7c-0.2,0.2-0.5,0.4-0.8,0.6c-0.7,0.6-1.3,1.3-1.2,1.9c0.2,1.3,4.3,2.8,5.2,3.8
		c0.1,0.1,0,0.1,0,0.2c32.1,10.6,65.2-2.1,82.2-32.1c8-14.6,8.6-31.8,3.7-47.6C133.9,56.2,132.3,56.1,130.7,55.8z"/>
	<path fill="#3B2314" d="M41.2,134c-0.2-1.4,2.5-2.8,4.3-4c0.3-0.2,0.6-0.4,0.8-0.6c0.1-0.1,0.3-0.2,0.4-0.3c1.6-2,2.5-4.1,3.1-6.5
		c0.9-3.9,2.4-7.4,3.9-11.1c2.5-5.6,5.9-10.6,9.8-15.6c2.6-3.2,5.7-6.1,8.4-9.3c2.6-2.9,5.3-5.9,8.3-8.5c0.3-0.3,0.6-0.6,0.9-0.9
		c-0.1,0.1-0.3,0.2-0.4,0.3c-2.9,2.3-6.4,3.5-9.2,6c-1.9,1.7-3.7,3.5-5.6,5.3c-1,1-2.1,2.1-3.1,3.1c-6.2,6.3-11.8,13.1-17,20.2
		c-3.9,5-6.7,10.6-9.8,16.5c-0.2,0.3-0.3,0.6-0.5,0.8c-2.4,4.1-5.5,8.4-6.4,13c2.4,1.2,6-1.9,8.3-2.5c0.5-0.1,9.4-1.5,8.7-2.2
		c-0.1-0.1-0.4-0.3-0.7-0.5C44,136.2,41.4,135,41.2,134z"/>
	<path fill="#009345" d="M147,53.9c-0.7-0.2-1.4-0.5-2.1-0.7c-6.1-2.4-10.8-7.8-18.1-7.1c-6.7,0.6-12.9,1.8-17.9,5.4
		c0.6-1,1.2-1.9,1.8-2.9c1.1-1.9,3.6-8.2-1.2-7.1c0.9-0.9,2-1.5,3.2-2.2c1.2-0.7,2.4-1.3,3.4-2.2c0.7-0.6,1.3-1.2,1.8-2
		c2.7-4.7-2.1-5-5.3-3.1c1.2-1.6,2.4-3,3.4-4.7c2.1-3.6,2.4-6.1,2.7-10c0.2-3.3,0.2-7.3,3.7-8.9c-2.9,1.3-5.5,2.6-7.9,4.1
		c-2.6,1.6-5,3.4-7.1,5.5c-2.5,2.5-4.7,5.6-6.6,9.3c-1.6,3.2-2.7,7.3-3.2,11.4c-0.5,4.6-0.3,9.3,0.9,13.4c-1.3-3.5-1.5-7.2-3.1-10.7
		c-0.6-1.4-2.3-3.2-3.8-4.9c-1-1.3-1.9-2.5-2-3.5c0.1,0.8,0,1.5,0,2.3c-0.2,1.8-0.8,3.4-1.3,5.3c-2.2-4.1-3-13.2-7.2-16.4
		c-0.5-0.4-1-0.7-1.6-0.9c-0.1,0.3-0.3,0.9-0.6,1.5c-0.7,1.7-1.7,4-1.4,4.9C75.7,24,73,18.9,68.5,15.6c-1-0.7-2-1.3-3.1-1.8
		c0,0,1.8,14.7,2.3,16.1c1.7,5.8,4.6,11.3,9.8,14.7c3.8,2.5,8.8,5.1,12.2,8.7c1.6,1.6,2.9,3.4,3.5,5.6c-2.3-7.3-24.8-3.5-30.3-2.8
		c-7.4,1-12.5,4.7-18.7,4.4c-2.3-0.1-4.7-0.7-7.5-2.2c9.5,7.3,12.4,13.4,25.3,8.9c-2.8,1.8-5.5,6.3,0.1,5.2c2.4-0.5,5.8-2.2,8.3-4.1
		c1.1-0.8,2-1.6,2.5-2.4c-0.4,0.5-0.7,1-0.9,1.4c-2.9,4.9,2.1,6.5,7.3,4.5c4.3-1.7,10.5-3.2,14.2-6.3c0.5-0.4,1-0.9,1.4-1.3
		c-0.3,0.3-0.6,0.7-0.9,1.1c-4.5,5.3-10.3,12.8-9.5,19.9c1.2-1.4,3.3-2,5.1-2.1c-1.8,0.1-4.5,7.7-4.8,9.2c-1,4.1,0,7.6,0.6,11.7
		c0.3-1.3,1.2-2.7,2.3-3.7c0.5-0.4,1-0.7,1.6-1c-0.7,0.7-1.1,1.5-1.3,2.6c-1.2,5.5,3.9,15.5,6.1,18.7c1.4-0.3,2.5-1.1,3.5-2
		c2-2,3.5-5,4.4-7.4c2-5.3,1.7-10.6,0.8-16.1c-1.3-8.1-9.6-20-5.6-28.1c-0.2,2.7,0.9,6,2.5,9.2c2.1,4,5,7.9,7.5,10.2
		c0-1.5,0.2-2.7,0.5-4c0.2-0.8,0.4-1.5,0.8-2.3c-0.4,0.8-0.5,1.8-0.3,2.9c0.8,4.5,6.2,10.3,9,11.7c-0.1-1.2-0.1-2.4,0.1-3.5
		c0.2-0.7,0.4-1.3,0.7-1.9c0.2,1.2,0.8,2.1,1.7,2.9c2.9,2.6,8.7,3.8,11.5,5.1c-0.7-0.8-1.3-2-1.8-3.4c-0.8-2.1-1.5-4.5-2.3-6.1
		c-2.2-4.3-4.9-8.2-7.8-12c-3-4-6.4-7.3-10.7-9.7c-3.7-2-7.6-3-11.1-4.8c3.5,1.4,9.1,3.1,13.9,3.2c2.2,0,4.3-0.2,6-1.1
		c-0.2-0.2-0.4-0.5-0.6-0.8c-1.1-1.6-2-3.5-3.5-4.7c1,1,2.9,1.4,5.1,1.4c4.2,0.1,9.3-1.1,11-2.6c-0.2,0-0.3-0.1-0.4-0.2
		c-0.8-0.4-1.5-1.2-1.7-2c1.1,0.7,2.3,1,3.6,1.3c1.5,0.3,3.1,0.4,4.7,0.3c0.7,0,1.5-0.1,2.2-0.1C140.7,55.7,144.3,53.9,147,53.9z"/>
</g>
</svg>
