<?xml version="1.0" encoding="utf-8"?>
<!-- Generator: Adobe Illustrator 18.1.0, SVG Export Plug-In . SVG Version: 6.00 Build 0)  -->
<svg version="1.0" id="Layer_1" xmlns="http://www.w3.org/2000/svg" xmlns:xlink="http://www.w3.org/1999/xlink" x="0px" y="0px"
	 viewBox="0 0 150 150" enable-background="new 0 0 150 150" xml:space="preserve">
<path fill="#9DD6C9" d="M96,16.4c0,0,0-0.1,0.1-0.1c-0.2,0.2-0.3,0.3-0.5,0.5C95.8,16.7,95.9,16.6,96,16.4z"/>
<g>
	<path fill="#DC1F26" d="M118.6,118.4c-2.5,6.7-7.1,12.5-12.9,16.6c-5.7,4.1-12.7,6.4-19.7,6.6c-7,0.2-13.9-1.7-19.8-5.4
		c-5.8-3.7-10.5-9-13.3-15.3c-2.8-6.2-3.7-13.2-2.5-19.8c0.5-3,1.5-6,2.8-8.7c0.1-0.7,0.2-1.5,0.4-2.2c1-4.8,2.6-9.4,4.3-14.1
		c-1.1,1-2.2,2.1-3.2,3.3c-5.2,5.9-8.5,13.3-9.5,21c-1,7.7,0.4,15.6,3.8,22.5c3.4,6.9,8.9,12.7,15.5,16.4c6.6,3.8,14.2,5.5,21.7,5
		c7.5-0.5,14.7-3.3,20.6-7.8c5.9-4.5,10.3-10.8,12.6-17.8c2.4-7,2.5-14.5,0.6-21.5C121.7,104.2,121.2,111.7,118.6,118.4z"/>
	<path fill="#E87C60" d="M135.8,59.3c-0.3,0-0.6,0-1,0c-0.2,1-0.3,2-0.5,3c-1.2,4.6-3.3,8.8-7.1,11.6c-4.2,3.1-8.7,5.7-13.2,8.4
		c-0.6,0.4-1.9,0.3-2.4-0.1c-5.3-3.8-10.5-7.6-15.6-11.6c-4.5-3.5-7.5-8.1-8.5-13.9c-0.1-0.7-0.5-1.3-1.2-2.7
		c-1.8,4.8-1.2,8.7,0.5,12.4c2.8,6.2,7.6,10.6,13,14.6c2.2,1.6,4.4,3.3,7,5.2c-1.3,0.9-2.3,1.4-3.2,2c-3.1,2-6.3,3.9-9.2,6.1
		c-8.1,6.1-10.8,14.8-7.5,23.8c0.3,0.8,0.9,1.6,1.3,2.3c0.3-0.1,0.6-0.1,0.8-0.2c-0.4-6.7-0.1-13.2,5.1-18.4
		c4.8-4.7,10.5-7.6,16.7-10.9c2.5,9.4-3.8,14.5-9,20.5c1,0,1.4,0.1,1.7,0c8.6-2.1,15-12,13.1-20.7c-0.5-2.3,0.2-3.3,2-4.4
		c2.9-1.7,5.8-3.5,8.5-5.6c5.8-4.6,9.8-10.3,9.6-18.1C136.6,61.6,136,60.5,135.8,59.3z"/>
	<path fill="#00AEB1" d="M53.2,92.4c-1.5,10.2,1.2,19.5,9,27c2.3,2.2,5.2,3.8,7.9,5.6c0.6-0.3,1.2-0.6,1.8-0.8
		c-19.6-19.4-9.4-38,0-57.3c6,4.1,8.8,9.3,9,15.7c0.2,5.9-0.5,11.8-0.8,18.3C90,89.8,90,72,80.2,62.3c-3.4-3.4-3.6-6-1.8-10.1
		c4.3-9.8,7.5-20,5.9-31c-1-7.1-3.8-13.3-10.6-17.3c0.4,1.3,1,2.5,1.3,3.9c1,4.7,2.6,9.4,2.8,14.1C78,33.2,72.9,43.1,68.1,53
		c-0.5,1-2.5,1.8-3.8,1.8c-6.3,0.2-12.6,0.1-18.8,0.3C31.8,55.5,19,53.6,8.8,43.4c-0.2-0.2-0.9-0.1-1.8-0.1c2.9,9,9.1,14.7,17.3,17
		C32.6,62.5,41.4,63,50,64c3.9,0.4,7.8,0.1,12.5,0.2c-1.3,3.1-2.3,5.3-3.1,7.5c-0.5,1.5-1,2.9-1.5,4.3c-1.6,4.7-3.3,9.3-4.3,14.1
		C53.5,90.9,53.4,91.6,53.2,92.4z"/>
	<path fill="#E87C60" d="M115.9,76.5c3.5-1.9,4.6-6.3,2.6-9.9c-2.1-3.6-6.1-4.7-9.8-2.6c-3.4,2-4.6,6.6-2.6,9.9
		C107.9,77.1,112.5,78.3,115.9,76.5z"/>
	<path fill="#00AEB1" d="M57.1,49.5c6.1-1.4,9.6-6.9,8.2-13.1c-1.4-6.4-7.4-10.3-13.4-8.7c-6,1.6-9.3,7.2-7.8,13.5
		C45.4,47.4,51,50.9,57.1,49.5z"/>
</g>
</svg>
