<?xml version="1.0" encoding="utf-8"?>
<!-- Generator: Adobe Illustrator 18.1.0, SVG Export Plug-In . SVG Version: 6.00 Build 0)  -->
<svg version="1.1" id="Layer_1" xmlns="http://www.w3.org/2000/svg" xmlns:xlink="http://www.w3.org/1999/xlink" x="0px" y="0px"
	 viewBox="0 0 150 150" enable-background="new 0 0 150 150" xml:space="preserve">
<g>
	<g>
		<path fill="#50C9ED" d="M129.5,59.5c-2.6,0-4.9,1.5-5.9,3.5H69v6h54.6c1,2,3.3,3.8,5.9,3.8c3.6,0,6.5-3,6.5-6.7
			C136.1,62.5,133.1,59.5,129.5,59.5z M132.8,68.4c-0.9,0-1.6-1.2-1.6-2.7c0-1.5,0.7-2.7,1.6-2.7c0.9,0,1.6,1.2,1.6,2.7
			C134.4,67.2,133.7,68.4,132.8,68.4z"/>
	</g>
	<g>
		<path fill="#0081C3" d="M117.2,72.3c-2.6,0-4.9,1.7-5.9,3.7H56v6h55.3c1,2,3.3,3.6,5.9,3.6c3.6,0,6.5-3,6.5-6.7
			C123.8,75.3,120.8,72.3,117.2,72.3z M118.9,81.7c-0.9,0-1.6-1.2-1.6-2.7c0-1.5,0.7-2.7,1.6-2.7s1.6,1.2,1.6,2.7
			C120.5,80.5,119.8,81.7,118.9,81.7z"/>
	</g>
	<g>
		<path fill="#50C9ED" d="M105.7,86c-2.6,0-4.9,1-5.9,4H45v5h54.8c1,2,3.3,3.8,5.9,3.8c3.6,0,6.5-2.8,6.5-6.4
			C112.2,88.8,109.3,86,105.7,86z M108.8,94.6c-0.9,0-1.6-1.2-1.6-2.7c0-1.5,0.7-2.7,1.6-2.7c0.9,0,1.6,1.2,1.6,2.7
			C110.4,93.4,109.6,94.6,108.8,94.6z"/>
	</g>
	<g>
		<ellipse fill="none" cx="120.5" cy="104" rx="1.6" ry="2.7"/>
		<path fill="#0081C3" d="M117.2,98.3c-2.6,0-4.9,1.7-5.9,3.7H56v6h31.1c-6.5,5.4-14.9,8.6-24,8.6c-20.9,0-37.8-16.9-37.8-37.8
			C25.3,57.8,42.2,41,63.1,41c5.1,0,10,1,14.4,3h19c-8.7-9-20.5-13.6-33.4-13.6c-26.7,0-48.4,21.6-48.4,48.4
			c0,26.7,21.7,48.4,48.4,48.4c15.7,0,29.7-7.6,38.5-19.2h9.7c1,2,3.3,3.7,5.9,3.7c3.6,0,6.5-3,6.5-6.7
			C123.8,101.4,120.8,98.3,117.2,98.3z M120.5,106.6c-0.9,0-1.6-1.2-1.6-2.7c0-1.5,0.7-2.7,1.6-2.7c0.9,0,1.6,1.2,1.6,2.7
			C122.1,105.4,121.3,106.6,120.5,106.6z"/>
	</g>
	<g>
		<path fill="#0081C3" d="M110.7,47.1c-2.6,0-4.9,1.9-5.9,3.9H50v5h54.8c1,3,3.3,3.9,5.9,3.9c3.6,0,6.5-2.8,6.5-6.4
			C117.3,49.9,114.3,47.1,110.7,47.1z M114.8,56.7c-0.9,0-1.6-1.2-1.6-2.7c0-1.5,0.7-2.7,1.6-2.7c0.9,0,1.6,1.2,1.6,2.7
			C116.4,55.5,115.7,56.7,114.8,56.7z"/>
	</g>
</g>
</svg>
