<?xml version="1.0" encoding="utf-8"?>
<!-- Generator: Adobe Illustrator 18.1.0, SVG Export Plug-In . SVG Version: 6.00 Build 0)  -->
<svg version="1.1" id="Layer_1" xmlns="http://www.w3.org/2000/svg" xmlns:xlink="http://www.w3.org/1999/xlink" x="0px" y="0px"
	 viewBox="0 0 150 150" enable-background="new 0 0 150 150" xml:space="preserve">
<g>
	<path fill="none" d="M102.4,31H75.1H44.7c-1.3,0-2.7,0.8-2.7,2.1V41v0h33.1H105v0v-7.9C105,31.8,103.7,31,102.4,31z"/>
	<rect x="15" y="126" fill="#D96327" width="10" height="8"/>
	<path fill="#E1AB25" d="M61.3,64.5c3.7-2.3,8.1-3.7,12.8-3.7c0.3,0,0.9,0,0.9,0.1V41H42l0,0h-9l0,0H13.4C9.5,41,6,44.5,6,48.4V82
		h44C51,75,55.3,68.3,61.3,64.5z"/>
	<path fill="#F7BB17" d="M133.6,41H114l0,0h-9l0,0H75v19.9C87,61.3,96.8,70,98.3,82H141V48.4C141,44.5,137.5,41,133.6,41z M128,58
		h-19V47h19V58z"/>
	<path fill="#D96327" d="M42,33.1c0-1.3,1.4-2.1,2.7-2.1H75V21H44.7C38.2,21,33,26.6,33,33.1V41h9V33.1z"/>
	<path fill="#694E32" d="M74.1,109.6c-4.7,0-9.1-1.4-12.8-3.7c-6.9-4.3-11.5-12-11.5-20.7c0-0.9,0.1-1.8,0.2-2.7
		c0-0.2,0-0.6,0.1-0.6H6v0.6v36c0,3.9,3.5,7.5,7.4,7.5h1.2h10.6H75v-16.4C75,109.6,74.4,109.6,74.1,109.6z"/>
	<path fill="#75573A" d="M98.4,82.6c0.1,0.9,0.1,1.8,0.1,2.6c0,13.1-10.5,23.8-23.5,24.4V126h48h10.6c3.9,0,7.4-3.6,7.4-7.5v-36V82
		H98.3C98.4,82,98.4,82.4,98.4,82.6z"/>
	<path fill="#694E32" d="M61,76.6c-1,1.8-1.8,3.8-2.2,5.9c-0.2,0.9-0.3,1.7-0.3,2.6c0,3.2,1.5,6.1,2.5,8.6V82.6V76.6z"/>
	<path fill="#75573A" d="M61,76.6v5.9v11.2c2,2.7,4.5,4.7,7.6,5.9c1.7,0.6,3.6,1,5.5,1c0.3,0,0.7,0,1,0c1.6-0.1,3.1-0.4,4.5-1
		c5.9-2.2,10-7.8,10-14.5c0-0.9-0.1-1.8-0.2-2.6c-1.2-7-7.1-12.3-14.2-12.8c-0.3,0-0.8,0-1.1,0C68.7,69.8,64,72.5,61,76.6z"/>
	<rect x="123" y="126" fill="#F16B24" width="11" height="8"/>
	<path fill="#F16B24" d="M102.4,31c1.3,0,2.6,0.8,2.6,2.1V41h9v-7.9c0-6.5-5.1-12.1-11.6-12.1H75v10H102.4z"/>
	<path fill="#F16B24" d="M61.3,64.5C55.3,68.3,51,74.6,50,82c0,0.2,0,0.4-0.1,0.6c-0.1,0.9-0.2,1.7-0.2,2.6
		c0,8.7,4.6,16.4,11.6,20.7c3.7,2.3,8.1,3.7,12.8,3.7c0.3,0,0.6,0,1,0c13-0.5,23.4-11.2,23.4-24.4c0-0.9-0.1-1.8-0.1-2.6
		c0-0.2-0.1-0.4-0.1-0.6c-1.5-11.6-11.3-20.7-23.2-21.1c-0.3,0-0.6,0-1,0C69.5,60.8,65.1,62.2,61.3,64.5z M89.4,82.6
		c0.1,0.9,0.2,1.7,0.2,2.6c0,6.6-4.2,12.3-10,14.5c-1.4,0.5-2.9,0.9-4.4,1c-0.3,0-0.6,0-1,0c-1.9,0-3.7-0.4-5.4-1
		c-3-1.1-5.6-3.2-7.4-5.9c-1.7-2.5-2.6-5.4-2.6-8.6c0-0.9,0.1-1.8,0.2-2.6c0.4-2.2,1.2-4.2,2.4-5.9c2.8-4.1,7.5-6.9,12.8-6.9
		c0.3,0,0.6,0,1,0C82.3,70.3,88.2,75.6,89.4,82.6z"/>
	<rect x="109" y="47" fill="#F16B24" width="19" height="11"/>
</g>
</svg>
