<?xml version="1.0" encoding="utf-8"?>
<!-- Generator: Adobe Illustrator 18.1.0, SVG Export Plug-In . SVG Version: 6.00 Build 0)  -->
<svg version="1.0" id="Layer_1" xmlns="http://www.w3.org/2000/svg" xmlns:xlink="http://www.w3.org/1999/xlink" x="0px" y="0px"
	 viewBox="0 0 150 150" enable-background="new 0 0 150 150" xml:space="preserve">
<path fill="none" d="M62.1,136.1c1.3,0.3,2.5,0.6,3.8,0.8l0-0.3L62.1,136.1z"/>
<g>
	<g>
		<g>
			<path fill="#3F4648" d="M56.4,72.8c1.4,5.1,4.7,9.8,9.5,12.3c1.3-0.8,2.7-1.7,4.2-2.1c2.9-1,6.1-1.1,9.1-1.6c3-0.4,6-1.1,8.9-2
				c0.3,0.4,0.9,0.8,0.8,1.4c-0.1,1.1-1.1,1.7-1.9,2.3c-2.3,1.5-4.9,2.4-7.4,3.3c-0.4,0.1-1.2,0.6-0.5,0.9c2.8-0.4,5.6-1.3,8.4-1.8
				c2.8-3.4,6.2-6.1,9-9.6c1-1.7,1.9-3.9,4.1-4.2c-0.6,5.8-2.9,11.5-6.9,15.9c-4,4.3-9.4,7.2-15.1,8.5c-6.9,1.5-14.2-0.2-20.1-3.9
				c-5-3.1-8.7-8.1-10.9-13.6C45.4,72.8,54.9,67.2,56.4,72.8z"/>
		</g>
	</g>
	<g>
		<g>
			<g>
				<g>
					<path fill="#016165" d="M54.3,51c-0.4,0.4-0.3,1.1,0.1,1.5c-0.2,1.1,0.3,2.5,1.5,3.6c1.1,1.2,2.6,1.7,3.6,1.5
						c0.4,0.4,1.1,0.5,1.5,0.1c0.5-0.5,0.3-1.1,0.2-1.4l-5.5-5.5C55.4,50.8,54.8,50.6,54.3,51z"/>
					<path fill="#016165" d="M62.7,44.3c-0.4-0.4-1.1-0.5-1.5-0.1c-0.5,0.5-0.2,1.1-0.2,1.4l5.5,5.5c0.3,0.1,0.9,0.3,1.4-0.2
						c0.4-0.4,0.3-1.1-0.1-1.5c0.2-1.1-0.3-2.5-1.5-3.6C65.2,44.6,63.8,44.1,62.7,44.3z"/>
					<path fill="#016165" d="M61.3,55l0.5-0.5c-0.4-0.5-0.5-1.4,0.5-2.4c1-1,1.9-1,2.4-0.5l0.5-0.5l-4.3-4.3L57,50.7L61.3,55z"/>
					<path fill="#016165" d="M62.7,52.6c-0.7,0.7-0.8,1.6-0.3,2c2.5,2.1,2.6,1.5,6.7,5.7c0.6,0.7,13.8,14.2,14.7,15.6
						c0.1,0.1,0.5,0.7,0.7,0.9c0.4,0.5,1.3,0.4,2-0.3c0.6-0.6,0.8-1.5,0.3-2c-0.2-0.2-0.8-0.6-0.9-0.7c-1.3-0.9-14.9-14.1-15.5-14.8
						c-4.2-4.2-3.6-4.3-5.7-6.8C64.3,51.8,63.4,51.9,62.7,52.6z"/>
				</g>
				<g>
					<path fill="#016165" d="M94.7,51c0.4,0.4,0.3,1.1-0.1,1.5c0.2,1.1-0.3,2.5-1.5,3.6c-1.1,1.2-2.6,1.7-3.6,1.5
						c-0.4,0.4-1.1,0.5-1.5,0.1c-0.5-0.5-0.3-1.1-0.2-1.4l5.5-5.5C93.6,50.8,94.2,50.6,94.7,51z"/>
					<path fill="#016165" d="M86.3,44.3c0.4-0.4,1.1-0.5,1.5-0.1c0.5,0.5,0.2,1.1,0.2,1.4l-5.5,5.5c-0.3,0.1-0.9,0.3-1.4-0.2
						c-0.4-0.4-0.3-1.1,0.1-1.5c-0.2-1.1,0.3-2.5,1.5-3.6C83.8,44.6,85.2,44.1,86.3,44.3z"/>
					<path fill="#016165" d="M87.7,55l-0.5-0.5c0.4-0.5,0.5-1.4-0.5-2.4c-1.1-1-1.9-1-2.4-0.5l-0.5-0.5l4.3-4.3l3.9,3.9L87.7,55z"/>
					<path fill="#016165" d="M86.3,52.6c0.7,0.7,0.8,1.6,0.3,2c-2.5,2.1-2.6,1.5-6.7,5.7C79.1,60.9,66,74.5,65.1,75.8
						c-0.1,0.1-0.5,0.7-0.7,0.9c-0.4,0.5-1.3,0.4-2-0.3c-0.6-0.6-0.8-1.5-0.3-2c0.2-0.2,0.8-0.6,0.9-0.7
						c1.3-0.9,14.9-14.1,15.5-14.8c4.2-4.2,3.6-4.3,5.7-6.8C84.7,51.8,85.6,51.9,86.3,52.6z"/>
				</g>
			</g>
		</g>
	</g>
	<g>
		<path fill="#3F4648" d="M35.5,67.9c0-20.8,16.9-37.7,37.7-37.7c8.1,0,15.5,2.6,21.7,6.9l23.8-19.8c-14.2-6.6-28.9-9.8-42.9-10.8
			V6.5c-0.1,0-0.2,0-0.4,0c-0.1,0-0.2,0-0.4,0v0.1C57,7.9,37.7,12.7,19.9,24v75.3l19-15.8C36.7,78.8,35.5,73.5,35.5,67.9z"/>
		<path fill="#016165" d="M106.1,49.5c3,5.4,4.8,11.7,4.8,18.4c0,20.8-16.9,37.7-37.7,37.7c-9.2,0-17.6-3.3-24.1-8.7l-16.2,13.5
			l42.2,29.9v0.5l0.4-0.2l0.4,0.2v-0.5l55.2-39.1V28.9L106.1,49.5z"/>
	</g>
</g>
</svg>
