<?xml version="1.0" encoding="utf-8"?>
<!-- Generator: Adobe Illustrator 18.1.0, SVG Export Plug-In . SVG Version: 6.00 Build 0)  -->
<svg version="1.1" id="Layer_1" xmlns="http://www.w3.org/2000/svg" xmlns:xlink="http://www.w3.org/1999/xlink" x="0px" y="0px"
	 viewBox="0 0 150 150" enable-background="new 0 0 150 150" xml:space="preserve">
<g>
	<path fill="#255AA8" d="M36.6,51.3c-0.1-0.1-0.2-0.2-0.4-0.3c-0.1-0.1-0.3-0.2-0.4-0.3c-0.1-0.1-0.2-0.1-0.3-0.2L33.9,50
		C21.4,62.4,14.2,78.2,15.6,93.7c1.2,12.5,7.9,22.5,17.9,29.1L37,51.6C36.9,51.5,36.7,51.4,36.6,51.3z"/>
	<path fill="#255AA8" d="M55.4,56.1l5.2,75.2c2.2,0.1,4.6,0.1,6.9,0.1l3.4-70.8L55.4,56.1z"/>
	<path fill="#255AA8" d="M138.6,64.6C135.9,36.9,106.2,21,72.3,29c-2,0.5-4,1-6,1.7L127,57l0.4,4.8l0,0l0,0l0,0.1l-0.1,0L115,69.4
		l2.9,41.2C132,97.9,140.2,81.1,138.6,64.6z"/>
	<path fill="#255AA8" d="M87.3,65.3l4.3,61.2c2.3-0.8,4.5-1.8,6.7-2.8l2.6-54.5L87.3,65.3z"/>
	<polygon fill="#C2C4C6" points="39,19.2 21,36.7 21,46.2 39,29.3 	"/>
	<polygon fill="#E9E9EA" points="127.5,62 127.5,61.9 127.4,61.9 	"/>
	<polygon fill="#E9E9EA" points="39.4,29.1 127.4,61.9 127,57 66.1,30.6 39,18.9 39,19.2 39,29.3 	"/>
	<path fill="#B6B8BA" d="M35.5,50.4c-0.1-0.1-0.2-0.2-0.3-0.3c0,0-0.1-0.1-0.1-0.1l-12.5-3.6l11-6.8c0.1-0.1,0.3-0.2,0.4-0.3
		c0.1,0,0.1-0.1,0.2-0.1c0.2-0.2,0.5-0.3,0.7-0.4c0.1,0,0.1-0.1,0.2-0.1c0.2-0.1,0.5-0.2,0.7-0.4c0.1,0,0.1-0.1,0.2-0.1
		c0.3-0.1,0.6-0.3,0.9-0.4c0.1,0,0.2-0.1,0.2-0.1c0.3-0.1,0.6-0.2,0.9-0.3c0,0,0,0,0.1,0c0,0,0,0,0,0c0,0,0,0,0,0
		c2.3-0.7,5.1-1.2,8.1-1.2c8,0,14.5,3.1,14.5,6.9c0,0.7-0.3,1.5-0.7,2.1c-0.6,2.1-2.1,4.6-4.9,6.4l0.3,4.5l15.5,4.4l0,0
		c-0.1-0.1-0.2-0.2-0.4-0.2c-0.1-0.1-0.2-0.2-0.3-0.2c0,0-0.1-0.1-0.1-0.1l-13.7-4l11.1-5.8c0,0,0.1-0.1,0.1-0.1c0,0,0,0,0.1-0.1
		c0.2-0.1,0.3-0.3,0.5-0.4c0.1,0,0.1-0.1,0.2-0.1c0.2-0.1,0.4-0.3,0.6-0.4c0.1,0,0.1-0.1,0.2-0.1c0.2-0.1,0.4-0.2,0.6-0.3
		c0.1,0,0.1-0.1,0.2-0.1c0.2-0.1,0.5-0.2,0.7-0.3c0.1,0,0.2-0.1,0.3-0.1c0.2-0.1,0.4-0.2,0.7-0.2c2.1-0.7,4.6-1.1,7.4-1.1
		c7.1,0,12.9,2.8,12.9,6.1c0,0.7-0.2,1.3-0.6,1.9c-0.5,1.8-1.8,4.1-4.3,5.7l0.3,4.7l13.6,3.9l0-0.1c-0.1-0.1-0.2-0.1-0.3-0.2
		l-12.6-3.6l9.6-5c0.1-0.1,0.3-0.3,0.4-0.4c0,0,0,0,0.1,0c0.2-0.2,0.4-0.3,0.6-0.5c0.1-0.1,0.2-0.1,0.3-0.2c0.2-0.1,0.3-0.2,0.5-0.3
		c0.1-0.1,0.2-0.1,0.3-0.2c0.2-0.1,0.4-0.2,0.6-0.3c0.1,0,0.2-0.1,0.3-0.1c0.3-0.1,0.8-0.2,1.1-0.3c0,0,0.3,0,0.3,0c0,0,0,0,0,0
		c1-0.6,3.8-0.9,6.2-0.9c6.3,0,11.3,2.4,11.3,5.4c0,0.6-0.2,1.1-0.6,1.7c-0.5,1.6-1.6,3.6-3.9,5l0,0.4l12.3-7.4l0.1,0l0,0l0,0
		L39.6,29.1l-0.2,0.2L21.2,46.2L21,46.3L33.9,50L35.5,50.4C35.6,50.5,35.6,50.4,35.5,50.4z"/>
	<path fill="#8F9194" d="M69.6,59.5c-0.1-0.1-0.2-0.2-0.3-0.3c-0.1-0.1-0.2-0.2-0.3-0.3c-0.1-0.1-0.2-0.2-0.3-0.3
		c-0.1-0.1-0.1-0.2-0.2-0.3c-0.1-0.1-0.2-0.2-0.2-0.3c-0.1-0.1-0.1-0.2-0.2-0.3c-0.1-0.1-0.1-0.2-0.2-0.3c-0.1-0.1-0.1-0.2-0.2-0.2
		c-0.1-0.1-0.1-0.2-0.2-0.3c0-0.1-0.1-0.2-0.1-0.2c-0.1-0.1-0.1-0.2-0.2-0.3c0-0.1-0.1-0.1-0.1-0.2c-0.1-0.1-0.1-0.2-0.2-0.4
		c0-0.1,0-0.1-0.1-0.2c-0.1-0.1-0.1-0.3-0.1-0.4c0,0,0-0.1,0-0.1c-0.1-0.2-0.1-0.3-0.1-0.4c-0.3-0.5-0.5-1.1-0.5-1.7
		c0-0.2,0-0.4,0.1-0.6c0,0,0-0.1,0-0.1c0-0.2,0.1-0.4,0.2-0.5c0,0,0-0.1,0-0.1c0.1-0.2,0.2-0.3,0.2-0.5c0,0,0-0.1,0.1-0.1
		c0.1-0.2,0.2-0.3,0.4-0.5c0,0,0.1-0.1,0.1-0.1c0.1-0.1,0.2-0.2,0.3-0.3L56.4,56l13.7,4c-0.1-0.1-0.2-0.1-0.2-0.2
		C69.8,59.7,69.7,59.6,69.6,59.5z"/>
	<path fill="#8F9194" d="M34.6,49.5c-0.1-0.1-0.2-0.2-0.3-0.3c-0.1-0.1-0.2-0.2-0.3-0.3c-0.1-0.1-0.2-0.2-0.2-0.3
		c-0.1-0.1-0.2-0.2-0.2-0.3c-0.1-0.1-0.1-0.2-0.2-0.3c-0.1-0.1-0.1-0.2-0.2-0.3c-0.1-0.1-0.1-0.2-0.2-0.3C33,47.1,33,47,32.9,46.9
		c0-0.1-0.1-0.2-0.1-0.3c-0.1-0.1-0.1-0.2-0.1-0.3c0-0.1-0.1-0.2-0.1-0.2c0-0.1-0.1-0.2-0.1-0.4c0-0.1,0-0.1-0.1-0.2
		c-0.1-0.2-0.1-0.3-0.2-0.5c-0.4-0.6-0.6-1.3-0.6-1.9c0-0.2,0-0.4,0.1-0.6c0,0,0-0.1,0-0.1c0-0.2,0.1-0.4,0.2-0.6c0,0,0-0.1,0-0.1
		c0.1-0.2,0.2-0.3,0.3-0.5c0,0,0-0.1,0.1-0.1c0.1-0.2,0.3-0.4,0.4-0.5c0,0,0.1-0.1,0.1-0.1c0.2-0.2,0.3-0.3,0.5-0.5c0,0,0,0,0.1-0.1
		c0.1-0.1,0.1-0.1,0.2-0.2l-11,6.8L35.1,50c-0.1-0.1-0.1-0.1-0.2-0.2C34.8,49.7,34.7,49.6,34.6,49.5z"/>
	<path fill="#8F9194" d="M100.3,68.6c-0.1-0.1-0.2-0.2-0.3-0.3c-0.1-0.1-0.1-0.1-0.2-0.2c-0.1-0.1-0.2-0.2-0.3-0.3
		c-0.1-0.1-0.1-0.1-0.2-0.2c-0.1-0.1-0.2-0.2-0.3-0.3c-0.1-0.1-0.1-0.1-0.2-0.2c-0.1-0.1-0.2-0.2-0.2-0.3c0-0.1-0.1-0.1-0.1-0.2
		c-0.1-0.1-0.2-0.2-0.2-0.3c0-0.1-0.1-0.1-0.1-0.2c-0.1-0.1-0.1-0.2-0.2-0.3c0-0.1-0.1-0.1-0.1-0.2c-0.1-0.1-0.1-0.2-0.2-0.3
		c0,0,0-0.1-0.1-0.1c-0.1-0.1-0.1-0.2-0.2-0.4c0,0,0-0.1,0-0.1c-0.1-0.1-0.1-0.2-0.1-0.4c0,0,0,0,0-0.1c0-0.1-0.1-0.3-0.1-0.4
		c-0.3-0.5-0.5-1-0.5-1.5c0-0.2,0-0.4,0.1-0.6c0-0.1,0-0.1,0.1-0.2c0-0.1,0.1-0.3,0.2-0.4c0-0.1,0.1-0.1,0.1-0.2
		c0.1-0.1,0.2-0.3,0.3-0.4c0-0.1,0.1-0.1,0.1-0.2c0,0,0.1-0.1,0.1-0.1l-9.6,5l12.6,3.6c0,0,0,0-0.1,0
		C100.4,68.7,100.4,68.6,100.3,68.6z"/>
	<path fill="#D1D3D4" d="M36.6,51.3c-0.1-0.1-0.2-0.2-0.4-0.3C36.4,51.1,36.5,51.2,36.6,51.3z"/>
	<path fill="#D1D3D4" d="M35.7,38.2c0.1,0,0.1-0.1,0.2-0.1C35.8,38.2,35.8,38.2,35.7,38.2z"/>
	<path fill="#D1D3D4" d="M37.9,37.4C38,37.3,38,37.3,37.9,37.4C38,37.3,38,37.3,37.9,37.4z"/>
	<path fill="#D1D3D4" d="M34.9,38.7c0.1,0,0.1-0.1,0.2-0.1C35,38.6,34.9,38.7,34.9,38.7z"/>
	<path fill="#D1D3D4" d="M34,39.3c0.1,0,0.1-0.1,0.2-0.1C34.1,39.2,34,39.2,34,39.3z"/>
	<path fill="#D1D3D4" d="M36.8,37.8c0.1,0,0.2-0.1,0.2-0.1C36.9,37.7,36.9,37.7,36.8,37.8z"/>
	<path fill="#D1D3D4" d="M35.5,50.4C35.6,50.4,35.6,50.5,35.5,50.4c0.2,0.2,0.2,0.2,0.3,0.3C35.7,50.6,35.6,50.5,35.5,50.4z"/>
	<path fill="#D1D3D4" d="M59.9,45.2c0.5-0.7,0.7-1.4,0.7-2.1c0-3.8-6.5-6.9-14.5-6.9c-3,0-5.8,0.4-8.1,1.2c0.4,2,1.5,6.2,4.6,7.6
		c1-0.2,2.2-0.3,3.4-0.3c4.9,0,8.9,1.9,8.9,4.2l0.2,2.8C57.9,49.8,59.3,47.3,59.9,45.2z"/>
	<path fill="#D1D3D4" d="M32.7,40.4c0,0,0.1-0.1,0.1-0.1C32.8,40.3,32.7,40.4,32.7,40.4z"/>
	<path fill="#D1D3D4" d="M33.1,47.2c0.1,0.1,0.1,0.2,0.2,0.3C33.2,47.4,33.1,47.3,33.1,47.2z"/>
	<path fill="#D1D3D4" d="M31.9,41.6c0,0,0,0.1,0,0.1C31.9,41.7,31.9,41.6,31.9,41.6z"/>
	<path fill="#D1D3D4" d="M33.4,39.8C33.3,39.8,33.3,39.8,33.4,39.8C33.3,39.8,33.3,39.8,33.4,39.8z"/>
	<path fill="#D1D3D4" d="M32.3,41c0,0,0,0.1-0.1,0.1C32.2,41,32.2,41,32.3,41z"/>
	<path fill="#D1D3D4" d="M33.9,48.5c0.1,0.1,0.1,0.2,0.2,0.3C34,48.7,33.9,48.6,33.9,48.5z"/>
	<path fill="#D1D3D4" d="M33.5,47.8c0.1,0.1,0.1,0.2,0.2,0.3C33.6,48,33.5,47.9,33.5,47.8z"/>
	<path fill="#D1D3D4" d="M32.5,46c0,0.1,0.1,0.2,0.1,0.2C32.6,46.2,32.6,46.1,32.5,46z"/>
	<path fill="#D1D3D4" d="M32.3,45.5c0,0.1,0,0.1,0.1,0.2C32.4,45.6,32.4,45.5,32.3,45.5z"/>
	<path fill="#D1D3D4" d="M31.7,42.3c0,0,0,0.1,0,0.1C31.7,42.4,31.7,42.3,31.7,42.3z"/>
	<path fill="#D1D3D4" d="M32.8,46.6c0,0.1,0.1,0.2,0.1,0.3C32.9,46.8,32.8,46.7,32.8,46.6z"/>
	<path fill="#D1D3D4" d="M34.6,49.5c-0.1-0.1-0.2-0.2-0.3-0.3C34.4,49.2,34.5,49.3,34.6,49.5z"/>
	<path fill="#D1D3D4" d="M34.9,49.8c0.1,0.1,0.1,0.1,0.2,0.2c0,0,0.1,0.1,0.1,0.1C35.1,50,35,49.9,34.9,49.8z"/>
	<path fill="#255AA8" d="M37,51.6L37,51.6c-0.1-0.1-0.3-0.2-0.4-0.3C36.7,51.4,36.9,51.5,37,51.6z"/>
	<path opacity="0.55" fill="#B6B8BA" d="M37,51.6L37,51.6c-0.1-0.1-0.3-0.2-0.4-0.3C36.7,51.4,36.9,51.5,37,51.6z"/>
	<path fill="#255AA8" d="M36.2,51c-0.1-0.1-0.3-0.2-0.4-0.3C36,50.8,36.1,50.9,36.2,51z"/>
	<path opacity="0.55" fill="#B6B8BA" d="M36.2,51c-0.1-0.1-0.3-0.2-0.4-0.3C36,50.8,36.1,50.9,36.2,51z"/>
	<path fill="#B6B8BA" d="M34.2,39.1c0.2-0.2,0.5-0.3,0.7-0.4C34.6,38.8,34.4,39,34.2,39.1z"/>
	<path opacity="0.55" fill="#B6B8BA" d="M34.2,39.1c0.2-0.2,0.5-0.3,0.7-0.4C34.6,38.8,34.4,39,34.2,39.1z"/>
	<path fill="#B6B8BA" d="M35,38.6c0.2-0.1,0.5-0.2,0.7-0.4C35.5,38.4,35.2,38.5,35,38.6z"/>
	<path opacity="0.55" fill="#B6B8BA" d="M35,38.6c0.2-0.1,0.5-0.2,0.7-0.4C35.5,38.4,35.2,38.5,35,38.6z"/>
	<path fill="#B6B8BA" d="M35.9,38.1c0.3-0.1,0.6-0.3,0.9-0.4C36.5,37.9,36.2,38,35.9,38.1z"/>
	<path opacity="0.55" fill="#B6B8BA" d="M35.9,38.1c0.3-0.1,0.6-0.3,0.9-0.4C36.5,37.9,36.2,38,35.9,38.1z"/>
	<polygon fill="#B6B8BA" points="38,37.3 38,37.3 38,37.3 	"/>
	<polygon opacity="0.55" fill="#B6B8BA" points="38,37.3 38,37.3 38,37.3 	"/>
	<path fill="#B6B8BA" d="M37,37.7c0.3-0.1,0.6-0.2,0.9-0.3C37.6,37.5,37.3,37.6,37,37.7z"/>
	<path opacity="0.55" fill="#B6B8BA" d="M37,37.7c0.3-0.1,0.6-0.2,0.9-0.3C37.6,37.5,37.3,37.6,37,37.7z"/>
	<path fill="#B6B8BA" d="M34,39.3c-0.1,0.1-0.3,0.2-0.4,0.3l0,0C33.7,39.5,33.8,39.4,34,39.3z"/>
	<path opacity="0.55" fill="#B6B8BA" d="M34,39.3c-0.1,0.1-0.3,0.2-0.4,0.3l0,0C33.7,39.5,33.8,39.4,34,39.3z"/>
	<path fill="#B6B8BA" d="M35.5,50.4c-0.1-0.1-0.2-0.2-0.3-0.3C35.3,50.2,35.4,50.3,35.5,50.4z"/>
	<path opacity="0.55" fill="#B6B8BA" d="M35.5,50.4c-0.1-0.1-0.2-0.2-0.3-0.3C35.3,50.2,35.4,50.3,35.5,50.4z"/>
	<path fill="#8F9194" d="M31.6,42.4c0,0.2-0.1,0.4-0.1,0.6C31.6,42.8,31.6,42.6,31.6,42.4z"/>
	<path opacity="0.55" fill="#B6B8BA" d="M31.6,42.4c0,0.2-0.1,0.4-0.1,0.6C31.6,42.8,31.6,42.6,31.6,42.4z"/>
	<path fill="#8F9194" d="M32.2,45c0,0.2,0.1,0.3,0.2,0.5C32.3,45.3,32.2,45.2,32.2,45z"/>
	<path opacity="0.55" fill="#B6B8BA" d="M32.2,45c0,0.2,0.1,0.3,0.2,0.5C32.3,45.3,32.2,45.2,32.2,45z"/>
	<path fill="#8F9194" d="M32.4,45.7c0,0.1,0.1,0.2,0.1,0.4C32.5,45.9,32.4,45.8,32.4,45.7z"/>
	<path opacity="0.55" fill="#B6B8BA" d="M32.4,45.7c0,0.1,0.1,0.2,0.1,0.4C32.5,45.9,32.4,45.8,32.4,45.7z"/>
	<path fill="#8F9194" d="M32.7,40.4c-0.2,0.2-0.3,0.4-0.4,0.5C32.4,40.8,32.5,40.6,32.7,40.4z"/>
	<path opacity="0.55" fill="#B6B8BA" d="M32.7,40.4c-0.2,0.2-0.3,0.4-0.4,0.5C32.4,40.8,32.5,40.6,32.7,40.4z"/>
	<path fill="#8F9194" d="M32.9,46.9c0.1,0.1,0.1,0.2,0.2,0.3C33,47.1,33,47,32.9,46.9z"/>
	<path opacity="0.55" fill="#B6B8BA" d="M32.9,46.9c0.1,0.1,0.1,0.2,0.2,0.3C33,47.1,33,47,32.9,46.9z"/>
	<path fill="#8F9194" d="M34.1,48.8c0.1,0.1,0.2,0.2,0.3,0.3C34.3,49,34.2,48.9,34.1,48.8z"/>
	<path opacity="0.55" fill="#B6B8BA" d="M34.1,48.8c0.1,0.1,0.2,0.2,0.3,0.3C34.3,49,34.2,48.9,34.1,48.8z"/>
	<path fill="#8F9194" d="M32.6,46.3c0,0.1,0.1,0.2,0.1,0.3C32.7,46.5,32.7,46.4,32.6,46.3z"/>
	<path opacity="0.55" fill="#B6B8BA" d="M32.6,46.3c0,0.1,0.1,0.2,0.1,0.3C32.7,46.5,32.7,46.4,32.6,46.3z"/>
	<path fill="#8F9194" d="M33.3,47.5c0.1,0.1,0.1,0.2,0.2,0.3C33.4,47.7,33.3,47.6,33.3,47.5z"/>
	<path opacity="0.55" fill="#B6B8BA" d="M33.3,47.5c0.1,0.1,0.1,0.2,0.2,0.3C33.4,47.7,33.3,47.6,33.3,47.5z"/>
	<path fill="#8F9194" d="M33.6,39.6L33.6,39.6c-0.1,0.1-0.2,0.1-0.3,0.2C33.4,39.7,33.5,39.6,33.6,39.6z"/>
	<path opacity="0.55" fill="#B6B8BA" d="M33.6,39.6L33.6,39.6c-0.1,0.1-0.2,0.1-0.3,0.2C33.4,39.7,33.5,39.6,33.6,39.6z"/>
	<path fill="#8F9194" d="M32.2,41.1c-0.1,0.2-0.2,0.3-0.3,0.5C32,41.4,32.1,41.3,32.2,41.1z"/>
	<path opacity="0.55" fill="#B6B8BA" d="M32.2,41.1c-0.1,0.2-0.2,0.3-0.3,0.5C32,41.4,32.1,41.3,32.2,41.1z"/>
	<path fill="#8F9194" d="M32.8,40.3c0.2-0.2,0.3-0.3,0.5-0.5C33.1,40,33,40.1,32.8,40.3z"/>
	<path opacity="0.55" fill="#B6B8BA" d="M32.8,40.3c0.2-0.2,0.3-0.3,0.5-0.5C33.1,40,33,40.1,32.8,40.3z"/>
	<path fill="#8F9194" d="M33.6,48.2c0.1,0.1,0.1,0.2,0.2,0.3C33.8,48.4,33.7,48.3,33.6,48.2z"/>
	<path opacity="0.55" fill="#B6B8BA" d="M33.6,48.2c0.1,0.1,0.1,0.2,0.2,0.3C33.8,48.4,33.7,48.3,33.6,48.2z"/>
	<path fill="#8F9194" d="M31.9,41.7c-0.1,0.2-0.1,0.4-0.2,0.6C31.7,42.1,31.8,41.9,31.9,41.7z"/>
	<path opacity="0.55" fill="#B6B8BA" d="M31.9,41.7c-0.1,0.2-0.1,0.4-0.2,0.6C31.7,42.1,31.8,41.9,31.9,41.7z"/>
	<path fill="#8F9194" d="M34.6,49.5c0.1,0.1,0.2,0.2,0.3,0.3C34.8,49.7,34.7,49.6,34.6,49.5z"/>
	<path opacity="0.55" fill="#B6B8BA" d="M34.6,49.5c0.1,0.1,0.2,0.2,0.3,0.3C34.8,49.7,34.7,49.6,34.6,49.5z"/>
	<path fill="#D1D3D4" d="M38,37.3C38,37.3,38,37.3,38,37.3C38,37.3,38,37.3,38,37.3c-0.4,0.1-0.7,0.2-1,0.4c-0.1,0-0.2,0.1-0.2,0.1
		c-0.3,0.1-0.6,0.2-0.9,0.4c-0.1,0-0.1,0.1-0.2,0.1c-0.2,0.1-0.5,0.2-0.7,0.4c-0.1,0-0.1,0.1-0.2,0.1c-0.2,0.1-0.5,0.3-0.7,0.4
		c-0.1,0-0.1,0.1-0.2,0.1c-0.1,0.1-0.2,0.2-0.4,0.3c-0.1,0.1-0.2,0.1-0.3,0.2c0,0,0,0-0.1,0.1c-0.2,0.2-0.3,0.3-0.5,0.5
		c0,0-0.1,0.1-0.1,0.1c-0.2,0.2-0.3,0.4-0.4,0.5c0,0,0,0.1-0.1,0.1c-0.1,0.2-0.2,0.3-0.3,0.5c0,0,0,0.1,0,0.1
		c-0.1,0.2-0.1,0.4-0.2,0.6c0,0,0,0.1,0,0.1c0,0.2-0.1,0.4-0.1,0.6c0,0.7,0.2,1.3,0.6,1.9c0,0.2,0.1,0.3,0.2,0.5
		c0,0.1,0,0.1,0.1,0.2c0,0.1,0.1,0.2,0.1,0.4c0,0.1,0.1,0.2,0.1,0.2c0,0.1,0.1,0.2,0.1,0.3c0,0.1,0.1,0.2,0.1,0.3
		c0.1,0.1,0.1,0.2,0.2,0.3c0.1,0.1,0.1,0.2,0.2,0.3c0.1,0.1,0.1,0.2,0.2,0.3c0.1,0.1,0.1,0.2,0.2,0.3c0.1,0.1,0.1,0.2,0.2,0.3
		c0.1,0.1,0.1,0.2,0.2,0.3c0.1,0.1,0.2,0.2,0.3,0.3c0.1,0.1,0.2,0.2,0.3,0.3c0.1,0.1,0.2,0.2,0.3,0.3c0.1,0.1,0.2,0.2,0.3,0.3
		c0.1,0.1,0.2,0.2,0.3,0.3c0.1,0.1,0.2,0.2,0.3,0.3c0.1,0.1,0.2,0.2,0.4,0.3c0.1,0.1,0.2,0.2,0.4,0.3c0.1,0.1,0.3,0.2,0.4,0.3
		l0.1-2.7c0-0.2,0-0.4,0.1-0.5c0,0,0-0.1,0-0.1c0-0.1,0.1-0.3,0.2-0.4c0,0,0-0.1,0.1-0.1c0.1-0.2,0.2-0.3,0.4-0.5
		c0,0,0.1-0.1,0.1-0.1c0.1-0.1,0.3-0.3,0.4-0.4c0,0,0.1-0.1,0.1-0.1c0.4-0.3,0.9-0.6,1.4-0.8c0,0,0.1,0,0.1,0
		c0.8-0.3,1.6-0.6,2.6-0.8C39.5,43.5,38.4,39.3,38,37.3z"/>
	<path opacity="0.55" fill="#B6B8BA" d="M38,37.3C38,37.3,38,37.3,38,37.3C38,37.3,38,37.3,38,37.3c-0.4,0.1-0.7,0.2-1,0.4
		c-0.1,0-0.2,0.1-0.2,0.1c-0.3,0.1-0.6,0.2-0.9,0.4c-0.1,0-0.1,0.1-0.2,0.1c-0.2,0.1-0.5,0.2-0.7,0.4c-0.1,0-0.1,0.1-0.2,0.1
		c-0.2,0.1-0.5,0.3-0.7,0.4c-0.1,0-0.1,0.1-0.2,0.1c-0.1,0.1-0.2,0.2-0.4,0.3c-0.1,0.1-0.2,0.1-0.3,0.2c0,0,0,0-0.1,0.1
		c-0.2,0.2-0.3,0.3-0.5,0.5c0,0-0.1,0.1-0.1,0.1c-0.2,0.2-0.3,0.4-0.4,0.5c0,0,0,0.1-0.1,0.1c-0.1,0.2-0.2,0.3-0.3,0.5
		c0,0,0,0.1,0,0.1c-0.1,0.2-0.1,0.4-0.2,0.6c0,0,0,0.1,0,0.1c0,0.2-0.1,0.4-0.1,0.6c0,0.7,0.2,1.3,0.6,1.9c0,0.2,0.1,0.3,0.2,0.5
		c0,0.1,0,0.1,0.1,0.2c0,0.1,0.1,0.2,0.1,0.4c0,0.1,0.1,0.2,0.1,0.2c0,0.1,0.1,0.2,0.1,0.3c0,0.1,0.1,0.2,0.1,0.3
		c0.1,0.1,0.1,0.2,0.2,0.3c0.1,0.1,0.1,0.2,0.2,0.3c0.1,0.1,0.1,0.2,0.2,0.3c0.1,0.1,0.1,0.2,0.2,0.3c0.1,0.1,0.1,0.2,0.2,0.3
		c0.1,0.1,0.1,0.2,0.2,0.3c0.1,0.1,0.2,0.2,0.3,0.3c0.1,0.1,0.2,0.2,0.3,0.3c0.1,0.1,0.2,0.2,0.3,0.3c0.1,0.1,0.2,0.2,0.3,0.3
		c0.1,0.1,0.2,0.2,0.3,0.3c0.1,0.1,0.2,0.2,0.3,0.3c0.1,0.1,0.2,0.2,0.4,0.3c0.1,0.1,0.2,0.2,0.4,0.3c0.1,0.1,0.3,0.2,0.4,0.3
		l0.1-2.7c0-0.2,0-0.4,0.1-0.5c0,0,0-0.1,0-0.1c0-0.1,0.1-0.3,0.2-0.4c0,0,0-0.1,0.1-0.1c0.1-0.2,0.2-0.3,0.4-0.5
		c0,0,0.1-0.1,0.1-0.1c0.1-0.1,0.3-0.3,0.4-0.4c0,0,0.1-0.1,0.1-0.1c0.4-0.3,0.9-0.6,1.4-0.8c0,0,0.1,0,0.1,0
		c0.8-0.3,1.6-0.6,2.6-0.8C39.5,43.5,38.4,39.3,38,37.3z"/>
	<path fill="#E6E7E8" d="M55.1,51.6l-0.2-2.8c0-2.3-4-4.2-8.9-4.2c-1.2,0-2.3,0.1-3.4,0.3c-1,0.2-1.8,0.5-2.6,0.8
		c0.6-0.2,1.2-0.5,1.9-0.6c0.5,0.3,1.5,1.4,1.3,3.6c-0.2,2.6,1.2,72.3,1.4,84.3h16l-0.1-1.5l-5.2-75.2L55.1,51.6z M45.9,133
		l-1.3-84.6c0,0,1.7-2.1,3.1,0.6l2.2,84H45.9z M57.8,133h-4l-3.5-83.7c0,0,1.6-2.1,3.1,0.6L57.8,133z"/>
	<path fill="#E6E7E8" d="M40,45.8c-0.6,0.2-1,0.5-1.4,0.8C38.9,46.3,39.4,46,40,45.8z"/>
	<path fill="#E6E7E8" d="M38,47.1c0.1-0.1,0.3-0.3,0.4-0.4C38.3,46.8,38.1,46.9,38,47.1z"/>
	<path fill="#E6E7E8" d="M37.5,47.6c0.1-0.2,0.2-0.3,0.4-0.5C37.7,47.3,37.6,47.5,37.5,47.6z"/>
	<path fill="#E6E7E8" d="M37.2,48.3c0,0.2-0.1,0.4-0.1,0.5C37.1,48.7,37.2,48.5,37.2,48.3z"/>
	<path fill="#E6E7E8" d="M37.5,47.7c-0.1,0.1-0.1,0.3-0.2,0.4C37.3,48,37.4,47.9,37.5,47.7z"/>
	<path fill="#D1D3D4" d="M40.1,45.7C40,45.7,40,45.7,40.1,45.7C40,45.7,40,45.7,40.1,45.7z"/>
	<path opacity="0.55" fill="#B6B8BA" d="M40.1,45.7C40,45.7,40,45.7,40.1,45.7C40,45.7,40,45.7,40.1,45.7z"/>
	<path opacity="0.21" fill="#B6B8BA" d="M40.1,45.7C40,45.7,40,45.7,40.1,45.7C40,45.7,40,45.7,40.1,45.7z"/>
	<path fill="#D1D3D4" d="M38.5,46.6c0,0-0.1,0.1-0.1,0.1C38.5,46.6,38.5,46.6,38.5,46.6z"/>
	<path opacity="0.55" fill="#B6B8BA" d="M38.5,46.6c0,0-0.1,0.1-0.1,0.1C38.5,46.6,38.5,46.6,38.5,46.6z"/>
	<path opacity="0.21" fill="#B6B8BA" d="M38.5,46.6c0,0-0.1,0.1-0.1,0.1C38.5,46.6,38.5,46.6,38.5,46.6z"/>
	<path fill="#D1D3D4" d="M37.9,47.1C37.9,47.1,37.9,47.1,37.9,47.1C37.9,47.1,37.9,47.1,37.9,47.1z"/>
	<path opacity="0.55" fill="#B6B8BA" d="M37.9,47.1C37.9,47.1,37.9,47.1,37.9,47.1C37.9,47.1,37.9,47.1,37.9,47.1z"/>
	<path opacity="0.21" fill="#B6B8BA" d="M37.9,47.1C37.9,47.1,37.9,47.1,37.9,47.1C37.9,47.1,37.9,47.1,37.9,47.1z"/>
	<path fill="#D1D3D4" d="M37.5,47.6C37.5,47.7,37.5,47.7,37.5,47.6C37.5,47.7,37.5,47.7,37.5,47.6z"/>
	<path opacity="0.55" fill="#B6B8BA" d="M37.5,47.6C37.5,47.7,37.5,47.7,37.5,47.6C37.5,47.7,37.5,47.7,37.5,47.6z"/>
	<path opacity="0.21" fill="#B6B8BA" d="M37.5,47.6C37.5,47.7,37.5,47.7,37.5,47.6C37.5,47.7,37.5,47.7,37.5,47.6z"/>
	<path fill="#D1D3D4" d="M37.3,48.2c0,0,0,0.1,0,0.1C37.2,48.3,37.2,48.2,37.3,48.2z"/>
	<path opacity="0.55" fill="#B6B8BA" d="M37.3,48.2c0,0,0,0.1,0,0.1C37.2,48.3,37.2,48.2,37.3,48.2z"/>
	<path opacity="0.21" fill="#B6B8BA" d="M37.3,48.2c0,0,0,0.1,0,0.1C37.2,48.3,37.2,48.2,37.3,48.2z"/>
	<path fill="#E6E7E8" d="M43.3,48.7c0.1-2.1-0.8-3.2-1.3-3.5c-0.7,0.2-1.3,0.3-1.9,0.6c0,0-0.1,0-0.1,0c-0.6,0.2-1,0.5-1.4,0.8
		c0,0-0.1,0-0.1,0.1c-0.2,0.1-0.3,0.3-0.4,0.4c0,0-0.1,0.1-0.1,0.1c-0.1,0.2-0.3,0.3-0.4,0.5c0,0,0,0.1-0.1,0.1
		c-0.1,0.1-0.1,0.3-0.2,0.4c0,0,0,0.1,0,0.1c0,0.2-0.1,0.4-0.1,0.5L37,51.6v0L33.6,123l-0.5,10h11.6C44.5,121,43.1,51.3,43.3,48.7z
		 M36.3,133l3-83.3c1.4-2.7,3.1-0.3,3.1-0.3L40.2,133H36.3z"/>
	<path opacity="0.21" fill="#B6B8BA" d="M43.3,48.7c0.1-2.1-0.8-3.2-1.3-3.5c-0.7,0.2-1.3,0.3-1.9,0.6c0,0-0.1,0-0.1,0
		c-0.6,0.2-1,0.5-1.4,0.8c0,0-0.1,0-0.1,0.1c-0.2,0.1-0.3,0.3-0.4,0.4c0,0-0.1,0.1-0.1,0.1c-0.1,0.2-0.3,0.3-0.4,0.5
		c0,0,0,0.1-0.1,0.1c-0.1,0.1-0.1,0.3-0.2,0.4c0,0,0,0.1,0,0.1c0,0.2-0.1,0.4-0.1,0.5L37,51.6v0L33.6,123l-0.5,10h11.6
		C44.5,121,43.1,51.3,43.3,48.7z M36.3,133l3-83.3c1.4-2.7,3.1-0.3,3.1-0.3L40.2,133H36.3z"/>
	<path fill="#E6E7E8" d="M53.4,49.7c-1.5-2.7-3.1-0.3-3.1-0.3l3.5,83.6h4L53.4,49.7z"/>
	<path opacity="0.28" fill="#B6B8BA" d="M53.4,49.7c-1.5-2.7-3.1-0.3-3.1-0.3l3.5,83.6h4L53.4,49.7z"/>
	<path fill="#E6E7E8" d="M42.3,49.3c0,0-1.7-2.1-3.1,0.6l-3,83.1h4L42.3,49.3z"/>
	<path opacity="0.21" fill="#B6B8BA" d="M42.3,49.3c0,0-1.7-2.1-3.1,0.6l-3,83.1h4L42.3,49.3z"/>
	<path opacity="0.28" fill="#A3A5A8" d="M42.3,49.3c0,0-1.7-2.1-3.1,0.6l-3,83.1h4L42.3,49.3z"/>
	<path fill="#E6E7E8" d="M47.7,48.9c-1.4-2.7-3.1-0.3-3.1-0.3l1.3,84.5h4L47.7,48.9z"/>
	<path opacity="0.28" fill="#B6B8BA" d="M47.7,48.9c-1.4-2.7-3.1-0.3-3.1-0.3l1.3,84.5h4L47.7,48.9z"/>
	<path fill="#D1D3D4" d="M70.7,48.3c0.1,0,0.2-0.1,0.3-0.1C70.9,48.2,70.8,48.2,70.7,48.3z"/>
	<path fill="#D1D3D4" d="M67.6,50C67.6,50,67.6,50,67.6,50C67.6,50,67.6,50,67.6,50z"/>
	<path fill="#D1D3D4" d="M68.2,49.6c0.1,0,0.1-0.1,0.2-0.1C68.3,49.5,68.3,49.5,68.2,49.6z"/>
	<path fill="#D1D3D4" d="M91.3,54.8c0.4-0.6,0.6-1.2,0.6-1.9c0-3.4-5.8-6.1-12.9-6.1c-2.8,0-5.3,0.4-7.4,1.1c0.1,0,0.1,0,0.2-0.1
		c0.3,1.7,1.3,5.5,4.1,6.8c0.9-0.2,1.9-0.3,3-0.3c4.4,0,7.9,1.7,7.9,3.7l0.2,2.5C89.5,58.9,90.8,56.7,91.3,54.8z"/>
	<path fill="#D1D3D4" d="M69.7,48.7c0.1,0,0.1-0.1,0.2-0.1C69.9,48.6,69.8,48.6,69.7,48.7z"/>
	<path fill="#D1D3D4" d="M70.5,60.3c-0.1-0.1-0.2-0.2-0.3-0.2C70.3,60.1,70.4,60.2,70.5,60.3z"/>
	<path fill="#D1D3D4" d="M69,49.1c0.1,0,0.1-0.1,0.2-0.1C69.1,49,69,49,69,49.1z"/>
	<path fill="#D1D3D4" d="M66.8,55.1c0,0,0,0.1,0,0.1C66.8,55.2,66.8,55.1,66.8,55.1z"/>
	<path fill="#D1D3D4" d="M66.2,52.3c0,0,0,0.1,0,0.1C66.1,52.3,66.2,52.3,66.2,52.3z"/>
	<path fill="#D1D3D4" d="M66.7,51.1C66.7,51.1,66.6,51.2,66.7,51.1C66.6,51.2,66.7,51.1,66.7,51.1z"/>
	<path fill="#D1D3D4" d="M68.6,58.4c0.1,0.1,0.1,0.2,0.2,0.3C68.7,58.5,68.6,58.5,68.6,58.4z"/>
	<path fill="#D1D3D4" d="M66.9,55.6c0,0.1,0,0.1,0.1,0.2C67,55.7,67,55.6,66.9,55.6z"/>
	<path fill="#D1D3D4" d="M67.8,57.2c0,0.1,0.1,0.2,0.2,0.2C67.9,57.4,67.8,57.3,67.8,57.2z"/>
	<path fill="#D1D3D4" d="M68.1,57.8c0.1,0.1,0.1,0.2,0.2,0.3C68.2,58,68.2,57.9,68.1,57.8z"/>
	<path fill="#D1D3D4" d="M67.4,56.6c0,0.1,0.1,0.2,0.1,0.2C67.5,56.8,67.5,56.7,67.4,56.6z"/>
	<path fill="#D1D3D4" d="M67.2,56.1c0,0.1,0.1,0.1,0.1,0.2C67.2,56.2,67.2,56.2,67.2,56.1z"/>
	<path fill="#D1D3D4" d="M66.4,51.6C66.4,51.7,66.3,51.7,66.4,51.6C66.3,51.7,66.4,51.7,66.4,51.6z"/>
	<path fill="#D1D3D4" d="M69.6,59.5c0.1,0.1,0.2,0.2,0.3,0.3C69.8,59.7,69.7,59.6,69.6,59.5z"/>
	<path fill="#D1D3D4" d="M69.3,59.2c-0.1-0.1-0.2-0.2-0.3-0.3C69.1,59,69.2,59.1,69.3,59.2z"/>
	<path fill="#D1D3D4" d="M67.1,50.6c0,0,0.1-0.1,0.1-0.1C67.1,50.5,67.1,50.6,67.1,50.6z"/>
	<path fill="#B6B8BA" d="M69.2,49c0.2-0.1,0.4-0.2,0.6-0.3C69.5,48.8,69.3,48.9,69.2,49z"/>
	<path opacity="0.55" fill="#B6B8BA" d="M69.2,49c0.2-0.1,0.4-0.2,0.6-0.3C69.5,48.8,69.3,48.9,69.2,49z"/>
	<path fill="#B6B8BA" d="M71,48.1c0.2-0.1,0.4-0.2,0.7-0.2C71.4,48,71.2,48.1,71,48.1z"/>
	<path opacity="0.55" fill="#B6B8BA" d="M71,48.1c0.2-0.1,0.4-0.2,0.7-0.2C71.4,48,71.2,48.1,71,48.1z"/>
	<path fill="#B6B8BA" d="M69.9,48.6c0.2-0.1,0.5-0.2,0.7-0.3C70.4,48.4,70.2,48.5,69.9,48.6z"/>
	<path opacity="0.55" fill="#B6B8BA" d="M69.9,48.6c0.2-0.1,0.5-0.2,0.7-0.3C70.4,48.4,70.2,48.5,69.9,48.6z"/>
	<path fill="#B6B8BA" d="M67.6,50C67.6,50.1,67.5,50.1,67.6,50L67.6,50C67.6,50.1,67.6,50.1,67.6,50z"/>
	<path opacity="0.55" fill="#B6B8BA" d="M67.6,50C67.6,50.1,67.5,50.1,67.6,50L67.6,50C67.6,50.1,67.6,50.1,67.6,50z"/>
	<path fill="#B6B8BA" d="M70.9,60.5L70.9,60.5c-0.1-0.1-0.2-0.2-0.4-0.2C70.7,60.4,70.8,60.4,70.9,60.5z"/>
	<path opacity="0.55" fill="#B6B8BA" d="M70.9,60.5L70.9,60.5c-0.1-0.1-0.2-0.2-0.4-0.2C70.7,60.4,70.8,60.4,70.9,60.5z"/>
	<path fill="#B6B8BA" d="M68.4,49.5c0.2-0.1,0.4-0.3,0.6-0.4C68.8,49.2,68.6,49.3,68.4,49.5z"/>
	<path opacity="0.55" fill="#B6B8BA" d="M68.4,49.5c0.2-0.1,0.4-0.3,0.6-0.4C68.8,49.2,68.6,49.3,68.4,49.5z"/>
	<path fill="#B6B8BA" d="M70.1,59.9c0,0,0.1,0.1,0.1,0.1C70.2,60,70.2,60,70.1,59.9L70.1,59.9z"/>
	<path opacity="0.55" fill="#B6B8BA" d="M70.1,59.9c0,0,0.1,0.1,0.1,0.1C70.2,60,70.2,60,70.1,59.9L70.1,59.9z"/>
	<path fill="#B6B8BA" d="M67.7,50c0.2-0.1,0.3-0.3,0.5-0.4C68,49.7,67.8,49.9,67.7,50z"/>
	<path opacity="0.55" fill="#B6B8BA" d="M67.7,50c0.2-0.1,0.3-0.3,0.5-0.4C68,49.7,67.8,49.9,67.7,50z"/>
	<path fill="#8F9194" d="M66.1,52.4c0,0.2-0.1,0.4-0.1,0.6C66.1,52.8,66.1,52.6,66.1,52.4z"/>
	<path opacity="0.55" fill="#B6B8BA" d="M66.1,52.4c0,0.2-0.1,0.4-0.1,0.6C66.1,52.8,66.1,52.6,66.1,52.4z"/>
	<path fill="#8F9194" d="M66.6,54.7c0,0.1,0.1,0.3,0.1,0.4C66.7,55,66.7,54.8,66.6,54.7z"/>
	<path opacity="0.55" fill="#B6B8BA" d="M66.6,54.7c0,0.1,0.1,0.3,0.1,0.4C66.7,55,66.7,54.8,66.6,54.7z"/>
	<path fill="#8F9194" d="M66.3,51.7c-0.1,0.2-0.1,0.4-0.2,0.5C66.2,52.1,66.3,51.9,66.3,51.7z"/>
	<path opacity="0.55" fill="#B6B8BA" d="M66.3,51.7c-0.1,0.2-0.1,0.4-0.2,0.5C66.2,52.1,66.3,51.9,66.3,51.7z"/>
	<path fill="#8F9194" d="M67.1,50.6c-0.1,0.2-0.3,0.3-0.4,0.5C66.8,50.9,66.9,50.8,67.1,50.6z"/>
	<path opacity="0.55" fill="#B6B8BA" d="M67.1,50.6c-0.1,0.2-0.3,0.3-0.4,0.5C66.8,50.9,66.9,50.8,67.1,50.6z"/>
	<path fill="#8F9194" d="M66.6,51.2c-0.1,0.2-0.2,0.3-0.2,0.5C66.4,51.5,66.5,51.3,66.6,51.2z"/>
	<path opacity="0.55" fill="#B6B8BA" d="M66.6,51.2c-0.1,0.2-0.2,0.3-0.2,0.5C66.4,51.5,66.5,51.3,66.6,51.2z"/>
	<path fill="#8F9194" d="M67.6,56.9c0.1,0.1,0.1,0.2,0.2,0.3C67.7,57.1,67.6,57,67.6,56.9z"/>
	<path opacity="0.55" fill="#B6B8BA" d="M67.6,56.9c0.1,0.1,0.1,0.2,0.2,0.3C67.7,57.1,67.6,57,67.6,56.9z"/>
	<path fill="#8F9194" d="M69.9,59.7c0.1,0.1,0.1,0.1,0.2,0.2l0,0C70,59.9,70,59.8,69.9,59.7z"/>
	<path opacity="0.55" fill="#B6B8BA" d="M69.9,59.7c0.1,0.1,0.1,0.1,0.2,0.2l0,0C70,59.9,70,59.8,69.9,59.7z"/>
	<path fill="#8F9194" d="M67.9,57.5c0.1,0.1,0.1,0.2,0.2,0.3C68,57.7,68,57.6,67.9,57.5z"/>
	<path opacity="0.55" fill="#B6B8BA" d="M67.9,57.5c0.1,0.1,0.1,0.2,0.2,0.3C68,57.7,68,57.6,67.9,57.5z"/>
	<path fill="#8F9194" d="M67,55.7c0,0.1,0.1,0.2,0.2,0.4C67.1,56,67.1,55.9,67,55.7z"/>
	<path opacity="0.55" fill="#B6B8BA" d="M67,55.7c0,0.1,0.1,0.2,0.2,0.4C67.1,56,67.1,55.9,67,55.7z"/>
	<path fill="#8F9194" d="M68.3,58c0.1,0.1,0.2,0.2,0.2,0.3C68.5,58.3,68.4,58.2,68.3,58z"/>
	<path opacity="0.55" fill="#B6B8BA" d="M68.3,58c0.1,0.1,0.2,0.2,0.2,0.3C68.5,58.3,68.4,58.2,68.3,58z"/>
	<path fill="#8F9194" d="M67.2,50.5c0.1-0.1,0.2-0.2,0.4-0.3l0,0C67.4,50.3,67.3,50.4,67.2,50.5z"/>
	<path opacity="0.55" fill="#B6B8BA" d="M67.2,50.5c0.1-0.1,0.2-0.2,0.4-0.3l0,0C67.4,50.3,67.3,50.4,67.2,50.5z"/>
	<path fill="#8F9194" d="M69.6,59.5c-0.1-0.1-0.2-0.2-0.3-0.3C69.4,59.3,69.5,59.4,69.6,59.5z"/>
	<path opacity="0.55" fill="#B6B8BA" d="M69.6,59.5c-0.1-0.1-0.2-0.2-0.3-0.3C69.4,59.3,69.5,59.4,69.6,59.5z"/>
	<path fill="#8F9194" d="M68.8,58.6c0.1,0.1,0.2,0.2,0.3,0.3C69,58.8,68.9,58.7,68.8,58.6z"/>
	<path opacity="0.55" fill="#B6B8BA" d="M68.8,58.6c0.1,0.1,0.2,0.2,0.3,0.3C69,58.8,68.9,58.7,68.8,58.6z"/>
	<path fill="#8F9194" d="M67.3,56.3c0.1,0.1,0.1,0.2,0.2,0.3C67.4,56.5,67.3,56.4,67.3,56.3z"/>
	<path opacity="0.55" fill="#B6B8BA" d="M67.3,56.3c0.1,0.1,0.1,0.2,0.2,0.3C67.4,56.5,67.3,56.4,67.3,56.3z"/>
	<path fill="#8F9194" d="M66.8,55.2c0,0.1,0.1,0.2,0.1,0.4C66.9,55.5,66.8,55.3,66.8,55.2z"/>
	<path opacity="0.55" fill="#B6B8BA" d="M66.8,55.2c0,0.1,0.1,0.2,0.1,0.4C66.9,55.5,66.8,55.3,66.8,55.2z"/>
	<path fill="#D1D3D4" d="M71.8,47.8c-0.1,0-0.1,0-0.2,0.1c-0.2,0.1-0.4,0.2-0.7,0.2c-0.1,0-0.2,0.1-0.3,0.1
		c-0.3,0.1-0.5,0.2-0.7,0.3c-0.1,0-0.1,0.1-0.2,0.1c-0.2,0.1-0.4,0.2-0.6,0.3C69.1,49,69,49,69,49.1c-0.2,0.1-0.4,0.3-0.6,0.4
		c-0.1,0-0.1,0.1-0.2,0.1c-0.2,0.1-0.4,0.3-0.5,0.4c0,0,0,0-0.1,0.1c0,0-0.1,0.1-0.1,0.1c-0.1,0.1-0.2,0.2-0.4,0.3
		c0,0-0.1,0.1-0.1,0.1c-0.1,0.2-0.3,0.3-0.4,0.5c0,0,0,0.1-0.1,0.1c-0.1,0.2-0.2,0.3-0.2,0.5c0,0,0,0.1,0,0.1
		c-0.1,0.2-0.1,0.4-0.2,0.5c0,0,0,0.1,0,0.1c0,0.2-0.1,0.4-0.1,0.6c0,0.6,0.2,1.2,0.5,1.7c0,0.1,0.1,0.3,0.1,0.4c0,0,0,0.1,0,0.1
		c0,0.1,0.1,0.2,0.1,0.4c0,0.1,0,0.1,0.1,0.2c0,0.1,0.1,0.2,0.2,0.4c0,0.1,0.1,0.1,0.1,0.2c0.1,0.1,0.1,0.2,0.2,0.3
		c0,0.1,0.1,0.2,0.1,0.2c0.1,0.1,0.1,0.2,0.2,0.3c0,0.1,0.1,0.2,0.2,0.2c0.1,0.1,0.1,0.2,0.2,0.3c0.1,0.1,0.1,0.2,0.2,0.3
		c0.1,0.1,0.2,0.2,0.2,0.3c0.1,0.1,0.1,0.2,0.2,0.3c0.1,0.1,0.2,0.2,0.3,0.3c0.1,0.1,0.2,0.2,0.3,0.3c0.1,0.1,0.2,0.2,0.3,0.3
		c0.1,0.1,0.2,0.2,0.3,0.3c0.1,0.1,0.2,0.1,0.2,0.2c0,0,0.1,0.1,0.1,0.1c0.1,0.1,0.2,0.2,0.3,0.2c0.1,0.1,0.2,0.2,0.4,0.2l0.1-2.4
		c0-0.2,0-0.3,0.1-0.5c0,0,0-0.1,0-0.1c0-0.1,0.1-0.3,0.2-0.4c0,0,0-0.1,0-0.1c0.1-0.2,0.2-0.3,0.3-0.4c0,0,0,0,0.1-0.1
		c0.1-0.1,0.3-0.2,0.4-0.4c0,0,0.1,0,0.1-0.1c0.4-0.3,0.8-0.5,1.3-0.7c0,0,0,0,0.1,0c0.7-0.3,1.4-0.5,2.3-0.7
		C73.1,53.3,72.1,49.6,71.8,47.8z"/>
	<path opacity="0.55" fill="#B6B8BA" d="M71.8,47.8c-0.1,0-0.1,0-0.2,0.1c-0.2,0.1-0.4,0.2-0.7,0.2c-0.1,0-0.2,0.1-0.3,0.1
		c-0.3,0.1-0.5,0.2-0.7,0.3c-0.1,0-0.1,0.1-0.2,0.1c-0.2,0.1-0.4,0.2-0.6,0.3C69.1,49,69,49,69,49.1c-0.2,0.1-0.4,0.3-0.6,0.4
		c-0.1,0-0.1,0.1-0.2,0.1c-0.2,0.1-0.4,0.3-0.5,0.4c0,0,0,0-0.1,0.1c0,0-0.1,0.1-0.1,0.1c-0.1,0.1-0.2,0.2-0.4,0.3
		c0,0-0.1,0.1-0.1,0.1c-0.1,0.2-0.3,0.3-0.4,0.5c0,0,0,0.1-0.1,0.1c-0.1,0.2-0.2,0.3-0.2,0.5c0,0,0,0.1,0,0.1
		c-0.1,0.2-0.1,0.4-0.2,0.5c0,0,0,0.1,0,0.1c0,0.2-0.1,0.4-0.1,0.6c0,0.6,0.2,1.2,0.5,1.7c0,0.1,0.1,0.3,0.1,0.4c0,0,0,0.1,0,0.1
		c0,0.1,0.1,0.2,0.1,0.4c0,0.1,0,0.1,0.1,0.2c0,0.1,0.1,0.2,0.2,0.4c0,0.1,0.1,0.1,0.1,0.2c0.1,0.1,0.1,0.2,0.2,0.3
		c0,0.1,0.1,0.2,0.1,0.2c0.1,0.1,0.1,0.2,0.2,0.3c0,0.1,0.1,0.2,0.2,0.2c0.1,0.1,0.1,0.2,0.2,0.3c0.1,0.1,0.1,0.2,0.2,0.3
		c0.1,0.1,0.2,0.2,0.2,0.3c0.1,0.1,0.1,0.2,0.2,0.3c0.1,0.1,0.2,0.2,0.3,0.3c0.1,0.1,0.2,0.2,0.3,0.3c0.1,0.1,0.2,0.2,0.3,0.3
		c0.1,0.1,0.2,0.2,0.3,0.3c0.1,0.1,0.2,0.1,0.2,0.2c0,0,0.1,0.1,0.1,0.1c0.1,0.1,0.2,0.2,0.3,0.2c0.1,0.1,0.2,0.2,0.4,0.2l0.1-2.4
		c0-0.2,0-0.3,0.1-0.5c0,0,0-0.1,0-0.1c0-0.1,0.1-0.3,0.2-0.4c0,0,0-0.1,0-0.1c0.1-0.2,0.2-0.3,0.3-0.4c0,0,0,0,0.1-0.1
		c0.1-0.1,0.3-0.2,0.4-0.4c0,0,0.1,0,0.1-0.1c0.4-0.3,0.8-0.5,1.3-0.7c0,0,0,0,0.1,0c0.7-0.3,1.4-0.5,2.3-0.7
		C73.1,53.3,72.1,49.6,71.8,47.8z"/>
	<path fill="#E6E7E8" d="M87,60.5l-0.2-2.5c0-2.1-3.5-3.7-7.9-3.7c-1.1,0-2.1,0.1-3,0.3c-0.9,0.2-1.6,0.4-2.3,0.7
		c0.5-0.2,1.1-0.4,1.7-0.6c0.4,0.3,1.3,1.3,1.2,3.2c-0.1,2.3,1,64,1.2,75H92l-0.4-6.4l-4.3-61.3L87,60.5z M78.8,133l-1.2-75.3
		c0,0,1.5-1.9,2.8,0.5l2,74.7H78.8z M89.4,133h-3.5l-3.2-74.5c0,0,1.4-1.8,2.8,0.5L89.4,133z"/>
	<path fill="#E6E7E8" d="M71.4,57c0.1-0.2,0.2-0.3,0.3-0.4C71.6,56.7,71.4,56.9,71.4,57z"/>
	<path fill="#E6E7E8" d="M72.2,56.2c-0.1,0.1-0.3,0.2-0.4,0.4C71.9,56.4,72,56.3,72.2,56.2z"/>
	<path fill="#E6E7E8" d="M71.3,57.1c-0.1,0.1-0.1,0.3-0.2,0.4C71.2,57.4,71.2,57.2,71.3,57.1z"/>
	<path fill="#E6E7E8" d="M72.3,56.1c0.4-0.3,0.8-0.5,1.3-0.7C73.1,55.6,72.6,55.8,72.3,56.1z"/>
	<path fill="#E6E7E8" d="M71.1,57.6c0,0.2-0.1,0.3-0.1,0.5C71,57.9,71.1,57.8,71.1,57.6z"/>
	<path fill="#D1D3D4" d="M73.6,55.3C73.6,55.3,73.6,55.3,73.6,55.3C73.6,55.3,73.6,55.3,73.6,55.3z"/>
	<path opacity="0.55" fill="#B6B8BA" d="M73.6,55.3C73.6,55.3,73.6,55.3,73.6,55.3C73.6,55.3,73.6,55.3,73.6,55.3z"/>
	<path opacity="0.21" fill="#B6B8BA" d="M73.6,55.3C73.6,55.3,73.6,55.3,73.6,55.3C73.6,55.3,73.6,55.3,73.6,55.3z"/>
	<path fill="#D1D3D4" d="M71.7,56.6C71.7,56.6,71.7,56.5,71.7,56.6C71.7,56.5,71.7,56.6,71.7,56.6z"/>
	<path opacity="0.55" fill="#B6B8BA" d="M71.7,56.6C71.7,56.6,71.7,56.5,71.7,56.6C71.7,56.5,71.7,56.6,71.7,56.6z"/>
	<path opacity="0.21" fill="#B6B8BA" d="M71.7,56.6C71.7,56.6,71.7,56.5,71.7,56.6C71.7,56.5,71.7,56.6,71.7,56.6z"/>
	<path fill="#D1D3D4" d="M72.3,56.1C72.2,56.1,72.2,56.1,72.3,56.1C72.2,56.1,72.2,56.1,72.3,56.1z"/>
	<path opacity="0.55" fill="#B6B8BA" d="M72.3,56.1C72.2,56.1,72.2,56.1,72.3,56.1C72.2,56.1,72.2,56.1,72.3,56.1z"/>
	<path opacity="0.21" fill="#B6B8BA" d="M72.3,56.1C72.2,56.1,72.2,56.1,72.3,56.1C72.2,56.1,72.2,56.1,72.3,56.1z"/>
	<path fill="#D1D3D4" d="M71.1,57.5c0,0,0,0.1,0,0.1C71.1,57.6,71.1,57.5,71.1,57.5z"/>
	<path opacity="0.55" fill="#B6B8BA" d="M71.1,57.5c0,0,0,0.1,0,0.1C71.1,57.6,71.1,57.5,71.1,57.5z"/>
	<path opacity="0.21" fill="#B6B8BA" d="M71.1,57.5c0,0,0,0.1,0,0.1C71.1,57.6,71.1,57.5,71.1,57.5z"/>
	<path fill="#D1D3D4" d="M71.4,57C71.3,57,71.3,57.1,71.4,57C71.3,57.1,71.3,57,71.4,57z"/>
	<path opacity="0.55" fill="#B6B8BA" d="M71.4,57C71.3,57,71.3,57.1,71.4,57C71.3,57.1,71.3,57,71.4,57z"/>
	<path opacity="0.21" fill="#B6B8BA" d="M71.4,57C71.3,57,71.3,57.1,71.4,57C71.3,57.1,71.3,57,71.4,57z"/>
	<path fill="#E6E7E8" d="M76.5,58c0.1-1.9-0.7-2.8-1.2-3.1c-0.6,0.2-1.2,0.3-1.7,0.5c0,0,0,0-0.1,0c-0.5,0.2-0.9,0.5-1.3,0.7
		c0,0-0.1,0-0.1,0.1c-0.1,0.1-0.3,0.2-0.4,0.4c0,0,0,0-0.1,0.1c-0.1,0.1-0.2,0.3-0.3,0.4c0,0,0,0.1,0,0.1c-0.1,0.1-0.1,0.3-0.2,0.4
		c0,0,0,0.1,0,0.1c0,0.2,0,0.3,0,0.5L71,60.5v0l-0.1,0l-3.4,70.9l-0.1,1.5h10.3C77.5,122,76.4,60.3,76.5,58z M70.2,133l2.7-74.1
		c1.3-2.4,2.8-0.3,2.8-0.3L73.8,133H70.2z"/>
	<path opacity="0.21" fill="#B6B8BA" d="M76.5,58c0.1-1.9-0.7-2.8-1.2-3.1c-0.6,0.2-1.2,0.3-1.7,0.5c0,0,0,0-0.1,0
		c-0.5,0.2-0.9,0.5-1.3,0.7c0,0-0.1,0-0.1,0.1c-0.1,0.1-0.3,0.2-0.4,0.4c0,0,0,0-0.1,0.1c-0.1,0.1-0.2,0.3-0.3,0.4c0,0,0,0.1,0,0.1
		c-0.1,0.1-0.1,0.3-0.2,0.4c0,0,0,0.1,0,0.1c0,0.2,0,0.3,0,0.5L71,60.5v0l-0.1,0l-3.4,70.9l-0.1,1.5h10.3
		C77.5,122,76.4,60.3,76.5,58z M70.2,133l2.7-74.1c1.3-2.4,2.8-0.3,2.8-0.3L73.8,133H70.2z"/>
	<path fill="#E6E7E8" d="M85.5,58.9c-1.3-2.4-2.8-0.3-2.8-0.3l3.2,74.4h3.5L85.5,58.9z"/>
	<path opacity="0.28" fill="#B6B8BA" d="M85.5,58.9c-1.3-2.4-2.8-0.3-2.8-0.3l3.2,74.4h3.5L85.5,58.9z"/>
	<path fill="#E6E7E8" d="M75.7,58.5c0,0-1.5-1.8-2.8,0.5l-2.7,74h3.5L75.7,58.5z"/>
	<path opacity="0.21" fill="#B6B8BA" d="M75.7,58.5c0,0-1.5-1.8-2.8,0.5l-2.7,74h3.5L75.7,58.5z"/>
	<path opacity="0.28" fill="#A3A5A8" d="M75.7,58.5c0,0-1.5-1.8-2.8,0.5l-2.7,74h3.5L75.7,58.5z"/>
	<path fill="#E6E7E8" d="M80.5,58.1c-1.3-2.4-2.8-0.3-2.8-0.3l1.2,75.1h3.6L80.5,58.1z"/>
	<path opacity="0.28" fill="#B6B8BA" d="M80.5,58.1c-1.3-2.4-2.8-0.3-2.8-0.3l1.2,75.1h3.6L80.5,58.1z"/>
	<path fill="#D1D3D4" d="M118.8,64c0.4-0.5,0.6-1.1,0.6-1.7c0-3-5.1-5.4-11.4-5.4c-2.4,0-4.5,0.3-6.4,0.9c0.3,1.5,1.2,4.8,3.6,6
		c0.8-0.2,1.7-0.2,2.6-0.2c3.8,0,7,1.5,7,3.3L115,69C117.2,67.6,118.4,65.6,118.8,64z"/>
	<path fill="#D1D3D4" d="M99.7,58.6c0.2-0.1,0.4-0.2,0.6-0.3C100.1,58.4,99.9,58.5,99.7,58.6z"/>
	<path fill="#D1D3D4" d="M100.7,58.2c0.3-0.1,0.6-0.2,0.9-0.3C101.2,57.9,100.9,58,100.7,58.2z"/>
	<path fill="#D1D3D4" d="M98.9,59c0.2-0.1,0.3-0.2,0.5-0.3C99.2,58.8,99.1,58.9,98.9,59z"/>
	<path fill="#D1D3D4" d="M98,59.7c0.2-0.2,0.4-0.3,0.6-0.5C98.4,59.4,98.2,59.5,98,59.7z"/>
	<path fill="#D1D3D4" d="M97.3,60.4c-0.1,0.1-0.2,0.3-0.3,0.4C97.1,60.7,97.2,60.6,97.3,60.4z"/>
	<path fill="#D1D3D4" d="M98.4,66.6c0,0.1,0.1,0.1,0.1,0.2C98.5,66.7,98.4,66.7,98.4,66.6z"/>
	<path fill="#D1D3D4" d="M96.7,61.7c-0.1,0.2-0.1,0.4-0.1,0.6C96.6,62.1,96.6,61.9,96.7,61.7z"/>
	<path fill="#D1D3D4" d="M98.8,67.1c0.1,0.1,0.1,0.1,0.2,0.2C98.9,67.2,98.8,67.2,98.8,67.1z"/>
	<path fill="#D1D3D4" d="M99.7,68.1c0.1,0.1,0.1,0.1,0.2,0.2C99.9,68.2,99.8,68.2,99.7,68.1z"/>
	<path fill="#D1D3D4" d="M98.1,66.1c0,0.1,0.1,0.1,0.1,0.2C98.1,66.2,98.1,66.1,98.1,66.1z"/>
	<path fill="#D1D3D4" d="M97.5,65.1c0,0,0,0.1,0.1,0.1C97.6,65.2,97.6,65.1,97.5,65.1z"/>
	<path fill="#D1D3D4" d="M97.2,64.2C97.2,64.2,97.2,64.3,97.2,64.2C97.2,64.3,97.2,64.2,97.2,64.2z"/>
	<path fill="#D1D3D4" d="M97.8,65.6c0,0.1,0.1,0.1,0.1,0.2C97.8,65.7,97.8,65.6,97.8,65.6z"/>
	<path fill="#D1D3D4" d="M96.9,61c-0.1,0.1-0.1,0.3-0.2,0.4C96.8,61.3,96.8,61.2,96.9,61z"/>
	<path fill="#D1D3D4" d="M97.4,60.3c0.2-0.2,0.3-0.4,0.5-0.5c-0.1,0.1-0.3,0.3-0.4,0.4C97.5,60.2,97.5,60.2,97.4,60.3z"/>
	<path fill="#D1D3D4" d="M97.3,64.6C97.4,64.7,97.4,64.7,97.3,64.6C97.4,64.7,97.4,64.7,97.3,64.6z"/>
	<path fill="#D1D3D4" d="M99.4,67.8c-0.1-0.1-0.1-0.1-0.2-0.2C99.3,67.7,99.3,67.7,99.4,67.8z"/>
	<path fill="#D1D3D4" d="M100.3,68.6c0.1,0.1,0.2,0.1,0.2,0.2C100.4,68.7,100.4,68.6,100.3,68.6z"/>
	<path fill="#B6B8BA" d="M98.6,59.2c0.1-0.1,0.2-0.1,0.3-0.2C98.8,59.1,98.7,59.2,98.6,59.2z"/>
	<path opacity="0.55" fill="#B6B8BA" d="M98.6,59.2c0.1-0.1,0.2-0.1,0.3-0.2C98.8,59.1,98.7,59.2,98.6,59.2z"/>
	<path fill="#B6B8BA" d="M98,59.7C98,59.7,98,59.7,98,59.7C98,59.7,98,59.7,98,59.7z"/>
	<path opacity="0.55" fill="#B6B8BA" d="M98,59.7C98,59.7,98,59.7,98,59.7C98,59.7,98,59.7,98,59.7z"/>
	<path fill="#B6B8BA" d="M101.6,57.8c0,0-0.1,0-0.1,0C101.6,57.8,101.6,57.8,101.6,57.8C101.6,57.8,101.6,57.8,101.6,57.8z"/>
	<path opacity="0.55" fill="#B6B8BA" d="M101.6,57.8c0,0-0.1,0-0.1,0C101.6,57.8,101.6,57.8,101.6,57.8
		C101.6,57.8,101.6,57.8,101.6,57.8z"/>
	<path fill="#B6B8BA" d="M100.6,68.8c0.1,0.1,0.2,0.1,0.3,0.2l0,0C100.8,68.9,100.7,68.9,100.6,68.8L100.6,68.8z"/>
	<path opacity="0.55" fill="#B6B8BA" d="M100.6,68.8c0.1,0.1,0.2,0.1,0.3,0.2l0,0C100.8,68.9,100.7,68.9,100.6,68.8L100.6,68.8z"/>
	<path fill="#B6B8BA" d="M100.3,58.3c0.1,0,0.2-0.1,0.3-0.1C100.5,58.2,100.4,58.3,100.3,58.3z"/>
	<path opacity="0.55" fill="#B6B8BA" d="M100.3,58.3c0.1,0,0.2-0.1,0.3-0.1C100.5,58.2,100.4,58.3,100.3,58.3z"/>
	<path fill="#B6B8BA" d="M99.4,58.7c0.1-0.1,0.2-0.1,0.3-0.2C99.6,58.6,99.5,58.7,99.4,58.7z"/>
	<path opacity="0.55" fill="#B6B8BA" d="M99.4,58.7c0.1-0.1,0.2-0.1,0.3-0.2C99.6,58.6,99.5,58.7,99.4,58.7z"/>
	<path fill="#8F9194" d="M100.5,68.8C100.5,68.8,100.6,68.8,100.5,68.8L100.5,68.8C100.6,68.8,100.5,68.8,100.5,68.8z"/>
	<path opacity="0.55" fill="#B6B8BA" d="M100.5,68.8C100.5,68.8,100.6,68.8,100.5,68.8L100.5,68.8C100.6,68.8,100.5,68.8,100.5,68.8
		z"/>
	<path fill="#8F9194" d="M98.2,66.3c0.1,0.1,0.1,0.2,0.2,0.3C98.3,66.5,98.3,66.4,98.2,66.3z"/>
	<path opacity="0.55" fill="#B6B8BA" d="M98.2,66.3c0.1,0.1,0.1,0.2,0.2,0.3C98.3,66.5,98.3,66.4,98.2,66.3z"/>
	<path fill="#8F9194" d="M97.6,65.2c0.1,0.1,0.1,0.2,0.2,0.3C97.7,65.5,97.7,65.3,97.6,65.2z"/>
	<path opacity="0.55" fill="#B6B8BA" d="M97.6,65.2c0.1,0.1,0.1,0.2,0.2,0.3C97.7,65.5,97.7,65.3,97.6,65.2z"/>
	<path fill="#8F9194" d="M97.9,65.7c0.1,0.1,0.1,0.2,0.2,0.3C98,66,97.9,65.9,97.9,65.7z"/>
	<path opacity="0.55" fill="#B6B8BA" d="M97.9,65.7c0.1,0.1,0.1,0.2,0.2,0.3C98,66,97.9,65.9,97.9,65.7z"/>
	<path fill="#8F9194" d="M97.1,63.8c0,0.1,0.1,0.3,0.1,0.4C97.1,64.1,97.1,63.9,97.1,63.8z"/>
	<path opacity="0.55" fill="#B6B8BA" d="M97.1,63.8c0,0.1,0.1,0.3,0.1,0.4C97.1,64.1,97.1,63.9,97.1,63.8z"/>
	<path fill="#8F9194" d="M99.7,68.1c-0.1-0.1-0.2-0.2-0.3-0.3C99.5,67.9,99.6,68,99.7,68.1z"/>
	<path opacity="0.55" fill="#B6B8BA" d="M99.7,68.1c-0.1-0.1-0.2-0.2-0.3-0.3C99.5,67.9,99.6,68,99.7,68.1z"/>
	<path fill="#8F9194" d="M97.2,64.3c0,0.1,0.1,0.2,0.1,0.4C97.3,64.5,97.3,64.4,97.2,64.3z"/>
	<path opacity="0.55" fill="#B6B8BA" d="M97.2,64.3c0,0.1,0.1,0.2,0.1,0.4C97.3,64.5,97.3,64.4,97.2,64.3z"/>
	<path fill="#8F9194" d="M97.4,60.3c-0.1,0.1-0.1,0.1-0.1,0.2C97.3,60.4,97.4,60.3,97.4,60.3z"/>
	<path opacity="0.55" fill="#B6B8BA" d="M97.4,60.3c-0.1,0.1-0.1,0.1-0.1,0.2C97.3,60.4,97.4,60.3,97.4,60.3z"/>
	<path fill="#8F9194" d="M98.5,66.8c0.1,0.1,0.2,0.2,0.2,0.3C98.7,67,98.6,66.9,98.5,66.8z"/>
	<path opacity="0.55" fill="#B6B8BA" d="M98.5,66.8c0.1,0.1,0.2,0.2,0.2,0.3C98.7,67,98.6,66.9,98.5,66.8z"/>
	<path fill="#8F9194" d="M98.9,67.3c0.1,0.1,0.2,0.2,0.3,0.3C99.1,67.5,99,67.4,98.9,67.3z"/>
	<path opacity="0.55" fill="#B6B8BA" d="M98.9,67.3c0.1,0.1,0.2,0.2,0.3,0.3C99.1,67.5,99,67.4,98.9,67.3z"/>
	<path fill="#8F9194" d="M97,60.8c0,0.1-0.1,0.1-0.1,0.2C96.9,61,97,60.9,97,60.8z"/>
	<path opacity="0.55" fill="#B6B8BA" d="M97,60.8c0,0.1-0.1,0.1-0.1,0.2C96.9,61,97,60.9,97,60.8z"/>
	<path fill="#8F9194" d="M97.4,64.7c0,0.1,0.1,0.2,0.2,0.4C97.5,65,97.4,64.9,97.4,64.7z"/>
	<path opacity="0.55" fill="#B6B8BA" d="M97.4,64.7c0,0.1,0.1,0.2,0.2,0.4C97.5,65,97.4,64.9,97.4,64.7z"/>
	<path fill="#8F9194" d="M99.9,68.3c0.1,0.1,0.2,0.2,0.3,0.3C100.2,68.5,100,68.4,99.9,68.3z"/>
	<path opacity="0.55" fill="#B6B8BA" d="M99.9,68.3c0.1,0.1,0.2,0.2,0.3,0.3C100.2,68.5,100,68.4,99.9,68.3z"/>
	<path fill="#8F9194" d="M96.7,61.5c0,0.1,0,0.1-0.1,0.2C96.7,61.6,96.7,61.5,96.7,61.5z"/>
	<path opacity="0.55" fill="#B6B8BA" d="M96.7,61.5c0,0.1,0,0.1-0.1,0.2C96.7,61.6,96.7,61.5,96.7,61.5z"/>
	<path fill="#D1D3D4" d="M101.6,57.8c0,0-0.1,0-0.1,0c-0.3,0.1-0.6,0.2-0.9,0.3c-0.1,0-0.2,0.1-0.3,0.1c-0.2,0.1-0.4,0.2-0.6,0.3
		c-0.1,0.1-0.2,0.1-0.3,0.2c-0.2,0.1-0.3,0.2-0.5,0.3c-0.1,0.1-0.2,0.1-0.3,0.2c-0.2,0.1-0.4,0.3-0.6,0.5c0,0,0,0-0.1,0
		c-0.2,0.2-0.4,0.4-0.5,0.5c-0.1,0.1-0.1,0.1-0.1,0.2c-0.1,0.1-0.2,0.3-0.3,0.4c0,0.1-0.1,0.1-0.1,0.2c-0.1,0.1-0.1,0.3-0.2,0.4
		c0,0.1,0,0.1-0.1,0.2c-0.1,0.2-0.1,0.4-0.1,0.6c0,0.5,0.2,1,0.5,1.5c0,0.1,0.1,0.3,0.1,0.4c0,0,0,0,0,0.1c0,0.1,0.1,0.2,0.1,0.4
		c0,0,0,0.1,0,0.1c0,0.1,0.1,0.2,0.2,0.4c0,0,0,0.1,0.1,0.1c0.1,0.1,0.1,0.2,0.2,0.3c0,0.1,0.1,0.1,0.1,0.2c0.1,0.1,0.1,0.2,0.2,0.3
		c0,0.1,0.1,0.1,0.1,0.2c0.1,0.1,0.1,0.2,0.2,0.3c0,0.1,0.1,0.1,0.1,0.2c0.1,0.1,0.2,0.2,0.2,0.3c0.1,0.1,0.1,0.1,0.2,0.2
		c0.1,0.1,0.2,0.2,0.3,0.3c0.1,0.1,0.1,0.1,0.2,0.2c0.1,0.1,0.2,0.2,0.3,0.3c0.1,0.1,0.1,0.1,0.2,0.2c0.1,0.1,0.2,0.2,0.3,0.3
		c0.1,0.1,0.2,0.1,0.2,0.2c0,0,0,0,0.1,0c0.1,0.1,0.2,0.1,0.3,0.2l0.1-2.1c0-0.1,0-0.3,0.1-0.4c0,0,0-0.1,0-0.1
		c0-0.1,0.1-0.2,0.2-0.3c0,0,0-0.1,0-0.1c0.1-0.1,0.2-0.3,0.3-0.4c0,0,0,0,0.1-0.1c0.1-0.1,0.2-0.2,0.4-0.3c0,0,0.1,0,0.1-0.1
		c0.3-0.2,0.7-0.5,1.1-0.6c0,0,0,0,0.1,0c0.5-0.2,1-0.4,1.5-0.4c0,0,0.3,0,0.3,0s0-0.2,0-0.2c0,0,0.2,0,0.4-0.1
		C103,62.6,101.9,59.3,101.6,57.8z"/>
	<path opacity="0.55" fill="#B6B8BA" d="M101.6,57.8c0,0-0.1,0-0.1,0c-0.3,0.1-0.6,0.2-0.9,0.3c-0.1,0-0.2,0.1-0.3,0.1
		c-0.2,0.1-0.4,0.2-0.6,0.3c-0.1,0.1-0.2,0.1-0.3,0.2c-0.2,0.1-0.3,0.2-0.5,0.3c-0.1,0.1-0.2,0.1-0.3,0.2c-0.2,0.1-0.4,0.3-0.6,0.5
		c0,0,0,0-0.1,0c-0.2,0.2-0.4,0.4-0.5,0.5c-0.1,0.1-0.1,0.1-0.1,0.2c-0.1,0.1-0.2,0.3-0.3,0.4c0,0.1-0.1,0.1-0.1,0.2
		c-0.1,0.1-0.1,0.3-0.2,0.4c0,0.1,0,0.1-0.1,0.2c-0.1,0.2-0.1,0.4-0.1,0.6c0,0.5,0.2,1,0.5,1.5c0,0.1,0.1,0.3,0.1,0.4c0,0,0,0,0,0.1
		c0,0.1,0.1,0.2,0.1,0.4c0,0,0,0.1,0,0.1c0,0.1,0.1,0.2,0.2,0.4c0,0,0,0.1,0.1,0.1c0.1,0.1,0.1,0.2,0.2,0.3c0,0.1,0.1,0.1,0.1,0.2
		c0.1,0.1,0.1,0.2,0.2,0.3c0,0.1,0.1,0.1,0.1,0.2c0.1,0.1,0.1,0.2,0.2,0.3c0,0.1,0.1,0.1,0.1,0.2c0.1,0.1,0.2,0.2,0.2,0.3
		c0.1,0.1,0.1,0.1,0.2,0.2c0.1,0.1,0.2,0.2,0.3,0.3c0.1,0.1,0.1,0.1,0.2,0.2c0.1,0.1,0.2,0.2,0.3,0.3c0.1,0.1,0.1,0.1,0.2,0.2
		c0.1,0.1,0.2,0.2,0.3,0.3c0.1,0.1,0.2,0.1,0.2,0.2c0,0,0,0,0.1,0c0.1,0.1,0.2,0.1,0.3,0.2l0.1-2.1c0-0.1,0-0.3,0.1-0.4
		c0,0,0-0.1,0-0.1c0-0.1,0.1-0.2,0.2-0.3c0,0,0-0.1,0-0.1c0.1-0.1,0.2-0.3,0.3-0.4c0,0,0,0,0.1-0.1c0.1-0.1,0.2-0.2,0.4-0.3
		c0,0,0.1,0,0.1-0.1c0.3-0.2,0.7-0.5,1.1-0.6c0,0,0,0,0.1,0c0.5-0.2,1-0.4,1.5-0.4c0,0,0.3,0,0.3,0s0-0.2,0-0.2c0,0,0.2,0,0.4-0.1
		C103,62.6,101.9,59.3,101.6,57.8z"/>
	<path fill="#E6E7E8" d="M115,69l-0.2-2.2c0-1.8-3.1-3.3-7-3.3c-0.9,0-1.8,0.1-2.6,0.2c-0.2,0-0.3,0.1-0.5,0.1
		c0.4,0.3,1.1,1.2,1,2.8c-0.1,2,0.9,56.3,1.1,66.3h12.6l-1.5-22.2L115,69.5L115,69z M107.8,133l-1-66.5c0,0,1.3-1.6,2.5,0.5l1.7,66
		H107.8z M117.2,133h-3.1l-2.8-65.8c0,0,1.3-1.6,2.4,0.5L117.2,133z"/>
	<path fill="#E6E7E8" d="M101.2,65.9c0.1-0.1,0.2-0.3,0.3-0.4C101.4,65.6,101.3,65.8,101.2,65.9z"/>
	<path fill="#E6E7E8" d="M103.2,64.4c0.5-0.2,1-0.4,1.5-0.5C104.2,64,103.7,64.2,103.2,64.4z"/>
	<path fill="#E6E7E8" d="M101.2,66c-0.1,0.1-0.1,0.2-0.2,0.3C101.1,66.2,101.1,66.1,101.2,66z"/>
	<path fill="#E6E7E8" d="M101,66.4c0,0.1-0.1,0.3-0.1,0.4C101,66.7,101,66.6,101,66.4z"/>
	<path fill="#E6E7E8" d="M102,65.1c-0.1,0.1-0.2,0.2-0.4,0.3C101.7,65.3,101.8,65.2,102,65.1z"/>
	<path fill="#E6E7E8" d="M103.2,64.4c-0.4,0.2-0.8,0.4-1.1,0.6C102.4,64.8,102.7,64.6,103.2,64.4z"/>
	<polygon fill="#D1D3D4" points="104.7,63.9 104.7,63.9 104.7,63.9 	"/>
	<polygon opacity="0.55" fill="#B6B8BA" points="104.7,63.9 104.7,63.9 104.7,63.9 	"/>
	<polygon opacity="0.21" fill="#B6B8BA" points="104.7,63.9 104.7,63.9 104.7,63.9 	"/>
	<path fill="#D1D3D4" d="M103.2,64.4C103.2,64.4,103.2,64.4,103.2,64.4C103.2,64.4,103.2,64.4,103.2,64.4z"/>
	<path opacity="0.55" fill="#B6B8BA" d="M103.2,64.4C103.2,64.4,103.2,64.4,103.2,64.4C103.2,64.4,103.2,64.4,103.2,64.4z"/>
	<path opacity="0.21" fill="#B6B8BA" d="M103.2,64.4C103.2,64.4,103.2,64.4,103.2,64.4C103.2,64.4,103.2,64.4,103.2,64.4z"/>
	<path fill="#D1D3D4" d="M101.2,65.9C101.2,65.9,101.2,65.9,101.2,65.9C101.2,65.9,101.2,65.9,101.2,65.9z"/>
	<path opacity="0.55" fill="#B6B8BA" d="M101.2,65.9C101.2,65.9,101.2,65.9,101.2,65.9C101.2,65.9,101.2,65.9,101.2,65.9z"/>
	<path opacity="0.21" fill="#B6B8BA" d="M101.2,65.9C101.2,65.9,101.2,65.9,101.2,65.9C101.2,65.9,101.2,65.9,101.2,65.9z"/>
	<path fill="#D1D3D4" d="M101.5,65.5C101.6,65.5,101.6,65.5,101.5,65.5C101.6,65.5,101.6,65.5,101.5,65.5z"/>
	<path opacity="0.55" fill="#B6B8BA" d="M101.5,65.5C101.6,65.5,101.6,65.5,101.5,65.5C101.6,65.5,101.6,65.5,101.5,65.5z"/>
	<path opacity="0.21" fill="#B6B8BA" d="M101.5,65.5C101.6,65.5,101.6,65.5,101.5,65.5C101.6,65.5,101.6,65.5,101.5,65.5z"/>
	<path fill="#D1D3D4" d="M102,65.1C102,65.1,102,65.1,102,65.1C102,65.1,102,65.1,102,65.1z"/>
	<path opacity="0.55" fill="#B6B8BA" d="M102,65.1C102,65.1,102,65.1,102,65.1C102,65.1,102,65.1,102,65.1z"/>
	<path opacity="0.21" fill="#B6B8BA" d="M102,65.1C102,65.1,102,65.1,102,65.1C102,65.1,102,65.1,102,65.1z"/>
	<path fill="#D1D3D4" d="M101.1,66.3c0,0,0,0.1,0,0.1C101,66.4,101,66.3,101.1,66.3z"/>
	<path opacity="0.55" fill="#B6B8BA" d="M101.1,66.3c0,0,0,0.1,0,0.1C101,66.4,101,66.3,101.1,66.3z"/>
	<path opacity="0.21" fill="#B6B8BA" d="M101.1,66.3c0,0,0,0.1,0,0.1C101,66.4,101,66.3,101.1,66.3z"/>
	<path fill="#E6E7E8" d="M105.8,66.8c0.1-1.7-0.7-2.8-1-2.8c0,0,0,0,0,0c-0.5,0-1.1,0.3-1.5,0.4c0,0,0,0-0.1,0
		c-0.4,0.2-0.8,0.4-1.1,0.6c0,0-0.1,0-0.1,0.1c-0.1,0.1-0.2,0.2-0.4,0.3c0,0,0,0-0.1,0.1c-0.1,0.1-0.2,0.3-0.3,0.4c0,0,0,0.1,0,0.1
		c-0.1,0.1-0.1,0.2-0.2,0.3c0,0,0,0.1,0,0.1c0,0.1,0,0.3,0,0.4l0,2.1v0l-0.1,0.1l-2.7,54.7l-0.5,9.2h9.1
		C106.7,123,105.7,68.8,105.8,66.8z M100.3,133l2.4-65.4c1.1-2.1,2.4-0.2,2.4-0.2l-1.7,65.6H100.3z"/>
	<path opacity="0.21" fill="#B6B8BA" d="M105.8,66.8c0.1-1.7-0.7-2.8-1-2.8c0,0,0,0,0,0c-0.5,0-1.1,0.3-1.5,0.4c0,0,0,0-0.1,0
		c-0.4,0.2-0.8,0.4-1.1,0.6c0,0-0.1,0-0.1,0.1c-0.1,0.1-0.2,0.2-0.4,0.3c0,0,0,0-0.1,0.1c-0.1,0.1-0.2,0.3-0.3,0.4c0,0,0,0.1,0,0.1
		c-0.1,0.1-0.1,0.2-0.2,0.3c0,0,0,0.1,0,0.1c0,0.1,0,0.3,0,0.4l0,2.1v0l-0.1,0.1l-2.7,54.7l-0.5,9.2h9.1
		C106.7,123,105.7,68.8,105.8,66.8z M100.3,133l2.4-65.4c1.1-2.1,2.4-0.2,2.4-0.2l-1.7,65.6H100.3z"/>
	<path fill="#E6E7E8" d="M113.7,67.6c-1.2-2.1-2.4-0.2-2.4-0.2l2.8,65.6h3.1L113.7,67.6z"/>
	<path opacity="0.28" fill="#B6B8BA" d="M113.7,67.6c-1.2-2.1-2.4-0.2-2.4-0.2l2.8,65.6h3.1L113.7,67.6z"/>
	<path fill="#E6E7E8" d="M105,67.2c0,0-1.3-1.6-2.4,0.5l-2.4,65.3h3.1L105,67.2z"/>
	<path opacity="0.21" fill="#B6B8BA" d="M105,67.2c0,0-1.3-1.6-2.4,0.5l-2.4,65.3h3.1L105,67.2z"/>
	<path opacity="0.28" fill="#A3A5A8" d="M105,67.2c0,0-1.3-1.6-2.4,0.5l-2.4,65.3h3.1L105,67.2z"/>
	<path fill="#E6E7E8" d="M109.3,66.9c-1.1-2.1-2.5-0.2-2.5-0.2l1,66.3h3.2L109.3,66.9z"/>
	<path opacity="0.28" fill="#B6B8BA" d="M109.3,66.9c-1.1-2.1-2.5-0.2-2.5-0.2l1,66.3h3.2L109.3,66.9z"/>
</g>
</svg>
