<?xml version="1.0" encoding="utf-8"?>
<!-- Generator: Adobe Illustrator 18.1.0, SVG Export Plug-In . SVG Version: 6.00 Build 0)  -->
<svg version="1.0" id="Layer_1" xmlns="http://www.w3.org/2000/svg" xmlns:xlink="http://www.w3.org/1999/xlink" x="0px" y="0px"
	 viewBox="0 0 150 150" enable-background="new 0 0 150 150" xml:space="preserve">
<g>
	<path fill="#00A74F" d="M118.7,40.2v1.5v4.9v1.5v4.9l0,1.5v4.9v1.5v4.9v1.5v4.9v1.5l0,4.9v1.5v4.9v1.5v4.9v1.5v0.3l-4.6,4.6
		l-1.5,1.5l-4.9,4.9l-1.5,1.5l-4.9,4.9l-1.5,1.5l-4.9,4.9h-1.1v-4.9V111v-4.9v-1.5v-4.9v-1.5v-4.9v-1.5v-4.9v-1.5v-4.9v-1.5v-1.6
		L92,78.8H63.8l-1.5,1.5h28.3l-4.9,4.9H57.3l-1.5,1.5h28.3l-4.9,4.9H50.9l-1.5,1.5h28.3l-4.9,4.9H44.5l-1.5,1.5h28.3l-4.9,4.9H38
		l-1.5,1.5h28.3l-4.9,4.9H39.1c0.4,0.5,0.8,1,1.3,1.5h17.9l-4.9,4.9h-8.2c0.6,0.5,1.1,1.1,1.7,1.5h5l-4.9,4.9h-0.4
		c0.1,0.1,0.2,0.1,0.2,0.1c0.7,0.4,1.4,0.9,2.1,1.3c0.1,0,0.1,0.1,0.2,0.1c0.2,0.1,0.3,0.2,0.5,0.3c4.5,2.4,9.4,4.2,14.6,5.3
		c0.3,0.1,0.7,0.2,1,0.2c1.7,0.3,3.4,0.6,5.1,0.8c0.2,0,0.3,0,0.5,0c1.8,0.2,3.6,0.3,5.4,0.3c31.3-0.1,56.7-25.4,56.7-56.7
		c0-14.4-5.4-27.5-14.3-37.5V40.2z"/>
	<path d="M35.8,99.6l1.5-1.5l4.9-4.9l1.5-1.5l4.9-4.9l1.5-1.5l4.9-4.9l1.5-1.5l4.9-4.9l1.5-1.5l4.9-4.9l1.5-1.5l4.9-4.9l1.5-1.5v0
		l-41.3,0l4.9-4.9l1.5-1.5l4.9-4.9l1.5-1.5l4.9-4.9l1.5-1.5l4.9-4.9l0.8-0.8h55.7c-10.2-9.7-23.9-15.7-39.1-15.7
		c-31.3,0.1-56.7,25.4-56.7,56.7c0,11.5,3.5,22.1,9.3,31.1l0.5-0.5l1.5-1.5L35.8,99.6z"/>
	<path fill="#00A74F" d="M139.9,73.9c0-0.5-0.1-1.1-0.1-1.6c-0.1-1.7-0.2-3.4-0.4-5c-0.1-0.5-0.2-1.1-0.2-1.6c-0.3-1.7-0.6-3.4-1-5
		c-0.1-0.5-0.3-1-0.4-1.6c-0.5-1.7-1-3.4-1.6-5c-0.2-0.5-0.4-1.1-0.6-1.6c-0.7-1.7-1.4-3.4-2.2-5c-0.3-0.5-0.5-1.1-0.7-1.6
		c-0.9-1.7-1.9-3.4-3-5c-0.3-0.5-0.7-1.1-1-1.6c-1.2-1.7-2.5-3.4-3.9-5c-0.5-0.5-0.9-1.1-1.4-1.6c-11.7-12.9-28.5-21-47.2-21
		c-18.8,0-35.5,8.1-47.2,21c-0.5,0.5-1,1-1.4,1.6c-1.4,1.6-2.6,3.3-3.9,5c-0.3,0.5-0.7,1-1,1.6c-1.1,1.6-2,3.3-3,5
		c-0.3,0.5-0.5,1.1-0.8,1.6c-0.8,1.6-1.5,3.3-2.2,5c-0.2,0.5-0.4,1.1-0.6,1.6c-0.6,1.6-1.1,3.3-1.6,5c-0.2,0.5-0.3,1-0.4,1.6
		c-0.4,1.7-0.7,3.3-1,5c-0.1,0.5-0.2,1.1-0.2,1.6c-0.2,1.6-0.4,3.3-0.4,5c0,0.5-0.1,1-0.1,1.6c0,0.6-0.1,1.1-0.1,1.7
		c0,1.1,0.1,2.3,0.2,3.4c0,0.5,0,1.1,0.1,1.6c0.1,1.7,0.4,3.4,0.6,5c0.1,0.5,0.2,1.1,0.2,1.6c0.3,1.7,0.7,3.4,1.2,5
		c0.1,0.5,0.3,1.1,0.4,1.6c0.5,1.7,1.1,3.4,1.8,5c0.2,0.5,0.4,1.1,0.6,1.6c0.7,1.7,1.5,3.4,2.4,5c0.3,0.5,0.6,1,0.9,1.6
		c1,1.7,2,3.4,3.1,5c0.4,0.5,0.8,1.1,1.2,1.6c1.3,1.7,2.7,3.4,4.1,5c0.5,0.5,0.9,1.1,1.4,1.6c1.7,1.8,3.6,3.5,5.5,5
		c0.7,0.6,1.4,1,2.1,1.6c10.6,7.9,23.8,12.7,38.1,12.7c14.3,0,27.4-4.7,38.1-12.7c0.7-0.5,1.4-1,2.1-1.6c1.9-1.6,3.7-3.3,5.5-5
		c0.5-0.5,1-1.1,1.4-1.6c1.5-1.6,2.8-3.3,4.1-5c0.4-0.5,0.8-1,1.2-1.6c1.1-1.6,2.2-3.3,3.1-5c0.3-0.5,0.6-1,0.9-1.6
		c0.9-1.6,1.7-3.3,2.4-5c0.2-0.5,0.4-1.1,0.6-1.6c0.6-1.6,1.2-3.3,1.7-5c0.1-0.5,0.3-1,0.4-1.6c0.4-1.6,0.8-3.3,1.2-5
		c0.1-0.5,0.2-1.1,0.2-1.6c0.3-1.7,0.5-3.3,0.6-5c0-0.5,0.1-1.1,0.1-1.6c0.1-1.1,0.2-2.2,0.2-3.4C140,75,139.9,74.4,139.9,73.9z
		 M76.2,133.7c-1.9,0-3.7-0.1-5.5-0.3c-0.2,0-0.3,0-0.5,0c-1.8-0.2-3.5-0.5-5.2-0.8c-0.3-0.1-0.7-0.2-1-0.2
		c-5.3-1.1-10.3-3-14.9-5.5c-0.2-0.1-0.3-0.2-0.5-0.2c-0.1,0-0.1-0.1-0.2-0.1c-0.7-0.4-1.5-0.9-2.2-1.3c-0.1,0-0.2-0.1-0.2-0.1
		c-2.5-1.5-4.8-3.2-7-5c-0.6-0.5-1.2-1-1.7-1.6c-1.7-1.6-3.4-3.2-4.9-5c-0.4-0.5-0.9-1-1.3-1.6c-1.2-1.4-2.3-2.9-3.3-4.5
		c-6-9.1-9.5-20.1-9.6-31.8c0.1-32.1,26-58.1,58.1-58.2c15.5,0,29.6,6.2,40,16.1c0.3,0.3,0.6,0.6,0.9,0.9c0.9,0.9,1.7,1.8,2.5,2.7
		c9.1,10.3,14.6,23.7,14.6,38.5C134.3,107.6,108.3,133.6,76.2,133.7z"/>
</g>
</svg>
