<?xml version="1.0" encoding="utf-8"?>
<!-- Generator: Adobe Illustrator 18.1.0, SVG Export Plug-In . SVG Version: 6.00 Build 0)  -->
<svg version="1.1" id="Layer_1" xmlns="http://www.w3.org/2000/svg" xmlns:xlink="http://www.w3.org/1999/xlink" x="0px" y="0px"
	 viewBox="0 0 150 150" enable-background="new 0 0 150 150" xml:space="preserve">
<g>
	<g>
		<path fill="#00B5F0" d="M54.8,20.9L54.8,20.9c-3.8,1.3-5.9,2.6-5.9,2.6c1.8-0.8,3.7-1.6,5.5-2.4C54.5,21,54.7,20.9,54.8,20.9z"/>
		<path fill="#00B5F0" d="M54.8,20.9L54.8,20.9c-0.1,0.1-0.3,0.1-0.4,0.2c-1.8,0.8-3.7,1.6-5.5,2.4L24.4,5.1
			c2.3,3.8,15.3,24.7,22.5,36.3c7.9-5.9,17.6-9.5,27.5-9.7c12.1-0.4,24.2,4.3,33.2,12.4c3.9-2.6,8.2-4.8,12-7.7
			C91.8,12,66,16.9,54.8,20.9z"/>
		<path fill="#84D4F6" d="M20.9,96.3C20.9,96.3,20.9,96.3,20.9,96.3c0.1,0.1,0.1,0.3,0.2,0.4c0.8,1.8,1.6,3.7,2.4,5.5L5.2,126.7
			c3.8-2.3,24.7-15.3,36.3-22.5c-5.9-7.9-9.5-17.6-9.7-27.5C31.4,64.6,36,52.6,44.2,43.6c-2.6-3.9-4.8-8.2-7.7-12
			C12,59.4,16.9,85.1,20.9,96.3z"/>
	</g>
	<g>
		<path fill="#00B5F0" d="M96.6,129.7L96.6,129.7c3.8-1.3,5.9-2.6,5.9-2.6c-1.8,0.8-3.7,1.6-5.5,2.4
			C96.8,129.5,96.7,129.6,96.6,129.7z"/>
		<path fill="#609ABD" d="M96.6,129.7L96.6,129.7c0.1-0.1,0.3-0.1,0.4-0.2c1.8-0.8,3.7-1.6,5.5-2.4l24.5,18.4
			c-2.3-3.8-15.2-24.7-22.5-36.3c-7.9,5.9-17.6,9.5-27.5,9.7c-12.1,0.4-24.2-4.3-33.2-12.4c-4,2.6-8.2,4.8-12,7.7
			C59.6,138.6,85.3,133.7,96.6,129.7z"/>
		<path fill="#4B6171" d="M130.4,54.2C130.4,54.2,130.4,54.2,130.4,54.2c-0.1-0.1-0.1-0.3-0.2-0.4c-0.8-1.8-1.6-3.7-2.4-5.5
			l18.4-24.5c-3.8,2.3-24.7,15.3-36.3,22.5c5.9,7.9,9.5,17.6,9.7,27.5c0.4,12.1-4.3,24.2-12.4,33.2c2.6,3.9,4.8,8.2,7.7,12
			C139.4,91.2,134.5,65.4,130.4,54.2z"/>
	</g>
	<path fill="#00B5F0" d="M115.4,75.3c0-21.8-17.7-39.5-39.5-39.5c-21.8,0-39.5,17.7-39.5,39.5c0,21.8,17.7,39.5,39.5,39.5
		C97.7,114.9,115.4,97.2,115.4,75.3z M109,91.4c-0.2,0.3-0.1,0.1-0.3,0.5c-0.2,0.3-0.2,0.3-0.4,0.7c-0.1,0.2-0.2,0.3-0.4,0.5
		l-0.1,0.1c-0.2,0.1-0.2,0.1-0.3,0l-0.2-0.1l0.1-0.3c0-0.2-0.2,0.3-0.4,0.5c-0.2,0.2-0.3,0.3-0.3,0.2l0.1-0.3c0.1-0.2-0.1,0,0-0.3
		c0-0.3,0.1,0,0.3-0.2c0.2-0.1,0.1,0,0.3-0.1l0.1-0.2c0-0.2-0.1-0.1,0-0.3c0.1-0.2,0.1,0,0.2,0l0.1,0.1l0.2,0c0.2,0,0.4-0.4,0.5-0.6
		c0.1-0.1,0.1-0.3,0.4-0.6c0.3-0.4,0.2-0.3,0.2-0.1C109.2,91.1,109.1,91.1,109,91.4z M110,89.2l-0.1,0.5l-0.1,0.2l-0.3,0.1
		c-0.1-0.1-0.1,0.1-0.3,0.3c-0.2,0.2,0-0.1,0-0.3c0-0.1,0.1-0.3,0.3-0.5c0.2-0.1,0.1-0.3,0.3-0.4l0.2-0.2L110,89.2z M111.1,85.7
		c0,0.2,0,0.4-0.2,0.7c-0.2,0.3-0.2,0.3-0.1,0.5c0,0.2-0.2,0.5-0.2,0.8l-0.2,0.8l-0.2,0.3c0-0.1,0.1-0.5,0-0.4l-0.2,0.1
		c0-0.2,0.1-0.3,0.2-0.5c0.1-0.2,0.2-0.4,0.3-0.6c0.1-0.2,0.2-0.4,0.2-0.6c0.1-0.2,0-0.1,0.1-0.4c0.1-0.4,0.1-0.3,0.1-0.6
		c0.1-0.3,0.1-0.4,0-0.5l0-0.3l0.2-0.3l0.2-0.3c0.1,0,0.2-0.1,0.1,0.3c-0.1,0.4-0.1,0.4-0.3,0.7C111.1,85.5,111.1,85.5,111.1,85.7z
		 M106.2,59.6L106.2,59.6L106.2,59.6l0.1,0.4l-0.3-0.1l-0.1-0.3L106.2,59.6z M104.1,58.3L104.1,58.3L104.1,58.3l0.1,0.4l-0.3-0.1
		l-0.1-0.4L104.1,58.3z M94.7,43.1c0,0,0-0.1,0.2,0c0.2,0.1,0.2,0.1,0.5,0.4c0.2,0.3,0,0.2,0.2,0.4l0.6,0.4c0.1,0,0.3,0.2,0.9,0.7
		c0.5,0.5,0.4,0.3,0.7,0.8c0.3,0.6,0,0.3,0.1,0.5c0.1,0.1,0.1,0.1,0.3,0.3c0.2,0.1,0.3,0.2,0.4,0.2l0.3,0.3l0,0.2
		c0,0.2,0.1,0,0.3,0.4c0.2,0.4-0.2,0-0.4-0.1c-0.2-0.1-0.1-0.3-0.4-0.4C98,47,97.9,47,97.8,47l0,0.5c-0.1,0.1-0.2,0-0.3-0.2
		c-0.1-0.2,0.1,0,0.1-0.1l-0.3-0.5l-1-0.4c-0.2,0.1-0.1,0.2-0.4,0c-0.3-0.2-0.2-0.5-0.5-0.4c-0.2,0.1,0.1,0.3-0.1,0.4
		c-0.2,0.1-0.4-0.2-0.8-0.4c-0.4-0.2-0.6-0.2-0.8-0.5c-0.2-0.2-0.9-0.4-1.3-0.6c-0.4-0.3-0.6-0.4-0.9-0.8c-0.3-0.4-0.3-0.2-0.9-0.5
		c-0.6-0.3-0.6-0.1-1-0.1c-0.4,0-0.6-0.3-0.9-0.4c-0.3-0.1-0.1-0.3,0.2-0.5c0.2-0.2,0.4-0.1,0.7-0.1c0.3,0,0.7-0.1,1-0.2
		c0.4-0.1,0.8,0.2,1.1,0.4c0.3,0.2,0.4,0.1,0.8,0.2c0.3,0.1,0.5-0.2,0.9-0.1c0.5,0,0.5,0.2,0.9,0.4C94.6,43.3,94.7,43.1,94.7,43.1z
		 M94.2,47.1c0.3,0,0.3,0,0.7,0.3c0.3,0.3,0.1,0.3,0.1,0.4l-0.2,0.1c-0.2-0.1-0.2,0-0.4,0.1c-0.3,0.1-0.3,0-0.5-0.2
		c-0.2-0.2-0.3-0.2-0.5-0.4c-0.2-0.2-0.1-0.1-0.3-0.2l-0.1-0.3c0-0.1-0.1-0.3,0-0.5c0.1-0.2,0.3-0.2,0.4-0.2l0.4,0.2
		c0.1,0.2,0.2,0,0.3,0.1l-0.1,0.1c0,0.1-0.3,0.1-0.2,0.3C93.8,47.1,93.9,47,94.2,47.1z M92,41.2c0.3,0.2,0.2,0.2,0.4,0.3
		c0.3,0.1,0.6,0.2,0.8,0.3c0.3,0.2,0.5,0.3,0.8,0.6c0.3,0.2,0.5,0.3,0.3,0.3c-0.2,0-0.4-0.2-0.8-0.3c-0.3-0.2-0.2-0.1-0.6-0.3
		c-0.4-0.2-0.6-0.3-0.8-0.4c-0.2-0.1-0.6-0.4-0.6-0.6C91.6,41.1,91.8,41,92,41.2z M90.3,40.2l0.5,0.4l0.1,0.1c0.1,0.1,0-0.1,0.2,0
		c0.2,0.1,0,0.1,0,0.1L91,40.9l-0.4-0.1L90,40.3L90.3,40.2z M89.2,40.3l-0.4,0c0,0.1-0.2,0.1,0.1,0.3c0.3,0.1,0.2,0.3,0.1,0.3
		c-0.1,0.1,0.1,0.2-0.1,0.3c-0.2,0.1-0.2,0.2-0.4,0.1c-0.2-0.1-0.4-0.2-0.6-0.4c-0.1-0.2-0.3,0.1-0.5-0.1c-0.2-0.1-0.3-0.1-0.3-0.3
		l-0.2-0.1l-0.4,0c-0.2-0.1-0.3-0.2-0.2-0.4c0.1-0.2,0.1-0.2,0-0.4c-0.1-0.1-0.2-0.1-0.3-0.3c-0.1-0.2,0.3,0.1,0.3,0.1
		c0.1,0.1,0.4,0.3,0.7,0.4c0.3,0.1,0.4,0.1,0.6,0.1l0.2-0.3l0.4-0.2l0.6,0.2l0.3,0.1c-0.1,0-0.2,0,0.1,0.2c0.3,0.2,0.3,0.1,0.4,0.2
		H89.2z M89.3,39.7l-0.4,0l-0.5-0.1c-0.2-0.1-0.3-0.2-0.4-0.2h0.3l0.6,0.2L89.3,39.7z M85.3,37.8l0.9,0.3l0.5,0.2l0.5,0.3
		c0.4,0,0.5,0,0.6,0.1c0.1,0.1,0.4,0.2,0.7,0.3c0.3,0.1,0.3,0.1,0.4,0.2c0.1,0.1-0.2,0.1-0.5-0.1c-0.3-0.1-0.2-0.1-0.5-0.2
		c-0.4-0.2-0.3-0.2-0.4-0.3c-0.1-0.1,0,0-0.3,0c-0.3-0.1-0.5-0.1-0.9-0.2c-0.4-0.1-0.7-0.2-0.8-0.3L85.2,38L85.3,37.8z M68.2,40.1
		l0.2-0.1c0.2-0.1,0,0,0.3-0.1c0.3-0.1,0.1,0,0.3-0.1l0.6-0.3l-0.2-0.2l0.1-0.2l-0.2-0.1c4.7-1.5,9.7-2,14.5-1.4
		c0.3,0.2,0.7,0.3,0.8,0.4l1,0.6l0.3,0l0.4,0.1l0.7,0.3l-0.6,0l-0.2,0c0.2,0.1,0.5,0.3,0.6,0.4c0.1,0.1,0,0.1-0.3,0
		c-0.3-0.1-0.6-0.3-0.9-0.3c-0.3-0.1-0.4-0.1-0.6-0.2c-0.2-0.1-0.2-0.3-0.4-0.4l-0.5-0.2l0.3,0.4c0,0.1-0.1,0.1-0.3,0
		c-0.3-0.1-0.1-0.1-0.2-0.2c-0.1-0.1-0.3-0.3-0.6-0.4c-0.3-0.1-2.1-0.3-2.6-0.4c-0.5-0.1-0.8,0.3-0.7,0.4l0.4,0.3
		c0,0.1-0.4,0.1,0,0.2c0.4,0.1,0.3,0.1,0.7,0.2c0.5,0.1,0.4,0.1,0.9,0.1c0.5,0,0.6-0.1,0.9,0.1c0.3,0.1,0.5,0.1,0.8,0.2
		c0.3,0,0.6,0.1,0.8,0.3c0.3,0.2,0.3,0.3,0,0.4c-0.3,0.1-0.6,0.1-0.4,0.2c0.2,0.2,0.2,0,0.6,0c0.4,0,0.4-0.1,0.6,0
		c0.2,0.1-0.3,0.3-0.6,0.4c-0.3,0-0.4,0.1-0.4,0.2c0,0.1-0.1,0.3-0.4,0.3c-0.4,0-0.7-0.4-0.7-0.2c0,0.2,0.3,0.4,0.1,0.4
		c-0.3,0-0.5,0-0.8-0.1c-0.4-0.1-1.1-0.4-1.2-0.6c-0.1-0.2-0.1-0.3-0.2-0.4l-0.4-0.3c-0.2,0-0.9,0.1-1.2,0c-0.4,0-1.3-0.4-1.5-0.4
		s-0.3,0-0.1,0.1c0.2,0.1,0.1,0.2,0.1,0.3l0.1-0.2c-0.1-0.1,0-0.1,0.5,0.1c0.4,0.2,0.7,0.3,0.7,0.3l0.7,0.1c0.2,0,0.4,0,0.7,0.2
		c0.3,0.2,0.6,0.3,0.1,0.2c-0.4-0.1-0.5-0.2-0.7-0.1c-0.2,0.1-0.6,0-0.4,0.2c0.2,0.2,0.5,0.1,0.5,0.3l-0.3,0.1
		c-0.1-0.1-0.3-0.2-0.6-0.2c-0.3,0-0.3,0.1-0.5,0c-0.2-0.1,0.2-0.4,0-0.3l-0.5,0.2l-0.3,0l0.2-0.2l0.3-0.1l-0.4-0.1l-0.1-0.2
		c0,0,0,0.1,0,0.1c0.2,0.1-0.8-0.2-1.2-0.2c-0.3,0-0.5,0.1-0.7,0c-0.1-0.1-0.2-0.2-0.6-0.2c-0.5,0-1.2,0.2-1.6,0.2
		c-0.4,0-0.6-0.1-1,0c-0.4,0.2-0.5,0.2-0.6,0.1c-0.1-0.1-0.6,0-0.7-0.2c-0.2-0.2-0.8-0.1-1.2-0.1c-0.4,0.1-0.9,0.3-1.3,0.5
		c-0.4,0.2-0.5,0.1-0.5,0.1l-0.3,0.1l-0.2,0L68.2,40.1z M81.1,41l0-0.2l0.5,0.1l0.7,0.1l0.6,0.3c0.2,0.1-0.3,0.1-0.4,0.1l-0.1,0.2
		c-0.1,0.2,0.1,0.1-0.3,0.2c-0.3,0.1-0.3,0.1-0.6-0.1c-0.2-0.1-0.3-0.1-0.3-0.2l0.2-0.3L81.1,41z M67.8,42.9l-0.1,0.3l-0.4,0.1
		L67,43.2l0.1-0.2l0.3,0L67.8,42.9z M67.2,42.2l0,0.2v0.2c-0.2,0.1-0.2,0-0.2-0.1l-0.1-0.1l-0.3-0.2l0.1-0.2c0.1-0.1,0.1,0,0.3-0.1
		c0.2-0.1,0.3,0,0.4,0C67.4,41.9,67.4,42.1,67.2,42.2z M66.4,41.2c0.2-0.1,0.1,0,0.2-0.2c0.1-0.2,0.5-0.3,0.4-0.3c0-0.1,0,0-0.3,0
		c-0.3,0-0.6-0.1-0.2-0.3l0.4,0c0.2,0,0.4-0.2,0.4,0c0,0.1,0.1,0-0.1,0.2c-0.2,0.2-0.2,0.2-0.1,0.3l0,0.4c0,0.1,0.1,0.3-0.3,0.3
		c-0.3,0-0.4,0.2-0.5,0l-0.3-0.3C66.1,41.4,66.2,41.3,66.4,41.2z M57.3,58.5C57,58.6,56.7,59,56,59.2c-0.6,0.2-0.6-0.4-0.8-0.4
		c-0.2-0.1-1.4,0.2-2.3,0.6c-0.9,0.4-1.3,0.9-1.7,0.8c-0.4-0.2-0.5-0.6-0.6-0.3c-0.1,0.4,0.1,0.2,0,0.6c-0.1,0.4-0.1,0.4-0.3,0.4
		c-0.2,0-0.5,0.3-0.7,0.1c-0.1-0.1-0.1-0.7-0.3-0.6c-0.2,0.1-0.2,0.1-0.3,0.4c-0.1,0.3-0.3,0.6-0.4,0.7c-0.1,0.1-0.1-0.1-0.2,0.1
		c-0.1,0.2,0,0.3-0.2,0.4l-0.2,0c-0.1,0.1-0.2,0.1-0.2,0.4c-0.1,0.3,0.1,0.6-0.1,0.8c-0.2,0.2-0.5,0.7-0.6,0.7c-0.1,0-0.1,0-0.1,0.3
		L47,64.5l-0.1,0.1c0,0,0.1,0.1,0.1,0.5c-0.1,0.4-0.1,0.5-0.1,0.5l-0.1,0.3l-0.1-0.2l0-0.8l0.1-0.1l0-0.1v-0.2l-0.1-0.1l0.1-0.6
		c0.1-0.2,0.1-0.2,0.2-0.5c0.1-0.3,0.1-0.8,0.2-0.9c0.1-0.2,0.2-0.4,0.3-0.6c0.1-0.2,0.1-0.6,0.2-0.7c0.2-0.1,0.3-0.2,0.5-0.5
		c0.1-0.2,0.2-0.8,0.4-1.2c0.2-0.4,0.3-0.8,0.5-1.1c0.2-0.3,0.2-0.7,0.5-0.6c0.3,0,0.7-1.1,0.7-1.1s0.8-1.3,1.1-1.6
		c0.3-0.4,0.7-0.9,1.2-1.4c0.5-0.6,0.9-1,1.3-1.6c0.5-0.7,0.6-1.7,0.7-1.9c0.1-0.2,0.6-1,1-1.4c0.4-0.4,0.5-0.5,0.7-0.7
		c0.2-0.2,0.7-1,0.9-1.2c0.2-0.1,0.8-0.5,0.9-0.6c0.1-0.2,0.1-0.3,0.5-0.5c0.4-0.2,0.7-0.3,1.2-0.4c0.4-0.2,0.6-0.3,0.7-0.3
		c0.2-0.1,0.8-0.5,1.3-0.9c0.5-0.4,0.6-0.6,0.6-0.6l-0.3-0.1c-0.2-0.1-0.2-0.2,0.1-0.4c0.3-0.3,0.8-0.6,0.9-0.7l0.4-0.4l0-0.1
		c0.8-0.5,1.7-0.9,2.6-1.3l0,0c0.1,0.1,0.1,0.1-0.2,0.3c-0.3,0.1-0.3,0.2-0.6,0.2c-0.3,0.1-0.6,0.2-0.9,0.4c-0.3,0.2,0,0,0.1,0.2
		c0,0.1-0.1,0.2-0.3,0.3c-0.2,0.2-0.3,0.2-0.7,0.4c-0.4,0.2-0.5,0.2-0.7,0.4c-0.2,0.2-0.1,0.3-0.3,0.5c-0.1,0.2,0.6-0.1,0.5,0.2
		c-0.1,0.2-0.5,0.3-0.1,0.3c0.4,0,1.1-0.3,1.2-0.2c0.2,0.1,0.3,0.1,0,0.3c-0.3,0.2-0.4,0.2-0.6,0.4c-0.3,0.1-0.5,0.2-0.5,0.2l0.2,0
		c0.1-0.1,0.2-0.2,0.4-0.3c0.2-0.1,0.3,0,0.6,0l0.3,0.1L64,44.4c0,0.2,0.4,0.4,0.4,0.6c0.1,0.3-0.4,1.2-0.8,2
		c-0.4,0.8,0,1.9-0.1,2.3c-0.1,0.5-0.1,1-0.3,1.5c-0.2,0.5-1.4,3.1-1.3,3.6c0.2,0.4,0.3,0.3-0.2,1.2c-0.4,0.9-0.3,1.1-0.9,1.3
		c-0.6,0.2-0.9,0.3-1.8,0.5C58.2,57.5,57.5,58.3,57.3,58.5z M76.8,87.3c-0.3,0.1-0.4,0.5-0.7,0.4c-0.3-0.1-0.5-0.4-0.8-0.3
		c-0.3,0.1-0.3,0.3-0.4,0.5c0,0.2-0.2,0.5-0.3,0.3c-0.1-0.2-0.2-0.3-0.4-0.1c-0.2,0.1-0.3,0.1-0.6,0.3c-0.3,0.2-0.7,0.6-0.8,0.6
		l-0.7-0.1c-0.2-0.1-0.6,0.2-0.8-0.2c-0.2-0.4-0.2-0.3-0.1-0.6c0.1-0.3,0.1-0.5,0.3-0.5c0.2,0,0.3-0.4,0.6-0.2
		c0.3,0.2,0.4,0.2,0.6,0.1c0.2-0.1,0.2-0.3,0.6-0.3c0.3,0,0.5-0.1,0.7-0.3c0.2-0.2,0-0.3,0.2-0.5c0.2-0.2,0.7-0.3,0.9-0.2
		c0,0,0.7,0.2,1,0.3c0.3,0.1,0.7-0.1,0.8,0.2C76.9,86.9,77.1,87.1,76.8,87.3z M84.5,106.8l0.1-0.1c0-0.1,0.4-0.2-0.2-0.3
		c-0.6-0.1-0.5-0.2-0.8-0.3c-0.3-0.1-0.3-0.2-0.7-0.2c-0.4,0-0.3-0.1-0.7-0.2c-0.5-0.1-1-0.2-1-0.2s-0.8-0.3-0.3-0.5
		c0.6-0.2,0.4,0.1,1.2,0c0.7,0,0.7,0,1.1-0.1c0.4-0.1,1.3-0.6,2.9-0.6c1.6,0,1.2,0.3,1.7,0.4c0.5,0.1,0.7,0.1,1.2,0
		c0.4-0.1,0.8-0.4,1-0.3c0.2,0-0.3,0.3,0.1,0.2c0.4-0.1,0.4-0.1,0.7,0c0.3,0,0.3,0.2,0.4,0.2c0.1,0-0.3,0.2,0,0.1
		c0.3-0.1,0.5-0.3,0.9-0.2h0.1C89.7,105.8,87.1,106.4,84.5,106.8z M91.8,100.8c0.2-0.4,0.1-0.2,0.6-0.2c0.5-0.1,0.2,0.2,0.1,0.5
		c-0.1,0.2-0.1,0.1,0,0.5c0.1,0.4-0.1,0.2-0.1,0.4l0.1,0.3c-0.4,0.3-0.6,0.1-0.8-0.1c-0.3-0.2,0.1-0.3,0.1-0.6
		C91.8,101.2,91.6,101.2,91.8,100.8z M93.3,98.5c0.5-0.3,0.6-0.5,0.7-0.6c0.2-0.1,0.3-0.1,0.3-0.2c-0.1,0-0.3,0-0.1-0.4
		c0.2-0.3,0.2-0.2,0.2-0.6c0.1-0.3,0.1-0.4,0.2-0.6c0.1-0.2,0.2-0.3,0.4-0.2c0.2,0,0.3,0.1,0.1,0.6c-0.3,0.4-0.2,0.5-0.3,0.7
		l-0.3,0.5c0,0.2-0.1,0.4-0.1,0.6c0,0.2,0.3,0.2,0,0.5c-0.2,0.3-0.6,0.3-0.7,0.5c-0.1,0.2-0.2,0.1-0.2,0.3c0.1,0.2-0.8,0.4-0.8,0.6
		l-0.1,0.2c-0.2-0.1-0.2,0.1-0.4-0.1c-0.2-0.2-0.1-0.3,0.1-0.5s0.1-0.2,0.4-0.6C93.2,98.7,92.8,98.8,93.3,98.5z M93.3,91.1
		c0.1-0.2,0.2-0.2,0.5-0.4c0.3-0.2,0.3-0.1,0.4-0.1l0.2,0l0.2,0c0.1,0.1-0.1,0.2-0.2,0.5c-0.1,0.2-0.1,0.1-0.2,0.2
		C94,91.4,94,91.4,94,91.6l-0.2,0.2c-0.1,0.1-0.2,0.1-0.5,0C93.1,91.6,93.2,91.3,93.3,91.1z M93.2,103.4l0.3,0l0.3,0.1l0,0.2
		c0,0.1-0.1,0.1-0.4,0.1c-0.3,0-0.1,0-0.2-0.1L93.2,103.4z M92.4,102.6l0.4,0c0,0.1,0.1,0.3-0.1,0.3c-0.2-0.1-0.4,0-0.5,0
		C92.2,102.9,92.1,102.7,92.4,102.6z M92.7,103.1c0.1-0.1,0,0,0.3-0.1c0.2,0,0.2,0,0.3,0l-0.3,0.2c-0.2,0.1-0.3,0-0.4,0L92.7,103.1z
		 M92.7,104.7L92.7,104.7l0.3-0.1L92.7,104.7z M93.6,104l-0.1,0.1l-0.2,0l-0.3,0l-0.1-0.1l-0.1-0.1l0.3-0.1h0.4l0.4,0L93.6,104z
		 M93.7,100.6l-0.2-0.1c-0.1-0.1,0-0.1,0.2-0.2c0.1-0.2,0.1,0,0.2,0l0.2,0L93.7,100.6z M93.8,100.1l-0.3,0l0.1-0.4l0.1-0.2
		c0.1,0.1,0,0.1,0.3,0c0.3-0.1,0.2,0,0.2,0.1c0,0.1,0.1,0.1-0.1,0.3C94,100.1,93.9,100.1,93.8,100.1z M96.6,101.6
		c-0.3,0-0.6,0.1-0.5,0.2c0.2,0.1,0.4,0.1,0.2,0.2c-0.2,0.2-0.3,0.3-0.5,0.2l-0.3,0c-0.2,0.2,0.2,0.1-0.2,0.3
		c-0.3,0.2-0.4,0.3-0.5,0.3c-0.2,0,0-0.1,0.2-0.4c0.2-0.3,0.2-0.4-0.1-0.2c-0.2,0.2-0.3,0.2-0.6,0.4c-0.3,0.2-0.3,0.2-0.4,0.1
		l0.1-0.3c0.2,0,0.2,0,0.4-0.1c0.2-0.1,0.3-0.1,0.5-0.3c0.2-0.2,0.1-0.3,0.3-0.3c0.3,0,0.1-0.1,0.2,0c0.4-0.1,0.4-0.3,0.7-0.2
		c0.3,0.1,0.3-0.1,0.4,0.1c0.2,0.1,0.5,0,0.5,0.1c0,0.2,0,0.3-0.5,0.3C96.4,101.9,97,101.6,96.6,101.6z M98.1,101.8c0,0,0,0-0.2,0.1
		h-0.2c-0.2,0-0.3,0.3-0.6,0.4c-0.2,0.1-0.2,0.1-0.3,0.1c-0.1,0,0.1-0.1,0.3-0.2c0.2-0.1,0-0.1,0.4-0.3c0.4-0.2,0.2-0.1,0.4-0.2
		C98.3,101.7,98.2,101.7,98.1,101.8z M98.2,100.1c-0.2,0-0.4,0.2-0.5,0.2l-0.6,0.3l-0.3,0.1l-0.2,0.4c-0.1,0.1,0-0.1-0.6,0.1
		c-0.5,0.3-0.5,0.2-1,0.4c-0.5,0.2-0.6,0.3-0.7,0.1c-0.1-0.2,0.2-0.2,0-0.5c-0.2-0.3-0.2-0.1-0.2-0.4c0-0.3,0.3-0.3,0.4-0.5
		c0.1-0.3,0.1-0.4,0.4-0.7c0.4-0.2,0.2-0.3,0.9-0.3c0,0.2-0.5,0.4-0.1,0.4c0.4,0,0.1-0.2,0.7-0.1c0.5,0,0.7-0.1,0.9-0.1
		c0.2,0-0.1,0.3,0.4,0.1c0.4-0.1,0.5-0.2,0.6,0C98.4,99.8,98.4,100,98.2,100.1z M98.7,99.3l0.1-0.2l0.5-0.2l0.5-0.2l0.3-0.1l0.4-0.2
		l-0.1,0.2l-0.3,0.2l-0.4,0.1L99.5,99l-0.6,0.4L98.7,99.3z M100.7,98.7l0.2-0.1L100.7,98.7l0,0.2l-0.2,0.2l-0.2,0.1H100l0.2-0.2
		l0.3-0.2L100.7,98.7z M102.5,97.1c-0.2,0.1-0.1,0.1-0.2,0.2l-0.4,0.2l-0.2,0.2l0.1,0.1c0.2,0,0.1,0,0,0.3l-0.3,0.2l0,0l-0.1,0.2
		v0.2l-0.1,0.2c-0.1,0.1,0,0.1-0.2,0.2c-0.2,0.1,0,0-0.2,0.3c-0.2,0.2-0.1,0.1-0.4,0.3c-0.3,0.2-0.2,0-0.3,0.1L100,100
		c-0.1,0.2-0.4,0.3-0.6,0.4l-0.4,0v-0.2l0.1-0.2c0-0.1,0-0.1,0.3-0.2c0.3-0.2,0.3,0,0.4,0c0.1,0,0.1,0,0.3-0.1c0.1-0.2,0-0.1,0-0.2
		c0.1-0.1,0.2,0,0.4-0.2c0.2-0.2,0.2-0.2,0.3-0.3c0.1-0.1,0.1-0.2,0.3-0.4c0.2-0.2,0.1-0.3,0-0.3l-0.2,0.1l-0.3,0.1l0.1-0.3l0.1-0.2
		c0.1-0.1,0.2,0.1,0.4,0c0.2-0.1,0.1-0.1,0.1-0.2l-0.2-0.1l0.3-0.4c0-0.2,0.2-0.2,0.4-0.3c0.2-0.1,0.1,0.2,0.4-0.1
		c0.3-0.2,0.5-0.2,0.5-0.2C102.9,96.9,102.6,97,102.5,97.1z M103.2,94.3c-0.2,0-0.2,0-0.3-0.3c-0.1-0.2-0.2-0.1-0.4,0
		c-0.2,0-0.2,0.2-0.4,0.4c-0.2,0.2-0.1,0-0.4,0.1c-0.3,0.2-0.3,0.1-0.3-0.1c0-0.2,0.2-0.3,0.5-0.3c0.3-0.1,0.3-0.1,0.6-0.3
		c0.3-0.2,0-0.5-0.3-0.4c-0.3,0.1-0.4,0.2-0.7,0.3c-0.3,0.1-0.1,0.1-0.5,0.4c-0.3,0.3-0.5,0.9-0.7,1.4c-0.1,0.6-0.5,0.7-0.9,1.1
		c-0.5,0.4-0.5,0.2-0.9,0.2c-0.4,0-0.5,0.1-0.5-0.1c0-0.2,0.2-0.1,0.4-0.3c0.2-0.3,0.2-0.3,0.3-0.7c0.1-0.3-0.1-0.2-0.2-0.4
		c-0.1-0.2,0.1-0.2,0.3-0.4c0.2-0.2-0.2-0.1-0.6-0.1c-0.4,0-1.3,0.7-1.5,0.9c-0.1,0.2,0,0.2,0,0.6c0,0.3-0.2,0.3-0.3,0.7
		c-0.2,0.4-0.1,0.5-0.3,0.9c-0.1,0.3-0.3,0.3-0.6,0.4c-0.3,0.2-0.1,0.2-0.2,0.3c-0.1,0.1-0.5,0.2-0.5-0.1c0-0.3,0.6-1.3,0.7-1.5
		c0.1-0.2,0.5-0.8,0.7-1.2c0.3-0.5,0.1-0.3,0.2-0.7c0.1-0.3,0.5-0.1,0.6-0.2c0.2-0.1,1.3-0.9,1.4-0.9c0.1-0.1-0.1-0.2,0.2-0.4
		c0.3-0.2,0.1-0.4,0.7-0.7c0.5-0.3,0.5-0.5,0.6-0.7c0.1-0.2-0.2,0-0.5,0c-0.3,0-0.4,0.2-0.5,0c-0.1-0.1-0.1-0.3,0.2-0.5
		c0.2-0.2,0.5-0.3,0.8-0.5c0.3-0.2,0.2-0.2,0.2-0.6c0-0.3,0.2-0.6,0-0.8c-0.2-0.3,0.2-0.2,0.3-0.6c0.1-0.3-0.2,0-0.5-0.2
		c-0.3-0.2-0.4,0.1-0.2-0.4c0.2-0.4-0.2-0.3-0.4-0.1c-0.2,0.2-0.3,0.2-0.8,0.2c-0.5,0-0.9,0.2-1.1,0.1c-0.2-0.1-0.7-0.2-0.9-0.3
		c-0.2-0.1-0.5,0-0.6,0.3c-0.1,0.3-0.1,0.3-0.3,0.5c-0.2,0.2-0.2,0.1-0.5,0.1c-0.3,0-0.6,0.3-1.2,0.6c-0.6,0.3-0.7,0-0.8,0
		c0-0.1,0-0.2,0.2-0.5c0.2-0.2,0-0.3,0.2-0.6c0.2-0.3,1-1.5,1-1.5l0.3-0.4c0-0.2,0.2-0.4,0.6-1c0.4-0.6,0.5-0.7,0.7-0.7l0-0.2l0-0.2
		c0-0.1,0.1-0.1,0.4-0.3c0.4-0.3,0.2-0.1,0.4-0.4c0.1-0.2-0.2,0-0.1-0.3l0.5-0.4c0-0.2-0.2-0.1-0.5-0.1c-0.3,0-0.1,0.1-0.4-0.3
		c-0.2-0.3,0.1-0.5,0.4-0.5c0.2,0,0.4,0,0.2-0.1c-0.2-0.2-0.2-0.4-0.2-0.7c0.1-0.3,0.7-0.9,0.5-1.5c-0.2-0.6-0.6-1-0.8-1.4
		c-0.2-0.4-0.6-0.6-0.6-1.3c0-0.7,0.4-0.6,0.2-0.7c-0.2-0.2-0.4-0.3-0.6-0.6c-0.2-0.3-0.2-0.3,0-1c0.2-0.7-0.1-0.9,0.1-1.6
		c0.2-0.7,0.3-0.4-0.1-0.7c-0.3-0.3-0.5,0.1-0.8,0.4c-0.4,0.3-0.1,0.5-0.2,1.2c-0.1,0.7,0,0.3-0.3,0.8c-0.3,0.5-0.1,0.2-0.3,0.4
		c-0.2,0.3,0.4,0,0.5,0.3c0.1,0.3-0.3,0.5-0.1,0.7c0.2,0.3,0.3,0.4,0.5,0.6c0.2,0.2,0.2,0,0.6-0.2c0.4-0.1-0.1,0.3-0.3,0.5
		c-0.3,0.2-0.1,0.1-0.2,0.4c-0.1,0.3,0,0.3-0.1,0.6c-0.1,0.3,0.2,0.4,0.1,0.7c-0.1,0.2-0.3,0.2-0.9,0.5c-0.6,0.2-1,0.2-1.8,0.2
		c-0.9-0.1-0.8-0.4-1.6-0.5c-0.8-0.2-0.5,0-1.3-0.6c-0.8-0.6-0.9-0.7-1.1-1.2c-0.2-0.5,0.3-0.7,0.9-1.3c0.6-0.5,0.2,0,0.3-1
		c0.1-1,0.2-1.2,0.4-1.7c0.1-0.5,0.4,0,0.4-0.7c-0.1-0.7,0.3-0.5,0.7-1.2c0.4-0.8,0.6-1.1,0.9-1.5c0.3-0.4,0.3-0.7,0.6-1.1
		c0.3-0.3,0.3-0.2,0-0.4c-0.3-0.2-0.3,0.3-0.6,0.1c-0.3-0.2,0.2-0.2,0.1-0.6c-0.1-0.5-0.2-0.2-0.3-0.1c-0.1,0.1,0,0.1-0.4,0.6
		c-0.3,0.5-0.2,0.5-0.6,1c-0.4,0.5-0.2,0.8-0.2,1.2c-0.1,0.4-0.4,0.3-0.7,0.8c-0.3,0.5-0.1,0.4-0.4,0.8c-0.4,0.4-0.2,0.9-0.4,1.1
		c-0.2,0.2-0.4,0.4-0.9,1c-0.6,0.6-0.2,0.7-0.2,1c0,0.3,0.1,1-0.2,1.4c-0.2,0.4-0.6,0.1-0.4,0.4c0.2,0.2-0.1,0.4-0.2,0.8
		c-0.1,0.3-0.3,0.5,0.4,0.7c0.7,0.2,0.7,0.6,0.9,0.8c0.3,0.2,0.7,0.4,0.9,0.7c0.2,0.2-0.9,0.7-1.5,0.8c-0.6,0-1.5,0.1-2,0.4
		c-0.5,0.2-0.8,0.5-1.6,0.3c-0.8-0.2-2.6-0.4-3.3-0.8c-0.7-0.3-1.7,0-2.1,0.3c-0.4,0.2-0.8,0.4-1.4,0.7c-0.6,0.3-0.6,0.9-0.8,1.5
		c-0.2,0.7-1.8,1.3-2.1,1.5c-0.3,0.2-1.2-0.4-1.4-0.4c-0.3-0.1-0.9,0-1.2-0.2c-0.4-0.2-0.6-0.1-0.9,0c-0.3,0.1-0.2,0.3-0.6,0.6
		c-0.4,0.3-0.3,0.3-0.6,0.4c-0.2,0.1-0.2,0-0.9-0.3c-0.7-0.3-0.2-0.7-0.7-0.6c-0.5,0.1-0.2,0.5-1.2,0.4c-1,0-0.8,0.2-1.5,0
		c-0.7-0.2-1-0.1-1.6-0.2c-0.6-0.1-0.7-0.2-1.2-0.7c-0.5-0.5-0.7-0.1-1.4-1.2c-0.7-1.1-0.1-2.4,0.5-2.2c0.6,0.2,0.9,0,1.1-0.7
		c0.2-0.7,0.2-0.9,0.6-1.6c0.4-0.7,1.8-0.8,2.4-1.6c0.6-0.8,1-1.8,1.4-2.3c0.4-0.5,0.8,0,1.3,0c0.5,0,0.8-0.7,2.4-1.6
		c1.6-0.9,1-1.1,1.6-2.2c0.5-1.1,0.6-1.9,1.2-1.9c0.6,0,1.1-0.3,1.8-0.7c0.7-0.4,0.3-0.8-0.2-1.4c-0.5-0.7,0.9-0.2,0.7-1.1
		c-0.2-0.9-0.6-1-1.3-1.3c-0.7-0.4-1.2-1.2-2.1-3c-0.9-1.8,0.2-2.6,0.4-4.1c0.2-1.4,1-1.3,2.1-1.9c1.1-0.6,2-0.5,2.8-1.1
		c0.7-0.6,2.6-0.3,2.6-0.3l0.8,0.2c0.2,0,0.9,0.4,1.4,0.4c0.5,0,0.7-0.1,1.4-0.1c0.7,0,1.5,0.6,1.5,0.6c0.2,0.3,0.1,0.5,0.6,1.2
		c0.5,0.8,0.5,0.5,1.1,0.8c0.6,0.4,0.5,0.3,0.9,0.9c0.5,0.6,0.4,0.2,0.8,0.5c0.4,0.3,0.4,0.4,0.4,0.8c0,0.5-0.3,0.1-0.6,0.2
		c-0.3,0.2-0.2,0.2-0.3,0.8c-0.1,0.6,0.4,0.6,0.7,1.2c0.3,0.7,0,0.4,0.1,0.8c0.1,0.5,0.2,0.5,0.8,0.8c0.6,0.2,0.4,0,0.9,0.6
		c0.5,0.6,0.4,0.1,0.7,0.5c0.3,0.4,0,0.5-0.3,0.6c-0.4,0.2,0,0.4,0,1.1c0,0.6,0.5,0.9,1.1,1.7c0.5,0.9,0.4,0.2,0.9,0.4
		c0.5,0.2,0.9-0.3,1.2-0.7c0.3-0.4,0.3-0.3,0.2-0.9c-0.1-0.5-0.4-0.4-0.7-1.2c-0.4-0.8-0.7-0.7-0.8-1.2c0-0.5,0-0.5,0.3-0.9
		c0.4-0.3,0.4-0.2,0.6-0.4c0.2-0.2-0.4-1.2-0.8-1.2c-0.4,0-0.4-0.1-0.5,0.7c-0.1,0.8,0,0.3-0.3,0.6c-0.2,0.3-0.1,0.1-0.5-0.1
		c-0.4-0.2-0.6-0.6-0.5-0.8c0.1-0.2,0.7-0.3,0.8-0.5c0.1-0.2,0.3-0.2,0.3-0.6c0-0.4-0.5-1-0.9-1.3c-0.4-0.4-0.4,0.3-0.8,0.3
		c-0.4,0.1-0.8-0.3-0.2-0.6c0.6-0.3,0.5,0,0.5-0.3c0-0.3,0.1-0.1,0.3,0c0.2,0.1,0.3-0.1,0.5-0.3c0.2-0.2-0.1-0.1-0.3-0.2
		c-0.2-0.2,0-0.4,0.3-0.7c0.3-0.4,0.1-0.5-0.3-1.1c-0.3-0.7-0.2-0.3-0.9-0.7c-0.7-0.4-1-0.4-1.4-0.4c-0.4,0-0.4,0.4-0.7,0.2
		c-0.3-0.2-0.3-0.4-0.8-0.4c-0.5,0.1-0.3,0.1-0.9,0.1c-0.5-0.1-0.3-0.1-1-0.5c-0.7-0.4-0.3,0-0.6-0.9c-0.2-0.9,0.2-0.7,0.4-1.1
		c0.2-0.3,0.5-0.3,1-0.5c0.5-0.1,0.8-0.2,1.2,0c0.4,0.2,0.2,0.1,0.5,0.6c0.3,0.4,0.6,0.5,0.9,0.5c0.3,0.1,0.4,0,0.6-0.3
		c0.2-0.3,0.1-0.2,0.2-0.7c0.1-0.4,0.2-0.4,0.4-0.5l0.4-0.1l0.4,0.2c0.1,0,0.1,0,0.3-0.1c0.2-0.1-0.2-0.4-0.2-0.4s-0.1,0-0.2-0.3
		c-0.1-0.2-0.1-0.1-0.1-0.5c0-0.4,0-0.2-0.1-0.5c-0.1-0.3-0.1-0.3,0.1-0.5c0.2-0.2,0.5,0.1,0.7,0.1l0.4,0.2c0.3,0.1,0,0.3,0.1,0.4
		c0.1,0.2,0,0.1-0.1,0.4l-0.2,0c-0.2-0.1-0.2,0-0.4-0.1l-0.3,0.1l0.1,0.3l0.2,0.1c0.1,0,0.3-0.2,0.6-0.3c0.3-0.1,0.3,0,0.3,0
		c0.1,0,0.2,0,0.4-0.3c0.3-0.3,0.3-0.2,0.2-0.3c0-0.2-0.2-0.4,0.1-0.2c0.3,0.2,0.3-0.1,0.6,0.2c0.4,0.2,0.3,0.1,0.6,0.2
		c0.3,0.1-0.1,0.2-0.3,0.3c-0.3,0.1-0.1,0.1-0.4,0.3c-0.3,0.2-0.2,0.3-0.4,0.4c-0.2,0.1,0,0.1-0.1,0.4c0,0.3,0,0.2,0.1,0.5
		c0.1,0.3,0,0.3-0.1,0.2c-0.2-0.1-0.5,0.1-0.8-0.3c-0.3-0.3-0.3,0-0.6-0.3c-0.3-0.2-0.1-0.2-0.3-0.2c-0.2,0,0,0.2-0.1,0.5
		c-0.1,0.3,0.1,0.3,0.1,0.4c0,0.1,0.2,0.1,0.7,0.3c0.5,0.3,0.4,0.1,0.9,0.2c0.4,0.1,0.4,0.1,0.7,0.4c0.3,0.3,0.4,0.4,0.5,0.3
		c0.1-0.1,0.4-0.2,0.7-0.3c0.2-0.1,0.3-0.3,0.5-0.2c0.2,0.2,0.2,0,0.1,0.4c-0.1,0.4-0.1,0.1-0.1,0.4c0,0.4-0.1,0.2-0.3,0.3
		c-0.2,0.1-0.1-0.2-0.4-0.1c-0.3,0.1,0,0,0.2,0.5c0.2,0.5,0.1,0.2,0.8,1c0.7,0.8,0.2-0.1,0.6,0.3c0.4,0.4,0.4,0.3,0.7,0.3
		c0.3,0,0.1-0.1,0.6-0.2c0.5,0,0.2,0.3,0.4,0.2c0.2-0.1,0-0.1,0-0.5c0.1-0.4,0.4-0.3,0.7,0c0.3,0.3,0.1,0.5,0.5,0.7
		c0.3,0.1,0-0.4-0.2-0.7c-0.2-0.2-0.3-0.4-0.5-0.7c-0.2-0.3-0.1-0.3,0.1-0.6c0.2-0.3,0-0.1,0.5-0.1c0.5,0,0.5,0,0.1-0.3
		c-0.4-0.3-0.6-0.2-0.9-0.2c-0.3,0.1-0.4,0-0.7,0.2c-0.2,0.2,0,0.1-0.1,0.5c-0.1,0.4-0.4,0.3-0.6,0.5c-0.2,0.1-0.2,0.1-0.6,0
		c-0.4-0.1-0.4-0.1-0.6-0.4c-0.1-0.2-0.2-0.3,0-0.5c0.2-0.2,0-0.3,0.3-0.5c0.3-0.2,0.5,0.1,0.4-0.4c-0.1-0.5-0.3-0.1-0.7-0.4
		c-0.4-0.3,0.1-0.1,0-0.5c0-0.3,0.1-0.2,0.5-0.4c0.4-0.2,0.4,0,1.2,0.2c0.7,0.3,0.8,0.1,1.2,0c0.3-0.2,0.7,0.2,1.1,0.4
		c0.4,0.2,0.5,0.3,0.9,0.5c0.4,0.2,0,0.3,0.3,0.9c0.3,0.6,0.3,0.5,0.4,0.9c0.1,0.5,0.1,0.3,0.1,0.8c0,0.4,0.1,0.1,0.2,0.6
		c0.2,0.5,0.2,0.5-0.1,0.4c-0.3-0.1-0.2,0-0.5-0.6c-0.3-0.6-0.1-0.5-0.4-0.8c-0.3-0.3,0.1,0.2,0.1,0.5c0,0.3,0.1,0.3,0.1,0.7
		c0,0.4-0.1,0.3-0.1,0.6c0,0.3,0,0.2,0.2,0.4c0.2,0.2,0.2-0.1,0.3-0.1c0.2,0.1,0.2,0.5,0.4,0.3c0.3-0.2,0.1,0,0.4,0.1
		c0.2,0.1,0.4,0.2,0.3-0.1c-0.1-0.3-0.1-0.3-0.1-0.4c0.1-0.2,0.3-0.1,0.6,0.3c0.3,0.4-0.1,0.2-0.2,0.5c-0.1,0.3,0.3,0.2,0.5,0.6
		c0.2,0.4,0.5,0.7,0.6,1.1c0.1,0.4,0.2,0,0.5,0.1c0.3,0.1,0.1,0.2,0.3,0.4c0.2,0.3,0,0.3,0.1,0.5c0.1,0.2,0.1,0.1,0.3-0.5
		c0.1-0.5,0.2-0.3,0.4,0.2c0.3,0.6,0.1,0.6,0,1.1c-0.1,0.5-0.1,0.3-0.3,0.6c-0.3,0.2,0,0.1,0,0.4c0,0.3,0.1,0.2,0.4,0
		c0.2-0.2,0.2-0.2,0.4-0.1c0.2,0.1,0,0.4,0.2,0.7c0.2,0.3,0-0.2,0.1-0.5c0.1-0.2,0-0.6-0.1-0.8c-0.1-0.2-0.3-0.3-0.1-0.4
		c0.2-0.1,0.2,0.2,0.3,0.2l0.1-0.5c0.1-0.1,0.4-0.2,0.7,0c0.4,0.2,0.4,0.7,0.5,1.3c0.1,0.6,0.1,0.4,0.5,1.1c0.3,0.7,0.1,0.3,0.1,0.8
		c0,0.5-0.1,0.3-0.1,0.6c0,0.4,0-0.1,0.4-0.1c0.3,0,0.2,0.3,0.2,0.6c0,0.4-0.1,0.1,0,0.5c0.2,0.5,0.6,0.9,0.9,1.5
		c0.3,0.6,0.2,1.1,0.2,1.3c0,0.2,0.1,0.5,0.2,0.8c0.1,0.3,0.2,0.8,0.4,1c0.2,0.2,0.3-0.2,0.5,0.1c0.2,0.3,0,0.7,0,0.9
		c0,0.2,0.3,1,0.7,2c0.3,1,0.3,1.2,0.5,2.2c0.2,1,0.4,1.4,0.5,1.8c0.1,0.4,0.1,0.5,0,0.8c0,0.4,0.1,1,0.1,1.3c0,0.3,0,0.7,0,1.1
		c0,0.4,0,0.3-0.1,0.9c-0.1,0.6-0.1,1-0.1,1.2l-0.1,0.3l0,0.2l-0.1,0.2l-0.3,0.2l-0.2-0.2c-0.1-0.1-0.1,0.2-0.2,0.5
		c-0.1,0.3-0.1,0.3-0.1,0.5c0,0.2,0.1,0.2,0,0.5c-0.1,0.3-0.1,0.3-0.3,0.8c-0.1,0.5-0.2,0.5-0.3,0.8c-0.1,0.2-0.1,0.3-0.2,0.5
		c-0.1,0.2,0,0,0-0.4c0.1-0.4,0.1-0.3,0.2-0.6c0.1-0.2,0-0.3,0.1-0.7c0.1-0.4,0-0.4,0.1-0.5c0-0.1,0.1-0.4,0.2-0.8
		c0-0.4,0.1-0.5,0.2-0.8c0.1-0.2,0.3-0.3,0.4-0.6c0.1-0.2,0-0.2,0-0.5c0-0.3,0-0.3,0-0.4c0-0.1-0.1,0.1-0.2,0.5
		c-0.1,0.4,0,0.2-0.1,0.4c-0.1,0.2-0.1-0.2-0.1-0.4c0-0.3-0.1-0.6-0.1-1c0-0.4-0.2-0.2-0.3-0.1c-0.1,0.1-0.4,0.2-0.6,0.5
		c-0.2,0.3,0.2,1.1,0.2,1.8c0,0.6-0.2,0.7-0.4,1.2c-0.2,0.5-0.2,0.9-0.3,1.5c-0.1,0.6-0.4,0.8-0.6,1.3c-0.2,0.5-0.1,0.3-0.3,0.8
		c-0.3,0.4-0.3,0.3-0.4,0.2c-0.2-0.2-0.3-0.2-0.5,0.2c-0.2,0.4-0.2,0.5-0.3,0.5c-0.1,0.1-0.2,0.4-0.3,0.9c-0.2,0.5-0.1,0.5-0.3,0.7
		c-0.2,0.3-0.1,0.3-0.3,0.5l-0.2-0.1l-0.3,0.1c0-0.2,0.2-0.2,0.3-0.3c0.1-0.1,0.1-0.2,0.1-0.5c0.1-0.2,0.1-0.1,0.3-0.5
		c0.2-0.4-0.2-0.1,0-0.5c0.1-0.4,0.1-0.3,0.3-0.5c0.2-0.2,0-0.2-0.1-0.6c-0.1-0.3,0.1-0.2,0.1-0.7c0-0.5-0.4,0.4-0.5,0.7
		c-0.1,0.2,0.1,0.4,0.1,0.6c0,0.2,0,0.3-0.3,0.4c-0.2,0-0.3,0-0.4,0.2c-0.1,0.2-0.1,0.2-0.2,0.5c-0.1,0.3,0,0.3,0.1,0.6
		c0.1,0.3-0.3,0.6-0.4,0.8l-0.3,0.3c-0.2,0-0.2,0-0.3,0.3c-0.1,0.2,0,0.1,0,0.4c0,0.3-0.4,0.4-0.6,0.5l-0.9,0.7
		c-0.1,0.1-0.3,0.2-0.6,0.3C103.4,94.3,103.4,94.2,103.2,94.3z"/>
</g>
</svg>
