<?xml version="1.0" encoding="utf-8"?>
<!-- Generator: Adobe Illustrator 18.1.0, SVG Export Plug-In . SVG Version: 6.00 Build 0)  -->
<svg version="1.1" id="Layer_1" xmlns="http://www.w3.org/2000/svg" xmlns:xlink="http://www.w3.org/1999/xlink" x="0px" y="0px"
	 viewBox="0 0 150 150" enable-background="new 0 0 150 150" xml:space="preserve">
<g>
	<path fill="#0E323B" d="M138.4,63.3C150,97,125.8,133.9,76,130.7c-8-0.5-14.3-2-19.2-3.5c8.2-1.2,22.6-5.9,33.5-23.4
		c1.5-2.4,3.2-5.1,6.6-6.3c10.6-3.7,20.2,6.4,30.8,2.2c2.9-1.2,4.6-2,7.1-4.8c3.5-3.9,9.3-16.5,2.8-33c0,0,0-0.1,0-0.1
		c-0.5-1.4-1-2.8-1.7-4.3c1,1.8,1.8,3.7,2.6,5.6C138.4,63.2,138.4,63.3,138.4,63.3z"/>
	<path fill="#D25455" d="M32.9,27.3c23.4-26.8,67.4-24.4,89.6,20.4c3.6,7.2,5.4,13.4,6.6,18.4c-5.1-6.5-16.4-16.6-37-17.3
		c-2.8-0.1-6-0.2-8.7-2.6c-8.5-7.3-4.6-20.6-13.5-27.8c-2.4-1.9-4-2.9-7.7-3.7c-5.2-1.1-18.9,0.2-30,14.1c0,0,0,0-0.1,0.1
		c-1,1.1-1.9,2.3-2.9,3.6c1.1-1.8,2.3-3.4,3.5-5C32.8,27.4,32.9,27.3,32.9,27.3z"/>
	<path fill="#0E323B" d="M122.5,47.7C102.7,7.8,65.7,1.5,41.3,19.5c0.1,0.1,0.2,0.3,0.3,0.5c8.5-5.6,16.7-6.1,20.5-5.3
		c3.7,0.8,5.2,1.8,7.7,3.7c9,7.1,5,20.5,13.5,27.8c2.8,2.4,6,2.5,8.7,2.6c20.6,0.7,31.9,10.9,37,17.3
		C127.9,61.1,126,54.8,122.5,47.7z"/>
	<path fill="#C0D449" d="M56.1,137.3C21.2,130.5,1.3,91.2,29,49.6c4.4-6.7,8.9-11.4,12.6-14.9c-3,7.7-6.2,22.5,3.5,40.7
		c1.3,2.5,2.8,5.3,2.1,8.9c-2.1,11-15.6,14.3-17.3,25.6c-0.5,3.1-0.5,4.9,0.6,8.5c1.6,5,9.6,16.3,27.2,18.9c0,0,0.1,0,0.1,0
		c1.5,0.3,3,0.5,4.6,0.7c-2.1-0.1-4.1-0.3-6.1-0.5C56.2,137.4,56.1,137.3,56.1,137.3z"/>
	<g>
		<path fill="#C0D449" d="M75.1,142.5c-37.1,0-67.3-30.2-67.3-67.3C7.8,38.1,38,7.9,75.1,7.9s67.3,30.2,67.3,67.3
			C142.3,112.3,112.2,142.5,75.1,142.5L75.1,142.5z M75.1,12.2c-34.7,0-63,28.3-63,63c0,34.7,28.3,63,63,63c34.7,0,63-28.3,63-63
			C138.1,40.5,109.8,12.2,75.1,12.2L75.1,12.2z"/>
	</g>
</g>
</svg>
