<?xml version="1.0" encoding="utf-8"?>
<!-- Generator: Adobe Illustrator 18.1.0, SVG Export Plug-In . SVG Version: 6.00 Build 0)  -->
<svg version="1.0" id="Layer_1" xmlns="http://www.w3.org/2000/svg" xmlns:xlink="http://www.w3.org/1999/xlink" x="0px" y="0px"
	 viewBox="0 0 150 150" enable-background="new 0 0 150 150" xml:space="preserve">
<g>
	<path fill="none" d="M74,19.4c-18.8,0-37,7-43.9,21.7c-1.6,3.3-2.2,7.4-2.2,12.1c0,14.6,6.6,34.3,15.8,50.6
		c9.5,16.6,20.5,29,31.4,29.2c11.1-0.2,22.3-12.2,32-28.3c9.4-16,16.3-35.4,16.3-50c0-5.3-0.9-9.9-3-13.5
		C111.9,26.5,92.8,19.5,74,19.4z M34.5,75.2c-3.7-12.7-4.8-24.7-1.4-31.9c11.7-24.8,60-26.6,79.7-5.8l-0.2,0.1
		c-0.6,0.4-0.9,1.1-0.9,1.8c0,0.1,0,0.2,0,0.2c-0.3-0.1-0.5-0.2-0.8-0.2c-0.6,0-1.1,0.2-1.4,0.5l-1.5,1.2c-0.6,0.4-0.9,1.2-0.9,1.8
		c0,0.1,0,0.1,0,0.2c-0.3-0.1-0.5-0.2-0.8-0.2c-0.5,0-1,0.2-1.4,0.5l-1.5,1.1c-0.6,0.4-0.9,1.1-0.9,1.9c0,0,0,0.1,0,0.2
		c-0.3-0.1-0.6-0.2-0.8-0.2c-0.5,0-1,0.2-1.4,0.5l-1.5,1.1c-0.6,0.4-0.9,1.2-0.9,1.9c0,0,0,0.1,0,0.1c-0.3-0.1-0.5-0.1-0.8-0.1
		c-0.6,0-1,0.2-1.4,0.5l-1.5,1.2c-0.6,0.4-0.9,1.1-0.9,1.8c0,0.1,0,0.2,0,0.3c-0.3-0.1-0.6-0.2-0.8-0.2c-0.5,0-1,0.2-1.4,0.5
		l-0.7,0.5c-0.2-0.5-0.6-1-1.1-1.2c0.2-0.2,0.4-0.5,0.5-0.5h0.6l-0.1-1.4c0-0.2,0-0.5,0-0.8c0-0.3,0-0.5,0-0.9L89,50h1v-0.4
		c0-0.7-0.2-1.6-0.8-1.6h0c0.7-1,1.3-1.1,1.4-1.8c0.1-0.6,0.4-1.4,0.4-2c0-0.3,0-0.3,0-0.3c0-0.7-0.5-1.3-0.9-1.7
		c0.1,0,0.1-0.1,0.2-0.1c0.6-0.4,1.1-0.9,1.3-1.6c0.1-0.6-0.5-1.3,0.5-1.9c0-0.3,0-0.5,0-0.5c0-1.1-0.9-2-2-2.2c0-0.1-0.4,0-0.5,0
		c-0.1,0-0.1,0-0.1,0c-0.7,0-1.3,0.3-1.7,0.7c-0.4-0.4-1-0.6-1.5-0.6c-0.3,0-0.6,0-0.8,0.1c-0.5,0.1-1.1,0.4-1.8,0.7l-0.4,0.3
		l-0.1,0c-0.7,0.5-1,1.2-1,1.9c0,0.2,0,0.4,0.1,0.6c-0.2,0-0.3,0-0.4,0c-0.8,0-1.5,0.4-1.9,1l-1.1,1.6c-0.1,0.1-0.2,0.3-0.2,0.4
		L78.4,43h0c-0.1,0-0.1,0.7-0.1,0.9c0,0.3,0,0.1,0.2,1.1c0,0-0.1,0-0.1,0c-0.7,0-1.5,0.1-1.9,0.7l-1.1,1.5c-0.3,0.4-0.4,0.8-0.4,1.2
		c0,0.3,0.1,0.6,0.2,0.9c0,0-0.1,0-0.1,0c-0.7,0-1.5,0.4-1.9,1L72.1,52c-0.3,0.3-0.4,0.8-0.4,1.2c0,0.3,0.1,0.8,0.2,0.8
		c0,0-0.1,0-0.1,0c-0.8,0-1.5,0.5-1.9,1.1l-1.1,1.6c-0.3,0.3-0.4,0.9-0.4,1.3c0,0.3,0.1,0.6,0.2,0.9c0,0-0.1,0-0.1,0
		c-0.7,0-1.4,0.4-1.9,1l-1.1,1.6c-0.3,0.3-0.4,0.9-0.4,1.3c0,0.3,0.1,0.6,0.2,0.8c-0.1,0-0.1,0-0.2,0c-0.6,0-1.3,0.3-1.7,0.7
		c-0.3,0.3-0.7,0.6-1.1,1c-0.6,0.3-0.9,0.9-1,1.5c-0.4-0.3-0.8-0.4-1.3-0.4c-0.4,0-0.6,0.1-0.8,0.2l-1.8,0.6
		c-0.8,0.2-1.3,0.9-1.5,1.6c-0.4-0.3-0.9-0.5-1.5-0.5c-0.4,0-0.6,0.1-0.8,0.2l-1.8,0.6c-0.8,0.2-1.3,0.9-1.5,1.6
		c-0.4-0.3-0.9-0.5-1.5-0.5c-0.4,0-0.6,0.1-0.8,0.2L46.3,71c-0.8,0.2-1.3,0.9-1.5,1.7c-0.4-0.4-0.9-0.6-1.5-0.5
		c-0.3,0-0.6,0.1-0.8,0.2l-1.8,0.6c-0.8,0.2-1.3,0.9-1.5,1.7c-0.4-0.4-0.9-0.6-1.5-0.6c-0.4,0-0.6,0.1-0.8,0.2l-1.8,0.6
		C34.9,74.8,34.7,75,34.5,75.2z M75.2,129c-12.2,0-26.4-18.6-35.3-39.2c0.5,0.1,1.2,0.3,1.7,0.4l0.4-1.3V90h0c0.4,0,0.7,0.1,1.1-0.1
		c0.2-0.1,0.4-0.2,0.5-0.3c0.2,0.7,0.7,1.3,1.5,1.6c0.6,0.1,1.2,0.3,1.8,0.6l0.4-1.2l-0.3,1.3c0.1,0,0.3,0.1,0.6,0.1
		c0.4,0,0.8-0.1,1.1-0.3c0.1,0,0.2-0.1,0.3-0.2c0.1,0.7,0.7,1.3,1.4,1.7c0.6,0.2,1.2,0.5,1.8,0.7l0.5-1.2l-0.5,1.2
		c0.2,0.1,0.5,0.2,0.8,0.2c0.4,0,0.7-0.1,1-0.2c0,0,0.1-0.1,0.2-0.1c0.1,0.8,0.5,1.4,1.2,1.8c0.5,0.3,1.1,0.6,1.6,0.9l0.7-1.1
		l-0.5,1.2c0.2,0.1,0.4,0.3,0.8,0.3c0.3,0,0.9,0,0.9-0.2v0c0,0.7,0.5,1.4,1.1,1.9c0.4,0.2,0.8,0.5,1.1,0.7c0.2,0.1,0.3,0.2,0.5,0.4
		l0.8-1l-0.8,1.1c0.4,0.3,0.9,0.4,1.4,0.4c0.2,0,0.4,0,0.6-0.1c0,0.1,0,0.3,0,0.4c0,0.6,0.2,1.1,0.6,1.6c0.4,0.4,0.8,0.7,1.1,1.1
		l1-1h0l-1.1,1c0.4,0.5,1,0.9,1.8,0.9c-0.2,0.3-0.3,0.8-0.3,1.1c0,0.4,0.1,0.7,0.2,1c0.3,0.5,0.4,1.1,0.6,1.6
		c0.2,0.7,0.5,1.2,1.2,1.4c-0.4,0.4-0.9,1.1-0.9,1.7c0,0.2,1,0.3,0,0.3c1,0.6,0.4,1.2,0.4,1.7c0,0.7,0.5,1.4,1.1,1.8
		c-0.6,0.3-1,0.9-1.1,1.6c-0.1,0.3-0.1,0.5-0.1,0.6l-0.1,0.3c-0.2,0.1,0,0.4-0.1,0.6c0,0.7,0.3,1.3,0.8,1.8c0.4,0.3,0.9,0.5,1.5,0.5
		c0.3,0,0.7,0,1-0.2l0.8-0.4l-0.6-1.1l0.8,1l0,0c0.5-0.3,0.9-1,1-1.7c0.3,0.2,0.7,0.3,1.1,0.3c0.3,0,0.7,0,1.1-0.3l0.1-0.1
		c0.7-0.4,1.5-1.1,2.1-2.3c0.2-0.4,0.3-0.6,0.3-1c0-0.5-0.2-1.1-0.5-1.5c0.2,0,0.4-0.1,0.7-0.2c0.5-0.3,0.8-0.7,1-1.2
		c0.2-0.6,0.4-1.2,0.6-1.9c0.1-0.3,0.1-0.5,0.1-0.8c0-0.5-0.2-1-0.5-1.4c0.2,0,0.4-0.1,0.6-0.2c0.5-0.3,0.9-0.7,1.1-1.2
		c0.2-0.6,0.4-1.2,0.7-1.8c0.1-0.3,0.1-0.5,0.1-0.8c0-0.5-0.2-0.9-0.4-1.3c0.3,0,0.5-0.1,0.8-0.3c0.4-0.3,0.8-0.6,1-1.1
		c0.2-0.6,0.5-1.2,0.7-1.7c0.1-0.4,0.2-0.6,0.2-0.9c0-0.4-0.1-0.9-0.4-1.3c0.3,0,0.5-0.1,0.8-0.2l0.8-0.7c0.5-0.9,0.8-1.4,1.1-1.9
		c0.2-0.4,0.3-0.7,0.3-1.2c0-0.3,0-0.5-0.1-0.7c0.1,0,0.2,0,0.3,0c0.4,0,0.8-0.1,1.1-0.3l0.3-0.2c0.4-0.4,1-0.7,1.6-1.1
		c0.6-0.6,1.1-1.2,1.1-1.9v0c0,0.2,0.5,0.2,0.9,0.2c0.2,0,0.4-0.2,0.7-0.2h0.1l0.4-0.2c0.4-0.2,0.8-0.4,1.2-0.7l0.4-0.2
		c0.7-0.5,1.1-1.2,1.1-1.9c0.3,0.2,0.7,0.3,1.1,0.3c0.3,0,0.8-0.1,1.2-0.2c0.6-0.3,0.9-0.6,1.9-1v0c0-0.5,1-1.2,1-1.9
		c0.3,0.2,0.7,0.3,1.1,0.3c0.3,0,0.6,0,1-0.2c0.6-0.3,1.1-0.6,1.7-0.9l-0.6-1.1l0.7,1.1l0.1,0c0.6-0.4,1-1,1-1.8
		c0.3,0.2,0.8,0.3,1.2,0.4c0.2,0,0.6,0,1-0.2c0.6-0.3,1.2-0.6,1.8-0.9l-0.6-1.1l0.8,1l0.1-0.1c0.5-0.4,0.9-1,1-1.7
		c0.4,0.2,0.8,0.3,1.2,0.3c0.3,0,0.7-0.1,1-0.2c0.7-0.3,1.3-0.6,1.7-0.9l-0.5-1.2l0.7,1.1l0.1,0c0.6-0.4,1-1,1-1.7
		c0.1,0.1,0.4,0.1,0.5,0.2C109.7,100,90.4,129,75.2,129z M118.3,69.3c-0.2,0.1-0.3,0.2-0.5,0.3c-0.1,0.1-0.2,0.1-0.5,0.3
		c-0.1,0.1-0.3,0.2-0.6,0.3l0.6-0.1c-1.3,0.4-1.8,1.2-1.8,2c-0.4-0.3-0.8-0.4-1.2-0.4c-0.5,0-0.8,0.1-1,0.3
		c-0.5,0.2-1.1,0.5-1.8,0.8c-0.8,0.4-1.2,1.1-1.3,1.9c-0.4-0.2-0.8-0.4-1.2-0.4c-0.4,0-0.8,0.1-1.1,0.3c-0.5,0.2-1,0.6-1.7,0.8
		c-0.7,0.3-1.2,1.1-1.2,1.9c-0.4-0.2-0.8-0.4-1.2-0.3c-0.4,0-0.8,0.1-1.1,0.3c-0.5,0.3-1.1,0.6-1.7,0.9c-0.7,0.3-1.2,1.1-1.2,1.8
		c-0.4-0.2-0.8-0.3-1.2-0.3c-0.4,0-0.8,0.1-1.1,0.3c-0.5,0.3-1.1,0.6-1.7,0.9c-0.8,0.4-1.2,1.2-1.2,1.9c-0.3-0.2-0.7-0.3-1.1-0.3
		c-0.4,0-0.8,0.2-1.2,0.3l-0.4,0.2c-0.4,0.3-0.6,0.5-1,0.7c-0.7,0.4-0.9,1.2-0.9,2v0c-1-0.2-0.9-0.2-1.2-0.2c-0.5,0-1.1,0.2-1.4,0.5
		c-0.6,0.4-1.3,0.9-1.8,1.2c-0.6,0.4-0.9,1.1-0.9,1.8c0,0.2,0,0.5,0.1,0.7c-0.1,0-0.2,0-0.2,0c-0.8,0-1.6,0.4-2,1.1
		c-0.3,0.6-0.7,1.2-1,1.8c-0.2,0.3-0.2,0.7-0.2,1c0,0.4,0.1,0.9,0.4,1.3c-0.8,0.1-1.5,0.6-1.9,1.4c-0.3,0.6-0.5,1.2-0.8,1.8
		c-0.2,0.3-0.2,0.6-0.2,0.9c0,0.5,0.2,1,0.5,1.4c-0.8,0.1-1.5,0.7-1.8,1.5c-0.2,0.6-0.5,1.2-0.7,1.9c-0.2,0.2-0.1,0.5-0.1,0.7
		c0,0.6,0.2,1.1,0.5,1.5c-0.8,0.1-1.5,0.7-1.7,1.5c-0.2,0.7-0.4,1.3-0.6,1.8c-0.2,0.3-0.1,0.6-0.1,0.7c0,0.5,0.2,1.1,0.5,1.5
		c-0.7,0.1-1.3,0.6-1.6,1.2c-0.1,0.3-0.2,0.3-0.4,0.5c0,0-0.1,0-0.1,0.1l0-0.8c0-0.7-0.1-1.4-0.2-2.2c-0.1-0.9-0.8-1.7-1.6-1.9
		c0.5-0.5,0.7-1,0.7-1.6c0-0.3,0-0.5-0.1-0.7c-0.2-0.7-0.5-1.4-0.8-2.1c-0.4-0.9-1.2-1.4-2.1-1.4c0.2-0.3,0.3-0.7,0.3-1
		c0-0.5-0.1-1-0.4-1.4c-0.4-0.6-0.9-1.1-1.4-1.7c-0.4-0.5-1.1-0.8-1.7-0.8c-0.2,0-0.4,0-0.6,0.1c0-0.1,0-0.3,0-0.4
		c0-0.7-0.3-1.4-0.9-1.8c-0.2-0.2-0.4-0.3-0.6-0.4c-0.3-0.2-0.7-0.5-1.1-0.8c-0.3-0.3-0.7-0.5-1.1-0.4c-0.4,0-0.8,0.1-0.8,0.2v0
		c0-0.8-0.6-1.5-1.3-2c-0.6-0.3-1.3-0.7-1.9-1c-0.3-0.2-0.9-0.3-1.2-0.3c-0.4,0-0.9,0.1-1.3,0.4c-0.1-0.8-0.6-1.5-1.4-1.9
		c-0.6-0.3-1.2-0.5-1.9-0.8c-0.2-0.2-0.7-0.2-0.9-0.2c-0.5,0-1,0.2-1.4,0.5c-0.1-0.8-0.7-1.5-1.5-1.7c-0.6-0.2-1.3-0.4-1.9-0.6
		c-0.2-0.1-0.6-0.1-0.6-0.1c-0.6,0-1.2,0.3-1.6,0.6c-0.2-0.8-0.8-1.4-1.7-1.6c-0.6-0.2-1.3-0.4-2-0.6c0-0.1-0.2-0.2-0.3-0.2
		c-0.1,0-0.2,0-0.2,0c-0.7,0-1.3,0.4-1.7,0.9c-0.1-0.2-0.2-0.3-0.4-0.4c-0.8-2.2-1.7-4.3-2.4-6.4c0.1,0,0.2,0.1,0.3,0.1
		c0.2,0,0.4,0,0.7-0.1l1.9-0.6l-0.4-1.2l0.6,1.1l0.2-0.1c0.6-0.4,1-0.9,1.1-1.5c0.4,0.3,0.9,0.5,1.5,0.5c0.2,0,0.4,0,0.7-0.1
		l1.9-0.6l-0.4-1.2l0.6,1.2l0.2-0.1c0.6-0.4,1-0.9,1.2-1.5c0.4,0.3,0.9,0.5,1.5,0.5c0.2,0,0.4,0,0.7-0.1l1.9-0.6l-0.4-1.2l0.6,1.2
		l0.2-0.1c0.6-0.4,1-0.9,1.1-1.5c0.4,0.3,0.9,0.5,1.4,0.5c0.2,0,0.4,0,0.7-0.1l1.9-0.6l-0.4-1.2l0.6,1.2l0.2-0.1
		c0.6-0.4,1-0.9,1.2-1.5c0.4,0.3,0.9,0.5,1.5,0.5c0.3,0,0.5,0,0.7-0.1l1.9-0.6l-0.4-1.2l0.6,1.2l0.2-0.1c0.6-0.4,1-1,1.1-1.7
		c0.4,0.3,0.8,0.4,1.3,0.4c0.4,0,0.8-0.1,1.1-0.3l0.1,0c0.8-0.6,1.5-1.1,2-1.7c0.4-0.5,0.6-1,0.6-1.6c0-0.3-0.1-0.6-0.2-0.8
		c0.1,0,0.1,0,0.2,0c0.3,0,0.7-0.1,1.1-0.3l0.6-0.5l1.3-1.8c0.3-0.4,0.4-0.9,0.4-1.3c0-0.3-0.1-0.7-0.2-1c0,0,0.1,0,0.1,0
		c0.3,0,0.7,0,1.1-0.2l0.6-0.5l1.3-1.8c0.3-0.5,0.4-0.9,0.4-1.3c0-0.3-0.1-0.6-0.2-0.9c0,0,0.1,0,0.1,0c0.3,0,0.7-0.1,1.1-0.3
		l0.6-0.5l1.3-1.8c0.2-0.5,0.4-0.7,0.4-1.2c0-0.3-0.1-0.8-0.2-0.8c0,0,0.1,0,0.1,0c0.3,0,0.7-0.2,1.1-0.4l0.6-0.6l1.3-1.9
		c0.3-0.4,0.4-0.8,0.4-1.2c0-0.3-0.1-0.9-0.2-0.9c0.1,0,0.1,0,0.2,0c0.3,0,0.7-0.1,1.1-0.3l0.6-0.5l1.3-1.8l0.1-0.2
		c0.1-0.3,0.3-0.7,0.3-1.1c0-0.2,0-0.4-0.1-0.6c0.1,0,0.3,0,0.5,0c0.4,0,0.9-0.1,1.4-0.5l0.3-0.3l-0.2,0.2c0.1-0.1,0.5-0.2,0.9-0.3
		c0.1,0.5,0.4,0.9,0.7,1.2c-0.7,0.3-1.3,1-1.4,1.8C86,44.2,86,44.8,86,45.4c0,0.1,0,0.1,0,0.2v0.1v0.1c0,0.8,0.3,1.4,0.9,1.8
		c-0.7,0.4-1,1.1-1,2c0,0.3,0.1,0.7,0.1,1.1c0,0.3,0,0.6,0,0.9c0,0.9,0.3,1.6,1,2c-0.6,0.4-1,1.1-1,1.9c0,0.1-0.1,0.2,0,0.4
		c0.1,0.6,0.2,1.3,0.3,2c0.2,1.1,1.2,1.8,2.2,1.8c0.1,0,0.2-0.2,0.4-0.3L88.7,58c0,0,0,0,0,0l0.5,1.4l0.3,0c0.1-0.1,0.3-0.1,0.4-0.2
		c0.3,0.1,0.6,0.3,1,0.3c0.4,0,0.8-0.1,1.1-0.3l0.3-0.2l1.5-1.1c0.6-0.5,0.9-1.1,0.9-1.9c0-0.1,0-0.2,0-0.2c0.3,0.1,0.5,0.1,0.8,0.1
		c0.4,0,0.8-0.1,1.1-0.3l0.3-0.1l1.4-1.2c0.6-0.5,0.7-1.1,0.7-1.8c0-0.1,0-0.2,0-0.2c1,0.1,0.7,0.1,1,0.1c0.4,0,0.8-0.1,1.2-0.3
		l0.3-0.2l1.6-1.2c0.5-0.5,0.9-1.1,0.9-1.8c0-0.1,0-0.2,0-0.3c0.3,0.1,0.5,0.2,0.8,0.2c0.4,0,0.8-0.1,1.1-0.3l0.2-0.1l1.6-1.2
		c0.6-0.5,0.9-1.1,0.9-1.9c0,0,0-0.1,0-0.1c0.3,0.1,0.5,0.1,0.8,0.1c0.4,0,0.7-0.1,1.1-0.3l0.2-0.1l1.7-1.3c0.5-0.5,0.9-1.1,0.9-1.9
		c0,0,0-0.1,0-0.2c0.3,0.1,0.5,0.1,0.8,0.1c0.4,0,0.8-0.1,1.1-0.3l0.2-0.2l0.3-0.2c0.5,0.7,1.1,1.4,1.6,2.2c0.2,0.4,0.3,0.9,0.5,1.3
		l-1,0.9c-0.6,0.4-0.8,1.1-0.8,1.7c0,0.1,0,0.2,0,0.3c-0.2-0.1-0.5-0.1-0.7-0.1c-0.6,0-1.1,0.2-1.5,0.6l-1.4,1.2
		c-0.5,0.4-0.8,1.1-0.8,1.7c0,0.1,0,0.2,0,0.4c-0.2-0.1-0.5-0.1-0.7-0.1c-0.6,0-1.1,0.2-1.5,0.6l-1.5,1.3c-0.6,0.4-0.8,1.1-0.8,1.7
		c0,0.1,0,0.2,0,0.3c-0.2-0.1-0.5-0.1-0.7-0.1c-0.5,0-1.1,0.2-1.5,0.6l-1.4,1.2c-0.6,0.4-0.8,1.1-0.8,1.7c0,0.1,0,0.2,0,0.3
		c-0.2-0.1-0.5-0.1-0.7-0.1c-0.6,0-1.1,0.2-1.5,0.6L99,60.6c-0.5,0.4-0.8,1.1-0.8,1.7c0,0.1,0,0.2,0,0.4c-0.2-0.1-0.5-0.1-0.7-0.1
		c-0.6,0-1.1,0.2-1.5,0.6l-1.5,1.2c-0.5,0.4-0.8,1.1-0.8,1.7c0,0.2,0,0.4,0.1,0.6c-0.3,0.2-0.5,0.4-0.7,0.7
		c-0.3,0.3-0.3,0.8-0.3,1.2c0,0.7,0.4,1.5,1,2c0.7,0.4,1.5,0.8,2.3,1l0.4-1.2l-0.1,1.3c0,0,0.1,0,0.5,0c0.3,0,0.7,0,1.1-0.3
		c0.2-0.1,0.4-0.3,0.6-0.5c0.2,0.5,0.6,0.9,1,1.1l1.3,1.5l0.1-1.6c0.2,0,0.5,0,0.7,0c0.3,0,0.7,0,1.1,0c0.5,0,0.8-0.2,1-0.3
		c0.3-0.2,0.5,0.3,0.8-0.7h0.4c0.4,1,1,1,1.6,1h0.1c0.9,0,1.5-0.2,2.2-0.3l-0.2-1.3l0.5,1.2l0.3-0.1c0.6-0.4,1-0.8,1.2-1.3
		c0.4,0.5,1,0.7,1.7,0.7c0.2,0,0.3,0,0.4,0c0.8-0.2,1.4-0.3,2.1-0.5l-0.3-1.3l0.5,1.2l0.2-0.1c0.7-0.4,1-0.9,1.2-1.5
		c0.4,0.4,0.9,0.6,1.6,0.6C118,69.3,118.1,69.3,118.3,69.3C118.3,69.3,118.3,69.3,118.3,69.3z M119.3,64.2c-0.1,0-0.3,0.1-0.4,0.1
		c-0.5,0.2-1.1,0.4-1.7,0.6c-0.8,0.2-1.4,0.8-1.6,1.6c-0.4-0.4-1-0.6-1.6-0.6c-0.3,0-0.6,0.1-0.7,0.2c-0.4,0.1-1.1,0.2-1.7,0.4
		c-0.8,0.1-1.4,0.7-1.6,1.5c-0.4-0.5-1-0.7-1.7-0.7c-0.4,0-0.4,0.1-0.4,0.1c-0.6,0.1-1.2,0.2-1.8,0.3c-0.8,0.1-1.4,0.6-1.7,1.2
		c-0.4-0.6-0.8-0.9-1.6-0.9c0,0,0.2,0,0.2,0v0c-1,0-0.9,0.1-1.1,0.1c-0.3,0-0.9,0.1-1.1,0.1h0h-0.1h-0.1c-0.7,0-1.3,0.2-1.7,0.7
		c-0.2-0.4-0.5-0.9-0.9-1.1l1-0.9c0.5-0.5,0.8-1.1,0.8-1.8c0-0.1,0-0.3,0-0.4c0.2,0.1,0.5,0.1,0.7,0.1c0.4,0,0.7-0.1,1.1-0.3
		l0.3-0.2l1.6-1.3c0.5-0.5,0.8-1.1,0.8-1.7c0-0.1,0-0.2,0-0.4c0.2,0.1,0.5,0.1,0.7,0.1c0.3,0,0.8-0.1,1.2-0.3l0.3-0.2l1.5-1.3
		c0.5-0.5,0.8-1.1,0.8-1.8c0-0.1,0-0.2,0-0.4c0.2,0.1,0.5,0.1,0.7,0.1c0.4,0,0.8-0.1,1.1-0.3l0.3-0.2l1.6-1.3
		c0.5-0.5,0.8-1.1,0.8-1.8c0-0.1,0-0.2,0-0.4c0.2,0.1,0.5,0.1,0.7,0.1c0.4,0,0.8-0.1,1.1-0.3l0.3-0.2l1.6-1.3
		c0.5-0.5,0.8-1.1,0.8-1.8c0-0.1,0-0.2,0-0.4c0.2,0.1,0.5,0.1,0.7,0.1c0.4,0,0.7-0.1,1.1-0.3C120.2,53.5,120.2,58.6,119.3,64.2z"/>
	<path fill="#F05D28" d="M118.2,49.5c-0.3,0-0.5,0-0.7-0.1c0,0.1,0,0.2,0,0.4c0,0.7-0.3,1.2-0.8,1.8l-1.6,1.3l-0.3,0.2
		c-0.4,0.2-0.7,0.3-1.1,0.3c-0.2,0-0.5,0-0.7-0.1c0,0.1,0,0.2,0,0.4c0,0.7-0.3,1.2-0.8,1.8l-1.6,1.3l-0.3,0.2
		c-0.3,0.2-0.7,0.3-1.1,0.3c-0.2,0-0.5,0-0.7-0.1c0,0.1,0,0.2,0,0.4c0,0.7-0.3,1.3-0.8,1.8l-1.5,1.3l-0.3,0.2
		c-0.4,0.2-0.8,0.3-1.2,0.3c-0.3,0-0.5,0-0.7-0.1c0,0.1,0,0.2,0,0.4c0,0.7-0.3,1.3-0.8,1.7l-1.6,1.3l-0.3,0.2
		c-0.4,0.2-0.7,0.3-1.1,0.3c-0.2,0-0.5,0-0.7-0.1c0,0.1,0,0.2,0,0.4c0,0.7-0.3,1.2-0.8,1.7l-1,0.9c0.4,0.3,0.8,0.7,0.9,1.2
		c0.4-0.5,1-0.7,1.7-0.7h0.1h0.1h0c0.3,0,0.8-0.1,1.1-0.1c0.2,0,0.1-0.1,1.1-0.1v0c0,0-0.2,0-0.2,0c0.8,0,1.3,0.3,1.7,0.9
		c0.3-0.7,0.9-1.2,1.7-1.2c0.6-0.1,1.2-0.2,1.8-0.3c0,0,0,0,0.4-0.1c0.6,0,1.2,0.3,1.6,0.7c0.2-0.7,0.8-1.3,1.6-1.5
		c0.6-0.2,1.3-0.3,1.7-0.4c0.2-0.1,0.4-0.2,0.7-0.2c0.6,0,1.1,0.2,1.6,0.6c0.2-0.8,0.7-1.4,1.6-1.6c0.6-0.2,1.2-0.4,1.7-0.6
		c0.1,0,0.3,0,0.4-0.1c0.9-5.6,0.9-10.7,0-15C119,49.4,118.6,49.5,118.2,49.5z"/>
	<path fill="#F05D28" d="M115.5,76L115.5,76l-0.8-1l0.5,1.2c-0.5,0.2-1.1,0.6-1.7,0.9c-0.3,0.1-0.6,0.2-1,0.2
		c-0.5,0-0.9-0.1-1.2-0.3c-0.1,0.7-0.5,1.3-1,1.7l-0.1,0.1l-0.8-1l0.6,1.1c-0.6,0.3-1.1,0.6-1.8,0.9c-0.4,0.2-0.7,0.2-1,0.2
		c-0.4,0-0.9-0.1-1.2-0.4c0,0.8-0.5,1.4-1,1.8l-0.1,0l-0.7-1.1l0.6,1.1c-0.6,0.3-1.1,0.6-1.8,0.9c-0.4,0.2-0.8,0.2-1,0.2
		c-0.4,0-0.7-0.1-1-0.3c0,0.7-1,1.3-1,1.9v0c-1,0.3-1.3,0.6-1.9,1c-0.3,0.2-0.8,0.2-1.1,0.2c-0.4,0-0.8-0.1-1.2-0.3
		c0,0.8-0.5,1.4-1.2,1.9l-0.4,0.2c-0.4,0.3-0.8,0.5-1.2,0.7L92.7,88h-0.1c-0.3,0-0.5,0.2-0.7,0.2c-0.3,0-0.9-0.1-0.9-0.2v0
		c0,0.8-0.5,1.4-1.1,1.9c-0.6,0.4-1.1,0.7-1.5,1.1l-0.3,0.2c-0.3,0.2-0.7,0.3-1.1,0.3c-0.1,0-0.2,0-0.3,0c0.1,0.3,0.1,0.5,0.1,0.7
		c0,0.4-0.1,0.8-0.3,1.2c-0.3,0.5-0.6,1-1.1,1.9L84.6,96c-0.3,0.1-0.5,0.2-0.8,0.2c0.2,0.4,0.4,0.8,0.4,1.3c0,0.3-0.1,0.5-0.2,0.9
		c-0.2,0.6-0.5,1.2-0.7,1.7c-0.2,0.5-0.5,0.9-1,1.1c-0.3,0.1-0.5,0.2-0.8,0.3c0.3,0.4,0.5,0.9,0.4,1.3c0,0.3,0,0.5-0.1,0.8
		c-0.2,0.6-0.5,1.2-0.7,1.8c-0.2,0.5-0.6,0.9-1.1,1.2c-0.2,0.1-0.4,0.2-0.6,0.2c0.3,0.4,0.5,0.9,0.5,1.4c0,0.3-0.1,0.5-0.1,0.8
		c-0.2,0.6-0.4,1.3-0.6,1.9c-0.2,0.5-0.5,0.9-1,1.2c-0.2,0.1-0.5,0.2-0.7,0.2c0.3,0.4,0.5,0.9,0.5,1.5c0,0.4-0.1,0.6-0.3,1
		c-0.6,1.2-1.4,1.9-2.1,2.3l-0.1,0.1c-0.4,0.2-0.8,0.3-1.1,0.3c-0.4,0-0.8-0.1-1.1-0.3c0,0.8-0.5,1.4-1,1.7l0,0l-0.8-1l0.6,1.1
		l-0.8,0.4c-0.3,0.2-0.7,0.2-1,0.2c-0.6,0-1-0.2-1.5-0.5c-0.5-0.5-0.8-1.1-0.8-1.8c0-0.1-0.1-0.4,0.1-0.6l0.1-0.3
		c0-0.1,0.1-0.3,0.1-0.6c0.1-0.7,0.6-1.3,1.2-1.6c-0.6-0.4-1.2-1-1.2-1.8c0-0.5,0.6-1.1-0.4-1.7c1,0,0,0,0-0.3
		c0-0.6,0.5-1.3,0.9-1.7c-0.6-0.2-1.1-0.7-1.3-1.4c-0.2-0.5-0.3-1-0.6-1.6c-0.1-0.3-0.2-0.6-0.2-1c0-0.4,0.1-0.7,0.3-1.1
		c-0.7,0-1.3-0.5-1.8-1l1.1-1h0l-1,1c-0.3-0.4-0.7-0.8-1.1-1.2c-0.4-0.4-0.6-1-0.6-1.5c0-0.1,0-0.3,0-0.4c-0.2,0-0.4,0.1-0.6,0.1
		c-0.5,0-1-0.1-1.4-0.4l0.8-1.1l-0.8,1c-0.2-0.2-0.3-0.2-0.5-0.4c-0.3-0.3-0.8-0.5-1.2-0.7c-0.6-0.5-1.1-1.1-1.1-1.9v0
		c0,0.2-0.6,0.2-0.9,0.2c-0.4,0-0.7-0.1-0.9-0.3l0.5-1.2l-0.7,1.1c-0.5-0.3-1.1-0.6-1.6-0.9c-0.7-0.4-1.2-1.1-1.2-1.8
		c-0.1,0-0.1,0.1-0.2,0.1c-0.3,0.1-0.7,0.2-1,0.2c-0.3,0-0.6-0.1-0.8-0.2l0.5-1.2l-0.5,1.2c-0.6-0.3-1.2-0.5-1.8-0.7
		c-0.7-0.3-1.2-0.9-1.4-1.7c-0.1,0.1-0.2,0.1-0.3,0.2c-0.4,0.2-0.8,0.3-1.1,0.3c-0.3,0-0.5,0-0.6-0.1l0.3-1.3l-0.4,1.2
		c-0.6-0.2-1.2-0.4-1.8-0.5c-0.8-0.3-1.3-0.8-1.5-1.6c-0.2,0.2-0.3,0.2-0.5,0.3C42.8,90.1,42.4,90,42,90h0v-1.1l-0.4,1.3
		c-0.6-0.1-1.2-0.3-1.7-0.4C48.8,110.4,63,129,75.2,129c15.2,0,34.5-29,41.8-54.6c-0.2-0.1-0.4-0.1-0.5-0.2
		C116.4,75,116,75.6,115.5,76z"/>
	<path fill="#253330" d="M116.3,68.7c-0.2,0.6-0.5,1.1-1.2,1.5l-0.2,0.1l-0.5-1.2l0.3,1.3c-0.6,0.2-1.3,0.3-2.1,0.5
		c-0.1,0-0.2,0-0.4,0c-0.7,0-1.3-0.3-1.7-0.7c-0.2,0.5-0.6,0.9-1.2,1.3l-0.3,0.1l-0.5-1.2l0.2,1.3c-0.6,0.1-1.3,0.3-2.2,0.3h-0.1
		c-0.6,0-1.2,0-1.6-1h-0.4c-0.2,1-0.5,0.5-0.8,0.7c-0.2,0.1-0.6,0.3-1,0.3c-0.4,0-0.7,0-1.1,0c-0.2,0-0.5,0-0.7,0l-0.1,1.6L99.5,72
		c-0.5-0.3-0.8-0.6-1-1.1c-0.2,0.2-0.3,0.4-0.6,0.5c-0.4,0.2-0.8,0.3-1.1,0.3c-0.4,0-0.5,0-0.5,0l0.1-1.3l-0.4,1.2
		c-0.8-0.2-1.6-0.6-2.3-1c-0.7-0.5-1-1.2-1-2c0-0.4,0.1-0.9,0.3-1.2c0.2-0.3,0.4-0.6,0.7-0.7c0-0.2-0.1-0.4-0.1-0.6
		c0-0.6,0.3-1.3,0.8-1.7l1.5-1.2c0.4-0.4,1-0.6,1.5-0.6c0.3,0,0.5,0,0.7,0.1c0-0.1,0-0.2,0-0.4c0-0.6,0.3-1.3,0.8-1.7l1.5-1.3
		c0.4-0.4,1-0.6,1.5-0.6c0.2,0,0.5,0,0.7,0.1c0-0.1,0-0.2,0-0.3c0-0.6,0.3-1.4,0.8-1.7l1.4-1.2c0.4-0.4,1-0.6,1.5-0.6
		c0.2,0,0.5,0,0.7,0.1c0-0.1,0-0.2,0-0.3c0-0.6,0.3-1.3,0.8-1.7l1.5-1.3c0.4-0.3,0.9-0.6,1.5-0.6c0.2,0,0.5,0,0.7,0.1
		c0-0.1,0-0.2,0-0.4c0-0.6,0.3-1.3,0.8-1.7l1.4-1.2c0.4-0.4,1-0.6,1.5-0.6c0.2,0,0.5,0,0.7,0.1c0-0.1,0-0.2,0-0.3
		c0-0.6,0.2-1.3,0.8-1.7l1-0.9c-0.2-0.4-0.3-0.9-0.5-1.3c-0.5-0.8-1.1-1.5-1.6-2.2l-0.3,0.2l-0.2,0.2c-0.3,0.2-0.7,0.3-1.1,0.3
		c-0.3,0-0.6-0.1-0.8-0.1c0,0.1,0,0.2,0,0.2c0,0.8-0.3,1.4-0.9,1.9l-1.7,1.3l-0.2,0.1c-0.4,0.2-0.7,0.3-1.1,0.3
		c-0.3,0-0.6,0-0.8-0.1c0,0.1,0,0.1,0,0.1c0,0.8-0.3,1.4-0.9,1.9l-1.6,1.2l-0.2,0.1c-0.3,0.2-0.7,0.3-1.1,0.3
		c-0.3,0-0.6-0.1-0.8-0.2c0,0.1,0,0.2,0,0.3c0,0.7-0.3,1.3-0.9,1.8l-1.6,1.2l-0.2,0.2c-0.4,0.2-0.9,0.3-1.3,0.3c-0.3,0,0,0-1-0.1
		c0,0.1,0,0.2,0,0.2c0,0.7-0.2,1.3-0.7,1.8l-1.5,1.2l-0.2,0.1c-0.3,0.2-0.7,0.3-1.1,0.3c-0.3,0-0.6-0.1-0.8-0.1c0,0.1,0,0.2,0,0.2
		c0,0.7-0.3,1.3-0.9,1.9L92.3,59L92,59.2c-0.3,0.2-0.7,0.3-1.1,0.3c-0.4,0-0.7-0.1-1-0.2c-0.1,0.1-0.3,0.2-0.4,0.3l-0.3-0.1L88.7,58
		c0,0,0,0,0,0l0.2,1.5c-0.2,0-0.3,0.1-0.4,0.1c-1.1,0-2-0.7-2.2-1.7c-0.1-0.7-0.2-1.4-0.3-2c0-0.2,0-0.2,0-0.4
		c0-0.8,0.5-1.5,1.1-1.9c-0.7-0.4-1-1.1-1-2c0-0.3,0-0.6,0-0.9c0-0.4-0.2-0.8-0.2-1.1c0-0.9,0.4-1.6,1.1-2c-0.6-0.4-1-1.1-1-1.8
		v-0.1v-0.1c0,0-0.1-0.1,0-0.2c0.1-0.6,0.1-1.2,0.2-1.8c0.1-0.8,0.6-1.5,1.4-1.8c-0.4-0.3-0.7-0.8-0.8-1.2c-0.4,0.1-0.7,0.3-0.9,0.3
		l0.2-0.2L85.7,41c-0.5,0.3-1,0.5-1.4,0.5c-0.2,0-0.3,0-0.5,0c0.1,0.2,0.1,0.4,0.1,0.6c0,0.4-0.2,0.9-0.3,1.1l-0.1,0.2l-1.3,1.8
		l-0.6,0.6c-0.4,0.2-0.8,0.3-1.1,0.3c-0.1,0-0.1,0-0.2,0c0.2,0,0.2,0.6,0.2,0.9c0,0.5-0.1,0.8-0.4,1.3l-1.3,1.8l-0.6,0.6
		C78,50.8,77.6,51,77.2,51c0,0-0.1,0-0.1,0c0.1,0,0.2,0.5,0.2,0.8c0,0.5-0.2,0.8-0.4,1.2l-1.3,1.8L75,55.2c-0.4,0.2-0.8,0.3-1.1,0.3
		c0,0-0.1,0-0.1,0c0.1,0.3,0.2,0.6,0.2,0.9c0,0.5-0.1,0.9-0.4,1.3l-1.3,1.8l-0.6,0.5c-0.4,0.2-0.8,0.2-1.1,0.2c0,0-0.1,0-0.1,0
		c0.1,0.3,0.2,0.6,0.2,1c0,0.4-0.2,0.9-0.4,1.3L69,64.4l-0.6,0.5c-0.4,0.2-0.8,0.3-1.1,0.3c-0.1,0-0.1,0-0.2,0
		c0.1,0.3,0.2,0.6,0.2,0.8c0,0.6-0.2,1.1-0.6,1.6c-0.5,0.6-1.1,1.1-2,1.7l-0.1,0c-0.3,0.2-0.7,0.3-1.1,0.3c-0.5,0-0.9-0.2-1.3-0.4
		c-0.1,0.7-0.5,1.2-1.1,1.7l-0.2,0.1l-0.6-1.2l0.4,1.2l-1.9,0.6c-0.2,0.1-0.4,0.1-0.7,0.1c-0.6,0-1.1-0.2-1.5-0.5
		c-0.2,0.6-0.6,1.1-1.2,1.5l-0.2,0.1l-0.6-1.2l0.4,1.2l-1.9,0.6c-0.3,0.1-0.5,0.1-0.7,0.1c-0.5,0-1.1-0.2-1.4-0.5
		c-0.1,0.6-0.5,1.1-1.1,1.5l-0.2,0.1l-0.6-1.2l0.4,1.2l-1.9,0.6c-0.2,0.1-0.5,0.1-0.7,0.1c-0.6,0-1.1-0.2-1.5-0.5
		c-0.1,0.6-0.5,1.1-1.2,1.5l-0.2,0.1l-0.6-1.2l0.4,1.2l-1.9,0.6c-0.3,0.1-0.5,0.1-0.7,0.1c-0.6,0-1.1-0.2-1.5-0.5
		c-0.2,0.6-0.6,1.1-1.1,1.5l-0.2,0.1l-0.6-1.1l0.4,1.2l-1.9,0.6c-0.3,0.1-0.5,0.1-0.7,0.1c-0.1,0-0.2-0.1-0.3-0.1
		c0.7,2.2,1.5,4.3,2.4,6.5c0.1,0.2,0.3,0.2,0.4,0.4c0.4-0.5,1-0.9,1.7-0.9c0,0,0.1,0,0.2,0c0.1,0,0.3,0.1,0.3,0.2
		c0.7,0.1,1.3,0.3,2,0.5c0.8,0.2,1.4,0.9,1.7,1.6c0.4-0.4,1-0.6,1.6-0.6c0.1,0,0.5,0,0.6,0.1c0.6,0.2,1.3,0.4,1.9,0.6
		c0.8,0.3,1.4,0.9,1.5,1.7c0.4-0.3,0.9-0.5,1.4-0.5c0.1,0,0.6,0,0.9,0.2c0.6,0.3,1.3,0.5,1.9,0.8c0.8,0.3,1.3,1.1,1.3,1.9
		c0.4-0.2,0.8-0.4,1.2-0.4c0.3,0,0.8,0.1,1.1,0.3c0.6,0.3,1.4,0.6,2,1c0.7,0.4,1.3,1.2,1.3,2v0c0-0.1,0.4-0.2,0.8-0.2
		c0.4,0,0.9,0.1,1.2,0.4c0.4,0.3,0.7,0.5,1,0.8c0.2,0.1,0.4,0.3,0.6,0.4c0.6,0.5,0.8,1.1,0.8,1.8c0,0.1,0,0.3-0.1,0.4
		C65.6,98,65.8,98,66,98c0.6,0,1.3,0.3,1.7,0.8c0.5,0.6,1,1.1,1.4,1.7c0.3,0.4,0.4,0.9,0.4,1.4c0,0.4-0.1,0.7-0.3,1
		c0.9,0,1.7,0.5,2.1,1.4c0.3,0.7,0.6,1.3,0.8,2.1c0.1,0.2,0.1,0.4,0.1,0.7c0,0.6-0.2,1.2-0.7,1.6c0.8,0.3,1.4,1,1.6,1.9
		c0.1,0.7,0.1,1.5,0.2,2.2l0,0.8c0.1,0,0.1-0.1,0.1-0.1c0.3-0.2,0.3-0.2,0.4-0.5c0.3-0.6,0.9-1.1,1.6-1.2c-0.3-0.4-0.5-0.9-0.5-1.5
		c0-0.2-0.1-0.5,0.1-0.7c0.2-0.6,0.4-1.2,0.6-1.8c0.3-0.8,0.9-1.4,1.7-1.5c-0.3-0.4-0.5-0.9-0.5-1.5c0-0.2,0-0.5,0.1-0.7
		c0.2-0.7,0.5-1.3,0.7-1.9c0.3-0.8,1-1.3,1.8-1.5c-0.3-0.4-0.5-0.9-0.5-1.4c0-0.3,0-0.6,0.2-0.9c0.2-0.6,0.5-1.2,0.8-1.8
		c0.3-0.8,1.1-1.3,1.9-1.4c-0.2-0.4-0.4-0.8-0.4-1.3c0-0.3,0-0.7,0.2-1c0.3-0.6,0.7-1.3,1-1.8c0.4-0.7,1.1-1.1,2-1.1
		c0.1,0,0.1,0,0.2,0c-0.1-0.2-0.1-0.5-0.1-0.7c0-0.6,0.3-1.4,0.8-1.8c0.5-0.4,1.1-0.8,1.7-1.2c0.3-0.3,1-0.5,1.6-0.5
		c0.3,0,0.2,0.1,1.2,0.2v0c0-0.8,0.1-1.6,0.9-2c0.4-0.2,0.7-0.5,1.2-0.7l0.3-0.2c0.3-0.2,0.7-0.3,1.1-0.3c0.4,0,0.8,0.1,1.1,0.3
		c0-0.7,0.4-1.6,1.2-1.9c0.5-0.3,1.1-0.6,1.7-0.9c0.3-0.2,0.7-0.3,1.1-0.3c0.4,0,0.8,0.1,1.2,0.3c0-0.8,0.5-1.5,1.2-1.8
		c0.6-0.3,1.2-0.7,1.7-0.9c0.3-0.2,0.7-0.3,1.1-0.3c0.4,0,0.8,0.1,1.2,0.3c0.1-0.8,0.5-1.5,1.2-1.9c0.6-0.3,1.2-0.6,1.7-0.8
		c0.3-0.2,0.7-0.3,1.1-0.3c0.4,0,0.8,0.1,1.2,0.4c0.1-0.7,0.5-1.5,1.3-1.9c0.6-0.3,1.2-0.6,1.8-0.8c0.2-0.1,0.6-0.3,1-0.3
		c0.4,0,0.9,0.1,1.2,0.4c0.1-0.8,0.5-1.6,1.8-2l-0.6,0.1c0.3-0.1,0.5-0.2,0.6-0.3c0.3-0.2,0.4-0.3,0.5-0.3c0.1-0.1,0.3-0.3,0.5-0.3
		c0,0,0,0,0,0c-0.2,0-0.3,0-0.5,0C117.2,69.3,116.7,69.1,116.3,68.7z"/>
	<path fill="#F05D28" d="M37.8,73.9c0.6,0,1.1,0.2,1.5,0.6c0.2-0.8,0.7-1.4,1.5-1.7l1.8-0.6c0.2-0.1,0.5-0.2,0.8-0.2
		c0.5,0,1.1,0.2,1.5,0.5c0.2-0.8,0.7-1.4,1.5-1.7l1.8-0.6c0.2-0.1,0.4-0.2,0.8-0.2c0.5,0,1.1,0.2,1.5,0.5c0.2-0.7,0.7-1.4,1.5-1.6
		l1.8-0.6c0.1-0.1,0.4-0.2,0.8-0.2c0.5,0,1,0.2,1.5,0.5c0.2-0.7,0.7-1.4,1.5-1.6l1.8-0.6c0.2-0.1,0.4-0.2,0.8-0.2
		c0.5,0,0.9,0.2,1.3,0.4c0.1-0.6,0.4-1.2,1-1.5c0.4-0.3,0.8-0.6,1.1-1c0.4-0.5,1-0.7,1.7-0.7c0.1,0,0.1,0,0.2,0
		c-0.1-0.3-0.2-0.6-0.2-0.8c0-0.4,0.1-0.9,0.4-1.3l1.1-1.6c0.4-0.6,1.1-1,1.9-1c0,0,0.1,0,0.1,0c-0.1-0.3-0.2-0.6-0.2-0.9
		c0-0.4,0.1-0.9,0.4-1.3l1.1-1.7c0.4-0.6,1.1-1.1,1.9-1.1c0,0,0.1,0,0.1,0c-0.1,0-0.2-0.5-0.2-0.8c0-0.4,0.1-0.9,0.4-1.2l1.1-1.6
		c0.4-0.6,1.1-1,1.9-1c0,0,0.1,0,0.1,0c-0.1-0.3-0.2-0.6-0.2-0.9c0-0.4,0.1-0.9,0.4-1.3l1.1-1.4c0.4-0.6,1.1-0.7,1.9-0.7
		c0,0,0.1,0,0.1,0c-0.1-1-0.2-0.7-0.2-1.1c0-0.2,0-0.9,0.1-0.9h0l0.1-0.3c0.1-0.1,0.1-0.3,0.2-0.4l1.1-1.6c0.4-0.6,1.1-1,1.9-1
		c0.1,0,0.3,0,0.4,0C82,39.6,82,39.4,82,39.2c0-0.6,0.3-1.4,1-1.9l0.1,0l0.4-0.3c0.6-0.4,1.3-0.6,1.8-0.7c0.3-0.1,0.5-0.2,0.8-0.2
		c0.6,0,1.1,0.3,1.5,0.7c0.4-0.5,1-0.7,1.7-0.7c0,0,0.1,0,0.1,0c0.1,0,0.5-0.1,0.5,0c1.1,0.2,2,1.1,2,2.2c0,0,0,0.1,0,0.5
		c-1,0.6-0.4,1.2-0.6,1.9c-0.1,0.7-0.6,1.2-1.2,1.6c-0.1,0.1,0,0.1-0.1,0.1c0.5,0.4,0.9,1,0.9,1.7c0,0,0,0,0,0.3
		c0,0.6-0.3,1.3-0.4,2c-0.1,0.7-0.7,0.8-1.4,1.8h0c0.6,0,0.8,0.9,0.8,1.6V50h-1l1.2,0c0,0.3,0,0.6,0,0.9c0,0.3,0,0.5,0,0.7l0.1,1.4
		h-0.6c-0.1,0-0.3,0.4-0.5,0.5c0.5,0.3,0.9,0.7,1.1,1.2l0.7-0.5c0.4-0.3,0.9-0.5,1.4-0.5c0.3,0,0.6,0,0.8,0.2c0-0.1,0-0.2,0-0.3
		c0-0.6,0.3-1.4,0.9-1.8l1.5-1.2c0.4-0.3,0.8-0.5,1.4-0.5c0.3,0,0.5,0,0.8,0.1c0-0.1,0-0.1,0-0.1c0-0.7,0.3-1.5,0.9-1.9l1.5-1.1
		c0.4-0.3,0.9-0.5,1.4-0.5c0.3,0,0.6,0,0.8,0.2c0-0.1,0-0.2,0-0.2c0-0.8,0.3-1.5,0.9-1.9l1.5-1.1c0.4-0.3,0.9-0.5,1.4-0.5
		c0.3,0,0.6,0.1,0.8,0.2c0-0.1,0-0.1,0-0.2c0-0.7,0.3-1.4,0.9-1.8l1.5-1.2c0.4-0.3,0.9-0.5,1.4-0.5c0.3,0,0.5,0.1,0.8,0.2
		c0-0.1,0-0.1,0-0.2c0-0.7,0.3-1.4,0.9-1.8l0.2-0.1c-19.7-20.8-68.1-19.1-79.7,5.8c-3.4,7.2-2.3,19.2,1.4,31.9
		c0.2-0.2,0.4-0.4,0.7-0.5l1.8-0.6C37.2,74,37.4,73.9,37.8,73.9z"/>
	<path fill="#253330" d="M129.5,35.8L129.5,35.8C117.9,16.6,95.1,9,74,8.9C53,9,30.5,16.6,20.6,36.5c-2.5,5.3-3.2,11-3.2,16.7
		c0.1,17.5,7.3,38.1,17.1,55.8c10.1,16.9,22,33.2,40.5,34.4c18.6-1.1,30.7-16.9,41-33.4c10.2-17.4,17.7-37.7,17.8-55.4
		C133.9,48.2,132.8,41.6,129.5,35.8z M107.1,104.6c-9.8,16.1-20.9,28.1-32,28.3c-10.9-0.2-21.9-12.6-31.4-29.2
		c-9.1-16.3-15.7-36-15.8-50.6c0-4.7,0.7-8.8,2.2-12.1C37,26.5,55.2,19.5,74,19.4c18.8,0,37.9,7.1,46.4,21.7c2.1,3.7,3,8.2,3,13.5
		C123.4,69.2,116.5,88.6,107.1,104.6z"/>
</g>
</svg>
