<?xml version="1.0" encoding="utf-8"?>
<!-- Generator: Adobe Illustrator 18.1.0, SVG Export Plug-In . SVG Version: 6.00 Build 0)  -->
<svg version="1.1" id="Layer_1" xmlns="http://www.w3.org/2000/svg" xmlns:xlink="http://www.w3.org/1999/xlink" x="0px" y="0px"
	 viewBox="0 0 150 150" enable-background="new 0 0 150 150" xml:space="preserve">
<g>
	<path fill="none" d="M114.2,121.6h-18l-26-26l-13.4,13.4v12.7H44.2V26.1l12.7-6.4v71.2l39.3-39.4h17.9l0.1,0.1l-34.9,35
		L114.2,121.6z"/>
	<path fill="#E5CF63" d="M146.2,75.4c0-15.8-5.2-30.5-14-42.3l-3.5,3.5c7.9,10.9,12.6,24.3,12.6,38.8c0,19.9-8.8,37.7-22.8,49.8
		l3.5,3.5C136.8,115.7,146.2,96.6,146.2,75.4z"/>
	<path fill="#807F7F" d="M75.3,141.4c-36.4,0-66-29.6-66-66c0-36.4,29.6-66,66-66c17.4,0,33.2,6.8,45,17.8l3.5-3.5
		C111.1,11.8,94.1,4.5,75.3,4.5C36.2,4.5,4.4,36.3,4.4,75.4c0,39.1,31.8,70.9,70.9,70.9c13.3,0,25.8-3.7,36.4-10.1l-3.6-3.6
		C98.5,138.2,87.3,141.4,75.3,141.4z"/>
	<polygon fill="#834046" points="114.2,51.5 96.3,51.5 56.9,90.9 56.9,19.7 44.2,26.1 44.2,121.6 56.9,121.6 56.9,108.9 70.3,95.5 
		96.3,121.6 114.2,121.6 79.3,86.6 114.2,51.6 	"/>
</g>
</svg>
