<?xml version="1.0" encoding="utf-8"?>
<!-- Generator: Adobe Illustrator 18.1.0, SVG Export Plug-In . SVG Version: 6.00 Build 0)  -->
<svg version="1.1" id="Layer_1" xmlns="http://www.w3.org/2000/svg" xmlns:xlink="http://www.w3.org/1999/xlink" x="0px" y="0px"
	 viewBox="0 0 150 150" enable-background="new 0 0 150 150" xml:space="preserve">
<g>
	<path fill="#3EB44A" d="M68.4,146.9c34.9,2.2,68.6-25.1,74-59.7c4.1-22.2-3.6-45.9-19.5-61.9c0,0-4.7-4.2-5.7-5
		c-1,1.7-3.2,5.8-3.8,7C99.2,53.5,79.9,76.5,60.4,98.9c-3.9,4.2-15.4,14.2-15.4,14.9c27.2-17.9,50.1-41.7,71-66.5
		c1.2,2.2,2.4,4.5,3.5,6.7c-18,24.5-42.5,43-67.6,59.6c26.8-10.1,51.1-26.6,71.5-46.7c0.2,3.4,1.6,7.1-0.2,10.3
		c-18.6,18.4-42.4,30.4-67,38.7c23.1,0.3,44.9-9.9,64-22c-7.3,21.9-31.7,36-54.4,32.7C50.7,124.7,37.1,115,29.4,102
		c-9.5-16.5-9.4-37.9-0.2-54.4c5.6-11.1,15.2-19.1,25.6-25.5C25.8,29.7,3.7,58.9,6.1,89C8.3,120.4,37.6,145.5,68.4,146.9z"/>
	<path fill="#929497" d="M104.4,8.4c4.3-2.3,8.9-4.1,13.4-6c-0.1,5-0.3,10-0.6,15c-1.4-0.7-2.8-1.5-4.2-2.2
		c-4.9,6-8.7,12.8-13.2,19.1C91,47.4,82.4,60.6,73.5,73.6c10.7-20.4,22.8-40,33.9-60.2C108.9,11.2,104.7,10.5,104.4,8.4z"/>
	<path fill="#3EB44A" d="M40.8,91.6c13.1-20.2,24.3-42,37.4-62.3c-2-1.8-4.1-3.6-6.1-5.4c6.7-2.7,13.4-5.3,20.1-7.9
		c-0.6,7.2-1.1,14.4-1.7,21.5c-2.1-1.4-4.2-2.7-6.4-4C72,52.8,40.8,91.6,40.8,91.6z"/>
	<g>
		<path fill="#929497" d="M44.7,45.9c4.5-2.2,9.1-4.3,13.7-6.3c0.1,5-0.2,10-0.2,15c-1.6-0.7-3.1-1.4-4.7-2c-4.4,5.4-8,11.6-12,17.3
			c-3.6,5.2-7,10.4-10.7,15.5c2.5-6,5.7-11.8,8.7-17.6c2.9-6.2,6.6-12,9.2-18.2C47.5,48.3,46.1,47.2,44.7,45.9z"/>
	</g>
</g>
</svg>
