<?xml version="1.0" encoding="utf-8"?>
<!-- Generator: Adobe Illustrator 18.1.0, SVG Export Plug-In . SVG Version: 6.00 Build 0)  -->
<svg version="1.1" id="Layer_1" xmlns="http://www.w3.org/2000/svg" xmlns:xlink="http://www.w3.org/1999/xlink" x="0px" y="0px"
	 viewBox="0 0 150 150" enable-background="new 0 0 150 150" xml:space="preserve">
<g>
	<radialGradient id="SVGID_1_" cx="76.667" cy="76.0087" r="66.3512" gradientUnits="userSpaceOnUse">
		<stop  offset="0" style="stop-color:#2D2E6D"/>
		<stop  offset="1" style="stop-color:#130E43"/>
	</radialGradient>
	<path fill="url(#SVGID_1_)" d="M131,36c-4.1-4.8-8.8-8.8-14.1-11.9c-5.3-3.1-10.9-5.6-16.8-7.5c-5.9-1.9-11.8-3.2-17.9-3.9
		C76.3,12,9,11,9,11v130l23-0.4c5.7,0,11.2,0.1,16.9,0.2c6.8,0.1,13.6,0.2,20.4,0.2c4.7,0,9.7-0.4,15.2-1.1c5.5-0.7,11-2,16.6-3.9
		c5.6-1.9,11-4.4,16.1-7.5c5.2-3.1,9.8-7.1,13.8-11.9c4-4.8,7.2-10.5,9.7-17.1c2.4-6.6,3.6-14.3,3.6-23.1c0-8.9-1.2-16.7-3.6-23.3
		C138.3,46.5,135.1,40.8,131,36z M25,28h12.5c4.5,0,9.1-0.2,13.6-0.3c4.5-0.1,9.1-0.2,13.6-0.2c4,0,8.2,0.2,12.7,0.8
		c4.5,0.5,8.9,1.5,13.2,2.9c4.4,1.4,8.5,3.2,12.4,5.5c0.8,0.5,1.5,0.9,2.2,1.4c-3.2,1.9-6.4,3.6-9.6,5.2c-0.2-0.4-0.4-0.8-0.7-1.1
		c-2.6-4.1-6.3-7.3-11.1-9.6c-4.8-2.2-11-3.3-18.8-3.3c-1.8,0-3.3,0-4.8,0.1c-1.4,0-2.4,0.2-3.4,0.3V58c-7,2-14,3.4-19,4.4V30H25V28
		z M25,123v-2h13V93.2c6-1.8,13-4,19-6.6V121c2,0.3,4.9,0.4,7,0.4c5.8,0,10.7-0.7,14.8-2.1c4.1-1.4,7.5-3.3,10.3-5.6
		c2.8-2.4,5-5.1,6.7-8.1c1.6-3,2.9-6.2,3.7-9.5c0.8-3.3,1.4-6.7,1.7-10c0.3-3.3,0.4-6.5,0.4-9.4c0-6.4-0.4-12.3-1.1-17.6
		c5-4.3,9.5-8.7,13.5-12.8c0,0,0.1-0.1,0.1-0.1c2.7,3.4,5,7.4,6.6,12c1.8,4.9,2.7,10.6,2.7,17.2c0,6.5-0.9,12.2-2.7,17.1
		c-1.8,4.9-4.2,9.1-7.1,12.7c-3,3.6-6.4,6.5-10.2,8.8c-3.8,2.3-7.8,4.2-12,5.5c-4.1,1.4-8.2,2.3-12.3,2.9c-4.1,0.5-7.8,0.8-11.3,0.8
		c-5.1,0-10.1,0-15.2-0.1c-5-0.1-10.1-0.1-15.2-0.1H25z"/>
</g>
</svg>
