<?xml version="1.0" encoding="utf-8"?>
<!-- Generator: Adobe Illustrator 18.1.0, SVG Export Plug-In . SVG Version: 6.00 Build 0)  -->
<svg version="1.1" id="Layer_1" xmlns="http://www.w3.org/2000/svg" xmlns:xlink="http://www.w3.org/1999/xlink" x="0px" y="0px"
	 viewBox="0 0 150 150" enable-background="new 0 0 150 150" xml:space="preserve">
<g>
	<g>
		<rect x="57.4" y="107.7" fill-rule="evenodd" clip-rule="evenodd" fill="#006A9F" width="7.1" height="9.8"/>
		<rect x="66.1" y="107.7" fill-rule="evenodd" clip-rule="evenodd" fill="#006A9F" width="7.1" height="9.8"/>
		<rect x="74.8" y="107.7" fill-rule="evenodd" clip-rule="evenodd" fill="#006A9F" width="7.1" height="9.8"/>
		<rect x="83.5" y="107.7" fill-rule="evenodd" clip-rule="evenodd" fill="#006A9F" width="7.1" height="9.8"/>
		<rect x="57.4" y="96.3" fill-rule="evenodd" clip-rule="evenodd" fill="#006A9F" width="7.1" height="9.8"/>
		<rect x="66.1" y="96.3" fill-rule="evenodd" clip-rule="evenodd" fill="#006A9F" width="7.1" height="9.8"/>
		<rect x="74.8" y="96.3" fill-rule="evenodd" clip-rule="evenodd" fill="#006A9F" width="7.1" height="9.8"/>
		<rect x="83.5" y="96.3" fill-rule="evenodd" clip-rule="evenodd" fill="#006A9F" width="7.1" height="9.8"/>
		<rect x="57.4" y="84.9" fill-rule="evenodd" clip-rule="evenodd" fill="#006A9F" width="7.1" height="9.8"/>
		<rect x="66.1" y="84.9" fill-rule="evenodd" clip-rule="evenodd" fill="#006A9F" width="7.1" height="9.8"/>
		<rect x="74.8" y="84.9" fill-rule="evenodd" clip-rule="evenodd" fill="#006A9F" width="7.1" height="9.8"/>
		<rect x="83.5" y="84.9" fill-rule="evenodd" clip-rule="evenodd" fill="#006A9F" width="7.1" height="9.8"/>
		<rect x="57.4" y="130.7" fill-rule="evenodd" clip-rule="evenodd" fill="#006A9F" width="7.1" height="12.8"/>
		<rect x="66.1" y="130.7" fill-rule="evenodd" clip-rule="evenodd" fill="#006A9F" width="7.1" height="12.8"/>
		<rect x="74.8" y="130.7" fill-rule="evenodd" clip-rule="evenodd" fill="#006A9F" width="7.1" height="12.8"/>
		<rect x="83.5" y="130.7" fill-rule="evenodd" clip-rule="evenodd" fill="#006A9F" width="7.1" height="12.8"/>
		<rect x="57.4" y="119.2" fill-rule="evenodd" clip-rule="evenodd" fill="#006A9F" width="7.1" height="9.8"/>
		<rect x="66.1" y="119.2" fill-rule="evenodd" clip-rule="evenodd" fill="#006A9F" width="7.1" height="9.8"/>
		<rect x="74.8" y="119.2" fill-rule="evenodd" clip-rule="evenodd" fill="#006A9F" width="7.1" height="9.8"/>
		<rect x="83.5" y="119.2" fill-rule="evenodd" clip-rule="evenodd" fill="#006A9F" width="7.1" height="9.8"/>
		<rect x="57.4" y="73.5" fill-rule="evenodd" clip-rule="evenodd" fill="#006A9F" width="7.1" height="9.8"/>
		<rect x="66.1" y="73.5" fill-rule="evenodd" clip-rule="evenodd" fill="#006A9F" width="7.1" height="9.8"/>
		<rect x="74.8" y="73.5" fill-rule="evenodd" clip-rule="evenodd" fill="#006A9F" width="7.1" height="9.8"/>
		<rect x="83.5" y="73.5" fill-rule="evenodd" clip-rule="evenodd" fill="#006A9F" width="7.1" height="9.8"/>
		<rect x="57.4" y="62.1" fill-rule="evenodd" clip-rule="evenodd" fill="#006A9F" width="7.1" height="9.8"/>
		<rect x="66.1" y="62.1" fill-rule="evenodd" clip-rule="evenodd" fill="#006A9F" width="7.1" height="9.8"/>
		<rect x="74.8" y="62.1" fill-rule="evenodd" clip-rule="evenodd" fill="#006A9F" width="7.1" height="9.8"/>
		<rect x="83.5" y="62.1" fill-rule="evenodd" clip-rule="evenodd" fill="#006A9F" width="7.1" height="9.8"/>
		<rect x="57.4" y="50.6" fill-rule="evenodd" clip-rule="evenodd" fill="#006A9F" width="7.1" height="9.8"/>
		<rect x="66.1" y="50.6" fill-rule="evenodd" clip-rule="evenodd" fill="#006A9F" width="7.1" height="9.8"/>
		<rect x="74.8" y="50.6" fill-rule="evenodd" clip-rule="evenodd" fill="#006A9F" width="7.1" height="9.8"/>
		<rect x="83.5" y="50.6" fill-rule="evenodd" clip-rule="evenodd" fill="#006A9F" width="7.1" height="9.8"/>
		<rect x="57.4" y="39.2" fill-rule="evenodd" clip-rule="evenodd" fill="#006A9F" width="7.1" height="9.8"/>
		<rect x="66.1" y="39.2" fill-rule="evenodd" clip-rule="evenodd" fill="#006A9F" width="7.1" height="9.8"/>
		<rect x="74.8" y="39.2" fill-rule="evenodd" clip-rule="evenodd" fill="#006A9F" width="7.1" height="9.8"/>
		<rect x="83.5" y="39.2" fill-rule="evenodd" clip-rule="evenodd" fill="#006A9F" width="7.1" height="9.8"/>
		<rect x="57.4" y="27.8" fill-rule="evenodd" clip-rule="evenodd" fill="#006A9F" width="7.1" height="9.8"/>
		<rect x="66.1" y="27.8" fill-rule="evenodd" clip-rule="evenodd" fill="#006A9F" width="7.1" height="9.8"/>
		<rect x="74.8" y="27.8" fill-rule="evenodd" clip-rule="evenodd" fill="#006A9F" width="7.1" height="9.8"/>
		<rect x="83.5" y="27.8" fill-rule="evenodd" clip-rule="evenodd" fill="#006A9F" width="7.1" height="9.8"/>
		<rect x="57.4" y="16.4" fill-rule="evenodd" clip-rule="evenodd" fill="#006A9F" width="7.1" height="9.8"/>
		<rect x="66.1" y="16.4" fill-rule="evenodd" clip-rule="evenodd" fill="#006A9F" width="7.1" height="9.8"/>
		<rect x="74.8" y="16.4" fill-rule="evenodd" clip-rule="evenodd" fill="#006A9F" width="7.1" height="9.8"/>
		<rect x="83.5" y="16.4" fill-rule="evenodd" clip-rule="evenodd" fill="#006A9F" width="7.1" height="9.8"/>
		<rect x="57.4" y="5" fill-rule="evenodd" clip-rule="evenodd" fill="#006A9F" width="7.1" height="9.8"/>
		<rect x="66.1" y="5" fill-rule="evenodd" clip-rule="evenodd" fill="#006A9F" width="7.1" height="9.8"/>
		<rect x="74.8" y="5" fill-rule="evenodd" clip-rule="evenodd" fill="#006A9F" width="7.1" height="9.8"/>
		<rect x="83.5" y="5" fill-rule="evenodd" clip-rule="evenodd" fill="#006A9F" width="7.1" height="9.8"/>
	</g>
	<g>
		<polygon fill-rule="evenodd" clip-rule="evenodd" fill="#00A87E" points="43.5,117.5 43.5,117.5 36.5,107.7 43.5,107.7 		"/>
		<rect x="45.1" y="107.7" fill-rule="evenodd" clip-rule="evenodd" fill="#00A87E" width="7.1" height="9.8"/>
		<rect x="19.1" y="96.3" fill-rule="evenodd" clip-rule="evenodd" fill="#00A87E" width="7.1" height="9.8"/>
		<rect x="27.7" y="96.3" fill-rule="evenodd" clip-rule="evenodd" fill="#00A87E" width="7.1" height="9.8"/>
		<rect x="36.5" y="96.3" fill-rule="evenodd" clip-rule="evenodd" fill="#00A87E" width="7.1" height="9.8"/>
		<rect x="45.1" y="96.3" fill-rule="evenodd" clip-rule="evenodd" fill="#00A87E" width="7.1" height="9.8"/>
		<rect x="19.1" y="84.9" fill-rule="evenodd" clip-rule="evenodd" fill="#00A87E" width="7.1" height="9.8"/>
		<rect x="27.7" y="84.9" fill-rule="evenodd" clip-rule="evenodd" fill="#00A87E" width="7.1" height="9.8"/>
		<rect x="36.5" y="84.9" fill-rule="evenodd" clip-rule="evenodd" fill="#00A87E" width="7.1" height="9.8"/>
		<rect x="45.1" y="84.9" fill-rule="evenodd" clip-rule="evenodd" fill="#00A87E" width="7.1" height="9.8"/>
		<rect x="19.1" y="73.5" fill-rule="evenodd" clip-rule="evenodd" fill="#00A87E" width="7.1" height="9.8"/>
		<rect x="27.7" y="73.5" fill-rule="evenodd" clip-rule="evenodd" fill="#00A87E" width="7.1" height="9.8"/>
		<rect x="36.5" y="73.5" fill-rule="evenodd" clip-rule="evenodd" fill="#00A87E" width="7.1" height="9.8"/>
		<rect x="45.1" y="73.5" fill-rule="evenodd" clip-rule="evenodd" fill="#00A87E" width="7.1" height="9.8"/>
		<rect x="19.1" y="62.1" fill-rule="evenodd" clip-rule="evenodd" fill="#00A87E" width="7.1" height="9.8"/>
		<rect x="27.7" y="62.1" fill-rule="evenodd" clip-rule="evenodd" fill="#00A87E" width="7.1" height="9.8"/>
		<rect x="36.5" y="62.1" fill-rule="evenodd" clip-rule="evenodd" fill="#00A87E" width="7.1" height="9.8"/>
		<rect x="45.1" y="62.1" fill-rule="evenodd" clip-rule="evenodd" fill="#00A87E" width="7.1" height="9.8"/>
		<rect x="19.1" y="50.6" fill-rule="evenodd" clip-rule="evenodd" fill="#00A87E" width="7.1" height="9.8"/>
		<rect x="27.7" y="50.6" fill-rule="evenodd" clip-rule="evenodd" fill="#00A87E" width="7.1" height="9.8"/>
		<rect x="36.5" y="50.6" fill-rule="evenodd" clip-rule="evenodd" fill="#00A87E" width="7.1" height="9.8"/>
		<rect x="45.1" y="50.6" fill-rule="evenodd" clip-rule="evenodd" fill="#00A87E" width="7.1" height="9.8"/>
		<rect x="19.1" y="39.2" fill-rule="evenodd" clip-rule="evenodd" fill="#00A87E" width="7.1" height="9.8"/>
		<rect x="27.7" y="39.2" fill-rule="evenodd" clip-rule="evenodd" fill="#00A87E" width="7.1" height="9.8"/>
		<rect x="36.5" y="39.2" fill-rule="evenodd" clip-rule="evenodd" fill="#00A87E" width="7.1" height="9.8"/>
		<rect x="45.1" y="39.2" fill-rule="evenodd" clip-rule="evenodd" fill="#00A87E" width="7.1" height="9.8"/>
	</g>
	<g>
		<rect x="96.2" y="107.7" fill-rule="evenodd" clip-rule="evenodd" fill="#00A87E" width="7.1" height="9.8"/>
		<polygon fill-rule="evenodd" clip-rule="evenodd" fill="#00A87E" points="105.2,117.5 104.9,117.5 104.9,107.7 113.6,107.7 		"/>
		<rect x="96.2" y="96.3" fill-rule="evenodd" clip-rule="evenodd" fill="#00A87E" width="7.1" height="9.8"/>
		<rect x="104.9" y="96.3" fill-rule="evenodd" clip-rule="evenodd" fill="#00A87E" width="7.1" height="9.8"/>
		<rect x="113.6" y="96.3" fill-rule="evenodd" clip-rule="evenodd" fill="#00A87E" width="7.1" height="9.8"/>
		<rect x="122.3" y="96.3" fill-rule="evenodd" clip-rule="evenodd" fill="#00A87E" width="7.1" height="9.8"/>
		<rect x="96.2" y="84.9" fill-rule="evenodd" clip-rule="evenodd" fill="#00A87E" width="7.1" height="9.8"/>
		<rect x="104.9" y="84.9" fill-rule="evenodd" clip-rule="evenodd" fill="#00A87E" width="7.1" height="9.8"/>
		<rect x="113.6" y="84.9" fill-rule="evenodd" clip-rule="evenodd" fill="#00A87E" width="7.1" height="9.8"/>
		<rect x="122.3" y="84.9" fill-rule="evenodd" clip-rule="evenodd" fill="#00A87E" width="7.1" height="9.8"/>
		<rect x="96.2" y="73.5" fill-rule="evenodd" clip-rule="evenodd" fill="#00A87E" width="7.1" height="9.8"/>
		<rect x="104.9" y="73.5" fill-rule="evenodd" clip-rule="evenodd" fill="#00A87E" width="7.1" height="9.8"/>
		<rect x="113.6" y="73.5" fill-rule="evenodd" clip-rule="evenodd" fill="#00A87E" width="7.1" height="9.8"/>
		<rect x="122.3" y="73.5" fill-rule="evenodd" clip-rule="evenodd" fill="#00A87E" width="7.1" height="9.8"/>
		<rect x="96.2" y="62.1" fill-rule="evenodd" clip-rule="evenodd" fill="#00A87E" width="7.1" height="9.8"/>
		<rect x="104.9" y="62.1" fill-rule="evenodd" clip-rule="evenodd" fill="#00A87E" width="7.1" height="9.8"/>
		<rect x="113.6" y="62.1" fill-rule="evenodd" clip-rule="evenodd" fill="#00A87E" width="7.1" height="9.8"/>
		<rect x="122.3" y="62.1" fill-rule="evenodd" clip-rule="evenodd" fill="#00A87E" width="7.1" height="9.8"/>
		<rect x="96.2" y="50.6" fill-rule="evenodd" clip-rule="evenodd" fill="#00A87E" width="7.1" height="9.8"/>
		<rect x="104.9" y="50.6" fill-rule="evenodd" clip-rule="evenodd" fill="#00A87E" width="7.1" height="9.8"/>
		<rect x="113.6" y="50.6" fill-rule="evenodd" clip-rule="evenodd" fill="#00A87E" width="7.1" height="9.8"/>
		<rect x="122.3" y="50.6" fill-rule="evenodd" clip-rule="evenodd" fill="#00A87E" width="7.1" height="9.8"/>
	</g>
	<path fill="#006A9F" d="M140.3,91.7c-0.1-2.4-2-4.2-4.4-4.2v34.2h-13.6l-3.1,2.7c-0.1,0.1-0.3,0.1-0.4,0c0,0-0.1-0.1-0.1-0.2
		c0,0,0-0.1,0-0.1l5.1-8.5c1.5-2.4,0.7-5.6-1.7-7.1c-2.2-1.3-5-0.9-6.6,1l-17.4,19.9c-1.2,1.4-1.8,3.1-1.8,4.7l-0.3,9h0l0,0.1H120
		c1.9-1.4,5.8-5,19.4-17.2c1.3-1.2,2-2.9,1.9-4.5L140.3,91.7z"/>
	<path fill="#006A9F" d="M8.7,91.7c0.1-2.4,2-4.2,4.4-4.2v34.2h13.6l3.1,2.7c0.1,0.1,0.3,0.1,0.4,0c0,0,0.1-0.1,0.1-0.2
		c0,0,0-0.1,0-0.1l-5.1-8.5c-1.5-2.4-0.7-5.6,1.7-7.1c2.2-1.3,5-0.9,6.6,1l17.4,19.9c1.2,1.4,1.8,3.1,1.8,4.7l0.3,9h0l0,0.1H29
		c-1.9-1.4-5.8-5-19.4-17.2c-1.3-1.2-2-2.9-1.9-4.5L8.7,91.7z"/>
</g>
</svg>
