<?xml version="1.0" encoding="iso-8859-1"?>
<!-- Generator: Adobe Illustrator 13.0.0, SVG Export Plug-In . SVG Version: 6.00 Build 14948)  -->
<!DOCTYPE svg PUBLIC "-//W3C//DTD SVG 1.1//EN" "http://www.w3.org/Graphics/SVG/1.1/DTD/svg11.dtd">
<svg version="1.1" id="Layer_1" xmlns="http://www.w3.org/2000/svg" xmlns:xlink="http://www.w3.org/1999/xlink" x="0px" y="0px"
	 width="100px" height="100px" viewBox="0 0 100 100" enable-background="new 0 0 100 100" xml:space="preserve">
<g>
	<g>
		<radialGradient id="SVGID_1_" cx="51.874" cy="53.8311" r="95.1813" gradientUnits="userSpaceOnUse">
			<stop  offset="0" style="stop-color:#00ABEB"/>
			<stop  offset="0.029" style="stop-color:#22AAE7"/>
			<stop  offset="0.0603" style="stop-color:#3FA8E3"/>
			<stop  offset="0.0914" style="stop-color:#53A8E0"/>
			<stop  offset="0.122" style="stop-color:#60A7DF"/>
			<stop  offset="0.1515" style="stop-color:#64A7DE"/>
			<stop  offset="0.3273" style="stop-color:#4674B7"/>
			<stop  offset="0.5212" style="stop-color:#333B8B"/>
			<stop  offset="0.7576" style="stop-color:#211C51"/>
			<stop  offset="1" style="stop-color:#171043"/>
		</radialGradient>
		<path fill="url(#SVGID_1_)" d="M96.135,69.117l-5.18-6.656c0,0-23.021-4.894-40.524,1.763c0,0-11.986-6.201-40.588-1.763
			L5.156,68.87c0,0,21.301-7.341,45.21-2.408C50.367,66.462,79.384,61.891,96.135,69.117z"/>
		<radialGradient id="SVGID_2_" cx="51.8721" cy="53.832" r="95.1798" gradientUnits="userSpaceOnUse">
			<stop  offset="0" style="stop-color:#00ABEB"/>
			<stop  offset="0.029" style="stop-color:#22AAE7"/>
			<stop  offset="0.0603" style="stop-color:#3FA8E3"/>
			<stop  offset="0.0914" style="stop-color:#53A8E0"/>
			<stop  offset="0.122" style="stop-color:#60A7DF"/>
			<stop  offset="0.1515" style="stop-color:#64A7DE"/>
			<stop  offset="0.3273" style="stop-color:#4674B7"/>
			<stop  offset="0.5212" style="stop-color:#333B8B"/>
			<stop  offset="0.7576" style="stop-color:#211C51"/>
			<stop  offset="1" style="stop-color:#171043"/>
		</radialGradient>
		<path fill="url(#SVGID_2_)" d="M87.501,60.271l-4.264-5.355c0,0-21.143-0.97-32.828,7.914c0,0-12.08-9.494-32.414-7.67
			l-4.385,5.233c0,0,20.936-4.017,36.77,2.923C50.381,63.316,69.61,56.743,87.501,60.271z"/>
	</g>
	<radialGradient id="SVGID_3_" cx="50.6357" cy="18.6318" r="92.5963" gradientUnits="userSpaceOnUse">
		<stop  offset="0" style="stop-color:#00ABEB"/>
		<stop  offset="0.029" style="stop-color:#22AAE7"/>
		<stop  offset="0.0603" style="stop-color:#3FA8E3"/>
		<stop  offset="0.0914" style="stop-color:#53A8E0"/>
		<stop  offset="0.122" style="stop-color:#60A7DF"/>
		<stop  offset="0.1515" style="stop-color:#64A7DE"/>
		<stop  offset="0.3273" style="stop-color:#4674B7"/>
		<stop  offset="0.5212" style="stop-color:#333B8B"/>
		<stop  offset="0.7576" style="stop-color:#211C51"/>
		<stop  offset="1" style="stop-color:#171043"/>
	</radialGradient>
	<path fill="url(#SVGID_3_)" d="M55.525,36.151c-1.333,3.153-4.959,4.625-8.111,3.296c-3.153-1.326-4.629-4.958-3.296-8.107
		s4.958-4.625,8.11-3.295C55.374,29.374,56.85,33.002,55.525,36.151z"/>
	<g>
		<path fill="#272425" d="M57.86,24.882c0,0-7.838-4.371-16.164-0.129l1.97,6.018c0,0,5.18-8.515,12.287-0.372L57.86,24.882z"/>
		<path fill="#FFFFFF" d="M41.546,24.688l0.093-0.05c2.737-1.394,5.431-1.863,7.81-1.863l0,0c4.894,0,8.454,1.992,8.468,1.996l0,0
			l-0.057,0.111l0.057-0.111l0.094,0.053l-2.013,5.818l-0.145-0.162c-2.285-2.618-4.341-3.482-6.089-3.482l0,0
			c-3.632-0.011-5.982,3.83-5.99,3.837l0,0l-0.143,0.236L41.546,24.688L41.546,24.688z M43.703,30.488
			c0.573-0.828,2.78-3.729,6.062-3.74l0,0c1.792,0,3.876,0.878,6.133,3.407l0,0l1.806-5.212c-0.259-0.136-1.075-0.534-2.278-0.935
			l0,0c-1.483-0.494-3.567-0.985-5.976-0.981l0,0c-2.322,0-4.929,0.451-7.595,1.787l0,0L43.703,30.488L43.703,30.488z"/>
	</g>
	<path fill="#DF9231" d="M40.278,50.778"/>
	<radialGradient id="SVGID_4_" cx="49.3975" cy="43.751" r="34.6183" gradientUnits="userSpaceOnUse">
		<stop  offset="0" style="stop-color:#00ABEB"/>
		<stop  offset="0.029" style="stop-color:#22AAE7"/>
		<stop  offset="0.0603" style="stop-color:#3FA8E3"/>
		<stop  offset="0.0914" style="stop-color:#53A8E0"/>
		<stop  offset="0.122" style="stop-color:#60A7DF"/>
		<stop  offset="0.1515" style="stop-color:#64A7DE"/>
		<stop  offset="0.3273" style="stop-color:#4674B7"/>
		<stop  offset="0.5212" style="stop-color:#333B8B"/>
		<stop  offset="0.7576" style="stop-color:#211C51"/>
		<stop  offset="1" style="stop-color:#171043"/>
	</radialGradient>
	<path fill="url(#SVGID_4_)" d="M61.615,36.797c0,0,1.01,11.441-8.791,21.422c0,0,18.62-4.237,8.655-21.516"/>
	
		<radialGradient id="SVGID_5_" cx="3213.3252" cy="43.751" r="34.616" gradientTransform="matrix(-1 0 0 1 3263.1211 0)" gradientUnits="userSpaceOnUse">
		<stop  offset="0" style="stop-color:#00ABEB"/>
		<stop  offset="0.029" style="stop-color:#22AAE7"/>
		<stop  offset="0.0603" style="stop-color:#3FA8E3"/>
		<stop  offset="0.0914" style="stop-color:#53A8E0"/>
		<stop  offset="0.122" style="stop-color:#60A7DF"/>
		<stop  offset="0.1515" style="stop-color:#64A7DE"/>
		<stop  offset="0.3273" style="stop-color:#4674B7"/>
		<stop  offset="0.5212" style="stop-color:#333B8B"/>
		<stop  offset="0.7576" style="stop-color:#211C51"/>
		<stop  offset="1" style="stop-color:#171043"/>
	</radialGradient>
	<path fill="url(#SVGID_5_)" d="M37.584,36.797c0,0-1.018,11.441,8.785,21.422c0,0-18.614-4.237-8.656-21.516"/>
	<radialGradient id="SVGID_6_" cx="50.6367" cy="18.6294" r="92.6062" gradientUnits="userSpaceOnUse">
		<stop  offset="0" style="stop-color:#00ABEB"/>
		<stop  offset="0.029" style="stop-color:#22AAE7"/>
		<stop  offset="0.0603" style="stop-color:#3FA8E3"/>
		<stop  offset="0.0914" style="stop-color:#53A8E0"/>
		<stop  offset="0.122" style="stop-color:#60A7DF"/>
		<stop  offset="0.1515" style="stop-color:#64A7DE"/>
		<stop  offset="0.3273" style="stop-color:#4674B7"/>
		<stop  offset="0.5212" style="stop-color:#333B8B"/>
		<stop  offset="0.7576" style="stop-color:#211C51"/>
		<stop  offset="1" style="stop-color:#171043"/>
	</radialGradient>
	<path fill="url(#SVGID_6_)" d="M39.519,36.997c1.762,18.79,10.826,21.885,10.826,21.885c9.286-7.516,10.167-21.885,10.167-21.885
		C49.463,48.271,39.519,36.997,39.519,36.997z M50.989,50.871v3.25h-1.483v-3.25H46.01V48.5h3.496v-3.235h1.483V48.5H54.5v2.371
		H50.989z"/>
</g>
</svg>
