<?xml version="1.0" encoding="utf-8"?>
<!-- Generator: Adobe Illustrator 18.1.0, SVG Export Plug-In . SVG Version: 6.00 Build 0)  -->
<svg version="1.1" id="Layer_1" xmlns="http://www.w3.org/2000/svg" xmlns:xlink="http://www.w3.org/1999/xlink" x="0px" y="0px"
	 viewBox="0 0 2000 2000" enable-background="new 0 0 2000 2000" xml:space="preserve">
<g>
	<path fill="none" d="M1311.6,1288.4c3.6-23.1,1.2-47.5-12.3-71.4c1.1,12.5,0.4,25.2-2.3,37.6
		C1304.1,1265.1,1308.8,1276.6,1311.6,1288.4z"/>
	<path fill="none" d="M1202.7,1329.2c20.1,0.5,39.5-7.9,54.5-23.6c9.4-9.8,16.6-21.1,21.8-33.1c-3.3-8.4-8.3-16.4-15.1-23.2
		c-26.4-26.4-69.2-26.4-95.7,0c-13.4,13.4-19.9,31-19.7,48.6c1.7,2.9,3.6,5.7,5.8,8.2C1166.8,1320.6,1184,1328.7,1202.7,1329.2z"/>
	<path fill="none" d="M1324.5,937.3c-44.1-15.7-88.2-19.5-131.2-14.9c70.8,7.2,135.5,40.9,184,96.4
		c91.4,104.8,83.8,275.6-17.1,380.8c-40.8,42.5-93.5,65.2-148.5,63.9c-51.5-1.2-98.9-23.7-133.5-63.4c-37-42.4-49-101.6-36.8-156.6
		c-0.8,1.6-1.7,3.2-2.4,4.9c-56.4,122.9,28.3,244,153.6,255.4c147.3,13.3,282.3-122.2,296.9-263.6
		C1503.1,1108.9,1438.3,993.6,1324.5,937.3z"/>
	<path fill="none" d="M1265.8,1313.9c-17.4,18.1-39.9,27.8-63.4,27.3c-18.4-0.4-35.5-7.3-49.3-19.3c3.3,8.4,8.3,16.2,15,23
		c26.4,26.4,69.3,26.4,95.7,0c14.8-14.8,21-34.7,19.2-54C1278.2,1299.1,1272.6,1306.9,1265.8,1313.9z"/>
	<path fill="none" d="M1191.7,1202.1c-12.3-0.3-24,4.9-33.2,14.4c-2.7,2.9-5.1,5.9-7.3,9.2c17.9-12.2,38.8-18.1,59.6-17.9
		C1205,1204.4,1198.5,1202.3,1191.7,1202.1z"/>
	<path fill="none" d="M1324.3,248.2c-72.5-112.7-223.1-145.5-335.8-73.1c-89.6,57.6-115.7,177.3-58.1,267c2,3.1,4.3,6.1,6.5,9.1
		c9-3.5,21.5-4.9,38-1.9c-4.7,12-4.6,25.2-0.6,37.4c25.6,17,55.6,25.8,86.1,25.6c1.7-1.3,3.3-2.6,4.8-4.1c5.6-5.6,9.6-12.1,12.3-19
		c10.4,5.5,18.5,11.3,24.8,17.1c13.8-4,27.3-10,40-18.1c4.9-3.2,9.4-6.7,13.8-10.5c7.3-25.4,20.4-46.9,38.4-62.7
		c0.3-1.1,0.6-2.1,0.9-3.2c6.9-31.7,1-64.2-16.5-91.5c-13.8-21.6-35.3-36.4-60.3-41.9c-25.1-5.4-50.7-0.8-72.3,13.1
		c-17,10.9-28.7,27.8-33,47.5c-2.7,12.2-2.3,24.6,1,36.4c11.5-34.8,55.4-20.2,39.1,44.1c1.1,0.4,2.3,0.8,3.5,1.1
		c27.2-45.4,59.2-41.1,62.4-20.8c2.9-4.6,5.1-9.5,6.3-15c2.6-12,0.4-24.4-6.3-34.8c-1.8-2.8-1-6.5,1.8-8.3c2.8-1.8,6.5-1,8.3,1.8
		c8.4,13.1,11.2,28.7,7.9,43.9c-3.3,15.2-12.3,28.2-25.4,36.6c-0.1,0.1-0.2,0.1-0.3,0.2c-6.5,8.9-17.2,18.3-33.5,27.1
		c-1.9-5.7-4.8-11.2-8.6-16.1c-3.8-0.2-7.5-0.7-11.2-1.5c-13.5-2.9-25.5-9.6-35.1-19.2c-3,0.2-6.1,0.5-9,1.2
		c-1.3-5.7-1.9-10.9-2.3-15.8c-11.4-19.2-15.1-41.5-10.3-63.3c0.2-1.1,0.6-2.1,0.9-3.1c-5.9,12.4-9.8,26.4-11,41.8
		c0,0-63.6-157.4,144-164.1c122-3.9,218.4,70.8,236.6,180.6c0.1,0,0.1,0,0.2,0C1368.5,341.1,1352.4,292,1324.3,248.2z M1078.6,453
		c92.4-27.9,92.2,63-0.6,34.6C1082,476.4,1082.1,464.2,1078.6,453z M1042.5,450.9c11.1,11.1,11.1,29,0,40.1
		c-11.1,11.1-29,11.1-40.1,0c-11.1-11.1-11.1-29.1,0-40.1C1013.5,439.9,1031.4,439.9,1042.5,450.9z M1009.5,416.9
		c-8.1,2.6-15.8,6.9-22.2,13.3c-4,4-7,8.6-9.5,13.3C915.5,401,967.3,351,1009.5,416.9z"/>
	<path fill="none" d="M743,1091.4c30.1-3,61.3,7.1,84.4,30.1c89.6-118.4,173.7-182.5,248.9-213.1c-54.1,9.7-111.7,28.6-171.8,59
		C842.7,998.4,789.3,1041.6,743,1091.4z"/>
	<path fill="none" d="M630,1247.1c9.8-1.7,19.9-2.9,30.3-3.5c-4.9-9.6-8.3-19.8-10-30.2C643.2,1224.5,636.5,1235.7,630,1247.1z"/>
	<path fill="none" d="M813.7,1140c-2-2.6-3.9-5.3-6.3-7.7c-26.4-26.4-69.3-26.4-95.7,0c-26.4,26.4-26.4,69.3,0,95.6
		c26.4,26.4,69.3,26.4,95.7,0c21.3-21.2,25.1-53,12.1-78.4C817.9,1146.2,816,1143.1,813.7,1140z"/>
	<path fill="none" d="M1002.3,1156.8c187.5-205.2,433.7,70.1,296.3,211.2c-4.1,6.6-9,12.9-14.7,18.6c-40.9,40.9-107.2,40.9-148.1,0
		c-38.8-38.8-40.7-100.4-5.9-141.6c3.3-13.5,9.8-26.3,19.9-36.7c11.5-12.1,26.5-18.5,42.2-18.1c14.8,0.3,28.3,6.8,38.3,18.1
		c0.5,0.5,0.7,1.2,1,1.8c19.3,4,37.7,13.4,52.6,28.4c1.1,1.1,2.1,2.4,3.2,3.6c2-16.3,0.5-32.8-4.6-48c-1.6-1.7-3-3.4-4.7-5.1
		c-61.3-62-158-38.1-211.4,19.4c-28.5,60.4-22.2,134.4,21,184c32.4,37.1,76.7,58.1,124.7,59.2c51.6,1.2,101.1-20.2,139.4-60.2
		c96.7-100.8,104.2-264.3,16.7-364.5c-51.2-58.7-121.3-92-197.3-93.8c-13.5-0.3-27,0.5-40.3,2.1
		c-119.8,35.1-226.4,126.8-294.3,196.8c31.6,41.1,28.7,100.2-8.9,137.8c-2.4,2.4-5,4.7-7.6,6.9c50.2,22.4,86.2,50.6,110.7,81.7
		C923.3,1290,947,1217.2,1002.3,1156.8z"/>
	<path fill="none" d="M1189,313.8c17.4,27.1,24.3,58.9,19.8,90.5c11.1-7,23.6-12.3,37.4-15.4c3.5-0.8,6.9-1.4,10.3-2.1
		c-5.6-101.7-91-138.6-163.6-122.4c9.3-0.4,18.7,0.2,28.1,2.3C1149.2,272.8,1173.4,289.6,1189,313.8z"/>
	<path fill="none" d="M1613,797c71.4-9.2,125.7-55.9,125.7-112.1c0-11.1-2.2-21.7-6.1-31.8C1708,700.9,1668.9,750.3,1613,797z"/>
	<path fill="none" d="M1438.2,885.8c-23.5-12-45.3-24.6-65.6-37.5c-2.7,0.4-5.5,0.7-8.3,1.1c25.5,16.3,49.5,34.3,71.6,54.3
		C1436.1,897.7,1436.9,891.7,1438.2,885.8z"/>
	<path fill="none" d="M1592.8,844.1c-6.8-6.4-14.6-11.1-22.8-14.2c-18.3-6.8-38.9-5.2-56.2,4.4c-5.4,3-10.5,6.5-15.1,11
		c-11,11-17.1,24.8-19,39c-2.6,20.1,3.5,41.2,19,56.6c26.4,26.4,69.3,26.4,95.7,0c26.4-26.4,26.4-69.2,0-95.7
		C1593.9,844.9,1593.3,844.5,1592.8,844.1z"/>
	<path fill="none" d="M1219.6,711.5c-10.2,7.8-21.1,15.3-32.4,22.8c20.4,38.7,68.2,67,125.4,71.4
		C1274.4,775.3,1243.7,743.5,1219.6,711.5z"/>
	<path fill="#FF7546" d="M1348.8,579.7c15.9-12.2,31.1-25.2,45.1-38.8c-10.8-2.7-22-4.6-33.5-5.9c-6.3,15.3-13.7,29.9-22.3,43.9
		C1341.8,579.1,1345.3,579.3,1348.8,579.7z"/>
	<path fill="#FF7546" d="M1799.3,684.8c0-35.6-15.7-68.3-41.9-94.9c-38.7-39.1-100.4-64.6-170.2-64.6c-51.9,0-99.4,14.1-136.2,37.3
		c-13.6-7.3-28.4-13.5-44.2-18.2c-12.2,13.4-24.9,26.1-38,38.4c14.9,3.1,28.9,7.9,41.5,14.1c-14.1,16-24.5,34.1-30.2,53.5
		c3.7,3.9,7.4,8.3,11,14c-5.4,1.7-10.5,4.3-15.2,7.7c-0.4,4.2-0.8,8.4-0.8,12.7c0,7.5,0.9,14.7,2.2,21.9c0.7-6.7,3.5-13.1,8.7-18.3
		c11.9-11.9,31.3-11.9,43.2,0c11.9,11.9,11.9,31.3,0,43.2c-11.9,11.9-31.3,11.9-43.2,0c-1-1-1.8-2.1-2.6-3.2
		c4.7,12.3,11.2,24,19.5,35c9.6,0.7,19.4-1.3,28.1-6c1.7,5.8,2.6,11,3.3,16c1.2,8.4,1.1,15.7,0.1,21.8c-5.3,31.8-35.3,31.6-40.5-0.4
		c-20,7.3-42.3,11.5-66,11.5c-5.2,0-10.3-0.2-15.3-0.6c-57.2-4.3-105-32.7-125.4-71.4c-11.9,7.9-24.4,15.7-37.5,23.4
		c15.1,3.9,30.3,8.3,45.9,13.4c59.3,19.5,117,45.3,168.7,78.2c2.8-0.3,5.6-0.7,8.3-1.1c34.4-5.6,65.6-17.3,91.6-33.7
		c5.3,2.9,10.9,5.5,16.5,8c32.3-22.4,74.3-24.7,108.5-6.7c9.1,4.8,17.6,11,25.2,18.6c2.4,2.4,4.7,5,6.8,7.5
		C1722.1,829.8,1799.3,764.2,1799.3,684.8z M1395.4,663.1c-16.6-74.3,56.9-72.5,36,5.3C1420.3,662.3,1407.5,660.4,1395.4,663.1z
		 M1440.5,768.5c-2.6-3.6-5.1-7.5-7.6-12c3.5-2.1,6.8-4.5,9.9-7.5c3.9-3.9,6.8-8.4,9.1-13.1c-10.3-15.4-16.2-32.7-16.2-51
		c0-4.4,0.4-8.6,1-12.8c-1-0.7-1.9-1.6-2.9-2.3c1.6-2.8,3.3-5.4,4.9-7.8c3.1-11.4,8.5-22.1,15.7-32c2.6,3,5.1,6,7.3,9.2
		c26.8-14.9,45.8,12.1,16.6,40.3c0.6,4.3,1.1,8.6,1.1,13c0,0.3-0.1,0.6-0.1,0.8c56.1-4.1,52.8,51.7-10.2,40.2
		c-0.9,1.8-1.8,3.6-2.9,5.3c17.9,12.2,25.6,25.1,26.7,35.2C1495.1,795.5,1466.6,804.8,1440.5,768.5z M1613,797
		c-8.4,1.1-17,1.8-25.8,1.8c-30.4,0-58.6-6.8-82.3-18.4c22.2-25.2,35.2-55.4,35.2-87.9c0-37-16.9-70.9-44.9-97.9
		c25.5-14.7,57.4-23.6,92-23.6c69,0,127.1,34.7,145.4,82.1c3.9,10.1,6.1,20.7,6.1,31.8C1738.7,741.1,1684.3,787.7,1613,797z"/>
	<path fill="#FFB602" d="M1075.6,1684.3c3.5,11.3,3.3,23.4-0.6,34.6C1167.7,1747.3,1168,1656.4,1075.6,1684.3z"/>
	<path fill="#FFB602" d="M1074.4,1720.6c-2.7,6.9-6.7,13.4-12.3,19c-3.2,3.3-6.9,5.8-10.7,8.1
		C1096.9,1829.4,1159.2,1765.7,1074.4,1720.6z"/>
	<path fill="#FFB602" d="M1011.5,1754.4c-19.9,83,62.5,81.2,37.9-5.6C1037.7,1755.1,1024.2,1757.1,1011.5,1754.4z"/>
	<path fill="#FFB602" d="M975.5,1727.9c-64.2,43-10.6,94.4,32.1,25.2c-8.6-2.5-16.7-6.9-23.4-13.6
		C980.6,1736,977.9,1732,975.5,1727.9z"/>
	<path fill="#FFB602" d="M972.7,1722.6c-5.8-13.3-6.2-28.4-0.9-42C899.2,1667.3,899.5,1736.7,972.7,1722.6z"/>
	<path fill="#FFB602" d="M974.6,1674.9c2.5-4.7,5.5-9.3,9.5-13.3c6.4-6.5,14.1-10.7,22.2-13.3
		C964.2,1582.3,912.5,1632.4,974.6,1674.9z"/>
	<path fill="#FFB602" d="M1011,1646.9c13.1-2.9,26.9-1,38.9,5.7C1072.4,1568.6,993.1,1566.7,1011,1646.9z"/>
	<path fill="#FFB602" d="M1000,1721.4c11.1,11,28.9,11,40,0c11-11,11-28.9,0-40c-11-11-28.9-11-39.9,0
		C989,1692.5,989,1710.4,1000,1721.4z"/>
	<path fill="#FFB602" d="M1075,1682.5c83.3-44.8,22.7-107.3-22.6-28.5c3.4,2.1,6.7,4.6,9.6,7.6
		C1068.2,1667.7,1072.4,1674.9,1075,1682.5z"/>
	<path fill="#FFB602" d="M666,820.1c-160.6,145.3-499.6,378.2-272.8,757c-30.2-65.3-67.3-177.9-44.1-304.2
		c17.4-94.6,68.6-196.8,182-292.6C660.4,871,792.2,799.2,906.9,742.5c25.4-12.5,49.9-24.3,73.4-35.6c58-27.9,110-52.9,153.6-78.8
		c10.4-6.2,20.3-12.4,29.7-18.7c27.3-18.4,50.2-37.6,67.9-58.8c20.7-24.9,34.4-52.6,39.2-85.1c0.5-3.3,3.5-5.6,6.8-5.1
		c3.3,0.5,5.6,3.5,5.1,6.8c-4.2,28.7-14.6,53.8-30.3,76.4c-20,28.9-48.7,53.9-84.3,77.5c-13.5,9-28.1,17.7-43.5,26.5
		c-40.7,22.9-87.5,45.5-139,70.2c-13.8,6.6-28,13.5-42.5,20.5C822,797,678.8,871.2,538.8,989.5
		c-121.1,102.3-169.5,212.1-181.6,311.4c-16.8,138.4,37,256.3,63.9,304.9c3,5.4,5.6,10,7.8,13.6c-6.8-39.2-10.6-76.3-11.5-111.4
		c-0.5-19.2-0.2-37.8,0.9-55.9c-1.6-13.8-2.7-29.9-2.6-47.7c0.7-112.3,47.7-297.8,300.1-473.8c109.1-76.1,230.4-131,349.5-189.4
		c17.7-8.7,35.3-17.4,52.9-26.4c9.8-5,19.6-10,29.4-15.1c9.4-5,19.3-10.1,29.4-15.4c5.8-3.1,11.8-6.2,17.8-9.4
		c31.9-16.9,65.9-35.8,99-56.9c11.2-12.3,21.3-25.5,30.3-39.5c9.2-14.2,17.2-29.3,23.9-44.9c7.6-17.7,13.5-36.3,17.8-55.6
		c6.2-28.4,8.2-57,6.3-85.3c-0.1-0.4-0.2-0.8-0.2-1.3c-18.2-109.8-114.6-184.5-236.6-180.6c-207.6,6.7-144,164.1-144,164.1
		c1.3-15.4,5.2-29.3,11-41.8c5.5-21.5,18.6-39.9,37.4-51.9c16.2-10.4,34.5-16.1,53.2-17c72.6-16.2,158,20.7,163.6,122.4
		c0.9,16.7-0.2,35-4,55.3c-9.9,52.5-45.9,94.4-98.6,131c-103.5,71.9-271.6,123.1-433.6,192.8C704.3,783.5,686.4,801.6,666,820.1z"/>
	<path fill="#FFB602" d="M1275.9,659.7c1.4-1.6,2.6-3.3,4-4.9c-22.3,15.8-45.3,30.8-68.8,45.1c-10.1,6.2-20.4,12.2-30.7,18.1
		c-17,9.8-34.3,19.4-51.6,28.8c-2.5,1.4-5,2.7-7.5,4.1c-82.5,44.1-167.8,84.3-248.8,130.1c26.1-8.7,54-16.4,84-22.7
		c65.1-32.4,127.7-62.8,182.2-94.2c3.7-2.1,7.4-4.3,11-6.4c13-7.7,25.6-15.5,37.5-23.4c11.3-7.5,22.2-15.1,32.4-22.8
		C1241.4,695,1260.4,677.9,1275.9,659.7z"/>
	<path fill="#FFB602" d="M809.1,919c-15.7,10-31.2,20.2-46.4,30.8c-31.6,22.3-62,46.5-90.4,72.7c73.4-54.1,155.3-98.9,235.7-139.8
		C871.7,893.1,838.7,905.4,809.1,919z"/>
	<path fill="#F67D4B" d="M687.3,1717.2c5.6,5.6,14.6,5.6,20.2,0c5.6-5.6,5.6-14.6,0-20.2c-5.6-5.6-14.6-5.6-20.2,0
		C681.7,1702.5,681.7,1711.6,687.3,1717.2z"/>
	<path fill="#F67D4B" d="M811.2,1760.5c-3.5-8-3.7-17-0.5-25.2C767.1,1727.3,767.3,1768.9,811.2,1760.5z"/>
	<path fill="#F67D4B" d="M812.9,1763.6c-38.5,25.8-6.3,56.6,19.2,15.1c-5.1-1.5-10-4.1-14-8.2
		C815.9,1768.5,814.3,1766.1,812.9,1763.6z"/>
	<path fill="#F67D4B" d="M834.1,1715.1c7.9-1.7,16.2-0.6,23.3,3.4C871,1668.1,823.4,1667,834.1,1715.1z"/>
	<path fill="#F67D4B" d="M827.6,1759.7c6.6,6.6,17.3,6.6,23.9,0c6.6-6.6,6.6-17.3,0-23.9c-6.6-6.6-17.3-6.6-23.9,0
		C821,1742.4,821,1753.1,827.6,1759.7z"/>
	<path fill="#F67D4B" d="M812.3,1731.8c1.5-2.8,3.3-5.6,5.7-8c3.9-3.9,8.5-6.4,13.3-8C806.1,1676.4,775.1,1706.4,812.3,1731.8z"/>
	<path fill="#F67D4B" d="M872.5,1736.4c49.9-26.8,13.6-64.3-13.5-17.1c2,1.3,4,2.7,5.8,4.5C868.4,1727.5,871,1731.8,872.5,1736.4z"
		/>
	<path fill="#F67D4B" d="M673.5,1717.8c-2.9-6.7-3.1-14.4-0.5-21.2C636.3,1689.8,636.5,1724.9,673.5,1717.8z"/>
	<path fill="#F67D4B" d="M674.9,1720.5c-32.5,21.8-5.3,47.7,16.2,12.8c-4.3-1.3-8.4-3.5-11.9-6.9
		C677.5,1724.6,676.1,1722.6,674.9,1720.5z"/>
	<path fill="#F67D4B" d="M725.5,1698.4c1.8,5.7,1.7,11.9-0.3,17.5C772.1,1730.3,772.2,1684.3,725.5,1698.4z"/>
	<path fill="#F67D4B" d="M724.9,1716.8c-1.4,3.5-3.4,6.8-6.2,9.6c-1.7,1.7-3.5,2.9-5.4,4.1C736.3,1771.8,767.8,1739.6,724.9,1716.8z
		"/>
	<path fill="#F67D4B" d="M693.1,1733.9c-10.1,42,31.6,41.1,19.1-2.8C706.3,1734.2,699.5,1735.2,693.1,1733.9z"/>
	<path fill="#F67D4B" d="M674.4,1693.6c1.3-2.4,2.8-4.7,4.8-6.7c3.3-3.3,7.1-5.4,11.3-6.7C669.1,1646.9,643,1672.2,674.4,1693.6z"/>
	<path fill="#F67D4B" d="M1002.4,491.1c11.1,11.1,29,11.1,40.1,0c11.1-11.1,11.1-29.1,0-40.1c-11.1-11.1-29-11.1-40.1,0
		C991.3,462,991.3,480,1002.4,491.1z"/>
	<path fill="#F67D4B" d="M977.7,443.5c2.5-4.7,5.5-9.3,9.5-13.3c6.4-6.5,14.1-10.7,22.2-13.3C967.3,351,915.5,401,977.7,443.5z"/>
	<path fill="#F67D4B" d="M1544,1168.2c-44.5-188.9-216.4-318.9-418-316c-83.5,1.2-155.7,12.8-218.1,30.5
		c-80.4,40.8-162.3,85.6-235.7,139.8c-47.4,43.7-89.4,93-122.7,148.4c-25.9,43.1-45.5,93.1-58.7,145c36.6-32.2,82.8-59,139.2-68.8
		c6.5-11.3,13.2-22.6,20.3-33.7c1.8,10.4,5.1,20.6,10,30.2c4.8,9.4,11.2,18.2,19,26.1c38.5,38.5,99.4,40.7,140.5,6.9
		c2.6-2.1,5.1-4.4,7.6-6.9c37.6-37.6,40.6-96.8,8.9-137.8c67.9-70.1,174.5-161.7,294.3-196.8c13.3-1.6,26.7-2.4,40.3-2.1
		c76,1.8,146.1,35.1,197.3,93.8c87.4,100.2,79.9,263.7-16.7,364.5c-38.4,40-87.9,61.4-139.4,60.2c-48-1.1-92.3-22.2-124.7-59.2
		c-43.2-49.6-49.5-123.6-21-184c53.5-57.5,150.1-81.4,211.4-19.4c1.7,1.7,3.1,3.4,4.7,5.1c5.1,15.3,6.6,31.8,4.6,48
		c-1.1-1.2-2.1-2.4-3.2-3.6c-15-15-33.4-24.4-52.6-28.4c-0.3-0.6-0.5-1.3-1-1.8c-9.9-11.4-23.5-17.8-38.3-18.1
		c-15.7-0.4-30.7,6.1-42.2,18.1c-10,10.4-16.6,23.2-19.9,36.7c-34.8,41.2-32.9,102.8,5.9,141.6c40.9,40.9,107.2,40.9,148.1,0
		c5.7-5.7,10.6-12,14.7-18.6c137.4-141.1-108.8-416.4-296.3-211.2c-55.3,60.5-79,133.3-71.7,201.4c27.3,34.5,40.6,72.5,43.4,109.8
		c19.1,25.4,44.3,48,75.6,66.2c131.2,76.3,313.3,54.5,414.6-54.7c24.5-26.4,44.7-55.6,60.8-86.7
		C1557.4,1315.5,1560.1,1236.2,1544,1168.2z M807.4,1228c-26.4,26.4-69.3,26.4-95.7,0c-26.4-26.4-26.4-69.2,0-95.6
		c26.4-26.4,69.3-26.4,95.7,0c2.4,2.4,4.3,5.1,6.3,7.7c2.2,3,4.1,6.2,5.8,9.5C832.5,1175,828.7,1206.7,807.4,1228z M827.4,1121.5
		c-23.1-23-54.3-33.1-84.4-30.1c46.2-49.8,99.7-92.9,161.4-124c60.1-30.3,117.7-49.3,171.8-59C1001.1,938.9,917,1003.1,827.4,1121.5
		z M1158.4,1216.6c9.2-9.6,21-14.7,33.2-14.4c6.9,0.2,13.3,2.3,19.1,5.7c-20.8-0.2-41.7,5.8-59.6,17.9
		C1153.3,1222.5,1155.7,1219.4,1158.4,1216.6z M1168.1,1249.3c26.4-26.4,69.3-26.4,95.7,0c6.8,6.8,11.8,14.8,15.1,23.2
		c-5.1,12-12.4,23.4-21.8,33.1c-15,15.7-34.4,24-54.5,23.6c-18.7-0.4-35.9-8.6-48.5-23.1c-2.2-2.5-4.1-5.4-5.8-8.2
		C1148.2,1280.3,1154.7,1262.7,1168.1,1249.3z M1263.8,1344.9c-26.4,26.4-69.3,26.4-95.7,0c-6.8-6.7-11.7-14.6-15-23
		c13.8,12,30.9,18.9,49.3,19.3c23.5,0.6,46.1-9.1,63.4-27.3c6.8-7,12.4-14.8,17.2-23.1C1284.8,1310.2,1278.6,1330.1,1263.8,1344.9z
		 M1299.4,1217c13.4,23.9,15.9,48.4,12.3,71.4c-2.8-11.9-7.6-23.3-14.5-33.8C1299.8,1242.2,1300.5,1229.5,1299.4,1217z
		 M1489.6,1240.1c-14.6,141.4-149.6,276.9-296.9,263.6c-125.3-11.3-210-132.4-153.6-255.4c0.7-1.7,1.6-3.3,2.4-4.9
		c-12.2,55-0.2,114.2,36.8,156.6c34.7,39.7,82.1,62.2,133.5,63.4c55,1.3,107.7-21.4,148.5-63.9c100.8-105.2,108.5-276,17.1-380.8
		c-48.5-55.5-113.1-89.2-184-96.4c43-4.6,87.1-0.8,131.2,14.9C1438.3,993.6,1503.1,1108.9,1489.6,1240.1z"/>
	<path fill="#F67D4B" d="M1078.6,453c3.5,11.3,3.4,23.4-0.6,34.6C1170.8,516,1171,425.1,1078.6,453z"/>
	<path fill="#F67D4B" d="M1207.1,414.4c0.7-3.3,1.2-6.7,1.7-10.1c4.4-31.6-2.4-63.4-19.8-90.5c-15.6-24.3-39.7-41-67.9-47.2
		c-9.4-2-18.8-2.7-28.1-2.3c-18.8,0.9-37,6.5-53.2,17c-18.8,12-31.9,30.4-37.4,51.9c-0.3,1-0.6,2.1-0.9,3.1
		c-4.8,21.9-1,44.2,10.3,63.3c0.4,4.9,1,10.1,2.3,15.8c3-0.7,6-1,9-1.2c9.6,9.5,21.6,16.3,35.1,19.2c3.7,0.8,7.5,1.3,11.2,1.5
		c3.9,5,6.7,10.4,8.6,16.1c16.3-8.8,27.1-18.2,33.5-27.1c0.1-0.1,0.2-0.1,0.3-0.2c13.1-8.4,22.1-21.4,25.4-36.6
		c3.3-15.2,0.5-30.8-7.9-43.9c-1.8-2.8-5.5-3.6-8.3-1.8c-2.8,1.8-3.6,5.5-1.8,8.3c6.7,10.4,8.9,22.8,6.3,34.8
		c-1.2,5.4-3.4,10.4-6.3,15c-3.2-20.3-35.2-24.5-62.4,20.8c-1.2-0.3-2.3-0.7-3.5-1.1c16.3-64.3-27.7-78.8-39.1-44.1
		c-3.3-11.7-3.7-24.1-1-36.4c4.3-19.7,16-36.6,33-47.5c21.6-13.9,47.2-18.5,72.3-13.1c25.1,5.5,46.5,20.3,60.3,41.9
		c17.5,27.3,23.4,59.8,16.5,91.5c-0.2,1.1-0.6,2.1-0.9,3.2c-6.1,24.7-19.4,46.3-38.4,62.7c-4.3,3.8-8.9,7.3-13.8,10.5
		c-12.7,8.2-26.2,14.1-40,18.1c-6.3-5.8-14.4-11.6-24.8-17.1c-2.7,6.9-6.7,13.4-12.3,19c-1.5,1.5-3.1,2.9-4.8,4.1
		c-30.4,0.2-60.5-8.7-86.1-25.6c-4.1-12.2-4.1-25.4,0.6-37.4c-16.5-3-29-1.7-38,1.9c-2.2-3-4.5-5.9-6.5-9.1
		c-57.6-89.6-31.5-209.4,58.1-267c112.7-72.4,263.3-39.6,335.8,73.1c28.1,43.8,44.3,92.9,47.8,143.4c0,0.4,0,0.8,0.1,1.2
		c1.9,28.2-0.2,56.9-6.3,85.3c-4.2,19.3-10.2,37.8-17.8,55.6c-6.7,15.7-14.7,30.7-23.9,44.9c-9,13.9-19.1,27.1-30.3,39.5
		c-17.9,19.7-38.4,37.2-61.3,51.9c-2.8,1.8-3.6,5.5-1.8,8.3c1.8,2.8,5.5,3.6,8.3,1.8c22.8-14.6,43.3-31.9,61.3-51.2
		c9.8-10.5,18.7-21.6,27-33.3c3.8-5.5,7.5-11.1,11-16.8c8.5-14,16-28.7,22.3-43.9c7.2-17.4,13-35.5,17.1-54.3
		c6.1-28.1,8.3-56.4,6.8-84.4c-2.8-54.5-19.7-107.5-50-154.6c-76-118.3-234.1-152.7-352.4-76.7c-95.2,61.2-122.9,188.4-61.7,283.6
		c2,3.1,4.2,6,6.4,8.9c-14.2,14.1-2.4,37.7,35.7,35.4c3.6,2.6,7.3,5,11.1,7.3c-55.9,42.2-4.2,88.7,37.2,21.6
		c-8.6-2.5-16.7-6.9-23.4-13.6c-0.2-0.2-0.4-0.5-0.6-0.7c15.9,7.8,32.9,13,50.4,15.4c-7.4,1.5-15,1.7-22.4,0.1
		c-19.4,80.7,57.6,81,39.4,1.4c1.8,0.1,3.6,0,5.4,0c35.9,55.3,78.3,27.4,51.8-8.3c13-4.3,25.6-10,37.6-17.7c1.1-0.7,2-1.5,3.1-2.2
		C1180.2,476.9,1199.8,448,1207.1,414.4z"/>
	<path fill="#F67D4B" d="M471,1692.6c0,0,16.2-102.2,62.3-232.4c-42.4,66-64.5,142.1-74.9,189.1L471,1692.6z"/>
	<path fill="#F67D4B" d="M872.8,1737.5c2.1,6.7,2,14-0.4,20.7C928.1,1775.3,928.3,1720.8,872.8,1737.5z"/>
	<path fill="#F67D4B" d="M872.2,1759.2c-1.6,4.1-4,8-7.4,11.4c-2,2-4.1,3.5-6.4,4.9C885.7,1824.5,923,1786.3,872.2,1759.2z"/>
	<path fill="#F67D4B" d="M834.5,1779.5c-11.9,49.8,37.4,48.7,22.7-3.4C850.1,1780,842.1,1781.1,834.5,1779.5z"/>
	<path fill="#F67D4B" d="M357.2,1300.9c12.1-99.3,60.5-209.1,181.6-311.4C678.8,871.2,822,797,943,738.2c14.5-7,28.7-13.9,42.5-20.5
		c51.4-24.7,98.3-47.3,139-70.2c15.4-8.7,30-17.5,43.5-26.5c35.6-23.6,64.2-48.6,84.3-77.5c15.7-22.6,26.1-47.7,30.3-76.4
		c0.5-3.3-1.8-6.4-5.1-6.8c-3.3-0.5-6.4,1.8-6.8,5.1c-4.8,32.5-18.4,60.1-39.2,85.1c-17.7,21.2-40.5,40.4-67.9,58.8
		c-9.4,6.3-19.3,12.5-29.7,18.7c-43.6,25.9-95.6,50.9-153.6,78.8c-23.5,11.3-48,23.1-73.4,35.6C792.2,799.2,660.4,871,531.1,980.3
		c-113.4,95.8-164.6,198-182,292.6c-23.2,126.3,13.9,238.9,44.1,304.2c1.3,2.7,2.5,5.4,3.8,8c15.3,31.9,28,50.6,28.6,51.4
		c1.5,2.1,4.1,3,6.5,2.3c0.1,0,0.1-0.1,0.2-0.1c0.1,0,0.1-0.1,0.2-0.1c0.5-0.1,0.9-0.3,1.4-0.6c0,0,0.1,0,0.1,0
		c2.7-1.9,3.4-5.6,1.5-8.4c-0.2-0.3-2.7-3.9-6.5-10.3c-2.2-3.6-4.8-8.2-7.8-13.6C394.2,1557.2,340.4,1439.3,357.2,1300.9z"/>
	<path fill="#F67D4B" d="M1589.2,815.9c-34.2-18-76.2-15.7-108.5,6.7c-5,3.5-9.9,7.4-14.4,11.9c-14.6,14.6-23.9,32.5-28.1,51.3
		c-1.3,5.9-2.1,11.9-2.4,17.9c-22-20-46-38-71.6-54.3c-51.7-32.9-109.4-58.6-168.7-78.2c-15.5-5.1-30.8-9.5-45.9-13.4
		c-3.6,2.2-7.3,4.3-11,6.4c-54.5,31.4-117.1,61.8-182.2,94.2c50.7-10.6,106.9-17.3,169.3-18.2c207.3-3,384.1,130.8,430,325.3
		c7.5,32,11.1,66.5,9.5,102.1c7.6-51.1,5.9-104-5.7-156.1c-8.1-36.3-21-69.4-37.6-99.8c32.5,5.7,67.3-3.9,92.4-29
		c38.5-38.5,40.8-99.5,6.8-140.6c-2.1-2.6-4.4-5.1-6.8-7.5C1606.8,826.9,1598.2,820.7,1589.2,815.9z M1594.4,941
		c-26.4,26.4-69.3,26.4-95.7,0c-15.4-15.4-21.6-36.5-19-56.6c1.9-14.3,8-28.1,19-39c4.6-4.6,9.7-8.1,15.1-11
		c17.4-9.7,37.9-11.2,56.2-4.4c8.3,3.1,16.1,7.8,22.8,14.2c0.5,0.5,1,0.8,1.5,1.2C1620.8,871.7,1620.8,914.5,1594.4,941z"/>
	<path fill="#F67D4B" d="M924.7,585.6c1.6,1,3.2,2.2,4.6,3.6c2.9,2.9,4.9,6.3,6.1,9.9C974.9,577.9,946.2,548.2,924.7,585.6z"/>
	<path fill="#F67D4B" d="M935.6,600c1.7,5.4,1.6,11.1-0.3,16.4C979.4,629.9,979.5,586.8,935.6,600z"/>
	<path fill="#F67D4B" d="M905,582.2c6.2-1.4,12.8-0.5,18.5,2.7C934.1,545.1,896.5,544.2,905,582.2z"/>
	<path fill="#F67D4B" d="M935.1,617.2c-1.3,3.3-3.2,6.4-5.8,9c-1.5,1.5-3.3,2.7-5.1,3.8C945.8,668.8,975.3,638.6,935.1,617.2z"/>
	<path fill="#F67D4B" d="M905.3,633.2c-9.4,39.4,29.6,38.5,18-2.7C917.7,633.6,911.3,634.5,905.3,633.2z"/>
	<path fill="#F67D4B" d="M899.8,617.6c5.2,5.2,13.7,5.2,19,0c5.2-5.2,5.2-13.7,0-19c-5.2-5.2-13.7-5.2-19,0
		C894.6,603.9,894.6,612.3,899.8,617.6z"/>
	<path fill="#F67D4B" d="M725.2,1697.5c42.1-22.6,11.5-54.3-11.4-14.4c1.7,1.1,3.4,2.3,4.9,3.8
		C721.8,1690,723.9,1693.7,725.2,1697.5z"/>
	<path fill="#F67D4B" d="M886.9,618.2c-2.8-6.3-2.9-13.5-0.4-19.9C852,591.9,852.1,624.8,886.9,618.2z"/>
	<path fill="#F67D4B" d="M903.4,632.6c-4.1-1.2-7.9-3.3-11.1-6.5c-1.7-1.7-3-3.6-4.1-5.5C857.7,641.1,883.2,665.4,903.4,632.6z"/>
	<path fill="#F67D4B" d="M692.8,1679.5c6.6-1.5,13.6-0.5,19.7,2.9C723.9,1639.9,683.8,1638.9,692.8,1679.5z"/>
	<path fill="#F67D4B" d="M887.7,595.5c1.2-2.3,2.6-4.4,4.5-6.3c3.1-3,6.7-5.1,10.6-6.3C882.8,551.6,858.3,575.3,887.7,595.5z"/>
	<path fill="#C34E5C" d="M1234,1680.8c-1.6,4.2-4.1,8-7.4,11.4c-2,1.9-4.1,3.5-6.4,4.8C1247.5,1746.1,1284.8,1707.9,1234,1680.8z"/>
	<path fill="#C34E5C" d="M578.3,1625c6.6,6.6,17.3,6.6,24,0c6.6-6.6,6.6-17.3,0-24c-6.6-6.6-17.3-6.6-24,0
		C571.7,1607.7,571.7,1618.4,578.3,1625z"/>
	<path fill="#C34E5C" d="M585.2,1644.8c-11.9,49.8,37.5,48.7,22.7-3.4C600.9,1645.3,592.8,1646.4,585.2,1644.8z"/>
	<path fill="#C34E5C" d="M563.1,1597.2c1.5-2.9,3.3-5.6,5.7-8c3.9-3.9,8.5-6.4,13.3-8C556.8,1541.7,525.8,1571.7,563.1,1597.2z"/>
	<path fill="#C34E5C" d="M622.9,1624.6c-1.6,4.1-4,8-7.4,11.4c-2,1.9-4.1,3.5-6.4,4.9C636.4,1689.8,673.7,1651.6,622.9,1624.6z"/>
	<path fill="#C34E5C" d="M609.8,1584.7c2.1,1.3,4,2.7,5.8,4.5c3.7,3.6,6.1,8,7.7,12.6C673.2,1574.9,636.9,1537.4,609.8,1584.7z"/>
	<path fill="#C34E5C" d="M623.6,1602.8c2.1,6.8,2,14.1-0.4,20.8C678.9,1640.6,679,1586.1,623.6,1602.8z"/>
	<path fill="#C34E5C" d="M584.9,1580.4c7.9-1.8,16.2-0.6,23.3,3.4C621.7,1533.5,574.2,1532.3,584.9,1580.4z"/>
	<path fill="#C34E5C" d="M1195.9,1636.7c7.9-1.7,16.2-0.6,23.3,3.4C1232.8,1589.7,1185.2,1588.6,1195.9,1636.7z"/>
	<path fill="#C34E5C" d="M1466.3,834.5c4.5-4.5,9.3-8.4,14.4-11.9c-5.7-2.5-11.2-5.2-16.5-8c-26,16.4-57.2,28.2-91.6,33.7
		c20.3,12.9,42.2,25.5,65.6,37.5C1442.4,867,1451.7,849.1,1466.3,834.5z"/>
	<path fill="#C34E5C" d="M838.2,540.1c0.5-5.2,0.5-8,0.5-8C838.8,534.8,838.4,537.4,838.2,540.1z"/>
	<path fill="#C34E5C" d="M1196.3,1701.1c-11.9,49.8,37.5,48.7,22.7-3.4C1211.9,1701.6,1203.9,1702.7,1196.3,1701.1z"/>
	<path fill="#C34E5C" d="M1234.6,1659.1c2.1,6.8,2,14-0.4,20.7C1289.9,1696.9,1290.1,1642.4,1234.6,1659.1z"/>
	<path fill="#C34E5C" d="M563.6,1629c-38.5,25.8-6.3,56.6,19.2,15.1c-5.1-1.5-10-4.1-14.1-8.2C566.7,1633.8,565,1631.4,563.6,1629z"
		/>
	<path fill="#C34E5C" d="M834.6,562.4c2-7.3,3.1-14.8,3.6-22.4C837.7,545.2,836.7,552.7,834.6,562.4z"/>
	<path fill="#C34E5C" d="M1174.2,1653.4c1.5-2.8,3.3-5.6,5.7-8c3.9-3.9,8.5-6.4,13.3-8C1167.9,1598,1136.9,1628,1174.2,1653.4z"/>
	<path fill="#C34E5C" d="M1174.7,1685.3c-38.5,25.8-6.3,56.6,19.2,15.1c-5.1-1.5-10-4.2-14.1-8.2
		C1177.7,1690.1,1176.1,1687.7,1174.7,1685.3z"/>
	<path fill="#C34E5C" d="M1234.4,1658c49.9-26.8,13.6-64.3-13.5-17.1c2,1.3,4,2.8,5.8,4.6C1230.2,1649.1,1232.8,1653.5,1234.4,1658z
		"/>
	<path fill="#C34E5C" d="M1173,1682.1c-3.5-8-3.7-17.1-0.6-25.2C1128.9,1648.9,1129.1,1690.5,1173,1682.1z"/>
	<path fill="#C34E5C" d="M1189.4,1681.3c6.6,6.6,17.4,6.6,23.9,0c6.6-6.6,6.6-17.3,0-24c-6.6-6.6-17.3-6.6-23.9,0
		C1182.8,1664,1182.8,1674.7,1189.4,1681.3z"/>
	<path fill="#C34E5C" d="M1732.6,653c-18.3-47.4-76.4-82.1-145.4-82.1c-34.7,0-66.5,8.9-92,23.6c28,27.1,44.9,61,44.9,97.9
		c0,32.5-13,62.7-35.2,87.9c23.7,11.6,52,18.4,82.3,18.4c8.8,0,17.4-0.7,25.8-1.8C1668.9,750.3,1708,700.9,1732.6,653z"/>
	<path fill="#C34E5C" d="M1555.8,1165.4c-45.9-194.5-222.6-328.3-430-325.3c-62.4,0.9-118.6,7.6-169.3,18.2c-30,6.3-57.9,14-84,22.7
		c81-45.8,166.3-86,248.8-130.1c2.5-1.4,5-2.7,7.5-4.1c17.4-9.4,34.6-18.9,51.6-28.8c10.3-5.9,20.6-12,30.7-18.1
		c23.5-14.3,46.5-29.3,68.8-45.1c-1.4,1.6-2.6,3.3-4,4.9c-15.5,18.1-34.6,35.3-56.3,51.8c24.1,31.9,54.8,63.7,93,94.2
		c5,0.4,10.2,0.6,15.3,0.6c23.7,0,46-4.2,66-11.5c5.2,32,35.2,32.2,40.5,0.4c1-6.1,1.1-13.4-0.1-21.8c-0.7-4.9-1.7-10.2-3.3-16
		c-8.7,4.7-18.5,6.7-28.1,6c-8.3-10.9-14.8-22.6-19.5-35c0.8,1.1,1.6,2.2,2.6,3.2c11.9,11.9,31.3,11.9,43.2,0
		c11.9-11.9,12-31.3,0-43.2c-11.9-11.9-31.3-11.9-43.2,0c-5.1,5.1-7.9,11.6-8.7,18.3c-1.3-7.2-2.2-14.5-2.2-21.9
		c0-4.3,0.4-8.5,0.8-12.7c4.7-3.5,9.9-6,15.2-7.7c-3.6-5.7-7.3-10.1-11-14c5.7-19.4,16-37.5,30.2-53.5c-12.7-6.2-26.6-11-41.5-14.1
		c13.1-12.2,25.8-25,38-38.4c15.8,4.7,30.5,10.9,44.2,18.2c36.9-23.2,84.4-37.3,136.2-37.3c69.8,0,131.6,25.5,170.2,64.6
		c26.9-100.7-11.5-183.6-88.4-201.1c-109.6-24.8-170.5,19.8-196.3,47.3c3.1-14.8,4.6-30.3,7.1-48.3c-3,21.9-9.4,42.6-18.6,62.2
		c-2.4,3.4-3.6,5.4-3.6,5.4s-21.6-37.6-73.2-59.2c1.4,28-0.7,56.3-6.8,84.4c-4.1,18.8-9.9,36.9-17.1,54.3
		c11.5,1.4,22.7,3.3,33.5,5.9c-14.1,13.6-29.2,26.6-45.1,38.8c-3.5-0.4-7-0.7-10.6-0.8c-3.5,5.7-7.1,11.3-11,16.8
		c-8.2,11.7-17.2,22.8-27,33.3c-18,19.4-38.5,36.6-61.3,51.2c-2.8,1.8-6.5,1-8.3-1.8c-1.8-2.8-1-6.5,1.8-8.3
		c23-14.7,43.5-32.3,61.3-51.9c-33.1,21.1-67.1,39.9-99,56.9c-6.1,3.2-12,6.3-17.8,9.4c-10.1,5.3-20,10.4-29.4,15.4
		c-9.8,5.1-19.5,10.1-29.4,15.1c-17.5,8.9-35.2,17.7-52.9,26.4C946.2,799.6,825,854.6,715.8,930.6
		c-252.4,175.9-299.4,361.5-300.1,473.8c-0.1,17.9,1,33.9,2.6,47.7c-1.1,18.1-1.5,36.7-0.9,55.9c0.9,35.2,4.7,72.3,11.5,111.4
		c3.9,6.4,6.3,10,6.5,10.3c1.9,2.7,1.2,6.5-1.5,8.4c0,0-0.1,0-0.1,0c-0.4,0.3-0.9,0.5-1.4,0.6c-0.1,0-0.1,0.1-0.2,0.1
		c-0.1,0-0.1,0-0.2,0.1c-2.4,0.7-5-0.2-6.5-2.3c-0.6-0.8-13.2-19.5-28.6-51.4c-1.2-2.6-2.5-5.3-3.8-8
		c-226.8-378.9,112.2-611.8,272.8-757c20.4-18.5,38.4-36.6,54.3-54.2c79.7-88.4,105.9-163.7,114.4-203.4
		c-40.1,144.6-361.5,228.9-534.9,533.4c-22,38.7-36.6,76.2-45.2,112.4c4.8-94.8,34.3-216,135.8-313.4
		c63.5-60.9,135.4-119.6,205-176.3c153.5-125.1,286.1-233.1,283.3-326.8c-0.1-3.3-2.9-5.9-6.2-5.8c-3.3,0.1-5.9,2.9-5.8,6.2
		c2.7,87.7-134,199.1-278.8,317C518,766,445.8,824.8,382,886.1c-140.9,135.2-146.8,315-137.3,411.7
		c3.1,178.6,140.3,310.4,191.4,353.4l14.1,42.7c0,0,1.3-10.5,4.7-27.7c0.1,0,0.1,0.1,0.1,0.1c0-0.1-0.1-0.1-0.1-0.2
		c1-5.1,2.1-10.7,3.5-16.9c10.4-47,32.4-123.1,74.9-189.1c28.5-44.4,66.3-84.2,116-107.4c2.6-1.2,5.2-2.3,7.8-3.4
		c-167.4,96.2-141.4,349.2-141.4,349.2c3.3-29.4,8-56.6,13.9-81.8c2.7,7,13.5,12.6,32.3,9c-3.5-8-3.7-17.1-0.6-25.2
		c-14.6-2.7-24.2,0.3-28.9,5c44.2-175.7,144.2-250.8,187.7-276c131.9-25,228.2,61.8,221.3,165.4c-8.1,121.4-186.1,176.5-220.4,72.2
		c-34.4-104.4,66.5-149.5,115.6-100.8c49.1,48.6-12.9,104.2-12.9,104.2c117.5-52.2-13.1-242.3-110.4-137.2
		c-97.3,105.1,16.2,261.6,138,236.3c67.5-14,129.7-105.4,122.6-201.7c-2.8-37.3-16-75.3-43.4-109.8c-24.6-31-60.6-59.3-110.7-81.7
		c-41.1,33.9-102.1,31.6-140.5-6.9c-7.9-7.9-14.2-16.7-19-26.1c-10.4,0.6-20.5,1.8-30.3,3.5c-56.4,9.8-102.5,36.7-139.2,68.8
		c13.2-51.8,32.9-101.9,58.7-145c33.3-55.4,75.3-104.7,122.7-148.4c28.5-26.3,58.9-50.5,90.4-72.7c15.1-10.7,30.6-20.9,46.4-30.8
		c29.7-13.6,62.6-25.9,98.9-36.2c62.4-17.7,134.5-29.4,218.1-30.5c201.6-2.9,373.5,127,418,316c16,67.9,13.4,147.3-19.1,224.7
		c-37.1,88.5-113.1,174.4-244.9,237.9c-3,1.4-4.3,5-2.8,8c1.5,3,5.1,4.3,8.1,2.8c199.4-96,274.3-242.7,280-374.1
		C1566.8,1231.9,1563.3,1197.5,1555.8,1165.4z"/>
	<path fill="#C34E5C" d="M1466.3,738.7c1-1.7,2-3.5,2.9-5.3c63.1,11.5,66.4-44.3,10.2-40.2c0-0.2,0.1-0.5,0.1-0.8
		c0-4.4-0.4-8.7-1.1-13c29.2-28.2,10.1-55.2-16.6-40.3c-2.2-3.2-4.7-6.2-7.3-9.2c-7.2,9.9-12.6,20.6-15.7,32c-1.7,2.5-3.3,5-4.9,7.8
		c1,0.6,1.9,1.6,2.9,2.3c-0.6,4.2-1,8.5-1,12.8c0,18.4,5.9,35.7,16.2,51c-2.3,4.7-5.2,9.2-9.1,13.1c-3,3-6.4,5.4-9.9,7.5
		c2.5,4.5,5,8.4,7.6,12c26.1,36.3,54.6,27.1,52.5,5.4C1491.9,763.8,1484.1,750.9,1466.3,738.7z"/>
	<path fill="#C34E5C" d="M1395.4,663.1c12.1-2.7,24.9-0.9,36,5.3C1452.3,590.6,1378.8,588.8,1395.4,663.1z"/>
	<path fill="#C34E5C" d="M1252.5,442.1c3.8-20.3,4.9-38.6,4-55.3c-3.4,0.7-6.8,1.3-10.3,2.1c-13.8,3.1-26.2,8.4-37.4,15.4
		c-0.5,3.4-1,6.7-1.7,10.1c-7.3,33.6-26.9,62.5-55.2,81.8c-3.9,23.3-3.5,49.3,2,76.9C1206.6,536.5,1242.6,494.6,1252.5,442.1z"/>
	<path fill="#C34E5C" d="M1194.4,415.1c-18,15.8-31,37.2-38.4,62.7C1175,461.4,1188.4,439.7,1194.4,415.1z"/>
	<path fill="#C34E5C" d="M1371.8,391.6c0.1,0.4,0.2,0.8,0.2,1.3c0-0.4,0-0.8-0.1-1.2C1372,391.6,1371.9,391.6,1371.8,391.6z"/>
</g>
</svg>
