<?xml version="1.0" encoding="utf-8"?>
<!-- Generator: Adobe Illustrator 18.1.0, SVG Export Plug-In . SVG Version: 6.00 Build 0)  -->
<svg version="1.1" id="Layer_1" xmlns="http://www.w3.org/2000/svg" xmlns:xlink="http://www.w3.org/1999/xlink" x="0px" y="0px"
	 viewBox="0 0 150 150" enable-background="new 0 0 150 150" xml:space="preserve">
<g>
	<g>
		<path fill="#292929" d="M45.8,106.1c0,9.5-7.7,17.2-17.2,17.2s-17.3-7.7-17.3-17.2c0-9.5,7.7-17.3,17.3-17.3S45.8,96.5,45.8,106.1
			z"/>
		<g>
			<path fill="#FFFFFF" d="M13.1,109.7c-2-8.5,3.3-17,11.8-19s17,3.3,19,11.8c2,8.5-3.3,17-11.8,19
				C23.6,123.5,15.1,118.2,13.1,109.7z"/>
			<g>
				<polygon fill="#292929" points="31.3,104.2 24.6,108.4 24.5,108.2 31.3,104.1 31.3,104.2 				"/>
				<path fill="#292929" d="M31.7,98.1L31.7,98.1l-0.1,0.1c0,0-0.9-0.7-2.1-1.4l0,0c-1.3-0.8-2.9-1.5-4.5-1.9l0-0.2H25
					C28.3,95.4,31.7,98.1,31.7,98.1L31.7,98.1z"/>
				<path fill="#292929" d="M19.9,97.7c-0.6,2.2-0.7,4.2-0.6,5.6l0,0c0,1.5,0.2,2.4,0.2,2.4v0l-0.1,0c0,0-0.8-3.7,0.4-8l0,0
					L19.9,97.7L19.9,97.7z"/>
				<path fill="#292929" d="M37,107.4c0.7,3.2-0.2,6.9-0.2,6.9l0,0l0,0l-0.1,0c0,0,0.2-0.9,0.4-2.2l0,0c0.1-1.3,0.2-3-0.2-4.6l0,0
					c-0.1-0.2-0.1-0.5-0.2-0.7l0,0l0.1,0C36.9,107,36.9,107.2,37,107.4L37,107.4z"/>
				<path fill="#292929" d="M28.8,116.7c1.4,0.6,2.5,0.9,2.5,0.9l0,0l0,0.1c0,0-4.4-1.2-6.7-3.6l0,0l0.1-0.1
					C25.7,115.3,27.4,116.1,28.8,116.7L28.8,116.7z"/>
				<path fill="#292929" d="M37.1,93.5c0.5,2.1-0.2,4.1-0.2,4.1l0,0l0,0l-0.1,0c0,0,0.2-0.5,0.3-1.2l0,0c0.1-0.8,0.2-1.8-0.1-2.8
					l0,0c0-0.2-0.1-0.3-0.1-0.5l0,0l0.1,0C37.1,93.1,37.1,93.3,37.1,93.5L37.1,93.5z"/>
				<path fill="#292929" d="M15.6,109.2c0.7,0.3,1.1,0.3,1.1,0.3h0h0l0,0.1c0,0-1.8-0.2-3.6-2l0,0l0.1-0.1
					C14,108.4,14.9,108.9,15.6,109.2L15.6,109.2z"/>
				<path fill="#292929" d="M19.5,114.7c0,0-0.2,1.6,0.3,3.6l0,0c0.1,0.2,0.1,0.4,0.2,0.7l0,0l-0.1,0c-0.1-0.2-0.1-0.5-0.2-0.7l0,0
					C19.2,116.3,19.4,114.7,19.5,114.7L19.5,114.7L19.5,114.7L19.5,114.7z"/>
				<path fill="#292929" d="M43.9,104.8l-0.1,0.1c-0.3-0.3-1.2-0.8-2-1.2l0,0c-0.8-0.4-1.6-0.7-1.6-0.7l0,0l0.1-0.1
					C40.2,102.9,43.2,104.1,43.9,104.8L43.9,104.8z"/>
				<path fill="#292929" d="M44.1,109.2c-1.5,4.7-4.5,6.5-4.5,6.5l0,0l0,0l0-0.1c0,0,0.7-0.5,1.7-1.5l0,0
					C42.2,113.2,43.3,111.6,44.1,109.2L44.1,109.2L44.1,109.2L44.1,109.2z"/>
				<path fill="#FFFFFF" d="M31.1,120.6c0,0-3.7,1.1-7.4,0.6c0,0,4.3,0.8,7.5-0.4L31.1,120.6z"/>
				<path fill="#292929" d="M17.2,96.7c0,0-1.3,0.4-2.4,1.9c0,0,0.6-1.2,2.4-2.2L17.2,96.7z"/>
				<path fill="#292929" d="M25.1,92.1c0,0,1.3-0.9,4-1.7c0,0-2.6,0.5-4.1,1.5L25.1,92.1z"/>
			</g>
			<g>
				<path fill="#292929" d="M40.1,115.5c-1.1,2.6-4.1,4.6-4.1,4.6c-2.9,1.1-5.2,0.8-5.2,0.8l0.1-3.4c2.6-0.9,5.9-3.5,5.9-3.5
					L40.1,115.5z"/>
				<path fill="#292929" d="M37,107.5c0,0-4.6-2.8-5.9-3.2c0,0,0.4-4.9,0.2-6.4c0,0,3.2-1.3,5.9-0.9c0,0,2.4,2.3,3.5,6
					C40.6,103.1,38.6,106.4,37,107.5z"/>
				<path fill="#292929" d="M25.5,94.9c0,0-4,1.3-5.8,3.6c0,0-1.4-1.2-2.8-1.8c0,0,1.7-3.4,3.5-4.3c0,0,2.3-1.1,5.4-0.8
					C25.8,91.7,25.4,93,25.5,94.9z"/>
				<path fill="#292929" d="M25,114.5c0,0-0.1-4.5,0.1-6.4c0,0-3.9-2-5.7-3.1c0,0-3,2.9-3.1,4.5c0,0,0.6,3.4,3.2,5.8
					C19.4,115.3,22,116.1,25,114.5z"/>
				<path fill="#292929" d="M24.7,114.3c0,0-0.1-4.3,0.1-6.1c0,0-3.7-1.9-5.4-2.9c0,0-2.9,2.8-3,4.2c0,0,0.6,3.2,3,5.6
					C19.4,115.1,21.9,115.8,24.7,114.3z"/>
				<path fill="#292929" d="M43.9,110c0.7-2.4,0.7-5,0.1-7.5c0,0,0-0.1,0-0.1c0,0.7-0.2,1.8-0.5,2.3C43.5,104.7,44.2,107.8,43.9,110
					z"/>
				<path fill="#292929" d="M37,93.6c0,0,1,0.2,2.1,0.6c-2.4-2.2-5.5-3.6-8.8-4C32.1,90.7,35.2,91.7,37,93.6z"/>
				<path fill="#292929" d="M12.9,103.6c-0.3,1.9-0.3,3.8,0.1,5.8c0-0.6,0.1-1.2,0.3-1.6C13.4,107.7,12.9,105.8,12.9,103.6z"/>
				<path fill="#292929" d="M19.8,118.6c-1.1-0.2-2.5-1.4-3.5-2.4c2.1,2.5,4.8,4.3,7.9,5.1C22.1,120.4,19.8,118.6,19.8,118.6z"/>
			</g>
			<g opacity="0.2">
				<path fill="#292929" d="M30.2,104.5l-4.7,2.9c-0.3,0.2-0.9,0.2-1.2,0l-4.2-2.2c-0.3-0.2-0.3-0.2,0,0l4.1,1.8
					c0.4,0.2,0.9,0.1,1.3,0L30.2,104.5C30.6,104.3,30.6,104.3,30.2,104.5z"/>
				<path fill="#292929" d="M37.2,107.6c0,0,0.6,4.1-0.2,6.4l3.1,1.3l-2.7-1.4C37.3,113.9,37.9,111.1,37.2,107.6z"/>
				<path fill="#292929" d="M40.2,115.5c0,0-0.7,2.1-3.3,4C36.8,119.5,39.3,118.2,40.2,115.5z"/>
				<path fill="#292929" d="M31.4,97.7c0,0-3-2.4-5.9-3c0,0-0.2-1.1,0.3-2.9c0,0-0.2,1.7-0.1,2.7C25.8,94.6,28.6,95.1,31.4,97.7z"/>
				<path fill="#292929" d="M19.8,98.6c0,0-0.6,2.9-0.3,6.3c0,0,0-4,0.3-5.7c0-0.2,0.3-0.6,0.4-0.8c0.6-0.6,2.3-2.1,5.1-3.3
					C25.4,95.1,22.2,95.9,19.8,98.6z"/>
				<path fill="#292929" d="M19.2,105c0,0-2.7,2.5-3,4.2C16.2,109.3,16.3,107.2,19.2,105z"/>
			</g>
		</g>
	</g>
	<path fill="#C2D4E4" d="M125.6,50.2c-0.1,0-0.2,0-0.3,0l-21.2,6C104.1,56.1,113.7,53.4,125.6,50.2z"/>
	<path fill="#E0E8F1" d="M92.9,88c0,0,0,0.1,0.1,0.2c0.3,0.5,1,1.8,2,3.5c0-0.1,0.1-0.1,0.1-0.2l-2.3-3.6L92.9,88z"/>
	<path fill="#C3D7E6" d="M66.3,110.9l6.2,2.9c0,0,0,0,0,0L66.3,110.9C66.3,110.8,66.3,110.9,66.3,110.9z"/>
	<path fill="#E6EDF4" d="M106,64.6c0,0,0-0.1,0-0.1l-2-8.3L106,64.6z"/>
	<path fill="#7EA6C8" d="M93,88.2c0-0.1-0.1-0.1-0.1-0.2L93,88.2L93,88.2z"/>
	<path fill="#E6EDF4" d="M92.9,88l0-0.1c0,0,0,0.1,0.1,0.3L92.9,88z"/>
	<path fill="#1E6C36" d="M93,88.2c-0.1-0.2-0.1-0.3-0.1-0.3l-1.6,9c1.3-1.6,2.5-3.4,3.7-5.2C94,90,93.2,88.7,93,88.2L93,88.2z"/>
	<path fill="#5C5D5D" d="M61.4,115.9c-0.1,0.5-5.9,5-5.9,5l5.4-1.3c0,0,4.9-1.6,11.6-5.8l-6.2-2.9C64.7,112.7,63.1,114.4,61.4,115.9
		z"/>
	<path fill="#1E6C36" d="M92.9,87.9l2.3,3.6c4.7-7.2,8.6-16.1,10.9-27l-1.9-8.5L92.9,87.9z"/>
	<path fill="#C07E2A" d="M73.6,101c-2.1,3.5-4.6,6.8-7.3,9.8l6.2,2.9c5.6-3.6,12.5-9,18.7-16.8l1.6-9L73.6,101z"/>
	<path fill="#1E6C36" d="M104.1,56.1l2,8.3c0.4-2,0.8-4.1,1-6.2L104.1,56.1z"/>
	<path fill="#075F7A" d="M107.1,58.2c0-0.4,0.1-0.7,0.1-1.1c17.1,3.9,30.8-0.9,38-7.7c-4.9,1.3-12.3,1.5-19.7,0.7
		c-11.9,3.2-21.5,5.9-21.5,5.9L107.1,58.2z"/>
	<path fill="#DAB627" d="M73.3,71.8c-3.9,6.7-8.8,12.4-13.3,15.7c-5-0.8-9-1.7-12.2-2.5l-2.2,6.3c2.7,2.5,6.2,4.8,10.6,5.4l14.3-3.4
		c3.1-1.8,6.5-4.3,10.1-7.8c-0.5,1.9-1.2,3.9-2,5.9l14.3-3.4L73.3,71.8z"/>
	<path fill="#0E6F7A" d="M61.7,75.3C62,71,63,67.4,64.4,64.5l-3.5-2.9C60.2,65.4,60.3,70,61.7,75.3z"/>
	<path fill="#DAB627" d="M70.5,93.2l-14.3,3.4C60.2,97.1,65,96.3,70.5,93.2z"/>
	<path fill="#7E2B18" d="M78.6,91.3c-1.3,3.3-3,6.6-5,9.7l19.3-13.1L78.6,91.3z"/>
	<path fill="#0E6F7A" d="M64.4,64.5c1.3-2.8,3-5,4.8-6.7l-7.5,0.4c-0.4,1.1-0.7,2.2-0.9,3.4L64.4,64.5z"/>
	<path fill="#48A247" d="M73.3,71.8l19.6,16.1l11.2-31.8l-25,1.2C78,62.3,75.9,67.2,73.3,71.8z"/>
	<path fill="#5F4E1F" d="M38.9,82c0,0,2.2,5,6.6,9.2l2.2-6.3C41.8,83.4,38.9,82,38.9,82z"/>
	<path fill="#148698" d="M109.8,37.8c0.8-3.6,0-7.1-1.7-9.7L105.6,45C107.6,43.2,109.2,40.7,109.8,37.8z"/>
	<path fill="#1CAAB8" d="M125.2,50.1c-7.7-0.8-15.2-2.6-19.6-5.1l-1.6,11.1L125.2,50.1z"/>
	<path fill="#148698" d="M79.7,52.6c-0.1,1.6-0.3,3.1-0.7,4.7l25-1.2L89.6,30.7c-0.4,0.8-0.7,1.7-0.9,2.7c-0.8,3.7,0,7.2,1.8,9.9
		c-0.7-0.7-1.3-1.5-1.7-2.6c0,0-21.6,1.5-27.1,17.5l7.5-0.4C72.7,54.5,76.7,53.1,79.7,52.6z"/>
	<polygon fill="#D2E0EB" points="105.6,45 105.6,45 105.6,45 	"/>
	<path fill="#035A60" d="M105.6,45L105.6,45L105.6,45l2.4-16.9c-1.5-2.2-3.6-3.8-6.3-4.4c-5-1.1-9.9,2-12.1,7l14.4,25.4L105.6,45z"
		/>
</g>
</svg>
