<?xml version="1.0" encoding="utf-8"?>
<!-- Generator: Adobe Illustrator 18.1.0, SVG Export Plug-In . SVG Version: 6.00 Build 0)  -->
<svg version="1.0" id="Layer_1" xmlns="http://www.w3.org/2000/svg" xmlns:xlink="http://www.w3.org/1999/xlink" x="0px" y="0px"
	 viewBox="0 0 150 150" enable-background="new 0 0 150 150" xml:space="preserve">
<g>
	<g>
		<path fill="#EF5223" d="M8,74.1C8,36.7,38.3,6.4,75.7,6.4l0,0c37.4,0,67.7,30.3,67.7,67.7l0,0c0,37.4-30.3,67.7-67.7,67.7l0,0
			C38.3,141.8,8,111.5,8,74.1L8,74.1z M18.6,74.1c0.1,31.5,25.6,57,57.1,57.1l0,0c31.5-0.1,57-25.6,57.1-57.1l0,0
			c-0.1-31.5-25.6-57-57.1-57.1l0,0C44.2,17.1,18.7,42.6,18.6,74.1L18.6,74.1L18.6,74.1z"/>
	</g>
	<g>
		<polygon fill-rule="evenodd" clip-rule="evenodd" fill="#FFFFFF" points="27.7,39.2 25.6,37.7 23.4,39.2 24.3,36.7 22.1,35.1 
			24.8,35.1 25.6,32.6 26.4,35.1 29.1,35.1 26.9,36.7 		"/>
	</g>
	<g>
		<polygon fill-rule="evenodd" clip-rule="evenodd" fill="#FFFFFF" points="22.7,47.1 20.5,45.5 18.4,47.1 19.2,44.6 17.1,43 
			19.7,43 20.5,40.5 21.3,43 24,43 21.9,44.6 		"/>
	</g>
	<g>
		<polygon fill-rule="evenodd" clip-rule="evenodd" fill="#FFFFFF" points="19.1,55.6 17,54.1 14.8,55.6 15.6,53.1 13.5,51.5 
			16.1,51.5 17,49 17.8,51.5 20.4,51.5 18.3,53.1 		"/>
	</g>
	<g>
		<polygon fill-rule="evenodd" clip-rule="evenodd" fill="#FFFFFF" points="16.4,65.5 14.3,63.9 12.1,65.5 12.9,63 10.8,61.4 
			13.5,61.4 14.3,58.9 15.1,61.4 17.7,61.4 15.6,63 		"/>
	</g>
	<g>
		<polygon fill-rule="evenodd" clip-rule="evenodd" fill="#FFFFFF" points="15.6,75.3 13.4,73.8 11.3,75.3 12.1,72.8 10,71.3 
			12.6,71.3 13.4,68.7 14.2,71.3 16.9,71.3 14.7,72.8 		"/>
	</g>
	<g>
		<polygon fill-rule="evenodd" clip-rule="evenodd" fill="#FFFFFF" points="34.3,32.3 32.2,30.8 30,32.3 30.9,29.8 28.7,28.3 
			31.4,28.3 32.2,25.7 33,28.3 35.7,28.3 33.5,29.8 		"/>
	</g>
	<g>
		<polygon fill-rule="evenodd" clip-rule="evenodd" fill="#FFFFFF" points="41.5,26.1 39.4,24.5 37.2,26.1 38,23.6 35.9,22 38.5,22 
			39.4,19.5 40.2,22 42.8,22 40.7,23.6 		"/>
	</g>
	<g>
		<polygon fill-rule="evenodd" clip-rule="evenodd" fill="#FFFFFF" points="49.3,21.3 47.2,19.7 45,21.3 45.8,18.7 43.7,17.2 
			46.3,17.2 47.2,14.7 48,17.2 50.6,17.2 48.5,18.7 		"/>
	</g>
	<g>
		<polygon fill-rule="evenodd" clip-rule="evenodd" fill="#FFFFFF" points="58.2,17.8 56.1,16.2 54,17.8 54.8,15.2 52.6,13.7 
			55.3,13.7 56.1,11.2 56.9,13.7 59.6,13.7 57.4,15.2 		"/>
	</g>
	<g>
		<polygon fill-rule="evenodd" clip-rule="evenodd" fill="#FFFFFF" points="68,15.7 65.9,14.2 63.7,15.7 64.6,13.2 62.4,11.7 
			65.1,11.7 65.9,9.1 66.7,11.7 69.3,11.7 67.2,13.2 		"/>
	</g>
	<g>
		<polygon fill-rule="evenodd" clip-rule="evenodd" fill="#FFFFFF" points="78.2,14.6 76.1,13 73.9,14.6 74.7,12.1 72.6,10.5 
			75.3,10.5 76.1,8 76.9,10.5 79.5,10.5 77.4,12.1 		"/>
	</g>
	<g>
		<polygon fill-rule="evenodd" clip-rule="evenodd" fill="#FFFFFF" points="123.8,39.2 125.9,37.7 128,39.2 127.2,36.7 129.4,35.1 
			126.7,35.1 125.9,32.6 125.1,35.1 122.4,35.1 124.6,36.7 		"/>
	</g>
	<g>
		<polygon fill-rule="evenodd" clip-rule="evenodd" fill="#FFFFFF" points="128.8,47.1 131,45.5 133.1,47.1 132.3,44.6 134.4,43 
			131.8,43 131,40.5 130.1,43 127.5,43 129.6,44.6 		"/>
	</g>
	<g>
		<polygon fill-rule="evenodd" clip-rule="evenodd" fill="#FFFFFF" points="132.4,55.6 134.5,54.1 136.7,55.6 135.9,53.1 138,51.5 
			135.4,51.5 134.5,49 133.7,51.5 131.1,51.5 133.2,53.1 		"/>
	</g>
	<polygon fill-rule="evenodd" clip-rule="evenodd" fill="#FFFFFF" points="135.1,65.5 137.2,63.9 139.4,65.5 138.5,63 140.7,61.4 
		138,61.4 137.2,58.9 136.4,61.4 133.8,61.4 135.9,63 	"/>
	<polygon fill-rule="evenodd" clip-rule="evenodd" fill="#FFFFFF" points="135.9,75.3 138.1,73.8 140.2,75.3 139.4,72.8 141.5,71.3 
		138.9,71.3 138.1,68.7 137.3,71.3 134.6,71.3 136.7,72.8 	"/>
	<g>
		<polygon fill-rule="evenodd" clip-rule="evenodd" fill="#FFFFFF" points="117.2,32.3 119.3,30.8 121.4,32.3 120.6,29.8 
			122.8,28.3 120.1,28.3 119.3,25.7 118.5,28.3 115.8,28.3 118,29.8 		"/>
	</g>
	<g>
		<polygon fill-rule="evenodd" clip-rule="evenodd" fill="#FFFFFF" points="110,26.1 112.1,24.5 114.3,26.1 113.5,23.6 115.6,22 
			113,22 112.1,19.5 111.3,22 108.7,22 110.8,23.6 		"/>
	</g>
	<g>
		<polygon fill-rule="evenodd" clip-rule="evenodd" fill="#FFFFFF" points="102.2,21.3 104.3,19.7 106.5,21.3 105.6,18.7 
			107.8,17.2 105.1,17.2 104.3,14.7 103.5,17.2 100.9,17.2 103,18.7 		"/>
	</g>
	<g>
		<polygon fill-rule="evenodd" clip-rule="evenodd" fill="#FFFFFF" points="93.3,17.8 95.4,16.2 97.5,17.8 96.7,15.2 98.9,13.7 
			96.2,13.7 95.4,11.2 94.6,13.7 91.9,13.7 94.1,15.2 		"/>
	</g>
	<g>
		<polygon fill-rule="evenodd" clip-rule="evenodd" fill="#FFFFFF" points="83.5,15.7 85.6,14.2 87.8,15.7 86.9,13.2 89.1,11.7 
			86.4,11.7 85.6,9.1 84.8,11.7 82.1,11.7 84.3,13.2 		"/>
	</g>
	<g>
		<polygon fill-rule="evenodd" clip-rule="evenodd" fill="#FFFFFF" points="16.4,86.9 14.3,85.4 12.1,86.9 12.9,84.4 10.8,82.9 
			13.5,82.9 14.3,80.3 15.1,82.9 17.7,82.9 15.6,84.4 		"/>
	</g>
	<g>
		<polygon fill-rule="evenodd" clip-rule="evenodd" fill="#FFFFFF" points="18.5,96.9 16.4,95.4 14.2,96.9 15,94.4 12.9,92.9 
			15.5,92.9 16.4,90.3 17.2,92.9 19.8,92.9 17.7,94.4 		"/>
	</g>
	<g>
		<polygon fill-rule="evenodd" clip-rule="evenodd" fill="#FFFFFF" points="27.7,114.1 25.6,112.6 23.4,114.1 24.3,111.6 22.1,110 
			24.8,110 25.6,107.5 26.4,110 29.1,110 26.9,111.6 		"/>
	</g>
	<g>
		<polygon fill-rule="evenodd" clip-rule="evenodd" fill="#FFFFFF" points="22.7,105.9 20.5,104.3 18.4,105.9 19.2,103.4 
			17.1,101.8 19.7,101.8 20.5,99.3 21.3,101.8 24,101.8 21.9,103.4 		"/>
	</g>
	<g>
		<polygon fill-rule="evenodd" clip-rule="evenodd" fill="#FFFFFF" points="34.3,121.6 32.2,120 30,121.6 30.9,119 28.7,117.5 
			31.4,117.5 32.2,115 33,117.5 35.7,117.5 33.5,119 		"/>
	</g>
	<g>
		<polygon fill-rule="evenodd" clip-rule="evenodd" fill="#FFFFFF" points="41.5,127.6 39.4,126.1 37.2,127.6 38,125.1 35.9,123.6 
			38.5,123.6 39.4,121 40.2,123.6 42.8,123.6 40.7,125.1 		"/>
	</g>
	<g>
		<polygon fill-rule="evenodd" clip-rule="evenodd" fill="#FFFFFF" points="49.3,132.5 47.2,131 45,132.5 45.8,130 43.7,128.5 
			46.3,128.5 47.2,125.9 48,128.5 50.6,128.5 48.5,130 		"/>
	</g>
	<g>
		<polygon fill-rule="evenodd" clip-rule="evenodd" fill="#FFFFFF" points="58.2,136.2 56.1,134.6 54,136.2 54.8,133.7 52.6,132.1 
			55.3,132.1 56.1,129.6 56.9,132.1 59.6,132.1 57.4,133.7 		"/>
	</g>
	<g>
		<polygon fill-rule="evenodd" clip-rule="evenodd" fill="#FFFFFF" points="68,138.7 65.9,137.2 63.7,138.7 64.6,136.2 62.4,134.7 
			65.1,134.6 65.9,132.1 66.7,134.6 69.3,134.7 67.2,136.2 		"/>
	</g>
	<g>
		<polygon fill-rule="evenodd" clip-rule="evenodd" fill="#FFFFFF" points="134.9,86.9 137,85.4 139.2,86.9 138.3,84.4 140.5,82.9 
			137.8,82.9 137,80.3 136.2,82.9 133.5,82.9 135.7,84.4 		"/>
	</g>
	<g>
		<polygon fill-rule="evenodd" clip-rule="evenodd" fill="#FFFFFF" points="132.8,96.9 134.9,95.4 137.1,96.9 136.3,94.4 
			138.4,92.9 135.7,92.9 134.9,90.3 134.1,92.9 131.5,92.9 133.6,94.4 		"/>
	</g>
	<g>
		<polygon fill-rule="evenodd" clip-rule="evenodd" fill="#FFFFFF" points="123.6,114.1 125.7,112.6 127.8,114.1 127,111.6 
			129.2,110 126.5,110 125.7,107.5 124.9,110 122.2,110 124.4,111.6 		"/>
	</g>
	<g>
		<polygon fill-rule="evenodd" clip-rule="evenodd" fill="#FFFFFF" points="128.6,105.9 130.8,104.3 132.9,105.9 132.1,103.4 
			134.2,101.8 131.6,101.8 130.8,99.3 129.9,101.8 127.3,101.8 129.4,103.4 		"/>
	</g>
	<g>
		<polygon fill-rule="evenodd" clip-rule="evenodd" fill="#FFFFFF" points="117,121.6 119.1,120 121.2,121.6 120.4,119 122.6,117.5 
			119.9,117.5 119.1,115 118.3,117.5 115.6,117.5 117.8,119 		"/>
	</g>
	<g>
		<polygon fill-rule="evenodd" clip-rule="evenodd" fill="#FFFFFF" points="109.8,127.6 111.9,126.1 114.1,127.6 113.2,125.1 
			115.4,123.6 112.7,123.6 111.9,121 111.1,123.6 108.5,123.6 110.6,125.1 		"/>
	</g>
	<g>
		<polygon fill-rule="evenodd" clip-rule="evenodd" fill="#FFFFFF" points="102,132.5 104.1,131 106.3,132.5 105.4,130 107.6,128.5 
			104.9,128.5 104.1,125.9 103.3,128.5 100.6,128.5 102.8,130 		"/>
	</g>
	<g>
		<polygon fill-rule="evenodd" clip-rule="evenodd" fill="#FFFFFF" points="93,136.2 95.2,134.6 97.3,136.2 96.5,133.7 98.7,132.1 
			96,132.1 95.2,129.6 94.4,132.1 91.7,132.1 93.9,133.7 		"/>
	</g>
	<g>
		<polygon fill-rule="evenodd" clip-rule="evenodd" fill="#FFFFFF" points="83.3,138.7 85.4,137.2 87.5,138.7 86.7,136.2 
			88.9,134.7 86.2,134.6 85.4,132.1 84.6,134.6 81.9,134.7 84.1,136.2 		"/>
	</g>
	<g>
		<polygon fill-rule="evenodd" clip-rule="evenodd" fill="#FFFFFF" points="77.8,139.3 75.6,137.8 73.5,139.3 74.3,136.8 
			72.1,135.2 74.8,135.2 75.6,132.7 76.4,135.2 79.1,135.2 76.9,136.8 		"/>
	</g>
	<path fill="#54433C" d="M91.7,84.5c0-5.7,2.5-10.8,6.4-14.3l-1.6-2.3c-4.7,4-7.6,10-7.6,16.6c0,2.5,0.4,4.9,1.2,7.1
		c0.7,2.4-1.4,3.6-1.4,3.6c-1.6-3.2-2.4-6.8-2.4-10.7c0-7.5,3.4-14.3,8.8-18.8l-0.8-1.1l-4.5-8.8c-0.6-0.9-0.3-2.2,0.6-2.8
		c0.9-0.6,2.2-0.3,2.8,0.6l6,7.8l0.7,1.2c3.3-1.7,7-2.6,11-2.6c5.6,0,10.7,1.9,14.9,5c0,0-1,2.1-3.8,0.7c-3.3-1.9-7.1-3-11.1-3
		c-3.4,0-6.7,0.8-9.6,2.3l7.2,12.1c0.7-0.2,1.5-0.3,2.3-0.3c4.4,0,8,3.6,8,8c0,4.4-3.6,8-8,8c-4.4,0-8-3.6-8-8
		c0-1.9,0.7-3.7,1.8-5.1l-2.9-4.1c-2.4,2.4-3.9,5.6-3.9,9.2c0,7.2,5.8,12.9,13,13c7.1,0,12.9-5.8,13-13c0-7.2-5.8-12.9-13-13
		c-0.8,0-1.6,0.1-2.4,0.2l-3.3-5.5c1.8-0.6,3.7-0.9,5.7-0.9c7.8,0,14.5,4.7,17.5,11.5c0.1-0.9,0.1-1.9,0.1-2.8
		c0-28.9-23.4-52.4-52.4-52.4c-22,0-40.8,13.6-48.5,32.7h2.7c0.7,0,1.4,0.6,1.4,1.4c0,0.7-0.6,1.3-1.4,1.3h-3.7
		c-0.3,0.8-0.6,1.7-0.8,2.6c0.3,0,0.6-0.1,0.9-0.1c6.5,0,12.4,2.6,16.8,6.7l-2.7,1.1c-3.8-3.2-8.7-5.2-14.1-5.2
		c-0.5,0-1.1,0-1.6,0.1c-0.2,1-0.4,2-0.6,3c0.8-0.1,1.5-0.1,2.3-0.2c4.1,0,7.8,1.3,10.9,3.5l-7.8,3.1c-1-0.3-2.1-0.4-3.1-0.4
		c-1,0-2,0.1-3,0.4c0,0.8-0.1,1.6-0.1,2.4c0,1,0.1,1.9,0.1,2.9c0.1,0,0.2-0.1,0.3-0.1l0,0l46.5-18.5l0.1,0c1.4-0.4,2.8-0.6,4-0.6
		c3.1,0,5.7,1.3,7.4,3.2c1.7,1.9,2.6,4.4,2.6,7c0,0.5,0,1-0.1,1.6L83,80.9c-0.7-0.6-1.5-1-2.4-1.4l1.6-10.7c0.1-0.4,0.1-0.8,0.1-1.2
		c0-1.1-0.2-2.1-0.6-3.1h-20L47,70.4c1.7,2.5,2.9,5.4,3.6,8.4l7.5,0c-0.8,0.9-1.2,2.1-1.2,3.4c0,1.6,0.7,3,1.8,3.9l-8.8,0
		c-0.5,0-0.9-0.3-1.1-0.7h-2.9c-0.1,1.3-0.3,2.5-0.6,3.7h-6.5c0.5-1.2,0.8-2.4,0.9-3.7h-5.1c-0.2,1.4-0.8,2.7-1.7,3.7h-4.3
		c1.6-0.6,2.9-2,3.3-3.7h-3c-0.4,0.8-1.2,1.3-2.1,1.3h-0.2c-0.6,0-1.1-0.3-1.5-0.6c0.5,1.9,1,3.8,1.7,5.6H48c1.4,0,2.5,0.8,3,2h25.9
		c2.8,0,5.1-2.3,5.1-5.1c0-2.7-2.1-4.9-4.8-5.1c-0.4,0.7-1.2,1.2-2.1,1.3c-1.3,1.5-3.7,2.5-6.4,2.5c-2.7,0-5.1-1-6.4-2.4h0
		c-1.5,0-2.7-1.2-2.7-2.7c0-1.5,1.2-2.7,2.7-2.7h0c1.3-1.5,3.7-2.4,6.4-2.4c2.7,0,5.1,1,6.4,2.5c0.9,0.1,1.6,0.5,2.1,1.2
		c4.1,0.4,7.5,3.8,7.5,8c0,4.2-3.4,7.6-7.6,7.6H51c-0.5,1.2-1.7,2-3,2h-8.3c-2.1,1.9-4.7,3.4-7.5,4.2c9.3,14.3,25.5,23.8,43.9,23.8
		c19.2,0,36-10.4,45.1-25.9c-3,2-6.6,3.1-10.4,3.1C100.3,103.5,91.7,95,91.7,84.5z M109.4,52.1c4-0.2,7.9,0.4,11.7,1.5
		c0.9,0.3,1.4,1.3,1,2.2c-0.2,0.5-0.4,1.1-0.6,1.6c-0.3,0.9-1.2,1.4-2,1.1c-3.2-1-6.6-1.4-10-1.3c-0.8,0-1.5-0.7-1.6-1.6
		c0-0.6-0.1-1.1-0.1-1.7C107.8,53,108.5,52.2,109.4,52.1z M101.9,43.5L101.9,43.5L101.9,43.5L101.9,43.5c1,0.1,1.8,2.9,1.8,6.3
		c0,3.5-0.8,6.3-1.8,6.3l0,0c0,0,0,0,0,0h0h0c-1.3,0-2.5-0.1-3.6-0.4l-3.1-3.9c-0.9-1.3-2.3-2.1-3.9-2.1c-0.1,0-0.1,0-0.2,0
		C91.2,46.4,96,43.5,101.9,43.5z M75.1,89.2c2.5,0,2.8-1.2,3.2-2c0.6,0.4,1.1,1.2,1.1,2c0,1.4-1.1,2.5-2.5,2.5H52.8
		c-1-1.4-2.5-2.4-4.3-2.6C58.8,89.2,71.4,89.2,75.1,89.2z M79.6,68.5l-1.4,9.7c-0.6-0.5-1.2-0.8-2-1c-1.9-1.7-4.7-2.6-7.7-2.6
		c-2.9,0-5.7,0.9-7.6,2.6c-0.1,0-0.1,0-0.2,0.1c0-3.1,0-8.7,0-8.7c0-0.7,0.6-1.3,1.3-1.3h17.5c0,0.2,0,0.4,0.1,0.6
		C79.7,67.9,79.7,68.2,79.6,68.5z M77.3,45.6l6.1,0c0.1,0,0.2,0,0.3,0c0.8,0,3.2,0.3,4.6,2.7c0.4,0.6,0.2,1.4-0.4,1.8
		c-0.2,0.1-0.4,0.2-0.7,0.2c-0.4,0-0.9-0.2-1.1-0.6c-0.8-1.4-2-1.4-2.4-1.5c-0.1,0-0.1,0-0.1,0l-0.1,0h-6.3l0,0
		c-0.7,0-1.3-0.6-1.3-1.3C76.1,46.2,76.6,45.6,77.3,45.6z M48.8,63.2c-3.5,0-5.8-2-8-2.7c-2.6-0.9-4.6-1.2-4.6-1.2
		c-1.4,0-1.9-0.8-1.9-1.7c0-0.9,0.9-1.7,1.7-1.7h19.4c0.8,0,1.5,0.7,1.5,1.5C56.9,58.3,54,63.2,48.8,63.2z M84.1,59
		c-2.3-2.6-5.6-4-9.3-4c-1.5,0-3.2,0.2-4.8,0.7l-0.2,0.1l-0.1,0l-12.2,4.9c0,0,20.6-18.2,29-5.5c1.7,3.7,1.3,6.7,0.3,8.8
		C86.4,62.1,85.4,60.4,84.1,59z"/>
</g>
</svg>
