<?xml version="1.0" encoding="utf-8"?>
<!-- Generator: Adobe Illustrator 18.1.0, SVG Export Plug-In . SVG Version: 6.00 Build 0)  -->
<svg version="1.0" id="Layer_1" xmlns="http://www.w3.org/2000/svg" xmlns:xlink="http://www.w3.org/1999/xlink" x="0px" y="0px"
	 viewBox="0 0 150 150" enable-background="new 0 0 150 150" xml:space="preserve">
<g>
	<path d="M103.6,128.6l-0.8,0.1l-2.8,0.2c-1.1,1.6-2.3,3-3.8,4.3c-1.2,0.9-2.4,1.6-3.7,2.2c-10.9,4.1-23.2,0.2-35.3-8.6
		c-8.2-5.9-16.3-14-23.7-23.6c-5.4-7.2-9.7-14.6-12.9-21.8c-1.1-2.6-2.1-5.2-3-7.8C12.2,58.2,11.7,44,21,35.1
		c0.1-0.1,0.1-0.1,0.2-0.2c-0.5,0.3-1.1,0.3-1.5,0.6c0.4-0.3,0.8-0.7,1.1-1c0.4-0.3,0.9-0.4,1.3-0.7c0.3-0.3,0.6-0.8,0.9-1
		c0.4-0.3,0.8-0.6,1.2-0.9c-0.4,0.3-0.6,0.9-0.9,1.3c0.8-0.5,1.6-1.1,2.4-1.5c5.8-2.2,12-1.8,18.3,0.1c0.6-0.4,1.1-0.7,1.7-1.1
		c0.4-0.3,0.9-0.6,1.3-0.8c-11.7-5.9-22.4-7.1-29.3-1.8c-14.3,11-7.3,44.7,15.5,75.3c22.9,30.6,53,46.5,67.2,35.5
		c3.6-2.8,5.8-7,6.8-12.2c-0.9,0.5-2,1.1-2.8,1.5L103.6,128.6z"/>
	<path d="M20.8,34.6c-0.4,0.3-0.8,0.6-1.1,1c0.5-0.3,1-0.4,1.5-0.6c0.3-0.3,0.5-0.7,0.9-1C21.6,34.2,21.1,34.2,20.8,34.6z"/>
	
		<radialGradient id="SVGID_1_" cx="-2553.6716" cy="647.3171" r="84.1862" gradientTransform="matrix(0.6186 0.8289 -0.7939 0.6107 2177.3315 1801.902)" gradientUnits="userSpaceOnUse">
		<stop  offset="0" style="stop-color:#FFFFFF"/>
		<stop  offset="1" style="stop-color:#231F20"/>
	</radialGradient>
	<path fill="url(#SVGID_1_)" d="M20.8,34.6c-0.4,0.3-0.8,0.6-1.1,1c0.5-0.3,1-0.4,1.5-0.6c0.3-0.3,0.5-0.7,0.9-1
		C21.6,34.2,21.1,34.2,20.8,34.6z"/>
	
		<radialGradient id="SVGID_2_" cx="-2690.6814" cy="629.0282" r="55.2882" gradientTransform="matrix(0.57 0.7638 -0.7939 0.6107 2121.729 1727.5826)" gradientUnits="userSpaceOnUse">
		<stop  offset="0" style="stop-color:#FFFFFF"/>
		<stop  offset="1" style="stop-color:#FFFFFF"/>
	</radialGradient>
	<path fill="url(#SVGID_2_)" d="M20.8,34.6c-0.4,0.3-0.8,0.6-1.1,1c0.5-0.3,1-0.4,1.5-0.6c0.3-0.3,0.5-0.7,0.9-1
		C21.6,34.2,21.1,34.2,20.8,34.6z"/>
	<path d="M23,32.8c-0.4,0.3-0.6,0.7-0.9,1c0.2-0.1,0.5-0.2,0.7-0.3c0.2-0.1,0.4-0.2,0.5-0.3c0.4-0.4,0.6-0.9,0.9-1.3
		C23.8,32.3,23.4,32.5,23,32.8z"/>
	
		<radialGradient id="SVGID_3_" cx="-2552.0962" cy="647.7045" r="85.6652" gradientTransform="matrix(0.6186 0.8289 -0.7939 0.6107 2177.3315 1801.902)" gradientUnits="userSpaceOnUse">
		<stop  offset="0" style="stop-color:#FFFFFF"/>
		<stop  offset="1" style="stop-color:#231F20"/>
	</radialGradient>
	<path fill="url(#SVGID_3_)" d="M23,32.8c-0.4,0.3-0.6,0.7-0.9,1c0.2-0.1,0.5-0.2,0.7-0.3c0.2-0.1,0.4-0.2,0.5-0.3
		c0.4-0.4,0.6-0.9,0.9-1.3C23.8,32.3,23.4,32.5,23,32.8z"/>
	
		<radialGradient id="SVGID_4_" cx="767.2676" cy="-4504.7466" r="56.3093" gradientTransform="matrix(-0.57 -0.7638 0.7939 -0.6107 4042.2231 -2056.3501)" gradientUnits="userSpaceOnUse">
		<stop  offset="0" style="stop-color:#FFFFFF"/>
		<stop  offset="1" style="stop-color:#FFFFFF"/>
	</radialGradient>
	<path fill="url(#SVGID_4_)" d="M23,32.8c-0.4,0.3-0.6,0.7-0.9,1c0.2-0.1,0.5-0.2,0.7-0.3c0.2-0.1,0.4-0.2,0.5-0.3
		c0.4-0.4,0.6-0.9,0.9-1.3C23.8,32.3,23.4,32.5,23,32.8z"/>
	<path d="M22.7,33.5c-0.2,0.1-0.5,0.2-0.7,0.3c-0.3,0.3-0.6,0.7-0.9,1c0.3-0.3,0.5-0.6,0.8-0.9C22.2,33.8,22.5,33.7,22.7,33.5z"/>
	
		<radialGradient id="SVGID_5_" cx="-2549.7571" cy="647.6668" r="88.2011" gradientTransform="matrix(0.6186 0.8289 -0.7939 0.6107 2177.3315 1801.902)" gradientUnits="userSpaceOnUse">
		<stop  offset="0" style="stop-color:#FFFFFF"/>
		<stop  offset="1" style="stop-color:#231F20"/>
	</radialGradient>
	<path fill="url(#SVGID_5_)" d="M22.7,33.5c-0.2,0.1-0.5,0.2-0.7,0.3c-0.3,0.3-0.6,0.7-0.9,1c0.3-0.3,0.5-0.6,0.8-0.9
		C22.2,33.8,22.5,33.7,22.7,33.5z"/>
	
		<radialGradient id="SVGID_6_" cx="-2688.4209" cy="629.3935" r="56.5327" gradientTransform="matrix(0.57 0.7638 -0.7939 0.6107 2121.729 1727.5826)" gradientUnits="userSpaceOnUse">
		<stop  offset="0" style="stop-color:#FFFFFF"/>
		<stop  offset="1" style="stop-color:#FFFFFF"/>
	</radialGradient>
	<path fill="url(#SVGID_6_)" d="M22.7,33.5c-0.2,0.1-0.5,0.2-0.7,0.3c-0.3,0.3-0.6,0.7-0.9,1c0.3-0.3,0.5-0.6,0.8-0.9
		C22.2,33.8,22.5,33.7,22.7,33.5z"/>
	
		<radialGradient id="SVGID_7_" cx="766.8784" cy="-4504.7305" r="56.559" gradientTransform="matrix(-0.57 -0.7638 0.7939 -0.6107 4042.2231 -2056.3501)" gradientUnits="userSpaceOnUse">
		<stop  offset="0" style="stop-color:#FFFFFF"/>
		<stop  offset="1" style="stop-color:#FFFFFF"/>
	</radialGradient>
	<path fill="url(#SVGID_7_)" d="M22.7,33.5c-0.2,0.1-0.5,0.2-0.7,0.3c-0.3,0.3-0.6,0.7-0.9,1c0.3-0.3,0.5-0.6,0.8-0.9
		C22.2,33.8,22.5,33.7,22.7,33.5z"/>
	<path fill="#249A9A" d="M22,34c-0.3,0.3-0.5,0.6-0.8,0.9c-0.1,0.1-0.1,0.1-0.2,0.2c-11.4,12.3-6,41.2,13.3,67
		c20.4,27.4,48.4,40.7,62.5,29.8c0.4-0.3,0.8-0.6,1.2-1c-14.5,9.2-41.5-4.1-61.3-30.7c-7.9-10.6-13.4-21.7-16.4-32
		c-0.2-0.3-0.4-0.6-0.6-1l0.1-1.1c-3.7-13.8-2.8-26,3.5-32.9c-0.2,0.1-0.4,0.2-0.5,0.3C22.5,33.7,22.2,33.8,22,34z"/>
	<path fill="#249A9A" d="M82.8,51.6C73,58.8,64,65.2,44.7,77.5c-8.9,5.6-11.7,7.2-11.7,8v0c1,2.1,2.8,5,4.2,7.1c0.9-0.9,1-1,6.6-4.6
		c13.8-8.8,28.6-18.5,43.7-29.7C86.1,56.2,84.2,53.6,82.8,51.6z"/>
	<path fill="#249A9A" d="M24.6,47.1c-0.1,2.4-0.1,5.5-0.1,7.9c0.9-0.7,0.9-0.7,4.6-2.8c6.7-3.9,22.4-13.1,39.2-25.4
		c-0.8-1.8-1.8-4.2-2.5-6.1c-9.1,6.6-20.1,14.2-38.3,24.6C24.8,46.9,24.8,46.9,24.6,47.1z"/>
	<path d="M138.7,74.8c-5.5,1.2-6.3,1.4-10.1,2.3c1.1,1.7,2.6,4,3.7,5.7c-6,4.9-21.9,18.1-52.7,35.9c-3.4,1.9-3.5,2-3.7,2.3
		c2.2,0.6,5.1,1.4,7.3,1.8c0.5-0.4,0.5-0.4,3.1-1.9c28.2-16,43.2-28.4,48.8-33.1c0.8,1.5,1.7,3.4,2.4,4.9c2.6-4.6,3.6-6.6,5.1-9.6
		c2.9-5.9,3.2-6.6,4.8-10.5C142.8,73.8,142,74,138.7,74.8z"/>
	<path d="M31.9,62c-5.1,3-5.8,3.5-6,3.9l0.2,1.1c0.5,2.1,1.2,4.8,1.8,6.9c1-1,1.1-1,6.8-4.6c11.4-7,35.1-21.6,56.6-39.1
		c1.5,1.9,3.6,4.4,5.1,6.2c1.9-5.7,2.5-7.6,3.2-10.8c1.4-6,1.5-6.5,1.9-10c-5.7,1-6.2,1.1-9.7,1.7c-5.7,0.8-6.2,0.9-9.7,1.3
		c1.4,1.7,3.1,4.1,4.5,5.8C67.1,40.2,48.8,51.8,31.9,62z"/>
	<path d="M49.8,97.2c-5.1,3.2-5.7,3.6-5.8,3.9c1.7,1.7,4,3.9,5.7,5.5c0.9-0.8,0.9-0.8,6.2-4c24.8-15.1,44.5-29,60.1-42.4
		c1.5,2,3.5,4.6,5.1,6.6c2.3-6.2,3-8.1,4.1-12c2-7.1,2.2-7.7,3.2-12c-6.2,1.3-7,1.5-11.1,2.2c-6.9,1.3-7.4,1.4-11.8,2.1
		c1.6,2,3.8,4.6,5.4,6.6C86.3,74.6,60.7,90.4,49.8,97.2z"/>
	<path fill="#249A9A" d="M95.5,123.3c-1,0.5-1,0.5-1.2,0.7l4.2,0.1l2.9-0.1c5.7-2.8,17-9.5,26.7-16.2c-0.7-1-1.6-2.3-2.4-3.2
		C121.5,107.4,110.5,115.1,95.5,123.3z"/>
	<path fill="#249A9A" d="M59.3,113.5l2.2,1.3l4.6,2.4c0.7-0.6,0.7-0.6,3.7-2.4c16.3-9.6,27.2-16.6,41.6-27c-1.4-1.6-3.3-3.8-4.7-5.4
		c-10.3,7.4-22,15.6-41.8,27.5C60,113,59.6,113.2,59.3,113.5z"/>
</g>
</svg>
