<?xml version="1.0" encoding="utf-8"?>
<!-- Generator: Adobe Illustrator 18.1.0, SVG Export Plug-In . SVG Version: 6.00 Build 0)  -->
<svg version="1.0" id="Layer_1" xmlns="http://www.w3.org/2000/svg" xmlns:xlink="http://www.w3.org/1999/xlink" x="0px" y="0px"
	 viewBox="0 0 150 150" enable-background="new 0 0 150 150" xml:space="preserve">
<g>
	<path fill="#194680" d="M22.4,81.3c4.7-12.6,13.1-21.6,22.3-28.7c19.5-15,39.1-20,58.7-17.5c20.7,2.7,30.9,17,26.6,29.5
		c-6-9.1-18.6-13.6-29-14.2c-14.5-0.8-32.2,3.2-48.5,13.6c-14.8,9.5-31.9,28.6-27.8,49.5c0.3,0.5,0.7,0.9,1,1.4
		C26,95,45.2,78.4,58,71.2c18.8-10.4,53.2-17.6,70.9-5.5c6.8,4.7,10.6,10.4,11.6,17.1c0.3-2.4,0.4-4.9,0.4-7.4
		c0-35.6-28.8-64.4-64.4-64.4c-31.5,0-57.7,22.6-63.3,52.4C21.2,37.2,51.8,15.1,90,23.6c-17.8,0.9-35.7,6.9-51.9,18.8
		c-9.7,7.2-22.1,22-25.9,36.9c0.6,10.5,3.8,20.3,8.8,28.8C18.9,99,19.4,89.2,22.4,81.3z"/>
	<path fill="#E99623" d="M126.2,83c-14.6-9.8-35.5-8.1-53.8-2.2c-2.4,0.8-4.8,1.6-7.1,2.6c-16.9,6.8-35.4,22.3-34.3,37.7
		c11.6,11.6,27.7,18.8,45.4,18.8c26,0,48.4-15.4,58.6-37.6C135.1,94.1,131.6,86.6,126.2,83z"/>
</g>
</svg>
