<?xml version="1.0" encoding="utf-8"?>
<!-- Generator: Adobe Illustrator 18.1.0, SVG Export Plug-In . SVG Version: 6.00 Build 0)  -->
<svg version="1.1" id="Layer_1" xmlns="http://www.w3.org/2000/svg" xmlns:xlink="http://www.w3.org/1999/xlink" x="0px" y="0px"
	 viewBox="0 0 150 150" enable-background="new 0 0 150 150" xml:space="preserve">
<g>
	<g>
		<path fill="none" d="M118.2,32.9c3.1-1.1,6.9,0.4,6.7,4.1c1.1-4.4-3.8-6.3-7.5-4.7c-1.1,0.5-2.2,1.3-2.9,2.4
			c0.1,0.3,0.1,0.7,0.2,1.1C115.5,34.4,116.8,33.4,118.2,32.9z"/>
		<path fill="none" d="M107.2,71.5c-1.5-17.8-17.2-31-35-29.5c-17.8,1.5-31.1,17.2-29.5,35c1.5,17.8,17.2,31,35,29.5
			C95.5,105,108.7,89.3,107.2,71.5z M49.1,75.9c-0.3-9.2,4.1-17.4,11.2-22.2l0,1c-6.6,4.7-10.7,12.5-10.4,21.2
			c0.3,8.7,5.1,16.1,12,20.4l0,1C54.5,92.9,49.4,85,49.1,75.9z M91.1,94.8l0-1.1c5.5-4.8,8.9-12,8.6-19.8
			c-0.3-7.9-4.2-14.8-10.1-19.1l0-1c6.4,4.5,10.7,11.8,11,20.1C100.9,82.3,97.1,89.9,91.1,94.8z"/>
		<path fill="none" d="M110.6,109.7c-0.1-0.3-0.3-0.6-0.4-0.8c0.5-0.3,1-0.6,1.5-0.9c0-0.1-0.1-0.2-0.1-0.3c-0.1-1,1.2-1.9,3-2.3
			c7.9-10.1,11.7-22.6,10.6-35.5c-0.9-10.3-4.9-19.7-11-27.3c-0.2,0.1-0.4,0.2-0.6,0.3c-0.3-0.6-0.5-1.2-0.7-1.8
			c-0.3,0.3-0.7,0.4-1,0.4c-0.8-0.2-1.2-1.3-1.2-2.8c-9.2-9.3-21.9-15-35.8-15c-1.4,0-2.9,0.1-4.3,0.2c-9.8,0.8-18.9,4.4-26.6,10.3
			c0.1,0.2,0.2,0.5,0.3,0.7c-0.1,0-0.1,0-0.2,0.1c0.1,0.1,0.2,0.3,0.2,0.5c0.1,1.1-1.8,2.1-4.2,2.3c-0.1,0-0.2,0-0.3,0
			c-1.3,1.2-2.5,2.5-3.7,3.9C27.5,51.9,23.3,65,24.5,78.4c0.8,10,4.6,19.1,10.5,26.6c0.1-0.1,0.3-0.2,0.4-0.3c0,0.1,0.1,0.1,0.1,0.2
			c0.2-0.2,0.4-0.3,0.6-0.3c1.2-0.1,2.4,2,2.6,4.6c0,0,0,0.1,0,0.1c9.2,9.4,22.1,15.3,36,15.3c1.4,0,2.9-0.1,4.3-0.2
			c12-1,23.1-6.2,31.5-14.7C110.6,109.8,110.6,109.7,110.6,109.7c0.1-0.1,0.3-0.2,0.4-0.2c0,0,0,0,0.1-0.1
			C110.9,109.5,110.7,109.6,110.6,109.7z M78.7,119.6c-25.1,2.1-47.2-16.5-49.3-41.6C27.2,52.9,45.9,30.8,71,28.7
			c25.1-2.1,47.2,16.5,49.3,41.6C122.4,95.4,103.8,117.5,78.7,119.6z"/>
		<path fill="none" d="M71.2,30.8c-23.9,2-41.7,23.1-39.7,47c2,23.9,23.1,41.7,47,39.7c23.9-2,41.7-23.1,39.7-47
			C116.2,46.6,95.1,28.8,71.2,30.8z M114.6,66.8c0.1,1.5-1,2.8-2.4,2.9c-1.5,0.1-2.8-1-2.9-2.4c-0.1-1.5,1-2.8,2.4-2.9
			C113.2,64.2,114.5,65.3,114.6,66.8z M111.3,57.5c0.1,1.5-1,2.8-2.4,2.9c-1.5,0.1-2.8-1-2.9-2.4c-0.1-1.5,1-2.8,2.4-2.9
			C109.9,54.9,111.2,56,111.3,57.5z M104,46.7c1.5-0.1,2.8,1,2.9,2.4c0.1,1.5-1,2.8-2.4,2.9c-1.5,0.1-2.8-1-2.9-2.5
			C101.4,48.2,102.5,46.9,104,46.7z M96.8,40.3c1.5-0.1,2.8,1,2.9,2.4c0.1,1.5-1,2.8-2.4,2.9c-1.5,0.1-2.8-1-2.9-2.4
			C94.2,41.7,95.3,40.4,96.8,40.3z M89.2,36.1c1.5-0.1,2.8,1,2.9,2.4c0.1,1.5-1,2.8-2.4,2.9c-1.5,0.1-2.8-1-2.9-2.4
			C86.7,37.5,87.8,36.2,89.2,36.1z M78.2,33.5c1.5-0.1,2.8,1,2.9,2.4c0.1,1.5-1,2.8-2.4,2.9c-1.5,0.1-2.8-1-2.9-2.4
			C75.6,35,76.7,33.7,78.2,33.5z M66.1,34.3c1.5-0.1,2.8,1,2.9,2.4c0.1,1.5-1,2.8-2.5,2.9c-1.5,0.1-2.8-1-2.9-2.4
			C63.5,35.7,64.6,34.4,66.1,34.3z M57.9,37c1.5-0.1,2.8,1,2.9,2.4c0.1,1.5-1,2.8-2.4,2.9c-1.5,0.1-2.8-1-2.9-2.5
			C55.4,38.4,56.5,37.1,57.9,37z M48.5,42.7c1.5-0.1,2.8,1,2.9,2.4c0.1,1.5-1,2.8-2.4,2.9c-1.5,0.1-2.8-1-2.9-2.4
			C45.9,44.2,47,42.9,48.5,42.7z M42.5,50.9c1.5-0.1,2.8,1,2.9,2.4c0.1,1.5-1,2.8-2.4,2.9c-1.5,0.1-2.8-1-2.9-2.4
			C39.9,52.3,41,51,42.5,50.9z M38.4,60.2c1.5-0.1,2.8,1,2.9,2.4c0.1,1.5-1,2.8-2.4,2.9c-1.5,0.1-2.8-1-2.9-2.4
			C35.8,61.6,36.9,60.3,38.4,60.2z M34.2,72.8c-0.1-1.5,1-2.8,2.4-2.9c1.5-0.1,2.8,1,2.9,2.4c0.1,1.5-1,2.8-2.5,2.9
			C35.6,75.4,34.3,74.3,34.2,72.8z M35.6,83.1c-0.1-1.5,1-2.8,2.4-2.9c1.5-0.1,2.8,1,2.9,2.4c0.1,1.5-1,2.8-2.4,2.9
			C37,85.6,35.7,84.5,35.6,83.1z M41.8,95c-1.5,0.1-2.8-1-2.9-2.4c-0.1-1.5,1-2.8,2.4-2.9c1.5-0.1,2.8,1,2.9,2.4
			C44.3,93.5,43.2,94.8,41.8,95z M47.8,103.2c-1.5,0.1-2.8-1-2.9-2.4c-0.1-1.5,1-2.8,2.5-2.9c1.5-0.1,2.8,1,2.9,2.4
			C50.3,101.8,49.2,103.1,47.8,103.2z M54.5,109.1c-1.5,0.1-2.8-1-2.9-2.4c-0.1-1.5,1-2.8,2.4-2.9c1.5-0.1,2.8,1,2.9,2.4
			C57.1,107.6,56,108.9,54.5,109.1z M63.8,113.5c-1.5,0.1-2.8-1-2.9-2.4c-0.1-1.5,1-2.8,2.4-2.9c1.5-0.1,2.8,1,2.9,2.4
			C66.3,112.1,65.2,113.4,63.8,113.5z M73.3,115.4c-1.5,0.1-2.8-1-2.9-2.4c-0.1-1.5,1-2.8,2.4-2.9c1.5-0.1,2.8,1,2.9,2.4
			C75.8,114,74.7,115.3,73.3,115.4z M77.8,107.6c-18.4,1.6-34.6-12.1-36.2-30.5C40,58.7,53.7,42.5,72.1,40.9
			c18.4-1.6,34.6,12.1,36.2,30.5C109.8,89.8,96.1,106,77.8,107.6z M82.6,114.8c-1.5,0.1-2.8-1-2.9-2.4c-0.1-1.5,1-2.8,2.4-2.9
			c1.5-0.1,2.8,1,2.9,2.4C85.2,113.4,84.1,114.7,82.6,114.8z M92.2,110.9c-1.5,0.2-2.8-0.8-3-2.3c-0.2-1.5,0.8-2.8,2.3-3
			c1.5-0.2,2.8,0.8,3,2.3C94.7,109.3,93.7,110.7,92.2,110.9z M100.7,105.9c-1.5,0.1-2.8-1-2.9-2.4c-0.1-1.5,1-2.8,2.5-2.9
			c1.5-0.1,2.8,1,2.9,2.4C103.3,104.5,102.2,105.8,100.7,105.9z M106.7,98.1c-1.5,0.1-2.8-1-2.9-2.4c-0.1-1.5,1-2.8,2.4-2.9
			c1.5-0.1,2.8,1,2.9,2.4C109.3,96.7,108.2,98,106.7,98.1z M111.6,89.5c-1.5,0.1-2.8-1-2.9-2.5c-0.1-1.5,1-2.8,2.5-2.9
			c1.5-0.1,2.8,1,2.9,2.5C114.2,88.2,113,89.4,111.6,89.5z M112.5,79c-1.5,0.1-2.8-1-2.9-2.4c-0.1-1.5,1-2.8,2.4-2.9
			c1.5-0.1,2.8,1,2.9,2.4C115.1,77.6,114,78.9,112.5,79z"/>
		<path fill="none" d="M120.5,112.3c1.5,3,0.4,6.9-3.3,7.1c4.5,0.6,5.8-4.4,3.8-8c-0.5-0.9-1.3-1.8-2.3-2.4c-0.3,0.1-0.7,0.2-1,0.3
			C119,110.1,119.9,111.1,120.5,112.3z"/>
		<path fill="none" d="M32,115.2c-3,1.5-6.9,0.4-7.1-3.3c-0.6,4.5,4.4,5.8,8,3.8c1-0.6,1.9-1.5,2.5-2.6c-0.1-0.2-0.3-0.5-0.4-0.8
			C34.3,113.6,33.2,114.6,32,115.2z"/>
		<path fill="none" d="M34.5,30c-1-3.1,0.6-6.9,4.2-6.6c-4.4-1.2-6.4,3.6-4.9,7.4c0.6,1.5,1.8,2.8,3.4,3.6c0.3-0.1,0.5-0.2,0.8-0.3
			C36.3,33.2,35,31.7,34.5,30z"/>
		<g>
			<path fill="#9C855C" d="M71,28.7C45.9,30.8,27.2,52.9,29.4,78c2.1,25.1,24.2,43.7,49.3,41.6c25.1-2.1,43.7-24.2,41.6-49.3
				C118.2,45.2,96.1,26.6,71,28.7z M78.5,117.5c-23.9,2-45-15.8-47-39.7c-2-23.9,15.8-45,39.7-47c23.9-2,45,15.8,47,39.7
				C120.2,94.4,102.4,115.5,78.5,117.5z"/>
			<path fill="#9C855C" d="M108.3,71.4C106.7,53,90.5,39.3,72.1,40.9C53.7,42.5,40,58.7,41.6,77.1c1.6,18.4,17.8,32.1,36.2,30.5
				C96.1,106,109.8,89.8,108.3,71.4z M77.7,106.5C59.9,108,44.2,94.8,42.7,77c-1.5-17.8,11.7-33.5,29.5-35
				c17.8-1.5,33.5,11.7,35,29.5C108.7,89.3,95.5,105,77.7,106.5z"/>
			<path fill="#9C855C" d="M26.8,35.6c2.9,1.6,4.7-0.8,4.2-2.5c-0.2-0.8-1.1-1.5-2-1.1c1.8,0.1,1.7,2.4,0.4,2.9
				c-3.1,1.1-4-3.2-1.9-4.4c1.5-0.9,2.9-0.7,4-0.1c2,1,3.2,3.3,4.8,4.3c0.5,0.4-0.7-0.1-1.1,0.2c-0.2,0.1,0.1,0.6,0.6,1
				c0.4,0.3,0.8,0.5,1.1,0.3c0.3-0.2-0.3,1,0.3,0.8c0,0,0,0,0.1,0c2.1-1,1.2,0.2,2,0c1.1-0.2,2-1.1,2.3-1.2c0.3,0,0.6-0.1,0.8-0.2
				c0.6-0.2,1.3-0.4,1.9-0.7c0.1,0,0.1,0,0.2-0.1c-0.1-0.2-0.2-0.4-0.3-0.7c7.6-5.9,16.7-9.5,26.6-10.3c1.4-0.1,2.9-0.2,4.3-0.2
				c13.8,0,26.6,5.8,35.8,15c0-0.5,0.1-1,0.2-1.6c0.1-0.5,0.2-1,0.4-1.4c-9.6-9.1-22.4-14.6-36.3-14.6c-1.5,0-3,0.1-4.5,0.2
				C59.3,22.2,49,26.5,40.6,33.6c-0.2,0-0.4-0.1-0.6-0.1c-5.5-1.5-6.1-7-3.5-8.8c2.5-1.7,6.7,0.1,5.6,3.5c-0.9,2.5-2.8,2.8-4,2
				c-1.3-0.9-1.8-2.9-0.1-3.6c0.9-0.4,2.4,0.3,1.8,1.6c1-1.7-0.9-3.1-2.3-2.2c-3.5,2,1,7.6,4.7,4.8c2.2-1.7,2.4-5.8-1.5-7.9
				c-2.9-1.5-7.7-0.4-8.1,4.6c-0.1,0.9,0,1.7,0.3,2.5c-2.6-1.8-5.2-1.2-6.6,0.3C24.7,31.9,24.7,34.4,26.8,35.6z M38.7,23.4
				c-3.6-0.3-5.3,3.5-4.2,6.6c0.6,1.7,1.9,3.2,3.6,4.1c0.5,0.2,1,0.4,1.5,0.5c1.1,0.2,2.4,0.2,3.7-0.3c0,0,0,0,0,0
				c-1.5,0.6-2.9,0.8-4.1,0.6c-0.7-0.1-1.3-0.3-1.9-0.5c-1.6-0.7-2.8-2.1-3.4-3.6C32.4,27,34.3,22.1,38.7,23.4z"/>
			<path fill="#9C855C" d="M35.5,118.2c-0.8,0.4-1.3,1.3-0.8,2.2c-0.1-1.8,2.1-2,2.8-0.7c1.5,3-2.6,4.4-4.1,2.5
				c-1.1-1.4-1.1-2.8-0.7-4c0.6-1.7,2.1-3.1,3.1-4.5c0.2-0.3,0.4-0.6,0.5-0.9c0.3-0.6,0,0.7,0.4,1.1c0.3,0.3,1.6-1.2,1-1.8
				c-0.1-0.1,0-0.1,0-0.1c0.2,0,1,0.1,0.7-0.4c-1.3-2,0-1.3-0.2-2c-0.4-1-1.4-1.8-1.5-2.2c-0.1-0.2-0.2-0.4-0.2-0.6
				c-0.3-0.7-0.6-1.3-1-2c0-0.1-0.1-0.1-0.1-0.2c-0.1,0.1-0.3,0.2-0.4,0.3c-5.8-7.5-9.6-16.6-10.5-26.6c-1.1-13.5,3-26.5,11.7-36.9
				c1.2-1.4,2.4-2.7,3.7-3.9c-1.2,0.1-2.4-0.1-3.1-0.4c-0.8,0.9-1.7,1.8-2.5,2.7C25.1,50.8,20.8,64.5,22,78.6
				c1,11.3,5.5,21.5,12.4,29.7c0-0.5,0.1-1,0.2-1.5c0.1,0.6,0.2,1.3,0.2,1.9c0,0.2,0,0.3,0,0.5c-0.1,0.4-0.1,0.8-0.2,1.2
				c-1.3,4.7-6,5.7-8,3.5c-2-2.2-0.8-6.7,2.7-6c2.6,0.5,3.2,2.4,2.5,3.7c-0.7,1.4-2.6,2.2-3.6,0.6c-0.5-0.9,0-2.4,1.4-2
				c-1.8-0.7-2.9,1.3-1.9,2.6c2.5,3.2,7.4-2,4.1-5.3c-1.9-1.9-6.1-1.6-7.6,2.6c-1.1,3.1,0.6,7.7,5.7,7.4c0.9-0.1,1.7-0.3,2.5-0.6
				c-1.4,2.8-0.4,5.3,1.2,6.5c1.7,1.3,4.2,0.9,5.1-1.3C39.7,118.9,37.2,117.4,35.5,118.2z M24.8,111.9c0.2,3.6,4.2,4.8,7.1,3.3
				c1.2-0.6,2.3-1.6,3-2.9c0.4-0.7,0.7-1.5,0.8-2.4c0.2-1.3-0.1-2.7-0.8-4.1c0,0,0,0,0,0c0.9,1.6,1.3,3.2,1.2,4.6
				c-0.1,1-0.3,2-0.8,2.8c-0.6,1.1-1.5,2-2.5,2.6C29.3,117.7,24.2,116.4,24.8,111.9z"/>
			<path fill="#9C855C" d="M127.4,105.7c-3.1-1.2-4.6,1.4-3.8,3.1c0.4,0.8,1.3,1.3,2.2,0.8c-1.8,0.1-2-2.1-0.7-2.8
				c2.9-1.5,4.4,2.6,2.5,4.1c-1.4,1.1-2.8,1.1-4,0.7c-1.5-0.5-2.8-1.8-4-2.8c-0.4-0.3-0.9-0.7-1.3-0.9c-0.6-0.3,0.7,0,1.1-0.4
				c0.3-0.3-1.2-1.6-1.8-1c-0.2,0.2-0.1-0.3-0.1-0.6c0-0.2-0.1-0.3-0.4-0.1c-2,1.2-1.3,0-2,0.2c-1,0.4-1.8,1.4-2.1,1.5
				c0,0-0.1,0-0.1,0c-0.4,0.1-0.7,0.3-1.1,0.4c-0.5,0.2-1,0.5-1.5,0.9c0.2,0.2,0.3,0.5,0.4,0.8c0.2-0.1,0.3-0.2,0.5-0.3
				c0,0,0,0-0.1,0.1c-0.1,0.1-0.3,0.1-0.4,0.2c0,0.1,0,0.1,0,0.2c-8.4,8.5-19.5,13.7-31.5,14.7c-1.4,0.1-2.9,0.2-4.3,0.2
				c-14,0-26.8-5.9-36-15.3c0.1,1.2,0,2.4-0.3,3.2c9.6,9.1,22.4,14.6,36.4,14.6c1.5,0,3-0.1,4.5-0.2c13.6-1.2,26-7.3,35-17.5
				c0.1,0,0.1,0,0.2,0c5.6,0.7,7,6.1,4.7,8.2c-2.2,2-6.7,0.8-6-2.7c0.5-2.6,2.4-3.2,3.7-2.5c1.4,0.7,2.2,2.6,0.6,3.6
				c-0.9,0.5-2.4,0-2-1.4c-0.7,1.8,1.3,2.9,2.6,1.8c3.2-2.5-2-7.4-5.3-4.1c-1.9,1.9-1.6,6.1,2.6,7.6c3.1,1.1,7.7-0.6,7.4-5.7
				c-0.1-0.9-0.3-1.7-0.6-2.5c2.8,1.4,5.3,0.4,6.5-1.2C130,109,129.6,106.5,127.4,105.7z M117.3,119.4c3.6-0.2,4.8-4.2,3.3-7.1
				c-0.6-1.2-1.6-2.3-2.8-2.9c-0.7-0.4-1.6-0.7-2.5-0.8c-0.9-0.1-1.9,0-2.9,0.3c0,0-0.1,0-0.1-0.1c1.2-0.5,2.3-0.7,3.3-0.6
				c1.2,0,2.3,0.4,3.2,1c1,0.6,1.7,1.4,2.3,2.4C123,115,121.7,120,117.3,119.4z"/>
			<path fill="#9C855C" d="M111.4,35.8c1,2-0.2,1.2,0,1.9c0.3,1.1,1.2,1.9,1.3,2.3c0.1,0.3,0.2,0.7,0.3,1c0,0,0,0,0,0.1
				c0.2,0.6,0.4,1.2,0.7,1.8c0.2-0.1,0.4-0.2,0.6-0.3c6.1,7.6,10.1,17,11,27.3c1.1,12.9-2.7,25.4-10.6,35.5c0.5-0.1,1.1-0.2,1.6-0.3
				c0.6-0.1,1.2,0,1.7,0c7.4-10.3,10.9-22.7,9.8-35.4c-1-11.6-5.8-22.1-13-30.4c0-0.2,0.1-0.5,0.1-0.7c1.4-5.5,6.9-6.3,8.7-3.7
				c1.7,2.4,0,6.7-3.4,5.7c-2.6-0.8-2.9-2.7-2.1-4c0.8-1.3,2.9-1.9,3.6-0.2c0.4,0.9-0.2,2.4-1.6,1.8c1.8,0.9,3-0.9,2.1-2.4
				c-2.1-3.5-7.6,1.1-4.7,4.8c1.7,2.2,5.9,2.2,7.8-1.7c1.4-3,0.3-7.7-4.8-8c-0.9,0-1.7,0.1-2.5,0.4c1.7-2.6,1.1-5.3-0.4-6.6
				c-1.6-1.5-4.1-1.4-5.2,0.7c-1.5,3,0.9,4.7,2.6,4.2c0.8-0.3,1.5-1.1,1.1-2c-0.1,1.8-2.4,1.7-2.8,0.4c-1.1-3.1,3.1-4.1,4.3-2
				c0.9,1.5,0.7,2.9,0.2,4c-0.8,1.7-2.5,2.8-3.6,4.1c-0.2,0.3-0.4,0.5-0.6,0.8c-0.3,0.5,0.1-0.7-0.2-1.1c-0.3-0.3-1.8,1-1.2,1.7
				c0.2,0.2-0.5,0-0.8,0.1c0,0.1-0.1,0.1-0.1,0.2C111.3,35.6,111.3,35.7,111.4,35.8C111.3,35.8,111.3,35.8,111.4,35.8z M114.5,34.7
				c0.7-1.1,1.8-1.9,2.9-2.4c3.8-1.6,8.6,0.3,7.5,4.7c0.2-3.6-3.6-5.2-6.7-4.1c-1.4,0.5-2.7,1.5-3.5,2.8c-0.5,0.7-0.8,1.6-0.9,2.4
				c-0.1,0.6-0.1,1.2,0,1.8c0,0.1-0.1,0.1-0.1,0.2c-0.2-0.8-0.3-1.6-0.2-2.4C113.5,36.7,113.9,35.6,114.5,34.7z"/>
			<path fill="#9C855C" d="M48.9,48.1c1.5-0.1,2.6-1.4,2.4-2.9c-0.1-1.5-1.4-2.6-2.9-2.4c-1.5,0.1-2.6,1.4-2.4,2.9
				C46.1,47.1,47.4,48.2,48.9,48.1z"/>
			<path fill="#9C855C" d="M28.4,28.1c1.1-0.1,2-1.1,1.9-2.2c-0.1-1.1-1.1-2-2.2-1.9c-1.1,0.1-2,1.1-1.9,2.2
				C26.3,27.4,27.3,28.2,28.4,28.1z"/>
			<path fill="#9C855C" d="M121.4,28.6c1.1-0.1,2-1.1,1.9-2.2c-0.1-1.1-1.1-2-2.2-1.9c-1.1,0.1-2,1.1-1.9,2.2
				C119.3,27.9,120.3,28.7,121.4,28.6z"/>
			<circle fill="#9C855C" cx="126" cy="115.3" r="2"/>
			<circle fill="#9C855C" cx="27.5" cy="120.9" r="2"/>
			<circle fill="#9C855C" cx="66.3" cy="37" r="2.7"/>
			<circle fill="#9C855C" cx="78.4" cy="36.2" r="2.7"/>
			<circle fill="#9C855C" cx="58.2" cy="39.7" r="2.7"/>
			<circle fill="#9C855C" cx="89.5" cy="38.8" r="2.7"/>
			<circle fill="#9C855C" cx="104.2" cy="49.4" r="2.7"/>
			<circle fill="#9C855C" cx="97" cy="43" r="2.7"/>
			<circle fill="#9C855C" cx="108.6" cy="57.7" r="2.7"/>
			<circle fill="#9C855C" cx="111.9" cy="67" r="2.7"/>
			<circle fill="#9C855C" cx="112.3" cy="76.4" r="2.7"/>
			<path fill="#9C855C" d="M111.2,84.2c-1.5,0.1-2.6,1.4-2.5,2.9c0.1,1.5,1.4,2.6,2.9,2.5c1.5-0.1,2.6-1.4,2.5-2.9
				C114,85.2,112.7,84.1,111.2,84.2z"/>
			<circle fill="#9C855C" cx="106.5" cy="95.5" r="2.7"/>
			<circle fill="#9C855C" cx="100.5" cy="103.3" r="2.7"/>
			<circle fill="#9C855C" cx="73" cy="112.7" r="2.7"/>
			<circle fill="#9C855C" cx="82.4" cy="112.2" r="2.7"/>
			<circle fill="#9C855C" cx="91.8" cy="108.2" r="2.7"/>
			<path fill="#9C855C" d="M63.3,108.1c-1.5,0.1-2.6,1.4-2.4,2.9c0.1,1.5,1.4,2.6,2.9,2.4c1.5-0.1,2.6-1.4,2.5-2.9
				C66.1,109.1,64.8,108,63.3,108.1z"/>
			<circle fill="#9C855C" cx="47.5" cy="100.5" r="2.7"/>
			<circle fill="#9C855C" cx="54.3" cy="106.4" r="2.7"/>
			<path fill="#9C855C" d="M41.3,89.6c-1.5,0.1-2.6,1.4-2.4,2.9c0.1,1.5,1.4,2.6,2.9,2.4c1.5-0.1,2.6-1.4,2.4-2.9
				C44.1,90.6,42.8,89.5,41.3,89.6z"/>
			<path fill="#9C855C" d="M40.9,82.6c-0.1-1.5-1.4-2.6-2.9-2.4c-1.5,0.1-2.6,1.4-2.4,2.9c0.1,1.5,1.4,2.6,2.9,2.4
				C39.9,85.4,41,84.1,40.9,82.6z"/>
			<path fill="#9C855C" d="M39.6,72.4c-0.1-1.5-1.4-2.6-2.9-2.4c-1.5,0.1-2.6,1.4-2.4,2.9c0.1,1.5,1.4,2.6,2.9,2.4
				C38.6,75.1,39.7,73.8,39.6,72.4z"/>
			<path fill="#9C855C" d="M38.8,65.5c1.5-0.1,2.6-1.4,2.4-2.9c-0.1-1.5-1.4-2.6-2.9-2.4c-1.5,0.1-2.6,1.4-2.4,2.9
				C36.1,64.5,37.4,65.6,38.8,65.5z"/>
			<circle fill="#9C855C" cx="42.7" cy="53.6" r="2.7"/>
			<path fill="#9C855C" d="M49.9,75.8c-0.3-8.7,3.8-16.5,10.4-21.2l0-1c-7,4.8-11.5,13.1-11.2,22.2c0.4,9.2,5.5,17,12.9,21.3l0-1
				C55,92,50.2,84.5,49.9,75.8z"/>
			<path fill="#9C855C" d="M89.5,53.8l0,1c5.9,4.3,9.8,11.2,10.1,19.1c0.3,7.9-3.1,15-8.6,19.8l0,1.1c6-4.9,9.7-12.5,9.4-20.9
				C100.2,65.5,95.9,58.2,89.5,53.8z"/>
			<path fill="#9C855C" d="M125.5,40.3c-0.5,0.4-0.9,0.7-1.5,0.9c8,11.6,11.9,26.1,10,41.2c-0.9,7.4-3.2,14.3-6.5,20.5
				c0.5,0.3,1,0.6,1.5,1c3.5-6.4,5.8-13.6,6.8-21.2C137.7,67.2,133.7,52.3,125.5,40.3z"/>
			<path fill="#9C855C" d="M16,67.4c1.4-10.8,5.6-20.5,11.8-28.6c-0.5-0.3-1-0.7-1.4-1.1C20,46.1,15.7,56.1,14.2,67.2
				c-1.9,14.6,1.6,28.6,8.8,40.1c0.5-0.3,1-0.6,1.5-0.9C17.5,95.2,14.2,81.6,16,67.4z"/>
			<path fill="#9C855C" d="M67.5,134c-10.7-1.4-20.4-5.6-28.5-11.7c-0.2,0.5-0.5,1.1-0.8,1.6c8.2,6.2,18.1,10.5,29.1,11.9
				c18.2,2.3,35.5-3.6,48.3-14.9c-0.5-0.4-0.9-0.8-1.3-1.2C101.9,130.5,85.1,136.2,67.5,134z"/>
			<path fill="#9C855C" d="M82.5,15.9c10.3,1.3,19.6,5.2,27.4,10.9c0.2-0.5,0.5-1.1,0.9-1.5c-8-5.8-17.5-9.7-28-11.1
				c-14.8-1.9-29,1.7-40.6,9.1c0.3,0.5,0.6,1,0.9,1.5C54.3,17.6,68.2,14.1,82.5,15.9z"/>
		</g>
	</g>
	<g>
		<g>
			<g>
				<path fill="#9C855C" d="M86.7,70.5c0.7,0.1,1.6,0.4,1.7,1.2c0.1,1.2-2.1,1-2.7,0.9c-0.4,0-0.8,0-1.1-0.1
					c1.5,0.8,2.4,2.4,1.7,4.1c-0.7,1.5-2.9,1.6-4.3,0.9c-0.8-0.4-1.2-1.1-1.8-1.7c0.8,0.9,1.1,2.9,0.8,4.1c-0.2,0.5-0.5,0.8-0.9,0.9
					c-0.8,0.2-1.8-0.2-2.3-0.6c-1.2-0.9-1.8-2.3-2.2-3.6c-0.1-0.4-0.2-0.8-0.3-1.2c0,0,0-0.2,0-0.3c-0.1,0.4-0.2,0.8-0.2,1.2
					c0.3,1.3,0.7,2.6,1.3,3.8c0.5,1,1,1.9,1.7,2.8c1.4,1.8,4.5,2,4.9-0.7c0.1-1.1-0.2-2.4-0.6-3.1c0.8,1.4,3,1.4,4.3,0.7
					c2.1-1.1,2-3.9,0.8-5.7c0.9,0.4,2.6,0,3.1-0.9c0.5-0.8,0-1.9-0.6-2.5c-0.8-0.7-2-1-3.1-1.2c-0.3-0.1-1.9-0.2-2.2-0.2
					c-0.1,0.3,0,0.6-0.2,0.9C84.8,70.2,86.6,70.5,86.7,70.5z M81.2,82.8c-0.8,0.4-1.9,0-2.5-0.5c-0.3-0.3-0.6-0.7-0.9-1
					c0.6,0.8,2.4,1.4,3.2,0.7c0.7-0.6,0.8-1.8,0.7-2.7C82,80.3,82.4,82.2,81.2,82.8z M87.4,77.3c-0.2,0.7-0.7,1.2-1.3,1.5
					c-0.6,0.3-1.3,0.4-2,0.3c-0.7-0.1-1.2-0.4-1.7-0.8c0.4,0.3,1.2,0.4,1.6,0.4c0.6,0,1.3-0.1,1.8-0.3c0.6-0.3,1-0.7,1.2-1.2
					c0.3-0.7,0.3-1.5,0-2.2C87.4,75.8,87.7,76.4,87.4,77.3z M89.7,71.7c0.6,1.2-0.9,2-2,1.6c0.6-0.1,1.2-0.2,1.6-0.8
					c0.2-0.4,0.2-1.2-0.2-1.5C89.3,71.2,89.6,71.5,89.7,71.7z"/>
			</g>
			<g>
				<path fill="#9C855C" d="M79.1,86.3c-0.1,0.7-0.4,1.6-1.2,1.7c-1.2,0.1-1-2.1-0.9-2.7c0-0.4,0-0.8,0.1-1.1
					c-0.8,1.5-2.4,2.4-4.1,1.7c-1.5-0.7-1.6-2.9-0.9-4.3c0.4-0.8,1.1-1.2,1.7-1.8c-0.9,0.8-2.9,1.1-4.1,0.8
					c-0.5-0.2-0.8-0.5-0.9-0.9c-0.2-0.8,0.2-1.8,0.6-2.3c0.9-1.2,2.3-1.8,3.6-2.2c0.4-0.1,0.8-0.2,1.2-0.3c0,0,0.2,0,0.3,0
					c-0.4-0.1-0.8-0.2-1.2-0.2c-1.3,0.3-2.6,0.7-3.8,1.3c-1,0.5-1.9,1-2.8,1.7c-1.8,1.4-2,4.5,0.7,4.9c1.1,0.1,2.4-0.2,3.1-0.6
					c-1.4,0.8-1.4,3-0.7,4.3c1.1,2.1,3.9,2,5.7,0.8c-0.4,0.9,0,2.6,0.9,3.1c0.8,0.5,1.9,0,2.5-0.6c0.7-0.8,1-2,1.2-3.1
					c0.1-0.3,0.2-1.9,0.2-2.2c-0.3-0.1-0.6,0-0.9-0.2C79.4,84.4,79.1,86.2,79.1,86.3z M66.8,80.8c-0.4-0.8,0-1.9,0.5-2.5
					c0.3-0.3,0.7-0.6,1-0.9c-0.8,0.6-1.4,2.4-0.7,3.2c0.6,0.7,1.8,0.8,2.7,0.7C69.3,81.6,67.4,82,66.8,80.8z M72.3,87
					c-0.7-0.2-1.2-0.7-1.5-1.3c-0.3-0.6-0.4-1.3-0.3-2c0.1-0.7,0.4-1.2,0.8-1.7c-0.3,0.4-0.4,1.2-0.4,1.6c0,0.6,0.1,1.3,0.3,1.8
					c0.3,0.6,0.7,1,1.2,1.2c0.7,0.3,1.5,0.3,2.2,0C73.8,86.9,73.2,87.3,72.3,87z M77.8,89.3c-1.2,0.6-2-0.9-1.6-2
					c0.1,0.6,0.2,1.2,0.8,1.6c0.4,0.2,1.2,0.2,1.5-0.2C78.3,88.9,78.1,89.1,77.8,89.3z"/>
			</g>
			<g>
				<path fill="#9C855C" d="M63.3,78.6c-0.7-0.1-1.6-0.4-1.7-1.2c-0.1-1.2,2.1-1,2.7-0.9c0.4,0,0.8,0,1.1,0.1
					c-1.5-0.8-2.4-2.4-1.7-4.1c0.7-1.5,2.9-1.6,4.3-0.9c0.8,0.4,1.2,1.1,1.8,1.7c-0.8-0.9-1.1-2.9-0.8-4.1c0.2-0.5,0.5-0.8,0.9-0.9
					c0.8-0.2,1.8,0.2,2.3,0.6c1.2,0.9,1.8,2.3,2.2,3.6c0.1,0.4,0.2,0.8,0.3,1.2c0,0,0,0.2,0,0.3c0.1-0.4,0.2-0.8,0.2-1.2
					c-0.3-1.3-0.7-2.6-1.3-3.8c-0.5-1-1-1.9-1.7-2.8c-1.4-1.8-4.5-2-4.9,0.7c-0.1,1.1,0.2,2.4,0.6,3.1c-0.8-1.4-3-1.4-4.3-0.7
					c-2.1,1.1-2,3.9-0.8,5.7c-0.9-0.4-2.6,0-3.1,0.9c-0.5,0.8,0,1.9,0.6,2.5c0.8,0.7,2,1,3.1,1.2c0.3,0.1,1.9,0.2,2.2,0.2
					c0.1-0.3,0-0.6,0.2-0.9C65.2,79,63.4,78.7,63.3,78.6z M68.8,66.3c0.8-0.4,1.9,0,2.5,0.5c0.3,0.3,0.6,0.7,0.9,1
					c-0.6-0.8-2.4-1.4-3.2-0.7c-0.7,0.6-0.8,1.8-0.7,2.7C68,68.8,67.6,67,68.8,66.3z M62.6,71.9c0.2-0.7,0.7-1.2,1.3-1.5
					c0.6-0.3,1.3-0.4,2-0.3c0.7,0.1,1.2,0.4,1.7,0.8c-0.4-0.3-1.2-0.4-1.6-0.4c-0.6,0-1.3,0.1-1.8,0.3c-0.6,0.3-1,0.7-1.2,1.2
					c-0.3,0.7-0.3,1.5,0,2.2C62.6,73.4,62.3,72.8,62.6,71.9z M60.3,77.4c-0.6-1.2,0.9-2,2-1.6c-0.6,0.1-1.2,0.2-1.6,0.8
					c-0.2,0.4-0.2,1.2,0.2,1.5C60.7,77.9,60.4,77.7,60.3,77.4z"/>
			</g>
			<g>
				<path fill="#9C855C" d="M70.9,62.8c0.1-0.7,0.4-1.6,1.2-1.7c1.2-0.1,1,2.1,0.9,2.7c0,0.4,0,0.8-0.1,1.1c0.8-1.5,2.4-2.4,4.1-1.7
					c1.5,0.7,1.6,2.9,0.9,4.3c-0.4,0.8-1.1,1.2-1.7,1.8c0.9-0.8,2.9-1.1,4.1-0.8c0.5,0.2,0.8,0.5,0.9,0.9c0.2,0.8-0.2,1.8-0.6,2.3
					c-0.9,1.2-2.3,1.8-3.6,2.2c-0.4,0.1-0.8,0.2-1.2,0.3c0,0-0.2,0-0.3,0c0.4,0.1,0.8,0.2,1.2,0.2c1.3-0.3,2.6-0.7,3.8-1.3
					c1-0.5,1.9-1,2.8-1.7c1.8-1.4,2-4.5-0.7-4.9c-1.1-0.1-2.4,0.2-3.1,0.6c1.4-0.8,1.4-3,0.7-4.3c-1.1-2.1-3.9-2-5.7-0.8
					c0.4-0.9,0-2.6-0.9-3.1c-0.8-0.5-1.9,0-2.5,0.6c-0.7,0.8-1,2-1.2,3.1c-0.1,0.3-0.2,1.9-0.2,2.2c0.3,0.1,0.6,0,0.9,0.2
					C70.6,64.7,70.9,63,70.9,62.8z M83.2,68.3c0.4,0.8,0,1.9-0.5,2.5c-0.3,0.3-0.7,0.6-1,0.9c0.8-0.6,1.4-2.4,0.7-3.2
					c-0.6-0.7-1.8-0.8-2.7-0.7C80.7,67.6,82.6,67.1,83.2,68.3z M77.7,62.1c0.7,0.2,1.2,0.7,1.5,1.3c0.3,0.6,0.4,1.3,0.3,2
					c-0.1,0.7-0.4,1.2-0.8,1.7c0.3-0.4,0.4-1.2,0.4-1.6c0-0.6-0.1-1.3-0.3-1.8c-0.3-0.6-0.7-1-1.2-1.2c-0.7-0.3-1.5-0.3-2.2,0
					C76.2,62.2,76.8,61.9,77.7,62.1z M72.2,59.9c1.2-0.6,2,0.9,1.6,2c-0.1-0.6-0.2-1.2-0.8-1.6c-0.4-0.2-1.2-0.2-1.5,0.2
					C71.7,60.2,71.9,60,72.2,59.9z"/>
			</g>
		</g>
	</g>
</g>
</svg>
