<?xml version="1.0" encoding="utf-8"?>
<!-- Generator: Adobe Illustrator 18.1.0, SVG Export Plug-In . SVG Version: 6.00 Build 0)  -->
<svg version="1.0" id="Layer_1" xmlns="http://www.w3.org/2000/svg" xmlns:xlink="http://www.w3.org/1999/xlink" x="0px" y="0px"
	 viewBox="0 0 150 150" enable-background="new 0 0 150 150" xml:space="preserve">
<g>
	<polygon fill="none" points="105.3,23.2 93.2,31 91.2,42.5 103.5,34.6 	"/>
	<polygon fill="none" points="61.5,50.3 49.4,58.1 47.3,69.6 59.5,61.9 	"/>
	<polygon fill="none" points="84,36.6 71.8,44.2 69.6,55.7 81.8,48.1 	"/>
	<g>
		<path fill="#003E45" d="M128.7,70h-26c9,5,15.7,14,18.6,24.1c-5.3,5.7-11,10.8-17.1,15.6c0.6-13.3-1.4-25.7-4.8-39.7h-5.9
			c1.7,7,3.1,12.7,4,19c-11.8-7.5-25-12.8-38.5-16.3c1.3-0.9,2.6-0.8,4-2.8H39.4l3-1.7C64.5,55.5,113.5,25,113.5,25
			c2-1.2,2.7-3.7,1.6-5.7l-4.2-10.4c-1.2-2-3.8-2.7-5.9-1.5l-80.6,49c-2,1.2-2.7,3.8-1.6,5.8l7.7,8.4l0.1,64.2
			c0,2.4,1.9,4.2,4.2,4.2h25.6c-7.7-5-13.5-13-16.2-22.1c5.3-5.7,11-11,17.1-15.8c-0.6,12.8,1.2,25.9,4.4,37.9h5.8
			c-1.5-6-2.7-11.3-3.5-17c11.8,7.5,25,12.6,38.5,16c-0.5,0.4-1,0-1.5,1h23.6c2.3,0,4.3-1.8,4.3-4.2V75.1C133,72.8,131,70,128.7,70z
			 M92.2,19l15.2-9.7l-2.2,14.3l-15.5,9.9L92.2,19z M65.2,35.6L80.6,26l-2.8,14.4L62.4,50L65.2,35.6z M34.5,67.5L37.1,53l15.3-9.8
			l-2.6,14.5L34.5,67.5z M42.9,110.2c-0.2-1.5-0.2-3-0.2-4.4c0-10.4,4-20.3,11.1-27.7c7.6,1.7,15,4,22.2,6.9
			C63.7,91.3,52.7,100.2,42.9,110.2z M111.8,133.5c-7.6-1.7-15-4-22.2-6.9c12.4-6.4,23.4-15.3,33.1-25.3c0.2,1.5,0.2,3,0.2,4.4
			C122.9,116.1,118.9,126,111.8,133.5z"/>
	</g>
</g>
</svg>
