<?xml version="1.0" encoding="utf-8"?>
<!-- Generator: Adobe Illustrator 14.0.0, SVG Export Plug-In . SVG Version: 6.00 Build 43363)  -->
<!DOCTYPE svg PUBLIC "-//W3C//DTD SVG 1.1//EN" "http://www.w3.org/Graphics/SVG/1.1/DTD/svg11.dtd">
<svg version="1.1" id="Layer_1" xmlns="http://www.w3.org/2000/svg" xmlns:xlink="http://www.w3.org/1999/xlink" x="0px" y="0px"
	 width="150px" height="150px" viewBox="0 0 150 150" enable-background="new 0 0 150 150" xml:space="preserve">
<g>
	<path fill="#524945" d="M143.54,77.086l-3.074-3.534c-2.452-2.832-3.012-7.885-1.234-11.191l2.221-4.119
		c1.756-3.317,0.421-7.326-2.98-8.914l-4.24-1.988c-3.391-1.604-5.954-5.976-5.686-9.73l0.349-4.667
		c0.253-3.75-2.59-6.877-6.34-6.941l-4.678-0.1c-3.766-0.063-7.874-3.027-9.156-6.561l-1.598-4.398
		c-1.271-3.528-5.137-5.237-8.607-3.781l-4.313,1.83c-3.46,1.461-8.423,0.438-11.018-2.273l-3.249-3.365
		C77.33,4.637,73.111,4.668,70.532,7.4l-3.201,3.423c-2.563,2.737-7.516,3.824-10.991,2.41l-4.341-1.767
		c-3.48-1.419-7.331,0.327-8.57,3.876l-1.524,4.425c-1.224,3.549-5.316,6.545-9.071,6.672l-4.678,0.158
		c-3.755,0.121-6.561,3.28-6.244,7.014l0.396,4.668c0.332,3.744-2.189,8.153-5.564,9.793l-4.214,2.036
		c-3.38,1.635-4.672,5.67-2.848,8.966l2.257,4.098c1.82,3.291,1.319,8.338-1.107,11.197l-3.011,3.591
		c-2.426,2.869-1.952,7.072,1.034,9.34l3.734,2.822c3.001,2.268,4.583,7.073,3.555,10.681l-1.308,4.499
		c-1.05,3.611,1.097,7.271,4.757,8.11l4.557,1.065c3.655,0.85,7.072,4.594,7.584,8.317l0.638,4.642
		c0.521,3.718,3.95,6.181,7.642,5.469l4.61-0.87c3.676-0.718,8.317,1.318,10.305,4.509l2.474,3.972
		c1.978,3.19,6.123,4.045,9.198,1.91l3.839-2.686c3.09-2.146,8.159-2.178,11.259-0.073l3.877,2.626
		c3.111,2.109,7.241,1.207,9.192-2.01l2.416-4.014c1.946-3.206,6.55-5.306,10.253-4.636l4.614,0.817
		c3.703,0.67,7.109-1.84,7.562-5.563l0.586-4.652c0.459-3.733,3.829-7.516,7.473-8.417l4.553-1.124
		c3.654-0.891,5.737-4.572,4.646-8.169l-1.355-4.478c-1.097-3.597,0.438-8.422,3.402-10.732l3.719-2.869
		C145.587,84.143,146.014,79.939,143.54,77.086z M131.136,84.617l-3.063,2.384c-2.458,1.898-3.734,5.891-2.822,8.876l1.118,3.708
		c0.907,2.975-0.828,6.028-3.85,6.776l-3.761,0.918c-3.027,0.744-5.812,3.888-6.192,6.962l-0.485,3.855
		c-0.391,3.085-3.211,5.158-6.26,4.615l-3.823-0.676c-3.065-0.559-6.873,1.171-8.492,3.84l-2.009,3.317
		c-1.608,2.658-5.025,3.412-7.6,1.661l-3.196-2.173c-2.59-1.756-6.777-1.72-9.34,0.063l-3.175,2.215
		c-2.548,1.772-5.976,1.065-7.621-1.572l-2.046-3.29c-1.646-2.647-5.485-4.33-8.539-3.744l-3.803,0.732
		c-3.069,0.596-5.907-1.45-6.345-4.53l-0.522-3.851c-0.412-3.074-3.244-6.182-6.281-6.888l-3.761-0.881
		c-3.032-0.696-4.81-3.729-3.934-6.714l1.076-3.724c0.865-2.984-0.464-6.961-2.938-8.85l-3.096-2.337
		c-2.489-1.877-2.869-5.363-0.859-7.73l2.5-2.959c2-2.378,2.405-6.551,0.908-9.277l-1.857-3.408
		c-1.524-2.71-0.453-6.049,2.342-7.426l3.492-1.682c2.79-1.345,4.878-4.989,4.614-8.09l-0.327-3.871
		c-0.274-3.091,2.062-5.722,5.164-5.817l3.876-0.126c3.106-0.105,6.487-2.574,7.505-5.522l1.271-3.66
		c1.018-2.938,4.209-4.377,7.094-3.212l3.581,1.456c2.896,1.171,6.988,0.279,9.119-1.988l2.637-2.843
		c2.131-2.268,5.643-2.278,7.79-0.037l2.685,2.795c2.167,2.236,6.266,3.074,9.123,1.877l3.592-1.503
		c2.859-1.208,6.076,0.195,7.121,3.111l1.317,3.65c1.055,2.927,4.468,5.364,7.569,5.433l3.876,0.079
		c3.116,0.058,5.475,2.647,5.242,5.743l-0.274,3.881c-0.227,3.091,1.898,6.714,4.721,8.033l3.496,1.651
		c2.822,1.313,3.925,4.641,2.458,7.384l-1.813,3.417c-1.477,2.748-1.024,6.909,1.022,9.267l2.543,2.927
		C133.926,79.228,133.588,82.708,131.136,84.617z"/>
	<path fill="#F4EFDB" d="M93.812,62.34c-5.105-2.927-12.531-4.842-20.78-4.836c-8.259-0.005-15.695,1.909-20.8,4.836
		c-5.164,2.927-7.616,6.534-7.568,9.762c-0.042,3.191,2.394,6.792,7.568,9.742c5.105,2.91,12.542,4.852,20.8,4.83
		c8.249,0.011,15.675-1.92,20.78-4.83c5.189-2.949,7.642-6.551,7.589-9.742C101.453,68.874,99.001,65.267,93.812,62.34z
		 M84.424,74.459c-8.133-7.932-3.001,12.574-13.138,2.605c-10.147-9.968-16.46,3.265-16.46,3.265
		c-4.536-2.573-6.677-5.743-6.635-8.528c-0.042-2.816,2.109-5.981,6.635-8.56c4.462-2.537,10.975-4.225,18.195-4.22
		c7.231-0.005,13.734,1.683,18.207,4.22c4.535,2.579,6.671,5.732,6.629,8.56C97.856,71.801,92.556,82.386,84.424,74.459z"/>
	<path fill="#F4EFDB" d="M105.493,85.091c-1.055,0.021-1.967,0.396-2.779,0.924c-0.623,1.946-1.345,5.928-2.173,7.722
		c0.591,2.22,2.531,3.887,4.952,3.887c2.858,0,5.195-4.436,5.195-7.315C110.688,87.449,108.352,85.112,105.493,85.091z"/>
	<path fill="#F4EFDB" d="M129.358,73.937c-2.047-2.357-2.499-6.519-1.022-9.267l1.813-3.417c1.467-2.743,0.364-6.071-2.458-7.384
		l-3.496-1.651c-2.822-1.319-4.947-4.942-4.721-8.033l0.274-3.881c0.232-3.096-2.126-5.686-5.242-5.743l-3.876-0.079
		c-3.102-0.069-6.515-2.505-7.569-5.433l-1.317-3.65c-1.045-2.917-4.262-4.319-7.121-3.111l-3.592,1.503
		c-2.857,1.197-6.956,0.359-9.123-1.877l-2.685-2.795c-2.147-2.242-5.659-2.231-7.79,0.037l-2.637,2.843
		c-2.131,2.268-6.223,3.159-9.119,1.988l-3.581-1.456c-2.885-1.166-6.076,0.274-7.094,3.212l-1.271,3.66
		c-1.018,2.948-4.399,5.417-7.505,5.522l-3.876,0.126c-3.102,0.095-5.438,2.727-5.164,5.817l0.327,3.871
		c0.264,3.101-1.825,6.745-4.614,8.09l-3.492,1.682c-2.795,1.377-3.866,4.715-2.342,7.426l1.857,3.408
		c1.498,2.726,1.092,6.898-0.908,9.277l-2.5,2.959c-2.009,2.367-1.63,5.854,0.859,7.73l3.096,2.337
		c2.474,1.889,3.803,5.865,2.938,8.85l-1.076,3.724c-0.875,2.985,0.902,6.018,3.934,6.714l3.761,0.881
		c3.038,0.706,5.87,3.813,6.281,6.888l0.522,3.851c0.438,3.08,3.275,5.126,6.345,4.53l3.803-0.732
		c3.053-0.586,6.893,1.097,8.539,3.744l2.046,3.29c1.646,2.638,5.073,3.345,7.621,1.572l3.175-2.215
		c2.562-1.783,6.75-1.819,9.34-0.063l3.196,2.173c2.574,1.751,5.991,0.997,7.6-1.661l2.009-3.317
		c1.619-2.669,5.427-4.398,8.492-3.84l3.823,0.676c3.049,0.543,5.869-1.53,6.26-4.615l0.485-3.855
		c0.38-3.074,3.165-6.218,6.192-6.962l3.761-0.918c3.021-0.748,4.757-3.802,3.85-6.776l-1.118-3.708
		c-0.912-2.985,0.364-6.978,2.822-8.876l3.063-2.384c2.452-1.909,2.79-5.39,0.766-7.753L129.358,73.937z M73.021,41.338
		c0.195-0.401,0.47-0.68,0.75-0.912c0.279-0.222,0.59-0.391,0.917-0.475c0.316-0.09,0.659-0.147,1.023-0.09l0.095,0.174
		c-0.29,0.623-0.59,1.097-0.802,1.524c-0.1,0.195-0.169,0.375-0.216,0.522c-0.026,0.137-0.042,0.195-0.1,0.306
		c-0.143,0.216-0.085,0.886,0.321,1.255c0.206,0.195,0.428,0.327,0.691,0.417c0.248,0.095,0.575,0.168,0.902,0.253
		c0.638,0.174,1.334,0.538,1.771,1.25c0.475,0.691,0.628,1.656,0.406,2.42c-0.227,0.76-0.67,1.34-1.177,1.767
		c-0.516,0.427-1.086,0.744-1.771,0.87l-0.143-0.148c0.169-0.659,0.375-1.186,0.538-1.692c0.153-0.517,0.274-0.971,0.322-1.319
		c0.041-0.369,0.101-0.623,0.031-0.949c-0.105-0.322-0.306-0.759-0.617-1.213c-0.307-0.448-0.86-0.791-1.372-1.107
		c-0.269-0.148-0.575-0.285-0.88-0.501c-0.317-0.206-0.633-0.511-0.786-0.975C72.763,42.25,72.837,41.713,73.021,41.338z
		 M64.493,36.544c0.258-0.527,0.611-0.955,1.002-1.297c0.39-0.327,0.817-0.585,1.276-0.775c0.432-0.195,0.906-0.327,1.408-0.359
		l0.095,0.195c-0.564,0.765-1.124,1.43-1.556,2.062c-0.2,0.333-0.364,0.644-0.47,0.913c-0.089,0.3-0.131,0.517-0.158,0.786
		c-0.068,0.517,0.222,1.424,0.865,1.978c0.316,0.279,0.696,0.522,1.092,0.691c0.385,0.153,0.859,0.279,1.312,0.475
		c0.892,0.343,1.819,0.917,2.4,1.904c0.628,0.955,0.817,2.268,0.517,3.317c-0.307,1.076-0.892,1.941-1.583,2.626
		c-0.696,0.681-1.471,1.24-2.404,1.561l-0.137-0.153c0.828-1.677,1.661-3.191,1.893-4.546c0.121-0.669,0.159-1.245-0.063-1.861
		c-0.121-0.312-0.315-0.602-0.511-0.908c-0.21-0.327-0.464-0.654-0.754-0.965c-0.576-0.585-1.414-1.071-2.178-1.588
		c-0.386-0.242-0.808-0.485-1.214-0.822c-0.406-0.322-0.796-0.775-0.991-1.397C64.145,37.778,64.24,37.093,64.493,36.544z
		 M105.472,103.799c-3.391,0-6.401-1.503-8.485-3.871c-5.838,8.392-14.329,13.701-23.818,13.701
		c-17.314,0-31.391-17.63-31.871-39.607c-0.021-0.227-0.068-0.438-0.079-0.659C41.81,61.1,56.555,54.059,73.168,53.917
		c16.625,0.142,31.375,7.183,31.951,19.445c0,0.221-0.053,0.432-0.073,0.659v-0.058c-0.048,2.463-0.285,2.731-0.676,5.073
		c0.38-0.047,0.738-0.121,1.123-0.121c6.281,0,11.381,5.121,11.381,11.392C116.874,96.6,111.774,103.799,105.472,103.799z"/>
	<path fill="#4B2D1C" d="M105.493,78.916c-0.385,0-0.743,0.074-1.123,0.121c0.391-2.342,0.628-2.61,0.676-5.073v0.058
		c0.021-0.227,0.073-0.438,0.073-0.659C104.544,61.1,89.793,54.059,73.168,53.917C56.555,54.059,41.81,61.1,41.219,73.362
		c0.011,0.221,0.058,0.432,0.079,0.659c0.48,21.978,14.557,39.607,31.871,39.607c9.489,0,17.98-5.31,23.818-13.701
		c2.084,2.368,5.095,3.871,8.485,3.871c6.303,0,11.402-7.199,11.402-13.491C116.874,84.037,111.774,78.916,105.493,78.916z
		 M93.812,81.844c-5.105,2.91-12.531,4.841-20.78,4.83c-8.259,0.021-15.695-1.92-20.8-4.83c-5.174-2.949-7.61-6.551-7.568-9.742
		c-0.047-3.228,2.405-6.835,7.568-9.762c5.105-2.927,12.542-4.842,20.8-4.836c8.249-0.005,15.675,1.909,20.78,4.836
		c5.189,2.927,7.642,6.534,7.589,9.762C101.453,75.293,99.001,78.895,93.812,81.844z M105.493,97.623
		c-2.421,0-4.361-1.667-4.952-3.887c0.828-1.794,1.55-5.775,2.173-7.722c0.812-0.527,1.725-0.902,2.779-0.924
		c2.858,0.021,5.195,2.358,5.195,5.217C110.688,93.188,108.352,97.623,105.493,97.623z"/>
	<path fill="#634E42" d="M91.228,63.242c-4.473-2.537-10.976-4.225-18.207-4.22c-7.22-0.005-13.733,1.683-18.195,4.22
		c-4.525,2.579-6.677,5.743-6.635,8.56c-0.042,2.785,2.099,5.955,6.635,8.528c0,0,6.313-13.232,16.46-3.265
		c10.137,9.969,5.005-10.537,13.138-2.605c8.132,7.926,13.433-2.658,13.433-2.658C97.898,68.974,95.763,65.82,91.228,63.242z"/>
	<path fill="#634E42" d="M65.326,39.777c0.406,0.337,0.829,0.58,1.214,0.822c0.764,0.517,1.602,1.002,2.178,1.588
		c0.29,0.311,0.543,0.638,0.754,0.965c0.196,0.306,0.39,0.596,0.511,0.908c0.222,0.617,0.185,1.192,0.063,1.861
		c-0.232,1.355-1.065,2.87-1.893,4.546l0.137,0.153c0.933-0.321,1.708-0.88,2.404-1.561c0.691-0.686,1.276-1.551,1.583-2.626
		c0.3-1.049,0.111-2.363-0.517-3.317c-0.581-0.986-1.508-1.561-2.4-1.904c-0.454-0.195-0.928-0.322-1.312-0.475
		c-0.396-0.169-0.776-0.412-1.092-0.691c-0.644-0.554-0.933-1.461-0.865-1.978c0.027-0.269,0.069-0.485,0.158-0.786
		c0.105-0.269,0.27-0.58,0.47-0.913c0.432-0.632,0.991-1.297,1.556-2.062l-0.095-0.195c-0.501,0.032-0.976,0.164-1.408,0.359
		c-0.459,0.19-0.886,0.448-1.276,0.775c-0.391,0.343-0.744,0.77-1.002,1.297c-0.253,0.548-0.348,1.234-0.159,1.835
		C64.53,39.002,64.92,39.456,65.326,39.777z"/>
	<path fill="#634E42" d="M73.712,43.69c0.306,0.216,0.611,0.354,0.88,0.501c0.512,0.316,1.065,0.659,1.372,1.107
		c0.311,0.454,0.511,0.892,0.617,1.213c0.069,0.327,0.01,0.58-0.031,0.949c-0.048,0.348-0.169,0.802-0.322,1.319
		c-0.163,0.506-0.369,1.034-0.538,1.692l0.143,0.148c0.686-0.126,1.256-0.443,1.771-0.87c0.507-0.427,0.95-1.007,1.177-1.767
		c0.222-0.764,0.068-1.729-0.406-2.42c-0.438-0.712-1.134-1.076-1.771-1.25c-0.327-0.084-0.654-0.158-0.902-0.253
		c-0.264-0.09-0.485-0.222-0.691-0.417c-0.406-0.369-0.464-1.039-0.321-1.255c0.058-0.111,0.074-0.169,0.1-0.306
		c0.047-0.147,0.117-0.327,0.216-0.522c0.211-0.427,0.512-0.902,0.802-1.524l-0.095-0.174c-0.364-0.058-0.707,0-1.023,0.09
		c-0.327,0.084-0.638,0.253-0.917,0.475c-0.28,0.232-0.555,0.511-0.75,0.912c-0.184,0.375-0.258,0.912-0.095,1.377
		C73.079,43.179,73.396,43.485,73.712,43.69z"/>
</g>
</svg>
