<?xml version="1.0" encoding="utf-8"?>
<!-- Generator: Adobe Illustrator 18.1.0, SVG Export Plug-In . SVG Version: 6.00 Build 0)  -->
<svg version="1.1" id="Layer_1" xmlns="http://www.w3.org/2000/svg" xmlns:xlink="http://www.w3.org/1999/xlink" x="0px" y="0px"
	 viewBox="0 0 150 150" enable-background="new 0 0 150 150" xml:space="preserve">
<g>
	<g>
		<path fill="#0097A2" d="M118.2,57.3L44.5,32.8c17.1,15,18,60.2,13.7,79.2c-4.3,19,14.5,23.2,20,6.2c5.5-16.9-0.8-37.5-0.8-37.5
			c11.9-5.5,17.7-18.9,19.2-22.9c-0.2,0-0.4-0.1-0.6-0.2c-0.9-0.5-1.2-1.5-0.7-2.3c0.5-0.8,1.5-1,2.4-0.5c0.9,0.5,1.2,1.5,0.7,2.3
			c-0.3,0.5-0.8,0.7-1.3,0.8c0.6,14.4,13.6,28.4,13.6,28.4c-0.1,16.6-12.1,45.4-12.1,45.4l15.5,2.6
			C133.9,92.9,118.2,57.3,118.2,57.3z"/>
		<path fill="#27628E" d="M109.6,50.6l0.5-3.5L28,21.2c20.7,18.6,25.8,67.1,25.8,67.1c3.5-34.9-15.1-61.4-15.1-61.4L109.6,50.6z"/>
		<path fill="#55924E" d="M99.7,40.5l-0.6-2.8L15.3,12.4C33.9,29.2,46.6,68,46.6,68c0.1-24.9-24-51.5-24-51.5L99.7,40.5z"/>
	</g>
	<circle fill="#0097A2" cx="94" cy="88.3" r="4.8"/>
</g>
</svg>
