<?xml version="1.0" encoding="utf-8"?>
<!-- Generator: Adobe Illustrator 18.1.0, SVG Export Plug-In . SVG Version: 6.00 Build 0)  -->
<svg version="1.0" id="Layer_1" xmlns="http://www.w3.org/2000/svg" xmlns:xlink="http://www.w3.org/1999/xlink" x="0px" y="0px"
	 viewBox="0 0 150 150" enable-background="new 0 0 150 150" xml:space="preserve">
<g>
	<g>
		<path fill="#F68C29" d="M55,87.8h-0.2l-0.2,0l-0.5,0L53,87.9c-0.6,0.1-1.3,0.1-1.9,0.2l-4.9,20.6c1.2,1,2.4,2,3.6,2.9l5.7-23.9
			l-0.2,0H55z"/>
		<path fill="#F68C29" d="M62.9,50.5l0.9-0.1l0.7-0.1l5.3-22c-1.5,0.2-3.1,0.6-4.6,1L60,50.9c0.6-0.1,1.1-0.2,1.6-0.2L62.9,50.5z"/>
		<path fill="#00649D" d="M89.9,29.7c-1.3-0.4-2.6-0.7-3.9-1l-5.3,22c1.3,0.2,2.7,0.4,4,0.7L89.9,29.7z"/>
		<path fill="#00649D" d="M71.2,90.6l-6.7,28.1c1.3,0.4,2.6,0.7,3.9,0.9L75,91.9c-0.1,0-0.2-0.1-0.4-0.1
			C73.6,91.4,72.4,91,71.2,90.6z"/>
		<path fill="#00649D" d="M42.6,55.3l3.8-16c-6.6,5.8-11.2,13.1-13.7,21.1c0.4-0.3,0.9-0.5,1.3-0.8C36.9,57.9,39.7,56.5,42.6,55.3z"
			/>
		<path fill="#F68C29" d="M108,39.8c-1.1-1-2.3-1.9-3.5-2.8l-4.8,20.2c1.2,0.6,2.4,1.4,3.6,2.1L108,39.8z"/>
		<path fill="#F68C29" d="M84.6,119.8c1.5-0.2,2.9-0.6,4.4-1l5-20.8c-1.3-0.3-2.6-0.7-3.9-1.1L84.6,119.8z"/>
		<path fill="#00649D" d="M120.1,57.3l-2,8.4c1.6,0.2,3.1,0.4,4.5,0.6C122,63.3,121.2,60.3,120.1,57.3z"/>
		<path fill="#00649D" d="M110.2,100c-0.1,0-0.2,0-0.4,0l-2.1,8.7c3.1-2.7,5.7-5.9,7.9-9.2c-0.9,0.2-1.9,0.3-2.9,0.4
			C111.5,100,110.7,100,110.2,100z"/>
		<path fill="#00649D" d="M141.1,84.5c0.5-0.1,0.7-0.2,0.7-0.2l-0.5,0C141.3,84.4,141.2,84.4,141.1,84.5z"/>
		<path fill="#00649D" d="M140.8,77.8c-0.3-1-0.8-2.1-1.7-3.2c-0.4-0.5-1-1-1.7-1.3c-0.7-0.3-1.5-0.5-2.3-0.6
			c-2.9-0.1-6.1-0.3-9.6-0.6c-3.5-0.4-7.3-0.8-11.3-1.5c-1.9-0.4-4-0.7-5.7-1.6c-0.4-0.3-0.8-0.4-1.2-0.7c-0.4-0.3-0.9-0.6-1.3-0.9
			c-0.9-0.6-1.8-1.2-2.7-1.9c-3.7-2.5-7.9-4.8-12.4-6.5c-4.5-1.7-9.3-2.8-14.2-3.2c-1.2-0.1-2.4-0.1-3.7-0.2c-0.6,0-1.2,0-1.8,0
			l-1.8,0l-1.9,0l-1.8,0.2l-1.8,0.1L63.2,56l-0.9,0.1c-4.8,0.5-9.4,1.5-13.8,2.9c-4.4,1.4-8.4,3.4-12,5.5c-1.7,1-3.4,2.1-5,3.1
			c-0.4,0.2-0.8,0.4-1.1,0.6l-0.5,0.3l-0.3,0.1l-0.2,0.1c-0.1,0-0.3,0.1-0.4,0.1l-0.7,0.1c-0.5,0.1-0.8,0.1-1.2,0.2
			c-1.6,0.1-3.4,0.2-5,0.3c-1.7,0.1-3.3,0.3-4.9,0.9c-0.4,0.1-0.8,0.3-1.2,0.5c-0.4,0.2-0.7,0.4-1.1,0.7c-0.3,0.3-0.6,0.5-0.9,0.9
			c-0.1,0.2-0.2,0.3-0.4,0.5c-0.1,0.1-0.2,0.3-0.2,0.4c-0.6,1-1.2,2.3-1.6,3.2c-0.8,2-1.2,3.6-1.4,4.7c-0.3,1.1-0.3,1.7-0.3,1.7
			l0.5,0.1c0,0,0.2-0.6,0.7-1.6c0.5-1,1.1-2.5,2.2-4.2c0.5-0.9,1-1.7,1.9-2.7l0.3-0.4l0.2-0.2c0.2-0.2,0.4-0.3,0.6-0.4
			c0.2-0.2,0.5-0.2,0.7-0.3c0.3-0.1,0.5-0.2,0.8-0.2c1.2-0.2,2.6-0.3,4.2-0.2c1.6,0,3.3,0.2,5.2,0.2c0.5,0,1.1,0,1.5-0.1l0.7-0.1
			l0.1,0l0.1,0l0.1,0l0.2-0.1l0.4-0.1l0.5-0.1l0.4-0.1L32,72c0.5-0.2,0.9-0.4,1.4-0.6c1.7-0.9,3.4-1.8,5.3-2.8
			c3.5-1.8,7.3-3.5,11.3-4.8c4-1.4,8.4-2.5,12.8-3.2l0.8-0.1l0.9-0.1l1.7-0.2l1.7-0.2l1.7-0.1l1.7-0.1c0.6,0,1.1-0.1,1.7-0.1
			c1.1,0,2.3,0,3.4,0c4.6,0.2,9.1,1.1,13.4,2.5c4.3,1.4,8.3,3.5,12,5.8c0.9,0.6,1.9,1.2,2.8,1.8c0.5,0.3,0.9,0.6,1.4,0.9
			c0.5,0.3,1.1,0.6,1.6,0.9c0.3,0.1,0.5,0.2,0.7,0.3l0.2,0.1l0.1,0l0,0c0,0,0.2,0.1,0.2,0l0.4,0.1c0.5,0.1,1.1,0.3,1.6,0.4
			c1.1,0.2,2.1,0.3,3.1,0.5c4.1,0.5,7.9,0.7,11.5,0.9c3.6,0.1,6.9,0.2,9.7,0.1c1.3,0,2.4,0.5,3.2,1.3c0.8,0.8,1.3,1.8,1.7,2.7
			c0.7,1.9,1,3.5,1.1,4.6c0.1,1.1,0.1,1.7,0.1,1.7l0.5,0c0,0,0-0.6-0.1-1.7C141.6,81.5,141.5,79.9,140.8,77.8z"/>
		<path fill="#00649D" d="M73.1,69.2h0.6h24.5c0,0-13.2-7-24.5-6v-0.1c-14.9,1.6-18.8,6.1-18.8,6.1H73.1z"/>
		<path fill="#00649D" d="M141.3,84.4c0,0-0.1,0.1-0.3,0.2c-0.2,0-0.4,0.1-0.6,0.2c-1,0.2-2.4,0.5-4.2,0.9c-1.8,0.4-4,0.8-6.5,1.2
			c-1.2,0.2-2.6,0.4-4,0.5c-1.4,0.1-2.8,0.3-4.4,0.3c-0.8,0-1.6,0-2.4,0l-0.6,0H118h-0.2h0c0,0,0,0,0,0h0c-0.4,0-0.8-0.1-1.1-0.1
			c-0.8-0.1-1.6-0.3-2.4-0.4c-0.8-0.1-1.6-0.4-2.5-0.6c-3.4-0.9-6.9-2.2-10.6-3.5c-3.7-1.3-7.5-2.7-11.5-4c-4-1.3-8-2.5-12.2-3.5
			c-1-0.3-2.1-0.5-3.1-0.7c-1.1-0.2-2.1-0.4-3.2-0.6C70,74,69,73.9,67.9,73.7c-1.1-0.1-2.2-0.2-3.3-0.3l-0.8-0.1l-0.8,0l-1.5,0
			c-0.5,0-1.1,0-1.6,0c-0.5,0-1,0.1-1.6,0.1c-2.1,0.1-4.1,0.2-6.1,0.3c-4,0.4-7.8,0.8-11.4,1.4c-1.8,0.3-3.5,0.5-5.2,0.9
			c-1.7,0.3-3.3,0.7-4.8,1c-3.1,0.6-5.9,1.4-8.4,2.1c-2.5,0.7-4.6,1.3-6.4,1.9c-1.8,0.6-3.1,1.1-4,1.5C11,82.8,10.5,83,10.5,83
			s0.5-0.1,1.5-0.3c1-0.3,2.4-0.5,4.2-0.8c0.9-0.2,1.9-0.3,3-0.5c1.1-0.2,2.3-0.4,3.5-0.6c1.3-0.2,2.6-0.3,4-0.5
			c1.4-0.2,2.9-0.4,4.5-0.6c1.6-0.2,3.2-0.4,4.9-0.6c1.7-0.2,3.4-0.3,5.2-0.5c3.6-0.4,7.3-0.5,11.2-0.8c1.9,0,3.9,0,5.9-0.1
			c0.5,0,1,0,1.5,0l1.4,0.1l1.5,0.1l0.8,0l0.7,0.1c1,0.1,1.9,0.2,2.9,0.4c1,0.2,2,0.3,3,0.5c1,0.2,2,0.4,3,0.6c1,0.2,2,0.4,3,0.7
			c4,0.9,8,2.2,11.9,3.3c3.9,1.2,7.8,2.4,11.6,3.5c3.8,1.2,7.5,2.2,11.1,2.9c0.9,0.2,1.8,0.4,2.7,0.5c0.9,0.1,1.8,0.3,2.7,0.3
			c0.5,0,0.9,0,1.4,0h0h0.1l0.1,0l0.2,0l0.3,0l0.6-0.1c0.8-0.1,1.6-0.2,2.4-0.2l0.6-0.1l0.6-0.1c0.4-0.1,0.8-0.1,1.2-0.2
			c0.8-0.1,1.5-0.3,2.2-0.4c1.4-0.3,2.8-0.7,4-1c1.2-0.4,2.4-0.7,3.5-1.1c1.1-0.3,2-0.7,2.9-1c0.9-0.3,1.6-0.6,2.3-0.9
			c0.3-0.1,0.5-0.2,0.7-0.3c-0.8,0.4-1.9,1-3.3,1.6c-1.7,0.8-3.7,1.7-6.1,2.6c-2.4,0.9-5.2,1.8-8.2,2.5c-3,0.7-6.4,1.3-9.9,1.4
			c-0.9,0.1-1.8,0-2.7,0c-0.4,0-1,0-1.3,0c-0.5,0-0.9-0.1-1.4-0.1c-0.5,0-1-0.1-1.4-0.1c-0.5-0.1-0.9-0.1-1.4-0.2
			c-0.9-0.1-1.9-0.2-2.8-0.5c-3.8-0.8-7.7-2-11.6-3.3c-3.9-1.3-7.9-2.9-11.9-4.3c-4-1.4-8.2-2.7-12.4-3.5c-1-0.2-2.1-0.4-3.2-0.5
			c-1.1-0.2-2.1-0.2-3.2-0.2l-0.8,0h-0.3h-0.2l-0.4,0c-0.5,0-1,0-1.5,0.1c-1,0-2.1,0.2-3.1,0.3c-4.1,0.4-7.9,1.2-11.4,2
			c-3.6,0.8-6.9,1.7-10,2.6c-6.1,1.8-11.2,3.5-14.7,4.6c-1.8,0.6-3.2,1-4.1,1.2c-1,0.2-1.5,0.4-1.5,0.4s0.5-0.1,1.5-0.2
			c1-0.2,2.4-0.4,4.2-0.8c3.6-0.8,8.8-2,15-3.4c3.1-0.7,6.5-1.4,10-2.1c3.6-0.6,7.4-1.2,11.2-1.6c1-0.1,1.9-0.2,2.9-0.2
			c0.5,0,1,0,1.5,0h0.4l0.2,0c0,0,0.1,0,0.1,0l0.7,0c1,0.1,2,0.1,2.9,0.3c1,0.1,2,0.2,3,0.5c4,0.8,7.9,2.1,11.9,3.5
			c4,1.4,8,2.9,12,4.2c4,1.3,8,2.4,12.1,3.2c1,0.2,2,0.3,3,0.4c0.5,0.1,1,0.1,1.5,0.2c0.5,0,1,0,1.4,0.1c0.5,0,1,0,1.4,0.1
			c0.6,0,1,0,1.5,0c1-0.1,1.9,0,2.9-0.1c3.7-0.3,7.2-1.1,10.3-2.1c1.5-0.4,3-1,4.4-1.5c1.4-0.6,2.6-1.1,3.8-1.7
			c2.4-1.1,4.4-2.2,6-3.1c1.6-0.9,2.8-1.8,3.6-2.4c0.2-0.1,0.3-0.2,0.5-0.3c0.8-0.4,1.2-0.6,1.2-0.6s-0.2,0.1-0.7,0.2
			C141.2,84.4,141.3,84.4,141.3,84.4z"/>
	</g>
	<path fill="#00649D" d="M35.9,89.1L32.4,99c-2.3-6.1-1.8-9.1-1.8-9.1C30.8,90.3,35.9,89.1,35.9,89.1z"/>
	<path fill="#F68C29" d="M34.3,82.8c0,0-15,0.8-30,8.4C4.3,91.1,12.9,81.8,34.3,82.8z"/>
	<path fill="#F68C29" d="M94.3,78.3c0,0,13.6,6.4,29.9,7.7C124.2,86,112.9,89,94.3,78.3z"/>
</g>
</svg>
