<?xml version="1.0" encoding="utf-8"?>
<!-- Generator: Adobe Illustrator 18.1.0, SVG Export Plug-In . SVG Version: 6.00 Build 0)  -->
<svg version="1.1" id="Layer_1" xmlns="http://www.w3.org/2000/svg" xmlns:xlink="http://www.w3.org/1999/xlink" x="0px" y="0px"
	 viewBox="0 0 150 150" enable-background="new 0 0 150 150" xml:space="preserve">
<g>
	<path fill="#8BC540" d="M64.9,57.4c0,0,25.7-5.1,26.8-27.6c1.1-22.6,4.3-23.3,4.3-23.3S54.6,9.2,64.9,57.4"/>
	<path fill="#8BC540" d="M58.8,38.5c0-4.1,0.7-8,2-11.7c-8.6-4.1-20.6-5-37.5,2.5c0,0,10.2,24.1,32.5,20.6c1.6-0.3,3.2-0.5,4.6-0.7
		C59.3,45.8,58.8,42.2,58.8,38.5z"/>
	<path fill="#BE1E2D" d="M74.1,139c-4.9-2-9.6-5-13.7-8.8c-4.1-3.8-7.6-8.5-10.2-13.6c-2.6-5.2-4.4-10.8-5.3-16.5
		c-0.8-5.7-0.8-11.5,0.1-17c0.9-5.5,2.5-10.7,4.7-15.4c-4.1,10.8-4.8,22.7-2.4,33.4c2.4,10.8,8,20.4,15.6,27.2
		c5.5,5,12,8.5,18.8,10.3c1.1-0.4,2.1-0.8,3.1-1.3c-1.1-0.3-2.1-0.6-3.1-0.9c-6.4-2.2-12.3-6-17-11.1c-4.7-5.1-8.1-11.3-10-18.1
		c-1.9-6.7-2.2-13.9-0.9-20.8c1.3-6.9,4.2-13.4,8.5-18.8c1.4-1.8,3-3.4,4.7-4.9c-4.5,0-9.7,1.3-13.9,2.6C35.3,71,28,91.3,33.8,109.5
		C39.4,127,59.6,143.9,77,140C76,139.7,75.1,139.4,74.1,139z"/>
	<path fill="#EE4036" d="M69.2,62.8c-1.8,1.8-3.5,3.8-4.9,5.8c-3.7,5.4-6,11.4-6.9,17.6c-0.9,6.2-0.5,12.6,1.2,18.6
		c1.7,6,4.8,11.6,9,16.2c4.2,4.6,9.5,8.2,15.5,10.4c2.6,0.9,5.3,1.6,8,1.9c0.5-0.5,1-0.9,1.5-1.4c5.2,0.9,10.2-0.5,15.5-2.2
		c0,0,0.1,0,0.1,0c-0.8,0.2-1.5,0.4-2.3,0.5c-4.5,0.9-9.1,1-13.4,0.2c-4.3-0.7-8.4-2.2-11.9-4.3c-7.2-4.2-12.2-11.1-14.3-18.1
		c-2.2-7.1-1.5-14.1,0.8-19.6c2.3-5.3,6.3-9.1,10.6-10.9c2.2-0.9,4.3-1.3,6.7-1.3c2.3,0.1,4.6,0.6,6.8,1.6c2.2,1.1,4.4,2.7,6.3,4.9
		c1.9,2.2,3.4,5,4.4,8.4c0.3,1.4-0.2,0.4-1-0.9c-0.8-1.4-2-3-2.7-3.8c-3.6-4-7.7-5.5-11-5.7c-0.8-0.1-1.6,0-2.4,0
		c-0.8,0.1-1.6,0.2-2.3,0.4c-1.4,0.4-2.8,0.9-4.2,1.7c-1.4,0.8-2.7,1.9-3.9,3.3c-1.2,1.4-2.3,3-3.1,5.1c-0.8,2.2-1.4,4.5-1.4,7.2
		c-0.1,2.7,0.3,5.6,1.4,8.6c2,5.9,6.6,11.8,13.3,15.3c3.3,1.8,7.1,2.9,11.1,3.4c4,0.4,8.2,0.1,12.4-0.8c4.6-1.1,9.1-3,13.3-5.5
		c7.7-10.9,10-27.4,6-40c-5.8-18.2-24.6-30.9-42.3-25.2c-5.3,1.7-11,5-14.7,8.7C70.1,62.8,69.7,62.8,69.2,62.8z M81.8,62.2
		c2.9-0.7,5.9-0.8,8.9-0.4c6,0.8,11.9,4.1,16.3,9c-2.2,0.8-4.5,1.1-6.6,1.2c-2.2,0.1-4.3-0.1-6.5-0.2c-2.1-0.1-4.3-0.2-6.4-0.1
		c-2.1,0.1-4.4,0.3-6.6,0.8c-2.2,0.5-4.4,1.3-6.6,2.6c-2.1,1.2-4.2,2.9-6,4.9c-1.8,2-3.3,4.3-4.4,6.8c-1.1,2.5-1.9,5.2-2.3,7.8
		c-0.7-4.9-0.2-10.4,1.8-15.6c2-5.2,5.6-10.1,10.5-13.3C76.2,64.1,78.9,62.9,81.8,62.2z"/>
</g>
</svg>
