<?xml version="1.0" encoding="utf-8"?>
<!-- Generator: Adobe Illustrator 14.0.0, SVG Export Plug-In . SVG Version: 6.00 Build 43363)  -->
<!DOCTYPE svg PUBLIC "-//W3C//DTD SVG 1.1//EN" "http://www.w3.org/Graphics/SVG/1.1/DTD/svg11.dtd">
<svg version="1.1" id="Layer_1" xmlns="http://www.w3.org/2000/svg" xmlns:xlink="http://www.w3.org/1999/xlink" x="0px" y="0px"
	 width="150px" height="150px" viewBox="0 0 150 150" enable-background="new 0 0 150 150" xml:space="preserve">
<path fill="#00AF70" d="M36.382,42.451c1.428-1.728,3.004-3.312,4.651-4.828l-25.274-8.217l1.184,1.539l0.043,0.331
	c1.262,10.265,3.736,23.491,8.562,36.988C26.572,58.513,30.466,49.619,36.382,42.451z"/>
<path fill="#00AF70" d="M84.382,120.873c-3.374,0.74-6.87,1.159-10.467,1.159c-2.516,0-4.965-0.251-7.377-0.617
	c2.684,1.554,5.494,2.987,8.47,4.262C78.321,124.258,81.429,122.638,84.382,120.873z"/>
<path fill="#00AF70" d="M122.549,73.251c5.915-14.741,8.855-29.497,10.306-40.68l0.041-0.324l1.046-1.373
	c0.067-0.569,0.137-1.141,0.198-1.694l-26.977,8.773C116.586,46.798,122.509,59.317,122.549,73.251z"/>
<path fill="#00264B" d="M97.543,134.745c-3.695-0.952-7.112,0.293-7.628,2.788c-0.525,2.499,2.061,5.285,5.764,6.24
	c3.697,0.959,9.796-2.23,9.796-2.23S101.245,135.702,97.543,134.745z"/>
<path fill="#00264B" d="M89.429,124.725c-1.8,2.777-1.955,6.04-0.352,7.279c1.605,1.232,4.358-0.029,6.161-2.808
	c1.795-2.784,1.401-8.909,1.401-8.909S91.224,121.937,89.429,124.725z"/>
<path fill="#00264B" d="M99.097,119.955c-1.075,3.201-0.463,6.402,1.375,7.155c1.844,0.752,4.197-1.233,5.272-4.429
	c1.081-3.203-0.748-9.039-0.748-9.039S100.178,116.76,99.097,119.955z"/>
<path fill="#00264B" d="M109.16,112.609c-0.908,3.269-0.138,6.423,1.732,7.061c1.882,0.646,4.129-1.489,5.045-4.749
	c0.901-3.269-1.221-8.982-1.221-8.982S110.065,109.339,109.16,112.609z"/>
<path fill="#00264B" d="M120.614,110.056c1.709,0.235,3.344-1.999,3.667-4.989c0.31-2.993-2.358-7.587-2.358-7.587
	s-3.533,3.757-3.843,6.746C117.777,107.221,118.91,109.834,120.614,110.056z"/>
<path fill="#00264B" d="M124.332,95.237c-0.044,2.761,1.197,5.04,2.775,5.087c1.582,0.069,2.896-2.145,2.938-4.903
	c0.038-2.762-2.75-6.711-2.75-6.711S124.381,92.48,124.332,95.237z"/>
<path fill="#00264B" d="M131.73,89.741c1.325-0.239,2.09-2.306,1.719-4.625c-0.374-2.315-3.291-5.124-3.291-5.124
	s-1.869,3.662-1.489,5.974C129.041,88.285,130.411,89.967,131.73,89.741z"/>
<path fill="#00264B" d="M135.795,75.69c-0.352-2.314-3.268-5.141-3.268-5.141s-1.887,3.651-1.508,5.976
	c0.356,2.313,1.722,4.008,3.037,3.777C135.384,80.08,136.156,78.012,135.795,75.69z"/>
<path fill="#00264B" d="M102.419,134.531c-0.096,2.552,2.885,4.814,6.679,5.047c3.788,0.235,9.266-4.093,9.266-4.093
	s-5.098-4.941-8.899-5.17C105.68,130.09,102.531,131.97,102.419,134.531z"/>
<path fill="#00264B" d="M118.74,122.761c-3.739,0.63-6.447,3.21-6.062,5.739c0.394,2.535,3.739,4.064,7.481,3.427
	c3.732-0.627,8.255-6.109,8.255-6.109S122.479,122.126,118.74,122.761z"/>
<path fill="#00264B" d="M126.934,113.88c-2.891,1.456-4.554,4.234-3.695,6.193c0.854,1.967,3.891,2.386,6.783,0.938
	c2.897-1.456,5.411-7.05,5.411-7.05S129.848,112.427,126.934,113.88z"/>
<path fill="#00264B" d="M132.616,102.473c-2.665,2.102-3.826,5.278-2.603,7.087c1.222,1.813,4.369,1.569,7.017-0.534
	c2.655-2.094,4.148-8.312,4.148-8.312S135.268,100.368,132.616,102.473z"/>
<path fill="#00264B" d="M135.564,98.018c1.235,1.48,3.995,0.952,6.172-1.176c2.175-2.122,2.98-7.789,2.98-7.789
	s-5.271,0.287-7.45,2.417C135.097,93.601,134.329,96.53,135.564,98.018z"/>
<path fill="#00264B" d="M138.352,86.914c1.109,1.149,3.333,0.532,5.003-1.368c1.669-1.896,2.01-6.616,2.01-6.616
	s-4.315,0.589-5.98,2.486C137.714,83.324,137.264,85.782,138.352,86.914z"/>
<path fill="#00264B" d="M138.726,78.697c1.298,0.834,3.301-0.301,4.516-2.54c1.202-2.223,0.556-6.846,0.556-6.846
	s-4,1.61-5.215,3.85C137.382,75.397,137.449,77.864,138.726,78.697z"/>
<path fill="#00264B" d="M117.997,118.368c5.386-5.6,10.066-12.022,13.609-19.154c1.75-3.582,3.206-7.341,4.167-11.263
	c0.939-3.92,1.386-8.045,0.847-12.064l-0.214,0.012c0.704,8.101-2.138,15.899-5.752,22.718c-3.675,6.884-8.452,13.035-13.863,18.343
	c-5.441,5.28-11.613,9.609-18.16,12.945c-6.55,3.378-13.725,5.367-21.143,5.346l-0.021,0.239c7.426,1.413,15.144-0.284,22.062-3.393
	C106.499,128.911,112.606,123.957,117.997,118.368z"/>
<path fill="#00264B" d="M53.253,134.745c-3.702,0.957-7.933,6.798-7.933,6.798s6.102,3.189,9.794,2.23
	c3.706-0.955,6.289-3.741,5.767-6.24C60.363,135.038,56.945,133.793,53.253,134.745z"/>
<path fill="#00264B" d="M61.716,132.004c1.604-1.239,1.448-4.502-0.352-7.279c-1.794-2.788-7.212-4.438-7.212-4.438
	s-0.393,6.125,1.404,8.909C57.356,131.975,60.113,133.236,61.716,132.004z"/>
<path fill="#00264B" d="M50.323,127.11c1.836-0.753,2.449-3.954,1.373-7.155c-1.078-3.195-5.898-6.312-5.898-6.312
	s-1.828,5.836-0.75,9.039C46.129,125.877,48.48,127.862,50.323,127.11z"/>
<path fill="#00264B" d="M39.903,119.67c1.867-0.638,2.637-3.792,1.73-7.061c-0.905-3.271-5.557-6.671-5.557-6.671
	s-2.12,5.714-1.221,8.982C35.771,118.181,38.016,120.315,39.903,119.67z"/>
<path fill="#00264B" d="M32.715,104.226c-0.311-2.989-3.84-6.746-3.84-6.746s-2.674,4.594-2.363,7.587
	c0.321,2.99,1.955,5.225,3.669,4.989C31.883,109.834,33.015,107.221,32.715,104.226z"/>
<path fill="#00264B" d="M23.687,100.324c1.58-0.047,2.818-2.326,2.774-5.087c-0.049-2.757-2.963-6.527-2.963-6.527
	s-2.787,3.949-2.746,6.711C20.79,98.18,22.104,100.394,23.687,100.324z"/>
<path fill="#00264B" d="M17.346,85.116c-0.373,2.319,0.39,4.386,1.72,4.625c1.316,0.226,2.687-1.456,3.059-3.775
	c0.38-2.312-1.489-5.974-1.489-5.974S17.716,82.801,17.346,85.116z"/>
<path fill="#00264B" d="M14.999,75.69c-0.359,2.322,0.413,4.39,1.74,4.613c1.315,0.23,2.681-1.464,3.038-3.777
	c0.375-2.325-1.51-5.976-1.51-5.976S15.353,73.375,14.999,75.69z"/>
<path fill="#00264B" d="M48.374,134.531c-0.111-2.562-3.261-4.441-7.043-4.216c-3.801,0.229-8.9,5.17-8.9,5.17
	s5.477,4.328,9.267,4.093C45.488,139.346,48.47,137.083,48.374,134.531z"/>
<path fill="#00264B" d="M38.111,128.5c0.391-2.529-2.319-5.109-6.058-5.739c-3.739-0.635-9.675,3.057-9.675,3.057
	s4.524,5.482,8.253,6.109C34.373,132.564,37.724,131.035,38.111,128.5z"/>
<path fill="#00264B" d="M27.56,120.073c0.854-1.959-0.812-4.737-3.7-6.193c-2.912-1.453-8.496,0.082-8.496,0.082
	s2.51,5.594,5.409,7.05C23.666,122.459,26.701,122.04,27.56,120.073z"/>
<path fill="#00264B" d="M20.78,109.56c1.223-1.809,0.062-4.985-2.601-7.087c-2.653-2.104-8.563-1.76-8.563-1.76
	s1.494,6.219,4.15,8.312C16.415,111.129,19.557,111.373,20.78,109.56z"/>
<path fill="#00264B" d="M15.229,98.018c1.239-1.487,0.468-4.417-1.701-6.548c-2.18-2.13-7.449-2.417-7.449-2.417
	s0.806,5.667,2.979,7.789C11.233,98.97,13.995,99.498,15.229,98.018z"/>
<path fill="#00264B" d="M12.444,86.914c1.086-1.132,0.636-3.59-1.035-5.498c-1.665-1.897-5.98-2.486-5.98-2.486
	s0.344,4.72,2.012,6.616C9.105,87.446,11.332,88.063,12.444,86.914z"/>
<path fill="#00264B" d="M12.066,78.697c1.277-0.833,1.347-3.3,0.147-5.536c-1.212-2.24-5.215-3.85-5.215-3.85
	s-0.649,4.623,0.556,6.846C8.767,78.396,10.773,79.531,12.066,78.697z"/>
<path fill="#00264B" d="M52.162,129.905c-6.546-3.336-12.716-7.665-18.156-12.945c-5.412-5.308-10.199-11.459-13.864-18.343
	C16.524,91.798,13.682,84,14.388,75.899l-0.214-0.012c-0.539,4.02-0.093,8.145,0.848,12.064c0.959,3.922,2.415,7.681,4.166,11.263
	c3.545,7.132,8.225,13.555,13.608,19.154c5.394,5.589,11.5,10.543,18.467,13.729c6.919,3.108,14.637,4.806,22.061,3.393
	l-0.016-0.239C65.889,135.272,58.711,133.283,52.162,129.905z"/>
<path fill="#F1F1F1" d="M36.382,42.451c6.296-7.628,14.893-13.254,24.706-15.935c-7.594,2.074-14.428,5.931-20.054,11.107
	C39.386,39.139,37.81,40.724,36.382,42.451z"/>
<path fill="#F1F1F1" d="M122.556,73.392c0-0.047-0.007-0.093-0.007-0.14c-0.04-13.935-5.963-26.454-15.386-35.297
	C98.464,29.787,86.791,24.75,73.917,24.75c0,0,0,0-0.002,0c26.864,0,48.639,21.778,48.639,48.642c0,2.417-0.235,4.772-0.576,7.097
	C122.32,78.17,122.556,75.811,122.556,73.392z"/>
<path fill="#00264B" d="M121.938,80.745c7.878-16.939,11.548-34.547,13.254-47.53l3.225-4.243l0.028-0.367
	c0.612-9.032,0.006-18.415,0-18.508l-0.099-1.443L75.808,24.111L13.25,8.652l-0.084,1.453c-0.005,0.107-0.613,10.526,0,19.553
	l0.025,0.372l1.453,1.882c1.464,11.724,4.491,27.157,10.682,42.516c0.453,21.412,14.705,39.424,34.247,45.448
	c4.535,3.162,9.51,5.944,14.976,8.243l0.46,0.199l0.46-0.199c6.339-2.666,12.001-6,17.093-9.806
	C107.988,111.901,119.35,97.769,121.938,80.745z M96.816,32.92c10.014,5.691,17.715,14.974,21.333,26.094
	c-1.256,0.918-4.41,3.281-5.984,4.959L98.486,52.452c0.017-0.067,0.02-0.131,0.02-0.194c-0.097-1.87-3.138-11.017-5.02-13.835
	l3.85-5.112L96.816,32.92z M116.999,90.913c-4.527,11.095-13.22,20.058-24.129,24.944l-4.175-9.3
	c2.51-2.299,7.682-13.149,8.025-16.189l13.774-5.445C111.745,86.446,115.464,89.62,116.999,90.913z M70.083,103.574l-13.815,8.707
	l-12.732-11.242l-3.752-17.488c2.733-0.683,9.334-4.183,11.462-6.081l15.553,10.465C66.554,91.461,69.004,100.876,70.083,103.574z
	 M16.986,31.276l-0.043-0.331l-1.184-1.539l25.274,8.217c5.626-5.176,12.46-9.034,20.054-11.107
	c-9.812,2.681-18.41,8.307-24.706,15.935c-5.916,7.167-9.81,16.062-10.834,25.812C20.723,54.767,18.249,41.541,16.986,31.276z
	 M43.585,29.316l-4.313-1.719l-2.965,3.571l0.299-4.631l-4.31-1.72l4.497-1.145l0.305-4.631l2.474,3.923l4.5-1.143l-2.969,3.571
	L43.585,29.316z M19.58,18.069l0.306-4.631l2.479,3.923l4.497-1.143l-2.966,3.571l2.478,3.924l-4.311-1.719l-2.968,3.568
	l0.302-4.631l-4.307-1.717L19.58,18.069z M68.389,49.564c0.029,0.106,0.083,0.225,0.15,0.349l-16.515,8.809
	c-2.189-1.699-8.602-4.359-10.991-4.465l4.062-13.833l14.8-8.549l12.22,4.551C70.926,39.276,67.746,47.269,68.389,49.564z
	 M41.661,39.917l1.867,0.587L39.236,55.11c-2.888,2.728-7.417,11.3-8.356,14.097l-3.328,0.543
	C28.461,58.071,33.698,47.594,41.661,39.917z M52.053,76.223c0.773-2.86,1.513-13.334,0.825-16.274l16.566-8.835
	c2.94,3.17,11.052,8.277,14.443,9.029l-1.045,17.63c-3.193,0.426-13.424,6.385-15.519,8.725L52.053,76.223z M84.31,78.172
	l1.06-18.022c3.077-0.597,9.869-4.103,12.271-6.47l13.644,11.499c-0.684,1.81-1.746,14.591-1.333,18.361l-13.707,5.419
	C94.317,86.263,87.221,79.85,84.31,78.172z M92.34,37.476c-2.885-0.958-15.811-3.061-19.239-2.268l-12.69-4.726v-1.604
	c4.276-1.3,8.812-2.004,13.505-2.004c8.023,0,15.576,2.036,22.17,5.626L92.34,37.476z M27.396,73.392
	c0-0.711,0.023-1.417,0.052-2.118l3.364-0.551c0.737,3.217,5.502,10.49,7.372,12.438l3.705,17.282l-4.959,1.122
	C30.955,93.74,27.396,83.974,27.396,73.392z M56.795,113.708l14.314-9.034c3.007,1.413,13.037,2.261,16.158,2.318l4.24,9.454
	c-5.43,2.229-11.366,3.464-17.593,3.464c-6.04,0-11.816-1.173-17.12-3.276V113.708z M73.915,122.032
	c3.597,0,7.093-0.419,10.467-1.159c-2.953,1.765-6.061,3.385-9.374,4.804c-2.976-1.274-5.786-2.708-8.47-4.262
	C68.95,121.781,71.399,122.032,73.915,122.032z M122.554,73.392c0-26.863-21.774-48.642-48.639-48.642c0.002,0,0.002,0,0.002,0
	c12.874,0,24.546,5.037,33.246,13.205l26.977-8.773c-0.062,0.553-0.131,1.125-0.198,1.694l-1.046,1.373l-0.041,0.324
	c-1.45,11.183-4.391,25.939-10.306,40.68c0,0.047,0.007,0.093,0.007,0.14c0,2.419-0.235,4.778-0.578,7.097
	C122.318,78.164,122.554,75.808,122.554,73.392z M120.21,17.536l4.244,1.877l3.1-3.457l-0.476,4.621l4.243,1.879l-4.535,0.973
	l-0.476,4.618l-2.329-4.013l-4.539,0.972l3.098-3.457L120.21,17.536z M108.586,31.682l-3.746-2.733l-3.761,2.718l1.443-4.411
	l-3.749-2.733l4.641,0.007l1.443-4.411l1.424,4.416l4.646,0.011l-3.764,2.72L108.586,31.682z"/>
</svg>
