<?xml version="1.0" encoding="utf-8"?>
<!-- Generator: Adobe Illustrator 18.1.0, SVG Export Plug-In . SVG Version: 6.00 Build 0)  -->
<svg version="1.0" id="Layer_1" xmlns="http://www.w3.org/2000/svg" xmlns:xlink="http://www.w3.org/1999/xlink" x="0px" y="0px"
	 viewBox="0 0 150 150" enable-background="new 0 0 150 150" xml:space="preserve">
<g>
	<path fill="#FFD500" d="M76.5,69.7c-0.5-4,0.9-8.8,2.7-13.1l-9.4-29l-9.7,29.7H28.8l25.3,18.4l-9.7,29.7l6.6-4.8
		C49.5,79.8,76.5,69.7,76.5,69.7z"/>
	<path fill="#EE3E3A" d="M35.1,118.6c1.8,1,3.9,1.7,7,1.7c11.8,0,16.1-3.2,17.5-4.9c0.6-0.7,0.8-1.2,0.8-1.2s2.4,2.6,4.7,4.1
		c0.8,0.5,1.6,0.9,2.2,1.1c2.8,0.6,27.7,0.2,27.7,0.2s3.4-4.8-5.1-6.7c-1-0.5-2.4-1-4.3-1.3c1-1.8,3.6-6.9,2.5-11
		c0-0.1,0-0.2-0.1-0.3L89,100l2.6-0.4c0,0,5.1,13.5,9,18.4c0.3,0.4,0.6,0.8,0.9,1.1l8.2,0.2c0,0,2.6-1.2-4-6.2
		c-6.6-5-5.2-21.1-4-26.3c1.2-5,1.4-16.7-0.2-22.9c-0.1-0.2-0.1-0.5-0.2-0.7c-0.2-0.7-0.4-1.3-0.5-1.7c0.1,0,0.2,0,0.2,0
		c0.2,0.4,0.3,0.7,0.3,0.7s0.8,0.2,2.1,0.4c3.4,0.4,9.8,0.6,11.5-4.5c0,0,2.8-1.2,2.2-3.8c0,0-9-4-10.5-4.8c0,0-1.2-3.6-4.6-4.8
		c0,0,1.2-4.9-0.4-5.7c0,0-1.2,0.8-2.5,1.7c-1.5,1-3,2.2-3.2,2.7c0,0-0.1-1.8-0.4-3.6c-0.2-1.4-0.5-2.7-1-3.2c0,0-1.1,0.7-2.3,1.9
		c-1.9,1.9-4.3,4.9-4.1,8.6c0,0-9.6,14.3-8.4,23.9c0,0-32.3,12-24.3,36.8c0,0-8,3.5-17.9-0.7c-0.3-0.1-0.6-0.3-0.9-0.4
		c-1-0.4-2-0.9-3-1.5c-0.6-0.4-1.3-0.9-1.9-1.3c-0.6-0.4-1.1-0.7-1.7-1.2c0,0-0.1,0.4-0.2,0.9c0,0.3-0.1,0.6-0.1,0.9
		C29.2,107.9,29.1,115.3,35.1,118.6z"/>
	<g>
		<path fill="#EE3E3A" d="M13,85.2C13,50.5,41.1,22.5,75.8,22.4c34.7,0,62.7,28.1,62.8,62.8c0,12.9-3.9,24.8-10.6,34.8h5.8
			c6.1-10.2,9.7-22.1,9.7-34.8c0-37.4-30.3-67.8-67.8-67.8C38.3,17.5,8,47.8,8,85.2c0,12.7,3.6,24.6,9.7,34.8h5.8
			C16.9,110.1,13,98.1,13,85.2z"/>
	</g>
	<polygon fill="#FFD500" points="131,126.9 22,126.9 18.6,123.1 132.7,123.1 	"/>
	<polygon fill="#FFD500" points="128.7,133.5 26.5,133.5 23,129.7 130.3,129.7 	"/>
</g>
</svg>
