<?xml version="1.0" encoding="utf-8"?>
<!-- Generator: Adobe Illustrator 18.1.0, SVG Export Plug-In . SVG Version: 6.00 Build 0)  -->
<svg version="1.1" id="Layer_1" xmlns="http://www.w3.org/2000/svg" xmlns:xlink="http://www.w3.org/1999/xlink" x="0px" y="0px"
	 viewBox="0 0 150 150" enable-background="new 0 0 150 150" xml:space="preserve">
<g>
	<g>
		<path fill="#B3D234" d="M83.6,28.6c-15.1-15.1-39.6-15.1-54.7,0c-15.1,15.1-15.1,39.6,0,54.7c5.4,5.4,12,8.9,18.9,10.4
			c-9.6-0.8-19-4.9-26.4-12.3c-16.6-16.6-16.6-43.6,0-60.2C38,4.6,64.9,4.6,81.6,21.2c7,7,11.1,15.9,12.1,25
			C92,39.8,88.7,33.7,83.6,28.6z"/>
	</g>
	<g>
		<path fill="#B3D234" d="M138.4,85.9c0.1-0.9,0.2-1.9,0.2-2.8c0-5.8-2.9-10.9-7.4-13.9c-7.7,4.6-16.3,7.9-25.3,8.4
			c-0.6,1.7-0.9,3.6-0.9,5.5c0,8.1,5.7,14.8,13.2,16.4C123.8,93.6,130.8,89.2,138.4,85.9z"/>
		<path fill="#9DBA2E" d="M121.3,99.8c0.2,0,0.3,0,0.5,0c7.2,0,13.3-4.5,15.7-10.9C131.5,91.7,126,95.3,121.3,99.8z"/>
		<path fill="#9DBA2E" d="M128.8,67.7c-2.1-1-4.5-1.5-7-1.5c-6.3,0-11.9,3.5-14.7,8.7C114.7,74.3,122,71.6,128.8,67.7z"/>
	</g>
	<g>
		<path fill="#7DA23F" d="M80.7,40.8c-15.9-15.9-36.2-18.7-47-8c-10.8,10.7-7.9,31.1,8,47c8.5,8.5,18.6,13.6,27.8,14.9L69.5,95
			c0.1,0,15.2,2.9,21.5,5.6c4.9,2.1,10.1,5.6,12.2,7l-0.7,0.7l0.7,0.7l28.1,28.1l0.2,2.5l0.2,0.3l2.2,2.2l9.4-9.4l-2.6-2.7h-2.9
			l-28.5-28.5l-0.6,0.6c-1.5-2.1-4.9-7.3-7-12.2C99,83.7,96.1,68.6,96,68.5l-0.4,0.1C94.3,59.3,89.2,49.2,80.7,40.8z M44.4,77.1
			c-0.5-0.5-1-1.1-1.5-1.6l1.8-1.8l4.6,4.6L47.6,80C46.5,79.1,45.4,78.1,44.4,77.1z M50.4,77.2l-4.6-4.6l4.6-4.6l4.6,4.6L50.4,77.2z
			 M56,73.7l4.6,4.6L56,82.9l-4.6-4.6L56,73.7z M44.7,71.5l-4.6-4.6l4.6-4.6l4.6,4.6L44.7,71.5z M39,65.9l-4.6-4.6l4.6-4.6l4.6,4.6
			L39,65.9L39,65.9z M33.4,60.2L33,59.9c-0.9-2.4-1.4-4.7-1.7-7l2-1.9l4.7,4.6L33.4,60.2z M39,68l4.6,4.6l-1.8,1.7
			c-1.5-1.7-2.8-3.4-4-5.2L39,68z M37,67.9c-0.9-1.4-1.7-2.8-2.3-4.2l3.3,3.2L37,67.9z M50.4,79.4l4.6,4.6l-0.9,0.9
			c-1.8-1.1-3.6-2.4-5.3-3.8L50.4,79.4z M56,85l2,2c-0.9-0.4-1.8-0.9-2.6-1.4L56,85z M57.1,84l4.6-4.6l4.6,4.6l-4.6,4.6L57.1,84z
			 M56,51l4.6,4.6L56,60.2l-4.6-4.6L56,51z M50.4,54.5L45.8,50l4.6-4.6l4.6,4.6L50.4,54.5L50.4,54.5z M61.7,56.7l4.6,4.6l-4.6,4.6
			l-4.6-4.6L61.7,56.7z M67.4,62.4l4.6,4.6l-4.6,4.6l-4.6-4.6L67.4,62.4z M73,68l4.6,4.6L73,77.2l-4.6-4.6L73,68z M78.7,73.7
			l4.5,4.5l-4.6,4.6l-4.5-4.5L78.7,73.7z M49.3,44.3l-4.6,4.6L40,44.2l4.6-4.6L49.3,44.3z M44.7,51l4.6,4.6l-4.6,4.6l-4.6-4.6
			L44.7,51z M39,54.5l-4.6-4.7l4.6-4.6l4.7,4.7L39,54.5z M50.4,56.7l4.6,4.6l-4.6,4.6l-4.6-4.6L50.4,56.7z M56,62.4l4.6,4.6L56,71.5
			l-4.6-4.6L56,62.4z M61.7,68l4.6,4.6l-4.6,4.6l-4.6-4.6L61.7,68z M67.4,73.7l4.6,4.6l-4.6,4.6l-4.6-4.6L67.4,73.7z M73,79.4
			l4.5,4.5L73,88.5L68.4,84L73,79.4z M33.3,48.8l-2.1-2.1c0.3-2.5,1-4.9,2.1-7l4.5,4.5L33.3,48.8z M78.6,85l4.5,4.4
			c-2.2,1.1-4.7,1.7-7.3,1.8l-1.7-1.7L78.6,85z M79.7,83.9l4.6-4.6l4.9,4.9c-0.5,0.8-1.1,1.5-1.8,2.2c-0.9,0.9-1.9,1.6-2.9,2.2
			L79.7,83.9L79.7,83.9z M78.7,71.5l-4.6-4.6l4.6-4.6l4.6,4.6L78.7,71.5z M84.4,68l4.5,4.5l-4.6,4.6l-4.5-4.5L84.4,68z M73,65.9
			l-4.6-4.6l4.6-4.6l4.6,4.6L73,65.9z M67.4,60.2l-4.6-4.6l4.6-4.6l4.6,4.6L67.4,60.2z M61.7,54.5l-4.6-4.6l4.6-4.6l4.6,4.6
			L61.7,54.5z M56,48.9l-4.6-4.6l4.6-4.6l4.6,4.6L56,48.9L56,48.9z M50.4,43.2l-4.7-4.7l4.6-4.6l4.7,4.7L50.4,43.2z M90,73.6
			l2.2,2.2c-0.3,2.6-1,4.9-2.1,7l-4.6-4.6L90,73.6L90,73.6z M44.6,37.5l-4.7-4.7c2-1.2,4.3-2,6.8-2.4l2.5,2.5L44.6,37.5L44.6,37.5z
			 M59.2,31.5l1.4,1.4L56,37.5l-4.7-4.7l2.5-2.5C55.6,30.6,57.4,31,59.2,31.5z M68.8,36l-1.5,1.5l-4.6-4.6l0.1-0.1
			C64.8,33.7,66.9,34.8,68.8,36z M78.1,43.4c1,1,2,2.1,2.9,3.2l-2.3,2.3l-4.6-4.6l2.3-2.3C77,42.4,77.5,42.9,78.1,43.4z M67.4,39.7
			l4.6,4.6l-4.6,4.6l-4.6-4.6L67.4,39.7z M61.7,43.2l-4.6-4.6l4.6-4.6l4.6,4.6L61.7,43.2L61.7,43.2z M73,45.4l4.6,4.6L73,54.5
			l-4.6-4.6L73,45.4z M78.7,51l4.6,4.6l-4.6,4.6l-4.6-4.6L78.7,51z M84.4,56.7l4.6,4.6l-4.6,4.6l-4.6-4.6L84.4,56.7z M84.4,54.5
			l-4.6-4.6l2.2-2.2c1.4,1.7,2.7,3.5,3.8,5.3L84.4,54.5z M86.6,54.4c0.9,1.6,1.7,3.2,2.4,4.8l-3.6-3.6L86.6,54.4z M73,43.2l-4.6-4.6
			l1.7-1.7c1.8,1.2,3.5,2.5,5.2,4L73,43.2z M85.5,66.9l4.6-4.6l0.4,0.4c0.8,2.2,1.3,4.5,1.6,6.6L90,71.5L85.5,66.9z M51.9,30.1
			l-1.6,1.6l-1.6-1.6C49.7,30.1,50.8,30.1,51.9,30.1z M38.6,33.6l4.9,4.9L39,43.1l-4.8-4.8c0.7-1,1.4-2,2.3-2.9
			C37.1,34.8,37.8,34.2,38.6,33.6z M31.1,48.7l1.1,1.1l-1.1,1.1C31.1,50.2,31,49.5,31.1,48.7z M63.1,89.3l4.2-4.2l4.5,4.5l-1.5,1.5
			C68,90.8,65.6,90.1,63.1,89.3z M72.4,91.3l0.6-0.6l0.7,0.7C73.2,91.3,72.8,91.3,72.4,91.3z M98.2,91.4c2.5,5.8,6.6,11.7,7.8,13.4
			l-0.1,0.1c-1.7-1.2-7.7-5.3-13.4-7.8c-2.7-1.1-6.7-2.3-10.6-3.3c3.1-1,5.9-2.6,8.1-4.8c2.3-2.3,3.9-5.1,4.9-8.2
			C95.9,84.7,97,88.8,98.2,91.4z M92.3,73.8L91,72.6l1.2-1.2C92.3,72.2,92.3,73,92.3,73.8z"/>
	</g>
</g>
</svg>
