<?xml version="1.0" encoding="iso-8859-1"?>
<!-- Generator: Adobe Illustrator 13.0.0, SVG Export Plug-In . SVG Version: 6.00 Build 14948)  -->
<!DOCTYPE svg PUBLIC "-//W3C//DTD SVG 1.1//EN" "http://www.w3.org/Graphics/SVG/1.1/DTD/svg11.dtd">
<svg version="1.1" id="Layer_1" xmlns="http://www.w3.org/2000/svg" xmlns:xlink="http://www.w3.org/1999/xlink" x="0px" y="0px"
	 width="100px" height="100px" viewBox="0 0 100 100" enable-background="new 0 0 100 100" xml:space="preserve">
<g>
	<g>
		<radialGradient id="SVGID_1_" cx="39.9775" cy="53.4492" r="63.5822" gradientUnits="userSpaceOnUse">
			<stop  offset="0" style="stop-color:#ECBA31"/>
			<stop  offset="0.3576" style="stop-color:#CB2229"/>
			<stop  offset="0.6606" style="stop-color:#A22430"/>
			<stop  offset="1" style="stop-color:#540000"/>
		</radialGradient>
		<path fill="url(#SVGID_1_)" d="M9.59,28.857c2.447-0.428,4.883-0.919,7.33-1.342c0.447-0.101,0.936,0.047,1.221,0.417
			c7.174,9.375,14.267,18.814,21.47,28.162c8.68-1.658,17.374-3.218,26.059-4.847c1.806-6.362,3.572-12.741,5.401-19.093
			c0.581-1.538,3.318-0.714,2.938,0.898c-1.831,6.622-3.729,13.222-5.575,19.839c-0.135,0.655-0.455,1.39-1.211,1.469
			c-9.335,1.744-18.681,3.451-28.02,5.195c-0.589,0.153-1.281,0.037-1.62-0.523c-7.121-9.364-14.253-18.734-21.372-28.104
			c-2.196,0.396-4.389,0.824-6.588,1.21c-1.426,0.296-2.227-1.744-1.358-2.737C8.57,28.979,9.125,28.963,9.59,28.857z"/>
		<radialGradient id="SVGID_2_" cx="39.9746" cy="53.4492" r="63.5924" gradientUnits="userSpaceOnUse">
			<stop  offset="0" style="stop-color:#ECBA31"/>
			<stop  offset="0.3576" style="stop-color:#CB2229"/>
			<stop  offset="0.6606" style="stop-color:#A22430"/>
			<stop  offset="1" style="stop-color:#540000"/>
		</radialGradient>
		<path fill="url(#SVGID_2_)" d="M60.289,56.646c1.884-0.481,4.014,0.263,5.172,1.833c1.466,1.881,1.276,4.831-0.434,6.5
			c-1.594,1.654-4.359,1.955-6.263,0.666c-1.537-0.961-2.423-2.827-2.23-4.63C56.672,58.949,58.287,57.109,60.289,56.646z"/>
		<radialGradient id="SVGID_3_" cx="39.9775" cy="53.4482" r="63.585" gradientUnits="userSpaceOnUse">
			<stop  offset="0" style="stop-color:#ECBA31"/>
			<stop  offset="0.3576" style="stop-color:#CB2229"/>
			<stop  offset="0.6606" style="stop-color:#A22430"/>
			<stop  offset="1" style="stop-color:#540000"/>
		</radialGradient>
		<path fill="url(#SVGID_3_)" d="M46.848,59.123c1.496-0.285,3.131,0.132,4.26,1.174c1.271,1.125,1.905,2.933,1.574,4.603
			c-0.272,1.628-1.427,3.076-2.957,3.699c-1.646,0.692-3.665,0.434-5.055-0.702c-1.482-1.158-2.182-3.213-1.72-5.042
			C43.375,60.994,44.956,59.445,46.848,59.123z"/>
	</g>
	<g>
		<radialGradient id="SVGID_4_" cx="38.3047" cy="26.6577" r="32.2294" gradientUnits="userSpaceOnUse">
			<stop  offset="0" style="stop-color:#ECBA31"/>
			<stop  offset="0.3576" style="stop-color:#CB2229"/>
			<stop  offset="0.6606" style="stop-color:#A22430"/>
			<stop  offset="1" style="stop-color:#540000"/>
		</radialGradient>
		<path fill="url(#SVGID_4_)" d="M25.93,29.608c1.102-3.436,4.106-6.157,7.632-6.934c2.438-0.518,5.099-0.265,7.298,0.978
			c2.288,1.3,4.143,3.43,4.952,5.951c-3.065-1.39-6.109-2.833-9.167-4.238c-0.468-0.243-1.028-0.296-1.493-0.016
			C32.074,26.759,29.014,28.212,25.93,29.608z"/>
		<g>
			<radialGradient id="SVGID_5_" cx="38.3042" cy="26.6562" r="32.2354" gradientUnits="userSpaceOnUse">
				<stop  offset="0" style="stop-color:#ECBA31"/>
				<stop  offset="0.3576" style="stop-color:#CB2229"/>
				<stop  offset="0.6606" style="stop-color:#A22430"/>
				<stop  offset="1" style="stop-color:#540000"/>
			</radialGradient>
			<path fill="url(#SVGID_5_)" d="M25.46,31.716c3.467-1.438,6.918-2.928,10.393-4.354c3.499,1.374,6.937,2.933,10.427,4.333
				c0.232,2.283-0.108,4.667-1.282,6.664c-1.406,2.389-3.739,4.275-6.453,4.92c-3.255,0.756-6.931,0.106-9.455-2.167
				C26.404,38.835,25.045,35.199,25.46,31.716z M32.169,32.52c-0.003,1.121-0.003,2.235,0,3.356c1.115,0,2.235,0,3.355,0
				c0-1.121,0-2.235,0-3.356C34.405,32.52,33.284,32.52,32.169,32.52z M36.209,32.52c0,1.121-0.003,2.235,0,3.356
				c1.118,0.005,2.238,0,3.356,0c0-1.121,0-2.235,0-3.356C38.447,32.52,37.327,32.52,36.209,32.52z M32.167,36.446
				c0,1.121,0,2.241,0.003,3.356c1.117,0,2.235,0,3.355,0c0-1.115,0-2.235,0-3.351C34.405,36.441,33.287,36.441,32.167,36.446z
				 M36.209,36.446c0,1.121,0,2.241,0,3.356c1.118,0,2.238,0,3.356,0c0-1.115,0-2.235,0-3.351
				C38.447,36.441,37.327,36.441,36.209,36.446z"/>
		</g>
	</g>
	<g>
		<radialGradient id="SVGID_6_" cx="57.4199" cy="29.1694" r="49.4239" gradientUnits="userSpaceOnUse">
			<stop  offset="0" style="stop-color:#7CC5F1"/>
			<stop  offset="0.009" style="stop-color:#79C4F1"/>
			<stop  offset="0.2612" style="stop-color:#22B2ED"/>
			<stop  offset="0.3758" style="stop-color:#00ABEB"/>
			<stop  offset="0.465" style="stop-color:#00A4E3"/>
			<stop  offset="0.6054" style="stop-color:#0091CC"/>
			<stop  offset="0.7795" style="stop-color:#0072A7"/>
			<stop  offset="0.9788" style="stop-color:#004775"/>
			<stop  offset="1" style="stop-color:#00426F"/>
		</radialGradient>
		<path fill="url(#SVGID_6_)" d="M48.89,33.809c2.058-2.177,5.068-3.451,8.083-3.287c3.574,0,6.901,2.22,8.666,5.264
			c1.959,3.44,1.86,8.033-0.396,11.31c-0.017-1.839-0.008-3.684-0.008-5.523c-1.763-0.005-3.52,0-5.282-0.01
			c1.239-0.946,2.518-2.14,2.788-3.742c0.171-0.946-0.78-1.744-1.684-1.591c-1.771,0.259-3.197,1.522-4.326,2.833
			c-1.128-1.3-2.531-2.558-4.291-2.833c-0.917-0.174-1.873,0.629-1.726,1.581c0.265,1.612,1.562,2.774,2.767,3.757
			c-1.812,0.005-3.623,0-5.435,0c-0.008,1.892,0.021,3.784-0.013,5.682C45.091,43.322,45.508,37.345,48.89,33.809z"/>
		<radialGradient id="SVGID_7_" cx="57.4189" cy="29.1533" r="49.4884" gradientUnits="userSpaceOnUse">
			<stop  offset="0" style="stop-color:#7CC5F1"/>
			<stop  offset="0.009" style="stop-color:#79C4F1"/>
			<stop  offset="0.2612" style="stop-color:#22B2ED"/>
			<stop  offset="0.3758" style="stop-color:#00ABEB"/>
			<stop  offset="0.465" style="stop-color:#00A4E3"/>
			<stop  offset="0.6054" style="stop-color:#0091CC"/>
			<stop  offset="0.7795" style="stop-color:#0072A7"/>
			<stop  offset="0.9788" style="stop-color:#004775"/>
			<stop  offset="1" style="stop-color:#00426F"/>
		</radialGradient>
		<path fill="url(#SVGID_7_)" d="M52.053,37.519c1.663,0.27,2.989,1.48,3.925,2.812c-0.04,0.222-0.122,0.676-0.164,0.898
			C54.159,40.595,52.452,39.332,52.053,37.519z"/>
		<radialGradient id="SVGID_8_" cx="57.418" cy="29.1782" r="49.375" gradientUnits="userSpaceOnUse">
			<stop  offset="0" style="stop-color:#7CC5F1"/>
			<stop  offset="0.009" style="stop-color:#79C4F1"/>
			<stop  offset="0.2612" style="stop-color:#22B2ED"/>
			<stop  offset="0.3758" style="stop-color:#00ABEB"/>
			<stop  offset="0.465" style="stop-color:#00A4E3"/>
			<stop  offset="0.6054" style="stop-color:#0091CC"/>
			<stop  offset="0.7795" style="stop-color:#0072A7"/>
			<stop  offset="0.9788" style="stop-color:#004775"/>
			<stop  offset="1" style="stop-color:#00426F"/>
		</radialGradient>
		<path fill="url(#SVGID_8_)" d="M58.503,39.104c0.819-0.756,1.786-1.427,2.923-1.569c-0.45,1.802-2.13,3.065-3.797,3.694
			C57.214,40.357,57.948,39.665,58.503,39.104z"/>
		<radialGradient id="SVGID_9_" cx="57.4199" cy="29.1797" r="49.3836" gradientUnits="userSpaceOnUse">
			<stop  offset="0" style="stop-color:#7CC5F1"/>
			<stop  offset="0.009" style="stop-color:#79C4F1"/>
			<stop  offset="0.2612" style="stop-color:#22B2ED"/>
			<stop  offset="0.3758" style="stop-color:#00ABEB"/>
			<stop  offset="0.465" style="stop-color:#00A4E3"/>
			<stop  offset="0.6054" style="stop-color:#0091CC"/>
			<stop  offset="0.7795" style="stop-color:#0072A7"/>
			<stop  offset="0.9788" style="stop-color:#004775"/>
			<stop  offset="1" style="stop-color:#00426F"/>
		</radialGradient>
		<path fill="url(#SVGID_9_)" d="M49.414,42.936c2.182,0,4.365,0,6.545,0c-0.003,1.157,0.005,2.315,0,3.472
			c-2.183-0.005-4.363-0.005-6.545,0C49.414,45.251,49.414,44.093,49.414,42.936z"/>
		<radialGradient id="SVGID_10_" cx="57.417" cy="29.1904" r="49.3614" gradientUnits="userSpaceOnUse">
			<stop  offset="0" style="stop-color:#7CC5F1"/>
			<stop  offset="0.009" style="stop-color:#79C4F1"/>
			<stop  offset="0.2612" style="stop-color:#22B2ED"/>
			<stop  offset="0.3758" style="stop-color:#00ABEB"/>
			<stop  offset="0.465" style="stop-color:#00A4E3"/>
			<stop  offset="0.6054" style="stop-color:#0091CC"/>
			<stop  offset="0.7795" style="stop-color:#0072A7"/>
			<stop  offset="0.9788" style="stop-color:#004775"/>
			<stop  offset="1" style="stop-color:#00426F"/>
		</radialGradient>
		<path fill="url(#SVGID_10_)" d="M57.322,42.936c2.183,0,4.367,0,6.548,0c0,1.157,0.003,2.315,0,3.472
			c-2.184-0.011-4.365,0.01-6.554-0.011C57.33,45.245,57.322,44.083,57.322,42.936z"/>
		<radialGradient id="SVGID_11_" cx="57.4189" cy="29.1562" r="49.4461" gradientUnits="userSpaceOnUse">
			<stop  offset="0" style="stop-color:#7CC5F1"/>
			<stop  offset="0.009" style="stop-color:#79C4F1"/>
			<stop  offset="0.2612" style="stop-color:#22B2ED"/>
			<stop  offset="0.3758" style="stop-color:#00ABEB"/>
			<stop  offset="0.465" style="stop-color:#00A4E3"/>
			<stop  offset="0.6054" style="stop-color:#0091CC"/>
			<stop  offset="0.7795" style="stop-color:#0072A7"/>
			<stop  offset="0.9788" style="stop-color:#004775"/>
			<stop  offset="1" style="stop-color:#00426F"/>
		</radialGradient>
		<path fill="url(#SVGID_11_)" d="M49.416,47.771c2.18,0,4.362,0,6.543,0c0,1.29-0.003,2.584,0.005,3.873
			c-2.429-0.11-4.801-1.083-6.55-2.774C49.414,48.506,49.414,48.136,49.416,47.771z"/>
		<radialGradient id="SVGID_12_" cx="57.4199" cy="29.1699" r="49.4117" gradientUnits="userSpaceOnUse">
			<stop  offset="0" style="stop-color:#7CC5F1"/>
			<stop  offset="0.009" style="stop-color:#79C4F1"/>
			<stop  offset="0.2612" style="stop-color:#22B2ED"/>
			<stop  offset="0.3758" style="stop-color:#00ABEB"/>
			<stop  offset="0.465" style="stop-color:#00A4E3"/>
			<stop  offset="0.6054" style="stop-color:#0091CC"/>
			<stop  offset="0.7795" style="stop-color:#0072A7"/>
			<stop  offset="0.9788" style="stop-color:#004775"/>
			<stop  offset="1" style="stop-color:#00426F"/>
		</radialGradient>
		<path fill="url(#SVGID_12_)" d="M57.322,47.771c2.183,0,4.364,0,6.548,0c0,0.317,0,0.64,0.005,0.962
			c-1.747,1.712-4.104,2.77-6.553,2.907C57.33,50.351,57.322,49.061,57.322,47.771z"/>
	</g>
	<radialGradient id="SVGID_13_" cx="61.8848" cy="66.9814" r="37.2329" gradientUnits="userSpaceOnUse">
		<stop  offset="0" style="stop-color:#919395"/>
		<stop  offset="0.6727" style="stop-color:#424243"/>
		<stop  offset="1" style="stop-color:#272525"/>
	</radialGradient>
	<path fill="url(#SVGID_13_)" d="M56.054,68.176c7.338-1.521,14.979-1.543,22.333-0.095c4.02,0.866,8.107,2.087,11.469,4.544
		c-6.052-1.971-12.417-2.826-18.761-3.096c-8.758-0.317-17.636,0.433-26.025,3.07C48.306,70.264,52.195,69.043,56.054,68.176z"/>
</g>
</svg>
