<?xml version="1.0" encoding="utf-8"?>
<!-- Generator: Adobe Illustrator 18.1.0, SVG Export Plug-In . SVG Version: 6.00 Build 0)  -->
<svg version="1.0" id="Layer_1" xmlns="http://www.w3.org/2000/svg" xmlns:xlink="http://www.w3.org/1999/xlink" x="0px" y="0px"
	 viewBox="0 0 150 150" enable-background="new 0 0 150 150" xml:space="preserve">
<g>
	<g>
		<path fill="#575F67" d="M93.3,11.9L96.8,4c-8.1-0.3-17,1-26.4,4.4c-22.1,7.9-45.1,26.5-57.1,50.8c0,0,0,0.1-0.1,0.1l7.2,1.3
			C35,30.8,66.6,12.6,93.3,11.9z"/>
		<path fill="#575F67" d="M110.5,6.4l-3.1,7c11.4,2.8,20.9,9.8,26.1,21.6c6.3,14.1,4.4,30.8-2.9,46.1l6.1,1.1
			c0.8-1.7,1.6-3.5,2.3-5.3C151.6,44.6,137.7,14.8,110.5,6.4z"/>
		<path fill="#575F67" d="M15.3,73.7l-7.4-1.4c-11,33.4,0.9,60.6,22.3,72.7c1,0.6,2.5,1.1,4.3,1.7l3.9-8.8
			C15.6,127.3,6.6,102.1,15.3,73.7z"/>
	</g>
	<g>
		<path fill="#6D6E70" d="M49,54.4c1.9,4.8,5.7,8.8,10.4,10.8c3-3.8,6.7-6.9,10.9-9.3c0.8-2.9,1.9-5.7,3-8.5l0-0.1
			c4.2-9.5,10.1-18.2,16.9-26C73.8,24.3,59.1,33.6,47.1,45C47.2,48.2,47.9,51.4,49,54.4z"/>
		<path fill="#6D6E70" d="M107.9,89.8c9.3-11.5,16.6-25.5,17.5-40.5c-11.9,0.3-23.3,5.2-33,11.8c0.5,3,0.4,6.1-0.6,8.9
			C100,73.6,106,81.1,107.9,89.8z"/>
		<g>
			<g>
				<path fill="#C8A62D" d="M117.1,27c-4-3.6-9.3-5.5-14.6-6.1c-0.7,0.2-1.1,0.8-1.6,1.2c-3.8,3.8-7.4,7.8-10.4,12.2
					c-4.2,5.6-7.5,11.9-9.9,18.5c2.3,0,4.6,0.5,6.8,1.5c3.7-2.6,7.5-4.9,11.5-6.9l0-0.1c8-3.9,16.6-6.9,25.6-7.5
					C123.5,34.9,121,30.3,117.1,27z"/>
				<path fill="#C8A62D" d="M38.3,54.7c-2.6,3.2-5.1,6.7-7.2,10.2c-5.6,9.2-9.7,19.5-10.2,30.3c6.1-0.1,12-1.5,17.7-3.7
					c5.4-2.1,10.5-4.9,15.3-8.1c-0.7-3-0.3-6.2,0.5-9.1C46.2,70.9,40.2,63.2,38.3,54.7z"/>
				<path fill="#C8A62D" d="M68,81.5c3.2-0.1,6.1-1.8,8.6-3.8c2.8-2.5,5.3-5.7,5.9-9.5c0.2-1.7,0.1-3.9-1.6-4.8
					c-2.1-1.1-4.7-0.3-6.8,0.5c-3.7,1.7-6.7,4.6-8.8,8.1c-1.2,2.2-2.2,4.8-1.3,7.3C64.5,81,66.4,81.6,68,81.5z"/>
				<path fill="#C8A62D" d="M86.8,79.3c-2.9,3.8-6.7,7-10.9,9.3c-3.8,12.9-11.1,24.5-19.9,34.5c16.5-2.9,31.1-12.2,43.1-23.5
					C99.1,91.2,94.6,82.7,86.8,79.3z"/>
			</g>
		</g>
		<path fill="#6D6E70" d="M26.3,114.6c4.2,5.4,10.9,8.4,17.7,9c6.1-5.8,11.5-12.3,15.8-19.6c2.4-3.9,4.3-8,5.8-12.3
			c-2.3,0-4.5-0.5-6.6-1.5c-3.3,2.2-6.6,4.3-10.1,6.2c-8.4,4.4-17.6,7.7-27.2,8.4C22.5,108.2,24,111.7,26.3,114.6z"/>
	</g>
</g>
</svg>
