<?xml version="1.0" encoding="utf-8"?>
<!-- Generator: Adobe Illustrator 18.1.0, SVG Export Plug-In . SVG Version: 6.00 Build 0)  -->
<svg version="1.0" id="Layer_1" xmlns="http://www.w3.org/2000/svg" xmlns:xlink="http://www.w3.org/1999/xlink" x="0px" y="0px"
	 viewBox="0 0 150 150" enable-background="new 0 0 150 150" xml:space="preserve">
<g>
	<g>
		<path fill="#8BC541" d="M92.4,48.8H56.8c-3,0-5.4,2.4-5.4,5.4v26.7h1.1L59,68c-0.8-0.3-1.4-1.1-1.4-2c0-1.2,1-2.1,2.1-2.1
			c1.2,0,2.1,0.9,2.1,2.1c3.8-0.1,6.5-4,10.8-4.6v-3.2H73c-0.1-0.2-0.1-0.4-0.1-0.7c0-0.8,0.7-1.2,1.1-1.4v-0.3l0.5,0.1l0.5-0.1v0.3
			c0.4,0.2,1,0.6,1.1,1.4c0,0.3,0,0.5-0.1,0.7h0.4v2.6c0.9-0.3,1.7-0.4,2.5-0.4c2.3,0,4.5,0.7,6.6,0.7c0.5,0,1.1,0,1.6-0.1
			c0-0.1,0-0.2,0-0.4c0-1.2,1-2.1,2.1-2.1c1.2,0,2.1,1,2.1,2.1c0,1-0.6,1.8-1.5,2l6.5,12.8H97L96.6,76c-0.1,0.1-1.7,2.6-7.4,2.6h0
			c-5.7,0-7.9-2.5-7.9-2.6l-0.6-0.7h1.1l6.6-12.9c-0.4-0.2-0.8-0.4-1-0.8c-0.6,0.1-1.3,0.2-1.9,0.2h0c-2.3,0-4.5-0.7-6.6-0.7
			c-0.9,0-1.7,0.1-2.5,0.4v5.2h-0.6v12h0.7l-0.1,0.5c0,0-0.1,0.3-0.1,0.9c0.1,2.3,0.8,7.8,10.9,7.8v0.9H61.8v-0.9
			c10.1-0.1,10.8-5.5,10.9-7.8c0-0.6-0.1-0.9-0.1-0.9l-0.1-0.5h0.7v-12h-0.6v-4.6c-3.8,0.5-6.5,4.4-11,4.6c-0.2,0.6-0.7,1-1.4,1.2
			l6.5,12.8h0.8l-0.4,0.7c-0.1,0.1-1.7,2.6-7.4,2.6h0c-5.7,0-7.9-2.5-7.9-2.6l-0.6-0.7v8.9c0,3,2.4,5.4,5.4,5.4h35.7
			c3,0,5.4-2.4,5.4-5.4V54.2C97.8,51.2,95.4,48.8,92.4,48.8z"/>
		<polygon fill="#8BC541" points="53.4,80.9 59.2,80.9 59.2,69.6 		"/>
		<polygon fill="#8BC541" points="89.4,75.4 95.2,75.4 89.4,64.1 		"/>
		<polygon fill="#8BC541" points="60.1,80.9 65.9,80.9 60.1,69.6 		"/>
		<polygon fill="#8BC541" points="88.5,64.1 82.8,75.4 88.5,75.4 		"/>
	</g>
	<g>
		<path fill="#01667D" d="M28.9,66.1c0.2-0.2,0.2-0.5,0-0.6l-6.5-6.1c-0.2-0.2-0.5-0.2-0.6,0c-0.1,0.1-0.1,0.2-0.1,0.3
			c0,0.1,0.1,0.2,0.1,0.3l6.5,6.1C28.4,66.3,28.7,66.3,28.9,66.1z"/>
		<path fill="#01667D" d="M12.7,69.7C12.7,69.6,12.7,69.6,12.7,69.7c-0.2-0.2-0.5-0.1-0.6,0c-0.2,0.2-0.2,0.5,0,0.6l6.5,6.1
			c0.2,0.2,0.5,0.2,0.6,0c0.2-0.2,0.2-0.5,0-0.6L12.7,69.7z"/>
		<path fill="#01667D" d="M27.1,70.8c-0.2-0.2-0.4-0.2-0.6,0c-0.2,0.2-0.2,0.4,0,0.6L39.9,84c0.2,0.2,0.4,0.2,0.6,0
			c0.2-0.2,0.1-0.4,0-0.6L27.1,70.8z"/>
		<path fill="#01667D" d="M44,48.8H8.3c-3,0-5.4,2.4-5.4,5.4v35.7c0,3,2.4,5.4,5.4,5.4H44c3,0,5.4-2.4,5.4-5.4V54.2
			C49.4,51.2,47,48.8,44,48.8z M41,85.9L40,87c-1,1-2.5,1.1-3.6,0.1L22.8,74.3c0,0,0,0,0,0l-2.1,2.2c0.4,1.1,0.2,2.3-0.6,3.2
			c-1.2,1.2-3.1,1.3-4.4,0.1l-6.8-6.4c-1.2-1.2-1.3-3.1-0.1-4.4c0.8-0.8,1.9-1.1,3-0.9c0.1,0,0.1,0,0.2,0.1l8.6-9.2
			c-0.1-0.1-0.1-0.3-0.1-0.4c-0.2-1,0-2,0.7-2.8c1.2-1.2,3.1-1.3,4.4-0.1l6.8,6.4c1.2,1.2,1.3,3.1,0.1,4.4c-0.8,0.9-2.1,1.2-3.2,0.8
			l-2.1,2.2c0,0,0,0,0,0l13.7,12.8C41.9,83.3,42,84.9,41,85.9z"/>
	</g>
	<path fill="#645B4F" d="M140.6,48.8h-35.7c-3,0-5.4,2.4-5.4,5.4v35.7c0,3,2.4,5.4,5.4,5.4h35.7c3,0,5.4-2.4,5.4-5.4V54.2
		C146,51.2,143.6,48.8,140.6,48.8z M124.6,84.1v4.1h-3.9v-3.8c-2.7-0.1-5.2-0.8-6.8-1.7l1.2-4.7c1.7,0.9,4,1.7,6.6,1.7
		c2.3,0,3.9-0.9,3.9-2.5c0-1.5-1.3-2.5-4.3-3.5c-4.3-1.4-7.2-3.4-7.2-7.3c0-3.5,2.5-6.3,6.7-7.1v-3.8h3.9v3.5
		c2.7,0.1,4.5,0.7,5.8,1.3l-1.2,4.5c-1-0.5-2.9-1.4-5.7-1.4c-2.6,0-3.4,1.2-3.4,2.3c0,1.3,1.4,2.1,4.8,3.4c4.8,1.7,6.6,3.9,6.6,7.5
		C131.6,80.3,129.2,83.3,124.6,84.1z"/>
</g>
</svg>
