<?xml version="1.0" encoding="utf-8"?>
<!-- Generator: Adobe Illustrator 18.1.0, SVG Export Plug-In . SVG Version: 6.00 Build 0)  -->
<svg version="1.1" id="Layer_1" xmlns="http://www.w3.org/2000/svg" xmlns:xlink="http://www.w3.org/1999/xlink" x="0px" y="0px"
	 viewBox="0 0 1000 1000" enable-background="new 0 0 1000 1000" xml:space="preserve">
<g>
	<path fill="none" d="M501.8,464.2c-69.9,3.3-124,62.6-120.7,132.6l0.1,2.4c31.5-3.5,65.3-9.2,101.9-17.7
		c53.5-12.5,102.5-19.6,147.2-22.8C615.5,501.9,562.7,461.3,501.8,464.2z"/>
	<polygon fill="#FFB602" points="809.5,405.3 798.6,388.4 690.3,469.8 	"/>
	<polygon fill="#FFB602" points="162.7,515.3 160,535.8 298.5,543.2 	"/>
	<polygon fill="#FFB602" points="190.2,399.5 180.3,418.7 314.1,475.6 	"/>
	<path fill="#FFB602" d="M381.2,596.7c-3.3-69.9,50.7-129.3,120.7-132.6c60.9-2.9,113.7,37.7,128.6,94.4c23.2-1.7,45-2.2,65.9-2
		c-8.7-77.4-62.5-140.2-133.5-163.1L623.8,239l-24.2-7.5l-37.5,161.9c-20.9-6.6-43.2-9.8-66.3-8.9l4.7-169.1l-25.3,1.2l20.5,167.9
		c-0.5,0-1,0-1.5,0c-107.1,5-189.9,96-184.9,203.1l0.6,16.1c22.2-0.2,46-1.6,71.4-4.5L381.2,596.7z"/>
	<polygon fill="#FFB602" points="266.7,296.3 248.1,313.4 372.5,429.7 	"/>
	<polygon fill="#FFB602" points="844.7,516.2 840.6,498.3 723.1,534.2 	"/>
	<polygon fill="#FFB602" points="376.4,235.2 353.1,244.9 430.3,396.7 	"/>
	<polygon fill="#FFB602" points="712.1,288.6 625.5,421.9 731,303 	"/>
	<path fill="#2EBAE5" d="M523.3,696c-251.8,75-342.5-36.9-342.5-36.9c50.2,62.7,137.2,162.1,373,87.5
		c235.8-74.5,347.5-32.6,347.5-32.6S775.1,621,523.3,696z"/>
	<path fill="#2EBAE5" d="M519.4,650.9C837.8,571.4,982.3,636,982.3,636s-92.4-77.2-286-79.4c-20.8-0.2-42.7,0.3-65.9,2
		c-44.7,3.2-93.7,10.4-147.2,22.8c-36.6,8.5-70.5,14.1-101.9,17.7c-25.4,2.9-49.2,4.3-71.4,4.5c-205.3,1.9-277.4-98.9-277.4-98.9
		C93.8,591.8,201,730.5,519.4,650.9z"/>
</g>
</svg>
