<?xml version="1.0" encoding="utf-8"?>
<!-- Generator: Adobe Illustrator 18.1.0, SVG Export Plug-In . SVG Version: 6.00 Build 0)  -->
<svg version="1.1" id="Layer_1" xmlns="http://www.w3.org/2000/svg" xmlns:xlink="http://www.w3.org/1999/xlink" x="0px" y="0px"
	 viewBox="0 0 150 150" enable-background="new 0 0 150 150" xml:space="preserve">
<g>
	<polygon fill="none" points="27.6,28.3 27.4,33.4 32.4,33.1 	"/>
	<path fill="#98CA7E" d="M86,93.7c-1.1-0.4-2.1-1-2.9-1.7c-1.8-1.5-4.5-5-2.9-11.3c2-7.7,10.6-12.2,18.2-16.1
		c3.2-1.7,6.3-3.2,8.6-4.9c8.1-5.8,13.6-14.9,13.2-16.8c-0.8,0-3.1,1.3-4.6,2.1c-3.9,2.2-8.4,4.7-11.8,2.8c-4.7-2.7-9.4-9.4-8.3-12
		c0.5-1.1,2-1.9,6.9-4.1c0.9-0.4,2.1-1,2.9-1.3c-0.7-1.2-1.6-3.3,0.6-5.8c1.9-2.2,7.6-5,10.8-6.5c-2.1-0.8-4.3-1.4-6.7-1.6
		c-20.7-1.7-34.4,22.2-34.4,22.2l-0.7-1.1c0,0-12.5-23-33.2-21.6c-2.1,0.2-4.1,0.6-6,1.3c2.8,1.2,6.8,3.5,9.4,7.4
		c1.9-0.7,6-1.5,13,0.1l1.7,0.4l-0.7,1.6c-0.3,0.7-7.9,17.6-20,19c-6.2,0.7-9.3-0.3-11-0.8C28,45,27.8,45,27.7,44.9c0,0,0,0.1,0,0.1
		c-0.3,0.8,0.1,3.4,2.1,5.6c1.6,1.8,4.4,3.7,9,2.5c7.5-1.9,17.2-3.5,25.3,1.4c5.9,3.6,10,10.1,12.2,19.3c1.9,8.1-1.1,14.5-8,17.3
		c-1.9,0.7-4.2,1.1-6.4,1.2C69.1,95.7,75,97,75,97.2v0c0,0,0.2,0,0.2,0c0,0,0.1,0,0.1,0l0,0C75.9,97,80.1,96.1,86,93.7z"/>
	<path fill="#0081C3" d="M108.1,26.5c-1,1.1-0.7,1.7,0,2.7c0.3,0.5,0.7,1.2,0.5,2c-0.2,1-1,1.4-5,3.1c-1.7,0.8-4.4,2-5.3,2.6
		c0.4,1.5,3.1,6,7,8.2c1.9,1.1,5.8-1.1,8.9-2.8c3.4-1.9,6.4-3.6,8.2-1.7c0.6,0.7,0.9,1.6,0.8,2.8c-0.5,4.7-7.4,13.5-14.4,18.5
		c-2.6,1.8-5.7,3.4-9,5.1c-7.4,3.8-15.1,7.8-16.7,14.2c-0.9,3.6-0.3,6.5,1.9,8.3c1.6,1.3,3.8,1.9,6.1,1.8c9-4.3,20.4-11.4,29.9-22.8
		c7.3-8.8,10.4-18.3,10.3-26.8c-0.9-2.5-2.3-3.2-6.3-5.2l-2.3-1.2c-7.3-3.8-7.7-11.6-7.8-11.9l2.9-0.2c0,0.1,0.4,6.4,6.2,9.4
		l2.2,1.2c1.8,0.9,3.2,1.7,4.4,2.5c-1.3-7.3-5.2-13.3-10.9-16.8l0.1,0.2C117.2,21,109.9,24.4,108.1,26.5z"/>
	<path fill="#E1AEB3" d="M46.6,83.5c-3.1-6.8,0.1-11.7,4.3-14.1c5.1-2.9,12.9-2.9,15.6,1.7l-2.5,1.5c-1.6-2.7-7.4-3-11.6-0.6
		c-2.5,1.4-6.2,4.9-2.5,11.5c3.1,5.6,11.6,7.1,17.2,4.9c5.6-2.2,7.8-7.2,6.3-13.8c-2-8.5-5.7-14.3-10.9-17.5
		c-7.2-4.3-16.1-2.9-23.1-1.1c-6.3,1.6-10.2-1.4-11.9-3.4c-2.4-2.7-3.5-6.4-2.6-8.6c1.1-2.6,2.9-2.1,4.2-1.7
		c1.6,0.5,4.2,1.3,9.8,0.7c8.4-0.9,14.6-11.5,16.8-15.6c-7.4-1.3-10.2,0.4-10.3,0.4l-1.3,1l-0.8-1.4c-3.1-5.5-9.8-7.8-11.3-8.2
		c-13.4,8-17.1,30-1.8,49C35.3,74.5,41,79.5,46.6,83.5z M27.6,28.3l4.8,4.8l-5,0.4L27.6,28.3z"/>
	<path fill="#0081C3" d="M138.6,84h-1.2c-3.2,7-9.5,16.2-19.9,22.5l-1.5-2.3c10.9-6.7,17.1-17.4,19.8-23.2c1.2-3.5,2.9-8.7,2.9-9.6
		c0-0.7-1.1-0.6-2.2-0.3c-2.9,7.1-10.1,21.9-22.8,29.6l-1.4-2.4c14.5-8.8,21.7-28.2,22.8-31.6c0-0.8,0-1.5-0.3-1.9
		c-0.9-1.6-4.5,1.1-4.5,1.1s-8.4,18.1-23.8,28.1c0,0-6.5,4.4-15.7,8.3c0.9-2.8,6.2-5.1,11.4-7.9c6-3.3,4.4-8.1,4.4-8.1
		c-6.3,6.3-22.7,10-26.9,14.2C76.5,104,77,110,77,112.5V134h18v-9c1-0.2,21.8-8.3,30.1-16.5C131.4,102.2,140.5,92,138.6,84z"/>
	<path fill="#0081C3" d="M43.2,86.5c0,0-1.5,4.8,4.4,8.1c5.2,2.8,10.5,5.1,11.4,7.9c-9.2-3.8-15.7-8.3-15.7-8.3
		c-15.4-10-23.8-28.1-23.8-28.1S15.9,63.4,15,65c-0.2,0.4-0.3,1.1-0.3,1.9c1.1,3.3,8.3,22.8,22.8,31.6l-1.4,2.4
		c-12.7-7.7-19.9-22.4-22.8-29.6c-1.1-0.3-2.2-0.4-2.2,0.3c0,0.9,1.7,6.1,2.9,9.6c2.7,5.7,9,16.5,19.8,23.2l-1.5,2.2
		C22.1,100.2,15.8,91,12.6,84h-1.2c-2,8,7.2,18.2,13.4,24.5C33.1,116.7,54,124.8,55,125v9h18v-21.5c0-2.5,0.4-8.5-2.9-11.8
		C65.9,96.5,49.5,92.8,43.2,86.5z"/>
</g>
</svg>
