<?xml version="1.0" encoding="utf-8"?>
<!-- Generator: Adobe Illustrator 14.0.0, SVG Export Plug-In . SVG Version: 6.00 Build 43363)  -->
<!DOCTYPE svg PUBLIC "-//W3C//DTD SVG 1.1//EN" "http://www.w3.org/Graphics/SVG/1.1/DTD/svg11.dtd">
<svg version="1.1" id="Layer_1" xmlns="http://www.w3.org/2000/svg" xmlns:xlink="http://www.w3.org/1999/xlink" x="0px" y="0px"
	 width="150px" height="150px" viewBox="0 0 150 150" enable-background="new 0 0 150 150" xml:space="preserve">
<g>
	<path fill="#A1CC3A" d="M13.282,116.088c-0.117,0.02-0.272,0.02-0.389,0.02c-2.485,0-4.757-1.1-6.543-2.566
		c2.44,7.311,8.608,14.139,15.922,16.205c34.531,9.135,70.869,9.135,105.425,0c7.516-2.127,13.782-9.285,16.092-16.834
		c-1.54,1.768-4.427,3.26-7.256,3.176H13.282z"/>
	<path fill="#A1CC3A" d="M127.691,17.85c-34.551-9.133-70.888-9.133-105.413,0C12.757,20.562,5.171,31.273,5.171,40.63v14.926
		c14.104-26.363,38.156-41.939,65.484-41.939c0.104,0,11.126,0.013,13.34,0.204c26.959,1.845,48.429,17.67,60.798,44.473V40.63
		C144.793,31.273,137.193,20.574,127.691,17.85z"/>
	<path fill="#805422" d="M13.909,107.881h119.957c5.288,0,3.948-13.012,3.948-13.012H9.935
		C9.935,94.869,7.45,107.881,13.909,107.881z"/>
	<rect x="7.955" y="68.174" fill="#F05A34" width="131.537" height="9.683"/>
	<path fill="#7D5221" d="M71.535,83.773c0.99-0.046,1.734,0.404,2.084,0.822c0.744-0.12,1.922-0.373,3.76-0.797
		c4.279-1,6.104-2.049,7.527-2.929H69.742c0.473,0.683,0.867,1.347,1.139,1.854C71.082,83.129,71.393,83.666,71.535,83.773z"/>
	<path fill="#7D5221" d="M60.998,80.867h-6.019c0.841,0.797,1.165,1.119,2.783,1.164C58.958,82.094,60.007,81.557,60.998,80.867z"/>
	<polygon fill="#7D5221" points="111.368,80.867 114.202,81.822 115.802,80.867 	"/>
	<path fill="#7D5221" d="M34.208,81.764c0.524-0.298,1.048-0.596,1.573-0.896H13.495c1.32,2.155,5.223,7.291,11.308,5.344
		C28.259,85.116,31.282,83.414,34.208,81.764z"/>
	<path fill="#7D5221" d="M9.45,81.75l1.767-0.883H4v9.701h17.715C15.437,90.346,11.068,85.078,9.45,81.75z"/>
	<path fill="#7D5221" d="M143.446,80.867h-14.091l5.768,3.116l-1.846,3.499l-10.913-5.867l-7.728,4.553l-9.78-3.291H91.664
		c-2.394,0-3.118,0.417-4.537,1.285c-1.579,0.974-3.78,2.307-8.834,3.504c-5.444,1.26-6.933,1.434-7.929,0.146l-0.266-0.356
		c-1.45-0.557-2.155-1.845-2.692-2.832c-0.421-0.747-0.835-1.589-1.605-2.423c0,0-0.75,0.595-1.243,0.986
		c-1.586,1.214-3.851,2.89-6.906,2.797c-3.126-0.102-4.336-1.227-5.405-2.24c-0.867-0.809-1.767-1.695-4.79-2.281
		c-3.469-0.677-7.094,1.379-11.289,3.73c-2.964,1.677-6.304,3.548-10.155,4.773c-1.165,0.393-2.272,0.57-3.353,0.602h120.786V80.867
		z"/>
	<path fill="#0076A0" d="M22.654,90.566h-0.938c0.149,0,0.272,0.049,0.421,0.049C22.304,90.615,22.479,90.566,22.654,90.566z"/>
	<path fill="#7D5221" d="M13.495,80.87c-0.285-0.453-0.447-0.796-0.492-0.841l-1.786,0.841H13.495z"/>
	<path fill="#805422" d="M82.124,22.018c-1.585-0.126-10.764-0.181-12.382-0.181c-28.007,0-49.477,18.554-60.318,42.525
		l127.613-0.324C127.141,40.626,108.676,23.827,82.124,22.018z"/>
</g>
</svg>
