<?xml version="1.0" encoding="utf-8"?>
<!-- Generator: Adobe Illustrator 18.1.0, SVG Export Plug-In . SVG Version: 6.00 Build 0)  -->
<svg version="1.1" id="Layer_1" xmlns="http://www.w3.org/2000/svg" xmlns:xlink="http://www.w3.org/1999/xlink" x="0px" y="0px"
	 viewBox="0 0 150 150" enable-background="new 0 0 150 150" xml:space="preserve">
<g>
	<path fill="none" d="M100.9,80.7c0.9,0.1,2.2,0.1,3.8,0c-0.9-0.6-1.9-1.3-2.8-2.1c-0.2,0.1-0.4,0.3-0.6,0.4
		C101.1,79.6,101,80.2,100.9,80.7z"/>
	<path fill="#9FD6EF" d="M31.4,61.9c4.2-1.4,34.5-17.4,39.4-18.6c-0.2-1.5-0.4-2.9-0.6-4.3C55.9,47,27.5,63.1,31.4,61.9z"/>
	<path fill="#9FD6EF" d="M56.9,42l13.1-4.6c0,0,0,0,0,0C62.5,39.9,57.1,41.8,56.9,42z"/>
	<path fill="#9FD6EF" d="M114.6,22.2c0,0-2.5,0.8-6.4,2.2c0.3,0.5,0.5,1.1,0.7,1.8C111.8,24.2,114.6,22.2,114.6,22.2z"/>
	<path fill="#9FD6EF" d="M72.2,51.8c-0.1-0.7-0.3-1.5-0.4-2.2L72.2,51.8C72.2,51.8,72.2,51.8,72.2,51.8z"/>
	<path fill="#9FD6EF" d="M112.3,29.4c12.1-6,14-8.6,14-8.6s-10.1,4-17,6.9c0.2,1,0.3,2,0.4,3.1C110.4,30.4,111.3,30,112.3,29.4z"/>
	<path fill="#9FD6EF" d="M107.9,102.2c0.7-0.5,1.5-1,2.2-1.5c1-0.7-0.1-0.9-2.6-0.7C106.4,100.9,106.8,101.6,107.9,102.2z"/>
	<path fill="#9FD6EF" d="M44.3,77.4c1.9-2.6,5.5-5.5,12.3-6.8c6.8-1.3,13-2.4,17.7-3c0.1-1.9-0.4-5.2-1-9.2
		c-0.3,0.1-0.5,0.2-0.6,0.2c-0.6,0-0.1-0.9,0.1-1.7c0.2-0.8-0.8-0.7-1.5-1.1c-0.7-0.4,0.5-1.9,0.7-2.3c0.2-0.4-1.2-0.2-1.5-1
		c-0.3-0.8,1.1-3.3,1.2-3.5c-0.3-1.6-0.6-3.3-0.8-5c-0.2,0.2-0.5,0.5-0.9,0.8c-9.9,7.8-52.8,29.6-51.6,30.6c1.2,1,46-19.9,30.2-12.1
		C32.8,71.2,10,88.2,15.1,87c5.1-1.2,25.3-11.3,17.1-3.3c-8.2,8-14.4,11.9-11.3,10.9c3.1-1,21.4-7.4,16.4-3.1
		c-4.9,4.3-16,13.6-11.7,13.4c2.3-0.1,11.5-3,18.5-4.7l-3-14.5C41.1,85.6,40.7,80.8,44.3,77.4z"/>
	<path fill="#9FD6EF" d="M101.7,107.3c6-1.2,15.8-3.1,15.8-3.1s-6.9-0.6-9.6-2C102.2,105.8,96.4,108.4,101.7,107.3z"/>
	<path fill="#9FD6EF" d="M109.2,40.4c-0.9,6.1-2.4,12.5-3.4,17.4c0.9-0.5,2.2-1.1,4.1-1.9c18.7-8.2,29.2-15.8,25.5-14.8
		c-3.7,1-34.3,8.6-23.4,4.3c10.9-4.3,17.1-9.9,15.4-9.5c-1.2,0.3-13.2,3.7-17.4,3.8c0,0.1-0.1,0.2-0.2,0.4
		C109.7,40.2,109.5,40.3,109.2,40.4z"/>
	<path fill="#9FD6EF" d="M116.4,64.8c-0.3,0-3.5,1.1-6.4,2c2.5-0.4,4.8-1.1,6.2-1.6C116.5,64.9,116.5,64.8,116.4,64.8z"/>
	<path fill="#9FD6EF" d="M36.5,111.8c0.3,0,4.1-0.8,9.7-1.8l-1-4.7C39.7,109.3,35.3,112,36.5,111.8z"/>
	<path fill="#9FD6EF" d="M104.7,80.7c-1.6,0.1-3,0.1-3.8,0c-0.3,1.3-0.6,2.5-0.9,3.8c1.8,3.3,3.2,5.2,3.2,5.2s-1.6,1.1-0.5,2.6
		c1.1,1.5-1.1,3-3.9,1c-0.3-0.2-0.5-0.3-0.7-0.4c-0.2,0.9-0.4,1.7-0.5,2.5c0.1,0.5,0.2,1,0.2,1.5c0.1,1.3-0.3,2-1,2.2
		c-0.1,0.8-0.3,1.5-0.4,2.2c4.7-0.7,8.6-1.2,11-1.3c0.4-0.3,1.1-0.7,2-1.1c9-3.9,11.5-5.1,9-5.1c-2.5,0-15.2,1.8-13.4-0.2
		c1.8-2.1,26.3-15.6,23-15.6c-1.4,0-7.7,0.9-14,1.8c0.3,0.9,0.8,1.9,0.9,2.6C115.3,83.7,110.3,84.3,104.7,80.7z"/>
	<path fill="#9FD6EF" d="M101.9,78.5c-0.1-0.1-0.3-0.3-0.4-0.4c-0.1,0.3-0.1,0.6-0.2,0.8C101.5,78.8,101.7,78.7,101.9,78.5z"/>
	<path fill="#9FD6EF" d="M104,67c0.6,0.1,1.2,0.1,1.8,0.1c0.6-0.5,1.7-1.2,3.6-2.3c11.9-6.8,21.4-13.2,19.1-12.3
		c-1.5,0.6-18.3,5.8-23,6.5c-0.1,0.6-0.2,1.1-0.3,1.6C105,62.2,104.6,64.4,104,67z"/>
	<path fill="#D5D9D8" d="M44.3,77.4c1.5-1.5,3.8-2.7,7.1-3.1c11.1-1.6,20.9-0.5,22.7-5.3c0.1-0.3,0.2-0.8,0.2-1.3
		c-4.7,0.6-10.9,1.7-17.7,3C49.9,71.9,46.3,74.8,44.3,77.4z"/>
	<path fill="#89A15F" d="M95.3,112.8c11.1,3.1,20.2,8.2,20.2,8.2s0,0-9.9-1.1c-9.9-1.1-25.1,0.2-30.1,0.2c-4.7,0-6.6-2.7-11.3-2.7
		c-3.9,1.2-5.2,1.1-5.9-0.3c-2.7-0.4-5.1-1.2-7.6-2.3c-1.6,0.1-3.3-0.8-4.1-2.5c-12.9,4.1-21.6,10.4-22.1,12.6
		c-0.7,3.4,32-1.1,27.9,2.7c-4.1,3.9,6.9,5.5,18.3,3.9c11.4-1.6,30.4-5.9,28.3-3c-2.1,3-0.2-0.9,13.7,1.1c13.9,2.1,19.9-1.4,8.2-8
		c0,0-10.2-5.7-24.9-9.7C95.9,112.3,95.7,112.6,95.3,112.8z"/>
	<path fill="#768E68" d="M75.5,120.1c4.9,0,20.2-1.3,30.1-0.2c9.9,1.1,9.9,1.1,9.9,1.1s-9-5.1-20.2-8.2c-2.7,1.8-10.9,3.1-15.3,5.7
		c-5.8,3.4-9.5-3.2-15.1-1.3c-0.3,0.1-0.5,0.2-0.7,0.2C68.9,117.4,70.8,120.1,75.5,120.1z"/>
	<path fill="#768E68" d="M57.9,115.8c-0.8-2.6-2.6-4-5-1.9c-0.6,0.5-1.3,0.8-2.1,0.9c2.4,1.1,4.9,1.9,7.6,2.3
		C58.2,116.8,58,116.3,57.9,115.8z"/>
	<path fill="#EDEDED" d="M99.3,83.3c0.2,0.4,0.4,0.8,0.7,1.2c0.3-1.3,0.6-2.5,0.9-3.8c0.1-0.6,0.3-1.2,0.4-1.8
		c0.1-0.3,0.1-0.6,0.2-0.8c-0.3-0.3-0.6-0.6-0.9-0.9C100.2,79.2,99.8,81.3,99.3,83.3z"/>
	<path fill="#EDEDED" d="M71.7,49l0.1,0.5c0.1,0.8,0.3,1.5,0.4,2.2c1.1,0.1,3-0.6,5.1-1.6c-1.1-13.6-2.6-26.4-3.2-28.5
		c-0.3-1.1-0.8-1.5-1.2-1.7c-0.8,0.3-1.5,0.7-2.1,1.1c0,0,1.1-1.4,2.1-1.1c8.7-3.5,28.3-1.2,33.2,3.1c2.3,2,2.9,6.5,2.6,11.7
		c0.4-0.3,0.8-0.6,1-0.9l0.1-1.7c0-0.5,0-1-0.1-1.5c-0.1-1.1-0.2-2.2-0.4-3.1c-0.1-0.5-0.2-1-0.4-1.5c-0.2-0.6-0.4-1.2-0.7-1.8
		c-0.8-1.6-2-2.8-3.7-3.5c-10.3-4.2-26.7-4.2-33.3-0.8c-2.6,1.4-2.4,8.7-1.3,17.2c0,0,0,0,0,0c0.1,0.5,0.1,1.1,0.2,1.6
		c0.2,1.4,0.4,2.9,0.6,4.3c0,0.3,0.1,0.5,0.1,0.8C71.2,45.8,71.4,47.4,71.7,49C71.7,49.1,71.7,49,71.7,49z"/>
	<path fill="#EDEDED" d="M97.2,93.7c0.1,0.5,0.2,1.1,0.3,1.7c0.2-0.8,0.4-1.7,0.5-2.5c-0.3-0.2-0.5-0.2-0.7-0.2
		C97.4,93,97.3,93.4,97.2,93.7z"/>
	<path fill="#EDEDED" d="M96.2,99.1c-1.2,6.2-2.1,10.8-2.2,11.8c-0.4,3.5-5.1,2.7-7.6,3.5c-2.5,0.8-4.5,2.3-7,3.1
		c-2.5,0.8-1-26.3-1-43.7c0-5.2-0.3-11.5-0.7-18c-1.9,1.3-3.5,2.2-4.3,2.6c0.6,4,1.1,7.3,1,9.2c0,0.6-0.1,1-0.2,1.3
		c-1.8,4.8-11.6,3.7-22.7,5.3c-3.3,0.5-5.6,1.7-7.1,3.1c-3.6,3.4-3.2,8.2-3.2,8.2l3,14.5l1.1,5.2l1,4.7l0,0.2c0,0.8,0.2,1.4,0.4,2
		c0.8,1.7,2.5,2.7,4.1,2.5c0.7-0.1,1.5-0.3,2.1-0.9c2.4-2.1,4.2-0.8,5,1.9c0.2,0.5,0.3,0.9,0.5,1.3c0.7,1.4,2,1.5,5.9,0.3
		c0.2-0.1,0.5-0.1,0.7-0.2c5.5-1.8,9.2,4.8,15.1,1.3c4.4-2.6,12.6-3.8,15.3-5.7c0.4-0.2,0.6-0.5,0.8-0.8c0.2-0.4,0.2-0.8-0.2-1.3
		c-0.7-0.9-0.3-4.5,0.5-9.5c0.1-0.7,0.3-1.5,0.4-2.2C96.6,99.2,96.4,99.1,96.2,99.1z M56.7,112.6c-1.1-0.6-2.9,0.4-4.6,1.5
		c-1.7,1.1-2.4,0.1-2.4,0.1c0.7,0.2,1.6,0.4,1.7-1.2c0.1-1.6-3.9-30-2.4-30.2c1.5-0.1,8,29.9,8,29.9S57.8,113.2,56.7,112.6z
		 M68.8,116.5c-2.3-1-4.8,0.1-5.9,0.7c-0.2,0.2-0.4,0.3-0.6,0.4c0,0,0.2-0.2,0.6-0.4c0.2-0.3,0.4-0.8,0.6-2.2c0.2-2.4-1.1-25-1.1-30
		s0.9-3,0.9-3s3.3,17.8,4.4,26.9c0.7,5.6,2.1,7.7,3.1,8.5c1.1,0.5,1.1,0.5,1.1,0.5s-0.5,0-1.1-0.5C70.3,117.1,69.6,116.8,68.8,116.5
		z"/>
	<path fill="#EDEDED" d="M109.2,40.4c-0.3,0.1-0.6,0.2-1.1,0.3c-0.7,5-1.8,10.1-2.7,13.6c-0.5,2.2-1.5,6.8-2.7,12.4
		c0.4,0.1,0.8,0.2,1.3,0.2c0.6-2.5,1-4.7,1.3-6.4c0.1-0.5,0.2-1.1,0.3-1.6c0.1-0.3,0.1-0.7,0.2-1.1
		C106.8,52.9,108.3,46.5,109.2,40.4z"/>
	<path fill="#D5D9D8" d="M70.8,21.1c0.6-0.4,1.3-0.8,2.1-1.1C71.9,19.7,70.8,21.1,70.8,21.1z"/>
	<path fill="#D5D9D8" d="M84.7,35.2c5-1,7.7,2.9,7.7,2.9c1.5-8.7,9.1-6.4,10.9-2.9c0.3,0.6,0.6,1.3,0.7,1.9c1.7-0.6,3.5-1.4,4.7-2.3
		c0.3-5.2-0.3-9.7-2.6-11.7c-4.9-4.3-24.5-6.6-33.2-3.1c0.5,0.1,0.9,0.6,1.2,1.7c0.6,2.2,2.1,14.9,3.2,28.5c1.8-0.8,3.7-1.8,5.3-2.7
		C78.2,42.8,80.8,36,84.7,35.2z"/>
	<path fill="#D5D9D8" d="M97.2,93.7c0.1-0.4,0.1-0.7,0.2-1.1C97.1,92.7,97.1,93.1,97.2,93.7z"/>
	<path fill="#D5D9D8" d="M91.1,102.8c-1,0-5.2-3.4-4.8-23.2c0.3-12.3,2.5-22.2,4.2-28c-1.2-0.5-2.2-0.7-2.2-0.7
		c-1-0.3-1.8-0.7-2.6-1.1c-2.8,2.3-5.7,4.4-8.1,6c0.4,6.5,0.7,12.9,0.7,18c0,17.4-1.4,44.5,1,43.7c2.5-0.8,4.5-2.3,7-3.1
		c2.5-0.8,7.2,0,7.6-3.5c0.1-1,1-5.6,2.2-11.8c-0.4-0.1-0.9-0.4-1.4-0.8C93,96.8,92.1,102.8,91.1,102.8z"/>
	<path fill="#D5D9D8" d="M99.3,83.3c0.4-2,0.8-4.1,1.2-6.1c-1.6-1.7-3.1-3.8-4.5-6.4c-4.3-8.2-4.5-14.6-3.9-18.5c0,0-0.1,0-0.1,0
		C90.7,64.2,95.6,76.2,99.3,83.3z"/>
	<path fill="#D5D9D8" d="M98.4,50.6c-2.8,3.8-2.8,4.5-2.8,4.5c-0.2-0.7-0.9-1.3-1.8-1.9c0,7,2.5,11.2,7.2,13
		c0.6,0.2,1.2,0.4,1.8,0.5c1.2-5.6,2.2-10.2,2.7-12.4c0.8-3.5,2-8.5,2.7-13.6c-1.1,0.3-2.7,0.6-4.4,0.9
		C102.9,44.4,100.8,47.3,98.4,50.6z"/>
	<path fill="#D274A7" d="M82.6,47.5c-1.6,0.9-3.5,1.9-5.3,2.7c-2.1,0.9-4,1.6-5.1,1.6c0,0,0,0-0.1,0l-0.3-2.2L71.7,49c0,0,0,0,0,0
		c-0.1,0.2-1.5,2.8-1.2,3.5c0.3,0.8,1.7,0.6,1.5,1c-0.2,0.4-1.4,1.9-0.7,2.3c0.7,0.4,1.7,0.3,1.5,1.1c-0.2,0.8-0.7,1.7-0.1,1.7
		c0.1,0,0.3-0.1,0.6-0.2c0.8-0.4,2.4-1.3,4.3-2.6c2.4-1.6,5.3-3.7,8.1-6C84.4,49.2,83.4,48.4,82.6,47.5z"/>
	<path fill="#D274A7" d="M108.7,34.9c-1.2,0.9-3,1.6-4.7,2.3c0.4,1.5,0.2,3-0.2,4.5c1.7-0.2,3.3-0.6,4.4-0.9
		c0.4-0.1,0.8-0.2,1.1-0.3c0.3-0.1,0.5-0.2,0.5-0.3c0.1-0.1,0.2-0.2,0.2-0.4c0-0.3-0.2-0.6-0.4-1c-0.2-0.5,0.5-1.1,1-2
		c0.5-0.8-0.5-1.2-0.6-1.4c-0.2-0.2,0.8-1,1-1.9c0.2-0.9-1-2.1-1-2.1l0,0.9l-0.1,1.7C109.5,34.3,109.1,34.6,108.7,34.9z"/>
	<path fill="#D274A7" d="M92.1,52.3c-0.6-0.3-1.1-0.5-1.6-0.7c-1.6,5.8-3.9,15.7-4.2,28c-0.5,19.7,3.8,23.2,4.8,23.2
		c1,0,2-6,3.7-4.5c0.5,0.4,1,0.7,1.4,0.8c0.2,0.1,0.5,0.1,0.7,0c0.6-0.2,1-0.9,1-2.2c0-0.5-0.1-1-0.2-1.5c-0.1-0.6-0.3-1.2-0.3-1.7
		c-0.1-0.6-0.1-1,0.2-1.1c0.1,0,0.4,0,0.7,0.2c0.2,0.1,0.4,0.2,0.7,0.4c2.8,2.1,5,0.5,3.9-1c-1.1-1.5,0.5-2.6,0.5-2.6
		s-1.4-2-3.2-5.2c-0.2-0.4-0.4-0.8-0.7-1.2C95.6,76.2,90.7,64.2,92.1,52.3z"/>
	<path fill="#D274A7" d="M104,67c-0.4-0.1-0.9-0.1-1.3-0.2c-0.6-0.1-1.2-0.3-1.8-0.5c-4.7-1.9-7.1-6-7.2-13c-0.5-0.3-1-0.6-1.6-0.8
		c-0.6,3.9-0.4,10.3,3.9,18.5c1.4,2.6,2.9,4.7,4.5,6.4c0.3,0.3,0.6,0.6,0.9,0.9c0.1,0.1,0.3,0.3,0.4,0.4c0.9,0.8,1.9,1.6,2.8,2.1
		c5.6,3.6,10.6,3,10.4,1.6c-0.1-0.8-0.6-1.7-0.9-2.6c-0.6-1.5-0.9-2.8,1.3-2.2c3.4,0.9,3.4-0.6,2.7-2.1c-0.7-1.5-1.8-3.4,0.2-3.5
		c2.1-0.1,4.4-1.3,2.8-2.3c-1.6-1-5.6,0.4-3.5-1.6c2.1-2,1.7-4-0.2-3.2c-0.3,0.1-0.6,0.3-1.1,0.4c-1.4,0.5-3.7,1.2-6.2,1.6
		c-1.4,0.2-2.8,0.3-4.2,0.3C105.2,67.1,104.6,67,104,67z"/>
	<path fill="#F279A6" d="M95.6,55.1c0,0-0.1-0.6,2.8-4.5c2.5-3.3,4.5-6.2,5.4-9c0.5-1.5,0.6-3,0.2-4.5c-0.2-0.6-0.4-1.3-0.7-1.9
		c-1.8-3.5-9.4-5.9-10.9,2.9c0,0-2.7-3.9-7.7-2.9c-3.8,0.8-6.5,7.6-2.1,12.3c0.8,0.9,1.9,1.7,3.2,2.3c0.8,0.4,1.6,0.8,2.6,1.1
		c0,0,1,0.3,2.2,0.7c0.5,0.2,1.1,0.4,1.6,0.7c0,0,0.1,0,0.1,0c0.5,0.3,1.1,0.5,1.6,0.8C94.7,53.8,95.4,54.4,95.6,55.1z M98.3,34.2
		c0.9-0.9,2.8,0.2,2.8,0.2c1,1,1.7,2.3,1.3,3c-0.4,0.7-0.9-0.9-2.1-1.3C98.9,35.7,97.4,35.1,98.3,34.2z"/>
	<path fill="#D5D9D8" d="M49,82.8c-1.5,0.1,2.6,28.6,2.4,30.2c-0.1,1.6-1,1.5-1.7,1.2c0,0,0.7,1,2.4-0.1c1.7-1.1,3.5-2.1,4.6-1.5
		c1.1,0.6,0.2,0.1,0.2,0.1S50.4,82.7,49,82.8z"/>
	<path fill="#D5D9D8" d="M62.2,117.5c0.2-0.1,0.4-0.1,0.6-0.4C62.4,117.4,62.2,117.5,62.2,117.5z"/>
	<path fill="#D5D9D8" d="M67.6,108.8c-1.1-9.1-4.4-26.9-4.4-26.9s-0.9-1.9-0.9,3s1.3,27.6,1.1,30c-0.1,1.3-0.3,1.9-0.6,2.2
		c1.2-0.6,3.7-1.7,5.9-0.7c0.9,0.4,1.5,0.7,1.9,0.8C69.7,116.5,68.2,114.4,67.6,108.8z"/>
	<path fill="#D5D9D8" d="M70.7,117.3c0.6,0.5,1.1,0.5,1.1,0.5S71.8,117.8,70.7,117.3z"/>
	<path fill="#FFFFFE" d="M100.2,36.1c1.3,0.4,1.7,2,2.1,1.3c0.4-0.7-0.2-2-1.3-3c0,0-1.8-1.2-2.8-0.2
		C97.4,35.1,98.9,35.7,100.2,36.1z"/>
</g>
</svg>
