<?xml version="1.0" encoding="utf-8"?>
<!-- Generator: Adobe Illustrator 18.1.0, SVG Export Plug-In . SVG Version: 6.00 Build 0)  -->
<svg version="1.1" id="Layer_1" xmlns="http://www.w3.org/2000/svg" xmlns:xlink="http://www.w3.org/1999/xlink" x="0px" y="0px"
	 viewBox="0 0 2000 2000" enable-background="new 0 0 2000 2000" xml:space="preserve">
<g>
	<path fill="none" d="M792.2,1428.6c1.3,0.4,2.6,0.9,4,1.2C794.8,1429.5,793.5,1429,792.2,1428.6z"/>
	<path fill="none" d="M803.1,1431.2c1.2,0.2,2.4,0.5,3.7,0.7C805.5,1431.7,804.3,1431.4,803.1,1431.2z"/>
	<path fill="none" d="M818.8,1432.5c3.5-0.1,7.1-0.4,10.8-0.9C825.9,1432,822.2,1432.4,818.8,1432.5z"/>
	<path fill="none" d="M832.7,1431c3-0.5,6-1.1,9.1-1.9C838.7,1429.9,835.7,1430.5,832.7,1431z"/>
	<path fill="none" d="M768.1,1415.7c0.9,0.7,1.9,1.4,2.9,2.2C770,1417.1,769,1416.4,768.1,1415.7z"/>
	<path fill="none" d="M757.6,1405.6c0.6,0.7,1.3,1.4,1.9,2C758.9,1407,758.2,1406.3,757.6,1405.6z"/>
	<path fill="none" d="M782.9,1424.9c1.2,0.6,2.4,1.2,3.7,1.7C785.4,1426.1,784.2,1425.5,782.9,1424.9z"/>
	<path fill="none" d="M775,1420.5c1.1,0.7,2.2,1.3,3.3,2C777.2,1421.9,776,1421.2,775,1420.5z"/>
	<path fill="none" d="M764.7,1412.8c-0.8-0.7-1.7-1.5-2.4-2.2C763.1,1411.3,763.9,1412.1,764.7,1412.8z"/>
	<path fill="none" d="M858.4,1423.8c-4.5,1.8-8.8,3.2-13.1,4.3C849.6,1427,853.9,1425.6,858.4,1423.8z"/>
	<polygon fill="none" points="914.8,714.4 680,872.9 718.5,930.2 672.5,1047.4 853.4,1321 975.8,1239 1092.9,1285 1327.7,1126.5 
		1289.2,1069.1 1335.2,952 1154.3,678.4 1031.9,760.4 	"/>
	<path fill="none" d="M755.2,1402.7c-5-6.2-7.4-11-7.4-11s1.9,4,6.1,9.4C754.3,1401.6,754.8,1402.2,755.2,1402.7z"/>
	<path fill="#5A97BB" d="M1724.2,1044l115,150.6c0,0,41.8,35.6,73.2,4.2L1651,822.3l-96.2-29.3l-230.6-328.4l-175,110.9
		c79.8-31.2,110.6,32.2,110.6,32.2l-105.6,70.7L1335.2,952l-46,117.1l38.4,57.4l114.2,170.6c0,0,64.9-31.4,31.4-112.9l-58.6-92
		l18.8-10.4l133.8,203.1l39.8,60.5c0,0,41.8,62.7,100.4,14.6l-154.8-232.1l16.7-10.5l167.3,255.2c0,0,48.1,64.8,98.3,18.8
		l-200.8-305.3l23-10.5l142.2,217.5c0,0,31.4,48.1,87.8,14.7l-179.9-259.4L1724.2,1044z"/>
	<path fill="#CF8791" d="M593,907.2l-58.6-92c-33.5-81.6,31.4-112.9,31.4-112.9L680,872.9l234.7-158.5l117.1,46l122.4-82l105.6-70.7
		c0,0-30.8-63.4-110.6-32.2c-0.8,0.3-1.5,0.5-2.3,0.8l-92,58.6l-10.4-18.8L1308,442.5c0,0,62.7-41.8,14.6-100.4l-232.2,154.8
		l-10.5-16.7l255.2-167.3c0,0,64.8-48.1,18.8-98.3l-305.3,200.8l-10.5-23L1255.7,250c0,0,48.1-31.4,14.6-87.8L1011,342.1l-4.2-16.7
		l150.6-115c0,0,35.6-41.8,4.2-73.2L785.1,398.5l-29.3,96.2L440.4,714.6l133.8,203.1L593,907.2z"/>
	<path fill="#FFC473" d="M841.9,1429.1c-3.1,0.8-6.2,1.4-9.1,1.9c-1,0.2-2.1,0.4-3.1,0.5c-3.7,0.5-7.4,0.9-10.8,0.9
		c-4.2,0.1-8.2-0.1-12-0.6c-1.3-0.2-2.5-0.4-3.7-0.7c-2.4-0.4-4.7-0.8-6.9-1.4c-1.4-0.4-2.7-0.8-4-1.2c-1.9-0.6-3.7-1.2-5.5-2
		c-1.3-0.5-2.5-1.1-3.7-1.7c-1.6-0.8-3.2-1.6-4.6-2.4c-1.1-0.7-2.3-1.3-3.3-2c-1.4-0.9-2.7-1.8-4-2.7c-1-0.7-2-1.4-2.9-2.2
		c-1.2-1-2.3-1.9-3.4-2.9c-0.8-0.7-1.7-1.5-2.4-2.2c-1-1-1.9-2-2.8-2.9c-0.6-0.7-1.3-1.4-1.9-2c-0.9-1-1.6-2-2.4-2.9
		c-0.4-0.5-0.9-1.1-1.3-1.6c-4.1-5.5-6.1-9.4-6.1-9.4l105.6-70.7l-180.9-273.6l46-117.1L680,872.9L565.8,702.3
		c0,0-64.8,31.4-31.4,112.9l58.6,92l-18.8,10.5L440.4,714.6l-39.8-60.4c0,0-41.8-62.7-100.4-14.6l154.8,232.2l-16.7,10.5L270.9,627
		c0,0-48.1-64.8-98.3-18.8l200.8,305.4l-23,10.5L208.1,706.5c0,0-31.4-48.1-87.8-14.6l179.9,259.3l-16.7,4.2l-115-150.6
		c0,0-41.9-35.5-73.2-4.2l261.4,376.5l96.2,29.3l230.6,328.4l175-110.9c-4.5,1.8-8.8,3.2-13.1,4.3
		C844.2,1428.5,843,1428.8,841.9,1429.1z"/>
	<path fill="#00A9C5" d="M1414.7,1092.1l58.6,92c33.5,81.6-31.4,112.9-31.4,112.9l-114.2-170.6L1092.9,1285l-117.1-46l-122.4,82
		l-105.6,70.7c0,0,2.4,4.8,7.4,11c0.8,1,1.5,1.9,2.4,2.9c0.6,0.7,1.3,1.4,1.9,2c0.9,1,1.8,1.9,2.8,2.9c0.8,0.7,1.6,1.5,2.4,2.2
		c1.1,1,2.2,1.9,3.4,2.9c0.9,0.7,1.9,1.4,2.9,2.2c1.3,0.9,2.6,1.8,4,2.7c1.1,0.7,2.2,1.3,3.3,2c1.5,0.8,3,1.6,4.6,2.4
		c1.2,0.6,2.5,1.2,3.7,1.7c1.8,0.7,3.6,1.3,5.5,2c1.3,0.4,2.6,0.9,4,1.2c2.2,0.6,4.5,1,6.9,1.4c1.2,0.2,2.4,0.5,3.7,0.7
		c3.8,0.5,7.8,0.7,12,0.6c3.5-0.1,7.1-0.4,10.8-0.9c1-0.1,2.1-0.3,3.1-0.5c3-0.5,6-1.1,9.1-1.9c1.2-0.3,2.3-0.6,3.5-0.9
		c4.2-1.2,8.5-2.6,13.1-4.3c0.8-0.3,1.5-0.5,2.3-0.8l92-58.6l10.5,18.8l-263.5,173.6c0,0-62.7,41.8-14.6,100.4l232.2-154.8
		l10.5,16.7l-255.2,167.3c0,0-64.8,48.1-18.8,98.3l305.4-200.8l10.5,23L752,1749.3c0,0-48.1,31.4-14.6,87.8l259.3-179.9l4.2,16.7
		l-150.6,115c0,0-35.6,41.8-4.2,73.2l376.5-261.4l29.3-96.2l315.4-219.9l-133.8-203.1L1414.7,1092.1z"/>
</g>
</svg>
