<?xml version="1.0" encoding="utf-8"?>
<!-- Generator: Adobe Illustrator 18.1.0, SVG Export Plug-In . SVG Version: 6.00 Build 0)  -->
<svg version="1.1" id="Layer_1" xmlns="http://www.w3.org/2000/svg" xmlns:xlink="http://www.w3.org/1999/xlink" x="0px" y="0px"
	 viewBox="0 0 150 150" enable-background="new 0 0 150 150" xml:space="preserve">
<g>
	<g>
		<path fill="none" d="M41.5,120.2c-2.3-12.4,8.8-23.9,21.3-21.3C65.4,111.6,54.1,123.5,41.5,120.2z M122.2,87.7
			C115,98.1,99,98.3,92,87.7C99.3,76.9,115.7,76.4,122.2,87.7z M108.7,54.3c2.3,12.4-8.9,23.9-21.3,21.3
			C84.9,62.8,96.1,50.9,108.7,54.3z M86.7,99.5c12.8-2.5,24.7,8.7,21.3,21.3C95.7,123.1,84.2,112,86.7,99.5z M75.6,70.3
			c-10.8-7.3-11.3-23.7,0-30.2C86,47.3,86.2,63.3,75.6,70.3z"/>
	</g>
	<g>
		<g>
			<path fill="#82BC00" d="M75.6,40.2c-11.3,6.5-10.8,22.9,0,30.2C86.2,63.3,86,47.3,75.6,40.2z"/>
		</g>
		<g>
			<path fill="#82BC00" d="M28.4,86.3v1c6.8,10.7,22.7,10.1,29.8-0.5C51.3,76.3,35.7,76.4,28.4,86.3z"/>
		</g>
		<g>
			<path fill="#82BC00" d="M92,87.7c7,10.6,23,10.4,30.2,0C115.7,76.4,99.3,76.9,92,87.7z"/>
		</g>
	</g>
	<g>
		<g>
			<path fill="#01667D" d="M42.4,53.6l-0.2,0.2c-3.2,12.5,8.6,23.7,21.4,21.2C66.1,62.5,54.7,51.5,42.4,53.6z"/>
		</g>
		<g>
			<path fill="#01667D" d="M41.5,120.2c12.6,3.4,23.9-8.5,21.3-21.3C50.4,96.3,39.2,107.8,41.5,120.2z"/>
		</g>
		<g>
			<path fill="#01667D" d="M86.7,99.5c-2.5,12.5,9,23.6,21.3,21.3C111.4,108.2,99.5,97,86.7,99.5z"/>
		</g>
		<g>
			<path fill="#01667D" d="M108.7,54.3c-12.6-3.4-23.9,8.5-21.3,21.3C99.9,78.2,111,66.7,108.7,54.3z"/>
		</g>
	</g>
	<g>
		<path fill="#21B573" d="M76.2,6.9L10,51.1v92.1h132.3l0-92.1L76.2,6.9z M127.4,125.9L127.4,125.9H24.9V61l51.2-34.2L127.4,61
			V125.9z"/>
	</g>
</g>
</svg>
