<?xml version="1.0" encoding="utf-8"?>
<!-- Generator: Adobe Illustrator 16.0.0, SVG Export Plug-In . SVG Version: 6.00 Build 0)  -->
<!DOCTYPE svg PUBLIC "-//W3C//DTD SVG 1.1//EN" "http://www.w3.org/Graphics/SVG/1.1/DTD/svg11.dtd">
<svg version="1.1" id="Layer_1" xmlns="http://www.w3.org/2000/svg" xmlns:xlink="http://www.w3.org/1999/xlink" x="0px" y="0px"
	 width="100px" height="100px" viewBox="0 0 100 100" enable-background="new 0 0 100 100" xml:space="preserve">
<g>
	<path fill-rule="evenodd" clip-rule="evenodd" fill="#3B2314" d="M77.047,35.185c-13.685,0.39-18.003,13.727-22.233,25.411
		c-0.975-13.674,11.648-19.711,10.327-31.765C64.01,18.553,54.402,13.173,51.64,2.63c-2.401,13.616-16.625,20.467-12.708,34.142
		c2.203,7.672,13.271,12.749,9.535,23.824c-2.109-15.212-14.532-31.778-29.382-23.824c-9.346,6.02-7.648,26.328,3.181,29.375
		c-2.763-12.639,18.268-16.466,20.64-5.552c-2.418-0.035-4.175-1.19-5.184,2.144c-0.982,3.458,2.679,3.089,4.242,4.063
		c0.473,0.293,1.968,1.815,0.469,3.243c-1.615,1.538-2.784-0.641-3.027-0.947c-0.752-0.939-1.764-1.517-2.881-1.517
		c-0.87,0-1.681,0.354-2.353,0.947l0,0c-0.014,0.013-0.023,0.035-0.034,0.041c-0.229,0.208-0.432,0.439-0.626,0.703
		c-3.787,4.62-0.286,9.799,3.042,10.376c8.378,1.469,7.718-10.529,12.704-13.502c-1.493,5.652-3.525,10.774-7.147,14.294
		c0.041,0.112,10.278,8.603,10.323,8.734c0.039-0.299,9.36-9.29,9.527-9.526c-3.125-2.708-7.544-8.316-5.561-13.502
		c-0.737,8.889,9.531,14.629,13.668,12.152l0,0c0.345-0.21,0.654-0.48,0.901-0.815c0.824-0.974,1.361-2.429,1.361-4.077
		c0-1.595-0.502-3.007-1.281-3.98c-0.083-0.112-0.177-0.203-0.265-0.307c-0.041-0.041-0.072-0.091-0.111-0.132
		c-0.73-0.779-1.642-1.268-2.647-1.268c-1.106,0-2.112,0.57-2.856,1.503c-0.271,0.327-1.608,2.325-3.015,0.954
		c-0.66-0.646-1.092-2.156-0.194-3.229c1.472-1.481,5.269-0.563,3.974-4.768c-1.016-2.74-4.314-0.458-4.767-2.379
		c3.792-9.32,23.083-6.522,20.647,6.346C96.158,59.939,93.986,34.698,77.047,35.185z"/>
	<polygon fill="#3B2314" points="21.472,63.552 13.795,87.082 21.472,69.405 28.786,86.345 	"/>
	<path fill="#3B2314" d="M12.296,87.582c0.275,4.732,4.189,8.489,8.995,8.489c4.802,0,8.72-3.757,8.991-8.489H12.296z"/>
	<polygon fill="#3B2314" points="82.657,63.197 74.974,86.719 82.657,69.051 89.971,85.989 	"/>
	<path fill="#3B2314" d="M73.478,87.102c0.278,4.739,4.189,8.492,8.998,8.492c4.802,0,8.721-3.753,8.998-8.492H73.478z"/>
</g>
</svg>
