<?xml version="1.0" encoding="utf-8"?>
<!-- Generator: Adobe Illustrator 18.1.0, SVG Export Plug-In . SVG Version: 6.00 Build 0)  -->
<svg version="1.0" id="Layer_1" xmlns="http://www.w3.org/2000/svg" xmlns:xlink="http://www.w3.org/1999/xlink" x="0px" y="0px"
	 viewBox="0 0 150 150" enable-background="new 0 0 150 150" xml:space="preserve">
<g>
	<g>
		<path fill="#543C4F" d="M91,86.3c2.1,14.4-0.7,26.9-7.8,33.6c3.1-7.7,3.7-18.3,1.7-30.2C86.9,88.6,89,87.5,91,86.3z"/>
		<path fill="#543C4F" d="M85,66c2.6,5.9,4.4,11.8,5.4,17.4c-2,1-4.1,2-6.2,3c-1.5-7.1-3.8-14.6-7.2-22.2
			c-5.8-13.3-13.5-24.6-21.8-32.9C66.7,37.2,77.9,49.8,85,66z"/>
	</g>
	<path fill="#2C3B39" d="M74.3,34.3c-9.1-7.7-19.1-10.9-27.7-7.9C29.9,32.3,25,59.8,35.5,87.8c10.6,28,32.7,45.9,49.4,40
		c4.9-1.7,8.8-5.4,11.6-10.4c-3,12.2-9.5,21.3-19.2,24.7c-21.1,7.5-49.1-15.2-62.5-50.7C1.4,56,7.7,21.2,28.8,13.7
		C43.1,8.7,60.4,17.3,74.3,34.3z"/>
	<g>
		<path fill="#ED353A" d="M102.9,10.1L48,34.2c-3.6,5.6-6.2,11.7-7.7,18.1c0.9,0,1.8-0.2,2.6-0.6l65.5-28.9c3.5-1.6,5.2-5.7,3.6-9.2
			C110.5,10.1,106.4,8.5,102.9,10.1z"/>
		<path fill="#F37D57" d="M96.2,35.5L39,60.7c-0.4,4.9-0.2,10,0.8,15l62-27.3c3.5-1.6,5.1-5.7,3.6-9.2
			C103.9,35.5,99.7,33.9,96.2,35.5z"/>
		<path fill="#FFC434" d="M92.5,59.6L41.4,82.1c0.6,2.1,1.4,4.1,2.3,6.1c1,2.3,2.2,4.5,3.5,6.6l51-22.5c3.5-1.6,5.2-5.7,3.6-9.2
			C100.2,59.6,96,58,92.5,59.6z"/>
		<path fill="#85C340" d="M112.8,73.1L51,100.4c3.2,4,6.8,7.6,10.8,10.6l56.7-25c3.5-1.6,5.2-5.7,3.6-9.2
			C120.4,73.2,116.3,71.6,112.8,73.1z"/>
		<path fill="#48C0BC" d="M136,85.4l-65.5,28.9c-0.7,0.3-1.3,0.7-1.8,1.1c6,3.3,12.7,5.4,19.5,6.4l53.5-23.6
			c3.5-1.6,5.2-5.7,3.6-9.2C143.7,85.4,139.6,83.8,136,85.4z"/>
	</g>
</g>
</svg>
