<?xml version="1.0" encoding="utf-8"?>
<!-- Generator: Adobe Illustrator 18.1.0, SVG Export Plug-In . SVG Version: 6.00 Build 0)  -->
<svg version="1.1" id="Layer_1" xmlns="http://www.w3.org/2000/svg" xmlns:xlink="http://www.w3.org/1999/xlink" x="0px" y="0px"
	 viewBox="0 0 150 150" enable-background="new 0 0 150 150" xml:space="preserve">
<g>
	<path fill="#53C5CF" d="M52.2,77l0.1-4.3c-1.7-0.1-3.4-0.4-4.8-1.1c1.3,0,2.4-1.5,3.4-3.3c-1-0.2-2-0.4-2.8-0.8
		c1.1,0,2.2-1.3,3-2.9c-0.9-0.1-1.7-0.4-2.4-0.7c2.6,0,4.6-7.8,4.6-7.8s2.3,7.8,4.6,7.8c-0.6,0.3-1.4,0.5-2.3,0.7
		c0.9,1.6,1.9,2.9,2.9,2.9c-0.8,0.4-1.7,0.6-2.7,0.8c1,1.8,2.1,3.3,3.2,3.3c-1.3,0.6-2.9,0.9-4.7,1.1l-0.1,3.9
		c6.7-1.2,13.6-1.8,20.4-1.6c0.4,0,0.9,0,1.3,0c2,0.1,4.1,0.2,6.2,0.4l0.1-4.6c-2-0.1-3.9-0.5-5.4-1.2c0,0-0.1,0-0.1,0
		c0,0,0.1,0,0.1,0c1.4-0.1,2.7-1.7,3.7-3.7c-1.2-0.2-2.3-0.5-3.3-0.9c1.3,0,2.5-1.5,3.5-3.3c-1-0.2-2-0.4-2.8-0.8
		c2.8,0,5-7.8,5.3-8.9c0-0.1,0-0.1,0-0.1s0,0,0,0.1c0.3,1,2.8,8.9,5.3,8.9c-0.7,0.4-1.6,0.6-2.6,0.8c1,1.8,2.1,3.3,3.3,3.3
		c-0.9,0.4-1.9,0.7-3.1,0.9c1.1,2.1,2.4,3.8,3.7,3.8c-1.4,0.7-3.4,1.1-5.4,1.2l-0.2,4.9c9.8,1.1,19.5,3.8,28.8,7.6l0.4-13.1
		c-3.8-0.2-7.6-0.9-10.5-2.3c-0.1,0-0.1-0.1-0.2-0.1c0.1,0,0.1,0,0.2,0c2.8-0.1,5.3-3.4,7.3-7.3c-2.3-0.4-4.5-0.9-6.4-1.8
		c2.5,0,4.9-2.9,6.7-6.5c-2-0.3-3.9-0.8-5.4-1.6c5.5,0,9.8-15.5,10.3-17.4c0-0.1,0.1-0.2,0.1-0.2s0,0.1,0.1,0.2
		c0.6,1.9,5.4,17.4,10.3,17.4c-1.5,0.7-3.2,1.2-5.1,1.5c1.9,3.6,4.2,6.5,6.4,6.5c-1.7,0.8-3.8,1.4-6,1.8c2.1,4.1,4.7,7.4,7.2,7.4
		c-2.8,1.3-6.5,2.1-10.4,2.4l-0.5,15.2c6.7,3.1,13.1,6.9,18.8,11.1c2.4-6.8,3.7-14.2,3.7-21.8C140.3,38.3,111,9,74.8,9
		C38.6,9,9.2,38.3,9.2,74.5c0,6.8,1,13.3,2.9,19.5C24.2,85.7,37.9,79.8,52.2,77z M40.7,53.3c-4.9,0-8.9-4-8.9-8.9
		c0-4.9,4-8.9,8.9-8.9c0,0-4.1,2.5-3.9,8.9C37,50.5,40.7,53.3,40.7,53.3z"/>
	<path fill="#03A64F" d="M84.6,70.6c1.9-0.1,3.6-0.5,4.9-1c-1.1-0.3-2.2-1.5-3.4-3.8l-0.1-0.1l0.2,0c1-0.2,1.9-0.4,2.7-0.7
		c-0.9-0.3-1.9-1.4-3-3.4l-0.1-0.1l0.2,0c0.9-0.2,1.6-0.4,2.2-0.6c-2.3-0.7-4.4-7-4.9-8.6c-0.5,1.7-2.4,8-4.9,8.6
		c0.7,0.3,1.5,0.5,2.4,0.6l0.2,0l-0.1,0.1c-1,2-2.1,3.1-3.1,3.3c0.8,0.3,1.8,0.6,2.8,0.8l0.2,0l-0.1,0.1c-1.2,2.3-2.4,3.5-3.5,3.8
		c1.4,0.6,3.1,0.9,5.1,1l0.1,0l-0.1,4.8c0.7,0.1,1.4,0.1,2.1,0.2l0.2-5L84.6,70.6z"/>
	<path fill="#03A64F" d="M118.1,69.8l0.2,0c3.8-0.2,7.1-1,9.7-2.1c-2.1-0.5-4.3-3-6.7-7.4l-0.1-0.2l0.3,0c2.1-0.4,3.9-0.8,5.4-1.5
		c-1.8-0.4-3.8-2.6-5.9-6.5l-0.1-0.2l0.3,0c1.7-0.3,3.2-0.7,4.5-1.2c-4.5-1.2-8.7-13.9-9.7-16.9c-0.8,3.1-4.6,15.8-9.7,17
		c1.3,0.6,2.9,1,4.7,1.3l0.3,0l-0.1,0.2c-2.1,3.9-4.1,6.1-6.2,6.5c1.6,0.7,3.5,1.2,5.7,1.5l0.3,0l-0.1,0.2c-2.3,4.5-4.7,6.9-7,7.4
		c2.7,1.2,6.1,1.9,10,2.1l0.2,0l-0.4,13.4c1.4,0.6,2.8,1.2,4.2,1.8L118.1,69.8z"/>
	<path fill="#03A64F" d="M82.4,70.6l-0.1,0c-1.9-0.1-3.7-0.5-5.1-1c1.2-0.3,2.4-1.5,3.5-3.8l0.1-0.1l-0.2,0c-1.1-0.2-2-0.4-2.8-0.8
		c1-0.2,2.1-1.4,3.1-3.3l0.1-0.1l-0.2,0c-0.9-0.1-1.7-0.4-2.4-0.6c2.5-0.7,4.4-7,4.9-8.6c0.5,1.7,2.6,7.9,4.9,8.6
		c-0.6,0.3-1.4,0.5-2.2,0.6l-0.2,0l0.1,0.1c1,2,2,3.1,3,3.4c-0.7,0.3-1.6,0.6-2.7,0.7l-0.2,0l0.1,0.1c1.2,2.3,2.3,3.5,3.4,3.8
		c-1.3,0.6-3,0.9-4.9,1l-0.1,0l-0.2,5c0,0,0.1,0,0.1,0l0.2-4.9c2-0.1,3.9-0.5,5.4-1.2c-1.3,0-2.6-1.7-3.7-3.8
		c1.1-0.2,2.2-0.5,3.1-0.9c-1.2,0-2.3-1.5-3.3-3.3c1-0.2,1.9-0.4,2.6-0.8c-2.5,0-5-7.8-5.3-8.9h-0.1c-0.3,1-2.5,8.9-5.3,8.9
		c0.8,0.4,1.8,0.6,2.8,0.8c-1,1.8-2.2,3.3-3.5,3.3c0.9,0.5,2.1,0.8,3.3,0.9c-1,2-2.3,3.7-3.7,3.7v0.1c1.5,0.7,3.4,1.1,5.4,1.2
		l-0.1,4.6c0,0,0.1,0,0.1,0L82.4,70.6z"/>
	<path fill="#03A64F" d="M83.4,51.7c0,0,0,0,0,0.1h0.1C83.4,51.7,83.4,51.7,83.4,51.7z"/>
	<path fill="#03A64F" d="M76.8,69.5c0,0,0.1,0,0.1,0v-0.1C76.9,69.5,76.8,69.5,76.8,69.5z"/>
	<path fill="#03A64F" d="M59,71.6c-1.1,0-2.3-1.5-3.2-3.3c1-0.2,1.9-0.4,2.7-0.8c-1,0-2-1.3-2.9-2.9c0.8-0.2,1.6-0.4,2.3-0.7
		c-2.3,0-4.6-7.8-4.6-7.8s-2,7.8-4.6,7.8c0.7,0.3,1.5,0.6,2.4,0.7c-0.8,1.6-1.9,2.9-3,2.9c0.8,0.4,1.8,0.7,2.8,0.8
		c-0.9,1.8-2.1,3.3-3.4,3.3c1.3,0.6,3,1,4.8,1.1L52.2,77c0.7-0.1,1.4-0.3,2.1-0.4l0.1-3.9C56.1,72.6,57.8,72.2,59,71.6z"/>
	<path fill="#03A64F" d="M113.8,69.9l-0.2,0c-3.9-0.2-7.3-0.9-10-2.1c2.3-0.4,4.6-2.9,7-7.4l0.1-0.2l-0.3,0
		c-2.2-0.3-4.1-0.8-5.7-1.5c2.1-0.4,4.1-2.6,6.2-6.5l0.1-0.2l-0.3,0c-1.8-0.3-3.4-0.7-4.7-1.3c5-1.1,8.8-13.9,9.7-17
		c1,3.1,5.2,15.7,9.7,16.9c-1.3,0.5-2.8,0.9-4.5,1.2l-0.3,0l0.1,0.2c2.1,3.9,4.1,6.1,5.9,6.5c-1.5,0.6-3.3,1.1-5.4,1.5l-0.3,0
		l0.1,0.2c2.3,4.5,4.6,7,6.7,7.4c-2.6,1.1-5.9,1.8-9.7,2.1l-0.2,0l-0.5,15.2c0.1,0,0.1,0.1,0.2,0.1l0.5-15.2c3.9-0.3,7.6-1,10.4-2.4
		c-2.5,0-5.1-3.3-7.2-7.4c2.2-0.4,4.3-1,6-1.8c-2.3,0-4.5-2.9-6.4-6.5c1.9-0.3,3.7-0.8,5.1-1.5c-4.9,0-9.8-15.5-10.3-17.4h-0.1
		c-0.5,1.9-4.8,17.4-10.3,17.4c1.6,0.8,3.4,1.3,5.4,1.6c-1.9,3.6-4.2,6.5-6.7,6.5c1.8,0.9,4,1.5,6.4,1.8c-2,3.9-4.6,7.2-7.3,7.3v0.1
		c2.9,1.4,6.7,2.1,10.5,2.3l-0.4,13.1c0.1,0,0.1,0.1,0.2,0.1L113.8,69.9z"/>
	<path fill="#03A64F" d="M115.8,32.9c0,0,0,0.1-0.1,0.2h0.1C115.8,32.9,115.8,32.9,115.8,32.9z"/>
	<path fill="#03A64F" d="M102.9,67.6c0.1,0,0.1,0.1,0.2,0.1v-0.1C103,67.6,103,67.6,102.9,67.6z"/>
	<path fill="#EBEADD" d="M40.7,35.5c-4.9,0-8.9,4-8.9,8.9c0,4.9,4,8.9,8.9,8.9c0,0-3.7-2.9-3.9-8.9C36.7,38.1,40.7,35.5,40.7,35.5z"
		/>
	<path fill="#A0D6D0" d="M74.6,138c-3.2,0.1-6.4,0.6-9.4,1.4c3.1,0.5,6.3,0.7,9.5,0.7c4,0,7.9-0.4,11.7-1.1
		C82.6,138.1,78.6,137.7,74.6,138z"/>
	<path fill="#A0D6D0" d="M74.6,123.7c-10.7,0.1-20.8,3.6-29.2,9.4c2.4,1.2,4.9,2.3,7.4,3.2c6.8-3.2,14.3-4.8,21.8-4.2
		c7,0.1,13.7,2,19.6,5.1c4.2-1.3,8.1-3,11.9-5C96.7,126.2,85.8,123,74.6,123.7z"/>
	<path fill="#53C5CF" d="M74.6,109.4c-15.3,0.4-30.2,6-42,15.4c1.6,1.3,3.3,2.6,5,3.8c10.9-7.3,24-11.2,37-10.8
		c13,0.1,25.1,4.7,35,12.3c3.2-2,6.2-4.3,9-6.8C105.9,113.9,90.2,109,74.6,109.4z"/>
	<path fill="none" d="M129.9,109.6c-15.4-12.6-35.2-20-55.3-20.3C94.7,89.5,114.6,97.2,129.9,109.6
		C129.9,109.6,129.9,109.6,129.9,109.6z"/>
	<path fill="#45A6AF" d="M74.6,95.1c-18.9,0.3-37.5,7.4-51.9,19.3c1.2,1.5,2.4,3,3.8,4.5c13.9-10.3,31.1-15.9,48.1-15.4
		c17,0.4,33.6,6.7,46.5,17.3c2.5-2.6,4.9-5.3,7-8.3C112.8,101.1,93.5,94.6,74.6,95.1z"/>
	<path fill="#008D84" d="M74.6,80.8c-21.5,0.3-42.7,8.1-59.4,21.2c0.8,1.8,1.8,3.6,2.8,5.3c16.3-12.1,36.6-18.7,56.6-18.2
		c20.1,0.3,39.9,7.8,55.3,20.3c0,0,0,0,0,0.1c0.1,0,0.1,0.1,0.2,0.1c1.9-3,3.6-6.1,5-9.4C117.7,87.9,95.7,80.3,74.6,80.8z"/>
</g>
</svg>
