<?xml version="1.0" encoding="utf-8"?>
<!-- Generator: Adobe Illustrator 18.1.0, SVG Export Plug-In . SVG Version: 6.00 Build 0)  -->
<svg version="1.1" id="Layer_1" xmlns="http://www.w3.org/2000/svg" xmlns:xlink="http://www.w3.org/1999/xlink" x="0px" y="0px"
	 viewBox="0 0 2000 2000" enable-background="new 0 0 2000 2000" xml:space="preserve">
<g>
	<path fill="#FAA21B" d="M788.5,1360.1V490.3h-21.7c-64.8,0-114.1-15.4-147.8-45.7h-34.9v-47.4c-1.2-2.6-2.2-5.3-3.3-8v990.3h1.9
		l131.3-12.4L788.5,1360.1z"/>
	<path fill="#FAA21B" d="M1338.1,490.3h-192.9v871.3l47.4,4.5l141.8,13.4h4.3V451.1c-0.2-0.1-0.4-0.1-0.6-0.1V490.3z"/>
	<path fill="#FAA21B" d="M584.1,397.2v47.4H619C604.5,431.5,592.8,415.8,584.1,397.2z"/>
	<polygon fill="#D58528" points="788.5,1360.1 814.8,1357.6 958.9,1344 1091.8,1356.6 1145.1,1361.6 1145.1,490.3 788.5,490.3 	"/>
	<g>
		<rect x="696.9" y="222.2" fill="#CE9868" width="474.3" height="21.8"/>
		<rect x="696.9" y="282.6" fill="#CE9868" width="474.3" height="21.8"/>
		<rect x="696.9" y="346.5" fill="#CE9868" width="474.3" height="21.8"/>
		<polygon fill="#CE9868" points="1334.4,1379.5 1192.5,1366.1 1145.1,1361.6 1091.8,1356.6 958.9,1344 958.9,1377.5 958.9,1379.5 
			958.9,1425.1 958.9,1600.6 1165.2,1620.2 958.9,1898.4 1323.9,1406.2 1343.1,1380.4 		"/>
	</g>
	<g>
		<path fill="#FAB77C" d="M1273.2,188.8H764.6c-5.6,0-11.5,0-17.6-0.2c-5.7-0.1-11.7-0.2-17.8-0.2c-56.1,0-90.3,7.2-90.3,107.8
			c0,78.3,34.6,107.5,127.9,107.5l493.7-0.1c-25-27.2-40.2-62.5-40.2-101.2C1220.2,257.4,1240.6,217.1,1273.2,188.8z M1171.2,368.3
			H696.9v-21.8h474.3V368.3z M1171.2,304.4H696.9v-21.8h474.3V304.4z M1171.2,244H696.9v-21.8h474.3V244z"/>
		<polygon fill="#FAB77C" points="788.5,1360.1 714.1,1367.1 582.8,1379.5 577.4,1380 574.7,1380.4 958.9,1898.4 752.7,1620.2 
			958.9,1600.6 958.9,1425.1 958.9,1379.5 958.9,1377.5 958.9,1344 814.8,1357.6 		"/>
	</g>
	<g>
		<path fill="#231F20" d="M764.6,101.9c-5.3,0-10.7-0.1-16.3-0.1c-6.2-0.1-12.6-0.2-19-0.2c-29.1,0-89.5,0.1-128.4,52.9
			c-6.1,8.3-11.8,17.9-16.6,29.1c-11.9,27.4-19.4,63.9-19.4,112.5c0,36.1,5.5,67,16.1,93.1c1.1,2.7,2.1,5.4,3.3,8
			c8.7,18.6,20.4,34.3,34.9,47.4c33.7,30.3,82.9,45.7,147.8,45.7h21.7h356.6h192.9V451v-6.4V438v-34.5l-77.7,0l-493.7,0.1
			c-93.3,0-127.9-29.2-127.9-107.5c0-100.6,34.2-107.8,90.3-107.8c6.1,0,12,0.2,17.8,0.2c6,0.2,11.9,0.2,17.6,0.2h508.6h64.9v-34.3
			v-0.9v-51.7H764.6z"/>
		<polygon fill="#231F20" points="752.7,1620.2 958.9,1898.4 1165.2,1620.2 958.9,1600.6 		"/>
	</g>
</g>
</svg>
