<?xml version="1.0" encoding="utf-8"?>
<!-- Generator: Adobe Illustrator 18.1.0, SVG Export Plug-In . SVG Version: 6.00 Build 0)  -->
<svg version="1.1" id="Layer_1" xmlns="http://www.w3.org/2000/svg" xmlns:xlink="http://www.w3.org/1999/xlink" x="0px" y="0px"
	 viewBox="0 0 150 150" enable-background="new 0 0 150 150" xml:space="preserve">
<g>
	<path fill="#05B04C" d="M80.9,73.6c0-3.9-3.2-7.1-7.1-7.1c-3.9,0-7.1,3.2-7.1,7.1c0,3.9,3.2,7.1,7.1,7.1
		C77.7,80.7,80.9,77.5,80.9,73.6z"/>
	<g>
		<polygon fill="#047CC0" points="121.2,51 27.2,50.9 27.2,42.5 121.3,42.7 		"/>
		
			<rect x="112" y="42.7" transform="matrix(3.649421e-03 -1 1 3.649421e-03 79.9521 173.9861)" fill="#047CC0" width="30.6" height="8.4"/>
		<polygon fill="#047CC0" points="25.4,31.4 25.3,62 17,61.9 17.1,31.4 		"/>
		<polygon fill="#047CC0" points="15.7,35.5 15.6,58.8 9.2,58.8 9.3,35.5 		"/>
		<polygon fill="#047CC0" points="139.3,35.7 139.2,59.1 132.8,59.1 132.9,35.7 		"/>
		<polygon fill="#047CC0" points="144.1,39.4 144.1,54.4 140.8,54.4 140.8,39.4 		"/>
		<polygon fill="#047CC0" points="7.7,39.2 7.6,54.1 4.3,54.1 4.4,39.1 		"/>
	</g>
	<g>
		<path fill="#05B04C" d="M31.9,55.2c0,0,36.1,32.8,41.9,67.5V92.9C70.7,88.6,54.1,66.3,31.9,55.2z"/>
	</g>
	<g>
		<path fill="#047CC0" d="M116.2,55.2c0,0-36.1,32.8-41.8,67.5V92.9C77.4,88.6,94,66.3,116.2,55.2z"/>
	</g>
</g>
</svg>
