<?xml version="1.0" encoding="utf-8"?>
<!-- Generator: Adobe Illustrator 18.1.0, SVG Export Plug-In . SVG Version: 6.00 Build 0)  -->
<svg version="1.1" id="Layer_1" xmlns="http://www.w3.org/2000/svg" xmlns:xlink="http://www.w3.org/1999/xlink" x="0px" y="0px"
	 viewBox="0 0 150 150" enable-background="new 0 0 150 150" xml:space="preserve">
<g>
	<path fill="#F67D4B" d="M34.1,126.7c0,3.2-2.6,5.8-5.8,5.8l0,0c-3.2,0-5.8-2.6-5.8-5.8v-64c0-3.2,2.6-5.8,5.8-5.8l0,0
		c3.2,0,5.8,2.6,5.8,5.8V126.7z"/>
	<path fill="#FFAF3A" d="M56.8,107.5c0,3.2-2.6,5.8-5.8,5.8l0,0c-3.2,0-5.8-2.6-5.8-5.8V33.9c0-3.2,2.6-5.8,5.8-5.8l0,0
		c3.2,0,5.8,2.6,5.8,5.8V107.5z"/>
	<path fill="#F67D4B" d="M79.5,131.7c0,3.2-2.6,5.8-5.8,5.8l0,0c-3.2,0-5.8-2.6-5.8-5.8V39c0-3.2,2.6-5.8,5.8-5.8l0,0
		c3.2,0,5.8,2.6,5.8,5.8V131.7z"/>
	<path fill="#FFAF3A" d="M102.2,126.7c0,3.2-2.6,5.8-5.8,5.8l0,0c-3.2,0-5.8-2.6-5.8-5.8V81.9c0-3.2,2.6-5.8,5.8-5.8l0,0
		c3.2,0,5.8,2.6,5.8,5.8V126.7z"/>
	<path fill="#F67D4B" d="M124.9,126.7c0,3.2-2.6,5.8-5.8,5.8l0,0c-3.2,0-5.8-2.6-5.8-5.8v-112c0-3.2,2.6-5.8,5.8-5.8l0,0
		c3.2,0,5.8,2.6,5.8,5.8V126.7z"/>
	<path opacity="0.3" fill="#FFFFFE" d="M27.4,127c0,0.9-0.7,1.6-1.6,1.6l0,0c-0.9,0-1.6-0.7-1.6-1.6V62c0-0.9,0.7-1.6,1.6-1.6l0,0
		c0.9,0,1.6,0.7,1.6,1.6V127z"/>
	<path opacity="0.3" fill="#FFFFFE" d="M50.8,108.4c0,0.9-0.7,1.6-1.6,1.6l0,0c-0.9,0-1.6-0.7-1.6-1.6V32.8c0-0.9,0.7-1.6,1.6-1.6
		l0,0c0.9,0,1.6,0.7,1.6,1.6V108.4z"/>
	<path opacity="0.3" fill="#FFFFFE" d="M95.8,129.1c0,0.9-0.7,1.6-1.6,1.6l0,0c-0.9,0-1.6-0.7-1.6-1.6V80.4c0-0.9,0.7-1.6,1.6-1.6
		l0,0c0.9,0,1.6,0.7,1.6,1.6V129.1z"/>
	<path opacity="0.3" fill="#FFFFFE" d="M73.3,132.8c0,0.9-0.7,1.6-1.6,1.6l0,0c-0.9,0-1.6-0.7-1.6-1.6V38.1c0-0.9,0.7-1.6,1.6-1.6
		l0,0c0.9,0,1.6,0.7,1.6,1.6V132.8z"/>
	<path opacity="0.3" fill="#FFFFFE" d="M118.7,128.1c0,0.9-0.7,1.6-1.6,1.6l0,0c-0.9,0-1.6-0.7-1.6-1.6v-114c0-0.9,0.7-1.6,1.6-1.6
		l0,0c0.9,0,1.6,0.7,1.6,1.6V128.1z"/>
	<g>
		<path d="M95.9,103.8c-0.8-0.6-22.2-15.3-22.2-15.3L50.8,67.1L27.1,92.3l0.7,0.7c0,0,22.4-23.8,23-24.5
			c0.7,0.6,22.3,20.8,22.3,20.8l23.1,15.9l23.3-39.8l-0.8-0.5C118.6,64.9,96.4,102.9,95.9,103.8z"/>
	</g>
	<circle opacity="0.56" fill="#9A6241" cx="27.6" cy="93.9" r="2.7"/>
	<circle opacity="0.56" fill="#9A6241" cx="50.6" cy="69.2" r="2.7"/>
	<circle opacity="0.56" fill="#9A6241" cx="73.1" cy="90" r="2.7"/>
	<circle opacity="0.56" fill="#9A6241" cx="95.5" cy="105.3" r="2.7"/>
	<circle opacity="0.56" fill="#9A6241" cx="118.4" cy="66.5" r="2.7"/>
	<circle fill="#FFFFFE" cx="27.6" cy="92.4" r="2.4"/>
	<circle fill="#FFFFFE" cx="50.7" cy="67.9" r="2.4"/>
	<circle fill="#FFFFFE" cx="73.1" cy="88.9" r="2.4"/>
	<circle fill="#FFFFFE" cx="95.6" cy="104.4" r="2.4"/>
	<circle fill="#FFFFFE" cx="118.5" cy="65.4" r="2.4"/>
</g>
</svg>
