<?xml version="1.0" encoding="utf-8"?>
<!-- Generator: Adobe Illustrator 18.1.0, SVG Export Plug-In . SVG Version: 6.00 Build 0)  -->
<svg version="1.1" id="Layer_1" xmlns="http://www.w3.org/2000/svg" xmlns:xlink="http://www.w3.org/1999/xlink" x="0px" y="0px"
	 viewBox="0 0 2000 2000" enable-background="new 0 0 2000 2000" xml:space="preserve">
<g>
	<path fill="#7ACEBE" d="M262.1,612.6c0-0.2,0-0.3,0-0.5c-0.9,2.1-1.8,4.2-2.7,6.4c0.9-1,1.8-2.1,2.8-3.1
		C262.2,614.1,262.1,612.6,262.1,612.6z"/>
	<path fill="#7ACEBE" d="M245.1,655c-1.3,3.5-2.7,7-4,10.6l5.7,0.4C245.9,662.4,245.3,658.7,245.1,655z"/>
	<path fill="#7ACEBE" d="M380.1,563c0.2,0.1,0.4,0.3,0.5,0.4c0.2-0.2,0.3-0.5,0.5-0.7c-0.2,0.1-0.6,0.3-0.6,0.3
		C380.4,563,380.2,563,380.1,563z"/>
	<path fill="#7ACEBE" d="M325.4,534.1c-1.4-4.2-2.1-8.5-2.1-12.9c0-6.5,1.9-12.8,5-18.6c-0.3-0.7-0.5-1.3-0.5-1.3
		c-1.1-3.3-1.7-6.7-2.2-10.1c-14.8,23.5-28.6,47.9-41.2,72.9c12.3-11.3,28.8-18.3,46.9-18.8C328.9,541.9,326.8,538.2,325.4,534.1z"
		/>
	<path fill="#7ACEBE" d="M657.4,563.2c-1.8-2.3-3.3-4.8-4.5-7.5c-1.9-4.1-2.8-8.3-3.2-12.7c-2.8,5-6.8,9.1-11.6,12.4
		c6,2.9,11.7,6.5,16.9,11C655.6,565.2,656.5,564.2,657.4,563.2z"/>
	<path fill="#7ACEBE" d="M781.9,470.8c0,0.1-0.1,0.3-0.1,0.4c0.1,2.2,0.2,4.4,0.2,4.8c7.8-2.6,16.2-4.1,24.9-3.9
		c0-5.2,1-10.3,3-15.3c0.2-0.6,0.6-1,0.8-1.6c-4.5,0.9-9,1.1-13.5,0.5C793.3,461.6,788.1,466.8,781.9,470.8z"/>
	<path fill="#7ACEBE" d="M191.3,959.4c0,172.3,49.1,332.4,133.1,466.3L236,681.2C207.2,768.4,191.3,861.9,191.3,959.4z"/>
	<path fill="#7ACEBE" d="M404.8,437.3c4.7-3.9,10-7,16-8.7c23.1-6.3,47.8,6.7,55.2,28.9c1.4,4.2,2.1,8.5,2.1,12.8
		c0,8.9-3.4,17.3-9,24.5c0.6,1.5,1.1,2.7,1.3,3.2c2.9-5.2,6.5-10.1,11-14.3c0-1.2-0.1-2.8-0.1-2.8c0.1-4.7,0.7-9.3,1.7-13.8
		c-2.7-3.2-4.9-6.8-6.2-10.9c-1-3.2-1.6-6.5-1.6-9.7c0-4.5,1.8-8.6,3.7-12.7c-0.2-0.5-0.4-1.1-0.4-1.1c-1.4-4.1-2-8.3-2-12.4
		c0-6.3,1.6-12.5,4.6-18.2c5.2-9.7,14.2-16.8,25.2-19.8c9.6-2.6,19.6-1.2,28.8,2.7c3.4-2.7,6.9-5.3,11.2-6.5
		c17.4-4.8,35.9,5,41.5,21.7c1,3.2,1.6,6.5,1.6,9.7c0,4.4-1.2,8.5-3.1,12.4c5.1,2.8,10.1,6,14.5,10c2.8-1.3,5.8-2.3,8.8-3.1
		c0-0.6,0-1,0-1c0.8-37.8,33.3-68,72.6-67.4c17.7,0.3,33.9,4.2,46.7,15.7c7.5-3.4,15.7-8.4,23.9-8.4c0,0,0.1,0,0.1,0
		c2.5,0,5.2-0.6,8.2-2c0.2-0.7,0.5,0.3,0.5,0.2c10.1-24.9,39.3-37.3,65.2-28.6c11.3,3.8,19.9,11.9,25.6,21.7
		c5.6-0.5,11.2,0.2,16.4,2c10,3.4,17.9,10.4,22.2,19.7c2.2,4.7,3.3,9.9,3.3,14.9c0,0.1,0,0.2,0,0.2c4.3,0.4,8.7,1.2,12.9,2.6
		c12.9,4.3,22.7,13.2,29.2,24.5c6.4-0.7,12.9-0.1,18.9,1.9c11.2,3.8,20,11.5,24.8,21.9c2.4,5.3,3.6,10.9,3.6,16.5
		c3.7,0.2,7.3,0.8,10.7,1.9c11.2,3.8,20,11.6,24.8,22c2.5,5.3,3.7,10.9,3.7,16.6c0,4.5-0.9,9-2.4,13.4c5.1,0.3,10.2,1,15.2,2.7
		c12.9,4.3,22.7,13.2,29.1,24.5c6.5-0.7,12.9-0.1,18.9,1.9c11.2,3.8,20,11.5,24.8,21.9c2.5,5.3,3.7,11,3.7,16.7c0,5.2-1,10.4-3,15.4
		c-1.4,3.4-3.2,6.6-5.4,9.4c1.1,1.6,2.3,3.1,3.3,4.8c6.4-0.6,12.9-0.1,18.9,1.9c11.2,3.8,20,11.5,24.8,21.9c2.5,5.3,3.7,11,3.7,16.7
		c0,2.4-0.3,4.8-0.7,7.2l31.8-0.7l-43.9,367.5c25.1-105.8,109.5-189.2,216.5-213.6l-64.4-257.4l-229.7-146.2
		c0-43.5,32.6-59.8,32.6-59.8l210.4,174.4c4.6-1.8,10.5-1,18.2,5.1l73.3,277.6c8.2-0.7,16.4-1.1,24.7-1.1
		c159,0,288.4,127.7,289.4,285c18.3,12.8,30,33.4,30,56.1c0,35.8-27.3,65.6-62.2,69.1l-1.7,13.6h0l-0.5,4l-28.4,223l-2,15.8
		c104.2-143,166.3-321.6,166.3-515.4c0-469.4-363.2-850-811.3-850c-258.6,0-488.7,126.8-637.2,324.2
		C378.5,430.2,392.3,431.7,404.8,437.3z"/>
	<path fill="#7ACEBE" d="M951.8,1807.5c0.1,0,0.1,0,0.2,0c-0.1-0.1-0.1-0.1-0.2-0.2C951.8,1807.4,951.8,1807.4,951.8,1807.5z"/>
	<path fill="#7ACEBE" d="M1195.8,1403.5l-7.1-56.1l-17.2-133.3h-4.3c-17.8,0-34-4.6-46.2-15.7l-66.9,561.5c1.2,0.4,2.4,1.2,3.4,1.7
		c7.9,4,13.5,11,15.8,19.3c0.8,2.7,1.1,5.5,1.1,8.3c0,5.7-1.6,11.4-4.8,16.5c-0.2,0.3-0.4,0.5-0.5,0.7c60.4-5.1,119-16.9,174.9-35.2
		L1195.8,1403.5C1195.8,1403.5,1195.8,1403.5,1195.8,1403.5z"/>
	<path fill="#FDE8DA" enable-background="new    " d="M793.5,393.5c3.2-0.9,6.7-1.4,10.4-1.3l-4.4-1c1.4-6.2,2.1-14.3-2.1-17.7
		c-5.8-4.8-19.3-1.4-26.1,1l-1,2.8l-0.7,0.3c8.3,2.8,16,7.3,22.2,13.7C792.4,392,792.9,392.8,793.5,393.5z"/>
	<path fill="#FDE8DA" enable-background="new    " d="M779.8,360.2c8.3-1.4,18.1-1.4,24.9,4.3c6.8,5.7,8.8,15.3,6.1,28.5
		c2.2,0.5,4.3,1.2,6.6,2.2l-4.8,10.6c-4.2-1.9-8.3-2.3-12.1-1.9c3.7,7.2,5.9,15.1,5.9,23.3c0,0.4,0,1,0,1
		c-0.1,5.6-1.3,11.1-3.2,16.2c7.1,0.1,14.2-2.1,19.8-6.7l3.5-2.2c0,0,0.7,0.4,1.6,0.8c1.6-1,3.2-2,4.9-2.8c0.3-0.9,0.6-1.8,0.6-1.8
		c1.6-4,3.7-7.6,6.1-11c-3.9-0.6-8.4,0.2-13.7,2.3l-4.5-10.7c10.1-4.2,19-4.5,26.6-1.1c9.4-8.5,21.5-13.9,34.3-15.2
		c0-3.5-0.6-7.1-2.1-10.3c-2.9-6.3-8.4-11.1-15.3-13.5c-3.2-1-6.6-1.3-10-1.2c-0.9,7.3-3.1,16.3-8.8,19.2c-2.9,1.5-6.3,1.3-9.4-0.6
		l6.1-9.8c-0.6-0.3-1.9-0.1-2.4,0.4c1.3-1.3,2.7-7.4,3.2-13.3c-4.2-8.3-11.5-14.5-20.8-17.7C807.4,344.1,790.4,349,779.8,360.2z"/>
	<path fill="#FDE8DA" enable-background="new    " d="M363,471.2c10.6,0.3,19.8,7.7,27.4,22l-10.2,5.4
		c-5.5-10.4-11.4-15.7-17.4-15.8c-9.1-0.2-18.6,10.8-22.9,17.2l1.3,3.2l-1.6,2.5c-4.7,7.3-5.8,16.3-3,24.7c2.4,7.2,7.4,13,13.6,16.9
		c4.9,1.2,9.6,3,14.1,5.2c4.4,0.6,8.9,0.4,13.4-0.9l8.6-3.8l3.1-1.4l0.4,0.2c3.1-1,7.7-3,9.2-5.6c0.4-0.6,0.6-1.5,0.1-3l6.5-2.2
		c11.5-17.7,32.5-27.8,53.7-26.4c0.4-1.3,0.6-2.7,0.6-4.1c0-0.8-0.2-1.6-0.3-2.4c-3.3-2.1-10.7-6-18.3-4.6
		c-5.7,1.1-10.6,5.1-14.7,12l-10-5.9c5.9-10,13.5-15.9,22.7-17.5c7.4-1.4,14.3,0.4,19.6,2.7c5-5.4,7.7-12.2,7.7-19.3
		c0-3.1-0.5-6.2-1.5-9.3c-5.5-16.4-23.9-26-41.1-21.3c-3.8,1-7.2,3-10.3,5.2c4.7,7.2,9.4,16.8,6.5,22.9c-1.5,3.2-4.7,5.1-8.6,5.3
		l-0.3-11.6c-0.7,0.1-1.6,1.2-1.7,1.9c0.2-2.1-3.3-9-7.6-15c-10.6-5.3-22.6-6.6-33.8-3.5c-11.7,3.2-21.1,10.6-26.6,20.8
		c-3.2,6.1-4.6,12.7-4.5,19.4C343.1,478.2,352.2,471,363,471.2z M401.3,502.9c-20.3,3.4-22.9,25.7-23,26.6l-11.5-1.1
		c1.1-11.1,9.3-33,32.6-36.9L401.3,502.9z"/>
	<path fill="#E8A26C" d="M366.8,528.4l11.5,1.1c0.1-0.9,2.7-23.2,23-26.6l-1.9-11.4C376.1,495.3,367.9,517.3,366.8,528.4z"/>
	<path fill="#FDE8DA" enable-background="new    " d="M512.4,425.4c-2.1-2.7-4.6-4.9-7.4-4.9c-5.5-0.2-11.5,6.6-14.5,10.9l0.9,2.3
		l-1.6,2.5c-3.1,4.8-3.8,10.7-2,16.2c0.1,0.2,0.2,0.4,0.3,0.6C493.4,441.8,501.9,432.3,512.4,425.4z"/>
	<path fill="#FDE8DA" enable-background="new    " d="M505.2,408.9c6.6,0.1,12.4,3.9,17.4,10.9c9.5-4.2,20.1-6.6,31.2-6.4
		c7.7,0.1,15,1.7,22,4.2c2-4.3,2.4-9.1,0.8-13.9c-3.6-11-15.9-17.3-27.4-14.2c-2,0.6-3.9,1.4-5.6,2.5c3.5,5.7,6.2,12.2,3.9,16.8
		c-1.4,2.9-4.1,4.5-7.6,4.7l-0.5-11.6c-1.2,0.1-2.7,1.7-2.7,2.9c-0.1-1.4-2.3-5.7-4.9-9.4c-7.1-3.5-15.1-4.3-22.7-2.2
		c-7.9,2.2-14.3,7.1-18,14.1c-1.5,2.8-2.4,5.8-2.8,8.9C492.8,412.2,498.6,408.7,505.2,408.9z"/>
	<path fill="#FDE8DA" enable-background="new    " d="M652.1,404.7c15.2-11.5,35.8-15.8,54.9-9.4c7.4,2.5,13.7,6.6,19,11.7
		c-0.2-4.5-1.3-11.3-3.2-17.7c-11-10.6-25.6-16.7-41.2-17c-28.2-0.5-52.1,18-58.8,43.1C630.7,410.5,641.5,405.2,652.1,404.7z"/>
	<path fill="#FDE8DA" enable-background="new    " d="M633.8,428.1c1.1-2.7,2.5-5.2,4-7.7c-4.3,2-8.4,4.4-11.8,6.8
		C628.7,427.3,631.2,427.6,633.8,428.1z"/>
	<path fill="#FDE8DA" enable-background="new    " d="M736.2,419.7c6.4-0.7,12.9-0.1,18.9,1.9c11.2,3.8,20,11.5,24.8,21.9
		c1.8,3.9,2.7,7.9,3.2,12c7.3-7.4,11.5-17,11.7-27.4c0-0.3,0-0.5,0-0.8c0-10.4-4-20.3-11.4-28c-8.1-8.4-19.1-13.1-31-13.3
		c-6-0.1-11.8,1.3-17.4,3.6c2.3,8.7,4.5,21.6,0.1,28.5C735.4,418.6,735.9,419.1,736.2,419.7z"/>
	<path fill="#FDE8DA" enable-background="new    " d="M951.4,436.1c-3.9-1.3-8.2-1.6-12.4-1.4c-0.1,0.9-0.2,1.8-0.4,2.7
		c2.6,0.5,5.1,0.9,7.7,1.8c10.4,3.5,18.8,10.1,25,18.4c-0.4-1.9-1.1-3.8-1.9-5.7C965.9,444.4,959.6,438.8,951.4,436.1z"/>
	<path fill="#FDE8DA" enable-background="new    " d="M903.3,409.7c-18.8-6.3-39.3,0.2-51.5,14.5c9.7-2,21.9-2.5,30,4.3
		c5.6,4.7,8.2,11.8,7.9,21.3c10.4-8.4,23.5-13.3,37.1-13.5c0.3-1.9,0.6-3.9,0.8-5.9C922.7,420.7,914.2,413.3,903.3,409.7z"/>
	<path fill="#FDE8DA" enable-background="new    " d="M874.5,437.4c-7-5.8-23.2-1.6-30.9,1.1l-1.1,3.3l-2.5,0.9
		c-8.8,3.4-15.8,10.1-19.2,18.4c-1.6,4-2.3,8.2-2.1,12.3c12.8,2.4,24.4,8.4,34.2,16.9c4.6-7,11.4-12.6,19.3-16.3
		c0.1-0.4,0.3-0.8,0.4-1.1c-10,2.8-17.1,9.7-17.6,10.2l-8.2-8.2c0.8-0.7,14.6-14.3,33-14.8c0.3-0.4,0.6-0.7,0.8-1l-3.5-0.8
		C878.7,451.1,879.5,441.6,874.5,437.4z"/>
	<path fill="#FDE8DA" enable-background="new    " d="M990.6,476.4c-4-1.3-8.2-1.6-12.5-1.4c-0.9,7.7-3.3,18.6-9.6,21.9
		c-1.8,0.9-5.5,2.1-10-0.7l6.2-9.8c-0.5-0.2-1.5,0-1.8,0.3c1.5-1.4,3.3-8.9,3.9-16c-4.9-9.7-13.4-17.1-24.3-20.8
		c-18.8-6.3-39.3,0.2-51.5,14.5c9.7-2,21.9-2.5,30,4.3c7.6,6.3,9.8,17.3,6.6,32.4l-11.3-2.5c1.6-7.3,2.4-16.8-2.6-21
		c-7-5.8-23.2-1.7-30.9,1.1l-1.1,3.3l-2.5,1c-2,0.8-3.8,1.7-5.6,2.8c1.4-0.1,2.8-0.2,4.1-0.2c14.1,0.2,27.1,5.7,37.2,15.2
		c6.4-0.8,13.5-0.3,20.9,3.1l-4.8,10.5c-2.3-1-4.5-1.7-6.7-2c1.9,3.3,3.4,6.7,4.6,10.2c15.4-14.5,38.5-20.6,59.7-13.5
		c6.2,2.1,11.6,5.3,16.4,9.2c0.8-0.2,1.6,1.2,2.4,1.1c0.5-1,1.3-1.6,1.7-1.6h0c3-13,2.9-17.1-0.4-24.3
		C1005.1,486.2,998.7,479.2,990.6,476.4z"/>
	<path fill="#FDE8DA" enable-background="new    " d="M824.8,609.7c2.3-12.4,8-23.7,16.2-32.8l-0.1-0.1c0.2-0.2,0.4-0.3,0.7-0.5
		c13.4-14.5,33-23.6,54.6-23.2c1.6,0,3,0.4,4.6,0.5c3.9-3.8,8.5-6.9,13.5-9.3c0.3-0.9,0.6-1.8,0.6-1.8c1.2-3,2.8-5.7,4.4-8.4
		c-1-8.7-4.7-16.9-11-23.4c-8.1-8.4-19.1-13.1-31-13.3c-6-0.1-11.9,1-17.5,3.2c2.5,9.4,5.2,24.1-0.9,30.5c-1.6,1.7-5.1,4.3-11,2.8
		l2.5-10.6c1.5-2.3,0.2-12.9-2.7-22.6c-11-10.6-25.5-16.7-41.2-16.9c-9.9-0.2-19.2,2.2-27.5,6.2c6.1-0.5,12.3,0,18.1,1.9
		c11.2,3.8,20,11.5,24.8,21.9c2.5,5.3,3.7,11,3.7,16.7c0,5.2-1,10.4-3.1,15.4c-1.4,3.4-3.2,6.4-5.3,9.3c2.2,0,4.3-0.2,6.6,0.1
		l-1.4,11.5c-0.1,0-0.3,0-0.4,0c1.6,4.3,2.6,8.8,2.6,13.4c0,5.2-1,10.4-3,15.4c-1.4,3.4-3.3,6.6-5.4,9.4c1.1,1.6,2.3,3.1,3.3,4.8
		C821.4,609.6,823.1,609.7,824.8,609.7z"/>
	<path fill="#FDE8DA" enable-background="new    " d="M942.1,571.3c4.2-6.4,10.3-11.5,17.4-15.1c-0.4-3.3-1.3-6.3-3.6-8.2
		c-7-5.8-23.2-1.7-30.9,1.1l-1.1,3.3l-2.5,1c-2.2,0.8-4.2,1.9-6.1,3C925.1,559.4,934.3,564.4,942.1,571.3z"/>
	<path fill="#FDE8DA" enable-background="new    " d="M967.1,543.6c5.9-9,14.3-16,23.9-20.5c-2-1-4-2-6.2-2.8
		c-18.8-6.3-39.3,0.2-51.5,14.5c9.7-2,21.8-2.5,30,4.3C964.9,540.3,966,541.9,967.1,543.6z"/>
	<path fill="#FDE8DA" enable-background="new    " d="M651.9,420.7c9.7-2,21.9-2.5,30,4.3c7.7,6.3,9.9,17.3,6.5,32.4l-11.3-2.5
		c1.6-7.3,2.4-16.8-2.6-21c-5.6-4.7-17.1-2.9-25.5-0.6c5.4,2.7,10.4,6.2,14.6,10.6c3.9,4,6.9,8.7,9.3,13.6
		c7.1-1.4,15.1-1.1,23.6,2.7l-4.8,10.5c-5.1-2.3-10.1-2.7-14.7-2.1c0.8,3.7,1.4,7.4,1.4,11.2c0,0.3,0,1,0,1
		c-0.1,6.7-1.6,13.2-4.2,19.1l1.1,0.4c0.3-0.9,0.6-1.8,0.6-1.8c11.4-28.1,44.3-42.9,73.4-33.1c6.9,2.3,12.8,5.9,17.8,10.5
		c1-1.5,2-3,2.7-4.7c1.4-3.6,2.2-7.4,2.2-11.1c0-4.1-0.9-8.1-2.6-11.8c-3.4-7.4-9.8-13.1-18-15.8c-4-1.3-8.2-1.6-12.5-1.4
		c-0.9,7.7-3.3,18.6-9.6,22c-1.8,0.9-5.5,2.1-9.9-0.6l6.2-9.8c-0.5-0.2-1.4-0.1-1.8,0.3c1.6-1.4,3.4-8.9,3.9-16
		c-4.9-9.7-13.5-17.1-24.3-20.7C684.6,400,664.1,406.4,651.9,420.7z"/>
	<path fill="#FDE8DA" enable-background="new    " d="M622.3,549.7c10.1-2.1,18-9.9,19.8-19.8c-2.9-3.6-10.5-11.7-21-13
		c-8.2-1.1-16.9,2.3-25.6,10l-7.6-8.7c11.4-10,23.2-14.3,34.9-12.7c9.3,1.2,16.8,6,21.9,10.5l0.4-0.2c13.3-7.4,21.4-20.5,21.7-35
		c0.2-10.7-3.8-20.9-11.4-28.7c-8.1-8.4-19.1-13.1-31.1-13.3c-6-0.1-11.9,1-17.4,3.2c2.5,9.4,5.1,24.1-0.9,30.5
		c-1.6,1.7-5.1,4.3-11,2.8l2.5-10.6c1.5-2.3,0.2-13-2.6-22.6c-11-10.6-25.5-16.7-41.2-16.9c-28.2-0.5-52.2,18-58.9,43.1
		c10.7-6.8,27-14.3,41-9.2c11.8,4.3,19.3,16.3,22.2,35.5l-11.5,1.7c-2.3-14.8-7.2-23.6-14.7-26.4c-12.3-4.5-30.6,7.2-38.9,13.8
		l0.1,4.4l-2.2,1.8c-7.5,6.1-12.4,14.5-14.2,23.5c11.6,4.6,20.6,12.8,26.6,23.3c6.4-0.7,12.9-0.1,18.9,1.9
		c10.6,3.6,19,10.8,23.9,20.4c1.7-0.6,3.3-1.4,4.5-2.5c1.4-1.3,2.1-2.9,2.1-5l11.6,0.2c-0.1,5.3-2.1,9.8-5.9,13.3
		c-2.4,2.2-5.4,3.8-8.5,4.9c0,0.1,0,0.3,0,0.4c1.4,0.5,2.8,1,4.2,1.4c13.4-14.7,33.1-23.9,55-23.5
		C613.5,548.2,618,548.7,622.3,549.7z M569.6,507.9c-28-3.3-41.4,24.5-41.9,25.6l-10.5-4.9c5.9-12.7,24.7-35.7,53.8-32.2
		L569.6,507.9z"/>
	<path fill="#E8A26C" d="M517.1,528.7l10.5,4.9c0.6-1.2,13.9-29,41.9-25.6l1.4-11.5C541.8,493,523,516,517.1,528.7z"/>
	<path fill="#FDE8DA" enable-background="new    " d="M793.6,502.8c-4-1.3-8.2-1.6-12.5-1.4c-0.9,7.7-3.3,18.7-9.6,21.9
		c-1.5,0.8-4.3,1.6-7.7,0.3c5.5,4.4,10.1,9.7,13.6,15.8c6.4-0.6,12.9-0.1,18.9,1.9c4.5,1.5,8.4,4.6,12.1,7.2c1.4-2,2.7-5.7,3.6-5.7
		h0c3-13,2.9-16.5-0.4-23.7C808.2,511.9,801.8,505.5,793.6,502.8z"/>
	<path fill="#FDE8DA" enable-background="new    " d="M748.3,515.1c5,1.7,9.5,4.3,13.5,7.2l6-9.4c-0.5-0.2-1.5,0-1.8,0.3
		c1.6-1.4,3.3-8.8,3.9-16c-4.9-9.7-13.4-17.1-24.3-20.8c-18.8-6.3-39.3,0.2-51.5,14.5c9.7-2,21.9-2.5,30,4.3c4.7,4,7.1,9.8,7.7,17.2
		C737.3,512.6,742.9,513.3,748.3,515.1z"/>
	<path fill="#FDE8DA" enable-background="new    " d="M720.5,513.1c-0.3-3.6-1.3-6.9-3.7-8.9c-7-5.8-23.2-1.7-30.9,1.1l-1.1,3.3
		l-2.5,1c-8.8,3.4-15.8,10.1-19.2,18.4c-3,7.6-2.9,15.7,0.4,22.9c0.7,1.5,1.6,2.9,2.5,4.2c2.6-1.9,5.3-3.6,8.3-5
		c0.3-0.9,0.7-1.8,0.7-1.8C682.6,529,700.6,516.2,720.5,513.1z"/>
	<path fill="#FDE8DA" enable-background="new    " d="M539,577.2c0-4-0.9-8.1-2.6-11.8c-3.4-7.5-9.8-13.1-18-15.8
		c-4-1.3-8.2-1.6-12.4-1.4c-0.9,7.7-3.3,18.6-9.6,21.9c-1.8,0.9-5.5,2.1-10-0.7l6.2-9.8c-0.5-0.2-1.4-0.1-1.8,0.3
		c1.6-1.4,3.3-8.9,3.9-16c-4.9-9.7-13.4-17.1-24.3-20.8c-18.7-6.3-39.3,0.2-51.4,14.5c9.7-2,21.8-2.5,30,4.3
		c7.7,6.3,9.9,17.3,6.6,32.4l-11.3-2.5c1.6-7.3,2.4-16.8-2.6-21.1c-7-5.8-23.2-1.7-30.9,1.1l-1.1,3.3l-2.5,1c-2,0.8-3.8,1.7-5.6,2.8
		c1.4-0.1,2.8-0.2,4.1-0.2c14.1,0.2,27.1,5.7,37.1,15.1c6.4-0.8,13.5-0.3,20.9,3.1l-4.8,10.5c-2.3-1-4.6-1.7-6.8-2
		c1.9,3.3,3.4,6.7,4.6,10.3c15.4-14.5,38.5-20.6,59.7-13.5c6.9,2.3,12.8,6,17.8,10.5c0.9-1.5,2-3,2.7-4.7
		C538.2,584.6,539,580.9,539,577.2z"/>
	<path fill="#FDE8DA" enable-background="new    " d="M308.4,672.3l69.5,6.7h0.6l33.8,0.4c2.6-1.8,5-5,6.8-7.6c-2-4.8-3-10.3-3-15.4
		c0-0.3,0.1-0.8,0.1-1.1c-3.7-2.9-8.5-5.8-14.2-6.6c-8.2-1.1-16.9,2.2-25.6,9.9l-7.6-8.8c11.4-10,23.2-14.3,34.9-12.7
		c5.7,0.8,10.7,2.9,14.9,5.5c0.2-0.7,0.4-1.5,0.7-2.2c4.2-10.3,12.6-18.3,23-23.1c0.3-0.9,0.7-1.8,0.7-1.8c1.2-3,2.8-5.7,4.4-8.4
		c-1-8.7-4.7-16.9-11-23.4c-8.1-8.4-19.1-13.1-31.1-13.3c-6-0.1-11.9,1-17.5,3.3c2.5,9.4,5.1,24.1-0.9,30.5c-1.6,1.7-5.1,4.3-11,2.8
		l2.5-10.7c1.5-2.3,0.2-13-2.7-22.6c-11-10.6-25.5-16.7-41.2-16.9c-28.2-0.5-52.2,18-58.9,43.1c10.7-6.8,27-14.3,41-9.2
		c11.8,4.3,19.2,16.3,22.2,35.5l-11.5,1.8c-2.3-14.8-7.2-23.6-14.7-26.4c-12.3-4.5-30.6,7.2-38.9,13.8l0.1,4.4l-2.2,1.8
		c-9.4,7.7-15,18.9-15.2,30.6c-0.1,5-1.6,10,0.1,14.6l10.3,0.9v0L308.4,672.3z M351.8,628.3l-1.4,11.5c-28-3.3-41.4,24.5-42,25.6
		l-10.5-4.9C303.9,647.9,322.7,624.8,351.8,628.3z"/>
	<path fill="#E8A26C" d="M259.1,666.8c-1.7-4.6-2.6-9.5-2.5-14.6c0.2-11.8,5.8-22.9,15.2-30.6l2.2-1.8l-0.1-4.4
		c8.2-6.6,26.5-18.3,38.9-13.8c7.5,2.8,12.4,11.7,14.7,26.4l11.5-1.8c-3-19.3-10.4-31.2-22.2-35.5c-14-5.1-30.3,2.5-41,9.2
		c6.7-25.1,30.6-43.6,58.9-43.1c15.7,0.3,30.2,6.3,41.2,16.9c2.9,9.6,4.2,20.3,2.7,22.6l-2.5,10.7c5.9,1.4,9.4-1.2,11-2.8
		c6-6.4,3.4-21.1,0.9-30.5c5.5-2.2,11.5-3.4,17.5-3.3c11.9,0.2,23,4.9,31.1,13.3c6.3,6.5,10,14.7,11,23.4c-1.7,2.7-3.2,5.4-4.4,8.4
		c0,0-0.3,0.9-0.7,1.8c-10.3,4.9-18.8,12.8-23,23.1c-0.3,0.7-0.4,1.5-0.7,2.2c-4.2-2.6-9.2-4.7-14.9-5.5
		c-11.7-1.6-23.5,2.7-34.9,12.7l7.6,8.7c8.8-7.7,17.4-11,25.6-10c5.7,0.7,10.5,3.5,14.2,6.4c0,0.3-0.1,0.6-0.1,0.9
		c0,5.1,1.1,10.2,3.1,15c-1.8,2.6-4,4.8-6.6,6.6l10.4,0.7l15.3-0.3c-3.4-2.8-6.1-6.2-7.9-10.2c-3.3-7.2-3.5-15.4-0.4-22.9
		c3.4-8.3,10.4-15,19.2-18.4l2.5-1l1.1-3.3c7.7-2.8,24-6.9,30.9-1.1c5.1,4.2,4.2,13.8,2.6,21l11.3,2.5c3.3-15.2,1.1-26.1-6.6-32.4
		c-8.1-6.8-20.3-6.3-30-4.3c12.2-14.3,32.7-20.8,51.5-14.5c10.6,3.6,19,10.8,23.9,20.2c0,0.6-0.1,1.3-0.1,1.9c0,0,0,1.4,0.1,2.6
		c0,0.1,0,0.1,0,0.2c-10.4,9.7-16.9,22.6-17.2,36.6c0,0.4,0,0.7,0,1c0,2.8,0.4,5.5,0.8,8.3c-2.9,0.7-5.8,1.6-8.9,2.9l3.9,9.2
		l5.3-0.1c0.9-0.3,1.9-0.5,2.8-0.7c0.1,0.2,0.2,0.4,0.3,0.6l12.9-0.3c-3.6-6.3-5.6-13.4-5.5-20.7c0.3-11.7,5.8-22.9,15.2-30.6
		l2.2-1.8l-0.1-4.4c8.2-6.6,26.5-18.3,38.9-13.8c7.5,2.7,12.4,11.6,14.7,26.4l11.4-1.7c-2.9-19.3-10.4-31.2-22.2-35.5
		c-14-5.1-30.3,2.5-41,9.2c6.7-25.1,30.6-43.6,58.9-43.1c15.7,0.2,30.2,6.3,41.2,17c2.8,9.7,4.2,20.3,2.6,22.6l-2.5,10.6
		c5.9,1.5,9.4-1.1,11-2.8c6-6.4,3.4-21.1,0.9-30.5c5.5-2.2,11.5-3.4,17.4-3.2c11.9,0.2,23,4.9,31,13.3c6.3,6.5,10,14.7,11,23.5
		c-1.7,2.7-3.2,5.4-4.4,8.4c0,0-0.3,0.9-0.6,1.8c-10.3,4.8-18.8,12.8-23,23.1c-0.3,0.7-0.4,1.5-0.7,2.2c-4.2-2.6-9.2-4.7-14.9-5.5
		c-11.7-1.6-23.5,2.7-34.9,12.7l7.6,8.7c8.8-7.7,17.4-11,25.6-10c5.7,0.7,10.5,3.5,14.2,6.4c0,0.3-0.1,0.6-0.1,0.9
		c0,4.6,1,9.2,2.6,13.6l12.5-0.3c-0.3-0.5-0.7-1-0.9-1.5c-3.3-7.2-3.5-15.3-0.4-22.9c3.4-8.3,10.3-15,19.2-18.4l2.5-1l1.1-3.3
		c7.7-2.8,24-6.9,31-1.1c5,4.2,4.2,13.7,2.6,21l11.3,2.5c3.3-15.2,1.1-26-6.5-32.4c-8.2-6.8-20.3-6.2-30.1-4.3
		c12.2-14.3,32.7-20.8,51.5-14.5c10.9,3.6,19.4,11,24.3,20.8c-0.6,7.1-2.4,14.6-3.9,16c0.4-0.3,1.4-0.5,1.8-0.3l-6.2,9.8
		c2.7,1.7,2.9,1.8,4.8,1.5c-1.9,5-5.6,10.3-5.6,15.8c0,0.4,0,0.7,0,1c0,1.9,2.6,3.7,2.8,5.6c-6.5-0.9-12.6,0.2-20.5,3.5l0.8,0.5
		l33.9-0.7c-0.7-3.1-1-6.3-1-9.5c0.3-11.8,5.9-22.9,15.3-30.6l2.2-1.8l-0.1-4.4c8.2-6.6,26.6-18.3,38.9-13.8
		c7.5,2.7,12.5,11.6,14.7,26.4l11.5-1.8c-2.9-19.3-10.4-31.2-22.2-35.5c-14-5.1-30.3,2.5-41,9.2c6.7-25.1,30.6-43.6,58.9-43.1
		c15.7,0.3,30.2,6.4,41.2,16.9c2.9,9.6,4.2,20.3,2.6,22.6l-2.5,10.7c5.9,1.4,9.5-1.2,11-2.8c6-6.4,3.4-21.1,0.9-30.5
		c5.5-2.2,11.4-3.4,17.4-3.2c11.9,0.2,23,4.9,31.1,13.3c6.3,6.5,10,14.7,11,23.4c-1.7,2.7-3.2,5.4-4.4,8.4c0,0-0.3,0.9-0.7,1.8
		c-10.4,4.8-18.8,12.8-23,23.1c-0.3,0.7-0.4,1.5-0.6,2.2c-4.2-2.6-9.2-4.7-14.9-5.5c-11.7-1.6-23.5,2.7-34.9,12.7l7.6,8.7
		c8.8-7.7,17.4-11,25.6-10c5.7,0.8,10.5,3.5,14.2,6.4c0,0.3-0.1,0.5-0.1,0.8c0,0.8,0.2,1.6,0.3,2.4l11.5-0.3
		c-0.3-4.4,0.2-8.9,2-13.3c3.4-8.3,10.4-15,19.2-18.4l2.5-1l1.1-3.3c7.7-2.8,24-6.9,31-1.1c5,4.2,4.2,13.7,2.6,21l11.3,2.5
		c3.3-15.2,1.1-26.1-6.6-32.4c-8.2-6.8-20.3-6.2-30-4.3c12.2-14.3,32.7-20.8,51.5-14.5c10.9,3.6,19.4,11,24.3,20.8
		c-0.6,7.1-2.4,14.6-3.9,16c0.4-0.4,1.4-0.5,1.8-0.3l-6.2,9.8c4.4,2.8,8.2,1.6,10,0.6c6.3-3.3,8.7-14.2,9.6-21.9
		c4.3-0.2,8.5,0.1,12.4,1.4c8.2,2.7,14.5,8.3,18,15.8c1.7,3.8,2.6,7.8,2.6,11.8c0,2.5-0.4,5-1.1,7.4l12-0.3c0.4-2.4,0.7-4.8,0.7-7.2
		c0-5.7-1.2-11.4-3.7-16.7c-4.8-10.4-13.6-18.2-24.8-21.9c-6-2-12.4-2.5-18.9-1.9c-1-1.7-2.2-3.2-3.3-4.8c2.2-2.9,4-6,5.4-9.4
		c2-5,3-10.2,3-15.4c0-5.7-1.2-11.4-3.7-16.7c-4.8-10.4-13.6-18.1-24.8-21.9c-6-2-12.4-2.6-18.9-1.9c-6.5-11.3-16.3-20.1-29.1-24.5
		c-5-1.7-10.1-2.4-15.2-2.7c1.5-4.4,2.4-8.9,2.4-13.4c0-5.7-1.2-11.3-3.7-16.6c-4.8-10.4-13.6-18.2-24.8-22
		c-3.5-1.1-7.1-1.7-10.7-1.9c0-5.6-1.2-11.3-3.6-16.5c-4.8-10.4-13.6-18.2-24.8-21.9c-6-2-12.5-2.6-18.9-1.9
		c-6.5-11.3-16.3-20.1-29.2-24.5c-4.2-1.4-8.6-2.2-12.9-2.6c0-0.1,0-0.1,0-0.2c0-5.1-1.1-10.2-3.3-14.9
		c-4.3-9.3-12.2-16.2-22.2-19.6c-5.2-1.8-10.8-2.2-16.4-1.8c-5.8-9.8-14.4-17.6-25.6-21.3c-25.9-8.7-55.2,4.5-65.2,29.4
		c0,0.1-0.3-2.4-0.5-1.8c-3,1.4-5.7,2-8.2,2c0,0-0.1,0-0.1,0c-8.3,0-16.4,5.1-23.9,8.4c-12.9-11.5-29.1-16.9-46.7-17.3
		c-39.3-0.7-71.8,30.3-72.6,68.2c0,0,0,0.8,0,1.4c-3,0.8-5.9,2-8.8,3.3c-4.4-4-9.4-7.1-14.5-9.9c1.9-3.9,3.1-8,3.1-12.4
		c0-3.2-0.5-6.5-1.6-9.7c-5.5-16.7-24.1-26.5-41.5-21.7c-4.3,1.2-7.8,3.8-11.2,6.5c-9.2-3.9-19.2-5.4-28.8-2.7
		c-11,3-19.9,10-25.2,19.8c-3,5.7-4.6,11.9-4.6,18.2c0,4.1,0.7,8.3,2,12.4c0,0,0.2,0.6,0.4,1.1c-1.9,4.1-3.7,8.2-3.7,12.7
		c0,3.2,0.5,6.5,1.6,9.7c1.4,4.1,3.5,7.8,6.2,10.9c-1,4.4-1.6,9.1-1.7,13.8c0,0,0,1.6,0.1,2.8c-4.5,4.2-8.1,9.1-11,14.3
		c-0.2-0.5-0.7-1.7-1.3-3.2c5.6-7.2,9-15.6,9-24.5c0-4.3-0.7-8.5-2.1-12.8c-7.4-22.2-32.1-35.1-55.2-28.9c-6,1.7-11.3,4.8-16,8.7
		c-12.5-5.6-26.3-7.1-39.4-3.6c-0.1,0-0.3,0-0.4,0.1c-14.8,4-26.8,13.5-33.8,26.5c-4.1,7.6-6.1,15.9-6.1,24.3c0,2.2,0.3,4.4,0.5,6.6
		c0.4,3.4,1.1,6.7,2.2,10.1c0,0,0.3,0.7,0.5,1.3c-3.1,5.8-5,12.2-5,18.6c0,4.3,0.7,8.7,2.1,12.9c1.4,4.1,3.5,7.8,5.9,11.3
		c-18.1,0.5-34.6,7.5-46.9,18.8c-13.3,12.1-21.8,29.1-22.3,48c0,0.2,0,0.3,0,0.5c0,0,0,1.5,0.1,2.8c-1,1-1.8,2.1-2.8,3.1
		c-8.7,9.3-14.2,20.9-14.5,33.5c0,0.4,0,0.7,0,1c0,0.7,0.2,1.3,0.2,2c0.1,3.8,0.7,7.4,1.7,11L259.1,666.8z M341.5,465.7
		c5.5-10.2,14.9-17.6,26.6-20.8c11.3-3.1,23.2-1.8,33.8,3.5c4.2,6,7.7,12.9,7.6,15c0.1-0.7,1-1.7,1.7-1.9l0.3,11.6
		c4-0.2,7.1-2.1,8.6-5.3c3-6.2-1.8-15.8-6.5-22.9c3.1-2.3,6.5-4.2,10.3-5.2c17.2-4.7,35.6,4.9,41.1,21.3c1,3.1,1.5,6.2,1.5,9.3
		c0,7.1-2.7,13.9-7.7,19.3c-5.3-2.2-12.2-4-19.6-2.7c-9.2,1.7-16.8,7.6-22.7,17.5l10,5.9c4.1-6.9,9.1-11,14.7-12
		c7.6-1.4,15,2.5,18.3,4.6c0.1,0.8,0.3,1.6,0.3,2.4c0,1.4-0.2,2.8-0.6,4.1c-21.2-1.3-42.2,8.7-53.7,26.4l-6.5,2.2
		c0.5,1.5,0.2,2.4-0.1,3c-1.5,2.6-6,4.6-9.2,5.6l-0.4-0.2l-3.1,1.4l-8.6,3.8c-4.5,1.2-9,1.4-13.4,0.9c-4.5-2.2-9.2-4-14.1-5.2
		c-6.2-3.9-11.2-9.7-13.6-16.9c-2.8-8.4-1.7-17.4,3-24.7l1.6-2.5l-1.3-3.2c4.4-6.4,13.8-17.4,22.9-17.2c6.1,0.1,11.9,5.5,17.4,15.8
		l10.2-5.4c-7.6-14.4-16.8-21.8-27.4-22c-10.7-0.2-19.8,7-26.1,13.9C336.8,478.4,338.2,471.8,341.5,465.7z M487.7,452.4
		c-1.8-5.5-1.1-11.4,2-16.2l1.6-2.5l-0.9-2.3c3.1-4.3,9.1-11.1,14.5-10.9c2.8,0.1,5.3,2.2,7.4,4.9c-10.5,6.9-19,16.4-24.4,27.6
		C487.9,452.8,487.8,452.6,487.7,452.4z M509.2,393.3c7.6-2.1,15.6-1.2,22.7,2.2c2.6,3.7,4.8,8,4.9,9.4c-0.1-1.2,1.4-2.9,2.7-2.9
		l0.5,11.6c3.5-0.1,6.2-1.8,7.6-4.7c2.2-4.6-0.4-11.1-3.9-16.8c1.7-1.1,3.6-2,5.6-2.5c11.5-3.1,23.8,3.2,27.4,14.2
		c1.5,4.7,1.1,9.6-0.8,13.9c-7-2.5-14.3-4.1-22-4.2c-11.2-0.2-21.7,2.2-31.2,6.4c-5-7-10.8-10.8-17.4-10.9
		c-6.6-0.2-12.4,3.4-16.8,7.4c0.4-3.1,1.3-6.1,2.8-8.9C494.9,400.4,501.3,395.5,509.2,393.3z M681.7,372.4
		c15.6,0.2,30.2,6.3,41.2,17c1.9,6.4,3.1,13.1,3.2,17.7c-5.3-5.1-11.6-9.3-19-11.7c-19.1-6.4-39.7-2.1-54.9,9.4
		c-10.7,0.5-21.5,5.8-29.3,10.8C629.5,390.3,653.5,371.9,681.7,372.4z M822.9,349.3c9.3,3.1,16.5,9.4,20.8,17.7
		c-0.5,5.9-2,12-3.2,13.3c0.5-0.5,1.8-0.7,2.4-0.4l-6.1,9.8c3.1,1.9,6.5,2.1,9.4,0.6c5.6-2.9,7.8-11.8,8.8-19.2
		c3.4-0.1,6.9,0.2,10,1.2c7,2.3,12.4,7.1,15.3,13.5c1.5,3.3,2.2,6.8,2.1,10.3c-12.8,1.3-24.8,6.7-34.3,15.2
		c-7.6-3.4-16.5-3.2-26.6,1.1l4.5,10.7c5.2-2.2,9.8-2.9,13.7-2.3c-2.4,3.4-4.5,7-6.1,11c0,0-0.3,0.9-0.6,1.8
		c-1.7,0.8-3.3,1.8-4.9,2.8c-0.9-0.5-1.6-0.8-1.6-0.8l-3.5,2.2c-5.6,4.6-12.7,6.8-19.8,6.7c1.9-5.2,3.1-10.6,3.2-16.2c0,0,0-0.6,0-1
		c0-8.2-2.2-16.1-5.9-23.3c3.8-0.4,7.9-0.1,12.1,1.9l4.8-10.6c-2.2-1-4.4-1.7-6.6-2.2c2.7-13.2,0.8-22.8-6.1-28.5
		c-6.8-5.7-16.6-5.7-24.9-4.3C790.4,349,807.4,344.1,822.9,349.3z M1056.2,551.8c-0.6,7.2-2.4,14.6-4,16c0.4-0.4,1.4-0.5,1.9-0.3
		l-6.2,9.8c4.4,2.7,8.1,1.6,9.9,0.6c6.3-3.3,8.7-14.2,9.6-21.9c4.3-0.2,8.5,0.1,12.5,1.4c8.1,2.7,14.5,8.3,17.9,15.8
		c1.7,3.8,2.6,7.8,2.6,11.9c0,3.7-0.7,7.4-2.2,11.1c-0.7,1.7-1.7,3.1-2.7,4.7c-5.1-4.5-11-8.2-17.8-10.5
		c-21.2-7.1-44.3-1.1-59.7,13.5c-1.2-3.6-2.7-7-4.6-10.2c2.2,0.4,4.5,1,6.7,2l4.8-10.6c-7.4-3.4-14.5-4-20.9-3.1
		c-10-9.5-23-14.9-37.1-15.2c-1.4,0-2.8,0.1-4.1,0.2c1.8-1.1,3.6-2.1,5.6-2.8l2.5-1l1.1-3.3c7.7-2.8,24-6.9,30.9-1.1
		c5,4.2,4.2,13.8,2.7,21.1l11.3,2.5c3.3-15.2,1.1-26-6.6-32.4c-8.2-6.8-20.3-6.3-30-4.3c12.2-14.3,32.7-20.7,51.5-14.5
		C1042.7,534.7,1051.2,542.1,1056.2,551.8z M790.5,585.3c-21.2-7.1-44.3-1-59.7,13.5c-1.2-3.6-2.7-7-4.6-10.3c2.2,0.4,4.5,1,6.7,2
		l4.8-10.5c-7.4-3.4-14.5-4-20.9-3.1c-10-9.4-23-14.9-37.2-15.2c-1.4,0-2.8,0.1-4.2,0.2c1.8-1.1,3.7-2.1,5.7-2.8l2.5-0.9l1.1-3.3
		c7.7-2.8,23.9-6.9,30.9-1.1c5.1,4.2,4.2,13.8,2.6,21l11.3,2.5c3.3-15.2,1.1-26.1-6.5-32.4c-8.2-6.8-20.3-6.3-30-4.3
		c12.2-14.3,32.7-20.7,51.5-14.5c10.9,3.6,19.4,11,24.3,20.7c-0.6,7.2-2.4,14.6-3.9,16c0.4-0.4,1.4-0.5,1.8-0.3l-6.2,9.8
		c4.4,2.7,8.1,1.6,10,0.7c6.3-3.3,8.7-14.2,9.6-22c4.3-0.2,8.5,0.1,12.5,1.4c8.2,2.7,14.5,8.3,18,15.8c1.7,3.8,2.6,7.8,2.6,11.9
		c0,3.7-0.7,7.4-2.2,11.1c-0.7,1.7-1.7,3.2-2.7,4.7C803.3,591.2,797.4,587.6,790.5,585.3z M516.3,582.4
		c-21.2-7.1-44.3-1.1-59.7,13.5c-1.2-3.6-2.7-7-4.6-10.3c2.2,0.4,4.5,1,6.8,2l4.8-10.5c-7.4-3.4-14.5-4-20.9-3.1
		c-10-9.4-23-14.9-37.1-15.1c-1.4,0-2.8,0.1-4.1,0.2c1.8-1.1,3.6-2.1,5.6-2.8l2.5-1l1.1-3.3c7.7-2.8,24-6.9,30.9-1.1
		c5.1,4.2,4.2,13.8,2.6,21.1l11.3,2.5c3.3-15.2,1.1-26.1-6.6-32.4c-8.1-6.8-20.3-6.3-30-4.3c12.2-14.3,32.7-20.7,51.4-14.5
		c10.9,3.6,19.4,11,24.3,20.8c-0.6,7.1-2.4,14.6-3.9,16c0.4-0.4,1.4-0.5,1.8-0.3l-6.2,9.8c4.4,2.7,8.2,1.6,10,0.7
		c6.3-3.3,8.7-14.2,9.6-21.9c4.3-0.2,8.5,0.1,12.4,1.4c8.2,2.7,14.5,8.3,18,15.8c1.8,3.8,2.6,7.8,2.6,11.8c0,3.7-0.7,7.5-2.2,11.1
		c-0.7,1.7-1.7,3.2-2.7,4.7C529,588.4,523.1,584.7,516.3,582.4z M380.6,563.4c-0.2-0.1-0.4-0.3-0.5-0.4c0.2,0,0.3,0,0.5-0.1
		c0,0,0.3-0.2,0.6-0.3C381,562.9,380.8,563.2,380.6,563.4z M554,571.6c-1.4-0.4-2.9-0.9-4.2-1.4c0-0.1,0-0.3,0-0.4
		c3-1.1,6-2.6,8.5-4.9c3.8-3.5,5.8-8,5.9-13.3l-11.6-0.2c0,2.1-0.7,3.7-2.1,5c-1.2,1.1-2.7,1.9-4.5,2.5
		c-4.9-9.5-13.3-16.8-23.9-20.4c-6-2-12.4-2.6-18.9-1.9c-6-10.5-15-18.7-26.6-23.3c1.9-9.1,6.7-17.4,14.2-23.5l2.2-1.8l-0.1-4.4
		c8.2-6.6,26.6-18.3,38.9-13.8c7.5,2.7,12.4,11.6,14.7,26.4l11.5-1.7c-2.9-19.3-10.4-31.2-22.2-35.5c-14-5.1-30.3,2.5-41,9.2
		c6.7-25.1,30.6-43.6,58.9-43.1c15.7,0.2,30.2,6.3,41.2,16.9c2.9,9.6,4.2,20.3,2.6,22.6l-2.5,10.6c5.9,1.5,9.4-1.1,11-2.8
		c6-6.4,3.4-21.1,0.9-30.5c5.5-2.2,11.4-3.4,17.4-3.2c11.9,0.2,23,4.9,31.1,13.3c7.6,7.8,11.6,18,11.4,28.7
		c-0.3,14.6-8.4,27.7-21.7,35l-0.4,0.2c-5.2-4.5-12.6-9.3-21.9-10.5c-11.7-1.6-23.5,2.7-34.9,12.7l7.6,8.7c8.8-7.7,17.4-11,25.6-10
		c10.5,1.4,18.1,9.5,21,13c-1.7,10-9.7,17.7-19.8,19.8c-4.3-0.9-8.7-1.5-13.3-1.6C587.2,547.7,567.4,556.9,554,571.6z M735,389.5
		c5.5-2.2,11.4-3.6,17.4-3.6c11.9,0.2,23,5,31,13.3c7.4,7.7,11.4,17.6,11.4,28c0,0.3,0,0.5,0,0.8c-0.2,10.4-4.5,20.1-11.7,27.4
		c-0.5-4.1-1.4-8.1-3.2-12c-4.8-10.4-13.6-18.1-24.8-21.9c-6-2-12.4-2.6-18.9-1.9c-0.3-0.6-0.8-1.1-1.1-1.6
		C739.5,411.1,737.3,398.3,735,389.5z M880.6,459.2c-0.3,0.4-0.6,0.7-0.8,1c-18.5,0.4-32.3,14-33,14.8l8.2,8.2
		c0.5-0.5,7.6-7.4,17.6-10.2c-0.1,0.3-0.3,0.7-0.4,1.1c-7.9,3.7-14.7,9.3-19.3,16.3c-9.8-8.5-21.4-14.5-34.2-16.9
		c-0.2-4.1,0.5-8.3,2.1-12.3c3.4-8.3,10.3-15,19.2-18.4l2.5-0.9l1.1-3.3c7.7-2.8,24-6.9,30.9-1.1c5.1,4.2,4.2,13.8,2.7,21.1
		L880.6,459.2z M933.3,534.8c12.2-14.3,32.7-20.8,51.5-14.5c2.2,0.7,4.2,1.7,6.2,2.8c-9.6,4.6-18,11.5-23.9,20.5
		c-1.1-1.7-2.3-3.3-3.8-4.6C955.2,532.3,943,532.8,933.3,534.8z M703.4,406.2c10.9,3.6,19.4,11,24.3,20.7c-0.6,7.1-2.4,14.6-3.9,16
		c0.4-0.4,1.4-0.5,1.8-0.3l-6.2,9.8c4.4,2.7,8.1,1.6,9.9,0.6c6.3-3.3,8.7-14.2,9.6-22c4.2-0.2,8.5,0.1,12.5,1.4
		c8.2,2.7,14.5,8.4,18,15.8c1.7,3.8,2.6,7.8,2.6,11.8c0,3.7-0.7,7.5-2.2,11.1c-0.7,1.7-1.7,3.2-2.7,4.7c-5.1-4.6-11-8.2-17.8-10.5
		c-29.1-9.8-62.1,5-73.4,33.1c0,0-0.3,0.9-0.6,1.8l-1.1-0.4c2.6-5.9,4.1-12.4,4.2-19.1c0,0,0-0.7,0-1c0-3.8-0.5-7.6-1.4-11.2
		c4.6-0.6,9.6-0.3,14.7,2.1l4.8-10.5c-8.4-3.8-16.5-4.1-23.6-2.7c-2.4-4.9-5.4-9.5-9.3-13.6c-4.3-4.4-9.3-7.9-14.6-10.6
		c8.4-2.3,19.9-4.1,25.5,0.6c5.1,4.2,4.2,13.8,2.6,21l11.3,2.5c3.3-15.2,1.1-26.1-6.5-32.4c-8.2-6.8-20.3-6.3-30-4.3
		C664.1,406.4,684.6,400,703.4,406.2z M810.8,455.3c-0.2,0.5-0.6,1-0.8,1.6c-2,5-3,10.2-3,15.3c-8.7-0.2-17.1,1.3-24.9,3.9
		c0-0.4-0.1-2.6-0.2-4.8c0-0.1,0.1-0.3,0.1-0.4c6.2-4.1,11.4-9.2,15.4-15.1C801.9,456.4,806.4,456.1,810.8,455.3z M812,543L812,543
		c-0.9,0-2.2,3.7-3.7,5.7c-3.6-2.7-7.6-5.4-12.1-6.9c-6-2-12.4-2.8-18.9-2.1c-3.5-6.1-8.1-11.5-13.6-15.9c3.4,1.3,6.2,0.4,7.7-0.4
		c6.3-3.3,8.7-14.2,9.6-22c4.3-0.2,8.5,0.1,12.5,1.4c8.2,2.7,14.5,9.1,18,16.5C814.9,526.6,815.1,530,812,543z M731.8,512.4
		c-0.6-7.3-3-13.2-7.7-17.2c-8.2-6.8-20.3-6.2-30-4.3c12.2-14.3,32.7-20.8,51.5-14.5c10.9,3.7,19.4,11,24.3,20.8
		c-0.6,7.2-2.4,14.6-3.9,16c0.4-0.3,1.4-0.5,1.8-0.3l-6,9.4c-4.1-3-8.5-5.5-13.5-7.2C742.9,513.3,737.3,512.6,731.8,512.4z
		 M674.9,548.2c0,0-0.3,0.9-0.7,1.8c-3,1.4-5.7,3.1-8.3,5c-0.9-1.4-1.8-2.7-2.5-4.2c-3.3-7.2-3.5-15.3-0.4-22.9
		c3.4-8.3,10.4-15,19.2-18.4l2.5-1l1.1-3.3c7.7-2.8,24-6.9,30.9-1.1c2.4,2,3.4,5.3,3.7,8.9C700.6,516.2,682.6,529,674.9,548.2z
		 M633.8,428.1c-2.5-0.5-5.1-0.8-7.7-0.9c3.4-2.3,7.5-4.8,11.8-6.8C636.3,422.9,634.9,425.4,633.8,428.1z M649.6,543
		c0.4,4.3,1.4,8.6,3.2,12.7c1.2,2.7,2.8,5.2,4.5,7.5c-0.8,1-1.8,2-2.5,3.1c-5.1-4.5-10.8-8.1-16.9-11
		C642.8,552.1,646.8,547.9,649.6,543z M821.8,595.4c2-5,3-10.2,3-15.4c0-4.6-1-9-2.6-13.4c0.1,0,0.3,0,0.4,0l1.4-11.5
		c-2.3-0.3-4.4-0.1-6.6-0.1c2.1-2.8,3.9-5.9,5.3-9.3c2.1-5,3.1-10.2,3.1-15.4c0-5.7-1.2-11.4-3.7-16.7
		c-4.8-10.4-13.6-18.2-24.8-21.9c-5.7-1.9-11.9-2.4-18.1-1.9c8.3-4,17.6-6.3,27.5-6.2c15.6,0.2,30.2,6.3,41.2,16.9
		c2.9,9.7,4.2,20.3,2.7,22.6l-2.5,10.6c5.9,1.5,9.4-1.2,11-2.8c6-6.4,3.4-21.1,0.9-30.5c5.5-2.2,11.5-3.4,17.5-3.2
		c11.9,0.2,23,4.9,31,13.3c6.3,6.5,10,14.7,11,23.4c-1.7,2.7-3.2,5.4-4.4,8.4c0,0-0.3,0.9-0.6,1.8c-5.1,2.4-9.7,5.5-13.5,9.3
		c-1.5-0.1-3-0.5-4.6-0.5c-21.7-0.4-41.3,8.7-54.6,23.2c-0.2,0.2-0.4,0.3-0.7,0.5l0.1,0.1c-8.2,9.1-13.9,20.4-16.2,32.8
		c-1.7,0-3.4-0.2-5.2,0c-1-1.7-2.2-3.2-3.3-4.8C818.5,602,820.4,598.9,821.8,595.4z M822.4,621.2c0.4,0,0.8-0.1,1.2-0.1
		c0,0.6,0,1.3,0.1,2.1c-0.7,0.7-1.3,1.5-1.9,2.1C822.1,623.9,822.3,622.6,822.4,621.2z M915.2,556.4c1.9-1.2,4-2.2,6.1-3l2.5-1
		l1.1-3.3c7.7-2.8,23.9-6.9,30.9-1.1c2.2,1.9,3.2,4.9,3.6,8.2c-7,3.7-13.1,8.8-17.4,15.1C934.3,564.4,925.1,559.4,915.2,556.4z
		 M1009,518L1009,518c-0.4,0-1.2,0.5-1.7,1.6c-0.8,0.1-1.6-0.5-2.4-0.3c-4.7-3.9-10.2-7.5-16.4-9.6c-21.2-7.1-44.3-1.2-59.7,13.3
		c-1.2-3.6-2.7-7.1-4.6-10.3c2.2,0.4,4.5,1,6.7,2l4.8-10.6c-7.4-3.4-14.5-4-20.9-3.1c-10-9.4-23-14.9-37.2-15.2
		c-1.4,0-2.8,0.1-4.1,0.2c1.8-1.1,3.6-2.1,5.6-2.8l2.5-1l1.1-3.3c7.7-2.8,24-6.9,30.9-1.1c5,4.2,4.2,13.8,2.6,21l11.3,2.5
		c3.3-15.2,1.1-26.1-6.6-32.4c-8.2-6.8-20.3-6.3-30-4.3c12.2-14.3,32.7-20.8,51.5-14.5c10.9,3.7,19.4,11,24.3,20.8
		c-0.6,7.1-2.4,14.6-3.9,16c0.4-0.3,1.4-0.5,1.8-0.3l-6.2,9.8c4.5,2.8,8.2,1.6,10,0.7c6.4-3.3,8.7-14.2,9.6-21.9
		c4.3-0.2,8.5,0.1,12.5,1.4c8.2,2.7,14.5,9.8,18,17.2C1011.9,500.9,1012,505,1009,518z M971.3,457.5c-6.3-8.3-14.6-14.9-25-18.4
		c-2.5-0.8-5.1-1.3-7.7-1.8c0.1-0.9,0.3-1.8,0.4-2.7c4.3-0.2,8.5,0.1,12.4,1.4c8.2,2.7,14.6,8.3,18,15.8
		C970.2,453.7,970.8,455.6,971.3,457.5z M926.9,436.3c-13.6,0.2-26.7,5-37.1,13.5c0.3-9.5-2.3-16.6-7.9-21.3
		c-8.2-6.8-20.3-6.3-30-4.3c12.2-14.3,32.7-20.8,51.5-14.5c10.9,3.6,19.4,11,24.3,20.7C927.5,432.4,927.2,434.4,926.9,436.3z
		 M770.3,377.3l1-2.8c6.8-2.4,20.3-5.8,26.1-1c4.1,3.5,3.4,11.5,2.1,17.7l4.4,1c-3.7-0.1-7.2,0.4-10.4,1.3c-0.6-0.7-1.1-1.5-1.8-2.2
		c-6.2-6.4-13.8-10.9-22.2-13.7L770.3,377.3z"/>
	<path fill="#E8A26C" d="M350.5,639.8l1.4-11.5c-29.1-3.5-47.9,19.6-53.8,32.2l10.5,4.9C309.1,664.2,322.5,636.5,350.5,639.8z"/>
	<path fill="#FDE8DA" enable-background="new    " d="M520,664.2c-0.4-2.7-0.8-5.5-0.8-8.3c0-0.4,0-0.7,0-1
		c0.3-14,6.8-26.9,17.2-36.6c0-0.1,0-0.1,0-0.2c0-1.2-0.1-2.6-0.1-2.6c0-0.7,0.1-1.3,0.1-1.9c-5-9.4-13.3-16.6-23.9-20.2
		c-18.8-6.3-39.3,0.2-51.5,14.5c9.7-2,21.9-2.5,30,4.3c7.7,6.3,9.9,17.3,6.6,32.4l-11.3-2.5c1.6-7.2,2.4-16.8-2.6-21
		c-7-5.8-23.2-1.7-30.9,1.1l-1.1,3.3l-2.5,1c-8.8,3.4-15.8,10.1-19.2,18.4c-3,7.6-2.9,15.7,0.4,22.9c1.8,4,4.6,7.4,7.9,10.2
		l76.7-1.7l-3.9-9.2C514.2,665.8,517.1,664.8,520,664.2z M500.9,657.9c-18.8-8.5-36,8.3-36.7,9l-8.2-8.2c0.9-1,23.5-23.3,49.7-11.4
		L500.9,657.9z"/>
	<path fill="#FDE8DA" enable-background="new    " d="M520.3,676.1l3.1-0.1c-0.1-0.2-0.2-0.4-0.3-0.6
		C522.2,675.6,521.3,675.9,520.3,676.1z"/>
	<path fill="#E8A26C" d="M456,658.7l8.2,8.2c0.7-0.7,17.9-17.5,36.7-9l4.8-10.5C479.4,635.4,456.9,657.7,456,658.7z"/>
	<path fill="#FDE8DA" enable-background="new    " d="M813.2,580c0-4.1-0.9-8.1-2.6-11.9c-3.4-7.4-9.8-13-18-15.8
		c-3.9-1.3-8.2-1.6-12.5-1.4c-0.9,7.7-3.3,18.7-9.6,22c-1.8,0.9-5.5,2.1-10-0.7l6.2-9.8c-0.5-0.2-1.4,0-1.8,0.3
		c1.6-1.4,3.3-8.8,3.9-16c-4.9-9.7-13.4-17.1-24.3-20.7c-18.8-6.3-39.3,0.2-51.5,14.5c9.7-2,21.9-2.5,30,4.3
		c7.7,6.3,9.8,17.3,6.5,32.4l-11.3-2.5c1.6-7.3,2.4-16.8-2.6-21c-7-5.8-23.2-1.7-30.9,1.1l-1.1,3.3l-2.5,0.9c-2,0.8-3.9,1.8-5.7,2.8
		c1.4-0.1,2.8-0.2,4.2-0.2c14.1,0.3,27.1,5.7,37.2,15.2c6.4-0.8,13.5-0.3,20.9,3.1l-4.8,10.5c-2.3-1-4.5-1.7-6.7-2
		c1.9,3.3,3.4,6.7,4.6,10.3c15.4-14.5,38.5-20.6,59.7-13.5c6.9,2.3,12.8,6,17.9,10.5c0.9-1.5,2-3,2.7-4.7
		C812.5,587.5,813.2,583.8,813.2,580z"/>
	<path fill="#FDE8DA" enable-background="new    " d="M690.5,658c-3.7-2.9-8.5-5.7-14.2-6.4c-8.2-1.1-16.9,2.3-25.6,10l-7.6-8.7
		c11.4-10,23.2-14.3,34.9-12.7c5.7,0.8,10.7,2.9,14.9,5.5c0.2-0.7,0.4-1.5,0.7-2.2c4.1-10.3,12.6-18.3,23-23.1
		c0.3-0.9,0.6-1.8,0.6-1.8c1.2-3,2.8-5.7,4.4-8.4c-1-8.7-4.7-16.9-11-23.5c-8.1-8.4-19.1-13.1-31-13.3c-6-0.1-11.9,1-17.4,3.2
		c2.5,9.4,5.1,24.1-0.9,30.5c-1.6,1.7-5.1,4.3-11,2.8l2.5-10.6c1.5-2.3,0.2-12.9-2.6-22.6c-11-10.6-25.5-16.7-41.2-17
		c-28.2-0.5-52.2,18-58.9,43.1c10.7-6.8,27-14.3,41-9.2c11.8,4.3,19.3,16.3,22.2,35.5l-11.4,1.7c-2.3-14.8-7.2-23.6-14.7-26.4
		c-12.3-4.5-30.6,7.2-38.9,13.8l0.1,4.4l-2.2,1.8c-9.4,7.7-14.9,18.9-15.2,30.6c-0.1,7.3,1.8,14.4,5.5,20.7l156.7-3.4
		c-1.6-4.4-2.6-9-2.6-13.6C690.4,658.5,690.5,658.2,690.5,658z M624.7,642.7c-28-3.3-41.4,24.5-41.9,25.6l-10.5-4.9
		c5.9-12.7,24.7-35.7,53.8-32.2L624.7,642.7z"/>
	<path fill="#E8A26C" d="M572.3,663.4l10.5,4.9c0.6-1.2,13.9-29,41.9-25.6l1.4-11.5C597,627.7,578.2,650.7,572.3,663.4z"/>
	<path fill="#FDE8DA" enable-background="new    " d="M804.8,666.5c-0.2-1.9-2.8-3.7-2.8-5.6c0-0.4,0-0.7,0-1
		c0-5.5,3.7-10.8,5.6-15.8c-1.9,0.3-3.2,0.2-5.9-1.5l6.7-9.8c-0.5-0.2-1.2,0-1.5,0.3c1.6-1.4,3.5-8.9,4.1-16
		c-4.9-9.7-13.4-17.1-24.3-20.8c-18.8-6.3-39.3,0.2-51.5,14.5c9.7-2,21.9-2.5,30.1,4.3c7.6,6.4,9.9,17.3,6.6,32.4l-11.3-2.5
		c1.6-7.3,2.4-16.8-2.6-21c-7-5.8-23.2-1.7-31,1.1l-1.1,3.3l-2.5,1c-8.8,3.4-15.8,10.1-19.2,18.4c-3.1,7.6-2.9,15.7,0.4,22.9
		c0.2,0.5,0.6,1,0.9,1.5l80.1-1.7l-1.3-0.5C792.2,666.6,798.2,665.6,804.8,666.5z M775.2,660.8c-18.8-8.6-36,8.3-36.7,9l-8.2-8.2
		c1-0.9,23.5-23.3,49.7-11.3L775.2,660.8z"/>
	<path fill="#FDE8DA" enable-background="new    " d="M823.7,621.2c-0.4,0-0.8,0-1.2,0.1c-0.2,1.3-0.4,2.7-0.6,4.2
		c0.7-0.7,1.2-1.5,1.9-2.1C823.7,622.5,823.7,621.7,823.7,621.2z"/>
	<path fill="#E8A26C" d="M730.2,661.6l8.2,8.2c0.7-0.7,17.9-17.6,36.7-9l4.8-10.5C753.7,638.3,731.2,660.7,730.2,661.6z"/>
	<path fill="#FDE8DA" enable-background="new    " d="M1031.9,531c-18.8-6.3-39.3,0.2-51.5,14.5c9.7-2,21.8-2.5,30,4.3
		c7.6,6.4,9.8,17.3,6.6,32.4l-11.3-2.5c1.6-7.3,2.4-16.8-2.7-21.1c-7-5.8-23.2-1.7-30.9,1.1l-1.1,3.3l-2.5,1c-2,0.8-3.8,1.7-5.6,2.8
		c1.4-0.1,2.8-0.2,4.1-0.2c14.1,0.3,27.1,5.7,37.1,15.2c6.4-0.8,13.5-0.3,20.9,3.1l-4.8,10.6c-2.3-1-4.5-1.7-6.7-2
		c1.9,3.2,3.4,6.7,4.6,10.2c15.4-14.5,38.5-20.6,59.7-13.5c6.8,2.3,12.8,5.9,17.8,10.5c1-1.5,2-3,2.7-4.7c1.5-3.6,2.2-7.4,2.2-11.1
		c0-4.1-0.9-8.1-2.6-11.9c-3.4-7.4-9.8-13-17.9-15.8c-4-1.3-8.2-1.6-12.5-1.4c-0.9,7.7-3.3,18.6-9.6,21.9c-1.8,0.9-5.5,2.1-9.9-0.6
		l6.2-9.8c-0.5-0.2-1.5-0.1-1.9,0.3c1.6-1.4,3.4-8.8,4-16C1051.2,542.1,1042.7,534.7,1031.9,531z"/>
	<path fill="#FDE8DA" enable-background="new    " d="M977.7,663c-3.7-2.9-8.5-5.7-14.2-6.4c-8.2-1.1-16.9,2.3-25.6,10l-7.6-8.7
		c11.4-10,23.2-14.3,34.9-12.7c5.7,0.8,10.7,2.9,14.9,5.5c0.2-0.7,0.4-1.5,0.6-2.2c4.1-10.3,12.6-18.3,23-23.1
		c0.3-0.9,0.6-1.8,0.7-1.8c1.2-3,2.8-5.7,4.4-8.4c-1-8.7-4.7-16.9-11-23.4c-8.1-8.4-19.1-13.1-31.1-13.3c-6-0.1-11.9,1-17.4,3.2
		c2.5,9.4,5.1,24-0.9,30.5c-1.5,1.7-5.1,4.3-11,2.8l2.5-10.7c1.5-2.3,0.2-13-2.6-22.6c-11-10.6-25.5-16.7-41.2-16.9
		c-28.2-0.5-52.2,18-58.9,43.1c10.7-6.8,27-14.3,41-9.2c11.8,4.3,19.3,16.3,22.2,35.5l-11.5,1.8c-2.3-14.8-7.2-23.7-14.7-26.4
		c-12.3-4.5-30.6,7.2-38.9,13.8l0.1,4.4l-2.2,1.8c-9.4,7.7-15,18.9-15.2,30.6c-0.1,3.3,0.4,6.4,1.1,9.5l41.2-0.9l-0.8-0.4
		c5.9-12.7,24.7-35.7,53.8-32.2l-1.4,11.5c-21.2-2.5-33.9,12.7-39.2,20.9l105.1-2.3c-0.1-0.8-0.3-1.6-0.3-2.4
		C977.7,663.5,977.7,663.2,977.7,663z"/>
	<path fill="#E8A26C" d="M912,647.6l1.4-11.5c-29.1-3.5-47.9,19.6-53.8,32.2l0.8,0.4l12.4-0.3C878,660.4,890.8,645.1,912,647.6z"/>
	<path fill="#FDE8DA" enable-background="new    " d="M1140.1,643.4c-3.4-7.4-9.8-13-18-15.8c-3.9-1.3-8.2-1.6-12.4-1.4
		c-0.9,7.7-3.3,18.6-9.6,21.9c-1.8,0.9-5.5,2.1-10-0.6l6.2-9.8c-0.5-0.2-1.4-0.1-1.8,0.3c1.6-1.4,3.3-8.9,3.9-16
		c-5-9.7-13.5-17.1-24.3-20.8c-18.8-6.3-39.3,0.2-51.5,14.5c9.7-2,21.9-2.5,30,4.3c7.6,6.3,9.8,17.3,6.6,32.4l-11.3-2.5
		c1.6-7.3,2.4-16.8-2.6-21c-7-5.8-23.2-1.7-31,1.1l-1.1,3.3l-2.5,1c-8.8,3.4-15.8,10.1-19.2,18.4c-1.7,4.3-2.3,8.8-2,13.3l29.3-0.6
		c5.3-4.8,25.4-20.6,48.4-10.1l-4.2,9.1l78.5-1.7c0.7-2.5,1.1-5,1.1-7.4C1142.7,651.2,1141.8,647.1,1140.1,643.4z"/>
	<path fill="#FDE8DA" enable-background="new    " d="M1042.2,664.8l16-0.3C1052.5,662.9,1047,663.3,1042.2,664.8z"/>
	<path fill="#E8A26C" d="M1018.8,665.3l23.4-0.5c4.8-1.5,10.2-1.9,16-0.3l4.8-0.1l4.2-9.1C1044.2,644.7,1024.1,660.6,1018.8,665.3z"
		/>
	<path fill="#E53D25" d="M271.8,667.7l-12.7-0.9l-12.3-0.9l-5.7-0.4l-7-0.5l1.9,16.1l88.4,744.5l25.8,216.9c2.2,0.5,4.4,1,6.6,1.8
		L271.8,667.7z"/>
	<path fill="#E53D25" d="M699.2,1815c3-4.8,7.8-8.1,13.2-10c0,0,0.1-0.2,0.1-0.2c8.5-13.9,27.2-19.1,41.6-11.8
		c5.6,2.8,9.4,7.4,12,12.8l3.6-1135.1l43.6-1L810,1759.7c0.2-0.4,0.4-0.7,0.4-0.7c15.8-25.7,50.5-35.5,77.3-21.8
		c1.6,0.8,2.9,1.8,4.3,2.8l23.1-1072.4l43.6-0.9l-23.8,1106.2c3.5,2.5,6.6,5.4,9.1,8.7c0.7-4,1.8-7.8,4.1-11.5
		c4.3-7,11.4-11.8,19.5-14.4c0.2-0.4,0.5-0.9,0.5-0.9c2.6-4.3,6-7.9,9.8-10.9l60.9-1079l43.8-1L1022,1736.5c1.5,0.6,3.1,1,4.6,1.8
		c8.8,4.5,14.8,12,18.3,20.8c3.2,0.3,6.3,0.9,9.3,1.9l66.9-560.4c-14-12.7-22.9-30.9-22.9-51.2c0-25.4,14.2-47.4,35.6-59.5
		c0.4-20.8,3.1-41.1,7.7-60.6l43.9-367.5l-31.8,0.7l-12,0.3l-78.5,1.7l-4.8,0.1l-16,0.3l-23.4,0.5l-29.3,0.6l-11.5,0.3l-105.1,2.3
		l-12.4,0.3l-41.2,0.9l-33.6,0.7l-80.1,1.7l-12.5,0.3l-156.7,3.4l-12.9,0.3l-3.1,0.1l-5.3,0.1l-76.7,1.7l-15.3,0.3l53.4,1058.3
		c6.9,4,13.6,10.2,13.6,18.1v0c0,3.2,2.9,6.4,2.9,9.6c0,6.4-1.7,12.4-5.5,17.7c0.4,0.9,1.2,2,1.2,2c0.5,1.8,0.9,3.7,0.9,5.6
		c0,4-1,7.8-3.1,11.3c-1.3,2.2-3,4-5,5.6l0.7,13.4l-8.8-9.2l0,0l35.3,37.2l46.2-4.3l-28-1165.9l43.6-0.9l27.9,1162.7l-21.4,2
		l71.9-6.7l9.2-1161.6l43.6-0.9l-9.2,1158.4l-37.9,3.5l41.7-3.9c-0.2-1.1-0.5-2.2-0.5-3.3C695.7,1822.9,696.9,1818.8,699.2,1815z"/>
	<polygon fill="#E53D25" points="388.9,1721.5 388.9,1721.5 405.3,1738.9 405.3,1738.9 	"/>
	<path fill="#E53D25" d="M379.1,675.2l-68.4-4.8l5.1,0.4l84.8,973.8c5.7,4,10.2,9.6,12.5,16.5c1,3.2,1.6,6.5,1.6,9.7
		c0,6.4-2.5,12.4-6.3,17.6c0.4,0.9,0.8,2,0.8,2c0.5,1.8,0.7,3.7,0.7,5.6c0,3.9-1.1,7.8-3.2,11.3c-0.2,0.3-0.4,0.5-0.6,0.8l2.6,29.6
		c0.9-0.3,1.7-0.8,2.6-1c7.6-2.1,15.3-1.5,22.8,0.7L379.1,675.2z"/>
	<path fill="#FDF5EF" d="M412.6,677.5l-33.5-2.3l0,0l55,1062.1c2,0.6,4.1,1.3,6,2.1c3.4-2.7,6.9-5.3,11.1-6.5
		c9.2-2.5,18.7-0.9,26.5,3.6L423,678.3L412.6,677.5z"/>
	<path fill="#FFFFFE" d="M392.1,1717.4c0,0-0.7,0.1-1.2,0.1c-0.5,1.4-1.4,2.7-2.1,4l16.5,17.4c1.1-0.5,2.2-0.9,3.3-1.3l-2.6-29.6
		C402.9,1712.8,398,1716.1,392.1,1717.4z"/>
	<polygon fill="#FDF5EF" points="570.3,676.7 525.3,677.6 552,1843.4 552,1843.5 575.5,1841.4 597.6,1839.4 	"/>
	<polygon fill="#FDF5EF" points="701.6,672.2 657.6,673.2 648,1834.7 648,1834.7 654.1,1834.2 692.2,1830.7 	"/>
	<path fill="#FFFFFE" d="M482,1819.8l-0.7-13.4c-2.3,1.9-5.1,3.3-8.1,4.1L482,1819.8z"/>
	<path fill="#FDF5EF" d="M315.8,670.8l-7.5-0.4l-41.4-2.7v0l87.4,976.8c1.2,0.4,3.6,0.8,4.8,1.3c3.4-2.7,7.5-5.3,11.8-6.5
		c10.2-2.8,21.1-0.5,29.3,5.3L315.8,670.8z"/>
	<path fill="#FDF5EF" d="M813.4,669.8l-43.6,1l-3.6,1135.1c0.2,0.4,0.5,0.9,0.7,1.3c3.5,0.8,8,1.8,8,1.8c1.2,0.6,2.2,1.3,3.2,2.1
		c-0.8-3.2-1.3-6.4-1.3-9.6c0-7.4,2.1-14.7,6.2-21.4c5.8-9.4,15.4-16,26.3-19.3c0.2-0.4,0.4-0.7,0.6-1.1L813.4,669.8z"/>
	<path fill="#FDF5EF" d="M958.7,666.6l-43.6,0.9L891.9,1740c9.5,6.2,16.4,15.1,20.2,25.6c6.3,0.3,12.5,1.4,17.9,4.2
		c1.8,0.9,3.3,2,4.9,3.1L958.7,666.6z"/>
	<path fill="#FDF5EF" d="M1082.5,663.9l-43.8,1l-60.9,1079c12.2-9.8,29.2-12.9,44.1-7.4L1082.5,663.9z"/>
	<path fill="#FDE8DA" enable-background="new    " d="M381.9,1710.9l1.4-4.1l6.4-0.8c3.1-0.6,5.6-2.4,7.1-4.9
		c1.1-1.8,1.4-3.9,1.3-5.9c-2.4-1.4-6.7-3.5-11.1-2.6c-3.6,0.7-6.7,3.3-9.4,7.9l-10-5.9c4.5-7.6,10.3-12,17.3-13.3
		c5.1-0.9,9.9,0.1,13.8,1.5c4.1-5.1,5.5-11.7,3.4-18c-3.6-11-15.9-17.4-27.4-14.2c-2,0.6-3.9,1.4-5.6,2.5c3.5,5.7,6.2,12.2,3.9,16.8
		c-1.4,2.8-4.1,4.5-7.6,4.7l-0.5-11.6c-1.2,0.1-2.7,1.7-2.7,3c-0.1-1.5-2.3-5.7-4.9-9.4c-7.1-3.4-15.1-4.3-22.7-2.2
		c-7.9,2.2-14.3,7.2-18,14.1c-1.5,2.8-2.4,5.9-2.8,9c4.5-4.1,10.2-7.6,16.9-7.5c8,0.2,14.9,5.6,20.6,16c1.6-0.6,3.3-1.1,5.2-1.4
		l1.9,11.4c-13.3,2.2-15.1,17-15.1,17.6l-11.5-1.2c0.5-5.4,3.3-14.1,9.9-20.4l-0.2,0.1c-2.5-4.7-6.4-10.4-11-10.5
		c-5.5-0.1-11.5,6.7-14.5,11l0.9,2.3l-1.6,2.5c-3.1,4.8-3.8,10.7-2,16.2c2.5,7.6,9.2,12.9,16.8,14.4c2.8-1.6,5.9-3.4,5.9-3.4
		c4.1-1.1,8.2-1,12.1-0.1l1.5-0.7l0.4,0.2c2.2-0.8,4.4-2,5-3.1l0-0.8l11-3.6l-0.9,10.1c0.4-0.1,0.8,0,1.2-0.1
		C374.1,1724.5,380.3,1718.5,381.9,1710.9z"/>
	<path fill="#E8A26C" d="M390.9,1717.5c0.5-0.1,1.2-0.1,1.2-0.1c5.8-1.3,10.7-4.6,14-9.4c0.2-0.3,0.4-0.5,0.6-0.8
		c2.1-3.5,3.2-7.4,3.2-11.3c0-1.8-0.3-3.7-0.7-5.6c0,0-0.4-1.1-0.8-2c3.8-5.3,6.3-11.3,6.3-17.6c0-3.2-0.5-6.5-1.6-9.7
		c-2.3-6.9-6.8-12.5-12.5-16.5c-8.2-5.7-18.8-8.1-29-5.3c-4.2,1.2-7.8,3.8-11.2,6.5c-1.2-0.5-2.4-0.8-3.6-1.3
		c-2.2-0.8-4.4-1.4-6.6-1.8c-6.1-1.2-12.4-1.4-18.6,0.3c-11,3-20,10-25.2,19.8c-3,5.7-4.6,11.9-4.6,18.2c0,4.1,0.6,8.3,2,12.4
		c0,0,0.2,0.6,0.4,1.1c-1.9,4.1-3.7,8.2-3.7,12.7c0,3.3,0.5,6.6,1.6,9.7c1.3,3.8,3.3,7.3,5.8,10.3c-7.5,2.3-13.6,7.1-17.2,13.9
		c-2.2,4.1-3.3,8.6-3.3,13.1c0,3,0.5,6,1.5,9c0,0,0.1,0.3,0.1,0.4c-1.1,2.7-2.5,5.4-2.5,8.4c0,2.4,0.4,4.8,1.2,7.1
		c4,12.2,17.6,19.3,30.2,15.9c0,0,2.2-0.9,4.1-1.8c4.2,1.3,8.5,1.9,12.7,1c7.4-1.5,12.7-7,15.7-13.6c4.9-1.1,8.8-3.8,11.1-7.8
		c1.6-2.6,2.4-5.6,2.4-8.5c0-1.4-0.2-2.8-0.6-4.3c0,0-0.2-0.5-0.3-0.7c2.4-3.6,4-7.7,4-12c0-2.4-0.4-4.8-1.2-7.1
		c-0.3-0.8-0.7-1.5-1-2.2c1.2-0.1,2.3-0.2,3.5-0.4c9.2-2,16.1-8.2,20.3-16c0,0,0,0,0,0C389.6,1720.2,390.4,1718.9,390.9,1717.5z
		 M351.7,1766.8c-0.8,1.3-2.1,2.2-3.6,2.5l-4.1,0.5l-2.5,4.2c-0.8,4-3.7,7-7.6,8.3l0.4-4.9l-11,3.6c-0.1-0.3,0-0.8,0.2-1l-2,0.9
		l-0.1,0l-3.1,1.4l-3.4,1.4c-6.8,1.9-14-1.9-16.2-8.3c-1-3.2-0.6-6.5,1.2-9.4l1.6-2.5l-0.6-1.4c2.2-2.9,5.4-5.8,7.6-5.8
		c1.5,0.1,3.4,1.9,5.2,5c-4,4.5-5.8,10.1-6.1,13.7l11.5,1.2c0.1-0.9,1.2-9,8.6-10.2l-1.9-11.4c-0.9,0.1-1.6,0.4-2.4,0.7
		c-4-6.7-8.9-10.3-14.7-10.5c-2.9-0.1-5.5,0.8-7.9,2.1c0.1-0.1,0-0.2,0.1-0.3c2.3-4.2,6.2-7.3,11-8.5c4.4-1.2,9.1-0.8,13.4,1.1
		l2.8,5.1l0.9-2.6l2.7-1.5l0.5,11.6c3.1-0.1,5.5-1.7,6.7-4.2c1.4-2.9,0.8-6.6-1.6-11.1l1.5-0.9c6.8-1.9,14.1,1.9,16.2,8.3l0,0
		c1.1,3.2,0.5,6.6-1.3,9.4c-2.6-0.8-5.5-1.4-8.8-0.7c-3.6,0.7-8.9,2.9-13,9.9l10,5.9c1.5-2.6,3.2-4,5-4.4c1.8-0.3,3.8,0.4,5.3,1.1
		C352.3,1765.7,352,1766.4,351.7,1766.8z M365,1726.3l0.9-10.1l-11,3.6l0,0.8c-0.6,1.1-2.9,2.3-5,3.1l-0.4-0.2l-1.5,0.7
		c-3.9-0.9-8-1-12.1,0.1c0,0-3,1.7-5.9,3.4c-7.7-1.6-14.3-6.9-16.8-14.4c-1.8-5.5-1.1-11.4,2-16.2l1.6-2.5l-0.9-2.3
		c3.1-4.3,9.1-11.1,14.5-11c4.6,0.1,8.5,5.8,11,10.5l0.2-0.1c-6.6,6.4-9.4,15.1-9.9,20.4l11.5,1.2c0.1-0.6,1.8-15.4,15.1-17.6
		l-1.9-11.4c-1.9,0.3-3.6,0.9-5.2,1.4c-5.7-10.3-12.6-15.8-20.6-16c-6.6-0.1-12.4,3.4-16.9,7.5c0.4-3.1,1.3-6.1,2.8-9
		c3.7-6.9,10.1-11.9,18-14.1c7.6-2.1,15.5-1.2,22.7,2.2c2.6,3.7,4.8,7.9,4.9,9.4c-0.1-1.2,1.4-2.8,2.7-3l0.5,11.6
		c3.5-0.1,6.3-1.9,7.6-4.7c2.2-4.6-0.4-11.1-3.9-16.8c1.7-1.1,3.6-2,5.6-2.5c11.5-3.2,23.8,3.2,27.4,14.2c2.1,6.3,0.7,12.9-3.4,18
		c-3.9-1.5-8.6-2.5-13.8-1.5c-7,1.3-12.9,5.8-17.3,13.3l10,5.9c2.7-4.5,5.8-7.2,9.4-7.9c4.4-0.8,8.8,1.2,11.1,2.6
		c0.1,2.1-0.2,4.1-1.3,5.9c-1.6,2.5-4.1,4.3-7.1,4.9l-6.4,0.8l-1.4,4.1c-1.6,7.6-7.8,13.6-15.7,15.3
		C365.8,1726.3,365.4,1726.2,365,1726.3z"/>
	<path fill="#FDE8DA" enable-background="new    " d="M469.4,1799.6c3.1-0.7,5.6-2.4,7.1-4.9c1-1.6,1.5-3.4,1.5-5.2
		c0-0.2-0.1-0.4-0.1-0.7c-2.4-1.4-6.8-3.6-11.3-2.7c-3.6,0.7-6.7,3.3-9.4,7.8l-10-5.9c4.5-7.6,10.3-12,17.4-13.3
		c5.1-0.9,9.8,0.1,13.7,1.5c2.8-3.4,4.5-7.5,4.5-11.8c0-2-0.3-4.1-1-6.1c-3.6-11-15.9-17.3-27.5-14.1c-2,0.5-3.8,1.4-5.6,2.5
		c3.5,5.7,6.2,12.2,3.9,16.8c-1.4,2.8-4.1,4.5-7.6,4.7l-0.5-11.6c-1.2,0.1-2.7,1.7-2.7,3c0-1.5-2.3-5.7-4.8-9.4
		c-7.1-3.5-15.1-4.3-22.7-2.2c-7.9,2.2-14.3,7.2-18,14.1c-1.5,2.8-2.4,5.9-2.8,9c4.5-4.1,10.2-7.6,16.8-7.5c8,0.2,14.9,5.6,20.6,16
		c1.6-0.6,3.3-1.1,5.2-1.4l1.9,11.4c-13.3,2.2-15,17-15.1,17.6l-11.5-1.1c0.5-5.4,3.3-14.1,9.9-20.4l-0.2,0.1
		c-2.5-4.7-6.4-10.4-11.1-10.5c-5.5-0.2-11.4,6.6-14.5,10.9l0.9,2.3l-1.6,2.5c-3.1,4.9-3.9,10.7-2,16.3
		c3.6,10.9,15.9,17.3,27.4,14.2l5.7-2.5l3.2-1.4l0.4,0.2c2.2-0.8,4.4-2,5-3.1l0-0.8l11-3.6l-0.9,10.1c0.4-0.1,0.8,0,1.2-0.1
		c8-1.7,14.1-7.7,15.7-15.3l1.4-4.1L469.4,1799.6z"/>
	<path fill="#E8A26C" d="M481.4,1806.4c1.9-1.6,3.7-3.4,5-5.6c2.1-3.5,3.2-7.3,3.2-11.3c0-1.8-0.2-3.7-0.7-5.6c0,0-0.4-1-0.8-2
		c3.8-5.3,4.8-11.3,4.8-17.7c0-3.2-2.9-6.5-2.9-9.6v0c0-7.9-6.8-14.1-13.6-18.1c-7.8-4.5-16.6-6.2-25.8-3.6
		c-4.2,1.1-7.4,3.8-10.8,6.5c-2-0.8-3.8-1.5-5.9-2.1c-7.4-2.2-15.1-2.7-22.7-0.7c-0.9,0.3-1.7,0.7-2.6,1c-1.1,0.4-2.2,0.8-3.3,1.3
		c0,0,0,0,0,0c-8.2,3.6-15,9.6-19.2,17.5c-3,5.7-4.6,11.9-4.6,18.2c0,4.2,0.7,8.4,2,12.5c0,0,0.3,0.6,0.4,1.1
		c-1.9,4-3.7,8.2-3.7,12.7c0,3.2,0.5,6.5,1.6,9.7c5.6,16.7,24.2,26.5,41.5,21.8c0,0,3.8-1.7,6.5-2.8c6,2.1,12.2,3.1,18.5,1.7
		c10.8-2.3,18.5-10.3,22.3-20.1c0.5-0.1,1.2-0.1,1.2-0.1c0.5-0.1,1-0.3,1.5-0.5l0,0C476.3,1809.7,479,1808.3,481.4,1806.4z
		 M461.6,1804.5c-1.6,7.6-7.8,13.6-15.7,15.3c-0.4,0.1-0.8,0-1.2,0.1l0.9-10.1l-11,3.6l0,0.8c-0.6,1.1-2.9,2.3-5,3.1l-0.4-0.2
		l-3.2,1.4l-5.7,2.5c-11.5,3.1-23.8-3.3-27.4-14.2c-1.8-5.6-1.1-11.4,2-16.3l1.6-2.5l-0.9-2.3c3.1-4.3,9-11.1,14.5-10.9
		c4.6,0.1,8.5,5.8,11.1,10.5l0.2-0.1c-6.6,6.4-9.4,15.1-9.9,20.4l11.5,1.1c0.1-0.6,1.8-15.4,15.1-17.6l-1.9-11.4
		c-1.9,0.3-3.6,0.8-5.2,1.4c-5.7-10.4-12.6-15.8-20.6-16c-6.6-0.1-12.4,3.4-16.8,7.5c0.4-3.1,1.3-6.1,2.8-9
		c3.7-6.9,10.1-11.9,18-14.1c7.6-2.1,15.6-1.2,22.7,2.2c2.5,3.7,4.8,7.9,4.8,9.4c0-1.2,1.4-2.9,2.7-3l0.5,11.6
		c3.5-0.2,6.2-1.9,7.6-4.7c2.2-4.6-0.4-11.1-3.9-16.8c1.7-1.1,3.6-2,5.6-2.5c11.5-3.2,23.8,3.2,27.5,14.1c0.7,2.1,1,4.1,1,6.1
		c0,4.3-1.7,8.4-4.5,11.8c-3.8-1.4-8.6-2.5-13.7-1.5c-7,1.3-12.9,5.8-17.4,13.3l10,5.9c2.7-4.5,5.8-7.1,9.4-7.8
		c4.5-0.9,8.9,1.3,11.3,2.7c0,0.2,0.1,0.4,0.1,0.7c0,1.9-0.5,3.6-1.5,5.2c-1.6,2.5-4.1,4.3-7.1,4.9l-6.4,0.8L461.6,1804.5z"/>
	<path fill="#FDE8DA" enable-background="new    " d="M342,1768.3l-10-5.9c4.1-7,9.3-9.2,13-9.9c3.3-0.6,6.2-0.1,8.8,0.7
		c1.8-2.8,2.4-6.1,1.3-9.4l0,0c-2.1-6.4-9.4-10.2-16.2-8.3l-1.5,0.9c2.4,4.5,3,8.3,1.6,11.1c-1.2,2.6-3.7,4.1-6.7,4.2l-0.5-11.6
		l-2.7,1.5l-0.9,2.6l-2.8-5.1c-4.2-1.9-8.9-2.3-13.4-1.1c-4.9,1.3-8.7,4.3-11,8.5c-0.1,0.1,0,0.2-0.1,0.3c2.4-1.3,5-2.2,7.9-2.1
		c5.8,0.1,10.7,3.8,14.7,10.5c0.8-0.2,1.5-0.5,2.4-0.7l1.9,11.4c-7.4,1.2-8.5,9.3-8.6,10.2l-11.5-1.2c0.3-3.6,2.1-9.2,6.1-13.7
		c-1.8-3-3.7-4.9-5.2-5c-2.2-0.1-5.4,2.9-7.6,5.8l0.6,1.4l-1.6,2.5c-1.8,2.8-2.2,6.2-1.2,9.4c2.1,6.5,9.4,10.2,16.2,8.3l3.4-1.4
		l3.1-1.4l0.1,0l2-0.9c-0.2,0.3-0.3,0.8-0.2,1l11-3.6l-0.4,4.9c3.9-1.3,6.8-4.3,7.6-8.3l2.5-4.2l4.1-0.5c1.6-0.3,2.9-1.2,3.6-2.5
		c0.3-0.4,0.5-1.1,0.6-1.8c-1.5-0.8-3.5-1.5-5.3-1.1C345.2,1764.3,343.5,1765.7,342,1768.3z"/>
	<path fill="#FDE8DA" enable-background="new    " d="M769.6,1819.3l-2.6-0.6c-1.5,4.1-3.9,7.9-7.4,9c-2.6,0.9-5.3,0.3-7.5-1.6
		l7.6-8.8c-0.2-0.2-0.5-0.1-0.8-0.2l-0.5-0.1l0-0.1c-1.4-0.4-2.9-0.2-3.5,0.5l1.9-5.1c-1.4-3.8-4-7-7.9-8.9
		c-4.6-2.4-9.9-2.7-14.7-1.3c2.4,0.8,4.7,2.1,6.5,4.1c3.5,4,4,9.6,1.8,16.4c0.5,0.3,1.1,0.4,1.6,0.8l-6.3,9.7
		c-6.5-4.2-14.8,1.7-14.9,1.7l-6.9-9.3c0.4-0.3,6.9-4.9,15.2-5.4c1.4-3.9,1.2-5.8,0.8-6.3c-1.3-1.4-6.2-1.5-10.7-0.8l-0.7,1.4
		l-2.6,0.6c-3.8,0.9-7,3.1-8.9,6.1c-1.7,2.7-2.2,5.8-1.4,8.7c0.8,2.9,2.8,5.2,5.6,6.7l3.5,1.2l3.5,1.1l0.1,0.3
		c0.9,0.3,1.8,0.5,2.2,0.4l-0.3,0.2l9.9,6.1c-0.7,1.2-1.7,2.1-2.6,2.9c3.5,0.8,7.4,0.3,10.6-1.7l4.6-0.8l3,2.1
		c2.2,1.3,5.2,1,7.3-0.6c-0.4-1.1-1-2.4-2.2-3.2c-2-1.4-5.3-1-7.6-0.4l-2.8-11.3c7-1.8,12.9-1,17.4,2.3c2.2,1.7,3.6,3.7,4.7,5.7
		c3.8-0.8,7.2-2.9,9.2-6.1c1.2-1.9,1.7-3.9,1.7-6c0-0.9-0.1-1.9-0.4-2.8C774.4,1823.1,772.4,1820.7,769.6,1819.3z"/>
	<path fill="#FDE8DA" enable-background="new    " d="M939.3,1798.4c-2.1-7.5-7.3-14.2-14.6-17.9c-3.6-1.8-7.7-3-11.9-3.3
		c-2.2,7.5-6.4,17.8-13.2,20c-3.3,1.1-6.7,0.3-9.6-2.2l7.6-8.8c-0.4-0.3-1.4-0.3-1.9-0.1c1.8-1.1,4.8-8.1,6.6-15.1
		c-3.1-10.1-10.1-18.4-20-23.5c-17.1-8.7-38.1-5.4-52.5,6.7c9.8-0.5,21.5,0.8,28.2,8.6c6.4,7.4,6.7,18.4,0.9,32.7
		c2.4,0.9,4.8,2,7.2,3.6l-6.3,9.7c-16.9-11-37.1,3.5-37.3,3.6l-6.9-9.3c1-0.7,21.8-15.6,43.1-7.6l-10.6-4.3c2.8-6.9,5.2-16,1.1-20.7
		c-5.8-6.6-22.4-4.8-30.3-3.2l-1.7,3l-2.5,0.6c-9.3,2.1-17.3,7.6-22,15.4c-4.4,7-5.6,15.1-3.5,22.7c2.1,7.5,7.3,13.7,14.6,17.4
		l8.9,3l3.6,1.1l0.2,0.5c3.5,1.6,11,4.2,13.8-0.4l9.9,6.1c-3.8,6.1-9.5,8-15.3,8c1.5,1.3,3.1,2.6,4.8,3.6
		c10.4,6.1,24.2,5.8,35.1-0.7l3.7-1.6c0,0,5.8,4.2,5.8,4.2c8,4.7,18.7,2.6,24.9-4.4c-0.6-3.3-2.4-9.7-7.6-13.5
		c-4.8-3.5-11.8-4.1-20.7-1.8l-2.9-11.2c12.5-3.2,22.8-1.9,30.6,3.8c5.1,3.8,8.1,9.8,9.9,14.3c11.2-0.8,21.7-2.1,27.3-15.1h0
		C940.2,1810,941.5,1806,939.3,1798.4z"/>
	<path fill="#FDE8DA" enable-background="new    " d="M1062.2,1784.2c-1.4-5.1-4.9-9.3-9.9-11.8c-2.1-1.1-4.4-1.7-6.9-2
		c-1.9,5.9-5.1,12.8-10.3,14.5c-2.9,0.9-6,0.2-8.5-1.9l7.6-8.8c-0.8-0.7-2.5-0.7-3.3-0.1c1.1-0.9,3-5.4,4.2-9.7
		c-2.2-6.8-7-12.4-13.7-15.8c-10.6-5.4-23.2-4.2-32.9,2c6.3,0.3,12.9,1.9,17.1,6.7c4.9,5.6,5.3,13.8,1.4,24.2
		c1.4,0.6,2.9,1.1,4.3,2.1l-6.3,9.7c-11.4-7.5-25.4,2.5-25.5,2.6l-6.9-9.3c0.6-0.5,11.5-8.2,24.5-7.6l-1.2-0.5
		c1.5-3.8,3.7-10.5,1.1-13.5c-3.1-3.6-12.9-3.3-20-2l-1.2,2.2l-2.5,0.5c-6.4,1.4-11.9,5.3-15.1,10.5c-2.9,4.8-3.8,10.2-2.3,15.4
		c1.4,5.1,4.9,9.2,9.9,11.8l6.1,2l3.5,1.1l0.1,0.3c2.3,1,6.2,2.2,7.5,0.1l9.9,6.1c-2.1,3.4-5.1,5.3-8.4,6.1c0.1,0.1,0.1,0.1,0.2,0.2
		c7.1,4.1,16.6,3.9,24.1-0.5l3.8-1.6l3.1,2.2c0,0,1.6,1.1,1.7,1.2c4.9,2.9,11.5,1.6,15.6-2.4c-0.5-2.3-1.7-5.8-4.7-8
		c-3.1-2.2-7.8-2.6-13.8-1l-2.9-11.2c9.6-2.5,17.6-1.5,23.6,3c3.6,2.7,5.8,6.1,7.3,9.3c7.3-0.8,14-4.8,17.7-10.8
		C1062.7,1794.7,1063.6,1789.3,1062.2,1784.2z"/>
	<path fill="#E8A26C" d="M1074.4,1789.1c0-2.7-0.4-5.4-1.1-8.1c-2.3-8.2-7.9-15-15.8-19c-1.1-0.6-2.3-0.8-3.4-1.2
		c-3-1-6.1-1.6-9.3-1.9c-3.4-8.8-9.4-16.3-18.3-20.8c-1.5-0.8-3-1.2-4.6-1.8c-14.9-5.5-31.9-2.4-44.1,7.4c-3.8,3.1-7.2,6.6-9.8,10.9
		c0,0-0.3,0.5-0.5,0.9c-8.1,2.6-15.2,7.5-19.5,14.4c-2.2,3.6-3.4,7.5-4.1,11.5c-2.5-3.3-5.6-6.2-9.1-8.7c-1.6-1.1-3.1-2.2-4.9-3.1
		c-5.4-2.7-11.6-3.9-17.9-4.2c-3.8-10.5-10.7-19.4-20.2-25.6c-1.4-0.9-2.7-2-4.3-2.8c-26.8-13.7-61.5-3.9-77.3,21.8
		c0,0-0.2,0.3-0.4,0.7c-0.2,0.3-0.4,0.7-0.6,1.1c-10.9,3.2-20.6,9.8-26.3,19.3c-4.1,6.7-6.2,14-6.2,21.4c0,3.2,0.5,6.4,1.3,9.6
		c-1-0.7-2.1-1.5-3.2-2.1c0,0-4.5-1-8-1.8c-0.2-0.5-0.5-0.9-0.7-1.3c-2.6-5.4-6.4-10-12-12.8c-14.4-7.4-33.1-2.1-41.6,11.8
		c0,0-0.1,0.1-0.1,0.2c-5.4,1.9-10.2,5.3-13.2,10c-2.3,3.8-3.5,7.9-3.5,12c0,1.1,0.3,2.2,0.5,3.3c0.1,0.9,0.1,1.8,0.4,2.6
		c1.7,6,5.8,10.9,11.5,13.9c0,0,2,0.7,3.9,1.3c1.9,3.7,4.6,7,8.3,9.1c6.6,3.8,14.4,3.6,21.6,0.8c0,0,0.1,0,0.1,0
		c8,4.7,18.9,2.3,24.3-5.3c0,0,3-0.7,3.3-1.2c6.9-1.4,7.5-4.9,19.5-10.8v0c0-3.7,0.8-7.8,0.8-12c0-0.4-1.5-0.8-1.5-1.3
		c3.3,3.6,6.5,6.7,11.1,9.1c0,0,5.4,1.9,8.9,3.1c3.3,7.5,8.5,14.2,15.8,18.4c12.8,7.5,29.2,7.5,43,0.8c0.6,0.5,1.4,1,1.4,1
		c13.7,8,32.3,3.9,41.6-9.2c0,0,1.1-2,2.1-3.9c13.9-1.8,26.3-8.9,33.5-20.5c3.6-5.9,5.6-12.3,6-18.8c0-0.1,0-0.1,0-0.2
		c0.1,0.1,0.1,0.1,0.2,0.2c2.4,2.4,5,4.6,8.2,6.2c0,0,3.7,1.2,6.4,2.2c2.6,5.5,6.5,10.4,11.9,13.5c9.5,5.5,21.3,5.1,31.6,0.6
		c0.5,0.4,1.2,0.9,1.2,0.9c10.5,6.1,25.1,2.9,32.2-7.3c0,0,0.7-1.3,1.3-2.5c9.9-1.6,18.8-6.6,24.2-14.8c0.2-0.2,0.4-0.4,0.5-0.7
		C1072.8,1800.5,1074.4,1794.8,1074.4,1789.1z M1042.1,1810.3c-1.4-3.2-3.7-6.7-7.3-9.3c-6.1-4.4-14-5.4-23.6-3l2.9,11.2
		c6.1-1.5,10.7-1.2,13.8,1c3,2.2,4.2,5.7,4.7,8c-4.1,4-10.7,5.3-15.6,2.4c-0.2-0.1-1.7-1.2-1.7-1.2l-3.1-2.2l-3.8,1.6
		c-7.5,4.5-17,4.7-24.1,0.5c-0.1-0.1-0.1-0.1-0.2-0.2c3.3-0.8,6.3-2.7,8.4-6.1l-9.9-6.1c-1.3,2.1-5.2,0.9-7.5-0.1l-0.1-0.3l-3.5-1.1
		l-6.1-2c-4.9-2.5-8.4-6.7-9.9-11.8c-1.4-5.2-0.6-10.6,2.3-15.4c3.2-5.2,8.7-9.1,15.1-10.5l2.5-0.5l1.2-2.2c7-1.4,16.9-1.6,20,2
		c2.6,3,0.4,9.8-1.1,13.5l1.2,0.5c-13-0.7-23.9,7.1-24.5,7.6l6.9,9.3c0.1-0.1,14.1-10,25.5-2.6l6.3-9.7c-1.4-0.9-2.9-1.4-4.3-2.1
		c3.9-10.4,3.5-18.6-1.4-24.2c-4.2-4.8-10.8-6.4-17.1-6.7c9.7-6.1,22.4-7.4,32.9-2c6.7,3.4,11.5,9,13.7,15.8c-1.2,4.4-3,8.8-4.2,9.7
		c0.7-0.6,2.5-0.6,3.3,0.1l-7.6,8.8c2.5,2.1,5.6,2.8,8.5,1.9c5.2-1.7,8.4-8.6,10.3-14.5c2.4,0.3,4.8,0.9,6.9,2
		c5,2.5,8.5,6.7,9.9,11.8c1.4,5.1,0.6,10.5-2.4,15.3C1056.1,1805.5,1049.4,1809.4,1042.1,1810.3z M935.9,1822
		c-5.6,13-16.1,14.3-27.3,15.1c-1.8-4.5-4.8-10-9.9-13.8c-7.8-5.7-18-7.2-30.6-4l2.9,11.1c8.9-2.3,15.9-1.7,20.7,1.7
		c5.2,3.8,7,10.2,7.6,13.5c-6.1,7-16.9,9-24.9,4.3c0,0-5.8-4.2-5.8-4.2l-3.7,1.6c-10.9,6.5-24.7,6.8-35.1,0.7
		c-1.8-1-3.4-2.3-4.8-3.6c5.8,0.1,11.5-1.9,15.3-8l-9.9-6.1c-2.8,4.6-10.3,1.9-13.8,0.4l-0.2-0.5l-3.6-1.1l-8.9-3
		c-7.3-3.7-12.5-9.9-14.6-17.4c-2.1-7.5-0.9-15.6,3.5-22.7c4.7-7.7,12.7-13.3,22-15.4l2.5-0.6l1.7-3c8-1.6,24.6-3.4,30.3,3.2
		c4.1,4.7,1.7,13.9-1.1,20.7l10.6,4.3c-21.3-8-42.1,6.9-43.1,7.6l6.9,9.3c0.2-0.1,20.5-14.6,37.3-3.6l6.3-9.7
		c-2.4-1.6-4.8-2.7-7.2-3.6c5.8-14.4,5.5-25.4-0.9-32.7c-6.7-7.7-18.4-9-28.2-8.6c14.4-12.1,35.4-15.4,52.5-6.7
		c9.9,5.1,16.9,13.4,20,23.5c-1.8,7-4.8,14-6.6,15.1c0.5-0.3,1.5-0.3,1.9,0l-7.6,8.7c2.9,2.5,6.3,3.2,9.6,2.2
		c6.8-2.2,11-12.6,13.2-20.1c4.2,0.4,8.3,1.3,11.9,3.1c7.3,3.8,12.5,10.9,14.6,18.4C941.5,1806,940.2,1810,935.9,1822L935.9,1822z
		 M775.2,1825.9c0.3,0.9,0.4,1.8,0.4,2.8c0,2.1-0.6,4.1-1.7,6c-2,3.2-5.4,5.3-9.2,6.1c-1.1-2-2.5-4-4.7-5.7
		c-4.5-3.3-10.4-4.1-17.4-2.3l2.8,11.3c2.4-0.6,5.7-1,7.6,0.4c1.1,0.8,1.8,2.1,2.2,3.2c-2.1,1.5-5.1,1.9-7.3,0.6l-3-2.1l-4.6,0.8
		c-3.3,1.9-7.1,2.5-10.6,1.7c1-0.8,1.9-1.7,2.6-2.9l-9.9-6.1l0.3-0.2c-0.4,0.1-1.3-0.1-2.2-0.4l-0.1-0.3l-3.5-1.1l-3.5-1.2
		c-2.8-1.5-4.8-3.9-5.6-6.7c-0.8-2.9-0.3-6,1.4-8.7c1.9-3,5.1-5.3,8.9-6.1l2.6-0.6l0.7-1.4c4.4-0.7,9.4-0.6,10.7,0.8
		c0.4,0.5,0.6,2.4-0.8,6.3c-8.2,0.5-14.8,5.1-15.2,5.4l6.9,9.3c0.1,0,8.4-5.9,14.9-1.7l6.3-9.7c-0.5-0.3-1.1-0.5-1.6-0.8
		c2.2-6.9,1.7-12.4-1.8-16.4c-1.8-2-4-3.3-6.5-4.1c4.8-1.4,10.1-1.1,14.7,1.3c3.8,1.9,6.4,5.1,7.9,8.9l-1.9,5.1
		c0.6-0.7,2.1-0.8,3.5-0.5l0,0.1l0.5,0.1c0.3,0.1,0.6,0,0.8,0.2l-7.6,8.8c2.2,1.9,4.9,2.5,7.5,1.6c3.6-1.2,5.9-4.9,7.4-9l2.6,0.6
		C772.4,1820.7,774.4,1823.1,775.2,1825.9z"/>
	<path fill="#E19BBE" d="M1325.1,531.7c-7.7-6.2-13.6-7-18.2-5.1l-210.4-174.4c0,0-32.6,16.3-32.6,59.8l229.7,146.2l64.4,257.4
		c13.1-3,26.6-5.1,40.4-6.3L1325.1,531.7z"/>
	<path fill="#C65696" d="M1219,1579.8l-10.6-80.5c244.8,23.8,388.6-42.2,445.9-77.3l-4.7,36.9l28.4-223.2l-10.7,84.2
		c-212.5,94.8-385.2,93.5-471.5,83.6L1244,1771l4.8,36.8c0,0,182.3,68,356.4,0l17.5-137.5l-1.5,11.7
		c-159.8,62.8-293.6,71.9-380,67.9l-10.5-80c203.9,15.7,334.4-31.4,400.4-66.2l12.6-99.5C1459.4,1581.5,1307.2,1586.7,1219,1579.8z"
		/>
	<path fill="#C65696" d="M1678.6,1231.3l1.7-15.5c-2.3,0.2-4.6-1.9-6.9-1.9h-501.8l17.2,133.3l-3.5-25.8
		C1494.5,1357.9,1649.9,1253.4,1678.6,1231.3z"/>
	<path fill="#DB8CB5" d="M1680.2,1215.9c34.9-3.5,62.2-31.9,62.2-67.6c0-22.8-11.7-42.8-30-55.6c-0.9-157.3-130.3-284.8-289.4-284.8
		c-8.3,0-16.6,0.6-24.7,1.3c-13.8,1.2-27.2,3.3-40.4,6.4c-107,24.5-191.3,107.8-216.5,213.7c-4.6,19.5-7.3,39.8-7.7,60.6
		c-21.5,12.1-35.6,34.2-35.6,59.5c0,20.3,8.9,36.3,22.9,49c12.3,11.1,28.4,15.7,46.2,15.7h4.3h501.8
		C1675.7,1214,1678,1216.1,1680.2,1215.9z M1423,825.5c150.3,0,272.1,122.3,272.1,271c0,0.9-0.1,4.4-0.1,4.4h-544
		c0,0-0.1-3.5-0.1-4.4C1150.9,947.8,1272.7,825.5,1423,825.5z M1167.3,1201c-28.6,0-51.7-24.2-51.7-52.7c0-20.3,11.7-34.3,28.8-47.3
		h551.8c17.1,13,28.9,26.9,28.9,47.3c0,28.5-23.1,52.7-51.7,52.7H1167.3z"/>
	<path fill="#FDF5EF" d="M1695,1101c0,0,0.1-3.5,0.1-4.4c0-148.8-121.8-270.2-272.1-270.2s-272.1,121.9-272.1,270.6
		c0,0.9,0.1,4,0.1,4H1695z M1189,1092.2c0,0,16.3-206.8,201.3-234c0,0-108.8,81.6-92.5,217.7L1189,1092.2z"/>
	<path fill="#FDF5EF" d="M1725,1148.3c0-20.3-11.8-34.3-28.9-47.3h-551.8c-17,13-28.8,27-28.8,47.3c0,28.5,23.2,52.7,51.7,52.7
		h506.1C1701.9,1201,1725,1176.8,1725,1148.3z M1248,1113.9v37.1h-50v-26.2L1248,1113.9z"/>
	<path fill="#FDF5EF" d="M1678.6,1232c-28.6,21-184,127.4-493.3,91l3.5,27l7.1,54c0,0,0,0,0,0c86.3,10,258.9,10.9,471.5-83.9
		l10.7-84L1678.6,1232L1678.6,1232z"/>
	<path fill="#FDF5EF" d="M1230.8,1669.9l10.5,80c86.4,4,220.2-5,380-67.9l1.5-11.7l8.5-66.6c0,0,0,0,0,0
		C1565.2,1638.5,1434.6,1685.6,1230.8,1669.9z"/>
	<path fill="#FDF5EF" d="M1654.3,1421.9c-57.3,35.2-201.1,101.1-445.9,77.3l10.6,80.5c88.3,6.9,240.4,1.7,424.9-75.6c0,0,0,0,0,0
		l3.7-29.5l2-15.9L1654.3,1421.9z"/>
	<path fill="#A7DAF3" d="M1390.4,858.2c-185,27.2-201.3,234-201.3,234l108.8-16.3C1281.5,939.8,1390.4,858.2,1390.4,858.2z"/>
	<polygon fill="#A7DAF3" points="1198,1151 1248,1151 1248,1113.9 1198,1124.8 	"/>
</g>
</svg>
