<?xml version="1.0" encoding="utf-8"?>
<!-- Generator: Adobe Illustrator 18.1.0, SVG Export Plug-In . SVG Version: 6.00 Build 0)  -->
<svg version="1.1" id="Layer_1" xmlns="http://www.w3.org/2000/svg" xmlns:xlink="http://www.w3.org/1999/xlink" x="0px" y="0px"
	 viewBox="0 0 150 150" enable-background="new 0 0 150 150" xml:space="preserve">
<g>
	<path fill="#6DB4E5" d="M114.6,68.1c-19.5,0.2-37.2-6-50.3-12.5c11,5.6,19.2,8.1,19.2,8.1s4.8,1.4,1.5,8.8c-2.3,5.2-5.8,7.2-7.7,8
		c-0.4,1.3-1,1.9-1.3,1.2c0.1-0.3,0.1-0.6,0.2-0.9c-0.1,0-0.2,0-0.2,0s0.3-0.6,0.5-1.5c1.7-8.1-1.2-11.9-8.7-16.1
		c-3.2-1.8-6.4-4-9.1-6c-3.2-2.3-5.3-4.2-6.4-5.1c-5.1-4.3-9-8.4-11.1-10.7c-2.2-1.7-3.5-1.3-2.6,0.2c10.6,18.4,30.4,26.8,30.4,26.8
		c-0.9,6.5-2.7,11.4-5.1,15.2c0.3-0.3,0.6-0.5,0.8-0.7c1.9-1.3,8.4,1.5,8.5,3.6c1.9-1.8,2.8-3,2.8-2.9c-0.9,1.2-1.9,2.3-2.8,3.4
		c-0.1,0.2-0.2,0.3-0.3,0.4c-0.3,0.3-0.6,0.5-0.9,0.8c-12,11.3-27.7,8.6-30.1,8.1c-10.9-1.7-18.9-7.1-18.9-7.1
		c20.7,24.3,47,7.2,47.5,9.6c3.5,13.2-10.3,35.1-7.7,34.9c0.2-0.5,3.4-4,7.2-11c0,0,8.6-18.8,4.8-30.2c-1.5-4,13.8-5.8,13.8-1.8
		c0,0.7-0.2,2.1-0.8,4c3.8-11.7,4.2-20.4,4.4-20.8C105.4,74.1,122.8,68.5,114.6,68.1z"/>
	<path fill="#6DB4E5" d="M53.8,53.4c1.2,1,2.9,2.4,4.9,3.9c0.6,0.4,1.2,0.9,1.9,1.3C58.2,56.9,55.9,55.1,53.8,53.4z"/>
	<path fill="#6DB4E5" d="M82.4,53.4c-2.9-2.3-6.5-3-8.1-1.7c-1.5,1.4-0.4,4.3,2.5,6.6c2.9,2.3,6.5,3,8.1,1.7
		C86.4,58.6,85.3,55.6,82.4,53.4z"/>
	<path fill="#49A7E0" d="M41.6,96.3c16.4,2.3,27-5.3,31.7-9.7c-0.2-2.1-6.6-4.9-8.5-3.6c-0.2,0.1-0.4,0.4-0.8,0.7
		c-3.6,3.4-16.3,16-41.3,4.7c0,0-0.3-0.3,0.3,0.9c0,0,8,5.3,18.9,7.1C41.8,96.3,41.6,96.3,41.6,96.3z"/>
	<path fill="#49A7E0" d="M72.1,88.2c0.3-0.3,0.6-0.5,0.9-0.8c0.1-0.1,0.2-0.3,0.3-0.4C72.9,87.4,72.5,87.8,72.1,88.2z"/>
	<path fill="#49A7E0" d="M74.9,92.7c3.8,11.4-4.8,30.2-4.8,30.2c-3.8,7-6.9,10.4-7.2,11c-0.1,0.1,0.1,0.1,0.4-0.2
		c14.8-12.9,22.3-30.5,24.6-38.8c0.5-1.9,0.8-3.3,0.8-4C88.7,86.9,73.4,88.7,74.9,92.7z"/>
	<path fill="#49A7E0" d="M52.3,52.1c-0.2-0.2-0.3-0.3-0.4-0.4c0,0,0.7,0.7,2,1.7c2.1,1.7,4.4,3.5,6.8,5.2c2.5,1.6,5.4,3.4,8.8,5.1
		c9.1,4.4,9,13.2,7.8,16.8c1.9-0.8,5.3-2.8,7.7-8c3.3-7.4-1.5-8.8-1.5-8.8s-8.2-2.4-19.2-8.1c-7.5-3.8-16.3-9.1-24.7-16.1
		c0,0,0.6,0.7,1.7,2C43.4,43.7,47.2,47.8,52.3,52.1z"/>
	<path fill="#49A7E0" d="M75.9,80.9c0,0,0.1,0,0.2,0c0.1-0.5,0.2-1,0.3-1.5C76.2,80.3,75.9,80.9,75.9,80.9z"/>
	<path fill="#6DB4E5" d="M52.3,52.1c1.1,1,3.2,2.9,6.4,5.1c-2-1.5-3.7-2.9-4.9-3.9C53.3,53,52.8,52.5,52.3,52.1z"/>
	<linearGradient id="SVGID_1_" gradientUnits="userSpaceOnUse" x1="75.1186" y1="81.4026" x2="66.1719" y2="69.2036">
		<stop  offset="0" style="stop-color:#7DBBE7"/>
		<stop  offset="0.98" style="stop-color:#FFFFFE"/>
	</linearGradient>
	<path fill="url(#SVGID_1_)" d="M52.3,52.1c1.1,1,3.2,2.9,6.4,5.1c-2-1.5-3.7-2.9-4.9-3.9C53.3,53,52.8,52.5,52.3,52.1z"/>
	<path fill="#6DB4E5" d="M75.9,81.7c0.3,0.7,0.9,0.1,1.3-1.2c-0.5,0.2-0.9,0.3-1.1,0.4C76.1,81.1,76,81.4,75.9,81.7z"/>
	<linearGradient id="SVGID_2_" gradientUnits="userSpaceOnUse" x1="76.2248" y1="80.5913" x2="67.2781" y2="68.3924">
		<stop  offset="0" style="stop-color:#7DBBE7"/>
		<stop  offset="0.98" style="stop-color:#FFFFFE"/>
	</linearGradient>
	<path fill="url(#SVGID_2_)" d="M75.9,81.7c0.3,0.7,0.9,0.1,1.3-1.2c-0.5,0.2-0.9,0.3-1.1,0.4C76.1,81.1,76,81.4,75.9,81.7z"/>
	<path fill="#6DB4E5" d="M70.3,64.5c-3.4-1.8-6.6-3.8-9.7-5.9c-0.7-0.5-1.3-0.9-1.9-1.3c2.7,2,5.8,4.2,9.1,6
		c7.5,4.2,10.4,7.9,8.7,16.1C77.5,76.1,78.7,68.5,70.3,64.5z"/>
	<linearGradient id="SVGID_3_" gradientUnits="userSpaceOnUse" x1="78.6741" y1="78.795" x2="69.7274" y2="66.596">
		<stop  offset="0" style="stop-color:#7DBBE7"/>
		<stop  offset="0.98" style="stop-color:#FFFFFE"/>
	</linearGradient>
	<path fill="url(#SVGID_3_)" d="M70.3,64.5c-3.4-1.8-6.6-3.8-9.7-5.9c-0.7-0.5-1.3-0.9-1.9-1.3c2.7,2,5.8,4.2,9.1,6
		c7.5,4.2,10.4,7.9,8.7,16.1C77.5,76.1,78.7,68.5,70.3,64.5z"/>
	<path fill="#49A7E0" d="M69.4,63.7c-3.4-1.7-6.3-3.5-8.8-5.1c3,2.1,6.3,4.1,9.7,5.9c8.4,4,7.2,11.7,6.2,14.9
		c-0.1,0.5-0.2,1-0.3,1.5c0.2-0.1,0.6-0.2,1.1-0.4C78.4,76.9,78.6,68,69.4,63.7z"/>
	<linearGradient id="SVGID_4_" gradientUnits="userSpaceOnUse" x1="78.7375" y1="78.7485" x2="69.7908" y2="66.5495">
		<stop  offset="0" style="stop-color:#7DBBE7"/>
		<stop  offset="0.98" style="stop-color:#FFFFFE"/>
	</linearGradient>
	<path fill="url(#SVGID_4_)" d="M69.4,63.7c-3.4-1.7-6.3-3.5-8.8-5.1c3,2.1,6.3,4.1,9.7,5.9c8.4,4,7.2,11.7,6.2,14.9
		c-0.1,0.5-0.2,1-0.3,1.5c0.2-0.1,0.6-0.2,1.1-0.4C78.4,76.9,78.6,68,69.4,63.7z"/>
	<path fill="#49A7E0" d="M51.9,51.7c0.1,0.1,0.3,0.3,0.4,0.4c0.5,0.4,1,0.8,1.5,1.3C52.6,52.3,51.9,51.7,51.9,51.7z"/>
	<linearGradient id="SVGID_5_" gradientUnits="userSpaceOnUse" x1="74.4135" y1="81.9197" x2="65.4668" y2="69.7207">
		<stop  offset="0" style="stop-color:#7DBBE7"/>
		<stop  offset="0.98" style="stop-color:#FFFFFE"/>
	</linearGradient>
	<path fill="url(#SVGID_5_)" d="M51.9,51.7c0.1,0.1,0.3,0.3,0.4,0.4c0.5,0.4,1,0.8,1.5,1.3C52.6,52.3,51.9,51.7,51.9,51.7z"/>
	<path fill="#6DB4E5" d="M42,96.3c2.5,0.5,18.1,3.2,30.1-8.1C62,96.8,51,97.8,42,96.3z"/>
	<linearGradient id="SVGID_6_" gradientUnits="userSpaceOnUse" x1="69.8173" y1="76.5745" x2="57.2351" y2="92.0439">
		<stop  offset="0" style="stop-color:#7DBBE7"/>
		<stop  offset="0.98" style="stop-color:#FFFFFE"/>
	</linearGradient>
	<path fill="url(#SVGID_6_)" d="M42,96.3c2.5,0.5,18.1,3.2,30.1-8.1C62,96.8,51,97.8,42,96.3z"/>
	<path fill="#6DB4E5" d="M73.3,87c1-1,1.9-2.1,2.8-3.4c0.1-0.1-0.9,1.1-2.8,2.9C73.4,86.7,73.4,86.9,73.3,87z"/>
	<linearGradient id="SVGID_7_" gradientUnits="userSpaceOnUse" x1="76.9956" y1="82.413" x2="64.4134" y2="97.8824">
		<stop  offset="0" style="stop-color:#7DBBE7"/>
		<stop  offset="0.98" style="stop-color:#FFFFFE"/>
	</linearGradient>
	<path fill="url(#SVGID_7_)" d="M73.3,87c1-1,1.9-2.1,2.8-3.4c0.1-0.1-0.9,1.1-2.8,2.9C73.4,86.7,73.4,86.9,73.3,87z"/>
	<path fill="#49A7E0" d="M41.6,96.3c0,0,0.1,0,0.3,0.1c9,1.4,20,0.4,30.1-8.1c0.4-0.4,0.8-0.8,1.2-1.2c0.1-0.1,0.1-0.3,0.1-0.4
		C68.7,91,58,98.6,41.6,96.3z"/>
	<linearGradient id="SVGID_8_" gradientUnits="userSpaceOnUse" x1="69.7643" y1="76.5314" x2="57.1822" y2="92.0008">
		<stop  offset="0" style="stop-color:#7DBBE7"/>
		<stop  offset="0.98" style="stop-color:#FFFFFE"/>
	</linearGradient>
	<path fill="url(#SVGID_8_)" d="M41.6,96.3c0,0,0.1,0,0.3,0.1c9,1.4,20,0.4,30.1-8.1c0.4-0.4,0.8-0.8,1.2-1.2
		c0.1-0.1,0.1-0.3,0.1-0.4C68.7,91,58,98.6,41.6,96.3z"/>
	<path fill="#8BC4A1" d="M45.2,41.5c-1.7-5.2,0.6-10,0.6-10l-5.6,0.4C40.2,38.3,45.2,41.5,45.2,41.5z"/>
	<path fill="#8BC4A1" d="M49.8,30.5l5-2.4c0,0,0-6-5.6-9.6l-4.4,3.6C44.8,22.1,49.2,24.5,49.8,30.5z"/>
	<path fill="#6AB48A" d="M68,28.7c0.6,1.2,0.6-5.4,0.6-5.4s-5.6-0.6-8.8,2.4l-1.3,5.4C58.6,31.1,61.1,27.5,68,28.7z"/>
	<path fill="#8BC4A1" d="M78.7,27.5c0,0.6,5-4.2,5-4.2s-3.1-7.2-10.7-7.2l-3.8,4.8C71.1,20.9,76.1,21.5,78.7,27.5z"/>
	<path fill="#4FA979" d="M94.3,42.5c0.6,0.6,5-3.6,5-3.6s-6.9-1.2-8.8-7.2l-4.4,1.2C86.2,32.9,86.2,39.5,94.3,42.5z"/>
	<path fill="#8BC4A1" d="M116,44.9c-3,3-8.6-0.6-8.6-0.6l-2.6,3c6.9,4.2,11.2,1.2,11.2,1.2S118,44.9,116,44.9z"/>
	<path fill="#8BC4A1" d="M137.6,34.1c0,0-5.6,0.6-7.5,4.2l2.5,3.6c0,0,3.1-3.6,6.9-3.6L137.6,34.1z"/>
	<path fill="#EDEDED" d="M28.4,119.7l34.3,14.1L41.9,118C37.4,114.5,28.4,119.7,28.4,119.7z"/>
</g>
</svg>
