<?xml version="1.0" encoding="utf-8"?>
<!-- Generator: Adobe Illustrator 18.1.0, SVG Export Plug-In . SVG Version: 6.00 Build 0)  -->
<svg version="1.1" id="Layer_1" xmlns="http://www.w3.org/2000/svg" xmlns:xlink="http://www.w3.org/1999/xlink" x="0px" y="0px"
	 viewBox="0 0 2000 2000" enable-background="new 0 0 2000 2000" xml:space="preserve">
<g>
	<path fill="#02595F" d="M481.7,1550.9c-165,0-226.3-44.1-226.3-162.4c0-152.1,60.5-163,159.8-163c10.6,0,21.2,0.2,31.3,0.4
		c10.8,0.3,21.2,0.3,31.2,0.3l1170.1-8.5c-0.4-0.2-0.7-0.5-1.1-0.7c83.9-3.6,229.3-32.2,229.3-263.2c0-174.5-106.5-251.3-319-251.3
		l-1037.3,5.2c0,0.1,0,0.3,0,0.4c-117.2-1.6-161.4-35.2-161.4-121.9c0-114.5,45.3-122.8,120.2-122.8c8.1,0,15.9,0.2,23.7,0.4
		c8.1,0,16.1,0.3,23.5,0.3h989.8v-99H525.9c-7.1,0-14.4,0-21.9-0.2c-8.3,0-16.9-0.2-25.3-0.2c-59.9,0-219.1,0-219.1,221.5
		c0,146.6,90.6,221,269,221l701.7-0.1l325.5,1.4c147.6,0,202.7,39.3,202.7,145.3c0,136.4-54,146.2-143.2,146.2
		c-5.6,0-11.1-0.1-16.5-0.2c0.1-0.3,0.1-0.5,0.1-0.8l-1121.2-4c-9.3,0-19-0.3-29-0.3c-10.9-0.2-22.2-0.4-33.5-0.4
		c-79.5,0-291,0-291,294.2c0,194.9,120.2,293.6,357.4,293.6h1400v-131.4L481.7,1550.9z"/>
	<g>
		<rect x="466.8" y="499" fill="#51C8E7" width="1048.9" height="32.8"/>
		<rect x="466.8" y="567.5" fill="#51C8E7" width="1048.9" height="32.6"/>
		<rect x="466.8" y="640.2" fill="#51C8E7" width="1048.9" height="33"/>
		<polygon fill="#51C8E7" points="1593.3,371.1 1593.3,669.4 1851.7,520.3 		"/>
		<rect x="374.8" y="1022" fill="#51C8E7" width="1254.7" height="32.6"/>
		<rect x="374.8" y="940.2" fill="#51C8E7" width="1254.7" height="32.9"/>
		<rect x="374.8" y="853.6" fill="#51C8E7" width="1254.7" height="33"/>
		<rect x="399.4" y="1277.7" fill="#51C8E7" width="1400.2" height="33"/>
		<rect x="399.4" y="1369.1" fill="#51C8E7" width="1400.2" height="33"/>
		<rect x="399.4" y="1465.6" fill="#51C8E7" width="1400.2" height="32.9"/>
	</g>
</g>
</svg>
