<?xml version="1.0" encoding="iso-8859-1"?>
<!-- Generator: Adobe Illustrator 13.0.0, SVG Export Plug-In . SVG Version: 6.00 Build 14948)  -->
<!DOCTYPE svg PUBLIC "-//W3C//DTD SVG 1.1//EN" "http://www.w3.org/Graphics/SVG/1.1/DTD/svg11.dtd">
<svg version="1.1" id="Layer_1" xmlns="http://www.w3.org/2000/svg" xmlns:xlink="http://www.w3.org/1999/xlink" x="0px" y="0px"
	 width="100px" height="100px" viewBox="0 0 100 100" enable-background="new 0 0 100 100" xml:space="preserve">
<g>
	<polygon fill="none" points="48.995,39.637 40.352,17.801 48.981,39.629 	"/>
	<polygon fill="none" points="57.743,37.871 57.748,37.87 59.799,32.105 	"/>
	<polygon fill="none" points="18.647,36.754 18.66,36.761 24.392,26.302 	"/>
	<polygon fill="none" points="61.555,48.647 61.549,48.644 70.13,70.085 85.014,61.135 70.13,70.08 	"/>
	<polygon fill="none" points="16.486,22.022 24.392,26.302 16.493,22.021 	"/>
	<polygon fill="none" points="39.877,85.67 43.018,76.895 48.405,78.952 43.018,76.889 	"/>
	<polygon fill="none" points="85.014,61.135 80.229,58.585 80.229,58.59 	"/>
	<polygon fill="none" points="82.199,49.693 82.199,49.692 81.29,53.797 	"/>
	<polygon fill="none" points="69.803,42.52 67.169,51.623 67.179,51.628 	"/>
	
		<linearGradient id="SVGID_1_" gradientUnits="userSpaceOnUse" x1="-451.8848" y1="562.124" x2="-446.489" y2="562.124" gradientTransform="matrix(-10.7668 -10.7668 -10.7668 10.7668 1250.0659 -10832.6797)">
		<stop  offset="0" style="stop-color:#282F5D"/>
		<stop  offset="1" style="stop-color:#14151C"/>
	</linearGradient>
	<path fill="url(#SVGID_1_)" d="M60.453,81.279c2.203-1.201,4.396-2.456,6.515-3.784L54.255,45.492l-33.51,12.597l0.812,2.167
		c1.181,2.909,2.425,5.739,3.731,8.49c1.308,2.751,2.667,5.407,4.069,7.948c1.391,2.54,2.835,4.975,4.3,7.283
		c1.466,2.298,2.962,4.48,4.459,6.515c2.625-0.774,5.25-1.66,7.832-2.636c2.52-0.948,5.019-1.981,7.464-3.099
		C55.804,83.673,58.145,82.507,60.453,81.279z M29.853,65.32c-1.761,0-3.489-0.127-5.197-0.369c-0.738-1.676-1.465-3.368-2.15-5.06
		c0,0-0.232-0.611-0.453-1.207c1.739-0.658,29.927-11.247,31.634-11.896c0.2,0.506,1.285,3.268,2.772,6.994
		c-1.191,1.27-2.488,2.466-3.858,3.563c-0.559-0.27-1.032-0.485-1.297-0.617c0.475-1.318,2.941-8.191,2.941-8.191L28.588,58.885
		l2.445,6.415C30.632,65.31,30.242,65.32,29.853,65.32z M43.018,76.895l-3.141,8.775l-9.993-26.222l22.642-9.128l-2.487,6.936
		l9.656,4.57l-5.903,19.19l-5.386-2.064L43.018,76.895z"/>
	
		<linearGradient id="SVGID_2_" gradientUnits="userSpaceOnUse" x1="-451.8843" y1="560.2754" x2="-446.4878" y2="560.2754" gradientTransform="matrix(-10.7668 -10.7668 -10.7668 10.7668 1250.0659 -10832.6797)">
		<stop  offset="0" style="stop-color:#282F5D"/>
		<stop  offset="1" style="stop-color:#14151C"/>
	</linearGradient>
	<path fill="url(#SVGID_2_)" d="M80.049,38.314l-0.885-2.182l-22.59,8.485l12.532,31.497c1.982-1.296,3.838-2.609,5.577-3.927
		c1.687-1.28,3.268-2.577,4.743-3.873c1.444-1.255,2.794-2.52,4.026-3.769c1.224-1.228,2.341-2.451,3.363-3.664
		c-0.379-1.802-0.802-3.636-1.266-5.48c-0.474-1.851-0.99-3.722-1.559-5.608c-0.57-1.882-1.182-3.784-1.835-5.703
		C81.493,42.183,80.797,40.248,80.049,38.314z M60.474,48.655c-0.253,0.379-0.506,0.748-0.759,1.117
		c-0.97-2.425-1.654-4.153-1.823-4.569c0.548-0.201,2.752-1.028,5.533-2.071c-0.632,1.455-1.349,2.866-2.139,4.215
		c-0.98-0.526-1.697-0.906-1.697-0.906L60.474,48.655z M82.199,49.688v0.004v0.001l-0.909,4.104l-1.061,4.788l4.784,2.55
		l-14.884,8.95l-8.581-21.441l0.006,0.003l-0.006-0.014l5.62,2.989l2.634-9.104L82.199,49.688z"/>
	
		<linearGradient id="SVGID_3_" gradientUnits="userSpaceOnUse" x1="-451.8843" y1="561.2539" x2="-446.4887" y2="561.2539" gradientTransform="matrix(-10.7668 -10.7668 -10.7668 10.7668 1250.0659 -10832.6797)">
		<stop  offset="0" style="stop-color:#282F5D"/>
		<stop  offset="1" style="stop-color:#14151C"/>
	</linearGradient>
	<path fill="url(#SVGID_3_)" d="M53.159,42.72L40.91,11.845l-0.653,0.084c-2.351,0.38-4.712,0.822-7.052,1.344
		c-2.414,0.532-4.828,1.144-7.21,1.824c-2.456,0.711-4.87,1.492-7.263,2.335c-2.456,0.885-4.88,1.834-7.231,2.857
		c0.18,2.35,0.454,4.795,0.833,7.315c0.39,2.551,0.875,5.187,1.465,7.885c0.59,2.72,1.297,5.503,2.098,8.349
		c0.812,2.846,1.719,5.745,2.751,8.686l0.812,2.161L53.159,42.72z M18.647,36.754l5.745-10.452l-7.906-4.28l0.007-0.001
		l-0.007-0.004l23.865-4.217l8.643,21.836l-0.014-0.007l0.003,0.007l-6.515-3.536l-4.427,10.23l-19.386-9.566l0.002-0.004
		L18.647,36.754z M42.955,37.523c1.413,0.759,7.99,4.337,7.99,4.337l-9.95-25.204l-27.533,4.875c0,0,8.148,4.406,9.55,5.176
		c-0.822,1.497-5.766,10.488-5.766,10.488s20.123,9.93,20.271,10.003c-8.654,3.068-16.518,5.866-17.456,6.198
		c-0.232-0.59-0.454-1.207-0.454-1.207c-1.012-2.872-1.929-5.771-2.74-8.639c-0.78-2.783-1.487-5.571-2.066-8.28
		c-0.591-2.651-1.086-5.276-1.466-7.811c-0.326-2.224-0.568-4.401-0.759-6.509c2.119-0.906,4.291-1.771,6.494-2.562
		c2.361-0.843,4.785-1.623,7.21-2.319c2.35-0.675,4.754-1.276,7.136-1.813c2.276-0.501,4.574-0.933,6.851-1.297
		c0.548,1.371,10.857,27.376,11.564,29.157c-0.728,0.253-6.62,2.351-12.84,4.554C39.034,46.573,42.248,39.158,42.955,37.523z"/>
	
		<linearGradient id="SVGID_4_" gradientUnits="userSpaceOnUse" x1="-450.5225" y1="570.5684" x2="-445.125" y2="570.5684" gradientTransform="matrix(-5.295 -5.295 -5.295 5.295 708.8567 -5367.8408)">
		<stop  offset="0" style="stop-color:#79B652"/>
		<stop  offset="1" style="stop-color:#507942"/>
	</linearGradient>
	<path fill="url(#SVGID_4_)" d="M78.204,33.834l-0.886-2.183c-0.843-1.887-1.686-3.737-2.562-5.534
		c-0.864-1.792-1.76-3.542-2.667-5.25c-0.905-1.687-1.834-3.342-2.771-4.933c-0.938-1.592-1.887-3.137-2.846-4.628
		c-1.55-0.21-3.152-0.39-4.828-0.5c-1.708-0.111-3.479-0.185-5.323-0.19c-1.888,0-3.837,0.058-5.861,0.185
		c-2.077,0.126-4.227,0.327-6.44,0.601l-0.632,0.09l12.09,30.405L78.204,33.834z M44.81,12.346c1.93-0.227,3.849-0.416,5.714-0.532
		c1.897-0.121,3.773-0.179,5.576-0.179c0.085,0,0.147,0,0.222,0c1.791,0,3.552,0.063,5.26,0.19c0.18,0.011,0.358,0.032,0.538,0.042
		c0.812,1.518,1.507,3.1,2.087,4.733c-0.096,0.28-0.19,0.527-0.264,0.738c-1.624-1.086-8.001-5.344-8.001-5.344
		S50.598,25,50.217,25.928C47.519,19.134,45.231,13.395,44.81,12.346z M56.395,13.516l8.064,5.392l1.687-4.764l7.547,18.415
		l-15.949,5.323l0.005-0.012l-0.005,0.001l2.056-5.766l-8.854-5.297L56.395,13.516z M58.566,32.548
		c-0.422,1.17-2.467,6.946-2.467,6.946l9.444-3.151c-0.063,0.333-0.137,0.654-0.231,0.985c-4.385,1.561-8.496,3.02-9.244,3.284
		c-0.296-0.728-2.53-6.357-4.997-12.565C52.062,28.658,57.449,31.884,58.566,32.548z"/>
	<polygon fill="#FFFFFF" points="57.748,37.87 57.743,37.882 73.692,32.559 66.146,14.144 64.459,18.908 56.395,13.516 
		50.944,26.808 59.799,32.105 	"/>
	<polygon fill="#FFFFFF" points="69.803,42.52 67.179,51.628 67.169,51.623 61.549,48.634 61.555,48.647 70.13,70.08 85.014,61.135 
		80.229,58.59 80.229,58.585 81.29,53.797 82.199,49.692 82.199,49.688 	"/>
	<polygon fill="#FFFFFF" points="53.791,81.017 59.694,61.826 50.039,57.256 52.525,50.32 29.884,59.448 39.877,85.67 
		43.018,76.889 48.405,78.952 	"/>
	<polygon fill="#FFFFFF" points="38.043,46.331 42.47,36.101 48.984,39.637 48.981,39.629 40.352,17.801 16.486,22.018 
		16.493,22.021 24.392,26.302 18.66,36.761 18.657,36.765 	"/>
	
		<linearGradient id="SVGID_5_" gradientUnits="userSpaceOnUse" x1="-450.5215" y1="571.7051" x2="-445.1263" y2="571.7051" gradientTransform="matrix(-5.295 -5.295 -5.295 5.295 708.8567 -5367.8408)">
		<stop  offset="0" style="stop-color:#79B652"/>
		<stop  offset="1" style="stop-color:#507942"/>
	</linearGradient>
	<path fill="url(#SVGID_5_)" d="M65.312,37.328c0.095-0.332,0.168-0.653,0.231-0.985L56.1,39.494c0,0,2.045-5.776,2.467-6.946
		c-1.117-0.664-6.505-3.89-7.495-4.501c2.467,6.208,4.701,11.838,4.997,12.565C56.816,40.348,60.928,38.889,65.312,37.328z"/>
	
		<linearGradient id="SVGID_6_" gradientUnits="userSpaceOnUse" x1="-449.5977" y1="577.3916" x2="-444.2008" y2="577.3916" gradientTransform="matrix(-4.2143 -4.2143 -4.2143 4.2143 601.0494 -4287.8838)">
		<stop  offset="0" style="stop-color:#CCDB70"/>
		<stop  offset="1" style="stop-color:#85BA50"/>
	</linearGradient>
	<path fill="url(#SVGID_6_)" d="M65.312,37.328c0.095-0.332,0.168-0.653,0.231-0.985L56.1,39.494c0,0,2.045-5.776,2.467-6.946
		c-1.117-0.664-6.505-3.89-7.495-4.501c2.467,6.208,4.701,11.838,4.997,12.565C56.816,40.348,60.928,38.889,65.312,37.328z"/>
	
		<linearGradient id="SVGID_7_" gradientUnits="userSpaceOnUse" x1="-450.5225" y1="570.2939" x2="-445.1255" y2="570.2939" gradientTransform="matrix(-5.295 -5.295 -5.295 5.295 708.8567 -5367.8408)">
		<stop  offset="0" style="stop-color:#79B652"/>
		<stop  offset="1" style="stop-color:#507942"/>
	</linearGradient>
	<path fill="url(#SVGID_7_)" d="M63.942,17.337c0.073-0.21,0.168-0.458,0.264-0.738c-0.58-1.633-1.275-3.215-2.087-4.733
		c-0.18-0.01-0.358-0.031-0.538-0.042c-1.708-0.126-3.469-0.19-5.26-0.19c-0.074,0-0.137,0-0.222,0
		c-1.803,0-3.679,0.058-5.576,0.179c-1.865,0.116-3.784,0.306-5.714,0.532c0.422,1.049,2.709,6.789,5.408,13.582
		c0.38-0.927,5.724-13.935,5.724-13.935S62.318,16.251,63.942,17.337z"/>
	
		<linearGradient id="SVGID_8_" gradientUnits="userSpaceOnUse" x1="-449.5967" y1="575.6191" x2="-444.2007" y2="575.6191" gradientTransform="matrix(-4.2143 -4.2143 -4.2143 4.2143 601.0494 -4287.8838)">
		<stop  offset="0" style="stop-color:#CCDB70"/>
		<stop  offset="1" style="stop-color:#85BA50"/>
	</linearGradient>
	<path fill="url(#SVGID_8_)" d="M63.942,17.337c0.073-0.21,0.168-0.458,0.264-0.738c-0.58-1.633-1.275-3.215-2.087-4.733
		c-0.18-0.01-0.358-0.031-0.538-0.042c-1.708-0.126-3.469-0.19-5.26-0.19c-0.074,0-0.137,0-0.222,0
		c-1.803,0-3.679,0.058-5.576,0.179c-1.865,0.116-3.784,0.306-5.714,0.532c0.422,1.049,2.709,6.789,5.408,13.582
		c0.38-0.927,5.724-13.935,5.724-13.935S62.318,16.251,63.942,17.337z"/>
	
		<linearGradient id="SVGID_9_" gradientUnits="userSpaceOnUse" x1="-451.8848" y1="560.4092" x2="-446.4878" y2="560.4092" gradientTransform="matrix(-10.7668 -10.7668 -10.7668 10.7668 1250.0659 -10832.6797)">
		<stop  offset="0" style="stop-color:#282F5D"/>
		<stop  offset="1" style="stop-color:#14151C"/>
	</linearGradient>
	<path fill="url(#SVGID_9_)" d="M61.286,47.347c0.79-1.349,1.507-2.761,2.139-4.215c-2.781,1.043-4.985,1.87-5.533,2.071
		c0.169,0.416,0.854,2.145,1.823,4.569c0.253-0.369,0.506-0.738,0.759-1.117l-0.885-2.213
		C59.589,46.441,60.306,46.821,61.286,47.347z"/>
	
		<linearGradient id="SVGID_10_" gradientUnits="userSpaceOnUse" x1="-450.4302" y1="565.9883" x2="-445.0396" y2="565.9883" gradientTransform="matrix(-7.109 -7.1091 -7.1091 7.1091 884.2393 -7178.2627)">
		<stop  offset="0" style="stop-color:#5F637E"/>
		<stop  offset="0.9888" style="stop-color:#161838"/>
		<stop  offset="1" style="stop-color:#161838"/>
	</linearGradient>
	<path fill="url(#SVGID_10_)" d="M61.286,47.347c0.79-1.349,1.507-2.761,2.139-4.215c-2.781,1.043-4.985,1.87-5.533,2.071
		c0.169,0.416,0.854,2.145,1.823,4.569c0.253-0.369,0.506-0.738,0.759-1.117l-0.885-2.213
		C59.589,46.441,60.306,46.821,61.286,47.347z"/>
	
		<linearGradient id="SVGID_11_" gradientUnits="userSpaceOnUse" x1="-451.8843" y1="561.252" x2="-446.4886" y2="561.252" gradientTransform="matrix(-10.7668 -10.7668 -10.7668 10.7668 1250.0659 -10832.6797)">
		<stop  offset="0" style="stop-color:#282F5D"/>
		<stop  offset="1" style="stop-color:#14151C"/>
	</linearGradient>
	<path fill="url(#SVGID_11_)" d="M51.831,42.119c-0.707-1.781-11.017-27.786-11.564-29.157c-2.277,0.364-4.575,0.796-6.851,1.297
		c-2.382,0.537-4.786,1.138-7.136,1.813c-2.425,0.696-4.85,1.476-7.21,2.319c-2.203,0.791-4.375,1.655-6.494,2.562
		c0.19,2.108,0.433,4.285,0.759,6.509c0.38,2.535,0.875,5.16,1.466,7.811c0.579,2.708,1.286,5.497,2.066,8.28
		c0.812,2.868,1.729,5.767,2.74,8.639c0,0,0.222,0.617,0.454,1.207c0.938-0.332,8.802-3.13,17.456-6.198
		c-0.147-0.074-20.271-10.003-20.271-10.003s4.944-8.992,5.766-10.488c-1.401-0.77-9.55-5.176-9.55-5.176l27.533-4.875l9.95,25.204
		c0,0-6.577-3.578-7.99-4.337c-0.707,1.634-3.921,9.049-3.963,9.15C45.211,44.47,51.104,42.372,51.831,42.119z"/>
	
		<linearGradient id="SVGID_12_" gradientUnits="userSpaceOnUse" x1="-450.4307" y1="567.2637" x2="-445.0325" y2="567.2637" gradientTransform="matrix(-7.109 -7.1091 -7.1091 7.1091 884.2393 -7178.2627)">
		<stop  offset="0" style="stop-color:#5F637E"/>
		<stop  offset="0.9888" style="stop-color:#161838"/>
		<stop  offset="1" style="stop-color:#161838"/>
	</linearGradient>
	<path fill="url(#SVGID_12_)" d="M51.831,42.119c-0.707-1.781-11.017-27.786-11.564-29.157c-2.277,0.364-4.575,0.796-6.851,1.297
		c-2.382,0.537-4.786,1.138-7.136,1.813c-2.425,0.696-4.85,1.476-7.21,2.319c-2.203,0.791-4.375,1.655-6.494,2.562
		c0.19,2.108,0.433,4.285,0.759,6.509c0.38,2.535,0.875,5.16,1.466,7.811c0.579,2.708,1.286,5.497,2.066,8.28
		c0.812,2.868,1.729,5.767,2.74,8.639c0,0,0.222,0.617,0.454,1.207c0.938-0.332,8.802-3.13,17.456-6.198
		c-0.147-0.074-20.271-10.003-20.271-10.003s4.944-8.992,5.766-10.488c-1.401-0.77-9.55-5.176-9.55-5.176l27.533-4.875l9.95,25.204
		c0,0-6.577-3.578-7.99-4.337c-0.707,1.634-3.921,9.049-3.963,9.15C45.211,44.47,51.104,42.372,51.831,42.119z"/>
	
		<linearGradient id="SVGID_13_" gradientUnits="userSpaceOnUse" x1="-451.8848" y1="561.8867" x2="-446.4879" y2="561.8867" gradientTransform="matrix(-10.7668 -10.7668 -10.7668 10.7668 1250.0659 -10832.6797)">
		<stop  offset="0" style="stop-color:#282F5D"/>
		<stop  offset="1" style="stop-color:#14151C"/>
	</linearGradient>
	<path fill="url(#SVGID_13_)" d="M54.244,48.539c0,0-2.467,6.873-2.941,8.191c0.265,0.132,0.738,0.348,1.297,0.617
		c1.37-1.098,2.667-2.294,3.858-3.563c-1.487-3.726-2.572-6.488-2.772-6.994c-1.707,0.648-29.895,11.237-31.634,11.896
		c0.221,0.596,0.453,1.207,0.453,1.207c0.686,1.691,1.413,3.384,2.15,5.06c1.708,0.242,3.437,0.369,5.197,0.369
		c0.39,0,0.779-0.011,1.181-0.021l-2.445-6.415L54.244,48.539z"/>
	
		<linearGradient id="SVGID_14_" gradientUnits="userSpaceOnUse" x1="-450.4302" y1="568.2266" x2="-445.0335" y2="568.2266" gradientTransform="matrix(-7.109 -7.1091 -7.1091 7.1091 884.2393 -7178.2627)">
		<stop  offset="0" style="stop-color:#5F637E"/>
		<stop  offset="0.9888" style="stop-color:#161838"/>
		<stop  offset="1" style="stop-color:#161838"/>
	</linearGradient>
	<path fill="url(#SVGID_14_)" d="M54.244,48.539c0,0-2.467,6.873-2.941,8.191c0.265,0.132,0.738,0.348,1.297,0.617
		c1.37-1.098,2.667-2.294,3.858-3.563c-1.487-3.726-2.572-6.488-2.772-6.994c-1.707,0.648-29.895,11.237-31.634,11.896
		c0.221,0.596,0.453,1.207,0.453,1.207c0.686,1.691,1.413,3.384,2.15,5.06c1.708,0.242,3.437,0.369,5.197,0.369
		c0.39,0,0.779-0.011,1.181-0.021l-2.445-6.415L54.244,48.539z"/>
</g>
</svg>
