<?xml version="1.0" encoding="utf-8"?>
<!-- Generator: Adobe Illustrator 18.1.0, SVG Export Plug-In . SVG Version: 6.00 Build 0)  -->
<svg version="1.1" id="Layer_1" xmlns="http://www.w3.org/2000/svg" xmlns:xlink="http://www.w3.org/1999/xlink" x="0px" y="0px"
	 viewBox="0 0 1500 1500" enable-background="new 0 0 1500 1500" xml:space="preserve">
<g>
	<g>
		<path fill="#0065A2" d="M703.5,1150c-47.7-0.6-83.4-18-106.3-51.8c-11.6-17.3-16.9-34.6-19.1-44.3
			C608.1,1054.7,686,1065.1,703.5,1150"/>
		<path fill="#B76E29" d="M544.7,1109c-38.2-22.3-58.8-53-61.4-91.3c-1.4-20.5,2.9-38.2,6.1-48c9.3,5.7,25.1,16.9,38.3,33.4
			C552.5,1034,558.3,1069.7,544.7,1109"/>
		<path fill="#0065A2" d="M620.8,1234.1c-29.2,0-53.7-7.7-66.3-12.6c15.2-13.8,54.4-43.6,108.8-43.6c21,0,42.5,4.4,63.8,13.2
			C697,1219.6,661.3,1234.1,620.8,1234.1"/>
		<path fill="#B76E29" d="M496.8,1196.9c-32.2,0-59.2-10.9-72.2-17.2c14-12.7,50.3-40.7,99.7-40.7c22.8,0,46,5.9,69,17.7
			C565.2,1183.4,532.8,1196.9,496.8,1196.9"/>
		<path fill="#0065A2" d="M395.4,1141c-46,0-81-24.1-95.1-35.7c13.4-7.5,42.9-21.1,78.3-21.1c33.3,0,64,11.9,91.6,35.4
			C445.7,1133.8,420.6,1141,395.4,1141"/>
		<path fill="#B76E29" d="M310,1053.9c-58.9,0-96.4-38-109.6-54c11-3.6,31.2-9.1,55.1-9.1c44.1,0,80.6,17.9,108.5,53.3
			C345.5,1050.7,327.4,1053.9,310,1053.9"/>
		<path fill="#0065A2" d="M241.4,955.9c-37.7,0-70-13.3-96.2-39.7c-12.3-12.4-20.4-24.9-24.7-32.7c6.8-1.2,17-2.4,29-2.4
			c39.7,0,92.5,12.7,123.6,71.7C262.2,954.8,251.7,955.9,241.4,955.9"/>
		<path fill="#B76E29" d="M319.2,967.1c-24.9-37.1-28.9-74.8-11.6-111.9c9.2-19.9,22.7-34.9,30.6-42.6c5.9,9.1,15.4,26.4,19.6,47.8
			C365.4,900,352.5,935.9,319.2,967.1"/>
		<path fill="#0065A2" d="M411.2,1046.8c-29.3-34.7-37.8-71.9-25.3-111c6.7-21,18.2-37.3,25.2-45.9c7,8.6,18.5,24.9,25.2,45.9
			C449,974.8,440.5,1012,411.2,1046.8"/>
		<path fill="#0065A2" d="M242.1,858.8c-23.1-38.4-25.3-76.4-6.3-113.2c10.2-19.9,24.3-34.4,32.6-41.9c5.4,9.4,14.1,27.2,17.2,48.9
			C291.5,792.9,276.9,828.5,242.1,858.8"/>
		<path fill="#B76E29" d="M214.9,863.4c-48.7-0.8-86.4-18.5-112-52.5c-13.2-17.5-19.8-35.2-22.7-45.3c13.9,0.5,40.3,3.2,66.7,15.5
			C181.7,797.4,204.5,825.1,214.9,863.4"/>
		<path fill="#0065A2" d="M165.1,770.7c-45-15.8-73.6-43.9-84.9-83.4c-6.1-21.1-5.5-40.2-4.5-50.7c10.9,4.1,29.9,12.6,47.7,27.3
			C156.3,691.3,170.3,727.2,165.1,770.7"/>
		<path fill="#B76E29" d="M184.4,721.1c-12.6-42.5-4.7-80,23.5-111.7c15.1-16.9,32.3-27.8,42.2-33.4c2.8,10.4,6.6,29.5,4,51.3
			C249.4,667.8,225.9,699.3,184.4,721.1"/>
		<path fill="#B76E29" d="M130.8,645.8c-36.6-28.3-53.5-63.2-50.2-103.7c1.8-21.9,9.3-40.1,14.1-49.8c8.8,7.1,23.8,20.9,35.2,40.1
			C151.2,568.2,151.5,606.4,130.8,645.8"/>
		<path fill="#0065A2" d="M141.1,505.2c-29.8-34.6-38.6-72-26.3-111.3c6.6-20.9,17.8-37.1,24.6-45.7c7,8.5,18.7,24.8,25.7,45.7
			C178.1,432.8,170,470.3,141.1,505.2"/>
		<path fill="#0065A2" d="M173.5,572.3c-5.4-45,9.4-81.2,43.9-107.9c19-14.7,39.3-22.5,50.5-26.2c1,10.7,1.6,30.9-5.1,52.7
			C250.5,530.6,220.5,558,173.5,572.3"/>
		<path fill="#B76E29" d="M202.3,445.6c-2.6-45.6,14.8-80.2,51.8-103.1c20.6-12.7,42.2-18.4,53.7-20.7c0.4,10.6-0.3,31.3-8.7,52.5
			C283.9,412.8,251.4,436.7,202.3,445.6"/>
	</g>
	<g>
		<path fill="#0065A2" d="M826.1,1150c47.7-0.6,83.4-18,106.3-51.8c11.6-17.3,16.9-34.6,19.1-44.3
			C921.5,1054.7,843.6,1065.1,826.1,1150"/>
		<path fill="#B76E29" d="M984.9,1109c38.2-22.3,58.8-53,61.4-91.3c1.4-20.5-2.9-38.2-6.1-48c-9.3,5.7-25.1,16.9-38.3,33.4
			C977,1034,971.3,1069.7,984.9,1109"/>
		<path fill="#0065A2" d="M908.8,1234.1c29.2,0,53.7-7.7,66.3-12.6c-15.2-13.8-54.4-43.6-108.8-43.6c-21,0-42.5,4.4-63.8,13.2
			C832.6,1219.6,868.3,1234.1,908.8,1234.1"/>
		<path fill="#B76E29" d="M1032.8,1196.9c32.2,0,59.2-10.9,72.2-17.2c-14-12.7-50.3-40.7-99.7-40.7c-22.8,0-46,5.9-69,17.7
			C964.3,1183.4,996.8,1196.9,1032.8,1196.9"/>
		<path fill="#0065A2" d="M1134.1,1141c46,0,81-24.1,95.1-35.7c-13.4-7.5-42.9-21.1-78.3-21.1c-33.3,0-64,11.9-91.6,35.4
			C1083.9,1133.8,1109,1141,1134.1,1141"/>
		<path fill="#B76E29" d="M1219.6,1053.9c58.9,0,96.4-38,109.6-54c-11-3.6-31.2-9.1-55.1-9.1c-44.1,0-80.6,17.9-108.5,53.3
			C1184,1050.7,1202.2,1053.9,1219.6,1053.9"/>
		<path fill="#0065A2" d="M1288.2,955.9c37.7,0,70-13.3,96.2-39.7c12.3-12.4,20.4-24.9,24.7-32.7c-6.8-1.2-17-2.4-29-2.4
			c-39.7,0-92.5,12.7-123.6,71.7C1267.4,954.8,1277.9,955.9,1288.2,955.9"/>
		<path fill="#B76E29" d="M1210.4,967.1c24.9-37.1,28.9-74.8,11.6-111.9c-9.2-19.9-22.7-34.9-30.6-42.6
			c-5.9,9.1-15.4,26.4-19.6,47.8C1164.1,900,1177.1,935.9,1210.4,967.1"/>
		<path fill="#0065A2" d="M1118.3,1046.8c29.3-34.7,37.8-71.9,25.3-111c-6.7-21-18.2-37.3-25.2-45.9c-7,8.6-18.5,24.9-25.2,45.9
			C1080.6,974.8,1089.1,1012,1118.3,1046.8"/>
		<path fill="#0065A2" d="M1287.4,858.8c23.1-38.4,25.3-76.4,6.3-113.2c-10.2-19.9-24.3-34.4-32.6-41.9
			c-5.4,9.4-14.1,27.2-17.2,48.9C1238.1,792.9,1252.7,828.5,1287.4,858.8"/>
		<path fill="#B76E29" d="M1314.6,863.4c48.7-0.8,86.4-18.5,112-52.5c13.2-17.5,19.8-35.2,22.7-45.3c-13.9,0.5-40.3,3.2-66.7,15.5
			C1347.9,797.4,1325.1,825.1,1314.6,863.4"/>
		<path fill="#0065A2" d="M1364.5,770.7c45-15.8,73.6-43.9,84.9-83.4c6.1-21.1,5.5-40.2,4.5-50.7c-10.9,4.1-29.9,12.6-47.7,27.3
			C1373.3,691.3,1359.3,727.2,1364.5,770.7"/>
		<path fill="#B76E29" d="M1345.2,721.1c12.6-42.5,4.7-80-23.5-111.7c-15.1-16.9-32.3-27.8-42.2-33.4c-2.8,10.4-6.6,29.5-4,51.3
			C1280.2,667.8,1303.7,699.3,1345.2,721.1"/>
		<path fill="#B76E29" d="M1398.8,645.8c36.6-28.3,53.5-63.2,50.2-103.7c-1.8-21.9-9.3-40.1-14.1-49.8c-8.8,7.1-23.8,20.9-35.2,40.1
			C1378.4,568.2,1378.1,606.4,1398.8,645.8"/>
		<path fill="#0065A2" d="M1388.4,505.2c29.8-34.6,38.6-72,26.3-111.3c-6.6-20.9-17.8-37.1-24.6-45.7c-7,8.5-18.7,24.8-25.7,45.7
			C1351.5,432.8,1359.5,470.3,1388.4,505.2"/>
		<path fill="#0065A2" d="M1356.1,572.3c5.4-45-9.4-81.2-43.9-107.9c-19-14.7-39.3-22.5-50.5-26.2c-1,10.7-1.6,30.9,5.1,52.7
			C1279,530.6,1309.1,558,1356.1,572.3"/>
		<path fill="#B76E29" d="M1327.3,445.6c2.6-45.6-14.8-80.2-51.8-103.1c-20.6-12.7-42.2-18.4-53.7-20.7c-0.4,10.6,0.3,31.3,8.7,52.5
			C1245.6,412.8,1278.1,436.7,1327.3,445.6"/>
	</g>
	<g>
		<g>
			<path fill="#0065A2" d="M606.3,680.8h12c-3.2,105.2-18.9,185.2-37.9,185.2c-21.2,0-38.5-100.4-38.5-224.2
				c0-123.9,17.2-224.3,38.5-224.3c19,0,34.7,80,37.9,185.3h-12c-3-67.1-13.4-116.7-25.9-116.7c-14.8,0-26.7,69.7-26.7,155.7
				c0,86,11.9,155.7,26.7,155.7C592.9,797.6,603.4,748,606.3,680.8z"/>
			<g>
				<path fill="#0065A2" d="M530,641.9c0-109,13-200.2,30.5-223.8c-14.9-0.3-31.1-0.5-48.6-0.5c-21.3,0-38.5,100.4-38.5,224.3
					c0,123.8,17.2,224.2,38.5,224.2c17.5,0,33.7-0.2,48.6-0.5C543.1,842,530,750.8,530,641.9z"/>
			</g>
			<g>
				<path fill="#0065A2" d="M461,641.9c0-57.1,3.7-109.2,9.7-148.8c-16.7,0-29.7,0-33.2,0c-14.1,0-25.5,66.6-25.5,148.8
					c0,82.2,11.4,148.8,25.5,148.8c3.5,0,16.5,0,33.2,0C464.6,751.1,461,698.9,461,641.9z"/>
			</g>
			<g>
				<path fill="#0065A2" d="M403,641.9c0-28.7,1.8-54.8,4.9-74.7c-8.4,0-14.9,0-16.7,0c-7.1,0-12.8,33.4-12.8,74.7
					c0,41.2,5.7,74.6,12.8,74.6c1.8,0,8.3,0,16.7,0C404.8,696.7,403,670.5,403,641.9z"/>
			</g>
		</g>
		<g>
			<path fill="#0065A2" d="M947.5,602.8h-12c3.2-105.2,18.9-185.2,37.9-185.2c21.2,0,38.5,100.4,38.5,224.3
				c0,123.8-17.2,224.2-38.5,224.2c-19,0-34.7-80-37.9-185.3h12c3,67.2,13.4,116.7,25.9,116.7c14.7,0,26.7-69.7,26.7-155.7
				c0-86-11.9-155.7-26.7-155.7C960.9,486.1,950.4,535.7,947.5,602.8z"/>
			<g>
				<path fill="#0065A2" d="M1023.8,641.9c0,109-13,200.2-30.5,223.7c14.9,0.3,31.1,0.5,48.6,0.5c21.3,0,38.5-100.4,38.5-224.2
					c0-123.9-17.2-224.3-38.5-224.3c-17.5,0-33.7,0.1-48.6,0.5C1010.7,441.7,1023.8,532.9,1023.8,641.9z"/>
			</g>
			<g>
				<path fill="#0065A2" d="M1092.8,641.9c0,57.1-3.7,109.2-9.7,148.8c16.7,0,29.7,0,33.2,0c14.1,0,25.5-66.6,25.5-148.8
					c0-82.2-11.4-148.8-25.5-148.8c-3.5,0-16.5,0-33.2,0C1089.2,532.6,1092.8,584.7,1092.8,641.9z"/>
			</g>
			<g>
				<path fill="#0065A2" d="M1150.8,641.9c0,28.6-1.8,54.8-4.9,74.6c8.4,0,14.9,0,16.7,0c7.1,0,12.8-33.4,12.8-74.6
					c0-41.3-5.7-74.7-12.8-74.7c-1.8,0-8.3,0-16.7,0C1149,587,1150.8,613.2,1150.8,641.9z"/>
			</g>
		</g>
		<path fill="#0065A2" d="M971.3,641.9c0,16.9-13.7,30.7-30.7,30.7H604.7c-27.5,0-29.1-61.4,0-61.4h335.9
			C957.5,611.2,971.3,624.9,971.3,641.9L971.3,641.9z"/>
	</g>
</g>
</svg>
