<?xml version="1.0" encoding="utf-8"?>
<!-- Generator: Adobe Illustrator 18.1.0, SVG Export Plug-In . SVG Version: 6.00 Build 0)  -->
<svg version="1.1" id="Layer_1" xmlns="http://www.w3.org/2000/svg" xmlns:xlink="http://www.w3.org/1999/xlink" x="0px" y="0px"
	 viewBox="0 0 150 150" enable-background="new 0 0 150 150" xml:space="preserve">
<g>
	<circle fill="#E7CF1C" cx="77.5" cy="86.9" r="42.6"/>
	<g>
		<path fill="#7A6610" d="M83,50.6c0-0.3-1-2.6-1.9-4.6c1.1,0,2.9-0.1,2.9-2.2c0,0,3.2-1.8,2.7-5.4c-0.4-3.2-5.2-5-7.1-2.4
			c-0.2-1.1-2.3-2.2-4.6,0.1c0,0-5-4.5-8.6,1.8c0.4,0.5-7.2-0.9-5.4,6.3c0.9,0-4.5,1.4-3.2,5.4c1.4,4.1,5.9,4.1,7.7,1.4
			c0-0.2,0.9,0.4,2.1,0.8c-0.6,3.8-2.9,9.8-11.1,12.7c-9.3,3.3,5.1,16.6,11.3-4.5c0.5,1.9,2.1,3.8,5.1,5.4c0,0.4,0,4.8,0,8.6
			c0,0-0.4,0.9-0.8,2.3c-1.5,0.8-4,2.8-2.7,6.7c-0.6-0.1-2.3,1.4-1.2,3.2c-0.8-0.4-4,4-1.2,7.9c-0.1,0.3-0.2,0.5-0.2,0.7
			c-0.9,3.2,2.3,3.6,1.3,4.1c0.4,1,1,1.7,1.6,2.2c-1.1,5.1-4.1,13.7-11.5,15.9c0,0-10.3,2.9-10.4,13l-6.3-6.3c0,0,3.2,0.5,3.2-2.7
			c0-3.2-3.2-1.8-3.2-1.8s-1.8-2.7-4.5-0.9c-2.7,1.8-0.9,2.7-0.9,2.7s-2.3,0.5-0.9,4.1c1.4,3.6,5.4,1.8,4.5-0.5l8.1,5.6
			c0,0.4-0.2,0.7-0.1,1.1c1.4,7.7,5.2,6.3,5.2,6.3v3.4h23.4c0,0-2.3-4.6-9-4.6c0.9,0,9.5-2.8,6.8-14.5c-0.3,0.3,3.7-10,6.7-17.6
			c0.9-0.2,1.7-0.4,2.3,0c0.4,0,0.7-0.1,1-0.1L80.9,140c0,0,6.8,1,6.8,0c0-3-2.6-3.8-2.6-3.8v-32c5-0.6,4.5-5.4,4.5-5.4
			c6.3,0,4.9-7.2,4.5-7.2c2.3-2.7,0.9-6.3-0.5-5.4c2.3-5.4-4.1-6.3-3.6-6.3c0-5.9-7.8-5-6.9-4.1c-1.7-2.8-4-2.8-6-2.4v-6.6
			c0,0,23.3,2.2,24.4-23.1C100.6,45.2,94.1,51,83,50.6z"/>
		<path fill="#7A6610" d="M101.6,43.7c0.1-0.2,0.1-0.3,0-0.3C101.6,43.5,101.6,43.6,101.6,43.7z"/>
		<ellipse fill="#7A6610" cx="100.9" cy="39.8" rx="2" ry="3.6"/>
	</g>
	<g>
		<path fill="#D0AA2B" d="M68.4,33.3C61.8,23.6,61,18.9,57.8,6.4c0.9,0,1.7-0.8,1.7-1.7c0-1-0.8-1.7-1.7-1.7c-1,0-1.8,0.8-1.8,1.7
			c0,1,0.8,1.7,1.8,1.7c0,0,0,0,0,0c0.1,10.3,4,21.5,3.3,21.2c-4-1.3-15.8-16.4-15.4-15.4C51,19.5,58,32.6,56,30.9
			c-6.3-3-13-5.1-16.4-6c0-0.1,0-0.1,0-0.2c0-1-0.8-1.7-1.7-1.7c-1,0-1.7,0.8-1.7,1.7c0,1,0.8,1.7,1.7,1.7c0.7,0,1.3-0.4,1.6-1.1
			C53.6,31.4,59,39,59,39l5-3C64.4,33.3,69.1,33.3,68.4,33.3z"/>
		<circle fill="#D0AA2B" cx="44.3" cy="10.5" r="1.8"/>
	</g>
</g>
</svg>
