<?xml version="1.0" encoding="utf-8"?>
<!-- Generator: Adobe Illustrator 18.1.0, SVG Export Plug-In . SVG Version: 6.00 Build 0)  -->
<svg version="1.0" id="Layer_1" xmlns="http://www.w3.org/2000/svg" xmlns:xlink="http://www.w3.org/1999/xlink" x="0px" y="0px"
	 viewBox="0 0 150 150" enable-background="new 0 0 150 150" xml:space="preserve">
<g>
	<path fill="#7A7A7A" d="M69.1,89.8C56.3,69.1,54,47.4,63.9,41.2c0.6-0.4,1.3-0.7,2-1c-3.6-0.6-6.8-0.2-9.5,1.5
		c-10.4,6.5-8.2,28.9,5,50.2c13.2,21.2,32.3,33.2,42.7,26.8c0.6-0.3,1.1-0.7,1.5-1.2C95.3,118.7,80.1,107.5,69.1,89.8"/>
	<path fill="#7A7A7A" d="M62.5,93.7c-0.8,0-1.5,0-2.3,0c-5.6,0-11-0.1-15.9-0.2l-2.2-0.1l-0.3,2.2c-0.5,4.1-4,7.1-8.1,7.1
		c-4.5,0-8.2-3.6-8.2-8.1v-2.3L23.3,92c-10.2-1.2-12.3-2.9-12.6-3.2c-0.3-0.9-1-4.1,0.5-7.1c1.3-2.5,3.9-4.3,7.8-5.4l30.7-4.3
		l0.5-0.4c0,0,0.6-0.5,1.6-1.1c-0.5-1.8-0.9-3.5-1.2-5.2c-1.4,0.9-2.4,1.6-3,2l-29.5,4.2l-0.3,0.1c-5.4,1.5-9.1,4.2-11.1,8
		C3.9,84.9,6,90.5,6.1,90.7L6.2,91c1,1.9,3.6,4.1,14.5,5.6c1,6.2,6.5,11,13,11c5.8,0,10.9-3.8,12.5-9.2c4.4,0.1,9.1,0.2,14,0.2
		c2,0,4,0,5.7,0C64.8,97,63.6,95.4,62.5,93.7"/>
	<path fill="#80C242" d="M74.2,16.7c-24.1,93.2,28.7,75.5,45,111.7c10.8-28.6-14.2-49-29.9-68c53.1,29.3,45.4,53.9,41.1,70.6
		C180.1,56,85.2,64.3,74.2,16.7z"/>
</g>
</svg>
