<?xml version="1.0" encoding="utf-8"?>
<!-- Generator: Adobe Illustrator 18.1.0, SVG Export Plug-In . SVG Version: 6.00 Build 0)  -->
<svg version="1.1" id="Layer_1" xmlns="http://www.w3.org/2000/svg" xmlns:xlink="http://www.w3.org/1999/xlink" x="0px" y="0px"
	 viewBox="0 0 150 150" enable-background="new 0 0 150 150" xml:space="preserve">
<g>
	<path fill="#FA8A3B" d="M100.6,93c-5.3,0-47.1,0-52.4,0c-1.9,8-8.8,15-17.5,16.3c10.3,13.7,26.7,22.5,45.2,22.5
		c18.4,0,34.7-8.6,45-22.2C111,109.4,102.7,102,100.6,93z M56.4,117.1c-1.6,0.6-3.1,0.5-4.3-0.4c-0.3-0.2-0.4-0.5-0.4-1
		c0-0.4-0.1-0.8-0.3-0.9c0.1-0.2,0.2-0.4,0.2-0.7c0-0.2-0.1-0.4-0.2-0.5c0.1-0.2,0.2-0.5,0.2-0.9c0.2-0.5,0.5-1.1,1.2-1.8
		c0.2-0.2,0.7-0.7,1.7-1.7c0,0,0.1,0,0.1,0l0-0.2c0.3-0.1,0.5-0.2,0.6-0.4c-1.1,0-1.9-0.1-2.4-0.3c-0.2-0.1-0.3-0.4-0.4-0.7
		c-0.1-0.3-0.2-0.6-0.4-0.7c-0.2-0.2-0.1-0.4,0.1-0.6c0.1-0.1,0.1-0.1,0.2-0.2c-0.1-0.1-0.2-0.3-0.3-0.3c-0.2-0.2-0.1-0.4,0.1-0.6
		c0.2-0.3,0.3-0.4,0.3-0.6c0.2-0.3,0.4-0.7,0.6-1.3c0,0,0.1,0,0.1,0c0.1,0,0.1,0,0.1,0c0,0,0.2-0.2,0.6-0.4c0.3-0.2,0.5-0.3,0.7-0.3
		c0.1,0,0.3-0.2,0.5-0.5c0.2-0.2,0.4-0.3,0.6-0.2c0.1,0,0.3-0.1,0.6-0.4c0.2-0.2,0.4-0.2,0.6-0.1c0.3,0,0.8-0.1,1.5-0.2
		c0.2,0.1,0.6,0.1,1.2,0.2c0.5,0.1,0.9,0.2,1.1,0.4c0.2,0.2,0.3,0.4,0.4,0.7l0.3,1.7c0,0.1-0.1,0.2-0.1,0.3l0.1,0.9
		c-0.2,0.5-0.6,1-1,1.5c-0.5,0.5-0.9,0.9-1.3,1c-0.3,0.3-0.8,0.5-1.3,0.6c-0.1,0-0.2,0-0.3,0.1c0.7,0.1,1.2,0.4,1.6,0.7
		c0.4,0.3,0.6,0.7,0.6,1.2c0,0.2-0.1,0.4-0.1,0.7c0.1,0.1,0.1,0.3,0.1,0.4c0,0.3-0.1,0.8-0.3,1.5c-0.1,0.9-0.6,1.8-1.4,2.8
		C57.5,116.1,57,116.5,56.4,117.1z M63.3,121.8L63.3,121.8c-0.2,0.1-0.4,0.2-0.9,0.4c-0.4,0.2-0.7,0.3-0.9,0.5
		c-0.3,0.1-0.7,0.1-1.2,0.2c0,0,0-0.1,0-0.1c-0.9,0-1.5-0.2-1.9-0.6c-0.1-0.1-0.2-0.2-0.3-0.4c-0.1-0.1-0.2-0.4-0.2-0.7
		c0-0.1,0.1-0.4,0.1-0.7c0,0,0-0.1,0-0.1c0-0.1,0-0.2-0.1-0.4c0-0.1,0.1-0.4,0.1-0.7c0-0.3,0-0.6,0.2-0.8c0.1-0.5,0.5-1,1.1-1.7
		c1-1.1,1.5-1.6,1.4-1.5c0.2-0.1,0.5-0.3,1-0.7c0.4-0.4,0.7-0.5,0.9-0.5l0.1-0.1c0.1,0.1,0.1,0.1,0.2,0.1c0,0,0.1-0.1,0.2-0.2
		c0.1-0.1,0.1-0.1,0.2,0c0.3,0,0.7,0.1,1.1,0.5c-0.2-0.1,0.2,0.2,0.9,0.9c0,0.4,0,0.8,0,1.2C65.4,118.6,64.7,120.4,63.3,121.8z
		 M74.1,115.1c0,0.3-0.1,0.7-0.2,1.3c-0.5,1.3-0.8,2-1.1,2.3c-0.5,0.6-1.5,1-2.9,1.3c-0.1,0-0.4,0.1-1,0.2c-0.4,0.1-0.7,0-1-0.1
		c0,0-0.2-0.1-0.6-0.5c-0.2-0.2-0.3-0.4-0.3-0.5c-0.3-0.5-0.3-1.1-0.2-1.7c-0.2-0.6-0.1-1.3,0.3-2.1c-0.1-0.2-0.1-0.4,0.1-0.6
		c0.1-0.1,0.2-0.2,0.2-0.5c0.1-0.2,0.1-0.4,0.1-0.4c0.1-0.1,0.2-0.1,0.4-0.1c0.1-0.2,0.2-0.4,0.3-0.7c0.1-0.2,0.3-0.2,0.6-0.2
		c0.3,0.1,0.5,0.1,0.6-0.1c0.1-0.1,0.1-0.2,0.2-0.3c0.3-0.1,0.5-0.2,0.7-0.4c0.3-0.2,0.6-0.2,0.8-0.1c0.2-0.1,0.5-0.2,0.8-0.2
		c0.3,0,0.6,0,0.9,0.1c0.5,0.4,0.9,1,1.1,1.9c0,0.2,0,0.5-0.1,0.9C74,114.9,74,115,74.1,115.1z M75.3,108.4c0.1,0.1,0.1,0.3,0.1,0.5
		c0,0.3-0.1,0.5-0.1,0.5c-1.1,1.2-2.3,1.8-3.7,1.8c-1.2-0.3-2.1-0.3-2.6,0c-0.5-0.1-1.1-0.1-1.8,0.1c-0.8,0.2-1.4,0.3-1.7,0.2
		c-0.5,0.1-1.3-0.2-2.2-1c0-0.1-0.1-0.3-0.4-0.8c-0.2-0.3-0.2-0.6-0.1-0.8c-0.1-0.1,0-0.3,0-0.5c-0.1-0.2-0.1-0.5,0-0.6
		c-0.1-0.2,0-0.4,0.1-0.8c0-0.1,0.1-0.2,0.1-0.3c0-0.1,0-0.2,0-0.3c0,0,0,0,0,0c0-0.1,0-0.2,0-0.2c0.1-0.2,0.1-0.5,0-0.9
		c0.2-0.1,0.2-0.3,0.1-0.4c0.1-0.2,0.1-0.5,0.1-0.7c-0.1-0.8-0.4-1.5-1-2.2c0-0.4-0.1-0.8-0.1-1.2c0-0.2,0-0.4,0.1-0.6
		c0-0.2,0-0.4-0.1-0.5c0-0.4,0.1-0.8,0.4-1.1l-0.1-0.1c0,0,0.1,0.1,0.2,0.1c0,0,0.1-0.1,0.1-0.2l-0.1-0.1c0,0.1,0.1,0.1,0.2,0.1
		l-0.1-0.2c0.1,0.1,0.3,0,0.5-0.2c0.3-0.3,0.4-0.5,0.4-0.5c0.2-0.1,0.4-0.1,0.7,0c0.3,0.1,0.6,0.1,0.7,0c0.9,0.7,1.5,1.1,1.6,1.2
		c0.5,0.5,0.9,1,1,1.6c0.6,0.4,1.4,1.1,2.5,2c0.1,0.3,0.3,0.6,0.6,0.9c0.4,0.4,1.1,0.7,1.9,0.8c0.5,0.1,1,0.3,1.4,0.7
		c0.7,0.7,1.2,1.5,1.5,2.6c0.1,0.1,0.1,0.3,0.1,0.5c0,0.3-0.1,0.5-0.1,0.5C75.3,108.3,75.3,108.3,75.3,108.4
		C75.3,108.4,75.3,108.4,75.3,108.4z M85.3,116.4c0,0.1,0,0.3-0.2,0.4c-0.3,0.3-0.5,0.4-0.4,0.4c-0.2,0.1-0.5,0.1-0.8,0.1
		c-0.5-0.1-0.7-0.1-0.8-0.1c-1.1-0.2-1.9-0.6-2.3-1.1c-0.2-0.2-0.5-0.8-0.9-1.8c-0.1-0.5-0.2-0.8-0.2-1c0-0.1,0.1-0.2,0.1-0.3
		c-0.1-0.3-0.1-0.6-0.1-0.8c0.2-0.7,0.5-1.2,0.9-1.5c0.2,0,0.5,0,0.7-0.1c0.2,0,0.5,0,0.6,0.1c0.2-0.1,0.4-0.1,0.6,0.1
		c0.2,0.1,0.4,0.2,0.6,0.3c0,0.1,0.1,0.2,0.1,0.2c0.1,0.1,0.3,0.1,0.5,0c0.2-0.1,0.4,0,0.5,0.1c0,0.3,0.1,0.5,0.2,0.6
		c0.1,0,0.2,0,0.3,0.1c0,0,0.1,0.2,0.1,0.3c0,0.2,0.1,0.3,0.2,0.4c0.2,0.1,0.2,0.3,0.1,0.4c0.3,0.6,0.4,1.2,0.2,1.7
		C85.6,115.4,85.5,115.9,85.3,116.4z M85.1,110.2c-0.6-0.1-1-0.2-1.4-0.1c-0.4-0.2-1.1-0.2-2.1,0c-1.1,0-2-0.5-2.9-1.4
		c0,0,0-0.1-0.1-0.4c0-0.2,0-0.3,0.1-0.4c0-0.1,0.1-0.2,0.1-0.3c0,0,0,0-0.1-0.1c0,0,0-0.1-0.1-0.4c0-0.2,0-0.3,0.1-0.4
		c0.2-0.9,0.6-1.6,1.1-2.1c0.3-0.3,0.7-0.5,1.1-0.6c0.6-0.1,1.1-0.3,1.5-0.6c0.2-0.2,0.4-0.4,0.5-0.7c0.9-0.7,1.6-1.2,2-1.5
		c0.1-0.4,0.3-0.8,0.8-1.2c0.1-0.1,0.5-0.4,1.2-0.9c0.1,0.1,0.3,0.1,0.6,0c0.3-0.1,0.4-0.1,0.6,0c0,0,0.1,0.1,0.4,0.4
		c0.1,0.2,0.3,0.2,0.4,0.2l-0.1,0.1c0.1,0,0.1,0,0.2-0.1l-0.1,0.1c0,0.1,0.1,0.1,0.1,0.2c0.1,0,0.1-0.1,0.1-0.1l-0.1,0.1
		c0.2,0.2,0.3,0.5,0.3,0.9c0,0.2,0,0.4-0.1,0.6c0.1,0.2,0.1,0.3,0.1,0.5c0,0.3-0.1,0.7-0.1,1c-0.4,0.5-0.6,1-0.7,1.5
		c0,0.2,0,0.3,0.1,0.5c-0.1,0.1-0.1,0.2,0,0.3c-0.1,0.3-0.1,0.6,0,0.7c-0.1,0.1,0,0.3,0,0.4c0,0,0,0,0,0c0,0,0,0,0,0
		c0,0.1,0,0.1,0.1,0.2c0.1,0.3,0.1,0.5,0.1,0.6c0.1,0.2,0.1,0.4-0.1,0.6c0.1,0.3,0.1,0.5,0.1,0.6c0.1,0.2,0.1,0.4-0.1,0.6
		c-0.2,0.3-0.3,0.5-0.3,0.6c-0.7,0.6-1.3,0.9-1.7,0.8C86.2,110.4,85.8,110.4,85.1,110.2z M92.4,117.4c0,0.3,0,0.4,0,0.5
		c0,0.3-0.1,0.5-0.2,0.6c-0.1,0.1-0.2,0.2-0.2,0.3c-0.3,0.3-0.8,0.4-1.5,0.5c0,0,0,0.1,0,0.1c-0.4-0.1-0.8-0.1-1-0.2
		c-0.1-0.1-0.4-0.3-0.7-0.4c-0.3-0.1-0.5-0.2-0.6-0.4l0,0c-1.1-1.1-1.6-2.6-1.5-4.3c0,0,0,0,0,0c0-0.4,0-0.7,0-1.1
		c0.6-0.6,0.8-0.8,0.7-0.7c0.3-0.3,0.6-0.4,0.9-0.4c0,0,0.1,0,0.2,0c0.1,0.1,0.1,0.1,0.1,0.1c0,0,0.1,0,0.2-0.1l0.1,0.1
		c0.2-0.1,0.4,0.1,0.7,0.4c0.4,0.3,0.6,0.5,0.8,0.6c0-0.1,0.3,0.3,1.1,1.2c0.5,0.5,0.8,1,0.9,1.3c0.1,0.2,0.1,0.4,0.1,0.6
		c0,0.3,0,0.4,0,0.5c0,0.1,0,0.3-0.1,0.4C92.4,117.3,92.4,117.3,92.4,117.4z M97.7,113c-0.1,0.2-0.2,0.4-0.2,0.7
		c0,0.3-0.1,0.6-0.3,0.8c-1,0.7-2.2,0.8-3.4,0.3c-0.5-0.5-0.9-0.8-1.1-1.1c-0.7-0.7-1-1.5-1.1-2.2c-0.1-0.5-0.2-0.9-0.2-1.2
		c0-0.2,0.1-0.3,0.1-0.4c-0.1-0.3-0.1-0.5-0.1-0.7c0.1-0.4,0.2-0.7,0.5-1c0.2-0.2,0.5-0.3,0.8-0.5c-0.3-0.1-0.6-0.2-0.8-0.4
		c-0.3-0.1-0.7-0.4-1.1-0.8c-0.3-0.4-0.6-0.8-0.8-1.2l0.1-0.9c0-0.1-0.1-0.2-0.1-0.2l0.2-1.3c0.1-0.2,0.2-0.4,0.3-0.6
		c0.2-0.2,0.5-0.3,0.9-0.3c0.5-0.1,0.8-0.1,0.9-0.2c0.5,0.1,0.9,0.1,1.1,0.2c0.1-0.1,0.3,0,0.5,0.1c0.2,0.2,0.4,0.3,0.5,0.3
		c0.1-0.1,0.3,0,0.4,0.2c0.2,0.3,0.4,0.4,0.4,0.4c0.1,0,0.3,0,0.5,0.2c0.3,0.2,0.4,0.3,0.4,0.3c0,0,0,0,0.1,0c0,0,0.1,0,0.1,0
		c0.2,0.5,0.3,0.8,0.5,1.1c-0.1,0.1,0,0.2,0.2,0.4c0.2,0.2,0.2,0.4,0.1,0.5c-0.1,0.1-0.2,0.2-0.3,0.4c0,0.1,0.1,0.1,0.2,0.2
		c0.2,0.2,0.2,0.4,0.1,0.5c-0.2,0.1-0.3,0.3-0.4,0.6c-0.1,0.3-0.2,0.5-0.3,0.6c-0.4,0.2-0.9,0.2-1.6,0.3c0.1,0,0.1,0.1,0.2,0.1
		l0,0.2c0.1,0,0.1,0,0.1,0c0.8,0.7,1.2,1.2,1.3,1.3c0.5,0.5,0.8,1,0.9,1.4c0,0.3,0.1,0.5,0.2,0.7c-0.1,0.1-0.1,0.3-0.2,0.5
		C97.5,112.6,97.6,112.8,97.7,113z"/>
	<path fill="#FA8A3B" d="M48.3,58c5.3,0,47.1,0,52.4,0c2.1-9,10.6-16.5,20.7-16.6C111.1,27.5,94.6,18.7,76,18.7
		c-18.7,0-35.3,8.9-45.6,22.9C39.2,42.8,46.4,50,48.3,58z M94.4,38.1c1.6-0.6,3.1-0.5,4.3,0.4c0.3,0.2,0.4,0.5,0.4,1
		c0,0.4,0.1,0.8,0.3,0.9c-0.1,0.2-0.2,0.4-0.2,0.7c0,0.2,0.1,0.4,0.2,0.5c-0.1,0.2-0.2,0.5-0.2,0.9c-0.2,0.5-0.5,1.1-1.2,1.8
		c-0.2,0.2-0.7,0.7-1.7,1.7c0,0,0,0-0.1,0l0,0.2c-0.3,0.1-0.5,0.2-0.6,0.4c1.1,0,1.9,0.1,2.4,0.3c0.2,0.1,0.3,0.4,0.4,0.7
		c0.1,0.3,0.2,0.6,0.4,0.7c0.2,0.2,0.1,0.4-0.1,0.6c-0.1,0.1-0.1,0.1-0.2,0.2c0.1,0.1,0.2,0.3,0.3,0.3c0.2,0.2,0.1,0.4-0.1,0.6
		c-0.2,0.3-0.3,0.4-0.3,0.6c-0.2,0.3-0.4,0.7-0.6,1.3c0,0,0,0-0.1,0c-0.1,0-0.1,0-0.1,0c0,0-0.2,0.2-0.6,0.4
		c-0.3,0.2-0.5,0.3-0.7,0.3c-0.1,0-0.3,0.2-0.5,0.5c-0.2,0.2-0.4,0.3-0.6,0.2c-0.1,0-0.3,0.1-0.6,0.4C94.4,54,94.2,54,94,53.9
		c-0.3,0-0.8,0.1-1.4,0.2c-0.2-0.1-0.6-0.1-1.2-0.2c-0.5-0.1-0.9-0.2-1.1-0.4c-0.2-0.2-0.3-0.4-0.4-0.7l-0.3-1.7
		c0-0.1,0.1-0.2,0.1-0.3L89.6,50c0.2-0.5,0.6-1,1-1.5c0.5-0.5,0.9-0.9,1.3-1c0.3-0.3,0.8-0.5,1.3-0.6c0.1,0,0.2,0,0.3-0.1
		c-0.7-0.1-1.2-0.4-1.6-0.7c-0.4-0.3-0.6-0.7-0.6-1.2c0-0.2,0.1-0.4,0.1-0.7c-0.1-0.1-0.1-0.3-0.1-0.5c0-0.3,0.1-0.8,0.3-1.5
		c0.1-0.9,0.6-1.8,1.4-2.8C93.3,39.1,93.7,38.7,94.4,38.1z M87.5,33.4L87.5,33.4c0.2-0.1,0.4-0.2,0.9-0.4c0.4-0.2,0.7-0.3,0.9-0.5
		c0.3-0.1,0.7-0.1,1.2-0.2c0,0,0,0.1,0,0.1c0.9,0,1.5,0.2,1.9,0.6c0.1,0.1,0.2,0.2,0.3,0.4c0.1,0.1,0.2,0.4,0.2,0.7
		c0,0.1-0.1,0.4-0.1,0.7c0,0,0,0.1,0,0.1c0,0.1,0,0.2,0.1,0.3c0,0.1-0.1,0.4-0.1,0.7c0,0.3,0,0.6-0.2,0.8c-0.1,0.5-0.5,1-1.1,1.7
		c-1,1.1-1.5,1.6-1.4,1.5c-0.2,0.1-0.5,0.3-1,0.7c-0.4,0.4-0.7,0.5-0.9,0.5l-0.1,0.1c-0.1-0.1-0.1-0.1-0.2-0.1c0,0-0.1,0.1-0.2,0.2
		c-0.1,0.1-0.1,0.1-0.2,0c-0.3,0-0.7-0.1-1.1-0.5c0.2,0.1-0.2-0.2-0.9-0.9c0-0.4,0-0.8,0-1.2C85.4,36.6,86,34.8,87.5,33.4z
		 M76.7,40.1c0-0.3,0.1-0.7,0.2-1.3c0.5-1.3,0.8-2,1.1-2.3c0.5-0.6,1.5-1,2.9-1.3c0.1,0,0.4-0.1,1-0.2c0.4-0.1,0.7-0.1,1,0.1
		c0,0,0.2,0.1,0.6,0.5c0.2,0.2,0.3,0.4,0.3,0.5c0.3,0.5,0.3,1.1,0.2,1.7c0.2,0.6,0.1,1.3-0.3,2.1c0.1,0.2,0.1,0.4-0.1,0.6
		c-0.1,0.1-0.2,0.2-0.2,0.5c-0.1,0.2-0.1,0.4-0.1,0.4c-0.1,0.1-0.2,0.1-0.4,0.1c-0.1,0.2-0.2,0.4-0.3,0.7c-0.1,0.2-0.3,0.2-0.6,0.2
		c-0.3-0.1-0.5-0.1-0.6,0.1c-0.1,0.1-0.1,0.2-0.2,0.3c-0.3,0.1-0.5,0.2-0.7,0.4c-0.3,0.2-0.6,0.2-0.8,0.1c-0.2,0.1-0.5,0.2-0.8,0.2
		c-0.3,0-0.6,0-0.9-0.1c-0.5-0.4-0.9-1-1.1-1.9c0-0.2,0-0.5,0.1-0.9C76.8,40.3,76.7,40.2,76.7,40.1z M75.5,46.8
		c-0.1-0.1-0.1-0.3-0.1-0.5c0-0.3,0.1-0.5,0.1-0.5c1.1-1.2,2.3-1.8,3.7-1.8c1.2,0.3,2.1,0.3,2.6,0c0.5,0.1,1.1,0.1,1.8-0.1
		c0.8-0.2,1.4-0.3,1.7-0.2c0.5-0.1,1.3,0.2,2.2,1c0,0.1,0.1,0.3,0.4,0.8c0.2,0.3,0.2,0.6,0.1,0.8c0.1,0.1,0,0.3,0,0.5
		c0.1,0.2,0.1,0.5,0,0.6c0.1,0.2,0,0.4-0.1,0.8c-0.1,0.1-0.1,0.2-0.1,0.3c0,0.1,0,0.2,0,0.3c0,0,0,0,0,0c0,0.1,0,0.2,0,0.2
		c-0.1,0.2-0.1,0.5,0,0.9c-0.2,0.1-0.2,0.3-0.1,0.4c-0.1,0.2-0.1,0.5-0.1,0.7c0.1,0.8,0.4,1.5,1,2.2c0,0.4,0.1,0.8,0.1,1.2
		c0,0.2,0,0.4-0.1,0.6c0,0.2,0,0.4,0.1,0.6c0,0.4-0.1,0.8-0.4,1.1l0.1,0.1c0,0-0.1-0.1-0.2-0.1c0,0-0.1,0.1-0.1,0.2l0.1,0.1
		c0-0.1-0.1-0.1-0.2-0.1l0.1,0.2c-0.1-0.1-0.3,0-0.5,0.2c-0.3,0.3-0.4,0.5-0.4,0.5c-0.2,0.1-0.4,0.1-0.7,0c-0.3-0.1-0.6-0.1-0.7,0
		c-0.9-0.7-1.5-1.1-1.6-1.2c-0.5-0.5-0.9-1-1-1.6c-0.6-0.4-1.4-1.1-2.5-2c-0.1-0.3-0.3-0.6-0.6-0.9c-0.4-0.4-1.1-0.7-1.9-0.8
		c-0.5-0.1-1-0.3-1.4-0.7c-0.7-0.7-1.2-1.5-1.5-2.6c-0.1-0.1-0.1-0.3-0.1-0.5c0-0.3,0.1-0.5,0.1-0.5C75.5,46.9,75.5,46.9,75.5,46.8
		C75.5,46.9,75.5,46.8,75.5,46.8z M65.5,38.8c0-0.1,0-0.3,0.2-0.4c0.3-0.3,0.5-0.4,0.4-0.4c0.2-0.1,0.5-0.2,0.8-0.1
		c0.5,0.1,0.7,0.1,0.8,0.1c1.1,0.2,1.9,0.6,2.3,1.1c0.2,0.2,0.5,0.8,0.9,1.8c0.1,0.5,0.2,0.8,0.2,1c0,0.1-0.1,0.2-0.1,0.3
		C71,42.7,71,43,71,43.2c-0.2,0.7-0.5,1.2-0.9,1.5c-0.2,0-0.5,0-0.7,0.1c-0.2,0-0.5,0-0.6-0.1c-0.2,0.1-0.4,0.1-0.6-0.1
		c-0.2-0.1-0.4-0.2-0.6-0.3c0-0.1-0.1-0.2-0.1-0.2c-0.1-0.1-0.3-0.1-0.5,0c-0.2,0.1-0.4,0-0.5-0.1c0-0.3-0.1-0.5-0.2-0.6
		c-0.1,0-0.2,0-0.3-0.1c0,0-0.1-0.2-0.1-0.3c0-0.2-0.1-0.3-0.2-0.4c-0.2-0.1-0.2-0.3-0.1-0.4c-0.3-0.6-0.4-1.2-0.2-1.7
		C65.2,39.8,65.2,39.3,65.5,38.8z M65.6,45c0.6,0.1,1,0.2,1.4,0.1c0.4,0.2,1.1,0.2,2.1,0c1.1,0,2,0.5,2.9,1.4c0,0,0,0.1,0.1,0.4
		c0,0.2,0,0.3-0.1,0.4c0,0.1-0.1,0.2-0.1,0.3c0,0,0,0,0.1,0.1c0,0,0,0.1,0.1,0.4c0,0.2,0,0.3-0.1,0.4c-0.2,0.9-0.6,1.6-1.2,2.1
		c-0.3,0.3-0.7,0.5-1.1,0.6c-0.6,0.1-1.1,0.3-1.5,0.6c-0.2,0.2-0.4,0.4-0.5,0.7c-0.9,0.7-1.6,1.2-2,1.5c-0.1,0.4-0.3,0.8-0.8,1.2
		c-0.1,0.1-0.5,0.4-1.2,0.9c-0.1-0.1-0.3-0.1-0.6,0c-0.3,0.1-0.5,0.1-0.6,0c0,0-0.1-0.1-0.4-0.4c-0.1-0.2-0.3-0.2-0.4-0.2l0.1-0.1
		c-0.1,0-0.1,0-0.2,0.1l0.1-0.1c0-0.1-0.1-0.1-0.1-0.2c-0.1,0-0.1,0.1-0.1,0.1l0.1-0.1c-0.2-0.3-0.3-0.5-0.3-0.9
		c0-0.2,0-0.4,0.1-0.6c-0.1-0.2-0.1-0.3-0.1-0.5c0-0.3,0.1-0.7,0.1-1c0.4-0.5,0.6-1,0.7-1.5c0-0.2,0-0.3-0.1-0.5
		c0.1-0.1,0.1-0.2,0-0.3c0.1-0.3,0.1-0.6,0-0.7c0.1-0.1,0-0.3,0-0.4c0,0,0,0,0,0c0,0,0,0,0,0c0-0.1,0-0.1-0.1-0.2
		c-0.1-0.3-0.1-0.5-0.1-0.6c-0.1-0.2-0.1-0.3,0.1-0.6c-0.1-0.3-0.1-0.5-0.1-0.6c-0.1-0.2-0.1-0.4,0.1-0.6c0.2-0.3,0.3-0.5,0.3-0.6
		c0.7-0.6,1.3-0.9,1.7-0.8C64.6,44.8,65,44.9,65.6,45z M58.3,37.8c0-0.3,0-0.4,0-0.5c0-0.3,0.1-0.5,0.2-0.6c0.1-0.1,0.2-0.2,0.2-0.3
		c0.3-0.3,0.8-0.4,1.5-0.5c0,0,0-0.1,0-0.1c0.4,0.1,0.8,0.1,1,0.2c0.1,0.1,0.4,0.3,0.7,0.4c0.3,0.1,0.5,0.2,0.6,0.4l0,0
		c1.1,1.1,1.6,2.6,1.5,4.3c0,0,0,0,0,0c0,0.4,0,0.7,0,1.1c-0.6,0.6-0.8,0.8-0.7,0.7c-0.3,0.3-0.6,0.4-0.9,0.4c0,0-0.1,0-0.2,0
		c-0.1-0.1-0.1-0.1-0.1-0.1c0,0-0.1,0-0.2,0.1l-0.1-0.1c-0.2,0.1-0.4-0.1-0.7-0.4c-0.4-0.3-0.6-0.5-0.8-0.6c0,0.1-0.3-0.3-1.1-1.2
		c-0.5-0.5-0.8-1-0.9-1.3c-0.1-0.2-0.1-0.4-0.1-0.6c0-0.3,0-0.4,0-0.5c0-0.1,0-0.3,0.1-0.3C58.3,38,58.3,37.9,58.3,37.8z M53.1,42.2
		c0.1-0.2,0.2-0.4,0.2-0.7c0-0.3,0.1-0.6,0.3-0.8c1-0.7,2.2-0.8,3.4-0.3c0.5,0.5,0.9,0.8,1.1,1.1c0.7,0.7,1,1.5,1.1,2.2
		c0.1,0.5,0.2,0.9,0.2,1.2c0,0.2-0.1,0.3-0.1,0.4c0.1,0.3,0.1,0.5,0.1,0.7c-0.1,0.4-0.2,0.7-0.5,1c-0.2,0.2-0.5,0.3-0.8,0.5
		c0.3,0.1,0.6,0.2,0.8,0.4c0.3,0.1,0.7,0.4,1.1,0.8c0.3,0.4,0.6,0.8,0.8,1.2l-0.1,0.9c0,0.1,0.1,0.2,0.1,0.2l-0.2,1.3
		c-0.1,0.2-0.2,0.4-0.3,0.6c-0.2,0.2-0.5,0.3-0.9,0.3c-0.5,0.1-0.8,0.1-0.9,0.2c-0.5-0.1-0.9-0.1-1.1-0.2c-0.1,0.1-0.3,0-0.5-0.1
		c-0.2-0.2-0.4-0.3-0.5-0.3c-0.1,0.1-0.3,0-0.4-0.2c-0.2-0.3-0.4-0.4-0.4-0.4c-0.1,0-0.3,0-0.5-0.2c-0.3-0.2-0.4-0.3-0.4-0.3
		c0,0,0,0-0.1,0c0,0-0.1,0-0.1,0c-0.2-0.5-0.3-0.8-0.5-1.1c0.1-0.1,0-0.2-0.2-0.4c-0.2-0.2-0.2-0.4-0.1-0.5c0.1-0.1,0.2-0.2,0.3-0.4
		c0-0.1-0.1-0.1-0.2-0.2c-0.2-0.2-0.2-0.4-0.1-0.5c0.2-0.1,0.3-0.3,0.3-0.6c0.1-0.3,0.2-0.5,0.3-0.6c0.4-0.2,0.9-0.2,1.6-0.3
		c-0.1,0-0.1-0.1-0.2-0.1l0-0.2c0,0-0.1,0-0.1,0c-0.8-0.7-1.2-1.2-1.3-1.3c-0.5-0.5-0.8-1-0.9-1.4c0-0.3-0.1-0.5-0.2-0.7
		c0.1-0.1,0.1-0.3,0.2-0.5C53.3,42.6,53.2,42.4,53.1,42.2z"/>
	<path fill="#D8B9A7" d="M142.9,63.1c0-5.7-2.2-11.1-6.3-15.2c-4-4-9.4-6.3-15.2-6.3c0,0-0.1-0.3-0.1-0.3
		c-10.2,0.1-18.6,7.6-20.7,16.6c-5.3,0-47.1,0-52.4,0c-1.9-8-9-15.1-17.9-16.3c-1-0.1-2-0.1-3-0.1c-5.7,0-11.1,2.3-15.2,6.3
		C8.2,52,6,57.4,6,63.1c0,4.5,1.5,8.8,4,12.4c-2.6,3.6-4,7.9-4,12.4c0,11.8,9.6,21.4,21.4,21.4c1.1,0,2.3,0.1,3.4,0
		C39.4,108,46.4,101,48.3,93c5.3,0,47.1,0,52.4,0c2.1,9,10.4,16.3,20.3,16.6c0.2,0,0.4-0.1,0.5-0.1c11.8,0,21.4-9.7,21.4-21.5
		c0-4.5-1.5-8.8-4-12.4C141.5,72,142.9,67.6,142.9,63.1z M121.5,106.6c-9.6,0-17.4-8.6-18.2-16.6c-0.9,0-56.9,0-57.7,0
		c-0.8,8-8.6,16.6-18.2,16.6c-10.1,0-18.3-8.4-18.3-18.5c0-4.6,1.8-9.1,4.9-12.5c-3.1-3.4-4.9-7.8-4.9-12.4c0-4.9,1.9-9.5,5.4-13
		c3.5-3.5,8.1-5.7,12.9-5.7C37,44.5,44.8,53,45.6,61c0.9,0,56.8,0,57.7,0c0.8-8,8.6-16.5,18.2-16.5c4.9,0,9.5,2.1,12.9,5.5
		c3.5,3.5,5.4,8.1,5.4,13c0,4.6-1.8,9-4.9,12.4c3.1,3.4,4.9,7.9,4.9,12.6C139.8,98.2,131.6,106.6,121.5,106.6z"/>
	<path fill="#9D9FA2" d="M134.9,75.5c3.1-3.4,4.9-7.8,4.9-12.4c0-4.9-1.9-9.5-5.4-12.9c-3.5-3.5-8.1-5.7-12.9-5.7
		c-9.6,0-17.4,8.5-18.2,16.5c-0.9,0-56.9,0-57.7,0c-0.8-8-8.6-16.5-18.2-16.5c-4.9,0-9.5,2.1-12.9,5.5c-3.5,3.5-5.4,8.1-5.4,13
		c0,4.6,1.8,9,4.9,12.4c-3.1,3.4-4.9,7.8-4.9,12.4c0,10.1,8.2,18.6,18.3,18.6c9.6,0,17.4-8.5,18.2-16.5c0.9,0,56.8,0,57.7,0
		c0.8,8,8.6,16.6,18.2,16.6c10.1,0,18.3-8.4,18.3-18.5C139.8,83.5,138.1,78.9,134.9,75.5z M138.8,87.9c0,9.5-7.7,17.3-17.3,17.3
		c-9.2,0-16.7-6.9-17.2-16l0-0.2H44.7l0,0.2c-0.5,9.2-8,16.2-17.2,16.2c-9.5,0-17.3-7.8-17.3-17.3c0-4.5,1.7-8.8,4.9-12.1l0.4-0.4
		L15,75.2c-3.2-3.2-4.9-7.5-4.9-12c0-4.6,1.8-9,5.1-12.2c3.3-3.3,7.6-5.1,12.2-5.1c9.2,0,16.7,7.3,17.2,16.5l0,0.6h0.5h59.1l0-0.6
		c0.5-9.2,8-16.4,17.2-16.4c4.6,0,9,1.8,12.2,5c3.3,3.3,5.1,7.6,5.1,12.2c0,4.5-1.7,8.8-4.9,12l-0.4,0.4l0.4,0.4
		C137,79.2,138.8,83.4,138.8,87.9z"/>
	<path fill="#9D9FA2" d="M43,63C43,63,43,63.1,43,63c0-8.8-7.1-15.9-15.8-15.9c-8.7,0-15.8,7.3-15.8,16.2c0,1.2,0.1,2.3,0.4,3.4
		c-0.1-0.5-0.1-1.1-0.1-1.6c0-8.5,6.8-15.5,15.1-15.5c8.2,0,15.1,6.7,15.1,15V65h62v-2H43z"/>
	<path fill="#9D9FA2" d="M106.5,88c0,0,0-0.3,0-0.3c0,8.8,6.9,15.7,15.4,15.7c8.5,0,15.4-7.2,15.4-16c0-1.2-0.1-2.3-0.4-3.4
		c0.1,0.5,0.1,1,0.1,1.6c0,8.4-6.9,15.2-15.1,15.2c-8,0-15-6.6-15-14.7V86H46v2H106.5z"/>
	<path fill="#A26946" d="M75.4,47.4c0,0.2,0,0.4,0.1,0.5c0.2,1.1,0.7,2,1.5,2.6c0.4,0.4,0.9,0.6,1.4,0.7c0.8,0.1,1.4,0.4,1.9,0.8
		c0.3,0.2,0.5,0.5,0.6,0.9c1.1,0.9,2,1.5,2.5,2c0.1,0.5,0.4,1.1,1,1.6c0.1,0.1,0.6,0.5,1.6,1.2c0.2-0.1,0.4-0.1,0.7,0
		c0.3,0.1,0.6,0.1,0.7,0c0,0,0.2-0.2,0.4-0.5c0.2-0.2,0.3-0.3,0.5-0.2l-0.1-0.2c0.1,0,0.2,0.1,0.2,0.1l-0.1-0.1
		c0-0.1,0.1-0.2,0.1-0.2c0.1,0,0.2,0.1,0.2,0.1l-0.1-0.1c0.3-0.3,0.4-0.7,0.4-1.1c0-0.2,0-0.4-0.1-0.6c-0.1,0.2-0.2,0.3-0.3,0.5
		l0.1,0.1c0,0-0.1-0.1-0.2-0.1c0,0-0.1,0.1-0.1,0.2l0.1,0.1c0,0-0.1-0.1-0.2-0.1l0.1,0.2c-0.1-0.1-0.3,0-0.5,0.2
		c-0.3,0.3-0.4,0.5-0.4,0.5c-0.2,0.1-0.4,0.1-0.7,0c-0.3-0.1-0.6-0.1-0.7,0c-0.9-0.7-1.5-1.1-1.6-1.2c-0.5-0.5-0.9-1-1-1.6
		c-0.6-0.4-1.4-1.1-2.5-2c-0.1-0.3-0.3-0.6-0.6-0.9c-0.4-0.4-1.1-0.7-1.9-0.8c-0.5-0.1-1-0.3-1.4-0.7c-0.7-0.6-1.2-1.5-1.4-2.5
		c0,0,0,0,0,0C75.5,46.9,75.4,47.1,75.4,47.4z"/>
	<path fill="#A26946" d="M87.7,47.8c-0.1,0.1-0.1,0.4,0,0.6c0-0.1,0-0.2,0.1-0.3c0.1-0.4,0.2-0.6,0.1-0.8c0.1-0.2,0.1-0.4,0-0.6
		c0,0.1,0,0.2-0.1,0.3C87.7,47.4,87.6,47.7,87.7,47.8z"/>
	<path fill="#A26946" d="M87.7,49.2c-0.2,0.6-0.2,1.3-0.1,1.8c0-0.2,0.1-0.4,0.1-0.7c-0.2-0.2-0.1-0.3,0.1-0.4
		c-0.1-0.4-0.1-0.7,0-0.9c0-0.1,0-0.1,0-0.2C87.6,48.9,87.5,49,87.7,49.2z"/>
	<path fill="#A26946" d="M77.8,43.2c0.3,0,0.6,0,0.9,0.1c0.3,0,0.6,0,0.8-0.2c0.2,0.1,0.5,0.1,0.8-0.1c0.2-0.1,0.5-0.2,0.7-0.4
		c0-0.1,0.1-0.2,0.2-0.3c0.1-0.1,0.3-0.1,0.6-0.1c0.3,0.1,0.5,0,0.6-0.2c0-0.3,0.1-0.6,0.3-0.7c0.2,0,0.3,0,0.4-0.1
		c0-0.1,0.1-0.2,0.1-0.4c0-0.2,0.1-0.4,0.2-0.5c0.2-0.2,0.3-0.3,0.1-0.6c0.4-0.7,0.5-1.4,0.3-2.1c-0.1,0.3-0.2,0.6-0.3,0.9
		c0.1,0.2,0.1,0.4-0.1,0.6c-0.1,0.1-0.2,0.2-0.2,0.5c-0.1,0.2-0.1,0.4-0.1,0.4c-0.1,0.1-0.2,0.1-0.4,0.1c-0.1,0.2-0.2,0.4-0.3,0.7
		c-0.1,0.2-0.3,0.2-0.6,0.2c-0.3-0.1-0.5-0.1-0.6,0.1c-0.1,0.1-0.1,0.2-0.2,0.3c-0.3,0.1-0.5,0.2-0.7,0.4C80,42,79.8,42,79.6,41.9
		c-0.2,0.1-0.5,0.2-0.8,0.2c-0.3,0-0.6,0-0.9-0.1c-0.4-0.3-0.8-0.9-1-1.6c-0.1,0.4-0.1,0.7-0.1,0.9C77,42.2,77.3,42.8,77.8,43.2z"/>
	<path fill="#A26946" d="M98.4,49.5c-0.2,0.3-0.4,0.7-0.6,1.3c0,0,0,0-0.1,0c-0.1,0-0.1,0-0.1,0c0,0-0.2,0.2-0.6,0.4
		c-0.3,0.2-0.5,0.3-0.7,0.3c-0.1,0-0.3,0.2-0.5,0.5c-0.2,0.2-0.4,0.3-0.6,0.2c-0.1,0-0.3,0.1-0.6,0.4c-0.2,0.2-0.4,0.2-0.6,0.1
		c-0.3,0-0.8,0.1-1.4,0.2c-0.2-0.1-0.6-0.1-1.2-0.2c-0.5-0.1-0.9-0.2-1.1-0.4c-0.2-0.2-0.3-0.4-0.4-0.7l-0.1-0.8
		c0,0.1-0.1,0.2-0.1,0.3l0.3,1.7c0.1,0.3,0.2,0.5,0.4,0.7c0.2,0.2,0.6,0.3,1.1,0.4c0.6,0.1,1,0.1,1.2,0.2c0.6-0.1,1.1-0.1,1.4-0.2
		c0.2,0.1,0.4,0.1,0.6-0.1c0.3-0.2,0.5-0.3,0.6-0.4c0.2,0.1,0.4,0,0.6-0.2c0.3-0.3,0.4-0.5,0.5-0.5c0.2,0,0.4,0,0.7-0.3
		c0.4-0.3,0.5-0.4,0.6-0.4c0,0,0.1,0,0.1,0c0.1,0,0.1,0,0.1,0c0.2-0.6,0.4-1,0.6-1.3c-0.1-0.1,0-0.3,0.3-0.6
		c0.2-0.3,0.3-0.5,0.1-0.6c-0.1-0.1-0.2-0.2-0.3-0.3C98.4,49.3,98.3,49.4,98.4,49.5z"/>
	<path fill="#A26946" d="M98,43.1c-0.2,0.2-0.7,0.7-1.7,1.7c0,0,0,0-0.1,0l0,0.2c-0.3,0.1-0.5,0.2-0.6,0.4c-0.2,0-0.4,0-0.7,0.2
		c-0.3,0.2-0.5,0.2-0.7,0.2c-1-0.1-1.7-0.4-2.2-0.8c-0.2-0.2-0.4-0.5-0.5-0.8c-0.1,0.3-0.1,0.5-0.1,0.7c0.1,0.5,0.3,0.9,0.6,1.2
		c0.4,0.3,0.9,0.6,1.6,0.7c0.4-0.1,0.7-0.2,1.1-0.3c0.3,0,0.6,0,0.9,0c0.2-0.2,0.4-0.3,0.6-0.4l0-0.2c0.1,0,0.1,0,0.1,0
		c0.9-0.9,1.5-1.5,1.7-1.7c0.6-0.7,1-1.3,1.2-1.8c0-0.4,0.1-0.7,0.2-0.9c-0.1-0.1-0.2-0.3-0.2-0.5c0,0.1,0,0.1,0,0.2
		C99,41.8,98.6,42.4,98,43.1z"/>
	<path fill="#A26946" d="M85.6,40c0.8,0.7,1.1,1,0.9,0.9c0.4,0.3,0.8,0.5,1.1,0.5c0.1,0,0.1,0,0.2,0c0.1-0.1,0.2-0.2,0.2-0.2
		c0.1,0,0.1,0,0.2,0.1l0.1-0.1c0.2,0.1,0.5-0.1,0.9-0.5c0.5-0.4,0.8-0.7,1-0.7c-0.1,0.1,0.4-0.4,1.4-1.5c0.6-0.6,1-1.2,1.1-1.7
		c0.1-0.2,0.2-0.4,0.2-0.8c0-0.3,0-0.5,0.1-0.7c0-0.1,0-0.2-0.1-0.3c0,0.3-0.1,0.5-0.2,0.6c-0.1,0.5-0.5,1-1.1,1.7
		c-1,1.1-1.5,1.6-1.4,1.5c-0.2,0.1-0.5,0.3-1,0.7c-0.4,0.4-0.7,0.5-0.9,0.5l-0.1,0.1C88.1,40,88,39.9,87.9,40c0,0-0.1,0.1-0.2,0.2
		c-0.1,0.1-0.1,0.1-0.2,0c-0.3,0-0.7-0.1-1.1-0.5c0.2,0.1-0.2-0.2-0.9-0.9c0,0,0,0,0,0C85.5,39.2,85.5,39.6,85.6,40z"/>
	<path fill="#A26946" d="M53.3,44.1c0.1,0.4,0.4,0.9,0.9,1.4c0.1,0.2,0.6,0.6,1.3,1.3c0,0,0,0,0.1,0l0,0.2c0.1,0,0.1,0.1,0.2,0.1
		c0.3,0,0.6,0,1,0c0.4,0.1,0.7,0.2,1.1,0.3c0.1,0,0.1,0.1,0.2,0.1c0.3-0.1,0.6-0.3,0.8-0.5c0.3-0.3,0.5-0.6,0.5-1
		c0-0.2-0.1-0.4-0.1-0.7c-0.1,0.2-0.2,0.4-0.4,0.5c-0.4,0.3-0.9,0.6-1.7,0.6c-0.1,0-0.3,0-0.5-0.2c-0.2-0.1-0.4-0.2-0.6-0.1
		c-0.1-0.2-0.3-0.3-0.5-0.3l0-0.2c0,0-0.1,0-0.1,0c-0.8-0.7-1.2-1.2-1.3-1.3c-0.5-0.5-0.8-1-0.9-1.4c0,0,0,0,0,0
		c0,0.2-0.1,0.4-0.2,0.5C53.2,43.6,53.3,43.8,53.3,44.1z"/>
	<path fill="#A26946" d="M69.8,50c-0.6,0.1-1.1,0.3-1.5,0.6c-0.2,0.2-0.4,0.4-0.5,0.7c-0.9,0.7-1.6,1.2-2,1.5
		c-0.1,0.4-0.3,0.8-0.8,1.2c-0.1,0.1-0.5,0.4-1.2,0.9c-0.1-0.1-0.3-0.1-0.6,0c-0.3,0.1-0.5,0.1-0.6,0c0,0-0.1-0.1-0.4-0.4
		c-0.1-0.2-0.3-0.2-0.4-0.2l0.1-0.1c-0.1,0-0.1,0-0.2,0.1l0.1-0.1c0-0.1-0.1-0.1-0.1-0.2c-0.1,0-0.1,0.1-0.1,0.1l0.1-0.1
		c-0.1-0.1-0.2-0.2-0.2-0.4c0,0.2,0,0.4-0.1,0.6c0,0.3,0.1,0.6,0.3,0.9l-0.1,0.1c0,0,0.1-0.1,0.1-0.1c0,0,0.1,0.1,0.1,0.2l-0.1,0.1
		c0,0,0.1-0.1,0.2-0.1l-0.1,0.1c0.1,0,0.2,0,0.4,0.2c0.2,0.3,0.4,0.4,0.4,0.4c0.1,0.1,0.3,0.1,0.6,0c0.3-0.1,0.4-0.1,0.6,0
		c0.7-0.5,1.2-0.8,1.2-0.9c0.4-0.4,0.7-0.8,0.8-1.2c0.5-0.3,1.1-0.8,2-1.5c0.1-0.3,0.2-0.5,0.5-0.7c0.3-0.3,0.8-0.5,1.5-0.6
		c0.4-0.1,0.8-0.3,1.1-0.6c0.6-0.5,1-1.2,1.2-2.1c0.1-0.1,0.1-0.3,0.1-0.4c0-0.3-0.1-0.4-0.1-0.4c0,0,0,0-0.1-0.1
		c-0.2,0.7-0.6,1.3-1.1,1.8C70.5,49.7,70.2,49.9,69.8,50z"/>
	<path fill="#A26946" d="M62.4,49.2c0.1-0.1,0.1-0.2,0-0.3C62.4,49,62.4,49.2,62.4,49.2c0,0.2,0,0.5,0,0.8c0.2,0.1,0.2,0.2,0,0.3
		c0,0.2,0,0.3,0.1,0.5C62.5,50.3,62.5,49.8,62.4,49.2z"/>
	<path fill="#A26946" d="M60.3,51.7c-0.2,0.2-0.5,0.3-0.9,0.3c-0.5,0.1-0.8,0.1-0.9,0.2c-0.5-0.1-0.9-0.1-1.1-0.2
		c-0.1,0.1-0.3,0-0.5-0.1c-0.2-0.2-0.4-0.3-0.5-0.3c-0.1,0.1-0.3,0-0.4-0.2c-0.2-0.3-0.4-0.4-0.4-0.4c-0.1,0-0.3,0-0.5-0.2
		c-0.3-0.2-0.4-0.3-0.4-0.3c0,0,0,0-0.1,0c0,0-0.1,0-0.1,0c-0.2-0.5-0.3-0.8-0.5-1.1c0,0,0-0.1,0-0.2c-0.1,0.2-0.2,0.3-0.3,0.4
		c-0.1,0.1-0.1,0.3,0.1,0.5c0.2,0.2,0.3,0.3,0.2,0.4c0.2,0.2,0.3,0.6,0.5,1.1c0,0,0,0,0.1,0c0,0,0.1,0,0.1,0c0,0,0.2,0.1,0.4,0.3
		c0.2,0.2,0.4,0.2,0.5,0.2c0.1,0,0.2,0.2,0.4,0.4c0.2,0.2,0.3,0.2,0.4,0.2c0.1,0,0.2,0.1,0.5,0.3c0.2,0.1,0.3,0.2,0.5,0.1
		c0.3,0,0.7,0.1,1.1,0.2c0.1-0.1,0.4-0.1,0.9-0.2c0.4,0,0.7-0.1,0.9-0.3c0.2-0.1,0.3-0.3,0.3-0.6l0.2-1.3c0-0.1-0.1-0.2-0.1-0.2
		l-0.1,0.4C60.6,51.4,60.4,51.6,60.3,51.7z"/>
	<path fill="#A26946" d="M58.3,39c0,0.3,0,0.5,0.1,0.6c0.1,0.4,0.4,0.8,0.9,1.3c0.8,0.9,1.2,1.2,1.1,1.2c0.2,0,0.4,0.2,0.8,0.6
		c0.3,0.3,0.6,0.4,0.7,0.4l0.1,0.1c0.1-0.1,0.1-0.1,0.2-0.1c0,0,0,0.1,0.1,0.1c0.1,0.1,0.1,0.1,0.2,0c0.3,0,0.5-0.1,0.9-0.4
		c-0.1,0.1,0.1-0.2,0.7-0.7c0-0.4,0-0.8,0-1.1c-0.6,0.6-0.8,0.8-0.7,0.7c-0.3,0.3-0.6,0.4-0.9,0.4c0,0-0.1,0-0.2,0
		c-0.1-0.1-0.1-0.1-0.1-0.1c0,0-0.1,0-0.2,0.1l-0.1-0.1c-0.2,0.1-0.4-0.1-0.7-0.4c-0.4-0.3-0.6-0.5-0.8-0.6c0,0.1-0.3-0.3-1.1-1.2
		c-0.5-0.5-0.8-1-0.9-1.3c-0.1-0.1-0.1-0.2-0.1-0.3c0,0.1,0,0.2-0.1,0.3C58.3,38.5,58.3,38.7,58.3,39z"/>
	<path fill="#A26946" d="M62.3,48.1c0.1-0.2,0.1-0.4-0.1-0.7c0,0,0,0,0-0.1c-0.1,0.2-0.2,0.4-0.1,0.6c-0.1,0.1,0,0.3,0.1,0.6
		c0,0.1,0,0.1,0.1,0.2C62.4,48.5,62.4,48.3,62.3,48.1z"/>
	<path fill="#A26946" d="M65.6,42.1c-0.1,0.2-0.1,0.3,0.1,0.4c0.1,0.1,0.1,0.2,0.2,0.4c0,0.2,0.1,0.3,0.1,0.3
		c0.1,0.1,0.2,0.1,0.3,0.1c0.1,0.1,0.2,0.3,0.2,0.6C66.6,44,66.7,44,67,44c0.2-0.1,0.4,0,0.5,0c0,0.1,0.1,0.1,0.1,0.2
		c0.2,0.1,0.4,0.2,0.6,0.3c0.2,0.1,0.4,0.1,0.6,0.1c0.2,0.1,0.4,0.1,0.6,0.1c0.3,0,0.5,0,0.7-0.1c0.4-0.3,0.7-0.8,0.9-1.5
		c0-0.2,0-0.5-0.1-0.8c-0.2,0.5-0.4,0.9-0.8,1.2c-0.2,0-0.5,0-0.7,0.1c-0.2,0-0.5,0-0.6-0.1c-0.2,0.1-0.4,0.1-0.6-0.1
		c-0.2-0.1-0.4-0.2-0.6-0.3c0-0.1-0.1-0.2-0.1-0.2c-0.1-0.1-0.3-0.1-0.5,0c-0.2,0.1-0.4,0-0.5-0.1c0-0.3-0.1-0.5-0.2-0.6
		c-0.1,0-0.2,0-0.3-0.1c0,0-0.1-0.2-0.1-0.3c0-0.2-0.1-0.3-0.2-0.4c-0.2-0.1-0.2-0.3-0.1-0.4c-0.1-0.2-0.2-0.4-0.2-0.6
		C65.2,40.9,65.3,41.4,65.6,42.1z"/>
	<path fill="#A26946" d="M56,108.6c0.3-0.2,0.5-0.2,0.7-0.2c0.2,0,0.4,0.1,0.6,0.1c0.1,0,0.2,0,0.3-0.1c0.5-0.1,1-0.4,1.3-0.6
		c0.4-0.1,0.9-0.5,1.3-1c0.4-0.5,0.8-1,1-1.5l-0.1-0.9c-0.2,0.4-0.5,0.8-0.9,1.2c-0.5,0.5-0.9,0.9-1.3,1c-0.3,0.3-0.8,0.5-1.3,0.6
		c-0.5,0.1-0.9,0.2-1.4,0.3c-1.5,0.1-2.7,0-3.3-0.3c-0.2-0.1-0.3-0.4-0.4-0.7c0-0.2-0.1-0.3-0.1-0.4c0,0.1-0.1,0.1-0.2,0.2
		c-0.2,0.3-0.3,0.5-0.1,0.6c0.2,0.1,0.4,0.4,0.4,0.7c0.1,0.3,0.2,0.6,0.4,0.7c0.5,0.2,1.4,0.3,2.4,0.3c0,0,0,0,0,0
		C55.4,108.8,55.7,108.7,56,108.6z"/>
	<path fill="#A26946" d="M59.5,111.5c0-0.2-0.1-0.3-0.1-0.4c0,0.2-0.1,0.5-0.2,0.8c-0.1,0.9-0.6,1.8-1.4,2.8
		c-0.3,0.3-0.7,0.7-1.4,1.3c-1.6,0.6-3.1,0.5-4.3-0.4c-0.3-0.2-0.4-0.5-0.4-1c0-0.2,0-0.3-0.1-0.5c0,0.3-0.1,0.5-0.2,0.7
		c0.2,0.2,0.2,0.5,0.3,0.9c0,0.4,0.2,0.8,0.4,1c1.3,0.9,2.7,1,4.3,0.4c0.6-0.6,1.1-1,1.4-1.3c0.8-0.9,1.3-1.8,1.4-2.8
		C59.3,112.4,59.4,111.9,59.5,111.5z"/>
	<path fill="#A26946" d="M63.3,120.6c-0.1,0.1-0.4,0.3-0.8,0.4c-0.4,0.2-0.7,0.3-0.9,0.5c-0.3,0.1-0.7,0.1-1.2,0.2c0,0,0-0.1,0-0.1
		c-0.9,0-1.5-0.2-1.9-0.6c-0.1-0.1-0.2-0.2-0.3-0.4c-0.1-0.1-0.1-0.2-0.1-0.4c0,0,0,0.1,0,0.1c0,0.3,0,0.5-0.1,0.7
		c0,0.4,0.1,0.6,0.2,0.7c0.1,0.1,0.2,0.2,0.3,0.4c0.4,0.4,1,0.6,1.9,0.6c0,0.1,0,0.1,0,0.1c0.5-0.1,1-0.1,1.2-0.2
		c0.2-0.2,0.5-0.3,0.9-0.5c0.4-0.2,0.7-0.3,0.8-0.4l0,0c1.4-1.4,2.1-3.2,1.9-5.4C65.1,118.1,64.5,119.5,63.3,120.6L63.3,120.6z"/>
	<path fill="#A26946" d="M72.8,117.6c-0.5,0.6-1.5,1-2.9,1.3c-0.1,0-0.4,0.1-1,0.2c-0.4,0.1-0.7,0-1-0.1c0,0-0.2-0.1-0.6-0.5
		c-0.2-0.2-0.3-0.4-0.3-0.5c-0.1-0.2-0.2-0.4-0.2-0.5c-0.1,0.6-0.1,1.2,0.2,1.7c0,0.2,0.1,0.3,0.3,0.5c0.4,0.3,0.6,0.5,0.6,0.5
		c0.3,0.2,0.7,0.2,1,0.1c0.6-0.1,0.9-0.2,1-0.2c1.4-0.3,2.4-0.7,2.9-1.3c0.3-0.3,0.6-1.1,1.1-2.3c0.1-0.6,0.2-1,0.2-1.3
		c0-0.1-0.1-0.2-0.1-0.3c0,0.1-0.1,0.3-0.1,0.4C73.4,116.5,73,117.3,72.8,117.6z"/>
	<path fill="#A26946" d="M63.1,106.4C63.1,106.5,63,106.5,63.1,106.4c0,0.1,0,0.2,0,0.3C63.1,106.6,63.1,106.5,63.1,106.4z"/>
	<path fill="#A26946" d="M62.2,100.9c0-0.2-0.1-0.4-0.1-0.7c-0.1,0.2-0.1,0.4-0.1,0.6c0,0.4,0.1,0.8,0.1,1.2c0.6,0.7,0.9,1.4,1,2.2
		C63.4,103,63,101.9,62.2,100.9z"/>
	<path fill="#A26946" d="M69,110.1c-0.5-0.1-1.1-0.1-1.8,0.1c-0.8,0.2-1.4,0.3-1.7,0.2c-0.5,0.1-1.3-0.2-2.2-1
		c0-0.1-0.1-0.3-0.4-0.8c0,0,0-0.1-0.1-0.1c-0.1,0.2-0.1,0.4,0,0.5c-0.1,0.2-0.1,0.5,0.1,0.8c0.2,0.4,0.4,0.7,0.4,0.8
		c0.9,0.8,1.7,1.1,2.2,1c0.3,0,0.9-0.1,1.7-0.2c0.7-0.2,1.3-0.2,1.8-0.1c0.6-0.3,1.4-0.2,2.6,0c1.4,0,2.6-0.6,3.7-1.8
		c0,0,0-0.2,0.1-0.5c0-0.2,0-0.4-0.1-0.5c0,0,0-0.1,0-0.1c-1.1,1.1-2.3,1.7-3.7,1.8C70.4,109.8,69.6,109.8,69,110.1z"/>
	<path fill="#A26946" d="M88.5,106.4C88.4,106.4,88.5,106.4,88.5,106.4C88.4,106.4,88.5,106.4,88.5,106.4
		C88.5,106.4,88.5,106.4,88.5,106.4z"/>
	<path fill="#A26946" d="M97.1,113.3c-1,0.7-2.2,0.8-3.4,0.3c-0.5-0.5-0.9-0.8-1.1-1.1c-0.7-0.7-1-1.5-1.1-2.2
		c0-0.2-0.1-0.3-0.1-0.5c-0.1,0.1-0.1,0.3-0.1,0.4c0,0.3,0.1,0.7,0.2,1.2c0.1,0.7,0.4,1.5,1.1,2.2c0.2,0.2,0.6,0.6,1.1,1.1
		c1.3,0.5,2.4,0.4,3.4-0.3c0.2-0.2,0.3-0.4,0.3-0.8c0-0.3,0.1-0.6,0.2-0.7c-0.1-0.1-0.2-0.4-0.2-0.7c0,0.1,0,0.2,0,0.3
		C97.5,112.9,97.3,113.2,97.1,113.3z"/>
	<path fill="#A26946" d="M88.3,104.4c0.1-0.6,0.3-1.1,0.7-1.5c0-0.3,0.1-0.6,0.1-1c0-0.2,0-0.4-0.1-0.5c0,0.1,0,0.2,0,0.3
		C88.4,102.5,88.2,103.4,88.3,104.4z"/>
	<path fill="#A26946" d="M85.1,115.7c-0.3,0.3-0.5,0.4-0.4,0.4c-0.2,0.1-0.5,0.2-0.8,0.1c-0.5-0.1-0.7-0.1-0.8-0.1
		c-1.1-0.2-1.9-0.6-2.3-1.1c-0.2-0.2-0.5-0.8-0.9-1.8c0-0.1,0-0.1,0-0.2c0,0.1-0.1,0.2-0.1,0.3c0,0.2,0,0.6,0.2,1
		c0.4,1,0.7,1.6,0.9,1.8c0.4,0.5,1.2,0.8,2.3,1.1c0,0,0.3,0.1,0.8,0.1c0.3,0.1,0.6,0,0.8-0.1c0,0,0.1-0.1,0.4-0.4
		c0.2-0.1,0.2-0.3,0.2-0.4c0.2-0.5,0.3-1,0.1-1.5c0,0.1-0.1,0.2-0.1,0.4C85.3,115.4,85.2,115.5,85.1,115.7z"/>
	<path fill="#A26946" d="M92.1,117.7c-0.3,0.3-0.8,0.4-1.5,0.5c0,0,0,0.1,0,0.1c-0.4-0.1-0.8-0.1-1-0.2c-0.1-0.1-0.4-0.3-0.7-0.4
		c-0.3-0.1-0.5-0.2-0.6-0.4l0,0c-0.9-0.9-1.4-1.9-1.5-3.2c0,0,0,0,0,0c-0.1,1.8,0.4,3.2,1.5,4.3l0,0c0.1,0.1,0.3,0.2,0.6,0.4
		c0.3,0.1,0.6,0.3,0.7,0.4c0.2,0,0.5,0.1,1,0.2c0,0,0-0.1,0-0.1c0.7,0,1.2-0.2,1.5-0.5c0.1-0.1,0.2-0.2,0.2-0.3
		c0.1-0.1,0.1-0.3,0.2-0.6c0-0.1-0.1-0.3,0-0.5c0-0.1,0-0.2,0-0.3c0,0.1-0.1,0.2-0.1,0.2C92.3,117.5,92.2,117.6,92.1,117.7z"/>
	<path fill="#A26946" d="M88.2,109.6c0-0.1,0.1-0.3,0.3-0.6c0.2-0.2,0.2-0.4,0.1-0.6c0.1-0.1,0-0.3-0.1-0.6c0,0,0,0,0,0
		c-0.2,0.3-0.3,0.5-0.3,0.6c-0.7,0.6-1.3,0.9-1.7,0.8c-0.2,0-0.7,0-1.3-0.2c-0.6-0.1-1-0.2-1.4-0.1c-0.4-0.2-1.1-0.2-2.1,0
		c-1,0-2-0.5-2.8-1.4c0,0.1-0.1,0.2-0.1,0.3c-0.1,0.1-0.1,0.3-0.1,0.4c0,0.3,0.1,0.4,0.1,0.4c0.9,0.9,1.8,1.4,2.9,1.4
		c0.9-0.2,1.6-0.2,2.1,0c0.4-0.1,0.8-0.1,1.4,0.1c0.6,0.1,1.1,0.2,1.3,0.2C86.9,110.5,87.5,110.3,88.2,109.6z"/>
	<path fill="#A26946" d="M94,107.8c0.2,0.1,0.4,0.2,0.6,0.1c0.1,0.1,0.2,0.2,0.3,0.2c0.7,0,1.3-0.1,1.6-0.3c0.1-0.1,0.2-0.3,0.3-0.6
		c0.1-0.3,0.2-0.5,0.4-0.6c0.1-0.1,0.1-0.3-0.1-0.5c-0.1-0.1-0.1-0.2-0.2-0.2c0,0.1,0,0.1-0.1,0.2c-0.1,0.3-0.2,0.5-0.3,0.6
		c-0.5,0.2-1.4,0.3-2.6,0.2c-0.4-0.1-0.7-0.2-1.1-0.3c-0.4-0.1-0.8-0.3-1-0.5c-0.3-0.1-0.7-0.4-1.1-0.8c-0.3-0.3-0.5-0.6-0.7-0.9
		l-0.1,0.9c0.2,0.4,0.5,0.8,0.8,1.2c0.4,0.4,0.7,0.7,1.1,0.8c0.2,0.2,0.5,0.3,0.8,0.4c0.3-0.1,0.5-0.2,0.9-0.2
		C93.6,107.6,93.8,107.6,94,107.8z"/>
	<path fill="#FFFFFF" d="M91.3,43.7c0,0.2,0.1,0.3,0.1,0.5c0.1,0.3,0.3,0.5,0.5,0.8c0.5,0.4,1.2,0.7,2.2,0.8c0.2,0,0.4,0,0.7-0.2
		c0.3-0.2,0.5-0.2,0.7-0.2c0.2-0.2,0.4-0.3,0.6-0.4l0-0.2c0.1,0,0.1,0,0.1,0c0.9-0.9,1.5-1.5,1.7-1.7c0.6-0.7,1-1.3,1.2-1.8
		c0-0.1,0-0.1,0-0.2c0-0.3,0.1-0.5,0.2-0.7c-0.2-0.2-0.2-0.5-0.3-0.9c0-0.4-0.2-0.8-0.4-1c-1.3-0.9-2.7-1-4.3-0.4
		c-0.6,0.6-1.1,1-1.4,1.3c-0.8,0.9-1.3,1.8-1.4,2.8C91.5,42.8,91.4,43.3,91.3,43.7z"/>
	<path fill="#FFFFFF" d="M86.5,39.8c0.4,0.3,0.8,0.5,1.1,0.5c0.1,0.1,0.1,0,0.2,0c0.1-0.1,0.2-0.2,0.2-0.2c0.1,0,0.1,0,0.2,0.1
		l0.1-0.1c0.2,0.1,0.5-0.1,0.9-0.5c0.5-0.4,0.8-0.7,1-0.7c-0.1,0.1,0.4-0.4,1.4-1.5c0.6-0.6,1-1.2,1.1-1.7c0.1-0.2,0.1-0.4,0.2-0.6
		c0,0,0-0.1,0-0.1c0-0.3,0-0.5,0.1-0.7c0-0.4-0.1-0.6-0.2-0.7c-0.1-0.1-0.2-0.2-0.3-0.4c-0.4-0.4-1-0.6-1.9-0.6c0-0.1,0-0.1,0-0.1
		c-0.5,0.1-1,0.1-1.2,0.2c-0.2,0.2-0.5,0.3-0.9,0.5c-0.4,0.2-0.7,0.3-0.8,0.4l0,0c-1.4,1.4-2.1,3.2-1.9,5.4c0,0,0,0,0,0
		C86.3,39.6,86.6,39.9,86.5,39.8z"/>
	<path fill="#FFFFFF" d="M78.3,50.2c0.8,0.1,1.4,0.4,1.9,0.8c0.3,0.3,0.5,0.5,0.6,0.9c1.1,0.9,2,1.5,2.5,2c0.1,0.5,0.4,1.1,1,1.6
		c0.1,0.1,0.6,0.5,1.6,1.2c0.2-0.1,0.4-0.1,0.7,0c0.3,0.1,0.6,0.1,0.7,0c0,0,0.2-0.2,0.4-0.5c0.2-0.2,0.3-0.3,0.5-0.2l-0.1-0.2
		c0.1,0,0.2,0.1,0.2,0.1l-0.1-0.1c0-0.1,0.1-0.2,0.1-0.2c0.1,0,0.2,0.1,0.2,0.1l-0.1-0.1c0.1-0.2,0.2-0.3,0.3-0.5
		c0.1-0.2,0.1-0.4,0.1-0.6c0-0.4-0.1-0.8-0.1-1.2c-0.6-0.7-0.9-1.4-1-2.2c-0.1-0.6,0-1.2,0.1-1.8c-0.1-0.1-0.1-0.3,0-0.4
		c0,0,0,0,0,0c0-0.1,0-0.2,0-0.3c0-0.3,0-0.5,0-0.6c-0.1-0.2-0.1-0.5,0.1-0.8c0-0.1,0.1-0.2,0.1-0.3c0.1-0.2,0.1-0.4,0-0.5
		c0.1-0.2,0.1-0.5-0.1-0.8c-0.2-0.4-0.4-0.7-0.4-0.8c-0.9-0.8-1.7-1.1-2.2-1c-0.3,0-0.9,0.1-1.7,0.2c-0.7,0.2-1.3,0.2-1.8,0.1
		c-0.6,0.3-1.4,0.2-2.6,0c-1.4,0-2.6,0.6-3.7,1.8c0,0,0,0.2-0.1,0.5c0,0.2,0,0.4,0.1,0.5c0,0,0,0.1,0,0.1c0.2,1,0.7,1.9,1.4,2.5
		C77.4,49.8,77.8,50.1,78.3,50.2z"/>
	<path fill="#FFFFFF" d="M93.6,46.8c-0.1,0-0.2,0-0.3,0.1c-0.5,0.1-1,0.4-1.3,0.6c-0.4,0.1-0.9,0.5-1.3,1c-0.4,0.5-0.8,1-1,1.5
		l0.1,0.9l0.1,0.8c0.1,0.3,0.2,0.5,0.4,0.7c0.2,0.2,0.6,0.3,1.1,0.4c0.6,0.1,1,0.1,1.2,0.2c0.6-0.1,1.1-0.1,1.4-0.2
		c0.2,0.1,0.4,0.1,0.6-0.1c0.3-0.2,0.5-0.3,0.6-0.4c0.2,0.1,0.4,0,0.6-0.2c0.3-0.3,0.4-0.5,0.5-0.5c0.2,0,0.4,0,0.7-0.3
		c0.4-0.3,0.5-0.4,0.6-0.4c0,0,0.1,0,0.1,0c0.1,0,0.1,0,0.1,0c0.2-0.6,0.4-1,0.6-1.3c-0.1-0.1,0-0.2,0.1-0.4c0-0.1,0.1-0.1,0.2-0.2
		c0.2-0.3,0.3-0.5,0.1-0.6c-0.2-0.1-0.4-0.4-0.4-0.7c-0.1-0.3-0.2-0.6-0.4-0.7c-0.5-0.2-1.4-0.3-2.4-0.3c-0.3,0-0.6,0-0.9,0
		C94.3,46.6,93.9,46.7,93.6,46.8z"/>
	<path fill="#FFFFFF" d="M77.8,42c0.3,0,0.6,0,0.9,0.1c0.3,0,0.6,0,0.8-0.2c0.2,0.1,0.5,0.1,0.8-0.1c0.2-0.1,0.5-0.2,0.7-0.4
		c0-0.1,0.1-0.2,0.2-0.3c0.1-0.1,0.3-0.1,0.6-0.1c0.3,0.1,0.5,0,0.6-0.2c0-0.3,0.1-0.6,0.3-0.7c0.2,0,0.3,0,0.4-0.1
		c0-0.1,0.1-0.2,0.1-0.4c0-0.2,0.1-0.4,0.2-0.5c0.2-0.2,0.3-0.3,0.1-0.6c0.2-0.3,0.2-0.6,0.3-0.9c0.1-0.6,0.1-1.2-0.2-1.7
		c0-0.2-0.1-0.4-0.3-0.5c-0.4-0.3-0.6-0.5-0.6-0.5c-0.3-0.2-0.7-0.2-1-0.1c-0.6,0.1-0.9,0.2-1,0.2c-1.4,0.3-2.4,0.7-2.9,1.3
		c-0.3,0.3-0.6,1.1-1.1,2.3c-0.1,0.6-0.2,1-0.2,1.3c0,0.1,0.1,0.2,0.1,0.3C77,41.1,77.4,41.7,77.8,42z"/>
	<path fill="#FFFFFF" d="M62.6,45.6c0,0.1-0.1,0.3-0.3,0.6c-0.2,0.2-0.2,0.4-0.1,0.6c-0.1,0.1,0,0.3,0.1,0.6c0,0,0,0,0,0.1
		c0.1,0.3,0.1,0.5,0.1,0.7c0.1,0.1,0,0.4,0,0.7c0,0,0,0,0,0c0,0,0,0,0,0c0.1,0.1,0.1,0.2,0,0.3c0.1,0.6,0.2,1.1,0.1,1.6
		c-0.1,0.6-0.3,1.1-0.7,1.5c0,0.3-0.1,0.6-0.1,1c0,0.2,0,0.4,0.1,0.5c0,0.1,0.1,0.2,0.2,0.4l-0.1,0.1c0,0,0.1-0.1,0.1-0.1
		c0,0,0.1,0.1,0.1,0.2l-0.1,0.1c0,0,0.1-0.1,0.2-0.1l-0.1,0.1c0.1,0,0.2,0,0.4,0.2c0.2,0.3,0.4,0.4,0.4,0.4c0.1,0.1,0.3,0.1,0.6,0
		c0.3-0.1,0.4-0.1,0.6,0c0.7-0.5,1.2-0.8,1.2-0.9c0.4-0.4,0.7-0.8,0.8-1.2c0.5-0.3,1.1-0.8,2-1.5c0.1-0.3,0.2-0.5,0.5-0.7
		c0.3-0.3,0.8-0.5,1.5-0.6c0.4-0.1,0.8-0.3,1.1-0.6c0.5-0.5,0.9-1.1,1.1-1.8c0-0.1,0.1-0.2,0.1-0.3c0.1-0.1,0.1-0.3,0.1-0.4
		c0-0.3-0.1-0.4-0.1-0.4c-0.9-0.9-1.8-1.4-2.9-1.4c-0.9,0.2-1.6,0.2-2.1,0c-0.4,0.1-0.8,0.1-1.4-0.1c-0.6-0.1-1.1-0.2-1.3-0.2
		C63.9,44.7,63.3,45,62.6,45.6z"/>
	<path fill="#FFFFFF" d="M56.9,47.1c-0.4,0-0.7,0-1,0c-0.7,0-1.2,0.1-1.6,0.3c-0.1,0.1-0.2,0.3-0.3,0.6c-0.1,0.3-0.2,0.5-0.3,0.6
		c-0.1,0.1-0.1,0.3,0.1,0.5c0.1,0.1,0.1,0.2,0.2,0.2c0,0.1,0.1,0.1,0,0.2c0.2,0.2,0.3,0.6,0.5,1.1c0,0,0,0,0.1,0c0,0,0.1,0,0.1,0
		c0,0,0.2,0.1,0.4,0.3c0.2,0.2,0.4,0.2,0.5,0.2c0.1,0,0.2,0.2,0.4,0.4c0.2,0.2,0.3,0.2,0.4,0.2c0.1,0,0.2,0.1,0.5,0.3
		c0.2,0.1,0.3,0.2,0.5,0.1c0.3,0,0.7,0.1,1.1,0.2c0.1-0.1,0.4-0.1,0.9-0.2c0.4,0,0.7-0.1,0.9-0.3c0.2-0.1,0.3-0.3,0.3-0.6l0.1-0.4
		l0.1-0.9c-0.2-0.4-0.5-0.8-0.8-1.2c-0.4-0.4-0.7-0.7-1.1-0.8c-0.2-0.2-0.5-0.3-0.8-0.4c-0.1,0-0.1-0.1-0.2-0.1
		C57.6,47.3,57.2,47.2,56.9,47.1z"/>
	<path fill="#FFFFFF" d="M65.7,41.3c0.1,0.1,0.1,0.2,0.2,0.4c0,0.2,0.1,0.3,0.1,0.3c0.1,0.1,0.2,0.1,0.3,0.1
		c0.1,0.1,0.2,0.3,0.2,0.6c0.1,0.2,0.3,0.2,0.5,0.1c0.2-0.1,0.4,0,0.5,0c0,0.1,0.1,0.1,0.1,0.2c0.2,0.1,0.4,0.2,0.6,0.3
		c0.2,0.1,0.4,0.1,0.6,0.1c0.2,0.1,0.4,0.1,0.6,0.1c0.3,0,0.5,0,0.7-0.1c0.3-0.3,0.6-0.6,0.8-1.2c0-0.1,0.1-0.2,0.1-0.3
		c0-0.2,0-0.6-0.2-1c-0.4-1-0.7-1.6-0.9-1.8c-0.4-0.5-1.2-0.8-2.3-1.1c0,0-0.3-0.1-0.8-0.1c-0.3-0.1-0.6,0-0.8,0.1
		c0,0-0.1,0.1-0.4,0.4c-0.2,0.1-0.2,0.3-0.2,0.4c-0.2,0.5-0.3,1-0.1,1.5c0.1,0.2,0.1,0.4,0.2,0.6C65.5,41.1,65.5,41.2,65.7,41.3z"/>
	<path fill="#FFFFFF" d="M59.3,39.7c0.8,0.9,1.2,1.3,1.1,1.2c0.2,0,0.4,0.2,0.8,0.6c0.3,0.3,0.6,0.4,0.7,0.4L62,42
		c0.1-0.1,0.1-0.1,0.2-0.1c0,0,0,0.1,0.1,0.1c0.1,0.1,0.1,0.1,0.2,0c0.3,0,0.5-0.1,0.9-0.4c-0.1,0.1,0.1-0.1,0.7-0.7c0,0,0,0,0,0
		c0.1-1.8-0.4-3.2-1.5-4.3l0,0c-0.1-0.1-0.3-0.2-0.6-0.4c-0.3-0.1-0.6-0.3-0.7-0.4c-0.2,0-0.5-0.1-1-0.2c0,0,0,0.1,0,0.1
		c-0.7,0-1.2,0.2-1.5,0.5c-0.1,0.1-0.2,0.2-0.2,0.3c-0.1,0.1-0.1,0.3-0.2,0.6c0,0.1,0.1,0.3,0,0.5c0,0.1,0,0.2,0,0.3
		c0,0.1,0.1,0.2,0.1,0.3C58.5,38.8,58.8,39.2,59.3,39.7z"/>
	<path fill="#FFFFFF" d="M54.2,44.3c0.1,0.2,0.6,0.6,1.3,1.3c0,0,0,0,0.1,0l0,0.2c0.2,0.1,0.4,0.2,0.5,0.3c0.1,0,0.3,0,0.6,0.1
		c0.2,0.1,0.4,0.2,0.5,0.2c0.8-0.1,1.3-0.3,1.7-0.6c0.2-0.2,0.3-0.3,0.4-0.5c0.1-0.1,0.1-0.3,0.1-0.4c0-0.3-0.1-0.7-0.2-1.2
		c-0.1-0.7-0.4-1.5-1.1-2.2c-0.2-0.2-0.6-0.6-1.1-1.1c-1.3-0.5-2.4-0.4-3.4,0.3c-0.2,0.2-0.3,0.4-0.3,0.8c0,0.3-0.1,0.6-0.2,0.7
		c0.1,0.1,0.2,0.4,0.2,0.7c0,0,0,0,0,0C53.4,43.3,53.7,43.8,54.2,44.3z"/>
	<path fill="#FFFFFF" d="M65.2,115.2c-0.8-0.7-1.1-1-0.9-0.9c-0.4-0.3-0.8-0.5-1.1-0.5c-0.1,0-0.1,0-0.2,0c-0.1,0.1-0.2,0.2-0.2,0.2
		c-0.1,0-0.1,0-0.2-0.1l-0.1,0.1c-0.2-0.1-0.5,0.1-0.9,0.5c-0.5,0.4-0.8,0.7-1,0.7c0.1-0.1-0.4,0.4-1.4,1.5c-0.6,0.6-1,1.2-1.1,1.7
		c-0.1,0.2-0.2,0.4-0.2,0.8c0,0.3,0,0.5-0.1,0.7c0,0.1,0,0.2,0.1,0.4c0,0.2,0.1,0.3,0.1,0.4c0.1,0.1,0.2,0.2,0.3,0.4
		c0.4,0.4,1,0.6,1.9,0.6c0,0.1,0,0.1,0,0.1c0.5-0.1,1-0.1,1.2-0.2c0.2-0.2,0.5-0.3,0.9-0.5c0.4-0.2,0.7-0.3,0.8-0.4l0,0
		c1.2-1.1,1.8-2.6,1.9-4.3C65.2,116,65.2,115.6,65.2,115.2z"/>
	<path fill="#FFFFFF" d="M75.4,107.8c0-0.2,0-0.4-0.1-0.5c-0.2-1.1-0.7-2-1.5-2.6c-0.4-0.4-0.9-0.6-1.4-0.7
		c-0.8-0.1-1.4-0.4-1.9-0.8c-0.3-0.3-0.5-0.5-0.6-0.9c-1.1-0.9-2-1.5-2.5-2c-0.1-0.5-0.4-1.1-1-1.6c-0.1-0.1-0.6-0.5-1.6-1.2
		c-0.2,0.1-0.4,0.1-0.7,0c-0.3-0.1-0.6-0.1-0.7,0c0,0-0.2,0.2-0.4,0.5c-0.2,0.2-0.3,0.3-0.5,0.2l0.1,0.2c-0.1,0-0.2-0.1-0.2-0.1
		l0.1,0.1c0,0.1-0.1,0.2-0.1,0.2c-0.1,0-0.2-0.1-0.2-0.1l0.1,0.1c-0.3,0.3-0.4,0.7-0.4,1.1c0,0.2,0,0.4,0.1,0.5
		c0,0.2,0.1,0.5,0.1,0.7c0.8,1,1.1,2.1,1,3.3c0,0.2-0.1,0.4-0.1,0.7c0.2,0.2,0.1,0.3-0.1,0.4c0.1,0.4,0.1,0.7,0,0.9
		c0,0.1,0,0.1,0,0.2c0,0.1,0,0.2,0,0.3c0,0.1,0,0.2-0.1,0.3c-0.1,0.4-0.2,0.6-0.1,0.8c-0.1,0.2-0.1,0.4,0,0.6c0,0,0,0.1,0.1,0.1
		c0.2,0.4,0.4,0.7,0.4,0.8c0.9,0.8,1.7,1.1,2.2,1c0.3,0,0.9-0.1,1.7-0.2c0.7-0.2,1.3-0.2,1.8-0.1c0.6-0.3,1.4-0.2,2.6,0
		c1.3,0,2.6-0.6,3.7-1.8c0,0,0,0,0,0C75.3,108.3,75.3,108.1,75.4,107.8z"/>
	<path fill="#FFFFFF" d="M72.9,112.1c-0.3,0-0.6,0-0.9-0.1c-0.3,0-0.6,0-0.8,0.2c-0.2-0.1-0.5-0.1-0.8,0.1c-0.2,0.1-0.5,0.2-0.7,0.4
		c0,0.1-0.1,0.2-0.2,0.3c-0.1,0.1-0.3,0.1-0.6,0.1c-0.3-0.1-0.5,0-0.6,0.2c0,0.3-0.1,0.6-0.3,0.7c-0.2,0-0.3,0-0.4,0.1
		c0,0.1-0.1,0.2-0.1,0.4c0,0.2-0.1,0.4-0.2,0.5c-0.2,0.2-0.3,0.3-0.1,0.6c-0.4,0.8-0.5,1.4-0.3,2.1c0,0.2,0.1,0.4,0.2,0.5
		c0,0.2,0.1,0.4,0.3,0.5c0.4,0.3,0.6,0.5,0.6,0.5c0.3,0.2,0.7,0.2,1,0.1c0.6-0.1,0.9-0.2,1-0.2c1.4-0.3,2.4-0.7,2.9-1.3
		c0.3-0.3,0.6-1.1,1.1-2.3c0-0.2,0.1-0.3,0.1-0.4c0.1-0.4,0.1-0.7,0.1-0.9C73.8,113.1,73.5,112.5,72.9,112.1z"/>
	<path fill="#FFFFFF" d="M52.1,115.6c1.3,0.9,2.7,1,4.3,0.4c0.6-0.6,1.1-1,1.4-1.3c0.8-0.9,1.3-1.8,1.4-2.8c0.1-0.3,0.1-0.6,0.2-0.8
		c0.1-0.3,0.1-0.5,0.1-0.7c-0.1-0.5-0.3-0.9-0.6-1.2c-0.4-0.3-0.9-0.6-1.6-0.7c-0.2,0-0.4-0.1-0.6-0.1c-0.2,0-0.4,0-0.7,0.2
		c-0.3,0.2-0.5,0.2-0.7,0.2c0,0,0,0,0,0c-0.2,0.2-0.4,0.3-0.6,0.4l0,0.2c-0.1,0-0.1,0-0.1,0c-0.9,0.9-1.5,1.5-1.7,1.7
		c-0.6,0.7-1,1.3-1.2,1.8c0,0.4-0.1,0.7-0.2,0.9c0.1,0.1,0.1,0.3,0.2,0.5c0,0.1,0.1,0.3,0.1,0.5C51.7,115.1,51.8,115.4,52.1,115.6z"
		/>
	<path fill="#FFFFFF" d="M52.8,107.3c0.7,0.3,1.8,0.4,3.3,0.3c0.5-0.1,0.9-0.2,1.4-0.3c0.5-0.1,1-0.3,1.3-0.6c0.4-0.1,0.9-0.5,1.3-1
		c0.4-0.4,0.6-0.8,0.9-1.2c0-0.1,0.1-0.2,0.1-0.3l-0.3-1.7c-0.1-0.3-0.2-0.5-0.4-0.7c-0.2-0.2-0.6-0.3-1.1-0.4
		c-0.6-0.1-1-0.1-1.2-0.2c-0.6,0.1-1.1,0.1-1.5,0.2c-0.2-0.1-0.4-0.1-0.6,0.1c-0.3,0.2-0.5,0.3-0.6,0.4c-0.2-0.1-0.4,0-0.6,0.2
		c-0.3,0.3-0.4,0.5-0.5,0.5c-0.2,0-0.4,0-0.7,0.3c-0.4,0.3-0.5,0.4-0.6,0.4c0,0-0.1,0-0.1,0c-0.1,0-0.1,0-0.1,0
		c-0.2,0.6-0.4,1-0.6,1.3c0.1,0.1,0,0.3-0.3,0.6c-0.2,0.3-0.3,0.5-0.1,0.6c0.1,0.1,0.2,0.2,0.3,0.3c0.1,0.1,0.1,0.2,0.1,0.4
		C52.5,106.9,52.6,107.1,52.8,107.3z"/>
	<path fill="#FFFFFF" d="M92.4,116.3c0-0.3,0-0.5-0.1-0.6c-0.1-0.4-0.4-0.8-0.9-1.3c-0.8-0.9-1.2-1.3-1.1-1.2
		c-0.2,0-0.4-0.2-0.8-0.6c-0.3-0.3-0.6-0.4-0.7-0.4l-0.1-0.1c-0.1,0.1-0.1,0.1-0.2,0.1c0,0,0-0.1-0.1-0.1c-0.1-0.1-0.1-0.1-0.2,0
		c-0.3,0-0.5,0.1-0.9,0.4c0.1-0.1-0.1,0.2-0.7,0.7c0,0.4,0,0.8,0,1.1c0.1,1.3,0.6,2.3,1.5,3.2l0,0c0.1,0.1,0.3,0.2,0.6,0.4
		c0.3,0.1,0.6,0.3,0.7,0.4c0.2,0,0.5,0.1,1,0.2c0,0,0-0.1,0-0.1c0.7,0,1.2-0.2,1.5-0.5c0.1-0.1,0.2-0.2,0.2-0.3
		c0-0.1,0.1-0.1,0.1-0.2c0-0.1,0-0.2,0.1-0.4C92.4,116.7,92.4,116.5,92.4,116.3z"/>
	<path fill="#FFFFFF" d="M97.5,111.1c-0.1-0.4-0.4-0.9-0.9-1.4c-0.1-0.2-0.6-0.6-1.3-1.3c0,0,0,0-0.1,0l0-0.2
		c-0.1,0-0.1-0.1-0.2-0.1c-0.1-0.1-0.2-0.1-0.3-0.2c-0.1,0-0.3,0-0.6-0.1c-0.2-0.1-0.4-0.2-0.5-0.2c-0.3,0-0.6,0.1-0.9,0.2
		c-0.3,0.1-0.6,0.3-0.8,0.5c-0.3,0.3-0.5,0.6-0.5,1c0,0.2,0.1,0.4,0.1,0.7c0,0.1,0.1,0.3,0.1,0.5c0.1,0.7,0.4,1.5,1.1,2.2
		c0.2,0.2,0.6,0.6,1.1,1.1c1.3,0.5,2.4,0.4,3.4-0.3c0.2-0.2,0.3-0.4,0.3-0.8c0-0.1,0-0.2,0-0.3c0-0.2,0.1-0.4,0.2-0.5
		C97.6,111.7,97.5,111.5,97.5,111.1z"/>
	<path fill="#FFFFFF" d="M85.2,113.2c0.1-0.2,0.1-0.3-0.1-0.4c-0.1-0.1-0.1-0.2-0.2-0.4c0-0.2-0.1-0.3-0.1-0.3
		c-0.1-0.1-0.2-0.1-0.3-0.1c-0.1-0.1-0.2-0.3-0.2-0.6c-0.1-0.2-0.3-0.2-0.5-0.1c-0.2,0.1-0.4,0-0.5,0c0-0.1-0.1-0.1-0.1-0.2
		c-0.2-0.1-0.4-0.2-0.6-0.3c-0.2-0.1-0.4-0.1-0.6-0.1c-0.2-0.1-0.4-0.1-0.6-0.1c-0.3,0-0.5,0-0.7,0.1c-0.4,0.3-0.7,0.8-0.9,1.5
		c0,0.2,0,0.5,0.1,0.8c0,0.1,0,0.1,0,0.2c0.4,1,0.7,1.6,0.9,1.8c0.4,0.5,1.2,0.8,2.3,1.1c0,0,0.3,0.1,0.8,0.1c0.3,0.1,0.6,0,0.8-0.1
		c0,0,0.1-0.1,0.4-0.4c0.2-0.1,0.2-0.3,0.2-0.4c0.1-0.1,0.1-0.2,0.1-0.4C85.6,114.4,85.5,113.8,85.2,113.2z"/>
	<path fill="#FFFFFF" d="M83.7,109c0.4-0.1,0.8-0.1,1.4,0.1c0.6,0.1,1.1,0.2,1.3,0.2c0.4,0.1,1-0.2,1.7-0.8c0-0.1,0.1-0.3,0.3-0.6
		c0,0,0,0,0,0c0.1-0.2,0.2-0.4,0.1-0.6c0.1-0.1,0-0.3-0.1-0.6c0-0.1,0-0.1-0.1-0.2c0,0,0,0,0-0.1c0-0.2,0-0.3,0-0.4
		c-0.1-0.1-0.1-0.4,0-0.7c-0.1-0.1-0.2-0.2,0-0.3c0-0.2,0-0.3-0.1-0.5c-0.1-1,0.1-1.9,0.7-2.7c0-0.1,0-0.2,0-0.3
		c0-0.2,0-0.4,0.1-0.6c0-0.3-0.1-0.6-0.3-0.9l0.1-0.1c0,0-0.1,0.1-0.1,0.1c0,0-0.1-0.1-0.1-0.2l0.1-0.1c0,0-0.1,0.1-0.2,0.1l0.1-0.1
		c-0.1,0-0.2,0-0.4-0.2c-0.2-0.3-0.4-0.4-0.4-0.4c-0.1-0.1-0.3-0.1-0.6,0c-0.3,0.1-0.4,0.1-0.6,0c-0.7,0.5-1.2,0.8-1.2,0.9
		c-0.4,0.4-0.7,0.8-0.8,1.2c-0.5,0.3-1.1,0.8-2,1.5c-0.1,0.3-0.2,0.5-0.5,0.7c-0.3,0.3-0.8,0.5-1.5,0.6c-0.4,0.1-0.8,0.3-1.1,0.6
		c-0.6,0.5-1,1.2-1.1,2.1c-0.1,0.1-0.1,0.3-0.1,0.4c0,0.3,0.1,0.4,0.1,0.4c0,0,0,0,0.1,0.1c0.8,0.9,1.8,1.3,2.8,1.4
		C82.6,108.8,83.3,108.8,83.7,109z"/>
	<path fill="#FFFFFF" d="M91.8,106.2c0.3,0.2,0.6,0.4,1,0.5c0.4,0.1,0.7,0.2,1.1,0.3c1.2,0.1,2.1,0,2.6-0.2c0.1-0.1,0.2-0.3,0.3-0.6
		c0-0.1,0-0.1,0.1-0.2c0.1-0.2,0.2-0.3,0.3-0.4c0.1-0.1,0.1-0.3-0.1-0.5c-0.2-0.2-0.3-0.3-0.2-0.4c-0.2-0.2-0.3-0.6-0.5-1.1
		c0,0,0,0-0.1,0c0,0-0.1,0-0.1,0c0,0-0.2-0.1-0.4-0.3c-0.2-0.2-0.4-0.2-0.5-0.2c-0.1,0-0.2-0.2-0.4-0.4c-0.2-0.2-0.3-0.2-0.4-0.2
		c-0.1,0-0.2-0.1-0.5-0.3c-0.2-0.1-0.3-0.2-0.5-0.1c-0.3,0-0.7-0.1-1.1-0.2c-0.1,0.1-0.4,0.1-0.9,0.2c-0.4,0-0.7,0.1-0.9,0.3
		c-0.2,0.1-0.3,0.3-0.3,0.6l-0.2,1.3c0,0.1,0.1,0.2,0.1,0.2c0.2,0.3,0.4,0.6,0.7,0.9C91.1,105.9,91.5,106.1,91.8,106.2z"/>
</g>
</svg>
