<?xml version="1.0" encoding="utf-8"?>
<!-- Generator: Adobe Illustrator 18.1.0, SVG Export Plug-In . SVG Version: 6.00 Build 0)  -->
<svg version="1.1" id="Layer_1" xmlns="http://www.w3.org/2000/svg" xmlns:xlink="http://www.w3.org/1999/xlink" x="0px" y="0px"
	 viewBox="0 0 1000 1000" enable-background="new 0 0 1000 1000" xml:space="preserve">
<g>
	<path fill="none" d="M225.6,541.1c-0.7-3.1-1.6-6.2-1.6-9.3v3c0,2.1,0.8,4.2,1.3,6.4C225.4,541.2,225.4,541.2,225.6,541.1z"/>
	<path fill="none" d="M240.3,536.1c0.4-0.1,0.8-0.2,1.2-0.4c-2.3-8.3-4.1-16.7-5.4-25.3C237.1,519,238.5,527.6,240.3,536.1z"/>
	<path fill="none" d="M750.6,442.9c11.3,68.8-5.4,140.9-49.1,198.2c3.7,1.4,7.4,2.7,11.1,4c0.9,0.3,1.8,0.6,2.8,0.9
		c3.4,1.2,6.8,2.3,10.2,3.4C761.5,585.3,769.2,511.8,750.6,442.9z"/>
	<path fill="#FF993D" d="M750.6,442.9c-4.7-17.3-10.8-34.3-18.8-50.8c-50.7-105.5-163.8-173.3-282.2-154c-8,0.8-15.6,3.1-23.3,5
		c25.6-5.3,51.6-5.8,76.2-2.3c97.6,3.6,183.4,70.8,216.8,160c27.1,68.5,24.2,148.8-15.1,213.9c-5,8.1-11.5,14.6-14.5,14.6
		c-3-0.1-1.5-6.7,3.3-14.5c62.9-110.6,28.8-264.6-86.7-331.1c-0.2,0.3-0.5,0.5-1.1,0.6c-2.8,0.4-8.1-2.3-12.5-4.7
		c-12.4-7.4-25.4-13.7-39.1-19c-20.6-6.2-42.2-9-63.6-8.7c15.9,0.1,31.8,2.4,47.1,5.6c6.2,1.5,10.7,4.1,9.6,5.8
		c-1,1.6-6.8,1.8-13,0.2c-55.6-11.9-118.6,4-164.8,26.2c-54.9,36.9-89.6,97.8-94.6,158.9c-2.4,26.7,0.5,53.1,7.8,77.4
		c1.3-0.2,2.6-0.4,3.9-0.6c2.8-0.4,5.7-0.9,8.6-1.3c2.2-0.3,4.5-0.5,6.7-0.8c2.9-0.3,5.9-0.6,8.9-0.9c2.3-0.2,4.6-0.3,6.9-0.5
		c3.1-0.2,6.2-0.3,9.4-0.4c2.3-0.1,4.6-0.2,6.9-0.2c3.3,0,6.7,0,10.1,0c2.2,0,4.4,0,6.7,0.1c3.8,0.1,7.7,0.4,11.6,0.6
		c1.9,0.1,3.8,0.2,5.7,0.4c5.9,0.5,11.8,1.1,17.8,1.9c5.4,0.7,10.7,1.5,16,2.5c0.6,0.1,1.2,0.2,1.8,0.3c5,0.9,10.1,1.9,15.1,3
		c0.8,0.2,1.7,0.4,2.5,0.5c4.9,1.1,9.8,2.3,14.7,3.5c0.8,0.2,1.7,0.4,2.5,0.7c4.9,1.3,9.9,2.7,14.8,4.1c0.7,0.2,1.4,0.4,2,0.6
		c5.1,1.5,10.2,3.1,15.3,4.8c0.2,0.1,0.5,0.2,0.7,0.2c5.1,1.7,10.3,3.5,15.4,5.3c0.4,0.1,0.7,0.3,1.1,0.4c5,1.8,10.1,3.7,15.1,5.6
		c0.6,0.2,1.3,0.5,1.9,0.7c4.9,1.9,9.8,3.8,14.7,5.8c0.7,0.3,1.4,0.6,2.1,0.9c4.9,2,9.8,4,14.7,6.1c0.6,0.2,1.2,0.5,1.7,0.7
		c5.1,2.1,10.1,4.3,15.1,6.5c0.1,0.1,0.3,0.1,0.4,0.2c18,7.9,35.9,16.1,53.8,24.2c2.5,1.2,5.1,2.3,7.6,3.5c1.8,0.8,3.6,1.6,5.4,2.5
		c4.1,1.9,8.2,3.7,12.3,5.5c1.2,0.5,2.4,1,3.5,1.6c4.1,1.8,8.2,3.6,12.2,5.4c1,0.5,2.1,0.9,3.1,1.4c4.2,1.8,8.4,3.6,12.5,5.3
		c1,0.4,1.9,0.8,2.9,1.2c4.4,1.8,8.8,3.6,13.2,5.4c1.1,0.4,2.2,0.9,3.3,1.3c4.4,1.7,8.7,3.4,13.1,5.1c1.1,0.4,2.1,0.8,3.2,1.2
		c0.7,0.3,1.5,0.5,2.3,0.8C745.2,583.8,762,511.7,750.6,442.9z M367.8,307.1c-16.9,11-31.9,25.4-44.5,41.7c2.4-0.8,4.9-1.2,7.4-1.2
		c20.9,0,36.9,28.6,36.9,63.8c0,33.4-11.6,60.8-35.6,63.6v47h-8v-47c-16-2.8-32.9-30.1-32.9-63.6c0-2.9,1-5.7,1.3-8.5
		c-10.2,27.6-13.2,56.4-7.7,82.3c0.3,1.5,0.3,3.8-0.2,4.8c-0.5,1.1-1,0.9-1.4-0.7c-6.2-30.7-2.4-67.5,12.2-101.5
		c0.1-0.3,0.3-0.5,0.4-0.8c3.8-15.4,11-27.7,20.1-34.2c14-19.2,31.5-36,50.6-49.1c2.9-2.1,5.5-2.4,5.9-1.6
		C372.7,303.2,370.4,304.9,367.8,307.1z"/>
	<path fill="#FF993D" d="M717.6,352.8c-7.8-13-16.7-25.5-27-37.3c-29.9-34.3-67-58.7-107-73.1C637.8,263.4,684.9,302.2,717.6,352.8z
		"/>
	<path fill="#FF993D" d="M391.1,264c8.2-4.8,17.4-7.3,26-11c-26.6,6.3-52.4,18.4-76.3,35.1c-1.6,2.8-5,6.3-9.2,10.1
		c-9.5,9.8-19,19.5-26.8,30.6c0.6-0.2,1.2-0.2,1.5,0c1.3,1.1-1.2,5.5-4.7,10.3c-6.7,9-12.6,18.4-17.9,28.2c-0.1,3.5-0.2,7-0.4,10.4
		C303.6,330.3,341.5,288.1,391.1,264z"/>
	<path fill="#FF993D" d="M267.2,439c0-0.4,0.1-0.9,0.2-1.3c-3.2,6.2-6.8,11.7-10.8,16.6c-2.4,25.6-0.5,51.3,5.4,76
		c1.1-0.3,2.1-0.5,3.2-0.8c2-0.5,4.1-0.8,6.1-1.3c1.5-0.3,3.1-0.6,4.6-0.9C266.9,500.1,263.3,470,267.2,439z"/>
	<path fill="#FFCC9E" d="M337,272.1c75-59.1,182.8-73.3,270.3-32.2c13.4,5.7,24.9,10,27.2,6.9c1.9-2.6-7-11.9-21-18.1
		c-92.3-45.2-209.2-31.5-289,34.1c-18.6,14.3-34.8,31-48.6,49.4c2,6.2,3.6,12.7,4.9,19.5C296.3,309.3,315.3,289.1,337,272.1z"/>
	<path fill="#FFCC9E" d="M283.7,364.5c0,0.9-0.1,1.8-0.1,2.7c5.3-9.8,11.2-19.3,17.9-28.2c3.6-4.8,6-9.2,4.7-10.3
		c-0.3-0.2-0.8-0.2-1.5,0c7.9-11,17.4-20.8,26.8-30.6c4.2-3.8,7.6-7.3,9.2-10.1c23.9-16.7,49.7-28.8,76.3-35.1
		c-8.6,3.7-17.8,6.2-26,11c-49.6,24.1-87.4,66.3-107.9,113.7c-1.6,22.9-7.3,43.5-15.9,60c0,0.4-0.1,0.9-0.2,1.3
		c-3.9,31-0.3,61.1,8.6,88.3c1.3-0.2,2.5-0.5,3.8-0.7c0.9-0.2,1.8-0.3,2.7-0.5c-7.3-24.4-10.2-50.7-7.8-77.4
		c5-61.1,39.7-122,94.6-158.9c46.2-22.1,109.2-38.1,164.8-26.2c6.2,1.6,12,1.4,13-0.2c1.1-1.6-3.4-4.2-9.6-5.8
		c-15.3-3.2-31.2-5.5-47.1-5.6c21.4-0.3,43,2.4,63.6,8.7c13.7,5.3,26.7,11.5,39.1,19c4.4,2.4,9.6,5.1,12.5,4.7
		c0.6-0.1,0.9-0.3,1.1-0.6c115.5,66.5,149.6,220.5,86.7,331.1c-4.8,7.8-6.3,14.4-3.3,14.5c3,0.1,9.4-6.5,14.5-14.6
		c39.3-65.1,42.2-145.4,15.1-213.9c-33.3-89.2-119.1-156.4-216.8-160c-24.6-3.4-50.6-3-76.2,2.3c7.7-1.9,15.3-4.2,23.3-5
		c118.5-19.3,231.5,48.4,282.2,154c7.9,16.5,14.1,33.5,18.8,50.8c18.6,68.9,10.9,142.4-25.1,206.5c1.2,0.4,2.4,0.8,3.6,1.2
		c0.6,0.2,1.1,0.3,1.7,0.5c48-83.5,44.9-177.7,4.8-266.3c-5.4-11.1-11.4-21.8-18-32c-32.7-50.5-79.8-89.3-134-110.3
		c-41.7-16.2-87.5-21.8-134.3-14.2c-49.6,7.8-95.5,31.9-129.9,65.8c-14.1,11.6-27,25.1-38.3,39.9
		C282.8,343.6,283.7,353.9,283.7,364.5z"/>
	<path fill="#FFCC9E" d="M255.8,454.2c-9.4,11.6-17.8,19-33.8,20.8v56.8c0,3.1,1.9,6.2,2.6,9.3c0.1,0,0.6-0.1,0.7-0.1
		c1.8-0.7,3.9-1.3,5.8-1.9c2.4-0.8,4.8-1.6,7.2-2.4c0.6-0.2,1.3-0.4,1.9-0.6c-1.8-8.5-3.2-17-4.1-25.7c1.2,8.6,3.1,17,5.4,25.3
		c1.2-0.4,2.4-0.7,3.6-1.1c3.5-1,7.1-2,10.8-3c2-0.5,3.6-1,5.6-1.5C255.7,505.5,253.4,479.9,255.8,454.2z"/>
	<path fill="#FFCC9E" d="M212,540.9c0-1.9-1.1-3.8-1.6-5.6c-0.6-1.9-1.2-3-1.5-1.9c-0.3,1.1-0.1,3.4,0.5,5.6
		c0.7,2.4,1.5,4.9,2.3,7.4c0.1-0.1,0.4-0.1,0.4-0.2V540.9z"/>
	<path fill="#FFCC9E" d="M442.2,185.1c124.3-20,246.3,41.3,310.9,144.8c21.7,34.1,36.1,72.1,45.5,108.3c0.8,3.1,1.8,4.8,2.3,3.5
		c0.5-1.5,0.2-5-0.6-8.4c-18.3-77.2-63-148.1-127.9-195.7c-64.6-47.9-149.7-69.7-230.1-55.8c-69.6,11.4-134.4,49.1-179,102.3
		c0.4,0.6,0.7,1.1,1.1,1.7C308.4,233.3,372.6,195.8,442.2,185.1z"/>
	<path fill="#FFCC9E" d="M201.6,510.3c0.3,1.9,1,2.8,1.4,2.1c0.3-1.2,0.4-3.9,0-5.7c-2-11.6-3.1-23.5-3.4-35.5
		c-0.7-0.3-1.4-0.7-2.1-1.1C197.8,483.7,199.2,497.2,201.6,510.3z"/>
	<path fill="#FFCC9E" d="M312.9,253c101.1-86,250.9-80.5,355.3-9.2c2.2,1.5,3.9,2,4.3,1.7c0.2-0.6-1.4-2.2-3.4-3.5
		c-71.4-48.7-160.9-65.5-247.1-47.1c-46.5,9.9-90.3,31.6-125.1,66.3c-10.4,10.7-19.7,21.6-28.1,32.9c0.6,1.2,1.1,2.5,1.6,3.7
		C282.7,281.6,296.8,266.6,312.9,253z"/>
	<path fill="#FFCC9E" d="M366.5,303.7c-19.1,13.1-36.6,29.9-50.6,49.1c2.4-1.7,4.9-3.1,7.5-3.9c12.6-16.3,27.6-30.7,44.5-41.7
		c2.5-2.2,4.8-3.9,4.5-5C372,301.3,369.4,301.6,366.5,303.7z"/>
	<path fill="#FFCC9E" d="M295.4,387.8c-14.6,33.9-18.4,70.8-12.1,101.5c0.3,1.6,1,1.8,1.5,0.7c0.5-1.1,0.7-3.3,0.4-4.8
		c-5.5-25.9-2-54.7,8.1-82.3c0.4-5.6,1.3-10.9,2.5-15.9C295.7,387.3,295.5,387.5,295.4,387.8z"/>
	<path fill="#FFCC9E" d="M393.9,214c3.8-1.5,6.5-3.3,6.2-4c-0.3-0.9-3.6-0.4-7.5,1.1c-47.8,17.9-89.8,49.3-121.3,88.8
		c0.5,1.1,1,2.2,1.4,3.3C304.2,263.7,346.4,232.4,393.9,214z"/>
	<path fill="#FFCC9E" d="M279.4,303.8c-0.7-0.6-2.8,0.7-5.3,3c0.6,1.6,1.2,3.2,1.7,4.8C278.6,307.9,280.2,304.5,279.4,303.8z"/>
	<path fill="#FFCC9E" d="M224,534.9v6.9c0-0.2,0.9-0.3,1.4-0.5C224.9,539.1,224,537,224,534.9z"/>
	<path fill="#FFCC9E" d="M211.1,474.5c-0.1,14.4-5.1,28.8,2.9,43V475C214,474.9,212.1,474.7,211.1,474.5z"/>
	<path fill="#487157" d="M364.9,721.8c-84.1-54.6-116.4-120-288.6-72.6c0,0,0.1-0.2,0.3-0.4c-15.9,15.3-112,117.5,180.7,82.7
		c31-3.7,58.4-6.3,82.6-8.1c4-0.3,8-0.6,11.8-0.8C356.3,722.3,360.7,722,364.9,721.8z"/>
	<path fill="#55924E" d="M183.9,559.5c2.3-1.2,4.6-2.4,6.9-3.5C188.5,557.2,186.2,558.3,183.9,559.5z"/>
	<path fill="#55924E" d="M744.3,655c0.6,0.2,1.2,0.3,1.8,0.5C745.5,655.3,744.9,655.2,744.3,655z"/>
	<path fill="#55924E" d="M842.6,668.2c-0.8,0-1.5,0-2.3,0C841.1,668.2,841.8,668.2,842.6,668.2z"/>
	<path fill="#55924E" d="M173.5,565.3c2.3-1.3,4.6-2.6,6.9-3.8C178.1,562.7,175.8,564,173.5,565.3z"/>
	<path fill="#55924E" d="M776,662.5c1,0.2,1.9,0.4,2.9,0.6C778,662.9,777,662.7,776,662.5z"/>
	<path fill="#55924E" d="M759.9,659c0.9,0.2,1.8,0.4,2.7,0.6C761.7,659.5,760.8,659.2,759.9,659z"/>
	<path fill="#55924E" d="M906.7,657.5c0.1,0,0.1,0,0.2,0c-23.4,10.8-182.9,80.3-371-35.2c-205-125.9-326.3-63-362.7-56.8
		c-60.7,35-93.2,78.8-96.5,83.3c-0.2,0.2-0.3,0.4-0.3,0.4c172.1-47.4,204.5,18.1,288.6,72.6c19.5,12.7,41.9,24.8,69.4,34.7
		c10.7,3.9,22.2,7.4,34.6,10.5c25.5,6.4,54.9,11.1,89.5,13.3C810.3,796,961.1,633.6,961.1,633.6C942.8,644.1,924.7,652,906.7,657.5z
		"/>
	<path fill="#55924E" d="M194.9,554c2.3-1.1,4.6-2.2,7-3.3C199.5,551.8,197.2,552.9,194.9,554z"/>
	<path fill="#55924E" d="M873,665.3c0.9-0.1,1.8-0.3,2.6-0.4C874.8,665,873.9,665.2,873,665.3z"/>
	<path fill="#55924E" d="M825,668.2c0.3,0,0.6,0,1,0C825.6,668.3,825.3,668.2,825,668.2z"/>
	<path fill="#55924E" d="M715.3,646c-0.9-0.3-1.8-0.6-2.8-0.9C713.5,645.4,714.4,645.7,715.3,646z"/>
	<path fill="#55924E" d="M856.5,667.3c0.9-0.1,1.8-0.2,2.7-0.2C858.3,667.2,857.4,667.3,856.5,667.3z"/>
	<path fill="#55924E" d="M889.7,662.1c0.7-0.2,1.4-0.3,2.1-0.5C891.1,661.7,890.4,661.9,889.7,662.1z"/>
	<path fill="#55924E" d="M792.5,665.3c0.9,0.1,1.8,0.2,2.7,0.4C794.3,665.5,793.4,665.4,792.5,665.3z"/>
	<path fill="#55924E" d="M809,667.2c0.7,0.1,1.3,0.1,2,0.1C810.3,667.3,809.7,667.3,809,667.2z"/>
	<path fill="#55924E" d="M225.2,541.3c-0.5,0.2-1.2,0.3-1.2,0.5v0.1c0-0.3,1.2-0.6,1.9-0.8c-0.1,0-0.2,0.1-0.4,0.1
		C225.4,541.2,225.3,541.2,225.2,541.3z"/>
	<path fill="#55924E" d="M502.3,556c-5-1.9-10.1-3.8-15.1-5.6C492.3,552.2,497.3,554,502.3,556z"/>
	<path fill="#55924E" d="M271.2,528.2c-2,0.4-4.1,0.8-6.1,1.3C267.1,529,269.1,528.6,271.2,528.2z"/>
	<path fill="#55924E" d="M317.1,522.1c-2.3,0.1-4.6,0.3-6.9,0.5C312.6,522.4,314.8,522.2,317.1,522.1z"/>
	<path fill="#55924E" d="M666.5,627.3c-1-0.4-1.9-0.8-2.9-1.2C664.6,626.5,665.6,626.9,666.5,627.3z"/>
	<path fill="#55924E" d="M350.2,521.6c-2.2-0.1-4.4-0.1-6.7-0.1C345.8,521.5,348,521.5,350.2,521.6z"/>
	<path fill="#55924E" d="M367.5,522.6c-1.9-0.2-3.8-0.2-5.7-0.4C363.7,522.4,365.6,522.4,367.5,522.6z"/>
	<path fill="#55924E" d="M699.3,640.2c-1.1-0.4-2.1-0.8-3.2-1.2C697.2,639.5,698.2,639.9,699.3,640.2z"/>
	<path fill="#55924E" d="M401.3,526.9c-5.3-0.9-10.7-1.8-16-2.5C390.7,525.1,396,526,401.3,526.9z"/>
	<path fill="#55924E" d="M683,634c-1.1-0.4-2.2-0.9-3.3-1.3C680.8,633.1,681.9,633.6,683,634z"/>
	<path fill="#55924E" d="M301.4,523.4c-2.3,0.2-4.5,0.5-6.7,0.8C296.9,523.9,299.1,523.7,301.4,523.4z"/>
	<path fill="#55924E" d="M418.2,530.2c-5-1.1-10-2.1-15.1-3C408.2,528.1,413.2,529.1,418.2,530.2z"/>
	<path fill="#55924E" d="M606.9,601.1c-17.8-8.1-35.7-16.3-53.8-24.2C571.1,584.8,589,593,606.9,601.1z"/>
	<path fill="#55924E" d="M619.9,607c-1.8-0.8-3.6-1.6-5.4-2.5C616.3,605.3,618.1,606.2,619.9,607z"/>
	<path fill="#55924E" d="M470.1,544.4c-5.1-1.7-10.2-3.3-15.3-4.8C459.9,541.2,465,542.8,470.1,544.4z"/>
	<path fill="#55924E" d="M635.8,614.1c-1.2-0.5-2.4-1-3.5-1.6C633.4,613,634.6,613.5,635.8,614.1z"/>
	<path fill="#55924E" d="M435.5,534.3c-4.9-1.3-9.8-2.4-14.7-3.5C425.6,531.8,430.6,533,435.5,534.3z"/>
	<path fill="#55924E" d="M552.6,576.7c-5-2.2-10.1-4.4-15.1-6.5C542.6,572.3,547.6,574.5,552.6,576.7z"/>
	<path fill="#55924E" d="M326.6,521.6c2.3-0.1,4.6-0.2,6.9-0.2C331.1,521.5,328.8,521.6,326.6,521.6z"/>
	<path fill="#55924E" d="M519,562.5c-4.9-2-9.8-3.9-14.7-5.8C509.2,558.6,514.1,560.5,519,562.5z"/>
	<path fill="#55924E" d="M486.1,550c-5.1-1.8-10.2-3.6-15.4-5.3C475.9,546.4,481,548.1,486.1,550z"/>
	<path fill="#55924E" d="M535.8,569.5c-4.9-2.1-9.8-4.1-14.7-6.1C526,565.4,530.9,567.4,535.8,569.5z"/>
	<path fill="#55924E" d="M452.8,539c-4.9-1.4-9.8-2.8-14.8-4.1C442.9,536.2,447.8,537.6,452.8,539z"/>
	<path fill="#55924E" d="M651.1,620.8c-1-0.5-2.1-0.9-3.1-1.4C649,619.9,650.1,620.3,651.1,620.8z"/>
	<path fill="#55924E" d="M730.9,651C730.8,651,730.8,651,730.9,651c-0.6-0.2-1.2-0.3-1.7-0.5C729.7,650.7,730.3,650.9,730.9,651z"/>
	<path fill="#55924E" d="M238.4,536.6c-2.4,0.8-4.8,1.6-7.1,2.4C233.7,538.2,236,537.4,238.4,536.6z"/>
	<path fill="#55924E" d="M255.9,531.7c-3.6,0.9-7.2,1.9-10.8,3C248.7,533.6,252.3,532.6,255.9,531.7z"/>
	<path fill="#55924E" d="M279.6,526.5c2.1-0.4,4.3-0.7,6.5-1c-1.3,0.2-2.6,0.4-3.9,0.6C281.3,526.2,280.5,526.4,279.6,526.5z"/>
	<path fill="#55924E" d="M212,546.2L212,546.2c0,0-0.2,0.1-0.3,0.1c-1.8,0.8-3.6,1.5-5.4,2.3C208.2,547.9,210,547.1,212,546.2z"/>
	<path fill="#36845B" d="M214,546.2c0-1.5,8-3,8-4.4v-0.1v-6.9v-3V475c16-1.8,24.3-9.2,33.8-20.8c4-4.9,8-10.4,11.2-16.6
		c8.6-16.4,14.5-37.1,16.1-60c0.2-3.4,0.5-6.9,0.5-10.4c0-0.9,0.1-1.8,0.1-2.7c0-10.6-0.9-20.9-2.6-30.6c-0.1-0.7-0.2-1.5-0.3-2.2
		c-1.3-6.8-2.9-13.4-4.9-19.5c-0.1-0.2-0.1-0.3-0.1-0.5c-0.5-1.7-1.2-3.2-1.7-4.8c-0.4-1.2-0.8-2.4-1.3-3.6
		c-0.4-1.1-0.9-2.2-1.4-3.3c-0.3-0.7-0.6-1.5-1-2.2c-0.6-1.2-1.1-2.5-1.6-3.7c-1.4-2.8-2.9-5.5-4.4-8.1c-0.4-0.6-0.7-1.1-1.1-1.7
		c-11.8-19-27.8-30.7-45.4-30.7c-36.4,0-65.9,49.7-65.9,111c0,49.3,19.1,91,45.5,105.5c0.7,0.4,1.4,0.7,2.1,1.1
		c3.1,1.5,7.3,2.6,10.6,3.4c1,0.2,3.8,0.4,3.8,0.6v42.5v23.3V546.2L214,546.2z"/>
	<path fill="#36845B" d="M295.8,387c-1.2,5-2.1,10.4-2.5,15.9c-0.2,2.8-2.1,5.6-2.1,8.5c0,33.4,16.9,60.8,32.9,63.6v47h8v-47
		c24-2.8,35.6-30.1,35.6-63.6c0-35.3-16.5-63.8-37.4-63.8c-2.5,0-4.8,0.4-7.1,1.2c-2.6,0.9-5,2.2-7.4,3.9
		C306.7,359.3,299.6,371.6,295.8,387z"/>
	<path fill="#5DB65F" d="M535.8,620.6c188.1,115.5,347.6,46.9,371,36.1c-0.1,0-0.1,0.5-0.2,0.5c-5,1.5-9.9,3.1-14.8,4.2
		c-0.7,0.2-1.4,0.5-2.1,0.6c-4.7,1.1-9.4,2.1-14.1,2.9c-0.9,0.1-1.8,0.3-2.6,0.5c-4.6,0.7-9.2,1.3-13.8,1.8
		c-0.9,0.1-1.8,0.2-2.7,0.3c-4.6,0.4-9.3,0.7-13.9,0.9c-0.8,0-1.5,0-2.3,0c-4.8,0.1-9.6,0.1-14.4,0c-0.3,0-0.6,0-1,0
		c-4.7-0.2-9.3-0.4-14-0.8c-0.7-0.1-1.3-0.1-2-0.1c-4.6-0.4-9.2-1-13.9-1.6c-0.9-0.1-1.8-0.2-2.7-0.4c-4.5-0.6-9-1.4-13.5-2.2
		c-1-0.2-1.9-0.4-2.9-0.6c-4.5-0.9-9-1.8-13.5-2.9c-0.9-0.2-1.8-0.4-2.7-0.6c-4.6-1.1-9.2-2.3-13.8-3.5c-0.6-0.2-1.2-0.3-1.8-0.5
		c-4.5-1.2-9-2.6-13.4-3.9c-0.6-0.2-1.1-0.3-1.7-0.5c-1.2-0.4-2.4-0.8-3.6-1.2c-3.4-1.1-6.8-2.2-10.2-3.4c-0.9-0.3-1.8-0.6-2.8-0.9
		c-3.7-1.3-7.4-2.6-11.1-4c-0.8-0.3-1.5-0.5-2.3-0.8c-1.1-0.4-2.1-0.8-3.2-1.2c-4.4-1.6-8.7-3.3-13.1-5.1c-1.1-0.4-2.2-0.9-3.3-1.3
		c-4.4-1.8-8.8-3.5-13.2-5.4c-1-0.4-1.9-0.8-2.9-1.2c-4.2-1.8-8.3-3.5-12.5-5.3c-1-0.5-2.1-0.9-3.1-1.4c-4.1-1.8-8.1-3.6-12.2-5.4
		c-1.2-0.5-2.4-1-3.5-1.6c-4.1-1.8-8.2-3.7-12.3-5.5c-1.8-0.8-3.6-1.6-5.4-2.5c-2.5-1.1-5.1-2.3-7.6-3.5
		c-17.8-8.1-35.7-16.3-53.8-24.2c-0.1-0.1-0.3-0.1-0.4-0.2c-5-2.2-10.1-4.4-15.1-6.5c-0.6-0.2-1.2-0.5-1.7-0.7
		c-4.9-2.1-9.8-4.1-14.7-6.1c-0.7-0.3-1.4-0.6-2.1-0.9c-4.9-2-9.8-3.9-14.7-5.8c-0.6-0.2-1.3-0.5-1.9-0.7c-5-1.9-10.1-3.8-15.1-5.6
		c-0.4-0.1-0.7-0.3-1.1-0.4c-5.1-1.8-10.2-3.6-15.4-5.3c-0.2-0.1-0.5-0.2-0.7-0.2c-5.1-1.7-10.2-3.3-15.3-4.8
		c-0.7-0.2-1.4-0.4-2-0.6c-4.9-1.4-9.8-2.8-14.8-4.1c-0.8-0.2-1.7-0.4-2.5-0.7c-4.9-1.3-9.8-2.4-14.7-3.5c-0.8-0.2-1.7-0.4-2.5-0.5
		c-5-1.1-10-2.1-15.1-3c-0.6-0.1-1.2-0.2-1.8-0.3c-5.3-0.9-10.7-1.8-16-2.5c-6-0.8-12-1.4-17.8-1.9c-1.9-0.2-3.8-0.2-5.7-0.4
		c-3.9-0.3-7.7-0.5-11.6-0.6c-2.2-0.1-4.4-0.1-6.7-0.1c-3.4,0-6.8-0.1-10.1,0c-2.3,0-4.6,0.1-6.9,0.2c-3.2,0.1-6.3,0.2-9.4,0.4
		c-2.3,0.1-4.6,0.3-6.9,0.5c-3,0.2-6,0.5-8.9,0.9c-2.3,0.2-4.5,0.5-6.7,0.8c-2.9,0.4-5.7,0.8-8.6,1.3c-2.2,0.3-4.4,0.7-6.5,1
		c-1.3,0.2-2.5,0.5-3.8,0.7c-1.6,0.3-3.1,0.6-4.6,0.9c-2,0.4-4.1,0.8-6.1,1.3c-1.1,0.2-2.1,0.5-3.2,0.8c-2,0.5-4,1-6,1.5
		c-3.6,0.9-7.2,1.9-10.8,3c-1.2,0.4-2.4,0.7-3.6,1.1c-0.4,0.1-0.8,0.2-1.2,0.4c-0.6,0.2-1.3,0.4-1.9,0.6c-2.4,0.8-4.8,1.6-7.1,2.4
		c-1.9,0.6-3.8,1.3-5.6,1.9c-0.7,0.3-1.4,0.6-2.2,0.8c-3.8,1.4-7.6,2.9-11.3,4.4c-1.9,0.8-3.9,1.6-5.8,2.5c-1.5,0.7-3.1,1.3-4.6,2
		c-2.3,1.1-4.7,2.2-7,3.3c-1.4,0.7-2.7,1.3-4.1,2c-2.3,1.2-4.6,2.3-6.9,3.5c-1.2,0.6-2.3,1.3-3.5,1.9c-2.3,1.3-4.7,0.8-6.9,2.1
		c-0.1,0.1-0.3-1.5-0.4-1.5c0,0,0,0,0,0C209.6,562,330.9,494.7,535.8,620.6z"/>
</g>
</svg>
