<?xml version="1.0" encoding="utf-8"?>
<!-- Generator: Adobe Illustrator 14.0.0, SVG Export Plug-In . SVG Version: 6.00 Build 43363)  -->
<!DOCTYPE svg PUBLIC "-//W3C//DTD SVG 1.1//EN" "http://www.w3.org/Graphics/SVG/1.1/DTD/svg11.dtd">
<svg version="1.1" id="Layer_1" xmlns="http://www.w3.org/2000/svg" xmlns:xlink="http://www.w3.org/1999/xlink" x="0px" y="0px"
	 width="150px" height="150px" viewBox="0 0 150 150" enable-background="new 0 0 150 150" xml:space="preserve">
<g>
	<path fill="none" d="M90.572,111.75c-13.536-2.243-27.341-5.01-41.544-5.3C63.228,106.74,77.033,109.507,90.572,111.75z"/>
	<path fill="#D26150" d="M82.404,24.855c-1.543,4.282-8.679,10.363-8.679,10.363c27.125-3.1,22.104-28.258,22.104-28.258
		c-31.216,3.062-23.792,25.158-23.792,25.158C77.934,30.646,82.404,24.855,82.404,24.855z"/>
	<path fill="#00AD4D" d="M47.826,106.421c-3.375-0.035-6.772,0.074-10.193,0.369c-0.019,0.502-0.092,0.939-0.092,1.474
		c0,18.137,14.684,32.823,32.789,32.823c13.904,0,25.709-8.675,30.487-20.875c-4.028-2.023-7.493-4.943-10.244-8.462
		c-13.539-2.243-27.345-5.01-41.544-5.3C48.627,106.441,48.228,106.425,47.826,106.421z"/>
	<path fill="#00AD4D" d="M85.884,103.096c-1.027-3.008-1.65-6.204-1.65-9.558c0-6.25,1.927-12.06,5.204-16.859
		c-0.289-0.403-0.607-0.79-0.872-1.208c-6.898-10.325-0.798-33.676-15.5-36.181l-5.875-7.401h-7.286l5.982,7.873
		c-12.455,4.04-7.175,25.821-13.767,35.709c-4.811,7.22-11.771,12.695-13.885,25.041C54.844,97.646,70.617,100.021,85.884,103.096z"
		/>
	<path fill="#647883" d="M145.431,109.127c-5.632,1.577-11.257,2.24-16.909,2.34c-33.122,0.55-67.12-19.46-106.033-4.358
		c-5.893,2.29-11.897,5.283-18.037,9.393c11.341-6.062,22.368-8.782,33.176-9.711c3.423-0.295,6.821-0.404,10.197-0.369
		c0.402,0.004,0.801,0.021,1.203,0.029c14.203,0.29,28.008,3.057,41.544,5.3C109.265,114.844,127.444,116.758,145.431,109.127z"/>
</g>
</svg>
