<?xml version="1.0" encoding="utf-8"?>
<!-- Generator: Adobe Illustrator 14.0.0, SVG Export Plug-In . SVG Version: 6.00 Build 43363)  -->
<!DOCTYPE svg PUBLIC "-//W3C//DTD SVG 1.1//EN" "http://www.w3.org/Graphics/SVG/1.1/DTD/svg11.dtd">
<svg version="1.1" id="Layer_1" xmlns="http://www.w3.org/2000/svg" xmlns:xlink="http://www.w3.org/1999/xlink" x="0px" y="0px"
	 width="150px" height="150px" viewBox="0 0 150 150" enable-background="new 0 0 150 150" xml:space="preserve">
<g>
	<path fill="#3FB38E" d="M58.275,89.138c-8.041,3.156-16.93,1.852-24.788-2.799c0.558-0.285,1.087-0.598,1.606-0.932
		c0.162-0.101,0.335-0.224,0.486-0.335c0.334-0.245,0.675-0.463,0.998-0.726c0.179-0.139,0.34-0.306,0.536-0.462
		c0.273-0.229,0.558-0.463,0.82-0.708c0.178-0.185,0.346-0.374,0.524-0.558c0.235-0.246,0.469-0.48,0.686-0.747
		c0.185-0.196,0.335-0.402,0.491-0.592c0.218-0.273,0.407-0.529,0.608-0.792c0.151-0.217,0.295-0.44,0.435-0.669
		c0.184-0.273,0.352-0.541,0.519-0.826c0.128-0.217,0.256-0.451,0.385-0.696c0.156-0.284,0.296-0.563,0.429-0.869
		c0.111-0.229,0.218-0.486,0.324-0.731c0.117-0.296,0.229-0.58,0.346-0.87c0.078-0.262,0.167-0.523,0.246-0.78
		c0.089-0.308,0.178-0.603,0.256-0.927c0.067-0.261,0.128-0.518,0.178-0.78c0.067-0.307,0.117-0.624,0.156-0.948
		c0.039-0.262,0.095-0.529,0.134-0.803c0.022-0.306,0.034-0.636,0.062-0.953c0.011-0.268,0.022-0.553,0.022-0.815
		c0.017-0.334,0-0.658-0.022-0.992c0-0.273-0.011-0.531-0.039-0.787c-0.022-0.345-0.078-0.686-0.145-1.043
		c-0.022-0.234-0.051-0.507-0.09-0.753c-0.078-0.374-0.178-0.764-0.267-1.132c-0.067-0.217-0.106-0.429-0.168-0.646
		c-0.172-0.597-0.379-1.188-0.625-1.768c-5.287-12.955-29.528-16.785-27.693-29.807c0,0-17.238,19.345-7.373,43.598
		c3.485,8.565,12.397,13.289,21.136,11.599c-5.945-4.667-11.014-11.309-14.221-19.456c-3.586-9.124-4.205-18.458-2.348-26.579
		c-0.357,2.219-0.552,4.545-0.552,6.91v0.083v0.039c0,0.597,0,1.188,0.039,1.796c0.011,0.256,0.022,0.502,0.033,0.747
		c0.017,0.307,0.039,0.607,0.056,0.915c0.022,0.128,0.022,0.262,0.022,0.374c0.011,0.117,0.044,0.234,0.056,0.34
		c0.407,4.305,1.433,8.705,3.134,13.066c1.768,4.484,4.088,8.488,6.815,11.984c0,0,0.039,0.057,0.05,0.078
		c0,0,0.028,0.017,0.028,0.033c2.811,3.569,6.034,6.587,9.508,8.963c0.012-0.028,0.039-0.028,0.051-0.028
		c2.041,1.383,4.171,2.571,6.363,3.485c8.705,2.8,18.392,1.288,25.798-4.438C61.733,87.477,60.071,88.413,58.275,89.138"/>
	<path fill="#5B6EB3" d="M134.051,95.261H57.567H41.885c-1.042,0-1.879,0.843-1.879,1.886c0,1.037,0.837,1.884,1.879,1.884h15.949
		h76.216c1.042,0,1.885-0.847,1.885-1.884C135.936,96.104,135.093,95.261,134.051,95.261"/>
	<path fill="#3FB38E" d="M145.182,95.289c-37.246,25.652-77.192,25.636-114.411-0.028c1.132,3.664,1.712,5.499,2.878,9.123
		c0.05,0.168,0.05,0.302,0,0.391c-1.166,1.896-1.746,2.839-2.878,4.696c37.219,25.675,77.165,25.691,114.411,0.027
		c-1.149-1.852-1.729-2.788-2.889-4.701c-0.062-0.072-0.051-0.206,0-0.373C143.464,100.799,144.032,98.98,145.182,95.289"/>
	<path fill="#5B6EB3" d="M61.744,67.355c-0.346,5.293-0.836,6.619-0.836,11.521c0,3.329,0.101,3.77,27.275,3.77h0.028
		c27.158,0,27.258-0.44,27.258-3.77c0-4.902-0.49-6.229-0.825-11.521c5.46-0.563,10.077-2.95,13.842-6.82
		c3.418-3.553,4.997-8.505,4.656-13.451c-0.318-4.461-2.783-9.492-6.073-12.553c-5.225-4.862-13.055-6.525-19.937-4.991
		c-5.136-7.25-12.542-9.096-18.921-9.096h-0.028c-6.374,0-13.791,1.846-18.938,9.096c-6.881-1.534-14.711,0.128-19.936,4.991
		c-3.279,3.062-5.755,8.092-6.045,12.553c-0.369,4.946,1.221,9.898,4.628,13.451C51.684,64.405,56.262,66.792,61.744,67.355"/>
</g>
</svg>
