<?xml version="1.0" encoding="utf-8"?>
<!-- Generator: Adobe Illustrator 18.1.0, SVG Export Plug-In . SVG Version: 6.00 Build 0)  -->
<svg version="1.1" id="Layer_1" xmlns="http://www.w3.org/2000/svg" xmlns:xlink="http://www.w3.org/1999/xlink" x="0px" y="0px"
	 viewBox="0 0 1500 1500" enable-background="new 0 0 1500 1500" xml:space="preserve">
<g>
	<path fill="none" d="M1311.1,1008H215.2l146.2-67H600h-4.8H357.3c-5.3,0-131.3,53.8-147.3,60.8v31.2h383.4c173.4,0,339.6,0,339.6,0
		H1321v-31.2c-17-5.5-96.9-43.8-134-60.8h-25.2L1311.1,1008z"/>
	<path fill="none" d="M835.1,739.8c-0.2,0.1-0.3,0.2-0.5,0.3h0.1C834.8,740,835,739.9,835.1,739.8z"/>
	<polygon fill="none" points="1145.4,941 1145.4,941 937.7,941 933.3,941 	"/>
	<path fill="none" d="M800.7,714L800.7,714c-0.2,0.4-0.3,0.9-0.5,1.3C800.4,714.9,800.6,714.4,800.7,714z"/>
	<path fill="none" d="M561.9,883H560V779.1c-8,2.8-16,3.4-25,2.2V908h25v-23.6L561.9,883z"/>
	<path fill="none" d="M695.5,590.3c6.2-4.3,7.5-8.4,15.5-10.8V156h-34v428.8C686,585.9,690.4,587.5,695.5,590.3z"/>
	<path fill="none" d="M711,730.2v-1.4c-8-4.7-11.2-12.5-13.4-22.8c-5.7,6.8-6.1,12-8.9,14c1.1,7,3.7,15.4,6.8,23.1L711,730.2z"/>
	<path fill="none" d="M853,774.2v-13.7c-8-1.2-13.8-7-21.6-11.3c-2.1,1.7-3.4,3.5-3.4,5.5v32.6l25.3-7.1c0,0-17.3,4-25.3,10.3V883
		h25V781c0-0.6-2.3-1.1-3.5-1.8C851.2,777.4,853,775.8,853,774.2z"/>
	<path fill="none" d="M545.9,684.4c3.1-6.3-0.4-18.5,0.1-25.4c-1.3-1,14,3.1,14,5.1V156h-25v523.4
		C535,680.4,541.4,682.1,545.9,684.4z"/>
	<path fill="none" d="M835.8,557.5c-2.1,2-7.8,6.1-7.8,10.2v8.9c8,0.1,16.1,2,24.1,1.1c0,4.3-2.5,8.4-3.1,12.4c2.1,0.8,4,1.7,4,2.6
		V156h-25v402.7C828,558.4,832.9,558.1,835.8,557.5z"/>
	<path fill="none" d="M543.1,779c2.3-0.3,16.9-0.4,16.9-0.3v-10.6C560,772.3,550.1,776.4,543.1,779z"/>
	<path fill="none" d="M970,156v575.4c8,0.6,4.7,1,5.9,1c-2,2-5.9,3.8-5.9,5.4V908h33V156H970z"/>
	<rect x="385" y="156" fill="none" width="33" height="752"/>
	<path fill="none" d="M318,1229.8c0,3.9,5.3,54.2,36.1,54.2h818.1c30.8,0,39.8-50.3,39.8-54.2c0-2.1,0-171.8,0-171.8H318
		C318,1058,318,1227.7,318,1229.8z M435,1117h627v117H435V1117z"/>
	<path fill="none" d="M373.9,1334c23,0,528.2,0,528.2,0s228.4,0,250.3,0c1.4-8,2.9-17,3.9-17H370C371,1317,372.5,1326,373.9,1334z"
		/>
	<path fill="none" d="M853,622.4v-21.1c0,1.5-4.7,3.1-7.4,4.5C847.4,609.8,853,615.7,853,622.4z"/>
	<path fill="none" d="M677,786.5V883h34v-82.6C694,794.7,686,790,677,786.5z"/>
	<rect x="1120" y="156" fill="none" width="25" height="752"/>
	<polygon fill="#B3CCD8" points="560,908 576.2,908 560,884.4 	"/>
	<path fill="#B3CCD8" d="M1161.8,941h25.2c-10.1,0-16.9,0-18,0h-23.7l0,0H1161.8z"/>
	<path fill="#B3CCD8" d="M825,576.6v-8.9c-3,3.5-5.1,7.1-7.3,9.3C820.1,576.7,822,576.6,825,576.6z"/>
	<path fill="#B3CCD8" d="M809.3,787c0,1.7,0.7,3.4,0.6,5.1l18.1-4.9v-32.6C819,763,809.3,774.2,809.3,787z"/>
	<polygon fill="#B3CCD8" points="1145,908 1175.4,908 1262,945.1 1262,156 1145,156 	"/>
	<path fill="#B3CCD8" d="M508.5,773.5c-0.2-2.6,2.5-5.9,5.3-7.6c-12.8-6.4-14.2-11.7-18.5-18.7c-11.3-6.8-15.3-20.3-4.8-40.9
		c3.3-4.6,13.1,1.4,16.8-0.2c-1.5-23.4,11.7-31.2,27.7-26.8V156H418v752h117V781.4C519,780.2,514.9,777.5,508.5,773.5z"/>
	<path fill="#B3CCD8" d="M868.5,759.8c-4.9,1-9.5,1.1-12.5,0.7v13.7C858,769.5,858.8,765.4,868.5,759.8z"/>
	<path fill="#B3CCD8" d="M800.7,714c0,0-0.5-0.4-1.2-0.9l0.7,2.3C800.4,714.9,800.6,714.4,800.7,714z"/>
	<rect x="1003" y="156" fill="#B3CCD8" width="117" height="752"/>
	<path fill="#B3CCD8" d="M932.6,740.7c20.9,17.2-4.6,13.6-21.8,9.7c-8.1,28.9-24.8,44-57.8,30.6v102h115.1L955,908h15V737.8
		C962,747.1,948.7,749.9,932.6,740.7z"/>
	<path fill="#B3CCD8" d="M808.4,800.1c-2.8,22.2-12.4,41-12.4,41l14.5,41.9H828v-92.7C819,793.2,814,796.5,808.4,800.1z"/>
	<path fill="#B3CCD8" d="M710,729.4c-0.3-0.2-0.6-0.4-0.8-0.6v1.4L710,729.4z"/>
	<path fill="#B3CCD8" d="M720.2,766.7c31.2,0,56.2,40.7,56.2,40.7l6.3-27.2l0,0l10-65.4c-8.1,5.1-16.8,6.7-23.6,5.6
		c1.2,1.2,2,3.1,2.2,5.6c-12.1,8.9-28.2,11.3-40.3,5.3c-4.4,2.6-9.1,3.2-13.6,2c-4.8,9.3-8.1,19.8-7.4,30.8
		C713,765.7,716.4,766.7,720.2,766.7z"/>
	<path fill="#B3CCD8" d="M671.2,783.7c-7.9-1.8-15.3-3.4-22.3-4.8c-7.2,23.4-12.1,25.3-34.3,15.9c3.6,24.4-30.1,13.7-45.2-7.8
		c13.1-16.6,24.4-25.9,45.5-27.2c-3.7-0.6-32.3,1.3-45.6,2.3c-3.1,1.9-0.3,3.9-9.3,5.9v10.6c0,0,1.2,0,1.6,0.1
		c-0.5,0.2-1.6,0.3-1.6,0.4V883h117v-96.5C677,785.5,673.1,784.5,671.2,783.7z"/>
	<path fill="#B3CCD8" d="M739.9,813.9c-10.8-5-20.9-9.4-28.9-13.5V883h28.4C748.4,875,777.2,831.3,739.9,813.9z"/>
	<path fill="#B3CCD8" d="M670.3,739.8l-0.3-0.3c-10.5,11-23.1,28.7-30.6,33.1c2,0.5,4.1,1.4,6.1,1.4H665L670.3,739.8z"/>
	<path fill="#B3CCD8" d="M563.3,665.1c-6.1-13.6,12.1-25.9,39.3-15.3c0.1-29.5,17.1-31.4,40.2-18.5c-0.6-1.2-7.7-16.9-9.2-19.6
		c8.7,1,21.2-0.8,29.9-2.5c-7-9-6.4-15.5-11.6-24.6c8.5-1.2,17.2-1.1,25.2,0.3V156H560v508.1C560,664.5,563,664.9,563.3,665.1z"/>
	<path fill="#B3CCD8" d="M720.1,577.5c2,5.3,1.1,11.7,1.5,17.1c3.8,0.5,6.9,1,10.1,1.4c0.7-2.4,2.3-4.6,5.6-6.5
		c-3,0.5-4.9,0.6-3.8-0.2c9.6-32.9,56.6-33,68.2-20c5.5-14.2,1.2-7.7,26.2-10.5V156H711v423.5C711,578,715.8,577.3,720.1,577.5z"/>
	<path fill="#B3CCD8" d="M861.1,596.9c-2.8,1-0.1,2.6-8.1,4.5v21.1c8,6.5,7.2,13.7,9.4,20.2c6.7-12,13.2-11.3,18.7-17.5
		c4,5.1-2.1,13.9,2.5,18.8c6.7-1.2,8.4-10.2,16.6-5.2c3,14.2,4.3,26.5,3.7,39.3c9.4-4.3,23.3,1.7,26.1,21
		c22.1,4.3,30.7,19.9,39.5,26c-5.2-1-17.5,0.2-23.1,1c6.5,0.6,15.7,3.7,23.7,5.4V156H853v436.8C861,594.1,858.6,595.4,861.1,596.9z"
		/>
	<polygon fill="#B3CCD8" points="385,908 385,156 268,156 268,925 314.9,925 351,908 	"/>
	<path fill="#7B6648" d="M1263,945.7l-87.6-37.7H1149h-30.9h-115.8h-30.9H955l-4.3,8.8l-13,24.2H1149h20c1.1,0,9,1.7,19.1,6
		c37.1,15.9,115.9,49.3,132.9,54.8v31.2H932.9c0,0-166.2,0-339.6,0H210v-31.2c16-7,142-60.8,147.3-60.8h237.9L581,916.8l-4.7-8.8
		h-13.7h-30.9H415.9H385h-34l-36.3,14.8L176,981.4v76.6h109v173.7l-0.1,0.9c2.9,26.5,16.9,67,50.6,78.5l14.2,47.9h76.5l20.4,34h77.2
		l20.4-34H982l20.4,34h77.2l20.4-34h76.5l12.7-47.3c35-10.7,51.6-53,54.6-79.9l2.3-0.1V1058h100v-76.6L1263,945.7z M1152.4,1334
		c-21.9,0-250.3,0-250.3,0s-505.1,0-528.2,0c-1.4-8-2.9-17-3.9-17h786.2C1155.3,1317,1153.8,1326,1152.4,1334z M1212,1229.8
		c0,3.9-9,54.2-39.8,54.2H354.1c-30.8,0-36.1-50.3-36.1-54.2c0-2.1,0-171.8,0-171.8h894C1212,1058,1212,1227.7,1212,1229.8z"/>
	<polygon fill="#7B6648" points="415.9,156 531.6,156 562.5,156 678.3,156 709.1,156 824.9,156 855.8,156 971.5,156 1002.4,156 
		1118.2,156 1149,156 1264.8,156 1296,156 1296,139 235,139 235,156 269.2,156 385,156 	"/>
	<rect x="435" y="1117" fill="#7B6648" width="627" height="117"/>
	<polygon fill="#7DA9BE" points="215.2,1008 1311.1,1008 1161.8,941 1149,941 933.3,941 915.9,975 619,975 600,941 361.5,941 	"/>
	<path fill="#7C5F47" d="M806.8,800.1c5.7-3.6,12-6.9,18.1-9.8c13.3-6.2,25.3-10.3,25.3-10.3l-25.3,7.1l-17.3,4.9
		c0.1-1.7,0.1-3.4,0.1-5.1c0-12.8,8.4-24.1,17.2-32.4c2.1-2,4.3-3.9,6.3-5.5c-1.7-1-3.6-1.4-5.5-2.1c1.7-1,5.3-5.9,9-5.9h-0.1
		c-3.3,0-6.5,2.6-9.7,3.4c-4.9,1.2-9.9,1.4-15.3,1.3c-4.1,0-8.4-0.3-13.2-0.4c-0.2,0-0.4-0.1-0.6-0.1c-2.1-11.1,1.2-20.1,4.5-30
		l-0.7-2.3c-0.5-0.5-1.2-1-2-1.7c-1.6,1.3-3.2,2.4-4.8,3.5l-10,65.4l0,0l-6.3,27.2c0,0-25-40.7-56.2-40.7c-3.9,0-7.3-1-10.3-2.6
		c-0.7-11,2.6-21.5,7.4-30.8c-2.6-0.7-5.1-2-7.4-3.8l-0.8,0.7l-14.9,12.9c-3-7.7-4.9-16.1-6.1-23.1c-1.7,1.2-4.4,1.3-10-0.2
		c-3.6-0.9-8.5-2.5-15.2-4.9c4.5,4.3,9.7,14.5,14.3,17.7c-2.2,1.6-4.8,4-7.4,6.8l0.3,0.4L665,774h-19.6c1.7,0,3.4,0.4,5.1,0.7
		c-0.5,1.6-0.9,2.9-1.3,4.3c7,1.4,14.7,3,22.6,4.8c1.8,0.8,4,1.7,6.4,2.8c7.7,3.4,18.2,8.1,30.9,13.9c9,4.1,19,8.5,29.8,13.5
		c37.3,17.4,9.4,61.1,0.4,69.1h71.1l-15.2-41.9C795.2,841.1,804,822.2,806.8,800.1z"/>
	<path fill="#7D9A61" d="M969.5,725c-8.8-6.1-17.4-21.7-39.5-26c-2.8-19.3-16.7-25.3-26.1-21c0.6-12.9-0.6-25.2-3.6-39.3
		c-8.2-4.9-9.7,4.1-16.4,5.2c-4.6-4.9,1.9-13.7-2.1-18.8c-5.5,6.2-11.3,5.4-18,17.5c-2.2-6.5-5.2-13.6-8-20.2
		c-2.9-6.6-5.6-12.6-7.4-16.5c2.7-1.5,5.1-3.1,7.4-4.5c2.8-1.8,5.4-3.5,8.1-4.5c-2.5-1.4-5.3-2.8-8.1-4.1c-2-0.9-4.1-1.8-6.2-2.6
		c0.5-4,1-8.2,0.9-12.4c-8,0.9-16.9-1-25.6-1.1c-2.5,0-4.9,0-7.3,0.4c2.2-2.2,4.8-5.7,7.3-9.3c2.9-4.1,5.7-8.2,7.8-10.2
		c-2.9,0.5-5.5,0.9-7.8,1.2c-22.7,2.9-19.2-3.7-24.7,10.5c-11.6-13-57.1-12.9-66.7,20c-1.2,0.9,0.7,0.8,3.7,0.2
		c-3.3,2-5,4.1-5.7,6.5c-3.2-0.4-6.5-0.9-10.4-1.4c-0.4-5.4,0-11.8-2-17.1c-4.3-0.2-7.4,0.5-10,2c-4.4,2.4-7.7,6.5-13.9,10.8
		c-5.2-2.8-11-4.4-17-5.4c-8.4-1.4-17.3-1.5-25.8-0.3c5.2,9.1,4,15.6,11.1,24.6c-8.7,1.8-21.1,3.6-29.8,2.5
		c1.5,2.7,8.8,18.5,9.4,19.6c-23.1-12.8-39.7-10.9-39.8,18.5c-27.2-10.7-44.8,1.7-38.7,15.3c-0.3-0.2-1-0.5-2-0.9
		c-5.1-2-17.5-6.1-16.1-5.1c-0.4,6.9,1,19.2-2.2,25.4c-4.5-2.3-8.7-4-12.6-5c-16.8-4.5-27.7,3.4-26.1,26.8c-3.7,1.5-12-4.5-15.2,0.2
		c-10.5,20.5-6.7,34,4.6,40.9c4.3,7,5.3,12.3,18.1,18.7c-2.7,1.7-6.3,5-6.1,7.6c6.4,4,15.2,6.7,24.8,7.9c10.2,1.2,21.1,0.6,30.9-2.2
		c0.5-0.2,1.1-0.2,1.6-0.4c-0.4,0-1,0-1.6-0.1c-4.6-0.1-14.6,0.1-16.9,0.3c7-2.6,11.6-6.7,16.9-10.9c2.4-2,5-3.9,8.1-5.9
		c13.3-1.1,40.6-3,44.3-2.3c-21.1,1.3-32.3,10.5-45.4,27.2c15.1,21.5,48.9,32.1,45.3,7.8c22.2,9.4,27.3,7.5,34.5-15.9
		c0.4-1.4,0.9-2.9,1.3-4.4c-1.7-0.3-3.4-0.7-5.1-1c-2-0.4-4.1-0.7-6.1-1.2c7.5-4.3,20.1-21.9,30.6-32.9c2.6-2.8,5.2-5.2,7.4-6.8
		c-4.5-3.1-9.7-13.4-14.3-17.7c6.7,2.3,11.5,3.9,15.2,4.9c5.6,1.5,8.3,1.4,10,0.2c2.7-2,2.7-7.2,8.4-14c2.2,10.3,6.9,18.1,12.5,22.8
		c0.3,0.2,0.6,0.4,0.8,0.6c2.3,1.8,4.8,3.1,7.4,3.8c4.5,1.2,9.2,0.7,13.6-2c12.1,6,28.3,3.7,40.3-5.3c-0.2-2.5-0.9-4.4-2.2-5.6
		c6.8,1.1,15.6-0.5,23.6-5.6c1.6-1,3.3-2.1,4.8-3.5c0.8,0.7,1.5,2.3,2,2.8c0.6,0.5,1.1,1.9,1.2,1.9h0c-0.2,0-0.3-0.1-0.5,0.3
		c-3.3,9.9-6.7,18.3-4.5,29.5c0.2,0,0.4-0.3,0.6-0.2c4.8,0.1,9.2,0.1,13.2,0.2c5.5,0,10.4-0.4,15.3-1.6c3.2-0.8,6.4-2.1,9.7-3.9
		c0.2-0.1,0.3-0.2,0.5-0.3c-0.1,0.1-0.3,0.2-0.4,0.3c-3.7,2.7-7.3,5.3-9,6.4c2,0.7,3.8,1.6,5.5,2.6c7.8,4.3,13.9,10.2,24.5,11.3
		c3.6,0.4,7.6,0.3,12.5-0.7c-9.7,5.6-10.2,9.7-12.5,14.4c-0.8,1.6-1.8,3.3-3.5,5.1c1.2,0.7,2.4,1.2,3.5,1.8
		c27.4,13.4,48.7-1.7,56.7-30.6c17.2,4,41.7,7.5,20.8-9.7c16.1,9.2,27.1,6.4,38.2-2.9c2-1.6,3.9-3.4,5.9-5.4c-1.3,0-3.4-0.4-5.9-1
		c-7.2-1.6-17.9-4.7-24.4-5.4C952.8,725.2,964.3,724,969.5,725z"/>
	<polygon fill="#AB5153" points="855.8,883 824.9,883 810.5,883 739.4,883 709.1,883 678.3,883 562.5,883 561.9,883 562.5,884.2 
		576.2,906.6 581,914.4 595.2,937.6 600,944.7 619,975 915.9,975 933.3,944.7 937.7,937.3 950.7,914.3 955,906.4 968.1,883 	"/>
</g>
</svg>
