<?xml version="1.0" encoding="utf-8"?>
<!-- Generator: Adobe Illustrator 18.1.0, SVG Export Plug-In . SVG Version: 6.00 Build 0)  -->
<svg version="1.1" id="Layer_1" xmlns="http://www.w3.org/2000/svg" xmlns:xlink="http://www.w3.org/1999/xlink" x="0px" y="0px"
	 viewBox="0 0 150 150" enable-background="new 0 0 150 150" xml:space="preserve">
<g>
	<path fill="#00B0CA" d="M135.7,28.6l-0.1-1.8l-1.8,0.3c-2.6,0.4-5.2,0.6-7.9,0.6c-28.6,0-50.2-22.1-50.4-22.3L74.3,4L73,5.3
		c-0.2,0.2-21.7,22.3-50.4,22.3c-2.6,0-5.3-0.2-7.9-0.6l-1.8-0.3l-0.1,1.8c-0.2,2.9-3.5,70.2,25.9,101.3c9.5,10,21.4,15.1,35.5,15.1
		c14.1,0,26-5.1,35.5-15.1C139.1,98.8,135.8,31.5,135.7,28.6 M74.3,141.6c-13.1,0-24.2-4.7-33.1-14.1c-25.8-27.2-25.4-85.9-25-96.9
		c2.1,0.2,4.3,0.4,6.5,0.4c26.5,0,46.5-17.3,51.6-22.2C79.3,13.6,99.4,31,125.8,31c2.2,0,4.3-0.1,6.5-0.4c0.3,11,0.8,69.7-25,96.9
		C98.5,136.9,87.4,141.6,74.3,141.6"/>
	<path fill="#00B0CA" d="M125.8,35.2l-0.6,0.1c-2.3,0.3-4.6,0.5-6.8,0.5l0,0c-24.8,0-43.4-19.5-43.6-19.7l-0.4-0.4l-0.4,0.4
		C73.6,16.3,55,35.7,30.2,35.7c-2.3,0-4.6-0.2-6.8-0.5l-0.6-0.1l0,0.6c0,0.6-3,61.2,22.2,87.8c7.9,8.3,17.8,12.5,29.4,12.5
		c11.6,0,21.5-4.2,29.4-12.5c25.2-26.6,22.2-87.2,22.2-87.8L125.8,35.2z M102.8,122.7c-7.7,8.1-17.3,12.2-28.6,12.2
		c-11.3,0-20.9-4.1-28.5-12.2C22.2,98,23.6,42.9,23.8,36.5c2.1,0.3,4.3,0.4,6.4,0.4h0c23.2,0,41.1-16.7,44-19.6
		c2.9,2.9,20.8,19.6,44,19.6c2.1,0,4.3-0.1,6.4-0.4C124.9,42.9,126.3,98,102.8,122.7"/>
	<path fill="#00B0CA" d="M48.9,95.8c-4.6,0-8.4,3.8-8.4,8.4c0,4.7,3.8,8.4,8.4,8.4c4.7,0,8.4-3.8,8.4-8.4
		C57.3,99.6,53.6,95.8,48.9,95.8 M56.6,101.8c-0.2,0.2-0.8,0.6-1,0.9l-2.4-2l0,0c0-0.3-0.5-1.9-0.9-2.4l0.7-0.9l-0.1-0.1
		C54.6,98.2,56,99.8,56.6,101.8 M55.2,106l-2.4,0.9c-0.3-0.5-1.6-1.6-2.1-1.9l0.2-3.1c0.5-0.1,1.7-0.7,2.1-1.1l2.4,2
		C55.3,103.1,55.1,105.4,55.2,106 M48.2,109.5l-2.4,1.5l-2.2-2l-0.6-3c0.5-0.1,1.6-0.7,2-1.1l2.7,1.8C47.6,107.4,48,109,48.2,109.5
		 M43.9,98.5l2.6-1.5l2.1,0.8c-0.2,0.5-0.8,1.9-0.6,2.3c0,0,0,0,0,0.1l-2.9,1.5c-0.4-0.3-1.5-0.8-1.9-0.8L43.9,98.5z M47.8,106.5
		l-2.7-1.8c0.1-0.5,0.3-2.3,0.2-2.8l2.9-1.5c0.5,0.5,1.9,1.4,2.5,1.6l-0.2,3.1C49.9,105.1,48.1,106.1,47.8,106.5 M52.8,97.2L52.1,98
		c-0.5-0.2-2.7-0.5-3.3-0.4l-2.2-0.8v-0.3c0.8-0.2,1.5-0.4,2.3-0.4C50.3,96.2,51.6,96.5,52.8,97.2 M43.3,98.4l0.3,0.1l-0.7,2.5
		c-0.5,0.5-1.3,2-1.4,2.4l-0.6,0.1C41,101.6,41.9,99.8,43.3,98.4 M40.9,103.9l0.6-0.1c0.1,0.6,1,1.8,1.3,2.2l0.6,3l-0.9,0.2
		c-1-1.4-1.6-3.1-1.6-4.9C40.8,104.1,40.8,104,40.9,103.9 M45.9,111.8v-0.5l2.5-1.6c0.5,0.2,2.3,0.4,2.8,0.4l0.7,1.6
		c-0.9,0.4-2,0.6-3.1,0.6C47.9,112.3,46.9,112.1,45.9,111.8 M52.2,111.6l-0.7-1.6c0.4-0.4,1.3-2.3,1.4-2.8l2.4-1
		c0.2,0.3,0.9,0.8,1.1,1C55.6,109.2,54.1,110.8,52.2,111.6"/>
	<path fill="#00B0CA" d="M116.3,65.8c0,0,0.7,0.4,0.7-0.1c0-0.5,0-0.8-0.7-1.4c-0.1-0.1-0.2,0.2-0.7-0.3c-0.5-0.3-1-0.6-1.7-1.1
		c-2.4-1.4-6.5-7.7-8-9.4c-1.5-1.7-5.6-3.4-5.6-3.4l0.3-0.6l-4-1.7l-4.9-2.7c0,0-3.9-2.2-6.1-2.7c-2.1-1.9-8.1-1.7-8.1-1.7v-1.7
		c0,0,0-0.5-0.6,0c0.1-7.9-7.2-5.9-7.2-5.9c-3.8,1.6-2.1,6.5-3,6.3c-1.1,0.2,1.2,3.2,1.2,4.2c0.1,1,0.8,2.3,0.8,2.3
		c-1.6,0.6-0.9,1-3,3.5c-2,2.6-1.2,10.3-1.2,10.3l-1.2,4.6l0.5,0.4l-0.3,1.6c0,0-2.1,2.7-2.9,7.2c-0.9,3.7-2.8,5.5-3.1,5.7
		c-0.3,0.2-1.2,1.4-1,2.3c0.2,0.9,1.5,1.9,2.2,2.4c1,0.6,2.1-0.6,2.3-0.8c0.4-0.5,0.5-0.9,0.4-1.2c0-0.1,0-0.2-0.1-0.2
		c-0.2-0.4-0.5-0.5-0.5-0.5l0.6-0.6c0,0-0.1-2.7,4.6-7c2.4-2.6,2.4-8.3,2.4-8.3l1.8-0.8l-0.2-5c0,0,3.5,1.5,3.3,3.5
		c-0.2,2,2.5,5.7,2.5,5.7l0,1.5c0,0-1,0.9-2.6,2.4c-1.6,1.5-2.5,8.3-2.5,8.3s-1.2,3-0.9,5c-1.3,0.4-0.3,1.2-0.9,1.9
		c-1.4,0.7-4,5.7-4.1,6.9c0,1.2-1.6,0.6-1.6,0.6s-7.4-3.8-7.9-1.1c-0.6,2.7,7.5,7,8.6,7.6c1,0.6,4.7,1.4,4.8-1.1
		c0.1-2.5,1.3-3.9,1.3-3.9l5.7-4.7l0.2,3c-1.5,1.8-2.5,4.8-2.5,4.8c-0.1,2.4-1,7.3-1,8.5c-1,1.1-0.6,1.2-1.2,3.6
		c-2.3,2.6-2.3,3.9-2.3,3.9s-3.1,3.8-4,6c-0.8,3.5,5.7,0.5,5.7,0.5s2-3.4,2.5-4.1c0.6-0.8,1-4,1-4s1.6-4.8,4.8-9.3
		c3.2-4.5,3.1-9.7,3.1-10.9c0-1.3,2.2-4,3.2-4.6c0.4,0.6,1.2,0.4,1.2,0.4s4.5-4.7,6.5-8.3c3.5-6.5,2.2-15.7,2.2-15.7
		s-1.6-0.4-1.6-2.6c0-2.2-2.1-6.9-2.4-8.4c-0.3-1.5,1.5-0.5,1.5-0.5l3.1,1.6l0.8-1.1c0,0,1-1.2,3,0.3c1.8,1.3,4.2,2.6,6.6,5.4
		c2.4,2.7,3.7,4.1,4.3,5.1c0.7,1.6,2.1,2.5,3.1,3.1c2.5,1.8,2.2,0.4,2.2,0.4s-0.6-0.6-0.3-0.6c1.6,0.5,1-0.7,1-0.7s-0.8-0.6-0.4-0.6
		c1.1,0.4,0.9-0.4,0.9-0.4L116.3,65.8z"/>
</g>
</svg>
