<?xml version="1.0" encoding="utf-8"?>
<!-- Generator: Adobe Illustrator 18.1.0, SVG Export Plug-In . SVG Version: 6.00 Build 0)  -->
<svg version="1.1" id="Layer_1" xmlns="http://www.w3.org/2000/svg" xmlns:xlink="http://www.w3.org/1999/xlink" x="0px" y="0px"
	 viewBox="0 0 150 150" enable-background="new 0 0 150 150" xml:space="preserve">
<g>
	<g>
		<polygon fill="#4B5B41" points="97.1,139.6 104.8,139.6 104.8,147.6 45.6,147.6 45.6,139.6 53.4,139.6 53.4,133.6 97.1,133.6 
			97.1,139.6 		"/>
	</g>
	<g>
		<path fill="#4B5B41" d="M58.2,131.3h17h17c-20.4-12.8-6.4-23.8-9.5-23.8h-3v-5.5c3.7-5.9,8.9-12.3,4.5-16.7
			c-3.5-3.5-5.5-7.6-6.5-10.5h2.5c0.9,0,1.6-0.7,1.6-1.6v-3.3c-0.6-0.4-1.3-0.7-2-0.9c-1.8-0.6-3.4-0.7-4.2-0.7c-0.3,0-0.5,0-0.5,0
			l0,0l-0.1,0l-0.1,0c0,0-0.2,0-0.5,0c-0.8,0-2.4,0.1-4.2,0.7c-0.7,0.2-1.4,0.6-2,0.9v3.3c0,0.9,0.7,1.6,1.6,1.6h2.5
			c-1,2.9-2.9,6.9-6.5,10.5c-4.4,4.4,0.8,10.8,4.5,16.7v5.5h-3C64.5,107.4,78.6,118.5,58.2,131.3z"/>
	</g>
	<g>
		<g>
			<path fill="#5B9942" d="M114.9,37.4c0.1,3.7-3.3,7.5-12.6,6.5c0.8,0,9.5-0.5,10.5-4.4c2.1-6.7-7.5-8.7-6.8-3.2
				c0.3,0.8,1,1.6,1.8,1.4c1-0.3,1.1-1.2,1.1-2c1,1.8-0.8,3.4-2.6,2.5c-1.9-1.1-2.1-3.3-1.4-4.8c0.6-1.3,1.9-2.1,3.1-2.3
				c2.4-0.3,4.5,0.9,5.7,2.8l-4.5-14.1C109.3,11.5,100,5,92.6,5H56.2c-2.3,0-4.8,0.6-7.1,1.8c1.6-0.3,3.2-0.2,4.7,0.2
				c4.9,1.4,8.3,6,8,11.1C60.2,31,41.6,39.9,36.3,54.7c0,0,0,0,0.1,0c1-0.5,2.2-0.5,3.1-0.1c4.1-2.5,12.9-6.7,17.8-4.1
				c7.4,4,1.2,6.2-1.6,5.1c3.4,5.7-1.8,5-3.4,3.2c1.4,4.4-2.9-0.1-7.8-2.4c-1.3-0.6-2.5-0.9-3.7-1c0.2,0.2,0.3,0.4,0.5,0.7
				c0.9,1.8,0.2,3.9-1.5,4.9c-1.8,0.9-3.9,0.2-4.9-1.5c-0.8-1.5-0.4-3.3,0.8-4.4c0.8-3.1,2.5-7.3,7-13.2c0.4-0.6,0.9-1.1,1.4-1.7
				c0,0,0,0,0,0c0.1-0.1,2.6-4.6,2.7-4.9c1.6-3.3,0.9-7.8-2.9-9.4c-2.7-0.9-4.9-0.5-6.3,0.4l-1.6,5.8c0.7,1.5,2.2,2.7,4.5,3
				c0.2,0,0.5,0,0.8,0c1.4-0.2,3-1.1,3.2-2.4c0.1-1-0.4-2.4-1.6-2.4c-1.5,0.1-0.8,1.8,0.6,1.7c-0.2,0.4-1.1,1.1-1.9,0.9
				c-0.6-0.1-1.3-0.8-1.1-1.9c0.5-2.1,3.3-1.6,4-0.3c1.6,2.7-1.2,5.1-3.4,4.9c-2,0.1-4.1-1.1-5.2-2.8L33,42.5
				c2.7-0.5,6.1,1.9,3.8,8.5c0.1-0.5,0.8-5.4-1.3-6.7c-1.1-0.8-2.1-0.8-2.8-0.4l-0.8,2.9c0.3,0.3,0.7,0.6,1.3,0.7
				c0.5,0,1.1-0.3,1.1-0.8c0-0.6-0.5-0.9-1-1c1.2-0.2,1.8,1,1,2c-0.8,0.8-1.9,0.7-2.7,0.2l-0.9,3.4c0,8.1,6,14.6,13.4,14.6h14.6
				c-0.2-0.1-0.4-0.3-0.6-0.4c-3.7-3.3,1-8.1,3.7-5.1c0.6,0.6,0.7,1.3,0.6,1.8c-0.1,0.6-0.6,1.1-1.2,1.2c-0.9,0.2-1.9-0.5-1.8-1.4
				c0.1-0.6,1.1-1.1,1.7-0.9c-0.3-1.1-3.1-1.5-3.5,0.5c-0.4,2.1,1.4,3.2,2.9,3.1c1.2-0.1,2.2-0.4,3-1c0.3-0.3,0.6-0.6,0.9-0.9
				c0.1-0.2,0.3-0.4,0.4-0.6c0,0,0,0,0-0.1c0.2-0.4,0.3-0.7,0.5-1.1c0.5-1.5,0.7-3.3,0.4-4.8c0,0,0-0.1,0-0.1
				c-0.1-0.2-0.1-0.4-0.2-0.7c0-0.1,0-0.1-0.1-0.2c-3-7.2-18-11-27.2-1.8c-0.1,0.1-0.2,0.3-0.4,0.4c1.5-4,7.1-12.7,13.8-14.7
				c7.6-2.3,13.7-1.9,6,2.3c7-0.8,11.7,1.1,8,3.4c12.1,6.9,6,17.9-0.8,21h41.2c7.4,0,13.4-6.5,13.4-14.6L114.9,37.4z M75.7,31
				c2.2-0.8,4.4-1.4,5-0.5c0.9,1.6-0.9,3-0.9,3c0.3,0,2.5,0.6,3.2,1.8c1.1,1.7-1.6,3.9-4.3,1.7c-4-3.3-12.3-4.3-15.3-3.5
				c0.9-0.3,5.8-2.1,8.9-4.2C77.2,26,81.2,26.3,75.7,31z M61,24.6c3.7-3.1,10,4.4,0.2,8.5c0.4-0.2,4.5-3.1,4-5.5
				c-0.6-4.2-5.8-2.5-4,0.4c0.4,0.4,1,0.6,1.3,0.3c0.5-0.4,0.3-1,0.1-1.4c1,0.8,0.5,2-0.8,2c-1.3-0.1-2-1.2-2-2.3
				C59.9,25.8,60.4,25,61,24.6z M57,29.2c2.1-1.8,5.8,2.5,0.1,4.9c0.3-0.1,2.6-1.8,2.3-3.1c-0.3-2.4-3.3-1.4-2.3,0.2
				c0.2,0.2,0.5,0.4,0.8,0.2c0.3-0.2,0.2-0.5,0.1-0.8c0.6,0.4,0.3,1.2-0.5,1.2c-0.8-0.1-1.2-0.7-1.2-1.3
				C56.4,29.9,56.7,29.5,57,29.2z M66,36.3c-6.3-1.5-10.5-0.6-15.3,1.6l-0.2-0.1c2.7-1.6,7.1-3.5,15.7-2c10.2,1.8,22.3,9.1,31.6,4.1
				c4.5-2.4,7-7.8,5.2-12.5c-3.8-8.5-11-8.3-14.4-4.5c-2.1,2.4-2.6,6.4,0.1,10.3c0.2,0.3,0.5,0.6,0.8,0.9c1.7,1.5,4.4,2.3,6.1,1.1
				c1.3-1,2.2-3,1.1-4.4c-1.6-1.6-2.9,0.9-1.4,2.5c-0.7,0.2-2.4-0.1-3.1-1.2c-0.5-0.9-0.5-2.4,1.1-3.2c3-1.6,5.3,2.1,4.6,4.3
				c-1.5,4.7-7.1,3.9-9.2,1.1l0,0c-2.4-2.3-3.2-6.5-2.1-9.6c0.9-2.6,3.1-4.7,7-5.2c1.2-0.1,2.4,0,3.5,0.4c3.2,1.2,5.7,4.1,6.6,7.3
				c1.6,5.2-0.7,10.9-5.6,13.5C88.6,45.8,76.2,38.7,66,36.3z M102,30.6c-0.5,0.1-1-0.2-1.1-0.7c-0.1-0.5,0.2-1,0.7-1.1
				c0.5-0.1,1,0.2,1.1,0.7C102.8,30,102.5,30.5,102,30.6z M102.8,32.7c0.1,0.4-0.2,0.9-0.6,0.9c-0.4,0.1-0.8-0.2-0.9-0.6
				c-0.1-0.4,0.2-0.9,0.6-0.9C102.3,32,102.7,32.2,102.8,32.7z M101.6,35.2c0.1,0.3-0.1,0.7-0.5,0.8c-0.3,0.1-0.7-0.1-0.8-0.5
				c-0.1-0.3,0.1-0.7,0.5-0.8C101.2,34.6,101.5,34.8,101.6,35.2z M100,27.5c-0.6,0.1-1.1-0.2-1.3-0.8c-0.1-0.6,0.2-1.1,0.8-1.3
				c0.6-0.1,1.1,0.2,1.3,0.8C101,26.8,100.6,27.4,100,27.5z M96.7,24.7c-0.7,0.2-1.4-0.3-1.5-1c-0.2-0.7,0.3-1.4,1-1.5
				c0.7-0.2,1.4,0.3,1.5,1C97.8,23.8,97.4,24.5,96.7,24.7z M104.5,50.5c-2.7,0.9-6.9,0.2-7.4,0c0,0,1.1,2.8-2.3,4.1
				c-2,0.7-4.8-1.4-7.4-3.7c3,9-4,6.8-7.8-0.2c-2.4-4.4-8.1-9.8-9.2-10.7c4,2.9,18.6,7,29.3,5.7C106.8,44.9,108.5,49.1,104.5,50.5z"
				/>
		</g>
		<g>
			<path fill="#5B9942" d="M44.1,25.6c2.6,1.2,3.8,3.3,4,5.3c0.2,1.7-0.4,3.4-0.7,4.2c-0.7,1.6-1.4,2.8-1.9,3.7
				c6.2-6.4,14.9-12.2,15.5-20.7c0.3-4.8-2.7-9.4-7.4-10.3c-8.7-1.2-12.1,4.7-10.7,9.2c0.9,2.9,3.8,5.3,8.2,5c0.4,0,0.7-0.1,1.1-0.2
				c2-0.6,4-2.4,3.9-4.3c-0.1-1.5-1.3-3.3-3-3c-2.1,0.5-0.7,2.8,1.3,2.3c-0.2,0.7-1.3,1.9-2.5,1.8c-1,0-2.1-0.8-2-2.5
				c0.2-3.2,4.3-3.2,5.7-1.5c3,3.5-0.4,7.6-3.7,7.9c-3.1,0.7-6.7-0.7-8.7-3.1c-1.5-1.8-2.1-4.2-1.1-7.1c-1.6,2.2-2.7,4.7-2.7,7.3
				l-1.7,5.9C39.7,24.5,42.1,24.6,44.1,25.6z"/>
		</g>
	</g>
</g>
</svg>
