<?xml version="1.0" encoding="utf-8"?>
<!-- Generator: Adobe Illustrator 18.1.0, SVG Export Plug-In . SVG Version: 6.00 Build 0)  -->
<svg version="1.1" id="Layer_1" xmlns="http://www.w3.org/2000/svg" xmlns:xlink="http://www.w3.org/1999/xlink" x="0px" y="0px"
	 viewBox="0 0 150 150" enable-background="new 0 0 150 150" xml:space="preserve">
<g>
	<path fill="none" d="M122.5,57c0,0-11.3,1.6-18.8,15.6c-0.6,1-1.1,2.1-1.6,3.3c2.1-0.5,4.2-0.8,6.3-1.1
		C113.8,61.1,122.5,57,122.5,57z"/>
	<path fill="none" d="M120.2,32.9c-0.2-0.2-0.4-0.4-0.6-0.6c-6.5,5.3-18.9,16.8-23.4,30.6c-1.2,3.7-2.1,7.8-2.8,11.9
		c-0.2-0.7-0.4-1.3-0.6-2c-0.7-2.1-1.5-4.4-2.2-6.6c5.4-13.2,14.2-22.5,14.2-22.5s-6,3.5-12.3,10c-1.4,0.4-3.4,1.2-5.7,2.4
		c-0.1-0.3-0.2-0.6-0.3-0.9c3-13.5,6.2-25,6.2-25s-3.8,8.8-8.2,20C82,44,80.1,39.5,79.9,39C87.4,27,96,18.7,96,18.7
		S77.9,31.1,67.3,48.8c-6.7-11.5-16.6-20.8-23-26.1c-0.4,0.2-0.7,0.4-1.1,0.7c5.9,6.8,15.5,19.4,20,33.5c-0.5,1.2-0.9,2.3-1.3,3.5
		c-1.5,4.6-2.6,9.6-3.5,14.8c-0.2-0.8-0.5-1.7-0.7-2.5c-6.1-18.7-16.1-41.9-16.1-41.9S46,47,49.4,63.3c-0.7-0.8-1.4-1.5-2-2.1
		c-7.6-10.9-17.9-16.8-17.9-16.8s3.5,3.7,7.5,9.8c-2.9-1.2-4.9-1.5-4.9-1.5s3.4,1.6,7.6,6.1c2.7,4.8,5.3,10.5,6.8,16.8
		c1.2,0.2,2.4,0.4,3.6,0.7c0.6,0.1,1.2,0.3,1.8,0.4c0.9,0.2,1.8,0.5,2.7,0.8c1.1,0.3,2.2,0.7,3.3,1.1c0.2,0.1,0.3,0.1,0.5,0.2
		c0.3,0.1,0.6,0.2,0.9,0.3c2.5,1,5.1,2.1,7.5,3.5c0,0,0.1,0,0.1,0.1c0.2,0.1,0.3,0.2,0.5,0.3c1.4,0.8,2.7,1.6,4,2.6
		c0.7,0.5,1.3,0.9,1.9,1.4c0,0,0.1,0.1,0.1,0.1c0.9,0.6,1.7,1.3,2.5,1.9c0.5-0.4,1-0.9,1.6-1.3c0,0,0,0,0,0c1.2-0.9,2.4-1.8,3.8-2.8
		c0.4-0.3,0.8-0.6,1.2-0.9c0.8-0.5,1.6-1,2.4-1.5c0.5-0.3,1.1-0.6,1.6-0.9c0.7-0.4,1.4-0.7,2.1-1.1c0.8-0.4,1.5-0.7,2.3-1
		c0.6-0.3,1.2-0.5,1.8-0.7c0.5-0.2,1-0.4,1.4-0.5c2.2-0.8,4.5-1.4,6.7-2c0.3-3.3,0.6-6.5,1.1-9.6C104.4,52.3,114.7,39.1,120.2,32.9z
		 M74.4,67.5c-0.6-2.7-1.3-5.2-2.1-7.7c-0.3-1-0.7-2-1.1-2.9c0.4-1.3,0.9-2.6,1.4-3.9c1.7,2.2,4,5.4,6.1,9.3
		C77.3,63.8,75.8,65.5,74.4,67.5z M81.1,59.2c-2.9-3.3-5.9-5.7-8-7.3C75,47.3,77.4,43,79.8,39c0.2,0.6,1.7,6.5,3.5,14.1
		C82.6,55.1,81.9,57.1,81.1,59.2z M84.8,63.9c0-0.1-0.1-0.1-0.1-0.2c0.2-0.8,0.3-1.6,0.5-2.4c0,0,0.1-0.1,0.1-0.1
		c0.1,0.5,0.2,0.9,0.3,1.4C85.3,63,85,63.4,84.8,63.9z M87.9,59.1c-0.1-0.2-0.2-0.4-0.2-0.6c1-1,1.9-1.8,2.7-2.4
		C89.6,57,88.7,58,87.9,59.1z"/>
	<path fill="#7B8350" d="M73.1,51.9c2.1,1.6,5.1,4,8,7.3c0.8-2.1,1.5-4.1,2.3-6.1C81.6,45.5,80,39.6,79.8,39
		C77.4,43,75,47.3,73.1,51.9z"/>
	<path fill="#7B8350" d="M85.2,61.3c-0.2,0.8-0.3,1.6-0.5,2.4c0,0.1,0.1,0.1,0.1,0.2c0.3-0.4,0.5-0.9,0.8-1.3
		c-0.1-0.5-0.2-0.9-0.3-1.4C85.2,61.2,85.2,61.2,85.2,61.3z"/>
	<path fill="#7B8350" d="M102.1,66.5c-0.5,3.1-0.9,6.4-1.1,9.6c0.4-0.1,0.8-0.2,1.2-0.3c0.5-1.1,1-2.2,1.6-3.3
		c7.5-14,18.8-15.6,18.8-15.6s-8.8,4.1-14.1,17.8c4.5-0.6,8.7-0.7,12.4-0.7c7.3,0.1,13.3,1,16.8,1.7c0,0,0-0.1,0-0.1
		c0-16.6-6.6-31.7-17.4-42.8C114.7,39.1,104.4,52.3,102.1,66.5z"/>
	<path fill="#7B8350" d="M87.9,59.1c0.8-1.1,1.6-2.1,2.5-3.1c-0.8,0.7-1.7,1.5-2.7,2.4C87.8,58.7,87.9,58.9,87.9,59.1z"/>
	<path fill="#7B8350" d="M32.1,52.6c0,0,1.9,0.3,4.9,1.5c-4-6.1-7.5-9.8-7.5-9.8s10.3,5.9,17.9,16.8c0.7,0.7,1.4,1.4,2,2.1
		C46,47,41.6,30.9,41.6,30.9s10,23.2,16.1,41.9c0.3,0.8,0.5,1.6,0.7,2.5c0.9-5.2,2-10.2,3.5-14.8c0.4-1.2,0.8-2.3,1.3-3.5
		c-4.4-14.2-14-26.7-20-33.5c-17.4,10.9-29,30.2-29,52.2c2-0.4,9.6-1.7,19.5-1.4c3.8,0.1,8.2,0.4,12.8,1.2c-1.5-6.2-4.1-12-6.8-16.8
		C35.5,54.2,32.1,52.6,32.1,52.6z"/>
	<path fill="#7B8350" d="M67.3,48.8C77.9,31.1,96,18.7,96,18.7S87.4,27,79.9,39c0.2,0.5,2.2,5,4.6,11.2c4.3-11.2,8.2-20,8.2-20
		s-3.1,11.6-6.2,25c0.1,0.3,0.2,0.6,0.3,0.9c2.3-1.3,4.3-2,5.7-2.4c6.2-6.5,12.3-10,12.3-10S95.9,53,90.5,66.2
		c0.8,2.2,1.6,4.4,2.2,6.6c0.2,0.6,0.4,1.3,0.6,2c0.7-4.2,1.6-8.3,2.8-11.9c4.5-13.8,16.9-25.3,23.4-30.6C108.4,21,92.9,14,75.9,14
		c-11.5,0-22.3,3.2-31.5,8.7C50.7,28,60.6,37.4,67.3,48.8z"/>
	<path fill="#7B8350" d="M71.3,56.9c0.4,1,0.8,2,1.1,2.9c0.8,2.4,1.5,5,2.1,7.7c1.4-2,2.9-3.8,4.4-5.2c-2.1-3.9-4.4-7.1-6.1-9.3
		C72.2,54.3,71.7,55.6,71.3,56.9z"/>
	<path fill="#B6CD84" d="M107.4,77.7c-2.2,0.3-4.3,0.7-6.5,1.3c0,0-0.1,0-0.1,0c-2,0.5-4,1.1-6,1.8c-0.8,0.3-1.6,0.6-2.4,0.9
		c-0.3,0.1-0.6,0.3-0.9,0.4c-0.8,0.4-1.7,0.8-2.5,1.2c-1,0.5-1.9,1-2.8,1.5c-0.3,0.2-0.6,0.4-0.9,0.5c-0.4,0.3-0.8,0.5-1.2,0.8
		c-1,0.7-2,1.4-3,2.1C80,89,78.9,89.8,78,90.6c1,0.9,1.9,1.8,2.8,2.7c1.7,1.7,3.2,3.4,4.4,5c0.2,0.3,0.5,0.6,0.7,0.9
		c1.4,1.8,2.5,3.6,3.5,5.2c0.4,0.7,0.8,1.4,1.1,2.1l0.7-3.4l1.8-9l0.9-4.5l0.9,0.2l0.4,9l0.3,6.8l1.4-0.9l3.7-2.5l1.5-1l5.9-3.9
		l-1.5-0.3l2.8-13.8l0.8,0.2l0.5,12.2l17.1-11.4l1.8,2.7l-17.1,11.4l11.1,5.2l-0.2,0.8l-13.8-2.8l0.3-1.5l-8.4,5.6l-0.7,0.5
		l-3.4,2.3l3.6,1.7l0,0l10.7,5l-0.2,0.9l-17.3-3.5l0.3-1.4l0.2-1l-1.3,0.9l-0.2,0.2l-0.6,0.4c1.3,4.2,1.7,8.3,1.2,12l4.5,2.1l-0.2,1
		l-4.8-1c-0.6,2.3-1.5,4.4-2.8,6.2c-1.2,1.6-2.7,3.1-4.4,4.3c2.8-0.3,5.8-0.9,8.9-2c0.4-0.1,0.8-0.3,1.2-0.4c4.6-1.6,9.4-4,14.4-7.3
		c2.2-1.5,4.3-3.2,6.3-4.9c9.9-9.1,15.6-21.5,18.8-30.8c1-4,1.6-8.1,1.8-12.3C132.3,77.6,120.4,75.8,107.4,77.7z"/>
	<path fill="#B6CD84" d="M91.1,107.1l-0.4-0.1c0.1,0.3,0.3,0.6,0.4,0.9c0.1,0.2,0.1,0.3,0.2,0.5l1.4-0.9L91.1,107.1z"/>
	<path fill="#B6CD84" d="M88.2,130.5c1.1-1.5,1.9-3.3,2.4-5.2c0.2-0.9,0.4-1.9,0.5-2.8c0.3-2.9,0-6-1-9.3c-0.2-0.6-0.4-1.3-0.6-1.9
		c-0.1-0.4-0.3-0.8-0.5-1.2c0,0,0-0.1,0-0.1c-0.8-2-1.9-4-3.2-6.1c-0.2-0.4-0.5-0.8-0.8-1.1c-1.3-1.9-2.7-3.8-4.4-5.6
		c-0.8-0.9-1.7-1.8-2.6-2.7c-0.4-0.4-0.8-0.8-1.2-1.1c-0.3-0.3-0.6-0.6-1-0.9c-0.3-0.3-0.7-0.6-1-0.9c-0.3-0.3-0.7-0.6-1-0.9
		c-0.3-0.2-0.6-0.5-0.9-0.7c-0.1,0-0.1-0.1-0.2-0.1c-0.9-0.7-1.9-1.5-2.9-2.2c-0.9-0.6-1.7-1.2-2.6-1.7c-0.1-0.1-0.2-0.1-0.3-0.2
		c-0.3-0.2-0.6-0.4-1-0.6c-2-1.1-4-2.1-6-3c-0.1,0-0.2-0.1-0.3-0.1c-0.7-0.3-1.5-0.6-2.2-0.9c-0.7-0.3-1.5-0.5-2.2-0.8
		c-1-0.3-2-0.6-3-0.9c-0.4-0.1-0.8-0.2-1.2-0.3c-1.4-0.3-2.7-0.6-4-0.9c-14.3-2.7-27.6-0.8-31.6-0.1c0.9,6.2,6.2,34.4,26.2,48.8
		c0.4,0.3,0.8,0.5,1.2,0.8c8.3,5.3,18,8.7,28.5,9.5c1.5,0.1,3.1,0.2,4.7,0.2c0.1,0,0.3,0,0.4,0c0.1,0,0.1,0,0.2,0
		c1.2-0.2,2.3-0.6,3.3-0.9C83.6,135,86.5,132.9,88.2,130.5z M82,128.1l-6.9-5l-2.1-1.5l0.4,2.6l0,0.3l-0.6,0.1l-3.1,0.5l-6.7,1.1
		l-1.4,0.2l-1.4,0.2l-5.9,1l-0.2-1l5.3-2.2l1.3-0.5l1.3-0.5l8.2-3.5l0.1,0l-1.8-1.3l-0.8-0.6l-0.2-0.1l-1.1-0.8l-3.9-2.8l-0.5-0.4
		l-1.2-0.9l-1.2-0.8l-0.5-0.4l-0.8-0.6l0.4,2.4l-0.5,0.1l0,0l-2.8,0.5l-2.3,0.4l-4.3,0.7l-7.5,1.2l-0.2-1l7.8-3.3l4.4-1.9l2.2-0.9
		l0.3-0.1l-0.3-0.2l-2.1-1.5l-4.4-3.2l-5.5-3.9l0.2,1.5L30,104.3l-0.1-0.8l11.3-4.8l-16.7-12l1.9-2.7l16.7,12L44,83.9l0.8-0.1
		L47,97.7l-1.5,0.2l3.5,2.5l4.5,3.3l2.1,1.5l1.6,1.1l0.5,0.4l0.3-3.5L59,90.9l1-0.2l1.6,9.9l0.7,4.6l0.2,1l0.2,1.3l0.1,0.5l-0.2,0
		l-0.1,0l-1.5,0.3l-0.6,0.1l0.4,0.3l1.1,0.8l0.7,0.5l0.5,0.3l3.7,2.7l0.6,0.4l0.5,0.3l0.4,0.3l3.3,2.4l0.7,0.5l1.3-17.5l1-0.2
		l1.3,7.7l0.4,2.7l1.2,7.4l0,0.2l0.2,1l-1.9,0.3l-0.4,0.1l-0.6,0.1l0.2,0.2l0.8,0.6l0.1,0.1l1.9,1.4l1.3,0.9l1.7,1.2l3,2.1L82,128.1
		z"/>
	<path fill="#8BB840" d="M93.3,111l1.3-0.9l-0.2,1l-0.3,1.4l17.3,3.5l0.2-0.9l-10.7-5l0,0l-3.6-1.7l3.4-2.3l0.7-0.5l8.4-5.6
		l-0.3,1.5l13.8,2.8l0.2-0.8l-11.1-5.2L129.5,87l-1.8-2.7l-17.1,11.4L110,83.4l-0.8-0.2L106.5,97l1.5,0.3l-5.9,3.9l-1.5,1l-3.7,2.5
		l-1.4,0.9l-0.3-6.8l-0.4-9l-0.9-0.2l-0.9,4.5l-1.8,9l-0.7,3.4c0.1,0.2,0.2,0.4,0.3,0.6l0.4,0.1l1.6,0.3l-1.4,0.9
		c0.4,1,0.8,1.9,1.1,2.8c0,0,0,0,0,0c0,0.1,0.1,0.2,0.1,0.3l0.6-0.4L93.3,111z"/>
	<path fill="#8BB840" d="M98.2,125.7l-4.5-2.1c-0.1,0.7-0.3,1.5-0.4,2.2l4.8,1L98.2,125.7z"/>
	<polygon fill="#8BB840" points="79.3,122.1 78,121.2 76.1,119.8 75.9,119.7 75.2,119.2 74.9,119 75.5,118.9 75.9,118.8 77.8,118.5 
		77.6,117.5 77.6,117.3 76.4,109.9 76,107.2 74.7,99.5 73.7,99.7 72.3,117.1 71.6,116.6 68.3,114.2 67.9,113.9 67.4,113.6 
		66.8,113.2 63.1,110.5 62.6,110.2 61.9,109.7 60.8,108.8 60.4,108.5 60.9,108.5 62.5,108.2 62.6,108.2 62.8,108.2 62.7,107.6 
		62.5,106.3 62.3,105.3 61.6,100.7 60,90.7 59,90.9 58.1,103.2 57.8,106.7 57.3,106.3 55.7,105.2 53.6,103.7 49,100.4 45.6,97.9 
		47,97.7 44.8,83.8 44,83.9 43.1,96.1 26.4,84.1 24.5,86.8 41.2,98.8 29.9,103.5 30,104.3 43.9,102 43.6,100.6 49.1,104.5 
		53.5,107.7 55.6,109.2 55.9,109.4 55.6,109.5 53.5,110.4 49.1,112.3 41.3,115.5 41.5,116.5 49,115.3 53.3,114.6 55.6,114.2 
		58.4,113.7 58.4,113.7 58.9,113.7 58.5,111.2 59.2,111.8 59.8,112.2 60.9,113 62.2,113.9 62.7,114.2 66.6,117.1 67.6,117.8 
		67.8,117.9 68.6,118.5 70.4,119.8 70.3,119.8 62.1,123.3 60.8,123.8 59.6,124.4 54.3,126.6 54.4,127.7 60.3,126.7 61.7,126.5 
		63.1,126.3 69.8,125.2 72.8,124.7 73.5,124.5 73.4,124.3 73,121.7 75.1,123.2 82,128.1 83.9,125.5 80.9,123.3 	"/>
	<path fill="#3D803D" d="M140.8,76.5c0,0-0.1,0-0.1,0c0-0.3,0-0.5,0-0.8c0-17.5-7-33.5-18.4-45.2c-0.1-0.1-0.2-0.2-0.2-0.2
		c-11.8-12-28.1-19.4-46.2-19.4c-12.5,0-24.2,3.6-34.1,9.8c-0.2,0.1-0.4,0.3-0.6,0.4C23.1,32.6,11.1,52.8,11.1,75.7
		c0,26.3,15.7,49,38.3,59.1c9.2,4.8,16.8,5.9,21.9,5.8c0.9,0,1.9-0.1,2.8-0.2c0.6,0,1.2,0,1.8,0c31.8,0,58.3-23,63.8-53.3
		c1.5-5.4,2.1-9,2.1-9.2C141.9,77.4,141.4,76.7,140.8,76.5z M76.4,137.4c-0.1,0-0.1,0-0.2,0c-0.1,0-0.3,0-0.4,0
		c-1.6,0-3.1-0.1-4.7-0.2c-10.4-0.8-20.1-4.2-28.5-9.5c-0.4-0.3-0.8-0.5-1.2-0.8c-19.9-14.3-25.2-42.5-26.2-48.8
		c4-0.7,17.3-2.5,31.6,0.1c1.3,0.3,2.7,0.5,4,0.9c0.4,0.1,0.8,0.2,1.2,0.3c1,0.3,2,0.6,3,0.9c0.7,0.2,1.5,0.5,2.2,0.8
		c0.7,0.3,1.5,0.6,2.2,0.9c0.1,0,0.2,0.1,0.3,0.1c2.1,0.9,4.1,1.9,6,3c0.3,0.2,0.6,0.4,1,0.6c0.1,0.1,0.2,0.1,0.3,0.2
		c0.9,0.6,1.8,1.1,2.6,1.7c1,0.7,1.9,1.4,2.9,2.2c0.1,0,0.1,0.1,0.2,0.1c0.3,0.2,0.6,0.5,0.9,0.7c0.4,0.3,0.7,0.6,1,0.9
		c0.3,0.3,0.7,0.6,1,0.9c0.3,0.3,0.6,0.6,1,0.9c0.4,0.4,0.8,0.8,1.2,1.1c0.9,0.9,1.8,1.8,2.6,2.7c1.7,1.9,3.2,3.8,4.4,5.6
		c0.3,0.4,0.5,0.8,0.8,1.1c1.3,2,2.3,4.1,3.2,6.1c0,0,0,0.1,0,0.1c0.2,0.4,0.3,0.8,0.5,1.2c0.2,0.7,0.4,1.3,0.6,1.9
		c1,3.3,1.3,6.4,1,9.3c-0.1,1-0.3,1.9-0.5,2.8c-0.5,1.9-1.3,3.7-2.4,5.2c-1.7,2.4-4.6,4.6-8.5,6C78.7,136.8,77.6,137.1,76.4,137.4z
		 M135.6,90.9c-3.2,9.3-8.9,21.7-18.8,30.8c-2,1.8-4.1,3.4-6.3,4.9c-5,3.3-9.9,5.7-14.4,7.3c-0.4,0.1-0.8,0.3-1.2,0.4
		c-3.1,1-6.1,1.6-8.9,2c1.7-1.2,3.2-2.6,4.4-4.3c1.3-1.8,2.3-3.9,2.8-6.2c0.2-0.7,0.3-1.4,0.4-2.2c0.5-3.7,0.2-7.8-1.2-12
		c0-0.1-0.1-0.2-0.1-0.3c0,0,0,0,0,0c-0.3-0.9-0.6-1.8-1.1-2.8c-0.1-0.2-0.1-0.3-0.2-0.5c-0.1-0.3-0.3-0.6-0.4-0.9
		c-0.1-0.2-0.2-0.4-0.3-0.6c-0.3-0.7-0.7-1.4-1.1-2.1c-0.9-1.7-2.1-3.4-3.5-5.2c-0.2-0.3-0.4-0.6-0.7-0.9c-1.3-1.6-2.8-3.3-4.4-5
		c-0.9-0.9-1.8-1.8-2.8-2.7c1-0.8,2-1.6,3.1-2.4c1-0.7,1.9-1.4,3-2.1c0.4-0.3,0.8-0.5,1.2-0.8c0.3-0.2,0.6-0.4,0.9-0.5
		c0.9-0.5,1.9-1.1,2.8-1.5c0.8-0.4,1.7-0.8,2.5-1.2c0.3-0.1,0.6-0.3,0.9-0.4c0.8-0.3,1.6-0.6,2.4-0.9c2-0.7,4-1.3,6-1.8
		c0,0,0.1,0,0.1,0c2.2-0.5,4.4-0.9,6.5-1.3c12.9-1.9,24.9-0.1,30,0.9C137.3,82.8,136.7,86.9,135.6,90.9z M137.5,75.9
		c-3.5-0.7-9.5-1.6-16.8-1.7c-3.7-0.1-7.9,0.1-12.4,0.7c-2,0.3-4.1,0.6-6.3,1.1c-0.4,0.1-0.8,0.2-1.2,0.3c-2.2,0.5-4.5,1.2-6.7,2
		c-0.5,0.2-1,0.3-1.4,0.5c-0.6,0.2-1.2,0.5-1.8,0.7c-0.8,0.3-1.5,0.7-2.3,1c-0.7,0.3-1.4,0.7-2.1,1.1c-0.5,0.3-1.1,0.6-1.6,0.9
		c-0.8,0.5-1.6,1-2.4,1.5c-0.4,0.3-0.8,0.6-1.2,0.9c-1.3,0.9-2.6,1.8-3.8,2.8c0,0,0,0,0,0c-0.5,0.4-1.1,0.9-1.6,1.3
		c-0.8-0.6-1.6-1.3-2.5-1.9c0,0-0.1-0.1-0.1-0.1c-0.6-0.5-1.2-0.9-1.9-1.4c-1.3-0.9-2.7-1.8-4-2.6c-0.2-0.1-0.3-0.2-0.5-0.3
		c0,0-0.1,0-0.1-0.1c-2.4-1.4-5-2.5-7.5-3.5c-0.3-0.1-0.6-0.2-0.9-0.3c-0.2-0.1-0.3-0.1-0.5-0.2c-1.1-0.4-2.2-0.8-3.3-1.1
		c-0.9-0.3-1.8-0.5-2.7-0.8c-0.6-0.1-1.2-0.3-1.8-0.4c-1.2-0.3-2.4-0.5-3.6-0.7c-4.6-0.8-9-1.2-12.8-1.2c-9.8-0.2-17.4,1.1-19.5,1.4
		c0-22,11.6-41.3,29-52.2c0.4-0.2,0.7-0.5,1.1-0.7c9.2-5.5,20-8.7,31.5-8.7c17.1,0,32.5,7,43.7,18.2c0.2,0.2,0.4,0.4,0.6,0.6
		c10.7,11.1,17.4,26.2,17.4,42.8C137.5,75.8,137.5,75.8,137.5,75.9z"/>
</g>
</svg>
