<?xml version="1.0" encoding="utf-8"?>
<!-- Generator: Adobe Illustrator 18.1.0, SVG Export Plug-In . SVG Version: 6.00 Build 0)  -->
<svg version="1.0" id="Layer_1" xmlns="http://www.w3.org/2000/svg" xmlns:xlink="http://www.w3.org/1999/xlink" x="0px" y="0px"
	 viewBox="0 0 150 150" enable-background="new 0 0 150 150" xml:space="preserve">
<g>
	<g>
		<path fill="#00A7C0" d="M36.7,91.3l50.1-37.3c3.3-2.5,7.2-4.1,11.2-4.8c-6.4-3-13.4-4.7-20.9-4.7c-27.2,0-49.2,22-49.2,49.2
			c0,2.7,0.3,5.2,0.7,7.8C30.4,97.4,33.1,93.9,36.7,91.3z"/>
		<path fill="#00A7C0" d="M118.3,96.2l-50.1,37.3c-3.4,2.5-7.2,4.1-11.3,4.8c6.2,2.8,13,4.4,20.2,4.4c27.2,0,49.2-22,49.2-49.2
			c0-2.1-0.2-4.3-0.5-6.3C124,90.7,121.5,93.8,118.3,96.2z"/>
		<path fill="#4A5FAA" d="M123.6,67.6c-0.7-2-1.7-3.9-3-5.6l-0.3-0.4c-7.3-9.9-21.3-11.9-31.1-4.5L39,94.4
			c-7.8,5.9-10.9,16.4-7.6,25.6c0.7,2,1.7,3.9,3,5.6l0.3,0.4c3.5,4.7,8.7,7.8,14.6,8.7c5.9,0.8,11.8-0.6,16.5-4.2L116,93.1
			C123.8,87.3,126.9,76.7,123.6,67.6z M64.1,128.1c-4.1,3.1-9.2,4.4-14.4,3.7c-5.1-0.8-9.6-3.5-12.7-7.6l-0.3-0.4
			c-1.1-1.4-2-3.2-2.6-4.9c-3-8-0.2-17.1,6.6-22.2l50.1-37.4c8.6-6.4,20.7-4.6,27.1,4l0.3,0.4c1.1,1.5,2,3.2,2.6,4.9
			c2.9,8,0.3,17.1-6.6,22.2L64.1,128.1z"/>
		<path fill="#00A7C0" d="M117.4,69.8c-0.5-1.4-1.2-2.7-2.1-3.9l-0.3-0.4c-2.5-3.4-6.2-5.6-10.4-6.2c-4.2-0.6-8.3,0.4-11.7,2.9
			L77.3,74l18.5,26l16.3-12.1C117.6,83.8,119.9,76.3,117.4,69.8z"/>
	</g>
	<polygon fill="#4A5FAA" points="122.4,56.7 117.1,51.4 119.2,49.2 79.9,12.5 38.6,48.6 42.8,50.8 37.6,56.1 24.5,50.5 79.9,2.4 
		137,56.7 	"/>
	<polygon fill="#00A7C0" points="89.5,27.5 83.4,27.5 83.4,21.5 76.7,21.5 76.7,27.5 70.6,27.5 70.6,34.3 76.7,34.3 76.7,40.3 
		83.4,40.3 83.4,34.3 89.5,34.3 	"/>
</g>
</svg>
