<?xml version="1.0" encoding="utf-8"?>
<!-- Generator: Adobe Illustrator 18.1.0, SVG Export Plug-In . SVG Version: 6.00 Build 0)  -->
<svg version="1.1" id="Layer_1" xmlns="http://www.w3.org/2000/svg" xmlns:xlink="http://www.w3.org/1999/xlink" x="0px" y="0px"
	 viewBox="0 0 150 150" enable-background="new 0 0 150 150" xml:space="preserve">
<g>
	<g>
		<path fill="#F0A11F" d="M24.2,52.4h37.5l14.5,56.1l14.4-56.1H128v92.2h-23.3V74.3l-18,70.3H65.5l-18-70.3v70.3H24.2V52.4z"/>
	</g>
	<g>
		<path fill="#F0671F" d="M54.6,37.5c0.5-0.5,1-0.9,1.5-1.4l-14.7-18c-4.6,4-8.6,8.7-11.6,14l22.8,7.5C53.2,39,53.9,38.2,54.6,37.5z
			"/>
		<path fill="#F0A11F" d="M97.1,37.2c0.6,0.6,1.2,1.3,1.8,1.9l23.1-7.4c-2.9-4.9-6.6-9.4-10.8-13.1L95.9,36.1
			C96.3,36.4,96.7,36.8,97.1,37.2z"/>
		<path fill="#F0A11F" d="M81.6,29.1L92.5,8c-4.7-1.5-9.7-2.4-14.9-2.6l1,23.3C79.7,28.7,80.7,28.9,81.6,29.1z"/>
		<path fill="#F0671F" d="M91.5,32.8L109,16.9l0.1,0c-4.2-3.3-8.9-6-14-8L87,30.6C88.6,31.2,90.1,32,91.5,32.8z"/>
		<path fill="#F0671F" d="M122.9,33.3L102,43.5c0.8,1.3,1.4,2.7,1.9,4.2h24C126.9,42.6,125.3,37.7,122.9,33.3z"/>
		<path fill="#F0671F" d="M72.8,28.7l2.1-23.3c-5.8,0.1-11.3,1.1-16.5,3l11.9,20.7C71.1,28.9,72,28.8,72.8,28.7z"/>
		<path fill="#F0A11F" d="M49.6,44.3L28.7,34.1c-2.2,4.2-3.7,8.8-4.7,13.6h24C48.5,46.5,49,45.4,49.6,44.3z"/>
		<path fill="#F0A11F" d="M65,30.6L56.1,9.2c-4.8,1.9-9.3,4.6-13.2,7.7l17.5,16C61.8,32,63.4,31.3,65,30.6z"/>
	</g>
</g>
</svg>
