<?xml version="1.0" encoding="utf-8"?>
<!-- Generator: Adobe Illustrator 18.1.0, SVG Export Plug-In . SVG Version: 6.00 Build 0)  -->
<svg version="1.1" id="Layer_1" xmlns="http://www.w3.org/2000/svg" xmlns:xlink="http://www.w3.org/1999/xlink" x="0px" y="0px"
	 viewBox="0 0 2000 2000" enable-background="new 0 0 2000 2000" xml:space="preserve">
<g>
	<path fill="#D8505C" d="M1811.2,893.8c-24-205.1-174-368.3-356.1-392.5c-182.1-24.3-303.9,78.2-346,103.2
		c-54.6,32.4-109.3,28.3-109.3,28.3s-54.6,4.1-109.3-28.3c-42.1-25-163.9-127.5-346-103.2c-182.1,24.2-332.1,187.5-356.1,392.5
		c-25.8,219.6,62.6,407.8,232.3,560.5c171.4,154.2,259,410.7,388.5,428.9c85,12,160.2-16.2,190.5-16.2s105.5,28.2,190.5,16.2
		c129.5-18.2,217.1-274.8,388.5-428.9C1748.6,1301.6,1836.9,1113.5,1811.2,893.8z M688.1,1607.8c-37.2,0-67.3-30.2-67.3-67.3
		c0-37.2,30.2-67.3,67.3-67.3c37.2,0,67.3,30.1,67.3,67.3C755.5,1577.7,725.3,1607.8,688.1,1607.8z M914,1418H459v-103h455V1418z
		 M620.8,1200.5c0-37.2,30.2-67.3,67.3-67.3c37.2,0,67.3,30.2,67.3,67.3c0,37.2-30.1,67.4-67.3,67.4
		C651,1267.9,620.8,1237.7,620.8,1200.5z M914,903H738v177H635V903H459V786h176V609h103v177h176V903z M1491.8,1492.1l-77.1,77.1
		l-124.7-124.7l-124.7,124.7l-77.1-77.1l124.8-124.7l-124.8-124.7l77.1-77.1l124.7,124.7l124.7-124.7l77.1,77.1L1367,1367.3
		L1491.8,1492.1z M1517,903h-456V786h456V903z"/>
	<path fill="#619F42" d="M1336.7,113.5C849.3,94.2,996.8,556,996.8,556C1420.1,543.2,1336.7,113.5,1336.7,113.5z"/>
</g>
</svg>
