<?xml version="1.0" encoding="iso-8859-1"?>
<!-- Generator: Adobe Illustrator 13.0.0, SVG Export Plug-In . SVG Version: 6.00 Build 14948)  -->
<!DOCTYPE svg PUBLIC "-//W3C//DTD SVG 1.1//EN" "http://www.w3.org/Graphics/SVG/1.1/DTD/svg11.dtd">
<svg version="1.1" id="Layer_1" xmlns="http://www.w3.org/2000/svg" xmlns:xlink="http://www.w3.org/1999/xlink" x="0px" y="0px"
	 width="100px" height="100px" viewBox="0 0 100 100" enable-background="new 0 0 100 100" xml:space="preserve">
<g>
	<path fill="none" d="M71.893,24.699l-0.009-1.865l-0.878-1.104l-20.437-4.728h-0.508l-20.673,4.766l-0.88,1.11v1.173l-14.015,3.022
		l-0.917,1.113v39.125l0.483,0.943l14.462,11.826v0.436v2.977l0.524,0.974l20.279,7.35l1.242,0.008l20.435-6.846l0.547-0.982v-2.598
		l14.752-12.907l0.448-0.914V28.449l-0.941-1.122L71.893,24.699z M85.986,67.769L70.781,81.02v3.197l-20.827,7.086l-20.658-7.594
		v-4.017L14.347,67.515V27.893l14.938-3.198l-0.007-2.105l21.034-4.854l20.812,4.812v2.811l14.863,2.784V67.769z"/>
	<path fill="#000030" d="M86.689,25.781l-13.131-2.503v-1.023l-1.611-2.028l-21.176-4.893h-0.817h-0.104l-21.41,4.935l-1.6,2.028
		v0.365l-13.243,2.875l-1.695,2.05v40.124l0.763,1.484l0.093,0.178l14.094,11.569v2.767v0.211l0.826,1.529l0.095,0.186l21.044,7.843
		l1.979,0.021l0.24,0.004l0.211-0.128l21.014-7.205l0.855-1.551l0.105-0.187v-2.209l14.409-12.64l0.71-1.449l0.09-0.182V27.838
		L86.689,25.781z M86.749,67.577l-0.448,0.914L71.549,81.398v2.598l-0.547,0.982l-20.435,6.846l-1.242-0.008l-20.279-7.35
		l-0.524-0.974v-2.977v-0.436L14.06,68.255l-0.483-0.943V28.187l0.917-1.113l14.015-3.022v-1.173l0.88-1.11l20.673-4.766h0.508
		l20.437,4.728l0.878,1.104l0.009,1.865l13.915,2.627l0.941,1.122V67.577z"/>
	<path fill="#3257A2" d="M50.78,57.79l-2.843,2.064c0,2.006,0,4.021,0,6.009c0,3.085,0.082,6.212,0.243,9.377
		c0.083,1.056,0.509,2.019,1.278,2.892c0.366,0.412,0.765,0.729,1.196,0.966c0.427-0.236,0.826-0.554,1.191-0.966
		c0.77-0.873,1.197-1.836,1.279-2.892c0.16-3.165,0.242-6.292,0.242-9.377c0-2.05,0-4.124,0-6.194L50.78,57.79z"/>
	<path fill="#3257A2" d="M71.123,22.548l-20.812-4.812l-21.034,4.854l0.007,2.105l-14.938,3.198v39.622l14.949,12.178v4.017
		l20.658,7.594l20.827-7.086V81.02l15.205-13.251V28.143l-14.863-2.784V22.548z M72.305,33.287c1.42,0.527,2.718,1.399,3.896,2.618
		c1.339,1.38,2.272,2.912,2.8,4.598c0.526,1.685,0.709,3.357,0.55,5.022c-0.164,1.665-0.641,3.247-1.432,4.75
		c-0.794,1.504-1.827,2.783-3.105,3.835c-1.279,1.057-2.762,1.827-4.445,2.315c-1.688,0.487-3.522,0.528-5.512,0.12
		c-0.484-0.081-0.942-0.19-1.368-0.335c-0.429-0.14-0.861-0.312-1.31-0.517l-0.062-0.608l0.608-0.243
		c1.422,0.08,2.782-0.161,4.082-0.732c2.109-0.853,3.721-2.089,4.838-3.714c1.118-1.624,1.737-3.339,1.858-5.144
		c0.121-1.806-0.256-3.512-1.126-5.114c-0.875-1.602-2.244-2.791-4.11-3.562c-0.608-0.245-1.311-0.417-2.1-0.521
		c-0.792-0.099-1.636-0.15-2.53-0.15c-0.85,0-1.701,0.009-2.555,0.031c-0.853,0.02-1.627,0.009-2.316-0.031
		c0.124,6.576,0.175,13.11,0.154,19.606c-0.022,6.494-0.053,13.03-0.091,19.607c0,1.298,0.372,2.229,1.125,2.8
		c0.752,0.568,1.695,0.974,2.833,1.218c0.078,0,0.202,0.04,0.365,0.121l0.18,0.608l-0.128,0.088H37.899l-0.13-0.088l0.183-0.608
		c0.163-0.081,0.284-0.121,0.364-0.121c1.138-0.244,2.081-0.649,2.833-1.218c0.751-0.57,1.126-1.502,1.126-2.8
		c-0.04-6.577-0.071-13.113-0.09-19.607c-0.02-6.496,0.031-13.031,0.152-19.606c-0.69,0.04-1.464,0.051-2.317,0.031
		c-0.851-0.021-1.704-0.031-2.555-0.031c-0.893,0-1.737,0.051-2.528,0.15c-0.792,0.104-1.492,0.276-2.101,0.521
		c-1.865,0.771-3.236,1.96-4.109,3.562s-1.25,3.308-1.126,5.114c0.119,1.805,0.741,3.52,1.856,5.144
		c1.118,1.625,2.731,2.861,4.841,3.714c1.3,0.571,2.66,0.812,4.08,0.732l0.608,0.243l-0.059,0.608
		c-0.448,0.205-0.884,0.377-1.309,0.517c-0.428,0.145-0.884,0.254-1.371,0.335c-1.988,0.408-3.825,0.367-5.511-0.12
		c-1.684-0.488-3.166-1.259-4.444-2.315c-1.279-1.052-2.314-2.331-3.106-3.835c-0.791-1.503-1.267-3.085-1.431-4.75
		c-0.163-1.665,0.022-3.337,0.549-5.022c0.527-1.686,1.459-3.217,2.8-4.598c1.177-1.219,2.475-2.091,3.897-2.618
		c0.657-0.243,1.316-0.412,1.979-0.536h39.343C70.987,32.875,71.647,33.044,72.305,33.287z"/>
	<path fill="#3257A2" d="M48.894,51.981l1.887-5.813l1.887,5.813h0.67c-0.008-1.666-0.008-3.341-0.031-4.996
		c-0.039-3.125-0.121-6.27-0.244-9.438c-0.039-1.093-0.416-2.078-1.127-2.951c-0.365-0.45-0.795-0.789-1.281-1.027
		c-0.49,0.238-0.92,0.577-1.286,1.027c-0.71,0.873-1.084,1.858-1.126,2.951c-0.122,3.168-0.203,6.313-0.245,9.438
		c-0.02,1.655-0.02,3.33-0.031,4.996H48.894z"/>
	<path fill="#FFFFFF" d="M30.98,32.751c-0.664,0.124-1.323,0.293-1.979,0.536c-1.422,0.527-2.72,1.399-3.897,2.618
		c-1.34,1.38-2.273,2.912-2.8,4.598c-0.527,1.685-0.711,3.357-0.549,5.022c0.164,1.665,0.64,3.247,1.431,4.75
		c0.792,1.504,1.827,2.783,3.106,3.835c1.278,1.057,2.76,1.827,4.444,2.315c1.686,0.487,3.522,0.528,5.511,0.12
		c0.487-0.081,0.943-0.19,1.371-0.335c0.425-0.14,0.861-0.312,1.309-0.517l0.059-0.608l-0.608-0.243
		c-1.42,0.08-2.78-0.161-4.08-0.732c-2.11-0.853-3.723-2.089-4.841-3.714c-1.115-1.624-1.737-3.339-1.856-5.144
		c-0.124-1.806,0.253-3.512,1.126-5.114s2.244-2.791,4.109-3.562c0.608-0.245,1.309-0.417,2.101-0.521
		c0.791-0.099,1.635-0.15,2.528-0.15c0.851,0,1.704,0.009,2.555,0.031c0.853,0.02,1.626,0.009,2.317-0.031
		c-0.122,6.576-0.172,13.11-0.152,19.606c0.02,6.494,0.051,13.03,0.09,19.607c0,1.298-0.375,2.229-1.126,2.8
		c-0.752,0.568-1.695,0.974-2.833,1.218c-0.08,0-0.201,0.04-0.364,0.121l-0.183,0.608l0.13,0.088h25.506l0.128-0.088l-0.18-0.608
		c-0.163-0.081-0.287-0.121-0.365-0.121c-1.138-0.244-2.081-0.649-2.833-1.218c-0.753-0.57-1.125-1.502-1.125-2.8
		c0.038-6.577,0.068-13.113,0.091-19.607c0.021-6.496-0.03-13.031-0.154-19.606c0.689,0.04,1.464,0.051,2.316,0.031
		c0.854-0.021,1.705-0.031,2.555-0.031c0.895,0,1.738,0.051,2.53,0.15c0.789,0.104,1.491,0.276,2.1,0.521
		c1.866,0.771,3.235,1.96,4.11,3.562c0.87,1.602,1.247,3.308,1.126,5.114c-0.121,1.805-0.74,3.52-1.858,5.144
		c-1.117,1.625-2.729,2.861-4.838,3.714c-1.3,0.571-2.66,0.812-4.082,0.732l-0.608,0.243l0.062,0.608
		c0.448,0.205,0.881,0.377,1.31,0.517c0.426,0.145,0.884,0.254,1.368,0.335c1.989,0.408,3.824,0.367,5.512-0.12
		c1.684-0.488,3.166-1.259,4.445-2.315c1.278-1.052,2.312-2.331,3.105-3.835c0.791-1.503,1.268-3.085,1.432-4.75
		c0.159-1.665-0.023-3.337-0.55-5.022c-0.527-1.686-1.461-3.217-2.8-4.598c-1.179-1.219-2.477-2.091-3.896-2.618
		c-0.657-0.243-1.317-0.412-1.981-0.536H30.98z M48.241,37.547c0.042-1.093,0.417-2.078,1.126-2.951
		c0.366-0.45,0.795-0.789,1.286-1.027c0.486,0.238,0.916,0.577,1.281,1.027c0.711,0.873,1.088,1.858,1.127,2.951
		c0.123,3.168,0.205,6.313,0.244,9.438c0.023,1.655,0.023,3.33,0.031,4.996h-0.67l-1.887-5.813l-1.887,5.813h-0.928
		c0.011-1.666,0.011-3.341,0.031-4.996C48.039,43.86,48.12,40.715,48.241,37.547z M53.009,55.28l1.375,4.239l-3.604-2.621
		l-3.604,2.621l1.375-4.239l-3.604-2.616h4.457l1.375-4.241l1.375,4.241h4.458L53.009,55.28z M53.124,75.24
		c-0.082,1.056-0.51,2.019-1.279,2.892c-0.365,0.412-0.765,0.729-1.191,0.966c-0.431-0.236-0.83-0.554-1.196-0.966
		c-0.769-0.873-1.194-1.836-1.278-2.892c-0.161-3.165-0.243-6.292-0.243-9.377c0-1.988,0-4.003,0-6.009l2.843-2.064l2.586,1.879
		c0,2.07,0,4.145,0,6.194C53.366,68.948,53.284,72.075,53.124,75.24z"/>
	<polygon fill="#272525" points="52.155,52.664 50.78,48.423 49.405,52.664 44.948,52.664 48.552,55.28 47.177,59.52 50.78,56.898 
		54.384,59.52 53.009,55.28 56.613,52.664 	"/>
</g>
</svg>
