<?xml version="1.0" encoding="iso-8859-1"?>
<!-- Generator: Adobe Illustrator 13.0.0, SVG Export Plug-In . SVG Version: 6.00 Build 14948)  -->
<!DOCTYPE svg PUBLIC "-//W3C//DTD SVG 1.1//EN" "http://www.w3.org/Graphics/SVG/1.1/DTD/svg11.dtd">
<svg version="1.1" id="Layer_1" xmlns="http://www.w3.org/2000/svg" xmlns:xlink="http://www.w3.org/1999/xlink" x="0px" y="0px"
	 width="600px" height="600px" viewBox="0 0 600 600" enable-background="new 0 0 600 600" xml:space="preserve">
<g>
	<path fill="#8AC255" d="M241.197,97.646c9.719-11.134,20.827-20.026,33.002-26.861H121.149c-24.751,0-44.804,20.079-44.804,44.804
		v184.716c7.37-17.249,17.462-33.643,30.386-48.489L241.197,97.646z"/>
	<path fill="#0798D5" d="M498.033,133.317c10.226,10.894,18.931,22.189,26.353,33.644v-51.373c0-24.725-20.079-44.804-44.804-44.804
		H409.68c16.795,7.103,33.429,16.26,49.076,27.556C481.611,117.084,494.375,128.564,498.033,133.317z"/>
	<path fill="#0798D5" d="M520.327,341.023L385.969,495.168c-7.663,8.811-16.287,16.581-25.312,23.657h118.926
		c24.725,0,44.804-20.079,44.804-44.805V335.924C523.025,337.633,521.77,339.368,520.327,341.023z"/>
	<path fill="#0798D5" d="M76.345,446.118v27.902c0,24.726,20.053,44.805,44.804,44.805h11.214c-2.482-1.977-5.233-3.604-7.636-5.741
		C102.993,494.1,86.946,471.084,76.345,446.118z"/>
	<path fill="#8AC255" d="M432.909,350.049c79.862-75.857,61.626-117.298,21.361-168.27L351.524,299.718
		C366.798,318.675,432.909,350.049,432.909,350.049z"/>
	<path fill="#0798D5" d="M480.811,149.658c-4.059-5.286-34.871-30.626-34.871-30.626c-61.492-44.297-141.194-58.902-189.043-4.005
		L122.564,269.172c-59.355,68.113-52.253,171.793,15.833,231.149c68.088,59.409,171.793,52.253,231.177-15.834l134.358-154.145
		C553.598,273.337,528.498,200.443,480.811,149.658z M280.181,135.267c35.512-40.718,100.314-25.793,149.632,10.253L305.866,287.675
		c-40.025-38.476-65.631-77.539-75.91-94.762L280.181,135.267z M346.291,464.222c-48.167,55.351-132.33,61.064-187.627,12.844
		c-55.271-48.116-61.065-132.276-12.843-187.602l62.8-72.092c15.326,24.378,46.085,67.927,92.279,108.192
		c29.584,25.794,65.47,50.145,107.685,67.206L346.291,464.222z M480.677,310.077l-50.571,57.994
		c-39.17-14.418-73.026-36.18-101.384-59.757l124.587-142.849C495.79,207.252,519.421,265.567,480.677,310.077z"/>
</g>
</svg>
