<?xml version="1.0" encoding="utf-8"?>
<!-- Generator: Adobe Illustrator 18.1.0, SVG Export Plug-In . SVG Version: 6.00 Build 0)  -->
<svg version="1.1" id="Layer_1" xmlns="http://www.w3.org/2000/svg" xmlns:xlink="http://www.w3.org/1999/xlink" x="0px" y="0px"
	 viewBox="0 0 1000 1000" enable-background="new 0 0 1000 1000" xml:space="preserve">
<g>
	<rect x="450" y="433" fill="none" width="7" height="7"/>
	<rect x="358" y="500" fill="none" width="10" height="9"/>
	<polygon fill="none" points="372,475 364,475 364,478 363,478 363,482 362,482 362,489 369,489 369,482 372,482 372,480.8 
		372,480.8 372,478.4 372,478.4 	"/>
	<rect x="364" y="443" fill="none" width="5" height="1"/>
	<polygon fill="none" points="324,564.3 324,565 331,565 331,564.3 331,558 324,558 	"/>
	<rect x="313" y="537" fill="none" width="7" height="8"/>
	<polygon fill="none" points="322.4,522 321,522 321,524 322,524 322,532 332,532 332,522 322.4,522 	"/>
	<rect x="313" y="578" fill="none" width="7" height="9"/>
	<rect x="396" y="464" fill="none" width="10" height="10"/>
	<rect x="394" y="489" fill="none" width="9" height="10"/>
	<polygon fill="none" points="415,439 418,439 418,443 420,443 420,446 424,446 424,437 415,437 	"/>
	<rect x="424" y="496" fill="none" width="7" height="9"/>
	<rect x="414" y="456" fill="none" width="6" height="5"/>
	<polygon fill="none" points="387.9,506 387.9,506.8 389.2,506 	"/>
	<rect x="428" y="462" fill="none" width="7" height="8"/>
	<rect x="401" y="553" fill="none" width="7" height="9"/>
	<rect x="382" y="540" fill="none" width="11" height="10"/>
	<rect x="382" y="513" fill="none" width="7" height="8"/>
	<polygon fill="none" points="288,569 288,572 291,572 291,571 293.5,571 298.1,569 289,569 	"/>
	<polygon fill="none" points="347,550 350.8,550 355,550 355,544.5 355,543 347,543 	"/>
	<rect x="213" y="628" fill="none" width="7" height="9"/>
	<polygon fill="none" points="280,591 280,599 280.7,599 287,599 287,591 280.7,591 	"/>
	<polygon fill="none" points="226,590 230,590 230,589 234,589 234,587 226,587 	"/>
	<rect x="188" y="644" fill="none" width="7" height="8"/>
	<rect x="236" y="643" fill="none" width="7" height="7"/>
	<rect x="133" y="684" fill="none" width="7" height="7"/>
	<rect x="156" y="662" fill="none" width="8" height="8"/>
	<polygon fill="none" points="167,658.8 169,657 167,657 	"/>
	<polygon fill="none" points="233.3,612.8 234.3,612.2 233.3,612.2 	"/>
	<rect x="282" y="547" fill="none" width="11" height="10"/>
	<polygon fill="none" points="265,590.9 268,589.5 268,587 265,587 	"/>
	<rect x="277" y="574" fill="none" width="7" height="7"/>
	<rect x="256" y="575" fill="none" width="8" height="7"/>
	<rect x="249" y="590" fill="none" width="2" height="1"/>
	<polygon fill="none" points="250,612 256,612 257,612 257,604.9 257,603 250,603 	"/>
	<rect x="245" y="571" fill="none" width="8" height="9"/>
	<polygon fill="none" points="243,599 244,599 244,600 245,600 245,596 243,596 	"/>
	<rect x="651" y="370" fill="none" width="7" height="8"/>
	<polygon fill="none" points="628,352 624.9,352 614,352 614,358.1 614,365 628,365 	"/>
	<polygon fill="none" points="627,341 627,342.9 629.1,341 	"/>
	<rect x="627" y="425" fill="none" width="8" height="7"/>
	<polygon fill="none" points="638,335.8 639,334.4 639,328 638,328 	"/>
	<rect x="590" y="357" fill="none" width="7" height="5"/>
	<rect x="583" y="446" fill="none" width="7" height="9"/>
	<polygon fill="none" points="651,336 651,340.4 651,346 660,346 660,336 652.8,336 	"/>
	<rect x="604" y="394" fill="none" width="9" height="8"/>
	<rect x="456" y="445" fill="none" width="1" height="4"/>
	<rect x="741" y="453" fill="none" width="7" height="9"/>
	<polygon fill="none" points="675,319.6 675,323 688,323 688,317.6 688,309 675,309 	"/>
	<rect x="723" y="331" fill="none" width="13" height="14"/>
	<polygon fill="none" points="588,380 588,376 577,376 577,387 581.7,387 588,387 	"/>
	<rect x="692" y="415" fill="none" width="9" height="7"/>
	<polygon fill="none" points="731,284.2 731,278 721,278 721,284.2 721,289 731,289 	"/>
	<polygon fill="none" points="696,303 700.2,303 706,303 706,297.8 706,293 696,293 	"/>
	<rect x="565" y="376" fill="none" width="4" height="7"/>
	<polygon fill="none" points="470,443 471,443 471,438.3 471,437 470,437 	"/>
	<rect x="476" y="474" fill="none" width="9" height="9"/>
	<polygon fill="none" points="485,443 485,450 491,450 494,450 494,443 491,443 	"/>
	<polygon fill="none" points="478,425 483,425 483,421.7 483,418.5 483,412 481,412 481,414 469,414 469,424 478,424 	"/>
	<rect x="494" y="419" fill="none" width="8" height="8"/>
	<polygon fill="none" points="588.9,368.6 587.9,368.6 587.9,369.7 588.9,369 	"/>
	<rect x="459" y="431" fill="none" width="6" height="1"/>
	<polygon fill="none" points="462,403 453,403 453,409 458,409 458,411 468,411 468,402 462,402 	"/>
	<rect x="512" y="406" fill="none" width="9" height="9"/>
	<rect x="547" y="458" fill="none" width="10" height="10"/>
	<rect x="557" y="403" fill="none" width="7" height="9"/>
	<rect x="545" y="382" fill="none" width="7" height="5"/>
	<rect x="533" y="393" fill="none" width="7" height="7"/>
	<rect x="520" y="434" fill="none" width="7" height="7"/>
	<polygon fill="none" points="452,465.4 452,465 463,465 463,462.2 463,456 452,456 	"/>
	<rect x="231" y="528" fill="#AB5153" width="13" height="15"/>
	<rect x="205" y="469" fill="#AB5153" width="9" height="11"/>
	<polygon fill="#AB5153" points="262,538 262,524 255,524 255,508.2 255,508.2 255,501 239,501 239,508.2 239,508.2 239,524 
		246,524 246,538 	"/>
	<rect x="202" y="550" fill="#AB5153" width="6" height="7"/>
	<rect x="255" y="408" fill="#AB5153" width="6" height="7"/>
	<rect x="257" y="480" fill="#AB5153" width="6" height="6"/>
	<rect x="252" y="392" fill="#AB5153" width="6" height="7"/>
	<rect x="226" y="371" fill="#AB5153" width="7" height="6"/>
	<rect x="222" y="389" fill="#AB5153" width="6" height="6"/>
	<rect x="236" y="387" fill="#AB5153" width="9" height="10"/>
	<rect x="251" y="372" fill="#AB5153" width="7" height="6"/>
	<rect x="261" y="387" fill="#AB5153" width="7" height="6"/>
	<rect x="226" y="406" fill="#AB5153" width="7" height="6"/>
	<rect x="243" y="440" fill="#AB5153" width="10" height="10"/>
	<rect x="213" y="438" fill="#AB5153" width="6" height="6"/>
	<rect x="230" y="438" fill="#AB5153" width="6" height="6"/>
	<rect x="228" y="551" fill="#AB5153" width="13" height="13"/>
	<rect x="225" y="463" fill="#AB5153" width="6" height="6"/>
	<rect x="208" y="521" fill="#AB5153" width="14" height="14"/>
	<rect x="213" y="549" fill="#AB5153" width="9" height="9"/>
	<rect x="209" y="497" fill="#AB5153" width="13" height="15"/>
	<rect x="215" y="482" fill="#AB5153" width="7" height="7"/>
	<rect x="222" y="452" fill="#AB5153" width="6" height="6"/>
	<polygon fill="#AB5153" points="239,470 246.7,470 246.7,470 262,470 262,456 254.2,456 254.2,456 239,456 	"/>
	<rect x="234" y="477" fill="#AB5153" width="13" height="13"/>
	<rect x="327" y="382" fill="#AB5153" width="6" height="6"/>
	<rect x="320" y="342" fill="#AB5153" width="7" height="7"/>
	<rect x="313" y="406" fill="#AB5153" width="9" height="9"/>
	<rect x="325" y="324" fill="#AB5153" width="6" height="7"/>
	<rect x="318" y="332" fill="#AB5153" width="6" height="7"/>
	<rect x="308" y="371" fill="#AB5153" width="6" height="6"/>
	<rect x="318" y="386" fill="#AB5153" width="6" height="6"/>
	<rect x="305" y="431" fill="#AB5153" width="13" height="14"/>
	<rect x="338" y="374" fill="#AB5153" width="11" height="9"/>
	<rect x="339" y="349" fill="#AB5153" width="6" height="7"/>
	<rect x="334" y="390" fill="#AB5153" width="13" height="13"/>
	<rect x="307" y="394" fill="#AB5153" width="6" height="6"/>
	<rect x="302" y="470" fill="#AB5153" width="13" height="14"/>
	<polygon fill="#AB5153" points="314,463 330,463 330,447 314,447 314,456 306.9,456 306.9,456 300,456 300,463 307,463 307,470 
		314,470 	"/>
	<rect x="264" y="376" fill="#AB5153" width="6" height="7"/>
	<rect x="300" y="487" fill="#AB5153" width="14" height="13"/>
	<rect x="284" y="374" fill="#AB5153" width="6" height="6"/>
	<rect x="283" y="402" fill="#AB5153" width="7" height="6"/>
	<rect x="284" y="328" fill="#AB5153" width="6" height="6"/>
	<rect x="284" y="500" fill="#AB5153" width="13" height="13"/>
	<rect x="265" y="403" fill="#AB5153" width="6" height="6"/>
	<rect x="274" y="411" fill="#AB5153" width="10" height="10"/>
	<rect x="276" y="390" fill="#AB5153" width="6" height="6"/>
	<rect x="291" y="383" fill="#AB5153" width="11" height="10"/>
	<rect x="269" y="459" fill="#AB5153" width="11" height="11"/>
	<rect x="265" y="439" fill="#AB5153" width="6" height="6"/>
	<rect x="300" y="407" fill="#AB5153" width="6" height="6"/>
	<rect x="264" y="495" fill="#AB5153" width="13" height="14"/>
	<rect x="271" y="470" fill="#AB5153" width="13" height="14"/>
	<rect x="281" y="443" fill="#AB5153" width="13" height="13"/>
	<rect x="52" y="446" fill="#AB5153" width="7" height="6"/>
	<rect x="95" y="382" fill="#AB5153" width="6" height="7"/>
	<rect x="341" y="326" fill="#AB5153" width="10" height="11"/>
	<rect x="105" y="458" fill="#AB5153" width="6" height="7"/>
	<rect x="106" y="443" fill="#AB5153" width="6" height="7"/>
	<rect x="38" y="440" fill="#AB5153" width="7" height="7"/>
	<rect x="94" y="440" fill="#AB5153" width="6" height="7"/>
	<rect x="101" y="474" fill="#AB5153" width="6" height="7"/>
	<rect x="139" y="453" fill="#AB5153" width="7" height="6"/>
	<rect x="127" y="541" fill="#AB5153" width="6" height="8"/>
	<rect x="139" y="376" fill="#AB5153" width="6" height="7"/>
	<rect x="114" y="666" fill="#AB5153" width="13" height="13"/>
	<rect x="132" y="438" fill="#AB5153" width="6" height="6"/>
	<rect x="118" y="483" fill="#AB5153" width="10" height="11"/>
	<rect x="82" y="465" fill="#AB5153" width="6" height="6"/>
	<path fill="#AB5153" d="M494.1,629.3c18.6-51.2,43.7-87.8,67-112.9C536.5,540.9,510.2,577.2,494.1,629.3z"/>
	<path fill="#AB5153" d="M814.2,350.2c1.4,0.4,2.9,0.9,4.3,1.4c14.3,4.6,30,11.9,46.2,23.2c-58.9-47.7-115-29.4-115-29.4
		c47.2-19.9,84.2-15.4,111.9-2.1c13,3,37.9,8.6,33.5,6.6c-70.3-69.4-155.3-45.7-155.3-45.7l14-22.1H752v-3.1l13.2-20.7
		c-8.2,1.3-15.3,1.2-22.3,3.1l-10.5,5.7H721v12.3l-7,6.4V282h-16v7h-14v9h-8v7h-15v15h-8v5.9l-2.7,1.1H646v-15h-7v15h-8v-7h-8v-8
		h-15v8h15v14l0,0l0,0h-7v9h-8v10.5v0.7V350h-7v-7h-7v-9h-16v16h7v7h-7v8l0,0l0,0h-15v7h-7v-7h-8l0,0l0,0l0,0h8v-15h-8v7h-15v15.6
		l0,0v7.4h7.5l0,0h-7.5l0,0H526l0,0l0,0v8h-8l0,0l0,0v7h-8v-7h-7v-7.9l0,0V372h-15v8h7v8h-7v14h15v-6.8l0,0V411h-8v6.8l0,0V411h-7
		v-16h-16v7.7l0,0V388h-14.4l0,0H450v-8h-7v-8h7v-15h-15v15h-8v16h8v7.2l0,0v6.8h8v-7h7v7h-7v15.8l0,0v7.2h7.1l0,0H443v15.4l0,0V433
		h-16v7.4l0,0V425h-14v8h-16v14h7l0,0l0,0v8.4l0,0l0,0l0,0V447h-14v16h-8v7h0.8H382v-14h-7l0,0l0,0v-9h7.3l0,0h7.7v-14h-7.7l0,0H375
		v-8h-16v15.4l0,0v7.5l0,0v8.1h-2h-3.1H352v-9h-7v-14h14v-15.2l0,0V411h-7v7h-7v-7h-15v14h15v8h-15v7.4l0,0v6.6h7v9h8v7h-7.9l0,0
		h7.9v7h8.9h3.1h2v8h-7v8h-7v7.1l0,0v7.9h-8l0,0l0,0v14.7l0,0V508h-7v-7l0,0l0,0h7v-15h8v-8h-8v-15h-15v15h8v8h-8v7h-8v8h-7v14l0,0
		l0,0h-16v9.7v6.1l0,0v2.3v5h-7v-14h-7l0,0l0,0v-16h-15v16h7v7h-7v15h14.8l0,0l0,0l0,0H269v7.4l0,0V546h-14v13.1v3.1v6.8h-9v2.6v5.2
		V576h-7l0,0l0,0v-7h-6.7H224h-8v14h-7v8h-8v15.1l0,0v7.9h8l0,0h7v-8h8.1l0,0h7.5l0,0H216v16l-3,6h-4v-7h-8v-15h-14v15h7v8.9v3.1v4
		h-7v9l-9,3.5V644h-14v7h-8v8h-14v15h-0.3l-4.5,8H126v2.2l-2.5,4.8H111v5.1l-0.6,1.7c-16,28.3-23.6,46.5-25.1,48.1
		c310.6-180.3,513.2-83.2,516.1-85.9c-22-13.8-107.7-28.7-107.7-28.7c-2.1-5.6-124.6,8.9-124.6,8.9S487.4,503.8,613,474.7
		c7.6-4,12.5-5.2,13-4.2c-15.8,25.6-13.6,48.2-7.1,64.8c-15.2-40.5,14.3-72.6,14.3-72.6l54.6,51.4c-44.3,50.3-7.2,71.5-7.2,71.5
		s-33.1-2.2-55.8-38.3c6.5,10.8,13.5,17.1,13.5,17.1c-19.1,17.2-27.7,41.5-31.9,61c9.6-34.1,31.5-53.2,33.9-56.1
		c41,35.8,102.3,19.2,102.3,19.2l33.8-21.9l-24.7-31.3L863,640.6L819.7,614h-45.3l-31.7-25.3l58.6,52.7c0,0-26.4,22.2-29.3,16.6
		c0,25,58.6,63.8,58.6,63.8l-37.6-32.2l16.5,4.5l45.4-20.1l3.1,3.1l0.3-0.1l28.1,28.2c0,0,14.7,19.4,17.6,16.7
		c23.4-5.6,49.8-38.9,49.8-38.9l-2.9-19.4c0,0,7.1-18,8.5-19.5c-2.7-0.8-46.9-14.7-50.9-14.7c-2.1,0,47.4,14.5,47.4,14.5l-7.2,17.9
		l-74.2-3.4l-97.9-222.4c0,3.3,60.8,16.8,131.9,193.4c-51.5-147.5-127.8-194.5-127.8-194.5l96.9,10.9l-1.4,1.3h0h0l-7.4,8.1l14.7-11
		l-32.2-41.6c-41.7-21.4-66.4-50.4-97.3-57.1C753.8,345.4,779.3,340.1,814.2,350.2z M140,691h-7v-7h7V691z M164,670h-8v-8h8V670z
		 M167,658.8V657h2L167,658.8z M195,652h-7v-8h7V652z M220,637h-7v-9h7V637z M233.3,612.8v-0.7h1L233.3,612.8z M234,589h-4v1h-4v-3
		h8V589z M243,650h-7v-7h7V650z M245,600h-1v-1h-1v-3h2V600z M245,571h8v9h-8V571z M249,590h2v1h-2V590z M257,604.9v7.1h-1h-6v-9h7
		V604.9z M264,582h-8v-7h8V582z M268,589.5l-3,1.4V587h3V589.5z M282,547h11v10h-11V547z M277,574h7v7h-7V574z M287,599h-6.3H280v-8
		h0.7h6.3V599z M293.5,571H291v1h-3v-3h1h9.1L293.5,571z M320,587h-7v-9h7V587z M320,545h-7v-8h7V545z M331,564.3v0.7h-7v-0.7V558h7
		V564.3z M332,532h-10v-8h-1v-2h1.4l0,0h9.6V532z M364,443h5v1h-5V443z M355,544.5v5.5h-4.2H347v-7h8V544.5z M368,509h-10v-9h10V509
		z M372,480.8L372,480.8v1.2h-3v7h-7v-7h1v-4h1v-3h8v3.4l0,0V480.8z M396,464h10v10h-10V464z M387.9,506h1.3l-1.3,0.9V506z M382,513
		h7v8h-7V513z M393,550h-11v-10h11V550z M394,489h9v10h-9V489z M408,562h-7v-9h7V562z M420,461h-6v-5h6V461z M424,446h-4v-3h-2v-4
		h-3v-2h9V446z M431,505h-7v-9h7V505z M435,470h-7v-8h7V470z M450,433h7v7h-7V433z M457,445v4h-1v-4H457z M463,462.2v2.8h-11v0.4
		V456h11V462.2z M465,432h-6v-1h6V432z M468,411h-10v-2h-5v-6h9v-1h6V411z M469,414h12v-2h2v6.5v3.1v3.3h-5v-1h-9V414z M471,438.3
		v4.7h-1v-6h1V438.3z M485,483h-9v-9h9V483z M494,450h-3h-6v-7h6h3V450z M502,427h-8v-8h8V427z M512,406h9v9h-9V406z M527,441h-7v-7
		h7V441z M540,400h-7v-7h7V400z M545,382h7v5h-7V382z M557,468h-10v-10h10V468z M564,412h-7v-9h7V412z M569,383h-4v-7h4V383z
		 M587.9,368.6h1v0.5l-1,0.7V368.6z M577,387v-11h11v4v7h-6.3H577z M590,455h-7v-9h7V455z M597,362h-7v-5h7V362z M613,402h-9v-8h9
		V402z M627,341h2.1l-2.1,1.9V341z M614,365v-6.9V352h10.9h3.1v13H614z M635,432h-8v-7h8V432z M639,334.4l-1,1.4V328h1V334.4z
		 M658,378h-7v-8h7V378z M660,346h-9v-5.6V336h1.8h7.2V346z M688,317.6v5.4h-13v-3.4V309h13V317.6z M701,422h-9v-7h9V422z
		 M706,297.8v5.2h-5.8H696v-10h10V297.8z M721,284.2V278h10v6.2v4.8h-10V284.2z M736,345h-13v-14h13V345z M748,462h-7v-9h7V462z"/>
	<path fill="#AB5153" d="M621.5,541.3c-0.7-1.4-1.3-2.8-1.9-4.1C620.2,538.6,620.8,540,621.5,541.3z"/>
	<path fill="#AB5153" d="M851.1,402.6c8.1,5.5,17.5,9.4,27.3,12.3C869.4,411.8,860.2,407.9,851.1,402.6z"/>
	<rect x="600" y="327" fill="#AB5153" width="13" height="13"/>
	<path fill="#AB5153" d="M912.5,386.7c22.7,31.3,37.1,32.4,37.1,32.4s-2.3,0.6-7.2,0.1c3,0.7,5.7,1.2,8,1.5c9.2-0.6,15-1.5,15-1.5
		s-23.5,0-44-25c-10.6-13.4-20.9-23.4-30.1-31C900.1,371.1,907.1,379.3,912.5,386.7z"/>
	<rect x="87" y="480" fill="#AB5153" width="6" height="6"/>
	<rect x="133" y="621" fill="#AB5153" width="6" height="12"/>
	<rect x="75" y="446" fill="#AB5153" width="9" height="11"/>
	<rect x="68" y="432" fill="#AB5153" width="6" height="7"/>
	<path fill="#AB5153" d="M939.8,574.4c12.2,33.8,18.1,61.7,19.4,68.2C954.7,617.9,947.8,595.1,939.8,574.4z"/>
	<rect x="55" y="466" fill="#AB5153" width="6" height="8"/>
	<rect x="595" y="295" fill="#AB5153" width="13" height="14"/>
	<polygon fill="#AB5153" points="178,628 187,628 187,614 171,614 171,621.2 171,621.2 171,637 178,637 	"/>
	<rect x="181" y="457" fill="#AB5153" width="7" height="6"/>
	<rect x="182" y="408" fill="#AB5153" width="7" height="7"/>
	<rect x="152" y="582" fill="#AB5153" width="6" height="6"/>
	<rect x="189" y="440" fill="#AB5153" width="7" height="6"/>
	<rect x="155" y="624" fill="#AB5153" width="7" height="5"/>
	<rect x="181" y="543" fill="#AB5153" width="9" height="10"/>
	<rect x="183" y="383" fill="#AB5153" width="11" height="10"/>
	<rect x="197" y="378" fill="#AB5153" width="6" height="6"/>
	<rect x="197" y="450" fill="#AB5153" width="10" height="9"/>
	<rect x="149" y="468" fill="#AB5153" width="10" height="10"/>
	<rect x="209" y="399" fill="#AB5153" width="6" height="6"/>
	<rect x="186" y="486" fill="#AB5153" width="10" height="10"/>
	<rect x="191" y="566" fill="#AB5153" width="11" height="11"/>
	<rect x="187" y="472" fill="#AB5153" width="6" height="6"/>
	<rect x="163" y="376" fill="#AB5153" width="6" height="7"/>
	<rect x="159" y="393" fill="#AB5153" width="6" height="7"/>
	<rect x="169" y="443" fill="#AB5153" width="6" height="7"/>
	<rect x="153" y="452" fill="#AB5153" width="8" height="6"/>
	<polygon fill="#AB5153" points="171,591 171,598.6 171,598.6 171,606 187,606 187,599 178,599 178,591 	"/>
	<rect x="157" y="439" fill="#AB5153" width="6" height="6"/>
	<rect x="168" y="469" fill="#AB5153" width="7" height="6"/>
	<rect x="162" y="566" fill="#AB5153" width="9" height="11"/>
	<rect x="153" y="491" fill="#AB5153" width="11" height="11"/>
	<rect x="153" y="541" fill="#AB5153" width="14" height="14"/>
	<rect x="180" y="577" fill="#AB5153" width="6" height="6"/>
	<rect x="211" y="378" fill="#AB5153" width="7" height="6"/>
	<rect x="127" y="461" fill="#AB5153" width="10" height="10"/>
	<rect x="483" y="339" fill="#AB5153" width="6" height="6"/>
	<rect x="496" y="319" fill="#AB5153" width="10" height="11"/>
	<rect x="525" y="317" fill="#AB5153" width="6" height="7"/>
	<rect x="491" y="299" fill="#AB5153" width="6" height="6"/>
	<rect x="510" y="359" fill="#AB5153" width="13" height="13"/>
	<rect x="508" y="302" fill="#AB5153" width="13" height="13"/>
	<rect x="498" y="330" fill="#AB5153" width="14" height="14"/>
	<rect x="491" y="355" fill="#AB5153" width="13" height="14"/>
	<polygon fill="#AB5153" points="481,372.6 481,357 465,357 465,372.6 465,372.6 465,380.1 465,380.1 465,388 472,388 472,395 
		488,395 488,380 481,380 481,372.6 	"/>
	<rect x="462" y="337" fill="#AB5153" width="13" height="13"/>
	<rect x="452" y="372" fill="#AB5153" width="6" height="6"/>
	<rect x="445" y="340" fill="#AB5153" width="11" height="10"/>
	<rect x="466" y="317" fill="#AB5153" width="13" height="13"/>
	<rect x="470" y="300" fill="#AB5153" width="9" height="9"/>
	<rect x="444" y="328" fill="#AB5153" width="7" height="6"/>
	<rect x="581" y="317" fill="#AB5153" width="13" height="13"/>
	<rect x="623" y="298" fill="#AB5153" width="14" height="14"/>
	<rect x="584" y="299" fill="#AB5153" width="6" height="6"/>
	<rect x="620" y="276" fill="#AB5153" width="13" height="13"/>
	<rect x="654" y="290" fill="#AB5153" width="13" height="13"/>
	<rect x="355" y="334" fill="#AB5153" width="5" height="8"/>
	<rect x="671" y="276" fill="#AB5153" width="7" height="7"/>
	<rect x="565" y="319" fill="#AB5153" width="7" height="6"/>
	<rect x="543" y="306" fill="#AB5153" width="13" height="14"/>
	<rect x="529" y="330" fill="#AB5153" width="14" height="14"/>
	<rect x="527" y="345" fill="#AB5153" width="13" height="14"/>
	<rect x="533" y="296" fill="#AB5153" width="6" height="6"/>
	<rect x="556" y="334" fill="#AB5153" width="14" height="13"/>
	<rect x="559" y="296" fill="#AB5153" width="13" height="15"/>
	<rect x="378" y="340" fill="#AB5153" width="6" height="6"/>
	<rect x="413" y="352" fill="#AB5153" width="9" height="11"/>
	<rect x="420" y="334" fill="#AB5153" width="11" height="10"/>
	<rect x="416" y="299" fill="#AB5153" width="6" height="7"/>
	<rect x="401" y="370" fill="#AB5153" width="6" height="6"/>
	<rect x="408" y="315" fill="#AB5153" width="6" height="8"/>
	<rect x="424" y="408" fill="#AB5153" width="14" height="13"/>
	<rect x="410" y="380" fill="#AB5153" width="14" height="14"/>
	<rect x="431" y="349" fill="#AB5153" width="6" height="7"/>
	<polygon fill="#AB5153" points="413,418 413,411 420,411 420,395 413,395 413,402 397,402 397,418 382,418 382,433 397.3,433 
		397.3,433 404,433 404,418 397.3,418 397.3,418 	"/>
	<rect x="393" y="390" fill="#AB5153" width="6" height="7"/>
	<rect x="396" y="302" fill="#AB5153" width="6" height="6"/>
	<polygon fill="#AB5153" points="390,372 375,372 375,387.6 375,387.6 375,395 390,395 390,387.6 390,387.6 	"/>
	<rect x="363" y="349" fill="#AB5153" width="9" height="9"/>
	<rect x="383" y="299" fill="#AB5153" width="6" height="6"/>
	<rect x="366" y="403" fill="#AB5153" width="13" height="15"/>
	<rect x="372" y="324" fill="#AB5153" width="10" height="9"/>
	<rect x="358" y="298" fill="#AB5153" width="7" height="5"/>
	<rect x="391" y="359" fill="#AB5153" width="11" height="10"/>
	<rect x="396" y="324" fill="#AB5153" width="6" height="7"/>
	<rect x="395" y="336" fill="#AB5153" width="9" height="10"/>
	<rect x="359" y="372" fill="#AB5153" width="6" height="6"/>
	<rect x="424" y="309" fill="#AB5153" width="10" height="10"/>
	<rect x="364" y="393" fill="#AB5153" width="10" height="10"/>
	<rect x="450" y="312" fill="#AB5153" width="6" height="6"/>
	<rect x="440" y="298" fill="#AB5153" width="6" height="5"/>
	<path opacity="0.32" fill="#7E5B78" d="M868.7,455.3c0,0,42.6,45.4,71.1,119.1C925.6,534.9,902.8,487.1,868.7,455.3z"/>
	<path opacity="0.32" fill="#7E5B78" d="M959.3,642.6c0.1,0.5,0.2,1,0.3,1.5C959.6,644.1,959.5,643.6,959.3,642.6z"/>
	<path opacity="0.32" fill="#7E5B78" d="M959.3,644c0.1,0,0.3,0.1,0.3,0.1C959.6,643.8,959.5,643.8,959.3,644z"/>
	<path fill="#AB5153" d="M814.3,450.5c0,0,39.2,38.9,62.7,95.8c4.6,8.6,7,14.6,6,15.9c-1.8-5.5-3.9-10.7-6-15.9
		C861.1,516.8,818,455.5,784,437l92,10.4l1.4-1.5l-96.9-11.2c0,0,76.3,46.9,127.8,194.5c4,0,48.2,13.9,50.9,14.7
		c0.2-0.2,0.3-0.2,0.3,0.1c-0.1-0.5-0.2-1-0.3-1.5c-1.3-6.5-7.2-34.4-19.4-68.2c-28.6-73.7-71.1-119.1-71.1-119.1l7.4-7.8
		L814.3,450.5z"/>
	<path fill="#B86767" d="M814.3,450.5c0,0,39.2,38.9,62.7,95.8c4.6,8.6,7,14.6,6,15.9c-1.8-5.5-3.9-10.7-6-15.9
		C861.1,516.8,818,455.5,784,437l92,10.4l1.4-1.5l-96.9-11.2c0,0,76.3,46.9,127.8,194.5c4,0,48.2,13.9,50.9,14.7
		c0.2-0.2,0.3-0.2,0.3,0.1c-0.1-0.5-0.2-1-0.3-1.5c-1.3-6.5-7.2-34.4-19.4-68.2c-28.6-73.7-71.1-119.1-71.1-119.1l7.4-7.8
		L814.3,450.5z"/>
	<polygon fill="#AB5153" points="856.8,685.9 814.3,693.4 857.9,677.1 854.8,674 809.4,694.1 792.9,689.6 830.6,721.8 886.3,705.2 
		876.1,703.8 	"/>
	<polygon fill="#B86767" points="856.8,685.9 814.3,693.4 857.9,677.1 854.8,674 809.4,694.1 792.9,689.6 830.6,721.8 886.3,705.2 
		876.1,703.8 	"/>
	<path opacity="0.32" fill="#7E5B78" d="M606.4,625.5c-2.7,9.7-4.5,20.4-4.5,32.5C602.6,658.1,602.5,643.9,606.4,625.5z"/>
	<path fill="#AB5153" d="M624.8,547.4c-0.6-1-1.3-1.9-1.9-3c-0.5-1-0.9-2-1.4-3c-0.7-1.3-1.3-2.7-1.9-4.1c-0.2-0.6-0.5-1.2-0.7-1.8
		c-6.5-16.6-8.6-39.1,7.1-64.8c-0.5-1-5.3,0.2-12.9,4.2c2.9-0.7,5.9-1.4,8.8-1.9c-26.9,47.7,3.7,85.8,10.9,92.7
		c0.5,0.4,1,0.8,1.5,1.2c0,0.2-0.6-0.3-1.5-1.2c-32.9-23.5-28.3-64.6-27.4-70.4c-65.9,34.3-101.7,122.2-107.2,129.6
		c29.9-76.5,68.7-116,94.9-135.3c-9.5,6.6-20.5,15.5-32,26.9c-23.3,25.1-48.4,61.7-67,112.9c0,0,85.9,14.9,107.9,28.7
		c0-12.1,1.8-22.9,4.5-32.5c4.2-19.5,12.8-43.8,31.9-61C638.3,564.5,631.3,558.2,624.8,547.4z"/>
	<path fill="#B86767" d="M624.8,547.4c-0.6-1-1.3-1.9-1.9-3c-0.5-1-0.9-2-1.4-3c-0.7-1.3-1.3-2.7-1.9-4.1c-0.2-0.6-0.5-1.2-0.7-1.8
		c-6.5-16.6-8.6-39.1,7.1-64.8c-0.5-1-5.3,0.2-12.9,4.2c2.9-0.7,5.9-1.4,8.8-1.9c-26.9,47.7,3.7,85.8,10.9,92.7
		c0.5,0.4,1,0.8,1.5,1.2c0,0.2-0.6-0.3-1.5-1.2c-32.9-23.5-28.3-64.6-27.4-70.4c-65.9,34.3-101.7,122.2-107.2,129.6
		c29.9-76.5,68.7-116,94.9-135.3c-9.5,6.6-20.5,15.5-32,26.9c-23.3,25.1-48.4,61.7-67,112.9c0,0,85.9,14.9,107.9,28.7
		c0-12.1,1.8-22.9,4.5-32.5c4.2-19.5,12.8-43.8,31.9-61C638.3,564.5,631.3,558.2,624.8,547.4z"/>
	<path fill="#AB5153" d="M819.7,614l43.3,26.6L751.7,535.5l24.7,31.3l-33.8,22l31.7,25.2H819.7z M779.9,565.2l-8.2-10.4l52.2,52.2
		l-41.2-31.3l-33,11.9L779.9,565.2z"/>
	<path fill="#B86767" d="M819.7,614l43.3,26.6L751.7,535.5l24.7,31.3l-33.8,22l31.7,25.2H819.7z M779.9,565.2l-8.2-10.4l52.2,52.2
		l-41.2-31.3l-33,11.9L779.9,565.2z"/>
	<path opacity="0.32" fill="#7E5B78" d="M878.4,414.8c42.8,14.3,81.5,6.6,81.5,6.6s-3.4,0.2-9.5-0.7
		C933.3,421.9,904.3,422.3,878.4,414.8z"/>
	<path fill="#AB5153" d="M950.4,420.7c-2.3-0.3-4.9-0.8-8-1.5c-11-1.2-35.2-8.4-75.3-42.6c-0.8-0.7-1.6-1.2-2.5-1.9
		c-16.1-11.3-31.8-18.6-46.2-23.2c12,4,24.1,10.1,34.2,19.9c35.7,34.3,67.3,44.7,67.3,44.7s-37.1-8.9-65.9-35.8
		c-28.9-26.8-63.2-37.3-96.2-34.3c0,0,27.5-4.1,56.3,4.1c-34.9-10.1-60.4-4.8-60.4-4.8c30.9,6.7,55.7,35.8,97.3,57.2
		c9.1,5.3,18.2,9.2,27.3,12.3C904.3,422.3,933.3,421.9,950.4,420.7z"/>
	<path fill="#B86767" d="M950.4,420.7c-2.3-0.3-4.9-0.8-8-1.5c-11-1.2-35.2-8.4-75.3-42.6c-0.8-0.7-1.6-1.2-2.5-1.9
		c-16.1-11.3-31.8-18.6-46.2-23.2c12,4,24.1,10.1,34.2,19.9c35.7,34.3,67.3,44.7,67.3,44.7s-37.1-8.9-65.9-35.8
		c-28.9-26.8-63.2-37.3-96.2-34.3c0,0,27.5-4.1,56.3,4.1c-34.9-10.1-60.4-4.8-60.4-4.8c30.9,6.7,55.7,35.8,97.3,57.2
		c9.1,5.3,18.2,9.2,27.3,12.3C904.3,422.3,933.3,421.9,950.4,420.7z"/>
	<path fill="#AB5153" d="M818.5,351.6c-1.5-0.5-2.9-1-4.3-1.4C815.6,350.6,817.1,351.1,818.5,351.6z"/>
	<path opacity="0.32" fill="#7E5B78" d="M818.5,351.6c-1.5-0.5-2.9-1-4.3-1.4C815.6,350.6,817.1,351.1,818.5,351.6z"/>
	<path fill="#AB5153" d="M757.9,346.1c33-3,67.3,7.5,96.2,34.3c28.9,26.8,65.9,35.8,65.9,35.8s-31.6-10.4-67.3-44.7
		c-10.1-9.7-22.2-15.9-34.2-19.9c-1.5-0.5-2.9-1-4.3-1.4C785.4,342,757.9,346.1,757.9,346.1z"/>
	<path opacity="0.32" fill="#7E5B78" d="M757.9,346.1c33-3,67.3,7.5,96.2,34.3c28.9,26.8,65.9,35.8,65.9,35.8s-31.6-10.4-67.3-44.7
		c-10.1-9.7-22.2-15.9-34.2-19.9c-1.5-0.5-2.9-1-4.3-1.4C785.4,342,757.9,346.1,757.9,346.1z"/>
	<path fill="#9D4A4C" d="M757.9,346.1c33-3,67.3,7.5,96.2,34.3c28.9,26.8,65.9,35.8,65.9,35.8s-31.6-10.4-67.3-44.7
		c-10.1-9.7-22.2-15.9-34.2-19.9c-1.5-0.5-2.9-1-4.3-1.4C785.4,342,757.9,346.1,757.9,346.1z"/>
	<path fill="#AB5153" d="M498.2,624.8c5.5-7.5,41.2-95.4,107.2-129.6c-0.9,5.8-5.5,46.9,27.4,70.4c-7.2-6.9-37.7-45.1-10.9-92.7
		c0,0-11.9,4.9-28.8,16.7C566.9,508.8,528.1,548.3,498.2,624.8z"/>
	<path opacity="0.32" fill="#7E5B78" d="M498.2,624.8c5.5-7.5,41.2-95.4,107.2-129.6c-0.9,5.8-5.5,46.9,27.4,70.4
		c-7.2-6.9-37.7-45.1-10.9-92.7c0,0-11.9,4.9-28.8,16.7C566.9,508.8,528.1,548.3,498.2,624.8z"/>
	<path fill="#9D4A4C" d="M498.2,624.8c5.5-7.5,41.2-95.4,107.2-129.6c-0.9,5.8-5.5,46.9,27.4,70.4c-7.2-6.9-37.7-45.1-10.9-92.7
		c0,0-11.9,4.9-28.8,16.7C566.9,508.8,528.1,548.3,498.2,624.8z"/>
	<path fill="#AB5153" d="M632.7,565.5c0.9,0.9,1.5,1.3,1.5,1.2C633.7,566.3,633.3,565.9,632.7,565.5z"/>
	<path opacity="0.32" fill="#7E5B78" d="M632.7,565.5c0.9,0.9,1.5,1.3,1.5,1.2C633.7,566.3,633.3,565.9,632.7,565.5z"/>
	<path opacity="0.32" fill="#7E5B78" d="M632.7,565.5c0.9,0.9,1.5,1.3,1.5,1.2C633.7,566.3,633.3,565.9,632.7,565.5z"/>
	<polygon fill="#AB5153" points="876.1,447.5 876.1,447.5 876.1,447.5 	"/>
	<polygon opacity="0.32" fill="#7E5B78" points="876.1,447.5 876.1,447.5 876.1,447.5 	"/>
	<path fill="#AB5153" d="M876.9,546.3c2.1,5.2,4.2,10.5,6,15.9C883.9,560.9,881.6,554.9,876.9,546.3z"/>
	<path opacity="0.32" fill="#7E5B78" d="M876.9,546.3c2.1,5.2,4.2,10.5,6,15.9C883.9,560.9,881.6,554.9,876.9,546.3z"/>
	<path opacity="0.32" fill="#7E5B78" d="M876.9,546.3c2.1,5.2,4.2,10.5,6,15.9C883.9,560.9,881.6,554.9,876.9,546.3z"/>
	<path fill="#AB5153" d="M876.9,546.3c-23.5-57-62.7-95.8-62.7-95.8l61.8-3l0,0L784,437C818,455.5,861.1,516.8,876.9,546.3z"/>
	<path opacity="0.32" fill="#7E5B78" d="M876.9,546.3c-23.5-57-62.7-95.8-62.7-95.8l61.8-3l0,0L784,437
		C818,455.5,861.1,516.8,876.9,546.3z"/>
	<path fill="#9D4A4C" d="M876.9,546.3c-23.5-57-62.7-95.8-62.7-95.8l61.8-3l0,0L784,437C818,455.5,861.1,516.8,876.9,546.3z"/>
	<polygon fill="#AB5153" points="857.9,677.1 886.3,705.2 858.2,677 	"/>
	<polygon opacity="0.32" fill="#7E5B78" points="857.9,677.1 886.3,705.2 858.2,677 	"/>
	<polygon fill="#AB5153" points="814.3,693.4 856.8,685.9 876.1,703.8 886.3,705.2 857.9,677.1 	"/>
	<polygon opacity="0.32" fill="#7E5B78" points="814.3,693.4 856.8,685.9 876.1,703.8 886.3,705.2 857.9,677.1 	"/>
	<polygon fill="#9D4A4C" points="814.3,693.4 856.8,685.9 876.1,703.8 886.3,705.2 857.9,677.1 	"/>
	<polygon fill="#AB5153" points="823.9,606.9 771.7,554.8 779.9,565.2 749.7,587.6 782.6,575.6 	"/>
	<polygon opacity="0.32" fill="#7E5B78" points="823.9,606.9 771.7,554.8 779.9,565.2 749.7,587.6 782.6,575.6 	"/>
	<polygon fill="#9D4A4C" points="823.9,606.9 771.7,554.8 779.9,565.2 749.7,587.6 782.6,575.6 	"/>
	<path fill="#AB5153" d="M776.5,435.9l97.9,222.4l74.2,3.4l7.2-17.9c0,0-49.5-14.5-47.4-14.5C837.3,452.7,776.5,439.3,776.5,435.9z"
		/>
	<linearGradient id="SVGID_1_" gradientUnits="userSpaceOnUse" x1="822.3565" y1="582.2164" x2="948.8226" y2="477.0143">
		<stop  offset="0" style="stop-color:#AB5153"/>
		<stop  offset="1" style="stop-color:#C78A8B"/>
	</linearGradient>
	<path fill="url(#SVGID_1_)" d="M776.5,435.9l97.9,222.4l74.2,3.4l7.2-17.9c0,0-49.5-14.5-47.4-14.5
		C837.3,452.7,776.5,439.3,776.5,435.9z"/>
	<linearGradient id="SVGID_2_" gradientUnits="userSpaceOnUse" x1="875.1684" y1="344.8698" x2="855.3012" y2="404.4716">
		<stop  offset="0" style="stop-color:#AB5153"/>
		<stop  offset="1" style="stop-color:#FFFFFE"/>
	</linearGradient>
	<path opacity="0.59" fill="url(#SVGID_2_)" d="M891.3,363.2c-8.3-7.4-18.2-14.5-29.7-20c-4.5-1-7.5-1.8-7.5-1.8
		S869.8,345.6,891.3,363.2z"/>
	<path fill="#AB5153" d="M749.7,345.4c0,0,56.1-18.3,115,29.4c5.6,3.9,11.2,8.1,16.9,13.1c25.3,20,46.8,28.1,60.8,31.4
		c4.8,0.5,7.2-0.1,7.2-0.1s-14.4-1.1-37.1-32.4c-5.4-7.4-12.4-15.7-21.2-23.5c-21.5-17.6-37.3-21.7-37.3-21.7s3.1,0.7,7.5,1.8
		C833.9,330,796.9,325.5,749.7,345.4z"/>
	<linearGradient id="SVGID_3_" gradientUnits="userSpaceOnUse" x1="863.4081" y1="340.9498" x2="843.541" y2="400.5515">
		<stop  offset="0" style="stop-color:#AB5153"/>
		<stop  offset="1" style="stop-color:#C78A8B"/>
	</linearGradient>
	<path fill="url(#SVGID_3_)" d="M749.7,345.4c0,0,56.1-18.3,115,29.4c5.6,3.9,11.2,8.1,16.9,13.1c25.3,20,46.8,28.1,60.8,31.4
		c4.8,0.5,7.2-0.1,7.2-0.1s-14.4-1.1-37.1-32.4c-5.4-7.4-12.4-15.7-21.2-23.5c-21.5-17.6-37.3-21.7-37.3-21.7s3.1,0.7,7.5,1.8
		C833.9,330,796.9,325.5,749.7,345.4z"/>
	<path fill="#AB5153" d="M864.7,374.8c0.8,0.7,1.6,1.2,2.5,1.9c40.1,34.2,64.3,41.3,75.3,42.6c-14-3.3-35.5-11.4-60.8-31.4
		C875.9,382.9,870.3,378.7,864.7,374.8z"/>
	<path opacity="0.32" fill="#7E5B78" d="M864.7,374.8c0.8,0.7,1.6,1.2,2.5,1.9c40.1,34.2,64.3,41.3,75.3,42.6
		c-14-3.3-35.5-11.4-60.8-31.4C875.9,382.9,870.3,378.7,864.7,374.8z"/>
	<linearGradient id="SVGID_4_" gradientUnits="userSpaceOnUse" x1="916.3593" y1="358.6001" x2="896.4921" y2="418.2018">
		<stop  offset="0" style="stop-color:#AB5153"/>
		<stop  offset="1" style="stop-color:#FFFFFE"/>
	</linearGradient>
	<path opacity="0.59" fill="url(#SVGID_4_)" d="M864.7,374.8c0.8,0.7,1.6,1.2,2.5,1.9c40.1,34.2,64.3,41.3,75.3,42.6
		c-14-3.3-35.5-11.4-60.8-31.4C875.9,382.9,870.3,378.7,864.7,374.8z"/>
	<path fill="#AB5153" d="M621.5,541.3c1.1,2.2,2.2,4.2,3.3,6c22.7,36.1,55.8,38.3,55.8,38.3s-37.1-21.2,7.2-71.5l-54.6-51.4
		c0,0-29.5,32-14.3,72.6c0.2,0.6,0.5,1.2,0.7,1.8C620.2,538.5,620.8,539.9,621.5,541.3z"/>
	<linearGradient id="SVGID_5_" gradientUnits="userSpaceOnUse" x1="696.2325" y1="503.1421" x2="565.4224" y2="573.2563">
		<stop  offset="0" style="stop-color:#AB5153"/>
		<stop  offset="1" style="stop-color:#C78A8B"/>
	</linearGradient>
	<path fill="url(#SVGID_5_)" d="M621.5,541.3c1.1,2.2,2.2,4.2,3.3,6c22.7,36.1,55.8,38.3,55.8,38.3s-37.1-21.2,7.2-71.5l-54.6-51.4
		c0,0-29.5,32-14.3,72.6c0.2,0.6,0.5,1.2,0.7,1.8C620.2,538.5,620.8,539.9,621.5,541.3z"/>
	<path fill="#AB5153" d="M622.9,544.3c0.6,1.1,1.3,2,1.9,3c-1.1-1.9-2.2-3.9-3.3-6C622,542.3,622.3,543.3,622.9,544.3z"/>
	<path opacity="0.32" fill="#7E5B78" d="M622.9,544.3c0.6,1.1,1.3,2,1.9,3c-1.1-1.9-2.2-3.9-3.3-6
		C622,542.3,622.3,543.3,622.9,544.3z"/>
	<linearGradient id="SVGID_6_" gradientUnits="userSpaceOnUse" x1="697.0717" y1="504.7077" x2="566.2615" y2="574.8218">
		<stop  offset="0" style="stop-color:#AB5153"/>
		<stop  offset="1" style="stop-color:#FFFFFE"/>
	</linearGradient>
	<path opacity="0.59" fill="url(#SVGID_6_)" d="M622.9,544.3c0.6,1.1,1.3,2,1.9,3c-1.1-1.9-2.2-3.9-3.3-6
		C622,542.3,622.3,543.3,622.9,544.3z"/>
	<path fill="#AB5153" d="M618.9,535.3c0.2,0.6,0.5,1.2,0.7,1.8C619.4,536.6,619.1,536,618.9,535.3z"/>
	<path opacity="0.32" fill="#7E5B78" d="M618.9,535.3c0.2,0.6,0.5,1.2,0.7,1.8C619.4,536.6,619.1,536,618.9,535.3z"/>
	<linearGradient id="SVGID_7_" gradientUnits="userSpaceOnUse" x1="692.8369" y1="496.8071" x2="562.0269" y2="566.9213">
		<stop  offset="0" style="stop-color:#AB5153"/>
		<stop  offset="1" style="stop-color:#FFFFFE"/>
	</linearGradient>
	<path opacity="0.59" fill="url(#SVGID_7_)" d="M618.9,535.3c0.2,0.6,0.5,1.2,0.7,1.8C619.4,536.6,619.1,536,618.9,535.3z"/>
	<linearGradient id="SVGID_8_" gradientUnits="userSpaceOnUse" x1="445.3006" y1="527.722" x2="510.1537" y2="658.7792">
		<stop  offset="0" style="stop-color:#AB5153"/>
		<stop  offset="1" style="stop-color:#FFFFFE"/>
	</linearGradient>
	<rect x="459" y="560" opacity="0.59" fill="url(#SVGID_8_)" width="9" height="9"/>
	<linearGradient id="SVGID_9_" gradientUnits="userSpaceOnUse" x1="517.8653" y1="494.8423" x2="577.8702" y2="616.1024">
		<stop  offset="0" style="stop-color:#AB5153"/>
		<stop  offset="1" style="stop-color:#FFFFFE"/>
	</linearGradient>
	<rect x="533" y="528" opacity="0.59" fill="url(#SVGID_9_)" width="7" height="9"/>
	<linearGradient id="SVGID_10_" gradientUnits="userSpaceOnUse" x1="403.2433" y1="561.3979" x2="453.6625" y2="663.2867">
		<stop  offset="0" style="stop-color:#AB5153"/>
		<stop  offset="1" style="stop-color:#FFFFFE"/>
	</linearGradient>
	<rect x="428" y="615" opacity="0.59" fill="url(#SVGID_10_)" width="7" height="7"/>
	<path fill="#AB5153" d="M613.1,474.7c-125.6,29.1-243.7,163.5-243.7,163.5s122.6-14.5,124.7-8.9c16.1-52,42.4-88.4,67-112.9
		C581.7,494.2,601,481,613.1,474.7z M435,622h-7v-7h7V622z M468,569h-9v-9h9V569z M533,537v-9h7v9H533z"/>
	<linearGradient id="SVGID_11_" gradientUnits="userSpaceOnUse" x1="473.5774" y1="520.8415" x2="528.2642" y2="631.3544">
		<stop  offset="0" style="stop-color:#AB5153"/>
		<stop  offset="1" style="stop-color:#C78A8B"/>
	</linearGradient>
	<path fill="url(#SVGID_11_)" d="M613.1,474.7c-125.6,29.1-243.7,163.5-243.7,163.5s122.6-14.5,124.7-8.9
		c16.1-52,42.4-88.4,67-112.9C581.7,494.2,601,481,613.1,474.7z M435,622h-7v-7h7V622z M468,569h-9v-9h9V569z M533,537v-9h7v9H533z"
		/>
	<path fill="#AB5153" d="M561.1,516.4c11.5-11.4,22.5-20.2,32-26.9c17.1-12.7,28.8-16.7,28.8-16.7c-2.9,0.6-5.9,1.2-8.8,1.9
		C601,481,581.7,494.2,561.1,516.4z"/>
	<path opacity="0.32" fill="#7E5B78" d="M561.1,516.4c11.5-11.4,22.5-20.2,32-26.9c17.1-12.7,28.8-16.7,28.8-16.7
		c-2.9,0.6-5.9,1.2-8.8,1.9C601,481,581.7,494.2,561.1,516.4z"/>
	<linearGradient id="SVGID_12_" gradientUnits="userSpaceOnUse" x1="578.7006" y1="468.8217" x2="633.3873" y2="579.3347">
		<stop  offset="0" style="stop-color:#AB5153"/>
		<stop  offset="1" style="stop-color:#FFFFFE"/>
	</linearGradient>
	<path opacity="0.59" fill="url(#SVGID_12_)" d="M561.1,516.4c11.5-11.4,22.5-20.2,32-26.9c17.1-12.7,28.8-16.7,28.8-16.7
		c-2.9,0.6-5.9,1.2-8.8,1.9C601,481,581.7,494.2,561.1,516.4z"/>
	<path fill="#AB5153" d="M621.9,472.8c0,0-11.7,4-28.8,16.7C610,477.7,621.9,472.8,621.9,472.8z"/>
	<path opacity="0.32" fill="#7E5B78" d="M621.9,472.8c0,0-11.7,4-28.8,16.7C610,477.7,621.9,472.8,621.9,472.8z"/>
	<path opacity="0.32" fill="#7E5B78" d="M621.9,472.8c0,0-11.7,4-28.8,16.7C610,477.7,621.9,472.8,621.9,472.8z"/>
	<linearGradient id="SVGID_13_" gradientUnits="userSpaceOnUse" x1="596.894" y1="459.8188" x2="651.5807" y2="570.3317">
		<stop  offset="0" style="stop-color:#AB5153"/>
		<stop  offset="1" style="stop-color:#FFFFFE"/>
	</linearGradient>
	<path opacity="0.59" fill="url(#SVGID_13_)" d="M621.9,472.8c0,0-11.7,4-28.8,16.7C610,477.7,621.9,472.8,621.9,472.8z"/>
</g>
</svg>
