<?xml version="1.0" encoding="utf-8"?>
<!-- Generator: Adobe Illustrator 18.1.0, SVG Export Plug-In . SVG Version: 6.00 Build 0)  -->
<svg version="1.0" id="Layer_1" xmlns="http://www.w3.org/2000/svg" xmlns:xlink="http://www.w3.org/1999/xlink" x="0px" y="0px"
	 viewBox="0 0 150 150" enable-background="new 0 0 150 150" xml:space="preserve">
<g>
	<path fill="#EE4826" d="M7.8,87.6c6.6,28.8,28.5,50.3,59.3,50.3c29.9,0,54.8-20.2,62.4-47.6l12.2,8l-8.2-14.1l-8.2-14.1l-8.2,14.1
		l-8.2,14.1l12.5-8.2c-7.3,23.3-28.7,40.3-54.4,40.3C40.5,130.4,14.3,112.2,7.8,87.6L7.8,87.6z M125.4,87.6L125.4,87.6L125.4,87.6
		L125.4,87.6z"/>
	<g>
		<path fill="#4A7392" d="M76.4,120.3c0,0,10.7-23.2,1.7-49c-2.2,2.4-4.3,4.9-6.4,7.7C75.7,90.7,77.7,104.4,76.4,120.3z"/>
		<path fill="#4A7392" d="M71.8,58.3c-8.8-14.1-24.9-28-52.9-38.5c0,0,30,13.2,46.9,45.2c1-1.3,2-2.5,3.1-3.7
			C69.7,60.2,70.8,59.2,71.8,58.3z"/>
		<path fill="#0087CB" d="M54,111.4c18.1-66.8,81.4-74.5,87.7-75.1c0.3,0,0.5,0,0.5,0c-0.2,0-0.4,0-0.5,0
			C47.5,37.8,54,111.4,54,111.4z"/>
		<path fill="#0087CB" d="M76,44.7c5.3,0,9.5-4.3,9.5-9.5c0-5.3-4.3-9.5-9.5-9.5c-5.3,0-9.5,4.3-9.5,9.5
			C66.5,40.4,70.8,44.7,76,44.7z"/>
	</g>
	<polygon fill="#EE4826" points="52.5,60.4 44.1,60.4 44.1,52 34.1,52 34.1,60.4 25.7,60.4 25.7,70.4 34.1,70.4 34.1,78.8 
		44.1,78.8 44.1,70.4 52.5,70.4 	"/>
</g>
</svg>
