<?xml version="1.0" encoding="utf-8"?>
<!-- Generator: Adobe Illustrator 18.1.0, SVG Export Plug-In . SVG Version: 6.00 Build 0)  -->
<svg version="1.1" id="Layer_1" xmlns="http://www.w3.org/2000/svg" xmlns:xlink="http://www.w3.org/1999/xlink" x="0px" y="0px"
	 viewBox="0 0 150 150" enable-background="new 0 0 150 150" xml:space="preserve">
<g>
	<g>
		<path fill="#DA9B6D" d="M81.3,47.6C78,41.2,81.4,33,87.7,30.1C91,36.5,87.6,44.6,81.3,47.6z"/>
		<path fill="#DA9B6D" d="M50.2,38.9c6.7,2.5,9.8,10.8,7.1,17.3C50.6,53.6,47.5,45.4,50.2,38.9z"/>
		<path fill="#DA9B6D" d="M96.1,60.5c-0.6-7.1,5.4-13.5,12.4-14C109.2,53.6,103.1,60,96.1,60.5z"/>
		<path fill="#DA9B6D" d="M41.3,55.3c7.2-0.3,13.3,6,13.4,13C47.6,68.7,41.5,62.3,41.3,55.3z"/>
		<path fill="#DA9B6D" d="M107.1,77.9c4.6-5.4,13.5-5.6,18.7-0.9C121.1,82.4,112.3,82.6,107.1,77.9z"/>
		<path fill="#DA9B6D" d="M25.1,86.9c4.6-5.5,13.5-5.6,18.7-0.9C39.1,91.4,30.3,91.5,25.1,86.9z"/>
	</g>
	<g>
		<path fill="#00AF91" d="M64.6,32.7c5.7,2.1,10.4,6.9,12.5,12.7c2.1,5.4,1.9,11.6-0.1,17C65.4,58.3,59.9,43.7,64.6,32.7z"/>
		<path fill="#00AF91" d="M79.8,61.9c1-6.4,4.9-12.1,10.2-15.8c3.5,4.9,4.6,11.3,3.1,17.1c-1.3,5.8-5,11-10,14.3
			C80.1,73,78.9,67.3,79.8,61.9z"/>
		<path fill="#00AF91" d="M61.3,57.3c5.1,2.8,8.8,7.9,10.2,13.5c1.5,5.9,0.5,12.4-2.6,17.7c-5.5-3.1-9.3-8.7-10.4-14.8
			C57.3,68.1,58.5,62.2,61.3,57.3z"/>
		<path fill="#00AF91" d="M103.2,61c5.4-2.8,11.8-3.3,17.6-1.6c-1.5,5.3-5.2,9.9-10,12.6c-5.6,3.3-12.4,3.9-18.6,2.1
			C93.9,68.5,97.9,63.6,103.2,61z"/>
		<path fill="#00AF91" d="M28,67.5c11.7-3.8,24.8,4.4,27.9,16C44.2,87.3,31.1,79.1,28,67.5z"/>
		<path fill="#00AF91" d="M87.5,84.3c4-2.8,8.9-4.3,13.8-4c7.1,0.4,13.7,4.2,17.7,10C109.2,97.7,94.1,94.3,87.5,84.3z"/>
		<path fill="#00AF91" d="M33.6,94.7c3.5-3.5,8.1-5.8,13-6.2c7-0.8,14.2,1.9,19.2,6.9C57.4,104.3,41.9,103.5,33.6,94.7z"/>
	</g>
	<g>
		<path fill="#603A17" d="M139.5,79.2c-0.2,2.7-0.7,6.8-2,11.8c-1.4,4.9-3.8,10.8-7.8,16.9c-4,6-9.7,12.2-17.3,17.3
			c-7.5,5.1-16.9,9-27.4,10.4c0,0-0.1,0-0.1,0c-1.1-3.5-6.9-17.8-1.6-23.8c2.2-3.6,6.2-5.4,9.9-7.3c-4.7,0.2-9.2,2-12.8,5
			c0-4.5-1.8-9.2,0.1-13.6c2.8-7.6,7.3-14.3,11.5-21c-3.2,3.1-6.1,6.6-9.4,9.7c-0.3-1.6-0.5-3.2-0.7-4.7c-0.5,2-0.7,4-0.5,6
			c-0.9,0.9-1.7,1.8-2.6,2.7c-1-8.4-1.8-16.7-2.9-25.1c-0.8,11.4-1.6,22.8-2.4,34.2c-0.8-0.9-1.6-1.9-2.4-2.8c0.4-2.2,0.3-4.5,0-6.7
			c-0.3,1.8-0.7,3.6-1.2,5.4c-4-3.8-8.6-7-13.6-9.3c6.3,5.9,12.5,12.3,16.3,20.2c0.4,4.4,0,8.9-1,13.2c-2.9-1.5-4.7-4.3-6.3-7.1
			c0.9,3.7,2.4,7.3,5.1,10l-0.1,0.6l-1.4,14.8c-5.6-0.6-11.3-1.8-16.8-3.9c-5.4-2.1-10.5-4.8-15.2-8.3c-4.7-3.5-9-7.6-12.6-12.3
			c-3.6-4.7-6.5-9.9-8.7-15.4c-2.1-5.5-3.3-11.4-3.7-17.3c-0.4-5.9,0.2-11.9,1.6-17.7c1.4-5.8,3.7-11.3,6.8-16.4
			c3-5.1,6.8-9.7,11.2-13.7c4.3-4,9.2-7.3,14.4-10c5.2-2.6,10.6-4.5,16.1-5.7c5.5-1.1,11.1-1.6,16.5-1.3c10.8,0.4,20.8,3.5,29,8.1
			c8.2,4.6,14.7,10.5,19.3,16.6c4.7,6.1,7.6,12.2,9.4,17.5c1.8,5.3,2.5,9.8,2.8,13c0.1,0.6,0.1,1.2,0.1,1.7
			c-0.4-5.9-1.6-11.8-3.8-17.4c-2.7-6.9-6.6-13.3-11.7-18.9c-5-5.6-11.1-10.3-17.9-13.8c-6.8-3.5-14.2-5.9-21.9-6.8
			c-7.7-1-15.5-0.7-23,1c-7.5,1.6-14.8,4.6-21.2,8.7c-6.5,4.1-12.2,9.3-16.7,15.4c-4.6,6-8,12.9-10,20c-2,7.2-2.7,14.8-2,22.2
			c0.7,7.5,2.9,14.8,6.3,21.5c3.4,6.7,8.2,12.9,13.9,18c5.7,5.2,12.4,9.3,19.6,12.2c14.5,5.9,31.3,6.4,46.2,1.5
			c7.5-2.4,14.5-6.1,20.6-10.9c6.1-4.8,11.3-10.7,15.3-17.2c5.1-9.8,7.3-20.8,6.6-31.4C139.6,75,139.7,76.5,139.5,79.2z"/>
		<path fill="#603A17" d="M139.4,70.8c0.1,1.4,0.2,2.8,0.2,4.2C139.5,74.5,139.5,73.1,139.4,70.8z"/>
		<path fill="#603A17" d="M123.6,30.8c0.8,0.8,1.7,1.7,2.5,2.6C125.8,33.1,124.9,32.1,123.6,30.8z"/>
		<path fill="#603A17" d="M124.2,118.7c-3.1,3.1-7.1,6.6-12.3,9.9c-5.2,3.2-11.6,6.2-19,8.1c-7.4,1.9-15.8,2.6-24.6,1.7
			c-8.7-0.9-17.8-3.7-26.1-8.3c-8.3-4.7-15.8-11.3-21.5-19.3c-5.7-8-9.5-17.5-10.8-27.3C8.6,73.5,9.7,63.4,13,54.2
			c3.3-9.2,8.9-17.5,15.8-24.1c6.9-6.6,15.1-11.5,23.5-14.6c8.4-3.1,17-4.3,24.9-4.1c7.9,0.2,15.2,1.7,21.3,3.8
			c6.2,2.1,11.2,4.9,15.2,7.5c4,2.6,6.9,5.2,8.9,7.1c0.4,0.4,0.7,0.7,1,1c-8-8-18.1-14.1-29.2-17.2c-12.3-3.5-25.6-3.5-37.9,0
			c-12.3,3.5-23.5,10.5-31.9,19.9c-4.2,4.7-7.7,10-10.3,15.6C11.6,54.9,9.8,60.9,9,67c-0.8,6.1-0.7,12.4,0.3,18.5
			c1,6.1,3,12.1,5.8,17.7c5.6,11.2,14.7,20.8,25.8,27.3c5.6,3.2,11.6,5.7,17.9,7.3c6.3,1.6,12.8,2.3,19.4,2.1
			c6.5-0.2,13-1.3,19.2-3.2c6.2-2,12.1-4.8,17.5-8.4c7.4-5.7,13.5-12.7,17.8-20.6c0,0-0.6,1.1-2,2.9
			C129.4,112.8,127.3,115.5,124.2,118.7z"/>
	</g>
</g>
</svg>
