<?xml version="1.0" encoding="utf-8"?>
<!-- Generator: Adobe Illustrator 16.0.0, SVG Export Plug-In . SVG Version: 6.00 Build 0)  -->
<!DOCTYPE svg PUBLIC "-//W3C//DTD SVG 1.1//EN" "http://www.w3.org/Graphics/SVG/1.1/DTD/svg11.dtd">
<svg version="1.1" id="Layer_1" xmlns="http://www.w3.org/2000/svg" xmlns:xlink="http://www.w3.org/1999/xlink" x="0px" y="0px"
	 width="100px" height="100px" viewBox="0 0 100 100" enable-background="new 0 0 100 100" xml:space="preserve">
<g>
	<path fill="#A2832F" d="M36.22,67.825c-0.422,0.721-0.715,1.532-0.704,2.305c-0.006,0.774,0.345,1.42,0.911,1.851
		c0.567,0.431,1.275,0.718,2.021,0.92c0.753,0.188,1.559,0.327,2.273,0.317c1.496,0.022,3-0.363,4.43-0.933
		c1.434-0.582,2.806-1.363,4.102-2.258c2.595-1.799,4.917-4.027,6.9-6.488c0.985-1.237,1.905-2.523,2.689-3.874l0.568-1.018
		l0.579-1.099c0.413-0.774,0.843-1.537,1.287-2.281c3.568-5.977,8.307-11.171,13.624-15.476c0.646-0.538,1.358-1.081,1.994-1.565
		c0.346-0.273,0.624-0.494,0.915-0.744c0.292-0.26,0.587-0.521,0.874-0.794c1.135-1.094,2.165-2.322,3.08-3.649
		c0.938-1.318,1.718-2.757,2.391-4.255c0.653-1.506,1.192-3.084,1.398-4.761c0.255,1.686,0.049,3.43-0.314,5.116
		c-0.376,1.69-0.978,3.331-1.722,4.914c-0.763,1.579-1.703,3.084-2.832,4.465c-0.287,0.345-0.574,0.687-0.88,1.013
		c-0.314,0.333-0.659,0.673-0.946,0.955l-1.806,1.726c-4.722,4.591-8.917,9.617-12.239,15.175c-0.431,0.69-0.82,1.386-1.211,2.086
		l-0.601,1.124c-0.22,0.391-0.439,0.784-0.682,1.162c-0.95,1.524-2.008,2.963-3.184,4.294c-2.349,2.653-5.078,4.969-8.181,6.716
		c-1.556,0.874-3.206,1.6-4.961,2.076c-1.746,0.466-3.62,0.69-5.474,0.377c-0.959-0.166-1.784-0.463-2.613-0.834
		c-0.821-0.377-1.652-0.852-2.284-1.604c-0.313-0.378-0.567-0.821-0.693-1.296c-0.128-0.485-0.13-0.978-0.029-1.426
		C35.117,69.16,35.61,68.412,36.22,67.825z"/>
	<path fill="#A2832F" d="M88.059,25.289c2.156,1.353,3.716,3.573,4.522,6.065c0.809,2.506,0.794,5.259,0.26,7.778
		c-0.904,4.72-1.572,9.522-2.223,14.318c-0.619,4.793-1.225,9.616-1.776,14.364c-0.061,0.597-0.106,1.166-0.151,1.771
		c-0.035,0.624-0.099,1.241-0.156,1.861c-0.126,1.228-0.274,2.457-0.436,3.68c-0.332,2.443-0.695,4.865-1.094,7.295l-0.013,0.065
		c-0.059,0.383-0.4,0.643-0.769,0.63c-0.958-0.046-1.913-0.073-2.868-0.101h-0.032c-0.371-0.013-0.663-0.317-0.658-0.69
		c0.049-2.349-0.005-4.72-0.193-7.068c-0.156-2.358-0.443-4.703-0.837-7.016c-0.426-2.306-0.96-4.602-1.776-6.726
		c-0.403-1.054-0.883-2.071-1.471-2.9c-0.296-0.413-0.618-0.771-0.941-1.01c-0.322-0.237-0.618-0.341-0.883-0.346l1.421-0.608
		c-3.506,5.474-7.46,10.517-11.45,15.579c-2.035,2.505-4.039,5.012-6.294,7.429c-0.583,0.609-1.13,1.205-1.864,1.837l-0.301,0.252
		l-0.328,0.242l-0.528,0.375c-0.367,0.247-0.758,0.499-1.188,0.741c-0.856,0.488-1.95,0.874-2.923,1.03
		c-0.976,0.171-1.839,0.212-2.67,0.252c-0.832,0.03-1.63,0.04-2.434,0.053c-0.823,0.014-1.642,0.014-2.445,0.005
		c-1.619-0.018-3.226-0.067-4.831-0.112c-3.208-0.084-6.411-0.268-9.608-0.426l-4.808-0.286c-0.915-0.08-1.86-0.188-2.883-0.812
		c-0.495-0.31-0.997-0.856-1.198-1.502c-0.213-0.637-0.16-1.241-0.045-1.735c0.242-1.003,0.715-1.749,1.199-2.452
		c0.493-0.7,1.027-1.332,1.583-1.938c1.121-1.196,2.322-2.281,3.568-3.309c0.087-0.075,0.218-0.058,0.29,0.027
		c0.065,0.076,0.063,0.189,0.004,0.265c-1.002,1.25-1.979,2.516-2.847,3.82c-0.433,0.65-0.84,1.317-1.175,1.985
		c-0.327,0.673-0.596,1.371-0.651,1.951c-0.028,0.287,0.018,0.514,0.093,0.627c0.072,0.111,0.157,0.174,0.35,0.265
		c0.386,0.169,1.087,0.237,1.76,0.21l4.785-0.225c6.387-0.26,12.827-0.326,19.062-0.733c0.762-0.051,1.502-0.118,2.099-0.239
		c0.6-0.121,1.03-0.29,1.568-0.587c0.27-0.147,0.552-0.331,0.848-0.532l0.448-0.319l0.152-0.116l0.161-0.131
		c0.476-0.416,1.036-0.973,1.561-1.52c2.13-2.241,4.259-4.622,6.33-7.024c4.169-4.792,8.235-9.733,12.19-14.652l0.089-0.106
		c0.332-0.413,0.843-0.587,1.327-0.501c0.919,0.156,1.713,0.64,2.277,1.177c0.575,0.544,0.981,1.14,1.313,1.731
		c0.66,1.192,1.054,2.398,1.381,3.601c0.623,2.398,0.955,4.788,1.21,7.177c0.274,2.381,0.426,4.766,0.579,7.146
		c0.116,2.385,0.242,4.757,0.305,7.154l-0.69-0.69c0.955-0.025,1.91-0.053,2.868-0.099l-0.788,0.69
		c0.181-2.411,0.273-4.846,0.292-7.271c0.005-1.211,0.005-2.421-0.023-3.623l-0.053-1.802c-0.027-0.614-0.032-1.265-0.032-1.883
		c0.022-4.999,0.632-9.867,1.413-14.728c0.802-4.851,1.774-9.684,3.21-14.436c0.336-1.107,0.591-2.201,0.708-3.33
		c0.116-1.121,0.081-2.255-0.085-3.376c-0.363-2.233-1.386-4.452-3.044-6.155l-0.018-0.018c-0.081-0.082-0.081-0.211,0-0.292
		C87.874,25.249,87.978,25.24,88.059,25.289z"/>
	<path fill="#9D1D21" d="M43.188,57.801c-2.724-1.18-5.53-1.963-8.346-2.487c-2.82-0.489-5.66-0.688-8.466-0.552
		c-5.618,0.27-11.069,1.882-16.09,4.487l0.701-2.156c0.621,1.389,1.722,2.774,2.903,4.069c1.193,1.306,2.511,2.543,3.874,3.753
		c1.351,1.224,2.783,2.373,4.207,3.547l4.371,3.465c-1.75-0.662-3.461-1.443-5.116-2.322c-1.672-0.855-3.279-1.833-4.864-2.86
		c-1.576-1.054-3.104-2.195-4.539-3.506c-1.419-1.327-2.796-2.779-3.807-4.725L7.31,57.15l1.405-0.794
		c2.658-1.506,5.505-2.729,8.489-3.515c2.976-0.797,6.077-1.18,9.155-1.071c3.073,0.094,6.121,0.655,8.982,1.673
		C38.192,54.452,40.932,55.846,43.188,57.801z"/>
	<path fill="#9D1D21" d="M42.613,54.94c-3.54-1.099-6.761-3.152-9.612-5.599c-1.412-1.251-2.723-2.623-3.918-4.098
		c-1.179-1.488-2.23-3.084-3.151-4.757c-1.856-3.34-3.096-7.007-3.813-10.75c-0.715-3.743-0.911-7.568-0.702-11.334l0.112-2.058
		l1.986,0.48c3.246,0.776,6.555,1.712,9.686,3.25c3.139,1.515,5.997,3.712,8.229,6.348c2.273,2.618,3.958,5.604,5.335,8.657
		c1.352,3.07,2.409,6.235,3.197,9.459c-1.462-2.977-2.926-5.936-4.627-8.715c-1.672-2.789-3.587-5.402-5.808-7.635
		c-2.23-2.228-4.824-3.963-7.677-5.223c-2.858-1.26-5.949-2.076-9.117-2.816l2.098-1.574c-0.164,3.551-0.029,7.102,0.538,10.581
		c0.556,3.482,1.561,6.881,3.02,10.087c0.731,1.604,1.598,3.151,2.576,4.626c0.966,1.483,2.055,2.901,3.259,4.223
		c1.188,1.34,2.495,2.587,3.894,3.735c0.697,0.579,1.421,1.134,2.172,1.649C41.033,54.003,41.805,54.497,42.613,54.94z"/>
	<path fill="#A2832F" d="M30.618,68.475c0.809-1.31,2.02-2.344,3.262-3.263c1.257-0.92,2.625-1.668,4.028-2.349
		c0.704-0.338,1.423-0.633,2.145-0.92c0.361-0.144,0.727-0.277,1.094-0.403l0.554-0.188l0.491-0.185
		c1.124-0.466,2.2-1.255,3.096-2.22c1.827-1.953,3.204-4.519,4.542-7.137c1.332-2.631,2.622-5.375,4.109-8.078
		c1.497-2.694,3.191-5.38,5.339-7.778c0.533-0.592,1.116-1.183,1.682-1.717l1.649-1.547c1.104-1.035,2.22-2.062,3.371-3.066
		c1.147-1.004,2.331-1.995,3.596-2.919c1.264-0.923,2.601-1.793,4.103-2.438c1.488-0.628,3.183-1.027,4.819-0.785
		c1.637,0.224,3.061,0.996,4.223,1.977c-1.403-0.596-2.873-0.964-4.263-0.838c-1.395,0.116-2.678,0.659-3.843,1.434
		c-2.331,1.561-4.349,3.734-6.384,5.895l-3.049,3.305l-1.542,1.658c-0.502,0.525-0.951,1.032-1.395,1.583
		c-1.775,2.188-3.286,4.649-4.702,7.227c-1.427,2.574-2.758,5.264-4.277,7.94c-0.771,1.331-1.569,2.676-2.506,3.967
		c-0.924,1.3-1.98,2.56-3.255,3.668c-1.283,1.102-2.791,2.009-4.546,2.457l-0.596,0.129l-0.538,0.108l-1.078,0.224
		c-0.717,0.157-1.426,0.336-2.134,0.534c-1.424,0.371-2.811,0.86-4.165,1.447c-0.679,0.287-1.345,0.619-1.988,0.99
		C31.813,67.556,31.185,67.969,30.618,68.475z"/>
</g>
</svg>
