<?xml version="1.0" encoding="utf-8"?>
<!-- Generator: Adobe Illustrator 18.1.0, SVG Export Plug-In . SVG Version: 6.00 Build 0)  -->
<svg version="1.0" id="Layer_1" xmlns="http://www.w3.org/2000/svg" xmlns:xlink="http://www.w3.org/1999/xlink" x="0px" y="0px"
	 viewBox="0 0 150 150" enable-background="new 0 0 150 150" xml:space="preserve">
<g>
	<path fill="none" d="M77.7,46.8c1.4-4.7,3.2-9.2,5.8-13.6C89.2,24,96.3,21,100.4,20c-0.1-0.3-0.2-0.5-0.2-0.7
		c-0.1-0.3-0.3-0.6-0.4-0.7c-0.2-0.1-0.2-0.2-0.4-0.2c0,0-0.1,0-0.2,0.1c-1.3,0.2-4.2,0.8-7.6,2.9c-3.4,2.1-7.3,5.6-10.4,11.7
		c-1.6,3-2.7,6.2-3.5,9.4C77.7,43.9,77.8,45.3,77.7,46.8z"/>
	<path fill="none" d="M65.1,131.6c-3.4,4.4-6.8,8.1-9.8,9.6c0.3,0.4,0.6,0.6,0.8,0.8c0.5,0.3,0.9,0.4,1.4,0.4c0.6,0,1.4-0.2,2.2-0.7
		c0.9-0.5,1.8-1.3,2.8-2.2c1.9-2,4-4.7,6-7.9c4.8-7.5,6.1-14,6.1-19.8c0-0.3,0-0.6,0-0.9c-0.7-1.3-1.3-2.6-1.8-3.9
		C73.1,114.1,72.1,122.3,65.1,131.6z"/>
	<path fill="none" d="M108.9,44c4.3-0.6,7.8-1.5,10.2-1.7c0.2-0.8,0.3-1.4,0.3-1.7c0-0.3-0.1-0.5-0.1-0.6c0-0.1-0.1-0.1-0.3-0.2
		c-0.1,0-0.3-0.1-0.6-0.1c-0.9,0-2.5,0.3-4.5,0.9c-2,0.5-4.4,1.2-7.2,1.8c-1.3,0.3-2.5,0.6-3.7,1c-0.2,0.7-0.4,1.3-0.6,1.9
		C104.5,44.6,106.6,44.3,108.9,44z"/>
	<path fill="none" d="M20.2,122.7c-1.3,0.1-2.4,0-3.4-0.2c0.1,0.2,0.1,0.5,0.2,0.7c0.2,0.6,0.5,1.1,1,1.5c0.9,0.8,2.2,1.3,4.1,1.3
		c0.5,0,1.1,0,1.8-0.1c1.4-0.2,3.3-0.8,5.4-1.7c2.1-0.9,4.5-2.2,7-3.8c2.9-1.8,6-4.1,9.1-6.7c0.2-1.2,0.4-2.4,0.7-3.6
		C36.1,117.5,25.7,122.4,20.2,122.7z"/>
	<path fill="none" d="M26.1,87.1c-5.9-1.3-11.8-5.8-14.2-9.9c0,0.4,0.1,0.8,0.1,1.1v0c0,0.8,0.2,2,1.1,3.2c0.9,1.2,2,2.4,3.5,3.6
		c3,2.3,7,4.2,10.8,4.7c1.9,0.3,3.5,0.4,5.1,0.4c1,0,1.9-0.1,2.8-0.2c1.6-1.1,3.3-2.2,5.1-3.2C35.4,88.3,31.5,88.3,26.1,87.1z"/>
	<path fill="none" d="M55,40.5c-1.2-12.6,0.1-24,2.7-28.8c0.6-1.1,1.2-1.9,1.9-2.6c-0.2,0-0.4,0-0.6,0c-0.9,0-1.8,0.4-2.7,1.1
		c-0.9,0.7-1.7,1.9-2.4,3.5c-0.5,1.3-1,3.1-1.3,5.3c-0.3,2.2-0.5,4.9-0.5,7.8c0,3.6,0.4,7.7,1,12C53.7,39.2,54.4,39.9,55,40.5z"/>
	<path fill="none" d="M26.6,45.2c-1.9-5-3.2-9.6-3.1-12.9c-0.3,0.1-0.6,0.2-0.8,0.4c-0.5,0.3-0.8,0.8-1.1,1.5
		c-0.1,0.5-0.2,1-0.2,1.7c0,1.5,0.4,3.4,1.1,5.6c0.7,2.1,1.7,4.6,2.9,7c1.6,3.4,3.5,6.1,5.4,8.4c0.8-0.1,1.6-0.2,2.4-0.3
		C30.8,53.7,28.5,50,26.6,45.2z"/>
	<path fill="none" d="M94.3,90.8c7.1,3.5,10.2,6.9,13.4,13.1c2.9,5.7,3.2,13.9,1.2,18.2c0.4-0.3,0.8-0.5,1.2-0.8
		c0.6-0.5,1.2-1.4,1.6-2.7c0.4-1.3,0.6-2.8,0.6-4.6c0-4-1.1-8.7-3.3-12.2c-1.9-3.1-3.7-5.4-6-7.3c-0.6-0.5-1.2-1-1.9-1.4
		c-0.6-0.2-1.2-0.3-1.7-0.5C97.6,92.1,95.9,91.4,94.3,90.8z"/>
	<path fill="none" d="M138.6,76.4c0-0.7-0.3-1.4-0.9-2.1c-0.6-0.8-1.5-1.5-2.8-2.3c-2.4-1.5-5.8-3-9.6-4.3
		c-4.6-1.6-8.7-2.2-12.3-2.2c-5,0-9.2,1.1-13,2.5c-3,1.4-6,2.7-8.9,3.9c2.5-0.8,5-1.7,7.5-2.4c7.1-2.2,15.8-3.8,27.5,1.1
		c5.3,2.3,9.9,4.8,12,7.4c0.1-0.2,0.2-0.3,0.3-0.5C138.5,77.2,138.6,76.7,138.6,76.4z"/>
	<path fill="#F05A22" d="M65.4,10.6c2,2.2,4,5.6,5.7,10c2.5,6.4,4.1,13.1,5,20.8c0.4-1.4,0.9-2.7,1.4-4.1
		c-0.5-5.9-1.6-11.3-3.2-16.6C70.9,9.5,65.7,5.4,61.4,7.6C61.7,7.7,62,7.9,62.3,8C63.3,8.6,64.4,9.5,65.4,10.6z"/>
	<path fill="#F05A22" d="M74.9,59.1c0-0.6,0-1.2,0-1.8c-0.2,1.6-0.4,3.1-0.6,4.7C74.5,61,74.7,60.1,74.9,59.1z"/>
	<path fill="#F05A22" d="M77.7,46.8c0-1.5,0-2.9,0-4.3c-0.4,1.6-0.8,3.2-1.2,4.9c0.1,1,0.1,2.1,0.2,3.2C77,49.3,77.4,48,77.7,46.8z"
		/>
	<path fill="#F05A22" d="M57.7,11.7c-2.6,4.9-3.9,16.3-2.7,28.8c2.3,2.4,4.4,5.2,6,8.5c2.9,6,4.4,10.8,5.9,15.3
		c0.4,1,0.8,1.9,1.2,2.9c1.2-0.5,2.5-0.8,3.8-0.8c0.8-6.2,1.4-12.7,2.8-19.3c-0.6-10-2.4-18.1-5.4-25.9c-1.2-3.2-2.6-5.8-3.9-7.7
		c-1.4-1.9-2.7-3.2-4-3.9c-0.7-0.3-1.3-0.5-1.8-0.6C58.9,9.7,58.3,10.6,57.7,11.7z"/>
	<path fill="#315FAB" d="M25.3,31c1.5,0,3.9-0.1,6.7,0.6c2.8,0.6,6.1,1.4,9.5,2.8c3.3,1.4,6.7,3.2,9.9,5.7C51.2,39,51.1,38,51,37
		c-8.4-6.4-18.3-8.9-22.3-9.3c-2.8-0.3-4.3,1.1-4.9,3.1c0.4-0.1,0.8,0.2,1.3,0.2C25.1,31,25.2,31,25.3,31z"/>
	<path fill="#315FAB" d="M54.5,47.2c1.7,7.5,4.7,13.7,7.6,18.4c0.9,1.5,1.8,2.6,2.6,3.7c0.6-0.4,1.1-0.8,1.8-1.2
		c-0.5-1.2-1-2.3-1.5-3.6c-1.7-4.2-3.5-8.6-6.6-14c-1.2-2-2.7-3.6-4.2-5.2C54.3,46,54.3,46.5,54.5,47.2z"/>
	<path fill="#315FAB" d="M59.9,49.7c3.2,5.4,5,10,6.7,14.2c0.1,0.2,0.1,0.3,0.2,0.5c-1.4-4.5-3-9.3-5.9-15.3c-1.6-3.3-3.7-6.1-6-8.5
		c-0.6-0.7-1.3-1.3-2-1.9c0.2,1.1,0.3,2.2,0.5,3.4C56,44.2,58.2,46.6,59.9,49.7z"/>
	<path fill="#315FAB" d="M26.6,45.2c1.8,4.8,4.1,8.4,6.6,11.4c7.3-0.6,14.8,1.9,20.6,5.6c3.6,2.3,6.5,4.9,8.8,7.6
		c0.1,0.1,0.2,0.2,0.3,0.3c-0.8-1.1-1.5-2.1-2.4-3.4c-3-4.8-6.1-11.2-7.8-19c-0.4-1.6-0.5-3.1-0.8-4.7c-2-1.8-4-3.3-6.2-4.5
		c-4.9-2.8-10-4-14.1-4.9c-2.7-0.6-5-0.5-6.3-0.5c0,0-0.1,0-0.2,0c-0.6,0-1.1-0.4-1.5-0.2C23.4,36.1,24.7,40.3,26.6,45.2z"/>
	<path fill="#FFE700" d="M41.8,87.9c2.6-1.8,5.5-3.6,8.6-5.3c-1.3,0.5-2.7,1.1-4.4,1.9c-2.1,1-3.9,1.7-5.7,2.3
		c-1.8,1.1-3.5,2.1-5.2,3.2c1.2-0.2,2.5-0.4,3.8-0.8C39.9,89,40.9,88.3,41.8,87.9z"/>
	<path fill="#FFE700" d="M16.3,115c1-2.3,2.5-4.8,4.6-7.5c4.5-5.9,9.8-11.1,16.5-16.2c-1.6,0.3-3.2,0.7-4.9,0.7c0,0-0.1,0-0.1,0
		c-5,3.7-9.2,7.6-13.1,11.9c-7.8,8.7-8.6,15.3-4.4,17.8c0-0.2,0-0.4,0-0.7C14.8,119.3,15.3,117.2,16.3,115z"/>
	<path fill="#FFE700" d="M57.5,80.8c-0.6,0.3-1.2,0.6-1.8,1c1.6-0.4,3.2-0.8,4.7-0.8c0.3,0,0.5,0.1,0.8,0.1c0,0,0-0.1,0-0.1
		C59.9,80.8,58.7,80.7,57.5,80.8z"/>
	<path fill="#FFE700" d="M20.2,122.7c5.5-0.4,15.9-5.2,25.9-12.8c0.8-3.3,2.1-6.5,4.1-9.6c4.6-7.1,8.7-11.4,12.5-16
		c-0.3-0.5-0.7-0.9-1-1.4c-0.4,0-0.9-0.1-1.4-0.1c-1.9,0-3.4,0.2-5.5,0.9c-2,0.7-4.4,1.8-7.6,3.7c-1.7,1-3.1,1.4-4.5,2.1
		c-8.9,6.1-15.1,12.1-20.5,19.1c-2,2.6-3.4,5-4.4,7.1c-0.9,2.1-1.3,3.9-1.3,5.4c0,0.5,0.1,1,0.2,1.4
		C17.8,122.7,18.9,122.8,20.2,122.7z"/>
	<path fill="#62BF87" d="M102.6,32.9c-0.2,3.2-0.5,6.2-1.2,9c0.7-0.2,1.4-0.4,2.2-0.6c0.5-1.9,0.8-4,1.1-6.2
		c1.6-12.6,0.8-15.7-1.4-15.5c-0.3,0-0.6,0.1-1,0.1c0.4,1.5,0.5,3.6,0.6,6.7C102.8,28.2,102.7,30.4,102.6,32.9z"/>
	<path fill="#62BF87" d="M83.6,33.2c-2.7,4.3-4.5,8.9-5.8,13.6c-0.4,1.3-0.7,2.5-1,3.8c0.1,1.2,0.1,2.5,0.1,3.8c0,1.9,0,3.9-0.1,5.9
		c-0.1,2.7-0.2,4.9-0.4,7c0.8,0.3,1.5,0.8,2.2,1.3c1-1.5,1.9-2.8,2.6-4c1.6-2.6,3.1-5.1,5.6-9c4-6.3,7.3-9.7,10.5-11.7
		c0.7-0.4,1.3-0.6,2-0.9c0.8-3.1,1.4-6.3,1.6-10.1c0.1-2.6,0.2-4.7,0.2-6.5c0-1.9-0.1-3.4-0.2-4.5c-0.1-0.7-0.2-1.3-0.3-1.8
		C96.3,21,89.2,24,83.6,33.2z"/>
	<path fill="#62BF87" d="M88.2,56.6c-2.3,3.7-3.7,6-5.3,8.5c1.7-2.3,3.3-4.6,5.8-8c3.3-4.4,6.1-7.2,8.6-9.1c0.3-0.9,0.6-1.8,0.9-2.6
		c0,0-0.1,0-0.1,0.1C95.3,47.2,92.1,50.4,88.2,56.6z"/>
	<path fill="#62BF87" d="M99.9,46.4c0.8-0.4,1.6-0.8,2.4-1c0.2-0.6,0.4-1.3,0.6-1.9c-0.8,0.3-1.6,0.5-2.4,0.9
		C100.4,45,100.2,45.7,99.9,46.4z"/>
	<path fill="#62BF87" d="M73.8,66.7c0.2,0,0.5,0.1,0.7,0.1c0.2-2,0.3-4.1,0.4-6.7c0-0.4,0-0.7,0-1.1c-0.2,1-0.4,1.9-0.6,2.9
		C74.1,63.6,73.9,65.2,73.8,66.7z"/>
	<path fill="#F89D38" d="M126.1,70.7c-11.7-5-20.4-3.3-27.5-1.1c-2.5,0.8-5,1.6-7.5,2.4c-1,0.4-2.1,0.9-3.1,1.3
		c-0.5,0.2-0.9,0.5-1.3,0.7c-1.3,0.7-2.3,1.2-3.4,1.8c0.2,0.8,0.4,1.4,0.4,2.2c0,1.2-0.3,2.2-0.7,3.2c0.7,0.8,1.4,1.5,2.2,2.1
		c1.9,1.5,4.6,2.8,9.2,4.6c0.1,0,0.2,0.1,0.2,0.1c1.9,0.7,3.9,1.3,6.2,1.9c2.5,0.6,5.1,0.9,7.6,0.9c6.7,0,13.1-2.1,18.1-4.6
		c5.1-2.5,8.9-5.5,10.6-7.1c0.4-0.3,0.6-0.7,0.8-1C136,75.5,131.4,72.9,126.1,70.7z"/>
	<path fill="#F89D38" d="M87.9,87.5c1.4,0.8,3.1,1.7,5.2,2.7c0.4,0.2,0.9,0.4,1.3,0.6c1.6,0.6,3.2,1.3,5.1,1.9
		c0.6,0.2,1.2,0.4,1.7,0.5c-1.9-1.2-4.2-2.3-7-3.4C91.9,89,89.8,88.3,87.9,87.5z"/>
	<path fill="#F89D38" d="M82.4,83.1c0.1,0.1,0.2,0.2,0.3,0.3c0.2,0.1,0.4,0.1,0.5,0.2C82.9,83.4,82.7,83.3,82.4,83.1
		C82.4,83.1,82.4,83.1,82.4,83.1z"/>
	<path fill="#F89D38" d="M127.4,87.9c-5.3,2.6-11.8,4.8-19,4.8c-2,0-4.1-0.4-6.2-0.8c0.6,0.4,1.4,0.8,1.9,1.3c0.3,0.3,0.7,0.5,1,0.8
		c14.5,1.9,28.1-6.3,32.1-9.6c1.8-1.5,2.3-3.1,1.8-4.6c-0.2,0.2-0.3,0.4-0.5,0.6C136.6,82.2,132.7,85.2,127.4,87.9z"/>
	<path fill="#B92025" d="M49.5,132.5c-1.2-4-2.1-8.8-2.1-14c0-1.5,0.3-3,0.5-4.5c-0.9,0.8-1.9,1.5-2.8,2.3
		c-0.8,10.1,2.2,19.4,3.9,22.8c1.1,2.3,2.7,3.1,4.5,2.8c-0.1-0.2-0.2-0.4-0.3-0.6C52.1,139.6,50.7,136.5,49.5,132.5z"/>
	<path fill="#B92025" d="M65.1,131.6c7-9.3,8.1-17.6,7.9-24.5c-1.1-2.8-1.8-5.8-2.1-8.6c-0.4-3.2-0.4-6.3-0.1-9.1
		c-1.2-0.1-2.4-0.4-3.5-0.9c-0.6,1.3-1,2.5-1.7,4c-2.6,5.1-6.3,11-12.1,16.6c-1.1,1.1-2.4,2.1-3.5,3.2c-0.4,2.1-0.7,4.3-0.7,6.4
		c0,4.9,0.9,9.6,2,13.5c1.1,3.8,2.5,6.8,3.4,8.4c0.2,0.3,0.4,0.6,0.6,0.8C58.3,139.8,61.7,136.1,65.1,131.6z"/>
	<path fill="#B92025" d="M51.4,101.7c3-5.5,5.9-9.5,8.5-13.2c1-1.4,1.9-2.7,2.9-4c0-0.1-0.1-0.1-0.1-0.2c-3.8,4.5-7.9,8.8-12.5,16
		c-2,3.1-3.3,6.3-4.1,9.6c-0.3,1.2-0.5,2.4-0.7,3.6c0.9-0.8,1.9-1.6,2.8-2.4C48.8,108,49.8,104.8,51.4,101.7z"/>
	<path fill="#B92025" d="M61.5,89.6c-2.7,3.6-5.4,7.5-8.4,12.9c-1.1,2.1-1.8,4.3-2.4,6.4c0.5-0.4,1-0.8,1.5-1.3
		c5.5-5.4,9.2-11.2,11.7-16.1c0.8-1.6,1.3-2.8,1.8-4.2c-0.6-0.4-1.3-0.7-1.7-1.2C63.1,87.3,62.3,88.4,61.5,89.6z"/>
	<path fill="#47B6DE" d="M107.7,104c-3.2-6.3-6.3-9.6-13.4-13.1c-0.4-0.2-0.8-0.4-1.3-0.6c-2.1-1-3.8-1.8-5.2-2.7
		c-0.8-0.3-1.5-0.6-2.2-0.9c-1.5-0.6-3-1.2-4.4-1.7c-1.7,2.3-4.2,3.8-7.1,4.3c0.4,5.1,1.3,10.6,2,16c0,0.4,0,0.8,0.1,1.2
		c0.9,1.9,1.8,3.8,3,5.5c2.8,4,6.6,7.4,11.3,9.2c4.8,1.9,8.8,2.8,12.1,2.8c2.5,0,4.6-0.5,6.4-1.6C110.9,117.8,110.7,109.7,107.7,104
		z"/>
	<path fill="#47B6DE" d="M102.5,126c-3.6,0-7.8-1.2-12.7-3.1c-5.1-1.9-9.1-5.6-12.1-9.9c-0.4-0.7-0.7-1.5-1.2-2.2
		c0,0.4,0.1,0.7,0.1,1.1c0,0.7,0,1.4-0.1,2.2c2.5,3.7,5.8,6.8,10,8.8c8.5,4,14.7,5.1,19.5,2.6C104.9,125.7,103.7,126,102.5,126
		L102.5,126z"/>
	<path fill="#47B6DE" d="M71.7,98.8c-0.5-2.7-0.8-5.4-0.8-7.9c0-0.6,0.1-1.1,0.2-1.6c-0.1,0-0.2,0-0.3,0c-0.3,2.8-0.3,5.9,0.1,9.1
		c0.4,2.8,1.1,5.8,2.1,8.6c0.5,1.3,1.1,2.7,1.8,3.9c0-1.4-0.2-2.8-0.4-4.1C73.2,104.2,72.2,101.5,71.7,98.8z"/>
	<path fill="#47B6DE" d="M82.3,83.3c0.1,0,0.3,0.1,0.4,0.1c-0.1-0.1-0.2-0.2-0.3-0.3C82.3,83.2,82.3,83.2,82.3,83.3z"/>
	<path fill="#F69467" d="M102.4,45.3c-0.8,0.3-1.6,0.6-2.4,1c-0.4,1.3-0.9,2.6-1.5,3.8c-2.6,5.2-6.7,10.3-12.7,16.3
		c-1.6,1.5-3,3.2-4.4,4.8c0.4,0.5,0.9,1.1,1.2,1.7c1.1-0.4,2.2-0.8,3.4-1.2c1.6-0.6,3.3-1.3,4.9-2c4-2,8.1-4.2,11.9-6.6
		c5.5-3.5,10.2-7.7,12.9-12.9c1.4-2.6,2.3-4.7,2.9-6.3c0.3-0.6,0.4-1.2,0.6-1.7c-2.4,0.3-5.9,1.1-10.2,1.7
		C106.6,44.3,104.5,44.6,102.4,45.3z"/>
	<path fill="#F69467" d="M117.2,51.1c-2.9,5.7-7.9,10-13.5,13.6c-0.4,0.3-0.9,0.5-1.3,0.7c1.4-0.4,2.9-0.8,4.5-1.1
		c4.5-2.8,8.5-6.2,11.1-10.4c5.4-8.8,5.8-11.4,3-11.7c-0.2,0.7-0.4,1.5-0.8,2.4C119.6,46.3,118.6,48.4,117.2,51.1z"/>
	<path fill="#F69467" d="M100,68.1c-0.5,0.2-1,0.4-1.5,0.6c-2.3,0.9-4.6,1.9-6.9,2.8c-1.2,0.6-2.4,1.3-3.6,1.9c1-0.4,2-0.9,3.1-1.3
		C94,70.8,97.1,69.5,100,68.1z"/>
	<path fill="#F69467" d="M88.8,57.1c-2.6,3.4-4.1,5.7-5.8,8c-0.1,0.2-0.2,0.3-0.3,0.5c-0.8,1.2-1.6,2.6-2.7,4c0,0,0.1,0,0.2,0.1
		c1.3-1.5,2.7-3.1,4.2-4.6c6-5.9,9.9-10.8,12.4-15.8c0.2-0.4,0.4-0.9,0.6-1.4C94.9,49.8,92.1,52.6,88.8,57.1z"/>
	<path fill="#9161A7" d="M26.1,87.1c5.4,1.2,9.4,1.3,14.3-0.3c1.7-0.5,3.6-1.3,5.7-2.3c1.7-0.8,3.1-1.4,4.4-1.9
		c0.4-0.2,0.8-0.5,1.3-0.7c3.7-2.1,6.5-3.5,9-4.7c0-0.2,0.1-0.5,0.1-0.7c-1.6-0.8-3.2-1.7-5-2.5c-3.8-1.7-7.9-3.4-11.8-5.1
		c-3.4-1.5-7.1-3.5-10.6-6.5c-0.5-0.4-0.9-1-1.4-1.5c-2.7,0.4-5.2,1.1-7.6,2.5c-4.4,2.4-7.5,4.9-9.7,7.3c-1.8,2.1-2.8,4.2-3.1,6.5
		C14.1,81.3,20.1,85.8,26.1,87.1z"/>
	<path fill="#9161A7" d="M34.6,60.9c3.4,2.9,6.9,4.7,10.2,6.2c3.9,1.8,8,3.4,11.8,5.2c1.6,0.7,3.1,1.5,4.6,2.3
		c0.3-0.9,0.6-1.6,1.1-2.4c-2.5-2.8-5.7-5.5-9.8-7.6C47.8,62,42,60.3,36.3,60.3c-0.7,0-1.3,0.2-2,0.2C34.4,60.7,34.5,60.8,34.6,60.9
		z"/>
	<path fill="#9161A7" d="M36.3,58.5c6.1,0,12.1,1.8,17.1,4.4c3.6,1.9,6.7,4.3,9.2,6.8c-2.3-2.7-5.2-5.4-8.8-7.6
		C48,58.4,40.5,56,33.3,56.6c-0.8,0.1-1.6,0.2-2.4,0.3c0.6,0.7,1.2,1.4,1.9,2C33.9,58.8,35.1,58.5,36.3,58.5z"/>
	<path fill="#9161A7" d="M23.5,61.7c2.2-1.3,4.6-2,7-2.5c-0.5-0.6-1.1-1.2-1.6-1.9c-1.3,0.3-2.6,0.8-3.8,1.4
		c-9.2,4.3-13.9,8.9-14.4,14.7c0,0.2,0,0.4,0,0.6c0.6-1.6,1.5-3.1,2.7-4.6C15.6,66.7,19,64.2,23.5,61.7z"/>
	<path fill="#9161A7" d="M57.5,80.8c1.2-0.1,2.4,0,3.6,0.1c-0.1-0.6-0.3-1.2-0.3-1.8C59.8,79.6,58.7,80.2,57.5,80.8z"/>
	<path d="M140.5,76.4c0-1.2-0.5-2.3-1.3-3.3c-1.2-1.5-3.1-2.7-5.3-3.9c-2.3-1.2-5-2.2-7.9-3.2c-4.8-1.6-9-2.3-12.9-2.3
		c-2.2,0-4.2,0.2-6,0.6c-1.6,0.3-3.1,0.7-4.5,1.1c0.4-0.2,0.9-0.4,1.3-0.7c5.6-3.6,10.6-7.9,13.5-13.6c1.4-2.7,2.3-4.8,3-6.5
		c0.3-0.9,0.6-1.7,0.8-2.4c0.1-0.6,0.2-1.2,0.2-1.7c0-0.4-0.1-0.8-0.2-1.1c-0.2-0.5-0.6-1-1.1-1.2c-0.5-0.2-1-0.3-1.6-0.3
		c-1.3,0-3,0.4-5,0.9c-2,0.5-4.4,1.2-7.1,1.8c-0.9,0.2-1.8,0.4-2.8,0.6c-0.7,0.2-1.4,0.4-2.2,0.6c0.6-2.8,1-5.7,1.2-9
		c0.1-2.6,0.2-4.8,0.2-6.6c0-3.1-0.2-5.2-0.6-6.7c0-0.2-0.1-0.4-0.1-0.5c-0.2-0.8-0.5-1.4-1-1.8c-0.4-0.5-1.1-0.7-1.7-0.7
		c-0.2,0-0.4,0-0.5,0.1c-1.4,0.2-4.5,0.9-8.2,3.2c-3.6,2.2-7.8,6-11,12.4c-0.9,1.7-1.6,3.4-2.2,5.1c-0.5,1.4-1,2.7-1.4,4.1
		c-0.9-7.7-2.5-14.4-5-20.8c-1.7-4.4-3.6-7.8-5.7-10c-1-1.1-2.1-2-3.1-2.6c-0.3-0.2-0.6-0.3-0.9-0.4c-0.8-0.3-1.6-0.5-2.4-0.5
		c-1.4,0-2.8,0.5-3.9,1.5c-1.1,1-2.1,2.4-2.9,4.1c-0.7,1.5-1.1,3.5-1.5,5.8c-0.3,2.3-0.5,5-0.5,8c0,3.2,0.3,6.7,0.7,10.3
		c0.1,1,0.3,2,0.4,3c-3.2-2.5-6.6-4.4-9.9-5.8c-3.4-1.4-6.7-2-9.5-2.6c-2.8-0.6-5.2-0.6-6.7-0.6c-0.1,0-0.2,0-0.2,0
		c-0.4,0-0.9-0.3-1.3-0.3c-0.4,0.1-0.8,0-1.2,0.1c-1,0.4-1.9,1-2.4,2c-0.5,0.9-0.7,2-0.7,3.2c0,1.8,0.4,3.9,1.2,6.1
		c0.8,2.3,1.8,4.7,3,7.3c1.5,3.2,3.3,5.7,5.1,8c0.5,0.6,1.1,1.3,1.6,1.9c-2.4,0.5-4.7,1.2-7,2.5c-4.5,2.5-7.9,5-10.2,7.8
		c-1.2,1.5-2,3-2.6,4.6c-0.5,1.4-0.7,2.8-0.7,4.3v0.1c0,1.4,0.5,2.8,1.5,4.2c1.5,2.1,3.8,4.1,6.6,5.7c2.7,1.6,5.9,2.9,9,3.3
		c1.9,0.3,3.6,0.4,5.3,0.4c0,0,0.1,0,0.1,0c1.7,0,3.3-0.4,4.9-0.7c-6.7,5.1-12,10.3-16.5,16.2c-2.1,2.7-3.6,5.2-4.6,7.5
		c-1,2.2-1.5,4.3-1.5,6.1c0,0.2,0,0.4,0,0.7c0.1,0.8,0.2,1.5,0.5,2.2c0.5,1.3,1.4,2.2,2.6,2.9c1.2,0.6,2.6,1,4.3,1
		c0.7,0,1.4-0.1,2.1-0.2c1.7-0.3,3.7-0.9,5.9-1.9c4.4-1.9,9.7-5.2,15.1-9.5c0.9-0.7,1.9-1.5,2.8-2.3c-0.2,1.5-0.5,3.1-0.5,4.5
		c0,5.2,0.9,10,2.1,14c1.2,4,2.6,7.1,3.6,8.8c0.1,0.2,0.2,0.4,0.3,0.6c0.5,0.7,1,1.3,1.6,1.7c0.7,0.5,1.6,0.8,2.5,0.8
		c1.1,0,2.1-0.4,3.2-1c1.5-1,3.1-2.4,4.7-4.3c1.6-1.8,3.1-4.1,4.7-6.4c4.4-6.9,6-13.1,6.4-18.6c0-0.7,0.1-1.5,0.1-2.2
		c0-0.4-0.1-0.7-0.1-1.1c0.4,0.7,0.7,1.5,1.2,2.1c3,4.3,7,8.1,12.1,10c4.9,1.9,9.1,3.1,12.7,3.1h0c1.2,0,2.4-0.3,3.4-0.5
		c2-0.4,3.8-1.4,5.3-2.6c1-0.8,1.7-2.1,2.2-3.6c0.4-1.5,0.7-3.2,0.7-5.1c0-4.3-1.1-9.3-3.5-13.2c-1.7-2.8-3.4-5-5.4-6.9
		c-0.3-0.3-0.6-0.6-1-0.8c-0.6-0.5-1.3-0.9-1.9-1.3c2.1,0.4,4.2,0.8,6.2,0.8c7.1,0,13.7-2.2,19-4.8c5.2-2.6,9.2-5.7,11-7.5
		c0.2-0.2,0.4-0.4,0.5-0.6c0.4-0.4,0.7-0.9,0.9-1.4C140.3,77.8,140.5,77,140.5,76.4z M103,43.4c1.2-0.4,2.4-0.7,3.7-1
		c2.8-0.6,5.2-1.3,7.2-1.8c2-0.5,3.6-0.9,4.5-0.9c0.3,0,0.4,0,0.6,0.1c0.2,0.1,0.3,0.1,0.3,0.2c0.1,0.1,0.1,0.2,0.1,0.6
		c0,0.4-0.1,1-0.3,1.7c-0.1,0.5-0.3,1-0.6,1.7c-0.6,1.6-1.6,3.7-2.9,6.3c-2.6,5.2-7.4,9.4-12.9,12.9c-3.8,2.5-7.9,4.6-11.9,6.6
		c-1.6,0.7-3.3,1.4-4.9,2c-1.2,0.4-2.3,0.8-3.4,1.2c-0.3-0.6-0.8-1.2-1.2-1.7c1.4-1.6,2.8-3.3,4.4-4.8c6-6,10.1-11,12.7-16.3
		c0.6-1.2,1.1-2.5,1.5-3.8c0.2-0.7,0.4-1.4,0.6-2.1C101.4,43.9,102.2,43.7,103,43.4z M82.7,83.5c-0.1,0-0.3-0.1-0.4-0.1
		c0-0.1,0.1-0.1,0.1-0.2c0,0,0.1-0.1,0.1-0.1c0.2,0.2,0.5,0.4,0.8,0.6C83,83.6,82.8,83.5,82.7,83.5z M81.8,78c0,2.7-1.1,5.1-2.8,6.9
		c-1.7,1.8-4.2,2.8-6.9,2.8c-2.7,0-5.1-1.1-6.9-2.8c-1.7-1.7-2.8-4.2-2.8-6.9c0-2.7,1.1-5.1,2.8-6.9c1.8-1.8,4.2-2.9,6.9-2.9
		c2.7,0,5.1,1.1,6.9,2.9C80.8,72.9,81.8,75.3,81.8,78z M65.7,87.4c-0.6,1.4-1,2.6-1.8,4.2c-2.5,4.9-6.2,10.7-11.7,16.1
		c-0.5,0.5-1,0.9-1.5,1.3c0.6-2.1,1.3-4.3,2.4-6.4c3-5.5,5.7-9.3,8.4-12.9c0.9-1.2,1.7-2.3,2.5-3.5C64.5,86.7,65.1,87,65.7,87.4z
		 M61.2,81.1c-0.2,0-0.5-0.1-0.8-0.1c-1.6,0-3.1,0.4-4.7,0.8c0.6-0.3,1.2-0.7,1.8-1c1.2-0.6,2.3-1.2,3.3-1.7
		C60.9,79.8,61,80.4,61.2,81.1C61.2,81,61.2,81,61.2,81.1z M36.3,60.3c5.7,0,11.5,1.7,16.3,4.2c4,2.2,7.3,4.9,9.8,7.6
		c-0.4,0.8-0.8,1.5-1.1,2.4c-1.5-0.8-3-1.5-4.6-2.3c-3.9-1.8-8-3.4-11.8-5.2c-3.3-1.5-6.8-3.3-10.2-6.2c-0.1-0.1-0.2-0.2-0.3-0.4
		C35,60.5,35.6,60.3,36.3,60.3z M58.3,50.6c3.1,5.4,4.9,9.8,6.6,14c0.5,1.2,1,2.4,1.5,3.6c-0.6,0.4-1.2,0.8-1.8,1.2
		c-0.9-1.2-1.7-2.2-2.6-3.7c-2.9-4.7-5.9-10.9-7.6-18.4c-0.2-0.6-0.2-1.2-0.3-1.8C55.6,47,57.2,48.6,58.3,50.6z M97.4,48
		c-0.2,0.5-0.3,0.9-0.6,1.4c-2.5,5-6.4,9.8-12.4,15.8c-1.5,1.5-2.9,3.1-4.2,4.6c-0.1-0.1-0.1-0.1-0.2-0.1c1-1.5,1.9-2.8,2.7-4
		c0.1-0.2,0.2-0.3,0.3-0.5c1.6-2.5,2.9-4.9,5.3-8.5c3.9-6.2,7.1-9.3,9.9-11.2c0,0,0.1,0,0.1-0.1C97.9,46.2,97.7,47.1,97.4,48z
		 M77.7,42.5c0.9-3.2,2-6.4,3.5-9.4c3.2-6.1,7-9.6,10.4-11.7c3.4-2.1,6.3-2.7,7.6-2.9c0.1,0,0.1-0.1,0.2-0.1c0.2,0,0.2,0.1,0.4,0.2
		c0.1,0.1,0.2,0.3,0.4,0.7c0.1,0.2,0.2,0.5,0.2,0.7c0.1,0.5,0.2,1.1,0.3,1.8c0.1,1.2,0.2,2.7,0.2,4.5c0,1.8-0.1,4-0.2,6.5
		c-0.2,3.8-0.8,7-1.6,10.1c-0.7,0.3-1.3,0.5-2,0.9c-3.2,2-6.5,5.4-10.5,11.7c-2.5,3.9-3.9,6.4-5.6,9c-0.8,1.3-1.6,2.6-2.6,4
		c-0.7-0.5-1.4-1-2.2-1.3c0.1-2.1,0.3-4.3,0.4-7c0.1-2,0.1-4,0.1-5.9c0-1.3,0-2.6-0.1-3.8c-0.1-1.1-0.1-2.1-0.2-3.2
		C76.9,45.8,77.3,44.1,77.7,42.5z M74.9,59.1c0,0.4,0,0.7,0,1.1c-0.1,2.6-0.2,4.7-0.4,6.7c-0.2,0-0.5-0.1-0.7-0.1
		c0.2-1.6,0.4-3.2,0.6-4.8c0.2-1.6,0.4-3.1,0.6-4.7C74.9,57.9,74.9,58.5,74.9,59.1z M52.1,26.6c0-2.9,0.2-5.5,0.5-7.8
		c0.3-2.2,0.8-4,1.3-5.3c0.7-1.6,1.5-2.8,2.4-3.5C57.2,9.3,58.1,9,59,9c0.2,0,0.4,0,0.6,0c0.6,0.1,1.2,0.3,1.8,0.6
		c1.3,0.7,2.7,2,4,3.9c1.4,1.9,2.7,4.5,3.9,7.7c3,7.8,4.8,15.9,5.4,25.9c-1.3,6.6-2,13.1-2.8,19.3c-1.3,0-2.6,0.3-3.8,0.8
		c-0.4-1-0.8-1.9-1.2-2.9c-0.1-0.2-0.1-0.3-0.2-0.5c-1.7-4.2-3.6-8.7-6.7-14.2c-1.8-3.1-4-5.5-6.4-7.7c-0.2-1.1-0.4-2.2-0.5-3.4
		C52.4,34.4,52.1,30.3,52.1,26.6z M25.4,48.5c-1.2-2.5-2.2-4.9-2.9-7c-0.7-2.2-1.1-4.1-1.1-5.6c0-0.7,0.1-1.2,0.2-1.7
		c0.2-0.7,0.5-1.2,1.1-1.5c0.2-0.1,0.5,0.2,0.8,0.1c0.4-0.1,0.9,0.2,1.5,0.2c0.1,0,0.2,0,0.2,0c1.4,0,3.7-0.1,6.3,0.5
		c4.1,0.9,9.2,2.3,14.1,5.1c2.2,1.2,4.2,2.7,6.2,4.4c0.3,1.6,0.4,3.1,0.8,4.7c1.8,7.8,4.8,14.1,7.8,18.9c0.8,1.4,1.6,2.3,2.4,3.4
		c-0.1-0.1-0.2-0.2-0.3-0.3c-2.5-2.5-5.5-4.9-9.2-6.8c-5-2.6-11.1-4.4-17.1-4.4c-1.2,0-2.4,0.3-3.6,0.4c-0.6-0.6-1.2-1.3-1.9-2
		C28.9,54.6,27,52,25.4,48.5z M35.2,90c-0.9,0.1-1.9,0.2-2.8,0.2c-1.6,0-3.3-0.1-5.1-0.4c-3.8-0.5-7.8-2.4-10.8-4.7
		c-1.5-1.1-2.5-2.4-3.4-3.6c-0.9-1.2-1.1-2.3-1.1-3.2v0c0-0.4-0.2-0.8-0.1-1.1c0.3-2.3,1.2-4.4,3-6.5c2.1-2.5,5.2-4.9,9.6-7.3
		c2.4-1.4,4.9-2.1,7.6-2.5c0.5,0.5,0.9,1.1,1.4,1.5c3.5,3,7.2,5,10.6,6.5c3.9,1.8,8,3.4,11.8,5.1c1.8,0.8,3.4,1.6,5,2.5
		c0,0.3-0.1,0.5-0.1,0.7c-2.5,1.2-5.4,2.6-9,4.7c-0.4,0.2-0.8,0.5-1.3,0.7c-3.1,1.8-6,3.6-8.6,5.3c-0.9,0.4-2,1-2.8,1.3
		C37.7,89.6,36.5,89.9,35.2,90z M45.4,113.6c-3.1,2.6-6.2,4.9-9.1,6.7c-2.5,1.6-4.9,2.8-7,3.8c-2.1,0.9-4,1.5-5.4,1.7
		c-0.7,0.1-1.3,0.1-1.8,0.1c-1.9,0-3.2-0.5-4.1-1.3c-0.4-0.4-0.8-0.9-1-1.5c-0.1-0.2-0.1-0.4-0.2-0.7c-0.1-0.4-0.2-0.9-0.2-1.4
		c0-1.4,0.4-3.3,1.3-5.4c0.9-2.1,2.4-4.5,4.4-7.1c5.4-7,11.6-13.1,20.5-19.1c1.5-0.6,2.8-1.1,4.5-2.1c3.2-1.8,5.6-3,7.6-3.7
		c2-0.7,3.6-0.9,5.5-0.9c0.4,0,0.9,0,1.4,0.1c0.3,0.5,0.6,1,1,1.4c0,0.1,0.1,0.1,0.1,0.2c-0.9,1.3-1.9,2.6-2.9,4
		c-2.7,3.6-5.5,7.6-8.5,13.2c-1.7,3.1-2.6,6.3-3.2,9.5C47.3,112,46.4,112.8,45.4,113.6z M74.7,111.9c0,5.8-1.3,12.3-6.1,19.8
		c-2,3.1-4.1,5.9-6,7.9c-1,1-1.9,1.7-2.8,2.2c-0.8,0.5-1.6,0.7-2.2,0.7c-0.5,0-0.9-0.1-1.4-0.4c-0.3-0.2-0.6-0.5-0.8-0.8
		c-0.2-0.2-0.4-0.5-0.6-0.8c-0.9-1.6-2.3-4.6-3.4-8.4c-1.1-3.8-2-8.6-2-13.5c0-2.1,0.3-4.3,0.7-6.4c1.2-1,2.4-2,3.5-3.2
		c5.7-5.6,9.5-11.5,12.1-16.6c0.7-1.5,1.2-2.7,1.7-4c1.1,0.5,2.2,0.8,3.5,0.9c0.1,0,0.2,0,0.3,0c0,0.6-0.2,1-0.2,1.6
		c0,2.5,0.2,5.1,0.8,7.9c0.5,2.7,1.5,5.4,2.7,8c0.2,1.4,0.3,2.7,0.4,4.1C74.7,111.3,74.7,111.6,74.7,111.9z M103.1,94.6
		c2.3,1.9,4.1,4.1,6,7.3c2.1,3.5,3.3,8.2,3.3,12.2c0,1.7-0.2,3.3-0.6,4.6c-0.4,1.3-0.9,2.2-1.6,2.7c-0.4,0.3-0.8,0.6-1.2,0.8
		c-1.8,1.1-3.9,1.6-6.4,1.6c-3.3,0-7.3-0.9-12.1-2.8c-4.7-1.7-8.4-5.1-11.3-9.2c-1.2-1.7-2.2-3.6-3-5.5c0-0.4,0-0.8-0.1-1.2
		c-0.7-5.5-1.6-10.9-2-16c2.9-0.5,5.4-2,7.1-4.3c1.5,0.6,2.9,1.1,4.4,1.7c0.7,0.3,1.5,0.6,2.2,0.9c1.9,0.8,4,1.5,6.2,2.3
		c2.9,1.1,5.1,2.2,7,3.4C101.8,93.7,102.5,94.1,103.1,94.6z M137.2,79c-1.7,1.7-5.5,4.6-10.6,7.1c-5.1,2.6-11.4,4.6-18.1,4.6
		c-2.5,0-5-0.3-7.6-0.9c-2.3-0.6-4.3-1.3-6.2-1.9c-0.1,0-0.2-0.1-0.2-0.1c-4.6-1.8-7.3-3.1-9.2-4.6c-0.9-0.6-1.5-1.3-2.2-2.1
		c0.3-1,0.7-2.1,0.7-3.2c0-0.8-0.3-1.5-0.4-2.2c1.1-0.6,2.1-1,3.4-1.8c0.4-0.2,0.9-0.4,1.3-0.7c1.2-0.6,2.4-1.2,3.6-1.9
		c2.3-0.9,4.6-1.9,6.9-2.8c0.5-0.2,1-0.4,1.5-0.6c3.8-1.4,8-2.5,13-2.5c3.6,0,7.7,0.6,12.3,2.2c3.8,1.3,7.2,2.7,9.6,4.3
		c1.2,0.8,2.1,1.5,2.8,2.3c0.6,0.8,0.9,1.4,0.9,2.1c0,0.3-0.1,0.8-0.3,1.2c-0.1,0.1-0.2,0.3-0.3,0.5C137.8,78.4,137.5,78.7,137.2,79
		z"/>
	<path fill="#F89D38" d="M79,71.1c-1.7-1.8-4.2-2.9-6.9-2.9c-2.7,0-5.1,1.1-6.9,2.9c-1.7,1.7-2.8,4.2-2.8,6.9c0,2.7,1.1,5.1,2.8,6.9
		c1.8,1.8,4.2,2.8,6.9,2.8c2.7,0,5.1-1.1,6.9-2.8c1.8-1.7,2.8-4.2,2.8-6.9C81.8,75.3,80.8,72.9,79,71.1z"/>
</g>
</svg>
