<?xml version="1.0" encoding="utf-8"?>
<!-- Generator: Adobe Illustrator 18.1.0, SVG Export Plug-In . SVG Version: 6.00 Build 0)  -->
<svg version="1.1" id="Layer_1" xmlns="http://www.w3.org/2000/svg" xmlns:xlink="http://www.w3.org/1999/xlink" x="0px" y="0px"
	 viewBox="0 0 150 150" enable-background="new 0 0 150 150" xml:space="preserve">
<g>
	<path fill="#F1D9D7" d="M70.6,110.3c3.2-1.1,7.9-1.7,13.1,0.2c3.6-7.8,6.3-15,7.3-15.7c0-0.1,0-0.3,0-0.6c-13-6.1-25-1-27,0.2
		c0,0.4,0,0.7,0,0.8C64,95.9,67.2,102.7,70.6,110.3z"/>
	<path fill="#ABADB0" d="M70.4,110.3c2.2,5.1,4.6,10.4,6.5,14.6c1.8-4,4.2-9.3,6.5-14.3C78.2,108.6,73.6,109.2,70.4,110.3z"/>
	<path d="M91,94.1c0,0.3,0,0.6,0,0.6c-1,0.8-3.8,7.9-7.4,15.7c-2.3,5-4.8,10.3-6.6,14.3c-1.8-4.1-4.1-9.5-6.4-14.6
		c-3.4-7.6-6.6-14.4-6.6-15.1c0-0.1,0-0.4,0-0.8c0-6.2,0-45.4,0-45.4h-9v47.9l21.6,48.9L99,96.6V44.5l-8-6.4
		C91,61.5,91,89.5,91,94.1z"/>
	<polygon fill="#B85856" points="82,31.7 77.1,28.3 72,32.1 72,88 82,88 	"/>
	<path d="M99,29.9V5h-8c0,0,0,7.7,0,18.6l-11.1-8l-2.8-2l-2.6,2L32.4,49h13.9l31-24.6L110.5,49H125L99,29.9z"/>
</g>
</svg>
