<?xml version="1.0" encoding="utf-8"?>
<!-- Generator: Adobe Illustrator 18.1.0, SVG Export Plug-In . SVG Version: 6.00 Build 0)  -->
<svg version="1.1" id="Layer_1" xmlns="http://www.w3.org/2000/svg" xmlns:xlink="http://www.w3.org/1999/xlink" x="0px" y="0px"
	 viewBox="0 0 150 150" enable-background="new 0 0 150 150" xml:space="preserve">
<g>
	<linearGradient id="SVGID_1_" gradientUnits="userSpaceOnUse" x1="62.0017" y1="66.538" x2="125.4967" y2="11.8617">
		<stop  offset="0" style="stop-color:#FFFFFF"/>
		<stop  offset="3.370800e-02" style="stop-color:#FFB602"/>
		<stop  offset="1" style="stop-color:#EC5A4F"/>
	</linearGradient>
	<path fill="url(#SVGID_1_)" d="M67.8,25.7c0,0,11.5-7.1,20.5-8.6c9-1.5,15.7,0,19,3.5c3.3,3.5,22.7,23.1,22.7,23.1
		s-9.3-10.6-36.6,4.4l-7.5-16.1L67.8,25.7z"/>
	<linearGradient id="SVGID_2_" gradientUnits="userSpaceOnUse" x1="129.4982" y1="-16.6811" x2="72.4755" y2="135.9736">
		<stop  offset="5.618000e-03" style="stop-color:#6CAB36"/>
		<stop  offset="1" style="stop-color:#0E955E"/>
	</linearGradient>
	<path fill="url(#SVGID_2_)" d="M109.7,44.5c0,0,11.2-4.9,22.3,2.6c0,0,8.4,12.3-4,34.2c-12.3,21.8-36.8,45-59.1,51.6
		c-22.3,6.6-26.2-12.3-22-24.5c0,0,24-9.4,39-26C100.2,66.5,106.8,55.1,109.7,44.5z"/>
	<path fill="#FECF07" d="M69,86.2V39.6l-43.9,8.6l9.1,7.9c-4.5,5.9-12,16.8-14.6,26.7c-3.3,12.7,0.2,21.2,2.4,23.4
		c2.2,2.2,22.7,22.5,22.7,22.5C36,107.8,52.9,85.5,59.4,78L69,86.2z"/>
</g>
</svg>
