<?xml version="1.0" encoding="utf-8"?>
<!-- Generator: Adobe Illustrator 18.1.0, SVG Export Plug-In . SVG Version: 6.00 Build 0)  -->
<svg version="1.0" id="Layer_1" xmlns="http://www.w3.org/2000/svg" xmlns:xlink="http://www.w3.org/1999/xlink" x="0px" y="0px"
	 viewBox="0 0 150 150" enable-background="new 0 0 150 150" xml:space="preserve">
<g>
	<g>
		<path fill="#9E9E9E" d="M130,73.3V40.9c0-10.4-8.4-18.8-18.8-18.8h-4.8l23.6,51.1L130,73.3z"/>
		<path fill="#164888" d="M22.9,110.3c0,10.4,8.4,18.8,18.8,18.8h20.9L22.9,98.6V110.3z"/>
		<path fill="#9E9E9E" d="M106.7,128.6c-0.1,0.1-0.1,0.2-0.2,0.3l0.1,0.2h4.4c10.4,0,18.8-8.4,18.8-18.8v-30l-0.1,0.2L106.7,128.6z"
			/>
		<path fill="#164888" d="M74,22.1H41.7c-10.4,0-18.8,8.4-18.8,18.8v37.3L74,22.1z"/>
		<path fill="#9E9E9E" d="M95.1,125.1L89.3,113L55.5,55.1l-1.9,1.5l40.3,68.9C94.3,125.4,94.7,125.1,95.1,125.1z"/>
		<path fill="#9E9E9E" d="M93.6,125.5l-43.9-64l-1.8,1.7l40.8,59.4L44.2,67.3l-1.7,1.9l46.7,58.1L38.3,74l-1.5,2l50.5,52.9
			C88.9,127.7,91.2,126.3,93.6,125.5z"/>
		<path fill="#9E9E9E" d="M85,130.7c0,0,0.8-0.7,1.8-1.5L32.3,79.9l-1.5,2.2l51.3,46.5L85,130.7z"/>
		<path fill="#164888" d="M83.9,134.7c8.5,5.3,15-9.9,15-9.9L122,76.8l-29-62.7L59.6,50.7L89.3,113l5.8,12.1
			c-0.4,0.1-0.8,0.3-1.3,0.4c-0.1,0-0.1,0-0.2,0c-2.5,0.8-4.7,2.1-6.4,3.4c-0.2,0.1-0.3,0.3-0.5,0.4c-1,0.8-1.8,1.5-1.8,1.5
			l-2.8-2.2L27.5,85.8l-3.1,3L83.9,134.7z"/>
	</g>
	<g>
		<path fill="#9E9E9E" d="M79.7,141.7l-5.5-4.2l-11.3,0H42.1c-15,0-27.2-12.2-27.2-27.2l0,0V98.5v-7.8v-3.2v-2v-7.4V40.9
			c0-15,12.2-27.2,27.2-27.2l0,0h32.3h12.8l-3.8,4h-8.9H42.1c-12.8,0-23.2,10.4-23.2,23.2l0,0v37.3v9.4h0v3.2v7.8l0,11.8
			c0,12.8,10.4,23.2,23.2,23.2l0,0h20.8h12.6l0.5,0.4l5.8,4.5c2,1.2,3.9,1.8,6,1.8l0,0c4.4,0,8-2.7,10.7-6l0,0l0.6-0.7h1h6.8h4.5
			c12.8,0,23.2-10.4,23.2-23.2l0,0v-30l0-7V40.9c0-12.8-10.4-23.2-23.2-23.2l0,0h-4.8l-5.5,0l-2.1-4h7.5h4.8
			c15,0,27.2,12.2,27.2,27.2l0,0v32.4v7.1v30c0,15-12.2,27.2-27.2,27.2l0,0H107h-5.9c-3,3.4-7.4,6.7-13.2,6.7l0,0c0,0-0.1,0-0.1,0
			l0,0C85,144.2,82.3,143.4,79.7,141.7L79.7,141.7z"/>
	</g>
</g>
</svg>
