<?xml version="1.0" encoding="utf-8"?>
<!-- Generator: Adobe Illustrator 18.1.0, SVG Export Plug-In . SVG Version: 6.00 Build 0)  -->
<svg version="1.1" id="Layer_1" xmlns="http://www.w3.org/2000/svg" xmlns:xlink="http://www.w3.org/1999/xlink" x="0px" y="0px"
	 viewBox="0 0 150 150" enable-background="new 0 0 150 150" xml:space="preserve">
<g>
	<g>
		<path fill="#C4DC83" d="M62.3,48.6c0-4.1-2.3-6.1-6.8-6.1v-2h18.9v2c-3.7,0-5.6,2-5.6,5.9v20.8c0,2.3-0.2,4.4-0.7,6.3
			c-0.5,2-1.2,3.7-2.2,5.1c-1,1.5-2.3,2.6-3.8,3.5c-1.6,0.8-3.4,1.3-5.6,1.3c-1.2,0-2.3-0.2-3.4-0.6c-1.1-0.4-2.1-0.9-2.9-1.6
			c-0.8-0.7-1.5-1.5-2-2.5c-0.5-1-0.8-2-0.8-3.2c0-1.2,0.3-2.3,1-3.2c0.7-0.9,1.6-1.4,2.8-1.4c2,0,3,0.9,3,2.8
			c0,1.9-0.6,2.8-1.7,2.8c-0.8,0-1.4-0.2-1.8-0.5c0.2,1.2,0.8,2.1,1.9,2.9c1.1,0.8,2.4,1.1,4,1.1c1.3,0,2.4-0.5,3.2-1.4
			c0.8-0.9,1.4-2,1.8-3.4c0.4-1.4,0.6-2.8,0.7-4.4s0.1-3.1,0.1-4.4V48.6z"/>
	</g>
	<g>
		<path fill="#C4DC83" d="M89.5,68.4c0,1.3,0,2.8,0.1,4.4s0.3,3.1,0.7,4.4c0.4,1.4,1,2.5,1.8,3.4c0.8,0.9,1.8,1.4,3.2,1.4
			c1.6,0,2.9-0.4,4-1.1c1.1-0.8,1.7-1.7,1.9-2.9c-0.4,0.4-1,0.5-1.8,0.5c-1.2,0-1.7-0.9-1.7-2.8c0-1.9,1-2.8,3-2.8
			c1.2,0,2.1,0.5,2.8,1.4c0.7,0.9,1,2,1,3.2c0,1.2-0.3,2.2-0.8,3.2c-0.5,1-1.2,1.8-2,2.5c-0.8,0.7-1.8,1.2-2.9,1.6
			c-1.1,0.4-2.2,0.6-3.4,0.6c-2.2,0-4.1-0.4-5.6-1.3c-1.6-0.8-2.8-2-3.8-3.5c-1-1.5-1.7-3.2-2.2-5.1c-0.5-2-0.7-4.1-0.7-6.3V48.4
			c0-3.9-1.9-5.9-5.6-5.9v-2h18.9v2c-4.5,0-6.8,2-6.8,6.1V68.4z"/>
	</g>
	<g>
		<path fill="#C4DC83" d="M14.6,91c0.1,0,0.2,0,0.2,0c0.3,0,0.6,0,1,0.1c0,0,0.1,0,0.1,0c0,0,0.1,0,0.1,0c-4.4-5.6-7-12.7-7-20.4
			c0-18.2,14.8-33,33-33c8.5-8.7,20.4-14,33.5-14c13.1,0,25,5.4,33.5,14c0,0,0,0,0,0c18.2,0,33,14.8,33,33c0,7.7-2.6,14.8-7,20.4
			c0,0,0.1,0,0.1,0l0.1,0c0.5-0.1,0.9-0.1,1.3-0.1c0.1,0,0.2,0,0.3,0c4.2-5.7,6.6-12.7,6.6-20.3c0-18.8-15.1-34.1-33.8-34.4
			c-8.7-8.7-20.8-14-34.1-14c-13.3,0-25.3,5.4-34.1,14C22.8,36.7,7.7,51.9,7.7,70.8c0,7.6,2.5,14.6,6.6,20.3
			C14.4,91,14.5,91,14.6,91z"/>
		<path fill="#C4DC83" d="M130.2,93c0.2,0.1,0.4,0.3,0.5,0.4c0.2-0.2,0.4-0.4,0.6-0.5c5.7-5.7,9.2-13.5,9.2-22.2
			c0-8.7-3.5-16.5-9.2-22.2c-5.7-5.7-13.5-9.2-22.1-9.2h0l-0.7,0l-0.5-0.5c-8.2-8.3-19.7-13.5-32.3-13.5c-12.6,0-24.1,5.2-32.3,13.5
			l-0.5,0.5h-0.7c-17.3,0-31.3,14-31.3,31.3v0l0,0c0,8.9,3.8,17,9.8,22.7c0.2-0.1,0.4-0.3,0.5-0.4c-5.9-5.6-9.6-13.5-9.6-22.3v0v0
			c0-16.9,13.7-30.6,30.6-30.6h1l0.7-0.7c8.1-8.2,19.4-13.3,31.8-13.3c12.5,0,23.7,5.1,31.8,13.3l0.7,0.7h1h0c8.5,0,16.1,3.4,21.7,9
			c5.6,5.6,9,13.2,9,21.7c0,8.5-3.4,16.1-9,21.7C130.6,92.6,130.4,92.8,130.2,93z"/>
		<path fill="#C4DC83" d="M140,96.2c0-0.1,0-0.2-0.1-0.2c0-0.2-0.1-0.3-0.2-0.5c-0.1-0.3-0.3-0.6-0.6-0.9c-0.2-0.2-0.3-0.4-0.5-0.6
			c-0.2-0.2-0.4-0.3-0.6-0.4c-0.2-0.1-0.5-0.2-0.7-0.3c-0.3-0.1-0.5-0.1-0.8-0.1c-0.3,0-0.6,0-0.8,0.1c-0.1,0-0.1,0-0.2,0
			c0,0-0.1,0-0.1,0l0,0l0,0c-0.1,0-0.3,0.1-0.4,0.1c-0.5,0.2-1,0.4-1.4,0.8c-0.4,0.3-0.7,0.7-1,1.1c-0.3,0.4-0.5,0.8-0.6,1.3
			c-0.1,0.4-0.2,0.9-0.2,1.3c0,0.3,0,0.5,0,0.8c-0.3-0.8-0.7-1.5-1.2-2.1c-0.6-0.8-1.3-1.5-2.1-2c-0.6-0.4-1.2-0.7-1.7-0.9
			c-0.5-0.2-1-0.3-1.4-0.3c-0.4,0-0.9,0-1.3,0c-0.4,0-0.9,0.1-1.4,0.2c-0.5,0.1-1.1,0.3-1.7,0.6c-0.3,0.1-0.6,0.3-1,0.5
			c-0.3,0.2-0.7,0.5-1,0.7c-0.3,0.3-0.7,0.7-1,1.1c-0.3,0.4-0.6,0.9-0.9,1.4c-0.1,0.3-0.3,0.6-0.4,0.9c-0.1,0.1-0.1,0.3-0.1,0.5
			c0,0.2-0.1,0.3-0.1,0.5c0,0.1,0,0.1,0,0.2c0,0,0,0.1,0,0.1c-0.1,0.7-0.1,1.4,0,1.9c0.1,0.6,0.3,1.1,0.6,1.6
			c0.3,0.4,0.6,0.8,0.9,1.1c0.3,0.3,0.6,0.5,0.9,0.7c0.3,0.2,0.5,0.3,0.7,0.3c0.2,0.1,0.4,0.1,0.5,0.2c0.1,0,0.2,0,0.2,0
			c0,0,0-0.1-0.1-0.1c-0.1-0.1-0.2-0.1-0.4-0.2c-0.2-0.1-0.4-0.2-0.7-0.4c-0.3-0.2-0.5-0.4-0.8-0.7c-0.2-0.3-0.5-0.6-0.7-1.1
			c-0.2-0.4-0.4-0.9-0.5-1.4c-0.1-0.5-0.1-1.1,0-1.7c0-0.1,0.1-0.3,0.1-0.5c0.1-0.2,0.1-0.3,0.2-0.5c0.1-0.3,0.3-0.6,0.5-0.9
			c0.4-0.6,0.9-1.2,1.5-1.6c0.6-0.5,1.3-0.8,2.1-1.1c0.8-0.2,1.7-0.3,2.5-0.1c0.2,0,0.4,0.1,0.6,0.1c0.1,0,0.2,0.1,0.3,0.1
			c0.1,0,0.2,0.1,0.3,0.1c0.4,0.2,0.9,0.4,1.3,0.6c0.8,0.5,1.6,1.2,2.2,2c0.6,0.8,1.1,1.7,1.3,2.8c0.3,1,0.3,2.1,0.1,3.2
			c0,0.3-0.1,0.5-0.2,0.8c0,0.1,0,0.1-0.1,0.2c0,0.1,0,0.1-0.1,0.2c0,0.1-0.1,0.3-0.1,0.4c-0.2,0.6-0.4,1.1-0.7,1.6
			c-0.6,1-1.3,1.9-2.2,2.6c-0.8,0.7-1.8,1.3-2.8,1.7c-1,0.4-2.1,0.6-3.1,0.7c-1,0.1-2.1,0-3-0.2c-0.1,0-0.2-0.1-0.4-0.1
			c-0.1,0-0.1,0-0.2,0l-0.2-0.1c-0.2-0.1-0.5-0.2-0.7-0.2c-0.5-0.2-0.9-0.4-1.4-0.6c-0.1,0-0.1-0.1-0.2-0.1c0.1-0.4,0.2-0.9,0.2-1.4
			c0.1-1.1,0.2-2.2,0.1-3.4c-0.1-1.2-0.3-2.4-0.7-3.6c-0.4-1.2-0.9-2.4-1.5-3.4c-0.6-1-1.3-2-2-2.8c-0.7-0.8-1.5-1.5-2.2-2.1
			c-0.8-0.6-1.5-1.1-2.2-1.5c-0.7-0.4-1.4-0.7-2-0.9c-0.6-0.2-1.2-0.3-1.6-0.4c-0.1,0-0.2,0-0.3,0c-1.3-0.5-2.7-0.7-4-0.9
			c-1.7-0.2-3.3-0.1-4.9,0.1c-1.6,0.2-3.1,0.6-4.5,1.1c-1.4,0.5-2.7,1.1-3.8,1.8c-1.2,0.7-2.2,1.5-3.2,2.4c-0.7,0.6-1.3,1.2-1.8,1.8
			c-0.2,0-0.5,0-0.8,0c-0.6,0-1.1,0-1.5-0.2c-0.5-0.1-0.9-0.3-1.2-0.5c-0.4-0.2-0.7-0.4-0.9-0.7c0,0-0.1-0.1-0.1-0.1
			c0,0-0.1-0.1-0.1-0.1c-0.1-0.1-0.1-0.1-0.2-0.2c0.1-0.2,0.2-0.3,0.3-0.5c0.1-0.3,0.2-0.5,0.3-0.8c0.1-0.3,0.1-0.6,0.1-0.8
			c0-0.3,0-0.6-0.1-0.8c0-0.3-0.1-0.5-0.2-0.8c-0.1-0.3-0.3-0.6-0.5-0.9c0.1-0.1,0.1-0.2,0.2-0.2c0.1-0.1,0.1-0.1,0.2-0.2
			c0,0,0,0,0-0.1c0,0,0,0,0,0c0,0,0.1-0.1,0.1-0.1c0.1-0.1,0.3-0.2,0.5-0.3c0.2-0.1,0.4-0.2,0.6-0.3c0.3-0.1,0.6-0.1,0.8-0.1
			c0.3,0,0.5,0.1,0.8,0.2c0.2,0.1,0.5,0.3,0.6,0.4c0,0,0,0,0.1,0.1c0,0,0,0,0.1,0.1c0,0,0.1,0.1,0.1,0.1c0.1,0.1,0.1,0.2,0.1,0.3
			c0.1,0.2,0.1,0.4,0.1,0.6c0,0.2,0,0.4-0.1,0.5c-0.1,0.2-0.1,0.3-0.2,0.4c0,0-0.1,0.1-0.1,0.1c0,0,0,0,0,0l0,0h0l0,0l0,0l0,0l0,0h0
			l0,0l0,0l0,0c0,0,0,0,0,0c-0.1,0-0.2,0.1-0.3,0.1c-0.1,0-0.2,0-0.2,0c-0.1,0-0.1,0-0.2,0c-0.1,0-0.1,0-0.2,0c-0.1,0-0.1,0-0.2,0
			c-0.1,0-0.1,0.1-0.2,0.1c-0.1,0-0.2,0.1-0.2,0.2c-0.1,0.1-0.2,0.2-0.2,0.3c-0.1,0.1-0.1,0.2-0.1,0.4c0,0.1,0.1,0.3,0.2,0.4
			c0.1,0.1,0.3,0.2,0.4,0.3c0.2,0.1,0.5,0.1,0.7,0.1c0.3,0,0.6,0,0.9-0.2c0.1-0.1,0.3-0.1,0.4-0.2c0.1-0.1,0.3-0.2,0.4-0.4
			c0,0,0.1-0.1,0.1-0.1l0,0l0,0l0,0v0h0l0,0l0,0l0,0c0,0,0,0,0,0c0,0,0.1-0.1,0.1-0.1c0.1-0.2,0.2-0.3,0.2-0.5
			c0.1-0.3,0.2-0.7,0.1-1.1c0-0.4-0.1-0.8-0.3-1.1c-0.1-0.2-0.2-0.3-0.3-0.5c-0.1-0.1-0.3-0.3-0.4-0.4c-0.1,0-0.1-0.1-0.2-0.2
			c-0.1,0-0.2-0.1-0.3-0.1c-0.1-0.1-0.3-0.2-0.5-0.2c-0.4-0.1-0.7-0.2-1.1-0.1c-0.4,0-0.7,0.1-1.1,0.2c-0.4,0.1-0.7,0.3-0.9,0.6
			c-0.1,0.1-0.1,0.1-0.2,0.2C76,90.9,75.9,91,75.8,91c-0.1,0.1-0.2,0.2-0.3,0.3c-0.1-0.1-0.2-0.2-0.3-0.3c-0.1-0.1-0.1-0.1-0.2-0.2
			c-0.1-0.1-0.1-0.1-0.2-0.2c-0.3-0.2-0.6-0.4-0.9-0.6c-0.3-0.1-0.7-0.2-1.1-0.2c-0.4,0-0.7,0-1.1,0.1c-0.2,0-0.4,0.1-0.5,0.2
			c-0.1,0-0.2,0.1-0.2,0.1c-0.1,0-0.2,0.1-0.2,0.2c-0.2,0.1-0.3,0.2-0.4,0.4c-0.1,0.1-0.2,0.3-0.3,0.5c-0.2,0.3-0.3,0.7-0.3,1.1
			c0,0.4,0,0.7,0.1,1.1c0.1,0.2,0.1,0.3,0.2,0.5c0,0,0,0.1,0.1,0.1c0,0,0,0,0,0.1l0,0c0,0,0,0,0,0l0,0l0,0l0,0l0,0l0,0l0,0
			c0,0,0.1,0.1,0.1,0.1c0.1,0.1,0.3,0.3,0.4,0.4c0.1,0.1,0.3,0.2,0.4,0.2c0.3,0.1,0.6,0.2,0.9,0.2c0.3,0,0.5,0,0.7-0.1
			c0.2-0.1,0.4-0.2,0.5-0.3c0.1-0.1,0.1-0.3,0.1-0.4c0-0.1,0-0.3-0.1-0.4c-0.1-0.1-0.1-0.2-0.2-0.3c-0.1-0.1-0.1-0.1-0.2-0.2
			c-0.1,0-0.1-0.1-0.2-0.1c-0.1,0-0.1,0-0.2,0c-0.1,0-0.1,0-0.2,0c-0.1,0-0.1,0-0.2,0c-0.1,0-0.1,0-0.2,0c-0.1,0-0.2,0-0.3-0.1
			c0,0,0,0,0,0l0,0l0,0l0,0l0,0l0,0l0,0l0,0l0,0l0,0h0c0,0,0,0,0,0c0,0-0.1-0.1-0.1-0.1c-0.1-0.1-0.2-0.3-0.2-0.4
			c-0.1-0.2-0.1-0.3-0.1-0.5c0-0.2,0-0.4,0.1-0.6c0-0.1,0.1-0.2,0.1-0.3c0,0,0.1-0.1,0.1-0.1c0,0,0-0.1,0-0.1c0,0,0,0,0.1-0.1
			c0.2-0.2,0.4-0.3,0.6-0.4c0.3-0.1,0.5-0.2,0.8-0.2c0.3,0,0.6,0,0.8,0.1c0.2,0.1,0.4,0.2,0.6,0.3c0.2,0.1,0.3,0.2,0.5,0.3
			c0,0,0.1,0.1,0.1,0.1c0,0,0,0,0,0c0,0,0,0,0,0.1c0.1,0.1,0.1,0.1,0.2,0.2c0.1,0.1,0.1,0.1,0.2,0.2c-0.2,0.3-0.3,0.6-0.5,0.9
			c-0.1,0.2-0.2,0.5-0.2,0.8c0,0.3-0.1,0.6,0,0.8c0,0.3,0,0.6,0.1,0.8c0.1,0.3,0.2,0.6,0.3,0.8c0.1,0.2,0.2,0.4,0.3,0.5
			c0,0.1-0.1,0.1-0.2,0.2c0,0-0.1,0.1-0.1,0.1c0,0-0.1,0.1-0.1,0.1c-0.3,0.3-0.6,0.5-0.9,0.7c-0.4,0.2-0.8,0.4-1.2,0.5
			c-0.5,0.1-1,0.2-1.5,0.2c-0.3,0-0.6,0-0.8,0c-0.6-0.6-1.1-1.2-1.8-1.8c-0.9-0.8-2-1.7-3.2-2.4c-1.2-0.7-2.5-1.3-3.9-1.8
			c-1.4-0.5-2.9-0.9-4.5-1.1c-1.6-0.2-3.2-0.2-4.9-0.1c-1.3,0.1-2.7,0.4-4,0.9c-0.1,0-0.2,0-0.3,0c-0.4,0.1-1,0.2-1.6,0.4
			c-0.6,0.2-1.3,0.5-2,0.9c-0.7,0.4-1.5,0.9-2.2,1.5c-0.8,0.6-1.5,1.3-2.2,2.1c-0.7,0.8-1.4,1.8-2,2.8c-0.6,1-1.1,2.2-1.5,3.4
			c-0.4,1.2-0.6,2.4-0.7,3.6c-0.1,1.2-0.1,2.3,0.1,3.4c0.1,0.5,0.1,0.9,0.3,1.4c-0.1,0-0.1,0.1-0.2,0.1c-0.4,0.2-0.9,0.4-1.4,0.6
			c-0.2,0.1-0.5,0.2-0.7,0.2l-0.2,0.1c-0.1,0-0.1,0-0.2,0c-0.1,0-0.2,0.1-0.4,0.1c-1,0.2-2,0.3-3,0.2c-1-0.1-2.1-0.3-3.1-0.7
			c-1-0.4-2-1-2.8-1.7c-0.8-0.7-1.6-1.6-2.1-2.6c-0.3-0.5-0.5-1-0.7-1.6c-0.1-0.1-0.1-0.3-0.1-0.4c0-0.1,0-0.1-0.1-0.2
			c0-0.1,0-0.1-0.1-0.2c-0.1-0.3-0.1-0.5-0.2-0.8c-0.2-1.1-0.1-2.1,0.1-3.2c0.3-1,0.7-1.9,1.3-2.8c0.6-0.8,1.3-1.5,2.2-2
			c0.4-0.2,0.8-0.5,1.3-0.6c0.1,0,0.2-0.1,0.3-0.1c0.1,0,0.2-0.1,0.3-0.1c0.2-0.1,0.4-0.1,0.6-0.1c0.9-0.1,1.7-0.1,2.5,0.1
			c0.8,0.2,1.5,0.6,2.1,1.1c0.6,0.5,1.1,1,1.5,1.6c0.2,0.3,0.3,0.6,0.5,0.9c0.1,0.2,0.1,0.3,0.2,0.5c0,0.1,0.1,0.3,0.1,0.5
			c0.1,0.6,0.1,1.2,0,1.7c-0.1,0.6-0.2,1-0.5,1.4c-0.2,0.4-0.5,0.8-0.7,1.1c-0.3,0.3-0.5,0.5-0.8,0.7c-0.3,0.2-0.5,0.3-0.7,0.4
			c-0.2,0.1-0.3,0.2-0.4,0.2c-0.1,0-0.1,0.1-0.1,0.1c0,0,0.1,0,0.2,0c0.1,0,0.3-0.1,0.5-0.2c0.2-0.1,0.4-0.2,0.7-0.3
			c0.3-0.2,0.6-0.4,0.9-0.7c0.3-0.3,0.6-0.7,0.9-1.1c0.3-0.4,0.5-1,0.6-1.6c0.1-0.6,0.1-1.2,0-1.9c0,0,0-0.1,0-0.1
			c0-0.1,0-0.1,0-0.2c0-0.2-0.1-0.3-0.1-0.5c0-0.2-0.1-0.3-0.1-0.5c-0.1-0.3-0.2-0.6-0.4-0.9c-0.3-0.5-0.6-1-0.9-1.4
			c-0.3-0.4-0.7-0.8-1-1.1c-0.4-0.3-0.7-0.5-1-0.7c-0.3-0.2-0.7-0.4-1-0.5c-0.6-0.3-1.2-0.5-1.7-0.6c-0.5-0.1-0.9-0.2-1.4-0.2
			c-0.4,0-0.9,0-1.3,0c-0.4,0-0.9,0.1-1.4,0.3c-0.5,0.2-1.1,0.5-1.7,0.9c-0.8,0.5-1.5,1.2-2.1,2c-0.5,0.6-0.9,1.4-1.1,2.1
			c0-0.3,0-0.5,0-0.8c0-0.4-0.1-0.9-0.2-1.3c-0.1-0.4-0.3-0.9-0.6-1.3c-0.3-0.4-0.6-0.8-1-1.1c-0.4-0.3-0.9-0.6-1.3-0.8
			c-0.1-0.1-0.2-0.1-0.4-0.1l0,0l0,0c0,0-0.1,0-0.1,0c-0.1,0-0.1,0-0.2,0c-0.3,0-0.5-0.1-0.8-0.1c-0.3,0-0.5,0.1-0.8,0.1
			c-0.2,0.1-0.5,0.1-0.7,0.3c-0.2,0.1-0.5,0.3-0.7,0.4c-0.2,0.2-0.4,0.3-0.5,0.6c-0.2,0.3-0.4,0.6-0.5,0.9c-0.1,0.2-0.1,0.3-0.2,0.5
			c0,0.1,0,0.2-0.1,0.2c0,0.1,0,0.2,0,0.3c-0.1,0.3-0.1,0.7,0,1c0,0.3,0.1,0.7,0.3,1c0.2,0.3,0.4,0.6,0.6,0.8
			c0.1,0.1,0.3,0.2,0.4,0.3c0.1,0.1,0.1,0.1,0.2,0.1c0.1,0,0.1,0.1,0.2,0.1c0.2,0.1,0.3,0.1,0.5,0.2c0.2,0,0.4,0,0.5,0
			c0.4,0,0.7-0.1,1-0.2c0.3-0.1,0.6-0.4,0.8-0.6c0.1-0.1,0.2-0.3,0.3-0.4c0,0,0.1-0.1,0.1-0.1c0,0,0,0,0,0l0-0.1l0,0l0,0l0,0l0,0
			l0,0l0,0c0,0,0,0,0,0c0,0,0-0.1,0-0.1c0-0.2,0.1-0.3,0.1-0.5c0-0.1,0-0.3,0-0.5c0-0.3-0.1-0.6-0.2-0.8c-0.1-0.2-0.3-0.4-0.5-0.5
			c-0.2-0.1-0.3-0.2-0.5-0.2c-0.1,0-0.3,0-0.4,0c-0.1,0.1-0.2,0.1-0.3,0.3c-0.1,0.1-0.1,0.2-0.1,0.3c0,0.1,0,0.2,0,0.3
			c0,0.1,0,0.1,0,0.2c0,0.1,0,0.1,0,0.2c0,0.1,0,0.1,0.1,0.2c0,0.1,0.1,0.1,0.1,0.2c0,0.1,0.1,0.1,0.1,0.2c0,0.1,0,0.1,0,0.3v0v0
			l0,0l0,0v0l0,0l0,0v0v0h0c0,0,0,0,0,0c0,0.1,0,0.1-0.1,0.2c0,0.1-0.1,0.3-0.2,0.4c-0.1,0.1-0.2,0.2-0.4,0.3
			c-0.2,0.1-0.3,0.1-0.5,0.2c-0.1,0-0.2,0-0.3,0c-0.1,0-0.1,0-0.1,0c0,0-0.1,0-0.1,0c0,0,0,0-0.1,0c-0.2-0.1-0.4-0.2-0.6-0.3
			c-0.2-0.1-0.4-0.3-0.5-0.5c-0.1-0.2-0.2-0.5-0.3-0.7c0-0.2-0.1-0.4,0-0.6c0-0.2,0-0.4,0-0.6c0,0,0-0.1,0-0.1c0,0,0,0,0,0
			c0,0,0-0.1,0-0.1c0-0.1,0-0.2,0.1-0.3c0.1-0.2,0.1-0.3,0.2-0.5c0.1-0.2,0.2-0.3,0.3-0.5c0.1-0.1,0.2-0.3,0.3-0.4
			c0.1-0.1,0.3-0.3,0.5-0.4c0.2-0.1,0.4-0.2,0.6-0.3c0.2-0.1,0.4-0.2,0.7-0.2c0.3-0.1,0.5-0.1,0.8-0.1c0.1,0,0.3,0,0.5,0
			c0.1,0,0.2,0,0.2,0c0,0,0.1,0,0.1,0c0,0,0.1,0,0.1,0c0.3,0.1,0.7,0.2,1,0.4c0.3,0.2,0.7,0.4,1,0.8c0.3,0.3,0.6,0.7,0.9,1.1
			c0.2,0.5,0.4,1,0.5,1.5c0,0.3,0.1,0.6,0.1,0.9c0,0.3,0,0.6-0.1,0.9c-0.3,0.9-0.4,1.9-0.4,2.9c0,1,0.2,2,0.5,3
			c0.1,0.2,0.2,0.5,0.3,0.7c0.1,0.2,0.2,0.5,0.3,0.7c0.2,0.5,0.5,0.9,0.8,1.3c0.6,0.9,1.3,1.7,2.1,2.4c0.7,0.7,1.6,1.3,2.5,1.8
			c0.5,0.3,1,0.5,1.5,0.7c1.1,0.4,2.2,0.7,3.4,0.8c1.1,0.1,2.3,0,3.3-0.3c0.3-0.1,0.5-0.1,0.8-0.2c0.3-0.1,0.5-0.2,0.8-0.3
			c0.5-0.2,1-0.4,1.4-0.7c0.1,0.3,0.2,0.6,0.3,0.8c0.3,0.9,0.8,1.7,1.2,2.4c0.4,0.7,0.9,1.3,1.4,1.7c0.5,0.5,0.9,0.8,1.2,1.1
			c0.1,0.1,0.1,0.1,0.2,0.2c0.4,0.4,0.9,0.8,1.3,1.2c1.4,1.1,3,1.9,4.6,2.4c1.6,0.5,3.3,0.7,4.9,0.6c0.2,0,0.4,0,0.6,0
			c0.2,0,0.4,0,0.6-0.1c0.4-0.1,0.8-0.1,1.2-0.2c0.7-0.2,1.5-0.5,2.1-0.8c1.4-0.7,2.5-1.6,3.4-2.7c0.9-1.1,1.6-2.2,2.1-3.4
			c0.4-1.2,0.7-2.4,0.7-3.6c0-0.5,0-0.9,0-1.4c0-0.1,0.1-0.2,0.1-0.3c0.1-0.4,0.1-1,0-1.6c-0.1-0.7-0.3-1.5-0.8-2.3
			c-0.4-0.8-1.1-1.7-1.9-2.4c-0.8-0.7-1.8-1.2-2.6-1.5c-0.9-0.3-1.7-0.4-2.4-0.4c-0.7,0-1.2,0.1-1.6,0.3c-0.4,0.1-0.6,0.3-0.5,0.5
			c0,0.2,0.2,0.3,0.6,0.4c0.3,0.1,0.8,0.3,1.4,0.4c0.6,0.2,1.2,0.4,1.9,0.8c0.7,0.3,1.3,0.8,2,1.3c0.6,0.6,1.2,1.2,1.6,1.8
			c0.4,0.6,0.8,1.2,1,1.7c0.3,0.5,0.4,1,0.6,1.3c0,0,0,0.1,0.1,0.1c0,0.5,0,1,0,1.5c-0.1,1.1-0.3,2.2-0.7,3.3
			c-0.4,1.1-1.1,2.2-1.9,3.1c-0.9,1-1.9,1.8-3.2,2.4c0,0-0.1,0-0.1,0c0.2-0.1,0.4-0.3,0.6-0.4c0.3-0.2,0.6-0.5,0.9-0.8
			c0.3-0.3,0.6-0.6,0.8-1c0.3-0.4,0.5-0.8,0.7-1.3c0.2-0.5,0.4-1,0.5-1.5c0.1-0.5,0.2-1.1,0.2-1.7c0-0.3,0-0.6-0.1-0.9
			c0-0.1,0-0.3-0.1-0.4c0-0.1-0.1-0.3-0.1-0.4c-0.1-0.6-0.4-1.2-0.7-1.7c-0.3-0.5-0.8-1-1.3-1.5c-0.2-0.2-0.5-0.4-0.8-0.5
			c-0.5-0.3-1-0.6-1.5-0.8c-0.6-0.2-1.1-0.3-1.7-0.4c-0.3,0-0.6,0-0.9,0c-0.1,0-0.3,0-0.4,0c-0.1,0-0.3,0-0.4,0.1
			c-0.6,0.1-1.1,0.3-1.6,0.5c-0.5,0.3-1,0.6-1.3,1c-0.4,0.4-0.7,0.8-1,1.4c-0.2,0.5-0.4,1-0.4,1.6c0,0.4,0,0.8,0,1.1
			c0,0.3,0.1,0.6,0.2,0.8c0.1,0.2,0.2,0.5,0.3,0.7c0.1,0.2,0.3,0.4,0.5,0.6c0.2,0.2,0.4,0.4,0.7,0.7c0.2,0.1,0.3,0.2,0.5,0.3
			c0.2,0.1,0.4,0.2,0.6,0.3c0.2,0.1,0.5,0.2,0.8,0.2c0.3,0,0.6,0.1,0.9,0.1c0.2,0,0.4,0,0.5,0c0.1,0,0.2,0,0.3-0.1
			c0.1,0,0.2,0,0.3-0.1c0,0,0.1,0,0.1,0c0,0,0,0,0,0c0.4-0.1,0.7-0.3,1-0.5c0.3-0.2,0.5-0.5,0.6-0.7c0.2-0.2,0.2-0.5,0.3-0.7
			c0.1-0.2,0.1-0.4,0.1-0.6c0-0.2,0-0.3,0-0.4c0-0.1,0-0.2-0.1-0.3c0,0,0-0.1,0-0.1s0,0,0,0.1c0,0.1,0,0.1,0,0.3c0,0.1,0,0.3,0,0.4
			c0,0.2-0.1,0.4-0.1,0.6c-0.1,0.2-0.2,0.4-0.3,0.6c-0.1,0.2-0.3,0.4-0.6,0.6c-0.2,0.2-0.5,0.3-0.8,0.4c-0.1,0-0.2,0-0.3,0.1
			c-0.1,0-0.2,0-0.3,0c-0.2,0-0.4,0-0.6,0c-0.4,0-0.8-0.1-1.2-0.3c-0.4-0.2-0.8-0.4-1.1-0.8c-0.3-0.3-0.6-0.7-0.7-1.2
			c0-0.1-0.1-0.2-0.1-0.4c0-0.1,0-0.1,0-0.2c0-0.1,0-0.1,0-0.2c0-0.3,0-0.5,0-0.8c0-0.5,0.2-1.1,0.4-1.6c0.2-0.5,0.6-1,1-1.4
			c0.4-0.4,1-0.7,1.5-0.9c0.1,0,0.3-0.1,0.4-0.1c0,0,0.1,0,0.1,0c0,0,0.1,0,0.1,0c0.1,0,0.1,0,0.2,0c0.3-0.1,0.6-0.1,1-0.1
			c0.7,0,1.3,0.1,1.9,0.4c0.6,0.2,1.1,0.5,1.6,0.9c0.5,0.4,0.9,0.8,1.2,1.3c0.3,0.5,0.6,1,0.7,1.6c0,0.1,0,0.1,0.1,0.2
			c0,0,0,0.1,0,0.1l0,0.1c0,0.1,0.1,0.3,0.1,0.4c0,0.3,0.1,0.6,0.1,0.8c0,0.5,0,1.1-0.1,1.6c-0.1,0.5-0.2,1-0.4,1.4
			c-0.2,0.4-0.4,0.8-0.6,1.2c-0.2,0.4-0.5,0.7-0.8,1c-0.3,0.3-0.6,0.5-0.8,0.8c-0.6,0.4-1.1,0.7-1.5,0.9c-0.4,0.2-0.8,0.3-1.1,0.4
			c0,0,0,0,0,0c-0.3,0.1-0.5,0.1-0.8,0.1c-0.2,0-0.4,0-0.5,0.1c-0.2,0-0.4,0-0.6,0c-1.5,0.1-3-0.1-4.5-0.6c-1.5-0.5-2.9-1.2-4.2-2.2
			c-0.5-0.4-1-0.9-1.5-1.4c-0.4-0.7-1-1.6-1.5-2.9c-0.3-0.7-0.5-1.4-0.7-2.2c-0.1-0.5-0.2-1-0.3-1.6c0.1-0.1,0.2-0.1,0.3-0.2
			c0.7-0.6,1.4-1.3,1.9-2c0.5-0.7,1-1.4,1.4-2.2c0.4-0.7,0.7-1.5,0.9-2.2c0.2-0.7,0.4-1.4,0.5-2.1c0.2-1.3,0.2-2.4,0.1-3.3
			c-0.1-0.8-0.2-1.5-0.4-1.9c0.8-0.8,1.5-1.5,2.3-2.1c1.1-0.8,2-1.4,2.8-1.9c1.4-0.5,2.8-0.8,4.1-1c1.6-0.2,3.2-0.1,4.6,0
			c1.5,0.2,2.9,0.5,4.3,1c1.4,0.5,2.6,1.1,3.7,1.7c1.1,0.7,2.2,1.4,3.1,2.2c0.9,0.8,1.7,1.6,2.4,2.4c0.6,0.7,1.1,1.5,1.6,2.2
			c-0.5,0.5-1,1-1.4,1.6c-0.5,0.6-0.9,1.4-1.2,2.1c-0.1,0.3-0.2,0.7-0.4,1c-0.3,0.1-0.7,0.2-1,0.3c-0.4,0.2-0.8,0.4-1.1,0.6
			c-0.3,0.2-0.6,0.4-0.9,0.7c-0.3,0.2-0.5,0.5-0.7,0.7c-0.4,0.4-0.7,0.9-0.9,1.2c-0.2,0.4-0.4,0.7-0.6,1.1c-0.1,0.4-0.3,0.7-0.3,1.1
			c-0.1,0.4-0.1,0.8-0.1,1.3c0,0.5,0.1,1,0.3,1.7c0.2,0.8,0.7,1.6,1.2,2.3c0.5,0.7,1.2,1.3,1.9,1.8c0.7,0.5,1.5,0.9,2.4,1.1
			c0.8,0.2,1.7,0.4,2.6,0.3c0.2,0,0.4,0,0.7,0c0.2,0,0.4-0.1,0.7-0.1c0.4-0.1,0.9-0.2,1.3-0.3c0.2-0.1,0.4-0.1,0.5-0.2
			c0,0.1,0.1,0.1,0.2,0.2c-0.1,0.1-0.2,0.2-0.3,0.3c-0.3,0.4-0.5,0.8-0.7,1.3c0,0.1-0.1,0.2-0.1,0.4l0,0l0,0c0,0,0,0.1,0,0.1
			c0,0.1,0,0.1,0,0.2c0,0.1,0,0.1,0,0.1c0-0.1-0.1-0.2-0.2-0.4c-0.1-0.2-0.3-0.3-0.5-0.4c-0.2-0.1-0.5-0.2-0.7-0.3
			c-0.1,0-0.3,0-0.4,0c-0.2,0-0.3,0-0.5,0.1c0,0-0.1,0-0.1,0c0,0,0,0-0.1,0l0,0l0,0v0h0l0,0h0l0,0c0,0,0,0,0,0c0,0-0.1,0-0.1,0
			c-0.1,0.1-0.3,0.2-0.4,0.3c-0.3,0.2-0.5,0.5-0.6,0.8c-0.2,0.3-0.3,0.6-0.3,1c0,0.2,0,0.3,0,0.5c0,0.2,0.1,0.3,0.1,0.5
			c0,0.1,0.1,0.1,0.1,0.2c0,0.1,0.1,0.1,0.1,0.2c0.1,0.1,0.2,0.3,0.3,0.4c0.2,0.3,0.5,0.5,0.8,0.6c0.3,0.1,0.6,0.3,0.9,0.3
			c0.1,0,0.3,0,0.4,0c0,0,0,0,0,0c-0.1,0.1-0.1,0.2-0.2,0.4c0,0.1-0.1,0.3-0.1,0.4c0,0.1,0,0.3,0,0.4c0,0.1,0,0.3,0.1,0.4
			c0,0.1,0.1,0.2,0.1,0.3c0.1,0.1,0.1,0.2,0.2,0.3c0.1,0.1,0.1,0.1,0.2,0.2c0.1,0,0.1,0.1,0.2,0.1l0,0c0.1,0,0.1,0.1,0.2,0.1
			c0.2,0.1,0.4,0.2,0.6,0.2c0.2,0,0.4,0,0.6,0c0,0,0,0,0,0c0,0,0.1,0,0.1,0c0,0,0.1,0,0.1,0c0.1,0,0.1-0.1,0.2-0.1
			c0.1-0.1,0.2-0.2,0.3-0.4c0.1,0.1,0.2,0.2,0.3,0.4c0.1,0,0.1,0.1,0.2,0.1c0,0,0.1,0,0.1,0c0,0,0,0,0.1,0s0,0,0,0
			c0.2,0.1,0.4,0.1,0.6,0c0.2,0,0.4-0.1,0.6-0.2c0,0,0.1-0.1,0.2-0.1c0,0,0,0,0,0c0.1,0,0.1-0.1,0.2-0.1c0.1,0,0.1-0.1,0.2-0.2
			c0.1-0.1,0.1-0.2,0.2-0.3c0.1-0.1,0.1-0.2,0.1-0.3c0-0.1,0.1-0.2,0.1-0.4c0-0.1,0-0.3,0-0.4c0-0.1-0.1-0.3-0.1-0.4
			c-0.1-0.1-0.1-0.2-0.2-0.4c0,0,0,0,0,0c0.1,0,0.3,0,0.4,0c0.3-0.1,0.6-0.2,0.9-0.3c0.3-0.2,0.5-0.4,0.8-0.6
			c0.1-0.1,0.2-0.3,0.3-0.4c0.1-0.1,0.1-0.1,0.1-0.2c0-0.1,0.1-0.1,0.1-0.2c0.1-0.2,0.1-0.3,0.1-0.5c0-0.2,0-0.3,0-0.5
			c0-0.3-0.1-0.7-0.3-1c-0.1-0.3-0.4-0.6-0.6-0.8c-0.1-0.1-0.3-0.2-0.4-0.3c0,0-0.1,0-0.1,0c0,0,0,0-0.1,0l0,0l0,0l0,0l0,0l0,0l0,0
			l0,0c0,0,0,0-0.1,0c0,0-0.1,0-0.1,0c-0.2,0-0.3-0.1-0.5-0.1c-0.1,0-0.3,0-0.4,0c-0.3,0-0.5,0.1-0.8,0.3c-0.2,0.1-0.4,0.3-0.5,0.4
			c-0.1,0.1-0.1,0.3-0.2,0.4c0,0,0-0.1,0-0.1c0-0.1,0-0.1,0-0.2c0,0,0-0.1,0-0.1l0-0.1l0,0c0-0.1-0.1-0.2-0.1-0.4
			c-0.2-0.5-0.4-0.9-0.7-1.3c-0.1-0.1-0.2-0.2-0.3-0.3c0-0.1,0.1-0.1,0.2-0.2c0.2,0.1,0.4,0.1,0.6,0.2c0.4,0.1,0.9,0.2,1.3,0.3
			c0.2,0,0.4,0.1,0.7,0.1c0.2,0,0.4,0,0.7,0c0.9,0,1.8-0.1,2.6-0.3c0.8-0.2,1.6-0.6,2.4-1.1c0.7-0.5,1.4-1.1,1.9-1.8
			c0.5-0.7,0.9-1.5,1.2-2.3c0.2-0.6,0.3-1.2,0.3-1.7c0-0.5,0-0.9-0.1-1.3c-0.1-0.4-0.2-0.7-0.3-1.1c-0.1-0.4-0.3-0.7-0.6-1.1
			c-0.2-0.4-0.5-0.8-0.9-1.2c-0.2-0.2-0.4-0.5-0.7-0.7c-0.3-0.2-0.6-0.5-0.9-0.7c-0.3-0.2-0.7-0.4-1.2-0.6c-0.3-0.1-0.6-0.2-1-0.3
			c-0.1-0.3-0.2-0.7-0.4-1c-0.3-0.8-0.8-1.5-1.2-2.1c-0.4-0.6-0.9-1.1-1.4-1.6c0.5-0.7,1-1.4,1.6-2.2c0.7-0.8,1.5-1.7,2.4-2.4
			c0.9-0.8,1.9-1.5,3.1-2.2c1.1-0.7,2.4-1.2,3.7-1.7c1.3-0.4,2.8-0.8,4.3-1c1.5-0.2,3.1-0.2,4.6,0c1.4,0.1,2.8,0.5,4.1,1
			c0.7,0.4,1.7,1,2.8,1.9c0.7,0.6,1.5,1.3,2.3,2.1c-0.1,0.4-0.3,1.1-0.4,1.9c-0.1,0.9-0.1,2,0.1,3.3c0.1,0.7,0.2,1.3,0.5,2.1
			c0.2,0.7,0.5,1.4,0.9,2.2c0.4,0.7,0.8,1.5,1.4,2.2c0.6,0.7,1.2,1.4,1.9,2c0.1,0.1,0.2,0.1,0.3,0.2c-0.1,0.5-0.2,1.1-0.3,1.6
			c-0.2,0.8-0.5,1.5-0.7,2.2c-0.5,1.2-1.1,2.2-1.5,2.9c-0.5,0.5-1,1-1.5,1.4c-1.3,1-2.7,1.8-4.2,2.2c-1.5,0.5-3,0.7-4.5,0.6
			c-0.2,0-0.4,0-0.6,0c-0.2,0-0.4,0-0.5-0.1c-0.3,0-0.5-0.1-0.8-0.1l0,0c-0.2-0.1-0.6-0.2-1.1-0.4c-0.4-0.2-1-0.5-1.5-0.9
			c-0.3-0.2-0.5-0.5-0.8-0.8c-0.3-0.3-0.5-0.6-0.8-1c-0.2-0.4-0.5-0.8-0.6-1.2c-0.2-0.4-0.3-0.9-0.4-1.4c-0.1-0.5-0.2-1-0.1-1.6
			c0-0.3,0-0.6,0.1-0.8c0-0.1,0-0.3,0.1-0.4l0-0.1c0,0,0-0.1,0-0.1c0-0.1,0-0.1,0-0.2c0.1-0.5,0.4-1.1,0.7-1.6
			c0.3-0.5,0.7-0.9,1.2-1.3c0.5-0.4,1-0.7,1.6-0.9c0.6-0.2,1.2-0.3,1.8-0.4c0.3,0,0.6,0,1,0.1c0.1,0,0.1,0,0.2,0c0,0,0.1,0,0.1,0
			c0,0,0.1,0,0.1,0c0.1,0,0.3,0.1,0.4,0.1c0.6,0.2,1.1,0.5,1.5,0.9c0.4,0.4,0.8,0.9,1,1.4c0.2,0.5,0.4,1.1,0.4,1.6
			c0,0.3,0,0.5,0,0.8c0,0.1,0,0.1,0,0.2c0,0.1,0,0.1,0,0.2c0,0.1-0.1,0.3-0.1,0.4c-0.2,0.5-0.4,0.9-0.7,1.2
			c-0.3,0.3-0.7,0.6-1.1,0.8c-0.4,0.2-0.8,0.3-1.2,0.3c-0.2,0-0.4,0-0.6,0c-0.1,0-0.2,0-0.3,0c-0.1,0-0.2,0-0.2-0.1
			c-0.3-0.1-0.6-0.2-0.8-0.4c-0.2-0.2-0.4-0.4-0.6-0.6c-0.2-0.2-0.3-0.4-0.3-0.6c-0.1-0.2-0.1-0.4-0.1-0.6c0-0.2,0-0.3,0-0.4
			c0-0.1,0-0.2,0-0.3c0-0.1,0-0.1,0-0.1s0,0-0.1,0.1c0,0.1,0,0.1-0.1,0.3c0,0.1,0,0.3,0,0.4c0,0.2,0,0.4,0.1,0.6
			c0.1,0.2,0.2,0.5,0.3,0.7c0.1,0.2,0.4,0.5,0.6,0.7c0.3,0.2,0.6,0.4,0.9,0.5c0,0,0,0,0.1,0c0,0,0.1,0,0.1,0c0.1,0,0.2,0,0.3,0.1
			c0.1,0,0.2,0,0.3,0.1c0.2,0,0.3,0,0.5,0c0.3,0,0.7,0,0.9-0.1c0.3-0.1,0.6-0.1,0.8-0.2c0.2-0.1,0.4-0.2,0.6-0.3
			c0.2-0.1,0.4-0.2,0.5-0.3c0.3-0.2,0.5-0.5,0.7-0.7c0.2-0.2,0.3-0.4,0.5-0.6c0.1-0.2,0.2-0.4,0.3-0.7c0.1-0.2,0.2-0.5,0.2-0.8
			c0-0.3,0.1-0.7,0-1.1c-0.1-0.6-0.2-1.1-0.4-1.6c-0.2-0.5-0.6-1-0.9-1.4c-0.4-0.4-0.8-0.7-1.3-1c-0.5-0.3-1-0.4-1.6-0.5
			c-0.1,0-0.3,0-0.4-0.1c-0.1,0-0.3,0-0.4,0c-0.3,0-0.6,0-0.9,0c-0.6,0.1-1.2,0.2-1.7,0.4c-0.5,0.2-1,0.5-1.5,0.8
			c-0.3,0.2-0.5,0.4-0.8,0.5c-0.5,0.4-0.9,0.9-1.3,1.5c-0.3,0.5-0.6,1.1-0.7,1.7c0,0.1-0.1,0.3-0.1,0.4c0,0.2,0,0.3-0.1,0.4
			c0,0.3-0.1,0.6-0.1,0.9c0,0.6,0.1,1.1,0.2,1.7c0.1,0.5,0.3,1,0.5,1.5c0.2,0.5,0.4,0.9,0.7,1.3c0.3,0.4,0.6,0.7,0.8,1
			c0.3,0.3,0.6,0.6,0.9,0.8c0.2,0.2,0.4,0.3,0.6,0.4c0,0-0.1,0-0.1,0c-1.3-0.6-2.3-1.4-3.2-2.4c-0.9-1-1.5-2-1.9-3.1
			c-0.4-1.1-0.7-2.2-0.7-3.3c0-0.5,0-1,0-1.5c0,0,0-0.1,0.1-0.1c0.2-0.3,0.3-0.8,0.6-1.3c0.3-0.5,0.6-1.1,1-1.7
			c0.4-0.6,1-1.2,1.6-1.8c0.6-0.5,1.3-1,2-1.3c0.7-0.3,1.3-0.6,1.9-0.8c0.5-0.2,1-0.3,1.4-0.4c0.3-0.1,0.5-0.2,0.6-0.4
			c0-0.1-0.2-0.3-0.6-0.5c-0.4-0.1-0.9-0.3-1.6-0.3c-0.7,0-1.5,0.1-2.4,0.4c-0.9,0.3-1.8,0.8-2.6,1.5c-0.8,0.7-1.5,1.6-1.9,2.4
			c-0.4,0.8-0.7,1.6-0.8,2.3c-0.1,0.7-0.1,1.3,0,1.6c0,0.1,0.1,0.2,0.1,0.3c0,0.5-0.1,0.9,0,1.4c0,1.1,0.3,2.4,0.7,3.6
			c0.4,1.2,1.1,2.4,2.1,3.4c0.9,1,2.1,2,3.4,2.7c0.7,0.3,1.4,0.6,2.2,0.8c0.4,0.1,0.8,0.2,1.2,0.2c0.2,0,0.4,0.1,0.6,0.1
			c0.2,0,0.4,0,0.6,0c1.6,0.1,3.3-0.1,4.9-0.6c1.6-0.5,3.2-1.3,4.6-2.4c0.5-0.4,0.9-0.8,1.3-1.2c0.1-0.1,0.1-0.1,0.2-0.2
			c0.4-0.3,0.8-0.6,1.2-1.1c0.4-0.5,0.9-1.1,1.3-1.7c0.5-0.7,0.9-1.5,1.2-2.4c0.1-0.3,0.2-0.5,0.3-0.8l0,0c0.5,0.3,0.9,0.5,1.4,0.7
			c0.2,0.1,0.5,0.2,0.8,0.3c0.3,0.1,0.5,0.2,0.8,0.2c1.1,0.3,2.2,0.4,3.3,0.3c1.1-0.1,2.3-0.3,3.4-0.8c0.5-0.2,1-0.5,1.5-0.7
			c0.9-0.5,1.8-1.1,2.5-1.8c0.8-0.7,1.5-1.5,2.1-2.4c0.3-0.4,0.5-0.9,0.8-1.3c0.1-0.2,0.2-0.5,0.3-0.7c0.1-0.2,0.2-0.5,0.3-0.7
			c0.3-1,0.5-2,0.5-3c0-1-0.1-1.9-0.4-2.9c-0.1-0.3-0.1-0.6-0.1-0.9c0-0.3,0-0.6,0.1-0.9c0.1-0.6,0.3-1.1,0.5-1.5
			c0.2-0.4,0.5-0.8,0.9-1.1c0.3-0.3,0.7-0.6,1-0.8c0.3-0.2,0.7-0.3,1-0.4c0,0,0.1,0,0.1,0c0,0,0.1,0,0.1,0c0.1,0,0.1,0,0.2,0
			c0.2,0,0.3,0,0.5,0c0.3,0,0.6,0,0.8,0.1c0.3,0.1,0.5,0.1,0.7,0.2c0.2,0.1,0.4,0.2,0.6,0.3c0.2,0.1,0.3,0.3,0.4,0.4
			c0.1,0.1,0.3,0.3,0.4,0.4c0.1,0.2,0.2,0.3,0.3,0.5c0.1,0.2,0.1,0.3,0.2,0.5c0,0.1,0.1,0.2,0.1,0.3c0,0,0,0,0,0.1l0,0
			c0,0.1,0,0.1,0,0.2c0,0.2,0.1,0.4,0.1,0.6c0,0.2,0,0.4-0.1,0.6c0,0.3-0.2,0.5-0.3,0.7c-0.1,0.2-0.3,0.4-0.5,0.5
			c-0.2,0.1-0.4,0.3-0.6,0.3c0,0-0.1,0-0.1,0c0,0-0.1,0-0.1,0c0,0-0.1,0-0.1,0c-0.1,0-0.2,0-0.3,0c-0.2,0-0.4-0.1-0.5-0.2
			c-0.2-0.1-0.3-0.2-0.4-0.3c-0.1-0.1-0.2-0.2-0.2-0.4c0-0.1,0-0.1-0.1-0.2c0,0,0,0,0-0.1l0,0v0l0,0l0,0l0,0v0l0,0l0,0v0v0
			c0-0.1,0-0.2,0-0.3c0-0.1,0-0.1,0.1-0.2c0-0.1,0-0.1,0.1-0.2c0,0,0-0.1,0.1-0.2c0-0.1,0-0.1,0-0.2c0-0.1,0-0.1,0-0.2
			c0-0.1,0-0.2,0-0.3c0-0.1,0-0.2-0.1-0.3c-0.1-0.1-0.1-0.2-0.3-0.3c-0.1,0-0.2-0.1-0.4,0c-0.1,0-0.3,0.1-0.5,0.2
			c-0.2,0.1-0.3,0.3-0.5,0.5c-0.1,0.2-0.2,0.5-0.3,0.8c0,0.2,0,0.3,0,0.5c0,0.2,0.1,0.3,0.1,0.5c0,0,0,0.1,0,0.1c0,0,0,0,0,0.1l0,0
			l0,0v0h0l0,0l0,0l0,0c0,0,0,0,0,0.1c0,0,0,0.1,0.1,0.1c0.1,0.1,0.2,0.3,0.3,0.4c0.2,0.3,0.5,0.5,0.8,0.6c0.3,0.2,0.7,0.2,1,0.2
			c0.2,0,0.3,0,0.5,0c0.2,0,0.3-0.1,0.5-0.2c0.1,0,0.1-0.1,0.2-0.1c0.1,0,0.1-0.1,0.2-0.1c0.1-0.1,0.3-0.2,0.4-0.3
			c0.2-0.2,0.5-0.5,0.6-0.8c0.1-0.3,0.3-0.6,0.3-1c0-0.3,0-0.7,0-1C140.1,96.4,140.1,96.3,140,96.2z M43.4,98.8c0,0.9,0,2-0.2,3.2
			c-0.1,0.6-0.3,1.3-0.5,1.9c-0.2,0.7-0.5,1.4-0.9,2.1c-0.4,0.7-0.8,1.4-1.4,2c-0.5,0.6-1.1,1.2-1.7,1.7l0-0.1c0-0.9,0-1.9,0.1-2.9
			c0.1-1,0.3-2,0.6-3.1c0.3-1,0.7-2,1.2-2.9c0.5-0.9,1-1.7,1.6-2.5c0.4-0.5,0.7-0.9,1.1-1.3C43.2,97.5,43.3,98.1,43.4,98.8z
			 M75.1,95C75,94.8,75,94.5,75,94.3c0-0.3,0-0.5,0-0.7c0-0.2,0.1-0.4,0.1-0.6c0.1-0.2,0.1-0.4,0.2-0.6c0.1-0.2,0.2-0.3,0.3-0.5
			c0.1,0.2,0.2,0.3,0.3,0.5c0.1,0.2,0.2,0.4,0.2,0.6c0.1,0.2,0.1,0.4,0.1,0.6c0,0.2,0,0.5,0,0.7c0,0.2-0.1,0.5-0.1,0.8
			c-0.1,0.3-0.2,0.6-0.4,0.8c0,0.1-0.1,0.1-0.1,0.2c0-0.1-0.1-0.1-0.1-0.2C75.3,95.6,75.2,95.3,75.1,95z M73.6,97.9
			c0.5-0.2,1-0.5,1.4-0.8c0.1-0.1,0.2-0.2,0.3-0.3l0,0l0,0c0,0,0-0.1,0.1-0.1c0.1,0,0.1-0.1,0.1-0.1c0,0,0.1,0.1,0.1,0.1
			c0,0,0.1,0.1,0.1,0.1l0,0l0,0c0.1,0.1,0.2,0.2,0.3,0.3c0.4,0.4,0.9,0.6,1.4,0.8c0.3,0.1,0.7,0.2,1,0.3c-0.1,0-0.2,0-0.3,0.1
			c-0.8,0.1-1.7,0.4-2.7,0.9c-1-0.5-1.9-0.7-2.7-0.9c-0.1,0-0.2,0-0.3-0.1C72.9,98.1,73.2,98.1,73.6,97.9z M75.6,99.7
			c0.4,0.2,0.9,0.5,1.4,0.8c0.4,0.3,0.8,0.6,1.2,1c-1,1.7-1.6,3.3-1.9,4.6c-0.4,1.3-0.5,2.4-0.6,3.1c0,0.1,0,0.1,0,0.2
			c0-0.1,0-0.1,0-0.2c-0.1-0.7-0.2-1.8-0.6-3.1c-0.4-1.3-1-2.9-1.9-4.6c0.4-0.4,0.8-0.7,1.2-1C74.7,100.2,75.2,99.9,75.6,99.7z
			 M71.2,98.8c-0.2-0.2-0.3-0.4-0.5-0.6c0.1,0,0.2,0,0.4,0.1h0c0.1,0,0.1,0,0.2,0c0.4,0,0.9,0.1,1.5,0.3c0.7,0.2,1.4,0.4,2.2,0.8
			c-0.4,0.2-0.7,0.4-1.1,0.7c-0.4,0.3-0.8,0.6-1.2,1C72.3,100.3,71.8,99.6,71.2,98.8z M70.3,105.5c0.3-0.7,0.7-1.4,1.1-2
			c0.4-0.5,0.7-1,1.2-1.5c1,1.6,1.6,3,2,4.3c0.3,0.8,0.5,1.5,0.6,2.1c-0.1-0.3-0.4-0.6-0.6-0.9c-0.3-0.3-0.7-0.7-1.2-0.9
			c-0.5-0.3-1-0.4-1.6-0.5c0,0-0.1,0-0.1,0c-0.1,0-0.1,0-0.2,0c-0.2,0-0.3,0-0.5,0c-0.1,0-0.3,0-0.4,0c-0.2,0-0.3,0-0.5,0
			C70.2,105.9,70.2,105.7,70.3,105.5z M73.4,118.7c-0.1,0-0.2,0-0.4,0c-0.1,0-0.1,0-0.2,0c-0.1,0-0.1,0-0.2,0c-0.3,0-0.5,0-0.7-0.1
			c-0.9-0.1-1.8-0.4-2.6-0.9c-0.8-0.5-1.5-1.1-2-1.8c-0.5-0.7-0.9-1.5-1.1-2.3c-0.1-0.4-0.2-0.8-0.2-1.2c0-0.1,0-0.2,0-0.3
			c0-0.1,0-0.2,0-0.3c0-0.2,0-0.4,0-0.6c0.1-0.8,0.4-1.5,0.7-2.1c0.4-0.6,0.9-1.1,1.4-1.5c0.3-0.2,0.5-0.4,0.8-0.5
			c0,0.2-0.1,0.4-0.1,0.6c-0.1,0.4-0.1,0.9-0.2,1.4c0,0.2,0,0.5,0,0.7c0,0.2,0,0.5,0,0.7c0.1,1,0.3,1.9,0.6,2.9
			c0.4,0.9,0.9,1.8,1.5,2.7c0.3,0.4,0.6,0.7,1,1.1c0.6,0.6,1.3,1.2,2,1.6C73.7,118.7,73.5,118.7,73.4,118.7z M72.6,126
			c-0.2,0-0.5-0.1-0.7-0.3c-0.2-0.1-0.4-0.3-0.5-0.5c-0.1-0.2-0.2-0.4-0.3-0.6c0,0,0-0.1,0-0.1c0,0,0-0.1,0-0.1c0,0,0-0.1,0-0.1
			c0-0.1,0-0.2,0-0.3c0-0.2,0.1-0.4,0.2-0.5c0.1-0.1,0.2-0.3,0.3-0.4c0.1-0.1,0.2-0.1,0.4-0.2c0.1,0,0.1,0,0.2,0c0,0,0,0,0,0h0l0,0
			l0,0l0,0v0c0,0,0,0,0,0v0h0v0l0,0h0c0.1,0,0.2,0,0.3,0c0.1,0,0.1,0,0.2,0.1c0.1,0,0.1,0.1,0.2,0.1c0,0,0.1,0.1,0.1,0.1
			c0.1,0,0.1,0,0.2,0c0.1,0,0.1,0,0.2,0c0.1,0,0.2,0,0.3,0c0.1,0,0.2,0,0.3-0.1c0.1-0.1,0.2-0.1,0.3-0.2c0,0,0-0.1,0-0.1
			c0,0.1,0,0.2,0,0.3c0,0.3,0.1,0.5,0.1,0.7c0.1,0.3,0.2,0.5,0.3,0.7c0.1,0.2,0.3,0.4,0.4,0.6c0.1,0.1,0.1,0.1,0.2,0.2
			c-0.1,0-0.1,0.1-0.2,0.1c-0.1,0-0.2,0-0.4,0c-0.2,0-0.4,0-0.6,0.1c-0.1,0-0.3,0.1-0.4,0.2c0,0,0,0,0,0c0,0-0.1,0-0.2,0.1
			c-0.1,0-0.1,0.1-0.2,0.1c-0.1,0.1-0.1,0.1-0.2,0.2c0,0,0,0-0.1,0C73,126.1,72.8,126.1,72.6,126z M75.1,125.5
			c-0.1,0.1-0.3,0.2-0.4,0.2c-0.1,0.1-0.3,0.1-0.5,0.2c-0.1,0-0.2,0-0.3,0.1c0,0,0,0,0,0c0,0-0.1,0-0.1,0c-0.1,0-0.1,0-0.1,0
			c0,0-0.1,0-0.1,0c0.1-0.1,0.2-0.2,0.3-0.3c0.1-0.1,0.3-0.1,0.4-0.2c0.2-0.1,0.3-0.1,0.5-0.1C74.9,125.5,75,125.5,75.1,125.5z
			 M75.6,128.3c0-0.1-0.1-0.2-0.1-0.3c0-0.1,0-0.3,0-0.4c0,0,0-0.1,0-0.2c0,0,0,0,0,0c0,0,0-0.1,0.1-0.1c0,0,0,0.1,0.1,0.1v0
			c0,0,0,0.1,0,0.2c0,0.1,0,0.3,0,0.4C75.7,128.1,75.6,128.2,75.6,128.3z M78.1,127.9c0,0.1-0.1,0.2-0.1,0.3c0,0.1-0.1,0.2-0.1,0.2
			c-0.1,0.1-0.2,0.2-0.2,0.3c-0.1,0-0.1,0.1-0.2,0.1c-0.2,0.1-0.4,0.1-0.5,0.2c-0.2,0-0.4,0-0.5,0c0,0,0,0-0.1,0c0,0,0,0-0.1,0
			c0,0-0.1,0-0.1,0c-0.1,0-0.1-0.1-0.2-0.1c-0.1-0.1-0.2-0.2-0.3-0.3l0,0c0.1-0.1,0.1-0.2,0.1-0.3c0-0.1,0-0.3,0-0.4
			c0,0,0-0.1,0-0.1c0,0,0,0,0,0c0-0.1,0-0.1,0-0.2c0,0,0,0,0,0c0,0,0-0.1,0.1-0.1c0.1-0.1,0.1-0.1,0.2-0.2c0.1-0.1,0.2-0.1,0.2-0.1
			c0.1,0,0.2,0,0.2,0c0.1,0,0.1,0,0.2,0c0,0,0.1,0,0.1,0c0,0,0,0,0-0.1c0,0-0.1-0.1-0.2-0.1c-0.1,0-0.2,0-0.3,0
			c-0.1,0-0.2,0.1-0.3,0.1c-0.1,0.1-0.2,0.1-0.3,0.2l0,0v0c-0.1-0.1-0.2-0.2-0.3-0.2c-0.1-0.1-0.2-0.1-0.3-0.1c-0.1,0-0.2,0-0.3,0
			c-0.1,0-0.1,0-0.2,0.1c0,0-0.1,0,0,0.1c0,0,0,0,0.1,0c0,0,0.1,0,0.2,0c0.1,0,0.1,0,0.2,0c0.1,0,0.2,0.1,0.2,0.1
			c0.1,0,0.2,0.1,0.2,0.2c0,0,0,0,0.1,0.1l0,0c0,0.1,0,0.1,0,0.2l0,0c0,0,0,0.1,0,0.1c0,0.1,0,0.3,0,0.4c0,0.1,0.1,0.2,0.1,0.3l0,0
			c-0.1,0.1-0.2,0.3-0.3,0.3c-0.1,0.1-0.2,0.1-0.2,0.1c0,0-0.1,0-0.1,0c0,0,0,0,0,0c0,0-0.1,0-0.1,0c-0.2,0-0.4,0.1-0.5,0
			c-0.2,0-0.4-0.1-0.5-0.2c-0.1,0-0.1-0.1-0.2-0.1c-0.1-0.1-0.2-0.2-0.2-0.3c0-0.1-0.1-0.1-0.1-0.2c0-0.1-0.1-0.2-0.1-0.3
			c0-0.1,0-0.2,0-0.3c0-0.1,0-0.2,0-0.4c0-0.1,0-0.2,0.1-0.3c0-0.1,0.1-0.2,0.1-0.3c0-0.1,0.1-0.1,0.1-0.2c0.1,0,0.2,0,0.3,0
			c0.1,0,0.2,0,0.2,0c0.1,0,0.2,0,0.2-0.1c0.2,0,0.3-0.1,0.5-0.2c0.2-0.1,0.3-0.1,0.5-0.2c0.1-0.1,0.2-0.1,0.4-0.2
			c0,0,0.1,0,0.2-0.1c0.1,0,0.1,0,0.2,0.1c0.1,0,0.2,0.1,0.4,0.2c0.1,0.1,0.3,0.2,0.5,0.2c0.1,0.1,0.3,0.1,0.5,0.2
			c0.1,0,0.1,0,0.2,0.1c0.1,0,0.2,0,0.2,0c0.1,0,0.2,0,0.2,0c0,0.1,0.1,0.1,0.1,0.2c0,0.1,0.1,0.2,0.1,0.3c0,0.1,0.1,0.2,0.1,0.3
			c0,0.1,0,0.3,0,0.4C78.1,127.6,78.1,127.8,78.1,127.9z M75.6,125.5L75.6,125.5C75.6,125.5,75.6,125.5,75.6,125.5L75.6,125.5
			C75.6,125.5,75.6,125.5,75.6,125.5z M76.1,125.5c0.1,0,0.1,0,0.2,0c0.2,0,0.3,0,0.5,0.1c0.2,0,0.3,0.1,0.5,0.2
			c0.1,0.1,0.2,0.1,0.3,0.3c0,0-0.1,0-0.1,0c0,0-0.1,0-0.1,0c0,0,0,0-0.1,0l-0.1,0c-0.1,0-0.2,0-0.2-0.1c-0.2,0-0.3-0.1-0.5-0.2
			C76.4,125.7,76.3,125.6,76.1,125.5z M76.7,123.7c0.1-0.2,0.1-0.5,0.1-0.7c0-0.1,0-0.2,0-0.3c0,0,0,0.1,0,0.1
			c0.1,0.1,0.1,0.2,0.3,0.2c0.1,0.1,0.2,0.1,0.3,0.1c0.1,0,0.2,0,0.3,0c0.1,0,0.1,0,0.2,0c0.1,0,0.1,0,0.2,0c0.1,0,0.1,0,0.1-0.1
			c0.1,0,0.1,0,0.2-0.1c0.1,0,0.1-0.1,0.2-0.1c0.1,0,0.1,0,0.3,0h0l0,0l0,0l0,0l0,0v0l0,0l0,0h0h0c0,0,0,0,0,0c0.1,0,0.1,0,0.2,0
			c0.1,0.1,0.2,0.1,0.4,0.2c0.1,0.1,0.2,0.2,0.3,0.4c0.1,0.1,0.2,0.3,0.2,0.5c0,0.1,0,0.2,0,0.3c0,0,0,0.1,0,0.1c0,0,0,0,0,0.1
			c0,0,0,0,0,0.1c0,0.2-0.1,0.4-0.3,0.6c-0.1,0.2-0.3,0.4-0.5,0.5c-0.2,0.1-0.4,0.3-0.7,0.3c-0.2,0.1-0.4,0.1-0.5,0.1
			c0,0-0.1,0-0.1,0c-0.1-0.1-0.1-0.1-0.2-0.2c-0.1-0.1-0.1-0.1-0.2-0.1c-0.1,0-0.1-0.1-0.2-0.1c0,0,0,0,0,0
			c-0.1-0.1-0.3-0.1-0.4-0.2c-0.2,0-0.4-0.1-0.5-0.1c-0.1,0-0.3,0-0.4,0c0,0-0.1-0.1-0.2-0.1c0.1-0.1,0.1-0.1,0.2-0.2
			c0.2-0.2,0.3-0.4,0.4-0.6C76.6,124.2,76.7,124,76.7,123.7z M76.2,120.9c0.2,0.3,0.3,0.7,0.4,1c0,0,0,0.1,0,0.1c0,0,0,0.1,0,0.1
			c0,0.1,0,0.2,0,0.2c0,0.2,0,0.3,0,0.5c0,0.3,0,0.6-0.1,0.8c-0.1,0.2-0.2,0.5-0.3,0.7c-0.1,0.2-0.2,0.4-0.3,0.5
			c-0.1,0.1-0.2,0.2-0.3,0.4c-0.1-0.1-0.2-0.2-0.3-0.4c-0.1-0.2-0.3-0.3-0.4-0.5c-0.1-0.2-0.2-0.4-0.2-0.7c-0.1-0.2-0.1-0.5-0.1-0.8
			c0-0.1,0-0.3,0-0.5c0-0.1,0-0.1,0-0.2c0,0,0-0.1,0-0.1c0,0,0-0.1,0-0.1c0.1-0.3,0.2-0.7,0.4-1c0.1-0.3,0.3-0.5,0.6-0.8
			C75.8,120.3,76,120.6,76.2,120.9z M75.5,119.6C75.5,119.6,75.6,119.6,75.5,119.6c0.1,0,0.1,0,0.1,0
			C75.6,119.7,75.6,119.7,75.5,119.6C75.6,119.7,75.5,119.7,75.5,119.6z M81.9,113.3c0.3-0.9,0.5-1.9,0.6-2.9c0-0.2,0-0.5,0-0.7
			c0-0.2,0-0.5,0-0.7c0-0.5-0.1-0.9-0.2-1.4c0-0.2-0.1-0.4-0.1-0.6c0.3,0.1,0.6,0.3,0.8,0.5c0.6,0.4,1,0.9,1.4,1.5
			c0.4,0.6,0.6,1.3,0.7,2.1c0,0.2,0,0.4,0,0.6c0,0.1,0,0.2,0,0.3c0,0.1,0,0.2,0,0.3c0,0.4-0.1,0.8-0.2,1.2c-0.2,0.8-0.6,1.6-1.1,2.3
			c-0.5,0.7-1.2,1.3-2,1.8c-0.8,0.5-1.7,0.8-2.6,0.9c-0.2,0-0.5,0.1-0.7,0.1c-0.1,0-0.1,0-0.2,0c-0.1,0-0.1,0-0.2,0
			c-0.1,0-0.3,0-0.4,0c-0.2,0-0.3,0-0.4,0c0.7-0.5,1.4-1,2-1.6c0.4-0.3,0.7-0.7,1-1.1C81,115.2,81.6,114.3,81.9,113.3z M81.3,106.8
			c0.1,0.3,0.2,0.7,0.2,1c0.1,0.4,0.1,0.9,0.2,1.3c0,0.2,0,0.4,0,0.7v0.2c0,0,0,0.1,0,0.2c0,0.1,0,0.2,0,0.3c0,0.9-0.2,1.7-0.6,2.6
			c-0.3,0.9-0.8,1.7-1.4,2.4c-0.6,0.7-1.3,1.4-2.2,1.9c-0.6,0.4-1.3,0.7-2,0.9c-0.7-0.2-1.4-0.5-2-0.9c-0.8-0.5-1.6-1.2-2.2-1.9
			c-0.6-0.7-1.1-1.5-1.4-2.4c-0.3-0.9-0.5-1.7-0.6-2.6c0-0.1,0-0.2,0-0.3c0,0,0-0.1,0-0.2v-0.2c0-0.2,0-0.4,0-0.7
			c0-0.4,0.1-0.9,0.1-1.3c0.1-0.4,0.1-0.7,0.2-1c0,0,0.1,0,0.1,0c0.3-0.1,0.6-0.1,0.9-0.2c0.1,0,0.3,0,0.4,0c0.1,0,0.3,0,0.4,0
			c0.5,0,1,0.2,1.5,0.4c0.4,0.2,0.8,0.5,1.1,0.8c0.3,0.3,0.5,0.6,0.7,0.9c0.2,0.3,0.3,0.6,0.4,0.8c0.1,0.3,0.1,0.5,0.2,0.7
			c0,0.2,0.1,0.3,0.1,0.4c0,0.1,0,0.1,0,0.1c0,0,0-0.1,0.1-0.1c0-0.1,0-0.2,0.1-0.4c0-0.2,0.1-0.4,0.2-0.7c0.1-0.2,0.2-0.5,0.4-0.8
			c0.2-0.3,0.4-0.6,0.7-0.9c0.3-0.3,0.7-0.5,1.1-0.8c0.4-0.2,0.9-0.4,1.5-0.4c0.1,0,0.3,0,0.4,0c0.1,0,0.3,0,0.4,0
			C80.7,106.6,80.9,106.7,81.3,106.8C81.3,106.8,81.3,106.8,81.3,106.8z M79.8,103.4c0.4,0.6,0.8,1.3,1.1,2c0.1,0.2,0.1,0.4,0.2,0.6
			c-0.2,0-0.3,0-0.5,0c-0.1,0-0.3,0-0.4,0s-0.3,0-0.4,0c0,0-0.1,0-0.2,0c0,0-0.1,0-0.1,0c-0.6,0.1-1.1,0.3-1.6,0.5
			c-0.5,0.2-0.8,0.6-1.1,0.9c-0.3,0.3-0.5,0.6-0.6,0.9c0.1-0.6,0.3-1.3,0.6-2.1c0.4-1.2,1-2.7,2-4.3C79,102.4,79.4,102.9,79.8,103.4
			z M80,98.8c-0.6,0.7-1.1,1.5-1.5,2.2c-0.4-0.4-0.8-0.7-1.2-1c-0.4-0.3-0.8-0.5-1.1-0.7c0.8-0.4,1.6-0.7,2.2-0.8
			c0.6-0.2,1.2-0.2,1.6-0.3c0.1,0,0.1,0,0.2,0c0,0,0,0,0,0c0.2,0,0.3,0,0.4-0.1C80.3,98.4,80.1,98.6,80,98.8z M112.6,109.7
			C112.6,109.7,112.6,109.7,112.6,109.7c-0.7-0.5-1.2-1.1-1.7-1.7c-0.5-0.7-1-1.4-1.4-2c-0.4-0.7-0.7-1.4-0.9-2.1
			c-0.2-0.7-0.4-1.3-0.5-1.9c-0.2-1.2-0.3-2.3-0.2-3.2c0-0.7,0.1-1.3,0.2-1.8c0.4,0.4,0.7,0.8,1.1,1.3c0.6,0.7,1.1,1.6,1.5,2.5
			c0.5,0.9,0.9,1.9,1.2,2.9c0.3,1,0.5,2.1,0.6,3.1C112.6,107.8,112.6,108.7,112.6,109.7z"/>
		<polygon fill="#C4DC83" points="79.6,93.2 79.6,93.2 79.6,93.2 		"/>
	</g>
</g>
</svg>
