<?xml version="1.0" encoding="utf-8"?>
<!-- Generator: Adobe Illustrator 18.1.0, SVG Export Plug-In . SVG Version: 6.00 Build 0)  -->
<svg version="1.0" id="Layer_1" xmlns="http://www.w3.org/2000/svg" xmlns:xlink="http://www.w3.org/1999/xlink" x="0px" y="0px"
	 viewBox="0 0 150 150" enable-background="new 0 0 150 150" xml:space="preserve">
<g>
	<path fill="#243E8F" d="M106.3,57.9c5.1,3.7,9.8,8.2,15,11.8c5.7-2.2,11-5.4,16.5-8c-2.1,5.5-4.8,10.6-7.1,16
		c4.9,4.3,10.1,8.4,14.9,12.8c-6.5-0.9-12.9-2-19.4-3.1c-2.6,5.1-4.8,10.4-7.5,15.5c-1.5-5.7-3.2-11.5-4.6-17.2
		c-5.6-0.9-11.2-1.3-16.7-2.2c4.5-2.8,9.3-5.1,13.9-7.7C109.5,69.8,107.8,63.9,106.3,57.9z"/>
	<g>
		<path fill="#D82727" d="M75.5,93.2c5.8-2,11.1-5.2,16.7-7.8c3.1-0.7,6.3,0.4,9.4,0.9c-4.4,4-9.7,6.8-15,9.4
			c-15.8,7.4-33.8,10.1-51,6.6c11.4,4.8,24.2,4.7,36.2,2.3c11.9-2.4,23.6-7.2,33-15.1c1.6-1.3,3.5-3.1,5.7-2.1
			c1.8,0.2,1.6,2.7,2.5,3.9c-13.5,13.2-32.5,19.5-51.1,20.2c-5.6,0.3-11.1-0.8-16.6-1.5c12.6,5.4,26.9,4.5,40,1.4
			c10.7-2.5,20.7-7.4,29.2-14.3c0.6,2.5,1.2,4.9,1.8,7.4c-14.8,10.7-33.3,15.7-51.5,14.6c-6.2-0.5-12.6-1.7-18-5
			c-3.4-2-5.4-5.7-8.8-7.7c-3.7-2.1-5.9-6-9.6-8c-2.5-1.4-4.3-3.8-5.8-6.1c1,0.5,1.9,0.9,2.8,1.4c1.6,0.8,3.3,1.6,4.9,2.4
			c1.3,0.4,2.7,0.8,4.1,1.2C48.1,100.3,62.4,97.9,75.5,93.2z"/>
	</g>
	<path fill-rule="evenodd" clip-rule="evenodd" fill="#243E8F" d="M7.2,55.8l38.9-18.6l46.2-6.5c2.3,7.8,4.6,15.5,6.9,23.3
		c1,0.3,1.9,1.1,2.2,2.2c0.5,1.7-0.5,3.6-2.2,4.1c-1.7,0.5-3.6-0.5-4.1-2.2c-0.3-1.2,0-2.4,0.8-3.2l-4.3-14.7L52.2,58L9.5,63.8
		L7.2,55.8z M97,62.2c1.9,0.2,3.5-0.4,4.9-1.4c2.1,4.4,4.3,8.8,6.4,13.3c-0.5,0.4-0.9,0.8-1.4,1.1l-1-1.4l0.3,1.8
		c-0.8,0.5-1.7,0.8-2.6,1.1l-1-1.4l-0.2,1.6c-0.1,0-0.3,0.1-0.5,0.1l-2.2-6.3l0.8,6.3c-0.5,0-0.9-0.1-1.4-0.1
		C98.4,71.8,97.7,67,97,62.2 M92.2,78.8l-9.1-30.7L53.3,61.7l-30.9,4.2l7.5,26.3c2.4,0.5,4.9,0.9,7.3,1.3c0,0,15.7,1.3,31.2-3
		C75.6,88.7,85.7,84.8,92.2,78.8"/>
</g>
</svg>
