<?xml version="1.0" encoding="utf-8"?>
<!-- Generator: Adobe Illustrator 16.0.0, SVG Export Plug-In . SVG Version: 6.00 Build 0)  -->
<!DOCTYPE svg PUBLIC "-//W3C//DTD SVG 1.1//EN" "http://www.w3.org/Graphics/SVG/1.1/DTD/svg11.dtd">
<svg version="1.1" id="Layer_1" xmlns="http://www.w3.org/2000/svg" xmlns:xlink="http://www.w3.org/1999/xlink" x="0px" y="0px"
	 width="100px" height="100px" viewBox="0 0 100 100" enable-background="new 0 0 100 100" xml:space="preserve">
<g>
	<path fill-rule="evenodd" clip-rule="evenodd" fill="#9E7E57" d="M38.583,34.692c-6.877,8.238-8.194,18.831-3.257,27.284
		c3.649,6.253,9.189,10.02,16.426,9.674c7.947-0.378,13.703-4.918,16.591-12.288c2.736-6.98,0.996-13.453-3.744-19.171
		c-4.486-5.407-9.993-8.78-17.242-8.572c-1.417,0.042-2.819,0.47-4.23,0.72c2.684-0.716,5.359-2.027,8.05-2.046
		c11.731-0.091,21.239,9.784,21.1,21.516c-0.141,11.649-9.773,21.119-21.388,21.024c-8.399-0.069-16.281-5.424-19.455-13.206
		c-3.238-7.955-1.476-17.019,4.534-23.021C36.725,35.852,37.706,35.325,38.583,34.692z"/>
	<path fill-rule="evenodd" clip-rule="evenodd" fill="#C3996B" d="M4.445,43.047c4.396,0.515,8.536,1.027,12.687,1.482
		c6.85,0.743,10.106,4.623,9.712,12.202c-3.274-3.736-6.483-7.117-12.203-6.124c3.395,2.301,6.68,4.281,7.732,8.484
		c-4.082,1.88-7.892,1.671-11.371-0.888C5.722,54.321,4.414,48.725,4.445,43.047z"/>
	<path fill-rule="evenodd" clip-rule="evenodd" fill="#C3996B" d="M75.703,60.103c4.843-2.034,8.828-4.205,9.787-9.799
		c-3.309,2.342-6.116,5.09-10.23,4.711c-1.065-3.747,0.352-7.803,3.774-10.36c5.36-4.009,11.189-3.425,16.768-1.887
		c-2.123,4.616-4.047,9.053-6.181,13.388C87.287,60.9,82.697,62.294,75.703,60.103z"/>
	<path fill-rule="evenodd" clip-rule="evenodd" fill="#C3996B" d="M44.572,44.442c4.855-9.122,15.609-9.595,20.785-1.375
		c7.07,11.227,0.019,26.029-13.097,27.472c-6.089,0.671-12.893-3.592-16.087-10.364c-3.284-6.964-3.001-14.001,0.485-20.799
		c2.785-5.43,8.638-7.689,15.027-5.987c1.933,0.519,3.767,1.413,5.585,2.584c-1.659,0.182-3.384,0.151-4.986,0.58
		c-6.858,1.83-11.584,8.204-11.861,15.969c-0.066,1.854,0.014,3.762,0.415,5.559c1.229,5.507,4.527,8.659,9.991,9.378
		c6.078,0.804,10.739-1.829,14.048-6.775c3.459-5.18,3.034-11.477-0.763-15.509c-4.065-4.32-11.391-5.248-17.166-2.167
		C46.282,43.362,45.653,43.787,44.572,44.442z"/>
	<path fill-rule="evenodd" clip-rule="evenodd" fill="#947752" d="M44.91,59.263c7.143-0.592,12.808-3.062,16.991-8.325
		c2.084-2.626,1.433-4.275-1.853-4.676c-2.535-0.307-5.146-0.015-7.724,0.011c0.008,0.318,0.02,0.633,0.027,0.951
		c1.963,0,3.944-0.144,5.889,0.064c0.966,0.103,2.429,0.675,2.637,1.357c0.239,0.766-0.462,2.092-1.14,2.819
		c-3.073,3.305-6.814,5.563-11.323,6.302c-2.709,0.443-3.944-0.803-2.888-3.319c1.361-3.236,3.005-6.446,5.074-9.273
		c1.743-2.379,4.646-3.289,7.544-2.145c3.752,1.479,6.386,4.139,6.954,8.353c0.554,4.088-1.387,7.071-4.547,9.302
		c-3.653,2.582-7.654,3.09-11.77,1.164C47.518,61.248,46.418,60.286,44.91,59.263z"/>
	<path fill-rule="evenodd" clip-rule="evenodd" fill="#C3996B" d="M43.131,59.463c5.576,6.094,9.13,6.256,20.536,0.622
		c-3.235,3.968-6.661,6.961-11.675,6.601C47.518,66.367,44.842,63.34,43.131,59.463z"/>
	<path fill-rule="evenodd" clip-rule="evenodd" fill="#C3996B" d="M43.443,55.981c-2.817-5.396,2.05-12.87,9.099-13.566
		C47.229,45.594,44.266,50.092,43.443,55.981z"/>
</g>
</svg>
