<?xml version="1.0" encoding="utf-8"?>
<!-- Generator: Adobe Illustrator 18.1.0, SVG Export Plug-In . SVG Version: 6.00 Build 0)  -->
<svg version="1.1" id="Layer_1" xmlns="http://www.w3.org/2000/svg" xmlns:xlink="http://www.w3.org/1999/xlink" x="0px" y="0px"
	 viewBox="0 0 150 150" enable-background="new 0 0 150 150" xml:space="preserve">
<g>
	<path fill="none" d="M91.6,119.3c0.2,0,0.3,0,0.5,0c0.1-0.1,0.2-0.2,0.3-0.3C92.1,119,91.8,119.1,91.6,119.3z"/>
	<path fill="none" d="M118.1,80.7c-0.5,4.5-1.6,8.9-3.2,13.3c-3.3,8.9-8.3,17-14.8,24.1c7.4-1.7,13.6-4.5,18.6-8.7
		c5.4-4.6,8.8-10.2,10.4-16.8c1.5-6.7,0.6-14.2-2.8-22.4c-0.5-1.1-1-2.1-1.6-3.2c-0.2,0.7-0.5,1.4-0.8,2.1
		C122.2,73.3,120.3,77.1,118.1,80.7z"/>
	<path fill="none" d="M65.9,122.6c-4.5-0.5-8.9-1.6-13.3-3.2c-8.9-3.3-17-8.3-24.1-14.8c1.7,7.4,4.5,13.6,8.7,18.6
		c4.6,5.4,10.2,8.8,16.8,10.4c6.7,1.5,14.2,0.6,22.4-2.8c1.1-0.5,2.1-1,3.2-1.6c-0.7-0.2-1.4-0.5-2.1-0.8
		C73.4,126.7,69.5,124.8,65.9,122.6z"/>
	<path fill="none" d="M78.2,43.7c-5-1.2-10.3-1-15.8,0.3c-4.8,1.7-9,4.2-12.6,7.3c-5.4,4.7-8.9,10.4-10.6,17.2
		c-1.2,5-1,10.3,0.3,15.8c1.7,4.8,4.2,9,7.3,12.6c4.7,5.4,10.4,8.9,17.1,10.6c5,1.2,10.3,1,15.8-0.3c4.8-1.7,9-4.2,12.6-7.3
		c5.4-4.7,8.9-10.4,10.6-17.1c1.2-5,1-10.2-0.3-15.8c-1.7-4.8-4.2-9-7.3-12.7C90.6,48.9,84.9,45.3,78.2,43.7z"/>
	<path fill="none" d="M27.4,96.1c0,0.2,0,0.3,0,0.5c0.1,0.1,0.2,0.2,0.3,0.3C27.6,96.6,27.5,96.3,27.4,96.1z"/>
	<path fill="none" d="M76.2,28.6c4.5,0.5,8.9,1.6,13.3,3.2c8.9,3.3,17,8.3,24.1,14.8c-1.7-7.4-4.5-13.6-8.7-18.6
		c-4.6-5.4-10.2-8.8-16.8-10.4c-6.7-1.5-14.2-0.6-22.4,2.8c-1.1,0.5-2.1,1-3.2,1.6c0.7,0.2,1.4,0.5,2.1,0.8
		C68.8,24.5,72.6,26.4,76.2,28.6z"/>
	<path fill="none" d="M50.1,31.9c-0.1,0.1-0.2,0.2-0.3,0.3c0.3-0.1,0.5-0.2,0.8-0.4C50.4,31.9,50.2,31.9,50.1,31.9z"/>
	<path fill="none" d="M24.1,70.4c0.5-4.5,1.6-8.9,3.2-13.3c3.3-8.9,8.3-17,14.8-24.1c-7.4,1.7-13.6,4.5-18.6,8.7
		c-5.4,4.6-8.8,10.2-10.4,16.8c-1.5,6.7-0.6,14.1,2.8,22.4c0.5,1.1,1,2.1,1.6,3.2c0.2-0.7,0.5-1.4,0.8-2.1
		C19.9,77.9,21.9,74.1,24.1,70.4z"/>
	<path fill="none" d="M114.7,55.1c0-0.2,0-0.3,0-0.5c-0.1-0.1-0.2-0.2-0.3-0.3C114.5,54.6,114.6,54.8,114.7,55.1z"/>
	<path fill="#319775" d="M103.6,98.3c-6.5,6.1-13.6,10.8-21.4,14.1c-4.1,1.7-8.1,3-12.2,3.7c1.7,0.6,3.4,1.1,5.1,1.6
		c5.4,1.4,10.8,1.9,16.3,1.6c0.3-0.1,0.5-0.2,0.8-0.4c0.4-0.4,0.8-0.9,1.1-1.3C98.2,112,101.6,105.5,103.6,98.3z"/>
	<path fill="#319775" d="M65.9,122.6c-3-1.8-5.9-3.8-8.6-6c-7.9-0.7-14.9-3.4-20.9-8.2c-3.6-3-6.5-6.8-8.6-11.5
		c-0.1-0.1-0.2-0.2-0.3-0.3c0.1,2.1,0.4,4.1,0.7,6.2c0.1,0.6,0.3,1.2,0.4,1.8c7.2,6.5,15.2,11.5,24.1,14.8
		C57,121,61.4,122,65.9,122.6z"/>
	<path fill="#319775" d="M102.9,82.7c-1.6,6.7-5.1,12.5-10.6,17.1c-3.6,3.1-7.8,5.5-12.6,7.3c2-0.5,4.1-1.2,6.2-2
		c6.9-3.1,12.6-7.6,17.3-13.6c0.8-1,1.5-2,2.2-3c0.4-4.5,0.2-9.2-0.7-13.9c-0.5-2.7-1.2-5.3-2.1-7.7C104,72.4,104.1,77.7,102.9,82.7
		z"/>
	<path fill="#319775" d="M16,80.8c-3.4-8.2-4.4-15.7-2.8-22.4c1.6-6.6,5-12.2,10.4-16.8c5-4.1,11.2-7,18.6-8.7
		c0.5-0.6,1-1.1,1.5-1.7c4.1-4.2,8.4-7.9,13.2-11c-7.3-1.7-14.7-2-22.4-0.8c-9.6,1.9-16.9,5.9-21.7,11.9c-4.9,6.1-7.6,13.2-8.1,21.4
		c-0.4,8.3,1.1,16.6,4.6,25c1.8,4.2,4.1,8.1,6.6,11.9c0.5-2,1.1-3.9,1.7-5.8C17,83,16.5,81.9,16,80.8z"/>
	<path fill="#319775" d="M60,29c5.5-0.9,10.9-1,16.2-0.4c-3.6-2.2-7.5-4.1-11.5-5.7c-0.7-0.3-1.4-0.5-2.1-0.8
		c-4.7,2.5-8.9,5.8-12.5,9.8c0.2,0,0.3,0,0.5,0C53.4,30.7,56.6,29.7,60,29z"/>
	<path fill="#F36D3F" d="M114.7,54.6c0,0.2,0,0.3,0,0.5c1.2,2.8,2.2,6,2.9,9.4c0.9,5.5,1,10.9,0.4,16.2c2.2-3.6,4.1-7.5,5.7-11.5
		c0.3-0.7,0.5-1.4,0.8-2.1C122,62.4,118.7,58.3,114.7,54.6z"/>
	<path fill="#F36D3F" d="M48.4,108.1c-6.1-6.5-10.8-13.6-14.1-21.4c-1.7-4.1-3-8.1-3.7-12.2C30,76.3,29.5,78,29,79.7
		c-1.4,5.4-1.9,10.8-1.6,16.3c0.1,0.3,0.2,0.5,0.4,0.8c2.1,4.6,5,8.5,8.6,11.5c6,4.8,13,7.6,20.9,8.2c-2-1.6-3.9-3.4-5.8-5.2
		C50.4,110.3,49.4,109.2,48.4,108.1z"/>
	<path fill="#F36D3F" d="M85.9,105.1c-2.1,0.8-4.1,1.5-6.2,2c-5.5,1.4-10.8,1.5-15.8,0.3c-6.7-1.6-12.4-5.1-17.1-10.6
		c-3.1-3.6-5.5-7.8-7.3-12.6c0.5,2,1.2,4.1,2,6.2c3.1,6.9,7.6,12.6,13.6,17.3c1,0.8,2,1.5,3,2.2c3.7,2.5,7.7,4.6,12,6.1
		c4.1-0.7,8.1-1.9,12.2-3.7c7.7-3.3,14.8-8,21.4-14.1c0-0.1,0.1-0.3,0.1-0.4c0.8-3.1,1.4-6.2,1.7-9.3c-0.7,1-1.4,2-2.2,3
		C98.5,97.5,92.8,102,85.9,105.1z"/>
	<path fill="#F36D3F" d="M42.1,33c-6.5,7.2-11.5,15.2-14.8,24.1c-1.6,4.4-2.7,8.8-3.2,13.3c1.8-3,3.8-5.9,6-8.6
		c0.7-7.9,3.4-14.9,8.2-20.9c3-3.6,6.8-6.5,11.5-8.6c0.1-0.1,0.2-0.2,0.3-0.3c3.7-4,7.8-7.3,12.5-9.8c1-0.6,2.1-1.1,3.2-1.6
		c8.2-3.4,15.7-4.4,22.4-2.8c6.6,1.6,12.2,5,16.8,10.4c4.1,5,7,11.2,8.7,18.6c0.6,0.5,1.1,1,1.7,1.5c4.2,4.1,7.9,8.4,11,13.2
		c1.7-7.3,2-14.7,0.8-22.4c-1.9-9.6-5.9-16.9-11.9-21.7c-6.1-4.9-13.2-7.6-21.4-8.1c-8.3-0.4-16.6,1.1-25,4.6
		c-4.2,1.9-8.2,4.1-11.9,6.6c-4.7,3.2-9.1,6.8-13.2,11C43.1,31.9,42.6,32.5,42.1,33z"/>
	<path fill="#50C4D0" d="M38.5,52.9c6.5-6.1,13.6-10.8,21.4-14.1c4.1-1.7,8.1-3,12.2-3.7c-1.7-0.6-3.4-1.1-5.1-1.6
		c-5.4-1.4-10.8-1.9-16.3-1.6c-0.3,0.1-0.5,0.2-0.8,0.4c-0.4,0.4-0.8,0.9-1.1,1.3C43.9,39.2,40.5,45.7,38.5,52.9z"/>
	<path fill="#50C4D0" d="M76.2,28.6c3,1.8,5.9,3.8,8.6,6c7.9,0.7,14.9,3.4,20.9,8.2c3.6,3,6.5,6.8,8.6,11.5c0.1,0.1,0.2,0.2,0.3,0.3
		c-0.1-2.1-0.4-4.1-0.7-6.2c-0.1-0.6-0.3-1.2-0.4-1.8c-7.2-6.5-15.2-11.5-24.1-14.8C85.1,30.2,80.7,29.1,76.2,28.6z"/>
	<path fill="#50C4D0" d="M82.1,122.2c-5.5,0.9-10.9,1-16.2,0.4c3.6,2.2,7.5,4.1,11.5,5.7c0.7,0.3,1.4,0.5,2.1,0.8
		c4.7-2.5,8.9-5.8,12.5-9.8c-0.2,0-0.3,0-0.5,0C88.7,120.5,85.6,121.5,82.1,122.2z"/>
	<path fill="#50C4D0" d="M37.4,76.5c0.5,2.7,1.2,5.3,2.1,7.7c-1.4-5.5-1.5-10.8-0.3-15.8c1.6-6.7,5.1-12.5,10.6-17.2
		c3.6-3.1,7.8-5.5,12.6-7.3c-2,0.5-4.1,1.2-6.2,2c-6.9,3.1-12.6,7.6-17.3,13.6c-0.8,1-1.5,2-2.2,3C36.4,67.2,36.6,71.8,37.4,76.5z"
		/>
	<path fill="#50C4D0" d="M132.9,73.2c-1.9-4.2-4.1-8.2-6.6-11.9c-0.5,2-1.1,3.9-1.8,5.8c0.6,1,1.1,2.1,1.6,3.2
		c3.4,8.2,4.4,15.7,2.8,22.4c-1.6,6.6-5,12.2-10.4,16.8c-5,4.2-11.2,7-18.6,8.7c-0.5,0.6-1,1.1-1.5,1.7c-4.1,4.2-8.4,7.9-13.2,11
		c7.3,1.7,14.7,2,22.4,0.8c9.6-1.9,16.9-5.9,21.7-11.9c4.9-6.1,7.6-13.2,8.1-21.4C137.9,90,136.4,81.6,132.9,73.2z"/>
	<path fill="#088066" d="M75.2,117.6c-1.8-0.5-3.5-1-5.1-1.6c-4.1,0.7-8.2,0.9-12.4,0.6c-0.1,0-0.3,0-0.4,0c2.7,2.2,5.6,4.2,8.6,6
		c5.3,0.6,10.7,0.5,16.2-0.4c3.4-0.7,6.6-1.7,9.4-2.9C86,119.5,80.6,119,75.2,117.6z"/>
	<path fill="#088066" d="M84.4,34.6c0.1,0,0.3,0,0.4,0c-2.7-2.2-5.6-4.2-8.6-6C70.9,28,65.5,28.1,60,29c-3.5,0.7-6.6,1.7-9.4,2.9
		c5.5-0.3,11,0.3,16.3,1.6c1.8,0.5,3.5,1,5.1,1.6C76.2,34.4,80.3,34.2,84.4,34.6z"/>
	<path fill="#235C32" d="M113.6,46.6c0.1,0.6,0.3,1.2,0.4,1.8c0.4,2.1,0.6,4.1,0.7,6.2c4,3.7,7.3,7.8,9.8,12.5
		c0.7-1.9,1.3-3.9,1.8-5.8c-3.2-4.7-6.8-9.1-11-13.2C114.8,47.6,114.2,47.1,113.6,46.6z"/>
	<path fill="#235C32" d="M38.5,52.9c2-7.2,5.4-13.7,10.1-19.3c0.4-0.4,0.8-0.9,1.1-1.3c-4.6,2.1-8.5,5-11.5,8.6
		c-4.8,6-7.6,13-8.2,20.9c1.6-2,3.4-3.9,5.2-5.8C36.4,54.9,37.4,53.9,38.5,52.9z"/>
	<path fill="#235C32" d="M70.1,116c-4.3-1.5-8.3-3.6-12-6.1c-1-0.7-2-1.4-3-2.2c-6-4.6-10.5-10.4-13.6-17.3c-0.8-2.1-1.5-4.1-2-6.2
		c-0.9-2.4-1.6-5-2.1-7.7c-0.8-4.7-1-9.4-0.7-13.9c-2.5,3.7-4.6,7.7-6.1,12c0.7,4,1.9,8.1,3.7,12.2c3.3,7.7,8,14.8,14.1,21.4
		c1,1.1,2.1,2.2,3.1,3.2c1.9,1.8,3.8,3.6,5.8,5.2c0.1,0,0.3,0,0.4,0C61.8,116.9,66,116.8,70.1,116z"/>
	<path fill="#FFD35D" d="M118.1,80.7c0.6-5.3,0.5-10.7-0.4-16.2c-0.7-3.4-1.7-6.6-2.9-9.4c-0.1-0.3-0.2-0.5-0.4-0.8
		c-0.4-0.4-0.8-0.8-1.3-1.1C107.4,48.4,101,45,93.8,43c6.1,6.5,10.8,13.6,14.1,21.4c1.7,4.1,3,8.1,3.7,12.2
		c0.7,4.1,0.9,8.2,0.6,12.4c0,0.1,0,0.3,0,0.4c-0.7,7.9-3.4,14.9-8.2,20.9c-3,3.6-6.8,6.5-11.5,8.6c-0.1,0.1-0.2,0.2-0.3,0.3
		c2.1-0.1,4.1-0.4,6.2-0.7c0.6-0.1,1.2-0.3,1.8-0.4c6.5-7.2,11.5-15.2,14.8-24.1C116.5,89.7,117.5,85.2,118.1,80.7z"/>
	<path fill="#FFD35D" d="M76.3,130.7c-8.2,3.4-15.7,4.4-22.4,2.8c-6.6-1.6-12.2-5-16.8-10.4c-4.2-5-7-11.2-8.7-18.6
		c-0.6-0.5-1.1-1-1.7-1.5c-4.2-4.1-7.9-8.5-11-13.2c-1.7,7.3-2,14.8-0.8,22.4c1.9,9.6,5.9,16.9,11.9,21.7c6.1,4.9,13.2,7.6,21.4,8.1
		c8.3,0.4,16.6-1.1,25-4.6c4.2-1.9,8.2-4.1,11.9-6.6c-2-0.5-3.9-1.1-5.8-1.7C78.5,129.6,77.4,130.2,76.3,130.7z"/>
	<path fill="#FFD35D" d="M70.1,41.9c-2.7,0.5-5.3,1.2-7.7,2.1c5.5-1.4,10.8-1.5,15.8-0.3c6.7,1.6,12.5,5.1,17.2,10.6
		c3.1,3.6,5.5,7.8,7.3,12.7c-0.5-2-1.2-4.1-2-6.2C97.5,53.9,93,48.1,87,43.5c-1-0.8-2-1.5-3-2.2C79.5,40.9,74.8,41.1,70.1,41.9z"/>
	<path fill="#4C893F" d="M84,41.3c1,0.7,2,1.4,3,2.2c6,4.6,10.5,10.4,13.6,17.3c0.8,2.1,1.5,4.2,2,6.2c0.9,2.4,1.6,5,2.1,7.7
		c0.8,4.7,1,9.4,0.7,13.9c2.5-3.7,4.6-7.7,6.1-12c-0.7-4-1.9-8.1-3.7-12.2c-3.3-7.7-8-14.8-14.1-21.4c-0.1,0-0.3-0.1-0.4-0.1
		C90.3,42.1,87.2,41.5,84,41.3z"/>
	<path fill="#347E3D" d="M28.5,104.5c-0.1-0.6-0.3-1.2-0.4-1.8c-0.4-2.1-0.6-4.1-0.7-6.2c-4-3.7-7.3-7.8-9.8-12.5
		c-0.7,1.9-1.3,3.9-1.7,5.8c3.2,4.7,6.8,9.1,11,13.2C27.4,103.5,27.9,104,28.5,104.5z"/>
	<path fill="#FFD35D" d="M29,79.7c0.5-1.8,1-3.5,1.6-5.1c1.5-4.3,3.6-8.3,6.1-12c0.3-3.1,0.8-6.3,1.7-9.3c0-0.1,0.1-0.3,0.1-0.4
		c-1.1,1-2.2,2.1-3.2,3.1c-1.8,1.9-3.6,3.8-5.2,5.8c-2.2,2.7-4.2,5.6-6,8.6c-2.2,3.6-4.1,7.5-5.7,11.5c-0.3,0.7-0.5,1.4-0.8,2.1
		c2.5,4.7,5.8,8.9,9.8,12.5c0-0.2,0-0.3,0-0.5C27.1,90.5,27.6,85.1,29,79.7z"/>
	<path fill="#347E3D" d="M103.7,97.8c0,0.1-0.1,0.3-0.1,0.4c-2,7.2-5.4,13.7-10.1,19.3c-0.4,0.4-0.8,0.9-1.1,1.3
		c4.6-2.1,8.5-5,11.5-8.6c4.8-6,7.6-13,8.2-20.9c0-0.1,0-0.3,0-0.4c0.3-4.1,0.2-8.2-0.6-12.4c-1.5,4.3-3.6,8.3-6.1,12
		C105.1,91.7,104.6,94.8,103.7,97.8z"/>
	<path fill="#25B350" d="M100,118.2c-0.6,0.1-1.2,0.3-1.8,0.4c-2.1,0.4-4.1,0.6-6.2,0.7c-3.7,4-7.8,7.3-12.5,9.8
		c1.9,0.7,3.9,1.3,5.8,1.7c4.7-3.2,9.1-6.8,13.2-11C99,119.3,99.5,118.7,100,118.2z"/>
	<path fill="#25B350" d="M105.7,42.8c-6-4.8-13-7.6-20.9-8.2c2,1.6,3.9,3.4,5.8,5.2c1.1,1.1,2.1,2.1,3.1,3.2
		c7.2,2,13.7,5.4,19.3,10.1c0.4,0.4,0.9,0.8,1.3,1.1C112.2,49.7,109.4,45.8,105.7,42.8z"/>
	<path fill="#25B350" d="M56.2,46.1c2.1-0.8,4.1-1.5,6.2-2c2.4-0.9,5-1.6,7.7-2.1c4.7-0.8,9.4-1,13.9-0.7c-3.7-2.5-7.7-4.6-12-6.1
		c-4.1,0.7-8.1,1.9-12.2,3.7c-7.7,3.3-14.8,8-21.4,14.1c0,0.1-0.1,0.3-0.1,0.4c-0.8,3.1-1.4,6.2-1.7,9.3c0.7-1,1.4-2,2.2-3
		C43.6,53.6,49.3,49.1,56.2,46.1z"/>
	<path fill="#0E6B37" d="M84.8,34.6c-0.1,0-0.3,0-0.4,0c-4.1-0.3-8.2-0.2-12.4,0.6c4.3,1.5,8.3,3.6,12,6.1c3.1,0.3,6.3,0.8,9.3,1.6
		c0.1,0,0.3,0.1,0.4,0.1c-1-1.1-2.1-2.2-3.1-3.2C88.8,38,86.8,36.2,84.8,34.6z"/>
</g>
</svg>
