<?xml version="1.0" encoding="utf-8"?>
<!-- Generator: Adobe Illustrator 18.1.0, SVG Export Plug-In . SVG Version: 6.00 Build 0)  -->
<svg version="1.1" id="Layer_1" xmlns="http://www.w3.org/2000/svg" xmlns:xlink="http://www.w3.org/1999/xlink" x="0px" y="0px"
	 viewBox="0 0 150 150" enable-background="new 0 0 150 150" xml:space="preserve">
<g>
	<path fill="#F3F2F2" d="M49.1,12c-0.1,0.1-0.1,0.1-0.2,0.2c0.1,0,0.1,0,0.2-0.1C49.1,12.1,49.1,12.1,49.1,12z"/>
	<path fill="#F3F2F2" d="M46.2,13c0,0.2,0,0.3,0,0.4c0.1,0,0.2-0.1,0.3-0.1C46.4,13.2,46.3,13.1,46.2,13z"/>
	<path fill="#F3F2F2" d="M94.3,140.3c0.2,0.1,0.3,0.1,0.5,0.2c0-0.1,0.1-0.3,0.1-0.4C94.7,140.2,94.6,140.2,94.3,140.3
		C94.4,140.3,94.4,140.3,94.3,140.3z"/>
	<path fill="#00ABE8" d="M142.6,75.2c0-37.5-30.5-68-68-68c-9,0-17.6,1.8-25.5,5c-0.1,0-0.1,0.1-0.2,0.1c-0.8,0.3-1.6,0.7-2.4,1.1
		c-0.1,0-0.2,0.1-0.3,0.1C22.8,24.2,6.6,47.8,6.6,75.2c0,37.5,30.5,68,68,68c6.9,0,13.5-1.1,19.8-3c0.2-0.1,0.4-0.1,0.5-0.1
		C122.5,131.4,142.6,105.6,142.6,75.2z M74.6,140.8C38.4,140.8,9,111.4,9,75.2S38.4,9.6,74.6,9.6c36.2,0,65.6,29.4,65.6,65.6
		S110.8,140.8,74.6,140.8z"/>
	<path fill="#008BCD" d="M140.2,75.2c0-36.2-29.4-65.6-65.6-65.6C38.4,9.6,9,39,9,75.2s29.4,65.6,65.6,65.6
		C110.8,140.8,140.2,111.4,140.2,75.2z M74.6,136.8c-34,0-61.6-27.6-61.6-61.6c0-34,27.6-61.6,61.6-61.6c34,0,61.6,27.6,61.6,61.6
		C136.2,109.2,108.6,136.8,74.6,136.8z"/>
	<path fill="#008BCD" d="M74.6,23.9c-28.3,0-51.3,22.9-51.3,51.3s22.9,51.3,51.3,51.3c28.3,0,51.2-23,51.2-51.3
		S102.9,23.9,74.6,23.9z M74.6,120c-24.7,0-44.8-20.1-44.8-44.8c0-24.7,20.1-44.9,44.8-44.9c24.7,0,44.8,20.1,44.8,44.9
		C119.4,99.9,99.3,120,74.6,120z"/>
	<path fill="#00ABE8" d="M74.6,30.3c-24.7,0-44.8,20.1-44.8,44.9c0,24.7,20.1,44.8,44.8,44.8c24.7,0,44.8-20.1,44.8-44.8
		C119.4,50.5,99.3,30.3,74.6,30.3z M74.6,110.4c-18.2,0-33.3-13.9-35.1-31.6c-0.1-1.2-0.2-2.4-0.2-3.6s0.1-2.4,0.2-3.6
		c1.8-17.8,16.8-31.6,35.1-31.6l0,0l0,0c19.5,0,35.2,15.8,35.2,35.3C109.8,94.7,94.1,110.4,74.6,110.4z"/>
	<path fill="#008BCD" d="M82.1,78.6c2.1,1.2,7.2,5.9,8.6,7.8l9.9-3.9c-0.3-2.7,0.5-12,1-13.3l-9.9-8.3c-1.7,1.7-6.7,4.3-8.9,4.7
		L82.1,78.6z"/>
	<path fill="#008BCD" d="M74.6,39.9L74.6,39.9c-18.2,0-33.3,13.9-35.1,31.6C41.3,53.8,56.3,39.9,74.6,39.9z"/>
	<path fill="#008BCD" d="M39.5,78.8c-0.1-1.2-0.2-2.4-0.2-3.6C39.3,76.4,39.4,77.6,39.5,78.8z"/>
	<path fill="#008BCD" d="M69.8,84.7c1.5-1.7,8.9-6,11.3-6.3l0.7-12.8c-2.5-0.5-8.3-4.2-10.5-6.5l-12,6.4c0.5,2.1,0,9.7-0.6,11.8
		L69.8,84.7z"/>
	<path fill="#008BCD" d="M49.8,82.6l2.7,12.7l9.2,8.1l10-6.3c-0.8-1.9-2.6-8.8-2.4-11.3l-11.3-7.6C56.6,79.5,51.8,82.1,49.8,82.6z"
		/>
	<path fill="#008BCD" d="M92.4,59.9c0,0,0,0.1,0,0.1l9.9,8.3c1.1-1.2,3.4-2.9,4.3-3.6C104,56.7,98.4,50,91.2,45.9l0.4,0.3l-2.8,3.7
		C90.1,51.9,92.3,58.5,92.4,59.9z"/>
	<path fill="#008BCD" d="M87.3,106.4l-3.1-6.8c-2.3,0-9.5-0.7-11.7-1.7l-10.4,6.5v2.1c3.8,1.5,8,2.4,12.4,2.4
		C79.1,108.9,83.4,108,87.3,106.4z"/>
	<path fill="#008BCD" d="M49.4,61.9l3.1-10.6l-1.4-0.4c-5.8,5.6-9.6,13.2-10.2,21.6l2.4-0.4C44.1,70.1,47.4,63.9,49.4,61.9z"/>
	<path fill="#008BCD" d="M58.7,64.6l12-6.4c0-0.1-0.1-0.2-0.1-0.3c-0.5-1.7,1.8-7.4,2.7-9.5l-8.9-3.3l-10.7,6.2l-2.9,10
		C52.5,61.4,57.1,63.3,58.7,64.6z"/>
	<path fill="#008BCD" d="M101.1,83.5l-10,3.9c-0.3,2.2-4,10.1-5.8,11.7l3,6.7c7.9-3.5,14.2-10,17.5-18.1
		C104.7,87,102,84.6,101.1,83.5z"/>
	<path fill="#008BCD" d="M51.4,94.8l-2.7-12.5c-1.4-1.4-4.8-6.7-5.4-9l-2.4,0.4c0,0.5,0,1,0,1.5c0,7.7,2.6,14.7,6.9,20.4L51.4,94.8z
		"/>
	<path fill="#008BCD" d="M87.9,49.2l2.7-3.6c-4.8-2.6-10.3-4.1-16.1-4.1c-3.4,0-6.7,0.5-9.8,1.5v1.2l9.2,3.4
		C76.5,46.9,85.8,48.5,87.9,49.2z"/>
</g>
</svg>
