<?xml version="1.0" encoding="iso-8859-1"?>
<!-- Generator: Adobe Illustrator 13.0.0, SVG Export Plug-In . SVG Version: 6.00 Build 14948)  -->
<!DOCTYPE svg PUBLIC "-//W3C//DTD SVG 1.1//EN" "http://www.w3.org/Graphics/SVG/1.1/DTD/svg11.dtd">
<svg version="1.1" id="Layer_1" xmlns="http://www.w3.org/2000/svg" xmlns:xlink="http://www.w3.org/1999/xlink" x="0px" y="0px"
	 width="100px" height="100px" viewBox="0 0 100 100" enable-background="new 0 0 100 100" xml:space="preserve">
<g>
	<g>
		<path fill="#0087C0" d="M33.148,54.561c-1.134,0.969-2.294,1.926-3.23,3.086c3.059-2.012,6.124-4.041,9.459-5.57
			c3.164-1.557,6.46-2.782,9.795-3.896c1.761-0.541,3.547-1.015,5.313-1.549c8.141-1.997,16.486-2.979,24.844-3.494
			c-2.735-0.751-5.576-0.956-8.404-0.89c-1.094-2.789-2.656-5.471-5.056-7.35c0.448,2.479,0.343,5.069-0.804,7.356
			c-0.416-1.833-0.871-3.658-1.536-5.418c-0.165-0.316-0.495-0.942-0.659-1.259c-7.073,1.793-14.054,4.047-20.652,7.191l0.053,0.06
			c-1.898,0.811-3.705,1.819-5.504,2.834c-3.006,1.892-6.078,3.771-8.55,6.354c1.443-0.573,2.861-1.22,4.298-1.8
			C32.509,51.688,32.687,53.15,33.148,54.561z"/>
		<path fill="#0087C0" d="M52.219,68.977c-0.93-0.032-14.588,0.053-16.4,0.027c1.16,2.59,3.144,4.771,5.702,6.037
			c0.653,2.117,2.136,7.277,2.136,7.277h8.563h8.569c0,0,1.483-5.16,2.136-7.277c2.564-1.266,4.548-3.447,5.701-6.037
			C66.812,69.029,53.154,68.944,52.219,68.977z"/>
	</g>
	<g>
		<path fill="#BA2B2B" d="M63.358,29.453c-1.443-0.006-2.927,0.534-4.344,0.218c-2.182-2.571-5.036-4.595-6.69-7.581
			c-0.771-3.145,0.633-6.144,2.129-8.82c-6.427,3.23-11.694,9.512-12.182,16.881c-0.396,1.681-0.119,3.435-0.112,5.142
			c-0.396-0.468-0.791-0.929-1.18-1.384l-0.211-0.059c-2.09-2.09-5.221-2.551-8.055-2.38c1.483,1.272,3.401,2.439,3.724,4.542
			c0.165,1.49,0.244,3.355-1.074,4.364c-2.485,2.307-4.983,4.634-7.053,7.323c2.182-1.885,4.456-3.665,6.73-5.445
			C43.649,36.374,53.359,32.281,63.358,29.453z"/>
		<path fill="#BA2B2B" d="M32.47,61.541c-0.06,2.123-0.053,4.246-0.046,6.368c2.096-0.079,39.583-0.02,39.583-0.02l0.021-6.124
			L32.47,61.541z"/>
		<path fill="#BA2B2B" d="M75.178,49.604c-6.11,0.296-24.152,2.9-26.539,3.592c-6.941,2.011-13.916,4.442-19.769,8.747
			c2.169-0.995,4.324-2.057,6.612-2.801c0.666,0.619,1.167,1.746,2.254,1.516C47.986,60.56,58.25,60.836,68.5,60.5
			c0.205-0.27,0.62-0.817,0.824-1.094l0.092-0.014c0.68-1.345,1.325-2.709,1.853-4.127c0.337-1.424,0.606-2.86,0.759-4.324
			c2.175-0.27,4.37-0.454,6.552-0.632c2.551,0.125,5.168-0.105,7.646-0.765C82.567,49.05,78.823,49.09,75.178,49.604z"/>
	</g>
</g>
</svg>
