<?xml version="1.0" encoding="utf-8"?>
<!-- Generator: Adobe Illustrator 18.1.0, SVG Export Plug-In . SVG Version: 6.00 Build 0)  -->
<svg version="1.1" id="Layer_1" xmlns="http://www.w3.org/2000/svg" xmlns:xlink="http://www.w3.org/1999/xlink" x="0px" y="0px"
	 viewBox="0 0 150 150" enable-background="new 0 0 150 150" xml:space="preserve">
<g>
	<path fill="none" d="M125.1,87.1c0.3,0.1,0.5,0.1,0.8,0.2v-0.1C125.6,87.2,125.4,87.2,125.1,87.1z"/>
	<path fill="none" d="M77.3,39.4h9.7v9.8h-9.7V39.4z M77.3,52h9.7v9.7h-9.7V52z M64.6,39.4h9.7v9.8h-9.7V39.4z M64.6,52h9.7v9.7
		h-9.7V52z"/>
	<path fill="none" d="M56.6,105.4c-0.1,6.9,1.9,13.3,5.5,18.1c3.4,4.5,7.7,6.9,12.3,7l0.1,2v-2c9.8,0,18.2-11.4,18.3-24.8
		c0-0.8,0-1.5-0.1-2.3l-35.9-1.7C56.7,102.8,56.6,104.1,56.6,105.4z"/>
	<path fill="none" d="M77.6,92.6c0.1,0.8-0.2,1.2-0.4,1.5c-0.3,0.4-0.9,0.6-1.4,0.6h0c-0.8,0-1.7-0.5-2-1.4
		c-0.4-0.3-0.6-0.8-0.7-1.4c-0.2-1.7-0.3-3.6-0.2-5.5c0-1.9,0.1-3.8,0.5-5.8c-7.1,1-13.3,7.9-15.6,17.1l34.7,1.7
		c-1.7-9.2-7.2-16.5-14-18.4C77.2,84.9,77.2,89,77.6,92.6z"/>
	<rect x="64.6" y="39.4" fill-rule="evenodd" clip-rule="evenodd" fill="#BE202C" width="9.7" height="9.8"/>
	<rect x="77.3" y="52" fill-rule="evenodd" clip-rule="evenodd" fill="#BE202C" width="9.7" height="9.7"/>
	<rect x="64.6" y="52" fill-rule="evenodd" clip-rule="evenodd" fill="#BE202C" width="9.7" height="9.7"/>
	<rect x="77.3" y="39.4" fill-rule="evenodd" clip-rule="evenodd" fill="#BE202C" width="9.7" height="9.8"/>
	<path fill="#00517B" d="M97.9,100.5c-1.5-11.7-8.6-20.9-18.1-23.3c-0.6,1.2-1.1,2.5-1.5,3.8c6.8,1.9,12.3,9.2,14,18.4l-34.7-1.7
		c2.3-9.1,8.5-16.1,15.6-17.1c0.2-1.3,0.6-2.7,1-4C63.4,77.1,54.6,86,52,98.3c-0.3,0.3-0.5,0.7-0.6,1.1c0,0.3,0.1,0.6,0.2,0.9
		c-0.3,1.7-0.4,3.4-0.4,5.1c-0.1,7.5,2.1,14.6,6.2,20c4.4,5.7,10.4,8.9,16.9,9c0,0,0.1,0,0.1,0c13.1,0,23.5-12.6,23.7-28.7
		c0-1.2,0-2.3-0.1-3.4c0.1-0.2,0.2-0.4,0.2-0.6C98.3,101.2,98.1,100.8,97.9,100.5z M74.5,130.4v2V130.4c-4.6,0-9-2.5-12.4-7
		c-3.6-4.8-5.6-11.2-5.5-18.1c0-1.3,0.1-2.5,0.3-3.8l35.9,1.7c0,0.8,0.1,1.5,0.1,2.3C92.6,119,84.3,130.4,74.5,130.4z"/>
	<path fill="#00517B" d="M135.3,59L88,11.6c-3.5-3.5-8.2-5.4-13.1-5.4c-4.9,0-9.6,1.9-13.1,5.4L58,15.5c-2.7-2.3-6.2-3.5-9.9-3.5
		h-7.5C32.2,12,25,18.7,25,27.2v20.9L14.3,59c-3.5,3.5-5.4,8.2-5.4,13.1c0,5,2,9.6,5.5,13.1l0.4,0.5l1.2,0.5V124
		c0,10.3,8.6,19,19,19h79.7c10.3,0,18.3-8.7,18.3-19V91.4c-1,0.6-2.9,0.9-4.7,0.9c-0.8,0-1.3-0.1-2.3-0.2V124c0,6.2-5.1,11-11.3,11
		H35c-6.2,0-11-4.8-11-11V81.2l-4.6-1.9c-1.8-2-2.8-4.6-2.8-7.3c0-2.9,1.2-5.7,3.3-7.8l13.1-13V27.2c0-4.3,3.3-8.2,7.7-8.2h7.5
		c2.7,0,5.1,1.5,6.6,3.7l2.5,3.9l9.8-9.7c2.1-2.1,4.8-3.2,7.8-3.2c2.9,0,5.7,1.2,7.8,3.2L130,64.3c2.1,2.1,3.2,4.8,3.2,7.8
		c0,2.7-0.9,5.3-2.7,7.3l-4.5,1.9v0.1c0,0-0.4,0.1-0.6,0.1c-4.3,0-9.5-4.6-14.5-9.1c-4.6-4.1-8.9-8-12.6-8.5
		c-8.2-1.1-14.8,0.7-19.6,5.4c-2.1,2.1-3.5,4.6-4.5,7.4c-0.4,1.3-0.8,2.6-1,4c-0.3,1.9-0.5,3.9-0.5,5.8c0,1.9,0.1,3.8,0.2,5.5
		c0.1,0.6,0.3,1.2,0.7,1.5c0.4,0.9,1.2,1.5,2,1.5h0c0.6,0,1.1-0.3,1.4-0.7c0.2-0.3,0.5-0.8,0.4-1.6c-0.4-3.6-0.4-7.8,0.7-11.7
		c0.4-1.3,0.9-2.6,1.5-3.8c1.3-2.5,3.2-4.7,6-6.2c2.4-1.4,5-2,7.7-2c4.4,0,8.8,1.8,12.6,5.1c0.8,0.7,1.8,1.6,2.8,2.6
		c2.7,2.5,5.9,5.5,9.3,7.7c2.3,1.5,4.8,2.6,7.1,2.9c0.3,0,0.9,0,0.9,0v0.1c1,0.1,1.4,0.2,2,0.2c2.8,0,5.1-1.1,7.1-3.2
		c0.5-0.5,1-0.8,1.7-0.8c2.5-3.2,3.9-7.2,3.9-11.4C140.8,67.1,138.8,62.5,135.3,59z"/>
</g>
</svg>
