<?xml version="1.0" encoding="utf-8"?>
<!-- Generator: Adobe Illustrator 18.1.0, SVG Export Plug-In . SVG Version: 6.00 Build 0)  -->
<svg version="1.1" id="Layer_1" xmlns="http://www.w3.org/2000/svg" xmlns:xlink="http://www.w3.org/1999/xlink" x="0px" y="0px"
	 viewBox="0 0 150 150" enable-background="new 0 0 150 150" xml:space="preserve">
<g>
	<path fill="none" d="M125,100.1c-2.1,0.5-3.9,3.4-4,6.5c-0.1,3.1,1.5,5.2,3.5,4.6c2-0.6,3.7-3.4,3.9-6.5
		C128.5,101.7,127,99.6,125,100.1z"/>
	<path fill="none" d="M125.7,82.1c-2.1,0.3-3.9,3.1-4,6.3c-0.1,3.2,1.5,5.4,3.6,5c2-0.4,3.7-3.2,3.9-6.3
		C129.2,84,127.7,81.8,125.7,82.1z"/>
	<path fill="#1A1A1A" d="M131.4,47.6l-24.7-0.3c-1.1-4.1-3.2-7.6-6-9.8l9.7-19.7c0.1,0,0.1,0,0.2,0.1c1.8,0.2,3.3-1.7,3.3-4.3
		c0.1-2.6-1.3-5-3-5.3c-1.8-0.3-3.3,1.6-3.4,4.3c0,1.1,0.2,2.1,0.5,2.9L97.9,35.8c-1.2-0.5-2.5-0.9-3.8-0.9
		c-1.3-0.1-2.5,0.1-3.7,0.4L81,12.2c0.5-0.8,0.9-1.9,0.9-3.1c0.1-3-1.7-5.7-4-6.1c-2.3-0.4-4.3,1.7-4.4,4.8
		c-0.1,3.1,1.8,5.8,4.2,6.1c0.1,0,0.1,0,0.2,0l9.5,22.7c-3.4,2.1-6.2,5.7-7.8,10.4l-39.9-0.5c-3.7,0-6.6,3.3-6.6,7.5v9.4
		c0,0,0,0,0,0v2c3-0.6,7.5-0.6,11.4,0.1l0-4.8c0,0,0,0,0.1,0c0.9-1.1,2.1-1.8,3.5-1.9l66.4-1.8c1.6,0,2.8,1.8,2.7,4.1l-1.8,49.3
		c-0.1,2.2-1.4,4.3-2.9,4.8l-33.2,9.1c-1.4,0.8-2.8,1.5-4.4,2c-2.1,0.7-4.3,1-6.5,1l-20.8,5.7c-1.9,0.5-3.4-0.4-4.1-2.1
		c-3.4,0.5-7.4,0.5-10.4-0.1v3.6c0,0,0,0,0,0v7.5c0,3.9,2.7,6.1,6.3,5l89.3-27.9c1.8-0.5,3.2-3.2,3.3-5.8l2.6-60.2
		C134.6,50,133.2,47.6,131.4,47.6z M128.4,104.8c-0.1,3-1.8,5.9-3.9,6.5c-2.1,0.6-3.7-1.5-3.5-4.6c0.1-3.1,1.9-6.1,4-6.5
		C127,99.6,128.5,101.7,128.4,104.8z M129.1,87.1c-0.1,3.1-1.8,5.9-3.9,6.3c-2.1,0.4-3.7-1.8-3.6-5c0.1-3.2,1.9-6,4-6.3
		C127.7,81.8,129.2,84,129.1,87.1z"/>
	<path fill="#E96026" d="M66,103.6c2.1-10-1.3-19.9-8.1-26.6c1.5-2.4,4.5-5.9,9.5-6.3c4.6-0.3,7.8,1.9,9.6,3.8
		c-1.8,2.4-3.1,5.2-3.8,8.4c-2.4,11.5,5,22.9,16.5,25.3c11.6,2.4,22.9-5,25.3-16.5c2.4-11.6-4.9-22.9-16.5-25.3
		c-6.3-1.3-12.5,0.3-17.2,3.8c-2.7-2.8-7.4-6-14.2-5.5c-7.2,0.4-11.6,5-13.9,8.5c-2.8-1.8-6-3.1-9.4-3.8C27.9,66,12.6,76,9.3,91.6
		C6,107.2,16,122.6,31.8,125.9C47.3,129.2,62.7,119.1,66,103.6z M107.4,90.1c-1.5,7.4-8.8,12-16.2,10.5c-7.4-1.6-12-8.7-10.5-16.1
		c1.6-7.4,8.7-12.2,16.1-10.6C104.2,75.4,109,82.7,107.4,90.1z M98.4,67.6c5.6,1.2,10.1,4.4,12.9,8.8c-1.2,1.5-2.4,3-3.7,4.3
		c-1.9-3.9-5.7-7-10.3-8c-8.2-1.7-16.3,3.5-18,11.7c-0.5,2.4-0.5,4.8,0.1,7.1c-3.4-0.2-5.5-0.7-5.5-0.7c-0.4-2.5-0.3-5,0.2-7.5
		C76.5,72.3,87.3,65.3,98.4,67.6z M56.5,101.6c-2.2,10.4-12.4,17.1-22.8,14.9c-10.5-2.2-17.1-12.4-14.9-22.8
		C21,83.2,31.2,76.5,41.7,78.8C52.1,80.9,58.7,91.2,56.5,101.6z M10.5,91.9c3.2-15,17.9-24.5,32.9-21.3c7.5,1.6,13.6,6,17.4,11.9
		c-1.6,2.2-3.1,4-4.9,5.8c-2.7-5.4-7.7-9.4-14-10.8c-11.1-2.3-22.1,4.8-24.4,15.9c-0.7,3.3-0.6,6.4,0.1,9.5
		c-4.5-0.2-7.3-0.8-7.4-0.8C9.8,98.8,9.8,95.3,10.5,91.9z"/>
	<path fill="#FFFFFF" d="M41.7,78.8C31.2,76.5,21,83.2,18.9,93.6c-2.2,10.4,4.4,20.6,14.9,22.8c10.4,2.2,20.6-4.5,22.8-14.9
		C58.7,91.2,52.1,80.9,41.7,78.8z M49.7,100.1c-1.4,6.6-8,10.8-14.5,9.4c-6.6-1.4-10.8-7.8-9.5-14.4c0.7,1.4,2,2.4,3.7,2.8
		c2.8,0.6,5.5-1.2,6.1-4c0.6-2.9-1.2-5.7-4-6.3l-0.8-0.2c2.7-1.8,6-2.7,9.5-1.9C46.7,87,51.1,93.5,49.7,100.1z"/>
	<path fill="#FFFFFF" d="M96.8,73.8c-7.4-1.6-14.6,3.2-16.1,10.6c-1.5,7.4,3.1,14.5,10.5,16.1c7.4,1.6,14.7-3.1,16.2-10.5
		C109,82.7,104.2,75.4,96.8,73.8z M103.1,89.2c-1,5-5.9,8.1-10.9,7c-5-1-8.1-5.9-7.1-10.8c0.5,1.1,1.5,1.9,2.7,2.2
		c2.2,0.5,4.4-1,4.8-3.1c0.4-2.1-1-4.2-3.2-4.7c-0.2-0.1-0.4-0.1-0.6,0c2-1.5,4.6-2.1,7.1-1.5C101,79.3,104.1,84.1,103.1,89.2z"/>
	<path fill="#25292B" d="M40.2,85.6c-3.5-0.7-6.8,0.1-9.5,1.9l0.8,0.2c2.8,0.6,4.6,3.4,4,6.3c-0.6,2.8-3.4,4.6-6.1,4
		c-1.7-0.4-3-1.4-3.7-2.8c-1.4,6.5,2.8,13,9.5,14.4c6.5,1.4,13.1-2.8,14.5-9.4C51.1,93.5,46.7,87,40.2,85.6z"/>
	<path fill="#25292B" d="M95.9,78.2c-2.5-0.5-5.2,0-7.1,1.5c0.3-0.1,0.4,0,0.6,0c2.2,0.5,3.6,2.6,3.2,4.7c-0.5,2.2-2.6,3.6-4.8,3.1
		c-1.2-0.3-2.2-1.1-2.7-2.2c-1,5,2.1,9.8,7.1,10.8c5.1,1.1,9.9-2.1,10.9-7C104.1,84.1,101,79.3,95.9,78.2z"/>
	<path fill="#EA8023" d="M17.7,102.8c-0.7-3.1-0.8-6.2-0.1-9.5C19.9,82.2,30.8,75.1,42,77.4c6.3,1.3,11.3,5.4,14,10.8
		c1.8-1.8,3.3-3.6,4.9-5.8c-3.8-5.9-9.9-10.3-17.4-11.9c-15-3.2-29.7,6.4-32.9,21.3c-0.7,3.4-0.7,6.9-0.3,10.2
		C10.4,102.1,13.2,102.7,17.7,102.8z"/>
	<path fill="#EA8023" d="M74.1,83.3c-0.5,2.5-0.6,5.1-0.2,7.5c0,0,2.2,0.5,5.5,0.7c-0.7-2.3-0.7-4.7-0.1-7.1
		c1.7-8.2,9.8-13.5,18-11.7c4.6,1,8.4,4,10.3,8c1.3-1.2,2.5-2.8,3.7-4.3c-2.9-4.4-7.4-7.6-12.9-8.8C87.3,65.3,76.5,72.3,74.1,83.3z"
		/>
	<path fill="#E96026" d="M79.2,124.1c3.7-2.3,6.6-5.7,8-9.7c0.4-1.2-0.2-2.4-1.5-2.8c-1.2-0.4-2.6,0.3-3,1.5c-1.5,4.1-5,7.4-9.3,8.8
		c-4.3,1.4-9.1,0.7-12.7-1.7c-1-0.7-2.5-0.5-3.3,0.5c-0.8,1-0.6,2.4,0.4,3.1c3,2.1,6.7,3.2,10.4,3.3c2.2,0,4.4-0.3,6.5-1
		C76.3,125.7,77.8,125,79.2,124.1z"/>
</g>
</svg>
