<?xml version="1.0" encoding="iso-8859-1"?>
<!-- Generator: Adobe Illustrator 13.0.0, SVG Export Plug-In . SVG Version: 6.00 Build 14948)  -->
<!DOCTYPE svg PUBLIC "-//W3C//DTD SVG 1.1//EN" "http://www.w3.org/Graphics/SVG/1.1/DTD/svg11.dtd">
<svg version="1.1" id="Layer_1" xmlns="http://www.w3.org/2000/svg" xmlns:xlink="http://www.w3.org/1999/xlink" x="0px" y="0px"
	 width="100px" height="100px" viewBox="0 0 100 100" enable-background="new 0 0 100 100" xml:space="preserve">
<g>
	<g>
		<path fill="#50453F" d="M55.106,29.765c-0.835,1.049-1.277,2.239-1.324,3.574c-0.097,3.911-0.145,7.82-0.145,11.726
			c0,3.911,0,7.82,0,11.727c0,3.911,0,7.819,0,11.729c0,3.908,0.023,3.425,0.074,7.332c0,2.383-0.43,4.587-1.289,6.614
			c-0.857,2.025-2.048,3.814-3.574,5.362c-1.525,1.551-3.302,2.812-5.329,3.789c-2.026,0.978-4.181,1.584-6.471,1.824l-0.214-0.072
			l-0.501-0.642l0.645-0.503c1.144-0.331,2.216-0.883,3.218-1.644c1-0.764,1.906-1.645,2.717-2.646
			c0.808-1.002,1.503-2.074,2.072-3.218c0.574-1.145,1.003-2.289,1.287-3.433c0.43-1.861,0.644-3.695,0.644-5.506V33.552
			c0-0.331-0.023-0.644-0.07-0.927c-0.049-0.288-0.119-0.574-0.214-0.86c-0.288-0.761-0.608-1.324-0.966-1.679
			c-0.357-0.358-0.728-0.632-1.11-0.823c-0.38-0.189-0.784-0.333-1.213-0.428c-0.429-0.096-0.882-0.263-1.359-0.503l-0.214-0.714
			l0.644-0.429c5.336,0.382,10.654,0.168,15.946-0.644v1.287C57.024,28.071,55.938,28.714,55.106,29.765z"/>
	</g>
	<polygon fill="#D15630" points="38.587,60.942 39.767,63.33 42.405,63.715 40.497,65.573 40.948,68.201 38.587,66.96 
		36.227,68.201 36.677,65.573 34.77,63.715 37.407,63.33 	"/>
	<polygon fill="#D15630" points="61.027,60.942 62.208,63.33 64.846,63.715 62.938,65.573 63.388,68.201 61.027,66.96 
		58.668,68.201 59.118,65.573 57.21,63.715 59.848,63.33 	"/>
	<g>
		<path fill="#2D5180" d="M80.102,43.143c0-16.278-13.193-29.472-29.472-29.476C34.35,13.67,21.155,26.864,21.151,43.143
			c0.002,9.548,4.562,18.004,11.601,23.394v-5.834c-4.442-4.522-7.194-10.715-7.204-17.56c0.024-13.854,11.226-25.054,25.083-25.078
			c13.85,0.024,25.055,11.225,25.077,25.078c-0.013,7.736-3.52,14.643-9.022,19.24v5.456C74.755,62.58,80.102,53.493,80.102,43.143z
			"/>
	</g>
</g>
</svg>
