<?xml version="1.0" encoding="utf-8"?>
<!-- Generator: Adobe Illustrator 18.1.0, SVG Export Plug-In . SVG Version: 6.00 Build 0)  -->
<svg version="1.1" id="Layer_1" xmlns="http://www.w3.org/2000/svg" xmlns:xlink="http://www.w3.org/1999/xlink" x="0px" y="0px"
	 viewBox="0 0 2000 2000" enable-background="new 0 0 2000 2000" xml:space="preserve">
<g>
	<path fill="#FFC03B" d="M1329.4,1531.9c9.5,5.1-261.3,91.7-385.1-105.7c0.6-2.4-4-62.1-147.5-122.1H513.3
		c167.5,374,565.9,380.3,565.9,380.3c412-27.2,556.9-380.3,556.9-380.3h-123.5c5.8,12,11.1,15.4,15.7,23.5
		C1525.3,1322.2,1571.3,1441.8,1329.4,1531.9z"/>
	<path fill="#B55366" d="M1800.6,991H803v96c0,0,851.4,0,945.3,0c-25.7,350-316.9,625.6-672,625.6c-371.9,0-674.5-299.6-674.5-673.6
		h-99.6c0,434,347.1,775.3,773.9,775.3c426.9,0,773.9-346,773.9-772.9V991H1800.6z"/>
	<path fill="#55924E" d="M324.9,953.4c79.2,82.3,189.3,180.4,288.2,246.5c97.5,68,183.9,104.1,182.8,105.3c0.3,0.1,0.6,0.2,0.9,0.4
		c143.6,54.4,148.1,118.9,147.5,121.3c123.8,197.5,394.7,110,385.1,104.9c241.9-90.1,195.9-208.8,198.9-203.5
		c-4.6-8.1-9.9-15.7-15.7-22.7c-59-71.2-171.5-86.3-170.5-88.8c-238.5-87.6-347.6,34.8-359.5,39.3c-51.8,44.2-91.8,24.4-91.2,24.6
		c-26-6.4-51.8-13.9-77.4-22.3c-80.9-20.4-192.1-91.5-269-166.3c-79.2-73.4-124.2-150.6-124.9-149.2
		c-97.8-195.9-136.8-312.3-140.5-312.2c-53.6-88.9-100.8-56.5-101.5-55.1c-52,48.5-23.7,159.1,27.2,240.1
		C254.6,899.5,326.3,953.7,324.9,953.4z"/>
	<path fill="#6CAB36" d="M1136.5,707.1c-402-48.6-521.1,128.6-554.9,214.4c77.4-56.9,216.1-137,389.7-142.4
		c0,0-221.1,57.1-381.9,194.3C854.7,1065.4,1136.5,707.1,1136.5,707.1z"/>
	<path fill="#6CAB36" d="M514.8,892.5c-24-50.5-54.3-138.6-38.3-238.4c0,0,8.2,132.6,68.7,239.7c81.8-141.4-91.6-342-91.6-342
		C381.4,776.2,469.5,863.7,514.8,892.5z"/>
	<path fill="#FFC03B" d="M1141,490c261.1,0,475.8,200,501,453h205.3c-25.8-361-332.1-657.7-706.3-657.7
		c-240.1,0-452.1,119.7-580.2,302.4l171.5,112C823.7,572.8,972.6,490,1141,490z"/>
</g>
</svg>
