<?xml version="1.0" encoding="utf-8"?>
<!-- Generator: Adobe Illustrator 18.1.0, SVG Export Plug-In . SVG Version: 6.00 Build 0)  -->
<svg version="1.0" id="Layer_1" xmlns="http://www.w3.org/2000/svg" xmlns:xlink="http://www.w3.org/1999/xlink" x="0px" y="0px"
	 viewBox="0 0 150 150" enable-background="new 0 0 150 150" xml:space="preserve">
<g>
	<path d="M134.3,12.7L123.7,16c-4,1.3-8.2,1.9-12.7,1.9c-15,0-19.1-9.7-19.1-9.7L59.6,8.3c0,0-4,9.6-19,9.6c-4.5,0-8.8-0.6-12.7-1.9
		l-10.5-3.3V55c0,37.2,28,68.6,54.1,85.6l4.6,2.9l4.5-3.1c26.6-18.4,53.8-43,53.8-85.4V12.7z M132.9,55.5
		c0,41.5-26.6,65.5-52.6,83.5l-4.4,3l-4.5-2.9c-25.6-16.6-52.9-47.2-52.9-83.6V14.1l10.3,3.3c3.9,1.2,8.1,1.8,12.4,1.8
		C56,19.3,60,9.9,60,9.9l31.6-0.1c0,0,4,9.5,18.6,9.5c4.4,0,8.6-0.6,12.4-1.8l10.3-3.3V55.5z"/>
	<g>
		<path fill="#C32026" d="M97.8,91.2c-1.4,0-2.6,1.2-2.6,2.6c0,1.4,1.2,2.6,2.6,2.6c1.5,0,2.6-1.2,2.6-2.6
			C100.4,92.4,99.3,91.2,97.8,91.2z"/>
		<path fill="#C32026" d="M53.4,91.2c-1.4,0-2.6,1.2-2.6,2.6c0,1.5,1.2,2.6,2.6,2.6c1.4,0,2.6-1.2,2.6-2.6
			C56.1,92.4,54.9,91.2,53.4,91.2z"/>
		<path fill="#C32026" d="M119.3,21.5c-3.6,1.1-7.5,1.7-11.6,1.7c-13.6,0-17.3-8.8-17.3-8.8l-29.4,0.1c0,0-3.7,8.7-17.3,8.7
			c-4.1,0-8-0.6-11.6-1.7l-9.6-3v38.4c0,33.8,25.4,62.3,49.1,77.7l4.1,2.7l4.1-2.8c24.2-16.7,48.9-39,48.9-77.5V18.5L119.3,21.5z
			 M39.9,46.1l8.2,8.2l8.1-2.2l2.2-8.1l-8.2-8.2c4.9-1.3,10.3-0.1,14.1,3.7c3.8,3.9,5.1,9.3,3.7,14.2l5.9,5.9l-9.7,9.7l-5.6-5.6l0,0
			c-5,1.6-10.8,0.5-14.8-3.5C39.8,56.4,38.6,51,39.9,46.1z M82.4,118l-6.4-4.6l-6.4,4.6l2.4-7.5l-6.4-4.6h7.9l2.4-7.5l2.4,7.5h7.9
			l-6.4,4.6L82.4,118z M102.1,97.6c-1.4,1.3-3.1,2-4.8,2c-1.8,0-3.5-0.7-4.9-2l-14-14l9.7-9.7l14,14C104.7,90.6,104.7,95,102.1,97.6
			z M107.7,60.2c-3.9,3.8-9.3,5.1-14.2,3.7L59.4,98c-2.7,2.7-7,2.7-9.7,0c-1.3-1.3-2-3.1-2-4.9c0-1.8,0.7-3.5,2-4.9l33.9-33.9l0-0.1
			c-1.6-5-0.5-10.8,3.5-14.8c3.8-3.8,9.2-5,14.1-3.7L93,44.1l2.2,8.1l8.1,2.2l8.2-8.2C112.8,51,111.5,56.4,107.7,60.2z"/>
	</g>
</g>
</svg>
