<?xml version="1.0" encoding="utf-8"?>
<!-- Generator: Adobe Illustrator 18.1.0, SVG Export Plug-In . SVG Version: 6.00 Build 0)  -->
<svg version="1.1" id="Layer_1" xmlns="http://www.w3.org/2000/svg" xmlns:xlink="http://www.w3.org/1999/xlink" x="0px" y="0px"
	 viewBox="0 0 150 150" enable-background="new 0 0 150 150" xml:space="preserve">
<g>
	<path fill="none" d="M36.9,62.1c0.4-0.2,0.9-0.4,1,0.1c0.5,0.1,3-0.5,2.8,0.2l0.1,0c-0.2-0.5-0.6-1-1.1-1.1
		c-0.1,0.1-0.1,0.2-0.2,0.3c0,0-0.6,0.2-0.6,0.2c-0.2-0.3-0.5-0.5-0.8-0.7c0,0.1,0,0.1,0,0.2c0,0-0.6,0.2-0.6,0.2
		c-0.3-0.3-0.5-0.5-0.8-0.5c-0.4,0.3-0.6,0.7-0.7,1.3c0,0-0.6,0.2-0.6,0.2c-0.2-0.2-0.4-0.3-0.6-0.4c-0.1,0.2-0.1,0.4-0.1,0.6
		c0.1,0,0.2,0,0.3,0c0.2,0,0.4,0,0.5-0.1c0,0-0.1,0.1-0.2,0.1c0.1,0,0.2,0,0.2,0C36.2,62.7,36.3,62.4,36.9,62.1z"/>
	<path fill="none" d="M37,32.7C37,32.7,37,32.7,37,32.7c-0.1,0-0.3,0.1-0.4,0.1C36.7,32.8,36.9,32.8,37,32.7z"/>
	<path fill="none" d="M46.1,22.8c0-0.9,2.8-1.7,3.3-1.8c-0.3-0.8-0.9-0.5-0.9-0.5s0.1,0.4-0.8,0.5c-0.5,0-1.3,1.1-1.8,1.8
		c0,0.5,0,1.5,0,1.7c-0.1,0.3-0.2,0.5-0.5,0.7c-0.1,0-0.1,0.1-0.2,0.1c0.1,0.5,0.2,1,0.2,1.5c0.1-0.2,0.2-0.4,0.3-0.5
		C46.1,25.1,46.1,23.8,46.1,22.8z"/>
	<path fill="none" d="M47.9,39.3C47.9,39.4,47.8,39.4,47.9,39.3C47.8,39.4,47.8,39.4,47.9,39.3c-0.5-0.1-1-0.6-1.6-0.7
		c-0.1,0.4,0.1,0.9,0.1,1.2c-0.1,0.6-0.3,0.8-0.6,1.3c-0.6,1,0,2,0,3.1c-0.1,1.1-0.2,2.2-0.3,3.3c0.1-0.2,0.3-0.4,0.4-0.5
		c1-0.7,0.4-2.2,1.6-3c1.3-0.9,2-2,2.3-3.6c0.1-0.6,0.4-1.7-0.2-2.1c-0.4,0.4-0.6,0.8-1.2,0.9C48.2,39.4,48,39.4,47.9,39.3z"/>
	<path fill="none" d="M30.9,58.8c-0.1-0.1-0.2-0.1-0.3-0.1c0,0.1-0.1,0.2-0.1,0.3c0,0,0.1,0,0.1,0C30.8,58.9,31,58.8,30.9,58.8z"/>
	<path fill="none" d="M26.5,61.7c0.3-1-0.2-0.8-0.4-1.7c-0.1-0.4,0.2-0.8,0.3-1.1c0,0,0,0,0,0l-0.1-0.4c0.1,0.1,0.2,0.3,0.1,0.4
		c0.1,0.2,0.3,0.4,0.5,0.6c0-0.3,0-0.8,0.3-0.9c0,0,0,0,0,0c0,0,0,0,0,0c0,0,0,0,0,0c0.1,0,0.1,0,0.2,0c0,0,0,0,0.1,0
		c-0.9-0.1-1.2-0.6-1-1.5c0,0,0.3-0.1,0.5-0.1c0-0.8,0.5-1.6,1.2-2c-0.1,0-0.2,0-0.2,0c-0.1-0.2-0.2-0.3-0.3-0.5c0,0-0.1,0-0.1,0
		c-0.7,0.6-1.1,1.5-1.3,2.5c0,0-0.6,0.2-0.6,0.2c-0.2-0.2-0.3-0.3-0.5-0.3c-1.1,1.1-0.5,2.1,0.4,3.2c-0.1,0-0.3,0.1-0.4,0.1
		c-0.1,0-0.2,0.1-0.2,0.1c-0.1,0-0.3,0-0.4,0c-0.6,0.9,0.3,2.7,0.9,2.9C25.7,62.6,26.4,62.2,26.5,61.7z"/>
	<path fill="none" d="M27.3,60.1c0,0.1,0.1,0.1,0.1,0.2C27.5,60.1,27.4,60.1,27.3,60.1z"/>
	<path fill="none" d="M44.3,28c-0.1,0.2-0.2,0.4-0.2,0.6c0.2-0.2,0.3-0.5,0.5-0.7C44.5,27.9,44.4,27.9,44.3,28z"/>
	<path fill="none" d="M41.8,31.9c0.3-0.4,0.3-0.8,0.4-1.3c0,0,0,0.1,0,0.1c-0.3,1-0.5,0.7-1.1,0.6c-0.1,0-0.4,0-0.8,0.1
		c0.4,0.1,0.7,0.3,1.1,0.4C41.5,31.9,41.6,31.9,41.8,31.9z"/>
	<path fill="none" d="M44.2,24.1c0,0.3,0.1,0.8,0.3,1.3C44.3,24.9,44.2,24.4,44.2,24.1L44.2,24.1z"/>
	<path fill="none" d="M44.4,23.8c0.1-0.3,0.2-0.8,0.2-1.2C44.6,23.1,44.5,23.5,44.4,23.8z"/>
	<path fill="none" d="M44.5,27.7c0.5-0.5,0.2-1.4,0-2.3c0,0.3,0.1,0.6,0.2,0.8c0.2,0.4-0.2,1-0.8,1.6c0.2-0.1,0.3-0.1,0.5-0.1
		C44.4,27.8,44.4,27.8,44.5,27.7z"/>
	<path fill="none" d="M39.7,31.6c-0.2,0-0.4,0.1-0.5,0.1c0.1,0,0.2,0,0.3,0C39.5,31.7,39.6,31.6,39.7,31.6z"/>
	<path fill="none" d="M43.4,32c0.6,0.6,1.5,0.3,2.3,0.2C44.7,32,43.8,32,43.4,32C43.4,32,43.4,32,43.4,32z"/>
	<path fill="none" d="M24.2,54.9c-0.1,0-0.2,0.1-0.4,0.1C23.9,55,24,54.9,24.2,54.9L24.2,54.9z"/>
	<path fill="none" d="M42.7,29.6c0.5-0.3,0.5-0.8,0.6-1.2c-0.5,0.5-0.8,1-1,1.6C42.5,29.9,42.6,29.7,42.7,29.6z"/>
	<path fill="#FFD7A1" d="M34.8,62.7C34.8,62.7,34.8,62.7,34.8,62.7c0.1-0.1,0.2-0.1,0.2-0.1c-0.1,0-0.2,0-0.3,0
		C34.7,62.6,34.7,62.7,34.8,62.7z"/>
	<path fill="#FFD7A1" d="M40.7,62.3c0.2-0.7-2.3-0.1-2.8-0.2c-0.1-0.5-0.7-0.2-1-0.1c-0.7,0.3-0.7,0.6-1.4,0.5c-0.1,0-0.2,0-0.2,0
		c-0.1,0.1-0.2,0.1-0.4,0.2c0,0,0,0,0.1,0c-0.2,0.1-0.4,0.1-0.6,0.2c0,0,0.1,0,0.1,0c-0.3,0-0.5-0.1-0.4-0.5c0,0,0,0,0,0
		c-0.4-0.1-0.7-0.2-1.1-0.2c-1.2-0.7-2.4,1-0.1,1.1c0.4,0,0.7,0,1.1,0.1c0.7,0.2,0.7,0.1,1.4,0c1.6-0.2,3.8,0.7,5.1-0.5
		c0.1-0.1,0.2-0.2,0.2-0.3c0,0,0-0.1-0.1-0.1C40.6,62.4,40.7,62.4,40.7,62.3z"/>
	<path fill="#FFE5E2" d="M40.6,63.3c0.1-0.1,0.1-0.1,0.2-0.2c-0.6,0.2-1.1,0.4-1.6,0.6C39.7,63.6,40.2,63.5,40.6,63.3
		C40.5,63.3,40.5,63.3,40.6,63.3z"/>
	<path fill="#FFE5E2" d="M53.3,39.1c-1.6,0.2-3-0.5-2.4-0.5c0.6,0,0.5-0.2,0.1-0.6c-0.5-0.4,0-1.1,0.7-1.7c0.7-0.6,0.7-1.1-0.3-1.6
		c-1.1-0.5-0.8-0.9-0.5-1.2c0.3-0.3,0.9-0.7,0.5-1.4c-0.5-0.7,0.5-2.4,1.3-3.3c0.8-0.8,0.7-1.6,0.2-1.7c-0.6-0.1-1.8,0.2-2.5,0.6
		c-0.7,0.5-1-0.2-1-0.6c-0.1-0.5,0.3-0.9,0.3-0.9c-0.2-0.3,0.1-3.4,0-4.8c0-0.2-0.1-0.4-0.1-0.5c-0.5,0.1-3.3,0.9-3.3,1.8
		c0,1,0,2.4-0.6,3.5c-0.1,0.2-0.2,0.3-0.3,0.5c0,0.4-0.1,0.8-0.5,1c0,0,0,0,0,0c0,0-0.1,0-0.1,0c-0.1,0-0.1,0-0.2,0.1
		c-0.2,0.3-0.4,0.5-0.5,0.7c0,0.2-0.1,0.5-0.3,0.6c-0.2,0.2-0.6,0.3-0.7,0.6c0,0.1,0,0.2,0,0.2c0.2-0.1,0.3-0.2,0.4-0.1
		c0.8,0.5-0.5,1.4-0.1,2c0.4,0.1,1.3,0.1,2.3,0.3c0.2,0,0.5,0,0.7,0.1c2.3,0.7,3.4,4.1,2.5,6.3c0.1-0.1,0.3-0.2,0.4-0.3l0,0
		c0,0,0,0,0.1,0c0.1-0.1,0.3-0.1,0.5-0.2c1-0.3,0.9,1.7,0.7,2.3c-0.4,1.2-0.7,2.4-1.9,3.2c-0.9,0.7-1.3,1-1.5,2.2
		c-0.1,0.6-0.4,1.1-0.8,1.5c0,0.4-0.1,1,0,1.4c0.9-0.4,1.8-1,2.9-1.2c1.6-0.4,3.4,0.8,4.9,1.7c-0.2-0.5-0.4-0.9-0.8-1.3
		c0.1,0.1,0.7-0.3,0.8-0.2c1.5,1.7,1.5,4.5,1.8,7c0,0.1,0,0.2,0,0.3c0.1,0.6,0.2,1.1,0.3,1.6c0.4,1.4,0.7,1.5-0.4,1.9
		c-0.1,0.2-0.2,0.4-0.4,0.4c-1.4,0.6-5.6,0.7-7.9,1C45.3,60,45.6,60,44.2,61c-1.4,1-1.3,0.3-2.2,1.1c-0.1,0.1-0.3,0.2-0.5,0.4
		c0,0.1-0.1,0.1-0.1,0.2c0,0.1,0,0.2-0.1,0.2c1-0.3,2.2-0.5,3.5-0.5c5.1-0.1,11.8,0.4,14-0.1c1.1-0.3,2-0.9,2.5-1.9
		c0.1-2.4,0-4.8-0.2-7.2c-0.7-4.7-1.6-11.4-2.2-12.8c-0.4-1-0.8-1.6-1.4-2.2c-0.4,0-0.8,0.1-1.3,0.1C54.1,38.2,54.9,38.9,53.3,39.1z
		"/>
	<path fill="#FFE5E2" d="M37.2,65.3c0.6,0,1.9-0.9,3-1.8c-0.4,0.1-0.9,0.2-1.3,0.3C37.4,64.5,36.7,65.3,37.2,65.3z"/>
	<path fill="#FFE5E2" d="M56.1,58.2c0-0.1,0-0.1-0.1-0.2c0,0.1-0.1,0.2-0.1,0.3C56.1,58.3,56.1,58.3,56.1,58.2z"/>
	<path fill="#F2EAE6" d="M40.5,21.7c0.3,0.6,0.1,1.4,0.5,1.2c0.3-0.1,0.2,0.2-0.1,0.3c-0.3,0.1,0.6,0.1,0.6,0.1s-1,1-1.4,1.3
		c-0.4,0.3-0.5,1.9-0.5,1.9s-0.5-0.1-1.4-0.6c-0.9-0.6-2.5-1.2-2.8-0.7c-0.3,0.6,0.6,1.4,0.1,1.8c-0.4,0.3-2.4,0.9-3.6,0.7
		c-0.1,0.3-0.2,0.7-0.1,0.9c0.3,0.4,5.2,3.4,5.2,3.4s0.3-0.1,0.7-0.1c0.5-0.2,1-0.3,1.4-0.3c0.2,0,0.4-0.1,0.5-0.1
		c0.2-0.1,0.3-0.2,0.5-0.1c0,0,0.1,0,0.1,0c0.4,0,0.7-0.1,0.8-0.1c0.6,0.1,0.8,0.4,1.1-0.6c0-0.1,0-0.1,0-0.1c0-0.2,0.1-0.4,0.2-0.6
		c0.2-0.6,0.4-1.1,1-1.6c0.1-0.2,0.2-0.3,0.3-0.4c0,0,0.1,0,0.1-0.1c0.6-0.7,1-1.3,0.8-1.6c-0.1-0.2-0.1-0.5-0.2-0.9
		c-0.1-0.5,0-1.4,0-1.4H45c0,0,0,0.1,0,0.1c0,0-0.4,0-0.3,0c0.1-0.1-0.1-0.2-0.1-0.3c0.1-0.3,0-0.8,0.1-1.2c0-0.4-0.1-0.8-0.2-1.2
		c0-0.2-0.1-0.3-0.2-0.5c-0.2-0.4-0.3-0.7-0.4-0.9c0,0-0.1,0-0.1,0C42.3,20.3,40.2,21.1,40.5,21.7z"/>
	<path fill="#B79787" d="M52.1,88.2c0,0-0.3,0.1-0.3,0.1c1.6,5-4.3,11-7,14.2c-5.2,6-8.9,14.5-7.7,22.5c0,0,0.3-0.1,0.3-0.1
		c-1.2-8.3,2.7-16.2,7.7-22.5C47.8,99,53.8,93.3,52.1,88.2z"/>
	<path fill="#B79787" d="M55.2,129.7c-2.3,0.3-4.7,1.3-6.9,2.1c-5.8,2.2-11.2,4.4-17.5,3.5c-2.1-0.3-5.2-1.2-6.2-3.4
		c-0.5-1.1,3.2-2.7,3.9-3.4c2.4-2.5,3.6-6.4,4.7-9.7c2.4-7.6,1.2-15.5,6.8-21.6c1.8-2,4.2-3.9,6.7-5c2.7-1.2,1.6-7.1,1.5-9.2
		c-0.4-6.4-1.2-12.9-2-19.3c0,0-0.8,0.2-0.8,0.2c0.6,4.6,1.1,9.2,1.5,13.9c0,0.1-0.8,0.1-0.8,0.2c-0.8,5.1-1.1,11.1-3.2,15.8
		c0.1-0.2,0.7-0.1,0.8-0.2c2.1-4.7,2.4-10.7,3.2-15.8c0.2,2.4,0.4,4.7,0.6,7.1c0.2,3.2,0.5,6.4-2.5,8c-3.3,1.7-6.1,4.6-8.2,7.6
		c-2.2,3.2-2,7-2.5,10.7c-0.6,4.4-1.9,8.7-3.7,12.8c-1.2,2.9-2.9,5.7-6,6.8c-2.6,1,1.6,3.5,2.3,3.8c4.3,2,9.6,1.3,14.1,0.1
		c4-1.1,7.6-3,11.5-4.3c3.6-1.2,7.1-0.4,10.7,0.4c8.2,1.8,16.5,3.4,24.9,3.8c-3.7-0.4-7.3-0.9-10.3-1.4
		C70.6,132.3,62.5,128.7,55.2,129.7z"/>
	<path fill="#B79787" d="M48.8,112.3c-1.4,0.6-2,2.3-2.2,3.8c-0.4,3.5,1.1,6.7-0.4,10.2c-0.6,1.3-1.5,2.2-2.6,2.8
		c1-0.5,1.9-1.3,2.6-2.3c1.9-2.9,0.8-6.7,0.6-9.8C46.9,115.6,47.3,112.9,48.8,112.3z"/>
	<path fill="#B79787" d="M41.1,53.8c-0.7-0.1-1.4,0.1-2,0.3c-0.4,0.1-0.8,0.3-1.1,0.7c-0.1,0.2-0.2,0.4-0.2,0.6
		c-0.3,0.3-0.4,0.5-0.2,0.9c0.3,0.1,0.4,0.2,0.1,0.3c-0.1,0.1-0.2,0.2-0.2,0.4c-0.2,0.6,0.5,1.2,0.9,1.4c0.2,0.1,0.6,0,0.9-0.1
		c0,1.4,2.7,0.6,3-0.4c0.2-0.9-1.1-1.8-1.9-1.7c0,0,0.1,0,0.1,0c-0.1,0-0.1,0-0.2,0.1c0,0,0,0,0,0c-0.1,0-0.3,0.1-0.4,0.1
		c0,0,0,0,0,0c0,0,0,0,0,0c-0.1,0-0.2,0.1-0.3,0.1c-0.6,0.4,0.2,0.8,0.6,0.8c0.2,0,0.4-0.1,0.6-0.2c-0.5,0.1-0.9-0.4-0.6-0.7
		c1,0.2,1.9,1.4,1.2,2.3c-0.5,0.6-1.5,0.3-1.4-0.6c-0.2,0-0.3,0.1-0.5,0.1c-0.1,0-0.1,0-0.2,0c-0.6-0.1-1.1-0.5-1.2-1.2
		c0-0.3,0.2-0.5,0.4-0.7c-0.2-0.1-0.3-0.2-0.4-0.4c0,0,0,0,0,0c0,0,0.1,0,0.2,0c0.2-0.1,0.4-0.1,0.6-0.2c-0.1-0.2-0.2-0.4-0.4-0.6
		c0,0,0,0,0,0c0.1-0.4,0.4-0.9,0.7-1c0.7-0.4,1.8-0.2,2.5,0.1c0.3,0.2,0.6,0.4,0.7,0.7c0.1,0.2,0.1,0.4,0.1,0.6
		c0,0.4-0.3,0.6,0.2,0.6c1.3-0.1,1.9,1.3,1.7,2.4c0,0,0,0,0,0c0,0-0.6,0.2-0.6,0.2c0.1,0.3,0.1,0.4,0.3,0.6c0.1,0.5,0.1,1-0.4,1.3
		c-0.5,0-1-0.1-1.5-0.3c-0.2-0.1-0.5,0.2-0.6,0.2c0.6,0.3,1.2,0.3,1.8,0.3c0,0,0,0-0.1,0c0.1,0,0.2,0,0.2-0.1c0.1,0,0.2,0,0.2-0.1
		c0,0,0.1,0,0.1,0c0,0,0,0,0,0c0.6-0.2,1-0.7,0.8-1.4c0,0,0,0,0,0c0.6-0.7,0.6-1.4,0.2-2.2c-0.2-0.4-0.6-0.7-1-0.9
		c-0.5-0.2-0.8,0.2-0.7-0.5C43.3,54.5,42,53.9,41.1,53.8z"/>
	<path fill="#B79787" d="M49.9,112.1c-0.4,0-0.7,0.1-1.1,0.2c0.2-0.1,0.5-0.1,0.7-0.1C49.7,112.2,49.8,112.1,49.9,112.1z"/>
	<path fill="#B79787" d="M46.8,38.1c0.3-1,0-2.1-0.6-3c0-0.1-0.8,0.3-0.8,0.2c0.5,0.9,0.8,2,0.6,3C46,38.2,46.8,38.3,46.8,38.1z"/>
	<path fill="#B79787" d="M35.2,130.2c-0.1,0-0.2,0.1-0.3,0.1c2.6,0.2,5.6,0.2,8.1-0.9C40.6,130.4,37.5,130.3,35.2,130.2z"/>
	<path fill="#B79787" d="M26.1,80c2.7,0.3,5.8,1.1,8.5,0.3c1.6-0.5,1.7-3.2,2.1-4.5c0.5-2,0.9-4,1.3-6c0,0.1-0.8,0.1-0.8,0.2
		c-0.6,3.1-0.9,7-2.5,9.7c-0.6,1-4.7,0.3-5.7,0.2c-1.3-0.1-2.5-0.3-3.8-0.3c-1.1,0-2.8,0.6-3-0.7c-0.2-1.7-0.1-3.5-0.1-5.2
		c0-2.8,0.2-5.5,0.3-8.3c2,1.6,4.1,3.1,5.8,4c0.2,0.1,0.6-0.3,0.8-0.2c-4.3-2.5-8.3-6.4-11.2-10.4c-1.9-2.6-0.4-8.4-0.2-11.3
		c0.4-3.8-0.5-9,1.8-12c0.7-0.9,4.8-2.6,5.9-3.2c1.3-0.7,2.6-1.5,3.9-2.3c-0.2,1.8-0.8,3.4-1.8,4.9c-0.3,0.4-2,1.5-1.9,1.7
		c0.4,0.7,0.9,1.4,1.3,2.1c2,3.3,4,6.5,6,9.8c0,0.1,0.8-0.3,0.8-0.2c-2-3.3-4-6.5-6-9.8c-1.2-2-1.7-1.8,0-3.2
		c1.6-1.3,2.3-3.8,2.4-5.7c0,0-0.1,0-0.2,0.1c0,0,0,0,0,0c0,0,0,0,0,0c-0.2,0-0.5,0.1-0.6,0.1c-0.1,0-0.1,0-0.2,0.1
		c-3.1,2-6.3,3.7-9.7,5.2c-2.2,0.9-2.1,9.7-2.3,11.6c-0.4,3.5-1.6,8.5-0.3,11.9c0.8,2.1,2.8,4.3,5.1,6.3c-0.2,3.6-0.3,7.3-0.4,10.9
		c0,1.2-0.3,3.1,0.3,4.2C21.7,80.4,25.2,79.9,26.1,80z"/>
	<path fill="#B79787" d="M26.6,80.1c0,0.1-0.8,0.1-0.8,0.2c0,6.5,1.8,13.2,0.3,19.6c-1.4,6.1-2.1,11.5-1.7,17.8
		c0.3,4.2-1.1,8.3-0.2,12.4c0,0,0.8-0.2,0.8-0.2c-0.8-3.8,0.6-7.5,0.3-11.4c-0.4-6.1-0.2-11.5,1.3-17.5C28.4,94,26.6,87.1,26.6,80.1
		z"/>
	<path fill="#B79787" d="M31.3,56.6c-0.1,0-0.1,0-0.2,0c0,0,0,0,0,0C31.2,56.6,31.3,56.6,31.3,56.6z"/>
	<path fill="#B79787" d="M45.7,77.1c-0.1,0-0.2,0.1-0.3,0.1c-2,0.6-4.3,0.4-6.3-0.3c-0.1,0,0.4-2.1,0.4-2.3l1.5-7.2
		c0,0-0.3,0-0.3,0.1c-0.6,2.9-1.2,5.9-1.8,8.8c-0.1,0.3-0.3,0.6,0.1,0.7c1.1,0.4,2.2,0.6,3.4,0.6C43.5,77.7,44.6,77.4,45.7,77.1z"/>
	<path fill="#B79787" d="M33.9,51.9c-0.1,0-0.2,0.1-0.3,0.1c-0.5,0.2-0.9,0.7-1.1,1.1c-0.4,0.8,0.4,1.3,1,1.4
		c0.2,0.1,0.5-0.2,0.5-0.2c0,0,0,0,0,0C33,53.9,32.7,52.6,33.9,51.9c0,0.3,0.1,0.4,0.3,0.6c0,0,0.7-0.2,0.7-0.2
		c0-0.3-0.2-0.5-0.3-0.5c-0.1-0.4,0.2-0.9,0.5-1.2c0.6,0.1,1,0.8,1.5,1.2c0,0,0.4-0.1,0.5-0.1c0,0,0.1,0,0.1,0
		c-0.1-0.3,0-0.6,0.1-0.8c0.7,0,1.4,0.4,1.7,1c0.1,0.1,0,0.3,0,0.4c-0.1,0.3,0.8,0.2,1.1,0.2c1.1,0-0.2,1.2-0.6,1.5
		c0.2-0.1,0.5-0.1,0.6-0.2c0.4-0.3,0.8-0.6,0.9-1.1c0.3-0.8-1.8-0.2-1.5-0.6c0.5-0.6-0.9-1.2-1.3-1.3c-0.4-0.1-1,0-1.3,0.2
		c0,0,0,0.1,0,0.1c0,0,0,0,0,0c-0.1,0-0.2,0.1-0.3,0.2c-0.4-0.4-0.8-0.8-1.4-0.7c0,0,0-0.1,0.1-0.1L35,50.5c0,0,0,0,0,0c0,0,0,0,0,0
		c-0.1,0-0.2,0.1-0.3,0.1c0,0,0.1,0,0.1,0C34.2,50.8,33.8,51.4,33.9,51.9z"/>
	<path fill="#B79787" d="M88.1,134.7c5.5,0.5,11.2,0.6,15.9-1.1c-1.9,0.5-3.9,0.8-5.7,1C94.9,134.8,91.5,134.9,88.1,134.7z"/>
	<path fill="#B79787" d="M23.8,55c0.2,0,0.3-0.1,0.4-0.1l0,0C24,54.9,23.9,55,23.8,55c-0.1,0.1-0.1,0.1,0,0.2c0,0.1,0.8-0.3,0.8-0.2
		c0,0,0-0.1,0-0.1l0.4-0.1l-0.3,0.1c0,0-0.1,0-0.2,0c1.1-0.5,0.8-1.6,0.9-3.1c0.1-3.1,0.1-6.2,0-9.2c0,0.1-0.8,0.1-0.8,0.2
		c0,2,0,3.9,0,5.9c0,0.9,0.5,5.5-0.3,6.3C24,54.9,23.8,55,23.8,55z"/>
	<path fill="#B79787" d="M34,57.8c0.2,0,0.4-0.2,0.6-0.2c-1,0-1.8-0.3-1.8-1.1c0.5,0,1-0.3,0.2-0.7c0.1-0.1,0.1-0.2,0.2-0.3
		c0.8,0.1,1.3,0.9,1.6,1.6c0.2,0.4,0.6,1.4,0.3,1.9c-0.1,0-0.2-0.1-0.3-0.1c0,0-0.6,0.2-0.6,0.2c-0.1,0.8-0.7,1.7-1.4,2.1
		c-0.3,0-0.5-0.3-0.6-0.6c0,0-0.1,0-0.1,0c-0.2,0-0.6,0.1-0.6,0.2c0,0.2-0.1,0.2-0.2,0.3c-1.1-0.1-1.2-1.1-1-2.1c0,0,0,0,0,0
		c0.1,0,0.2,0,0.2,0c0.1,0,0.1,0,0.2,0c0,0,0,0,0,0c0,0,0.1,0,0.1,0c0.2,0,0.3-0.2,0.4-0.3c0.4-0.4-0.6-0.3-0.8-0.3
		c-0.1,0-0.3,0.1-0.5,0.1c-0.2-0.6,0-1.4,0.4-1.8c0,0,0.1,0,0.1,0c0.1,0,0.1,0,0.2,0c0,0,0.1-0.1,0.1-0.1c-0.2,0-0.5,0.1-0.7,0.1
		c0,0-0.1,0-0.1,0c0,0,0,0,0,0c-0.6,0.3-0.9,0.9-0.8,1.8c0.1,0.3,0.2,0.5,0.4,0.6c-0.2,1.1-0.2,2.4,1.2,2.3c0.2,0,0.5-0.1,0.7-0.2
		c0.8,1,2.6-0.8,3-1.9c0,0,0.1,0,0.1,0c0,0,0,0,0,0c0,0,0.1,0,0.1,0c0.2,0,0.4-0.1,0.5-0.1c0,0,0,0,0.1,0c0,0,0,0,0,0
		c0.2-0.1,0.3-0.3,0.3-0.5c0.2-1.1-0.8-2.9-1.9-3.2c-0.3-0.1-0.8-0.3-1.2-0.1c0,0,0-0.3,0-0.3h0c-0.2,0-0.3,0.5-0.4,0.6
		c-0.1,0-0.1,0.2-0.1,0.2C31.8,57.2,32.8,57.8,34,57.8z M30.6,58.7c0.1,0,0.2,0,0.3,0.1c0,0-0.1,0.1-0.3,0.3c0,0-0.1,0-0.1,0
		C30.6,58.9,30.6,58.8,30.6,58.7z"/>
	<path fill="#B79787" d="M30.5,64.7c0,0-0.6,0.1-0.6,0.2c0,0.4,0,0.6-0.2,0.8c-0.4-0.1-0.7-0.3-0.8-0.8c0,0,0,0,0,0
		c-0.1,0-0.1,0-0.2,0c-0.2,0-0.4,0.1-0.4,0.1c-1.2,0.4-4-0.1-3.1-1.4c0-0.2,0.1-0.4,0.3-0.5c-0.6-0.2-1.5-2.1-0.9-2.9
		c0.1,0,0.3,0,0.4,0c0,0,0.1,0,0.2-0.1c0.1,0,0.3-0.1,0.4-0.1c-0.8-1.1-1.5-2.1-0.4-3.2c0.2,0,0.4,0.1,0.5,0.3c0,0,0.6-0.1,0.6-0.2
		c0.2-0.9,0.6-1.8,1.3-2.5c0,0,0.1,0,0.1,0c0.1,0.2,0.2,0.3,0.3,0.5c0,0,0.1,0,0.2,0c-0.7,0.4-1.2,1.2-1.2,2c-0.2,0-0.5,0.1-0.5,0.1
		c-0.3,0.9,0.1,1.3,1,1.5c0,0,0,0-0.1,0c-0.1,0-0.1,0-0.2,0c0,0,0,0,0,0c0,0,0,0,0,0c0,0,0,0,0,0c-0.3,0.1-0.3,0.6-0.3,0.9
		c0.1,0.2,0.3,0.4,0.4,0.6c0.1,0,0.2,0,0.1,0.2c0.1,0.2,0.2,0.3,0.2,0.5c0.1,0.4,0.1,0.6,0,0.7c0.3,0.3,0.6,0.4,0.9,0.4
		c0,0,0,0.1-0.1,0.1c0,0,0.1,0.1,0.1,0.1h0c0.1,0,0.1-0.1,0.2-0.1c-0.8,1.1,0.4,1,1.3,0.9c-1,0-1.1-0.7-0.4-1.4
		c-0.1,0-0.2,0-0.3,0.1c-0.1,0-0.3,0-0.3,0.1c0,0-0.1,0.1-0.1,0.1c-0.6-0.2-0.9-0.7-0.9-1.3c0-0.5,0.5-0.4-0.4-0.4
		c-0.3,0,0.1-1.3,0.2-1.5c0.1,0,0.2,0,0.3-0.1c-0.1,0-0.2,0-0.3,0.1l0,0l-0.2,0c0.2-0.1,0.3-0.1,0.5-0.1c-0.7-0.1-1-0.4-1.1-0.9
		c0,0,0.3-0.1,0.5-0.1c0.1,0,0.1,0,0.2,0c-0.3-1,0.2-1.9,1-2.4c0.1,0,0.2,0,0.2,0.1c0,0.2,0.1,0.3,0.3,0.2c0,0,0,0,0,0
		c0,0,0,0,0.1,0c0,0,0,0,0,0c0,0,0.1,0,0.1,0c0.1,0,0.3-0.1,0.4-0.1c0,0,0,0,0,0c0.1,0,0.2,0,0.3-0.1l0,0c-0.2-0.1-0.3-0.2-0.5-0.2
		c0.1-0.3,0.5-0.7,0.8-0.9c0.4,0,0.6,0.2,0.9,0.6c0,0.1,0.6-0.2,0.6-0.2c-0.4-0.5-0.8-0.6-1.3-0.5c0,0,0,0,0,0c0,0-0.1,0-0.1,0
		c-0.1,0-0.3,0.1-0.4,0.1c0,0-0.1,0-0.1,0c0,0,0,0,0,0c-0.1,0-0.3,0.1-0.4,0.1c-0.2,0.1-0.5,0.4-0.6,0.7c-0.1,0-0.2,0-0.4,0.1
		c-1.1-1.3-0.4-3.2,1-3.9c0.7,0.1,1.3,0.3,2.1,0.6c0.2,0.1,0.5-0.2,0.6-0.2c-0.8-0.4-1.6-0.7-2.4-0.6c0,0,0.1,0,0.1-0.1
		c-0.2,0-0.3,0.1-0.5,0.1c0,0,0,0,0,0c0,0,0,0,0,0c0,0-0.1,0-0.1,0c0,0,0,0,0,0c-1.4,0.4-2.3,2-1.8,3.4c-0.1,0-0.2,0.1-0.2,0.1
		c-0.1,0-0.1,0-0.2,0c0,0,0.1,0,0.1,0c-0.7,0.5-1.3,1.6-1.5,2.3c-0.2,0-0.4,0-0.6,0c0,0,0,0,0,0l-0.3,0.1c-0.1,0-0.1,0-0.2,0
		c0,0,0,0,0,0c0,0-0.1,0-0.1,0c0,0,0.1,0,0.1,0c-1.6,0.5-0.6,2.2,0,3.1c0,0-0.1,0-0.1,0c0,0,0,0,0,0C24.4,60,24.2,60,24,60.1
		c0.1,0,0.1,0,0.2,0c-0.9,0.5-0.9,1.8,0.2,2.8c0.7,0.1,0.7,0.3,0.1,0.6c-0.5,0.4,0,1.2,0.2,1.6c0.4,0.6,1.8,0.4,2.4,0.2
		c0.4-0.1,0.7-0.2,1-0.3c0.1,0.6,0.6,0.9,1.1,0.8c0,0,0,0,0,0c0,0,0,0,0,0c0.1,0,0.2,0,0.3-0.1c0.1,0,0.2-0.1,0.3-0.1
		c0,0-0.1,0-0.1,0C30.2,65.5,30.5,65.1,30.5,64.7z"/>
	<path fill="#B79787" d="M29.9,62.8c-0.1,0-0.3,0.1-0.4,0.1L29.9,62.8C29,63.6,30,64.3,31,64.2c0,0,0,0,0,0c0,0,0.1,0,0.1,0
		c0.2,0,0.3-0.1,0.4-0.1c0,0,0.1,0,0.1,0c0,0,0,0-0.1,0c0.1-0.1,0.2-0.1,0.3-0.2c0.2,0,0.4-0.1,0.5-0.2c0.2-0.1,0.3-0.2,0.4-0.3
		c-0.1,0.1-0.4,0.1-0.6,0.1c0,0-0.1-0.1-0.1-0.1c0,0-0.6,0.1-0.6,0.2c-0.1,0.2-0.1,0.3-0.2,0.4c-0.8-0.1-1.4-0.7-0.7-1.5
		c-0.1,0.1-0.3,0.1-0.5,0.1l0.1,0c0,0,0,0,0,0C30,62.7,30,62.7,29.9,62.8C29.9,62.8,29.9,62.8,29.9,62.8z"/>
	<path fill="#B79787" d="M33.5,66.3C33.5,66.3,33.5,66.3,33.5,66.3C33.6,66.3,33.6,66.3,33.5,66.3c0.2,0.7,0.3,1.4,0.4,2.1
		c0.1,0.5,0.1,0.8,0.5,1.1c0.5,0.3,1.3,0.3,1.8,0.2c0.7-0.1,1.4-0.3,2.1-0.7c0.6-0.4,0.2-1.6,0.1-2.2c0,0-0.8,0.2-0.8,0.2
		c0,0.6,0.1,1.2,0.2,1.8c0,0.3-0.5,0.5-0.7,0.6c-0.5,0.2-1.2,0.1-1.7-0.1c-0.8-0.2-0.7-1.2-0.8-1.8c-0.1-0.6-0.2-1.2-0.3-1.7
		c0,0-0.6,0.1-0.8,0.2c-0.1,0-0.1,0-0.1,0.1c0,0.1,0,0.2,0,0.3c-0.2,0-0.5,0.1-0.5,0.1c0,0.1-0.1,0.2-0.1,0.3
		c-0.2-0.1-0.4-0.3-0.5-0.4c0,0-0.2,0-0.4,0.1c-0.1,0-0.2,0-0.2,0.1c0.1,0.3,0.2,0.6,0,0.8c-0.1,0-0.2,0-0.3,0
		c-0.2-0.1-0.4-0.2-0.5-0.3c-0.4-0.4-0.1-0.9,0.2-1.2c-0.1,0.1-0.5,0-0.6,0.2c-0.3,0.3-0.5,0.7-0.3,1.2c0.2,0.3,0.7,0.4,1.1,0.4
		c0.5,0,1-0.2,1.1-0.5c0.1,0,0.2,0,0.3,0c0,0,0,0,0,0c0,0,0.1,0,0.1,0c0,0,0,0,0,0c0.1,0,0.2-0.1,0.3-0.1c0.1,0,0.1,0,0.2,0
		c0,0,0,0-0.1,0C33.3,66.7,33.5,66.5,33.5,66.3z"/>
	<path fill="#B79787" d="M30.4,62.6c-0.1,0-0.2,0.1-0.4,0.1c0,0,0,0,0,0C30.2,62.7,30.3,62.7,30.4,62.6z"/>
	<path fill="#B79787" d="M36.7,98.3c0.4-6.4-0.6-13.4,2.8-19.2c-0.1,0.2-0.7,0-0.8,0.2c-3.4,5.8-2.5,12.7-2.8,19.2
		C35.9,98.4,36.7,98.3,36.7,98.3z"/>
	<path fill="#B79787" d="M103.6,131c0.2,0,0.3-0.1,0.5-0.1c-0.3,0.1-0.5,0.2-0.8,0.2C103.3,131.1,103.5,131.1,103.6,131z"/>
	<path fill="#B79787" d="M44.4,23.8c0,0.1,0.3,0.2,0.3,0.3c0,0,0.3,0,0.3,0c0,0,0,0,0,0c0,0.3-0.3,0.8-0.1,1.3
		c0.2,0.8,0.3,1.8-0.2,2.3c0,0-0.2,0-0.2,0c-0.2,0-0.4,0.1-0.6,0.1c0,0-0.1,0-0.2,0.1c-0.2,0.1-0.3,0.3-0.4,0.4
		c-0.2,0.4-0.2,0.9-0.6,1.2c-0.2,0.1-0.3,0.2-0.4,0.4c-0.1,0.2-0.2,0.4-0.2,0.6c-0.1,0.5-0.1,0.9-0.4,1.3c-0.2,0-0.3,0-0.5-0.1
		c-0.4-0.1-0.7-0.3-1.1-0.4c0,0-0.1,0-0.1,0c-0.1,0-0.3,0-0.5,0.1c-0.1,0-0.2,0.1-0.2,0.1c-0.1,0-0.2,0-0.3,0
		c-0.5,0-0.9,0.1-1.4,0.3c-0.3,0.1-0.5,0.3-0.8,0.5c0.2-0.2,0.6-0.1,0.8-0.2c0.1-0.1,0.3-0.1,0.4-0.2c0,0.1,0.1,0.2,0.1,0.2
		c-0.1,0-0.2,0-0.2,0.1c-0.3,0.2-0.6,0.3-0.9,0.4c-0.2,0.1-0.4,0.1-0.6,0.2c0,0-0.1,0-0.1,0c0,0,0,0,0,0c0,0,0,0,0,0c0,0,0,0,0,0
		c-0.3,0.1,0.1,0.7,0.2,0.9c0.4,0.6,0.8,1.2,1.2,1.8c0.3,0.5,0.5,1,1.1,1.3c0.2,0.1,0.6-0.3,0.8-0.2c-0.8-0.4-1.1-1.3-1.5-1.9
		c-0.1-0.2-1.4-1.8-1-2c0.1,0,0.1,0,0.2,0c-0.1,0-0.1,0-0.2,0c0,0,0,0,0,0c0.4-0.1,0.8-0.2,1.2-0.4c3.1,5.1,3.4,12.5,3.5,18.2
		c0-0.1,0.8-0.1,0.8-0.2c-0.2-5.8-0.4-13.3-3.6-18.4c0.5,0,1,0.1,1.4,0.1c1.5,0.5,3,1.1,4.2,2.1c0.1,0.1,0.7-0.3,0.8-0.2
		c-1-0.8-2.3-1.4-3.5-1.8c0.1,0,0.2-0.1,0.3-0.1c0,0,0,0,0,0c0,0,0,0,0,0c0,0,0,0,0,0c0,0,0,0,0,0c0.1,0,0.2-0.1,0.3-0.2
		c0,0.1,0,0.1,0,0.2c0,0.9,2.2,0.5,2.7,0.5c2.6,0.1,3.7,4,2.9,6.2c-0.6-0.2-1.1-0.4-1.8-0.2c0,0,0,0,0,0c-0.1,0-0.1,0-0.1,0
		c0,0-0.1,0-0.2,0c-0.1,0-0.2,0.1-0.3,0.1c0,0,0,0-0.1,0c0,0,0,0,0,0c-0.4,0.3-0.2,0.7-0.2,1.5c0,0.9-0.8,1.4-0.9,2.2
		c-0.1,1.1,0.4,2.1,0.1,3.2c-0.3,1.1-0.2,3.3-0.1,4.6c-0.3,1-0.5,2-0.4,3c0,0,0.4-0.1,0.7-0.1c0.2,1.8,1,3.5,2.5,4.7
		c0.1,0,0.3-0.1,0.3-0.1c-1.4-1.2-2.3-2.9-2.5-4.7c0-1.4,0.2-2.8,0.7-4.1c0.2-0.1,0.5-0.2,0.6-0.2c1.3-0.4,2.4-1.6,3.8-0.9
		c1.3,0.6,2.7,1.3,4,1.9c0,0,0.1,0,0.2,0c0.3,1.2,0.3,2.5,0.4,3.7c0.1,1.6,0.6,3.2,1.2,4.7c0,0.1,0,0.1,0.1,0.2c0,0-0.1,0.1-0.2,0.1
		c-1.1,0.4-8.9,1.2-9.9,1.2c-0.3,0-0.5,0.2-0.8,0.2c3.5-0.2,7.1-0.4,10.5-1.4c0.1,0,0.1,0,0.2-0.1c1.2-0.3,0.9-0.5,0.4-1.9
		c-0.2-0.5-0.3-1-0.3-1.6c0-0.1,0-0.2,0-0.3c-0.3-2.5-0.2-5.3-1.8-7c-0.1-0.1-0.7,0.3-0.8,0.2c0.4,0.4,0.6,0.8,0.8,1.3
		c-1.5-0.9-3.3-2-4.9-1.7c-1,0.2-1.9,0.8-2.9,1.2c-0.1-0.4,0-1,0-1.4c0.3-0.5,0.7-0.9,0.8-1.5c0.2-1.2,0.5-1.5,1.5-2.2
		c1.1-0.8,1.4-2,1.9-3.2c0.2-0.6,0.3-2.5-0.7-2.3c-0.2,0-0.3,0.1-0.5,0.2c0,0,0,0-0.1,0l0,0c-0.2,0.1-0.3,0.2-0.4,0.3
		c0.9-2.2-0.2-5.5-2.5-6.3c-0.2-0.1-0.4-0.1-0.7-0.1c-0.8,0-1.7,0.3-2.3-0.2c0,0,0,0,0-0.1c-0.4-0.6,0.9-1.4,0.1-2
		c-0.1-0.1-0.2,0-0.4,0.1c0-0.1,0-0.2,0-0.2c0.1-0.3,0.4-0.4,0.7-0.6c0.2-0.2,0.3-0.4,0.3-0.6c0-0.2,0.1-0.5,0.2-0.6
		c0.1,0,0.2-0.1,0.3-0.1c0.1,0,0.1,0,0.2-0.1c0,0,0.1,0,0.1,0c0,0,0,0,0,0c0.3-0.2,0.4-0.6,0.5-1c0-0.4-0.1-1-0.2-1.5
		c0.1,0,0.2,0,0.2-0.1c0.2-0.2,0.4-0.4,0.5-0.7c0.1-0.3,0-1.2,0-1.7c0.5-0.8,1.3-1.8,1.8-1.8c0.8-0.1,0.8-0.5,0.8-0.5
		s0.6-0.3,0.9,0.5c0,0.1,0.1,0.3,0.1,0.5c0.1,1.4-0.2,4.5,0,4.8c0,0-0.3,0.5-0.3,0.9c0.1,0.5,0.3,1.1,1,0.6c0.7-0.5,2-0.7,2.5-0.6
		c0.6,0.1,0.7,0.8-0.2,1.7c-0.8,0.8-1.8,2.6-1.3,3.3c0.5,0.7-0.1,1.1-0.5,1.4c-0.3,0.3-0.6,0.7,0.5,1.2c1.1,0.5,1,1,0.3,1.6
		C51,37,50.5,37.7,51,38.1c0.5,0.4,0.6,0.6-0.1,0.6c-0.6,0,0.7,0.7,2.4,0.5c1.6-0.2,0.8-1,2.9-1c0.5,0,1,0,1.3-0.1
		c1.2-0.1,1.8-0.5,1.4-0.9c-0.5-0.5-0.3-0.5,0.3-1c0.6-0.5,0.6-1.2,0.3-1.5c-0.2-0.3,0.8-0.3,0.7-1c-0.1-0.7-0.5-0.7-0.4-1.4
		c0.1-0.7,0.1-1.2-0.6-1.6c-0.7-0.3-0.9-1-0.9-1.5c0-0.5-0.1-0.6-0.4-1.1c-0.3-0.5-0.7-0.9-0.6-1.1c0.1-0.2-0.5-1-0.2-1
		c0.3,0,0.3-0.1,0.5,0c0.2,0.1-0.1,0.5,0.5,0.1c0.6-0.4,1-0.5,0.6-1.9c-0.3-1.4-3.1-5.3-7.1-4.7c0,0-5.3-1.6-6.3,3.2l0,0
		c0.1-1.1-0.3-2.6-0.3-3.2c0,0-0.8,0.2-0.8,0.2c0,0.4,0.1,0.9,0.2,1.4c0.1,0.4,0.1,0.8,0.1,1.2C44.6,23.1,44.6,23.5,44.4,23.8z
		 M37,32.7c-0.1,0-0.3,0.1-0.4,0.1C36.7,32.8,36.9,32.8,37,32.7C37,32.7,37,32.7,37,32.7z M49.6,38.4c0.5,0.4,0.3,1.6,0.2,2.1
		c-0.3,1.5-1.1,2.6-2.3,3.6c-1.1,0.8-0.6,2.3-1.6,3c-0.1,0.1-0.3,0.3-0.4,0.5c0-1.1,0.2-2.2,0.3-3.3c0.1-1.1-0.5-2.1,0-3.1
		c0.3-0.5,0.5-0.8,0.6-1.3c0.1-0.4-0.1-0.9-0.1-1.2c0.6,0.1,1,0.6,1.6,0.7c0,0,0,0,0,0c0,0,0,0,0,0c0.2,0,0.4,0,0.6,0
		C49,39.2,49.2,38.8,49.6,38.4z"/>
	<path fill="#B79787" d="M41.5,62.5C41.6,62.5,41.6,62.4,41.5,62.5C41.4,61.6,40.7,61,40,61c0,0,0,0,0,0c0,0-0.1,0-0.1,0
		c-0.1,0-0.3,0-0.4,0.1c-0.1,0-0.1,0-0.2,0c0,0,0.1,0,0.1,0c0,0-0.1,0-0.1,0.1c-0.3-0.3-0.7-0.5-1.1-0.7c-0.1,0-0.6,0.1-0.6,0.2
		c0,0,0,0.1,0,0.1c-0.4-0.2-0.8-0.1-1.2,0c0,0-0.1,0-0.1,0c0,0,0.1,0,0.1,0c-0.4,0.2-0.7,0.6-0.9,1c-0.2-0.1-0.3-0.1-0.5-0.1
		c0,0,0,0,0,0c0,0,0,0,0,0c-0.4,0-0.8,0.2-0.9,0.6c0,0,0,0,0,0c0,0,0,0,0,0c-0.1,0.5,0.1,0.6,0.4,0.5c0,0-0.1,0-0.1,0
		c0.2-0.1,0.4-0.1,0.6-0.2c0,0,0,0-0.1,0c0.1-0.1,0.3-0.1,0.4-0.2c0.1-0.1,0.2-0.1,0.2-0.1c-0.1,0.1-0.3,0.1-0.5,0.1
		c-0.1,0-0.1,0-0.1,0.1c0,0-0.1,0.1-0.1,0.1c0,0-0.1-0.1-0.1-0.2c-0.1-0.2,0-0.4,0.1-0.6c0.2,0.1,0.4,0.2,0.6,0.4
		c0,0,0.6-0.2,0.6-0.2c0-0.6,0.2-1,0.7-1.3c0.3,0,0.5,0.2,0.8,0.5c0,0,0.6-0.2,0.6-0.2c0-0.1,0-0.1,0-0.2c0.3,0.2,0.5,0.4,0.8,0.7
		c0,0,0.6-0.1,0.6-0.2c0-0.1,0.1-0.2,0.2-0.3c0.5,0.1,0.9,0.6,1.1,1.1l-0.1,0c-0.1,0-0.1,0-0.2,0c0,0,0.1,0.1,0.1,0.1
		c0.1,0.2,0.2,0.4,0.1,0.6c0,0.1-0.1,0.1-0.2,0.2c0,0,0,0,0,0c-0.3,0.2-0.8,0.3-1.4,0.4c-0.6,0.1-1.1,0-1.4,0
		c-0.1,0-0.6,0.1-0.6,0.2c-0.1,0.3-0.2,0.5-0.4,0.6c-0.4,0-0.7-0.3-0.7-0.8c0,0-0.1,0-0.1,0c-0.2,0-0.5,0.1-0.5,0.1
		c0.1,0.5-0.1,0.7-0.4,0.9c-0.6,0-1.2-0.1-1.3-0.8c0,0-0.6,0.2-0.6,0.2c0.2,1,1.9,1,2.7,0.4c0.3,0.2,0.8,0.2,1.3,0
		c0.1,0,0.1,0,0.2-0.1c0,0-0.1,0-0.1,0c0.3-0.1,0.5-0.4,0.7-0.6c0.4,0,0.8-0.1,1.4-0.1c0.5-0.1,0.9-0.1,1.3-0.3
		c0.5-0.1,0.8-0.3,1-0.6c0-0.1,0.1-0.1,0.1-0.2C41.4,62.6,41.5,62.6,41.5,62.5z"/>
	<path fill="#B79787" d="M117.7,127.8c-2.7-5.4-9.9-7.1-14.6-10.3c-4.3-3-7.1-7.8-9.6-12.3c-0.8-1.4-1.6-2.9-2.4-4.3
		c0,0,0.1,0,0.1,0c-0.1,0-0.1,0-0.2,0c-2.7-4.8-5.3-9.6-8.2-14.3c-4.8-7.7-9.7-15.2-13.4-23.5c-2.7-6-4.9-12.2-6.7-18.5
		c-0.4-1.4-2.8-7.1-1.9-8.6c-0.1,0.2-0.7,0-0.8,0.2c-0.8,1.3,1.3,6.3,1.6,7.6c1.7,6.2,3.9,12.2,6.4,18c5.8,13.7,14.6,26,22,38.9
		c-8.2-1.8-14.7-5.2-21.6-10c-4-2.8-3.8-7.5-3.8-12c0-5.8-3.2-10.5-5.7-15.5c0-0.1-0.8,0.3-0.8,0.2c2.2,4.6,5.1,8.8,5.6,14
		c0.5,4.7-0.8,9.8,3.5,13.2c6.9,5.4,14.4,8.8,23.1,10.5c0.6,1.1,1.2,2.2,1.9,3.3c2.4,4.4,5,8.8,8.7,12.2c4.8,4.3,11.4,5.6,15.6,10.8
		c5.8,7.2-9.6,1.9-9.8,6.7c0-0.1,0.8-0.1,0.8-0.2C107.6,129.9,121.1,134.5,117.7,127.8z"/>
	<path fill="#B79787" d="M111.3,134.5c0-0.1,0.8-0.1,0.8-0.2c0.1-0.5,0.6-0.8,1.3-1C112.4,133.5,111.5,133.9,111.3,134.5z"/>
	<path fill="#B79787" d="M61.3,60.3c0,0.1,0,0.2,0,0.2c-0.1,2.5-1.5,2.2-3.7,2.5c-4.5,0.6-9.7-0.8-14.1,0.3
		c-2.5,0.6-4.4,2.4-6.8,3.1c0.2-0.1,0.5-0.1,0.8-0.2c2.2-0.7,4-2.5,6.4-2.9c3-0.4,6.3,0.3,9.4,0.2c2.5-0.1,5.2-0.3,7.6-1
		c3.8-1,0.5-21.1-1.5-23.7c-0.1-0.1-0.7,0.3-0.8,0.2c2.6,3.3,2.2,9.5,2.6,13.4c0,0.2,0,0.3,0,0.5C61.3,55.5,61.4,57.9,61.3,60.3z"/>
	<path fill="#B79787" d="M116.3,133.1c-0.3,0-1.1,0-1.9,0c2.4-0.1,6.1,0.8,7,1c2.5,0.4,5.1,0.2,7.6-0.2
		C124.5,134.2,119.7,133.4,116.3,133.1z"/>
	<path fill="#B79787" d="M113.9,101.8c-7.2-3.9-13.1-7.1-18.5-13.4C89.1,80.8,84.3,71.9,80,63.1c-6-12.3-10.1-27.4-21-36.5
		c-0.1-0.1-0.7,0.3-0.8,0.2C68.7,35.6,72.9,50,78.5,61.9c4,8.5,8.6,16.8,14.2,24.4c5,6.7,10.6,10.7,17.8,14.4
		c7.6,3.9,15.1,8.4,21.8,13.6c4,3.1,10.4,8.1,7.7,13.8c-0.4,0.9-1,1.7-1.6,2.3c0.1-0.1,0.3-0.2,0.4-0.3
		C151.3,121.1,119.3,104.7,113.9,101.8z"/>
	<path fill="#B79787" d="M129,134c3.7-0.2,7.2-1,9.6-3.5c-2.3,1.6-5,2.6-7.8,3.2C130.2,133.8,129.6,133.9,129,134z"/>
	<path fill="#B79787" d="M106.9,132.3c-0.9,0.5-1.9,1-2.9,1.3c1.3-0.4,2.6-0.9,3.7-1.5C107.4,132.2,107.1,132.2,106.9,132.3z"/>
	<path fill="#B79787" d="M62.3,79.8c-0.7-4.8-2.4-9.6-4.3-14.1c0,0-0.3,0.1-0.3,0.1c1.7,4.2,3.1,8.5,4.1,12.9
		c0.8,3.9-0.2,7.7,0.5,11.5c2.3,11.9,16.6,16.8,26.8,18.9c0.1,0,0.2-0.1,0.3-0.1c-10.5-2.2-23.4-6.8-26.7-18.3
		C61.7,87.2,62.8,83.5,62.3,79.8z"/>
	<path fill="#B79787" d="M104.6,130.6c0.5-0.3,0.9-0.6,1.2-1.2c2.6-4.6-8.2-8.2-10.6-9c-10.9-3.6-27.6-5.1-32.2-18.1
		c0,0-0.3,0.1-0.3,0.1c2.9,8.1,12.7,12.8,20.2,15.2c7,2.2,14.9,2.4,20.8,7.3C105.3,126.3,106.6,129.4,104.6,130.6z"/>
	<path fill="#B79787" d="M109.9,105c0.1,0,0.3-0.1,0.3-0.1C96.5,95.2,86.7,78.4,78.6,64c0,0-0.3,0.1-0.3,0.1
		C86.4,78.5,96.2,95.3,109.9,105z"/>
	<path fill="#B79787" d="M77.7,74.1c0,0,0.3-0.1,0.3-0.1c-5.2-9.9-9.4-20.3-13.1-30.9c0,0-0.3,0.1-0.3,0.1
		C68.3,53.8,72.5,64.2,77.7,74.1z"/>
	<path fill="#B79787" d="M60.2,30.1c0,0-0.3,0.1-0.3,0.1C68,45.4,73.4,61.7,80.9,77.1c4.3,8.9,9.9,17.3,16.5,24.7
		c5,5.7,11.4,11.6,19.2,12.9c0.1,0,0.2-0.1,0.3-0.1c-7.8-1.3-14-7.2-19.2-12.9c-6.7-7.3-12-15.9-16.5-24.7
		c-5-9.8-8.3-20.4-12.9-30.4C65.8,41.1,63.1,35.5,60.2,30.1z"/>
	<path fill="#B79787" d="M31.3,29.6c1.2,0.9,2.3,1.8,3.5,2.7c0.9,0.7,0.8,0.6,0.1,1.5c-0.6,0.8-1.1,1.5-1.7,2.3
		c-0.2-0.3-0.5-0.5-0.7-0.8c-0.6-1.8-1.3-3.5-1.9-5.3c0,0-0.8,0.2-0.8,0.2c2.1,5.9,4.4,11.9,5.8,18c0,0,0.8-0.2,0.8-0.2
		c-0.8-3.8-2.1-7.6-3.4-11.4c0.2-0.1,0.6-0.1,0.6-0.2c0.6-0.9,1.3-1.7,1.9-2.6c0.6-0.8,1.1-1,0.3-1.6c-1.2-0.9-2.3-1.8-3.5-2.7
		c-0.8-0.7-1.8-1.3-1-2.1c0.1,0.1,0.4,0.1,0.6,0.2c1.1,0.1,3.1-0.4,3.6-0.7c0.6-0.4-0.3-1.2-0.1-1.8c0.3-0.6,1.9,0.1,2.8,0.7
		c0.9,0.6,1.4,0.6,1.4,0.6s0.1-1.5,0.5-1.9c0.4-0.3,1.4-1.3,1.4-1.3s-0.8,0-0.6-0.1c0.3-0.1,0.4-0.5,0.1-0.3
		c-0.3,0.1-0.2-0.7-0.5-1.2c-0.3-0.6,1.8-1.4,3.3-1.7c0,0,0,0,0.1,0c1.4-0.3,1.7-1,1.7-1c-6.2-5.9-10.7-3.7-11.1-3.4
		c-0.3,0.3-0.3,0.2-1.2,0.8c-0.9,0.6-1.2,1.3-1.6,1.8c-0.3,0.5-0.8,1.7-1.1,2.5c-0.3,0.8,0.1,2.1,0.2,3.3c0.1,1.1,0.2,2.1,0.3,3.2
		c0,0,0,0.1,0,0.1c-0.1,0-0.2,0-0.3,0.1C29.6,28.3,30.4,28.9,31.3,29.6z"/>
	<path fill="#B8D1B1" d="M30.7,57.9l1.5,0.7c-0.6,0.2-0.9,0.6-0.8,1.2c0.8,0.2,1.5-0.2,1.4-1.1c0.3-0.1,0.4-0.2,0.6-0.3
		c-0.4-0.5-1.1-0.8-1.7-1c0-0.5-0.2-0.7-0.6-0.9c0,0,0,0,0,0c0,0-0.1,0-0.1,0c0,0,0,0,0,0c0,0-0.1,0.1-0.1,0.1
		C30.5,57.1,30.5,57.5,30.7,57.9z"/>
	<path fill="#B8D1B1" d="M35.1,60.1c-0.7,1.4,3.6,0,4.1-0.6c0.2,0.1,0.5,0.2,0.6,0.3c-1.1-0.7-2.8-1.1-3-2.4l-0.4,0.1
		c0.1,0.5,0.5,1.3,0.3,1.8C36.4,60,35.3,59.8,35.1,60.1z"/>
	<path fill="#FFAFAC" d="M30.9,51.6c-0.4-0.1-0.6,0-0.9,0.2c-0.8,0.1-1.1,0.9-1,1.6c0.3-0.1,0.6-0.2,0.8-0.5c0.5,0,1.8,0.5,1.9-0.4
		C31.7,52.2,31.2,51.7,30.9,51.6z"/>
	<path fill="#FFAFAC" d="M27.6,60.7c0-0.1-0.1-0.3-0.2-0.5c0-0.1-0.1-0.1-0.1-0.2c-0.1-0.2-0.3-0.4-0.4-0.6
		c-0.2-0.2-0.3-0.4-0.5-0.6c0,0.3-0.3,0.7-0.3,1.1c0.2,0.9,0.7,0.7,0.4,1.7c-0.1,0.5-0.8,0.9-1.2,1.3c-0.1,0.2-0.2,0.3-0.3,0.5
		c0,0.1,0,0.2,0.1,0.3c0.3,0.9,2.8,0.7,3.5,0.4c0.3-1.2-1.2-0.9-1.2-1.9c0-0.5,0.2-0.7,0.3-0.9C27.7,61.3,27.7,61.1,27.6,60.7z"/>
	<path fill="#FFAFAC" d="M34.1,55.1c0.5,0.1,1.7,0.2,2.3,0c-0.1,0.3-0.1,0.7-0.1,1c0.6-0.7,1.5-1.4,0.9-2.3c0.8,0.1,1.2-0.6,1.6-1.1
		c-0.4-1-2.5-0.5-3.5-0.5c0,0.2,0,0.4,0,0.5l-0.2-0.1c-1-0.2-1.2,0.8-1.2,1.7c0,0,0,0,0,0C34,54.7,34.1,54.9,34.1,55.1z"/>
	<path fill="#FFAFAC" d="M26.4,58.9C26.4,58.9,26.4,58.9,26.4,58.9c0-0.1,0-0.3-0.1-0.4L26.4,58.9z"/>
</g>
</svg>
