<?xml version="1.0" encoding="utf-8"?>
<!-- Generator: Adobe Illustrator 18.1.0, SVG Export Plug-In . SVG Version: 6.00 Build 0)  -->
<svg version="1.1" id="Layer_1" xmlns="http://www.w3.org/2000/svg" xmlns:xlink="http://www.w3.org/1999/xlink" x="0px" y="0px"
	 viewBox="0 0 150 150" enable-background="new 0 0 150 150" xml:space="preserve">
<g>
	<path fill="#00A251" d="M89.1,127.7c4.1-0.1,7.9-1.6,10.8-4.4c2.9-2.9,4.3-6.7,4.4-10.8c-4.1,0.1-7.9,1.6-10.8,4.4
		C90.6,119.7,89.2,123.6,89.1,127.7z"/>
	<path fill="#00A251" d="M89.1,112.3c4.1-0.1,7.9-1.6,10.8-4.4c2.9-2.9,4.3-6.7,4.4-10.8c-4.1,0.1-7.9,1.6-10.8,4.5
		C90.6,104.3,89.2,108.2,89.1,112.3z"/>
	<path fill="#00A251" d="M89.1,96.9c4.1-0.1,7.9-1.6,10.8-4.4c2.9-2.9,4.3-6.7,4.4-10.8c-4.1,0.1-7.9,1.6-10.8,4.4
		C90.6,89,89.2,92.8,89.1,96.9z"/>
	<path fill="#00A251" d="M89.1,81.5c4.1-0.1,7.9-1.6,10.8-4.5c2.9-2.9,4.3-6.7,4.4-10.8c-4.1,0.1-7.9,1.6-10.8,4.4
		C90.6,73.6,89.2,77.4,89.1,81.5z"/>
	<path fill="#00A251" d="M91.8,55.6c0-4.1-1.7-7.8-4.5-10.8c-2.8,3-4.5,6.7-4.5,10.8c0,4.1,1.7,7.8,4.5,10.8
		C90.1,63.5,91.8,59.7,91.8,55.6z"/>
	<path fill="#00A251" d="M87,77.2c-1-2.4-2.2-4.7-4-6.5c-2.9-2.9-6.8-4.3-10.9-4.4c0.1,4.1,1.7,7.9,4.6,10.8
		c2.7,2.7,6.3,4.2,10.3,4.4v11.1c-1-2.4-2.2-4.7-4-6.5c-2.9-2.9-6.8-4.3-10.9-4.4c0.1,4.1,1.7,7.9,4.6,10.8
		c2.7,2.7,6.3,4.2,10.3,4.4V108c-1-2.4-2.2-4.7-4-6.5c-2.9-2.9-6.8-4.3-10.9-4.5c0.1,4.1,1.7,7.9,4.6,10.8c2.7,2.7,6.3,4.2,10.3,4.4
		v11.1c-1-2.4-2.2-4.7-4-6.5c-2.9-2.9-6.8-4.3-10.9-4.4c0.1,4.1,1.7,7.9,4.6,10.8c2.7,2.7,6.3,4.2,10.3,4.4V144h1V68h-1V77.2z"/>
	<rect x="103" y="41" fill="#00A251" width="1" height="23"/>
	<rect x="97" y="26" fill="#00A251" width="1" height="40"/>
	<rect x="87" y="5" fill="#00A251" width="1" height="38"/>
	<rect x="72" y="41" fill="#00A251" width="1" height="23"/>
	<rect x="78" y="26" fill="#00A251" width="2" height="40"/>
	<path fill="#6CAB36" d="M55.1,131.3c3.2-0.1,6.2-1.2,8.4-3.5s3.4-5.3,3.5-8.4c-3.2,0.1-6.2,1.2-8.4,3.5
		C56.3,125.1,55.2,128.1,55.1,131.3z"/>
	<path fill="#6CAB36" d="M55.1,119.3c3.2-0.1,6.2-1.2,8.4-3.5c2.3-2.3,3.4-5.3,3.5-8.4c-3.2,0.1-6.2,1.2-8.4,3.5
		C56.3,113.1,55.2,116.1,55.1,119.3z"/>
	<path fill="#6CAB36" d="M55.1,107.3c3.2-0.1,6.2-1.2,8.4-3.5c2.3-2.2,3.4-5.2,3.5-8.4c-3.2,0.1-6.2,1.2-8.4,3.5
		C56.3,101.1,55.2,104.1,55.1,107.3z"/>
	<path fill="#6CAB36" d="M55.1,95.3c3.2-0.1,6.2-1.2,8.4-3.5c2.3-2.2,3.4-5.2,3.5-8.4c-3.2,0.1-6.2,1.2-8.4,3.5
		C56.3,89.1,55.2,92.1,55.1,95.3z"/>
	<path fill="#6CAB36" d="M57.2,75.1c0-3.2-1.3-6.1-3.5-8.4c-2.2,2.3-3.5,5.2-3.5,8.4c0,3.2,1.3,6.1,3.5,8.4
		C55.9,81.2,57.2,78.3,57.2,75.1z"/>
	<path fill="#6CAB36" d="M53,91.9c0-1.9-1.5-3.6-2.9-5.1c-2.2-2.3-5.2-3.4-8.4-3.5c0.1,3.2,1.2,6.2,3.4,8.4c2.1,2.1,4.9,3.3,7.9,3.4
		v8.7c0-1.9-1.5-3.6-2.9-5.1c-2.2-2.3-5.2-3.4-8.4-3.5c0.1,3.2,1.2,6.2,3.4,8.4c2.1,2.1,4.9,3.3,7.9,3.4v8.7c0-1.9-1.5-3.6-2.9-5.1
		c-2.2-2.2-5.2-3.4-8.4-3.5c0.1,3.2,1.2,6.2,3.4,8.4c2.1,2.1,4.9,3.2,7.9,3.4v8.7c0-1.9-1.5-3.6-2.9-5.1c-2.2-2.2-5.2-3.4-8.4-3.5
		c0.1,3.2,1.2,6.2,3.4,8.4c2.1,2.1,4.9,3.3,7.9,3.4V144h1V85h-1V91.9z"/>
	<rect x="66" y="63" fill="#6CAB36" width="1" height="19"/>
	<rect x="61" y="52" fill="#6CAB36" width="1" height="31"/>
	<rect x="53" y="36" fill="#6CAB36" width="1" height="29"/>
	<rect x="42" y="63" fill="#6CAB36" width="1" height="19"/>
	<rect x="47" y="52" fill="#6CAB36" width="1" height="31"/>
</g>
</svg>
