<?xml version="1.0" encoding="utf-8"?>
<!-- Generator: Adobe Illustrator 18.1.0, SVG Export Plug-In . SVG Version: 6.00 Build 0)  -->
<svg version="1.1" id="Layer_1" xmlns="http://www.w3.org/2000/svg" xmlns:xlink="http://www.w3.org/1999/xlink" x="0px" y="0px"
	 viewBox="0 0 150 150" enable-background="new 0 0 150 150" xml:space="preserve">
<g>
	<path fill="none" d="M28.1,76.4c-1.4-0.7-2.8-1.2-4.1-1.5C25,75.2,26.4,75.7,28.1,76.4z"/>
	<path fill="none" d="M102.8,117.6c9.9-1.1,8.1-9.2,7.5-11.2c-1.1,0-2.1,0.1-3.2,0.1c-2.6,0.3-5.4,0.6-8.2,0.9
		c-1.3,0.2-2.5,0.4-3.6,0.7C93,117.8,102.8,117.6,102.8,117.6z"/>
	<path fill="none" d="M57.8,101.1c0.1,0.4-0.2,0.4-0.8-0.1c0.8,1.2,1.7,2.4,2.5,3.6c0,0,1.7,1.8,2.8-2.8c0.4-1.5,1.2-3.4,2.4-5.6
		c-0.4-1-5.2-13.2-16.8-21.3c-3.2,2-5.7,3.1-5.7,3.1S57.4,97.7,57.8,101.1z"/>
	<path fill="none" d="M79.3,58.5c-0.2-2.3,1.4-4.1,2.3-4.9c-1.3-1.3-2.5-2.5-3.7-3.7c1.8,2.3,2.9,4.4,2,5.2
		c-0.7,0.6-3.1,0.4-6.2-0.1c0.4,0.8,0.7,1.8,0.8,3.1c0,0-9.3-3.9-14.7,5.4c-2.8,4.9-7.5,8.7-11.4,11.2c5.2,3.5,11.5,9.5,17.1,20
		C68.1,90,71.9,84.5,76,78.9c6.7-9,5.1-14.8,5.1-15.6C80,62.3,79.5,60.6,79.3,58.5z"/>
	<path fill="#FFBB4D" d="M78.3,106.9c-1.8,4.4,0.7,3.9,0.7,3.9c15.5-6,28.6-6.2,37.5-5.1c4.3-0.4,7.1-0.6,7.1-0.6s-19.1-8.3-26-8.8
		c-2.8-0.2-4.2-0.1-5.2-0.9c-7.3,2.1-12.1,5.2-12.7,5.6C79.3,103.4,78.8,105.5,78.3,106.9z"/>
	<path fill="#FFBB4D" d="M98.9,107.5c2.8-0.3,5.5-0.7,8.2-0.9C104.3,106.8,101.5,107.1,98.9,107.5z"/>
	<path fill="#FFBB4D" d="M91.8,94.5c-0.9-1.6-1.4-4.9-3-12c-3.4-14.7,3.4-19.6,3.4-19.6c-5.3,0.1-9.1,11.9-11.6,23.9
		c-0.1,4.5-0.3,8.8-0.7,12.3C84.2,96.9,88.1,95.5,91.8,94.5z"/>
	<path fill="#FFBB4D" d="M43.7,88c-1-1-2.1-1.9-3.2-2.9C41.6,86.1,42.7,87,43.7,88z"/>
	<path fill="#FFBB4D" d="M24,74.9c1.3,0.3,2.7,0.8,4.1,1.5C34.8,79.3,46.3,86,57,101c0.6,0.5,0.9,0.6,0.8,0.1
		c-0.5-3.4-15.7-23-15.7-23s2.5-1.1,5.7-3.1c-2.8-1.9-5.9-3.7-9.5-4.9c0,0,4.3,0.6,10.2,4.5c3.8-2.5,8.5-6.3,11.4-11.2
		c5.4-9.3,14.7-5.4,14.7-5.4c-0.1-1.2-0.4-2.2-0.8-3.1c-2.7-0.5-5.9-1.3-8.8-2c-4,0.8-8.4,3.3-15,8.2c-5.9,4.4-11.6,6.6-15.8,7.8
		c-10.8,4.1-22.4,3.8-11.4,5.7c-0.2-0.1-0.3-0.1-0.5-0.2C22.2,74.4,22.8,74.5,24,74.9z"/>
	<path fill="#B06F41" d="M75.2,120.3c0,0-5.2-3.1,2.6-6.4c3.2-1.3,8.5-3.5,15.3-5.1c-0.4,1.7-2.4,11.5,9.9,10.7c0,0,13.1-1.8,7.4-13
		c5.9-0.1,12.2,0.5,18.7,2.4c0,0-4.7-2.1-12.7-3.1c-8.9-1.1-22-0.9-37.5,5.1c0,0-2.5,0.5-0.7-3.9c0.6-1.4,1-3.4,1.4-5.9
		c0.6-0.4,5.5-3.5,12.7-5.6c6.5-1.9,15-2.9,24-0.3c0,0-9.1-4.7-24.6-0.6c-3.6,1-7.6,2.4-11.9,4.5c0.4-3.5,0.6-7.7,0.7-12.3
		c0-2.1,0-4.3,0-6.5c-0.2-11.4,4.7-15.2,5.1-15.7c0,0-2.1,0.8-4,4.7c0.6-3.6-0.2-5.5-0.5-5.9c0,0,0,0-0.1,0
		c0.1,0.8,1.6,6.7-5.1,15.6c-4.1,5.6-7.9,11.1-10.4,15.7C60,84.1,53.6,78,48.5,74.6c-5.8-3.9-10.2-4.5-10.2-4.5
		c3.6,1.3,6.8,3,9.5,4.9c11.6,8.1,16.4,20.3,16.8,21.3c-1.2,2.2-2,4.1-2.4,5.6c-1.1,4.6-2.8,2.8-2.8,2.8c-0.8-1.3-1.7-2.5-2.5-3.6
		C46.3,86,34.8,79.3,28.1,76.4c-1.7-0.7-3.1-1.2-4.1-1.5c-1.2-0.4-1.8-0.5-1.8-0.5c0.2,0.1,0.3,0.1,0.5,0.2
		c7.2,2.7,13.1,6.5,17.9,10.5c1.1,0.9,2.2,1.9,3.2,2.9c1.6,1.6,3.1,3.1,4.4,4.7l-0.2-0.2c-3.7,9.8-11.8,3.8-11.8,3.8
		c-8.4-7.7,0.8-13.7,0.8-13.7c-11.8,5.8-2,15.1-2,15.1c9.3,7.6,13.8-1.3,14.6-3.3c4.3,5.4,7.2,10.4,9.1,13.5
		c4.5,7.2-1.6,6.7-1.6,6.7c-30.9-9.4-39.5-38.9-39.5-38.9c5.8,25.5,32,39.2,38.7,40.6c6.7,1.4,7.7-4.5,7.6-6.4
		c-0.1-1.9-1.2-9.5,10.1-24.9c2.7-3.7,4.5-6.8,5.7-9.5c-0.6,2.8-0.9,6.4-0.9,10.9c0.2,19.1-5.2,24.7-6.4,26.1
		c-1.1,1.5-3.8,6.9,2.5,9.6c6.2,2.8,35.5,7,55.1-10.3C129.9,111.8,105.7,130.7,75.2,120.3z M95.3,108.2c1.2-0.3,2.4-0.5,3.6-0.7
		c2.6-0.4,5.3-0.8,8.2-0.9c1-0.1,2.1-0.1,3.2-0.1c0.6,2,2.4,10-7.5,11.2C102.8,117.6,93,117.8,95.3,108.2z"/>
	<path fill="#B06F41" d="M103,62.7c-3.8-2.4-7.2-2.6-7.2-2.6c8.3,3.1,11.8,6.4,16.3,20.9c4.6,14.5,13.7,20.9,13.7,20.9
		c-2.6-2.1-9.8-9.8-13.7-25.5C110.2,69,106.5,65,103,62.7C103,62.7,103,62.7,103,62.7C103,62.7,103,62.7,103,62.7z"/>
	<path fill="#B06F41" d="M61.5,52c-0.2,0.1-0.5,0.1-0.7,0.2c0.6,0,1.2,0.1,1.7,0C62.1,52.2,61.8,52.1,61.5,52z"/>
	<path fill="#B06F41" d="M64.9,52.9c-0.6-0.2-1.1-0.3-1.7-0.5c-1.1,0.2-2.8,0.3-4.3,0.4c-2.1,0.9-4.4,2.2-6.7,4.2
		C39.9,67.5,29.9,69.9,26.6,70.1c0,0,3,0,7.5-1.2c4.3-1.1,9.9-3.4,15.8-7.8C56.5,56.2,60.9,53.8,64.9,52.9z"/>
	<path fill="#00A9DE" d="M77.9,49.9c1.2,1.2,2.4,2.4,3.7,3.7c-0.9,0.8-2.5,2.6-2.3,4.9c0.2,2.1,0.7,3.8,1.8,4.8c0,0,0,0,0.1,0
		c0.6,0.5,1.4,0.8,2.5,0.7c3.1-0.2,7.7-4.1,7.7-4.1s-11,8-11.3-1.3c0,0,0.2-5.4,4.6-3.6c0,0-0.3-0.3-0.6-0.7
		c0.9-1.2,4.3-4.6,7.6-0.4c3.4,4.2,0,5.9,0,5.9c4.1-1.3,1.5-4.9-1-7.6c1-0.5,6.3-3.2,12.2-5.5c4.4-2.2,9.2-4,12.1-3.2
		c1.1-0.1,2.1,0,3,0.3c7,2.1,1.5,12.7,3.1,10.1c1.6-2.6,2.1-7.8-2.3-11.3c-4.4-3.4-27.9,8.7-27.9,8.7l-0.3,0.8
		c-0.2-0.3-0.5-0.5-0.7-0.8c-2.2-2.3-5.6,1-6.7,2.2c-0.3-0.2-0.7-0.4-0.9-0.4c0,0-0.3,0.2-0.6,0.5c-2.5-2.9-20.5-24.1-24.1-18
		c0,0-2,4.1,0.5,8.2c0,0-2.5-5.4,0.8-7.2c2.2-1.2,6.6,1.6,13,7.4C74,45.6,76.3,47.8,77.9,49.9z"/>
	<path fill="#00A9DE" d="M62.4,52.3c-0.5,0-1.1,0-1.7,0c-3.8-0.3-8.7-2-3.9-10.7c0,0-5.6,6.2-1.3,11.4c0,0,1.6,0,3.4-0.1
		c1.5-0.1,3.1-0.2,4.3-0.4C63,52.4,62.7,52.3,62.4,52.3z"/>
	<path fill="#00A9DE" d="M103,62.7C103,62.7,103,62.7,103,62.7C103,62.7,103,62.7,103,62.7c0.9,0.2,13.3,3.2,17.3,0.5
		c4.1-2.8-2-14.2-2-14.2c1.8,3.9,2,8.8,1,12.3C118.3,64.6,103.9,62.9,103,62.7z"/>
	<path fill="#FC6F8F" d="M77.7,133.3c-9.3-4.3-17-9.5-23.4-15.2c-1.5-0.5-3.2-1.1-4.6-1.2C57,124,66.1,130.6,77.6,136
		c0,0,1-4.5,7.3-9.8c-0.7-0.2-1.4-0.3-2.1-0.5C78.4,129.9,77.7,133.3,77.7,133.3z"/>
	<path fill="#FC6F8F" d="M110.6,26.7c-12,0-22.2,7.7-26,18.4c-3.8-13.8-16.4-23.9-31.4-23.9c-17.4,0-31.6,13.6-32.5,30.8l-0.1,0
		c0,0,0,0.3,0,0.8c0,0.3,0,0.7,0,1c0,2.9,0.4,5.6,1.1,8.3c0.3,1.8,0.7,3.9,1.2,6.1c1-0.1,2-0.2,2.8-0.4c-0.3-1.6-0.6-3-0.8-4.4
		c-0.7-2.5-1-5.1-1-7.8c0-0.3,0-0.6,0-1c0-0.5,0-0.8,0-0.8l0.1,0c0.9-16.2,14.3-29.1,30.7-29.1c14.2,0,26.1,9.6,29.7,22.6
		C87.9,37.3,97.6,30,108.9,30c14.4,0,26,11.7,26,26c0,1.8-0.2,3.5-0.5,5.2c-1,12.9-5.7,23.9-12,32.7c0.5,0.7,0.9,1.4,1.3,2
		c7.2-9.6,12.8-21.7,13.8-36.2c0.4-1.8,0.6-3.6,0.6-5.5C138.2,39.1,125.8,26.7,110.6,26.7z"/>
	<path fill="#A6D9F0" d="M73.8,54.9c3,0.5,5.5,0.7,6.2,0.1c0.9-0.7-0.2-2.8-2-5.2c-1.6-2.1-3.9-4.3-6.1-5.9c-2-1.4-3.8-2.3-5.1-2.2
		c0,0,5.9,5.6-0.5,4.1c0,0,1.5,4.1-3.9,4.1c-5.4,0-5.4,0-5.4,0s1.9,0.9,4.7,1.7c0.3,0.1,0.6,0.3,0.9,0.4c0.3,0.1,0.5,0.3,0.8,0.3
		c0.5,0.1,1.1,0.3,1.7,0.5C67.8,53.7,71,54.5,73.8,54.9z"/>
	<path fill="#A6D9F0" d="M102.9,46.7c-5.2,2.7-9.8,5.9-9.8,5.9l3.4,5.9c2.9,1.5,13.2-3.4,13.2-3.4s-3.9,0-8.8-2
		c-4.9-2,14.7-9.3,14.7-9.3c-0.2-0.1-0.4-0.2-0.7-0.3C112.1,42.7,107.3,44.5,102.9,46.7z"/>
	<path fill="#FFCED6" d="M58.8,26.6c-35.8-1-33.9,36.8-31.4,39.7s18.1-6.9,18.1-6.9l-1-5.9C44.1,33.5,58.8,26.6,58.8,26.6z"/>
</g>
</svg>
