<?xml version="1.0" encoding="utf-8"?>
<!-- Generator: Adobe Illustrator 18.1.0, SVG Export Plug-In . SVG Version: 6.00 Build 0)  -->
<svg version="1.0" id="Layer_1" xmlns="http://www.w3.org/2000/svg" xmlns:xlink="http://www.w3.org/1999/xlink" x="0px" y="0px"
	 viewBox="0 0 150 150" enable-background="new 0 0 150 150" xml:space="preserve">
<g>
	<path fill="none" d="M50.3,86.4L50,86.5h0l0,0c0.1,0.5,0.3,0.9,0.5,1.3c0.1,0,0.2,0,0.4,0C50.6,87.4,50.4,87,50.3,86.4z"/>
	<path fill="none" d="M45.2,75.4c-1.2,0-2.4,0.1-3.5,0.2c1,0.9,2.1,1.8,3.1,2.7C44.6,77.1,44.8,76.1,45.2,75.4z"/>
	<path d="M56.5,63.9c-1.3-1.3-2.5-2.5-3.7-3.7c-5-0.5-9.9-0.8-14.7-1.1c1.4,1.3,2.8,2.7,4.2,4c1.4,1.3,2.8,2.7,4.2,3.9
		c4.5,0.2,9,0.3,13.7,0.6C59,66.4,57.8,65.2,56.5,63.9z"/>
	<path d="M22.6,58.7c-5.7,0.1-11.2,0.2-16.7,0.4c1.8,1.5,3.5,2.9,5.2,4.4c1.7,1.5,3.5,2.9,5.2,4.4c5.1-0.3,10.3-0.6,15.7-0.8
		c-1.6-1.4-3.2-2.8-4.7-4.2S24.2,60.1,22.6,58.7z"/>
	<path d="M79,94.2L79,94.2C79,94.2,79,94.2,79,94.2L79,94.2z"/>
	<path d="M58.4,89.5c0,0-1.2,0.2-2.2,0.3C56.1,90,56,90.1,56,90.1c0,0-2.5,0.5-3.6,0.5c-0.8,0-2-0.6-2.8-2.7
		c-3.3,0.2-6.5,0.5-9.6,0.8c4.2,3.2,8.4,6.3,12.6,9.6c7.7-1.9,16.3-3.2,25.6-4c-4.6-1.1-15.3-3.8-19.5-4.9
		C58.6,89.4,58.5,89.5,58.4,89.5z"/>
	<path d="M136.8,88.6c2.2,0.4,4.4,0.8,6.6,1.2c-0.2-0.6-0.5-1.2-0.7-1.9c-0.2-0.7-0.5-1.3-0.7-1.9c-2.4-0.6-4.9-1.2-7.3-1.7
		c0.3,0.7,0.7,1.5,1,2.2C136.1,87.2,136.5,87.9,136.8,88.6z"/>
	<path d="M45.8,74.7l3.9-0.5c0.9-0.7,1.8-1.2,2.7-1.7c-0.5-0.5-1-1-1.5-1.5c-1.4-1.3-2.8-2.6-4.2-4c-4.9,0-9.7,0-14.5,0
		c1.6,1.4,3.2,2.8,4.7,4.3c1.6,1.4,3.2,2.8,4.7,4.2c1.2-0.1,2.4-0.1,3.5-0.2C45.3,75.1,45.5,74.8,45.8,74.7z"/>
	<path d="M139.9,80.4c-0.2-0.7-0.5-1.3-0.7-1.9c-2.8-0.9-5.7-1.9-8.6-2.8c0.4,0.7,0.7,1.5,1,2.2c0.3,0.7,0.7,1.4,1,2.1
		c2.6,0.8,5.3,1.5,7.9,2.3C140.4,81.6,140.2,81,139.9,80.4z"/>
	<path d="M115.9,76.2c-0.1-0.1-0.2-0.3-0.3-0.5c-3-0.7-6-1.3-9-1.9c0.1,0.2,0.2,0.3,0.3,0.5C109.9,74.7,113.1,75.3,115.9,76.2z"/>
	<path d="M82.5,68.4c0.3,0,1,0.4,1.9,0.9c-0.7-0.8-1.4-1.6-2.1-2.4c-0.9-1.1-1.9-2.2-2.8-3.3c-4.6-0.7-9.2-1.4-13.6-2
		c1.1,1.2,2.2,2.4,3.3,3.5c0.8,0.9,1.7,1.8,2.5,2.7C75.7,67.6,79.5,67.9,82.5,68.4z"/>
	<path d="M94,72.4c0.8-0.1,1.6-0.1,2.3-0.1c-0.2-0.2-0.3-0.4-0.5-0.6c-3.2-0.5-6.3-1-9.4-1.5c1.9,1,3.9,2.2,4.6,2.6
		C92,72.7,93,72.5,94,72.4z"/>
	<path d="M66.8,68.1c-2.2-0.2-4.4-0.3-6.6-0.5c0.4,0.5,0.9,0.9,1.3,1.3C63.3,68.6,65.1,68.3,66.8,68.1z"/>
	<path d="M104.6,71c-0.7-1-1.4-1.9-2-2.9c-3.9-0.9-7.8-1.7-11.7-2.5c0.8,1.1,1.6,2.1,2.4,3.1c0.8,1,1.6,2,2.5,3
		c3.6,0.7,7.2,1.3,10.9,2.1C105.9,72.9,105.3,71.9,104.6,71z"/>
	<path d="M127.3,82.7c2.5,0.6,5,1.1,7.4,1.6c-0.4-0.7-0.7-1.4-1-2.1c-0.3-0.8-0.7-1.4-1-2.2c-2.7-0.7-5.4-1.4-8.1-2.1
		c0.5,0.8,0.9,1.6,1.4,2.4C126.4,81.1,126.8,81.9,127.3,82.7z"/>
	<path d="M110.6,93.6c11.5,0.4,23.5,1.4,35.5,3l-0.8-2.4c-9.9-2.1-19.9-3.7-30-4.8C114.2,90.5,112.5,92.1,110.6,93.6z"/>
	<path d="M120.7,83.6c0.6,0.9,1.2,1.8,1.7,2.7c2.5,0.4,5.1,0.8,7.6,1.2c-0.4-0.8-0.9-1.6-1.4-2.4c-0.4-0.8-0.9-1.6-1.3-2.4
		c-2.8-0.6-5.5-1.2-8.3-1.7C119.6,81.9,120.2,82.8,120.7,83.6z"/>
	<path d="M44.9,79.8c-0.1-0.5-0.2-1-0.2-1.5c-1-0.9-2-1.8-3.1-2.7c-5,0.3-9.9,0.7-14.8,1.1c1.8,1.5,3.5,2.9,5.2,4.5
		c1.7,1.4,3.5,2.9,5.2,4.4c3.5-0.4,7.1-0.8,10.8-1.2C46.5,83,45.3,81.7,44.9,79.8z"/>
	<path d="M123.2,75.5c-0.4-0.8-0.9-1.6-1.3-2.4c-3.2-0.9-6.5-1.8-9.7-2.6c0.6,0.8,1.1,1.8,1.7,2.6c0.6,0.9,1.1,1.8,1.7,2.7
		c3,0.7,6,1.4,9,2.1C124.1,77.1,123.7,76.3,123.2,75.5z"/>
	<polyline fill="none" stroke="#FFFFFF" stroke-width="0" stroke-linecap="round" stroke-linejoin="round" points="50,86.5 50,86.5 
		50.3,86.4 	"/>
	<polygon fill="#FFFFFF" points="86.5,99.4 86.5,99.4 86.5,99.4 	"/>
	<path fill="#00B5E8" d="M96.9,94.5c0,0,1.6,0.7,3.3,1.1c0.7,0.2,1.3,0.3,1.5,0.3c0.2-0.1,0.6-0.4,1.1-0.7c2.8-2,6.9-5.3,8.3-7.1
		c0.1-0.1,0.2-0.2,0.3-0.3c0.1-0.1,0.2-0.2,0.3-0.3c0,0,1.6-0.8,2.5-1.4c0.2-0.4,0.6-2.2,0.7-3.1c-0.1-0.2-1.8-1.2-1.8-1.2l0.1-1.4
		c0.3-0.1,0.8-0.2,0.8-0.2l0.4-2c-4.3-2.3-13.1-3.4-17.1-3.6c0,0-0.1-0.6-0.5-0.8c-0.4-0.1-2.3-0.5-5.2-0.2
		c-0.8,0.1-1.7,0.2-2.7,0.4c-1.2-0.7-6.7-3.9-7.5-4c-3.4-0.6-8-0.8-12.7-0.4c-2.5,0.2-5,0.6-7.3,1.2c-1.4,0.4-5.1,1.4-9.3,4.4
		l-3.5,0.4c-0.8,0.4-1.3,2.3-0.8,4.5c0.2,0.9,0.6,1.7,1.2,2.4c0.2,0.1,2.2,4.7,2.8,0.9c0.1-0.6,0.4-1.2,0.8-1.4
		c0.9-0.5,1.9,0.7,2.4,2.6c0.5,1.9,0.2,3.8-0.7,4.2c-0.6,0.3-1.4-0.2-1.9-1.2c0,0.2-0.1,0.4-0.1,0.6c0.7,1.3,1.6,1.6,2.2,1.6
		c0.3,0,0.6,0,1-0.1c0.2-0.3,0.5-0.8,0.6-1.2c0.1,0.1,0.1,0.2,0.2,0.3c0.2,0.1,0.8,0.2,1.6,0.4c0.2-0.3,0.5-0.7,0.6-1.1
		c0.1,0.1,0.1,0.2,0.2,0.2c1.5,0.4,15.1,3.9,19.5,4.9l0.1-0.2c0.4,0.7,0.7,1.1,0.7,1.1h0c1.4,2.4,3.7,3.8,6,3.6c1,0,4.5-0.6,5.7-1.6
		c0.5-0.6,1.3-1.6,1.3-3.5c0.5,0.9,0.8,1.4,1,1.7c0-0.3,0.1-0.5,0.1-0.8c0.2,0.4,0.4,0.8,0.6,1.1C95.1,94.5,96.9,94.5,96.9,94.5z
		 M85.5,97.3c-2.2,0.8-4.8-0.8-6.2-3.6c-0.1-0.2-0.2-0.5-0.3-0.7c-0.8-2.1-0.6-4.3,0.3-5.8c0.4-0.9,1.1-1.6,1.9-1.9
		c1.2-0.4,2.4-0.1,3.5,0.7c0.4,0.3,0.9,0.6,1.3,1c0.7,0.7,1.3,1.7,1.7,2.7c0.4,1.2,0.6,2.3,0.4,3.4C88,95.1,87,96.7,85.5,97.3z"/>
</g>
</svg>
