<?xml version="1.0" encoding="utf-8"?>
<!-- Generator: Adobe Illustrator 18.1.0, SVG Export Plug-In . SVG Version: 6.00 Build 0)  -->
<svg version="1.1" id="Layer_1" xmlns="http://www.w3.org/2000/svg" xmlns:xlink="http://www.w3.org/1999/xlink" x="0px" y="0px"
	 viewBox="0 0 150 150" enable-background="new 0 0 150 150" xml:space="preserve">
<g>
	<path fill="none" d="M103.8,112.9c-1,0.8-2,1.7-3.1,2.5c-1.6,1.2-3.3,2.5-4.9,4c-1.5-1.4-3.1-2.7-4.8-3.9c-0.9-0.7-1.9-1.5-2.8-2.3
		v-22c0-5.4-1-9.3-2.9-11.7c-1.9-2.4-5-3.6-9.2-3.6c-5.4,0-9.3,1.7-11.5,5c-2.2,3.4-3.2,9.3-3.2,17.5v32.5H46V14.3h15.5v55
		c5.5-5,11.6-7.5,18.3-7.5c7.6,0,13.7,2.5,18.2,7.4c3.9,4.3,5.8,11.1,5.8,20.5V112.9z"/>
	<path fill="#72BE44" d="M110.7,131.3v10.1H38.6V8.2h72.1v98.4c2-2.3,4.2-3.9,4.2-8.1V4H34.4v141.6H115v-17.9
		C113.7,129.1,112.3,130.3,110.7,131.3z"/>
	<path fill="#265C2E" d="M104.1,128.9c2.2-1.8,4.3-3.9,5.9-6.2c1.7-2.3,3-4.9,3.8-7.6c-0.2,0.3-0.4,0.5-0.6,0.8
		c-0.8,2.2-1.8,4.4-3.2,6.4c-1.7,2.3-3.7,4.4-5.9,6.2c-2.3,1.8-4.8,3.3-7.4,4.4c-1.2,0.5-2.5,0.9-3.8,1.3c0.3,0,0.7,0,1,0
		c0.9-0.3,1.9-0.6,2.8-0.9C99.4,132.1,101.8,130.6,104.1,128.9z"/>
	<path fill="#265C2E" d="M117.8,104c-0.4-1.2-0.9-2.4-1.5-3.5c0,0,0,0,0-0.1c0,0,0,0.1,0,0.1c0,0.1,0,0.2,0,0.3c0,0,0,0,0,0.1
		c0.6,1.1,1.1,2.3,1.5,3.5c1,2.9,1.3,5.9,1.1,8.8C119.1,110.2,118.8,107.1,117.8,104z"/>
	<path fill="#265C2E" d="M108.6,113.2c3.1-3,7.3-7.6,7.6-11.2c0-0.1,0-0.2,0-0.4c-0.3,3.6-4.5,8.2-7.6,11.2c-6.9,6.6-16,9.5-17,20.8
		c0,0,0.1,0,0.1-0.1C93,122.7,101.8,119.7,108.6,113.2z"/>
	<path fill="#3D3D3D" d="M79.8,61.8c-6.7,0-12.8,2.5-18.3,7.5v-55H46v116.7h15.5V98.4c0-8.3,1.1-14.1,3.2-17.5c2.2-3.4,6-5,11.5-5
		c4.2,0,7.3,1.2,9.2,3.6c1.9,2.4,2.9,6.3,2.9,11.7v22c0.9,0.7,1.8,1.6,2.8,2.3c1.7,1.3,3.3,2.6,4.8,3.9c1.6-1.4,3.2-2.7,4.9-4
		c1-0.8,2-1.7,3.1-2.5V89.7c0-9.4-1.9-16.2-5.8-20.5C93.5,64.3,87.4,61.8,79.8,61.8z"/>
	<path fill="#72BE44" d="M75.6,101.7c0-0.4,0-0.8,0-1.3c-0.6,1.1-1.1,2.3-1.5,3.6c-4,12.1,2.6,25.2,14.8,29.2
		c0.2,0.1,0.5,0.1,0.7,0.2c0.1-0.1,0.1-0.2,0.2-0.3c-0.1,0-0.1,0.1-0.2,0.1c0.1-1.1,0.3-2.1,0.5-3.1c-0.8-0.5-1.6-1.1-2.3-1.6
		c-2.2-1.8-4.3-3.9-5.9-6.2c-1.7-2.3-3-4.9-3.8-7.6c3,4.8,6.6,9,10.9,12.4c0.6,0.5,1.1,0.9,1.7,1.3c0.2-0.5,0.6-0.7,0.8-1.2
		c0.9-1.9,1.9-3.6,3.3-5c-0.1-0.1-0.2-0.2-0.3-0.3c-3.3-3.1-7.5-5.6-11.1-9C80.1,109.9,75.9,105.3,75.6,101.7z"/>
	<path fill="#3D3D3D" d="M116.3,100.9C116.3,100.8,116.3,100.8,116.3,100.9L116.3,100.9C116.3,100.8,116.3,100.8,116.3,100.9
		c0,0.3,0,0.5,0,0.8c0,0.1,0,0.2,0,0.4c-0.3,3.6-4.5,8.2-7.6,11.2c-6.8,6.5-15.7,9.5-16.9,20.4c0,0.2-0.1,0.3-0.1,0.4
		c1.5-0.6,3-1.3,4.5-2.1c2.4-1.3,4.7-2.8,6.9-4.5c4.1-3.2,7.4-7.1,10.3-11.6c0.2-0.3,0.4-0.5,0.6-0.8c-0.9,2.7-2.2,5.3-3.8,7.6
		c-1.7,2.3-3.7,4.4-5.9,6.2c-2.3,1.8-4.8,3.3-7.4,4.4c-0.9,0.4-1.8,0.7-2.8,0.9c-0.3,0.1-0.7,0.3-1,0.4c3.3,0.4,6.7,0.2,10.1-0.9
		c9.2-3,15.2-11.3,15.9-20.4c0.2-2.9-0.1-5.9-1.1-8.8C117.4,103.2,116.9,102,116.3,100.9z"/>
</g>
</svg>
