<?xml version="1.0" encoding="utf-8"?>
<!-- Generator: Adobe Illustrator 18.1.0, SVG Export Plug-In . SVG Version: 6.00 Build 0)  -->
<svg version="1.0" id="Layer_1" xmlns="http://www.w3.org/2000/svg" xmlns:xlink="http://www.w3.org/1999/xlink" x="0px" y="0px"
	 viewBox="0 0 150 150" enable-background="new 0 0 150 150" xml:space="preserve">
<g>
	<radialGradient id="SVGID_1_" cx="80.9114" cy="68.0059" r="42.2902" gradientUnits="userSpaceOnUse">
		<stop  offset="0.2967" style="stop-color:#C9C9C9"/>
		<stop  offset="0.9835" style="stop-color:#979797"/>
	</radialGradient>
	<path fill="url(#SVGID_1_)" d="M102.2,64.7l-10.4,48.8c-0.1,0.6-0.3,1.3-0.6,1.8c1-1,1.8-2.2,2.4-3.5l23.1-55.1
		c0.9-2.1,1-4.4,0.5-6.5C111.5,55.1,106.5,59.9,102.2,64.7z"/>
	<radialGradient id="SVGID_2_" cx="80.9105" cy="68.0064" r="42.2956" gradientUnits="userSpaceOnUse">
		<stop  offset="0.2967" style="stop-color:#C9C9C9"/>
		<stop  offset="0.9835" style="stop-color:#979797"/>
	</radialGradient>
	<path fill="url(#SVGID_2_)" d="M111,42.9L59.9,21.5c-5.4-2.3-11.6,0.3-13.8,5.7l-1.8,4.3l52,11.1c3.1,0.7,5.5,2.7,6.9,5.3
		c2.8-1.7,5.6-3.3,8.3-4.7C111.3,43,111.2,42.9,111,42.9z"/>
	<path fill="#58C8EE" d="M90.6,113.2l10-46.9c-3.8,4.3-7.1,8.5-10,12.6V113.2z"/>
	<path fill="#58C8EE" d="M94.5,44.4L40.4,32.9c-5.7-1.2-11.3,2.4-12.5,8.1L27,45.2h52.7c6,0,10.8,4.9,11,10.9
		c3.5-2.5,7.1-4.9,10.6-7C99.7,46.8,97.4,45.1,94.5,44.4z"/>
	<radialGradient id="SVGID_3_" cx="80.9103" cy="68.0049" r="42.2956" gradientUnits="userSpaceOnUse">
		<stop  offset="0.2967" style="stop-color:#C9C9C9"/>
		<stop  offset="0.9835" style="stop-color:#979797"/>
	</radialGradient>
	<path fill="url(#SVGID_3_)" d="M103.3,59.3l-1.1,5.4c4.3-4.7,9.3-9.6,15-14.5c-0.2-0.8-0.5-1.6-0.9-2.3
		C111.6,51.5,107.3,55.3,103.3,59.3z"/>
	<path fill="#58C8EE" d="M90.6,73.1V79c2.9-4.1,6.2-8.3,10-12.6l1.2-5.6C97.7,64.8,94,69,90.6,73.1z"/>
	<radialGradient id="SVGID_4_" cx="128.6948" cy="58.2433" r="84.8202" gradientUnits="userSpaceOnUse">
		<stop  offset="0" style="stop-color:#E14826"/>
		<stop  offset="0.5028" style="stop-color:#E75430"/>
		<stop  offset="1" style="stop-color:#EF643D"/>
	</radialGradient>
	<path fill="url(#SVGID_4_)" d="M145.9,29.3c-11.2,5.5-21,11.8-29.5,18.5c-4.7,3.7-9,7.5-13,11.4c-0.5,0.5-1,1-1.5,1.5
		C97.7,64.8,94,69,90.6,73.1c-0.3,0.4-0.7,0.8-1,1.2C70.5,98.2,62.2,121.6,58.5,130c0,0,0,0.1,0,0.1c-5.1-22.3-20.3-49.8-41.9-70.9
		c-0.6-0.6-1.1-1.1-1.7-1.7c6,2.5,30.8,14.3,41.1,30.8c10.1-12.6,21.6-22.9,33.1-31.2c-0.6-5.6-5.3-10-11.1-10H19.4
		c-6.2,0-11.2,5-11.2,11.2v63.3c0,6.2,5,11.2,11.2,11.2h42l16.9,0c6-0.1,10.9-5.1,10.9-11.2v-8.2c0.3-1.3,0.5-2.6,0.5-4v-29
		c0.3-0.5,0.7-1,1-1.4c2.9-4.1,6.2-8.3,10-12.6c0.5-0.6,1-1.1,1.5-1.7c4.3-4.7,9.3-9.6,15-14.5C125.2,43.3,134.7,36.3,145.9,29.3
		C145.9,29.3,145.9,29.3,145.9,29.3z M55.9,52.8c5.8,0,10.4,4.7,10.4,10.4c0,5.8-4.7,10.4-10.4,10.4c-5.8,0-10.4-4.7-10.4-10.4
		C45.5,57.5,50.2,52.8,55.9,52.8z"/>
</g>
</svg>
