<?xml version="1.0" encoding="utf-8"?>
<!-- Generator: Adobe Illustrator 18.1.0, SVG Export Plug-In . SVG Version: 6.00 Build 0)  -->
<svg version="1.1" id="Layer_1" xmlns="http://www.w3.org/2000/svg" xmlns:xlink="http://www.w3.org/1999/xlink" x="0px" y="0px"
	 viewBox="0 0 150 150" enable-background="new 0 0 150 150" xml:space="preserve">
<g>
	<path fill="#FC9D8F" d="M116.6,16H32.4C22.8,16,15,24.1,15,33.7V118c0,9.6,7.8,18,17.4,18h25.7L34,111.5l0.2-0.9
		c-0.6-0.5-1.1-1.2-1.6-1.8c-5.7-6.3-6.9-15.5-6.9-15.5c-1.4-2.6,0.7-4.8,1.9-3.6c1.2,1.1,7.6,2.1,11-1.2c0.3-0.3,0.6-0.5,0.9-0.7
		l0.8-6.1c-4.5-0.3-9.4-2.2-12.9-5C21.3,71.8,23.1,51,23.1,51c-0.8-3.2,14.6-1.9,17.8-1.7c1.9,0.1,4.4,0.1,6.9,2l2.9-2.5
		c-0.6-0.6-1.2-1.2-1.7-1.9c-5.1-6.4-3.6-17.1-3.6-17.1s0.7-2.4,2.4-2.4c1.8-0.1,7.7,1,14.8,0.7c6.8-0.2,13.8,2.6,16.5,9.7l8.6-1.3
		c0.1-4.7-0.8-6.8-0.8-6.8c-2-3.8-5.2-5.8,5.5-4.3c10,1.1,15.7,6.5,18.7,11.9l0.6,0.1L134,59.8V33.7C134,24.1,126.2,16,116.6,16z"/>
	<path fill="#FC9D8F" d="M111,37.4c0.3,0.5,0.5,1,0.7,1.4c2.8,5.8,1.4,13-3.7,15.8c-5.1,2.8-14.6,3.1-17.8-0.7
		c-3.1-3.8-3.7-5.5-2.9-13.3c0.2-1.6,0.2-3,0.3-4.2l-8.6,1.3c0.1,0.3,0.3,0.7,0.4,1c2.4,7.9-3.6,12.9-9.9,15.1
		c-5.6,2-13.5-0.2-18.8-5.2l-2.9,2.5c1.6,1.3,3.3,3.4,4.7,7.1c3.6,9.1,1.6,16.3-3.6,20.9c-2.2,1.9-5.3,2.6-8.6,2.4l-0.8,6.1
		c4.5-2.3,17,0,18.8,5.1c1.9,5.6,2.2,15.1-5.4,20.3c-6.9,4.8-13.3,2.5-18.7-2.7l-0.2,1L58.1,136h20.4c-20-12-15.8-24.9-13.8-33.2
		c2-8.4-3.2-11.3-3.3-19.9c0-8.6,11.2-17.6,11.2-17.6c5.8-5.8,13.2-4.6,19-2.4c5.9,2.2,7,3.3,15.1,1.6c8.1-1.7,14-2.5,19.2,3.3
		c2.1,2.4,5,5.6,8,9.5v0V59.8l-22.4-22.4L111,37.4z"/>
	<linearGradient id="SVGID_1_" gradientUnits="userSpaceOnUse" x1="57.7832" y1="56.3364" x2="131.0632" y2="138.3561">
		<stop  offset="0" style="stop-color:#FC9D8F"/>
		<stop  offset="1" style="stop-color:#A55A4D"/>
	</linearGradient>
	<path fill="url(#SVGID_1_)" d="M111,37.4c0.3,0.5,0.5,1,0.7,1.4c2.8,5.8,1.4,13-3.7,15.8c-5.1,2.8-14.6,3.1-17.8-0.7
		c-3.1-3.8-3.7-5.5-2.9-13.3c0.2-1.6,0.2-3,0.3-4.2l-8.6,1.3c0.1,0.3,0.3,0.7,0.4,1c2.4,7.9-3.6,12.9-9.9,15.1
		c-5.6,2-13.5-0.2-18.8-5.2l-2.9,2.5c1.6,1.3,3.3,3.4,4.7,7.1c3.6,9.1,1.6,16.3-3.6,20.9c-2.2,1.9-5.3,2.6-8.6,2.4l-0.8,6.1
		c4.5-2.3,17,0,18.8,5.1c1.9,5.6,2.2,15.1-5.4,20.3c-6.9,4.8-13.3,2.5-18.7-2.7l-0.2,1L58.1,136h20.4c-20-12-15.8-24.9-13.8-33.2
		c2-8.4-3.2-11.3-3.3-19.9c0-8.6,11.2-17.6,11.2-17.6c5.8-5.8,13.2-4.6,19-2.4c5.9,2.2,7,3.3,15.1,1.6c8.1-1.7,14-2.5,19.2,3.3
		c2.1,2.4,5,5.6,8,9.5v0V59.8l-22.4-22.4L111,37.4z"/>
	<path fill="#DBAB7A" d="M124.2,97.8c-1.2,0-2.3,0-3.2-0.1c-3.8-0.4-7.1-1.8-8.6-2.5c-3.1-1.8-5.5-4.1-6.6-5.3
		c0.6-0.8,1.3-1.8,2-3.1l-0.7-2.6c0,0-0.1,2.5-1.7,5.1c-0.1-0.1-0.1-0.1-0.1-0.1c1-1,1.5-3.9,1.5-4.9c0-1-4.4-4.9-9.1-6.1
		c-4.7-1.2-9.1-0.2-11.3,0.5c-2.2,0.7-4.9,7.6-4.9,7.6s-4.2,1.5-5.2,3.2c-1,1.7,0.2,5.9,2.5,7.4c2.2,1.5,9.1,2.2,9.1,2.2
		c1.7,2.7,3.7,10.6,3.7,13.3c0,2.2,0.8,4.7,2.9,7.5c1.6,2.5,3.3,5,3.4,8.4c0.1,2.5-1.7,4.7-4.6,7.7h23.6c9.6,0,17.4-8.4,17.4-18
		V93.6c-1,1.6-3.4,2.9-5.9,3.6C126.8,97.6,125.5,97.8,124.2,97.8z"/>
	<path fill="#FFFFFE" d="M106.8,64.4c-8.1,1.7-9.2,0.6-15.1-1.6c-5.9-2.2-13.2-3.5-19,2.4c0,0-11.2,8.9-11.2,17.5
		c0,8.6,5.3,11.7,3.3,20.1c-2,8.3-6.2,21.2,13.8,33.2H93c2.9-3,4.7-5.2,4.6-7.7c-0.1-3.4-1.8-5.8-3.4-8.3c-2-2.7-2.9-5.3-2.9-7.5
		c0-2.7-2-10.6-3.7-13.3c0,0-6.9-0.8-9.1-2.2c-2.2-1.5-3.4-5.7-2.5-7.4c1-1.7,5.2-3.2,5.2-3.2s2.7-6.9,4.9-7.6
		c2.2-0.7,6.6-1.7,11.3-0.5c4.7,1.2,9.1,5.2,9.1,6.1c0,1-0.5,3.9-1.5,4.9c0,0,0,0.1,0.1,0.1c1.7-2.6,1.7-5.1,1.7-5.1l0.7,2.6
		c-0.7,1.3-1.3,2.3-2,3.1c1.1,1.1,3.6,3.5,6.6,5.3c1.5,0.7,4.7,2.1,8.6,2.5c1,0,2.1,0.1,3.2,0.1c1.3-0.1,2.6-0.3,3.9-0.7
		c2.5-0.8,4.9-2.1,5.9-3.6V77.2c-3-3.9-5.9-7.1-8-9.5C120.8,61.9,114.9,62.7,106.8,64.4z"/>
	<path fill="#FFFFFE" d="M90.2,54c3.1,3.8,12.6,3.5,17.8,0.7c5.1-2.8,6.5-10,3.7-15.8c-0.2-0.5-0.5-1-0.7-1.4
		c-3-5.4-8.7-10.9-18.7-11.9c-10.6-1.5-7.4,0.5-5.5,4.3c0,0,0.9,2.1,0.8,6.8c0,1.2-0.1,2.6-0.3,4.2C86.6,48.4,87.1,50.2,90.2,54z"/>
	<path fill="#FFFFFE" d="M48.9,79.3c5.2-4.6,7.2-11.8,3.6-20.9c-1.4-3.7-3.1-5.8-4.7-7.1c-2.4-1.9-4.9-1.9-6.9-2
		c-3.3-0.2-18.6-1.5-17.8,1.7c0,0-1.8,20.8,4.3,25.7c3.5,2.8,8.4,4.8,12.9,5C43.6,81.9,46.7,81.2,48.9,79.3z"/>
	<path fill="#FFFFFE" d="M69.5,54c6.3-2.3,12.4-7.2,9.9-15.1c-0.1-0.4-0.2-0.7-0.4-1c-2.7-7.2-9.7-9.9-16.5-9.7
		c-7.1,0.2-13-0.8-14.8-0.7c-1.8,0.1-2.4,2.4-2.4,2.4S43.8,40.6,49,47c0.5,0.7,1.1,1.3,1.7,1.9C56,53.9,63.9,56.1,69.5,54z"/>
	<path fill="#FFFFFE" d="M52.9,113.2c7.6-5.3,7.3-14.7,5.4-20.3c-1.8-5.2-14.3-7.4-18.8-5.1c-0.4,0.2-0.7,0.4-0.9,0.7
		c-3.4,3.4-9.9,2.4-11,1.2c-1.2-1.2-3.3,1-1.9,3.6c0,0,1.2,9.2,6.9,15.5c0.5,0.6,1.1,1.2,1.6,1.7C39.6,115.7,46,118,52.9,113.2z"/>
</g>
</svg>
