<?xml version="1.0" encoding="utf-8"?>
<!-- Generator: Adobe Illustrator 16.0.0, SVG Export Plug-In . SVG Version: 6.00 Build 0)  -->
<!DOCTYPE svg PUBLIC "-//W3C//DTD SVG 1.1//EN" "http://www.w3.org/Graphics/SVG/1.1/DTD/svg11.dtd">
<svg version="1.1" id="Layer_1" xmlns="http://www.w3.org/2000/svg" xmlns:xlink="http://www.w3.org/1999/xlink" x="0px" y="0px"
	 width="100px" height="100px" viewBox="0 0 100 100" enable-background="new 0 0 100 100" xml:space="preserve">
<g>
	<radialGradient id="SVGID_1_" cx="30.8369" cy="34.855" r="101.0131" gradientUnits="userSpaceOnUse">
		<stop  offset="0" style="stop-color:#00ADEE"/>
		<stop  offset="0.0016" style="stop-color:#01ADEE"/>
		<stop  offset="0.0526" style="stop-color:#15ABE6"/>
		<stop  offset="0.1029" style="stop-color:#22A9E2"/>
		<stop  offset="0.1515" style="stop-color:#26A9E0"/>
		<stop  offset="0.3273" style="stop-color:#1B75BB"/>
		<stop  offset="0.5212" style="stop-color:#2B388F"/>
		<stop  offset="0.7576" style="stop-color:#1C1651"/>
		<stop  offset="1" style="stop-color:#120742"/>
	</radialGradient>
	<path fill-rule="evenodd" clip-rule="evenodd" fill="url(#SVGID_1_)" d="M64.624,5.507c0.53-0.055,1.066-0.11,1.603-0.165
		c-6.434,17.327-12.484,34.965-19.04,52.195c4.356,1.822,11.85-5.105,15.408,0.062c3.918,6.549-10.089,12.239-12.087,24.735
		c8.664,6.599,23.273,3.991,33.473,2.291c1.949,0.7-1.243,3.333-1.999,4.253c-6.372-3.619-13.592,1.065-20.946,1.31
		c-3.887,0.128-9.004-3.144-14.938-3.357c-4.167-0.146-8.956,1.542-12.837,1.298c-5.514-0.329-9.474-3.552-14.049-2.632
		c-4.283,0.865-7.378,4.539-9.706,8.28c-0.707-5.259,9.681-13.971,17.65-9.889c2.047-0.402-1.243-1.268-0.323-3.211
		c3.686-0.914,5.276,0.743,8.188,0.792c7.317-11.082,10.942-24.602,15.683-37.262C55.533,31.315,60.926,18.74,64.624,5.507z
		 M38.31,81.944c2.291,0.201,4.289,0.755,6.58,0.956c-0.311-10.314,5.605-15.548,9.931-22.085
		C40.126,60.364,42.904,74.164,38.31,81.944z M47.376,83.461c2.693-2.485,2.9-10.869,3.601-12.526
		C48.57,73.792,46.121,80.013,47.376,83.461z"/>
	<radialGradient id="SVGID_2_" cx="30.8374" cy="34.8579" r="101.0077" gradientUnits="userSpaceOnUse">
		<stop  offset="0" style="stop-color:#00ADEE"/>
		<stop  offset="0.0016" style="stop-color:#01ADEE"/>
		<stop  offset="0.0526" style="stop-color:#15ABE6"/>
		<stop  offset="0.1029" style="stop-color:#22A9E2"/>
		<stop  offset="0.1515" style="stop-color:#26A9E0"/>
		<stop  offset="0.3273" style="stop-color:#1B75BB"/>
		<stop  offset="0.5212" style="stop-color:#2B388F"/>
		<stop  offset="0.7576" style="stop-color:#1C1651"/>
		<stop  offset="1" style="stop-color:#120742"/>
	</radialGradient>
	<path fill-rule="evenodd" clip-rule="evenodd" fill="url(#SVGID_2_)" d="M61.571,7.438C54.797,29.396,43.203,53.79,35.41,77.375
		c-4.076-7.086-10.333-16.17-9.017-25.035c1.03-6.915,11.29-16.218,17.151-22.81C50.69,21.487,57.234,13.524,61.571,7.438z"/>
	<radialGradient id="SVGID_3_" cx="30.8691" cy="34.8511" r="100.9482" gradientUnits="userSpaceOnUse">
		<stop  offset="0" style="stop-color:#00ADEE"/>
		<stop  offset="0.0016" style="stop-color:#01ADEE"/>
		<stop  offset="0.0526" style="stop-color:#15ABE6"/>
		<stop  offset="0.1029" style="stop-color:#22A9E2"/>
		<stop  offset="0.1515" style="stop-color:#26A9E0"/>
		<stop  offset="0.3273" style="stop-color:#1B75BB"/>
		<stop  offset="0.5212" style="stop-color:#2B388F"/>
		<stop  offset="0.7576" style="stop-color:#1C1651"/>
		<stop  offset="1" style="stop-color:#120742"/>
	</radialGradient>
	<path fill-rule="evenodd" clip-rule="evenodd" fill="url(#SVGID_3_)" d="M67.055,51.03c0,1.998-1.62,3.613-3.619,3.613
		c-1.998,0-3.606-1.615-3.606-3.613s1.608-3.619,3.606-3.619C65.435,47.411,67.055,49.032,67.055,51.03z"/>
</g>
</svg>
