<?xml version="1.0" encoding="utf-8"?>
<!-- Generator: Adobe Illustrator 16.0.0, SVG Export Plug-In . SVG Version: 6.00 Build 0)  -->
<!DOCTYPE svg PUBLIC "-//W3C//DTD SVG 1.1//EN" "http://www.w3.org/Graphics/SVG/1.1/DTD/svg11.dtd">
<svg version="1.1" id="Layer_1" xmlns="http://www.w3.org/2000/svg" xmlns:xlink="http://www.w3.org/1999/xlink" x="0px" y="0px"
	 width="100px" height="100px" viewBox="0 0 100 100" enable-background="new 0 0 100 100" xml:space="preserve">
<g>
	<g>
		<path fill="#EC297B" d="M27.961,19.837c1.617,3.449,3.429,6.652,5.487,9.572c2.058,2.915,4.367,5.52,6.952,7.574
			c1.286,1.035,2.648,1.917,4.048,2.661c1.411,0.728,2.867,1.327,4.372,1.754c3.008,0.862,6.196,1.125,9.462,0.898
			c1.618-0.104,3.207-0.315,4.731-0.695c1.532-0.348,3.001-0.854,4.4-1.505c1.414-0.631,2.729-1.459,4.003-2.394
			c0.627-0.469,1.237-0.979,1.819-1.537c0.599-0.533,1.165-1.116,1.715-1.731c2.2-2.442,4.045-5.402,5.613-8.605
			c1.569-3.219,2.863-6.665,3.963-10.316c0.396,1.88,0.518,3.813,0.505,5.746c-0.012,1.933-0.193,3.874-0.521,5.815
			c-0.679,3.874-2.029,7.748-4.245,11.286c-2.188,3.546-5.388,6.668-9.188,8.796c-1.896,1.067-3.931,1.872-5.993,2.45
			c-2.078,0.551-4.177,0.894-6.268,1.028c-2.079,0.104-4.198,0.076-6.305-0.211c-2.107-0.299-4.218-0.78-6.232-1.561
			c-4.043-1.517-7.655-4.084-10.409-7.194c-2.761-3.119-4.739-6.717-6.041-10.43c-0.647-1.852-1.141-3.745-1.46-5.653
			C28.05,23.68,27.864,21.754,27.961,19.837z"/>
		<path fill="#EC297B" d="M34.036,84.354c0.865-3.741,2.037-7.376,3.352-10.966c1.331-3.584,2.831-7.109,4.55-10.571
			c1.747-3.453,3.664-6.842,6.119-10.098c1.253-1.614,2.588-3.224,4.367-4.708c0.897-0.735,1.904-1.451,3.171-2.058
			c0.631-0.292,1.346-0.559,2.139-0.736c0.792-0.178,1.69-0.258,2.612-0.17c0.922,0.089,1.86,0.348,2.682,0.736
			c0.82,0.388,1.536,0.886,2.131,1.412c0.291,0.255,0.573,0.538,0.813,0.796l0.506,0.534c0.343,0.355,0.675,0.72,0.994,1.092
			c1.29,1.471,2.527,2.953,3.688,4.457c2.354,2.979,4.497,6.01,6.672,8.905c2.185,2.879,4.348,5.686,6.84,7.975
			c1.249,1.144,2.592,2.118,4.136,2.805c1.54,0.696,3.332,1.004,5.306,0.895c-1.553,1.21-3.647,1.889-5.807,1.889
			c-2.177,0.012-4.311-0.623-6.236-1.487c-0.963-0.438-1.876-0.955-2.762-1.492c-0.877-0.556-1.711-1.148-2.527-1.761
			c-1.605-1.24-3.098-2.563-4.493-3.954c-2.794-2.762-5.272-5.679-7.622-8.577l-3.486-4.267c-0.291-0.339-0.578-0.687-0.857-1.034
			l-0.437-0.52c-0.073-0.093-0.126-0.149-0.178-0.209c-0.105-0.104-0.17-0.146-0.194-0.174c-0.024-0.021-0.008-0.021-0.016-0.036
			c-0.013-0.021-0.275-0.065-0.736,0.112c-0.462,0.162-1.035,0.485-1.626,0.906c-1.181,0.841-2.435,1.997-3.603,3.259
			c-1.178,1.267-2.346,2.626-3.458,4.052c-1.125,1.416-2.228,2.881-3.309,4.376C42.422,71.717,38.366,78.053,34.036,84.354z"/>
		<path fill="#EC297B" d="M66.528,31.815c0,4.101-3.324,7.425-7.421,7.425c-4.101,0-7.425-3.324-7.425-7.425
			c0-4.096,3.324-7.417,7.425-7.417C63.204,24.399,66.528,27.719,66.528,31.815z"/>
	</g>
	<g>
		<path fill="#006838" d="M4.858,47.057c0.959,2.05,2.034,3.95,3.255,5.682c1.222,1.73,2.597,3.276,4.129,4.498
			c0.764,0.613,1.573,1.132,2.402,1.576c0.837,0.433,1.703,0.793,2.592,1.043c1.787,0.51,3.685,0.668,5.621,0.534
			c0.959-0.064,1.901-0.187,2.807-0.412c0.909-0.206,1.783-0.51,2.616-0.894c0.837-0.373,1.617-0.862,2.374-1.419
			c0.372-0.284,0.735-0.583,1.079-0.915c0.352-0.314,0.692-0.662,1.019-1.027c1.306-1.451,2.398-3.207,3.332-5.11
			c0.935-1.906,1.699-3.956,2.35-6.123c0.238,1.116,0.307,2.265,0.303,3.413c-0.004,1.149-0.118,2.301-0.312,3.454
			c-0.404,2.297-1.205,4.595-2.52,6.701c-1.298,2.098-3.198,3.95-5.456,5.221c-1.124,0.63-2.333,1.107-3.558,1.451
			c-1.233,0.328-2.479,0.53-3.72,0.611c-1.229,0.064-2.491,0.045-3.745-0.126c-1.25-0.178-2.503-0.461-3.696-0.927
			c-2.398-0.896-4.546-2.426-6.18-4.27c-1.642-1.853-2.814-3.986-3.583-6.187c-0.388-1.109-0.679-2.233-0.869-3.361
			C4.911,49.333,4.798,48.193,4.858,47.057z"/>
		<path fill="#006838" d="M8.465,85.353c0.514-2.212,1.209-4.38,1.985-6.507c0.792-2.126,1.683-4.221,2.706-6.276
			c1.031-2.045,2.176-4.06,3.627-5.992c0.745-0.963,1.537-1.913,2.597-2.799c0.534-0.437,1.132-0.861,1.88-1.213
			c0.376-0.178,0.797-0.339,1.27-0.444c0.473-0.105,1.007-0.154,1.553-0.098c0.545,0.057,1.104,0.203,1.589,0.437
			c0.493,0.228,0.914,0.526,1.265,0.837c0.174,0.154,0.34,0.319,0.481,0.469l0.3,0.32c0.206,0.211,0.404,0.429,0.59,0.646
			c0.768,0.878,1.504,1.755,2.191,2.648c1.396,1.769,2.669,3.563,3.963,5.282c1.294,1.71,2.581,3.376,4.057,4.735
			c0.74,0.679,1.541,1.262,2.455,1.666c0.917,0.413,1.977,0.6,3.15,0.533c-0.922,0.716-2.164,1.117-3.45,1.117
			c-1.285,0.013-2.555-0.369-3.696-0.882c-0.574-0.259-1.116-0.565-1.642-0.887c-0.518-0.326-1.019-0.679-1.497-1.038
			c-0.954-0.745-1.844-1.529-2.669-2.354c-1.658-1.637-3.13-3.371-4.529-5.086l-2.062-2.536c-0.178-0.202-0.348-0.408-0.514-0.614
			l-0.255-0.309c-0.048-0.052-0.076-0.088-0.113-0.125c-0.056-0.057-0.097-0.084-0.114-0.105c-0.011-0.007,0-0.007-0.007-0.015
			c-0.008-0.017-0.162-0.041-0.437,0.063c-0.275,0.098-0.614,0.292-0.962,0.539c-0.704,0.497-1.448,1.184-2.14,1.933
			c-0.7,0.752-1.395,1.557-2.054,2.406c-0.671,0.84-1.323,1.71-1.961,2.597C13.443,77.852,11.033,81.612,8.465,85.353z"/>
		<path fill="#006838" d="M27.751,54.17c0,2.43-1.974,4.404-4.404,4.404c-2.435,0-4.408-1.975-4.408-4.404
			c0-2.434,1.973-4.408,4.408-4.408C25.777,49.762,27.751,51.736,27.751,54.17z"/>
	</g>
</g>
</svg>
