<?xml version="1.0" encoding="iso-8859-1"?>
<!-- Generator: Adobe Illustrator 13.0.0, SVG Export Plug-In . SVG Version: 6.00 Build 14948)  -->
<!DOCTYPE svg PUBLIC "-//W3C//DTD SVG 1.1//EN" "http://www.w3.org/Graphics/SVG/1.1/DTD/svg11.dtd">
<svg version="1.1" id="Layer_1" xmlns="http://www.w3.org/2000/svg" xmlns:xlink="http://www.w3.org/1999/xlink" x="0px" y="0px"
	 width="100px" height="100px" viewBox="0 0 100 100" enable-background="new 0 0 100 100" xml:space="preserve">
<g>
	<defs>
		<filter id="Adobe_OpacityMaskFilter" filterUnits="userSpaceOnUse" x="76.994" y="55.757" width="10.804" height="23.123">
			<feFlood  style="flood-color:white;flood-opacity:1" result="back"/>
			<feBlend  in="SourceGraphic" in2="back" mode="normal"/>
		</filter>
	</defs>
	<mask maskUnits="userSpaceOnUse" x="76.994" y="55.757" width="10.804" height="23.123" id="SVGID_1_">
		<g filter="url(#Adobe_OpacityMaskFilter)">
			<defs>
				<filter id="Adobe_OpacityMaskFilter_1_" filterUnits="userSpaceOnUse" x="76.994" y="55.757" width="10.804" height="23.123">
					<feFlood  style="flood-color:white;flood-opacity:1" result="back"/>
					<feBlend  in="SourceGraphic" in2="back" mode="normal"/>
				</filter>
			</defs>
			<mask maskUnits="userSpaceOnUse" x="76.994" y="55.757" width="10.804" height="23.123" id="SVGID_1_">
				<g filter="url(#Adobe_OpacityMaskFilter_1_)">
				</g>
			</mask>
			<linearGradient id="SVGID_2_" gradientUnits="userSpaceOnUse" x1="69.8271" y1="82.6953" x2="83.6497" y2="54.0452">
				<stop  offset="0" style="stop-color:#FFFFFF"/>
				<stop  offset="0.0524" style="stop-color:#E8E8E8"/>
				<stop  offset="0.2031" style="stop-color:#ABABAB"/>
				<stop  offset="0.3529" style="stop-color:#777777"/>
				<stop  offset="0.4983" style="stop-color:#4C4C4C"/>
				<stop  offset="0.6383" style="stop-color:#2B2B2B"/>
				<stop  offset="0.7716" style="stop-color:#131313"/>
				<stop  offset="0.8952" style="stop-color:#050505"/>
				<stop  offset="1" style="stop-color:#000000"/>
			</linearGradient>
			<polygon mask="url(#SVGID_1_)" fill-rule="evenodd" clip-rule="evenodd" fill="url(#SVGID_2_)" points="76.994,55.757 
				77.496,78.88 87.798,56.512 			"/>
		</g>
	</mask>
	<linearGradient id="SVGID_3_" gradientUnits="userSpaceOnUse" x1="69.8271" y1="82.6953" x2="83.6497" y2="54.0452">
		<stop  offset="0" style="stop-color:#FFFFFF"/>
		<stop  offset="1" style="stop-color:#FFFFFF"/>
	</linearGradient>
	<polygon fill-rule="evenodd" clip-rule="evenodd" fill="url(#SVGID_3_)" points="76.994,55.757 77.496,78.88 87.798,56.512 	"/>
	<g>
		<path fill="#8DBD4F" d="M56.162,20.327c1.661,0.368,3.321,1.011,4.812,2.079c1.504,1.044,2.828,2.53,3.744,4.296
			c0.91,1.762,1.398,3.734,1.56,5.657c0.175,1.922,0.045,3.809-0.212,5.611c-0.538,3.62-1.629,6.941-2.814,10.101
			c-1.201,3.159-2.577,6.149-3.906,9.079c-2.662,5.833-5.459,11.375-6.784,16.909c-0.652,2.764-0.883,5.51-0.336,8.319
			c0.271,1.408,0.759,2.819,1.427,4.237c0.681,1.402,1.536,2.805,2.511,4.213c-3.192-1.178-6.168-3.437-8.173-6.661
			c-2.019-3.22-2.806-7.193-2.741-10.896c0.046-3.734,0.851-7.272,1.868-10.594c0.515-1.665,1.126-3.265,1.739-4.848
			c0.648-1.567,1.32-3.101,2-4.608c2.756-5.998,5.988-11.541,8.091-17.005c1.03-2.728,1.729-5.386,1.444-8.036
			c-0.139-1.329-0.57-2.672-1.307-4.001C58.347,22.856,57.33,21.573,56.162,20.327z"/>
		<path fill="#8DBD4F" d="M38.822,5.474c1.306,0.157,2.626,0.534,3.85,1.261c1.232,0.704,2.35,1.78,3.169,3.1
			c0.81,1.32,1.307,2.833,1.541,4.31c0.244,1.49,0.249,2.953,0.147,4.36c-0.216,2.815-0.878,5.414-1.628,7.879
			c-0.759,2.47-1.665,4.807-2.544,7.078c-1.761,4.531-3.652,8.794-4.484,12.944c-0.41,2.07-0.534,4.089-0.078,6.178
			c0.427,2.102,1.568,4.217,3.109,6.355c-2.539-0.652-4.981-2.198-6.729-4.576c-1.761-2.369-2.594-5.418-2.746-8.279
			c-0.166-2.893,0.271-5.653,0.888-8.242c0.308-1.302,0.708-2.553,1.095-3.79c0.423-1.224,0.869-2.419,1.315-3.597
			c1.83-4.678,4.066-8.992,5.482-13.127c0.69-2.065,1.154-4.029,0.92-5.975c-0.12-0.979-0.456-1.978-1.026-2.971
			C40.533,7.393,39.737,6.421,38.822,5.474z"/>
		<path fill="#8DBD4F" d="M48.21,5.235c1.715,0.474,3.413,1.214,4.926,2.364c1.522,1.131,2.848,2.695,3.744,4.521
			c0.893,1.831,1.356,3.859,1.49,5.842c0.143,1.987-0.023,3.928-0.316,5.8c-0.617,3.749-1.795,7.212-3.073,10.529
			c-1.288,3.316-2.756,6.471-4.168,9.576c-2.828,6.191-5.781,12.156-7.078,18.196c-0.64,3.012-0.792,6.029-0.074,9.042
			c0.685,3.026,2.364,5.966,4.549,8.785c-3.261-1.397-6.279-3.84-8.266-7.217c-2.005-3.371-2.746-7.465-2.622-11.301
			c0.105-3.868,0.975-7.543,2.069-11.011c0.552-1.739,1.205-3.422,1.854-5.078c0.686-1.646,1.399-3.261,2.121-4.857
			c2.907-6.338,6.301-12.258,8.44-18.201c1.039-2.962,1.725-5.915,1.279-8.804c-0.217-1.444-0.76-2.884-1.605-4.264
			C50.629,7.779,49.493,6.473,48.21,5.235z"/>
	</g>
	<g>
		<path fill-rule="evenodd" clip-rule="evenodd" fill="#272525" d="M38.61,74.399v1.039h-3.721v-3.726h2.254
			c-1.338-3.05-2.014-6.655-1.895-10.404c0.032-1.141,0.133-2.304,0.29-3.5c-0.745-0.662-1.436-1.398-2.033-2.213
			c-1.84-2.479-2.958-5.818-3.146-9.401c-0.152-2.667,0.142-5.478,0.938-8.835c0.322-1.348,0.727-2.626,1.113-3.864l0.037-0.115
			c0.432-1.251,0.883-2.465,1.343-3.666c0.276-0.7,0.561-1.375,0.846-2.051h-3.458v-3.721h3.726v3.077
			c0.478-1.122,0.961-2.222,1.435-3.298c0.474-1.058,0.925-2.088,1.357-3.1H19.513v51.092h2.902v3.726h-2.902v3.257H42.4
			C40.924,77.453,39.65,76.004,38.61,74.399z M25.782,23.942h3.722v3.721h-3.722V23.942z M20.382,27.663v-3.721h3.726v3.721H20.382z
			 M27.815,75.438h-3.726v-3.726h3.726V75.438z M33.21,75.438H29.49v-3.726h3.721V75.438z"/>
		<path fill-rule="evenodd" clip-rule="evenodd" fill="#272525" d="M77.587,23.942v-3.321H62.026
			c0.051,0.032,0.103,0.06,0.151,0.097c1.238,0.86,2.333,1.959,3.243,3.225h1.868v3.486c0.553,1.477,0.92,3.091,1.058,4.756
			c0.166,1.845,0.093,3.836-0.229,6.081c-0.594,4.02-1.812,7.58-2.926,10.538c-1.163,3.059-2.479,5.948-3.749,8.74l-0.206,0.464
			c-0.415,0.902-0.828,1.799-1.242,2.682c-2.093,4.518-4.066,8.795-5.188,13.003v1.748h-0.4c-0.225,1.142-0.368,2.23-0.396,3.257
			h23.577V27.663h-3.225v-3.721H77.587z M60.2,75.438h-3.72v-3.726h3.72V75.438z M68.963,23.942h3.727v3.721h-3.727V23.942z
			 M65.601,75.438h-3.726v-3.726h3.726V75.438z M70.997,75.438h-3.722v-3.726h3.722V75.438z M76.396,71.713v3.726H72.67v-3.726
			H76.396z"/>
	</g>
</g>
</svg>
