<?xml version="1.0" encoding="utf-8"?>
<!-- Generator: Adobe Illustrator 18.1.0, SVG Export Plug-In . SVG Version: 6.00 Build 0)  -->
<svg version="1.1" id="Layer_1" xmlns="http://www.w3.org/2000/svg" xmlns:xlink="http://www.w3.org/1999/xlink" x="0px" y="0px"
	 viewBox="0 0 1000 1000" enable-background="new 0 0 1000 1000" xml:space="preserve">
<g>
	<path fill="#1D1F1F" d="M402.1,527c0,0,33.6-19.6,41.6-24.3c8-4.7,13.3-16.8,13.3-16.8l2.7-39.2l5.3-1.9c0,0,3.5-17.7,2.7-27.1
		c-0.9-9.3-11.2-4.9-11.2-4.9c-1.8-75.7-53.8-73.8-53.8-73.8h-21.2c0,0-52-1.9-53.8,73.8c0,0-10.3-4.5-11.1,4.9
		c-0.9,9.3,2.6,27.1,2.6,27.1l5.3,1.9l2.7,39.2c0,0,5.3,12.1,13.3,16.8c8,4.7,41.6,24.3,41.6,24.3h8.7h2.8H402.1z M329.5,589.9
		l59.8-35.1v-8.2l-59.8-4.7V589.9z M450.2,541.8l-58.6,4.7v8.2l58.6,35.1V541.8z M301,529.3l-100.2,38.1c0,0-19.7,90.3,62.1,194.8
		C344.8,866.7,339.2,902,339.2,902s45.2-11.3,14.1-145.4C322.2,622.5,298.2,542,301,529.3z M583.7,567.4l-100.2-38.1
		c2.8,12.7-21.2,93.2-52.2,227.3c-31,134.1,14.1,145.4,14.1,145.4s-5.6-35.3,76.2-139.7C603.4,657.8,583.7,567.4,583.7,567.4z
		 M186.7,578.7c0,0-43.8,91.8-15.5,192c28.2,100.2,120,77.6,120,77.6s-8.5-32.5-48-84.7C203.7,711.4,185.3,619.7,186.7,578.7z
		 M736.5,429.3c-18.8,1.2-36.3,21.1-41,23.4c-4.7,2.3-31.6,3.5-39.9,1.2c-8.2-2.3-11.7-9.4-22.3-17.6c-10.6-8.2-25.8,0-25.8,0
		l35.2,30.5l1.2,16.4h52.7l1.2-12.9c0,0,22.3-2.3,27-2.3c4.7,0,41-37.5,41-37.5S755.3,428.1,736.5,429.3z M499.2,405v17.4h369.2V405
		H499.2z M704.9,494.4l-59.9-1.5v9.2h59.9V494.4z M646.5,515.9l-18.4,147.4l-10.8,1.5l6.1-66l-21.5-20c0,0,0.3,82.8-27.5,123.1
		l73.6,66.6c81.4-66,76.8-252.7,76.8-252.7H646.5z M657.5,399.1V247c0,0,0.7-29.8-24-34.2v-51.7h-8.7h-4H612v51.7
		c-24.8,4.4-24,34.2-24,34.2v152.1H657.5z M537.8,386l-16,13.1h36.4L544.4,386v-65.5l34.9-29.1h-77.9l36.4,26.9V386z M569.1,126.9
		h114.3v270.8h10.9V116.7H558.2v159.4l10.9,2.2V126.9z M532.7,182.9H548l3.6-9.5H524v106.3h8.7V182.9z M628.8,90.5l21.8-6.5
		l-26.9-5.1v30.6l5.1-0.7V90.5z M732.5,384.4l43.3-0.4v15h3.6V384l25.5-0.2l26.9,19.7l4.4-8.7l-22.6-18.2h-34.2v-64.8h59
		c-21-19.6-40.7-27.5-58.1-28.8l-3.7-11.2l-2.6,10.9c-37.2,0.3-62.2,29.1-62.2,29.1h64v64.8H769l-5.5-16h-39.3l-8-14.6l-6.5,3.6
		L721,384l-15.1,15.1h6.5L732.5,384.4z M758.3,366.3l4.8,10.2h-30.3l-5.6-10.2H758.3z M746.3,96.1c167.1,54.9-38.9,152.9-38.9,152.9
		l4.9,13.6C934.3,140.5,746.3,96.1,746.3,96.1z M743.2,99.2c0,0,103,48.1-32.1,119l2.5,10.5C713.6,228.7,859.7,151.6,743.2,99.2z
		 M741.9,90.6l-23.4-6.8L733.9,98L741.9,90.6z"/>
</g>
</svg>
