<?xml version="1.0" encoding="utf-8"?>
<!-- Generator: Adobe Illustrator 18.1.0, SVG Export Plug-In . SVG Version: 6.00 Build 0)  -->
<svg version="1.1" id="Layer_1" xmlns="http://www.w3.org/2000/svg" xmlns:xlink="http://www.w3.org/1999/xlink" x="0px" y="0px"
	 viewBox="0 0 1000 1000" enable-background="new 0 0 1000 1000" xml:space="preserve">
<g>
	<path fill="none" d="M808.8,493.6c0.6-0.8,1.2-1.6,1.4-2.2C811,488.8,810.3,490.3,808.8,493.6z"/>
	<path fill="#E57B3D" d="M114.7,421.2c-7.1,12.9-13.3,26.4-18.8,40.2c10.5-12.8,33.3-32,65.5-48.8c3.2-6.5,6.6-12.9,10.4-19
		c17.3-24.9,37.3-46.7,59.4-64.1c33-24.1,72.5-39.5,115.1-43.2c64.7-2.1,116.2,26.1,111.4,56.8c-5.3,33.9-61.7,34.3-162.4,28.8
		c-56.1-3.1-101.4,18.7-124.7,36c35.7-17.2,81.5-30.9,134.2-30.9c156.9,0,244.6-5.3,250-58.5c4.8-48.1-77.5-87.6-178-78.8
		c-65.9,9.3-126.1,36.7-175.3,76.9C168.7,345.4,139.4,381,114.7,421.2z"/>
	<path fill="#EE935F" d="M295.4,371.9c100.6,5.5,157.1,5.2,162.4-28.8c4.8-30.7-46.7-58.9-111.4-56.8
		c-42.6,3.7-82.2,19.1-115.1,43.2c-22.2,17.3-42.2,39.1-59.4,64.1c-3.8,6.1-7.2,12.5-10.4,19c-1,2-2.1,4-3,6.1
		c2.9-3.1,7-6.9,12.4-10.9C194,390.6,239.3,368.8,295.4,371.9z"/>
	<path fill="#E57B3D" d="M115.6,338.4c0,0-68.3-50.7-68.7-19C46.5,350.4,115.6,338.4,115.6,338.4z"/>
	<path fill="#E57B3D" d="M205.9,256.3c0,0-34.5-77.7-50.5-50.3C139.8,232.7,205.9,256.3,205.9,256.3z"/>
	<path fill="#E57B3D" d="M286.7,139.8c-28.1,13,12.4,70.2,12.4,70.2S315.6,126.5,286.7,139.8z"/>
	<path fill="#E57B3D" d="M435.6,127.2c-30.7-4.3-27.4,65.8-27.4,65.8S467,131.6,435.6,127.2z"/>
	<path fill="#E57B3D" d="M557.2,158.4c-29.7-8.9-37,60.9-37,60.9S587.6,167.5,557.2,158.4z"/>
	<path fill="#00B3E6" d="M624.1,850.3c-74.5-5.3-69.1-90.4-2.7-101.1c66.5-10.6,71.8-53.2,71.8-53.2s-53.2,34.6-90.4,21.3
		c-37.2-13.3-4.3-61.5,45.2-63.8c120-5.6,135.4-70.4,135.3-74.9c-22.9,13.2-93.6,34.2-310.8,32.4c-173.5-1.5-271,184.7-202.2,301.3
		c47.4,23.3,100.7,36.4,157,36.4c98.9,0,188.3-40.3,252.9-105.3C662.3,848.6,643.2,851.7,624.1,850.3z"/>
	<path fill="#00B3E6" d="M658.6,754.6c-77.1,23.9-77.1,45.2-55.8,66.5c21.3,21.3,42.6,16,42.6,16c-53.2-26.6,5.3-45.2,79.8-58.5
		c74.5-13.3,53.2-101.1,53.2-101.1C767.6,736,735.7,730.7,658.6,754.6z"/>
	<path fill="#00B3E6" d="M725.1,661.5c-37.2,0-74.5,8-74.5,26.6c0,0,23.9-21.3,42.6-8c18.6,13.3,21.3,21.3,21.3,21.3
		s53.2,0,90.4-87.7C804.9,613.6,762.3,661.5,725.1,661.5z"/>
	<path opacity="0.78" fill="#57844D" d="M927.6,143.5c-3.8-15.6-13.7-29.2-45.1-33.8c-66.1-9.6-119.8,34.2-175.2,107.7
		c0,0,69.6-85.1,129.5-45.2c59.8,39.9,13,159.6-206.4,215.4c0,0,166.5-52.9,209.4-138.6c31.2-62.3-35.3-99.7-110.9-42
		c20.3-6.9,52.1-10.2,81.7,17.7c48.4,45.6-58.2,119.6-192.3,165C887,349.2,924.2,164.6,927.6,143.5z"/>
	<path fill="#A3C97F" d="M927.9,141.4c0,0-0.1,0.8-0.3,2.1c-3.4,21.1-40.6,205.7-309.2,246.2c-16.7,2.5-34.2,4.6-52.8,5.9
		c-287.2,20.5-391.1,13.9-488.6,132.1c-4,28.7-8.3,74.8-3.3,117.9c7.1,61.4,45.8,160.5,138.2,236c0,0-58.4-81.7-45.1-193.4
		l23.9,85.1l-2.7-79.8l16,23.9l23.9-154.2l10.6,111.7l16-66.5l18.6,13.3l13.3-55.8l26.6,23.9l16-53.2l25.5,66.4
		c3.2-1.4,6.4-2.6,9.6-3.9l7.4-49.2l16,37.2l26.6-133l26.6,125l13.3-58.5l18.6,39.9l5.3-39.9l14.7,25.1l4,6.8l13.3-37.2
		c0,0,10.6,47.9,39.9,50.5c29.2,2.7,16-16,16-16l26.6,16l5.3-16l31.9,8c0,0,34.6,8,77.1-63.8l5.3,45.2l61.2-47.9l-2.7,29.3
		c0,0,31.3-17.9,38.5-27c1.5-3.3,2.2-4.8,1.4-2.2c-0.2,0.7-0.7,1.4-1.4,2.2c-3.1,6.9-9.2,21.7-9.2,21.7l26.6-16
		c0,0-7,16.8-27.9,35.3c0.4-0.3,0.9-0.5,1.4-0.7C924.5,459.4,951.8,269.1,927.9,141.4z"/>
</g>
</svg>
