<?xml version="1.0" encoding="utf-8"?>
<!-- Generator: Adobe Illustrator 16.0.0, SVG Export Plug-In . SVG Version: 6.00 Build 0)  -->
<!DOCTYPE svg PUBLIC "-//W3C//DTD SVG 1.1//EN" "http://www.w3.org/Graphics/SVG/1.1/DTD/svg11.dtd">
<svg version="1.1" id="Layer_1" xmlns="http://www.w3.org/2000/svg" xmlns:xlink="http://www.w3.org/1999/xlink" x="0px" y="0px"
	 width="100px" height="100px" viewBox="0 0 100 100" enable-background="new 0 0 100 100" xml:space="preserve">
<g>
	<g>
		<g>
			<g>
				<radialGradient id="SVGID_1_" cx="48.7241" cy="50.0718" r="66.815" gradientUnits="userSpaceOnUse">
					<stop  offset="0.0182" style="stop-color:#FFCA05"/>
					<stop  offset="0.6667" style="stop-color:#F6921E"/>
					<stop  offset="1" style="stop-color:#BA461D"/>
				</radialGradient>
				<path fill="url(#SVGID_1_)" d="M53.557,19.234c0,3.559-4.494,16.922-4.494,16.922S44.57,22.793,44.57,19.234
					c0-3.555,2.009-6.444,4.492-6.444C51.547,12.791,53.557,15.679,53.557,19.234z"/>
				<g>
					<radialGradient id="SVGID_2_" cx="48.7217" cy="50.0737" r="66.8216" gradientUnits="userSpaceOnUse">
						<stop  offset="0.0182" style="stop-color:#FFCA05"/>
						<stop  offset="0.6667" style="stop-color:#F6921E"/>
						<stop  offset="1" style="stop-color:#BA461D"/>
					</radialGradient>
					<path fill="url(#SVGID_2_)" d="M50.652,35.651c1.895-4.162,6.548-13.565,12.207-13.524c5.658,0.045,6.198,6.336,0.595,7.203
						c-5.595,0.872-7.977,2.282-10.273,3.906C51.134,34.679,50.652,35.651,50.652,35.651z"/>
					<radialGradient id="SVGID_3_" cx="48.7227" cy="50.0737" r="66.8196" gradientUnits="userSpaceOnUse">
						<stop  offset="0.0182" style="stop-color:#FFCA05"/>
						<stop  offset="0.6667" style="stop-color:#F6921E"/>
						<stop  offset="1" style="stop-color:#BA461D"/>
					</radialGradient>
					<path fill="url(#SVGID_3_)" d="M47.47,35.651c-1.902-4.162-6.547-13.565-12.207-13.524c-5.662,0.045-6.198,6.336-0.6,7.203
						c5.596,0.872,7.981,2.282,10.276,3.906C46.99,34.679,47.47,35.651,47.47,35.651z"/>
				</g>
			</g>
			<g>
				<radialGradient id="SVGID_4_" cx="48.7241" cy="50.0737" r="66.8162" gradientUnits="userSpaceOnUse">
					<stop  offset="0.0182" style="stop-color:#FFCA05"/>
					<stop  offset="0.6667" style="stop-color:#F6921E"/>
					<stop  offset="1" style="stop-color:#BA461D"/>
				</radialGradient>
				<path fill="url(#SVGID_4_)" d="M91.178,39.597c-1.051-1.016-2.604-1.467-3.957-1.434c-1.297,0.038-2.525,0.626-3.459,1.668
					c-0.647,0.722-0.949,2.349-0.61,3.276c0.544,1.489,1.611,1.865,2.195,1.954c0.897,0.138,1.82-0.186,2.302-0.812
					c0.335-0.432,0.402-0.96,0.186-1.444c-0.193-0.432-0.629-0.733-1.132-0.733c-0.681,0-1.235,0.555-1.235,1.24
					c0,0.383,0.175,0.718,0.445,0.945c-0.141,0.011-0.286,0.011-0.438-0.011c-0.7-0.108-1.25-0.614-1.548-1.421
					c-0.234-0.644,0.003-1.944,0.454-2.442c0.789-0.882,1.783-1.362,2.861-1.393c1.129-0.029,2.224,0.436,3.091,1.311
					c1.322,1.325,1.18,3.682,0.282,5.189c-0.964,1.631-3.074,2.364-4.738,2.364c-3.104,0-6.213-1.98-11.473-7.307
					c-1.463-1.49-2.711-2.666-3.895-3.604c3.962,1.57,7.136,2.833,10.55,1.552c2.755-1.031,4.37-3.488,4.476-6.053
					c0.052-1.344-0.376-4.169-3.512-5.644c-3.217-1.516-6.675-0.28-8.301,1.869c-0.763,1.009-1.184,2.245-1.038,3.477
					c0.125,1.076,0.644,2.006,1.456,2.621c1.239,0.938,2.66,1.161,3.893,0.621c1.035-0.458,1.791-1.418,1.884-2.397
					c0.082-0.875-0.231-2.063-1.471-1.995c-0.682,0.037-1.236,0.555-1.236,1.239c0,0.685,0.552,1.236,1.236,1.236
					c0.194,0,0.372-0.048,0.54-0.126c-0.209,0.532-0.681,1.02-1.287,1.288c-0.555,0.245-1.698,0.502-3.064-0.525
					c-0.629-0.477-1.031-1.209-1.132-2.055c-0.118-1.012,0.194-2.055,0.859-2.858c1.297-1.575,3.979-2.662,6.798-1.333
					c2.007,0.942,3.064,2.546,2.981,4.512c-0.092,2.211-1.655,4.441-3.64,5.186c-3.183,1.195-5.8-0.003-9.857-1.616l-0.785-0.309
					c-1.396-0.547-2.47-0.968-3.522-1.266c-1.835-0.517-3.555-0.912-5.506-0.897c-3.961,0.038-8.274,1.958-10.479,5.309
					c-1.247,1.901-1.656,4.001-1.188,6.064c0.548,2.419,3.02,4.139,5.402,3.763c1.983-0.316,2.666-1.441,2.892-2.084
					c0.362-1.024,0.105-2.23-0.655-3.075c-0.685-0.76-1.741-1.035-2.687-0.7c-0.785,0.283-1.3,0.938-1.326,1.716
					c-0.003,0.03-0.007,0.06-0.007,0.086c0,0.685,0.555,1.24,1.236,1.24c0.685,0,1.239-0.555,1.239-1.24
					c0-0.465-0.264-0.871-0.648-1.08c0.47-0.093,1.099-0.003,1.582,0.533c0.555,0.622,0.753,1.504,0.487,2.245
					c-0.286,0.812-1.083,1.359-2.243,1.545c-1.969,0.312-4.018-1.121-4.468-3.127c-0.416-1.846-0.049-3.723,1.076-5.431
					c1.447-2.2,4.013-3.887,6.697-4.393c0.899-0.168,1.801-0.261,2.673-0.283v0.015c2.926,0.034,6.042,0.543,8.261,2.614
					c1.562,1.459,2.248,3.396,2.002,5.595c-0.212,1.839-1.843,3.726-4.408,4.452c-2.505,0.715-4.888-0.205-5.988-1.511
					c-1.154-1.374-1.483-3.383-0.589-4.988c0.953-1.716,3.473-2.967,5.404-1.824c1.192,0.7,1.438,1.947,1.226,3.007
					c-0.138,0.674-0.592,1.236-1.259,1.545c-0.175,0.082-0.357,0.141-0.539,0.178c0.056-0.145,0.094-0.301,0.094-0.465
					c0-0.685-0.555-1.239-1.241-1.239c-0.685,0-1.235,0.555-1.235,1.239c0,1.586,1.857,1.858,3.272,1.035
					c0.864-0.499,1.53-1.199,1.716-2.129c0.271-1.348-0.146-3.116-1.682-4.024c-1.542-0.913-3.693-0.79-5.167,0.302
					c-0.642,0.472-1.586,1.239-2.123,2.788c-0.736,2.107-0.071,4.032,1.009,5.402c1.485,1.872,4.527,2.576,7.379,1.857
					c3.168-0.804,4.865-3.093,5.159-5.573c0.216-1.869-0.388-3.521-1.348-4.951c1.05,0.867,2.166,1.932,3.462,3.242
					c5.502,5.581,8.655,7.468,12.058,7.554c2.685,0.071,4.851-0.935,5.852-2.614C92.774,44.306,93.105,41.455,91.178,39.597z"/>
				<radialGradient id="SVGID_5_" cx="48.7227" cy="50.0737" r="66.8392" gradientUnits="userSpaceOnUse">
					<stop  offset="0.0182" style="stop-color:#FFCA05"/>
					<stop  offset="0.6667" style="stop-color:#F6921E"/>
					<stop  offset="1" style="stop-color:#BA461D"/>
				</radialGradient>
				<path fill="url(#SVGID_5_)" d="M6.946,39.597c1.049-1.016,2.598-1.467,3.957-1.434c1.295,0.038,2.523,0.626,3.454,1.668
					c0.648,0.722,0.953,2.349,0.61,3.276c-0.543,1.489-1.604,1.865-2.196,1.954c-0.893,0.138-1.816-0.186-2.3-0.812
					c-0.335-0.432-0.402-0.96-0.183-1.444c0.198-0.432,0.622-0.733,1.128-0.733c0.685,0,1.239,0.555,1.239,1.24
					c0,0.383-0.178,0.718-0.451,0.945c0.142,0.011,0.287,0.011,0.439-0.011c0.704-0.108,1.255-0.614,1.549-1.421
					c0.238-0.644-0.003-1.944-0.454-2.442c-0.79-0.882-1.776-1.362-2.863-1.393C9.756,38.96,8.654,39.426,7.788,40.3
					c-1.318,1.325-1.18,3.682-0.283,5.189c0.968,1.631,3.078,2.364,4.739,2.364c3.108,0,6.217-1.98,11.473-7.307
					c1.463-1.49,2.71-2.666,3.894-3.604c-3.96,1.57-7.136,2.833-10.549,1.552c-2.751-1.031-4.367-3.488-4.471-6.053
					c-0.06-1.344,0.372-4.169,3.51-5.644c3.217-1.516,6.667-0.28,8.298,1.869c0.763,1.009,1.184,2.245,1.039,3.477
					c-0.127,1.076-0.641,2.006-1.456,2.621c-1.243,0.938-2.658,1.161-3.89,0.621c-1.035-0.458-1.794-1.418-1.883-2.397
					c-0.082-0.875,0.227-2.063,1.466-1.995c0.685,0.037,1.24,0.555,1.24,1.239c0,0.685-0.555,1.236-1.24,1.236
					c-0.193,0-0.376-0.048-0.536-0.126c0.205,0.532,0.678,1.02,1.284,1.288c0.559,0.245,1.701,0.502,3.064-0.525
					c0.632-0.477,1.035-1.209,1.131-2.055c0.116-1.012-0.193-2.055-0.856-2.858c-1.299-1.575-3.983-2.662-6.797-1.333
					c-2.006,0.942-3.063,2.546-2.985,4.512c0.093,2.211,1.656,4.441,3.641,5.186c3.187,1.195,5.8-0.003,9.861-1.616l0.782-0.309
					c1.396-0.547,2.468-0.968,3.521-1.266c1.835-0.517,3.556-0.912,5.506-0.897c3.957,0.038,8.279,1.958,10.479,5.309
					c1.248,1.901,1.661,4.001,1.191,6.064c-0.543,2.419-3.02,4.139-5.406,3.763c-1.987-0.316-2.661-1.441-2.893-2.084
					c-0.36-1.024-0.103-2.23,0.66-3.075c0.685-0.76,1.738-1.035,2.68-0.7c0.789,0.283,1.303,0.938,1.333,1.716
					c0,0.03,0.007,0.06,0.007,0.086c0,0.685-0.555,1.24-1.239,1.24c-0.685,0-1.235-0.555-1.235-1.24c0-0.465,0.26-0.871,0.644-1.08
					c-0.469-0.093-1.095-0.003-1.579,0.533c-0.562,0.622-0.756,1.504-0.492,2.245c0.287,0.812,1.087,1.359,2.246,1.545
					c1.969,0.312,4.013-1.121,4.467-3.127c0.421-1.846,0.045-3.723-1.073-5.431c-1.448-2.2-4.013-3.887-6.7-4.393
					c-0.901-0.168-1.798-0.261-2.673-0.283v0.015c-2.921,0.034-6.038,0.543-8.256,2.614c-1.568,1.459-2.252,3.396-2.003,5.595
					c0.208,1.839,1.843,3.726,4.408,4.452c2.505,0.715,4.883-0.205,5.986-1.511c1.154-1.374,1.485-3.383,0.592-4.988
					c-0.957-1.716-3.478-2.967-5.41-1.824c-1.19,0.7-1.437,1.947-1.224,3.007c0.138,0.674,0.593,1.236,1.258,1.545
					c0.176,0.082,0.357,0.141,0.541,0.178c-0.06-0.145-0.093-0.301-0.093-0.465c0-0.685,0.555-1.239,1.239-1.239
					c0.686,0,1.236,0.555,1.236,1.239c0,1.586-1.854,1.858-3.272,1.035c-0.863-0.499-1.53-1.199-1.712-2.129
					c-0.272-1.348,0.141-3.116,1.683-4.024c1.537-0.913,3.689-0.79,5.163,0.302c0.64,0.472,1.582,1.239,2.123,2.788
					c0.736,2.107,0.07,4.032-1.009,5.402c-1.483,1.872-4.527,2.576-7.375,1.857c-3.172-0.804-4.873-3.093-5.16-5.573
					c-0.223-1.869,0.384-3.521,1.348-4.951c-1.049,0.867-2.17,1.932-3.461,3.242c-5.502,5.581-8.663,7.468-12.062,7.554
					c-2.684,0.071-4.851-0.935-5.852-2.614C5.349,44.306,5.018,41.455,6.946,39.597z"/>
			</g>
		</g>
	</g>
	<g>
		<g>
			<g>
				<radialGradient id="SVGID_6_" cx="48.7241" cy="50.0713" r="66.8193" gradientUnits="userSpaceOnUse">
					<stop  offset="0.0182" style="stop-color:#FFCA05"/>
					<stop  offset="0.6667" style="stop-color:#F6921E"/>
					<stop  offset="1" style="stop-color:#BA461D"/>
				</radialGradient>
				<path fill="url(#SVGID_6_)" d="M53.557,79.961c0-3.559-4.494-16.927-4.494-16.927S44.57,76.402,44.57,79.961
					c0,3.555,2.009,6.44,4.492,6.44C51.547,86.401,53.557,83.516,53.557,79.961z"/>
				<g>
					<radialGradient id="SVGID_7_" cx="48.7217" cy="50.0801" r="66.8036" gradientUnits="userSpaceOnUse">
						<stop  offset="0.0182" style="stop-color:#FFCA05"/>
						<stop  offset="0.6667" style="stop-color:#F6921E"/>
						<stop  offset="1" style="stop-color:#BA461D"/>
					</radialGradient>
					<path fill="url(#SVGID_7_)" d="M50.652,63.545c1.895,4.161,6.548,13.564,12.207,13.52c5.658-0.041,6.198-6.332,0.595-7.203
						c-5.595-0.867-7.977-2.281-10.273-3.901C51.134,64.512,50.652,63.545,50.652,63.545z"/>
					<radialGradient id="SVGID_8_" cx="48.7227" cy="50.0801" r="66.7947" gradientUnits="userSpaceOnUse">
						<stop  offset="0.0182" style="stop-color:#FFCA05"/>
						<stop  offset="0.6667" style="stop-color:#F6921E"/>
						<stop  offset="1" style="stop-color:#BA461D"/>
					</radialGradient>
					<path fill="url(#SVGID_8_)" d="M47.47,63.545c-1.902,4.161-6.547,13.564-12.207,13.52c-5.662-0.041-6.198-6.332-0.6-7.203
						c5.596-0.867,7.981-2.281,10.276-3.901C46.99,64.512,47.47,63.545,47.47,63.545z"/>
				</g>
			</g>
			<g>
				<radialGradient id="SVGID_9_" cx="48.7241" cy="50.0742" r="66.8152" gradientUnits="userSpaceOnUse">
					<stop  offset="0.0182" style="stop-color:#FFCA05"/>
					<stop  offset="0.6667" style="stop-color:#F6921E"/>
					<stop  offset="1" style="stop-color:#BA461D"/>
				</radialGradient>
				<path fill="url(#SVGID_9_)" d="M91.178,59.599c-1.051,1.016-2.604,1.466-3.957,1.43c-1.297-0.034-2.525-0.626-3.459-1.664
					c-0.647-0.727-0.949-2.349-0.61-3.279c0.544-1.49,1.611-1.861,2.195-1.955c0.897-0.139,1.82,0.19,2.302,0.814
					c0.335,0.432,0.402,0.957,0.186,1.444c-0.193,0.428-0.629,0.734-1.132,0.734c-0.681,0-1.235-0.555-1.235-1.239
					c0-0.385,0.175-0.723,0.445-0.95c-0.141-0.012-0.286-0.012-0.438,0.015c-0.7,0.108-1.25,0.611-1.548,1.419
					c-0.234,0.644,0.003,1.947,0.454,2.446c0.789,0.882,1.783,1.362,2.861,1.388c1.129,0.03,2.224-0.432,3.091-1.307
					c1.322-1.329,1.18-3.682,0.282-5.192c-0.964-1.631-3.074-2.361-4.738-2.361c-3.104,0-6.213,1.981-11.473,7.308
					c-1.463,1.485-2.711,2.662-3.895,3.601c3.962-1.567,7.136-2.833,10.55-1.55c2.755,1.031,4.37,3.489,4.476,6.054
					c0.052,1.344-0.376,4.165-3.512,5.644c-3.217,1.515-6.675,0.275-8.301-1.868c-0.763-1.014-1.184-2.246-1.038-3.48
					c0.125-1.076,0.644-2.007,1.456-2.617c1.239-0.939,2.66-1.166,3.893-0.622c1.035,0.458,1.791,1.418,1.884,2.397
					c0.082,0.875-0.231,2.063-1.471,1.995c-0.682-0.041-1.236-0.555-1.236-1.24c0-0.685,0.552-1.239,1.236-1.239
					c0.194,0,0.372,0.049,0.54,0.127c-0.209-0.532-0.681-1.016-1.287-1.284c-0.555-0.246-1.698-0.507-3.064,0.524
					c-0.629,0.477-1.031,1.207-1.132,2.055c-0.118,1.014,0.194,2.052,0.859,2.854c1.297,1.575,3.979,2.666,6.798,1.338
					c2.007-0.946,3.064-2.546,2.981-4.512c-0.092-2.215-1.655-4.445-3.64-5.186c-3.183-1.199-5.8,0.003-9.857,1.611l-0.785,0.309
					c-1.396,0.552-2.47,0.973-3.522,1.27c-1.835,0.518-3.555,0.913-5.506,0.894c-3.961-0.034-8.274-1.953-10.479-5.304
					c-1.247-1.903-1.656-4.002-1.188-6.068c0.548-2.416,3.02-4.14,5.402-3.76c1.983,0.316,2.666,1.439,2.892,2.084
					c0.362,1.02,0.105,2.23-0.655,3.071c-0.685,0.763-1.741,1.039-2.687,0.7c-0.785-0.279-1.3-0.938-1.326-1.712
					c-0.003-0.03-0.007-0.06-0.007-0.09c0-0.682,0.555-1.24,1.236-1.24c0.685,0,1.239,0.559,1.239,1.24
					c0,0.469-0.264,0.871-0.648,1.083c0.47,0.093,1.099,0.005,1.582-0.532c0.555-0.622,0.753-1.508,0.487-2.245
					c-0.286-0.811-1.083-1.358-2.243-1.544c-1.969-0.313-4.018,1.12-4.468,3.127c-0.416,1.842-0.049,3.718,1.076,5.431
					c1.447,2.2,4.013,3.884,6.697,4.394c0.899,0.163,1.801,0.26,2.673,0.282V64.62c2.926-0.033,6.042-0.543,8.261-2.614
					c1.562-1.458,2.248-3.394,2.002-5.595c-0.212-1.839-1.843-3.722-4.408-4.451c-2.505-0.711-4.888,0.208-5.988,1.515
					c-1.154,1.369-1.483,3.384-0.589,4.988c0.953,1.716,3.473,2.964,5.404,1.824c1.192-0.704,1.438-1.947,1.226-3.012
					c-0.138-0.674-0.592-1.235-1.259-1.542c-0.175-0.085-0.357-0.141-0.539-0.179c0.056,0.143,0.094,0.302,0.094,0.466
					c0,0.686-0.555,1.24-1.241,1.24c-0.685,0-1.235-0.555-1.235-1.24c0-1.586,1.857-1.857,3.272-1.038
					c0.864,0.498,1.53,1.198,1.716,2.129c0.271,1.352-0.146,3.116-1.682,4.024c-1.542,0.912-3.693,0.792-5.167-0.302
					c-0.642-0.473-1.586-1.235-2.123-2.788c-0.736-2.106-0.071-4.032,1.009-5.397c1.485-1.876,4.527-2.576,7.379-1.858
					c3.168,0.805,4.865,3.094,5.159,5.572c0.216,1.87-0.388,3.519-1.348,4.948c1.05-0.863,2.166-1.929,3.462-3.239
					c5.502-5.579,8.655-7.467,12.058-7.553c2.685-0.07,4.851,0.932,5.852,2.609C92.774,54.886,93.105,57.74,91.178,59.599z"/>
				<radialGradient id="SVGID_10_" cx="48.7227" cy="50.0742" r="66.8104" gradientUnits="userSpaceOnUse">
					<stop  offset="0.0182" style="stop-color:#FFCA05"/>
					<stop  offset="0.6667" style="stop-color:#F6921E"/>
					<stop  offset="1" style="stop-color:#BA461D"/>
				</radialGradient>
				<path fill="url(#SVGID_10_)" d="M6.946,59.599c1.049,1.016,2.598,1.466,3.957,1.43c1.295-0.034,2.523-0.626,3.454-1.664
					c0.648-0.727,0.953-2.349,0.61-3.279c-0.543-1.49-1.604-1.861-2.196-1.955c-0.893-0.139-1.816,0.19-2.3,0.814
					c-0.335,0.432-0.402,0.957-0.183,1.444c0.198,0.428,0.622,0.734,1.128,0.734c0.685,0,1.239-0.555,1.239-1.239
					c0-0.385-0.178-0.723-0.451-0.95c0.142-0.012,0.287-0.012,0.439,0.015c0.704,0.108,1.255,0.611,1.549,1.419
					c0.238,0.644-0.003,1.947-0.454,2.446c-0.79,0.882-1.776,1.362-2.863,1.388c-1.121,0.03-2.223-0.432-3.089-1.307
					c-1.318-1.329-1.18-3.682-0.283-5.192c0.968-1.631,3.078-2.361,4.739-2.361c3.108,0,6.217,1.981,11.473,7.308
					c1.463,1.485,2.71,2.662,3.894,3.601c-3.96-1.567-7.136-2.833-10.549-1.55c-2.751,1.031-4.367,3.489-4.471,6.054
					c-0.06,1.344,0.372,4.165,3.51,5.644c3.217,1.515,6.667,0.275,8.298-1.868c0.763-1.014,1.184-2.246,1.039-3.48
					c-0.127-1.076-0.641-2.007-1.456-2.617c-1.243-0.939-2.658-1.166-3.89-0.622c-1.035,0.458-1.794,1.418-1.883,2.397
					c-0.082,0.875,0.227,2.063,1.466,1.995c0.685-0.041,1.24-0.555,1.24-1.24c0-0.685-0.555-1.239-1.24-1.239
					c-0.193,0-0.376,0.049-0.536,0.127c0.205-0.532,0.678-1.016,1.284-1.284c0.559-0.246,1.701-0.507,3.064,0.524
					c0.632,0.477,1.035,1.207,1.131,2.055c0.116,1.014-0.193,2.052-0.856,2.854c-1.299,1.575-3.983,2.666-6.797,1.338
					c-2.006-0.946-3.063-2.546-2.985-4.512c0.093-2.215,1.656-4.445,3.641-5.186c3.187-1.199,5.8,0.003,9.861,1.611l0.782,0.309
					c1.396,0.552,2.468,0.973,3.521,1.27c1.835,0.518,3.556,0.913,5.506,0.894c3.957-0.034,8.279-1.953,10.479-5.304
					c1.248-1.903,1.661-4.002,1.191-6.068c-0.543-2.416-3.02-4.14-5.406-3.76c-1.987,0.316-2.661,1.439-2.893,2.084
					c-0.36,1.02-0.103,2.23,0.66,3.071c0.685,0.763,1.738,1.039,2.68,0.7c0.789-0.279,1.303-0.938,1.333-1.712
					c0-0.03,0.007-0.06,0.007-0.09c0-0.682-0.555-1.24-1.239-1.24c-0.685,0-1.235,0.559-1.235,1.24c0,0.469,0.26,0.871,0.644,1.083
					c-0.469,0.093-1.095,0.005-1.579-0.532c-0.562-0.622-0.756-1.508-0.492-2.245c0.287-0.811,1.087-1.358,2.246-1.544
					c1.969-0.313,4.013,1.12,4.467,3.127c0.421,1.842,0.045,3.718-1.073,5.431c-1.448,2.2-4.013,3.884-6.7,4.394
					c-0.901,0.163-1.798,0.26-2.673,0.282V64.62c-2.921-0.033-6.038-0.543-8.256-2.614c-1.568-1.458-2.252-3.394-2.003-5.595
					c0.208-1.839,1.843-3.722,4.408-4.451c2.505-0.711,4.883,0.208,5.986,1.515c1.154,1.369,1.485,3.384,0.592,4.988
					c-0.957,1.716-3.478,2.964-5.41,1.824c-1.19-0.704-1.437-1.947-1.224-3.012c0.138-0.674,0.593-1.235,1.258-1.542
					c0.176-0.085,0.357-0.141,0.541-0.179c-0.06,0.143-0.093,0.302-0.093,0.466c0,0.686,0.555,1.24,1.239,1.24
					c0.686,0,1.236-0.555,1.236-1.24c0-1.586-1.854-1.857-3.272-1.038c-0.863,0.498-1.53,1.198-1.712,2.129
					c-0.272,1.352,0.141,3.116,1.683,4.024c1.537,0.912,3.689,0.792,5.163-0.302c0.64-0.473,1.582-1.235,2.123-2.788
					c0.736-2.106,0.07-4.032-1.009-5.397c-1.483-1.876-4.527-2.576-7.375-1.858c-3.172,0.805-4.873,3.094-5.16,5.572
					c-0.223,1.87,0.384,3.519,1.348,4.948c-1.049-0.863-2.17-1.929-3.461-3.239c-5.502-5.579-8.663-7.467-12.062-7.553
					c-2.684-0.07-4.851,0.932-5.852,2.609C5.349,54.886,5.018,57.74,6.946,59.599z"/>
			</g>
		</g>
	</g>
</g>
</svg>
