<?xml version="1.0" encoding="utf-8"?>
<!-- Generator: Adobe Illustrator 18.1.0, SVG Export Plug-In . SVG Version: 6.00 Build 0)  -->
<svg version="1.1" id="Layer_1" xmlns="http://www.w3.org/2000/svg" xmlns:xlink="http://www.w3.org/1999/xlink" x="0px" y="0px"
	 viewBox="0 0 2000 2000" enable-background="new 0 0 2000 2000" xml:space="preserve">
<g>
	<path fill="#A2CCED" d="M1502.1,742.7c0,0-473.8-110.2-710.7,126.7c-93.7,104.7-18.5,245.2,148.8,209.4
		c154.2-33.1,159.7,71.6,5.5,121.2c-174.4,56-347.1,82.6-567.4,60.6c-38.6,0,325,115.7,666.6-27.6c181.8-99.2,60.6-281-104.7-231.4
		c-135.7,40.7-121.2-71.6-22-132.2C1044.3,792.3,1149.6,742.7,1502.1,742.7z"/>
	<g>
		<path fill="#E29D6C" d="M449.9,1381.7c0,0,324.1,62,640.1-37.2C1288.5,1282.6,1033.2,1547,449.9,1381.7z"/>
		<path fill="#E29D6C" d="M745.6,1493.3c0,0,255.2,28.9,457.8-49.6C1406,1369.4,1215.6,1600.7,745.6,1493.3z"/>
		<path fill="#E29D6C" d="M992.7,1571.8c0,0,457.8,78.5,830.5-450.4c48.6-62,121.5-12.4,44.5,86.8
			C1790.8,1307.4,1527.5,1666.9,992.7,1571.8z"/>
	</g>
	<g>
		<path fill="#D77145" d="M1517.1,659.6c0,0-316.7-62-625.5,37.2C697.6,758.7,947,494.3,1517.1,659.6z"/>
		<path fill="#D77145" d="M1228.1,548c0,0-249.4-28.9-447.3,49.6C582.8,672,768.9,440.6,1228.1,548z"/>
		<path fill="#D77145" d="M986.6,469.5c0,0-447.3-78.5-811.6,450.4c-47.5,62-118.7,12.4-43.5-86.8C206.7,734,464,374.5,986.6,469.5z
			"/>
	</g>
</g>
</svg>
