<?xml version="1.0" encoding="utf-8"?>
<!-- Generator: Adobe Illustrator 18.1.0, SVG Export Plug-In . SVG Version: 6.00 Build 0)  -->
<svg version="1.1" id="Layer_1" xmlns="http://www.w3.org/2000/svg" xmlns:xlink="http://www.w3.org/1999/xlink" x="0px" y="0px"
	 viewBox="0 0 150 150" enable-background="new 0 0 150 150" xml:space="preserve">
<g>
	<g>
		<path fill="#D55527" d="M105,114c-1.8-0.7-3.8-1.3-6.1-1.6c-2.3-0.4-4.6-0.6-7-0.8c-2.4-0.2-4.7-0.3-7-0.4
			c-2.3-0.1-4.4-0.1-6.5-0.1c-6.9,0-12.8,0.1-17.5,0.4c-4.7,0.2-8.7,0.5-11.9,0.9c-1.9,0.2-3.6,0.4-5.1,0.7L76,145.3l30.2-30.2
			C106,114.6,105.6,114.2,105,114z"/>
	</g>
	<g>
		<path fill="#98311F" d="M50.8,105.1c1.7-2.1,3.9-5.2,6.4-9.4c2.5-4.2,5.2-8.8,8-13.8c2.8-5,5.6-10.1,8.4-15.4
			c2.8-5.2,5.6-10.3,8.4-15.3c2.8-5,5.3-9.4,7.5-13.2c0.2-0.6,0.6-1,1.2-1.3c0.5-0.3,1.1-0.6,1.7-0.8c2.5-1,5.7-1.7,9.4-2.3h0
			L76,7.7L7.2,76.5l34.8,34.8c1.2-0.3,2.3-0.7,3.3-1.2C47.3,108.9,49.1,107.2,50.8,105.1z"/>
	</g>
	<g>
		<path fill="#F79F7D" d="M101.2,36.6c-1.2,1.4-2.5,3-3.8,4.7c-1.6,2.2-3.2,4.5-4.9,7.1c-1.7,2.6-3.2,5.1-4.5,7.5
			c-1.2,2-2.6,4.5-4.2,7.3c-1.6,2.8-3.3,5.8-5.1,9c-1.8,3.2-3.6,6.4-5.5,9.6c-1.9,3.2-3.6,6.3-5.3,9.2c-2.9,4.8-5.8,8.5-8.7,11.2
			c-2.9,2.7-6,4.9-9.3,6.7c-0.7,0.4-1.1,0.7-1.3,1.1c-0.1,0.4,0.4,0.5,1.4,0.5c3.4-0.4,7.4-0.7,12-1.1c4.7-0.4,9.3-0.7,13.7-1
			c4.5-0.3,8.5-0.6,12.1-0.8c3.6-0.2,6.1-0.4,7.5-0.4c0.6,0,1.4,0,2.3,0c1.1,0,2.2,0,3.2,0.1c1.1,0.1,2.1,0.1,3.1,0.2
			c1,0.1,1.7,0.2,2.2,0.3c1.9,0.5,2.9,1.3,2.9,2.5c0,0.4-0.1,1.1-0.4,2.1l35.9-35.9L103.3,35C102.5,35.4,101.8,35.9,101.2,36.6z"/>
	</g>
</g>
</svg>
