<?xml version="1.0" encoding="utf-8"?>
<!-- Generator: Adobe Illustrator 18.1.0, SVG Export Plug-In . SVG Version: 6.00 Build 0)  -->
<svg version="1.1" id="Layer_1" xmlns="http://www.w3.org/2000/svg" xmlns:xlink="http://www.w3.org/1999/xlink" x="0px" y="0px"
	 viewBox="0 0 2000 2000" enable-background="new 0 0 2000 2000" xml:space="preserve">
<g>
	<path fill="#42BDC9" d="M1122.2,137.7c-25.2-5.5-70.9-10.8-103.3,5.1c22.9,57.1,46.5,115.3,68.3,173.1
		C1102.7,258.1,1114.4,193.9,1122.2,137.7z"/>
	<path fill="#42BDC9" d="M1049.8,435.1c2.5,10.1,6.4,23.6,12.8,27.1c36.5-88.5-40.7-167.5-53.6-252c-8.8-15.3-15.7-41.2-28.4-52.9
		c-8.7-8.1-22.6-4.4-36.9,4.4c-0.6,19,9.4,32.7,13.8,53.8C993.6,288.1,1013.7,362.7,1049.8,435.1z"/>
	<path fill="#42BDC9" d="M1028.7,612.5c3.9-28.1,12.7-47.6,16.5-78.4c-39.6-120.7-88.7-243.2-144.6-357.4
		c-15.3-4.1-28.6,7.8-42.9,10.4c6.5,43.6,31.2,83.9,33.9,128.3C932.2,415.5,982.1,514.4,1028.7,612.5z"/>
	<path fill="#42BDC9" d="M999.1,760.2c6.9-32.7,29.5-75.9,3.8-112.8c-64.1-131-126.4-268.7-168.1-405.6
		c-4.7-13.1-7.4-30.2-15.8-39.7c-21.9,1-30.7,8.3-32.6,18.9c-4,23.4,16.7,41.3,20.3,91.6C871.4,462,926.9,615.3,999.1,760.2z"/>
	<path fill="#42BDC9" d="M977.8,924.8c5.9-32.1,1.9-61.4,11.2-92.6C905.5,630.5,799.9,430.1,751,228.6c-12-6-20.1,7.3-31.1,10.8
		c9.8,51.8,27.8,100.3,42.5,150.7C832.6,566.3,898.2,759.6,977.8,924.8z"/>
	<path fill="#42BDC9" d="M820.8,809.3c16.6,40,52.6,55,91.8,79.8c-34.7-104.9-75-209.5-119.1-313.2
		C734.8,469.1,731.2,363.4,678,256.3c-11.4-0.4-31,3.5-45,11.6c32.8,118.9,94.2,232.8,127,351.7
		C791.7,671.7,796.2,750.1,820.8,809.3z"/>
	<path fill="#42BDC9" d="M733.8,758.3c13,12.6,32.8,27,46,32.3c-55.2-167.7-111-336.5-180.1-503.4c-4.7,4.2-10.1,7.3-16.2,9.3
		c9.2,78,49.2,130.7,65.3,225.1C681.4,600.4,709.5,679,733.8,758.3z"/>
	<path fill="#42BDC9" d="M679.3,713.7C647,603.1,603.2,494.8,569.8,384.9c-11.9-12.9-16.2-48.8-27.1-63.7c-6.5-8.9-15.5-7.2-29.5,3
		c31.1,118.5,84.8,233.9,120.8,351C639.4,699.4,662.7,707.4,679.3,713.7z"/>
	<path fill="#42BDC9" d="M505.7,579.8c22,23.2,49.2,40.5,73.8,60.8c-20.1-74.6-49.5-148-74.1-222.9c-14.5-27.2-17.6-65-34.5-73.4
		c-6.7-3.3-16.2,0-30.8,14.9c12.4,38.8,24.7,77.6,37.1,116.4C477.7,511.3,501.9,528.7,505.7,579.8z"/>
	<path fill="#42BDC9" d="M456.4,536.5c-1.2-39.5-21.5-79.5-33.9-118.3c-1.7-18.4-6.2-27.3-12.3-30.1c-32.4,6.7-51.1,37.9-64.8,45.9
		C380.7,472.6,425.7,508.3,456.4,536.5z"/>
	<path fill="#73BA44" d="M1802.6,651.6c-7.8-24.6-26.1-66.8-56.1-86.9c-38,48.4-76.6,97.9-115.7,145.7
		C1688.5,694.9,1750.1,673,1802.6,651.6z"/>
	<path fill="#73BA44" d="M1508.8,737.6c-7.4,7.2-17.2,17.4-17.1,24.6c94.9-12.7,124.7-118.9,191.4-172.4c8.8-15.3,27.8-34.2,31.6-51
		c2.6-11.6-7.5-21.7-22.3-29.8c-16.7,9-23.6,24.5-39.6,38.8C1608.1,615.5,1553.5,670.1,1508.8,737.6z"/>
	<path fill="#73BA44" d="M1533.5,540.8c-66.4,85.2-127.1,177.9-188.8,267.3c26.3-10.7,47.5-12.8,76.1-25
		c84.8-94.6,166.2-198.4,237.2-303.9c-4.1-15.3-21.1-20.8-30.4-31.9C1593.1,474.7,1570.6,516.3,1533.5,540.8z"/>
	<path fill="#73BA44" d="M1493.4,465.9c-97,130.7-202,255.3-291.4,390.3c31.8-10.4,80.4-12.4,99.6-53.1
		c81.4-121,169.5-243.8,267.2-348.3c9-10.6,22.4-21.5,26.5-33.5c-11.8-18.5-22.5-22.5-32.6-18.8
		C1540.3,410.8,1535.2,437.7,1493.4,465.9z"/>
	<path fill="#73BA44" d="M1048.8,920.1c30.8-11,54.1-29.1,85.8-36.6c133-173.1,253.7-364.8,403.8-507.8
		c-0.9-13.4-16.4-13.8-24.9-21.6c-39.9,34.4-73,74.2-109.3,112.1C1286.6,615.1,1152.1,768.6,1048.8,920.1z"/>
	<path fill="#73BA44" d="M1070.3,726.5c-26.4,34.4-21.3,73-23.2,119.4c73.5-82.5,143.9-169.7,211.7-259.7
		c63.1-104.3,152.8-160.2,218.9-259.9c-5.3-10-18.5-25.1-32.5-33.1c-86.6,87.9-154.5,198-241.1,285.9
		C1175,632.4,1109.3,675.6,1070.3,726.5z"/>
	<path fill="#73BA44" d="M1233.4,433.6c-52,67.6-105.9,131.3-162.5,191.9c-4.4,17.6-7,41.9-5,56
		c117.7-131.7,235.9-264.4,345.9-407.7c-6-2-11.4-5.1-16.2-9.3C1332.7,311.4,1307.2,372.4,1233.4,433.6z"/>
	<path fill="#73BA44" d="M1082.3,556c79.6-83.2,151.5-175.3,230.1-259.2c5.2-16.8,34.2-38.5,41.6-55.3c4.4-10.1-1.5-17-17.4-24
		c-87.1,86.1-160.2,190.4-243.6,280.1C1074.8,514.4,1079.5,538.6,1082.3,556z"/>
	<path fill="#73BA44" d="M1111.5,338.8c-9.1,30.7-10.5,62.9-15.7,94.3c54.6-54.7,103.4-116.9,156-175.6
		c16.3-26.2,47.5-47.7,46.3-66.6c-0.4-7.5-8.1-14.1-28.3-19.2c-27.4,30.1-54.9,60.2-82.3,90.3C1156.8,280.3,1153.9,310,1111.5,338.8
		z"/>
	<path fill="#73BA44" d="M1209.9,185.9c15.1-10.7,20.6-19,20-25.7c-22-24.7-58.4-25.2-72.2-33.2c-15.8,49.8-24.2,106.6-33.3,147.3
		C1157.9,253.6,1182.4,216.1,1209.9,185.9z"/>
	<path fill="#F15E40" d="M1697.7,1497.8c17.4-19.1,44.8-56,47.3-92c-61-8.7-123.1-17.4-184.1-27.4
		C1603.2,1420.7,1653,1463,1697.7,1497.8z"/>
	<path fill="#F15E40" d="M1476.4,1286.4c-10-2.8-23.7-6.2-29.9-2.5c58.4,75.9,165.4,48.5,245,79.6c17.6,0,43.6,7,60,1.9
		c11.4-3.5,15.1-17.4,14.6-34.2c-16.1-10-33-8.2-53.5-14.9C1631.8,1311.3,1557.2,1291.4,1476.4,1286.4z"/>
	<path fill="#F15E40" d="M1333.3,1179.5c22.4,17.4,34.8,34.8,59.7,53.5c124.3,26.1,254.9,44.8,381.8,53.5
		c11.2-11.2,7.5-28.6,12.4-42.3c-41-16.2-88.3-14.9-128.1-34.8C1552.2,1194.4,1441.5,1188.2,1333.3,1179.5z"/>
	<path fill="#F15E40" d="M1703.9,1137.2c-161.6-18.7-322.1-47.3-483.7-57.2c24.9,22.4,51,63.4,95.8,59.7
		c145.5,10,295.9,24.9,435.3,57.2c13.7,2.5,29.9,8.7,42.3,6.2c10.1-19.5,8.2-30.7-0.1-37.7
		C1775.1,1150.2,1749.3,1159.3,1703.9,1137.2z"/>
	<path fill="#F15E40" d="M1810.9,1098.6c-49.7-17.4-100.7-26.1-151.7-38.5c-187.8-27.3-388-67.2-570.8-80.9
		c24.9,21.1,52.2,32.4,74.6,56c216.4,28.6,442.7,37.3,641.7,95.8C1815.8,1123.5,1808.4,1109.9,1810.9,1098.6z"/>
	<path fill="#F15E40" d="M1266.8,901.1c-43-5.6-73.9,18.1-115,39.6c108.2,22.4,218.9,39.8,330.8,53.5
		c121.8,2.5,215.1,52.2,334.5,59.7c6-9.6,12.4-28.6,12.4-44.8c-119.4-31.1-248.7-34.8-368.1-65.9
		C1400.6,944.7,1330.4,909.4,1266.8,901.1z"/>
	<path fill="#F15E40" d="M1602,895.9c-84.6-11.2-166.7-26.1-247.5-44.8c-17.4,5-39.8,14.9-51,23.6c172.9,36.1,347,72.1,526.1,95.7
		c-1.2-6.2-1.2-12.4,0-18.6C1757.4,920.8,1691.8,929.2,1602,895.9z"/>
	<path fill="#F15E40" d="M1476.4,806.4c-23.7-7.5-42.3,8.7-56,19.9c111.9,27.4,227.6,43.5,339.5,69.7c17.1-3.9,50.4,10.4,68.7,8.4
		c11-1.2,14-9.8,12.1-27C1722.6,845,1595.8,833.7,1476.4,806.4z"/>
	<path fill="#F15E40" d="M1846.9,796.4c-39.8-8.7-79.6-17.4-119.4-26.1c-31.1-17.4-58.3-5.1-104.4-27.4
		c-31.1,7.5-59.7,22.4-89.6,33.6c74.6,19.9,153,31.1,230.1,47.3c30.8,1,65.1,17.3,80.8,6.8C1850.7,826.4,1852.6,816.6,1846.9,796.4z
		"/>
	<path fill="#F15E40" d="M1804.7,751.7c16.8,7.8,26.7,8.3,32.2,4.5c10.4-31.4-7.3-63.2-7.3-79.1c-51,11.2-104.5,32.3-144.3,44.8
		C1720.1,740.5,1764.9,743,1804.7,751.7z"/>
	<path fill="#D8E023" d="M912.5,1830.1c25.2,5.5,70.9,10.8,103.3-5.1c-22.9-57.1-46.5-115.3-68.3-173.1
		C932,1709.7,920.2,1774,912.5,1830.1z"/>
	<path fill="#D8E023" d="M984.9,1532.7c-2.5-10-6.4-23.6-12.8-27.1c-36.5,88.5,40.7,167.5,53.6,252c8.8,15.3,15.7,41.2,28.4,52.9
		c8.7,8.1,22.6,4.4,36.9-4.4c0.6-19-9.4-32.7-13.8-53.7C1041.1,1679.7,1021,1605.2,984.9,1532.7z"/>
	<path fill="#D8E023" d="M1006,1355.4c-3.9,28.1-12.7,47.6-16.5,78.4c39.6,120.7,88.7,243.2,144.6,357.4
		c15.3,4.1,28.5-7.8,42.9-10.4c-6.5-43.6-31.2-83.9-33.9-128.3C1102.5,1552.4,1052.5,1453.4,1006,1355.4z"/>
	<path fill="#D8E023" d="M1035.6,1207.6c-6.9,32.7-29.5,75.9-3.8,112.8c64.1,131,126.4,268.7,168.1,405.6
		c4.7,13.1,7.4,30.2,15.8,39.7c21.9-1,30.7-8.3,32.6-18.9c4-23.4-16.7-41.3-20.3-91.6C1163.2,1505.8,1107.8,1352.6,1035.6,1207.6z"
		/>
	<path fill="#D8E023" d="M1056.9,1043.1c-5.9,32.1-1.9,61.4-11.2,92.6c83.4,201.7,189.1,402.1,237.9,603.6
		c12.1,6,20.2-7.3,31.1-10.8c-9.8-51.7-27.8-100.3-42.5-150.7C1202.1,1401.6,1136.5,1208.3,1056.9,1043.1z"/>
	<path fill="#D8E023" d="M1213.8,1158.5c-16.6-40-52.6-55-91.9-79.8c34.7,104.9,75,209.5,119.1,313.2
		c58.8,106.8,62.4,212.4,115.6,319.6c11.4,0.4,31-3.5,45-11.6c-32.8-119-94.2-232.8-127-351.8
		C1242.9,1296.2,1238.4,1217.8,1213.8,1158.5z"/>
	<path fill="#D8E023" d="M1300.9,1209.5c-13-12.6-32.8-27-46-32.3c55.2,167.7,111,336.5,180.1,503.4c4.7-4.2,10.1-7.3,16.2-9.3
		c-9.2-78-49.2-130.6-65.3-225.1C1353.3,1367.4,1325.1,1288.9,1300.9,1209.5z"/>
	<path fill="#D8E023" d="M1355.4,1254.2c32.2,110.6,76.1,218.8,109.4,328.8c11.9,12.9,16.2,48.8,27.1,63.7c6.5,8.9,15.5,7.2,29.5-3
		c-31.1-118.5-84.8-233.9-120.8-351C1395.2,1268.5,1371.9,1260.4,1355.4,1254.2z"/>
	<path fill="#D8E023" d="M1528.9,1388.1c-22-23.2-49.2-40.5-73.8-60.8c20.1,74.6,49.6,148,74.1,222.9c14.5,27.2,17.6,65,34.5,73.4
		c6.7,3.3,16.2,0,30.8-15c-12.4-38.8-24.7-77.6-37.1-116.4C1557,1456.6,1532.7,1439.1,1528.9,1388.1z"/>
	<path fill="#D8E023" d="M1578.3,1431.3c1.2,39.5,21.5,79.5,33.9,118.3c1.7,18.4,6.1,27.3,12.3,30.1c32.4-6.7,51.1-38,64.8-45.9
		C1654,1495.3,1609,1459.6,1578.3,1431.3z"/>
	<path fill="#EB66A6" d="M232.1,1316.2c7.8,24.6,26.1,66.8,56.1,86.9c38-48.4,76.6-97.9,115.7-145.7
		C346.1,1272.9,284.6,1294.9,232.1,1316.2z"/>
	<path fill="#EB66A6" d="M525.8,1230.2c7.4-7.2,17.2-17.4,17.1-24.6c-94.9,12.7-124.7,119-191.4,172.4c-8.8,15.3-27.8,34.2-31.6,51
		c-2.6,11.6,7.5,21.7,22.3,29.8c16.7-9,23.6-24.5,39.6-38.9C426.6,1352.4,481.1,1297.7,525.8,1230.2z"/>
	<path fill="#EB66A6" d="M501.2,1427.1c66.4-85.2,127.2-177.9,188.8-267.3c-26.3,10.7-47.5,12.8-76.1,25
		c-84.8,94.6-166.2,198.4-237.2,303.9c4.1,15.3,21.1,20.8,30.4,31.9C441.5,1493.1,464.1,1451.6,501.2,1427.1z"/>
	<path fill="#EB66A6" d="M541.3,1501.9c97-130.7,202-255.3,291.4-390.3c-31.8,10.3-80.4,12.4-99.6,53.1
		c-81.4,121-169.5,243.9-267.2,348.3c-9,10.6-22.4,21.5-26.5,33.5c11.8,18.5,22.5,22.4,32.6,18.8
		C494.4,1557.1,499.5,1530.2,541.3,1501.9z"/>
	<path fill="#EB66A6" d="M985.9,1047.8c-30.8,11-54.1,29.1-85.8,36.6c-133,173.1-253.7,364.8-403.8,507.9
		c0.8,13.4,16.4,13.8,24.9,21.6c39.9-34.4,73-74.2,109.3-112.1C748,1352.7,882.6,1199.3,985.9,1047.8z"/>
	<path fill="#EB66A6" d="M964.4,1241.4c26.4-34.4,21.3-73,23.2-119.4c-73.5,82.5-143.9,169.7-211.7,259.7
		C712.7,1486,623,1541.9,556.9,1641.6c5.3,10,18.5,25.1,32.5,33.2c86.6-87.9,154.5-198,241.1-285.9
		C859.7,1335.5,925.3,1292.3,964.4,1241.4z"/>
	<path fill="#EB66A6" d="M801.2,1534.2c52-67.7,105.9-131.3,162.5-191.9c4.4-17.5,7-41.9,5-56C851.1,1418,732.8,1550.7,622.8,1694
		c6,2,11.4,5.1,16.2,9.3C701.9,1656.4,727.5,1595.4,801.2,1534.2z"/>
	<path fill="#EB66A6" d="M952.3,1411.8c-79.6,83.2-151.5,175.3-230.1,259.2c-5.2,16.8-34.2,38.5-41.6,55.3c-4.4,10.1,1.5,17,17.4,24
		c87.1-86.1,160.2-190.4,243.6-280.1C959.9,1453.5,955.2,1429.3,952.3,1411.8z"/>
	<path fill="#EB66A6" d="M923.1,1629c9.1-30.7,10.5-62.9,15.7-94.4c-54.6,54.7-103.4,116.9-156,175.6
		c-16.3,26.2-47.5,47.7-46.3,66.6c0.5,7.5,8.1,14,28.4,19.2c27.4-30.1,54.9-60.2,82.3-90.4C877.8,1687.6,880.8,1657.9,923.1,1629z"
		/>
	<path fill="#EB66A6" d="M824.8,1781.9c-15.1,10.7-20.6,19-20,25.7c22,24.7,58.4,25.2,72.2,33.2c15.8-49.8,24.2-106.6,33.3-147.3
		C876.8,1714.2,852.2,1751.8,824.8,1781.9z"/>
	<path fill="#96915F" d="M336.9,470c-17.4,19.1-44.8,55.9-47.3,92c61,8.7,123.1,17.4,184.1,27.4C431.4,547.2,381.7,504.8,336.9,470z
		"/>
	<path fill="#96915F" d="M558.3,681.4c10,2.8,23.7,6.2,29.9,2.5c-58.4-75.9-165.4-48.5-245-79.6c-17.6,0-43.6-7-60-1.9
		c-11.4,3.5-15.1,17.4-14.6,34.2c16.1,10,33.1,8.2,53.5,14.9C402.8,656.6,477.5,676.5,558.3,681.4z"/>
	<path fill="#96915F" d="M701.3,788.4c-22.4-17.4-34.8-34.8-59.7-53.5c-124.4-26.1-254.9-44.7-381.8-53.5
		c-11.2,11.2-7.5,28.6-12.4,42.3c41,16.2,88.3,14.9,128.1,34.8C482.4,773.5,593.1,779.7,701.3,788.4z"/>
	<path fill="#96915F" d="M330.7,830.7c161.7,18.7,322.1,47.2,483.8,57.2c-24.9-22.4-51-63.5-95.8-59.7
		c-145.5-9.9-295.9-24.9-435.3-57.2c-13.7-2.5-29.9-8.7-42.3-6.2c-10.1,19.5-8.2,30.7,0.1,37.7C259.5,817.6,285.3,808.6,330.7,830.7
		z"/>
	<path fill="#96915F" d="M223.8,869.2c49.7,17.4,100.7,26.1,151.7,38.6c187.8,27.3,388,67.2,570.8,80.9
		c-24.9-21.2-52.2-32.4-74.6-56C655.3,904,429,895.3,230,836.9C218.8,844.3,226.3,858,223.8,869.2z"/>
	<path fill="#96915F" d="M767.9,1066.8c43,5.7,73.9-18,115-39.6c-108.2-22.4-218.9-39.8-330.8-53.5
		c-121.8-2.5-215.1-52.2-334.5-59.7c-6,9.6-12.4,28.6-12.4,44.8c119.4,31.1,248.7,34.8,368.1,65.9
		C634.1,1023.2,704.3,1058.5,767.9,1066.8z"/>
	<path fill="#96915F" d="M432.7,1071.9c84.6,11.2,166.7,26.1,247.5,44.8c17.4-5,39.8-14.9,51-23.6c-172.9-36.1-346.9-72.1-526-95.8
		c1.2,6.2,1.2,12.4,0,18.7C277.2,1047.1,342.9,1038.7,432.7,1071.9z"/>
	<path fill="#96915F" d="M558.3,1161.4c23.7,7.5,42.3-8.7,56-19.9c-111.9-27.4-227.6-43.5-339.5-69.7c-17.1,3.9-50.4-10.3-68.8-8.4
		c-10.9,1.2-14,9.8-12.1,27C312.1,1122.9,438.9,1134.1,558.3,1161.4z"/>
	<path fill="#96915F" d="M411.5,1224.9c31.1-7.5,59.7-22.4,89.6-33.6c-74.6-19.9-153-31.1-230.1-47.3c-30.8-1-65.1-17.3-80.8-6.8
		c-6.3,4.2-8.1,14-2.5,34.2c39.8,8.7,79.6,17.4,119.4,26.1C338.2,1214.9,365.4,1202.7,411.5,1224.9z"/>
	<path fill="#96915F" d="M230,1216.2c-16.8-7.8-26.8-8.3-32.2-4.5c-10.4,31.4,7.3,63.2,7.3,79.1c51-11.2,104.5-32.4,144.3-44.8
		C314.6,1227.4,269.8,1224.9,230,1216.2z"/>
</g>
</svg>
