<?xml version="1.0" encoding="utf-8"?>
<!-- Generator: Adobe Illustrator 18.1.0, SVG Export Plug-In . SVG Version: 6.00 Build 0)  -->
<svg version="1.1" id="Layer_1" xmlns="http://www.w3.org/2000/svg" xmlns:xlink="http://www.w3.org/1999/xlink" x="0px" y="0px"
	 viewBox="0 0 2000 2000" enable-background="new 0 0 2000 2000" xml:space="preserve">
<g>
	<path fill="none" d="M1310.3,807.9c0.3-16.9-17.1-38.1-33-53.9c-13.5-13.4-26-23-26-23s13.9,14.7,26,32c9.8,14.1,18.4,30,17.4,41.4
		c-0.9,9.7-8.4,17.1-17.4,22.4c-14.6,8.7-33,12.3-33,12.3s16.5,0,33-3.9C1293.7,831.3,1310,823.4,1310.3,807.9z"/>
	<path fill="none" d="M1160.5,700.8c0,0,9.8-3.8,9.8-18.2c0-11.8,0-57.6,0-73.5c-9.3-2.8-12.3-6.2-13-10.1h-0.9v-32.4h0.9
		c-0.1-0.4-0.1-0.8-0.1-1.1c0-9.7,20.2-17.4,45.1-17.4c24.9,0,45.1,7.7,45.1,17.4c0,0.3-0.1,0.7-0.1,1.1h1.7V599h-1.7
		c-0.6,3.7-2.9,7-7.6,9.7c0,15.5,0,61.9,0,73.9c0,14.4,7.1,18.2,7.1,18.2c5,3,17.1,13.8,30.5,28.4c31.2,33.9,69.3,88.1,39.8,108.7
		c-11.6,8.1-25.6,13.6-39.8,17.4c-32.2,8.5-65.5,7.9-74.3,7.6c-12.9,0.6-76.4,1.5-114.2-24.9
		C1046.5,808.5,1143.7,710.7,1160.5,700.8z"/>
	<g>
		<path fill="#05B195" d="M994.9,470c-49.9,0.7-95.7,4.9-122,11.6c-58.1,14.7-203.3,83.8-280.7,135.9v335.8h402.7V470z M898.8,890.8
			c-3.6,0-37.5-35.6-37.5-35.6S812.7,729,790.2,670l-84.2,181.5l-35.1,35l10.5-47.9l86.3-192.2c-9.8-7.1-16.2-18.6-16.2-31.7
			c0-20.3,15.4-36.8,35-39v-20.8c0-4,3.2-7.2,7.2-7.2c4,0,7.2,3.2,7.2,7.2v21.9c16.8,4.5,29.2,19.7,29.2,37.9
			c0,14-7.4,26.3-18.5,33.2C831.8,702.3,902,890.8,898.8,890.8z"/>
		<path fill="#05B195" d="M1405.4,1108.3v-161l-400.5,0.2l-0.2,401.3c56.9-0.1,113.9-1.6,171.1-4.3
			C1311.5,1247.6,1405.4,1153.4,1405.4,1108.3z M1159.1,1240.8l-68.1,62.9c-8.9,8.2-22.6,7.7-30.8-1.2c-8.1-8.8-7.6-22.6,1.2-30.8
			l68.1-62.9c5-4.6,11.7-6.4,17.9-5.4l19.1-17.6c-28.5-40.7-23.3-97.2,14.2-131.8c9.7-8.9,20.7-15.7,32.3-20.1
			c37.4-14.3,81.3-5.5,110.1,25.8c37.8,40.9,35.3,104.7-5.6,142.5c-9.7,9-20.7,15.6-32.4,20.1c-33.3,12.7-71.8,6.9-100.1-16.5
			l-19,17.6C1166.4,1229.7,1164.1,1236.2,1159.1,1240.8z"/>
		<path fill="#05B195" d="M1278.4,1204.7c9.4-3.6,18.4-9.1,26.3-16.3c33.2-30.8,35.3-82.7,4.5-116c-23.4-25.4-59.2-32.6-89.6-20.9
			c-9.4,3.6-18.4,9.1-26.3,16.4c-33.3,30.7-35.4,82.6-4.7,115.9C1212.2,1209.1,1247.9,1216.3,1278.4,1204.7z"/>
		<path fill="#05B195" d="M346.4,1335.9c0.7-3.4,1.9-6.5,3.3-9.6l-4.1-0.3l11.4-10.3c1.7-1.9,3.6-3.5,5.6-5.1l134.9-122.4
			c-152-28.8-230.8,67.4-385.3,34.9c-16.3-3.4-35.4,4-29.5,21.3c12,34.5,90.1,66.3,88.9,98.8c-1.5,37.2-93.8,42.9-108.5,70.3
			c-6.4,12,13.2,35.7,29.5,40.6c76.7,10.3,147.3-1,217.9-12.1C321.7,1409.2,331.9,1379.1,346.4,1335.9z"/>
		<path fill="#05B195" d="M1937,1413.4c-14.8-27.4-107.1-33.1-108.6-70.3c-1.2-32.5,76.9-64.3,88.8-98.8c6-17.3-13.2-24.7-29.5-21.3
			c-155.5,32.6-234.2-64.7-387.8-34.4l128.3,116.5c8.5,3.9,15.7,10.3,20.3,18.5l2.7,2.4l-1.4,0.1c1.7,3.4,3.1,7,3.9,10.9
			c14.4,42.5,24.5,72.3,35.8,104.8c70.6,11.1,141.2,22.5,217.9,12.1C1923.7,1449.1,1943.5,1425.4,1937,1413.4z"/>
		<path fill="#05B195" d="M543.5,1321c-1.1-11.5-2.6-28.8-3.8-47c-1.3-18.1-2.2-36.9-2.2-51.2c0-21.6-11-27.8-16.8-29.5l-2.6,2.4
			l-116.8,106C449.2,1309,496.6,1315.4,543.5,1321z"/>
		<path fill="#05B195" d="M1596.2,1302.1l-115.7-105.1l-4.1-3.7c-6,1.8-16.8,8-16.8,29.6c0,28.8-4,75.7-6.1,98.5
			c0.5-0.1,1-0.1,1.5-0.2C1501.6,1315.6,1548.6,1309.3,1596.2,1302.1z"/>
		<path fill="#05B195" d="M1667.9,1438.5c-10-29-19.6-57.3-32.8-96.5c-1.2-5.6-3.8-10.4-7.4-14c-6-6.1-14.6-9.1-23.6-7.5
			c-51,7.8-101.4,14.6-151.4,20.5c-7,0.8-14,1.5-21,2.3c-43.2,4.9-86,9.1-128.6,12.5c-15.9,1.3-31.8,2.3-47.7,3.4
			c-36.7,2.5-73.2,4.6-109.7,6.1c-47.1,1.9-94.2,2.8-141.2,2.9c-3.3,0-6.5,0-9.8,0c-47.7-0.1-95.4-1-143.3-2.9
			c-42.6-1.7-85.3-4.3-128.2-7.4c-7.8-0.6-15.6-1-23.4-1.7c-44.6-3.6-89.5-8-134.8-13.1c-6-0.7-12-1.3-18-2
			c-49.9-5.9-100.2-12.7-151.1-20.4c-2-0.3-3.7-0.5-5.3-0.5c-7.4,0-14.2,3.1-19,8.1c-3.3,3.4-5.7,7.7-6.7,12.6
			c-13.3,39.8-23,68.5-33,97.7c-8.6,25-17.5,50.5-29.3,83.7c-0.9,5,0.4,11.4,4.2,17c4.2,6.4,11.3,10.9,19.2,12.5
			c231.2,37.8,451.7,56.3,673.8,56.3c222,0,442.6-18.5,674-56.4c7.7-1.5,14.7-6,19-12.4c3.8-5.6,5.1-12.1,3.8-18.3
			C1685.2,1488.2,1676.4,1463.1,1667.9,1438.5z M725,1554.3l-41.3-31.1l-49.1,16.4l16.8-48.9l-30.8-41.5l51.7,0.8l30.1-42.1
			l15.2,49.5l49.4,15.6l-42.4,29.6L725,1554.3z M1013.7,1541.9l-18.4-9.7l-11,5.8l-34.9,18.4l5.7-33.1l3.1-18l-19.9-19.4l-17.2-16.7
			l51.2-7.4l7.5-15.2l14.9-30.3l0.5-0.9l9.3,18.7l7.7,15.5l6,12.1l51.2,7.4l-25.9,25.2l-11.2,10.9l4.6,26.7l4.2,24.3L1013.7,1541.9z
			 M1328.5,1556.3l-45.9-24l-45.8,24l8.7-51l-37.1-36.1l51.2-7.5l22.9-46.3l22.9,46.3l51.2,7.5l-37.1,36.1L1328.5,1556.3z"/>
		<path fill="#05B195" d="M365.6,714.5c18.6-27.1,16-61.3,16-61.3s-32.8,9.8-51.5,36.9c-18.6,27.1-16,61.3-16,61.3
			S346.9,741.6,365.6,714.5z"/>
		<path fill="#05B195" d="M312,684.9c-1.6-32.9-24.3-58.6-24.3-58.6s-20.3,27.7-18.7,60.6c1.5,32.9,24.3,58.5,24.3,58.5
			S313.5,717.8,312,684.9z"/>
		<path fill="#05B195" d="M301.1,828.8c-15.1,29.2-8.2,62.7-8.2,62.7s31.3-13.8,46.5-43c15.1-29.2,8.2-62.8,8.2-62.8
			S316.3,799.5,301.1,828.8z"/>
		<path fill="#05B195" d="M271.5,888.3c0,0,16.7-30,11.1-62.4c-5.6-32.5-31.4-55-31.4-55s-16.6,29.9-11.1,62.4
			C245.8,865.7,271.5,888.3,271.5,888.3z"/>
		<path fill="#05B195" d="M345.8,1035.8c0,0,22.3-25.9,23.4-58.8c1.1-32.9-19.5-60.3-19.5-60.3s-22.3,25.9-23.4,58.9
			C325.1,1008.4,345.8,1035.8,345.8,1035.8z"/>
		<path fill="#05B195" d="M273,1005.8c19,26.9,52,36.2,52,36.2s2.2-34.2-16.8-61.1c-19-26.9-52-36.3-52-36.3S254,978.9,273,1005.8z"
			/>
		<path fill="#05B195" d="M438.3,1155c0,0,11.2-32.4,0-63.4c-11.1-31-40.5-48.8-40.5-48.8s-11.2,32.4,0,63.4
			C408.9,1137.2,438.3,1155,438.3,1155z"/>
		<path fill="#05B195" d="M359.6,1154c27.6,17.9,61.7,14.5,61.7,14.5s-10.7-32.6-38.2-50.6c-27.6-17.9-61.7-14.4-61.7-14.4
			S332,1136.1,359.6,1154z"/>
		<path fill="#05B195" d="M378.9,577.6c11.7-30.8,1.2-63.4,1.2-63.4s-29.6,17.3-41.3,48.1c-11.7,30.7-1.1,63.3-1.1,63.3
			S367.2,608.3,378.9,577.6z"/>
		<path fill="#05B195" d="M1587.3,646.9c0,0-2.6,34.2,16,61.3c18.7,27.1,51.5,36.9,51.5,36.9s2.7-34.2-16-61.3
			C1620.2,656.6,1587.3,646.9,1587.3,646.9z"/>
		<path fill="#05B195" d="M1699.9,680.6c1.5-32.9-18.7-60.5-18.7-60.5s-22.7,25.7-24.3,58.5c-1.5,32.9,18.7,60.5,18.7,60.5
			S1698.3,713.5,1699.9,680.6z"/>
		<path fill="#05B195" d="M1676,885.2c0,0,6.9-33.6-8.2-62.8c-15.1-29.2-46.5-43-46.5-43s-6.9,33.6,8.2,62.8
			C1644.7,871.4,1676,885.2,1676,885.2z"/>
		<path fill="#05B195" d="M1697.4,882c0,0,25.8-22.7,31.4-55.1c5.6-32.4-11.1-62.3-11.1-62.3s-25.8,22.5-31.4,55
			C1680.7,852,1697.4,882,1697.4,882z"/>
		<path fill="#05B195" d="M1599.7,970.6c1.1,33,23.5,58.9,23.5,58.9s20.6-27.4,19.6-60.3c-1.1-32.9-23.4-58.8-23.4-58.8
			S1598.7,937.8,1599.7,970.6z"/>
		<path fill="#05B195" d="M1695.9,999.4c19-26.9,16.9-61.1,16.9-61.1s-33,9.4-52,36.2c-19,26.9-16.9,61.1-16.9,61.1
			S1676.9,1026.3,1695.9,999.4z"/>
		<path fill="#05B195" d="M1571.2,1100c11.1-31,0-63.4,0-63.4s-29.3,17.8-40.5,48.8c-11.1,30.9,0,63.4,0,63.4
			S1560,1130.9,1571.2,1100z"/>
		<path fill="#05B195" d="M1547.6,1162.2c0,0,34.1,3.4,61.7-14.5c27.6-17.9,38.2-50.5,38.2-50.5s-34.1-3.5-61.7,14.4
			C1558.3,1129.6,1547.6,1162.2,1547.6,1162.2z"/>
		<path fill="#05B195" d="M1631.3,619.3c0,0,10.6-32.6-1.1-63.4c-11.7-30.8-41.4-48-41.4-48s-10.6,32.5,1.2,63.4
			C1601.7,602,1631.3,619.3,1631.3,619.3z"/>
	</g>
	<g>
		<path fill="#022C46" d="M1465.7,563.7c-21.6-13.2-204.9-129-302-153.5c-36.2-9.3-91.9-14.5-152.2-14.5
			c-60.3,0-116.2,5.2-152.5,14.5c-96.6,24.4-294.1,140-316.2,153.1c-21,12.4-35.9,35-35.9,59.3V1090c0,28.6,9.5,58,25.6,87.4
			c10.6,5.2,21.1,16.3,23.6,36.8c6.9,9.5,14.3,18.9,22.3,28.3c20.6,24.2,44.7,48,70.6,71.1c7.9,7,15.9,13.9,24.1,20.8
			c4.2,0.4,8.4,0.8,12.7,1.1c45.5,3.8,90.8,6.8,135.9,8.9c-135.7-96.8-229.4-191-229.4-236v-155V617.5
			c77.4-52.1,222.7-121.2,280.7-135.9c26.3-6.7,72.1-10.9,122-11.6c4.5-0.1,8.9-0.1,13.4-0.1c55,0,102.6,4.4,131.2,11.7
			c57.6,14.6,188.4,83.2,265.8,135.2v330.4v161c0,45.1-93.8,139.3-229.6,236.2c37.9-1.8,75.9-4.1,114-7c13.1-1,26.3-2.2,39.4-3.4
			c24.8-21.3,48.2-43.3,69.1-65.8c9.7-10.5,18.9-21,27.5-31.6c5.2-6.5,10.1-12.9,14.8-19.4c1.8-23.7,14-35.7,25.6-40.7
			c15.4-29.1,24.3-58.2,24.3-86.5V622.6C1490.6,598.5,1486.3,576.2,1465.7,563.7z"/>
		<path fill="#022C46" d="M1203,862.9c8.8,0.4,42.1,0.9,74.3-7.6c14.2-3.8,28.1-9.3,39.8-17.4c29.5-20.6-8.5-74.8-39.8-108.7
			c-13.4-14.6-25.5-25.4-30.5-28.4c0,0-7.1-3.8-7.1-18.2c0-12,0-58.4,0-73.9c4.7-2.7,7-6,7.6-9.7h1.7v-32.4h-1.7
			c0-0.4,0.1-0.8,0.1-1.1c0-9.7-20.2-17.4-45.1-17.4c-24.9,0-45.1,7.7-45.1,17.4c0,0.3,0.1,0.7,0.1,1.1h-0.9V599h0.9
			c0.7,3.9,3.7,7.4,13,10.1c0,15.9,0,61.6,0,73.5c0,14.4-9.8,18.2-9.8,18.2c-16.8,9.9-114,107.7-71.7,137.1
			C1126.6,864.4,1190.1,863.5,1203,862.9z M1277.3,826.8c9-5.3,16.5-12.7,17.4-22.4c1-11.4-7.6-27.3-17.4-41.4
			c-12.1-17.4-26-32-26-32s12.5,9.6,26,23c15.9,15.9,33.3,37,33,53.9c-0.3,15.5-16.6,23.4-33,27.3c-16.5,3.9-33,3.9-33,3.9
			S1262.7,835.6,1277.3,826.8z"/>
		<path fill="#022C46" d="M786,987.8V1252h57.5h82l-82-155.4L786,987.8z M879.8,1217.1h-36.4H807V1090l36.4,63.6L879.8,1217.1z"/>
		<rect x="715.9" y="985.9" fill="#022C46" width="35" height="259.2"/>
	</g>
</g>
</svg>
