<?xml version="1.0" encoding="utf-8"?>
<!-- Generator: Adobe Illustrator 16.0.0, SVG Export Plug-In . SVG Version: 6.00 Build 0)  -->
<!DOCTYPE svg PUBLIC "-//W3C//DTD SVG 1.1//EN" "http://www.w3.org/Graphics/SVG/1.1/DTD/svg11.dtd">
<svg version="1.1" id="Layer_1" xmlns="http://www.w3.org/2000/svg" xmlns:xlink="http://www.w3.org/1999/xlink" x="0px" y="0px"
	 width="100px" height="100px" viewBox="0 0 100 100" enable-background="new 0 0 100 100" xml:space="preserve">
<g>
	<linearGradient id="SVGID_1_" gradientUnits="userSpaceOnUse" x1="37.7432" y1="86.9697" x2="57.8689" y2="12.8225">
		<stop  offset="0" style="stop-color:#508D40"/>
		<stop  offset="0.1802" style="stop-color:#5B953F"/>
		<stop  offset="0.4946" style="stop-color:#78A93E"/>
		<stop  offset="0.9034" style="stop-color:#A6CA3C"/>
		<stop  offset="1" style="stop-color:#B2D23B"/>
	</linearGradient>
	<path fill="url(#SVGID_1_)" d="M72.188,6.826c-27.205,3.277-48.167,23.879-48.167,48.819c0,16.203,8.857,30.578,22.532,39.561
		l0.076-0.17c-0.052,0.02-0.1,0.039-0.157,0.064c-3.014-8.229-6.854-16.207-10.933-24.064c-2.079,0.563-3.123,0.879-5.263,1.586
		c0.797-12.225,3.144-23.572,11.696-33.582c8.358,8.456,17.706,16.889,22.702,27.4c-2.232,0.178-3.322,0.266-5.462,0.477
		c-0.983,5.891-1.651,11.627-2.036,17.479C81.288,65.297,49.045,32.21,72.188,6.826z"/>
	<linearGradient id="SVGID_2_" gradientUnits="userSpaceOnUse" x1="44.7808" y1="80.8291" x2="53.0303" y2="80.8291">
		<stop  offset="0" style="stop-color:#508D40"/>
		<stop  offset="0.1802" style="stop-color:#5B953F"/>
		<stop  offset="0.4946" style="stop-color:#78A93E"/>
		<stop  offset="0.9034" style="stop-color:#A6CA3C"/>
		<stop  offset="1" style="stop-color:#B2D23B"/>
	</linearGradient>
	<path fill="url(#SVGID_2_)" d="M52.448,78.852c-0.143-1.918-0.215-2.881-0.336-4.824c-1.206,0.264-1.805,0.398-3.002,0.672
		c0.316,1.975,0.47,2.947,0.785,4.879C50.915,79.279,51.425,79.135,52.448,78.852z M47.767,75.023
		c-1.193,0.283-1.792,0.441-2.986,0.752c0.586,1.992,0.866,2.971,1.424,4.904c1.019-0.316,1.525-0.469,2.541-0.77
		C48.361,77.977,48.171,77.006,47.767,75.023z M52.614,81.02c-0.951,0.283-1.428,0.43-2.371,0.729
		c0.315,1.922,0.469,2.881,0.785,4.795c0.801-0.295,1.197-0.441,2.002-0.732C52.853,83.893,52.767,82.938,52.614,81.02z
		 M46.82,82.857c0.534,1.924,0.801,2.871,1.311,4.773c0.797-0.305,1.198-0.453,1.999-0.752c-0.377-1.91-0.567-2.873-0.947-4.795
		C48.236,82.387,47.763,82.541,46.82,82.857z"/>
	<linearGradient id="SVGID_3_" gradientUnits="userSpaceOnUse" x1="57.1006" y1="25.4429" x2="56.1673" y2="81.8377">
		<stop  offset="0" style="stop-color:#508D40"/>
		<stop  offset="0.1802" style="stop-color:#5B953F"/>
		<stop  offset="0.4946" style="stop-color:#78A93E"/>
		<stop  offset="0.9034" style="stop-color:#A6CA3C"/>
		<stop  offset="1" style="stop-color:#B2D23B"/>
	</linearGradient>
	<path fill="url(#SVGID_3_)" d="M42.094,39.168c8.334,8.412,17.613,16.814,22.581,27.271c-2.232,0.178-3.322,0.266-5.462,0.477
		c-0.983,5.891-1.651,11.627-2.036,17.479C81.288,65.297,49.045,32.21,72.188,6.826C60.981,12.983,44.21,19.78,42.094,39.168z"/>
</g>
</svg>
