<?xml version="1.0" encoding="utf-8"?>
<!-- Generator: Adobe Illustrator 18.1.0, SVG Export Plug-In . SVG Version: 6.00 Build 0)  -->
<svg version="1.1" id="Layer_1" xmlns="http://www.w3.org/2000/svg" xmlns:xlink="http://www.w3.org/1999/xlink" x="0px" y="0px"
	 viewBox="0 0 2000 2000" enable-background="new 0 0 2000 2000" xml:space="preserve">
<g>
	<g>
		<path fill="#00B3E2" d="M1005.6,1461.9c0,0-351.8-101.2-565.6-466.3c-213.8-365-124-753.4-124-753.4S-210.7,1364.4,1005.6,1461.9z
			"/>
		<path fill="#56C0E7" d="M1035.3,1809.3c0,0-343-219.2-469.5-626.4C439.7,777.1,682,598.8,1003.1,613c0,0-274.6-136.2-528,35.7
			C171.7,854.4,193.1,1419,1035.3,1809.3z"/>
		<path fill="#00B3E2" d="M549.6,528.7c0,46-37.3,83.3-83.3,83.3c-46,0-83.3-37.3-83.3-83.3c0-46,37.3-83.3,83.3-83.3
			C512.3,445.4,549.6,482.7,549.6,528.7z"/>
	</g>
	<g>
		<path fill="#7FB064" d="M1003.9,1456.3c0,0,351.2-99.3,563-463.1c211.7-363.8,119.8-752.7,119.8-752.7
			S2219.7,1365.8,1003.9,1456.3z"/>
		<path fill="#9BC185" d="M987.1,1809.3c0,0,343-219.2,469.6-626.4c126.1-405.8-116.3-584.1-437.3-569.9c0,0,274.6-136.2,528.1,35.7
			C1850.6,854.4,1829.3,1419,987.1,1809.3z"/>
		<path fill="#7FB064" d="M1472.7,528.7c0,46,37.3,83.3,83.3,83.3c46,0,83.3-37.3,83.3-83.3c0-46-37.3-83.3-83.3-83.3
			C1510,445.4,1472.7,482.7,1472.7,528.7z"/>
	</g>
</g>
</svg>
