<?xml version="1.0" encoding="utf-8"?>
<!-- Generator: Adobe Illustrator 18.1.0, SVG Export Plug-In . SVG Version: 6.00 Build 0)  -->
<svg version="1.1" id="Layer_1" xmlns="http://www.w3.org/2000/svg" xmlns:xlink="http://www.w3.org/1999/xlink" x="0px" y="0px"
	 viewBox="0 0 1000 1000" enable-background="new 0 0 1000 1000" xml:space="preserve">
<g>
	<path fill="#D58D25" d="M884.2,384.8c2.9-13.2,6.3-26.6,10.4-40c27.2-27.6,42.3-64,42.3-102.9c0-27.5-7.7-53.1-20.9-75.1
		c-24.2-46-72.4-77.5-127.9-77.5c-35,0-68.6,12.7-94.9,35.7c-14.4,4.3-31.9,8.8-51.9,12.8c-70.5,14.3-171.9,22.4-279-10.7
		c-27.6-27.2-64-42.2-102.9-42.2c-31.2,0-60.1,9.8-83.9,26.5c-38,26.6-63,70.6-63,120.4c0,39.5,15.7,75.3,41.2,101.7
		c3.8,4,7.8,7.8,12.1,11.3c25.4,21.1,58,33.8,93.6,33.8c28,0,54.9-7.8,78.3-22.6c2.9-1.8,5.7-3.8,8.5-5.8c0.9-0.4,1.9-0.8,2.8-1.2
		c3.7-1.7,7.4-3.3,11-4.8c104.3-43.4,205.6-32.5,270.3-16.7c19.1,4.7,35.1,9.8,46.9,14.1c6.2,14.9,11.3,29.6,15.5,44.3
		c33.9,119.2,4.1,228.2-12.6,274.4c-1.5,4.2-2.9,7.9-4.2,11.1c-2.2,5.7-3.9,9.4-4.7,11.1c-0.3,0.6-0.5,1.1-0.5,1.1l-5.9,12.1
		c-13.8,22.6-21.1,48.1-21.1,75c0,32.7,11.1,62.8,29.5,87.1c6.1,8.1,13,15.5,20.7,22.1c25.3,21.9,58.2,35.2,94.2,35.2
		c28.1,0,54.2-8.2,76.4-22.1c40.7-25.6,68-70.8,68-122.3c0-35-12.7-68.6-35.7-94.9C879.3,616.8,857.2,506.8,884.2,384.8z
		 M793.9,263.3c-8.5,0-16.2-2.7-22.6-7.3c-4.9-2.9-9.2-6.8-12.4-11.5c-1.1-2.7-1.8-5.6-2.2-8.6c-1.2-3.8-2-7.7-2-11.9
		c0-21.7,17.6-39.2,39.2-39.2c10.8,0,20.6,4.4,27.6,11.4c4.5,4.4,7.7,10,9.6,16.1c1.2,3.7,2,7.6,2,11.7
		C833.2,245.7,815.6,263.3,793.9,263.3z M791.6,818.1c-8.2,0-15.8-2.5-22.1-6.8c-10.6-7.1-17.6-19.2-17.6-33c0-0.9,0.2-1.8,0.3-2.6
		c1.1-16.3,11.9-29.7,26.7-34.8c4-1.4,8.3-2.3,12.7-2.3c21.9,0,39.7,17.8,39.7,39.7c0,13.9-7.2,26.1-18.1,33.3
		C807.1,815.7,799.6,818.1,791.6,818.1z M199.8,230.2c0-0.9,0.2-1.8,0.3-2.6c1.1-16.3,11.9-29.8,26.7-34.8c4-1.4,8.3-2.3,12.7-2.3
		c21.9,0,39.7,17.8,39.7,39.7c0,13.9-7.2,26.1-18.1,33.2c-6.2,4.1-13.7,6.5-21.7,6.5c-8.2,0-15.8-2.5-22.1-6.8
		C206.8,256,199.8,243.9,199.8,230.2z"/>
	<path fill="#CE2C27" d="M530,380.6c-63.6,0-115.1,51.5-115.1,115.1c0,63.6,51.5,115.1,115.1,115.1c63.6,0,115.1-51.5,115.1-115.1
		C645.1,432.2,593.6,380.6,530,380.6z M530,527.1c-17.3,0-31.3-14-31.3-31.3c0-17.3,14-31.3,31.3-31.3c17.3,0,31.3,14,31.3,31.3
		C561.4,513,547.4,527.1,530,527.1z"/>
	<path fill="#CE2C27" d="M634.8,863.1c0.4,0.3,0.7,0.5,0.7,0.5c-1.2-2.4-2.4-4.8-3.5-7.2c-1.5-3.3-3-6.5-4.3-9.8
		c-26-63.4-11.8-121.5-0.9-150.8c1.4-3.8,2.8-7.1,4-9.9c0.2-0.5,0.5-1.1,0.7-1.6c0.7-1.3,1.3-2.6,2.1-3.9c0.6-1.2,1.5-3.2,2.5-5.1
		c-118.5,33.4-226.7,4-273-12.7c-44-104.9-32.9-206.9-17-271.8c-3.4,1.9-6.9,3.7-10.4,5.3c-3.2,1.5-6.3,2.9-9.6,4.2
		c-21,8.4-43.4,12.9-66.5,12.9c-30,0-58.2-7.4-83.1-20.3c-3.4-1.8-6.7-3.6-9.9-5.6c-3.4-2-6.8-4.1-10.1-6.4
		c14.2,70.4,22.1,171.5-10.8,278.3c-27.2,27.6-42.3,64-42.3,102.9c0,27.5,7.7,53.1,20.9,75.1c24.2,46,72.4,77.5,127.8,77.5
		c35,0,68.6-12.7,94.9-35.7c58.7-17.4,168.3-39.5,289.9-12.9C636.1,865.4,635.5,864.3,634.8,863.1z M245.6,734.6
		c1.1-0.1,2.1-0.3,3.2-0.3c21.7,0,39.2,17.6,39.2,39.2c0,1.3-0.3,2.5-0.4,3.8c-1.7,17.6-14.9,31.8-32,34.8
		c-3.6,1.1-7.4,1.9-11.4,1.9c-13.6,0-25.6-6.9-32.7-17.3c-1.7-4.5-2.8-9.3-2.8-14.4c0-2.8,0.3-5.6,0.9-8.3c0-0.2,0-0.3,0-0.4
		C209.6,752.9,225.4,736.2,245.6,734.6z"/>
</g>
</svg>
