<?xml version="1.0" encoding="utf-8"?>
<!-- Generator: Adobe Illustrator 18.1.0, SVG Export Plug-In . SVG Version: 6.00 Build 0)  -->
<svg version="1.1" id="Layer_1" xmlns="http://www.w3.org/2000/svg" xmlns:xlink="http://www.w3.org/1999/xlink" x="0px" y="0px"
	 viewBox="0 0 1500 1500" enable-background="new 0 0 1500 1500" xml:space="preserve">
<g>
	<path fill="none" d="M785,1145.2c0,0-8-0.1-10.5-0.2c-2.5,0.1-0.5,0.1-10.5,0.2v-0.4c-93-4-181-35.1-244.4-80.2
		c-20.6,16.2-31.1,34.6-31.1,54.2c0,64.7,128.2,117.1,285.4,117.1c157.3,0,285.1-52.4,285.1-117.1c0-19-10.4-36.9-29.9-52.8
		c-63.1,44.4-141.2,74.8-244.2,78.8V1145.2z"/>
	<path fill="#48B2E8" d="M997.6,860.8c0,8.7-4.8,13.6-4.8,13.6l41.7,24.2c0,0-29-37.8-27.1-40.7
		C1007.3,857.9,1000.5,861.8,997.6,860.8z"/>
	<path fill="#48B2E8" d="M919.1,821.1c12.6-7.7,35.9-1,41.7,1.9c6.8-1.9,14.5-6.8,14.5-6.8s-48.5-77.5-48.5-95.9
		c0-18.4-24.2-83.4-24.2-83.4S860,728,887.1,830.7C901.7,835.6,906.5,828.8,919.1,821.1z"/>
	<path fill="#48B2E8" d="M1125.9,848.5c-1.1,0.3-2.3,0.5-3.7,0.7c-20.3,10.2-14.5,21.8-2.9,32c11.6,10.2,14.5,8.7,16,1.4
		c1.5-7.2-11.6-24.7-17.4-24.7C1119.6,853.4,1122.5,850.1,1125.9,848.5z"/>
	<path fill="#48B2E8" d="M394,871c6.3-18.8,15.3-24.9,22.7-23.4c-12.7-5.2-3.8-18.7-3.8-18.7s10.2,8.7,17.4,8.7s23.3,20.3,39.3,21.8
		c16,1.4,26.2-49.4,46.5-101.8c20.4-52.3,42.2-77.1,42.2-77.1s23.2-66.9,27.6-111.9c2.9-100.3,68.3-98.9,75.6-97.4
		c7.2,1.5,24.7-14.5,52.3-27.6c27.6-13.1,4.4-80,4.4-80c-7.3,2.9-21.8-13.1-21.8-36.3c0-23.3,17.4-10.2,17.4-10.2s-2.2-5.3-3.9-13.1
		c-0.7-3.1-1.3-6.3-1.6-9.5c-1.3-11.2-0.5-24.6,7-35.5c0-0.1,0.1-0.1,0.1-0.2c10.8-20.6,32.4-34.7,57.3-34.7
		c25.6,0,46.9,14.9,57.4,36.5c5.3,8.6,5.8,18.5,5.8,27.6c0,0.2,0,0.4,0,0.6c0,7.4-0.6,14.5-2.9,21.2c-1.3,4.4-2,7.2-2,7.2
		s17.6-13.1,17.6,10.2c0,23.3-14.4,39.3-21.7,36.3c0,0-23.2,66.9,4.4,80c27.6,13.1,45.1,29.1,52.4,27.6c7.3-1.4,72.7-2.9,75.6,97.4
		c4.4,45.1,27.6,111.9,27.6,111.9s21.8,24.7,42.2,77.1c20.3,52.3,30.5,103.2,46.5,101.8c16-1.4,32-21.8,39.3-21.8
		c7.2,0,17.4-8.7,17.4-8.7s9,13.5-3.8,18.7c7.4-1.5,16.4,4.6,22.6,23.4c10.2,30.5-5.8,48-10.2,46.5c2.9,13.1-1.4,14.5-10.2,14.5
		c-4.4,5.8-10.2,5.8-10.2,5.8s7.9,3.1,18.1,9.3c27.9-48.1,42.2-99.2,42.2-146.3c0-150-85.4-276.2-226.4-436.4
		C813.5,204.2,776.4,33.7,776.4,33.7s-37.1,170.5-178.2,330.7C457.2,524.7,371.8,650.9,371.8,800.9c0,33.1,7.1,68.3,21,103
		C390.2,895.9,389.4,884.8,394,871z M571.1,451.2c6.4-6.7,10.1-10.5,10.1-10.5l-46.5,166.1c0,66.5-79.8,252.6-119.6,146.2
		C380.6,661.1,530.2,494.5,571.1,451.2z"/>
	<path fill="#48B2E8" d="M626.2,821.1c12.6,7.8,17.5,14.5,32,9.7c27.2-102.7-15.5-193.8-15.5-193.8s-24.2,64.9-24.2,83.4
		c0,18.4-48.4,95.9-48.4,95.9s7.8,4.9,14.5,6.8C590.3,820.1,613.6,813.3,626.2,821.1z"/>
	<path fill="#48B2E8" d="M423.1,849.2c-1.3-0.2-2.6-0.4-3.7-0.7c3.4,1.6,6.3,5,8.1,9.4c-5.8,0-18.9,17.4-17.4,24.7
		c1.4,7.3,4.4,8.7,16-1.4C437.7,871,443.5,859.3,423.1,849.2z"/>
	<path fill="#66B245" d="M519.6,1064.6c63.4,45.1,151.4,76.2,244.4,80.2v0.4c10,0,8-0.1,10.5-0.2c2.5,0.1,10.5,0.1,10.5,0.2v-0.4
		c103-3.9,181.2-34.4,244.3-78.8c-2.1-1.7-4.4-3.3-6.6-5c2.4,1.5,4.4,3.1,6.7,4.6c11.4-8,22.2-16.5,32.3-25.4
		c-15-1.5-30.5-4-46.4-8.1c-31.7-3.4-66.8-8.9-96.1-17.3c-73.6-21.3-140.5-30-146.4-32l-0.1-0.1c-0.1,0-0.1,0.1-0.1,0.1
		c-5.9,2-72.8,10.7-146.4,32c-29.3,8.5-64.4,13.9-96.1,17.3c-13.6,3.5-26.9,5.8-39.8,7.3c9.9,8.7,20.4,17,31.5,24.9
		c1.7-1.1,1.9-2.3,3.7-3.3C523.8,1062.2,521.1,1063.4,519.6,1064.6z M614.5,1045.5c0,0,73.1,66.5,99.7,66.5c0,0-79.8-6.6-132.9-46.5
		L614.5,1045.5z"/>
	<path fill="#48B2E8" d="M395,909.1c4.9,11.7,10.5,23.3,17,34.8c7.3-4,12.5-6.1,12.5-6.1s-5.8,0-10.2-5.8c-8.7,0-13.1-1.5-10.2-14.5
		C402.3,918.1,398.2,915.2,395,909.1z"/>
	<path fill="#48B2E8" d="M552.5,874.4c0,0-4.9-4.8-4.9-13.6c-2.9,1-9.7-2.9-9.7-2.9c1.9,2.9-27.2,40.7-27.2,40.7L552.5,874.4z"/>
	<path fill="#90CAEF" d="M1245.5,1061.4c45.7,33.1,71.8,71.3,71.8,112.1c0,125.6-247.7,227.5-553.3,227.5s-553.3-101.9-553.3-227.5
		c0-40.8,26.1-79,71.8-112.1c-59,37.1-93.4,81.5-93.4,129.2c0,130.5,257.4,236.3,574.9,236.3s574.9-105.8,574.9-236.3
		C1338.9,1142.9,1304.5,1098.5,1245.5,1061.4z"/>
	<path fill="#90CAEF" d="M774.5,1340.4c246.7,0,446.7-82.2,446.7-183.7c0-37.1-26.7-71.5-72.6-100.4c35.5,25.7,55.8,55.4,55.8,87.1
		c0,97.6-192.5,176.8-430,176.8c-237.4,0-429.9-79.2-429.9-176.8c0-31.7,20.3-61.4,55.8-87.1c-45.9,28.8-72.6,63.3-72.6,100.4
		C327.8,1258.2,527.8,1340.4,774.5,1340.4z"/>
	<path fill="#90CAEF" d="M478.6,1127.6c0,67.2,132.5,121.7,295.9,121.7c163.4,0,295.9-54.5,295.9-121.7c0-22.6-15.1-43.7-41.3-61.9
		c-2.2-1.6-4.4-3.1-6.8-4.6c2.2,1.6,4.3,3.3,6.3,5c19.5,15.9,30.6,33.8,30.6,52.8c0,64.7-127.5,117.1-284.8,117.1
		c-157.3,0-284.8-52.4-284.8-117.1c0-19.5,11.8-38,32.4-54.2c1.5-1.2,3-2.4,4.6-3.6c-1.7,1.1-3.3,2.2-4.9,3.3
		C494.5,1082.8,478.6,1104.4,478.6,1127.6z"/>
	<path fill="#66B245" d="M614.5,1045.5l-33.2,19.9c53.2,39.9,132.9,46.5,132.9,46.5C687.6,1112,614.5,1045.5,614.5,1045.5z"/>
	<path opacity="0.61" fill="#FFFFFE" d="M614.5,1045.5l-33.2,19.9c53.2,39.9,132.9,46.5,132.9,46.5
		C687.6,1112,614.5,1045.5,614.5,1045.5z"/>
	<path fill="#48B2E8" d="M534.7,606.9l46.5-166.1c0,0-3.7,3.7-10.1,10.5c-41,43.2-190.5,209.9-156,301.9
		C455,859.4,534.7,673.4,534.7,606.9z"/>
	<path fill="#7CC3ED" d="M534.7,606.9l46.5-166.1c0,0-3.7,3.7-10.1,10.5c-41,43.2-190.5,209.9-156,301.9
		C455,859.4,534.7,673.4,534.7,606.9z"/>
</g>
</svg>
