<?xml version="1.0" encoding="utf-8"?>
<!-- Generator: Adobe Illustrator 16.0.0, SVG Export Plug-In . SVG Version: 6.00 Build 0)  -->
<!DOCTYPE svg PUBLIC "-//W3C//DTD SVG 1.1//EN" "http://www.w3.org/Graphics/SVG/1.1/DTD/svg11.dtd">
<svg version="1.1" id="Layer_1" xmlns="http://www.w3.org/2000/svg" xmlns:xlink="http://www.w3.org/1999/xlink" x="0px" y="0px"
	 width="100px" height="100px" viewBox="0 0 100 100" enable-background="new 0 0 100 100" xml:space="preserve">
<g>
	<g>
		<path fill="#00A69C" d="M40.692,64.311c-12.15,0.722-21.677,5.527-22.517,11.484h7.022c2.01-2.973,8.033-5.249,15.494-5.759
			V64.311z"/>
		<path fill="#00A69C" d="M58.401,64.289v5.72c7.662,0.449,13.884,2.758,15.931,5.786h7.025
			C80.505,69.766,70.758,64.917,58.401,64.289z"/>
	</g>
	<path fill="#00A69C" d="M94.424,45.722c-1.367-12.556-20.837-22.519-44.661-22.519c-23.821,0-43.291,9.963-44.658,22.519
		c-0.059,0.472-0.082,0.945-0.082,1.423c0,13.221,20.031,23.942,44.74,23.942c24.713,0,44.744-10.721,44.744-23.942
		C94.507,46.667,94.483,46.194,94.424,45.722z M49.763,65.911c-15.54,0-28.45-6.744-30.961-15.603
		c-0.294-1.029-0.448-2.084-0.448-3.164c0-10.359,14.063-18.762,31.41-18.762c17.35,0,31.414,8.403,31.414,18.762
		c0,1.079-0.154,2.134-0.449,3.164C78.217,59.167,65.307,65.911,49.763,65.911z"/>
	<path fill="#308E90" d="M49.766,28.383c-17.35,0-31.413,8.399-31.413,18.762c0,10.366,14.063,18.766,31.413,18.766
		c17.346,0,31.411-8.4,31.411-18.766C81.177,36.782,67.112,28.383,49.766,28.383z M49.766,61.73
		c-15.634,0-28.309-7.049-28.309-15.746c0-8.698,12.675-15.746,28.309-15.746c15.631,0,28.306,7.048,28.306,15.746
		C78.072,54.682,65.397,61.73,49.766,61.73z"/>
	<path fill="#7F3F97" d="M77.993,46.332c0,0.469-0.029,0.925-0.081,1.383c-1.109,9.271-13.288,16.574-28.149,16.574
		c-14.858,0-27.037-7.303-28.142-16.574c-0.056-0.458-0.085-0.914-0.085-1.383c0-1.213,0.193-2.399,0.551-3.544
		c2.642,6.924,14.491,12.151,28.719,12.151c12.304,0,22.824-3.912,27.158-9.439C77.983,45.771,77.993,46.053,77.993,46.332z"/>
</g>
</svg>
