<?xml version="1.0" encoding="utf-8"?>
<!-- Generator: Adobe Illustrator 18.1.0, SVG Export Plug-In . SVG Version: 6.00 Build 0)  -->
<svg version="1.0" id="Layer_1" xmlns="http://www.w3.org/2000/svg" xmlns:xlink="http://www.w3.org/1999/xlink" x="0px" y="0px"
	 viewBox="0 0 150 150" enable-background="new 0 0 150 150" xml:space="preserve">
<g>
	<g>
		<g>
			<path fill="#CB996A" d="M34.7,16c0,0-15.7,62,15.8,94.3c0,0-24.5,4.7-38.9-8.8C11.5,101.5-11.2,49.1,34.7,16z"/>
		</g>
		<g>
			<path fill="#CB996A" d="M115.4,131c0,0,15.8-62-15.8-94.3c0,0,24.6-4.7,38.9,8.8C138.5,45.4,161.2,97.8,115.4,131z"/>
		</g>
		<path fill="#5EA043" d="M17.5,113.8c0,0,62,15.7,94.3-15.8c0,0,4.7,24.5-8.8,38.9C103,136.9,50.6,159.7,17.5,113.8z"/>
		<path fill="#5EA043" d="M132.5,33.1c0,0-62-15.8-94.3,15.7c0,0-4.7-24.6,8.8-38.9C47,10,99.4-12.7,132.5,33.1z"/>
	</g>
	<path fill="#5EA043" d="M75.7,70.7c-0.1,0-0.3,0-0.4,0h-0.1h0c-0.1,0-0.3,0-0.4,0L60.7,91.3c-0.1,0.2-0.1,0.4-0.1,0.6h29.3
		c0-0.2-0.1-0.4-0.1-0.6L75.7,70.7z M63.4,91l-1.7,9.2h27.1L87.1,91H63.4z M75.2,66.3L75.2,66.3c0.2,0,0.3,0,0.4,0l2.9-4.3
		c-2.2-1.8-3.3-1.5-3.3-1.5s-1.1-0.3-3.3,1.5l2.9,4.3C74.9,66.3,75.1,66.3,75.2,66.3z M76.3,67.8L98,53l-0.8-0.8L96,53l-5.2-5.2
		l0.8-1.1l-0.8-0.8L76,67.4c-0.5-0.3-1.1-0.3-1.5,0L59.7,45.8l-0.8,0.8l0.8,1.1L54.5,53l-1.1-0.8L52.5,53l21.6,14.8
		c-0.3,0.5-0.3,1.1,0,1.5L52.5,84.1l0.8,0.8l1.1-0.8l5.2,5.2l-0.8,1.1l0.8,0.8l14.8-21.6c0.5,0.3,1.1,0.3,1.5,0l14.8,21.6l0.8-0.8
		l-0.8-1.1l5.2-5.2l1.1,0.8l0.8-0.8L76.3,69.3C76.7,68.8,76.7,68.2,76.3,67.8z M82,72.1l0.2-1.7h1.2l-0.4-2.8
		c-0.1-0.8-0.7-1.7-1.2-2.5l-4.3,2.9c0,0.1,0,0.3,0,0.4c0,0.1,0,0.3,0,0.4L82,72.1z M68.8,65.2c-0.6,0.8-1.1,1.7-1.2,2.5l-0.4,2.8
		h1.2l0.2,1.7L73,69c0-0.1,0-0.3,0-0.4c0-0.1,0-0.3,0-0.4L68.8,65.2z"/>
</g>
</svg>
