<?xml version="1.0" encoding="utf-8"?>
<!-- Generator: Adobe Illustrator 18.1.0, SVG Export Plug-In . SVG Version: 6.00 Build 0)  -->
<svg version="1.1" id="Layer_1" xmlns="http://www.w3.org/2000/svg" xmlns:xlink="http://www.w3.org/1999/xlink" x="0px" y="0px"
	 viewBox="0 0 150 150" enable-background="new 0 0 150 150" xml:space="preserve">
<g>
	<path fill="#0DB14B" d="M28.3,15.5c0,0,37.1-13.7,81,0.2c0,0-30.1,23.1-32.9,58.6c0,0-7-26.1-8.3-45.5
		C68.1,28.8,59.4,25.9,28.3,15.5z"/>
	<path fill="#909A34" d="M7.6,77.6c0,0,15.7-28.6,50.6-43.6c0,0-6.3,30.7,11.2,54.3c0,0-18.5-12.5-29.8-23.9
		C39.6,64.5,32.6,67.4,7.6,77.6z"/>
	<path fill="#A8AA2F" d="M41.4,140.6c0,0-13.2-26.2-6.5-59.7c0,0,19.5,20.3,45.9,19.4c0,0-18.6,7.3-32.8,9.9
		C48,110.2,46.5,116.9,41.4,140.6z"/>
	<path fill="#00BEAC" d="M116.4,127.9c0,0-23.6,3.3-47.6-10.6c0,0,20.7-9.7,26.8-30.2c0,0,0.8,16.2-1,27.8
		C94.7,114.9,99.5,117.8,116.4,127.9z"/>
	<path fill="#00A9C5" d="M138.4,76.5c0,0-9.8,19.3-32.5,29.9c0,0,3.5-20.4-8.6-35.7c0,0,12.5,7.8,20.2,15.1
		C117.5,85.9,122.1,83.9,138.4,76.5z"/>
	<path fill="#AFCDF2" d="M123.6,37c0,0,3.7,18.3-6,37.7c0,0-8.6-15.7-24.9-19.6c0,0,12.7-1.4,21.8-0.6
		C114.5,54.6,116.5,50.7,123.6,37z"/>
</g>
</svg>
