<?xml version="1.0" encoding="utf-8"?>
<!-- Generator: Adobe Illustrator 18.1.0, SVG Export Plug-In . SVG Version: 6.00 Build 0)  -->
<svg version="1.1" id="Layer_1" xmlns="http://www.w3.org/2000/svg" xmlns:xlink="http://www.w3.org/1999/xlink" x="0px" y="0px"
	 viewBox="0 0 2000 2000" enable-background="new 0 0 2000 2000" xml:space="preserve">
<g>
	<path fill="#619F42" d="M1808.1,1013.7C1729.9,710,1348,774.4,1150.1,779s-225.5-50.6-225.5-50.6s-59.8-13.8-27.6,124.2
		c32.2,138.1,377.4,133.5,464.8,119.6c87.4-13.8,138.1,69-64.4,142.7S607.1,958.5,455.2,746.8C303.4,535.1,238.9,590.3,238.9,590.3
		c-161,207.1,239.3,501.6,188.7,483.2c216.3,202.5,524.6,253.1,524.6,253.1c-408.5,4.1-671.7-325.1-725.8-399.3
		c-36.9-7-106.7-1-121,63.3c-18.4,82.8,96.6,193.3,96.6,193.3c-64.4,46-27.6,124.3-27.6,124.3c170.3,193.3,635,271.5,635,271.5
		s92,9.2,4.6,36.8c-87.4,27.6-377.3-69-437.2-59.8c-59.8,9.2-92,78.2-13.8,156.5c78.2,78.2,579.8,174.9,961.8,87.4
		C1706.9,1713.2,1886.4,1317.4,1808.1,1013.7z"/>
	<path fill="#B86645" d="M476.2,521.3c13.8,4.6,79.8-64.4,103.8-64.4c23,0,0,340.5,0,340.5C592,848,683.3,894,683.3,894
		s14.8-151.9,14.8-174.9c0-23,23.5-9.2,37.3-9.2c13.8,0,37.1,234.7,60.1,243.9c23,9.2,59.9,23,64.6,9.2c4.6-13.8-62.1-497-62.1-543
		c0-46,99-9.2,99-9.2v-92c0,0-154.2-4.6-214-4.6c-59.8,0-223.1,119.6-236.9,138.1C432.4,470.7,462.4,516.7,476.2,521.3z"/>
	<path fill="#00A8DE" d="M938.4,415.5c5.7,0,22.4,1.1,44.6,3L966,719.2c0,0,64.4,23,78.2,4.6c13.8-18.4,0-64.4,32.2-50.6
		c32.2,13.8,50.6,69,50.6,69l82.8-4.6c0,0-37.5-212.2-48.1-299.9c13.6,2,24.1,3.8,29.7,5.4c32.2,9.2,55.2-4.6,55.2-36.8
		c0-32.2-13.8-78.2-322.1-82.8C924.6,323.4,915.4,415.5,938.4,415.5z"/>
	<path fill="#FFAD26" d="M1355.2,475.3c0,21.3-15.5,136.3-30.9,255c64.8-4.8,151.9-5.6,235.3,11.1c-4.6-99.3-8.2-229.3,6.1-229.3
		c23,0,92,69,105.7,64.4c13.8-4.6,46-50.6,32.2-69c-13.8-18.4-173.5-138.1-233.3-138.1c-59.8,0-210.3,4.6-210.3,4.6v92
		C1260,466.1,1355.2,429.3,1355.2,475.3z"/>
	<circle fill="#00A8DE" cx="653.1" cy="241" r="67.2"/>
	<path fill="#B86645" d="M1069.3,308.2c32.8,0,59.3-26.5,59.3-59.3c0-32.7-26.5-59.3-59.3-59.3c-32.7,0-59.3,26.5-59.3,59.3
		C1010.1,281.6,1036.6,308.2,1069.3,308.2z"/>
	<path fill="#619F42" d="M1471.1,356.9c37.1,0,67.2-30.1,67.2-67.2s-30.1-67.2-67.2-67.2c-37.1,0-67.2,30.1-67.2,67.2
		S1434,356.9,1471.1,356.9z"/>
</g>
</svg>
