<?xml version="1.0" encoding="utf-8"?>
<!-- Generator: Adobe Illustrator 18.1.0, SVG Export Plug-In . SVG Version: 6.00 Build 0)  -->
<svg version="1.1" id="Layer_1" xmlns="http://www.w3.org/2000/svg" xmlns:xlink="http://www.w3.org/1999/xlink" x="0px" y="0px"
	 viewBox="0 0 1000 1000" enable-background="new 0 0 1000 1000" xml:space="preserve">
<g>
	<path fill="#6EC829" d="M307.1,914.2l-4.8,8.8c0,0,11.7-4.2,29.5-10C323.7,914,315.4,914.5,307.1,914.2z"/>
	<path fill="#6EC829" d="M585.5,794.7c-1.2-9-1.5-18-1-26.9l-1.9-99.8h-22.2c0.8,0,1.2,6.9,1.2,10.6c0,27-21.9,48.9-48.9,48.9
		c-27,0-48.9-21.8-48.9-48.9c0-3.7,0.4-10.6,1.2-10.6h-11.3l-0.7,97c0.8,9.6,0.8,19.2-0.4,28.9c-5.7,45.8-34.3,83.6-73.4,104
		c54.2-16.3,118.1-32,122.9-17.5c3.4,10.2,8.2,19.1,15.2,25.2c29.4-8.8,65.8-14.7,52.8-8.2l-49.2,10.9c10.2,6.9,24.6,8.6,45,1.8
		c25-8.3,64.3-13,88.7-15.3C618.1,874.3,591.5,838.2,585.5,794.7z M523.4,774.2c-38.3-4.3,25.5-25.5,25.5-25.5L523.4,774.2z"/>
	<path fill="#6EC829" d="M520.9,908.4c-1.2-0.8-2.4-1.7-3.5-2.7C518.5,906.7,519.6,907.6,520.9,908.4z"/>
	<path fill="#D39878" d="M306.5,361.8l21.3,12.8l140.3-80.8l63.8,34l17-8.5l72.3,25.5l97.8-59.5l21.3,4.3l44.3-22.1
		C726,190.2,631.8,140,525.5,140c-162.8,0-297.2,117.5-318.1,269.7L306.5,361.8z M443.3,162.4c0,0-157.5,87.5-198.1,202.4l-28.6,9.2
		C216.6,374,277.1,199.7,443.3,162.4z"/>
	<path fill="#DADEE1" d="M324.7,676.1c-61.9-6.8-117.9,34.6-125.1,92.6c-7.2,57.9,37.2,110.3,99.1,117.1
		c61.9,6.8,117.9-34.7,125.1-92.6C431,735.4,386.6,682.9,324.7,676.1z M411.8,792c-6.4,51.7-56.4,88.7-111.7,82.6
		c-55.3-6.1-94.9-52.9-88.5-104.6c6.4-51.7,56.4-88.7,111.7-82.6C378.6,693.4,418.2,740.3,411.8,792z"/>
	<path fill="#00B3E6" d="M323.3,687.4C268,681.3,218,718.3,211.6,770c-6.4,51.7,33.2,98.5,88.5,104.6
		c55.3,6.1,105.3-30.9,111.7-82.6C418.2,740.3,378.6,693.4,323.3,687.4z M400.1,816.7l-174.3-80.8c42.5-55.3,114.8-29.8,114.8-29.8
		C438.3,752.9,400.1,816.7,400.1,816.7z"/>
	<path fill="#6A808E" d="M864,761.5c-3.4-25.1-14-49.5-29.3-69.4L756.7,528h5.3v-23h-15.5l-25.1-50.8c0,0-13.4-7.2-33.2-12
		l-16.7-50.1c0,0-43.3-38.9-75.8,13l8.1,51.9c-8.5,6-16.8,13-24.7,23.2l0.6,32.9H454.9l0.3-34c-8-10.1-16.4-17.4-24.9-23.3l7.4-51.6
		c-33.1-51.6-75.9-11.9-75.9-11.9l-16.1,50.8c-19.8,5-31.2,13.2-31.2,13.2L289,515v-10h-24v23h13.4l-76.4,165.5
		c-15.1,20.1-25.4,44.2-28.6,69.4c-9.2,74.5,45.8,142,122.8,150.4c3.6,0.4,7.2,0.6,10.7,0.8c8.4,0.3,16.6-0.1,24.6-1.2
		c16.9-2.3,32.9-7.4,47.5-15c39.1-20.4,67.7-58.2,73.4-104c1.2-9.7,1.3-19.3,0.4-28.9l0.7-97H465c-0.8,0-1.2,6.9-1.2,10.6
		c0,27,21.9,48.9,48.9,48.9c27,0,48.9-21.8,48.9-48.9c0-3.7-0.4-10.6-1.2-10.6h22.2l1.9,99.8c-0.5,8.9-0.3,17.9,1,26.9
		c6,43.5,32.6,79.5,69,100.2c25.9,14.7,56.7,21.7,88.7,17.9C820.1,903.7,874.2,836,864,761.5z M605.8,478.4l9.3-12.2l39.2,185.5
		l25.7,1.5l-52.7,34.9l5.8-25L605.8,478.4z M434.1,476.6l-38.3,182.8l8.5,23.9L349,652h25.5l51-189.8L434.1,476.6z M423.8,793.3
		c-7.2,57.9-63.2,99.3-125.1,92.6c-61.9-6.8-106.3-59.2-99.1-117.1c7.2-57.9,63.2-99.3,125.1-92.6
		C386.6,682.9,431,735.4,423.8,793.3z M540.4,678.5c0,15.3-12.4,27.6-27.6,27.6c-15.3,0-27.6-12.4-27.6-27.6
		c0-15.3,12.4-27.6,27.6-27.6C528,650.9,540.4,663.2,540.4,678.5z M740.3,885.4c-61.8,7.4-118.3-33.4-126.2-91.2
		c-7.9-57.8,35.9-110.7,97.7-118.2c61.8-7.4,118.3,33.4,126.2,91.2C845.9,825,802.1,877.9,740.3,885.4z"/>
	<path fill="#DADEE1" d="M711.8,675.9c-61.8,7.4-105.6,60.3-97.7,118.2c7.9,57.8,64.3,98.7,126.2,91.2
		c61.8-7.4,105.6-60.3,97.7-118.2C830.2,709.4,773.7,668.5,711.8,675.9z M738.8,874.1c-55.2,6.6-105.7-29.8-112.7-81.5
		c-7-51.6,32.1-98.9,87.3-105.5C768.6,680.5,819,717,826,768.6C833,820.3,794,867.5,738.8,874.1z"/>
	<path fill="#00B3E6" d="M713.4,687.2c-55.2,6.6-94.3,53.9-87.3,105.5c7,51.6,57.5,88.1,112.7,81.5c55.2-6.6,94.3-53.9,87.3-105.5
		C819,717,768.6,680.5,713.4,687.2z M805,808.5l-149.8-69.4c36.5-47.5,98.7-25.6,98.7-25.6C837.9,753.7,805,808.5,805,808.5z"/>
	<path fill="#BBC4CB" d="M512.7,650.9c-15.3,0-27.6,12.4-27.6,27.6c0,15.3,12.4,27.6,27.6,27.6c15.3,0,27.6-12.4,27.6-27.6
		C540.4,663.2,528,650.9,512.7,650.9z"/>
	<polygon fill="#6A808E" points="374.6,652 349,652 404.3,683.3 395.8,658.6 434.1,476.2 425.6,462 	"/>
	<polygon opacity="0.52" fill="#BBC4CB" points="374.6,652 349,652 404.3,683.3 395.8,658.6 434.1,476.2 425.6,462 	"/>
	<polygon fill="#6A808E" points="627.3,688.2 680,653.3 654.3,651.7 615.1,466.2 605.8,478.4 633.1,663.2 	"/>
	<polygon opacity="0.52" fill="#BBC4CB" points="627.3,688.2 680,653.3 654.3,651.7 615.1,466.2 605.8,478.4 633.1,663.2 	"/>
	<path fill="#DADEE1" d="M340.5,706.1c0,0-72.3-25.5-114.8,29.8l174.3,80.8C400.1,816.7,438.3,752.9,340.5,706.1z"/>
	<path fill="#DADEE1" d="M753.8,713.5c0,0-62.1-21.9-98.7,25.6L805,808.5C805,808.5,837.9,753.7,753.8,713.5z"/>
	<path fill="#D39878" d="M245.2,364.8C285.8,250,443.3,162.4,443.3,162.4C277.1,199.7,216.6,374,216.6,374L245.2,364.8z"/>
	<path opacity="0.56" fill="#FFB602" d="M245.2,364.8C285.8,250,443.3,162.4,443.3,162.4C277.1,199.7,216.6,374,216.6,374
		L245.2,364.8z"/>
	<path fill="#FFB667" d="M213.3,332.2c0,0-69.3-26.1-52.5-7.6C177.6,343.2,213.3,332.2,213.3,332.2z"/>
	<path fill="#FFB667" d="M285,220c0,0-52-60.3-45.7-34.2C245.5,212.1,285,220,285,220z"/>
	<path fill="#FFB667" d="M397.9,151.4c0,0-25-73.7-28.9-47.6C365.1,129.8,397.9,151.4,397.9,151.4z"/>
	<path fill="#FFB667" d="M515.1,69.9c-18.3,21-1.4,59.1-1.4,59.1S533.4,48.9,515.1,69.9z"/>
	<path fill="#FFB667" d="M668.9,103.2c-20.1,8.7-21.1,41.4-21.1,41.4S689,94.5,668.9,103.2z"/>
	<path fill="#FFB667" d="M796.1,193.7c-21.9-1.1-37.2,27.8-37.2,27.8S818,194.8,796.1,193.7z"/>
	<path fill="#A1DA73" d="M395.8,906l85-8.5C506.3,872,395.8,906,395.8,906z"/>
	<path fill="#A1DA73" d="M587.1,923l59.5-12.8C676.4,893.2,587.1,923,587.1,923z"/>
	<path fill="#FFFFFE" d="M517.3,906C517.3,906,517.3,906,517.3,906c0,0,0-0.2,0-0.1c1.1,1,2.3,1.6,3.5,2.4c0,0,0-0.3,0-0.3h0
		l49.2-10.6C583.1,891,546.7,897,517.3,906z"/>
	<polygon fill="#B1BCBC" points="220.3,426 239.5,497 308.6,431.7 335.5,427.9 341.3,395.3 425.7,341.5 329.8,387.6 308.6,374.2 	
		"/>
	<polygon fill="#B1BCBC" points="468,305 471.3,307.9 544.8,372.2 562,364.6 596.6,389.5 619.6,360.7 554.3,328.1 537.1,337.7 	"/>
	<polygon fill="#B1BCBC" points="629.2,349.2 640.7,364.6 715.6,320.4 723.3,326.2 782.8,280.1 740.6,301.2 719.4,295.4 	"/>
</g>
</svg>
