<?xml version="1.0" encoding="utf-8"?>
<!-- Generator: Adobe Illustrator 18.1.0, SVG Export Plug-In . SVG Version: 6.00 Build 0)  -->
<svg version="1.1" id="Layer_1" xmlns="http://www.w3.org/2000/svg" xmlns:xlink="http://www.w3.org/1999/xlink" x="0px" y="0px"
	 viewBox="0 0 150 150" enable-background="new 0 0 150 150" xml:space="preserve">
<g>
	<path fill="#603916" d="M68.9,103.7c0.6,11-4.5,41.3-4.5,41.3l21.6-0.2c-0.6-2.5-5.6-32.3-6.1-42.4C76.3,103,72.6,103.5,68.9,103.7
		z"/>
	<path fill="#437641" d="M68,25.4c4.4-6.5,9.2-13.4,15.1-17.5c-3.3-0.7-6.8-1.1-10.3-1.1c-17.3,0-32.5,9.1-41.2,22.9
		C41.9,38.8,59.3,38.4,68,25.4z"/>
	<path fill="#8BC540" d="M71.1,58c9.5-13.2,20.8-27.7,40.1-18.4c4,1.9,7.3,4.7,9.7,8.1c-2-11.6-8.1-21.8-16.6-29.1
		c-4.9-2.3-10.5-2.9-16.1-1.5C77.5,19.9,73.7,28.8,68,37.3C57.5,53,36.8,49.6,27.7,37c-1.7,4.1-2.9,8.5-3.5,13.1
		C29.9,70.3,58.7,75.3,71.1,58z"/>
	<path fill="#437641" d="M92.8,49.6c-11.5,2.8-15.6,11.8-21.7,20.3C58,88.3,29.7,80.4,24.2,62.4c2,17,12.5,31.3,27.1,38.5
		c6.4-0.8,12.5-4.1,16.7-10.3c8.9-13.2,19.5-27.7,37.5-18.4c4.1,2.1,7.4,5.3,9.7,9c3.5-6.2,5.8-13.2,6.4-20.7
		C115.5,51.7,104,46.9,92.8,49.6z"/>
	<path fill="#016535" d="M88.3,82.2C77.5,85.1,73.7,94,68,102.5c-0.7,1-1.5,2-2.2,2.9c2.3,0.3,4.6,0.5,7,0.5
		c15.2,0,28.9-7.1,37.8-18.1C104.7,82.5,96.4,80.1,88.3,82.2z"/>
	<path fill="#AECC52" d="M77.7,25.4C73.4,18.8,68.6,12,62.6,7.9C66,7.2,69.4,6.8,73,6.8c17.3,0,32.5,9.1,41.2,22.9
		C103.8,38.8,86.4,38.4,77.7,25.4z"/>
	<path fill="#00A75C" d="M74.6,58c-9.5-13.2-20.8-27.7-40.1-18.4c-4,1.9-7.3,4.7-9.7,8.1c2-11.6,8.1-21.8,16.6-29.1
		c4.9-2.3,10.5-2.9,16.1-1.5c10.7,2.8,14.6,11.8,20.3,20.3C88.2,53,109,49.6,118,37c1.7,4.1,2.9,8.5,3.5,13.1
		C115.9,70.3,87,75.3,74.6,58z"/>
	<path fill="#AECC52" d="M52.9,49.6c11.5,2.8,15.6,11.8,21.7,20.3c13.2,18.4,41.4,10.5,46.9-7.6c-2,17-12.5,31.3-27.1,38.5
		c-6.4-0.8-12.5-4.1-16.7-10.3c-8.9-13.2-19.5-27.7-37.5-18.4c-4.1,2.1-7.4,5.3-9.7,9C27.1,75,24.8,68,24.2,60.5
		C30.2,51.7,41.8,46.9,52.9,49.6z"/>
	<path fill="#8BA43C" d="M57.5,82.2c10.7,2.8,14.6,11.8,20.3,20.3c0.7,1,1.5,2,2.2,2.9c-2.3,0.3-4.6,0.5-7,0.5
		c-15.2,0-28.9-7.1-37.8-18.1C41.1,82.5,49.4,80.1,57.5,82.2z"/>
</g>
</svg>
