<?xml version="1.0" encoding="utf-8"?>
<!-- Generator: Adobe Illustrator 18.1.0, SVG Export Plug-In . SVG Version: 6.00 Build 0)  -->
<svg version="1.1" id="Layer_1" xmlns="http://www.w3.org/2000/svg" xmlns:xlink="http://www.w3.org/1999/xlink" x="0px" y="0px"
	 viewBox="0 0 150 150" enable-background="new 0 0 150 150" xml:space="preserve">
<g>
	<path fill="#AE7712" d="M83.2,35.3c1.9-0.3,3.9-0.5,5.9-0.5c4.6,0,9,0.7,13.1,2.1l23.7-23.3c-10.9-6.4-23.5-10.1-37.1-10
		c-2.4,0-4.7,0.1-7,0.4L83.2,35.3z"/>
	<path fill="#F0A11F" d="M53.8,137.7L64,106.9c-1-0.8-2-1.7-3-2.7c-0.7-0.7-1.3-1.3-1.9-2l-24.2,19.8
		C40.2,128.3,46.6,133.6,53.8,137.7z"/>
	<path fill="#AE7712" d="M35.5,27.9L59,48.6c0.5-0.6,1-1.1,1.5-1.7c0.8-0.8,1.7-1.6,2.6-2.4l-9.9-31.1
		C46.5,17.3,40.5,22.2,35.5,27.9z"/>
	<path fill="#AE7712" d="M17.6,73.2L49,71.8c0.1-1.4,0.3-2.7,0.6-4.1L21.1,53.1C19.1,59.5,17.9,66.2,17.6,73.2z"/>
	<path fill="#F0A11F" d="M33.2,30.7c-4.5,5.7-8.1,12-10.8,18.8l29.2,11c0.8-2.1,1.8-4.1,2.9-6L33.2,30.9L33.2,30.7z"/>
	<path fill="#F0A11F" d="M55.2,12.2L69,40.3c2.2-1.3,4.5-2.3,6.9-3.2L79,4.3C70.5,5.6,62.5,8.3,55.2,12.2z"/>
	<path fill="#F0A11F" d="M90,147.2c13.3-0.1,25.7-3.8,36.3-10.2c-5.5-5.2-18.2-16.7-25.1-22.8c-3.6,1.1-7.5,1.7-11.5,1.7
		c-1.9,0-3.8-0.1-5.7-0.4L82,146.8C84.6,147.1,87.3,147.2,90,147.2z"/>
	<path fill="#F0A11F" d="M21.6,99.1l28-16.1c-0.2-1.1-0.4-2.2-0.5-3.3l-31.4-2.9C17.8,84.6,19.2,92.1,21.6,99.1z"/>
	<path fill="#AE7712" d="M79.4,146.5l-2.8-32.6c-2.3-0.8-4.5-1.7-6.6-2.9l-13.7,28.1C63.4,142.8,71.2,145.3,79.4,146.5z"/>
	<path fill="#AE7712" d="M33.2,120.1l21.5-23.6c-1.2-2-2.3-4.1-3.1-6.3l-28.8,12C25.4,108.7,28.9,114.7,33.2,120.1z"/>
</g>
</svg>
