<?xml version="1.0" encoding="utf-8"?>
<!-- Generator: Adobe Illustrator 14.0.0, SVG Export Plug-In . SVG Version: 6.00 Build 43363)  -->
<!DOCTYPE svg PUBLIC "-//W3C//DTD SVG 1.1//EN" "http://www.w3.org/Graphics/SVG/1.1/DTD/svg11.dtd">
<svg version="1.1" id="Layer_1" xmlns="http://www.w3.org/2000/svg" xmlns:xlink="http://www.w3.org/1999/xlink" x="0px" y="0px"
	 width="150px" height="150px" viewBox="0 0 150 150" enable-background="new 0 0 150 150" xml:space="preserve">
<g>
	<path fill="#7AC8AB" d="M31.655,101.901c0,0-1.005,19.987-26.917,12.626c0,0,3.904-21.686,26.542-15.617
		c0,0-7.608,2.597-10.209,5.577C21.071,104.487,26.484,101.229,31.655,101.901"/>
	<path fill="#00B3D3" d="M113.929,23.07l2.272,2.149L93.373,48.514l2.303,2.16l22.69-23.285l2.4,2.36l-22.88,23.464l2.206,2.114
		l22.896-23.408l2.569,2.519l-22.899,23.439l2.227,2.139l22.925-23.418l2.001,1.996l-17.637,21.484c0,0-0.702,0.826-0.949,1.087
		c-2.995,3.032-7.099,4.417-11.064,4.032C84.77,66.341,81.554,79.607,79.583,81.603c-2.175,2.186-35.478,36.248-35.478,36.248
		l-0.046,0.092c-2.047,2.114-5.376,2.114-7.443,0.053c-2.134-1.996-2.16-5.367-0.139-7.444c0.072-0.062,0.087-0.051,0.087-0.051
		l0.021-0.057c0,0,32.898-33.607,35.376-36.141c2.283-2.359,15.949-7.905,15.939-21.966l0.035-0.097
		c-0.122-3.334,0.894-6.633,3.196-9.352c0.2-0.225,0.651-0.646,0.651-0.646L113.929,23.07z"/>
	<path fill="#007589" d="M24.119,55.02c0,0,26.265,28.677,47.17-13.128c0,0,19.688-37.612,57.901-19.699
		c0,0-33.427-31.062-60.897,14.913C68.292,37.106,55.18,68.147,24.119,55.02"/>
	<path fill="#00B3D3" d="M28.31,131.271c0,0,15.667,17.108,28.127-7.828c0,0,11.752-22.433,34.56-11.764
		c0,0-19.95-18.528-36.34,8.901C54.657,120.58,46.829,139.104,28.31,131.271"/>
	<path fill="#7AC8AB" d="M36.667,91.786c0,0,8.639-25.717-27.65-29.282c0,0-5.843,29.282,25.707,32.872
		c0,0-8.301-7.068-10.102-12.102C24.621,83.274,29.833,90.067,36.667,91.786"/>
	<polygon fill="#007589" points="115.021,69.927 118.391,80.273 129.276,80.273 120.484,86.661 123.829,97.023 115.021,90.621 
		106.229,97.023 109.584,86.661 100.78,80.273 111.666,80.273 	"/>
	<polygon fill="#00B3D3" points="141.748,72.025 140.655,76.642 144.718,79.115 139.993,79.488 138.9,84.116 137.074,79.726 
		132.351,80.13 135.936,77.031 134.104,72.667 138.167,75.124 	"/>
	<polygon fill="#00B3D3" points="127.486,57.025 126.404,61.642 130.451,64.109 125.732,64.489 124.64,69.096 122.818,64.725 
		118.089,65.131 121.689,62.021 119.854,57.666 123.901,60.118 	"/>
	<polygon fill="#00B3D3" points="98.775,95.013 97.692,99.635 101.729,102.092 97.02,102.467 95.938,107.099 94.111,102.707 
		89.387,103.122 92.968,100.01 91.146,95.653 95.188,98.116 	"/>
	<polygon fill="#00B3D3" points="116.088,102.707 115.021,107.335 119.068,109.781 114.345,110.182 113.266,114.788 
		111.425,110.423 106.7,110.802 110.285,107.729 108.465,103.348 112.507,105.806 	"/>
	<polygon fill="#00B3D3" points="137.029,92.961 135.936,97.577 139.993,100.024 135.269,100.424 134.191,105.031 132.351,100.65 
		127.625,101.045 131.222,97.962 129.396,93.592 133.438,96.043 	"/>
</g>
</svg>
