<?xml version="1.0" encoding="utf-8"?>
<!-- Generator: Adobe Illustrator 18.1.0, SVG Export Plug-In . SVG Version: 6.00 Build 0)  -->
<svg version="1.1" id="Layer_1" xmlns="http://www.w3.org/2000/svg" xmlns:xlink="http://www.w3.org/1999/xlink" x="0px" y="0px"
	 viewBox="0 0 150 150" enable-background="new 0 0 150 150" xml:space="preserve">
<g>
	<path fill="#869B3B" d="M119.2,50.4c2,6.7,3.1,14,3.1,21.7c0,32.9-20.7,59.6-46.2,59.6c-25.5,0-46.2-26.7-46.2-59.6
		c0-10.1,1.9-19.6,5.4-27.9c-8.2,10.5-13.3,24.3-13.3,39.3c0,32.9,23.7,59.5,53,59.5c29.3,0,53-26.6,53-59.5
		C128.1,71.2,124.8,59.9,119.2,50.4z"/>
	<path fill="#5F473B" d="M57.2,72.6c11.5,3.7,25.7,1.3,38.1-4.7C90,69.1,84.5,69.4,79.1,69c-0.9-5.8-3.3-16.9-4.6-22.5
		c-2.8-11.4-7.6-17.2-7.6-17.2c5.3,10.5,6.1,28,5.7,38.8c-12.7-2.8-24.2-10.2-32.3-20.9c-0.1-0.2-0.3-0.4-0.4-0.5
		c-2.4,3.9-4.3,8.3-5.6,13C41.3,65.8,49,70.4,57.2,72.6z"/>
	<path fill="#5F473B" d="M55.9,79c-8.2-1.1-16.1-4.4-23.5-9.1c-0.3,2.6-0.3,5.2-0.2,7.8C38.7,82.4,46,86,54,88.1
		c19.5,5.3,41.4-0.5,59-12.9c0,0.2,0.1,0.3,0.1,0.5C96.5,89.7,74.5,98.1,52.7,94.5c-6.7-1.1-13.1-3.2-19.1-6c0.8,3.6,2,7,3.5,10.2
		c4.3,2,8.9,3.7,13.7,4.9c21.9,5.3,44.2,0.7,63.8-11.2c0,0.5-0.1,1-0.1,1.5c-18.8,13.2-41.3,19.9-65,16.1c-2.1-0.4-4.2-0.8-6.2-1.3
		c4.2,5.2,9.4,9.4,15.3,12.2c13.9,1.5,27.5-0.1,40.5-4.4c10.8-7.9,18.7-21,20.5-36.5c1-8,0.2-15.8-1.9-22.9c0,0,0,0-0.1,0.1
		c-5.2,4.2-11.1,7.4-17.4,9.5C87.5,75.8,71,81.6,55.9,79z"/>
	<path fill="#869B3B" d="M57.4,53c6.5,7.2,14.9,6.9,14.9,6.9s-0.2-2-0.3-5c-0.1-4-0.1-8.7-3.3-11.1c-3.5-2.7-8.5-2.1-8.5-2.1
		s1.4-1.1,4.3-0.7c3.5,0.4,4.9,1.4,5.6,1.8c0.7,0.4,0.2-2-1.7-7.9c-1.9-5.9-6-12-6-12s3.2,3,6,7.1c5.3,7.9,5.9,13.3,7.6,11.5
		c1.7-1.8,4.2-1.7,4.2-1.7s-4.2,1.7-4.5,4.6c-0.3,2.8,1.4,13.2,1.4,13.2s3.4-2.9,5.7-7.5c2.9-5.9,5.2-13.1-5.3-21.9
		c-9.3-7.8-22.9-15.5-22.9-15.5s1.5,2.7,0.8,9.4C54.8,29,50.5,45.3,57.4,53z"/>
	<path fill="#869B3B" d="M84.6,34.4c1.5,2.9,3.9-8.8,3.9-8.8s0.4,3-0.5,8.9c-0.8,5.7-1.1,6.3-2.1,9.6c-1.1,4-2.6,7.3-4.2,9.8
		c-1.7,2.5-1.7,2.5-1.7,2.5s1.6,0,3.8-0.5c1.9-1,3.9-1.8,5.9-2.5c2.3-1.5,4.5-3.8,5.8-7.3c4.7-12.2-5.8-29.6-5.8-29.6
		s-9,6.5-11.9,10.7C77.9,27.3,83.1,31.4,84.6,34.4z"/>
</g>
</svg>
