<?xml version="1.0" encoding="utf-8"?>
<!-- Generator: Adobe Illustrator 16.0.0, SVG Export Plug-In . SVG Version: 6.00 Build 0)  -->
<!DOCTYPE svg PUBLIC "-//W3C//DTD SVG 1.1//EN" "http://www.w3.org/Graphics/SVG/1.1/DTD/svg11.dtd">
<svg version="1.1" id="Layer_1" xmlns="http://www.w3.org/2000/svg" xmlns:xlink="http://www.w3.org/1999/xlink" x="0px" y="0px"
	 width="100px" height="100px" viewBox="0 0 100 100" enable-background="new 0 0 100 100" xml:space="preserve">
<g>
	<path fill="#F396BF" d="M16.138,36.811L16.138,36.811C16.138,36.798,16.138,36.802,16.138,36.811"/>
	<path fill="#F396BF" d="M62.841,49.383V48.56c-0.889,1.371-1.727,2.776-2.517,4.207C61.123,51.613,61.961,50.478,62.841,49.383"/>
	<path fill="#F396BF" d="M58.796,57.355c-0.935,1.619-1.797,3.282-2.58,4.983c1.175-1.642,2.42-3.216,3.729-4.739
		c0.935-1.078,1.898-2.121,2.896-3.141v-3.3C61.372,53.138,60.024,55.213,58.796,57.355"/>
	<path fill="#F396BF" d="M41.337,48.491c-2.669-2.774-5.544-5.35-8.499-7.814c-1.481-1.233-2.997-2.42-4.524-3.59
		c-1.46-1.111-2.942-2.197-4.458-3.229l-0.345,3.172l-0.252,2.166c1.372,0.659,2.731,1.347,4.071,2.071
		c1.889,1.014,3.742,2.104,5.547,3.269c1.81,1.163,3.581,2.392,5.303,3.697c1.721,1.307,3.392,2.692,4.996,4.157
		c1.596,1.478,3.119,3.038,4.55,4.692c0.905,1.043,1.776,2.134,2.597,3.254c-0.526-0.998-1.103-1.969-1.717-2.921
		C46.514,54.198,44.014,51.252,41.337,48.491"/>
	<path fill="#F396BF" d="M57.983,64.048c-0.58,0.834-1.141,1.683-1.667,2.542c-0.521,0.858-1.031,1.751-1.414,2.605l-1.12,2.503
		l-1.11-2.503c-1.684-3.811-4.016-7.323-6.735-10.498c-1.355-1.586-2.812-3.094-4.344-4.528c-1.519-1.439-3.11-2.808-4.76-4.104
		c-3.295-2.601-6.823-4.902-10.451-7.012c-1.823-1.05-3.675-2.04-5.56-2.965c-0.943-0.461-1.891-0.906-2.85-1.329
		c-0.476-0.212-0.959-0.416-1.44-0.617l-0.155-0.063l0.088,0.416l0.429,1.856l0.901,3.714l1.843,7.429l1.853,7.434l1.822,7.441
		c-0.779-2.434-1.574-4.858-2.328-7.295c-0.766-2.437-1.52-4.869-2.256-7.319c-0.737-2.441-1.485-4.88-2.189-7.336l-1.052-3.689
		l-0.505-1.858l-0.24-0.941l-0.114-0.488l-0.05-0.261c-0.017-0.101-0.034-0.171-0.042-0.373L14.5,35.786l0.998,0.221
		c0.147,0.034,0.194,0.048,0.274,0.074l0.202,0.063l0.391,0.13l0.766,0.273c0.505,0.187,1.002,0.387,1.498,0.589
		c0.994,0.404,1.975,0.83,2.946,1.271c0.543,0.247,1.078,0.5,1.617,0.753l0.13-2.149l0.236-3.466l0.021-0.275l0.231,0.147
		c3.283,2.033,6.444,4.261,9.496,6.648c3.056,2.378,5.985,4.933,8.755,7.673c1.822,1.833,3.573,3.756,5.189,5.802
		c-1.485-2.356-3.139-4.613-4.899-6.773c-2.517-3.117-5.261-6.042-8.115-8.849c-1.427-1.404-2.896-2.765-4.39-4.1
		c-1.41-1.267-2.854-2.506-4.331-3.687l-0.211,1.681l-0.277,2.01l0.075-2.027l0.097-2.025l0.013-0.328l0.269,0.196
		c3.245,2.37,6.33,4.953,9.29,7.689c2.958,2.731,5.771,5.644,8.388,8.736c2.597,3.11,5.009,6.414,6.983,10.009
		c0.979,1.802,1.852,3.675,2.541,5.623c0.38,1.069,0.704,2.164,0.956,3.275c0.345-1.086,0.732-2.147,1.137-3.208
		c0.745-1.927,1.574-3.813,2.471-5.657c1.625-3.299,3.48-6.485,5.594-9.485V26.057c0-2.218-1.818-4.032-4.037-4.032H12.097
		c-2.218,0-4.032,1.814-4.032,4.032v46.711c0,2.215,1.814,4.034,4.032,4.034h46.707c2.219,0,4.037-1.819,4.037-4.034V57.952
		c-0.375,0.417-0.745,0.834-1.107,1.263C60.408,60.765,59.153,62.377,57.983,64.048"/>
	<path fill="#F396BF" d="M90.62,38.277c0,0.095-0.009,0.25-0.021,0.394l-0.042,0.453l-0.038,0.303
		c0.369-0.123,0.74-0.242,1.114-0.356L90.62,38.277z"/>
	<path fill="#A9D59F" d="M91.205,37.487c-2.396,0.628-4.743,1.431-7.037,2.375c-0.047,0.259-0.101,0.518-0.164,0.774
		c0.047-0.25,0.084-0.503,0.117-0.755c-1.548,0.64-3.072,1.343-4.563,2.108c-3.729,1.902-7.235,4.24-10.522,6.854
		c-1.641,1.313-3.224,2.703-4.743,4.158c-0.493,0.481-0.977,0.965-1.452,1.457v3.493c0.989-1.102,2.012-2.171,3.063-3.216
		c1.444-1.431,2.955-2.804,4.521-4.099c3.128-2.602,6.504-4.881,10.043-6.848c3.207-1.775,6.574-3.227,10.052-4.363l0.038-0.303
		l0.042-0.453c0.012-0.143,0.021-0.298,0.017-0.391l1.018,0.791c-0.374,0.114-0.745,0.233-1.114,0.356l-0.075,0.625
		c-0.082,0.623-0.169,1.248-0.263,1.875c-0.184,1.252-0.386,2.504-0.585,3.757l-1.229,7.521l-1.245,7.521l-3.703,19.417
		c0.585-2.471,3.661-16.828,4.218-19.312c0.568-2.475,1.128-4.958,1.661-7.441c0.535-2.483,1.083-4.964,1.583-7.462
		c0.249-1.246,0.496-2.494,0.733-3.748c0.117-0.627,0.235-1.254,0.341-1.888l0.155-0.959l0.067-0.494
		c0.017-0.173,0.038-0.335,0.046-0.558l0.025-1.067L91.205,37.487z"/>
	<path fill="#F5E7EE" d="M16.184,37.124l-0.034-0.208c-0.004-0.036-0.008-0.086-0.012-0.105l-0.956,0.806l0.278,0.099l0.354,0.136
		l0.564,0.228l-0.109-0.505L16.184,37.124z"/>
	<path fill="#F5E7EE" d="M59.949,57.6c-1.313,1.523-2.559,3.098-3.733,4.739c-0.034,0.071-0.067,0.142-0.102,0.219
		c-0.656,1.457-1.274,2.946-1.747,4.448c0.182,0.383,0.362,0.762,0.535,1.149h-2.23c0.059-0.13,0.117-0.257,0.181-0.379
		c-0.248-1.826-0.791-3.611-1.52-5.319c-0.303-0.721-0.644-1.429-1.01-2.122c-0.821-1.123-1.692-2.206-2.597-3.254
		c-1.431-1.654-2.959-3.22-4.554-4.692c-1.6-1.465-3.271-2.85-4.992-4.154c-1.722-1.308-3.494-2.537-5.303-3.698
		c-1.806-1.166-3.658-2.256-5.547-3.27c-1.343-0.724-2.699-1.412-4.071-2.071l-0.147,1.284l0.08-1.318
		c-0.539-0.256-1.074-0.507-1.617-0.753c-0.972-0.441-1.953-0.867-2.946-1.271c-0.496-0.202-0.993-0.402-1.498-0.587l-0.766-0.273
		l-0.391-0.132l-0.202-0.063c-0.08-0.026-0.127-0.042-0.274-0.074L14.5,35.786l0.038,1.025c0.008,0.201,0.025,0.271,0.042,0.373
		l0.05,0.261l0.114,0.486l0.24,0.945l0.505,1.856l1.052,3.689c0.704,2.456,1.452,4.895,2.189,7.336
		c0.736,2.45,1.49,4.883,2.256,7.319c0.753,2.437,1.549,4.861,2.328,7.295l-1.822-7.441l-1.853-7.434L17.8,44.065l-0.906-3.714
		l-0.429-1.855l-0.088-0.416l-0.564-0.228l-0.354-0.136l-0.278-0.099l0.956-0.806c0-0.011,0-0.013,0,0
		c0.004,0.019,0.008,0.069,0.012,0.105l0.034,0.208l0.088,0.451l0.105,0.505l0.155,0.063c0.48,0.202,0.964,0.404,1.44,0.617
		c0.959,0.423,1.906,0.867,2.85,1.33c1.885,0.924,3.737,1.914,5.56,2.964c3.628,2.11,7.155,4.411,10.451,7.012
		c1.65,1.296,3.241,2.665,4.76,4.107c1.532,1.432,2.989,2.939,4.344,4.525c2.719,3.175,5.051,6.688,6.735,10.498l1.11,2.503
		l1.12-2.503c0.383-0.854,0.893-1.747,1.414-2.605c0.526-0.859,1.087-1.708,1.667-2.542c1.17-1.671,2.425-3.283,3.75-4.833
		c0.362-0.429,0.732-0.846,1.107-1.263v-3.493C61.843,55.479,60.879,56.521,59.949,57.6"/>
	<path fill="#F396BF" d="M84.168,34.677c0.003,0.063,0.008,0.124,0.017,0.186c0.055-0.017,0.108-0.036,0.168-0.053L84.168,34.677z"
		/>
	<path fill="#A9D59F" d="M65.51,47.811c2.524-2.951,5.375-5.617,8.526-7.858c3.103-2.193,6.512-3.965,10.148-5.09
		c-0.009-0.062-0.014-0.125-0.017-0.186l0.185,0.133c-0.06,0.017-0.113,0.036-0.168,0.053c0.097,0.926,0.122,1.86,0.102,2.795
		c-0.017,0.742-0.068,1.485-0.165,2.224c0.017-0.006,0.03-0.013,0.047-0.019c0.135-0.724,0.227-1.458,0.287-2.197
		c0.075-1.002,0.075-2.01,0.003-3.018l-0.013-0.177l-0.173,0.046c-3.771,0.973-7.378,2.625-10.649,4.809
		c-3.282,2.169-6.228,4.847-8.871,7.789c-0.657,0.739-1.297,1.494-1.911,2.269v1.776C63.69,50.01,64.579,48.895,65.51,47.811"/>
	<path fill="#F5E7EE" d="M58.329,56.656c-0.88,1.818-1.688,3.679-2.408,5.568c-0.143,0.375-0.282,0.754-0.416,1.132
		c0.172-0.251,0.345-0.509,0.521-0.757c0.063-0.093,0.126-0.178,0.189-0.261c0.783-1.701,1.646-3.364,2.58-4.983
		c1.229-2.143,2.576-4.218,4.045-6.196v-1.776c-0.88,1.095-1.718,2.23-2.517,3.383C59.621,54.047,58.956,55.34,58.329,56.656"/>
	<path fill="#F5E7EE" d="M49.085,56.677c-0.572-1.064-1.191-2.112-1.835-3.135c-1.612-2.046-3.367-3.97-5.189-5.802
		c-2.77-2.74-5.699-5.295-8.755-7.673c-3.051-2.387-6.213-4.615-9.496-6.648l-0.231-0.147l-0.021,0.275l-0.236,3.466l-0.13,2.149
		c0.021,0.011,0.046,0.023,0.067,0.034l0.252-2.166l0.345-3.172c-0.071-0.048-0.147-0.101-0.218-0.152l0.252-0.128l-0.034,0.28
		c1.516,1.031,2.997,2.117,4.458,3.229c1.528,1.17,3.047,2.357,4.524,3.59c2.955,2.464,5.83,5.04,8.499,7.814
		c2.677,2.761,5.181,5.708,7.269,8.923c0.614,0.952,1.195,1.923,1.717,2.921c0.396,0.538,0.774,1.086,1.145,1.643
		C50.824,60.149,50.003,58.383,49.085,56.677"/>
	<path fill="#F5E7EE" d="M23.638,33.706c0.071,0.051,0.147,0.104,0.223,0.154l0.029-0.285L23.638,33.706z"/>
	<path fill="#F396BF" d="M84.004,40.637c0.063-0.256,0.117-0.516,0.164-0.774c-0.014,0.006-0.03,0.013-0.047,0.019
		C84.088,40.134,84.051,40.386,84.004,40.637"/>
	<path fill="#F5E7EE" d="M55.505,63.356c-0.43,1.196-0.825,2.408-1.149,3.629c0.004,0.009,0.008,0.017,0.012,0.021
		c0.477-1.502,1.091-2.991,1.747-4.448c0.029-0.077,0.067-0.147,0.102-0.219c-0.063,0.083-0.126,0.168-0.189,0.261
		C55.85,62.848,55.677,63.105,55.505,63.356"/>
	<path fill="#F5E7EE" d="M23.112,40.479l0.147-1.284c-0.021-0.011-0.046-0.021-0.067-0.034L23.112,40.479z"/>
	<path fill="#F5E7EE" d="M51.468,61.978c-0.37-0.557-0.749-1.104-1.145-1.643c0.366,0.693,0.703,1.401,1.01,2.122
		c0.729,1.708,1.271,3.493,1.52,5.319c0-0.004,0-0.009,0.004-0.009C52.63,65.794,52.141,63.853,51.468,61.978"/>
	<path fill="#A9D59F" d="M64.436,46.21c2.324-3.288,4.987-6.333,8.014-8.951c2.98-2.553,6.339-4.684,10.027-6.019
		c0-0.078-0.005-0.156-0.005-0.234l0.207,0.158c-0.068,0.025-0.136,0.05-0.202,0.076c0.007,0.577,0.021,1.151,0.045,1.728
		c0.025,0.652,0.063,1.304,0.105,1.957c0.017-0.655,0.042-1.305,0.072-1.957l0.092-1.956l0.008-0.225l-0.219,0.067
		c-3.858,1.181-7.453,3.226-10.61,5.798c-3.178,2.563-5.935,5.629-8.375,8.917c-0.258,0.348-0.506,0.701-0.754,1.054v1.937
		C63.354,47.767,63.885,46.982,64.436,46.21"/>
	<path fill="#F396BF" d="M82.472,31.006c0,0.078,0.005,0.156,0.005,0.234c0.066-0.026,0.134-0.051,0.202-0.076L82.472,31.006z"/>
	<path fill="#F5E7EE" d="M52.436,61.959c0.45,1.045,0.838,2.131,1.137,3.237c0.021-0.072,0.042-0.147,0.067-0.223
		c-0.252-1.111-0.576-2.206-0.956-3.275c-0.689-1.948-1.562-3.821-2.541-5.623c-1.975-3.595-4.387-6.898-6.983-10.009
		c-2.618-3.093-5.43-6.002-8.388-8.736c-2.959-2.736-6.04-5.32-9.29-7.689l-0.266-0.196l-0.017,0.328l-0.097,2.025l-0.075,2.027
		l0.277-2.01l0.211-1.681c-0.08-0.065-0.161-0.133-0.245-0.196l0.286-0.133l-0.041,0.329c1.477,1.181,2.92,2.42,4.331,3.687
		c1.494,1.334,2.963,2.696,4.39,4.1c2.854,2.807,5.598,5.732,8.115,8.849c1.76,2.16,3.414,4.417,4.899,6.768
		c0.817,1.039,1.6,2.101,2.332,3.208C50.668,58.39,51.645,60.124,52.436,61.959"/>
	<path fill="#F5E7EE" d="M54.776,61.766c-0.404,1.058-0.792,2.122-1.137,3.208c0.021,0.075,0.038,0.159,0.055,0.235
		c0.404-1.077,0.854-2.13,1.33-3.173c0.834-1.814,1.76-3.578,2.762-5.296c0.799-1.355,1.645-2.681,2.538-3.974
		c0.79-1.431,1.628-2.836,2.517-4.207v-1.937c-2.113,3-3.969,6.181-5.594,9.482C56.351,57.952,55.521,59.839,54.776,61.766"/>
	<path fill="#F5E7EE" d="M53.623,65.395c0.025-0.06,0.046-0.127,0.071-0.186c-0.017-0.076-0.033-0.155-0.055-0.235
		c-0.021,0.075-0.047,0.147-0.067,0.223C53.59,65.26,53.606,65.326,53.623,65.395"/>
	<path fill="#F5E7EE" d="M25.271,29.938c0.084,0.063,0.165,0.13,0.245,0.196l0.041-0.329L25.271,29.938z"/>
	<path fill="#F5E7EE" d="M53.699,65.692c-0.026-0.097-0.047-0.197-0.076-0.298c-0.009,0.033-0.021,0.059-0.033,0.092
		C53.627,65.554,53.661,65.626,53.699,65.692"/>
	<path fill="#F5E7EE" d="M53.699,65.692c0.046,0.089,0.093,0.174,0.139,0.266c0.004-0.008,0.004-0.008,0.004-0.012
		c-0.047-0.249-0.093-0.493-0.147-0.737c-0.025,0.059-0.046,0.122-0.071,0.186C53.652,65.495,53.673,65.596,53.699,65.692"/>
	<path fill="#F5E7EE" d="M53.623,65.395c-0.017-0.068-0.033-0.135-0.051-0.198c-0.017,0.055-0.038,0.105-0.055,0.165
		c0.025,0.042,0.046,0.084,0.072,0.125C53.602,65.453,53.614,65.428,53.623,65.395"/>
	<path fill="#F5E7EE" d="M51.468,61.978c0.732,1.093,1.418,2.221,2.05,3.384c0.017-0.06,0.038-0.11,0.055-0.165
		c-0.303-1.106-0.687-2.192-1.137-3.237c-0.791-1.835-1.771-3.569-2.854-5.214c-0.732-1.107-1.515-2.169-2.332-3.208
		c0.644,1.031,1.263,2.075,1.835,3.14C50.003,58.383,50.824,60.154,51.468,61.978"/>
	<path fill="#F5E7EE" d="M54.255,65.265c0.403-0.653,0.82-1.285,1.25-1.908c0.134-0.378,0.273-0.757,0.416-1.132
		c0.72-1.89,1.528-3.75,2.408-5.568c0.627-1.316,1.292-2.609,1.995-3.89c-0.894,1.293-1.739,2.618-2.538,3.974
		c-1.002,1.718-1.928,3.481-2.762,5.296c-0.476,1.043-0.926,2.096-1.33,3.173c0.055,0.244,0.101,0.488,0.147,0.737
		C53.98,65.714,54.115,65.49,54.255,65.265"/>
	<path fill="#F5E7EE" d="M53.842,65.946c0,0.004,0,0.004-0.004,0.012c0.004,0.005,0.008,0.012,0.013,0.017
		C53.851,65.967,53.846,65.958,53.842,65.946"/>
	<path fill="#F5E7EE" d="M53.782,66.052c-0.307,0.521-0.602,1.051-0.879,1.624l1.187,0.075
		C54.015,67.18,53.909,66.615,53.782,66.052"/>
	<path fill="#F5E7EE" d="M54.09,67.751l-1.187-0.075c-0.005,0.009-0.009,0.012-0.013,0.017l1.229,0.072
		c-0.066-0.604-0.159-1.196-0.269-1.79c-0.005-0.005-0.009-0.012-0.013-0.017c-0.017,0.025-0.038,0.059-0.056,0.094
		C53.909,66.615,54.015,67.18,54.09,67.751"/>
	<path fill="#F5E7EE" d="M54.119,67.768l-1.229-0.075c-0.013,0.025-0.025,0.051-0.038,0.075c0.009,0.047,0.013,0.094,0.021,0.139
		l1.203,0.072c0.063-0.219,0.127-0.446,0.189-0.665c0.03-0.11,0.06-0.219,0.089-0.328c-0.164-0.337-0.332-0.673-0.505-1.011
		C53.96,66.568,54.053,67.161,54.119,67.768"/>
	<path fill="#F5E7EE" d="M53.842,65.946c0.004,0.012,0.009,0.021,0.009,0.028c0.173,0.338,0.341,0.674,0.505,1.011
		c0.324-1.221,0.72-2.433,1.149-3.629c-0.426,0.623-0.847,1.255-1.25,1.908C54.115,65.49,53.98,65.714,53.842,65.946"/>
	<path fill="#F5E7EE" d="M52.882,67.692c0.186-0.792,0.4-1.565,0.636-2.331c-0.632-1.163-1.317-2.291-2.05-3.384
		c0.673,1.875,1.157,3.816,1.389,5.79c0.009-0.024,0.021-0.05,0.034-0.075H52.882z"/>
	<path fill="#F5E7EE" d="M53.838,65.958c-0.046-0.092-0.093-0.177-0.139-0.266c0.029,0.122,0.059,0.24,0.083,0.359
		C53.8,66.017,53.821,65.983,53.838,65.958"/>
	<path fill="#F5E7EE" d="M52.891,67.676h0.013c0.277-0.573,0.572-1.103,0.879-1.624c-0.024-0.119-0.054-0.237-0.083-0.359
		c-0.034-0.066-0.072-0.139-0.109-0.206C53.328,66.202,53.093,66.926,52.891,67.676"/>
	<path fill="#F5E7EE" d="M52.891,67.692c0.004-0.008,0.008-0.008,0.013-0.017h-0.013c0.202-0.75,0.438-1.474,0.699-2.189
		c-0.026-0.041-0.047-0.083-0.072-0.125c-0.235,0.766-0.45,1.539-0.636,2.331H52.891z"/>
</g>
</svg>
