<?xml version="1.0" encoding="utf-8"?>
<!-- Generator: Adobe Illustrator 18.1.0, SVG Export Plug-In . SVG Version: 6.00 Build 0)  -->
<svg version="1.1" id="Layer_1" xmlns="http://www.w3.org/2000/svg" xmlns:xlink="http://www.w3.org/1999/xlink" x="0px" y="0px"
	 viewBox="0 0 150 150" enable-background="new 0 0 150 150" xml:space="preserve">
<g>
	<path fill="none" d="M76.6,97.2c-5.1,0-9.4-3.6-10.4-8.4c-2.7-0.7-5.3-1.7-7.7-2.9c-0.1,2.6,0.7,6,4.4,9.5
		c8.2,7.7,23.8,6.8,28.7-5.7c0.4-1,0.6-1.9,0.7-2.8c-1.7,0.7-3.4,1.3-5.2,1.8C86,93.5,81.7,97.2,76.6,97.2z"/>
	<path fill="#FFCA63" d="M87,88.7c1.8-0.5,3.5-1.1,5.2-1.8c0,0,0-0.1,0-0.1C90.5,87.5,88.8,88.1,87,88.7C87,88.6,87,88.7,87,88.7z"
		/>
	<path fill="#FFCA63" d="M66.1,88.7c-2.7-0.7-5.3-1.8-7.7-3c0,0.1,0,0.1,0,0.2C60.8,87.1,63.4,88.1,66.1,88.7
		C66.1,88.8,66.1,88.7,66.1,88.7z"/>
	<path fill="#FFCA63" d="M116.3,50.2c0-22-17.9-39.9-39.9-39.9S36.5,28.2,36.5,50.2c0,12,5.3,22.7,13.6,30c0-0.1,0.1-0.2,0.1-0.3
		c-7.6-7-12.4-17.1-12.4-28.3C37.8,30.3,55.1,13,76.4,13S115,30.3,115,51.6c0,11.7-5.2,22.2-13.5,29.3c0,0.1,0.1,0.2,0.1,0.3
		C110.5,73.9,116.3,62.7,116.3,50.2z"/>
	<path fill="#FFECC7" d="M60,68.5v13.2c0,0-1.2,1.6-1.3,4c2.4,1.3,4.4,2.3,7.1,3C65.7,88,65,87.2,65,86.5V82h23v4.5
		c0,0.7-0.4,1.5-0.6,2.1c1.8-0.5,3.3-1.1,5-1.9c0.6-5.6-2.7-9.8,6.4-13.3c0.3,0.1,1.6,2.9,2.7,7.4c8.3-7.1,13.5-17.6,13.5-29.3
		C115,30.3,97.7,13,76.4,13S37.9,30.3,37.9,51.6c0,11.2,5.1,21.3,12.7,28.3C53.8,72.1,60,68.5,60,68.5z M75.9,25.6
		c13.6,0,24.5,11,24.5,24.6c0,8.3-4.4,15.6-10.4,20V79H63v-8C56,66.7,51.3,59,51.3,50.1C51.3,36.6,62.3,25.6,75.9,25.6z"/>
	<path fill="#FFB602" d="M63,71v8h27v-8.9c6-4.4,10.4-11.8,10.4-20c0-13.6-11-24.6-24.5-24.6c-13.6,0-24.6,11-24.6,24.6
		C51.3,59,56,66.7,63,71z M96,45.4c1.3,1.9,2.6,7.1-1.3,7.1c-3.9,0-2.9-2.9-3.6-7.1C91.1,45.4,94.7,43.4,96,45.4z M93,38.2
		c1.6,2.9-2.6,4.9-4.2,2.9c-1.6-1.9-1-6.8-3.6-9.7C85.2,31.4,89.8,32.4,93,38.2z M75.8,45.7l6.8-5.1l-1.9,8.7l7.5,4.5l-9.1,1.3
		l-2.9,20.8l-3.6-19.1l-9.3-1.1l6.4-4.8l-2.2-9.8L75.8,45.7z"/>
	<path fill="#576A87" d="M76.5,97.2C81.7,97.2,88,94,88,86.5V82H65v4.5C65,95.3,71.4,97.2,76.5,97.2z M84.3,88.2
		c0,0-0.6,3.6-2.6,3.6c-1.9,0,0.6-4.5,0.6-4.5S84.3,86.3,84.3,88.2z"/>
	<path fill="#E18861" d="M61.5,133.2c-0.1-0.1-0.2-0.3-0.3-0.4C61.3,132.9,61.4,133,61.5,133.2z"/>
	<path fill="#E18861" d="M62.3,134c-0.1-0.1-0.2-0.3-0.4-0.4C62,133.8,62.1,133.9,62.3,134z"/>
	<path fill="#E18861" d="M63.1,134.8c-0.2-0.1-0.3-0.3-0.5-0.4C62.8,134.5,62.9,134.7,63.1,134.8z"/>
	<path fill="#E18861" d="M96.8,112c-0.3,0.5-0.5,0.9-0.8,1.4C96.3,112.9,96.6,112.4,96.8,112z"/>
	<path fill="#E18861" d="M93.8,116.7c-0.2,0.3-0.4,0.5-0.6,0.8C93.4,117.2,93.6,116.9,93.8,116.7z"/>
	<path fill="#E18861" d="M44.3,123.7c0,0-0.5-0.3-1.1-0.8C43.8,123.4,44.3,123.7,44.3,123.7z"/>
	<path fill="#E18861" d="M60.8,132.1c-0.1-0.1-0.1-0.2-0.2-0.3C60.7,131.9,60.8,132,60.8,132.1z"/>
	<path fill="#E18861" d="M95.4,114.3c-0.2,0.4-0.5,0.8-0.7,1.1C95,115,95.2,114.7,95.4,114.3z"/>
	<path fill="#E18861" d="M99.9,105.4c-0.2,0.6-0.5,1.3-0.8,1.9C99.4,106.7,99.7,106,99.9,105.4z"/>
	<path fill="#E18861" d="M99.1,107.5c-0.3,0.6-0.5,1.2-0.8,1.8C98.5,108.7,98.8,108.1,99.1,107.5z"/>
	<path fill="#E18861" d="M65.7,136.6c-0.9-0.4-1.4-1-2.1-1.5c8.6,7,28.5,2.7,28.5,2.7s0-18.5,0-18.1c-2,0.1-26,17-26,17L65.7,136.6z
		"/>
	<path fill="#E18861" d="M98,109.7c-0.3,0.5-0.5,1.1-0.8,1.6C97.5,110.8,97.8,110.3,98,109.7z"/>
	<path fill="#E18861" d="M98.7,73.4c-9.1,3.6-5.9,7.7-6.5,13.3c0,0,0,0.1,0,0.1c-0.1,0.9-0.3,1.8-0.7,2.8
		c-4.9,12.5-20.6,13.4-28.7,5.7c-4.7-4.5-4.1-9.6-4.1-9.7c0.1-2.4,1.3-4,1.3-4V68.5c0,0-6.2,3.6-9.4,11.4c0,0.1-0.2,0.2-0.3,0.3
		c-0.2,0.5-0.5,1-0.6,1.5c-3,12.9,6,19.7,6,19.7s0.7,2.6-0.8,1.9c-9.1-4.2-8.3-17-7.9-18.1c-9.5,12-1,22,2.3,24.2
		c-8.7-3.3-8.3-14.7-8.3-14.7c-6.5,15.5,4.1,23,4.9,23.4c-6.8-0.8-7.9-10.2-7.9-10.2c-3.3,7.3,2.6,13,5.3,15l15.2-22.3
		c0,0,12.3,11,28.9,7.1c14-3.9,14.6-12.3,14.6-12.3s0.1,3.4-1.2,8.1c-0.2,0.6-0.4,1.3-0.7,2c3.5-9.5,2.9-18.2,1.6-24.2
		c0-0.1-0.1-0.2-0.1-0.3C100.4,76.3,99,73.5,98.7,73.4z"/>
	<path fill="#FFFFFE" d="M81.7,91.8c1.9,0,2.6-3.6,2.6-3.6c0-1.9-1.9-1-1.9-1S79.7,91.8,81.7,91.8z"/>
	<path fill="#CF7046" d="M101.8,95.3c0,0-0.6,8.4-14.6,12.3c-16.6,3.9-28.9-7.1-28.9-7.1l-15.2,22.3l0,0c0,0,0,0,0,0
		c0.7,0.5,1.1,0.8,1.1,0.8s16.3,7,15.9,7c0.1,0.4,0.3,0.7,0.5,1.1c0.1,0.1,0.1,0.2,0.2,0.3c0.1,0.2,0.2,0.4,0.4,0.6
		c0.1,0.1,0.2,0.3,0.3,0.4c0.1,0.2,0.2,0.3,0.4,0.5c0.1,0.1,0.2,0.3,0.4,0.4c0.1,0.1,0.2,0.2,0.4,0.4c0.2,0.1,0.3,0.3,0.5,0.4
		c0.1,0.1,0.2,0.1,0.2,0.2c0.7,0.6,1.5,1.1,2.4,1.5l0.1,0c0,0,25.3-16.9,25.8-17c0.6-0.7,1.1-1.4,1.7-2.1c0.2-0.3,0.4-0.5,0.6-0.8
		c0.3-0.4,0.6-0.8,0.9-1.3c0.3-0.4,0.5-0.8,0.7-1.1c0.2-0.3,0.4-0.6,0.6-0.9c0.3-0.5,0.5-0.9,0.8-1.4c0.1-0.2,0.3-0.4,0.4-0.6
		c0.3-0.5,0.6-1.1,0.8-1.6c0.1-0.1,0.1-0.3,0.2-0.4c0.3-0.6,0.6-1.2,0.8-1.8c0-0.1,0.1-0.1,0.1-0.2c0.3-0.6,0.5-1.3,0.8-1.9
		c0,0,0,0,0-0.1c0.2-0.7,0.5-1.3,0.7-2C101.9,98.7,101.8,95.3,101.8,95.3z"/>
</g>
</svg>
