<?xml version="1.0" encoding="utf-8"?>
<!-- Generator: Adobe Illustrator 18.1.0, SVG Export Plug-In . SVG Version: 6.00 Build 0)  -->
<svg version="1.1" id="Layer_1" xmlns="http://www.w3.org/2000/svg" xmlns:xlink="http://www.w3.org/1999/xlink" x="0px" y="0px"
	 viewBox="0 0 150 150" enable-background="new 0 0 150 150" xml:space="preserve">
<g>
	<path fill="none" d="M27.6,98.9c0.2-0.1,0.4-0.2,0.6-0.3c-0.3-0.4-0.6-0.8-0.9-1.1C27.4,97.8,27.5,98.3,27.6,98.9z"/>
	<path fill="none" d="M28.7,97c0.1,0.4,0.2,0.8,0.4,1.3c0.1,0,0.1,0,0.2-0.1c0-0.1,0-0.2,0-0.2c-0.2-0.7-0.5-1.5-0.8-2.3
		C28.5,96.1,28.6,96.5,28.7,97z"/>
	<path fill="none" d="M17.9,104c0.1-0.1,0.2-0.1,0.3-0.2c-0.3-0.9-0.7-1.9-1.1-3C17.3,101.8,17.6,103,17.9,104z"/>
	<path fill="none" d="M25.3,99.9c0.1,0,0.2-0.1,0.2-0.1c-0.2-0.2-0.3-0.4-0.4-0.5C25.1,99.5,25.2,99.7,25.3,99.9z"/>
	<path fill="none" d="M135,103.9c0.3-1.1,0.6-2.3,0.8-3.4c-0.4,1.1-0.8,2.3-1.1,3.2C134.8,103.7,134.9,103.8,135,103.9z"/>
	<path fill="none" d="M127.7,99.3c0-0.1,0.1-0.2,0.1-0.3c-0.1,0.1-0.1,0.2-0.2,0.2C127.7,99.2,127.7,99.2,127.7,99.3z"/>
	<path fill="none" d="M125,97.9c-0.1,0.1-0.1,0.2-0.2,0.3c-0.1,0.1-0.1,0.2-0.2,0.3c0.2,0.1,0.3,0.1,0.5,0.2c0-0.1,0-0.1,0-0.2
		C125,98.3,125,98.1,125,97.9z"/>
	<path fill="#FFC03B" d="M117.2,93c-0.1,0.8-0.2,1.6-0.4,2.4c0.2-0.6,0.6-1.6,1-2.7C117.6,92.8,117.4,92.9,117.2,93z"/>
	<path fill="#FFC03B" d="M120.1,95.2c0.8-1.9,1.5-3.8,1.5-3.8c-0.1,0.8-0.4,2.1-0.8,3.2c0.3-0.2,0.6-0.3,0.9-0.4
		c0,0-0.5,0.5-1.1,1.2c-0.2,0.5-0.3,0.9-0.4,1.3c0.2,0.1,0.4,0.2,0.7,0.2c0.7-1.6,1.8-4.7,2.1-5.6c-0.2-0.5-0.3-1-0.5-1.5
		c-0.2-0.5-0.3-1-0.6-1.4c-0.1,1,0,2.1-0.9,2.8c-0.3,0.2-0.7,0.4-1,0.5c-0.2,1.2-0.5,3-0.8,4.4C119.4,95.9,119.7,95.5,120.1,95.2z"
		/>
	<path fill="#FFC03B" d="M118.6,92.3c-0.1,0.7-0.3,2.1-0.6,3.8c0.1,0,0.2,0.1,0.4,0.1c0.5-1.5,1-3.1,1.3-4.2
		C119.3,92,119,92.1,118.6,92.3C118.6,92.3,118.6,92.3,118.6,92.3z"/>
	<path fill="#FFC03B" d="M122.2,97.6c0.5-1,1.1-2.5,1.6-3.8c-0.1-0.2-0.2-0.4-0.3-0.6c-0.4,1-1.1,2.7-1.6,4.3
		C122.1,97.5,122.2,97.5,122.2,97.6z"/>
	<path fill="#FFC03B" d="M124.1,94.2c0,0.2-0.1,0.3-0.1,0.5c0.1-0.1,0.1-0.2,0.2-0.3C124.1,94.3,124.1,94.2,124.1,94.2z"/>
	<path fill="#FFC03B" d="M119.4,88.7c-0.1,0.3-0.1,0.7-0.2,1C119.3,89.4,119.4,89,119.4,88.7z"/>
	<path fill="#FFC03B" d="M123.5,92.9c-0.2-0.4-0.3-0.8-0.5-1.1c0,0,0,0,0,0c-0.1,1-0.5,2.6-1,4.1C122.4,94.7,123,93.7,123.5,92.9z"
		/>
	<path fill="#FFC03B" d="M103.2,92.4c0.1-0.3,0.2-0.6,0.2-1c-0.1-0.9-0.3-1.6-0.3-1.6c0.2,0.2,0.4,0.5,0.5,0.8
		c0.1-0.2,0.1-0.4,0.2-0.6c0,0,0,0,0-0.1c-0.2-0.4-0.4-0.8-0.6-1.1c-0.3,1.2-0.5,2.5-0.7,3.5C102.7,92.3,102.9,92.4,103.2,92.4z"/>
	<path fill="#FFC03B" d="M101,85.2c0,0.4,0.1,1,0.1,1.6c0,0,0.1,0,0.1-0.1c0,0,0,0.1-0.1,0.2c0,0.6,0,1.2-0.1,1.9
		c0.3-0.8,0.6-1.6,0.8-2.2c-0.2-0.4-0.5-0.8-0.7-1.3C101.1,85.3,101,85.2,101,85.2z"/>
	<path fill="#FFC03B" d="M101.2,92.1c0.4-1.9,0.8-4,1-4.9c-0.1-0.2-0.2-0.3-0.3-0.5c-0.5,1.6-0.8,3.8-1,5.4
		C101,92.1,101.1,92.1,101.2,92.1z"/>
	<path fill="#FFC03B" d="M89,84.9c0.3,1,0.3,2.6,0.3,4.2c0.3-1.8,0.6-3.8,1.1-4.6c0,0-0.4,4.2-0.5,6.2c0.2,0,0.5,0,0.7,0.1
		c0-0.3,0.1-0.8,0.1-1.3c-0.3-0.9-0.5-1.6-0.5-1.6c0.2,0.2,0.4,0.4,0.6,0.7c0.2-1.2,0.4-2.5,0.7-3.3c0,0-0.2,1.9-0.3,4
		c0.2,0.5,0.4,1,0.5,1.5c0.5-2.1,1.2-5,1.5-5.4c0,0-0.5,3-0.8,5.5c0.1,0,0.3,0,0.4,0c0.4-1.6,0.8-3,1-3.6c0-0.2,0.1-0.3,0.1-0.4
		c0,0,0,0.1-0.1,0.4c-0.2,0.7-0.3,2.2-0.5,3.7c0,0,0,0,0,0c0.3-3.5,1.4-8,1.8-9.5c0-0.2,0.1-0.4,0.1-0.5c0,0,0,0.2-0.1,0.5
		c-0.3,1.8-0.8,7.2-1,9.3c0.2-0.8,0.4-1.7,0.7-2.4c-0.1-0.2-0.1-0.4-0.1-0.4c0.1,0.1,0.1,0.1,0.2,0.2c0.2-0.6,0.4-1.2,0.6-1.5
		c0,0-0.1,0.9-0.3,2c0.2,0.4,0.5,0.8,0.6,1.2c0.1-0.2,0.3-0.5,0.5-0.7c0.4-1.7,0.8-3.2,0.8-3.2l-0.3,2.7c0.2-0.2,0.4-0.3,0.6-0.4
		c0,0-0.3,0.5-0.7,1.2l-0.2,1.8c0.1,0,0.1,0,0.2,0c0.3-1.1,0.7-2.2,1.2-2.9c-0.2-0.8-0.3-1.3-0.3-1.3c0.6,0.6,1,1.5,1.3,2.4
		c0.3-0.9,0.6-1.7,0.8-2.1c0,0-0.1,0.9-0.3,2c0.4-0.9,0.8-1.7,1.3-2.2c0.2-0.9,0.3-1.7,0.3-2.4c-0.4-1.3,0.4-2.7,0.6-4.1
		c0.1-0.9,0.2-1.7-0.3-2.6c-0.4-0.7-1.3-1-1.7-1.7c-0.1-0.2-0.1-0.3-0.2-0.4c-0.3-0.1-0.4,0.2-0.5,0.3c-0.2,0.3-0.4,0.7-0.5,1.1
		c-0.2,0.5-0.7,0.8-1,1.2c-0.6,0.1-1.2,0.1-1.8,0.4c-1.3,0.7-2.4,1.3-3.6,1.9c-0.6,0.3-1,0.7-1.5,1.2c-0.6,0.8-1.1,1.6-1.5,2.5
		c-0.2,0.4-0.3,0.8-0.4,1.2c-0.1,1.6-0.2,3.3-0.2,4.6c0.1,0,0.2,0,0.3,0C88.8,87.9,89,84.9,89,84.9z"/>
	<path fill="#FFC03B" d="M102.8,88.3c-0.2-0.3-0.3-0.6-0.5-0.8c0,1-0.1,2.2-0.3,3.4C102.3,90,102.6,89.1,102.8,88.3z"/>
	<path fill="#FFC03B" d="M104.3,92.6c0.1-0.2,0.1-0.3,0.2-0.5c-0.2-0.5-0.3-1-0.4-1.5c0,0.2-0.1,0.5-0.1,0.7
		c0.1,0.4,0.2,0.8,0.2,1.2C104.2,92.6,104.3,92.6,104.3,92.6z"/>
	<path fill="#FFC03B" d="M105.6,89.4c0.4-0.8,0.7-1.5,0.8-1.6c0,0-0.3,0.9-0.6,2c0.2,0.3,0.3,0.6,0.5,0.9c0.2-0.4,0.3-0.7,0.4-1
		c0.1-0.2,0.1-0.3,0.2-0.4c0,0-0.1,0.1-0.2,0.4c-0.1,0.3-0.2,0.7-0.4,1.1c0,0,0,0.1,0.1,0.1c0.8-2.8,2-5.7,2.4-6.8
		c0.1-0.2,0.1-0.4,0.2-0.5c0,0-0.1,0.2-0.2,0.5c-0.5,1.4-1.4,5.3-1.9,7.8c0,0.1,0.1,0.2,0.1,0.3c0.2-0.4,0.4-0.9,0.6-1.3
		c0-0.3-0.1-0.4-0.1-0.4c0.1,0.1,0.1,0.2,0.1,0.2c0.3-0.6,0.6-1.1,0.8-1.4c0,0-0.3,0.9-0.6,1.9c0.2,0.4,0.3,0.9,0.5,1.3
		c0.2-0.2,0.4-0.4,0.5-0.6c0.6-1.6,1.2-3.1,1.2-3.1l-0.6,2.6c0.2-0.2,0.4-0.3,0.7-0.4c0,0-0.4,0.5-0.9,1.1l-0.3,1.3
		c0.1,0,0.2,0,0.2,0.1c0.4-0.9,0.8-1.7,1.3-2.3c-0.1-0.8-0.2-1.3-0.2-1.3c0.5,0.7,0.8,1.6,1,2.5c0.4-0.9,0.8-1.6,1.1-2
		c0,0-0.2,0.6-0.4,1.5c0.3-0.2,0.5-0.3,0.8-0.3c0.3-1,0.5-1.8,0.5-1.8c0,0.5,0,1.2-0.1,1.9c0.1,0,0.1,0.1,0.2,0.1
		c0.6-0.6,1.2-1.1,1.9-1.4c0,0-0.4,0.4-0.9,1c0,0.1,0,0.3,0,0.4c0.1-0.1,0.3-0.2,0.4-0.3c0-0.1,0-0.1,0-0.1c0,0,0,0.1,0.1,0.1
		c0,0,0.1-0.1,0.1-0.1c0.2-0.1,0.3-0.1,0.5-0.2l0.6-1.7c0,0-0.1,0.7-0.3,1.6c0.8-0.3,1.5-0.5,2.3-0.8c0.1-0.1,0.3-0.1,0.4-0.2
		c0.3-0.8,0.6-1.6,0.8-2.3c-0.1-1.3-0.8-2.5-1.2-3.7c-0.2-0.5-0.3-1-0.4-1.6c-2.2-0.2-4.5-0.1-6.7-0.7c-1.9-0.5-3.2-2-5.1-2.3
		c-0.1,0-0.1,0.2-0.1,0.3c-0.6,1.5-0.6,2.9-1,4.4c-0.2,0.5-0.3,1-0.3,1.5C104.6,87.2,105,88.3,105.6,89.4z"/>
	<path fill="#FFC03B" d="M116,95.5c0.2-0.5,0.3-1.2,0.5-1.8c-0.2,0.3-0.5,0.7-0.8,1c0,0.2,0,0.4,0,0.6
		C115.8,95.4,115.9,95.4,116,95.5z"/>
	<path fill="#FFC03B" d="M87.1,88.6c-0.1,0-0.1,0.1-0.2,0.1c-0.1,0.6-0.2,1.2-0.3,1.7c0.1,0,0.2,0,0.3,0C87,89.9,87,89.3,87.1,88.6z
		"/>
	<path fill="#FFC03B" d="M98.2,91.6c0.1-0.2,0.1-0.4,0.2-0.7c-0.1-0.8-0.3-1.5-0.5-2.2c-0.2,0.6-0.4,1.6-0.6,2.7c0,0,0,0,0.1,0
		c0.1-0.2,0.3-0.5,0.5-0.7c0,0-0.1,0.3-0.2,0.8C97.8,91.6,98,91.6,98.2,91.6z"/>
	<path fill="#FFC03B" d="M124.9,97C124.9,97,124.9,97,124.9,97C124.9,97,124.9,97,124.9,97C124.9,97,124.9,97,124.9,97z"/>
	<path fill="#FFC03B" d="M95.1,89.5c-0.1,0.6-0.2,1.2-0.3,1.7c0.1,0,0.2,0,0.4,0c0.1-0.1,0.1-0.3,0.2-0.5
		C95.3,90.3,95.2,89.9,95.1,89.5z"/>
	<path fill="#FFC03B" d="M123.8,98.2c0.2-0.5,0.3-1.1,0.4-1.5c0.1-0.5,0.2-0.9,0.3-1.3c0,0,0,0,0,0c-0.4,1-0.7,1.9-1,2.7
		C123.6,98.1,123.7,98.1,123.8,98.2z"/>
	<path fill="#FFC03B" d="M28,93.1c0,0,0,0.1,0,0.2c0.3,0.5,0.6,1,1,1.6c-0.3-1.2-0.5-2.3-0.6-3.1c-0.1-0.4-0.1-0.7-0.2-0.9
		c0,0,0.1,0.4,0.2,0.9c0.2,0.9,0.7,2.1,1.1,3.3c0-0.5,0-1-0.1-1.4c-0.3-0.8-0.5-1.3-0.5-1.3c0.1,0.2,0.3,0.4,0.4,0.6
		c-0.1-0.5-0.2-1-0.2-1.5c-0.2-0.9-0.4-1.8-0.7-2.7c-0.1-0.5-0.1-0.9-0.2-1.4c0-0.2-0.1-0.4-0.1-0.6c0-0.4-0.2-0.8-0.2-1.1
		c0-0.4-0.2-0.8-0.3-1.1c-0.1-0.3-0.2-0.5-0.4-0.7c-0.3-0.4-0.4-0.8-0.5-1.2c-0.1-0.9-0.1-1.9-0.1-2.8c0-0.2,0-0.4,0-0.7
		c-0.1-1.2-0.5-2.3-0.9-3.4c-0.1-0.4-0.3-0.7-0.4-1.1c-0.1-0.4-0.3-0.7-0.4-1.1c-0.2-0.5-0.3-0.9-0.4-1.4c0,0.8-0.1,1.5-0.1,2.3
		c0,6.3,1.1,12.3,3.1,17.8C27.5,92.6,27.7,92.9,28,93.1C27.9,93.2,28,93.2,28,93.1z"/>
	<path fill="#FFC03B" d="M129.1,68.9c-0.4,0.8-0.6,1.6-1,2.3c-0.8,1.3-1.8,2.4-2.3,3.9c-0.2,0.4-0.2,0.8-0.3,1.1
		c-0.1,1.4-0.3,2.8-0.6,4.2c-0.2,0.6-0.3,1.2-0.7,1.7c0.1,0.8,0,1.6,0.1,2.4c0.4,2.5,1,4.8,1.6,7.2c0.5-0.6,0.8-1,0.8-1
		c-0.2,0.3-0.4,0.7-0.7,1.3c0.2,0.9-0.1,1.9,0.1,2.8c0,0.2,0.1,0.3,0.1,0.5c2.7-6.4,4.3-13.4,4.3-20.8c0-2.2-0.1-4.4-0.4-6.5
		c0,0-0.1-0.1-0.1-0.1C129.4,68.1,129.3,68.5,129.1,68.9z"/>
	<path fill="#FFC03B" d="M31.8,55.4c0.1,0.1,0.3,0.1,0.3,0.3c0.5,0.8,1.2,1.4,1.7,2.3c0.7,1.2,1.9,1.6,3.1,2.3c1,0.5,2,0.8,2.8,1.5
		c0.1,0,0.3,0.1,0.4,0.1c0.5,0.3,0.9,0.8,1.4,1.1c1.1,0.9,1.9,1.9,2.4,3.2c0.1,0.3,0.2,0.5,0.3,0.8c0,0.3,0.1,0.5,0,0.8
		c0,0.1,0.1,0.2,0,0.3c0,0.1,0.1,0,0.1,0c-0.1,0.1,0,0.2,0,0.3c-0.1,1.1,0.1,2.1,0.1,3.2c0,0.6,0,1.2,0.1,1.8c0,0.3,0,0.5,0.1,0.8
		c0,0.2,0.1,0.4,0.1,0.6c0,0.4,0.1,0.9,0.2,1.3c0.3,1.1,1.2,2,1,3.2c-0.1,0.4-0.1,1-0.5,1.3c-0.1,0.1-0.1,0-0.2-0.1
		c-0.1-0.1,0-0.2,0-0.3c-0.4-0.6-0.9-1.1-0.8-1.9c0-0.5,0.1-1,0-1.6c-0.1-0.5-0.2-1-0.3-1.5c-0.2-0.8,0-1.6-0.4-2.4
		c-0.4,0.6-0.3,1.4-0.5,2c-0.3,0.9-0.3,2-0.1,3c0,0.7,0.3,1.2,0.8,1.7c0.6,0.8,1.3,1.3,1.9,2c0.3,2.1,0.5,4.3,0.9,6.4
		c0.4,0.4,1.3,2.7,2,4.5c0.1,0,0.2,0,0.3-0.1c0.1-0.3,0.1-0.6,0.2-0.9c-0.4-2-0.8-4-0.8-4c0.4,0.7,0.8,2,1.1,3.2
		c0.1-0.3,0.3-0.6,0.5-0.8c0,0-0.2,0.7-0.3,1.6c0.1,0.3,0.1,0.5,0.2,0.7c0.2,0,0.5-0.1,0.7-0.1c-0.4-2.1-1.2-5.6-1.2-5.6
		c0.5,0.7,1.2,2.7,1.7,4.4c-0.3-1.5-0.4-3.1-0.3-4.2c0,0,0.5,2.6,1,5.1c0.1,0,0.2,0,0.3-0.1c-0.2-1.8-0.6-4.3-1.2-5.8
		c-0.2-0.6-0.4-0.9-0.4-0.9c0.1,0.2,0.3,0.5,0.4,0.9c0.3,0.7,0.7,1.7,1.1,2.9c-0.1-0.7-0.1-1.3-0.1-1.9c0-0.1-0.1-0.2-0.1-0.2
		c0,0,0.1,0,0.1,0.1c0-1.6,0.2-2.6,0.2-2.6c0,0.6,0.1,1.8,0.3,3c0.5,0.5,1,1.4,1.3,2.2c-0.2-1.1-0.3-2-0.3-2
		c0.3,0.5,0.6,1.2,0.8,2.1c0.3-0.9,0.7-1.7,1.3-2.4c0,0-0.1,0.5-0.3,1.3c0.4,0.6,0.7,1.4,1,2.2c-0.1-0.6-0.1-1.1-0.1-1.7
		c-0.2-0.4-0.4-0.7-0.4-0.7c0.1,0.1,0.3,0.2,0.4,0.3c0-0.5,0-1.1,0-1.6l-0.1-0.9c0,0,0.1,0.2,0.1,0.5c0.1-1.1,0.3-2.2,0.8-3.3
		c0.2-0.6,0.6-1,1.1-1.5c0-0.1,0-0.2-0.1-0.3c-0.1-0.3-0.1-0.5-0.1-0.5c0,0.1,0.1,0.3,0.1,0.5c0,0.1,0,0.2,0.1,0.3
		c0.5-0.5,0.9-1,0.9-1.6c0-0.6-1-0.8-1.6-1.4c-1-1.4-2-2.6-2.6-3.7c-0.6-1.2-0.4-2.8-0.8-4.1c-0.2-0.2-0.2-0.8-0.6-0.8
		c-1,0-2,0.2-3,0c-0.4-0.2-1-0.6-0.6-1c1.6-1.4,3-2.6,4.9-3.5c0.8-0.2,0.8-1.6,1.6-1.8c0.4-0.2,0.2,0.6,0.6,0.8c0.8,0.2,1.2-0.8,2-1
		c-0.6,1.2-1,2.4-1.6,3.3c-0.6,1.4-0.6,4.3,1,4.7c4.5,1.4,9.1-0.4,13.6-0.8c2.2-0.2,3.9,0.8,5.7,2c1.2,1,0.6,2.4,0.2,3.5
		c-0.6,0.8-1.6,1.8-1.6,2.8c0,1,2,1.4,2.2,2.4c0.2,0.9,0.5,1.9,0.6,2.8c0.4-1.5,0.8-2.3,0.8-2.3c-0.2,0.5-0.3,1.6-0.4,2.7
		c0.1-0.5,0.2-0.8,0.3-1c0,0,0,0.7-0.1,1.7c0.3,0.6,0.4,1.3,0.5,2.1c0.1-0.8,0.3-1.5,0.3-2c0-0.2,0-0.3,0.1-0.4c0,0,0,0.1-0.1,0.4
		c-0.1,0.8-0.1,2.5,0,4.2c0,0,0,0,0,0c-0.1-3.5,0.5-8.5,0.7-10.1c0-0.2,0-0.4,0.1-0.5c0,0,0,0.2-0.1,0.5c-0.1,1.8,0,7.3,0.1,9.4
		c0.1-0.8,0.2-1.7,0.4-2.5c-0.1-0.2-0.2-0.4-0.2-0.4c0.1,0.1,0.1,0.1,0.2,0.2c0.1-0.7,0.3-1.2,0.5-1.6c0,0,0,0.9-0.1,2
		c0.3,0.4,0.5,0.7,0.8,1.2c0.1-0.2,0.2-0.5,0.4-0.7c0.2-1.7,0.4-3.3,0.4-3.3l0,2.7c0.2-0.2,0.4-0.4,0.6-0.5c0,0-0.3,0.5-0.6,1.3
		l0,2.4c0,0,0.1,0,0.1,0c0-0.2,0-0.4,0.1-0.6c0-0.1-0.1-0.2-0.1-0.3c0-0.6-0.1-1.1,0.3-1.6c0.1-0.1,0.2-0.2,0.3-0.2
		c0.1-0.3,0.2-0.6,0.4-0.9c-0.3-0.7-0.5-1.2-0.5-1.2c0.6,0.5,1.1,1.3,1.4,2c0,0,0.1,0,0.1-0.1c0,0,0-0.1,0.1-0.1
		c0.1-0.8,0.3-1.4,0.5-1.8c0,0,0,0.3,0,0.9c0.7-0.6,1.1-1.3,1.4-2.1c0-0.7,0-1.3-0.1-1.6c0,0,0.1,0.4,0.3,1.1
		c0.3-1.1,0.5-2.3,0.8-3.3c0.2-0.5,0.4-1,0.8-1.4c0.5-0.4,1.1-0.4,1.7-0.7c0.5-0.3,0.8-0.7,1-1.2c0.3-0.6,0.5-1.4,0.6-2
		c0.2-1.5,0-2.9,0-4.4c-0.2,0.2-0.4,0.4-0.6,0.6c-0.9,1.1-1.6,2.4-2.8,3.3c-0.8,0.6-1.6,1-2.4,1.2c-0.5,0.1-1.1,0.2-1.6,0
		c-0.7-0.3-1.3-0.5-2-0.8c0.1-0.4,0.4,0,0.7-0.2c-0.7-0.4-1.4-0.7-2.1-1l0-0.1c1.1,0,2.2-0.3,3.1-0.9c-0.4-0.1-0.9-0.1-1.4-0.2
		c-0.5-0.2-1-0.2-1.4-0.4c0-0.1,0.1-0.1,0.1-0.2c0.2,0.1,0.5,0.2,0.7,0.1c1-0.1,2-0.4,2.9-0.9c0.8-0.5,1.4-1.2,2-1.8
		c1.6-1.4,2.8-3.5,5-4.2c1.2-0.4,2.5-0.5,3.7-0.1c0.5-0.3,1.1-0.5,1.6-0.6c1.5-0.3,3-0.4,4.5-0.3c0.9,0,1.7,0.2,2.5,0.6
		c1.8,0.8,3.3,1.8,5.1,2.3c2,0.5,4-0.1,6-0.2c0.4-0.4,0.9-0.5,1.3-0.9c0.5-0.6,0.9-1.2,1.3-1.9c-0.2,0-0.4,0-0.6,0.1
		c0.3-0.4,0.4-1,0.9-1.2c0.3-0.1,0.7,0,0.8-0.2c0.1-0.3-0.2-0.6-0.3-0.8c0.5-0.1,1.1,0.4,1.5,0c0.1-0.1-0.3-0.1-0.2-0.2
		c0.7-0.7,1.6-1.1,2.5-1.3c0.3-0.1,0.3-0.4,0.3-0.7c0,0,0-0.1,0.1-0.2c0.4,0,0.5,0.4,0.9,0.4c0.2,0,0.5,0,0.6-0.2
		c0.1-0.2-0.3-0.2-0.5-0.3c0.3-0.1,0.6-0.2,0.9-0.3c0.8-0.2,1.4,0.3,2.2,0.3c0.1,0,0.2,0,0.2-0.1c0-0.1-0.2-0.1-0.3-0.2
		c0.1-0.2,0.3-0.3,0.5-0.3c-6.7-21.6-26.9-37.3-50.7-37.3C56,21.5,37.7,34,29.3,52c0.3,0.6,0.7,1.1,1.1,1.6
		C30.8,54.3,31.4,54.7,31.8,55.4z M100.1,45.6c0.8-1.7,3.6-0.5,3.6-0.5c-2.5-0.8-3.7,2.1-3.7,2.1c-0.2-2.2-3.4-2.3-3.4-2.3
		C98.6,43.9,100.1,45.6,100.1,45.6z M92.7,51.7c0.4-0.9,1.9-0.2,1.9-0.2c-1.3-0.4-1.9,1.1-1.9,1.1c-0.1-1.1-1.7-1.2-1.7-1.2
		C91.9,50.8,92.7,51.7,92.7,51.7z M66.8,45c0.5-1.1,2.3-0.3,2.3-0.3c-1.6-0.5-2.4,1.3-2.4,1.3c-0.1-1.4-2.2-1.5-2.2-1.5
		C65.8,43.9,66.8,45,66.8,45z M61.9,40.5c0.1-1.7,2.8-1.6,2.8-1.6c-2.3,0.2-2.4,3-2.4,3c-0.9-1.7-3.6-0.8-3.6-0.8
		C60.1,39.5,61.9,40.5,61.9,40.5z"/>
	<path fill="#FFC03B" d="M115.7,93.8c0.1-0.1,0.3-0.3,0.5-0.4c-0.2,0-0.3,0.1-0.5,0.1C115.6,93.7,115.7,93.7,115.7,93.8z"/>
	<path fill="#FFC03B" d="M99.2,91.8c0.1,0,0.2,0,0.3,0.1c0.2-0.8,0.4-1.8,0.6-2.8C99.9,89.9,99.5,90.9,99.2,91.8z"/>
	<path fill="#FFC03B" d="M113.7,94.7c0.1-0.2,0.1-0.5,0.2-0.7c-0.1,0-0.2,0.1-0.2,0.1C113.7,94.4,113.7,94.6,113.7,94.7z"/>
	<path fill="#FFC03B" d="M114.5,93.8c0,0.4-0.1,0.8-0.2,1.1c0.1,0,0.1,0,0.1,0l0.4-1.3C114.7,93.8,114.6,93.8,114.5,93.8z"/>
	<path fill="#FFC03B" d="M114.3,91.9c-0.2,0.2-0.4,0.5-0.6,0.7c0,0,0.1,0,0.1,0c0.1-0.1,0.3-0.2,0.4-0.3
		C114.2,92.2,114.3,92,114.3,91.9z"/>
	<path fill="#FFC03B" d="M113.4,94.3c-0.2,0.1-0.3,0.2-0.4,0.3c0.1,0,0.2,0.1,0.4,0.1C113.3,94.5,113.4,94.4,113.4,94.3
		C113.4,94.3,113.4,94.3,113.4,94.3z"/>
	<path fill="#FFC03B" d="M107.9,93.3c0-0.5-0.1-0.9-0.1-1.3c-0.1,0.4-0.2,0.8-0.4,1.2c0,0,0,0,0,0C107.6,93.3,107.7,93.3,107.9,93.3
		C107.9,93.4,107.9,93.4,107.9,93.3z"/>
	<path fill="#FFC03B" d="M110.7,94C110.8,94,110.8,94,110.7,94c0-0.9-0.1-1.6-0.1-2.3c-0.2,0.5-0.5,1.2-0.8,2.1c0.1,0,0.2,0,0.3,0.1
		c0.1-0.1,0.1-0.1,0.2-0.2c0,0,0,0.1-0.1,0.2C110.4,93.9,110.6,94,110.7,94z"/>
	<path fill="#FFC03B" d="M118.5,92.3c-0.3,1.2-0.7,2.5-1.1,3.6c0,0,0,0,0,0C118,94.5,118.5,93,118.5,92.3c0.1,0,0.1,0,0.1,0
		C118.6,92.3,118.6,92.3,118.5,92.3z"/>
	<path fill="#FFC03B" d="M75.4,88.8c0,0.5,0,1,0,1.4c0,0,0.1,0,0.1,0C75.5,89.7,75.5,89.2,75.4,88.8C75.5,88.7,75.4,88.8,75.4,88.8z
		"/>
	<path fill="#FFC03B" d="M62.3,90.8c0.1,0,0.1,0,0.2,0c0.1-0.6,0.1-1.3,0-1.9c-0.1,0.3-0.2,0.6-0.3,0.9
		C62.2,90.2,62.3,90.5,62.3,90.8z"/>
	<path fill="#FFC03B" d="M63.6,89.4c0-1.5,0-3.1,0.3-4.2c0,0,0.1,2.7,0.4,5.4c0.1,0,0.2,0,0.3,0c0-1.8-0.1-4.4-0.4-6.1
		c-0.2-0.6-0.3-0.9-0.3-0.9c0.1,0.3,0.2,0.6,0.3,0.9c0.2,0.7,0.5,1.8,0.7,3c0-0.7,0.1-1.3,0.2-1.9c0-0.1-0.1-0.2-0.1-0.2
		c0,0,0,0,0.1,0.1c0.2-1.6,0.5-2.6,0.5-2.6c-0.1,0.6-0.1,1.8-0.1,3.1c0.6,0.9,1,2.3,1.3,3.6c0-0.1,0.1-0.3,0.1-0.5
		c-0.1-1.6-0.1-3.3-0.1-3.3c0.2,0.5,0.4,1.3,0.6,2.2c0.4-0.8,0.9-1.6,1.5-2.2c0,0-0.2,0.5-0.5,1.2c0.5,0.8,0.7,2.1,0.8,3.3
		c0,0,0.1,0,0.1,0l0-2.1c-0.3-0.8-0.6-1.3-0.6-1.3c0.2,0.1,0.4,0.3,0.6,0.5l0-2.7c0,0,0.2,1.6,0.4,3.2c0.1,0.2,0.3,0.5,0.4,0.7
		c0.2-0.4,0.5-0.8,0.8-1.2c0-1.1-0.1-2-0.1-2c0.2,0.4,0.3,0.9,0.5,1.6c0.1-0.1,0.1-0.1,0.2-0.2c0,0-0.1,0.1-0.2,0.4
		c0.1,0.8,0.3,1.6,0.4,2.5c0.1-2.1,0.2-7.6,0.1-9.4c0-0.3-0.1-0.5-0.1-0.5c0,0.1,0,0.3,0.1,0.5c0.2,1.5,0.8,6.3,0.7,9.7c0,0,0,0,0,0
		c0-1.5,0-3.1-0.1-3.8c0-0.2-0.1-0.4-0.1-0.4c0,0.1,0.1,0.2,0.1,0.4c0.1,0.4,0.2,0.9,0.3,1.6c0.1-0.9,0.3-1.7,0.6-2.4
		c0-0.6-0.1-1.1-0.1-1.1c0.1,0.1,0.1,0.4,0.2,0.7c0,0,0-0.1,0.1-0.1c-0.1-1.3-0.2-2.4-0.4-3c0,0,0.4,0.9,0.8,2.5c0,0,0-0.1,0.1-0.1
		c0,0,0,0.1,0,0.2c0.1,0.5,0.3,1.2,0.4,1.9c0.1-1.2,0.3-2.4,0.4-3.1c0-0.3,0.1-0.6,0.1-0.8c-1-1.2-2.3-2.3-3.5-3.5
		c-2.6,1.4-5.5,1.6-8.3,1.8c-0.3,1.8-0.2,3.6-0.2,5.4C63.3,87.3,63.5,88.4,63.6,89.4z"/>
	<path fill="#FFC03B" d="M59.6,91.1c-0.1-1.4-0.3-2.7-0.5-3.4C59,87.5,59,87.3,59,87.3c0,0.1,0.1,0.2,0.1,0.4
		c0.2,0.6,0.6,1.9,0.9,3.3c0.1,0,0.3,0,0.4,0c-0.3-2.4-0.8-5.2-0.8-5.2c0.3,0.4,1,3.1,1.5,5.1c0,0,0.1,0,0.1,0
		c0.1-0.4,0.2-0.8,0.4-1.2c-0.1-2.1-0.3-4-0.3-4c0.3,0.8,0.5,2.1,0.7,3.3c0.1-0.2,0.2-0.3,0.4-0.5c-0.1-0.6-0.2-1.3-0.4-1.8
		c-0.4-1.6-0.2-3.3-1.4-4.7c-0.8,0.7-1.8,1.2-2.5,1.8C58.7,85.7,59.3,88.6,59.6,91.1C59.5,91.1,59.6,91.1,59.6,91.1z"/>
	<path fill="#FFC03B" d="M75,87.7c0.1-1.7,0.1-3.1,0.1-3.1c0.2,0.8,0.3,2.1,0.3,3.3c0,0,0,0,0,0c-0.1-2-0.2-3.8-0.2-3.8
		c0.3,0.8,0.6,2.1,0.7,3.3c0,0,0.1-0.1,0.1-0.1c0-0.9,0.1-1.8,0.2-2.5c-0.1-0.3-0.2-0.7-0.4-1c-0.2-0.4-0.5-0.9-0.9-1.3
		c0,0.2-0.1,0.4-0.1,0.8C74.8,84.6,74.9,86.2,75,87.7z"/>
	<path fill="#FFC03B" d="M84.6,90.3c0.2,0,0.3,0,0.5,0c0-0.1,0-0.2,0-0.3c-0.2,0.1-0.4,0.1-0.5,0.1C84.6,90.2,84.6,90.3,84.6,90.3z"
		/>
	<path fill="#FFC03B" d="M76,87.6c0,0.2,0,0.4,0.1,0.6c0-0.2,0-0.5,0-0.8C76,87.5,76,87.6,76,87.6z"/>
	<path fill="#FFC03B" d="M57.1,90.3c0.2-0.4,0.4-0.9,0.6-1.2c-0.2-1.1-0.3-2-0.3-2c0.2,0.3,0.4,0.9,0.6,1.5c0.1-0.1,0.1-0.1,0.2-0.2
		c0,0,0,0.2-0.1,0.4c0.2,0.7,0.4,1.5,0.6,2.3c0,0,0,0,0,0c-0.1-1.6-0.4-4.9-0.7-7.2c-0.3,0.3-0.5,0.6-0.7,1
		c-0.7,1.3-0.8,2.8-0.8,4.4c0,0.1,0.1,0.3,0.1,0.4C56.8,89.9,57,90.1,57.1,90.3z"/>
	<path fill="#FFC03B" d="M30.6,92.8c0,0.1,0,0.3,0.1,0.7c0.4,1.1,0.9,2.4,1.3,3.4c0.1-0.3,0.2-0.5,0.2-0.5l0.1-0.6l0-0.1
		c-0.5-0.6-0.9-0.9-0.9-0.9c0.2,0.1,0.5,0.2,0.7,0.3l-2.5-10.3c0,0,0.1,3,0.4,4.2C30.2,90.1,30.6,92.5,30.6,92.8z"/>
	<path fill="#FFC03B" d="M30.6,79.6c-0.2,0.9,0.2,1.7,0.2,2.6c0,0.2,0.2,0.4,0.2,0.6c0.1,0.7,0.2,1.3,0.3,2c0.1,0.8,0.3,1.6,0.4,2.5
		c0.6,2.7,1.2,5.2,1.8,7.9c-0.4-1.8-0.7-3.6-0.6-4c0,0,0.8,2.8,1.5,5.1c0.1,0,0.3-0.1,0.4-0.1c-0.3-1.5-0.5-2.9-0.6-3.5
		c0-0.2-0.1-0.3,0-0.4c0,0,0,0.1,0,0.4c0.1,0.7,0.6,2,1.1,3.4c0,0,0,0,0,0c-1.1-3.3-2-7.7-2.3-9.2C33,86.6,33,86.4,33,86.3
		c0,0,0,0.2,0.1,0.5c0.4,1.7,2.3,6.9,3.1,8.9c-0.2-0.8-0.3-1.7-0.4-2.5c-0.2-0.2-0.3-0.3-0.3-0.3c0.1,0,0.2,0.1,0.2,0.1
		c-0.1-0.7-0.1-1.3-0.1-1.7c0,0,0.2,0.9,0.5,1.9c0.4,0.2,0.8,0.5,1.1,0.9c0-0.3,0.1-0.5,0.1-0.8c-0.4-1.7-0.7-3.2-0.7-3.2l0.9,2.5
		c0.1-0.2,0.2-0.5,0.4-0.7c0,0-0.1,0.6-0.1,1.4l0.6,1.6c0.1,0,0.1,0,0.2-0.1c-0.2-1.1-0.3-2.2-0.2-3c-0.5-0.6-0.9-1-0.9-1
		c0.7,0.3,1.2,0.7,1.8,1.2c0-0.3,0-0.7,0-1c0.1-0.9-0.2-1.8-0.2-2.7c0.1-0.5,0.3-0.9,0.3-1.4c0.1-1.4-0.1-2.7-0.4-4
		c-0.1-0.4-0.3-0.8-0.3-1.2c-0.2-0.9-0.2-1.8-0.3-2.8c-0.5-0.3-0.8-0.8-1.1-1.3c0-0.1,0-0.2,0-0.2c-0.6-0.8-1-1.6-1.3-2.5
		c-0.1-0.2-0.2-0.4-0.3-0.6c-0.3-0.6-0.3-1.3-0.8-1.9c-0.7,0.6-1.6,0.6-2.5,0.6c-0.5,0-1-0.1-1.4-0.2c-0.6-0.2-1-0.6-1.5-0.8
		c0.1,2,0.1,4,0.5,6C30.2,78.6,30.3,79.2,30.6,79.6z"/>
	<path fill="#FFC03B" d="M39.2,94.9c0-0.3,0-0.6,0.1-1c0-0.2,0.1-0.5,0.1-0.7c-0.2-0.3-0.5-0.6-0.7-0.9
		C38.7,92.9,38.9,93.8,39.2,94.9C39.2,94.9,39.2,94.9,39.2,94.9z"/>
	<path fill="#FFC03B" d="M41.4,94.3c0,0,0-0.1,0-0.1c-0.3-0.9-0.5-1.8-0.7-2.5c-0.1,0.6-0.1,1.3-0.2,1.9c0.2,0.3,0.4,0.5,0.5,0.8
		C41.2,94.3,41.3,94.3,41.4,94.3z"/>
	<path fill="#FFC03B" d="M53.6,91.8c-0.3-0.8-0.6-1.7-0.9-2.4c0.2,0.9,0.4,1.7,0.6,2.5C53.4,91.9,53.5,91.8,53.6,91.8z"/>
	<path fill="#FFC03B" d="M55.2,91.6c-0.1-0.3-0.1-0.5-0.1-0.5c0.1,0.1,0.2,0.3,0.3,0.4c0.1,0,0.1,0,0.2,0c-0.2-1-0.4-1.8-0.6-2.4
		c-0.2,0.6-0.3,1.4-0.5,2.2c0,0.1,0.1,0.2,0.1,0.3C54.8,91.6,55,91.6,55.2,91.6z"/>
	<path fill="#FFC03B" d="M41.6,93c0.2-0.9,0.4-1.8,1-2.5c0,0-0.1,0.5-0.2,1.3c0.5,0.5,0.9,1.2,1.2,2c0.1,0,0.2,0,0.3-0.1l-0.3-1
		c-0.5-0.7-0.9-1.1-0.9-1.1c0.2,0.1,0.5,0.2,0.7,0.4l-0.6-2.6c0,0,0.6,1.4,1.2,3.1c0.2,0.2,0.4,0.4,0.5,0.6c0.1-0.5,0.3-0.9,0.4-1.3
		c-0.3-1.1-0.6-1.9-0.6-1.9c0.3,0.3,0.5,0.8,0.8,1.4c0-0.1,0.1-0.2,0.1-0.2c0,0,0,0.2-0.1,0.4c0.3,0.6,0.5,1.2,0.8,1.8
		c0,0,0.1,0,0.1,0c-0.5-2.3-1.6-7.1-2.1-8.7c-0.1-0.3-0.2-0.5-0.2-0.5c0.1,0.1,0.1,0.2,0.2,0.5c0.2,0.6,0.7,1.8,1.2,3.2
		c-0.1-0.5-0.3-1.1-0.4-1.7c-0.2-1.1-0.7-2-1.4-2.9c-0.5-0.7-1.1-1.3-1.8-1.9c-0.1,0-0.1,0.3-0.1,0.4c-0.1,0.5,0,1.1-0.2,1.6
		c-0.2,1-0.2,2-0.4,3c-0.1,0.5,0.1,1.1,0.1,1.7c-0.1,1.2-0.2,2.3-0.3,3.4C41,91.8,41.3,92.3,41.6,93z"/>
	<path fill="#FFC03B" d="M47.1,90.8c0.1,0.1,0.1,0.2,0.2,0.3c0.2,0.5,0.2,1,0.3,1.5c0,0.1,0,0.2,0.1,0.3c0.1,0,0.2,0,0.3-0.1
		c-0.5-1.8-1.1-3.8-1.3-4.4c0.1,0.7,0.3,1.3,0.5,2C47.1,90.5,47.1,90.6,47.1,90.8z"/>
	<path fill="#FFC03B" d="M42.1,94.1c0.3-0.1,0.6-0.1,0.9-0.2c-0.3-0.7-0.5-1.4-0.7-1.8C42.2,92.7,42.2,93.4,42.1,94.1z"/>
	<path fill="#FFC03B" d="M78,86.5c-0.1-0.3-0.1-0.5-0.2-0.8c0,0.6,0.1,1.3,0.1,2.1C78,87.3,78,86.9,78,86.5z"/>
	<path fill="#FFC03B" d="M45.1,93.4c0.1,0,0.3-0.1,0.4-0.1c-0.1-0.3-0.2-0.6-0.3-1C45.1,92.7,45.1,93,45.1,93.4z"/>
	<path fill="#FFC03B" d="M79.3,89.1c0,0.4,0,0.7,0,1.1c0,0,0.1,0,0.1,0C79.4,89.8,79.4,89.4,79.3,89.1z"/>
	<path fill="#FFC03B" d="M36.8,95.6c0.1,0,0.3-0.1,0.4-0.1c0-0.1,0-0.2,0-0.3c-0.3-0.4-0.6-0.7-0.8-1C36.5,94.6,36.7,95.1,36.8,95.6
		z"/>
	<path fill="#FFC03B" d="M73.5,90.2c0,0,0.1,0,0.1,0c0-0.4,0-0.9,0-1.3C73.5,89.3,73.5,89.7,73.5,90.2z"/>
	<path fill="#FFC03B" d="M82.3,89.2c-0.2-0.5-0.3-0.9-0.5-1.2c0,0.8-0.1,1.6-0.1,2.2c0.1,0,0.1,0,0.2,0
		C82.1,89.9,82.2,89.6,82.3,89.2z"/>
	<path fill="#FFC03B" d="M84.5,87c0,0.1,0,0.3-0.1,0.5c0.1,0,0.2,0,0.3,0C84.7,87.3,84.6,87.2,84.5,87z"/>
	<path fill="#FFC03B" d="M124.6,98.5C124.6,98.5,124.6,98.5,124.6,98.5c0.1-0.1,0.2-0.2,0.2-0.3C124.7,98.3,124.6,98.4,124.6,98.5z"
		/>
	<path fill="#FFC03B" d="M77.5,88.4C77.5,88.4,77.5,88.4,77.5,88.4c0,0.5-0.1,1.1-0.1,1.7c0,0,0.1,0,0.1,0
		C77.5,89.9,77.5,89.2,77.5,88.4z"/>
	<path fill="#FFC03B" d="M65.7,87.9c0.1,0.9,0.2,1.8,0.2,2.6c0.1,0,0.2,0,0.3,0C66.1,89.6,65.9,88.7,65.7,87.9z"/>
	<path fill="#FFC03B" d="M68.4,87.4c-0.2,0.6-0.5,1.3-0.7,2.1c0,0.3,0.1,0.6,0.1,0.9c0.2,0,0.4,0,0.5,0c-0.1-0.6-0.1-1-0.1-1
		c0.2,0.3,0.4,0.6,0.5,0.9C68.6,89,68.5,88,68.4,87.4z"/>
	<path fill="#FFC03B" d="M71.1,88.3c-0.1,0.4-0.3,0.8-0.5,1.2c0.1,0.2,0.1,0.4,0.2,0.7c0.1,0,0.2,0,0.3,0
		C71.1,89.7,71.1,89,71.1,88.3z"/>
	<path fill="#FFC03B" d="M30.9,96.1c0-0.1-0.1-0.3-0.1-0.4c0,0,0,0.1,0,0.1C30.8,95.9,30.9,96,30.9,96.1z"/>
	<path fill="#FFC03B" d="M57.8,89.8c-0.1,0.4-0.2,0.8-0.3,1.3c0,0.1,0,0.1,0.1,0.2c0.1,0,0.3,0,0.4-0.1C58,90.8,57.9,90.3,57.8,89.8
		z"/>
	<path fill="#2D7F67" d="M131.1,91.7c0.1-0.2,0.1-0.4,0.1-0.5C131.2,91.2,131.2,91.4,131.1,91.7z"/>
	<path fill="#2D7F67" d="M129.9,97.5c0-0.2,0.1-0.3,0-0.4C130,97.1,129.9,97.3,129.9,97.5z"/>
	<path fill="#2D7F67" d="M137.8,96c0,0-0.7,0.7-1.6,2.1c0,0,0-0.1,0-0.1c0,0,0,0.1,0,0.2c-0.3,0.5-0.6,1-1,1.6
		c0.3-1.2,0.5-2.3,0.6-3.1c-0.4,1.8-1.6,4.5-2.4,6.1c-0.1,0-0.2-0.1-0.2-0.1c0.9-2.6,2.1-5.4,2.1-5.4c-0.7,0.8-1.4,2.2-2,3.7
		c0.5-1.7,1-3.7,1-4.6c0,0-1.3,3.8-2.2,5.7c-0.2-0.1-0.4-0.2-0.6-0.4c0.1-0.3,0.2-0.6,0.3-1c0.6-0.7,1.1-1.2,1.1-1.2
		c-0.3,0.1-0.6,0.2-0.9,0.4c0.4-1.2,0.7-2.4,0.8-3.2c0,0-0.7,1.8-1.5,3.8c-0.3,0.3-0.6,0.5-0.8,0.8c-0.1,0-0.1-0.1-0.2-0.1
		c0.4-2,0.9-4.7,0.8-5.1c0,0-0.7,2.6-1.4,4.8c-0.1-0.1-0.3-0.1-0.4-0.2c0.3-1.4,0.4-2.6,0.5-3.1c-0.1,0.6-0.5,1.7-0.9,2.9
		c0,0,0,0,0,0c1-3.2,1.9-7.3,2.2-8.7c-0.4,1.6-2,5.9-2.8,8.2c0,0-0.1-0.1-0.1-0.1c0.1-0.6,0.2-1.2,0.3-1.7c0.2-0.2,0.3-0.3,0.3-0.3
		c-0.1,0-0.2,0.1-0.2,0.1c0.1-0.7,0.1-1.3,0.1-1.7c0,0-0.2,0.9-0.5,1.9c-0.2,0.1-0.5,0.3-0.7,0.5c-0.2-0.3-0.3-0.6-0.4-0.9
		c0.3-1.5,0.6-2.7,0.6-2.7l-0.8,2.2c-0.1-0.4-0.3-0.7-0.4-1.1c0.2-0.2,0.3-0.4,0.3-0.4c-0.1,0-0.2,0.1-0.4,0.2
		c-0.1-0.2-0.1-0.5-0.2-0.7c0-0.2-0.1-0.3-0.1-0.5c-0.2-0.9,0.1-1.9-0.1-2.8c0.3-0.5,0.5-1,0.7-1.3c0,0-0.3,0.3-0.8,1
		c-0.6-2.4-1.3-4.7-1.6-7.2c-0.1-0.8,0-1.6-0.1-2.4c0.4-0.5,0.6-1.1,0.7-1.7c0.3-1.4,0.5-2.7,0.6-4.2c0.1-0.4,0.1-0.7,0.3-1.1
		c0.5-1.5,1.5-2.6,2.3-3.9c0.4-0.7,0.6-1.5,1-2.3c0.2-0.4,0.4-0.8,0.8-1c0,0,0.1,0.1,0.1,0.1c0.3,0.2,0.6,0.6,0.8,0.8
		c0.7,0.5,1.4,0.8,2,1.4c0.5,0.5,0.9,0.9,1.1,1.5c0.2,0.6,0.4,1.2,1,1.4c1.1,0.4,2.1-0.5,2.4-1.5c0.6-2.1-0.8-4-1.3-5.9
		c-0.1-0.6,0.2-1.2,0.1-1.7c-0.2-1-0.8-1.8-1.3-2.8c-0.1-0.1,0.1-0.3,0.2-0.4c0.6-0.6,0.8-1.3,1.1-2.1c0.1-0.4,0.3-0.6,0.5-0.9
		c-0.1,0-0.2,0-0.3,0c-0.8,0.7-1.7,1.5-2.8,1.5c-0.6,0-1.4-0.2-1.6-0.8c-0.2-0.6-0.3-1.2-0.5-1.9c0,0-0.1,0-0.2,0
		c-0.4,0.7-0.5,1.4-0.9,2.1c-0.1,0.2-0.3,0.4-0.6,0.3c-0.6,0-1.3-0.3-1.8-0.2c-0.2,0-0.3,0.1-0.5,0.3c0.1,0,0.3,0,0.3,0.2
		c0,0.1-0.2,0.1-0.2,0.1c-0.8,0-1.5-0.5-2.2-0.3c-0.3,0-0.6,0.2-0.9,0.3c0.2,0,0.5,0.1,0.5,0.3c-0.1,0.2-0.4,0.2-0.6,0.2
		c-0.4,0-0.5-0.4-0.9-0.4c-0.1,0-0.1,0.1-0.1,0.2c0,0.3,0,0.6-0.3,0.7c-0.9,0.2-1.8,0.6-2.5,1.3c-0.1,0.1,0.3,0.1,0.2,0.2
		c-0.4,0.4-1-0.1-1.5,0c0.1,0.3,0.5,0.6,0.3,0.8c-0.1,0.2-0.5,0.1-0.8,0.2c-0.6,0.2-0.6,0.8-0.9,1.2c0.2-0.1,0.4-0.1,0.6-0.1
		c-0.4,0.6-0.7,1.3-1.3,1.9c-0.3,0.4-0.9,0.6-1.3,0.9c-2,0.1-4,0.7-6,0.2c-1.8-0.5-3.3-1.5-5.1-2.3c-0.8-0.3-1.6-0.6-2.5-0.6
		c-1.5-0.1-3,0-4.5,0.3c-0.6,0.1-1.2,0.3-1.6,0.6c-1.2-0.3-2.5-0.2-3.7,0.1c-2.2,0.7-3.4,2.7-5,4.2c-0.6,0.6-1.2,1.3-2,1.8
		c-0.9,0.5-1.9,0.8-2.9,0.9c-0.2,0.1-0.5,0-0.7-0.1c0,0-0.1,0.1-0.1,0.2c0.4,0.2,0.9,0.2,1.4,0.4c0.4,0.2,0.9,0.1,1.4,0.2
		c-0.9,0.5-2,0.8-3.1,0.9l0,0.1c0.7,0.3,1.4,0.5,2.1,1C83.4,75,83,74.6,83,75c0.6,0.3,1.3,0.5,2,0.8c0.6,0.2,1.1,0.1,1.6,0
		c0.9-0.2,1.7-0.6,2.4-1.2c1.2-1,1.9-2.2,2.8-3.3c0.2-0.2,0.4-0.4,0.6-0.6c-0.1,1.5,0.1,3,0,4.4c-0.1,0.7-0.2,1.4-0.6,2
		c-0.2,0.5-0.5,0.9-1,1.2c-0.6,0.3-1.2,0.3-1.7,0.7c-0.4,0.4-0.6,0.9-0.8,1.4c-0.4,1.1-0.5,2.2-0.8,3.3c-0.2-0.7-0.3-1.1-0.3-1.1
		c0.1,0.4,0.1,0.9,0.1,1.6c-0.3,0.8-0.7,1.5-1.4,2.1c0-0.5,0-0.9,0-0.9c-0.2,0.4-0.4,1.1-0.5,1.8c0,0,0,0.1-0.1,0.1
		c0,0-0.1,0.1-0.1,0.1c-0.4-0.8-0.8-1.5-1.4-2c0,0,0.2,0.5,0.5,1.2c-0.1,0.3-0.3,0.6-0.4,0.9c-0.1,0-0.2,0.1-0.3,0.2
		c-0.4,0.5-0.3,1.1-0.3,1.6c0,0.1,0.1,0.2,0.1,0.3c0,0.2-0.1,0.4-0.1,0.6c0,0-0.1,0-0.1,0l0-2.4c0.3-0.8,0.6-1.3,0.6-1.3
		c-0.2,0.1-0.4,0.3-0.6,0.5l0-2.7c0,0-0.2,1.6-0.4,3.3c-0.1,0.2-0.3,0.5-0.4,0.7c-0.2-0.4-0.5-0.8-0.8-1.2c0-1.1,0.1-2,0.1-2
		c-0.2,0.4-0.3,0.9-0.5,1.6c-0.1-0.1-0.1-0.1-0.2-0.2c0,0,0.1,0.1,0.2,0.4c-0.2,0.8-0.3,1.6-0.4,2.5c-0.1-2.1-0.2-7.6-0.1-9.4
		c-0.2,1.6-0.8,6.6-0.7,10.1c0,0,0,0,0,0c0-1.7,0-3.4,0-4.2c-0.1,0.4-0.2,1.1-0.3,2c-0.1-0.8-0.3-1.5-0.5-2.1c0-1,0.1-1.7,0.1-1.7
		c-0.1,0.1-0.2,0.5-0.3,1c0.1-1.2,0.2-2.2,0.4-2.7c0,0-0.4,0.9-0.8,2.3c-0.2-0.9-0.4-1.9-0.6-2.8c-0.2-1-2.2-1.4-2.2-2.4
		c0-1,1-2,1.6-2.8c0.4-1.2,1-2.6-0.2-3.5c-1.8-1.2-3.5-2.2-5.7-2c-4.5,0.4-9.1,2.2-13.6,0.8c-1.6-0.4-1.6-3.3-1-4.7
		c0.6-1,1-2.2,1.6-3.3c-0.8,0.2-1.2,1.2-2,1c-0.4-0.2-0.2-1-0.6-0.8c-0.8,0.2-0.8,1.6-1.6,1.8c-2,1-3.3,2.2-4.9,3.5
		c-0.4,0.4,0.2,0.8,0.6,1c1,0.2,2,0,3,0c0.4,0,0.4,0.6,0.6,0.8c0.4,1.4,0.2,3,0.8,4.1c0.6,1.2,1.6,2.4,2.6,3.7
		c0.6,0.6,1.6,0.8,1.6,1.4c0,0.6-0.4,1.1-0.9,1.6c0-0.1,0-0.2-0.1-0.3c0,0.1,0,0.2,0.1,0.3c-0.4,0.5-0.9,0.9-1.1,1.5
		c-0.4,1.1-0.6,2.2-0.8,3.3c-0.1-0.3-0.1-0.5-0.1-0.5l0.1,0.9c0,0.5-0.1,1.1,0,1.6c-0.1-0.1-0.3-0.2-0.4-0.3c0,0,0.2,0.3,0.4,0.7
		c0,0.6,0.1,1.1,0.1,1.7c-0.2-0.8-0.6-1.6-1-2.2c0.2-0.8,0.3-1.3,0.3-1.3c-0.6,0.6-1,1.5-1.3,2.4c-0.3-0.9-0.6-1.7-0.8-2.1
		c0,0,0.1,0.9,0.3,2c-0.4-0.9-0.8-1.7-1.3-2.2c-0.2-1.3-0.4-2.4-0.3-3c0,0-0.2,1-0.2,2.6c0,0-0.1,0-0.1-0.1c0,0,0,0.1,0.1,0.2
		c0,0.6,0,1.2,0.1,1.9c-0.4-1.2-0.8-2.2-1.1-2.9c0.5,1.6,0.9,4.1,1.2,5.8c-0.1,0-0.2,0-0.3,0.1c-0.6-2.5-1-5.1-1-5.1
		c-0.2,1.1,0,2.6,0.3,4.2c-0.5-1.7-1.1-3.7-1.7-4.4c0,0,0.8,3.5,1.2,5.6c-0.2,0-0.5,0.1-0.7,0.1c-0.1-0.2-0.1-0.5-0.2-0.7
		c0.1-0.9,0.3-1.6,0.3-1.6c-0.2,0.2-0.4,0.5-0.5,0.8c-0.3-1.2-0.7-2.4-1.1-3.2c0,0,0.4,1.9,0.8,4c-0.1,0.3-0.1,0.6-0.2,0.9
		c-0.1,0-0.2,0-0.3,0.1c-0.7-1.9-1.6-4.1-2-4.5c-0.4-2.2-0.6-4.3-0.9-6.4c-0.6-0.7-1.3-1.2-1.9-2C43.3,79.2,43,78.6,43,78
		c-0.1-1-0.1-2,0.1-3c0.2-0.7,0.1-1.4,0.5-2c0.4,0.7,0.2,1.6,0.4,2.4c0.1,0.5,0.2,1,0.3,1.5c0.1,0.5,0,1,0,1.6
		c-0.1,0.7,0.5,1.3,0.8,1.9c0,0.1-0.1,0.2,0,0.3c0.1,0.1,0.1,0.2,0.2,0.1c0.4-0.3,0.4-0.9,0.5-1.3c0.2-1.2-0.7-2.1-1-3.2
		c-0.1-0.4-0.2-0.9-0.2-1.3c0-0.2-0.1-0.4-0.1-0.6c0-0.3,0-0.5-0.1-0.8c0-0.6-0.1-1.2-0.1-1.8c0-1.1-0.2-2.1-0.1-3.2
		c0-0.1-0.1-0.2,0-0.3c-0.1,0-0.1,0-0.1,0c0.1-0.1,0-0.2,0-0.3c0.1-0.3,0-0.5,0-0.8c-0.1-0.3-0.1-0.5-0.3-0.8
		c-0.5-1.3-1.3-2.4-2.4-3.2c-0.5-0.3-0.9-0.8-1.4-1.1c-0.2,0-0.3-0.1-0.4-0.1c-0.9-0.7-1.8-1-2.8-1.5c-1.2-0.6-2.4-1.1-3.1-2.3
		c-0.5-0.9-1.2-1.4-1.7-2.3c-0.1-0.1-0.3-0.1-0.3-0.3c-0.3-0.7-1-1.1-1.4-1.8c-0.4-0.5-0.8-1-1.1-1.6c-0.5-0.8-0.9-1.6-1.4-2.4
		c-0.3-0.4-0.5-0.9-0.6-1.4c-0.3-1.4-0.1-2.8-0.2-4.2c-0.1-1.5,0-2.9,0.2-4.4c0.1-0.6,0.1-1.1,0.2-1.7c0-0.1,0-0.2,0.1-0.3
		c0.1-0.4,0.1-0.8,0-1.2c0-0.7,0-1.4-0.1-2.1c-0.1-0.6-0.2-1.2-0.2-1.9c0-0.5-0.1-1.1-0.1-1.6c0-0.1-0.1,0-0.1-0.1
		c0-0.2-0.1-0.4-0.1-0.5c-0.4-0.6-0.4-1.4-0.7-2.1c0-0.1-0.1-0.3-0.1-0.4c-0.1-0.3-0.2-0.7-0.4-1c-0.6-0.7-1.4-1.2-2.3-1.5
		c-0.1,0-0.2-0.2-0.2-0.2c0-0.7,0.1-1.3,0.4-1.9c0-0.1-0.1-0.2-0.2-0.2c-0.4-0.1-1.1-0.3-1.2,0.2c-0.1,0.5,0.2,1,0.1,1.5
		c-0.1,0.3-0.3,0.6-0.5,0.5c-0.6-0.3-0.9-0.8-1.4-1.1c-0.3-0.1-0.8-0.3-0.9,0c-0.1,0.8,0.5,1.6,1.2,2c-0.2,0.2-0.5,0.2-0.7,0.4
		c-0.2,0.2-0.5,0.4-0.7,0.6c-0.1,0.3-0.3,0.6-0.4,0.8c0,0.1-0.1,0.2-0.2,0.3c-0.3,0.7-1,1.2-1.5,1.7c-0.4,0.3-0.9,0.4-1,0.9
		c-0.1,0.4-0.6,0.6-0.8,1c0,0.2,0.1,0.3,0.2,0.3c0.2,0.1,0.5-0.1,0.7,0c0.3,0.1,0.6,0.2,0.9,0.1c0.5,0,0.7-0.6,1.2-1
		c0.2-0.1,0.4-0.1,0.6-0.2c0.8-0.1,1.5,0,2.2-0.2c0.4-0.1,0.9-0.1,1.2-0.3c0.2,0.3,0.3,0.7,0.4,1.1c0.1,0.4,0.1,0.8,0.1,1.2
		c0.1,1.5-0.1,2.8-0.3,4.3c-0.2,1.4-0.5,2.6-0.7,4.1c0,0.1,0,0.3,0,0.4c0,0.2-0.1,0.4-0.2,0.7c-0.4,2.4-0.7,4.6-0.9,7
		c-0.1,1-0.1,2.1-0.1,3.1c0,1.3,0.4,2.5,0.6,3.8c0.1,0.5,0.1,1,0.1,1.5c-0.1,0.8-0.5,1.4-0.8,2.1c-0.1,0.2-0.3,0.3-0.4,0.6
		c0,0.1,0,0.2,0,0.4c0,0.1-0.2,0-0.2,0.1c-0.1,0.7-0.1,1.4,0.1,2.1c0.1,0.1,0.1,0.2,0.2,0.3c0,0.1,0,0.1,0,0.2
		c0,0.1,0.2,0.1,0.2,0.1c-0.1,0.2,0.1,0.3,0.2,0.4c0.1,0.2,0.4,0.4,0.5,0.7c0.4,1.5,1,2.7,1.9,3.9c0.2,0.2,0.2,0.5,0.3,0.7
		c0.1,0.2,0.1,0.4,0.2,0.5c0.3,0.8,0.6,1.5,0.8,2.3c0.1,0.5,0.3,0.9,0.4,1.4c0.1,0.4,0.4,0.7,0.4,1.1c0.1,0.4,0.3,0.7,0.4,1.1
		c0.4,1.1,0.8,2.2,0.9,3.4c0,0.2,0,0.4,0,0.7c0,0.9,0,1.9,0.1,2.8c0.1,0.4,0.2,0.9,0.5,1.2c0.2,0.2,0.2,0.5,0.4,0.7
		c0.1,0.3,0.3,0.7,0.3,1.1c0.1,0.4,0.2,0.7,0.2,1.1c0,0.2,0.1,0.4,0.1,0.6c0.1,0.4,0.1,0.9,0.2,1.4c0.3,0.9,0.5,1.8,0.7,2.7
		c0.1,0.5,0.2,1,0.2,1.5c-0.1-0.2-0.3-0.4-0.4-0.6c0,0,0.2,0.5,0.5,1.3c0.1,0.5,0.1,0.9,0.1,1.4c-0.5-1.1-0.9-2.3-1.1-3.3
		c0.1,0.7,0.3,1.8,0.6,3.1c-0.3-0.6-0.7-1.2-1-1.6c0-0.1,0-0.2,0-0.2c0,0,0,0.1,0,0.1c-0.2-0.3-0.4-0.6-0.6-0.9
		c-0.6-0.8-1-1.2-1-1.2c0.4,0.5,0.9,1.5,1.4,2.7c-0.2,1,0,2.3,0.3,3.5c-0.5-0.5-1.1-0.9-1.7-1.2c0,0,0.4,0.4,0.9,1
		c-0.1,0.5-0.1,1.2,0,1.9c-0.1,0.1-0.2,0.1-0.4,0.2l-0.2-0.6c0-0.8,0.1-1.4,0.1-1.4c-0.2,0.2-0.3,0.4-0.4,0.7l-0.9-2.5
		c0,0,0.3,1.5,0.7,3.2C26,98.9,26,99.1,26,99.4c-0.3-0.3-0.7-0.6-1.1-0.9c-0.3-1.1-0.5-1.9-0.5-1.9c0,0.4,0,1,0.1,1.7
		c-0.1,0-0.2-0.1-0.2-0.1c0,0,0.1,0.1,0.3,0.3c0.1,0.5,0.2,1.1,0.3,1.7c0,0-0.1,0-0.1,0.1c-0.8-2.3-2.4-6.6-2.8-8.2
		c0.3,1.4,1.1,5.4,2.1,8.5c0,0,0,0,0,0c-0.4-1.1-0.7-2.2-0.8-2.7c0.1,0.6,0.2,1.7,0.5,2.9c-0.1,0.1-0.3,0.1-0.4,0.2
		c-0.7-2.2-1.3-4.6-1.3-4.6c-0.1,0.4,0.4,2.9,0.8,4.9c-0.1,0-0.2,0.1-0.3,0.1c-0.2-0.2-0.4-0.5-0.7-0.7c-0.8-1.9-1.5-3.8-1.5-3.8
		c0.1,0.8,0.4,2.1,0.8,3.2c-0.3-0.2-0.6-0.3-0.9-0.4c0,0,0.5,0.5,1.1,1.2c0.1,0.3,0.2,0.6,0.3,0.8c-0.2,0.1-0.4,0.2-0.6,0.4
		c-0.8-2-2.1-5.5-2.1-5.5c-0.1,0.9,0.5,2.9,1,4.6c-0.6-1.4-1.3-2.8-2-3.7c0,0,1.1,2.7,2,5.2c-0.1,0.1-0.2,0.1-0.3,0.2
		c-0.8-1.6-1.9-4.2-2.3-6c0.1,0.7,0.3,1.8,0.6,3.1c-0.3-0.6-0.7-1.2-1-1.6c0-0.1,0-0.2,0-0.2c0,0,0,0.1,0,0.1
		c-0.9-1.4-1.6-2.1-1.6-2.1c0.4,0.5,0.9,1.5,1.4,2.7c-0.3,1.8,0.8,4.8,1.1,5.8l0.5-0.1V130h117v-25.5c1-1.1,1.5-4,1.2-5.7
		C136.7,97.5,137.5,96.5,137.8,96z M17.9,104c-0.3-1-0.6-2.2-0.8-3.2c0.4,1.1,0.8,2.2,1.1,3C18.1,103.9,18,104,17.9,104z M25.3,99.9
		c-0.1-0.2-0.1-0.4-0.2-0.7c0.1,0.2,0.3,0.4,0.4,0.5C25.4,99.8,25.3,99.9,25.3,99.9z M124.9,97C124.9,97,124.9,97,124.9,97
		C124.9,97,124.9,97,124.9,97C124.9,97,124.9,97,124.9,97z M124.5,95.3C124.5,95.3,124.5,95.3,124.5,95.3c-0.1,0.4-0.2,0.9-0.3,1.3
		c-0.1,0.5-0.3,1-0.4,1.5c-0.1,0-0.2-0.1-0.3-0.1C123.8,97.2,124.1,96.3,124.5,95.3z M94.8,91.2c0.1-0.5,0.2-1.1,0.3-1.7
		c0.1,0.4,0.2,0.8,0.3,1.3c-0.1,0.2-0.1,0.3-0.2,0.5C95.1,91.2,94.9,91.2,94.8,91.2z M97.3,91.5C97.3,91.5,97.3,91.5,97.3,91.5
		c0.2-1.1,0.4-2.1,0.6-2.7c0.2,0.6,0.3,1.4,0.5,2.2c-0.1,0.2-0.1,0.4-0.2,0.7c-0.2,0-0.4,0-0.5-0.1c0.1-0.5,0.2-0.8,0.2-0.8
		C97.6,91,97.5,91.3,97.3,91.5z M99.2,91.8c0.3-0.9,0.6-1.9,1-2.7c-0.2,1-0.4,2-0.6,2.8C99.4,91.8,99.3,91.8,99.2,91.8z M107.4,93.2
		c0.1-0.4,0.2-0.8,0.4-1.2c0,0.4,0.1,0.8,0.1,1.3c0,0,0,0,0,0C107.7,93.3,107.6,93.3,107.4,93.2C107.4,93.3,107.4,93.2,107.4,93.2z
		 M110.1,93.9c-0.1,0-0.2,0-0.3-0.1c0.3-0.8,0.6-1.6,0.8-2.1c0.1,0.6,0.1,1.4,0.2,2.2c0,0,0,0.1,0,0.1c-0.2,0-0.4-0.1-0.5-0.1
		c0.1-0.1,0.1-0.2,0.1-0.2C110.2,93.7,110.2,93.8,110.1,93.9z M112.9,94.6c0.1-0.1,0.3-0.2,0.4-0.3c0,0,0,0,0,0
		c0,0.1-0.1,0.3-0.1,0.4C113.2,94.7,113,94.6,112.9,94.6z M113.9,94c-0.1,0.2-0.1,0.5-0.2,0.7c0-0.2,0-0.4-0.1-0.6
		C113.7,94.1,113.8,94.1,113.9,94z M113.7,92.6c0.2-0.2,0.4-0.5,0.6-0.7c0,0.1-0.1,0.3-0.1,0.4c-0.1,0.1-0.2,0.2-0.4,0.3
		C113.8,92.6,113.8,92.6,113.7,92.6z M114.3,95c0.1-0.4,0.1-0.7,0.2-1.1c0.1,0,0.3-0.1,0.4-0.1l-0.4,1.3C114.4,95,114.3,95,114.3,95
		z M115.7,93.8c0-0.1,0-0.2,0-0.3c0.2,0,0.3-0.1,0.5-0.1C116,93.6,115.8,93.7,115.7,93.8z M116.5,93.7c-0.2,0.6-0.4,1.2-0.5,1.8
		c-0.1,0-0.2-0.1-0.3-0.1c0-0.2,0-0.4,0-0.6C116,94.4,116.3,94,116.5,93.7z M124.1,94.2c0,0.1,0,0.1,0.1,0.2
		c-0.1,0.1-0.1,0.2-0.2,0.3C124,94.5,124,94.3,124.1,94.2z M123.6,93.2c0.1,0.2,0.2,0.4,0.3,0.6c-0.5,1.3-1.2,2.8-1.6,3.8
		c-0.1,0-0.2-0.1-0.3-0.1C122.5,95.9,123.2,94.2,123.6,93.2z M123,91.7c0.2,0.4,0.3,0.8,0.5,1.1c-0.5,0.8-1,1.9-1.5,2.9
		C122.4,94.3,122.9,92.7,123,91.7C123,91.7,123,91.7,123,91.7z M119.9,91.9c0.4-0.1,0.7-0.2,1-0.5c0.9-0.7,0.8-1.8,0.9-2.8
		c0.3,0.4,0.4,0.9,0.6,1.4c0.2,0.5,0.3,1,0.5,1.5c-0.3,0.9-1.4,4-2.1,5.6c-0.2-0.1-0.4-0.2-0.7-0.2c0.1-0.3,0.3-0.8,0.4-1.3
		c0.6-0.7,1.1-1.2,1.1-1.2c-0.3,0.1-0.6,0.2-0.9,0.4c0.4-1.2,0.7-2.4,0.8-3.2c0,0-0.7,1.8-1.5,3.8c-0.4,0.3-0.7,0.7-1.1,1.1
		C119.3,94.9,119.7,93.1,119.9,91.9z M119.6,92c-0.3,1.1-0.8,2.8-1.3,4.2c-0.1,0-0.2-0.1-0.4-0.1c0.3-1.6,0.5-3.1,0.6-3.8
		c-0.2,0.7-0.6,2.2-1.1,3.6c0,0,0,0,0,0c0.4-1.1,0.8-2.4,1.1-3.6c0,0,0.1,0,0.1,0c0,0,0,0,0,0.1c0,0,0,0,0-0.1
		C119,92.1,119.3,92,119.6,92z M116.8,95.4c0.2-0.8,0.3-1.6,0.4-2.4c0.2-0.1,0.4-0.2,0.6-0.3C117.4,93.7,117,94.7,116.8,95.4z
		 M119.2,89.7c0.1-0.4,0.2-0.7,0.2-1C119.4,89,119.3,89.4,119.2,89.7z M104.7,84.4c0.4-1.5,0.5-2.9,1-4.4c0-0.1,0-0.3,0.1-0.3
		c1.9,0.4,3.3,1.8,5.1,2.3c2.2,0.6,4.5,0.4,6.7,0.7c0.1,0.5,0.2,1.1,0.4,1.6c0.4,1.2,1.1,2.5,1.2,3.7c-0.2,0.7-0.5,1.5-0.8,2.3
		c-0.1,0.1-0.3,0.1-0.4,0.2c-0.8,0.3-1.5,0.5-2.3,0.8c0.2-0.9,0.3-1.6,0.3-1.6l-0.6,1.7c-0.2,0.1-0.3,0.1-0.5,0.2c0,0-0.1,0-0.1,0.1
		c0,0,0-0.1-0.1-0.1c0,0,0,0,0,0.1c-0.2,0.1-0.3,0.2-0.4,0.3c0-0.1,0-0.3,0-0.4c0.5-0.6,0.9-1,0.9-1c-0.7,0.3-1.4,0.8-1.9,1.4
		c-0.1,0-0.1-0.1-0.2-0.1c0.1-0.8,0.2-1.5,0.1-1.9c0,0-0.2,0.8-0.5,1.8c-0.3,0-0.6,0.1-0.8,0.3c0.3-0.8,0.4-1.5,0.4-1.5
		c-0.3,0.4-0.7,1.2-1.1,2c-0.2-0.9-0.4-1.8-1-2.5c0,0,0.1,0.5,0.2,1.3c-0.5,0.6-1,1.4-1.3,2.3c-0.1,0-0.2,0-0.2-0.1l0.3-1.3
		c0.5-0.7,0.9-1.1,0.9-1.1c-0.2,0.1-0.5,0.2-0.7,0.4l0.6-2.6c0,0-0.6,1.4-1.2,3.1c-0.2,0.2-0.4,0.4-0.5,0.6
		c-0.1-0.5-0.3-0.9-0.5-1.3c0.3-1.1,0.6-1.9,0.6-1.9c-0.3,0.3-0.5,0.8-0.8,1.4c0-0.1-0.1-0.2-0.1-0.2c0,0,0,0.2,0.1,0.4
		c-0.2,0.4-0.4,0.8-0.6,1.3c0-0.1-0.1-0.2-0.1-0.3c0.6-2.5,1.5-6.4,1.9-7.8c-0.4,1.1-1.5,4-2.4,6.8c0,0,0-0.1-0.1-0.1
		c0.1-0.5,0.3-0.9,0.4-1.1c-0.1,0.2-0.3,0.6-0.4,1c-0.2-0.3-0.3-0.6-0.5-0.9c0.3-1.2,0.6-2,0.6-2c-0.2,0.2-0.5,0.8-0.8,1.6
		c-0.6-1.1-1-2.2-1.1-3.5C104.4,85.4,104.6,84.9,104.7,84.4z M104.1,90.6c0.2,0.5,0.3,1,0.4,1.5c-0.1,0.2-0.1,0.4-0.2,0.5
		c0,0-0.1,0-0.1,0c-0.1-0.4-0.1-0.8-0.2-1.2C104,91.1,104,90.9,104.1,90.6z M103.8,89.9C103.8,89.9,103.8,90,103.8,89.9
		c0,0.3-0.1,0.5-0.1,0.7c-0.1-0.3-0.3-0.6-0.5-0.8c0,0,0.2,0.7,0.3,1.6c-0.1,0.4-0.2,0.7-0.2,1c-0.2,0-0.5-0.1-0.7-0.1
		c0.2-1,0.5-2.3,0.7-3.5C103.4,89.2,103.6,89.5,103.8,89.9z M102.4,87.4c0.2,0.3,0.3,0.6,0.5,0.8c-0.3,0.8-0.6,1.7-0.8,2.6
		C102.2,89.6,102.4,88.4,102.4,87.4z M102.2,87.2c-0.2,0.9-0.6,3-1,4.9c-0.1,0-0.2,0-0.3-0.1c0.2-1.5,0.5-3.7,1-5.4
		C102,86.8,102.1,87,102.2,87.2z M101,88.8c0.1-0.7,0.1-1.3,0.1-1.9c0-0.1,0.1-0.2,0.1-0.2c0,0-0.1,0-0.1,0.1c0-0.7,0-1.2-0.1-1.6
		c0,0.1,0.1,0.1,0.1,0.2c0.3,0.4,0.5,0.8,0.7,1.3C101.6,87.2,101.3,88,101,88.8z M88.5,86c0.1-0.4,0.2-0.8,0.4-1.2
		c0.4-0.9,0.9-1.7,1.5-2.5c0.5-0.5,0.9-0.9,1.5-1.2c1.3-0.6,2.4-1.3,3.6-1.9c0.6-0.3,1.2-0.3,1.8-0.4c0.3-0.4,0.7-0.8,1-1.2
		c0.2-0.4,0.3-0.8,0.5-1.1c0.1-0.2,0.3-0.4,0.5-0.3c0.1,0,0.1,0.2,0.2,0.4c0.4,0.8,1.2,1,1.7,1.7c0.5,0.8,0.4,1.7,0.3,2.6
		c-0.1,1.3-1,2.7-0.6,4.1c0,0.6-0.2,1.5-0.3,2.4c-0.5,0.5-1,1.4-1.3,2.2c0.2-1.1,0.3-2,0.3-2c-0.3,0.5-0.6,1.2-0.8,2.1
		c-0.3-0.9-0.7-1.7-1.3-2.4c0,0,0.1,0.5,0.3,1.3c-0.5,0.7-0.9,1.8-1.2,2.9c-0.1,0-0.1,0-0.2,0l0.2-1.8c0.4-0.7,0.7-1.2,0.7-1.2
		c-0.2,0.1-0.4,0.3-0.6,0.4l0.3-2.7c0,0-0.4,1.5-0.8,3.2c-0.2,0.2-0.3,0.4-0.5,0.7c-0.2-0.4-0.4-0.9-0.6-1.2c0.2-1.1,0.3-2,0.3-2
		c-0.2,0.3-0.4,0.9-0.6,1.5c-0.1-0.1-0.1-0.1-0.2-0.2c0,0,0,0.2,0.1,0.4c-0.2,0.7-0.5,1.6-0.7,2.4c0.2-2.1,0.7-7.6,1-9.3
		c-0.4,1.5-1.4,6-1.8,9.5c0,0,0,0,0,0c0.1-1.5,0.3-3,0.5-3.7c-0.2,0.6-0.6,2-1,3.6c-0.1,0-0.3,0-0.4,0c0.3-2.5,0.8-5.5,0.8-5.5
		c-0.3,0.4-1,3.3-1.5,5.4c-0.1-0.5-0.3-1-0.5-1.5c0.1-2.1,0.3-4,0.3-4c-0.3,0.8-0.5,2.1-0.7,3.3c-0.2-0.3-0.4-0.5-0.6-0.7
		c0,0,0.2,0.6,0.5,1.6c-0.1,0.5-0.1,1-0.1,1.3c-0.2,0-0.5,0-0.7-0.1c0.1-2,0.5-6.2,0.5-6.2c-0.4,0.8-0.8,2.8-1.1,4.6
		c0-1.5,0-3.1-0.3-4.2c0,0-0.2,3-0.4,5.7c-0.1,0-0.2,0-0.3,0C88.3,89.3,88.3,87.5,88.5,86z M86.9,88.7c0.1,0,0.1-0.1,0.2-0.1
		c-0.1,0.7-0.1,1.3-0.2,1.9c-0.1,0-0.2,0-0.3,0C86.7,89.9,86.8,89.3,86.9,88.7z M85.1,90.4c-0.2,0-0.3,0-0.5,0c0-0.1,0-0.1,0-0.1
		c0.2,0,0.4-0.1,0.5-0.1C85.1,90.2,85.1,90.3,85.1,90.4z M84.5,87c0.1,0.2,0.1,0.3,0.2,0.5c-0.1,0-0.2,0-0.3,0
		C84.5,87.3,84.5,87.2,84.5,87z M81.8,88c0.1,0.4,0.3,0.8,0.5,1.2c-0.1,0.3-0.2,0.7-0.3,1c-0.1,0-0.1,0-0.2,0
		C81.8,89.6,81.8,88.8,81.8,88z M79.3,89.1c0,0.4,0.1,0.7,0.1,1.1c0,0-0.1,0-0.1,0C79.3,89.8,79.3,89.4,79.3,89.1z M78,86.5
		c0,0.4-0.1,0.8-0.1,1.3c0-0.8-0.1-1.5-0.1-2.1C77.9,86,78,86.2,78,86.5z M77.5,88.4C77.5,88.4,77.5,88.4,77.5,88.4
		c0,0.8,0,1.5,0,1.7c0,0-0.1,0-0.1,0C77.4,89.6,77.4,89,77.5,88.4z M42.1,94.1c0-0.7,0.1-1.4,0.2-2c0.2,0.4,0.4,1.1,0.7,1.8
		C42.7,94,42.4,94,42.1,94.1z M45.1,93.4c0-0.4,0.1-0.7,0.1-1c0.1,0.3,0.2,0.6,0.3,1C45.3,93.4,45.2,93.4,45.1,93.4z M57.5,91.1
		c0.1-0.5,0.2-0.9,0.3-1.3c0.1,0.5,0.1,0.9,0.2,1.4c-0.1,0-0.3,0-0.4,0.1C57.6,91.2,57.6,91.2,57.5,91.1z M65.7,87.9
		c0.2,0.8,0.4,1.7,0.6,2.6c-0.1,0-0.2,0-0.3,0C65.9,89.7,65.8,88.8,65.7,87.9z M68.3,90.4c-0.2,0-0.4,0-0.5,0c0-0.3-0.1-0.6-0.1-0.9
		c0.2-0.7,0.5-1.5,0.7-2.1c0.1,0.6,0.2,1.7,0.3,2.9c-0.1-0.3-0.3-0.6-0.5-0.9C68.2,89.3,68.3,89.7,68.3,90.4z M70.6,89.6
		c0.2-0.5,0.3-0.9,0.5-1.2c0,0.7,0,1.3,0.1,1.9c-0.1,0-0.2,0-0.3,0C70.8,90,70.7,89.8,70.6,89.6z M73.5,90.2c0-0.4,0-0.9,0.1-1.3
		c0,0.4,0,0.9,0,1.3C73.6,90.2,73.5,90.2,73.5,90.2z M75.4,90.1c0-0.3,0-0.8,0-1.4c0,0,0-0.1,0-0.1c0,0.5,0,1,0,1.4
		C75.5,90.1,75.4,90.1,75.4,90.1z M76,87.6c0-0.1,0.1-0.1,0.1-0.2c0,0.3,0,0.5,0,0.8C76,88,76,87.8,76,87.6z M63.3,80.9
		c2.8-0.2,5.7-0.4,8.3-1.8c1.2,1.2,2.5,2.2,3.5,3.5c-0.1,0.2-0.1,0.5-0.1,0.8c0.1-0.4,0.1-0.6,0.1-0.8c0.3,0.4,0.6,0.8,0.9,1.3
		c0.2,0.3,0.3,0.7,0.4,1c-0.1,0.7-0.2,1.6-0.2,2.5c0,0-0.1,0.1-0.1,0.1c-0.1-1.3-0.4-2.5-0.7-3.3c0,0,0.1,1.8,0.2,3.8c0,0,0,0,0,0
		c0-1.2-0.1-2.5-0.3-3.3c0,0,0,1.4-0.1,3.1c-0.1-1.5-0.2-3.1-0.1-4.3c-0.1,0.7-0.3,1.9-0.4,3.1c-0.1-0.7-0.3-1.3-0.4-1.9
		c0-0.1,0-0.2,0-0.2c0,0,0,0-0.1,0.1c-0.4-1.6-0.8-2.5-0.8-2.5c0.2,0.6,0.3,1.7,0.4,3c0,0,0,0.1-0.1,0.1c-0.1-0.3-0.1-0.6-0.2-0.7
		c0,0,0,0.4,0.1,1.1c-0.3,0.7-0.4,1.6-0.6,2.4c-0.1-0.7-0.2-1.3-0.3-1.6c0.1,0.7,0.1,2.3,0.1,3.8c0,0,0,0,0,0
		c0.1-3.5-0.5-8.2-0.7-9.7c0.1,1.8,0,7.3-0.1,9.4c-0.1-0.8-0.2-1.7-0.4-2.5c0.1-0.2,0.2-0.4,0.2-0.4c-0.1,0.1-0.1,0.1-0.2,0.2
		c-0.1-0.7-0.3-1.2-0.5-1.6c0,0,0,0.9,0.1,2c-0.3,0.4-0.5,0.7-0.8,1.2c-0.1-0.2-0.2-0.5-0.4-0.7c-0.2-1.7-0.4-3.2-0.4-3.2l0,2.7
		c-0.2-0.2-0.4-0.4-0.6-0.5c0,0,0.3,0.5,0.6,1.3l0,2.1c0,0-0.1,0-0.1,0c-0.1-1.2-0.4-2.4-0.8-3.3c0.3-0.7,0.5-1.2,0.5-1.2
		c-0.7,0.6-1.2,1.4-1.5,2.2c-0.2-0.9-0.4-1.7-0.6-2.2c0,0,0.1,1.7,0.1,3.3c-0.1,0.2-0.1,0.3-0.1,0.5c-0.3-1.3-0.7-2.7-1.3-3.6
		c-0.1-1.3-0.1-2.5,0.1-3.1c0,0-0.3,1-0.5,2.6c0,0,0,0-0.1-0.1c0,0,0,0.1,0.1,0.2c-0.1,0.6-0.1,1.2-0.2,1.9c-0.3-1.2-0.5-2.3-0.7-3
		c0.3,1.7,0.4,4.3,0.4,6.1c-0.1,0-0.2,0-0.3,0c-0.2-2.6-0.4-5.4-0.4-5.4c-0.3,1-0.3,2.6-0.3,4.2c-0.1-1-0.3-2.1-0.5-3
		C63,84.6,63,82.8,63.3,80.9z M62.5,90.8c-0.1,0-0.1,0-0.2,0c0-0.3-0.1-0.6-0.1-1c0.1-0.4,0.2-0.7,0.3-0.9
		C62.6,89.5,62.6,90.2,62.5,90.8z M60.7,81.9c1.2,1.4,1,3.2,1.4,4.7c0.2,0.6,0.3,1.2,0.4,1.8c-0.1,0.1-0.2,0.3-0.4,0.5
		c-0.2-1.2-0.4-2.5-0.7-3.3c0,0,0.2,1.9,0.3,4c-0.2,0.4-0.3,0.8-0.4,1.2c0,0-0.1,0-0.1,0c-0.5-2-1.2-4.7-1.5-5.1
		c0,0,0.5,2.7,0.8,5.2c-0.1,0-0.3,0-0.4,0c-0.4-1.4-0.7-2.7-0.9-3.3c0.2,0.7,0.3,2,0.5,3.4c0,0,0,0,0,0c-0.3-2.4-0.9-5.3-1.3-7.3
		C58.9,83.1,59.9,82.6,60.7,81.9z M57.4,84.9c0.2-0.4,0.4-0.7,0.7-1c0.3,2.3,0.6,5.6,0.7,7.2c0,0,0,0,0,0c-0.2-0.8-0.4-1.6-0.6-2.3
		c0.1-0.2,0.1-0.4,0.1-0.4c-0.1,0.1-0.1,0.1-0.2,0.2c-0.2-0.6-0.4-1.2-0.6-1.5c0,0,0.1,0.9,0.3,2c-0.2,0.4-0.5,0.8-0.6,1.2
		c-0.1-0.2-0.3-0.5-0.5-0.7c0-0.1-0.1-0.3-0.1-0.4C56.6,87.7,56.7,86.2,57.4,84.9z M55,89.2c0.1,0.5,0.3,1.4,0.6,2.4
		c-0.1,0-0.1,0-0.2,0c-0.1-0.1-0.2-0.3-0.3-0.4c0,0,0,0.2,0.1,0.5c-0.2,0-0.4,0-0.5,0.1c0-0.1-0.1-0.2-0.1-0.3
		C54.7,90.6,54.9,89.8,55,89.2z M53.6,91.8c-0.1,0-0.2,0-0.3,0c-0.2-0.7-0.4-1.6-0.6-2.5C53,90.2,53.3,91,53.6,91.8z M47.9,92.8
		c-0.1,0-0.2,0-0.3,0.1c0-0.1,0-0.2-0.1-0.3c-0.1-0.5-0.1-1-0.3-1.5c-0.1-0.1-0.1-0.2-0.2-0.3c0-0.2,0-0.3,0-0.4
		c-0.2-0.7-0.3-1.3-0.5-2C46.8,89.1,47.4,91,47.9,92.8z M41,86.2c0.2-1,0.2-2,0.4-3c0.1-0.5,0.1-1,0.2-1.6c0-0.2,0-0.5,0.1-0.4
		c0.7,0.6,1.3,1.2,1.8,1.9c0.7,0.9,1.2,1.8,1.4,2.9c0.1,0.6,0.3,1.1,0.4,1.7c-0.5-1.4-0.9-2.6-1.2-3.2c0.5,1.6,1.6,6.3,2.1,8.7
		c0,0-0.1,0-0.1,0c-0.3-0.6-0.5-1.3-0.8-1.8c0-0.3,0.1-0.4,0.1-0.4c-0.1,0.1-0.1,0.2-0.1,0.2c-0.3-0.6-0.6-1.1-0.8-1.4
		c0,0,0.3,0.9,0.6,1.9c-0.2,0.4-0.3,0.9-0.4,1.3c-0.2-0.2-0.4-0.4-0.5-0.6c-0.6-1.6-1.2-3.1-1.2-3.1l0.6,2.6
		c-0.2-0.2-0.4-0.3-0.7-0.4c0,0,0.4,0.5,0.9,1.1l0.3,1c-0.1,0-0.2,0-0.3,0.1c-0.4-0.8-0.8-1.5-1.2-2c0.1-0.8,0.2-1.3,0.2-1.3
		c-0.5,0.7-0.8,1.6-1,2.5c-0.3-0.6-0.6-1.2-0.8-1.6c0.1-1.1,0.3-2.3,0.3-3.4C41.1,87.4,40.9,86.8,41,86.2z M40.7,91.7
		c0.2,0.6,0.5,1.5,0.7,2.5c0,0,0,0.1,0,0.1c-0.1,0-0.2,0.1-0.4,0.1c-0.2-0.2-0.3-0.5-0.5-0.8C40.6,93,40.6,92.3,40.7,91.7z
		 M31.1,72.9c0.4,0.1,0.9,0.2,1.4,0.2c0.9,0.1,1.9,0,2.5-0.6c0.5,0.5,0.5,1.2,0.8,1.9c0.1,0.2,0.2,0.4,0.3,0.6
		c0.3,0.9,0.7,1.7,1.3,2.5c0,0.1,0,0.2,0,0.2c0.3,0.5,0.6,1,1.1,1.3c0.1,0.9,0.1,1.8,0.3,2.8c0.1,0.4,0.3,0.8,0.3,1.2
		c0.3,1.3,0.5,2.6,0.4,4c0,0.5-0.3,0.9-0.3,1.4c-0.1,0.9,0.2,1.8,0.2,2.7c0,0.3,0,0.7,0,1c-0.5-0.5-1.1-1-1.8-1.2c0,0,0.4,0.4,0.9,1
		c-0.1,0.9,0,2,0.2,3c-0.1,0-0.1,0-0.2,0.1l-0.6-1.6c0-0.8,0.1-1.4,0.1-1.4c-0.2,0.2-0.3,0.4-0.4,0.7l-0.9-2.5c0,0,0.3,1.5,0.7,3.2
		c-0.1,0.3-0.1,0.5-0.1,0.8c-0.3-0.3-0.7-0.6-1.1-0.9c-0.3-1.1-0.5-1.9-0.5-1.9c0,0.4,0,1,0.1,1.7c-0.1,0-0.2-0.1-0.2-0.1
		c0,0,0.1,0.1,0.3,0.3c0.1,0.8,0.3,1.6,0.4,2.5c-0.7-2-2.6-7.1-3.1-8.9c0.3,1.5,1.2,5.9,2.3,9.2c0,0,0,0,0,0
		c-0.5-1.4-0.9-2.7-1.1-3.4c0.1,0.6,0.3,2,0.6,3.5c-0.1,0-0.3,0.1-0.4,0.1C33.7,94,33,91.2,33,91.2c-0.1,0.4,0.2,2.2,0.6,4
		c-0.6-2.7-1.3-5.2-1.8-7.9c-0.2-0.9-0.4-1.7-0.4-2.5c-0.1-0.7-0.2-1.3-0.3-2c0-0.2-0.2-0.4-0.2-0.6c0.1-0.9-0.4-1.7-0.2-2.6
		c-0.3-0.4-0.4-1-0.5-1.4c-0.3-2-0.4-4-0.5-6C30.2,72.4,30.6,72.8,31.1,72.9z M39.3,93.2c0,0.2,0,0.5-0.1,0.7c0,0.3,0,0.7-0.1,1
		c0,0,0,0,0,0c-0.2-1.1-0.4-2-0.5-2.6C38.8,92.5,39.1,92.9,39.3,93.2z M37.2,95.4c-0.1,0-0.3,0.1-0.4,0.1c-0.1-0.5-0.3-1-0.4-1.5
		c0.3,0.3,0.5,0.7,0.8,1C37.2,95.2,37.2,95.3,37.2,95.4z M32,95c-0.2-0.1-0.5-0.3-0.7-0.3c0,0,0.4,0.4,0.9,0.9l0,0.1l-0.1,0.6
		c0,0-0.1,0.3-0.2,0.5c-0.4-1-0.9-2.3-1.3-3.4c0-0.3,0-0.6-0.1-0.7c0-0.3-0.4-2.6-0.7-3.8c-0.3-1.2-0.4-4.2-0.4-4.2L32,95z
		 M30.9,96.1c0-0.1-0.1-0.2-0.1-0.3c0,0,0-0.1,0-0.1C30.8,95.9,30.9,96,30.9,96.1z M27.6,98.9c-0.1-0.6-0.2-1-0.3-1.4
		c0.3,0.3,0.6,0.7,0.9,1.1C28,98.7,27.8,98.8,27.6,98.9z M29.2,98.2c-0.1,0-0.1,0-0.2,0.1c-0.1-0.5-0.3-0.9-0.4-1.3
		c-0.1-0.5-0.2-0.9-0.3-1.3c0.3,0.8,0.6,1.6,0.8,2.3C29.2,98,29.2,98.1,29.2,98.2z M124.6,98.5C124.6,98.5,124.6,98.5,124.6,98.5
		c0-0.1,0.1-0.2,0.2-0.3c0.1-0.1,0.1-0.2,0.2-0.3c0,0.2,0,0.4,0.1,0.6c0,0.1,0,0.1,0,0.2C124.9,98.6,124.8,98.5,124.6,98.5z
		 M127.7,99.3c0,0-0.1-0.1-0.1-0.1c0.1-0.1,0.1-0.2,0.2-0.2C127.8,99,127.8,99.1,127.7,99.3z M135,103.9c-0.1-0.1-0.2-0.1-0.3-0.2
		c0.3-0.9,0.7-2,1.1-3.2C135.6,101.5,135.3,102.8,135,103.9z"/>
	<path fill="#2D7F67" d="M135.9,96.8c0.1-0.4,0.1-0.7,0.2-1C136,95.8,136,96.2,135.9,96.8z"/>
	<path fill="#2D7F67" d="M23,97.9c0-0.2-0.1-0.4-0.1-0.4C22.9,97.5,23,97.7,23,97.9z"/>
	<path fill="#2D7F67" d="M21.8,92c-0.1-0.3-0.1-0.5-0.1-0.5C21.7,91.7,21.7,91.8,21.8,92z"/>
	<path fill="#2D7F67" d="M17,97.1c-0.1-0.6-0.2-0.9-0.2-0.9C16.9,96.4,16.9,96.8,17,97.1z"/>
	<path fill="#2D7F67" d="M72.6,86.4c0-0.2,0-0.3-0.1-0.4C72.5,86,72.6,86.1,72.6,86.4z"/>
	<path fill="#2D7F67" d="M59.1,87.7c0-0.2-0.1-0.3-0.1-0.4C59,87.3,59,87.5,59.1,87.7z"/>
	<path fill="#2D7F67" d="M71.9,80.4c0-0.2,0-0.4-0.1-0.5C71.9,79.9,71.9,80.1,71.9,80.4z"/>
	<path fill="#2D7F67" d="M44.1,84.5c-0.1-0.2-0.1-0.4-0.2-0.5C43.9,84.1,43.9,84.2,44.1,84.5z"/>
	<path fill="#2D7F67" d="M93.8,87.4c0.1-0.2,0.1-0.4,0.1-0.4C93.9,87,93.8,87.2,93.8,87.4z"/>
	<path fill="#2D7F67" d="M34.3,92.7c0-0.2,0-0.4,0-0.4C34.2,92.3,34.3,92.5,34.3,92.7z"/>
	<path fill="#2D7F67" d="M108.9,84.2c0.1-0.3,0.2-0.5,0.2-0.5C109,83.8,108.9,84,108.9,84.2z"/>
	<path fill="#2D7F67" d="M106.8,89.7c0.1-0.2,0.2-0.4,0.2-0.4C106.9,89.4,106.8,89.6,106.8,89.7z"/>
	<path fill="#2D7F67" d="M64.2,84.5c-0.1-0.4-0.2-0.7-0.3-0.9C64,83.6,64.1,83.9,64.2,84.5z"/>
	<path fill="#2D7F67" d="M95.2,81.6c0.1-0.3,0.1-0.5,0.1-0.5C95.2,81.2,95.2,81.3,95.2,81.6z"/>
	<path fill="#2D7F67" d="M33.1,86.8C33,86.5,33,86.3,33,86.3C33,86.4,33,86.6,33.1,86.8z"/>
	<path fill="#2D7F67" d="M100,47.2c0,0,1.3-2.9,3.7-2.1c0,0-2.8-1.2-3.6,0.5c0,0-1.5-1.7-3.5-0.7C96.6,44.9,99.7,45.1,100,47.2z"/>
	<path fill="#2D7F67" d="M80.3,86c0-0.2,0.1-0.4,0.1-0.4C80.4,85.7,80.3,85.8,80.3,86z"/>
	<path fill="#2D7F67" d="M57.8,81.9c0-0.2-0.1-0.4-0.1-0.5C57.6,81.4,57.7,81.6,57.8,81.9z"/>
	<path fill="#2D7F67" d="M50.8,86.2c-0.1-0.3-0.2-0.7-0.4-0.9C50.4,85.4,50.6,85.7,50.8,86.2z"/>
	<path fill="#2D7F67" d="M81,80.1c0-0.3,0.1-0.5,0.1-0.5C81,79.7,81,79.9,81,80.1z"/>
	<path fill="#2D7F67" d="M62.3,41.9c0,0,0.1-2.8,2.4-3c0,0-2.8-0.1-2.8,1.6c0,0-1.8-0.9-3.2,0.6C58.7,41.1,61.4,40.1,62.3,41.9z"/>
	<path fill="#2D7F67" d="M28.3,91.9c-0.1-0.6-0.2-0.9-0.2-0.9C28.2,91.2,28.2,91.6,28.3,91.9z"/>
	<path fill="#2D7F67" d="M92.6,52.5c0,0,0.7-1.5,1.9-1.1c0,0-1.4-0.6-1.9,0.2c0,0-0.8-0.9-1.8-0.4C90.8,51.3,92.5,51.4,92.6,52.5z"
		/>
	<path fill="#2D7F67" d="M66.7,46.1c0,0,0.8-1.8,2.4-1.3c0,0-1.8-0.8-2.3,0.3c0,0-0.9-1.1-2.3-0.5C64.5,44.6,66.5,44.7,66.7,46.1z"
		/>
</g>
</svg>
