<?xml version="1.0" encoding="utf-8"?>
<!-- Generator: Adobe Illustrator 18.1.0, SVG Export Plug-In . SVG Version: 6.00 Build 0)  -->
<svg version="1.0" id="Layer_1" xmlns="http://www.w3.org/2000/svg" xmlns:xlink="http://www.w3.org/1999/xlink" x="0px" y="0px"
	 viewBox="0 0 150 150" enable-background="new 0 0 150 150" xml:space="preserve">
<g>
	<path fill-rule="evenodd" clip-rule="evenodd" fill="#FFE500" d="M80.4,91.2c2-4.3,1.8-12.3-3.3-14.3c1.4,6.2-4.1,11.3-10.5,10.9
		c-10-0.3-14.8-8.8-19.1-16.2c-2.1,1.5-2.4,4.6-3.2,6.8c-0.3,1.1-0.5,2.4-0.7,4c-0.8,4.6-2,10.7-6.6,14.3c-3.5,2.8-8.2,2.5-5.6,5.8
		c2.2,2.9,5.1,5.5,8.2,7.7c2.5,1.8,5.4,4.2,9.5,4.5c6.7,0.5,8.5-6.7,9.1-11.7c0.3-1.6,0.4-3,0.9-3.7c0.7-0.3,1.6-0.6,2.4-0.6
		c5.6,0.1,11.2-0.3,15.6-3.9C78.5,93.7,79.5,92.5,80.4,91.2z"/>
	<path fill-rule="evenodd" clip-rule="evenodd" fill="#0071B5" d="M50.3,58.3c0.6,0.2,1.1,0.9,1.2,1.4c0.3,5.8-0.5,12,3.7,16.5
		c4.2,4.5,11.9,8.5,17.9,4.9c-5.3,0-9.9-3.7-11.2-8.9c-1.1-5.1,0.3-10.3,3.9-14.3c3.9-4.3,9-6.2,14.3-8c1-0.4,0.8-1.9-0.3-2.2
		c-1.4-0.9-2.9-1.6-4.5-2.1c-1.6-0.5-3.1-0.9-4.4-1.2c-4.3-1-13.5-1.2-18.3-7.4c-2.8-3.5-2.5-8.2-5.8-5.6c-2.9,2.2-5.5,5.1-7.7,8.2
		c-1.8,2.5-4.2,5.4-4.5,9.5c-0.5,6.7,6.7,8.5,11.8,9.1C48,58.1,49.5,58.2,50.3,58.3z"/>
	<path fill-rule="evenodd" clip-rule="evenodd" fill="#EC2127" d="M118.2,46.5c-2.2-2.8-5.1-5.5-8.2-7.7c-2.5-1.8-5.4-4.2-9.5-4.5
		c-9-0.6-9.1,12.3-9.4,15.7c-0.1,1.1-0.5,2-1.5,2.4c-6.1,1-13,0.2-17.9,4.9c-3.9,4-6,9.4-5.1,14.9c0.6,2,1.5,4.5,3.6,5.2
		c-2.4-5-0.6-11.2,4.6-13.7c12-5.9,22.1,5.6,26.1,16.1c0.1,0.2,0.9,0.2,1-0.4c0.9-1.4,1.6-2.9,2.1-4.5c0.5-1.6,0.9-3.1,1.2-4.4
		c1-4.3,1.2-13.5,7.4-18.3C116.1,49.6,120.8,49.9,118.2,46.5z"/>
	<path fill-rule="evenodd" clip-rule="evenodd" fill="#01A64F" d="M99.2,90.8c-1.1-0.1-1.9-0.6-2-2.5c-0.2-6.9-0.7-15-7.1-19.3
		c-4.4-3-10.4-2.9-14.5,0.5c-1.6,1.1-4.2,3.4-2.5,5.9c1.7-2.2,4.3-3.7,7.1-3.1c2.4,0.8,4.5,1.9,5.6,4.3c5.4,11.3-5,20.3-13.5,25.7
		c0.5,0.7,1.4,0.9,2,1.4c1.5,0.5,3,0.9,4.3,1.2c4.3,1,13.5,1.2,18.3,7.4c2.8,3.5,2.5,8.2,5.8,5.6c2.9-2.2,5.5-5.1,7.7-8.2
		c1.8-2.5,4.2-5.4,4.5-9.5C115.6,91.2,102.6,91.1,99.2,90.8z"/>
	<path fill-rule="evenodd" clip-rule="evenodd" fill="#0071B5" d="M36.2,27.2c3.1,4.5,2,10.8-2.6,13.9c-4.6,3.1-10.8,2-13.9-2.6
		c-3.1-4.6-2-10.8,2.6-13.9C26.8,21.5,33,22.6,36.2,27.2z"/>
	<path fill-rule="evenodd" clip-rule="evenodd" fill="#EC2127" d="M124.5,23.3c3.1,4.6,2,10.8-2.6,13.9c-4.5,3.1-10.8,2-13.9-2.6
		c-3.1-4.6-2-10.8,2.6-13.9C115.1,17.6,121.4,18.8,124.5,23.3z"/>
	<path fill-rule="evenodd" clip-rule="evenodd" fill="#01A64F" d="M126.9,110.7c3.1,4.5,2,10.8-2.6,13.9c-4.6,3.1-10.8,2-13.9-2.6
		c-3.1-4.6-2-10.8,2.6-13.9C117.5,105,123.8,106.1,126.9,110.7z"/>
	<path fill-rule="evenodd" clip-rule="evenodd" fill="#FFE500" d="M41.3,113.5c3.1,4.5,2,10.8-2.6,13.9c-4.5,3.1-10.8,2-13.9-2.6
		c-3.1-4.5-2-10.8,2.6-13.9C31.9,107.8,38.1,109,41.3,113.5z"/>
	<path opacity="0.33" fill-rule="evenodd" clip-rule="evenodd" fill="#01A64F" d="M99.2,90.8c-1.1-0.1-1.9-0.6-2-2.5
		c-0.2-6.9-0.7-15-7.1-19.3c-0.9-0.6-2-1.1-3-1.5c-1.2,2.1-2.5,4.1-3.9,6.1c1.1,0.7,2.1,1.7,2.7,3c5.4,11.3-5,20.3-13.5,25.7
		c0.5,0.7,1.4,0.9,2,1.4c1.5,0.5,3,0.9,4.3,1.2c4.3,1,13.5,1.2,18.3,7.4c2.8,3.5,2.5,8.2,5.8,5.6c2.9-2.2,5.5-5.1,7.7-8.2
		c1.8-2.5,4.2-5.4,4.5-9.5C115.6,91.2,102.6,91.1,99.2,90.8z"/>
</g>
</svg>
