<?xml version="1.0" encoding="utf-8"?>
<!-- Generator: Adobe Illustrator 18.1.0, SVG Export Plug-In . SVG Version: 6.00 Build 0)  -->
<svg version="1.1" id="Layer_1" xmlns="http://www.w3.org/2000/svg" xmlns:xlink="http://www.w3.org/1999/xlink" x="0px" y="0px"
	 viewBox="0 0 150 150" enable-background="new 0 0 150 150" xml:space="preserve">
<g>
	<path fill="#3B3A3C" d="M93.8,93.6L93.8,93.6L93.8,93.6c0.8,1,2.5,1.8,3.4,2.4c0.5,0.3,1.1,0.9,1.7,1.1c-0.9-2-2.5-4.1-3.4-6.1
		c-0.3-0.6-0.3-1.3-0.6-1.9c-0.9,0.4-2,0.6-2.9,0.6c0.4,1,0.8,2,1.3,2.9C93.4,93,93.6,93.2,93.8,93.6L93.8,93.6z"/>
	<path fill="#3B3A3C" d="M35.9,88.4c0.9,1.8,2.5,2.2,4.1,2.7c0.8,0.3,1.6,0.5,2.5,0.7c0.5,0.1,1.1,0.2,1.6,0.3
		c1.1,0.1,1.6,0.1,2.5-0.4c0.3-0.2,0.6-0.4,0.9-0.6c1.2-0.9,2.2-1.9,3.1-3.1c0.3-0.4,0.5-0.8,0.8-1.2c0.4-0.7,0.4-1,0.7-1.2
		c0.2-0.2,0.4-0.3,0.7-0.3c-0.3-0.1-0.7-0.2-1-0.1c-1.3,0.1-2.3,0.8-3.6,1.3c-0.7,0.3-1.4,0.2-1.9-0.3c-0.1,0.1-0.3,0.2-0.4,0.3
		c-1.1,0.6-2.9,1.1-3.7,1.1c-2.9-0.1-5.7-1.1-7.9-3c0.4,2-1.1,3.6-1.9,4.2c-0.5,0.3-0.5,0.1-0.4-0.3c0.8-2.1,1-4.4,0.8-5.4
		c-0.2-0.2-0.3-0.4-0.4-0.6c0,0.5-0.2,1.2-0.3,1.8c-0.4,1.2-1,2.2-1.3,2c-0.1,0,0.2-2.5,0.4-3.3c0.1-0.7,0-1.6-0.1-2.3
		c-0.2-0.3,0,0-0.2-0.4c-1.3-1.2-6.4,5.8-4.9,5.2l0.1-0.1h0v0v0h0l0,0v0h0v0v0l0,0h0l0,0v0l0,0v0h0l0,0v0v0h0l0,0l0,0l0,0h0v0l0,0v0
		h0v0l0,0l0,0h0v0v0h0v0h0v0l0,0l0,0l0,0v0l0,0h0v0h0v0v0h0l0,0l0,0v0l0,0l0,0h0v0l0,0c0.9-1.4,1.6-2.6,3.1-3.5c0.1,0,0.1,0,0.2,0
		c0.2,0,0.4,0.2,0.4,0.4c0,2.1-0.1,4.2-0.1,6.3v0.1l0,0.1h0l0,0.1v0.1v0.1v0.2v0.1v0.1l0,0.1v0.1v0.1V89v0.1v0.2v0.1l0,0.1v0.1v0.1
		l0,0l0.1,0h0c0.2,0,0.4,0.1,0.6,0.1h0h0h0.1h0h0.1h0h0h0.1h0h0h0H31h0l0,0h0h0.1l0,0h0.1l0,0h0.1h0h0h0l0,0h0l0,0h0.1h0h0.1l0,0
		h0.1h0l0,0h0h0l0,0h0l0,0h0.1l0,0h0h0c0.2-0.1,0.5-0.1,0.7-0.2c0.3-0.1,0.5-0.1,0.8-0.2C33.6,88,35,86.7,35.9,88.4z"/>
	<path fill="#3B3A3C" d="M50.5,93.7c0.8-0.4-2,0.1-2.2,0.1c-1,0.2-2.5,0.9-2.4,1.1C46.3,95.7,49.9,94.1,50.5,93.7z"/>
	<path fill="#3B3A3C" d="M30,132.8c1.1-1.5,2.3-2.9,3.3-4.2c1.2-1.5,2.2-2.8,2.9-3.7l0,0c1.1-1.5,2.2-5.2,3.4-9.1
		c1.7-5.8,3.6-12.1,6.2-13.6h0v0c1-0.6,2.2-0.9,3.4-0.8c3,0.1,8.5,5.1,10,7.9c1.1,2.2-2.9-1.6-3.1-1.1c-0.1,0.3,0.6,1.5,3.1,6
		c0.5,0.9,2.4,3.4,4.6,4.7c1.9,1.1,2.8,0.9,4.9,1.7c0.7,0.3,0.4,0.7-2.5,1c-2.4,0.2-4.8,0-4.9,0.1c-0.6,0.6-0.5,1.6,0.6,2.9
		c0.7,0.4,1.4,0.6,2.1,0.7c1,0.1,2-0.1,3.3-0.6h0c1.1-0.4,2.3-1,3.6-1.9c1-0.6,4.4-2.2,4.8-3.1c0-0.1-0.1-0.2-0.3-0.5
		c-0.5-0.7-1.3-2-1.4-5c-0.1-3.1-1.8-7.9-3.1-11.2c-0.7-1.6-1.4-3.2-2.4-4.6c-4.7,1.6-9.6,2-14.3,3.2c-0.9,0.3-1.4-1.8-1.5-2.3
		c-0.2-0.9-0.1-1.4-0.3-2.1c-1.1,0.4-2.5,0.9-3.7,1.8l0,0l0,0l0,0c-1.8,1.5-3.4,2.5-4.6,2.8c-1.4,0.3-2.5-0.3-3.3-1.9
		c-0.5-0.9-1.6-1.3-2.8-1.7c-0.8-0.2-1.5-0.5-2.2-0.9l0,0c-0.4-0.2-0.7-0.7-1-0.9c-0.2-0.1-0.3-0.2-0.4-0.5
		c-0.2-0.5-0.3-1.9-0.3-3.4c0-0.4,0-0.9,0-1.3c-0.3,0.7-0.7,1.4-1.1,2.1c-1.1,2.1-3.8,4.3-3,5.3c1-0.9,2.6-2.2,2.5-0.4
		c-0.1,1.1-1.6,6.5-2.4,8.3c-3.6,7.6-5.1,6.5-6.9,9.3c-0.6,1,2.5,0,6.4-3.6c-0.6,1.7-2.4,7-3.5,9.6c-0.6,1.4-1.1,3-1.8,4.6
		C26.1,128.5,28,130.7,30,132.8z"/>
	<path fill="#3B3A3C" d="M30.7,79.1L30.7,79.1L30.7,79.1L30.7,79.1c2.5,4,6.3,7.3,11.2,7.5c0.8,0,2.3-0.4,3.3-1
		c0.1-0.1,0.3-0.2,0.4-0.2c-0.3-0.4-0.3-0.6-0.5-0.6c-0.6-0.2-1.2,0-1.9,0c-1,0-2.1-0.2-2.9-0.4c-0.5-0.2-0.9-0.3-1.4-0.6
		c-3.9-1.6-6.9-4.9-8.2-8.9c-0.1-0.3-0.3-1.6-0.4-1.9c-0.5,0.3-0.4,1.3-0.9,1.6c0,0.1-0.1,0.1-0.1,0.2c-0.3,0.4,0,1.3,0.2,1.7
		C29.7,77.3,30.2,78.2,30.7,79.1z"/>
	<path fill="#3B3A3C" d="M89.6,56.6c-3.7,1.4-9.8,4.2-13.5,6.9c-0.4-0.5-3.6,0.4-4.2,0.5c-2,0.4-4,0.8-6.1,1.2
		c-0.3-0.8-0.4-1.6-1.4-1.6l-8.9-0.4c-0.1-0.5-0.2-1.4-0.2-2.3c0-0.7,0.3-1.5,0.2-1.7c0-0.1-0.8-0.3-1.1-0.5
		c-1.1-0.5-0.3-0.5-2.6-3.5c-0.6-0.6-1.1-0.7-1.5-1c0,0.1,0.1,0.2,0.1,0.3c0.1,0.5,0.3,1.5-0.3,1.8c-0.3,0.1-0.8,0-1.2-0.1
		c-1.1-0.4-2-1.4-2.7-2.3c0,0.1,0,0.3-0.1,0.4c-0.1,0.2,0,0.5,0.1,0.7c0.1,0.4,0.2,0.8,0,1.3c-0.4,0.4,0.3,1.1,0.4,1.1
		c0.3,0.4,0.2,0.6,0.1,0.9c0,0.1-0.1,0.2,0,0.4c0.2,0.3,0.4,0.6,0.6,0.9c0,0.3-0.1,0.4,0,0.6l0,0c0.1,0.1,0.3,0.4,0.4,0.6
		c0.2,0.2,0,0.4,0.1,0.7c0.1,0.2,0.4,0.5,0.5,0.7c0.4,0.4,1.2,0.5,1.8,0.6c0.4,0.1,1.3,0.1,1.8,0.1c3.9,0.4,7.9,0.9,11.8,1
		c-0.6,0.6-1,1.3-1.1,2.2c-0.2,1.3-0.3,2.6-0.2,3.9c0.1,0.8,0.3,1,0.5,1.8c0-0.7-0.1-0.8,0-1.5c0.1-1.5,0-3.1,0.4-4.6
		c0.3-0.8,0.7-1.6,1.5-1.9c0.4-0.2,0.4,0.7,0.6,1.1c0.1,0.2,0.3,0.3,0.4,0.2l6.6-1.2c1.1-0.2,2.1-0.4,3.3-0.5c0.5,0.3,1,0.4,1.5,0.6
		c2.1-1.1,4.4-2.3,6.4-3.2c4.4-2.1,12.7-3.4,14.6-2.5c1.4,0.7-3,3.6-4.5,3.7c-5.5,0.3-9.7,0.5-13.9,2.4c-0.3,0.1-0.7,0.3-1.1,0.5
		l0,0l0.1,0l0,0l0.1,0.1h0l0,0l0,0l0,0l0,0l0,0l0.1,0l0,0l0.1,0l0,0l0,0l0,0c0.3,0.2,0.6,0.3,0.8,0.6v0l0,0h0l0,0v0v0h0l0,0v0
		c0.4,0.6,0,1.3-0.4,1.8c1.5-0.4,3.3-1.1,4.8-0.4c4.5-1.1,12.7,2.6,14.9,6.8c2.4,4.4-3.7,15.8-6.6,8c-1.1-3-2.4-8.5-4.3-11.1
		c-0.3-0.4-1.3-1.4-2.2-2.1c0.8,1.2,1.4,2.9,1.7,4.2c0.1,0.6,0.6,2.6,0.8,4.9c0.4,3.9,0.4,8.5-1.2,7.2c-1.2-1.1-1.3-5.5-1.7-7.2
		c-0.1-0.4-0.6,0-0.7-0.2c-0.2-0.3-0.8,3.7-0.9,3.4c-0.2,1.1,0.1,2.1,0.8,3l0,0c0.4,0.5,0.7,0.8,1.2,1.2c3,3.2,8.7,3.9,11.3-0.1
		c1.1-0.8,2-1.2,3.4-1.7c1.5-0.5,3.2-0.7,4.8-0.9c1.2-0.1,2.5-0.3,3.8-0.6c1.8-0.5,3.6-1.4,5.2-3.4c0.2-0.4,0.5-0.8,0.9-1.2
		c0.2-0.2,0.4-0.4,0.8-0.7c0.3-0.2,0.5-0.9,0.6-1.6c-0.9,0.8-2.5,1.3-4.1,0.9c-5-1.3-14.1-9.5-13.7-9.4c2.5,0.9,12.6,6.6,16.5,5.8
		c2-0.4-1.1-2.6-3.5-3.3c-0.4-0.1-11.4-3.1-14.1-5c-0.4-0.3-0.5-0.5-0.1-0.5c0.1-0.1,0.2-0.1,0.4-0.1c1.8,0,7.1,0.8,10,1
		c2.1,0.1,3,0.3,4.5-0.5c-0.2-0.7-1.1-1.6-2.7-1.9c-2.2-0.5-7.1-0.2-9.2-0.1c-1.6,0.1,0.5-1,2.8-1.6c2.9-0.8,4.3-3.8,0.4-5.2
		C99.7,54.1,94,54.6,89.6,56.6z"/>
	<path fill="#3B3A3C" d="M112.7,86.8c1.2,0.3,4.2,5.8,3,5.5c-2.8-4.1-4.4-4.1-6.1-4.2c-0.3,0,2.2,2.7,1.4,3.2
		c-0.2,0.2-1-0.8-1.9-1.5c-2-1.7-3.6-1.8-5.8-0.8c-1,0.5-1.9,1.6-2.4,2c0.8,1.3,1.7,2.6,2.3,3.9c0.3,0.5,1.2,2.7,1.1,3.1
		c-0.1,0.6-0.4,0.5-1,0.9c-0.3,0.2-0.6,0.3-0.9,0.5c0.7,0.5,1.3,0.9,2,1.3c0.4,0.3,0.7,0.5,1,1c0,0,0.1,0,0.1,0
		c-0.1-1.9,0.3-3.8,0.9-5.6l0-0.1c0.4-1.2,0.7-2.4,0.9-3.9c0.1-1.3,0.5-1.8,1-1.8c0.6,0.1,1.3,1.1,1.9,2c1.5,2.4,3,6.3,5.5,7.9
		c0.8-0.7,1.6-2,2.1-2.9C119.5,95,116.6,86,112.7,86.8z"/>
	<path fill="#3B3A3C" d="M110.3,126.2c-0.4,0.2-0.7,0.5-1.2,0.5c-1.2,0,0.6-1.4,1.9-3.6c1.1-1.9,1.6-4,0.7-3.8
		c-0.1,0-0.1,0.2-0.4,0.3c-0.3,0.7-0.8,1.5-1.3,2.2c-1.9,2.5-5.5,4.2-5,3c-0.4-0.3,1.1-3.1,3-5.4c1.8-2.2,4.3-4.1,4-4.5
		c-0.1-0.1-0.3-0.2-0.7,0c-1,0.5-2.7,1.3-4.9,4.2c-1.6,2-2.6,4.7-2.9,5.6c-1.1,0.8-1.6-4.1-0.8-6.3c1-3.3,1.5-10.7,0.5-17.5
		c-0.5-0.3-1.1-0.7-1.6-1.1c-0.4,0.2-0.8,0.5-1.1,0.7c-1,0.4-1,0.5-1.1-0.9c0-0.6-0.2-1-0.4-1.5c-0.3-0.2-1.9-1.3-3.3-2.2
		c-0.8-0.5-1.8-1-2.4-1.7c0.1,0.3,0.1,0.6,0.2,1c1.1,4.5,1.5,8.9,1.9,13.5c0.6,6.8,1.1,13.6,4.1,18.8c1.1,2,2.8,3,5,3.4
		c4,0.8,8.7,0.3,12.6-0.8c2-0.5,3.8-0.3,5.5-0.2c0.4,0,0.8,0,1.1,0.1c0.2,0,0.9-2.5,1.2-3.6c0.1-0.2,0.1-0.3,0.1-0.4
		c0.4-1.5,1.2-2.3,1.8-3.1c0.5-0.6,0.8-1.1,1.2-1.8l0,0l0,0c0.6-1.8,0.6-3.3,0.3-5c-0.9,3-10.1,7.8-11.4,8.5
		c-3.2,1.7,0.7-2.5,0.9-3.6c0.7-1.4,0.5-2.8-0.6-2.2c-0.2,0.1-0.4,0.4-0.8,0.7c-0.6,0.8-1.2,1.7-1.8,2.5
		C113,123.9,111.2,125.8,110.3,126.2z"/>
	<path fill="#BF2026" d="M75.6,11.5C39.4,11.5,10,43.2,10,82.1c0,13.1,3.3,25.2,9.1,35.7c2.4-5.9,5-13.1,4.9-15.3
		c-0.1-2-0.1-4.8-0.1-7.9c0-3,0.3-6.3,0.7-9.3c-0.7-0.7-0.9-1.4-0.8-2.3c0.3-2.6,1.6-7,3.7-8.3l0.1,0l0,0c0.4-0.2,0.8-0.5,1.2-0.7
		c0.2-0.3,0.5-1.2,0.9-2c0.2-0.6,0.5-1,0.7-1.1c-0.1-1.9,0.2-2.8,0.5-4.2c-0.1-1.9,0.4-3.2,0.6-5.2c0.1-1.5,0.5-2.9,1.1-4.2
		c0-0.2,0-0.3,0-0.5c0-1,0.3-1.7,0.7-2.7c0.3-0.8,0.5-1.6,1-2.3c1.9-2.3,5.5-4.8,8.4-5.3c0,0,0.2-1.1,0.3-1.3
		c0.1-0.1,0.2-0.2,0.4-0.2c-0.2-0.2-0.3-0.6-0.4-1c-1.5-1.3-2.1-5.5-2.5-7.4c-0.5-2.4,3.4-7.2,6.4-7.2c5.4,0,2.7-0.6,7.8,1.2
		c3.1,1.1,2.8,1.5,3.1,2.1c0.8,1.4,0.1,2.5-0.2,2.3l-0.1,0c0,0,0,0.2,0,0.3c0,0.4,0.2,0.9,0.4,1.3c0.4,0.9,0.7,2,0.7,2.8v0
		c0,0.4-0.3,0.7-0.5,1.1c-0.1,0.1-0.2,0.2-0.2,0.3c0,0.1,0.1,0.1,0.1,0.2c0.1,0.1,0.1,0.3,0.2,0.4c0.3,0.8,0.7,2.1,0.5,2.7h0
		c-0.1,0.3-0.1,0.5-0.2,0.7v0h0c-0.2,0.6-1.2,3-1.1,3.3h0c0.6,0.4,1.3,0.6,2,0.8c1.5,0.2,3.2,0.5,5,0.9c3.7,0.7,7.5,1.4,9.3,1.4
		c1.7-0.3,3.9-1,6-1.8c0.3-0.1,0.5-0.2,0.8-0.3c-0.6-0.7-0.7-1.4-0.9-2c-0.1-0.4-0.2-0.8-0.4-1.1l0,0c-0.1-0.1-0.5-0.3-0.9-0.5
		c-0.4-0.2-0.8-0.4-1-0.6c-0.1,0-0.1-0.1-0.1-0.2c-0.2-0.4-0.4-0.9-0.6-1.4c-0.4-0.9-0.8-1.8-1-2.6c-2.6-2,1-7.1,3.2-8.5
		c3.2-2.1,9.4-5.5,13.3-0.5c1.8,2.2,3.5,5.3,3.3,7.4c-0.1,1.4,0.3,2.2,0.6,2.8c0.2-0.2,0.3-0.4,0.4-0.5c0.3-0.7,0.7-0.9,1.1-0.7
		c0.3,0.1,0.5,0.4,0.8,0.8c0.3,0.4,0.6,0.8,0.8,0.9c0.2,0.1,0.3,0.3,0.2,0.4c5,1.1,9.8,9.2,13,15.5c1.2,2.1,2.2,4.3,3.1,6.4
		c0.4,0.9,0.8,1.9,1.1,2.8c1,2.7,1.6,5.1,1.6,7c0,1.9-0.6,2.4-1.5,3.7c0.3,1,0.8,2.1,0.8,3.2c1.5,1.8,2.5,4.5,3.2,6.6
		c1.2,4.1-0.1,6.3-2.1,9.7c-0.6,1-1.4,2.5-2.4,3.3c-0.3,0.2-0.8-0.2-1-0.3c-0.1,1.2-0.1,2.6,0,3.9c0.1,1.5,0.2,2.9,0,4.2
		c-0.3,3.9-1.5,6.4-1.8,7.9l0,0l0,0c0,0,0,0,0.1,0c1.9-0.6,2.6-1.6,4.5-2c1-0.2,1.2,0.4,2.2,0.4c0.6,0,1.4-0.3,2.3-0.8
		c0.2-0.1,0.3-0.2,0.5-0.4c0.7-0.5,1.3-1,1.9-1.4c1.2-0.7,2.3-1.1,3.1-0.1c0.1,0.1,0.2,0.3,0.2,0.4c0.6,0,1.1,0.3,1.4,0.8
		c0.9,1.5,1.9,2.7,2.8,3.9c5.7-10.5,9-22.6,9-35.7C141.3,43.2,111.9,11.5,75.6,11.5z"/>
	<path fill="#3B3A3C" d="M54.8,88.2c0.8-0.5,1.6-0.9,2.4-1.3c-0.1,0-0.2,0-0.3,0c-0.4-0.2-1.2-0.6-2.1-1c-0.3-0.1-0.6-0.3-1-0.4
		c-0.5,0-1.1,0-1.5,0.4h0c-0.1,0.4-0.3,0.7-0.5,1.1c-0.2,0.4-0.5,0.9-0.8,1.3c-0.9,1.2-2,2.4-3.3,3.3c-0.3,0.2-0.6,0.4-0.8,0.5
		c0.3,0,0.5,0,0.8-0.1c0.8-0.1,1.8-0.4,2.6-0.7c0-0.2,0-0.7-0.1-0.7c0.3-0.6,2.6-1.5,2.7-1.5C53.6,88.9,54.2,88.6,54.8,88.2
		L54.8,88.2z"/>
	<path fill="#3B3A3C" d="M64.4,132.7c0.5,0,0.9-0.1,1.3-0.2c0.7-0.2,1.4-0.4,2.6-0.2c1.5,0.3,2.5,0.9,3.4,1.5c1.1,0.7,2,1.3,3.4,1
		c0.2,0,0.4,0,0.7,0.2c0.5,0.2,1.1,0.5,2,0.1c0.1,0,0.2-0.3,0.3-0.5c0,0,0-0.1,0-0.1c-0.6-0.1-1.2-0.6-1.7-0.7
		c-0.4-0.1-0.8,0-1.1,0.1c-0.1,0.1-0.3-0.4-0.6-0.7c-0.5-0.5-1.2-1.2-1.4-1.4c-1.1-0.8-2.3-2.3-3.7-3.1c-1.2-0.6-2.2-0.9-3.1-1.1
		c0,0-0.6-1.1-0.8-1.7c-1,0.2-1.9,0.1-2.9-0.2c0.2,0.7,0.4,1.5,0.4,1.5c-0.5,1-1.1,2-1.4,3.1C61.9,131.6,62.3,132.7,64.4,132.7z"/>
	<path fill="#3B3A3C" d="M128.6,121.6c-0.4,0.4-0.7,0.9-1,1.3c-0.1,0.1-0.4,0.4-0.4,0.6c-0.1,0.1,0.4,0.5,1.1,0.8
		c0.9-1.3,1.8-2.6,2.6-4C130,120.4,129.2,120.9,128.6,121.6z"/>
	<path fill="#3B3A3C" d="M58.6,82.7c0-0.1,0.1-0.3,0.1-0.4c-0.2-0.1-0.5-0.3-0.8-0.4c-1-0.6-2.4-1.5-4.1-1.6c-0.5,0.5-1,1-1.5,1.4
		c0.7-0.1,1.4-0.1,2.1,0c0.7,0.1,1.4,0.3,1.9,0.5c0.6,0.2,1.1,0.6,1.3,1c0.2,0.3,0.2,0.5,0.2,0.8c0,0.2,0,0.4,0,0.6
		C58.3,84.2,58.5,83.5,58.6,82.7z"/>
	<path fill="#3B3A3C" d="M77.6,92.6c0.5-0.1-0.4,1.3-1.2,2.1c1,0,1.9-0.1,3.4-1c0.4-0.2,1.1-0.4,2-0.4c3.6-0.2,7.4,0.5,10.9,1.3
		c-0.1-0.8-0.4-1.5-0.6-2.3c-5-2.3-10.7-7.2-15-3.1c-1.2,1.8-3.3,5.6-5.7,6.7c-1,0.4,2.1-2.9,2.8-4.9c0.5-1.3,0.5-2.7,0.5-3
		c0.2-3.7-5.3,4.6-5.6,5c-2.1,2.8-1.5-2.5-2-2c-4.6,2.8-10.7,5.4-12.7,5.3l0,0.1l0,0v0c0.1,0.5,0.3,1,0.4,1.5l0,0.1l0,0.1V98l0,0.1
		v0l0,0.1l0,0.1v0l0,0.1l0,0.1v0.1l0,0.1v0l0,0.1v0.1v0.1l0,0.1V99c0.1,0.5,0.1,0.9-0.1,1.4l0,0v0h0v0l0,0.1l0.1,0l0.1,0l0.1,0H55
		l0.1,0h0l0.1,0h0.1l0.1,0h0.1l0.1,0h0.1l0.1,0h0.1l0.1,0l0.1,0h0.1l0.1,0l0.1,0c0.8-0.2,1.6-0.3,2.4-0.5h0.1
		c3.5-0.6,6.8-1.3,10.2-2.4c1.3-0.5,3.3-1.3,4.9-2.4C75.2,94,76.5,92.7,77.6,92.6z"/>
	<path fill="#3B3A3C" d="M51.8,94.8c-1.3,0.6-2.8,1.1-3.9,1.4c-1.5,0.4-4.1,0.4-5.2,0.8c-0.4-0.9-0.2-1-0.9-1.7c-1-1-1.3-1-2.2-1.4
		c-1.9-1-2.1-1.7-3-2.6c-0.3-0.3-0.7-0.4-1-0.9c-0.1-0.2-0.4-0.1-0.5,0.2c-0.1,0.4,0,1.3,0.1,1.4c-0.4,0.1-0.5,0.8-0.1,1.5
		c-0.2,0.3-0.2,0.9,0,1.3c-0.1,0.3-0.1,0.6,0.2,0.8c0.4,0.3,0.5,0.5,0.9,0.8l0,0c0.6,0.4,1.3,0.6,2.1,0.8c1.3,0.5,2.6,0.9,3.2,2
		c0.7,1.3,1.5,1.7,2.5,1.6c1.7-0.3,3-1.6,4.3-2.7c1.3-1.1,2.8-1.6,4-2c0.5-0.2,0.9-0.3,1.1-0.4c-0.1-0.6-0.3-1.1-0.5-1.5L51.8,94.8z
		"/>
	<path fill="#3B3A3C" d="M125.6,126.4c-0.1,0.4-0.3,1.3-0.6,2.1c1-1.2,1.9-2.4,2.8-3.6c-0.4-0.3-0.8-0.5-1.1-0.8
		C126.2,124.8,125.9,125.5,125.6,126.4z"/>
	<path fill="#3B3A3C" d="M102.8,87.5c-1.2-0.2-3,0.3-4.1,0.7c0.5,0.9,1.1,1.4,1.6,2.1C100.6,89.5,101.8,87.9,102.8,87.5z"/>
	<path fill="#3B3A3C" d="M63.2,53.1L63.2,53.1c0.5,1.4,0.4,3.5,0.4,5.1v0v0c3-0.1,6-0.3,7.4-0.8c3.3-1,5.4-2,7.3-2.9
		c1.4-0.7,2.7-1.3,4.2-1.8c0.2-0.1,0.5-0.2,0.8-0.4c0.1-0.1,0.5-0.2,0.6-0.3c0,0,0-0.1,0.1-0.1c-1-0.9-2.2-1.5-3.1-2.4
		c-0.4,0.2-0.8,0.3-1.2,0.4c-1.5,0.5-2.9,1.3-4.3,1.8c-1.4,0.7-4.2,3.1-5.3,4c-0.5,0.4-0.8-0.5-0.2-1.8c0.3-0.5,1.3-1.1,1.2-1.2
		c-0.7-0.1-1.5,0.4-2.2,0.8c-0.1,0.1-1.5,0.9-2.3,1.5c-0.3,0.2-0.4-0.7-0.2-0.9c0.3-0.5,1.3-1.6,1.9-1.8c-1.4-0.2-2.7-0.7-4.2-1
		c-1-0.2-1.2-0.4-2.2-0.6C62.8,51.5,62.6,51.5,63.2,53.1z"/>
	<path fill="#3B3A3C" d="M43.7,44c0.1,0.2,0.3,0.4,0.5,0.6c0.2,0.1,0.5,0,0.7-0.1c0,0,0.2,1.5,0.3,1.7c1,2,3,3.6,5.2,4.8
		c0.6,0.3,1,0.5,1.6,0.6c0.7,0.2,1.5,0.2,2.2,0.1c1-0.4,1.3-0.7,1.7-1.7c0.3-0.6,0.3-0.6,0.4-1.1c0.1-0.3,0.2-0.6,0.2-0.9
		c0,0,0.2-0.7,0.3-1.1c0-0.1,0.1-0.4,0.1-0.6c0.1-0.4,0.2-0.5,0.3-0.9c0.2-0.3,0.3-0.6,0.4-0.9c0.4-0.9,0.1-1.7-0.2-2.6
		c-0.5-1.2-0.3-1.6-0.3-1.6l0,0c0.1-0.1,0.2-0.2,0.3-0.4c0.1-0.2,0.3-0.3,0.3-0.4c0.2-0.3,0.1-0.3,0-0.7c0-0.2-0.1-0.4-0.2-0.7
		c-0.1-0.4-0.2-0.8-0.4-1.2c-0.2-0.6-0.4-1.1-0.5-1.7c0-0.1,0-0.1,0-0.1c0-0.2,0-0.4,0-0.6c-1.8-0.7-3.4-0.1-4.9,0
		c-0.6-0.7-2.9,1.4-3.3,1.3c-1.2-0.3-2.1,6.4-3.1,5c-0.3-0.5-0.6-1-1-1.2c-0.8-0.4-1.5,0-1.2,2c0,0.2,0.1,1,0.5,1.9
		C43.6,43.6,43.7,43.8,43.7,44z"/>
	<path fill="#3B3A3C" d="M56.7,50.2c0.3,0.3,0.8,0.5,1.2,0.8c1.7,1.1,3.5,2.3,3.5,4.9c0,0.8-0.1,1.6-0.1,2.4c0.5,0,1,0,1.5,0
		c0.1-1.6,0.3-3.5-0.3-4.9v0c-0.9-2.3-1.7-2.9-3.5-3.7c-0.7-0.1-1.3-0.5-1.9-0.6C57,49.4,56.9,49.8,56.7,50.2z"/>
	<path fill="#3B3A3C" d="M78.8,55.6c-0.5,0.4-1.1,0.4-1.4,0.5c-0.5,0.2-1.2,0.5-1.7,0.6c-0.2,0.1-0.5,0.2-0.8,0.4c0,0-0.1,0-0.1,0
		c-1.6,0.8-2.4,1-4.1,1.4c-4.4,1.1-8,0.4-12.4,0.6c-0.7,0-1.2-0.3-1.5-0.2c-0.7,0.3-0.2,0.3-0.2,1c2.4,0.6,9.3,0.5,12.7-0.2
		c1.4-0.3,3.7-0.8,5.2-1.3c-1.4,1.5-0.9,2.2,0.2,1c0.9-1.1,1.8-1.8,2.8-2.5c0.3-0.2,0.5,1.8,1.2,1.4c0.6-0.3,0.4-1,0.6-1.4
		c0.4-0.8,0.4-0.9,0.9-1.4c0.6-0.6,2-1.8,3.8-1.8c0.7,0,2-0.1,2.7,0.1c0.2,0.1,0.5,0,0.3-0.4c-0.1-0.2-0.9-0.8-2-0.7
		c0.9-0.7,3-1,4.3-1.2c1.3-0.2,2.2-0.2,2.4-0.3c0.1-0.1-0.7-1.9-3.1-0.9c-2.2,1-3.5,2.4-3.7,2.4C83.2,53.4,81.2,54.1,78.8,55.6z"/>
	<path fill="#3B3A3C" d="M82.1,49.7c0.8,0.6,1.8,1.1,2.5,1.8l0.1,0.1c0.7-0.5,1.5-1,2.3-1.6c0-0.2,0.1-0.2,0.2-0.3l0-0.1l0,0l0,0
		l0-0.1l0,0l0,0l0.1-0.1l0,0l0-0.1l0.1,0l0,0l0,0l0-0.1l0,0c0.1-0.1,0.1-0.1,0.2-0.2l0-0.1l0,0l0,0c0.1-0.1,0.2-0.2,0.3-0.4
		c-0.2-0.1-0.4-0.3-0.8-0.7c-0.1-0.2-0.5,0.6-0.6,0.4c-0.3-0.4,0.3-0.4,0.3-0.9c-0.2-1.6-1-3.7-1.8-4.3c-2.5-1-2.3,1.6-1.8,2.5
		c0.1,0.2-0.6,1.7-1.9-0.8c-1.4-2.6-1.7-1.2-3.3-3.6c-1-1.5-1.9-0.8-2.4-0.4c0.2,0.8,0.6,1.6,1,2.4c0.2,0.5,0.4,0.9,0.6,1.4
		c0.1,0.1,0.4,0.3,0.8,0.4c0.5,0.2,1,0.5,1.1,0.7c0.4,0.3,0.5,1,0.6,1.4c0.1,0.6,0.3,1.3,1,2C81.4,49.2,81.7,49.5,82.1,49.7z"/>
	<path fill="#3B3A3C" d="M97.3,43.8c0.3-0.3,0.5-0.6,0.8-0.9c-0.3-0.2-0.5-0.6-0.8-0.9c-0.2-0.3-0.4-0.5-0.5-0.6c0,0,0,0.1-0.1,0.3
		c-0.6,1.4-2.6,2.4-3.9,3.2l0,0l0,0c-1.3,0.9-2.3,2-3.3,3.3c1.7-1.1,2.9-1.9,5.4-2.8C95.4,45.2,96.4,44.6,97.3,43.8z"/>
	<path fill="#3B3A3C" d="M36.7,78.8c3.3,0.4,7.6-0.9,9.6-1.7c-1.7-0.1-2.7-0.8-4-2.2c-4.2,1.2-9.7,0.9-11.5-1.7
		c-0.1-0.2-0.2,0.5,0.3,1.8C31.8,76.8,34.3,78.4,36.7,78.8z"/>
	<path fill="#3B3A3C" d="M39,71.8c0.3,0,0.5,0,0.8-0.1c-0.5-0.8-1-1.7-1.5-2.6c-0.8,0.1-1.6,0.1-2.7,0c-1.3-0.1-2.8-0.7-2.7-0.4
		C33.7,70.9,37,71.8,39,71.8z"/>
	<path fill="#3B3A3C" d="M49.3,55c0.1,0.3,0.2,0.6,0.3,0.8c0.1,0,0.1,0,0.2,0c0.4-0.5,0.3-0.8-0.1-1.6c-1.1-2.9-5.1-7.5-6.1-8.4
		c-0.1,0.4-0.1,1.2-0.7,1.3C45.8,48.1,48.1,52.6,49.3,55z"/>
	<path fill="#3B3A3C" d="M44,51.2c1.2,0.9,1,0.6,2.1,1.7c0.1,0.1,0.1,0.2,0.2,0.3l0,0c0.2-0.1,0.4-0.1,0.5,0.1
		c0.1,0.1,0.2,0.3,0.4,0.4c0.5,0.7,1.1,1.5,1.9,1.8c-0.2-0.3-0.3-0.6-0.4-0.8c-1-2-3.2-5.1-5-5.9c-0.6-0.3-2.7-0.3-2.8,0.1
		C40.6,50.1,42.3,50.4,44,51.2z"/>
	<path fill="#3B3A3C" d="M37.5,66.4c1.1,2.6,2.9,5.5,4.9,7.7c1.5,1.5,2.7,2.5,4.8,2.5c5.9,0.3,11.7,0,17.6-0.4
		c-0.7-0.6-1.2-1.7-1.7-2.9c-0.3-0.2-1.2-0.6-1.8-1.8c-1.5-3.3,0.5-5.1,0.2-5.6c-0.5-0.7-3.8,1.7-2.7,6.3c0.3,1.2-1.2-0.2-2.3-0.2
		c-2.9,0-8.2,1.4-9.5-0.5c-0.8-1.1,4.7-6.2,3.1-6.5c-1.6-0.3-5.9,7.4-7.1,5.7c-0.2-0.3,1.2-3.7,2.1-5c0.2-0.4-2.6,1.9-3.6,1.9
		c-0.7,0.1-0.3-2-0.1-2.4c0.7-0.8,1.7-1.9,1.6-2.2c-0.4-0.8-2.9,1.3-3.5,0.5c-1.9-2.1-2.2-6.3-3.1-7.9c-0.3-0.6-0.6,3.4-1.2,3
		c-1.2-0.7-1-3.2-1.2-4.5c-0.2,0.7-0.7,1.9-0.7,2.5C33.1,60.1,36.2,63.4,37.5,66.4L37.5,66.4z"/>
	<path fill="#3B3A3C" d="M58.6,85c-0.2,0.2-0.4,0.4-0.6,0.5c0,0.2,0,0.4-0.1,0.6c-0.1,0.3-0.3,0.5-0.7,0.8l0,0
		c0.7-0.4,1.4-0.7,2.1-1C59.1,85.6,58.8,85.3,58.6,85z"/>
	<path fill="#3B3A3C" d="M73.5,69.9c0.5,0.7,1.8,1.4,2.4,1.8c0.4-0.2,0.6-0.3,0.9-0.4c0.1,0,0.1-0.1,0.2-0.1c-1.1-0.6-3-2.4-3.3-2.3
		C73.6,68.9,73.2,69.5,73.5,69.9z"/>
	<path fill="#3B3A3C" d="M77.2,70.1c0.2,0,1,0.1,1.2-0.5c-1.2-0.7-3.9-2.7-4.2-2.7C73.9,67.1,76.4,69.3,77.2,70.1z"/>
	<path fill="#3B3A3C" d="M79.2,67.8c0.1-0.1,0.1-0.1,0.1-0.2c-1.1-0.3-4.1-2-4.5-1.8c-0.2,0.1,2.4,1.8,3.4,2.7
		C78.4,68.2,78.9,68.1,79.2,67.8z"/>
	<path fill="#3B3A3C" d="M47.8,85.8l3.2-1.3l0,0c0.2-0.1,0.5-0.1,0.7-0.1c1.1,0,2.3,0.5,3.4,0.9c0.8,0.3,1.5,0.7,2,0.9
		c0.1-0.1,0.2-0.2,0.3-0.4c0.1-0.2,0-0.4,0-0.6c0-0.3-0.1-0.7,0-1.3c0-0.1,0-0.3-0.1-0.3c-0.1-0.3-0.5-0.5-1-0.7
		c-0.8-0.3-1.9-0.5-2.7-0.6c-1.3-0.1-2.6,0.4-3.9,0.9c-0.8,0.4-1.4,0.8-2.2,1c-0.4,0.1-0.8,0.1-1.2,0.2c-0.3,0.4,0.1,0.8,0.6,1.2
		C47,85.8,47.3,85.9,47.8,85.8z"/>
	<path fill="#3B3A3C" d="M52.1,77.3c-0.9,0.6-1.7,1.1-2,1.3c-4,2.5-9.6,5-14.3,2.1c1.2,1.7,4.4,4.2,8.9,3.1
		c2.2-0.5,7.8-4.3,10.3-6.5C54.1,77.3,53.1,77.3,52.1,77.3z"/>
	<path fill="#3B3A3C" d="M61.6,85.1L61.6,85.1c3.2-1.2,6.1-2.3,9.4-5.7c3.3-3.4,7-2.8,11.2-2.2c1.1,0.2,2.3,0.3,3.5,0.4
		c1.2-1.6,1.4-3.3,1-5.3c-0.2-0.7-0.4-1.3-0.7-1.9c-0.3-0.5-0.7-1-1.1-1.4c-1.6-1.2-3.9-0.2-5.6,0.2c0.1,0.7-0.2,1.1-0.7,1.2
		c-0.2,0.1-0.4,0.2-0.6,0.2c0.1,0.9-0.4,1.2-0.9,1.3l0,0c-0.2,0-0.5,0-0.5,0.1c-0.1,0.2-0.2,0.5-0.6,0.8c-0.2,0.5-1.9,0.6-2.6,0.3
		c-0.3-0.1-0.5-0.1-1-0.2c-1.4,0.3-3.1,0.5-4.4,0c0,1.1-0.3,3.8-1.5,3.8c-3.5,0.3-7,0.5-10.5,0.6c-0.5,0.8-1.2,1.5-1.9,2.3
		c1.8,0.2,3.3,1.1,4.3,1.7c0.4,0.2,0.7,0.4,0.9,0.5c0.2,0.1,0.3,0.3,0.2,0.4c-0.1,0.2-0.1,0.5-0.2,0.7c-0.1,0.5-0.2,1-0.4,1.4
		l0.1,0.1l0,0l0.2,0.2c0.2,0.3,0.5,0.7,0.8,1.1C60.6,85.4,61.1,85.2,61.6,85.1z"/>
	<path fill="#3B3A3C" d="M67.3,71c-0.9-0.5-2.7-0.4-3.8-0.4c0,0.3,0.1,0.5,0.1,0.7c0.9-0.1,1.8-0.2,2.6,0c0.6,0.1,0.9,0.3,1.3,0.5
		c1.3,1,3.2,0.6,4.8,0.4c0.3,0,0.8,0.2,1.3,0.4c0.4,0.1,0.8,0.1,1.1,0.1c0.2,0,0.5,0,0.7-0.2l-0.1-0.1c-0.3-0.2-0.6-0.2-1-0.5
		c-0.8-0.6-0.9-0.8-2.1-1C70.6,71.2,68.1,71.5,67.3,71z"/>
	<path fill="#3B3A3C" d="M48.6,50.6c0.7,1.1,1.2,2.2,1.6,3.4c0.4-0.4,0.8-0.8,0.7-2.1C50.1,51.5,49.4,51.1,48.6,50.6z"/>
	<path fill="#3B3A3C" d="M58.8,57.7c-0.2-0.9-0.3-1.1-1.1-2.1c-0.4-0.4-1.2-1-1.9-1.3c-0.6,0.3-1.3,1.1-1.4,1.1
		c-0.5,0.1-0.4-2.7-1.1-2.6c-0.2,0-0.7-0.4-1.3-0.3c-0.2,0.8-0.6,1.3-0.8,1.7c-0.1,0.3,0.9,0.6,1.2,0.9c0.5,0.5,1,1.7,1.7,2.8
		c0.4,0.7,1.1,0.4,1.6,0.9c0-0.4,0.2-0.6,0.3-0.7c0.2,0.1,3.3,0.2,3.3,0.3c0.4,0,0.8,0,1.2,0c0-0.8,0.1-1.6,0.1-2.4
		c0-2.2-1.7-3.3-3.2-4.3c-0.4-0.3-0.8-0.5-1.2-0.8c-0.1,0.1-0.2,0.3-0.2,0.4c1.7,1.5,3,4.4,3.3,6.8C59.4,57.9,58.9,58.2,58.8,57.7z"
		/>
	<path fill="#3B3A3C" d="M45.9,66.4c1.7-1.4,4.4-2.3,5.5-2.7c-0.1-0.1-0.3-0.1-0.7-0.2c-0.9-0.2-1.2,0-1.6-0.1
		c-1.3-0.4-2.4-1.1-4-0.5c-2,0.6-3.7,3-2.2,2.6c1.4-1.2,4.4-2.8,5.9-1.9c0.5,0.3-0.8-0.2-2.6,1.4C45.2,65.8,45.4,66.7,45.9,66.4z"/>
	<polygon fill="#3B3A3C" points="30.7,79.1 30.7,79.1 30.7,79.1 	"/>
</g>
</svg>
