<?xml version="1.0" encoding="utf-8"?>
<!-- Generator: Adobe Illustrator 18.1.0, SVG Export Plug-In . SVG Version: 6.00 Build 0)  -->
<svg version="1.0" id="Layer_1" xmlns="http://www.w3.org/2000/svg" xmlns:xlink="http://www.w3.org/1999/xlink" x="0px" y="0px"
	 viewBox="0 0 150 150" enable-background="new 0 0 150 150" xml:space="preserve">
<g>
	<g>
		<path fill="#EB5E9E" d="M98.4,95.9c-6.2,0-11.8-2.5-15.9-6.6l-6.6,6.6l22.5,22.5l22.5-22.5l-6.6-6.6
			C110.2,93.4,104.6,95.9,98.4,95.9z"/>
		<path fill="#EB5E9E" d="M53.3,95.9c-6.2,0-11.8-2.5-15.9-6.6l-6.6,6.6l22.5,22.5l22.5-22.5l-6.6-6.6
			C65.2,93.4,59.6,95.9,53.3,95.9z"/>
		<path fill="#EBB3D2" d="M75.9,118.4c-6.2,0-11.8-2.5-15.9-6.6l-6.6,6.6l22.5,22.5l22.5-22.5l-6.6-6.6
			C87.7,115.9,82.1,118.4,75.9,118.4z"/>
		<path fill="#EB5E9E" d="M36.4,73.4c0-9.4,7.6-16.9,16.9-16.9c9.4,0,16.9,7.6,16.9,16.9c0,9.4-7.6,17-16.9,17
			C44,90.4,36.4,82.8,36.4,73.4z"/>
		<path fill="#EB5E9E" d="M81.4,73.4c0-9.4,7.6-16.9,16.9-16.9c9.4,0,16.9,7.6,16.9,16.9c0,9.4-7.6,17-16.9,17
			C89,90.4,81.4,82.8,81.4,73.4z"/>
		<path fill="#EBB3D2" d="M58.9,95.9c0-9.4,7.6-16.9,16.9-16.9c9.4,0,16.9,7.6,16.9,16.9s-7.6,16.9-16.9,16.9
			C66.5,112.9,58.9,105.3,58.9,95.9z"/>
	</g>
	<path fill="#EB5E9E" d="M136.2,33.5c-6-7.6-14.6-11.9-24.3-11.9c-9.6,0-20.1,4.2-30.5,12l-5.7,4.3l-5.6-4.4
		c-9.9-7.8-20.2-11.9-29.7-11.9c-10,0-19,4.4-25.2,12.5c-7.1,9.2-9.4,21.3-6.2,33.3c8.3,31.7,45.7,58.8,61.4,69l5.4,3.5l5.4-3.5
		c15.9-10.3,53.7-37.6,61.4-68.9C145.7,55.3,143.3,42.5,136.2,33.5z M133,65.2c-6.8,27.8-42.2,53.2-57.1,62.8h0
		c-14.7-9.5-49.7-34.8-57.2-63.1C16.4,56,18,47,23.2,40.3c4.3-5.6,10.4-8.6,17.3-8.6c7.3,0,15.4,3.4,23.5,9.8l11.7,9.2l11.8-9
		c8.6-6.5,17-10,24.4-10c6.5,0,12.3,2.8,16.4,8C133.5,46.3,135.3,55.9,133,65.2z"/>
	<g>
		<path fill="#EBB3D2" d="M75.9,136.8l-0.6-0.3c-2-1.3-4.5-2.8-7.2-4.7l1.2-1.8c2.5,1.7,4.7,3.1,6.6,4.3l0.3-0.2l1.1,1.8L75.9,136.8
			z M81,133.6l-1.2-1.8c2.1-1.4,4.5-3,7.1-4.8l1.2,1.8C85.5,130.6,83.1,132.2,81,133.6z M64.6,129.3c-2.2-1.5-4.6-3.2-7-5.1l1.3-1.7
			c2.4,1.8,4.7,3.5,6.9,5L64.6,129.3z M91.6,126.3l-1.3-1.7c2.2-1.6,4.5-3.3,6.8-5.2l1.3,1.7C96.1,122.9,93.8,124.6,91.6,126.3z
			 M54.2,121.6c-2.2-1.7-4.4-3.5-6.7-5.5l1.4-1.6c2.2,1.9,4.4,3.7,6.6,5.4L54.2,121.6z M101.8,118.3l-1.4-1.7
			c2.2-1.8,4.4-3.7,6.5-5.6l1.4,1.6C106.3,114.6,104.1,116.5,101.8,118.3z M44.3,113.3c-2.2-2-4.3-3.9-6.3-5.9l1.5-1.5
			c2,1.9,4.1,3.9,6.2,5.8L44.3,113.3z M111.6,109.8l-1.5-1.6c2.1-2,4.2-4,6.1-6l1.5,1.5C115.8,105.7,113.7,107.8,111.6,109.8z
			 M34.9,104.4c-2-2.1-4-4.3-5.8-6.4l1.6-1.4c1.8,2.1,3.7,4.2,5.7,6.3L34.9,104.4z M120.7,100.6l-1.6-1.4c2-2.2,3.8-4.4,5.5-6.5
			l1.7,1.3C124.5,96.1,122.7,98.3,120.7,100.6z M26.4,94.6c-1.8-2.3-3.5-4.7-5.1-7l1.8-1.2c1.5,2.3,3.2,4.6,5,6.9L26.4,94.6z
			 M128.8,90.5l-1.7-1.2c1.7-2.4,3.2-4.8,4.6-7.1l1.9,1.1C132.1,85.6,130.6,88,128.8,90.5z M19,83.9c-1.5-2.6-2.9-5.2-4-7.7l2-0.9
			c1.1,2.5,2.4,5,3.9,7.5L19,83.9z M135.6,79.3l-1.9-1c1.3-2.6,2.4-5.2,3.3-7.8l2,0.7C138,73.9,136.9,76.6,135.6,79.3z M13.3,72.2
			c-0.7-1.8-1.2-3.6-1.7-5.4c-0.3-1-0.5-2-0.7-3l2.1-0.4c0.2,1,0.4,1.9,0.6,2.9c0.4,1.7,1,3.4,1.6,5.2L13.3,72.2z M140.2,67
			l-2.1-0.3c0.7-2.9,1.1-5.6,1.2-8.3l2.1,0.1C141.3,61.3,140.9,64.1,140.2,67z M10.4,59.4c-0.1-0.8-0.1-1.7-0.1-2.5
			c0-2.1,0.2-4.2,0.5-6.3l2.1,0.4c-0.3,1.9-0.5,3.9-0.5,5.9c0,0.8,0,1.6,0.1,2.3L10.4,59.4z M139.1,54.2c-0.2-2.8-0.8-5.6-1.6-8.2
			l2-0.7c0.9,2.7,1.5,5.7,1.7,8.6L139.1,54.2z M14,46.9l-2-0.6c0.9-2.8,2.1-5.5,3.7-8l1.8,1.1C16,41.7,14.8,44.3,14,46.9z
			 M75.8,43.9l-0.9-0.7l0.7-0.9l-0.4-0.6l6.6-5l1.3,1.7L75.8,43.9z M136,42.2c-1-2.1-2.2-4-3.5-5.8c-0.3-0.4-0.6-0.8-0.9-1.1
			l1.6-1.4c0.3,0.4,0.7,0.8,1,1.2c1.5,1.9,2.7,3.9,3.8,6.2L136,42.2z M71.5,40.6l-4.2-3.3c-0.9-0.7-1.7-1.3-2.5-1.9l1.2-1.7
			c0.9,0.6,1.8,1.3,2.6,2l4.2,3.3L71.5,40.6z M19.9,36.1l-1.6-1.4c1.9-2.3,4.2-4.3,6.6-5.9l1.2,1.8C23.8,32.1,21.7,33.9,19.9,36.1z
			 M86.4,35.9l-1.2-1.8c2.5-1.7,5-3.3,7.4-4.6l1,1.9C91.2,32.7,88.8,34.2,86.4,35.9z M61.3,33c-2.5-1.5-5-2.8-7.5-3.8l0.8-2
			c2.6,1.1,5.2,2.4,7.8,4L61.3,33z M128.6,32.4c-2.1-1.8-4.5-3.2-7-4.2l0.8-2c2.8,1.1,5.3,2.6,7.6,4.6L128.6,32.4z M97.4,29.6
			l-0.8-2c2.8-1.2,5.6-2.1,8.3-2.7l0.4,2.1C102.8,27.6,100.1,28.5,97.4,29.6z M29.6,28.6l-0.9-2c2.7-1.2,5.6-2,8.6-2.3l0.2,2.1
			C34.8,26.8,32.1,27.5,29.6,28.6z M49.9,27.8c-2.8-0.8-5.5-1.3-8.2-1.4l0.1-2.1c2.8,0.1,5.7,0.6,8.7,1.5L49.9,27.8z M117.6,27
			c-2.6-0.6-5.4-0.7-8.2-0.5l-0.2-2.1c3.1-0.3,6-0.1,8.8,0.5L117.6,27z"/>
	</g>
</g>
</svg>
