<?xml version="1.0" encoding="utf-8"?>
<!-- Generator: Adobe Illustrator 18.1.0, SVG Export Plug-In . SVG Version: 6.00 Build 0)  -->
<svg version="1.1" id="Layer_1" xmlns="http://www.w3.org/2000/svg" xmlns:xlink="http://www.w3.org/1999/xlink" x="0px" y="0px"
	 viewBox="0 0 150 150" enable-background="new 0 0 150 150" xml:space="preserve">
<g>
	<g>
		<radialGradient id="SVGID_1_" cx="101.1602" cy="108.067" r="19.5137" gradientUnits="userSpaceOnUse">
			<stop  offset="0" style="stop-color:#00A94F"/>
			<stop  offset="1" style="stop-color:#007233"/>
		</radialGradient>
		<path fill="url(#SVGID_1_)" d="M96,83.7c8.2,17.3,1.6,34.9-7.8,48.8c10.6-7.6,19.2-16.7,25.9-27.2C106.8,89.6,96,83.7,96,83.7z"/>
		<radialGradient id="SVGID_2_" cx="74.6837" cy="75.2736" r="61.38" gradientUnits="userSpaceOnUse">
			<stop  offset="0" style="stop-color:#00A94F"/>
			<stop  offset="1" style="stop-color:#007233"/>
		</radialGradient>
		<path fill="url(#SVGID_2_)" d="M74.7,11.2L16.2,32.7c-0.2,14.8,1.5,28.7,5.3,41.6c2.3,7.8,5.3,15.1,9.1,22.1
			c9.7,18.3,23.5,32.3,41.8,43c36.3-88.7-47.9-87.8-47.9-87.8c64.6-19,86.6,42.9,89.8,53.5c1.8-2.8,3.4-5.8,4.9-8.8
			C125,84,129,71.4,131.3,58c1.3-8,1.9-16.2,1.9-24.8L74.7,11.2z M86.7,52.6c-6.9,0-12.5-5.6-12.5-12.5c0-6.9,5.6-12.4,12.5-12.4
			c6.9,0,12.4,5.6,12.4,12.4C99.1,47,93.6,52.6,86.7,52.6z"/>
	</g>
	<path fill="#5C5C5C" d="M136.4,29.6L75.5,6.6l-0.7-0.3l-0.7,0.3L13.3,29L12,29.4l0,1.4C11.5,56,16.7,78.7,27.2,98.4
		c10.7,20.1,26,35.3,46.7,46.6l0.9,0.5l0.9-0.5c21.5-11.1,37.4-26.8,47.2-46.9c9.9-20.6,14.7-42.4,14.7-66.6v-1.4L136.4,29.6z
		 M75.1,142l-0.2,0.1l-0.2-0.1c-19.8-10.8-34.5-25.4-44.7-44.6c-10.1-18.9-15-40.7-14.6-64.9l0-0.3l0.3-0.1l59-21.7l0.2-0.1l0.2,0.1
		l59,22.3l0.3,0.1v0.4c0,23.3-4.6,44.3-14.1,64C110.9,116.3,95.7,131.4,75.1,142z"/>
</g>
</svg>
