<?xml version="1.0" encoding="utf-8"?>
<!-- Generator: Adobe Illustrator 16.0.0, SVG Export Plug-In . SVG Version: 6.00 Build 0)  -->
<!DOCTYPE svg PUBLIC "-//W3C//DTD SVG 1.1//EN" "http://www.w3.org/Graphics/SVG/1.1/DTD/svg11.dtd">
<svg version="1.1" id="Layer_1" xmlns="http://www.w3.org/2000/svg" xmlns:xlink="http://www.w3.org/1999/xlink" x="0px" y="0px"
	 width="100px" height="100px" viewBox="0 0 100 100" enable-background="new 0 0 100 100" xml:space="preserve">
<g>
	<path fill="#1B75BB" d="M85.876,49.728h3.874c-0.595-17.172-12.338-31.555-28.226-36.069c0.196,1.34,0.241,2.73,0.23,4.114
		C75.359,22.219,85.302,34.792,85.876,49.728z"/>
	<path fill="#231F20" d="M84.423,61.246c-4.074,13.403-15.971,23.422-30.347,24.719c-0.22,1.301-0.387,2.606-0.516,3.918
		c16.703-1.14,30.534-12.854,34.838-28.484C87.084,61.299,85.759,61.241,84.423,61.246z"/>
	<path fill="#1B75BB" d="M16.035,54.543c-1.266,0.217-2.553,0.334-3.851,0.384c1.601,16.197,13.165,29.506,28.47,33.681
		c0.091-1.307,0.231-2.618,0.511-3.899C27.639,80.79,17.458,68.943,16.035,54.543z"/>
	<path fill="#231F20" d="M13.2,41.676c1.259,0.263,2.519,0.535,3.778,0.825c3.4-13.459,14.572-23.858,28.479-26.038
		c0.201-1.303,0.309-2.624,0.319-3.95C29.865,14.612,17.014,26.373,13.2,41.676z"/>
	<g>
		<path fill="#231F20" d="M92.828,55.044c-3.987,1.247-8.588,1.042-12.618-0.696c-2.032-0.815-3.868-2.014-5.597-3.271
			c-1.713-1.275-3.279-2.69-4.831-4.006c-1.521-1.341-3.059-2.607-4.654-3.393c-0.795-0.397-1.601-0.658-2.425-0.709
			c-0.226-0.032-1.046,0-1.336,0.042c-0.402,0.017-0.864,0.111-1.276,0.217c-1.679,0.463-3.142,1.664-4.153,3.323
			c-1.041,1.64-1.693,3.604-2.102,5.646c-0.265-2.081-0.034-4.251,0.746-6.328c0.408-1.026,1.002-2.021,1.783-2.894
			c0.79-0.862,1.811-1.569,2.92-2.015c0.57-0.226,1.11-0.401,1.733-0.516c0.731-0.132,0.948-0.157,1.753-0.184
			c1.252-0.01,2.475,0.294,3.564,0.753c2.176,0.952,3.849,2.384,5.47,3.722c3.132,2.769,6.02,5.522,9.455,7.429
			C84.673,54.092,88.641,55,92.828,55.044z"/>
		<path fill="#1B75BB" d="M56.159,47.552c2.94-1.08,6.293-1.252,9.47-0.344c1.591,0.442,3.103,1.247,4.429,2.288
			c0.658,0.53,1.257,1.134,1.787,1.788l0.746,0.869c0.235,0.24,0.461,0.485,0.727,0.73c2.042,1.988,4.723,3.25,7.6,4.007
			c2.883,0.771,5.946,1.021,9.073,1.247c-3.039,0.735-6.235,1.012-9.437,0.535c-3.181-0.442-6.392-1.782-8.837-4.11
			c-0.304-0.283-0.599-0.607-0.884-0.933l-0.746-0.922c-0.427-0.56-0.938-1.052-1.443-1.532c-1.041-0.962-2.288-1.68-3.613-2.269
			C62.34,47.807,59.276,47.415,56.159,47.552z"/>
		<path fill="#231F20" d="M54.092,50.911c1.688-0.59,3.5-0.688,5.272-0.531c1.777,0.138,3.54,0.589,5.194,1.306
			c3.29,1.429,6.196,3.966,7.61,7.231c-1.444-1.03-2.799-2.004-4.203-2.863c-1.413-0.843-2.843-1.59-4.33-2.237
			C60.66,52.516,57.523,51.656,54.092,50.911z"/>
	</g>
	<g>
		<path fill="#231F20" d="M8.192,48.957c3.932-1.418,8.536-1.418,12.637,0.137c2.069,0.727,3.957,1.841,5.742,3.01
			c1.768,1.202,3.395,2.543,5.008,3.785c1.576,1.271,3.166,2.475,4.799,3.191c0.808,0.364,1.625,0.579,2.453,0.6
			c0.225,0.02,1.042-0.05,1.332-0.104c0.398-0.033,0.854-0.147,1.265-0.278c1.657-0.531,3.063-1.793,3.999-3.497
			c0.967-1.688,1.532-3.682,1.851-5.743c0.358,2.071,0.221,4.251-0.461,6.357c-0.363,1.045-0.911,2.066-1.659,2.971
			c-0.749,0.902-1.733,1.654-2.823,2.149c-0.555,0.245-1.09,0.447-1.708,0.595c-0.724,0.162-0.938,0.195-1.743,0.26
			c-1.25,0.06-2.49-0.186-3.592-0.598c-2.216-0.85-3.955-2.211-5.628-3.468c-3.26-2.636-6.262-5.253-9.783-7
			C16.384,49.541,12.385,48.819,8.192,48.957z"/>
		<path fill="#1B75BB" d="M45.164,54.803c-2.892,1.214-6.233,1.538-9.444,0.771c-1.61-0.374-3.156-1.109-4.526-2.096
			c-0.68-0.496-1.311-1.065-1.871-1.699l-0.778-0.83c-0.248-0.24-0.483-0.476-0.763-0.702c-2.126-1.895-4.868-3.039-7.767-3.672
			c-2.919-0.633-5.99-0.741-9.12-0.839c3.005-0.864,6.187-1.282,9.4-0.953c3.203,0.305,6.466,1.492,9.016,3.712
			c0.312,0.265,0.618,0.589,0.923,0.898l0.783,0.879c0.455,0.549,0.984,1.011,1.52,1.471c1.075,0.919,2.352,1.582,3.704,2.102
			C38.979,54.829,42.061,55.079,45.164,54.803z"/>
		<path fill="#231F20" d="M47.081,51.356c-1.665,0.664-3.468,0.84-5.244,0.771c-1.784-0.069-3.564-0.432-5.249-1.074
			c-3.353-1.283-6.372-3.688-7.926-6.884c1.49,0.962,2.887,1.87,4.325,2.666c1.448,0.786,2.912,1.472,4.426,2.047
			C40.448,50.047,43.615,50.769,47.081,51.356z"/>
	</g>
	<g>
		<path fill="#231F20" d="M54.043,11.305c1.094,4.033,0.721,8.621-1.169,12.583c-0.894,2-2.16,3.795-3.471,5.479
			c-1.34,1.662-2.813,3.172-4.18,4.676c-1.399,1.471-2.725,2.954-3.567,4.527c-0.432,0.773-0.717,1.574-0.803,2.394
			c-0.042,0.22-0.037,1.048-0.007,1.338c0.004,0.4,0.078,0.866,0.171,1.279c0.395,1.698,1.542,3.205,3.165,4.271
			c1.598,1.104,3.542,1.831,5.57,2.316c-2.091,0.192-4.249-0.126-6.296-0.986c-1.016-0.442-1.986-1.07-2.828-1.885
			c-0.837-0.825-1.502-1.87-1.907-2.997c-0.207-0.572-0.36-1.12-0.454-1.75c-0.101-0.731-0.121-0.947-0.118-1.758
			c0.04-1.247,0.391-2.464,0.887-3.532c1.036-2.135,2.525-3.758,3.918-5.324c2.891-3.032,5.749-5.812,7.781-9.179
			C52.785,19.42,53.836,15.49,54.043,11.305z"/>
		<path fill="#1B75BB" d="M45.19,47.675c-0.967-2.985-1.016-6.338,0.005-9.478c0.506-1.573,1.365-3.059,2.46-4.337
			c0.555-0.641,1.173-1.221,1.851-1.726l0.889-0.71c0.25-0.225,0.509-0.441,0.76-0.707c2.063-1.961,3.427-4.597,4.296-7.439
			c0.869-2.851,1.232-5.904,1.581-9.019c0.613,3.063,0.771,6.272,0.177,9.451c-0.56,3.164-2.018,6.321-4.434,8.678
			c-0.294,0.289-0.633,0.575-0.972,0.847L50.86,33.95c-0.579,0.4-1.079,0.889-1.585,1.389c-1.002,0.995-1.763,2.215-2.396,3.516
			C45.679,41.506,45.175,44.558,45.19,47.675z"/>
		<path fill="#231F20" d="M48.475,49.859c-0.53-1.699-0.56-3.515-0.344-5.285c0.206-1.774,0.726-3.516,1.502-5.143
			c1.552-3.236,4.193-6.052,7.512-7.335c-1.09,1.404-2.111,2.72-3.024,4.094c-0.894,1.379-1.694,2.779-2.391,4.242
			C50.321,43.364,49.344,46.458,48.475,49.859z"/>
	</g>
	<g>
		<path fill="#231F20" d="M49.575,92.582c-1.572-3.872-1.749-8.474-0.339-12.637c0.648-2.087,1.694-4.016,2.793-5.842
			c1.139-1.813,2.416-3.491,3.594-5.15c1.218-1.62,2.356-3.256,3.005-4.915c0.339-0.819,0.53-1.649,0.511-2.474
			c0.02-0.226-0.084-1.042-0.147-1.325c-0.049-0.397-0.187-0.854-0.324-1.252c-0.594-1.636-1.909-2.99-3.643-3.863
			c-1.728-0.909-3.741-1.395-5.813-1.641c2.058-0.438,4.242-0.378,6.373,0.231c1.061,0.318,2.096,0.828,3.034,1.54
			c0.923,0.717,1.709,1.669,2.249,2.745c0.27,0.545,0.49,1.07,0.652,1.68c0.196,0.727,0.235,0.933,0.329,1.737
			c0.107,1.247-0.094,2.495-0.462,3.613c-0.775,2.249-2.062,4.025-3.26,5.749c-2.504,3.354-5.013,6.451-6.632,10.035
			C49.85,84.38,49.275,88.405,49.575,92.582z"/>
		<path fill="#1B75BB" d="M54.037,55.427c1.316,2.839,1.763,6.157,1.12,9.402c-0.314,1.625-0.992,3.196-1.925,4.601
			c-0.472,0.697-1.021,1.35-1.63,1.935l-0.806,0.81c-0.221,0.25-0.447,0.5-0.667,0.79c-1.812,2.19-2.857,4.973-3.378,7.896
			c-0.523,2.939-0.521,6.013-0.501,9.141c-0.972-2.966-1.515-6.127-1.298-9.357c0.176-3.206,1.252-6.515,3.375-9.142
			c0.255-0.324,0.56-0.644,0.854-0.957l0.854-0.819c0.53-0.472,0.972-1.017,1.414-1.571c0.874-1.109,1.487-2.406,1.959-3.775
			C54.288,61.599,54.42,58.511,54.037,55.427z"/>
		<path fill="#231F20" d="M50.522,53.636c0.722,1.634,0.967,3.431,0.962,5.209c0.005,1.787-0.299,3.579-0.879,5.291
			c-1.154,3.395-3.441,6.496-6.583,8.171c0.908-1.527,1.77-2.956,2.509-4.419c0.727-1.483,1.355-2.971,1.875-4.502
			C49.457,60.317,50.056,57.116,50.522,53.636z"/>
	</g>
	<path fill="#1B75BB" d="M53.979,50.871c0,1.787-1.448,3.229-3.235,3.229s-3.235-1.442-3.235-3.229c0-1.792,1.448-3.24,3.235-3.24
		S53.979,49.079,53.979,50.871z"/>
</g>
</svg>
