<?xml version="1.0" encoding="utf-8"?>
<!-- Generator: Adobe Illustrator 16.0.0, SVG Export Plug-In . SVG Version: 6.00 Build 0)  -->
<!DOCTYPE svg PUBLIC "-//W3C//DTD SVG 1.1//EN" "http://www.w3.org/Graphics/SVG/1.1/DTD/svg11.dtd">
<svg version="1.1" id="Layer_1" xmlns="http://www.w3.org/2000/svg" xmlns:xlink="http://www.w3.org/1999/xlink" x="0px" y="0px"
	 width="100px" height="100px" viewBox="0 0 100 100" enable-background="new 0 0 100 100" xml:space="preserve">
<g>
	<g>
		<g>
			<path fill="#D0D2D3" d="M78.571,64.185L78.571,64.185c-0.86-0.037-1.857-0.084-2.98-0.121c-0.131-0.01-0.262-0.016-0.397-0.021
				c-0.152-0.004-0.31-0.01-0.462-0.016c-1.154-0.035-2.319-0.072-3.521-0.094c-1.354-0.026-2.66-0.026-3.925-0.006
				c-1.265,0.016-2.345,0.064-3.227,0.148c-1.469,0.183-3.021,0.257-4.659,0.22c-1.642-0.043-3.23-0.137-4.773-0.272
				c-0.294,0.272-0.577,0.545-0.871,0.818c0.006,0,0.01,0,0.01,0c-1.09,1.028-2.171,2.045-3.252,3.073
				c0.273,2.1-0.073,4.192-0.483,6.285c2.334-1.422,6.375-2.271,10.713-2.287c-1.836,0.608-3.29,1.406-4.15,2.361
				c-2.681,2.975,1.434,6.327,9.182,7.48c0.404,0.053,0.809,0.111,1.212,0.158c-1.406,0.231-2.933,0.361-4.507,0.389
				c-0.32,0.01-0.641,0.01-0.96,0.01c-0.136-0.01-0.263-0.01-0.388-0.01c-0.336,0-0.662-0.021-0.992-0.037
				c-0.131-0.006-0.268-0.011-0.404-0.016c-0.314-0.021-0.64-0.053-0.965-0.084c-0.142-0.011-0.278-0.021-0.42-0.036
				c-0.346-0.032-0.688-0.08-1.033-0.133c-0.1-0.01-0.205-0.02-0.314-0.036c-3.558-0.53-6.265-1.574-7.739-2.827
				c0,0.005,0,0.01,0,0.016c-0.063,0.645-0.116,1.285-0.163,1.915c0.005,0.01,0.005,0.01,0.01,0.01
				c-0.131,1.616-0.241,3.237-0.341,4.863h-0.005c-0.016,0.278-0.037,0.563-0.053,0.845c0.011,0.263,0.016,0.524,0.021,0.797
				c0.403-0.292,0.708-0.607,2.172-0.592c-2.807-1.889,3.242-2.54,4.937-3.693c1.783,1.38,0.882,3.373-2.424,3.913l0,0
				c-0.115,0.016-0.221,0.037-0.336,0.053c0.027,0.037,0.043,0.068,0.063,0.1l0.006-0.005c0.834,1.186-0.357,2.146-1.852,3.074
				c1.494,0.304,2.676,0.562,2.676,0.562c0.976-0.016,2.051,0.021,3.231,0.095c1.175,0.073,2.225,0.184,3.143,0.313l0.688,0.105
				c1.973,0.368,3.903,0.745,5.797,1.123c1.181,0.242,2.377,0.472,3.584,0.714l0,0c0.724,0.142,1.447,0.283,2.188,0.425l0,0h0.005
				c-0.053-0.887-0.084-1.778-0.109-2.659c-0.027-0.882,0.036-1.763,0.193-2.64c0.346-1.778,0.661-3.546,0.955-5.32
				c0.283-1.769,0.587-3.541,0.893-5.325c0.125-0.923,0.288-1.856,0.481-2.791c0.2-0.944,0.347-1.878,0.441-2.812
				c0.084-0.714,0.141-1.438,0.168-2.167c0.025-0.729,0.21-1.442,0.545-2.156c0.284-0.64,0.646-1.265,1.081-1.867
				c0.431-0.609,0.871-1.223,1.322-1.842C78.582,64.185,78.576,64.185,78.571,64.185z"/>
			<path fill="#E4E3E5" d="M48.53,89.887c0.116,0.021,0.226,0.042,0.341,0.063c0.583-0.619,1.49-1.144,1.495-1.93
				c-0.787,0.109-1.291,0.419-1.605,0.786C48.756,89.226,48.667,89.582,48.53,89.887z"/>
		</g>
		<g>
			<path fill="#26A9E0" d="M70.198,84.104c-0.839-2.351-1.584-4.716-2.225-7.113c-1.301-4.885-2.613-9.743-3.945-14.585
				c-1.338-4.838-2.671-9.695-4.009-14.58c-0.723-2.513-1.416-5.065-2.088-7.66c-0.66-2.592-1.379-5.145-2.141-7.657
				c-0.571-1.946-1.186-3.903-1.825-5.865c-0.65-1.962-1.128-3.954-1.433-5.973c-0.31-1.826-0.52-3.638-0.629-5.43
				c-0.115-1.789-0.227-3.607-0.342-5.432c-1.028,0.27-2.235,0.59-3.604,0.973c-1.369,0.38-2.765,0.808-4.171,1.285
				c-1.411,0.48-2.757,0.992-4.032,1.542c-1.277,0.556-2.337,1.117-3.171,1.687c-1.335,1.068-2.859,1.878-4.575,2.429
				c-1.716,0.556-3.431,0.944-5.147,1.175c-0.304,5.904-0.608,11.765-0.916,17.578c-0.304,5.815-0.459,11.636-0.459,17.465
				c0,5.95-0.197,11.878-0.598,17.78c-0.399,5.913-0.829,11.836-1.286,17.785c1.333-0.073,2.712-0.116,4.145-0.116
				c1.427,0,2.81,0.116,4.145,0.347c1.411,0.263,2.849,0.451,4.318,0.572c1.467,0.109,2.925,0.205,4.373,0.278
				c-0.061-0.305,0.947-0.367,2.358-0.305c-0.273-1.563-0.604-3.137-0.987-4.728c1.204-1.169-0.039-3.016,2.303-3.866
				c-4.619-3.913,0.981-8.069,1.647-11.824c3.211,3.079,4.087,9.049,0.845,11.698c2.125,2.901,1.784,6.012,1.086,9.171
				c1.821,0.221,3.269,0.431,3.269,0.431c0.987-0.425,2.125-0.762,3.405-1.028c1.27-0.268,2.445-0.399,3.504-0.399h0.809
				c2.361,0.189,4.689,0.409,6.972,0.682c2.288,0.263,4.612,0.515,6.973,0.746C71.897,88.806,71.037,86.445,70.198,84.104z
				 M45.866,65.858c-8.104,0-14.677-6.568-14.677-14.681c0-6.185,3.822-11.473,9.229-13.637c-1.314,2.351-2.067,5.061-2.067,7.951
				c0,9.013,7.306,16.316,16.319,16.316c0.467,0,0.929-0.021,1.385-0.063C53.42,64.295,49.826,65.858,45.866,65.858z"/>
			<path fill="#26A9E0" d="M44.659,84.672c-1.348,1.154-0.976,3.83-0.383,5.696c0.21,0.021,0.425,0.037,0.635,0.053
				C44.937,88.538,45.383,86.771,44.659,84.672z"/>
		</g>
		<g>
			<path fill="#231F20" d="M43.313,75.271c-1.616,2.958-4.058,6.055-0.763,9.023c0.175-0.977,0.105-2.021,1.705-2.603
				C41.765,79.588,42.243,77.41,43.313,75.271z"/>
			<path fill="#231F20" d="M54.518,64.505c-0.457,0.031-0.924,0.063-1.391,0.063c-0.383,0-0.767-0.021-1.145-0.042
				c-1.857,0.851-3.935,1.333-6.117,1.333c-8.111,0-14.685-6.568-14.685-14.681c0-2.029,0.415-3.955,1.154-5.707
				c-1.689,2.392-2.687,5.31-2.687,8.463c0,8.104,6.571,14.684,14.685,14.684C48.29,68.617,51.878,67.043,54.518,64.505z"/>
			<path fill="#231F20" d="M30.467,20.487c1.715-0.559,3.239-1.361,4.575-2.432c0.839-0.572,1.896-1.136,3.174-1.687
				c1.277-0.557,2.618-1.068,4.029-1.545c1.412-0.477,2.802-0.905,4.176-1.288c1.37-0.378,2.571-0.703,3.599-0.968
				c0.115,1.829,0.231,3.639,0.346,5.428c0.116,1.794,0.325,3.604,0.629,5.432c0.305,2.022,0.777,4.014,1.428,5.976
				c0.65,1.964,1.259,3.914,1.825,5.86c0.766,2.513,1.479,5.065,2.151,7.66c0.66,2.589,1.358,5.144,2.082,7.657
				c1.338,4.88,2.671,9.748,4.004,14.586c1.332,4.837,2.649,9.705,3.944,14.579c0.65,2.398,1.391,4.774,2.23,7.119
				c0.477,1.338,0.976,2.687,1.474,4.029c0.871,0.095,1.747,0.189,2.634,0.273c-0.881-2.361-1.736-4.722-2.576-7.063
				c-0.839-2.351-1.578-4.716-2.229-7.113c-1.302-4.885-2.613-9.743-3.946-14.585c-1.332-4.838-2.67-9.695-4.002-14.58
				c-0.725-2.513-1.422-5.065-2.089-7.66c-0.667-2.592-1.38-5.145-2.146-7.657c-0.566-1.946-1.176-3.903-1.826-5.865
				s-1.123-3.954-1.427-5.973c-0.31-1.826-0.515-3.638-0.63-5.43c-0.115-1.789-0.23-3.607-0.346-5.432
				c-1.028,0.27-2.23,0.59-3.599,0.973c-1.375,0.38-2.765,0.808-4.176,1.285c-1.412,0.48-2.751,0.992-4.029,1.542
				c-1.277,0.556-2.334,1.117-3.174,1.687c-1.335,1.068-2.86,1.878-4.572,2.429c-1.716,0.556-3.431,0.944-5.147,1.175
				c-0.042,0.85-0.086,1.687-0.131,2.531C27.973,21.201,29.221,20.886,30.467,20.487z"/>
			<path fill="#231F20" d="M42.539,88.218c-0.181-0.881-0.375-1.763-0.587-2.66c0.31-0.304,0.456-0.645,0.542-1.013
				c-2.02,0.893-0.917,2.645-2.074,3.769c0.165,0.686,0.314,1.363,0.456,2.045c0.283-0.073,0.75-0.1,1.33-0.094
				C42.183,89.52,42.269,88.795,42.539,88.218z"/>
			<path fill="#231F20" d="M43.644,74.641c0.317-0.588,0.658-1.165,0.983-1.747c-0.084-0.089-0.167-0.185-0.257-0.272
				C44.255,73.281,43.984,73.953,43.644,74.641z"/>
			<path fill="#231F20" d="M46.747,81.565c0.058,0.079,0.105,0.157,0.157,0.236c0.053-0.168,0.095-0.341,0.136-0.52
				C46.941,81.376,46.852,81.477,46.747,81.565z"/>
		</g>
		<polygon fill="#F4F5F5" points="31.411,63.576 30.068,64.231 28.77,63.508 28.982,64.977 27.886,65.989 29.353,66.246 
			29.974,67.6 30.672,66.283 32.151,66.11 31.115,65.039 		"/>
		<polygon fill="#F4F5F5" points="42.912,53.906 43.4,54.962 43.945,53.934 45.099,53.802 44.292,52.962 44.522,51.824 
			43.476,52.333 42.46,51.766 42.623,52.915 41.765,53.702 		"/>
		<polygon fill="#F4F5F5" points="55.959,54.525 54.941,54.222 54.616,53.215 54.013,54.091 52.959,54.091 53.599,54.93 
			53.273,55.932 54.27,55.581 55.125,56.199 55.1,55.145 		"/>
		<polygon fill="#F4F5F5" points="53.011,46.079 54.91,46.709 54.249,44.82 55.435,43.209 53.436,43.249 52.271,41.63 51.689,43.54 
			49.79,44.148 51.426,45.292 51.422,47.286 		"/>
		<polygon fill="#F4F5F5" points="43.512,66.582 43.069,65.701 42.636,66.582 41.658,66.729 42.372,67.421 42.203,68.387 
			43.08,67.931 43.953,68.387 43.785,67.411 44.491,66.718 		"/>
	</g>
</g>
</svg>
