<?xml version="1.0" encoding="utf-8"?>
<!-- Generator: Adobe Illustrator 18.1.0, SVG Export Plug-In . SVG Version: 6.00 Build 0)  -->
<svg version="1.0" id="Layer_1" xmlns="http://www.w3.org/2000/svg" xmlns:xlink="http://www.w3.org/1999/xlink" x="0px" y="0px"
	 viewBox="0 0 150 150" enable-background="new 0 0 150 150" xml:space="preserve">
<g>
	<path fill="#B4202D" d="M115.3,60.1c-2,1.8-3.9,3.5-5.8,5.2c0.7,2.7,5.2,24.7,4.2,50.5c0,0,0,1.9-2.1,3.1
		c-1.5,0.8-15.3,5.5-32.4,7.1c-4.2,0.4-8,0.7-11.6,1c-0.2,0.6-0.5,1.1-0.7,1.6c0,0,0,0.1,0,0.1c-0.1-0.5-0.3-1.1-0.4-1.6
		c-11.4,0.8-19.3,0.9-23.3,0.4c-2-0.3-3.3-1-4.5-2.8c-1.1-1.6-6.6-17.3-8-38c-0.6-9-0.5-16.5-0.1-22.5c-0.1-0.1-0.1-0.1-0.2-0.2
		c0.1,0,0.1,0.1,0.2,0.1c0.7-9.5,2.3-15.1,3.2-16.7c0.8-1.3,2.3-2.3,4.3-2.5c4.3-0.4,17.5,0,35.7,3.9c12,2.6,20.5,5.6,25.8,8
		c2.7-1.9,5.4-3.6,8-5.2c-4.9-2.7-14.3-6.8-28.9-10.6h0.8c-0.1-2.9-1-5.6-2.6-7.9c0.1-0.1,0.2-0.1,0.3-0.2L94.3,16
		c0.9,0.1,1.8-0.1,2.4-0.7c1.1-1.1,1.1-2.9,0-4c-1.1-1.1-2.9-1.1-4,0c-0.7,0.7-0.9,1.6-0.7,2.4L75,30.8c0,0,0,0.1,0,0.1
		c-2.7-2.6-6.3-4.1-10.3-4.1c-4,0-7.6,1.6-10.3,4.1c0,0,0-0.1,0-0.1L37.2,13.7c0.1-0.9-0.1-1.8-0.7-2.4c-1.1-1.1-2.9-1.1-4,0
		c-1.1,1.1-1.1,2.9,0,4c0.7,0.7,1.6,0.9,2.4,0.7L52,33.1c0.1,0.1,0.2,0.1,0.3,0.2c-0.5,0.7-0.9,1.5-1.3,2.3
		c-14.2-2-24.4-2.2-28.4-1.8c-2.6,0.2-4.5,1.6-5.5,3.3c-2,3.3-6.1,20.6-4.1,50.9c1.8,26.8,9,47.2,10.4,49.2c1.6,2.3,3.3,3.3,5.9,3.6
		c6.9,0.9,22.8,0.3,46.6-2c22.2-2.1,40.2-8.1,42.1-9.2c2.7-1.6,2.7-4.1,2.7-4.1C121.9,92.1,116.2,63.6,115.3,60.1z"/>
	<g>
		<path fill="#5DB446" d="M124.1,47.6c-3.8,1.8-8,4.1-12.4,6.7c-2.5,1.5-5,3.1-7.6,4.8c-12.8,8.4-26.9,20-39.1,35.2
			C58.8,84.7,46.8,77,38.6,72.6c-3.4-1.8-6.1-3.1-7.6-3.7c18.1,17,30.9,39.6,35.6,58.2c0.1,0.5,0.3,1.1,0.4,1.6c0,0,0-0.1,0-0.1
			c0.2-0.5,0.4-1.1,0.7-1.6c4.3-10.5,14.1-35.5,41.8-61.7c1.8-1.7,3.8-3.5,5.8-5.2c7.3-6.4,15.8-12.8,25.5-19.1
			C138.4,41.5,132.3,43.7,124.1,47.6z"/>
		<circle fill="#5DB446" cx="64.8" cy="73.5" r="8.6"/>
	</g>
</g>
</svg>
