<?xml version="1.0" encoding="utf-8"?>
<!-- Generator: Adobe Illustrator 18.1.0, SVG Export Plug-In . SVG Version: 6.00 Build 0)  -->
<svg version="1.1" id="Layer_1" xmlns="http://www.w3.org/2000/svg" xmlns:xlink="http://www.w3.org/1999/xlink" x="0px" y="0px"
	 viewBox="0 0 150 150" enable-background="new 0 0 150 150" xml:space="preserve">
<g>
	<path fill="#689146" d="M41.9,40.7c1.1-0.9,2.2-1.8,3.2-2.6c3.4-2.8,6.8-5.1,11.1-6.5c7.4-2.3,16.3-0.7,18.6,7.7c0,0,0,0,0,0.1
		c0,0,0,0,0-0.1c2.3-8.4,11.2-10,18.6-7.7c4.3,1.3,7.6,3.6,11,6.5c1,0.8,2.1,1.7,3.3,2.6c-1.9-2.6-2.9-5.8-2.4-9.3
		c-8.4-4.8-20.7-7.9-31-7.9c-10,0-21.8,3-30.2,7.6C44.9,34.7,43.9,38,41.9,40.7z"/>
	<path fill="#689146" d="M133,44.7c-0.1,0-0.1,0.1-0.2,0.1c-3.5,4.4-9.9,5.5-15,4c-6.5-1.9-12.9-6.7-18.5-10.4
		c-4.6-3-10.5-6.2-16-4.4c-2.7,0.9-4.7,3-5.5,5.7c-0.6,2.1-0.5,4.7,1.3,6.3c2.1,1.9,6.7,2.5,7.6-1c0.3-1.1,0.3-2.5-0.8-3
		c-0.8-0.4-2.4-0.3-2.4,0.8c0,0.7-0.7,1-1.3,0.7c-0.4-0.2-1-0.6-1.1-1.1c-0.3-1.7,0.9-3.1,2.5-3.6c1.6-0.5,3.2-0.1,4.6,1
		c3.3,2.5,2.3,7-0.4,9.1c-3.1,2.4-7.6,2.1-10.5-0.5c-1.2-1.1-2-2.5-2.4-4c-0.4,1.5-1.2,2.9-2.4,4c-2.9,2.6-7.4,2.9-10.5,0.5
		c-2.7-2.1-3.7-6.6-0.4-9.1c1.3-1,3-1.5,4.6-1c1.6,0.5,2.8,1.9,2.5,3.6c-0.1,0.5-0.7,0.9-1.1,1.1c-0.6,0.3-1.3,0-1.3-0.7
		c-0.1-1.2-1.6-1.2-2.4-0.8c-1.2,0.6-1.1,2-0.8,3c0.9,3.5,5.5,2.9,7.6,1c1.8-1.6,1.9-4.1,1.3-6.3c-0.7-2.8-2.8-4.8-5.5-5.7
		c-5.5-1.8-11.4,1.4-16,4.4c-5.6,3.7-12,8.4-18.5,10.4c-5.4,1.6-12.3,0.3-15.6-4.9c-0.7,2,0.9,4.5,2.9,6.5c3.7,3.7,6.9,8.8,6.9,14.5
		v3.3c0,1.8,1.3,2.7,5.2,2.7h86.6c3.9,0,5.2-0.9,5.2-2.7v-3.3c0-5.7,3.2-10.8,6.9-14.5C131.7,48.7,133.2,46.5,133,44.7z"/>
	<path fill="#689146" d="M116.7,76H32.3c-3.8,0-6.8,3.4-6.8,7c0,3.6,3,7,6.8,7h84.3c3.8,0,6.8-3.4,6.8-7
		C123.5,79.4,120.4,76,116.7,76z"/>
	<path fill="#689146" d="M116,95H32.2c-3.7,0-6.2,3-6.2,6.9v7c0,3.9,2.5,7.1,6.2,7.1H116c3.7,0,7-3.3,7-7.1v-7
		C123,98,119.7,95,116,95z"/>
	<path fill="#402312" d="M17,55.8l-5.3,0.1c-3,0-5.3,2.3-5.3,5L7,122.4c0,2.7,2.4,4.9,5.4,4.9l5.3-0.1c3,0,5.3-2.3,5.3-5l-0.6-61.6
		C22.3,57.9,19.9,55.7,17,55.8z"/>
	<path fill="#402312" d="M142,60.6c0-2.7-2.4-4.9-5.4-4.9l-5.3,0.1c-3,0-5.3,2.3-5.3,5l0.6,61.6c0,2.7,2.4,4.9,5.4,4.9l5.3-0.1
		c2.9,0,5.3-2.3,5.3-5L142,60.6z"/>
	<path fill="#402312" d="M31.8,48.8c6.5-1.9,12.9-6.7,18.5-10.4c4.6-3,10.5-6.2,16-4.4c2.7,0.9,4.7,3,5.5,5.7
		c0.6,2.1,0.5,4.7-1.3,6.3c-2.1,1.9-6.7,2.5-7.6-1c-0.3-1.1-0.3-2.5,0.8-3c0.8-0.4,2.4-0.3,2.4,0.8c0,0.7,0.7,1,1.3,0.7
		c0.4-0.2,1-0.6,1.1-1.1c0.3-1.7-0.9-3.1-2.5-3.6c-1.6-0.5-3.2-0.1-4.6,1c-3.3,2.5-2.3,7,0.4,9.1c3.1,2.4,7.6,2.1,10.5-0.5
		c1.2-1.1,2-2.5,2.4-4c0.4,1.5,1.2,2.9,2.4,4c2.9,2.6,7.4,2.9,10.5,0.5c2.7-2.1,3.7-6.6,0.4-9.1c-1.3-1-3-1.5-4.6-1
		c-1.6,0.5-2.8,1.9-2.5,3.6c0.1,0.5,0.7,0.9,1.1,1.1c0.6,0.3,1.3,0,1.3-0.7c0-1.2,1.6-1.2,2.4-0.8c1.2,0.6,1.1,2,0.8,3
		c-0.9,3.5-5.5,2.9-7.6,1c-1.8-1.6-1.8-4.1-1.3-6.3c0.7-2.8,2.8-4.8,5.5-5.7c5.5-1.8,11.4,1.4,16,4.4c5.6,3.7,12,8.4,18.5,10.4
		c5.1,1.5,11.5,0.4,15-4c0.9-1.1,1.6-2.5,2-4.1c0.8-3.1-0.7-6.6-4.1-6.9c-1.8-0.1-3.4,0.2-4.4,1.8c-0.7,1.2-0.8,2.6,0.1,3.7
		c0.2,0.3,0.6,0.3,0.9,0.3c0.3-0.1,0.5-0.2,0.7-0.4c0.1-0.1,0.1-0.2,0.1-0.3c-1.3-2.3,3.5-3.4,4.2-0.6c0.7,2.6-2,5.2-4,6.3
		c-5.1,2.7-12,0.6-16.1-2.9c-0.5-0.4-1-0.9-1.4-1.4c-1.6-1.9-2.6-4.2-2.7-6.8c0-0.1,0-0.1,0-0.2c0.1-3.5,2.3-7.5,6.1-7.7
		c3.4-0.2,6.4,1.8,5.8,5.5c-0.3,1.5-1,2-2.4,2.3c-1.3,0.3-1.9-0.4-2.7-1.2c-0.3-0.3-0.9-0.3-1,0.1c-0.8,3.1,3.1,4,5.1,3.5
		c3.8-0.8,4.7-4.8,3.8-8.1c-1.1-3.9-5.3-5.4-9-5.1c-4.3,0.3-7.2,4-8.2,7.9c-0.1,0.4-0.2,0.8-0.2,1.1c-0.6,3.5,0.4,6.7,2.4,9.3
		c-1.1-0.9-2.2-1.8-3.3-2.6c-3.4-2.8-6.8-5.1-11-6.5C86,29.4,77.1,31,74.8,39.3c0,0,0,0,0,0.1c0,0,0,0,0-0.1
		c-2.3-8.4-11.2-10-18.6-7.7c-4.3,1.3-7.6,3.6-11.1,6.5c-1,0.8-2.1,1.7-3.2,2.6c2-2.7,3-6,2.3-9.6c-0.1-0.3-0.1-0.5-0.2-0.8
		c-1-3.9-3.9-7.6-8.2-7.9c-3.7-0.3-7.9,1.2-9,5.1c-0.9,3.3,0,7.3,3.8,8.1c2.1,0.4,5.9-0.5,5.1-3.5c-0.1-0.4-0.7-0.4-1-0.1
		c-0.8,0.9-1.4,1.5-2.7,1.2c-1.4-0.3-2.1-0.9-2.4-2.3c-0.7-3.7,2.4-5.7,5.8-5.5c3.9,0.2,6.1,4.4,6.1,7.9c0,3.3-1.6,6.1-4.1,8.3
		c-4.1,3.5-11,5.7-16.1,2.9c-2-1.1-4.7-3.7-4-6.3c0.7-2.7,5.5-1.7,4.2,0.6c-0.1,0.1,0,0.3,0.1,0.3c0.2,0.2,0.4,0.4,0.7,0.4
		c0.3,0,0.7,0,1-0.3c0.8-1.1,0.7-2.5,0.1-3.7c-1-1.7-2.6-2-4.4-1.8c-3.4,0.2-5,3.8-4.1,6.9c0.3,1.2,0.8,2.3,1.4,3.2
		C19.5,49.1,26.4,50.4,31.8,48.8z"/>
</g>
</svg>
