<?xml version="1.0" encoding="utf-8"?>
<!-- Generator: Adobe Illustrator 18.1.0, SVG Export Plug-In . SVG Version: 6.00 Build 0)  -->
<svg version="1.1" id="Layer_1" xmlns="http://www.w3.org/2000/svg" xmlns:xlink="http://www.w3.org/1999/xlink" x="0px" y="0px"
	 viewBox="0 0 150 150" enable-background="new 0 0 150 150" xml:space="preserve">
<g>
	<g>
		<path fill="#525D29" d="M95.6,37.6l3.4,1.1l0.3,1.2L99,41.7l-0.9,1.4l-0.5,0.6l-0.2,0.4l-0.1,0.4l-1,1.8L96,48.7l-0.1,0.4
			l-0.3,1.3l-0.5,1.1l0.8,1.3l0.1,0.8l-0.2,1.1l0.2,0.7v0.7l-0.2,0.8l-0.4,1.2v1l-0.3,0.4l0.1,0.5l-0.1,1.9l-0.3,0.7l-0.4,0.5
			L94,63.4L93.2,64l-2.1-0.1L89.9,63l-0.4-1.4l-0.2-0.8l-0.2-1.2L89,59v-0.8l-0.1-0.4l-0.6-1.2L88,56.4v-0.7l0.1-0.5l-0.2-0.8v-1.4
			l-1.8-2.4l-0.4-0.3l-0.2-0.6V49l-0.8-0.9l-0.2-0.6l-0.9-0.9l-0.4-0.4l-0.2-0.4l-0.8-0.6l-0.8-0.3l-1.9-0.4l-0.6-0.3l-1.5-0.2
			l-0.4,0.4l-0.4,0.1l-1,0.1l-2.9,0.7L72,45.5l-2.6,2.4l-0.7,0.6L68,48.8l-0.8,0.4l-0.1,1.7l-0.7,0.3L65.8,53l-0.3,0.5L65,54.7
			l-0.5,0.9l0.3,1l-0.4,1.8L64.2,59V60v1l-1.1,1.4l0.3,1.6l-0.1,1.4l-0.4,2l0.2,0.5l-0.3,1l-0.1,0.9L62.6,71l-0.1,0.6l-0.1,7.3
			l0.3,2.2h0.6l0.5,0.8l0.2,1.3v2.5v0.8l0.1,0.5l0.2,1.3l-0.2,2L64,90.7l0.2,1.1l0.2,0.7l-0.1,0.5V94l0.2,0.7l0.1,0.5l0.1,1.1
			l0.4,1.7l0.1,0.4v1.5l0.5,0.2l0.3,0.7l0.1,0.8l0.9,1.6l0.4,0.7l1.1,1l0.8,1.4l1,0.4l1.5,1l0.9,0.2l0.4,0.2l0.4-0.1l0.5,0.1
			l0.6-0.1l0.5,0.2l0.5-0.2l0.8-0.1l3.1-1.3l0.5-1.1l0.7-0.9l0.3-0.3l1.4-3.1l0.2-0.7l0.2-0.9l0.1-0.8l0.2-0.5l0.4-1.4l0.2-1.1
			l0.1-0.9l0.2-0.7L84,93.7l0.3-0.9l0.5-0.7l0.3-1.2l-0.5-1.3l0.2-2.2l-0.1-2.8l-0.1-0.4v-0.4l0.4-0.3l-0.5-0.9L84.4,82l-0.1-0.8
			l-0.5-0.5l-0.4-1.1L83,78.8l-0.7-1L82,77l-0.9-0.8l-0.7-0.6L80,75.5l-2-0.5l-1,0.5l-0.7,0.6l-0.4,1.6v1l0.2,0.3l0.5,0.4l1,0.4
			l1.2,2l-0.4,1.5l0.1,1.1l-0.4,1l-0.7,0.8l-0.7,0.3l-1.1,0.5l-0.8,0.1l-1,0.1l-1.1-0.3L72.1,87l-0.9-0.3L70,85.4l-0.7-1.3L69,83.8
			v-0.9l-0.3-1L68.6,81l0.1-1.4l0.2-0.7v-0.8l0.4-1.2l1.5-3.2l0.7-0.6l0.4-0.4l2.3-2.1l1-0.5l0.8-0.3l1.1-0.5l1-0.5l1.3-0.5l0.7,0.1
			l0.5,0.1l3.2-0.9l1,0.1l0.5-0.2l1.5,0.4l0.9-0.2l0.7,0.2l0.7,0.4l0.4,0.1l1.9,0.5l1,0.5l1.4,0.5l1.1,0.7l0.3,0.7l0.7,0.5l0.2,0.7
			l2.6,0.8v0.9l1.1,1.4l0.2,0.8l0.6,1.1l0.4,0.4l0.1,1l0.7,1.1l-0.2,0.6v0.9l0.4,0.1l0.1,0.4l0.6,2l0.2,0.5v2.1l0.3,0.9l1.2,1.9
			l-0.5,0.5l-0.3,0.4l-0.3,0.7l-0.5,1.9l-0.3,1.4l-0.4,0.8l-0.1,0.5l-0.4,0.2l-0.2,0.4L101,97v1.4l-0.2,0.4l-0.2,1.1l-1.7,2.5
			l-1.1,1l-0.2,1.2l-1,1l-0.7,0.6l-0.9,1l-0.7,0.5l-0.7-0.2l-0.5,0.9l-3.4,2.1l-1,0.6l-0.7,0.3l-0.4,0.3l-2.5,1h-0.5l-0.4,0.2
			l-1,0.1l-0.4,0.3l-0.8,0.3l-2.2-0.2l-1,0.1h-0.8l-0.3,0.5l-0.6-0.1l-0.5,0.1l-0.7-0.1l-1.2-0.2h-1.5l-0.4,0.2l-1.6-0.1l-1.3-0.7
			l-1.3,0.3h-1.1l-1.5-0.6l-2.8-0.4l-0.3-0.5h-0.5l-0.9-0.3l-0.4-0.3h-0.5l-0.7-0.4l-0.8-0.5l-0.6-0.4l-0.5-0.4l-1-0.4l-1.6-1.3
			l-0.5-0.8l-0.5-1.1h-1l-0.5-0.7l-0.4-0.4l-0.7-1l-1.1-1.4l-0.3-0.4l-0.3-0.6l-1.1-1.7l-0.5-1.1l-0.8-1.5l-0.5-1.6L46.4,95l-0.4-2
			l-0.3-0.5l-0.9-1.4l-0.8-3l-0.1-0.6V87l-0.2-1.1l0.5-1.3l-0.3-0.5l-0.7-0.4l-0.3-1.4l-0.3-3.4l-0.8-3.7l-0.1-1.3l-0.4-0.9
			l-0.3-1.3l0.3-0.6l0.3-0.5l0.7-0.8l1.4-2.7l0.2-1.3l0.9-1.4l0.1-1l0.1-0.4l0.2-0.4h0.4l0.1-0.7v-1.2l0.9-1.9l0.3-0.9l-0.1-0.9
			l0.5-0.4l3-4.9l0.3-1.2l0.5-0.5l0.3-0.5l1.4-1.2l0.1-0.6l0.3-0.4l0.6-0.3l0.4-0.1l1.2-1l0.7-0.7l1.9-1.4l1.5-0.3l1.7-1.5l0.9-0.5
			l0.4-0.3l0.5-0.5h0.4l1.5-0.3l1-0.4l1-0.2H68l1.5-0.5H71l0.8-0.3h0.5l0.6,0.2l0.7-0.2h1.5l1.1,0.3l1.5-0.1h0.7l1.3,0.2l2.3,0.4
			l1.1,0.5l1.4,0.4l1.3,0.7l1.4,0.5l1.1,0.8l0.6,0.1l1.4,0.1l1.2-0.4l0.7-0.9l0.4-0.9l0.5-0.9l1.5-1.3L95.6,37.6z"/>
	</g>
	<g>
		<g>
			<path fill="#525D29" d="M75.3,139.7c-28.8,0-52.2-28.8-52.2-64.2s23.4-64.2,52.2-64.2s52.2,28.8,52.2,64.2
				S104.1,139.7,75.3,139.7z M75.3,20.3c-23.8,0-43.2,24.7-43.2,55.2c0,30.4,19.4,55.1,43.2,55.1s43.2-24.7,43.2-55.1
				C118.5,45.1,99.1,20.3,75.3,20.3z"/>
		</g>
	</g>
	<g>
		<g>
			<path fill="#525D29" d="M75.3,146.9c-32.2,0-58.3-32-58.3-71.4S43.1,4.1,75.3,4.1s58.3,32,58.3,71.4S107.5,146.9,75.3,146.9z
				 M75.3,6.4c-30.9,0-56,31-56,69.1c0,38.1,25.1,69.1,56,69.1s56-31,56-69.1C131.3,37.4,106.2,6.4,75.3,6.4z"/>
		</g>
	</g>
</g>
</svg>
