<?xml version="1.0" encoding="utf-8"?>
<!-- Generator: Adobe Illustrator 18.1.0, SVG Export Plug-In . SVG Version: 6.00 Build 0)  -->
<svg version="1.1" id="Layer_1" xmlns="http://www.w3.org/2000/svg" xmlns:xlink="http://www.w3.org/1999/xlink" x="0px" y="0px"
	 viewBox="0 0 150 150" enable-background="new 0 0 150 150" xml:space="preserve">
<g>
	<linearGradient id="SVGID_1_" gradientUnits="userSpaceOnUse" x1="67.2227" y1="75.7519" x2="109.4113" y2="41.6289">
		<stop  offset="0" style="stop-color:#6CAB36"/>
		<stop  offset="1" style="stop-color:#00A251"/>
	</linearGradient>
	<path fill="url(#SVGID_1_)" d="M74.8,9.9c-21,0-39.6,10-51.4,25.5C35,27.3,48,19.8,57.1,19.2l0,0c0,0,26.7-5.9,45.9,11.5
		c0,0-25.2-10.3-45.7-6.6c-0.4,10.3,0.9,34.2,21.5,46.6c26.7,16.1,49.6-7.4,55.2,27.9c0.1,0.4,0.1,0.8,0.2,1.2
		c3.3-7.8,5.2-16.4,5.2-25.4C139.4,38.8,110.5,9.9,74.8,9.9z"/>
	<linearGradient id="SVGID_2_" gradientUnits="userSpaceOnUse" x1="37.9791" y1="110.3452" x2="101.2598" y2="61.954">
		<stop  offset="0" style="stop-color:#6CAB36"/>
		<stop  offset="1" style="stop-color:#6EC829"/>
	</linearGradient>
	<path fill="url(#SVGID_2_)" d="M93.7,131.9l-0.1,0.2c0,0-26.7,5.9-45.9-11.5c0,0,24.5,10,44.8,6.7C93,117.1,91.7,93.1,71,80.5
		C44.4,64.4,21.4,88,15.8,52.6c-0.1-0.4-0.1-0.8-0.2-1.2c-3.3,7.8-5.2,16.4-5.2,25.4c0,35.6,28.9,64.5,64.5,64.5
		c21,0,39.6-10,51.4-25.5C115.2,123.6,102.7,130.9,93.7,131.9z"/>
	<linearGradient id="SVGID_3_" gradientUnits="userSpaceOnUse" x1="104.4906" y1="84.896" x2="27.5604" y2="102.8876">
		<stop  offset="0" style="stop-color:#FFFFFE"/>
		<stop  offset="1" style="stop-color:#6EC829"/>
	</linearGradient>
	<path fill="url(#SVGID_3_)" d="M91.2,123c0,0-1.7-29-20.3-39.7C52.3,72.5,30,81.6,18.4,70c0,0,4.5,17,27.7,17.8
		C69.3,88.7,83.3,99,91.2,123z"/>
	<linearGradient id="SVGID_4_" gradientUnits="userSpaceOnUse" x1="51.4135" y1="59.3805" x2="149.4377" y2="49.454">
		<stop  offset="0" style="stop-color:#FFFFFE"/>
		<stop  offset="1" style="stop-color:#00A251"/>
	</linearGradient>
	<path fill="url(#SVGID_4_)" d="M58.7,28.5c0,0,1.7,28.9,20.3,39.7c18.6,10.8,40.9,1.7,52.5,13.2c0,0-4.5-17-27.7-17.8
		C80.6,62.8,66.6,52.5,58.7,28.5z"/>
</g>
</svg>
