<?xml version="1.0" encoding="utf-8"?>
<!-- Generator: Adobe Illustrator 18.1.0, SVG Export Plug-In . SVG Version: 6.00 Build 0)  -->
<svg version="1.0" id="Layer_1" xmlns="http://www.w3.org/2000/svg" xmlns:xlink="http://www.w3.org/1999/xlink" x="0px" y="0px"
	 viewBox="0 0 150 150" enable-background="new 0 0 150 150" xml:space="preserve">
<g>
	<path fill="#CE2028" d="M112.4,60.7c-2.1,2.1-4.6,3.9-7.4,5.3c0.1,9.9-0.8,19.7-2.9,28.3c6.9-3.9,13.8-8.9,21.1-15.3
		c0.8-0.7,1.6-1.4,2.4-2c1.6-1.3,3.2-2.6,4.2-3.9c-2.2-7.9-5.4-14.7-9.9-20.4c0,0.1-0.1,0.1-0.2,0.2C117.4,55.5,115,58.2,112.4,60.7
		z"/>
	<path fill="#CE2028" d="M50.3,65.1v-1.5v-0.5l-0.2,0.1L50,63.1l-1.5,0.4c-0.9,0.3-1.8,0.5-2.7,0.8C41.5,65.6,37,67,32.1,67
		c-0.3,0-0.6,0-0.9,0l-0.6,0L30,66.5c-1.7-1.4-3.3-2.8-4.8-4.2c-4,8.1-6,17.4-5.7,27.2c10-8.6,21.6-17,35.4-23.1
		c-1-0.3-2.1-0.5-3.1-0.8L50.3,65.1z"/>
	<path fill="#CE2028" d="M27.9,96c-0.6,0.5-1.4,1.1-2.2,1.8c-1.3,1-3.8,3-4.7,4.2c0.3,1.5,1.6,4.5,2.3,5.9c0.2,0.5,0.4,0.9,0.6,1.3
		c5.3,12.4,13.6,21.6,25.3,27.8c-3.6-17.6-3.5-39.8,0.3-56.3C40.5,85.6,32.5,92,27.9,96z"/>
	<path fill="#CE2028" d="M82.8,113.5c6.3,3.9,14,7.5,22.5,10.6l0.6,0.2c5.8,2.1,8.4,2.8,9.6,3c0.8-0.7,2.4-2.4,4.8-5.6
		c6.7-8.8,12.3-22.8,11.6-36.5C119.9,96,104.2,107.3,82.8,113.5z"/>
	<path fill="#CE2028" d="M60.9,141.7c4.5,1.2,9.2,1.8,14.2,1.8c11.4,0,22.9-3.3,31-8.7c-19.7-6.2-36.3-15.7-49.6-28.5
		C56.3,118.3,57.8,130.7,60.9,141.7z"/>
	<polygon points="66.9,72.9 66.9,104.2 94,88.5 	"/>
	<path d="M36.8,18.9c-3.2,2-5.6,4.7-5.6,7.9c-1.1,12.9,9.5,24.3,19.9,34C66.4,53.6,80.8,45.3,93,35.5c-5.6-7.8-15.1-14.1-25.8-18.1
		C61,15,53.9,15.2,47.4,13.6c7.1-0.5,14.9-1.3,21.6,1.1C80.3,18.6,87.8,26.1,95,33.2c1.9-1.5,3.8-3.1,5.8-4.6
		C92.1,19.2,80.2,8.4,63,9c-9.7-0.3-16.9,4.6-23.4,9.1c-1-0.7-1.9-1.4-2.8-2.1l3.3-2l0.2-0.1c-0.1,0-0.2,0-0.3,0.1
		c-3.9,0.8-7.2,2.5-9.4,5C32.2,18.9,35.3,18.9,36.8,18.9z"/>
	<path d="M30.2,35.5c-1.7-4.9-0.8-10,0.1-14.9c-7.4,4.9-14.8,11.1-14.9,18.8c0,9.8,7.7,18.6,16.4,25.6c5.9,0.2,11.3-1.8,16.7-3.4
		C42,53.1,33.9,45,30.2,35.5z"/>
	<path d="M76.9,49.3c-7.5,4.6-16.2,8-23.9,12.4c0,0.5,0,1.4,0,1.9c11.3,3.2,23.5,5.2,35.7,4.7c9-0.3,17.7-3.7,23-9.1
		c7.9-7.7,14-16.4,23.7-23.1c-10.8-2.1-21.6-4.3-32.4-6.3C94.6,36.6,86.7,43.7,76.9,49.3z"/>
</g>
</svg>
