<?xml version="1.0" encoding="iso-8859-1"?>
<!-- Generator: Adobe Illustrator 13.0.0, SVG Export Plug-In . SVG Version: 6.00 Build 14948)  -->
<!DOCTYPE svg PUBLIC "-//W3C//DTD SVG 1.1//EN" "http://www.w3.org/Graphics/SVG/1.1/DTD/svg11.dtd">
<svg version="1.1" id="Layer_1" xmlns="http://www.w3.org/2000/svg" xmlns:xlink="http://www.w3.org/1999/xlink" x="0px" y="0px"
	 width="100px" height="100px" viewBox="0 0 100 100" enable-background="new 0 0 100 100" xml:space="preserve">
<g>
	<g>
		<g>
			<radialGradient id="SVGID_1_" cx="65.4697" cy="26.0747" r="56.7474" gradientUnits="userSpaceOnUse">
				<stop  offset="0" style="stop-color:#919395"/>
				<stop  offset="0.6727" style="stop-color:#424243"/>
				<stop  offset="1" style="stop-color:#272525"/>
			</radialGradient>
			<path fill="url(#SVGID_1_)" d="M41.335,11.636c4.647-1.289,9.757-3.018,14.462-0.989c4.771,2.093,7.171,7.133,8.845,11.758
				c-2.239,0.618-4.485,1.225-6.73,1.831c-1.043-2.954-2.312-6.322-5.32-7.764c-2.66-1.193-5.435,0.319-8.057,0.88
				c-2.804,0.918-6.204,1.014-8.261,3.394c-2.077,2.571-1.238,6.099-0.406,8.982c3.694-1.135,7.41-2.322,11.257-2.762
				c4.421-0.6,8.57,1.358,12.615,2.819c4.162,1.563,8.6,3.158,11.545,6.686c2.331,2.711,3.183,6.36,3.338,9.875
				c0.138,3.866,0.274,7.751-0.054,11.611c-0.619,6.348-3.495,12.293-7.499,17.199C61.657,81.874,54.486,86.868,47.294,91.5
				c-6.517-4.408-12.919-9.147-18.019-15.189c1.748-1.486,3.474-2.985,5.206-4.497c3.77,4.396,8.246,8.12,12.999,11.406
				c5.949-4.332,11.677-9.192,15.86-15.304c2.697-3.981,4.539-8.671,4.465-13.519c-0.041-3.585,0.262-7.254-0.625-10.756
				c-0.934-3.253-4.135-4.97-6.986-6.303c-2.895-1.237-5.795-2.513-8.856-3.266c-2.441-0.619-4.967-0.07-7.35,0.549
				c-4.006,1.052-7.961,2.334-11.792,3.923c-2.322,0.95-4.226,2.999-4.686,5.512c-0.59,3.253-0.351,6.59-0.293,9.888
				c0.073,4.039,1.234,7.981,3.04,11.579c-1.853,1.441-3.712,2.884-5.562,4.332c-1.703-3.051-3.027-6.311-3.742-9.742
				c-0.906-4.076-0.763-8.268-0.689-12.421c0.166-3.79,0.695-7.814,3.078-10.915c1.69-2.323,4.223-3.822,6.807-4.945
				c-1.464-4.931-2.15-10.813,0.947-15.278C33.409,13.192,37.722,12.708,41.335,11.636z"/>
			<g>
				<radialGradient id="SVGID_2_" cx="46.5513" cy="56.4062" r="21.0015" gradientUnits="userSpaceOnUse">
					<stop  offset="0" style="stop-color:#7CC5F1"/>
					<stop  offset="0.009" style="stop-color:#79C4F1"/>
					<stop  offset="0.2612" style="stop-color:#22B2ED"/>
					<stop  offset="0.3758" style="stop-color:#00ABEB"/>
					<stop  offset="0.465" style="stop-color:#00A4E3"/>
					<stop  offset="0.6054" style="stop-color:#0091CC"/>
					<stop  offset="0.7795" style="stop-color:#0072A7"/>
					<stop  offset="0.9788" style="stop-color:#004775"/>
					<stop  offset="1" style="stop-color:#00426F"/>
				</radialGradient>
				<path fill="url(#SVGID_2_)" d="M35.214,49.498c2.973-5.977,10.603-9.026,16.883-6.736c5.588,1.805,9.518,7.515,9.394,13.372
					c-0.006,5.148-3.173,10.104-7.838,12.293c-4.943,2.469-11.243,1.575-15.377-2.073c-5.343,4.599-10.619,9.294-15.997,13.844
					c-1.359,1.046-2.603-0.619-3.308-1.633c-0.769-0.798-0.412-2.023,0.465-2.559c5.419-4.243,10.874-8.434,16.3-12.677
					C33.221,59.194,32.914,53.791,35.214,49.498z M45.501,46.487c-2.437,0.536-4.676,2.035-6.028,4.133
					c-2.055,3.107-2.08,7.445-0.013,10.553c1.563,2.487,4.338,4.159,7.273,4.351c3.39,0.357,6.891-1.302,8.804-4.108
					c2.369-3.4,2.205-8.319-0.412-11.521C52.927,47.023,49.006,45.714,45.501,46.487z M19.817,77.108
					c1.084-0.179,1.825-1.033,2.596-1.723c1.206-1.135,2.485-2.182,3.624-3.387C23.97,73.702,21.521,75.041,19.817,77.108z"/>
			</g>
		</g>
	</g>
	<circle fill="#8BBFE9" cx="47.721" cy="55.967" r="8.115"/>
	<path fill="#FFFFFF" d="M55.833,56.075c0,2.322-3.679,4.217-8.217,4.217c-4.542,0-8.22-1.895-8.22-4.217
		c0-2.329,3.678-4.224,8.22-4.224C52.154,51.852,55.833,53.746,55.833,56.075z"/>
	<radialGradient id="SVGID_3_" cx="47.8267" cy="55.9668" r="3.0955" gradientUnits="userSpaceOnUse">
		<stop  offset="0" style="stop-color:#7CC5F1"/>
		<stop  offset="0.0239" style="stop-color:#79C4F1"/>
		<stop  offset="0.6952" style="stop-color:#22B2ED"/>
		<stop  offset="1" style="stop-color:#00ABEB"/>
	</radialGradient>
	<path fill="url(#SVGID_3_)" d="M44.729,55.967c0-1.716,1.387-3.094,3.097-3.094c1.709,0,3.097,1.378,3.097,3.094
		s-1.388,3.094-3.097,3.094C46.117,59.061,44.729,57.683,44.729,55.967z"/>
</g>
</svg>
