<?xml version="1.0" encoding="utf-8"?>
<!-- Generator: Adobe Illustrator 18.1.0, SVG Export Plug-In . SVG Version: 6.00 Build 0)  -->
<svg version="1.1" id="Layer_1" xmlns="http://www.w3.org/2000/svg" xmlns:xlink="http://www.w3.org/1999/xlink" x="0px" y="0px"
	 viewBox="0 0 1000 1000" enable-background="new 0 0 1000 1000" xml:space="preserve">
<g>
	<linearGradient id="SVGID_1_" gradientUnits="userSpaceOnUse" x1="330.3906" y1="1121.6853" x2="554.2653" y2="336.3443">
		<stop  offset="0" style="stop-color:#48B2E8"/>
		<stop  offset="1" style="stop-color:#0193D7"/>
	</linearGradient>
	<path fill="url(#SVGID_1_)" d="M916.7,384c-62.5-183.3-279-277.5-496.1-222.7c169.8-26.2,329.9,50.4,377.9,191.1
		c55.2,161.9-59,347.4-255.1,414.2c-196.1,66.8-399.7-10.3-454.9-172.2c-12.2-35.7-16.1-72.6-12.7-109.1
		c-14.4,60.1-12.9,122.7,7.6,182.7C149.6,862.9,390,957.2,620.2,878.7C850.3,800.3,983.1,578.8,916.7,384z"/>
	<g>
		<path fill="#0193D7" d="M404.8,179.1c0,21.6-17.5,39.1-39.1,39.1c-21.6,0-39.1-17.5-39.1-39.1c0-21.6,17.5-39.1,39.1-39.1
			C387.3,140,404.8,157.5,404.8,179.1z"/>
		<path fill="#BAD5F0" d="M367.8,170.2c0,7.7-6.2,13.9-13.9,13.9c-7.7,0-13.9-6.2-13.9-13.9c0-7.7,6.2-13.9,13.9-13.9
			C361.6,156.3,367.8,162.5,367.8,170.2z"/>
	</g>
</g>
</svg>
