<?xml version="1.0" encoding="utf-8"?>
<!-- Generator: Adobe Illustrator 14.0.0, SVG Export Plug-In . SVG Version: 6.00 Build 43363)  -->
<!DOCTYPE svg PUBLIC "-//W3C//DTD SVG 1.1//EN" "http://www.w3.org/Graphics/SVG/1.1/DTD/svg11.dtd">
<svg version="1.1" id="Layer_1" xmlns="http://www.w3.org/2000/svg" xmlns:xlink="http://www.w3.org/1999/xlink" x="0px" y="0px"
	 width="150px" height="150px" viewBox="0 0 150 150" enable-background="new 0 0 150 150" xml:space="preserve">
<g>
	<path fill="#00B0CA" d="M142.809,52.698l-44.206,4.844c-1.508-5.406-5.731-9.299-10.18-12.043l-6.679-15.141l-2.149,3.57
		c0.187,0.096-0.555,0.94-0.555,2.59c0.145,1.99,0.513,4.821,6.854,8.364c5.662,3.215,12.279,8.271,12.646,16.314
		c0.048,2.147-0.823,4.329-2.197,6.292c3.146,2.917,5.492,6.632,5.877,11.629c0,2.303-0.602,4.693-1.736,7.117l-0.854,1.762
		c0.285,1.249,0.253,2.638,0.099,4.044c1.688,0.981,3.041,2.611,3.19,5.21c-0.123,2.005-0.958,3.37-2.114,4.403
		c0.219,3.038,0.084,7.128-1.786,11.527l-1.041,2.398l-1.544-0.05l-2.078,11.35l48.455,5.166l-29.037-39.671L142.809,52.698z"/>
	<path fill="#00B0CA" d="M51.375,115.434l-2.353-2.253c-1.989-4.627-2.036-8.844-1.808-11.527c-1.14-1.037-1.979-2.436-2.093-4.399
		c0.202-3.002,1.942-4.737,3.989-5.624c-2.611-4.891-3.932-12.068,1.398-18.699c-1.963-2.397-3.114-5.224-3.093-8.053
		c-0.031-4.986,3.264-9.639,8.336-11.42c-0.705-1.356-1.13-2.834-1.191-4.414c-0.094-0.575-0.047-1.088-0.047-1.088
		c1.176-15.18,20.417-19.396,20.417-19.922l9.813-3.187l0.694-1.124l-5.812,1.839l-5.502-12.498L66.321,30.74
		c-5.601,2.95-11.999,7.983-12.683,16.493c0,0-0.047,0.526,0.052,1.104c0.057,1.593,0.492,3.093,1.217,4.458
		c-2.647,0.913-4.828,2.568-6.341,4.63l-43.135-4.72l29.033,39.67L5.432,132.045l46.973-5.129l0.959-0.144l-1.715-11.339H51.375z"/>
	<polygon fill="#006473" points="81.251,113.181 68.191,113.181 64.845,113.181 56.058,113.181 60.819,144.667 64.932,144.667 
		64.969,144.63 68.083,144.63 68.108,144.667 81.34,144.667 81.388,144.63 84.479,144.63 84.506,144.667 88.629,144.667 
		93.386,113.181 84.588,113.181 	"/>
	<path fill="#00B0CA" d="M96.038,111.538c1.838-4.281,1.7-8.424,1.444-10.545c-0.284,0.046-0.574,0.058-0.875,0.058H52.836
		c-0.311,0-0.596-0.012-0.876-0.058c-0.253,2.121-0.389,6.264,1.451,10.545c0.409-0.068,0.865-0.133,1.295-0.133h40.036
		C95.173,111.405,95.618,111.47,96.038,111.538z"/>
	<path fill="#00899D" d="M96.396,92.924c2.491-10.165-9.73-11.83-24.728-13.446c-13.305-1.44-16.77-4.772-16.77-4.772
		c-7.984,8.68,0.626,18.219,0.626,18.219H96.396z"/>
	<path fill="#00B0CA" d="M74.103,61.666c-9.278-1.894-14.869-4.977-14.869-4.977c-7.916,1.262-10.351,12.154-1.243,16.732
		c5.418,2.671,16.112,3.501,25.075,4.858c11.563,1.792,14.495,6.206,14.495,6.206C104.405,70.318,83.402,63.51,74.103,61.666z"/>
	<path fill="#006473" d="M84.696,48.46c-13.355-7.162-7.816-16.614-7.816-16.614s-18.242,5.872-17.641,16.656
		c0.238,4.388,3.311,7.577,13.397,10.032c5.347,1.294,9.606,2.267,12.874,3.443c5.155,1.797,7.771,4.101,7.771,4.101
		C98.82,59.723,91.504,52.1,84.696,48.46z"/>
	<path fill="#00B0CA" d="M49.841,97.25c0,1.264,1.342,2.303,2.995,2.303h43.771c1.658,0,3-1.039,3-2.303
		c0-1.257-1.342-2.274-3-2.274H52.836C51.183,94.976,49.841,95.993,49.841,97.25z"/>
</g>
</svg>
