<?xml version="1.0" encoding="utf-8"?>
<!-- Generator: Adobe Illustrator 14.0.0, SVG Export Plug-In . SVG Version: 6.00 Build 43363)  -->
<!DOCTYPE svg PUBLIC "-//W3C//DTD SVG 1.1//EN" "http://www.w3.org/Graphics/SVG/1.1/DTD/svg11.dtd">
<svg version="1.1" id="Layer_1" xmlns="http://www.w3.org/2000/svg" xmlns:xlink="http://www.w3.org/1999/xlink" x="0px" y="0px"
	 width="150px" height="150px" viewBox="0 0 150 150" enable-background="new 0 0 150 150" xml:space="preserve">
<g>
	<path fill="none" d="M75.53,13.185c-33.861,0.051-61.246,27.453-61.323,61.298c0.077,33.863,27.462,61.22,61.323,61.306
		c33.837-0.086,61.195-27.443,61.281-61.306C136.726,40.638,109.367,13.236,75.53,13.185z M31.283,64.354
		c0-2.228,0.307-4.404,0.896-6.52c0.196-0.725,0.597-1.391,0.862-2.099c0.504-1.357,0.947-2.731,1.673-4.011
		c0.478-0.854,1.161-1.622,1.732-2.441c0.734-1.05,1.382-2.142,2.261-3.123c0.793-0.896,1.775-1.673,2.68-2.509
		c0.854-0.793,1.622-1.638,2.569-2.364c1.109-0.862,2.381-1.57,3.601-2.338c0.921-0.563,1.758-1.203,2.722-1.715
		c1.399-0.742,2.936-1.314,4.446-1.928c0.93-0.384,1.8-0.836,2.773-1.169c1.63-0.546,3.354-0.913,5.069-1.306
		c0.973-0.222,1.886-0.529,2.875-0.7c1.767-0.298,3.61-0.393,5.437-0.521c0.922-0.068,1.801-0.248,2.73-0.265v0.043
		c0.342,0,0.666-0.077,1.007-0.077c11.351,0,22.111,3.354,30.329,9.455c8.27,6.136,13.006,14.721,13.006,23.314l-0.018,1.911
		c0,1.596-1.28,3.115-2.884,3.115H73.61H34.185h-0.008c-1.596,0-2.893-1.52-2.893-3.115V64.354z M118.473,105.127
		c0,2.287-1.887,4.139-4.147,4.139H73.61H35.627c-2.27,0-4.13-1.852-4.13-4.139v-5.752c0-2.26,1.86-4.139,4.13-4.139H73.61h40.715
		c2.261,0,4.147,1.879,4.147,4.148V105.127z M118.473,85.5c0,2.27-1.887,4.121-4.147,4.121H73.61H35.627
		c-2.27,0-4.13-1.852-4.13-4.121v-5.77c0-2.27,1.86-4.104,4.13-4.104H73.61h40.715c2.261,0,4.147,1.843,4.147,4.104V85.5z"/>
	<path fill="#F3772F" d="M75.53,4.848c-38.487,0-69.652,31.148-69.652,69.635c0,38.435,31.165,69.634,69.652,69.634
		c38.437,0,69.61-31.199,69.61-69.634C145.141,35.996,113.967,4.848,75.53,4.848z M75.53,135.789
		c-33.861-0.086-61.246-27.443-61.323-61.306c0.077-33.845,27.462-61.247,61.323-61.298c33.837,0.051,61.195,27.453,61.281,61.298
		C136.726,108.346,109.367,135.703,75.53,135.789z"/>
	<path fill="#F3772F" d="M32.179,57.833c0.196-0.725,0.597-1.391,0.862-2.099C32.776,56.443,32.375,57.108,32.179,57.833z"/>
	<path fill="#F3772F" d="M115.051,69.107c1.604,0,2.884-1.52,2.884-3.115l0.018-1.911c0-8.594-4.736-17.179-13.006-23.314
		c-8.218-6.102-18.979-9.455-30.329-9.455c-0.341,0-0.665,0.077-1.007,0.077v37.719H115.051z"/>
	<path fill="#F3772F" d="M65.443,32.13c1.767-0.298,3.61-0.393,5.437-0.521C69.054,31.737,67.21,31.832,65.443,32.13z"/>
	<path fill="#F3772F" d="M34.176,69.107h0.008c-1.596,0-2.901-1.52-2.901-3.115C31.283,67.587,32.58,69.107,34.176,69.107z"/>
	<path fill="#F3772F" d="M57.499,34.135c1.63-0.546,3.362-0.913,5.069-1.306C60.853,33.222,59.129,33.589,57.499,34.135z"/>
	<path fill="#F3772F" d="M43.956,41.287c1.109-0.854,2.381-1.57,3.601-2.338C46.337,39.716,45.065,40.425,43.956,41.287z"/>
	<path fill="#F3772F" d="M50.279,37.233c1.399-0.742,2.936-1.314,4.446-1.928C53.215,35.919,51.679,36.491,50.279,37.233z"/>
	<path fill="#F3772F" d="M34.714,51.724c0.478-0.854,1.161-1.622,1.732-2.441C35.875,50.102,35.191,50.87,34.714,51.724z"/>
	<path fill="#F3772F" d="M38.708,46.16c0.793-0.896,1.775-1.673,2.68-2.509C40.482,44.487,39.501,45.263,38.708,46.16z"/>
	<path fill="#754D24" d="M114.325,75.626H73.61v13.995h40.715c2.261,0,4.147-1.852,4.147-4.121v-5.77
		C118.473,77.47,116.586,75.626,114.325,75.626z"/>
	<path fill="#F3772F" d="M114.325,95.236H73.61v14.029h40.715c2.261,0,4.147-1.852,4.147-4.139v-5.742
		C118.473,97.115,116.586,95.236,114.325,95.236z"/>
	<path fill="#EF492D" d="M34.185,69.107H73.61V31.388v-0.043c-0.93,0.017-1.809,0.196-2.73,0.265
		c-1.826,0.128-3.67,0.222-5.437,0.521c-0.989,0.171-1.903,0.478-2.875,0.7c-1.707,0.393-3.439,0.76-5.069,1.306
		c-0.973,0.333-1.843,0.785-2.773,1.169c-1.511,0.614-3.047,1.186-4.446,1.928c-0.964,0.512-1.801,1.152-2.722,1.715
		c-1.22,0.768-2.492,1.485-3.601,2.338c-0.947,0.726-1.715,1.57-2.569,2.364c-0.905,0.836-1.886,1.613-2.68,2.509
		c-0.879,0.981-1.527,2.073-2.261,3.123c-0.572,0.819-1.255,1.587-1.732,2.441c-0.726,1.28-1.169,2.654-1.673,4.011
		c-0.265,0.708-0.666,1.374-0.862,2.099c-0.589,2.116-0.896,4.292-0.896,6.52v1.638C31.283,67.587,32.589,69.107,34.185,69.107z"/>
	<path fill="#9D6837" d="M35.627,75.626c-2.27,0-4.13,1.834-4.13,4.104v5.77c0,2.27,1.86,4.121,4.13,4.121H73.61V75.626H35.627z"/>
	<path fill="#EF492D" d="M35.627,95.236c-2.27,0-4.13,1.879-4.13,4.139v5.752c0,2.287,1.86,4.139,4.13,4.139H73.61V95.236H35.627z"
		/>
</g>
</svg>
