<?xml version="1.0" encoding="utf-8"?>
<!-- Generator: Adobe Illustrator 18.1.0, SVG Export Plug-In . SVG Version: 6.00 Build 0)  -->
<svg version="1.1" id="Layer_1" xmlns="http://www.w3.org/2000/svg" xmlns:xlink="http://www.w3.org/1999/xlink" x="0px" y="0px"
	 viewBox="0 0 150 150" enable-background="new 0 0 150 150" xml:space="preserve">
<g>
	<g>
		<path fill="#CCCECF" d="M60.3,142.7l-15.5-8.9l-4.5-2.6l0,0l-2.8-1.6l-14.4-8.3c-4.8-2.8-8.3-5.8-10.5-9.6l0,0
			c-2.2-3.9-3.1-8.4-3.1-13.9l0,0V79.8v-5.2v0v-3.3V54.9c0-0.1,0-0.2,0-0.2l0,0c0-5.5,0.9-10,3.1-13.9l0,0c2.2-3.9,5.7-6.9,10.5-9.6
			l0,0l15.5-8.9l4.6-2.6v0L46,18l14.4-8.3c3.3-1.9,8-4.3,13.6-4.3l0,0c5.6,0,10.3,2.4,13.6,4.3l0,0l15.5,8.9l4.5,2.6v0l17.1,9.9
			c4.1,2.3,7.9,5.2,10.5,9.6l0,0c2.5,4.4,3.1,9.1,3.1,13.8l0,0v0.1v10.4V69h-2.1h2.1v12.1v17l0,0c0,5.3-0.9,9.7-3.1,13.5l0,0
			c-2.2,3.9-5.7,6.9-10.5,9.7l0,0l-15.5,8.9l-4.6,2.7h0l-2.7,1.6l-14.4,8.3c-3.3,1.9-8,4.3-13.6,4.3l0,0
			C68.3,147,63.6,144.6,60.3,142.7L60.3,142.7z M85.5,139.1l14.4-8.3l5-2.9l0,0l2.4-1.4l15.5-8.9c4.4-2.5,7.2-5.1,9-8.1l0,0
			c1.7-3,2.5-6.7,2.6-11.8l0,0c0,0,0,0,0-0.1l0,0c0,0,0,0,0-0.1l0,0V81.1v-8.2l0,0V54.8l-0.1-0.9l0-0.2l0,0v0h0.1
			c-0.1-4-0.7-7.6-2.5-10.9l0,0c-2-3.5-5.1-5.9-9-8.1l0,0l-19.2-11.1l0,0l-2.4-1.4l-15.5-8.9c-3.1-1.8-7.1-3.7-11.5-3.7l0,0
			c-4.4,0-8.4,1.9-11.5,3.7l0,0l-14.4,8.3l-4.9,2.8v0l-2.4,1.4l-15.5,8.9c-4.4,2.5-7.2,5.1-9,8.1l0,0c-1.8,3-2.6,6.7-2.6,11.8l0,0v0
			v16.6v5.6l0,0v2.9v17.9c0,5.2,0.8,8.8,2.5,11.8l0,0c1.7,3,4.5,5.5,9,8.1l0,0l14.4,8.3l4.9,2.8v0l2.5,1.4l15.5,8.9
			c3.1,1.8,7.1,3.7,11.5,3.7l0,0C78.4,142.8,82.3,140.9,85.5,139.1L85.5,139.1z M53.9,91l20,11.5l2.8-1.6l20-11.6l0-26.3L94,61.4
			l-20-11.5l-2.8,1.6l-20,11.6v3.2l0,23.1L53.9,91L53.9,91z"/>
	</g>
	<path fill-rule="evenodd" clip-rule="evenodd" fill="#2FBCB3" d="M128.8,54.7v17.9l-23.4,13.5l0-55.4l14.4,8.3
		C126.8,43.1,128.8,46.6,128.8,54.7"/>
	<path fill-rule="evenodd" clip-rule="evenodd" fill="#D0BE2A" d="M128.8,81.1v16.6c0,8.1-2,11.7-9.1,15.7l-15.5,8.9l-23.4-13.5
		L128.8,81.1z"/>
	<path fill-rule="evenodd" clip-rule="evenodd" fill="#F19339" d="M96.9,126.6l-14.4,8.3c-7.1,4.1-11.1,4.1-18.1,0l-15.5-8.9v-27
		L96.9,126.6z"/>
	<path fill-rule="evenodd" clip-rule="evenodd" fill="#6CBF70" d="M41.6,121.7l-14.4-8.3c-7.1-4.1-9.1-7.6-9.1-15.7V79.8l23.4-13.5
		L41.6,121.7z"/>
	<path fill-rule="evenodd" clip-rule="evenodd" fill="#DE1C4E" d="M18.2,71.3V54.7c0-8.1,2-11.7,9.1-15.7l15.5-8.9l23.4,13.5
		L18.2,71.3z"/>
	<path fill-rule="evenodd" clip-rule="evenodd" fill="#0086C8" d="M50.1,25.9l14.4-8.3c7.1-4.1,11.1-4.1,18.1,0L98,26.5v27
		L50.1,25.9z"/>
</g>
</svg>
