<?xml version="1.0" encoding="utf-8"?>
<!-- Generator: Adobe Illustrator 18.1.0, SVG Export Plug-In . SVG Version: 6.00 Build 0)  -->
<svg version="1.1" id="Layer_1" xmlns="http://www.w3.org/2000/svg" xmlns:xlink="http://www.w3.org/1999/xlink" x="0px" y="0px"
	 viewBox="0 0 150 150" enable-background="new 0 0 150 150" xml:space="preserve">
<g>
	<path fill="none" d="M126.7,85.4c4,0.8,8,1.7,12,2.7c0-0.7,0.1-1.4,0.1-2L126.7,85.4z"/>
	<path fill="none" d="M138.1,75.1l-27.2,3.2l26.6-6.3c-0.5-2.6-1.2-5.1-2-7.5l-26.2,7.9l25.1-10.8c-1-2.4-2.1-4.8-3.3-7.1
		l-24.4,12.3l22.8-15c-1.4-2.2-2.9-4.4-4.5-6.4l-19.3,14.4c0.2,0.3,0.3,0.7,0.4,1c0.3,1.2-0.2,2.6-0.2,3.8c0,1.1,0.2,2.1,0.5,3.1
		c0,0,0.1,0,0.1,0c0,0.1,0.1,0.1,0.1,0.2c0.1,0.1,0.2,0.2,0.3,0.4c0,0,0,0.1,0,0.1c0,0.1-0.4,0.2-0.4,0.2c0,0-0.5,0-0.5,0v0
		c0,0.2,0.7,0.3,0.7,0.5c0,0,0.2,0.1,0.2,0.1c0,0.1,0.2,0.2,0.2,0.4c0,0,0.1,0,0.1,0.1c0,0.1,0.1,0.2,0.1,0.2c0,0.1,0,0.1-0.1,0.1
		c0.1,0.3,0.1,0.6,0.1,0.9c0,0,0,0,0,0c0,0-0.1,0-0.1,0c0,0,0-0.1,0-0.1c0,0-0.1,0-0.1,0c0-0.1,0-0.1,0-0.2c0,0,0,0,0,0
		c0,0.1-0.1,0.1-0.1,0c-0.1-0.1-0.1-0.2-0.2-0.3c-0.1-0.1-0.2-0.1-0.2-0.2c0,0,0,0,0,0l0,0c0,0,0,0,0,0c0,0-0.1,0-0.1,0
		c0,0,0,0,0-0.1c0,0,0,0,0,0c-0.1-0.1-0.1-0.3-0.2-0.4c0,0,0-0.1,0-0.2c0,0-0.1,0-0.1,0c0-0.3,0-0.7,0.1-0.9c0,0,0-0.3,0-0.3h0
		c-0.4-1-0.7-2.5-0.7-3.9c0,0-0.1,0.1-0.1,0c0.1-1,0.5-1.9-0.5-2.7v0c0,0,0.1,0,0.1,0c-0.1-0.3-0.2-0.6-0.4-0.8l-0.6,0.5
		c0.1,1.4,0.1,2.8,0.1,3.6c-0.1,1.8-0.7,2.6-1.6,3.7c-0.9,1.1-0.7,1.8-0.7,1.8s1.6,3.7,1.6,4.3c0,0.3,0.3,3.9,0.5,7.4
		c5.2,0.6,10.4,1.3,15.6,2.2l19.2-1.1C138.7,80.3,138.5,77.7,138.1,75.1z"/>
	<polygon fill="none" points="103.7,58.3 103.7,58.3 103.7,58.3 	"/>
	<path fill="none" d="M98.7,77.4c0,0,0,1.6-0.1,2.4c0,0.2-0.1,0.7-0.3,1.4c1,0.1,2,0.2,2.9,0.3c-0.2-0.6-0.4-1.2-0.6-1.7
		C100,78.5,98.7,77.4,98.7,77.4z"/>
	<path fill="none" d="M103.7,58.1c0,0-0.1-0.1-0.1-0.1C103.6,58,103.6,58,103.7,58.1C103.6,58,103.6,58,103.7,58.1
		C103.6,58,103.6,58,103.7,58.1z"/>
	<path fill="none" d="M115.1,35.4c-2-1.6-4.2-3.1-6.4-4.5l-15,22.8L106,29.4c-2.3-1.2-4.6-2.3-7.1-3.3L88.1,51.2L96,25
		c-2.5-0.8-5-1.5-7.5-2l-6.3,26.6l3.2-27.2c-2.5-0.4-5.2-0.6-7.8-0.7L76,49l-1.6-27.3c-2.6,0.1-5.2,0.3-7.8,0.7l3.2,27.2l-6.3-26.6
		c-2.6,0.5-5.1,1.2-7.5,2l7.9,26.2L53.1,26.1c-2.4,1-4.8,2.1-7.1,3.3l11.7,23.2c0.1,0,0.4-0.4,1.1-0.7c0.7-0.4,2.7-0.4,2.7-0.4
		s0,0.5-0.3,1c-0.3,0.5-1.3,1.3-1,1.5c0.3,0.2,2.4,0.7,3.5,0.7c1.1,0,5.8,0.4,6.9,0.4c1.1,0,2.9,0.8,4.4,0.9
		c1.5,0.1,7.1-0.1,10.8-0.6c3.7-0.5,10.4-1.2,12.2-1c0.7,0.1,1.5,0.4,2.3,0.8L115.1,35.4z"/>
	<path fill="none" d="M43.3,30.9c-2.2,1.4-4.4,2.9-6.4,4.5l12.3,16.5c0.4,0.1,0.8,0.1,0.9,0.2c0.2,0.1,1.7,1.2,1.7,1.2
		s1.1-0.6,1.6-0.7c0.5-0.1,3.3,0,4,0.1L43.3,30.9z"/>
	<path fill="none" d="M94,78.4c-1.7,0.1-4-1.6-4-1.6s-1.5-0.1-4.2-0.1c-2.7-0.1-6.2-0.3-7-0.5c-0.8-0.2-4.7,0.1-4.7,0.1
		s0.1,1.7,0.2,3.9c6.9,0,13.9,0.2,20.8,0.7c0-0.6-0.1-1-0.2-1.1C94.7,79.3,94,78.4,94,78.4z"/>
	<path fill="none" d="M13.3,88c3.8-1,7.6-1.8,11.4-2.6l-11.5,0.7C13.3,86.7,13.3,87.4,13.3,88z"/>
	<path fill="none" d="M64.5,76.2c0.1-0.1,0.1-0.1,0.2-0.2c1-1.1,2.7-5.5,3.5-6.7c0.8-1.2,2.3-0.8,2.9-0.7c0.6,0.1,1.5,0.2,1.8,0.4
		c0.3,0.1,0.7,0.4,1.1,0.4c0.4-0.1,1.4-1.5,1.4-1.5c0.1-0.2-0.2-0.4-0.3-0.5c-0.2-0.1-1.1-1.8-1.3-2.3c-0.2-0.5-1.2-2.1-1.2-2.2
		c0-0.1,1-1.2,1.1-1.4c0.1-0.2,0.1-0.7,0.1-0.7s-0.9,0.1-1,0.2c-0.1,0-1.1,0.8-1.1,0.8s-0.7-0.4-1.1-0.5c-0.3-0.1-2.7,0-2.7,0
		s-0.3-0.2-0.8-0.5c-0.5-0.3-1.8-0.3-1.8-0.3s0,0.3,0.2,0.7c0.2,0.3,0.9,0.9,0.7,1c-0.2,0.1-1.6,0.5-2.3,0.5c-0.7,0-3.8,0.3-4.5,0.3
		c-0.7,0-1.9,0.5-2.9,0.6c-0.1,0-0.3,0-0.5,0c0,0,0,0.1,0,0.1c-1.2-0.5-2.7-0.2-3.4-0.2c-0.9,0.1-2.3,0.3-2.7,0.5
		c-0.4,0.2-1,0.6-1.6,0.5c-0.6-0.1-2.2-2.2-2.2-2.2c-0.2-0.2,0.3-0.6,0.5-0.8c0.1-0.1,0.4-0.5,0.7-1.1L26.9,45.4
		c-1.6,2-3.1,4.2-4.5,6.4l22.8,15L20.9,54.5c-1.2,2.3-2.3,4.6-3.3,7.1l25.1,10.8l-26.2-7.9c-0.8,2.5-1.5,5-2,7.5l26.6,6.3l-27.2-3.2
		c-0.4,2.5-0.6,5.2-0.7,7.8L32.1,84c11.2-2,22.6-3.1,33.9-3.6c-0.5-1.9-1.1-4.1-1.1-4.1S64.8,76.3,64.5,76.2z"/>
	<path fill="none" d="M70.6,78.3c-0.2,0.2-0.5,1.2-0.7,2c0.5,0,1,0,1.4,0C71,79.1,70.7,78.1,70.6,78.3z"/>
	<path fill="none" d="M100.7,55.3c0.9,0.5,1.8,1.2,2.3,1.7c0.6,0.2,1,0.7,1.5,1.1c0.4,0.4,0.8,0.8,1.1,1.3L123.1,43
		c-1.7-2-3.6-3.8-5.5-5.5L100.7,55.3z"/>
	<path fill="none" d="M103.7,58.5C103.7,58.5,103.7,58.5,103.7,58.5C103.7,58.5,103.7,58.5,103.7,58.5
		C103.7,58.5,103.7,58.5,103.7,58.5z"/>
	<path fill="none" d="M47.4,60.4c0.5-0.8,1-1.7,1.1-2.1c0.3-0.7,1.9-3.1,1.9-3.3c0-0.2-1.6-1.8-1.7-2.1c-0.1-0.1-0.1-0.3-0.1-0.4
		L34.5,37.4c-2,1.7-3.8,3.6-5.5,5.5L47.4,60.4z"/>
	<path fill="none" d="M104.3,59.9c0,0-0.1-0.1-0.1-0.1c-0.1-0.1-0.2-0.2-0.2-0.3c0,0,0,0,0,0c0.1,0.4,0.1,0.9,0.2,1.4l0.5-0.5
		C104.5,60.2,104.4,60.1,104.3,59.9C104.3,59.9,104.3,59.9,104.3,59.9z"/>
	<path fill="#4D311C" d="M13.2,86.1l11.5-0.7c2.5-0.5,4.9-1,7.4-1.4l-18.9-1.1c0.1-2.6,0.3-5.2,0.7-7.8l27.2,3.2L14.4,72
		c0.5-2.6,1.2-5.1,2-7.5l26.2,7.9L17.6,61.6c1-2.4,2.1-4.8,3.3-7.1l24.4,12.3l-22.8-15c1.4-2.2,2.9-4.4,4.5-6.4l20.4,15.2
		c-0.3,0.6-0.6,1-0.7,1.1c-0.3,0.2-0.7,0.6-0.5,0.8c0,0,1.6,2.1,2.2,2.2c0.6,0.1,1.2-0.4,1.6-0.5c0.4-0.2,1.8-0.4,2.7-0.5
		c0.7-0.1,2.2-0.4,3.4,0.2c0,0,0-0.1,0-0.1c0.2,0,0.3,0,0.5,0c1-0.1,2.2-0.6,2.9-0.6c0.7,0,3.8-0.3,4.5-0.3c0.7,0,2.1-0.4,2.3-0.5
		c0.2-0.1-0.4-0.7-0.7-1c-0.2-0.3-0.2-0.7-0.2-0.7s1.3,0,1.8,0.3c0.5,0.3,0.8,0.5,0.8,0.5s2.4-0.1,2.7,0c0.3,0.1,1.1,0.5,1.1,0.5
		s1-0.7,1.1-0.8c0.1,0,1-0.2,1-0.2s0,0.5-0.1,0.7c-0.1,0.2-1.1,1.3-1.1,1.4c0,0.1,1.1,1.7,1.2,2.2c0.2,0.5,1.1,2.2,1.3,2.3
		c0.2,0.1,0.5,0.4,0.3,0.5c0,0-1,1.4-1.4,1.5c-0.4,0.1-0.8-0.2-1.1-0.4c-0.3-0.1-1.2-0.3-1.8-0.4c-0.6-0.1-2.1-0.4-2.9,0.7
		c-0.8,1.2-2.5,5.6-3.5,6.7c-0.1,0.1-0.1,0.1-0.2,0.2c0.2,0.1,0.4,0.1,0.4,0.1s0.6,2.2,1.1,4.1c1.3,0,2.6-0.1,3.8-0.1
		c0.2-0.8,0.5-1.8,0.7-2c0.2-0.2,0.4,0.8,0.7,2c1,0,2.1,0,3.1,0c-0.1-2.2-0.2-3.9-0.2-3.9s3.8-0.3,4.7-0.1c0.8,0.2,4.4,0.4,7,0.5
		c2.7,0.1,4.2,0.1,4.2,0.1s2.3,1.6,4,1.6c0,0,0.7,0.9,1,1.5c0.1,0.1,0.1,0.6,0.2,1.1c1.1,0.1,2.1,0.2,3.2,0.3
		c0.1-0.7,0.2-1.3,0.3-1.4c0.1-0.7,0.1-2.4,0.1-2.4s1.3,1,2,2.4c0.2,0.5,0.4,1.1,0.6,1.7c0.9,0.1,1.8,0.2,2.7,0.3
		c-0.2-3.5-0.5-7-0.5-7.4c-0.1-0.6-1.6-4.3-1.6-4.3s-0.2-0.7,0.7-1.8c0.9-1.1,1.5-1.9,1.6-3.7c0.1-0.8,0-2.2-0.1-3.6l0.6-0.5
		c0.2,0.3,0.2,0.5,0.3,0.8c0,0-0.1,0-0.1,0v0c1,0.9,0.5,1.9,0.5,2.8c0,0,0.1-0.1,0.1-0.1c0,1.4,0.2,2.9,0.7,3.9h0c0,0,0,0.2,0,0.3
		c-0.1,0.2-0.1,0.6-0.1,0.8c0,0,0,0.1,0.1,0.1c0,0.1,0,0.1,0,0.2c0,0.1,0.1,0.3,0.2,0.4c0,0,0,0,0,0c0,0,0,0,0,0.1c0,0,0,0,0.1,0
		c0,0,0,0,0,0l0,0c0,0,0,0,0,0c0.1,0.1,0.1,0.2,0.2,0.2c0.1,0.1,0.1,0.2,0.2,0.3c0,0,0.1,0,0.1,0c0,0,0,0,0,0c0,0.1,0,0.1,0,0.2
		c0,0,0,0.1,0.1,0c0,0,0,0.1,0,0.1c0,0,0,0.1,0.1,0c0,0,0,0,0,0c0-0.3,0-0.6-0.1-0.9c0,0,0.1,0,0.1-0.1c0-0.1,0-0.2-0.1-0.2
		c0,0,0,0,0-0.1c0-0.1-0.1-0.2-0.1-0.4c0,0-0.5,0-0.5-0.1c-0.1-0.2-0.7-0.3-0.7-0.5v0c0,0,0.5,0,0.5,0c0-0.1,0.2-0.2,0.1-0.2
		c0,0,0.2-0.1,0.2-0.1c-0.1-0.1-0.1-0.2-0.2-0.4c0-0.1,0-0.1-0.1-0.2c0,0,0,0-0.1,0c-0.3-1-0.5-2-0.5-3.1c0-1.3,0.5-2.6,0.2-3.8
		c-0.1-0.4-0.2-0.7-0.4-1l19.3-14.4c1.6,2,3.1,4.2,4.5,6.4l-22.8,15l24.4-12.3c1.2,2.3,2.3,4.6,3.3,7.1l-25.1,10.8l26.2-7.9
		c0.8,2.5,1.5,5,2,7.5l-26.6,6.3l27.2-3.2c0.4,2.5,0.6,5.2,0.7,7.8L119.6,84c2.4,0.4,4.8,0.9,7.1,1.3l12.1,0.7c0,0.7,0,1.4-0.1,2
		c1,0.3,2.1,0.5,3.1,0.8c0.1-1.5,0.2-2.9,0.2-4.4c0-36.4-29.6-65.9-65.9-65.9c-36.4,0-65.9,29.6-65.9,65.9c0,1.4,0.1,2.9,0.2,4.3
		c1-0.3,2-0.5,3.1-0.8C13.3,87.4,13.3,86.7,13.2,86.1z M53.5,52.5c-0.5,0.1-1.6,0.7-1.6,0.7s-1.6-1.1-1.7-1.2
		c-0.1,0-0.5-0.1-0.9-0.2L36.9,35.4c2-1.6,4.2-3.1,6.4-4.5l14.2,21.6C56.8,52.5,53.9,52.4,53.5,52.5z M98.1,54.4
		c-1.7-0.2-8.5,0.5-12.2,1c-3.7,0.5-9.3,0.7-10.8,0.6c-1.5-0.1-3.3-0.9-4.4-0.9c-1.1,0-5.9-0.4-6.9-0.4c-1.1,0-3.2-0.5-3.5-0.7
		c-0.3-0.2,0.7-1,1-1.5c0.3-0.5,0.3-1,0.3-1s-2,0-2.7,0.4c-0.7,0.4-1.1,0.7-1.1,0.7L46,29.4c2.3-1.2,4.6-2.3,7.1-3.3l10.8,25.1
		L56,25c2.5-0.8,5-1.5,7.5-2l6.3,26.6l-3.2-27.2c2.5-0.4,5.2-0.6,7.8-0.7L76,49l1.6-27.3c2.6,0.1,5.2,0.3,7.8,0.7l-3.2,27.2
		l6.3-26.6c2.6,0.5,5.1,1.2,7.5,2l-7.9,26.2l10.8-25.1c2.4,1,4.8,2.1,7.1,3.3L93.7,53.8l15-22.8c2.2,1.4,4.4,2.9,6.4,4.5l-14.7,19.8
		C99.6,54.8,98.8,54.4,98.1,54.4z M103.6,57.9c0,0,0.1,0.1,0.1,0.1C103.6,58,103.6,58,103.6,57.9C103.6,58,103.6,58,103.6,57.9
		C103.6,58,103.6,58,103.6,57.9z M103.7,58.3L103.7,58.3L103.7,58.3C103.7,58.3,103.7,58.3,103.7,58.3z M103.7,58.5
		C103.7,58.5,103.7,58.5,103.7,58.5C103.7,58.5,103.7,58.5,103.7,58.5C103.7,58.5,103.7,58.5,103.7,58.5z M104.1,60.8
		c0-0.5-0.1-0.9-0.2-1.4c0,0,0,0,0,0c0.1,0.1,0.2,0.2,0.2,0.3c0,0,0.1,0.1,0.1,0.1c0,0,0,0,0,0c0.1,0.1,0.2,0.3,0.3,0.4L104.1,60.8z
		 M123.1,43l-17.5,16.5c-0.3-0.5-0.7-0.9-1.1-1.3c-0.5-0.5-0.9-0.9-1.5-1.1c-0.5-0.5-1.4-1.1-2.3-1.7l16.9-17.9
		C119.5,39.2,121.3,41,123.1,43z M34.5,37.4l14.1,14.9c0,0.2,0,0.3,0.1,0.4c0.2,0.3,1.7,2,1.7,2.1c0,0.2-1.6,2.6-1.9,3.3
		c-0.1,0.4-0.6,1.3-1.1,2.1L28.9,43C30.7,41,32.5,39.2,34.5,37.4z"/>
	<path fill="#4D311C" d="M11.5,98.2L11.5,98.2c0-0.4-0.1-0.8-0.2-1.2C11.4,97.5,11.4,97.8,11.5,98.2z"/>
	<path fill="#E2D66E" d="M109.6,97.6c0.2,0,0.5-0.1,0.5-0.4c0-0.2-0.1-0.5-0.4-0.5c-0.2,0-0.5,0.1-0.5,0.4
		C109.2,97.3,109.4,97.5,109.6,97.6z"/>
	<path fill="#E2D66E" d="M62.1,97.6c0.1,2.2,0.2,4.5,0.4,6.7c1.2-0.1,2.4-0.1,3.6-0.2c-0.2-2.2-0.3-4.5-0.5-6.7
		C64.4,97.5,63.3,97.6,62.1,97.6z"/>
	<circle fill="#E2D66E" cx="68.2" cy="94.2" r="0.4"/>
	<path fill="#E2D66E" d="M131.2,102.8c0.2,0.1,0.5-0.1,0.5-0.3c0.1-0.2-0.1-0.5-0.3-0.6c-0.2-0.1-0.5,0.1-0.5,0.3
		C130.8,102.4,130.9,102.7,131.2,102.8z"/>
	
		<ellipse transform="matrix(-2.804798e-02 -0.9996 0.9996 -2.804798e-02 -36.0284 178.4348)" fill="#E2D66E" cx="68.7" cy="106.7" rx="0.4" ry="0.4"/>
	<path fill="#E2D66E" d="M121.6,109.9c1.6,0.4,3.2,0.8,4.7,1.3c0.4-2.2,0.9-4.4,1.3-6.6c-1.5-0.4-3.1-0.9-4.6-1.3
		C122.5,105.5,122,107.7,121.6,109.9z"/>
	<path fill="#E2D66E" d="M128.4,115c0.2,0.1,0.5-0.1,0.5-0.3c0.1-0.2-0.1-0.5-0.3-0.6c-0.2-0.1-0.5,0.1-0.5,0.3
		C128,114.7,128.2,114.9,128.4,115z"/>
	<path fill="#E2D66E" d="M40,109.5c-0.2,0-0.4,0.3-0.3,0.5c0,0.2,0.3,0.4,0.5,0.4c0.2,0,0.4-0.3,0.3-0.5
		C40.4,109.6,40.2,109.5,40,109.5z"/>
	<path fill="#E2D66E" d="M41.2,100.2c0.3,2.2,0.7,4.4,1,6.7c1.6-0.3,3.2-0.5,4.8-0.8c-0.4-2.2-0.7-4.4-1.1-6.7
		C44.3,99.6,42.7,99.9,41.2,100.2z"/>
	<path fill="#E2D66E" d="M50.1,107.9c-0.2,0-0.4,0.3-0.4,0.5c0,0.2,0.2,0.4,0.5,0.4c0.2,0,0.4-0.3,0.4-0.5
		C50.5,108,50.3,107.8,50.1,107.9z"/>
	<path fill="#E2D66E" d="M48.4,95.4c-0.2,0-0.4,0.3-0.4,0.5c0,0.2,0.2,0.4,0.5,0.4c0.2,0,0.4-0.3,0.4-0.5
		C48.9,95.5,48.7,95.4,48.4,95.4z"/>
	<path fill="#E2D66E" d="M118.5,112.3c0.2,0.1,0.4-0.1,0.5-0.3c0-0.2-0.1-0.5-0.3-0.5c-0.2-0.1-0.5,0.1-0.5,0.3
		C118.1,112,118.2,112.2,118.5,112.3z"/>
	<path fill="#E2D66E" d="M51.7,98.6c0.2,2.2,0.4,4.5,0.7,6.7c1.5-0.2,3.1-0.4,4.7-0.5c-0.3-2.2-0.5-4.5-0.8-6.7
		C54.7,98.3,53.2,98.4,51.7,98.6z"/>
	<path fill="#E2D66E" d="M60.1,106.8c-0.2,0-0.4,0.2-0.4,0.5c0,0.2,0.2,0.4,0.4,0.4c0.2,0,0.4-0.2,0.4-0.5
		C60.5,106.9,60.3,106.8,60.1,106.8z"/>
	<path fill="#E2D66E" d="M59,94.2c-0.2,0-0.4,0.2-0.4,0.5c0,0.2,0.2,0.4,0.5,0.4c0.2,0,0.4-0.2,0.4-0.5C59.4,94.4,59.2,94.2,59,94.2
		z"/>
	<path fill="#E2D66E" d="M120.9,99c-0.2-0.1-0.5,0.1-0.5,0.3c0,0.2,0.1,0.5,0.3,0.5c0.2,0.1,0.5-0.1,0.5-0.3
		C121.3,99.3,121.1,99.1,120.9,99z"/>
	
		<ellipse transform="matrix(2.103956e-02 -0.9998 0.9998 2.103956e-02 -28.9356 183.8179)" fill="#E2D66E" cx="79.4" cy="106.7" rx="0.4" ry="0.4"/>
	<path fill="#E2D66E" d="M87,97.6c-1.6-0.1-3.2-0.2-4.7-0.2c-0.1,2.3-0.1,4.5-0.2,6.8c1.6,0.1,3.2,0.1,4.8,0.2
		C86.9,102.1,86.9,99.8,87,97.6z"/>
	<path fill="#E2D66E" d="M89.5,107.7c0.2,0,0.4-0.2,0.4-0.4c0-0.2-0.2-0.5-0.4-0.5c-0.2,0-0.4,0.2-0.4,0.4
		C89.1,107.4,89.3,107.6,89.5,107.7z"/>
	<circle fill="#E2D66E" cx="79.4" cy="94.1" r="0.4"/>
	<path fill="#E2D66E" d="M139.6,99.4c0.4-1.6,0.9-3.2,1.3-4.8c0-0.1,0.1-0.3,0.1-0.4c-20.2-5.5-40.9-8.3-61.7-8.6
		c1.1,1.2,2.1,2.3,3.1,3.5c0,0.9-0.1,1.9-0.1,2.8c1.5,0.1,3.1,0.1,4.6,0.2c0-0.9,0-1.9,0-2.8c1.1-1.1,2.3-2.1,3.4-3.2
		c1,1.2,2,2.4,3,3.7c-0.1,0.9-0.1,1.9-0.2,2.8c1.5,0.1,3,0.3,4.5,0.5c0.1-0.9,0.1-1.9,0.2-2.8c1.2-1,2.4-2,3.5-3
		c1,1.3,1.9,2.5,2.8,3.8c-0.1,0.9-0.2,1.9-0.3,2.8c1.1,0.2,2.1,0.3,3.2,0.5c0.1-0.9,0.2-1.9,0.3-2.8c1.2-0.9,2.4-1.9,3.7-2.8
		c0.9,1.3,1.8,2.6,2.7,4c-0.2,0.9-0.3,1.9-0.5,2.8c1.6,0.3,3.2,0.6,4.8,1c0.1-0.9,0.3-1.9,0.4-2.8c1.3-0.9,2.5-1.7,3.8-2.6
		c0.8,1.4,1.7,2.7,2.5,4.1c-0.2,0.9-0.4,1.8-0.6,2.8c1.5,0.4,3,0.8,4.6,1.2c0.2-0.9,0.4-1.8,0.5-2.8c1.3-0.8,2.6-1.6,3.9-2.4
		c0.8,1.4,1.5,2.8,2.3,4.2c-0.2,0.9-0.5,1.8-0.7,2.7c1.3,0.4,2.6,0.8,3.9,1.3c-0.5,1.7-1,3.5-1.5,5.2c-1.3-0.4-2.5-0.8-3.8-1.3
		c-0.6,2.2-1.1,4.3-1.7,6.5c1.2,0.4,2.5,0.8,3.7,1.2c-0.4,1.4-0.8,2.8-1.2,4.2c-1.2-0.4-2.4-0.8-3.6-1.2c-0.3,1-0.5,2-0.8,2.9
		c-1.6-0.5-3.3-1-4.9-1.5c0.2-1,0.4-2,0.6-3c-1.6-0.5-3.2-0.9-4.8-1.3c-0.2,1-0.4,2-0.6,3c-1.6-0.4-3.3-0.8-4.9-1.2
		c0.2-1,0.3-2,0.5-3c-1.7-0.4-3.3-0.7-5-1.1c-0.2,1-0.3,2-0.5,3c-1.7-0.3-3.3-0.6-5-0.9c0.1-1,0.2-2,0.3-3c-1.2-0.2-2.4-0.4-3.6-0.6
		c-0.1,1-0.2,2-0.4,3c-1.7-0.2-3.3-0.5-5-0.7c0.1-1,0.1-2,0.2-3c-1.6-0.2-3.1-0.4-4.7-0.5c-0.1,1-0.2,2-0.2,3
		c-1.7-0.2-3.3-0.3-5-0.4c0-1,0-2,0.1-3.1c-1.6-0.1-3.3-0.2-4.9-0.3c0,1-0.1,2-0.1,3.1c-1.7-0.1-3.3-0.1-5-0.1c0-1-0.1-2-0.1-3.1
		c-1.7,0-3.4,0-5.1,0c0,1,0,2,0,3.1c-1.7,0-3.3,0.1-5,0.2c-0.1-1-0.1-2-0.2-3c-1.2,0.1-2.5,0.1-3.7,0.2c0.1,1,0.1,2,0.2,3
		c-1.7,0.1-3.3,0.2-5,0.4c-0.1-1-0.2-2-0.3-3c-1.6,0.1-3.1,0.3-4.7,0.5c0.1,1,0.2,2,0.3,3c-1.7,0.2-3.3,0.4-5,0.7
		c-0.2-1-0.3-2-0.5-3c-1.6,0.2-3.2,0.5-4.9,0.8c0.1,1,0.3,2,0.4,3c-1.7,0.3-3.3,0.6-5,1c-0.2-1-0.4-2-0.6-3c-1.7,0.3-3.3,0.7-5,1.1
		c0.2,1,0.4,2,0.6,3c-1.6,0.4-3.3,0.8-4.9,1.2c-0.3-1-0.5-2-0.8-2.9c-0.8,0.2-1.6,0.4-2.4,0.7c0.2,1,0.5,2,0.7,3
		c-1.6,0.5-3.3,0.9-4.9,1.4c-0.3-1-0.6-1.9-0.9-2.9c-1.5,0.5-2.9,0.9-4.4,1.4c-0.4-1.4-0.8-2.8-1.2-4.2c1.4-0.5,2.9-1,4.3-1.4
		c-0.6-2.1-1.3-4.3-1.9-6.4c-1.4,0.4-2.8,0.9-4.2,1.4c-0.5-1.7-1-3.5-1.5-5.2c1.4-0.5,2.7-0.9,4.1-1.3c-0.3-0.9-0.5-1.8-0.8-2.7
		c0.7-1.4,1.5-2.8,2.3-4.2c1.3,0.8,2.6,1.6,3.9,2.4c0.2,0.9,0.4,1.8,0.6,2.7c0.7-0.2,1.3-0.4,2-0.6c-0.2-0.9-0.5-1.8-0.7-2.7
		c0.8-1.4,1.6-2.8,2.4-4.1c1.3,0.8,2.6,1.7,3.8,2.6c0.2,0.9,0.4,1.8,0.5,2.8c1.6-0.4,3.2-0.7,4.8-1.1c-0.2-0.9-0.4-1.8-0.6-2.8
		c0.9-1.3,1.7-2.7,2.6-4c1.2,0.9,2.5,1.8,3.7,2.8c0.1,0.9,0.3,1.9,0.4,2.8c1.5-0.3,3.1-0.5,4.6-0.8c-0.2-0.9-0.3-1.9-0.5-2.8
		c0.9-1.3,1.8-2.6,2.8-3.8c1.2,1,2.4,2,3.6,3c0.1,0.9,0.2,1.9,0.3,2.8c1.5-0.2,3-0.3,4.5-0.5c-0.1-0.9-0.2-1.9-0.3-2.8
		c1-1.2,2-2.5,3-3.7c1.2,1,2.3,2.1,3.4,3.2c0.1,0.9,0.1,1.9,0.2,2.8c1.1-0.1,2.2-0.1,3.3-0.2c-0.1-0.9-0.1-1.9-0.2-2.8
		c1-1.2,2-2.3,3.1-3.5c-19.3,0.6-38.6,3.4-57.5,8.5c0.3,1,0.5,1.9,0.8,2.9c0.1,0.4,0.2,0.8,0.3,1.2c0.1,0.4,0.2,0.8,0.3,1.2
		c-6.6,1.8-10.4,8-8.5,13.4c1.8,5.5,8.1,8.3,14,6.7c0.4,1.4,0.8,2.8,1.1,4.2c37.5-10.1,77.1-10.1,114.6,0c0.4-1.4,0.8-2.8,1.1-4.2
		c5.9,1.6,12.1-1.3,14-6.7C150,107.4,146.2,101.2,139.6,99.4z M12.8,112.4c-1.4,0.4-2.7-0.3-3.1-1.5c-0.4-1.2,0.5-2.5,1.9-2.9
		c1.4-0.4,2.8,0.3,3.1,1.5C15,110.7,14.1,112,12.8,112.4z M141.9,110.9c-0.4,1.2-1.7,1.9-3.1,1.5c-1.4-0.4-2.2-1.7-1.9-2.9
		c0.3-1.2,1.7-1.9,3.1-1.5C141.4,108.3,142.3,109.7,141.9,110.9z"/>
	<path fill="#E2D66E" d="M18.9,125c-0.1-0.3-0.2-0.7-0.3-1c0.5,1.9,1,3.9,1.6,5.8c36.4-9.8,74.8-9.8,111.3,0c0.5-1.9,1-3.9,1.6-5.8
		c-0.1,0.3-0.2,0.7-0.3,1C95.4,115,56.1,115,18.9,125z"/>
	<path fill="#E2D66E" d="M108,110.1c0.2,0,0.4-0.1,0.5-0.4c0-0.2-0.1-0.5-0.3-0.5c-0.2,0-0.4,0.1-0.5,0.4
		C107.6,109.8,107.7,110,108,110.1z"/>
	<path fill="#E2D66E" d="M100.6,96.2c0.2,0,0.5-0.1,0.5-0.4c0-0.2-0.1-0.5-0.4-0.5c-0.2,0-0.5,0.1-0.5,0.4
		C100.2,95.9,100.4,96.2,100.6,96.2z"/>
	<path fill="#E2D66E" d="M102.4,106c1.2,0.2,2.3,0.4,3.5,0.5c0.2-2.2,0.5-4.5,0.7-6.7c-1.1-0.2-2.2-0.4-3.3-0.5
		C102.9,101.5,102.7,103.8,102.4,106z"/>
	<path fill="#E2D66E" d="M111.3,107.5c1.7,0.3,3.3,0.7,5,1c0.3-2.2,0.7-4.4,1-6.7c-1.6-0.4-3.2-0.7-4.9-1
		C112,103.1,111.6,105.3,111.3,107.5z"/>
	<path fill="#E2D66E" d="M97.4,98.5c-1.5-0.2-3-0.3-4.5-0.5c-0.2,2.2-0.3,4.5-0.5,6.7c1.6,0.1,3.1,0.3,4.7,0.5
		C97.1,103,97.2,100.8,97.4,98.5z"/>
	<path fill="#E2D66E" d="M99.5,108.7c0.2,0,0.4-0.1,0.5-0.4c0-0.2-0.1-0.5-0.4-0.5c-0.2,0-0.4,0.1-0.5,0.4
		C99.1,108.5,99.3,108.7,99.5,108.7z"/>
	<path fill="#E2D66E" d="M90.1,95.1c0.2,0,0.5-0.2,0.5-0.4c0-0.2-0.2-0.5-0.4-0.5c-0.2,0-0.5,0.2-0.5,0.4
		C89.7,94.8,89.9,95.1,90.1,95.1z"/>
	<path fill="#E2D66E" d="M71.4,97.2c0,2.3,0.1,4.5,0.1,6.8c1.7,0,3.3,0,5,0c-0.1-2.3-0.1-4.5-0.2-6.8C74.7,97.2,73.1,97.2,71.4,97.2
		z"/>
	<path fill="#E2D66E" d="M18.9,101.7c-0.2,0.1-0.4,0.3-0.3,0.6c0.1,0.2,0.3,0.4,0.5,0.3c0.2-0.1,0.4-0.3,0.3-0.6
		C19.4,101.8,19.2,101.7,18.9,101.7z"/>
	<path fill="#E2D66E" d="M37.8,97.1c-0.2,0-0.4,0.3-0.4,0.5c0,0.2,0.3,0.4,0.5,0.4c0.2,0,0.4-0.3,0.4-0.5
		C38.2,97.3,38,97.1,37.8,97.1z"/>
	<path fill="#E2D66E" d="M71.3,88.9c0,0.9,0,1.9,0,2.8c1.6,0,3.2,0,4.8,0c0-0.9-0.1-1.9-0.1-2.8c1.1-1.1,2.1-2.2,3.2-3.3
		c-3.8-0.1-7.5,0-11.3,0.1C69.2,86.8,70.3,87.8,71.3,88.9z"/>
	<path fill="#E2D66E" d="M22.6,104.4c0.5,2.2,1,4.4,1.5,6.5c0.8-0.2,1.6-0.4,2.3-0.6c-0.6-2.2-1.1-4.3-1.7-6.5
		C24,104,23.3,104.2,22.6,104.4z"/>
	<path fill="#E2D66E" d="M22.1,113.8c-0.2,0.1-0.4,0.3-0.3,0.6c0.1,0.2,0.3,0.4,0.5,0.3c0.2-0.1,0.4-0.3,0.3-0.5
		C22.6,113.9,22.4,113.8,22.1,113.8z"/>
	<path fill="#E2D66E" d="M26.6,99.6c-0.2,0.1-0.4,0.3-0.3,0.5c0.1,0.2,0.3,0.4,0.5,0.3c0.2-0.1,0.4-0.3,0.3-0.5
		C27.1,99.7,26.9,99.6,26.6,99.6z"/>
	<path fill="#E2D66E" d="M30.5,102.4c0.4,2.2,0.9,4.4,1.3,6.6c1.6-0.4,3.3-0.8,4.9-1.1c-0.5-2.2-0.9-4.4-1.4-6.6
		C33.8,101.6,32.1,102,30.5,102.4z"/>
	<path fill="#E2D66E" d="M29.4,111.8c-0.2,0.1-0.4,0.3-0.3,0.5c0.1,0.2,0.3,0.4,0.5,0.3c0.2-0.1,0.4-0.3,0.3-0.5
		C29.9,111.9,29.7,111.8,29.4,111.8z"/>
	<path fill="#E2D66E" d="M141.4,92.9c0.3-1.3,0.7-2.5,1-3.8c-0.2-0.1-0.4-0.1-0.7-0.2c-1-0.3-2.1-0.5-3.1-0.8c-4-1-8-1.9-12-2.7
		c-2.4-0.5-4.7-0.9-7.1-1.3c-5.2-0.9-10.4-1.6-15.6-2.2c-0.9-0.1-1.8-0.2-2.7-0.3c-1-0.1-2-0.2-2.9-0.3c-1.1-0.1-2.1-0.2-3.2-0.3
		c-6.9-0.5-13.9-0.8-20.8-0.7c-1,0-2.1,0-3.1,0c-0.5,0-1,0-1.4,0c-1.3,0-2.6,0.1-3.8,0.1c-11.4,0.4-22.7,1.6-33.9,3.6
		c-2.5,0.4-4.9,0.9-7.4,1.4c-3.8,0.8-7.6,1.6-11.4,2.6c-1,0.3-2.1,0.5-3.1,0.8c-0.4,0.1-0.7,0.2-1.1,0.3c0.3,1.3,0.7,2.5,1,3.8
		C53.1,81.3,98.4,81.3,141.4,92.9z"/>
	<path fill="#4D311C" d="M68.1,85.5c3.8-0.1,7.5,0,11.3,0c0,0,0,0,0,0c0,0,0,0,0,0c20.7,0.3,41.5,3.2,61.7,8.7
		c0,0.1-0.1,0.3-0.1,0.4c0.1,0,0.1,0,0.2,0c0.1-0.6,0.2-1.1,0.2-1.6c0,0,0,0,0,0c0,0,0.3,0,0.3,0C98.7,80,53,81.3,12,92.9
		c0,0,0-0.1,0-0.1c0,0.4-1.1,0.2-1,0.2c0,0-0.3,0-0.3,0C41.2,86,68.1,85.5,68.1,85.5z"/>
	<path fill="#4D311C" d="M18.5,123.7C18.5,123.7,18.5,123.7,18.5,123.7c0,0.1,0.1,0.2,0.1,0.3c0.1,0.3,0.2,0.7,0.3,1
		c37.3-10.1,76.6-10.1,113.8,0c0.1-0.3,0.2-0.7,0.3-1c0-0.1,0.1-0.2,0.1-0.3c0,0,0,0,0,0C95.6,113.6,56,113.6,18.5,123.7z"/>
	<path fill="#4D311C" d="M14.6,109.5c-0.3-1.2-1.7-1.9-3.1-1.5c-1.4,0.4-2.2,1.7-1.9,2.9c0.4,1.2,1.8,1.9,3.1,1.5
		C14.1,112,15,110.7,14.6,109.5z"/>
	<path fill="#4D311C" d="M140,107.9c-1.4-0.4-2.8,0.3-3.1,1.5c-0.3,1.2,0.5,2.5,1.9,2.9c1.4,0.4,2.7-0.3,3.1-1.5
		C142.3,109.7,141.4,108.3,140,107.9z"/>
	<path fill="#3A2512" d="M79.3,85.6c-1.1,1.1-2.2,2.2-3.2,3.3c0,0.9,0.1,1.9,0.1,2.8c-1.6,0-3.2,0-4.8,0c0-0.9,0-1.9,0-2.8
		c-1.1-1.1-2.2-2.2-3.2-3.3c0,0,0,0,0,0c0,0,0,0,0,0c-1,1.2-2.1,2.3-3.1,3.5c0.1,0.9,0.1,1.9,0.2,2.8c-1.1,0.1-2.2,0.1-3.3,0.2
		c-0.1-0.9-0.1-1.9-0.2-2.8c-1.1-1.1-2.3-2.1-3.4-3.2c-1,1.2-2,2.5-3,3.7c0.1,0.9,0.2,1.9,0.3,2.8c-1.5,0.1-3,0.3-4.5,0.5
		c-0.1-0.9-0.2-1.9-0.3-2.8c-1.2-1-2.4-2-3.6-3c-0.9,1.3-1.9,2.6-2.8,3.8c0.2,0.9,0.3,1.9,0.5,2.8c-1.5,0.2-3.1,0.5-4.6,0.8
		c-0.1-0.9-0.3-1.9-0.4-2.8c-1.2-0.9-2.5-1.9-3.7-2.8c-0.9,1.3-1.8,2.7-2.6,4c0.2,0.9,0.4,1.8,0.6,2.8c-1.6,0.3-3.2,0.7-4.8,1.1
		c-0.2-0.9-0.4-1.8-0.5-2.8c-1.3-0.9-2.5-1.7-3.8-2.6c-0.8,1.4-1.6,2.8-2.4,4.1c0.2,0.9,0.5,1.8,0.7,2.7c-0.7,0.2-1.4,0.4-2,0.6
		c-0.2-0.9-0.4-1.8-0.6-2.7c-1.3-0.8-2.6-1.6-3.9-2.4c-0.8,1.4-1.5,2.8-2.3,4.2c0.3,0.9,0.5,1.8,0.8,2.7c-1.4,0.4-2.7,0.9-4.1,1.3
		c0.5,1.7,1,3.5,1.5,5.2c1.4-0.5,2.8-0.9,4.2-1.4c0.6,2.1,1.3,4.3,1.9,6.4c-1.4,0.5-2.9,0.9-4.3,1.4c0.4,1.4,0.8,2.8,1.2,4.2
		c1.5-0.5,2.9-1,4.4-1.4c0.3,1,0.6,1.9,0.9,2.9c1.6-0.5,3.3-1,4.9-1.4c-0.2-1-0.5-2-0.7-3c0.8-0.2,1.6-0.5,2.4-0.7
		c0.3,1,0.5,2,0.8,2.9c1.6-0.4,3.3-0.8,4.9-1.2c-0.2-1-0.4-2-0.6-3c1.7-0.4,3.3-0.8,5-1.1c0.2,1,0.4,2,0.6,3c1.7-0.3,3.3-0.7,5-1
		c-0.1-1-0.3-2-0.4-3c1.6-0.3,3.2-0.6,4.9-0.8c0.2,1,0.3,2,0.5,3c1.7-0.2,3.3-0.5,5-0.7c-0.1-1-0.2-2-0.3-3c1.6-0.2,3.1-0.4,4.7-0.5
		c0.1,1,0.2,2,0.3,3c1.7-0.2,3.3-0.3,5-0.4c-0.1-1-0.1-2-0.2-3c1.2-0.1,2.5-0.2,3.7-0.2c0.1,1,0.1,2,0.2,3c1.7-0.1,3.3-0.1,5-0.2
		c0-1,0-2,0-3.1c1.7,0,3.4,0,5.1,0c0,1,0.1,2,0.1,3.1c1.7,0,3.3,0.1,5,0.1c0-1,0.1-2,0.1-3.1c1.6,0.1,3.3,0.1,4.9,0.3
		c0,1,0,2-0.1,3.1c1.7,0.1,3.3,0.2,5,0.4c0.1-1,0.2-2,0.2-3c1.6,0.1,3.1,0.3,4.7,0.5c-0.1,1-0.1,2-0.2,3c1.7,0.2,3.3,0.4,5,0.7
		c0.1-1,0.2-2,0.4-3c1.2,0.2,2.4,0.4,3.6,0.6c-0.1,1-0.2,2-0.3,3c1.7,0.3,3.3,0.6,5,0.9c0.2-1,0.3-2,0.5-3c1.7,0.3,3.3,0.7,5,1.1
		c-0.2,1-0.3,2-0.5,3c1.6,0.4,3.3,0.8,4.9,1.2c0.2-1,0.4-2,0.6-3c1.6,0.4,3.2,0.8,4.8,1.3c-0.2,1-0.4,2-0.6,3c1.6,0.5,3.3,1,4.9,1.5
		c0.3-1,0.5-2,0.8-2.9c1.2,0.4,2.4,0.8,3.6,1.2c0.4-1.4,0.8-2.8,1.2-4.2c-1.2-0.4-2.5-0.8-3.7-1.2c0.6-2.2,1.1-4.3,1.7-6.5
		c1.3,0.4,2.6,0.8,3.8,1.3c0.5-1.7,1-3.5,1.5-5.2c-1.3-0.4-2.6-0.9-3.9-1.3c0.2-0.9,0.5-1.8,0.7-2.7c-0.7-1.4-1.5-2.8-2.3-4.2
		c-1.3,0.8-2.6,1.6-3.9,2.4c-0.2,0.9-0.4,1.8-0.5,2.8c-1.5-0.4-3-0.8-4.6-1.2c0.2-0.9,0.4-1.8,0.6-2.8c-0.8-1.4-1.6-2.7-2.5-4.1
		c-1.3,0.9-2.5,1.7-3.8,2.6c-0.1,0.9-0.3,1.9-0.4,2.8c-1.6-0.4-3.2-0.7-4.8-1c0.2-0.9,0.3-1.9,0.5-2.8c-0.9-1.3-1.8-2.6-2.7-4
		c-1.2,0.9-2.5,1.9-3.7,2.8c-0.1,0.9-0.2,1.9-0.3,2.8c-1.1-0.2-2.1-0.3-3.2-0.5c0.1-0.9,0.2-1.9,0.3-2.8c-0.9-1.3-1.9-2.6-2.8-3.8
		c-1.2,1-2.4,2-3.5,3c-0.1,0.9-0.1,1.9-0.2,2.8c-1.5-0.2-3-0.3-4.5-0.5c0.1-0.9,0.1-1.9,0.2-2.8c-1-1.2-2-2.5-3-3.7
		c-1.1,1.1-2.3,2.1-3.4,3.2c0,0.9,0,1.9,0,2.8C85.5,92,84,92,82.4,91.9c0-0.9,0.1-1.9,0.1-2.8C81.5,87.9,80.4,86.7,79.3,85.6
		C79.4,85.6,79.4,85.6,79.3,85.6C79.4,85.6,79.3,85.6,79.3,85.6z M19.1,102.6c-0.2,0.1-0.5-0.1-0.5-0.3c-0.1-0.2,0.1-0.5,0.3-0.6
		c0.2-0.1,0.5,0.1,0.5,0.3C19.5,102.3,19.4,102.5,19.1,102.6z M22.3,114.7c-0.2,0.1-0.5-0.1-0.5-0.3c-0.1-0.2,0.1-0.5,0.3-0.6
		c0.2-0.1,0.5,0.1,0.5,0.3C22.7,114.4,22.6,114.6,22.3,114.7z M24.1,111c-0.5-2.2-1-4.4-1.5-6.5c0.7-0.2,1.4-0.4,2.2-0.6
		c0.6,2.2,1.1,4.3,1.7,6.5C25.7,110.5,24.9,110.8,24.1,111z M26.8,100.5c-0.2,0.1-0.5-0.1-0.5-0.3c-0.1-0.2,0.1-0.5,0.3-0.5
		c0.2-0.1,0.5,0.1,0.5,0.3C27.2,100.2,27.1,100.4,26.8,100.5z M29.6,112.7c-0.2,0.1-0.4-0.1-0.5-0.3c-0.1-0.2,0.1-0.5,0.3-0.5
		c0.2-0.1,0.5,0.1,0.5,0.3C30,112.4,29.8,112.7,29.6,112.7z M31.8,109c-0.4-2.2-0.9-4.4-1.3-6.6c1.6-0.4,3.2-0.7,4.9-1.1
		c0.5,2.2,0.9,4.4,1.4,6.6C35.1,108.2,33.5,108.6,31.8,109z M37.9,98c-0.2,0-0.5-0.1-0.5-0.4c0-0.2,0.1-0.5,0.4-0.5
		c0.2,0,0.5,0.1,0.5,0.4C38.3,97.7,38.1,98,37.9,98z M40.1,110.4c-0.2,0-0.4-0.1-0.5-0.4c0-0.2,0.1-0.5,0.3-0.5
		c0.2,0,0.4,0.1,0.5,0.4C40.5,110.1,40.3,110.3,40.1,110.4z M42.2,106.9c-0.3-2.2-0.7-4.4-1-6.7c1.6-0.3,3.1-0.5,4.7-0.8
		c0.4,2.2,0.7,4.4,1.1,6.7C45.4,106.3,43.7,106.6,42.2,106.9z M48.5,96.3c-0.2,0-0.5-0.1-0.5-0.4c0-0.2,0.1-0.5,0.4-0.5
		c0.2,0,0.5,0.1,0.5,0.4C49,96,48.8,96.2,48.5,96.3z M50.2,108.7c-0.2,0-0.4-0.1-0.5-0.4c0-0.2,0.1-0.5,0.4-0.5
		c0.2,0,0.4,0.1,0.5,0.4C50.6,108.5,50.4,108.7,50.2,108.7z M52.4,105.3c-0.2-2.2-0.4-4.5-0.7-6.7c1.5-0.2,3-0.3,4.5-0.5
		c0.3,2.2,0.5,4.5,0.8,6.7C55.5,105,53.9,105.1,52.4,105.3z M59,95.1c-0.2,0-0.5-0.2-0.5-0.4c0-0.2,0.2-0.5,0.4-0.5
		c0.2,0,0.5,0.2,0.5,0.4C59.5,94.9,59.3,95.1,59,95.1z M60.1,107.7c-0.2,0-0.4-0.2-0.4-0.4c0-0.2,0.2-0.5,0.4-0.5
		c0.2,0,0.4,0.2,0.4,0.4C60.5,107.4,60.3,107.7,60.1,107.7z M62.5,104.4c-0.1-2.2-0.2-4.5-0.4-6.7c1.2-0.1,2.3-0.1,3.5-0.2
		c0.2,2.2,0.3,4.5,0.5,6.7C64.9,104.2,63.7,104.3,62.5,104.4z M67.7,94.2c0-0.2,0.2-0.5,0.4-0.5c0.2,0,0.4,0.2,0.5,0.4
		c0,0.2-0.2,0.5-0.4,0.5C67.9,94.6,67.7,94.4,67.7,94.2z M68.7,107.2c-0.2,0-0.4-0.2-0.4-0.4c0-0.2,0.2-0.5,0.4-0.5
		c0.2,0,0.4,0.2,0.4,0.4C69.2,107,69,107.2,68.7,107.2z M71.5,104c0-2.3-0.1-4.5-0.1-6.8c1.6,0,3.3,0,4.9,0c0.1,2.3,0.1,4.5,0.2,6.8
		C74.9,104,73.2,104,71.5,104z M130.9,102.2c0.1-0.2,0.3-0.4,0.5-0.3c0.2,0.1,0.4,0.3,0.3,0.6c-0.1,0.2-0.3,0.4-0.5,0.3
		C130.9,102.7,130.8,102.4,130.9,102.2z M120.7,99.9c-0.2-0.1-0.4-0.3-0.3-0.5c0-0.2,0.3-0.4,0.5-0.3c0.2,0.1,0.4,0.3,0.3,0.5
		C121.2,99.8,120.9,100,120.7,99.9z M128.1,114.4c0.1-0.2,0.3-0.4,0.5-0.3c0.2,0.1,0.4,0.3,0.3,0.6c-0.1,0.2-0.3,0.4-0.5,0.3
		C128.2,114.9,128,114.7,128.1,114.4z M127.6,104.5c-0.4,2.2-0.9,4.4-1.3,6.6c-1.6-0.4-3.2-0.9-4.7-1.3c0.5-2.2,0.9-4.4,1.4-6.6
		C124.5,103.7,126.1,104.1,127.6,104.5z M118.1,111.7c0-0.2,0.3-0.4,0.5-0.3c0.2,0.1,0.4,0.3,0.3,0.5c0,0.2-0.3,0.4-0.5,0.3
		C118.2,112.2,118.1,112,118.1,111.7z M117.2,101.9c-0.3,2.2-0.7,4.4-1,6.7c-1.6-0.4-3.3-0.7-5-1c0.4-2.2,0.7-4.4,1.1-6.7
		C114,101.2,115.6,101.5,117.2,101.9z M109.7,96.7c0.2,0,0.4,0.3,0.4,0.5c0,0.2-0.3,0.4-0.5,0.4c-0.2,0-0.4-0.3-0.4-0.5
		C109.3,96.8,109.5,96.7,109.7,96.7z M108.1,109.2c0.2,0,0.4,0.3,0.3,0.5c0,0.2-0.3,0.4-0.5,0.4c-0.2,0-0.4-0.3-0.3-0.5
		C107.6,109.3,107.9,109.1,108.1,109.2z M106.5,99.8c-0.2,2.2-0.5,4.5-0.7,6.7c-1.2-0.2-2.3-0.4-3.5-0.5c0.3-2.2,0.5-4.5,0.8-6.7
		C104.3,99.5,105.4,99.6,106.5,99.8z M100.7,95.3c0.2,0,0.4,0.3,0.4,0.5c0,0.2-0.2,0.4-0.5,0.4c-0.2,0-0.4-0.3-0.4-0.5
		C100.3,95.4,100.5,95.3,100.7,95.3z M99.6,107.8c0.2,0,0.4,0.3,0.4,0.5c0,0.2-0.2,0.4-0.5,0.4c-0.2,0-0.4-0.3-0.4-0.5
		C99.1,108,99.4,107.8,99.6,107.8z M92.8,98c1.5,0.1,3,0.3,4.5,0.5c-0.1,2.2-0.3,4.5-0.4,6.7c-1.5-0.2-3.1-0.3-4.7-0.5
		C92.5,102.5,92.7,100.3,92.8,98z M90.2,94.2c0.2,0,0.4,0.2,0.4,0.5c0,0.2-0.2,0.4-0.5,0.4c-0.2,0-0.4-0.2-0.4-0.5
		C89.7,94.4,89.9,94.2,90.2,94.2z M89.6,106.8c0.2,0,0.4,0.2,0.4,0.5c0,0.2-0.2,0.4-0.4,0.4c-0.2,0-0.4-0.2-0.4-0.5
		C89.2,106.9,89.4,106.8,89.6,106.8z M82.2,97.3c1.6,0.1,3.2,0.1,4.7,0.2c0,2.3-0.1,4.5-0.1,6.8c-1.6-0.1-3.2-0.2-4.8-0.2
		C82.1,101.8,82.2,99.6,82.2,97.3z M79.4,107.1c-0.2,0-0.4-0.2-0.4-0.5c0-0.2,0.2-0.4,0.4-0.4c0.2,0,0.4,0.2,0.4,0.5
		C79.8,106.9,79.6,107.1,79.4,107.1z M79.9,94.1c0,0.2-0.2,0.4-0.5,0.4c-0.2,0-0.4-0.2-0.4-0.5c0-0.2,0.2-0.4,0.5-0.4
		C79.7,93.6,79.9,93.9,79.9,94.1z"/>
</g>
</svg>
