<?xml version="1.0" encoding="utf-8"?>
<!-- Generator: Adobe Illustrator 18.1.0, SVG Export Plug-In . SVG Version: 6.00 Build 0)  -->
<svg version="1.0" id="Layer_1" xmlns="http://www.w3.org/2000/svg" xmlns:xlink="http://www.w3.org/1999/xlink" x="0px" y="0px"
	 viewBox="0 0 150 150" enable-background="new 0 0 150 150" xml:space="preserve">
<path fill="#CA92C1" d="M160.8,246.4c-0.2-0.7-0.9-1.2-1.7-1c-0.7,0.2-1.1,0.8-1,1.5c0-0.6,0.4-1.1,1-1.2c0.7-0.2,1.3,0.2,1.5,0.9
	c0.1,0.6-0.1,1.1-0.6,1.4C160.6,247.7,161,247.1,160.8,246.4"/>
<path fill="#C64D9B" d="M159.8,248.5c-0.9,0.2-1.8-0.3-2-1.1c-0.2-0.8,0.2-1.6,0.9-2c-0.6,0.3-0.9,1-0.7,1.7c0.2,0.8,1.1,1.3,1.8,1
	c0.7-0.2,1.1-0.8,1.1-1.5C161.1,247.5,160.6,248.3,159.8,248.5"/>
<g>
	<path fill="#0697CC" d="M159.8,247.2L159.8,247.2C159.8,247.2,159.8,247.2,159.8,247.2z"/>
	<path fill="#0697CC" d="M159.7,246.9C159.7,246.9,159.7,246.9,159.7,246.9C159.7,246.9,159.7,246.9,159.7,246.9z"/>
	<path fill="#C64D9B" d="M159.8,247.2c0.3-0.1,0.4-0.4,0.4-0.4s-0.2,0-0.5,0c0,0,0,0,0,0c0,0,0,0,0,0c0-0.1,0.1-0.2,0.1-0.2
		s-0.1,0-0.1,0c0,0,0,0,0,0c0,0,0,0,0,0c0.1-0.3,0-0.6,0-0.6s-0.1,0-0.1,0.1c0-0.2-0.1-0.3-0.1-0.3s-0.4,0.5-0.4,1
		c0,0,0-0.1-0.1-0.1c0-0.1-0.1-0.1-0.3,0c-0.1,0-0.2,0.1-0.3,0.1c0.2,0,0.6,0.2,0.7,0.4c0,0,0,0,0,0c0,0.2-0.1,0.4-0.3,0.4
		c0.2,0,0.4-0.2,0.4-0.4c0,0,0,0,0-0.1c0,0,0-0.1,0-0.1C159.4,247.3,159.6,247.3,159.8,247.2C159.8,247.3,159.8,247.2,159.8,247.2
		L159.8,247.2"/>
</g>
<g>
	<path fill-rule="evenodd" clip-rule="evenodd" fill="#153037" d="M136.1,41.2L78.3,8.6L21.2,42.4l0.3,29.3
		c1.4-4.5,4.7-8.1,9.9-12.5l-0.1-11.1l47.1-27.9l47.7,26.9l0.6,54.8l-47.2,27.9L49.9,113c0.5,0,0.9,0,1.4-0.1
		c4.8,4.7,11.4,6.6,18.8,6.7c2.9,0,6-0.3,8.5,1.3c0.7,0.4,0.8,0.3,0.4-0.3c-2.2-2.7-6.3-3.8-9.9-4.8c-2-0.5-6.2-1.5-8.4-3.2
		c-0.6-0.5-0.9-0.9-1.1-1.3c0.8-0.3,1.6-0.6,2.3-0.9c2.5,0.9,5.8,2.9,7.6,3.8c4.3,1.9,10.9,5.7,15.4,4.4c1.6-0.4,3.2-0.6,4.1-0.3
		c0.8,0.2,0.5-0.1,0.1-0.3c-0.7-0.4-1.5-0.7-2.4-0.9c-4.7-1.1-9-2.9-13.1-5.4c-1.9-1.1-2.9-3.3,0-2.5c4.7,1.3,7.8,5.2,13,6
		c2.4,0.4,4.6-0.1,6.9-0.1c0.8,0,1.3,0.1,2.1,0.4c0.6,0.3,0.8,0,0.4-0.4c-0.8-0.9-2.1-1.2-3.2-1.5c-4.3-0.9-8.3-2.9-12.2-6.4
		c-5.5-5-6.5-6.1-9.6-7.1c-1.9-0.6-5.4-0.3-8.8,0.1c0,0-0.1,0-0.1,0c-0.1-0.3-0.2-0.6-0.3-0.8c0-0.1,0.5-1.4,0.8-1.8
		c5.2-6.1,15.2-4.6,20.2,1.1c2,2.3,1.3,2.4,1,4.6c-0.1,0.6-0.1,0.8,0.5,0.4c5.2-3.3,4.9-7.7,2.7-12.5c-0.4-0.8-0.2-1,0.1-2.7
		c1.5-8.6-6.4-13.8-12.3-15.9c-2.4-0.9-5.1-1.4-7.9-1.6C59,70.2,51.1,72,43.7,75c-0.3,0.1-0.5,0.3-0.8,0.4c0.1-0.1,0.3-0.3,0.7-0.6
		c0.9-0.7,2.4-1.6,3.3-2c3.2-1.3,6.3-2.8,7.7-4.3c2.2-2.4,2.5-3.9,4.8-11c1.6-5,4.1-8.7,7.3-11.7c0.8-0.8,1.8-1.7,2-2.9
		c0.1-0.5-0.1-0.7-0.6-0.1c-0.5,0.6-0.9,1-1.6,1.4c-2,1.2-4.2,1.9-6,3.4c-4.1,3.3-4.9,8.3-8.3,11.7c-2.1,2.1-2.3-0.2-1.3-2.2
		c2.4-4.3,5.2-8,8.7-11.2c0.7-0.6,1.3-1.3,1.6-2c0.2-0.4,0.3-0.8-0.2-0.2c-0.6,0.7-2.1,1.4-3.7,1.8c-4.6,1.1-8.4,7.6-11.2,11.5
		c-1.3,1.7-3.2,5.3-5,7.3c-1.6,1.9-2.9,0.9-1.9-1.6c1-2.5,4.2-5.5,5.6-7c2.7-2.6,5.7-5.7,6.2-9.1c0.1-0.7-0.1-0.8-0.5-0.1
		c-1.4,2.7-4.2,4-6.7,5.4c-8.1,4.8-13.6,11.5-13.8,20.8c0,1.4,0.4,3.7-0.4,5c-1.2,1.8-2.6,0.4-2.7-1.1c-0.4-5.8,3.4-10.6,5.3-15.9
		c0.3-0.9,0.6-1.8,0.6-2.8c0-0.3-0.1-0.4-0.2,0.1c-0.4,1.3-1.3,2.4-2.1,3.5c-4.5,6.3-7.9,10.6-9.1,15.2c0,0,0,0-0.1,0l0,0.4
		c-0.5,2.2-0.5,4.4,0.1,6.9l0.3,24.5l57.8,32.6l57.1-33.8L136.1,41.2z"/>
</g>
</svg>
