<?xml version="1.0" encoding="iso-8859-1"?>
<!-- Generator: Adobe Illustrator 13.0.0, SVG Export Plug-In . SVG Version: 6.00 Build 14948)  -->
<!DOCTYPE svg PUBLIC "-//W3C//DTD SVG 1.1//EN" "http://www.w3.org/Graphics/SVG/1.1/DTD/svg11.dtd">
<svg version="1.1" id="Layer_1" xmlns="http://www.w3.org/2000/svg" xmlns:xlink="http://www.w3.org/1999/xlink" x="0px" y="0px"
	 width="100px" height="100px" viewBox="0 0 100 100" enable-background="new 0 0 100 100" xml:space="preserve">
<g>
	<g>
		<g>
			<radialGradient id="SVGID_1_" cx="71.4043" cy="34.0283" r="49.1002" gradientUnits="userSpaceOnUse">
				<stop  offset="0" style="stop-color:#5BA59B"/>
				<stop  offset="1" style="stop-color:#1C433F"/>
			</radialGradient>
			<path fill="url(#SVGID_1_)" d="M60.468,46.243c2.825-3.005,5.921-5.827,7.941-9.461c3.457,0.203,6.93,0.284,10.385,0.474
				c1.492-0.033,3.054,1.286,2.846,2.856c-0.017,4.947-0.353,9.894-0.538,14.848c0.114,1.604-1.205,3.289-2.9,3.174
				c-4.92-0.135-9.843-0.406-14.763-0.596c-1.557,0.129-3.15-1.096-3.215-2.693C60.189,51.968,60.562,49.105,60.468,46.243z
				 M78.604,42.162c-3.873,2.166-6.922,5.637-9.741,8.79c-1.58-1.083-3.167-2.409-5.129-2.652c2.063,2.802,4.896,5.116,6.344,8.364
				c2.633-5.63,5.973-11.166,10.779-15.246C80.086,40.72,79.304,41.925,78.604,42.162z"/>
		</g>
	</g>
	<g>
		<radialGradient id="SVGID_2_" cx="45.145" cy="62.2402" r="51.0698" gradientUnits="userSpaceOnUse">
			<stop  offset="0" style="stop-color:#919395"/>
			<stop  offset="0.6727" style="stop-color:#424243"/>
			<stop  offset="1" style="stop-color:#272525"/>
		</radialGradient>
		<path fill="url(#SVGID_2_)" d="M6.646,25.751c5.962,0.947,11.789,3.302,17.734,4.69c1.929,0.358,3.57,1.834,4.219,3.674
			c2.169,6.653,4.236,13.359,6.389,20.025c0.91,2.835,1.79,5.677,2.717,8.513c0.714,2.518,3.249,4.318,5.871,4.182
			c10.12,0.007,20.252,0.021,30.382,0c2.396,0,4.659-1.678,5.399-3.944c2.203-6.673,4.399-13.352,6.545-20.045
			c0.964-2.612-0.598-5.095-2.313-6.936c3.901-0.075,7.714,3.58,6.497,7.62c-2.57,7.701-5.269,15.368-7.889,23.069
			c-0.687,2.484-3.064,4.399-5.672,4.338c-11.29,0.048-22.585-0.054-33.879-0.007c-3.002-0.015-5.096,2.579-5.912,5.225l0.521,0.386
			c15.149-0.02,30.304-0.04,45.458,0.006c-0.82,2.269-2.983,4.015-5.434,4.027c-11.264,0.027-22.534,0-33.802-0.007
			c-2.889-0.034-5.783,0.015-8.672-0.027c-1.354-0.007-3.306-0.574-3.069-2.294c0.433-3.885,3.282-7.296,3.019-11.273
			c-2.91-9.719-6.077-19.362-9.089-29.053c-0.504-2.017-2.047-3.769-4.098-4.283c-3.542-0.934-7.143-1.618-10.675-2.585
			C8.477,30.353,7.286,27.971,6.646,25.751z"/>
		<radialGradient id="SVGID_3_" cx="45.1465" cy="62.2285" r="51.0947" gradientUnits="userSpaceOnUse">
			<stop  offset="0" style="stop-color:#919395"/>
			<stop  offset="0.6727" style="stop-color:#424243"/>
			<stop  offset="1" style="stop-color:#272525"/>
		</radialGradient>
		<path fill="url(#SVGID_3_)" d="M40.345,85.399c0.043-1.762,1.545-3.086,3.187-3.445c4.263-0.536,5.661,6.078,1.492,7.247
			C42.689,89.878,40.061,87.861,40.345,85.399z"/>
		<radialGradient id="SVGID_4_" cx="45.1465" cy="62.2314" r="51.0762" gradientUnits="userSpaceOnUse">
			<stop  offset="0" style="stop-color:#919395"/>
			<stop  offset="0.6727" style="stop-color:#424243"/>
			<stop  offset="1" style="stop-color:#272525"/>
		</radialGradient>
		<path fill="url(#SVGID_4_)" d="M70.887,82.447c2.436-1.516,5.832,0.866,5.345,3.655c-0.199,2.604-3.533,4.135-5.634,2.592
			C68.324,87.341,68.507,83.584,70.887,82.447z"/>
	</g>
	<g>
		<g>
			<radialGradient id="SVGID_5_" cx="57.2988" cy="24.9111" r="32.34" gradientUnits="userSpaceOnUse">
				<stop  offset="0" style="stop-color:#CB2229"/>
				<stop  offset="0.3342" style="stop-color:#AA181D"/>
				<stop  offset="0.77" style="stop-color:#840C0F"/>
				<stop  offset="1" style="stop-color:#76070A"/>
			</radialGradient>
			<path fill="url(#SVGID_5_)" d="M45.718,27.457c3.665-2.423,8.794-0.839,10.567,3.153c1.915-4.351,7.992-5.786,11.474-2.442
				c2.562,2.185,1.963,5.907,0.65,8.614c-2.021,3.634-5.116,6.456-7.941,9.461c-1.503,1.056-2.785,2.396-4.183,3.594
				c-2.717-2.477-5.428-4.947-8.033-7.533c-2.175-2.727-4.676-5.536-5.129-9.142C42.689,30.928,43.915,28.715,45.718,27.457z
				 M50.232,32.072c0.852,2.754,2.318,5.265,3.249,7.979c1.208,0.257,0.964-1.537,1.996-1.456c1.587,1.063,2.762,4.23,4.828,3.526
				c0.605-2.268-2.92-3.201-3.637-5.184c0.917-0.237,1.421-0.792,1.499-1.651C55.433,34.42,52.966,32.897,50.232,32.072z"/>
		</g>
	</g>
	<g>
		<g>
			<radialGradient id="SVGID_6_" cx="34.7266" cy="45.9634" r="34.5088" gradientUnits="userSpaceOnUse">
				<stop  offset="0" style="stop-color:#7CC5F1"/>
				<stop  offset="0.009" style="stop-color:#79C4F1"/>
				<stop  offset="0.2612" style="stop-color:#22B2ED"/>
				<stop  offset="0.3758" style="stop-color:#00ABEB"/>
				<stop  offset="0.465" style="stop-color:#00A4E3"/>
				<stop  offset="0.6054" style="stop-color:#0091CC"/>
				<stop  offset="0.7795" style="stop-color:#0072A7"/>
				<stop  offset="0.9788" style="stop-color:#004775"/>
				<stop  offset="1" style="stop-color:#00426F"/>
			</radialGradient>
			<path fill="url(#SVGID_6_)" d="M35.787,53.971c-1.059-6.828,5.722-13.156,12.465-11.667c2.605,2.585,5.316,5.056,8.033,7.533
				c1.576,5.414-1.989,11.626-7.501,12.904C42.94,64.447,36.457,59.98,35.787,53.971z M38.149,52.319
				c0.731,3.938,5.955,5.685,9.014,3.167c1.127,1.489,2.334,2.951,3.617,4.345c1.109,0.332,1.746-0.108,1.908-1.319
				c-1.411-1.388-2.819-2.795-4.555-3.763c2.074-2.943,1.232-7.606-2.311-8.939C41.813,43.874,36.89,48.036,38.149,52.319z"/>
		</g>
		<radialGradient id="SVGID_7_" cx="34.729" cy="45.9614" r="34.5086" gradientUnits="userSpaceOnUse">
			<stop  offset="0" style="stop-color:#7CC5F1"/>
			<stop  offset="0.009" style="stop-color:#79C4F1"/>
			<stop  offset="0.2612" style="stop-color:#22B2ED"/>
			<stop  offset="0.3758" style="stop-color:#00ABEB"/>
			<stop  offset="0.465" style="stop-color:#00A4E3"/>
			<stop  offset="0.6054" style="stop-color:#0091CC"/>
			<stop  offset="0.7795" style="stop-color:#0072A7"/>
			<stop  offset="0.9788" style="stop-color:#004775"/>
			<stop  offset="1" style="stop-color:#00426F"/>
		</radialGradient>
		<path fill="url(#SVGID_7_)" d="M41.144,47.265c2.667-1.942,6.814,0.088,6.98,3.363c0.41,3.229-3.296,5.962-6.25,4.534
			C38.653,53.938,38.209,49.065,41.144,47.265z"/>
	</g>
</g>
</svg>
