<?xml version="1.0" encoding="utf-8"?>
<!-- Generator: Adobe Illustrator 18.1.0, SVG Export Plug-In . SVG Version: 6.00 Build 0)  -->
<svg version="1.0" id="Layer_1" xmlns="http://www.w3.org/2000/svg" xmlns:xlink="http://www.w3.org/1999/xlink" x="0px" y="0px"
	 viewBox="0 0 150 150" enable-background="new 0 0 150 150" xml:space="preserve">
<g>
	<path fill="#97C757" d="M80.1,16.7l-3.7-1.9c0.4,0.8,0.9,1.7,1.4,2.8L80.1,16.7z"/>
	<path fill="#97C757" d="M50.2,29l-5.6-2c0.5,1,1.1,2.2,1.8,3.5L50.2,29z"/>
	<path fill="#005179" d="M25.3,110.5l1.3-15.3l1.3-15.3L41,87.6l13.2,7.8l-5.6,2.9c3.2,6.3,6.8,11.8,10.3,16.4l12.3-5.1
		c-0.6-0.9-1.2-1.7-1.8-2.7l0,0c-2.4-3.5-5.2-7.8-8.4-12.9c-1.8-2.8-3.8-5.9-5.9-9.3c-8.6-13.7-15-24.4-19.7-32.5
		c0,0,0.1-0.1,0.1-0.1c-3.1-5.5-5.4-9.6-7.2-12.8c-4.4,4-7.6,9.9-7.8,15.4l-2.7,58.9c-0.2,3.6,0.9,6.9,3.1,9.1
		c1.9,2,4.7,3.1,7.7,3.1c1.8,0,3.7-0.4,5.5-1.2l6.3-2.6c-2.6-4-5.5-8.9-8.9-15.1L25.3,110.5z"/>
	<path fill="#005179" d="M111.9,11c-1.9-2-4.7-3.1-7.7-3.1c-1.8,0-3.7,0.4-5.5,1.2l-18.6,7.6l-2.2,0.9c0.2,0.5,0.5,0.9,0.7,1.4
		C82,25.7,88.1,37.2,98,52.5c5.1,7.9,10.1,15.3,14.6,21.7l0,0.4c0,0,0,0,0,0l2.5-54.4C115.1,16.5,114,13.3,111.9,11z"/>
	<path fill="#005179" d="M82.9,64.2C64.5,35,62.5,31.4,58.7,25.5L50.2,29l-3.8,1.6c0.1,0.3,0.3,0.6,0.5,0.9
		c4.5,8.9,12,23.5,23.3,41.2C76.5,82.7,82.7,91.9,88,99.2l-0.1,0c0.6,0.8,1.3,1.7,2.1,2.7l8.4-3.5c1.8-0.7,3.6-1.8,5.1-3.1
		C99.4,89.7,93,80.2,82.9,64.2z"/>
	<path fill="#5B9842" d="M72.6,128.9c-0.1,0.1,1.9,1.5,1.7,1.5c0,0-0.1,0.1-0.2,0.1c0,0,0,0,0,0l10.2-4.2c-1.1-0.8-4-3.8-9.2-11
		l-11.8,4.9C67.3,124.5,70.7,127.6,72.6,128.9z"/>
	<path fill="#5B9842" d="M54.5,138.7c-1-0.6-4.1-2.5-10.1-10.6l-1.8,0.7l-0.2,3.9c-0.3,6.2,4.3,9.2,10.1,6.8
		C52.5,139.5,54.9,138.5,54.5,138.7z"/>
	<path fill="#5B9842" d="M128,97.2L128,97.2l2.7-59.2c0.3-6.1-4.1-9.1-9.8-6.9l-2.2,49.7c-0.1,1.2-0.2,2.4-0.5,3.6c0,0,0,0,0,0
		C121.8,89.5,125.2,93.9,128,97.2z"/>
	<path fill="#5B9842" d="M106.5,101.8C106.4,101.7,106.4,101.7,106.5,101.8c-1.5,0.9-3,1.8-4.5,2.4l-7.6,3.1
		c3.6,4.4,7.4,8.8,9.4,10.9l12.7-5.2c-0.2,0.1-0.4,0.1-0.5,0.2C114.9,112.6,112.6,110.4,106.5,101.8z"/>
</g>
</svg>
