<?xml version="1.0" encoding="utf-8"?>
<!-- Generator: Adobe Illustrator 18.1.0, SVG Export Plug-In . SVG Version: 6.00 Build 0)  -->
<svg version="1.0" id="Layer_1" xmlns="http://www.w3.org/2000/svg" xmlns:xlink="http://www.w3.org/1999/xlink" x="0px" y="0px"
	 viewBox="0 0 150 150" enable-background="new 0 0 150 150" xml:space="preserve">
<g>
	<path fill="#7A81BE" d="M48.6,101.3c-4.2,1-8.4,1.6-12.5,1.6c-5.1,0-9.7-0.8-13.6-2.3c-9.9,12.9-7.1,33.3-7.1,33.3
		s20.5,2.8,33.3-7.1c-0.3-0.9-0.6-1.9-0.8-2.9C46.1,117.1,46.4,109.2,48.6,101.3z"/>
	<path fill="#7A81BE" d="M34.6,44.5c4.3,0,8.8,0.6,13.3,1.8c-2.4-9.7-2-19,0.7-26.1C35.7,10.3,15.3,13,15.3,13s-2.7,20.5,7.2,33.3
		C26,45.1,30.1,44.5,34.6,44.5z"/>
	<path fill="#7A81BE" d="M116.8,102.5c-4.4,0-8.8-0.6-13.3-1.8c2.4,9.7,2,19-0.7,26.2c12.9,9.8,33.3,7.1,33.3,7.1s2.8-20.5-7.2-33.3
		C125.4,101.8,121.3,102.5,116.8,102.5z"/>
	<path fill="#7A81BE" d="M102.9,45.6c4.2-1,8.4-1.6,12.5-1.6c5.1,0,9.7,0.8,13.6,2.3c9.9-12.8,7.1-33.3,7.1-33.3s-20.5-2.7-33.3,7.1
		c0.3,0.9,0.6,1.9,0.8,2.9C105.3,29.8,105,37.7,102.9,45.6z"/>
	<path fill="#00AB99" d="M138.4,60.5c-2.7-10.3-18.5-15.2-35.2-10.8c-2.5,0.7-4.8,1.5-7.1,2.4c0.8-1.7,1.5-3.5,2.1-5.3
		c5.3-16.5,1.4-32.5-8.8-35.8c-4.4-1.4-9.2-0.2-13.8,2.9c-4.2-3.1-8.7-4.4-12.9-3.3C52.5,13.4,47.7,29.2,52,45.9
		c0.7,2.5,1.5,4.9,2.4,7.1c-1.7-0.8-3.5-1.5-5.3-2.1c-16.5-5.3-32.5-1.4-35.8,8.8c-1.4,4.4-0.2,9.2,2.9,13.7
		c-3.1,4.1-4.4,8.7-3.3,12.9c2.7,10.3,18.5,15.2,35.2,10.8c2.5-0.6,4.9-1.5,7-2.4c-0.8,1.7-1.5,3.5-2.1,5.3
		c-5.3,16.5-1.4,32.5,8.8,35.8c4.4,1.4,9.2,0.2,13.8-2.9c4.2,3.1,8.7,4.4,12.9,3.3c10.3-2.7,15.2-18.5,10.8-35.2
		c-0.6-2.5-1.5-4.8-2.4-7c1.7,0.8,3.5,1.5,5.3,2.1c16.5,5.3,32.5,1.4,35.8-8.8c1.4-4.4,0.2-9.2-2.9-13.7
		C138.2,69.3,139.5,64.8,138.4,60.5z M55.8,77.1l-6-2.2l6-2.1c-0.1,0.7-0.1,1.4-0.1,2.1C55.7,75.7,55.8,76.4,55.8,77.1z M75.7,49.1
		l2.2,6C77.1,55,76.4,55,75.7,55c-0.7,0-1.4,0-2.1,0.1L75.7,49.1z M63.2,59.4c-1.1,0.9-2.1,1.9-3.1,3l-2.7-5.8L63.2,59.4z
		 M57.4,93.3l2.8-5.8c0.9,1.1,1.9,2.2,3,3.1L57.4,93.3z M75.7,100.9l-2.1-6.1c0.7,0.1,1.4,0.1,2.1,0.1c0.7,0,1.5,0,2.2-0.1
		L75.7,100.9z M75.7,92.7c-9.8,0-17.8-7.9-17.8-17.8c0-9.8,7.9-17.8,17.8-17.8c9.8,0,17.8,7.9,17.8,17.8
		C93.4,84.8,85.5,92.7,75.7,92.7z M88.2,90.5c1.1-0.9,2.2-1.9,3-3.1l2.8,5.8L88.2,90.5z M91.2,62.4c-0.9-1.1-1.9-2.1-3-3l5.8-2.8
		L91.2,62.4z M95.5,77.1c0.1-0.7,0.1-1.4,0.1-2.2c0-0.7,0-1.4-0.1-2.1l6,2.1L95.5,77.1z"/>
</g>
</svg>
