<?xml version="1.0" encoding="utf-8"?>
<!-- Generator: Adobe Illustrator 18.1.0, SVG Export Plug-In . SVG Version: 6.00 Build 0)  -->
<svg version="1.0" id="Layer_1" xmlns="http://www.w3.org/2000/svg" xmlns:xlink="http://www.w3.org/1999/xlink" x="0px" y="0px"
	 viewBox="0 0 150 150" enable-background="new 0 0 150 150" xml:space="preserve">
<g>
	<path fill="none" d="M25.4,36.5l-1.3,0.3v0l1.2,0.6C25.3,37.2,25.5,37.1,25.4,36.5z"/>
	<path fill="none" d="M132.3,101.7c-3.1-2.6-5.4-6-6.8-9.7c-2.4-7.6-7.6-13.9-13.8-16.9c-0.2-0.1-0.4-0.2-0.6-0.3l-2.4-1.2l2.4-1.2
		c0.1-0.1,0.3-0.1,0.5-0.2c6.3-3,11.5-9.3,13.9-17c1.4-3.7,3.7-7,6.8-9.7l3.6-3.3l-3.6-3c-0.9-0.8-2.1-1.2-3.6-1.2l-0.6,0h-0.4
		c0,0-13.7,0-15.1,0H112c-6.7,0-11.3,0.8-16.4,4.4l-2,1.4l-0.1-2.4c-0.3-7.5-2.9-11.2-7.5-17.9c-1.8-2.6-4-5.8-6.6-9.9l-0.5-0.7
		l-0.7-0.5c-0.6-0.5-2.9-1.9-4.2-2.5l-2,4.3c-1.3,3.1-3.3,5.8-5.4,8.6c-3.8,5.3-7.9,10.8-8.3,18.8l-0.1,2.4l-2-1.4
		c-5.1-3.7-9.8-4.5-16.5-4.5h-0.6c-1.3,0-13.3,0.1-14.9,0.1l-0.1,0c0,0,0,0,0,0c0,0,0.1,0,0.3-0.1l-0.5-1.2l0,1.2c0,0-0.1,0-0.2,0
		h-0.3h-0.6c-1.5,0-2.7,0.4-3.6,1.2l-3.7,3.2l3.6,3.1c3.1,2.6,5.4,6,6.8,9.7c2.3,7.6,7.6,13.9,13.8,16.9c0.2,0.1,0.4,0.2,0.6,0.3
		l2.5,1.3l-2.6,1.1c-0.1,0.1-0.3,0.1-0.4,0.2c-6.3,3-11.5,9.3-13.9,17c-1.4,3.7-3.7,7-6.8,9.7l-3.8,3.4l3.8,3c1.4,1.1,3,1.1,3.6,1.1
		l0.6-0.1h0.4c0,0,13.7,0,15.1,0h0.5c6.7,0,11.4-0.7,16.5-4.3l2-1.4l0.1,2.5c0.4,7.9,4.5,13.6,8.3,18.8c2.1,2.8,4.1,5.6,5.4,8.6
		l3.3,7.1l4.1-6.5c2.6-4.2,4.8-7.4,6.6-9.9c4.6-6.7,7.3-10.4,7.5-17.9l0.1-2.4l2,1.3c5.1,3.6,9.7,4.3,16.4,4.3h0.6
		c1.4,0,15.1,0,15.1,0h0.4l0.6,0.1c0.6,0,2.2,0,3.6-1.1l3.8-3.2L132.3,101.7z M127.7,105.2c0,0-13.8,0-15.1,0
		c-7.2,0.1-11.1-0.9-15.4-4.2c-7.5-5.4-8.9-14-14.3-20.6c-1.6-1.7-3-4.5-5.6-4.8c-0.4,0-0.2,0.6-0.3,0.8c0,0.3,0.3,0.9,0.6,1.2
		c7.3,11.5,12.2,18.9,12.1,27.3c-0.1,9.6-4.4,12-13.6,26.7c-0.1,0.1-0.3,0.1-0.4,0c-4.1-9.5-13.8-15.7-13.4-27.9
		C62.6,94.6,70,84.4,73.5,79c0.4-0.7,1-1.3,1.4-1.8C75,77,75,76.3,75,75.9c0,0-0.1-0.4-0.4-0.4c-0.9,0-3.9,3-5.5,4.8
		C63.6,87,62.2,95.6,54.7,101c-4.3,3.4-8.2,4.3-15.4,4.2c-1.3,0-15.1,0-15.1,0c-0.7,0-1.6,0.2-2.2-0.3l0-0.2c3.8-3.2,6.4-7.2,8-11.4
		c1.8-5.9,6-11.9,11.9-14.7c3.5-1.8,7.2-2.9,11.3-3.2l11-0.2c2.1-0.1,7-0.1,8.1-0.3c0.7-0.2,1.5-0.7,2.2-1.2c-0.7-0.5-1.4-1-2.2-1.2
		c-1.1-0.2-6-0.3-8.1-0.3l-11-0.2c-4.1-0.3-7.8-1.5-11.3-3.2C36,65.8,31.8,59.8,30,53.9c-1.5-4.2-4.2-8.2-8-11.4l0-0.2
		c0.6-0.4,1.5-0.2,2.2-0.3c0,0,13.8,0,15.1,0c7.2,0,11.1,0.9,15.4,4.2c7.5,5.4,8.9,14,14.3,20.6c1.7,1.7,4.6,4.8,5.5,4.8
		c0.3,0,0.4-0.4,0.4-0.4c0-0.3,0-1.1-0.1-1.3c-0.4-0.6-1-1.1-1.4-1.8C70,62.8,62.6,52.6,62.3,43.5c-0.4-12.2,9.4-18.3,13.4-27.9
		c0.1-0.1,0.2-0.1,0.4,0c9.2,14.7,13.5,17.1,13.6,26.7c0.1,8.4-4.8,15.8-12.1,27.3c-0.2,0.4-0.6,1-0.6,1.2c0,0.2-0.1,0.8,0.3,0.8
		c2.6-0.3,4-3.1,5.6-4.8c5.4-6.6,6.8-15.2,14.3-20.6c4.3-3.4,8.2-4.3,15.4-4.2c1.4,0,15.1,0,15.1,0c0.7,0,1.7-0.2,2.2,0.3l0,0.2
		c-3.8,3.2-6.4,7.2-8,11.4c-1.8,5.9-6,11.9-11.9,14.7c-3.5,1.8-7.2,2.9-11.3,3.2l-11,0.2c-2.1,0.1-7.1,0.1-8.1,0.3
		c-0.7,0.2-1.5,0.7-2.1,1.2c0.6,0.5,1.4,1,2.1,1.2c1.1,0.2,6.1,0.3,8.1,0.3l11,0.2c4.1,0.3,7.8,1.5,11.3,3.2
		c5.9,2.8,10.1,8.8,11.9,14.7c1.5,4.2,4.2,8.2,8,11.4l0,0.2C129.3,105.3,128.4,105.1,127.7,105.2z"/>
	<path fill="#E42157" d="M121.9,93.3c-1.8-5.9-6-11.9-11.9-14.7c-3.5-1.8-7.2-2.9-11.3-3.2l-11-0.2c-2.1-0.1-7.1-0.1-8.1-0.3
		c-0.7-0.2-1.5-0.7-2.1-1.2c0.6-0.5,1.4-1,2.1-1.2c1.1-0.2,6.1-0.3,8.1-0.3l11-0.2c4.1-0.3,7.8-1.5,11.3-3.2
		c5.9-2.8,10.1-8.8,11.9-14.7c1.5-4.2,4.2-8.2,8-11.4l0-0.2c-0.5-0.4-1.5-0.2-2.2-0.3c0,0-13.8,0-15.1,0c-7.2,0-11.1,0.9-15.4,4.2
		c-7.5,5.4-8.9,14-14.3,20.6c-1.6,1.7-3,4.5-5.6,4.8c-0.4,0-0.2-0.6-0.3-0.8c0-0.3,0.3-0.9,0.6-1.2c7.3-11.5,12.2-18.9,12.1-27.3
		c-0.1-9.6-4.4-12-13.6-26.7c-0.1-0.1-0.3-0.1-0.4,0c-4.1,9.6-13.8,15.7-13.4,27.9c0.3,9.1,7.7,19.3,11.2,24.7
		c0.4,0.7,1,1.3,1.4,1.8c0.1,0.2,0.1,0.9,0.1,1.3c0,0-0.1,0.4-0.4,0.4c-0.9,0-3.9-3.1-5.5-4.8c-5.4-6.6-6.8-15.2-14.3-20.6
		c-4.3-3.4-8.2-4.3-15.4-4.2c-1.3,0-15.1,0-15.1,0c-0.7,0-1.6-0.2-2.2,0.3l0,0.2c3.8,3.2,6.4,7.2,8,11.4c1.8,5.9,6,11.9,11.9,14.7
		c3.5,1.8,7.2,2.9,11.3,3.2l11,0.2c2.1,0.1,7,0.1,8.1,0.3c0.7,0.2,1.5,0.7,2.2,1.2c-0.7,0.5-1.4,1-2.2,1.2c-1.1,0.2-6,0.3-8.1,0.3
		l-11,0.2c-4.1,0.3-7.8,1.5-11.3,3.2C36,81.4,31.8,87.4,30,93.3c-1.5,4.2-4.2,8.2-8,11.4l0,0.2c0.6,0.4,1.5,0.2,2.2,0.3
		c0,0,13.8,0,15.1,0c7.2,0.1,11.1-0.9,15.4-4.2c7.5-5.4,8.9-14,14.3-20.6c1.7-1.7,4.6-4.8,5.5-4.8c0.3,0,0.4,0.4,0.4,0.4
		c0,0.3,0,1.1-0.1,1.3c-0.4,0.6-1,1.1-1.4,1.8c-3.4,5.4-10.9,15.6-11.2,24.7c-0.4,12.2,9.4,18.3,13.4,27.9c0.1,0.1,0.2,0.1,0.4,0
		c9.2-14.7,13.5-17.1,13.6-26.7c0.1-8.4-4.8-15.8-12.1-27.3c-0.2-0.4-0.6-1-0.6-1.2c0-0.2-0.1-0.8,0.3-0.8c2.6,0.3,4,3.1,5.6,4.8
		c5.4,6.6,6.8,15.2,14.3,20.6c4.3,3.4,8.2,4.3,15.4,4.2c1.4,0,15.1,0,15.1,0c0.7,0,1.7,0.2,2.2-0.3l0-0.2
		C126.1,101.5,123.4,97.5,121.9,93.3z"/>
	<path d="M134,99.7c-2.8-2.4-4.9-5.3-6.1-8.6c-2.3-7.5-7.3-13.9-13.4-17.5c6.2-3.6,11.1-10,13.4-17.6c1.2-3.2,3.3-6.2,6-8.5l6-5.3
		l-6-5c-1.5-1.2-3.3-1.8-5.4-1.8l-0.7,0l-0.4,0.3c0,0-13.7,0.2-15,0.2H112c-6,0-11.1,0.3-16,3.3c-0.7-6.8-3.7-11.2-7.9-17.2
		c-1.8-2.6-4-5.8-6.5-9.9l-0.6-1l-0.2-0.3l-1.2-0.8c-0.5-0.3-1.6-1-2.8-1.7C75.6,7.7,74.7,7,73.4,7h-0.8l-2.9,6
		c-1.2,2.7-3.1,5.3-5.1,8.1c-3.5,4.8-7.6,10.6-8.6,18.3c-5-3-10.1-3.4-16.1-3.4h-0.6c-0.7,0-4.4,0-8,0c-1.8,0-3.6,0-4.9,0
		c-0.7,0-1.2,0-1.6,0c-0.2,0-0.3,0-0.4,0c0,0,0,0,0,0c-0.1,0-0.1,0-0.1,0l-0.4-0.3l-0.7-0.2c-2,0-3.9,0.5-5.3,1.7l-6,5.2l6,5.1
		c2.8,2.4,4.8,5.3,6,8.6C26.1,63.6,31,70,37.2,73.6c-6.2,3.6-11.1,10-13.4,17.5c-1.2,3.2-3.3,6.2-6,8.5l-6.1,5.4l6.3,5
		c2.2,1.7,4.5,1.8,5.2,1.8l0.7,0.1h0.4c0,0,13.7,0,15,0h0.5c6.1,0,11.2-0.8,16.1-3.8c1,7.7,5.1,13.1,8.6,17.9c2.1,2.8,4,5.4,5.1,8.1
		l5.4,11.5l6.6-10.6c2.6-4.1,4.8-7.2,6.5-9.8c4.2-6,7.1-10.1,7.9-17c5,2.9,10,3.7,16,3.7h0.6c1.3,0,15,0,15,0h0.3l0.6-0.1
		c0.7,0,3.1-0.1,5.3-1.8l6.2-5.3L134,99.7z M24.2,36.8l1.3-0.3c0.1,0.6-0.1,0.8-0.1,0.9L24.2,36.8L24.2,36.8z M132.2,108
		c-1.4,1.1-3,1.1-3.6,1.1L128,109h-0.4c0,0-13.7,0-15.1,0H112c-6.6,0-11.3-0.7-16.4-4.3l-2-1.4l-0.1,2.5c-0.3,7.5-2.9,11.2-7.5,18
		c-1.8,2.6-4,5.8-6.6,9.9l-4.1,6.5l-3.3-7.1c-1.3-3-3.3-5.8-5.4-8.6c-3.8-5.3-7.9-10.8-8.3-18.8l-0.1-2.4l-2,1.4
		c-5.1,3.7-9.7,4.3-16.5,4.3h-0.5c-1.4,0-15.1,0-15.1,0h-0.4l-0.6,0.1c-0.6,0-2.2,0-3.6-1.1l-3.8-3l3.8-3.3c3.1-2.6,5.4-5.9,6.8-9.6
		c2.4-7.6,7.6-14,13.9-17c0.2-0.1,0.3-0.2,0.4-0.2l2.6-1.1l-2.5-1.2c-0.2-0.1-0.4-0.2-0.6-0.3c-6.2-3-11.4-9.3-13.8-16.9
		c-1.4-3.8-3.7-7.1-6.8-9.7l-3.6-3.1l3.7-3.2c0.9-0.7,2.1-1.2,3.6-1.2h0.6H24c0.1,0,0.1,0,0.2,0l0-1.2l0.5,1.2
		c-0.3,0.1-0.3,0.1-0.3,0.1c0,0,0,0,0,0l0.1,0c1.5,0,13.6-0.1,14.9-0.1h0.6c6.7,0,11.3,0.8,16.5,4.5l2,1.4l0.1-2.4
		c0.4-8,4.5-13.5,8.3-18.8c2.1-2.8,4.1-5.6,5.4-8.6l2-4.3c1.3,0.6,3.5,2.1,4.2,2.5l0.7,0.5l0.5,0.7c2.6,4.1,4.8,7.4,6.6,9.9
		c4.6,6.7,7.3,10.4,7.5,17.9l0.1,2.4l2-1.4c5-3.6,9.7-4.4,16.4-4.4h0.5c1.4,0,15.1,0.1,15.1,0.1l0.4,0l0.6,0c1.5,0,2.7,0.4,3.6,1.2
		l3.6,3l-3.6,3.3c-3.1,2.6-5.4,5.9-6.8,9.7c-2.4,7.7-7.6,14-13.9,17c-0.2,0.1-0.3,0.2-0.5,0.2l-2.4,1.2l2.4,1.2
		c0.2,0.1,0.4,0.2,0.6,0.3c6.2,3,11.4,9.3,13.8,16.9c1.4,3.8,3.7,7.1,6.8,9.7l3.7,3.1L132.2,108z"/>
</g>
</svg>
