<?xml version="1.0" encoding="utf-8"?>
<!-- Generator: Adobe Illustrator 18.1.0, SVG Export Plug-In . SVG Version: 6.00 Build 0)  -->
<svg version="1.1" id="Layer_1" xmlns="http://www.w3.org/2000/svg" xmlns:xlink="http://www.w3.org/1999/xlink" x="0px" y="0px"
	 viewBox="0 0 1500 1500" enable-background="new 0 0 1500 1500" xml:space="preserve">
<g>
	<path fill="#8A7448" d="M1285,456.7V311h-16v161.6C1277,466,1277,460.6,1285,456.7z"/>
	<path fill="#8A7448" d="M1126.4,260.3c0,21.2-12.9,41.7-32.7,50.7h18.2c19.8-9,32.7-29.5,32.7-50.7c0-35.2-35.3-63.3-78.9-63.3
		c-3.1,0-6.1,0-9.1,0.2C1095.9,200.9,1126.4,227.6,1126.4,260.3z"/>
	<path fill="#8A7448" d="M1378.3,526.9c0.8,40.2-22.7,73.8-54,79.4c3.3,0.6,6.7,0.9,10.1,0.9c35.2-0.7,63-36.7,62-80.3
		c-0.9-43.6-30.2-78.3-65.4-77.6c-2.8,0.1-5.4,0.4-8.1,0.9C1353.6,455.6,1377.5,487.6,1378.3,526.9z"/>
	<path fill="#8A7448" d="M1269,582.8V716h16V599.2C1277,595.1,1277,589.5,1269,582.8z"/>
	<path fill="#FC9F4C" d="M864.5,450.4c4.8-7.8,10-14.4,16.7-19.6c5.9-4.5,12-7.9,19-9.8c4.5-1.3,9.1-2,13.9-2
		c16.3,0,31,7.6,42.3,20.1c13.1,14.5,21.3,35.4,21.3,58.9c0,3.1-0.2,6.1-0.5,9.1c0.3,3,0.4,6,0.4,9.1c0,35.7-19.1,65.8-45.4,75.6
		c-5.8,2.2-12,3.4-18.4,3.4c-2.1,0-4.2-0.1-6.3-0.4c-9.9-1.2-19-5.3-27.1-11.4c-3.9-3-6.3-6.5-9.6-10.4c-2.7-3.2-6-6.7-6-10.5v157.2
		V716h135.2c-19.2-9-31.6-30.8-31.6-46.8c0-35.2,35.3-62.9,78.9-62.9c3.1,0,6.1,0.6,9.1,0.9c0.4,0,0.8,0.1,1.3,0.1
		c2.6-0.2,5.2-0.2,7.8-0.2c43.6,0,78.9,26.9,78.9,62.1c0,16.1-12.5,37.9-31.6,46.9h156V582.8c8,6.7,11.4,12.2,18.2,16.3
		c8.8,5.3,18.6,8.2,29,8c2.7-0.1,5.4-0.4,8.1-0.9c31.3-5.6,54.8-39.2,54-79.4c-0.8-39.3-24.8-71.3-55.3-76.7
		c-3.3-0.6-6.7-0.9-10.1-0.9c-9.2,0.2-17.9,2.8-25.7,7.3c-6.8,3.9-10.2,9.3-18.2,15.9V311h-157.1h-18.2c19.8-9,32.7-29.5,32.7-50.7
		c0-32.7-30.5-59.2-69.8-62.8c-3-0.3-6-0.2-9.1-0.2c-43.6,0-78.9,27.8-78.9,63c0,21.2,12.9,41.8,32.7,50.8H865v140.7
		C865,451.2,864.2,450.8,864.5,450.4z"/>
	<path fill="#36845B" d="M1331.1,859.1c-2.8,0.1-5.4,0.4-8.1,0.9c30.5,5.4,54.4,37.4,55.3,76.7c0.8,40.2-22.7,73.8-54,79.4
		c3.3,0.6,6.7,1,10.1,0.9c35.2-0.8,63-36.7,62-80.3C1395.6,893.1,1366.3,858.4,1331.1,859.1z"/>
	<path fill="#36845B" d="M1269,992.6V1128h16v-119.1C1277,1004.8,1277,999.3,1269,992.6z"/>
	<path fill="#36845B" d="M986.8,1074.7c-0.7,22,12.6,45.3,33.3,53.3h18.2c-20.7-8-34-31.3-33.4-53.3c1-31.9,30.8-57.1,68.9-60.6
		c-2.1-0.2-4.2-0.5-6.3-0.6C1024,1012.2,987.9,1039.5,986.8,1074.7z"/>
	<path fill="#36845B" d="M880.6,987.1c6.6,5.8,14.1,10.1,22.2,12.5c5.3,1.6,10.9,2.4,16.6,2.2c2.6-0.1,5.1-0.4,7.6-0.9
		c-15.6-2.7-29.4-12.2-39.4-26.3l-7.1-11.6h-18.2C867,971,873.2,980.6,880.6,987.1z"/>
	<path fill="#36845B" d="M1144.6,669.2c0-35.2-35.3-62.9-78.9-62.9c-2.6,0-5.3,0.6-7.8,0.8c-0.4,0-0.8,0.3-1.3,0.4
		c0.2,0,0.3,0.2,0.5,0.2c39,3.8,69.3,30.7,69.3,63.3c0,7.4-2.7,13.8-7.5,21.7c-5.5,9.2-13.9,23.4-24.2,23.4h18.2
		C1132.2,707,1144.6,685.2,1144.6,669.2z"/>
	<path fill="#36845B" d="M891.8,850.9c-4,2.3-7.7,5.1-11.3,8.3c-7.1,6.4-13.3,13.8-18.2,21.8h18.2c9.5-17,25.6-32.9,44.6-36.4
		c-3.5-0.6-7-0.9-10.6-0.8C906.4,844.1,898.8,846.8,891.8,850.9z"/>
	<path fill="#36845B" d="M1269,882.4c8-6.6,8-12,16-15.9V716h-16V882.4z"/>
	<path fill="#4CA950" d="M1378.3,936.7c-0.8-39.3-24.8-71.3-55.3-76.7c-3.3-0.6-6.7-0.9-10.1-0.9c-9.2,0.2-17.9,2.8-25.7,7.3
		c-6.8,3.9-10.2,9.3-18.2,15.9V716h-156h-18.2c10.3,0,18.7-14.2,24.2-23.4c4.7-7.9,7.5-15.2,7.5-22.6c0-32.6-30.3-59-69.3-62.8
		c-0.2,0-0.3,0.2-0.5,0.1c-3-0.3-6-0.3-9.1-0.3c-43.6,0-78.9,26.9-78.9,62.1c0,16.1,12.5,37.9,31.6,46.9H865v21.7v143.7
		c0-7.9,9.8-15.6,16.9-22c3.5-3.2,6.6-6.1,10.6-8.4c6.9-4.1,14.2-6.7,22.4-6.9c3.6-0.1,7,0.2,10.4,0.9c30.3,5.3,54.3,37,55.5,76.1
		c1.2,40.3-22.2,74.3-53.7,80c-2.5,0.5-5.1,0.8-7.7,0.9c-5.7,0.2-11.3-0.7-16.6-2.2c-8.1-2.4-14.3-6.8-20.9-12.6
		c-7.3-6.5-16.9-14.7-16.9-24.3V1128h155.2c-20.7-8-34-31.3-33.3-53.3c1.1-35.2,37.2-62.4,80.8-61.1c2.1,0.1,4.2,0.4,6.3,0.6
		c40.5,3.8,71.7,31.6,70.7,65.1c-0.6,20.4-13.1,40.7-31.8,48.7H1269V992.6c8,6.7,11.4,12.2,18.2,16.3c8.8,5.3,18.6,8.2,29,8
		c2.7-0.1,5.4-0.4,8.1-0.9C1355.6,1010.5,1379.2,976.9,1378.3,936.7z"/>
	<path fill="#019CDB" d="M702.5,716H865V562.3v-18.2c0,3.1,2.4,6,4.6,8.7c3.7,4.7,7.1,8.8,11.7,12.2c4,3,7.9,5.6,12.4,7.5
		c0.5,0.2,0.8,0.5,1.3,0.6c6.1,2.4,12.4,3.7,19.1,3.7c31,0,56.8-27.4,62.5-63.8c0.3-2,0.5-4,0.7-6.1c0.3-3,0.4-6,0.4-9.1
		c0-23.4-8.3-44.4-21.4-58.9C945.1,426.6,930.2,419,914,419c-4.8,0-9.5,0.7-14.1,2c-7,1.9-13.5,5.3-19.3,9.8
		c-6.8,5.2-11.3,11.8-16.1,19.6c-0.3,0.4,0.5,0.9,0.5,1.3V312.8V311H703.5c9.4,8,17.4,11.8,23.7,19.1c3.2,3.8,5.9,8.2,8.1,12.5
		c3.3,6.8,5.4,14.3,5.6,22.1c0.1,3.6-0.2,7.2-0.8,10.7c-5.3,30.3-36.9,54.4-76,55.6c-40.3,1.3-74.3-22.2-80-53.6
		c-0.5-2.5-0.8-5-0.9-7.6c-0.2-5.1,0.6-10,1.8-14.7c2.3-8.8,6.8-17.9,13-25c6.5-7.3,14.7-11.1,24.3-19.1H452v159.6
		c17-20.7,33.7-34,55.7-33.4c35.2,1,63.6,37.2,62.3,80.8c-0.1,2.1,0.2,4.2,0,6.3c-3.8,40.5-33.7,71.6-67.2,70.7
		c-20.4-0.6-33.8-13.1-50.8-31.8V716h140.3c-6.7,8-12.2,13.1-16.3,20c-5.3,8.8-8.2,19.5-8,29.9c0.1,2.7,0.4,5.8,0.9,8.5
		c5.6,31.3,39.2,55.1,79.4,54.2c39.3-0.8,71.3-24.6,76.7-55.1c0.6-3.3,0.9-6.7,0.9-10.1c-0.2-9.2-2.8-19.6-7.3-27.4
		C714.5,729.1,709.1,724,702.5,716z"/>
	<path fill="#0076BF" d="M592.3,716H452v25h123.9C580,732,585.6,724,592.3,716z"/>
	<path fill="#0076BF" d="M648.2,828.7c-40.2,0.9-73.8-22.7-79.4-54c-0.6,3.3-1,6.7-0.9,10.2c0.7,35.2,36.7,63,80.3,62.1
		c43.6-0.9,78.3-30.2,77.5-65.4c-0.1-2.7-0.4-5.4-0.9-8.1C719.5,804,687.5,827.9,648.2,828.7z"/>
	<path fill="#0076BF" d="M507.7,437.2c-22-0.6-38.7,12.6-55.7,33.4v18.2c17-20.7,33.7-34,55.7-33.4c31.9,0.9,58.3,30.8,61.9,68.9
		c0.2-2.1-0.1-4.2,0-6.3C570.9,474.4,542.9,438.3,507.7,437.2z"/>
	<path fill="#0076BF" d="M735.3,343.1c-2.1-4.3-7.2-8.4-10.3-12.1c-6.2-7.3-8.9-13.6-25.9-18.2V331c25,9.5,35.4,25.5,38.8,44.6
		c0.6-3.5,2.1-7,2-10.6C739.5,357.2,738.6,349.8,735.3,343.1z"/>
	<path fill="#0076BF" d="M880.6,583.2c8,6.1,17.2,10.2,27.1,11.4c2.1,0.2,4.2,0.4,6.3,0.4c6.4,0,12.6-1.2,18.4-3.4
		c26.3-9.8,45.4-39.9,45.4-75.6c0-3.1-0.2-6.1-0.5-9.1c-0.2,2-0.4,4.1-0.8,6.1c-5.7,36.3-31.5,63.8-62.5,63.8
		c-6.7,0-13.2-1.3-19.2-3.7c-0.5-0.2-1-0.4-1.5-0.6c-4.5-1.9-8.7-4.4-12.7-7.5c-4.5-3.4-7.3-7.5-11-12.2c-2.1-2.7-4.6-5.6-4.6-8.7
		v18.2c0,3.8,3.3,7.3,6,10.5C874.3,576.8,876.6,580.2,880.6,583.2z"/>
	<path fill="#0076BF" d="M599.9,331c-6.3,7.1-11.7,15.3-14,24.2c-1.2,4.8-2.4,9.7-2.3,14.7c0.1,2.6,0.2,5.1,0.6,7.7
		c2.4-13.7,11.8-26,23.2-35.6L626,331v-18.2C609,317.4,606.3,323.6,599.9,331z"/>
	<path fill="#0076BF" d="M465.1,859c-6.7-1.6-13.5-2.3-20-2.1L465.1,859z"/>
	<path fill="#0076BF" d="M539.7,895.9l-11.5,14.2l18.4,14.9C546.4,915.3,544.1,905.4,539.7,895.9z"/>
	<path fill="#0076BF" d="M446.2,843.8l18.9,15.3l11.4-14.2C466.1,842.4,455.8,842.1,446.2,843.8z"/>
	<path fill="#0076BF" d="M865,716H702.5c6.5,8,12,16,15.9,25H865v-21.5V716z"/>
	<path fill="#81594C" d="M420.9,854.3c-4,2.9-7.6,6.3-10.7,10.3c-1.6,2.1-2.9,4.2-4.1,6.5c10.4-9.1,24.2-13.9,39-14.2
		c6.5-0.1,13.2,0.5,20,2.1l-18.9-15.3C436.8,845.3,428.2,848.9,420.9,854.3z"/>
	<path fill="#81594C" d="M536,960c4.7-6.2,7.7-13.2,9.3-20.5c1.1-4.7,1.5-9.6,1.3-14.5l-18.4-14.9c9.1,19.5,9.7,40.7,0.4,57.6
		C531.3,965.4,533.8,962.9,536,960z"/>
	<path fill="#81594C" d="M284.1,1235.7l111.9,90.5l11.5-14.2l-124.3-100.5C285,1219.7,285.3,1227.9,284.1,1235.7z"/>
	<path fill="#81594C" d="M537.3,1233.6c-16.5-13.4-23-35.2-19.5-57.9l-11.5,14.2c-3.4,22.7,3,44.5,19.5,57.9
		c27.4,22.1,71.8,12.6,99.2-21.3c1.9-2.4,3.7-4.9,5.4-7.4C602.9,1247.3,562.7,1254.2,537.3,1233.6z"/>
	<path fill="#81594C" d="M91.2,1056.3l-11.5,14.2l93.5,75.6c7.5-2.7,15.7-4,24.2-3.9L91.2,1056.3z"/>
	<path fill="#81594C" d="M172.2,1262.4c-31.8-24.6-43.1-64.1-27.8-91.9c-2.5,2.2-4.9,4.6-7,7.3c-21.5,27.8-11.1,72,23.4,98.7
		c34.5,26.7,79.9,25.7,101.4-2.1c1.7-2.2,3.1-4.5,4.4-6.8C243.2,1288,203.3,1286.4,172.2,1262.4z"/>
	<path fill="#81594C" d="M310.6,870.8c-16.7-14.4-40.5-16.5-62.9-8L236.2,877c22.4-8.5,46.2-6.4,62.9,8
		c24.2,20.8,25.3,60.1,4.1,91.9c1.5-1.5,2.9-3,4.3-4.7C335.9,939.1,337.3,893.7,310.6,870.8z"/>
	<path fill="#FF6F49" d="M539.7,895.9c4.4,9.5,6.7,19.4,7,29c0.1,5-0.3,9.8-1.3,14.5c-1.6,7.4-4.7,14.4-9.3,20.5
		c-2.2,2.9-4.7,5.4-7.3,7.7c-23.2,20.3-62.9,19-94.1-4.6c-32.2-24.4-43.8-64-28.5-92c1.2-2.2,2.6-4.4,4.1-6.5
		c3.1-4,6.7-7.4,10.7-10.3c7.3-5.4,16-9,25.4-10.6c9.6-1.6,19.9-1.4,30.3,1.1L346.9,740.1l-99.2,122.7c22.4-8.5,46.2-6.4,62.9,8
		c26.7,22.9,25.3,68.3-3,101.4c-1.4,1.6-2.9,3.1-4.3,4.7c-28.5,29.1-70,35.5-95.4,13.7c-15.5-13.3-21.5-34.1-18.3-55.7l-98.3,121.6
		l106.2,85.9c-8.5-0.1-16.7,1.2-24.2,3.9c-9.6,3.5-18.1,9.3-24.4,17.5c-1.7,2.2-3.1,4.5-4.4,6.8c-15.3,27.8-4,67.3,27.8,91.9
		c31.1,24,71,25.6,94.4,5.2c2.6-2.2,5-4.6,7.1-7.3c5.6-7.3,9-15.7,10.4-24.5c1.2-7.8,0.9-16-0.9-24.2l124.3,100.5l98.8-122.2
		l11.5-14.2c-3.4,22.7,3,44.5,19.5,57.9c25.4,20.6,65.6,13.8,93.1-14.5c2.1-2.2,4.1-4.4,6.1-6.8c27.4-33.9,27.4-79.3,0.1-101.4
		c-16.5-13.4-39.3-15.1-60.7-7l87.4-108L539.7,895.9z"/>
</g>
</svg>
