<?xml version="1.0" encoding="utf-8"?>
<!-- Generator: Adobe Illustrator 18.1.0, SVG Export Plug-In . SVG Version: 6.00 Build 0)  -->
<svg version="1.0" id="Layer_1" xmlns="http://www.w3.org/2000/svg" xmlns:xlink="http://www.w3.org/1999/xlink" x="0px" y="0px"
	 viewBox="0 0 150 150" enable-background="new 0 0 150 150" xml:space="preserve">
<g>
	<path fill="#97A822" d="M74.8,3.5C36,3.5,4.6,34.9,4.6,73.7S36,144,74.8,144c38.8,0,70.3-31.5,70.3-70.3S113.7,3.5,74.8,3.5z
		 M74.8,121.4c-26.3,0-47.7-21.4-47.7-47.7c0-26.3,21.3-47.7,47.7-47.7c26.3,0,47.7,21.3,47.7,47.7
		C122.5,100.1,101.2,121.4,74.8,121.4z"/>
	<path d="M110,75.8c-3,4.3-4.7,9.2-7.9,13.5c-1.4-2.1-4.4-6.9-4.4-6.9s3-5.1,3.7-6.2c1.3-2.1,2.5-4.2,3.8-6.3c1-1.7,0.2-2.4-0.9-3.9
		c2-0.3,3.9-0.6,5.9-0.9c-2.8-11.1-10.7-20.2-21.1-24.6c-3.4,2.7-9.4,7.3-10.5,8.6c0.4-0.7-0.1-1.8-0.1-2.6
		c-3.6,1.7-7.2,3.4-10.6,5.4c-0.1-2.3-0.7-6.4,1.6-7.9c2.6-1.8,5.7-2.7,8.3-4.5c1.2-0.4,0.4-1,0.8-1.7c-1.2-0.1-2.4-0.2-3.6-0.2
		c-17.5,0-32.1,12.4-35.6,28.8c0.8-0.7,1.7-1.4,2.6-2.1c-1.1,2.6-1.9,5.4-2.3,8.3c-0.2,1.8-0.6,3.5-0.7,5.2
		c-0.1-0.3-0.1-0.6-0.2-0.8c0.3,3.9,1.3,7.6,2.7,11.1c0,0,0,0,0.1,0c0,0,0,0.1,0,0.1c1.7,3.9,4,7.4,6.8,10.5
		c0.9-0.9,1.6-1.6,1.7-2.1c0.3-0.8-0.6-1.4-1.7-2.8c4.1,0,8.2-0.3,12.3-0.6c-0.3,2.6-0.6,11-0.6,11.6c-2-1.6-1.8-2-3.4-1.4
		c-0.2,0.1-0.7,0.5-1.4,1.1c5.7,3.6,12.4,5.8,19.6,5.8c5.9,0,11.6-1.4,16.5-4l0,0c4.2-3.5,8.6-6.8,12.1-11c0.5-0.6-0.8-0.8-0.6-1.4
		c0.3-0.3,2.2-1.6,4.1-3c2.7-5,4.2-10.8,4.2-16.9c0-1.3-0.1-2.6-0.2-3.9c-0.1,2.5-0.2,5.4-0.2,7.8C110.6,77,110.3,76.4,110,75.8z
		 M54.5,78c0-1-1.3-1.9-1.8-2.6c-2.6,4.2-5.3,8.4-7.5,12.8c-1.7-2.4-5-6.3-3.7-9.4c1.6-3.6,4.2-6.7,5.7-10.3
		c1.1-1.4-0.7-1.4-0.3-2.6c1.1-0.6,2.1-1.3,3.1-1.9c3.5-2,7.2-3.8,10.9-5.4C60.4,60.5,55,75.3,54.5,78z M92,78.1
		c-0.9-0.9-1.6-2-2.4-3c-2.7,2.6-16.5,15.5-18.2,16.8c-2-0.8-9.1-11.5-9.1-11.5S74.9,67.1,78.6,64c-1.2-0.9-2-1.7-3-2.5
		c12-1.6,11-1.4,18.6-2.2C93.8,62,92.5,75.9,92,78.1z"/>
	<path fill="#97A822" d="M78.6,64c-3.7,3.1-16.2,16.4-16.2,16.4s7.1,10.8,9.1,11.5c1.7-1.3,15.5-14.3,18.2-16.8c0.8,1,1.5,2.1,2.4,3
		c0.5-2.2,1.8-16.1,2.1-18.8c-7.6,0.8-6.6,0.6-18.6,2.2C76.6,62.3,77.4,63.1,78.6,64z"/>
</g>
</svg>
