<?xml version="1.0" encoding="utf-8"?>
<!-- Generator: Adobe Illustrator 18.1.0, SVG Export Plug-In . SVG Version: 6.00 Build 0)  -->
<svg version="1.0" id="Layer_1" xmlns="http://www.w3.org/2000/svg" xmlns:xlink="http://www.w3.org/1999/xlink" x="0px" y="0px"
	 viewBox="0 0 150 150" enable-background="new 0 0 150 150" xml:space="preserve">
<g>
	<path fill="#F7CD26" d="M142.9,69.4c-0.1-1.9-0.5-3.8-0.8-5.8c-0.2-1.9-0.7-3.8-1.2-5.7c-0.5-1.9-1-3.7-1.7-5.6
		c-0.7-1.8-1.2-3.7-2.1-5.4c-0.9-1.7-1.6-3.5-2.6-5.2l-3-5l-3.5-4.7c-1.2-1.5-2.6-2.9-3.9-4.3c-1.2-1.5-2.8-2.7-4.2-4
		c-1.4-1.4-3-2.5-4.5-3.6c-1.5-1.2-3.1-2.3-4.8-3.2c-1.7-1-3.3-2.1-5-2.8c-1.8-0.8-3.4-1.8-5.3-2.4c-1.8-0.6-3.6-1.4-5.5-2l-5.6-1.4
		c-1.9-0.4-3.8-0.6-5.7-0.9C81.5,7,79.6,7,77.7,6.9c-1.9-0.2-3.9-0.2-5.8,0C69.9,7,68,7,66.1,7.4c-1.9,0.3-3.8,0.5-5.7,0.9l-5.6,1.4
		c-1.8,0.6-3.6,1.3-5.5,2c-1.8,0.6-3.5,1.6-5.3,2.4c-1.8,0.8-3.4,1.8-5,2.8c-1.7,0.9-3.3,2-4.8,3.2c-1.5,1.2-3.1,2.3-4.5,3.6
		c-1.4,1.4-3,2.5-4.2,4c-1.3,1.4-2.7,2.8-3.9,4.3l-3.5,4.7l-3,5c-1,1.6-1.7,3.5-2.6,5.2c-0.9,1.7-1.4,3.6-2.2,5.4
		c-0.7,1.8-1.2,3.7-1.7,5.6c-0.5,1.9-1,3.7-1.2,5.7c-0.2,1.9-0.7,3.8-0.8,5.8l-0.3,5.8L6.7,81c0,1.9,0.5,3.8,0.8,5.7
		c0.2,1.9,0.7,3.8,1.2,5.7c0.5,1.9,1,3.7,1.7,5.5c0.7,1.8,1.2,3.7,2.2,5.4c0.9,1.7,1.6,3.5,2.6,5.2l3,5l3.5,4.7
		c1.2,1.5,2.6,2.9,3.9,4.3c1.2,1.5,2.8,2.7,4.2,4c1.4,1.4,3,2.5,4.5,3.6c1.5,1.2,3.1,2.3,4.8,3.3c1.7,1,3.3,2.1,5,2.8
		c1.8,0.8,3.4,1.8,5.3,2.4c1.8,0.7,3.6,1.4,5.5,2l5.6,1.5c1.9,0.4,3.8,0.6,5.7,0.9c1.9,0.4,3.9,0.3,5.8,0.5c1.9,0.2,3.9,0.2,5.8,0
		c1.9-0.2,3.9-0.1,5.8-0.5c1.9-0.3,3.8-0.5,5.7-0.9l5.6-1.5c1.8-0.6,3.6-1.3,5.5-2c1.8-0.6,3.5-1.6,5.3-2.4c1.8-0.8,3.4-1.8,5-2.8
		c1.7-1,3.3-2.1,4.8-3.3c1.5-1.2,3.1-2.3,4.5-3.6c1.4-1.3,3-2.5,4.2-4c1.3-1.4,2.6-2.8,3.9-4.3l3.5-4.7l3-5c1-1.6,1.7-3.5,2.6-5.2
		c0.9-1.7,1.4-3.6,2.1-5.4c0.7-1.8,1.2-3.7,1.7-5.5c0.5-1.9,1-3.7,1.2-5.7c0.2-1.9,0.7-3.8,0.8-5.7l0.3-5.8L142.9,69.4z M142.8,78.1
		l-2.8,2.4l-2.6-2.7l2.8-2.5L142.8,78.1z M137.4,72.5l2.6-2.7l2.8,2.4l-2.6,2.7L137.4,72.5z M142.3,66.5c-0.8,1-1.5,1.9-2.4,2.9
		c-0.9-0.8-1.9-1.5-3-2.2l2.3-2.9L142.3,66.5z M141.4,60.8c-0.6,1-1.5,2.1-2.2,3.1c-1-0.7-2-1.4-3.1-2l2-3L141.4,60.8z M140,55.2
		l-1.9,3.3l-3.2-1.7c0.6-1,1.2-2.1,1.7-3.2C137.7,54,138.9,54.6,140,55.2z M138,49.7l-1.6,3.4l-3.4-1.4c0.6-1.1,1.1-2.2,1.5-3.4
		C135.7,48.8,136.9,49.2,138,49.7z M135.6,44.5l-1.3,3.5l-3.5-1.1c0.4-1.1,0.9-2.3,1.2-3.5C133.3,43.7,134.4,44.1,135.6,44.5z
		 M132.8,39.4l-0.9,3.6l-3.6-0.8l1-3.6L132.8,39.4z M129.5,34.6l-0.6,3.7l-3.7-0.5l0.6-3.7L129.5,34.6z M125.9,30.2
		c-0.1,1.2-0.1,2.4-0.3,3.7c-1.2-0.1-2.5-0.1-3.7-0.1l0.3-3.7L125.9,30.2z M121.9,26c0.1,1.2,0.1,2.5,0,3.8c-1.2,0-2.4,0-3.7,0.1
		l-0.1-3.7L121.9,26z M117.6,22.1c0.2,1.2,0.2,2.5,0.3,3.8c-1.2,0.1-2.4,0.2-3.6,0.4l-0.4-3.6L117.6,22.1z M113,18.7l0.6,3.8
		l-3.6,0.7l-0.7-3.6L113,18.7z M108,15.6l0.9,3.7l-3.5,1c-0.2-1.2-0.6-2.3-1-3.5C105.6,16.4,106.8,15.9,108,15.6z M102.8,13.1
		l1.2,3.6l-3.4,1.3c-0.4-1.2-0.8-2.4-1.2-3.5C100.5,13.9,101.7,13.5,102.8,13.1z M97.5,10.9l1.5,3.4L95.7,16c-0.5-1.1-1-2.3-1.5-3.4
		L97.5,10.9z M91.9,9.2l1.8,3.2l-3.2,2l-1.8-3.2L91.9,9.2z M86.3,8c0.7,1,1.4,2,2.1,3.1c-1,0.7-2,1.5-3,2.2l-2.1-3L86.3,8z
		 M80.5,7.3c0.8,0.9,1.6,1.9,2.3,2.9c-1,0.7-1.9,1.5-2.8,2.4l-2.4-2.8L80.5,7.3z M74.8,7l2.6,2.8l-2.6,2.6l-2.6-2.6L74.8,7z M69,7.3
		l2.8,2.6l-2.3,2.8c-0.9-0.9-1.8-1.7-2.8-2.4C67.4,9.2,68.2,8.2,69,7.3z M63.2,8l3,2.3l-2.1,3c-1-0.7-2-1.6-3-2.2
		C61.8,10,62.5,9,63.2,8z M57.6,9.2l3.2,2L59,14.4l-3.2-2L57.6,9.2z M52.1,10.9l3.3,1.6c-0.6,1.2-1,2.3-1.5,3.4l-3.3-1.7L52.1,10.9z
		 M46.7,13.1c1.2,0.4,2.3,0.8,3.5,1.4c-0.5,1.1-0.9,2.3-1.2,3.5l-3.4-1.3L46.7,13.1z M41.5,15.6c1.2,0.3,2.4,0.8,3.6,1.2
		c-0.4,1.2-0.7,2.3-1,3.5l-3.5-1L41.5,15.6z M36.6,18.7l3.7,0.9l-0.7,3.6L36,22.4L36.6,18.7z M31.9,22.1l3.8,0.5l-0.4,3.6
		c-1.3-0.2-2.4-0.3-3.6-0.4C31.8,24.7,31.8,23.3,31.9,22.1z M27.6,26l3.8,0.2l-0.1,3.7c-1.2-0.1-2.5-0.2-3.7-0.1
		C27.6,28.4,27.6,27.2,27.6,26z M27.4,30l0.3,3.7c-1.2,0-2.5,0-3.7,0.1c-0.2-1.3-0.2-2.4-0.3-3.7L27.4,30z M23.7,34.2l0.6,3.7
		l-3.7,0.5L20,34.6L23.7,34.2z M20.4,38.7l1,3.6L17.7,43l-0.9-3.6L20.4,38.7z M17.5,43.4c0.3,1.2,0.8,2.4,1.2,3.5L15.2,48l-1.3-3.5
		C15.1,44.1,16.2,43.7,17.5,43.4z M15,48.4c0.4,1.1,0.9,2.2,1.5,3.4l-3.4,1.4l-1.6-3.4C12.6,49.2,13.8,48.8,15,48.4z M13,53.5
		c0.6,1.1,1.1,2.2,1.7,3.2l-3.2,1.7l-1.9-3.3C10.7,54.6,11.9,54,13,53.5z M11.4,58.9l2,3c-1.1,0.6-2,1.3-3.1,2c-0.7-1-1.6-2-2.2-3.1
		L11.4,58.9z M10.3,64.3l2.3,2.9c-1,0.7-2.1,1.4-3,2.2c-0.9-0.9-1.6-1.9-2.4-2.9L10.3,64.3z M12.1,72.5L9.3,75l-2.6-2.7l2.8-2.4
		L12.1,72.5z M12.1,77.8l-2.6,2.7l-2.8-2.4l2.6-2.7L12.1,77.8z M7.2,83.8c0.8-1,1.5-2,2.4-2.9c0.9,0.8,1.9,1.5,3,2.2L10.3,86
		L7.2,83.8z M8.1,89.5c0.6-1,1.5-2.1,2.2-3.1c1,0.7,2,1.4,3.1,2l-2,3.1L8.1,89.5z M9.6,95.1l1.9-3.3l3.2,1.7
		c-0.6,1.1-1.2,2.1-1.7,3.2C11.9,96.2,10.7,95.7,9.6,95.1z M11.5,100.6l1.6-3.4l3.4,1.4c-0.6,1.1-1.1,2.2-1.5,3.4
		C13.8,101.5,12.6,101.1,11.5,100.6z M13.9,105.8l1.3-3.5l3.5,1.1c-0.4,1.1-0.9,2.3-1.2,3.5C16.2,106.6,15.1,106.2,13.9,105.8z
		 M16.8,110.9l0.9-3.6l3.6,0.8l-1,3.6L16.8,110.9z M20,115.7l0.6-3.7l3.7,0.5l-0.6,3.6L20,115.7z M23.6,120.1
		c0.1-1.2,0.1-2.4,0.3-3.7c1.2,0.1,2.5,0.1,3.7,0.1l-0.3,3.7L23.6,120.1z M27.6,124.3c-0.1-1.2-0.1-2.5,0-3.7c1.2,0,2.4,0,3.7-0.1
		l0.1,3.7L27.6,124.3z M31.9,128.2c-0.2-1.2-0.2-2.5-0.2-3.8c1.3-0.1,2.4-0.2,3.6-0.4l0.4,3.6L31.9,128.2z M36.6,131.7l-0.6-3.8
		l3.6-0.7l0.7,3.6L36.6,131.7z M41.5,134.7l-0.9-3.7l3.5-1c0.2,1.2,0.6,2.4,1,3.5C43.9,133.9,42.7,134.4,41.5,134.7z M46.7,137.2
		l-1.2-3.5l3.4-1.3c0.4,1.2,0.8,2.4,1.2,3.5C49,136.4,47.9,136.8,46.7,137.2z M52.1,139.4l-1.5-3.4l3.3-1.7c0.5,1.1,1,2.3,1.5,3.4
		L52.1,139.4z M57.6,141.1l-1.8-3.2l3.2-2l1.8,3.3L57.6,141.1z M63.2,142.3c-0.7-1-1.4-2-2.1-3.1c1-0.7,2-1.5,3-2.2l2.1,3
		L63.2,142.3z M69,143c-0.8-0.9-1.6-1.9-2.3-3c1-0.7,1.9-1.5,2.8-2.4l2.3,2.8L69,143z M74.8,143.3l-2.6-2.8l2.6-2.6l2.6,2.6
		L74.8,143.3z M80.5,143l-2.8-2.6l2.4-2.8c0.9,0.9,1.8,1.7,2.8,2.4C82.1,141.1,81.4,142.1,80.5,143z M86.3,142.3l-3-2.3l2.1-3
		c1,0.7,2,1.6,3,2.2C87.7,140.3,87,141.3,86.3,142.3z M91.9,141.1l-3.2-2l1.8-3.3l3.2,2L91.9,141.1z M97.5,139.4l-3.3-1.6
		c0.6-1.2,1.1-2.3,1.5-3.4L99,136L97.5,139.4z M102.8,137.2c-1.2-0.4-2.3-0.8-3.5-1.4c0.5-1.1,0.9-2.3,1.2-3.5l3.4,1.3L102.8,137.2z
		 M108,134.7c-1.2-0.3-2.4-0.7-3.6-1.2c0.4-1.2,0.7-2.3,1-3.5l3.5,1L108,134.7z M113,131.7l-3.7-0.9l0.7-3.6l3.6,0.7L113,131.7z
		 M117.6,128.2l-3.8-0.6l0.4-3.6c1.3,0.2,2.4,0.3,3.6,0.4C117.8,125.6,117.8,127,117.6,128.2z M121.9,124.3l-3.8-0.2l0.1-3.7
		c1.2,0.1,2.5,0.2,3.7,0.1C122,121.9,122,123.1,121.9,124.3z M122.2,120.3l-0.3-3.7c1.2,0,2.5,0,3.7-0.1c0.2,1.3,0.2,2.4,0.3,3.7
		L122.2,120.3z M125.8,116.1l-0.6-3.6l3.7-0.5l0.6,3.7L125.8,116.1z M129.1,111.7l-1-3.6l3.6-0.8l0.9,3.6L129.1,111.7z M132,106.9
		c-0.3-1.2-0.8-2.4-1.2-3.5l3.5-1.1l1.3,3.5C134.4,106.2,133.3,106.6,132,106.9z M134.5,101.9c-0.4-1.1-0.9-2.2-1.5-3.4l3.4-1.4
		l1.6,3.4C136.9,101.1,135.7,101.5,134.5,101.9z M136.5,96.8c-0.6-1.1-1.1-2.2-1.7-3.2l3.2-1.7l1.9,3.3
		C138.9,95.7,137.7,96.2,136.5,96.8z M138.1,91.4l-2-3.1c1.1-0.6,2-1.3,3.1-2c0.7,1,1.6,2,2.2,3.1L138.1,91.4z M139.3,86l-2.3-2.9
		c1-0.7,2.1-1.4,3-2.2c0.9,0.9,1.6,1.9,2.4,2.9L139.3,86z M136.4,85.7c-0.2,1.8-0.7,3.5-1.1,5.2c-0.4,1.7-0.9,3.4-1.5,5.1
		c-0.7,1.6-1.1,3.4-2,4.9c-0.8,1.6-1.5,3.2-2.4,4.8l-2.8,4.5l-3.2,4.2c-1.1,1.4-2.4,2.6-3.5,4c-1.1,1.4-2.6,2.4-3.9,3.6
		c-1.3,1.2-2.7,2.3-4.1,3.3c-1.4,1.1-2.8,2.1-4.4,3c-1.5,0.9-3,1.9-4.6,2.6c-1.6,0.7-3.1,1.6-4.8,2.2c-1.7,0.6-3.3,1.2-5,1.8
		l-5.1,1.3c-1.7,0.4-3.5,0.6-5.2,0.9c-1.7,0.4-3.5,0.3-5.3,0.4c-1.8,0.1-3.5,0.1-5.3,0c-1.8-0.1-3.6,0-5.3-0.4
		c-1.7-0.3-3.5-0.5-5.2-0.9l-5.1-1.3c-1.7-0.6-3.3-1.2-5-1.8c-1.7-0.6-3.2-1.5-4.8-2.2c-1.6-0.7-3.1-1.7-4.6-2.6
		c-1.5-0.9-3-1.9-4.4-3c-1.4-1.1-2.9-2.1-4.1-3.3c-1.3-1.2-2.7-2.3-3.9-3.6c-1.2-1.4-2.4-2.6-3.5-4l-3.2-4.2l-2.8-4.5
		c-0.9-1.5-1.6-3.2-2.4-4.8c-0.8-1.6-1.3-3.3-2-4.9c-0.7-1.6-1.1-3.4-1.5-5.1c-0.4-1.7-0.9-3.4-1.1-5.2c-0.2-1.8-0.7-3.5-0.7-5.3
		l-0.3-5.3l0.3-5.3c0-1.8,0.5-3.5,0.7-5.3c0.2-1.8,0.7-3.5,1.1-5.2c0.4-1.7,0.9-3.4,1.5-5.1c0.7-1.7,1.1-3.4,2-4.9
		c0.8-1.6,1.5-3.2,2.4-4.8l2.8-4.5l3.2-4.2c1.1-1.4,2.4-2.6,3.5-4c1.1-1.4,2.6-2.4,3.9-3.7c1.3-1.2,2.7-2.3,4.1-3.3
		c1.4-1.1,2.8-2.1,4.4-3c1.5-0.9,3-1.9,4.6-2.6c1.6-0.7,3.1-1.6,4.8-2.2c1.7-0.6,3.3-1.2,5-1.8l5.1-1.3c1.7-0.4,3.5-0.6,5.2-0.9
		c1.7-0.4,3.5-0.3,5.3-0.4c1.8-0.1,3.5-0.1,5.3,0c1.8,0.1,3.6,0.1,5.3,0.4c1.7,0.3,3.5,0.5,5.2,0.9l5.1,1.3c1.7,0.6,3.3,1.2,5,1.8
		c1.7,0.6,3.2,1.5,4.8,2.2c1.6,0.7,3.1,1.7,4.6,2.6c1.5,0.9,3,1.9,4.4,3c1.4,1.1,2.9,2.1,4.1,3.3c1.3,1.2,2.7,2.3,3.9,3.7
		c1.2,1.3,2.4,2.6,3.5,4l3.2,4.2l2.8,4.5c0.9,1.5,1.6,3.2,2.4,4.8c0.8,1.6,1.3,3.3,2,4.9c0.7,1.6,1.1,3.4,1.5,5.1
		c0.4,1.7,0.9,3.4,1.1,5.2c0.2,1.8,0.7,3.5,0.7,5.3l0.3,5.3l-0.3,5.3C137,82.2,136.6,84,136.4,85.7z"/>
	<g>
		<path fill="#F7CD26" d="M26.9,96.6c1.3-0.9,3.1-1.9,5.2-2.9c2.1-0.9,4.6-1.7,7.3-2.3c2.8-0.5,5.8-1,9-1.1c0.4,0,0.8-0.1,1.3,0
			c0.4,0,0.8,0,1.2,0c0.8,0,1.6,0,2.5,0c1.7,0.1,3.5,0.2,5.2,0.5c7,0.9,14.2,3.3,21.2,5.6c3.5,1.2,7,2.4,10.5,3.4
			c3.5,1.1,6.9,1.9,10.3,2.6c3.4,0.6,6.7,1.1,9.8,1.3c3.2,0.2,6.2,0.5,8.9,0.5c1.7,0.1,3.2,0,4.7,0c2.1-3.6,3.9-7.4,5.2-11.5
			c-0.8,0.1-1.5,0.3-2.4,0.3c-1.1,0.1-2.3,0.2-3.6,0.3c-1.3,0.1-2.6,0.1-4,0.1c-2.8,0.1-5.8-0.1-9-0.2c-3.2-0.1-6.6-0.5-10-1.1
			c-3.4-0.7-7-1.5-10.5-2.5c-3.5-1-7.1-2.2-10.6-3.3c-3.5-1.2-7-2.4-10.5-3.4c-3.3-1-6.6-1.8-9.9-2.3c-3.9,1.6-7.7,0.8-7.7,0.8
			c0-0.6,0.2-1,0.3-1.6c-0.2,0-0.4,0-0.6,0c-0.8,0-1.6-0.1-2.4,0c-3.2,0-6.1,0.3-8.9,0.8c-2.7,0.5-5.2,1.1-7.3,1.9
			c-2.1,0.8-3.8,1.7-5.2,2.6c-1.4,0.9-2.3,1.7-3,2.3c-0.6,0.6-0.9,1-0.9,1s0.3-0.4,0.9-1c0.6-0.6,1.5-1.5,2.9-2.4
			c1.3-0.9,3.1-1.9,5.2-2.8c2.1-0.9,4.6-1.6,7.3-2.1c2.7-0.5,5.8-0.9,9-1c0.8-0.1,1.6,0,2.4,0c0.2,0,0.5,0,0.7,0
			c2.2-11.8,13.3-9.9,13.3-9.9C63.3,72,61,73.6,61,73.6c3.4,0.2,5.5-3.6,5.5-3.6c-1,5.4-3.4,8.4-6,10c2.8,0.5,5.7,1.2,8.5,2
			c3.5,1,7,2.2,10.6,3.3c0.1,0,0.3,0.1,0.4,0.1c0-1,0-18.2,9.9-34c0.2-0.3,0.5-0.3,0.8-0.2c0.3,0.2,0.3,0.5,0.2,0.8
			c-10,16-9.8,33.4-9.8,33.5c0,0.1-0.1,0.1-0.2,0.2c3.1,1,6.1,2.1,9.2,3c3.5,1.1,7,1.9,10.3,2.6c3.4,0.6,6.7,1.1,9.9,1.2
			c3.2,0.2,6.2,0.4,9,0.4c1.4,0,2.7,0.1,4,0c1.3-0.1,2.5-0.1,3.6-0.2c0.9,0,1.7-0.2,2.5-0.3c1.7-5.5,2.7-11.2,2.7-17.2
			C132,43.6,106.4,18,74.9,18c-31.5,0-57.1,25.6-57.1,57.1c0,8.9,2.1,17.2,5.7,24.7c0.1-0.2,0.3-0.4,0.6-0.7
			C24.6,98.5,25.5,97.6,26.9,96.6z M91.2,80.2c-1.6-2.1-2.1-4.4-2.1-4.4c-1.3,2.5,0.9,5.4,0.9,5.4c-9.9-6.7-3.5-15.4-3.5-15.4
			C97.4,71.3,91.2,80.2,91.2,80.2z M96.6,73.4c-5.4-6.9,1-11.6,1-11.6c6.3,6.4,0,11.2,0,11.2c-0.6-1.9-0.4-3.6-0.4-3.6
			C95.8,70.9,96.6,73.4,96.6,73.4z M110,91.8c-14.9,0.6-13.7-12.5-13.7-12.5c3,1.3,4.8,3.5,4.8,3.5c-0.2-3.4-4.1-5.2-4.1-5.2
			C111.6,78.7,110,91.8,110,91.8z M117.4,59.2c-1.1,13.5-12.8,11-12.8,11c1.5-2.5,3.7-4,3.7-4c-3.1-0.2-5.1,3.2-5.1,3.2
			C105.8,56.4,117.4,59.2,117.4,59.2z M110.3,76.2c-5.4,4.7-8.9-0.6-8.9-0.6c1.5-0.4,2.9-0.1,2.9-0.1c-1.1-1.2-3.1-0.7-3.1-0.7
			C106.9,70.9,110.3,76.2,110.3,76.2z M100.9,53.6C95.5,58.3,92,53,92,53c1.5-0.4,2.9-0.1,2.9-0.1c-1.1-1.2-3.1-0.7-3.1-0.7
			C97.5,48.2,100.9,53.6,100.9,53.6z M94.7,30.6c9,12.1-2.6,18.6-2.6,18.6c-0.6-3.2,0.1-6.1,0.1-6.1c-2.7,2.1-1.9,6.4-1.9,6.4
			C82.9,36.8,94.7,30.6,94.7,30.6z M80.9,40.1c10.9,5.6,4.7,14.5,4.7,14.5c-1.6-2.1-2.1-4.4-2.1-4.4c-1.2,2.5,0.9,5.4,0.9,5.4
			C74.5,48.8,80.9,40.1,80.9,40.1z M74.8,63.4c7,1.5,4.9,7.4,4.9,7.4c-1.2-1-1.9-2.2-1.9-2.2c-0.3,1.6,1.3,2.9,1.3,2.9
			C72.6,69.3,74.8,63.4,74.8,63.4z M71.9,56.1c3.4,6.3-2.5,8.5-2.5,8.5c-0.1-1.6,0.5-2.8,0.5-2.8c-1.4,0.8-1.3,2.9-1.3,2.9
			C65.9,58.2,71.9,56.1,71.9,56.1z M52.6,40.1c19.3,5,12.7,21.3,12.7,21.3c-3.3-2.8-4.9-6.3-4.9-6.3c-1.1,4.4,3.3,8.2,3.3,8.2
			C45.6,56.2,52.6,40.1,52.6,40.1z M57.3,65.8c-3.1,0.8-6,0.2-6,0.2c2.2,2.6,6.4,1.6,6.4,1.6c-12.2,8-19-3.3-19-3.3
			C50.3,54.7,57.3,65.8,57.3,65.8z"/>
		<path fill="#BEBEB4" d="M110.2,105.5c-3.2-0.1-6.6-0.5-10.1-1c-3.5-0.6-7-1.4-10.5-2.5c-3.5-1-7.1-2.2-10.6-3.4
			c-3.5-1.2-7-2.4-10.5-3.4c-3.5-1-6.9-1.9-10.3-2.4c-1.7-0.3-3.3-0.4-5-0.6c-0.8-0.1-1.7-0.1-2.5-0.1c-0.4,0-0.8,0-1.2,0
			c-0.3,0-0.8,0-1.2,0c-3.2,0-6.1,0.3-8.8,0.7c-2.7,0.5-5.2,1-7.3,1.8c-2.1,0.8-3.9,1.6-5.2,2.4c-1.4,0.8-2.4,1.6-3,2.2
			c-0.3,0.3-0.5,0.5-0.6,0.6c9.2,19.1,28.7,32.4,51.4,32.4c20.4,0,38.2-10.7,48.3-26.8c-1.3,0.1-2.6,0.1-4,0.2
			C116.4,105.8,113.4,105.6,110.2,105.5z"/>
	</g>
</g>
</svg>
