<?xml version="1.0" encoding="utf-8"?>
<!-- Generator: Adobe Illustrator 18.1.0, SVG Export Plug-In . SVG Version: 6.00 Build 0)  -->
<svg version="1.1" id="Layer_1" xmlns="http://www.w3.org/2000/svg" xmlns:xlink="http://www.w3.org/1999/xlink" x="0px" y="0px"
	 viewBox="0 0 150 150" enable-background="new 0 0 150 150" xml:space="preserve">
<g>
	<g>
		<path fill="#3356FF" d="M6.2,75.6c0,24.5,12.8,46,32,58.3V17.4C19,29.7,6.2,51.1,6.2,75.6z"/>
		<path fill="#3356FF" d="M144.5,75.6c0-24.8-13.2-46.6-32.8-58.8v117.5C131.4,122.2,144.5,100.5,144.5,75.6z"/>
		<path fill="#231F20" d="M51.2,144.8c-2.7,0-4.8-3.3-4.8-7.3V13.8c0-4,2.2-7.3,4.8-7.3c2.7,0,4.9,3.3,4.9,7.3v123.7
			C56,141.5,53.9,144.8,51.2,144.8z M105.4,137.5c0,4.1-2.2,7.3-4.9,7.3c-2.7,0-4.8-3.3-4.8-7.3V13.8c0-4,2.1-7.3,4.8-7.3
			c2.7,0,4.9,3.3,4.9,7.3V137.5z"/>
		<path fill="#515254" d="M56,13.8c0-4-2.2-7.3-4.9-7.3c-2.7,0-4.8,3.3-4.8,7.3v123.7c0,4.1,2.2,7.3,4.8,7.3c2.7,0,4.9-3.3,4.9-7.3
			V13.8z"/>
		<path fill="#7A7C7F" d="M105.4,13.8c0-4-2.2-7.3-4.9-7.3c-2.7,0-4.8,3.3-4.8,7.3v123.7c0,4.1,2.1,7.3,4.8,7.3
			c2.7,0,4.9-3.3,4.9-7.3V13.8z"/>
	</g>
	<g>
		<path fill="#3356FF" d="M82.9,35.7c0,2.2-0.8,4.1-2.4,5.5c-1.6,1.4-3.3,2.2-5.3,2.2c-1.9,0-3.7-0.7-5.3-2.2
			c-1.6-1.4-2.4-3.3-2.4-5.5s0.8-4.1,2.4-5.5c1.6-1.4,3.4-2.2,5.3-2.2c1.9,0,3.7,0.7,5.3,2.2C82.1,31.6,82.9,33.4,82.9,35.7z
			 M80.5,139.1H69.9V64.4h10.5V139.1z"/>
	</g>
</g>
</svg>
