<?xml version="1.0" encoding="iso-8859-1"?>
<!-- Generator: Adobe Illustrator 13.0.0, SVG Export Plug-In . SVG Version: 6.00 Build 14948)  -->
<!DOCTYPE svg PUBLIC "-//W3C//DTD SVG 1.1//EN" "http://www.w3.org/Graphics/SVG/1.1/DTD/svg11.dtd">
<svg version="1.1" id="Layer_1" xmlns="http://www.w3.org/2000/svg" xmlns:xlink="http://www.w3.org/1999/xlink" x="0px" y="0px"
	 width="100px" height="100px" viewBox="0 0 100 100" enable-background="new 0 0 100 100" xml:space="preserve">
<g>
	<path fill="none" d="M68.656,40.419l-0.009-13.93h-7.85l-9.726-9.732l-9.716,9.715l-7.543,0.184l-0.152,14.56L23.162,51.724
		l10.519,10.511L33.676,75.38h6.876l9.941,9.936l12.068-9.936h6.095V61.574l9.872-11.283L68.656,40.419z M61.138,30.552
		l-1.115,1.142h0.097v42.128l0.034,0.034h0.041l-0.02,0.02l0.02,0.019h-0.041l-8.866,7.307l-8.869-7.307h-0.042l0.019-0.019h-0.119
		V31.983l-1.398-1.431l-1.203-1.231l1.203-1.269l4.413-4.516l4.455-4.559l1.26-1.29l1.263,1.29l4.455,4.554l4.413,4.521l1.203,1.231
		L61.138,30.552z"/>
	<path fill="#9E2529" d="M74.959,37.795V20.188H63.42L51.072,7.833L38.705,20.2l-11.129,0.228l-0.035,3.081L27.385,38.57
		L14.239,51.715l13.13,13.146l0.007,16.824h10.557l12.139,12.147l14.749-12.147h10.138V63.944l12.21-13.949L74.959,37.795z
		 M68.656,61.574V75.38h-6.095l-12.068,9.936l-9.941-9.936h-6.876l0.005-13.146L23.162,51.724l10.499-10.507l0.152-14.56
		l7.543-0.184l9.716-9.715l9.726,9.732h7.85l0.009,13.93l9.872,9.873L68.656,61.574z"/>
	<polygon fill="#5A6066" points="52.27,39.624 51.007,40.911 49.747,39.624 45.292,35.068 42.277,31.983 42.277,73.876 
		42.396,73.876 42.377,73.895 42.418,73.895 51.287,81.201 60.153,73.895 60.194,73.895 60.175,73.876 60.194,73.856 60.153,73.856 
		60.119,73.822 60.119,31.694 60.022,31.694 56.725,35.065 	"/>
	<polygon fill="#9E2529" points="59.917,29.319 59.897,29.301 59.917,29.282 59.876,29.282 55.463,24.766 51.01,20.212 
		46.553,24.766 42.141,29.282 42.1,29.282 42.119,29.301 42.1,29.319 42.141,29.319 46.553,33.835 51.01,38.389 55.463,33.835 
		59.876,29.319 	"/>
</g>
</svg>
