<?xml version="1.0" encoding="utf-8"?>
<!-- Generator: Adobe Illustrator 18.1.0, SVG Export Plug-In . SVG Version: 6.00 Build 0)  -->
<svg version="1.1" id="Layer_1" xmlns="http://www.w3.org/2000/svg" xmlns:xlink="http://www.w3.org/1999/xlink" x="0px" y="0px"
	 viewBox="0 0 150 150" enable-background="new 0 0 150 150" xml:space="preserve">
<g>
	<path fill="none" d="M70.8,33c9.2-3.2,15.6-8.7,14.4-12.2c-1.2-3.6-9.7-3.9-18.9-0.7c-9.2,3.2-15.6,8.7-14.4,12.2
		C53.2,35.9,61.6,36.2,70.8,33z"/>
	<path fill="#B3B2B3" d="M60.7,134.5c-0.5,0.2-0.8,0.4-0.8,0.6c0,1.3,10.3,2.4,23,2.4c12.7,0,23-1.1,23-2.4s-10.3-2.4-23-2.4
		c-0.4,0-0.7,0-1.1,0C76.5,137.3,67.1,137.9,60.7,134.5z"/>
	<path fill="#FBAD18" d="M47.7,85.1c-0.4-1-0.6-1.9-0.4-2.9c-1.3-0.8-2.7-1.3-4-1.4l-23.2-1.1c-0.1,0.3-0.1,0.6-0.1,0.9
		c0,2.9,2.4,5.2,5.3,5.2h13.2l-13.8,1.6c0,0.3,0,0.6,0,0.8c0.4,2.3,2.5,3.8,4.8,3.5l7.5-1.2l-5.3,2.4c0.1,0.2,0.1,0.4,0.2,0.6
		c0.9,1.7,2.9,2.3,4.6,1.5l4.2-2.2l-2.5,3.1c0.1,0.2,0.3,0.3,0.5,0.4c1.5,1.1,3.6,0.7,4.7-0.8l3-4.2c0.5,0.4,1.1,0.8,1.6,1.1
		c-0.1-1.4-0.2-2.8-0.3-4.4C47.9,87.2,47.8,86.2,47.7,85.1z"/>
	<path fill="#FBAD18" d="M119.7,80.8c0-0.3,0-0.7-0.1-1l-23.2,1.1c-1.3,0-2.6,0.5-4,1.4c0.1,0.8,0,1.6-0.3,2.5
		C92.1,86,92,87.1,92,88.2c-0.1,1.5-0.2,3-0.3,4.3c0.5-0.3,1-0.6,1.5-1l3,4.2c1.1,1.5,3.2,1.9,4.7,0.8c0.2-0.1,0.3-0.3,0.5-0.4
		L99,93l4.2,2.2c1.7,0.8,3.7,0.2,4.6-1.5c0.1-0.2,0.2-0.4,0.2-0.6l-5.3-2.4l7.5,1.2c2.3,0.4,4.4-1.2,4.8-3.4c0-0.3,0.1-0.6,0-0.9
		L101.2,86h13.2C117.3,86,119.7,83.7,119.7,80.8z"/>
	<path fill="#FBAD18" d="M72.7,38.7c12.2-4.2,20.4-12.4,18.4-18.3c-2-5.9-13.6-7.2-25.7-3C53.2,21.7,45,29.9,47,35.7
		C49,41.6,60.6,42.9,72.7,38.7z M66.3,20.1c9.2-3.2,17.6-2.9,18.9,0.7c1.2,3.6-5.2,9.1-14.4,12.2c-9.2,3.2-17.6,2.9-18.9-0.7
		C50.7,28.8,57.1,23.3,66.3,20.1z"/>
	<path fill="#FBAD18" d="M64.8,48.2c-1.4,0.8-2.8,1.9-4.1,3.2c0.9,0.3,2,0.6,3.1,0.9C64.1,50.8,64.5,49.4,64.8,48.2z"/>
	<path fill="#FBAD18" d="M63.3,55.5c-1.8-0.4-3.4-0.9-4.9-1.5c-1.2,1.5-2.3,3.3-3.3,5.3c1.2,1.2,3.7,2.4,7.4,3.2
		C62.7,60.2,62.9,57.8,63.3,55.5z"/>
	<path fill="#FBAD18" d="M69.9,105H70c0.8-6,1.8-10.4,3-15c-1,0.1-2,0-3,0.1c-1,0-2,0.1-3,0C68.1,94.6,69.1,99,69.9,105z"/>
	<path fill="#FBAD18" d="M62,73.4c0-2,0.1-4.6,0.2-7.6c-2.4-0.5-4.6-1.2-6.4-2.1c1.6,2.7,3.2,5.8,4.7,9.2C61,73.1,61.5,73.3,62,73.4
		z"/>
	<path fill="#FBAD18" d="M76,52.2c1.2-0.3,2.2-0.5,3.1-0.9c-1.3-1.3-2.7-2.4-4.2-3.2C75.4,49.4,75.8,50.8,76,52.2z"/>
	<path fill="#FBAD18" d="M74.3,66.4c-1.4,0.2-2.9,0.3-4.4,0.3c-1.5,0-2.9-0.1-4.4-0.3c-0.1,2.4-0.2,4.9-0.2,7.8
		c2.6,0.7,7.6,0.6,9.1,0C74.5,71.3,74.4,68.7,74.3,66.4z"/>
	<path fill="#FBAD18" d="M81.5,54c-1.4,0.6-3.1,1.1-4.9,1.5c0.3,2.3,0.6,4.7,0.8,7c3.6-0.8,6.2-2,7.4-3.2
		C83.8,57.3,82.7,55.6,81.5,54z"/>
	<path fill="#FBAD18" d="M74.1,87.1c0.2-2.9,0.4-6.1,0.4-9.6c-1.5,0.2-3,0.3-4.5,0.3c-1.5,0-3.1-0.1-4.5-0.3
		c0.1,3.5,0.2,6.7,0.4,9.6c0,0.1,0.1,0.3,0.1,0.4c1.8,0.5,6.1,0.4,8,0C74,87.4,74,87.3,74.1,87.1z"/>
	<path fill="#FBAD18" d="M65.8,63.1c1.6,0.5,7,0.5,8.3,0c-0.2-2.7-0.5-5-0.8-7.1c-1.3,0.4-5.2,0.4-6.7,0
		C66.3,58.1,66,60.4,65.8,63.1z"/>
	<path fill="#FBAD18" d="M70.9,46.8c-0.3,0-1.7,0-2,0c-0.6,1.4-1.2,3.3-1.8,6c1.4,0.3,4.5,0.3,5.6,0C72.2,50.1,71.5,48.1,70.9,46.8z
		"/>
	<path fill="#FBAD18" d="M79.3,72.9c1.5-3.4,3.1-6.4,4.7-9.2c-1.8,0.9-4,1.6-6.4,2.1c0.2,3,0.2,5.6,0.2,7.6
		C78.4,73.3,78.9,73.1,79.3,72.9z"/>
	<path fill="#5EA62F" d="M92.2,84.8c1-12.5,2.9-28.7,6.7-37.3c-2.6,2.4-6.4,6.3-10.4,12.1c-0.4,0.6-0.9,1.3-1.3,1.9
		c-0.3,0.4-0.5,0.8-0.8,1.2c-0.5,0.8-1,1.6-1.5,2.5c-1.1,2-2.3,4.2-3.4,6.7c-0.7,1.4-1.3,2.9-2,4.5c-0.6,1.5-1.2,3-1.8,4.6
		c-0.7,2-1.4,4-2,6.2c-0.3,1.2-0.7,2.3-1,3.6c-1.7,6.2-3,13.3-3.9,21.2c-0.3,2.6-0.7,5.4-0.9,8.2c-0.2-2.8-0.6-5.6-0.9-8.2
		c-0.9-7.9-2.2-15-3.9-21.2c-0.3-1.2-0.7-2.4-1-3.6c-0.6-2.2-1.3-4.2-2-6.2c-0.6-1.6-1.2-3.2-1.8-4.6c-0.6-1.6-1.3-3.1-2-4.5
		c-1.1-2.4-2.3-4.7-3.4-6.7c-0.5-0.9-1-1.7-1.5-2.5c-0.3-0.4-0.5-0.8-0.8-1.2c-0.4-0.7-0.9-1.3-1.3-1.9c-4-5.8-7.7-9.7-10.4-12.1
		c3.8,8.6,5.8,25.1,6.7,37.6c0.1,1.1,0.2,2.1,0.2,3.1c0.1,1.6,0.2,3,0.3,4.4c0.3,5,0.4,8.4,0.4,8.9c0.7,10.3,2.4,17.9,4.7,23.5
		c0.6,1.5,2.1,4.5,2.1,4.5c1.2,2.1,3.1,3.8,5.3,5c6.4,3.4,15.8,2.8,21.1-1.8c1.1-0.9,2-2,2.7-3.2c0,0,1.5-3,2.1-4.5
		c2.3-5.6,4-13.2,4.7-23.5c0-0.5,0.1-4,0.4-9c0.1-1.3,0.2-2.8,0.3-4.3C92,87.1,92.1,86,92.2,84.8z"/>
</g>
</svg>
