<?xml version="1.0" encoding="utf-8"?>
<!-- Generator: Adobe Illustrator 18.1.0, SVG Export Plug-In . SVG Version: 6.00 Build 0)  -->
<svg version="1.1" id="Layer_1" xmlns="http://www.w3.org/2000/svg" xmlns:xlink="http://www.w3.org/1999/xlink" x="0px" y="0px"
	 viewBox="0 0 150 150" enable-background="new 0 0 150 150" xml:space="preserve">
<g>
	<path fill="#3BB88B" d="M31.6,56.9l42.2-24.4l42.2,24.4V91c5.7,5.5,11.6,11.1,17.4,16.7V46.9L73.9,12.5L14.3,46.9v54.9l17.4-17
		V56.9z"/>
	<path fill="#3D4449" d="M50.2,119.7c30.7-7.8,63.5-12.8,90.2-0.2c-31.2-29.8-70.1-67.4-70.1-67.4L7.4,113.8
		C7.4,113.8,19.5,127.5,50.2,119.7z M70.7,81.6v7.2h-8.1v-7.2v-0.5h8.1V81.6z M70.7,72.3v7.3h-8.1v-7.3v-0.5h8.1V72.3z M80.8,81.6
		v7.2h-8.1v-7.2v-0.5h8.1V81.6z M80.8,72.3v7.3h-8.1v-7.3v-0.5h8.1V72.3z"/>
	<path fill="#0092C1" d="M77.1,128.3c30.6-11.4,55.3,0.2,70.7,7.6c-40.4-37.4-76.3-12-103-8.7c-26.3,3.2-41.4-8.8-41.8-9.1L3,118.1
		c0,0,0,0.1,0.1,0.1C33.7,149.2,62.4,134.3,77.1,128.3z"/>
</g>
</svg>
