<?xml version="1.0" encoding="utf-8"?>
<!-- Generator: Adobe Illustrator 18.1.0, SVG Export Plug-In . SVG Version: 6.00 Build 0)  -->
<svg version="1.1" id="Layer_1" xmlns="http://www.w3.org/2000/svg" xmlns:xlink="http://www.w3.org/1999/xlink" x="0px" y="0px"
	 viewBox="0 0 150 150" enable-background="new 0 0 150 150" xml:space="preserve">
<g>
	<circle fill="none" cx="81.5" cy="48" r="10.4"/>
	<polygon fill="none" points="53.8,126.3 51.3,116.3 53.4,108.7 39.9,102.6 	"/>
	<polygon fill="none" points="104.9,131.5 92.3,89 85,89 85,91 78,91 78,89 70.7,89 65,108.4 	"/>
	<polygon opacity="0.59" fill="#CDCFD0" points="107.5,133.1 106.8,132.7 106.6,132.7 	"/>
	<polygon opacity="0.59" fill="#CDCFD0" points="39.9,102.6 53.4,108.7 55.1,102.8 13.3,78.5 55.5,133.1 53.8,126.3 	"/>
	<polygon opacity="0.59" fill="#CDCFD0" points="65,108.5 63.6,113.3 105,132 104.9,131.6 	"/>
	<polygon fill="#828487" points="104.9,131.5 105,132.1 105.2,133 106.6,133 106.8,133 107.5,133 111.7,116.3 104,89 92.3,89 	"/>
	<path fill="#828487" d="M95.7,60.5c2.9-3.3,4.8-7.7,4.8-12.4c0-10.4-8.5-18.8-18.5-18.9V32h-1v-2.8C71,29.7,62.8,37.9,62.8,48
		c0,10.4,8.3,18.9,18.8,18.9c1.4,0,2.8-0.1,4.1-0.4L92,88h11.6L95.7,60.5z M71.1,48c0-5.7,4.6-10.4,10.4-10.4
		c5.7,0,10.4,4.6,10.4,10.4c0,5.7-4.6,10.4-10.4,10.4C75.8,58.4,71.1,53.8,71.1,48z"/>
	<polygon fill="#999B9E" points="117,88 103.6,88 92,88 85,88 85,85 78,85 78,88 71.1,88 70.7,89 78,89 78,91 85,91 85,89 92.3,89 
		104,89 117,89 	"/>
	<polygon fill="#999B9E" points="48,88 48,89 59.1,89 59.4,88 	"/>
	<path fill="#FD4F57" d="M70.7,89.1l0.3-1.1l5.8-19.7c-4-0.7-7.6-2.6-10.3-5.3l-7.2,25.1l-0.3,1.1l-3.9,13.7l-1.7,5.9l-2.2,7.6
		l2.5,9.9l1.7,6.8h2.3l5.8-19.8l1.4-4.8L70.7,89.1z"/>
	<path fill="#999B9E" d="M82,32v-2.8V27h4.1c0.5,0,0.9-0.4,0.9-0.8V8.3C87,7.8,86.5,7,86.1,7h-9.7C75.9,7,75,7.8,75,8.3v17.9
		c0,0.5,0.9,0.8,1.4,0.8H81v2.2V32H82z"/>
	<polygon fill="#999B9E" points="105,139.6 106.7,134.1 105,134.3 	"/>
	<polygon fill="#FD4F57" points="57,139.6 57,134.3 55.3,134.1 	"/>
</g>
</svg>
