<?xml version="1.0" encoding="utf-8"?>
<!-- Generator: Adobe Illustrator 18.1.0, SVG Export Plug-In . SVG Version: 6.00 Build 0)  -->
<svg version="1.0" id="Layer_1" xmlns="http://www.w3.org/2000/svg" xmlns:xlink="http://www.w3.org/1999/xlink" x="0px" y="0px"
	 viewBox="0 0 150 150" enable-background="new 0 0 150 150" xml:space="preserve">
<g>
	<path fill="none" d="M122.8,68c-7.3,3.9-14.8,7.6-22.3,11c-2.8-7-7.3-10.1-13.3-13.9c4.3-8.4,8.9-16.6,13.9-24.6
		c3.2,7,4.5,14.9,3.3,22.5c6.2-0.5,12.4,0.4,18.3,2.3c-1.7-25-22-44.8-46.7-44.8c-24.3,0-44.4,19.1-46.6,43.5
		c6.4-2.7,13.4-3.8,20.2-2.6c-0.6-7.4,0.7-14.9,3.3-21.9c4.4,8.5,8.4,17.1,12.3,25.9c-6.8,2.8-9.8,7.5-13.6,13.6
		c-7.6-4.1-15.1-8.6-22.4-13.3c-0.1,0.9-0.1,1.9-0.1,2.8c0,8.8,2.3,17,6.3,24c1-0.8,2-1.6,3.1-2.3c0.1-0.1,0.1-0.3,0.2-0.3
		c0.1,0,0.1,0,0.2,0c0.1,0,0.1,0,0.2,0c0.1,0,0.1,0,0.2,0c0.1,0,0.1-1,0.2-1s0.1,0,0.2,0c0.1,0,0.1,0,0.2,0c0.1,0,0.1,0,0.2,0
		c0.1,0,0.1,0,0.2,0c0.1,0,0.1,0,0.2,0c0.1,0,0.1-1,0.2-1c0.1,0,0.1,0,0.2,0c0,0,0.1,0,0.1-0.1c0.1,0,0.2,0.2,0.3,0.1
		c0.1-0.1,0.1-0.1,0.2-0.1c0.1,0,0.1,0,0.2,0c0.1,0,0.1-1,0.2-1c0.1,0,0.1,0,0.2,0c0.1,0,0.1,0,0.2,0c0.1,0,0.1,0,0.2,0
		c0.1,0,0.1,0,0.2,0c0.1,0,0.1,0,0.2,0c0,0,0.1-0.3,0.1-0.4c0.1,0,0.2-0.2,0.3-0.2c0.1-0.1,0.1-0.4,0.2-0.4c0.1,0,0.1,0,0.2,0
		c0,0,0.1-0.1,0.1-0.2c0.1,0,0.2-0.3,0.3-0.3c0.1-0.1,0.1-0.5,0.2-0.5c0.1,0,0.1,0,0.2,0c0.1,0,0.1,0,0.2,0c0.1,0,0.1,0,0.2,0
		c0.1,0,0.1,0,0.2,0c0.1,0,0.1,0,0.2,0c0.1,0,0.1,0,0.2-1c0.1,0,0.1,0,0.2,0c0.1,0,0.1,0,0.2,0c0.1,0,0.1,0,0.2,0c0.1,0,0.1,0,0.2,0
		c0.1,0,0.1,0,0.2,0c0.1,0,0.1,0,0.2-1c0.1,0,0.1,0,0.2,0c0.1,0,0.1,0,0.2,0c0.1,0,0.1,0,0.2,0c0.1,0,0.2,0,0.2,0c0.1,0,0.1,0,0.2,0
		c0.1,0,0.1,0,0.2-1c0.1,0,0.1,0,0.2,0c0.1,0,0.1,0,0.2,0c0.1,0,0.1,0,0.2,0s0.1,0,0.2,0c0.1,0,0.1,0,0.2,0c0.1,0,0.1,0,0.2-1
		c0.1,0,0.1,0,0.2,0s0.1,0,0.2,0c0.1,0,0.1,0,0.2,0c0,0,0.1,0,0.1,0c0.1,0,0.5,0,0.5,0s0-0.2,0-0.2c0,0,0-0.1,0-0.1c0,0,0-0.1,0-0.1
		c1,0,0.9,0,1.1,0.2c0.5,0.1,1.1,0.7,1.3,1.1C53.5,82,53,82,54,82.1c0,0.1,0,0.1,0,0.2c0,0.1,0,0.1,0,0.2c0,0.1,0,0.1,0,0.2
		c0,0.1,0,0.1,0,0.2s0,0.1,0,0.2c0,0,0.3,0.2,0.3,0.2c0,0.2,0.2,0.6,0.2,0.6c0,0,0.1,0,0.1,0c0.2,0-0.1,1.2-0.3,1.6
		c-0.1,0-0.3-0.1-0.3,0c0,0.1,0,0.1,0,0.2c0,0,0,0.1,0,0.1c0,0.1,0,0.1,0,0.2c0,0.1,0,0.1,0,0.2c0,0.1,0,0.6,0,0.6s-0.4,0-0.4,0
		c0,0-0.2,0-0.2,0.1C53.3,87.1,53,87,53,87c0,0.1,0,0.1,0,0.2c0,0.1,0,0.1,0,0.2c0,0.1,0,0.1,0,0.2c0,0,0,0.1,0,0.1
		c0,0.1,0,0.1,0,0.2c0,0.1,0,0.1-1,0.2c0,0.1,0-0.2,0-0.2s0.4,0,0.3,0c0,1-0.1,0.4-0.1,0.5c-0.1,0-0.2,0.3-0.2,0.3
		c0,0.1,0,0.1,0,0.2c0,0.1,0,0.1,0,0.2c0,0.1,0,0.1,0,0.2c0,0,0,0.1-1,0.1c0,0.1,0,0.1,0,0.2c0,0,0.1-0.1,0-0.1
		c0,0.1,0.2,0.2,0.1,0.2c0,0-0.2,0-0.2,0c0,1,0,1.2,0,1.6c0,0.2,0.1,0.1,0.2,0.3c0.2,0.2,0.6,0.4,0.8,0.7c0.3,0,0.9,0.1,0.9,0.1
		c0,0,0,0.3,0,0.3l0,0c0,0,0,0,0-1c0,0,0,0,1,0l0,0l0,0l0,0l0,0l0,0c0,0,0,0,1,0l0,0l0,0l0,0l0,0l0,0c0,0,0,0,1,0l0,0l0,0l0,0l0,0
		c0,0,0,0,0-1l0,0l0,0c1,0,0.7,0,0.8,0c0.6,0,2.2-0.6,2.2-0.3c0,0,0,0.1,0,0.1c1,0,0.5,0.1,0.7,0.1c0.1,0.2,0.6,0.4,0.8,0.5
		c0.1,0-0.4,0.1,0.6,0.1c0,0.1,0,0.1,0,0.2c0,0.1,0,0.1,0,0.2c0,0.1,0,0.1,0,0.2c0,0.1,0,0.1,0,0.2c0,0.1,0,0.1,0,0.2
		c0,0.1,0.3,0.2,0.4,0.3c0.2,0.3,0.9,1,0.7,2c0,0-0.1,0-0.1,0c0,0-0.2,0.3-0.2,0.5c-0.2,0.2-0.8,0.4-0.8,0.6c0,0,0-0.1,0-0.1
		s0,0-0.1,0c-0.1,0-0.1,0.3-0.2,0.4c-0.1,0-0.2,0.2-0.3,0.2c0,0.1-0.1,0.3-0.1,0.3c-0.1,0-0.1,0-0.2,0c-0.1,0-0.1,0-0.2,0
		c-0.1,0-0.1,0-0.2,0c-0.1,0-0.1,0-0.2,1c-0.1,0-0.1,0-0.2,0c-0.1,0-0.1,0-0.2,0c-0.1,0-0.1,0-0.2,0c-0.1,0-0.1,0-0.2,0
		c-0.1,0-0.1,0-0.2,0c-0.1,0-0.1,0-0.2,0c-0.1,0-0.1,0-0.2,0c0,1-0.1,0.4-0.1,0.5c-0.1,0-0.2,0.2-0.3,0.2c-0.1,0.1-0.1,0.3-0.2,0.4
		c-3.4,2.5-6.6,5.3-9.9,7.8c0.8,0.6,1.6,1.1,2.5,2.1c0,0,0.1,0,0.1,0c0.1-1,0.1-1,0.2-1c0.1,0,0.1,0,0.2,0c0.1,0,0.1,0,0.2,0
		s0.1,0,0.2,0c0.1,0,0.1,0,0.2,0c0.1,0,0.1,0,0.2,0c0.1-1,0.1-1,0.2-1c0.1,0,0.1,0,0.2,0s0.1,0,0.2,0c0.1,0,0.1,0,0.2,0
		c0,0,0.1-0.2,0.1-0.3c0.1,0,0.2-0.2,0.3-0.3c0.1-0.1,0.1-0.5,0.2-0.5c0.1,0,0.1,0,0.2,0c0.1,0,0.1,0,0.2,0c0.1,0,0.1,0,0.2,0
		c0.1,0,0.1,0,0.2,0c0.1,0,0.1,0,0.2,0c0.1-1,0.1-1,0.2-1c0.1,0,0.1,0,0.2,0c0.1,0,0.1,0,0.2,0c0.1,0,0.1,0,0.2,0c0.1,0,0.1,0,0.2,0
		c0.1,0,0.1,0,0.2,0c0,0,0.1-0.3,0.1-0.4c0.1,0,0.2-0.2,0.3-0.2c0.1-0.1,0.1-0.3,0.2-0.4c5.3-3.8,10.2-7.9,15.5-11.7
		c0.1-0.1,0.1-0.3,0.2-0.3c0.1,0,0.1,0,0.2,0c0.1,0,0.1,0,0.2-1c0.1,0,0.1,0,0.2,0c0.1,0,0.1,0,0.2,0c0.1,0,0.1,0,0.2,0
		c0.1,0,0.1,0,0.2,0c0.1,0,0.1,0,0.2,0c0,0,0.1-0.2,0.1-0.3c0.1,0,0.2-0.2,0.3-0.2c0.1-0.1,0.1-0.5,0.2-0.5c0.1,0,0.1,0,0.2,0
		c0,0,0.1-0.1,0.1-0.1c0.1,0,0.2,0.2,0.3,0.2c0.1-0.1,0.1,0,0.2,0c0.1,0,0.1,0,0.2,0c0.1-1,0.1-1,0.2-1c0.1,0,0.1,0,0.2,0
		c0.1,0,0.1,0,0.2,0c0.1,0,0.1,0,0.2,0c0.1,0,0.2,0,0.2,0c0.1,0,0.1,0,0.2,0c0.1-1,0.1-1,0.2-1c0.1,0,0.1,0,0.2,0c0.1,0,0.1,0,0.2,0
		c0.1,0,0.1,0,0.2,0c0.1,0,0.1,0,0.2,0c0.1,0,0.1,0,0.2,0c0.1-1,0.1-1,0.2-1c0.1,0,0.1,0,0.2,0c0.1,0,0.1,0,0.2,0c0.1,0,0.1,0,0.2,0
		c0.1,0,0.2,0,0.3-1c0.1,0,0.1,0,0.2,0c0.1,0,0.1,0,0.2,0c0.1,0,0.1,0,0.2,0c0.1,0,0.1,0,0.2,0s0.1,0,0.2,0c0.1,0,0.1,0,0.2-1
		c0.1,0,0.1,0,0.2,0c0,0,0.1,0,0.1,0c0.1,0,0,0,0,0s0,0.2,0,0.2c1-0.2,0.9-0.2,1.5-0.2c0.2,0.2,0.3,0.1,0.5,0.2
		c0,0.1,0.2,0.1,0.2,0.2c0.2,0.2,0.8,0.4,0.8,0.5c0,0.1,0,0.1,0,0.2c0,0.1,0,0.1,0,0.2c0,0.1,0,0.1,0,0.2c0,0.1,0,0.1,0,0.2
		c0,0.1,0,0.1,0,0.2c1,0.1,0.3,0.1,0.4,0.2c0.2,0.3,0.6,0.6,0.6,0.9c0,0.4,0,0.9,0,0.9s0.2,0,0.1,0c0,0,0,0.4,0,0.6
		c-0.1,0-0.1,0.2-0.1,0.3c0,0.1,0,0.1,0,0.2c0,0,0,0.1,0,0.1c0,0.1,0,0.1,0,0.2c0,0-1,0.1-1,0.1c0,0.1,0,0.1,0,0.2
		c0,0.1,0,0.1,0,0.2c0,0.1,0,0.1,0,0.2c0,0,0,0.1,0,0.1c0,0.1,0,0.1,0,0.2c0,0,0,0.1,0,0.1c0,0.1,0,0.1,0,0.2c0,0.1-1,0.1-1,0.2
		c0,0.1,0,0.1,0,0.2c0,0,0,0.1,0,0.1c0,0.1,0,0.1,0,0.2c0,0.1,0,0.1,0,0.2c0,0.1,0,0.1,0,0.2c0,0,0,0.1,0,0.1c0,0.1,0-0.1,0-0.1
		s-0.5,0-0.5,0c0,0-0.1,0.4-0.1,0.5c-0.1,0-0.1,0.2-0.2,0.2c-0.3,0.4-0.9,1.7-0.4,2.2c0.1,0.6,0.8,0.6,1.1,1c0.8,0,1.2-0.1,2.2-0.3
		c0,0,0,0.4,0,0.4l0,0c0-1,0-0.6,0-0.6c0-0.1,1-0.1,1-0.2c0,0,0-0.2,0-0.2l0,0c0,0,0,0,0,0c0,0,1-0.1,1-0.1c0,0,0,0.1,0,0.1l0,0l0,0
		l0,0l0,0c1,0,1,0,1,0c0-1,0-1,0-1l0,0l0,0l0,0c0,0,0,0.2,0,0.2c1-0.2,1.6-0.3,1.9,0c0.6,0.2,1.2,0.9,1.5,1.4
		c0.1,0.1,0.6,0.1,0.6,0.2c0,0.1,0,0.1,0,0.2c0,0.1,0,0.2,0,0.2c0,0.1,0,0.1,0,0.2c0,0.1,0.2,0.1,0.4,0.1c0,0.1,0.1,0.4,0.1,0.4
		c0,0,0.1,0,0.1,0c0.1,0,0.1,1.1-0.1,1.3c-0.1,0.2-0.3,0.7-0.4,0.7c-0.1,0-0.1,0-0.2,0c-0.1,0-0.1,0-0.2,1c-0.1,0-0.1,0-0.2,0
		c-0.1,0-0.1,0-0.2,0c-0.1,0-0.1,0-0.2,0c-0.1,0-0.1,0-0.2,0c-0.1,0-0.1,0-0.2,0c-0.1,0-0.1,0-0.2,1c-0.1,0-0.1,0-0.2,0
		c-0.1,0-0.1,0-0.2,0c-0.1,0-0.1,0-0.2,0c-0.1,0-0.1,0-0.2,0s-0.1,0-0.2,0c-0.1,0-0.1,0-0.2,1c-0.1,0-0.1,0-0.2,0
		c-0.1,0-0.1,0-0.2,0c-0.1,0-0.1,0-0.2,0s-0.1,0-0.2,0c-0.1,0-0.1,0-0.2,0c-0.1,0-0.1,0-0.2,1c-0.1,0-0.1,0-0.2,0c0,0-0.1-0.1-0.1,0
		c-0.1,0-0.2-0.1-0.3-0.1c-0.1,0.1-0.1,0.1-0.2,0.1c-0.1,0-0.1,0-0.2,0c0,0-0.1,0.2-0.1,0.3c-0.1,0-0.2,0.2-0.3,0.2
		c-0.1,0.1-0.1,0.5-0.2,0.5c-0.1,0-0.1,0-0.2,0s-0.1,0-0.2,0c-0.1,0-0.1,0-0.2,0c-0.1,0-0.1,0-0.2,0c-0.1,0-0.1,0-0.2,0
		c-0.1,1-0.1,1-0.2,1c-0.1,0-0.1,0-0.2,0c-0.1,0-0.1,0-0.2,0c-0.1,0-0.1,0-0.2,0c-0.1,0-0.1,0-0.2,0c-0.1,0-0.1,0-0.2,0
		c-0.1,1-0.1,1-0.2,1c-0.1,0-0.1,0-0.2,0c-0.1,0-0.1,0-0.2,0c-0.1,0-0.1,0-0.2,0c-0.1,0-0.1,0-0.2,0c-0.1,0-0.1,0-0.2,0
		c-0.1,1-0.1,1-0.2,1c-0.1,0-0.1,0-0.2,0c-0.1,0-0.1,0-0.2,0c-0.1,0-0.1,0-0.2,0c-0.1,0-0.1,0-0.2,0c-0.1,0-0.1,0-0.2,0
		c-0.1,1-0.1,1-0.2,1c-0.1,0-0.1,0-0.2,0c-0.1,0-0.1,0-0.2,0c-0.1,0-0.1,0-0.2,0c-0.1,0-0.1,0-0.2,0c-0.1,0-0.1,0-0.2,0
		c-0.1,1-0.1,1-0.2,1c-0.1,0-0.1,0-0.2,0c-0.1,0-0.1,0-0.2,0c-0.1,0-0.1,0-0.2,0c0,0-0.1,0.2-0.1,0.2c-0.1,0-0.2,0.2-0.3,0.3
		c-0.1,0.1-0.1,0.5-0.2,0.5c-0.1,0-0.1,0-0.2,0c0,0-0.1,0-0.1,0.1c-0.1,0-0.2-0.2-0.3-0.2c-0.1,0.1-0.1,0.1-0.2,0.1
		c-0.1,0-0.1,0-0.2,0c-0.1,0-0.1,1-0.2,1c-0.1,0-0.1,0-0.2,0c-0.1,0-0.1,0-0.2,0c-0.1,0-0.1,0-0.2,0c-0.1,0-0.1,0-0.2,0
		c-0.1,0-0.1,0-0.2,0c0,0-0.1,0.3-0.1,0.4c-0.1,0-0.2,0.1-0.3,0.1c-0.1,0.1-0.2,0.5-0.3,0.5c-0.1,0-0.1,0-0.2,0c-0.1,0-0.1,0-0.2,0
		c-0.1,0-0.1,0-0.2,0c0,1-0.1,0.4-0.1,0.4c-0.1,0-0.2,0.1-0.3,0.2c-0.1,0.1-0.1,0.4-0.2,0.4c-0.1,0-0.1,0-0.2,0c-0.1,0-0.2,0-0.2,0
		c-0.1,0-0.1,0-0.2,0c-0.1,1-0.1,1-0.2,1c-0.1,0-0.1,0-0.2,0c-0.1,0-0.1,0-0.2,0c-0.1,0-0.1,0-0.2,0c-0.1,0-0.1,0-0.2,0
		c-0.1,0-0.1,0-0.2,0c-0.1,1-0.1,1-0.2,1c-0.1,0-0.1,0-0.2,0c-0.1,0-0.1,0-0.2,0c-0.1,0-0.5,0-0.5,0l0,0c0,0-0.4,0-0.8,0
		c2.2,1,4.5,0.6,6.8,0.6c25.8,0,46.9-21.5,46.9-48.1C122.8,68.3,122.8,68.2,122.8,68z M110.8,51.1c2.6-0.5,5.2,1.2,5.7,3.9
		c0.5,2.7-1.2,5.3-3.8,5.9c-2.6,0.5-5.2-1.2-5.7-3.9C106.5,54.3,108.2,51.6,110.8,51.1z M43.5,59.1c-2.6,0.5-5.2-1.2-5.7-3.9
		c-0.5-2.7,1.2-5.3,3.8-5.9c2.6-0.5,5.2,1.2,5.7,3.9C47.9,55.9,46.1,58.6,43.5,59.1z M76.7,34.9c2.6-0.5,5.2,1.2,5.7,3.9
		c0.5,2.7-1.2,5.3-3.8,5.9c-2.6,0.5-5.2-1.2-5.7-3.9C72.4,38.1,74.1,35.4,76.7,34.9z M70.7,84.2c-0.3,0.3-0.7,0.3-1.7,0.5
		c0,0,0,0.3,0,0.3l0,0l0,0l0,0l0,0c-1,0-1,0-1,0l0,0l0,0l0,0l0,0c0,0,0,0.3,0,0.4c-1,0-1,0.1-1,0.1c0,0,0,0.5,0,0.5l0,0
		c0,0,0-0.3,0-0.3c-1,0-1,0.1-1,0.1c0,0,0,0.2,0,0.2l0,0l0,0c0,0,0,0-1,0l0,0l0,0c0,0,0,0.2,0,0.3c0,0,0,0.1-1,0.1c0,0,0,0.1,0,0.1
		c0,0.3-0.1,1.3-0.1,1.8c0.2,0.2,0.1,1,0.1,1.4c0,1.3,0,2.4,0,3.4c0,0,0.4,0,0.3,0c-0.1,0-0.1,0-0.2,0c0,0-0.1,0-0.1,0s0,0,0-0.1
		c0-0.1,0-0.1,0-0.2c0-0.1,0-0.1,0-0.2c0-0.1-1-0.1-1-0.2c0-0.1,0-0.1,0-0.2c0-0.1,0-0.1,0-0.2c0-0.1,0-0.1,0-0.2c0-0.1,0-0.1,0-0.2
		c0-0.1,0-0.1,0-0.2c0-0.1,0-0.1-1-0.2c0-0.1,0-0.1,0-0.2c0-0.1,0-0.2,0-0.2c0-0.1,0-0.1,0-0.2c0-0.1,0-0.1,0-0.2c0-0.1,0-0.1,0-0.2
		c0,0-0.2-0.1-0.3-0.1c0-0.1-0.2-0.2-0.2-0.3c-0.1-0.1-0.5-0.1-0.5-0.2c0-0.1,0-0.1,0-0.2c0-0.1,0-0.1,0-0.2c0-0.1,0-0.1,0-0.2
		c0-0.1,0-0.1,0-0.2c0-0.1,0-0.3,0-0.3c-1,0-0.6,0-0.6,0c-0.1,0-0.4,0-0.4-0.1c0,0,0,0.1,0,0.1c0,0,0,0.1-1,0.1c0,0,0-0.1,0-0.1l0,0
		l0,0l0,0l0,0l0,0v1c-1,0-0.6,0-0.7,0c-1.5,0-3.3,0.6-4.3,1.2c0-0.1,0-0.2,0-0.3c0-0.3,0.4-0.7,0.7-1.1c0.1-0.1,0.3-0.1,0.3-0.2
		c0-0.1,0-0.5,0-0.5s0,0,0,0c0,0-0.1-0.1,0-0.2c0.1,0,0.1,0.1,0.1,0.1c0-0.1,0-0.1,0-0.2c0-0.1,1-0.1,1-0.2c0-0.1,0-0.1,0-0.2
		c0,0,0-0.1,0-0.1c0-0.1,0-0.1,0-0.2c0-0.1,0-0.1,0-0.2c0-0.1,0,0.3,0-0.7c0,0,0.2,0,0.3,0c0,0,0.3,0,0.3-0.1c0.1,0,0.4,0.2,0.4,0.1
		c0-0.1,0-0.2,0-0.2c0-0.1,0-0.2,0-0.2c0-0.1,0-0.1,0-0.2c0,0,0-0.1,0-0.1c0-0.1,0-0.2,0-0.2c0,0,0-0.1,0-0.1c0-0.1,0,0.1,0,0.1
		s0.4,0,0.4,0c0.2,0,0.2-0.4,0.2-0.7c-0.4-0.2-0.3-0.6-0.5-1c-0.1-0.1-0.2-0.2-0.2-0.3c0-0.1,0-0.1,0-0.2c0-0.1-1-0.1-1-0.2
		c0-0.1,0-0.1,0-0.2c0,0,0-0.1,0-0.1c0-0.1,0.2-0.2,0.1-0.3C56,81.9,56,81.8,56,81.8c0-0.1,0-0.1,0-0.2c0-0.1,0-0.1-1-0.2
		c0-0.1,0-0.1,0-0.2c0-0.1,0-0.1,0-0.2c0-0.1,0-0.1,0-0.2c0-0.1,0-0.1,0-0.2c0-0.1,0-0.2,0-0.2c0-0.1,0-0.1-1-0.2c0-0.1,0-0.1,0-0.2
		c0-0.1,0-0.1,0-0.2s0-0.1,0-0.2c0,0-0.1,0-0.1-0.1c0-0.1,0-0.3,0-0.3c0,0-0.1,0-0.1,0s-0.1-0.3-0.1-0.4c2.2,0.7,4.2,1.4,6.4,2.1
		c0.1-0.1,0-0.2,0-0.2c0-0.1,0-0.2,0-0.2c0,0,1-0.1,1-0.1c0-0.1,0-0.1,0-0.2c0-0.1,0-0.1,0-0.2c0-0.1,0,0.3,0-0.7c0,0,0,0,0.1,0
		c0,0-0.1,0-0.1-0.1c0.1,0,0,0.2,0,0.1c0-0.1,0-0.1,0-0.2c0-0.1,1-0.1,1-0.2c0-0.1,0-0.6,0-0.6s-0.2,0-0.2,0c0,0,0,0,0-0.1
		c0.1,0,0.2,0.1,0.2,0.1c0-0.1,0-0.1,0-0.2c0-0.1,0-0.1,0-0.2c0-0.1,0-0.1,0-0.2c1,0,1-0.1,1-0.1c0-0.1,0-0.1,0-0.2
		c0-0.1,0-0.1,0-0.2c0-0.1,0-0.1,0-0.2c0,0,0-0.1,0-0.1c0-0.1,0-0.1,0-0.2c0,0,0-0.1,0-0.1c0-0.1,0-0.1,0-0.2c0-0.1,1-0.1,1-0.2
		c0-0.1,0-0.1,0-0.2c0,0-0.1-0.1,0-0.1c0.2-0.3,0-0.2,0-0.3c0,2,0,4,0,6c0,0,0.3,0,0.3,0c0.1,0,0,0.8,0.1,1.1c0.6,0,1.2,0.3,1.6,0.4
		c0.2,0,0,0.1,1,0.1c0,0,0,0.4,0,0.4l0,0l0,0l0,0l0,0c0,0,0,0,1,0l0,0l0,0l0,0l0,0l0,0h1l0,0l0,0c0,0,0,0,0,1l0,0c0,0,0-0.4,0-0.4
		c1,0.1,1.1,0.3,1.6,0.4C70.5,84.2,70.8,84.1,70.7,84.2z M66.6,64.5c-2.7-9.1-5.1-18.2-7.1-27.5c7.1,2.6,13.4,7.2,17.9,13.5
		c4.7-5.7,10.8-10.1,17.4-13c-2.8,9.2-5.8,18.2-9.2,27.2C78.8,61.8,73.4,62.9,66.6,64.5z M100,88.5c-2,0.7-4.1,1.5-6.3,2.3
		c0,2.4,0.3,4.2,0.3,7.2c0,0-0.1,0-0.1,0c-0.1,0-0.1,0-0.2,0c0,0,0.3,0,0.3,0c0-1,0-0.6,0-0.7c0-0.1-1-0.2-1-0.2c0-0.1,0-0.1,0-0.2
		c0-0.1,0-0.1,0-0.2c0-0.1,0-0.1,0-0.2c0-0.1,0-0.1,0-0.2c0-0.1,0-0.1,0-0.2c0-0.1-1-0.1-1-0.2c0-0.1,0-0.1,0-0.2c0-0.1,0-0.1,0-0.2
		c0-0.1,0-0.1,0-0.2c0-0.1,0-0.1,0-0.2c0-0.1,0-0.1,0-0.2c0-0.1-1-0.2-1-0.2c0-0.1,0-0.1,0-0.2c0,0,0-0.1,0-0.1
		c0-0.1,0.1-0.2,0.1-0.3C91,93.7,91,93.6,91,93.6c0-0.1,0-0.1,0-0.2c0-0.1,0-0.2-1-0.2c0-0.1,0-0.2,0-0.2c0-0.1,0-0.1,0-0.2
		c0-0.1,0,0.3,0-0.7c0,0,0,0,0,0c-0.2,0-0.1,0.1-0.4,0c-0.3,0.3-1.6,0.6-1.6,0.8c0,0,0,0.2,0,0.2l0,0c0,0,0,0,0,0c-1,0-1,0.1-1,0.1
		c0,0,0-0.1,0-0.1l0,0c0,0,0,0.3,0,0.4c-1,0.1-1,0.1-1,0.2c0,0,0,0.1,0,0.1c0,0.1-0.9,0.1-1.2,0.2c-0.5,0.2-0.8,0.5-1.8,0.5
		c0,0,0-0.1,0-0.1c1-0.2,0.4-0.6,0.7-1c0.1-0.1,0.3-0.2,0.3-0.2c0-0.1,0-0.2,0-0.2c0,0,0-0.1,0-0.1c0-0.1,0-0.2,0-0.2
		c1,0,1-0.1,1-0.1c0-0.1,0-0.1,0-0.2c0-0.1,0-0.1,0-0.2c0-0.1,0-0.1,0-0.2c0,0,0-0.1,0-0.1c0-0.1,0-0.1,0-0.2c0-0.1,0-0.1,1-0.2
		c0-0.1,0-0.3,0-0.3s-0.4,0-0.4,0c0,0,0.1-0.2,0.1-0.3c0.1,0,0.2,0,0.2-0.1c0-0.1,0-0.1,0-0.2c0-0.1,0-0.1,0-0.2c0-0.1,0-0.1,0-0.2
		c0,0,0-0.1,0-0.1c0-0.1,0-0.1,0-0.2c1,0,1-0.1,1-0.1c0-0.1,0-0.1,0-0.2c0,0,0,0,0.1,0c0-0.1-0.1-0.3,0-0.3c0,0,0.1,0,0.1,0
		c0,0,0.1-0.3,0.1-0.4c-0.4-0.2-0.5-0.6-0.8-0.9c-0.1-0.1-0.5-0.2-0.5-0.3c0-0.1,0-0.1,0-0.2c0-0.1,0-0.1,0-0.2c0-0.1,0-0.1,0-0.2
		c0,0-0.2-0.1-0.2-0.1c0-0.1-0.2-0.2-0.3-0.3c-0.1-0.1-0.5-0.2-0.5-0.2c0-0.1,0-0.1,0-0.2c0-0.1,0-0.1,0-0.2c0-0.1,0-0.1,0-0.2
		c0-0.1,0-0.2,0-0.2c0-0.1,0-0.2,0-0.2c0-0.1-1-0.2-1-0.2c0-0.1,0-0.1,0-0.2c0-0.1,0-0.1,0-0.2c0-0.1,0-0.2,0-0.2c0-0.1,0-0.2,0-0.2
		c0-0.1,0-0.1,0-0.2c0,0-0.3-0.2-0.3-0.3c0-0.1-0.2-0.5-0.3-0.5c0,0-0.1,0-0.1,0c0,0-0.1-0.1-0.1-0.2c2.2,0.7,4.4,1.6,6.6,2.3
		c0-0.1,0.1-0.1,0.1-0.1c0,0,0.1,0,0.1,0c0,0-0.1-0.4,0-0.5c0.1,0,0.1-0.2,0.1-0.3c0-0.1,0-0.1,0-0.2c0,0,0-0.1,1-0.1
		c0-0.1,0-0.1,0-0.2c0,0,0-0.1,0-0.1c0-0.1,0-0.1,0-0.2c0-0.1,0-0.1,0-0.2c0-0.1,0-0.2,0-0.2s0.1,0,0.2,0c0,0-0.2-0.2-0.1-0.3
		c0.1,0,0-0.1,0-0.1c0-0.1,0-0.1,0-0.2c1-0.1,1-0.1,1-0.2c0-0.1,0-0.2,0-0.2c0,0,0-0.1,0-0.1c0-0.1,0-0.1,0-0.2c0-0.1,0-0.1,0-0.2
		c0-0.1,0-0.3,0-0.3s0.4,0,0.4,0c0,0,0.2-0.2,0.2-0.3c0.1,0,0.3,0,0.3-0.1c0-0.1,0-0.1,0-0.2c0-0.1,0.1-0.3,0.2-0.4
		c0.2-0.3,0.2-0.1,0.4-1.1c0,0,0.4,0,0.4,0c0,1,0,1.4,0,1.9c0,0.2,0,1,0,1.4c0,1.4,0,2.7,0,4c0,0,0.5,0.6,0.8,0.6c0.1,0,0.2,0,0.2,0
		l0,0c0,0,0,0,1,0l0,0l0,0l0,0l0,0l0,0l0,0l0,0c1,0,0.8,0,0.9,0c1.2,1,2.1,1,3.1,1.4C100,88.5,100,88.5,100,88.5z"/>
	<path fill="#6ABA94" d="M94.7,37.5c-6.7,2.9-12.7,7.4-17.4,13C72.9,44.2,66.5,39.6,59.5,37c2,9.3,4.4,18.4,7.1,27.5
		c6.9-1.6,12.3-2.7,19,0.2C88.9,55.7,92,46.6,94.7,37.5z"/>
	<path fill="#4199D4" d="M65.1,65.4c-3.8-8.8-7.9-17.4-12.3-25.9c-2.7,6.9-3.9,14.4-3.3,21.9c-6.8-1.1-13.8-0.1-20.2,2.6
		c-0.1,0.6-0.1,1.2-0.1,1.8c7.3,4.7,14.7,9.1,22.4,13.3C55.3,72.9,58.4,68.2,65.1,65.4z"/>
	<path fill="#F15B2B" d="M104.4,63c1.2-7.7-0.1-15.5-3.3-22.5c-5,8-9.6,16.2-13.9,24.6c5.9,3.9,10.5,7,13.3,13.9
		c7.5-3.5,15-7.1,22.3-11c0-0.9,0-1.8-0.1-2.7C116.8,63.3,110.6,62.5,104.4,63z"/>
	<path fill="#4199D4" d="M41.6,49.3c-2.6,0.5-4.3,3.2-3.8,5.9c0.5,2.7,3.1,4.5,5.7,3.9c2.6-0.5,4.3-3.2,3.8-5.9
		C46.8,50.5,44.2,48.8,41.6,49.3z"/>
	<path fill="#6ABA94" d="M78.6,44.7c2.6-0.5,4.3-3.2,3.8-5.9c-0.5-2.7-3.1-4.5-5.7-3.9c-2.6,0.5-4.4,3.2-3.8,5.9
		C73.4,43.5,76,45.2,78.6,44.7z"/>
	<path fill="#F15B2B" d="M112.7,60.9c2.6-0.5,4.3-3.2,3.8-5.9c-0.5-2.7-3.1-4.5-5.7-3.9c-2.6,0.5-4.4,3.2-3.8,5.9
		C107.5,59.7,110.1,61.4,112.7,60.9z"/>
	<path fill="#6ABA94" d="M131.7,72h-1.1c0,29-23.6,53.2-51.6,53.2v1.1C108,126.3,131.7,102,131.7,72z"/>
	<path fill="#6ABA94" d="M123.1,104.8c10,3.8,15.5-7.3,15.5-7.3C126.8,94.9,123.1,104.8,123.1,104.8z"/>
	<path fill="#6ABA94" d="M113.4,115.9c9.5,5,16.2-5.4,16.2-5.4C118.1,106.5,113.4,115.9,113.4,115.9z"/>
	<path fill="#6ABA94" d="M129.6,92.3c10.4,2.2,14.2-9.6,14.2-9.6C131.7,81.9,129.6,92.3,129.6,92.3z"/>
	<path fill="#6ABA94" d="M131.1,69.8c7.6-9.8-2.2-19.9-2.2-19.9c-1.9,3.4-2.6,6.5-2.6,9.1c0.2,1.3,0.4,2.5,0.6,3.8
		C128.1,67.3,131.1,69.8,131.1,69.8z"/>
	<path fill="#6ABA94" d="M146.4,67.4c-12.1,0.4-13.3,10.9-13.3,10.9C143.7,79.5,146.4,67.4,146.4,67.4z"/>
	<path fill="#6ABA94" d="M100.3,123.6c7.7,7.5,17-0.4,17-0.4C107.5,115.9,100.3,123.6,100.3,123.6z"/>
	<path fill="#6ABA94" d="M85.3,128c6.1,8.9,16.8,3,16.8,3C93.9,122,85.3,128,85.3,128z"/>
	<path fill="#6ABA94" d="M21.4,72h-1.1c0,30,23.7,54.3,52.7,54.3v-1.1C45,125.2,21.4,101,21.4,72z"/>
	<path fill="#6ABA94" d="M28.8,104.8c0,0-3.7-9.9-15.5-7.3C13.4,97.5,18.9,108.6,28.8,104.8z"/>
	<path fill="#6ABA94" d="M22.4,110.6c0,0,6.7,10.3,16.2,5.4C38.6,115.9,33.8,106.5,22.4,110.6z"/>
	<path fill="#6ABA94" d="M22.4,92.3c0,0-2.2-10.4-14.2-9.6C8.2,82.7,12,94.5,22.4,92.3z"/>
	<path fill="#6ABA94" d="M23.1,49.9c0,0-9.8,10.1-2.2,19.9c0,0,3-2.5,4.3-6.9c0.1-1.3,0.3-2.6,0.6-3.8C25.7,56.4,25,53.3,23.1,49.9z
		"/>
	<path fill="#6ABA94" d="M18.8,78.3c0,0-1.2-10.5-13.3-10.9C5.5,67.4,8.2,79.5,18.8,78.3z"/>
	<path fill="#6ABA94" d="M34.6,123.1c0,0,9.3,7.9,17,0.4C51.7,123.6,44.5,115.9,34.6,123.1z"/>
	<path fill="#6ABA94" d="M49.8,131.1c0,0,10.7,5.9,16.8-3C66.6,128,58.1,122,49.8,131.1z"/>
	<path fill="#F15B2B" d="M70,116c0,0,0.4,0,0.5,0c0.1,0,0.1,0,0.2,0c0.1,0,0.1,0,0.2,0c0.1,0,0.1,0,0.2-1c0.1,0,0.1,0,0.2,0
		c0.1,0,0.1,0,0.2,0c0.1,0,0.2,0,0.2,0c0.1,0,0.1,0,0.2,0c0.1,0,0.1,0,0.2,0c0.1,0,0.1,0,0.2-1c0.1,0,0.1,0,0.2,0c0.1,0,0.1,0,0.2,0
		c0.1,0,0.1,0,0.2,0c0.1,0,0.1-0.2,0.2-0.3c0.1,0,0.2-0.3,0.3-0.3c0-0.1,0.1,0.6,0.1-0.4c0.1,0,0.1,0,0.2,0c0.1,0,0.1,0,0.2,0
		c0.1,0,0.1,0,0.2,0c0.1,0,0.2-0.2,0.3-0.4c0.1,0,0.2-0.2,0.3-0.3c0-0.1,0.1-0.4,0.1-0.4c0.1,0,0.1,0,0.2,0c0.1,0,0.1,0,0.2,0
		c0.1,0,0.2,0,0.2,0c0.1,0,0.1,0,0.2,0c0.1,0,0.1,0,0.2,0c0.1,0,0.1-1,0.2-1c0.1,0,0.1,0,0.2,0c0.1,0,0.1,0,0.2-0.1
		c0.1,0,0.2,0.2,0.3,0.1c0-0.1,0.1,0,0.1,0c0.1,0,0.1,0,0.2,0c0.1,0,0.1-0.4,0.2-0.5c0.1,0,0.2-0.2,0.3-0.2c0-0.1,0.1-0.3,0.1-0.3
		c0.1,0,0.1,0,0.2,0c0.1,0,0.1,0,0.2,0c0.1,0,0.1,0,0.2,0c0.1,0,0.1,0,0.2-1c0.1,0,0.1,0,0.2,0c0.1,0,0.1,0,0.2,0c0.1,0,0.1,0,0.2,0
		c0.1,0,0.1,0,0.2,0c0.1,0,0.2,0,0.2,0c0.1,0,0.1,0,0.2-1c0.1,0,0.1,0,0.2,0c0.1,0,0.2,0,0.2,0c0.1,0,0.1,0,0.2,0c0.1,0,0.1,0,0.2,0
		c0.1,0,0.1,0,0.2,0c0.1,0,0.1,0,0.2-1c0.1,0,0.1,0,0.2,0c0.1,0,0.1,0,0.2,0c0.1,0,0.1,0,0.2,0c0.1,0,0.1,0,0.2,0c0.1,0,0.1,0,0.2,0
		c0.1,0,0.1,0,0.2-1c0.1,0,0.1,0,0.2,0c0.1,0,0.1,0,0.2,0c0.1,0,0.1,0,0.2,0c0.1,0,0.1,0,0.2,0c0.1,0,0.2,0,0.2,0c0.1,0,0.1,0,0.2-1
		c0.1,0,0.1,0,0.2,0c0.1,0,0.1,0,0.2,0c0.1,0,0.1,0,0.2,0c0.1,0,0.1,0,0.2,0s0.1,0,0.2,0c0.1,0,0.1-0.3,0.2-0.4
		c0.1,0,0.2-0.2,0.3-0.2c0-0.1,0.1-0.3,0.1-0.3c0.1,0,0.1,0,0.2,0c0.1,0,0.1-0.1,0.2-0.2c0.1,0,0.2,0.2,0.3,0.2
		c0-0.1,0.1,0.1,0.1,0.1c0.1,0,0.1,0,0.2,0c0.1-1,0.1-1,0.2-1c0.1,0,0.1,0,0.2,0c0.1,0,0.1,0,0.2,0s0.1,0,0.2,0c0.1,0,0.1,0,0.2,0
		c0.1,0,0.1,0,0.2,0c0.1-1,0.1-1,0.2-1c0.1,0,0.1,0,0.2,0s0.1,0,0.2,0c0.1,0,0.1,0,0.2,0c0.1,0,0.2,0,0.2,0c0.1,0,0.1,0,0.2,0
		c0.1-1,0.1-1,0.2-1c0.1,0,0.1,0,0.2,0c0.1,0,0.1,0,0.2,0c0.1,0,0.1,0,0.2,0c0.1,0,0.1,0,0.2,0c0.1,0,0.1,0,0.2,0c0.1-1,0.1-1,0.2-1
		c0.1,0,0.1,0,0.2,0c0.1,0,0.4-0.5,0.4-0.7c0.2-0.2,0.2-1.3,0.1-1.3c0,0-0.1,0-0.1,0c0,0-0.1-0.2-0.1-0.4c-0.1-0.1-0.4-0.1-0.4-0.1
		c0-0.1,0-0.2,0-0.2c0-0.1,0-0.2,0-0.2c0-0.1,0-0.1,0-0.2c0-0.1-0.3-0.1-0.5-0.2c-0.3-0.5-0.9-1.2-1.6-1.4c-0.4-0.3-1-0.2-2,0
		c0,0,0-0.2,0-0.2l0,0l0,0l0,0c0,0,0,0,0,1c0,0,0,0-1,0l0,0l0,0l0,0l0,0c0,0,0-0.2,0-0.1c0,0-1,0.1-1,0.1c0,0,0,0,0,0l0,0
		c0,0,0,0.2,0,0.2c0,0.1-1,0.1-1,0.2c0,0,0-0.4,0,0.6l0,0c0,0,0-0.4,0-0.4c-1,0.3-1.3,0.3-2.2,0.3c-0.3-0.4-0.9-0.4-1-1
		c-0.5-0.6,0.1-1.8,0.4-2.2c0.1,0,0.1-0.3,0.2-0.3c0-0.1,0.1-0.5,0.1-0.5c0,0,0.5,0,0.5,0s0,0.2,0,0.1c0,0,0-0.1,0-0.1
		c0-0.1,0-0.2,0-0.2c0-0.1,0-0.2,0-0.2c0-0.1,0-0.1,0-0.2c0,0,0-0.1,0-0.1c0-0.1,0-0.1,0-0.2c0-0.1,1-0.1,1-0.2c0-0.1,0-0.1,0-0.2
		c0,0,0-0.1,0-0.1c0-0.1,0-0.1,0-0.2c0,0,0-0.1,0-0.1c0-0.1,0-0.1,0-0.2c0-0.1,0-0.1,0-0.2c0-0.1,0-0.2,0-0.2c0,0,1-0.1,1-0.1
		c0-0.1,0-0.1,0-0.2c0,0,0-0.1,0-0.1c0-0.1,0-0.1,0-0.2c0,0,0.1-0.2,0.1-0.3c0-0.1,0-0.6,0-0.6c0,0-0.1,0-0.1,0s0-0.5,0-0.9
		c0-0.2-0.4-0.6-0.6-0.9C83.3,87.2,84,87.1,83,87c0-0.1,0-0.1,0-0.2c0-0.1,0-0.1,0-0.2c0-0.1,0-0.1,0-0.2c0-0.1,0-0.2,0-0.2
		c0-0.1,0-0.1,0-0.2c0-0.2-0.5-0.4-0.8-0.5c0-0.1-0.1-0.2-0.2-0.2c-0.2-0.1-0.4,0-0.6-0.2c-0.6,0-0.5,0-1.5,0.2c0,0,0-0.2,0-0.2
		s0.1,0,0,0c0,0-0.1,0-0.1,0c-0.1,0-0.1,0-0.2,0c-0.1,1-0.1,1-0.2,1c-0.1,0-0.1,0-0.2,0s-0.1,0-0.2,0c-0.1,0-0.1,0-0.2,0
		c-0.1,0-0.1,0-0.2,0c-0.1,0-0.1,0-0.2,0c-0.1,1-0.2,1-0.3,1c-0.1,0-0.1,0-0.2,0c-0.1,0-0.1,0-0.2,0c-0.1,0-0.1,0-0.2,0
		c-0.1,0-0.1,0-0.2,1c-0.1,0-0.1,0-0.2,0c-0.1,0-0.1,0-0.2,0c-0.1,0-0.1,0-0.2,0c-0.1,0-0.1,0-0.2,0c-0.1,0-0.1,0-0.2,0
		c-0.1,0-0.1,0-0.2,1c-0.1,0-0.1,0-0.2,0c-0.1,0-0.1,0-0.2,0c-0.1,0-0.1,0-0.2,0c-0.1,0-0.1,0-0.2,0c-0.1,0-0.1,0-0.2,0
		c-0.1,0-0.1,0-0.2,1c-0.1,0-0.1,0-0.2,0c-0.1,0-0.1,0-0.2,0.1c-0.1,0-0.2-0.1-0.3-0.1c0,0.1-0.1,0-0.1,0c-0.1,0-0.1,0-0.2,0
		c-0.1,0-0.2,0.3-0.2,0.4c-0.1,0-0.2,0.2-0.3,0.2C73,90.7,73,91,73,91c-0.1,0-0.1,0-0.2,0c-0.1,0-0.1,0-0.2,0c-0.1,0-0.1,0-0.2,0
		c-0.1,0-0.1,0-0.2,0c-0.1,0-0.1,0-0.2,0c-0.1,1-0.1,1-0.2,1c-0.1,0-0.1,0-0.2,0c-0.1,0-0.1,0.1-0.2,0.2C66,96.1,61,100.2,55.7,104
		c-0.1,0.1-0.1,0.2-0.2,0.3c-0.1,0-0.2,0.3-0.3,0.3c0,0.1-0.1,0.4-0.1,0.4c-0.1,0-0.1,0-0.2,0c-0.1,0-0.1,0-0.2,0
		c-0.1,0-0.1,0-0.2,0c-0.1,0-0.1,0-0.2,0c-0.1,0-0.1,0-0.2,0c-0.1,0-0.1,0-0.2,1c-0.1,0-0.1,0-0.2,0c-0.1,0-0.1,0-0.2,0
		c-0.1,0-0.1,0-0.2,0c-0.1,0-0.1,0-0.2,0c-0.1,0-0.1,0-0.2,0c-0.1,0-0.1,0.3-0.2,0.4c-0.1,0-0.2,0.2-0.3,0.2c0,0.1-0.1,0.3-0.1,0.3
		c-0.1,0-0.1,0-0.2,0c-0.1,0-0.1,0-0.2,0s-0.1,0-0.2,0c-0.1,0-0.1,0-0.2,1c-0.1,0-0.1,0-0.2,0c-0.1,0-0.1,0-0.2,0
		c-0.1,0-0.1,0-0.2,0s-0.1,0-0.2,0c-0.1,0-0.1,0-0.2,0c-0.1,0-0.1,0-0.2,1c0,0-0.1,0-0.1,0c5.7,3,12.2,6,19.3,7
		C69.6,116,70,116,70,116L70,116z"/>
	<path fill="#F15B2B" d="M96,87L96,87L96,87L96,87L96,87L96,87L96,87L96,87c-1,0-1,0-1,0l0,0c0,0-0.1,0-0.2,0
		c-0.3,0-0.8-0.6-0.8-0.6c0-1.3,0-2.7,0-4c0-0.4,0-1.2,0-1.4c0-0.5,0-0.9,0-1.9c0,0-0.4,0-0.4,0c-0.2,1-0.2,0.8-0.4,1.1
		c-0.1,0.1-0.2,0.3-0.2,0.4c0,0.1,0,0.1,0,0.2c0,0-0.3,0-0.3,0.1c0,0.1-0.2,0.3-0.2,0.3c0,0-0.4,0-0.4,0s0,0.3,0,0.3
		c0,0.1,0,0.1,0,0.2c0,0.1,0,0.1,0,0.2c0,0,0,0.1,0,0.1c0,0.1,0,0.2,0,0.2c0,0.1,0,0.1-1,0.2c0,0.1,0,0.1,0,0.2c0,0,0.1,0.1,0,0.1
		c0,0.1,0.2,0.3,0.1,0.3c0,0-0.2,0-0.2,0s0,0.1,0,0.2c0,0.1,0,0.1,0,0.2c0,0.1,0,0.1,0,0.2c0,0,0,0.1,0,0.1c0,0.1,0,0.1,0,0.2
		c-1,0-1,0.1-1,0.1c0,0.1,0,0.1,0,0.2c0,0,0,0.2-0.1,0.3c0,0.1,0.1,0.5,0,0.5c0,0-0.1,0-0.1,0c0,0-0.1,0.1-0.1,0.2
		c-2.2-0.7-4.4-1.6-6.6-2.3c0,0.1,0.1,0.1,0.1,0.1c0,0,0.1,0,0.1,0c0,0,0.2,0.4,0.3,0.5c0.1,0,0.3,0.2,0.3,0.3c0,0.1,0,0.1,0,0.2
		c0,0.1,0,0.1,0,0.2c0,0.1,0,0.1,0,0.2c0,0.1,0,0.1,0,0.2c0,0.1,0,0.1,0,0.2c0,0.1,1,0.1,1,0.2c0,0.1,0,0.1,0,0.2c0,0.1,0,0.1,0,0.2
		c0,0.1,0,0.1,0,0.2c0,0.1,0,0.1,0,0.2c0,0.1,0,0.1,0,0.2c0,0.1,0.4,0.1,0.5,0.2c0,0.1,0.2,0.2,0.2,0.3c0.1,0,0.3,0.1,0.3,0.1
		c0,0.1,0,0.1,0,0.2c0,0.1,0,0.1,0,0.2c0,0.1,0,0.1,0,0.2c0,0.1,0.3,0.1,0.5,0.2c0.2,0.3,0.3,0.7,0.7,0.9c0,0.1,0,0.4,0,0.4
		c0,0-0.1,0-0.1,0c0,0,0.1,0.2,0,0.3c-0.1,0-0.1,0-0.1,0c0,0.1,0,0.1,0,0.2c0,0,0,0.1-1,0.1c0,0.1,0,0.1,0,0.2c0,0,0,0.1,0,0.1
		c0,0.1,0,0.1,0,0.2c0,0.1,0,0.1,0,0.2c0,0.1,0,0.1,0,0.2c0,0-0.2,0-0.2,0.1c0,0.1-0.1,0.3-0.1,0.3c0,0,0.4,0,0.4,0s0,0.2,0,0.3
		c-1,0.1-1,0.1-1,0.2c0,0.1,0,0.1,0,0.2c0,0,0,0.1,0,0.1c0,0.1,0,0.1,0,0.2c0,0.1,0,0.1,0,0.2c0,0.1,0,0.1,0,0.2c0,0,0,0.1-1,0.1
		c0,0.1,0,0.1,0,0.2c0,0,0,0.1,0,0.1c0,0.1,0,0.1,0,0.2c0,0.1-0.2,0.1-0.3,0.2c-0.2,0.3,0.3,0.7-0.7,1c0,0,0,0.1,0,0.1
		c1-0.1,1.3-0.4,1.8-0.5c0.3-0.1,1.2-0.1,1.2-0.2c0,0,0-0.1,0-0.1c0-0.1,0-0.1,1-0.2c0,0,0-0.4,0-0.4l0,0c0,0,0,0.2,0,0.1
		c0,0,0-0.1,1-0.1c0,0,0,0,0,0l0,0c0,0,0-0.2,0-0.2c0-0.2,1.3-0.5,1.6-0.8c0.3,0,0.2,0,0.4,0c0,0,0,0,0,0c0,1,0,0.6,0,0.7
		c0,0.1,0,0.1,0,0.2c0,0.1,0,0.1,0,0.2c1,0.1,1,0.1,1,0.2c0,0.1,0,0.1,0,0.2c0,0.1,0.1,0.1,0.2,0.2c0,0.1-0.2,0.2-0.1,0.3
		c0.1,0,0,0.1,0,0.1c0,0.1,0,0.1,0,0.2c0,0.1,1,0.1,1,0.2c0,0.1,0,0.1,0,0.2c0,0.1,0,0.1,0,0.2c0,0.1,0,0.1,0,0.2c0,0.1,0,0.1,0,0.2
		c0,0.1,0,0.2,0,0.2c0,0.1,1,0.2,1,0.2c0,0.1,0,0.1,0,0.2c0,0.1,0,0.1,0,0.2c0,0.1,0,0.2,0,0.2c0,0.1,0,0.1,0,0.2c0,0.1,0,0.1,0,0.2
		c0,0.1,1,0.2,1,0.2c0,0.1,0-0.3,0,0.7c0,0-0.3,0-0.3,0c0.1,0,0.1,0,0.2,0c0,0,0.1,0,0.1,0c0-3-0.3-4.8-0.3-7.2
		c2.2-0.7,4.3-1.5,6.3-2.3c0,0,0-0.1,0-0.1C99,88,98.1,88,96.9,87C96.8,87,97,87,96,87z"/>
	<path fill="#6ABA94" d="M69,84L69,84c0-1,0-1,0-1l0,0l0,0h-1l0,0l0,0l0,0l0,0l0,0c-1,0-1,0-1,0l0,0l0,0l0,0l0,0c0,0,0-0.3,0-0.4
		c-1,0-0.7-0.1-1-0.1c-0.4-0.2-0.9-0.4-1.5-0.4c-0.1-0.3-0.1-1.1-0.2-1.1c0,0-0.3,0-0.3,0c0-2,0-4,0-6c0,0.1,0.1,0,0,0.3
		c-0.1,0,0,0.1,0,0.1c0,0.1,0,0.1,0,0.2c0,0.1-1,0.1-1,0.2c0,0.1,0,0.2,0,0.2c0,0,0,0.1,0,0.1c0,0.1,0,0.1,0,0.2c0,0,0,0.1,0,0.1
		c0,0.1,0,0.1,0,0.2c0,0.1,0,0.1,0,0.2c0,0.1,0,0.1,0,0.2c0,0,0,0.1-1,0.1c0,0.1,0,0.1,0,0.2c0,0.1,0,0.1,0,0.2c0,0.1,0,0.1,0,0.2
		c0,0-0.1-0.1-0.2-0.1c0,0.1,0,0.1,0,0.1c0,0,0.2,0,0.2,0s0,0.5,0,0.6c0,0.1-1,0.1-1,0.2c0,0.1,0,0.1,0,0.2c0,0,0-0.2,0-0.1
		c0,0.1,0.1,0.1,0.1,0.1c0,0-0.1,0-0.1,0c0,1,0,0.6,0,0.7c0,0.1,0,0.1,0,0.2c0,0.1,0,0.1,0,0.2c0,0-1,0.1-1,0.1c0,0.1,0,0.1,0,0.2
		c0,0.1,0.1,0.1,0,0.2c-2.2-0.7-4.3-1.3-6.5-2c0,0.1,0.2,0.4,0.2,0.4s0.1,0,0.1,0c0,0,0,0.2,0,0.3c0.1,0,0.1,0,0.1,0.1
		c0,0.1,0,0.1,0,0.2s0,0.1,0,0.2c0,0.1,0,0.2,0,0.2c1,0.1,1,0.1,1,0.2c0,0.1,0,0.1,0,0.2c0,0.1,0,0.1,0,0.2c0,0.1,0,0.1,0,0.2
		c0,0.1,0,0.1,0,0.2c0,0.1,0,0.1,0,0.2c1,0.1,1,0.1,1,0.2c0,0.1,0,0.1,0,0.2c0,0.1,0.1,0.1,0.2,0.2c0,0.1-0.2,0.2-0.1,0.3
		c0.1,0,0,0.1,0,0.1c0,0.1,0,0.1,0,0.2c0,0.1,1,0.1,1,0.2c0,0.1,0,0.1,0,0.2c0,0.1,0.1,0.2,0.2,0.2c0.2,0.3,0.2,0.8,0.6,1
		c0,0.3-0.1,0.7-0.3,0.7c0,0-0.4,0-0.4,0s0-0.1,0-0.1c0,0,0,0.1,0,0.1c0,0.1,0,0.1,0,0.2c0,0,0,0.1,0,0.1c0,0.1,0,0.1,0,0.2
		c0,0.1,0,0.1,0,0.2c0,0.1,0,0.1,0,0.2c0,0-0.4-0.2-0.4-0.1c0,0.1-0.3,0.1-0.3,0.1c0,0-0.3,0-0.3,0c0,1,0,0.6,0,0.7
		c0,0.1,0,0.1,0,0.2c0,0.1,0,0.1,0,0.2c0,0,0,0.1,0,0.1c0,0.1,0,0.1,0,0.2c0,0.1-1,0.1-1,0.2c0,0.1,0,0.1,0,0.2c0,0,0-0.1-0.1-0.1
		c0,0.1,0.1,0.2,0,0.2c0,0,0,0,0,0s0,0.5,0,0.5c0,0.1-0.2,0.1-0.3,0.2c-0.3,0.4-0.7,0.8-0.7,1.1c0,0.1,0,0.2,0,0.3
		c1-0.5,2.8-1.2,4.3-1.2c0.1,0-0.3,0,0.7,0v-1l0,0l0,0l0,0l0,0l0,0c0,0,0,0.1,0,0.1c1,0,1-0.1,1-0.1c0,0,0-0.1,0-0.1
		c0,0.1,0.3,0.1,0.4,0.1c0,0-0.4,0,0.6,0c0,0,0,0.2,0,0.3c0,0.1,0,0.1,0,0.2c0,0.1,0,0.1,0,0.2c0,0.1,0,0.1,0,0.2c0,0.1,0,0.2,0,0.2
		c0,0.1,0.3,0.1,0.4,0.2c0,0.1,0.2,0.2,0.2,0.3c0.1,0,0.3,0.1,0.3,0.1c0,0.1,0,0.1,0,0.2c0,0.1,0,0.1,0,0.2c0,0.1,0,0.1,0,0.2
		c0,0.1,0,0.1,0,0.2c0,0.1,0,0.1,0,0.2c1,0.1,1,0.1,1,0.2c0,0.1,0,0.2,0,0.2c0,0.1,0,0.2,0,0.2c0,0.1,0,0.1,0,0.2c0,0.1,0,0.1,0,0.2
		c0,0.1,0,0.1,0,0.2c0,0.1,1,0.1,1,0.2c0,0.1,0,0.1,0,0.2c0,0.1,0,0.1,0,0.2c0,0.1,0,0.1,0,0.1s0.1,0,0.1,0c0.1,0,0.1,0,0.2,0
		c0,0-0.3,0-0.3,0c0-1,0-2.1,0-3.4c0-0.4,0.1-1.2-0.1-1.4c0-0.5,0.1-1.5,0.1-1.8c0,0,0-0.1,0-0.1c1,0,1-0.1,1-0.1c0,0,0-0.3,0-0.3
		l0,0l0,0c1,0,1,0,1,0l0,0l0,0c0,0,0-0.2,0-0.2c0,0,0-0.1,1-0.1c0,0,0,0.3,0,0.3l0,0c0,0,0-0.5,0-0.5c0,0,0-0.1,1-0.1
		c0,0,0-0.4,0-0.4l0,0l0,0l0,0l0,0c0,0,0,0,1,0l0,0l0,0l0,0l0,0c0,0,0-0.2,0-0.3c1-0.2,1.3-0.2,1.7-0.5c0.1-0.1-0.1,0,0-0.1
		c-0.5-0.1-0.6-0.3-1.6-0.4C69,83.6,69,84,69,84z"/>
	<path fill="#6ABA94" d="M57.5,98.8c0.1,0,0.2-0.3,0.3-0.4c0-0.1,0.1,0.5,0.1-0.5c0.1,0,0.1,0,0.2,0c0.1,0,0.1,0,0.2,0
		c0.1,0,0.1,0,0.2,0c0.1,0,0.1,0,0.2,0c0.1,0,0.1,0,0.2,0c0.1,0,0.1,0,0.2,0c0.1,0,0.1,0,0.2,0c0.1-1,0.1-1,0.2-1c0.1,0,0.1,0,0.2,0
		c0.1,0,0.1,0,0.2,0c0.1,0,0.1,0,0.2,0c0,0,0.1-0.2,0.1-0.3c0.1,0,0.2-0.2,0.3-0.2c0.1-0.1,0.1-0.5,0.2-0.5c0.1,0,0.1,0,0.1,0
		s0,0.1,0,0.1c0-0.2,0.6-0.4,0.8-0.6c0-0.2,0.2-0.5,0.2-0.5c0,0,0.1,0,0.1,0c0.2-1-0.5-1.7-0.7-2c-0.1-0.1-0.4-0.2-0.4-0.3
		c0-0.1,0-0.1,0-0.2c0-0.1,0-0.1,0-0.2c0-0.1,0-0.1,0-0.2c0-0.1,0-0.1,0-0.2c0-0.1,0-0.1,0-0.2c-1,0-0.4-0.1-0.4-0.1
		c-0.1-0.2-0.6-0.4-0.8-0.5c-0.1,0,0.2-0.1-0.8-0.1c0,0,0-0.1,0-0.1c0-0.3-1.6,0.3-2.2,0.3c-0.1,0,0.2,0-0.8,0l0,0l0,0c0,1,0,1,0,1
		l0,0l0,0l0,0l0,0c-1,0-1,0-1,0l0,0l0,0l0,0l0,0l0,0c-1,0-1,0-1,0l0,0l0,0l0,0l0,0l0,0c-1,0-1,0-1,0c0,1,0,1,0,1l0,0
		c0,0,0-0.3,0-0.3c0,0-0.6-0.1-0.9-0.1c-0.2-0.2-0.6-0.4-0.8-0.7c-0.1-0.2-0.3-0.2-0.3-0.3c0-0.4,0-0.6,0-1.6c0,0,0.1,0,0.2,0
		c0,0-0.2-0.1-0.1-0.2c0.1,0,0,0.1,0,0.1c0-0.1,0-0.1,0-0.2c1,0,1-0.1,1-0.1c0-0.1,0-0.1,0-0.2c0-0.1,0-0.1,0-0.2c0-0.1,0-0.1,0-0.2
		c0,0,0.1-0.3,0.2-0.3c0-0.1,0.1,0.5,0.1-0.5c0,0-0.3,0-0.3,0s0,0.3,0,0.2c1-0.1,1-0.2,1-0.2c0-0.1,0-0.1,0-0.2c0,0,0-0.1,0-0.1
		c0-0.1,0-0.1,0-0.2c0-0.1,0-0.1,0-0.2c0-0.1,0-0.1,0-0.2c0,0,0.3,0.1,0.4,0.1c0-0.1,0.2-0.1,0.2-0.1c0,0,0.4,0,0.4,0s0-0.6,0-0.6
		c0-0.1,0-0.2,0-0.2c0-0.1,0-0.1,0-0.2c0,0,0-0.1,0-0.1c0-0.1,0-0.2,0-0.2c0,0,0.3,0.1,0.3,0c0.2-0.4,0.5-1.6,0.3-1.6
		c0,0-0.1,0-0.1,0c0,0-0.2-0.4-0.2-0.6c-0.1,0-0.3-0.2-0.3-0.2c0-0.1,0-0.1,0-0.2s0-0.1,0-0.2c0-0.1,0-0.1,0-0.2c0-0.1,0-0.1,0-0.2
		c0-0.1,0-0.1,0-0.2c-1-0.1-0.4-0.2-0.5-0.2c-0.3-0.4-0.8-1-1.3-1.1C52,80.6,52,80.6,51,80.6c0,0,0,0.1,0,0.1c0,0,0,0.1,0,0.1
		c0,0,0,0.2,0,0.2s-0.4,0-0.5,0c0,0-0.1,0-0.1,0c-0.1,0-0.1,0-0.2,0c-0.1,0-0.1,0-0.2,0s-0.1,0-0.2,0c-0.1,1-0.1,1-0.2,1
		c-0.1,0-0.1,0-0.2,0c-0.1,0-0.1,0-0.2,0s-0.1,0-0.2,0c-0.1,0-0.1,0-0.2,0c-0.1,0-0.1,0-0.2,0c-0.1,1-0.1,1-0.2,1
		c-0.1,0-0.1,0-0.2,0c-0.1,0-0.1,0-0.2,0c-0.1,0-0.1,0-0.2,0c-0.1,0-0.1,0-0.2,0c-0.1,0-0.1,0-0.2,0c-0.1,1-0.1,1-0.2,1
		c-0.1,0-0.1,0-0.2,0c-0.1,0-0.1,0-0.2,0c-0.1,0-0.1,0-0.2,0c-0.1,0-0.1,0-0.2,0c-0.1,0-0.1,0-0.2,0c-0.1,1-0.1,1-0.2,1
		c-0.1,0-0.1,0-0.2,0c-0.1,0-0.1,0-0.2,0c-0.1,0-0.1,0-0.2,0c-0.1,0-0.1,0-0.2,0c-0.1,0-0.1,0-0.2,0c-0.1,0-0.1,0.4-0.2,0.5
		c-0.1,0-0.2,0.2-0.3,0.2c0,0.1-0.1,0.3-0.1,0.3c-0.1,0-0.1,0-0.2,0c-0.1,0-0.1,0.2-0.2,0.3c-0.1,0-0.2,0.2-0.3,0.3
		c0,0.1-0.1,0.4-0.1,0.4c-0.1,0-0.1,0-0.2,0c-0.1,0-0.1,0-0.2,0c-0.1,0-0.1,0-0.2,0c-0.1,0-0.1,0-0.2,0c-0.1,0-0.1,0-0.2,0
		c-0.1,0-0.1,1-0.2,1c-0.1,0-0.1,0-0.2,0c-0.1,0-0.1,0.1-0.2,0.2c-0.1,0-0.2-0.2-0.3-0.1c0,0.1-0.1,0-0.1,0c-0.1,0-0.1,0-0.2,0
		c-0.1,0-0.1,1-0.2,1c-0.1,0-0.1,0-0.2,0c-0.1,0-0.1,0-0.2,0c-0.1,0-0.1,0-0.2,0c-0.1,0-0.1,0-0.2,0c-0.1,0-0.1,0-0.2,0
		s-0.1,1-0.2,1c-0.1,0-0.1,0-0.2,0c-0.1,0-0.1,0-0.2,0c-0.1,0-0.1,0-0.2,0c-0.1,0-0.1,0.2-0.2,0.3c-1.1,0.8-2.1,1.5-3.1,2.3
		c3.1,5.4,7.2,10.2,12,14c3.3-2.5,6.6-5.1,9.9-7.5C57.4,99,57.5,98.9,57.5,98.8z"/>
	<path fill="#44475A" d="M127.1,68.6c0-1.9-0.1-3.9-0.3-5.7c-0.1-1.3-0.3-2.6-0.6-3.8C121.9,34.6,101,16.1,76,16.1
		c-25,0-45.9,18.5-50.3,42.9c-0.2,1.3-0.4,2.5-0.6,3.8c-0.2,1.9-0.3,3.8-0.3,5.7c0,28.9,22.9,52.5,51.2,52.5
		C104.2,121.1,127.1,97.5,127.1,68.6z M76,116.7c-2.3,0-4.6-0.2-6.8-0.5c-7.1-1.1-13.6-3.7-19.3-7.6c-0.9-0.6-1.7-1.2-2.5-1.9
		c-4.8-3.8-8.9-8.6-12-14c-4-7.1-6.3-15.3-6.3-24c0-0.9,0-1.9,0.1-2.8c0-0.6,0.1-1.2,0.1-1.8C31.6,39.6,51.6,20.5,76,20.5
		c24.8,0,45.1,19.8,46.7,44.8c0.1,0.9,0.1,1.8,0.1,2.7c0,0.2,0,0.4,0,0.6C122.8,95.1,101.8,116.7,76,116.7z"/>
</g>
</svg>
