<?xml version="1.0" encoding="utf-8"?>
<!-- Generator: Adobe Illustrator 18.1.0, SVG Export Plug-In . SVG Version: 6.00 Build 0)  -->
<svg version="1.0" id="Layer_1" xmlns="http://www.w3.org/2000/svg" xmlns:xlink="http://www.w3.org/1999/xlink" x="0px" y="0px"
	 viewBox="0 0 150 150" enable-background="new 0 0 150 150" xml:space="preserve">
<g>
	<path fill="#FAAD31" d="M65.5,121.4L84,91.6c1-1.6,1.8-2.7,2.6-3.5c1.1-1.1,2.4-2,3.9-2.5c1.6-0.6,3.9-0.7,6.8-0.3l1.1,0.4
		c4.4,1.6,7.7,2.5,10.1,2.6c2.3,0.1,4.7-0.4,7.3-1.6c3.4-1.6,6.8-5.2,10.2-10.7l14.6-23.5l3.3,1.2l-5.6-10.2l-13.8,3.1l3.3,1.2
		l-18.5,29.8c-1,1.6-1.8,2.7-2.6,3.5c-1.1,1.1-2.4,2-3.9,2.5c-1.6,0.6-3.9,0.7-6.8,0.3l-1.1-0.4c-4.4-1.6-7.7-2.5-10.1-2.6
		c-2.3-0.1-4.7,0.4-7.3,1.6c-3.4,1.6-6.8,5.2-10.2,10.7l-14.6,23.5l-3.3-1.2l5.6,10.2l13.8-3.1L65.5,121.4z"/>
	<path fill="#00AFE2" d="M44.1,116.6l20.8-33.2c1-1.6,1.8-2.7,2.6-3.5c1.1-1.1,2.4-2,3.9-2.5c1.6-0.6,3.9-0.7,6.8-0.3l1.1,0.4
		c4.4,1.6,7.7,2.5,10.1,2.6c2.3,0.1,4.7-0.4,7.3-1.6c3.4-1.6,6.8-5.2,10.2-10.7l14.6-23.5l3.3,1.2l-5.6-10.2l-13.8,3.1l3.3,1.2
		L90.3,69.2c-1,1.6-1.8,2.7-2.6,3.5c-1.1,1.1-2.4,2-3.9,2.5c-1.6,0.6-3.9,0.7-6.8,0.3l-1.1-0.4c-4.4-1.6-7.7-2.5-10.1-2.6
		c-2.3-0.1-4.7,0.4-7.3,1.6c-3.4,1.6-6.8,5.2-10.2,10.7L29,116.1l6.9,1.3L44.1,116.6z"/>
	<path fill="#88B940" d="M97.5,27.1l-13.8,3.1l3.3,1.2L68.5,61.2c-1,1.6-1.8,2.7-2.6,3.5c-1.1,1.1-2.4,2-3.9,2.5
		c-1.6,0.6-3.9,0.7-6.8,0.3L54,67.2c-4.4-1.6-7.7-2.5-10.1-2.6c-2.3-0.1-4.7,0.4-7.3,1.6c-3.4,1.6-6.8,5.2-10.2,10.7L17.7,91
		c0.9,2,1.3,4.3,1.3,6.5v1.3c0,2.3-0.5,4.5-1.4,6.6c0.3,2.7-0.2,5.5-1.5,7.9l2.1,4l24.8-42c1-1.6,1.8-2.7,2.6-3.5
		c1.1-1.1,2.4-2,3.9-2.5c1.6-0.6,3.9-0.7,6.8-0.3l1.1,0.4c4.4,1.6,7.7,2.5,10.1,2.6c2.3,0.1,4.7-0.4,7.3-1.6
		c3.4-1.6,6.8-5.2,10.2-10.7l14.6-23.5l3.3,1.2L97.5,27.1z"/>
	<path fill="#01528F" d="M75.6,109.2v5.5H19.3V31.3h56.3v13l4.3-7V21.8c0-5.5-4.4-9.9-9.9-9.9H24.9c-5.5,0-9.9,4.4-9.9,9.9v108
		c0,5.5,4.4,9.9,9.9,9.9h45.2c5.5,0,9.9-4.4,9.9-9.9v-27.6L75.6,109.2z M39,19.1h17c0.5,0,0.9,0.6,0.9,1.3c0,0.7-0.4,1.3-0.9,1.3H39
		c-0.5,0-0.9-0.6-0.9-1.3C38.1,19.7,38.5,19.1,39,19.1z M47.5,132.4c-3.2,0-5.7-2.6-5.7-5.7c0-3.2,2.6-5.7,5.7-5.7
		c3.2,0,5.7,2.6,5.7,5.7C53.2,129.9,50.6,132.4,47.5,132.4z"/>
</g>
</svg>
