<?xml version="1.0" encoding="utf-8"?>
<!-- Generator: Adobe Illustrator 18.1.0, SVG Export Plug-In . SVG Version: 6.00 Build 0)  -->
<svg version="1.1" id="Layer_1" xmlns="http://www.w3.org/2000/svg" xmlns:xlink="http://www.w3.org/1999/xlink" x="0px" y="0px"
	 viewBox="0 0 150 150" enable-background="new 0 0 150 150" xml:space="preserve">
<g>
	<g>
		<path fill="none" d="M105,71.1c1.2,0.1,2.4,0.3,3.5,0.6V43c-1.1,0.3-2.3,0.6-3.5,0.9V71.1z"/>
		<path fill="none" d="M37.5,60.7c-0.4,0.2-0.8,0.3-1.2,0.5c-0.4,0.2-0.8,0.4-1.2,0.6v0.2c1-0.5,2-0.9,3.1-1.3V41.9
			c0-0.7,0.6-1.4,1.3-1.4c26.2,0,30.8-10.3,30.8-10.4c0.2-0.5,0.7-0.8,1.2-0.8h0c0.5,0,1,0.3,1.2,0.9c0,0.1,4.5,10.4,30.8,10.4
			c0.7,0,1.3,0.6,1.3,1.4V42c1.2-0.3,2.4-0.5,3.5-0.7v-3.7c0-0.8-0.6-1.5-1.4-1.5c-28.9,0-33.8-11.3-33.9-11.4
			c-0.2-0.6-0.7-0.9-1.3-0.9c0,0,0,0,0,0c-0.6,0-1.1,0.4-1.3,0.9c0,0.1-5,11.4-33.9,11.4c-0.8,0-1.4,0.7-1.4,1.5v22.3
			c0.7-0.3,1.4-0.6,2.2-0.9C37.4,59.5,37.5,60.1,37.5,60.7z"/>
		<path fill="none" d="M105,43.2c1.2-0.3,2.4-0.6,3.5-0.9v-0.4c-1.1,0.3-2.3,0.5-3.5,0.8V43.2z"/>
		<path fill="none" d="M38.2,63.6v-1.1c-0.6,0.3-1.2,0.5-1.8,0.8c-0.4,0.2-0.8,0.4-1.2,0.6v2c0.2-0.2,0.4-0.3,0.6-0.5
			C36.5,64.8,37.3,64.2,38.2,63.6z"/>
		<path fill="none" d="M36.9,90.2c0.5,0.4,1.1,0.7,1.6,1.1c0,0,0,0,0.1,0c-0.2-1.1-0.3-2.1-0.3-3.2v-5.6c-0.7-0.5-1.4-1.1-2.1-1.6
			c-0.3-0.3-0.7-0.6-1-0.9v8.3c0,0.3,0,0.5,0,0.8c0,0,0.1,0.1,0.1,0.1C35.8,89.5,36.3,89.8,36.9,90.2z"/>
		<path fill="none" d="M20.5,74.1l-0.5,0.8l-0.3,0.4c-0.1,0.1-0.1,0.3-0.2,0.4L19,76.6c-0.1,0.3-0.2,0.6-0.2,0.9L18.7,78
			c0,0.1,0,0.3,0,0.4l0,0.9l0.1,0.8l0.1,0.4L19,81c0.8,2.3,2.7,4.5,4.8,6.5c0.4,0.4,0.8,0.7,1.2,1.1V69.8
			C23.2,71.1,21.6,72.5,20.5,74.1z"/>
		<path fill="none" d="M24.4,65.5c0.2-0.1,0.4-0.3,0.6-0.4V65C24.8,65.2,24.6,65.4,24.4,65.5z"/>
		<path fill="none" d="M35.2,70.7v3.6c0.1,0.4,0.4,0.7,0.5,1c0.6,1,1.5,2,2.5,2.9V66.9C36.8,68.1,35.7,69.4,35.2,70.7z"/>
		<path fill="#132118" d="M24.4,65.5c0.2-0.2,0.4-0.4,0.6-0.6v-2.4c-2,1.3-3.8,2.8-5.2,4.6L19.2,68l-0.3,0.4
			c-0.1,0.1-0.2,0.3-0.2,0.4l-0.4,0.9c-0.1,0.3-0.2,0.6-0.3,0.9l-0.1,0.5c0,0,0,0.1,0,0.1l0.1-0.2C19.7,69,21.9,67.2,24.4,65.5z"/>
		<path fill="#132118" d="M31.1,63.8c1.3-0.6,2.6-1.3,3.9-1.8c0,0,0.1,0,0.1,0v-0.2C33.8,62.4,32.4,63.1,31.1,63.8z"/>
		<path fill="#132118" d="M34.7,89.5c-0.5-0.4-0.8-0.8-1.2-1.1c-0.8-0.7-1.5-1.4-2.1-1.9c-0.6-0.6-1.1-1.1-1.5-1.6
			c-0.8-0.9-1.3-1.4-1.3-1.4S29,84,30,84.8c0.5,0.4,1,0.9,1.7,1.5c0.7,0.5,1.5,1.1,2.3,1.8c0.4,0.3,0.8,0.6,1.2,0.9
			c0-0.3,0-0.5,0-0.8v-8.3c-1.1-1.1-2.2-2.3-2.9-3.7c-0.5-0.9-0.9-1.8-1-2.8c-0.1-0.4,0-1,0-1.5c0.1-0.5,0.2-1,0.4-1.5
			c0.7-1.7,2-3.2,3.5-4.6v-2c-2.7,1.3-5.4,2.7-7.8,4.2c-0.8,0.5-1.6,1.1-2.4,1.7v18.8c1.8,1.6,3.7,3.2,5.7,4.7
			c2.3,1.7,4.7,3.3,7,4.9c-1.3-2.6-2.2-5.4-2.5-8.2C35.1,89.8,34.9,89.6,34.7,89.5z"/>
		<path fill="#132118" d="M35,71.1c-0.2,0.4-0.2,0.7-0.3,1.1c0,0.3-0.1,0.6,0.1,1.1l0.1,0.3l0,0l0,0l0,0.1l0.2,0.5l0,0v-3.6
			C35.1,70.8,35.1,70.9,35,71.1z"/>
		<path fill="#132118" d="M73.6,124.9c-0.6,0.3-1.1,0.5-1.2,0.6c-0.2,0.1-0.4,0.1-0.6,0.1c-0.2,0-0.4,0-0.6-0.1
			c-1-0.5-19-8.7-29.2-21c-4.6-2.9-9.3-6.1-13.9-9.6c-1-0.8-2.1-1.7-3.1-2.5c0.4,26.3,44.2,46.4,46.1,47.2c0.2,0.1,0.5,0.2,0.8,0.2
			c0.2,0,0.5,0,0.7-0.2c0.6-0.3,4.9-2.3,10.8-5.6C79.5,131.6,76.2,128.5,73.6,124.9z"/>
		<path fill="#132118" d="M29.4,59.9c0.9,0.2,1.8,0.4,2.8,0.4c-1.4,0.7-2.8,1.5-4.1,2.3C27,63.4,25.9,64.2,25,65v0.1
			c0.2-0.1,0.4-0.3,0.7-0.4c2.9-1.8,6.1-3.4,9.4-4.8c0,0,0.1,0,0.1,0V37.5c0-0.8,0.6-1.5,1.4-1.5c28.8,0,33.8-11.3,33.9-11.4
			c0.2-0.6,0.8-0.9,1.3-0.9c0,0,0,0,0,0c0.6,0,1.1,0.4,1.3,0.9c0,0.1,4.9,11.4,33.9,11.4c0.8,0,1.4,0.7,1.4,1.5v3.7
			c0.7-0.1,1.4-0.3,2.1-0.4c0.3-0.1,0.6-0.1,0.9-0.2c0.5-0.1,1-0.2,1.5-0.3l0,0l0,0c0,0.1,0,0.1,0.1,0.2c0,0.1,0.1,0.2,0.1,0.3
			c-0.5,0.1-0.9,0.2-1.4,0.3c-1,0.2-2.1,0.5-3.2,0.7v0.4c0.5-0.1,0.9-0.2,1.4-0.3c1.1-0.3,2.2-0.5,3.3-0.8c0.1,0.2,0.1,0.3,0.2,0.5
			c-1,0.3-2.1,0.6-3.2,0.8c-0.5,0.1-1.1,0.3-1.7,0.4v28.7c3.6,0.8,7.1,2.2,10.2,4V27.2c0-1-0.8-1.9-1.8-1.9
			c-37,0-43.2-14.4-43.3-14.6c-0.3-0.7-0.9-1.2-1.7-1.2c0,0,0,0,0,0c-0.7,0-1.4,0.5-1.7,1.2c-0.1,0.2-6.4,14.6-43.3,14.6
			c-1,0-1.8,0.9-1.8,1.9v35.4c0.5-0.4,1-0.7,1.6-1C27.5,61,28.4,60.5,29.4,59.9z"/>
		<path fill="#132118" d="M28.1,62.7c1.3-0.8,2.6-1.6,4.1-2.3c-1-0.1-1.9-0.2-2.8-0.4c-1,0.5-1.9,1.1-2.8,1.6
			c-0.5,0.3-1.1,0.7-1.6,1V65C25.9,64.2,27,63.4,28.1,62.7z"/>
		<g>
			<path fill="#104222" d="M67,104.6c-0.9-0.3-2-0.7-3.1-1.1c-1.1-0.4-2.4-0.9-3.6-1.3c-1.3-0.5-2.6-1-4-1.6
				c-1.3-0.6-2.8-1.2-4.1-1.8c-1.4-0.7-2.8-1.3-4.2-2c-0.7-0.4-1.4-0.7-2.1-1.1c-0.7-0.4-1.3-0.7-2-1.1c-0.6-0.4-1.3-0.7-1.9-1.1
				c-0.6-0.4-1.2-0.8-1.8-1.1c-0.6-0.4-1.2-0.7-1.7-1.1c0,0,0,0-0.1,0c-0.5-0.4-1.1-0.7-1.6-1.1c-0.5-0.4-1-0.7-1.5-1
				c0,0-0.1-0.1-0.1-0.1c-0.4-0.3-0.8-0.6-1.2-0.9c-0.9-0.7-1.6-1.3-2.3-1.8c-0.6-0.6-1.2-1.1-1.7-1.5c-0.9-0.8-1.5-1.3-1.5-1.3
				s0.5,0.5,1.3,1.4c0.4,0.4,0.9,1,1.5,1.6c0.6,0.6,1.4,1.2,2.1,1.9c0.4,0.4,0.8,0.7,1.2,1.1c0.2,0.1,0.4,0.3,0.5,0.4
				c0.3,0.2,0.6,0.5,0.9,0.7c0.5,0.4,1,0.8,1.5,1.2c0.4,0.3,0.8,0.6,1.3,0.9c0.1,0.1,0.3,0.2,0.4,0.3c0.6,0.4,1.1,0.8,1.7,1.2
				c0.6,0.4,1.2,0.8,1.8,1.2c0.6,0.4,1.2,0.8,1.9,1.2c0.7,0.4,1.3,0.8,2,1.2c1.3,0.8,2.7,1.5,4,2.3c1.3,0.7,2.7,1.4,4,2.1
				c1.3,0.6,2.6,1.3,3.9,1.9c1.2,0.6,2.4,1.1,3.6,1.6c1.1,0.5,2.2,0.9,3.1,1.3c0.8,0.3,1.4,0.6,2.1,0.8c0,0,0-0.6,0,0
				c0,0.2,0.1,0.2,0,0c0-0.3,0-0.6-0.1-0.9c0-0.7-0.1-1.3-0.1-2c0-0.1,0-0.2,0-0.3C67.1,104.6,67.1,104.6,67,104.6z"/>
			<path fill="#104222" d="M69,82.4c-1.1-0.3-2.2-0.7-3.3-1.1c-1.1-0.4-2.2-0.7-3.3-1.1c-1.1-0.4-2.1-0.8-3.1-1.2
				c-1-0.4-1.9-0.8-2.8-1.1c-0.9-0.4-1.7-0.8-2.5-1.1c-0.7-0.4-1.4-0.7-2-1c-0.6-0.3-1.1-0.6-1.5-0.8c-0.8-0.5-1.3-0.7-1.3-0.7
				s0.4,0.3,1.2,0.8c0.4,0.3,0.8,0.6,1.4,0.9c0.6,0.3,1.2,0.7,1.9,1.2c0.7,0.4,1.5,0.8,2.3,1.3c0.9,0.4,1.7,0.9,2.7,1.4
				c1,0.5,1.9,0.9,2.9,1.4c1,0.5,2,0.9,3.1,1.4c1.1,0.4,2.1,0.9,3.2,1.3c1,0.4,2.1,0.8,3.1,1.2c0.7,0.3,1.4,0.5,2,0.8
				c0.5-0.7,1-1.4,1.5-2c-0.7-0.2-1.4-0.4-2.2-0.6C71.1,83.1,70.1,82.7,69,82.4z"/>
			<path fill="#104222" d="M59.9,111.4c-4.5-2.5-9.3-5.2-14.3-8.2c-0.7-0.4-1.3-0.8-2-1.2c-2-1.2-4-2.5-5.9-3.8
				c-2.4-1.6-4.7-3.2-7-4.9c-2-1.5-3.9-3-5.7-4.7c-0.4-0.4-0.8-0.7-1.2-1.1c-2.1-2-4-4.2-4.8-6.5l-0.2-0.5l-0.1-0.4l-0.1-0.8l0-0.9
				c0-0.1,0-0.3,0-0.4l0.1-0.4c0.1-0.3,0.1-0.6,0.2-0.9l0.4-0.9c0.1-0.1,0.1-0.3,0.2-0.4l0.3-0.4l0.5-0.8c1.2-1.5,2.7-3,4.5-4.3
				c0.8-0.6,1.6-1.1,2.4-1.7c2.4-1.6,5-2.9,7.8-4.2c0.4-0.2,0.8-0.4,1.2-0.6c0.6-0.3,1.2-0.6,1.8-0.8c1-0.4,2-0.9,3-1.3
				c1.6-0.7,3.3-1.3,4.9-1.9c0.4-0.1,0.7-0.3,1.1-0.4c-1.9,0.8-3.7,1.7-5.5,2.7c-1.2,0.7-2.4,1.4-3.5,2.1c-0.9,0.6-1.7,1.2-2.5,1.8
				c-0.2,0.2-0.4,0.3-0.6,0.5c-1.5,1.3-2.9,2.8-3.5,4.6c-0.2,0.5-0.3,1-0.4,1.5c0,0.5-0.1,1.1,0,1.5c0.1,1.1,0.5,1.9,1,2.8
				c0.8,1.4,1.8,2.6,2.9,3.7c0.3,0.3,0.7,0.6,1,0.9c0.7,0.6,1.4,1.1,2.1,1.6c0.9,0.7,1.8,1.3,2.8,1.9c1.7,1.1,3.3,2,5,2.9
				c3.3,1.8,6.5,3.2,9.3,4.4c2.9,1.2,5.4,2.2,7.5,3c2.1,0.8,3.8,1.4,5,1.8c0.1,0,0.2,0.1,0.3,0.1c0.3-1.2,0.7-2.4,1.1-3.5
				c-1.1-0.3-2.5-0.8-4.1-1.4C63,91,60.5,90.1,57.7,89c-2.8-1.1-5.9-2.5-9.1-4.1c-1.6-0.8-3.2-1.7-4.8-2.6c-1.6-1-3.1-2-4.6-3.2
				c-0.3-0.3-0.7-0.6-1-0.9c-1-0.9-1.9-1.9-2.5-2.9c-0.2-0.3-0.4-0.7-0.5-1l0,0l-0.2-0.5l0-0.1l0,0l0,0l-0.1-0.3
				c-0.1-0.5,0-0.7-0.1-1.1c0.1-0.4,0.1-0.7,0.3-1.1c0-0.1,0.1-0.2,0.1-0.3c0.5-1.3,1.7-2.6,3.1-3.8c0,0,0,0,0.1,0
				c1.5-1.3,3.4-2.5,5.4-3.7c4-2.3,8.5-4.3,13.2-6.1c4.7-1.8,9.5-3.5,14.3-5c4.8-1.5,9.7-2.9,14.4-4.2c6.8-1.9,13.4-3.5,19.4-5
				c1.2-0.3,2.4-0.6,3.5-0.8c1.1-0.3,2.1-0.5,3.2-0.7c0.5-0.1,0.9-0.2,1.4-0.3c0-0.1-0.1-0.2-0.1-0.3c0-0.1-0.1-0.1-0.1-0.2l0,0l0,0
				c-0.5,0.1-1,0.2-1.5,0.3c-0.3,0.1-0.6,0.1-0.9,0.2c-0.7,0.1-1.4,0.3-2.1,0.4c-1.1,0.2-2.3,0.5-3.5,0.7c-0.7,0.1-1.3,0.3-2,0.4
				c-5.5,1.2-11.5,2.5-17.8,4.1c-6.3,1.5-12.9,3.2-19.6,5.1c-6.7,1.9-13.6,4-20.4,6.4c-1.7,0.6-3.4,1.3-5.1,1.9
				c-0.6,0.3-1.2,0.5-1.8,0.8c-1,0.4-2.1,0.8-3.1,1.3c0,0,0,0,0,0c-1.4,0.6-2.7,1.2-4,1.8c-1.9,0.9-3.7,1.9-5.5,3
				c-0.2,0.1-0.4,0.3-0.7,0.4c-2.7,1.7-5.2,3.6-7,5.9l-0.7,1L17,74.6c-0.1,0.2-0.2,0.3-0.3,0.5l-0.3,0.6l-0.2,0.4
				c-0.1,0.3-0.2,0.7-0.3,1.1l-0.1,0.5c0,0.2,0,0.4-0.1,0.5l-0.1,1.1c0,0.4,0.1,0.8,0.1,1.1l0.1,0.6l0.2,0.5l0.3,1
				c0.1,0.2,0,0.1,0.1,0.1l0,0.1l0.1,0.1l0.1,0.2l0.3,0.5c0.3,0.7,0.8,1.3,1.2,1.9c0.9,1.2,1.9,2.3,3,3.4c1.2,1.2,2.6,2.4,3.9,3.5
				c1,0.9,2.1,1.7,3.1,2.5c4.6,3.5,9.3,6.7,13.9,9.6c0.3,0.2,0.7,0.4,1,0.6c3.8,2.4,7.6,4.7,11.2,6.8c1,0.6,2,1.2,3,1.8
				c5.3,3,10.1,5.7,14.2,7.9c-0.9-1.7-1.7-3.5-2.4-5.3C66.2,114.8,63.2,113.1,59.9,111.4z"/>
			<path fill="#104222" d="M113.2,41.2c-1.1,0.3-2.2,0.5-3.3,0.8c-0.5,0.1-0.9,0.2-1.4,0.3c-1.1,0.3-2.3,0.6-3.5,0.9
				c-2.3,0.6-4.7,1.2-7.2,1.8c-4.3,1.1-8.8,2.3-13.4,3.6c-4.6,1.3-9.4,2.7-14.2,4.3c-1.2,0.4-2.4,0.8-3.6,1.2
				c-1.2,0.4-2.4,0.8-3.5,1.3c-2.4,0.9-4.7,1.9-6.9,3c-0.6,0.3-1.1,0.6-1.6,0.9c-0.5,0.3-1,0.6-1.6,1c-1,0.7-2,1.4-2.7,2.4
				c-0.2,0.2-0.3,0.5-0.5,0.8c-0.1,0.1-0.1,0.3-0.2,0.4l-0.1,0.4c0,0.1-0.1,0.3-0.1,0.4V65c0,0.3,0.1,0.6,0.2,0.9
				c0.4,1.2,1.5,2.1,2.6,2.7c1.1,0.7,2.3,1.2,3.5,1.7c1.2,0.5,2.4,0.9,3.6,1.2c2.4,0.7,4.9,1.3,7.3,1.9c4.8,1.1,9.5,2,13.9,2.8
				c0.6,0.1,1.2,0.2,1.8,0.3c1.2-0.8,2.5-1.6,3.8-2.2c-1.5-0.3-3.1-0.5-4.7-0.8c-4.4-0.7-9.1-1.5-13.8-2.5c-2.4-0.5-4.7-1-7-1.7
				c-1.1-0.3-2.3-0.7-3.4-1.1c-1.1-0.4-2.1-0.8-3-1.4c-0.9-0.5-1.5-1.1-1.8-1.7c-0.3-0.6-0.1-1.3,0.4-1.9c0.5-0.7,1.3-1.3,2.1-2
				c0.4-0.3,0.9-0.6,1.4-0.9c0.5-0.3,1-0.6,1.5-0.8c2-1.1,4.2-2.1,6.5-3c1.1-0.5,2.3-0.9,3.4-1.4c1.2-0.4,2.3-0.9,3.5-1.3
				c4.6-1.6,9.3-3.1,13.9-4.5c4.6-1.4,9-2.7,13.2-3.8c2.3-0.7,4.6-1.3,6.8-1.9c1.2-0.3,2.4-0.6,3.5-0.9c0.6-0.1,1.1-0.3,1.7-0.4
				c1.1-0.3,2.2-0.6,3.2-0.8C113.3,41.5,113.2,41.4,113.2,41.2z"/>
		</g>
		<path fill="#132118" d="M73.6,124.9C73.6,124.9,73.6,124.9,73.6,124.9c2.6,3.6,5.9,6.7,9.7,9.1c0,0,0.1-0.1,0.1-0.1
			C79.6,131.6,76.3,128.5,73.6,124.9z"/>
		<path fill="#132118" d="M71.4,121.6c0.1,0.2,0.2,0.3,0.3,0.5c0,0,0,0,0,0C71.7,121.9,71.6,121.8,71.4,121.6
			C71.5,121.6,71.5,121.6,71.4,121.6z"/>
		<path fill="#132118" d="M71.4,121.6C71.5,121.6,71.5,121.6,71.4,121.6c-0.9-1.7-1.7-3.4-2.4-5.3l0,0
			C69.7,118.1,70.5,119.9,71.4,121.6z"/>
		<path fill="#132118" d="M68.8,101.1c0,0,0-0.1,0-0.1l0,0C68.8,101,68.8,101,68.8,101.1z"/>
		<path fill="#132118" d="M68.4,102.6C68.4,102.6,68.3,102.6,68.4,102.6C68.3,102.6,68.4,102.6,68.4,102.6z"/>
		<g>
			<path fill="#F1CE86" d="M105,71.1V43.9c-2.2,0.6-4.5,1.2-6.8,1.9c-4.2,1.2-8.7,2.5-13.2,3.8c-4.6,1.4-9.2,2.9-13.9,4.5
				c-1.2,0.4-2.3,0.8-3.5,1.3c-1.1,0.4-2.3,0.9-3.4,1.4c-2.3,0.9-4.4,1.9-6.5,3c-0.5,0.3-1,0.6-1.5,0.8c-0.5,0.3-0.9,0.6-1.4,0.9
				c-0.8,0.6-1.6,1.3-2.1,2c-0.5,0.7-0.6,1.3-0.4,1.9c0.2,0.6,0.9,1.2,1.8,1.7c0.9,0.5,1.9,1,3,1.4c1.1,0.4,2.2,0.7,3.4,1.1
				c2.3,0.6,4.7,1.2,7,1.7c4.7,1,9.4,1.7,13.8,2.5c1.6,0.3,3.1,0.5,4.7,0.8c4.6-2.3,9.7-3.6,15.2-3.6
				C102.5,70.9,103.7,70.9,105,71.1z"/>
			<path fill="#F1CE86" d="M43.8,82.3c1.6,1,3.2,1.8,4.8,2.6c3.2,1.6,6.3,2.9,9.1,4.1c2.8,1.1,5.3,2,7.4,2.8c1.7,0.6,3.1,1,4.1,1.4
				c0.9-2.5,2.2-4.9,3.7-7.1c-0.7-0.2-1.3-0.5-2-0.8c-1-0.4-2.1-0.8-3.1-1.2c-1.1-0.4-2.1-0.9-3.2-1.3c-1-0.4-2.1-0.9-3.1-1.4
				c-1-0.5-2-0.9-2.9-1.4c-0.9-0.5-1.8-0.9-2.7-1.4c-0.8-0.5-1.6-0.9-2.3-1.3c-0.7-0.4-1.3-0.8-1.9-1.2c-0.6-0.3-1-0.7-1.4-0.9
				c-0.7-0.5-1.2-0.8-1.2-0.8s0.5,0.3,1.3,0.7c0.4,0.2,0.9,0.5,1.5,0.8c0.6,0.3,1.3,0.6,2,1c0.8,0.3,1.6,0.7,2.5,1.1
				c0.9,0.4,1.9,0.8,2.8,1.1c1,0.4,2,0.8,3.1,1.2c1.1,0.4,2.2,0.8,3.3,1.1c1.1,0.4,2.2,0.7,3.3,1.1c1.1,0.3,2.2,0.7,3.2,1
				c0.7,0.2,1.5,0.4,2.2,0.6c2.2-2.8,4.9-5.3,7.9-7.3c-0.6-0.1-1.2-0.2-1.8-0.3c-4.4-0.8-9.1-1.7-13.9-2.8c-2.4-0.5-4.8-1.2-7.3-1.9
				c-1.2-0.4-2.4-0.8-3.6-1.2c-1.2-0.5-2.4-1-3.5-1.7c-1.1-0.7-2.1-1.6-2.6-2.7c-0.1-0.3-0.2-0.6-0.2-0.9v-0.4
				c0-0.1,0.1-0.3,0.1-0.4l0.1-0.4c0-0.1,0.1-0.3,0.2-0.4c0.1-0.3,0.3-0.5,0.5-0.8c0.7-1,1.7-1.7,2.7-2.4c0.5-0.3,1-0.7,1.6-1
				c0.5-0.3,1.1-0.6,1.6-0.9c2.2-1.1,4.5-2.1,6.9-3c1.2-0.5,2.4-0.9,3.5-1.3c1.2-0.4,2.4-0.8,3.6-1.2c4.8-1.6,9.5-3,14.2-4.3
				c4.6-1.3,9.2-2.5,13.4-3.6c2.5-0.6,4.9-1.2,7.2-1.8v-0.4c-6,1.5-12.6,3.1-19.4,5c-4.7,1.3-9.5,2.7-14.4,4.2
				c-4.8,1.5-9.7,3.2-14.3,5c-4.7,1.8-9.2,3.8-13.2,6.1c-2,1.1-3.9,2.4-5.4,3.7c0,0,0,0-0.1,0v11.4c0.3,0.3,0.7,0.6,1,0.9
				C40.6,80.3,42.2,81.3,43.8,82.3z"/>
			<path fill="#F1CE86" d="M45.1,58c6.8-2.4,13.7-4.5,20.4-6.4c6.7-1.9,13.3-3.6,19.6-5.1c6.3-1.5,12.3-2.8,17.8-4.1
				c0.7-0.1,1.3-0.3,2-0.4v-0.1c0-0.7-0.6-1.4-1.3-1.4c-26.3,0-30.8-10.3-30.8-10.4c-0.2-0.5-0.7-0.8-1.2-0.9h0
				c-0.5,0-1,0.3-1.2,0.8c0,0.1-4.6,10.4-30.8,10.4c-0.7,0-1.3,0.6-1.3,1.4v18.7c0.6-0.2,1.2-0.5,1.8-0.8
				C41.7,59.2,43.4,58.6,45.1,58z"/>
			<path fill="#F1CE86" d="M42,93.5c0.6,0.4,1.3,0.7,1.9,1.1c0.7,0.4,1.3,0.7,2,1.1c0.7,0.3,1.4,0.7,2.1,1.1c1.4,0.7,2.8,1.4,4.2,2
				c1.4,0.7,2.8,1.2,4.1,1.8c1.4,0.6,2.7,1.1,4,1.6c1.3,0.5,2.5,0.9,3.6,1.3c1.1,0.4,2.2,0.7,3.1,1.1c0,0,0.1,0,0.1,0
				c0-2.7,0.4-5.4,1-8c-0.1,0-0.2-0.1-0.3-0.1c-1.2-0.4-2.9-1-5-1.8c-2.1-0.8-4.7-1.8-7.5-3c-2.9-1.2-6-2.7-9.3-4.4
				c-1.7-0.9-3.3-1.8-5-2.9c-0.9-0.6-1.9-1.2-2.8-1.9v5.6c0,1.1,0.1,2.2,0.3,3.2c0.5,0.4,1.1,0.7,1.7,1.1
				C40.8,92.7,41.4,93.1,42,93.5z"/>
		</g>
	</g>
	<g>
		<path fill="#104222" d="M129,100l-8.8-7.4l-0.8-0.6c-1.7,1.7-6.5,4.1-8.6,4.5l-0.7,12.6c0.7,0.4,1.9,1.3,3.1,2.3
			c0.5,0.5,1.1,0.9,1.6,1.4c1.6,1.4,3,2.9,3.7,3.8l9.6-3.8c-0.2-2.2,0.2-8.8,0.7-11.7C128.8,100.6,128.9,100.2,129,100z"/>
		<path fill="#104222" d="M80,123.2l-0.7-3.3l-1.6-7.3c-1.3-1.4-4.7-6.5-5.2-8.7l-2.4,0.4c0,0.5,0,1,0,1.5c0,6,1.7,11.7,4.6,16.6
			c0.6,0.9,1.2,1.9,1.8,2.7c0.1,0.1,0.2,0.3,0.3,0.5l0.9-0.2l2.6-0.6l-0.1-0.7L80,123.2z"/>
		<path fill="#104222" d="M116.5,81.2c1.3,2,3.5,8.4,3.5,9.7c0,0,0,0.1,0,0.1l0.2,0.1l9.4,7.9c0.7-0.7,1.8-1.6,2.7-2.4
			c0,0,0.1-0.1,0.1-0.1c0.5-0.4,1-0.8,1.4-1c-2.4-7.3-7.3-13.4-13.6-17.4c-0.4-0.3-0.9-0.6-1.3-0.9l0.4,0.3L116.5,81.2z"/>
		<path fill="#104222" d="M99,89.3c0-0.1-0.1-0.2-0.1-0.2c-0.4-1.5,1.6-6.7,2.5-8.9c0-0.1,0.1-0.2,0.1-0.3l-8.6-3.2l-3.3,1.9
			l-7.1,4.1l-1.1,3.6L81,88l-0.2,0.6v0l-1.1,3.7c1.7,0.1,6.2,1.9,7.7,3.1L99,89.3z"/>
		<path fill="#104222" d="M102.8,73.1c-3.3,0-6.5,0.5-9.5,1.4v1.1l2.4,0.9l6.5,2.4c0.8-0.2,2.5-0.1,4.3,0c0.7,0.1,1.5,0.2,2.3,0.3
			c0.4,0.1,0.8,0.1,1.2,0.2c2.5,0.4,4.8,0.8,5.7,1.1l2.6-3.5c-2.6-1.4-5.4-2.5-8.3-3.1c-1.1-0.3-2.3-0.5-3.5-0.6
			C105.3,73.2,104,73.1,102.8,73.1z"/>
		<path fill="#104222" d="M92.5,111.1l2.8,1.9l2.9,1.9c1.5-1.6,8.6-5.8,10.9-6.1l0.7-12.4c-0.3-0.1-0.7-0.2-1.1-0.4
			c-0.9-0.4-2-0.9-3.1-1.6c-2.3-1.3-4.7-3.1-5.9-4.4L88,96.3c0.5,2.1,0,9.4-0.6,11.4L92.5,111.1z"/>
		<path fill="#104222" d="M80.2,82.2c-1,0.9-1.8,1.9-2.7,2.9c-0.6,0.7-1.1,1.4-1.6,2.1c-1.5,2.2-2.7,4.5-3.7,7
			c-0.4,1.2-0.8,2.4-1.1,3.6c0,0.2-0.1,0.4-0.1,0.5c-0.1,0.5-0.2,1-0.3,1.4c-0.1,0.6-0.2,1.2-0.3,1.8l0,0c-0.1,0.5-0.1,0.9-0.1,1.4
			l2.3-0.4c0.7-2,3.8-8,5.9-9.9l0.9-3.2l0.2-0.8l0.1-0.3l0.8-2.7l1-3.3L80.2,82.2z"/>
		<path fill="#104222" d="M128.4,113.8l-9.7,3.8c-0.2,2.1-3.9,9.7-5.6,11.4l1.8,4l1.1,2.6c7.6-3.4,13.7-9.7,16.9-17.5
			c-0.4-0.4-1.1-0.9-1.8-1.6C130.1,115.5,129,114.4,128.4,113.8z"/>
		<path fill="#104222" d="M112.1,129.3c-2.2,0-9.2-0.6-11.3-1.6l-10,6.3v0v2c3.7,1.5,7.8,2.3,12,2.3c4.4,0,8.5-0.9,12.3-2.4
			l-1.2-2.6L112.1,129.3z"/>
		<path fill="#104222" d="M99.4,124.9c-0.4-1.3-0.8-3-1.1-4.7c-0.4-1.7-0.6-3.4-0.5-4.4l-3.3-2.2l-2.8-1.9l-4.8-3.2
			c-1.5,1.3-6.1,3.8-8,4.3l1.4,6.5l0.7,3.3l0.3,1.2l0.3,1.2l7.8,6.9l1.1,1l9.7-6.1C99.9,126.5,99.7,125.8,99.4,124.9z"/>
	</g>
</g>
</svg>
