<?xml version="1.0" encoding="utf-8"?>
<!-- Generator: Adobe Illustrator 18.1.0, SVG Export Plug-In . SVG Version: 6.00 Build 0)  -->
<svg version="1.1" id="Layer_1" xmlns="http://www.w3.org/2000/svg" xmlns:xlink="http://www.w3.org/1999/xlink" x="0px" y="0px"
	 viewBox="0 0 150 150" enable-background="new 0 0 150 150" xml:space="preserve">
<g>
	<path fill="none" d="M52.6,103.6C52.6,103.6,52.6,103.6,52.6,103.6c-1.2-1.2-2.3-2.4-3.4-3.8c-1.1-1.2-1.8-2.6-2.7-3.8
		c1.8,4.2,4.6,8.1,8.1,11.5c0.6,0.1,1.3,0.5,2,1.1c2,1.2,3.9,2.4,6,3.3c0-0.1,0-0.1,0-0.1c-3.6-1.7-6.9-4-9.5-6.9
		C52.5,104.3,52.4,103.8,52.6,103.6z"/>
	<path fill="none" d="M46.8,114.3c0.1-0.2,0.3-0.5,0.5-0.7c-1.9-1.6-3.7-3.4-5.3-5.3c-2.9-3.3-5.4-6.9-7.3-10.9c-0.1,0-0.1,0-0.2,0
		c-0.2,0-0.3,0-0.5,0C36.9,103.7,41.2,109.6,46.8,114.3z"/>
	<path fill="none" d="M37.4,96.8c-0.1-0.1-0.1-0.3-0.2-0.4c0,0,0,0,0,0c0.1,0.2,0.2,0.4,0.3,0.6C37.4,97,37.4,96.9,37.4,96.8z"/>
	<path fill="none" d="M106.6,118.7c-0.6,0.4-1.1,0.8-1.7,1.2c1.3-0.8,2.6-1.7,3.9-2.5C108,117.8,107.3,118.2,106.6,118.7z"/>
	<path fill="none" d="M120.6,94.6c-4.3,7.5-10.5,14.2-17.9,18.7c-2.4,1.7-5.1,3.2-7.9,4.3C106.1,113.9,115.6,105.4,120.6,94.6z"/>
	<path fill="none" d="M33.4,97.2c-0.3-0.1-0.5-0.2-0.7-0.3c1,2,2.1,3.9,3.3,5.8c-0.7-1.3-1.4-2.7-2-4.1
		C33.8,98.1,33.6,97.6,33.4,97.2z"/>
	<path fill="none" d="M53.9,119.1c2.2,1.2,4.4,2.3,6.7,3.2c-1.7-0.8-3.3-1.7-4.9-2.8c-0.5-0.3-1-0.6-1.5-0.9
		C54.1,118.7,54,118.9,53.9,119.1z"/>
	<path fill="none" d="M103.3,120.8c-1.9,1.1-3.9,2.2-6.1,3c1-0.3,2-0.7,2.9-1.1c0.1-0.1,0.1-0.1,0.3-0.2
		C101.3,122,102.3,121.4,103.3,120.8z"/>
	<path fill="none" d="M70.3,118.8c-0.4-0.1-0.7-0.2-1.1-0.3c-0.2,0-0.4-0.1-0.5-0.1C69.2,118.5,69.7,118.7,70.3,118.8z"/>
	<path fill="none" d="M111.4,115.4c2.6-1.9,5-4,7.3-6.2c0.3-0.3,0.5-0.4,0.6-0.3c0.1,0.1-0.1,0.4-0.4,0.8
		c-4.6,4.5-10.1,8.3-15.4,11.6c10.6-5.2,19.4-14,24.4-24.6C123.6,103.8,118,110.3,111.4,115.4z"/>
	<path fill="#00A9DE" d="M38.1,102.9c-0.4-0.6-0.6-1.2-0.4-1.3c0.2-0.1,0.6,0.3,1,0.9c2.5,3.9,5.7,7.5,9.2,10.5
		c0.5-0.4,1.1-0.7,1.7-0.9c-5.2-4.2-9.3-9.4-12.2-15.3c0,0.1,0.1,0.2,0.1,0.3c-0.1-0.2-0.2-0.4-0.3-0.6c-0.7,0.5-1.5,0.9-2.4,0.9
		c1.9,4,4.4,7.7,7.3,10.9C40.6,106.6,39.3,104.8,38.1,102.9z"/>
	<path fill="#00A9DE" d="M110.8,98.7c0.1-0.3,0-0.5-0.3-0.4c-0.3,0-0.6,0.4-0.7,0.8c-2.4,4.1-5.8,7.9-10,10.8
		c3.2-1.9,6.1-4.2,8.6-6.9C109.3,101.5,110.2,100.1,110.8,98.7z"/>
	<path fill="#00A9DE" d="M32.8,68.9c0.4-2.9,1-5.7,1.8-8.5c-0.2-2.3-0.3-4.4-0.3-6.3c-4.8,11.1-6,23.6-2.5,35.7
		c0.7-0.5,1.5-0.9,2.4-1C32.4,82.3,31.8,75.5,32.8,68.9z"/>
	<path fill="#00A9DE" d="M51.5,109.3c5,4.2,10.9,7.3,17.2,9.1c0.2,0,0.4,0.1,0.5,0.1c-4.9-1.5-9.4-4-13.2-7.2
		c-6.9-4.5-12.5-11.3-15.5-19.3c-1.6-4.3-2.5-8.8-2.7-13.1c-0.2-0.7-0.4-1.4-0.6-2.1c0,2.9,0.3,5.9,0.9,8.7
		c-0.8-3.2-1.2-6.6-1.2-9.9c-0.5-2-0.9-3.9-1.2-5.8C33.9,84.5,40.1,99.9,51.5,109.3z"/>
	<path fill="#00A9DE" d="M98.4,132.5c-13.2,5.6-29.7,5.8-44.2-0.7c-13.7-6-25.3-17.7-31.2-31.9c0,0.6-0.1,1.2-0.1,1.8
		c6.3,13.6,17.7,24.8,31.2,30.7c14.8,6.6,31.7,6.3,45,0.4c0.4-0.2,0.5-0.4,0.3-0.4C99.3,132.3,98.8,132.4,98.4,132.5z"/>
	<path fill="#00A9DE" d="M52.6,103.6c-0.2,0.2-0.1,0.7,0.4,1.1c2.7,2.9,6,5.2,9.5,6.9c0-0.1,0-0.1,0-0.2c0.2-0.3,1-0.1,1.9,0.3
		c4.4,2,9.1,3.2,13.9,3.5c4.4,0,8.6-1,12.1-3c0.3-0.2,0.3-0.3,0.1-0.4c-0.2-0.1-0.6-0.1-0.9,0.1c-8.8,4.7-21.4,2.7-30.7-3.6
		C56.7,107.1,54.5,105.5,52.6,103.6C52.6,103.6,52.6,103.6,52.6,103.6z"/>
	<path fill="#00A9DE" d="M44.3,124.1c11.8,7.3,23.6,10,36.8,10.4c0.4,0,0.9-0.1,1-0.2c0-0.1-0.3-0.3-0.7-0.3
		c-14.1-0.6-27.7-4.2-39.2-13c-9.3-7.1-15.6-16.8-18.9-27.4c0,0.6,0,1.3,0,1.9c0.6,2,1.4,3.9,2.2,5.8
		C29.2,110.5,35.6,118.6,44.3,124.1z"/>
	<path fill="#00A9DE" d="M125.4,113.8c-6.4,6.4-14.2,11.5-21.6,15.7c-0.4,0.2-0.5,0.4-0.3,0.5c0.2,0,0.7-0.1,1.1-0.3
		c7.1-4.2,14.7-9.2,20.9-15.3c0.3-0.4,0.6-0.8,0.5-0.9C126.1,113.3,125.7,113.5,125.4,113.8z"/>
	<path fill="#00A9DE" d="M110.9,112.5c-15,13.1-38.9,14.3-56.1,3.5c0,0.1,0,0.2,0,0.3c0,0.6-0.1,1.1-0.3,1.6c4.7,2.9,9.8,5,15.2,6.1
		c0-0.1,0.1-0.2,0.2-0.3c-3.5-0.9-6.9-2.2-10.2-3.8c-0.9-0.5-1.5-1.1-1.4-1.4c0.1-0.3,1-0.1,1.9,0.4c6.4,2.9,13.4,4.6,20.4,4.9
		c14.6-0.5,29.4-7.2,38.5-19.1c2.9-3.8,5.6-7.8,7.7-12.1c0.8-2,1.4-4,1.8-6c2.7-12.1-0.4-23.4-6.4-32.1c-0.3,0.4-0.6,0.8-0.9,1.2
		c0.1,0.1,0.1,0.2,0.2,0.3C132.2,73,128.2,98.9,110.9,112.5z"/>
	<path fill="#006DB6" d="M53.2,119.7c8.9,4.8,18,6.6,27.9,7c0.4,0,0.7,0,0.8-0.2c0-0.1-0.2-0.2-0.6-0.2c-7.2-0.3-14.1-1.5-20.7-4.1
		c-2.3-0.9-4.5-1.9-6.7-3.2C53.7,119.3,53.4,119.5,53.2,119.7z"/>
	<path fill="#006DB6" d="M34.1,97.3c-0.2,0-0.5-0.1-0.7-0.1c0.2,0.5,0.4,1,0.6,1.4c0.6,1.4,1.3,2.8,2,4.1c2.6,4.8,6.1,9.1,10.4,12.6
		c0.1-0.4,0.2-0.7,0.4-1.1C41.2,109.6,36.9,103.7,34.1,97.3z"/>
	<path fill="#006DB6" d="M88.3,107.6c-8.1,4.3-20.1,1.9-28.1-4.6c-0.6-0.1-1.1-0.2-1.7-0.3c8.3,7.7,21.9,10,30.5,5.2
		c0.2-0.1,0.2-0.3,0-0.4C88.9,107.5,88.5,107.5,88.3,107.6z"/>
	<path fill="#006DB6" d="M119.2,108.9c0-0.1-0.3,0-0.6,0.3c-2.3,2.3-4.7,4.3-7.3,6.2c-0.9,0.6-1.8,1.3-2.6,1.9
		c-1.3,0.9-2.6,1.7-3.9,2.5c-0.5,0.3-1.1,0.7-1.6,1c-1,0.6-1.9,1.2-2.9,1.7c-0.1,0.1-0.2,0.1-0.3,0.2c-0.1,0.1-0.1,0.2,0,0.2
		c0.2,0,0.6-0.1,1-0.3c0.8-0.5,1.6-0.9,2.3-1.4c5.3-3.3,10.8-7.1,15.4-11.6C119.1,109.3,119.3,109,119.2,108.9z"/>
	<path fill="#006DB6" d="M58.4,124.9c12.5,5.6,26.8,5.3,38.1,0.3c0.3-0.1,0.4-0.3,0.3-0.4c-0.2,0-0.7,0.1-1,0.2
		c-11.2,4.7-25.1,4.9-37.4-0.6c-2.5-1.1-4.8-2.4-7.1-3.9c-0.2,0-0.5,0.1-0.7,0.1C53.1,122.3,55.7,123.7,58.4,124.9z"/>
	<path fill="#006DB6" d="M34.3,88.8c0.1,0,0.2,0,0.3,0c2.4,0,4.3,1.9,4.3,4.3c0,1.4-0.7,2.6-1.7,3.4c0.1,0.1,0.1,0.3,0.2,0.4
		c2.9,5.9,7.1,11.2,12.2,15.3c0.3-0.1,0.6-0.1,1-0.1c2.3,0,4.1,1.7,4.3,4c17.2,10.9,41,9.6,56.1-3.5C128.2,98.9,132.2,73,121.5,56
		c-0.1-0.1-0.1-0.2-0.2-0.3c-0.4-0.7-0.9-1.1-1.1-0.9c-0.3,0.2-0.1,1,0.3,1.8l0-0.5c3.7,9.5,5.4,20.5,2.7,30.9
		c-1.6,3.3-3.8,6.7-6.2,10c1.8-3.5,3.4-7.1,4.2-10.9C123.7,76,121,66.4,116,59c-0.3,0.4-0.5,0.7-0.8,1.1c5.3,10.9,5,24.5-1.2,35.3
		c-1.5,2.7-3.4,5.2-5.5,7.5c-2.5,2.7-5.4,5-8.6,6.9c-5.6,3.3-12.1,5.4-18.8,5.6l-0.4,0c-0.8,0-1.5-0.1-2.3-0.1
		c-4.8-0.3-9.5-1.5-13.9-3.5c-0.9-0.4-1.7-0.6-1.9-0.3c0,0,0,0.1,0,0.2c0,0,0,0.1,0,0.1c-2.1-0.9-4-2.1-6-3.3
		c-0.8-0.5-1.5-0.9-2-1.1c-3.5-3.4-6.3-7.3-8.1-11.5c0.9,1.3,1.6,2.7,2.7,3.8c1.1,1.4,2.2,2.6,3.4,3.8c1.9,1.8,4,3.4,6.3,4.8
		c7.1,4.3,15.4,6.1,22.9,5c11.6-1.3,20.7-8.8,24.5-17c0.1-0.3,0-0.5-0.2-0.4c-0.2,0-0.5,0.3-0.6,0.6c-4.2,7.4-12.5,13.3-22.3,14.7
		c-9.8,1.5-20.7-1.8-28.5-9.3c-0.2-0.3-0.4-0.6-0.6-0.9c-4.8-2.2-8.5-6-11.2-10.5c0.4,1.5,0.8,2.9,1.4,4.3c-0.6-1.2-1.2-2.4-1.6-3.7
		c-0.3-0.8-0.6-1.6-0.8-2.4c-0.5-0.9-0.9-1.7-1.3-2.7c-1.1-2.4-2-4.9-2.7-7.5c0.2,4.4,1.1,8.8,2.7,13.1c3,8,8.6,14.8,15.5,19.3
		c3.8,3.2,8.4,5.7,13.2,7.2c0.4,0.1,0.7,0.2,1.1,0.3c-0.6-0.1-1.1-0.3-1.7-0.4c-6.2-1.7-12.1-4.8-17.2-9.1
		c-11.4-9.4-17.6-24.8-15.8-39.6c-0.3-1.6-0.5-3.2-0.7-4.7c-0.1-1.1-0.2-2.2-0.3-3.3c-0.4,0.7-0.8,1.6-1,2.7c-0.4,1.5-0.7,3-0.9,4.5
		C31.8,75.5,32.4,82.3,34.3,88.8z M102.7,113.3c7.4-4.5,13.6-11.2,17.9-18.7c-5,10.7-14.5,19.3-25.9,23
		C97.6,116.5,100.3,115,102.7,113.3z"/>
	<path fill="#006DB6" d="M80.7,123.9c-7.1-0.3-14-2-20.4-4.9c-0.9-0.5-1.7-0.6-1.9-0.4c-0.1,0.3,0.5,0.9,1.4,1.4
		c3.3,1.6,6.7,2.9,10.2,3.8c-0.1,0.1-0.2,0.2-0.2,0.3c-5.4-1.1-10.5-3.3-15.2-6.1c-0.1,0.2-0.2,0.5-0.3,0.7c0.5,0.3,1,0.6,1.5,0.9
		c4.8,2.7,10,4.5,15.3,5.5c0.5,0.2,1,0.3,1.6,0.4c11.2,1.5,22.5-0.7,32.1-6.3c10.3-5.9,18.7-14.9,23.1-25.7c1.5-3.6,2.5-7.4,3-11.3
		c0.8-6.2-0.1-12.4-1.6-18.4c-1.1-4.3-2.6-8.6-4.9-12.1c-0.2,0-0.3,0-0.5,0c5.3,9.3,7.5,20.1,6.6,30.7c-0.8,3.7-2.1,7.2-3.7,10.5
		c-2.1,4.3-4.7,8.2-7.7,12.1C110.1,116.7,95.3,123.4,80.7,123.9z"/>
	<path fill="#006DB6" d="M38.7,102.5c-0.4-0.6-0.8-1-1-0.9c-0.2,0.1,0,0.7,0.4,1.3c1.2,1.9,2.5,3.6,3.9,5.3c1.6,1.9,3.4,3.7,5.3,5.3
		c0.2-0.2,0.4-0.4,0.6-0.5C44.4,110,41.3,106.4,38.7,102.5z"/>
	<path fill="#006DB6" d="M32.1,97.4c0,0.5-0.1,1-0.1,1.5c3.4,7.2,8.4,13.6,14.5,18.7c-0.1-0.2-0.1-0.5-0.1-0.7
		C40.2,111.6,35.2,104.9,32.1,97.4z"/>
	<path fill="#0193D7" d="M44.9,74.6c0.1,1,0.3,1.9,0.6,2.9c0.6,2.5,1.5,5,2.8,7.5C53.6,95.4,62,101,70.8,102.7
		c13.6,2.7,28.7-3.5,36.1-15.3c4.1-6.6,5.3-14.8,4.1-22.6c-0.5-3.4-1.5-6.6-2.9-9.6c-5.8-12.4-27.4-38.9-29.1-40.6
		c0,0-8.8,6.6-17.4,16.8c-6,7-12,15.8-15,25.2c-1.5,4.6-2.3,9.4-2.1,14.2C44.6,72.2,44.7,73.4,44.9,74.6z M90,92.9
		c6.6-5.8,15.8-17.5,12.8-35.9c0,0,11.2,24.6-12.9,37.6c-0.5,1.9-2.1,3.3-4.2,3.3c-2.4,0-4.3-1.9-4.3-4.3c0-2.4,1.9-4.3,4.3-4.3
		C87.9,89.3,89.6,90.8,90,92.9z M83.3,70.3c0,3.5-2.8,6.4-6.4,6.4c-3.5,0-6.4-2.8-6.4-6.4c0-3.5,2.8-6.4,6.4-6.4
		C80.5,63.9,83.3,66.8,83.3,70.3z M76.3,20.1L64.2,61c-3.8,19.3,5.9,29.2,5.9,29.2s-15,7.6-20.3-12.7C44.5,57.2,76.3,20.1,76.3,20.1
		z"/>
	<path fill="#9CC5EA" d="M70.2,90.3c0,0-9.8-10-5.9-29.2l12.1-40.9c0,0-31.8,37.1-26.5,57.4C55.1,97.9,70.2,90.3,70.2,90.3z"/>
	<path fill="#9CC5EA" d="M89.9,94.6C114,81.6,102.8,57,102.8,57c2.9,18.4-6.3,30.1-12.8,35.9c0,0.2,0.1,0.5,0.1,0.7
		C90,93.9,90,94.3,89.9,94.6z"/>
	<path fill="#00A9DE" d="M13.1,71.9c-4.7,0-8.6,3.8-8.6,8.6c0,4.7,3.8,8.6,8.6,8.6c4.7,0,8.6-3.8,8.6-8.6
		C21.7,75.7,17.8,71.9,13.1,71.9z M9.7,86.5c-0.9,0-1.7-0.8-1.7-1.7c0-0.9,0.8-1.7,1.7-1.7s1.7,0.8,1.7,1.7
		C11.4,85.8,10.7,86.5,9.7,86.5z M15.5,79.8c-1.7,0-3-1.4-3-3c0-1.7,1.4-3,3-3c1.7,0,3,1.4,3,3C18.5,78.4,17.1,79.8,15.5,79.8z"/>
	<circle fill="#00A9DE" cx="9.7" cy="84.8" r="1.7"/>
	<circle opacity="0.67" fill="#FFFFFF" cx="9.7" cy="84.8" r="1.7"/>
	<path fill="#00A9DE" d="M136.9,93.6c1.4-3.8,2.5-7.8,3-11.9c1-7.3-0.1-14.6-1.9-21.7c-1.3-5-3.1-10.2-5.8-14.3c-0.2,0-0.4,0-0.6,0
		c6.2,11,8.8,23.7,7.8,36.3c-0.8,4-2.1,7.7-3.8,11.2c-0.5-0.1-1-0.2-1.5-0.2c-0.3,0-0.7,0-1,0.1c4.6-14.2,3.3-30.1-4.3-42.1
		c-0.5-1-1.2-1.6-1.5-1.4c-0.3,0.2-0.1,1.2,0.4,2.2l0-0.6c4.4,11.3,6.4,24.2,3.2,36.5c-0.9,1.8-1.9,3.7-3.1,5.5
		c-4.4,10.8-12.7,19.9-23.1,25.7c-9.6,5.7-20.9,7.9-32.1,6.3c-0.6-0.1-1.2-0.2-1.6-0.4c-5.3-0.9-10.5-2.8-15.3-5.5
		c1.6,1,3.2,1.9,4.9,2.8c6.6,2.5,13.6,3.8,20.7,4.1c0.4,0,0.6,0.1,0.6,0.2c-0.1,0.1-0.5,0.2-0.8,0.2c-9.9-0.4-19-2.2-27.9-7
		c-0.5,0.4-1.2,0.7-1.8,0.8c2.3,1.5,4.6,2.8,7.1,3.9c12.2,5.5,26.2,5.3,37.4,0.6c0.3-0.1,0.8-0.2,1-0.2c0.1,0.1,0,0.2-0.3,0.4
		c-11.3,5-25.6,5.2-38.1-0.3c-2.7-1.2-5.3-2.6-7.8-4.2c0,0,0,0-0.1,0c-1.9,0-3.6-1.3-4.1-3.1c-6.1-5-11.2-11.4-14.5-18.7
		c0-0.5,0.1-1,0.1-1.5c3.1,7.5,8.1,14.2,14.3,19.4c0-0.2,0-0.3,0-0.5c0-0.4,0.1-0.7,0.1-1c-4.3-3.5-7.8-7.8-10.4-12.6
		c-1.2-1.9-2.3-3.8-3.3-5.8c-1.4-0.7-2.4-2.1-2.4-3.8c0-0.4,0.1-0.8,0.2-1.2c-3.6-9.5-4.5-20-2.1-30c0.6-2.9,0.8-5.4-0.1-5.8
		c-0.8-0.4-2.5,1.8-3.1,4.8c-5.3,20.4,2.4,43.5,19,56.6c20.5,17.3,52.6,17.2,72.2,0.2c4.9-3.9,8.9-8.6,12-13.8
		c0.2,0.3,0.4,0.5,0.6,0.8c-0.9,1.3-1.9,2.6-2.8,3.8c-10.7,14.1-28.2,22-45.5,22.6c-8.3-0.3-16.6-2.3-24.1-5.8c-1-0.6-2-0.8-2.2-0.5
		c-0.2,0.3,0.6,1,1.6,1.6c3.9,1.8,7.9,3.4,12.1,4.4c-0.1,0.1-0.2,0.2-0.2,0.3c-14.9-3.2-28.3-12.5-36.7-25.4c-0.5-0.7-1-1.2-1.2-1
		c-0.2,0.1,0,0.8,0.5,1.5c8.7,13.7,23.2,23.3,38.9,26c0.6,0.2,1.2,0.4,1.9,0.5c13.3,1.8,26.6-0.8,38-7.5
		c8.5-4.8,15.8-11.5,21.3-19.4c1.1,0.7,2.4,1.1,3.8,1.1c3.9,0,7-3.1,7-7C141.1,97.2,139.4,94.7,136.9,93.6z M103.4,121.2
		c-0.8,0.5-1.6,1-2.3,1.4c-0.4,0.2-0.7,0.3-1,0.3c-0.1,0-0.1-0.1,0-0.2c-1,0.4-1.9,0.7-2.9,1.1c2.1-0.8,4.1-1.8,6.1-3
		c0.5-0.3,1.1-0.6,1.6-1c0.6-0.4,1.2-0.8,1.7-1.2c0.7-0.4,1.4-0.9,2.1-1.4c0.9-0.6,1.8-1.2,2.6-1.9c6.7-5.1,12.3-11.6,16.4-18.8
		C122.8,107.3,114.1,116.1,103.4,121.2z M131.3,105.1c-0.8,0-1.4-0.6-1.4-1.4c0-0.8,0.6-1.4,1.4-1.4c0.8,0,1.4,0.6,1.4,1.4
		C132.7,104.4,132.1,105.1,131.3,105.1z M136,99.5c-1.4,0-2.5-1.1-2.5-2.5c0-1.4,1.1-2.5,2.5-2.5c1.4,0,2.5,1.1,2.5,2.5
		C138.5,98.4,137.4,99.5,136,99.5z"/>
	<path fill="#00A9DE" d="M131.3,102.3c-0.8,0-1.4,0.6-1.4,1.4c0,0.8,0.6,1.4,1.4,1.4c0.8,0,1.4-0.6,1.4-1.4
		C132.7,102.9,132.1,102.3,131.3,102.3z"/>
	<path opacity="0.67" fill="#FFFFFF" d="M131.3,102.3c-0.8,0-1.4,0.6-1.4,1.4c0,0.8,0.6,1.4,1.4,1.4c0.8,0,1.4-0.6,1.4-1.4
		C132.7,102.9,132.1,102.3,131.3,102.3z"/>
	<path fill="#00A9DE" d="M117.6,51.3c3,0,5.5-2.5,5.5-5.5c0-3-2.5-5.5-5.5-5.5c-3,0-5.5,2.5-5.5,5.5
		C112.1,48.8,114.5,51.3,117.6,51.3z M119.1,41.5c1.1,0,1.9,0.9,1.9,1.9c0,1.1-0.9,1.9-1.9,1.9c-1.1,0-1.9-0.9-1.9-1.9
		C117.1,42.4,118,41.5,119.1,41.5z M115.4,47.5c0.6,0,1.1,0.5,1.1,1.1c0,0.6-0.5,1.1-1.1,1.1c-0.6,0-1.1-0.5-1.1-1.1
		C114.3,48,114.8,47.5,115.4,47.5z"/>
	<circle fill="#00A9DE" cx="115.4" cy="48.6" r="1.1"/>
	<circle opacity="0.67" fill="#FFFFFF" cx="115.4" cy="48.6" r="1.1"/>
	<path fill="#ADE9E9" d="M70.6,70.3c0,3.5,2.8,6.4,6.4,6.4c3.5,0,6.4-2.8,6.4-6.4c0-3.5-2.8-6.4-6.4-6.4
		C73.4,63.9,70.6,66.8,70.6,70.3z M78.7,65.3c1.2,0,2.2,1,2.2,2.2c0,1.2-1,2.2-2.2,2.2c-1.2,0-2.2-1-2.2-2.2
		C76.5,66.3,77.5,65.3,78.7,65.3z M74.5,72.3c0.7,0,1.2,0.6,1.2,1.2c0,0.7-0.6,1.2-1.2,1.2c-0.7,0-1.2-0.6-1.2-1.2
		C73.2,72.9,73.8,72.3,74.5,72.3z"/>
	<circle fill="#ADE9E9" cx="74.5" cy="73.5" r="1.2"/>
	<circle opacity="0.67" fill="#FFFFFF" cx="74.5" cy="73.5" r="1.2"/>
	<path fill="#ADE9E9" d="M81.5,93.6c0,2.4,1.9,4.3,4.3,4.3c2,0,3.7-1.4,4.2-3.3c0.1-0.3,0.1-0.7,0.1-1c0-0.2,0-0.5-0.1-0.7
		c-0.3-2-2.1-3.6-4.2-3.6C83.4,89.3,81.5,91.2,81.5,93.6z M86.9,90.2c0.8,0,1.5,0.7,1.5,1.5c0,0.8-0.7,1.5-1.5,1.5
		c-0.8,0-1.5-0.7-1.5-1.5C85.4,90.9,86.1,90.2,86.9,90.2z M84.1,94.9c0.5,0,0.8,0.4,0.8,0.8c0,0.5-0.4,0.8-0.8,0.8
		c-0.5,0-0.8-0.4-0.8-0.8C83.2,95.3,83.6,94.9,84.1,94.9z"/>
	<circle fill="#ADE9E9" cx="84.1" cy="95.8" r="0.8"/>
	<circle opacity="0.67" fill="#FFFFFF" cx="84.1" cy="95.8" r="0.8"/>
	<path fill="#ADE9E9" d="M53.9,119.1c0.1-0.2,0.2-0.3,0.4-0.5c0.1-0.2,0.3-0.4,0.3-0.7c0.2-0.5,0.3-1,0.3-1.6c0-0.1,0-0.2,0-0.3
		c-0.2-2.2-2-4-4.3-4c-0.3,0-0.6,0-1,0.1c-0.7,0.1-1.2,0.5-1.7,0.9c-0.2,0.2-0.4,0.3-0.6,0.5c-0.2,0.2-0.3,0.4-0.5,0.7
		c-0.2,0.3-0.3,0.7-0.4,1.1c-0.1,0.3-0.1,0.7-0.1,1c0,0.2,0,0.3,0,0.5c0,0.3,0.1,0.5,0.1,0.7c0.5,1.8,2.1,3.1,4.1,3.1c0,0,0,0,0.1,0
		c0.2,0,0.5,0,0.7-0.1c0.7-0.1,1.3-0.4,1.8-0.8C53.4,119.5,53.7,119.3,53.9,119.1z M50.2,114.5c0-0.8,0.7-1.5,1.5-1.5
		c0.8,0,1.5,0.7,1.5,1.5c0,0.8-0.7,1.5-1.5,1.5C50.9,116,50.2,115.3,50.2,114.5z M48.9,119.4c-0.5,0-0.8-0.4-0.8-0.8
		c0-0.5,0.4-0.8,0.8-0.8c0.5,0,0.8,0.4,0.8,0.8C49.7,119,49.4,119.4,48.9,119.4z"/>
	<circle fill="#ADE9E9" cx="48.9" cy="118.5" r="0.8"/>
	<circle opacity="0.67" fill="#FFFFFF" cx="48.9" cy="118.5" r="0.8"/>
	<path fill="#ADE9E9" d="M32.7,96.9c0.2,0.1,0.5,0.2,0.7,0.3c0.2,0.1,0.4,0.1,0.7,0.1c0.2,0,0.3,0,0.5,0c0.1,0,0.1,0,0.2,0
		c0.9,0,1.8-0.4,2.4-0.9c0,0,0,0,0,0c1-0.8,1.7-2,1.7-3.4c0-2.4-1.9-4.3-4.3-4.3c-0.1,0-0.2,0-0.3,0c-0.9,0.1-1.8,0.4-2.4,1
		c-0.7,0.5-1.1,1.2-1.4,2.1c-0.1,0.4-0.2,0.8-0.2,1.2C30.3,94.7,31.2,96.2,32.7,96.9z M32.9,96.1c-0.5,0-0.8-0.4-0.8-0.8
		c0-0.5,0.4-0.8,0.8-0.8c0.5,0,0.8,0.4,0.8,0.8C33.7,95.7,33.3,96.1,32.9,96.1z M35.7,89.7c0.8,0,1.5,0.7,1.5,1.5s-0.7,1.5-1.5,1.5
		c-0.8,0-1.5-0.7-1.5-1.5S34.9,89.7,35.7,89.7z"/>
	<circle fill="#ADE9E9" cx="32.9" cy="95.2" r="0.8"/>
	<circle opacity="0.67" fill="#FFFFFF" cx="32.9" cy="95.2" r="0.8"/>
</g>
</svg>
