<?xml version="1.0" encoding="utf-8"?>
<!-- Generator: Adobe Illustrator 18.1.0, SVG Export Plug-In . SVG Version: 6.00 Build 0)  -->
<svg version="1.0" id="Layer_1" xmlns="http://www.w3.org/2000/svg" xmlns:xlink="http://www.w3.org/1999/xlink" x="0px" y="0px"
	 viewBox="0 0 150 150" enable-background="new 0 0 150 150" xml:space="preserve">
<path fill="#CA92C1" d="M160.8,246.4c-0.2-0.7-0.9-1.2-1.7-1c-0.7,0.2-1.1,0.8-1,1.5c0-0.6,0.4-1.1,1-1.2c0.7-0.2,1.3,0.2,1.5,0.9
	c0.1,0.6-0.1,1.1-0.6,1.4C160.6,247.7,161,247.1,160.8,246.4"/>
<path fill="#C64D9B" d="M159.8,248.5c-0.9,0.2-1.8-0.3-2-1.1c-0.2-0.8,0.2-1.6,0.9-2c-0.6,0.3-0.9,1-0.7,1.7c0.2,0.8,1.1,1.3,1.8,1
	c0.7-0.2,1.1-0.8,1.1-1.5C161.1,247.5,160.6,248.3,159.8,248.5"/>
<g>
	<path fill="#0697CC" d="M159.8,247.2L159.8,247.2C159.8,247.2,159.8,247.2,159.8,247.2z"/>
	<path fill="#0697CC" d="M159.7,246.9C159.7,246.9,159.7,246.9,159.7,246.9C159.7,246.9,159.7,246.9,159.7,246.9z"/>
	<path fill="#C64D9B" d="M159.8,247.2c0.3-0.1,0.4-0.4,0.4-0.4s-0.2,0-0.5,0c0,0,0,0,0,0c0,0,0,0,0,0c0-0.1,0.1-0.2,0.1-0.2
		s-0.1,0-0.1,0c0,0,0,0,0,0c0,0,0,0,0,0c0.1-0.3,0-0.6,0-0.6s-0.1,0-0.1,0.1c0-0.2-0.1-0.3-0.1-0.3s-0.4,0.5-0.4,1
		c0,0,0-0.1-0.1-0.1c0-0.1-0.1-0.1-0.3,0c-0.1,0-0.2,0.1-0.3,0.1c0.2,0,0.6,0.2,0.7,0.4c0,0,0,0,0,0c0,0.2-0.1,0.4-0.3,0.4
		c0.2,0,0.4-0.2,0.4-0.4c0,0,0,0,0-0.1c0,0,0-0.1,0-0.1C159.4,247.3,159.6,247.3,159.8,247.2C159.8,247.3,159.8,247.2,159.8,247.2
		L159.8,247.2"/>
</g>
<g>
	<path d="M25.2,65.7C19.4,64.1,13.7,66,12.7,70c-1.1,4,2.8,8.5,8.7,10c5.8,1.6,11.5-0.3,12.5-4.3C34.9,71.8,31.1,67.3,25.2,65.7z
		 M26.5,76.7c-3.3,0.1-6-1.6-6.1-3.8c-0.1-2.2,2.5-4.1,5.9-4.2c3.3-0.1,6,1.6,6.1,3.8C32.5,74.7,29.8,76.6,26.5,76.7z"/>
	<path d="M32.4,45.9c-6.3-3.7-13.4-3.3-15.9,1c-2.5,4.3,0.5,10.7,6.8,14.4c6.3,3.7,13.4,3.3,15.9-1C41.7,56,38.7,49.6,32.4,45.9z
		 M30.4,59.1c-3.9-0.9-6.5-3.8-5.9-6.4c0.6-2.6,4.3-4,8.2-3c3.9,0.9,6.5,3.8,5.9,6.4C37.9,58.6,34.3,60,30.4,59.1z"/>
	<path d="M49.4,27.3c-5.6-7.1-14.1-9.8-18.9-6C25.7,25.1,26.3,34,32,41.1c5.6,7.1,14.1,9.8,18.9,5.9C55.7,43.2,55,34.4,49.4,27.3z
		 M41.2,41.7c-4.1-2.8-5.8-7.3-4-10.1C39.1,28.9,44,29,48,31.8c4.1,2.8,5.8,7.3,3.9,10C50.1,44.6,45.2,44.5,41.2,41.7z"/>
	<path d="M68.4,14c-3.9-8.2-11.6-12.7-17.1-10c-5.5,2.6-6.8,11.4-2.9,19.6c3.9,8.2,11.6,12.7,17.1,10C71,30.9,72.3,22.1,68.4,14z
		 M57.2,26.2c-3.3-3.6-4.1-8.4-1.6-10.7c2.5-2.3,7.2-1.1,10.5,2.5c3.3,3.6,4.1,8.4,1.6,10.7C65.2,31,60.5,29.8,57.2,26.2z"/>
	<path fill="#A31E22" d="M69.5,146.3c0,0,11.9-5.3,21.8-8.6c11.4-3.8,44.6-26.9,46.2-67.3c1.3-34.3-33.3-49-58.1-40.9
		c-22.9,7.5-24.2,28.6-23.1,36.9c0.6,4.8,2,7.9,2,7.9S46.4,69.5,36.5,77c-12.9,9.7-11.9,33.6,11.9,38.3
		C66.6,118.8,87.3,123.8,69.5,146.3z"/>
</g>
</svg>
