<?xml version="1.0" encoding="utf-8"?>
<!-- Generator: Adobe Illustrator 18.1.0, SVG Export Plug-In . SVG Version: 6.00 Build 0)  -->
<svg version="1.0" id="Layer_1" xmlns="http://www.w3.org/2000/svg" xmlns:xlink="http://www.w3.org/1999/xlink" x="0px" y="0px"
	 viewBox="0 0 150 150" enable-background="new 0 0 150 150" xml:space="preserve">
<g>
	<path fill="#002D3C" d="M77.8,126.4c29.3,0,53.1-23.7,53.1-52.9h-1.1c0,28.6-23.3,51.8-52,51.8V126.4z"/>
	<path fill="#002D3C" d="M137.7,98.5c0,0-5.5,10.7-15.4,7.1C122.3,105.6,126,95.9,137.7,98.5"/>
	<path fill="#002D3C" d="M117.3,83.9c0,0,8.6,8.4,2.1,16.8C119.4,100.7,111.3,94.3,117.3,83.9"/>
	<path fill="#002D3C" d="M128.7,111.2c0,0-6.7,10-16.1,5.2C112.6,116.4,117.3,107.2,128.7,111.2"/>
	<path fill="#002D3C" d="M111.3,93.9c0,0,7.5,9.4,0.1,16.9C111.4,110.8,104,103.5,111.3,93.9"/>
	<path fill="#002D3C" d="M142.9,84.1c0,0-3.8,11.4-14.2,9.3C128.7,93.4,130.9,83.3,142.9,84.1"/>
	<path fill="#002D3C" d="M121,71.5c0,0,9.8,7.1,4.6,16.3C125.6,87.8,116.6,82.7,121,71.5"/>
	<path fill="#002D3C" d="M128.1,52.4c0,0,9.7,9.8,2.2,19.2C130.2,71.6,121,64.2,128.1,52.4"/>
	<path fill="#002D3C" d="M145.5,69.3c0,0-2.7,11.7-13.3,10.6C132.3,79.9,133.5,69.6,145.5,69.3"/>
	<path fill="#002D3C" d="M116.5,123.3c0,0-9.3,7.7-17,0.4C99.5,123.7,106.6,116.4,116.5,123.3"/>
	<path fill="#002D3C" d="M104.7,101.8c0,0,4.5,11.2-4.7,16.3C100,118.1,95,109,104.7,101.8"/>
	<path fill="#002D3C" d="M101.3,131c0,0-10.6,5.8-16.8-2.9C84.5,128.1,93.1,122.2,101.3,131"/>
	<path fill="#002D3C" d="M94,107.6c0,0,2.3,11.9-7.8,15C86.2,122.6,83.1,112.8,94,107.6"/>
	<path fill="#002D3C" d="M72.6,126.4c-29.2,0-53.1-23.7-53.1-52.9h1.1c0,28.6,23.3,51.8,52,51.8V126.4z"/>
	<path fill="#002D3C" d="M12.6,98.5c0,0,5.5,10.7,15.5,7.1C28.1,105.6,24.4,95.9,12.6,98.5"/>
	<path fill="#002D3C" d="M33.1,83.9c0,0-8.6,8.4-2.1,16.8C30.9,100.7,39.1,94.3,33.1,83.9"/>
	<path fill="#002D3C" d="M21.6,111.2c0,0,6.7,10,16.2,5.2C37.8,116.4,33.1,107.2,21.6,111.2"/>
	<path fill="#002D3C" d="M39.1,93.9c0,0-7.6,9.4-0.2,16.9C39,110.8,46.3,103.5,39.1,93.9"/>
	<path fill="#002D3C" d="M7.4,84.1c0,0,3.8,11.4,14.2,9.3C21.6,93.4,19.5,83.3,7.4,84.1"/>
	<path fill="#002D3C" d="M29.4,71.5c0,0-9.8,7.1-4.6,16.3C24.8,87.8,33.7,82.7,29.4,71.5"/>
	<path fill="#002D3C" d="M22.3,52.4c0,0-9.8,9.8-2.2,19.2C20.1,71.6,29.3,64.2,22.3,52.4"/>
	<path fill="#002D3C" d="M4.8,69.3c0,0,2.7,11.7,13.2,10.6C18,79.9,16.9,69.6,4.8,69.3"/>
	<path fill="#002D3C" d="M33.9,123.3c0,0,9.3,7.7,17,0.4C50.9,123.7,43.7,116.4,33.9,123.3"/>
	<path fill="#002D3C" d="M45.7,101.8c0,0-4.6,11.2,4.7,16.3C50.4,118.1,55.3,109,45.7,101.8"/>
	<path fill="#002D3C" d="M49,131c0,0,10.7,5.8,16.8-2.9C65.8,128.1,57.3,122.2,49,131"/>
	<path fill="#002D3C" d="M56.3,107.6c0,0-2.3,11.9,7.9,15C64.2,122.6,67.2,112.8,56.3,107.6"/>
	<path fill="#002D3C" d="M74.7,10.2c-1.5,0-2.8,0-4.2,0l0,0v0.1C58.3,11,46,13.5,34.8,18.2l-2.5,1v42.3c-0.1,0.3-0.1,0.7-0.1,1.1
		c0,6.2,3.7,16.7,20.3,33.3c12.9,12.7,18.2,17.8,21,19.6H73c0.8,0.5,1.4,0.8,2.2,0.7c0.8,0.1,1.4-0.2,2.1-0.7h-0.5
		c2.8-1.7,8-6.8,21-19.6c16.5-16.6,20.2-27.2,20.2-33.3c0-0.4,0-0.7,0-1.1V19.2l-2.5-1c-11.3-4.6-23.4-7.2-35.7-7.7l0-0.2h0
		C78.2,10.2,76.4,10.2,74.7,10.2 M76.7,18.3c11.3,0.2,22.6,2.4,33.2,6.4v36.8l0.2-1.1l-0.2,1.7c0,0.1,0,0.3,0,0.5
		c0,2.8-1.7,11.4-17.9,27.7c-9.6,9.5-14.4,14-17,16.4c-2.5-2.3-7.3-6.9-17-16.5C42,73.9,40.4,65.4,40.4,62.5c0-0.2,0-0.4,0-0.4
		l-0.1-1.7l0.1,1.1V24.7c10.4-4,21.5-6.1,32.7-6.4C74.4,18.3,75.2,18.3,76.7,18.3 M117.9,62.3L117.9,62.3c0,0.1,0,0.2,0,0.2V62.3z"
		/>
	<g>
		<path fill="#5BC8E6" d="M73.2,101c-2.2-2.1-4.9-4.7-7.9-7.6c0.1-0.3,0.2-0.5,0.3-0.6c0.3,0,0.8,0.1,1.2,0.2l0.3,0.1
			c0.4,0.1,0.9,0.2,1.3,0.3c1.5,0.4,3.3,0.8,5,0.8h0.3c0.2,0,0.4,0,0.6,0c0,0.2,0,0.3,0,0.4c0,0.7,0,1.4,0,2.2c0,0.2,0,0.5,0,0.8
			c0,0.2,0,0.3,0,0.4c0,0,0,0,0,0.1c-0.1,0.1-0.2,0.2-0.3,0.4C73.7,99.2,73.4,100,73.2,101L73.2,101z"/>
		<path fill="#5BC8E6" d="M81.9,95.8c0.3-0.9,0.7-1.9,1.1-2.8l0.7-1.7c0-0.1,0.1-0.2,0.2-0.5c0,0,0-0.1,0-0.1c0.1,0,0.2,0,0.4,0h0.2
			c1.1,0,1.9-0.2,2.8-0.2c0,0,0,0,0,0C85.3,92.5,83.4,94.3,81.9,95.8L81.9,95.8z"/>
		<path fill="#5BC8E6" d="M60.2,88.4l-0.3-0.3C43.8,71.8,43,64,43,62.6c0-0.2,0-0.2,0-0.2v-0.1v-0.3v-0.5l0-34.6
			c2.9-1,5.9-1.9,8.9-2.6c0,0.6,0.2,1.1,0.5,1.6c-0.2,0.2-0.5,0.4-0.6,0.8c-0.4,1,0.3,2,0.6,2.6c0.2,0.3,0.3,0.5,0.4,0.7
			c0,0.1,0,0.2,0,0.2c0.1,0.2,0.2,0.5,0.3,0.8c0.3,0.6,0.9,1.1,1.4,1.6c0.2,0.2,0.5,0.3,0.7,0.5c0.1,0,0.2,0.1,0.4,0.2
			c0,0,0,0.1,0.1,0.2c0.1,0.3,0.3,0.6,0.6,0.9c0.6,0.7,1.3,1.3,2.1,1.7c0.3,0.2,0.6,0.5,0.9,0.7c0.5,0.4,1,0.9,1.5,1.5
			c0.2,0.3,0.5,0.6,0.8,0.9c0.7,0.8,1.5,1.6,2.6,2.6c0.2,0.2,0.3,0.3,0.5,0.5c0.8,0.8,1.7,1.7,2.7,2.1l0.4,0.1
			c0.4,0.2,0.6,0.2,0.8,0.4c0,0,0.1,0.1,0.2,0.2c0.2,0.2,0.4,0.4,0.8,0.7c0.4,0.2,0.9,0.4,1.3,0.6l0.4,0.2c1.1,0.4,2,0.8,3.1,1.1
			c-0.1,0.2-0.1,0.5-0.1,0.7c0,0.1,0,0.3-0.1,0.4c0,0.1-0.2,0.3-0.2,0.5c-0.2,0.2-0.3,0.4-0.5,0.7c-0.2,0.4-0.4,0.8-0.5,1.2
			l-0.2,0.4l-0.1,0.2c-0.4,1-1,2.4-0.9,4c0,0.2,0,0.3,0,0.5l-0.1,0.2c-0.6,1.3-1.1,2.8-1.3,4.5c-0.1,0.6,0,1.1,0,1.5
			c0,0.2,0,0.4,0,0.7c0,0.1-0.1,0.5-0.1,0.8c0,0.2-0.1,0.4-0.1,0.6c-0.2,0.9-0.4,1.5-0.7,2.3c-1.1,2.6-0.5,6.2,0.2,8.5
			c0.1,0.1,0.1,0.2,0.2,0.4c0,0,0,0,0,0.1c-0.1,0.2-0.2,0.3-0.3,0.5c-0.6,1-0.7,2.1-0.5,3.2c0.1,0.5,0.2,0.8,0.4,1.1
			c0,0.1,0.1,0.3,0.2,0.4c0,0.1,0,0.2,0,0.3c0,0.2,0,0.4,0,0.6c0.2,1.5,0.8,3,1.7,4.2c-1,0.2-2.1,0.3-3.1,0.3c-0.5,0-0.9,0-1.3-0.1
			c-0.6-0.1-1.1-0.1-1.6-0.1c-1.9,0-3.5,0.6-4.5,1.7C60.5,87.9,60.4,88.1,60.2,88.4L60.2,88.4z M96.3,70c-1.6,0-3.3-0.3-5.3-0.9
			l-0.2,0c-0.2-0.1-0.4-0.2-0.6-0.2c0.1,0,0.1,0,0.2,0c0.4-0.1,0.9-0.1,1.5-0.1c0.6,0,1.2,0,1.8-0.2c0,0,3-0.7,3.4-2.4
			c0.2-0.6,0-1.2,0-1.5c0-0.3,0-0.5,0-0.7c0-0.4,0-0.7,0-1.1c-0.2-1.5-0.9-2.5-1.4-3.2c-0.1-0.1-0.2-0.2-0.3-0.3c0,0,0,0,0,0
			c0-0.2-0.1-0.3-0.1-0.5c0-0.2-0.1-0.5-0.2-0.7c-0.2-1.1-0.6-2-1-2.8c-0.1-0.2-0.3-0.4-0.4-0.6c0-0.1-0.1-0.1-0.1-0.2
			c0-0.2,0-0.4,0.1-0.6c0-0.3,0-0.7,0-1.1c0-0.7-0.1-1.6-0.1-2.3c-0.2-2.2-0.4-5.3-2.9-6.2c-0.2-0.1-0.4-0.1-0.6-0.2
			c-0.1,0-0.2,0-0.2,0l0,0c0,0,0,0-0.1-0.1c-0.1-0.1-0.2-0.2-0.3-0.2c-0.2-0.2-0.3-0.2-0.5-0.4c-0.1,0-0.2-0.1-0.2-0.1
			c0,0-0.1-0.1-0.1-0.2c1.3-0.6,1.3-2.1,1.3-2.8c0-0.2,0-0.2,0-0.3c0-0.1,0.2-0.5,0.4-0.7c0.1-0.2,0.2-0.4,0.3-0.6l0.2-0.3
			c0.4-0.8,1-1.9,0.9-3.4c-0.1-1.4-0.6-3.5-1.3-4.8c-0.4-0.6-0.9-1.1-1.3-1.5l-0.1-0.1l-0.2-0.2c-0.5-0.5-1.1-1-1.7-1.3
			c-0.4-0.2-0.9-0.2-1.3-0.3c-0.1,0-0.2,0-0.2,0c-0.1-0.1-0.2-0.2-0.2-0.3c-0.8-0.9-1.9-1.3-2.9-1.3c-0.7,0-1.4,0.2-2,0.7
			c-0.2,0.2-0.4,0.4-0.5,0.6c0,0,0,0-0.1,0c-0.2,0-0.6,0-0.9,0.2c-1.3,0.6-1.8,2.2-1.2,3.7c-0.1,0.2-0.2,0.4-0.2,0.6
			c-0.1,0.1-0.2,0.3-0.2,0.4c-0.1,0.1-0.1,0.2-0.2,0.3c-0.2,0.4-0.5,0.8-0.6,1.3c0,0.2,0,0.4,0,0.6c-0.4,0.3-1,0.8-1,1.7
			c0,0.4,0.1,0.7,0.2,1c-0.1,0.2-0.3,0.4-0.3,0.8c-0.2,0.7-0.1,1.3,0,1.8c0.1,0.2,0.1,0.4,0.1,0.5l0,0c0,0,0,0,0,0.1
			c-0.1,0.2-0.3,0.6-0.3,1.1c-0.5-0.2-1.1-0.5-1.5-0.8c-0.3-0.2-0.5-0.4-0.8-0.7c-0.3-0.2-0.5-0.4-0.8-0.7l-0.3-0.2
			c-0.5-0.4-1-0.8-1.6-1.1c-0.3-0.2-0.5-0.4-0.7-0.6c-0.3-0.2-0.6-0.5-0.9-0.7c-0.6-0.5-1.2-0.9-1.9-1.3c-1.7-1.1-3.4-2.4-5.1-3.7
			c-0.2-0.1-0.3-0.2-0.4-0.3c-0.2-0.2-0.6-0.4-0.7-0.6c-0.1-0.3-0.1-0.7-0.1-1.1c0-0.5,0-1.1-0.2-1.7c-0.2-0.7-0.6-1.3-0.9-1.8
			c-0.2-0.4-0.5-0.6-0.7-0.9c-0.1,0-0.2-0.2-0.2-0.2c-0.1-0.1-0.1-0.2-0.2-0.4c-0.1-0.2-0.2-0.4-0.3-0.6c5-0.9,10.1-1.5,15.2-1.6
			h2.3h1.3c10.3,0.2,20.5,2,30.3,5.5v34.7l0.1,0.3v0.1v0.2l0,0v0.2v0.3c0,0.5-0.1,2-1.2,4.7c-0.9,0.3-1.7,0.6-2.4,1
			c-1.5,0.7-2.9,1.3-4.5,1.5C97.9,70,97.1,70,96.3,70L96.3,70z"/>
		<path fill="#002D3C" d="M98.9,71.3c-3.1,0.6-6,0-8.3-0.7c-1.2-0.4-2.4-0.7-3.3-1.4c0-0.6-0.3-1-0.2-1.5c0.9-0.1,1.9-0.1,3.1-0.3
			c1.1-0.2,2.2-0.1,3.2-0.3c0.6-0.1,2.1-0.8,2.3-1.3c0.1-0.4-0.1-0.7-0.2-1c0-0.6,0.1-1.1,0-1.6c-0.2-1.1-0.6-1.9-1.1-2.5
			c-0.2-0.2-0.4-0.4-0.5-0.6c-0.2-0.4-0.2-1-0.3-1.4c-0.2-0.9-0.5-1.7-0.9-2.5c-0.2-0.4-0.6-0.7-0.6-1.1c-0.2-0.6,0-1.3,0-2
			c0-0.8-0.1-1.6-0.1-2.3c-0.2-2.2-0.4-4.3-1.9-4.9c-0.2-0.1-0.5,0-0.9-0.2c-0.2-0.1-0.5-0.4-0.8-0.6c-0.3-0.2-0.6-0.4-0.9-0.6
			c-0.5-0.6-0.9-1.7-0.6-2.6c0.3-0.1,0.5,0.2,0.8,0c0.7-0.2,0.5-1.6,0.6-2.1c0.1-0.5,0.6-1.2,0.9-1.7c0.5-0.9,1-1.6,0.9-3
			C90,33.7,89.6,32,89,30.9c-0.3-0.5-0.8-0.9-1.2-1.3c-0.4-0.4-0.9-1-1.4-1.1c-0.6-0.2-1.4-0.1-1.9-0.4c-0.2-0.1-0.3-0.4-0.5-0.6
			c-0.7-0.8-1.9-1.2-2.9-0.5c-0.3,0.2-0.5,0.6-0.8,0.7c-0.4,0.1-0.6,0-1,0.1c-0.6,0.3-0.8,1.1-0.5,1.9c0.2,0.1,0.6-0.1,0.7,0.2
			c0.1,0.3-0.4,0.5-0.7,0.9c-0.2,0.3-0.3,0.7-0.6,1.1c-0.2,0.4-0.6,0.8-0.6,1.2c0,0.2,0.1,0.7,0,0.9c-0.2,0.4-0.9,0.6-1,1.1
			c0,0.4,0.5,0.6,0.5,1.1c0,0.4-0.6,0.7-0.7,1.1c-0.2,0.6,0.2,1.3,0.2,1.9c0,0.5-0.4,1-0.3,1.4c0.2,0.7,1.5,0.4,1.9,1.1
			c-0.8,0-1.7,0.2-2.7,0.2c-1.1,0-2.5-0.6-3.2-1.2c-0.6-0.4-1.1-1-1.6-1.4c-0.6-0.4-1.1-0.9-1.7-1.3c-0.6-0.4-1.1-0.9-1.7-1.3
			c-0.6-0.4-1.2-0.8-1.9-1.2c-1.7-1.1-3.6-2.5-5.2-3.8c-0.5-0.4-1.5-1-1.6-1.5c-0.3-1-0.1-2.1-0.3-2.9c-0.2-0.5-0.5-1-0.7-1.4
			c-0.3-0.5-0.7-0.7-1-1.1c-0.4-0.7-0.4-1.3-1.1-1.3c-0.7-0.1-0.1,1-0.1,1.3c-0.9-0.1-1.3-1-2.2-0.6c0,0.6,0.5,1.4,1,1.6
			c0.6,0.3,1.7-0.1,1.9,0.8c-0.3,0.4-1.1,0-1.5,0.2c-0.3,0.2-0.2,0.6-0.5,0.7c-0.3-0.1-0.4-0.5-0.8-0.4c-0.7,0.2,0.1,1.3,0.3,1.6
			c0.2,0.2,0.3,0.6,0.4,0.8c0.1,0.3,0.1,0.6,0.3,1c0.2,0.3,0.6,0.7,1,1c0.4,0.3,1,0.5,1.3,0.9c0.2,0.3,0.4,0.8,0.7,1.2
			c0.6,0.8,1.8,1.4,2.7,2.2c0.9,0.7,1.6,1.7,2.4,2.6c0.7,0.8,1.5,1.7,2.5,2.6c0.8,0.7,1.8,1.9,2.7,2.3c0.6,0.2,1.1,0.4,1.5,0.7
			c0.2,0.2,0.5,0.6,0.8,0.8c0.4,0.2,1,0.4,1.5,0.6c1,0.4,2,0.8,3,1.1c0.5,0.2,1.1,0.3,1.5,0.6c-0.1,0.4-0.3,0.6-0.4,0.9
			c-0.2,0.4-0.1,0.9-0.3,1.4c-0.2,0.5-0.6,0.9-0.9,1.5c-0.2,0.5-0.5,1-0.7,1.5c-0.4,1-1,2.1-0.9,3.5c0,0.2,0.2,0.4,0.1,0.7
			c0,0.2-0.2,0.5-0.3,0.6c-0.6,1.3-0.9,2.6-1.1,4.1c-0.1,0.6,0,1.2,0,1.9c0,0.5-0.2,1.1-0.3,1.7c-0.2,1.1-0.4,1.9-0.8,2.7
			c-0.9,2-0.5,5.2,0.2,7.5c0.1,0.3,0.4,0.9,0.4,1.1c0,0.2-0.4,0.7-0.6,1c-0.3,0.6-0.5,1.3-0.3,2.3c0.1,0.5,0.4,0.9,0.5,1.4
			c0,0.4,0,0.7,0,1c0.3,1.7,1.1,3.2,1.9,4.2c0.3,0.4,0.8,0.5,1,1.1c-0.8,0.4-1.5,0.4-2.3,0.6c-1.7,0.3-3.5,0.5-5,0.2
			c-1.8-0.3-3.7,0-4.7,1.1c-0.6,0.6-0.8,1.5-0.9,2.6c1,0.9,1.9,1.8,2.8,2.7c0.2-1.1,0.6-2.2,1.4-2.4c0.6-0.2,1.5,0,2.4,0.2
			c1.9,0.4,4.1,1.1,6.2,1c0.9,0,1.5-0.2,2.1-0.2c0,1.3-0.1,2.8-0.1,4.2c0,0.6,0.2,1.1,0.1,1.5c0,0.3-0.3,0.6-0.4,0.9
			c-0.5,1-0.8,1.9-0.8,3.2c0,0.6,0.2,1.2,0.2,1.9c0,0.1,0,0.2,0,0.2c0,0.1,0.1,0.1,0.1,0.2c1.1-1.1,2.6-2.4,4.5-4.3
			c0-0.4,0-0.9,0-1.2c0.1-1.3,0.6-2.4,1-3.5c0.6-1.5,1.3-3.2,1.9-4.9c0.2-0.4,0.5-1.5,0.7-1.5c0.2-0.1,0.9,0,1.2,0
			c1.5,0,2.7-0.2,4.1-0.4c1-0.1,2-0.1,2.8,0c9.2-9.3,13.5-16,15.5-20.4C104,69.3,101.7,70.7,98.9,71.3z"/>
	</g>
	<polygon fill="#002D3C" points="75.1,117.6 76.7,122.7 82.1,122.7 77.8,125.9 79.5,130.9 75.1,127.8 70.7,130.9 72.4,125.9 
		68.1,122.7 73.5,122.7 	"/>
</g>
</svg>
