<?xml version="1.0" encoding="iso-8859-1"?>
<!-- Generator: Adobe Illustrator 13.0.0, SVG Export Plug-In . SVG Version: 6.00 Build 14948)  -->
<!DOCTYPE svg PUBLIC "-//W3C//DTD SVG 1.1//EN" "http://www.w3.org/Graphics/SVG/1.1/DTD/svg11.dtd">
<svg version="1.1" id="Layer_1" xmlns="http://www.w3.org/2000/svg" xmlns:xlink="http://www.w3.org/1999/xlink" x="0px" y="0px"
	 width="600px" height="600px" viewBox="0 0 600 600" enable-background="new 0 0 600 600" xml:space="preserve">
<g>
	<path fill="#FFCA35" d="M208.397,243.697l-61.178-55.699c0,0-37.437-41.089,0-69.396c0,0,43.829-20.088,55.699,47.481
		L208.397,243.697z"/>
	<path fill="#FFCA35" d="M429.053,192.696l45.869-56.369c0,0,34.188-34.811,60.62-3.137c0,0,19.546,37.671-38.938,51.174
		L429.053,192.696z"/>
	<path fill="#FFCA35" d="M376.194,271.338l82.765-61.457c0,0,60.036-36.521,93.009,10.767c0,0,21.108,53.336-71.021,56.455
		L376.194,271.338z"/>
	<path fill="#FFCA35" d="M327.1,352.355l80.238,56.305c0,0,40.633,27.012,14.511,58.943c0,0-33.31,26.295-57.597-28.594
		L327.1,352.355z"/>
	<path fill="#FFCA35" d="M222.036,301.489l-89.891,7.251c0,0-66.04,2.476-69.844-47.694c0,0,12.278-52.344,83.225-12.144
		L222.036,301.489z"/>
	<path fill="#FFCA35" d="M260.403,256.033l-30.112-111.715c0,0-13.393-77.613,49.867-91.631c0,0,64.682,0.818,29.736,97.445
		L260.403,256.033z"/>
	<path fill="#FFCA35" d="M332.693,326.006l108.305-26.842c0,0,75.62-11.568,92.573,48.1c0,0,2.438,60.806-94.296,26.674
		L332.693,326.006z"/>
	<path fill="#FFCA35" d="M229.428,346.681l-83.338,73.188c0,0-63.761,51.525-112.155,14.866c0,0-34.262-50.441,72.333-72.039
		L229.428,346.681z"/>
	<path fill="#FFCA35" d="M252.348,405.146l-31.448,94.965c0,0-26.722,61.03-74.075,28.91c0,0-41.507-43.041,25.185-85.114
		L252.348,405.146z"/>
	<path fill="#FFCA35" d="M291.416,364.407l44.091,83.312c0,0,25.624,60.475-13.432,94.032c0,0-43.197,21.605-40.767-71.474
		L291.416,364.407z"/>
	<path fill="#FFCA35" d="M317.969,267.438l20.865-84.245c0,0,19.262-55.134,64.326-35.491c0,0,40.659,29.673-16.003,75.048
		L317.969,267.438z"/>
</g>
</svg>
