<?xml version="1.0" encoding="utf-8"?>
<!-- Generator: Adobe Illustrator 18.1.0, SVG Export Plug-In . SVG Version: 6.00 Build 0)  -->
<svg version="1.1" id="Layer_1" xmlns="http://www.w3.org/2000/svg" xmlns:xlink="http://www.w3.org/1999/xlink" x="0px" y="0px"
	 viewBox="0 0 150 150" enable-background="new 0 0 150 150" xml:space="preserve">
<g>
	<path fill="none" d="M93.3,93.4c0.1,0,0.1-0.1,0.2-0.1c-0.1-0.1-0.2-0.2-0.3-0.2L93.3,93.4z"/>
	<path fill="#98C856" d="M97.5,37.7c0,0.9-0.1,2.2-0.2,3.7c0,0.1,0,0.2,0,0.3c0,0.2,0,0.4,0,0.6c-0.1,4.2-0.2,10.4,0,17.3
		c0.3,7.9,1,16.7,2.6,25c5.8-6.2,13.8-15.4,20.2-25.1c-5.6-4.5-11.2-8.9-17-13.1c-0.1-0.7-0.2-1.4-0.3-2c-0.2-1.3-0.3-2.5-0.5-3.7
		c0-0.1,0-0.1,0-0.2c-0.1-0.6-0.1-1.2-0.2-1.7c-0.3-2.5-0.5-4.4-0.6-5.7c0.5-18.1-2.1-31.4-2.1-31.4c0.3,3.6,0.3,6.9,0.2,10
		C99.7,16.1,99.5,25.9,97.5,37.7z"/>
	<path fill="#98C856" d="M90.2,37.6c-2.1-1.3-4.1-2.6-6.2-3.9c-0.2-0.1-0.5-0.1-0.7-0.2c-1.9,5.1-6.8,8.7-12.5,8.7
		c-3.5,0-6.7-1.4-9.1-3.6c-3.6,2.7-7,5.7-10.3,8.7C63.2,49.9,79.8,50.3,90.2,37.6z"/>
	<path fill="#98C856" d="M29.9,68.9c-3.4,3.9-6.6,8.3-8.1,13.2c-0.7,3.7-0.7,7.4,0.3,10.9c6.8-12.3,13.8-21.8,13.8-21.8L29.9,68.9z"
		/>
	<path fill="#98C856" d="M101.9,103.4l7.4,4.4c6.3-6.2,12.5-12.3,18.8-18.5c5.1-5.7,5.2-14.1,1.7-20.4
		C118.9,86.7,101.9,103.4,101.9,103.4z"/>
	<path fill="#98C856" d="M86.6,87.6c-1.7-1.7-3.4-3.6-5-5.8c-7.6,11.7-18.5,21.8-33.9,27.4c0,0,31.2-31.7,0.3-58.6
		c-4.7,4.6-9.3,9.3-14,14l19.4-4.3l-0.5,29.7l-6.4-9.2c-0.8,1.1-9.1,12.3-16.4,25.7c5.8,7.4,10.5,15.5,17,22.4
		c0.9,1.3,1.8,2.7,2.7,4c4.4,5.8,10.7,10.7,18.2,10.2c4.9-0.4,8.9-2.7,12.4-5.8c8.4-9.2,17.3-18.1,26.3-26.9l-24.4,1.4L86.6,87.6z"
		/>
	<path fill="#005079" d="M105,46.2c13.1-6.4,20.3-5.1,23-4.1c0.1-2.9-0.9-6-5.4-7c0,0-6.5-1.3-20.2,5.4c0.1,1.2,0.3,2.4,0.5,3.7
		C103.6,44.9,104.4,45.5,105,46.2z"/>
	<path fill="#005079" d="M42.2,126.8c-0.1-0.1-0.2-0.2-0.3-0.2c-14.1,9.2-21,5.9-21,5.9c1.3,4.4,3.8,6.1,6.5,6.5
		c3-0.2,5.8-1.5,5.8-1.5c4.2-2,8.2-4.5,11.9-7c0.1,0.3-0.4-0.5-0.8-1.2C43.5,128.7,42.8,127.8,42.2,126.8z"/>
	<path fill="#005079" d="M63.8,37c1.9,1.6,4.3,2.5,7,2.5c4.5,0,8.4-2.8,10-6.7c0.5-1.3,0.8-2.7,0.8-4.1c0-6-4.8-10.8-10.8-10.8
		c-6,0-10.8,4.8-10.8,10.8C59.9,32.1,61.4,35,63.8,37z"/>
	<path fill="#005079" d="M47.7,109.1c15.4-5.6,26.2-15.7,33.9-27.4c1.6,2.1,3.3,4.1,5,5.8l1-5.8l5,10.3l0.5,1
		c0.1,0.1,0.2,0.2,0.3,0.2c1.8-1.2,4.2-3.6,7-6.6c-0.2-0.7-0.3-1.5-0.5-2.2c-1.6-8.2-2.3-17.1-2.6-25c-0.2-6.9-0.2-13,0-17.3
		c0-0.2,0-0.4,0-0.6c0-0.1,0-0.2,0-0.3c0.1-1.6,0.1-2.8,0.2-3.7c2-11.9,2.2-21.7,2.1-26.2c0-1.7-0.1-2.7-0.1-2.7
		c-0.9,13.4-4.4,22.6-9.4,28.7c-10.4,12.8-27,12.3-38.9,9.7c-8.2-1.7-14.1-4.5-14.1-4.5c4.2,2.5,7.8,5,10.8,7.6
		C78.9,77.5,47.7,109.1,47.7,109.1z"/>
	<path fill="#333333" d="M53.4,60.2L34,64.5l-9.7,2.2l5.6,2.2l6,2.4c0,0-7,9.5-13.8,21.8c-3,5.4-5.9,11.2-8.1,17.1
		c0,0-5.2,14.4-1.9,22.9c0,0,1.6,4.9,8.4,8.3c0.6,0.3,1.3,0.6,2,0.9c0,0-2.1-0.9-3.5-3.9c-0.4-1-0.8-2.2-0.9-3.7
		c-0.2-2.2,0-5.1,0.9-8.7c0.8-3,2.2-6.6,4.2-10.8c0,0,2.4-4.4,5.7-10.2c0.2-0.4,0.5-0.8,0.7-1.2c5.2-9,12.3-20.7,16.1-24.2l0.8,1.2
		l6.4,9.2L53.4,60.2z"/>
	<path fill="#333333" d="M129.7,68.9c0.3-0.4,0.5-0.9,0.8-1.3c0,0,7.7-13.8,5.7-22.9c0,0-0.8-5.2-7.2-9.8c-0.6-0.4-1.2-0.8-1.9-1.2
		c0,0,2,1.2,2.9,4.5c0.3,1.1,0.4,2.3,0.3,3.8c0,0,0,0,0,0c0,0,0,0,0,0c-0.1,2.3-0.8,5.2-2.4,8.7c-1.3,2.9-3.2,6.3-6,10.1
		c0,0,0,0.1-0.1,0.1c0,0-3.6,4.6-8.3,10.5c-4,5-8.9,10.8-13.1,15.3c-2.7,2.9-5.2,5.3-7,6.6c-0.1,0-0.1,0.1-0.2,0.1l-0.2-0.4l-0.5-1
		l-5-10.3l-1,5.8l-4.3,24.2l24.4-1.4l6.2-0.4l-3.6-2.2l-7.4-4.4C101.9,103.4,118.9,86.7,129.7,68.9z"/>
</g>
</svg>
