<?xml version="1.0" encoding="utf-8"?>
<!-- Generator: Adobe Illustrator 18.1.0, SVG Export Plug-In . SVG Version: 6.00 Build 0)  -->
<svg version="1.1" id="Layer_1" xmlns="http://www.w3.org/2000/svg" xmlns:xlink="http://www.w3.org/1999/xlink" x="0px" y="0px"
	 viewBox="0 0 2000 2000" enable-background="new 0 0 2000 2000" xml:space="preserve">
<g>
	<path fill="#00596A" d="M1617.9,1357.3c0,0,231.8-362.8-191.4-697.4c0,0,206.2,219.5,178.5,390.5l-47.8,11.3
		c-5.4-38.2-15.2-99.8-23.3-110c-11.8-15-80.9-3.8-83.9,10.4c-3,14.2,21.7,84.8,35.2,89.9c13.5,5.1,26.4-7.3,29.4-1.9
		c1.4,2.6,3.4,11.4,5.1,20.4l-110.6,26.1c0,0,54,188.6-150.5,271.9c0,0,157.1-2.6,222.1-172.5c0,0,14.7,370.5-483.7,411.1
		c0,0,331.3,43.9,532.2-166.6c0,0,130.8,0.3,155.9,34.7c25.1,34.4-254,115.4-254,115.4s324.7,13.8,397.7-47.4
		C1901.8,1482,1617.9,1357.3,1617.9,1357.3z"/>
	<path fill="#001924" d="M721.9,1602.7l17.1-46c34.9,16.7,91.5,42.6,104.4,41.6c19-1.6,48-65.3,37.8-75.6
		c-10.2-10.3-82.6-28.9-94.3-20.5c-11.7,8.5-8.5,26-14.7,25.5c-3-0.2-11.3-3.4-19.8-7.1l39.6-106.5c0,0-186.8-59.6-142.9-276
		c0,0-84.9,132.2,20.4,280.5c0,0-316.5-193.1-74-630.4c0,0-220.2,251.4-156.3,535.3c0,0-72.8,108.7-115.3,110.5
		c-42.5,1.8,44.7-275.4,44.7-275.4s-191.5,262.6-181,357.3c10.6,94.7,271.8-72.5,271.8-72.5s173.5,394,686.5,227.3
		C1145.9,1670.6,848.9,1720.6,721.9,1602.7z"/>
	<path fill="#009DB9" d="M737.7,572.1l29.8,39c-32.7,20.6-84.8,54.7-90.8,66.2c-8.8,16.9,29.6,75.4,43.8,72.3
		c14.1-3.1,68.5-54.5,67.6-68.9c-0.9-14.4-17.5-21.1-13.8-26.1c1.8-2.3,9-7.8,16.5-13l69,90.2c0,0,150.1-126.3,309.7,26.3
		c0,0-66.5-142.3-248.2-132.3c0,0,332.2-164.8,572.8,273.6c0,0-95.3-320.3-369.5-417.7c0,0-53.1-119.5-32-156.5
		c21.2-37,209.1,184.7,209.1,184.7s-120.1-302-205.8-343.6c-85.7-41.5-83.5,268.6-83.5,268.6s-425.9-63.3-558.4,459.6
		C454.2,894.5,570.2,616.7,737.7,572.1z"/>
</g>
</svg>
