<?xml version="1.0" encoding="utf-8"?>
<!-- Generator: Adobe Illustrator 18.1.0, SVG Export Plug-In . SVG Version: 6.00 Build 0)  -->
<svg version="1.1" id="Layer_1" xmlns="http://www.w3.org/2000/svg" xmlns:xlink="http://www.w3.org/1999/xlink" x="0px" y="0px"
	 viewBox="0 0 150 150" enable-background="new 0 0 150 150" xml:space="preserve">
<g>
	<path fill="none" d="M74.8,11.1C39.6,11.1,11,39.7,11,74.8s28.6,63.8,63.8,63.8s63.8-28.6,63.8-63.8S109.9,11.1,74.8,11.1z
		 M74.8,135.5c-33.5,0-60.7-27.2-60.7-60.7s27.2-60.7,60.7-60.7s60.7,27.2,60.7,60.7S108.3,135.5,74.8,135.5z"/>
	<path fill="#C69587" d="M74.8,8.4C38.1,8.4,8.4,38.2,8.4,74.8s29.8,66.4,66.4,66.4s66.4-29.8,66.4-66.4S111.4,8.4,74.8,8.4z
		 M74.8,138.6C39.6,138.6,11,110,11,74.8s28.6-63.8,63.8-63.8s63.8,28.6,63.8,63.8S109.9,138.6,74.8,138.6z"/>
	<path fill="#C69587" d="M74.8,14.2c-33.5,0-60.7,27.2-60.7,60.7s27.2,60.7,60.7,60.7s60.7-27.2,60.7-60.7S108.3,14.2,74.8,14.2z
		 M102,73.5c0,1.4-0.1,2.8-0.3,4.2c7.7,4.5,12.5,10.9,12.5,18c0,13.5-17.2,24.4-38.5,24.4c-21.3,0-38.5-10.9-38.5-24.4
		c0-6.7,4.2-12.7,11-17.1c-0.2-1.7-0.4-3.3-0.4-5.1c0-1.9,0.2-3.7,0.4-5.5c-13.8-5.6-14.8-17.7-14.8-17.7c5.5-3.3,15.8-1.2,21.5,0.4
		C48,40.1,52.4,31.3,55.3,29c2.5-2,4.9-1.2,4.9-1.2c-4.9,7.3-1.9,15.3,0.5,19.6c4.2-3,9.1-4.7,14.3-4.7c6.2,0,11.9,2.4,16.4,6.4
		c2.2-3.4,7.2-12.8,1.5-21.2c0,0,2.4-0.8,4.9,1.2c2.9,2.3,7.3,11.1,0.2,21.7c5.7-1.6,16-3.7,21.5-0.4c0,0-1.2,13.8-17.8,18.7
		C101.9,70.5,102,72,102,73.5z"/>
	<path fill="#FFFAFD" d="M119.5,50.3C114,47,103.7,49.1,98,50.7c7.1-10.6,2.6-19.4-0.2-21.7c-2.5-2-4.9-1.2-4.9-1.2
		c5.7,8.4,0.7,17.8-1.5,21.2c-4.6-4-10.2-6.4-16.4-6.4c-5.3,0-10.2,1.7-14.3,4.7c-2.4-4.2-5.4-12.2-0.5-19.6c0,0-2.4-0.8-4.9,1.2
		c-2.9,2.3-7.3,11.1-0.2,21.7c-5.7-1.6-16-3.7-21.5-0.4c0,0,1,12.1,14.8,17.7c-0.3,1.8-0.4,3.6-0.4,5.5c0,1.7,0.1,3.4,0.4,5.1
		c7-4.5,16.7-7.3,27.5-7.3c10,0,19.1,2.4,26,6.4c0.2-1.4,0.3-2.7,0.3-4.2c0-1.5-0.1-3-0.3-4.5C118.4,64,119.5,50.3,119.5,50.3z
		 M53.1,64c-12-2-12.8-11.2-12.8-11.2c4.4-2.6,14.3,0.9,14.3,0.9L53.1,64z M65.4,69.4c-1.2,0-2.2-0.8-2.2-1.9c0-1,1-1.9,2.2-1.9
		c1.2,0,2.2,0.8,2.2,1.9C67.6,68.5,66.7,69.4,65.4,69.4z M86.4,69.6c-1.2,0-2.2-0.8-2.2-1.9c0-1,1-1.9,2.2-1.9
		c1.2,0,2.2,0.8,2.2,1.9C88.6,68.7,87.6,69.6,86.4,69.6z M100,64l-1.5-10.3c0,0,9.9-3.5,14.3-0.9C112.8,52.8,112,62,100,64z"/>
	<path fill="#E4E5E6" d="M40.3,52.8c0,0,0.8,9.2,12.8,11.2l1.5-10.3C54.6,53.7,44.7,50.2,40.3,52.8z"/>
	<path fill="#E4E5E6" d="M48.3,78.6c-6.8,4.4-11,10.4-11,17.1c0,13.5,17.2,24.4,38.5,24.4c21.3,0,38.5-10.9,38.5-24.4
		c0-7.1-4.8-13.5-12.5-18c-6.8-4-16-6.4-26-6.4C65.1,71.2,55.3,74,48.3,78.6z M60.7,100.4c-0.5-0.5,16.2,12.2,31.2-2.6
		C91.9,97.8,78.3,116.4,60.7,100.4z M87.4,88.4c0,4-5.4,7.2-12,7.2c-6.6,0-12-3.2-12-7.2c0-4,5.4-7.2,12-7.2
		C82.1,81.2,87.4,84.4,87.4,88.4z"/>
	<ellipse fill="#434345" cx="65.4" cy="67.5" rx="2.2" ry="1.9"/>
	<ellipse fill="#434345" cx="86.4" cy="67.7" rx="2.2" ry="1.9"/>
	<path fill="#E4E5E6" d="M98.5,53.7L100,64c12-2,12.8-11.2,12.8-11.2C108.4,50.2,98.5,53.7,98.5,53.7z"/>
	<ellipse fill="#434345" cx="75.4" cy="88.4" rx="12" ry="7.2"/>
	<path fill="#434345" d="M60.7,100.4c17.6,16,31.2-2.6,31.2-2.6C76.9,112.5,60.1,99.9,60.7,100.4z"/>
</g>
</svg>
