<?xml version="1.0" encoding="utf-8"?>
<!-- Generator: Adobe Illustrator 18.1.0, SVG Export Plug-In . SVG Version: 6.00 Build 0)  -->
<svg version="1.1" id="Layer_1" xmlns="http://www.w3.org/2000/svg" xmlns:xlink="http://www.w3.org/1999/xlink" x="0px" y="0px"
	 viewBox="0 0 150 150" enable-background="new 0 0 150 150" xml:space="preserve">
<g>
	<path fill="none" d="M51.3,63.2c-0.1,0.8-0.1,1.6-0.1,2.3c0,0.7-0.3,1.7-0.8,2.9c0.5,0,1-0.4,1.5-1.2c0.5-0.8,0.8-1.7,1.1-2.6
		c0.8-2,1-4.1,0.6-6.1c-0.1-0.8-0.4-1.3-0.8-1.5c-1.1-0.7-2-0.6-2.6,0.1c-0.4,0.5-0.3,1.1,0.3,1.8C51.2,59.7,51.5,61.1,51.3,63.2z"
		/>
	<path fill="none" d="M51.6,82.8c0-1.8-0.9-2.7-2.7-2.7c-1.8,0-2.7,0.9-2.7,2.7c0,1.8,0.9,2.7,2.7,2.7
		C50.7,85.6,51.6,84.6,51.6,82.8z"/>
	<path fill="none" d="M57,45c-0.6,0.4-0.7,1-0.4,1.8c0.5,1.2,0.2,2.6-0.8,4.2c-0.9,1.4-1.9,2.5-3.2,3.2c1.5-0.2,2.9-1,4.4-2.3
		c1.6-1.4,2.5-2.8,2.7-4.3c0.1-0.8,0-1.4-0.4-1.9C58.6,44.8,57.8,44.5,57,45z"/>
	<path fill="none" d="M53.7,74.2c-1,0.4-1.2,1.4-0.6,3c0.3,0.6,0.6,1.3,0.7,2c0.2,0.6,0.3,1.3,0.4,1.9c0.1,0.3,0.1,0.6,0.1,0.8
		c0,1.5-0.5,2.8-1.6,3.9c-1.1,1.1-2.3,1.6-3.8,1.6c0.9,0.6,1.7,0.9,2.6,0.9c1.6,0,2.9-0.7,4-2.2c1.1-1.5,1.6-3.3,1.6-5.4
		c0-1.4-0.2-2.7-0.7-3.8c-0.1-0.2-0.1-0.3-0.2-0.4c0-0.1-0.1-0.2-0.2-0.4C55.4,74.6,54.6,73.9,53.7,74.2z"/>
	<path fill="none" d="M86.7,133l0.8-1.2c-0.7-0.3-1.3-0.6-2-1.1c-0.5,0.5-1,0.9-1.5,1.3C84.9,132.4,85.8,132.7,86.7,133z"/>
	<path fill="none" d="M10.1,42.6l0.7,1.3c0.6-0.4,1.3-0.8,1.9-1.2c-0.1-0.6-0.2-1.3-0.3-2C11.5,41.4,10.8,42,10.1,42.6z"/>
	<path fill="none" d="M80.9,35.5c-0.6-0.1-1.1,0.2-1.5,1.1c-0.5,1.2-1.6,2-3.5,2.5c-1.2,0.3-2.3,0.4-3.4,0.2
		c1.2,0.9,2.4,1.2,3.7,1.1c2.2-0.2,3.7-0.6,4.5-1.2c0.6-0.4,1-0.9,1-1.6C82.1,36.3,81.8,35.6,80.9,35.5z"/>
	<path fill="none" d="M68.4,38.2c-0.7,0-1.1,0.5-1.3,1.4c-0.3,1.4-1.3,2.5-3,3.4c-1.6,0.8-2.8,1.2-3.4,1.2c0.9,0.5,2.2,0.6,3.9,0.3
		c1.9-0.3,3.4-1.1,4.4-2.3c0.5-0.6,0.8-1.2,0.8-1.9C69.7,38.8,69.3,38.2,68.4,38.2z"/>
	<path fill="none" d="M40.6,32c-7.2,2.2-13.2,4.2-18,6.1c2.3,13.3,6.6,25.9,12.7,37.8c7,13.5,15.9,25.5,26.9,36.1
		c5.5,5.2,10.3,9.4,14.3,12.6c10.3-8.7,19.1-18.7,26.3-29.9c8.2-12.7,14.1-26.6,17.8-41.3c1.8-7.3,3-13.6,3.8-18.7
		c-12.6-4.6-25.7-7.2-39.1-7.8C70.2,26,55.2,27.8,40.6,32z M100.3,65.6c-1.1,0-2.2,0.1-3.3,0.1c-1.8,0.3-3.6,0.6-5.3,0.8
		c-3,1.1-4.7,1.5-5.1,1.3c1.6,1.3,3.2,2.4,4.9,3.3c1.6,0.9,3.6,1.9,5.8,2.9c0.6,0.5,1.4,0.8,2.5,0.8c1.1,0,1.5,0.6,1.2,1.8
		c0,3-0.1,6.1-0.3,9.1c-0.2,3.1-0.2,6.3-0.1,9.6c-1.6-0.2-3.1-0.5-4.5-0.9c-1.5-0.4-2.9-1.1-4.4-2.1c-2.6-0.9-4.9-2.1-7-3.6
		c-2-1.5-4.3-2.9-6.6-4.3c-4.7,4.7-9.8,7.1-15.3,7.3c0.1-1.9,0.5-3.8,1.3-5.8c0.8-2,1.4-4,1.7-6c-2.9-2.7-4.6-6-5.3-9.9
		c-0.7-3.9-0.3-7.6,1-11.1c2.2-6.4,7.1-10.5,14.7-12.1c2.9-0.3,5.7-0.3,8.4,0c2.7,0.3,5.4,1.3,7.9,3c2.6,2,5,4.2,7.1,6.4
		c2.1,2.2,3.5,5.3,4.2,9.2C102.5,65.6,101.4,65.6,100.3,65.6z M90.7,32.7c1.6,0.3,3,0.9,4.3,1.7c1.3-1,2.7-1.5,4.2-1.5
		c1.9,0,3.5,0.7,4.9,2c1.3,1.4,2,3,2,4.9c0,1.9-0.7,3.5-2,4.9c-1.3,1.3-3,2-4.9,2c-1.2,0-2.3-0.3-3.4-0.9c-1-0.5-1.9-1-2.8-1.3
		l-2,4.4l-2.5-1.2l1.9-4.2c-2.8-0.8-5.6-1.2-8.4-1.2c-7.2,0-13.4,2.2-18.5,6.7c-5.1,4.5-7.7,9.8-7.7,16.1c0,3.3,0.8,6.5,2.3,9.5
		l2.1-1.1l1.2,2.5l-2.2,1.1c0.3,1.1,0.5,2.3,0.5,3.6c0,2.9-0.8,5.3-2.4,7.3c-1.6,2-3.6,3-5.9,3c-1.9,0-3.6-0.7-5.1-2.2
		c-1.5-1.5-2.5-3.3-3-5.6c-0.1-0.4-0.2-0.9-0.2-1.3c0-1.5,0.5-2.8,1.6-3.9c1.1-1.1,2.3-1.6,3.9-1.6c0.2,0,0.5,0,0.9,0.1
		c-2.2-5-2.9-10.2-2.1-15.4c-0.9-2.1-0.8-4.5,0.1-7.1c0.9-2.6,2.3-4.3,4.3-5.4c0.3-2,1.3-4,3.1-5.7c1.9-1.8,3.8-2.8,5.7-3
		c1.1-2,2.9-3.4,5.5-4.4c2-0.7,3.9-0.9,5.7-0.5c1.5-1.5,3.6-2.4,6.3-2.6c2.2-0.2,4.2,0.2,5.9,1.1C86,32.6,88.1,32.3,90.7,32.7z"/>
	<path fill="none" d="M125.3,23.6c0-0.7,0-1.4-0.1-2.1l0,0C125.3,22.1,125.3,22.9,125.3,23.6c0.6,0.3,1.2,0.5,1.8,0.8c0,0,0,0,0-0.1
		C126.5,24.1,125.9,23.9,125.3,23.6z"/>
	<path fill="none" d="M85.2,39.3c0.3,0.3,0.8,0.5,1.7,0.7c1.8,0.3,3.4,0.1,4.9-0.6c0.7-0.3,1.1-0.8,1.3-1.4c0.4-1.1,0.2-1.8-0.6-2.1
		c-0.6-0.2-1.2,0-1.7,0.8c-0.7,1-2,1.6-3.8,1.8c-1.2,0.1-2.1,0.1-2.7-0.2C84.6,38.6,84.9,39,85.2,39.3z"/>
	<path fill="none" d="M96.1,43.2c2.4,1.4,4.3,0.9,5.7-1.5c1.4-2.4,0.9-4.3-1.5-5.6c0.8,1.6,0.4,3.2-1,4.7c-1.1,0.9-2.7,1.2-4.7,1
		C95,42.3,95.5,42.8,96.1,43.2z"/>
	<path fill="#1AA94B" d="M92.3,50c-2.5-1.7-5.1-2.7-7.9-3c-2.7-0.3-5.5-0.3-8.4,0c-7.6,1.7-12.5,5.7-14.7,12.1
		c-1.3,3.5-1.7,7.2-1,11.1c0.7,3.9,2.4,7.2,5.3,9.9c-0.4,2-1,4-1.7,6c-0.8,2-1.2,3.9-1.3,5.8c5.6-0.2,10.7-2.6,15.3-7.3
		c2.4,1.4,4.6,2.8,6.6,4.3c2,1.5,4.4,2.7,7,3.6c1.5,1,2.9,1.7,4.4,2.1c1.5,0.4,3,0.7,4.5,0.9c-0.1-3.3,0-6.5,0.1-9.6
		c0.2-3.1,0.3-6.1,0.3-9.1c0.3-1.2-0.1-1.8-1.2-1.8c-1.1,0-2-0.2-2.5-0.8c-2.3-1.1-4.2-2-5.8-2.9c-1.6-0.9-3.3-2-4.9-3.3
		c0.4,0.2,2.2-0.2,5.1-1.3c1.8-0.3,3.5-0.5,5.3-0.8c1.1,0,2.2-0.1,3.3-0.1c1.1,0,2.2-0.1,3.3-0.1c-0.7-3.9-2.1-6.9-4.2-9.2
		C97.3,54.2,94.9,52,92.3,50z M94,62.2c-1,0-2.5-0.4-4.2-0.7c-1.7-0.4-3.7-0.7-5.7-0.7c-1.6,0-3.3,0.2-4.9,0.9
		c-6.7,2.9-10,12.6-12.9,12.6c-0.8,0-1.4-0.7-2.2-2.6c-0.9-2.1-1.2-4.3-1.2-6.5V65c0-6.4,3.6-12.7,9.9-15.5c2.2-0.9,4.2-1.6,6.5-1.6
		h0c6.4,0,12.6,3.9,15.3,10.2c0.5,1.2,0.7,2.1,0.7,2.7C95.5,61.8,94.9,62.2,94,62.2z"/>
	<path fill="#1AA94B" d="M78.3,32.5c-2.7,0.3-4.8,1.1-6.3,2.6c-1.7-0.4-3.7-0.2-5.7,0.5c-2.6,1-4.4,2.5-5.5,4.4
		c-2,0.2-3.9,1.2-5.7,3c-1.7,1.8-2.7,3.7-3.1,5.7c-1.9,1-3.4,2.8-4.3,5.4c-0.9,2.6-1,5-0.1,7.1c-0.8,5.2-0.1,10.3,2.1,15.4
		c-0.4-0.1-0.7-0.1-0.9-0.1c-1.5,0-2.8,0.5-3.9,1.6c-1.1,1.1-1.6,2.4-1.6,3.9c0,0.5,0.1,0.9,0.2,1.3c0.5,2.3,1.5,4.1,3,5.6
		c1.5,1.5,3.2,2.2,5.1,2.2c2.3,0,4.2-1,5.9-3c1.6-2,2.4-4.5,2.4-7.3c0-1.3-0.2-2.5-0.5-3.6l2.2-1.1l-1.2-2.5l-2.1,1.1
		c-1.6-3-2.3-6.2-2.3-9.5c0-6.2,2.6-11.6,7.7-16.1c5.1-4.5,11.3-6.7,18.5-6.7c2.8,0,5.6,0.4,8.4,1.2l-1.9,4.2l2.5,1.2l2-4.4
		c0.8,0.3,1.7,0.8,2.8,1.3c1.1,0.6,2.2,0.9,3.4,0.9c1.9,0,3.5-0.7,4.9-2c1.3-1.3,2-3,2-4.9c0-1.9-0.7-3.5-2-4.9c-1.3-1.4-3-2-4.9-2
		c-1.6,0-3,0.5-4.2,1.5c-1.2-0.8-2.7-1.4-4.3-1.7c-2.5-0.4-4.7-0.1-6.5,0.9C82.5,32.7,80.6,32.4,78.3,32.5z M50.2,57.2
		c0.6-0.8,1.5-0.8,2.6-0.1c0.4,0.2,0.7,0.7,0.8,1.5c0.3,2,0.1,4-0.6,6.1c-0.3,0.9-0.7,1.7-1.1,2.6c-0.5,0.8-1,1.2-1.5,1.2
		c0.5-1.2,0.8-2.2,0.8-2.9c0-0.8,0.1-1.5,0.1-2.3c0.1-2.1-0.1-3.5-0.8-4.2C49.9,58.4,49.8,57.8,50.2,57.2z M46.1,82.8
		c0-1.8,0.9-2.7,2.7-2.7c1.8,0,2.7,0.9,2.7,2.7c0,1.8-0.9,2.7-2.7,2.7C47,85.6,46.1,84.6,46.1,82.8z M56.1,76.1
		c0.1,0.2,0.1,0.3,0.2,0.4c0,0.1,0.1,0.2,0.2,0.4c0.5,1.2,0.7,2.5,0.7,3.8c0,2.1-0.5,3.9-1.6,5.4c-1.1,1.5-2.4,2.2-4,2.2
		c-0.9,0-1.8-0.3-2.6-0.9c1.5,0,2.8-0.5,3.8-1.6c1.1-1,1.6-2.3,1.6-3.9c0-0.2,0-0.5-0.1-0.8c-0.1-0.6-0.2-1.3-0.4-1.9
		c-0.2-0.7-0.4-1.4-0.7-2c-0.6-1.6-0.4-2.6,0.6-3C54.6,73.9,55.4,74.6,56.1,76.1z M59.7,47.6c-0.2,1.5-1.1,2.9-2.7,4.3
		c-1.5,1.3-2.9,2.1-4.4,2.3c1.2-0.7,2.3-1.8,3.2-3.2c1-1.6,1.3-3,0.8-4.2c-0.4-0.8-0.2-1.4,0.4-1.8c0.8-0.5,1.6-0.3,2.3,0.7
		C59.7,46.2,59.8,46.8,59.7,47.6z M68.9,42c-1,1.2-2.5,2-4.4,2.3c-1.6,0.3-2.9,0.2-3.9-0.3c0.6,0.1,1.8-0.3,3.4-1.2
		c1.7-0.8,2.7-1.9,3-3.4c0.2-0.9,0.6-1.4,1.3-1.4c0.9,0,1.3,0.7,1.3,2C69.7,40.8,69.5,41.4,68.9,42z M81.8,37.4
		c-0.1,0.6-0.4,1.2-1,1.6c-0.8,0.6-2.3,1-4.5,1.2c-1.3,0.1-2.6-0.2-3.7-1.1c1,0.2,2.1,0.2,3.4-0.2c1.8-0.5,3-1.3,3.5-2.5
		c0.4-0.8,0.9-1.2,1.5-1.1C81.8,35.6,82.1,36.3,81.8,37.4z M99.3,40.7c1.4-1.6,1.7-3.1,1-4.7c2.4,1.3,2.9,3.2,1.5,5.6
		c-1.4,2.4-3.3,3-5.7,1.5c-0.6-0.4-1.1-0.9-1.5-1.5C96.7,41.9,98.2,41.6,99.3,40.7z M86.9,38.4c1.9-0.2,3.1-0.8,3.8-1.8
		c0.5-0.7,1-1,1.7-0.8c0.8,0.3,1.1,1,0.6,2.1c-0.2,0.6-0.6,1-1.3,1.4c-1.4,0.7-3,0.9-4.9,0.6c-0.9-0.2-1.4-0.4-1.7-0.7
		c-0.3-0.3-0.6-0.6-1-1.1C84.8,38.5,85.7,38.6,86.9,38.4z"/>
	<path fill="#075EAB" d="M127.1,24.3c-0.1-1-0.3-1.9-0.5-2.8l-1.4-0.1c0.1,0.7,0.1,1.4,0.1,2.1C125.9,23.9,126.5,24.1,127.1,24.3z"
		/>
	<path fill="#5AB947" d="M86.7,133c-0.9-0.3-1.8-0.6-2.7-1c-5.3,4.3-9.8,7.3-13.8,9.2l0.3,0.7c6.9-1.5,14.7-5.4,23.4-11.8
		c8.8-6.4,16.6-15.1,23.6-26c13.5-21,18.6-40.7,15.2-59.1l-0.7,0c-2,19.8-8.6,38.5-19.9,56c-6.2,9.6-13.4,18.1-21.6,25.4
		c-1.8,1.6-3.5,3.1-5.1,4.4c0.7,0.4,1.3,0.7,2,1.1L86.7,133z"/>
	<path fill="#5AB947" d="M142.4,31.1c-4.7-5.3-12.1-10-22-14.4c-9.9-4.3-21.3-6.8-34.3-7.4c-24.9-1.2-44.5,4.3-58.9,16.4l0.5,0.6
		c18.1-8.2,37.6-11.8,58.4-10.8c11.4,0.5,22.3,2.5,32.8,6c2.3,0.7,4.4,1.5,6.4,2.2c0-0.7,0-1.5-0.1-2.2l0,0l1.4,0.1
		c0.2,0.9,0.4,1.8,0.5,2.8c0,0,0,0,0,0.1c6.3,2.4,11.2,4.8,14.8,7.3L142.4,31.1z"/>
	<path fill="#0A2335" d="M125.1,28.7c-12.1-4.8-25.7-7.5-40.8-8.2c-7.3-0.3-14.6-0.1-21.8,0.8c-7.1,0.9-14.1,2.4-20.8,4.5
		c-7.5,2.4-14.1,5.2-19.8,8.5c-1.8,1-3.6,2.1-5.2,3.2c-1.6,1-3,2.1-4.4,3.3c0.1,0.6,0.2,1.3,0.3,2c1.3-0.8,2.8-1.6,4.5-2.4
		c1.9,12.9,6.4,26,13.3,39.4c3.4,6.6,7.2,12.7,11.6,18.5c4.3,5.8,9,11,14.3,15.8c5.8,5.3,11.6,9.6,17.3,12.9
		c1.8,1.1,3.6,2.1,5.4,2.9c1.7,0.8,3.4,1.5,5.1,2.1c0.5-0.4,1-0.8,1.5-1.3c-1.3-0.7-2.8-1.7-4.2-2.7c10.2-8.1,19.3-18.5,27.5-31.2
		c4-6.2,7.4-12.7,10.2-19.3c2.8-6.7,5-13.4,6.6-20.3c1.7-7.7,2.5-14.8,2.5-21.4c0-2.1,0-4.2-0.2-6.2c-0.1-1.8-0.3-3.7-0.7-5.4
		c-0.6-0.2-1.2-0.5-1.9-0.7C125.3,25.1,125.2,26.9,125.1,28.7z M120.6,53.3c-3.6,14.8-9.6,28.6-17.8,41.3
		c-7.3,11.3-16,21.2-26.3,29.9c-4-3.2-8.8-7.4-14.3-12.6c-10.9-10.6-19.9-22.6-26.9-36.1C29.1,63.9,24.9,51.3,22.6,38
		c4.8-1.8,10.8-3.9,18-6.1c14.6-4.2,29.6-5.9,44.7-5.2c13.4,0.6,26.4,3.2,39.1,7.8C123.6,39.7,122.3,45.9,120.6,53.3z"/>
	<path fill="#5AB947" d="M10.1,42.6c0.7-0.6,1.4-1.2,2.2-1.8c-1.1-6.6-1.4-12.1-1-16.5l-0.8-0.1C8.3,30.9,7.8,39.6,9,50.4
		c1.2,10.8,4.8,21.9,10.7,33.4c11.5,22.2,25.9,36.4,43.6,42.8l0.4-0.7c-16.2-11.6-29-26.6-38.6-45.2c-5.2-10.2-9-20.6-11.2-31.4
		c-0.5-2.3-0.9-4.5-1.3-6.6c-0.6,0.4-1.3,0.7-1.9,1.2L10.1,42.6z"/>
	<path fill="#4B9D42" d="M79.5,48L79.5,48c-2.3,0-4.3,0.6-6.5,1.6c-6.3,2.7-9.9,9-9.9,15.5v0.2c0,2.2,0.3,4.4,1.2,6.5
		c0.8,1.8,1.5,2.6,2.3,2.6c2.9,0,6.2-9.7,12.9-12.6c1.6-0.7,3.2-0.9,4.9-0.9c2,0,4,0.4,5.7,0.7c1.7,0.4,3.2,0.7,4.2,0.7
		c0.9,0,1.4-0.3,1.4-1.2c0-0.6-0.2-1.6-0.7-2.8C92,51.9,85.9,48,79.5,48z"/>
</g>
</svg>
