<?xml version="1.0" encoding="utf-8"?>
<!-- Generator: Adobe Illustrator 18.1.0, SVG Export Plug-In . SVG Version: 6.00 Build 0)  -->
<svg version="1.0" id="Layer_1" xmlns="http://www.w3.org/2000/svg" xmlns:xlink="http://www.w3.org/1999/xlink" x="0px" y="0px"
	 viewBox="0 0 150 150" enable-background="new 0 0 150 150" xml:space="preserve">
<g>
	<path fill="#5DB446" d="M52.3,101.8c1.2,0,2.4-0.7,3.4-1.9l2.6-3.1c0.9-1,1.8-1.6,2.6-1.6c0.9,0,1.8,0.4,2.9,1.3l2.6,2.2
		c1.2,1,2.4,1.5,3.7,1.5c1.3,0,2.4-0.7,3.5-1.9l1.9-2.3c1.1-1.3,1.6-2.5,1.4-3.7c-0.2-1.1-1-2.2-2.3-3.4l-1.6-1.3
		c-1.3-1.1-2.6-1.7-3.8-1.8c-1.2-0.1-2.4,0.5-3.5,1.9L63.3,91c-0.8,0.9-1.6,1.5-2.4,1.7c-0.8,0.2-1.7-0.1-2.7-1l-14-12
		c-1.1-1-1.7-1.9-1.7-2.7c0-0.4,0.1-0.9,0.3-1.3l1.7-2c0.4-0.5,0.8-1,1-1.5l1-1.1c1.1-1.3,1.6-2.6,1.4-3.7c-0.2-1.1-1-2.2-2.2-3.2
		l-1.9-1.6c-1.1-0.9-2.2-1.4-3.4-1.3c-0.4,0-0.8,0.1-1.2,0.3c0-0.7,0.4-1.6,1.3-2.6l2.3-2.7c1-1.2,1.5-2.5,1.4-4
		c-0.1-1.4-0.8-2.7-2.1-3.8l-6.7-5.7c-1.3-1.1-2.6-1.6-4-1.5c-1.4,0.1-2.6,0.8-3.6,2l-1.3,1.5c-1,1.2-1.5,2.5-1.4,3.9
		c0.1,1.4,0.8,2.6,2.1,3.7l7.9,6.7c1.1,1,1.8,1.9,1.8,2.7c0.1,0.8-0.4,1.8-1.3,2.9L23.7,78.3c-1.1,1.2-2,1.8-2.8,1.8
		c-0.8,0.1-1.7-0.3-2.6-1.1l-3-2.6c-1.3-1.1-2.6-1.7-3.8-1.6C10.3,74.9,9.2,75.6,8,77l-1.9,2.2c-1.1,1.3-1.7,2.6-1.7,3.9
		c0,1.3,0.7,2.5,2.1,3.6l2.2,1.9c1.3,1.1,2.6,1.5,3.8,1.2c1.2-0.3,2.3-1.1,3.4-2.3l2.7-3.2c1-1.1,1.9-1.7,2.7-1.7
		c0.9,0,1.8,0.5,2.8,1.4l2.5,2.2c1.3,1.1,2.5,1.6,3.8,1.6c1.3,0,2.5-0.7,3.7-2.1l1.1-1.3c-0.4,0.7-0.6,1.5-0.5,2.3
		c0.1,1.3,0.7,2.4,2,3.5l11.9,10.1C49.9,101.3,51.1,101.8,52.3,101.8z"/>
	<path fill="#0F222C" d="M49.9,55.1l3.1,2.6c1,0.9,1.6,1.8,1.6,2.6c0,0.9-0.4,1.8-1.3,2.9L51,65.9c-1,1.2-1.5,2.4-1.5,3.7
		c0,1.3,0.7,2.4,1.9,3.5l2.3,1.9c1.3,1.1,2.6,1.6,3.7,1.4c1.1-0.2,2.2-1,3.4-2.3l1.3-1.6c1.1-1.3,1.7-2.6,1.8-3.8
		c0.1-1.2-0.5-2.3-1.9-3.5l-3.2-2.7c-0.9-0.8-1.5-1.6-1.7-2.4c-0.2-0.8,0.1-1.7,1-2.7l12-14c1-1.1,1.9-1.7,2.7-1.7
		c0.4,0,0.9,0.1,1.3,0.3l1.9,1.7c0.5,0.4,1,0.8,1.5,1l1.1,1c1.3,1.1,2.6,1.6,3.7,1.3c1.1-0.2,2.2-0.9,3.3-2.1l1.6-1.9
		c0.9-1.1,1.4-2.2,1.3-3.4c0-0.4-0.1-0.8-0.3-1.2c0.7,0,1.6,0.4,2.6,1.3l2.7,2.3c1.2,1,2.5,1.5,4,1.4c1.4-0.1,2.7-0.8,3.8-2.1
		l5.7-6.7c1.1-1.3,1.6-2.6,1.5-4c-0.1-1.4-0.8-2.6-2-3.6l-1.5-1.3c-1.2-1-2.5-1.5-3.9-1.4c-1.4,0.1-2.6,0.8-3.7,2.1l-6.7,7.9
		c-1,1.1-1.9,1.8-2.7,1.8c-0.8,0.1-1.8-0.4-2.9-1.3L71.6,23.1c-1.2-1.1-1.8-2-1.8-2.8c-0.1-0.8,0.3-1.7,1.1-2.6l2.6-3
		c1.1-1.3,1.7-2.6,1.6-3.8c-0.1-1.2-0.8-2.3-2.1-3.5l-2.2-1.9c-1.3-1.1-2.6-1.7-3.9-1.7c-1.2,0-2.5,0.7-3.6,2.1l-1.9,2.2
		c-1.1,1.3-1.5,2.6-1.2,3.8c0.3,1.2,1.1,2.3,2.3,3.4l3.2,2.7c1.1,1,1.7,1.9,1.7,2.7c0,0.9-0.5,1.8-1.4,2.8L63.7,26
		c-1.1,1.3-1.6,2.5-1.6,3.8c0,1.3,0.7,2.5,2.1,3.7l1.3,1.1c-0.8-0.4-1.5-0.6-2.3-0.5c-1.3,0.1-2.4,0.7-3.5,2L49.6,48
		c-1,1.2-1.5,2.4-1.5,3.7C48.1,52.9,48.7,54,49.9,55.1z"/>
	<path fill="#0F222C" d="M100.5,94.1l-3.1-2.6c-1-0.9-1.6-1.8-1.6-2.6c0-0.9,0.4-1.8,1.3-2.9l2.3-2.6c1-1.2,1.5-2.4,1.5-3.7
		c0-1.3-0.7-2.4-1.9-3.5l-2.3-1.9c-1.3-1.1-2.5-1.6-3.7-1.4c-1.1,0.2-2.2,1-3.4,2.3l-1.3,1.5c-1.1,1.3-1.7,2.6-1.8,3.8
		c-0.1,1.2,0.6,2.4,1.9,3.5l3.2,2.7c0.9,0.8,1.5,1.6,1.7,2.4c0.2,0.8-0.1,1.7-1,2.7l-12,14c-1,1.1-1.9,1.7-2.7,1.7
		c-0.4,0-0.9-0.1-1.3-0.3l-2-1.7c-0.5-0.4-1-0.8-1.5-1l-1.1-1c-1.3-1.1-2.6-1.6-3.7-1.4c-1.1,0.2-2.2,1-3.3,2.2l-1.6,1.9
		c-0.9,1.1-1.4,2.2-1.3,3.4c0,0.4,0.1,0.8,0.3,1.2c-0.7,0-1.6-0.4-2.6-1.3l-2.7-2.3c-1.2-1-2.5-1.5-4-1.4c-1.4,0.1-2.7,0.8-3.8,2.1
		l-5.7,6.7c-1.1,1.3-1.6,2.6-1.5,4c0.1,1.4,0.8,2.6,2,3.6l1.5,1.3c1.2,1,2.5,1.5,3.9,1.4c1.4-0.1,2.6-0.8,3.7-2.1l6.7-7.9
		c1-1.1,1.9-1.8,2.7-1.8c0.8-0.1,1.8,0.4,2.9,1.3l13.7,11.7c1.2,1.1,1.8,2,1.8,2.8c0.1,0.8-0.3,1.7-1.1,2.6l-2.6,3
		c-1.1,1.3-1.7,2.6-1.6,3.8c0.1,1.2,0.8,2.3,2.1,3.5l2.2,1.9c1.3,1.1,2.6,1.7,3.8,1.7c1.2,0,2.5-0.7,3.6-2.1l1.9-2.2
		c1.1-1.3,1.5-2.6,1.2-3.8c-0.3-1.2-1.1-2.3-2.3-3.4l-3.2-2.7c-1.1-1-1.7-1.9-1.7-2.7c0-0.9,0.5-1.8,1.4-2.8l2.2-2.5
		c1.1-1.3,1.6-2.5,1.6-3.8c0-1.3-0.7-2.5-2.1-3.7l-1.3-1.1c0.8,0.4,1.5,0.6,2.3,0.5c1.3-0.1,2.4-0.7,3.5-2l10.1-11.9
		c1-1.2,1.5-2.4,1.5-3.7C102.4,96.3,101.8,95.2,100.5,94.1z"/>
	<path fill="#5DB446" d="M144,62.6l-2.2-1.8c-1.3-1.1-2.6-1.5-3.8-1.2c-1.2,0.3-2.3,1.1-3.4,2.3l-2.7,3.2c-1,1.2-1.9,1.7-2.7,1.7
		c-0.9,0-1.8-0.5-2.8-1.4l-2.5-2.2c-1.3-1.1-2.5-1.6-3.8-1.6c-1.3,0-2.5,0.7-3.7,2.1l-1.1,1.3c0.4-0.8,0.6-1.6,0.5-2.3
		c-0.1-1.3-0.7-2.4-2-3.5l-11.9-10.1c-1.2-1-2.4-1.5-3.7-1.5c-1.2,0-2.4,0.7-3.4,1.9l-2.6,3.1c-0.9,1-1.8,1.6-2.6,1.6
		c-0.9,0-1.8-0.4-2.9-1.3L84,50.4c-1.2-1-2.4-1.5-3.7-1.5c-1.3,0-2.4,0.7-3.5,1.9l-1.9,2.3c-1.1,1.3-1.6,2.5-1.4,3.7
		c0.2,1.1,1,2.2,2.3,3.4l1.5,1.3c1.3,1.1,2.6,1.7,3.8,1.8c1.2,0.1,2.3-0.5,3.5-1.9l2.7-3.2c0.8-0.9,1.6-1.5,2.4-1.7
		c0.8-0.2,1.7,0.1,2.7,1l14,12c1.2,1,1.7,1.9,1.7,2.7c0,0.4-0.1,0.9-0.3,1.4l-1.6,1.9c-0.4,0.5-0.7,1-1,1.5l-1,1.2
		c-1.1,1.3-1.6,2.6-1.4,3.7c0.2,1.1,1,2.2,2.2,3.3l1.9,1.6c1.1,0.9,2.2,1.4,3.4,1.3c0.4,0,0.8-0.1,1.2-0.3c0,0.7-0.4,1.6-1.3,2.6
		l-2.3,2.7c-1,1.2-1.5,2.5-1.4,4c0.1,1.4,0.8,2.7,2.1,3.9l6.7,5.7c1.3,1.1,2.6,1.6,4,1.5c1.4-0.1,2.6-0.8,3.7-2l1.3-1.5
		c1-1.2,1.5-2.5,1.4-3.9c-0.1-1.4-0.8-2.6-2.1-3.7l-7.9-6.7c-1.1-1-1.7-1.9-1.8-2.7c-0.1-0.8,0.4-1.8,1.3-2.9l11.7-13.7
		c1.1-1.2,2-1.8,2.8-1.8c0.8-0.1,1.7,0.3,2.6,1.1l3,2.5c1.3,1.1,2.6,1.7,3.8,1.6c1.2-0.1,2.3-0.8,3.5-2.1l1.9-2.2
		c1.1-1.3,1.7-2.6,1.7-3.9C146,65,145.4,63.8,144,62.6z"/>
</g>
</svg>
