<?xml version="1.0" encoding="utf-8"?>
<!-- Generator: Adobe Illustrator 18.1.0, SVG Export Plug-In . SVG Version: 6.00 Build 0)  -->
<svg version="1.1" id="Layer_1" xmlns="http://www.w3.org/2000/svg" xmlns:xlink="http://www.w3.org/1999/xlink" x="0px" y="0px"
	 viewBox="0 0 1000 1000" enable-background="new 0 0 1000 1000" xml:space="preserve">
<g>
	<path fill="none" d="M614.5,246.8c3.1,0,5.7-2.7,5.7-6c0-3.3-2.5-6-5.7-6c-3.1,0-5.7,2.7-5.7,6
		C608.8,244.1,611.4,246.8,614.5,246.8z"/>
	<path fill="none" d="M667.9,216c3.1,0,5.7-2.7,5.7-6c0-3.3-2.5-6-5.7-6c-3.1,0-5.7,2.7-5.7,6C662.2,213.4,664.8,216,667.9,216z"/>
	<path fill="none" d="M686.3,464.2c15-7.1,30.6-13.7,46.7-19.5c1.2-24.5-7.4-42.7-20.1-56.1c-13.3,4.7-27.5,10.1-42.4,16.5
		C685.5,421.3,688.8,442.7,686.3,464.2z"/>
	<path fill="none" d="M639.2,232.7c3.1,0,5.7-2.7,5.7-6c0-3.3-2.5-6-5.7-6c-3.1,0-5.7,2.7-5.7,6C633.5,230,636.1,232.7,639.2,232.7z
		"/>
	<path fill="none" d="M749.9,439c11.6-3.7,23.5-7,35.5-9.8c5-26.3-3-44.8-15.3-57.7c-11.3,2.7-24.4,6.3-39,10.9
		c6.3,7.1,11.4,15.7,14.8,26.3C749.3,419,750.3,429.1,749.9,439z"/>
	<path fill="none" d="M631.6,351.8l-1.3,6.8c5.3-1.4,10.6-2.8,16.1-4.1C640.1,353.1,634.9,352.2,631.6,351.8z"/>
	<path fill="none" d="M629.9,382.8c9.6,2.5,17.6,5.9,24.5,9.8c15.9-6.8,30.4-12.2,43.7-16.6c-12.2-8.4-25.8-14-37.8-17.8
		c-9.5,3.4-20.4,7.4-32.1,12.2l-7.2,37.5c8.5-4.1,16.6-7.9,24.4-11.4C636.9,387.3,629.9,382.8,629.9,382.8z"/>
	<ellipse fill="none" cx="510.3" cy="307.5" rx="5.7" ry="6"/>
	<path fill="none" d="M589.8,260.8c3.1,0,5.7-2.7,5.7-6c0-3.3-2.6-6-5.7-6c-3.1,0-5.7,2.7-5.7,6
		C584.1,258.1,586.6,260.8,589.8,260.8z"/>
	<path fill="none" d="M460.9,341.6c3.1,0,5.7-2.7,5.7-6c0-3.3-2.6-6-5.7-6c-3.1,0-5.7,2.7-5.7,6
		C455.2,338.9,457.8,341.6,460.9,341.6z"/>
	<path fill="none" d="M485.6,327.6c3.1,0,5.7-2.7,5.7-6c0-3.3-2.5-6-5.7-6c-3.1,0-5.7,2.7-5.7,6
		C479.9,324.9,482.5,327.6,485.6,327.6z"/>
	<path fill="none" d="M539,296.8c3.1,0,5.7-2.7,5.7-6c0-3.3-2.5-6-5.7-6c-3.1,0-5.7,2.7-5.7,6C533.3,294.1,535.9,296.8,539,296.8z"
		/>
	<path fill="#F6516A" d="M367.4,448.5l-15.9-14.2c-40.3,34.8-71.7,72.1-89.1,108.7c-53.2,112.2,44.6,175.6,218.5,141.7
		c142.3-27.8,291.4-112.3,370-203.5c-77.1,77.3-206.3,146.2-330,170.1c-163.5,31.6-255.5-27.3-205.5-131.5
		C326.8,495.9,344.8,471.9,367.4,448.5z"/>
	<path fill="#6CAB36" d="M170.2,565.5C103.6,706.1,226.1,785.6,443.9,743c178-34.8,364.4-140.2,463.1-254.3
		c-96.8,96.5-258.2,182.5-412.9,212.4c-204.8,39.6-320.1-34.2-257.5-164.8c19.2-40,52.9-80.6,96.2-118.9L315.5,402
		C248.8,453.1,196.6,509.9,170.2,565.5z"/>
	<path fill="#00B7E4" d="M455.4,763c-242.4,46.8-378.8-40.5-304.7-195c28.4-59.3,83.9-119.9,155-174.7L288,377.4
		c-100,68-178.9,147.6-215.7,225.1c-78.9,166.4,66.1,260.4,323.9,210C606.7,771.5,827.2,646.7,944,511.7
		C829.5,625.9,638.5,727.6,455.4,763z"/>
	<path fill="#006DB6" d="M547.1,341.9l-6.1,4.7l2,13.5l1.6,10.8l3,19.7l2.4,16.1l5.5,36.3l3.4,22.6l6.4,42.5l41.2-25.9l9.7-50.9
		l4.5-23.4l7.2-37.5l2.3-11.8l1.3-6.8l0.2-0.8l2.2-11.7l3.5-18.2l7.1-37.1l17.2-10.3c152.5-103.2,53.4-90,53.4-90
		c-0.4-0.3-0.8-0.5-1.3-0.8c-5.2,7.2-17.4,12.8-17.4,12.8l-7-2.9c10.3-5.6,10.7-12.7,10.3-16.1c-37.5-10.3-80,20.1-80,20.1
		L381.6,344.2l-72.6-35.4l-43.9,26.3l119.4,103.4L547.1,341.9z M667.9,204c3.1,0,5.7,2.7,5.7,6c0,3.3-2.5,6-5.7,6
		c-3.1,0-5.7-2.7-5.7-6C662.2,206.7,664.8,204,667.9,204z M639.2,220.7c3.1,0,5.7,2.7,5.7,6c0,3.3-2.5,6-5.7,6c-3.1,0-5.7-2.7-5.7-6
		C633.5,223.4,636.1,220.7,639.2,220.7z M614.5,234.7c3.1,0,5.7,2.7,5.7,6c0,3.3-2.5,6-5.7,6c-3.1,0-5.7-2.7-5.7-6
		C608.8,237.4,611.4,234.7,614.5,234.7z M589.8,248.8c3.1,0,5.7,2.7,5.7,6c0,3.3-2.6,6-5.7,6c-3.1,0-5.7-2.7-5.7-6
		C584.1,251.5,586.6,248.8,589.8,248.8z M539,284.8c3.1,0,5.7,2.7,5.7,6c0,3.3-2.5,6-5.7,6c-3.1,0-5.7-2.7-5.7-6
		C533.3,287.5,535.9,284.8,539,284.8z M510.3,301.5c3.1,0,5.7,2.7,5.7,6s-2.5,6-5.7,6c-3.1,0-5.7-2.7-5.7-6S507.2,301.5,510.3,301.5
		z M485.6,315.5c3.1,0,5.7,2.7,5.7,6c0,3.3-2.5,6-5.7,6c-3.1,0-5.7-2.7-5.7-6C479.9,318.2,482.5,315.5,485.6,315.5z M460.9,329.6
		c3.1,0,5.7,2.7,5.7,6c0,3.3-2.6,6-5.7,6c-3.1,0-5.7-2.7-5.7-6C455.2,332.3,457.8,329.6,460.9,329.6z"/>
	<polygon fill="#006DB6" points="586.1,204.4 421.9,194 386.5,225.8 493.4,257 	"/>
	<path fill="#00A8DE" d="M660.1,333.3c128.1-24.7,206.5,18.3,171.3,105.3c-7.7,19.1-19.8,43.1-37.5,61.4l-1.1,3.2
		c31.6-27.3,56.2-56.5,69.8-85.2c41.7-87.9-34.9-137.6-171.2-111c-17.9,3.5-36,8.3-54,13.9l-3.5,18.2
		C642.7,337.1,651.4,335,660.1,333.3z"/>
	<path fill="#00A8DE" d="M646.4,354.5c-5.5,1.3-10.9,2.6-16.1,4.1l-2.3,11.8c11.8-4.7,22.6-8.8,32.1-12.2c12,3.7,25.6,9.4,37.8,17.8
		c-13.3,4.4-27.8,9.8-43.7,16.6c-6.9-3.9-14.9-7.3-24.5-9.8c0,0,7,4.5,15.4,13.7c-7.8,3.5-16,7.3-24.4,11.4l-4.5,23.4
		c13.7-7.4,27.1-14.1,40.1-20c8.9,14.1,16.6,33.7,16.9,59.1C573,520.6,501.5,589.9,501.5,589.9c52.7-35.1,114.7-68.8,170.3-96.7
		c-2.7,17.6-8.8,37.5-19.9,59.7c0,0,19.4-29.6,29.4-64.5c17.1-8.5,33.5-16.4,48.8-23.6c-5.1,21.6-16.8,47.3-38,77.8
		c0,0,43.8-37.7,55.2-85.9c13.1-6.1,24.9-11.4,35.2-16c-1.6,5.1-3.6,10.4-6.2,16.1c0,0,4.5-7,9-17.4c24.7-11,39.8-17.3,39.8-17.3
		c-11.9,1.4-23.8,3.5-35.5,6.1c6.2-18.5,9.4-42.3-5.4-59.9c18.8-4,29.8-5.2,29.8-5.2s-12-5.3-39.6-3.5
		c-12.1-8.4-30.5-14.2-58.1-15.4c0,0,22.1,3.7,41.5,17.1c-11.6,1.6-25.2,4.4-41,8.8c-13.3-9.1-28.7-14.1-43-16.7
		c17.1-5.7,27.5-8.5,27.5-8.5c-14.4,1.7-28,3.9-41.1,6.6c-12.6-1.3-23.1-1-28.7-0.6l-0.2,0.8C634.9,352.2,640.1,353.1,646.4,354.5z
		 M770.1,371.6c12.2,12.8,20.3,31.3,15.3,57.7c-12,2.8-23.9,6-35.5,9.8c0.5-9.9-0.6-20-3.9-30.2c-3.4-10.5-8.6-19.2-14.8-26.3
		C745.7,377.9,758.8,374.3,770.1,371.6z M732.9,444.8c-16.1,5.8-31.6,12.4-46.7,19.5c2.5-21.5-0.8-42.9-15.8-59.1
		c14.9-6.4,29.1-11.9,42.4-16.5C725.6,402.1,734.1,420.2,732.9,444.8z"/>
	<path fill="#00A8DE" d="M401.5,466.6c36.3-36.3,87.3-70.2,143.2-95.7l-1.6-10.8C485.9,389.7,435.3,427.3,401.5,466.6z"/>
	<path fill="#00A8DE" d="M382.6,603.3c0,0,75.3-72.1,176.4-137.6l-3.4-22.6C410.7,528.9,382.6,603.3,382.6,603.3z"/>
	<path fill="#00A8DE" d="M429,494.6c35.7-36.2,79.3-65.3,121.1-87.8l-2.4-16.1C461.9,435.5,429,494.6,429,494.6z"/>
</g>
</svg>
