<?xml version="1.0" encoding="utf-8"?>
<!-- Generator: Adobe Illustrator 18.1.0, SVG Export Plug-In . SVG Version: 6.00 Build 0)  -->
<svg version="1.1" id="Layer_1" xmlns="http://www.w3.org/2000/svg" xmlns:xlink="http://www.w3.org/1999/xlink" x="0px" y="0px"
	 viewBox="0 0 2000 2000" enable-background="new 0 0 2000 2000" xml:space="preserve">
<g>
	<g>
		<polygon fill="#93A96C" points="657.4,273.8 1002,448.4 1346.6,273.8 1002,618.4 		"/>
		<path fill="#93A96C" d="M1041.7,361.2c0,22-17.8,39.7-39.7,39.7c-21.9,0-39.7-17.8-39.7-39.7c0-21.9,17.8-39.7,39.7-39.7
			C1023.9,321.5,1041.7,339.3,1041.7,361.2z"/>
	</g>
	<g>
		<polygon fill="#E77D7F" points="267.8,665.5 644,577.7 795.8,222.5 753.3,708 		"/>
		<path fill="#E77D7F" d="M618.4,485.4c14.1,16.8,11.9,41.9-4.9,56c-16.8,14.1-41.9,11.9-56-4.9c-14.1-16.8-11.9-41.9,4.9-56
			C579.2,466.4,604.3,468.6,618.4,485.4z"/>
	</g>
	<g>
		<polygon fill="#11B8E4" points="221.1,1216 452.9,906.9 340.8,537.2 620.4,936.4 		"/>
		<path fill="#11B8E4" d="M373.9,852.6c21.6,3.8,36.1,24.4,32.2,46c-3.8,21.6-24.4,36.1-46,32.2c-21.6-3.8-36.1-24.4-32.2-46
			C331.7,863.3,352.3,848.8,373.9,852.6z"/>
	</g>
	<g>
		<polygon fill="#FFB669" points="539.2,1667.6 518,1281.9 194.6,1070.8 665.4,1196.9 		"/>
		<path fill="#FFB669" d="M422.7,1291.1c19-11,43.3-4.5,54.3,14.5c11,19,4.5,43.3-14.5,54.3c-19,11-43.3,4.5-54.3-14.5
			C397.2,1326.4,403.8,1302.1,422.7,1291.1z"/>
	</g>
	<g>
		<polygon fill="#6D9083" points="1073.2,1809.2 809.1,1527.3 425.6,1573.4 867.3,1367.5 		"/>
		<path fill="#6D9083" d="M741.9,1595.6c7.5-20.6,30.3-31.3,50.9-23.7c20.6,7.5,31.2,30.3,23.8,50.9c-7.5,20.6-30.3,31.3-50.9,23.7
			C745.1,1639,734.4,1616.2,741.9,1595.6z"/>
	</g>
	<g>
		<polygon fill="#E38871" points="1573.3,1574.4 1189.7,1528.2 925.6,1810.1 1131.6,1368.4 		"/>
		<path fill="#E38871" d="M1182.2,1623.7c-7.5-20.6,3.1-43.4,23.7-50.9c20.6-7.5,43.4,3.1,50.9,23.7c7.5,20.6-3.1,43.4-23.7,50.9
			C1212.5,1654.9,1189.7,1644.3,1182.2,1623.7z"/>
	</g>
	<g>
		<polygon fill="#479ED1" points="1805.4,1073.1 1481.9,1284.2 1460.8,1669.9 1334.6,1199.2 		"/>
		<path fill="#479ED1" d="M1537.5,1362.2c-19-11-25.5-35.3-14.5-54.3c10.9-19,35.3-25.5,54.3-14.5c19,11,25.5,35.3,14.5,54.3
			C1580.8,1366.7,1556.5,1373.2,1537.5,1362.2z"/>
	</g>
	<g>
		<polygon fill="#CD8A6E" points="1661,539.8 1548.9,909.5 1780.6,1218.6 1381.4,939 		"/>
		<path fill="#CD8A6E" d="M1641.6,933.5c-21.6,3.8-42.2-10.6-46-32.2c-3.8-21.6,10.6-42.2,32.2-46c21.6-3.8,42.2,10.6,46,32.2
			C1677.7,909.1,1663.2,929.7,1641.6,933.5z"/>
	</g>
	<g>
		<polygon fill="#547CA2" points="1207.6,224.2 1359.4,579.4 1735.5,667.2 1250,709.7 		"/>
		<path fill="#547CA2" d="M1445.8,538.2c-14.1,16.8-39.1,19-56,4.9c-16.8-14.1-19-39.1-4.9-56c14.1-16.8,39.1-19,56-4.9
			C1457.7,496.3,1459.9,521.4,1445.8,538.2z"/>
	</g>
</g>
</svg>
