<?xml version="1.0" encoding="utf-8"?>
<!-- Generator: Adobe Illustrator 14.0.0, SVG Export Plug-In . SVG Version: 6.00 Build 43363)  -->
<!DOCTYPE svg PUBLIC "-//W3C//DTD SVG 1.1//EN" "http://www.w3.org/Graphics/SVG/1.1/DTD/svg11.dtd">
<svg version="1.1" id="Layer_1" xmlns="http://www.w3.org/2000/svg" xmlns:xlink="http://www.w3.org/1999/xlink" x="0px" y="0px"
	 width="150px" height="150px" viewBox="0 0 150 150" enable-background="new 0 0 150 150" xml:space="preserve">
<g>
	<polygon fill="none" points="13.436,53.998 8.597,56.807 14.215,66.603 8.605,56.807 	"/>
	<polygon fill="none" points="8.605,92.16 14.215,82.465 8.597,92.168 18.276,97.703 18.276,97.695 	"/>
	<polygon fill="none" points="26.008,37.561 15.425,40.357 15.425,40.407 26.008,37.639 	"/>
	<path fill="none" d="M88.932,55.692l8.941,4.525l-5.494-8.378C91.037,52.954,89.885,54.242,88.932,55.692z"/>
	<path fill="none" d="M96.904,80.078c1.599,0.613,3.298,1.01,5.08,1.076l-0.556-10.01L96.904,80.078z"/>
	<path fill="none" d="M95.254,49.966l5.486,8.374l-0.555-10.002C98.438,48.615,96.796,49.175,95.254,49.966z"/>
	<polygon fill="none" points="26.215,37.498 26.008,37.561 26.215,37.502 	"/>
	<polygon fill="none" points="74.346,6.384 82.244,14.282 82.451,14.149 92.039,8.651 97.566,18.33 108.465,15.471 111.323,26.36 
		122.577,26.36 122.577,37.639 133.392,40.49 130.541,51.284 140.312,56.927 134.685,66.718 142.615,74.558 134.685,82.498 
		140.312,92.293 140.527,92.168 134.908,82.381 142.848,74.442 134.908,66.603 140.527,56.807 130.748,51.188 133.607,40.357 
		122.81,37.498 122.81,26.249 111.539,26.249 108.688,15.334 97.773,18.21 92.23,8.51 92.039,8.647 82.451,14.145 74.512,6.194 
		74.338,6.38 66.656,14.145 66.623,14.128 66.656,14.149 	"/>
	<polygon fill="none" points="40.452,133.629 44.281,132.576 40.452,133.629 	"/>
	<polygon fill="none" points="37.303,26.249 26.215,26.249 26.215,26.36 37.278,26.36 	"/>
	<path fill="none" d="M105.423,80.965c1.765-0.291,3.414-0.838,4.905-1.633l-5.461-8.371L105.423,80.965z"/>
	<polygon fill="none" points="66.449,14.282 66.598,14.116 66.589,14.112 56.877,8.51 56.761,8.705 51.258,18.289 56.761,8.709 	"/>
	<polygon fill="none" points="51.126,18.272 40.344,15.334 40.311,15.504 51.026,18.425 	"/>
	<path fill="none" d="M113.205,77.475c1.358-1.094,2.51-2.419,3.472-3.877l-8.934-4.525L113.205,77.475z"/>
	<polygon fill="none" points="97.773,130.895 97.658,130.877 92.131,140.375 92.139,140.383 92.23,140.457 97.773,130.895 
		97.873,130.762 108.506,133.578 97.865,130.752 	"/>
	<polygon fill="none" points="82.244,134.938 74.562,142.719 72.125,140.291 74.553,142.719 74.611,142.777 82.302,134.979 
		82.451,134.822 82.293,134.971 	"/>
	<polygon fill="none" points="111.323,122.93 108.506,133.578 108.688,133.629 111.506,122.938 111.539,122.822 111.497,122.93 	"/>
	<polygon fill="none" points="122.577,122.822 122.585,122.822 122.81,122.822 122.81,111.535 122.81,111.527 122.577,111.584 	"/>
	<polygon fill="none" points="130.541,97.928 133.467,108.668 122.81,111.469 122.81,111.469 133.475,108.668 133.682,108.594 
		130.748,97.812 	"/>
	<path fill="none" d="M77.661,97.82v-7.094c-0.066-3.166,3.812-7.002,8.229-10.367c4.5,4.873,11.055,7.773,18.189,7.375
		c12.688-0.695,22.508-11.619,21.804-24.335c-0.688-12.729-11.603-22.503-24.331-21.815C90.391,42.193,81.49,50.67,79.939,61.315
		H26.331l-0.149,1.38c-0.066,0.551-0.431,5.548,7.807,10.404c4.765,2.859,19.333,11.52,19.209,17.676v7.045
		c0,5.727,4.044,10.566,9.414,11.893v27.43l-5.735,3.314l-3.746-6.529l3.746,6.529l5.735-3.299l4.044-2.336l1.815,1.807V109.68
		C73.725,108.27,77.661,103.496,77.661,97.82z M101.719,45.019c10.848-0.622,20.138,7.719,20.726,18.559
		c0.613,10.848-7.748,20.129-18.579,20.727c-5.909,0.314-11.346-2.039-15.182-6c3.24-2.254,6.405-4.127,8.188-5.18
		c8.245-4.89,7.881-9.878,7.822-10.429l-0.199-1.384H83.429C84.962,52.477,92.396,45.512,101.719,45.019z"/>
	<path fill="none" d="M115.624,54.242c-1.11-1.351-2.403-2.519-3.854-3.456l-4.532,8.938L115.624,54.242z"/>
	<path fill="none" d="M119.13,62.041c-0.29-1.765-0.846-3.394-1.633-4.931l-8.37,5.481L119.13,62.041z"/>
	<path fill="none" d="M118.227,70.564c0.613-1.616,0.994-3.298,1.069-5.088l-10.003,0.555L118.227,70.564z"/>
	<path fill="none" d="M103.616,48.139l0.563,10.032l4.517-8.934C107.113,48.615,105.398,48.234,103.616,48.139z"/>
	<path fill="#FCBA5E" d="M104.693,62.695c0.059,0.551,0.423,5.54-7.822,10.429c-1.782,1.053-4.947,2.926-8.188,5.18
		c3.836,3.961,9.272,6.314,15.182,6c10.831-0.598,19.192-9.879,18.579-20.727c-0.588-10.839-9.878-19.181-20.726-18.559
		c-9.323,0.493-16.757,7.458-18.29,16.292h21.065L104.693,62.695z M96.904,80.078l4.524-8.934l0.556,10.01
		C100.202,81.088,98.503,80.691,96.904,80.078z M88.932,55.692c0.953-1.45,2.105-2.739,3.447-3.854l5.494,8.378L88.932,55.692z
		 M95.254,49.966c1.542-0.792,3.184-1.351,4.932-1.628l0.555,10.002L95.254,49.966z M105.423,80.965l-0.556-10.003l5.461,8.371
		C108.837,80.127,107.188,80.674,105.423,80.965z M113.205,77.475l-5.462-8.403l8.934,4.525
		C115.715,75.055,114.563,76.381,113.205,77.475z M118.227,70.564l-8.934-4.533l10.003-0.555
		C119.221,67.266,118.84,68.948,118.227,70.564z M117.497,57.11c0.787,1.537,1.343,3.166,1.633,4.931l-10.003,0.551L117.497,57.11z
		 M115.624,54.242l-8.386,5.482l4.532-8.938C113.221,51.723,114.514,52.892,115.624,54.242z M103.616,48.139
		c1.782,0.095,3.497,0.477,5.08,1.098l-4.517,8.934L103.616,48.139z"/>
	<path fill="#00445E" d="M133.467,108.668l-2.926-10.74l0.207-0.115v-0.018l9.563-5.502l-5.627-9.795l7.931-7.94l-7.931-7.84
		l5.627-9.791l-9.771-5.644l2.851-10.794l-10.814-2.851V26.36h-11.254l-2.858-10.889L97.566,18.33l-5.527-9.679l-9.588,5.499
		l-0.207,0.132l-7.898-7.897l-7.69,7.765l-0.033-0.021l-0.025-0.012l-0.149,0.166l-9.688-5.573l-5.503,9.58l-0.132-0.017l-0.1,0.153
		l-10.715-2.921v0.008l-2.834,10.736h-0.174l0,0l-0.024,0.112H26.215v0.004v11.133v0.004l-0.207,0.058v0.079l-10.583,2.768v0.004
		l2.859,10.777l-4.848,2.809l-4.831,2.81l5.61,9.795l-7.939,7.922l7.939,7.94l-5.61,9.695l9.671,5.535v0.008l0.008,0.01
		l-2.958,10.971l10.889,2.885l0,0v11.254h11.37l2.867,10.807l3.829-1.053l6.978-1.914l1.873,3.266l3.746,6.529l5.735-3.314v-27.43
		c-5.37-1.326-9.414-6.166-9.414-11.893v-7.045c0.124-6.156-14.444-14.817-19.209-17.676c-8.237-4.856-7.873-9.854-7.807-10.404
		l0.149-1.38h53.608c1.551-10.645,10.451-19.123,21.613-19.731c12.729-0.688,23.644,9.086,24.331,21.815
		c0.704,12.716-9.116,23.64-21.804,24.335c-7.135,0.398-13.689-2.502-18.189-7.375c-4.418,3.365-8.296,7.201-8.229,10.367v7.094
		c0,5.676-3.937,10.449-9.19,11.859v26.949l0.008,0.016l3.646,3.646l2.436,2.428l7.683-7.781l0.049,0.033l0.158-0.148l9.68,5.553
		l5.527-9.498l0.115,0.018l0.092-0.143l10.641,2.826l2.817-10.648h0.174l0.042-0.107h11.038v-11.238l0.232-0.057v-0.059l0,0
		L133.467,108.668z"/>
	<path fill="#FCBA5E" d="M138.662,82.879l8.437-8.454l-8.437-8.32l5.983-10.43l-10.384-5.966l3.025-11.482l-11.47-3.045V23.22
		h-11.983l-3.024-11.585l-11.577,3.054L93.34,4.371l-10.392,5.983l-8.436-8.42l-8.337,8.42L55.767,4.371l-5.983,10.413
		l-11.585-3.149L35.173,23.22H23.19v11.962l-11.486,3.045l3.05,11.482L4.461,55.676l5.975,10.43L2,74.525l8.436,8.454L4.461,93.279
		l10.292,5.875l-3.149,11.686l11.585,3.023v11.984h12.074l3.033,11.461l11.486-3.117l5.983,10.393l6.845-3.928l3.563-2.055
		l2.304,2.303l6.132,6.148l8.337-8.451l10.392,5.982l5.984-10.301l11.485,3.025l3.024-11.461h11.983v-12.059l11.585-3.066
		l-3.141-11.461l10.384-5.982L138.662,82.879z M133.475,108.668l-10.665,2.801v0.059v0.008v11.287h-0.225h-0.008h-11.038
		l-0.033,0.115l-2.818,10.691l-0.182-0.051l-10.633-2.816l-0.1,0.133l-5.543,9.562l-0.092-0.074l-0.008-0.008l-9.68-5.553
		l-0.149,0.156l-7.69,7.799l-0.058-0.059l-2.428-2.428l-3.646-3.646l-0.008-0.016l-1.815-1.807l-4.044,2.336l-5.735,3.299
		l-3.746-6.529l-1.873-3.266l-6.978,1.914l-3.829,1.053l0,0l-2.867-10.807h-11.37v-11.254l0,0l-10.889-2.885l2.958-10.971
		l-0.008-0.01l-9.679-5.535l5.619-9.703l-7.939-7.94l7.939-7.922l-5.619-9.795l4.839-2.81l4.848-2.809l-2.859-10.777v-0.004v-0.049
		l10.583-2.797l0.207-0.062V26.365V26.36v-0.112h11.088l0,0h0.174l2.834-10.736v-0.008l0.033-0.17l10.782,2.938l0.132,0.017
		l5.503-9.584l0.116-0.194l9.712,5.602l0.008,0.004l0.025,0.012l0.033,0.017l7.682-7.765l0.174-0.187l7.939,7.951l9.588-5.498
		L92.23,8.51l5.543,9.7l10.914-2.875l2.852,10.914h11.271v11.25l10.798,2.859l-2.859,10.831l9.779,5.619l-5.619,9.795l7.939,7.839
		l-7.939,7.939l5.619,9.787l-0.216,0.125l-9.563,5.502v0.018l2.934,10.781L133.475,108.668z"/>
</g>
</svg>
