<?xml version="1.0" encoding="utf-8"?>
<!-- Generator: Adobe Illustrator 18.1.0, SVG Export Plug-In . SVG Version: 6.00 Build 0)  -->
<svg version="1.0" id="Layer_1" xmlns="http://www.w3.org/2000/svg" xmlns:xlink="http://www.w3.org/1999/xlink" x="0px" y="0px"
	 viewBox="0 0 150 150" enable-background="new 0 0 150 150" xml:space="preserve">
<g>
	<path fill="#00A550" d="M128.9,74.9l0,0.3C128.8,75.2,128.9,75,128.9,74.9L128.9,74.9z"/>
	<path fill="#577781" d="M43.2,88c0.3-0.5,0.8-0.9,1.6-1l0.3,0l0.3,0.1c1.1,0.4,2.7,0.8,4,0.8c0.3,0,0.6-0.1,0.7-0.1
		c0,0,0.1,0.1,0.1,0.1c-0.4-0.2-1.3-0.6-1.9-0.7c-1-0.4-2-0.7-2.9-1.3c-1.2-0.8-2-1.6-2.6-2.5c-0.1,0.1-0.2,0.2-0.3,0.3l-0.6,0.6
		l-0.8-0.2c-1.5-0.3-3.1-0.5-5.1-0.5c-1.1,0-2.2,0.1-3.2,0.1c0.7,1.6,1.7,3.4,2.9,5.2c1.3-1.1,2.9-1.7,4.4-1.7
		C41.3,87.2,42.3,87.4,43.2,88z"/>
	<path fill="#00ABC8" d="M77.4,17.8h-2.6h-2.3c-14.3,0.4-28.5,3.1-41.9,8v23.9c2.7,0,4.9-0.1,6.9-0.4c4.6-0.5,8.3-2.8,11.8-5.1
		c1.1-0.7,2.2-1.5,3.3-2.1l0.2-0.1h0.3c2.8-0.3,5.5-0.4,8.1-0.4c17.7,0,29.4,5.6,33.6,16.3c3.3,1,7.6,2.9,9.6,7.4l0.5,1.9
		c2.9,1.9,6.3,2.8,10.6,2.8h1l3.5,0.1V25.9C106.3,20.8,92,18,77.4,17.8z"/>
	<path fill="#577781" d="M116.2,74.1c-0.2,0.1-0.5,0.2-0.6,0.3l-0.6,0.6l-0.3,0.1c-1.5,0.4-3.1,0.6-4.6,0.6c-3.2,0-5.9-0.8-8.3-1.9
		c-0.6,0.7-1.3,1-1.9,1.2C99.8,75,99.7,75,99.6,75c0,0.2-0.1,0.4-0.1,0.6c-0.2,0.6-0.3,1-0.2,1.6l0.2,1.1l-1,0.5
		c-3.9,1.9-8.4,4-10.2,8.3l-0.6,1.2l-1.3-0.5c-0.4-0.1-0.7-0.2-1.1-0.2c-0.6,0-1.2,0.1-1.9,0.4c-0.7,0.2-1.4,0.4-2.1,0.4
		c-0.3,0-0.6,0-0.9,0c-1.4-0.4-2.1-1.6-2.7-2.5c-0.6-1-0.9-1.3-1.4-1.3l-2.4-0.1l1-2c0.4-0.7,1.1-3,1-4l0,0c-0.5,0-1.1,0.9-1.6,1.6
		c-0.3,0.4-0.5,0.8-0.8,1.1c-0.8,0.9-1.7,1.9-2.5,2.7c-0.7,0.7-1.2,1.2-1.8,1.8L68.8,86l-0.5,0.1c-0.6,0.1-1.1,0.3-1.5,0.6v0.6
		c0,1.4,0.7,2.6,1.5,3.8c1,1.6,2.1,3.3,1.7,5.4c0.2,0.3,0.4,0.6,0.6,0.8c0.7,1,1.7,2.3,1.8,4.3l0.1,0.7l-0.6,0.5
		c-1.1,0.9-2.5,1.4-4.2,1.4c-2.8,0-5.5-1.2-6.5-1.7l-0.7-0.3l-0.1-0.8c-0.2-2.3,0.8-3.5,1.5-4.4c0.1-0.2,0.3-0.3,0.4-0.5
		c-0.4-0.3-0.7-0.7-0.9-1.3l-0.1-0.5l0.3-0.6c0.2-0.5,0.3-1,0.2-1.6c-1.3,1.6-3.3,2.7-5.3,2.7c-1.2,0-2.2-0.4-2.7-0.8
		c-1,0-1.7,0.6-2.6,1.7c-0.9,1-1.9,2-3.5,2.3L47,98.5h-0.1c-0.9,0-1.7-0.4-2.3-0.7c-0.5-0.2-0.9-0.5-1.3-0.5c-0.1,0-0.5,0.1-0.7,0.2
		c-0.1,0-0.3,0.1-0.5,0.2c3.3,4.1,7.3,8.5,11.7,13.1c9.6,9.3,16.8,16.4,21.6,20.8c4.9-4.6,12.1-11.6,21.5-20.8
		c21.7-21.8,23.3-32.8,23.3-35.8l0-0.7l0-0.7h-0.1v-2l-2.6,1.9C117.1,73.8,116.7,74,116.2,74.1z"/>
	<path fill="#292F34" d="M65.3,87.4c-1.3,0.2-1.4,1.6-2.9,1.6c0.2,1.9,1.3,4,0.2,5.8c0.2,0.7,0.8,0.8,1.3,1.2
		c-0.6,1.9-2.5,2.5-2.2,5.3c2.4,1.2,6.8,2.4,9.2,0.4c-0.1-2.3-1.6-3.3-2.5-4.9C69.5,93.3,65.5,91.2,65.3,87.4z"/>
	<path fill="#292F34" d="M43.4,95.9c1.4,0,2.5,1.3,3.8,1.1c2.6-0.5,3.4-4.6,6.9-4c2.6,2.2,7.3-0.9,7.4-4.1c0.1-2.1-2.1-3.8-2.2-6.1
		c-0.1-1.6,0.2-3.8,1.1-5.1c1.6-2.3,5.3-2.4,5.4-5.2c0.1-2.6-3.9-5.2-2-7.2c0.7,3,3.1,4.1,3.8,7c-0.5,3.7-6.2,4.3-6.9,8.7
		c-0.4,2.2,0.3,4.8,2.2,6.7c1.8-1,2.8-2.8,5.1-3.2c1.3-1.4,2.9-2.8,4.3-4.5c1.1-1.3,2.2-4.2,4.7-2.9c0.8,1.4-0.7,5.5-0.9,5.8
		c2.7-0.1,2.6,3.4,4.5,3.9c1.8,0.4,3.5-1.4,6.3-0.5c2.1-4.6,6.5-6.8,11-9c-0.2-1.5,0.3-2.2,0.5-3.4c0.6-0.6,1.9-0.6,2.5-1.3
		c-1.8-0.9-3.3-1.9-4.3-3.6c4.8,2.6,9.9,6.5,17.9,4.5c0.4-0.7,3.6-1.7,4.3-2.2c0-0.3-2,0.3-2-0.1c-7.4,0.3-12.2-2.1-15.7-5.8
		c0.5-0.6,2.1,1.3,2.3,0.3c-1.7-3.7-5.2-5.6-9.4-6.7c-4.9-13.5-21.9-17.3-40.5-15.7c-4.4,2.6-9,6.7-15.6,7.4
		c-2.7,0.2-4.1,0.3-7.1,0.4v22.4l-0.2-1.4l0.1,2.2c0,0.2,0,0.4,0,0.7c0,1.4,0.3,3.8,1.8,7.2c3.5-0.2,5.6-0.6,9.4,0.3
		c0.7-0.7,0.5-2.2,1.6-2.5c0.5,1.7,1,3.1,3.2,4.5c1.8,1.2,5.2,1.4,5.3,2.9c0.3,2.8-4.9,1.5-6.7,0.9c-0.9,0-0.5,1.4-1.5,1.4
		c-3-2.3-4.6-0.9-6.5,1.4c0.9,1.5,2,2.9,3.2,4.5c0.6,0.2,1.3,0.7,1.9,0.8C43,96.6,42.5,95.8,43.4,95.9z"/>
	<path fill="#68727A" d="M129.1,75.2c0-0.5,0-0.9-0.1-1.3v-53l-3.1-1.3c-14.1-5.8-29.3-9-44.7-9.7l0-0.2h0c-2.1-0.1-4.4-0.1-6.6-0.1
		c-1.7,0-3.5,0.1-5.2,0.1l0,0v0.1c-15.2,0.7-30.5,3.9-44.6,9.7l-3.1,1.3v31.7v21.3c-0.1,0.4-0.1,0.9-0.1,1.4c0,1.4,0.1,3.1,0.6,4.8
		c0.3,1.6,0.8,3.4,1.6,5.2c1.1,2.7,2.5,5.6,4.5,8.9c3.9,6.3,9.8,13.8,18.6,22.7c16.2,15.9,22.8,22.4,26.3,24.5h-0.7
		c1,0.6,1.8,1,2.8,0.9c1,0.1,1.8-0.3,2.7-0.9h-0.6c3.5-2.1,10-8.6,26.2-24.5C124.4,96.2,129.1,82.9,129.1,75.2z M128.9,74.9
		L128.9,74.9c0,0.1,0,0.3,0,0.3L128.9,74.9z M75.4,133.6c-3.3-3.1-9.8-9.2-22.6-21.8c-6.1-6.1-10.6-11.5-14-16
		c-1.2-1.6-2.2-3.1-3.2-4.5c-2.3-3.5-3.8-6.5-4.7-8.9c-1.4-3.5-1.8-5.8-1.8-7.2c0-0.2,0-0.4,0.1-0.7L29,72.2l0.2,1.4V51.3V24.9
		c13.8-5.3,28.5-8.2,43.3-8.5c1.9,0,2.8,0,4.9-0.1c15.1,0.3,30.1,3.2,44.1,8.6v48.8l0.2-1.4l-0.2,2.2c0,0.2,0,0.4,0,0.6
		c0,3.8-2.2,15.2-23.8,36.8C85,124.5,78.6,130.5,75.4,133.6z"/>
</g>
</svg>
