<?xml version="1.0" encoding="utf-8"?>
<!-- Generator: Adobe Illustrator 18.1.0, SVG Export Plug-In . SVG Version: 6.00 Build 0)  -->
<svg version="1.1" id="Layer_1" xmlns="http://www.w3.org/2000/svg" xmlns:xlink="http://www.w3.org/1999/xlink" x="0px" y="0px"
	 viewBox="0 0 1500 1500" enable-background="new 0 0 1500 1500" xml:space="preserve">
<g>
	<path fill="none" d="M1287.6,539.2c3.4,3,6.8,6.1,10.1,9.2C1294.4,545.2,1291.1,542.1,1287.6,539.2z"/>
	<path fill="none" d="M1270.8,525.8c3.7,2.7,7.4,5.5,10.9,8.5C1278.2,531.3,1274.5,528.5,1270.8,525.8z"/>
	<path fill="none" d="M1211.6,492.5c0,0,0,0.1-0.1,0.1c12.5,5.1,24.6,11,36.2,17.9C1236.1,503.6,1224,497.5,1211.6,492.5z"/>
	<path fill="none" d="M1252.4,513.3c4.3,2.7,8.6,5.4,12.7,8.3C1260.9,518.7,1256.7,516,1252.4,513.3z"/>
	<path fill="none" d="M988.4,494.2c1.5-0.6,3-1.2,4.5-1.8C991.4,493,989.9,493.6,988.4,494.2z"/>
	<path fill="none" d="M1083.8,472.1c0.9-0.1,1.8-0.1,2.8-0.2C1085.6,472,1084.7,472,1083.8,472.1z"/>
	<path fill="none" d="M1035.7,479.1c1.2-0.3,2.4-0.5,3.5-0.8C1038.1,478.6,1036.9,478.9,1035.7,479.1z"/>
	<path fill="none" d="M1270.7,981.3C1270.7,981.3,1270.7,981.3,1270.7,981.3C1270.6,981.4,1270.6,981.4,1270.7,981.3
		C1270.6,981.4,1270.7,981.4,1270.7,981.3z"/>
	<path fill="none" d="M1357.7,633.1C1357.7,633.1,1357.7,633,1357.7,633.1C1357.7,633.1,1357.7,633.1,1357.7,633.1L1357.7,633.1z"/>
	<path fill="none" d="M943.1,517.4c1.6-1,3.2-2,4.8-2.9C946.3,515.4,944.7,516.4,943.1,517.4z"/>
	<path fill="none" d="M1241.2,1003c-1.3,0.9-2.7,1.7-4.1,2.5C1238.5,1004.6,1239.9,1003.9,1241.2,1003z"/>
	<path fill="none" d="M1303.2,553.7c3.4,3.5,6.7,7.1,10,10.8C1309.9,560.8,1306.6,557.2,1303.2,553.7z"/>
	<path fill="none" d="M1317.7,569.5c4.6,5.5,9.1,11.1,13.3,17.1C1326.7,580.7,1322.3,575,1317.7,569.5z"/>
	<path fill="none" d="M1345.5,609.2c0.1,0.1,0.1,0.2,0.2,0.3C1345.6,609.4,1345.5,609.3,1345.5,609.2z"/>
	<path fill="none" d="M861.6,590.1c0.9-1.1,1.8-2.3,2.8-3.4C863.5,587.8,862.5,588.9,861.6,590.1z"/>
	<path fill="none" d="M793,755.1C793,755,793,755,793,755.1C793,755,793,755,793,755.1z"/>
	<path fill="none" d="M802.8,716.3c0.1-0.4,0.2-0.7,0.2-1.1C803,715.6,802.9,715.9,802.8,716.3z"/>
	<path fill="none" d="M904.6,545.4c1.3-1.1,2.7-2.3,4-3.4C907.3,543.2,905.9,544.3,904.6,545.4z"/>
	<path fill="none" d="M717.6,428.4c7.3,6.6,15.7,13.6,24.1,20.5C735.2,441.3,727.3,434.2,717.6,428.4z"/>
	<path fill="none" d="M820.4,660c0.3-0.7,0.6-1.4,0.9-2.1C821,658.6,820.7,659.3,820.4,660z"/>
	<path fill="none" d="M813.5,677.8c0.2-0.4,0.3-0.9,0.5-1.3C813.8,676.9,813.6,677.4,813.5,677.8z"/>
	<path fill="none" d="M874.3,575c0.9-1,1.8-2.1,2.7-3.1C876.1,572.9,875.3,573.9,874.3,575z"/>
	<path fill="none" d="M890.2,558.4c0.9-0.9,1.8-1.7,2.7-2.5C892,556.8,891.1,557.6,890.2,558.4z"/>
	<path fill="none" d="M1227.1,1011.6c-1.6,0.9-3.3,1.8-4.9,2.7C1223.8,1013.4,1225.4,1012.6,1227.1,1011.6z"/>
	<path fill="none" d="M838.3,624.3c0.7-1.1,1.3-2.2,2-3.3C839.6,622.1,839,623.2,838.3,624.3z"/>
	<path fill="none" d="M829.4,640.4c0-0.1,0.1-0.1,0.1-0.2C829.5,640.3,829.5,640.3,829.4,640.4z"/>
	<path fill="none" d="M850,605.8c0.2-0.2,0.3-0.4,0.4-0.7C850.3,605.4,850.1,605.6,850,605.8z"/>
	<path fill="none" d="M1152.1,1042.4c-1.7,0.5-3.4,0.9-5.2,1.3C1148.6,1043.3,1150.4,1042.8,1152.1,1042.4z"/>
	<path fill="none" d="M1378.6,793.8c0,0.2-0.1,0.3-0.1,0.5C1378.6,794.1,1378.6,794,1378.6,793.8z"/>
	<path fill="none" d="M1054.8,1052.3c3.6,0,7.2-0.2,10.9-0.3c-3.7-0.1-7.4-0.3-11.1-0.6C1053.8,1052.9,1053.8,1053.3,1054.8,1052.3z
		"/>
	<path fill="none" d="M1359.8,860.7c-0.1,0.2-0.1,0.3-0.2,0.5C1359.7,861.1,1359.8,860.9,1359.8,860.7z"/>
	<path fill="none" d="M1212.5,1019.5c-1.7,0.9-3.5,1.7-5.2,2.5C1209.1,1021.1,1210.8,1020.3,1212.5,1019.5z"/>
	<path fill="none" d="M1325.4,922.9C1325.4,922.9,1325.4,922.9,1325.4,922.9C1325.4,922.9,1325.4,922.8,1325.4,922.9
		C1325.4,922.9,1325.4,922.9,1325.4,922.9z"/>
	<path fill="none" d="M1197.7,1026.4c-1.8,0.8-3.5,1.5-5.3,2.2C1194.2,1027.9,1196,1027.2,1197.7,1026.4z"/>
	<path fill="none" d="M1133.5,1046.7c1-0.2,2.1-0.5,3.1-0.7c-1.3,0.3-2.5,0.5-3.8,0.8C1133,1046.7,1133.3,1046.7,1133.5,1046.7z"/>
	<path fill="none" d="M1182.7,1032.6c-1.8,0.7-3.5,1.3-5.3,1.9C1179.2,1033.9,1181,1033.2,1182.7,1032.6z"/>
	<path fill="none" d="M1352.7,876.7c-0.1,0.2-0.2,0.3-0.2,0.5C1352.6,877,1352.7,876.9,1352.7,876.7z"/>
	<path fill="none" d="M1167.5,1037.9c-1.7,0.6-3.5,1.1-5.2,1.6C1164,1039,1165.7,1038.4,1167.5,1037.9z"/>
	<linearGradient id="SVGID_1_" gradientUnits="userSpaceOnUse" x1="112.8117" y1="315.9664" x2="1229.2295" y2="315.9664">
		<stop  offset="3.370800e-02" style="stop-color:#FFAF3A"/>
		<stop  offset="1" style="stop-color:#C46158"/>
	</linearGradient>
	<path fill="url(#SVGID_1_)" d="M525.6,398c0,0,108.3-44.9,187.3-27.3C772.8,296.3,948.3,234,948.3,234c-42.9,0-88.5,6.9-133.2,17.3
		c32.6-5.3,65.8-9,99.4-10.9C910.5,244.5,706,260.6,525.6,398z"/>
	<linearGradient id="SVGID_2_" gradientUnits="userSpaceOnUse" x1="112.8117" y1="910.0627" x2="1229.2295" y2="910.0627">
		<stop  offset="3.370800e-02" style="stop-color:#FFAF3A"/>
		<stop  offset="1" style="stop-color:#C46158"/>
	</linearGradient>
	<path fill="url(#SVGID_2_)" d="M413.5,810.9c5.2,69.5-11,142.4-29.2,198.3C414,931,419.6,864.8,413.5,810.9z"/>
	<linearGradient id="SVGID_3_" gradientUnits="userSpaceOnUse" x1="112.8119" y1="1104.2783" x2="1229.2297" y2="1104.2783">
		<stop  offset="3.370800e-02" style="stop-color:#FFAF3A"/>
		<stop  offset="1" style="stop-color:#C46158"/>
	</linearGradient>
	<path fill="url(#SVGID_3_)" d="M345.2,1103.1c-0.7,0.8-1.3,1.6-2,2.4C343.6,1105.5,344.3,1104.6,345.2,1103.1z"/>
	<linearGradient id="SVGID_4_" gradientUnits="userSpaceOnUse" x1="112.8117" y1="794.9418" x2="1229.2295" y2="794.9418">
		<stop  offset="3.370800e-02" style="stop-color:#FFAF3A"/>
		<stop  offset="1" style="stop-color:#C46158"/>
	</linearGradient>
	<path fill="url(#SVGID_4_)" d="M385.3,486.8c4,0-52.1,28.3-124.3,72.7c3.6,0-114.9,23.3-136.8,27.6
		c134.8,2.3,211.3,45.1,251.5,105.3c-21-37.2-42.5-56.2-42.5-56.2l76.2-64.6c148,171.8,4.3,426.7-56.2,516.6
		c-3.4,7.1-6.2,12.1-7.9,14.9c129-163.1,257.3-156,257.3-156s0.4-0.6,1.1-1.5C614,888.3,652.8,592.4,385.3,486.8z"/>
	<linearGradient id="SVGID_5_" gradientUnits="userSpaceOnUse" x1="112.8117" y1="551.7404" x2="1229.2295" y2="551.7404">
		<stop  offset="3.370800e-02" style="stop-color:#FFAF3A"/>
		<stop  offset="1" style="stop-color:#C46158"/>
	</linearGradient>
	<path fill="url(#SVGID_5_)" d="M786.5,573.7c12.2-15.5,24.8-30.1,37.8-43.9C812.5,540.5,799.3,554.8,786.5,573.7z"/>
	<linearGradient id="SVGID_6_" gradientUnits="userSpaceOnUse" x1="112.8117" y1="563.1557" x2="1229.2295" y2="563.1557">
		<stop  offset="3.370800e-02" style="stop-color:#FFAF3A"/>
		<stop  offset="1" style="stop-color:#C46158"/>
	</linearGradient>
	<path fill="url(#SVGID_6_)" d="M822.7,477.1c-14.9,14-32.3,27.3-52.5,37.9c0-3.4-4.4-38.2-28.5-66.2c-8.5-6.9-16.8-13.9-24.1-20.5
		c-38.8-23.4-105.6-26.9-220,38.2c8-8.1,172.4,101,136.3,367.6c3.8,1.3,16.3-3.2,31.5-9.9c4.8-19.9,10.2-39.2,16.4-57.6
		c0.2-30.9,10.1-158.4,152.4-247.4c109.4-111.8,236.5-166.7,296-187.9c13.5-13.2,40.8-34.4,40.8-34.4s-108.3-8.1-204.5,24.2
		c0,0,22-14.7,61.9-29.3c-55.3,15.2-94.6,35.7-94.6,35.7l-3.4,3.7C919.7,356.8,886.4,425.6,822.7,477.1z"/>
	<linearGradient id="SVGID_7_" gradientUnits="userSpaceOnUse" x1="1159.6444" y1="411.9669" x2="1512.557" y2="1348.265">
		<stop  offset="3.370800e-02" style="stop-color:#FFAF3A"/>
		<stop  offset="1" style="stop-color:#C46158"/>
	</linearGradient>
	<path fill="url(#SVGID_7_)" d="M1187.5,489.1c0.4-1.1,0.7-2.2,1.1-3.4C1188.2,486.8,1187.9,488,1187.5,489.1z"/>
	<linearGradient id="SVGID_8_" gradientUnits="userSpaceOnUse" x1="828.4268" y1="536.8105" x2="1181.3395" y2="1473.1086">
		<stop  offset="3.370800e-02" style="stop-color:#FFAF3A"/>
		<stop  offset="1" style="stop-color:#C46158"/>
	</linearGradient>
	<path fill="url(#SVGID_8_)" d="M1020,1040.6c-1,0.2-2.1,0.4-3.1,0.6C1017.9,1041,1018.9,1040.8,1020,1040.6z"/>
	<linearGradient id="SVGID_9_" gradientUnits="userSpaceOnUse" x1="1145.3003" y1="417.3735" x2="1498.2129" y2="1353.6716">
		<stop  offset="3.370800e-02" style="stop-color:#FFAF3A"/>
		<stop  offset="1" style="stop-color:#C46158"/>
	</linearGradient>
	<path fill="url(#SVGID_9_)" d="M1179.4,507.2c-0.1,0.1-0.2,0.3-0.3,0.4C1179.2,507.5,1179.3,507.3,1179.4,507.2z"/>
	<linearGradient id="SVGID_10_" gradientUnits="userSpaceOnUse" x1="1150.8055" y1="415.2984" x2="1503.7183" y2="1351.5966">
		<stop  offset="3.370800e-02" style="stop-color:#FFAF3A"/>
		<stop  offset="1" style="stop-color:#C46158"/>
	</linearGradient>
	<path fill="url(#SVGID_10_)" d="M1182.3,501.8c0.4-0.8,0.8-1.7,1.2-2.6C1183.1,500.1,1182.7,501,1182.3,501.8z"/>
	<linearGradient id="SVGID_11_" gradientUnits="userSpaceOnUse" x1="1153.5035" y1="414.2815" x2="1506.4163" y2="1350.5797">
		<stop  offset="3.370800e-02" style="stop-color:#FFAF3A"/>
		<stop  offset="1" style="stop-color:#C46158"/>
	</linearGradient>
	<path fill="url(#SVGID_11_)" d="M1184,498.3c0.4-0.9,0.8-2,1.3-3C1184.8,496.3,1184.4,497.3,1184,498.3z"/>
	<linearGradient id="SVGID_12_" gradientUnits="userSpaceOnUse" x1="1148.4679" y1="416.1795" x2="1501.3806" y2="1352.4777">
		<stop  offset="3.370800e-02" style="stop-color:#FFAF3A"/>
		<stop  offset="1" style="stop-color:#C46158"/>
	</linearGradient>
	<path fill="url(#SVGID_12_)" d="M1180.9,504.6c0.3-0.6,0.6-1.2,1-1.9C1181.6,503.4,1181.2,504,1180.9,504.6z"/>
	<linearGradient id="SVGID_13_" gradientUnits="userSpaceOnUse" x1="1156.4747" y1="413.1616" x2="1509.3875" y2="1349.4597">
		<stop  offset="3.370800e-02" style="stop-color:#FFAF3A"/>
		<stop  offset="1" style="stop-color:#C46158"/>
	</linearGradient>
	<path fill="url(#SVGID_13_)" d="M1185.7,494c0.4-1.1,0.8-2.2,1.2-3.3C1186.5,491.8,1186.1,492.9,1185.7,494z"/>
	<linearGradient id="SVGID_14_" gradientUnits="userSpaceOnUse" x1="1146.5693" y1="416.8952" x2="1499.4821" y2="1353.1934">
		<stop  offset="3.370800e-02" style="stop-color:#FFAF3A"/>
		<stop  offset="1" style="stop-color:#C46158"/>
	</linearGradient>
	<path fill="url(#SVGID_14_)" d="M1179.8,506.5c0.2-0.3,0.4-0.7,0.6-1.1C1180.2,505.8,1180,506.2,1179.8,506.5z"/>
	<linearGradient id="SVGID_15_" gradientUnits="userSpaceOnUse" x1="837.9354" y1="533.2265" x2="1190.8481" y2="1469.5247">
		<stop  offset="3.370800e-02" style="stop-color:#FFAF3A"/>
		<stop  offset="1" style="stop-color:#C46158"/>
	</linearGradient>
	<path fill="url(#SVGID_15_)" d="M1034.7,1037.1c0,0-3.8,4.6-9.8,10.7l0,0C1031,1041.6,1034.7,1037.1,1034.7,1037.1z"/>
	<linearGradient id="SVGID_16_" gradientUnits="userSpaceOnUse" x1="1026.2642" y1="462.241" x2="1379.1769" y2="1398.5392">
		<stop  offset="3.370800e-02" style="stop-color:#FFAF3A"/>
		<stop  offset="1" style="stop-color:#C46158"/>
	</linearGradient>
	<path fill="url(#SVGID_16_)" d="M1352.5,877.2c0.1-0.2,0.2-0.3,0.2-0.5c2.4-5.1,4.7-10.3,6.9-15.5c0.1-0.2,0.1-0.3,0.2-0.5
		c8.8-21.5,15.1-43.8,18.7-66.4c0-0.2,0.1-0.3,0.1-0.5c7.2-45.5,3.7-92.2-11.2-136.1c-53,62.2-209.5,216.6-453.7,215.6
		c7.5,18.1,16.7,36.3,28,54.3c26-6,66.4-3,129.1,23.7c120.3,51.3,210.9,9.3,254.5-28.4c0,0,0,0,0.1-0.1
		C1335.9,908.3,1344.9,893,1352.5,877.2z"/>
	<linearGradient id="SVGID_17_" gradientUnits="userSpaceOnUse" x1="982.1074" y1="478.8847" x2="1335.02" y2="1415.1829">
		<stop  offset="3.370800e-02" style="stop-color:#FFAF3A"/>
		<stop  offset="1" style="stop-color:#C46158"/>
	</linearGradient>
	<path fill="url(#SVGID_17_)" d="M1102.9,979.6c0,0-42.9,61.7-48.3,71.9c3.7,0.3,7.4,0.4,11.1,0.6c23-0.7,47.2-3.1,67-5.3
		c1.3-0.2,2.5-0.5,3.8-0.8c3.4-0.7,6.9-1.5,10.3-2.3c1.7-0.4,3.5-0.9,5.2-1.3c3.4-0.9,6.8-1.8,10.2-2.9c1.7-0.5,3.5-1,5.2-1.6
		c3.3-1.1,6.7-2.2,10-3.4c1.8-0.6,3.5-1.3,5.3-1.9c3.3-1.2,6.5-2.6,9.7-3.9c1.8-0.7,3.5-1.5,5.3-2.2c3.2-1.4,6.4-2.9,9.6-4.5
		c1.7-0.8,3.5-1.6,5.2-2.5c3.2-1.6,6.4-3.4,9.6-5.1c1.6-0.9,3.3-1.8,4.9-2.7c3.4-2,6.8-4,10.1-6.1c1.4-0.8,2.7-1.6,4.1-2.5
		c4.7-3,9.3-6.2,13.9-9.5c5.3-3.9,10.4-7.9,15.5-12.1c0,0,0.1,0,0.1-0.1c-38.6,14.2-96.7,21.8-173.7-5.8
		c-75.3-27.2-119.8-40.4-149.6-39.3c15.4,23,34.3,45.6,57.4,67.5c0.8,1.6-36.5-18.9-71.4-65.7c-15.5,3.7-26.6,12.8-36.9,27.4
		c0,0,5-22.2,32.3-33.7c-11.6-16.5-22.7-36.1-31.8-58.7c-22.8-0.7-46.3-2.8-70.6-6.5c0,0,26,3.1,68.4,0.9
		c-7.2-19-12.9-40.2-16.4-63.5c-25.6-0.5-46.8-16-64.6-38.5c-1.6-1.8-2.1-2.6-1.5-1.8c0.5,0.6,1,1.2,1.5,1.8
		c6,6.8,27.6,27.1,62.7,22.5c-6.2-63,4.4-141,46.2-235.5c3.6-8.4,5.9-13,5.9-13c-2.1,4.4-4,8.7-5.9,13
		c-14.1,33.2-47.3,126.1-32.6,232.6c27.7-8.3,62.2-32.1,102.7-86c116.3-157.5,162.4-155.5,162.4-155.5s-50.1,14.1-144.3,159.5
		c-47.3,64.5-85.9,93.4-117.9,99.6c3.9,21,9.7,42.3,18,63.8c106.9-8.5,295.1-51.3,446.8-233.2c0,0,0-0.1,0-0.1
		c-3.6-8-7.6-15.8-12-23.5c-0.1-0.1-0.1-0.2-0.2-0.3c-4.4-7.7-9.2-15.2-14.5-22.6c-4.2-5.9-8.7-11.6-13.3-17.1c-1.4-1.7-3-3.3-4.4-5
		c-3.3-3.7-6.6-7.3-10-10.8c-1.8-1.8-3.6-3.6-5.5-5.3c-3.3-3.2-6.7-6.3-10.1-9.2c-1.9-1.7-3.9-3.3-5.9-4.9
		c-3.6-2.9-7.2-5.7-10.9-8.5c-1.9-1.4-3.8-2.8-5.7-4.2c-4.2-2.9-8.4-5.6-12.7-8.3c-1.5-1-3.1-2-4.6-2.9
		c-11.6-6.9-23.8-12.8-36.2-17.9c-7.6,16.2-22.6,36-52.4,46.8c3.8-3.9,22.4-59.6-50.2-67.8c-7.4-0.2-14.9,0-22.3,0.4
		c-0.9,0.1-1.8,0.1-2.8,0.2c-14.9,1-29.7,3-44.5,6.3c-1.2,0.3-2.4,0.5-3.5,0.8c-14.5,3.3-28.8,7.8-42.9,13.3c-1.5,0.6-3,1.2-4.5,1.8
		c-13.8,5.7-27.3,12.4-40.4,20.2c-1.6,1-3.2,1.9-4.8,2.9c-6.5,4-12.9,8.2-19.2,12.8c-5.3,3.8-10.3,7.8-15.3,11.9
		c-1.4,1.1-2.7,2.3-4,3.4c-4,3.4-7.9,6.9-11.7,10.5c-0.9,0.8-1.8,1.7-2.7,2.5c-4.5,4.4-8.9,8.9-13.1,13.5c-0.9,1-1.8,2-2.7,3.1
		c-3.4,3.8-6.8,7.7-10,11.7c-0.9,1.1-1.9,2.3-2.8,3.4c-3.9,4.9-7.6,10-11.2,15.1c-0.2,0.2-0.3,0.4-0.4,0.7c-3.4,5-6.6,10-9.7,15.1
		c-0.7,1.1-1.3,2.2-2,3.3c-3.1,5.2-6,10.6-8.8,15.9c0,0.1-0.1,0.1-0.1,0.2c-2.9,5.8-5.6,11.6-8.2,17.5c-0.3,0.7-0.6,1.4-0.9,2.1
		c-2.3,5.5-4.5,11-6.4,16.5c-0.2,0.4-0.3,0.9-0.5,1.3c-4.3,12.3-7.8,24.7-10.4,37.4c-0.1,0.4-2.4,0.7-2.5,1.1
		C798,729.1,793,742,793,755c0,0,0,0,0,0c0,19.7,1.5,39.5,4.1,59.1c0-0.1,1.1-0.2,1.1-0.3c5.9,43.4,22.4,85.6,49.3,123.2
		c25.9,36.2,59.5,64,96.8,83.3C1019.9,1039,1102.9,979.6,1102.9,979.6z M1148.2,590.5c-3,0-5.4-2.4-5.4-5.4c0-3,2.4-5.4,5.4-5.4
		c3,0,5.4,2.4,5.4,5.4C1153.6,588.1,1151.2,590.5,1148.2,590.5z M1261.6,648.1c4,0,7.2,3.2,7.2,7.2c0,4-3.2,7.2-7.2,7.2
		c-4,0-7.2-3.2-7.2-7.2C1254.4,651.4,1257.6,648.1,1261.6,648.1z M1241.8,597.7c3,0,5.4,2.4,5.4,5.4c0,3-2.4,5.4-5.4,5.4
		c-3,0-5.4-2.4-5.4-5.4C1236.4,600.1,1238.8,597.7,1241.8,597.7z M1225.6,583.3c2,0,3.6,1.6,3.6,3.6c0,2-1.6,3.6-3.6,3.6
		c-2,0-3.6-1.6-3.6-3.6C1222,584.9,1223.6,583.3,1225.6,583.3z M1218.4,626.5c2,0,3.6,1.6,3.6,3.6c0,2-1.6,3.6-3.6,3.6
		c-2,0-3.6-1.6-3.6-3.6C1214.8,628.1,1216.4,626.5,1218.4,626.5z M1193.2,586.9c6,0,10.8,4.8,10.8,10.8c0,6-4.8,10.8-10.8,10.8
		c-6,0-10.8-4.8-10.8-10.8C1182.4,591.7,1187.2,586.9,1193.2,586.9z M1191.4,644.5c5,0,9,4,9,9c0,5-4,9-9,9c-5,0-9-4-9-9
		C1182.4,648.6,1186.4,644.5,1191.4,644.5z M1164.4,619.3c2,0,3.6,1.6,3.6,3.6c0,2-1.6,3.6-3.6,3.6s-3.6-1.6-3.6-3.6
		C1160.8,620.9,1162.4,619.3,1164.4,619.3z M1065.4,561.7c3,0,5.4,2.4,5.4,5.4c0,3-2.4,5.4-5.4,5.4c-3,0-5.4-2.4-5.4-5.4
		C1060,564.1,1062.4,561.7,1065.4,561.7z M1027.6,554.5c4,0,7.2,3.2,7.2,7.2c0,4-3.2,7.2-7.2,7.2c-4,0-7.2-3.2-7.2-7.2
		C1020.3,557.7,1023.6,554.5,1027.6,554.5z M998.7,579.7c4,0,7.2,3.2,7.2,7.2c0,4-3.2,7.2-7.2,7.2c-4,0-7.2-3.2-7.2-7.2
		C991.5,582.9,994.8,579.7,998.7,579.7z"/>
	<path fill="#636468" d="M1367.7,551c-12.2-17.1-26-32.5-40.9-46.2c40.9-89.7-31.4-155.3-31.4-155.3c24.1,60.6,0,109.1-8,113.1
		c-35-18.2-68.8-28.7-99.2-34.4c9.1,18.8,5.6,41.2,0.5,57.5c-0.4,1.2-0.7,2.3-1.1,3.4c-0.2,0.6-0.4,1.1-0.6,1.6
		c-0.4,1.1-0.8,2.2-1.2,3.3c-0.2,0.4-0.3,0.8-0.5,1.2c-0.4,1.1-0.8,2.1-1.3,3c-0.2,0.3-0.3,0.7-0.4,1c-0.4,0.9-0.8,1.8-1.2,2.6
		c-0.2,0.3-0.3,0.6-0.4,0.9c-0.3,0.7-0.7,1.4-1,1.9c-0.2,0.3-0.3,0.6-0.5,0.8c-0.2,0.4-0.5,0.8-0.6,1.1c-0.2,0.3-0.3,0.5-0.4,0.6
		c-0.1,0.1-0.2,0.3-0.3,0.4c-0.2,0.2-0.3,0.2-0.3,0.1c0-39.1-30.9-66-66.5-74.3c-41.7-9.8-80,1.8-118.5,18.2
		c-22.9,9.8-44.8,22.2-64.9,36.8c-107.1,77.7-154.1,207.2-129.6,325.5c0,0.1-2.2,0.2-2.2,0.3c-2.7-19.6-4.1-39.4-4.1-59.1
		c0,0,0,0,0,0c0-13,5-25.9,7.6-38.7c0.1-0.4,1.3-0.7,1.4-1.1c2.6-12.6,6.7-25.1,11-37.4c0.2-0.4,0.6-0.9,0.8-1.3
		c2-5.6,4.3-11.1,6.6-16.5c0.3-0.7,0.6-1.4,0.9-2.1c2.5-5.9,5.3-11.7,8.2-17.5c0-0.1,0.1-0.1,0.1-0.2c2.7-5.4,5.7-10.7,8.8-15.9
		c0.7-1.1,1.3-2.2,2-3.3c3.1-5.1,6.3-10.2,9.7-15.1c0.2-0.2,0.3-0.4,0.4-0.7c3.5-5.1,7.3-10.2,11.2-15.1c0.9-1.1,1.8-2.3,2.8-3.4
		c3.2-4,6.5-7.9,10-11.7c0.9-1,1.8-2.1,2.7-3.1c4.2-4.6,8.6-9.1,13.1-13.5c0.9-0.9,1.8-1.7,2.7-2.5c3.8-3.6,7.7-7.1,11.7-10.5
		c1.3-1.1,2.7-2.3,4-3.4c5-4.1,10-8.1,15.3-11.9c6.3-4.6,12.7-8.8,19.2-12.8c1.6-1,3.2-2,4.8-2.9c13.2-7.8,26.7-14.6,40.4-20.2
		c1.5-0.6,3-1.2,4.5-1.8c14.1-5.5,28.4-10,42.9-13.3c1.2-0.3,2.4-0.5,3.5-0.8c14.8-3.2,29.7-5.3,44.5-6.3c0.9-0.1,1.8-0.1,2.8-0.2
		c7.5-0.4,14.9-0.6,22.3-0.4c72.6,8.2,54,64,50.2,67.8c29.8-10.7,44.8-30.5,52.4-46.8c0,0,0-0.1,0.1-0.1c12.5,5.1,24.5,11.1,36.2,18
		c1.6,0.9,3.1,1.9,4.6,2.9c4.3,2.7,8.6,5.4,12.7,8.3c1.9,1.3,3.8,2.8,5.7,4.2c3.7,2.7,7.4,5.5,10.9,8.5c2,1.6,3.9,3.2,5.9,4.9
		c3.4,3,6.8,6.1,10.1,9.2c1.8,1.8,3.7,3.5,5.5,5.3c3.4,3.5,6.7,7.1,10,10.8c1.5,1.7,3,3.3,4.4,5c4.6,5.5,9.1,11.1,13.3,17.1
		c5.3,7.4,10.1,14.9,14.5,22.6c0.1,0.1,0.1,0.2,0.2,0.3c4.4,7.7,8.4,15.6,12,23.5c0,0,0,0.1,0.1,0.1l0,0
		C1206,815,1017.7,857.8,910.9,866.3c-8.3-21.4-14.1-42.8-18-63.8c32-6.2,70.6-35.1,117.9-99.6c94.2-145.4,144.3-159.5,144.3-159.5
		s-46.1-2-162.4,155.5c-40.5,54-75,77.8-102.7,86c-14.6-106.5,18.6-199.4,32.6-232.6c-41.9,94.5-52.4,172.5-46.2,235.5
		c-35,4.6-56.7-15.7-62.7-22.5c17.9,22.5,39,38.1,64.6,38.5c3.5,23.4,9.2,44.5,16.4,63.5c-42.4,2.2-68.4-0.9-68.4-0.9
		c24.3,3.7,47.8,5.7,70.6,6.5c9.1,22.7,20.2,42.2,31.8,58.7c-27.3,11.5-32.3,33.7-32.3,33.7c10.3-14.6,21.4-23.7,36.9-27.4
		c34.9,46.8,72.2,67.4,71.4,65.7c-23-21.9-41.9-44.5-57.4-67.5c29.8-1.1,74.2,12.1,149.6,39.3c77.1,27.6,135.1,20,173.7,5.8
		c0,0,0,0,0,0c0,0-0.1,0-0.1,0.1c-5,4.1-10.1,8.2-15.5,12.1c-4.6,3.3-9.2,6.5-13.9,9.5c-1.3,0.9-2.7,1.7-4.1,2.5
		c-3.4,2.1-6.7,4.2-10.1,6.1c-1.6,0.9-3.3,1.8-4.9,2.7c-3.2,1.8-6.4,3.5-9.6,5.1c-1.7,0.9-3.5,1.7-5.2,2.5c-3.2,1.5-6.4,3.1-9.6,4.5
		c-1.8,0.8-3.5,1.5-5.3,2.2c-3.2,1.4-6.5,2.7-9.7,3.9c-1.8,0.7-3.5,1.3-5.3,1.9c-3.3,1.2-6.6,2.3-10,3.4c-1.7,0.6-3.5,1.1-5.2,1.6
		c-3.4,1-6.8,2-10.2,2.9c-1.7,0.5-3.4,0.9-5.2,1.3c-3.4,0.8-6.9,1.6-10.3,2.3c-1,0.2-2.1,0.5-3.1,0.7c-0.2,0-0.5,0.1-0.7,0.1
		c-19.9,2.2-44.1,4.6-67,5.3c-3.6,0.1-7.3,0.3-10.9,0.3c-1,1-1,0.6-0.2-0.8c5.4-10.1,48.3-71.9,48.3-71.9s-82.7,59.4-158.4,40.8
		c-0.7-0.2-1.3-0.2-2-0.4c-4.3-1.4,4.1,7.8,19.8,20.5c13.9,3.1,32.4,4.6,54.5,0.8c1-0.2,2.1-0.4,3.1-0.6c4.8-0.9,9.7-2,14.8-3.5
		c0,0-3.7,4.5-9.8,10.7c-6,6.1-14.2,13.7-23.4,20.1c27.1,16.4,59.6,31.2,89.4,32.9c28.1,4-88.2,52.5-152.4,52.5
		c4,0-96.2-189.8-224.5-133.3c-128.3,56.6-32.1,339.3,204.5,331.2c0,0-180.4-44.4-152.4-226.2c28.1-113.1,140.3-16.1,136.3,72.7
		c-4,8.1,208.5,12.1,272.6-153.5c-0.3-0.3-1.2-0.5-2.3-0.7c40-9.8,79.1-27.5,114.9-53.5C1430.9,886.1,1466.7,689.6,1367.7,551z
		 M1325.4,922.9c-43.6,37.7-134.2,79.7-254.5,28.4c-62.7-26.7-103.2-29.7-129.1-23.7c-11.3-18-20.6-36.1-28-54.3
		c244.2,1,400.6-153.4,453.7-215.6c15,43.9,18.4,90.6,11.2,136.1c0,0.2-0.1,0.3-0.1,0.5c-3.6,22.6-9.9,44.9-18.7,66.4
		c-0.1,0.2-0.1,0.3-0.2,0.5c-2.1,5.2-4.4,10.4-6.9,15.5c-0.1,0.2-0.2,0.3-0.2,0.5C1344.9,893,1335.9,908.3,1325.4,922.9
		C1325.4,922.8,1325.4,922.9,1325.4,922.9C1325.4,922.9,1325.4,922.9,1325.4,922.9z"/>
	<path fill="#636468" d="M1232.6,372.8c-0.5,0.3-0.9,0.6-1.4,0.9C1231.8,374.9,1232.4,374.4,1232.6,372.8z"/>
	<path fill="#636468" d="M850.8,509.4c3.8-2.1,7.6-4.3,11.6-6.4C862.4,503,858,504.9,850.8,509.4z"/>
	<path fill="#636468" d="M742.1,785.7c0,0-44.5,24.3-76.7,38.5c-15.2,6.7-27.7,11.2-31.5,9.9C670,567.6,505.6,458.5,497.6,466.6
		c114.4-65.1,181.2-61.6,220-38.2c9.7,5.8,17.6,12.9,24.1,20.5c24.1,28,28.5,62.8,28.5,66.2c20.3-10.7,37.7-24,52.5-37.9
		c63.6-51.6,97-120.3,107.8-145.8c2.7-6.4,4-10.1,4-10.1l-128.3,36.3l68.1,8.1c-7.5,32.7-27.4,54.4-41.4,66.2
		c-21.2,12.6-42.3,16.3-50.8-9.6c-14.2-29.7-39.7-44.9-69.2-51.5c-79-17.6-187.3,27.3-187.3,27.3C706,260.6,910.5,244.5,914.5,240.4
		c-33.6,1.9-66.8,5.6-99.4,10.9C493.4,303.2,229,503,229,503S84.6,547.4,80.6,551.4C44.5,676.6,216.9,668.6,216.9,668.6
		c-88.2-32.3-96.2-80.8-96.2-80.8s1.2-0.2,3.5-0.7c21.9-4.3,140.5-27.6,136.8-27.6c72.2-44.4,128.3-72.7,124.3-72.7
		C652.8,592.4,614,888.3,603.7,945.6c-1.1,6.3-1.9,9.8-1.9,9.8L742.1,785.7z"/>
	<path fill="#636468" d="M681.8,766.6c0,4.5,0.1,7,0.1,7s44.1-32.3,48.1-32.3c8.1-77.2,31.5-130.9,56.4-167.6
		c12.8-18.9,26-33.2,37.8-43.9c10.5-9.5,19.8-16.2,26.6-20.4c-5.7,3.2-11.2,6.5-16.6,9.9C691.9,608.2,682.1,735.7,681.8,766.6z"/>
	<path fill="#636468" d="M1171.1,297c0,0-27.3,21.2-40.8,34.4c-5.2,5-8.4,8.9-7.3,10.1c99-24.1,110.8,22.1,109.6,31.4
		c66.5-44.4,50.7-108.1,46.7-104.1c-110.5-16.2-197,3.5-250.8,23.2c-39.9,14.6-61.9,29.3-61.9,29.3
		C1062.9,288.9,1171.1,297,1171.1,297z"/>
	<path fill="#636468" d="M409.4,571.6l-76.2,64.6c0,0,21.5,18.9,42.5,56.2c16.2,28.7,32.1,68.2,37.8,118.5
		c6.1,53.9,0.5,120.1-29.2,198.3c-13.2,34.9-31.2,72.1-55.1,111.7c-0.8,1.6,9.1-10.7,24-32.8C413.6,998.4,557.4,743.5,409.4,571.6z"
		/>
	<path fill="#636468" d="M813.8,765.3c-0.5-0.6-1-1.2-1.5-1.8C811.7,762.7,812.2,763.5,813.8,765.3z"/>
	<path fill="#636468" d="M922.7,552.3c1.9-4.3,3.9-8.6,5.9-13C928.6,539.3,926.2,543.9,922.7,552.3z"/>
	<path fill="#FFFFFE" d="M1191.4,662.5c5,0,9-4,9-9c0-5-4-9-9-9c-5,0-9,4-9,9C1182.4,658.5,1186.4,662.5,1191.4,662.5z"/>
	<path fill="#FFFFFE" d="M1065.4,572.5c3,0,5.4-2.4,5.4-5.4c0-3-2.4-5.4-5.4-5.4c-3,0-5.4,2.4-5.4,5.4
		C1060,570.1,1062.4,572.5,1065.4,572.5z"/>
	<path fill="#FFFFFE" d="M998.7,594.1c4,0,7.2-3.2,7.2-7.2c0-4-3.2-7.2-7.2-7.2c-4,0-7.2,3.2-7.2,7.2
		C991.5,590.9,994.8,594.1,998.7,594.1z"/>
	<path fill="#FFFFFE" d="M1027.6,568.9c4,0,7.2-3.2,7.2-7.2c0-4-3.2-7.2-7.2-7.2c-4,0-7.2,3.2-7.2,7.2
		C1020.3,565.7,1023.6,568.9,1027.6,568.9z"/>
	<path fill="#FFFFFE" d="M1193.2,608.5c6,0,10.8-4.8,10.8-10.8c0-6-4.8-10.8-10.8-10.8c-6,0-10.8,4.8-10.8,10.8
		C1182.4,603.7,1187.2,608.5,1193.2,608.5z"/>
	<path fill="#FFFFFE" d="M1164.4,626.5c2,0,3.6-1.6,3.6-3.6c0-2-1.6-3.6-3.6-3.6s-3.6,1.6-3.6,3.6
		C1160.8,624.9,1162.4,626.5,1164.4,626.5z"/>
	<path fill="#FFFFFE" d="M1148.2,579.7c-3,0-5.4,2.4-5.4,5.4c0,3,2.4,5.4,5.4,5.4c3,0,5.4-2.4,5.4-5.4
		C1153.6,582.1,1151.2,579.7,1148.2,579.7z"/>
	<path fill="#FFFFFE" d="M1261.6,662.5c4,0,7.2-3.2,7.2-7.2c0-4-3.2-7.2-7.2-7.2c-4,0-7.2,3.2-7.2,7.2
		C1254.4,659.3,1257.6,662.5,1261.6,662.5z"/>
	<path fill="#FFFFFE" d="M1218.4,633.7c2,0,3.6-1.6,3.6-3.6c0-2-1.6-3.6-3.6-3.6c-2,0-3.6,1.6-3.6,3.6
		C1214.8,632.1,1216.4,633.7,1218.4,633.7z"/>
	<path fill="#FFFFFE" d="M1225.6,590.5c2,0,3.6-1.6,3.6-3.6c0-2-1.6-3.6-3.6-3.6c-2,0-3.6,1.6-3.6,3.6
		C1222,588.9,1223.6,590.5,1225.6,590.5z"/>
	<path fill="#FFFFFE" d="M1241.8,608.5c3,0,5.4-2.4,5.4-5.4c0-3-2.4-5.4-5.4-5.4c-3,0-5.4,2.4-5.4,5.4
		C1236.4,606.1,1238.8,608.5,1241.8,608.5z"/>
</g>
</svg>
