<?xml version="1.0" encoding="utf-8"?>
<!-- Generator: Adobe Illustrator 18.1.0, SVG Export Plug-In . SVG Version: 6.00 Build 0)  -->
<svg version="1.1" id="Layer_1" xmlns="http://www.w3.org/2000/svg" xmlns:xlink="http://www.w3.org/1999/xlink" x="0px" y="0px"
	 viewBox="0 0 150 150" enable-background="new 0 0 150 150" xml:space="preserve">
<g>
	<path fill="none" d="M24.3,78c-0.3,0-0.7,0-1,0h0C23.6,78.1,23.9,78.1,24.3,78L24.3,78L24.3,78z"/>
	<path fill="none" d="M111.6,125.7c0.8,0,1.5-0.5,1.8-1.2c0-0.1,0.5-1.2,0.6-2.8c0,1.6-0.6,2.7-0.6,2.8
		C113.1,125.2,112.4,125.7,111.6,125.7z"/>
	<path fill="none" d="M29.6,99.7C29.6,99.7,29.7,99.7,29.6,99.7c0-1-0.3-1.9-0.3-2.8c0-1.1-0.1-2.2,0-3.2c-0.1,1-0.2,2.1-0.2,3.2
		c0,0.9,0,1.8,0.1,2.8c-1.7,2.5-4.1,4.6-7.4,4.7c0.1,0,0.1,0,0.2,0c3.2-0.1,5.3-2.1,7.4-4.4c0,0,0-0.1,0-0.1
		C29.4,99.8,29.6,99.8,29.6,99.7z"/>
	<path fill="none" d="M22.2,80.1L22.2,80.1c-0.7-0.1-1.4-0.2-2.2-0.3c0,0,0,0,0,0C20.8,79.9,21.5,80,22.2,80.1
		C22.2,80.1,22.2,80.1,22.2,80.1z"/>
	<path fill="none" d="M27.9,108.4c0,0,1.3-0.7,1.4-5.6c0-0.5,0.1-1.1,0.1-1.8c0-0.3,0.1-0.7,0.1-1.1c0,0,0,0,0,0
		c0,0.4-0.2,0.7-0.2,1.1c0,0,0,0,0,0c0,0.7,0,1.2,0,1.8c0,0,0,0,0,0C29.2,107.7,27.9,108.4,27.9,108.4l0.2,0c0,0,0,0,0,0L27.9,108.4
		z"/>
	<path fill="none" d="M78.5,123.8c0-0.2-0.1-0.4-0.2-0.6C78.4,123.3,78.5,123.6,78.5,123.8c0,1.1,1.1,1.9,2.2,1.9
		C79.7,125.7,78.6,124.8,78.5,123.8z"/>
	<path fill="none" d="M46.5,123c-0.1,1-1,1.6-2,1.6C45.5,124.6,46.4,124,46.5,123c0.1-0.3,0.1-0.5,0.1-0.9c0-1.9-0.5-4.4-2.2-6.2
		c1.7,1.8,2.2,4.3,2.2,6.2C46.5,122.4,46.5,122.7,46.5,123z"/>
	<path fill="none" d="M43.5,115.1C43.5,115.1,43.6,115.2,43.5,115.1c1.2-2.1,3.7-6.7,4.5-8.3c0.2,0,0.5,0.1,0.9,0.1c0,0,0,0,0,0
		c-0.4-0.1-0.7-0.1-0.9-0.1C47.2,108.4,44.7,113,43.5,115.1z"/>
	<path fill="none" d="M26.3,108.8c0.3-0.3,0.9-0.4,1.4-0.4C27.2,108.4,26.6,108.5,26.3,108.8c-0.2,0.2-0.4,0.4-0.5,0.6c0,0,0,0,0,0
		c-0.2,0.3-0.4,0.6-0.4,0.9c0-0.3,0.2-0.7,0.4-0.9C25.9,109.2,26.1,109,26.3,108.8z"/>
	<path fill="none" d="M55.7,69.5C55.5,70.3,55.3,71,55,72c0,0,0,0,0,0c0.5-1,0.8-1.9,0.9-2.8l0.1-1.2c0-1.8-0.7-3.4-2-4.6
		C55.4,65.1,56,67.3,55.7,69.5z"/>
	<path fill="none" d="M114,121.5c0-1.6-1.1-3.6-2.2-5.6C112.9,117.9,114,119.9,114,121.5C114,121.5,114,121.5,114,121.5z"/>
	<path fill="none" d="M37,78.7c-0.1,0-0.1,0-0.2,0.1c-0.5,0.4-1,0.8-1.4,1.3c-0.3,0.3-0.6,0.6-0.9,0.9c0,0,0,0,0.1,0
		c0.3-0.3,0.5-0.6,0.8-0.9C35.9,79.5,36.4,79.1,37,78.7z"/>
	<path fill="none" d="M29.3,93.7c0.2-1.5,0.4-2.9,0.8-4.2c0,0,0,0,0,0C29.7,90.8,29.5,92.2,29.3,93.7C29.3,93.7,29.3,93.7,29.3,93.7
		z"/>
	<path fill="none" d="M49.8,107.1c6.7,0.9,28.9,3.7,31.8,4C78.7,110.7,56.5,107.9,49.8,107.1L49.8,107.1z"/>
	<path fill="none" d="M46.5,68.8c-2-0.4-6.4,0.1-10.7,2.9c0,0.1,0,0.3,0,0.4c0.6-0.1,1.1-0.3,1.7-0.4C42.7,70.7,45.3,69.5,46.5,68.8
		z"/>
	<path fill="none" d="M25.2,112.2c0,0,0,0.1,0,0.1c0,0.3,0.1,0.5,0.1,0.8v-1.6C25.3,111.7,25.2,112,25.2,112.2z"/>
	<path fill="none" d="M60,70c-0.1,0.6-0.2,1.1-0.4,1.6c0.3,0,0.6,0,0.9,0c-0.2-0.6-0.4-1.3-0.5-1.8L60,70z"/>
	<path fill="none" d="M19.9,94.9C19.9,94.9,19.9,94.9,19.9,94.9c0,0.4-0.1,0.7,0,1c0,0.1,0,0.1,0,0.2c0,0.3,0.1,1.6,0.7,1.9
		c-0.1-0.2-0.2-0.4-0.3-0.7c0,0-0.2-1.2-0.2-1.2l0-0.4c0-1.9,0.8-4,2.3-5.9C21,91.5,20.1,93.2,19.9,94.9z"/>
	<path fill="none" d="M49.4,103C49.4,103,49.3,103.1,49.4,103L49.4,103C49.4,103,49.4,103,49.4,103z"/>
	<path fill="#FFC818" enable-background="new    " d="M29.1,96.9c0-1.1,0.1-2.2,0.2-3.2c0,0,0,0,0,0C29.2,94.7,29.2,95.8,29.1,96.9z
		"/>
	<path fill="#FFC818" enable-background="new    " d="M83.6,52h10.5c0.9,0,1.7,0.6,2,1.5c0.1,0.2,0.1,0.5,0.1,0.5h-0.1h0
		c0,0,0,0.2,0,0.2c0,0,0,0.1,0,0.1c0,0.6-0.3,1.3-0.9,1.7c0,0-2.7,2.1-4.3,4.8c-0.4,0.6-0.7,1.3-0.9,2c0,0,0,0,0,0c0,0,0,0,0,0
		c0,0,0.1,0.2,0.1,0.2H104c0.1,0,0.1-0.3,0.2-0.4c0.5-0.6,0.9-0.3,1.2-0.5c0,0,0,0,0,0c0,0,0,0,0,0c-0.6-1.6-2.2-4.4-6-6.2
		c-0.7-0.3-1.1-1-1.1-1.7c0,0,0,0,0-0.1c0,0,0-0.1,0-0.1c0,0,0,0,0,0h-0.1c0,0,0,0.1,0,0.1c0-0.2,0-0.3,0.1-0.4
		c0.1-0.6,0.5-1,1.1-1.3c0,0,0,0,0,0c0.1,0,0.2-0.1,0.3-0.1c0,0,0,0,0.1,0c0,0,0,0,0.1,0c0,0,0-0.1,0-0.1c0.2-0.1,0.4-0.2,0.6-0.2
		h13.2h0.5h0.1h2c-3.6-5-10.3-9.5-17.9-9.5c-2.1,0-4.1,0.3-6,0.9l-3.6,1.7c-2,1-4.9,2.8-7.3,6.7L81.1,52H83.6
		C83.6,52,83.6,52,83.6,52z"/>
	<path fill="#FFC818" enable-background="new    " d="M29.7,99.7C29.7,99.7,29.7,99.7,29.7,99.7C29.7,99.7,29.6,99.7,29.7,99.7
		C29.7,99.7,29.7,99.7,29.7,99.7z"/>
	<path fill="#FFC818" enable-background="new    " d="M135.4,46.6c-0.2-0.2-0.4-0.4-0.7-0.6c0-0.3,0-0.6-0.1-0.9
		c-3.4-9.1-9.3-11.3-10.3-11.6c-0.1-0.5-0.3-0.9-0.7-1.2c-8-6.8-14.5-5.6-14.8-5.6c-0.3,0-0.5,0.2-0.7,0.3c-0.1-0.1-0.2-0.1-0.3-0.2
		c-4.6-1.8-7.6-1.1-8.9-0.6c-1.3-0.5-4.3-1.2-8.9,0.6c-0.1,0-0.2,0.1-0.4,0.2c-0.2-0.1-0.5-0.2-0.7-0.3c-0.3-0.1-6.8-1.2-14.8,5.6
		c-0.4,0.3-0.6,0.7-0.7,1.2c-1.1,0.3-6.9,2.6-10.3,11.6c-0.1,0.3-0.1,0.6-0.1,0.9c-0.3,0.1-0.5,0.3-0.7,0.6c-0.2,0.3-4.8,6.4-3,15
		c0.1,0.3,0.2,0.6,0.4,0.9c-0.1,0.3-0.2,0.5-0.2,0.8c0,0.1,0,0.3,0,0.7c-0.9-2.2-2.6-4.1-4.9-5.3c-8.8-4.8-19,1.2-23.5,4.5
		c-4.5,0.1-8,1.5-10.7,4c-4.2,4-4.3,9.2-4.3,10.2v2.5c0,0.1-0.2,0.2-0.2,0.4C11.7,84.8,9,90.1,9,95.5c0,0,0,0.2,0,0.2
		c0,6.9,4,12.3,10.1,13.7c1.4,0.3,2.7,0.4,4,0.4c0,0.2-0.1,0.4-0.1,0.6V123c0,2.2,2.3,4,4.5,4h16.9c2.1,0,3.8-1.5,4-3.6l0.1-1.3
		c0-1.1-0.2-4.6-2.5-7.3c0.5-1,2.1-4.3,2.9-5.7c2.5,0.3,27,3.4,30,3.8c0,0.9,0,1.4,0,2c-1,1.4-2.5,3.9-2.5,7.9l0.1,1.2
		c0.1,2.1,2,4,4.1,4h30.9c1.6,0,3.1-1.1,3.7-2.5c0.1-0.1,0.9-1.7,0.9-3.9c0-1.6-1.2-4-2.2-6.4c0-1,0-15,0-20.1
		c0-0.2,0.2-0.3,0.3-0.3c0.1-0.1,0.2-0.2,0.3-0.4c0.5,0.4,1.1,0.4,1.9,0.1c10.3-3.4,14.4-11.5,14.5-11.9c0.1-0.3,0.2-0.6,0.2-0.9
		c0,0,0,0,0,0c0.1-0.1,0.1-0.1,0.2-0.2c7.3-8.5,6.9-17.9,6.9-18.3c0-0.3-0.1-0.6-0.2-0.8c0.2-0.3,0.4-0.6,0.4-0.9
		C140.2,53,135.6,46.8,135.4,46.6z M56,68l-0.1,1.3C55.8,70.1,55.4,71,55,72c0,0,0,0,0,0c0.3-1,0.6-1.7,0.7-2.5
		c0.4-2.2-0.3-4.4-1.7-6.1C55.3,64.7,56,66.2,56,68z M135.3,61.2L124.5,57c0.1,0.6,0.2,1.1,0.3,1.7l10.3,4.7c0,0,0.4,8.9-6.4,16.9
		c0.1,0.2-3.5-3.4-6.8-6.8c0-0.1-0.1,0-0.1,0c-0.4,0.3-0.9,0.5-1.4,0.5H120l-1.7-1.2l1.7,1.6l8,7.6c0,0-3.7,7.4-13.3,10.5
		c-0.1,0-0.1,0-0.2,0.1c0.2,0.3-4.2-8.5-6.4-12.8c0,0,0-0.1,0-0.1c0,0,0,0,0,0c0,0,0,0,0,0.1c-0.4,0.3-0.7,0.7-1.1,1l0,0l5.9,12.5
		c0,0-0.9,0.3-0.9,0.8c0,3.7,0,20.5,0,21.8c1,2,2,4,2,5.6c0,0,0,0,0,0c0,0,0,0,0,0c0,0.1,0,0.1,0,0.2c0,1.6-0.5,2.8-0.6,2.9
		c-0.3,0.7-1.1,1.4-1.8,1.4H80.7c-1.1,0-2.2-1-2.2-2.1c0-0.2-0.2-0.5-0.3-0.7c0-0.1-0.2-0.3-0.2-0.4c0,0,0,0,0,0c0-3.6,2-5.9,4-7.1
		c0-1,0-2.9,0-4.6c-3-0.3-25.3-3.2-32-4l-0.1,0c-0.3,0-0.7-0.1-0.9-0.1c0,0,0,0,0,0c-0.4-0.1-0.7-0.1-0.9-0.1
		c-0.8,1.6-3.3,6.2-4.5,8.3c0.3,0.2,0.5,0.4,0.8,0.7c1.7,1.8,2.2,4.4,2.2,6.2c0,0.4,0,0.8-0.1,1.1c-0.1,1-1,1.8-2,1.8H27.5
		c-1.1,0-2.5-0.9-2.5-2v-9.9c0-0.2,0.1-0.5,0.1-0.8c0,0-0.1-0.1-0.1-0.1c0-0.2,0-0.5,0-0.7v-1.2c0-0.3,0.3-0.7,0.6-0.9
		c0,0,0.1,0,0.1,0c0.2-0.2,0.4-0.4,0.6-0.6c0.3-0.3,0.9-0.4,1.4-0.4c0.2,0,0.3,0,0.5,0l-0.2,0c0,0,1.3-0.7,1.4-5.6c0,0,0,0,0,0
		c0-0.5,0-1.1,0-1.8c0,0,0,0,0,0c0-0.3,0.2-0.7,0.2-1.1c-2.1,2.4-4.2,4.3-7.4,4.4c-0.1,0-0.1,0-0.2,0c0,0,0,0-0.1,0
		c-0.8,0-1.6-0.1-2.4-0.3c-7.4-1.7-8.4-13.6,1.3-22.3c-0.1-0.1-0.2-0.2-0.3-0.4c-0.2-0.3-0.3-0.6-0.4-1c0-0.1,0,0,0,0
		c0-0.2,0-0.4,0.1-0.4c0,0-0.1,0-0.1,0s0,0,0,0c1,0.2,1.5,0.2,2.2,0.2l1.9-2.1c-0.3,0-1.1,0-1.1,0v0v0c-1,0-2.1-0.2-3.3-0.5l0.3-0.2
		c0-0.1,0-2.2,1.2-4.3c0.1-0.1,0.2-0.3,0.3-0.4c0.5-0.7,1.1-1.4,1.9-2c1.7-1.4,4.4-2.3,8.4-2.1c0,0,11.3-9.3,19.1-5.1
		c3.6,1.9,4.1,6.6-0.2,10.1c-3.3,0.3-8.7,1.3-13.2,4.7c-11.5,3-20,11.2-19.6,17.9c0.4,7,8.3,4.8,12.3-6.8c0,0,0,0,0,0.1c0,0,0,0,0,0
		c0,0,0,0,0,0c0.9-3.3,2.4-6.1,4.5-8.5c0,0,0,0-0.1,0c0.3-0.3,0.6-0.6,0.9-0.9c0.5-0.5,0.9-0.9,1.4-1.3c0.1,0,0.1,0,0.2-0.1
		c0.1-0.1,0.3-0.2,0.4-0.3c4.6-3.4,9.9-4.3,13.2-4.5c1.8-0.2,3.1,0.2,3.2,0.2h8.7c-0.3-1-0.6-1.7-0.8-2.4c-1.5-4.5-1.4-8.2-1.4-8.2
		l11.4-5.2c0.1-0.5,0.2-1.1,0.3-1.6l-11.9,4.6C58.6,53.5,62.8,48,62.8,48h10.9h2.1c0-1,0-0.9,0.1-1.3l-2.1-0.2l-9.9-0.6
		C67.2,37,73,35.5,73,35.5l6.4,2.9l2.6,1.2c0.7-0.2,1.4-0.3,2.2-0.3l-3-1.6l-6.9-3.7c7.3-6.2,13.1-5.1,13.1-5.1l5.3,8.2
		c0.3-0.1,0.7-0.1,1-0.2l-3.9-8c5.1-2,8-0.4,8-0.4s2.8-1.5,7.9,0.4l-3.8,7.9c0.3,0,0.7,0.1,1,0.1l5.2-8.1c0,0,5.8-1.1,13.1,5.1
		l-8.7,4.7l-3.9,2.1c0.4,0.2,0.8,0.4,1.2,0.6l6.2-2.8l6.6-3c0,0,5.8,1.5,9.1,10.4l-6.6,0.4l-2.1,0.2c0.1,0.5,0.2,0.5,0.3,1.5h2.1
		h7.4C132.7,48,136.9,53.5,135.3,61.2z M20.1,96.1c0,0,0.2,1.2,0.2,1.2c0,0.3,0.1,0.5,0.3,0.7c-0.5-0.3-0.7-1.6-0.7-1.9
		c0-0.1,0-0.1,0-0.2c0-0.3,0-0.6,0-0.9c0,0,0,0,0-0.1c0.2-1.6,1.1-3.4,2.4-5.1c-1.4,2-2.3,4-2.3,5.9L20.1,96.1z M59.6,71.6
		c0.2-0.5,0.3-1.1,0.4-1.6l0-0.2c0.1,0.6,0.3,1.2,0.5,1.8C60.2,71.6,59.9,71.6,59.6,71.6z"/>
	<path fill="#FFC818" enable-background="new    " d="M29.4,99.8c0,0,0,0.1,0,0.1c0,0,0,0,0,0C29.4,99.9,29.4,99.9,29.4,99.8z"/>
	<path fill="#FFC818" enable-background="new    " d="M99.3,52.4c-0.1,0-0.1,0.1-0.2,0.1c0.1-0.1,0.3-0.2,0.4-0.2
		C99.5,52.4,99.4,52.4,99.3,52.4C99.4,52.4,99.4,52.4,99.3,52.4z"/>
	<path fill="#FFC818" enable-background="new    " d="M97.9,97.8c-9.6,0.4-15.1-4.5-15.1-4.5l6-13.1c-0.4-0.3-0.8-0.7-1.1-1
		c-2,3.9-6.9,13.9-6.8,13.5c-9.7-3.1-13.5-10.6-13.5-10.6l9.7-9.1h-1l-0.5-1.4c-3.5,3.6-9.1,9-8.9,8.7c-0.1-0.1-0.2-0.3-0.3-0.4
		c-0.1-0.1-0.2-0.3-0.3-0.4c-0.5-0.7-1-1.3-1.5-2l-11,0c-0.1,0-9.5-0.5-15.5,5.4c-3.4,3.4-5,8.2-5,14.4c0,0.8,0,1.6,0.1,2.4
		c0,0.9,0.1,1.7,0.1,2.5c0,4.8-0.7,7.9-2.6,9.4c-0.3,0.2-0.7,0.3-0.7,0.5c0,2,0,6.1,0,9.1c2,0,9.7,0,12.5,0c-0.2-1-0.7-2.6-2.2-3.1
		c-0.6-0.2-1-0.7-1.3-1.3c-0.1-0.2-0.2-0.5-0.2-0.7c0-0.3,0.1-0.6,0.2-0.9l5.6-10.6c1-2.3,2.2-5.9,1.9-9.3c-0.4-4.9,5.8-1.6,2.6,7.9
		l0.1,0c0,0,0,0,0,0l0.1,0c0-0.1,0,0,0,0.1l19.4,2.4l11,1.4l1.4,0.2c0-0.5,0-1.1-0.1-1.3c0-0.1,0-0.1,0-0.1c0-0.1,0-0.1-0.1-0.1
		c0,0,0,0,0,0c0,0,0,0,0,0c-0.7-0.7-1.2-1.2-1.7-1.8c0,0,0-0.1-0.1-0.1c-0.1-0.2-0.3-0.4-0.4-0.6c-0.1-0.1-0.2-0.3-0.2-0.4
		c-0.8-1.7-0.9-3.7-0.6-4.9c0.2-0.9,0.6-1.7,0.6-1.7h-0.1c0.4,0,1-0.2,1.2,1c0.7,4,5.2,7.4,5.2,7.4v4.2c0,0.2,1,0.5,1,0.8v7.3
		c0,0.7-0.7,1-1.3,1.4c-0.1,0-1.5,1-1.9,3c1.7,0,7.2,0,13.2,0v-20c0-0.6,0.4-1.2,1-1.2s1,0.5,1,1.2v20c6,0,10.7,0,12,0
		c0-1-0.2-1.8-1.5-3.1c-0.4-0.4-0.5-0.7-0.5-1.3V96.2C105,97.1,102,97.9,97.9,97.8z"/>
	<polygon fill="#FFC818" enable-background="new    " points="99.7,52.2 99.7,52.2 99.7,52.2 	"/>
	<path fill="#FFC818" enable-background="new    " d="M46.5,68.8c-1.2,0.8-3.8,1.9-9,3c-0.6,0.1-1.1,0.3-1.7,0.4
		c0,0.6-0.1,1-0.1,1.3c-0.1,0.3-0.1,0.6-0.2,0.9c0.8-0.2,1.6-0.4,2.5-0.6c21-4.4,8.5-11.2-2.8-4.1c0.5,0.6,0.6,1.4,0.7,2.1
		C40.1,68.9,44.5,68.4,46.5,68.8z"/>
	<path fill="#FFAF3A" d="M122.3,56.8c0.1,0.3,0.1,0.5,0.2,0.8l2.3,1c-0.1-0.6-0.2-1.1-0.3-1.7l-1.8-0.7L122.3,56.8z"/>
	<path fill="#FFAF3A" d="M120.3,73h-2l1.7,1h0.3c0.6,0,1.1-0.1,1.4-0.5c-0.4-0.4-0.9-0.8-1.3-1.2L120.3,73z"/>
	<path fill="#FFAF3A" d="M94.7,38.8l-1-2c-0.3,0.1-0.7,0.1-1,0.2l1.2,1.9C94.2,38.9,94.5,38.8,94.7,38.8z"/>
	<path fill="#FFAF3A" d="M74.4,55.7L72,56.6c-0.1,0.5-0.2,1.1-0.3,1.6l2.3-1.1C74.1,56.6,74.3,56.1,74.4,55.7z"/>
	<path fill="#FFAF3A" d="M101.6,38.8l1.2-1.9c-0.3-0.1-0.7-0.1-1-0.1l-1,2C101.1,38.7,101.4,38.7,101.6,38.8z"/>
	<path fill="#FFAF3A" d="M107,80.8c0.4-0.3,0.8-0.6,1.1-1c0,0,0,0,0-0.1C107.7,80.1,107.3,80.4,107,80.8L107,80.8z"/>
	<path fill="#FFAF3A" d="M112.1,66C112.1,66,112.1,66,112.1,66C112.1,66,112.1,66.1,112.1,66c-0.5-2.1-1.6-4.2-3-5.9
		c-0.5-1.2-1.3-2.1-2.6-4.1c-0.1,0-0.1,0-0.2,0c1.4,2,2.2,2.9,2.7,4.1c1.8,2.1,3.1,4.9,3.3,7.9c0,0,0.1,0,0.1,0c0,0,0-0.3-0.1-0.5
		C112.3,67.1,112.2,67,112.1,66z"/>
	<path fill="#FFC818" enable-background="new    " d="M101.6,67.9c0.1,0.1,0.2,0.1,0.3,0.1c1.5,0,2.9,0,4.3,0
		c-0.1,0-0.3-1.3-0.6-1.9L101.6,67.9z"/>
	<path fill="#FFAF3A" d="M101.5,76.9c-0.4,0.2-0.9,0.3-1.3,0.5c-0.1,0.9-0.2,1.8-0.3,2.7c3-0.5,5.5-2.3,7-4.7
		c-2.6,0.2-4.7-0.3-6.3-0.9c-0.1,0.7-0.2,1.4-0.3,2.1C100.7,76.7,101.1,76.8,101.5,76.9z"/>
	<path fill="#FFAF3A" d="M96.2,53.5c-0.3-0.9-1.1-1.5-2-1.5C95,52.1,95.8,52.8,96.2,53.5c0,0.3,0,0.4,0,0.6c0,0,0-0.1,0-0.1h0.1
		C96.2,54,96.2,53.7,96.2,53.5z"/>
	<path fill="#FFAF3A" d="M87.3,59.4c0.2-0.7,0.6-1.3,1-1.8c-0.3,0.4-0.6,0.8-0.9,1.3C87.3,59,87.3,59.1,87.3,59.4z"/>
	<path fill="#FFAF3A" d="M89.2,56.5c-0.1,0-0.1,0-0.2,0c-0.2,0.3-0.3,0.6-0.5,0.8C88.7,57,89,56.7,89.2,56.5z"/>
	<path fill="none" stroke="#FFAF3A" stroke-width="0" stroke-linecap="round" stroke-linejoin="round" d="M99.4,52.4
		C99.4,52.4,99.4,52.4,99.4,52.4"/>
	<path fill="#FFAF3A" d="M99.5,52.3C99.6,52.3,99.6,52.3,99.5,52.3c0,0-0.1,0-0.2,0.1C99.4,52.4,99.5,52.4,99.5,52.3z"/>
	<path fill="#FFAF3A" d="M99.7,52.3C99.7,52.3,99.7,52.3,99.7,52.3C99.7,52.2,99.7,52.2,99.7,52.3C99.7,52.3,99.7,52.3,99.7,52.3z"
		/>
	<path fill="#FFAF3A" d="M98.3,53.7c0,0.2-0.1,0.3-0.1,0.5c0,0,0,0.1,0,0.1h0.1c0,0,0-0.1,0-0.1c0,0,0,0,0,0c0,0,0,0,0,0
		C98.3,54,98.3,53.9,98.3,53.7c0.1,0,0.1-0.1,0.1-0.1c0-0.2,0.1-0.3,0.2-0.5c0,0,0.1-0.1,0.1-0.1c0.1-0.1,0.2-0.3,0.3-0.4
		c0,0,0.1-0.1,0.1-0.1c0.1-0.1,0.1-0.1,0.2-0.1C98.8,52.7,98.4,53.1,98.3,53.7z"/>
	<path fill="#FFAF3A" d="M99.7,52.2C99.8,52.2,99.8,52.2,99.7,52.2C99.8,52.2,99.7,52.2,99.7,52.2C99.7,52.2,99.7,52.2,99.7,52.2z"
		/>
	<path fill="#FFAF3A" d="M101.5,67.9c0,0.1,0,0.1-0.1,0.1c0.2,0,0.3,0,0.4,0C101.8,68,101.7,68,101.5,67.9l4.2-1.8
		c0.3,0.6,0.5,1.9,0.6,1.9c0.7,0,1.4,0,2.1,0c-0.1-1-0.4-2-0.8-2.9L101.5,67.9z"/>
	<path fill="#FFC818" enable-background="new    " d="M122.2,56.1c0.1,0.2,0.1,0.5,0.2,0.7l0.3-0.5L122.2,56.1z"/>
	<path fill="#FFC818" enable-background="new    " d="M117.9,56c0,0-0.6,0-1.6,0c0,0,0,0,0,0c-0.2,0-0.3,0-0.5,0c-2.3,0-6,0-9.3,0
		c1.3,2,2.1,3,2.6,4.2c1.4,1.7,2.4,3.6,3,5.7c0,0,0,0.1,0,0.1c0,0,0,0,0,0c0.1,1,0.2,1.1,0.3,1.5c0,0.2,0.1,0.5,0.1,0.5
		c2,0,3.6,0,4.5,0c0,0,0,0.1,0,0.1l1.9-7.3C118.8,59.2,118.5,57.5,117.9,56C118,56,117.9,56,117.9,56z"/>
	<path fill="#FFAF3A" d="M34,74.8c0.5-0.1,0.9-0.3,1.4-0.4c0.1-0.3,0.2-0.7,0.2-0.9c0.1-0.3,0.1-0.8,0.1-1.3c0-0.1,0-0.3,0-0.4
		c0-0.7-0.2-1.5-0.7-2.1c-0.1,0-0.2,0.1-0.2,0.1c0.2,0.2,0.3,0.4,0.4,0.6C35.9,71.7,34.9,73.6,34,74.8z"/>
	<path fill="#FFAF3A" d="M22.7,80.2c-0.2,0-0.6,0.1-0.8,0.1l0.1-0.2v0.3c-1-0.1-1.2-0.3-1.9-0.3c0,0,0,0,0,0c0,0-0.1,0.2-0.1,0.4
		c0,0.1,0,0.1,0,0.1c0,0.4,0.2,0.7,0.4,1c0.1,0.1,0.2,0.2,0.3,0.4C21.3,81.3,22,80.7,22.7,80.2z"/>
	<path fill="#FFC818" enable-background="new    " d="M32.8,75.1c0.4-0.1,0.8-0.2,1.2-0.4c0.8-1.2,1.9-3.1,1.3-4.4
		c-0.1-0.2-0.3-0.4-0.4-0.6c-0.5,0.3-1.1,0.7-1.6,1.1C33.7,70.5,34.3,72.7,32.8,75.1z"/>
	<path fill="#FFC818" enable-background="new    " d="M98.2,80.2c0.6,0,1.1,0,1.7-0.1c0.1-0.9,0.2-1.8,0.3-2.7
		c0.5-0.1,0.9-0.3,1.3-0.5c-0.4-0.1-0.8-0.2-1.2-0.4c0.1-0.7,0.2-1.3,0.3-1.9c-1.3-0.5-2.2-1.6-2.9-1.6h0c-2.6,2-6.1,2.1-8.6,1.8
		C90.8,78.1,94.2,80.2,98.2,80.2z"/>
	<path fill="#FFC818" enable-background="new    " d="M88.5,65.9C88.2,66.6,88.1,68,88,68c2.2,0,4.6,0,7.2,0L88.5,65.9z"/>
	<path fill="#FFC818" enable-background="new    " d="M100.8,68.4c0.2,0,0.4,0,0.6,0c0-0.1,0-0.2,0.1-0.3L100.8,68.4z"/>
	<path fill="#FFC818" enable-background="new    " d="M84,68c0.2-2,1.3-4.4,2.5-6.3c0.1-0.3-0.5-0.4,0.5-0.7c0,0,0,0,0,0
		c0-0.5,0.1-1,0.3-1.5c0-0.3,0-0.5,0.1-0.5c0.3-0.5,0.6-0.9,0.9-1.3c0.1-0.1,0.2-0.5,0.3-0.6c0.2-0.2,0.3,0,0.5-1c-2.7,0-5.9,0-8,0
		H81c-1.4,0-2.3,0-2.3,0c-0.1,0-0.2,0.1-0.3,0.1c-0.6,1.8-0.9,3.5-0.9,5.4c0,2.2,0.5,4.5,1.3,6.5C79.4,68,81.3,68,84,68z"/>
	<path fill="#007045" enable-background="new    " d="M29.2,99.7c-0.1-1-0.1-1.9-0.1-2.8c0-1.1,0.1-2.2,0.2-3.2
		c0.2-1.5,0.4-2.9,0.8-4.2c0,0,0,0,0-0.1c-4,11.6-11.9,13.8-12.3,6.8c-0.4-6.7,8.1-14.9,19.6-17.9c4.6-3.4,9.9-4.5,13.2-4.7
		c4.3-3.6,3.8-8.2,0.2-10.1c-7.8-4.2-19.1,5.1-19.1,5.1c-4-0.2-6.7,0.7-8.4,2.1c-0.8,0.6-1.4,1.3-1.9,2c-0.1,0.1-0.2,0.3-0.3,0.4
		C20,75.1,20,77.2,20,77.3c0,0,3.1-6.9,11.2-7.8c0,0,0.3,1.5,2,1.6c0-0.1,0.1-0.2,0.1-0.3c0.5-0.4,1.1-0.8,1.6-1.1
		c0.1,0,0.2-0.1,0.2-0.1c11.4-7.1,23.8-0.3,2.8,4.1c-0.9,0.2-1.7,0.4-2.5,0.6c-0.5,0.1-1,0.3-1.4,0.4c-0.4,0.1-0.8,0.2-1.2,0.4
		c-1.3,2.1-4.1,4.4-10.1,5c-0.7,0.5-1.4,1.1-2,1.6c-9.8,8.7-8.8,20.6-1.3,22.3c0.9,0.2,1.7,0.3,2.4,0.3c0,0,0,0,0.1,0
		C25.1,104.2,27.5,102.2,29.2,99.7z"/>
	<path fill="#007045" d="M125.2,48h-2.1c-0.1-1-0.2-1-0.3-1.5l2.1-0.2l6.6-0.4c-3.3-8.9-9.1-10.4-9.1-10.4l-6.6,3l-6.2,2.8
		c-0.4-0.2-0.8-0.4-1.2-0.6l3.9-2.1l8.7-4.7c-7.3-6.2-13.1-5.1-13.1-5.1l-5.2,8.1l-1.2,1.9c-0.2,0-0.5-0.1-0.7-0.1l1-2l3.8-7.9
		c-5.1-2-7.9-0.4-7.9-0.4s-2.9-1.5-8,0.4l3.9,8l1,2c-0.2,0-0.5,0.1-0.7,0.1L92.7,37l-5.3-8.2c0,0-5.8-1.1-13.1,5.1l6.9,3.7l3,1.6
		c-0.8,0-1.5,0.1-2.2,0.3l-2.6-1.2L73,35.4c0,0-5.8,1.5-9.1,10.4l9.9,0.6l2.1,0.2c-0.1,0.4-0.1,0.3-0.1,1.3h-2.1H62.8
		c0,0-4.2,5.5-2.7,13.2L72,56.6l2.4-0.9c-0.1,0.5-0.3,1-0.4,1.4l-2.3,1l-11.4,5.2c0,0-0.2,3.7,1.4,8.3c0.2,0.7,0.5,1.4,0.8,2.4h-8.7
		c-0.1,0-1.3-0.4-3.2-0.2c-3.3,0.3-8.7,1.1-13.2,4.6c-0.1,0.1-0.3,0.2-0.4,0.3c-0.5,0.4-1.1,0.8-1.6,1.4c-0.3,0.3-0.5,0.6-0.8,0.8
		c-2.1,2.4-3.6,5.2-4.5,8.5c0,0,0,0,0,0c-0.4,1.3-0.6,2.7-0.8,4.2c-0.1,1,0.2,2.1,0.2,3.2c0,0.9,0.5,1.8,0.5,2.8c0,0,0,0,0,0
		c0,0-0.2,0-0.2,0c-0.1,0-0.3,0.1-0.3,0.1c0,0,0,0.1,0,0.1c0,0.4-0.1,0.7-0.1,1.1c0,0.7,0,1.2-0.1,1.8c-0.1,4.9-1.4,5.6-1.4,5.6
		l0.2,0c0,0,0,0,0,0c-0.1,0-0.3,0-0.5,0c-0.5,0-1,0.2-1.4,0.4c-0.2,0.2-0.6,0.4-0.7,0.6c-0.2,0.3-0.6,0.6-0.6,0.9v1.2v1.6v9.9
		c0,1.1,1.4,2,2.5,2h16.9c1,0,1.9-0.8,2-1.8c0-0.3,0.1-0.7,0.1-1.1c0-1.9-0.5-4.4-2.2-6.2c-0.2-0.2-0.5-0.5-0.8-0.7c0,0,0,0,0-0.1
		c1.1-2.2,3.7-6.7,4.5-8.3c0.2,0,0.5,0.1,0.9,0.1c0.3,0,0.8,0.1,1.1,0.1c6.7,0.9,29,3.7,32,4c0,1.7,0,3.6,0,4.6c-2,1.2-4,3.5-4,7.1
		c0,0,0,0,0,0c0,0.1,0.2,0.2,0.2,0.3c0.1,0.2,0.2,0.6,0.3,0.8c0.1,1.1,1.2,2.1,2.3,2.1h30.9c0.8,0,1.5-0.7,1.8-1.4
		c0-0.1,0.6-1.3,0.6-2.9c0-0.1,0-0.2,0-0.2c0,0,0,0,0,0c0-1.6-1-3.7-2-5.6c0-1.3,0-18.1,0-21.8c0-0.5,0.9-0.8,0.9-0.8L107,80.8l0,0
		l-0.1-0.1c0.4-0.3,0.8-0.6,1.1-1c0,0,0,0,0,0c0,0,0,0.1,0,0.1c2.1,4.3,6.6,13.1,6.4,12.8c0.1,0,0.1,0,0.2-0.1
		C124.3,89.4,128,82,128,82l-8-7.5l-1.7-1.5h2l0.2-0.7c0.4,0.4,0.8,0.8,1.3,1.2c0,0.1,0.1,0.1,0.1,0.1c3.3,3.3,6.9,7,6.8,6.7
		c6.9-8,6.4-16.9,6.4-16.9l-10.3-4.7l-2.3-1c-0.1-0.3-0.1-0.5-0.2-0.8c-0.1-0.2-0.1-0.5-0.2-0.7l0.5,0.2l1.8,0.7l10.8,4.2
		c1.6-7.8-2.7-13.2-2.7-13.2H125.2z M81.3,51.8c2.4-3.9,5.3-5.8,7.3-6.7l3.6-1.7c1.9-0.5,3.9-0.9,6-0.9c7.6,0,14.3,4.5,17.9,9.5h-2
		H114h-0.5h-13.2c-0.2,0-0.4,0.1-0.6,0.2c0,0,0,0,0,0c0,0,0,0,0,0c0,0,0,0-0.1,0c0,0,0,0-0.1,0c0,0-0.1,0-0.1,0
		c-0.1,0.1-0.3,0.1-0.4,0.2c0,0-0.1,0.1-0.1,0.1c-0.1,0.1-0.2,0.2-0.3,0.4c0,0-0.1,0.1-0.1,0.1c-0.1,0.2-0.2,0.3-0.2,0.5
		c0,0,0,0,0,0.1c0,0.2-0.1,0.3-0.1,0.5c0,0,0,0,0,0c0,0,0,0,0,0.1c0,0.7,0.4,1.4,1.1,1.7c3.8,1.9,5.3,4.6,6,6.2c0,0,0,0,0,0
		c0,0,0,0,0,0c-0.4,0.2-0.8-0.2-1.2,0.5c-0.1,0.1-0.1,0.4-0.2,0.4H90.3c0,0-0.1-0.2-0.1-0.2c0,0,0,0,0,0c0,0,0,0,0,0
		c0.2-0.7,0.5-1.3,0.9-2c1.6-2.8,4.3-4.8,4.3-4.8c0.5-0.4,0.8-1,0.9-1.6c0,0,0-0.2,0-0.2c0,0,0-0.2,0-0.2h0c0,0,0,0.1,0,0.1
		c0-0.2,0-0.5-0.1-0.6c-0.3-0.8-1-1.5-1.9-1.5H83.6c0,0,0,0-0.1,0h-2.5L81.3,51.8z M97.6,73L97.6,73c0.8,0,1.7,1.1,3,1.6
		c1.6,0.6,3.7,1,6.3,0.8c-1.5,2.5-4.1,4.2-7,4.7c-0.6,0.1-1.1,0.1-1.7,0.1c-4,0-7.4-2.1-9.1-5.4C91.6,75.1,95,75,97.6,73z M88,68
		c0.1,0,0.3-1.4,0.5-2.1l6.7,2.1C92.6,68,90.2,68,88,68z M78.4,56.1c0.1,0,0.2-0.1,0.3-0.1c0,0,0.9,0,2.3,0h0.1c2.1,0,5.2,0,8,0
		c0.1,0,0.1,0,0.2,0c-0.2,1-0.5,0.7-0.7,1c-0.1,0.1-0.2,0.4-0.3,0.5c-0.4,0.5-0.7,1.2-1,1.9C87.1,59.9,87,60.4,87,61c0,0,0,0,0,0
		c-1,0.3-0.5,0.4-0.5,0.7C85.2,63.6,84.2,66,84,68c-2.7,0-4.6,0-5.1,0c-0.8-2-1.3-4.3-1.3-6.5C77.5,59.6,77.8,57.9,78.4,56.1z
		 M108,96.2v20.5c0,0.6,0.1,0.9,0.5,1.3c1.4,1.2,1.5,2.1,1.5,3.1c-1.3,0-6,0-12,0v-20c0-0.6-0.4-1.2-1-1.2s-1,0.5-1,1.2v20
		c-6,0-11.5,0-13.2,0c0.3-2,1.8-2.9,1.9-3c0.6-0.4,1.3-0.7,1.3-1.4v-7.3c0-0.3-1-0.5-1-0.8v-4.2c0,0-4.6-3.4-5.2-7.4
		c-0.2-1.2-0.8-1-1.2-1h0.1c0,0-0.4,0.8-0.6,1.7c-0.2,1.2-0.1,3.1,0.6,4.8c0.1,0.1,0.1,0.3,0.2,0.5c0.1,0.2,0.2,0.4,0.4,0.6
		c0,0,0,0.1,0.1,0.1c0.4,0.6,1,1.2,1.7,1.8c0,0,0,0,0,0c0,0,0,0,0,0c0,0,0,0,0.1,0.1c0,0,0,0.1,0,0.1c0.1,0.3,0.1,0.8,0.1,1.3
		l-1.4-0.2l-11-1.4l-19.4-2.4l-0.1,0c0,0,0,0,0,0c0,0,0,0,0,0l0,0c0,0,0,0,0-0.1l-0.1,0c0,0,0,0,0,0l-0.1,0c3.3-9.5-3-12.8-2.6-7.9
		c0.3,3.4-0.9,7-1.9,9.3L39.1,115c-0.2,0.3-0.2,0.6-0.2,0.9c0,0.3,0.1,0.5,0.2,0.8c0.2,0.6,0.7,1,1.3,1.2c1.5,0.5,2,2.1,2.2,3.1
		c-2.7,0-10.5,0-12.5,0c0-3,0-7,0-9.1c0-0.1,0.4-0.3,0.7-0.5c1.9-1.5,2.7-4.6,2.7-9.4c0-0.8-0.1-1.6-0.1-2.5
		c-0.1-0.8-0.1-1.6-0.1-2.4c0-6.2,1.7-11,5-14.4c6-6,15.4-5.4,15.5-5.4l11,0c0.4,0.7,0.9,1.3,1.5,2c0.1,0.1,0.2,0.2,0.3,0.4
		c0.1,0.1,0.2,0.3,0.3,0.4c-0.2,0.3,5.4-5,8.9-8.6l0.5,1.4h1l-9.7,9.1c0,0,3.8,7.6,13.5,10.7c-0.2,0.4,4.8-9.6,6.7-13.6
		c0.3,0.4,0.7,0.7,1.1,1l-6.1,13.1c0,0,5.6,4.9,15.2,4.5C102,97.9,105,97.1,108,96.2z M106.3,68c-1.4,0-2.9,0-4.3,0
		c-0.1,0-0.3,0-0.4,0c-0.2,0-0.4,0-0.6,0l0.7-0.1l6-2.7c0.4,0.9,0.7,1.9,0.8,2.9C107.7,68,107,68,106.3,68z M116.9,68.1
		c0,0,0-0.1,0-0.1c-0.9,0-2.5,0-4.5,0c0,0-0.1,0-0.1,0c-0.3-3-1.5-5.8-3.3-7.9c-0.5-1.2-1.3-2.1-2.7-4.1c0.1,0,0.1,0,0.2,0
		c3.3,0,7.1,0,9.3,0c0.2,0,0.3,0,0.5,0c0,0,0,0,0,0c1,0,1.6,0,1.6,0c0,0,0,0.1,0,0.1c0.5,1.5,0.8,3,0.9,4.6L116.9,68.1z"/>
	<path fill="#007045" d="M22.1,80.3c0.2,0,0.5,0,0.7-0.1c6-0.7,8.8-2.9,10.1-5c1.4-2.4,0.8-4.6,0.5-4.2c0,0.1-0.1,0.2-0.1,0.3
		c-1.7-0.1-2-1.6-2-1.6C23.1,70.5,20,77.3,20,77.3l-0.2,0.2c1.2,0.3,2.4,0.5,3.5,0.5c0,0,0,0,0,0c0.4,0,0.7,0,1,0h0l0,0l-2,2l0,0
		L22.1,80.3z"/>
	<path fill="#FFFFFE" d="M49.3,103.1C49.3,103.1,49.3,103.1,49.3,103.1L49.3,103.1C49.3,103.1,49.3,103.1,49.3,103.1z"/>
</g>
</svg>
