<?xml version="1.0" encoding="utf-8"?>
<!-- Generator: Adobe Illustrator 18.1.0, SVG Export Plug-In . SVG Version: 6.00 Build 0)  -->
<svg version="1.1" id="Layer_1" xmlns="http://www.w3.org/2000/svg" xmlns:xlink="http://www.w3.org/1999/xlink" x="0px" y="0px"
	 viewBox="0 0 2000 2000" enable-background="new 0 0 2000 2000" xml:space="preserve">
<g>
	<path fill="none" d="M524.7,531H551c-13.7-24-26.8-48.3-36.4-63.8C498.8,441.5,497.3,470,524.7,531z"/>
	<path fill="#6CAB36" d="M1526.6,661.5c0,0.4,0,0.8,0,1.3c0.1-2,0.3-4.1,0.4-6.1C1526.8,658.3,1526.7,659.9,1526.6,661.5z"/>
	<path fill="#6CAB36" d="M1527.8,623c0,0.7-0.1,1.4-0.1,2.2c0,0.6,0,1.3,0,1.9C1527.7,625.7,1527.8,624.3,1527.8,623z"/>
	<path fill="#6CAB36" d="M1707.9,531.2c0-152.9-123.9-276.8-276.8-276.8c-152.8,0-276.8,123.7-276.8,276.5c0,0.1,0,0.1,0,0.1h330.2
		l131.1-7.2c4.7,76.2-45.1,129.2-45.1,129.2l-42.9-43.4c0.1,3.7,0.1,7.5,0.1,11.1l39.6,41.7c-15,14-29.6,24.3-43.3,32.1
		c0.1-1.3,0.2-2.6,0.3-3.8c-0.4,4.2-0.9,8.3-1.3,12.4c-0.6,5.6-1.3,11.2-2.1,16.8c-1.3,9.4-2.8,18.8-4.4,28.1
		c-1.1,6.1-2.3,12.1-3.6,18.2c-1.2,5.7-2.4,11.3-3.8,16.8c-1.1,4.8-2,9.7-3.2,14.4C1622.4,764.7,1707.9,658,1707.9,531.2z
		 M1240.8,519.4c-1.6-70,46.7-119.8,46.7-119.8l143.7,131.6L1240.8,519.4z M1429.8,525.7l-125.8-136.4c0,0,34.5-37.4,106.4-49.4
		l22.5,190.3L1429.8,525.7z M1427.4,337.4c0,0,66.9-7.8,115.1,37.3l-102.7,150.9L1427.4,337.4z M1453.9,525.6l98-140
		c0,0,63.8,62.2,60.7,126L1453.9,525.6z"/>
	<path fill="#DDDDDD" d="M1431.1,807.4c-152.6,0-276.3-121.4-276.7-276.4h320.4h9.8h-330.2H579.2c28.5,83,37.2,123.1,37.2,123.1
		S582.4,589,551,531h-26.4c27.2,62,82.8,155.2,181.3,262.4c0,0-166.2-127.4-248.2-262.4h-40.1c-3.8,26-5.8,60-5.8,90.8
		c0,333.7,229.5,604.2,512.6,604.2h22.4L923,1594.4c-158.6,12.8-279.2,77.7-279.2,155.6c0,87.1,150.8,157.8,336.8,157.8
		c186,0,336.8-70.5,336.8-157.6c0-80.6-129.1-147.7-295.7-157.1l-22.3-344c-1.7,0.6-15,6.7-12.1,38.7c3.1,34.2,28,466.6,28,466.6
		s-3.1,17.1-17.1,17.1c-14,0-17.6-21.3-17.6-21.3l-7.3-471.8c0,0-1.5-26,26.1-29.3l-1.5-23.1h17.3c231.2,0,426.6-180.6,490.5-428.4
		C1481.9,804.2,1457,807.4,1431.1,807.4z M862.8,1826c-42,2.6-68.2-20.9-55.1-39.2c13.1-18.3,55.1-7.9,73.4,5.2
		C881.1,1792,904.7,1823.4,862.8,1826z M1034.4,1785.5c47.7-27,22.8-70.5,22.8-70.5s141,8.3,130.7,74.7
		c-10.4,66.4-282,66.4-240.6,8.3C947.3,1798,986.7,1812.5,1034.4,1785.5z M1279.8,1060.5c-111.1,114.7-292,141.5-345.7,137.9
		c0,0,230.7-26,322.1-141.4c-114.7,82.2-322.9,141.4-517.3,48.2C477.3,979.9,470.1,657.5,470.1,657.5
		c143.3,290.2,634.2,232.9,648.5,182.7c14.3-50.2-258-78.8-258-78.8c-30.4,1.8,195.3-34,361.9,5.4
		C1389.1,806.2,1390.9,945.9,1279.8,1060.5z"/>
	<path fill="#DDDDDD" d="M1527.6,609.3c0.1,3.8,0.2,7.6,0.2,11.5l0,0c0-3.7,0-7.4-0.1-11.1l-0.1-0.1
		C1527.6,609.5,1527.6,609.4,1527.6,609.3z"/>
	<path fill="#DDDDDD" d="M1513,766.1c-1.2,5.7-2.5,11.3-3.8,16.8C1510.6,777.4,1511.8,771.8,1513,766.1z"/>
	<path fill="#DDDDDD" d="M1521,719.9c-1.3,9.4-2.8,18.8-4.4,28.1C1518.2,738.7,1519.7,729.3,1521,719.9z"/>
	<path fill="#DDDDDD" d="M1525.9,571.2c0-0.6-0.1-1.3-0.2-1.9C1525.8,569.9,1525.8,570.5,1525.9,571.2z"/>
	<path fill="#DDDDDD" d="M1527.7,627c0-0.6,0-1.3,0-1.9c0,12.2-0.5,24.4-1.1,36.4c0.1-1.6,0.2-3.2,0.3-4.8
		C1527.4,646.9,1527.6,637,1527.7,627z"/>
	<path fill="#DDDDDD" d="M1523.1,703.1c0.5-4.1,0.9-8.2,1.3-12.4c0.3-3,0.4-6.1,0.7-9.1C1524.5,688.8,1523.9,695.9,1523.1,703.1z"/>
	<path fill="#CF7046" d="M1222.5,766.7c-166.6-39.4-392.3-3.6-361.9-5.4c0,0,272.3,28.7,258,78.8
		c-14.3,50.2-505.2,107.5-648.5-182.7c0,0,7.2,322.5,268.7,447.9c194.4,93.2,402.6,34,517.3-48.2
		c-91.4,115.3-322.1,141.4-322.1,141.4c53.7,3.6,234.7-23.3,345.7-137.9C1390.9,945.9,1389.1,806.2,1222.5,766.7z"/>
	<path fill="#CF7046" d="M705.9,793.9c-98.5-107.2-154.1-201.3-181.3-262.4c-27.3-61.4-25.8-89.5-10-63.8
		c9.6,15.5,22.7,38.9,36.4,63.8c31.3,57.3,65.4,123.1,65.4,123.1s-8.7-40.2-37.2-123.1c-8.5-24.6-18.6-52.8-30.9-85.1
		c-53.6-140.9-174.6-150.2-127.1,7.2c7.7,25.6,20.5,51.8,36.4,77.8C539.7,665.7,705.9,793.9,705.9,793.9z"/>
	<path fill="#FFC03B" d="M598.1,455.9c-26.9-102.1,0-231.1,32.2-233.8c32.3-2.7,32.3,8.1-2.7,69.9c-34.9,61.8-18.8,77.9-18.8,77.9
		c5.4-56.4,96.7-126.3,91.4-182.7c-5.4-56.4-102.1-77.9-137.1,34.9c-34.9,112.9,29.6,225.7,29.6,225.7L598.1,455.9z"/>
	<path fill="#75A76D" d="M873.8,154.3c23.3,18.7,16.5,25.9-46.2,45.1c-62.7,19.2-62.1,40.3-62.1,40.3c39.5-34.4,145-23.2,177.3-64.4
		c32.2-41.2-18.9-117.1-114-63.6c-95.1,53.4-123.5,170-123.5,170l-1.5,8.8C750.5,205,850.4,135.6,873.8,154.3z"/>
	<path fill="#A9CC87" d="M1513,766.1c1.2-6,2.5-12.1,3.6-18.2c1.7-9.3,3.1-18.7,4.4-28.1c0.8-5.6,1.4-11.2,2.1-16.8
		c0.8-7.1,1.4-14.3,2-21.5c0.5-6.2,1.1-12.5,1.4-18.8c0-0.4,0-0.8,0-1.3c0.7-12.1,1.1-24.2,1.1-36.4c0-0.7,0.1-1.4,0.1-2.2
		s0-1.4,0-2.2l0,0c0-3.8-0.1-7.7-0.2-11.5c-0.3-12.8-0.8-25.5-1.7-38.1c0-0.6-0.1-1.8-0.2-2.4c-0.9-12.5-2.1-23.7-3.7-37.7h-47.3
		h-320.4c0.5,155,124.2,276.4,276.7,276.4c25.9,0,50.8-3.3,74.6-10c0.1,0,0.2,0.1,0.3,0.1c0-0.1,0-0.1,0-0.2
		c1.2-4.7,2.1-9.6,3.2-14.4C1510.5,777.3,1511.8,771.8,1513,766.1z"/>
	<path fill="#D8DBA9" d="M1427.4,337.4l12.4,188.2l102.7-150.9C1494.3,329.6,1427.4,337.4,1427.4,337.4z"/>
	<path fill="#D8DBA9" d="M1551.9,385.6l-98,140l158.7-14C1615.7,447.8,1551.9,385.6,1551.9,385.6z"/>
	<path fill="#D8DBA9" d="M1303.9,389.4l125.8,136.4l3,4.5L1410.3,340C1338.4,351.9,1303.9,389.4,1303.9,389.4z"/>
	<path fill="#D8DBA9" d="M1522,531c1.6,14,2.8,25.2,3.7,37.7c0,0.6,0.1,1.5,0.2,2.2c0.9,12.6,1.5,25.5,1.7,38.3c0,0.1,0,0.3,0,0.4
		l0.1,0.1l42.9,43.4c0,0,49.8-52.9,45.1-129.1l-131.1,7l-9.8,0H1522z"/>
	<path fill="#D8DBA9" d="M1240.8,519.4l190.3,11.8l-143.7-131.6C1287.5,399.6,1239.2,449.4,1240.8,519.4z"/>
	<path fill="#D8DBA9" d="M1527.8,620.8c0,0.7,0,1.4,0,2.2c0,1.4-0.1,2.7-0.1,4.1c-0.1,9.9-0.3,19.8-0.8,29.7c-0.1,2-0.2,4.1-0.4,6.1
		c-0.4,6.3-0.9,12.5-1.4,18.8c-0.3,3-0.4,6.1-0.7,9.1c-0.1,1.3-0.2,2.6-0.3,3.8c13.8-7.8,28.4-18.1,43.3-32.1L1527.8,620.8
		L1527.8,620.8L1527.8,620.8z"/>
	<linearGradient id="SVGID_1_" gradientUnits="userSpaceOnUse" x1="386.0626" y1="1551.2639" x2="966.7654" y2="1265.0593">
		<stop  offset="0" style="stop-color:#FFFFFF"/>
		<stop  offset="1" style="stop-color:#FFFFFF"/>
	</linearGradient>
	<path fill="url(#SVGID_1_)" d="M999.7,1248.9c-0.1,0-0.2,0.1-0.3,0.1l0,0.1C999.5,1249,999.7,1248.9,999.7,1248.9z"/>
</g>
</svg>
