<?xml version="1.0" encoding="utf-8"?>
<!-- Generator: Adobe Illustrator 18.1.0, SVG Export Plug-In . SVG Version: 6.00 Build 0)  -->
<svg version="1.1" id="Layer_1" xmlns="http://www.w3.org/2000/svg" xmlns:xlink="http://www.w3.org/1999/xlink" x="0px" y="0px"
	 viewBox="0 0 150 150" enable-background="new 0 0 150 150" xml:space="preserve">
<g>
	<g>
		<path fill="#F37626" d="M141.3,105.1c0,16-13,29-28.9,29H37.6c-16,0-29-13-29-29V47.7c0-16,13-28.9,29-28.9h74.7
			c16,0,28.9,13,28.9,28.9V105.1z"/>
		<path fill="#E2E3E4" d="M133.5,76c0,29.8-26.2,54-58.5,54c-32.3,0-58.5-24.2-58.5-54c0-29.8,26.2-54,58.5-54
			C107.3,22,133.5,46.1,133.5,76z"/>
	</g>
	<g>
		<path fill="none" d="M83.5,47.8c-4.2,0-7.8,3.4-7.8,7.4c0,4.2,3.5,7.7,7.5,7.7c4.3-0.1,7.7-3.4,7.6-7.5
			C90.9,51.3,87.5,47.8,83.5,47.8z"/>
		<path fill="#0093CA" d="M76.1,28.8c-1.2,0-2.3,0.1-3.4,0.1c10.8,2.3,21.9,6.4,29.8,13.2c0,0-38.7-18.1-60.6,1.6
			c-7.7,8.3-12.4,19.4-12.4,31.7c0,23.8,17.8,43.4,40.9,46.3c-5.9-4.5-10.3-10.6-12.9-18.6c-4.5-13.7-1.6-26.4,7.5-37.7
			c-0.3-0.3-0.4-0.6-0.7-0.7c-5.4-3.1-7-8.2-7.4-13.9c-0.2-2.5-0.7-5-1.1-8.1c3,3.3,6.9,3,10.4,3.9c4.3,1.1,7.3,3.7,7.9,8.2
			c0.4,2.9,0.1,5.8-0.3,8.8c-1.1-4.9-3.7-8.5-8.1-10.9c1,1.2,2,2.4,3,3.6c3.2,3.9,3.6,8.1,1.8,12.8c-1.8,4.6-4,9.3-4.9,14.1
			c-2.4,12.6,2.1,23.1,11.5,31.6c-4-4.5-6.5-9.9-7.4-15.8c-1.5-9.6,0.2-18.4,7.1-25.6c7.9-8.5,25.6-9.3,32,4.8
			c0.8,1.8,1.3,3.6,1.5,5.7c-0.3-0.4-0.7-0.7-1-1.1c-4.6-6.3-11-8.7-18.4-7.8c-7.2,0.9-12.4,5-15.3,11.7
			c-5.5,12.6,0.3,27.9,12.4,33.9c20-5.2,34.8-23.4,34.8-45.1C122.7,49.7,101.9,28.8,76.1,28.8z M83.3,62.9c-4.1,0.1-7.5-3.5-7.5-7.7
			c0-4.1,3.6-7.5,7.8-7.4c4,0,7.4,3.5,7.4,7.6C90.9,59.5,87.5,62.8,83.3,62.9z"/>
	</g>
</g>
</svg>
