<?xml version="1.0" encoding="utf-8"?>
<!-- Generator: Adobe Illustrator 16.0.0, SVG Export Plug-In . SVG Version: 6.00 Build 0)  -->
<!DOCTYPE svg PUBLIC "-//W3C//DTD SVG 1.1//EN" "http://www.w3.org/Graphics/SVG/1.1/DTD/svg11.dtd">
<svg version="1.1" id="Layer_1" xmlns="http://www.w3.org/2000/svg" xmlns:xlink="http://www.w3.org/1999/xlink" x="0px" y="0px"
	 width="100px" height="100px" viewBox="0 0 100 100" enable-background="new 0 0 100 100" xml:space="preserve">
<g>
	<g>
		<path fill="#A6A8AB" d="M47.679,92.649c-0.034-0.049-5.337-5.509-10.701-12.843l0,0c-5.325-7.386-10.867-16.432-10.964-24.719l0,0
			c0-2.79,0.719-5.574,2.466-7.893l0,0c2.264-3.117,5.52-4.551,8.547-4.501l0,0c5.293,0.183,9.805,3.266,12.6,6.157l0,0
			c2.713-2.851,7.097-5.929,12.33-6.112l0,0c2.994-0.045,6.193,1.378,8.458,4.434l0,0l-1.965,1.495l1.981-1.489
			c1.64,2.165,2.309,4.788,2.309,7.429l0,0c-0.104,8.11-5.597,17.244-10.861,24.789l0,0c-5.31,7.495-10.563,13.159-10.601,13.209
			l0,0l-1.783,1.909L47.679,92.649L47.679,92.649z M37.027,47.643c-1.688,0.045-3.05,0.526-4.583,2.508l0,0
			c-1.004,1.355-1.472,2.939-1.478,4.938l0,0c-0.097,5.958,4.847,14.831,10.003,21.807l0,0c3.255,4.451,6.499,8.199,8.448,10.352
			l0,0c1.927-2.225,5.182-6.117,8.426-10.7l0,0c5.126-7.147,10.042-16.183,9.942-21.938l0,0c-0.006-1.86-0.443-3.288-1.308-4.446
			l0,0l0,0c-1.55-1.97-2.9-2.441-4.521-2.48l0,0c-3.793-0.249-9.406,4.666-10.203,6.317l0,0l-2.121,3.631l-2.131-3.626
			c-0.798-1.661-6.3-6.373-10.178-6.373l0,0C37.221,47.631,37.125,47.631,37.027,47.643L37.027,47.643z"/>
	</g>
	<g>
		<path fill="#EC297B" d="M76.969,27.437l2.896-10.706L68.748,8.498V8.249l-0.133,0.128l-0.149-0.128v0.249L57.344,16.73
			l2.901,10.706c-3.665,1.207-6.964,3.183-9.732,5.73c-2.768-2.547-6.068-4.529-9.727-5.736l2.896-10.706L32.563,8.498l0.005-0.249
			l-0.144,0.128L32.28,8.249l0.002,0.249l-11.116,8.227l2.887,10.706C13.375,30.946,5.661,40.989,5.661,52.841
			c0,14.78,11.982,26.767,26.764,26.767c0.553,0,1.099-0.027,1.647-0.061c-0.783-1.113-1.572-2.276-2.35-3.472
			C19.204,75.678,9.195,65.446,9.17,52.841C9.195,40.003,19.583,29.618,32.424,29.59c6.042,0.011,11.539,2.32,15.675,6.101
			c-1.639,1.949-3,4.136-4.03,6.505c1.14,0.521,2.176,1.124,3.095,1.739c0.858-2.049,1.976-3.964,3.349-5.664
			c1.174,1.457,2.17,3.051,2.973,4.761c0.97-0.553,2.038-1.063,3.184-1.478c-0.985-2.12-2.248-4.091-3.731-5.863
			c4.13-3.775,9.632-6.089,15.678-6.095c12.833,0.028,23.217,10.414,23.239,23.245C91.832,65.685,81.448,76.07,68.615,76.098
			c-0.609,0-1.207-0.034-1.805-0.077c-0.72,1.129-1.45,2.225-2.176,3.288c1.296,0.193,2.63,0.299,3.98,0.299
			c14.77,0,26.749-11.979,26.749-26.767C95.364,40.989,87.646,30.946,76.969,27.437z"/>
	</g>
</g>
</svg>
