<?xml version="1.0" encoding="utf-8"?>
<!-- Generator: Adobe Illustrator 18.1.0, SVG Export Plug-In . SVG Version: 6.00 Build 0)  -->
<svg version="1.0" id="Layer_1" xmlns="http://www.w3.org/2000/svg" xmlns:xlink="http://www.w3.org/1999/xlink" x="0px" y="0px"
	 viewBox="0 0 150 150" enable-background="new 0 0 150 150" xml:space="preserve">
<g>
	<path fill="#1A305B" d="M117.3,48.4c0,2.3,1.8,4.2,4.1,4.3c2.3,0,4.2-1.8,4.2-4.1c0.1-2.3-1.8-4.2-4.1-4.2
		C119.2,44.3,117.3,46.1,117.3,48.4z"/>
	<path fill="#1A305B" d="M85.6,78.2c0,2.3,1.8,4.2,4.1,4.2c2.3,0,4.2-1.8,4.2-4.1c0-2.3-1.8-4.2-4.1-4.2
		C87.5,74,85.6,75.9,85.6,78.2z"/>
	<path fill="#1A305B" d="M25.4,74.8c2.3,0,4.3,0.7,6.2,1.8l14.1-11.9c-0.4-1.3-0.7-2.6-0.7-4c0.1-6.9,5.8-12.4,12.8-12.3
		c6.9,0.1,12.4,5.8,12.2,12.7c0,0.5-0.1,0.8-0.1,1.3l11.6,6.5c2.2-2,5.2-3.2,8.4-3.1c2,0,3.8,0.6,5.4,1.4L110,53.4
		c-0.7-1.6-1.1-3.3-1-5.1c0.1-6.9,5.8-12.4,12.7-12.3c0.7,0,1.3,0.1,1.9,0.2c-12.1-9.2-28.9-15-47.6-15c-36.7,0-66.4,22.1-66.4,49.3
		c0,5.3,1.2,10.5,3.3,15.3C13.5,79.5,19,74.6,25.4,74.8z"/>
	<path fill="#5EA74D" d="M142.4,70.6c0-8.9-3.2-17.2-8.7-24.4c0.2,0.8,0.2,1.7,0.2,2.6c-0.1,6.9-5.8,12.4-12.7,12.3
		c-1.9,0-3.8-0.5-5.4-1.4l-14.6,13.7c0.7,1.6,1.1,3.3,1,5.2c-0.1,6.9-5.8,12.4-12.7,12.3c-6.9-0.1-12.4-5.9-12.3-12.7
		c0-0.6,0.1-1.2,0.2-1.7L66.1,70c-2.3,2.1-5.4,3.4-8.8,3.4c-2.4,0-4.6-0.8-6.4-2L37,83.1c0.5,1.4,0.8,2.8,0.8,4.4
		c-0.1,6.8-5.7,12.3-12.5,12.3c-0.1,0-0.2,0-0.2,0c-1,0-2-0.2-3-0.4c12.1,12.5,31.7,20.6,54,20.6c8.8,0,17.2-1.3,24.9-3.6
		c2.6-0.8,28.2,14,28.2,14l-8.3-23.4C134.1,97.9,142.4,85,142.4,70.6z"/>
	<path fill="#1A305B" d="M21.1,87.2c-0.1,2.3,1.8,4.2,4.1,4.3c2.3,0,4.2-1.8,4.2-4.1c0-2.3-1.8-4.2-4.1-4.2
		C23,83,21.1,84.9,21.1,87.2z"/>
	<path fill="#1A305B" d="M53.4,60.8c0,2.3,1.8,4.2,4.1,4.2c2.3,0,4.2-1.8,4.2-4.1c0-2.3-1.8-4.2-4.1-4.2
		C55.3,56.7,53.4,58.5,53.4,60.8z"/>
</g>
</svg>
