<?xml version="1.0" encoding="utf-8"?>
<!-- Generator: Adobe Illustrator 18.1.0, SVG Export Plug-In . SVG Version: 6.00 Build 0)  -->
<svg version="1.0" id="Layer_1" xmlns="http://www.w3.org/2000/svg" xmlns:xlink="http://www.w3.org/1999/xlink" x="0px" y="0px"
	 viewBox="0 0 150 150" enable-background="new 0 0 150 150" xml:space="preserve">
<g>
	<path fill="#49356D" d="M105.3,4.5H83.2c1.9,1.2,3.8,3.4,3.2,8c0,0-0.2,0.5,0.5,0.5c0.8,0,0.9,1.9-0.9,3.2c0,0-0.4,2.2-1.4,3.1
		c0,0-0.7,3.4,0.5,5.2c0,0,0.8,1.9,6.7,2.8c0,0,5.9,0.1,6.6,8L98.6,47c0,0,0.4,6.9,2.7,10.6c0,0,1.3,2.4,1.5,7.8
		c0,0,0.4,4.6,0.9,6.1c0.3,0.8,1.4,2.3,2.3,3.3c1.7,2.1,4.5,6.5,3,7c0,0-1.2,0.1-2.7-3c0,0,0,1.2,1.3,4.6c0.2,0.6,1.3,3.9-0.4,2.7
		c0,0-0.8-0.5-1.8-3.9c0,0,0.5,5.6-0.1,5.9c-0.8,0.4-1.2-0.7-1.6-5.7c0,0-0.4-1.6-0.5,4.5c0,0.3-0.5,1.9-1.1,0.6
		c-0.5-1.1-0.3-4.1-0.3-5.1c0,0-0.7,3.9-1.4,3.9c0,0-0.8,0.9-0.5-3.9c0-0.8-0.2-2.4-0.2-2.9l-0.1-1.8c0,0,0.2-2.1,0.2-3
		c0-0.2-0.8-3.1-2.8-6.1c0,0-4.1-7.3-3.9-12.1c0,0,0.1-4.6-1.6-7.2c0,0-1.2,12.9-0.4,16.6c0,0,3.7,8.9,2.9,15.6
		c-0.6,5-1.8,15.5-2.9,19.7c-0.6,2.2-0.2,7.6-0.7,9c-0.2,0.6-0.1,1.1,0.4,2.5c1.7,4.7,1.5,8-2.7,20.4c0,0-1.3,2.7-0.6,7.7
		c0,0,1.5,3.1,1.5,4.7h16.4c7.7,0,14-6.3,14-14v-113C119.3,10.8,113.1,4.5,105.3,4.5z"/>
	<path fill="#725AA5" d="M70.1,133.1c-4.2-12.4-4.4-15.7-2.7-20.4c0.5-1.4,0.6-1.9,0.4-2.5c-0.5-1.4-0.1-6.8-0.7-9
		c-1.2-4.2-2.3-14.8-2.9-19.7C63.3,74.8,67,65.9,67,65.9c0.8-3.6-0.4-16.6-0.4-16.6c-1.7,2.6-1.6,7.2-1.6,7.2
		c0.3,4.8-3.9,12.1-3.9,12.1c-2,3-2.7,5.9-2.7,6.1c0,0.9,0.2,3,0.2,3l-0.1,1.8c0,0.5-0.3,2.1-0.3,2.9c0.3,4.8-0.5,3.9-0.5,3.9
		c-0.6,0-1.3-3.9-1.3-3.9c0,1,0.2,4-0.3,5.1C55.5,88.8,55,87.3,55,87c-0.2-6.1-0.5-4.5-0.5-4.5c-0.4,5-0.8,6.1-1.6,5.7
		c-0.6-0.3-0.1-5.9-0.1-5.9c-1,3.4-1.8,3.9-1.8,3.9c-1.7,1.2-0.6-2.1-0.4-2.7c1.3-3.5,1.3-4.6,1.3-4.6c-1.6,3.1-2.7,3-2.7,3
		c-1.5-0.5,1.3-4.8,3-7c0.8-1,1.9-2.5,2.3-3.3c0.5-1.4,0.9-6.1,0.9-6.1c0.2-5.5,1.5-7.8,1.5-7.8c2.3-3.7,2.7-10.6,2.7-10.6l0.1-11.6
		c0.8-7.9,6.7-8,6.7-8c5.9-0.9,6.7-2.8,6.7-2.8c1.3-1.8,0.5-5.2,0.5-5.2c-1-0.9-1.4-3.1-1.4-3.1c-1.7-1.3-1.6-3.3-0.8-3.2
		c0.6,0,0.5-0.5,0.5-0.5c-0.6-4.6,1.3-6.8,3.2-8H51.8c-7.7,0-14,6.3-14,14v113c0,7.7,6.3,14,14,14h17.5c0-1.6,1.5-4.7,1.5-4.7
		C71.4,135.8,70.1,133.1,70.1,133.1z"/>
	<path fill="#725AA5" d="M82.9,134.2c0.9-2.3,0.3-8.6,0.1-9.9c-0.3-2.2-0.1-6.1,0.5-9c0.4-2.1-0.7-6.1-1.1-8.6
		c-0.9-5.2-2.6-18.4-2.4-20.9c0,0-0.3,0.3-0.8,0.3l-0.7-0.3c0.2,2.5-1.5,15.7-2.4,20.9c-0.4,2.5-1.6,6.5-1.2,8.6
		c0.6,3,0.7,6.8,0.4,9c-0.2,1.4-0.8,7.6,0.1,9.9c0.5,1.2,1.4,7.3,1.4,7.3c0.7,1.9,1.1,3.1,1.2,3.9h2.3c0.1-0.8,0.5-2,1.2-3.9
		C81.5,141.6,82.4,135.4,82.9,134.2z"/>
</g>
</svg>
