<?xml version="1.0" encoding="utf-8"?>
<!-- Generator: Adobe Illustrator 18.1.0, SVG Export Plug-In . SVG Version: 6.00 Build 0)  -->
<svg version="1.1" id="Layer_1" xmlns="http://www.w3.org/2000/svg" xmlns:xlink="http://www.w3.org/1999/xlink" x="0px" y="0px"
	 viewBox="0 0 150 150" enable-background="new 0 0 150 150" xml:space="preserve">
<g>
	<path fill="none" d="M36.3,30.4v54.1c0.2,0,0.4-0.1,0.6-0.1c2.2-0.4,4.4-0.7,6.6-0.9l-0.7-0.3l0.9,0.3c0.8-0.1,1.6-0.2,2.5-0.2
		l-4.2-1.6l5.3,1.6c1.1-0.1,2.2-0.1,3.4-0.1L44,79.8l7.2,2.8c0.1-0.1,0.1-0.3,0.2-0.4l-8.2-4l8.5,3.3c0.2-0.3,0.3-0.7,0.5-1
		l-6.6-3.9l6.9,3.4c0-0.1,0.1-0.2,0.1-0.3L44.8,75l8.2,4c0.2-0.4,0.4-0.7,0.6-1.1l-6.2-4.4l6.5,3.9c0-0.1,0.1-0.1,0.1-0.2L46.6,72
		l7.8,4.6c0.3-0.4,0.5-0.7,0.8-1.1l-5.8-4.8l6.1,4.3c0,0,0,0,0.1-0.1l-7-5.8l7.4,5.3c0.3-0.4,0.6-0.8,1-1.1l-5.3-5.2l5.4,4.5
		l-6.2-6.1l7,5.8c0.4-0.4,0.8-0.8,1.2-1.2l-4.8-5.6l3.8,3.7l-4.6-5.3l6.5,6.4c0.4-0.4,0.9-0.8,1.4-1.2l-4.3-6l2.3,2.7l-3.1-4.3
		l5.9,6.9c0.5-0.4,1-0.8,1.6-1.1L59.8,61l1.1,1.5L59,59.4l5.4,7.4c0.6-0.4,1.2-0.7,1.8-1.1l-3.3-6.5l0,0L62,57.6l4.7,7.8
		c0.6-0.3,1.2-0.6,1.8-0.9L65.2,56l4.1,8.1c0.6-0.3,1.3-0.5,1.9-0.8l-2.7-8.7l1.3,3.2l-0.5-1.7L72,63c0.6-0.2,1.2-0.4,1.8-0.6
		l-2-8.9l1.6,5l-0.8-3.4l2.2,7c0.6-0.2,1.2-0.3,1.8-0.4l-1.3-9l1.5,6.8l-0.7-5.2l1.6,7.2c0.5-0.1,1.1-0.2,1.6-0.2l-0.5-9.1l1.2,8.5
		l-0.4-6.9l1,7.4c0.5,0,1-0.1,1.5-0.1l0.2-9.1l0.5,9.1c0,0,0.1,0,0.1,0l0.2-7.5l0.4,7.5c0.2,0,0.3,0,0.5,0c0.3,0,0.6,0,0.9,0l1-9.1
		l-0.2,9.1c0.1,0,0.1,0,0.2,0l0.8-7.5l-0.2,7.6c0.4,0,0.8,0.1,1.2,0.1l1.7-8.9l-1,9c0.1,0,0.2,0,0.3,0.1l1.4-7.5l-0.8,7.6
		c0.4,0.1,0.7,0.1,1.1,0.2l2.4-8.8l-1.7,8.9c0.1,0,0.3,0.1,0.4,0.1l2.1-7.5l-1.5,7.6c0.3,0.1,0.6,0.2,1,0.3l3.1-8.5l-2.4,8.8
		c0.2,0.1,0.3,0.1,0.5,0.2l2.7-7.4l-2.1,7.6c0.3,0.1,0.6,0.2,0.8,0.3l3.8-8.3l-3.1,8.5c0.2,0.1,0.4,0.2,0.6,0.3l3.3-7.2l-2.7,7.5
		c0.2,0.1,0.5,0.2,0.7,0.3l4.5-7.9l-3.8,8.3c0.2,0.1,0.4,0.2,0.6,0.3l4-7l-3.4,7.4c0.2,0.1,0.4,0.2,0.6,0.3l5.1-7.5l-4.5,7.9
		c0.2,0.1,0.4,0.3,0.7,0.4l4.6-6.8l-4,7.2c0.2,0.1,0.3,0.2,0.5,0.3l5.7-7.1l-5.1,7.5c0.2,0.2,0.5,0.4,0.7,0.5l5.2-6.5l-4.7,6.9
		c0.1,0.1,0.3,0.2,0.4,0.3l6.3-6.6l-5.7,7.1c0.2,0.2,0.4,0.4,0.7,0.6l5.8-6.1l-5.3,6.6c0.1,0.1,0.2,0.2,0.3,0.3l6.8-6.1l-6.3,6.6
		c0.2,0.2,0.4,0.5,0.6,0.7l6.4-5.7l-5.9,6.3c0.1,0.1,0.2,0.2,0.3,0.3l7.3-5.5L110,74c0.2,0.3,0.4,0.5,0.6,0.8l7-5.3l-6.5,5.9
		c0.1,0.1,0.2,0.2,0.2,0.3l7.7-4.9l-7.2,5.5c0.2,0.3,0.4,0.6,0.5,0.9l7.5-4.8l-7.1,5.4c0.1,0.1,0.1,0.2,0.2,0.3l8-4.2l-7.7,4.9
		c0.2,0.3,0.3,0.6,0.5,0.9l8-4.2l-7.6,4.9c0,0.1,0.1,0.2,0.1,0.3l8.4-3.6l-8,4.2c0,0,0,0.1,0,0.1c0.1,0.3,0.3,0.5,0.4,0.8l8.3-3.6
		l-8,4.2c0,0.1,0.1,0.2,0.1,0.3l8.5-2.9l-8.2,3.5c0.1,0.3,0.3,0.6,0.4,0.9l8.6-2.9l-8.3,3.6c0,0.1,0.1,0.2,0.1,0.3l8.6-2.1l-8.3,2.8
		c0.1,0.3,0.2,0.6,0.3,1l8.8-2.2l-8.6,2.9c0,0.1,0.1,0.2,0.1,0.4l8.6-1.4l-8.4,2.1c0.1,0.3,0.2,0.6,0.2,1l9-1.4l-8.8,2.2
		c0,0.1,0,0.3,0.1,0.4l5-0.4c1.4-0.2,2.9-0.4,4.3-0.7c0.5-0.1,1.1-0.2,1.6-0.3V30.4H36.3z"/>
	<path fill="#86925D" d="M36.3,30.4h92.6v59.5c2.6-0.5,5.3-1,7.9-1.5V22.5H28.4v63.9c2.6-0.8,5.2-1.4,7.9-1.9V30.4z"/>
	<path fill="#86925D" d="M128.9,94.9v30.9H36.3v-23.2c-0.1,0-0.3,0.1-0.4,0.1c-2.5,0.6-5,1.4-7.5,2.2v28.8h108.5v-4V92.1
		C134.2,93.1,131.6,94.1,128.9,94.9z"/>
	<path fill="#86925D" d="M36.3,97.6v-6.3c-2.7,0.3-5.3,0.8-7.9,1.3v8.7c1.9-1.1,3.8-2,5.8-2.9C34.9,98.1,35.6,97.9,36.3,97.6z"/>
	<path fill="#86925D" d="M29.7,102.6c-0.4,0.1-0.9,0.3-1.3,0.4v0.3c0.2-0.1,0.3-0.2,0.5-0.3C29.2,102.9,29.4,102.8,29.7,102.6z"/>
	<path fill="#FFFFFF" d="M60.8,62.5L59.8,61l3.8,6.3c0,0,0.1-0.1,0.1-0.1L60.8,62.5z"/>
	<path fill="#FFFFFF" d="M117.4,91.2l0.5,0c0-0.1,0-0.3-0.1-0.4l8.8-2.2l-9,1.4c-0.1-0.3-0.2-0.6-0.2-1l-0.4,0.1
		C117.2,89.9,117.3,90.5,117.4,91.2z"/>
	<path fill="#FFFFFF" d="M109.9,62.2l-5.2,6.5c0.2,0.1,0.3,0.3,0.5,0.4L109.9,62.2z"/>
	<path fill="#FFFFFF" d="M106.9,60.2l-4.6,6.8c0.2,0.1,0.4,0.3,0.5,0.4L106.9,60.2z"/>
	<path fill="#FFFFFF" d="M115.2,66.9l-6.4,5.7c0.2,0.2,0.3,0.3,0.5,0.5L115.2,66.9z"/>
	<path fill="#FFFFFF" d="M117.6,69.5l-7,5.3c0.2,0.2,0.3,0.4,0.4,0.6L117.6,69.5z"/>
	<path fill="#FFFFFF" d="M119.8,72.4l-7.5,4.8c0.1,0.2,0.3,0.4,0.4,0.6L119.8,72.4z"/>
	<path fill="#FFFFFF" d="M112.7,64.4l-5.8,6.1c0.2,0.2,0.3,0.3,0.5,0.5L112.7,64.4z"/>
	<path fill="#FFFFFF" d="M86.8,53.8L86,61.3c0.2,0,0.4,0,0.6,0.1L86.8,53.8z"/>
	<path fill="#FFFFFF" d="M90.3,54.1l-1.4,7.5c0.2,0,0.4,0.1,0.6,0.1L90.3,54.1z"/>
	<path fill="#FFFFFF" d="M100.6,57l-3.3,7.2c0.2,0.1,0.4,0.2,0.6,0.3L100.6,57z"/>
	<path fill="#FFFFFF" d="M103.8,58.5l-4,7c0.2,0.1,0.4,0.2,0.6,0.3L103.8,58.5z"/>
	<path fill="#FFFFFF" d="M97.3,55.7l-2.7,7.4c0.2,0.1,0.4,0.1,0.6,0.2L97.3,55.7z"/>
	<path fill="#FFFFFF" d="M93.8,54.8l-2.1,7.5c0.2,0.1,0.4,0.1,0.6,0.2L93.8,54.8z"/>
	<path fill="#FFFFFF" d="M59.2,65.8l-2.3-2.7l4.3,6c0.1-0.1,0.1-0.1,0.2-0.2L59.2,65.8z"/>
	<path fill="#FFFFFF" d="M62.8,59.2L62.8,59.2l3.3,6.5c0,0,0,0,0,0L62.8,59.2z"/>
	<path fill="#FFFFFF" d="M57.1,72.4l-5.4-4.5l5.3,5.2c0.1-0.1,0.2-0.3,0.4-0.4L57.1,72.4z"/>
	<path fill="#FFFFFF" d="M58,69.1l-3.8-3.7l4.8,5.6c0.1-0.1,0.2-0.2,0.3-0.3L58,69.1z"/>
	<path fill="#FFFFFF" d="M72,63l-2.7-6.8l0.5,1.7l2.1,5.2C72,63,72,63,72,63z"/>
	<path fill="#FFFFFF" d="M115.4,83c0-0.1-0.1-0.2-0.1-0.3l8-4.2l-8.3,3.6c-0.1-0.3-0.3-0.5-0.4-0.8C114.8,81.9,115.1,82.5,115.4,83
		L115.4,83z"/>
	<path fill="#FFFFFF" d="M116.2,85.7l0.2-0.1c0-0.1-0.1-0.2-0.1-0.3l8.3-3.6l-8.6,2.9c-0.1-0.3-0.3-0.6-0.4-0.9l-0.1,0.1
		C115.8,84.4,116,85.1,116.2,85.7z"/>
	<path fill="#FFFFFF" d="M116.9,88.5l0.4-0.1c0-0.1-0.1-0.2-0.1-0.4l8.6-2.9l-8.8,2.2c-0.1-0.3-0.2-0.6-0.3-1l-0.3,0.1
		C116.6,87.1,116.8,87.8,116.9,88.5z"/>
	<path fill="#FFFFFF" d="M80.7,61.3l-1-7.4l0.4,6.9l0.1,0.5C80.4,61.3,80.5,61.3,80.7,61.3z"/>
	<path fill="#FFFFFF" d="M77.8,61.6l-1.6-7.2l0.7,5.2l0.5,2.1C77.5,61.6,77.6,61.6,77.8,61.6z"/>
	<path fill="#FFFFFF" d="M74.9,62.2l-2.2-7l0.8,3.4l1.1,3.7C74.7,62.2,74.8,62.2,74.9,62.2z"/>
	<path fill="#FFFFFF" d="M121.7,75.4l-8,4.2c0.1,0.2,0.2,0.4,0.3,0.6L121.7,75.4z"/>
	<path fill="#FFFFFF" d="M43.5,83.4c0.1,0,0.1,0,0.2,0l-0.9-0.3L43.5,83.4z"/>
	<path fill="#FFFFFF" d="M44,79.8l6.6,3.2c0.2,0,0.3,0,0.5,0c0-0.1,0.1-0.3,0.1-0.4L44,79.8z"/>
	<path fill="#FFFFFF" d="M83.2,53.7l-0.2,7.5c0.2,0,0.4,0,0.6,0L83.2,53.7z"/>
	<path fill="#FFFFFF" d="M45.6,76.6l6.6,3.9c0.1-0.2,0.2-0.4,0.3-0.6L45.6,76.6z"/>
	<path fill="#FFFFFF" d="M49.4,70.7l5.8,4.8c0.1-0.2,0.2-0.3,0.4-0.5L49.4,70.7z"/>
	<path fill="#FFFFFF" d="M47.4,73.6l6.2,4.4c0.1-0.2,0.2-0.4,0.3-0.5L47.4,73.6z"/>
	<path fill="#F4C921" d="M46.1,83.2c0.4,0,0.7,0,1.1,0l-5.3-1.6L46.1,83.2z"/>
	<path fill="#F4C921" d="M117.4,91.2c-0.1-0.7-0.2-1.4-0.3-2l0.4-0.1l8.4-2.1l-8.6,1.4l-0.4,0.1c-0.1-0.7-0.3-1.4-0.5-2l0.3-0.1
		l8.3-2.8l-8.6,2.1l-0.2,0.1c-0.2-0.7-0.4-1.3-0.7-2l0.1-0.1l8.2-3.5l-8.5,2.9l-0.1,0c-0.2-0.6-0.5-1.2-0.8-1.8c0,0,0-0.1,0-0.1
		l8-4.2l-8.4,3.6c0-0.1-0.1-0.2-0.1-0.3c-0.1-0.2-0.2-0.4-0.3-0.6c-0.2-0.3-0.3-0.6-0.5-0.9l7.7-4.9l-8,4.2
		c-0.1-0.1-0.1-0.2-0.2-0.3c-0.1-0.2-0.3-0.4-0.4-0.6c-0.2-0.3-0.4-0.6-0.5-0.9l7.2-5.5l-7.7,4.9c-0.1-0.1-0.2-0.2-0.2-0.3
		c-0.1-0.2-0.3-0.4-0.4-0.6c-0.2-0.3-0.4-0.5-0.6-0.8l6.8-6.1l-7.3,5.5c-0.1-0.1-0.2-0.2-0.3-0.3c-0.2-0.2-0.3-0.3-0.5-0.5
		c-0.2-0.2-0.4-0.5-0.6-0.7l6.3-6.6l-6.8,6.1c-0.1-0.1-0.2-0.2-0.3-0.3c-0.2-0.2-0.3-0.3-0.5-0.5c-0.2-0.2-0.4-0.4-0.7-0.6l5.7-7.1
		l-6.3,6.6c-0.1-0.1-0.3-0.2-0.4-0.3c-0.2-0.1-0.3-0.3-0.5-0.4c-0.2-0.2-0.4-0.4-0.7-0.5l5.1-7.5l-5.7,7.1c-0.2-0.1-0.3-0.2-0.5-0.3
		c-0.2-0.1-0.4-0.3-0.5-0.4c-0.2-0.1-0.4-0.3-0.7-0.4l4.5-7.9l-5.1,7.5c-0.2-0.1-0.4-0.2-0.6-0.3c-0.2-0.1-0.4-0.2-0.6-0.3
		c-0.2-0.1-0.4-0.2-0.6-0.3l3.8-8.3l-4.5,7.9c-0.2-0.1-0.5-0.2-0.7-0.3c-0.2-0.1-0.4-0.2-0.6-0.3c-0.2-0.1-0.4-0.2-0.6-0.3l3.1-8.5
		L96,63.6c-0.3-0.1-0.6-0.2-0.8-0.3c-0.2-0.1-0.4-0.2-0.6-0.2c-0.2-0.1-0.3-0.1-0.5-0.2l2.4-8.8l-3.1,8.5c-0.3-0.1-0.6-0.2-1-0.3
		c-0.2-0.1-0.4-0.1-0.6-0.2c-0.1,0-0.3-0.1-0.4-0.1l1.7-8.9L90.6,62c-0.4-0.1-0.7-0.1-1.1-0.2c-0.2,0-0.4-0.1-0.6-0.1
		c-0.1,0-0.2,0-0.3-0.1l1-9l-1.7,8.9c-0.4-0.1-0.8-0.1-1.2-0.1c-0.2,0-0.4,0-0.6-0.1c-0.1,0-0.1,0-0.2,0l0.2-9.1l-1,9.1
		c-0.3,0-0.6,0-0.9,0c-0.2,0-0.3,0-0.5,0c-0.2,0-0.4,0-0.6,0c0,0-0.1,0-0.1,0l-0.5-9.1l-0.2,9.1c-0.5,0-1,0-1.5,0.1
		c-0.2,0-0.4,0-0.6,0l-0.1-0.5l-1.2-8.5l0.5,9.1c-0.5,0.1-1.1,0.1-1.6,0.2c-0.1,0-0.3,0-0.4,0.1l-0.5-2.1l-1.5-6.8l1.3,9
		c-0.6,0.1-1.2,0.2-1.8,0.4c-0.1,0-0.2,0-0.3,0.1l-1.1-3.7l-1.6-5l2,8.9c-0.6,0.2-1.2,0.4-1.8,0.6c0,0-0.1,0-0.1,0l-2.1-5.2
		l-1.3-3.2l2.7,8.7c-0.6,0.2-1.3,0.5-1.9,0.8L65.2,56l3.4,8.4c-0.6,0.3-1.2,0.6-1.8,0.9L62,57.6l0.8,1.6l3.3,6.5c0,0,0,0,0,0
		c-0.6,0.3-1.2,0.7-1.8,1.1L59,59.4l1.9,3.1l2.9,4.7c0,0-0.1,0.1-0.1,0.1c-0.5,0.4-1,0.7-1.6,1.1l-5.9-6.9l3.1,4.3l2.2,3.1
		c-0.1,0.1-0.1,0.1-0.2,0.2c-0.5,0.4-0.9,0.8-1.4,1.2l-6.5-6.4l4.6,5.3l1.4,1.6c-0.1,0.1-0.2,0.2-0.3,0.3c-0.4,0.4-0.8,0.8-1.2,1.2
		l-7-5.8l6.2,6.1l0.3,0.3c-0.1,0.1-0.2,0.3-0.4,0.4c-0.3,0.4-0.7,0.8-1,1.1l-7.4-5.3l7,5.8c0,0,0,0-0.1,0.1
		c-0.1,0.2-0.2,0.3-0.4,0.5c-0.3,0.4-0.5,0.7-0.8,1.1L46.6,72l7.4,5.3c0,0.1-0.1,0.1-0.1,0.2c-0.1,0.2-0.2,0.4-0.3,0.5
		c-0.2,0.3-0.4,0.7-0.6,1.1l-8.2-4l7.8,4.6c0,0.1-0.1,0.2-0.1,0.3c-0.1,0.2-0.2,0.4-0.3,0.6c-0.2,0.3-0.3,0.7-0.5,1l-8.5-3.3l8.2,4
		c-0.1,0.1-0.1,0.3-0.2,0.4c0,0.1-0.1,0.3-0.1,0.4c1.6,0,3.2,0,4.7,0.1c3.2,0.2,6.3,0.6,9.5,1.1c3.1,0.6,6.2,1.3,9.3,2.2
		c0.8,0.2,1.5,0.5,2.3,0.7l1.1,0.4L79,88c1.4,0.5,2.8,0.9,4.2,1.3c2.8,0.8,5.7,1.5,8.5,1.9c5.8,1,11.7,1.2,17.6,0.9
		c4.5-0.2,9-0.7,13.6-1.4l-5,0.4L117.4,91.2z"/>
	<path fill="#26A9E0" d="M37.6,89.5c11.8-1.2,23.7,0,35,3.4l2.1,0.7l1,0.3l1.1,0.4c1.5,0.5,3,1,4.6,1.4c3.1,0.8,6.2,1.5,9.4,1.9
		c6.4,0.8,12.8,0.7,19-0.1c6.2-0.8,12.3-2.2,18.2-4.1c3.2-1,6.4-2.2,9.5-3.4c2.6-1,5.2-2.1,7.7-3.4c-2.8,0.6-5.6,1.2-8.5,1.8
		c-2.6,0.5-5.3,1-7.9,1.5c-0.5,0.1-1.1,0.2-1.6,0.3c-1.5,0.2-2.9,0.5-4.3,0.7c-4.5,0.7-9.1,1.2-13.6,1.4c-5.9,0.3-11.9,0.1-17.6-0.9
		c-2.9-0.5-5.7-1.1-8.5-1.9c-1.4-0.4-2.8-0.8-4.2-1.3l-1.1-0.4l-1.1-0.4c-0.7-0.3-1.5-0.5-2.3-0.7c-3.1-0.9-6.1-1.7-9.3-2.2
		c-3.1-0.5-6.3-1-9.5-1.1c-1.6-0.1-3.2-0.1-4.7-0.1c-0.2,0-0.3,0-0.5,0c-1.1,0-2.3,0-3.4,0.1c-0.4,0-0.8,0-1.1,0
		c-0.8,0.1-1.7,0.2-2.5,0.2c-0.1,0-0.1,0-0.2,0c-2.2,0.2-4.4,0.5-6.6,0.9c-0.2,0-0.4,0.1-0.6,0.1c-2.7,0.5-5.3,1.2-7.9,1.9
		c-3.2,1-6.4,2.1-9.5,3.5c-2.9,1.3-5.6,2.7-8.3,4.3c-2.7,1.6-5.2,3.4-7.5,5.4c2.6-1.3,5.3-2.5,7.9-3.6c3-1.2,6-2.2,9-3.1
		C25.8,91.2,31.7,90.1,37.6,89.5z"/>
	<path fill="#26A9E0" d="M35.1,101.1c4.2-1,8.5-1.7,12.8-2c8.6-0.5,17.1,0.6,25.2,3.4l1.5,0.5l1.5,0.6c1.1,0.4,2.2,0.8,3.3,1.1
		c2.2,0.7,4.6,1.2,6.9,1.6c4.6,0.7,9.3,0.8,13.9,0.3c4.6-0.5,9.1-1.4,13.4-2.7c2-0.6,4-1.3,6-2c2.2-0.8,4.5-1.7,6.6-2.7
		c-8.9,1.4-17.6,2.8-26.3,2.9c-4.3,0-8.6-0.3-12.7-1.1c-2.1-0.4-4.1-1-6.1-1.6c-1-0.3-2-0.7-3-1.1l-1.6-0.6
		c-0.5-0.2-1.1-0.4-1.7-0.6c-2.2-0.7-4.4-1.4-6.7-1.8c-2.3-0.5-4.6-0.8-6.9-1c-4.6-0.4-9.3-0.3-13.9,0.5c-3.8,0.6-7.5,1.6-11.1,2.9
		c-0.7,0.3-1.4,0.5-2.1,0.8c-2,0.8-3.9,1.8-5.8,2.9c-0.1,0.1-0.2,0.1-0.3,0.2c-2,1.1-3.9,2.4-5.6,3.9c1.9-0.9,3.9-1.6,5.9-2.3
		c0.4-0.2,0.9-0.3,1.3-0.4C31.5,102,33.3,101.5,35.1,101.1z"/>
</g>
</svg>
