<?xml version="1.0" encoding="utf-8"?>
<!-- Generator: Adobe Illustrator 18.1.0, SVG Export Plug-In . SVG Version: 6.00 Build 0)  -->
<svg version="1.0" id="Layer_1" xmlns="http://www.w3.org/2000/svg" xmlns:xlink="http://www.w3.org/1999/xlink" x="0px" y="0px"
	 viewBox="0 0 150 150" enable-background="new 0 0 150 150" xml:space="preserve">
<g>
	<path fill="#BEDA7E" d="M48.6,118.8c8.2,4.8,17.7,7.5,27.8,7.5c25.4,0,46.7-17.2,53.2-40.5c-14,9.8-37.1,20.2-65.2,28.6
		C59,116,53.8,117.5,48.6,118.8z"/>
	<path fill="#BAD160" d="M102.8,67.7c-8-9.6-42-8.7-81.4,1.1c0,0.8-0.1,1.6-0.1,2.4c0,17.5,8.1,33,20.8,43.1
		C85,98.5,111.7,78.4,102.8,67.7z"/>
	<path fill="#016937" d="M142.7,63.1c-2.3-3-6.8-5.1-13.1-6.4c-2.8-0.6-6-1-9.4-1.2c4.8,1.2,8.3,3,10.3,5.3c0,0,0.1,0.1,0.1,0.1
		c2,2.4,2.2,5.3,0.9,8.5c-5.2,13-35.3,31-77.1,44.8c-2.9,0.9-5.8,1.9-8.6,2.7c-14.6,4.4-28.9,7.8-42,10c13.7-1.5,29-4.2,44.9-8.2
		c5.2-1.3,10.4-2.7,15.7-4.3c28.1-8.4,51.2-18.8,65.2-28.6C142,77.1,147.3,69,142.7,63.1z"/>
	<g>
		<path fill="#FBB251" d="M76.4,16.1c-29.5,0-53.6,23.2-55.1,52.4c4.6-1.4,9.1-2.8,13.6-4l0-1.5c0,0,0,0-0.1,0c0,0-0.1,0-0.1-0.1
			c-0.3-0.1-0.6-0.3-0.9-0.5c-2.3-1.5-3.6-3.3-3.8-5.6c-0.1-1.1,0-2.1,0.4-3.1c0-0.1,0.1-0.3,0.1-0.4v0c0.2-0.4,0.4-0.9,0.7-1.3
			c0-0.1,0.1-0.1,0.1-0.2c0.5-0.6,1-1.2,1.6-1.8c0,0,0,0,0,0c0.1-0.1,0.2-0.2,0.4-0.3c0.5-0.5,1.1-0.9,1.7-1.3c0,0,0,0,0.1,0
			c0,0,0.1,0,0.1,0.1c0.5,0.3,1.1,0.7,1.6,1.2c0.1,0.1,0.3,0.2,0.4,0.3c0,0,0,0,0,0c0,0,0,0,0.1,0c0.2,0.2,0.4,0.4,0.6,0.6
			c0.4,0.4,0.7,0.7,1,1.1c0,0.1,0.1,0.1,0.1,0.2c0.3,0.4,0.5,0.9,0.7,1.3c0,0.1,0.1,0.2,0.1,0.4c0.4,1,0.5,2,0.4,3.1
			c-0.2,2.3-1.5,4.2-3.8,5.6c-0.3,0.2-0.6,0.3-0.8,0.5l0.1,1.3c3.7-1,7.3-1.9,10.9-2.8l0.2-5.8c0,0-0.1,0-0.1,0
			c-0.1,0-0.1-0.1-0.1-0.1c-0.4-0.2-0.8-0.5-1.2-0.7c-3.5-2.2-5.4-5-5.8-8.5c-0.2-1.6,0-3.1,0.6-4.6c0-0.2,0.1-0.4,0.2-0.6v0
			c0.3-0.7,0.6-1.3,1.1-1.9c0.1-0.1,0.1-0.2,0.2-0.4c0.7-0.9,1.5-1.8,2.5-2.7c0,0,0,0,0,0c0,0,0,0,0.1,0c0.2-0.2,0.4-0.4,0.5-0.5
			c0.8-0.7,1.7-1.3,2.6-1.9c0,0,0,0,0.1,0c0.1,0,0.1,0.1,0.2,0.1c0.8,0.5,1.6,1.1,2.4,1.7c0.2,0.1,0.4,0.3,0.6,0.5c0,0,0,0,0,0.1
			c0,0,0,0,0.1,0c0.3,0.3,0.6,0.6,1,0.9c0.5,0.5,1,1.1,1.5,1.7c0,0.1,0.1,0.2,0.2,0.4c0.4,0.6,0.8,1.3,1.1,2
			c0.1,0.2,0.2,0.4,0.2,0.6c0.5,1.5,0.7,3,0.6,4.6c-0.3,3.5-2.2,6.3-5.7,8.5c-0.4,0.2-0.9,0.4-1.2,0.7l0.3,5.5
			c4.2-1,8.4-1.9,12.4-2.7l0.1-4.1c0,0,0,0-0.1,0c0,0-0.1,0-0.1-0.1c-0.3-0.1-0.6-0.3-0.9-0.5c-2.3-1.5-3.6-3.3-3.8-5.6
			c-0.1-1.1,0-2.1,0.4-3.1c0-0.1,0.1-0.3,0.1-0.4v0c0.2-0.4,0.4-0.9,0.7-1.3c0-0.1,0.1-0.1,0.1-0.2c0.5-0.6,1-1.2,1.6-1.8
			c0,0,0,0,0,0c0.1-0.1,0.2-0.2,0.4-0.3c0.5-0.5,1.1-0.9,1.7-1.3c0,0,0,0,0.1,0c0,0,0.1,0,0.1,0.1c0.5,0.3,1.1,0.7,1.6,1.2
			c0.1,0.1,0.3,0.2,0.4,0.3c0,0,0,0,0,0c0,0,0,0,0.1,0c0.2,0.2,0.4,0.4,0.6,0.6c0.4,0.4,0.7,0.7,1,1.1c0,0.1,0.1,0.1,0.1,0.2
			c0.3,0.4,0.5,0.9,0.7,1.3c0,0.1,0.1,0.2,0.1,0.4c0.4,1,0.5,2,0.4,3.1c-0.2,2.3-1.5,4.2-3.8,5.6c-0.3,0.2-0.6,0.3-0.8,0.5l0.2,3.9
			c3.6-0.7,7.1-1.3,10.5-1.8l0.2-7.1c0,0-0.1,0-0.1,0c-0.1,0-0.1-0.1-0.1-0.1c-0.4-0.2-0.9-0.5-1.2-0.7c-3.5-2.2-5.4-5-5.7-8.5
			c-0.2-1.6,0-3.1,0.6-4.6c0-0.2,0.1-0.4,0.2-0.6v0c0.3-0.7,0.6-1.3,1.1-1.9c0.1-0.1,0.1-0.2,0.2-0.4c0.7-0.9,1.5-1.8,2.4-2.7
			c0,0,0,0,0,0c0,0,0,0,0.1,0c0.2-0.2,0.4-0.4,0.5-0.5c0.8-0.7,1.7-1.3,2.6-1.9c0,0,0,0,0.1,0c0.1,0,0.1,0.1,0.2,0.1
			c0.8,0.5,1.6,1.1,2.4,1.7c0.2,0.1,0.4,0.3,0.6,0.5c0,0,0,0,0,0.1c0,0,0,0,0.1,0c0.3,0.3,0.6,0.6,1,0.9c0.5,0.5,1,1.1,1.5,1.7
			c0,0.1,0.1,0.3,0.2,0.4c0.4,0.6,0.8,1.3,1.1,2c0.1,0.2,0.2,0.4,0.2,0.6c0.5,1.5,0.7,3,0.6,4.6c-0.3,3.5-2.2,6.3-5.7,8.5
			c-0.4,0.2-0.9,0.4-1.2,0.7l0.3,6.9c19-2.8,35.1-3,45.4-0.4c3.5,0.3,6.6,0.7,9.4,1.2C123.3,33.3,101.9,16.1,76.4,16.1z M93.8,42.7
			c-0.2,2.3-1.5,4.2-3.8,5.6c-0.3,0.2-0.6,0.3-0.8,0.5l0.2,5.1h-1.3l0.1-5c0,0,0,0-0.1,0c0,0-0.1,0-0.1-0.1
			c-0.3-0.1-0.6-0.3-0.9-0.5c-2.3-1.5-3.6-3.3-3.8-5.6c-0.1-1.1,0-2.1,0.4-3.1c0-0.1,0.1-0.3,0.1-0.4v0c0.2-0.4,0.4-0.9,0.7-1.3
			c0-0.1,0.1-0.1,0.1-0.2c0.5-0.6,1-1.2,1.6-1.8c0,0,0,0,0,0c0.1-0.1,0.3-0.2,0.4-0.3c0.5-0.5,1.1-0.9,1.7-1.3c0,0,0,0,0.1,0
			c0,0,0.1,0,0.1,0.1c0.5,0.3,1.1,0.7,1.6,1.2c0.1,0.1,0.3,0.2,0.4,0.3c0,0,0,0,0,0c0,0,0,0,0.1,0c0.2,0.2,0.4,0.4,0.6,0.6
			c0.4,0.4,0.7,0.7,1,1.1c0,0.1,0.1,0.1,0.1,0.2c0.3,0.4,0.5,0.9,0.7,1.3c0,0.1,0.1,0.2,0.1,0.4C93.8,40.6,94,41.6,93.8,42.7z
			 M112,36.5c-0.3,3.5-2.2,6.3-5.7,8.5c-0.4,0.2-0.9,0.4-1.2,0.7l0.4,7.7h-2l0.3-7.6c0,0-0.1,0-0.1,0c-0.1,0-0.1-0.1-0.1-0.1
			c-0.4-0.2-0.8-0.5-1.2-0.7c-3.5-2.2-5.4-5-5.8-8.5c-0.2-1.6,0-3.1,0.6-4.6c0-0.2,0.1-0.4,0.2-0.6v0c0.3-0.7,0.6-1.3,1.1-1.9
			c0.1-0.1,0.1-0.2,0.2-0.4c0.7-0.9,1.5-1.8,2.4-2.7c0,0,0,0,0,0c0,0,0,0,0.1,0c0.2-0.2,0.4-0.4,0.5-0.5c0.8-0.7,1.7-1.3,2.6-1.9
			c0,0,0,0,0.1,0c0.1,0,0.1,0.1,0.2,0.1c0.8,0.5,1.6,1.1,2.4,1.7c0.2,0.1,0.4,0.3,0.6,0.5c0,0,0,0,0,0.1c0,0,0,0,0.1,0
			c0.3,0.3,0.6,0.6,1,0.9c0.5,0.5,1,1.1,1.5,1.7c0,0.1,0.1,0.2,0.2,0.4c0.4,0.6,0.8,1.3,1.1,2c0.1,0.2,0.2,0.4,0.3,0.6
			C111.9,33.4,112.1,34.9,112,36.5z"/>
	</g>
</g>
</svg>
