<?xml version="1.0" encoding="utf-8"?>
<!-- Generator: Adobe Illustrator 18.1.0, SVG Export Plug-In . SVG Version: 6.00 Build 0)  -->
<svg version="1.0" id="Layer_1" xmlns="http://www.w3.org/2000/svg" xmlns:xlink="http://www.w3.org/1999/xlink" x="0px" y="0px"
	 viewBox="0 0 150 150" enable-background="new 0 0 150 150" xml:space="preserve">
<path fill="#9DD6C9" d="M96,16.4c0,0,0-0.1,0.1-0.1c-0.2,0.2-0.3,0.3-0.5,0.5C95.8,16.7,95.9,16.6,96,16.4z"/>
<g>
	<g>
		<path fill="none" d="M125.1,44.5c-6.9-10.7-17.3-19-29.2-23.4c-6.4-2.4-13.2-3.7-20.1-3.8c-13.7-0.2-27.5,4.5-38.2,13.1
			c-10.4,8.2-17.8,20-20.8,32.9c-3.2,13.2-1.6,27.5,4.3,39.7c7.2,15.4,21.4,27.3,37.8,31.8c15.4,4.4,32.6,2.1,46.3-6
			c14.3-8.2,24.7-22.7,28.2-38.8C136.9,74.5,133.8,57.8,125.1,44.5z"/>
		<path fill="#494949" d="M142.7,76.7c-0.1-15.4-5.6-30.6-15.4-42.5c-7.8-9.5-18.2-16.7-29.7-20.8C79.7,7,59.2,8.6,42.6,17.8
			C29.8,24.7,19.4,36,13.4,49.3C7.1,63,5.6,78.8,9.3,93.4c3.8,15.7,13.5,30,26.9,39.2c13.2,9.3,29.7,13.6,45.8,11.9
			c15.8-1.6,30.9-8.9,41.9-20.4C135.9,111.5,142.9,94.2,142.7,76.7z M105.2,128.8c-13.8,8.1-30.9,10.4-46.3,6
			c-16.4-4.5-30.6-16.4-37.8-31.8c-5.9-12.2-7.5-26.5-4.3-39.7c3-12.9,10.5-24.6,20.8-32.9c10.7-8.6,24.5-13.3,38.2-13.1
			c6.8,0.1,13.7,1.4,20.1,3.8c11.9,4.4,22.3,12.7,29.2,23.4c8.7,13.2,11.8,30,8.3,45.4C130,106.1,119.5,120.5,105.2,128.8z"/>
	</g>
	<path fill="#A18AA8" d="M77.9,68.7l-8.5-35c0,0,8.4-5.5,15.3,0.6c0,0,9-2.7,14.7,5.2c0,0,9.9,2.6,12.2,15
		c1.9,10.5-0.4,14.3-0.4,14.3H77.9z"/>
	<path fill="#A18AA8" d="M110.2,69.4c0,16.9-15.8,30.9-35.3,30.9c-19.5,0-35.3-14-35.3-30.9H110.2z"/>
	<path fill="#A18AA8" d="M56.4,94.5c-7.6,0-13.8,6.2-13.8,13.8c0,7.6,6.2,13.8,13.8,13.8c7.6,0,13.8-6.2,13.8-13.8
		C70.2,100.7,64,94.5,56.4,94.5 M56.4,117.8c-5.3,0-9.5-4.3-9.5-9.5c0-5.3,4.3-9.5,9.5-9.5c5.3,0,9.5,4.3,9.5,9.5
		C65.9,113.6,61.7,117.8,56.4,117.8"/>
	<path fill="#A18AA8" d="M94.5,94.5c-7.6,0-13.8,6.2-13.8,13.8c0,7.6,6.2,13.8,13.8,13.8c7.6,0,13.8-6.2,13.8-13.8
		C108.3,100.7,102.2,94.5,94.5,94.5 M94.5,117.8c-5.3,0-9.5-4.3-9.5-9.5c0-5.3,4.3-9.5,9.5-9.5c5.3,0,9.5,4.3,9.5,9.5
		C104.1,113.6,99.8,117.8,94.5,117.8"/>
	<path fill="#7C5D87" d="M113.8,67.6c0,2.1-1.7,3.9-3.9,3.9H41.4c-2.1,0-3.9-1.7-3.9-3.9s1.7-3.9,3.9-3.9h68.5
		C112,63.7,113.8,65.5,113.8,67.6"/>
	<path fill="#7C5D87" d="M50.9,108.1c0-3,2.4-5.5,5.5-5.5c3,0,5.5,2.4,5.5,5.5c0,3-2.5,5.5-5.5,5.5
		C53.3,113.6,50.9,111.1,50.9,108.1z"/>
	<path fill="#7C5D87" d="M89,108.1c0-3,2.5-5.5,5.5-5.5c3,0,5.5,2.4,5.5,5.5c0,3-2.5,5.5-5.5,5.5C91.5,113.6,89,111.1,89,108.1z"/>
</g>
</svg>
