<?xml version="1.0" encoding="utf-8"?>
<!-- Generator: Adobe Illustrator 18.1.0, SVG Export Plug-In . SVG Version: 6.00 Build 0)  -->
<svg version="1.0" id="Layer_1" xmlns="http://www.w3.org/2000/svg" xmlns:xlink="http://www.w3.org/1999/xlink" x="0px" y="0px"
	 viewBox="0 0 150 150" enable-background="new 0 0 150 150" xml:space="preserve">
<g>
	<path fill="#BE1E2D" d="M47.8,58.2H4.1L39.5,84c-0.1-0.9-0.1-1.9-0.1-2.8C39.4,72.4,42.5,64.4,47.8,58.2z"/>
	<path fill="#006A9F" d="M89.9,48.4L76,5.9L62.4,47.7c4-1.5,8.3-2.4,12.8-2.4C80.5,45.3,85.4,46.4,89.9,48.4z"/>
	<path fill="#BE1E2D" d="M110.9,85.1l37.1-27h-45.3c5.2,6.2,8.4,14.2,8.4,23C111.1,82.5,111,83.8,110.9,85.1z"/>
	<path fill="#006A9F" d="M45.2,100.7l-13.7,42.1L68,116.3C58.5,114.3,50.4,108.6,45.2,100.7z"/>
	<path fill="#006A9F" d="M106.3,99c-4.9,8.4-13,14.6-22.7,17l36.9,26.8L106.3,99z"/>
	<path fill="#FFFFFF" d="M79.4,69.5c0.8-0.2,1.5-0.6,2-1.2c0.5-0.6,0.9-1.3,1.2-2c0.1-0.2,0.1-0.4,0.1-0.6c0,0,0,0,0-0.1
		c0,0,0,0-0.1,0c-0.2,0.1-0.4,0.2-0.7,0.2c-1.8,0.2-3.4-0.2-5-0.4c-1-0.1-1.9,0.1-2.8,0.4c0.3,0,0.5,0,0.8,0c0.4,0,0.9,0,1.3,0.1
		c0.1,0,0.2,0.1,0.4,0.1c0.1,0,0.2,0.1,0.3,0.2c0.1,0.2,0.1,0.4,0,0.4c-0.1,0.1-0.1,0.2-0.2,0.2c0.6,0.2,1.3,0.4,1.8,0.7
		c0.4,0.2,0.7,0.3,1.1,0.4c0.4,0.1,0.7,0.1,1.1,0.1l0.1,0.4c-0.3,0.1-0.5,0.4-0.8,0.6c-0.3,0.2-0.7,0.3-1,0.3
		c-0.7,0.1-1.4,0.1-2,0.1C77.8,69.6,78.7,69.7,79.4,69.5z M80.3,67.7c-0.4,0.2-1,0.1-1.3-0.3c-0.3-0.5-0.1-1,0.3-1.3
		c0.1-0.1,0.2-0.1,0.2-0.1c-0.2,0.2-0.2,0.4-0.1,0.7c0.2,0.3,0.5,0.4,0.8,0.2c0.2-0.1,0.3-0.2,0.3-0.4h0
		C80.9,66.8,80.8,67.4,80.3,67.7z"/>
	<path fill="#BE1E2D" d="M53.9,91.6c0.8-1.2,1.6-2.4,2.3-3.7c0.7-1.3,1.4-2.5,2-3.9l0.8-1.7l-2-0.2L56.6,82l-0.3,0
		c0.5-1.3,1.2-2.5,1.9-3.7c0.5-0.9,1.1-1.8,1.8-2.6c0.6-0.8,1.3-1.7,1.9-2.4l3-3.3l-4.4,0.2c0.7-1.4,1.7-2.6,2.9-3.7
		c1.9-1.6,4.3-2.8,6.7-3.8c2.5-0.9,5.1-1.5,7.7-1.6c1.3-0.1,2.6,0.1,3.9,0.4c1.2,0.4,2.4,1.2,2.6,2.7c0.1-0.7-0.2-1.4-0.6-2.1
		c-0.4-0.6-1-1.1-1.7-1.5c-1.3-0.8-2.8-1.1-4.2-1.3c-2.9-0.3-5.8-0.1-8.7,0.7c-2.8,0.7-5.6,1.9-8,3.8c-1.2,0.9-2.3,2-3.3,3.4
		c-0.9,1.3-1.6,2.9-1.9,4.5l-0.3,1.5l1.1,0.4l0,0c-0.7,1-1.3,1.9-1.9,3c-1.1,2.1-2.1,4.2-2.7,6.6l-0.5,2.1l2.1-0.2l0.7,0
		c-0.2,0.6-0.4,1.2-0.7,1.8c-0.5,1.3-1.1,2.6-1.7,3.8c-0.6,1.3-1.3,2.5-2,3.6c-0.8,1.1-1.6,2.2-2.9,2.9c1.4-0.3,2.6-1.3,3.7-2.3
		C52.2,93.9,53,92.7,53.9,91.6z"/>
	<path fill="#BE1E2D" d="M95.1,66.7c1.7,0.3,3.2,0.6,4.4,1.3c0.6,0.3,1.1,0.8,1.6,1.5c0.5,0.7,0.8,1.5,1.1,2.5
		c0.5-0.9,0.7-1.9,0.6-3c-0.1-1.1-0.6-2.3-1.4-3.1c-0.8-0.9-1.8-1.5-2.8-1.9c-1-0.4-2-0.7-3-0.8c-2-0.3-3.9-0.3-5.8-0.1
		c-1.9,0.2-3.7,0.6-5.6,1.2c1.8,0.9,3.6,1.3,5.5,1.7C91.7,66.2,93.4,66.5,95.1,66.7z"/>
	<path fill="#BE1E2D" d="M79.4,82.6c0.1-0.4,0.2-0.8,0.4-1.2c0.3-0.8,0.7-1.5,1.3-2.2c2-2.9,5.2-5.1,8.7-6.4
		c3.6-1.3,7.5-1.7,11.7-0.9c-3.4-2.6-8.2-3.4-12.6-2.6c-4.4,0.9-8.7,3.2-11.5,7.2c-0.7,1-1.3,2.1-1.7,3.2c-0.2,0.6-0.4,1.2-0.5,1.8
		c-0.1,0.5-0.2,1.2-0.3,1.8c-0.2,2.5,0.5,5,1.8,7c1,1.7,2.5,3,4.1,4L79.5,94c-0.6-0.2-1.1-0.4-1.7-0.6c-0.5-0.2-1-0.4-1.3-0.6
		l-3.7-2.2l0.9,3.7c0.1,0.2,0.1,0.5,0.2,0.8c-0.5-0.3-1.1-0.7-1.5-1c-0.7-0.5-1.3-1.2-1.5-1.5l-1.7-3.6l-1.5,3.3
		c-0.7,1.4-2.1,2.7-3.8,3.7c-0.6,0.4-1.3,0.6-1.9,0.9c0.5-0.4,0.9-0.7,1.3-1.3c0.4-0.6,0.7-1.6,0.8-2.1L65,90l-3.7,2.2
		c-0.3,0.2-0.8,0.4-1.3,0.6c-0.5,0.2-1.1,0.4-1.7,0.6l-3.6,1.1c-1.2,0.4-2.4,0.8-3.6,1.3c-1.2,0.5-2.4,0.9-3.7,1.5
		c1.3,0.5,2.7,0.6,4.1,0.7c1.4,0.1,2.7,0,4-0.2c1.3-0.2,2.5-0.5,3.8-0.8c0,0.1-0.1,0.1-0.1,0.2c-0.3,0.5-0.7,1-1.1,1.5
		c1.1,0.3,2.2,0.4,3.4,0.3c1.1,0,2.3-0.2,3.4-0.5c1.1-0.3,2.3-0.8,3.3-1.5c0.3-0.2,0.6-0.5,0.9-0.8c0.3,0.3,0.7,0.6,1,0.9
		c0.9,0.7,1.9,1.3,2.9,1.8c1,0.5,2,0.9,3.1,1.2c0.6,0.2,1.1,0.3,1.7,0.4c0.6,0.1,1.2,0.2,2.1,0l4.1-0.7l-3.5-1.7
		c-0.1,0-0.2-0.2-0.3-0.2c0.7,0.2,1.4,0.4,2.1,0.5c1.3,0.2,2.7,0.2,4,0.2c1.4-0.1,2.7-0.3,4-0.7c-1.3-0.6-2.5-1.1-3.7-1.5
		c-0.1,0-0.2-0.1-0.3-0.1c0.6,0,1.1,0.2,1.7,0.1c-3.9-1.5-7-4.3-8.3-7.6c-0.7-1.6-0.9-3.4-0.7-5C79.2,83.4,79.2,83.1,79.4,82.6z"/>
	<path fill="#BE1E2D" d="M79,69.2c-0.6,0.2-1.3,0.2-2,0.3c0.7,0,1.4,0.1,2-0.1c0.3-0.1,0.7-0.2,1-0.3c0.3-0.2,0.6-0.4,0.8-0.6
		l-0.1-0.4c-0.4,0-0.8,0-1.1-0.1c-0.4-0.1-0.7-0.2-1.1-0.4c-0.6-0.3-1.2-0.5-1.8-0.7c0.1-0.1,0.1-0.1,0.2-0.2c0-0.1,0.1-0.3,0-0.4
		c-0.1-0.1-0.2-0.2-0.3-0.2c-0.2-0.1-0.3-0.1-0.4-0.1c-0.5-0.1-0.9-0.1-1.3-0.1c-0.3,0-0.5,0-0.8,0c0.9-0.3,1.9-0.5,2.8-0.4
		c1.6,0.2,3.2,0.6,5,0.4c0.2,0,0.5-0.1,0.7-0.2c0,0,0,0,0.1,0c0,0,0,0,0,0.1c0,0.2-0.1,0.4-0.1,0.6c-0.2,0.7-0.6,1.5-1.2,2
		c-0.5,0.6-1.2,1-2,1.2c-0.8,0.2-1.6,0.2-2.4,0c0.8,0.3,1.6,0.4,2.5,0.3c0.8-0.1,1.7-0.6,2.3-1.2c0.6-0.6,1.1-1.4,1.4-2.2
		c0.1-0.2,0.1-0.4,0.2-0.6c0-0.2,0.1-0.4,0-0.8c0-0.1-0.1-0.2-0.3-0.2c-0.2-0.1-0.3,0-0.4,0.1l-0.1,0.1c-0.1,0.1-0.1,0.1-0.2,0.1
		c-0.2,0.1-0.3,0.1-0.5,0.1c-0.7,0.1-1.6,0-2.4-0.1c-0.8-0.1-1.6-0.3-2.5-0.4c-1.7-0.2-3.6,0.2-5,1.4l-0.9,0.8l1.2-0.1
		c0.8-0.1,1.7-0.1,2.5-0.1c0.4,0,0.8,0,1.2,0.1c0,0,0,0,0,0c0,0.1-0.1,0.2-0.2,0.4l-0.2,0.4l0.5,0.1c0.8,0.1,1.5,0.4,2.2,0.7
		c0.6,0.2,1.2,0.4,1.9,0.4c-0.1,0.1-0.2,0.2-0.3,0.3C79.6,69,79.3,69.1,79,69.2z"/>
	<path fill="#006A9F" d="M80.7,66.4c0,0.2-0.1,0.3-0.3,0.4c-0.3,0.2-0.6,0.1-0.8-0.2c-0.1-0.2-0.1-0.5,0.1-0.7c-0.1,0-0.2,0-0.2,0.1
		c-0.4,0.2-0.6,0.8-0.3,1.3c0.2,0.4,0.8,0.6,1.3,0.3C80.8,67.4,80.9,66.8,80.7,66.4L80.7,66.4z"/>
</g>
</svg>
