<?xml version="1.0" encoding="utf-8"?>
<!-- Generator: Adobe Illustrator 18.1.0, SVG Export Plug-In . SVG Version: 6.00 Build 0)  -->
<svg version="1.0" id="Layer_1" xmlns="http://www.w3.org/2000/svg" xmlns:xlink="http://www.w3.org/1999/xlink" x="0px" y="0px"
	 viewBox="0 0 150 150" enable-background="new 0 0 150 150" xml:space="preserve">
<g>
	<path fill="#FDBC11" d="M114.7,50.4c2.6-7.3,5.3-14.7,7.9-22c-3.4-3.3-7.2-6.3-11.4-8.4c-1.6,5.8-3.2,11.6-4.8,17.3
		c-1.5,5.1-2.8,10.3-4.3,15.5c-0.8,2.8-1.6,5.6-2.3,8.5c3.7,0.3,7.3,0.6,10.7,1.1C111.9,58.3,113.3,54.4,114.7,50.4z"/>
	<path fill="#FDBC11" d="M90.1,60.7c0.3-2.5,0.7-5.1,1-7.6c0.7-5.4,1.4-10.7,2-16c0.9-7.1,1.8-14.2,2.8-21.2c0.2-1.1,0.1-2.1,0-3.2
		c-4.3-1.2-8.8-2.1-13.2-2.6c-0.6,5.5-0.7,11.1-1,16.6c-0.4,5.3-0.6,10.7-0.9,16c-0.3,5.9-0.6,11.9-0.9,17.8c0.4,0,0.9,0,1.3,0
		C84.2,60.6,87.2,60.6,90.1,60.7z"/>
	<path fill="#FDBC11" d="M138.6,52.7l0.2-0.3c-2.1-4.5-4.1-8.9-6.9-12.9c-2.9,4.7-5,9.8-7.6,14.6c-1.6,3.2-3.3,6.4-4.9,9.5
		c4,0.7,7.6,1.6,11.1,2.6C133.1,61.8,135.9,57.3,138.6,52.7z"/>
	<path fill="#FDBC11" d="M72.4,60.8c-0.4-6-0.7-12-1.2-18c-0.4-5.6-0.7-11.3-1.1-17c-0.5-5.1-0.3-10.3-1.3-15.4
		c-4.1,0.7-8.3,1.5-12.3,2.8c-0.3,0.3-0.8,0.7-1.1,1c0.8,5.2,1.5,10.4,2.2,15.6c0.8,6.1,1.8,12.2,2.6,18.3c0.6,4.3,1.2,8.7,1.8,13
		c1.2-0.1,2.4-0.1,3.7-0.2C68.2,60.8,70.2,60.8,72.4,60.8z"/>
	<path fill="#FDBC11" d="M49.9,47.9c-1.7-6.1-3.4-12.3-5.1-18.5c-0.9-3.2-1.6-6.5-2.9-9.5c-4,2.6-7.9,5.4-11.3,8.8
		c3.4,9.3,6.7,18.6,10.1,27.9c0.7,1.9,1.4,3.9,2.1,5.8c3.3-0.2,6.9-0.5,10.9-0.7C52.4,57,51.1,52.4,49.9,47.9z"/>
	<path fill="#FDBC11" d="M27.7,56.1c-2.7-4.9-5.2-9.9-7.9-14.8c-2.7,4.3-5,8.7-7,13.3l0.2,0.3c2.1,3.3,4.2,6.6,6.3,9.9
		c2.8-0.4,6.8-0.9,12.3-1.5C30.3,60.9,29,58.5,27.7,56.1z"/>
	<path fill="#FDBC11" d="M143.2,70.9c-0.2-2-0.4-4.1-0.9-6c-1.1,1.4-2.2,2.8-3.3,4.2c0.8,0.3,1.5,0.7,2.3,1
		C141.9,70.4,142.6,70.7,143.2,70.9z"/>
	<path fill="#FDBC11" d="M9,63.1c-0.2,0.9-0.3,2.1-0.5,3.3c0.9-0.1,1.8-0.2,2.7-0.3C10.5,65,9.8,64,9,63.1z"/>
	<path fill="#BF9B4C" d="M66,64.6c-38.8,1.8-51,4.6-51,4.6s19-1.4,37.3,0.5c26.3,2.8,47.6,16.4,47.6,16.4s18.9,11.9,28.9,24.8
		c0,0,12.9-16.6,14.2-35.7C140.4,73.8,121.3,62,66,64.6z"/>
	<path fill="#FDBC11" d="M99.9,88.9c0,0-21.4-13.6-47.6-16.4c-17.7-1.9-36-0.6-37.2-0.5c0,0-0.1,0-0.1,0l-6.3,0.2c0,0.1,0,0.1,0,0.1
		c14.9,4.8,77,26.7,84.5,62.3c13.9-3.7,25.8-11.5,34.4-22C116.5,100.8,99.9,88.9,99.9,88.9z"/>
	<path fill="#AB7D2C" d="M8.7,72.7c0,0.9-0.1,1.8-0.1,2.7c0,34.1,29.6,61.7,66.2,61.7c5,0,9.8-0.5,14.5-1.5
		C87.1,120.5,70.9,97.8,8.7,72.7z"/>
</g>
</svg>
