<?xml version="1.0" encoding="utf-8"?>
<!-- Generator: Adobe Illustrator 18.1.0, SVG Export Plug-In . SVG Version: 6.00 Build 0)  -->
<svg version="1.1" id="Layer_1" xmlns="http://www.w3.org/2000/svg" xmlns:xlink="http://www.w3.org/1999/xlink" x="0px" y="0px"
	 viewBox="0 0 150 150" enable-background="new 0 0 150 150" xml:space="preserve">
<g>
	<path fill="none" d="M75.4,18.5c-30.9,0-56,25.1-56,56c0,30.9,25.1,56,56,56c30.9,0,56-25.1,56-56C131.4,43.7,106.2,18.5,75.4,18.5
		z M85.9,111.5c-6.8,18.6-21.2,12.5-23.3-3c-2.9,2.1-8.4,6.2-12.5,9.2c0.2,0.7,0.6,1.4,0.9,2.1C34.5,111,23.4,93.7,23.4,73.9
		c0-28.8,23.3-52.1,52.1-52.1c5.4,0,10.5,0.8,15.4,2.3c-5.3,1.5-10,3.7-13.7,6.8c-7.7,6.3-11.9,18-9.8,34.4l15.9-7.1
		c-5-8.5-5.1-18.2-0.6-21.7c4.8-3.5,12.5-5,20.1-5.7L87.4,106C87,108,86.4,109.9,85.9,111.5z M94.4,122.4c2.5-2.8,4.7-6.2,6.5-10.2
		c1.5-3.6,3.2-7.6,4-12.1l11.6-58.4c7,8.9,11.2,20,11.2,32.2C127.7,96,113.9,114.9,94.4,122.4z"/>
	<path fill="#0598CF" d="M82.7,36.5c-4.6,3.5-4.4,13.2,0.6,21.7l-15.9,7.1c-2.1-16.5,2.1-28.1,9.8-34.4c3.8-3.1,8.5-5.3,13.7-6.8
		c-4.9-1.5-10-2.3-15.4-2.3c-28.8,0-52.1,23.3-52.1,52.1c0,19.9,11.1,37.1,27.5,45.9c-0.3-0.7-0.6-1.4-0.9-2.1
		c4.1-3,9.6-7.1,12.5-9.2c2.1,15.5,16.6,21.6,23.3,3c0.6-1.6,1.2-3.5,1.5-5.5l15.4-75.3C95.2,31.4,87.5,33,82.7,36.5z"/>
	<path fill="#1E1B57" d="M116.5,41.7l-11.6,58.4c-0.8,4.6-2.5,8.5-4,12.1c-1.8,4.1-4,7.4-6.5,10.2c19.5-7.6,33.3-26.4,33.3-48.6
		C127.7,61.7,123.5,50.6,116.5,41.7z"/>
	<path fill="#1E1B57" d="M136.6,74.9c0-33.8-27.5-61.3-61.3-61.3S14.1,41.1,14.1,74.9c0,33.8,27.5,61.3,61.3,61.3
		S136.6,108.6,136.6,74.9z M75.4,130.6c-30.9,0-56-25.1-56-56c0-30.9,25.1-56,56-56c30.9,0,56,25.1,56,56
		C131.4,105.4,106.2,130.6,75.4,130.6z"/>
	<path fill="#0598CF" d="M75.4,3C35.7,3,8.6,35.2,8.6,74.9c0,39.6,27.2,71.9,66.8,71.9c39.6,0,66.8-32.2,66.8-71.9
		C142.1,35.2,115,3,75.4,3z M14.1,74.9c0-33.8,27.5-61.3,61.3-61.3s61.3,27.5,61.3,61.3c0,33.8-27.5,61.3-61.3,61.3
		S14.1,108.6,14.1,74.9z"/>
</g>
</svg>
