<?xml version="1.0" encoding="utf-8"?>
<!-- Generator: Adobe Illustrator 18.1.0, SVG Export Plug-In . SVG Version: 6.00 Build 0)  -->
<svg version="1.0" id="Layer_1" xmlns="http://www.w3.org/2000/svg" xmlns:xlink="http://www.w3.org/1999/xlink" x="0px" y="0px"
	 viewBox="0 0 150 150" enable-background="new 0 0 150 150" xml:space="preserve">
<g>
	<path fill-rule="evenodd" clip-rule="evenodd" fill="#37A1DA" d="M81.9,132.2V76.6h-4.2v57C79.1,133.2,80.5,132.7,81.9,132.2z"/>
	<path fill-rule="evenodd" clip-rule="evenodd" fill="#002D3E" d="M88.8,129.4V24.2h-4.2v107.1C86.1,130.7,87.5,130,88.8,129.4z"/>
	<path fill-rule="evenodd" clip-rule="evenodd" fill="#37A1DA" d="M91.8,127.8c1.3-0.8,2.7-1.6,4-2.5V45.7h-4.2v82.2
		C91.6,127.8,91.7,127.8,91.8,127.8z"/>
	<path fill-rule="evenodd" clip-rule="evenodd" fill="#002D3E" d="M102.7,121.3V69.6h-4.2v54.1C99.9,122.8,101.3,122,102.7,121.3z"
		/>
	<path fill-rule="evenodd" clip-rule="evenodd" fill="#002D3E" d="M74.4,134.6V9.3h-4.2v126.5C71.6,135.4,73,135,74.4,134.6z"/>
	<path fill-rule="evenodd" clip-rule="evenodd" fill="#37A1DA" d="M67.5,136.5V20.1h-4.2v116.7C64.7,136.8,66.1,136.7,67.5,136.5z"
		/>
	<path fill-rule="evenodd" clip-rule="evenodd" fill="#002D3E" d="M60.6,136.8V47.3h-4.2v89.6C57.8,136.8,59.2,136.8,60.6,136.8z"/>
	<path fill-rule="evenodd" clip-rule="evenodd" fill="#37A1DA" d="M53.6,137V30.4h-4.2v107.3C50.8,137.3,52.2,137.1,53.6,137z"/>
	<path fill="#59595C" d="M40,124.1c1.3-3.9,4.4-8.1,8.6-12v-6.3c-4.3,4-7.4,8.2-8.7,12.1c-0.9,2.7-0.9,5-0.2,7
		C39.8,124.7,39.9,124.4,40,124.1z"/>
	<path fill="#59595C" d="M113.6,98.6c1.9-6.8-2.3-11.4-10.2-12.8V92C108.7,92.9,112.3,95.2,113.6,98.6z"/>
	<path fill="#59595C" d="M116.5,96.1L116.5,96.1c0,0.2,0,0.3-0.1,0.4c0,0.1,0,0.1,0,0.1c0,0.1,0,0.2-0.1,0.3c0,0,0,0.1,0,0.1
		c0,0.1,0,0.2-0.1,0.3c0,0,0,0.1,0,0.1c0,0.2-0.1,0.3-0.1,0.4c0,0.1,0,0.2-0.1,0.2c0,0.1,0,0.1,0,0.1c0,0.1-0.1,0.3-0.1,0.4
		c0,0.1-0.1,0.2-0.1,0.3c0,0,0,0.1,0,0.1c0,0.1,0,0.1-0.1,0.2c0,0,0,0.1,0,0.1c0,0.1,0,0.1-0.1,0.2c0,0,0,0.1-0.1,0.1
		c0,0.1,0,0.1-0.1,0.2c-0.1,0.1-0.1,0.3-0.2,0.4c0,0,0,0.1,0,0.1c-0.1,0.1-0.1,0.2-0.2,0.4c0,0,0,0,0,0c-0.1,0.1-0.1,0.3-0.2,0.4
		c0,0,0,0.1,0,0.1c-0.1,0.1-0.1,0.3-0.2,0.4h0c-0.1,0.1-0.1,0.3-0.2,0.4c0,0,0,0.1-0.1,0.1c-0.1,0.1-0.2,0.3-0.2,0.4c0,0,0,0,0,0
		c-0.1,0.1-0.2,0.3-0.2,0.4c0,0,0,0.1-0.1,0.1c-0.1,0.1-0.2,0.3-0.2,0.4c0,0,0,0,0,0.1c-0.1,0.1-0.2,0.2-0.2,0.4c0,0,0,0.1-0.1,0.1
		c-0.1,0.1-0.2,0.3-0.3,0.4c0,0,0,0.1-0.1,0.1c-0.1,0.1-0.2,0.2-0.3,0.4c0,0,0,0,0,0.1c-0.1,0.1-0.2,0.3-0.3,0.4c0,0,0,0-0.1,0.1
		c-0.1,0.1-0.2,0.3-0.3,0.4c0,0,0,0,0,0c-0.1,0.1-0.2,0.3-0.3,0.4c0,0-0.1,0.1-0.1,0.1c-0.1,0.1-0.2,0.3-0.3,0.4c0,0,0,0-0.1,0.1
		c-0.1,0.1-0.2,0.3-0.3,0.4c0,0,0,0,0,0c-0.1,0.2-0.3,0.3-0.4,0.5c0,0,0,0.1-0.1,0.1c-0.1,0.2-0.3,0.3-0.4,0.5c0,0-0.1,0.1-0.1,0.1
		c-0.1,0.2-0.3,0.3-0.4,0.5c0,0,0,0-0.1,0.1c-0.1,0.2-0.3,0.3-0.5,0.5c-0.2,0.2-0.4,0.4-0.6,0.6c-0.2,0.2-0.4,0.4-0.6,0.6h0
		c-0.2,0.2-0.4,0.4-0.6,0.6h0c-0.2,0.2-0.4,0.4-0.6,0.6h0c-0.1,0.1-0.2,0.2-0.4,0.3c0,0-0.1,0.1-0.1,0.1c-0.1,0.1-0.2,0.2-0.3,0.2
		c0,0-0.1,0.1-0.1,0.1c-0.1,0.1-0.2,0.2-0.3,0.3c0,0-0.1,0-0.1,0.1c-0.1,0.1-0.3,0.2-0.4,0.3c0,0,0,0-0.1,0.1
		c-0.1,0.1-0.2,0.2-0.3,0.3c0,0-0.1,0.1-0.1,0.1c-0.1,0.1-0.2,0.2-0.3,0.2c0,0-0.1,0.1-0.1,0.1c-0.1,0.1-0.2,0.2-0.3,0.3
		c0,0,0,0,0,0c0,0-0.1,0.1-0.1,0.1c-0.1,0.1-0.3,0.2-0.4,0.3c0,0,0,0-0.1,0c-0.3,0.2-0.5,0.4-0.8,0.6c0,0,0,0-0.1,0.1l0,0
		c-0.3,0.2-0.5,0.4-0.8,0.6c0,0,0,0,0,0c-0.3,0.2-0.6,0.4-0.9,0.6c0,0,0,0-0.1,0.1c-0.3,0.2-0.5,0.4-0.8,0.5c0,0,0,0-0.1,0
		c0,0-0.1,0-0.1,0.1c-0.3,0.2-0.6,0.4-0.9,0.6c0,0,0,0,0,0c-0.3,0.2-0.6,0.4-0.9,0.6c0,0-0.1,0-0.1,0c-0.3,0.2-0.6,0.4-0.9,0.6
		c0,0,0,0-0.1,0c-0.3,0.2-0.6,0.4-1,0.6c0,0-0.1,0-0.1,0.1c-0.1,0.1-0.3,0.2-0.4,0.3c0,0-0.1,0.1-0.1,0.1c-0.2,0.1-0.4,0.2-0.5,0.3
		l0,0c-0.2,0.1-0.4,0.2-0.5,0.3c0,0-0.1,0.1-0.1,0.1c-0.2,0.1-0.3,0.2-0.5,0.3c0,0-0.1,0-0.1,0c-0.2,0.1-0.4,0.2-0.6,0.3
		c0,0-0.1,0-0.1,0.1c-0.2,0.1-0.3,0.2-0.5,0.3c0,0-0.1,0-0.1,0.1c-0.1,0.1-0.2,0.1-0.3,0.2c-0.1,0-0.2,0.1-0.2,0.1c0,0-0.1,0-0.1,0
		c-0.2,0.1-0.3,0.2-0.5,0.3c0,0-0.1,0-0.1,0.1c-0.3,0.2-0.6,0.3-0.9,0.5c0,0,0,0-0.1,0c-0.6,0.3-1.2,0.6-1.9,0.9c0,0-0.1,0-0.1,0.1
		c0,0-0.1,0-0.1,0c-0.3,0.2-0.6,0.3-0.9,0.5c0,0-0.1,0-0.1,0c-0.3,0.1-0.5,0.2-0.8,0.4c-0.1,0-0.1,0-0.2,0.1c0,0-0.1,0-0.1,0
		c-0.2,0.1-0.5,0.2-0.7,0.3c-0.1,0-0.2,0.1-0.3,0.1c0,0,0,0-0.1,0c-0.3,0.1-0.7,0.3-1,0.4c0,0,0,0,0,0c-0.3,0.2-0.7,0.3-1,0.4
		c0,0-0.1,0-0.1,0c0,0-0.1,0-0.1,0c-0.3,0.1-0.6,0.2-0.9,0.4c0,0-0.1,0-0.1,0c-0.3,0.1-0.7,0.3-1,0.4c0,0,0,0-0.1,0
		c-0.4,0.1-0.7,0.3-1.1,0.4c0,0,0,0,0,0c-0.4,0.1-0.7,0.3-1.1,0.4c0,0-0.1,0-0.1,0c-0.3,0.1-0.5,0.2-0.8,0.3c0,0-0.1,0-0.1,0
		c-0.3,0.1-0.6,0.2-0.9,0.3c0,0,0,0-0.1,0c-0.3,0.1-0.6,0.2-0.9,0.3c0,0,0,0,0,0c-0.3,0.1-0.6,0.2-0.9,0.3h0
		c-0.3,0.1-0.5,0.2-0.8,0.2c0,0-0.1,0-0.1,0c-0.2,0.1-0.5,0.1-0.7,0.2c0,0-0.1,0-0.1,0c-0.3,0.1-0.5,0.1-0.8,0.2h0
		c-0.3,0.1-0.5,0.1-0.8,0.2c0,0-0.1,0-0.1,0c-0.1,0-0.1,0-0.2,0.1c-0.3,0.1-0.6,0.1-0.9,0.2c-0.3,0.1-0.6,0.1-0.8,0.2
		c0,0-0.1,0-0.1,0c0,0,0,0-0.1,0c0,0,0,0-0.1,0c-0.3,0.1-0.6,0.1-0.9,0.2c0,0-0.1,0-0.1,0c-0.2,0-0.4,0.1-0.7,0.1c0,0,0,0-0.1,0
		c0,0,0,0,0,0c-0.2,0-0.4,0.1-0.6,0.1c0,0-0.1,0-0.1,0c-0.2,0-0.4,0.1-0.7,0.1c0,0-0.1,0-0.1,0c-0.2,0-0.4,0.1-0.7,0.1
		c0,0,0,0-0.1,0c-0.2,0-0.4,0.1-0.6,0.1c0,0-0.1,0-0.1,0c-0.2,0-0.4,0.1-0.6,0.1c0,0-0.1,0-0.1,0c-0.2,0-0.4,0.1-0.6,0.1
		c0,0-0.1,0-0.1,0c-0.2,0-0.4,0.1-0.6,0.1c0,0,0,0-0.1,0c-0.2,0-0.4,0.1-0.6,0.1c0,0-0.1,0-0.1,0c-0.2,0-0.4,0-0.6,0.1
		c0,0-0.1,0-0.1,0c-0.2,0-0.4,0.1-0.6,0.1c0,0,0,0,0,0c-0.2,0-0.4,0-0.6,0c0,0-0.1,0-0.1,0c-0.2,0-0.4,0-0.6,0c0,0-0.1,0-0.1,0
		c-0.2,0-0.4,0-0.6,0c0,0-0.1,0-0.1,0c-0.2,0-0.4,0-0.6,0c0,0,0,0,0,0c-0.2,0-0.4,0-0.6,0c0,0,0,0-0.1,0c-0.2,0-0.4,0-0.7,0
		c0,0,0,0-0.1,0c-0.2,0-0.4,0-0.6,0c0,0-0.1,0-0.1,0c-0.2,0-0.4,0-0.6,0c0,0-0.1,0-0.1,0c-0.2,0-0.4,0-0.6,0c0,0-0.1,0-0.1,0
		c-0.2,0-0.5,0-0.7,0c0,0,0,0-0.1,0c-0.2,0-0.5,0-0.7,0h0c-0.2,0-0.5,0-0.7-0.1c0,0,0,0-0.1,0c-0.1,0-0.1,0-0.2,0
		c-0.2,0-0.3,0-0.5-0.1c0,0-0.1,0-0.1,0c-0.1,0-0.2,0-0.3,0c0,0-0.1,0-0.1,0c-0.1,0-0.3,0-0.4-0.1c0,0-0.1,0-0.1,0
		c-0.1,0-0.2,0-0.3,0c0,0-0.1,0-0.1,0c0,0-0.1,0-0.1,0c-0.1,0-0.2,0-0.3,0c0,0,0,0,0,0c-0.1,0-0.2,0-0.4-0.1c0,0-0.1,0-0.1,0
		c-0.1,0-0.2,0-0.3-0.1c0,0,0,0-0.1,0c-0.1,0-0.2,0-0.4-0.1c0,0-0.1,0-0.1,0c-0.1,0-0.2,0-0.3-0.1c0,0-0.1,0-0.1,0
		c-0.1,0-0.1,0-0.2,0c0,0-0.1,0-0.1,0c-0.1,0-0.1,0-0.2,0c0,0-0.1,0-0.1,0c-0.1,0-0.1,0-0.2,0c0,0-0.1,0-0.1,0c-0.1,0-0.1,0-0.2-0.1
		c0,0-0.1,0-0.1,0c-0.1,0-0.2-0.1-0.3-0.1l0,0c-0.1,0-0.2-0.1-0.3-0.1c0,0-0.1,0-0.1,0c-0.1,0-0.1,0-0.2-0.1c0,0-0.1,0-0.1,0
		c-0.1,0-0.1,0-0.2-0.1c0,0-0.1,0-0.1,0c0,0-0.1,0-0.1-0.1c0,0-0.1,0-0.1,0c0,0-0.1,0-0.1-0.1c0,0-0.1,0-0.1,0c0,0-0.1,0-0.1-0.1
		c0,0-0.1,0-0.1,0c0,0-0.1,0-0.1-0.1c0,0-0.1,0-0.1,0c0,0-0.1,0-0.1-0.1c0,0-0.1,0-0.1,0c0,0-0.1,0-0.1-0.1c0,0-0.1,0-0.1,0
		c0,0-0.1,0-0.1-0.1c0,0-0.1,0-0.1,0c0,0-0.1,0-0.1-0.1c0,0-0.1,0-0.1-0.1c0,0-0.1-0.1-0.1-0.1c0,0-0.1,0-0.1-0.1c0,0-0.1,0-0.1-0.1
		c0,0-0.1,0-0.1,0c-0.1,0-0.1-0.1-0.2-0.1c0,0,0,0-0.1,0c-0.1,0-0.1-0.1-0.2-0.1c0,0,0,0,0,0c-0.1,0-0.1-0.1-0.2-0.1c0,0,0,0-0.1,0
		c0,0-0.1-0.1-0.1-0.1c0,0-0.1,0-0.1-0.1c0,0-0.1-0.1-0.1-0.1c0,0-0.1,0-0.1-0.1c0,0-0.1-0.1-0.1-0.1c0,0-0.1,0-0.1-0.1
		c0,0-0.1-0.1-0.1-0.1c0,0-0.1,0-0.1-0.1c0,0-0.1-0.1-0.1-0.1c0,0-0.1,0-0.1-0.1c0,0-0.1-0.1-0.1-0.1c0,0-0.1,0-0.1-0.1
		c0,0-0.1-0.1-0.1-0.1c0,0-0.1,0-0.1-0.1c0,0-0.1-0.1-0.1-0.1c0,0-0.1,0-0.1-0.1c0,0-0.1-0.1-0.1-0.1c0,0,0,0-0.1-0.1
		s-0.1-0.1-0.1-0.1c0,0,0,0-0.1-0.1c0,0-0.1-0.1-0.1-0.1c0,0,0-0.1-0.1-0.1c0,0-0.1-0.1-0.1-0.1c0,0,0,0-0.1-0.1
		c0-0.1-0.1-0.1-0.1-0.1c0,0,0,0,0,0c-0.1-0.1-0.1-0.1-0.1-0.2c0,0,0,0,0,0c0,0-0.1-0.1-0.1-0.1c0,0,0,0,0-0.1c0,0-0.1-0.1-0.1-0.1
		c0,0,0-0.1-0.1-0.1c0,0,0-0.1-0.1-0.1c0,0,0-0.1,0-0.1c0,0,0-0.1-0.1-0.1c0,0,0,0-0.1-0.1c0,0,0-0.1-0.1-0.1c0,0,0-0.1,0-0.1
		c0,0,0-0.1-0.1-0.1c0,0,0,0,0-0.1c0,0,0-0.1-0.1-0.1c0,0,0-0.1,0-0.1c0,0,0-0.1-0.1-0.1c0,0,0-0.1,0-0.1c0,0,0-0.1-0.1-0.1
		c0,0,0-0.1,0-0.1c0,0,0-0.1,0-0.1c0,0,0-0.1,0-0.1c0,0,0-0.1,0-0.1c0,0,0,0,0-0.1c0,0,0-0.1,0-0.1c0,0,0,0,0-0.1c0,0,0-0.1,0-0.1
		c0,0,0,0,0-0.1c0-0.1,0-0.1-0.1-0.2c0,0,0,0,0,0c0-0.1,0-0.1-0.1-0.2c0,0,0,0,0-0.1c0,0,0-0.1,0-0.1c0,0,0-0.1,0-0.1
		c0,0,0-0.1,0-0.1c0,0,0-0.1,0-0.1c0,0,0-0.1,0-0.1c0,0,0-0.1,0-0.1c0,0,0-0.1,0-0.1c0,0,0-0.1,0-0.1c0,0,0-0.1,0-0.1
		c0,0,0-0.1,0-0.1c0,0,0-0.1,0-0.1c0,0,0-0.1,0-0.1c0,0,0-0.1,0-0.1c0,0,0-0.1,0-0.1c0,0,0-0.1,0-0.1c0,0,0-0.1,0-0.1
		c0,0,0-0.1,0-0.1c0,0,0-0.1,0-0.1c0,0,0-0.1,0-0.1c0,0,0-0.1,0-0.1c0,0,0-0.1,0-0.1c0,0,0-0.1,0-0.1c0-0.1,0-0.1,0-0.2
		c0,0,0-0.1,0-0.1c0-0.1,0-0.1,0-0.2c0,0,0,0,0-0.1c0-0.1,0-0.2,0-0.3l-0.9,9c0,0,0,0,0,0c0,0.1,0,0.2,0,0.2c0,0,0,0,0,0.1
		c0,0.1,0,0.1,0,0.2c0,0,0,0.1,0,0.1c0,0,0,0.1,0,0.2c0,0,0,0.1,0,0.1c0,0,0,0.1,0,0.1c0,0,0,0.1,0,0.1c0,0,0,0.1,0,0.1
		c0,0,0,0.1,0,0.1c0,0,0,0.1,0,0.1c0,0,0,0.1,0,0.1c0,0,0,0.1,0,0.1c0,0,0,0.1,0,0.1c0,0,0,0.1,0,0.1c0,0,0,0.1,0,0.1
		c0,0,0,0.1,0,0.1c0,0,0,0.1,0,0.1c0,0,0,0.1,0,0.1c0,0,0,0.1,0,0.1c0,0,0,0.1,0,0.1c0,0,0,0.1,0,0.1c0,0,0,0.1,0,0.1
		c0,0,0,0.1,0,0.1c0,0,0,0.1,0,0.1c0,0,0,0.1,0,0.1c0,0,0,0.1,0,0.1c0,0,0,0,0,0.1c0,0.1,0,0.1,0.1,0.2c0,0,0,0,0,0
		c0,0.1,0,0.1,0.1,0.2c0,0,0,0,0,0.1c0,0,0,0.1,0,0.1c0,0,0,0.1,0,0.1c0,0,0,0.1,0,0.1c0,0,0,0.1,0,0.1c0,0,0,0.1,0,0.1
		c0,0,0,0.1,0,0.1c0,0,0,0.1,0,0.1c0,0,0,0.1,0,0.1c0,0,0,0.1,0,0.1c0,0,0,0.1,0,0.1c0,0,0,0.1,0.1,0.1c0,0,0,0.1,0,0.1
		c0,0,0,0.1,0.1,0.1c0,0,0,0.1,0,0.1c0,0,0,0.1,0.1,0.1c0,0,0,0.1,0.1,0.1c0,0,0,0.1,0.1,0.1c0,0,0,0.1,0.1,0.1c0,0,0,0.1,0.1,0.1
		c0,0,0,0.1,0.1,0.1c0,0,0,0.1,0.1,0.1c0,0,0,0,0.1,0.1c0,0,0.1,0.1,0.1,0.1c0,0,0,0.1,0,0.1c0,0,0.1,0.1,0.1,0.1c0,0,0,0,0,0.1
		c0,0.1,0.1,0.1,0.1,0.2c0,0,0,0,0,0.1c0,0,0.1,0.1,0.1,0.1c0,0,0,0,0.1,0.1c0,0,0.1,0.1,0.1,0.1c0,0,0,0.1,0.1,0.1
		c0,0,0.1,0.1,0.1,0.1c0,0,0.1,0.1,0.1,0.1c0,0,0.1,0.1,0.1,0.1c0,0,0.1,0.1,0.1,0.1c0,0,0.1,0.1,0.1,0.1c0,0,0.1,0.1,0.1,0.1
		c0,0,0.1,0.1,0.1,0.1c0,0,0,0.1,0.1,0.1c0,0,0.1,0.1,0.1,0.1c0,0,0.1,0.1,0.1,0.1c0,0,0.1,0.1,0.1,0.1c0,0,0.1,0,0.1,0.1
		c0,0,0.1,0.1,0.1,0.1c0,0,0.1,0,0.1,0.1c0,0,0.1,0,0.1,0.1c0,0,0.1,0,0.1,0.1c0,0,0.1,0.1,0.1,0.1c0,0,0.1,0,0.1,0.1
		c0,0,0.1,0,0.1,0.1c0,0,0.1,0,0.1,0.1c0,0,0.1,0.1,0.1,0.1c0,0,0,0,0.1,0.1c0.1,0,0.1,0.1,0.2,0.1c0,0,0,0,0,0
		c0.1,0,0.2,0.1,0.2,0.1c0,0,0,0,0.1,0c0,0,0.1,0.1,0.1,0.1c0,0,0.1,0,0.1,0c0,0,0.1,0,0.1,0.1c0,0,0.1,0,0.1,0.1c0,0,0.1,0,0.1,0.1
		c0,0,0.1,0,0.1,0.1c0,0,0.1,0,0.1,0.1c0,0,0.1,0,0.1,0.1c0,0,0.1,0,0.1,0.1c0,0,0.1,0,0.1,0.1c0,0,0.1,0,0.1,0.1c0,0,0.1,0,0.1,0.1
		c0,0,0.1,0,0.1,0.1c0,0,0.1,0,0.1,0.1c0,0,0.1,0,0.1,0.1c0,0,0.1,0,0.1,0.1c0,0,0.1,0,0.1,0.1c0,0,0.1,0,0.1,0c0.1,0,0.1,0,0.1,0.1
		c0,0,0.1,0,0.1,0c0.1,0,0.1,0,0.2,0.1c0,0,0.1,0,0.1,0c0.1,0,0.1,0,0.2,0.1c0,0,0.1,0,0.1,0c0.1,0,0.1,0,0.2,0.1c0,0,0.1,0,0.1,0
		c0.2,0.1,0.4,0.1,0.5,0.2c0,0,0.1,0,0.1,0c0.1,0,0.1,0,0.2,0.1c0,0,0.1,0,0.1,0c0.1,0,0.1,0,0.2,0c0,0,0.1,0,0.1,0
		c0.1,0,0.1,0,0.2,0c0,0,0.1,0,0.1,0c0.1,0,0.1,0,0.2,0c0,0,0,0,0,0c0,0,0,0,0,0c0.1,0,0.2,0,0.3,0.1c0,0,0.1,0,0.1,0
		c0.1,0,0.3,0.1,0.4,0.1c0,0,0,0,0.1,0c0.1,0,0.2,0,0.3,0.1c0,0,0.1,0,0.1,0c0.1,0,0.3,0,0.4,0.1h0c0.1,0,0.3,0.1,0.4,0.1
		c0,0,0.1,0,0.1,0c0.1,0,0.2,0,0.3,0.1c0,0,0.1,0,0.1,0c0.1,0,0.3,0,0.4,0.1c0,0,0.1,0,0.1,0c0.1,0,0.2,0,0.3,0c0,0,0,0,0.1,0
		c0,0,0,0,0,0c0.2,0,0.4,0,0.6,0.1c0,0,0,0,0.1,0c0.2,0,0.5,0,0.7,0.1h0c0.2,0,0.5,0,0.7,0c0,0,0,0,0.1,0c0.2,0,0.5,0,0.7,0h0
		c0,0,0,0,0,0c0.2,0,0.4,0,0.6,0c0,0,0.1,0,0.1,0c0.2,0,0.4,0,0.6,0c0,0,0.1,0,0.1,0c0.2,0,0.4,0,0.6,0c0,0,0,0,0.1,0
		c0.2,0,0.4,0,0.7,0c0,0,0,0,0,0h0c0.2,0,0.4,0,0.6,0h0c0.2,0,0.4,0,0.6,0c0,0,0.1,0,0.1,0c0.2,0,0.4,0,0.6,0c0,0,0.1,0,0.1,0
		c0.2,0,0.4,0,0.6,0c0,0,0,0,0,0c0,0,0,0,0.1,0c0.2,0,0.4,0,0.6-0.1l0,0c0.2,0,0.4,0,0.6-0.1c0,0,0.1,0,0.1,0c0.2,0,0.4,0,0.6-0.1
		c0,0,0.1,0,0.1,0c0.2,0,0.4-0.1,0.6-0.1h0c0,0,0,0,0.1,0c0.2,0,0.4-0.1,0.6-0.1c0,0,0.1,0,0.1,0c0.2,0,0.4-0.1,0.6-0.1
		c0,0,0.1,0,0.1,0c0.2,0,0.4-0.1,0.6-0.1c0,0,0.1,0,0.1,0c0.2,0,0.4-0.1,0.6-0.1c0,0,0,0,0.1,0l0,0c0.2,0,0.4-0.1,0.6-0.1
		c0,0,0.1,0,0.1,0c0.2,0,0.4-0.1,0.6-0.1c0,0,0.1,0,0.1,0c0.2,0,0.4-0.1,0.6-0.1c0,0,0,0,0.1,0c0.2,0,0.4-0.1,0.7-0.1c0,0,0,0,0.1,0
		c0,0,0,0,0,0c0.3-0.1,0.6-0.1,0.9-0.2c0,0,0,0,0.1,0c0.3-0.1,0.7-0.2,1-0.2c0.4-0.1,0.7-0.2,1.1-0.3c0,0,0,0,0,0c0,0,0.1,0,0.1,0
		c0.3-0.1,0.5-0.1,0.7-0.2c0,0,0,0,0,0c0.3-0.1,0.5-0.1,0.8-0.2c0,0,0.1,0,0.1,0c0.2-0.1,0.5-0.1,0.7-0.2c0,0,0.1,0,0.1,0
		c0.3-0.1,0.5-0.2,0.8-0.2h0h0c0.3-0.1,0.6-0.2,0.9-0.3c0,0,0,0,0,0c0.3-0.1,0.6-0.2,0.9-0.3c0,0,0.1,0,0.1,0
		c0.3-0.1,0.6-0.2,0.8-0.3c0,0,0.1,0,0.1,0c0.3-0.1,0.6-0.2,0.8-0.3c0,0,0,0,0.1,0c0,0,0,0,0,0c0.4-0.1,0.7-0.2,1.1-0.4c0,0,0,0,0,0
		c0.4-0.1,0.7-0.3,1.1-0.4c0,0,0,0,0,0c0.4-0.1,0.7-0.3,1.1-0.4c0,0,0.1,0,0.1,0c0.3-0.1,0.7-0.3,1-0.4c0,0,0,0,0.1,0c0,0,0,0,0,0
		c0.3-0.1,0.7-0.3,1-0.4c0,0,0,0,0,0c0.3-0.1,0.7-0.3,1-0.4c0,0,0,0,0.1,0c0.3-0.1,0.6-0.3,1-0.4c0,0,0.1,0,0.1,0
		c0.3-0.1,0.6-0.3,0.9-0.4c0,0,0.1,0,0.1-0.1c0.3-0.1,0.6-0.3,0.9-0.4c0,0,0.1,0,0.1,0c0.3-0.2,0.7-0.3,1-0.5h0
		c0.3-0.2,0.7-0.3,1-0.5c0,0,0.1,0,0.1,0c0.3-0.2,0.6-0.3,0.9-0.5c0,0,0,0,0,0c0,0,0.1,0,0.1,0c0.2-0.1,0.3-0.2,0.5-0.2
		c0,0,0.1,0,0.1-0.1c0.2-0.1,0.4-0.2,0.6-0.3c0,0,0.1-0.1,0.1-0.1c0.1-0.1,0.3-0.2,0.4-0.2c0.1,0,0.1,0,0.1-0.1
		c0.2-0.1,0.4-0.2,0.5-0.3c0,0,0.1,0,0.1,0c0,0,0.1-0.1,0.1-0.1c0.1-0.1,0.2-0.1,0.3-0.2c0.1,0,0.1-0.1,0.2-0.1
		c0.2-0.1,0.3-0.2,0.5-0.3c0,0,0,0,0,0c0.2-0.1,0.4-0.2,0.5-0.3c0.1,0,0.1-0.1,0.1-0.1c0.1-0.1,0.3-0.2,0.4-0.3c0,0,0.1,0,0.1-0.1
		c0,0,0,0,0,0c0.3-0.2,0.6-0.4,0.9-0.5c0,0,0,0,0.1,0c0,0,0,0,0.1,0c0.3-0.2,0.6-0.4,0.9-0.6c0,0,0.1,0,0.1,0
		c0.3-0.2,0.6-0.4,0.9-0.6c0,0,0,0,0,0c0.3-0.2,0.6-0.4,0.9-0.6c0,0,0.1,0,0.1,0c0.3-0.2,0.6-0.4,0.8-0.6c0,0,0.1,0,0.1,0
		c0.3-0.2,0.6-0.4,0.9-0.6c0,0,0,0,0,0c0.3-0.2,0.6-0.4,0.8-0.6c0,0,0.1,0,0.1-0.1c0.3-0.2,0.5-0.4,0.8-0.6c0,0,0,0,0,0c0,0,0,0,0,0
		c0.1-0.1,0.3-0.2,0.4-0.3c0,0,0.1,0,0.1-0.1c0.1-0.1,0.2-0.2,0.3-0.3c0,0,0.1-0.1,0.1-0.1c0.1-0.1,0.2-0.2,0.3-0.2
		c0,0,0.1-0.1,0.1-0.1c0.1-0.1,0.2-0.2,0.3-0.3c0,0,0.1,0,0.1-0.1c0.1-0.1,0.3-0.2,0.4-0.3c0,0,0.1-0.1,0.1-0.1
		c0.1-0.1,0.2-0.2,0.3-0.2c0,0,0.1-0.1,0.1-0.1c0.1-0.1,0.2-0.2,0.3-0.2c0,0,0.1-0.1,0.1-0.1c0.1-0.1,0.2-0.2,0.3-0.3c0,0,0,0,0,0h0
		c0.2-0.2,0.4-0.4,0.6-0.6h0c0.2-0.2,0.4-0.4,0.6-0.6l0,0c0.2-0.2,0.4-0.4,0.6-0.6l0,0c0.3-0.4,0.7-0.7,1-1.1c0,0,0,0,0.1-0.1
		c0.1-0.2,0.3-0.3,0.4-0.5c0,0,0.1-0.1,0.1-0.1c0.1-0.1,0.3-0.3,0.4-0.4c0,0,0-0.1,0.1-0.1c0.1-0.2,0.3-0.3,0.4-0.5h0c0,0,0,0,0,0
		c0.1-0.1,0.2-0.3,0.4-0.4c0,0,0-0.1,0.1-0.1c0.1-0.1,0.2-0.3,0.3-0.4c0,0,0,0,0.1-0.1c0.1-0.2,0.2-0.3,0.3-0.4c0,0,0,0,0,0
		c0.1-0.2,0.2-0.3,0.3-0.4c0,0,0,0,0,0c0,0,0,0,0,0c0.1-0.1,0.2-0.3,0.3-0.4c0,0,0,0,0.1-0.1c0.1-0.1,0.2-0.2,0.3-0.4
		c0,0,0,0,0.1-0.1c0.1-0.1,0.2-0.3,0.3-0.4c0,0,0-0.1,0.1-0.1c0.1-0.1,0.2-0.2,0.2-0.4c0,0,0,0,0,0c0,0,0,0,0,0
		c0.1-0.1,0.2-0.3,0.2-0.4c0,0,0-0.1,0.1-0.1c0.1-0.1,0.1-0.2,0.2-0.4c0,0,0,0,0,0c0.1-0.1,0.2-0.3,0.2-0.4c0,0,0-0.1,0.1-0.1
		c0.1-0.1,0.1-0.3,0.2-0.4l0,0c0.1-0.1,0.1-0.3,0.2-0.4c0,0,0-0.1,0-0.1c0.1-0.1,0.1-0.3,0.2-0.4c0,0,0,0,0,0
		c0.1-0.1,0.1-0.2,0.2-0.4c0,0,0-0.1,0-0.1c0.1-0.1,0.1-0.3,0.2-0.4c0,0,0,0,0,0c0,0,0-0.1,0.1-0.1c0,0,0-0.1,0-0.1
		c0-0.1,0-0.1,0.1-0.2c0,0,0-0.1,0-0.1c0-0.1,0-0.1,0.1-0.2c0,0,0,0,0-0.1c0-0.1,0.1-0.2,0.1-0.3c0-0.1,0.1-0.3,0.1-0.4
		c0,0,0-0.1,0-0.1c0-0.1,0.1-0.2,0.1-0.2c0,0,0,0,0,0c0-0.1,0.1-0.3,0.1-0.4c0,0,0-0.1,0-0.1c0-0.1,0-0.2,0.1-0.3c0,0,0-0.1,0-0.2
		c0-0.1,0-0.2,0.1-0.3c0,0,0-0.1,0-0.1c0-0.1,0-0.3,0.1-0.4c0,0,0,0,0,0c0-0.1,0-0.3,0-0.4c0.3-3,0.6-6,0.9-9
		C116.5,95.8,116.5,95.9,116.5,96.1z"/>
</g>
</svg>
