<?xml version="1.0" encoding="utf-8"?>
<!-- Generator: Adobe Illustrator 16.0.0, SVG Export Plug-In . SVG Version: 6.00 Build 0)  -->
<!DOCTYPE svg PUBLIC "-//W3C//DTD SVG 1.1//EN" "http://www.w3.org/Graphics/SVG/1.1/DTD/svg11.dtd">
<svg version="1.1" id="Layer_1" xmlns="http://www.w3.org/2000/svg" xmlns:xlink="http://www.w3.org/1999/xlink" x="0px" y="0px"
	 width="100px" height="100px" viewBox="0 0 100 100" enable-background="new 0 0 100 100" xml:space="preserve">
<g>
	<g>
		<path fill="#00ADEE" d="M81.767,82.264c-4.495-0.588-8.907-1.872-12.96-3.874c-4.05-2.008-7.691-4.747-10.881-7.938
			c-1.601-1.585-3.096-3.286-4.51-5.056c-0.717-0.881-1.408-1.775-2.092-2.685l-1.01-1.373c-0.334-0.451-0.628-0.882-0.902-1.346
			c-1.12-1.831-1.817-3.895-2.213-6.032c-0.41-2.139-0.499-4.352-0.438-6.579c0.068-2.227,0.253-4.481,0.479-6.764
			c0.205-2.267,0.464-4.576,0.492-6.947c0.013-1.195-0.021-2.397-0.185-3.628c-0.17-1.223-0.471-2.473-1.052-3.682
			c-0.088-0.185-0.136-0.273-0.218-0.423l-0.199-0.369l-0.369-0.737c-0.239-0.499-0.465-0.99-0.676-1.497
			c-0.417-1.01-0.758-2.036-1.011-3.074c-0.505-2.077-0.608-4.208-0.116-6.238c0.232-1.017,0.615-2.001,1.106-2.951
			c0.485-0.957,1.08-1.872,1.722-2.808l0.013-0.027c0.021-0.028,0.041-0.068,0.069-0.103c0.273-0.546,0.068-1.209-0.472-1.496
			c-0.901-0.465-1.865-0.854-2.875-1.093c-1.018-0.247-2.077-0.349-3.129-0.26c-1.065,0.088-2.104,0.354-3.061,0.786
			c-0.478,0.218-0.937,0.471-1.373,0.765c-0.206,0.136-0.403,0.286-0.598,0.443c-0.32-0.252-0.649-0.484-0.994-0.717
			c-0.584-0.375-1.203-0.71-1.861-0.983c-0.657-0.267-1.353-0.479-2.098-0.567l-0.143-0.014l-0.134-0.02
			c-0.119-0.007-0.232-0.007-0.355,0c-0.243,0.014-0.492,0.061-0.735,0.157c-0.481,0.191-0.871,0.553-1.11,0.936
			c-0.488,0.785-0.554,1.584-0.54,2.316c0.023,0.744,0.181,1.448,0.396,2.118c0.434,1.332,1.147,2.527,1.978,3.593
			c0.837,1.066,1.811,2.008,2.856,2.835c1.025,0.772,1.954,1.612,2.733,2.589c0.782,0.984,1.39,2.104,1.732,3.306
			c0.334,1.195,0.409,2.521,0.061,3.723l-0.007,0.014c-0.013,0.075,0.021,0.15,0.088,0.177c0.083,0.027,0.165-0.007,0.191-0.082
			c0.472-1.278,0.492-2.65,0.226-3.969c-0.267-1.319-0.86-2.562-1.625-3.654c-0.766-1.1-1.722-2.077-2.726-2.924
			c-0.946-0.827-1.811-1.75-2.521-2.767c-0.71-1.011-1.281-2.118-1.602-3.272c-0.165-0.567-0.263-1.154-0.256-1.708
			c0-0.546,0.119-1.093,0.348-1.407c0.116-0.157,0.235-0.246,0.362-0.287c0.061-0.02,0.136-0.034,0.215-0.034
			c0.045,0,0.086,0.007,0.134,0.014l0.201,0.027c0.547,0.088,1.096,0.28,1.626,0.519c0.533,0.247,1.052,0.554,1.541,0.896
			c0.492,0.341,0.994,0.737,1.383,1.121c0.366,0.348,0.943,0.355,1.312,0l0.041-0.042c0.035-0.027,0.123-0.109,0.195-0.17
			c0.075-0.062,0.157-0.123,0.239-0.185c0.165-0.123,0.328-0.246,0.506-0.349c0.354-0.225,0.724-0.417,1.106-0.581
			c0.765-0.307,1.585-0.499,2.404-0.533c1.243-0.068,2.494,0.206,3.689,0.71C43.749,8.681,43.339,9.323,42.977,10
			c-0.58,1.08-1.058,2.241-1.366,3.45c-0.641,2.433-0.574,5.001-0.013,7.385c0.267,1.189,0.642,2.337,1.1,3.458
			c0.225,0.56,0.464,1.106,0.724,1.646c0.13,0.267,0.26,0.533,0.397,0.799l0.205,0.396c0.047,0.096,0.13,0.26,0.171,0.342
			c0.403,0.86,0.649,1.865,0.785,2.91c0.13,1.045,0.158,2.139,0.13,3.238c-0.103,3.867-0.69,7.85-0.875,11.935
			c-1.612-0.772-3.191-1.62-4.687-2.583c-1.934-1.23-3.737-2.644-5.308-4.256c-1.568-1.612-2.897-3.436-3.815-5.403
			c-0.458-0.984-0.816-2.002-1.049-3.033c-0.116-0.52-0.198-1.039-0.249-1.551c-0.014-0.165-0.021-0.328-0.024-0.485
			c0.896-1.489,1.899-2.923,2.917-4.358c0.041-0.062,0.031-0.15-0.027-0.198c-0.065-0.048-0.158-0.042-0.208,0.02
			c-1.212,1.51-2.463,3.006-3.525,4.652c-1.072,1.639-1.954,3.429-2.551,5.315c-1.196,3.799-1.336,7.816-1.131,11.716
			c0.106,1.954,0.294,3.908,0.546,5.842c0.127,0.97,0.27,1.939,0.423,2.896c0.147,0.943,0.277,1.886,0.379,2.836
			c0.407,3.778,0.434,7.59-0.133,11.285c-0.57,3.696-1.79,7.263-3.737,10.363c-1.277,2.043-2.899,3.84-4.737,5.384
			c1.482-0.205,2.969-0.369,4.464-0.479c0.946-1.1,1.801-2.268,2.542-3.518c2.114-3.498,3.303-7.461,3.806-11.423
			c0.508-3.976,0.338-7.973-0.23-11.866c-0.139-0.977-0.311-1.947-0.495-2.903c-0.184-0.949-0.358-1.893-0.519-2.842
			c-0.318-1.886-0.595-3.785-0.776-5.684v-0.007c1.415,1.667,3.085,3.075,4.871,4.236c2.002,1.292,4.15,2.302,6.354,3.088
			c2.199,0.792,4.46,1.373,6.735,1.81c-2.22-0.676-4.393-1.482-6.456-2.486c-2.059-0.997-4.02-2.186-5.772-3.607
			c-1.742-1.415-3.276-3.061-4.42-4.912c-0.574-0.929-1.049-1.892-1.4-2.889c-0.051-0.144-0.093-0.281-0.134-0.417
			c0.004-0.178,0-0.356,0.007-0.526c0.055-1.899,0.27-3.791,0.748-5.623c0.175-0.676,0.387-1.345,0.629-2.001
			c0.345,0.84,0.751,1.646,1.212,2.404c1.274,2.111,2.924,3.922,4.759,5.445c1.834,1.517,3.846,2.773,5.943,3.819
			c1.64,0.819,3.327,1.509,5.049,2.11c-0.021,0.533-0.041,1.073-0.041,1.612c-0.014,2.35,0.123,4.734,0.615,7.098
			c0.499,2.364,1.394,4.681,2.719,6.736c0.327,0.505,0.696,1.012,1.065,1.476l1.08,1.347c0.73,0.9,1.475,1.789,2.239,2.657
			c1.53,1.748,3.129,3.436,4.844,5.021c3.416,3.156,7.312,5.849,11.554,7.768c4.221,1.968,8.757,3.143,13.342,3.737
			c0.887,0.115,1.782,0.19,2.671,0.259c0.369-0.321,0.785-0.593,1.258-0.806C84.309,82.558,83.037,82.441,81.767,82.264z"/>
		<path fill="#00ADEE" d="M56.148,65.104c0.192-0.097,0.362-0.198,0.52-0.322c0.532-0.416,0.833-1.024,0.833-1.693
			c0-1.312-1.079-2.453-2.31-2.453c-0.383,0-0.847,0.096-1.359,0.444c0.048-0.608-0.103-1.072-0.293-1.4
			c-0.389-0.676-1.169-1.101-2.022-1.101c-0.86,0-1.64,0.425-2.036,1.101c-0.19,0.328-0.34,0.792-0.287,1.4
			c-0.505-0.349-0.983-0.444-1.366-0.444c-1.229,0-2.308,1.142-2.308,2.453c0,0.669,0.3,1.277,0.84,1.693
			c0.157,0.124,0.328,0.226,0.512,0.315c-0.561,0.272-0.881,0.628-1.066,0.956c-0.396,0.677-0.369,1.564,0.055,2.309
			c0.437,0.744,1.188,1.21,1.967,1.21l0,0c0.383,0,0.861-0.103,1.366-0.451c-0.053,0.614,0.097,1.079,0.287,1.407
			c0.396,0.677,1.176,1.1,2.036,1.1c0.854,0,1.634-0.423,2.022-1.1c0.19-0.328,0.341-0.793,0.293-1.407
			c0.513,0.349,0.977,0.451,1.359,0.451l0,0c1.23,0,2.31-1.148,2.31-2.453C57.501,66.36,57.119,65.567,56.148,65.104z"/>
		<path fill="#FFFFFF" d="M50.232,67.323c-3.006,5.206-7.296-2.22-1.285-2.22c-6.012,0-1.721-7.426,1.285-2.221
			c-3.006-5.205,5.566-5.205,2.563,0c3.004-5.205,7.295,2.221,1.277,2.221c6.018,0,1.727,7.426-1.277,2.22
			C55.799,72.529,47.227,72.529,50.232,67.323z"/>
		<path fill="#FFDD15" d="M53.308,65.104c0,0.99-0.807,1.789-1.791,1.789c-0.997,0-1.804-0.799-1.804-1.789
			c0-0.991,0.807-1.79,1.804-1.79C52.501,63.313,53.308,64.112,53.308,65.104z"/>
		<path fill="#00ADEE" d="M60.965,75.412c0.103,0.088,0.197,0.163,0.308,0.226c0.376,0.204,0.799,0.231,1.188,0.068
			c0.752-0.321,1.156-1.224,0.855-1.934c-0.09-0.219-0.268-0.465-0.595-0.677c0.369-0.123,0.602-0.321,0.745-0.513
			c0.294-0.389,0.348-0.942,0.144-1.435c-0.212-0.498-0.644-0.847-1.134-0.908c-0.232-0.027-0.542,0-0.882,0.171
			c0.074-0.376,0.02-0.677-0.075-0.896c-0.301-0.71-1.217-1.052-1.975-0.737c-0.39,0.164-0.663,0.485-0.778,0.895
			c-0.035,0.124-0.049,0.246-0.062,0.376c-0.288-0.252-0.575-0.355-0.813-0.383c-0.484-0.061-0.99,0.165-1.318,0.595
			c-0.322,0.431-0.41,0.978-0.219,1.435l0,0c0.096,0.218,0.259,0.465,0.588,0.677c-0.362,0.123-0.588,0.313-0.738,0.512
			c-0.294,0.383-0.349,0.943-0.137,1.435c0.205,0.506,0.642,0.848,1.128,0.909c0.238,0.027,0.539,0,0.88-0.178
			c-0.073,0.382-0.021,0.676,0.077,0.901l0,0c0.292,0.711,1.223,1.06,1.974,0.73C60.562,76.505,60.931,76.088,60.965,75.412z"/>
		<path fill="#FFFFFF" d="M58.239,72.536c-3.744-0.479-0.492-4.763,0.969-1.285c-1.461-3.478,3.875-2.808,1.601,0.205
			c2.274-3.013,4.364,1.947,0.621,1.483c3.743,0.464,0.491,4.754-0.971,1.276c1.462,3.478-3.873,2.801-1.592-0.198
			C56.586,77.017,54.495,72.058,58.239,72.536z"/>
		<path fill="#FFDD15" d="M60.275,73.765c-0.574,0.247-1.237-0.02-1.477-0.594c-0.245-0.574,0.027-1.236,0.602-1.476
			s1.229,0.027,1.475,0.602C61.115,72.864,60.842,73.526,60.275,73.765z"/>
		<path fill="#00ADEE" d="M68.663,80.604c0.098,0.082,0.179,0.15,0.281,0.198c0.334,0.191,0.716,0.212,1.072,0.068
			c0.676-0.287,1.032-1.1,0.765-1.742c-0.082-0.191-0.245-0.417-0.533-0.607c0.329-0.103,0.533-0.288,0.663-0.451
			c0.266-0.355,0.321-0.861,0.131-1.306c-0.186-0.443-0.581-0.758-1.013-0.813c-0.219-0.021-0.49,0-0.791,0.15
			c0.062-0.335,0.013-0.602-0.068-0.799c-0.274-0.636-1.107-0.95-1.784-0.663c-0.348,0.144-0.593,0.438-0.703,0.807
			c-0.026,0.109-0.04,0.219-0.056,0.335c-0.259-0.233-0.511-0.322-0.723-0.35c-0.438-0.054-0.896,0.15-1.189,0.541
			c-0.294,0.382-0.369,0.881-0.19,1.291l0,0c0.075,0.197,0.232,0.423,0.526,0.601c-0.336,0.116-0.541,0.294-0.663,0.465
			c-0.274,0.348-0.314,0.847-0.137,1.298c0.191,0.451,0.588,0.751,1.025,0.813c0.21,0.026,0.478,0.007,0.792-0.158
			c-0.075,0.342-0.021,0.608,0.062,0.807l0,0c0.266,0.643,1.105,0.949,1.782,0.669C68.31,81.588,68.637,81.212,68.663,80.604z"/>
		<path fill="#FFFFFF" d="M66.218,78.015c-3.375-0.424-0.45-4.284,0.867-1.154c-1.317-3.13,3.492-2.521,1.441,0.178
			c2.051-2.699,3.922,1.762,0.562,1.339c3.36,0.423,0.438,4.283-0.875,1.147c1.313,3.136-3.484,2.527-1.441-0.178
			C64.729,82.052,62.843,77.591,66.218,78.015z"/>
		<path fill="#FFDD15" d="M68.042,79.128c-0.513,0.219-1.107-0.021-1.324-0.539c-0.212-0.52,0.02-1.107,0.539-1.325
			c0.512-0.213,1.106,0.02,1.325,0.539C68.801,78.314,68.555,78.909,68.042,79.128z"/>
		<path fill="#00ADEE" d="M76.199,83.213c0.075,0.055,0.144,0.11,0.226,0.157c0.259,0.15,0.56,0.165,0.841,0.048
			c0.525-0.226,0.812-0.867,0.607-1.373c-0.068-0.156-0.192-0.335-0.424-0.485c0.26-0.081,0.424-0.225,0.52-0.354
			c0.219-0.28,0.252-0.677,0.108-1.024c-0.15-0.356-0.465-0.602-0.806-0.643c-0.17-0.021-0.382-0.007-0.628,0.123
			c0.054-0.267,0.021-0.479-0.041-0.636c-0.22-0.505-0.876-0.752-1.408-0.526c-0.279,0.116-0.478,0.35-0.56,0.643
			c-0.021,0.082-0.033,0.171-0.042,0.26c-0.204-0.178-0.409-0.253-0.573-0.273c-0.342-0.041-0.696,0.116-0.935,0.424
			c-0.226,0.308-0.294,0.696-0.159,1.018l0,0c0.068,0.157,0.192,0.335,0.425,0.485c-0.26,0.082-0.425,0.226-0.526,0.355
			c-0.212,0.272-0.252,0.676-0.103,1.024c0.15,0.355,0.458,0.602,0.806,0.643c0.165,0.021,0.384,0.007,0.623-0.123
			c-0.063,0.266-0.016,0.478,0.047,0.635l0,0c0.219,0.506,0.868,0.751,1.407,0.525C75.919,83.986,76.178,83.692,76.199,83.213z"/>
		<path fill="#FFFFFF" d="M74.266,81.164c-2.657-0.335-0.348-3.375,0.683-0.908c-1.03-2.467,2.761-1.988,1.135,0.143
			c1.626-2.131,3.102,1.387,0.444,1.052c2.657,0.335,0.355,3.376-0.684,0.909c1.039,2.467-2.753,1.987-1.141-0.144
			C73.091,84.347,71.608,80.829,74.266,81.164z"/>
		<path fill="#FFDD15" d="M75.707,82.045c-0.402,0.164-0.867-0.021-1.046-0.43c-0.177-0.403,0.016-0.874,0.425-1.046
			c0.409-0.163,0.875,0.021,1.052,0.431C76.302,81.403,76.111,81.874,75.707,82.045z"/>
	</g>
	<g>
		<path fill="#00ADEE" d="M93.98,87.448c0,0.157-18.389,0.281-41.07,0.281c-22.69,0-41.078-0.124-41.078-0.281
			c0-0.163,18.388-0.287,41.078-0.287C75.592,87.161,93.98,87.285,93.98,87.448L93.98,87.448z"/>
		<path fill="#00ADEE" d="M40.272,91.33c0.82-0.698,1.353-1.578,1.612-2.419c0.267-0.842,0.267-1.675,0.129-2.358
			c-0.15-0.689-0.43-1.249-0.73-1.68c-0.308-0.43-0.642-0.745-0.943-0.978c-0.608-0.471-1.065-0.668-1.346-0.833
			c-0.28-0.15-0.389-0.272-0.409-0.361c-0.034-0.191,0.321-0.314,0.239-0.465c-0.041-0.075-0.191-0.163-0.601-0.246l-0.13-0.021
			l-0.034-0.006l-0.068-0.007l-0.096-0.008c-0.129-0.014-0.28-0.026-0.443-0.026c-0.335,0.006-0.738,0.041-1.223,0.156
			c-0.475,0.109-0.957,0.308-1.427,0.594c-0.458,0.294-0.926,0.69-1.299,1.17c-0.358,0.45-0.7,0.983-0.963,1.611
			c-0.266,0.642-0.458,1.387-0.468,2.187c-0.011,0.813,0.174,1.68,0.587,2.472c0.41,0.794,1.042,1.49,1.811,2.029
			c1.526,1.095,3.576,1.873,5.994,1.859c1.203,0,2.494-0.179,3.826-0.568c1.339-0.362,2.678-1.023,4.017-1.933
			c1.352-0.908,2.691-2.049,4.195-3.252c1.503-1.216,3.21-2.438,5.171-3.443c0.99-0.505,2.042-0.956,3.177-1.284
			c1.134-0.341,2.363-0.56,3.647-0.519c1.284,0.047,2.638,0.396,3.826,1.147c1.188,0.752,2.165,1.886,2.896,3.171
			c0.177,0.3,0.355,0.641,0.506,1.01c0.136,0.362,0.26,0.731,0.341,1.114c0.164,0.765,0.219,1.592,0.056,2.403
			c-0.164,0.807-0.588,1.613-1.258,2.125c-0.655,0.506-1.462,0.738-2.262,0.731c-0.798-0.021-1.599-0.274-2.26-0.752
			c-0.67-0.478-1.183-1.209-1.435-2.029c-0.254-0.812-0.199-1.742,0.219-2.479c0.402-0.752,1.092-1.277,1.87-1.545
			c-0.614,0.186-1.324,0.568-1.837,1.333c-0.252,0.376-0.431,0.847-0.491,1.38c-0.062,0.525,0.007,1.101,0.218,1.653
			c0.104,0.272,0.226,0.546,0.391,0.805c0.17,0.254,0.367,0.5,0.6,0.719c0.451,0.438,1.039,0.785,1.682,0.963
			c0.648,0.197,1.38,0.239,2.097,0.069c0.718-0.186,1.456-0.582,1.989-1.271c0.539-0.683,0.805-1.585,0.847-2.467
			c0.047-0.88-0.097-1.775-0.383-2.615c-0.075-0.22-0.157-0.432-0.261-0.637c-0.04-0.108-0.095-0.211-0.15-0.314l-0.15-0.28
			c-0.203-0.396-0.436-0.765-0.703-1.126c-0.52-0.745-1.153-1.435-1.919-2.002c-0.765-0.566-1.653-1.011-2.597-1.257
			c-0.929-0.26-1.913-0.335-2.883-0.28c-1.939,0.116-3.825,0.731-5.609,1.578c-1.782,0.827-3.49,1.913-5.115,3.136
			c-1.627,1.209-3.144,2.5-4.762,3.525c-0.806,0.511-1.647,0.955-2.494,1.291c-0.847,0.321-1.776,0.546-2.712,0.677
			c-1.865,0.272-3.771,0.129-5.479-0.608c-0.417-0.191-0.827-0.41-1.23-0.67c-0.383-0.247-0.785-0.561-1.076-0.84
			c-0.625-0.614-1.049-1.373-1.144-2.192c-0.103-0.827,0.123-1.709,0.611-2.487c0.119-0.177,0.253-0.376,0.4-0.553l0.116-0.137
			l0.051-0.063l0.065-0.075c0.061-0.055,0.147-0.137,0.222-0.198c0.324-0.286,0.707-0.512,1.124-0.668
			c0.417-0.159,0.861-0.254,1.312-0.261l0.17-0.007c0.035,0,0.124,0.007,0.185,0.007c0.116,0,0.212,0.007,0.335,0.02
			c0.232,0.028,0.451,0.068,0.677,0.131c0.874,0.238,1.667,0.793,2.159,1.618c0.499,0.807,0.67,1.846,0.485,2.856
			C41.543,89.655,41.01,90.605,40.272,91.33L40.272,91.33z"/>
		<path fill="#00ADEE" d="M22.086,88.952c0.567-0.491,0.939-1.086,1.113-1.674c0.185-0.588,0.185-1.154,0.09-1.625
			c-0.1-0.486-0.291-0.869-0.506-1.17c-0.211-0.3-0.44-0.519-0.646-0.683c-0.423-0.32-0.744-0.458-0.932-0.566
			c-0.194-0.117-0.273-0.186-0.28-0.254c-0.027-0.135,0.219-0.211,0.161-0.32c-0.028-0.048-0.134-0.123-0.414-0.171l-0.093-0.014
			h-0.027l-0.041-0.014h-0.065c-0.096-0.007-0.198-0.014-0.314-0.014c-0.226,0-0.509,0.027-0.841,0.103
			c-0.328,0.082-0.662,0.219-0.984,0.416c-0.321,0.199-0.649,0.472-0.901,0.801c-0.253,0.307-0.485,0.683-0.67,1.119
			c-0.185,0.444-0.317,0.95-0.321,1.517c-0.01,0.554,0.116,1.155,0.403,1.701c0.284,0.547,0.724,1.032,1.253,1.408
			c1.059,0.759,2.476,1.291,4.147,1.283c0.833,0,1.721-0.129,2.646-0.39c0.93-0.266,1.852-0.717,2.781-1.345
			c0.932-0.623,1.861-1.421,2.899-2.248c1.039-0.847,2.217-1.687,3.573-2.378c0.684-0.341,1.411-0.662,2.203-0.894
			c0.778-0.232,1.633-0.376,2.528-0.35c0.881,0.027,1.817,0.268,2.637,0.801c0.82,0.511,1.497,1.284,2.002,2.171
			c0.123,0.219,0.245,0.458,0.348,0.712c0.096,0.238,0.178,0.497,0.232,0.765c0.124,0.533,0.158,1.105,0.041,1.66
			c-0.108,0.566-0.409,1.121-0.86,1.475c-0.458,0.343-1.018,0.513-1.571,0.5c-0.546-0.007-1.1-0.186-1.564-0.513
			c-0.458-0.335-0.813-0.841-0.99-1.4c-0.178-0.567-0.13-1.209,0.15-1.722c0.273-0.52,0.765-0.882,1.297-1.065
			c-0.43,0.137-0.915,0.389-1.27,0.922c-0.178,0.266-0.301,0.588-0.342,0.948c-0.041,0.376,0.007,0.767,0.15,1.149
			c0.068,0.184,0.165,0.383,0.274,0.553c0.116,0.184,0.252,0.348,0.409,0.506c0.321,0.308,0.717,0.533,1.168,0.662
			c0.444,0.137,0.95,0.163,1.449,0.041c0.499-0.116,1.004-0.396,1.373-0.875c0.375-0.471,0.56-1.092,0.587-1.707
			c0.034-0.607-0.068-1.223-0.273-1.811c-0.048-0.15-0.109-0.301-0.164-0.431c-0.041-0.075-0.068-0.15-0.109-0.226l-0.109-0.197
			c-0.137-0.267-0.307-0.526-0.479-0.779c-0.361-0.505-0.806-0.984-1.338-1.38c-0.526-0.396-1.134-0.696-1.79-0.86
			c-0.643-0.179-1.326-0.232-1.995-0.199c-1.339,0.082-2.644,0.507-3.88,1.086c-1.23,0.575-2.415,1.326-3.539,2.166
			c-1.12,0.848-2.175,1.735-3.296,2.445c-0.553,0.356-1.126,0.663-1.721,0.889c-0.588,0.226-1.233,0.376-1.875,0.478
			c-1.288,0.179-2.61,0.082-3.785-0.429c-0.296-0.131-0.581-0.28-0.85-0.458c-0.267-0.179-0.543-0.391-0.749-0.588
			c-0.43-0.411-0.724-0.943-0.789-1.517c-0.071-0.561,0.083-1.169,0.417-1.708c0.086-0.136,0.178-0.266,0.284-0.383l0.079-0.102
			l0.038-0.042l0.041-0.054c0.041-0.042,0.103-0.09,0.154-0.137c0.226-0.206,0.492-0.355,0.776-0.465
			c0.287-0.109,0.597-0.172,0.904-0.179h0.124c0.023,0,0.082,0,0.123,0c0.085,0,0.153,0.007,0.232,0.022
			c0.164,0.006,0.314,0.04,0.472,0.081c0.604,0.164,1.154,0.554,1.492,1.121c0.338,0.56,0.461,1.283,0.335,1.975
			C22.964,87.791,22.595,88.438,22.086,88.952L22.086,88.952z"/>
		<path fill="#00ADEE" d="M83.584,88.952c-0.573-0.491-0.942-1.086-1.121-1.674c-0.19-0.588-0.19-1.154-0.082-1.625
			c0.097-0.486,0.287-0.869,0.506-1.17c0.206-0.3,0.438-0.519,0.642-0.683c0.425-0.32,0.745-0.458,0.931-0.566
			c0.197-0.117,0.272-0.186,0.285-0.254c0.028-0.135-0.217-0.211-0.163-0.32c0.035-0.048,0.13-0.123,0.417-0.171l0.089-0.014h0.026
			l0.042-0.014h0.068c0.082-0.007,0.19-0.014,0.308-0.014c0.226,0,0.506,0.027,0.84,0.103c0.327,0.082,0.67,0.219,0.99,0.416
			c0.314,0.199,0.644,0.472,0.896,0.801c0.246,0.307,0.484,0.683,0.67,1.119c0.19,0.444,0.314,0.95,0.327,1.517
			c0,0.554-0.123,1.155-0.409,1.701c-0.287,0.547-0.725,1.032-1.258,1.408c-1.052,0.759-2.467,1.291-4.141,1.283
			c-0.833,0-1.72-0.129-2.65-0.39c-0.929-0.266-1.851-0.717-2.772-1.345c-0.937-0.623-1.872-1.421-2.911-2.248
			c-1.03-0.847-2.213-1.687-3.566-2.378c-0.683-0.341-1.413-0.662-2.199-0.894c-0.792-0.232-1.639-0.376-2.527-0.35
			c-0.889,0.027-1.817,0.268-2.637,0.801c-0.827,0.511-1.504,1.284-2.008,2.171c-0.124,0.219-0.247,0.458-0.35,0.712
			c-0.095,0.238-0.17,0.497-0.238,0.765c-0.11,0.533-0.15,1.105-0.035,1.66c0.116,0.566,0.417,1.121,0.868,1.475
			c0.451,0.343,1.011,0.513,1.557,0.5c0.562-0.007,1.107-0.186,1.572-0.513c0.464-0.335,0.819-0.841,0.99-1.4
			c0.17-0.567,0.13-1.209-0.15-1.722c-0.279-0.52-0.759-0.882-1.291-1.065c0.424,0.137,0.915,0.389,1.271,0.922
			c0.171,0.266,0.294,0.588,0.341,0.948c0.042,0.376-0.013,0.767-0.15,1.149c-0.066,0.184-0.163,0.383-0.278,0.553
			c-0.117,0.184-0.246,0.348-0.411,0.506c-0.32,0.308-0.717,0.533-1.161,0.662c-0.45,0.137-0.948,0.163-1.454,0.041
			c-0.493-0.116-1.004-0.396-1.366-0.875c-0.383-0.471-0.562-1.092-0.595-1.707c-0.035-0.607,0.068-1.223,0.266-1.811
			c0.055-0.15,0.109-0.301,0.179-0.431c0.033-0.075,0.068-0.15,0.108-0.226l0.097-0.197c0.15-0.267,0.314-0.526,0.491-0.779
			c0.355-0.505,0.807-0.984,1.333-1.38c0.525-0.396,1.141-0.696,1.782-0.86c0.656-0.179,1.339-0.232,2.009-0.199
			c1.338,0.082,2.636,0.507,3.867,1.086c1.235,0.575,2.418,1.326,3.552,2.166c1.119,0.848,2.165,1.735,3.292,2.445
			c0.554,0.356,1.121,0.663,1.723,0.889c0.588,0.226,1.229,0.376,1.87,0.478c1.291,0.179,2.611,0.082,3.785-0.429
			c0.301-0.131,0.581-0.28,0.855-0.458c0.266-0.179,0.539-0.391,0.744-0.588c0.43-0.411,0.724-0.943,0.792-1.517
			c0.068-0.561-0.082-1.169-0.424-1.708c-0.082-0.136-0.171-0.266-0.279-0.383l-0.075-0.102l-0.042-0.042l-0.04-0.054
			c-0.041-0.042-0.097-0.09-0.15-0.137c-0.225-0.206-0.492-0.355-0.779-0.465c-0.286-0.109-0.595-0.172-0.902-0.179h-0.122
			c0,0-0.088,0-0.123,0c-0.089,0-0.15,0.007-0.232,0.022c-0.164,0.006-0.314,0.04-0.478,0.081c-0.602,0.164-1.147,0.554-1.49,1.121
			c-0.341,0.56-0.464,1.283-0.327,1.975C82.695,87.791,83.064,88.438,83.584,88.952L83.584,88.952z"/>
		<path fill="#00ADEE" d="M94.925,86.226c-0.486,0-0.869,0.451-0.869,1.011c0,0.555,0.383,1.012,0.869,1.012
			c0.471,0,0.86-0.457,0.86-1.012C95.785,86.677,95.396,86.226,94.925,86.226L94.925,86.226z M94.925,88.521
			c-0.637,0-1.147-0.579-1.147-1.284c0-0.703,0.511-1.283,1.147-1.283c0.628,0,1.141,0.58,1.141,1.283
			C96.065,87.941,95.553,88.521,94.925,88.521L94.925,88.521z"/>
		<path fill="#00ADEE" d="M10.927,86.418c-0.471,0-0.864,0.458-0.864,1.004c0,0.56,0.393,1.004,0.864,1.004
			c0.485,0,0.872-0.444,0.872-1.004C11.798,86.876,11.412,86.418,10.927,86.418L10.927,86.418z M10.927,88.699
			c-0.628,0-1.141-0.567-1.141-1.277s0.513-1.284,1.141-1.284c0.635,0,1.148,0.574,1.148,1.284S11.562,88.699,10.927,88.699
			L10.927,88.699z"/>
		<path fill="#00ADEE" d="M9.212,86.889c-0.276,0-0.492,0.266-0.492,0.588c0,0.314,0.215,0.573,0.492,0.573
			c0.27,0,0.489-0.259,0.489-0.573C9.701,87.154,9.482,86.889,9.212,86.889L9.212,86.889z M9.212,88.323
			c-0.423,0-0.768-0.382-0.768-0.847c0-0.479,0.345-0.868,0.768-0.868s0.769,0.389,0.769,0.868
			C9.981,87.941,9.635,88.323,9.212,88.323L9.212,88.323z"/>
		<path fill="#00ADEE" d="M96.557,86.697c-0.266,0-0.491,0.267-0.491,0.581c0,0.327,0.226,0.588,0.491,0.588
			c0.273,0,0.486-0.261,0.486-0.588C97.043,86.964,96.83,86.697,96.557,86.697L96.557,86.697z M96.557,88.139
			c-0.43,0-0.771-0.39-0.771-0.86c0-0.465,0.342-0.854,0.771-0.854c0.417,0,0.765,0.389,0.765,0.854
			C97.321,87.749,96.974,88.139,96.557,88.139L96.557,88.139z"/>
		<path fill="#00ADEE" d="M94.911,86.644c-0.273,0-0.492,0.259-0.492,0.573c0,0.32,0.219,0.574,0.492,0.574
			c0.266,0,0.484-0.254,0.484-0.574C95.396,86.902,95.177,86.644,94.911,86.644L94.911,86.644z M94.911,88.078
			c-0.424,0-0.765-0.383-0.765-0.861c0-0.465,0.341-0.848,0.765-0.848c0.423,0,0.765,0.383,0.765,0.848
			C95.676,87.695,95.334,88.078,94.911,88.078L94.911,88.078z"/>
		<path fill="#00ADEE" d="M10.947,86.889c-0.266,0-0.492,0.266-0.492,0.588c0,0.314,0.226,0.58,0.492,0.58
			c0.273,0,0.492-0.266,0.492-0.58C11.439,87.154,11.221,86.889,10.947,86.889L10.947,86.889z M10.947,88.33
			c-0.427,0-0.765-0.382-0.765-0.854c0-0.466,0.338-0.854,0.765-0.854c0.42,0,0.772,0.389,0.772,0.854
			C11.719,87.948,11.368,88.33,10.947,88.33L10.947,88.33z"/>
	</g>
</g>
</svg>
