<?xml version="1.0" encoding="utf-8"?>
<!-- Generator: Adobe Illustrator 18.1.0, SVG Export Plug-In . SVG Version: 6.00 Build 0)  -->
<svg version="1.1" id="Layer_1" xmlns="http://www.w3.org/2000/svg" xmlns:xlink="http://www.w3.org/1999/xlink" x="0px" y="0px"
	 viewBox="0 0 2000 2000" enable-background="new 0 0 2000 2000" xml:space="preserve">
<g>
	<path fill="none" d="M1149.1,768.7c-10.7,0-24.8,16.3-8.6,16.3C1151.2,784.9,1165.3,768.7,1149.1,768.7z"/>
	<path fill="none" d="M1214,881.6c-13.6,0-18.5,17.2-2.2,17.2C1225.3,898.8,1230.2,881.6,1214,881.6z"/>
	<path fill="none" d="M1175.2,841.9c-5.1,0-27.3,10-15.4,10C1165,851.9,1187.1,841.9,1175.2,841.9z"/>
	<path fill="none" d="M1189.3,997.4c-13.3,0-18.7,16.5-2.4,16.5C1200.2,1013.9,1205.6,997.4,1189.3,997.4z"/>
	<path fill="none" d="M1207,1074.4c-10,0-25,15.2-8.9,15.2C1208.2,1089.6,1223.1,1074.4,1207,1074.4z"/>
	<path fill="none" d="M1236,778.1c-9.1,0-25.4,13.9-9.2,13.9C1235.9,792,1252.2,778.1,1236,778.1z"/>
	<path fill="none" d="M1320.4,1097.1c-10,0-25.1,15.1-8.9,15.1C1321.4,1112.2,1336.6,1097.1,1320.4,1097.1z"/>
	<path fill="none" d="M1279.1,997.8c-10.4,0-24.9,15.8-8.7,15.8C1280.8,1013.6,1295.3,997.8,1279.1,997.8z"/>
	<path fill="none" d="M1238.7,731c-13.6,0-18.4,17.4-2.2,17.4C1250.1,748.4,1254.9,731,1238.7,731z"/>
	<path fill="none" d="M1275.1,845.5c-10.1,0-25,15.2-8.9,15.2C1276.2,860.7,1291.2,845.5,1275.1,845.5z"/>
	<path fill="none" d="M1098.5,916.8c-13.5,0-18.5,17-2.3,17C1109.7,933.8,1114.8,916.8,1098.5,916.8z"/>
	<path fill="none" d="M1127.4,705.7c14.1,0,18-18.6,1.8-18.6C1115.2,687.1,1111.2,705.7,1127.4,705.7z"/>
	<path fill="none" d="M1436.7,903.8c7.1,0,26.1-10.6,10.1-10.6C1439.8,893.1,1420.7,903.8,1436.7,903.8z"/>
	<path fill="none" d="M1364.8,772.8c8.2,0,25.7-12.5,9.6-12.5C1366.1,760.2,1348.7,772.8,1364.8,772.8z"/>
	<path fill="none" d="M1458,836.2c10.3,0,24.9-15.7,8.7-15.7C1456.4,820.5,1441.8,836.2,1458,836.2z"/>
	<path fill="none" d="M1325.3,1029.9c-13.7,0-18.3,17.5-2.1,17.5C1336.8,1047.4,1341.5,1029.9,1325.3,1029.9z"/>
	<path fill="none" d="M1130.9,1033.8c-9.1,0-25.4,13.8-9.3,13.8C1130.7,1047.6,1147.1,1033.8,1130.9,1033.8z"/>
	<path fill="none" d="M1041.3,992.7c-4.8,0-27.2,9.5-15.6,9.5C1030.5,1002.2,1052.9,992.7,1041.3,992.7z"/>
	<path fill="none" d="M995,862.5v2c0,6.7,24,2.4,24-6.4v-2C1019,849.4,995,853.7,995,862.5z"/>
	<path fill="none" d="M1032.4,1091.6c-13.8,0-18.2,17.9-2,17.9C1044.2,1109.5,1048.6,1091.6,1032.4,1091.6z"/>
	<path fill="none" d="M1010.2,758.5c8.4,0,25.6-12.8,9.5-12.8C1011.2,745.6,994,758.5,1010.2,758.5z"/>
	<path fill="none" d="M1558.6,993.3c8.1,0,25.7-12.4,9.6-12.4C1560,980.9,1542.5,993.3,1558.6,993.3z"/>
	<path fill="none" d="M1475.2,975.5c5,0,27.3-9.8,15.5-9.8C1485.7,965.7,1463.5,975.5,1475.2,975.5z"/>
	<path fill="none" d="M1539.1,932.2c5,0,27.2-9.8,15.5-9.8C1549.6,922.5,1527.4,932.2,1539.1,932.2z"/>
	<path fill="none" d="M1528,1138.9c9.9,0,25.1-15,8.9-15C1527,1123.9,1511.8,1138.9,1528,1138.9z"/>
	<path fill="none" d="M1364.5,920.9c-13.5,0-18.5,16.9-2.3,16.9C1375.7,937.8,1380.8,920.9,1364.5,920.9z"/>
	<path fill="none" d="M456.3,1156.9c0,0-30.2,182.1,69.8,310.3c100.3,128.3,252.8,150.7,252.8,150.7s-117.9-83.5-186.8-187.8
		C523.3,1325.6,456.3,1156.9,456.3,1156.9z"/>
	<path fill="none" d="M1581.7,1120.9c10.4,0,24.8-15.9,8.7-15.9C1580,1105,1565.6,1120.9,1581.7,1120.9z"/>
	<path fill="none" d="M1445.4,1025.8c-4.7,0-27.1,9.3-15.6,9.3C1434.5,1035,1456.9,1025.8,1445.4,1025.8z"/>
	<path fill="none" d="M1376.8,951.6c-13.7,0-18.3,17.5-2.1,17.5C1388.4,969.1,1393,951.6,1376.8,951.6z"/>
	<path fill="none" d="M1458.2,1097.9c-2.1,0.7-4.1,1.4-6.2,2.1c-0.9,0.3-10.8,4.3-7.2,6.4c4,2.4,11.5-0.3,15.3-1.6
		c2.1-0.7,4.1-1.4,6.1-2.1c0.9-0.3,10.8-4.3,7.2-6.4C1469.6,1094,1462.1,1096.6,1458.2,1097.9z"/>
	<path fill="none" d="M1562,1055.1c-8.2,0-25.7,12.5-9.6,12.5C1560.6,1067.6,1578.1,1055.1,1562,1055.1z"/>
	<path fill="#F0C518" d="M1902.5,1639.6c0.8,5.7,1.1,9.1,1.1,9.1S1903.6,1645.4,1902.5,1639.6z"/>
	<path fill="#6AA443" d="M881.6,646.3c0,0-85.8-58.2-75.3-138.5c0,0,35.2,58.8,99.2,102c0,0,83.2-302.3-268.7-351.6
		C636.8,258.2,545.1,558.7,881.6,646.3z"/>
	<path fill="#6AA443" d="M1146.3,431.3c-21.8,78.5-140.5,196.4-140.5,196.4c479-92.1,354.8-533.5,354.8-533.5
		C809,191.8,971.6,575.4,971.6,575.4C1074.5,540.9,1146.3,431.3,1146.3,431.3z"/>
	<path fill="#E6994B" d="M955,1541v305.3c118-0.2,252.8-5.3,396.7-17.8c0.3-0.5-0.4-1-0.1-1.5c78.9-75.2,149.8-173,200.7-284.9
		c18.2-0.1,36.3,1.9,54.6,2.1c3.3-1.8,6.4-3.3,9.9-3.3H955z"/>
	<path fill="#C32126" d="M596.9,617.4c-264.7,12.6-439.4,207-434.5,495.5c4.9,400,359.3,737.8,606.9,737.8
		c60.9,0,120.5,0.7,159.1-8.8l13.5-2.2V692.1C863,652.8,748.9,610.2,596.9,617.4z M778.9,1617.9c0,0-152.5-22.4-252.8-150.7
		c-100.1-128.2-69.8-310.3-69.8-310.3s66.9,168.7,135.8,273.2C661.1,1534.4,778.9,1617.9,778.9,1617.9z"/>
	<path fill="#F0C518" d="M1730.7,1429.4c-59.4-25.7-53.9-52.6-131.9-47.4c-35.6,2.4-330.8,5.7-643.8,8.7v40
		c313-6,638.8,1.1,714.3,45.9c114.1,67.7,135,138.3,139.2,162.9C1804,1601.1,1782.4,1451.7,1730.7,1429.4z"/>
	<path fill="#589944" d="M1706.6,1279.9c3.7-14.4,3.8-18.6,0-24.7c-3.8-6.2-5.8-24.8-5.8-24.8S1412,1190,955,1193.1v81.3
		c0,7.1,15.6,14.5,21.5,16.8c7.9,3.1,5.2-7.2,18.2,0c13,7.2-22.7,15.5,47.8,0c70.6-15.5,46.2-15.5,81.5-15.5
		c35.3,0,44.4,4.2,55.6,15.5c11.2,11.3,68.6,3.1,92.8,25.8c1,0.9,1.7,1.7,2.6,2.6c14.7,4.3,29,13.4,41,23c10.7-4.3,14.4-2,21.3-15.2
		c7.4-14.4,24.1-28.9,31.6-36.1c7.4-7.2-22.3,7.2,7.4-7.2c29.7-14.4,11.1-8.3,29.7-14.4c18.6-6.2,42.7-8.3,52,2
		c9.3,10.3,16.7,12.4,27.9,19.6c11.1,7.2,13,11.4,27.8,0c14.8-11.3,35.3-1,102.1,15.5c66.8,16.5,57.5,10.3,74.2,26.8
		c16.7,16.5,20.4,50.3,57.6,47.8c37.1-2.4,37.1-2.4,37.1-2.4s-18.6-41.3-46.4-63.9C1710.3,1292.3,1703,1294.3,1706.6,1279.9z"/>
	<path fill="#E4A923" d="M1650,1487.2c0,0,5.6,1,0.9-5.2c-4.6-6.2-0.9-3.3-8.4-7.9c-7.4-4.5-331.4-42-492.5-28.8
		c-50.3,4.2-117,6.9-195,9v73.6h692.2l9.3-17.3c0,0,0.9-12.8,0-15.9C1655.5,1491.7,1650,1487.2,1650,1487.2z"/>
	<path fill="#DB2727" d="M1260,1317c-20.5,0-161,0.8-305,2.4v65.3c183-2.3,396.4-7.9,394.7-10.6c-1.6-2.4-15.2-17.5-32.9-31.6
		c-12-9.6-25.9-18.7-40.6-23C1270.6,1318,1265.5,1317,1260,1317z"/>
	<path fill="#E6994B" d="M1659.2,1198.1c-4.8-0.7-9.6-1.2-14.4-1.4c5.3,0.5,10.8,1.1,15.8,1.6c0-0.5,0-0.9,0-1.4
		C1649.3,1196,1632.7,1194.2,1659.2,1198.1z"/>
	<path fill="#E6994B" d="M1201.8,671.4c-98.4-5-181.8,12.6-246.8,37v-3.1l0,0v253.8c0-2.2,5.3-3.9,8.5-3.9c16.2,0,1,14.2-8.3,14.2
		c-0.5,0-0.2-0.1-0.2-0.1v194.9c287-1.5,524.7,15.4,678.3,30.9C1636.2,890.1,1463.4,684.7,1201.8,671.4z M1466.7,820.5
		c16.2,0,1.6,15.7-8.7,15.7C1441.8,836.2,1456.4,820.5,1466.7,820.5z M1446.8,893.1c16,0-3,10.6-10.1,10.6
		C1420.7,903.8,1439.8,893.1,1446.8,893.1z M1374.4,760.2c16.1,0-1.4,12.5-9.6,12.5C1348.7,772.8,1366.1,760.2,1374.4,760.2z
		 M1129.2,687.1c16.2,0,12.2,18.6-1.8,18.6C1111.2,705.7,1115.2,687.1,1129.2,687.1z M1019.7,745.6c16.1,0-1,12.8-9.5,12.8
		C994,758.5,1011.2,745.6,1019.7,745.6z M1019,858.1c0,8.8-24,13.1-24,6.4v-2c0-8.8,24-13.1,24-6.4V858.1z M1030.4,1109.5
		c-16.2,0-11.8-17.9,2-17.9C1048.6,1091.6,1044.2,1109.5,1030.4,1109.5z M1025.7,1002.2c-11.6,0,10.8-9.5,15.6-9.5
		C1052.9,992.7,1030.5,1002.2,1025.7,1002.2z M1096.3,933.8c-16.2,0-11.2-17,2.3-17C1114.8,916.8,1109.7,933.8,1096.3,933.8z
		 M1121.6,1047.6c-16.2,0,0.2-13.8,9.3-13.8C1147.1,1033.8,1130.7,1047.6,1121.6,1047.6z M1140.5,784.9c-16.1,0-2.1-16.3,8.6-16.3
		C1165.3,768.7,1151.2,784.9,1140.5,784.9z M1175.2,841.9c11.9,0-10.2,10-15.4,10C1147.9,851.9,1170,841.9,1175.2,841.9z
		 M1189.3,997.4c16.3,0,10.9,16.5-2.4,16.5C1170.7,1013.9,1176,997.4,1189.3,997.4z M1198.1,1089.6c-16.2,0-1.2-15.2,8.9-15.2
		C1223.1,1074.4,1208.2,1089.6,1198.1,1089.6z M1211.8,898.8c-16.2,0-11.4-17.2,2.2-17.2C1230.2,881.6,1225.3,898.8,1211.8,898.8z
		 M1226.8,792c-16.2,0,0.1-13.9,9.2-13.9C1252.2,778.1,1235.9,792,1226.8,792z M1236.5,748.4c-16.2,0-11.4-17.4,2.2-17.4
		C1254.9,731,1250.1,748.4,1236.5,748.4z M1275.1,845.5c16.1,0,1.1,15.2-8.9,15.2C1250,860.7,1265,845.5,1275.1,845.5z
		 M1270.4,1013.6c-16.2,0-1.7-15.8,8.7-15.8C1295.3,997.8,1280.8,1013.6,1270.4,1013.6z M1311.5,1112.2c-16.2,0-1.1-15.1,8.9-15.1
		C1336.6,1097.1,1321.4,1112.2,1311.5,1112.2z M1323.1,1047.4c-16.2,0-11.5-17.5,2.1-17.5
		C1341.5,1029.9,1336.8,1047.4,1323.1,1047.4z M1364.5,920.9c16.2,0,11.2,16.9-2.3,16.9C1346,937.8,1351.1,920.9,1364.5,920.9z
		 M1374.7,969.1c-16.2,0-11.6-17.5,2.1-17.5C1393,951.6,1388.4,969.1,1374.7,969.1z M1445.4,1025.8c11.5,0-11,9.3-15.6,9.3
		C1418.3,1035,1440.8,1025.8,1445.4,1025.8z M1466.3,1102.8c-2,0.7-4.1,1.4-6.1,2.1c-3.9,1.3-11.3,3.9-15.3,1.6
		c-3.5-2.1,6.4-6.1,7.2-6.4c2-0.7,4.1-1.4,6.2-2.1c3.8-1.3,11.3-4,15.3-1.6C1477.1,1098.5,1467.2,1102.5,1466.3,1102.8z
		 M1552.4,1067.6c-16.1,0,1.4-12.5,9.6-12.5C1578.1,1055.1,1560.6,1067.6,1552.4,1067.6z M1590.4,1105c16.1,0,1.7,15.9-8.7,15.9
		C1565.6,1120.9,1580,1105,1590.4,1105z M1558.6,993.3c-16.1,0,1.4-12.4,9.6-12.4C1584.3,980.9,1566.8,993.3,1558.6,993.3z
		 M1554.6,922.5c11.7,0-10.5,9.8-15.5,9.8C1527.4,932.2,1549.6,922.5,1554.6,922.5z M1536.9,1123.9c16.2,0,1,15-8.9,15
		C1511.8,1138.9,1527,1123.9,1536.9,1123.9z M1475.2,975.5c-11.7,0,10.5-9.8,15.5-9.8C1502.5,965.7,1480.2,975.5,1475.2,975.5z"/>
	<path fill="#D78A43" d="M955,694.5v9.7v4.1c65-24.4,150-42,248.4-37C1465,684.7,1634,890.1,1634,1195.2c0,0.4,0,0.9,0,1.3
		c0-0.2,7.7-0.1,12.4,0.1c4.8,0.3,8.7,0.7,13.5,1.4c-26.5-3.9-10.3-2.1,1-1.2c2.8,0.2,5,0.4,6.4,0.4c10.3,0.1,20.5,0,30.9-0.6
		c7.5-0.4,14.8-1.3,22.2-1.9c1.3-17,2.3-34,2.5-51.3c4.9-307.9-165.9-515.5-429-528.8C1143,607,1020,652.5,955,694.5z"/>
	<path fill="#D78A43" d="M1350.7,1827.1c-0.2,0.5-0.5,1-0.8,1.5c-0.5,1-1.1,2.1-1.6,3.1c5.2-0.7,10.5-1.2,16.1-1.2
		c2.5,0,4.8,0.2,7.3,0.4c92.1-68.6,179.6-168.8,244.2-288.5c-3.1,0-6.2,0-9.3,0c-18.3-0.2-36.6-0.2-54.8-0.1
		C1500.9,1654.1,1429.6,1751.9,1350.7,1827.1z"/>
</g>
</svg>
