<?xml version="1.0" encoding="utf-8"?>
<!-- Generator: Adobe Illustrator 18.1.0, SVG Export Plug-In . SVG Version: 6.00 Build 0)  -->
<svg version="1.0" id="Layer_1" xmlns="http://www.w3.org/2000/svg" xmlns:xlink="http://www.w3.org/1999/xlink" x="0px" y="0px"
	 viewBox="0 0 150 150" enable-background="new 0 0 150 150" xml:space="preserve">
<g>
	<g>
		<polygon fill="#009649" points="75.1,45.3 101.8,59.1 114.9,65.9 144.6,81.2 144.6,60.1 118.3,46.6 115.2,45 75.8,24.9 75.8,44.9 
					"/>
		<polygon fill="#00A550" points="46.9,59.9 53.4,56.5 70.5,47.7 75.1,45.3 75.8,44.9 75.8,24.9 75.8,24.3 75.1,24.6 74.5,24.9 
			5.7,60.1 5.7,81.2 25.1,71.2 		"/>
	</g>
	<g>
		<g>
			<path fill="#009649" d="M83.9,107.6l-0.1-0.1l-0.5-1.2l0.1-0.1c1.5-3.4,1.4-3.5,1.1-3.8l-2-2c-0.1-0.1-0.2-0.1-0.4-0.1
				c-0.1,0-0.5,0-3.4,1.4l-0.1,0l-1.2-0.5l-0.1-0.1c-1.4-3.4-1.5-3.4-1.9-3.4l-2.8,0c-0.3,0-0.5,0-1.8,3.4l0,0.1l-1.2,0.5l-0.1,0
				c-2-0.8-3.2-1.3-3.5-1.3c-0.1,0-0.3,0.1-0.4,0.1l-2,2c-0.3,0.3-0.4,0.4,1.2,3.7l0.1,0.1l-0.5,1.2l-0.1,0
				c-3.5,1.4-3.5,1.5-3.5,1.9l0,2.8c0,0.4,0,0.5,3.5,1.8l0.1,0l0.5,1.2l0,0.1c-1.5,3.4-1.4,3.5-1.1,3.7l2,2c0.1,0.1,0.2,0.1,0.3,0.1
				c0.1,0,0.5,0,3.4-1.3l0.1-0.1l1.2,0.5l0.1,0.1c1.4,3.4,1.5,3.4,1.9,3.4h2.8c0.4,0,0.5,0,1.8-3.5l0-0.1l1.2-0.5l0.1,0
				c2,0.8,3.2,1.3,3.5,1.3c0.1,0,0.3-0.1,0.4-0.1l2-2c0.3-0.3,0.4-0.4-1.2-3.7l-0.1-0.1l0.5-1.2l0.1,0c3.5-1.4,3.5-1.5,3.5-1.9
				l0-2.8C87.4,109,87.4,108.9,83.9,107.6z M74.1,115.3c-2.5,0-4.6-2-4.6-4.5c0-2.5,2-4.5,4.6-4.5c2.5,0,4.6,2,4.6,4.5
				C78.6,113.3,76.6,115.3,74.1,115.3z"/>
		</g>
	</g>
	<g>
		<g>
			<path fill="#009649" d="M108,108.6L108,108.6l-0.4-0.9l0-0.1c1-2.4,1-2.4,0.8-2.6l-1.4-1.4c-0.1-0.1-0.2-0.1-0.2-0.1
				c-0.1,0-0.3,0-2.4,0.9l-0.1,0l-0.8-0.3l0-0.1c-1-2.4-1.1-2.4-1.3-2.4h-2c-0.2,0-0.3,0-1.2,2.4l0,0.1l-0.8,0.3l-0.1,0
				c-1.4-0.6-2.2-0.9-2.4-0.9c-0.1,0-0.2,0.1-0.2,0.1l-1.4,1.4c-0.2,0.2-0.3,0.3,0.9,2.6l0,0.1l-0.3,0.8l-0.1,0
				c-2.5,0.9-2.5,1-2.5,1.3l0,1.9c0,0.2,0,0.3,2.5,1.2l0.1,0l0.3,0.8l0,0.1c-1,2.4-1,2.4-0.8,2.6l1.4,1.4c0.1,0.1,0.2,0.1,0.2,0.1
				c0.1,0,0.3,0,2.4-0.9l0.1,0l0.9,0.3l0,0.1c1,2.4,1.1,2.4,1.3,2.4h2c0.2,0,0.4,0,1.2-2.4l0-0.1l0.8-0.4l0.1,0
				c1.4,0.6,2.2,0.9,2.4,0.9c0.1,0,0.2,0,0.2-0.1l1.4-1.4c0.2-0.2,0.3-0.3-0.9-2.6l0-0.1l0.3-0.8l0.1,0c2.5-1,2.5-1.1,2.5-1.3l0-1.9
				C110.5,109.6,110.5,109.5,108,108.6z M101.2,114c-1.8,0-3.2-1.4-3.2-3.1c0-1.7,1.4-3.1,3.2-3.1c1.8,0,3.2,1.4,3.2,3.1
				C104.4,112.6,103,114,101.2,114z"/>
		</g>
	</g>
	<g>
		<g>
			<path fill="#009649" d="M54.2,108.6L54.2,108.6l-0.4-0.9l0-0.1c1-2.4,1-2.4,0.8-2.6l-1.4-1.4c-0.1-0.1-0.2-0.1-0.2-0.1
				c-0.1,0-0.3,0-2.4,0.9l-0.1,0l-0.8-0.3l0-0.1c-1-2.4-1.1-2.4-1.3-2.4h-2c-0.2,0-0.3,0-1.2,2.4l0,0.1l-0.8,0.3l-0.1,0
				c-1.4-0.6-2.2-0.9-2.4-0.9c-0.1,0-0.2,0.1-0.2,0.1l-1.4,1.4c-0.2,0.2-0.3,0.3,0.9,2.6l0,0.1l-0.3,0.8l-0.1,0
				c-2.5,0.9-2.5,1-2.5,1.3l0,1.9c0,0.2,0,0.3,2.5,1.2l0.1,0L41,114l0,0.1c-1,2.4-1,2.4-0.8,2.6l1.4,1.4c0.1,0.1,0.2,0.1,0.3,0.1
				c0.1,0,0.3,0,2.4-0.9l0.1,0l0.8,0.3l0,0.1c1,2.4,1.1,2.4,1.3,2.4h2c0.2,0,0.4,0,1.2-2.4l0-0.1l0.8-0.4l0.1,0
				c1.4,0.6,2.2,0.9,2.4,0.9c0.1,0,0.2,0,0.2-0.1l1.4-1.4c0.2-0.2,0.3-0.3-0.9-2.6l0-0.1l0.3-0.8l0.1,0c2.5-1,2.5-1.1,2.5-1.3v-1.9
				C56.7,109.6,56.7,109.5,54.2,108.6z M47.4,114c-1.8,0-3.2-1.4-3.2-3.1c0-1.7,1.4-3.1,3.2-3.1c1.8,0,3.2,1.4,3.2,3.1
				C50.6,112.6,49.2,114,47.4,114z"/>
		</g>
	</g>
	<g>
		<path fill="#009649" d="M125.2,80.3c0,0-3.4-7.6-25.4-7.3c0,0-22-22.1-66.4,2.8c0,0,1,4.8-2.7,4.8c-0.7,3.6-1.5,8.4,1,10.9
			c5.4,0,6,0,6,0c-0.1-0.6-0.2-1.2-0.2-1.8c0-4.5,3.7-8.2,8.2-8.2c4.5,0,8.2,3.7,8.2,8.2c0,0.6-0.1,1.2-0.2,1.8h1.3h39.7h5.3
			c-0.1-0.6-0.2-1.2-0.2-1.8c0-4.5,3.7-8.2,8.2-8.2c6.1,0,9.7,6.3,9,9.9l8.4-0.9C123.9,83.1,125.2,80.3,125.2,80.3z M62.9,74.3H43.4
			c0,0,8.1-3.8,19.5-6V74.3z M67.1,74.3v-6.7c16.3-2.4,29.2,6.7,29.2,6.7H67.1z"/>
		<path fill="#009649" d="M107.8,83.3c-3.5,0-6.3,2.8-6.3,6.3c0,3.5,2.8,6.3,6.3,6.3s7.2-2.8,7.2-6.3
			C115,86.1,111.3,83.3,107.8,83.3z M107.8,92.1c-1.3,0-2.4-1.1-2.4-2.4c0-1.3,1.1-2.4,2.4-2.4c1.3,0,2.4,1.1,2.4,2.4
			C110.2,91,109.1,92.1,107.8,92.1z"/>
		<path fill="#009649" d="M45.5,83.3c-3.5,0-6.3,2.8-6.3,6.3c0,3.5,2.8,6.3,6.3,6.3c3.5,0,6.3-2.8,6.3-6.3
			C51.8,86.1,49,83.3,45.5,83.3z M45.5,92.1c-1.3,0-2.4-1.1-2.4-2.4c0-1.3,1.1-2.4,2.4-2.4c1.3,0,2.4,1.1,2.4,2.4
			C47.9,91,46.8,92.1,45.5,92.1z"/>
	</g>
</g>
</svg>
