<?xml version="1.0" encoding="utf-8"?>
<!-- Generator: Adobe Illustrator 18.1.0, SVG Export Plug-In . SVG Version: 6.00 Build 0)  -->
<svg version="1.1" id="Layer_1" xmlns="http://www.w3.org/2000/svg" xmlns:xlink="http://www.w3.org/1999/xlink" x="0px" y="0px"
	 viewBox="0 0 150 150" enable-background="new 0 0 150 150" xml:space="preserve">
<g>
	<path fill="#009F4F" d="M75.2,3.7c-1.9,0.1-3.8,0.5-5.4,1.5l-13.3,7.7l18.7-2.6V3.7z"/>
	<path fill="#4CB972" d="M132.8,35.3l-20.7-11.9v2.6v0l-0.6,0.1v23.8l3.8,2.2v17.3v0v29.3l-3.8,2.2l-3.2,1.9l-8,4.6l-4.1,2.4l-8,4.6
		l-4,2.3l-8.3,4.8l-0.7,0.4l0,0v25.2l0,0h0c0,0,0,0,0,0c1.9-0.1,3.8-0.5,5.4-1.5l52.1-30.1c3.6-2.1,5.8-5.9,5.8-10.1V71.2V45.4
		C138.6,41.2,136.4,37.4,132.8,35.3z"/>
	<path fill="#4CB972" d="M79.2,9.8L97,14.6L80.7,5.2c-1.7-1-3.6-1.4-5.4-1.5c0,0,0,0,0,0c0,0,0,0,0,0h0v6.6L79.2,9.8z"/>
	<path fill="#CC2027" d="M40.7,22.3v6.4l-6,2.3v0v3.6v0l6,2.8V42v0l-6,3.3v4.6v0.1L37,51l3.7,1.7V55V55l-6,3.1v4.5v0.1l0.5,0.3
		l5.6,2.9v4.7v0.1l-5.6,2.2v5.2l5.6,3.1V102l7.1,4.1l0-35.3l6.5,2.9l0.1,36.2l4.3,2.5l0-36l6.5,3.2l-0.1,36.6l10.1,5.8l0.7-0.4
		l0-90.5l7.9-2l0.3,87.7l4-2.3l-0.1-86.7l8-2l0.1,84.1l4.1-2.4V24.7l8-2v80.1l3.2-1.9v-51V26.1v0l0.6-0.1v-2.6v-4.6v0L97,14.6
		L79.2,9.8l-4,0.5l-18.7,2.6L40.7,15v0.1v5.7v0V22V22.3L40.7,22.3z M54.3,68.6l-6.5-3.3V54.9l6.5,2.9V68.6z M54.3,52.7l-6.5-3.3V39
		l6.5,2.9V52.7z M54.3,36.8l-6.5-3.3V23.1l6.5,2.9V36.8z M65.2,74.4l-6.5-3.3V60.7l6.5,2.9V74.4z M65.2,57.7l-6.5-3.3V44l6.5,2.9
		V57.7z M58.7,37.8V27.3l6.5,2.9v10.8L58.7,37.8z M45.9,16.7l33.3-4.1l25.9,6.7l-33.5,7.4L45.9,16.7z"/>
	<path fill="#009F4F" d="M75.2,121.9L75.2,121.9l-10-5.8l-6.5-3.7l-4.3-2.5l-6.6-3.8l-7.1-4.1l-5.6-3.2V78.1v-5.2v-0.1v-1.3V63
		l-0.5-0.3v-0.1l0,0V58l0.5-0.2v-5.7L37,51l-2.3-1.1v-0.1l0,0v-4.7l6-3.2v-4.5l-6-2.8v0V31v0l6-2.3v-6.4v0V22l-23,13.3
		c-3.6,2.1-5.8,5.9-5.8,10.1v24.4v0v35.7c0,4.2,2.2,8,5.8,10.1l52.1,30.1c1.7,1,3.6,1.4,5.4,1.5V121.9z"/>
</g>
</svg>
