<?xml version="1.0" encoding="utf-8"?>
<!-- Generator: Adobe Illustrator 18.1.0, SVG Export Plug-In . SVG Version: 6.00 Build 0)  -->
<svg version="1.1" id="Layer_1" xmlns="http://www.w3.org/2000/svg" xmlns:xlink="http://www.w3.org/1999/xlink" x="0px" y="0px"
	 viewBox="0 0 150 150" enable-background="new 0 0 150 150" xml:space="preserve">
<g>
	<g>
		<path fill="#7095AC" d="M117.7,25.5c-3.6-2-16.8-8.4-40.7-8.4c-24.1,0-37.2,6.3-40.7,8.4v3.6L58,43.5c-1.5,1.1-3,2.4-4.3,3.8
			L36.3,35.7v4.1l15.2,10.1c-1.1,1.5-2.1,3-2.9,4.6l-12.3-8.1v4.1l10.8,7.2c-0.7,1.8-1.2,3.6-1.6,5.5l-9.2-6.1v4.1l8.7,5.8
			c-0.1,0.8-0.1,1.5-0.1,2.3c0,1.5,0.1,3,0.3,4.5l-9-5.9v21.5c0,5.1,6.9,14.5,18.4,25.1c11,10.1,20.5,16.1,22.4,16.4
			c1-0.2,4.2-2,8.6-5.1c-0.1-0.4,0.3-1.1-0.1-1.4c-0.2-0.2-0.3-0.3-0.5-0.5l1.3-1.3c0.2,0.2,0.3,0.3,0.5,0.5
			c0.4,0.4,1.3-0.2,1.7,0.2c0.1,0.1,0.1,0.2,0.1,0.3c3.2-2.5,6.9-5.5,10.7-9c11.5-10.6,18.4-19.9,18.4-25.1V67.9l-9,5.9
			c0.2-1.5,0.3-3,0.3-4.5c0-0.8,0-1.5-0.1-2.3l8.7-5.8v-4.1l-9.2,6.1c-0.4-1.9-0.9-3.8-1.6-5.5l10.8-7.2v-4.1l-12.3,8.1
			c-0.8-1.6-1.8-3.2-2.9-4.6l15.2-10.1v-4.1l-17.4,11.6c-1.3-1.4-2.7-2.6-4.3-3.8l21.7-14.4V25.5z M53.4,31.5l-1.6-1.2l-1.6,1.2
			l0.6-1.9l-1.6-1.2h2l0.6-1.9l0.6,1.9h2l-1.6,1.2L53.4,31.5z M45.2,88.2c-4.9-4.9-5.2-5.2-5.2-5.2c-1.6-1.6-1.6-4.1-0.1-5.7
			c1.6-1.5,4.1-1.5,5.7,0.1c0,0,0,0,0.4,0.4c0.5,0.5,1.8,1.8,4.8,4.8c3.6,3.6,8.4,10.4,12.9,16c0.3,0.4,0.6,0.7,0.9,1.1l-2.4,2.4
			C56.5,97.3,49.1,92.1,45.2,88.2z M65.2,100.3c0.3,0.3,0.6,0.7,0.9,1l-2.1,2.2c-0.3-0.3-0.7-0.6-1-0.9L65.2,100.3z M63.9,115.4h2.4
			l0.7-2.2l0.7,2.2h2.4l-1.9,1.4l0.7,2.2l-1.9-1.4l-1.9,1.4l0.7-2.2L63.9,115.4z M70,124.3c-0.4,0.4,0.2,1.3-0.2,1.7
			c-0.7,0.7-3.4-2.1-2.8-2.8c0.4-0.4,1.2,0.2,1.7-0.2c0.2-0.2,0.3-0.3,0.5-0.5l1.3,1.3C70.3,123.9,70.1,124.1,70,124.3z M88.9,119
			l-1.9-1.4l-1.9,1.4l0.7-2.2l-1.9-1.4h2.4l0.7-2.2l0.7,2.2h2.4l-1.9,1.4L88.9,119z M89.1,105.8c-2.4,2.4-6.2,6-9.6,9.4
			c2.8,2.9,5.2,5.5,6.3,6.6c0,0,0.1,0.1,0.1,0.1l-1.3,1.3c0,0-0.1-0.1-0.1-0.1c-1.1-1.1-3.7-3.5-6.6-6.3c-2.9,2.8-5.5,5.3-6.6,6.3
			c0,0-0.1,0.1-0.1,0.1l-1.3-1.3c0,0,0.1-0.1,0.1-0.1c1.1-1.1,3.5-3.7,6.3-6.6c-3.5-3.3-7.2-6.9-9.6-9.4c-0.6-0.6-1.3-1.2-2-1.9
			l2.1-2.1c0.6,0.7,1.3,1.4,1.9,2c2.4,2.4,6,6.1,9.3,9.6c3.3-3.5,6.9-7.2,9.3-9.6c0.6-0.6,1.2-1.3,1.9-2l2.1,2.1
			C90.3,104.6,89.7,105.2,89.1,105.8z M91.6,103.5l-2.2-2.1c0.3-0.3,0.6-0.7,0.9-1l2.3,2.3C92.3,102.9,92,103.2,91.6,103.5z
			 M107.2,80.1c2.4-2.4,2.6-2.6,2.6-2.6c1.6-1.6,4.1-1.6,5.7-0.1c1.5,1.6,1.5,4.1-0.1,5.7c0,0-0.3,0.3-5.2,5.2
			c-3.8,3.8-11.3,9-17,13.8l-2.4-2.4c0.7-0.8,1.3-1.6,2-2.4c4.2-5.3,8.5-11.3,11.9-14.6C105.8,81.6,106.6,80.8,107.2,80.1z M97.7,49
			c0.8,0.8,1.6,1.7,2.3,2.6c1.1,1.4,2.1,3,2.9,4.7c0.5,1,1,2.1,1.4,3.2c0.6,1.8,1.1,3.7,1.4,5.7c0.2,1.3,0.3,2.5,0.3,3.8
			c0,0,0,0.1,0,0.1c0,2.5-0.3,4.9-1,7.2c-3.3,12.1-14.3,21.1-27.5,21.1c-12.8,0-23.7-8.5-27.2-20.2c-0.7-2.4-1.1-4.8-1.2-7.4
			c0-0.3,0-0.6,0-0.9c0-1.1,0.1-2.1,0.2-3.2c0.2-2,0.7-3.9,1.3-5.8c0.4-1.1,0.8-2.2,1.3-3.3c0.8-1.7,1.7-3.2,2.8-4.7
			c0.7-0.9,1.4-1.8,2.2-2.6c1.3-1.4,2.8-2.6,4.3-3.7c4.6-3.2,10.2-5.2,16.3-5.2c5.8,0,11.3,1.8,15.8,4.8
			C94.9,46.4,96.4,47.6,97.7,49z M103.9,31.5l-1.6-1.2l-1.6,1.2l0.6-1.9l-1.6-1.2h2l0.6-1.9l0.6,1.9h2l-1.6,1.2L103.9,31.5z"/>
	</g>
	<g>
		<path fill="#00303E" d="M128.1,14.7C127.4,14.2,111.5,3.4,77,3.4c-34.5,0-50.4,10.8-51.1,11.3l-1.2,0.8v76.4
			c0,4.5,3,14.8,23.4,33.3C56.5,132.8,71.8,145,77,145c5.2,0,20.5-12.2,28.9-19.8c20.3-18.5,23.4-28.8,23.4-33.3V15.5L128.1,14.7z
			 M123.5,91.9c0,5.8-7.8,16.4-21,28.4c-12.6,11.5-23.4,18.2-25.5,18.5c-2.1-0.3-12.9-7.1-25.5-18.5c-13.1-12-21-22.6-21-28.4V19.6
			c4.1-2.3,19-9.5,46.5-9.5c27.4,0,42.4,7.2,46.5,9.5V91.9z"/>
		<path fill="#00303E" d="M33.7,23.1v67.1c0,5.4,7.3,15.2,19.5,26.3C65,127.1,75,133.3,77,133.7c2-0.3,12-6.6,23.8-17.2
			c12.2-11.1,19.5-20.9,19.5-26.3v-67c-3.8-2.1-17.8-8.8-43.3-8.8C51.4,14.3,37.5,21,33.7,23.1z M117.7,29.1L96,43.5
			c1.5,1.1,3,2.4,4.3,3.8l17.4-11.6v4.1l-15.2,10.1c1.1,1.5,2.1,3,2.9,4.6l12.3-8.1v4.1l-10.8,7.2c0.7,1.8,1.2,3.6,1.6,5.5l9.2-6.1
			v4.1l-8.7,5.8c0.1,0.8,0.1,1.5,0.1,2.3c0,1.5-0.1,3-0.3,4.5l9-5.9v21.5c0,5.1-6.9,14.5-18.4,25.1c-3.9,3.5-7.5,6.6-10.7,9
			c0-0.1,0-0.2-0.1-0.3c-0.4-0.4-1.3,0.2-1.7-0.2c-0.2-0.2-0.3-0.3-0.5-0.5l-1.3,1.3c0.2,0.2,0.3,0.3,0.5,0.5c0.3,0.3,0,1,0.1,1.4
			c-4.4,3.2-7.6,5-8.6,5.1c-1.9-0.3-11.3-6.2-22.4-16.4c-11.5-10.6-18.4-19.9-18.4-25.1V67.9l9,5.9c-0.2-1.5-0.3-3-0.3-4.5
			c0-0.8,0-1.5,0.1-2.3l-8.7-5.8v-4.1l9.2,6.1c0.4-1.9,0.9-3.8,1.6-5.5l-10.8-7.2v-4.1l12.3,8.1c0.8-1.6,1.8-3.2,2.9-4.6L36.3,39.8
			v-4.1l17.4,11.6c1.3-1.4,2.7-2.6,4.3-3.8L36.3,29.1v-3.6c3.6-2,16.6-8.4,40.7-8.4c24,0,37.1,6.4,40.7,8.4V29.1z"/>
		<path fill="#00303E" d="M56.9,49.4c-0.8,0.8-1.5,1.7-2.2,2.6c-1.1,1.5-2,3-2.8,4.7c-0.5,1.1-0.9,2.1-1.3,3.3
			c-0.6,1.8-1,3.8-1.3,5.8c-0.1,1-0.2,2.1-0.2,3.2c0,0.3,0,0.6,0,0.9c0.1,2.6,0.5,5,1.2,7.4c3.6,11.7,14.4,20.2,27.2,20.2
			c13.1,0,24.2-8.9,27.5-21.1c0.6-2.3,1-4.7,1-7.2c0,0,0-0.1,0-0.1c0-1.3-0.1-2.6-0.3-3.8c-0.3-2-0.7-3.9-1.4-5.7
			c-0.4-1.1-0.9-2.2-1.4-3.2c-0.8-1.6-1.8-3.2-2.9-4.7c-0.7-0.9-1.5-1.8-2.3-2.6c-1.4-1.4-2.8-2.6-4.4-3.7c-4.5-3-9.9-4.8-15.8-4.8
			c-6.1,0-11.7,1.9-16.3,5.2C59.7,46.8,58.2,48,56.9,49.4z M58.8,84.9c-1-1.2-2-2.5-2.8-3.9c-1.5-2.6-2.5-5.5-3-8.6
			c-0.2-1.1-0.3-2.3-0.3-3.5c0-0.3,0-0.5,0-0.8c0.1-2.1,0.4-4.1,0.9-6c0.3-1.1,0.8-2.2,1.3-3.3c0.8-1.7,1.7-3.3,2.8-4.7
			c0.3-0.4,0.6-0.8,0.9-1.2c0.6,0.7,1.2,1.4,1.7,2.1L60,55.5L59,56.5c-0.7,0.7-0.7,1.9,0,2.6c0.4,0.4,0.8,0.5,1.3,0.5
			c0.5,0,0.9-0.2,1.3-0.5l0.7-0.7c0.4,0.8,0.7,1.6,1,2.4l-1.1,0.4c-0.7,0.3-1.2,0.9-1.2,1.7c0,0.2,0,0.5,0.1,0.7
			c0.3,0.7,1,1.2,1.7,1.2c0.2,0,0.4,0,0.6-0.1l0.1-0.1l0.7-0.3c0.1,0.3,0.1,0.6,0.1,0.8c0.1,0.7,0.1,1.3,0.2,2h-1.4
			c-0.5,0-0.9,0.2-1.3,0.5c-0.4,0.3-0.6,0.8-0.6,1.3c0,1,0.8,1.8,1.8,1.8h1.4c-0.1,0.9-0.1,1.9-0.3,2.8l-0.9-0.3
			c-0.7-0.3-1.6,0-2,0.6c-0.1,0.2-0.2,0.3-0.3,0.5c-0.3,0.9,0.1,2,1.1,2.4l1.1,0.4c-0.2,0.6-0.4,1.1-0.7,1.6
			c-0.1,0.2-0.2,0.5-0.3,0.7l-0.7-0.7c-0.7-0.7-1.9-0.7-2.6,0c-0.7,0.7-0.7,1.9,0,2.6l1.4,1.4c-0.2,0.3-0.4,0.5-0.6,0.7
			C59.6,84,59.2,84.5,58.8,84.9z M99.8,58.3c0.5,1,0.9,2.1,1.3,3.3c0.6,1.9,1,3.8,1.1,5.9c0,0.5,0.1,1,0.1,1.5
			c0,0.9-0.1,1.8-0.2,2.7c-0.3,2.9-1.2,5.7-2.5,8.2c-0.9,1.9-2.1,3.6-3.4,5.2c-0.5-0.6-1-1.2-1.5-1.9c-0.1-0.1-0.2-0.2-0.2-0.3
			l1.4-1.4c0.7-0.7,0.7-1.9,0-2.6c-0.7-0.7-1.9-0.7-2.6,0l-0.7,0.7c-0.2-0.4-0.4-0.8-0.5-1.2c-0.2-0.4-0.3-0.8-0.4-1.2l1.1-0.4
			c1-0.3,1.4-1.4,1.1-2.4c-0.1-0.4-0.4-0.7-0.7-0.9c-0.5-0.3-1.1-0.4-1.6-0.2l-0.9,0.3c-0.2-0.9-0.2-1.9-0.3-2.8h1.4
			c1,0,1.8-0.8,1.8-1.8c0-0.7-0.4-1.4-1.1-1.7c-0.2-0.1-0.5-0.2-0.8-0.2h-1.4c0.1-0.9,0.1-1.8,0.3-2.7c0,0,0-0.1,0-0.1l0.1,0
			l0.8,0.3c0.2,0.1,0.4,0.1,0.6,0.1c0.7,0,1.4-0.5,1.7-1.2c0.2-0.4,0.1-0.9,0-1.3c-0.2-0.5-0.6-0.9-1.1-1.1l-1.1-0.4
			c0.3-0.8,0.6-1.6,1-2.4l0.7,0.7c0.4,0.4,0.8,0.5,1.3,0.5s0.9-0.2,1.3-0.5c0.7-0.7,0.7-1.9,0-2.6l-1.3-1.3L94.5,55
			c0.5-0.8,1.1-1.4,1.7-2.2c0.2,0.3,0.4,0.5,0.6,0.8C98,55.1,99,56.6,99.8,58.3z M77.5,44.2c4.5,0,8.7,1.3,12.3,3.4
			c1.3,0.8,2.6,1.7,3.7,2.6c-0.6,0.7-1.2,1.4-1.7,2.2l-0.7-0.7c-0.7-0.7-1.9-0.7-2.6,0c-0.7,0.7-0.7,1.9,0,2.6l0.5,0.5l0.8,0.8
			c-0.7,1.2-1.2,2.5-1.7,3.9l0,0l0,0l-1.7-0.6c-1-0.3-2,0.1-2.4,1.1c-0.3,0.7-0.1,1.4,0.4,1.9c0.2,0.2,0.4,0.3,0.7,0.4l2,0.7
			c-0.3,1.3-0.5,2.7-0.5,4.1v0h0H85c-1,0-1.8,0.8-1.8,1.8c0,0.1,0,0.3,0.1,0.4c0.2,0.8,0.9,1.4,1.8,1.4h1.6c0,0.1,0,0.3,0,0.4
			c0.1,1.2,0.2,2.5,0.5,3.7l-2,0.7c-1,0.3-1.4,1.4-1.1,2.4c0.2,0.4,0.5,0.8,0.9,1c0.3,0.1,0.5,0.2,0.8,0.2c0.2,0,0.4,0,0.6-0.1
			l1.7-0.6c0.2,0.7,0.5,1.3,0.8,2c0.3,0.6,0.6,1.3,0.9,1.9l-1.3,1.3c-0.7,0.7-0.7,1.9,0,2.6c0.2,0.2,0.5,0.4,0.9,0.5
			c0.1,0,0.3,0.1,0.4,0.1c0.5,0,0.9-0.2,1.3-0.5l0.7-0.7c0.5,0.7,1.1,1.5,1.7,2.2c-4,3.4-9.1,5.7-14.7,6c-0.5,0-0.9,0.1-1.4,0.1
			c-0.9,0-1.7-0.1-2.6-0.2c-5.1-0.6-9.8-2.7-13.5-6c0.6-0.6,1.1-1.3,1.6-2c0,0,0.1-0.1,0.1-0.1l0.6,0.6l0.1,0.1
			c0.2,0.2,0.4,0.3,0.7,0.4c0.2,0.1,0.4,0.1,0.6,0.1c0.5,0,0.9-0.2,1.3-0.5c0.7-0.7,0.7-1.9,0-2.6l-1.3-1.3c0.2-0.5,0.5-0.9,0.7-1.4
			c0.4-0.8,0.7-1.6,1-2.5l1.7,0.6c0.2,0.1,0.4,0.1,0.6,0.1c0.1,0,0.1,0,0.2,0c0.7-0.1,1.3-0.5,1.5-1.2c0.3-0.9-0.1-2-1.1-2.4l-2-0.7
			c0.2-1,0.3-2,0.4-3.1c0-0.3,0.1-0.7,0.1-1H70c0.7,0,1.3-0.4,1.6-0.9c0.2-0.3,0.3-0.6,0.3-0.9c0-1-0.8-1.8-1.8-1.8h-1.6
			c-0.1-1.4-0.3-2.7-0.6-4.1l2-0.7c0.1,0,0.1-0.1,0.2-0.1c0.8-0.4,1.2-1.4,0.9-2.3c-0.3-1-1.4-1.4-2.3-1.1l-1.7,0.6
			c-0.5-1.3-1-2.6-1.7-3.9l0.4-0.4l0.8-0.8c0.7-0.7,0.7-1.9,0-2.6c-0.7-0.7-1.9-0.7-2.6,0l-0.7,0.7c-0.5-0.7-1.1-1.4-1.7-2.1
			c1-0.9,2.1-1.6,3.2-2.4C68.4,45.6,72.8,44.2,77.5,44.2z"/>
		<path fill="#00303E" d="M65.2,100.3l-2.3,2.3c0.4,0.3,0.7,0.6,1,0.9l2.1-2.2C65.8,101,65.5,100.6,65.2,100.3z"/>
		<path fill="#00303E" d="M63.8,98.6c-4.5-5.6-9.3-12.4-12.9-16c-3-3-4.2-4.2-4.8-4.8c-0.3-0.3-0.4-0.4-0.4-0.4
			c-1.6-1.6-4.1-1.6-5.7-0.1c-1.5,1.6-1.5,4.1,0.1,5.7c0,0,0.3,0.3,5.2,5.2c3.8,3.8,11.3,9,17,13.8l2.4-2.4
			C64.4,99.3,64.1,98.9,63.8,98.6z"/>
		<path fill="#00303E" d="M87.1,103.9c-2.4,2.4-6,6.1-9.3,9.6c-3.3-3.5-6.9-7.2-9.3-9.6c-0.6-0.6-1.2-1.3-1.9-2l-2.1,2.1
			c0.7,0.6,1.4,1.3,2,1.9c2.4,2.4,6.2,6,9.6,9.4c-2.8,2.9-5.2,5.5-6.3,6.6c0,0-0.1,0.1-0.1,0.1l1.3,1.3c0,0,0.1-0.1,0.1-0.1
			c1.1-1.1,3.7-3.5,6.6-6.3c2.9,2.8,5.5,5.3,6.6,6.3c0,0,0.1,0.1,0.1,0.1l1.3-1.3c0,0-0.1-0.1-0.1-0.1c-1.1-1.1-3.5-3.7-6.3-6.6
			c3.5-3.3,7.2-6.9,9.6-9.4c0.6-0.6,1.3-1.2,2-1.9l-2.1-2.1C88.3,102.6,87.7,103.3,87.1,103.9z"/>
		<path fill="#00303E" d="M68.7,123c-0.4,0.4-1.3-0.2-1.7,0.2c-0.7,0.6,2.1,3.4,2.8,2.8c0.4-0.4-0.2-1.2,0.2-1.7
			c0.2-0.2,0.3-0.3,0.5-0.5l-1.3-1.3C69,122.6,68.8,122.8,68.7,123z"/>
		<path fill="#00303E" d="M89.5,101.3l2.2,2.1c0.3-0.3,0.7-0.6,1-0.9l-2.3-2.3C90.1,100.6,89.8,101,89.5,101.3z"/>
		<path fill="#00303E" d="M92.9,97.2c-0.7,0.8-1.3,1.6-2,2.4l2.4,2.4c5.8-4.8,13.2-10,17-13.8c4.9-4.9,5.2-5.2,5.2-5.2
			c1.6-1.6,1.6-4.1,0.1-5.7c-1.6-1.5-4.1-1.5-5.7,0.1c0,0-0.2,0.2-2.6,2.6c-0.7,0.7-1.5,1.5-2.5,2.5C101.4,85.9,97.1,92,92.9,97.2z"
			/>
	</g>
</g>
</svg>
