<?xml version="1.0" encoding="utf-8"?>
<!-- Generator: Adobe Illustrator 18.1.0, SVG Export Plug-In . SVG Version: 6.00 Build 0)  -->
<svg version="1.1" id="Layer_1" xmlns="http://www.w3.org/2000/svg" xmlns:xlink="http://www.w3.org/1999/xlink" x="0px" y="0px"
	 viewBox="0 0 2000 2000" enable-background="new 0 0 2000 2000" xml:space="preserve">
<g>
	<path fill="#935550" d="M1730.3,1167l-558.5-507.1c0,0-294,441-558.5,132.3l407.5-407.5l-10.6-11.4c0,0-426.2-360.1-764.3,29.4
		c0,0-372.2,407.9,95.5,793.7c9.1,7.5,18.3,14.7,27.5,22c3-23.6,13.9-46.4,32.6-64L547,1017.4c42.7-40.3,110-38.3,150.3,4.5
		c40.2,42.7,38.2,110.1-4.5,150.3l-145.5,137.1c-7.9,7.4-16.6,13.3-25.8,17.9c8.5,5.4,17,10.9,25.4,16.1c3.5-4.6,7.3-8.9,11.6-13
		l153.7-144.8c45.2-42.5,116.3-40.4,158.8,4.7c42.5,45.2,40.4,116.2-4.8,158.8l-112.8,106.3c8.3,3.9,16.5,7.8,24.7,11.6l110.4-104
		c46-43.3,118.3-41.1,161.6,4.8c43.3,45.9,41.1,118.3-4.8,161.5l-31.5,29.7c7.3,2.4,14.4,4.7,21.5,6.9l29.8-28
		c43.1-40.6,111-38.6,151.7,4.6c20.6,21.8,30.2,50,29.1,77.7c9.1,1.7,14.2,2.5,14.2,2.5s152,20.7,161.2-132.1l-447.8-411.7
		l25.7-36.7l463,418.9l-9.7,10.8c41.6-8.8,112.5-37.9,128.7-133.9l-449.7-413.4l25.7-36.7l463,418.9l-7.9,8.8
		c49.6-13,144-52,126.4-157.6C1735.8,1160.9,1733.1,1164,1730.3,1167z"/>
	<path fill="#DF5857" d="M1065.1,1537.9l-29.8,28l-117.1,110.3c-43.1,40.6-45.2,108.5-4.6,151.7c40.7,43.1,108.5,45.2,151.7,4.6
		l146.8-138.3c21.3-20.1,32.5-46.8,33.6-73.9c1.1-27.7-8.5-55.9-29.1-77.7C1176.1,1499.3,1108.2,1497.3,1065.1,1537.9z"/>
	<polygon fill="#DF5857" points="999.1,1042.1 973.4,1078.8 1421.2,1490.6 1429,1497.7 1452.3,1471.8 1462.1,1461 	"/>
	<polygon fill="#DF5857" points="1157.1,887.8 1131.4,924.5 1581.1,1337.9 1587,1343.4 1612.1,1315.4 1620.1,1306.6 	"/>
	<path fill="#DF5857" d="M1050.3,1367.8c-43.3-46-115.6-48.1-161.6-4.8l-110.4,104l-46,43.3c-46,43.3-48.1,115.6-4.9,161.5
		c43.3,46,115.6,48.1,161.6,4.9l124.9-117.6l31.5-29.7C1091.4,1486,1093.5,1413.7,1050.3,1367.8z"/>
	<path fill="#DF5857" d="M692.8,1172.2c42.8-40.3,44.8-107.6,4.5-150.3c-40.3-42.8-107.6-44.8-150.3-4.5l-145.6,137.1
		c-18.7,17.6-29.6,40.4-32.6,64c-3.9,30.4,5.4,62.3,28.1,86.4c32.9,34.9,83.8,42.6,124.6,22.4c9.2-4.6,17.9-10.5,25.8-17.9
		L692.8,1172.2z"/>
	<path fill="#DF5857" d="M1171.8,659.9l558.5,507.1c2.8-3.1,5.5-6.1,8.2-9.2c332-371.1,28.5-703.7,28.5-703.7
		c-308.7-352.7-742.3-73.5-742.3-73.5l-4,4.1L613.3,792.2C877.8,1100.9,1171.8,659.9,1171.8,659.9z"/>
	<path fill="#DF5857" d="M871.1,1190.3c-42.5-45.2-113.6-47.3-158.8-4.7l-153.7,144.8c-4.3,4.1-8.1,8.4-11.6,13
		c-33.4,42.9-31.6,104.9,6.9,145.8c42.5,45.2,113.6,47.3,158.8,4.8l40.9-38.5l112.8-106.3C911.5,1306.5,913.6,1235.5,871.1,1190.3z"
		/>
</g>
</svg>
