<?xml version="1.0" encoding="utf-8"?>
<!-- Generator: Adobe Illustrator 18.1.0, SVG Export Plug-In . SVG Version: 6.00 Build 0)  -->
<svg version="1.1" id="Layer_1" xmlns="http://www.w3.org/2000/svg" xmlns:xlink="http://www.w3.org/1999/xlink" x="0px" y="0px"
	 viewBox="0 0 150 150" enable-background="new 0 0 150 150" xml:space="preserve">
<g>
	<path fill="#00B7E3" d="M108,117.2c-0.4,0.3-0.8,0.6-1.2,1C107.2,117.8,107.6,117.5,108,117.2z"/>
	<path fill="#00B7E3" d="M33.8,55.4L28,52.3c-0.8,1.5-1.6,3-2.2,4.6l6,2C32.3,57.7,33,56.6,33.8,55.4z"/>
	<path fill="#00B7E3" d="M99.3,123.2c-0.3,0.2-0.7,0.4-1.1,0.6C98.6,123.6,99,123.4,99.3,123.2z"/>
	<path fill="#00B7E3" d="M80,129.4c-0.3,0-0.6,0.1-0.9,0.1C79.3,129.5,79.6,129.4,80,129.4z"/>
	<path fill="#00B7E3" d="M119.2,103.8c-0.3,0.6-0.7,1.1-1,1.7C118.5,104.9,118.9,104.4,119.2,103.8z"/>
	<path fill="#00B7E3" d="M97.2,124.3c-0.3,0.2-0.7,0.3-1,0.5C96.5,124.7,96.9,124.5,97.2,124.3z"/>
	<path fill="#00B7E3" d="M82.5,129.1c-0.3,0.1-0.6,0.1-1,0.1C81.8,129.2,82.1,129.1,82.5,129.1z"/>
	<path fill="#00B7E3" d="M90.1,127.2c-0.2,0.1-0.4,0.1-0.5,0.2C89.7,127.3,89.9,127.3,90.1,127.2z"/>
	<path fill="#00B7E3" d="M72.3,33.7l6.4-8.5C77.1,25.1,75.6,25,74,25c-2,0-4,0.1-5.9,0.3l-4.8,9.6C66.2,34.2,69.2,33.8,72.3,33.7z"
		/>
	<path fill="#00B7E3" d="M43.8,44.3l-2.3-8.1c-1.6,1.3-3.2,2.6-4.6,4.1l3.4,7.1C41.5,46.3,42.6,45.3,43.8,44.3z"/>
	<path fill="#00B7E3" d="M52.1,38.9l1-9.6c-3.6,1.5-6.9,3.5-10,5.7l1.6,8.6C47,41.9,49.5,40.3,52.1,38.9z"/>
	<path fill="#00B7E3" d="M39.8,48l-3.9-6.5c-1.3,1.3-2.5,2.7-3.6,4.2l4.7,5.4C37.9,50,38.8,49,39.8,48z"/>
	<path fill="#00B7E3" d="M60.7,35.5l3.8-9.7c-3,0.6-5.9,1.4-8.7,2.4l-2,9.9C56,37.1,58.3,36.2,60.7,35.5z"/>
	<path fill="#00B7E3" d="M36.5,51.7l-5.1-4.8c-1,1.4-2,2.9-2.8,4.4l5.5,3.7C34.9,53.8,35.7,52.7,36.5,51.7z"/>
	<path fill="#00B7E3" d="M122,81.7c0,2-0.1,4-0.4,5.9c1.1,0.4,2.2,1.1,3.3,2c-0.2,0.7-0.3,1.4-0.5,2.1c0.8-3,1.4-6,1.7-9.1l-4.1-1
		C122,81.6,122,81.7,122,81.7z"/>
	<path fill="#00B7E3" d="M114.9,56.5l6.8-0.8c0.4,0.9,0.8,1.8,1.2,2.8c-2.1-5.4-5-10.3-8.7-14.7l-7.9,2.4
		C109.6,49.1,112.5,52.6,114.9,56.5z"/>
	<path fill="#00B7E3" d="M117.7,61.7c1.9,4.2,3.3,8.8,3.9,13.5l4.8,0.7c0,0.5,0,0.9,0,1.4c0-6.6-1.2-12.9-3.5-18.7
		c0.4,1,0.7,1.9,1,2.9L117.7,61.7z"/>
	<path fill="#00B7E3" d="M102.1,42.7l8-3.3c0.7,0.7,1.4,1.3,2,2c-3.7-3.9-8-7.3-12.7-9.9l-8.3,5.3C95,38.3,98.7,40.3,102.1,42.7z"/>
	<path fill="#00B7E3" d="M86.8,35.4l7.9-6.2c0.8,0.3,1.6,0.7,2.4,1.1c-4.3-2.1-9-3.7-14-4.5l-7.2,7.9C79.7,33.9,83.3,34.4,86.8,35.4
		z"/>
	<path fill="#00B7E3" d="M71.5,129.7c-0.3,0-0.5,0-0.8,0C71,129.6,71.3,129.7,71.5,129.7z"/>
	<path fill="#00B7E3" d="M64.5,25.9c1.2-0.2,2.3-0.4,3.5-0.5C66.8,25.5,65.7,25.6,64.5,25.9z"/>
	<path fill="#00B7E3" d="M41.6,36.2c0.5-0.4,1-0.8,1.5-1.1C42.6,35.4,42.1,35.8,41.6,36.2z"/>
	<path fill="#00B7E3" d="M37.5,114.9c-0.3-0.3-0.7-0.6-1-1C36.8,114.3,37.2,114.6,37.5,114.9z"/>
	<path fill="#00B7E3" d="M31,107.2c-0.3-0.4-0.6-0.9-0.9-1.3C30.4,106.3,30.7,106.8,31,107.2z"/>
	<path fill="#00B7E3" d="M31.5,46.8c0.3-0.4,0.5-0.7,0.8-1.1C32,46.1,31.7,46.4,31.5,46.8z"/>
	<path fill="#00B7E3" d="M53.1,29.3c0.9-0.4,1.7-0.7,2.6-1C54.9,28.6,54,28.9,53.1,29.3z"/>
	<path fill="#00B7E3" d="M26,98.3c-0.2-0.5-0.4-1-0.6-1.5C25.5,97.2,25.7,97.8,26,98.3z"/>
	<path fill="#00B7E3" d="M21.8,81.2c-0.1-0.7-0.1-1.4-0.1-2.2C21.7,79.8,21.7,80.5,21.8,81.2z"/>
	<path fill="#00B7E3" d="M25.1,96.2c-0.2-0.5-0.4-1-0.6-1.5C24.7,95.2,24.9,95.7,25.1,96.2z"/>
	<path fill="#00B7E3" d="M43.4,119.9c-0.3-0.2-0.6-0.5-0.9-0.7C42.8,119.4,43.1,119.7,43.4,119.9z"/>
	<path fill="#00B7E3" d="M24.4,94.1c-0.2-0.5-0.4-1.1-0.5-1.6C24,93,24.2,93.5,24.4,94.1z"/>
	<path fill="#00B7E3" d="M45.3,121.2c-0.3-0.2-0.6-0.4-1-0.6C44.7,120.8,45,121,45.3,121.2z"/>
	<path fill="#00B7E3" d="M69,129.5c-0.3,0-0.6-0.1-0.9-0.1C68.5,129.4,68.7,129.5,69,129.5z"/>
	<path fill="#00B7E3" d="M124.3,91.8c-0.2,0.7-0.4,1.4-0.6,2C123.9,93.2,124.1,92.5,124.3,91.8z"/>
	<path fill="#00B7E3" d="M61,128.1c-0.2-0.1-0.4-0.1-0.6-0.2C60.6,128,60.8,128.1,61,128.1z"/>
	<path fill="#00B7E3" d="M64,128.8c-0.2,0-0.4-0.1-0.6-0.1C63.5,128.7,63.7,128.7,64,128.8z"/>
	<path fill="#00B7E3" d="M78.7,25.2c0.7,0.1,1.4,0.1,2,0.2C80.1,25.3,79.4,25.3,78.7,25.2z"/>
	<path fill="#00B7E3" d="M126.3,80c0,0.8-0.1,1.6-0.2,2.3C126.2,81.5,126.3,80.8,126.3,80z"/>
	<path fill="#00B7E3" d="M97.1,30.4c0.8,0.4,1.5,0.8,2.3,1.2C98.7,31.1,97.9,30.7,97.1,30.4z"/>
	<path fill="#00B7E3" d="M81,25.5c0.7,0.1,1.4,0.2,2,0.3C82.4,25.7,81.7,25.5,81,25.5z"/>
	<path fill="#00B7E3" d="M112.2,41.5c0.7,0.7,1.3,1.4,1.9,2.2C113.5,43,112.9,42.2,112.2,41.5z"/>
	<path fill="#00B7E3" d="M58.7,127.5c-0.3-0.1-0.6-0.2-0.9-0.3C58.2,127.3,58.4,127.4,58.7,127.5z"/>
	<path fill="#00B7E3" d="M56.1,126.6C56.1,126.6,56.2,126.6,56.1,126.6C56.2,126.6,56.2,126.6,56.1,126.6
		C56.2,126.6,56.1,126.6,56.1,126.6z"/>
	<path fill="#00B7E3" d="M117.3,106.8C117.3,106.8,117.3,106.9,117.3,106.8C117.3,106.9,117.3,106.9,117.3,106.8
		c-0.1,0.1-0.1,0.1-0.1,0.2c-0.1,0.1-0.2,0.3-0.3,0.4c0.4-0.5,0.7-1.1,1.1-1.6c-0.1,0.2-0.3,0.4-0.4,0.6
		C117.5,106.5,117.4,106.6,117.3,106.8z"/>
	<path fill="#00B7E3" d="M103.3,120.8c-0.3,0.2-0.6,0.4-0.9,0.6c0,0,0,0,0,0c0.7-0.4,1.3-0.9,2-1.3
		C104,120.3,103.7,120.5,103.3,120.8C103.3,120.8,103.3,120.8,103.3,120.8z"/>
	<path fill="#00B7E3" d="M34.9,112.3c0.1,0.2,0.3,0.3,0.4,0.5l0,0C35.3,112.6,35.1,112.4,34.9,112.3z"/>
	<path fill="#00B7E3" d="M27.6,101.7c0.3,0.6,0.7,1.2,1,1.9C28.3,103,28,102.4,27.6,101.7C27.7,101.8,27.6,101.7,27.6,101.7z"/>
	<path fill="#00B7E3" d="M35.4,112.8c0.1,0.1,0.2,0.2,0.3,0.3c0,0-0.1-0.1-0.1-0.1C35.5,112.9,35.5,112.8,35.4,112.8z"/>
	<path fill="#00B7E3" d="M53.5,125.6L53.5,125.6c-0.1,0-0.1,0-0.2-0.1c0,0,0,0,0,0c0.2,0.1,0.5,0.2,0.7,0.3c0,0-0.1,0-0.1,0
		C53.9,125.7,53.7,125.7,53.5,125.6z"/>
	<path fill="#00B7E3" d="M35.8,113.2c0,0,0.1,0.1,0.1,0.1C35.9,113.3,35.9,113.3,35.8,113.2C35.8,113.2,35.8,113.2,35.8,113.2z"/>
	<path fill="#00B7E3" d="M38.7,116c0.2,0.1,0.3,0.3,0.5,0.4C39,116.3,38.8,116.2,38.7,116L38.7,116z"/>
	<path fill="#00B7E3" d="M38.4,115.8C38.4,115.8,38.4,115.8,38.4,115.8C38.4,115.8,38.4,115.8,38.4,115.8c-0.1-0.1-0.1-0.1-0.1-0.1
		c0.1,0.1,0.3,0.3,0.4,0.4C38.6,116,38.5,115.9,38.4,115.8C38.5,115.8,38.4,115.8,38.4,115.8z"/>
	<path fill="#00B7E3" d="M27.2,100.9c0-0.1-0.1-0.1-0.1-0.2c0.2,0.3,0.3,0.7,0.5,1c0,0,0,0,0,0C27.5,101.4,27.3,101.2,27.2,100.9z"
		/>
	<path fill="#00B7E3" d="M102,121.6c0.1-0.1,0.3-0.2,0.4-0.3c0,0,0,0,0,0C102.2,121.5,102.1,121.6,102,121.6z"/>
	<path fill="#00B7E3" d="M56.2,126.6C56.2,126.6,56.2,126.6,56.2,126.6c0.1,0,0.2,0.1,0.3,0.1c0,0-0.1,0-0.1,0
		C56.3,126.7,56.3,126.7,56.2,126.6z"/>
	<path fill="#00B7E3" d="M110.9,114.5c-0.1,0.1-0.2,0.2-0.3,0.3l0,0c0.3-0.3,0.5-0.5,0.8-0.8c-0.1,0.1-0.2,0.2-0.3,0.2
		C111.1,114.4,111,114.4,110.9,114.5z"/>
	<path fill="#00B7E3" d="M33.4,110.5c-0.4-0.4-0.7-0.9-1-1.3c0.7,0.9,1.5,1.9,2.3,2.7C34.2,111.4,33.8,111,33.4,110.5
		C33.4,110.5,33.4,110.5,33.4,110.5z"/>
	<path fill="#00B7E3" d="M108.7,116.6c0.4-0.3,0.7-0.6,1.1-1C109.4,115.9,109.1,116.2,108.7,116.6
		C108.7,116.6,108.7,116.6,108.7,116.6z"/>
	<path fill="#00B7E3" d="M31.4,107.8c0.3,0.4,0.6,0.8,0.9,1.2C32,108.6,31.7,108.2,31.4,107.8C31.4,107.8,31.4,107.8,31.4,107.8z"/>
	<path fill="#00B7E3" d="M110.2,115.2c0.1-0.1,0.3-0.2,0.4-0.4c-0.1,0.1-0.1,0.1-0.2,0.2C110.3,115.1,110.3,115.1,110.2,115.2z"/>
	<path fill="#00B7E3" d="M100.6,122.5c0.2-0.1,0.5-0.3,0.7-0.4C101.1,122.2,100.9,122.3,100.6,122.5
		C100.7,122.4,100.6,122.5,100.6,122.5z"/>
	<path fill="#00B7E3" d="M65.7,129.1c0.2,0,0.4,0.1,0.7,0.1c0,0-0.1,0-0.1,0C66.1,129.1,65.9,129.1,65.7,129.1z"/>
	<path fill="#00B7E3" d="M106.2,118.7C106.2,118.7,106.2,118.7,106.2,118.7C106.2,118.7,106.2,118.7,106.2,118.7
		C106.2,118.7,106.2,118.7,106.2,118.7z"/>
	<path fill="#00B7E3" d="M113.3,112c0,0-0.1,0.1-0.1,0.1c-0.5,0.6-1.1,1.2-1.6,1.8C112.2,113.2,112.8,112.6,113.3,112
		C113.3,111.9,113.3,112,113.3,112C113.3,112,113.3,112,113.3,112z"/>
	<path fill="#00B7E3" d="M115.4,109.4c-0.6,0.8-1.3,1.6-1.9,2.3c-0.1,0.1-0.1,0.1-0.1,0.2c1.2-1.4,2.4-2.8,3.4-4.4
		C116.4,108.1,116,108.7,115.4,109.4C115.5,109.3,115.5,109.4,115.4,109.4z"/>
	<path fill="#00B7E3" d="M29.6,105.1C29.6,105.1,29.6,105.1,29.6,105.1c0-0.1-0.1-0.1-0.1-0.2c-0.1-0.1-0.2-0.2-0.2-0.4
		c-0.1-0.2-0.2-0.4-0.4-0.6l0,0c0.3,0.5,0.6,0.9,0.8,1.4C29.7,105.3,29.6,105.2,29.6,105.1C29.6,105.1,29.6,105.1,29.6,105.1z"/>
	<path fill="#00B7E3" d="M105.6,119.2L105.6,119.2c-0.2,0.1-0.3,0.3-0.5,0.4c0.3-0.2,0.6-0.5,0.9-0.7c0,0-0.1,0.1-0.1,0.1
		C105.7,119,105.6,119.1,105.6,119.2z"/>
	<path fill="#00B7E3" d="M86.6,128.2L86.6,128.2c-0.1,0-0.1,0-0.2,0c0.3-0.1,0.5-0.1,0.8-0.2C87,128.1,86.8,128.1,86.6,128.2
		C86.6,128.2,86.6,128.2,86.6,128.2z"/>
	<path fill="#00B7E3" d="M27.3,70.5l-5.4,1.8c-0.2,1.7-0.2,3.3-0.2,5.1c0,0.6,0,1.1,0,1.7l4.6-2.4C26.4,74.5,26.8,72.5,27.3,70.5z"
		/>
	<path fill="#00B7E3" d="M122,98.3c-0.6,1.5-1.4,2.9-2.1,4.3l-0.1,0.2c1.1-1.9,2-3.9,2.8-5.9c-0.2,0.4-0.3,0.7-0.5,1.1L122,98.3z"/>
	<path fill="#00B7E3" d="M51.1,124.5c0.2,0.1,0.4,0.2,0.6,0.3C51.5,124.7,51.3,124.6,51.1,124.5C51.1,124.5,51.1,124.5,51.1,124.5z"
		/>
	<path fill="#00B7E3" d="M40.3,117.5C40.3,117.5,40.3,117.5,40.3,117.5c-0.2-0.1-0.3-0.3-0.5-0.4c0.5,0.5,1.1,0.9,1.6,1.3
		C41.1,118.1,40.7,117.8,40.3,117.5L40.3,117.5z"/>
	<path fill="#00B7E3" d="M84.2,128.7c-0.1,0-0.2,0-0.2,0c0.3-0.1,0.6-0.1,0.9-0.2c0,0-0.1,0-0.1,0C84.6,128.7,84.4,128.7,84.2,128.7
		z"/>
	<path fill="#00B7E3" d="M50.9,124.4c0,0,0.1,0,0.1,0.1C51,124.4,51,124.4,50.9,124.4C50.9,124.4,50.9,124.4,50.9,124.4z"/>
	<path fill="#00B7E3" d="M76.5,129.7c0.2,0,0.5,0,0.7,0c0,0,0,0,0,0C77,129.6,76.7,129.7,76.5,129.7z"/>
	<path fill="#00B7E3" d="M31.4,59.6l-6.1-1.4c-0.7,1.7-1.2,3.4-1.7,5.1l6,0.3C30.1,62.2,30.7,60.9,31.4,59.6z"/>
	<path fill="#00B7E3" d="M27.6,69.3c0.4-1.6,1-3.3,1.6-4.8l-6,0.3c0.1-0.5,0.2-0.9,0.4-1.4c-0.8,2.9-1.4,5.9-1.7,9
		c0.1-0.6,0.1-1.2,0.2-1.8L27.6,69.3z"/>
	<path fill="#00B7E3" d="M55.6,126.4c0.2,0.1,0.3,0.1,0.5,0.2c-0.1,0-0.2-0.1-0.3-0.1C55.7,126.5,55.7,126.4,55.6,126.4z"/>
	<path fill="#00B7E3" d="M122.6,97L122.6,97c0.4-1,0.8-2,1.2-3.1C123.4,94.9,123,96,122.6,97z"/>
	<path fill="#00B7E3" d="M48.7,123.2c0.2,0.1,0.4,0.2,0.6,0.3c-0.1-0.1-0.3-0.2-0.4-0.2C48.8,123.3,48.7,123.3,48.7,123.2z"/>
	<path fill="#00B7E3" d="M92.7,126.3C92.7,126.3,92.7,126.3,92.7,126.3c-0.3,0.1-0.6,0.2-0.9,0.4C92.1,126.5,92.4,126.4,92.7,126.3
		C92.7,126.3,92.7,126.3,92.7,126.3L92.7,126.3z"/>
	<path fill="#00B7E3" d="M26.5,88.8L23.7,92c0,0.2,0.1,0.3,0.1,0.5c0.8-0.4,1.9-0.8,3.1-0.9C26.8,90.6,26.6,89.7,26.5,88.8z"/>
	<path fill="#00B7E3" d="M46.3,121.8c0,0,0.1,0.1,0.1,0.1C46.4,121.9,46.4,121.9,46.3,121.8C46.4,121.8,46.3,121.8,46.3,121.8z"/>
	<path fill="#00B7E3" d="M94.7,125.5C94.7,125.5,94.7,125.5,94.7,125.5c-0.2,0.1-0.4,0.2-0.6,0.2c-0.1,0-0.1,0.1-0.2,0.1
		c0.3-0.1,0.7-0.3,1-0.4C94.9,125.4,94.8,125.4,94.7,125.5C94.7,125.5,94.7,125.5,94.7,125.5z"/>
	<path fill="#00B7E3" d="M26.1,98.6c0.3,0.7,0.6,1.4,1,2.1l0,0C26.8,100,26.4,99.3,26.1,98.6z"/>
	<path fill="#00B7E3" d="M26.2,86.1C26,84.6,26,83.2,26,81.7c0-1.1,0-2.2,0.1-3.2l-4.3,2.8c0.3,3.7,0.9,7.2,1.9,10.7
		c-0.3-0.9-0.5-1.9-0.7-2.8L26.2,86.1z"/>
	<path fill="#00B7E3" d="M48.4,123c0.1,0.1,0.2,0.1,0.3,0.2l0,0C48.6,123.2,48.5,123.1,48.4,123z"/>
	<path fill="#00B7E3" d="M46.6,122c0.2,0.1,0.5,0.3,0.7,0.4c-0.2-0.1-0.3-0.2-0.5-0.3C46.7,122.1,46.6,122,46.6,122z"/>
	<path fill="#00B7E3" d="M119.6,103c-0.1,0.2-0.2,0.4-0.4,0.7C119.4,103.5,119.6,103.2,119.6,103C119.7,103,119.7,103,119.6,103
		L119.6,103z"/>
	<path fill="#4FBFE7" d="M29.2,64.5c-0.6,1.6-1.1,3.2-1.6,4.8l4.5-1c0.6-1.4,1.3-2.7,2-4.1L29.2,64.5z"/>
	<path fill="#4FBFE7" d="M36.5,51.7c-0.8,1-1.6,2.1-2.4,3.2l3,2c0.6-1,1.2-1.9,2-2.7L36.5,51.7z"/>
	<path fill="#4FBFE7" d="M102.1,42.7c-3.3-2.4-7-4.4-10.9-5.9L79.7,44c3.5,0.8,6.9,2.1,10.1,3.8L102.1,42.7z"/>
	<path fill="#4FBFE7" d="M26.1,78.5C26,79.5,26,80.6,26,81.7c0,1.5,0.1,2.9,0.2,4.4l2.6-2.5c0.1-2.6,0.3-5.1,0.8-7.5L26.1,78.5z"/>
	<path fill="#4FBFE7" d="M33.8,55.4c-0.7,1.1-1.4,2.3-2.1,3.5l4,1.3c0.3-1.1,0.7-2.1,1.3-3.1L33.8,55.4z"/>
	<path fill="#4FBFE7" d="M102.4,58l12.5-1.6c-2.4-3.8-5.3-7.3-8.6-10.4L93.5,50C96.8,52.3,99.8,55,102.4,58z"/>
	<path fill="#4FBFE7" d="M27.3,70.5c-0.5,2-0.8,4-1,6l3.7-2c0.5-1.9,1.1-3.7,1.8-5.5L27.3,70.5z"/>
	<path fill="#4FBFE7" d="M43.8,44.3c-1.2,1-2.4,2-3.5,3.1l2,4.1c1-0.6,2-1.1,3.2-1.4L43.8,44.3z"/>
	<path fill="#4FBFE7" d="M72.3,33.7c-3.1,0.1-6.2,0.5-9.1,1.2l-5,9.9c2.2-0.7,4.6-1.2,6.9-1.5L72.3,33.7z"/>
	<path fill="#4FBFE7" d="M26.5,88.8c0.1,0.9,0.3,1.8,0.5,2.8c0.8,0,1.6,0.1,2.5,0.5c0,0,0,0,0,0c-0.3-1.9-0.6-3.9-0.6-5.9L26.5,88.8
		z"/>
	<path fill="#4FBFE7" d="M60.7,35.5c-2.4,0.7-4.7,1.6-7,2.6l-1.9,9.1c1.6-0.8,3.3-1.5,5-2.1L60.7,35.5z"/>
	<path fill="#4FBFE7" d="M51.2,47.6l0.9-8.7c-2.6,1.3-5.1,2.9-7.4,4.7l1.2,6.4c0.6-0.2,1.2-0.3,1.9-0.4C48.8,48.9,50,48.3,51.2,47.6
		z"/>
	<path fill="#4FBFE7" d="M76.5,43.4l10.3-8c-3.5-1-7.1-1.5-10.8-1.7l-8.5,9.4c1-0.1,1.9-0.1,2.9-0.1C72.4,43,74.5,43.1,76.5,43.4z"
		/>
	<path fill="#4FBFE7" d="M121.6,75.3c-0.6-4.8-2-9.3-3.9-13.5l-12.4,0.4c2.3,3.5,4,7.4,5.1,11.6L121.6,75.3z"/>
	<path fill="#4FBFE7" d="M35.6,60.5l-4.2-1c-0.7,1.3-1.3,2.6-1.9,4l4.8,0.2c0.3-0.5,0.6-1.1,1-1.6C35.3,61.7,35.4,61.1,35.6,60.5z"
		/>
	<path fill="#4FBFE7" d="M122,81.6l-6.6-1.6c1.6,3.4,0.7,6.7,0.7,6.7s2.6-0.3,5.5,0.9c0.2-1.9,0.4-3.9,0.4-5.9
		C122,81.7,122,81.6,122,81.6z"/>
	<path fill="#4FBFE7" d="M42,51.7L39.8,48c-1,1-1.9,2-2.8,3.1l2.4,2.8C40.2,53,41.1,52.3,42,51.7z"/>
	<path fill="#80CCEB" d="M74.1,61.6l5.5-0.7l0.4-6.7l-6.6,2c0.2,0.1,0.3,0.2,0.5,0.4L74.1,61.6z"/>
	<path fill="#80CCEB" d="M71,61.9l0.3-5.1l-7.7,2.4c0.4,1.1,0.7,2.3,0.8,3.6L71,61.9z"/>
	<path fill="#80CCEB" d="M49.8,49.5c0.4,0,0.8,0,1.2,0.1l0.2-1.9c-1.2,0.6-2.3,1.3-3.5,2C48.4,49.6,49.1,49.5,49.8,49.5z"/>
	<path fill="#80CCEB" d="M61.4,55.1l15.1-11.7c-2-0.3-4-0.5-6.1-0.5c-1,0-2,0-2.9,0.1l-8.6,9.5C59.8,53.3,60.6,54.2,61.4,55.1z"/>
	<path fill="#80CCEB" d="M64.5,63.3c0,0.1,0,0.3,0,0.4c2,1.4,2.8,3.4,2.8,3.4s1.6-0.6,3.5-0.7l0.2-3.2L64.5,63.3z"/>
	<path fill="#80CCEB" d="M105.3,62.1l-22.3,0.6l0.1,1.6c1-0.2,2.1-0.4,3.3-0.3c5.2,0.2,7.8,5.2,8.7,7.4l15.3,2.2
		C109.3,69.5,107.6,65.6,105.3,62.1z"/>
	<path fill="#80CCEB" d="M39.2,74.3L28.8,86.1c0.1,2,0.3,4,0.6,5.9c0.1-0.3,1.7-4.2,4.4-3.9c0,0-1.8-5.8,2.4-10
		c1.7-1.7,3.3-2.3,4.5-2.3C40.2,75.3,39.7,74.8,39.2,74.3z"/>
	<path fill="#80CCEB" d="M34.3,63.8l0.8,0c0-0.5,0.1-1.1,0.1-1.6C34.9,62.8,34.6,63.3,34.3,63.8z"/>
	<path fill="#80CCEB" d="M29.6,76.1c-0.5,2.4-0.8,4.9-0.8,7.5L38.9,74c-0.8-0.8-1.4-1.8-2-2.8L29.6,76.1z"/>
	<path fill="#80CCEB" d="M89.8,47.8c-3.1-1.7-6.5-2.9-10.1-3.8L61.7,55.5c0.7,1,1.3,2,1.8,3.2L89.8,47.8z"/>
	<path fill="#80CCEB" d="M65.2,43.3c-2.4,0.3-4.7,0.8-6.9,1.5l-2.9,5.8c1.1,0.5,2.2,1,3.1,1.7L65.2,43.3z"/>
	<path fill="#80CCEB" d="M82.9,60.5l19.5-2.4c-2.5-3.1-5.5-5.8-8.8-8l-11.8,3.6c0.2,0.1,0.5,0.2,0.7,0.5L82.9,60.5z"/>
	<path fill="#80CCEB" d="M31.8,69.1c-0.7,1.8-1.3,3.6-1.8,5.5l6.8-3.6c-0.5-1-0.9-2-1.2-3.1L31.8,69.1z"/>
	<path fill="#80CCEB" d="M56.9,45.2c-1.7,0.6-3.4,1.3-5,2.1l-0.5,2.3c1.2,0.1,2.4,0.4,3.5,0.8L56.9,45.2z"/>
	<path fill="#80CCEB" d="M34.1,64.2c-0.7,1.3-1.4,2.7-2,4.1l3.4-0.8c-0.2-1.1-0.4-2.2-0.4-3.3L34.1,64.2z"/>
	<path fill="#80CCEB" d="M74.5,67.1c0.6,0.4,1.2,0.9,1.6,1.6l0.1,0c0.2-0.2,1.2-1.5,3.1-2.7l0.2-3.2L74.2,63L74.5,67.1z"/>
	<path fill="#FFE4B1" d="M108.2,117c-0.1,0-0.1,0.1-0.2,0.1C108.1,117.1,108.1,117.1,108.2,117z"/>
	<path fill="#FFE4B1" d="M105.6,119.2c0.1-0.1,0.2-0.1,0.3-0.2c0,0,0,0,0,0C105.7,119,105.6,119.1,105.6,119.2L105.6,119.2z"/>
	<path fill="#FFE4B1" d="M121.6,75.3l-11.1-1.6l-15.3-2.2c0.2,0.6,0.4,1,0.4,1s5.2-1.4,6.9,4.1c0,0,7.2-3.3,11.2,0.8
		c0.8,0.8,1.4,1.7,1.8,2.6l6.6,1.6l4.1,1l0,0c0-0.1,0-0.2,0-0.2c0.1-0.8,0.1-1.6,0.2-2.3c0-0.9,0.1-1.7,0.1-2.6c0-0.5,0-0.9,0-1.4
		L121.6,75.3z"/>
	<path fill="#FFE4B1" d="M102.1,42.7l-12.3,5.1L63.4,58.7c0.1,0.2,0.1,0.3,0.2,0.5l7.7-2.4l0-0.2c0,0,1-0.9,2-0.4l6.6-2l0-0.1
		c0,0,0.9-0.8,1.8-0.5L93.5,50l12.7-3.9l7.9-2.4l0,0c0,0,0,0,0,0c-0.6-0.7-1.3-1.5-1.9-2.2c0,0-0.1-0.1-0.1-0.1
		c-0.7-0.7-1.3-1.4-2-2L102.1,42.7z"/>
	<path fill="#FFE4B1" d="M86.8,35.4l-10.3,8L61.4,55.1c0.1,0.1,0.2,0.3,0.3,0.4L79.7,44l11.4-7.2l8.3-5.3l0,0c0,0,0,0,0,0
		c-0.7-0.4-1.5-0.8-2.3-1.2c0,0,0,0-0.1,0c-0.8-0.4-1.6-0.8-2.4-1.1L86.8,35.4z"/>
	<path fill="#FFE4B1" d="M51,124.4C51,124.4,51,124.4,51,124.4c0.1,0,0.1,0.1,0.1,0.1c0,0,0,0,0,0C51.1,124.5,51,124.4,51,124.4z"/>
	<path fill="#FFE4B1" d="M48.7,123.2L48.7,123.2L48.7,123.2C48.7,123.2,48.7,123.2,48.7,123.2c0.1,0,0.1,0.1,0.2,0.1
		C48.8,123.3,48.7,123.2,48.7,123.2z"/>
	<path fill="#FFE4B1" d="M114.9,56.5L102.4,58l-19.5,2.4l0.2,2.3l22.3-0.6l12.4-0.4l6.3-0.2c-0.3-1-0.7-2-1-2.9
		c0-0.1-0.1-0.2-0.1-0.2c-0.4-0.9-0.8-1.9-1.2-2.8L114.9,56.5z"/>
	<polygon fill="#FFE4B1" points="92.7,126.3 92.7,126.3 92.7,126.3 	"/>
	<path fill="#FFE4B1" d="M29.2,64.5l4.9-0.2l1,0c0,0,0,0,0,0c0-0.1,0.1-0.2,0.1-0.3l-0.8,0l-4.8,0.1L23.6,64h0c0,0,0-0.3,0-0.3
		c-0.1,0.5-0.3,0.8-0.4,1.2L29.2,64.5z"/>
	<path fill="#FFE4B1" d="M110.4,115c0.1-0.1,0.1-0.1,0.2-0.2c0,0,0,0,0,0l0,0l0,0C110.5,114.9,110.5,114.9,110.4,115z"/>
	<path fill="#FFE4B1" d="M119.6,103L119.6,103C119.7,103,119.7,103,119.6,103c0.1-0.1,0.1-0.1,0.1-0.1l0,0l0.1-0.2
		C119.8,102.8,119.7,102.9,119.6,103z"/>
	<path fill="#FFE4B1" d="M38.5,115.9C38.5,115.9,38.5,115.9,38.5,115.9c0,0,0.1,0.1,0.2,0.2l0,0l0,0l0,0
		C38.6,116,38.6,115.9,38.5,115.9z"/>
	<path fill="#FFE4B1" d="M122,98.3l0.1-0.2c0.2-0.4,0.3-0.7,0.5-1.1c0,0,0,0,0,0l0,0l0,0C122.4,97.4,122.2,97.9,122,98.3z"/>
	<polygon fill="#FFE4B1" points="28.9,104 28.9,104 28.9,104 28.9,104 	"/>
	<path fill="#FFE4B1" d="M53.5,125.6L53.5,125.6c-0.1,0-0.1,0-0.2-0.1C53.4,125.5,53.5,125.6,53.5,125.6z"/>
	<path fill="#FFE4B1" d="M86.6,128.2C86.6,128.2,86.6,128.2,86.6,128.2L86.6,128.2C86.6,128.2,86.6,128.2,86.6,128.2z"/>
	<path fill="#FFE4B1" d="M27.1,100.7L27.1,100.7L27.1,100.7C27.1,100.7,27.1,100.7,27.1,100.7c0,0.1,0.1,0.1,0.1,0.2
		C27.2,100.8,27.1,100.8,27.1,100.7z"/>
	<path fill="#FFE4B1" d="M35.6,113c-0.1-0.1-0.1-0.1-0.2-0.2l0,0v0c0,0,0,0,0,0C35.5,112.8,35.5,112.9,35.6,113
		C35.6,113,35.6,113,35.6,113z"/>
	<path fill="#FFE4B1" d="M28.8,86.1l10.4-11.8c-0.1-0.1-0.2-0.2-0.2-0.3l-10.1,9.6l-2.6,2.5l-3.2,3c0.2,1,0.5,1.9,0.7,2.8
		c0,0,0,0,0,0l0,0l2.8-3.2L28.8,86.1z"/>
	<path fill="#FFE4B1" d="M65.2,43.3l-6.7,9c0.1,0.1,0.3,0.2,0.4,0.3l8.6-9.5l8.4-9.4l7.1-7.9v0c0,0,0,0,0,0c-0.7-0.1-1.3-0.2-2-0.3
		c-0.1,0-0.1,0-0.2,0c-0.7-0.1-1.2-0.2-1.9-0.2c0,0,0.1,0,0.1,0v0l-6.5,8.5L65.2,43.3z"/>
	<path fill="#FFE4B1" d="M42,51.7c0.1-0.1,0.2-0.1,0.3-0.2l-2-4.1l-3.4-7.1l0,0c-0.4,0.4-0.7,0.8-1.1,1.2l0,0l3.9,6.5L42,51.7z"/>
	<path fill="#FFE4B1" d="M39.1,54.1c0.1-0.1,0.2-0.2,0.2-0.3L37,51.1l-4.7-5.4l0,0c0,0,0,0,0,0c-0.3,0.3-0.5,0.7-0.8,1.1
		c0,0,0,0,0,0l0,0l5.1,4.8L39.1,54.1z"/>
	<path fill="#FFE4B1" d="M51.2,47.6L51,49.5c0.1,0,0.3,0,0.4,0l0.5-2.3l1.9-9.1l2-9.9v0c0,0,0,0,0,0c-0.9,0.3-1.7,0.7-2.6,1
		c0,0,0,0,0,0l0,0l-1,9.6L51.2,47.6z"/>
	<path fill="#FFE4B1" d="M35.6,60.5c0-0.1,0.1-0.2,0.1-0.3l-4-1.3l-6-2l0,0c-0.2,0.4-0.3,0.8-0.5,1.2l0,0l6.1,1.4L35.6,60.5z"/>
	<path fill="#FFE4B1" d="M29.6,76.1l7.3-4.8c-0.1-0.1-0.1-0.2-0.2-0.3L30,74.6l-3.7,2L21.7,79h0c0,0,0,0,0,0.1c0,0.7,0.1,1.3,0.1,2
		c0,0,0-0.1,0-0.1h0l4.3-2.7L29.6,76.1z"/>
	<path fill="#FFE4B1" d="M31.8,69.1l3.8-1.3c0-0.1-0.1-0.2-0.1-0.3l-3.4,0.8l-4.5,1l-5.5,1.2c-0.1,0.6-0.2,1.2-0.2,1.8c0,0,0,0,0,0
		l0,0l5.4-1.8L31.8,69.1z"/>
	<path fill="#FFE4B1" d="M56.9,45.2l-2,5.2c0.1,0.1,0.3,0.1,0.4,0.2l2.9-5.8l5-9.9l4.8-9.6l0,0c0,0,0,0,0,0
		c-1.2,0.1-2.4,0.3-3.5,0.5c0,0,0,0,0,0l0,0l-3.8,9.7L56.9,45.2z"/>
	<path fill="#FFE4B1" d="M36.9,57.1c0.1-0.1,0.1-0.2,0.2-0.3l-3-2l-5.5-3.7l0,0c-0.2,0.4-0.4,0.7-0.6,1.1l0,0l5.8,3.1L36.9,57.1z"/>
	<path fill="#FFE4B1" d="M45.5,50.1c0.1,0,0.3-0.1,0.4-0.1l-1.2-6.4L43.1,35l0,0c0,0,0,0,0,0c-0.5,0.4-1,0.8-1.5,1.1c0,0,0,0,0,0
		l0,0l2.3,8.1L45.5,50.1z"/>
	<path fill="#FFE4B1" d="M76.2,68.7L76.2,68.7C76.2,68.7,76.2,68.7,76.2,68.7C76.2,68.7,76.2,68.7,76.2,68.7z"/>
	<polygon fill="#FFE4B1" points="74.2,63 79.5,62.8 79.6,60.9 74.1,61.6 	"/>
	<path fill="#FFE4B1" d="M64.5,63.3l6.5-0.2l0.1-1.1l-6.6,0.8C64.4,62.9,64.4,63.1,64.5,63.3z"/>
	<path fill="#FFD78B" d="M43.7,76.6C43.7,76.6,43.7,76.6,43.7,76.6c0-0.1-0.1-0.1-0.2-0.1C43.7,76.6,43.7,76.6,43.7,76.6z"/>
	<path fill="#FFD78B" d="M64.4,62.8c-0.1-1.2-0.4-2.4-0.8-3.6c-0.1-0.2-0.1-0.3-0.2-0.5c-0.5-1.1-1.1-2.2-1.8-3.2
		c-0.1-0.1-0.2-0.3-0.3-0.4c-0.7-1-1.6-1.8-2.6-2.6c-0.1-0.1-0.2-0.2-0.4-0.3c-1-0.7-2-1.3-3.1-1.7c-0.1-0.1-0.3-0.1-0.4-0.2
		c-1.1-0.4-2.3-0.7-3.5-0.8c-0.1,0-0.3,0-0.4,0c-0.4,0-0.8-0.1-1.2-0.1c-0.7,0-1.4,0.1-2.1,0.2c-0.6,0.1-1.3,0.2-1.9,0.4
		c-0.1,0-0.3,0.1-0.4,0.1c-1.1,0.3-2.2,0.8-3.2,1.4c-0.1,0.1-0.2,0.1-0.3,0.2c-1,0.6-1.9,1.3-2.7,2.1c-0.1,0.1-0.2,0.2-0.2,0.3
		c-0.8,0.8-1.5,1.7-2,2.7c-0.1,0.1-0.1,0.2-0.2,0.3c-0.5,1-1,2-1.3,3.1c0,0.1-0.1,0.2-0.1,0.3c-0.1,0.6-0.3,1.1-0.3,1.7
		c-0.1,0.5-0.2,1.1-0.2,1.6c0,0.1-0.1,0.2-0.1,0.3c0,0,0,0,0,0c0,1.1,0.2,2.3,0.5,3.3c0,0.1,0.1,0.2,0.1,0.3
		c0.3,1.1,0.7,2.2,1.2,3.1c0.1,0.1,0.1,0.2,0.2,0.3c0.6,1,1.2,1.9,2,2.8c0.1,0.1,0.2,0.2,0.2,0.3c0.5,0.5,1,1,1.6,1.4
		c0.7,0,1.3,0.1,1.7,0.2c-3.8-2.1-6.3-6.1-6.3-10.7c0-6.8,5.5-12.3,12.3-12.3c5.7,0,10.5,3.9,11.9,9.2c1.7,0.1,3.1,0.7,4.1,1.5
		c0-0.1,0-0.3,0-0.4C64.4,63.1,64.4,62.9,64.4,62.8z"/>
	<path fill="#FFC041" d="M48.5,52.9c-6.8,0-12.3,5.5-12.3,12.3c0,4.6,2.5,8.6,6.3,10.7c0.5,0.2,0.9,0.4,1.1,0.5
		c0.1,0,0.1,0.1,0.2,0.1c0.2-0.4,1.5-3.2,4.5-2.8c0,0,0.6-8.8,8.3-11.2c1.4-0.4,2.7-0.6,3.8-0.5C59,56.8,54.2,52.9,48.5,52.9z"/>
	<path fill="#FFFFFF" d="M49.7,123.7c0.4,0.2,0.8,0.4,1.2,0.6c0,0,0.1,0,0.1,0.1c0.1,0,0.1,0.1,0.2,0.1c0.2,0.1,0.4,0.2,0.6,0.2
		c0.2,0.1,0.5,0.3,0.7,0.3c0,0,0,0,0,0C51.5,125,50.6,124.2,49.7,123.7z"/>
	<path fill="#FFFFFF" d="M52.5,125.1C52.5,125.1,52.6,125.2,52.5,125.1C52.6,125.2,52.6,125.2,52.5,125.1
		C52.5,125.1,52.5,125.1,52.5,125.1z"/>
	<path fill="#FFFFFF" d="M94.7,125.5C94.7,125.5,94.7,125.5,94.7,125.5c0.1,0,0.2-0.1,0.3-0.1c0.4-0.2,0.8-0.3,1.1-0.5
		c0.3-0.2,0.7-0.3,1-0.5c0.1,0,0.2-0.1,0.3-0.1C96.6,124.7,95.7,125.1,94.7,125.5z"/>
	<path fill="#FFFFFF" d="M91.3,126.8c0.1-0.1,0.3-0.2,0.4-0.3c0.3-0.1,0.6-0.5,0.9-0.5c0,0,0,0,0,0c0,0,0,0.1,0,0.1
		c0.4-0.2,0.9-0.3,1.3-0.4c0.1,0,0.1,0,0.2,0C93.2,126.1,92.3,126.5,91.3,126.8z"/>
	<path fill="#FFFFFF" d="M100.1,122.8c-0.1,0-0.1,0.1-0.2,0.1c0,0,0,0,0,0c-0.8,0.5-1.6,0.9-2.4,1.3c0.3-0.1,0.5-0.3,0.7-0.4
		c0.4-0.2,0.7-0.4,1.1-0.6c0.3-0.2,0.6-0.3,0.9-0.5C100.2,122.7,100.1,122.7,100.1,122.8z"/>
	<path fill="#FFFFFF" d="M115.9,108.7C115.9,108.7,115.9,108.7,115.9,108.7c-0.2,0.2-0.3,0.4-0.4,0.6c0.4-0.6,0.9-1.2,1.3-1.8
		c0-0.1,0.1-0.1,0.1-0.2c0.1-0.1,0.2-0.3,0.3-0.4C116.8,107.5,116.4,108.1,115.9,108.7z"/>
	<path fill="#FFFFFF" d="M88.3,127.8c0.4-0.1,0.8-0.2,1.2-0.4c0.2-0.1,0.4-0.1,0.5-0.2c0.3-0.1,0.6-0.2,0.9-0.3
		C90.1,127.2,89.2,127.5,88.3,127.8z"/>
	<path fill="#FFFFFF" d="M108.4,116.9C108.4,116.9,108.4,116.9,108.4,116.9c-0.6,0.6-1.3,1.1-1.9,1.6c0,0,0,0,0,0
		c-0.1,0.1-0.2,0.1-0.3,0.2c0,0,0,0,0,0c0.2-0.2,0.4-0.3,0.6-0.5c0.4-0.3,0.8-0.6,1.2-1c0,0,0,0,0,0c0.1,0,0.1-0.1,0.2-0.1
		c0.1-0.1,0.3-0.2,0.4-0.3C108.5,116.8,108.4,116.8,108.4,116.9z"/>
	<path fill="#FFFFFF" d="M111.7,113.7C111.7,113.7,111.7,113.7,111.7,113.7c-0.2,0.2-0.4,0.4-0.6,0.6c0.1-0.1,0.2-0.2,0.3-0.2
		c0.1-0.1,0.1-0.1,0.2-0.2c0.6-0.6,1.1-1.2,1.6-1.8C112.7,112.6,112.2,113.2,111.7,113.7z"/>
	<path fill="#FFFFFF" d="M63.1,128.6c0.1,0,0.2,0,0.3,0.1c0.2,0,0.4,0.1,0.6,0.1c0.6,0.1,1.2,0.2,1.8,0.3c0.2,0,0.4,0.1,0.5,0.1
		C65.2,129,64.1,128.8,63.1,128.6z"/>
	<path fill="#FFFFFF" d="M40.3,117.5C40.3,117.5,40.3,117.5,40.3,117.5c0.4,0.3,0.7,0.6,1.1,0.9c0.3,0.3,0.7,0.5,1,0.8
		c0.3,0.2,0.6,0.5,0.9,0.7c0,0,0,0,0,0C42.4,119.1,41.3,118.3,40.3,117.5z"/>
	<path fill="#FFFFFF" d="M38.5,115.9c0.1,0,0.1,0.1,0.2,0.1c0.2,0.1,0.3,0.3,0.5,0.4c0.2,0.2,0.5,0.4,0.7,0.6
		c0.2,0.1,0.3,0.3,0.5,0.4C39.7,117,39.1,116.4,38.5,115.9z"/>
	<path fill="#FFFFFF" d="M103.3,120.8c-0.3,0.2-0.6,0.4-0.9,0.6c0,0,0,0,0,0C102.7,121.2,103,121,103.3,120.8z"/>
	<path fill="#FFFFFF" d="M45.5,121.3c-0.3-0.2-0.6-0.4-0.9-0.6c0,0,0,0,0,0c-0.3-0.2-0.5-0.4-0.8-0.5c0.2,0.1,0.4,0.3,0.6,0.4
		c0.3,0.2,0.6,0.4,1,0.6c0.3,0.2,0.7,0.4,1,0.6c0,0,0,0,0.1,0C46.1,121.7,45.8,121.5,45.5,121.3z"/>
	<path fill="#FFFFFF" d="M31.4,107.8c0.3,0.4,0.6,0.8,0.9,1.2c0,0,0.1,0.1,0.1,0.1c0.3,0.4,0.7,0.9,1,1.3
		C32.7,109.6,32,108.7,31.4,107.8z"/>
	<path fill="#FFFFFF" d="M84.8,128.6C84.8,128.6,84.9,128.6,84.8,128.6c0.6-0.1,1.1-0.2,1.6-0.4c0.1,0,0.1,0,0.2,0c0,0,0,0,0,0
		c0.2-0.1,0.4-0.1,0.6-0.1c0.2,0,0.3-0.1,0.5-0.1C86.8,128.2,85.8,128.4,84.8,128.6z"/>
	<path fill="#FFFFFF" d="M30.9,107C30.9,107,30.8,107,30.9,107c-0.4-0.6-0.9-1.2-1.3-1.9c0,0.1,0.1,0.1,0.1,0.2
		c0.1,0.2,0.2,0.4,0.4,0.5c0.3,0.4,0.6,0.9,0.9,1.3c0.1,0.1,0.2,0.3,0.3,0.4C31.1,107.4,31,107.2,30.9,107z"/>
	<path fill="#FFFFFF" d="M47.1,122.3C47.1,122.3,47.1,122.3,47.1,122.3c-0.1,0-0.1-0.1-0.2-0.1c0,0-0.1,0-0.1-0.1
		c0.2,0.1,0.3,0.2,0.5,0.3c0.4,0.2,0.7,0.4,1.1,0.6c0.1,0.1,0.2,0.1,0.3,0.2c0.1,0,0.1,0.1,0.2,0.1c0.1,0.1,0.3,0.2,0.4,0.2
		c0.1,0.1,0.2,0.1,0.3,0.2C48.7,123.3,47.9,122.8,47.1,122.3z"/>
	<path fill="#FFFFFF" d="M35.9,113.2C35.9,113.3,35.9,113.3,35.9,113.2c0.3,0.3,0.5,0.5,0.6,0.7c0.3,0.3,0.6,0.7,1,1
		c0.2,0.2,0.4,0.4,0.6,0.6C37.3,114.8,36.6,114,35.9,113.2z"/>
	<path fill="#FFFFFF" d="M38.4,115.8C38.4,115.8,38.4,115.8,38.4,115.8C38.4,115.8,38.4,115.8,38.4,115.8
		C38.4,115.8,38.4,115.8,38.4,115.8z"/>
	<path fill="#FFFFFF" d="M74,129.7c0.8,0,1.7,0,2.5-0.1c0.2,0,0.5,0,0.7,0C76.1,129.7,75.1,129.7,74,129.7z"/>
	<path fill="#FFFFFF" d="M77.9,129.6c0.4,0,0.7-0.1,1.1-0.1c0.3,0,0.6-0.1,0.9-0.1c0.4,0,0.7-0.1,1.1-0.1
		C80,129.4,79,129.5,77.9,129.6z"/>
	<path fill="#FFFFFF" d="M66.9,129.2c0.4,0.1,0.9,0.1,1.3,0.2c0.3,0,0.6,0.1,0.9,0.1c0.3,0,0.7,0.1,1,0.1
		C69,129.5,67.9,129.4,66.9,129.2z"/>
	<path fill="#FFFFFF" d="M81.4,129.2C81.4,129.2,81.5,129.2,81.4,129.2c0.4-0.1,0.7-0.1,1-0.2c0.5-0.1,1-0.2,1.5-0.3
		c0.1,0,0.2,0,0.2,0C83.3,128.9,82.3,129.1,81.4,129.2z"/>
	<path fill="#FFFFFF" d="M56.4,126.7c0,0,0.1,0,0.1,0c0.5,0.2,0.9,0.3,1.4,0.5c0.3,0.1,0.6,0.2,0.9,0.3c0.2,0.1,0.4,0.1,0.6,0.2
		C58.3,127.4,57.3,127,56.4,126.7z"/>
	<path fill="#FFFFFF" d="M55.8,126.5c-0.4-0.2-0.9-0.3-1.3-0.5c0.4,0.1,0.7,0.3,1.1,0.4C55.7,126.4,55.7,126.5,55.8,126.5
		C55.8,126.5,55.8,126.5,55.8,126.5z"/>
	<path fill="#FFFFFF" d="M117.3,106.9C117.3,106.9,117.3,106.8,117.3,106.9C117.3,106.8,117.3,106.9,117.3,106.9
		C117.2,106.9,117.3,106.9,117.3,106.9z"/>
	<path fill="#FFFFFF" d="M29.5,105c0,0.1,0.1,0.1,0.1,0.2c0,0,0,0,0,0C29.6,105.1,29.5,105,29.5,105z"/>
	<path fill="#FFFFFF" d="M115.4,109.4c-0.6,0.8-1.3,1.6-1.9,2.3C114.2,111,114.8,110.2,115.4,109.4z"/>
	<path fill="#FFFFFF" d="M59.8,127.8c0.2,0.1,0.4,0.1,0.6,0.2c0.2,0.1,0.4,0.1,0.6,0.2c0.6,0.2,1.2,0.3,1.8,0.4
		C61.8,128.3,60.8,128.1,59.8,127.8z"/>
	<path fill="#FFFFFF" d="M101.5,121.9c-0.3,0.2-0.5,0.4-0.8,0.5c0.2-0.1,0.4-0.3,0.7-0.4c0.2-0.1,0.4-0.3,0.6-0.4
		c0.1-0.1,0.3-0.2,0.4-0.3C102.1,121.6,101.8,121.7,101.5,121.9z"/>
	<path fill="#FFFFFF" d="M76.2,68.7C76.2,68.7,76.2,68.7,76.2,68.7C76.2,68.7,76.2,68.7,76.2,68.7c-0.5-0.7-1.1-1.3-1.7-1.6l0.3,3.7
		L79,71l0.3-5C77.4,67.2,76.4,68.5,76.2,68.7z"/>
	<path fill="#FFFFFF" d="M28.9,104c0.1,0.2,0.2,0.4,0.4,0.6c-0.6-0.9-1.1-1.8-1.6-2.8c0.3,0.6,0.6,1.2,1,1.8
		C28.7,103.7,28.8,103.9,28.9,104C28.9,104,28.9,104,28.9,104z"/>
	<path fill="#FFFFFF" d="M105.8,119c-0.8,0.6-1.6,1.2-2.5,1.8c0.4-0.2,0.7-0.5,1.1-0.8c0.2-0.2,0.4-0.3,0.6-0.5
		c0.2-0.1,0.3-0.3,0.5-0.4C105.6,119.1,105.7,119,105.8,119z"/>
	<path fill="#FFFFFF" d="M53.5,125.6c0.2,0.1,0.3,0.1,0.5,0.2c-0.3-0.1-0.5-0.2-0.8-0.3c-0.1-0.1-0.3-0.1-0.4-0.2
		c0.2,0.1,0.3,0.1,0.5,0.2c0,0,0,0,0,0C53.4,125.5,53.5,125.6,53.5,125.6z"/>
	<path fill="#FFFFFF" d="M35.6,113c-0.2-0.2-0.4-0.4-0.5-0.6c0,0,0,0.2,0,0.2c-0.5-0.6-1-1.6-1.5-1.6c0,0,0,0,0,0c0,0,0-0.3,0-0.3
		c0.4,0.5,0.8,0.8,1.2,1.3c0.1,0.1,0.2,0.2,0.3,0.3c0.1,0.2,0.3,0.3,0.5,0.5C35.5,112.8,35.5,112.9,35.6,113z"/>
	<path fill="#FFFFFF" d="M119.8,102.7c0.8-1.4,1.5-2.9,2.1-4.3c0.2-0.4,0.4-0.9,0.6-1.4c0.4-1,0.8-2,1.2-3.1c0,0,0,0,0,0
		c0.2-0.7,0.4-1.3,0.6-2c0,0,0-0.1,0-0.1c0.2-0.7,0.4-1.4,0.5-2.1c-1.1-0.9-2.2-1.6-3.3-2c-2.9-1.2-5.5-0.9-5.5-0.9s0.9-3.3-0.7-6.7
		c-0.4-0.9-1-1.8-1.8-2.6c-4-4.1-11.2-0.8-11.2-0.8c-1.7-5.5-6.9-4.1-6.9-4.1s-0.1-0.4-0.4-1c-0.9-2.1-3.5-7.2-8.7-7.4
		c-1.2-0.1-2.3,0.1-3.3,0.3l0.5,6.9l3.5,0.2L98.5,80l2.7,6.2l-1.8,0.6l-0.4,0v8.3c3,0.7,4.8,1.5,7,2.4c0.2,0.1,0.5,0.1,0.7,0.2
		c2.7,1.1,5.3,2.3,7.9,3.6c0.1,0,0.2,0.1,0.3,0.1c1.3,0.6,2.5,1.1,3.7,1.8c0,0,0.1-0.2,0.1-0.2c0,0,0,0,0,0c0.2,0,0.4,0.4,0.6,0.5
		c-0.5,0.9-1.1,1.9-1.6,2.7c0.1-0.2,0.3-0.4,0.4-0.6c0.1-0.1,0.1-0.1,0.2-0.2c0.4-0.6,0.7-1.1,1-1.7c0,0,0-0.1,0.1-0.1
		c0.1-0.2,0.2-0.4,0.4-0.7C119.7,102.9,119.8,102.8,119.8,102.7z"/>
	<path fill="#FFFFFF" d="M27.2,100.9c0.1,0.3,0.3,0.6,0.4,0.8c5.1-2.7,10.5-4.9,16.1-6.7l-0.4-11.4l-1.2,0l-0.3-1.4l3.5-4.9l9.5-7.9
		l15.7,1l0.2-4.2c-1.9,0.1-3.5,0.7-3.5,0.7s-0.9-1.9-2.8-3.4c-1-0.8-2.4-1.4-4.1-1.5c-1.1-0.1-2.4,0-3.8,0.5
		c-7.8,2.4-8.3,11.2-8.3,11.2c-3-0.4-4.3,2.4-4.5,2.8c0,0,0,0,0,0s-0.1-0.1-0.2-0.1c-0.2-0.1-0.6-0.4-1.1-0.5
		c-0.5-0.2-1-0.3-1.7-0.2c-1.2,0.1-2.8,0.6-4.5,2.3c-4.2,4.2-2.4,10-2.4,10c-2.7-0.3-4.2,3.6-4.4,3.9c0,0,0,0,0,0
		c-0.8-0.4-1.7-0.5-2.5-0.5c-1.2,0-2.4,0.5-3.1,0.9c0,0,0,0,0,0c0,0,0,0,0,0c0.2,0.5,0.3,1.1,0.5,1.6c0.1,0.2,0.1,0.4,0.2,0.5
		c0.2,0.5,0.4,1,0.6,1.5c0.1,0.2,0.1,0.4,0.2,0.6c0.2,0.5,0.4,1,0.6,1.5c0,0.1,0.1,0.2,0.1,0.3c0.3,0.7,0.6,1.4,1,2.1
		C27.1,100.8,27.2,100.8,27.2,100.9z"/>
	<path fill="#FFFFFF" d="M110.6,114.8c0.1-0.1,0.2-0.2,0.3-0.3c-0.7,0.7-1.4,1.4-2.1,2c0.3-0.3,0.7-0.6,1-0.9
		c0.2-0.1,0.3-0.3,0.5-0.4c0.1-0.1,0.1-0.1,0.2-0.2C110.5,114.9,110.5,114.9,110.6,114.8z"/>
	<path fill="#FFFFFF" d="M70.6,129.6c0,0,0.1,0,0.1,0c0.3,0,0.5,0,0.8,0c0.8,0,1.6,0.1,2.5,0.1C72.9,129.7,71.7,129.7,70.6,129.6z"
		/>
	<polygon fill="#FFFFFF" points="55,70.9 52.1,73.5 55.1,71 	"/>
	<path fill="#3F5962" d="M82.9,60.5l-0.5-6.4c-0.2-0.2-0.4-0.4-0.7-0.5c-0.9-0.3-1.8,0.5-1.8,0.5l0,0.1l-0.4,6.7l-0.1,2L79.3,66
		L79,71l-4.2-0.3l-0.3-3.7L74.2,63l-0.1-1.4l-0.4-5c-0.2-0.2-0.3-0.3-0.5-0.4c-1-0.5-2,0.4-2,0.4l0,0.2L71,61.9L71,63.1l-0.2,3.2
		l-0.2,4.2l-15.7-1l-9.5,7.9l-3.5,4.9l0.3,1.4l1.2,0l0.1,0l3-5.2l5.7-5l2.9-2.6l0.1,0l13.1,9.4l1.7,3.3l0.6,1.2l0,1.2l29.1,0.8
		l0.1,0l1.4-0.6L98.5,80l-11.3-8.5l-3.5-0.2l-0.5-6.9l-0.1-1.6L82.9,60.5z M101,85.7l-28.6-1l0,0.2h-0.5l-2.4-5.1L55.1,70l0.4-0.2
		L70,79.4l0.1,0.3l28.1,0.4L101,85.7z"/>
	<path fill="#4AA776" d="M55.8,126.5C55.8,126.5,55.8,126.5,55.8,126.5c0.1,0,0.2,0.1,0.3,0.1c0,0,0,0,0,0c0,0,0,0,0.1,0
		C56.1,126.6,55.9,126.5,55.8,126.5z"/>
	<path fill="#4AA776" d="M56.2,126.6c0,0,0.1,0,0.1,0c1,0.4,2,0.7,3,1c0.1,0,0.3,0.1,0.4,0.1c1,0.3,2,0.5,3,0.8c0.1,0,0.2,0,0.3,0.1
		c1,0.2,2.1,0.4,3.2,0.6c0,0,0.1,0,0.1,0c0.2,0,0.3,0,0.5,0.1c1.1,0.1,2.1,0.3,3.2,0.3c0.2,0,0.4,0,0.6,0c1.1,0.1,2.3,0.3,3.4,0.3
		c1.1,0,2.1,0.1,3.2,0.1c0,0,0,0,0,0c0.2,0,0.5-0.2,0.7-0.2c1-0.1,2.1-0.3,3.1-0.4c0.1,0,0.3-0.1,0.4-0.1c0.9-0.1,1.9-0.3,2.8-0.5
		c0.2,0,0.4-0.1,0.6-0.1c1-0.2,2-0.5,3-0.7c0.2,0,0.3-0.1,0.5-0.2c0.9-0.3,1.8-0.5,2.7-0.8c0,0,0.1,0,0.1,0
		C77.8,124,65.9,124.7,56.2,126.6z"/>
	<path fill="#4AA776" d="M29.3,104.6c0.1,0.1,0.1,0.2,0.2,0.4c0,0.1,0.1,0.1,0.1,0.2c4-2.3,12.6-6.6,24.5-9.1
		c-1.2-0.2-2.3-0.4-3.1-0.5c-0.2,0-0.5,0-0.7-0.1c-0.2,0-0.4,0-0.6,0c-1.9-0.1-3.8-0.2-6-0.1l0-0.3c-5.6,1.7-11,4.1-16.1,6.8
		c0,0-0.1,0.1-0.1,0.1H27c0,0,0-0.3,0-0.3c0,0,0.3,0,0.4,0.1C27.9,102.7,28.7,103.7,29.3,104.6z"/>
	<path fill="#4AA776" d="M118.6,103.4c-1.2-0.7-2.5-1.4-3.7-2C116.2,102,117.4,102.7,118.6,103.4z"/>
	<path fill="#4AA776" d="M115.4,109.4C115.5,109.4,115.5,109.3,115.4,109.4c0.2-0.3,0.4-0.5,0.5-0.7c-5.8-3.2-11.4-5.6-16.8-7.5
		c-13.3-0.6-26.9-0.1-28.2-0.1l-0.4,0.1c0,0-2.7-1.9-8.2-3.6c-0.2-0.1-0.4-0.1-0.6-0.2c-0.2-0.1-0.4-0.1-0.7-0.2
		c-14.8,1.8-25.6,7.1-30.2,9.7c0.1,0.2,0.3,0.4,0.4,0.6c0,0,0.1,0.1,0.1,0.1c0,0,0,0,0,0c0.6,0.9,1.3,1.8,2,2.6c0,0,0,0,0,0
		c0,0,0,0,0,0c4.7-2.3,11.9-5.3,21.1-7.2c14-2.8,35-3.4,58.8,8.6c0,0,0,0,0,0c0,0,0,0,0,0c0.1-0.1,0.1-0.1,0.1-0.2
		C114.2,111,114.8,110.2,115.4,109.4z"/>
	<path fill="#4AA776" d="M53.3,125.5c-0.2-0.1-0.5-0.2-0.7-0.3c0,0,0,0,0,0c0.1,0,0.2,0.1,0.3,0.2C53,125.4,53.2,125.4,53.3,125.5z"
		/>
	<path fill="#4AA776" d="M46.9,122.2c-0.5-0.3-1-0.6-1.4-0.9c0.3,0.2,0.6,0.4,0.9,0.6c0,0,0.1,0,0.1,0.1c0,0,0.1,0.1,0.1,0.1
		c0.1,0,0.1,0.1,0.2,0.1C46.8,122.1,46.9,122.2,46.9,122.2z"/>
	<path fill="#4AA776" d="M110.9,114.5c0.1-0.1,0.2-0.2,0.2-0.2c0.2-0.2,0.4-0.4,0.6-0.6c-34.9-17.3-64.2-7.4-76.7-1.3
		c0.2,0.2,0.4,0.4,0.5,0.6c0,0,0,0,0,0c0,0,0.1,0.1,0.1,0.1c0,0,0.1,0.1,0.1,0.1c0,0,0,0,0,0c0.7,0.8,1.5,1.5,2.3,2.3
		c0.1,0.1,0.1,0.1,0.2,0.2c0,0,0.1,0.1,0.1,0.1c0,0,0,0,0,0c4.3-1.8,9.9-3.7,16.4-5c12.9-2.6,31.9-3.3,53.5,6.1
		c0.1,0,0.1-0.1,0.2-0.1c0,0,0.1-0.1,0.1-0.1c0,0,0.1-0.1,0.1-0.1C109.5,115.9,110.2,115.2,110.9,114.5z"/>
	<path fill="#4AA776" d="M101.5,121.9c-0.5,0.3-0.9,0.6-1.4,0.9c0,0,0.1,0,0.1-0.1c0.1-0.1,0.3-0.1,0.4-0.2c0,0,0.1,0,0.1-0.1
		C101,122.3,101.2,122.1,101.5,121.9z"/>
	<path fill="#4AA776" d="M106.4,118.5c-28.4-12-52.6-6.4-66.1-1c1,0.8,2,1.7,3.1,2.4c0.1,0.1,0.2,0.2,0.3,0.2
		c0.3,0.2,0.5,0.4,0.8,0.5c3.2-1.1,6.8-2.1,10.7-2.9c11.6-2.4,28.2-3.1,47.1,3.6c0.3-0.2,0.6-0.4,0.9-0.6c0,0,0,0,0,0
		c0.8-0.6,1.7-1.2,2.5-1.8c0,0,0,0,0,0c0,0,0.1-0.1,0.1-0.1c0.1-0.1,0.2-0.1,0.2-0.2c0,0,0,0,0,0
		C106.3,118.6,106.4,118.5,106.4,118.5z"/>
	<path fill="#4AA776" d="M94.2,125.7c0.2-0.1,0.3-0.1,0.5-0.2c-1.2,0.5-2.4,1-3.6,1.4c0.1,0,0.2-0.1,0.3-0.1
		C92.3,126.5,93.2,126.1,94.2,125.7z"/>
	<path fill="#4AA776" d="M99.9,122.9c-21.5-7.1-40.1-4.6-52.8-0.6c0.8,0.5,1.6,1,2.5,1.4c0,0,0.1,0,0.1,0.1c0.9,0.5,1.8,0.9,2.7,1.3
		c1.1-0.3,2.2-0.5,3.3-0.7c9.9-2,23.4-2.9,39,1.1c0.9-0.4,1.8-0.8,2.7-1.3c0,0,0,0,0.1,0C98.3,123.8,99.1,123.3,99.9,122.9z"/>
	<path fill="#4AA776" d="M106.7,101.7c3.5,1.5,7,3.2,10.6,5.2c0,0,0-0.1,0.1-0.1c0.1-0.1,0.2-0.3,0.3-0.4c0.6-0.9,1.1-1.7,1.6-2.6
		c-0.2-0.1-0.4-0.2-0.6-0.3C115.4,102.6,111.2,102.1,106.7,101.7z"/>
	<path fill="#4AA776" d="M114.7,101.2c-2.5-1.3-5.1-2.5-7.8-3.6C109.5,98.7,112.1,99.9,114.7,101.2z"/>
	<path fill="#4AA776" d="M105.7,97.5c-2.2-0.9-3.7-1.7-6.7-2.4v0C102,95.8,103.5,96.6,105.7,97.5z"/>
	<path opacity="0.66" fill="#8DC5A3" d="M91,126.9C91.1,126.9,91.1,126.9,91,126.9C91.1,126.9,91.1,126.9,91,126.9
		C91,126.9,91,126.9,91,126.9z"/>
	<polygon opacity="0.66" fill="#8DC5A3" points="56.2,126.6 56.2,126.6 56.2,126.6 	"/>
	<path opacity="0.66" fill="#8DC5A3" d="M52.4,125.1C52.5,125.1,52.5,125.1,52.4,125.1C52.5,125.1,52.5,125.1,52.4,125.1
		C52.4,125.1,52.4,125.1,52.4,125.1z"/>
	<path opacity="0.66" fill="#8DC5A3" d="M102.4,121.4C102.4,121.4,102.4,121.4,102.4,121.4C102.4,121.4,102.4,121.4,102.4,121.4
		C102.4,121.4,102.4,121.4,102.4,121.4z"/>
	<path opacity="0.66" fill="#8DC5A3" d="M54.1,125.8c0.1,0.1,0.3,0.1,0.4,0.2c-0.1,0-0.2-0.1-0.3-0.1
		C54.2,125.9,54.2,125.8,54.1,125.8z"/>
	<path fill="#00B7E3" d="M117.3,106.9C117.3,106.9,117.3,106.9,117.3,106.9C117.2,106.9,117.2,106.9,117.3,106.9
		C117.2,106.9,117.2,106.9,117.3,106.9z"/>
	<path opacity="0.66" fill="#8DC5A3" d="M117.3,106.9C117.3,106.9,117.3,106.9,117.3,106.9C117.2,106.9,117.2,106.9,117.3,106.9
		C117.2,106.9,117.2,106.9,117.3,106.9z"/>
	<path fill="#00B7E3" d="M54,125.8C54.1,125.8,54.1,125.8,54,125.8c0.1,0,0.2,0.1,0.2,0.1C54.2,125.8,54.1,125.8,54,125.8z"/>
	<path opacity="0.66" fill="#8DC5A3" d="M54,125.8C54.1,125.8,54.1,125.8,54,125.8c0.1,0,0.2,0.1,0.2,0.1
		C54.2,125.8,54.1,125.8,54,125.8z"/>
	<path fill="#00B7E3" d="M94.7,125.5C94.7,125.5,94.7,125.5,94.7,125.5C94.7,125.5,94.7,125.5,94.7,125.5
		C94.7,125.5,94.7,125.5,94.7,125.5C94.7,125.5,94.7,125.5,94.7,125.5z"/>
	<path opacity="0.66" fill="#8DC5A3" d="M94.7,125.5C94.7,125.5,94.7,125.5,94.7,125.5C94.7,125.5,94.7,125.5,94.7,125.5
		C94.7,125.5,94.7,125.5,94.7,125.5C94.7,125.5,94.7,125.5,94.7,125.5z"/>
	<path fill="#00B7E3" d="M56.2,126.6C56.2,126.6,56.2,126.6,56.2,126.6C56.2,126.6,56.2,126.6,56.2,126.6
		C56.2,126.6,56.2,126.6,56.2,126.6C56.2,126.6,56.2,126.6,56.2,126.6z"/>
	<path opacity="0.66" fill="#8DC5A3" d="M56.2,126.6C56.2,126.6,56.2,126.6,56.2,126.6C56.2,126.6,56.2,126.6,56.2,126.6
		C56.2,126.6,56.2,126.6,56.2,126.6C56.2,126.6,56.2,126.6,56.2,126.6z"/>
	<polygon fill="#00B7E3" points="29.6,105.1 29.6,105.1 29.6,105.1 	"/>
	<polygon opacity="0.66" fill="#8DC5A3" points="29.6,105.1 29.6,105.1 29.6,105.1 	"/>
	<path fill="#00B7E3" d="M113.2,112.1c0,0,0.1-0.1,0.1-0.1c0,0,0,0,0,0C113.3,112,113.3,112,113.2,112.1
		C113.2,112,113.2,112.1,113.2,112.1z"/>
	<path opacity="0.66" fill="#8DC5A3" d="M113.2,112.1c0,0,0.1-0.1,0.1-0.1c0,0,0,0,0,0C113.3,112,113.3,112,113.2,112.1
		C113.2,112,113.2,112.1,113.2,112.1z"/>
	<path fill="#00B7E3" d="M102.4,121.4C102.4,121.4,102.4,121.4,102.4,121.4C102.4,121.4,102.4,121.4,102.4,121.4
		C102.4,121.4,102.4,121.4,102.4,121.4C102.4,121.4,102.4,121.4,102.4,121.4z"/>
	<path opacity="0.66" fill="#8DC5A3" d="M102.4,121.4C102.4,121.4,102.4,121.4,102.4,121.4C102.4,121.4,102.4,121.4,102.4,121.4
		C102.4,121.4,102.4,121.4,102.4,121.4C102.4,121.4,102.4,121.4,102.4,121.4z"/>
	<polygon fill="#00B7E3" points="40.3,117.5 40.3,117.5 40.3,117.5 	"/>
	<polygon opacity="0.66" fill="#8DC5A3" points="40.3,117.5 40.3,117.5 40.3,117.5 	"/>
	<path fill="#00B7E3" d="M38.4,115.8C38.4,115.8,38.4,115.8,38.4,115.8C38.4,115.8,38.5,115.8,38.4,115.8
		C38.5,115.8,38.5,115.8,38.4,115.8C38.4,115.8,38.4,115.8,38.4,115.8z"/>
	<path opacity="0.66" fill="#8DC5A3" d="M38.4,115.8C38.4,115.8,38.4,115.8,38.4,115.8C38.4,115.8,38.5,115.8,38.4,115.8
		C38.5,115.8,38.5,115.8,38.4,115.8C38.4,115.8,38.4,115.8,38.4,115.8z"/>
	<path fill="#FFE4B1" d="M38.5,115.8C38.5,115.9,38.5,115.9,38.5,115.8C38.5,115.9,38.5,115.8,38.5,115.8
		C38.5,115.8,38.5,115.8,38.5,115.8z"/>
	<path opacity="0.66" fill="#8DC5A3" d="M38.5,115.8C38.5,115.9,38.5,115.9,38.5,115.8C38.5,115.9,38.5,115.8,38.5,115.8
		C38.5,115.8,38.5,115.8,38.5,115.8z"/>
	<path fill="#FFFFFF" d="M52.4,125.1C52.4,125.1,52.4,125.1,52.4,125.1C52.5,125.1,52.5,125.1,52.4,125.1c0.1,0,0.1,0,0.1,0.1
		C52.5,125.1,52.5,125.1,52.4,125.1z"/>
	<path opacity="0.66" fill="#8DC5A3" d="M52.4,125.1C52.4,125.1,52.4,125.1,52.4,125.1C52.5,125.1,52.5,125.1,52.4,125.1
		c0.1,0,0.1,0,0.1,0.1C52.5,125.1,52.5,125.1,52.4,125.1z"/>
	<path fill="#FFFFFF" d="M115.9,108.7C115.9,108.7,115.9,108.7,115.9,108.7c0.4-0.6,0.9-1.2,1.3-1.8c0,0,0,0,0-0.1c0,0,0,0,0,0
		C116.8,107.5,116.4,108.1,115.9,108.7z"/>
	<path opacity="0.66" fill="#8DC5A3" d="M115.9,108.7C115.9,108.7,115.9,108.7,115.9,108.7c0.4-0.6,0.9-1.2,1.3-1.8c0,0,0,0,0-0.1
		c0,0,0,0,0,0C116.8,107.5,116.4,108.1,115.9,108.7z"/>
	<path fill="#FFFFFF" d="M38.5,115.8C38.5,115.8,38.5,115.9,38.5,115.8c0.7,0.6,1.3,1.1,1.9,1.7c0,0,0,0,0,0c0,0,0,0,0,0
		C39.7,116.9,39,116.4,38.5,115.8C38.4,115.8,38.4,115.8,38.5,115.8C38.4,115.8,38.4,115.8,38.5,115.8z"/>
	<path opacity="0.66" fill="#8DC5A3" d="M38.5,115.8C38.5,115.8,38.5,115.9,38.5,115.8c0.7,0.6,1.3,1.1,1.9,1.7c0,0,0,0,0,0
		c0,0,0,0,0,0C39.7,116.9,39,116.4,38.5,115.8C38.4,115.8,38.4,115.8,38.5,115.8C38.4,115.8,38.4,115.8,38.5,115.8z"/>
	<path fill="#FFFFFF" d="M106.4,118.5C106.4,118.5,106.4,118.5,106.4,118.5c0.7-0.5,1.3-1.1,1.9-1.6c0,0,0,0,0,0
		C107.8,117.4,107.1,117.9,106.4,118.5z"/>
	<path opacity="0.66" fill="#8DC5A3" d="M106.4,118.5C106.4,118.5,106.4,118.5,106.4,118.5c0.7-0.5,1.3-1.1,1.9-1.6c0,0,0,0,0,0
		C107.8,117.4,107.1,117.9,106.4,118.5z"/>
	<path fill="#FFFFFF" d="M29.6,105.1C29.6,105.1,29.6,105.1,29.6,105.1c0.4,0.6,0.8,1.3,1.2,1.9c0,0,0,0,0,0
		C30.4,106.4,30,105.8,29.6,105.1C29.6,105.1,29.6,105.1,29.6,105.1z"/>
	<path opacity="0.66" fill="#8DC5A3" d="M29.6,105.1C29.6,105.1,29.6,105.1,29.6,105.1c0.4,0.6,0.8,1.3,1.2,1.9c0,0,0,0,0,0
		C30.4,106.4,30,105.8,29.6,105.1C29.6,105.1,29.6,105.1,29.6,105.1z"/>
	<path fill="#FFFFFF" d="M55.8,126.5c-0.8-0.3-1.7-0.7-2.5-1c0.3,0.1,0.5,0.2,0.8,0.3c0.1,0,0.1,0.1,0.2,0.1c0.1,0,0.2,0.1,0.3,0.1
		C54.9,126.2,55.4,126.3,55.8,126.5z"/>
	<path opacity="0.66" fill="#8DC5A3" d="M55.8,126.5c-0.8-0.3-1.7-0.7-2.5-1c0.3,0.1,0.5,0.2,0.8,0.3c0.1,0,0.1,0.1,0.2,0.1
		c0.1,0,0.2,0.1,0.3,0.1C54.9,126.2,55.4,126.3,55.8,126.5z"/>
	<path fill="#FFFFFF" d="M99.9,122.9c0.1,0,0.1-0.1,0.2-0.1C100,122.8,100,122.8,99.9,122.9C99.9,122.9,99.9,122.9,99.9,122.9z"/>
	<path opacity="0.66" fill="#8DC5A3" d="M99.9,122.9c0.1,0,0.1-0.1,0.2-0.1C100,122.8,100,122.8,99.9,122.9
		C99.9,122.9,99.9,122.9,99.9,122.9z"/>
	<path fill="#FFFFFF" d="M102.4,121.4C102.4,121.4,102.4,121.4,102.4,121.4C102.4,121.4,102.4,121.4,102.4,121.4
		c-0.3,0.1-0.5,0.3-0.8,0.5C101.8,121.7,102.1,121.6,102.4,121.4z"/>
	<path opacity="0.66" fill="#8DC5A3" d="M102.4,121.4C102.4,121.4,102.4,121.4,102.4,121.4C102.4,121.4,102.4,121.4,102.4,121.4
		c-0.3,0.1-0.5,0.3-0.8,0.5C101.8,121.7,102.1,121.6,102.4,121.4z"/>
	<path fill="#FFFFFF" d="M47.1,122.3C47.1,122.3,47.1,122.3,47.1,122.3c0,0-0.1-0.1-0.2-0.1C47,122.2,47,122.2,47.1,122.3z"/>
	<path opacity="0.66" fill="#8DC5A3" d="M47.1,122.3C47.1,122.3,47.1,122.3,47.1,122.3c0,0-0.1-0.1-0.2-0.1
		C47,122.2,47,122.2,47.1,122.3z"/>
	<path fill="#FFFFFF" d="M45.5,121.3c-0.3-0.2-0.6-0.4-0.9-0.6c0,0,0,0,0,0C44.8,120.9,45.2,121.1,45.5,121.3z"/>
	<path opacity="0.66" fill="#8DC5A3" d="M45.5,121.3c-0.3-0.2-0.6-0.4-0.9-0.6c0,0,0,0,0,0C44.8,120.9,45.2,121.1,45.5,121.3z"/>
	<path fill="#FFFFFF" d="M94.7,125.5C94.7,125.5,94.7,125.5,94.7,125.5C94.7,125.5,94.7,125.5,94.7,125.5
		C94.7,125.5,94.7,125.5,94.7,125.5z"/>
	<path opacity="0.66" fill="#8DC5A3" d="M94.7,125.5C94.7,125.5,94.7,125.5,94.7,125.5C94.7,125.5,94.7,125.5,94.7,125.5
		C94.7,125.5,94.7,125.5,94.7,125.5z"/>
	<path fill="#FFFFFF" d="M35,112.3C35,112.3,35,112.3,35,112.3c-0.5-0.6-1-1.2-1.5-1.8c0,0,0,0,0,0C34,111.2,34.5,111.8,35,112.3z"
		/>
	<path opacity="0.66" fill="#8DC5A3" d="M35,112.3C35,112.3,35,112.3,35,112.3c-0.5-0.6-1-1.2-1.5-1.8c0,0,0,0,0,0
		C34,111.2,34.5,111.8,35,112.3z"/>
	<path fill="#FFFFFF" d="M111.7,113.7C111.7,113.7,111.7,113.7,111.7,113.7c0.5-0.5,1-1,1.5-1.6c0,0,0,0,0-0.1
		C112.7,112.6,112.2,113.1,111.7,113.7z"/>
	<path opacity="0.66" fill="#8DC5A3" d="M111.7,113.7C111.7,113.7,111.7,113.7,111.7,113.7c0.5-0.5,1-1,1.5-1.6c0,0,0,0,0-0.1
		C112.7,112.6,112.2,113.1,111.7,113.7z"/>
	<path fill="#4AA776" d="M94.7,125.5C94.7,125.5,94.7,125.5,94.7,125.5C94.7,125.5,94.7,125.5,94.7,125.5c-15.5-4-29-3.2-38.9-1.1
		c-1.1,0.2-2.3,0.5-3.3,0.7c0,0,0.1,0,0.1,0.1c0.2,0.1,0.5,0.2,0.7,0.3c0.8,0.4,1.7,0.7,2.5,1c0.1,0.1,0.3,0.1,0.4,0.2c0,0,0,0,0,0
		c9.7-2,21.6-2.6,34.8,0.3c0,0,0,0,0,0C92.3,126.5,93.5,126,94.7,125.5z"/>
	<path opacity="0.66" fill="#8DC5A3" d="M94.7,125.5C94.7,125.5,94.7,125.5,94.7,125.5C94.7,125.5,94.7,125.5,94.7,125.5
		c-15.5-4-29-3.2-38.9-1.1c-1.1,0.2-2.3,0.5-3.3,0.7c0,0,0.1,0,0.1,0.1c0.2,0.1,0.5,0.2,0.7,0.3c0.8,0.4,1.7,0.7,2.5,1
		c0.1,0.1,0.3,0.1,0.4,0.2c0,0,0,0,0,0c9.7-2,21.6-2.6,34.8,0.3c0,0,0,0,0,0C92.3,126.5,93.5,126,94.7,125.5z"/>
	<path fill="#4AA776" d="M111.7,113.7c0.5-0.5,1-1.1,1.5-1.6c0,0,0,0,0.1-0.1c-23.8-11.9-44.8-11.4-58.8-8.6
		c-9.2,1.9-16.4,4.8-21.1,7.2c0.5,0.6,1,1.2,1.6,1.8C47.5,106.3,76.8,96.4,111.7,113.7z"/>
	<path opacity="0.66" fill="#8DC5A3" d="M111.7,113.7c0.5-0.5,1-1.1,1.5-1.6c0,0,0,0,0.1-0.1c-23.8-11.9-44.8-11.4-58.8-8.6
		c-9.2,1.9-16.4,4.8-21.1,7.2c0.5,0.6,1,1.2,1.6,1.8C47.5,106.3,76.8,96.4,111.7,113.7z"/>
	<path fill="#4AA776" d="M106.7,101.7c-2.5-0.2-5-0.4-7.6-0.5c5.4,1.8,11.1,4.3,16.8,7.5c0.5-0.6,0.9-1.2,1.3-1.8
		C113.7,104.9,110.1,103.2,106.7,101.7z"/>
	<path opacity="0.66" fill="#8DC5A3" d="M106.7,101.7c-2.5-0.2-5-0.4-7.6-0.5c5.4,1.8,11.1,4.3,16.8,7.5c0.5-0.6,0.9-1.2,1.3-1.8
		C113.7,104.9,110.1,103.2,106.7,101.7z"/>
	<path fill="#4AA776" d="M46.9,122.2c0.1,0,0.1,0.1,0.2,0.1c12.7-4,31.3-6.6,52.8,0.6c0.1,0,0.1-0.1,0.2-0.1
		c0.5-0.3,0.9-0.6,1.4-0.9c0.3-0.2,0.6-0.4,0.9-0.6c-18.9-6.7-35.5-5.9-47.1-3.6c-4,0.8-7.6,1.8-10.7,2.9c0.3,0.2,0.6,0.4,0.9,0.6
		C46,121.6,46.4,121.9,46.9,122.2z"/>
	<path opacity="0.66" fill="#8DC5A3" d="M46.9,122.2c0.1,0,0.1,0.1,0.2,0.1c12.7-4,31.3-6.6,52.8,0.6c0.1,0,0.1-0.1,0.2-0.1
		c0.5-0.3,0.9-0.6,1.4-0.9c0.3-0.2,0.6-0.4,0.9-0.6c-18.9-6.7-35.5-5.9-47.1-3.6c-4,0.8-7.6,1.8-10.7,2.9c0.3,0.2,0.6,0.4,0.9,0.6
		C46,121.6,46.4,121.9,46.9,122.2z"/>
	<path fill="#4AA776" d="M54.1,96.1c-11.9,2.4-20.5,6.7-24.5,9.1c0.4,0.6,0.8,1.3,1.3,1.9c4.6-2.6,15.4-7.9,30.2-9.7
		c-0.1,0-0.2-0.1-0.4-0.1C59.2,96.9,56.5,96.5,54.1,96.1z"/>
	<path opacity="0.66" fill="#8DC5A3" d="M54.1,96.1c-11.9,2.4-20.5,6.7-24.5,9.1c0.4,0.6,0.8,1.3,1.3,1.9c4.6-2.6,15.4-7.9,30.2-9.7
		c-0.1,0-0.2-0.1-0.4-0.1C59.2,96.9,56.5,96.5,54.1,96.1z"/>
	<path fill="#4AA776" d="M40.3,117.5c13.5-5.4,37.7-11,66.1,1c0.7-0.5,1.3-1.1,1.9-1.6c-21.6-9.4-40.6-8.7-53.5-6.1
		c-6.6,1.3-12.1,3.2-16.4,5C39,116.4,39.7,116.9,40.3,117.5z"/>
	<path opacity="0.66" fill="#8DC5A3" d="M40.3,117.5c13.5-5.4,37.7-11,66.1,1c0.7-0.5,1.3-1.1,1.9-1.6c-21.6-9.4-40.6-8.7-53.5-6.1
		c-6.6,1.3-12.1,3.2-16.4,5C39,116.4,39.7,116.9,40.3,117.5z"/>
	<path fill="#5E8B7A" d="M99,97.6l-28.4,3.6c1.3,0,15-0.5,28.3,0.1c2.6,0.1,5.2,0.1,7.7,0.3c4.5,0.4,8.8,0.5,12.1,1.5c0,0,0,0,0,0
		c0,0,0,0.2,0,0.2c-1.2-0.7-2.5-1.3-3.7-1.9c-0.1,0-0.2,0-0.3-0.1c-2.5-1.3-5.1-2.5-7.8-3.5c-0.2-0.1-0.7-0.1-0.8-0.2
		c-2.2-0.9-4-1.6-7-2.3V97.6z"/>
	<rect x="93.1" y="89.4" fill="#A67075" width="0.9" height="1.4"/>
	<rect x="88.4" y="89.9" fill="#A67075" width="0.9" height="1.4"/>
	<rect x="96.9" y="89" fill="#A67075" width="0.9" height="1.4"/>
	<rect x="78.8" y="90.5" fill="#A67075" width="0.9" height="1.4"/>
	<path fill="#A67075" d="M70.2,86l0.1-1.2l-0.8-1.2L70,85v16.2l0.3-0.1L99,97.6v-2.5v0v-8.3L70.2,86z M94.3,89H95v0.1v2V91h-0.7
		h-1.5H93v0.1v-2V89h-0.1H94.3z M88,91.6v-2V89h0.2h1.5H90v0.6v2V92h-0.4h-1.5H88V91.6z M86,90L86,90v2v0h-0.7h-1.5H84v0v-2V90h-0.2
		h1.5H86z M73,92.6v-2V90h0.7h1.5H75v0.6v2V93h0.2h-1.5H73V92.6z M80,90v0.2v2V93h0h-1.5H78v-0.7v-2V90h0.5H80L80,90z M96.6,91H96
		v-0.3v-2V88h0.6h1.5H98v0.7v2V91h0.1H96.6z"/>
	<rect x="74" y="90.9" fill="#A67075" width="0.9" height="1.4"/>
	<rect x="84.1" y="90.2" fill="#A67075" width="0.9" height="1.4"/>
	<path fill="#BB6D6C" d="M50.4,95.5c-0.1,0-0.1,0-0.2,0c0.2,0,0.5,0,0.7,0.1C50.8,95.5,50.6,95.5,50.4,95.5L50.4,95.5z"/>
	<path fill="#BB6D6C" d="M61,97.3L61,97.3c-0.1,0-0.2-0.1-0.3-0.1C60.8,97.2,60.9,97.3,61,97.3c0.3,0.1,0.5,0.1,0.7,0.2
		C61.5,97.4,61.3,97.4,61,97.3z"/>
	<path fill="#BB6D6C" d="M70,85l-0.4-1.4L68,80.3L55,71l-3,2.5l-5.7,5l-3,5.2l-0.1,0l0.4,11.4l0,0.3c2.1,0,4.1,0,6,0.1
		c-0.2,0-0.5,0-0.7,0L48.5,85l0-0.8l0.8,0l12.2,0.2l0.7,0l0,0.7l0.3,12.5l-0.1,0c0,0-0.3,0-0.4,0c5.5,1.7,7.9,3.6,7.9,3.6V85z"/>
	<path fill="#FFFFFE" d="M75.2,93H75v-0.4v-2V90h0.2h-1.5H73v0.6v2V93h0.7H75.2z M74,90.9h0.9v1.4H74V90.9z"/>
	<path fill="#FFFFFE" d="M78.5,90H78v0.2v2V93h0.5H80h0v-0.7v-2V90h0H78.5z M79.7,92h-0.9v-1.4h0.9V92z"/>
	<path fill="#FFFFFE" d="M84,90L84,90v2v0h-0.2h1.5H86v0v-2V90h-0.7h-1.5H84z M84.1,90.2H85v1.4h-0.9V90.2z"/>
	<path fill="#FFFFFE" d="M89.6,92H90v-0.4v-2V89h-0.4h-1.5H88v0.6v2V92h0.2H89.6z M88.4,91.4v-1.4h0.9v1.4H88.4z"/>
	<path fill="#FFFFFE" d="M93,89v0.1v2V91h-0.1h1.5H95v0.1v-2V89h-0.7h-1.5H93z M93.1,89.4h0.9v1.4h-0.9V89.4z"/>
	<path fill="#FFFFFE" d="M98,91v-0.3v-2V88h0.1h-1.5H96v0.7v2V91h0.6H98L98,91z M96.9,90.4V89h0.9v1.4H96.9z"/>
	<polygon fill="#63787F" points="70.1,79.7 72.4,84.6 101,85.7 98.2,80.1 	"/>
	<path fill="#3F5962" d="M60.7,97.2c0.1,0,0.2,0,0.3,0.1l-0.3-11.3L50,85.8l0.4,9.7c0.2,0,0.3,0,0.5,0.1c0.9,0.1,2,0.3,3.1,0.5
		C56.5,96.5,59.2,96.9,60.7,97.2z"/>
	<polygon fill="#8A9A9F" points="70.1,79.7 70,79.4 55.6,69.8 55.1,69.9 69.5,79.9 71.9,85 72.4,85 72.4,84.8 	"/>
	<path fill="#EEEFEF" d="M62.6,97.7l-0.3-12.5l0-0.7l-0.7,0l-12.2-0.2l-0.8,0l0,0.8l0.4,10.4c0.3,0,0.5,0,0.7,0c0.2,0,0.2,0,0.4,0
		c0.1,0-0.1,0-0.1,0v0l-0.2-9.7l10.8,0.2L61,97.3v0c0,0.1,0.5,0.1,0.7,0.2c0.2,0.1,0.4,0.1,0.6,0.2C62.4,97.7,62.4,97.7,62.6,97.7
		L62.6,97.7z"/>
</g>
</svg>
