<?xml version="1.0" encoding="utf-8"?>
<!-- Generator: Adobe Illustrator 18.1.0, SVG Export Plug-In . SVG Version: 6.00 Build 0)  -->
<svg version="1.1" id="Layer_1" xmlns="http://www.w3.org/2000/svg" xmlns:xlink="http://www.w3.org/1999/xlink" x="0px" y="0px"
	 viewBox="0 0 2000 2000" enable-background="new 0 0 2000 2000" xml:space="preserve">
<g>
	<path fill="none" d="M1047.2,577.8c20.2-9.4,34.1-22.2,44.9-36.3c-60.9-8.6-138.1-19.6-161.3-20.6c-38.2-1.5-74.7,0.7-109.7,6
		C864.9,596.2,987.7,605.3,1047.2,577.8z"/>
	<path fill="none" d="M1419.1,889.6c15.1,16.3,31.7,25.6,48.4,31.6c-10.6-60.7-23.9-137.5-30.3-159.9
		c-10.4-36.6-23.8-70.7-39.6-102.5C1345.3,722,1374.6,841.6,1419.1,889.6z"/>
	<path fill="none" d="M583.5,691.7c-12.4-12.7-23.5-26.2-33.1-40.4c-36.7,32.5-67.7,69.4-91.4,108.9
		c-30.6,50.9-117.6,221.2-10.9,267.5c22.8-130.2,60-258.9,91.3-281.9c11.4-4.5,23.2-7.5,35-10.2c-6.4-6.7-12.5-13.3-17.4-20.4
		C565.7,707.3,574.7,699.5,583.5,691.7z"/>
	<path fill="none" d="M635.6,835.2c-2.6-22.2-10.6-39.3-20.6-54c-27,55.4-61.4,125.3-69.4,147.1c-13.2,35.7-22.4,71.2-28.2,106.1
		C596.9,1014.2,643.5,900.2,635.6,835.2z"/>
	<path fill="none" d="M1237.7,1339.7c-10.9,19.5-14.5,38.1-15.1,55.8c54.4-28.9,123.3-65.3,142.7-78.2
		c31.5-21.1,59.8-44.4,85.1-69.3C1374.2,1217.7,1269.4,1282.5,1237.7,1339.7z"/>
	<path fill="none" d="M1545.7,975.1c17.5,3,34.4,7.4,50.4,13.3c10.6-47.9,14.1-95.9,10.1-141.8c-5.3-59.2-34.9-248.2-148.5-222.9
		c58,118.7,103.8,244.7,92.1,281.7c-6.6,10.3-14.6,19.7-22.5,28.8c9.2,1.6,18,3.4,26.2,6.2C1550.8,952,1548.3,963.5,1545.7,975.1z"
		/>
	<path fill="none" d="M1177.3,1148c49.1-66.9,105.4-115.1,171.7-144.5c-2.3-0.9-4.6-1.5-6.9-2.5c-54.9-23.5-97.9-77.3-123.9-113.4
		c-48.5-67.3-76.9-135.8-84.5-207.9c-1.6,1.9-2.9,3.9-4.5,5.8c-39.3,44.9-103.8,69.2-146.1,82.8c-79.1,25.3-152.9,31.2-223.8,16
		c1.3,2.1,2.8,3.9,4.1,6.1c30.6,51.2,33.9,120,33.7,164.6c-0.4,82.9-17.6,155-53.9,217.8c2.4-0.6,4.5-1.4,7-2
		c58.2-13.2,124.6,5,166.8,18.9c78.9,26,142,64.6,190.6,118.6c0.1-2.5,0-4.8,0.3-7.3C1113.2,1241.4,1151.1,1184,1177.3,1148z"/>
	<path fill="none" d="M600.7,1311.4c-15.9,7.9-32.2,14.3-48.6,19c19.5,45,45.1,85.8,75.4,120.6c39,44.7,174.1,180.2,251.1,93
		c-116.8-61.9-227.8-137-240.1-173.8c-0.7-12.3,0.1-24.5,1.2-36.5c-8.4,4.1-16.5,7.8-24.7,10.3
		C610.1,1333.1,605.4,1322.2,600.7,1311.4z"/>
	<path fill="none" d="M1167.6,483.8c8.3-15.7,17.7-30.4,28.2-43.8c-42.4-24.9-86.9-43-131.9-53.3c-57.9-13.3-246.7-43.5-257.7,72.3
		c130.8-18.6,264.8-23,296.3-0.4c7.8,9.5,14.3,19.9,20.5,30.2c4.4-8.2,8.9-16,14.1-22.9C1147.2,471.8,1157.3,477.8,1167.6,483.8z"/>
	<path fill="none" d="M1228.6,1456.4c1.4,9.2,2.2,18.1,2.1,26.8c-11.8,1.1-23.6,2.2-35.3,3.4c2.6,17.5,3.6,35,3,52.1
		c48.8-4.7,95.5-16.3,137.9-34.4c54.6-23.2,225.1-109.8,166.1-210c-94.9,91.9-200.6,174.3-239.5,174.5
		C1251,1465.6,1239.7,1461.1,1228.6,1456.4z"/>
	<path fill="none" d="M753.3,1306.2c-21.9-4.3-40.7-2.1-57.7,2.9c44.2,42.9,100.2,97.1,118.4,111.5c29.9,23.6,60.8,43.3,92.2,59.7
		C911.7,1398.3,817.6,1318.7,753.3,1306.2z"/>
	<path fill="#A4DAD3" d="M1148.5,528.5c-2.1,6.5-3.6,13.3-5.4,20.1c-1.1,4.5-2.6,8.8-3.6,13.4c-8.1,40.6-9.8,79.6-5.8,117.7
		c7.5,72.2,35.9,140.6,84.5,207.9c26,36.1,69,89.9,123.9,113.4c2.3,1,4.6,1.6,6.9,2.5c35-15.5,72.6-26.1,113.7-30.9
		c4.8-0.5,9.3-0.4,13.8-0.7c7-0.5,14-1.2,20.8-1.2c16.7,0,32.8,1.7,48.4,4.3c2.5-11.5,5.1-23.1,7.7-34.6c-8.2-2.8-17-4.7-26.2-6.2
		c-18.8-3.4-39.4-5.8-59.7-13c-16.7-6-33.3-15.3-48.4-31.6c-44.5-48-73.8-167.6-21.5-230.8c-48.6-97.4-120.9-171.2-201.9-218.9
		c-10.5,13.4-19.9,28.1-28.2,43.8C1160.2,497.8,1153.7,512.6,1148.5,528.5z"/>
	<path fill="#A4DAD3" d="M1328.1,412.6c38.3,41.3,87.2,124.2,129.6,211c113.5-25.3,143.2,163.7,148.5,222.9
		c4,45.9,0.6,93.9-10.1,141.8c-20.2,91.9-68,183.4-145.7,259.7c-25.3,24.8-53.6,48.2-85.1,69.3c-19.4,12.9-88.3,49.3-142.7,78.2
		c-0.7,21.6,3.3,41.8,6.1,60.9c11.1,4.8,22.5,9.2,34.4,12.4c38.9-0.3,144.6-82.7,239.5-174.5c69.4-67.2,133.2-139.5,160.6-188.5
		c10-18,19.7-37.9,28.9-59.2c97.3-225,134-611.7-157.8-711.5c-75.4-25.8-173.3-15-253.5,31.9C1298,382.1,1313.9,397.5,1328.1,412.6z
		"/>
	<path fill="#F2BF48" d="M620.1,723.7c5.6,3.9,11.5,7.5,17.4,11.2c4,2.5,7.6,5.2,11.7,7.5c36,20.4,72.7,33.9,110.1,42
		c71,15.2,144.8,9.3,223.8-16c42.4-13.6,106.8-37.9,146.1-82.8c1.6-2,2.9-3.9,4.5-5.8c-4-38.1-2.3-77.1,5.8-117.7
		c1-4.7,2.5-8.9,3.6-13.4c1.8-6.7,3.3-13.6,5.4-20.1c5.2-15.8,11.7-30.6,19-44.7c-10.3-6-20.4-12-30.6-18
		c-5.2,6.9-9.7,14.7-14.1,22.9c-9,17-17.7,35.7-30.9,52.8c-10.8,14.1-24.7,26.9-44.9,36.3c-59.4,27.6-182.3,18.5-226.1-50.9
		C713.4,543,620.9,588.9,550.4,651.3c9.6,14.3,20.7,27.8,33.1,40.4C594.6,703,606.6,713.8,620.1,723.7z"/>
	<path fill="#F2BF48" d="M806.2,458.9c11-115.8,199.8-85.6,257.7-72.3c45,10.3,89.5,28.4,131.9,53.3
		c81,47.7,153.3,121.4,201.9,218.9c15.8,31.8,29.3,65.9,39.6,102.5c6.3,22.4,19.6,99.1,30.3,159.9c20.3,7.2,40.9,9.7,59.7,13
		c7.9-9.1,15.8-18.5,22.5-28.8c11.7-37-34.1-163-92.1-281.7c-42.5-86.8-91.4-169.7-129.6-211c-14.2-15.1-30.1-30.5-47.4-45.8
		c-184-162.1-540.3-316.5-725.3-69.8c-47.8,63.7-67.8,160.1-48.1,250.9c20-11.8,39.5-22.2,58.3-30.9
		C616.5,493.5,710.5,472.4,806.2,458.9z"/>
	<path fill="#F8B5B6" d="M1691.9,1046.4c-9.2,21.3-18.8,41.2-28.9,59.2c-27.4,49.1-91.2,121.3-160.6,188.5
		c59.1,100.2-111.5,186.8-166.1,210c-42.5,18.1-89.1,29.7-137.9,34.4c-93.6,9-195.4-8.2-292.1-58.4c-31.4-16.4-62.4-36.1-92.2-59.7
		c-18.3-14.4-74.2-68.7-118.4-111.5c-20.8,6-38.8,16.2-56,24.6c-1.1,12-1.9,24.2-1.2,36.5c12.3,36.9,123.3,111.9,240.1,173.8
		c85.3,45.2,173.8,83.5,228.9,94.4c20.2,4,42.2,7.1,65.3,9.2c244.1,23,623.1-61.6,627.8-369.9
		C1801.8,1198.1,1761.3,1108.3,1691.9,1046.4z"/>
	<path fill="#F8B5B6" d="M1497.3,970.7c-6.7,0-13.8,0.7-20.8,1.2c-4.5,0.3-9,0.2-13.8,0.7c-41.1,4.8-78.8,15.3-113.7,30.9
		c-66.3,29.4-122.6,77.6-171.7,144.5c-26.3,36-64.1,93.5-69.4,152.9c-0.3,2.5-0.2,4.8-0.3,7.3c25.6,28.5,47.2,61,64.4,98.6
		c2,4.3,3.2,8.6,5.1,13c2.5,6.5,5.4,12.9,7.4,19.3c5.3,15.9,8.6,31.7,10.8,47.4c11.7-1.2,23.5-2.3,35.3-3.4
		c0.1-8.6-0.8-17.6-2.1-26.8c-2.7-19.1-6.7-39.3-6.1-60.9c0.6-17.7,4.2-36.3,15.1-55.8c31.7-57.2,136.6-122.1,212.7-91.7
		c77.7-76.4,125.5-167.8,145.7-259.7c-16-5.9-32.9-10.3-50.4-13.3C1530.1,972.4,1514,970.7,1497.3,970.7z"/>
	<path fill="#ABD47C" d="M642.3,1286.4c5.5-4,10.8-8.6,16.1-13.1c3.6-3,7.3-5.5,10.7-8.7c30.6-28,54.8-58.7,74-91.8
		c36.3-62.8,53.5-134.9,53.9-217.8c0.2-44.6-3.1-113.4-33.7-164.6c-1.3-2.2-2.8-4-4.1-6.1c-37.4-8-74.1-21.6-110.1-42
		c-4.1-2.3-7.7-5-11.7-7.5c-5.9-3.7-11.8-7.3-17.4-11.2c-13.5-9.8-25.5-20.6-36.6-32c-8.8,7.8-17.8,15.7-26.6,23.5
		c4.9,7.1,11,13.7,17.4,20.4c13.5,13.8,28.6,27.9,40.7,45.7c10,14.7,18,31.9,20.6,54c7.9,65-38.8,179-118.2,199.3
		c-18,107.5-2.8,209.6,34.7,295.8c16.4-4.7,32.7-11.1,48.6-19C614.9,1304.4,628.9,1296.3,642.3,1286.4z"/>
	<path fill="#ABD47C" d="M448.1,1027.7c-106.7-46.3-19.6-216.6,10.9-267.5c23.7-39.5,54.7-76.4,91.4-108.9
		c70.5-62.3,163-108.2,270.7-124.4c35-5.2,71.6-7.5,109.7-6c23.1,1,100.4,12,161.3,20.6c13.2-17.1,21.9-35.8,30.9-52.8
		c-6.2-10.3-12.7-20.7-20.5-30.2c-31.5-22.6-165.5-18.1-296.3,0.4c-95.7,13.6-189.7,34.6-240.7,58.2c-18.7,8.7-38.3,19.1-58.3,30.9
		c-211,124.9-467.9,416.1-290.5,668.4c45.8,65.1,131.3,114,223.8,123.2c-5.1-22.6-9-44.4-11.4-64.9
		C422.5,1218.8,431.5,1122.9,448.1,1027.7z"/>
	<path fill="#5EAAAD" d="M878.5,1544c-77,87.2-212.1-48.3-251.1-93c-30.3-34.8-55.8-75.6-75.4-120.6
		c-37.5-86.3-52.6-188.4-34.7-295.8c5.9-35,15-70.5,28.2-106.1c8-21.8,42.4-91.8,69.4-147.1c-12.1-17.8-27.2-31.8-40.7-45.7
		c-11.7,2.7-23.5,5.7-35,10.2c-31.2,23.1-68.4,151.8-91.3,281.9c-16.6,95.2-25.6,191.1-19,247c2.4,20.5,6.3,42.3,11.4,64.9
		c53.5,239.2,251.1,573.6,545.8,482.8c76.1-23.4,149-89.7,186.5-174.8c-23.1-2.2-45.1-5.2-65.3-9.2
		C1052.3,1627.5,963.8,1589.2,878.5,1544z"/>
	<path fill="#5EAAAD" d="M1184.5,1439.1c-2.1-6.4-4.9-12.9-7.4-19.3c-1.9-4.3-3.1-8.6-5.1-13c-17.2-37.6-38.9-70.2-64.4-98.6
		c-48.5-54-111.7-92.6-190.6-118.6c-42.3-13.9-108.7-32.1-166.8-18.9c-2.5,0.6-4.6,1.4-7,2c-19.2,33.1-43.4,63.8-74,91.8
		c-3.4,3.2-7.1,5.8-10.7,8.7c-5.3,4.5-10.6,9.2-16.1,13.1c-13.5,9.8-27.4,18-41.7,24.9c4.8,10.9,9.5,21.7,14.3,32.5
		c8.2-2.5,16.3-6.2,24.7-10.3c17.3-8.4,35.2-18.5,56-24.6c17-5,35.8-7.2,57.7-2.9c64.2,12.5,158.3,92.2,153,174.1
		c96.6,50.3,198.5,67.4,292.1,58.4c0.6-17.1-0.4-34.6-3-52.1C1193.1,1470.9,1189.8,1455,1184.5,1439.1z"/>
</g>
</svg>
