<?xml version="1.0" encoding="utf-8"?>
<!-- Generator: Adobe Illustrator 18.1.0, SVG Export Plug-In . SVG Version: 6.00 Build 0)  -->
<svg version="1.0" id="Layer_1" xmlns="http://www.w3.org/2000/svg" xmlns:xlink="http://www.w3.org/1999/xlink" x="0px" y="0px"
	 viewBox="0 0 150 150" enable-background="new 0 0 150 150" xml:space="preserve">
<g>
	<path fill="none" d="M43.5,30.2L43.5,30.2c-3.5,0.2-6.2,2.2-6.3,4.7l-5.8,19L30.7,56c0,0,0,0,0,0l-0.1,0.5c0,0,0,0,0,0l-0.3,0.9
		l-0.7,2.4h0L29,61.6l-0.2,0.6L28.5,63L26,72.8c0,0,0.1,0,0.1,0c0,0-0.1,0-0.1,0l0,0.1l0.2,0.6c-0.1,0.1-0.3,0.1-0.4,0.2l-0.3,0.9
		L25.3,75l2.3,8.6l1.2,3.9c0-0.1,0-0.2,0-0.3L32.4,99h0l0.1,0.2l2.1,6.9l0.1,0l2.4,7.7c0.2,2.5,3.3,4.5,6.7,4.7l0.1,0l22.2,7
		l1.1,0.3l0.3-1l-3.7-2.7l-17.3-5.7c-3.3-0.2-6.4-2.2-6.6-4.7l-3-9.7l-0.3-1c0,0,0,0,0,0l-0.9-3c0,0,0,0,0,0l-0.4-1.5l-2.4-8
		l-0.3-0.8c0,0,0,0,0,0l-1-3.1c0,0,0,0,0,0L31,82.6c0,0,0,0,0,0.1l-0.6-1.9c0,0,0,0,0,0l-0.7-2.2l-1-3.4l0.1-0.4l2.8-9.6l2.1-7
		l0.7-2.4l0.3-0.9c0,0-0.1,0-0.1,0.1l0.2-0.5c0,0,0.1,0,0.1-0.1l0.6-2l4.4-15c0.1-2.5,2.8-4.6,6.1-4.8l21.1-6.9l-2.7-2L43.5,30.2z"
		/>
	<path fill="none" d="M131.8,66.6c-3.1-2.4-6.8-4-10.6-4.8c-0.6-0.1-0.9-0.6-1.3-1c-7.7-8.5-18.6-14.2-30.1-14.6
		c-11.9-0.7-23.8,0.5-35.4,3c-5,1.1-9.8,2.4-14.7,4l-0.3,0.9L39.2,55l-0.6,2.1c0.3-0.1,0.6-0.3,0.9-0.4c3.7-1.4,7.5-2.7,11.5-3.2
		c0.8-0.1,1.6,0.1,2.3,0.5c0,2.5-0.3,4.9-0.3,7.4c-0.1,1.6-0.4,3.4-1.6,4.6c-0.6,0.7-1.6,0.7-2.5,0.9c-4.5,0.5-9,0.9-13.5,1.3
		L35.1,69l-1.8,6.1l0.8,2.5l0.4,1.4c1.5,0.6,2.6,1.9,3.7,3c2.5,2.9,4.5,6.3,6.2,9.7c8.9,1,17.9,2,26.8,3c-0.1-4.3-0.1-9,2-12.9
		c1.1-2.1,3.5-3.5,5.8-3c3.4,0.6,6.2,3.1,8.3,5.8c2.1,2.5,3,5.8,5.4,8.1c3.1,3.2,7.7,4.5,12,4.1c11.1-1.6,22.3-3.2,33.4-4.6
		c0.9-1.7,1.4-3.6,1.6-5.5c0.3-2.9,0.4-5.9-0.4-8.8C138.3,73.5,135.6,69.5,131.8,66.6z M60.3,66.4c-1.9-0.5-3.1-2.2-3.8-4
		c-1.3-3.2-1.6-6.7-1.5-10c2-0.6,4.3-1.2,6.3-0.4c2.6,1.2,4.4,3.6,6,5.9c2,3,3.8,6.1,4.5,9.7C68,68.5,64,67.6,60.3,66.4z M73.1,63.1
		c-3.1-4.3-6.6-8.3-9.7-12.6c10.4-1.2,20.8-2.6,31.3-2.5c4.8,0,9.2,2,13.2,4.4c4.5,2.7,8.4,6.2,12.1,9.9
		c-12.6,1.3-25.1,2.4-37.8,3.4C79,66,75.4,65.6,73.1,63.1z M133.6,87.8c-0.5,0.4-1.1,0.7-1.7,1c-4.3,1.9-8.9,3-13.6,3.4
		c-2.3,0.1-4.6,0-6.9,0.1c0-0.1,0-0.2,0-0.2C118.9,91,126.4,90.3,133.6,87.8c0-0.1,0.1-0.1,0.1-0.1
		C133.7,87.8,133.7,87.8,133.6,87.8z M134.8,83.8c-8.2,4.9-18,6.7-27.4,5.5c-0.4-0.1-0.9,0-1.1-0.3c6.3-0.6,12.5-1.5,18.7-2.7
		c2.8-0.6,5.7-1.2,8.4-2.2C133.8,83.9,134.3,83.8,134.8,83.8c0,0,0.1-0.1,0.2-0.1C134.9,83.7,134.8,83.7,134.8,83.8z M136,79.5
		c-0.3,0.8-0.6,1.8-1.5,1.9c-7.9,1.9-15.8,3.7-23.8,4.8c-3.1,0.3-6.3,0.8-9.4,0c-4.6-1.3-8.7-4.1-12.5-7c-3.1-2.5-6.2-5-8.8-8
		c6.5,4.5,12.9,9.2,20.3,12.1c1.1,0.4,2.2,0.9,3.4,0.8c7.6-0.7,15.2-1.4,22.6-3c2.1-0.5,4.4-1,6.3-2.2c1.3-1.1,1.4-3.1,1-4.6
		c-1-3.5-3.6-6.3-5.9-9c2.7,2,5.1,4.5,6.9,7.4C135.8,74.6,136.8,77.1,136,79.5z"/>
	<path fill="none" d="M77.8,91c-1.5,0.8-2.3,2.5-2.7,4.1c-0.6,2.9-0.2,6,1.5,8.5c0.7,1,1.9,2,3.2,2c1.4,0,2.4-1,3.1-2.1
		c1.6-2.9,1.5-6.5,0.1-9.5C82.2,92,80,89.9,77.8,91z"/>
	<path fill="#709F88" d="M80.1,122.4l18.2-6c3.3-0.2,5.6-2.2,5.7-4.7l3-9.9l-2.9,0.4c-0.6,0.1-1.2,0.1-1.8,0.1l-2.7,9v0.2
		c0,0.9-1,1.7-2.2,1.7h-0.5l-18.7,6.2h6.1L80.1,122.4z"/>
	<path fill="#709F88" d="M78,29.6l18.8,6.2h0.5c1.2,0,2.2,0.8,2.2,1.7v0.2l2.1,7.1c1.4,0.3,2.7,0.7,4.1,1.2c0.3,0.1,0.6,0.3,1,0.4
		l-2.7-9.1c-0.1-2.5-2.8-4.6-6.1-4.8L77,25.7l-0.2,0.1L78,29.6z"/>
	<path fill="#00A650" d="M100.5,30.2L100.5,30.2c3.5,0.2,6.2,2.2,6.3,4.7l4.1,13.4c0.5,0.2,0.9,0.6,1.4,0.8l-4.4-14.3
		c-0.2-2.8-3.3-5.1-7.2-5.4L80.6,23l-0.9,0.6L100.5,30.2z"/>
	<path fill="#00A650" d="M79.1,126.3l22-7c3.9-0.2,6.6-2.5,6.7-5.4l4-12.7c-0.2,0-0.4,0.1-0.7,0.1l-0.5,0.1l-3.9,12.5
		c-0.2,2.5-2.4,4.5-5.8,4.7l-0.1,0l-22.2,7l-1.5,0.5l0.3,0.8L79.1,126.3z"/>
	<path fill="#FFFFFF" d="M35.4,82c0.2,0,0.4-0.1,0.5-0.1c-0.2-0.2-0.5-0.5-0.8-0.8L35.4,82z"/>
	<path fill="#FFFFFF" d="M36.4,85.4l1.2,3.8c0,0,0,0.1,0,0.1l1.6,5.4c0.9-2.6,0.5-5.6-1-7.9C37.9,86.1,37.2,85.7,36.4,85.4z"/>
	<path fill="#FFFFFF" d="M82.1,86.7c-1.1-1.5-2.3-3.1-3.9-4.2c-0.7-0.5-1.6-0.9-2.4-0.4c-1.3,0.7-1.7,2.3-2.1,3.7
		c-0.8,3.1-0.6,6.3-1.2,9.4c0.2-0.3,0.3-0.5,0.5-0.8c0.1-1.8,0.9-3.6,2-5C76.6,87.1,79.6,87,82.1,86.7z"/>
	<polygon fill="#FFFFFF" points="29.6,59.8 29.5,59.8 29,61.6 29,61.6 	"/>
	<polygon fill="#FFFFFF" points="28.8,62.2 28.5,63 28.8,62.2 	"/>
	<path fill="#FFFFFF" d="M25.9,73l-0.2,0.8c0.1-0.1,0.3-0.1,0.4-0.2L25.9,73z"/>
	<path fill="#709F88" d="M30.7,56C30.7,56,30.7,56,30.7,56l-0.2,0.5c0,0,0,0,0,0L30.7,56z"/>
	<path fill="#709F88" d="M143.3,79.1c-1.1-2.8-2-5.8-3.7-8.4c-3.8-5.8-10-9.8-16.6-11.5c-4.6-5.3-10.5-9.5-17.1-11.8
		c-6.3-2.3-12.9-2.8-19.5-3.2c-9-0.4-18,0.7-26.8,2.6c-6.6,1.5-13.2,3.4-19.6,5.6l0.6-1.9l3.8-12.9v-0.2c0-0.9,1-1.7,2.2-1.7H47
		l19.3-6.3l1.2-3.7l-0.3-0.2L46,32.5c-3.3,0.2-6,2.3-6.1,4.8l-4.4,15l-0.6,2c-0.1,0-0.1,0-0.1,0.1l-0.2,0.5c0.1,0,0.1,0,0.1-0.1
		l-0.3,0.9l-0.7,2.4l-2.1,7l-2.8,9.6l-0.1,0.4l1,3.4l0.7,2.2c0,0,0,0,0,0l0.6,1.9c0,0,0,0,0-0.1l0.6,1.9c0,0,0,0,0,0l1,3.1
		c0,0,0,0,0-0.1l0.3,0.8l2.4,8l0.5,1.5c0,0,0,0,0,0l0.9,3c0,0,0,0,0,0l0.3,1l3,9.7c0.1,2.6,3.2,4.5,6.6,4.7l17.3,5.7l-3.8-2.8h6.4
		L47,113.2h-0.5c-1.2,0-2.2-0.7-2.2-1.7v-0.2l-2.7-8.7l-0.4-1.4c0.5-0.1,1.2-0.4,1.8-0.7c-0.1,0-0.1,0-0.2-0.1
		c1.1-0.4,2.2-1,3.2-1.8c1.3-1.2,1.7-3,1.9-4.6c8.1,1.5,16.3,2.8,24.5,4.2c0.4,3.7,1.5,7.7,4.6,9.9c1.3,1,3.1,0.8,4.7,1
		c3.2,0.1,6.5-0.6,9-2.6c1.8-1.4,2.5-3.7,2.6-5.9c3.6,1,7.4,1.2,11.1,0.7c6.1-0.8,12.1-1.7,18.2-2.5c0.6,0.7,0.8,1.7,1.3,2.4
		c1.1,1.8,2.9,3.5,5.1,3.4c3.1-0.1,6.6-0.7,8.9-3.1c1.4-1.3,2-3.3,2.1-5.2c0.8-0.1,1.7-0.3,2.5-0.3c0.1-0.2,0.2-0.6,0.3-0.8
		c0,0,0,0,0,0c0.2-0.7,0.5-1.4,0.6-2.1C144.7,88.6,144.8,83.6,143.3,79.1z M35.4,82l-0.3-0.9c0.3,0.2,0.6,0.5,0.8,0.8
		C35.8,81.9,35.6,81.9,35.4,82z M39.3,94.8l-1.6-5.4c0,0,0-0.1,0-0.1l-1.2-3.8c0.8,0.3,1.4,0.8,1.9,1.5
		C39.8,89.2,40.2,92.2,39.3,94.8z M72.4,95.1c0.6-3.1,0.4-6.3,1.2-9.4c0.4-1.3,0.8-2.9,2.1-3.7c0.8-0.5,1.7,0,2.4,0.4
		c1.6,1.1,2.8,2.7,3.9,4.2c-2.5,0.3-5.5,0.4-7.1,2.6c-1.1,1.4-1.9,3.2-2,5C72.8,94.5,72.6,94.8,72.4,95.1z M82.8,103.4
		c-0.6,1.1-1.7,2.2-3.1,2.1c-1.4,0.1-2.5-0.9-3.2-2c-1.7-2.5-2.1-5.6-1.5-8.5c0.4-1.6,1.2-3.3,2.7-4.1c2.3-1.1,4.4,1,5.2,3
		C84.3,96.9,84.4,100.5,82.8,103.4z M139.9,86.8c-0.3,1.9-0.8,3.8-1.6,5.5c-11.2,1.5-22.3,3-33.4,4.6c-4.3,0.4-8.9-0.9-12-4.1
		c-2.4-2.3-3.3-5.6-5.4-8.1c-2.1-2.7-4.9-5.2-8.3-5.8c-2.4-0.5-4.8,0.9-5.8,3c-2.2,3.9-2.1,8.6-2,12.9c-8.9-1-17.9-2-26.8-3
		c-1.7-3.4-3.7-6.7-6.2-9.7c-1.1-1.1-2.2-2.4-3.7-3l-0.4-1.4l-0.8-2.5l1.8-6.1l0.3-0.9c4.5-0.4,9-0.8,13.5-1.3
		c0.9-0.1,1.9-0.2,2.5-0.9c1.2-1.2,1.5-3,1.6-4.6c0-2.5,0.3-4.9,0.3-7.4c-0.7-0.4-1.5-0.6-2.3-0.5c-4,0.5-7.8,1.8-11.5,3.2
		c-0.3,0.1-0.6,0.3-0.9,0.4l0.6-2.1l0.3-0.9l0.3-0.9c4.8-1.5,9.7-2.9,14.7-4c11.6-2.5,23.5-3.8,35.4-3c11.5,0.4,22.5,6.1,30.1,14.6
		c0.4,0.4,0.7,1,1.3,1c3.8,0.8,7.5,2.4,10.6,4.8c3.7,2.8,6.5,6.8,7.6,11.3C140.3,80.8,140.2,83.8,139.9,86.8z"/>
	<path fill="#709F88" d="M28.9,87.2c0,0.1,0,0.2,0,0.3L32.4,99h0L28.9,87.2z"/>
	<path fill="#709F88" d="M17.6,62c0.2,0,0.5-0.1,0.6-0.1c3.8-1.8,7.2-3.4,11.1-4.9l0.1-0.4C25.3,58.2,21.6,60,17.6,62z"/>
	<path fill="#709F88" d="M5.8,93.1c-0.2,0-0.5,0.1-0.7,0.2c0,0,0,0,0,0c0,0,0,0,0,0c1.2-0.1,2.3,0.2,3.5,0.3
		c7.7,0.9,14.9,2.6,22.4,4.5l-0.3-1C22.4,95.1,14.3,93.9,5.8,93.1z"/>
	<path fill="#709F88" d="M13.1,90.4c5.4,0,10.3-0.2,15.6,0.4l-0.6-1.9C23,89.5,18.2,89.6,13.1,90.4z"/>
	<path fill="#709F88" d="M120,62.3c-3.6-3.7-7.6-7.2-12.1-9.9c-4-2.4-8.5-4.4-13.2-4.4c-10.5-0.1-20.9,1.2-31.3,2.5
		c3.1,4.3,6.6,8.3,9.7,12.6c2.3,2.5,5.9,2.8,9.1,2.6C94.8,64.8,107.4,63.7,120,62.3z"/>
	<path fill="#709F88" d="M61.3,52c-2-0.9-4.3-0.3-6.3,0.4c-0.1,3.4,0.2,6.9,1.5,10c0.7,1.7,2,3.4,3.8,4c3.7,1.2,7.7,2.1,11.5,1.1
		c-0.7-3.5-2.6-6.7-4.5-9.7C65.6,55.6,63.9,53.2,61.3,52z"/>
	<polygon fill="#709F88" points="29,61.6 29,61.6 28.8,62.2 28.8,62.2 	"/>
	<path fill="#709F88" d="M13.4,66.8c-1,0.4-2.1,0.7-3.1,1.3c5.5-1.5,11-3.3,16.4-5.1c0.4-0.2,0.4-0.2,0.8-0.4l0.2-0.6
		C22.7,63.4,18.3,65,13.4,66.8z"/>
	<path fill="#709F88" d="M127.7,65.2c2.3,2.7,4.9,5.5,5.9,9c0.4,1.5,0.3,3.5-1,4.6c-1.9,1.2-4.1,1.7-6.3,2.2
		c-7.5,1.6-15.1,2.3-22.6,3c-1.2,0.1-2.3-0.4-3.4-0.8C93,80.3,86.5,75.6,80,71.1c2.6,3,5.7,5.5,8.8,8c3.8,2.9,7.8,5.7,12.5,7
		c3.1,0.9,6.3,0.4,9.4,0c8-1.1,16-2.9,23.8-4.8c1-0.1,1.3-1.1,1.5-1.9c0.7-2.4-0.2-4.9-1.4-6.9C132.8,69.7,130.5,67.2,127.7,65.2z"
		/>
	<path fill="#709F88" d="M26,72.8L26,72.8c0,0,0.1,0,0.1,0C26.1,72.8,26,72.8,26,72.8z"/>
	<path fill="#709F88" d="M22.1,73.5c-5.1,1.1-10.2,2.2-15.2,3.5c-1.1,0.3-2.2,0.5-3.2,1c6.2-1.2,12.4-2.6,18.6-4.1
		c0.8-0.2,1.6-0.4,2.3-0.7l0.1-0.3C23.9,73.2,23,73.4,22.1,73.5z"/>
	<path fill="#709F88" d="M16.2,81.9c-1.2,0.3-2.4,0.3-3.5,0.8c4.4-0.6,8.9-1,13.2-2.1l0,0C22.7,80.7,19.4,81.4,16.2,81.9z"/>
	<path fill="#709F88" d="M133.3,84c-2.7,1-5.6,1.6-8.4,2.2c-6.2,1.2-12.4,2.1-18.7,2.7c0.3,0.3,0.8,0.2,1.1,0.3
		c9.4,1.2,19.2-0.6,27.4-5.5c0,0,0.1,0,0.2-0.1c-0.1,0-0.1,0-0.2,0C134.3,83.8,133.8,83.9,133.3,84z"/>
	<path fill="#709F88" d="M111.4,92.1c0,0.1,0,0.2,0,0.2c2.3-0.1,4.6,0,6.9-0.1c4.7-0.4,9.3-1.5,13.6-3.4c0.6-0.3,1.2-0.6,1.7-1
		c0,0,0.1,0,0.1-0.1c-0.1,0-0.1,0-0.1,0C126.4,90.3,118.9,91,111.4,92.1z"/>
	<path fill="#00A650" d="M66.1,125.5l-22.2-7l-0.1,0c-3.4-0.2-6.5-2.1-6.7-4.7l-2.4-7.7l-0.1,0l-2.1-6.9L32.4,99l-3.6-11.5l-1.2-3.9
		L25.3,75l0.1-0.3l0.3-0.9l0.2-0.8l0-0.1l0,0l2.6-9.8l0.3-0.8l0.2-0.6l0.6-1.8l0.7-2.4l0.3-0.9l0.1-0.5l0.6-2.1l5.8-19
		c0.1-2.5,2.8-4.5,6.2-4.7h0.1l21-6.6l-0.9-0.6l-20.4,6.5c-3.9,0.2-7,2.6-7.2,5.4l-6,19.7l-0.6,2.1l-0.1,0.4L29,57.9l-0.7,2.3
		L27.7,62l-0.2,0.6l0.2,0.8l-2.4,7.9L24.8,73l-0.1,0.3l-0.3,0.9l-0.1,0.3L24.2,75l1.3,4l0.5,1.5l0,0l0.2,0.6l1.5,4.7l0.5,3l0.6,1.9
		l2,6.3l0.3,1l0.7,2.2l4.3,13.6c0.2,2.9,3.7,5.2,7.6,5.4l22,7l1.2,0.4l0.3-0.8L66.1,125.5z"/>
	<path fill="#FFFFFF" d="M63.8,21.6h5.5h0.9l0.3-0.8l1.7-5.3l1.7,5.3l0.3,0.8H75h5.5l-4.4,3.2l-0.7,0.5l0.3,0.8l1.7,5.2l-4.5-3.2
		l-0.7-0.5l-0.7,0.5L67,31.4l1.7-5.2l0.3-0.8l-0.7-0.5L63.8,21.6z"/>
	<polygon fill="#DFD81E" points="68.2,24.8 69,25.3 68.7,26.2 67,31.4 71.4,28.2 72.2,27.7 72.9,28.2 77.3,31.4 75.6,26.2 
		75.3,25.3 76.1,24.8 80.5,21.6 75,21.6 74.1,21.6 73.9,20.7 72.2,15.5 70.4,20.7 70.2,21.6 69.3,21.6 63.8,21.6 	"/>
	<polygon fill="#DFD81E" points="70.2,120.6 69.3,120.6 63.8,120.6 68.2,123.8 69,124.3 68.7,125.2 67,130.4 71.4,127.2 72.2,126.7 
		72.9,127.2 77.3,130.4 75.6,125.2 75.3,124.3 76.1,123.8 80.5,120.6 75,120.6 74.1,120.6 73.9,119.7 72.2,114.5 70.4,119.7 	"/>
</g>
</svg>
