<?xml version="1.0" encoding="utf-8"?>
<!-- Generator: Adobe Illustrator 16.0.0, SVG Export Plug-In . SVG Version: 6.00 Build 0)  -->
<!DOCTYPE svg PUBLIC "-//W3C//DTD SVG 1.1//EN" "http://www.w3.org/Graphics/SVG/1.1/DTD/svg11.dtd">
<svg version="1.1" id="Layer_1" xmlns="http://www.w3.org/2000/svg" xmlns:xlink="http://www.w3.org/1999/xlink" x="0px" y="0px"
	 width="100px" height="100px" viewBox="0 0 100 100" enable-background="new 0 0 100 100" xml:space="preserve">
<g>
	<g>
		<radialGradient id="SVGID_1_" cx="37.4111" cy="29.1636" r="66.6726" gradientUnits="userSpaceOnUse">
			<stop  offset="0.1212" style="stop-color:#D6DE23"/>
			<stop  offset="0.4545" style="stop-color:#8BC53F"/>
			<stop  offset="0.7455" style="stop-color:#009345"/>
			<stop  offset="1" style="stop-color:#00411D"/>
		</radialGradient>
		<path fill="url(#SVGID_1_)" d="M87.105,40.753c-0.05-0.778-0.117-1.563-0.197-2.348c-0.09-0.797-0.18-1.538-0.331-2.403
			c-0.164-0.926-0.936-1.667-1.918-1.742c-1.162-0.093-2.181,0.775-2.273,1.94l-0.003,0.04c-0.118,1.455-0.334,2.857-0.748,4.121
			c-0.417,1.26-1.028,2.356-1.894,3.252c-1.698,1.819-4.46,2.923-7.339,3.75c-2.895,0.847-5.962,1.439-9.026,2.061
			c-3.076,0.6-6.178,1.183-9.27,1.826l-2.339,0.484c-0.803,0.176-1.605,0.377-2.396,0.615c-1.588,0.477-3.154,1.051-4.634,1.822
			c-2.972,1.508-5.659,3.664-7.642,6.332c-1.968,2.682-3.247,5.783-3.855,8.945c-0.602,3.17-0.67,6.414-0.099,9.523
			c-0.056-1.572,0.043-3.146,0.26-4.691c0.204-1.545,0.534-3.07,0.994-4.541c0.915-2.934,2.345-5.688,4.343-7.91
			c1.961-2.252,4.455-3.967,7.191-5.113c1.372-0.568,2.786-1.037,4.241-1.383c0.726-0.174,1.461-0.322,2.202-0.439l2.313-0.352
			c3.111-0.457,6.225-0.906,9.351-1.408c3.132-0.498,6.268-1.045,9.452-1.867c1.588-0.426,3.188-0.938,4.775-1.667
			c1.582-0.723,3.182-1.702,4.51-3.079c0.081-0.081,0.151-0.164,0.229-0.251c-0.062,2.607-0.314,5.199-0.766,7.748
			c-1.025,5.672-3.166,11.135-6.712,15.627c-3.543,4.482-8.461,7.867-13.969,9.938c-5.498,2.143-11.484,3.094-17.505,3.543
			c6.023,0.467,12.195,0.09,18.157-1.604c2.971-0.859,5.865-2.088,8.565-3.707c2.702-1.615,5.152-3.691,7.256-6.072
			c4.25-4.77,6.866-10.814,8.127-16.959c0.651-3.08,0.961-6.211,1.041-9.337C87.238,43.882,87.201,42.317,87.105,40.753z"/>
		<radialGradient id="SVGID_2_" cx="37.4097" cy="29.1631" r="66.6727" gradientUnits="userSpaceOnUse">
			<stop  offset="0.1212" style="stop-color:#D6DE23"/>
			<stop  offset="0.4545" style="stop-color:#8BC53F"/>
			<stop  offset="0.7455" style="stop-color:#009345"/>
			<stop  offset="1" style="stop-color:#00411D"/>
		</radialGradient>
		<path fill="url(#SVGID_2_)" d="M46.121,73.316c0.321,0.201,0.643,0.396,0.974,0.584c0.874,0.498,1.779,0.93,2.702,1.307
			c0.921,0.391,1.875,0.699,2.836,0.961c0.961,0.25,1.934,0.455,2.925,0.553c-0.886-0.457-1.764-0.879-2.622-1.334
			c-0.865-0.445-1.705-0.92-2.533-1.398c-0.803-0.471-1.588-0.967-2.359-1.475c0.012-0.002,0.024-0.006,0.037-0.012
			c1.204-0.451,2.465-0.816,3.75-1.111c0.651-0.162,1.26-0.291,1.961-0.428c0.708-0.141,1.418-0.287,2.122-0.463
			c1.032-0.256,2.058-0.547,3.077-0.861c0.809,0.559,1.649,1.059,2.521,1.508c0.88,0.473,1.801,0.861,2.73,1.213
			c0.938,0.338,1.891,0.631,2.866,0.813c-0.843-0.527-1.68-1.035-2.492-1.566c-0.819-0.518-1.609-1.068-2.397-1.617
			c-0.448-0.322-0.874-0.662-1.31-0.998c2.468-0.896,4.871-1.996,7.12-3.371c2.492-1.52,4.813-3.348,6.777-5.494
			c0.976-1.076,1.878-2.219,2.641-3.445c0.763-1.219,1.437-2.504,1.832-3.877c-1.649,2.297-3.701,4.156-5.872,5.787
			c-2.178,1.617-4.517,2.975-6.95,4.102c-2.438,1.125-4.967,2.033-7.553,2.762c-0.062,0.018-0.127,0.037-0.191,0.049
			c0.16-0.438,0.327-0.877,0.481-1.318c0.371-1.066,0.724-2.141,1.051-3.223l0.481-1.625l0.445-1.643
			c0.271-1.1,0.55-2.199,0.741-3.33c-0.597,0.979-1.105,1.996-1.622,3.01l-0.731,1.531l-0.698,1.541
			c-0.464,1.035-0.896,2.072-1.313,3.123c-0.324,0.822-0.636,1.65-0.941,2.48c-0.538,0.131-1.081,0.26-1.622,0.371
			c-0.661,0.139-1.322,0.281-1.986,0.398c-0.673,0.127-1.437,0.271-2.144,0.438c-1.341,0.322-2.681,0.725-3.991,1.227V68.48
			c0.272-1.094,0.528-2.193,0.754-3.303l0.334-1.662l0.29-1.67c0.173-1.125,0.35-2.246,0.438-3.389
			c-0.506,1.031-0.92,2.084-1.34,3.141l-0.594,1.592l-0.556,1.602c-0.364,1.07-0.701,2.148-1.022,3.232
			c-0.133,0.453-0.269,0.914-0.398,1.371c-0.772,0.383-1.532,0.803-2.268,1.279c-2.592,1.674-4.855,4.113-6.11,6.98
			c-1.291,2.859-1.625,5.938-1.47,8.828c0.154,2.91,0.778,5.672,1.421,8.42c0.148-1.408,0.198-2.826,0.284-4.219
			c0.093-1.396,0.191-2.773,0.383-4.121c0.365-2.684,1.069-5.252,2.354-7.383c1.267-2.143,3.09-3.836,5.264-5.08
			C45.108,73.818,45.608,73.559,46.121,73.316z"/>
	</g>
	<g>
		<radialGradient id="SVGID_3_" cx="37.4097" cy="29.1621" r="66.6729" gradientUnits="userSpaceOnUse">
			<stop  offset="0.1212" style="stop-color:#D6DE23"/>
			<stop  offset="0.4545" style="stop-color:#8BC53F"/>
			<stop  offset="0.7455" style="stop-color:#009345"/>
			<stop  offset="1" style="stop-color:#00411D"/>
		</radialGradient>
		<path fill="url(#SVGID_3_)" d="M57.735,36.482c-1.735,2.449-3.268,5.05-4.611,7.753c-0.67,1.353-1.301,2.733-1.875,4.143
			c-0.287,0.704-0.563,1.414-0.825,2.138c-0.262,0.73-0.506,1.426-0.744,2.254l4.797,0.994c0.191-0.012,0.38-0.023,0.572-0.037
			c0.07-0.564,0.185-1.217,0.303-1.832c0.133-0.682,0.28-1.365,0.441-2.047c0.324-1.365,0.701-2.724,1.121-4.071
			c0.853-2.693,1.896-5.337,3.163-7.889c2.523-5.091,5.962-9.845,10.539-13.502C65.52,27.28,61.192,31.592,57.735,36.482z"/>
		<radialGradient id="SVGID_4_" cx="37.4121" cy="29.1616" r="66.6671" gradientUnits="userSpaceOnUse">
			<stop  offset="0.1212" style="stop-color:#D6DE23"/>
			<stop  offset="0.4545" style="stop-color:#8BC53F"/>
			<stop  offset="0.7455" style="stop-color:#009345"/>
			<stop  offset="1" style="stop-color:#00411D"/>
		</radialGradient>
		<path fill="url(#SVGID_4_)" d="M38.887,57.322c0.129,0.664,0.253,1.385,0.327,1.977l1.483-0.305
			c1.038-0.896,2.138-1.801,3.286-2.586c-0.056-0.158-0.11-0.313-0.166-0.469c-0.266-0.723-0.538-1.434-0.828-2.139
			c-0.574-1.408-1.202-2.789-1.872-4.138c-1.347-2.706-2.879-5.308-4.615-7.757c-3.454-4.884-7.784-9.202-12.881-12.096
			c4.581,3.657,8.019,8.412,10.54,13.501c1.266,2.552,2.311,5.196,3.163,7.89c0.423,1.346,0.8,2.709,1.124,4.07
			C38.609,55.955,38.754,56.637,38.887,57.322z"/>
		<radialGradient id="SVGID_5_" cx="37.4126" cy="29.1641" r="66.6688" gradientUnits="userSpaceOnUse">
			<stop  offset="0.1212" style="stop-color:#D6DE23"/>
			<stop  offset="0.4545" style="stop-color:#8BC53F"/>
			<stop  offset="0.7455" style="stop-color:#009345"/>
			<stop  offset="1" style="stop-color:#00411D"/>
		</radialGradient>
		<path fill="url(#SVGID_5_)" d="M47.616,54.523c0.593-0.197,1.192-0.336,1.798-0.432c-0.031-0.254-0.062-0.514-0.086-0.76
			c-0.087-0.84-0.161-1.684-0.217-2.533c-0.104-1.696-0.154-3.404-0.139-5.112c0.027-3.423,0.303-6.854,0.861-10.246
			c1.118-6.78,3.404-13.486,7.389-19.309c-2.344,2.623-4.352,5.582-6.017,8.738c-1.662,3.154-2.99,6.505-4.028,9.947
			s-1.792,6.98-2.289,10.564c-0.25,1.788-0.433,3.592-0.553,5.406c-0.062,0.908-0.099,1.818-0.123,2.736
			c-0.019,0.898-0.031,1.754,0.009,2.725C45.315,55.516,46.449,54.904,47.616,54.523z"/>
		<radialGradient id="SVGID_6_" cx="37.4082" cy="29.1626" r="66.6791" gradientUnits="userSpaceOnUse">
			<stop  offset="0.1212" style="stop-color:#D6DE23"/>
			<stop  offset="0.4545" style="stop-color:#8BC53F"/>
			<stop  offset="0.7455" style="stop-color:#009345"/>
			<stop  offset="1" style="stop-color:#00411D"/>
		</radialGradient>
		<path fill="url(#SVGID_6_)" d="M41.312,52.271c0.177,1.869,0.387,3.686,0.708,5.617c1.504-1.225,3.113-2.357,4.794-3.063
			c-0.281-1.08-0.541-2.184-0.778-3.277c-0.393-1.788-0.729-3.591-1.025-5.402c-0.581-3.626-0.974-7.296-1.125-10.979
			c-0.151-3.682-0.062-7.385,0.364-11.064c0.433-3.679,1.205-7.339,2.478-10.867c-1.689,3.349-2.925,6.944-3.82,10.626
			c-0.89,3.682-1.443,7.457-1.752,11.25c-0.303,3.793-0.364,7.613-0.22,11.432C41.006,48.458,41.136,50.36,41.312,52.271z"/>
	</g>
	<path fill="#58595B" d="M28.413,75.631c-5.156-2.654-9.625-6.783-12.946-11.748c-3.317-4.975-5.387-10.859-5.968-16.923
		c-0.596-6.058,0.296-12.316,2.619-18.03c1.152-2.86,2.675-5.566,4.473-8.078c1.81-2.502,3.923-4.785,6.264-6.799
		c2.357-2.001,4.945-3.725,7.701-5.127c2.765-1.378,5.681-2.453,8.689-3.139c6.011-1.38,12.312-1.291,18.218,0.248
		c5.906,1.532,11.374,4.516,15.77,8.572c4.377,4.062,7.762,9.122,9.563,14.638c-2.906-5.004-6.718-9.329-11.265-12.566
		c-4.51-3.255-9.669-5.473-15.006-6.458C51.185,9.24,45.658,9.432,40.48,10.816c-2.588,0.686-5.096,1.649-7.459,2.903
		c-2.369,1.235-4.593,2.743-6.62,4.485c-4.074,3.457-7.349,7.846-9.529,12.742c-2.187,4.896-3.247,10.301-3.104,15.745
		c0.124,5.436,1.489,10.879,4,15.846C20.249,67.531,23.931,71.977,28.413,75.631z"/>
</g>
</svg>
