<?xml version="1.0" encoding="utf-8"?>
<!-- Generator: Adobe Illustrator 18.1.0, SVG Export Plug-In . SVG Version: 6.00 Build 0)  -->
<svg version="1.1" id="Layer_1" xmlns="http://www.w3.org/2000/svg" xmlns:xlink="http://www.w3.org/1999/xlink" x="0px" y="0px"
	 viewBox="0 0 150 150" enable-background="new 0 0 150 150" xml:space="preserve">
<g>
	<path fill="#A4D8F0" d="M84,138.5c0.4-0.1,0.8-0.1,1.3-0.2c-0.2,0-0.5,0.1-0.7,0.1C84.3,138.4,84.1,138.4,84,138.5z"/>
	<path fill="#A4D8F0" d="M94.8,136c-0.5,0.2-1,0.3-1.5,0.5C93.8,136.3,94.3,136.2,94.8,136z"/>
	<path fill="#A4D8F0" d="M81.1,138.8c0.4,0,0.8-0.1,1.3-0.1c-0.2,0-0.3,0-0.5,0.1C81.6,138.7,81.3,138.8,81.1,138.8z"/>
	<path fill="#A4D8F0" d="M120.9,120c-0.6,0.6-1.1,1.1-1.7,1.7C119.8,121.1,120.4,120.5,120.9,120z"/>
	<path fill="#A4D8F0" d="M119,121.8c-2.4,2.2-4.9,4.3-7.6,6.1C114.1,126,116.7,124,119,121.8z"/>
	<path fill="#A4D8F0" d="M108.9,129.5c-0.6,0.3-1.1,0.7-1.7,1C107.7,130.2,108.3,129.9,108.9,129.5z"/>
	<path fill="#A4D8F0" d="M106.6,130.9c-0.6,0.3-1.2,0.7-1.8,1C105.4,131.5,106,131.2,106.6,130.9z"/>
	<path fill="#A4D8F0" d="M32.3,122.3c-0.6-0.5-1.1-1.1-1.7-1.6C31.1,121.3,31.7,121.8,32.3,122.3z"/>
	<path fill="#A4D8F0" d="M30.1,120.2c-0.6-0.6-1.1-1.1-1.7-1.7C29,119.1,29.5,119.7,30.1,120.2z"/>
	<path fill="#A4D8F0" d="M26.1,115.8c-0.5-0.7-1.1-1.3-1.6-2C25,114.5,25.5,115.2,26.1,115.8z"/>
	<path fill="#A4D8F0" d="M28,118.1c-0.6-0.6-1.1-1.2-1.6-1.9C26.9,116.8,27.5,117.5,28,118.1z"/>
	<path fill="#A4D8F0" d="M36.9,126.2c-0.6-0.4-1.1-0.9-1.7-1.3C35.8,125.3,36.4,125.8,36.9,126.2z"/>
	<path fill="#A4D8F0" d="M39.4,128c-0.6-0.4-1.1-0.8-1.7-1.2C38.3,127.2,38.9,127.6,39.4,128z"/>
	<path fill="#A4D8F0" d="M22.5,111c-0.5-0.7-1-1.5-1.5-2.3C21.5,109.5,22,110.3,22.5,111z"/>
	<path fill="#A4D8F0" d="M24.2,113.5c-0.5-0.7-1-1.4-1.5-2.1C23.2,112.1,23.7,112.8,24.2,113.5z"/>
	<path fill="#A4D8F0" d="M72.4,139c-0.3,0-0.6,0-0.9-0.1C71.9,138.9,72.1,139,72.4,139z"/>
	<path fill="#A4D8F0" d="M76.2,139c-0.3,0-0.6,0-0.9,0C75.6,139,75.9,139,76.2,139z"/>
	<path fill="#A4D8F0" d="M69.5,138.8c-0.4,0-0.7-0.1-1.1-0.1C68.8,138.7,69.1,138.7,69.5,138.8z"/>
	<path fill="#A4D8F0" d="M92,136.8c-0.5,0.1-0.9,0.3-1.4,0.4C91.1,137.1,91.6,136.9,92,136.8z"/>
	<path fill="#A4D8F0" d="M102.4,133c-0.1,0-0.2,0.1-0.3,0.1c-0.5,0.2-1,0.4-1.5,0.7c1.3-0.6,2.6-1.2,3.9-1.8c0,0-0.1,0-0.1,0
		C103.7,132.4,103.1,132.7,102.4,133z"/>
	<path fill="#A4D8F0" d="M111.1,128.1c-0.6,0.4-1.1,0.7-1.7,1.1C110,128.8,110.6,128.4,111.1,128.1
		C111.2,128.1,111.1,128.1,111.1,128.1C111.1,128.1,111.1,128.1,111.1,128.1z"/>
	<path fill="#A4D8F0" d="M49.6,133.6c0.3,0.1,0.5,0.2,0.8,0.3C50.1,133.8,49.9,133.7,49.6,133.6C49.6,133.6,49.6,133.6,49.6,133.6z"
		/>
	<path fill="#A4D8F0" d="M128.9,110.1C128.8,110.2,128.8,110.2,128.9,110.1c-2.3,3.5-4.9,6.8-7.8,9.7c2.9-3,5.6-6.3,7.9-9.8
		C128.9,110,128.9,110.1,128.9,110.1z"/>
	<path fill="#A4D8F0" d="M46.4,132.1c0.4,0.2,0.7,0.4,1.1,0.5c-0.3-0.2-0.6-0.3-0.9-0.5C46.5,132.1,46.4,132.1,46.4,132.1z"/>
	<path fill="#A4D8F0" d="M62.4,137.7c0.3,0.1,0.6,0.1,1,0.2c-0.2,0-0.5-0.1-0.7-0.1C62.6,137.7,62.5,137.7,62.4,137.7z"/>
	<path fill="#A4D8F0" d="M52.8,134.9c0.2,0.1,0.3,0.1,0.5,0.2C53.1,135,53,135,52.8,134.9C52.8,134.9,52.8,134.9,52.8,134.9z"/>
	<path fill="#A4D8F0" d="M43.3,130.4c0.5,0.3,0.9,0.5,1.4,0.8C44.2,131,43.8,130.7,43.3,130.4C43.3,130.4,43.3,130.4,43.3,130.4z"/>
	<path fill="#A4D8F0" d="M56.1,136.1c0.1,0,0.2,0.1,0.2,0.1C56.3,136.1,56.2,136.1,56.1,136.1C56.1,136.1,56.1,136.1,56.1,136.1z"/>
	<path fill="#A4D8F0" d="M65.4,138.2c0.4,0.1,0.7,0.1,1.1,0.2C66.2,138.4,65.8,138.3,65.4,138.2C65.5,138.2,65.4,138.2,65.4,138.2z"
		/>
	<path fill="#A4D8F0" d="M15.7,90.5c0-10.7,5.9-19.8,14.4-23.7c-1-1.1-1.8-2.5-2.2-4.4c0,0,1.3-0.1,2.9,0.4c0-0.6-0.1-1.2-0.1-1.8
		c0-11.9,8.9-21.6,19.8-21.6c0.6,0,1.2,0,1.8,0.1c3-7.8,10-13.3,18.3-13.3c8.7,0,16,6.1,18.7,14.6c2.2-0.9,4.5-1.4,7-1.4
		c7.1,0,13.3,4,16.8,10.1c0.7-0.1,1.4-0.2,2.1-0.2c8.2,0,14.8,7.2,14.8,16.1c0,3.9-1.3,7.5-3.4,10.3c1.8-0.9,3.6-0.8,3.6-0.8
		c-0.7,2.9-2.4,4.2-4,4.9c0.6,0.4,1.1,0.9,1.7,1.4c1.7-0.6,3.1-0.6,3.1-0.6c-0.3,1.1-0.7,2-1.1,2.7c2.6,3.4,4.3,7.7,4.3,12.5
		c0,4.5-1.4,8.5-3.7,11.8c0.1,0,0.2,0,0.3,0.1c0,0.1-0.1,0.1-0.1,0.2c0,0,0,0,0,0c0,0,0,0,0,0.1c-0.4,0.6-0.8,1.3-1.2,1.9
		c3.7-5.7,6.5-12,8.3-18.9c8.8-34.2-11.8-69.1-46.1-77.9C57.1,4.3,22.2,24.9,13.4,59.1c-4.5,17.5-1.3,35.2,7.5,49.5
		c0.4-0.1,0.8-0.2,1.3-0.3C18.2,103.7,15.7,97.4,15.7,90.5z"/>
	<path fill="#A4D8F0" d="M34.4,124.2L34.4,124.2c-0.5-0.4-1-0.9-1.5-1.3c0.6,0.5,1.1,1,1.7,1.5C34.5,124.3,34.4,124.2,34.4,124.2
		C34.4,124.2,34.4,124.2,34.4,124.2z"/>
	<path fill="#A4D8F0" d="M42,129.7c-0.6-0.3-1.1-0.7-1.7-1.1C40.9,128.9,41.4,129.3,42,129.7z"/>
	<path fill="#A4D8F0" d="M96,135.6c0.5-0.2,1-0.4,1.5-0.5c-0.1,0-0.1,0-0.2,0.1C96.8,135.3,96.4,135.5,96,135.6z"/>
	<path fill="#A4D8F0" d="M99.7,134.2c-0.4,0.2-0.8,0.3-1.2,0.5c0.5-0.2,1.1-0.4,1.6-0.6c0,0,0,0,0,0
		C100,134.1,99.8,134.1,99.7,134.2z"/>
	<path fill="#A4D8F0" d="M78.2,139c0.4,0,0.8,0,1.2-0.1c-0.1,0-0.2,0-0.2,0C78.9,138.9,78.5,139,78.2,139z"/>
	<path fill="#A4D8F0" d="M87.2,137.9c-0.1,0-0.2,0-0.3,0.1c0.5-0.1,1.1-0.2,1.6-0.3c-0.2,0-0.3,0.1-0.5,0.1
		C87.7,137.8,87.4,137.9,87.2,137.9z"/>
	<path fill="#FFFFFF" d="M113.8,95.2c0,0,6.9-0.3,8.6,6.5l0.3-26.2c-3.2-3.9-0.1-7.7-0.1-7.7c3.3,3.9,0.1,7.8,0.1,7.8c0,0,0,0,0,0
		l0.2,10.8c0.8-3.1,2.9-4.5,4.6-5.2c-0.5-0.5-1.1-1-1.7-1.4c-1.6,0.7-3.1,0.6-3.1,0.6c0.6-2.6,2.1-3.9,3.5-4.6
		c2.1-2.8,3.4-6.4,3.4-10.3c0-8.9-6.6-16.1-14.8-16.1c-0.7,0-1.4,0.1-2.1,0.2c-3.5-6.1-9.7-10.1-16.8-10.1c-2.5,0-4.8,0.5-7,1.4
		c-2.7-8.5-10-14.6-18.7-14.6c-8.2,0-15.3,5.5-18.3,13.3c-0.6-0.1-1.2-0.1-1.8-0.1c-10.9,0-19.8,9.7-19.8,21.6c0,0.6,0,1.2,0.1,1.8
		c2.4,0.7,5.6,2.4,6.7,7c0,0-4.4,0.2-7.4-3.1c-8.5,3.9-14.4,13.1-14.4,23.7c0,6.9,2.5,13.2,6.6,17.8c4.5-1.1,9.5-2.1,15-3.1l0.1-6.2
		c-0.9,0-9.6-0.1-11.7-9.1c0,0,9.3-0.4,11.7,8.8l0.4-35.5c-4.4-5.3-0.1-10.5-0.1-10.5c4.5,5.4,0.1,10.6,0.1,10.6c0,0,0,0,0,0L38,78
		c2.2-8.1,10.5-7.8,10.5-7.8c-1.9,8-9.4,8.2-10.5,8.2l0.2,9.2c2.6-8.2,11.1-7.8,11.1-7.8c-2,8.2-9.4,8.8-11.1,8.8l0.2,8.7
		c2.9-7.8,11.3-7.4,11.3-7.4c-2,8.2-9.2,9.1-11.3,9.1l0.1,5.9c8.6-1.5,18.3-2.7,28.6-3.3l0.1-9.7c-1.3,0-13.4-0.1-16.4-12.7
		c0,0,13-0.6,16.4,12.3l0.5-49.6c-6.1-7.4-0.1-14.7-0.1-14.7C74,34.6,68,41.9,68,41.9c0,0,0,0,0,0l0.4,20.5
		c3.1-11.4,14.6-10.8,14.6-10.8C80.4,62.8,69.9,63.1,68.4,63l0.3,12.8C72.4,64.5,84.2,65,84.2,65C81.5,76.5,71,77.3,68.7,77.3
		L69,89.5c4.1-10.9,15.8-10.4,15.8-10.4c-2.7,11.5-12.9,12.6-15.8,12.7l0.2,9.6c9.1-0.4,18.6-0.4,28.4,0.4l0.1-7.3
		c-1,0-10.1-0.1-12.3-9.6c0,0,9.8-0.4,12.3,9.3l0.4-37.3c-4.6-5.6-0.1-11-0.1-11c4.7,5.6,0.2,11.1,0.2,11.1c0,0,0,0,0,0l0.3,15.4
		c2.3-8.5,11-8.1,11-8.1c-2,8.4-9.9,8.6-11,8.6l0.2,9.6c2.7-8.5,11.6-8.2,11.6-8.2c-2,8.6-9.9,9.2-11.6,9.2l0.2,9.2
		c3.1-8.2,11.9-7.8,11.9-7.8c-2,8.6-9.7,9.5-11.8,9.6l0.2,7.4c7.7,0.7,15.4,1.9,23.2,3.7l0-3.8C121.8,101.9,115.4,101.9,113.8,95.2z
		 M26,79.8c0,0,9.2-0.4,11.4,8.8C37.4,88.6,28.2,89,26,79.8z M37.4,78.4c0,0-8.6,0.4-10.6-8.2C26.8,70.2,35.4,69.8,37.4,78.4z
		 M37.9,69.9c1.9-7.8,9.6-7.4,9.6-7.4C45.7,70.3,37.9,69.9,37.9,69.9z M51.6,65c0,0,12.9-0.6,16,12.3C67.5,77.3,54.6,77.9,51.6,65z
		 M52.7,51.6c0,0,12-0.6,14.8,11.4C67.5,63,55.6,63.6,52.7,51.6z M67.6,51.2c0,0-10.9,0.5-13.4-10.4C54.1,40.8,65,40.3,67.6,51.2z
		 M68.2,51.2c2.6-10.9,13.4-10.4,13.4-10.4C79.1,51.7,68.2,51.2,68.2,51.2z M97.9,73c0,0-9,0.4-11.1-8.6C86.8,64.4,95.7,64,97.9,73z
		 M97.9,83.7c0,0-9.7,0.5-12-9.2C85.9,74.5,95.6,74,97.9,83.7z M97.9,64.1c0,0-8.2,0.4-10.1-7.8C87.8,56.3,96,55.9,97.9,64.1z
		 M98.4,64.1c1.9-8.2,10.1-7.8,10.1-7.8C106.5,64.5,98.4,64.1,98.4,64.1z M114.1,87.7c0,0,6.8-0.3,8.4,6.5
		C122.5,94.2,115.7,94.5,114.1,87.7z M122.6,80.5c0,0-5.7,0.3-7.1-5.5C115.5,75,121.2,74.7,122.6,80.5z M114.7,80.7
		c0,0,6.3-0.3,7.8,6C122.5,86.7,116.2,87,114.7,80.7z"/>
	<path fill="#FFFFFF" d="M129.6,83.4c-2.1,3.2-5.9,3.3-6.6,3.3l0.1,6.7c1.9-6,8.2-5.7,8.2-5.7c-1.4,6-6.9,6.5-8.2,6.5l0.1,6.4
		c2.2-5.8,8.3-5.5,8.3-5.5c-1.4,6-6.8,6.7-8.3,6.7l0.1,4.1c2.2,0.5,4.5,1.1,6.7,1.7c2.3-3.3,3.7-7.3,3.7-11.8
		C133.8,91.1,132.2,86.7,129.6,83.4z"/>
	<path fill="#5B784D" d="M49.8,89.9c0,0-8.4-0.4-11.3,7.4l-0.2-8.7c1.6,0,9.1-0.6,11.1-8.8c0,0-8.5-0.4-11.1,7.8l-0.2-9.2
		c1.1,0,8.6-0.2,10.5-8.2c0,0-8.3-0.4-10.5,7.8l-0.3-14.7c0,0,0,0,0,0c0,0,4.3-5.2-0.1-10.6c0,0-4.3,5.2,0.1,10.5l-0.4,35.5
		c-2.4-9.3-11.7-8.8-11.7-8.8c2.2,9.1,10.8,9.1,11.7,9.1l-0.1,6.2c0.5-0.1,0.9-0.2,1.4-0.2L38.5,99C40.5,99,47.8,98.1,49.8,89.9z"/>
	<path fill="#5B784D" d="M26,79.8c2.2,9.2,11.4,8.8,11.4,8.8C35.2,79.3,26,79.8,26,79.8z"/>
	<path fill="#5B784D" d="M26.8,70.2c2,8.6,10.6,8.2,10.6,8.2C35.4,69.8,26.8,70.2,26.8,70.2z"/>
	<path fill="#5B784D" d="M37.4,69.9c-1.1-4.6-4.3-6.4-6.7-7c-1.6-0.4-2.9-0.4-2.9-0.4c0.5,1.9,1.3,3.3,2.2,4.4
		C33,70.1,37.4,69.9,37.4,69.9z"/>
	<path fill="#5B784D" d="M37.9,69.9c0,0,7.8,0.4,9.6-7.4C47.5,62.5,39.8,62.1,37.9,69.9z"/>
	<path fill="#5B784D" d="M51.6,65c3.1,12.9,16,12.3,16,12.3C64.4,64.4,51.6,65,51.6,65z"/>
	<path fill="#5B784D" d="M52.7,51.6C55.6,63.6,67.5,63,67.5,63C64.7,51.1,52.7,51.6,52.7,51.6z"/>
	<path fill="#5B784D" d="M54.1,40.8c2.6,10.9,13.4,10.4,13.4,10.4C65,40.3,54.1,40.8,54.1,40.8z"/>
	<path fill="#5B784D" d="M68.2,51.2c0,0,10.9,0.5,13.4-10.4C81.7,40.8,70.8,40.3,68.2,51.2z"/>
	<path fill="#5B784D" d="M69.1,91.9c2.9-0.1,13-1.3,15.8-12.7c0,0-11.7-0.6-15.8,10.4l-0.3-12.2c2.3,0,12.8-0.8,15.5-12.3
		c0,0-11.8-0.5-15.5,10.9L68.4,63c1.5,0,12-0.3,14.6-11.4c0,0-11.5-0.5-14.6,10.8L68,41.9c0,0,0,0,0,0c0,0,6-7.3-0.2-14.8
		c0,0-6,7.2,0.1,14.7l-0.5,49.6C64,78.5,51,79.1,51,79.1c3,12.7,15.1,12.8,16.4,12.7l-0.1,9.7c0.7,0,1.3-0.1,2-0.1L69.1,91.9z"/>
	<path fill="#5B784D" d="M110.8,85.1c0,0-8.8-0.4-11.9,7.8l-0.2-9.2c1.7,0,9.6-0.6,11.6-9.2c0,0-8.9-0.4-11.6,8.2L98.6,73
		c1.1,0,9-0.2,11-8.6c0,0-8.7-0.4-11,8.1l-0.3-15.4c0,0,0,0,0,0c0,0,4.5-5.5-0.2-11.1c0,0-4.5,5.4,0.1,11l-0.4,37.3
		c-2.5-9.7-12.3-9.3-12.3-9.3c2.3,9.5,11.4,9.6,12.3,9.6l-0.1,7.3c0.5,0,1,0.1,1.5,0.1L99,94.7C101.2,94.6,108.8,93.7,110.8,85.1z"
		/>
	<path fill="#5B784D" d="M85.9,74.5c2.3,9.7,12,9.2,12,9.2C95.6,74,85.9,74.5,85.9,74.5z"/>
	<path fill="#5B784D" d="M97.9,73c-2.1-9-11.1-8.6-11.1-8.6C88.9,73.4,97.9,73,97.9,73z"/>
	<path fill="#5B784D" d="M87.8,56.3c1.9,8.2,10.1,7.8,10.1,7.8C96,55.9,87.8,56.3,87.8,56.3z"/>
	<path fill="#5B784D" d="M98.4,64.1c0,0,8.2,0.4,10.1-7.8C108.5,56.3,100.3,55.9,98.4,64.1z"/>
	<path fill="#5B784D" d="M131.6,95.2c0,0-6.2-0.3-8.3,5.5l-0.1-6.4c1.2,0,6.7-0.4,8.2-6.5c0,0-6.2-0.3-8.2,5.7l-0.1-6.7
		c0.6,0,4.4-0.1,6.6-3.3c0.5-0.7,0.9-1.6,1.1-2.7c0,0-1.4-0.1-3.1,0.6c-1.8,0.7-3.8,2.1-4.6,5.2l-0.2-10.8c0,0,0,0,0,0
		c0,0,3.2-3.8-0.1-7.8c0,0-3.1,3.8,0.1,7.7l-0.3,26.2c-1.8-6.8-8.6-6.5-8.6-6.5c1.6,6.7,8,6.7,8.6,6.7l0,3.8c0.3,0.1,0.7,0.2,1,0.2
		l-0.1-4.1C124.8,101.8,130.2,101.2,131.6,95.2z"/>
	<path fill="#5B784D" d="M114.1,87.7c1.6,6.8,8.4,6.5,8.4,6.5C120.9,87.4,114.1,87.7,114.1,87.7z"/>
	<path fill="#5B784D" d="M122.5,86.7c-1.5-6.3-7.8-6-7.8-6C116.2,87,122.5,86.7,122.5,86.7z"/>
	<path fill="#5B784D" d="M122.6,80.5c-1.4-5.7-7.1-5.5-7.1-5.5C116.8,80.7,122.6,80.5,122.6,80.5z"/>
	<path fill="#5B784D" d="M122.9,80.5c0,0,1.4,0.1,3.1-0.6c1.6-0.7,3.3-2,4-4.9c0,0-1.8-0.1-3.6,0.8C125,76.6,123.5,77.9,122.9,80.5z
		"/>
	<path fill="#718F40" d="M68.3,138.6c-0.3,0-0.6-0.1-0.9-0.1C67.7,138.6,68,138.6,68.3,138.6z"/>
	<path fill="#718F40" d="M73.8,139c-0.4,0-0.8,0-1.2,0C73,139,73.4,139,73.8,139z"/>
	<path fill="#718F40" d="M71,138.9c-0.3,0-0.7,0-1-0.1C70.3,138.8,70.7,138.9,71,138.9z"/>
	<path fill="#718F40" d="M77.8,139c0.1,0,0.3,0,0.4,0c0.3,0,0.6,0,1-0.1C78.7,138.9,78.3,139,77.8,139z"/>
	<path fill="#718F40" d="M83,138.6c0.3,0,0.7-0.1,1-0.1c0.2,0,0.4-0.1,0.6-0.1C84,138.4,83.5,138.5,83,138.6z"/>
	<path fill="#718F40" d="M88,137.8c0.2,0,0.3-0.1,0.5-0.1c0.4-0.1,0.9-0.2,1.3-0.3C89.2,137.5,88.6,137.7,88,137.8z"/>
	<path fill="#718F40" d="M80.4,138.8c0.2,0,0.5,0,0.7-0.1c0.3,0,0.5,0,0.8-0.1C81.4,138.8,80.9,138.8,80.4,138.8z"/>
	<path fill="#718F40" d="M85.5,138.2c0.5-0.1,0.9-0.2,1.4-0.3c0.1,0,0.2,0,0.3-0.1C86.6,138,86,138.1,85.5,138.2z"/>
	<path fill="#718F40" d="M75.2,139C75.3,139,75.3,139,75.2,139c0.4,0,0.7,0,1,0c0.1,0,0.2,0,0.2,0C76,139,75.6,139,75.2,139z"/>
	<path fill="#718F40" d="M62.1,137.6c0.1,0,0.2,0,0.3,0.1c0.1,0,0.2,0,0.3,0.1C62.5,137.7,62.3,137.7,62.1,137.6z"/>
	<path fill="#718F40" d="M64.7,138.1c0.2,0,0.4,0.1,0.7,0.1c0,0,0.1,0,0.1,0C65.2,138.2,65,138.2,64.7,138.1z"/>
	<path fill="#718F40" d="M90.5,137.2c0,0,0.1,0,0.1,0c0.5-0.1,0.9-0.3,1.4-0.4c0.1,0,0.2,0,0.2-0.1
		C91.7,136.9,91.1,137.1,90.5,137.2z"/>
	<path fill="#718F40" d="M104.6,131.9c0,0,0.1,0,0.1-0.1c0.6-0.3,1.2-0.6,1.8-1c0.1,0,0.1-0.1,0.2-0.1
		C106,131.2,105.3,131.6,104.6,131.9z"/>
	<path fill="#718F40" d="M56.3,136.1c1,0.3,2.1,0.6,3.1,0.9c-1.1-0.3-2.2-0.6-3.3-1C56.2,136.1,56.3,136.1,56.3,136.1z"/>
	<path fill="#718F40" d="M106.8,130.7c0.1-0.1,0.2-0.1,0.3-0.2c0.6-0.3,1.1-0.7,1.7-1c0,0,0,0,0.1,0
		C108.2,129.9,107.5,130.3,106.8,130.7z"/>
	<path fill="#718F40" d="M109,129.5c0.1-0.1,0.3-0.2,0.4-0.3c0.6-0.4,1.1-0.7,1.7-1.1C110.4,128.6,109.7,129,109,129.5z"/>
	<path fill="#718F40" d="M111.1,128.1C111.1,128.1,111.2,128.1,111.1,128.1c0.2-0.1,0.2-0.2,0.3-0.2c2.7-1.8,5.2-3.9,7.6-6.1
		c0.1-0.1,0.1-0.1,0.2-0.2c0.6-0.5,1.1-1.1,1.7-1.7c0,0,0.1-0.1,0.1-0.1c2.9-2.9,5.5-6.2,7.8-9.7
		C124.1,117.3,118.1,123.4,111.1,128.1z"/>
	<path fill="#718F40" d="M97.7,135c0.3-0.1,0.5-0.2,0.8-0.3c0.4-0.2,0.8-0.3,1.2-0.5C99.1,134.5,98.4,134.7,97.7,135z"/>
	<path fill="#718F40" d="M102.4,133c0.7-0.3,1.4-0.7,2.1-1C103.7,132.4,103.1,132.7,102.4,133z"/>
	<path fill="#718F40" d="M92.9,136.6c0.1,0,0.3-0.1,0.4-0.1c0.5-0.1,1-0.3,1.5-0.5c0,0,0,0,0,0C94.2,136.2,93.6,136.4,92.9,136.6z"
		/>
	<path fill="#718F40" d="M95.3,135.8c0.2-0.1,0.4-0.1,0.6-0.2c0.4-0.2,0.9-0.3,1.3-0.5C96.6,135.4,96,135.6,95.3,135.8z"/>
	<path fill="#718F40" d="M100.1,134.1C100.1,134.1,100.1,134,100.1,134.1c0.2-0.1,0.4-0.2,0.5-0.2c0.5-0.2,1-0.4,1.5-0.7
		C101.4,133.5,100.8,133.8,100.1,134.1z"/>
	<path fill="#718F40" d="M46.5,132.1c0.3,0.2,0.6,0.3,0.9,0.5c0.4,0.2,0.8,0.4,1.2,0.5C47.9,132.8,47.2,132.5,46.5,132.1z"/>
	<path fill="#718F40" d="M130.2,108c0-0.1,0.1-0.1,0.1-0.2c-0.1,0-0.2,0-0.3-0.1c-2.2-0.6-4.4-1.2-6.7-1.7c-0.3-0.1-0.7-0.2-1-0.2
		c-7.8-1.8-15.6-3-23.2-3.7c-0.5,0-1-0.1-1.5-0.1c-9.8-0.8-19.3-0.9-28.4-0.4c-0.7,0-1.3,0.1-2,0.1c-10.4,0.6-20,1.8-28.6,3.3
		c-0.5,0.1-0.9,0.2-1.4,0.2c-5.5,1-10.6,1.8-15,2.8c-0.4,0.1-0.9,0-1.3,0c0,0,0,0,0,0c0,0,0.1,0.4,0.1,0.5c0.5,0.8,1,1.7,1.5,2.4
		c0.1,0.1,0.1,0.3,0.2,0.4c0.5,0.7,1,1.5,1.5,2.2c0.1,0.1,0.2,0.3,0.3,0.4c0.5,0.7,1,1.4,1.6,2c0.1,0.1,0.2,0.3,0.3,0.4
		c0.5,0.6,1.1,1.3,1.6,1.9c0.1,0.1,0.3,0.3,0.4,0.4c0.5,0.6,1.1,1.2,1.7,1.7c0.2,0.2,0.3,0.3,0.5,0.5c0.5,0.5,1.1,1.1,1.7,1.6
		c0.2,0.2,0.4,0.4,0.6,0.5c0.5,0.4,1,0.9,1.5,1.3C52.1,117.7,86.5,107.8,130.2,108z"/>
	<path fill="#718F40" d="M34.4,124.2c0.1,0.1,0.1,0.1,0.2,0.2c0.2,0.2,0.5,0.4,0.7,0.6c0.6,0.4,1.1,0.9,1.7,1.3
		c0.3,0.2,0.5,0.4,0.8,0.6c0.6,0.4,1.1,0.8,1.7,1.2c0.2,0.1,0.3,0.2,0.5,0.3C38,127,36.1,125.6,34.4,124.2z"/>
	<path fill="#718F40" d="M40.1,128.4c0.1,0.1,0.2,0.1,0.3,0.2c0.6,0.4,1.1,0.7,1.7,1.1c0.2,0.1,0.5,0.3,0.7,0.4
		C41.8,129.5,40.9,129,40.1,128.4z"/>
	<path fill="#718F40" d="M43.4,130.4c0.4,0.3,0.9,0.5,1.3,0.8c0.3,0.2,0.6,0.3,0.9,0.5C44.9,131.3,44.1,130.9,43.4,130.4z"/>
	<path fill="#718F40" d="M52.9,134.9c0.1,0.1,0.3,0.1,0.4,0.2c0.6,0.2,1.2,0.4,1.8,0.6C54.4,135.5,53.6,135.2,52.9,134.9z"/>
	<path fill="#718F40" d="M49.7,133.6c0.2,0.1,0.4,0.2,0.7,0.3c0.5,0.2,1,0.4,1.4,0.6C51.1,134.2,50.4,133.9,49.7,133.6z"/>
	<path fill="#718F40" d="M128.9,110.1c0-0.1,0.1-0.1,0.1-0.1c0,0,0-0.1,0.1-0.1c0.4-0.6,0.8-1.2,1.2-1.9
		C129.7,108.7,129.3,109.5,128.9,110.1z"/>
	<path fill="#909A34" d="M111.1,128.1C111.1,128.1,111.1,128.1,111.1,128.1c7-4.7,13-10.8,17.7-17.9c0,0,0,0,0,0
		c0.5-0.7,0.9-1.4,1.3-2.1c0,0,0,0,0-0.1c0,0,0,0,0,0c-43.7-0.2-78.1,9.7-95.9,16.2l0,0c0,0,0,0,0,0c1.8,1.5,3.6,2.9,5.5,4.1
		c0.1,0,0.1,0.1,0.2,0.1c0.9,0.6,1.7,1.1,2.6,1.6c0.2,0.1,0.4,0.2,0.6,0.3c0,0,0.1,0,0.1,0c0.7,0.4,1.5,0.8,2.2,1.2
		c0.3,0.1,0.5,0.3,0.8,0.4c0,0,0.1,0,0.1,0.1c0.7,0.3,1.4,0.7,2.1,1c0.3,0.1,0.6,0.3,0.9,0.4c0,0,0.1,0,0.1,0
		c0.7,0.3,1.4,0.6,2.1,0.9c0.3,0.1,0.7,0.3,1,0.4c0,0,0,0,0.1,0c0.7,0.3,1.5,0.5,2.3,0.8c0.3,0.1,0.6,0.2,1,0.3c0,0,0,0,0,0
		c1.1,0.3,2.2,0.7,3.3,1c0.9,0.2,1.8,0.4,2.6,0.6c0.2,0,0.4,0.1,0.6,0.1c0.2,0,0.5,0.1,0.7,0.1c0.5,0.1,0.9,0.2,1.4,0.3
		c0.2,0,0.5,0.1,0.7,0.1c0.3,0.1,0.7,0.1,1,0.1c0.3,0,0.6,0.1,0.9,0.1c0.3,0,0.6,0.1,0.9,0.1c0,0,0.1,0,0.1,0c0.4,0,0.7,0.1,1.1,0.1
		c0.2,0,0.3,0,0.5,0.1c0.3,0,0.7,0,1,0.1c0.2,0,0.4,0,0.5,0c0.3,0,0.6,0,0.9,0.1c0.1,0,0.1,0,0.2,0c0.4,0,0.8,0,1.2,0
		c0.5,0,1,0,1.4,0c0.4,0,0.8,0,1.2,0c0.5,0,0.9,0,1.4,0c0.5,0,0.9-0.1,1.4-0.1c0.1,0,0.2,0,0.2,0c0.3,0,0.7,0,1-0.1
		c0.5,0,1-0.1,1.4-0.1c0.2,0,0.3,0,0.5-0.1c0.2,0,0.4,0,0.6-0.1c0.5-0.1,1-0.1,1.6-0.2c0.2,0,0.5-0.1,0.7-0.1c0.1,0,0.2,0,0.3,0
		c0.6-0.1,1.1-0.2,1.7-0.3c0.3-0.1,0.6-0.1,0.8-0.2c0.6-0.1,1.2-0.3,1.8-0.4c0.2-0.1,0.5-0.1,0.7-0.2c0.6-0.1,1.2-0.3,1.8-0.5
		c0.2-0.1,0.4-0.1,0.6-0.2c0.6-0.2,1.3-0.4,1.9-0.6c0.2-0.1,0.3-0.1,0.5-0.2c0.6-0.2,1.3-0.4,1.9-0.7c0.1,0,0.1,0,0.2-0.1
		c0.1,0,0.2-0.1,0.2-0.1c0.7-0.3,1.3-0.5,2-0.8c0.1,0,0.2-0.1,0.3-0.1c0.7-0.3,1.4-0.6,2-0.9c0.1,0,0.2-0.1,0.3-0.1
		c0.7-0.3,1.4-0.7,2.1-1c0,0,0.1,0,0.1,0c0,0,0.1,0,0.1-0.1c0.7-0.4,1.4-0.8,2.1-1.1c0,0,0.1,0,0.1-0.1c0.7-0.4,1.4-0.8,2.1-1.2
		c0,0,0,0,0.1,0C109.7,129,110.4,128.6,111.1,128.1z"/>
</g>
</svg>
