<?xml version="1.0" encoding="utf-8"?>
<!-- Generator: Adobe Illustrator 18.1.0, SVG Export Plug-In . SVG Version: 6.00 Build 0)  -->
<svg version="1.0" id="Layer_1" xmlns="http://www.w3.org/2000/svg" xmlns:xlink="http://www.w3.org/1999/xlink" x="0px" y="0px"
	 viewBox="0 0 150 150" enable-background="new 0 0 150 150" xml:space="preserve">
<g>
	<path fill="#04BEDB" d="M93.4,73.1c-0.1-10.4-8.4-19-18.8-19.4v0c-0.1,0-0.5,0-1,0v0C63.3,54,55,62.4,54.9,72.8h0V73h0
		c0,0.2,0,0.4,0,0.7h38.5c0-0.1,0-0.3,0-0.4h0L93.4,73.1L93.4,73.1z M64.2,71.4h-6.7c0.2-2.1,0.8-4.1,1.8-5.9h6.1
		C64.7,67.4,64.3,69.4,64.2,71.4 M60.9,62.9c2.4-3.2,5.9-5.4,9.9-6.3c-1.9,1.8-3.3,4-4.4,6.3H60.9z M72.9,71.4h-6.3
		c0.2-2,0.6-4,1.4-5.9h4.9V71.4z M72.9,62.9h-3.7c1-1.7,2.2-3.3,3.7-4.9V62.9z M75.3,58c1.5,1.5,2.7,3.2,3.7,4.9h-3.7V58z
		 M75.3,71.4v-5.9h4.9c0.8,1.9,1.2,3.9,1.4,5.9H75.3z M77.5,56.6c4,0.8,7.4,3.1,9.8,6.3h-5.5C80.7,60.7,79.3,58.6,77.5,56.6
		 M84.1,71.4c-0.2-2-0.6-4-1.2-5.9h6.1c0.9,1.8,1.6,3.8,1.8,5.9H84.1z"/>
	<path fill="#E95A24" d="M93.4,76v-0.2h0c0-0.1,0-0.3,0-0.4H54.9c0,0.2,0,0.4,0,0.7h0v0.2h0c0.1,10.4,8.4,18.8,18.8,19.1v0
		c0.5,0,0.8,0,1,0v0C85,95.1,93.2,86.4,93.4,76L93.4,76z M64.2,77.7c0.1,2,0.5,4,1.2,5.9h-6.1c-0.9-1.8-1.5-3.8-1.8-5.9H64.2
		 M66.4,86.2c1.1,2.3,2.6,4.5,4.4,6.3c-4-0.8-7.5-3.1-9.9-6.3H66.4z M72.9,83.7H68c-0.8-1.9-1.2-3.9-1.4-5.9h6.3V83.7z M72.9,91.1
		c-1.5-1.5-2.7-3.2-3.7-4.9h3.7V91.1z M75.3,86.2H79c-1,1.7-2.2,3.3-3.7,4.9V86.2z M81.6,77.7c-0.2,2-0.6,4-1.4,5.9h-4.9v-5.9H81.6z
		 M77.5,92.5c1.8-1.9,3.3-4,4.3-6.3h5.5C84.9,89.4,81.4,91.7,77.5,92.5 M90.7,77.7c-0.2,2.1-0.9,4.1-1.8,5.9h-6.1
		c0.7-1.9,1.1-3.9,1.2-5.9H90.7z"/>
	<path fill-rule="evenodd" clip-rule="evenodd" fill="#E95A24" d="M44.7,74.2c-9.8,2.1-17.5,9.8-19.5,19.5
		c-2-9.7-9.8-17.5-19.5-19.5c9.8-2,17.5-9.8,19.5-19.5C27.2,64.4,34.9,72.1,44.7,74.2L44.7,74.2z M54.7,123.6
		c9.8-2,17.5-9.7,19.5-19.5c2,9.8,9.8,17.5,19.5,19.5c-9.8,2.1-17.5,9.8-19.5,19.5C72.2,133.4,64.5,125.7,54.7,123.6L54.7,123.6z
		 M118.2,99c-9.8-2-17.5-9.8-19.5-19.5c-2,9.8-9.8,17.5-19.5,19.5c9.8,2,17.5,9.8,19.5,19.5C100.7,108.7,108.4,101,118.2,99
		L118.2,99z M30.1,99c9.8-2,17.5-9.8,19.5-19.5c2,9.8,9.8,17.5,19.5,19.5c-9.8,2-17.5,9.8-19.5,19.5C47.5,108.7,39.8,101,30.1,99
		L30.1,99z M54.7,25.1c9.8-2,17.5-9.8,19.5-19.5c2,9.8,9.8,17.5,19.5,19.5c-9.8,2-17.5,9.8-19.5,19.5C72.2,34.9,64.5,27.1,54.7,25.1
		L54.7,25.1z M79.4,49.6c9.8-2,17.5-9.7,19.5-19.5c2,9.8,9.8,17.5,19.5,19.5c-9.8,2-17.5,9.8-19.5,19.5
		C96.9,59.3,89.2,51.6,79.4,49.6L79.4,49.6z M69,49.6c-9.8-2-17.5-9.7-19.5-19.5c-2,9.8-9.8,17.5-19.5,19.5
		c9.8,2,17.5,9.8,19.5,19.5C51.5,59.3,59.2,51.6,69,49.6L69,49.6z M142.8,74.2c-9.8,2.1-17.5,9.8-19.5,19.5
		c-2-9.7-9.8-17.5-19.5-19.5c9.8-2,17.5-9.8,19.5-19.5C125.4,64.4,133.1,72.1,142.8,74.2L142.8,74.2z"/>
</g>
</svg>
