<?xml version="1.0" encoding="utf-8"?>
<!-- Generator: Adobe Illustrator 18.1.0, SVG Export Plug-In . SVG Version: 6.00 Build 0)  -->
<svg version="1.0" id="Layer_1" xmlns="http://www.w3.org/2000/svg" xmlns:xlink="http://www.w3.org/1999/xlink" x="0px" y="0px"
	 viewBox="0 0 150 150" enable-background="new 0 0 150 150" xml:space="preserve">
<g>
	<polygon fill="#093553" points="73.3,23.9 64.5,18 22.9,79.7 23.7,80.2 32.2,84.8 	"/>
	<polygon fill="#093553" points="86.1,32.5 77.3,26.6 36.5,87.1 45.8,92.2 	"/>
	<polygon fill="#093553" points="58.8,100.4 98.9,41.1 90.1,35.2 50.1,94.5 54.7,97 	"/>
	<polygon fill="#093553" points="111.6,49.7 102.9,43.8 62.6,103.5 70.8,110.3 	"/>
	<polygon fill="#093553" points="124.4,58.4 115.7,52.5 74.6,113.4 81.9,119.5 82.8,120.1 	"/>
	<polygon fill="#CD9768" points="70.8,110.3 62.6,103.5 58.8,100.4 54.7,97 50.1,94.5 45.8,92.2 36.5,87.1 32.2,84.8 23.7,80.2 
		22.5,79.6 22.5,81.6 54.7,99 40.5,120 54.2,131.1 83,120.4 81.9,119.5 74.6,113.4 	"/>
	<polygon fill="#FAB77D" points="39.8,119.5 40.5,120 54.7,99 22.5,81.6 22.4,81.5 23.2,110.7 	"/>
	<polygon fill="#2C3744" points="39.8,119.5 23.2,110.7 23,110.7 23.8,142.7 54.4,131.3 54.2,131.1 40.5,120 	"/>
	<polygon fill="#9E9C62" points="83.6,26.8 108,43.3 102.5,25.1 	"/>
	<path fill="#093553" d="M106.5,19.2L117,49.4l11,7.4c0-0.1,0-0.2-0.1-0.3l-14.5-41.7c-0.4-1.1-1.2-2-2.2-2.7c-1-0.7-2.2-1.1-3.3-1
		l-44.1,2.1c-0.1,0-0.2,0-0.3,0l11,7.4L106.5,19.2z"/>
</g>
</svg>
