<?xml version="1.0" encoding="iso-8859-1"?>
<!-- Generator: Adobe Illustrator 13.0.0, SVG Export Plug-In . SVG Version: 6.00 Build 14948)  -->
<!DOCTYPE svg PUBLIC "-//W3C//DTD SVG 1.1//EN" "http://www.w3.org/Graphics/SVG/1.1/DTD/svg11.dtd">
<svg version="1.1" id="Layer_1" xmlns="http://www.w3.org/2000/svg" xmlns:xlink="http://www.w3.org/1999/xlink" x="0px" y="0px"
	 width="100px" height="100px" viewBox="0 0 100 100" enable-background="new 0 0 100 100" xml:space="preserve">
<g>
	<path fill="#7F7F7F" d="M58.792,63.049c-0.375,0.327-0.774,0.646-1.196,0.949c-0.424,0.307-0.871,0.622-1.339,0.951
		c-0.422,0.377-0.881,0.729-1.374,1.059c-0.492,0.329-0.976,0.634-1.444,0.916c-0.61,0.328-1.233,0.645-1.867,0.949
		c-0.634,0.309-1.281,0.553-1.938,0.74c-0.657,0.188-1.337,0.328-2.041,0.422c-0.706,0.095-1.41,0.188-2.113,0.282
		c-0.8,0.047-1.599,0.059-2.396,0.035c-0.799-0.022-1.575-0.083-2.326-0.176c-0.657-0.142-1.314-0.292-1.972-0.457
		c-0.659-0.164-1.268-0.39-1.832-0.671c-0.422-0.186-0.823-0.433-1.198-0.74c-0.377-0.305-0.704-0.645-0.986-1.021
		c-0.329-0.326-0.61-0.714-0.846-1.161c-0.235-0.445-0.447-0.903-0.634-1.374c-0.235-0.515-0.411-1.066-0.528-1.656
		c-0.119-0.587-0.176-1.161-0.176-1.725v-21.84H19.202C11.759,45.292,7.167,51.947,7.167,51.947S26.12,79.446,49.5,79.446
		c9.861,0,18.926-4.895,26.122-10.551H58.792V63.049z"/>
	<path fill="#FBE32F" d="M39.489,33.88v25.645c0,0.471,0.036,0.964,0.106,1.48c0.07,0.517,0.176,1.01,0.318,1.479
		c0.187,0.61,0.469,1.175,0.844,1.69c0.375,0.518,0.823,0.894,1.34,1.127c0.75,0.281,1.524,0.471,2.323,0.563
		c0.8,0.096,1.597,0.119,2.396,0.07c0.846-0.094,1.667-0.257,2.465-0.492c0.799-0.234,1.573-0.518,2.326-0.845
		c0.75-0.329,1.49-0.694,2.219-1.093c0.728-0.398,1.444-0.833,2.148-1.304c0.518-0.329,1.021-0.693,1.516-1.093
		c0.491-0.398,0.949-0.81,1.374-1.233V38.742h-6.129V36.77l10.708-2.89h2.396v31.282l13.287,0.803
		c7.838-6.962,12.706-14.018,12.706-14.018s-18.953-27.5-42.333-27.5c-10.163,0-19.489,5.199-26.787,11.073l14.099-1.641H39.489z"/>
</g>
</svg>
