<?xml version="1.0" encoding="utf-8"?>
<!-- Generator: Adobe Illustrator 18.1.0, SVG Export Plug-In . SVG Version: 6.00 Build 0)  -->
<svg version="1.1" id="Layer_1" xmlns="http://www.w3.org/2000/svg" xmlns:xlink="http://www.w3.org/1999/xlink" x="0px" y="0px"
	 viewBox="0 0 2000 2000" enable-background="new 0 0 2000 2000" xml:space="preserve">
<g>
	<path fill="#603913" d="M1769,1142.1c-158.8,75.2-314.6,72.9-466.9-6.9l-215.7-129.3c-49.6-27.7-101.4-44.2-155.6-49.5
		c-63.5-4.8-116,8.7-157.6,40.3c-10.8,6.8-18.8,10.7-24.6,11.2c0.1-2.8,0.7-5.8,1.1-8.6c-8.2,11.4-15.7,23.4-22.8,35.7
		c5.7-0.6,13.7-4.4,24.3-11c41.5-31.7,94.1-45.2,157.5-40.3c54.3,5.3,106,21.8,155.7,49.5l215.8,129.3
		c152.3,80,307.9,82.2,466.9,6.9c60.3-28.6,114.9-65.3,164.4-109.3c6.2-7.9,12.5-15.6,18.3-23.9
		C1881.3,1078.6,1827.9,1114.2,1769,1142.1z"/>
	<path fill="#603913" d="M1146.2,936.7L1362,1066c49.6,27.7,101.4,44.2,155.6,49.5c63.4,4.8,115.9-8.7,157.5-40.3
		c10.8-6.8,18.8-10.6,24.6-11.1c-0.2,2.8-0.7,5.8-1,8.6c8.1-11.4,15.6-23.4,22.7-35.7c-5.7,0.6-13.6,4.4-24.2,11
		c-41.6,31.7-94.2,45.1-157.5,40.3c-54.3-5.3-106-21.8-155.6-49.5l-215.8-129.3c-152.2-79.9-307.9-82.2-466.9-6.9
		c-60.3,28.6-115,65.3-164.4,109.3c-6.2,7.9-12.5,15.6-18.3,23.9c48.5-42.4,101.9-78.1,160.8-106
		C838.2,854.5,994,856.8,1146.2,936.7z"/>
	<path fill="#F15E40" d="M447.5,999.2c-34.2-39.6-82.6-63.3-137.8-67.2c-57.8-4.1-113.6,14.7-155.2,52
		c30.9,40.5,76.6,65.2,130.4,70.2C343.9,1059.7,403.6,1039.3,447.5,999.2z"/>
	<path fill="#89BD4E" d="M354.2,1110c-49.2,37.7-79.7,95-83.1,154.8c46.1,6.3,91.1-5.3,131-34.2c52.3-37.8,84.4-97.9,87.1-162.4
		C441.4,1065,393.9,1079.5,354.2,1110z"/>
	<path fill="#A2D6DA" d="M586,926.6c-2.8-7-6-13.8-9.7-20.3c-29.3-51.6-85.8-85.4-145.2-88.7c2.9,8.7,6.6,17,11.1,24.9
		C470.5,892.3,526.3,924.3,586,926.6z"/>
	<path fill="#EAB686" d="M853.6,800.4c26.8-30.7,41.6-71.3,41.6-114.2c0-9.4-0.7-18.7-2.1-28c-12.8,8.2-24.5,18.4-34.9,30.3
		c-28.3,32.4-43.8,74.5-43.8,118.5c0,8.2,0.6,16.5,1.7,24.5C829.8,823.6,842.5,813.2,853.6,800.4z"/>
</g>
</svg>
