<?xml version="1.0" encoding="utf-8"?>
<!-- Generator: Adobe Illustrator 18.1.0, SVG Export Plug-In . SVG Version: 6.00 Build 0)  -->
<svg version="1.0" id="Layer_1" xmlns="http://www.w3.org/2000/svg" xmlns:xlink="http://www.w3.org/1999/xlink" x="0px" y="0px"
	 viewBox="0 0 150 150" enable-background="new 0 0 150 150" xml:space="preserve">
<g>
	<path fill="none" d="M84.3,77.9c-3,0.1-7.8,2.3-10.8,5.8c0.1,0.3,0.7,0.4,0.7,0.4S78.2,78.8,84.3,77.9z"/>
	<polygon fill="none" points="105.6,73.7 97.5,71.6 97.1,72.6 109.2,79.6 	"/>
	<polygon fill="none" points="60.2,44.4 57,39.1 50.1,39.1 50.7,43.2 	"/>
	<path fill="none" d="M87.6,96.5c0.1,0.1,0.2,0.1,0.3,0.2l-1.6,7.9l2.4,0.3l0.5-8c0.2,0,0.4-0.1,0.6-0.1l5.1,6.2l1.8-1.7l-5.8-5.3
		l0,0c0.1-0.2,0.2-0.4,0.3-0.6l7.8,0l-0.2-2.4L91,93.9c-0.1-0.3-0.2-0.6-0.4-0.8l4.5-6.3L93,85.6l-3.6,6.8c-0.3-0.1-0.5-0.1-0.8-0.1
		l-2-7.4l-2.3,0.8l3.1,7.1c-0.2,0.2-0.3,0.3-0.5,0.5l0,0l-7.1-3.1l-0.8,2.3l7.6,2.1c0,0.2,0,0.4,0.1,0.6L79.6,99l1.3,2.1l6.5-4.6
		C87.4,96.4,87.5,96.5,87.6,96.5z"/>
	<path fill="#006D95" d="M48.7,39.1l0.6,3.9l-12.2-1.5l-6.4,0.2c-1.8,1.7-3.4,3.5-5,5.4l36.6-0.8l11.9,20.3l2.6-0.1L63.1,44.7
		l-1.2-0.1l0.1,0l-4.2-6.9l-22.6,0.1c-0.6,0.5-1.2,0.9-1.8,1.4L48.7,39.1z M57,39.1l3.2,5.3l-9.5-1.2l-0.6-4.1H57z"/>
	<path fill="#006D95" d="M14.8,67.6l5-0.3l0.5-12.4c-1.3,2.2-2.5,4.4-3.4,6.8C16.1,63.3,15.5,65.3,14.8,67.6z"/>
	<polygon fill="#006D95" points="29.8,93.2 70.7,92.9 72.7,67.2 27.6,68.8 27.7,70.2 32.6,70.3 33.5,72.9 28.2,75.7 	"/>
	<path fill="#006D95" d="M25.1,48.9l2,18.1l34.1-0.5l-0.7-6.8l3.8,0.1l1.5,3.5c0.9,0.1,2.5,0.2,3.6,0.3l-8.1-16.2L25.1,48.9z"/>
	<path fill="#006D95" d="M17,95.5l56.9-0.2c-0.1-3,0.6-6.1,2.4-8.9c4.5-6.9,13.8-8.9,20.7-4.4c4.6,3,7,8,6.8,13.2l3.9,0l4.2-4.2
		l0.7-5.9l-1-3.9l-4.8-9.7L77.2,67l-4,0.1l-2,26.2l-42,0.6l0-0.2l-3.1-25l-11.7,0.4c-1.1,4.3-2,9.5-2.7,15.3
		C10.4,91.7,11.9,95.3,17,95.5z M97.5,71.6l8.2,2.1l3.6,6l-12.1-7L97.5,71.6z M84.3,77.9c-6.2,0.9-10.1,6.3-10.1,6.3
		s-0.6-0.1-0.7-0.4C76.6,80.2,81.4,78,84.3,77.9z"/>
	<polygon fill="#006D95" points="71,66.6 70.2,65.1 66.7,65.3 67.3,66.7 	"/>
	<path fill="#006D95" d="M100.1,102c4.1-6.2,2.3-14.6-3.9-18.6c-6.2-4.1-14.6-2.3-18.6,3.9c-4.1,6.2-2.3,14.6,3.9,18.7
		C87.7,110,96.1,108.2,100.1,102z M79.6,99l7.1-3.7c-0.1-0.2-0.1-0.4-0.1-0.6l-7.6-2.1l0.8-2.3l7.1,3.1l0,0c0.1-0.2,0.3-0.4,0.5-0.5
		l-3.1-7.1l2.3-0.8l2,7.4c0.3,0,0.5,0,0.8,0.1l3.6-6.8l2.1,1.3l-4.5,6.3c0.2,0.2,0.3,0.5,0.4,0.8l7.6-1.1l0.2,2.4l-7.8,0
		c-0.1,0.2-0.1,0.4-0.3,0.6l0,0l5.8,5.3l-1.8,1.7l-5.1-6.2c-0.2,0.1-0.4,0.1-0.6,0.1l-0.5,8l-2.4-0.3l1.6-7.9
		c-0.1,0-0.2-0.1-0.3-0.2c-0.1,0-0.1-0.1-0.2-0.1l-6.5,4.6L79.6,99z"/>
	<path fill="#FFFFFF" d="M144.3,94.1c-3.4,13-10.8,24.8-20.5,34c1.3-2.2,3-4.1,4.3-6.3c4.7-7.1,8-15.2,9.6-23.5
		c3.3-16.2,0.1-33.6-8.7-47.7c-8.1-13.2-21-23.3-35.7-28.1c-14.9-5-31.6-4.3-46.1,1.8c-15.9,6.5-28.9,19.5-35.6,35.3
		c-4.2,9.8-5.8,20.6-5.2,31.2C2.4,72.4,6.2,52.5,16.6,36.8C25.6,23.1,39.5,12.7,55.2,8c15.8-4.9,33.3-3.9,48.5,2.7
		c14.8,6.3,27.3,17.8,34.7,32C146.8,58.3,148.9,77.1,144.3,94.1z"/>
	<path fill="#006D95" d="M103.7,10.7C88.5,4.1,71,3.1,55.2,8c-15.7,4.7-29.6,15.1-38.6,28.8C6.2,52.5,2.4,72.4,6.6,90.8
		c-0.6-10.6,0.9-21.4,5.2-31.2c6.6-15.8,19.7-28.8,35.6-35.3c14.5-6.1,31.2-6.8,46.1-1.8c14.7,4.8,27.6,14.9,35.7,28.1
		c8.7,14,11.9,31.4,8.7,47.7c-1.6,8.4-4.9,16.4-9.6,23.5c-1.4,2.1-3,4.1-4.3,6.3c9.7-9.2,17.1-21,20.5-34
		c4.7-17.1,2.5-35.8-5.8-51.4C131,28.5,118.5,17,103.7,10.7z"/>
	<path fill="#1A1A1A" d="M127.9,78.1c-1.7-11.5-7.1-22.4-15.4-30.6c-8.2-8.2-18.9-13.7-30.4-15.4c10.3,3.4,19.9,9.6,26.4,18.4
		c5.4,7.1,8.8,15.7,9.9,24.6c0.3,2.8,0.4,5.7,0.3,8.6c-0.7,16-9.4,31.4-22.8,40.1c-2.9,1.9-5.9,3.5-9.1,4.8
		c-4.3,1.8-8.9,2.9-13.5,3.4c-10.3,1.1-21-1-30.1-6c-8.3-4.5-15.2-11.4-19.9-19.6c7.4,19.7,27.5,33.6,48.4,34.2
		c12.4,0.5,25-3.4,34.9-10.8C122.4,118.2,130.9,97.6,127.9,78.1z"/>
</g>
</svg>
