<?xml version="1.0" encoding="utf-8"?>
<!-- Generator: Adobe Illustrator 18.1.0, SVG Export Plug-In . SVG Version: 6.00 Build 0)  -->
<svg version="1.1" id="Layer_1" xmlns="http://www.w3.org/2000/svg" xmlns:xlink="http://www.w3.org/1999/xlink" x="0px" y="0px"
	 viewBox="0 0 150 150" enable-background="new 0 0 150 150" xml:space="preserve">
<g>
	<path fill="none" d="M21,106.8C21,106.8,21,106.8,21,106.8c19-11.6,53.4-29.4,101.4-40C74.4,77.4,40,95.2,21,106.8z"/>
	<path fill="none" d="M36.4,80.6c-6.2,2-11.6,3.9-16.1,5.6C24.8,84.7,30.2,82.7,36.4,80.6z"/>
	<path fill="none" d="M128,64.8c0.3,0,0.6-0.1,0.9-0.1c-0.6,0.1-1.3,0.1-1.9,0.2C127.4,64.8,127.7,64.8,128,64.8z"/>
	<path fill="none" d="M84.6,127.2c16.9-20.6,35.5-38,50-50.2c0,0,0,0,0-0.1C120.2,89.1,101.4,106.6,84.6,127.2z"/>
	<path fill="#005EA3" d="M16.7,69.3C18,57.8,27.8,49,39.7,49c0,0,0,0,0,0C42.6,38,51.5,32.2,62,32.2c10.1,0,18.7,6.4,21.9,15.4
		c6.8,0.3,12.8,3.5,16.9,8.4c3.2-2.5,7.3-4,11.7-4c8.3,0,15.4,5.3,18.1,12.7c0.6,0,1.3,0,1.9,0c0,0,0,0,0,0c0.3,0,0.7,0,1,0
		c-5.6-27.8-30.2-48.8-59.6-48.8c-31,0-56.6,23.3-60.3,53.3C14.6,69.2,15.6,69.3,16.7,69.3C16.7,69.3,16.7,69.3,16.7,69.3z"/>
	<path fill="#D5DAE1" d="M112.5,52c-4.4,0-8.4,1.5-11.7,4c-4.1-4.9-10.1-8.1-16.9-8.4c-3.2-9-11.8-15.4-21.9-15.4
		C51.5,32.2,42.6,38,39.7,49c0,0,0,0,0,0c-11.9,0-21.7,8.8-23,20.3c9.6,0.6,23.5,2,38.5,5.7c0.2,0,0.4-0.1,0.6-0.1
		c19.6-5,43.9-8.8,71.3-9.8c0.6-0.1,1.3,0,1.9,0c0,0,0,0,0,0c0.5,0,1.1-0.1,1.6-0.1C127.9,57.4,120.8,52,112.5,52z"/>
	<path fill="#2E8B42" d="M36.4,80.6c5.7-1.9,11.9-3.9,18.8-5.6c-15-3.6-28.9-5.1-38.5-5.7c0,0,0,0,0,0c-1.1-0.1-2.1-0.1-3.1-0.2
		c-0.3,2.5-0.5,5-0.5,7.5c0,3.9,0.4,7.7,1.1,11.4c1.8-0.5,3.8-1.1,6-1.8C24.8,84.5,30.2,82.6,36.4,80.6z"/>
	<path fill="#28813D" d="M87.6,135.9c26-6,45.7-28.8,47-56.2C113.3,100.3,98,120.1,87.6,135.9z"/>
	<path fill="#28813D" d="M127,64.9c-27.4,1-51.7,5-71.3,10c-0.2,0-0.4,0.1-0.6,0.1c-6.8,1.8-13.1,3.7-18.8,5.6
		c-6.2,2.1-11.6,4.1-16.1,5.6c-2.2,0.7-4.2,1.4-6,1.8c0.6,3.4,1.6,6.7,2.8,9.9C59.7,76.4,109.3,67.2,128,64.8
		C127.7,64.8,127.4,64.8,127,64.9z"/>
	<path fill="#28813D" d="M133.5,64.7c-0.3,0-0.7,0-1,0c-3.4,0.6-6.6,1.3-9.9,2.1c-48,10.7-82.5,28.4-101.4,40
		c2.3,4.1,5.1,7.8,8.3,11.2c40.3-29.8,90.3-47.1,104.4-51.6C133.7,65.8,133.6,65.2,133.5,64.7z"/>
	<path fill="#28813D" d="M133.9,66.9c-46.9,18-79.5,41.5-98,57.2c4.2,3.3,8.8,6.1,13.7,8.3c30.6-30.3,68.3-52.5,84.8-61.5
		C134.3,69.5,134.1,68.2,133.9,66.9z"/>
	<path fill="#28813D" d="M134.7,76.9c0-0.1,0-0.2,0-0.2c0-1.6-0.1-3.1-0.2-4.7c-33.7,22.1-71.1,58.4-76.2,63.4c5,1.3,10.2,2,15.6,2
		c0.9,0,1.8,0,2.7-0.1c2.6-3.5,5.3-6.9,8-10.2C101.4,106.6,120.2,89.1,134.7,76.9z"/>
	<path fill="#2E8B42" d="M133.8,66.4C119.7,70.9,69.7,88.2,29.4,118c2,2.2,4.2,4.2,6.5,6.1c18.5-15.7,51.1-39.2,98-57.2
		C133.8,66.7,133.8,66.6,133.8,66.4z"/>
	<path fill="#2E8B42" d="M84.6,127.2c-2.7,3.3-5.4,6.7-8,10.2c3.7-0.2,7.4-0.7,10.9-1.5c10.4-15.7,25.7-35.6,47-56.2
		c0-0.9,0.1-1.8,0.1-2.7C120.2,89.2,101.5,106.6,84.6,127.2z"/>
	<path fill="#2E8B42" d="M134.4,70.9c-16.5,9-54.2,31.2-84.8,61.5c2.8,1.2,5.7,2.2,8.6,3c5.1-5,42.5-41.3,76.2-63.4
		C134.4,71.6,134.4,71.3,134.4,70.9z"/>
	<path fill="#2E8B42" d="M132.4,64.7C132.4,64.7,132.4,64.7,132.4,64.7c-0.6,0-1.3,0.1-1.9,0.2c-0.5,0-1.1,0.1-1.6,0.1c0,0,0,0,0,0
		c-0.3,0-0.6-0.1-0.9,0C109.3,67.4,59.7,76.5,17,98c1.2,3.1,2.6,6,4.2,8.8C40,95.2,74.6,77.4,122.6,66.8
		C125.8,66.1,129.1,65.3,132.4,64.7z"/>
</g>
</svg>
