<?xml version="1.0" encoding="utf-8"?>
<!-- Generator: Adobe Illustrator 18.1.0, SVG Export Plug-In . SVG Version: 6.00 Build 0)  -->
<svg version="1.1" id="Layer_1" xmlns="http://www.w3.org/2000/svg" xmlns:xlink="http://www.w3.org/1999/xlink" x="0px" y="0px"
	 viewBox="0 0 1500 1500" enable-background="new 0 0 1500 1500" xml:space="preserve">
<g>
	<path fill="#C7CD86" d="M801.4,819.2c36.2,4.5,248.3,37.2,325.3,187.9c84.2,164.9,0,341.7,0,341.7s-37-53.5-158.7-103.6
		c-121.7-50.1-262.4-79-187.5-288.1C855.3,747.8,666.1,771.1,604.3,819c-58.1,45.2-86,100.5-93.1,163.8
		c8.1-155.9,136.5-295.9,320.6-363.1c274.2-100.1,250.9-217.4,250.9-217.4s16.9,109.4-256.2,207.9
		c-236,85.2-389.3,313.9-302.9,516.1c0.4,1.5,0.6,2.9,1,4.4c0,0-0.3-1.4-0.7-3.7c13.6,31.5,32.8,62.4,58.7,92
		c171.2,195.9,373.3,241.1,373.3,241.1c-279.1-112.7-410.4-259.5-439-401c-2.4-69,8.4-171.2,82.1-229.8
		c118.5-94.3,219,16.5,178.5,104.9c-40.6,88.4-96.5,238.3,131.2,300.1c227.7,61.9,208.5,158.6,208.5,158.6s102.9-126.7,43.7-350.5
		C1105.3,832.1,843.7,822.5,801.4,819.2z"/>
	<path fill="#C7CD86" d="M801.4,819.2c-3.4-0.4-5.4-0.6-5.4-0.6C796.8,818.7,798.7,818.9,801.4,819.2z"/>
	<path fill="#DADDAD" d="M794.1,823.5c0,0,200.3,71.9,287.6,315.4c52.5,146.4,43,181.1,43,181.1S1291.7,901.6,794.1,823.5z"/>
	<path fill="#C7CD86" d="M762.4,780.8c-1.8-1.2-3.6-2.5-5.2-4.1C757.2,776.8,758.5,779,762.4,780.8z"/>
	<path fill="#C7CD86" d="M775.5,790.8c0,0,33.2,16.2,98.5,23.8c58.5,6.8,118.6-42.7,130.6-53.1c-5.6,4-22.3,11.2-59.6-7.4
		c-70.3-35.2-89.3,0-134,19.5c-28,12.2-42.1,10.4-48.7,7.3c29.2,19.5,83,1.3,83,1.3C808.7,800.6,775.5,790.8,775.5,790.8z"/>
	<path fill="#C7CD86" d="M1006.9,759.4c0,0-0.9,0.8-2.3,2C1006.2,760.3,1006.9,759.4,1006.9,759.4z"/>
	<path fill="#C7CD86" d="M988.6,276.9c-120-36.7-194.6,34.2-194.6,34.2c-13.1,24.7,3.3,12.4,3.3,12.4
		c79.2-101.4,308.5-48.7,282.3,93.4C1079.6,416.9,1108.7,313.5,988.6,276.9z"/>
	<path fill="#FFBC77" d="M753.2,352.5c20.3-22.7,20.3-28,20.3-28s-57.3-26.2-129.5,17.5c-72.2,43.7-114.7,33.2-105.5,47.2
		c9.3,14,48.1,26.2,99.9,22.7C690.3,408.5,732.8,375.3,753.2,352.5z"/>
	<path fill="#FFBC77" d="M536.7,307.1c-7.4,3.5,46.3,45.4,85.1,29.7c38.9-15.7,88.8-33.2,111-28c0,0-38.8-26.2-96.2-14
		C579.2,307.1,544.1,303.6,536.7,307.1z"/>
	<path fill="#FFBC77" d="M768,523.8c12.9,1.7,9.2-3.5,29.6-71.7c20.4-68.1-14.8-111.8-14.8-111.8c-1.9,10.5-16.7,22.7-51.8,64.7
		C695.8,446.9,755,522,768,523.8z"/>
	<path fill="#FFBC77" d="M821.6,425.9c0,21,22.2,33.2,46.3,41.9c24.1,8.7,12.9-1.7-5.6-43.7c-18.5-41.9-59.2-73.4-59.2-73.4
		C816.1,359.5,821.6,405,821.6,425.9z"/>
	<path fill="#FFBC77" d="M743.2,301.6c-1-0.9-2.4-1.9-4.1-3c0.6,0.9,0.9,1.5,0.9,1.5L743.2,301.6z"/>
	<path fill="#FFBC77" d="M698.8,261.2c-22.2-6-38-23.9-39.6-19.4c-1.6,4.5,9.5,29.9,26.9,35.9c15.2,5.2,41.3,13.9,53,21
		C735.1,292.2,718.2,266.4,698.8,261.2z"/>
	<path fill="#FFBC77" d="M768.5,304.6c0,0,3.2-19.4-7.9-34.4c-11.1-15-7.9-23.9-17.4-26.9c-9.5-3-12.7,16.5,1.6,29.9
		C759,286.6,768.5,295.6,768.5,304.6z"/>
	<path fill="#FFBC77" d="M847.7,351c-20.6-18-44.3-15-44.3-15c4.8,1.5,47.5,32.9,57,41.9C869.9,386.9,868.3,368.9,847.7,351z"/>
	<path fill="#C7CD86" d="M1099.6,210.1c0,0-1.5,9.6-20.4,31.6c-18.9,22-8.7,72.8,10.2,108.6c0,0-16-34.3,1.5-72.8
		C1108.4,238.9,1099.6,210.1,1099.6,210.1z"/>
	<path fill="#C7CD86" d="M943.9,291.1c-24.7,12.4-36.4,23.4-36.4,23.4s32,12.4,56.8-8.2c24.8-20.6,56.8,0,56.8,0
		C1019.6,299.4,968.7,278.8,943.9,291.1z"/>
	<path fill="#C7CD86" d="M602.4,746.5c0,0,64.4-68.3,47.1-135.1c-17.3-66.8-3.1-81.6-3.1-81.6s-53.4,43-72.3,106.9
		c-18.9,63.8,9.4,92,9.4,92s-15.7-43,4.7-81.6c20.4-38.6,33-57.9,33-57.9S553.7,710.9,602.4,746.5z"/>
	<path fill="#FFC589" d="M1263.5,217c-29.1-68.8-103.2-100.5-103.2-100.5c10.6,5.3,60.8,29.1,97.9,108.4
		c37,79.4,112.9,80.1,112.9,80.1C1315.1,286.4,1292.5,285.8,1263.5,217z"/>
	<path fill="#FFC589" d="M996.7,72.4c56,4.1,99.6,19.3,117.6,26.5C1073.6,81.8,1034.5,73.5,996.7,72.4z"/>
	<path fill="#FFC589" d="M996.7,72.4c-53.6-4-118.5,2.3-182.9,35.6C660.3,187.3,575.7,330.2,380,256.1
		c-195.7-74.1-261.9,50.3-261.9,50.3s82-89.9,238.1-37C512.2,322.2,581,290.5,710.6,190C803.1,118.3,895.6,69.5,996.7,72.4z"/>
	<path fill="#FFC589" d="M1114.3,98.9c3,1.3,6,2.5,9,3.8C1123.3,102.7,1120,101.2,1114.3,98.9z"/>
	<path fill="#FFC589" d="M1136.1,287.9c0,0,15.6-61.3,44.8-74.6c29.2-13.3,71.8,22.8,71.8,22.8
		C1175.1,129.2,1136.1,287.9,1136.1,287.9z"/>
	<path fill="#FFC589" d="M1367.1,428.3c0.3-0.3,0.6-0.6,0.9-0.9C1368,427.4,1367.6,427.7,1367.1,428.3z"/>
	<path fill="#FFC589" d="M1372.6,459.1c-18.8-15-8.8-27.5-5.5-30.8c-23,20.7-8.9,30.1,5,41.4c21.3,17.2-13.8,46.5-13.8,46.5
		C1395.2,498.9,1394.6,476.7,1372.6,459.1z"/>
	<path fill="#FFC589" d="M1361.4,329c0,0-2.3,2.1-5.8,5.1C1359.7,331.4,1361.4,329,1361.4,329z"/>
	<path fill="#FFC589" d="M1325.5,352.3c4.6,3.1,21.3-10.4,30.2-18.2c-4.4,3-11.7,6.5-22.8,7.6
		C1311.7,343.9,1325.5,352.3,1325.5,352.3z"/>
	<path fill="#FFC589" d="M1367.3,407.6c1.5-7-4.5-14.8-7.6-16.3c-3.1-1.5,0-3.9,0.8-10.1c0.8-6.2-8.5-9.3-8.5-9.3
		c-10.7,36.8-42.2,33.4-42.2,33.4s12.8,11.5,29.8,12.3C1356.6,418.3,1365.7,414.5,1367.3,407.6z"/>
	<path fill="#FFC589" d="M1100.1,703.8c7.8-62.2,181.5-155.6,181.5-155.6C1011.9,677.9,1092.3,766,1100.1,703.8z"/>
	<path fill="#FFC589" d="M1184.7,296.3c56.5,23.1,61.3-37.4,61.3-37.4C1233.3,301.9,1184.7,296.3,1184.7,296.3z"/>
	<path fill="#FFC589" d="M1239.7,522.4c0,0-9.4,0-53.7-4c-44.3-4-59.1-41.6-59.1-41.6C1130.9,538.5,1239.7,522.4,1239.7,522.4z"/>
</g>
</svg>
