<?xml version="1.0" encoding="utf-8"?>
<!-- Generator: Adobe Illustrator 18.1.0, SVG Export Plug-In . SVG Version: 6.00 Build 0)  -->
<svg version="1.0" id="Layer_1" xmlns="http://www.w3.org/2000/svg" xmlns:xlink="http://www.w3.org/1999/xlink" x="0px" y="0px"
	 viewBox="0 0 150 150" enable-background="new 0 0 150 150" xml:space="preserve">
<g>
	<path fill="#ABC337" d="M103.8,7.5c-8,2.3-24.5,22.6-10.7,40.2C93.5,48.1,117,35.5,103.8,7.5z"/>
	<g>
		<g>
			<path fill="#04643A" d="M102.9,4.8c15.8,26.9-3.5,42.6-7,44.7c7.3-12.3,4.9-38.4,4.9-38.4c-0.4,27.3-4.3,35.6-6,38
				C78.9,31.3,94.5,8.1,102.9,4.8 M103.5,3l-1.1,0.4c-5.3,2.1-12.6,10.8-15,21.1C85.8,31.2,85.6,41,93.7,50l0.1,0.1l-1.9,3.2
				l4.7-2.6c2.6-1.5,10.1-7.6,12.9-17.9c2.4-9,0.6-18.6-5.3-28.7L103.5,3L103.5,3z"/>
		</g>
	</g>
	<path fill="#ABC337" d="M20,61.1c8.3,10.3,47.9,22.1,65.3-8.8C85.8,51.4,53,24.7,20,61.1z"/>
	<g>
		<g>
			<path fill="#04643A" d="M16.6,64c29.7-39.5,64.5-20.9,69.7-16.9c-22.4-3.2-59.2,16.1-59.2,16.1C67.3,47.2,81.8,47.9,86.4,49
				C70.1,83.1,26.6,74.3,16.6,64 M13.7,64.2l1.3,1.4c6.3,6.5,23.4,11.9,40,9.2C65.7,73,80.1,67.3,88.4,50l0.1-0.2l5.9,0.8l-6.7-5.2
				c-3.8-3-17.3-10.2-34.1-8C39,39.4,26,47.9,14.8,62.7L13.7,64.2L13.7,64.2z"/>
		</g>
	</g>
	<path fill="#A57C52" d="M97.5,132.5c-13.2-3.3-20.9-22.4-17.2-42.7c3.6-20.3,17.2-34.1,30.4-30.8c13.2,3.3,20.9,22.4,17.2,42.7
		C124.2,122,110.6,135.8,97.5,132.5z"/>
	<path fill="#6F2B20" d="M66.2,91.2c-0.5,0.6,12.6-48.7,39.4-41.6c26.8,7.1,44.6,71.1,15.3,88.6c-27.1,16.2-55-9.8-49.1-36.1
		c5.3-23.5,21.5-35,21.5-35s-16,27.7-5.1,48.5c7.7,14.8,31.6,9.8,32-15.3c0.4-24.4-7-40.4-19.7-42.4C87.7,56.2,66.2,91.2,66.2,91.2z
		"/>
</g>
</svg>
