<?xml version="1.0" encoding="utf-8"?>
<!-- Generator: Adobe Illustrator 18.1.0, SVG Export Plug-In . SVG Version: 6.00 Build 0)  -->
<svg version="1.1" id="Layer_1" xmlns="http://www.w3.org/2000/svg" xmlns:xlink="http://www.w3.org/1999/xlink" x="0px" y="0px"
	 viewBox="0 0 1500 1500" enable-background="new 0 0 1500 1500" xml:space="preserve">
<g>
	<path fill="none" d="M199.9,1018c-0.7-1.1-1.3-2.3-2-3.5C198.5,1015.7,199.2,1016.8,199.9,1018z"/>
	<path fill="none" d="M292.7,433.9c-41.3,3-125.1,45.5-144.2,113.6c0.1-0.1,0.3-0.2,0.4-0.3C168.2,479.3,251.4,436.8,292.7,433.9z"
		/>
	<path fill="none" d="M196.9,1012.6c-0.6-1.2-1.3-2.5-1.9-3.8C195.6,1010.1,196.3,1011.4,196.9,1012.6z"/>
	<path fill="none" d="M349.6,1098.2c-0.8,0.6-1.6,1.3-2.4,2C348,1099.4,348.8,1098.8,349.6,1098.2z"/>
	<path fill="none" d="M353.5,1095.7c-0.9,0.5-1.8,1-2.6,1.6C351.8,1096.7,352.6,1096.2,353.5,1095.7z"/>
	<path fill="none" d="M191.3,1000.7c-2.4-5.6-4.5-11.8-6.2-18.3C186.8,989,189,995.1,191.3,1000.7z"/>
	<path fill="none" d="M194.1,1006.9c-0.9-2-1.9-4-2.7-6.2C192.2,1002.8,193.1,1004.9,194.1,1006.9z"/>
	<path fill="none" d="M113.1,875.2c0-0.2-0.1-0.5-0.1-0.7C113.1,874.7,113.1,875,113.1,875.2z"/>
	<path fill="none" d="M93.7,763.3c2-55.4,21.4-103.9,49.3-123.4c42.9-30,63.3-63.5,63.3-84.3c0-2.3-0.2-4.4-0.7-6.3
		c-1.9-7.6-7.3-12.5-15.2-13.5c-2-0.3-4.1-0.4-6.1-0.3c1.9,0,3.9,0.1,5.9,0.3c7.8,1,13.4,5.9,15.2,13.5c0.5,1.9,0.7,4.1,0.7,6.3
		c0,20.8-20.4,54.3-63.3,84.3C115.1,659.5,95.7,707.9,93.7,763.3c-0.1,3.2-0.2,6.3-0.2,9.4c0,37,8.3,67.8,22.1,86.6c0,0,0,0,0,0
		c-13.8-18.8-22.1-49.6-22.1-86.6C93.6,769.6,93.6,766.5,93.7,763.3z"/>
	<path fill="none" d="M356.2,1094.3c-0.9,0.4-1.8,0.9-2.7,1.4C354.4,1095.2,355.3,1094.7,356.2,1094.3z"/>
	<path fill="none" d="M113,873.8C113,873.8,113,873.9,113,873.8C113,873.8,113,873.8,113,873.8L113,873.8z"/>
	<path fill="none" d="M1260.9,896.2l0.7,0l0.7,0.2c0.3,0.1,0.7,0.3,1,0.4c-0.4,0.1-0.8,0.2-0.8,0.2l-10.1,8.7l-6,5.2l-17.3,15
		c-23.2,6.8-53.6,14.5-90.6,21.3c-0.5,0.1-1.2,0.3-2.2,0.4c-74.6,13.6-175.7,23.4-299.4,15.6l-2.9-0.2l-90.9-222.5
		c0,0,347-124.9,350.2-126.1c1.7-3.1,7.6-14.1,7.6-26c0-0.5-0.1-1-0.1-1.5c-21.3,7.2-343.9,115.7-369.3,124.6
		c-24.5,8.6-20.7,21.3-20.1,23c0,0.1,0,0.1,0.1,0.2c0,0,0-0.1-0.1-0.2c-12.1-26.1,20.1-35.3,20.1-35.3s306.7-119,359.6-131.8
		c-8.3-6.7-21.8-10.6-40.3-11.7c-2.1,0.8-358.2,136.3-358.2,136.3c-0.2,0-15.4,4.5-20.1,14.2c-0.9,1.8-1.3,3.7-1.3,5.7
		c0,2,0.4,4.1,1.3,6.3c9,22.5,202.8,476.9,210.3,494.6c2.8,2.9,49,49.9,151.9,65.2c110.2,16.4,331.3-14.3,358.7-98.3
		c-22.4,19.1-105.5,78.2-277.6,78.2c0,0,215.4-11.8,281.2-94.6c9-53.1,13.3-135.9,13.3-205.4c0-44.7-1.8-83.8-5.1-106.1
		c-10.3,33.5-71.7,83.5-186,120.4c-130.2,42-331.8,38.5-367.9,37.5l1.4-9.2c38.7,1,236.2,4.1,363.7-37
		c111.1-35.8,171.3-84.6,180.2-114.7c1.9-6.4,1.3-11.6-1.8-15.4l2.3-1.8c-26-9-215.4-19.8-343.2-25.2c2.4,8.1,5.1,16.2,8,24.2
		c116.2,2.3,257.9,26.1,257.9,26.1l-248.5-3c5.4,12,11.5,23.6,18.4,34.6C1124.3,900.7,1259.5,896.2,1260.9,896.2z M1334.8,969.5
		c2.7-2.9,11.4-11.7,19.1-11.3c1-0.1,2.1,0,3.1,0.3c2.5,0.7,7,2.7,8.3,8.5c3.1,14,5.7,171.4,5.7,189.3v0.6l-2.7,0.6
		c-0.3,1.3-4.5,12.4-12.5,16.6c-1.8,1-4.1,1.5-6.4,1.6c-2.3,0.1-4.7-0.2-6.7-1l-2.9-1.1l-6.3-202.6L1334.8,969.5z M1274.1,993.2
		c1.5-2.3,15-21.7,27.5-15.5l2.4,1.2l9.4,200.5c0,1.5-0.3,15-9.5,20.4c-5.8,3.4-13.2,2.6-22.1-2.4l-2.3-1.3l-6.3-201.7L1274.1,993.2
		z M874.1,1053.6l6.3,0.1c0.2,0,1.2,0,3,0c34.5,0,259.1-2.1,338.6-50.3l9.9-4.2v217.8l-6.2,0.9c-3.6,1-53.9,14.5-115.7,14.5
		c-48.1,0-103.1-8-148.4-36.3c-46.5-29-75.9-75.1-87.3-136.9l-1-5.5H874.1L874.1,1053.6z M912.2,1181
		c46.3,66.4,168.2,78.7,168.2,78.7c-145.1,4.6-183.7-75.6-183.7-75.6L713,741.1c-1.5-10.8,6.2-4.6,6.2-4.6S865.9,1114.6,912.2,1181z
		"/>
	<path fill="none" d="M374.3,1089.4c-2.6,0.4-5.2,0.9-7.8,1.5C369,1090.3,371.6,1089.8,374.3,1089.4z"/>
	<path fill="none" d="M362,1092.1c-1,0.3-2,0.6-2.9,1C360,1092.8,361,1092.4,362,1092.1z"/>
	<path fill="none" d="M365,1091.3c-1,0.3-2,0.5-3,0.9C363,1091.8,363.9,1091.5,365,1091.3z"/>
	<path fill="none" d="M282.3,370.3c-1.5,0-3-0.1-4.5-0.2c0,0,0,0,0,0C279.3,370.2,280.8,370.3,282.3,370.3z"/>
	<path fill="none" d="M464.5,866.1c-38.8,0-72.2-23.5-87.8-57.2c-14-16.3-20.2-37-13.9-58.6c-6.3,21.6-0.2,42.3,13.8,58.6
		C392.2,842.6,425.6,866.1,464.5,866.1C464.5,866.1,464.5,866.1,464.5,866.1z"/>
	<path fill="none" d="M561,737.5c0.1-3.8,0-6.3,0-7.3c0,1.7,0.1,6.8-1.9,13.4c0.1,0.2,0.1,0.5,0.2,0.7
		C560,741.7,560.6,739.4,561,737.5z"/>
	<path fill="none" d="M185,912c7.1-27.6,10.7-50.3,10.7-68c0-19.1-4.1-32.4-12.4-39.8c-4.7-4.2-10.6-6.3-17.4-6.4
		c6.9,0,12.7,2.2,17.4,6.4c8.3,7.4,12.4,20.7,12.4,39.8C195.7,861.7,192.2,884.4,185,912c-3.2,12.4-4.6,24.2-4.6,35.3
		c0,12.8,1.8,24.5,4.6,35.1c-2.8-10.6-4.6-22.4-4.6-35.1C180.4,936.2,181.8,924.4,185,912z"/>
	<path fill="none" d="M374.8,1023.2L270.3,851.4c-0.8-2.4-82.3-238.6,96.2-396.3c59.5-52.6,145.1-87.3,236.5-100.3
		c17-2.4,34.1-4.2,51.4-5.1c7-0.4,14-0.5,21-0.6c-3.1-9.3-8.7-20.6-19.4-31c-19.8-19.3-50.3-29.2-90.6-29.4
		c40.3,0.3,70.7,10.2,90.5,29.4c10.7,10.3,16.3,21.7,19.4,31c-7,0.1-14,0.2-21,0.6c-17.3,0.9-34.4,2.7-51.4,5.1
		c-91.4,13-176.9,47.8-236.5,100.3C188,612.8,269.5,849.1,270.3,851.4L374.8,1023.2l9.6,15.9l26.5,43.6c-8.8,3.2-18,4.4-27.2,5.5
		c-3.2,0.4-6.4,0.8-9.5,1.3c3.2-0.5,6.4-0.9,9.5-1.3c9.1-1.1,18.4-2.4,27.2-5.5l-26.5-43.6L374.8,1023.2z"/>
	<path d="M1407.8,821.6c-18.2-13.6-248.3-24.7-358-29.2c-16.2-61.4-18.5-119.9-18.8-140.6c13.4-4.8,25.4-9.1,35.5-12.8
		c8.5-0.4,20-3.4,29.5-10.6c2.4-0.9,3.7-1.3,3.7-1.3c1.9-0.7,3.6-2,4.7-3.8c0.6-0.9,10.4-16.8,10.4-34.8c0-6.3-1.2-12.8-4.4-19
		c-8.6-16.6-28.7-25.9-59.7-27.6c-0.5,0-1,0.2-1.5,0.2c-42.3-92-129.3-157.5-246.9-184.6c-16.7-3.8-33.7-6.7-50.8-8.8
		c0.1-4.7-0.6-39.3-28.7-68.9c-25.3-26.7-64.4-40.8-116.2-42c-131.4-2.9-168.5-48.4-168.8-48.9c-2.6-3.3-7-4.5-10.9-2.9
		c-3.8,1.6-6.2,5.6-5.6,9.7c0.5,3.6,7.7,56,32.4,98.5c-31,10.1-59.8,22.7-85.5,33.9c-40.9,17.9-76.2,33.3-95.5,27.3
		c-3-0.9-6.3-0.3-8.7,1.7c-2.4,2-3.6,5.1-3.2,8.3c0.2,1.3,4.7,32.8,55.5,32.8c9.3,0,12.9,2,13.5,2.7c-0.1,3.5-14.2,17.2-38.8,18.9
		c-48.9,3.5-146.9,53.8-159.8,137.5c-0.6,3.8,1.3,7.6,4.7,9.5c3.4,1.9,7.6,1.4,10.6-1.1c0.2-0.2,22-18.8,42.2-16.3
		c2.2,0.3,3,1,3.5,3c3.1,12.4-12.9,45-57.1,75.9c-38.1,26.7-53.5,86.9-55.2,134.3C77.9,816,91.8,861.3,116,881
		c3.1,2.5,7.4,2.8,10.7,0.7c3.4-2.1,5-6.1,4.1-10c-0.4-1.8-9.9-44.8,22.1-57.2c9.8-3.8,16.9-3.8,21.1,0c4.2,3.7,16.3,21.5-2.5,94
		c-22.7,87.6,37.1,145.5,39.6,148c3.3,3.1,8.3,3.4,11.9,0.7c3.6-2.7,4.7-7.6,2.7-11.7c-6-11.6-19.9-46.5-11.9-67.4
		c2.8-7.3,8.1-12.3,16.2-15.4c8.9-3.4,15.5-3.7,19.5-1.1c11.3,7.4,13.1,39.8,15.1,77.3l2.3,36.2c6.6,85.9,86.4,106.9,87.2,107.1
		c4.1,1,8.4-0.9,10.4-4.6c0.7-1.4,1.1-2.9,1.1-4.4c0-2.5-1-5-3-6.8c-0.8-0.7-15.2-14.2-15.2-32.6c0-5.6,1.3-11.6,4.8-17.9
		c5.6-10.2,15.7-11.9,33.2-14c8.9-1.1,18.7-2.3,28.4-5.5l47.3,77.8c1.3,2.2,3.6,3.6,6,4.1c2.4,0.6,5.1,0,7.2-1.4
		c0.2-0.1,17-10.8,61.7,1.4c14.5,4,31.8,11.8,51.8,20.8c48.1,21.7,108.1,48.8,173.8,42c51.7-5.3,78.7-33.5,92.9-58.7
		c8.7,20.5,14.5,33.9,15.7,36.9c0.4,0.9,1,1.8,1.7,2.6c2,2.2,49.8,53.6,160.6,70.1c105,15.6,355.9-12.1,376.3-116.2
		C1425.1,1093.3,1434.4,841.5,1407.8,821.6z M113,873.8L113,873.8C113,873.8,113,873.8,113,873.8C113,873.9,113,873.8,113,873.8z
		 M113,874.5c0,0.2,0,0.5,0.1,0.7C113.1,875,113.1,874.7,113,874.5z M1404.5,1174.9c-19.8,101.4-267.4,127.9-371,112.5
		c-109.2-16.3-155.9-66.5-157.9-68.6l-0.5-0.6l-0.3-0.7c-0.4-0.9-7.8-18.2-19.6-45.9c-12,25.9-38.1,59.2-93.8,64.9
		c-64.5,6.6-123.8-20.1-171.5-41.6c-20.2-9.1-37.6-17-52.5-21c-47.5-12.9-65.3-0.8-65.5-0.7c-1.1,0.7-2.4,1-3.6,0.8
		c-1.3-0.3-2.4-1-3-2.1l-49.4-81.2c-10.4,4.1-21.2,5.6-30.9,6.8c-16.6,2-29.7,3.6-36.7,16.4c-3.9,7.1-5.4,13.9-5.4,20.2
		c0,20.4,15.9,35.1,16.7,35.9c1,0.9,1.5,2.2,1.5,3.4c0,0.7-0.2,1.5-0.5,2.2c-1,1.9-3.2,2.8-5.2,2.3c-0.8-0.2-77.4-20.3-83.8-102.9
		l-2.3-36.1c-2.2-40.4-4-72.3-17.2-80.9c-5.4-3.5-13.1-3.3-23.7,0.7c-9.4,3.5-15.6,9.4-18.9,18.1c-10.5,27.2,11.9,70.7,12.1,71.2
		c1.1,2,0.5,4.5-1.3,5.8c-1.8,1.4-4.3,1.2-6-0.3c-0.6-0.6-60.4-58.4-38.4-143.4c18.2-70.4,8.5-91.9,1.1-98.6
		c-5.6-5-14.3-5.3-25.8-0.9c-35.8,13.8-25.4,60.6-24.9,62.5c0.4,1.9-0.4,3.9-2.1,5c-1.7,1-3.8,0.9-5.4-0.3
		C95.8,858.6,82.6,814.8,84.5,763c1.7-46.3,16.5-105,53.3-130.7c46.4-32.5,62.4-66.8,58.9-80.8c-1-3.9-3.3-6-7.4-6.5
		c-22.3-2.8-45.5,17.2-45.8,17.4c-1.5,1.3-3.6,1.5-5.3,0.6c-1.7-0.9-2.6-2.8-2.4-4.8c12.5-81.3,107.9-130.2,155.5-133.6
		c26.7-1.9,43.2-17,43-24.2c-0.1-4.1-7-6.7-17.9-6.7c-46.8,0-50.8-27.6-50.9-28.8c-0.2-1.5,0.4-3.1,1.6-4.1c1.2-1,2.8-1.3,4.4-0.9
		c20.9,6.5,57-9.2,98.8-27.5c27.1-11.8,57.7-25.1,90.6-35.5c-26.6-42.3-34.3-98.1-34.7-101.8c-0.3-2.1,0.9-4.1,2.8-4.9
		c1.9-0.8,4.2-0.2,5.4,1.5c0.4,0.5,38,47.7,172.4,50.7c50.5,1.1,88.5,14.8,112.9,40.5c28.2,29.8,27.5,64.7,27.4,66.1
		c0,1.4-0.7,2.6-1.7,3.4c18.9,2.2,37.7,5.3,56.1,9.5c117.6,27.2,204.4,93,245.5,185.5l1.8-0.7l0.9-0.3l1,0.1c29.3,1.6,48,10,55.8,25
		c2.8,5.5,3.9,11.3,3.9,16.9c0,16.5-9.2,31.4-9.7,32.2l-0.9,1.4c0,0-2.3,0.8-6.1,2.2c-9,7.1-20.1,9.8-28,10.1
		c-9.9,3.6-21.6,7.8-34.6,12.4c0-1.9,0-3.1,0-3.1l-4.9,4.8c-3,1.1-6,2.2-9.1,3.3c-0.5,2.3-1,4.5-1.3,7c0,0-9.3,0.7-8.7-3.4
		c-100,36-245.7,88.5-251.5,90.6c3.5,8.5,82.9,202.9,85,208.1c61.7,3.8,117.4,3,167.1-0.3c21.7-1.4,42.2-3.3,61.4-5.6l47.3-6.6
		c0.9-2.3,1.1-5.2,0.4-8.6c6.8,3.6,14.8,5.3,23.8,2.5c8.9-2.8,15.6-6.1,20.9-9.5c22.6-1.2,48.5-18.3,48.5-18.3l-13.9-1.5
		l-101.8-10.7c-1.6-2.4-3.2-4.8-4.7-7.2c-6.9-11-13-22.6-18.4-34.6l248.5,3c0,0-141.6-23.8-257.9-26.1c-2.9-8-5.6-16.1-8-24.2
		c-0.9-3.1-1.8-6.3-2.7-9.4c78,3.3,336.3,15,353.9,28.2C1427.8,842.4,1421.3,1088.7,1404.5,1174.9z"/>
	<path d="M1136.4,947.7c1-0.1,1.7-0.3,2.2-0.4C1137.9,947.4,1137.2,947.5,1136.4,947.7z"/>
	<path enable-background="new    " d="M1246.5,910.9l6-5.2c-11.2,0.3-32.4,0.7-56.3,0.6l13.9,1.5c0,0-25.9,17.1-48.5,18.3
		c-5.3,3.4-12,6.7-20.9,9.5c-9.1,2.8-17,1.1-23.8-2.5c0.7,3.4,0.5,6.3-0.4,8.6C1174.9,932.1,1218.8,920,1246.5,910.9z"/>
	<path d="M738.8,351.9c-0.5-0.6-0.8-1.3-0.9-2l-7.5,1.4C733.2,351.4,736,351.6,738.8,351.9z"/>
	<path fill="#AB5153" enable-background="new    " d="M557,279.5c47-1.1,82.6,9.7,105.6,32.1c13,12.7,19.4,26.6,22.6,37.3
		c15.1,0.1,30.2,0.9,45.3,2.2l7.5-1.4c-0.1-0.3-0.2-0.5-0.2-0.8c0,0,0-0.2,0-0.4c0-3.2-0.7-33.7-25.1-59.3
		c-22.7-23.8-58.4-36.4-106.3-37.5c-102-2.3-149.8-29.1-168.9-44.2c4,19.8,13.6,57.3,32.7,86.6C497.9,286.1,527,280.3,557,279.5z
		 M736.2,349l-37.1-3.1c0,0-23.2-55.6-84.9-67.9c-61.7-12.3-61.7-12.3-61.7-12.3S680.6,234.8,736.2,349z"/>
	<path fill="#AB5153" enable-background="new    " d="M411,1082.6l-26.5-43.6c-47.2,4.5-78.9,52.4-78.9,52.4s0,0-4.6-17
		c-4.6-17,12.4-81.8-12.3-131.2c-24.7-49.4-81.8-32.4-81.8-32.4s1.5-7.7,17-57.1c15.4-49.4-27.8-137.4-47.8-135.8
		c-20.1,1.5-55.6,40.1-55.6,40.1s4.6-67.9,63.3-117.3C242.3,591.3,250,542,250,514.2c0-27.8-34-23.2-34-23.2
		c13.9-21.6,67.9-34,117.3-50.9c49.4-17,75.6-57.1,75.6-57.1l-27.8-12.3c0,0,58.7-7.7,111.1-32.4c52.5-24.7,159,7.7,159,7.7l3.1,3.8
		c7-0.4,14-0.5,21-0.6c-3.1-9.3-8.7-20.6-19.4-31c-19.8-19.3-50.3-29.2-90.5-29.4c-2.7,0-5.4,0-8.1,0.1
		c-67.8,1.7-131.8,29.7-183.3,52.2c-37.7,16.5-68.4,29.7-91.7,29.3c-1.5,0-3-0.1-4.5-0.2c4.1,6.1,14.5,14.4,39.2,14.4
		c24.1,0,27.9,10.9,27.9,15.6c0,0.2,0,0.3,0,0.5c0,14.1-22.5,31.2-52.3,33.3c-41.3,3-124.5,45.4-143.7,113.3
		c8.8-5.5,21.8-11.6,35.5-11.7c2,0,4,0.1,6.1,0.3c7.8,1,13.3,5.9,15.2,13.5c0.5,1.9,0.7,4.1,0.7,6.3c0,20.8-20.4,54.3-63.3,84.3
		c-28,19.6-47.3,68-49.3,123.4c-0.1,3.2-0.2,6.3-0.2,9.4c0,37,8.3,67.8,22.1,86.6c0-1-0.1-2-0.1-3.1c0-18,5.1-44.2,32.4-54.7
		c6.6-2.5,12.5-3.8,17.9-3.8c6.9,0,12.7,2.2,17.4,6.4c8.3,7.4,12.4,20.7,12.4,39.8c0,17.7-3.6,40.4-10.7,68
		c-3.2,12.4-4.6,24.2-4.6,35.3c0,12.8,1.8,24.5,4.6,35.1c1.7,6.5,3.9,12.6,6.2,18.3c0.9,2.1,1.8,4.2,2.7,6.2c0.3,0.7,0.6,1.3,0.9,2
		c0.6,1.3,1.3,2.6,1.9,3.8c0.3,0.6,0.6,1.2,1,1.8c0.7,1.2,1.3,2.4,2,3.5c0.7,1.1,1.3,2.3,2,3.3c-2.4-8.8-4.3-18.5-4.3-28
		c0-7,1-13.9,3.4-20.2c4.3-11.1,12.4-19,24.3-23.4c13.5-5.1,24-5,32,0.2c17.2,11.2,19,43.5,21.4,88.2l2.3,35.9
		c4.2,54.8,40.6,79.2,61.8,88.9c-4.6-7.5-9-17.6-9-29.4c0-7.6,1.8-15.8,6.4-24.3c2-3.7,4.4-6.7,7.2-9.2c0.8-0.7,1.6-1.4,2.4-2
		c0.4-0.3,0.8-0.6,1.3-0.9c0.8-0.6,1.7-1.1,2.6-1.6s1.8-1,2.7-1.4c0.9-0.4,1.9-0.8,2.8-1.2s1.9-0.7,2.9-1s2-0.6,3-0.9
		c0.5-0.1,1-0.3,1.5-0.4c2.5-0.6,5.2-1.1,7.8-1.5c3.2-0.5,6.4-0.9,9.5-1.3C392.9,1087,402.2,1085.8,411,1082.6z"/>
	<path fill="#FEAE5C" d="M492.3,338.2c-52.5,24.7-111.1,32.4-111.1,32.4L409,383c0,0-26.2,40.1-75.6,57.1
		c-49.4,17-103.4,29.3-117.3,50.9c0,0,34-4.6,34,23.2c0,27.8-7.7,77.2-66.4,126.6C125,690.1,120.3,758,120.3,758
		s35.5-38.6,55.6-40.1c20.1-1.5,63.3,86.4,47.8,135.8c-15.4,49.4-17,57.1-17,57.1s57.1-17,81.8,32.4c24.7,49.4,7.7,114.2,12.3,131.2
		c4.6,17,4.6,17,4.6,17s31.7-47.9,78.9-52.4l-9.6-15.9c-22.5,4.6-56.1,14.3-56.1,14.3s7-49.8-6.9-99.6
		c-13.9-49.8-70.6-74.1-70.6-74.1s4.6-64.8-3.5-114.6c-6.7-41.2-22.9-55.4-28.3-59.1c-10.4,2-19.6,3.7-25,4.7
		c-19.7,3.5,13.9-24.3,13.9-24.3s60.2-63.7,72.9-112.3c12.7-48.6-8.1-71.8-8.1-71.8s123.9-50.9,148.2-82.2
		c24.3-31.3,3.5-30.1,3.5-30.1s111.9-44,188.3-19.3c17-2.4,34.1-4.2,51.4-5.1l-3.1-3.8C651.3,345.9,544.8,313.5,492.3,338.2z"/>
	<path fill="#FFFFFE" d="M414.8,374.1c0,0,20.8-1.2-3.5,30.1c-24.3,31.3-148.2,82.2-148.2,82.2s20.8,23.2,8.1,71.8
		c-12.7,48.6-72.9,112.3-72.9,112.3s-33.6,27.8-13.9,24.3c5.4-0.9,14.5-2.7,25-4.7c5.4,3.7,21.6,17.9,28.3,59.1
		c8.1,49.8,3.5,114.6,3.5,114.6s56.7,24.3,70.6,74.1c13.9,49.8,6.9,99.6,6.9,99.6s33.6-9.7,56.1-14.3L270.3,851.4
		c-0.8-2.4-82.3-238.6,96.2-396.3c59.5-52.6,145.1-87.3,236.5-100.3C526.7,330.1,414.8,374.1,414.8,374.1z"/>
	<path fill="#0193D7" enable-background="new    " d="M467.6,1106.9c29.3,13.9,180.6,58.7,233.1-17c45.7-65.8,28.2-194.8,22.9-227.1
		C692,788.4,667.1,729.7,664,721.9c-2.8-6.9-2.7-13.5,0.3-19.6c6.6-13.4,25.1-18.8,25.5-18.9l348.5-132.7
		c-40-89.5-124.5-153.3-239-179.7c-151-34.9-326.5,2.5-426.6,91C282,542.2,260.2,643.3,260.2,721.8c0,71.9,18.2,124.9,18.4,125.6
		c0,0,98.8,162.3,154.8,254.2C437.6,1099.5,447.4,1097.3,467.6,1106.9z M834.2,412.3c161.2,64.8,121.5,129.7,74.4,134.3
		c-47.1,4.6-148.8-127.3-411.7-122.7C497,423.9,673,347.5,834.2,412.3z M358,766.5c0-60,47.8-108.8,106.5-108.8
		c58.7,0,106.5,48.8,106.5,108.8c0,11.2-1.7,21.9-4.7,32.1c2.1-4.1,3.2-6.6,3.2-6.6c-17,67.9-12.4,157.5-12.4,157.5s0,0-18.5-17
		c-14.1-13-63.4-43.9-85.8-57.8C399.6,868.7,358,822.5,358,766.5z"/>
	<path fill="#0193D7" enable-background="new    " d="M645.1,1167.1c-134.8-47.3-169.6-9.4-173.9-3.8c8.4-3.7,29.1-9.1,68.6,1.7
		c15.6,4.2,33.3,12.2,53.9,21.5c46.6,21,104.6,47.2,166.7,40.9c57.8-5.9,80.8-42.8,89.8-67.1c-0.3-0.7-0.6-1.3-0.9-2
		C833.6,1170.6,769.5,1210.7,645.1,1167.1z"/>
	<path fill="#FFFFFE" enable-background="new    " d="M1222.1,1003.4c-79.6,48.2-304.1,50.3-338.6,50.3
		C912.6,1053.7,1141.4,1052.2,1222.1,1003.4z"/>
	<path fill="#FFFFFE" enable-background="new    " d="M874.4,1059.1c11.4,61.8,40.8,107.9,87.3,136.9
		c45.4,28.3,100.4,36.4,148.4,36.3c-48,0-102.9-8-148.3-36.3c-46.5-29-75.7-75.1-87.1-136.9l-0.7-5.5l-0.7,0L874.4,1059.1z"/>
	<path fill="#FFFFFE" enable-background="new    " d="M1342.7,1174.5c2.1,0.8,4.4,1.1,6.7,1
		C1347.2,1175.6,1344.8,1175.3,1342.7,1174.5l-2.7-1.1l-6.2-202.6l1.6-1.4c2.5-2.7,11-10.8,18.5-11.3c-7.7-0.4-16.5,8.4-19.1,11.3
		l-1.3,1.4l6.3,202.6L1342.7,1174.5z"/>
	<path fill="#FFFFFE" enable-background="new    " d="M896.7,1085.4l-5.5-0.7c13.7,45.4,39.5,80.3,76.5,103.4
		c92.1,57.5,226.4,27.2,251.4,21.6c0-6.7,0-181,0-194.9c-38,16.2-77.3,27-125.4,34.1c-3.2,4.1-7.5,8.1-11.5,11.9
		C1043.6,1096.8,939.6,1090,896.7,1085.4z"/>
	<path fill="#FFFFFE" enable-background="new    " d="M888.4,1075.2l8.9,1c32.5,3.5,141.6,12.2,178.3-22.1c1.1-1,2-2.1,3-3.1
		c-83.4,11.1-169.9,12-193.7,11.9c0.9,4.2,2,8.2,3,12.2C888.2,1075.1,888.4,1075.2,888.4,1075.2z"/>
	<path fill="#FFFFFE" enable-background="new    " d="M1299.3,1191.8c3.9-2.3,4.9-9.9,4.9-12.2c0,0-8.7-185.7-9.1-193.5
		c-3.7,1-9,6.2-12.5,11.1c0.1,3.2,5.9,187.7,6,193.1C1292.3,1192.1,1296.5,1193.5,1299.3,1191.8z"/>
	<path fill="#FFFFFE" enable-background="new    " d="M1350.2,1165.8c3.6-1.9,5.8-7.9,6.5-10.3c0-69.9-0.8-176.7-3-186.5
		c0,0-0.5-1.2-0.5-1.5c0-0.1,0-0.1,0-0.1c-1.6-0.2-6.5,3.2-10.4,7.1c0.1,4.1,5.8,184.1,6,191.5
		C1349.4,1166,1349.9,1165.9,1350.2,1165.8z"/>
	<path fill="#3E5164" d="M1405,825.3c-17.6-13.2-275.9-25-353.9-28.2c0.9,3.1,1.7,6.3,2.7,9.4c127.9,5.4,317.2,16.2,343.2,25.2
		l-2.3,1.8c3.1,3.8,3.7,9,1.8,15.4c-8.9,30.1-69.1,78.8-180.2,114.7c-127.5,41.1-325,38.1-363.7,37l-1.4,9.2
		c36.1,1,237.7,4.5,367.9-37.5c114.4-36.9,175.7-86.9,186-120.4c3.4,22.3,5.1,61.5,5.1,106.1c0,69.5-4.3,152.3-13.3,205.4
		c1.5-1.9,3-3.7,4.3-5.7l-1.5,16.2c0,0-2.1,2.2-6.4,5.9c-27.5,84-248.5,114.8-358.7,98.3c-102.9-15.3-149.1-62.3-151.9-65.2
		c-7.5-17.7-201.3-472-210.3-494.6c-0.9-2.2-1.3-4.3-1.3-6.3c0-2,0.4-3.9,1.3-5.7c4.7-9.7,20-14.2,20.1-14.2
		c0,0,356.1-135.6,358.2-136.3c18.5,1.1,32,5,40.3,11.7c4.2-1,7-1.4,7.7-1c9.3,6.2,3.1,20.1,3.1,20.1s-0.4,0.1-1.2,0.4
		c0,0.5,0.1,1,0.1,1.5c0,11.9-5.8,23-7.6,26c-3.2,1.1-350.2,126.1-350.2,126.1l90.9,222.5l2.9,0.2c123.8,7.8,224.8-2.1,299.4-15.6
		c0.7-0.1,1.5-0.3,2.2-0.4c37-6.8,67.3-14.5,90.6-21.3l17.3-15c-27.6,9.1-71.6,21.2-130.1,30.8l-47.3,6.6
		c-19.3,2.3-39.8,4.2-61.4,5.6c-49.8,3.3-105.5,4-167.1,0.3c-2.1-5.2-81.6-199.6-85-208.1c5.8-2.1,151.6-54.6,251.5-90.6
		c-0.6,4.2,8.7,3.4,8.7,3.4c0.3-2.5,0.9-4.7,1.3-7c3.1-1.1,6.1-2.2,9.1-3.3l4.9-4.8c0,0,0,1.1,0,3.1c13-4.7,24.6-8.9,34.6-12.4
		c7.9-0.2,19-3,28-10.1c3.8-1.4,6.1-2.2,6.1-2.2l0.9-1.4c0.5-0.8,9.7-15.7,9.7-32.2c0-5.6-1.1-11.4-3.9-16.9
		c-7.8-15-26.6-23.5-55.8-25l-1-0.1l-0.9,0.3l-1.8,0.7c-41.1-92.5-127.8-158.3-245.5-185.5c-18.4-4.2-37.2-7.4-56.1-9.5
		c1-0.8,1.7-2,1.7-3.4c0-1.5,0.8-36.3-27.4-66.1c-24.4-25.8-62.4-39.4-112.9-40.5c-134.4-3-172-50.2-172.4-50.7
		c-1.3-1.7-3.5-2.3-5.4-1.5c-1.9,0.8-3.1,2.8-2.8,4.9c0.5,3.7,8.1,59.5,34.7,101.8c-32.9,10.3-63.4,23.6-90.6,35.5
		c-41.8,18.3-77.8,34.1-98.8,27.5c-1.5-0.5-3.1-0.2-4.4,0.9c-1.2,1-1.8,2.6-1.6,4.1c0.1,1.2,4.1,28.8,50.9,28.8
		c10.9,0,17.8,2.6,17.9,6.7c0.3,7.2-16.3,22.3-43,24.2c-47.6,3.4-143,52.3-155.5,133.6c-0.3,1.9,0.7,3.8,2.4,4.8
		c1.7,0.9,3.8,0.7,5.3-0.6c0.2-0.2,23.5-20.2,45.8-17.4c4.1,0.5,6.4,2.6,7.4,6.5c3.5,14-12.5,48.4-58.9,80.8
		C101,658,86.1,716.7,84.5,763c-1.9,51.8,11.3,95.6,34.5,114.4c1.5,1.3,3.7,1.4,5.4,0.3c1.7-1.1,2.5-3.1,2.1-5
		c-0.5-2-10.9-48.7,24.9-62.5c11.5-4.4,20.2-4.1,25.8,0.9c7.4,6.6,17.2,28.2-1.1,98.6c-22,85,37.7,142.9,38.4,143.4
		c1.6,1.6,4.2,1.7,6,0.3c1.8-1.4,2.4-3.8,1.3-5.8c-0.2-0.4-22.5-44-12.1-71.2c3.3-8.6,9.5-14.5,18.9-18.1c10.5-4,18.3-4.2,23.7-0.7
		c13.2,8.7,15,40.6,17.2,80.9l2.3,36.1c6.4,82.6,83,102.7,83.8,102.9c2,0.5,4.2-0.5,5.2-2.3c0.4-0.7,0.5-1.4,0.5-2.2
		c0-1.3-0.5-2.5-1.5-3.4c-0.9-0.8-16.7-15.5-16.7-35.9c0-6.3,1.5-13.1,5.4-20.2c7-12.8,20.1-14.4,36.7-16.4
		c9.7-1.2,20.5-2.6,30.9-6.8l49.4,81.2c0.7,1.1,1.8,1.9,3,2.1c1.3,0.2,2.6,0,3.6-0.8c0.2-0.1,18.1-12.2,65.5,0.7
		c14.9,4.1,32.3,11.9,52.5,21c47.6,21.5,106.9,48.2,171.5,41.6c55.7-5.7,81.8-39,93.8-64.9c11.8,27.7,19.2,45,19.6,45.9l0.3,0.7
		l0.5,0.6c1.9,2.1,48.7,52.3,157.9,68.6c103.6,15.4,351.2-11.1,371-112.5C1421.3,1088.7,1427.8,842.4,1405,825.3z M437.6,207.6
		c19.1,15.1,66.9,41.9,168.9,44.2c47.8,1.1,83.6,13.7,106.3,37.5c24.4,25.6,25.1,56.1,25.1,59.3c0,0.2,0,0.4,0,0.4
		c0,0.3,0.1,0.5,0.2,0.8c0.1,0.8,0.4,1.5,0.9,2c-2.8-0.3-5.6-0.4-8.4-0.7c-15-1.3-30.1-2.1-45.3-2.2c-3.2-10.8-9.6-24.7-22.6-37.3
		c-23-22.5-58.5-33.3-105.6-32.1c-30,0.7-59.1,6.6-86.7,14.7C451.2,264.9,441.6,227.4,437.6,207.6z M383.8,1088.1
		c-3.2,0.4-6.4,0.8-9.5,1.3c-2.6,0.4-5.2,0.9-7.8,1.5c-0.5,0.1-1,0.2-1.5,0.4c-1,0.3-2,0.5-3,0.9c-1,0.3-2,0.6-2.9,1
		s-1.9,0.8-2.8,1.2c-0.9,0.4-1.8,0.9-2.7,1.4s-1.8,1-2.6,1.6c-0.4,0.3-0.8,0.6-1.3,0.9c-0.8,0.6-1.6,1.3-2.4,2
		c-2.7,2.4-5.1,5.4-7.2,9.2c-4.7,8.5-6.4,16.7-6.4,24.3c0,11.8,4.4,21.9,9,29.4c-21.2-9.7-57.6-34.1-61.8-88.9l-2.3-35.9
		c-2.5-44.7-4.2-77-21.4-88.2c-8-5.2-18.5-5.3-32-0.2c-11.8,4.5-20,12.3-24.3,23.4c-2.4,6.3-3.4,13.2-3.4,20.2
		c0,9.6,1.9,19.3,4.3,28c-0.7-1.1-1.3-2.2-2-3.3c-0.7-1.1-1.3-2.3-2-3.5c-0.3-0.6-0.7-1.2-1-1.8c-0.6-1.2-1.3-2.5-1.9-3.8
		c-0.3-0.6-0.6-1.3-0.9-2c-0.9-2-1.9-4-2.7-6.2c-2.4-5.6-4.5-11.8-6.2-18.3c-2.8-10.6-4.6-22.4-4.6-35.1c0-11.1,1.4-22.9,4.6-35.3
		c7.1-27.6,10.7-50.3,10.7-68c0-19.1-4.1-32.4-12.4-39.8c-4.7-4.2-10.6-6.3-17.4-6.4c-5.3,0-11.3,1.2-17.9,3.8
		c-27.3,10.5-32.4,36.6-32.4,54.7c0,1.1,0.1,2,0.1,3.1c0,0,0,0,0,0c-13.8-18.8-22.1-49.6-22.1-86.6c0-3.1,0.1-6.3,0.2-9.4
		c2-55.4,21.3-103.9,49.3-123.4c42.9-30,63.3-63.5,63.3-84.3c0-2.3-0.2-4.4-0.7-6.3c-1.9-7.6-7.4-12.5-15.2-13.5
		c-2-0.2-3.9-0.3-5.9-0.3c-13.8,0.1-26.7,6.2-35.5,11.7c-0.1,0.1-0.3,0.2-0.4,0.3c19.1-68.1,102.8-110.6,144.2-113.6
		c29.8-2.1,52.3-19.2,52.3-33.3c0-0.2,0-0.3,0-0.5c0-4.7-3.9-15.6-27.9-15.6c-24.7,0-35.1-8.3-39.2-14.4c0,0,0,0,0,0
		c1.5,0.1,3,0.2,4.5,0.2c23.3,0.3,54-12.8,91.7-29.3c51.5-22.5,115.5-50.5,183.3-52.2c2.7-0.1,5.4-0.1,8.1-0.1
		c40.3,0.3,70.7,10.1,90.6,29.4c10.7,10.3,16.3,21.7,19.4,31c-7,0.1-14,0.2-21,0.6c-17.3,0.9-34.4,2.7-51.4,5.1
		c-91.4,13-176.9,47.8-236.5,100.3C188,612.8,269.5,849.1,270.3,851.4l104.5,171.7l9.6,15.9l26.5,43.6
		C402.2,1085.8,392.9,1087,383.8,1088.1z M850.3,1160.2c-9,24.3-32.1,61.2-89.8,67.1c-62.1,6.4-120.1-19.8-166.7-40.9
		c-20.6-9.3-38.3-17.3-53.9-21.5c-39.5-10.8-60.2-5.3-68.6-1.7c-0.3,0.4-0.5,0.7-0.5,0.7l-40.1-60.2c0,0,0.9-1,2.8-2.1
		c-56-92-154.8-254.2-154.8-254.2c-0.2-0.7-18.4-53.7-18.4-125.6c0-78.6,21.7-179.7,112.5-259.8c100.1-88.4,275.6-125.8,426.6-91
		c114.5,26.5,199,90.2,239,179.7L689.8,683.5c-0.4,0.1-18.9,5.5-25.5,18.9c-3,6.1-3.1,12.6-0.3,19.6c3.1,7.8,28,66.4,59.6,140.8
		c-0.8-4.8-1.3-7.5-1.3-7.5l131.2,299.5c0,0-1.5,1.4-4.1,3.4C849.7,1158.9,850,1159.5,850.3,1160.2z"/>
	<path fill="#3E5164" d="M1252.5,905.7l10.1-8.7c0,0,0.3-0.1,0.8-0.2c-0.3-0.1-0.7-0.3-1-0.4l-0.7-0.2l-0.7,0
		c-1.4,0.1-136.5,4.5-171.3-7.8c1.5,2.4,3.1,4.8,4.7,7.2l101.8,10.7C1220.1,906.4,1241.3,906,1252.5,905.7z"/>
	<path fill="#3E5164" d="M961.9,1196c45.3,28.3,100.3,36.4,148.3,36.3c61.8,0,112.1-13.5,115.7-14.5l6.2-0.9V999.1l-9.9,4.2
		c-80.7,48.9-309.5,50.3-338.6,50.3c-1.8,0-2.9,0-3,0l-6.3-0.1l0,0l0.7,5.5C886.2,1120.9,915.4,1167,961.9,1196z M1093.6,1049
		c48.1-7.1,87.4-17.9,125.4-34.1c0,13.9,0,188.2,0,194.9c-25,5.6-159.3,35.9-251.4-21.6c-37-23.1-62.8-58-76.5-103.4l5.5,0.7
		c43,4.6,147,11.4,185.5-24.6C1086.1,1057.2,1090.5,1053.1,1093.6,1049z M1078.7,1051c-1,1-1.9,2.1-3,3.1
		c-36.7,34.3-145.8,25.6-178.3,22.1l-8.9-1c0,0-0.3,0-0.4,0c-1-4.1-2.2-8-3-12.2C908.8,1062.9,995.3,1062.1,1078.7,1051z"/>
	<path fill="#3E5164" d="M1281.9,1197.3c8.9,5,16.3,5.8,22.1,2.4c9.2-5.4,9.5-18.9,9.5-20.4l-9.4-200.5l-2.4-1.2
		c-12.6-6.3-26,13.2-27.5,15.5l-0.8,1.2l6.3,201.7L1281.9,1197.3z M1295.2,986.1c0.4,7.8,9.1,193.5,9.1,193.5c0,2.3-1,9.9-4.9,12.2
		c-2.8,1.6-7,0.3-10.6-1.5c-0.2-5.4-5.9-190-6-193.1C1286.2,992.4,1291.4,987.1,1295.2,986.1z"/>
	<path fill="#3E5164" d="M1335.4,969.5l-1.6,1.4l6.2,202.6l2.8,1.1c2,0.8,4.4,1.1,6.7,1c2.3-0.1,4.6-0.6,6.4-1.6
		c8-4.2,12.2-15.3,12.5-16.6l2.7-0.6v-0.6c0-17.9-2.6-175.3-5.7-189.3c-1.3-5.8-5.8-7.8-8.3-8.5c-1-0.3-2-0.3-3.1-0.3
		C1346.4,958.7,1337.9,966.7,1335.4,969.5z M1353.3,967.4C1353.3,967.4,1353.3,967.4,1353.3,967.4c0,0.4,0.4,1.5,0.4,1.5
		c2.2,9.8,3,116.6,3,186.5c-0.7,2.4-2.9,8.4-6.5,10.3c-0.3,0.2-0.9,0.2-1.4,0.3c-0.2-7.4-5.9-187.4-6-191.5
		C1346.8,970.6,1351.7,967.2,1353.3,967.4z"/>
	<path fill="#FFFFFE" enable-background="new    " d="M491.4,838.3c-45.6,13.1-91.2-2.1-114.7-29.4c15.6,33.7,49,57.2,87.8,57.2
		c53.6,0,97.1-44.7,97.1-99.6c0-5.4-0.7-10.6-1.5-15.8C555.9,778.1,541.4,824,491.4,838.3z"/>
	<path fill="#FFFFFE" enable-background="new    " d="M484.1,794.3c52.9-7.7,69.7-33.4,75.1-50.1c-0.1-0.2-0.1-0.5-0.2-0.7
		c-0.1,0.2-0.1,0.5-0.2,0.7c-9.9-44.2-48.2-77.2-94.3-77.2c-50.2,0-91.6,39.1-96.7,89.1C381,770,420.1,803.6,484.1,794.3z"/>
	<path fill="#3E5164" d="M441.4,867.6l6.2-1.5c66.3,22.1,107.4-45.6,118.8-67.5c3.1-10.1,4.7-20.9,4.7-32.1
		c0-60-47.8-108.8-106.5-108.8c-58.7,0-106.5,48.8-106.5,108.8c0,55.9,41.5,102.1,94.8,108.1C445.9,870.4,441.4,867.6,441.4,867.6z
		 M376.6,808.9c-14-16.3-20.2-37-13.8-58.6c0,0,1.7,2.3,5.1,5.8c5.1-50,46.5-89.1,96.7-89.1c46.1,0,84.4,33.1,94.3,77.2
		c0.1-0.2,0.1-0.5,0.2-0.7c2-6.6,1.9-11.7,1.9-13.4c0-0.3,0-0.6,0-0.6s0,0.4,0,0.6c0,1,0.1,3.6,0,7.3c0.7-3.6,0.8-6.2,0.8-7.3
		c0,1.8,0,9.1-1.5,19.4c-0.1,0.4-0.1,0.8-0.2,1.2c0.8,5.1,1.5,10.4,1.5,15.8c0,54.9-43.5,99.5-97.1,99.6c0,0,0,0-0.1,0
		C425.6,866.1,392.2,842.6,376.6,808.9z"/>
	<path fill="#FEAE5C" d="M699.2,345.9l37.1,3.1c-55.6-114.2-183.7-83.3-183.7-83.3s0,0,61.7,12.3C676,290.3,699.2,345.9,699.2,345.9
		z"/>
	<path fill="#FFFFFF" d="M908.6,546.6c47.1-4.6,86.8-69.5-74.4-134.3C673,347.5,497,423.9,497,423.9
		C759.8,419.2,861.5,551.2,908.6,546.6z"/>
	<path fill="none" stroke="#000000" stroke-width="0" stroke-linecap="round" stroke-linejoin="round" d="M561,730.1
		c0-0.3,0-0.6,0-0.6"/>
	<path d="M376.7,808.9c23.5,27.3,69.1,42.5,114.7,29.4c50-14.3,64.5-60.2,68.7-87.6c0.1-0.4,0.1-0.8,0.2-1.2
		c1.5-10.3,1.5-17.6,1.5-19.4c0,1.1-0.1,3.8-0.8,7.3c-0.4,2-0.9,4.3-1.7,6.8c-5.4,16.7-22.2,42.4-75.1,50.1
		c-64,9.2-103.1-24.3-116.3-38.2c-3.3-3.5-5.1-5.8-5.1-5.8C356.4,771.9,362.6,792.6,376.7,808.9z"/>
	<path d="M722.3,855.3c0,0,0.5,2.7,1.3,7.5c5.3,32.3,22.8,161.3-22.9,227.1c-52.5,75.6-203.7,30.9-233.1,17
		c-20.2-9.6-30-7.4-34.2-5.2c-1.9,1-2.8,2.1-2.8,2.1l40.1,60.2c0,0,0.2-0.3,0.5-0.7c4.3-5.6,39.1-43.5,173.9,3.8
		c124.4,43.7,188.5,3.5,204.3-8.9c2.6-2.1,4.1-3.4,4.1-3.4L722.3,855.3z"/>
	<path fill="#717375" d="M711.4,734.7c0,0.1,0.1,0.2,0.1,0.2C711.5,734.8,711.5,734.8,711.4,734.7z"/>
	<path fill="#717375" d="M711.4,734.7c-0.6-1.7-4.3-14.3,20.1-23c25.4-9,348-117.5,369.3-124.6c0.7-0.2,1.2-0.4,1.2-0.4
		s6.2-13.9-3.1-20.1c-0.7-0.5-3.5,0-7.7,1c-52.9,12.8-359.6,131.8-359.6,131.8S699.3,708.6,711.4,734.7z"/>
	<path fill="#717375" d="M713,741.1l183.7,443c0,0,38.6,80.3,183.7,75.6c0,0-121.9-12.3-168.2-78.7
		c-46.3-66.4-192.9-444.5-192.9-444.5S711.5,730.3,713,741.1z"/>
	<path d="M1115.9,1258.1c172.1,0,255.2-59.1,277.6-78.2c4.3-3.7,6.4-5.9,6.4-5.9l1.5-16.2c-1.3,2-2.8,3.8-4.3,5.7
		C1331.3,1246.3,1115.9,1258.1,1115.9,1258.1z"/>
	<path d="M447.6,866.1l-6.2,1.5c0,0,4.5,2.7,11.4,7c22.5,13.9,71.7,44.8,85.8,57.8c18.5,17,18.5,17,18.5,17s-4.6-89.5,12.4-157.5
		c0,0-1.1,2.5-3.2,6.6C555,820.5,513.9,888.2,447.6,866.1z"/>
</g>
</svg>
