<?xml version="1.0" encoding="utf-8"?>
<!-- Generator: Adobe Illustrator 18.1.0, SVG Export Plug-In . SVG Version: 6.00 Build 0)  -->
<svg version="1.0" id="Layer_1" xmlns="http://www.w3.org/2000/svg" xmlns:xlink="http://www.w3.org/1999/xlink" x="0px" y="0px"
	 viewBox="0 0 150 150" enable-background="new 0 0 150 150" xml:space="preserve">
<g>
	<path fill="#FAA853" d="M147.6,57.4L119,14.4c-1.9,1.6-4.5,2.4-7.2,1.8c-2.6-0.5-4.7-2.2-5.9-4.4L24.8,66.1l83-42.8
		c0.9,2.3,2.8,4.2,5.3,5c2.6,0.8,5.3,0.4,7.3-1l22.8,44.1l1.7-1.1c-1.5-1.9-2.2-4.4-1.7-7C143.7,60.6,145.4,58.5,147.6,57.4z"/>
	<g>
		<path fill="#961D4A" d="M44.9,136l0.8-0.4L44.9,136C44.9,135.9,44.9,135.9,44.9,136z"/>
		<path fill="#961D4A" d="M138.7,79.6c0.9-1,2.1-1.8,3.4-2.3l-1.1-2.2l-0.9-1.7l-21-42.3c-2.1,1.4-4.8,1.8-7.3,0.9
			c-2.5-0.9-4.4-2.8-5.3-5.1L31.2,64.4l74.7-27.2c0.6,2.4,2.2,4.5,4.7,5.6c2.5,1.2,5.2,1.1,7.4-0.1l13.3,36.5l3.3,9.1l0.9,2.5
			l2.3-1.1c-0.5-0.8-0.8-1.6-1-2.5c-0.3-1.5-0.3-3.1,0.2-4.6C137.4,81.5,138,80.5,138.7,79.6z"/>
	</g>
	<g>
		<polygon fill="#BA3926" points="7.1,74.9 7.1,74.9 9,74.2 		"/>
		<path fill="#BA3926" d="M133.7,92l-0.1-0.2l-0.9-2.5l-3.2-8.8l-12.9-35.5c-2.2,1.1-4.9,1.2-7.4,0.1c-2.4-1.1-4.1-3.3-4.7-5.6
			L61.8,55h0L20.2,70.2L18,70.9l-2,0.7l-7,2.6l-1.9,0.7c1,2.1,1.1,4.6,0.2,7c0,0.1-0.1,0.2-0.1,0.3c-0.7,1.5-1.7,2.6-2.9,3.5
			c-0.6,0.4-1.2,0.7-1.8,0.9L20,135c2-0.7,4.4-0.7,6.5,0.3c2.4,1.1,4,3.2,4.6,5.5l13.8-5l0.8-0.3l82.8-30.1c-0.2-0.5-0.4-1-0.5-1.6
			c-0.4-1.8-0.3-3.8,0.6-5.6c0.3-0.7,0.7-1.3,1.2-1.9c1.2-1.4,2.8-2.4,4.5-2.8L133.7,92z M131.3,93.1c-0.1,0-0.2,0.1-0.3,0.1
			C131.2,93.1,131.2,93.1,131.3,93.1C131.3,93,131.3,93,131.3,93.1L131.3,93.1z M10.1,83.5c1-2.1,1.3-4.3,1-6.5l3.7-1.3l2.2-0.8
			l4.5-1.6l80-29.1c1.2,1.9,2.9,3.4,4.9,4.3c2.1,1,4.4,1.3,6.6,1l12.3,33.8L128,91c-1,0.6-1.8,1.3-2.6,2.2c-0.7,0.8-1.4,1.8-1.9,2.8
			c-0.2,0.4-0.3,0.7-0.4,1.1c-0.6,1.7-0.8,3.5-0.6,5.2l-37.1,13.5l-13.5,4.9l-5.8,2.1l-8.9,3.2l-11.6,4.2l-4.3,1.6l-9.2,3.4
			c-1.2-1.8-2.9-3.3-4.9-4.2c-1.8-0.8-3.7-1.2-5.7-1.1L6.4,88C8,86.8,9.2,85.3,10.1,83.5z M126.3,103.8c0,0,0-0.1,0-0.1
			C126.3,103.7,126.3,103.8,126.3,103.8c0.1,0.2,0.2,0.4,0.3,0.6C126.5,104.2,126.4,104,126.3,103.8z"/>
		<polygon fill="#BA3926" points="20.2,70.2 41.5,62.4 20.2,70.2 18,70.9 16,71.7 18,70.9 		"/>
	</g>
	<path fill="#E57D48" d="M123.7,84.4l-12-32.9c-2.1,0.1-4.2-0.4-6.2-1.3c-1.9-0.9-3.6-2.2-4.8-3.8l-2.2,0.8l0.2,0.4l-0.2,0.1
		l-0.2-0.4L21.6,75.2l-4.8,1.7l-1.3,0.5l0.2,0.4l-0.2,0.1l-0.2-0.4L15,77.6l-2,0.7c0,2.1-0.4,4.1-1.3,6c0,0-0.1,0.1-0.1,0.1
		c-0.3,0.6-0.6,1.1-1,1.7c-0.6,0.9-1.3,1.7-2.1,2.5L22.9,128c1.8,0.1,3.5,0.5,5.1,1.3c1.9,0.9,3.5,2.1,4.8,3.7l6-2.2l5-1.8l11.7-4.3
		l17-6.2l12.2-4.4l15.4-5.6l20.4-7.4c0-1,0.1-1.9,0.3-2.9c0.2-1,0.5-2,1-3c0.1-0.1,0.1-0.2,0.2-0.3c0.9-1.8,2.2-3.4,3.7-4.6
		L123.7,84.4z M116.1,95.5l-0.2,0.1l-0.4-1.2l0.2-0.1L116.1,95.5z M115.2,93.1l-0.2,0.1l-0.4-1.2l0.2-0.1L115.2,93.1z M113,87.1
		l0.4,1.2l-0.2,0.1l-0.4-1.2L113,87.1z M112.1,84.7l0.4,1.2l-0.2,0.1l-0.4-1.2L112.1,84.7z M111.3,82.3l0.4,1.2l-0.2,0.1l-0.4-1.2
		L111.3,82.3z M110.4,79.9l0.4,1.2l-0.2,0.1l-0.4-1.2L110.4,79.9z M109.5,77.6l0.4,1.2l-0.2,0.1l-0.4-1.2L109.5,77.6z M109.5,88.5
		l0.4,1.1l-29.2,10.6l-0.4-1.1L109.5,88.5z M76.3,89.9l-0.4-1.1l29.2-10.6l0.4,1.1L76.3,89.9z M108.7,75.2l0.4,1.2l-0.2,0.1
		l-0.4-1.2L108.7,75.2z M107.8,72.8l0.4,1.2L108,74l-0.4-1.2L107.8,72.8z M106.9,70.4l0.4,1.2l-0.2,0.1l-0.4-1.2L106.9,70.4z
		 M106.1,68l0.4,1.2l-0.2,0.1l-0.4-1.2L106.1,68z M105.2,65.6l0.4,1.2l-0.2,0.1l-0.4-1.2L105.2,65.6z M104.3,63.2l0.4,1.2l-0.2,0.1
		l-0.4-1.2L104.3,63.2z M103.4,60.8l0.4,1.2l-0.2,0.1l-0.4-1.2L103.4,60.8z M102.6,58.4l0.4,1.2l-0.2,0.1l-0.4-1.2L102.6,58.4z
		 M102.6,70.5L73.4,81.1l-0.4-1.1l29.2-10.6L102.6,70.5z M101.7,56l0.4,1.2l-0.2,0.1l-0.4-1.2L101.7,56z M100.8,53.6l0.4,1.2
		l-0.2,0.1l-0.4-1.2L100.8,53.6z M100,51.2l0.4,1.2l-0.2,0.1l-0.4-1.2L100,51.2z M99.1,48.8l0.4,1.2l-0.2,0.1l-0.4-1.2L99.1,48.8z
		 M59.4,96.2l-25.8,9.4l-3.4,1.2l-0.4-1.1l3.2-1.1l26-9.5L59.4,96.2z M33.3,126.9l0.2-0.1L34,128l-0.2,0.1L33.3,126.9z M34.2,129.3
		l0.2-0.1l0.4,1.2l-0.2,0.1L34.2,129.3z M33.1,125.6l-0.2,0.1l-0.4-1.2l0.2-0.1L33.1,125.6z M32.2,123.3l-0.2,0.1l-0.4-1.2l0.2-0.1
		L32.2,123.3z M31.4,120.9l-0.2,0.1l-0.4-1.2l0.2-0.1L31.4,120.9z M30.5,118.5l-0.2,0.1l-0.4-1.2l0.2-0.1l0,0l0.1,0.4L30.5,118.5z
		 M26.6,107.7l0.4,1.2l-0.2,0.1l-0.4-1.2L26.6,107.7z M26.1,106.5l-0.2,0.1l-0.4-1.2l0.2-0.1L26.1,106.5z M25.3,104.1l-0.2,0.1
		l-0.4-1.2l0.2-0.1L25.3,104.1z M24.4,101.7l-0.2,0.1l-0.4-1.2l0.2-0.1L24.4,101.7z M23.5,99.3l-0.2,0.1l-0.4-1.2l0.2-0.1L23.5,99.3
		z M22.7,96.9L22.5,97L22,95.8l0.2-0.1L22.7,96.9z M21.8,94.5l-0.2,0.1l-0.4-1.2l0.2-0.1L21.8,94.5z M20.9,92.1l-0.2,0.1L20.3,91
		l0.2-0.1L20.9,92.1z M20.1,89.8l-0.2,0.1l-0.4-1.2l0.2-0.1L20.1,89.8z M18.8,86.2l0.4,1.2L19,87.4l-0.4-1.2L18.8,86.2z M27.3,110.2
		l0.2-0.1l0.4,1.2l-0.2,0.1L27.3,110.2z M29.6,116.1l-0.2,0.1L29,115l0.2-0.1L29.6,116.1z M28.1,112.6l0.2-0.1l0.4,1.2l-0.2,0.1
		L28.1,112.6z M56.6,87.4L28.3,97.7l-1,0.4L27,97l0.7-0.3l28.5-10.4L56.6,87.4z M52.3,77.1l0.4,1.1L23.5,88.8l-0.4-1.1L52.3,77.1z
		 M17.9,83.8l0.4,1.2L18.1,85l-0.4-1.2L17.9,83.8z M17,81.4l0.4,1.2l-0.2,0.1l-0.4-1.2L17,81.4z M16.1,79L16.1,79l0.4,1.2l-0.2,0.1
		L16,79.3l-0.1-0.3L16.1,79z M40,115.1l-5.4,2l-0.4-1.1l5.1-1.9l24.1-8.8l0.4,1.1L40,115.1z M69.6,71.9l-0.4-1.1l29.2-10.6l0.4,1.1
		L69.6,71.9z M114.1,90.8l-0.4-1.2l0.2-0.1l0.4,1.2l0,0L114.1,90.8L114.1,90.8z M117.8,100.3l-0.2,0.1l-0.2-0.4l-0.3-0.8l0.2-0.1
		l0.3,0.7L117.8,100.3z M116.9,97.9l-0.2,0.1l-0.1-0.3l-0.3-0.9l0.2-0.1l0.3,0.9L116.9,97.9z"/>
	<g>
		<path fill="#333333" d="M3.9,85.6c0,0,0.1,0,0.1-0.1c0,0,0,0,0.1-0.1c0,0,0,0,0,0s0,0,0,0C4.1,85.5,4,85.6,3.9,85.6z"/>
		<path fill="#333333" d="M7,82.1c0,0.1-0.1,0.1-0.1,0.2c-0.1,0.3-0.3,0.5-0.4,0.7c0.2-0.2,0.3-0.5,0.4-0.7C7,82.2,7,82.2,7,82.1z"
			/>
		<path fill="#333333" d="M7.1,75.2c0.1,0.2,0.2,0.4,0.2,0.6l0,0c0,0,0,0,0,0C7.3,75.5,7.2,75.3,7.1,75.2z"/>
		<polygon fill="#333333" points="9,74.2 16,71.7 18,70.9 20.2,70.2 61.8,55 61.8,55 61.8,55 41.5,62.4 20.2,70.2 18,70.9 16,71.7 
			9,74.2 7.1,74.9 7,74.9 7,74.9 7.1,74.9 		"/>
		<path fill="#333333" d="M126.3,103.7c0,0,0,0.1,0,0.1c0.1,0.2,0.2,0.4,0.3,0.6c-0.1-0.2-0.2-0.4-0.2-0.6
			C126.3,103.8,126.3,103.7,126.3,103.7z"/>
		<path fill="#333333" d="M131.3,93C131.3,93,131.3,93,131.3,93c-0.1,0-0.2,0.1-0.3,0.1C131.1,93.1,131.2,93.1,131.3,93L131.3,93z"
			/>
		<path fill="#333333" d="M130.9,93.2c0,0,0.1,0,0.1-0.1c0,0,0,0,0.1,0c0,0,0,0-0.1,0C131,93.2,130.9,93.2,130.9,93.2z"/>
		<path fill="#333333" d="M113,49.5c-2.2,0.3-4.5,0-6.6-1c-2.1-1-3.8-2.5-4.9-4.3l-80,29.1l-4.5,1.6l-2.2,0.8L11.1,77
			c0.3,2.2-0.1,4.4-1,6.5C9.2,85.3,8,86.8,6.4,88l15.2,41.9c1.9-0.1,3.9,0.3,5.7,1.1c2,0.9,3.7,2.4,4.9,4.2l9.2-3.4l4.3-1.6
			l11.6-4.2l8.9-3.2l5.8-2.1l13.5-4.9l37.1-13.5c-0.2-1.8,0-3.5,0.6-5.2c0.1-0.4,0.3-0.7,0.4-1.1c0.5-1,1.1-2,1.9-2.8
			c0.8-0.8,1.6-1.6,2.6-2.2l-2.8-7.6L113,49.5z M122.1,94.9c-0.1,0.1-0.1,0.2-0.2,0.3c-0.4,1-0.8,2-1,3c-0.2,0.9-0.3,1.9-0.3,2.9
			l-20.4,7.4l-15.4,5.6l-12.2,4.4l-17,6.2l-11.7,4.3l-5,1.8l-6,2.2c-1.3-1.6-2.9-2.8-4.8-3.7c-1.6-0.8-3.4-1.2-5.1-1.3L8.6,88.6
			c0.8-0.7,1.5-1.6,2.1-2.5c0.4-0.5,0.7-1.1,1-1.7c0,0,0.1-0.1,0.1-0.1c0.9-1.9,1.3-4,1.3-6l2-0.7l0.4-0.1l0.2,0.4l0.2-0.1l-0.2-0.4
			l1.3-0.5l4.8-1.7l76.7-27.9l0.2,0.4l0.2-0.1l-0.2-0.4l2.2-0.8c1.3,1.6,2.9,2.9,4.8,3.8c1.9,0.9,4,1.3,6.2,1.3l12,32.9l2.1,5.8
			C124.2,91.5,123,93.1,122.1,94.9z"/>
		
			<rect x="33.9" y="129.8" transform="matrix(-0.3408 -0.9401 0.9401 -0.3408 -75.8033 206.5985)" fill="#333333" width="1.3" height="0.2"/>
		
			<rect x="33" y="127.4" transform="matrix(-0.3426 -0.9395 0.9395 -0.3426 -74.5746 202.7806)" fill="#333333" width="1.3" height="0.2"/>
		
			<rect x="32.2" y="125" transform="matrix(-0.343 -0.9394 0.9394 -0.343 -73.4678 198.787)" fill="#333333" width="1.3" height="0.2"/>
		<polygon fill="#333333" points="16.1,79 15.9,79.1 16,79.3 16.4,80.2 16.6,80.2 16.2,79 		"/>
		
			<rect x="30.4" y="120.2" transform="matrix(-0.3407 -0.9402 0.9402 -0.3407 -71.4774 190.4759)" fill="#333333" width="1.3" height="0.2"/>
		
			<rect x="31.3" y="122.6" transform="matrix(-0.341 -0.9401 0.9401 -0.341 -72.5381 194.5382)" fill="#333333" width="1.3" height="0.2"/>
		
			<rect x="18.2" y="86.7" transform="matrix(-0.3426 -0.9395 0.9395 -0.3426 -56.2032 134.2643)" fill="#333333" width="1.3" height="0.2"/>
		
			<rect x="20" y="91.5" transform="matrix(-0.3409 -0.9401 0.9401 -0.3409 -58.4598 142.1766)" fill="#333333" width="1.3" height="0.2"/>
		
			<rect x="17.4" y="84.3" transform="matrix(-0.3407 -0.9402 0.9402 -0.3407 -55.2185 130.0809)" fill="#333333" width="1.3" height="0.2"/>
		
			<rect x="19.1" y="89.1" transform="matrix(-0.3426 -0.9395 0.9395 -0.3426 -57.2849 138.2942)" fill="#333333" width="1.3" height="0.2"/>
		
			<rect x="20.8" y="93.9" transform="matrix(-0.343 -0.9394 0.9394 -0.343 -59.4264 146.3843)" fill="#333333" width="1.3" height="0.2"/>
		<polygon fill="#333333" points="30.1,117.3 30,117.3 29.9,117.3 30.3,118.5 30.5,118.5 30.2,117.6 		"/>
		
			<rect x="16.5" y="81.9" transform="matrix(-0.3407 -0.9402 0.9402 -0.3407 -54.1333 126.055)" fill="#333333" width="1.3" height="0.2"/>
		
			<rect x="22.6" y="98.7" transform="matrix(-0.3419 -0.9397 0.9397 -0.3419 -61.6488 154.3507)" fill="#333333" width="1.3" height="0.2"/>
		
			<rect x="26.1" y="108.2" transform="matrix(-0.3416 -0.9398 0.9398 -0.3416 -65.998 170.4357)" fill="#333333" width="1.3" height="0.2"/>
		
			<rect x="26.9" y="110.6" transform="matrix(-0.3396 -0.9406 0.9406 -0.3396 -67.2117 174.2683)" fill="#333333" width="1.3" height="0.2"/>
		
			<rect x="27.8" y="113" transform="matrix(-0.3426 -0.9395 0.9395 -0.3426 -68.0883 178.598)" fill="#333333" width="1.3" height="0.2"/>
		
			<rect x="28.7" y="115.4" transform="matrix(-0.3419 -0.9397 0.9397 -0.3419 -69.2221 182.5554)" fill="#333333" width="1.3" height="0.2"/>
		
			<rect x="25.2" y="105.8" transform="matrix(-0.3419 -0.9397 0.9397 -0.3419 -64.894 166.4388)" fill="#333333" width="1.3" height="0.2"/>
		
			<rect x="23.5" y="101" transform="matrix(-0.3407 -0.9402 0.9402 -0.3407 -62.8068 158.2675)" fill="#333333" width="1.3" height="0.2"/>
		
			<rect x="21.7" y="96.3" transform="matrix(-0.3419 -0.9397 0.9397 -0.3419 -60.5655 150.3224)" fill="#333333" width="1.3" height="0.2"/>
		
			<rect x="24.3" y="103.4" transform="matrix(-0.3401 -0.9404 0.9404 -0.3401 -63.9263 162.2376)" fill="#333333" width="1.3" height="0.2"/>
		<polygon fill="#333333" points="117.4,99.1 117.2,99.2 117.4,99.9 117.6,100.4 117.8,100.3 117.6,99.8 		"/>
		
			<rect x="114.2" y="92.4" transform="matrix(-0.3423 -0.9396 0.9396 -0.3423 67.2321 232.161)" fill="#333333" width="1.3" height="0.2"/>
		<polygon fill="#333333" points="116.5,96.7 116.3,96.8 116.6,97.7 116.7,98 116.9,97.9 116.8,97.6 		"/>
		
			<rect x="115.1" y="94.8" transform="matrix(-0.3428 -0.9394 0.9394 -0.3428 66.2209 236.2158)" fill="#333333" width="1.3" height="0.2"/>
		<polygon fill="#333333" points="113.9,89.5 113.7,89.6 114.1,90.8 114.2,90.8 114.3,90.7 114.3,90.7 		"/>
		
			<rect x="103.8" y="63.7" transform="matrix(0.3416 0.9398 -0.9398 0.3416 128.7504 -56.1262)" fill="#333333" width="1.3" height="0.2"/>
		
			<rect x="105.5" y="68.5" transform="matrix(0.34 0.9404 -0.9404 0.34 134.6077 -54.5604)" fill="#333333" width="1.3" height="0.2"/>
		
			<rect x="104.7" y="66.1" transform="matrix(0.3396 0.9406 -0.9406 0.3396 131.8252 -55.3137)" fill="#333333" width="1.3" height="0.2"/>
		
			<rect x="106.4" y="70.9" transform="matrix(0.3419 0.9397 -0.9397 0.3419 137.1741 -53.8621)" fill="#333333" width="1.3" height="0.2"/>
		
			<rect x="102.1" y="58.9" transform="matrix(0.3421 0.9397 -0.9397 0.3421 123.0492 -57.6547)" fill="#333333" width="1.3" height="0.2"/>
		
			<rect x="100.3" y="54.2" transform="matrix(0.3426 0.9395 -0.9395 0.3426 117.3383 -59.177)" fill="#333333" width="1.3" height="0.2"/>
		
			<rect x="102.9" y="61.3" transform="matrix(0.3419 0.9397 -0.9397 0.3419 125.888 -56.8932)" fill="#333333" width="1.3" height="0.2"/>
		
			<rect x="99.4" y="51.8" transform="matrix(0.3419 0.9397 -0.9397 0.3419 114.6017 -59.9239)" fill="#333333" width="1.3" height="0.2"/>
		
			<rect x="101.2" y="56.5" transform="matrix(0.34 0.9404 -0.9404 0.34 120.4834 -58.37)" fill="#333333" width="1.3" height="0.2"/>
		
			<rect x="110.8" y="82.9" transform="matrix(-0.3425 -0.9395 0.9395 -0.3425 71.5859 216.0499)" fill="#333333" width="1.3" height="0.2"/>
		
			<rect x="112.5" y="87.7" transform="matrix(-0.3407 -0.9402 0.9402 -0.3407 69.1603 224.0262)" fill="#333333" width="1.3" height="0.2"/>
		
			<rect x="111.6" y="85.3" transform="matrix(-0.3426 -0.9395 0.9395 -0.3426 70.5237 220.0857)" fill="#333333" width="1.3" height="0.2"/>
		
			<rect x="108.1" y="75.7" transform="matrix(0.3426 0.9395 -0.9395 0.3426 142.7181 -52.3719)" fill="#333333" width="1.3" height="0.2"/>
		
			<rect x="109.9" y="80.5" transform="matrix(-0.34 -0.9404 0.9404 -0.34 72.3131 211.9172)" fill="#333333" width="1.3" height="0.2"/>
		
			<rect x="98.6" y="49.4" transform="matrix(0.3421 0.9397 -0.9397 0.3421 111.7588 -60.685)" fill="#333333" width="1.3" height="0.2"/>
		
			<rect x="107.3" y="73.3" transform="matrix(0.3425 0.9395 -0.9395 0.3425 139.9168 -53.1241)" fill="#333333" width="1.3" height="0.2"/>
		
			<rect x="109" y="78.1" transform="matrix(-0.34 -0.9404 0.9404 -0.34 73.3984 207.8948)" fill="#333333" width="1.3" height="0.2"/>
		
			<rect x="94.5" y="78.8" transform="matrix(-0.3421 -0.9396 0.9396 -0.3421 38.9973 215.9319)" fill="#333333" width="1.1" height="31.1"/>
		<polygon fill="#333333" points="39.3,114.1 34.2,116 34.6,117.1 40,115.1 63.8,106.4 63.4,105.4 		"/>
		
			<rect x="75.2" y="83.5" transform="matrix(0.9399 -0.3415 0.3415 0.9399 -23.2678 36.0295)" fill="#333333" width="31.1" height="1.1"/>
		<polygon fill="#333333" points="33.6,105.6 59.4,96.2 59,95.2 33,104.6 29.8,105.8 30.2,106.8 		"/>
		
			<rect x="72.3" y="74.7" transform="matrix(0.9398 -0.3416 0.3416 0.9398 -20.4372 34.5431)" fill="#333333" width="31.1" height="1.1"/>
		<polygon fill="#333333" points="56.6,87.4 56.2,86.4 27.7,96.7 27,97 27.4,98 28.3,97.7 		"/>
		
			<rect x="68.5" y="65.5" transform="matrix(0.9399 -0.3415 0.3415 0.9399 -17.5122 32.6672)" fill="#333333" width="31.1" height="1.1"/>
		
			<rect x="37.4" y="67.4" transform="matrix(0.3418 0.9398 -0.9398 0.3418 102.9454 18.9629)" fill="#333333" width="1.1" height="31.1"/>
	</g>
</g>
</svg>
