<?xml version="1.0" encoding="utf-8"?>
<!-- Generator: Adobe Illustrator 14.0.0, SVG Export Plug-In . SVG Version: 6.00 Build 43363)  -->
<!DOCTYPE svg PUBLIC "-//W3C//DTD SVG 1.1//EN" "http://www.w3.org/Graphics/SVG/1.1/DTD/svg11.dtd">
<svg version="1.1" id="Layer_1" xmlns="http://www.w3.org/2000/svg" xmlns:xlink="http://www.w3.org/1999/xlink" x="0px" y="0px"
	 width="150px" height="150px" viewBox="0 0 150 150" enable-background="new 0 0 150 150" xml:space="preserve">
<g>
	<path fill="none" d="M56.668,87.87c-0.867-0.254-1.76-0.445-2.647-0.655C54.906,87.425,55.801,87.622,56.668,87.87z"/>
	<path fill="none" d="M87.414,112.979c0.458-0.509,0.917-1.021,1.402-1.516C88.329,111.958,87.874,112.467,87.414,112.979z"/>
	<path fill="none" d="M67.528,116.666c-0.469,0.894-0.872,1.784-1.279,2.681C66.657,118.453,67.062,117.56,67.528,116.666z"/>
	<path fill="none" d="M49.815,114.197c-1.158-0.39-2.347-0.724-3.576-0.998C47.466,113.474,48.66,113.812,49.815,114.197z"/>
	<path fill="none" d="M38.142,106.395c0.004,0.008,0.013,0.012,0.018,0.017c0.101,0.008,0.201,0.027,0.302,0.034
		C38.352,106.438,38.251,106.402,38.142,106.395z"/>
	<path fill="none" d="M54.229,117.924c0.007,0.003,0.016,0.003,0.022,0.007c0.236-0.493,0.458-0.992,0.703-1.482
		C54.707,116.938,54.465,117.428,54.229,117.924z"/>
	<path fill="none" d="M115.444,91.305c-0.227,0.008-0.449,0.018-0.677,0.034c-1.216,0.053-2.428,0.158-3.637,0.298
		c1.209-0.14,2.424-0.245,3.641-0.298C114.995,91.322,115.222,91.312,115.444,91.305z"/>
	<path fill="none" d="M97.145,95.376c0.681-0.289,1.375-0.543,2.066-0.798C98.52,94.833,97.825,95.087,97.145,95.376z"/>
	<path fill="none" d="M100.545,94.079c0.748-0.253,1.51-0.477,2.268-0.698C102.055,93.603,101.293,93.826,100.545,94.079z"/>
	<path fill="none" d="M104.017,93.02c0.85-0.228,1.71-0.414,2.57-0.599C105.727,92.605,104.866,92.792,104.017,93.02z"/>
	<path fill="none" d="M107.547,92.202c1.019-0.198,2.043-0.351,3.069-0.486C109.59,91.852,108.565,92.004,107.547,92.202z"/>
	<path fill="none" d="M59.147,103.179c-0.49-0.214-1.007-0.403-1.511-0.603C58.14,102.775,58.657,102.965,59.147,103.179z"/>
	<path fill="none" d="M36.234,98.854c-0.806,0.04-1.608,0.112-2.416,0.192C34.623,98.966,35.428,98.894,36.234,98.854z"/>
	<path fill="none" d="M48.228,99.747c-0.738-0.142-1.488-0.251-2.24-0.367C46.737,99.492,47.49,99.605,48.228,99.747z"/>
	<path fill="none" d="M47.681,108.539c0.235,0.087,0.471,0.176,0.703,0.262C48.152,108.715,47.916,108.626,47.681,108.539z"/>
	<path fill="none" d="M67.412,91.96c-0.554-0.271-1.15-0.498-1.717-0.753C66.262,91.462,66.86,91.689,67.412,91.96z"/>
	<path fill="none" d="M62.214,89.711c-0.751-0.291-1.539-0.523-2.31-0.789C60.673,89.185,61.463,89.42,62.214,89.711z"/>
	<path fill="none" d="M44.313,99.135c-0.782-0.089-1.568-0.142-2.358-0.202C42.746,98.989,43.534,99.046,44.313,99.135z"/>
	<path fill="none" d="M93.825,96.895c0.633-0.314,1.275-0.6,1.915-0.887C95.101,96.295,94.458,96.58,93.825,96.895z"/>
	<path fill="none" d="M52.296,110.598c0.226,0.118,0.445,0.245,0.668,0.371C52.741,110.843,52.521,110.716,52.296,110.598z"/>
	<path fill="none" d="M52.024,100.641c-0.681-0.185-1.379-0.334-2.073-0.5C50.646,100.303,51.344,100.456,52.024,100.641z"/>
	<path fill="none" d="M55.674,101.795c-0.602-0.218-1.226-0.393-1.843-0.591C54.448,101.402,55.072,101.58,55.674,101.795z"/>
	<path fill="none" d="M43.175,107.186c0.037,0.011,0.074,0.014,0.109,0.023C43.25,107.199,43.212,107.196,43.175,107.186z"/>
	<path fill="none" d="M104.041,101.061c-0.523,0.215-1.011,0.48-1.521,0.718C103.03,101.541,103.518,101.275,104.041,101.061z"/>
	<path fill="none" d="M99.739,103.126c-0.591,0.32-1.142,0.684-1.71,1.034C98.598,103.81,99.15,103.446,99.739,103.126z"/>
	<path fill="none" d="M90.608,98.626c0.585-0.338,1.184-0.652,1.779-0.974C91.792,97.974,91.193,98.288,90.608,98.626z"/>
	<path fill="none" d="M85.88,114.762c-0.423,0.521-0.823,1.047-1.221,1.581C85.057,115.809,85.457,115.283,85.88,114.762z"/>
	<path fill="none" d="M95.757,105.588c-0.576,0.395-1.117,0.823-1.672,1.243C94.64,106.415,95.181,105.982,95.757,105.588z"/>
	<path fill="none" d="M92.11,108.387c-0.535,0.454-1.039,0.932-1.552,1.404C91.068,109.318,91.575,108.837,92.11,108.387z"/>
	<path fill="none" d="M101.104,108.833c0.091-0.045,0.181-0.098,0.273-0.142C101.282,108.735,101.194,108.788,101.104,108.833z"/>
	<path fill="none" d="M87.341,119.215c0.006,0,0.015-0.009,0.021-0.009c0.021-0.025,0.039-0.052,0.061-0.074
		C87.396,119.162,87.366,119.188,87.341,119.215z"/>
	<path fill="none" d="M96.078,111.656c0.153-0.096,0.315-0.188,0.471-0.288C96.394,111.468,96.234,111.561,96.078,111.656z"/>
	<path fill="none" d="M91.246,115.353c0.201-0.175,0.404-0.351,0.609-0.525C91.65,115.002,91.45,115.178,91.246,115.353z"/>
	<path fill="none" d="M106.667,106.64c-0.153,0.053-0.298,0.13-0.453,0.175c0.136-0.039,0.268-0.085,0.402-0.122
		C106.631,106.673,106.652,106.656,106.667,106.64z"/>
	<path fill="none" d="M81.667,105.019c0.464-0.403,0.942-0.788,1.417-1.178C82.607,104.23,82.131,104.615,81.667,105.019z"/>
	<path fill="none" d="M78.97,107.514c0.428-0.42,0.863-0.827,1.3-1.234C79.833,106.692,79.397,107.094,78.97,107.514z"/>
	<path fill="none" d="M76.431,110.182c0.39-0.435,0.788-0.863,1.19-1.284C77.219,109.318,76.82,109.747,76.431,110.182z"/>
	<path fill="none" d="M87.501,100.564c0.543-0.363,1.097-0.705,1.65-1.046C88.598,99.859,88.044,100.201,87.501,100.564z"/>
	<path fill="none" d="M84.519,102.698c0.502-0.381,1.014-0.744,1.527-1.112C85.532,101.954,85.021,102.317,84.519,102.698z"/>
	<path fill="none" d="M68.548,121.515c0.011,0,0.02,0,0.031,0.004c0.109-0.21,0.212-0.431,0.326-0.636
		C68.79,121.098,68.66,121.299,68.548,121.515z"/>
	<path fill="none" d="M83.318,118.234c-0.354,0.524-0.694,1.05-1.02,1.586C82.624,119.284,82.964,118.759,83.318,118.234z"/>
	<path fill="none" d="M69.917,119.092c0.28-0.477,0.568-0.949,0.863-1.419C70.484,118.143,70.197,118.615,69.917,119.092z"/>
	<path fill="none" d="M71.892,115.979c0.317-0.463,0.642-0.924,0.974-1.38C72.533,115.055,72.209,115.516,71.892,115.979z"/>
	<path fill="none" d="M74.066,113.007c0.354-0.453,0.718-0.899,1.088-1.341C74.784,112.113,74.42,112.554,74.066,113.007z"/>
	<path fill="none" d="M56.64,113.285c-0.578,1.016-1.125,2.051-1.653,3.094c-1.27-0.682-2.649-1.271-4.072-1.807
		c1.423,0.535,2.802,1.125,4.072,1.81c0.53-1.046,1.071-2.081,1.655-3.097H56.64z"/>
	<path fill="none" d="M62.398,104.774c-0.16-0.084-0.335-0.159-0.498-0.242c0.163,0.083,0.338,0.158,0.495,0.242
		c-1.574,2.001-3.001,4.106-4.351,6.261c1.349-2.154,2.779-4.26,4.351-6.258L62.398,104.774z"/>
	<path fill="none" d="M56.64,113.285c-0.011-0.008-0.024-0.017-0.035-0.026C56.616,113.269,56.629,113.277,56.64,113.285
		L56.64,113.285z"/>
	<path fill="none" d="M58.508,118.593c0.002,0,0.002,0,0.002,0c0.173-0.49,0.375-0.964,0.561-1.443
		C58.882,117.629,58.681,118.103,58.508,118.593z"/>
	<path fill="none" d="M69.14,113.837c0.519-0.876,1.027-1.75,1.6-2.614C70.164,112.087,69.659,112.961,69.14,113.837z"/>
	<path fill="none" d="M54.987,116.382c0,0,0,0.004-0.002,0.004c0.635,0.338,1.176,0.736,1.762,1.104
		C56.159,117.122,55.617,116.724,54.987,116.382z"/>
	<path fill="none" d="M35.495,85.375c1.051-0.049,2.099-0.096,3.146-0.088C37.594,85.279,36.548,85.326,35.495,85.375z"/>
	<path fill="none" d="M50.849,86.483c-0.95-0.185-1.917-0.311-2.883-0.456C48.931,86.173,49.899,86.299,50.849,86.483z"/>
	<path fill="none" d="M37.89,98.817c0.808-0.008,1.616-0.017,2.419,0.01C39.505,98.801,38.698,98.81,37.89,98.817z"/>
	<path fill="none" d="M64.583,102.133c0.663,0.46,1.318,0.938,1.951,1.423c-0.617,0.841-1.215,1.708-1.789,2.574
		c-0.753-0.467-1.543-0.919-2.349-1.353c0.808,0.434,1.596,0.886,2.349,1.353c0.576-0.87,1.172-1.733,1.791-2.574
		c-0.633-0.485-1.285-0.959-1.949-1.427l0,0c-8.203-5.72-18.396-9.301-29.319-9.363c10.923,0.062,21.113,3.644,29.317,9.363
		L64.583,102.133z"/>
	<path fill="none" d="M75.942,93.434H75.94c-0.771,0.665-1.516,1.347-2.255,2.044c-0.479-0.311-0.98-0.608-1.476-0.906
		c0.816-0.701,1.655-1.389,2.503-2.051c-12.506-9.3-28.846-14.59-45.957-12.917c17.11-1.664,33.448,3.617,45.954,12.917
		c-0.847,0.662-1.681,1.35-2.5,2.045c0.002,0,0.002,0,0.002,0c-0.002,0-0.002,0.006-0.002,0.006c0.497,0.298,1,0.596,1.478,0.91
		C74.427,94.78,75.172,94.099,75.942,93.434z"/>
	<path fill="none" d="M77.123,103.229c0.713-0.768,1.4-1.552,2.162-2.291C78.523,101.683,77.838,102.457,77.123,103.229z"/>
	<path fill="none" d="M110.954,84.595c-2.316,0.446-4.621,1.035-6.894,1.787C106.333,85.63,108.639,85.041,110.954,84.595z"/>
	<path fill="none" d="M96.966,88.949c-0.782,0.345-1.496,0.778-2.256,1.155C95.47,89.728,96.184,89.294,96.966,88.949z"/>
	<path fill="none" d="M90.463,92.314c-0.861,0.518-1.645,1.108-2.472,1.661C88.818,93.423,89.602,92.832,90.463,92.314z"/>
	<path fill="none" d="M118.046,83.658c-2.318,0.166-4.64,0.46-6.951,0.903C113.406,84.122,115.728,83.824,118.046,83.658z"/>
	<path fill="none" d="M32.383,85.581c-1.064,0.105-2.121,0.249-3.184,0.416C30.262,85.83,31.321,85.687,32.383,85.581z"/>
	<path fill="none" d="M84.561,96.358c-0.833,0.639-1.586,1.338-2.377,2.019C82.975,97.696,83.728,96.997,84.561,96.358z"/>
	<path fill="none" d="M74.67,105.938c-0.674,0.814-1.277,1.645-1.899,2.479C73.394,107.583,73.996,106.753,74.67,105.938z"/>
	<path fill="none" d="M44.815,85.603c-1.007-0.102-2.023-0.148-3.042-0.201C42.789,85.454,43.808,85.505,44.815,85.603z"/>
	<path fill="none" d="M118.787,77.423L118.787,77.423c-2.021,0.018-4.05,0.113-6.095,0.325
		C114.737,77.536,116.767,77.44,118.787,77.423z"/>
	<path fill="none" d="M75.626,93.199c-0.304-0.226-0.611-0.454-0.912-0.679c2.371-1.856,4.874-3.538,7.449-5.083
		c-2.575,1.545-5.078,3.227-7.451,5.083C75.016,92.748,75.323,92.974,75.626,93.199z"/>
	<path fill="#E6D5C2" d="M28.755,79.604c17.11-1.673,33.45,3.617,45.957,12.917c2.373-1.856,4.876-3.538,7.451-5.083
		c9.2-5.522,19.56-8.998,30.207-9.673c0.107-0.013,0.213-0.009,0.322-0.017c2.045-0.212,4.074-0.308,6.095-0.325
		c0.034-0.787,0.101-1.575,0.097-2.375c-0.16-24.307-19.11-44.141-42.942-45.884l-4.045,0.215l0.098-0.368
		c-25.459,0.292-45.996,21.166-45.825,46.653c0.011,1.401,0.138,2.767,0.271,4.133c0.583-0.053,1.163-0.112,1.747-0.158
		C28.378,79.617,28.564,79.621,28.755,79.604z M60.39,73.692l-0.256,0.077l-0.17,0.029l-0.163,0.026l-0.164,0.026l-0.167,0.021
		l-0.234,0.009l-0.167,0.024l-0.193-0.02l-0.138-0.044l-0.193-0.017l-0.188-0.022l-0.141-0.045l-0.142-0.044l-0.217-0.068
		l-0.143-0.045l-0.166-0.086l-0.21-0.07l-0.167-0.089l-0.125-0.116l-0.116-0.118l-0.166-0.09l-0.121-0.115l-0.123-0.116
		l-0.138-0.163l-0.077-0.138l-0.121-0.118l-0.118-0.116l-0.099-0.184l-0.095-0.188l-0.071-0.138l-0.099-0.184l-0.053-0.217
		l-0.026-0.16l-0.094-0.188l-0.029-0.167l-0.022-0.162l-0.03-0.167v-0.232v-0.123l-0.055-0.206l0.046-0.142l0.07-0.217l0.02-0.188
		l0.044-0.142l0.094-0.167l0.021-0.189l0.042-0.138l0.094-0.17l0.09-0.167l0.048-0.145l0.09-0.164l0.116-0.116l0.167-0.145
		l0.089-0.171l0.116-0.12l0.118-0.121l0.142-0.072l0.188-0.217l0.14-0.07l0.185-0.099l0.142-0.072l0.188-0.099l0.14-0.072
		l0.138-0.072l0.239-0.009l0.188-0.099l0.166-0.026l0.165-0.022l0.188,0.018l0.167-0.022l0.162-0.028l0.193,0.019l0.188,0.022
		l0.139,0.04l0.188,0.022l0.193,0.024l0.217,0.061l0.142,0.046l0.14,0.044l0.171,0.09l0.16,0.094l0.099,0.068l0.234,0.116
		l0.099,0.068l0.188,0.138l0.121,0.114l0.123,0.116l0.116,0.116l0.147,0.163l0.071,0.142l0.145,0.162l0.099,0.184l0.072,0.138
		l0.099,0.185l0.095,0.194l0.03,0.161l0.073,0.144l0.021,0.162l0.051,0.21l0.026,0.167l0.026,0.165l-0.022,0.188l0.026,0.162
		l-0.073,0.21l0.033,0.17l-0.024,0.184l-0.021,0.192l-0.043,0.14l-0.02,0.188l-0.092,0.165l-0.089,0.171l-0.095,0.166l-0.045,0.145
		l-0.095,0.164l-0.094,0.162l-0.112,0.125l-0.094,0.162l-0.116,0.123l-0.119,0.121l-0.116,0.116l-0.162,0.148l-0.164,0.142
		l-0.141,0.077l-0.138,0.073l-0.167,0.142l-0.167,0.028l-0.188,0.094L60.39,73.692z M67.169,78.702l-0.046,0.139l-0.017,0.194
		l-0.048,0.14l0.004,0.112l-0.09,0.176l-0.05,0.136l-0.089,0.172l-0.044,0.145l-0.123,0.117l-0.043,0.142l-0.116,0.122l-0.068,0.096
		l-0.166,0.14l-0.116,0.122l-0.068,0.097l-0.115,0.119l-0.145,0.065l-0.16,0.149l-0.123,0.122l-0.09,0.049l-0.188,0.091
		l-0.165,0.032l-0.208,0.053l-0.142,0.073l-0.167,0.017l-0.116,0.01l-0.214,0.053l-0.118,0.004l-0.164,0.026l-0.162,0.022
		l-0.145-0.045l-0.116,0.006l-0.188-0.022l-0.192-0.018l-0.145-0.044l-0.142-0.045l-0.145-0.043L62.6,81.378l-0.167-0.093
		l-0.142-0.049l-0.14-0.04L62.03,81.08l-0.122-0.119l-0.099-0.065l-0.138-0.162l-0.099-0.07l-0.145-0.162l-0.094-0.065l-0.099-0.192
		l-0.094-0.062l-0.077-0.14l-0.095-0.192l-0.069-0.135l-0.077-0.142l-0.05-0.209l-0.072-0.146l-0.026-0.156l-0.026-0.168
		l-0.022-0.166l-0.004-0.118L60.577,78.4l-0.004-0.119l-0.022-0.166l0.044-0.142l0.041-0.14l0.022-0.188l0.044-0.144l0.046-0.146
		l0.021-0.188l0.046-0.14l0.09-0.167l0.116-0.122l0.044-0.141l0.072-0.097l0.09-0.161l0.12-0.124l0.068-0.098l0.167-0.142
		l0.067-0.094l0.138-0.077l0.116-0.116l0.167-0.144l0.14-0.073l0.188-0.098l0.094-0.049l0.137-0.077l0.21-0.05l0.167-0.026
		l0.145-0.077h0.116l0.167-0.022l0.21-0.053h0.12l0.189,0.018h0.118l0.193,0.018h0.111l0.193,0.017l0.138,0.044l0.216,0.068
		l0.099,0.067l0.138,0.044l0.166,0.09l0.145,0.05l0.143,0.039l0.12,0.123l0.141,0.04l0.146,0.162l0.094,0.072l0.123,0.112
		l0.07,0.143l0.123,0.111l0.116,0.119l0.098,0.188l0.073,0.14l0.12,0.114l0.05,0.209l0.073,0.142l0.052,0.096l0.046,0.209
		l0.004,0.115l0.095,0.184l0.004,0.122l0.044,0.211l0.004,0.119l-0.022,0.186l0.026,0.169L67.169,78.702z M67.883,74.005
		l-0.119,0.005h-0.236l-0.141-0.044L67.2,73.941l-0.189-0.017l-0.143-0.044l-0.149-0.046l-0.21-0.061l-0.21-0.068l-0.167-0.094
		l-0.125-0.116l-0.162-0.09l-0.149-0.046l-0.143-0.16l-0.094-0.068l-0.188-0.14l-0.127-0.116l-0.116-0.116l-0.142-0.162
		l-0.145-0.162l-0.072-0.138l-0.077-0.145L64.5,71.969l-0.069-0.138l-0.099-0.188l-0.101-0.188l-0.026-0.167l-0.044-0.206
		l-0.032-0.167l-0.022-0.166l0.017-0.188l-0.047-0.21l-0.022-0.162l0.017-0.192l0.044-0.138l-0.022-0.166l0.022-0.189l0.09-0.166
		l0.067-0.21l0.044-0.142l0.046-0.145l0.094-0.167l0.067-0.214l0.044-0.141l0.162-0.142l0.072-0.099l0.138-0.188l0.117-0.123
		l0.118-0.12l0.116-0.121l0.162-0.144l0.188-0.095l0.165-0.146l0.14-0.073l0.188-0.098l0.138-0.072l0.188-0.099l0.167-0.026
		l0.188-0.099l0.162-0.024l0.166-0.026l0.21-0.053l0.17-0.028l0.138,0.046l0.166-0.026l0.167-0.024l0.232-0.009l0.167,0.094
		l0.192,0.018l0.145,0.046l0.188,0.017l0.16,0.094l0.145,0.044l0.166,0.092l0.171,0.092l0.143,0.042l0.166,0.09l0.12,0.12
		l0.189,0.136l0.115,0.117l0.123,0.111l0.121,0.116l0.145,0.167l0.12,0.111l0.095,0.189l0.146,0.161l0.073,0.139l0.099,0.19
		l0.024,0.165l0.07,0.14l0.055,0.21l0.047,0.21l0.029,0.162l0.026,0.167l0.048,0.214l-0.044,0.14l0.049,0.21l-0.044,0.142
		l-0.022,0.19l-0.021,0.188l-0.02,0.188l-0.021,0.188l-0.018,0.188l-0.094,0.164l-0.046,0.145l-0.094,0.17l-0.044,0.138l-0.14,0.193
		l-0.094,0.167l-0.112,0.121l-0.044,0.145l-0.145,0.072l-0.138,0.188l-0.145,0.074l-0.085,0.162l-0.193,0.103l-0.138,0.072
		l-0.167,0.145l-0.138,0.07l-0.19,0.099l-0.164,0.024l-0.189,0.103l-0.184,0.098l-0.239,0.004l-0.138,0.073l-0.188-0.024
		l-0.145,0.077L67.883,74.005z M76.396,62.754l-0.018,0.192l-0.022,0.188l-0.021,0.188l-0.047,0.145l-0.021,0.184l-0.018,0.188
		l-0.094,0.171l-0.118,0.116l-0.044,0.145l-0.067,0.21l-0.116,0.121l-0.094,0.166l-0.09,0.171l-0.095,0.167l-0.133,0.07l-0.1,0.166
		l-0.183,0.099l-0.094,0.167l-0.188,0.099l-0.146,0.073l-0.161,0.142l-0.138,0.077l-0.188,0.094l-0.165,0.026l-0.189,0.099
		l-0.184,0.098l-0.192-0.018l-0.14,0.072l-0.237,0.005l-0.139,0.076l-0.193-0.022l-0.184-0.024l-0.188-0.018l-0.164,0.024
		l-0.217-0.063L71.863,66.3l-0.166,0.029l-0.141-0.046l-0.164-0.09l-0.217-0.068l-0.142-0.043l-0.167-0.094l-0.167-0.09
		l-0.164-0.089l-0.123-0.116l-0.116-0.118l-0.171-0.087l-0.12-0.119l-0.145-0.16l-0.115-0.118l-0.099-0.188l-0.117-0.112
		l-0.099-0.188l-0.072-0.138l-0.099-0.184l-0.073-0.144l-0.052-0.21l-0.072-0.14l-0.051-0.211l-0.048-0.21l-0.028-0.167l0.02-0.188
		l-0.024-0.163l-0.026-0.168l-0.004-0.234l0.045-0.138l0.022-0.189l0.043-0.144l0.072-0.215l0.044-0.144l0.02-0.188l0.095-0.167
		l0.039-0.142l0.095-0.167l0.094-0.166l0.089-0.165l0.121-0.123l0.114-0.116l0.089-0.167l0.164-0.146l0.118-0.123l0.142-0.07
		l0.162-0.145l0.188-0.099l0.138-0.072l0.193-0.099l0.14-0.072l0.188-0.099l0.138-0.077l0.212-0.043l0.138-0.077l0.217-0.052
		l0.16-0.024l0.193,0.02l0.162-0.028l0.167-0.022l0.188,0.018l0.194,0.018l0.188,0.024l0.141,0.04l0.188,0.021l0.217,0.068
		l0.138,0.043l0.171,0.097l0.145,0.039l0.161,0.094l0.143,0.04l0.193,0.14l0.121,0.116l0.166,0.09l0.12,0.116l0.118,0.119
		l0.143,0.16l0.145,0.162l0.071,0.138l0.149,0.167l0.073,0.14l0.141,0.162l0.022,0.164l0.101,0.188l0.025,0.162l0.099,0.189
		l0.027,0.162l0.05,0.211l0.026,0.166l0.026,0.167l-0.022,0.188L76.396,62.754z M72.1,81.653l-0.167,0.022l-0.111,0.004
		l-0.167,0.025l-0.166,0.027l-0.193-0.023l-0.143-0.043l-0.14-0.039l-0.188-0.026l-0.142-0.044l-0.123,0.009l-0.21-0.07
		l-0.142-0.044l-0.123-0.118l-0.143-0.04l-0.166-0.097l-0.094-0.069l-0.116-0.113l-0.099-0.069l-0.14-0.162l-0.143-0.045
		l-0.123-0.117l-0.071-0.142l-0.121-0.112l-0.072-0.14L68.7,80.038l-0.049-0.089l-0.094-0.188l-0.077-0.14l-0.094-0.188
		l-0.005-0.118l-0.099-0.184v-0.122V78.78l-0.004-0.118l-0.026-0.167l-0.029-0.161v-0.122l0.046-0.141l0.021-0.193l-0.026-0.157
		l0.043-0.145l0.116-0.119l0.024-0.192l0.044-0.14l0.095-0.162l0.041-0.144l0.07-0.098l0.09-0.165l0.122-0.119l0.112-0.126
		l0.077-0.088l0.112-0.127l0.162-0.143l0.116-0.123l0.099-0.048l0.162-0.14l0.138-0.077l0.188-0.096l0.145-0.072l0.138-0.073
		l0.12-0.004l0.184-0.094l0.166-0.026l0.167-0.029h0.116l0.21-0.052l0.119-0.004l0.164-0.028l0.192,0.024l0.118-0.004l0.142,0.043
		l0.189,0.021l0.144,0.046l0.21,0.063l0.072,0.026l0.142,0.044l0.167,0.09l0.166,0.09l0.149,0.045l0.09,0.071l0.122,0.114
		l0.17,0.093l0.094,0.066l0.143,0.162l0.095,0.067l0.144,0.164l0.048,0.093l0.146,0.157l0.072,0.149l0.098,0.184l0.049,0.093
		l0.094,0.188l0.026,0.163l0.072,0.143l0.027,0.159l0.028,0.166l0.005,0.118l0.047,0.209l-0.042,0.146l0.021,0.165l0.005,0.116
		l-0.022,0.192l-0.051,0.139l-0.018,0.188l-0.042,0.146l0.021,0.161l-0.112,0.12l-0.045,0.143l-0.09,0.168l-0.048,0.144
		l-0.047,0.141l-0.095,0.166l-0.114,0.122l-0.068,0.087l-0.165,0.149l-0.067,0.096l-0.117,0.124l-0.119,0.113l-0.188,0.096
		l-0.066,0.097l-0.144,0.079l-0.138,0.069l-0.188,0.097l-0.141,0.076l-0.214,0.053l-0.094,0.047l-0.163,0.026L72.1,81.653z
		 M79.06,85.468l0.005,0.117l-0.022,0.185l-0.044,0.139l-0.023,0.192l-0.04,0.146l0.021,0.165l-0.115,0.12l-0.047,0.14L78.7,86.838
		l-0.044,0.144l-0.044,0.135l-0.089,0.169l-0.118,0.122l-0.07,0.096l-0.166,0.149l-0.068,0.093l-0.115,0.116l-0.114,0.119
		l-0.188,0.102l-0.069,0.09l-0.146,0.076l-0.138,0.073l-0.188,0.102l-0.136,0.07l-0.215,0.049l-0.098,0.047l-0.166,0.026
		l-0.207,0.057l-0.166,0.022l-0.115,0.004l-0.167,0.026l-0.167,0.03l-0.188-0.027l-0.141-0.042l-0.146-0.04l-0.188-0.021
		L74.9,88.579h-0.124l-0.21-0.063l-0.143-0.05l-0.123-0.112l-0.138-0.046l-0.166-0.087l-0.095-0.074l-0.12-0.109l-0.095-0.074
		l-0.145-0.162l-0.141-0.043l-0.12-0.115l-0.073-0.14l-0.123-0.114l-0.071-0.144l-0.099-0.18l-0.046-0.098l-0.098-0.187
		l-0.073-0.142l-0.099-0.183v-0.118l-0.099-0.192L72.5,86.031l-0.004-0.235v-0.115l-0.022-0.165l-0.028-0.163l-0.004-0.118
		l0.045-0.144l0.022-0.189l-0.026-0.161l0.044-0.146l0.118-0.122l0.022-0.184l0.048-0.148l0.086-0.162l0.05-0.146l0.068-0.096
		l0.092-0.166l0.119-0.118l0.116-0.119l0.072-0.096l0.116-0.119l0.162-0.144l0.117-0.118l0.089-0.049l0.167-0.144l0.142-0.075
		l0.185-0.096l0.145-0.08l0.138-0.069h0.123l0.188-0.105l0.16-0.018l0.166-0.035h0.116l0.217-0.047h0.116l0.166-0.03l0.189,0.021
		l0.12-0.004l0.138,0.043l0.188,0.018l0.146,0.053l0.209,0.062l0.078,0.02l0.139,0.05l0.165,0.087l0.171,0.092l0.14,0.05
		l0.094,0.069l0.12,0.112l0.167,0.089l0.099,0.07l0.142,0.166l0.1,0.069l0.141,0.158l0.053,0.096l0.14,0.158l0.071,0.14l0.1,0.186
		l0.047,0.096l0.1,0.189l0.027,0.165l0.071,0.135l0.027,0.167l0.022,0.167v0.113l0.055,0.212l-0.05,0.143L79.06,85.468z
		 M79.168,71.627v0.12l-0.044,0.14l0.025,0.166l-0.046,0.143l-0.021,0.189l-0.044,0.138l-0.019,0.195l-0.071,0.094l-0.047,0.138
		l-0.094,0.171l-0.043,0.142l-0.068,0.094l-0.095,0.167l-0.089,0.166l-0.072,0.099l-0.166,0.145l-0.065,0.095l-0.119,0.12
		l-0.139,0.073l-0.115,0.12l-0.145,0.073l-0.111,0.12l-0.189,0.099l-0.143,0.073l-0.165,0.026l-0.185,0.098h-0.123l-0.188,0.099
		l-0.164,0.026l-0.161,0.029h-0.12l-0.163,0.026l-0.188-0.018l-0.193-0.022l-0.118,0.004l-0.143-0.046l-0.192-0.021l-0.141-0.044
		l-0.116,0.004l-0.167-0.09L74.58,74.73l-0.17-0.09l-0.142-0.044l-0.162-0.094l-0.099-0.068l-0.094-0.068l-0.119-0.116l-0.168-0.094
		l-0.117-0.116l-0.122-0.111l-0.071-0.141l-0.122-0.116l-0.072-0.144L73.05,73.39l-0.075-0.14l-0.095-0.188l-0.076-0.138
		l-0.072-0.14l-0.022-0.164l-0.077-0.14l-0.026-0.166l-0.051-0.206l0.046-0.145l-0.024-0.164l-0.031-0.166v-0.117l0.046-0.14
		l0.022-0.189l0.022-0.192l0.046-0.143l0.044-0.14l0.046-0.142l0.048-0.145l0.085-0.167l0.05-0.142l0.044-0.144l0.116-0.112
		l0.117-0.12l0.117-0.123l0.066-0.099l0.091-0.165l0.143-0.072l0.167-0.145l0.094-0.048l0.183-0.094l0.144-0.076l0.139-0.073
		l0.188-0.099l0.137-0.072l0.146-0.077l0.137-0.07l0.163-0.026l0.142-0.073l0.145,0.04l0.214-0.048h0.119l0.164-0.028l0.163-0.026
		l0.145,0.04l0.142,0.046l0.192,0.021l0.142,0.046l0.142,0.044l0.141,0.046l0.142,0.044l0.166,0.09l0.167,0.094l0.099,0.068
		l0.138,0.043l0.122,0.114l0.164,0.092l0.051,0.097l0.149,0.16l0.164,0.089l0.118,0.113l0.069,0.144l0.077,0.138l0.116,0.119
		l0.099,0.188l0.073,0.138l0.031,0.162l0.065,0.138l0.078,0.144l0.021,0.167l-0.017,0.188l0.026,0.16l0.067,0.145L79.168,71.627z
		 M111.455,68.952l0.923-0.696c0.341-0.254,0.588-0.117,0.548,0.311l-0.108,1.147c-0.04,0.427,0.251,0.916,0.646,1.082l1.062,0.446
		c0.395,0.175,0.403,0.453,0.01,0.632l-1.05,0.479c-0.396,0.18-0.669,0.673-0.615,1.1l0.146,1.146
		c0.047,0.423-0.199,0.572-0.549,0.32l-0.937-0.667c-0.351-0.248-0.915-0.239-1.261,0.017l-0.924,0.694
		c-0.339,0.26-0.587,0.12-0.543-0.304l0.104-1.152c0.045-0.427-0.248-0.915-0.641-1.082l-1.064-0.449
		c-0.394-0.168-0.398-0.453-0.009-0.633l1.048-0.475c0.393-0.177,0.666-0.676,0.616-1.097l-0.138-1.15
		c-0.055-0.424,0.188-0.569,0.535-0.321l0.942,0.667C110.549,69.221,111.113,69.212,111.455,68.952z M101.992,53.641l1.048-0.479
		c0.391-0.18,0.664-0.679,0.616-1.099l-0.145-1.147c-0.052-0.427,0.192-0.572,0.543-0.32l0.941,0.663
		c0.346,0.252,0.915,0.243,1.255-0.013l0.924-0.694c0.341-0.256,0.587-0.123,0.548,0.304l-0.107,1.151
		c-0.042,0.427,0.252,0.912,0.645,1.082l1.063,0.449c0.393,0.169,0.399,0.449,0.008,0.631l-1.049,0.479
		c-0.395,0.18-0.667,0.67-0.612,1.096l0.143,1.146c0.046,0.427-0.193,0.572-0.544,0.324l-0.941-0.672
		c-0.354-0.248-0.916-0.239-1.259,0.021l-0.924,0.69c-0.342,0.261-0.588,0.123-0.548-0.305l0.107-1.147
		c0.046-0.427-0.247-0.915-0.642-1.082l-1.062-0.453C101.602,54.103,101.602,53.816,101.992,53.641z M83.469,37.531l1.05-0.479
		c0.389-0.18,0.667-0.672,0.614-1.094l-0.144-1.148c-0.049-0.432,0.193-0.569,0.543-0.324l0.94,0.67
		c0.351,0.245,0.917,0.241,1.256-0.02l0.924-0.694c0.346-0.256,0.588-0.116,0.546,0.309l-0.106,1.147
		c-0.039,0.427,0.252,0.912,0.646,1.082l1.062,0.449c0.396,0.171,0.4,0.453,0.008,0.633l-1.047,0.479
		c-0.391,0.179-0.669,0.672-0.614,1.099l0.143,1.147c0.045,0.421-0.197,0.57-0.542,0.318l-0.943-0.668
		c-0.347-0.247-0.912-0.242-1.253,0.018l-0.929,0.696c-0.342,0.256-0.587,0.121-0.547-0.312l0.11-1.146
		c0.042-0.425-0.249-0.916-0.646-1.08l-1.061-0.449C83.084,37.994,83.079,37.71,83.469,37.531z M60.231,52.562l0.219,0.068
		l0.138,0.046l0.149,0.044l0.21,0.063l0.216,0.066l0.139,0.046h0.234l0.164-0.026l0.192,0.017l0.217-0.055l0.228-0.004h0.238
		l0.287-0.031l0.162-0.026l0.258-0.077h0.118h0.121l0.138-0.077h0.123l0.232-0.125l0.21-0.05l0.094-0.043l0.14-0.077l0.094-0.05
		l0.142-0.07l0.068-0.096l0.116-0.121l0.094-0.048l0.099-0.05l0.114-0.12l0.116-0.121l0.072-0.095l0.116-0.118l0.089-0.168
		l0.139-0.189l0.14-0.194l0.09-0.165l0.138-0.192l0.094-0.162l0.094-0.171l0.09-0.166l0.068-0.215l0.095-0.166l0.093-0.167
		l0.064-0.21l0.022-0.188l0.094-0.171l0.022-0.188l0.089-0.167l0.022-0.188l0.02-0.188l0.021-0.188l0.072-0.214l0.018-0.188
		l0.022-0.188l0.018-0.188l-0.022-0.162l0.044-0.263l-0.031-0.162l0.021-0.189l0.024-0.192l-0.028-0.162l-0.004-0.237l-0.022-0.162
		l0.022-0.192l-0.026-0.163l-0.004-0.231l-0.05-0.217l0.019-0.188l-0.024-0.166l-0.026-0.16l-0.077-0.26l-0.022-0.163l-0.026-0.166
		l-0.055-0.21l-0.004-0.232l-0.022-0.166l-0.05-0.213l0.024-0.188l-0.05-0.21l-0.03-0.166l-0.024-0.165l-0.048-0.212l-0.05-0.21
		l-0.031-0.163l-0.048-0.214l-0.024-0.163l-0.053-0.21l-0.024-0.162l-0.026-0.164l-0.052-0.217l0.021-0.188l-0.05-0.21l-0.026-0.167
		l-0.021-0.159l0.018-0.189l-0.022-0.166l-0.05-0.21l-0.026-0.162l-0.026-0.167l-0.029-0.166l-0.004-0.232l-0.026-0.166l0.021-0.188
		l0.05-0.143l-0.054-0.212l0.021-0.188l-0.026-0.16l0.022-0.195v-0.116l0.019-0.188l0.022-0.188l0.044-0.142l0.018-0.189l0.024-0.19
		l0.043-0.143l0.024-0.188l-0.028-0.166l0.05-0.138l0.09-0.167l0.065-0.214l0.046-0.14l0.022-0.189l0.046-0.142l0.044-0.145
		l0.045-0.143l0.094-0.162l0.09-0.17l0.07-0.094l0.067-0.214l0.046-0.14l0.044-0.142l0.166-0.145l0.04-0.143l0.094-0.166
		l0.116-0.121l0.068-0.096l0.12-0.121l0.118-0.116l0.116-0.125l0.09-0.163l0.116-0.12l0.116-0.123l0.119-0.12l0.138-0.073
		l0.116-0.121l0.118-0.115l0.117-0.123l0.188-0.099l0.116-0.12l0.141-0.077l0.188-0.094l0.143-0.07l0.162-0.148l0.138-0.073
		l0.145-0.072l0.21-0.048l0.188-0.099l0.167-0.033l0.188-0.094l0.21-0.048l0.189-0.099l0.167-0.026l0.14-0.072l0.21-0.055
		l0.167-0.026l0.165-0.022l0.162-0.028l0.238-0.009l0.142,0.046l0.167-0.022l0.116-0.005l0.188,0.018h0.124l0.187,0.018l0.144,0.048
		l0.188,0.02l0.238,0.111l0.259,0.044l0.145,0.046l0.142,0.039l0.118,0.116l0.144,0.046l0.093,0.071l0.124,0.116l0.141,0.04
		l0.095,0.072l0.116,0.112l0.099,0.073l0.119,0.111l0.141,0.046l0.078,0.142l0.094,0.068l0.072,0.141l0.094,0.07l0.077,0.135
		l0.095,0.07l0.048,0.096l0.119,0.116l0.048,0.094l0.076,0.138l0.049,0.09l0.071,0.145v0.116l0.072,0.138l0.048,0.097l0.073,0.142
		l0.004,0.112l0.071,0.14v0.121l0.049,0.095v0.115l0.006,0.116l0.023,0.167l0.047,0.094l0.006,0.234l0.004,0.236l-0.04,0.26
		l-0.021,0.189l-0.073,0.214l-0.067,0.213l-0.094,0.166l-0.063,0.215l-0.092,0.166l-0.047,0.138l-0.138,0.193l-0.046,0.145
		l-0.161,0.142l-0.05,0.145l-0.11,0.12l-0.123,0.116l-0.117,0.123l-0.089,0.164l-0.073,0.095l-0.094,0.05l-0.138,0.076l-0.116,0.116
		l-0.093,0.049l-0.119,0.123l-0.095,0.047l-0.095,0.046l-0.093,0.052l-0.095,0.046l-0.209,0.048l-0.188,0.099l-0.167,0.029
		l-0.09,0.048l-0.171,0.032h-0.114l-0.189-0.019h-0.116l-0.145-0.044l-0.188-0.022l-0.189-0.02l-0.143-0.044l-0.166-0.093
		l-0.193-0.134l-0.115-0.118l-0.099-0.066l-0.145-0.162l-0.143-0.163l-0.094-0.188l-0.033-0.167l-0.094-0.188l-0.048-0.206
		l0.017-0.188l0.022-0.193l0.045-0.256l0.095-0.164l0.039-0.265l0.116-0.118l0.067-0.214l0.116-0.121l0.073-0.094l0.188-0.099
		l0.09-0.05h0.121l0.123-0.005l0.116,0.117l0.048,0.094l0.122,0.118v0.117v0.116l-0.113,0.238l-0.092,0.283l-0.086,0.287
		l0.022,0.283l0.048,0.09l0.077,0.142l0.144,0.046l0.189,0.138l0.188,0.02l0.162-0.029l0.164-0.026l0.217-0.054l0.161-0.139
		l0.139-0.076l0.167-0.145l0.117-0.12l0.142-0.188l0.09-0.166l0.089-0.165l0.09-0.166l0.073-0.214l0.095-0.166l0.017-0.189
		l0.045-0.145l-0.028-0.166l0.025-0.188l-0.025-0.164l-0.004-0.235l-0.098-0.188l-0.049-0.206L74.878,33.5l-0.053-0.21l-0.117-0.116
		l-0.05-0.09l-0.049-0.099l-0.122-0.111L74.44,32.78l-0.094-0.068l-0.119-0.116l-0.099-0.068l-0.164-0.094l-0.094-0.068
		l-0.146-0.043l-0.142-0.046l-0.167-0.09h-0.115l-0.196-0.017l-0.142-0.044l-0.184-0.02l-0.167,0.024l-0.236,0.004l-0.141,0.076
		l-0.214,0.048l-0.14,0.077l-0.188,0.094l-0.139,0.077l-0.188,0.094l-0.163,0.142l-0.188,0.099l-0.167,0.145l-0.16,0.143
		l-0.119,0.123l-0.184,0.214l-0.098,0.167l-0.16,0.142l-0.184,0.221l-0.089,0.16l-0.119,0.239l-0.138,0.193l-0.145,0.192
		l-0.09,0.167l-0.066,0.214l-0.118,0.239l-0.087,0.166l-0.114,0.237l-0.048,0.144l-0.067,0.21l-0.068,0.214l-0.022,0.188
		l-0.068,0.21l-0.094,0.167l0.004,0.238l0.004,0.237l-0.044,0.256l-0.017,0.192l-0.018,0.304l0.021,0.167v0.117l0.004,0.118
		l-0.022,0.188l0.026,0.164v0.119l0.026,0.16l0.029,0.167v0.116l-0.024,0.193v0.118l0.004,0.232l0.005,0.12l0.05,0.208l0.004,0.121
		l0.043,0.21l0.029,0.162l0.026,0.166l0.026,0.167l0.029,0.165l0.021,0.162l0.053,0.21v0.116l0.004,0.238v0.117l0.05,0.21
		l0.026,0.167l0.05,0.212l0.026,0.16l0.026,0.171l0.028,0.162l0.022,0.162l0.03,0.164l0.072,0.145L69.26,43.9l0.046,0.206
		l0.026,0.167l0.026,0.16l0.024,0.167l0.031,0.166l0.022,0.167l0.026,0.166l0.028,0.16l0.07,0.14l0.006,0.12l0.048,0.206
		l0.004,0.123l0.094,0.184v0.117l0.026,0.164l0.072,0.141l0.006,0.043l0.02-0.018l0.133-0.118l0.141-0.125l0.137-0.125l0.141-0.118
		l0.138-0.125l0.197-0.104l0.14-0.12l0.18-0.145l0.179-0.142l0.156-0.082l0.203-0.107l0.139-0.123l0.197-0.098l0.192-0.107
		l0.163-0.081l0.243-0.125l0.173-0.046l0.204-0.098l0.197-0.107l0.219-0.064l0.218-0.061l0.223-0.064l0.218-0.067l0.219-0.062
		l0.256-0.085l0.243-0.022l0.215-0.063l0.201-0.004l0.243-0.026l0.236-0.024l0.221-0.061l0.201-0.004l0.244-0.024l0.235-0.026
		l0.181-0.04l0.196-0.004l0.201-0.004l0.202-0.004l0.161,0.018l0.197-0.005l0.202-0.004l0.221,0.035l0.196-0.004l0.162,0.018
		l0.201-0.004l0.161,0.018l0.162,0.017l0.22,0.038l0.156,0.017l0.184,0.055l0.162,0.017l0.181,0.058l0.157,0.019l0.224,0.036
		l0.115,0.035l0.185,0.059l0.183,0.055l0.175,0.057l0.163,0.018l0.12,0.037l0.18,0.052l0.185,0.059l0.142,0.077l0.141,0.081
		l0.162,0.017l0.196,0.095l0.125,0.035l0.197,0.098l0.127,0.038l0.139,0.075l0.179,0.059l0.202,0.094l0.145,0.081l0.179,0.055
		l0.142,0.079l0.141,0.073l0.202,0.098l0.181,0.06l0.137,0.077l0.184,0.052l0.162,0.123l0.201,0.094l0.185,0.058l0.138,0.077
		l0.2,0.093l0.205,0.099l0.137,0.076l0.202,0.095l0.203,0.094l0.18,0.059l0.206,0.092l0.139,0.081l0.221,0.037l0.16,0.117
		l0.201,0.094l0.184,0.06l0.141,0.077l0.201,0.096l0.18,0.055l0.201,0.094l0.184,0.063l0.18,0.052l0.162,0.118l0.219,0.035
		l0.145,0.081l0.18,0.053l0.181,0.055l0.177,0.059l0.184,0.058l0.181,0.055l0.144,0.077l0.179,0.057l0.143,0.077l0.222,0.038
		l0.12,0.035l0.18,0.057l0.18,0.059l0.142,0.077l0.158,0.017l0.184,0.055l0.162,0.018l0.18,0.06l0.12,0.035l0.139,0.077l0.162,0.018
		l0.124,0.04l0.157,0.02l0.141,0.074l0.16,0.018l0.123,0.038l0.159,0.018l0.123,0.037l0.154,0.018l0.123,0.035h0.104l0.12,0.036
		l0.141,0.076l0.159,0.02l0.221,0.035l0.219,0.04l0.18,0.055l0.262,0.013l0.166,0.018l0.215,0.037l0.161,0.018l0.202-0.004h0.098
		l0.16,0.013h0.1l0.158,0.018l0.225,0.031l0.218,0.042l0.145,0.077l0.121,0.04l0.1,0.093l0.103,0.099l0.038,0.081l-0.035,0.12v0.099
		l-0.059,0.081l-0.079,0.141l-0.117,0.167l-0.099,0.096l-0.082,0.042l-0.056,0.085l-0.06,0.081l-0.163,0.081l-0.137,0.121
		l-0.077,0.043l-0.08,0.042l-0.095,0.099l-0.086,0.04l-0.075,0.042l-0.139,0.125l-0.081,0.042l-0.116,0.061l-0.12,0.064l-0.141,0.12
		l-0.158,0.082l-0.098,0.103l-0.161,0.085l-0.117,0.06l-0.197,0.107l-0.16,0.081l-0.157,0.079l-0.162,0.087l-0.157,0.083
		l-0.138,0.118l-0.197,0.108l-0.202,0.099l-0.203,0.103l-0.151,0.085l-0.226,0.068l-0.196,0.103l-0.198,0.099l-0.195,0.107
		l-0.202,0.103l-0.239,0.12l-0.214,0.063l-0.206,0.104l-0.251,0.085l-0.202,0.107l-0.261,0.081l-0.219,0.068l-0.239,0.121
		l-0.258,0.085l-0.261,0.085l-0.217,0.063l-0.301,0.103l-0.218,0.062l-0.261,0.089l-0.257,0.081l-0.282,0.05l-0.258,0.079
		l-0.278,0.046l-0.303,0.103l-0.235,0.026l-0.282,0.046l-0.314,0.068l-0.261,0.083l-0.281,0.046l-0.279,0.046l-0.301,0.004
		l-0.276,0.044l-0.285,0.044l-0.339,0.028l-0.277,0.043l-0.257-0.017l-0.346,0.026l-0.237,0.029l-0.3,0.004l-0.302,0.004l-0.3,0.009
		l-0.261-0.018l-0.259-0.013l-0.238,0.022l-0.261-0.013l-0.262-0.02l-0.222-0.035l-0.236,0.026l-0.265-0.018l-0.223-0.035
		l-0.218-0.033l-0.202,0.004l-0.238-0.074h-0.201l-0.236-0.072l-0.167-0.018l-0.214-0.038l-0.162-0.017l-0.22-0.036l-0.183-0.059
		l-0.223-0.031l-0.12-0.042l-0.218-0.035l-0.123-0.04l-0.179-0.055l-0.186-0.059l-0.12-0.035l-0.179-0.055l-0.179-0.057
		l-0.121-0.042l-0.18-0.052l-0.148-0.077l-0.117-0.042l-0.162-0.017l-0.137-0.077l-0.121-0.04l-0.162-0.013l-0.145-0.076
		l-0.139-0.082l-0.12-0.035l-0.123-0.042l-0.138-0.069l-0.126-0.038l-0.116-0.044l-0.099-0.094l-0.121-0.042L74.201,53.7
		l-0.126-0.037l-0.254-0.116l-0.208-0.098l-0.237-0.072l-0.201-0.099l-0.225-0.036l-0.237-0.076l-0.202-0.094l-0.221-0.036
		l-0.265-0.118l-0.202-0.092l-0.236-0.076l-0.184-0.06l-0.26-0.111l-0.163-0.116l-0.201-0.094l-0.202-0.099l-0.225-0.136
		l-0.16-0.116l-0.239-0.077l-0.167-0.116l-0.155-0.116l-0.145-0.082l-0.162-0.116l-0.16-0.114l-0.201-0.098l-0.102-0.099
		l-0.122-0.066l-0.068,0.116l-0.044,0.145l-0.162,0.143l-0.094,0.166l-0.116,0.123l-0.094,0.164l-0.119,0.123l-0.133,0.188
		l-0.116,0.121l-0.094,0.167l-0.118,0.12l-0.165,0.149l-0.14,0.182l-0.112,0.127l-0.115,0.116l-0.163,0.145l-0.166,0.147
		l-0.117,0.118l-0.015,0.009l-0.12,0.164l-0.114,0.244l-0.117,0.236l-0.093,0.167l-0.09,0.287l-0.138,0.188L65.851,55.2
		l-0.137,0.193l-0.073,0.214l-0.112,0.237l-0.046,0.14l-0.094,0.167l-0.09,0.17l-0.094,0.165l-0.09,0.167l-0.048,0.145l-0.02,0.188
		l-0.089,0.164l-0.022,0.188l-0.022,0.188l-0.044,0.144l-0.024,0.188l-0.022,0.184l-0.017,0.192l0.021,0.167l-0.017,0.188
		l0.026,0.163l-0.022,0.188l0.026,0.167l-0.021,0.188l0.026,0.165v0.116l0.055,0.212v0.116l-0.022,0.188l0.049,0.099l0.013,0.083
		l0.033-0.096l0.116-0.116l0.09-0.171l0.048-0.145l0.09-0.16l0.119-0.123l0.065-0.099l0.14-0.188l0.116-0.121l0.138-0.193
		l0.166-0.144l0.141-0.193l0.162-0.143l0.16-0.144l0.166-0.143l0.21-0.171l0.09-0.046l0.098-0.048l0.14-0.077l0.094-0.048
		l0.116-0.123l0.094-0.044l0.072-0.099l0.089-0.046l0.099-0.048l0.138-0.072l0.094-0.048l0.094-0.05l0.188-0.098l0.184-0.098
		l0.216-0.051l0.188-0.098l0.138-0.072l0.167-0.031l0.137-0.072l0.213-0.048h0.121l0.162-0.033l0.143-0.07h0.116l0.282-0.029
		l0.167-0.031l0.189,0.022l0.166-0.026h0.116l0.077,0.022l0.111-0.004l0.033,0.05l-0.05,0.022l-0.048,0.022l-0.141,0.077
		l-0.044,0.144l-0.162,0.143l-0.116,0.121l-0.123,0.119l-0.065,0.093l-0.073,0.099l-0.068,0.094l-0.116,0.121l-0.072,0.094
		l-0.167,0.144l-0.065,0.099l-0.09,0.16l-0.118,0.123l-0.07,0.099l-0.118,0.12l-0.116,0.117L69.3,58.64l-0.095,0.164l-0.068,0.094
		l-0.094,0.166l-0.116,0.121l-0.046,0.145l-0.094,0.166l-0.065,0.094l-0.116,0.121l-0.09,0.167l-0.05,0.138l-0.094,0.171
		l-0.018,0.188l-0.021,0.189l-0.024,0.188l-0.09,0.167l-0.066,0.215l-0.024,0.188l-0.022,0.188l-0.017,0.188l0.022,0.166
		l-0.018,0.188l-0.022,0.188l-0.021,0.188l-0.042,0.144l0.021,0.165l-0.017,0.188v0.118l0.022,0.167l-0.044,0.138l0.048,0.095
		l0.006,0.236v0.118l0.026,0.162l0.026,0.048l-0.072-0.022l-0.048,0.022l-0.116,0.004l-0.167,0.026l-0.166,0.024l-0.167,0.031
		l-0.21,0.05l-0.21,0.048h-0.118l-0.094,0.055l-0.165,0.022l-0.094,0.052l-0.217,0.05l-0.231,0.004l-0.21,0.048l-0.188,0.101
		l-0.167,0.026l-0.14,0.072l-0.138,0.07l-0.094,0.055l-0.193,0.094l-0.14,0.077l-0.138,0.07l-0.116,0.123l-0.118,0.116l-0.16,0.149
		l-0.123,0.116l-0.16,0.145l-0.118,0.12l-0.116,0.116l-0.116,0.121l-0.072,0.099l-0.116,0.123l0.004,0.116l-0.117,0.116
		l-0.118,0.004l-0.099-0.065l-0.094-0.188l-0.094-0.068l-0.077-0.144l-0.07-0.138l-0.098-0.188l-0.095-0.184l-0.099-0.184
		l-0.123-0.118l-0.048-0.092l-0.119-0.118l-0.047-0.095l-0.116-0.116l-0.123-0.116l-0.164-0.085l-0.099-0.072l-0.171-0.095
		l-0.162-0.089l-0.188-0.018l-0.215-0.068l-0.144-0.044l-0.215-0.067l-0.188-0.021l-0.215-0.064l-0.19-0.022l-0.188-0.018
		l-0.259-0.045l-0.144-0.04h-0.232l-0.217-0.067l-0.164,0.03l-0.188-0.021l-0.188-0.018l-0.217-0.072l-0.116,0.004h-0.116
		l-0.287-0.086l-0.145-0.048l-0.166-0.085l-0.022-0.05v-0.116l0.111-0.12l0.051-0.021l0.094-0.051l0.094-0.05l0.138-0.07
		l0.145-0.072l0.116-0.004l0.145-0.073l0.16-0.03l0.167-0.026l0.21-0.05l0.14-0.073l0.215-0.052l0.162-0.024l0.188-0.099
		l0.167-0.026l0.167-0.026l0.21-0.054l0.166-0.022l0.164-0.026l0.212-0.055l0.094-0.048l0.188,0.022l0.098-0.05l0.156-0.026
		l0.099-0.046l0.123-0.004l0.065,0.024l0.119-0.004l0.021-0.072v-0.117l-0.05-0.094l-0.022-0.167l-0.099-0.063l-0.044-0.099
		l-0.123-0.111l-0.048-0.094l-0.12-0.116l-0.05-0.094l-0.116-0.114l-0.05-0.095l-0.121-0.116l-0.072-0.138l-0.12-0.116l-0.05-0.092
		l-0.066-0.142l-0.055-0.094l-0.048-0.094L60.13,60.03l-0.055-0.213l-0.026-0.159l0.095-0.167l0.111-0.127l0.193-0.099l0.234-0.004
		l0.07,0.028l0.145,0.044l0.142,0.044l0.145,0.041l0.14,0.05l0.169,0.088l0.118,0.119l0.164,0.089l0.171,0.09l0.127,0.072
		l0.018-0.16l-0.05-0.091l0.018-0.189v-0.123l-0.027-0.162v-0.116l0.018-0.188v-0.12l0.05-0.141l-0.004-0.12l0.022-0.189
		l0.022-0.188l0.024-0.072l0.017-0.305l0.09-0.282l0.018-0.309l0.043-0.256l0.119-0.241l0.039-0.261l0.044-0.256l0.044-0.248
		l-0.099,0.046l-0.212,0.052l-0.116,0.005l-0.21,0.05h-0.116l-0.166,0.026l-0.121,0.005l-0.167,0.024l-0.116,0.004l-0.145-0.046
		l-0.167,0.026h-0.116l-0.073-0.018L60.5,56.042l-0.217-0.067l-0.265-0.04l-0.16-0.092l-0.216-0.07l-0.171-0.09l-0.164-0.089
		l-0.188-0.141l-0.193-0.138L58.808,55.2l-0.121-0.114l-0.146-0.16l-0.145-0.162l-0.068-0.143l-0.077-0.14l-0.116-0.112
		l-0.098-0.193l-0.073-0.14l-0.074-0.138l-0.073-0.136l-0.071-0.143l-0.026-0.162l-0.072-0.143l-0.073-0.14l-0.076-0.141
		l-0.026-0.164L57.4,52.732l-0.026-0.164l-0.044-0.096l-0.028-0.161l-0.026-0.166V52.03l-0.077-0.145l0.05-0.138l-0.028-0.167
		l0.045-0.144l-0.004-0.116l0.026-0.072l-0.031-0.282l0.022-0.188l0.022-0.188l0.118-0.116l0.043-0.143l0.073,0.022h0.116
		l0.095,0.061l0.094,0.072l0.12,0.116l0.099,0.068l0.073,0.141l0.094,0.065l0.12,0.118l0.051,0.094l0.094,0.07l0.116,0.113
		l0.123,0.117l0.12,0.115l0.12,0.116l0.121,0.119l0.188,0.133l0.123,0.116l0.094,0.068l0.121,0.116l0.166,0.095l0.121,0.113
		l0.167,0.092L60.231,52.562z M52.382,37.805l1.048-0.479c0.391-0.18,0.664-0.674,0.614-1.099l-0.143-1.143
		c-0.05-0.427,0.193-0.576,0.543-0.324l0.941,0.668c0.35,0.251,0.915,0.243,1.254-0.018l0.923-0.694
		c0.342-0.257,0.587-0.118,0.548,0.309l-0.107,1.147c-0.042,0.427,0.25,0.916,0.646,1.082l1.062,0.449
		c0.394,0.169,0.398,0.451,0.009,0.63l-1.049,0.479c-0.389,0.18-0.667,0.67-0.615,1.095l0.14,1.153
		c0.053,0.42-0.192,0.569-0.542,0.317l-0.937-0.668c-0.355-0.247-0.916-0.243-1.259,0.018l-0.924,0.694
		c-0.341,0.26-0.589,0.118-0.547-0.309l0.107-1.147c0.043-0.427-0.248-0.915-0.642-1.082l-1.062-0.449
		C51.997,38.267,51.985,37.982,52.382,37.805z M35.472,54.986l1.049-0.48c0.389-0.18,0.667-0.676,0.615-1.099l-0.14-1.148
		c-0.052-0.427,0.188-0.569,0.539-0.319l0.941,0.663c0.351,0.252,0.916,0.248,1.257-0.013l0.923-0.694
		c0.34-0.261,0.587-0.121,0.545,0.304l-0.106,1.152c-0.04,0.427,0.251,0.915,0.646,1.082l1.064,0.448
		c0.394,0.171,0.398,0.449,0.008,0.633l-1.051,0.479c-0.39,0.179-0.667,0.667-0.613,1.092l0.139,1.15
		c0.054,0.424-0.193,0.569-0.537,0.322l-0.944-0.667c-0.353-0.252-0.913-0.243-1.259,0.017L37.625,58.6
		c-0.342,0.26-0.587,0.121-0.548-0.306l0.112-1.147c0.037-0.431-0.25-0.915-0.646-1.08l-1.062-0.454
		C35.087,55.447,35.083,55.161,35.472,54.986z M30.792,71.824l1.049-0.479c0.39-0.179,0.663-0.674,0.613-1.099l-0.142-1.147
		c-0.05-0.427,0.192-0.569,0.542-0.319l0.942,0.669c0.348,0.245,0.913,0.237,1.254-0.02l0.924-0.694
		c0.342-0.261,0.587-0.123,0.548,0.304l-0.107,1.152c-0.042,0.426,0.249,0.911,0.646,1.081l1.062,0.449
		c0.398,0.171,0.398,0.449,0.009,0.631l-1.048,0.482c-0.39,0.18-0.668,0.668-0.615,1.092l0.14,1.149
		c0.053,0.42-0.192,0.574-0.542,0.322l-0.938-0.673c-0.35-0.243-0.915-0.238-1.258,0.022l-0.924,0.692
		c-0.342,0.258-0.589,0.12-0.548-0.306l0.107-1.148c0.044-0.425-0.247-0.915-0.642-1.086L30.8,72.453
		C30.404,72.287,30.399,72.004,30.792,71.824z"/>
	<polygon fill="#E6D5C2" points="70.396,48.73 70.554,48.649 70.733,48.605 70.911,48.562 71.115,48.558 71.189,48.516 
		71.312,48.452 71.45,48.431 71.543,48.431 71.629,48.391 71.773,48.369 71.872,48.365 71.966,48.365 72.086,48.301 72.231,48.277 
		72.305,48.233 72.428,48.273 72.548,48.211 72.687,48.189 72.787,48.186 72.93,48.166 73.067,48.143 73.168,48.143 73.266,48.139 
		73.445,48.095 73.544,48.095 73.709,48.113 73.804,48.108 73.947,48.084 74.081,48.067 74.185,48.062 74.324,48.041 74.427,48.041 
		74.526,48.037 74.624,48.037 74.765,48.01 74.906,47.993 75.104,47.988 75.283,47.942 75.485,47.938 75.688,47.938 75.865,47.892 
		76.022,47.912 76.207,47.865 76.405,47.861 76.527,47.901 76.723,47.896 76.866,47.874 77.062,47.87 77.204,47.848 77.363,47.865 
		77.485,47.901 77.683,47.901 77.825,47.879 78.009,47.933 78.167,47.95 78.386,47.988 78.547,48.001 78.749,48.001 78.929,48.058 
		79.149,48.089 79.334,48.148 79.552,48.186 79.771,48.22 80.032,48.336 80.255,48.373 80.515,48.387 80.717,48.481 80.99,48.538 
		81.238,48.61 81.48,48.691 81.718,48.763 81.961,48.837 82.202,48.91 82.439,48.986 82.688,49.063 82.964,49.118 83.167,49.216 
		83.386,49.251 83.587,49.345 83.87,49.405 84.049,49.457 84.234,49.517 84.435,49.61 84.615,49.67 84.794,49.727 84.938,49.803 
		85.06,49.838 85.238,49.897 85.32,49.954 85.44,49.991 85.521,50.05 85.603,50.107 85.724,50.143 85.781,50.167 85.7,50.206 
		85.623,50.248 85.423,50.252 85.265,50.234 85.161,50.239 84.999,50.219 84.845,50.202 84.723,50.167 84.521,50.171 84.362,50.153 
		84.202,50.134 84.041,50.116 83.821,50.082 83.601,50.046 83.44,50.026 83.216,49.991 83.002,49.954 82.775,49.919 82.533,49.847 
		82.333,49.847 82.095,49.771 81.87,49.735 81.65,49.705 81.413,49.624 81.195,49.593 81.011,49.534 80.75,49.517 80.654,49.47 
		80.658,49.501 80.74,49.659 80.724,49.814 80.787,50.035 80.805,50.173 80.872,50.394 80.872,50.591 80.953,50.751 80.975,50.891 
		81.021,51.066 80.98,51.187 80.985,51.389 81.006,51.528 80.967,51.648 80.933,51.769 80.912,51.931 80.872,52.051 80.86,52.209 
		80.76,52.411 80.681,52.555 80.638,52.671 80.564,52.713 80.483,52.658 80.483,52.555 80.442,52.479 80.419,52.336 80.376,52.259 
		80.352,52.12 80.33,51.981 80.308,51.841 80.268,51.662 80.222,51.482 80.142,51.327 80.103,51.147 80.039,51.031 79.999,50.95 
		79.975,50.811 79.936,50.729 79.873,50.613 79.833,50.532 79.752,50.375 79.747,50.276 79.707,50.197 79.648,50.075 79.603,49.998 
		79.563,49.919 79.499,49.801 79.439,49.68 79.397,49.604 79.357,49.523 79.254,49.326 79.17,49.17 79.16,49.159 78.983,49.135 
		78.786,49.135 78.562,49.098 78.301,49.084 78.103,49.09 77.942,49.072 77.705,49.094 77.521,49.14 77.284,49.162 77.123,49.148 
		76.88,49.17 76.682,49.175 76.479,49.179 76.279,49.183 76.065,49.247 75.865,49.251 75.681,49.291 75.609,49.293 75.67,49.356 
		75.756,49.517 75.9,49.652 76.039,49.785 76.15,49.998 76.234,50.162 76.397,50.351 76.482,50.512 76.625,50.786 76.706,50.948 
		76.817,51.163 76.936,51.377 77.128,51.62 77.16,51.809 77.271,52.027 77.385,52.244 77.495,52.459 77.582,52.625 77.666,52.781 
		77.679,52.807 77.729,52.815 77.909,52.875 78.109,52.866 78.331,52.906 78.493,52.925 78.712,52.96 78.914,52.956 79.132,52.991 
		79.29,53.006 79.513,53.046 79.712,53.041 79.914,53.037 80.068,53.055 80.295,53.089 80.496,53.085 80.692,53.081 80.918,53.118 
		81.115,53.113 81.317,53.107 81.515,53.107 81.738,53.144 81.976,53.118 82.138,53.136 82.335,53.131 82.519,53.089 82.737,53.123 
		82.913,53.081 83.119,53.081 83.276,53.093 83.518,53.072 83.675,53.085 83.859,53.046 84.058,53.041 84.253,53.037 84.438,52.991 
		84.595,53.011 84.775,52.969 84.976,52.964 85.155,52.919 85.293,52.897 85.473,52.857 85.675,52.849 85.793,52.789 85.977,52.75 
		86.114,52.722 86.294,52.682 86.473,52.638 86.61,52.614 86.791,52.575 86.971,52.529 87.11,52.507 87.254,52.485 87.428,52.446 
		87.611,52.396 87.792,52.354 87.927,52.332 88.086,52.247 88.284,52.242 88.407,52.185 88.545,52.161 88.724,52.118 88.886,52.037 
		89.024,52.014 89.165,51.993 89.327,51.907 89.522,51.903 89.643,51.844 89.781,51.822 89.923,51.793 90.101,51.75 90.259,51.673 
		90.4,51.646 90.538,51.625 90.679,51.605 90.841,51.522 90.961,51.458 91.061,51.458 91.2,51.437 91.321,51.369 91.458,51.346 
		91.577,51.288 91.714,51.266 91.836,51.202 91.934,51.202 92.096,51.117 92.172,51.078 92.316,51.054 92.392,51.014 92.531,50.992 
		92.611,50.953 92.792,50.907 93.012,50.843 93.126,50.782 93.312,50.736 93.427,50.677 93.607,50.633 93.688,50.589 93.827,50.569 
		93.926,50.466 94.047,50.405 94.163,50.341 94.248,50.3 94.32,50.158 94.342,50.099 94.261,50.042 94.14,50.004 94.06,49.948 
		93.938,49.91 93.819,49.871 93.72,49.871 93.598,49.836 93.477,49.799 93.298,49.739 93.133,49.727 92.895,49.648 92.617,49.593 
		92.494,49.551 92.369,49.517 92.189,49.459 92.068,49.426 91.911,49.405 91.711,49.31 91.549,49.293 91.405,49.216 91.227,49.162 
		91.068,49.14 90.862,49.046 90.7,49.032 90.499,48.934 90.28,48.898 90.101,48.844 89.923,48.781 89.683,48.711 89.52,48.691 
		89.315,48.597 89.101,48.562 88.895,48.463 88.677,48.426 88.497,48.369 88.254,48.297 88.047,48.198 87.833,48.163 87.653,48.108 
		87.41,48.032 87.209,47.938 87.028,47.881 86.807,47.843 86.626,47.791 86.384,47.714 86.2,47.655 86.021,47.598 85.841,47.539 
		85.622,47.509 85.42,47.41 85.24,47.355 85.096,47.274 84.935,47.261 84.715,47.226 84.573,47.145 84.433,47.069 84.271,47.055 
		84.129,46.975 83.971,46.961 83.855,46.92 83.675,46.862 83.55,46.826 83.428,46.79 83.35,46.731 83.106,46.657 82.846,46.637 
		82.626,46.503 82.401,46.469 82.246,46.449 82.083,46.431 81.963,46.396 81.841,46.359 81.72,46.324 81.558,46.307 81.438,46.265 
		81.274,46.247 81.16,46.212 80.998,46.199 80.882,46.158 80.719,46.141 80.56,46.123 80.438,46.086 80.278,46.068 80.137,46.09 
		79.999,46.016 79.859,46.037 79.697,46.02 79.537,46 79.414,45.965 79.254,45.947 79.097,45.93 78.994,45.93 78.797,45.935 
		78.652,45.956 78.493,45.943 78.335,45.925 78.173,45.908 78.017,45.888 77.873,45.913 77.733,45.935 77.573,45.917 77.434,45.939 
		77.271,45.925 77.133,45.947 76.994,45.965 76.872,45.93 76.693,45.974 76.596,45.974 76.415,46.02 76.312,46.024 76.114,46.024 
		76.013,46.028 75.833,46.068 75.694,46.09 75.555,46.114 75.434,46.175 75.299,46.203 75.156,46.221 75.016,46.243 74.896,46.307 
		74.757,46.328 74.634,46.392 74.501,46.414 74.42,46.453 74.281,46.477 74.16,46.538 74.044,46.602 73.923,46.666 73.779,46.687 
		73.663,46.745 73.547,46.808 73.461,46.85 73.304,46.933 73.228,46.975 73.106,47.038 72.986,47.099 72.863,47.163 72.748,47.222 
		72.627,47.283 72.551,47.329 72.43,47.39 72.312,47.449 72.191,47.513 72.11,47.553 71.995,47.616 71.874,47.677 71.793,47.719 
		71.677,47.782 71.555,47.843 71.498,47.924 71.421,47.966 71.301,48.028 71.22,48.069 71.097,48.13 71.04,48.211 70.959,48.257 
		70.882,48.297 70.762,48.356 70.703,48.435 70.622,48.476 70.462,48.562 70.327,48.687 70.278,48.73 	"/>
	<polygon fill="#E6D5C2" points="76.791,52.69 76.65,52.553 76.59,52.45 76.457,52.314 76.343,52.233 76.258,52.074 76.069,51.964 
		75.9,51.78 75.76,51.642 75.649,51.562 75.434,51.403 75.29,51.274 75.151,51.136 74.959,51.031 74.765,50.924 74.626,50.791 
		74.433,50.688 74.294,50.552 74.102,50.449 73.903,50.341 73.796,50.261 73.663,50.127 73.412,50.05 73.304,49.97 73.111,49.862 
		72.999,49.785 72.801,49.691 72.687,49.749 72.588,49.749 72.472,49.808 72.369,49.812 72.266,49.812 72.15,49.875 72.01,49.897 
		71.872,49.919 71.792,49.958 71.651,49.982 71.57,50.026 71.432,50.05 71.351,50.09 71.213,50.112 71.073,50.134 70.992,50.175 
		70.875,50.239 70.733,50.261 70.657,50.3 70.558,50.305 70.436,50.363 70.337,50.368 70.195,50.39 70.077,50.453 69.998,50.493 
		69.974,50.5 70.094,50.561 70.295,50.659 70.434,50.736 70.642,50.834 70.775,50.911 70.976,51.005 71.182,51.104 71.425,51.176 
		71.623,51.274 71.824,51.369 72.025,51.467 72.29,51.579 72.533,51.655 72.77,51.732 72.91,51.809 73.03,51.848 73.151,51.885 
		73.313,51.903 73.433,51.938 73.556,51.977 73.693,52.054 73.855,52.074 73.981,52.108 74.139,52.126 74.258,52.161 74.399,52.238 
		74.565,52.255 74.699,52.332 74.864,52.349 75.02,52.369 75.2,52.426 75.362,52.446 75.483,52.48 75.703,52.516 75.882,52.571 
		76.043,52.588 76.205,52.605 76.423,52.643 76.585,52.66 76.748,52.678 76.793,52.693 	"/>
	<path fill="#5BA745" d="M28.755,79.604c-0.191,0.018-0.377,0.014-0.567,0.034c-0.584,0.046-1.165,0.105-1.747,0.158
		c0.215,2.181,0.528,4.335,1.029,6.421c0.576-0.106,1.154-0.133,1.729-0.22c1.062-0.167,2.119-0.311,3.184-0.416
		c1.04-0.101,2.073-0.162,3.111-0.206c1.053-0.049,2.099-0.096,3.146-0.088c1.051,0.005,2.089,0.058,3.133,0.114
		c1.018,0.053,2.035,0.1,3.042,0.201c1.062,0.11,2.104,0.267,3.151,0.425c0.965,0.146,1.933,0.271,2.883,0.456
		c1.076,0.206,2.12,0.472,3.173,0.731c0.887,0.21,1.78,0.401,2.647,0.655c1.104,0.315,2.166,0.688,3.236,1.052
		c0.771,0.266,1.559,0.498,2.31,0.789c1.197,0.459,2.336,0.979,3.481,1.496c0.567,0.255,1.163,0.482,1.717,0.753
		c1.67,0.815,3.277,1.683,4.797,2.605c0.819-0.695,1.653-1.383,2.5-2.045C62.203,83.221,45.866,77.939,28.755,79.604z"/>
	<path fill="#5BA745" d="M56.64,113.285c-0.011-0.008-0.024-0.017-0.035-0.026c-1.149-0.831-2.377-1.585-3.641-2.29
		c-0.223-0.126-0.442-0.253-0.668-0.371c-1.256-0.671-2.562-1.271-3.913-1.797c-0.231-0.086-0.468-0.175-0.703-0.262
		c-1.425-0.521-2.883-0.979-4.396-1.33c-0.035-0.01-0.072-0.013-0.109-0.023c-1.531-0.344-3.107-0.585-4.714-0.74
		c-0.101-0.007-0.202-0.026-0.302-0.034c2.22,2.453,4.696,4.659,7.389,6.596c0.238,0.047,0.455,0.14,0.691,0.192
		c1.229,0.274,2.417,0.608,3.576,0.998c0.37,0.127,0.738,0.239,1.1,0.375c1.423,0.535,2.802,1.125,4.072,1.807
		C55.515,115.336,56.062,114.301,56.64,113.285z"/>
	<path fill="#5BA745" d="M72.771,108.417c0.622-0.834,1.225-1.664,1.899-2.479c0.769-0.93,1.615-1.813,2.453-2.71
		c0.715-0.771,1.4-1.546,2.162-2.291c0.917-0.893,1.916-1.717,2.898-2.561c0.791-0.681,1.544-1.38,2.377-2.019
		c1.089-0.851,2.271-1.604,3.431-2.383c0.827-0.553,1.61-1.144,2.472-1.661c1.355-0.811,2.807-1.505,4.247-2.21
		c0.76-0.377,1.474-0.811,2.256-1.155c2.267-0.99,4.623-1.856,7.075-2.563c0.007-0.004,0.014-0.004,0.02-0.004
		c2.272-0.752,4.577-1.341,6.894-1.787c0.048-0.013,0.093-0.026,0.141-0.033c2.312-0.443,4.633-0.737,6.951-0.903
		c0.031-0.004,0.063-0.013,0.093-0.018c0.367-2.023,0.553-4.106,0.648-6.218c-2.021,0.018-4.05,0.113-6.095,0.325
		c-0.109,0.008-0.215,0.004-0.322,0.017c-10.647,0.675-21.007,4.15-30.207,9.673c-2.575,1.545-5.078,3.227-7.449,5.083
		c0.301,0.225,0.608,0.453,0.912,0.679c-0.304-0.226-0.611-0.451-0.915-0.679c-0.848,0.662-1.687,1.35-2.503,2.051
		c0.495,0.298,0.997,0.596,1.476,0.906c0.74-0.697,1.485-1.379,2.255-2.044h0.002c-0.77,0.665-1.515,1.347-2.255,2.048
		c-0.478-0.314-0.98-0.612-1.478-0.91c-2.726,2.329-5.276,4.851-7.622,7.558c0.664,0.468,1.316,0.941,1.949,1.427
		c-0.619,0.841-1.215,1.704-1.791,2.574c-0.753-0.467-1.541-0.919-2.349-1.353c-1.572,1.998-3.001,4.104-4.351,6.258
		c-0.468,0.748-0.965,1.479-1.403,2.25c0,0,0,0-0.002,0l0,0h0.002c-0.584,1.016-1.125,2.051-1.655,3.097
		c0.63,0.342,1.172,0.74,1.76,1.108c-0.586-0.368-1.127-0.767-1.762-1.104c-0.011,0.019-0.02,0.044-0.031,0.062
		c-0.245,0.49-0.466,0.989-0.703,1.482c3.514,1.517,7.251,2.607,11.144,3.21c0.245-0.596,0.583-1.198,0.854-1.794
		c0.407-0.896,0.81-1.787,1.279-2.681c0.492-0.955,1.051-1.886,1.611-2.829c0.519-0.876,1.024-1.75,1.6-2.614
		C71.373,110.273,72.074,109.35,72.771,108.417z M58.508,118.593c0.173-0.49,0.374-0.964,0.562-1.443
		c-0.186,0.479-0.387,0.953-0.561,1.443C58.51,118.593,58.51,118.593,58.508,118.593z"/>
	<path fill="#5BA745" d="M62.396,104.777c0.806,0.434,1.596,0.886,2.349,1.353c0.574-0.866,1.172-1.733,1.789-2.574
		c-0.633-0.485-1.288-0.963-1.951-1.423l0.002-0.004c-8.204-5.72-18.394-9.301-29.317-9.363c-1.561-0.004-3.135,0.062-4.722,0.201
		c-0.287,0.011-0.574,0.045-0.861,0.066c0.878,2.115,1.905,4.152,3.07,6.102c0.355-0.046,0.708-0.053,1.062-0.089
		c0.808-0.08,1.61-0.152,2.416-0.192c0.554-0.026,1.104-0.026,1.656-0.036c0.808-0.008,1.616-0.017,2.419,0.01
		c0.552,0.026,1.099,0.069,1.646,0.105c0.79,0.061,1.576,0.113,2.358,0.202c0.562,0.069,1.117,0.165,1.675,0.245
		c0.751,0.116,1.502,0.226,2.24,0.367c0.583,0.118,1.15,0.262,1.723,0.394c0.694,0.166,1.393,0.315,2.073,0.5
		c0.613,0.175,1.207,0.377,1.807,0.563c0.617,0.198,1.241,0.373,1.843,0.591c0.672,0.241,1.311,0.518,1.961,0.781
		c0.504,0.199,1.021,0.389,1.511,0.603c0.95,0.426,1.861,0.886,2.754,1.354c0.163,0.083,0.338,0.158,0.498,0.242L62.396,104.777z"/>
	<path fill="#5BA745" d="M115.444,91.305c-0.223,0.008-0.449,0.018-0.673,0.034c-1.217,0.053-2.432,0.158-3.641,0.298
		c-0.173,0.023-0.344,0.062-0.515,0.079c-1.026,0.136-2.051,0.288-3.069,0.486c-0.322,0.066-0.639,0.152-0.96,0.219
		c-0.86,0.185-1.721,0.371-2.57,0.599c-0.404,0.106-0.802,0.241-1.204,0.361c-0.758,0.222-1.52,0.445-2.268,0.698
		c-0.448,0.155-0.89,0.334-1.334,0.499c-0.691,0.255-1.386,0.509-2.066,0.798c-0.473,0.198-0.935,0.421-1.404,0.632
		c-0.64,0.287-1.282,0.572-1.915,0.887c-0.483,0.242-0.959,0.506-1.438,0.758c-0.596,0.321-1.194,0.636-1.779,0.974
		c-0.491,0.287-0.974,0.595-1.457,0.893c-0.554,0.341-1.107,0.683-1.65,1.046c-0.491,0.329-0.973,0.68-1.455,1.021
		c-0.514,0.368-1.025,0.731-1.527,1.112c-0.486,0.372-0.959,0.758-1.435,1.143c-0.475,0.39-0.953,0.774-1.417,1.178
		c-0.472,0.411-0.935,0.841-1.397,1.261c-0.437,0.407-0.872,0.814-1.3,1.234c-0.457,0.456-0.903,0.916-1.349,1.384
		c-0.402,0.421-0.801,0.85-1.19,1.284c-0.433,0.485-0.859,0.984-1.276,1.484c-0.371,0.441-0.734,0.888-1.088,1.341
		c-0.409,0.523-0.811,1.059-1.2,1.592c-0.333,0.456-0.657,0.917-0.974,1.38c-0.381,0.557-0.751,1.125-1.112,1.694
		c-0.295,0.47-0.583,0.942-0.863,1.419c-0.348,0.592-0.687,1.188-1.012,1.791c-0.113,0.205-0.216,0.426-0.326,0.636
		c1.329,0.114,2.669,0.179,4.026,0.179l-0.09-0.302l8.031-0.443c0.394-0.063,0.783-0.152,1.169-0.231
		c0.178-0.305,0.396-0.603,0.583-0.9c0.325-0.536,0.665-1.062,1.02-1.586c0.427-0.641,0.876-1.271,1.341-1.892
		c0.397-0.534,0.798-1.06,1.221-1.581c0.49-0.604,1.01-1.195,1.534-1.782c0.46-0.513,0.915-1.021,1.402-1.516
		c0.558-0.572,1.149-1.121,1.742-1.673c0.513-0.473,1.017-0.95,1.552-1.404c0.636-0.539,1.308-1.042,1.975-1.556
		c0.555-0.42,1.096-0.849,1.672-1.243c0.731-0.507,1.504-0.963,2.272-1.428c0.568-0.351,1.119-0.714,1.71-1.034
		c0.895-0.49,1.839-0.919,2.781-1.348c0.51-0.237,0.997-0.503,1.521-0.718c1.492-0.618,3.033-1.165,4.63-1.617
		c1.347-0.441,2.711-0.796,4.08-1.099c1.296-2.251,2.406-4.613,3.313-7.075C115.854,91.282,115.649,91.295,115.444,91.305z"/>
	<path fill="#5BA745" d="M106.787,114.191c0.22-0.499,0.541-0.937,0.786-1.423c-0.61,0.569-1.216,1.148-1.853,1.691
		C106.079,114.38,106.424,114.258,106.787,114.191z"/>
	<path fill="#5BA745" d="M106.214,106.814c-1.642,0.53-3.261,1.139-4.837,1.877c-0.093,0.044-0.183,0.097-0.273,0.142
		c-1.562,0.745-3.081,1.599-4.555,2.535c-0.155,0.1-0.317,0.192-0.471,0.288c-1.467,0.964-2.874,2.032-4.223,3.171
		c-0.205,0.175-0.408,0.351-0.609,0.525c-1.345,1.183-2.63,2.436-3.823,3.779c-0.021,0.022-0.04,0.049-0.061,0.074
		c7.442-2.517,14.044-6.864,19.254-12.514C106.481,106.729,106.35,106.775,106.214,106.814z"/>
	<polygon fill="#8A1840" points="60.883,73.495 61.049,73.353 61.188,73.28 61.328,73.204 61.492,73.062 61.654,72.913 
		61.77,72.797 61.888,72.676 62.004,72.554 62.098,72.392 62.21,72.267 62.304,72.104 62.398,71.94 62.444,71.796 62.539,71.63 
		62.628,71.459 62.72,71.294 62.74,71.106 62.784,70.966 62.805,70.773 62.83,70.589 62.796,70.419 62.869,70.208 62.843,70.047 
		62.865,69.858 62.839,69.694 62.812,69.527 62.761,69.317 62.74,69.155 62.667,69.011 62.637,68.851 62.542,68.657 62.444,68.472 
		62.372,68.334 62.273,68.151 62.128,67.989 62.057,67.847 61.91,67.684 61.794,67.568 61.671,67.452 61.551,67.338 61.363,67.2 
		61.264,67.132 61.03,67.017 60.932,66.949 60.771,66.854 60.601,66.765 60.46,66.721 60.319,66.675 60.102,66.614 59.909,66.59 
		59.721,66.567 59.582,66.528 59.395,66.506 59.202,66.487 59.04,66.515 58.873,66.537 58.685,66.52 58.521,66.542 58.354,66.567 
		58.166,66.666 57.927,66.675 57.79,66.747 57.649,66.819 57.461,66.918 57.319,66.99 57.134,67.089 56.995,67.159 56.806,67.375 
		56.664,67.448 56.546,67.568 56.43,67.688 56.34,67.859 56.174,68.004 56.058,68.12 55.968,68.284 55.92,68.429 55.83,68.595 
		55.736,68.766 55.694,68.903 55.672,69.092 55.579,69.259 55.535,69.401 55.515,69.589 55.444,69.806 55.398,69.948 55.454,70.154 
		55.454,70.276 55.454,70.509 55.484,70.675 55.506,70.837 55.535,71.003 55.629,71.192 55.655,71.352 55.708,71.568 55.806,71.752 
		55.877,71.89 55.972,72.079 56.071,72.263 56.189,72.378 56.31,72.497 56.386,72.634 56.524,72.797 56.646,72.913 56.767,73.028 
		56.933,73.119 57.049,73.237 57.174,73.353 57.341,73.442 57.551,73.512 57.717,73.598 57.859,73.644 58.076,73.712 58.218,73.756 
		58.359,73.801 58.546,73.824 58.739,73.841 58.877,73.885 59.07,73.905 59.237,73.88 59.471,73.872 59.637,73.85 59.801,73.824 
		59.964,73.797 60.134,73.769 60.39,73.692 60.529,73.617 60.716,73.523 	"/>
	<polygon fill="#8A1840" points="68.452,73.949 68.59,73.876 68.829,73.872 69.012,73.773 69.201,73.67 69.365,73.646 
		69.555,73.547 69.693,73.478 69.86,73.333 69.998,73.261 70.19,73.158 70.275,72.996 70.42,72.921 70.558,72.733 70.703,72.661 
		70.747,72.517 70.858,72.396 70.952,72.229 71.092,72.037 71.136,71.898 71.23,71.729 71.276,71.583 71.371,71.419 71.389,71.231 
		71.41,71.043 71.43,70.854 71.451,70.666 71.474,70.476 71.518,70.333 71.469,70.123 71.513,69.983 71.465,69.769 71.438,69.602 
		71.41,69.44 71.362,69.229 71.307,69.02 71.237,68.88 71.213,68.715 71.115,68.525 71.042,68.387 70.896,68.226 70.801,68.037 
		70.681,67.925 70.537,67.759 70.416,67.643 70.293,67.531 70.178,67.415 69.989,67.279 69.869,67.159 69.703,67.069 69.56,67.027 
		69.389,66.936 69.223,66.844 69.078,66.8 68.918,66.706 68.73,66.688 68.585,66.642 68.393,66.625 68.227,66.53 67.994,66.54 
		67.828,66.563 67.662,66.59 67.523,66.543 67.353,66.572 67.143,66.625 66.977,66.651 66.814,66.675 66.626,66.773 66.459,66.8 
		66.271,66.898 66.133,66.971 65.945,67.069 65.805,67.142 65.641,67.288 65.453,67.382 65.291,67.526 65.174,67.647 65.057,67.767 
		64.94,67.89 64.802,68.078 64.73,68.177 64.568,68.319 64.524,68.459 64.457,68.674 64.362,68.84 64.316,68.985 64.272,69.127 
		64.205,69.337 64.115,69.503 64.093,69.692 64.115,69.858 64.071,69.997 64.054,70.189 64.076,70.351 64.123,70.561 64.106,70.75 
		64.128,70.916 64.161,71.082 64.205,71.288 64.231,71.455 64.332,71.643 64.43,71.831 64.5,71.969 64.594,72.153 64.671,72.297 
		64.743,72.436 64.888,72.598 65.03,72.759 65.146,72.875 65.273,72.992 65.461,73.131 65.555,73.2 65.698,73.359 65.847,73.405 
		66.008,73.495 66.133,73.611 66.3,73.705 66.51,73.773 66.72,73.834 66.869,73.88 67.011,73.924 67.2,73.941 67.388,73.966 
		67.528,74.01 67.764,74.01 67.883,74.005 68.119,74.001 68.264,73.924 	"/>
	<polygon fill="#8A1840" points="76.369,62.239 76.343,62.073 76.293,61.862 76.266,61.701 76.167,61.512 76.142,61.35 
		76.041,61.162 76.019,60.998 75.877,60.835 75.805,60.695 75.655,60.529 75.584,60.391 75.44,60.229 75.297,60.069 75.179,59.951 
		75.06,59.835 74.894,59.745 74.773,59.629 74.58,59.489 74.437,59.45 74.276,59.355 74.131,59.316 73.96,59.22 73.823,59.176 
		73.606,59.108 73.417,59.086 73.276,59.047 73.088,59.023 72.894,59.005 72.706,58.988 72.54,59.01 72.378,59.038 72.185,59.018 
		72.025,59.042 71.809,59.095 71.67,59.172 71.458,59.215 71.32,59.292 71.132,59.391 70.992,59.463 70.799,59.562 70.661,59.633 
		70.473,59.732 70.311,59.877 70.168,59.947 70.05,60.069 69.886,60.216 69.797,60.383 69.683,60.499 69.562,60.621 69.473,60.786 
		69.378,60.952 69.284,61.118 69.245,61.26 69.15,61.427 69.131,61.615 69.087,61.759 69.015,61.975 68.971,62.118 68.949,62.307 
		68.903,62.445 68.907,62.679 68.934,62.848 68.958,63.01 68.938,63.198 68.966,63.364 69.015,63.574 69.065,63.785 69.137,63.925 
		69.189,64.135 69.262,64.279 69.361,64.463 69.433,64.602 69.531,64.79 69.648,64.901 69.747,65.09 69.862,65.208 70.007,65.368 
		70.127,65.486 70.298,65.574 70.414,65.692 70.537,65.808 70.701,65.897 70.867,65.988 71.034,66.082 71.176,66.125 71.393,66.193 
		71.556,66.283 71.697,66.329 71.863,66.3 72.005,66.347 72.223,66.41 72.386,66.386 72.575,66.403 72.758,66.427 72.952,66.449 
		73.091,66.373 73.328,66.368 73.468,66.296 73.661,66.313 73.845,66.215 74.034,66.117 74.199,66.09 74.388,65.996 74.526,65.919 
		74.687,65.778 74.833,65.705 75.02,65.606 75.114,65.44 75.297,65.341 75.396,65.175 75.53,65.105 75.625,64.938 75.715,64.768 
		75.809,64.602 75.924,64.481 75.992,64.271 76.036,64.126 76.154,64.01 76.248,63.839 76.266,63.651 76.287,63.468 76.334,63.323 
		76.355,63.135 76.378,62.946 76.396,62.754 76.373,62.594 76.396,62.406 	"/>
	<polygon fill="#8A1840" points="67.208,78.208 67.204,78.089 67.16,77.878 67.156,77.756 67.062,77.572 67.058,77.457 
		67.011,77.248 66.959,77.152 66.886,77.011 66.836,76.802 66.716,76.688 66.643,76.548 66.545,76.359 66.429,76.24 66.306,76.129 
		66.236,75.986 66.113,75.875 66.02,75.803 65.873,75.641 65.732,75.601 65.613,75.479 65.47,75.439 65.325,75.39 65.159,75.299 
		65.021,75.255 64.922,75.188 64.706,75.12 64.568,75.076 64.375,75.059 64.264,75.059 64.071,75.041 63.953,75.041 63.764,75.023 
		63.645,75.023 63.434,75.076 63.268,75.098 63.151,75.098 63.007,75.174 62.84,75.201 62.63,75.25 62.493,75.327 62.398,75.376 
		62.21,75.474 62.07,75.547 61.903,75.691 61.787,75.807 61.649,75.884 61.582,75.978 61.415,76.12 61.347,76.218 61.227,76.342 
		61.137,76.503 61.065,76.6 61.021,76.74 60.905,76.862 60.815,77.029 60.769,77.169 60.748,77.357 60.702,77.503 60.658,77.646 
		60.635,77.834 60.594,77.974 60.55,78.115 60.573,78.281 60.577,78.4 60.623,78.609 60.627,78.728 60.649,78.894 60.675,79.062 
		60.702,79.218 60.774,79.363 60.824,79.572 60.901,79.714 60.97,79.849 61.065,80.041 61.142,80.181 61.235,80.243 61.334,80.436 
		61.428,80.501 61.573,80.663 61.671,80.733 61.81,80.896 61.908,80.961 62.03,81.08 62.151,81.196 62.291,81.236 62.433,81.285 
		62.6,81.378 62.738,81.425 62.882,81.468 63.024,81.513 63.169,81.557 63.361,81.574 63.55,81.597 63.666,81.591 63.811,81.636 
		63.973,81.613 64.137,81.587 64.255,81.583 64.469,81.53 64.585,81.521 64.752,81.504 64.894,81.431 65.102,81.378 65.267,81.346 
		65.455,81.255 65.544,81.206 65.667,81.084 65.827,80.935 65.972,80.869 66.087,80.75 66.155,80.653 66.271,80.531 66.438,80.392 
		66.506,80.296 66.622,80.174 66.666,80.032 66.788,79.915 66.832,79.771 66.921,79.599 66.972,79.463 67.062,79.287 67.058,79.175 
		67.105,79.035 67.123,78.841 67.169,78.702 67.213,78.562 67.187,78.394 	"/>
	<polygon fill="#8A1840" points="72.571,81.527 72.785,81.475 72.925,81.398 73.114,81.302 73.251,81.232 73.396,81.153 
		73.461,81.057 73.649,80.961 73.768,80.848 73.885,80.724 73.952,80.628 74.117,80.479 74.185,80.392 74.299,80.27 74.394,80.104 
		74.44,79.963 74.488,79.819 74.579,79.651 74.624,79.509 74.736,79.389 74.714,79.228 74.757,79.082 74.775,78.894 74.826,78.755 
		74.848,78.562 74.843,78.446 74.822,78.281 74.864,78.136 74.817,77.927 74.812,77.809 74.784,77.643 74.757,77.483 74.685,77.341 
		74.659,77.178 74.565,76.99 74.516,76.897 74.418,76.714 74.347,76.564 74.201,76.407 74.153,76.314 74.009,76.15 73.915,76.083 
		73.772,75.921 73.678,75.854 73.508,75.761 73.387,75.647 73.297,75.577 73.147,75.531 72.982,75.441 72.815,75.352 72.673,75.308 
		72.601,75.281 72.391,75.218 72.247,75.172 72.058,75.15 71.916,75.107 71.797,75.111 71.605,75.087 71.441,75.115 71.322,75.12 
		71.112,75.172 70.996,75.172 70.83,75.201 70.664,75.227 70.479,75.321 70.359,75.325 70.221,75.398 70.077,75.47 69.888,75.566 
		69.75,75.643 69.588,75.783 69.49,75.831 69.374,75.954 69.212,76.097 69.1,76.224 69.023,76.312 68.912,76.438 68.79,76.557 
		68.7,76.722 68.629,76.819 68.588,76.963 68.494,77.125 68.45,77.265 68.426,77.457 68.31,77.576 68.266,77.721 68.292,77.878 
		68.271,78.071 68.224,78.212 68.224,78.334 68.253,78.495 68.279,78.662 68.283,78.78 68.283,79.009 68.283,79.131 68.382,79.314 
		68.387,79.433 68.48,79.621 68.557,79.761 68.651,79.949 68.7,80.038 68.798,80.227 68.87,80.366 68.991,80.479 69.062,80.62 
		69.185,80.737 69.328,80.782 69.468,80.944 69.566,81.014 69.683,81.127 69.777,81.196 69.943,81.293 70.085,81.333 70.208,81.451 
		70.35,81.495 70.561,81.565 70.683,81.557 70.825,81.601 71.014,81.627 71.153,81.666 71.296,81.709 71.489,81.732 71.655,81.705 
		71.822,81.68 71.933,81.676 72.1,81.653 72.314,81.601 72.477,81.574 	"/>
	<polygon fill="#8A1840" points="79.029,84.945 79.029,84.832 79.007,84.665 78.979,84.498 78.908,84.363 78.881,84.198 
		78.781,84.009 78.734,83.913 78.635,83.728 78.563,83.588 78.424,83.43 78.371,83.334 78.23,83.176 78.131,83.106 77.989,82.94 
		77.891,82.87 77.724,82.781 77.604,82.669 77.51,82.6 77.37,82.55 77.199,82.458 77.034,82.371 76.896,82.321 76.817,82.302 
		76.608,82.239 76.463,82.187 76.274,82.169 76.137,82.126 76.017,82.13 75.828,82.109 75.662,82.14 75.546,82.14 75.329,82.187 
		75.213,82.187 75.047,82.222 74.887,82.239 74.699,82.345 74.577,82.345 74.438,82.414 74.294,82.494 74.109,82.59 73.967,82.665 
		73.801,82.809 73.711,82.857 73.595,82.976 73.433,83.119 73.317,83.238 73.245,83.334 73.129,83.453 73.01,83.571 72.918,83.737 
		72.851,83.833 72.801,83.979 72.714,84.141 72.667,84.289 72.645,84.473 72.527,84.595 72.483,84.74 72.509,84.901 72.487,85.091 
		72.441,85.234 72.446,85.353 72.474,85.516 72.496,85.681 72.496,85.796 72.5,86.031 72.504,86.146 72.603,86.339 72.603,86.457 
		72.702,86.64 72.774,86.781 72.872,86.968 72.918,87.065 73.017,87.245 73.088,87.389 73.21,87.503 73.283,87.643 73.403,87.758 
		73.544,87.801 73.688,87.963 73.783,88.037 73.903,88.146 73.998,88.221 74.164,88.308 74.302,88.354 74.424,88.466 74.567,88.516 
		74.777,88.579 74.9,88.579 75.042,88.624 75.23,88.646 75.375,88.686 75.517,88.728 75.705,88.755 75.872,88.725 76.039,88.698 
		76.154,88.694 76.32,88.672 76.527,88.615 76.693,88.589 76.791,88.542 77.006,88.493 77.142,88.423 77.33,88.321 77.468,88.248 
		77.613,88.172 77.683,88.082 77.871,87.98 77.985,87.861 78.101,87.745 78.169,87.652 78.335,87.503 78.405,87.407 78.523,87.285 
		78.612,87.116 78.656,86.981 78.7,86.838 78.794,86.671 78.841,86.531 78.956,86.411 78.935,86.246 78.975,86.101 78.998,85.908 
		79.042,85.77 79.064,85.585 79.06,85.468 79.034,85.3 79.084,85.157 	"/>
	<polygon fill="#8A1840" points="79.091,71.139 79.107,70.951 79.087,70.784 79.009,70.64 78.943,70.502 78.912,70.34 
		78.839,70.202 78.74,70.014 78.624,69.896 78.547,69.757 78.478,69.614 78.359,69.501 78.195,69.412 78.046,69.252 77.995,69.155 
		77.831,69.063 77.709,68.95 77.571,68.906 77.473,68.838 77.306,68.744 77.14,68.654 76.998,68.61 76.857,68.564 76.716,68.521 
		76.574,68.474 76.382,68.453 76.24,68.407 76.096,68.367 75.933,68.394 75.77,68.422 75.65,68.422 75.436,68.47 75.292,68.431 
		75.149,68.503 74.987,68.529 74.85,68.599 74.704,68.676 74.567,68.748 74.378,68.847 74.239,68.919 74.096,68.996 73.913,69.09 
		73.819,69.138 73.651,69.283 73.508,69.354 73.417,69.519 73.352,69.618 73.234,69.74 73.118,69.86 73.002,69.973 72.958,70.117 
		72.908,70.259 72.822,70.425 72.774,70.57 72.728,70.712 72.684,70.852 72.638,70.995 72.616,71.187 72.594,71.376 72.548,71.516 
		72.548,71.632 72.579,71.798 72.603,71.962 72.557,72.107 72.608,72.313 72.634,72.479 72.71,72.619 72.732,72.783 72.805,72.923 
		72.881,73.062 72.976,73.25 73.05,73.39 73.123,73.528 73.194,73.672 73.316,73.788 73.387,73.929 73.508,74.04 73.625,74.156 
		73.794,74.25 73.913,74.366 74.007,74.434 74.105,74.502 74.267,74.596 74.409,74.64 74.58,74.73 74.722,74.775 74.889,74.866 
		75.005,74.861 75.146,74.905 75.337,74.927 75.48,74.973 75.598,74.968 75.791,74.99 75.979,75.008 76.142,74.982 76.262,74.982 
		76.423,74.953 76.587,74.927 76.775,74.828 76.898,74.828 77.083,74.73 77.248,74.704 77.391,74.631 77.58,74.533 77.691,74.413 
		77.836,74.34 77.951,74.22 78.09,74.147 78.209,74.027 78.274,73.933 78.44,73.788 78.513,73.689 78.602,73.523 78.696,73.357 
		78.765,73.263 78.808,73.121 78.901,72.95 78.948,72.812 79.02,72.718 79.038,72.523 79.082,72.385 79.104,72.196 79.149,72.054 
		79.124,71.888 79.168,71.748 79.168,71.627 79.185,71.443 79.117,71.299 	"/>
	<path fill="#5BA745" d="M59.782,52.267l-0.166-0.095l-0.121-0.116l-0.094-0.068l-0.123-0.116l-0.188-0.133l-0.121-0.119
		l-0.12-0.116l-0.12-0.115l-0.123-0.117l-0.116-0.113l-0.094-0.07l-0.051-0.094l-0.12-0.118l-0.094-0.065l-0.073-0.141l-0.099-0.068
		l-0.12-0.116l-0.094-0.072l-0.095-0.061h-0.116l-0.073-0.022l-0.043,0.143l-0.118,0.116l-0.022,0.188l-0.022,0.188l0.031,0.282
		l-0.026,0.072l0.004,0.116l-0.045,0.144l0.028,0.167l-0.05,0.138l0.077,0.145v0.116l0.026,0.166l0.028,0.161l0.044,0.096
		l0.026,0.164l0.072,0.141l0.026,0.164l0.076,0.141l0.073,0.14l0.072,0.143l0.026,0.162l0.071,0.143l0.073,0.136l0.074,0.138
		l0.073,0.14l0.098,0.193l0.116,0.112l0.077,0.14l0.068,0.143l0.145,0.162l0.146,0.16l0.121,0.114l0.118,0.116l0.193,0.138
		l0.188,0.141l0.164,0.089l0.171,0.09l0.216,0.07l0.16,0.092l0.265,0.04l0.217,0.067l0.254,0.044l0.073,0.018h0.116l0.167-0.026
		l0.145,0.046l0.116-0.004l0.167-0.024l0.121-0.005l0.166-0.026h0.116l0.21-0.05l0.116-0.005l0.212-0.052l0.099-0.046l-0.044,0.248
		l-0.044,0.256l-0.039,0.261l-0.119,0.241l-0.043,0.256l-0.018,0.309l-0.09,0.282l-0.017,0.305l-0.024,0.072l-0.022,0.188
		l-0.022,0.189l0.004,0.12l-0.05,0.141v0.12l-0.018,0.188v0.116l0.027,0.162v0.123l-0.018,0.189l0.05,0.091l-0.018,0.16
		l-0.127-0.072l-0.171-0.09l-0.164-0.089l-0.118-0.119l-0.169-0.088l-0.14-0.05l-0.145-0.041l-0.142-0.044l-0.145-0.044l-0.07-0.028
		l-0.234,0.004l-0.193,0.099l-0.111,0.127l-0.095,0.167l0.026,0.159l0.055,0.213l0.068,0.138l0.048,0.094l0.055,0.094l0.066,0.142
		l0.05,0.092l0.12,0.116l0.072,0.138l0.121,0.116l0.05,0.095l0.116,0.114l0.05,0.094l0.12,0.116l0.048,0.094l0.123,0.111
		l0.044,0.099l0.099,0.063l0.022,0.167l0.05,0.094v0.117l-0.021,0.072L61.312,62.2l-0.065-0.024l-0.123,0.004l-0.099,0.046
		l-0.156,0.026l-0.098,0.05l-0.188-0.022l-0.094,0.048l-0.212,0.055l-0.164,0.026l-0.166,0.022l-0.21,0.054l-0.167,0.026
		l-0.167,0.026l-0.188,0.099l-0.162,0.024l-0.215,0.052l-0.14,0.073l-0.21,0.05l-0.167,0.026l-0.16,0.03l-0.145,0.073l-0.116,0.004
		l-0.145,0.072l-0.138,0.07l-0.094,0.05l-0.094,0.051l-0.051,0.021l-0.111,0.12v0.116l0.022,0.05l0.166,0.085l0.145,0.048
		l0.287,0.086h0.116l0.116-0.004l0.217,0.072l0.188,0.018l0.188,0.021l0.164-0.03l0.217,0.067h0.232l0.144,0.04l0.259,0.045
		l0.188,0.018l0.19,0.022l0.215,0.064l0.188,0.021l0.215,0.067l0.144,0.044l0.215,0.068l0.188,0.018l0.162,0.089l0.171,0.095
		l0.099,0.072l0.164,0.085l0.123,0.116l0.116,0.116l0.047,0.095l0.119,0.118l0.048,0.092l0.123,0.118l0.099,0.184l0.095,0.184
		l0.098,0.188l0.07,0.138l0.077,0.144l0.094,0.068l0.094,0.188l0.099,0.065l0.118-0.004l0.117-0.116l-0.004-0.116l0.116-0.123
		l0.072-0.099l0.116-0.121l0.116-0.116l0.118-0.12l0.16-0.145l0.123-0.116l0.16-0.149l0.118-0.116l0.116-0.123l0.138-0.07
		l0.14-0.077l0.193-0.094l0.094-0.055l0.138-0.07l0.14-0.072l0.167-0.026l0.188-0.101l0.21-0.048l0.231-0.004l0.217-0.05
		l0.094-0.052l0.165-0.022l0.094-0.055h0.118l0.21-0.048l0.21-0.05l0.167-0.031l0.166-0.024l0.167-0.026l0.116-0.004l0.048-0.022
		l0.072,0.022l-0.026-0.048l-0.026-0.162v-0.118l-0.006-0.236l-0.048-0.095l0.044-0.138l-0.022-0.167v-0.118l0.017-0.188
		l-0.021-0.165l0.042-0.144l0.021-0.188l0.022-0.188l0.018-0.188l-0.022-0.166l0.017-0.188l0.022-0.188l0.024-0.188l0.066-0.215
		l0.09-0.167l0.024-0.188l0.021-0.189l0.018-0.188l0.094-0.171l0.05-0.138l0.09-0.167l0.116-0.121l0.065-0.094l0.094-0.166
		l0.046-0.145l0.116-0.121l0.094-0.166l0.068-0.094L69.3,58.64l0.111-0.122l0.116-0.117l0.118-0.12l0.07-0.099l0.118-0.123
		l0.09-0.16l0.065-0.099l0.167-0.144l0.072-0.094l0.116-0.121l0.068-0.094l0.073-0.099l0.065-0.093l0.123-0.119l0.116-0.121
		l0.162-0.143l0.044-0.144l0.141-0.077l0.048-0.022l0.05-0.022l-0.033-0.05l-0.111,0.004l-0.077-0.022h-0.116l-0.166,0.026
		l-0.189-0.022l-0.167,0.031l-0.282,0.029h-0.116l-0.143,0.07l-0.162,0.033h-0.121l-0.213,0.048l-0.137,0.072l-0.167,0.031
		l-0.138,0.072l-0.188,0.098l-0.216,0.051l-0.184,0.098l-0.188,0.098l-0.094,0.05l-0.094,0.048l-0.138,0.072l-0.099,0.048
		l-0.089,0.046l-0.072,0.099l-0.094,0.044l-0.116,0.123l-0.094,0.048l-0.14,0.077L66.99,57.88l-0.09,0.046l-0.21,0.171l-0.166,0.143
		l-0.16,0.144l-0.162,0.143l-0.141,0.193l-0.166,0.144l-0.138,0.193l-0.116,0.121l-0.14,0.188l-0.065,0.099l-0.119,0.123l-0.09,0.16
		l-0.048,0.145l-0.09,0.171l-0.116,0.116l-0.033,0.096l-0.013-0.083l-0.049-0.099l0.022-0.188v-0.116l-0.055-0.212v-0.116
		l-0.026-0.165l0.021-0.188l-0.026-0.167l0.022-0.188l-0.026-0.163l0.017-0.188l-0.021-0.167l0.017-0.192l0.022-0.184l0.024-0.188
		l0.044-0.144l0.022-0.188l0.022-0.188l0.089-0.164l0.02-0.188l0.048-0.145l0.09-0.167l0.094-0.165l0.09-0.17l0.094-0.167
		l0.046-0.14l0.112-0.237l0.073-0.214l0.137-0.193l0.068-0.212l0.138-0.188l0.09-0.287l0.093-0.167l0.117-0.236l0.114-0.244
		l0.12-0.164l0.015-0.009l0.117-0.118l0.166-0.147l0.163-0.145l0.115-0.116l0.112-0.127l0.14-0.182l0.165-0.149l0.118-0.12
		l0.094-0.167l0.116-0.121l0.133-0.188l0.119-0.123l0.094-0.164l0.116-0.123l0.094-0.166l0.162-0.143l0.044-0.145l0.068-0.116
		l0.122,0.066l0.102,0.099l0.201,0.098l0.16,0.114l0.162,0.116l0.145,0.082l0.155,0.116l0.167,0.116l0.239,0.077l0.16,0.116
		l0.225,0.136l0.202,0.099l0.201,0.094l0.163,0.116l0.26,0.111l0.184,0.06l0.236,0.076l0.202,0.092l0.265,0.118l0.221,0.036
		l0.202,0.094l0.237,0.076l0.225,0.036l0.201,0.099l0.237,0.072l0.208,0.098l0.254,0.116l0.126,0.037l0.121,0.035l0.121,0.042
		l0.099,0.094l0.116,0.044l0.126,0.038l0.138,0.069l0.123,0.042l0.12,0.035l0.139,0.082l0.145,0.076l0.162,0.013l0.121,0.04
		l0.137,0.077l0.162,0.017l0.117,0.042l0.148,0.077l0.18,0.052l0.121,0.042l0.179,0.057l0.179,0.055l0.12,0.035l0.186,0.059
		l0.179,0.055l0.123,0.04l0.218,0.035l0.12,0.042l0.223,0.031l0.183,0.059l0.22,0.036l0.162,0.017l0.214,0.038l0.167,0.018
		l0.236,0.072h0.201l0.238,0.074l0.202-0.004l0.218,0.033l0.223,0.035l0.265,0.018l0.236-0.026l0.222,0.035l0.262,0.02l0.261,0.013
		l0.238-0.022l0.259,0.013l0.261,0.018l0.3-0.009l0.302-0.004l0.3-0.004l0.237-0.029l0.346-0.026l0.257,0.017l0.277-0.043
		l0.339-0.028l0.285-0.044l0.276-0.044l0.301-0.004l0.279-0.046l0.281-0.046l0.261-0.083l0.314-0.068l0.282-0.046l0.235-0.026
		l0.303-0.103l0.278-0.046l0.258-0.079l0.282-0.05l0.257-0.081l0.261-0.089l0.218-0.062l0.301-0.103l0.217-0.063l0.261-0.085
		l0.258-0.085l0.239-0.121l0.219-0.068l0.261-0.081l0.202-0.107l0.251-0.085l0.206-0.104l0.214-0.063l0.239-0.12l0.202-0.103
		l0.195-0.107l0.198-0.099l0.196-0.103l0.226-0.068l0.151-0.085l0.203-0.103l0.202-0.099l0.197-0.108l0.138-0.118l0.157-0.083
		l0.162-0.087l0.157-0.079l0.16-0.081l0.197-0.107l0.117-0.06l0.161-0.085l0.098-0.103l0.158-0.082l0.141-0.12l0.12-0.064
		l0.116-0.061l0.081-0.042l0.139-0.125l0.075-0.042l0.086-0.04l0.095-0.099l0.08-0.042l0.077-0.043l0.137-0.121l0.163-0.081
		l0.06-0.081l0.056-0.085l0.082-0.042l0.099-0.096l0.117-0.167l0.079-0.141l0.059-0.081V49.91l0.035-0.12l-0.038-0.081l-0.103-0.099
		l-0.1-0.093l-0.121-0.04L96.651,49.4l-0.218-0.042l-0.225-0.031l-0.158-0.018h-0.1l-0.16-0.013h-0.098l-0.202,0.004l-0.161-0.018
		l-0.215-0.037l-0.166-0.018l-0.262-0.013l-0.18-0.055l-0.219-0.04l-0.221-0.035l-0.159-0.02l-0.141-0.076l-0.12-0.036h-0.104
		l-0.123-0.035l-0.154-0.018l-0.123-0.037l-0.159-0.018l-0.123-0.038l-0.16-0.018l-0.141-0.074l-0.157-0.02l-0.124-0.04
		l-0.162-0.018l-0.139-0.077l-0.12-0.035l-0.18-0.06l-0.162-0.018l-0.184-0.055l-0.158-0.017l-0.142-0.077l-0.18-0.059l-0.18-0.057
		l-0.12-0.035l-0.222-0.038l-0.143-0.077l-0.179-0.057l-0.144-0.077l-0.181-0.055l-0.184-0.058l-0.177-0.059l-0.181-0.055
		l-0.18-0.053l-0.145-0.081l-0.219-0.035l-0.162-0.118l-0.18-0.052l-0.184-0.063l-0.201-0.094l-0.18-0.055l-0.201-0.096
		l-0.141-0.077l-0.184-0.06l-0.201-0.094l-0.16-0.117L86.59,46.65l-0.139-0.081l-0.206-0.092l-0.18-0.059l-0.203-0.094l-0.202-0.095
		l-0.137-0.076l-0.205-0.099l-0.2-0.093l-0.138-0.077l-0.185-0.058l-0.201-0.094l-0.162-0.123l-0.184-0.052l-0.137-0.077
		l-0.181-0.06l-0.202-0.098l-0.141-0.073l-0.142-0.079l-0.179-0.055l-0.145-0.081l-0.202-0.094l-0.179-0.059l-0.139-0.075
		l-0.127-0.038l-0.197-0.098l-0.125-0.035l-0.196-0.095l-0.162-0.017l-0.141-0.081l-0.142-0.077L81.33,44.31l-0.18-0.052
		l-0.12-0.037l-0.163-0.018l-0.175-0.057l-0.183-0.055l-0.185-0.059l-0.115-0.035l-0.224-0.036l-0.157-0.019l-0.181-0.058
		l-0.162-0.017l-0.184-0.055l-0.156-0.017l-0.22-0.038l-0.162-0.017l-0.161-0.018l-0.201,0.004l-0.162-0.018l-0.196,0.004
		l-0.221-0.035l-0.202,0.004l-0.197,0.005l-0.161-0.018l-0.202,0.004l-0.201,0.004l-0.196,0.004l-0.181,0.04l-0.235,0.026
		l-0.244,0.024l-0.201,0.004l-0.221,0.061l-0.236,0.024l-0.243,0.026L74.9,43.894l-0.215,0.063l-0.243,0.022l-0.256,0.085
		l-0.219,0.062l-0.218,0.067l-0.223,0.064l-0.218,0.061l-0.219,0.064l-0.197,0.107l-0.204,0.098l-0.173,0.046l-0.243,0.125
		L72.11,44.84l-0.192,0.107l-0.197,0.098l-0.139,0.123l-0.203,0.107l-0.156,0.082l-0.179,0.142l-0.18,0.145l-0.14,0.12l-0.197,0.104
		l-0.138,0.125l-0.141,0.118l-0.137,0.125l-0.141,0.125l-0.133,0.118l-0.02,0.018l-0.006-0.043l-0.072-0.141l-0.026-0.164V46.03
		l-0.094-0.184l-0.004-0.123l-0.048-0.206l-0.006-0.12l-0.07-0.14l-0.028-0.16l-0.026-0.166l-0.022-0.167l-0.031-0.166l-0.024-0.167
		l-0.026-0.16l-0.026-0.167L69.26,43.9l-0.026-0.167l-0.072-0.145l-0.03-0.164l-0.022-0.162l-0.028-0.162l-0.026-0.171l-0.026-0.16
		l-0.05-0.212l-0.026-0.167l-0.05-0.21v-0.117l-0.004-0.238v-0.116l-0.053-0.21l-0.021-0.162l-0.029-0.165l-0.026-0.167
		l-0.026-0.166l-0.029-0.162l-0.043-0.21l-0.004-0.121l-0.05-0.208l-0.005-0.12l-0.004-0.232V39.67l0.024-0.193v-0.116l-0.029-0.167
		l-0.026-0.16v-0.119l-0.026-0.164l0.022-0.188l-0.004-0.118V38.33l-0.021-0.167l0.018-0.304l0.017-0.192l0.044-0.256l-0.004-0.237
		l-0.004-0.238l0.094-0.167l0.068-0.21l0.022-0.188l0.068-0.214l0.067-0.21l0.048-0.144l0.114-0.237l0.087-0.166l0.118-0.239
		l0.066-0.214l0.09-0.167l0.145-0.192l0.138-0.193l0.119-0.239l0.089-0.16l0.184-0.221l0.16-0.142l0.098-0.167l0.184-0.214
		l0.119-0.123l0.16-0.143l0.167-0.145l0.188-0.099l0.163-0.142l0.188-0.094l0.139-0.077l0.188-0.094l0.14-0.077l0.214-0.048
		l0.141-0.076l0.236-0.004l0.167-0.024l0.184,0.02l0.142,0.044l0.196,0.017h0.115l0.167,0.09l0.142,0.046l0.146,0.043l0.094,0.068
		l0.164,0.094l0.099,0.068l0.119,0.116l0.094,0.068l0.048,0.094l0.122,0.111l0.049,0.099l0.05,0.09l0.117,0.116l0.053,0.21
		l0.123,0.239l0.049,0.206l0.098,0.188l0.004,0.235l0.025,0.164l-0.025,0.188l0.028,0.166l-0.045,0.145l-0.017,0.189l-0.095,0.166
		L74.95,35.6l-0.09,0.166l-0.089,0.165l-0.09,0.166l-0.142,0.188l-0.117,0.12l-0.167,0.145l-0.139,0.076l-0.161,0.139l-0.217,0.054
		l-0.164,0.026l-0.162,0.029l-0.188-0.02l-0.189-0.138l-0.144-0.046l-0.077-0.142l-0.048-0.09l-0.022-0.283l0.086-0.287l0.092-0.283
		l0.113-0.238v-0.116v-0.117l-0.122-0.118l-0.048-0.094l-0.116-0.117l-0.123,0.005h-0.121l-0.09,0.05l-0.188,0.099l-0.073,0.094
		l-0.116,0.121l-0.067,0.214l-0.116,0.118l-0.039,0.265l-0.095,0.164l-0.045,0.256l-0.022,0.193l-0.017,0.188l0.048,0.206
		l0.094,0.188l0.033,0.167l0.094,0.188l0.143,0.163l0.145,0.162l0.099,0.066l0.115,0.118l0.193,0.134l0.166,0.093l0.143,0.044
		l0.189,0.02l0.188,0.022l0.145,0.044h0.116l0.189,0.019h0.114l0.171-0.032l0.09-0.048l0.167-0.029l0.188-0.099l0.209-0.048
		l0.095-0.046l0.093-0.052l0.095-0.046l0.095-0.047l0.119-0.123l0.093-0.049l0.116-0.116l0.138-0.076l0.094-0.05l0.073-0.095
		l0.089-0.164l0.117-0.123l0.123-0.116l0.11-0.12l0.05-0.145l0.161-0.142l0.046-0.145l0.138-0.193l0.047-0.138l0.092-0.166
		l0.063-0.215l0.094-0.166l0.067-0.213l0.073-0.214l0.021-0.189l0.04-0.26l-0.004-0.236l-0.006-0.234l-0.047-0.094l-0.023-0.167
		l-0.006-0.116V33.56l-0.049-0.095v-0.121l-0.071-0.14l-0.004-0.112l-0.073-0.142l-0.048-0.097l-0.072-0.138v-0.116l-0.071-0.145
		l-0.049-0.09l-0.076-0.138l-0.048-0.094l-0.119-0.116l-0.048-0.096l-0.095-0.07l-0.077-0.135l-0.094-0.07l-0.072-0.141
		l-0.094-0.068l-0.078-0.142l-0.141-0.046l-0.119-0.111l-0.099-0.073l-0.116-0.112l-0.095-0.072l-0.141-0.04l-0.124-0.116
		l-0.093-0.071l-0.144-0.046l-0.118-0.116l-0.142-0.039l-0.145-0.046l-0.259-0.044l-0.238-0.111l-0.188-0.02l-0.144-0.048
		l-0.187-0.018H73.08l-0.188-0.018l-0.116,0.005l-0.167,0.022l-0.142-0.046l-0.238,0.009l-0.162,0.028l-0.165,0.022l-0.167,0.026
		l-0.21,0.055l-0.14,0.072l-0.167,0.026l-0.189,0.099l-0.21,0.048l-0.188,0.094l-0.167,0.033l-0.188,0.099l-0.21,0.048l-0.145,0.072
		l-0.138,0.073l-0.162,0.148l-0.143,0.07l-0.188,0.094l-0.141,0.077l-0.116,0.12l-0.188,0.099l-0.117,0.123l-0.118,0.115
		L68.498,31.9l-0.138,0.073l-0.119,0.12l-0.116,0.123l-0.116,0.12l-0.09,0.163l-0.116,0.125l-0.118,0.116l-0.12,0.121l-0.068,0.096
		l-0.116,0.121l-0.094,0.166l-0.04,0.143l-0.166,0.145l-0.044,0.142l-0.046,0.14l-0.067,0.214l-0.07,0.094l-0.09,0.17l-0.094,0.162
		l-0.045,0.143L66.58,34.74l-0.046,0.142l-0.022,0.189l-0.046,0.14l-0.065,0.214l-0.09,0.167l-0.05,0.138l0.028,0.166l-0.024,0.188
		l-0.043,0.143l-0.024,0.19l-0.018,0.189l-0.044,0.142l-0.022,0.188l-0.019,0.188v0.116l-0.022,0.195l0.026,0.16l-0.021,0.188
		l0.054,0.212l-0.05,0.143l-0.021,0.188l0.026,0.166l0.004,0.232l0.029,0.166l0.026,0.167l0.026,0.162l0.05,0.21l0.022,0.166
		l-0.018,0.189l0.021,0.159l0.026,0.167l0.05,0.21l-0.021,0.188l0.052,0.217l0.026,0.164l0.024,0.162l0.053,0.21l0.024,0.163
		l0.048,0.214l0.031,0.163l0.05,0.21l0.048,0.212l0.024,0.165l0.03,0.166l0.05,0.21l-0.024,0.188l0.05,0.213l0.022,0.166
		l0.004,0.232l0.055,0.21l0.026,0.166l0.022,0.163l0.077,0.26l0.026,0.16l0.024,0.166l-0.019,0.188l0.05,0.217l0.004,0.231
		l0.026,0.163l-0.022,0.192l0.022,0.162l0.004,0.237l0.028,0.162l-0.024,0.192l-0.021,0.189l0.031,0.162l-0.044,0.263l0.022,0.162
		l-0.018,0.188l-0.022,0.188l-0.018,0.188l-0.072,0.214l-0.021,0.188l-0.02,0.188l-0.022,0.188l-0.089,0.167l-0.022,0.188
		l-0.094,0.171l-0.022,0.188l-0.064,0.21l-0.093,0.167l-0.095,0.166l-0.068,0.215l-0.09,0.166l-0.094,0.171l-0.094,0.162
		l-0.138,0.192l-0.09,0.165l-0.14,0.194l-0.139,0.189l-0.089,0.168l-0.116,0.118l-0.072,0.095l-0.116,0.121l-0.114,0.12l-0.099,0.05
		l-0.094,0.048l-0.116,0.121L64.695,52.2l-0.142,0.07l-0.094,0.05l-0.14,0.077l-0.094,0.043l-0.21,0.05l-0.232,0.125h-0.123
		l-0.138,0.077h-0.121h-0.118l-0.258,0.077l-0.162,0.026l-0.287,0.031h-0.238l-0.228,0.004l-0.217,0.055L61.7,52.869l-0.164,0.026
		h-0.234l-0.139-0.046l-0.216-0.066l-0.21-0.063l-0.149-0.044l-0.138-0.046l-0.219-0.068l-0.162-0.089l-0.167-0.092L59.782,52.267z
		 M76.748,52.678l-0.163-0.018l-0.162-0.017l-0.218-0.038l-0.162-0.018l-0.161-0.017l-0.179-0.055l-0.22-0.035l-0.121-0.035
		l-0.162-0.02l-0.18-0.057l-0.156-0.02l-0.165-0.018l-0.134-0.076l-0.166-0.018l-0.142-0.077l-0.119-0.035l-0.158-0.018
		l-0.125-0.035l-0.162-0.02l-0.137-0.077l-0.124-0.039l-0.12-0.035l-0.162-0.018l-0.121-0.038l-0.121-0.039l-0.14-0.077
		l-0.236-0.077l-0.243-0.076l-0.265-0.111l-0.202-0.099l-0.201-0.094l-0.197-0.099l-0.243-0.072l-0.206-0.099l-0.201-0.094
		l-0.133-0.077l-0.208-0.099l-0.138-0.077l-0.202-0.099l-0.12-0.061l0.023-0.007l0.079-0.04l0.118-0.063l0.142-0.022l0.099-0.004
		l0.123-0.059l0.099-0.004l0.076-0.04l0.142-0.022l0.117-0.063l0.081-0.042l0.141-0.022l0.138-0.022l0.081-0.04l0.138-0.024
		l0.081-0.044l0.141-0.024l0.08-0.039l0.138-0.022l0.141-0.022l0.116-0.064h0.103l0.103-0.004l0.116-0.059h0.099l0.114-0.057
		l0.198,0.094l0.112,0.077l0.193,0.107l0.107,0.081l0.251,0.077l0.133,0.134l0.107,0.081l0.198,0.108l0.192,0.103l0.139,0.135
		l0.193,0.103l0.139,0.133l0.194,0.107l0.192,0.105l0.138,0.138l0.145,0.129l0.215,0.158l0.11,0.081L75.9,51.78l0.169,0.185
		l0.188,0.109l0.085,0.159l0.114,0.082l0.133,0.136l0.061,0.103l0.141,0.137l0.002,0.003L76.748,52.678z M70.462,48.562l0.16-0.086
		l0.081-0.042l0.06-0.079l0.12-0.059l0.077-0.04l0.081-0.046l0.057-0.081l0.123-0.062l0.081-0.041l0.12-0.062l0.077-0.042
		l0.057-0.081l0.123-0.061l0.116-0.063l0.081-0.042l0.121-0.062l0.116-0.063l0.081-0.04l0.12-0.063l0.119-0.059l0.121-0.061
		l0.077-0.046l0.121-0.061l0.115-0.059l0.123-0.063l0.12-0.062l0.122-0.063l0.077-0.042l0.157-0.083l0.085-0.042l0.116-0.063
		l0.116-0.058l0.145-0.021l0.121-0.064l0.116-0.064l0.121-0.061l0.14-0.024l0.081-0.039l0.133-0.022l0.123-0.064l0.139-0.021
		l0.12-0.063l0.141-0.022l0.143-0.018l0.135-0.028l0.121-0.061l0.139-0.024l0.139-0.022l0.18-0.04l0.102-0.004h0.198l0.103-0.004
		l0.181-0.045h0.098l0.179-0.044l0.122,0.035l0.139-0.018l0.139-0.022l0.162,0.014l0.14-0.022l0.16,0.018l0.14-0.022l0.144-0.024
		l0.156,0.02l0.162,0.017l0.158,0.018l0.159,0.013l0.145-0.021l0.197-0.004h0.103l0.157,0.017l0.16,0.018L79.537,46l0.16,0.02
		l0.162,0.018l0.14-0.021l0.138,0.074l0.142-0.022l0.159,0.018l0.122,0.037l0.159,0.018l0.163,0.017l0.116,0.042l0.162,0.013
		l0.114,0.035l0.163,0.018l0.12,0.042l0.162,0.018l0.121,0.035l0.122,0.037l0.12,0.035l0.163,0.018l0.155,0.02l0.225,0.035
		l0.22,0.133l0.261,0.02l0.243,0.074l0.078,0.059l0.122,0.036l0.125,0.037l0.181,0.058l0.115,0.041l0.158,0.014l0.143,0.081
		l0.161,0.014l0.141,0.076l0.142,0.081l0.22,0.035l0.161,0.013l0.145,0.081l0.18,0.055l0.202,0.099l0.219,0.03l0.18,0.059
		l0.18,0.057l0.184,0.059l0.242,0.077l0.181,0.052l0.222,0.038l0.181,0.057l0.201,0.094l0.243,0.077l0.18,0.055l0.214,0.035
		l0.207,0.099l0.243,0.072l0.18,0.057l0.218,0.038l0.206,0.099l0.215,0.035l0.204,0.094l0.163,0.02l0.24,0.07l0.178,0.063
		l0.18,0.054l0.219,0.035l0.201,0.099l0.162,0.014l0.206,0.094l0.158,0.021l0.179,0.055l0.144,0.077l0.162,0.017l0.2,0.095
		l0.157,0.021l0.121,0.033l0.18,0.058l0.125,0.035l0.123,0.042l0.277,0.055l0.238,0.079l0.165,0.013l0.179,0.06l0.121,0.037
		l0.122,0.035h0.1l0.119,0.039l0.121,0.038l0.08,0.057l0.121,0.037l0.081,0.058l-0.021,0.059L94.248,50.3l-0.085,0.041l-0.116,0.064
		l-0.121,0.061l-0.099,0.103l-0.139,0.02l-0.081,0.043l-0.181,0.044l-0.115,0.059l-0.186,0.046l-0.114,0.062l-0.22,0.063
		l-0.181,0.046l-0.08,0.039l-0.14,0.022l-0.075,0.04l-0.145,0.024l-0.076,0.039l-0.162,0.085h-0.098l-0.122,0.063l-0.137,0.022
		l-0.119,0.059l-0.137,0.022L91.2,51.437l-0.14,0.022h-0.1l-0.12,0.063l-0.162,0.083l-0.141,0.02L90.4,51.646l-0.142,0.026
		l-0.158,0.077l-0.178,0.044l-0.142,0.028l-0.139,0.022l-0.12,0.059l-0.195,0.004l-0.162,0.085l-0.141,0.021l-0.139,0.022
		l-0.162,0.081l-0.179,0.043l-0.138,0.024l-0.123,0.057l-0.198,0.004l-0.159,0.085l-0.135,0.022l-0.181,0.042l-0.184,0.05
		l-0.174,0.039l-0.144,0.022l-0.14,0.022l-0.18,0.046l-0.181,0.039l-0.138,0.024l-0.179,0.044l-0.18,0.04l-0.138,0.029l-0.184,0.039
		l-0.118,0.06l-0.202,0.008l-0.18,0.04l-0.138,0.022l-0.18,0.045l-0.2,0.005l-0.181,0.042l-0.157-0.02l-0.185,0.046l-0.195,0.004
		l-0.198,0.005l-0.185,0.039l-0.157-0.013l-0.241,0.021l-0.157-0.013h-0.206l-0.176,0.042l-0.219-0.033l-0.184,0.042l-0.197,0.005
		l-0.162-0.018l-0.237,0.026l-0.224-0.037h-0.197l-0.202,0.006l-0.197,0.004l-0.226-0.037l-0.196,0.004l-0.201,0.004l-0.227-0.035
		l-0.154-0.018l-0.202,0.004l-0.199,0.005l-0.223-0.04l-0.158-0.015l-0.218-0.035l-0.202,0.005l-0.219-0.035l-0.162-0.02
		l-0.222-0.04l-0.2,0.009l-0.181-0.06l-0.05-0.009l-0.013-0.026l-0.084-0.155l-0.087-0.167l-0.11-0.215l-0.113-0.217l-0.111-0.218
		l-0.032-0.189l-0.192-0.243l-0.118-0.214l-0.111-0.214l-0.081-0.162l-0.143-0.274l-0.085-0.162l-0.163-0.189l-0.084-0.164
		l-0.111-0.213L75.9,49.652l-0.145-0.135l-0.086-0.16l-0.061-0.063l0.072-0.002l0.184-0.04l0.2-0.004l0.214-0.064l0.2-0.004
		l0.202-0.004l0.198-0.004l0.243-0.022l0.161,0.013l0.236-0.021l0.185-0.046l0.237-0.022l0.16,0.018l0.198-0.005l0.261,0.014
		l0.225,0.037h0.197l0.177,0.024l0.01,0.011l0.084,0.155l0.104,0.197l0.04,0.081l0.042,0.076l0.06,0.121l0.064,0.118l0.039,0.079
		l0.046,0.077l0.059,0.123l0.04,0.079l0.005,0.099l0.081,0.158l0.04,0.081l0.062,0.116l0.039,0.081l0.024,0.14l0.04,0.081
		l0.063,0.116l0.039,0.18l0.08,0.156l0.046,0.18l0.04,0.179l0.022,0.14l0.021,0.138l0.024,0.14l0.043,0.077l0.023,0.142l0.041,0.077
		v0.103l0.081,0.055l0.073-0.042l0.043-0.116l0.079-0.145l0.101-0.202l0.012-0.158l0.04-0.12l0.021-0.162l0.034-0.121l0.039-0.12
		l-0.021-0.14l-0.005-0.202l0.041-0.121l-0.047-0.175l-0.021-0.14l-0.081-0.16v-0.197l-0.067-0.221l-0.018-0.138l-0.063-0.221
		l0.017-0.155l-0.082-0.158l-0.004-0.031l0.096,0.046l0.261,0.017l0.185,0.059l0.218,0.031l0.237,0.081l0.22,0.03l0.225,0.036
		l0.238,0.076h0.2l0.242,0.073l0.227,0.035l0.214,0.037l0.225,0.035l0.16,0.02l0.221,0.035l0.22,0.035l0.161,0.018l0.16,0.02
		l0.158,0.018l0.202-0.004l0.122,0.035l0.154,0.017l0.162,0.02l0.104-0.004l0.158,0.018l0.2-0.004l0.077-0.042l0.081-0.039
		l-0.058-0.024l-0.121-0.035l-0.081-0.057l-0.081-0.059l-0.12-0.037l-0.082-0.057l-0.179-0.06l-0.121-0.035l-0.145-0.076
		l-0.179-0.057l-0.181-0.06l-0.2-0.093l-0.186-0.06l-0.179-0.052l-0.283-0.06l-0.201-0.094l-0.219-0.035l-0.203-0.099l-0.276-0.054
		l-0.248-0.077l-0.237-0.076l-0.241-0.073l-0.243-0.074l-0.237-0.072l-0.242-0.081l-0.248-0.072l-0.273-0.057l-0.202-0.094
		l-0.26-0.014l-0.223-0.037l-0.261-0.116l-0.22-0.035l-0.218-0.038l-0.185-0.059l-0.221-0.031l-0.18-0.057h-0.202l-0.161-0.014
		l-0.219-0.038l-0.158-0.017l-0.184-0.054l-0.143,0.022h-0.197l-0.122-0.036l-0.159-0.018l-0.142,0.022l-0.196,0.004l-0.144,0.022
		l-0.195,0.005l-0.122-0.04l-0.198,0.004l-0.185,0.046l-0.157-0.02l-0.177,0.046h-0.203l-0.202,0.004l-0.178,0.046l-0.198,0.005
		l-0.141,0.018l-0.142,0.026h-0.098l-0.099,0.004h-0.104l-0.139,0.022l-0.104,0.004l-0.133,0.018l-0.144,0.024l-0.094,0.004
		l-0.166-0.018h-0.099l-0.179,0.044l-0.098,0.004h-0.102l-0.137,0.022l-0.143,0.02l-0.101,0.004l-0.138,0.022l-0.12,0.062
		l-0.123-0.04l-0.074,0.043l-0.145,0.024l-0.12,0.064h-0.095l-0.098,0.004l-0.145,0.021l-0.085,0.04H71.45l-0.138,0.021
		l-0.123,0.064l-0.074,0.042l-0.204,0.004l-0.178,0.043l-0.179,0.044l-0.158,0.081h-0.118l0.048-0.043L70.462,48.562z"/>
	<path fill="#66554C" d="M123.786,77.523l20.606-6.279l-21.441-5.486c-1.938-10.221-6.893-19.368-13.923-26.475l11.091-16.058
		l-14.423,12.986c-6.255-5.31-13.778-9.132-22.053-10.972L77.833,6.183l-4.56,17.851c-0.367-0.004-0.722-0.05-1.09-0.05
		c-11.497,0.077-22.061,3.996-30.584,10.457L28.107,19.593l9.863,17.866c-8.215,7.493-13.985,17.577-15.994,28.962L0.571,72.21
		l20.733,6.011c0.583,10.456,4.287,20.067,10.214,27.937l-11.998,16.641l15.015-12.988c9.489,10.448,23.155,17.007,38.334,16.907
		c0.421,0,0.826-0.057,1.242-0.076l5.255,17.264l4.748-18.541c8.112-1.879,15.476-5.688,21.605-10.903
		c0.637-0.543,1.242-1.122,1.853-1.691c1.453-1.366,2.857-2.783,4.146-4.308l16.603,10.956l-13.756-14.653
		C120.033,96.979,123.358,87.626,123.786,77.523z M87.341,119.215c0.025-0.026,0.056-0.053,0.082-0.083
		c1.193-1.344,2.479-2.597,3.823-3.779c0.204-0.175,0.404-0.351,0.609-0.525c1.349-1.139,2.756-2.207,4.223-3.171
		c0.156-0.096,0.315-0.188,0.471-0.288c1.474-0.937,2.992-1.79,4.555-2.535c0.091-0.045,0.179-0.098,0.273-0.142
		c1.576-0.738,3.195-1.347,4.837-1.877c0.155-0.045,0.3-0.122,0.453-0.175c-0.015,0.017-0.036,0.033-0.051,0.053
		c-5.21,5.649-11.812,9.997-19.254,12.514C87.355,119.206,87.347,119.215,87.341,119.215z M108.671,99.443
		c-1.597,0.452-3.138,0.999-4.63,1.617c-0.523,0.215-1.011,0.48-1.521,0.718c-0.942,0.429-1.887,0.857-2.781,1.348
		c-0.589,0.32-1.142,0.684-1.71,1.034c-0.769,0.465-1.541,0.921-2.272,1.428c-0.576,0.395-1.117,0.827-1.672,1.243
		c-0.667,0.514-1.339,1.017-1.975,1.556c-0.535,0.45-1.042,0.932-1.552,1.404c-0.593,0.552-1.185,1.101-1.742,1.673
		c-0.485,0.494-0.944,1.007-1.402,1.516c-0.524,0.587-1.044,1.179-1.534,1.782c-0.423,0.521-0.823,1.047-1.221,1.581
		c-0.465,0.621-0.914,1.251-1.341,1.892c-0.354,0.524-0.694,1.05-1.02,1.586c-0.188,0.298-0.405,0.596-0.583,0.9
		c-0.386,0.079-0.775,0.168-1.169,0.231l-8.031,0.443l0.09,0.302c-1.357,0-2.698-0.064-4.026-0.179
		c-0.011-0.004-0.02-0.004-0.031-0.004c0.111-0.216,0.241-0.417,0.356-0.632c0.325-0.604,0.664-1.199,1.012-1.791
		c0.28-0.477,0.568-0.949,0.863-1.419c0.361-0.569,0.731-1.138,1.112-1.694c0.317-0.463,0.642-0.924,0.974-1.38
		c0.39-0.533,0.791-1.068,1.2-1.592c0.354-0.453,0.718-0.894,1.088-1.341c0.417-0.5,0.843-0.999,1.276-1.484
		c0.39-0.435,0.788-0.863,1.19-1.284c0.445-0.468,0.892-0.928,1.349-1.384c0.428-0.42,0.863-0.821,1.3-1.234
		c0.463-0.42,0.926-0.85,1.397-1.261c0.464-0.403,0.94-0.788,1.417-1.178c0.476-0.385,0.948-0.771,1.435-1.143
		c0.502-0.381,1.014-0.744,1.527-1.112c0.482-0.342,0.964-0.692,1.455-1.021c0.543-0.363,1.097-0.705,1.65-1.046
		c0.483-0.298,0.966-0.605,1.457-0.893c0.585-0.338,1.184-0.652,1.779-0.974c0.479-0.252,0.954-0.516,1.438-0.758
		c0.633-0.314,1.275-0.6,1.915-0.887c0.47-0.211,0.932-0.434,1.404-0.632c0.681-0.289,1.375-0.543,2.066-0.798
		c0.444-0.165,0.886-0.344,1.334-0.499c0.748-0.253,1.51-0.477,2.268-0.698c0.402-0.12,0.8-0.255,1.204-0.361
		c0.85-0.228,1.71-0.414,2.57-0.599c0.321-0.066,0.638-0.152,0.96-0.219c1.019-0.198,2.043-0.351,3.069-0.486
		c0.171-0.018,0.342-0.056,0.515-0.079c1.209-0.14,2.421-0.245,3.637-0.298c0.228-0.017,0.45-0.026,0.677-0.034
		c0.205-0.01,0.41-0.022,0.62-0.035c-0.907,2.462-2.018,4.824-3.313,7.075C111.382,98.647,110.018,99.002,108.671,99.443z
		 M67.528,116.666c-0.467,0.894-0.872,1.787-1.279,2.681c-0.271,0.596-0.609,1.198-0.854,1.794c-3.893-0.603-7.63-1.693-11.144-3.21
		c-0.006-0.004-0.016-0.004-0.022-0.007c0.236-0.496,0.478-0.985,0.725-1.476c0.011-0.019,0.02-0.044,0.031-0.062
		c0.002,0,0.002-0.004,0.002-0.004c-1.27-0.685-2.649-1.274-4.072-1.81c-0.362-0.136-0.729-0.248-1.1-0.375
		c-1.156-0.386-2.349-0.724-3.576-0.998c-0.236-0.053-0.453-0.146-0.691-0.192c-2.693-1.937-5.169-4.143-7.389-6.596
		c-0.004-0.005-0.014-0.009-0.018-0.017c0.109,0.008,0.21,0.044,0.32,0.051c1.606,0.155,3.183,0.396,4.714,0.74
		c0.037,0.011,0.074,0.014,0.109,0.023c1.513,0.351,2.972,0.809,4.396,1.33c0.235,0.087,0.471,0.176,0.703,0.262
		c1.351,0.526,2.656,1.126,3.913,1.797c0.226,0.118,0.445,0.245,0.668,0.371c1.264,0.705,2.492,1.459,3.641,2.29
		c0.011,0.01,0.024,0.019,0.035,0.026c0.002,0,0.002,0,0.002,0c0.438-0.771,0.935-1.502,1.403-2.25
		c1.349-2.154,2.776-4.26,4.351-6.261c-0.157-0.084-0.333-0.159-0.495-0.242c-0.893-0.468-1.804-0.928-2.754-1.354
		c-0.49-0.214-1.007-0.403-1.511-0.603c-0.65-0.264-1.289-0.54-1.961-0.781c-0.602-0.215-1.226-0.393-1.843-0.591
		c-0.6-0.187-1.193-0.389-1.807-0.563c-0.681-0.185-1.379-0.338-2.073-0.5c-0.573-0.132-1.141-0.275-1.723-0.394
		c-0.738-0.142-1.491-0.255-2.24-0.367c-0.558-0.08-1.112-0.176-1.675-0.245c-0.779-0.089-1.568-0.146-2.358-0.202
		c-0.547-0.036-1.095-0.079-1.646-0.105c-0.804-0.026-1.611-0.018-2.419-0.01c-0.552,0.01-1.102,0.01-1.656,0.036
		c-0.806,0.04-1.611,0.112-2.416,0.192c-0.355,0.036-0.708,0.043-1.062,0.089c-1.165-1.949-2.191-3.986-3.07-6.102
		c0.287-0.021,0.574-0.056,0.861-0.066c1.587-0.139,3.161-0.205,4.722-0.201c10.923,0.062,21.116,3.644,29.319,9.363l0,0
		c2.345-2.707,4.896-5.229,7.622-7.558c0,0,0-0.006,0.002-0.006c0,0,0,0-0.002,0c-1.52-0.923-3.126-1.79-4.797-2.605
		c-0.552-0.271-1.15-0.498-1.717-0.753c-1.145-0.517-2.284-1.037-3.481-1.496c-0.751-0.291-1.542-0.526-2.31-0.789
		c-1.07-0.363-2.132-0.736-3.236-1.052c-0.867-0.248-1.763-0.445-2.647-0.655c-1.053-0.26-2.097-0.525-3.173-0.731
		c-0.95-0.185-1.917-0.311-2.883-0.456c-1.047-0.158-2.089-0.314-3.151-0.425c-1.007-0.098-2.026-0.148-3.042-0.201
		c-1.044-0.057-2.082-0.109-3.133-0.114c-1.047-0.008-2.095,0.039-3.146,0.088c-1.038,0.044-2.071,0.105-3.111,0.206
		c-1.062,0.105-2.121,0.249-3.184,0.416c-0.576,0.087-1.154,0.113-1.729,0.22c-0.501-2.086-0.814-4.24-1.029-6.421
		c-0.133-1.366-0.26-2.732-0.271-4.133C25.999,50.175,46.536,29.301,71.995,29.01l-0.098,0.368l4.045-0.215
		c23.832,1.743,42.782,21.577,42.942,45.884c0.004,0.801-0.062,1.588-0.097,2.375l0,0c-0.096,2.111-0.281,4.194-0.648,6.218
		c-0.029,0.005-0.062,0.014-0.093,0.018c-2.318,0.166-4.64,0.464-6.951,0.903c-0.048,0.007-0.093,0.021-0.141,0.033
		c-2.315,0.446-4.621,1.035-6.894,1.787c-0.006,0-0.013,0-0.02,0.004c-2.452,0.707-4.809,1.573-7.075,2.563
		c-0.782,0.345-1.496,0.778-2.256,1.155c-1.44,0.705-2.892,1.399-4.247,2.21c-0.861,0.518-1.645,1.108-2.472,1.661
		c-1.16,0.778-2.342,1.532-3.431,2.383c-0.833,0.639-1.586,1.338-2.377,2.019c-0.982,0.844-1.981,1.668-2.898,2.561
		c-0.762,0.739-1.449,1.523-2.162,2.291c-0.838,0.896-1.684,1.78-2.453,2.71c-0.674,0.814-1.277,1.645-1.899,2.479
		c-0.698,0.933-1.399,1.856-2.032,2.806c-0.573,0.864-1.081,1.738-1.6,2.614C68.579,114.78,68.021,115.711,67.528,116.666z"/>
	<path fill="#8A1840" d="M31.862,72.899c0.395,0.171,0.686,0.661,0.642,1.086l-0.107,1.148c-0.041,0.426,0.206,0.564,0.548,0.306
		l0.924-0.692c0.344-0.261,0.909-0.265,1.258-0.022l0.938,0.673c0.35,0.251,0.595,0.098,0.542-0.322l-0.14-1.149
		c-0.053-0.424,0.225-0.913,0.615-1.092l1.048-0.482c0.39-0.182,0.39-0.459-0.009-0.631l-1.062-0.449
		c-0.396-0.17-0.687-0.655-0.646-1.081l0.107-1.152c0.039-0.427-0.206-0.565-0.548-0.304l-0.924,0.694
		c-0.341,0.256-0.906,0.265-1.254,0.02l-0.942-0.669c-0.35-0.25-0.593-0.107-0.542,0.319l0.142,1.147
		c0.05,0.425-0.223,0.92-0.613,1.099l-1.049,0.479c-0.392,0.18-0.388,0.462,0.009,0.628L31.862,72.899z"/>
	<path fill="#8A1840" d="M36.543,56.067c0.396,0.165,0.683,0.648,0.646,1.08l-0.112,1.147c-0.039,0.427,0.206,0.566,0.548,0.306
		l0.924-0.692c0.346-0.26,0.906-0.269,1.259-0.017l0.944,0.667c0.344,0.248,0.591,0.103,0.537-0.322l-0.139-1.15
		c-0.054-0.424,0.224-0.913,0.613-1.092l1.051-0.479c0.39-0.184,0.386-0.462-0.008-0.633l-1.064-0.448
		c-0.394-0.167-0.685-0.655-0.646-1.082l0.106-1.152c0.042-0.424-0.205-0.564-0.545-0.304l-0.923,0.694
		c-0.341,0.26-0.907,0.265-1.257,0.013l-0.941-0.663c-0.35-0.25-0.591-0.107-0.539,0.319l0.14,1.148
		c0.053,0.422-0.226,0.919-0.615,1.099l-1.049,0.48c-0.39,0.175-0.385,0.461,0.009,0.627L36.543,56.067z"/>
	<path fill="#8A1840" d="M53.452,38.884c0.394,0.167,0.685,0.655,0.642,1.082l-0.107,1.147c-0.042,0.427,0.206,0.569,0.547,0.309
		l0.924-0.694c0.344-0.26,0.904-0.265,1.259-0.018l0.937,0.668c0.35,0.252,0.596,0.103,0.542-0.317l-0.14-1.153
		c-0.053-0.425,0.226-0.916,0.615-1.095l1.049-0.479c0.389-0.18,0.385-0.461-0.009-0.63l-1.062-0.449
		c-0.396-0.166-0.688-0.654-0.646-1.082l0.107-1.147c0.04-0.427-0.206-0.565-0.548-0.309L56.64,35.41
		c-0.34,0.26-0.904,0.269-1.254,0.018l-0.941-0.668c-0.351-0.251-0.594-0.103-0.543,0.324l0.143,1.143
		c0.05,0.425-0.223,0.919-0.614,1.099l-1.048,0.479c-0.396,0.178-0.385,0.462,0.008,0.63L53.452,38.884z"/>
	<path fill="#8A1840" d="M84.539,38.613c0.397,0.164,0.688,0.654,0.646,1.08l-0.11,1.146c-0.04,0.432,0.205,0.568,0.547,0.312
		l0.929-0.696c0.341-0.26,0.906-0.265,1.253-0.018l0.943,0.668c0.345,0.252,0.587,0.103,0.542-0.318l-0.143-1.147
		c-0.055-0.427,0.224-0.92,0.614-1.099l1.047-0.479c0.393-0.18,0.389-0.461-0.008-0.633l-1.062-0.449
		c-0.394-0.17-0.685-0.654-0.646-1.082l0.106-1.147c0.042-0.425-0.2-0.564-0.546-0.309l-0.924,0.694
		c-0.339,0.261-0.905,0.265-1.256,0.02l-0.94-0.67c-0.35-0.245-0.592-0.107-0.543,0.324l0.144,1.148
		c0.053,0.422-0.226,0.915-0.614,1.094l-1.05,0.479c-0.39,0.18-0.385,0.463,0.01,0.633L84.539,38.613z"/>
	<path fill="#8A1840" d="M103.062,54.721c0.395,0.167,0.688,0.655,0.642,1.082l-0.107,1.147c-0.04,0.427,0.206,0.565,0.548,0.305
		l0.924-0.69c0.343-0.26,0.904-0.27,1.259-0.021l0.941,0.672c0.351,0.248,0.59,0.103,0.544-0.324l-0.143-1.146
		c-0.055-0.425,0.218-0.916,0.612-1.096l1.049-0.479c0.392-0.182,0.385-0.462-0.008-0.631l-1.063-0.449
		c-0.393-0.17-0.687-0.655-0.645-1.082l0.107-1.151c0.039-0.427-0.207-0.56-0.548-0.304l-0.924,0.694
		c-0.34,0.256-0.909,0.265-1.255,0.013l-0.941-0.663c-0.351-0.252-0.595-0.107-0.543,0.32l0.145,1.147
		c0.048,0.42-0.226,0.919-0.616,1.099l-1.048,0.479c-0.391,0.175-0.391,0.461,0.009,0.626L103.062,54.721z"/>
	<path fill="#8A1840" d="M108.721,68.623l0.138,1.15c0.05,0.42-0.224,0.919-0.616,1.097l-1.048,0.475
		c-0.39,0.18-0.385,0.464,0.009,0.633l1.064,0.449c0.393,0.167,0.686,0.655,0.641,1.082l-0.104,1.152
		c-0.044,0.424,0.204,0.564,0.543,0.304l0.924-0.694c0.346-0.256,0.91-0.265,1.261-0.017l0.937,0.667
		c0.35,0.251,0.596,0.103,0.549-0.32l-0.146-1.146c-0.054-0.427,0.219-0.92,0.615-1.1l1.05-0.479c0.394-0.18,0.385-0.458-0.01-0.632
		l-1.062-0.446c-0.396-0.167-0.687-0.655-0.646-1.082l0.108-1.147c0.04-0.427-0.207-0.564-0.548-0.311l-0.923,0.696
		c-0.342,0.261-0.906,0.27-1.257,0.018l-0.942-0.667C108.908,68.054,108.666,68.199,108.721,68.623z"/>
</g>
</svg>
