<?xml version="1.0" encoding="utf-8"?>
<!-- Generator: Adobe Illustrator 18.1.0, SVG Export Plug-In . SVG Version: 6.00 Build 0)  -->
<svg version="1.1" id="Layer_1" xmlns="http://www.w3.org/2000/svg" xmlns:xlink="http://www.w3.org/1999/xlink" x="0px" y="0px"
	 viewBox="0 0 150 150" enable-background="new 0 0 150 150" xml:space="preserve">
<g>
	<path fill-rule="evenodd" clip-rule="evenodd" fill="#BC282E" d="M117.4,133.3l-16.7,9.7c-8.2,4.8-12.9,4.8-21.1,0l-18.1-10.4
		v-31.5L117.4,133.3z"/>
	<path fill-rule="evenodd" clip-rule="evenodd" fill="#89181A" d="M52.9,127.6L36.1,118c-8.2-4.7-10.6-8.8-10.6-18.3V78.8L52.8,63
		L52.9,127.6z"/>
	<path fill-rule="evenodd" clip-rule="evenodd" fill="#BC282E" d="M25.5,68.9V49.6c0-9.5,2.4-13.6,10.6-18.3l18-10.4l27.3,15.8
		L25.5,68.9z"/>
	<path fill-rule="evenodd" clip-rule="evenodd" fill="#89181A" d="M62.8,15.9l16.7-9.7c8.2-4.8,12.9-4.8,21.1,0l18.1,10.4v31.5
		L62.8,15.9z"/>
</g>
</svg>
