<?xml version="1.0" encoding="iso-8859-1"?>
<!-- Generator: Adobe Illustrator 13.0.0, SVG Export Plug-In . SVG Version: 6.00 Build 14948)  -->
<!DOCTYPE svg PUBLIC "-//W3C//DTD SVG 1.1//EN" "http://www.w3.org/Graphics/SVG/1.1/DTD/svg11.dtd">
<svg version="1.1" id="Layer_1" xmlns="http://www.w3.org/2000/svg" xmlns:xlink="http://www.w3.org/1999/xlink" x="0px" y="0px"
	 width="600px" height="600px" viewBox="0 0 600 600" enable-background="new 0 0 600 600" xml:space="preserve">
<g>
	<g>
		<g>
			<radialGradient id="SVGID_1_" cx="310.5" cy="38.5" r="167" gradientUnits="userSpaceOnUse">
				<stop  offset="0" style="stop-color:#FFFFFF"/>
				<stop  offset="1" style="stop-color:#BD242A"/>
			</radialGradient>
			<path fill="url(#SVGID_1_)" d="M119.034,280.125c11.714-47.622,42.19-90.601,83.896-116.534
				c35.595-22.691,79.295-31.894,121.068-26.066c44.056,5.97,85.274,29.145,114.11,62.925
				c27.784,32.161,44.322,73.747,46.592,116.183c2.678,40.227-8.411,80.635-28.928,115.145
				c48.219-60.075,53.893-149.429,15.961-216.142c-20.543-36.85-53.184-66.859-91.731-84.03
				c-46.892-21.164-102.187-22.729-150.347-4.693c-41.406,15.432-77.205,45.37-99.917,83.288
				c-40.814,66.413-37.188,157.99,11.322,219.475C115.2,384.969,105.988,330.426,119.034,280.125z"/>
			
				<radialGradient id="SVGID_2_" cx="-251.7852" cy="910.4434" r="260.5212" gradientTransform="matrix(1 0 0 1 588 -693)" gradientUnits="userSpaceOnUse">
				<stop  offset="0" style="stop-color:#00ABEB"/>
				<stop  offset="0.029" style="stop-color:#22AAE7"/>
				<stop  offset="0.0603" style="stop-color:#3FA8E3"/>
				<stop  offset="0.0914" style="stop-color:#53A8E0"/>
				<stop  offset="0.122" style="stop-color:#60A7DF"/>
				<stop  offset="0.1515" style="stop-color:#64A7DE"/>
				<stop  offset="0.3273" style="stop-color:#4674B7"/>
				<stop  offset="0.5212" style="stop-color:#333B8B"/>
				<stop  offset="0.7576" style="stop-color:#211C51"/>
				<stop  offset="1" style="stop-color:#171043"/>
			</radialGradient>
			<path fill="url(#SVGID_2_)" d="M495.59,455.607c-55.045-22.253-114.561-31.272-173.66-33.283
				c-68.573-1.477-137.952,3.938-204.322,22.411c-22.044,6.634-44.443,13.709-64.197,25.892
				c64.831-19.441,132.574-26.867,199.98-29.387c99.195-3.455,201.673,3.32,293.814,43.287
				C531.977,471.728,513.62,463.501,495.59,455.607z"/>
		</g>
	</g>
	<g>
		
			<radialGradient id="SVGID_3_" cx="-251.7739" cy="910.4629" r="260.5045" gradientTransform="matrix(1 0 0 1 588 -693)" gradientUnits="userSpaceOnUse">
			<stop  offset="0" style="stop-color:#00ABEB"/>
			<stop  offset="0.029" style="stop-color:#22AAE7"/>
			<stop  offset="0.0603" style="stop-color:#3FA8E3"/>
			<stop  offset="0.0914" style="stop-color:#53A8E0"/>
			<stop  offset="0.122" style="stop-color:#60A7DF"/>
			<stop  offset="0.1515" style="stop-color:#64A7DE"/>
			<stop  offset="0.3273" style="stop-color:#4674B7"/>
			<stop  offset="0.5212" style="stop-color:#333B8B"/>
			<stop  offset="0.7576" style="stop-color:#211C51"/>
			<stop  offset="1" style="stop-color:#171043"/>
		</radialGradient>
		<path fill="url(#SVGID_3_)" d="M203.803,233.613c0-4.498,0.843-8.74,2.562-12.75c1.71-4.005,4.051-7.484,7.067-10.421
			c2.97-2.95,6.491-5.282,10.476-7.059c4.021-1.76,8.285-2.641,12.77-2.641h124.694c4.497,0,8.719,0.88,12.766,2.641
			c3.988,1.777,7.518,4.109,10.488,7.059c2.987,2.937,5.349,6.417,7.059,10.421c1.703,4.009,2.57,8.252,2.57,12.75v29.646
			l-32.883,28.189v-57.835H236.669v164.13h124.702v-54.46l32.883,28.211v26.249c0,4.497-0.867,8.736-2.57,12.741
			c-1.71,4.021-4.071,7.525-7.059,10.514c-2.979,2.986-6.5,5.348-10.488,7.033c-4.047,1.719-8.269,2.578-12.766,2.578H236.669
			c-4.485,0-8.74-0.859-12.783-2.578c-3.972-1.686-7.493-4.047-10.471-7.033c-3.017-2.996-5.361-6.5-7.059-10.514
			c-1.719-4.005-2.566-8.244-2.566-12.741L203.803,233.613L203.803,233.613z"/>
	</g>
	
		<radialGradient id="SVGID_4_" cx="-264.5" cy="810.6914" r="241.2207" gradientTransform="matrix(1 0 0 1.0921 588 -714.8567)" gradientUnits="userSpaceOnUse">
		<stop  offset="0" style="stop-color:#00ABEB"/>
		<stop  offset="0.029" style="stop-color:#22AAE7"/>
		<stop  offset="0.0603" style="stop-color:#3FA8E3"/>
		<stop  offset="0.0914" style="stop-color:#53A8E0"/>
		<stop  offset="0.122" style="stop-color:#60A7DF"/>
		<stop  offset="0.1515" style="stop-color:#64A7DE"/>
		<stop  offset="0.3273" style="stop-color:#4674B7"/>
		<stop  offset="0.5212" style="stop-color:#333B8B"/>
		<stop  offset="0.7576" style="stop-color:#211C51"/>
		<stop  offset="1" style="stop-color:#171043"/>
	</radialGradient>
	<rect x="250.436" y="246.658" fill="url(#SVGID_4_)" width="96.033" height="137.426"/>
</g>
</svg>
