<?xml version="1.0" encoding="utf-8"?>
<!-- Generator: Adobe Illustrator 18.1.0, SVG Export Plug-In . SVG Version: 6.00 Build 0)  -->
<svg version="1.0" id="Layer_1" xmlns="http://www.w3.org/2000/svg" xmlns:xlink="http://www.w3.org/1999/xlink" x="0px" y="0px"
	 viewBox="0 0 150 150" enable-background="new 0 0 150 150" xml:space="preserve">
<g>
	<path fill="#00547D" d="M79.2,10.1c-0.5-0.5-0.7-0.1-0.9,0.5C79.9,11.5,77.8,10.3,79.2,10.1z"/>
	<path fill="#00547D" d="M85.7,11.5c0.1-0.1,0.2-0.1,0.3-0.2C85.8,11.3,85.7,11.3,85.7,11.5z"/>
	<path fill="#00547D" d="M133.1,97.2c-0.1-0.1-0.1-0.1-0.2-0.1c0,0.3,0,0.5,0,0.8L133.1,97.2z"/>
	<path fill="#00547D" d="M63.8,79.3l1.7,1.3C65.3,79.6,64.9,79.4,63.8,79.3z"/>
	<path fill="#00547D" d="M58.5,90.6c0.7,1,0.4,1,2,1C59.9,90.8,59.9,90.7,58.5,90.6z"/>
	<path fill="#00547D" d="M60.6,77.2l-0.4,2.3l1.8,0.4c-0.4-1.4-0.7-0.6-0.7-1.7v-1H60.6z"/>
	<path fill="#00547D" d="M64.8,84.5l1.8,0c-0.1-1.6-0.3-1.1-1.4-1.7L64.8,84.5z"/>
	<path fill="#00547D" d="M62.5,80.5c0.3,1.2,0,0.9,1.3,1C63.6,80.3,63.9,80.6,62.5,80.5z"/>
	<rect x="66.6" y="70.5" fill="#00547D" width="0.7" height="1"/>
	<polygon fill="#00547D" points="66.2,78.2 66.6,79.2 67.2,78.5 	"/>
	<polygon fill="#00547D" points="67.2,42.4 67.2,41.6 66.5,41.7 	"/>
	<path fill="#00547D" d="M67.2,75.2c0-0.9-0.2-0.9-0.3-1.7l-1.5,0.2l0.8-0.8l-2-0.4c-0.7,0.4-2,0.3-2,1c0,1,0.3,1.2,1.4,1.2
		l-0.7-0.2l0.2-1.4l1.2,2.1h-0.7c0.3,1.2,1.1,1.4,2.3,1.7l2,1.3c-0.3-1.2-0.7-1.1-0.7-2.3V75.2z"/>
	<path fill="#00547D" d="M64.6,45.6l-0.7-1.3C64,45.8,63.5,44.9,64.6,45.6z"/>
	<polygon fill="#00547D" points="65.5,44 66.8,45 66.6,42.6 65.9,42.3 	"/>
	<polygon fill="#00547D" points="64.6,43 65.2,42.3 65.9,42.3 64.2,41.6 	"/>
	<polygon fill="#00547D" points="66.6,86.2 65.9,86.3 66.5,87.3 	"/>
	<polygon fill="#00547D" points="60.5,98.3 59.9,98.7 60.9,99.3 	"/>
	<path fill="#00547D" d="M60.5,96h-0.7c-0.3,1.4-0.3,1.4-1,2.3l1,0.4L60.5,96z"/>
	<path fill="#00547D" d="M61.2,97c-0.9,0.6-0.8,0.9,0.3,1.3L61.2,97z"/>
	<polygon fill="#00547D" points="65.6,85.3 66.3,85.9 66.6,84.9 	"/>
	<polygon fill="#00547D" points="66.1,80.7 65.8,80.9 66.8,81.9 	"/>
	<path fill="#00547D" d="M63.1,84.6l-1.3-2.1h-0.7l-1.1,0.1l1.5,3.6C63.4,86.1,62.5,85.9,63.1,84.6z"/>
	<path fill="#00547D" d="M56.2,95.6c-0.4-1-0.9-1.1-2.1-1.3l0.3,1.3l1.1-0.4L56.2,95.6z"/>
	<path fill="#00547D" d="M62.2,75.2c-0.2,0-0.6,0.3-0.7,0.3c0.6,1.1,1.8,2.2,3.4,2.3v-0.7C63.2,76.7,62.8,75.2,62.2,75.2z"/>
	<polygon fill="#00547D" points="49.2,94.7 50.1,94 49.1,94 	"/>
	<polygon fill="#00547D" points="48.7,95.9 48.5,96.3 49.5,96.6 	"/>
	<polygon fill="#00547D" points="48.1,93.6 49.1,94 48.7,92.9 	"/>
	<polygon fill="#00547D" points="50.5,98.1 49.2,97.7 48.9,99 50.1,99 	"/>
	<polygon fill="#00547D" points="51.5,90.6 52.1,89.1 50.4,90.1 	"/>
	<polygon fill="#00547D" points="53.5,93 52.8,92.6 52.2,92.9 52.2,92.3 50.8,92.4 53.1,94 	"/>
	<path fill="#00547D" d="M49.5,93.3c1.4,0.1,0.6,0,1.7,0.7c-0.3-1.2-0.3-1.2-1.7-1.3V93.3z"/>
	<path fill="#00547D" d="M58.2,91.6l-1.5,0.8l1.2,0.8l0-0.7l0.7,0.4l1.3,0.3C59.1,91.8,59.7,92.4,58.2,91.6z"/>
	<path fill="#00547D" d="M66.1,66.4l-0.6,1.4C66.6,67,66.1,68,66.1,66.4z"/>
	<polygon fill="#00547D" points="58.9,93.6 58.5,92.9 58.2,93.6 	"/>
	<path fill="#00547D" d="M56.8,99.3l-3-0.7c1,1.4,1.2,1,2.7,1.7L56.8,99.3z"/>
	<polygon fill="#00547D" points="55.5,100.3 54.8,100.3 54.8,101 	"/>
	<polygon fill="#00547D" points="47.5,97.7 48.8,97.3 48.5,96.3 47.6,96.6 	"/>
	<path fill="#00547D" d="M60.9,67.4c-0.9,0-0.9,0.2-1.7,0.4l1,2h0.7l1-1C61.7,68.2,61.5,67.4,60.9,67.4z"/>
	<path fill="#00547D" d="M62.9,71.5c0.4,0.2,0.4,0.3,1,0.3c1.3,0,0.6,0.2,2.1,0.3l-1.2-1.7l-0.6,0.7l-0.2-1.2l-1.2-1.5l-0.6,0.1
		l-0.8,1.3h-0.7l1.5,2.8L62.9,71.5z"/>
	<path fill="#00547D" d="M63.9,66.1v1.3c0.6-0.3,1.4,0,1.4-0.7c0-0.8-0.1-0.4-0.3-1.3C64,66.4,65.2,66,63.9,66.1z"/>
	<path fill="#00547D" d="M63.9,69.1h0.7v-1.3C63.7,68.4,63.9,67.7,63.9,69.1z"/>
	<polygon fill="#00547D" points="63.6,65.8 64.2,65.1 63.6,64.8 	"/>
	<path fill="#00547D" d="M63.2,67.1c-1,0.7-0.9,0.1-0.3,1.3l0.7,0L63.2,67.1z"/>
	<path fill="#00547D" d="M58.1,72.9l0.6,1.4C58.7,72.6,59.2,73.6,58.1,72.9z"/>
	<path fill="#00547D" d="M59.2,88.9c-0.4-0.2-0.3-0.3-1-0.3l-1.6,0l-0.4,1l0.7,0.3C58.2,89.6,58.5,89.8,59.2,88.9z"/>
	<path fill="#00547D" d="M53,89.4l-1.1,1.5l1.3,0.4c0.5-0.2,0.6-0.3,1.3-0.3h0.3l0.7,0l0.7-1.3l-1.4-0.4l-1,0.7v-0.7L53,89.4z"/>
	<polygon fill="#00547D" points="64.2,48.7 64.2,48 63.5,48.1 	"/>
	<path fill="#00547D" d="M59.5,78.5c-0.1-1.4,0-1.5-0.7-2C58.4,77.5,58.7,77.9,59.5,78.5z"/>
	<polygon fill="#00547D" points="57.9,69.8 58.6,69.7 57.9,69.1 	"/>
	<path fill="#00547D" d="M28.3,67.1c0.4,1.4,0.1,1,1.7,1C29.4,67.2,29.7,67.2,28.3,67.1z"/>
	<path fill="#00547D" d="M45.1,67.4L44,68l2.1,0.8c-0.3-1.3-0.1-1-1-0.7L45.1,67.4z"/>
	<polygon fill="#00547D" points="45.8,53.7 46.4,53 45.8,53 	"/>
	<path fill="#00547D" d="M43.9,55.2l1,1C44.7,54.9,45.5,55.8,43.9,55.2z"/>
	<polygon fill="#00547D" points="41.4,69.5 41.4,70.1 42.5,70 	"/>
	<path fill="#00547D" d="M43.1,56.4c1-0.7,0.7,0.1,0.3-1.3C42.6,55.6,42.8,55.3,43.1,56.4z"/>
	<path fill="#00547D" d="M46.4,72.5c1.3,0.3,1.2,0.9,3,1v-0.7h-1h-0.7c-0.8-1.5,0.3-0.8-1.3-1V72.5z"/>
	<path fill="#00547D" d="M50.1,74.2l-1.7,0.1l0.7,0.6l2.7,0.7C51.4,74.9,51.1,74.2,50.1,74.2z"/>
	<path fill="#00547D" d="M50.5,76.5l-2-0.3C49.1,77.1,49.7,77.6,50.5,76.5z"/>
	<path fill="#00547D" d="M45.1,75.5l-1.3-0.7C44.5,75.9,43.5,75.4,45.1,75.5z"/>
	<polygon fill="#00547D" points="44,69.5 44.1,68.8 43.4,68.9 	"/>
	<path fill="#00547D" d="M48.8,53l-1,0.4c0.3,0.3,0.6,0.6,1,1L48.8,53z"/>
	<path fill="#00547D" d="M48.5,67.4l-1.3-1C47.4,67.4,47.1,67.1,48.5,67.4z"/>
	<polygon fill="#00547D" points="30.6,67 31.3,67.1 31.3,66.4 	"/>
	<polygon fill="#00547D" points="32.7,68.5 32.7,67.8 31.3,67.4 31.3,68.5 	"/>
	<path fill="#00547D" d="M42.8,72.8l1-1c-0.4-0.2-0.4-0.3-1-0.3h-0.3c-0.8,0-0.7-0.3-1.3-0.7C41.5,72.4,41.5,72.1,42.8,72.8z"/>
	<path fill="#00547D" d="M32.7,66.1v0.7l1.3,0.3C33.7,65.9,34,66.2,32.7,66.1z"/>
	<path fill="#00547D" d="M56.5,91.7l1-0.4l0.7,0.4v-0.7C56.5,91,57.2,90.6,56.5,91.7z"/>
	<polygon fill="#00547D" points="62.9,57.7 63.6,57.6 62.9,57.1 	"/>
	<path fill="#00547D" d="M39.8,75.2l0.4,1.5l1.2,1.2l-0.2,0.6l-0.2,3.1l2.3-0.4h2l0.1-0.7l0.3,0.9l1.6-1.2h0.7l0.5-1l0.2-2.1
		l-1.3,0.4l-1-0.3v1h-0.7v-0.7c-1.8,0.1-1.1,0.9-2-0.3l3.7-0.4v-0.7l-2.3,0L43,76l0.8-0.4l-2.1-0.8l0.3,0.6l-1.3,0.4v-0.7L39.8,75.2
		z"/>
	<path fill="#00547D" d="M46.1,82.2v-0.6l-1-0.1c-1.2,0-1.8-0.1-2.3,0.7l1.2,0.2l1.2,0.8v0.7v1.4c1.9-0.4,4.9-1.2,5.1-3.3l3.1-1.1
		l-0.5-1l0.4-1.2l-1.9-0.1l-1.5-0.4l0.2,0.5l-1.2,1.5h-0.7l-1,2H46.1z"/>
	<polygon fill="#00547D" points="37.7,71.8 37.7,72.5 38.5,72.4 	"/>
	<path fill="#00547D" d="M42.8,82.9h-1c-0.8,0-0.7-0.3-1.4-0.7c0.3,1.5,1.3,2,2.4,2.7l1.7-0.3C44.3,83.5,43.8,82.9,42.8,82.9z"/>
	<polygon fill="#00547D" points="40.3,74.9 40.4,74.2 39.7,74.2 	"/>
	<polygon fill="#00547D" points="31,70.8 30.3,70.9 30.9,71.5 	"/>
	<polygon fill="#00547D" points="60.5,63.4 61.3,63.4 60.5,62.7 	"/>
	<path fill="#00547D" d="M62.2,67.8v-1.3h-0.7l0.3,0.3C61.5,67.7,61.3,67.1,62.2,67.8z"/>
	<path fill="#00547D" d="M58.2,63.1c-0.3,0-0.7,0.4-0.7,0.7c0,0.2,0.5,0.7,0.7,1h0.7C58.8,64,59,63.1,58.2,63.1z"/>
	<path fill="#00547D" d="M59.2,65.1c0,0.7,0.3,0.7,0.7,1.3l-0.7,0.4l0,0.6l2.4-0.9v-0.7c-0.9,0.4-0.4,0.6-0.7-0.3l0.8-0.2l-2.1-1.2
		C59.3,64.5,59.2,64.4,59.2,65.1z"/>
	<polygon fill="#00547D" points="59.7,63.5 59.9,62.1 58.8,62.1 	"/>
	<polygon fill="#00547D" points="58.5,66.8 59.2,66.8 58.5,65.8 	"/>
	<polygon fill="#00547D" points="63.5,62.8 63.6,62.1 62.8,62.2 	"/>
	<rect x="62.2" y="65.4" fill="#00547D" width="0.7" height="0.7"/>
	<rect x="60.5" y="59.4" fill="#00547D" width="0.7" height="0.7"/>
	<path fill="#00547D" d="M62.2,60.7l-1.4,0.6C62.4,61.3,61.5,61.8,62.2,60.7z"/>
	<path fill="#00547D" d="M61.6,43l-0.4,1l1,0.3C62.1,42.7,62.6,43.7,61.6,43z"/>
	<polygon fill="#00547D" points="51.5,64.4 51.5,65.1 52.2,64.4 	"/>
	<rect x="53.8" y="64.4" fill="#00547D" width="1" height="0.7"/>
	<polygon fill="#00547D" points="55.8,65.8 55.8,65.1 55.1,65.2 	"/>
	<path fill="#00547D" d="M47.1,87.9c2,0.5-0.1,0.8,2.3,1.3l2.1-0.4l-0.7-1l3,0.3v-0.7h1.3v-1c1.8,0.1,1,0.7,1.7,0.7
		c0.8,0,0.4-0.1,1.3-0.3l0-1.3l-2.3-0.4l0-0.6l2.6,0.2l-2.9-3.9c-3.8,0.8-6.4,4.4-9.7,4.7C46.7,87.3,46.9,86,47.1,87.9z"/>
	<path fill="#00547D" d="M45.1,72.8h-0.7c-0.9,0-0.9,0.2-1.7,0.3l0,0.7l2.3-0.4c0.4,2.1-0.3,1.5,2.7,2c1.6,0.3,2.9,1.4,3.7,0.4
		l-2.3-1.1C46.2,74.6,47.8,72.8,45.1,72.8z"/>
	<polygon fill="#00547D" points="57.5,65.8 58.5,65.4 58.2,64.8 57.5,64.8 	"/>
	<polygon fill="#00547D" points="52.4,74.9 51.6,73.7 51.4,73.9 	"/>
	<polygon fill="#00547D" points="57.5,68.1 58.2,68.1 58.5,67.5 57.1,66.1 	"/>
	<polygon fill="#00547D" points="58.9,68.7 58.2,68.1 58.2,68.8 	"/>
	<path fill="#00547D" d="M55.8,71.1c0.1,1.3,0.7,2.5,2,2.7C57.6,72.8,56.5,71.6,55.8,71.1z"/>
	<path fill="#00547D" d="M56.8,61.4l-1.3-0.7C56.3,61.8,55.3,61.3,56.8,61.4z"/>
	<polygon fill="#00547D" points="76.3,70.8 76.3,71.5 77,70.8 	"/>
	<polygon fill="#00547D" points="81.3,70.8 82.4,70.7 81.7,70.2 	"/>
	<polygon fill="#00547D" points="58.8,132.6 58.9,131.9 58.1,131.9 	"/>
	<polygon fill="#00547D" points="59.9,133.5 59.2,132.9 59.2,133.5 	"/>
	<path fill="#00547D" d="M81.7,107.4H81v3.7c0.5-0.6,0.7-0.6,0.7-1.7V107.4z"/>
	<path fill="#00547D" d="M64.2,86.9c-0.3,0.2-1,0.5-1,1c0,0.5,0.4,0.2,0.7,1.3c1.5,0.2,0.6,0.2,2.2,0.9L64.2,86.9z"/>
	<path fill="#00547D" d="M78,79.9h1.3v0.7H80v2.4c0.6-0.4,0.7-0.1,0.7-1v-1.3c0-1.2-0.4-1.2-0.7-2.4l-1.3,0.4l0.7,0.5L78,79.5V79.9z
		"/>
	<path fill="#00547D" d="M48.1,131.5h-1v0.3h2.3C48.4,130.4,49.5,131.5,48.1,131.5z"/>
	<path fill="#00547D" d="M116.1,131.7c0.2-0.2,0.4-0.4,0.6-0.6l-1.3-0.2L116.1,131.7z"/>
	<path fill="#00547D" d="M114.9,98.6l-2,0.4c0.3,0.3,0.6,0.7,1.3,0.7C114.8,99.6,114.8,99.1,114.9,98.6z"/>
	<polygon fill="#00547D" points="24.6,72.5 25.3,72.5 24.6,71.5 	"/>
	<path fill="#00547D" d="M74.3,97.9l1.3,0.4c0,0,0.3-0.6,0.3-0.7c0-0.2-0.5-0.7-0.7-1C74.1,97,74.4,96.7,74.3,97.9z"/>
	<path fill="#00547D" d="M124.3,74.5c-0.8,0.1-1.2,0-1.3,0.7C124.5,75,123.5,75.5,124.3,74.5z"/>
	<path fill="#00547D" d="M76,73.8c1.6-0.1,0.6,0.4,1.4-0.7C76.5,73.2,76.1,73.1,76,73.8z"/>
	<path fill="#00547D" d="M79,82.1l-2.4-0.9c0,1.8,1,2.3,2.3,2.7L79,82.1z"/>
	<path fill="#00547D" d="M114.9,132.5c-0.2-0.5-1.1-1.7-1.7-1.7c-0.6,0-0.5,0.5-0.7,1h0.7c-0.4,0.5-0.7,0.7-1.3,0.7
		c-0.2,0-0.3,0-0.3,0c0,0,0,0-0.3-0.1l-1.4,0.5v0.7h1.3c-1.1,1.5-0.2,0.3-1,0.3c-0.8,0,0.2-0.1-0.7,0.3v-1h-0.3v1.3
		c-1-0.3-0.7,0.2-0.3-0.7h-1c-0.8,0-0.7-0.3-1.3-0.7c-1.5,0.3-1.7,0.1-2.1,1.5l-1.6-1.1l-2,0.3l0,0.9l-1,0.4l0.4-1h-0.7l0-0.6
		l-1.4,0.3v0.7l-1.3-0.1l-0.7-0.6v0.7h-0.7l-0.1-1l-1.6,1.7v-0.7h-1l-0.7,0.7l-0.4-1.4l-0.2,0.7c-0.1,0-1.9-1.5-2.6-2l-0.4,2
		l-2.8-0.1l0.7-0.5l-0.6-0.3l1-0.4c-0.7-0.9-1.2-0.3-2.7,0l-1.4,0.7c-0.2-0.3-1.3-1.3-1.7-1.3c-1.4,0,0.5,1.7-1.3,1.7h-2.3v-0.3H79
		c-0.8-1.1,0.1-0.5-1.7-0.4l0.4-0.7l-6,0.4l-2.3,0.3c-0.1,0-1.1,0-1.3,0c-1.3,0-0.1,0.1-1-0.3l-0.5,1.1l-0.8-1l-0.8,1.3l-0.9-0.3
		l-0.7,0.5l-2.4-0.3h-1l-0.1-0.7l-0.6,0.7v-0.7l-0.6,0l-0.4,0.7l0-1.4l-1,0.4l-0.1-0.8l-1,0.8l-0.9-0.3l-0.4,0.3l0.3,1
		c0,0-0.6-0.3-0.7-0.2l-1.6-0.1l0.3-1.4h-2c0.6-0.8,1.2-0.7,2.3-0.7h0.7c1.8,0,1,1,2-0.3l-2.7,0.1l-3-0.4l0.4,0.6l-1.3,0.4
		c-0.8-0.2-1-0.3-2-0.3l-1.4,0.1l-3-0.4c0.2-0.7,0.1-1,1-1h0.3c1.4,0,1.2,1,1.7-0.4l-1.7,0l-1.4,0c-0.2,0-0.2,0-0.3,0
		c-0.1,0,0,0,0,0c0,0,0,0,0,0c0,0-0.1-0.1-0.4-0.2l-0.8,0.3l0.7,0.2l-0.5,1.1l-0.5-1.1l-0.7,0.4v-0.7l-1.7,0.3l1.6,0.3l-1.1,0.6
		c2,1.7,4.1,3.3,6.3,4.7c3-0.8,4.9,1.3,8,0.5l-0.5,0.6c2.3-0.1,2,1.4,3.9,3.4c0.4-0.8,1,0.1,1.3-1.5c1.3-1,0.7,2.5,2.2,2.2
		c-0.1,0.5,0.3-0.9,0.4-0.3c3.7-0.8-0.9,0.6,2.7,3.3c5.9,1.1,12.1,0.1,17.6,0.7c-0.3,0.1-0.6-1.1,0-1.2c0.7,2.4,1.8-0.8,2.9,0
		c0,0.5-0.5,0.7-0.7,1c2.7,0.7,4.6-0.8,7.2-0.4c2-1.7,5.1-0.4,6.3-2.1c0,1.1,1.2,0.4,1.9,0.7c0.6-3.1,4.6-1,5.7-3.8l0.2,0.5
		c4-2.1,8.1-4.8,11.4-8.2C115.3,132,115.3,132.1,114.9,132.5z"/>
	<rect x="77.6" y="90.9" fill="#00547D" width="0.7" height="0.7"/>
	<polygon fill="#00547D" points="78.9,91.5 78.3,92.2 79,92.3 	"/>
	<polygon fill="#00547D" points="79,90.3 80,89.9 79.3,88.2 78.4,88.3 77.9,90.3 79,89.3 	"/>
	<polygon fill="#00547D" points="79.7,81.8 78.7,80.3 77.3,80.6 	"/>
	<path fill="#00547D" d="M75,100c1,0,1.2-0.3,1.3-1.3L74,98.3C74,99.1,74.3,100,75,100z"/>
	<polygon fill="#00547D" points="77.7,97.6 77,96.6 76.3,96.6 76.3,97.9 	"/>
	<polygon fill="#00547D" points="75.3,95.7 74.9,96 75.3,96.6 76.3,96.6 76.3,96 	"/>
	<path fill="#00547D" d="M77,94.7l0.7-0.4l-1.6,0l-0.4,1c2.6,0.2,0.1,0.7,2.3,1.3C77.9,95.1,77.7,95.7,77,94.7z"/>
	<polygon fill="#00547D" points="76.6,77.5 77.6,76.5 76.6,76.5 	"/>
	<path fill="#00547D" d="M28.3,69.8l1,0.3c-0.6-1.1-0.1-1.2-1.7-1.3v0.7H27l0.3,0.6L28.3,69.8z"/>
	<polygon fill="#00547D" points="95.8,47.7 96.8,47.6 96.5,47 96.8,46.6 96.2,46.7 	"/>
	<path fill="#00547D" d="M116.6,65.6l2.7-1.1l-1-0.3C117.6,64.6,117,64.7,116.6,65.6z"/>
	<polygon fill="#00547D" points="34.7,58.7 33,58.7 33.7,59.4 	"/>
	<polygon fill="#00547D" points="56.8,46 56.2,46 56.8,46.6 	"/>
	<polygon fill="#00547D" points="36.7,58.7 36.7,58.1 36,58.1 	"/>
	<polygon fill="#00547D" points="82.4,41.3 82,40.3 81.7,41.3 	"/>
	<path fill="#00547D" d="M90.7,105.7h-0.7c-0.9,0-0.6,0.2-1.1,0.7l0.4,0.3l3-0.3C92,105.8,91.7,105.7,90.7,105.7z"/>
	<polygon fill="#00547D" points="119.2,90.7 120.3,91.6 120.3,90.6 	"/>
	<polygon fill="#00547D" points="92.1,134.5 92.8,134.5 92.1,133.9 	"/>
	<path fill="#00547D" d="M121.6,78.2c-2.2,0-1.8,1.7-4.4,2.3l-0.6,1.2l2.7-0.8l-0.8,1.3l1.3-0.4l-0.2-0.6L120,81l0.6,0.2l0.3-1
		l1,0.3l1.4-1.4l1,0.4l-0.4-1c-0.8-0.2-0.8-0.3-1.7-0.3H121.6z"/>
	<polygon fill="#00547D" points="114.2,81.2 114.6,80.5 113.2,81.2 	"/>
	<path fill="#00547D" d="M116.6,79.5h-0.7c-0.9,0-1,0.5-1.3,1c0.4,0.2,0.3,0.3,1,0.3c0.9,0,0.9-0.2,1.7-0.3l0.7-1.1L116.6,79.5z"/>
	<path fill="#00547D" d="M38.2,130.6c0.2,0.2,0.4,0.3,0.7,0.5l-0.1-0.6L38.2,130.6z"/>
	<polygon fill="#00547D" points="79.3,65.1 80.3,64.4 79.3,64.4 	"/>
	<rect x="83.3" y="132.5" fill="#00547D" width="0.7" height="0.7"/>
	<polygon fill="#00547D" points="53.8,133.9 54.8,133.5 54.1,132.9 	"/>
	<path fill="#00547D" d="M45.1,95c-0.7-1-0.8-0.9-2-0.4l-0.4-0.3L42.4,96C43.8,95.6,44,95.2,45.1,95z"/>
	<path fill="#00547D" d="M38.7,123.9l2-0.4l2,1.4c0.4-0.2,1.1-0.7,1.7-0.7c0.6,0,0.4,0.7,1,0.7c1.1,0,1.1-0.2,1.7-0.7
		c0.4,0.2,0.4,0.3,1,0.3h0.3c1.3,0,0.1,0.1,1-0.3c0.3,0.3,0.6,0.7,1.3,0.7c0.6,0,1.3-0.5,1.7-0.7l0.9,0.5l1.8-0.8
		c0.9,0.4,2.2,0.7,3,0.7h0.3c1.2,0,1.3-0.2,2.3-0.3l0.4,1h0.7h0.7c1.6,0,2.4,0.4,3.7,0.7c0.6-0.4,0.6-0.7,1.3-0.7h1.4
		c0.6,0,4.4-1.2,5.2-1.5c1.6-0.5,2.8-2,2.8-3.9c0-3.8-5.9-7.4-6.4-12.7h-2.4l0-0.7l2,0.4c-0.6-2.5-1.5-2.4-4.1-3.1l-1,0.7l-0.3-0.6
		l0.6-0.5l-4.4,0.3l-3.7,0.8c-0.7,0.9-2.8,1.5-4,2.3c-1.3,0.9-2.1,2.1-3.4,3.1l-1.3-0.4c-1.2,0.3-4.5,1.7-4.7,1.7
		c-1.5,0-3.1-2.5-4-3.4c1.5,0.1,1.4,0.3,1.8,1.4l2.2,1.6c1.7-0.9,2.7-1.7,5.4-1.7c0.5,0,2.8-2,3.3-2.4c1.3-1.3,2.8-1.4,3.4-2.4
		l-3,0.5l-1.4-0.1l-2,1l-3-1.7l0.4-0.7c-1.4,0.1-0.8,0.3-2,0.3c-1.2,0-1.3-0.3-2.3-0.3c0-1.4,0.2-1.8-1-1.3l-0.4-1.7
		c-1.3,0.1-1.7,0.5-2,1.7l1-0.4l-0.1,1.5l-0.9-0.7l-0.9,0l-0.7,0.6l-0.4-1l0.7,0l-1-1.3l0.4-1.1l1.3,1.1l-0.3-1
		c0.3-0.2,0.7-0.2,0.7-0.7c0-0.8-2.3-1.3-3.4-1.3H35c-1,0-1,0.4-1,1.3h-0.3l-0.4-1.3l5-0.3c1.9,0,3.7-0.8,3.7-2.7l0.7-0.4l0.3-0.7
		l-5-1.7v0.7l-0.9-0.2l-1.5,1.2l0.7-0.9l0-1.4h-1l-1.7-1c-1.4,0-2.6-0.6-3.7-0.7c-0.8-0.1-2.5,0.3-3.9,0.4L25.6,91l-0.9-1.1l0.3-1
		l-3.4-0.3v-0.7L20,87.6c0.2,5.3,0.7,10.9,1.9,17.5c2,7.5,5.8,14.1,10.8,19.8c0.2-0.1,0.3-0.2,0.7-0.2h2.3c1.3,0,0.1-0.1,1,0.3
		l1-0.9l1,0.3L38.7,123.9z"/>
	<polygon fill="#00547D" points="26.3,72.1 26.6,71.1 25.9,71.1 26.3,73.5 27.1,72.8 	"/>
	<polygon fill="#00547D" points="24.3,71.1 23.6,71.1 23.7,72.2 	"/>
	<path fill="#00547D" d="M131.5,97.4c0.2-0.5,0.8-0.5,1.3-0.3c-0.1-2.1-0.1-3.3,0.9-5.8c-0.2-1.2-1.7-1.3-1.2-2.6
		c1.8-0.8,0.1-2.5,0.7-3.7c-1,0.2-1.8-0.4-2.1-1.1l0.2,0l-0.1-0.7l-0.3,0.3c0-0.3,0-0.5,0.1-0.8l2.1,0.4c-1.4-3.8,1.1-9.2-1.6-13.7
		l1.3-0.3c-1.5-4.6,0.3-8.9-2.8-13.9c0.5-1.4,0.7-3.6,0.6-4.9c-1.3-1.6-1.6-2.2-3.5-2.9c-0.3-0.6,0.5-1.2,0.9-1.6
		c-0.3-2.2,0.6-4.9-1.8-5.9l1-0.5c-1.8-1.2-4.2-2.8-4.1-5.1c-1.1,0-2.3-1.5-3-0.1c-0.5-0.5,1.3-1.4,0-1.4l1.7-0.2
		c-2-3.9-5.3-6.3-8.6-8.8c0.3-2.1-3.2-2.4-4.4-4.7c-1.6-0.2-2.9-2.7-5-1.1l0.5-0.9c-1.6-1-3.7-2.2-5.7-3.8c-1.2-0.9-1.8,0.7-3.1,0.9
		l0.3-1c-1.2,0.2-2,1.4-2.7,2.3c-0.5-0.2-1-0.3-1.5-0.5c-0.1-0.1-0.2-0.2-0.4-0.4c1-0.3,2-1.2,3.1-2.4c-1.3-0.9-3.5,1.3-3.9-0.6
		c-1.1-0.7-2.2-0.7-2.6,0.8c0.4-0.4-0.6-0.9,0.2-1.5c-0.9-0.1-1.5,0.1-2.1,0.5c0.2,0.1,0.3,0.2,0.5,0.2c-0.5,0.9-1.2,1-1.4,1.9
		c-0.4,0-0.7-0.1-1.1-0.2c0.2-0.8,1.1-1.3,0.6-1.9l-2,1.8c-1.4-0.1-2.9-0.2-4.3-0.2c-3.1,0-6.1,0.3-9,0.9c1.7-0.4,3.2-1.1,4.5-2.4
		c3.3-1.4,4.5-5.9,4.5-5.9C69.2,7.6,61.1,7,51.5,9.7c-2.8,1.8-5.9,4.4-8.5,5.9c-9.1,7.7-20,17.1-21.4,30.7c0.7-0.5,1.4,0.4,1.4,1
		l-0.5,0.1l0.8,1.2c0,0.9-1.4,0.3-1.4-0.5c-0.6,4.9-0.8,10.1-1.1,14.1c1.6,0.3,0.1,2.1,1.8,2.3c-0.3,0.2-0.4,0-0.7-0.1
		c0.9,2.8,0.9,3-1.2,5.6c-0.4,3.8-0.6,7.4-0.7,11.1c0.1-0.3,0.3-0.5,0.8-0.9l0.8,1.3c0.2-0.4,0.3-0.4,0.3-1v-0.3c0-1,0.1-0.6,0.7-1
		l0,1.1l1.3-0.4l1.6,0.7l0.4-0.7c0.7,1.8,0.3-0.5,1,1.3l1.3,0c-0.2-2.6-0.8-0.1-1.3-2.4l1.4,0.4L28,77.7l1.3,0.1
		c0.1-1.6,0.9-1.5,2.7-1.7c-1-1.4,0-0.3-1.3-0.3h-1v-0.3l1.1-0.2l-1.4-0.5l0.1-0.6l7,2.3l-0.1-0.8L34,74.2h-1.3v-0.3l1.5-0.2
		l-2.3-1.2l-0.5-0.9v0.7C30,71.8,30,72,29.5,70.7l-0.2,0.8L28,71.1c-0.7,2.2,0.1-1.2-0.7,1l1.3,0.4v-0.7c0.7,0.3,1,0.7,2,0.7
		c0.9,0,0.6,0.2,1,0.7l-3-0.4h-1v0.7h-1.4v0.7H28v0.3h-1c-1.3,0-0.1-0.1-1,0.3c-0.8-1.1-1.2-2.2-3.2-2.4l0.8-1.3l-0.1-0.6L23,68.5
		h0.3c0,1.4,0.8,1.9,1.7,2.4l0.7-0.4l1,0.2l0.2-0.3l-0.3-0.7l0.4-0.3l-0.4-0.9l-2-0.8h1.3l-0.3-2l1,0.3l-0.3,1l1.2,0.7l0.3-3.2
		l0.8,1.2c1-0.7,0.9-0.8,0.4-2.1l1,0.4l0.3-1c0,0,0.6,0.3,0.7,0.2l1,0.1v-1c0.7,0.4,1.7,0.6,1.7-0.7v-1h1v-0.3h-1l-0.6-0.1l-0.8-0.6
		l0.7-1l0-1.4l0.7,0.4l-0.4-1.5l1.7,0.2L34.7,57l1.3,0.7v-1h0.7v1.3l0.5-0.3l0.6,1.4l0.4-0.1l-0.2-2.7h1L38.4,55h1l-1.2-3.2l1,1.3
		l0.9-1.9l1.6,1.4v-1.3h1V52l1.3-0.7l0.3,0.6l0.4-1.3c1.4,0.1,0.7,0.3,2,0.3l1.6,0l0.7-1l0.7,0.4l0.9-1l1.2,0l1.2,1.2L53,49.4
		l0.2-0.7l1.4,1l-0.4-1.3l0.8-0.2l-1.2-1.3l1.6,0.4l0.4-1.3h0.3l-0.4-1.1l-0.6,0.7L54.8,45c-0.9,0.4-0.4,0.6-0.7-0.3
		c1.2-0.3,0.9,0,1.1-1.4l1.3,1.1v1.3h0.7l0.1,0.9l2,1.1l-1.4-1.7l1.3,0.4v-1c0.4,0.2,1.4,0.6,1.4-0.3c0-0.7-1.1-0.9-1.6-1l-0.4,1.4
		l-1-0.7c0-0.1,0.3-1.3,0.3-1.3c0-1.3,0.1-0.1-0.2-1.2l2.2,1.4l0.4-1h-0.7l0-0.7l1.6,0.7L61,41.2l1.6,1.8v-0.7l1.4,0l-0.4-1.3
		l0.3-0.3l1.3,0.7c-0.4-1.4-0.7-0.6-0.7-1.7l0.1-1.1l0.9,1.1v-1h0.7v1.3c1.8,0.7-0.5,0.4,1.7,0.7l-0.1-0.5l-0.9-1l1.7,0.2l-0.4-1
		c1,0.1,1.4,0,1.4,1l0.1,1.1l0.2-0.8l1,0.4l0-1.4l0.7,0.4v-0.7l0.7,0L72,39.6l0.3,1.4l0.8-0.7l0.6-1.6l0.3,2.7l0.5-0.1l1-2.1
		l2.2,2.2l0-1.6l1.2-0.3l0.7,1.5l1-1.3l0.3,0.2l-0.2,0.7l0.9-0.3l0.4,0.3l0.3-0.4l0.6,0.3l1-0.3v1l1.2-0.9l0.8,1.3L87,41l0.7,0.6
		l0-0.6l1.7,0.2v0.7l0.6,0l0.4-0.7l0.1,1.1l1.4-1l-0.4,1h0.7v1.3h2.3l0,1.2l1.7,0.2l-0.3,1h0.7v-0.7l0.7,0l-0.4,1.3l1,0.7l-1,1.7
		l1.6-1l1,0.3v1.3c0,1.2,1.3,1.3,1.3,2c0,0.2-0.5,0.7-0.7,1l1.7-0.4l0.3-2h0.3v1.4c2.7-0.6,2.5-1,4.4-2v0.7c-1.3,0.9-4.7,1.8-4.7,3
		c0,0.9,0.2,0.9,0.2,1.5l-1.2,1.3l3-1.5c-0.7,2-2.8,1.1-3.4,3c1.5-0.7,2.9-0.4,3.4-1.9l1.2-0.4l0.4,1c-0.3,0.2-0.7,0.2-0.7,0.7
		c0,0.3,0.4,0.7,0.7,0.7c0.8,0,0.4-0.1,1.4-0.3l0,1.1l1.7-1l-0.7,2.3l0.3,1.5l1-1.2l2,0.4v-1.3c1.5,0.8,0.6-0.1,1.4,1.4l0.6-0.4
		l1.1,3.1l1.2-1.8h-0.7l0-1.1l1,0.7l1.7-0.7l-0.1-1.4l-0.6,0.7v-1l0.4-0.1l0.9-2.2c-1.2-0.4-1.2-0.7-0.3-1.3l0,1l1.1-0.3l-0.8,2.3
		h0.7l0.1,1.1l1-1.1l-0.5-2.1L121,55l-0.4,1.7c0.2,0.4,0.3,0.4,0.3,1c0,0.8-0.3,0.7-0.7,1.4l1.4-0.4l-0.4,0.7h-0.7
		c-0.9,1.3-1.2,0.3-1.6,2.1l1.9-1.4v1c-1.5,0.8-3.2,1.2-3.6,3.1l1.6-1.8l0.6,0l0.4,1l-0.7,1l0.7,0.3l-1,0.3l0,1.3l-0.7,0.4
		c1.8,0.1,0.9,0.8,1.7-0.3l-0.7-0.1l1.4-1.3v0.7h0.7v0.7h-1l0,0.7l1.3-0.4l0-0.9l1.3-0.8c0.4,0.2,0.4,0.3,1,0.3h1
		c-0.8,1.1,0.1,0.5-1.7,0.3c-0.6,2.1-0.5,0-1.7,1.7l1.9-0.4l0.7-0.6l0,0.6l1.7-0.6v0.7c-1.7,0.1-1.2,0.7-2.7,0.7
		c-1.5,0-2.8,0.7-4,0.7c-0.6,0-2,0.9-2.4,1.2l2.4,0l-0.7-0.6l1.7,0.1l-0.7,0.6h1l0-0.7l1.4,0.5l1.3-1.5l1,0.7l1.8-0.2l-2.1,1.2v-0.6
		l-2.7,1.3h0.7l0,1l1.7-0.6l0.1,1.1l0.6-0.7v0.7l0.6-0.1l0.8-0.9l-0.2,2.4l0.5-1.2l1.8,0.6l-2.8,1.9l1.3-0.4l0.4,1.7H126l0,0.6
		l1.5-0.2l-1.1,1.6c-0.4-0.2-0.4-0.3-1-0.3l-1.7,0l0.4,1l1.7-0.3l0,0.5l1.4,0.2l1-0.7c-0.3-1.6-0.6-0.7,0.3-1l0,1l1.3-0.7
		c-0.5,2.3-0.9,1-2,2.7h1.3v-0.7l0.6,0l0.4,0.7c-2.1,1.5-2.7-0.4-4,1.4l1-0.4v0.7l1.6-0.1l0.7-0.6l0,0.6l0.9-0.2l0.8,1l-1.3-0.4
		l-1.3,0.7l0,1.4l2-0.7c-0.4,1.5-0.5,0.7-1.7,1.7c1.7,0.1,1.9-0.2,2,1.3h-1.3v-0.7c-1,0.3-0.7-0.1-0.3,0.7c-1.3,0.1-1-0.2-1.4,0.9
		l-1.4,0.3l2.1,0.8l-0.4-0.6h0.7l0.7,0.4l-0.7,1c-1.8,0-2,0.7-3.4,0.7c-0.9,0-0.9,0.2-1.7,0.3l0.7-1c0,0-0.6-0.3-0.7-0.3
		c-0.7,0,0,0.7-1.7,0.7v0.3h1.3l0,0.3l-2,0.4l0.3,0.6l-1.3,0.4h-3v-0.3h1.7l0-0.3l-1.7-0.4c0,0-3.7,3.3-4.1,3.6
		c-1.6,1.3-4.9,1.2-5.3,2.8h1c1.5,0,1.5,0.4,2,1.2l2.3,0.2c0.3-1.2,0-0.9,1.4-1l-0.3,0.6l1,0.4l1.7-0.3l-0.3,0.7l2.4-0.4l-0.4,0.6h2
		v-0.3h-1.3c0.6-0.8,0.8-0.6,2-0.3l1.3-0.9l1.3-0.1l0,0.6l2.5-0.5l-1.2,1l1.1,0.1c-0.1,1-0.2,0.9-0.7,1.3l-1.7,0.1l-0.6-0.4l-1,0.3
		c-0.5-0.2-0.6-0.3-1.3-0.3h-0.3c-0.9,0-0.8-0.1-1.4-0.4l-1.3,0.4V99c-0.3,0.1-3.3,1.3-3.3,1.3h-1.4c-1.3,0-2-0.9-3.7-1.3l-1,0.3
		l0.3,1.4l-0.6,0l-0.4-1.3l-1.3,0c0.2,1.4,1,1.4,1.6,2.4l-2-0.7c-0.1-1-0.1-1.4-0.9-1.8c-0.5-0.2-1.6-0.9-1.8-0.9
		c-1.1,0-6.3,3.6-9.1,3.7c0.9,0.8,1.7,1.4,3,1.6l2.4-0.1l-1.7,0.5c0.4,0.6,0,0.7,1,0.7c1,0,1-0.4,1-1.3h0.3v1l1.4,0.1l-0.7,0.6
		l1.4,0.2l-2.4,0.7l-1.7,0.1l0.4-0.7l-1.7,0.4l0.4,0.7h-1.7c-0.8,0-0.8,0.1-1.3,0.3l-1-0.3c-2.5,0.6-1.5,0.3-4,0.3l-2.7,1.7v0.7
		l1.3,0.1l1.7-0.1h2.4c0.9,0,0.9-0.2,1.7-0.3c-0.4,0.6-0.1,0.7-1,0.7h-0.3c-0.9,0-0.8,0.1-1.3,0.3l-1-0.4l-1.3,0.4l-1.4-0.5
		l-1.6,0.8l0.1,0.7l-0.4,2.7l0.1,1l-0.3,3l-0.4,1.3c0.9,1.3,1.6,3,2.6,4.1c0.3,0.4,4,2.9,4.1,3l2.7-0.4l0.1,1.4l1.3-1.4
		c0.4,0.2,0.4,0.3,1,0.3c1.7,0,2.2,0.8,3.2,1.6l-0.8-1.7l6.7,0.1c0.8,0,0.9,0.1,1.4,0.4l0.7-0.4c0.4,0.2,0.4,0.3,1,0.3
		c1.1,0,0.9-1,2.7-1c0.8,0,0.7,0.3,1.3,0.7c0,0,0.6-0.3,0.7-0.3c0.9,0,0.8,0.1,1.4,0.4l1.3-0.4l1.3,0.7c1.2-0.3,1.6-0.7,3-0.7h0.7
		c0.1,0,0.1,0,0.2,0c2.3-2.1,5.6-3.9,6.1-7.5c0-0.9-0.8-0.6-0.8-1.3c0.5-0.9,0.8,0.4,1.3,0.3c-0.2-2.4,2.6-4,3.2-6.5
		c-0.3-0.4-0.3-1.2-1-1.2c2.6-2.1,1.6-6.4,3.2-9C130.6,100.8,132,98.4,131.5,97.4z"/>
	<polygon fill="#00547D" points="25,88.2 25,88.9 25.7,88.9 	"/>
	<path fill="#00547D" d="M25.4,87.7l-2.1-1.4l-1.4,0.3l0.4-0.6l-1.6-0.3l-0.4,0.6l0-0.9L20,85.2L18.8,85l1.1,1.6h0l1.2,0l0.4,1.3
		c1.4,0.1,0.8,0.3,2,0.3C24.5,88.2,24.6,88.1,25.4,87.7z"/>
	<polygon fill="#00547D" points="81.3,121.5 81.3,120.1 81.1,120.1 80.7,121.5 	"/>
	<polygon fill="#00547D" points="73.5,55.4 74.6,56.4 73.8,55.2 	"/>
	<polygon fill="#00547D" points="74.6,42.9 73.9,43.6 74.6,43.6 	"/>
	<path fill="#00547D" d="M69.8,80.4c0.5,0.4,0.5,0.5,1.1,0.5c1,0,1.1-0.6,1.3-1.2l-1,0L69.8,80.4z"/>
	<rect x="72.6" y="59.1" fill="#00547D" width="0.7" height="1"/>
	<polygon fill="#00547D" points="71.9,41.9 71.9,42.6 72.7,42.5 	"/>
	<polygon fill="#00547D" points="71.3,55 72,55 71.3,54.4 	"/>
	<polygon fill="#00547D" points="71.9,43.6 72.7,43.6 71.9,43 	"/>
	<polygon fill="#00547D" points="71.6,62.4 72.6,61 71.2,60.8 	"/>
	<polygon fill="#00547D" points="71.5,66.7 72.7,67.1 72.2,66 	"/>
	<polygon fill="#00547D" points="73.6,70.8 74.3,71.5 74.3,70.4 	"/>
	<path fill="#00547D" d="M73.6,71.8c0,0-0.6-0.3-0.7-0.3c-0.3,0-0.6,0.4-0.7,0.7l1,0.3L73.6,71.8z"/>
	<polygon fill="#00547D" points="71.9,71.2 70.9,70.8 70.9,71.8 71.9,71.8 	"/>
	<path fill="#00547D" d="M68.3,70.1v1.4c0.3-0.2,0.7-0.2,0.7-0.7C68.9,70.3,68.5,70.3,68.3,70.1z"/>
	<path fill="#00547D" d="M68.6,68.4c0.5-0.1,1.3-0.4,1.3-1c0-0.7-0.9-0.9-1.7-1L68.6,68.4z"/>
	<path fill="#00547D" d="M73.6,66.5l0.3-1l-1.3-0.7C72.7,66.1,72.7,65.9,73.6,66.5z"/>
	<polygon fill="#00547D" points="70.6,59.1 71.3,59 70.6,58.4 	"/>
	<path fill="#00547D" d="M64.9,91.6c0-0.5-0.9-0.8-1.3-1c0,0-0.3,0.6-0.3,0.6c0,0.6,0.2,1,0.7,1C64.4,92.3,64.9,92.1,64.9,91.6z"/>
	<polygon fill="#00547D" points="63.2,98.3 64.2,97.6 63.2,97.6 	"/>
	<path fill="#00547D" d="M67.6,68.8h0.7c-0.1-1.6,0.4-0.6-0.7-1.3V68.8z"/>
	<path fill="#00547D" d="M69.3,72.5l0.1,1.1l0.9-1.1l-0.3-1C69.4,71.9,69.3,71.5,69.3,72.5z"/>
	<path fill="#00547D" d="M68.9,57.7c0,0.5,0.4,0.5,0.6,0.7l0.4-1.3C69.4,57.2,68.9,57.1,68.9,57.7z"/>
	<path fill="#00547D" d="M68.6,65.1c0,0.5,0.7,0.8,1.1,1l-0.4-1.7C69,64.6,68.6,64.6,68.6,65.1z"/>
	<polygon fill="#00547D" points="80.7,67.4 79.9,67.5 80.6,68.2 	"/>
	<polygon fill="#00547D" points="68.2,45 69.3,44.9 68.6,44.3 	"/>
	<polygon fill="#00547D" points="68.9,60.7 68.5,61.7 69.7,61.3 	"/>
	<polygon fill="#00547D" points="74.3,63.8 73.6,63.8 74.2,64.5 	"/>
	<polygon fill="#00547D" points="79.3,52 80,51.4 79.3,51 	"/>
	<polygon fill="#00547D" points="79.6,62 78.6,62.6 80.3,63.4 80.3,62.7 79.7,62.7 	"/>
	<polygon fill="#00547D" points="80.3,62.7 81.1,62.6 80,61.4 	"/>
	<path fill="#00547D" d="M77.3,75.2l0,0.7l2.1,0.6l-0.4-2C78.3,74.5,77.3,74.4,77.3,75.2z"/>
	<polygon fill="#00547D" points="78,58.4 78.8,58.3 78,57.4 	"/>
	<path fill="#00547D" d="M81.3,86.9c-0.1-1.6,0.4-0.6-0.7-1.4C80.8,87.1,80.3,86.2,81.3,86.9z"/>
	<polygon fill="#00547D" points="76.6,42.3 77.4,42.2 76.6,41.6 	"/>
	<polygon fill="#00547D" points="80.3,69.8 79.7,70.2 80.3,70.8 	"/>
	<path fill="#00547D" d="M80.9,57c1.1-0.7,0.6,0.3,0.6-1.4L80.9,57z"/>
	<polygon fill="#00547D" points="81.9,71.4 81.3,72.1 82,72.1 	"/>
	<polygon fill="#00547D" points="81,87.2 81,87.9 81.7,87.2 	"/>
	<polygon fill="#00547D" points="78.7,60.1 79.7,59.4 78.7,59.4 	"/>
	<path fill="#00547D" d="M74.5,77.2L74,75.9L73,76.1l-0.4-1l-0.3,0.3c0.5,0.9,1.4,2.6,2.4,3c0,0-0.3-0.6-0.3-0.7c0-0.2,0-0.3,0-0.3
		C74.3,77.6,74.3,77.6,74.5,77.2z"/>
	<path fill="#00547D" d="M77,63.4c-0.1-1.6,0.4-0.6-0.7-1.3C76.4,63.6,75.9,62.7,77,63.4z"/>
	<polygon fill="#00547D" points="74.3,58.7 73.6,58.8 74.2,59.5 	"/>
	<path fill="#00547D" d="M72.9,63.8l0.9-0.4l0.4-1C73,62.6,73.3,62.2,72.9,63.8z"/>
	<polygon fill="#00547D" points="73.9,75.2 73.6,73.8 72.6,73.8 72.2,74.5 72.6,75.2 73.6,75.4 	"/>
	<path fill="#00547D" d="M71.8,70.9l0.3-0.1l-0.2-0.6l2-1c-0.4-1.5-1.2-1.6-2.8-2l0.4,1.3l-0.8,0.9L71.8,70.9z"/>
	<path fill="#00547D" d="M75.3,72.1c0,0.3,0.4,0.7,0.7,0.7c0.8,0-0.2,0.1,0.7-0.4l-0.4-1C75.8,71.6,75.3,71.5,75.3,72.1z"/>
	<path fill="#00547D" d="M29.9,68.5l0.7,0.6h0.7C30.6,68.1,31.6,68.6,29.9,68.5z"/>
	<rect x="75" y="75.2" fill="#00547D" width="0.7" height="1"/>
	<polygon fill="#00547D" points="72.2,72.8 72.6,73.8 72.9,72.8 	"/>
	<polygon fill="#00547D" points="73.6,67.1 75.1,68.1 74,66.1 	"/>
	<polygon fill="#00547D" points="87,92.3 87,92.9 87.7,92.9 88.1,92 	"/>
	<path fill="#00547D" d="M127.3,79.2c-1.4,0-1.5,0.1-2,1h1C127.2,80.2,127.1,80,127.3,79.2z"/>
	<polygon fill="#00547D" points="125.6,84.9 126.3,84.2 125.6,84.2 	"/>
	<path fill="#00547D" d="M128.1,86.2l-0.8-0.9c-0.3,1.2,0,0.9-1.3,1v0.7C127.7,86.8,126.4,86.7,128.1,86.2z"/>
	<path fill="#00547D" d="M121.6,86.9l1.3-0.4l0.4-1.4l0.9,0.3l0.6-0.2l0.1-1.3C122.9,85,122.8,85.1,121.6,86.9z"/>
	<path fill="#00547D" d="M125.9,85.1l-2.4,1.3C125.2,86.2,125.2,86.4,125.9,85.1z"/>
	<path fill="#00547D" d="M114.3,89.7l0,0.2c1.7,0,1,0.3,1.7-0.7c0.9,0.4,0.4,0.6,0.6-0.5L114.3,89.7z"/>
	<polygon fill="#00547D" points="116.2,88.3 118.2,87.9 118.9,87.1 	"/>
	<path fill="#00547D" d="M119.3,88.2l1.7-1C119.8,87.3,119.3,87.1,119.3,88.2z"/>
	<path fill="#00547D" d="M113.5,89.2l-1.6,0.4l0,0.3C113.6,89.9,112.9,90.2,113.5,89.2z"/>
	<path fill="#00547D" d="M116.8,88.7l1,0.5l0.8-1l-0.4-0.3C117.5,88.9,118.5,88.5,116.8,88.7z"/>
	<path fill="#00547D" d="M101.9,80.8C102.7,80.4,101.7,80.7,101.9,80.8L101.9,80.8z"/>
	<polygon fill="#00547D" points="116.2,77.8 117.3,77.8 116.6,77.2 	"/>
	<path fill="#00547D" d="M110.9,91.6c0,0,1.4-0.9,1.7-1l-0.3-0.3l-2,0.6C110.4,91.2,110.4,91.6,110.9,91.6z"/>
	<path fill="#00547D" d="M117.9,78.9l1.7-0.7C118.7,78.2,118,78.1,117.9,78.9z"/>
	<rect x="113.5" y="76.2" fill="#00547D" width="0.7" height="1"/>
	<path fill="#00547D" d="M117.9,76.2l-0.3,1c2.5-0.2,0.5-1.1,3-1.7v-0.7c-1.4,0.1-0.6-0.1-1.7,0.7l0-0.7l-1.7,0.7v0.7H117.9z"/>
	<path fill="#00547D" d="M114.9,78.5l-1,0l0.4,0.6c-1.5,0.1-0.9,0.3-2,1v0.6l2.3-1L114.9,78.5z"/>
	<path fill="#00547D" d="M113.9,84.9c1.7,0,1,0.3,1.7-0.7C114.7,84.2,114,84.1,113.9,84.9z"/>
	<path fill="#00547D" d="M122.3,83.4l-1.7-0.2c-0.5,0-2.1,1.2-2.3,1.7c-0.4-0.2-0.4-0.3-1-0.3c-0.9,0-2.2,0.7-3.6,1.1
		c-1.3,0.3-2.7,0.4-2.8,2.3l-0.7,0.4l-1-1h1v-0.7c-1.3,0.3-2,0.4-2.7,1.3l1,0l-0.3,1.4c-0.8-0.6-0.8-1.3-1.4-1.3
		c-0.5,0-1.2,1.5-1.3,1.8l0.9,0.6c-1.4,0.7-1.3-0.2-1.7,1.3c0.4-0.2,0.4-0.3,1-0.3c1,0,1.2,0.2,2,0.3l1.3-0.7v-0.7l5-2.3l0-1
		l0.7-0.4l0.9,0.7l0.4-0.3l-0.6-0.8l1.6-0.8l0.6,0.3l1.7-0.6c-0.6,1.9,0.2-0.7-1,1c2.2,0.7-1.2-0.1,1,0.7V86l1-0.1v0.7l1.3-0.7
		l0.4-1.3h0.7v-0.7h-0.7L122.3,83.4z"/>
	<polygon fill="#00547D" points="116.2,76.9 117.2,76.2 116.2,76.2 	"/>
	<path fill="#00547D" d="M113.9,82.6l-0.9-0.3l-0.1,1.3c1.3-0.6,1.9-0.1,2-2C113.5,82.3,114.2,81.4,113.9,82.6z"/>
	<polygon fill="#00547D" points="115.2,82.9 115.9,82.2 115.2,82.2 	"/>
	<polygon fill="#00547D" points="111.6,80.6 112.2,80.2 111.5,79.9 	"/>
	<polygon fill="#00547D" points="117.6,82.3 116.6,82.2 115.8,83.2 119.6,82.9 119.6,82.6 	"/>
	<polygon fill="#00547D" points="110.8,85.8 113.5,84.9 112.2,84.8 	"/>
	<path fill="#00547D" d="M107.2,86.6l2-0.7C108.5,85,107.6,85.4,107.2,86.6z"/>
	<path fill="#00547D" d="M104.5,86.9c0.2,0,0.3,0,0.3,0c0,0,0,0.1,0.3,0.2l0.7-0.2v-0.7l-1.7,0l-1-0.3l0.7,1.4
		C103.8,87.2,104.4,86.9,104.5,86.9z"/>
	<polygon fill="#00547D" points="105.8,85.2 105.8,86.2 106.8,85.2 	"/>
	<path fill="#00547D" d="M104.2,72.1c-1.2,0-1.5,0.3-2,1l1.7,0l-0.7,1h1.7c0.2-0.9,0.3-0.6,0.3-1.3
		C105.2,72.3,104.7,72.1,104.2,72.1z"/>
	<path fill="#00547D" d="M102.5,89.6c0.7,1.4-0.1,0.6,1,1C102.7,89.2,103.6,90,102.5,89.6z"/>
	<polygon fill="#00547D" points="101.5,89.2 102.1,88.6 101.1,88.6 	"/>
	<path fill="#00547D" d="M104.2,76.5c1.4-0.4,0.7-0.1,1.3-1.3C104,75.5,104.3,75.2,104.2,76.5z"/>
	<path fill="#00547D" d="M111.8,82.9l-1.7,1.3l1,0c0.5,0,1-0.2,1-0.7C112.2,82.8,112.3,83.7,111.8,82.9z"/>
	<path fill="#00547D" d="M105.5,74.5l0.7,0l-0.7,2.1l1.3-0.8l0-1.3l0.6-0.3l-0.3-1.4C105.2,71.9,105.9,72.9,105.5,74.5z"/>
	<path fill="#00547D" d="M101.8,81.6l-1.7-0.4l-0.6,2c0.9,0.2,0.6,0.3,1.3,0.3c1.1,0,2.1-2,2.3-3c0,0-0.6,0.3-0.7,0.3
		c-0.3,0-0.5,0-0.5-0.1c-0.1,0-0.1,0-0.1,0.1L101.8,81.6z"/>
	<path fill="#00547D" d="M103.8,66.1c-1.4,0.5-0.1-0.3-1,1L103.8,66.1z"/>
	<polygon fill="#00547D" points="107.9,73.2 108.2,72.1 107.2,72.8 	"/>
	<path fill="#00547D" d="M105.2,82.9c1.8-0.9,1-0.3,2.7-0.3l0,0.3l-2.7,0.4l-0.7,0l-1,1.8l4.6-1.2l0.4-1.7h-0.7c0.4-0.6,0-0.7,1-0.7
		c1.3,0,0.6-0.2,2-0.3v-1h-3C106.7,80.2,105.3,81.7,105.2,82.9z"/>
	<polygon fill="#00547D" points="96.8,84.6 97.4,84.8 97.8,84.5 97.1,83.9 	"/>
	<path fill="#00547D" d="M106.2,98c1.6,0,0.4,0.3,2,0.3c0.9,0,0.6-0.1,1-0.7h-3V98z"/>
	<path fill="#00547D" d="M101.8,97.3h-1.7c-1.1,0-2.4,1.7-2.7,2.7C99.1,99.9,101.4,98.7,101.8,97.3z"/>
	<path fill="#00547D" d="M98.8,83.9c0.4,1.5,1,1.1,2.3,1.3l0.4-1.2l-3.3-0.4C98.3,84.3,97.6,84.5,98.8,83.9z"/>
	<path fill="#00547D" d="M108.9,92.3c-1.1,0-2.1,1.4-2.3,2.3h-1.3c-0.3,0.4-1,1.1-1,1.3c0,0.8-0.1-0.2,0.4,0.7l2-1.4l0.5,0.3
		l2.8-3.3H108.9z"/>
	<path fill="#00547D" d="M110.2,95c1.1-1,1.4-0.5,2.5-1.1c0.7-0.4,1.3-1.3,2.1-1.9v-0.7c-2.3,1.1-5.6,0.7-6.4,3.7
		c0,0,0.6-0.3,0.7-0.3C110.5,94.6,109.3,94.5,110.2,95z"/>
	<polygon fill="#00547D" points="115.5,90.5 114.9,91.3 115.6,91.3 	"/>
	<path fill="#00547D" d="M104.4,92.8l0.7-0.2c-0.8-1,0.1-0.5-1.7-0.3l0.3,1c-2.2,0.5-1.9,1.1-3,2.7c1.5-0.1,4.7-2,5.4-3L104.4,92.8z
		"/>
	<polygon fill="#00547D" points="98.1,85.6 98,84.8 97.4,85.6 	"/>
	<path fill="#00547D" d="M113.5,90.9h1v-0.3h-2v0.7C112.9,91,112.9,90.9,113.5,90.9z"/>
	<path fill="#00547D" d="M98.1,93.3h1.3C99,92.6,98.7,92.5,98.1,93.3z"/>
	<polygon fill="#00547D" points="98,82.8 99.3,81.7 99,81.4 	"/>
	<path fill="#00547D" d="M95.8,85.9l1-0.7v-0.7C95.6,84.9,95.9,84.6,95.8,85.9z"/>
	<polygon fill="#00547D" points="96.5,86.6 97.4,85.6 96.3,86.4 	"/>
	<path fill="#00547D" d="M121.6,88.1l2.3-0.5c-1-1.3-3.4,0.3-4,1.3l-1.7,0.7C119.6,89.5,121.2,89,121.6,88.1z"/>
	<polygon fill="#00547D" points="89.4,80.2 90.1,79.2 89.4,79.2 	"/>
	<polygon fill="#00547D" points="89,71.4 89.7,71.5 89.6,70.1 	"/>
	<path fill="#00547D" d="M90.1,82.6h1.3v-0.7C90.6,81.9,90.2,81.8,90.1,82.6z"/>
	<polygon fill="#00547D" points="89,69.5 89,68.7 88,69.3 	"/>
	<polygon fill="#00547D" points="88.7,46.6 88.7,47.3 89.4,46.6 	"/>
	<polygon fill="#00547D" points="87.4,72.5 88,71.8 87.4,71.8 	"/>
	<polygon fill="#00547D" points="91.4,70.8 91.3,70.1 90.7,70.7 	"/>
	<polygon fill="#00547D" points="93.4,45.6 94.2,45.6 93.4,45 	"/>
	<path fill="#00547D" d="M95.7,59.7l-1,0.4v1C96,60.7,95.7,61,95.7,59.7z"/>
	<path fill="#00547D" d="M87.7,58.1h-1.3v1H87c0.1-0.3,0.2-0.5,0.2-0.6C87.3,58.4,87.4,58.3,87.7,58.1z"/>
	<polygon fill="#00547D" points="90.7,43.2 91.4,43.3 91.3,42.5 	"/>
	<path fill="#00547D" d="M92.8,61.4l1.3,0l0.7-1.3l-0.3-0.3C93.6,60.3,93.1,60.3,92.8,61.4z"/>
	<polygon fill="#00547D" points="91.4,62.1 92.1,61.4 91.4,61.4 	"/>
	<path fill="#00547D" d="M91.7,63.8l0.7-0.7l0.6,0.2l1.8-1.2C93.1,62.1,91.9,62.3,91.7,63.8z"/>
	<path fill="#00547D" d="M84.7,80.2l-0.3,0.6l0,1.3l1.5,0.5l0.5-2.7h-0.7c-0.8-1.5,0.1-0.6-1.4-1.3L84.7,80.2z"/>
	<path fill="#00547D" d="M106.2,132.5v0.3l1,0l1.4-0.7l-0.4-0.7C107.2,132.2,107.5,132.5,106.2,132.5z"/>
	<polygon fill="#00547D" points="103.1,132.1 104.2,132.2 104.1,131.5 	"/>
	<polygon fill="#00547D" points="98.1,132.5 98.1,133.2 99.5,133.2 99.4,133 	"/>
	<polygon fill="#00547D" points="108.9,132.9 108.2,132.9 108.2,133.5 	"/>
	<polygon fill="#00547D" points="86.2,72.2 86.4,71.4 87,71.8 87.7,70.8 86.1,71.2 	"/>
	<path fill="#00547D" d="M108.9,131.9h1.7C110.1,131.5,109.1,130.5,108.9,131.9z"/>
	<polygon fill="#00547D" points="112.2,131.1 110.8,131.7 112.2,131.9 	"/>
	<polygon fill="#00547D" points="87,78.9 85.7,78.9 86.4,79.9 87,80.2 	"/>
	<polygon fill="#00547D" points="84.4,72.1 85,71.5 84.4,71.5 	"/>
	<polygon fill="#00547D" points="87.1,133.6 87.7,134.2 88.1,133.2 	"/>
	<path fill="#00547D" d="M85.7,74.8c1.6-0.1,0.6,0.4,1.3-0.7C86.3,74.2,85.8,74.1,85.7,74.8z"/>
	<polygon fill="#00547D" points="85,83.9 84.9,82.8 84.2,83.8 	"/>
	<path fill="#00547D" d="M95.1,62.7c0,0.8-0.1-0.2,0.3,0.7c0.4-0.2,0.4-0.3,1-0.3h1.7c0.3-0.8,0.6-1.3,1.7-1.3l0-0.3l-1.6-0.3
		l-1.7,0.3C95.9,62.2,95.1,62.2,95.1,62.7z"/>
	<polygon fill="#00547D" points="102.6,69.2 102.3,69 101.3,70.3 	"/>
	<path fill="#00547D" d="M108.9,74.2l1-1.7C109,73.1,109,72.8,108.9,74.2z"/>
	<path fill="#00547D" d="M107.8,79.5l1.3-0.3l1.4,0.3l-0.4-2.3C108.3,77.3,108.8,78.1,107.8,79.5z"/>
	<polygon fill="#00547D" points="108.9,72.5 109.5,71.8 108.9,71.8 	"/>
	<polygon fill="#00547D" points="107.1,65.7 106.2,66.1 106.8,66.8 	"/>
	<polygon fill="#00547D" points="108.5,71.5 109.2,70.8 108.1,70.8 	"/>
	<polygon fill="#00547D" points="106.8,70.1 106.8,69.3 105.7,70 	"/>
	<path fill="#00547D" d="M111.2,77.2h-0.7c0.2,0.4,0.3,0.4,0.3,1v0.3c0,0.6,0.2,1,0.7,1c0.2,0,1.5-1.4,2-1.7l-0.3-1.1l-0.9,0.3
		l-1.1-0.5V77.2z"/>
	<polygon fill="#00547D" points="112.4,63.3 112.9,63.7 114.2,63.4 113.8,62.3 	"/>
	<path fill="#00547D" d="M115.9,75.8h-0.7l-0.7,0.7C116.1,76.4,115.1,76.9,115.9,75.8z"/>
	<path fill="#00547D" d="M115.2,63.8c0,0,0.6,0.3,0.7,0.3c0.3,0,1.6-1.9,2-2.4C116.8,61.9,115.7,63,115.2,63.8z"/>
	<path fill="#00547D" d="M111.2,74.5l1.3-0.7l-0.3-1C111.3,73.4,111.3,73.2,111.2,74.5z"/>
	<polygon fill="#00547D" points="115.2,75.8 116.2,75.5 116.2,74.8 114.1,75.3 	"/>
	<polygon fill="#00547D" points="106.5,71.2 107.9,71.4 106.8,70.5 105.8,70.8 105.8,71.5 	"/>
	<path fill="#00547D" d="M32.5,70.8l0.1,1.3c1.5-1.1,0.3-0.2,0.3-1c0-0.8-0.1,0.2,0.3-0.7c-1-0.1-2.2-0.7-2.7-1.4H30v1h1.7v0.7H32.5
		z"/>
	<polygon fill="#00547D" points="116.6,74.8 116.6,75.9 117.2,75.5 117.6,74.8 	"/>
	<polygon fill="#00547D" points="97.1,58.1 96.1,58.5 96.8,59.1 	"/>
	<path fill="#00547D" d="M97.8,80.2c-0.1-0.2-0.1-0.3-0.1-0.4c-0.1,0-0.3,0-0.6-0.2l-0.3-0.4l-1.4,1.3L97.8,80.2z"/>
	<polygon fill="#00547D" points="100.5,66.1 100.5,66.8 101.1,66.1 	"/>
	<path fill="#00547D" d="M97.7,79.8C98,79.8,97.6,79.2,97.7,79.8L97.7,79.8z"/>
	<polygon fill="#00547D" points="99.1,71.1 100.1,71.1 100.1,70.1 	"/>
	<path fill="#00547D" d="M98.8,76.8l0-0.6l-2.4,0.7l0.7,0.5l1.4-0.2l-1.7,1.3v0.7h1.7c1-0.7,1.8-1.2,1.3-2.3h0.7l-0.1-0.8L98.8,76.8
		z"/>
	<path fill="#00547D" d="M104.2,71.2l1.7-0.4C105.8,69.7,104.2,71.1,104.2,71.2z"/>
	<polygon fill="#00547D" points="104.8,65.7 104.1,66.4 104.8,66.5 	"/>
	<polygon fill="#00547D" points="102.1,60.7 102.1,60.1 101.5,60.7 	"/>
	<path fill="#00547D" d="M103.1,70.5l2-1C103.9,69.5,103.4,69.4,103.1,70.5z"/>
	<path fill="#00547D" d="M104.2,67.1c-0.1,1.4,0,0.6-0.7,1.7l1.6-0.3l-0.3-1.4H104.2z"/>
	<rect x="102.1" y="59.4" fill="#00547D" width="0.7" height="0.7"/>
	<path fill="#00547D" d="M103.5,57.5l-0.7,0.2c-0.1,1-0.2,0.8-0.7,1.3c1.7-0.1,0.5-0.3,2-0.7v0.7c1-0.8,0.5,0.2,0.7-1.3L103.5,57.5z
		"/>
	<path fill="#00547D" d="M113.5,61.7h-1.7C112.6,62.8,112.6,62.6,113.5,61.7z"/>
	<polygon fill="#00547D" points="48.5,100.3 47.8,99.3 47.5,101.1 	"/>
	<polygon fill="#00547D" points="47.5,98.7 48.1,98.3 47.1,98.3 47.1,99.3 47.8,99.3 	"/>
	<path fill="#00547D" d="M48.1,101.3c0.4,0.2,0.4,0.3,1,0.3l0.8-0.1l1.9-2.9C51.3,98.8,48.5,100.8,48.1,101.3z"/>
	<path fill="#00547D" d="M46.1,95.6c0.8,1-0.2,0.5,1.4,0.7C47,95.1,47.8,96,46.1,95.6z"/>
	<path fill="#00547D" d="M50.5,102.3c-1.3,0-2.2-0.7-2.3,0.3c0.9,0.2,0.6,0.3,1.3,0.3C50.4,103,50.1,102.9,50.5,102.3z"/>
	<path fill="#00547D" d="M47.5,103l0.4,1l0.9-0.2l0.7,0.2c-0.7,1.8,1,1,1.7,0l-0.7-0.1l0.7-0.6C49,103.5,49.5,103.2,47.5,103z"/>
	<path fill="#00547D" d="M45.1,103h0.7c0.9,0,0.6-0.1,1-0.7l-2.1,0.3l0.3-1.2l-3-1.1C42.3,101.3,43.7,103,45.1,103z"/>
	<polygon fill="#00547D" points="45,95.6 44.4,96.2 45.5,96.6 	"/>
	<polygon fill="#00547D" points="43.7,93 43.8,92.3 43,92.3 	"/>
	<polygon fill="#00547D" points="45.8,92 44.5,92.3 44.1,91.6 44.1,92.6 45.8,92.6 	"/>
	<polygon fill="#00547D" points="39.7,98 39.7,99.3 40.8,98.8 40.7,98.5 40.1,98.6 	"/>
	<polygon fill="#00547D" points="43.4,98.3 44.9,98.5 43.7,97.3 	"/>
	<polygon fill="#00547D" points="40.9,97.8 42.1,97 41.9,96.8 	"/>
	<polygon fill="#00547D" points="46.4,99.4 46.4,98.7 45.7,98.7 	"/>
	<path fill="#00547D" d="M72.6,92.9H74c0.5-1.7,1.4-1.2,1.7-4.4l0-1.3l0.3-1l0.7,0.4c-0.2-2-1.5-1.9-2-3.4H74l-0.3,1
		c-1.2-0.8-2-0.8-2-2c0-0.7-0.1,0.2,0.3-0.6l-2.3,0c-0.4,1.4-0.7,0.6-0.7,1.7c0,1,0.6,2,0.9,2.7l0.1,2.3l-0.2,0.6l0.9,1.5l0.7-0.3
		l-0.4,1L72.6,92.9z"/>
	<path fill="#00547D" d="M68.3,74.2c0.7,2.9,0,3.8,3.4,4l0.3-1C69.9,76.7,70,74.8,68.3,74.2z"/>
	<polygon fill="#00547D" points="74,103.3 74,104 74.7,104 	"/>
	<path fill="#00547D" d="M102.1,76.8l0-1.4l-1.3,0.4l0,1c0,1.3,0.1,0.1-0.3,1C101.4,77.5,101.1,77.4,102.1,76.8z"/>
	<polygon fill="#00547D" points="76.6,132.5 78,132.4 76.6,131.9 	"/>
	<path fill="#00547D" d="M75.6,107c-0.1-1.3-0.1-1.1-1-1.7C74.7,106.7,74.8,106.5,75.6,107z"/>
	<path fill="#00547D" d="M63.9,101.7h3c-0.5-0.5-0.6-0.3-0.7-1.3h-1c-1.1,0-0.7,0.7-1.4,0.7c-0.8,0-0.4-0.1-1.3-0.3
		C62.9,101.2,63,101.7,63.9,101.7z"/>
	<path fill="#00547D" d="M68.3,78.5h-0.3v1h-1c0.6,1.2-0.1,1,1.3,1.4V78.5z"/>
	<path fill="#00547D" d="M61.9,102.7c-0.3-0.4-2.9-2-3-2c-1.1,0,0.2,0.5-1,1.3l-0.3-0.9l-1.8,0l0.4,1.3l-1,0l0.4,0.7l-1,0l0.6-1.8
		l-1.3,0.9l-1.4-0.4l0.4,2.5L61.9,102.7z"/>
	<polygon fill="#00547D" points="63.2,89.9 62.1,90 62.5,90.9 	"/>
	<rect x="61.5" y="100.3" fill="#00547D" width="0.7" height="0.7"/>
	<polygon fill="#00547D" points="67.2,94.3 67.9,93.6 67.2,93.6 	"/>
	<path fill="#00547D" d="M53.8,100.7c-0.1-1.2-0.5-1-1.3-2l-0.4,1.7l1.3-0.3L53.8,100.7z"/>
	<polygon fill="#00547D" points="29,80.5 30,80.5 29,79.9 	"/>
	<path fill="#00547D" d="M34.4,80.9l1-1.7C34.1,79.5,34.4,79.3,34.4,80.9z"/>
	<polygon fill="#00547D" points="34,76.8 34.8,76.8 34,76.2 	"/>
	<path fill="#00547D" d="M36,83.2c0.8,0,0.7-0.9,0.7-1.7h-1.3C35.4,82.3,35.3,83.2,36,83.2z"/>
	<polygon fill="#00547D" points="35.4,81.2 36.5,81.1 35.4,80.5 	"/>
	<polygon fill="#00547D" points="26.3,86.2 27.3,86.2 27.3,85.6 26.3,85.2 	"/>
	<polygon fill="#00547D" points="30.7,77.2 30.7,77.8 31.4,77.8 	"/>
	<path fill="#00547D" d="M38.7,83.2L37,81.9C37.2,83.3,37.2,83.2,38.7,83.2z"/>
	<polygon fill="#00547D" points="23.6,84.6 23.6,83.9 22.9,84 	"/>
	<path fill="#00547D" d="M34.9,66.9c-0.1,0-0.2,0-0.5-0.1v1H35C34.8,67.2,34.8,67,34.9,66.9z"/>
	<polygon fill="#00547D" points="34.7,68.4 34.4,67.8 34,68.5 	"/>
	<polygon fill="#00547D" points="36.3,72.9 36.4,72.1 35.6,72.2 	"/>
	<path fill="#00547D" d="M37,75.5l0,1.7l0.6-0.3l1,0.3l0.3-1C37.5,75.8,38.8,75.6,37,75.5z"/>
	<path fill="#00547D" d="M37.6,78.4l-1.2,1.2l0.7,1.3l0.9-0.1l2.4,1.2v-2.4c0-1.3,0.1-0.1-0.3-1l0.7-0.1l-0.7-0.6l-0.3-0.7h-1
		l-1,0.3L37.6,78.4z"/>
	<path fill="#00547D" d="M34,86.6l0.9-0.1l2.5,2.2l1.3-1c0.9-0.2,0.7-0.2,1.7-0.3l2.6-0.3l0.4,0.7l-0.3,1.1l0.9-0.2l3.5,1.1
		l-1.7-2.3c-2.1-0.2-2-0.9-4-1.4c-1.9-0.5-1.6-1.4-3.7-1.6l0,0.7l-1.3-1.1c-2.2,0-4-1-4.7-1c-0.6,0-0.5,0.1-0.9,0.2h0
		c-0.1,0-0.2,0.1-0.4,0.1l-1,1.3C31.7,84.6,32.9,85.6,34,86.6z"/>
	<path fill="#00547D" d="M45.4,90.7l2.7,1.3v-0.7c0.9,0.4,0.4,0.6,0.7-0.3c-1.8-0.2-3.5-1.7-6-1.7c-0.6,0-1.1,0.4-1.4,0.7l-2-0.3
		c-0.5,1.7-0.1,0.5-1,1l0.4,0.7l1-0.4c0.7,0.5,1.1,1,2.3,1l1.4,0l-0.4-1.1l2.6,0.8L45.4,90.7z"/>
	<path fill="#00547D" d="M26.3,81.5c0.9,0.9,0.5,0.5,1.1,1.7l-0.4,1l1,0.3v-0.7c1,0.5,1.4,0.2,2-0.7h0.7l0.2-0.7l0.1-0.2l0-0.1
		c0,0,0,0,0.1,0c0,0,0,0,0.1,0c0.3,0.2,0.3,0.3,0.9,0.3c1.5,0,1,0.5,2.7,0.7v-1.7c-1.3,0.1-0.8,0.3-1.7,0.3c-0.9,0-0.8-0.1-1.4-0.4
		l-1.4,0.3l0.7-1l-1-0.3l-1,1H26.3z"/>
	<path fill="#00547D" d="M32.3,80.5l1.3,0.7c0-1.3,1.3-5.6-1.8-4.2l1.8,0.8l0,0.4l-2-0.4l-0.4,0.6l-0.7,0.4L29,78.5l0.3,1l1-0.3
		l0.7,1v0.7l1.3,0.3V80.5z"/>
	<polygon fill="#00547D" points="23.9,85.6 24,84.9 23.2,85 	"/>
	<path fill="#00547D" d="M41.8,88.6l-0.4-1c-1.6,0.8-1.5-0.4-2,1.3l0.3,0.3L41.8,88.6z"/>
	<polygon fill="#00547D" points="38.7,88.6 38.7,89.3 39.4,88.9 	"/>
	<path fill="#00547D" d="M25.6,87.6c0,1.1,0.3,0.3,1,1.7l0-1.4h1v-1l-2-0.3V87.6z"/>
	<polygon fill="#00547D" points="77.6,100.8 75.2,100.7 76.8,103.3 77.9,102.9 79,101.1 	"/>
	<path fill="#00547D" d="M25.6,85.6l0.3-1l-1.3-0.4C24.7,85.5,24.4,85.2,25.6,85.6z"/>
	<polygon fill="#00547D" points="29.7,88.9 30.3,88.8 35,89.9 35,89.3 36.5,89.1 33.4,87 30.7,87.4 30.6,87.4 29.7,87.6 29.7,86.9 
		28,87.3 28.4,88.5 	"/>
	<path fill="#00547D" d="M31.3,85.2c-1-0.1-1.2-0.3-2.3-0.3h-0.3c-1.1,0-1,0.6-1,1.7h3.7V85.2z"/>
	<path fill="#00547D" d="M72.9,81.9c-0.8,0,0.2-0.1-0.7,0.3l0.3,1H74v-0.7C73.7,82.4,73.1,81.9,72.9,81.9z"/>
	<path fill="#00547D" d="M93.9,80.7l-2,1.7C93.6,82.4,93.3,82.1,93.9,80.7z"/>
	<polygon fill="#00547D" points="91.9,99.8 90.9,100.8 92.2,100.1 	"/>
	<polygon fill="#00547D" points="91.1,102 91.1,102.7 92.1,102 	"/>
	<path fill="#00547D" d="M92.1,104.7l-1.7,0.4l0,0.3C92.1,105.4,91.4,105.6,92.1,104.7z"/>
	<path fill="#00547D" d="M91,81.5c1.6-0.3,1.7-0.4,2-2L91,81.5z"/>
	<polygon fill="#00547D" points="98.2,75.8 97.8,74.8 97.1,75.4 	"/>
	<path fill="#00547D" d="M96.8,67.8l-1,1.1l1.6-0.8c0.1-1.7,0.3-0.5,0.7-2C96.7,66.2,96.8,66.3,96.8,67.8z"/>
	<polygon fill="#00547D" points="98.1,71.1 98.8,70.5 98.1,70.5 	"/>
	<polygon fill="#00547D" points="89.4,93.3 90.1,92.3 89.4,92.3 	"/>
	<polygon fill="#00547D" points="99.3,64.9 98.3,65.9 99.5,65.2 	"/>
	<path fill="#00547D" d="M100.1,73.2c-1.2,0.1-1.4,0.5-2.3,1v0.7C99.8,73.8,98.6,74.6,100.1,73.2z"/>
	<path fill="#00547D" d="M86.7,100c0.8-0.6,0.9-0.7,1-2C86.7,98.7,86.7,98.4,86.7,100z"/>
	<polygon fill="#00547D" points="90.9,84.1 90.7,83.8 89.7,84.8 	"/>
	<polygon fill="#00547D" points="88,90.3 88.8,90.2 88,89.6 	"/>
	<path fill="#00547D" d="M87.4,85.2c0.1,1.3-0.2,1,1,1.3c0.4-1.7,0.6-0.2,0.7-2.4C87.1,84.8,89,84.6,87.4,85.2z"/>
	<path fill="#00547D" d="M87,107.4c1.6-0.2,0.6,0.5,1.3-1l-1.3,0.4L87,107.4z"/>
	<path fill="#00547D" d="M88,94.6c-1.1,0.3-1.1,0.8-1.7,1.7C87.8,96.1,87.4,95.9,88,94.6z"/>
	<path fill="#00547D" d="M89.6,100.9l-0.9,1.4C89.9,102,89.6,102.3,89.6,100.9z"/>
	<path fill="#00547D" d="M90.7,95.3c-1.7,1.1-1.1,0.6-2,2.3h1.6L90.7,95.3z"/>
	<polygon fill="#00547D" points="91.1,82.9 89.4,82.9 89.4,83.9 91.1,83.5 	"/>
	<path fill="#00547D" d="M88.7,98l0.4,0.6c-0.9,0.2-2.2,2.3-2.7,3l0.3,0.4c0.7-0.5,2.8-3.1,3-4L88.7,98z"/>
	<path fill="#00547D" d="M94.4,91.3h-1.3c0.2,0.3,0.2,0.7,0.7,0.7C94.2,91.9,94.2,91.5,94.4,91.3z"/>
	<polygon fill="#00547D" points="93.3,100.6 92.7,101.3 93.4,101.3 	"/>
	<polygon fill="#00547D" points="93.8,104.7 93.8,105.4 94.5,105.3 	"/>
	<polygon fill="#00547D" points="94.4,67 95.1,67.1 95,66.4 	"/>
	<polygon fill="#00547D" points="92.5,84.3 92.2,84.1 91.2,85.1 	"/>
	<path fill="#00547D" d="M79.3,93.6l-1.4,0l0.7,1.7l1.7-1.3C79.9,93.7,80,93.6,79.3,93.6z"/>
	<polygon fill="#00547D" points="93.1,103.3 93.1,104.4 94.2,104.3 	"/>
	<path fill="#00547D" d="M99.1,95.6L97.4,95l0.4,1l-0.9-0.3L92.1,99l0.3,1.4C95,98.6,97.3,98.4,99.1,95.6z"/>
	<path fill="#00547D" d="M97.1,103.9l-1.4,0.6C97.3,104.6,96.4,105,97.1,103.9z"/>
	<path fill="#00547D" d="M99.1,95.6l1-1.4C99.2,94.6,99.4,94.3,99.1,95.6z"/>
	<polygon fill="#00547D" points="95.1,103 94,103.2 95,103.8 	"/>
	<path fill="#00547D" d="M94.8,94.6c-0.3-0.3-0.6-0.7-1.3-0.7c-1,0-1.2,0.3-1.3,1h1C94,95,94,94.8,94.8,94.6z"/>
	<polygon fill="#00547D" points="94,93 94.7,93.7 94.8,92.9 	"/>
	<path fill="#00547D" d="M86.4,92.9l0,1.1l2-0.4v-0.7h-0.7C87.7,93.8,86.6,93,86.4,92.9z"/>
	<path fill="#00547D" d="M95.8,81.2c-1.4,0-1.5,0.1-2,1C95.3,82.2,95.1,82.2,95.8,81.2z"/>
	<path fill="#00547D" d="M91.7,96.3c1.6-0.1,0.6,0.4,1.4-0.7C92.3,95.7,91.9,95.6,91.7,96.3z"/>
	<polygon fill="#00547D" points="96.4,77.5 95.4,78.8 96.2,79.2 	"/>
	<path fill="#00547D" d="M95.4,66.5c1.6-0.2,0.6,0.5,1.4-1l-1.4,0.3V66.5z"/>
	<polygon fill="#00547D" points="96.8,65.4 97.4,65.4 97.4,64.7 	"/>
	<polygon fill="#00547D" points="94.7,79.8 95.4,79.9 95.4,79.1 	"/>
	<polygon fill="#00547D" points="95.2,75.2 95.8,74.5 95.1,74.5 	"/>
	<path fill="#00547D" d="M93.8,79.5l0.5-0.1l0.8-1.3C93.9,78.3,93.8,78.3,93.8,79.5z"/>
	<rect x="79.3" y="132.9" fill="#00547D" width="0.7" height="0.7"/>
	<polygon fill="#00547D" points="80.7,99 79,98.7 78.7,99.6 78.3,99.6 78.3,98.7 77.3,98.3 77.3,99.9 79.6,100.7 	"/>
	<polygon fill="#00547D" points="80.7,98 80.3,94.9 78.7,95.3 78.5,96 78.3,97.6 78.9,97.6 79,98.7 79.6,98.5 	"/>
	<path fill="#00547D" d="M83.7,103.7v-1c0-1.2,0.3-1.3,0.3-2.3l-0.5,0.1l-1.1,2.7c0.1,0.4,0.2,0.5,0.2,1.3v1.3
		C83.4,105.2,83.7,104.9,83.7,103.7z"/>
	<path fill="#00547D" d="M81.7,130.5v0.7H79v0.3h2c0.7,0,0.7,0.3,1.3,0.7c0,0,0.3-0.6,0.3-0.7C82.7,131.1,82,130.7,81.7,130.5z"/>
	<path fill="#00547D" d="M85.4,85.6H86v-1.3C85.2,84.8,85.4,84.1,85.4,85.6z"/>
	<path fill="#00547D" d="M90.6,144.8C90.6,144.8,90.6,144.8,90.6,144.8c-0.2,0.1-0.4,0.3-0.5,0.5L90.6,144.8z"/>
	<path fill="#00547D" d="M80.9,10.1c-0.1,0.8,0.3,1.7,0.3,2.5C82,11.6,81.1,11,80.9,10.1z"/>
	<polygon fill="#00547D" points="18.6,80.9 18.6,81.5 19.3,81.5 	"/>
	<polygon fill="#00547D" points="16.9,83.5 17.7,83.5 16.9,82.9 	"/>
	<polygon fill="#00547D" points="16.2,84.6 17,84.5 16.2,83.9 	"/>
	<g>
		<path fill="none" stroke="#00547D" stroke-width="0" stroke-linecap="round" stroke-linejoin="round" d="M42.8,130.5
			C42.8,130.5,42.8,130.5,42.8,130.5"/>
	</g>
</g>
</svg>
