<?xml version="1.0" encoding="utf-8"?>
<!-- Generator: Adobe Illustrator 18.1.0, SVG Export Plug-In . SVG Version: 6.00 Build 0)  -->
<svg version="1.1" id="Layer_1" xmlns="http://www.w3.org/2000/svg" xmlns:xlink="http://www.w3.org/1999/xlink" x="0px" y="0px"
	 viewBox="0 0 1500 1500" enable-background="new 0 0 1500 1500" xml:space="preserve">
<g>
	<path fill="#FFC978" d="M1349,640.3V1069h53V583.4C1402,583.4,1366,591.9,1349,640.3z"/>
	<path fill="#FFC978" d="M112,665.8c0-25.6-17-42.7-17-42.7V1069h22.9l-5.9-16.5V665.8z"/>
	<path fill="#FFC978" d="M1234,748.3v196.2c0,76.8-92.4,67.6-92.4,67.6H927v-25h204.6c30.1-8,52.7-73,52.7-73H775v377h242v-214h315
		V611.8C1242,640.3,1234,748.3,1234,748.3z"/>
	<path fill="#FFC978" d="M1419,665.8v386.6l1.3,16.5h18.7V623.2C1439,623.2,1419,640.3,1419,665.8z"/>
	<path fill="#FFC978" d="M140,583.4V1069h45V640.3C165,591.9,140,583.4,140,583.4z"/>
	<path fill="#FFC978" d="M406.6,987H607v25H396.6c0,0-87.6,9.2-87.6-67.6V748.3c0,0-9-108-107-136.5V1077h315v214h242V914H353.9
		C353.9,914,376.5,979,406.6,987z"/>
	<path fill="#BFBBE3" d="M543.1,600.2c56.7,52.6,108,7.9,108,7.9C614.2,554.4,543.1,600.2,543.1,600.2z"/>
	<path fill="#79DAB8" d="M585.9,506c1.1,77.4,68.9,83.6,68.9,83.6C668.2,525.8,585.9,506,585.9,506z"/>
	<path fill="#F38995" d="M683.7,471.9c-55.2,54.2-12.9,107.5-12.9,107.5C726.2,545.1,683.7,471.9,683.7,471.9z"/>
	<path fill="#FFC978" d="M689.2,584c63.1,16.3,86.7-64.9,86.7-64.9C698.6,516.6,689.2,584,689.2,584z"/>
	<path fill="#80CDEF" d="M427,513v376h708v-45c0,0-638,0-672,0c0-28,0-349,0-349h-6.8l319.7-198.4L756,264.3L334.1,525.5l20.4,32.1
		L427,513z"/>
	<polygon fill="#80CDEF" points="1205.2,538.8 748.7,208.2 726.5,238.8 1183.1,569.4 	"/>
	<path fill="#80CDEF" d="M910,475H730v29c0,0,127,0,152,0v205H685c0-25,0-115,0-115h-25v143h250V475z"/>
	<path fill="#80CDEF" d="M698.6,600.4c31.7,56.9,106.8,17.8,106.8,17.8C753.8,560.6,698.6,600.4,698.6,600.4z"/>
</g>
</svg>
