<?xml version="1.0" encoding="utf-8"?>
<!-- Generator: Adobe Illustrator 18.1.0, SVG Export Plug-In . SVG Version: 6.00 Build 0)  -->
<svg version="1.1" id="Layer_1" xmlns="http://www.w3.org/2000/svg" xmlns:xlink="http://www.w3.org/1999/xlink" x="0px" y="0px"
	 viewBox="0 0 150 150" enable-background="new 0 0 150 150" xml:space="preserve">
<g>
	<linearGradient id="SVGID_1_" gradientUnits="userSpaceOnUse" x1="65.2909" y1="152.3886" x2="-2.5929" y2="67.8857">
		<stop  offset="0" style="stop-color:#A68F7D"/>
		<stop  offset="1" style="stop-color:#718F40"/>
	</linearGradient>
	<path fill="url(#SVGID_1_)" d="M44.8,126.2c-0.8-0.5-1.6-1-2.3-1.5C43.3,125.2,44,125.7,44.8,126.2z"/>
	<linearGradient id="SVGID_2_" gradientUnits="userSpaceOnUse" x1="73.2614" y1="145.9856" x2="5.3776" y2="61.4827">
		<stop  offset="0" style="stop-color:#A68F7D"/>
		<stop  offset="1" style="stop-color:#718F40"/>
	</linearGradient>
	<path fill="url(#SVGID_2_)" d="M64,133.6c-0.6-0.1-1.1-0.2-1.7-0.3C62.9,133.3,63.4,133.4,64,133.6z"/>
	<linearGradient id="SVGID_3_" gradientUnits="userSpaceOnUse" x1="77.3741" y1="142.6818" x2="9.4903" y2="58.1789">
		<stop  offset="0" style="stop-color:#A68F7D"/>
		<stop  offset="1" style="stop-color:#718F40"/>
	</linearGradient>
	<path fill="url(#SVGID_3_)" d="M71.5,134.5c-0.5,0-0.9-0.1-1.4-0.1C70.6,134.5,71,134.5,71.5,134.5z"/>
	<linearGradient id="SVGID_4_" gradientUnits="userSpaceOnUse" x1="75.2119" y1="144.4187" x2="7.3281" y2="59.9159">
		<stop  offset="0" style="stop-color:#A68F7D"/>
		<stop  offset="1" style="stop-color:#718F40"/>
	</linearGradient>
	<path fill="url(#SVGID_4_)" d="M67.7,134.2c-0.5-0.1-1.1-0.1-1.6-0.2C66.6,134,67.1,134.1,67.7,134.2z"/>
	<linearGradient id="SVGID_5_" gradientUnits="userSpaceOnUse" x1="107.0486" y1="118.8433" x2="39.1648" y2="34.3405">
		<stop  offset="0" style="stop-color:#A68F7D"/>
		<stop  offset="1" style="stop-color:#718F40"/>
	</linearGradient>
	<path fill="url(#SVGID_5_)" d="M134.2,68.1c-3.5,11.4-18.9,51.9-89,58.3c5.2,3,10.8,5.3,16.8,6.7c49.5-10.8,67.4-44,72.6-57.1
		c0,1.1-0.1,2.2-0.1,3.3c-15.7,34.1-41.3,49.2-56,55.3c-1.1,0.1-2.1,0.1-3.2,0.1c32.8,0,59.4-26.6,59.4-59.4
		C134.7,72.9,134.5,70.5,134.2,68.1z"/>
	<linearGradient id="SVGID_6_" gradientUnits="userSpaceOnUse" x1="151.5389" y1="83.1029" x2="83.6551" y2="-1.4">
		<stop  offset="0" style="stop-color:#A68F7D"/>
		<stop  offset="1" style="stop-color:#718F40"/>
	</linearGradient>
	<path fill="url(#SVGID_6_)" d="M132.6,59.6c0-0.1-0.1-0.2-0.1-0.4c0,0,0,0,0,0C132.5,59.4,132.5,59.5,132.6,59.6z"/>
	<linearGradient id="SVGID_7_" gradientUnits="userSpaceOnUse" x1="149.1664" y1="85.0088" x2="81.2826" y2="0.5059">
		<stop  offset="0" style="stop-color:#A68F7D"/>
		<stop  offset="1" style="stop-color:#718F40"/>
	</linearGradient>
	<path fill="url(#SVGID_7_)" d="M133.6,63.9c0.3,1.4,0.5,2.8,0.7,4.3C134.1,66.7,133.8,65.3,133.6,63.9z"/>
	<linearGradient id="SVGID_8_" gradientUnits="userSpaceOnUse" x1="150.7334" y1="83.7499" x2="82.8496" y2="-0.7529">
		<stop  offset="0" style="stop-color:#A68F7D"/>
		<stop  offset="1" style="stop-color:#718F40"/>
	</linearGradient>
	<path fill="url(#SVGID_8_)" d="M132.6,59.7c0.4,1.4,0.7,2.7,1,4.1C133.3,62.4,133,61,132.6,59.7z"/>
	<linearGradient id="SVGID_9_" gradientUnits="userSpaceOnUse" x1="63.6449" y1="153.7108" x2="-4.2389" y2="69.208">
		<stop  offset="0" style="stop-color:#A68F7D"/>
		<stop  offset="1" style="stop-color:#718F40"/>
	</linearGradient>
	<path fill="url(#SVGID_9_)" d="M38.1,121.5c-0.7-0.6-1.4-1.2-2.1-1.8C36.7,120.4,37.4,121,38.1,121.5z"/>
	<linearGradient id="SVGID_10_" gradientUnits="userSpaceOnUse" x1="64.3612" y1="153.1354" x2="-3.5226" y2="68.6326">
		<stop  offset="0" style="stop-color:#A68F7D"/>
		<stop  offset="1" style="stop-color:#718F40"/>
	</linearGradient>
	<path fill="url(#SVGID_10_)" d="M41.4,124c-0.8-0.5-1.5-1.1-2.2-1.6C39.9,122.9,40.6,123.5,41.4,124z"/>
	<linearGradient id="SVGID_11_" gradientUnits="userSpaceOnUse" x1="87.1535" y1="97.6861" x2="39.8318" y2="7.5501">
		<stop  offset="0" style="stop-color:#FC9F4C"/>
		<stop  offset="1" style="stop-color:#FFB602"/>
	</linearGradient>
	<path fill="url(#SVGID_11_)" d="M43,72.3c-0.2-1.4-0.3-2.8-0.3-4.2c0-16.9,13.7-30.6,30.6-30.6c13.7,0,25.4,9.1,29.2,21.5
		c14-3.2,21.9-6.8,26.4-9.5c-9.6-19.9-29.9-33.6-53.5-33.6C42.5,15.9,16,42.5,16,75.3c0,8.4,1.8,16.3,4.9,23.5
		C23.8,89.8,30.1,79.4,43,72.3z M108.9,47.7l-6.1,5.5l-1.8-3.2L108.9,47.7z M93.8,32.7l-2.5,7.8l-3.2-1.8L93.8,32.7z M73.2,27l1.7,8
		h-3.7L73.2,27z M58.1,38.8l-3.2,1.8l-2.3-7.9L58.1,38.8z M45.3,50.3l-1.8,3.2l-6-5.7L45.3,50.3z M41,66.6v3.7l-8-2L41,66.6z"/>
	<path opacity="0.31" fill="#7C5F47" d="M133.5,63.8C133.6,63.8,133.6,63.9,133.5,63.8C133.6,63.9,133.6,63.8,133.5,63.8z"/>
	<polygon opacity="0.31" fill="#7C5F47" points="134.2,68.1 134.2,68.1 134.2,68.1 	"/>
	<path opacity="0.31" fill="#7C5F47" d="M132.6,59.6c0,0,0,0.1,0,0.1C132.6,59.7,132.6,59.6,132.6,59.6z"/>
	<path opacity="0.31" fill="#7C5F47" d="M42.5,124.7c-0.4-0.2-0.7-0.5-1.1-0.7C41.8,124.3,42.1,124.5,42.5,124.7z"/>
	<path opacity="0.31" fill="#7C5F47" d="M45.2,126.5C45.2,126.5,45.2,126.5,45.2,126.5c-0.1-0.1-0.2-0.2-0.4-0.2
		C45,126.3,45.1,126.4,45.2,126.5z"/>
	<path opacity="0.31" fill="#7C5F47" d="M36,119.7C36,119.7,36,119.8,36,119.7C36,119.8,36,119.7,36,119.7
		C36,119.7,36,119.7,36,119.7z"/>
	<path opacity="0.31" fill="#7C5F47" d="M39.2,122.4c-0.4-0.3-0.7-0.5-1.1-0.8C38.5,121.8,38.8,122.1,39.2,122.4z"/>
	<linearGradient id="SVGID_12_" gradientUnits="userSpaceOnUse" x1="107.5141" y1="118.4763" x2="39.6184" y2="33.9587">
		<stop  offset="0" style="stop-color:#A68F7D"/>
		<stop  offset="1" style="stop-color:#718F40"/>
	</linearGradient>
	<path fill="url(#SVGID_12_)" d="M134,68.1C134,68.1,134,68.1,134,68.1c0-1.4-0.3-2.9-0.6-4.3c0,0,0.1,0,0.1,0
		c-0.3-1.4-0.6-2.8-0.9-4.1c0,0,0-0.1,0-0.1c0-0.1-0.1-0.2-0.1-0.3c-4.5,23.4-22.7,67.7-96.4,60.5c0,0,0,0,0,0
		c0.7,0.6,1.4,1.2,2.1,1.8c0.3,0.3,0.7,0.5,1.1,0.8c0.7,0.6,1.5,1.1,2.2,1.6c0.4,0.3,0.7,0.5,1.1,0.7c0.8,0.5,1.5,1,2.3,1.5
		c0.1,0.1,0.2,0.2,0.3,0.2C115.2,120,131,79.5,134,68.1z"/>
	<path opacity="0.31" fill="#7C5F47" d="M134,68.1C134,68.1,134,68.1,134,68.1c0-1.4-0.3-2.9-0.6-4.3c0,0,0.1,0,0.1,0
		c-0.3-1.4-0.6-2.8-0.9-4.1c0,0,0-0.1,0-0.1c0-0.1-0.1-0.2-0.1-0.3c-4.5,23.4-22.7,67.7-96.4,60.5c0,0,0,0,0,0
		c0.7,0.6,1.4,1.2,2.1,1.8c0.3,0.3,0.7,0.5,1.1,0.8c0.7,0.6,1.5,1.1,2.2,1.6c0.4,0.3,0.7,0.5,1.1,0.7c0.8,0.5,1.5,1,2.3,1.5
		c0.1,0.1,0.2,0.2,0.3,0.2C115.2,120,131,79.5,134,68.1z"/>
	<linearGradient id="SVGID_13_" gradientUnits="userSpaceOnUse" x1="89.2225" y1="96.5998" x2="41.9009" y2="6.4638">
		<stop  offset="0" style="stop-color:#FC9F4C"/>
		<stop  offset="1" style="stop-color:#FFB602"/>
	</linearGradient>
	<path fill="url(#SVGID_13_)" d="M73.2,37.5c-16.9,0-30.6,13.7-30.6,30.6c0,1.4,0.1,2.8,0.3,4.2c6.9-3.8,15.7-6.7,26.9-8
		c13.4-1.5,24-3.3,32.5-5.3C98.6,46.6,86.9,37.5,73.2,37.5z"/>
	<linearGradient id="SVGID_14_" gradientUnits="userSpaceOnUse" x1="64.6099" y1="39.2841" x2="93.3397" y2="133.0782">
		<stop  offset="0" style="stop-color:#FFFFFE"/>
		<stop  offset="1" style="stop-color:#FFB602"/>
	</linearGradient>
	<path fill="url(#SVGID_14_)" d="M73.2,37.5c-16.9,0-30.6,13.7-30.6,30.6c0,1.4,0.1,2.8,0.3,4.2c6.9-3.8,15.7-6.7,26.9-8
		c13.4-1.5,24-3.3,32.5-5.3C98.6,46.6,86.9,37.5,73.2,37.5z"/>
	<path fill="#47B649" d="M132.4,59.2C132.4,59.2,132.4,59.2,132.4,59.2c1.6-8.2,1.5-13.8,1.5-13.8s-1.1,1.7-5.1,4.1
		c-4.4,2.7-12.4,6.2-26.4,9.5c-8.5,2-19.1,3.8-32.5,5.3c-11.2,1.2-20,4.1-26.9,8c-12.9,7.1-19.1,17.5-22.1,26.5
		c-2.9,8.7-2.8,16.1-2.8,17.9l1.6-0.8C23,112.4,43,92.7,78.3,81.2C117.1,68.5,133,48.5,133,48.5c-8.6,84.9-98.5,71-112.1,68.4
		c-0.2,0.2-0.3,0.5-0.5,0.7c5.5,1,10.7,1.7,15.6,2.2c0,0,0,0,0,0C109.8,126.9,128,82.6,132.4,59.2z"/>
	<path fill="#3B9D3F" d="M20.9,116.9c13.6,2.6,103.5,16.5,112.1-68.4c0,0-15.8,20.1-54.7,32.7C43,92.7,23,112.4,19.6,115.9l6.7-3.2
		C23.5,114.1,21.8,115.5,20.9,116.9z"/>
	<linearGradient id="SVGID_15_" gradientUnits="userSpaceOnUse" x1="23.0319" y1="125.8739" x2="12.6245" y2="112.9187">
		<stop  offset="0" style="stop-color:#6CAB36"/>
		<stop  offset="1" style="stop-color:#506E5A"/>
	</linearGradient>
	<path fill="url(#SVGID_15_)" d="M18.1,117L18.1,117c0,0-3.4,5.6,2.5,10.4l2.7-0.7c0,0-5.6-4.3-3-9.1c-0.8-0.1-1.5-0.1-2.3-0.3
		C18.1,117.3,18.1,117,18.1,117z"/>
	<path fill="#47B649" d="M19.1,116.5c0,0,0.2-0.2,0.5-0.6l-1.6,0.8c0,0.3,0,0.5,0,0.5c0.8,0.1,1.5,0.3,2.3,0.4
		c0.1-0.2,0.3-0.5,0.5-0.7C19.7,116.6,19.1,116.5,19.1,116.5z"/>
	<linearGradient id="SVGID_16_" gradientUnits="userSpaceOnUse" x1="25.1527" y1="124.0806" x2="14.583" y2="110.9234">
		<stop  offset="0" style="stop-color:#6CAB36"/>
		<stop  offset="1" style="stop-color:#506E5A"/>
	</linearGradient>
	<path fill="url(#SVGID_16_)" d="M19.1,116.5c0,0,0.2-0.2,0.5-0.6l-1.6,0.8c0,0.3,0,0.5,0,0.5c0.8,0.1,1.5,0.3,2.3,0.4
		c0.1-0.2,0.3-0.5,0.5-0.7C19.7,116.6,19.1,116.5,19.1,116.5z"/>
	<path fill="#3B9D3F" d="M20.9,116.9c1-1.4,2.7-2.8,5.5-4.2l-6.7,3.2c-0.3,0.4-0.5,0.6-0.5,0.6S19.7,116.6,20.9,116.9z"/>
	<linearGradient id="SVGID_17_" gradientUnits="userSpaceOnUse" x1="28.3014" y1="121.5511" x2="17.7318" y2="108.3939">
		<stop  offset="0" style="stop-color:#6CAB36"/>
		<stop  offset="1" style="stop-color:#506E5A"/>
	</linearGradient>
	<path fill="url(#SVGID_17_)" d="M20.9,116.9c1-1.4,2.7-2.8,5.5-4.2l-6.7,3.2c-0.3,0.4-0.5,0.6-0.5,0.6S19.7,116.6,20.9,116.9z"/>
	<path opacity="0.31" fill="#7C5F47" d="M62,133.2c0.1,0,0.2,0,0.3,0.1C62.2,133.2,62.1,133.2,62,133.2C62,133.2,62,133.2,62,133.2z
		"/>
	<path opacity="0.31" fill="#7C5F47" d="M66.1,133.9c-0.7-0.1-1.4-0.2-2.1-0.4C64.7,133.7,65.4,133.8,66.1,133.9z"/>
	<path opacity="0.31" fill="#7C5F47" d="M70.1,134.4c-0.8-0.1-1.6-0.2-2.4-0.3C68.5,134.3,69.3,134.3,70.1,134.4z"/>
	<path opacity="0.31" fill="#7C5F47" d="M75.3,134.7c-1.3,0-2.6-0.1-3.9-0.1C72.7,134.6,74,134.7,75.3,134.7z"/>
	<linearGradient id="SVGID_18_" gradientUnits="userSpaceOnUse" x1="108.7279" y1="117.4943" x2="40.8441" y2="32.9914">
		<stop  offset="0" style="stop-color:#A68F7D"/>
		<stop  offset="1" style="stop-color:#718F40"/>
	</linearGradient>
	<path fill="url(#SVGID_18_)" d="M134.5,79.3c0.1-1.1,0.1-2.2,0.1-3.3c-5.2,13.2-23.1,46.3-72.6,57.1c0.1,0,0.2,0,0.3,0.1
		c0.6,0.1,1.1,0.2,1.7,0.3c0.7,0.1,1.4,0.3,2.1,0.4c0.5,0.1,1.1,0.2,1.6,0.2c0.8,0.1,1.6,0.2,2.4,0.3c0.5,0,0.9,0.1,1.4,0.1
		c1.3,0.1,2.6,0.1,3.9,0.1c1.1,0,2.2,0,3.2-0.1C93.2,128.5,118.9,113.5,134.5,79.3z"/>
	<path opacity="0.31" fill="#7C5F47" d="M134.5,79.3c0.1-1.1,0.1-2.2,0.1-3.3c-5.2,13.2-23.1,46.3-72.6,57.1c0.1,0,0.2,0,0.3,0.1
		c0.6,0.1,1.1,0.2,1.7,0.3c0.7,0.1,1.4,0.3,2.1,0.4c0.5,0.1,1.1,0.2,1.6,0.2c0.8,0.1,1.6,0.2,2.4,0.3c0.5,0,0.9,0.1,1.4,0.1
		c1.3,0.1,2.6,0.1,3.9,0.1c1.1,0,2.2,0,3.2-0.1C93.2,128.5,118.9,113.5,134.5,79.3z"/>
	<linearGradient id="SVGID_19_" gradientUnits="userSpaceOnUse" x1="102.8334" y1="89.2708" x2="55.5117" y2="-0.8652">
		<stop  offset="0" style="stop-color:#FC9F4C"/>
		<stop  offset="1" style="stop-color:#FFB602"/>
	</linearGradient>
	<polygon fill="url(#SVGID_19_)" points="73.2,27 71.3,35 74.9,35 	"/>
	<linearGradient id="SVGID_20_" gradientUnits="userSpaceOnUse" x1="72.9615" y1="34.2601" x2="84.3688" y2="104.1828">
		<stop  offset="0" style="stop-color:#FFFFFE"/>
		<stop  offset="1" style="stop-color:#FFB602"/>
	</linearGradient>
	<polygon fill="url(#SVGID_20_)" points="73.2,27 71.3,35 74.9,35 	"/>
	<linearGradient id="SVGID_21_" gradientUnits="userSpaceOnUse" x1="87.0127" y1="97.76" x2="39.6911" y2="7.624">
		<stop  offset="0" style="stop-color:#FC9F4C"/>
		<stop  offset="1" style="stop-color:#FFB602"/>
	</linearGradient>
	<polygon fill="url(#SVGID_21_)" points="58.1,38.8 52.6,32.7 54.9,40.6 	"/>
	<linearGradient id="SVGID_22_" gradientUnits="userSpaceOnUse" x1="55.6118" y1="37.2743" x2="67.0199" y2="107.202">
		<stop  offset="0" style="stop-color:#FFFFFE"/>
		<stop  offset="1" style="stop-color:#FFB602"/>
	</linearGradient>
	<polygon fill="url(#SVGID_22_)" points="58.1,38.8 52.6,32.7 54.9,40.6 	"/>
	<linearGradient id="SVGID_23_" gradientUnits="userSpaceOnUse" x1="71.3497" y1="105.9831" x2="24.0281" y2="15.8471">
		<stop  offset="0" style="stop-color:#FC9F4C"/>
		<stop  offset="1" style="stop-color:#FFB602"/>
	</linearGradient>
	<polygon fill="url(#SVGID_23_)" points="45.3,50.3 37.5,47.7 43.5,53.4 	"/>
	<linearGradient id="SVGID_24_" gradientUnits="userSpaceOnUse" x1="39.9408" y1="39.8312" x2="51.3481" y2="109.7537">
		<stop  offset="0" style="stop-color:#FFFFFE"/>
		<stop  offset="1" style="stop-color:#FFB602"/>
	</linearGradient>
	<polygon fill="url(#SVGID_24_)" points="45.3,50.3 37.5,47.7 43.5,53.4 	"/>
	<linearGradient id="SVGID_25_" gradientUnits="userSpaceOnUse" x1="60.458" y1="112.2019" x2="13.1333" y2="22.0602">
		<stop  offset="0" style="stop-color:#FC9F4C"/>
		<stop  offset="1" style="stop-color:#FFB602"/>
	</linearGradient>
	<polygon fill="url(#SVGID_25_)" points="41,66.6 33,68.3 41,70.3 	"/>
	<linearGradient id="SVGID_26_" gradientUnits="userSpaceOnUse" x1="32.6853" y1="41.1615" x2="44.0963" y2="111.1072">
		<stop  offset="0" style="stop-color:#FFFFFE"/>
		<stop  offset="1" style="stop-color:#FFB602"/>
	</linearGradient>
	<polygon fill="url(#SVGID_26_)" points="41,66.6 33,68.3 41,70.3 	"/>
	<linearGradient id="SVGID_27_" gradientUnits="userSpaceOnUse" x1="121.15" y1="79.8378" x2="73.8284" y2="-10.2982">
		<stop  offset="0" style="stop-color:#FC9F4C"/>
		<stop  offset="1" style="stop-color:#FFB602"/>
	</linearGradient>
	<polygon fill="url(#SVGID_27_)" points="108.9,47.7 100.9,50.1 102.8,53.2 	"/>
	<linearGradient id="SVGID_28_" gradientUnits="userSpaceOnUse" x1="101.7836" y1="29.7436" x2="113.1903" y2="99.6623">
		<stop  offset="0" style="stop-color:#FFFFFE"/>
		<stop  offset="1" style="stop-color:#FFB602"/>
	</linearGradient>
	<polygon fill="url(#SVGID_28_)" points="108.9,47.7 100.9,50.1 102.8,53.2 	"/>
	<linearGradient id="SVGID_29_" gradientUnits="userSpaceOnUse" x1="115.657" y1="82.7216" x2="68.3354" y2="-7.4143">
		<stop  offset="0" style="stop-color:#FC9F4C"/>
		<stop  offset="1" style="stop-color:#FFB602"/>
	</linearGradient>
	<polygon fill="url(#SVGID_29_)" points="93.8,32.7 88.1,38.7 91.3,40.5 	"/>
	<linearGradient id="SVGID_30_" gradientUnits="userSpaceOnUse" x1="90.2878" y1="31.6167" x2="101.6961" y2="101.5459">
		<stop  offset="0" style="stop-color:#FFFFFE"/>
		<stop  offset="1" style="stop-color:#FFB602"/>
	</linearGradient>
	<polygon fill="url(#SVGID_30_)" points="93.8,32.7 88.1,38.7 91.3,40.5 	"/>
</g>
</svg>
