<?xml version="1.0" encoding="iso-8859-1"?>
<!-- Generator: Adobe Illustrator 13.0.0, SVG Export Plug-In . SVG Version: 6.00 Build 14948)  -->
<!DOCTYPE svg PUBLIC "-//W3C//DTD SVG 1.1//EN" "http://www.w3.org/Graphics/SVG/1.1/DTD/svg11.dtd">
<svg version="1.1" id="Layer_1" xmlns="http://www.w3.org/2000/svg" xmlns:xlink="http://www.w3.org/1999/xlink" x="0px" y="0px"
	 width="100px" height="100px" viewBox="0 0 100 100" enable-background="new 0 0 100 100" xml:space="preserve">
<g>
	<g>
		<path fill="#5A308C" d="M28.958,58.207c0.67-1.099,1.894-2.207,3.815-3.082c-4.54-1.85-9.901-3.629-16.227-5.259
			c1.715,8.163,10.508,14.525,18.711,17.009C27.841,63.171,27.627,60.133,28.958,58.207z"/>
	</g>
	<defs>
		<filter id="Adobe_OpacityMaskFilter" filterUnits="userSpaceOnUse" x="16.547" y="49.866" width="18.711" height="17.009">
			<feFlood  style="flood-color:white;flood-opacity:1" result="back"/>
			<feBlend  in="SourceGraphic" in2="back" mode="normal"/>
		</filter>
	</defs>
	<mask maskUnits="userSpaceOnUse" x="16.547" y="49.866" width="18.711" height="17.009" id="SVGID_1_">
		<g filter="url(#Adobe_OpacityMaskFilter)">
			<defs>
				<filter id="Adobe_OpacityMaskFilter_1_" filterUnits="userSpaceOnUse" x="16.547" y="49.866" width="18.711" height="17.009">
					<feFlood  style="flood-color:white;flood-opacity:1" result="back"/>
					<feBlend  in="SourceGraphic" in2="back" mode="normal"/>
				</filter>
			</defs>
			<mask maskUnits="userSpaceOnUse" x="16.547" y="49.866" width="18.711" height="17.009" id="SVGID_1_">
				<g filter="url(#Adobe_OpacityMaskFilter_1_)">
				</g>
			</mask>
			<linearGradient id="SVGID_2_" gradientUnits="userSpaceOnUse" x1="27.3569" y1="52.1855" x2="25.7297" y2="59.105">
				<stop  offset="0" style="stop-color:#FFFFFF"/>
				<stop  offset="0.0524" style="stop-color:#E8E8E8"/>
				<stop  offset="0.2031" style="stop-color:#ABABAB"/>
				<stop  offset="0.3529" style="stop-color:#777777"/>
				<stop  offset="0.4983" style="stop-color:#4C4C4C"/>
				<stop  offset="0.6383" style="stop-color:#2B2B2B"/>
				<stop  offset="0.7716" style="stop-color:#131313"/>
				<stop  offset="0.8952" style="stop-color:#050505"/>
				<stop  offset="1" style="stop-color:#000000"/>
			</linearGradient>
			<path mask="url(#SVGID_1_)" fill="url(#SVGID_2_)" d="M28.958,58.207c0.67-1.099,1.894-2.207,3.815-3.082
				c-4.54-1.85-9.901-3.629-16.227-5.259c1.715,8.163,10.508,14.525,18.711,17.009C27.841,63.171,27.627,60.133,28.958,58.207z"/>
		</g>
	</mask>
	<linearGradient id="SVGID_3_" gradientUnits="userSpaceOnUse" x1="27.3569" y1="52.1855" x2="25.7297" y2="59.105">
		<stop  offset="0" style="stop-color:#272525"/>
		<stop  offset="1" style="stop-color:#272525"/>
	</linearGradient>
	<path fill="url(#SVGID_3_)" d="M28.958,58.207c0.67-1.099,1.894-2.207,3.815-3.082c-4.54-1.85-9.901-3.629-16.227-5.259
		c1.715,8.163,10.508,14.525,18.711,17.009C27.841,63.171,27.627,60.133,28.958,58.207z"/>
	<g>
		<path fill="#5A308C" d="M15.885,52.573c2.323,7.14,9.668,24.502,30.355,26.78c15.047,1.658,7.479-11.8,3.905-13.091
			C41.996,72.996,25.188,67.987,15.885,52.573z"/>
	</g>
	<defs>
		<filter id="Adobe_OpacityMaskFilter_2_" filterUnits="userSpaceOnUse" x="15.885" y="52.573" width="39.355" height="26.922">
			<feFlood  style="flood-color:white;flood-opacity:1" result="back"/>
			<feBlend  in="SourceGraphic" in2="back" mode="normal"/>
		</filter>
	</defs>
	<mask maskUnits="userSpaceOnUse" x="15.885" y="52.573" width="39.355" height="26.922" id="SVGID_4_">
		<g filter="url(#Adobe_OpacityMaskFilter_2_)">
			<defs>
				<filter id="Adobe_OpacityMaskFilter_3_" filterUnits="userSpaceOnUse" x="15.885" y="52.573" width="39.355" height="26.922">
					<feFlood  style="flood-color:white;flood-opacity:1" result="back"/>
					<feBlend  in="SourceGraphic" in2="back" mode="normal"/>
				</filter>
			</defs>
			<mask maskUnits="userSpaceOnUse" x="15.885" y="52.573" width="39.355" height="26.922" id="SVGID_4_">
				<g filter="url(#Adobe_OpacityMaskFilter_3_)">
				</g>
			</mask>
			<linearGradient id="SVGID_5_" gradientUnits="userSpaceOnUse" x1="55.7686" y1="66.0342" x2="33.7704" y2="66.0342">
				<stop  offset="0" style="stop-color:#FFFFFF"/>
				<stop  offset="0.0524" style="stop-color:#E8E8E8"/>
				<stop  offset="0.2031" style="stop-color:#ABABAB"/>
				<stop  offset="0.3529" style="stop-color:#777777"/>
				<stop  offset="0.4983" style="stop-color:#4C4C4C"/>
				<stop  offset="0.6383" style="stop-color:#2B2B2B"/>
				<stop  offset="0.7716" style="stop-color:#131313"/>
				<stop  offset="0.8952" style="stop-color:#050505"/>
				<stop  offset="1" style="stop-color:#000000"/>
			</linearGradient>
			<path mask="url(#SVGID_4_)" fill="url(#SVGID_5_)" d="M15.885,52.573c2.323,7.14,9.668,24.502,30.355,26.78
				c15.047,1.658,7.479-11.8,3.905-13.091C41.996,72.996,25.188,67.987,15.885,52.573z"/>
		</g>
	</mask>
	<linearGradient id="SVGID_6_" gradientUnits="userSpaceOnUse" x1="55.7686" y1="66.0342" x2="33.7704" y2="66.0342">
		<stop  offset="0" style="stop-color:#272525"/>
		<stop  offset="1" style="stop-color:#272525"/>
	</linearGradient>
	<path fill="url(#SVGID_6_)" d="M15.885,52.573c2.323,7.14,9.668,24.502,30.355,26.78c15.047,1.658,7.479-11.8,3.905-13.091
		C41.996,72.996,25.188,67.987,15.885,52.573z"/>
	<path fill="#93202B" d="M41.513,14.373c-12.582,7.926-20.052,21.518-22.929,34.202c31.114,7.908,39.442,19.305,39.585,25.744
		c0.269,3.378-2.198,7.023-14.172,6.264c17.005,4.017,41.087-0.746,41.087-22.643C85.084,36.042,56.811,19.878,41.513,14.373z
		 M61.512,43.959h-7.507v7.51H41.566v-7.51h-7.506V31.525h7.506v-7.511h12.438v7.511h7.507V43.959z"/>
</g>
</svg>
