<?xml version="1.0" encoding="iso-8859-1"?>
<!-- Generator: Adobe Illustrator 13.0.0, SVG Export Plug-In . SVG Version: 6.00 Build 14948)  -->
<!DOCTYPE svg PUBLIC "-//W3C//DTD SVG 1.1//EN" "http://www.w3.org/Graphics/SVG/1.1/DTD/svg11.dtd">
<svg version="1.1" id="Layer_1" xmlns="http://www.w3.org/2000/svg" xmlns:xlink="http://www.w3.org/1999/xlink" x="0px" y="0px"
	 width="100px" height="100px" viewBox="0 0 100 100" enable-background="new 0 0 100 100" xml:space="preserve">
<g>
	<path fill="#555260" d="M14.619,37.531c0,0-0.645-39.066,38.634-27.688c0,0,11.806,4.077,19.748,13.952H59.049
		C59.049,23.794,26.423,4.691,14.619,37.531z"/>
	<path fill="#555260" d="M79.44,38.603l1.5-3.004c0,0,2.577,4.292,4.296,9.444C85.236,45.042,82.229,41.394,79.44,38.603z"/>
	<path fill="#555260" d="M16.337,57.274c0,0,8.584,26.616,33.696,35.632c0,0,34.987,12.878,37.346-28.116
		c0,0-6.868,27.472-35.843,17.599C51.537,82.389,30.502,75.733,16.337,57.274z"/>
	<path fill="#576D5D" d="M30.931,26.583h52.587L72.569,45.255H59.478l-6.225,33.698c0,0-7.511-1.287-17.17-7.939l4.292-25.327
		H19.986L30.931,26.583z"/>
</g>
</svg>
