<?xml version="1.0" encoding="utf-8"?>
<!-- Generator: Adobe Illustrator 18.1.0, SVG Export Plug-In . SVG Version: 6.00 Build 0)  -->
<svg version="1.0" id="Layer_1" xmlns="http://www.w3.org/2000/svg" xmlns:xlink="http://www.w3.org/1999/xlink" x="0px" y="0px"
	 viewBox="0 0 150 150" enable-background="new 0 0 150 150" xml:space="preserve">
<g>
	<path fill="#22322E" d="M124,92.8c-4.9-2.5-9.7-4.5-14.4-5.9c-5.3,13.6-18.3,23.3-33.6,23.3c-19.9,0-36.1-16.4-36.1-36.6
		C39.9,53.4,56.1,37,76,37c19.9,0,36.1,16.4,36.1,36.6c0,0.6,0,1.2,0,1.8c7.6,0.6,15.4,2.8,23.4,6.7c1,0.5,1.9,1.1,2.7,1.7l0.3,0
		l0-3.4l0-8.6l0-3.4l-11.3-1.7c-0.4-2.6-0.9-5.2-1.6-7.7l9.6-7.8l-1.7-2.9l-4.3-7.5l-1.7-2.9L117,41.9c-1.6-2.2-3.4-4.2-5.3-6
		l4.4-11.3l-2.9-1.7l-7.5-4.3l-3-1.7l-6.9,8.5c-2.5-1.1-5.2-1.9-7.9-2.5l-1.8-11.8h-3.4h-8.6h-3.4l-1.7,10.8
		c-2.8,0.4-5.5,0.9-8.1,1.8l-7.4-9.3l-3,1.7l-7.4,4.3l-2.9,1.7l4,10.4c-2.1,1.7-4.1,3.5-5.9,5.5L27,33.5l-1.7,2.9L21,43.9l-1.7,2.9
		l8.8,7.1c-1,2.4-1.7,4.9-2.4,7.5l-12.3,1.9v3.4v8.6l0,3.4l11.3,1.7c0.3,2.6,0.9,5.2,1.6,7.7L16.8,96l1.7,3l4.3,7.4l1.7,2.9
		l10.5-4.1c1.6,2.2,3.4,4.2,5.3,6l-4.4,11.3l2.9,1.7l7.5,4.3l3,1.7l6.9-8.5c2.5,1.1,5.2,1.9,7.9,2.6l1.8,11.8h3.4h8.6h3.4l1.7-10.8
		c2.8-0.4,5.5-0.9,8.1-1.7l7.4,9.3l3-1.7l7.4-4.3l3-1.7l-4-10.4c2.1-1.7,4.1-3.5,5.9-5.5l11.4,4.4l1.7-3l4.3-7.4l1.7-3l-8.9-7.1
		C123.9,93.1,124,93,124,92.8z"/>
	<path fill-rule="evenodd" clip-rule="evenodd" fill="#005999" d="M47.8,104.9c10.8-24,27.1-31.9,52.8-33.4
		c13.5-0.8,10.1-14.7-2.7-13.2C70.7,61.6,55.3,79.2,47.8,104.9z"/>
	<path fill-rule="evenodd" clip-rule="evenodd" fill="#00A7D1" d="M45.1,121.8c-5.1-23.2,2.4-37.7,20.2-52.6
		c9.3-7.9-0.6-16.1-9.1-8.1C38.3,78.1,36.6,99.1,45.1,121.8z"/>
	<path fill-rule="evenodd" clip-rule="evenodd" fill="#74C9E2" d="M54.4,134.8C37.2,122.1,33.8,107.7,37,87c1.7-10.9-10-10.6-11-0.1
		C23.9,109.1,35.2,124.4,54.4,134.8z"/>
	<path fill-rule="evenodd" clip-rule="evenodd" fill="#B8E2F8" d="M66.2,137.2c-19.2,1.6-30.1-6.1-40.2-22
		c-5.3-8.4-13.1-1.3-7.5,6.4C30.2,137.9,47,141.6,66.2,137.2z"/>
	<path fill-rule="evenodd" clip-rule="evenodd" fill="#18467F" d="M56,96.6c24.5-15.8,44.5-13.2,69.3,0.9c13,7.4,18.3-7.5,5.5-13.9
		C103.5,70.2,78.5,77.2,56,96.6z"/>
</g>
</svg>
