<?xml version="1.0" encoding="utf-8"?>
<!-- Generator: Adobe Illustrator 18.1.0, SVG Export Plug-In . SVG Version: 6.00 Build 0)  -->
<svg version="1.1" id="Layer_1" xmlns="http://www.w3.org/2000/svg" xmlns:xlink="http://www.w3.org/1999/xlink" x="0px" y="0px"
	 viewBox="0 0 1500 1500" enable-background="new 0 0 1500 1500" xml:space="preserve">
<g>
	<path fill="#616264" d="M1383.3,288c-22.8-47.9-27.2-40.2-27.2-40.2s-45.1-49-101.1,1.5l-185.5,176.8
		c11.1,29.1,35.6,77.7,48.8,142.1l226.4-188.8C1344.7,379.3,1406.1,335.9,1383.3,288z"/>
	<path fill="#616264" d="M492.2,976.3l-244.9,233.5c0,0-1.1-17.2-32.9-12.7c-31.8,4.5-44.8,32.5-28.2,61
		c16.6,28.6,34.9,44.7,34.9,44.7s8.3,14.3,35.5,15c27.2,0.7,46.7-42.5,33.3-58.9l261-217.6C529,1019.3,509.5,997.6,492.2,976.3z"/>
	<path fill="#616264" d="M940.5,1040.7l270.6,225.4c-13.4,16.4,6.1,59.6,33.3,58.9c27.2-0.7,35.5-15,35.5-15s18.3-16.1,34.9-44.7
		c16.6-28.6,3.6-56.6-28.2-61c-31.8-4.5-32.9,12.7-32.9,12.7L999.4,974.8C982,996.3,962.5,1018.3,940.5,1040.7z"/>
	<path fill="#616264" d="M245.5,256.9c-56.1-50.4-101.1-1.5-101.1-1.5s-4.4-7.7-27.2,40.3c-22.8,47.9,38.7,91.3,38.7,91.3
		l217.1,180.8c13.8-64.3,38.9-113,50.1-142L245.5,256.9z"/>
	<path fill="#DF926F" d="M1064.7,411.5c-170,170-318.5,0-318.5,0s-148.6,170-318.5,0c-1,4.1-2.6,8.9-4.7,14.4
		c-11.2,29-36.2,77.6-50.1,142c-21.9,102-15.4,243.4,119.3,408.5c17.4,21.3,36.8,42.9,58.7,65c51.3,51.7,115.4,105.4,195.3,160.6
		c79.5-55.5,143.3-109.4,194.3-161.3c22-22.4,41.5-44.3,58.9-65.9c132.6-164.2,139.8-305,118.9-406.6
		c-13.3-64.3-37.7-113-48.8-142.1C1067.3,420.5,1065.6,415.6,1064.7,411.5z M540.5,753.9c0-62.8,29.7-118.6,75.6-154.5
		c0.1,0.5,0.1,1,0.4,1.5c1.3,2.7,4,4.1,6.8,3.7c0.4,1,0.9,2.1,1.3,3.2l-20,9.3c-3.4,1.6-4.8,5.6-3.2,8.9c1.6,3.4,5.5,4.8,8.9,3.2
		l19.2-8.9c0.8,2,1.5,4.2,2.3,6.4c0,0.9,0.2,1.8,0.6,2.7c0.2,0.4,0.5,0.6,0.7,0.9c1.7,5,3.4,10.4,5.1,15.9l-20.2,9.4
		c-3.4,1.6-4.8,5.6-3.2,8.9c1.6,3.4,5.5,4.8,8.9,3.2l18.2-8.5c0.5,1.9,1,3.8,1.5,5.7c-1.6,1.9-2.1,4.7-1,7.1c0.7,1.6,2,2.7,3.5,3.3
		c0.7,3,1.4,6,2,9l-20.7,7.5c-3.5,1.3-5.3,5.1-4,8.6c1.3,3.5,5.1,5.3,8.6,4l18.7-6.8c1.5,8,2.8,16.4,3.8,25.1l-19.1,3.3
		c-3.6,0.6-6.1,4.1-5.4,7.8c0.6,3.6,4.1,6.1,7.8,5.4l18.3-3.2c0.4,4.4,0.8,8.9,1.1,13.5c-0.3,1-0.4,2.1-0.2,3.2
		c0.1,0.5,0.4,0.9,0.5,1.3c0.2,3.4,0.3,6.9,0.4,10.4l-19.9,3.5c-3.6,0.6-6.1,4.1-5.5,7.8c0.6,3.6,4.1,6.1,7.8,5.5l17.9-3.1
		c0,2.7,0.1,5.4,0,8.1c-1,1.1-1.7,2.6-1.7,4.2c0,1.6,0.6,2.9,1.5,4.1c-0.1,3.7-0.3,7.4-0.5,11.1l-19.6,0.4c-3.7,0.1-6.6,3.1-6.5,6.8
		c0.1,3.7,3.1,6.6,6.8,6.5l18.4-0.4c-0.2,2.1-0.4,4.3-0.6,6.4c-0.7,1-1.1,2.2-1.2,3.5c0,1,0.2,1.9,0.5,2.7
		c-0.5,4.5-1.1,9.1-1.8,13.6l-18.7-0.5c-3.7-0.1-6.8,2.8-6.9,6.5c-0.1,3.7,2.8,6.8,6.5,6.9l17,0.4c-0.7,4.3-1.5,8.6-2.3,12.9
		c-1.6,1.2-2.7,3-2.7,5.2c0,1.2,0.4,2.3,0.9,3.2c-0.6,2.7-1.1,5.4-1.8,8.1l-20.7-2.9c-3.7-0.5-7,2.1-7.5,5.7c-0.5,3.7,2.1,7,5.7,7.5
		l19.1,2.7c-0.5,2-1,4-1.6,6c-1.9,0.9-3.5,2.6-3.9,4.8c-0.3,1.7,0.1,3.3,1,4.7c-0.5,1.8-1,3.5-1.6,5.3
		C578.9,887.7,540.5,825.4,540.5,753.9z M736.5,949.9c-31.9,0-61.9-7.8-88.5-21.3c0.8-2.5,1.5-4.9,2.3-7.4l19.1,3.3
		c3.6,0.6,7.1-1.8,7.8-5.5c0.6-3.6-1.8-7.1-5.5-7.8l-17.6-3.1c0.8-2.7,1.4-5.4,2.1-8.1c0.9-1,1.6-2.1,1.8-3.5
		c0.1-0.9,0.1-1.8-0.2-2.7c0.8-3.5,1.6-6.9,2.4-10.3l20.5,0.3c3.7,0.1,6.7-2.9,6.8-6.6c0-3.7-2.9-6.7-6.6-6.8l-17.9-0.2
		c0.8-4,1.5-8,2.1-12c2.3-1,3.9-3.2,4-5.9c0.1-2-0.9-3.8-2.3-5.1c0.5-3.8,1.1-7.7,1.6-11.4l20.8,0.3c3.7,0,6.7-2.9,6.8-6.6
		c0.1-3.7-2.9-6.7-6.6-6.8l-19.6-0.3c0.2-1.8,0.3-3.6,0.5-5.3c1.4-1.3,2.3-3,2.3-5.1c0-1.6-0.7-3.1-1.7-4.2c0.2-3.5,0.4-7,0.5-10.5
		l19.6,0.3c3.7,0,6.7-2.9,6.8-6.6c0-3.7-2.9-6.7-6.6-6.8l-19.4-0.3c0-3.3-0.1-6.5-0.1-9.8c1.2-1.5,1.9-3.4,1.5-5.4
		c-0.2-1.3-0.9-2.4-1.7-3.3c-0.1-2.9-0.2-5.7-0.4-8.6l21-4.2c3.6-0.7,6-4.2,5.2-7.9c-0.7-3.6-4.3-6-7.9-5.2l-19.3,3.9
		c-0.3-3.8-0.6-7.5-1-11.2c1.2-1.5,1.8-3.4,1.5-5.4c-0.3-1.7-1.2-3.1-2.5-4.1c-0.4-3.5-0.9-6.9-1.4-10.3l21.2-4.2
		c3.6-0.7,6-4.3,5.3-7.9c-0.7-3.6-4.3-6-7.9-5.3l-20.7,4.1c-1.7-9.6-3.5-18.8-5.6-27.5l17.6-8.2c3.4-1.6,4.8-5.5,3.3-8.9
		c-1.6-3.4-5.6-4.8-8.9-3.2l-15.2,7.1c-2.7-10.4-5.6-19.9-8.5-28.6l19.4-9.1c3.4-1.6,4.8-5.6,3.3-8.9c-1.6-3.4-5.6-4.8-8.9-3.2
		l-18.2,8.5c-2.4-6.6-4.8-12.5-7-17.9l14.9-7c3.3-1.6,4.8-5.6,3.2-8.9c-1.3-2.8-4.4-4.2-7.3-3.6c27-14,57.6-22,90.1-22
		c32.6,0,63.4,8.1,90.4,22.2c-3.2-1-6.7,0.3-8.1,3.4c-1.6,3.4-0.1,7.3,3.2,8.9l14.9,7c-2.2,5.3-4.6,11.3-7,17.9l-18.2-8.5
		c-3.4-1.6-7.3-0.1-8.9,3.2c-1.6,3.3-0.1,7.3,3.2,8.9l19.4,9.1c-2.9,8.7-5.8,18.3-8.5,28.6l-15.2-7.1c-3.4-1.6-7.3-0.1-8.9,3.2
		c-1.6,3.4-0.1,7.3,3.2,8.9l17.6,8.2c-2,8.7-3.9,17.9-5.6,27.4l-20.7-4.1c-3.6-0.7-7.2,1.6-7.9,5.3c-0.7,3.6,1.6,7.2,5.3,7.9
		l21.2,4.2c-0.5,3.4-1,6.8-1.4,10.3c-1.3,1-2.2,2.4-2.5,4.1c-0.4,2,0.3,3.9,1.5,5.4c-0.4,3.7-0.7,7.4-1,11.2l-19.3-3.9
		c-3.6-0.7-7.1,1.6-7.9,5.2c-0.7,3.6,1.6,7.2,5.2,7.9l21,4.2c-0.1,2.8-0.3,5.7-0.4,8.6c-0.8,0.9-1.5,2-1.7,3.3c-0.4,2,0.3,4,1.5,5.4
		c0,3.2-0.1,6.5-0.1,9.8l-19.4,0.3c-3.7,0.1-6.7,3.1-6.6,6.8c0.1,3.7,3.1,6.7,6.8,6.6l19.6-0.3c0.1,3.5,0.3,7,0.5,10.5
		c-1,1.1-1.7,2.6-1.7,4.2c0,2,0.9,3.8,2.3,5.1c0.1,1.8,0.3,3.6,0.5,5.3l-19.6,0.3c-3.7,0.1-6.7,3.1-6.6,6.8c0.1,3.7,3.1,6.7,6.8,6.6
		l20.8-0.3c0.4,3.8,1,7.6,1.6,11.4c-1.4,1.3-2.3,3.1-2.3,5.1c0.1,2.7,1.7,4.9,4,5.9c0.7,4,1.3,7.9,2.1,12l-17.9,0.2
		c-3.7,0.1-6.7,3.1-6.6,6.8c0.1,3.7,3.1,6.7,6.8,6.6l20.5-0.3c0.8,3.4,1.5,6.9,2.4,10.3c-0.2,0.8-0.3,1.7-0.2,2.7
		c0.2,1.4,0.9,2.5,1.8,3.5c0.7,2.7,1.4,5.4,2.1,8.1l-17.6,3.1c-3.6,0.6-6.1,4.1-5.5,7.8c0.6,3.7,4.1,6.1,7.8,5.5l19.1-3.3
		c0.8,2.5,1.5,5,2.3,7.6C798.1,942.1,768.3,949.9,736.5,949.9z M932.5,753.9c0,71.6-38.5,134.1-95.9,168.3c-0.6-1.8-1.1-3.6-1.7-5.5
		c0.9-1.4,1.3-3,1-4.7c-0.4-2.3-1.9-4-3.9-4.8c-0.6-2-1-4-1.6-6l19.1-2.7c3.7-0.5,6.2-3.9,5.7-7.5c-0.5-3.7-3.9-6.2-7.6-5.7
		l-20.7,2.9c-0.7-2.7-1.2-5.4-1.8-8.1c0.5-1,0.9-2.1,0.9-3.2c0-2.2-1.1-4-2.7-5.2c-0.9-4.3-1.6-8.6-2.3-12.9l17-0.4
		c3.7-0.1,6.6-3.2,6.5-6.9c-0.1-3.7-3.2-6.6-6.9-6.5l-18.7,0.5c-0.6-4.6-1.3-9.1-1.8-13.6c0.4-0.8,0.6-1.7,0.5-2.7
		c0-1.3-0.5-2.4-1.2-3.5c-0.2-2.1-0.5-4.3-0.6-6.4l18.4,0.4c3.7,0.1,6.8-2.8,6.9-6.5c0.1-3.7-2.8-6.8-6.5-6.8l-19.6-0.4
		c-0.2-3.7-0.3-7.5-0.5-11.1c0.9-1.2,1.5-2.5,1.5-4.1c0-1.6-0.7-3.1-1.7-4.2c0-2.7,0-5.4,0-8.1l17.9,3.1c3.6,0.6,7.1-1.8,7.8-5.5
		c0.6-3.6-1.8-7.1-5.5-7.8l-19.9-3.5c0.1-3.5,0.2-7,0.4-10.4c0.2-0.4,0.5-0.8,0.5-1.3c0.2-1.1,0.1-2.2-0.2-3.2
		c0.3-4.6,0.7-9.1,1.1-13.5l18.3,3.2c3.6,0.6,7.1-1.8,7.8-5.4c0.6-3.6-1.8-7.1-5.4-7.8l-19.1-3.3c1.1-8.7,2.4-17,3.8-25.1l18.7,6.8
		c3.5,1.3,7.3-0.5,8.6-4c1.3-3.5-0.5-7.3-4-8.6l-20.7-7.5c0.7-3.1,1.3-6.1,2-9.1c1.5-0.6,2.8-1.7,3.5-3.3c1.1-2.4,0.6-5.2-1-7.1
		c0.5-1.9,1-3.8,1.5-5.7l18.2,8.5c3.3,1.6,7.3,0.1,8.9-3.2c1.6-3.3,0.1-7.3-3.2-8.9l-20.2-9.4c1.7-5.6,3.4-11,5.1-15.9
		c0.2-0.3,0.5-0.6,0.7-0.9c0.4-0.9,0.6-1.8,0.6-2.7c0.8-2.2,1.5-4.3,2.3-6.4l19.2,8.9c3.3,1.6,7.3,0.1,8.9-3.2
		c1.6-3.4,0.1-7.3-3.2-8.9l-20-9.3c0.4-1.1,0.9-2.1,1.3-3.2c2.8,0.3,5.6-1.1,6.8-3.7c0.3-0.6,0.3-1.2,0.4-1.8
		C902.7,635,932.5,690.9,932.5,753.9z"/>
	<path fill="#DFF3FD" d="M856.6,599.1c-0.1,0.6-0.2,1.2-0.4,1.8c-1.2,2.7-4,4.1-6.8,3.7c-0.4,1-0.9,2.1-1.3,3.2l20,9.3
		c3.4,1.6,4.8,5.6,3.2,8.9c-1.6,3.4-5.6,4.8-8.9,3.2l-19.2-8.9c-0.8,2-1.5,4.2-2.3,6.4c0,0.9-0.2,1.8-0.6,2.7
		c-0.2,0.4-0.5,0.6-0.7,0.9c-1.7,5-3.4,10.3-5.1,15.9l20.2,9.4c3.3,1.5,4.8,5.6,3.2,8.9c-1.5,3.4-5.6,4.8-8.9,3.2l-18.2-8.5
		c-0.5,1.9-1,3.8-1.5,5.7c1.6,1.9,2.1,4.7,1,7.1c-0.7,1.6-2,2.7-3.5,3.3c-0.7,3-1.4,6-2,9.1l20.7,7.5c3.5,1.3,5.3,5.1,4,8.6
		c-1.3,3.5-5.1,5.3-8.6,4l-18.7-6.8c-1.5,8-2.8,16.4-3.8,25.1l19.1,3.3c3.6,0.6,6.1,4.1,5.4,7.8c-0.6,3.6-4.1,6.1-7.8,5.4l-18.3-3.2
		c-0.4,4.4-0.8,8.9-1.1,13.5c0.3,1,0.4,2.1,0.2,3.2c-0.1,0.5-0.4,0.9-0.5,1.3c-0.2,3.4-0.3,6.9-0.4,10.4l19.9,3.5
		c3.6,0.6,6.1,4.1,5.5,7.8c-0.6,3.6-4.1,6.1-7.8,5.5l-17.9-3.1c0,2.7,0,5.4,0,8.1c1,1.1,1.7,2.6,1.7,4.2c0,1.6-0.6,2.9-1.5,4.1
		c0.1,3.7,0.3,7.4,0.5,11.1l19.6,0.4c3.7,0.1,6.6,3.1,6.5,6.8c-0.1,3.7-3.2,6.6-6.9,6.5l-18.4-0.4c0.2,2.1,0.4,4.3,0.6,6.4
		c0.7,1,1.1,2.2,1.2,3.5c0,1-0.2,1.9-0.5,2.7c0.5,4.5,1.1,9.1,1.8,13.6l18.7-0.5c3.7-0.1,6.8,2.8,6.9,6.5c0.1,3.7-2.8,6.8-6.5,6.9
		l-17,0.4c0.7,4.3,1.5,8.6,2.3,12.9c1.6,1.2,2.7,3,2.7,5.2c0,1.2-0.4,2.3-0.9,3.2c0.6,2.7,1.1,5.4,1.8,8.1l20.7-2.9
		c3.7-0.5,7,2.1,7.6,5.7c0.5,3.7-2.1,7-5.7,7.5l-19.1,2.7c0.5,2,1,4,1.6,6c1.9,0.9,3.5,2.6,3.9,4.8c0.3,1.7-0.1,3.3-1,4.7
		c0.6,1.8,1.1,3.6,1.7,5.5c57.3-34.2,95.9-96.7,95.9-168.3C932.5,690.9,902.7,635,856.6,599.1z"/>
	<path fill="#DFF3FD" d="M636.1,921.9c0.6-1.8,1.1-3.5,1.6-5.3c-0.9-1.4-1.3-3-1-4.7c0.4-2.3,1.9-4,3.9-4.8c0.6-2,1-4,1.6-6
		l-19.1-2.7c-3.7-0.5-6.2-3.9-5.7-7.5c0.5-3.7,3.9-6.2,7.5-5.7l20.7,2.9c0.7-2.7,1.2-5.4,1.8-8.1c-0.5-1-0.9-2-0.9-3.2
		c0-2.2,1.1-4,2.7-5.2c0.9-4.3,1.6-8.6,2.3-12.9l-17-0.4c-3.7-0.1-6.6-3.2-6.5-6.9c0.1-3.7,3.2-6.6,6.9-6.5l18.7,0.5
		c0.6-4.6,1.3-9.1,1.8-13.6c-0.4-0.8-0.6-1.7-0.5-2.7c0-1.3,0.5-2.4,1.2-3.5c0.2-2.1,0.5-4.3,0.6-6.4l-18.4,0.4
		c-3.7,0.1-6.8-2.8-6.8-6.5c-0.1-3.7,2.8-6.8,6.5-6.8l19.6-0.4c0.2-3.8,0.3-7.5,0.5-11.1c-0.9-1.2-1.5-2.5-1.5-4.1
		c0-1.6,0.7-3.1,1.7-4.2c0-2.7,0-5.4,0-8.1l-17.9,3.1c-3.6,0.6-7.1-1.8-7.8-5.5c-0.6-3.6,1.8-7.1,5.5-7.8l19.9-3.5
		c-0.1-3.5-0.2-7-0.4-10.4c-0.2-0.4-0.5-0.8-0.5-1.3c-0.2-1.1-0.1-2.2,0.2-3.2c-0.3-4.6-0.7-9.1-1.1-13.5l-18.3,3.2
		c-3.6,0.6-7.1-1.8-7.8-5.4c-0.6-3.6,1.8-7.1,5.4-7.8l19.1-3.3c-1.1-8.7-2.4-17-3.8-25.1l-18.7,6.8c-3.5,1.3-7.3-0.5-8.6-4
		c-1.3-3.5,0.5-7.3,4-8.6l20.7-7.5c-0.7-3.1-1.3-6.1-2-9c-1.5-0.6-2.8-1.7-3.5-3.3c-1.1-2.4-0.6-5.2,1-7.1c-0.5-1.9-1-3.8-1.5-5.7
		l-18.2,8.5c-3.4,1.6-7.3,0.1-8.9-3.2c-1.6-3.3-0.1-7.3,3.2-8.9l20.2-9.4c-1.7-5.6-3.4-11-5.1-15.9c-0.2-0.3-0.5-0.6-0.7-0.9
		c-0.4-0.9-0.6-1.8-0.6-2.7c-0.8-2.2-1.5-4.3-2.3-6.4l-19.2,8.9c-3.4,1.6-7.3,0.1-8.9-3.2c-1.6-3.4-0.1-7.3,3.2-8.9l20-9.3
		c-0.4-1.1-0.9-2.1-1.3-3.2c-2.8,0.3-5.6-1.1-6.8-3.7c-0.2-0.5-0.3-1-0.4-1.5c-46,35.9-75.6,91.7-75.6,154.5
		C540.5,825.4,578.9,887.7,636.1,921.9z"/>
	<path fill="#DFF3FD" d="M824.7,928.8c-0.8-2.5-1.5-5.1-2.3-7.6l-19.1,3.3c-3.6,0.6-7.1-1.8-7.8-5.5c-0.6-3.6,1.8-7.1,5.5-7.8
		l17.6-3.1c-0.8-2.7-1.4-5.4-2.1-8.1c-0.9-1-1.6-2.1-1.8-3.5c-0.1-0.9-0.1-1.8,0.2-2.7c-0.8-3.5-1.6-6.9-2.4-10.3l-20.5,0.3
		c-3.7,0.1-6.7-2.9-6.8-6.6c0-3.7,2.9-6.7,6.6-6.8l17.9-0.2c-0.8-4-1.5-8-2.1-12c-2.3-1-3.9-3.2-4-5.9c-0.1-2,0.9-3.8,2.3-5.1
		c-0.5-3.8-1.1-7.7-1.6-11.4l-20.8,0.3c-3.7,0-6.7-2.9-6.8-6.6c-0.1-3.7,2.9-6.7,6.6-6.8l19.6-0.3c-0.2-1.8-0.3-3.6-0.5-5.3
		c-1.4-1.3-2.3-3-2.3-5.1c0-1.6,0.7-3.1,1.7-4.2c-0.2-3.5-0.4-7-0.5-10.5l-19.6,0.3c-3.7,0-6.7-2.9-6.8-6.6
		c-0.1-3.7,2.9-6.7,6.6-6.8l19.4-0.3c0-3.3,0.1-6.5,0.1-9.8c-1.2-1.5-1.9-3.4-1.5-5.4c0.2-1.3,0.9-2.4,1.7-3.3
		c0.1-2.9,0.2-5.7,0.4-8.6l-21-4.2c-3.6-0.7-6-4.2-5.2-7.9c0.7-3.6,4.3-6,7.9-5.2l19.3,3.9c0.3-3.8,0.6-7.5,1-11.2
		c-1.2-1.5-1.8-3.4-1.5-5.4c0.3-1.7,1.3-3.1,2.5-4.1c0.4-3.5,0.9-6.9,1.4-10.3l-21.2-4.2c-3.6-0.7-6-4.3-5.3-7.9
		c0.7-3.6,4.3-6,7.9-5.3l20.7,4.1c1.7-9.6,3.5-18.8,5.6-27.4l-17.6-8.2c-3.4-1.6-4.8-5.5-3.2-8.9c1.6-3.4,5.6-4.8,8.9-3.2l15.2,7.1
		c2.7-10.4,5.6-19.9,8.5-28.6l-19.4-9.1c-3.4-1.6-4.8-5.6-3.2-8.9c1.6-3.4,5.5-4.8,8.9-3.2l18.2,8.5c2.4-6.6,4.8-12.5,7-17.9
		l-14.9-7c-3.3-1.6-4.8-5.6-3.2-8.9c1.4-3.1,4.9-4.4,8.1-3.4c-27.1-14.1-57.8-22.2-90.4-22.2c-32.5,0-63.1,8-90.1,22
		c3-0.6,6,0.8,7.3,3.6c1.6,3.4,0.1,7.3-3.2,8.9l-14.9,7c2.2,5.3,4.6,11.3,7,17.9l18.2-8.5c3.4-1.6,7.3-0.1,8.9,3.2
		c1.5,3.3,0.1,7.3-3.3,8.9l-19.4,9.1c2.9,8.7,5.8,18.3,8.5,28.6l15.2-7.1c3.4-1.6,7.3-0.1,8.9,3.2c1.6,3.4,0.1,7.3-3.3,8.9
		l-17.6,8.2c2,8.7,3.9,17.9,5.6,27.5l20.7-4.1c3.6-0.7,7.2,1.6,7.9,5.3c0.7,3.6-1.6,7.2-5.3,7.9l-21.2,4.2c0.5,3.4,1,6.8,1.4,10.3
		c1.3,1,2.2,2.4,2.5,4.1c0.4,2-0.3,3.9-1.5,5.4c0.4,3.7,0.7,7.4,1,11.2l19.3-3.9c3.6-0.7,7.1,1.6,7.9,5.2c0.7,3.6-1.6,7.2-5.2,7.9
		l-21,4.2c0.1,2.8,0.3,5.7,0.4,8.6c0.8,0.9,1.5,2,1.7,3.3c0.4,2-0.3,4-1.5,5.4c0,3.2,0.1,6.5,0.1,9.8l19.4,0.3
		c3.7,0.1,6.7,3.1,6.6,6.8c-0.1,3.7-3.1,6.7-6.8,6.6l-19.6-0.3c-0.1,3.5-0.3,7-0.5,10.5c1,1.1,1.7,2.6,1.7,4.2c0,2-0.9,3.8-2.3,5.1
		c-0.1,1.8-0.3,3.6-0.5,5.3l19.6,0.3c3.7,0.1,6.7,3.1,6.6,6.8c-0.1,3.7-3.1,6.7-6.8,6.6l-20.8-0.3c-0.4,3.8-1,7.6-1.6,11.4
		c1.4,1.3,2.3,3.1,2.3,5.1c-0.1,2.7-1.7,4.9-4,5.9c-0.7,4-1.3,7.9-2.1,12l17.9,0.2c3.7,0.1,6.7,3.1,6.6,6.8
		c-0.1,3.7-3.1,6.7-6.8,6.6l-20.5-0.3c-0.8,3.4-1.5,6.9-2.4,10.3c0.2,0.8,0.3,1.7,0.2,2.7c-0.2,1.4-0.9,2.5-1.8,3.5
		c-0.7,2.7-1.4,5.4-2.1,8.1l17.6,3.1c3.6,0.6,6.1,4.1,5.5,7.8c-0.6,3.7-4.1,6.1-7.8,5.5l-19.1-3.3c-0.8,2.5-1.4,4.9-2.3,7.4
		c26.6,13.5,56.6,21.3,88.5,21.3C768.3,949.9,798.1,942.1,824.7,928.8z"/>
</g>
</svg>
