<?xml version="1.0" encoding="utf-8"?>
<!-- Generator: Adobe Illustrator 18.1.0, SVG Export Plug-In . SVG Version: 6.00 Build 0)  -->
<svg version="1.0" id="Layer_1" xmlns="http://www.w3.org/2000/svg" xmlns:xlink="http://www.w3.org/1999/xlink" x="0px" y="0px"
	 viewBox="0 0 150 150" enable-background="new 0 0 150 150" xml:space="preserve">
<g>
	<path fill="none" d="M100.3,104.5c0.1,0,0.2,0,0.3,0c-0.1,0-0.2-0.1-0.3-0.2C100.2,104.5,100.2,104.5,100.3,104.5z"/>
	<path fill="none" d="M61.9,111.6c0.1,0.1,0.1,0.2,0.1,0.2c0-0.1,0-0.2,0-0.3C61.9,111.5,61.8,111.5,61.9,111.6z"/>
	<path fill="none" d="M49.6,45.1c-0.1,0-0.2,0-0.3,0c0.1,0,0.2,0.1,0.3,0.2C49.7,45.2,49.7,45.1,49.6,45.1z"/>
	<path fill="none" d="M103.2,79.3l1.4,1.3c0,0-1.3-2.3-0.4-5l0.8,1.2c0,0,0.3-3.3,1.3-4.6c0,0,0.9,1.7,0.9,1.1
		c0-0.6,0.4-2.6,2.5-4.5l0.4,1.5c0,0,0.2-0.8,0.9-1.7c-0.5-5.6-2.2-12-6.8-16.7c-6.3,4.3-11.2,0.8-11.2,0.8l1.8-0.6
		c0,0-2.6,0-4.5-2.2l1.4-0.1c0,0-2.7-1.9-3.4-3.4c0,0,1.9,0.1,1.4-0.2c-0.5-0.3-2-1.7-2.6-4.4l1.4,0.4c0,0-0.5-0.6-1.1-1.6
		c-5.1-2.4-11.5-4.1-17.9-2.4c0.6,7.7-4.9,10.1-4.9,10.1l0.4-1.8c0,0-1.3,2.3-4.1,2.8l0.6-1.3c0,0-3,1.4-4.6,1.2c0,0,1-1.6,0.5-1.3
		c-0.5,0.3-2.4,0.9-5.2,0l1.1-1.1c0,0-0.8,0.2-1.9,0.1c-4.6,3.3-9.3,7.9-11,14.3c6.9,3.3,6.3,9.3,6.3,9.3l-1.4-1.3
		c0,0,1.3,2.3,0.4,5l-0.8-1.2c0,0-0.3,3.3-1.3,4.6c0,0-0.9-1.7-0.9-1.1c0,0.6-0.4,2.6-2.5,4.5l-0.4-1.5c0,0-0.2,0.8-0.9,1.7
		c0.5,5.6,2.2,12,6.8,16.7c6.3-4.3,11.2-0.8,11.2-0.8l-1.8,0.6c0,0,2.6,0,4.5,2.2l-1.4,0.1c0,0,2.7,1.9,3.3,3.4c0,0-1.9-0.1-1.4,0.2
		c0.5,0.3,2,1.7,2.6,4.4l-1.4-0.4c0,0,0.5,0.6,1.1,1.6c5.1,2.4,11.5,4,17.9,2.4c-0.6-7.7,4.9-10.1,4.9-10.1l-0.4,1.8
		c0,0,1.3-2.3,4.1-2.8l-0.6,1.3c0,0,3-1.4,4.6-1.2c0,0-1,1.6-0.5,1.3c0.5-0.3,2.4-0.9,5.2,0l-1.1,1.1c0,0,0.8-0.2,1.9-0.1
		c4.6-3.3,9.3-7.9,11-14.3C102.6,85.3,103.2,79.3,103.2,79.3z M46.4,62.5l-0.1,0.6c-0.9-0.7-1.1-1.5-1.2-1.7c0-0.2-0.3,0.5-0.3,0.5
		c-0.4-0.5-0.7-1.8-0.7-1.8l-0.3,0.5c-0.5-1,0-2,0-2l-0.5,0.5c0,0-0.4-2.2,2-3.8c0.1,1.5,0.4,3,1.1,4.6c0.4,0.9,0.9,1.7,1.5,2.5
		c-0.4-0.6-0.8-1.2-1.1-1.9c-0.9-1.9-1.2-3.8-1-5.5c3.3-0.7,4.5,1.6,4.5,1.6l-0.7-0.1c0,0,0.9,0.5,1.2,1.6l-0.5-0.2
		c0,0,0.6,1.1,0.6,1.8c0,0-0.6-0.4-0.5-0.2c0.1,0.2,0.4,0.9,0.2,2l-0.4-0.4c0,0,0.3,0.9-0.1,2c0,0-0.4-0.6-0.4-0.4
		c0.1,0.6-0.4,1.7-0.4,1.6c0,0.1-1-0.4-1.4-1c-0.1-0.1,0,0.6,0,0.6C46.8,63.4,46.4,62.5,46.4,62.5z M51.5,92.6
		c-0.2,0,0.5,0.3,0.5,0.3c-1,0.6-1.9,0.4-1.9,0.4l0.5,0.4c-1,0.4-1.8,0.2-2,0.2c-0.2-0.1,0.2,0.5,0.2,0.5c-0.6,0.1-1.9-0.3-1.9-0.3
		l0.3,0.5c-1.1-0.1-1.7-1-1.7-1l0.2,0.7c0,0-2.2-0.7-2.3-3.6c1.3,0.7,2.9,1.2,4.5,1.3c1,0.1,2,0.1,2.9-0.1c-0.7,0.1-1.4,0.1-2.2,0
		c-2.1-0.2-3.9-0.9-5.3-1.9C44.4,86.9,47,87,47,87l-0.5,0.6c0,0,0.9-0.6,1.9-0.3L48,87.6c0,0,1.3,0,1.8,0.4c0,0-0.6,0.4-0.4,0.4
		c0.2,0,1,0.1,1.8,0.9l-0.6,0.2c0,0,0.9,0.2,1.6,1.1c0,0-0.7,0.1-0.6,0.1c0.6,0.3,1.2,1.1,1.2,1.2C53,92,52.1,92.6,51.5,92.6z
		 M70.8,45.9c0-1.1,0.6-1.9,0.6-1.9l-0.6,0.2c0.2-1.1,0.7-1.7,0.9-1.8c0.2-0.1-0.5,0-0.5,0c0.2-0.6,1.2-1.5,1.2-1.5l-0.6,0
		c0.7-0.9,1.7-1,1.7-1l-0.7-0.2c0,0,1.7-1.5,4.3-0.1c-1.2,0.8-2.4,1.9-3.4,3.3c-0.6,0.8-1,1.7-1.4,2.5c0.3-0.6,0.7-1.3,1.1-1.9
		c1.2-1.7,2.7-2.9,4.2-3.6c2.2,2.5,0.8,4.7,0.8,4.7l-0.3-0.7c0,0,0.1,1-0.7,1.8l-0.1-0.6c0,0-0.7,1.1-1.2,1.4c0,0,0-0.7-0.1-0.5
		c-0.1,0.2-0.6,0.8-1.7,1.1l0.1-0.6c0,0-0.6,0.7-1.8,0.9c0,0,0.3-0.7,0.2-0.6c-0.5,0.4-1.6,0.5-1.6,0.4c-0.1,0-0.1-1.1,0.2-1.7
		C71.4,45.5,70.8,45.9,70.8,45.9z M79.1,105.4c-0.2,1.1-0.7,1.7-0.9,1.8c-0.2,0.1,0.5,0.1,0.5,0.1c-0.2,0.6-1.2,1.6-1.2,1.6h0.6
		c-0.7,1-1.7,0.9-1.7,0.9l0.7,0.1c0,0-1.7,1.5-4.3,0.1c1.2-0.8,2.4-1.9,3.4-3.3c0.6-0.8,1-1.7,1.4-2.5c-0.3,0.6-0.7,1.3-1.1,1.9
		c-1.2,1.7-2.7,2.9-4.2,3.6c-2.2-2.5-0.8-4.7-0.8-4.7l0.3,0.7c0,0-0.1-1,0.7-1.8l0.1,0.6c0,0,0.7-1.1,1.3-1.4c0,0,0,0.7,0.1,0.5
		c0.1-0.2,0.6-0.8,1.7-1.1l-0.1,0.6c0,0,0.6-0.7,1.8-0.9c0,0-0.3,0.7-0.2,0.6c0.5-0.4,1.6-0.5,1.6-0.4c0.1,0,0.1,1.1-0.2,1.7
		c-0.1,0.1,0.5-0.3,0.5-0.3c0,1.1-0.6,1.9-0.6,1.9L79.1,105.4z M97.5,59.1c0,0,0.7-0.1,0.6-0.1c-0.6-0.3-1.2-1.1-1.2-1.2
		c0-0.1,0.9-0.7,1.5-0.7c0.2,0-0.5-0.3-0.5-0.3c1-0.6,1.9-0.4,1.9-0.4l-0.5-0.4c1-0.4,1.8-0.2,2-0.2c0.2,0.1-0.2-0.5-0.2-0.5
		c0.6-0.1,1.9,0.3,1.9,0.3l-0.3-0.5c1.1,0.1,1.7,1,1.7,1l-0.2-0.7c0,0,2.2,0.7,2.3,3.6c-1.3-0.7-2.9-1.2-4.5-1.3c-1-0.1-2-0.1-2.9,0
		c0.7-0.1,1.4-0.1,2.2,0c2.1,0.2,3.9,0.9,5.3,1.9c-1.1,3.2-3.6,3.1-3.6,3.1l0.5-0.6c0,0-0.9,0.6-1.9,0.3l0.4-0.4c0,0-1.3,0-1.8-0.4
		c0,0,0.6-0.4,0.4-0.4c-0.2,0-1-0.1-1.8-0.9l0.6-0.2C99.1,60.2,98.2,60,97.5,59.1z M106,91l0.5-0.5c0,0,0.4,2.2-2,3.8
		c-0.1-1.5-0.4-3-1.1-4.6c-0.4-0.9-0.9-1.7-1.5-2.5c0.4,0.6,0.8,1.2,1.1,1.9c0.9,1.9,1.2,3.8,1,5.5c-3.3,0.7-4.5-1.6-4.5-1.6
		l0.7,0.1c0,0-0.9-0.5-1.2-1.6l0.5,0.2c0,0-0.6-1.1-0.6-1.8c0,0,0.6,0.4,0.5,0.2c-0.1-0.2-0.4-0.9-0.1-2l0.4,0.4c0,0-0.3-0.9,0.1-2
		c0,0,0.4,0.6,0.4,0.4c-0.1-0.6,0.4-1.7,0.4-1.6c0-0.1,1,0.4,1.4,1c0.1,0.1,0-0.6,0-0.6c1,0.6,1.3,1.5,1.3,1.5l0.1-0.6
		c0.9,0.7,1.1,1.5,1.2,1.7c0,0.2,0.3-0.5,0.3-0.5c0.4,0.5,0.7,1.8,0.7,1.8l0.3-0.5C106.4,90.1,106,91,106,91z"/>
	<path fill="none" d="M88,38c-0.1-0.1-0.1-0.2-0.1-0.2c0,0.1,0,0.2,0,0.3C88,38.1,88,38.1,88,38z"/>
	<path fill="none" d="M36.5,81.9c0,0.1-0.1,0.2-0.1,0.2c0.1,0,0.2-0.1,0.3-0.2C36.6,81.9,36.6,81.8,36.5,81.9z"/>
	<path fill="none" d="M113.3,67.7c0-0.1,0.1-0.2,0.1-0.2c-0.1,0-0.2,0.1-0.3,0.2C113.3,67.8,113.3,67.8,113.3,67.7z"/>
	<path fill="#5F473B" d="M34,126.5c-1.2,0.2-2,1.3-1.8,2.4c0.2,1.2,1.3,2,2.4,1.8c1.2-0.2,2-1.3,1.8-2.4
		C36.3,127.2,35.2,126.4,34,126.5z"/>
	<circle fill="#5F473B" cx="21.7" cy="102.3" r="1.9"/>
	<path fill="#679D41" d="M35.2,106.6c0.1-0.2,0.2-0.5,0.2-0.7c0,0.1-0.3,0.6-0.7,1.4c1.4,2.8,1.7,5.3,0.5,7
		c-0.1,0.1-0.2,0.2-0.2,0.3c1-1.6,0.7-4-0.6-6.6c-0.5,0.8-1.1,1.8-1.9,3c0.9,2.6,0.7,5.3-0.8,7.4c-0.1,0.1-0.2,0.2-0.3,0.4
		c1.2-2.1,1.3-4.6,0.5-7.1c-0.7,1-1.6,2.1-2.5,3.3c0.4,1.8,0.2,3.6-0.8,5c-0.1,0.1-0.1,0.2-0.2,0.2c0.9-1.4,1.1-3.1,0.7-4.8
		c-1.3,1.5-2.8,3.2-4.5,5c1.4-1.7,2.6-3.3,3.8-4.9c-1.8,0-3.5,0.8-4.6,2.1c0.1-0.1,0.1-0.2,0.2-0.3c1.1-1.5,2.9-2.3,4.8-2.3
		c0.9-1.2,1.7-2.3,2.4-3.4c-2.7-0.1-5.2,0.8-6.9,2.7c0.1-0.1,0.2-0.3,0.3-0.4c1.6-2.1,4.3-3.1,7.1-3c0.7-1.1,1.3-2,1.8-2.8
		c-2.8-0.4-5.1,0.1-6.3,1.5c0.1-0.1,0.1-0.2,0.2-0.3c1.1-1.6,3.5-2.1,6.5-1.8c0.8-1.3,1.3-2,1.3-2c-6.4-3.5-10.3,0.6-10.3,0.6
		l1.6,0.2c0,0-2.2,0.4-3.5,2.5l1.2-0.1c0,0-2,2-2.3,3.4c0,0,1.6-0.3,1.2,0c-0.4,0.3-1.4,1.7-1.6,4.1l1.2-0.5c0,0-1.2,1.7-1,4.2
		c0,0,1.3-1,1.1-0.7c-0.8,1.8,0,3.9,0,3.9c0.2,0,2.2,0.1,3.7-1.2c0.3-0.2-0.3,1.3-0.3,1.3c2.4-0.6,3.7-2.2,3.7-2.2l-0.2,1.3
		c2.3-0.9,3.3-2.3,3.5-2.8c0.2-0.5,0.4,1.1,0.4,1.1c1.2-0.7,2.5-3.3,2.5-3.3l0.3,1.2c1.6-1.9,1.3-4.1,1.3-4.1l0.7,1.4
		c0,0,2.2-4.2-1.6-8.8c-0.1,0.3-0.2,0.6-0.3,0.9C35.6,108.1,35.7,107.9,35.2,106.6z"/>
	<path fill="#679D41" d="M62,111.9c0-0.1-0.1-0.2-0.1-0.2c-0.1-0.1,0-0.1,0.1-0.1c0-0.9,0-2,0.1-2.6c0.1,0.1,0.2,0.1,0.3,0.2
		c-0.5-1-1.1-1.6-1.1-1.6l1.4,0.4c-0.6-2.8-2.1-4.1-2.6-4.4c-0.5-0.3,1.4-0.2,1.4-0.2c-0.6-1.5-3.3-3.4-3.3-3.4l1.4-0.1
		c-1.9-2.2-4.5-2.2-4.5-2.2l1.8-0.6c0,0-4.9-3.5-11.2,0.8c0.2,0.2,0.4,0.5,0.7,0.7c0.1,0.1,0.2,0.1,0.2,0.2c-0.3,0.1-0.7,0.3-1,0.4
		c-0.1-0.1-0.2-0.1-0.2-0.2c0.3,0.4,0.8,0.9,1.4,1.6c3.3-1,6.1-0.9,7.8,0.7c0.1,0.1,0.2,0.2,0.3,0.3c-1.7-1.4-4.4-1.4-7.5-0.5
		c0.7,0.8,1.6,1.8,2.7,2.8c3.3-0.7,6.5,0,8.8,2.1c0.1,0.1,0.2,0.2,0.4,0.4c-2.3-1.8-5.3-2.4-8.4-1.7c1,1.1,2.2,2.2,3.4,3.4
		c2.2-0.3,4.4,0.2,6,1.8c0.1,0.1,0.2,0.2,0.2,0.3c-1.5-1.3-3.6-1.8-5.7-1.5c1.7,1.6,3.4,3.3,5.3,4.9c-2.3-1.7-4.4-3.3-6.1-4.8
		c-0.2,2,0.4,3.9,1.7,5.3c-0.1-0.1-0.2-0.1-0.3-0.2c-1.5-1.4-2.1-3.4-1.9-5.6c-1.4-1.2-2.5-2.3-3.5-3.3c-0.4,3,0.2,5.9,2,8
		c-0.1-0.1-0.3-0.2-0.4-0.4c-2.1-2.2-2.8-5.2-2.3-8.4c-1.2-1.2-2.1-2.3-2.8-3.1c-0.9,3.2-0.8,6,0.6,7.7c-0.1-0.1-0.2-0.2-0.3-0.2
		c-1.7-1.6-1.9-4.6-0.8-8.1c-0.8-1-1.1-1.5-1.1-1.5c-5.1,6.8-1.1,12-1.1,12l0.5-1.8c0,0,0,2.6,2.3,4.4l0.1-1.4c0,0,1.9,2.7,3.5,3.3
		c0,0-0.1-1.9,0.2-1.4c0.3,0.5,1.7,1.9,4.5,2.5l-0.4-1.4c0,0,1.8,1.6,4.7,1.8c0,0-0.9-1.6-0.6-1.4c1.9,1.2,4.3,0.7,4.5,0.7
		c0,0,0.3-1.8-0.3-3.5c-0.1,0-0.2-0.1-0.3-0.1C62,112.4,62,112.1,62,111.9z"/>
	<path fill="#679D41" d="M49.2,122.5c0.1-0.9-0.8-2.6-0.8-2.6l0.8,0.3c-0.4-1.6-1.7-2.2-1.7-2.2l1,0.2c0,0-1.7-3.3-6.5-2.3
		c0,0,0.2,0.3,0.5,1c2,0.3,3.5,1.1,4,2.4c0,0.1,0,0.1,0.1,0.2c-0.5-1.1-1.9-1.9-3.8-2.2c0.3,0.6,0.6,1.3,0.9,2.2
		c1.8,0.5,3.1,1.6,3.8,3.2c0,0.1,0.1,0.2,0.1,0.3c-0.7-1.4-2-2.5-3.7-3c0.3,0.8,0.6,1.6,0.9,2.6c1.1,0.4,2,1.2,2.4,2.3
		c0,0.1,0,0.1,0.1,0.2c-0.4-1-1.3-1.8-2.3-2.2c0.4,1.3,0.7,2.7,1,4.3c-0.4-1.4-0.8-2.7-1.2-3.9c-0.7,1-0.9,2.2-0.6,3.3
		c0-0.1-0.1-0.1-0.1-0.2c-0.4-1.2-0.2-2.4,0.5-3.5c-0.3-0.9-0.6-1.8-0.9-2.6c-1.1,1.5-1.5,3.2-1.2,4.8c0-0.1-0.1-0.2-0.1-0.3
		c-0.5-1.7-0.1-3.5,1.1-5c-0.3-0.8-0.6-1.5-0.8-2.1c-1.3,1.4-1.9,2.8-1.6,4c0-0.1-0.1-0.1-0.1-0.2c-0.4-1.2,0.2-2.7,1.5-4.2
		c-0.4-0.9-0.6-1.5-0.6-1.5c-4.3,2.2-3.6,5.9-3.6,5.9l0.7-0.8c0,0-0.6,1.3,0,2.8l0.4-0.7c0,0,0.3,1.9,0.9,2.6c0,0,0.4-1,0.5-0.7
		c0,0.3,0.4,1.4,1.7,2.4l0.1-0.9c0,0,0.5,1.3,1.9,2.1c0,0-0.1-1.1,0.1-0.9c0.7,1.1,2.1,1.5,2.1,1.5c0.1-0.1,0.9-1.2,0.7-2.5
		c0-0.2,0.6,0.6,0.6,0.6c0.6-1.5,0.2-2.9,0.2-2.9l0.6,0.6c0.4-1.6,0-2.7-0.2-2.9C48.2,122,49.2,122.5,49.2,122.5z"/>
	<path fill="#679D41" d="M51.8,90.7c-0.1-0.1,0.6-0.1,0.6-0.1c-0.7-0.9-1.6-1.1-1.6-1.1l0.6-0.2c-0.8-0.8-1.6-0.9-1.8-0.9
		c-0.2,0,0.4-0.4,0.4-0.4c-0.5-0.4-1.8-0.4-1.8-0.4l0.4-0.4c-1.1-0.3-1.9,0.3-1.9,0.3L47,87c0,0-2.6-0.1-3.6,3.1
		c1.4,1,3.2,1.7,5.3,1.9c0.7,0.1,1.5,0.1,2.2,0c-0.9,0.1-1.9,0.1-2.9,0.1c-1.7-0.2-3.2-0.6-4.5-1.3c0.1,2.9,2.3,3.6,2.3,3.6
		l-0.2-0.7c0,0,0.6,0.9,1.7,1l-0.3-0.5c0,0,1.2,0.5,1.9,0.3c0,0-0.4-0.6-0.2-0.5c0.2,0.1,1,0.3,2-0.2L50,93.3c0,0,0.9,0.1,1.9-0.4
		c0,0-0.6-0.3-0.5-0.3c0.7,0,1.6-0.6,1.5-0.7C53.1,91.8,52.4,91,51.8,90.7z"/>
	<path fill="#679D41" d="M60.5,126.2c-0.3-0.9-1-1.4-1-1.4l0.5,0c-0.4-0.9-1-1.2-1.2-1.3c-0.2-0.1,0.4-0.2,0.4-0.2
		c-0.3-0.5-1.4-0.9-1.4-0.9l0.5-0.1c-0.8-0.6-1.7-0.4-1.7-0.4l0.6-0.3c0,0-2-0.9-3.9,1.3c0.8,1.2,2,2.4,3.6,3.2
		c0.6,0.3,1.2,0.5,1.7,0.7c-0.8-0.2-1.6-0.5-2.3-0.9c-1.3-0.7-2.4-1.5-3.3-2.5c-0.8,2.4,0.7,3.6,0.7,3.6l0-0.6c0,0,0.2,0.9,1.1,1.3
		l-0.1-0.5c0,0,0.8,0.8,1.4,0.8c0,0-0.2-0.6,0-0.5c0.1,0.1,0.7,0.5,1.7,0.5l-0.2-0.5c0,0,0.7,0.4,1.7,0.3c0,0-0.4-0.5-0.3-0.4
		c0.5,0.2,1.5,0,1.5-0.1c0.1,0-0.2-0.9-0.6-1.3C59.9,126.1,60.5,126.2,60.5,126.2z"/>
	<path fill="#679D41" d="M26.5,100.5c0,0.1,1.1,0.3,1.7,0.1c0.1-0.1-0.3,0.5-0.3,0.5c1.1,0.2,1.9-0.3,1.9-0.3l-0.3,0.5
		c1.1,0,1.8-0.5,1.9-0.6c0.2-0.2,0,0.5,0,0.5c0.6-0.1,1.6-1,1.6-1l-0.1,0.6c1-0.5,1.2-1.5,1.2-1.5l0.1,0.7c0,0,1.7-1.5,0.7-4.2
		c-0.9,1.1-2.2,2.1-3.7,2.9c-0.9,0.5-1.8,0.8-2.7,1c0.7-0.2,1.3-0.5,2-0.8c1.8-1,3.3-2.3,4.2-3.7c-2.2-2.5-4.5-1.5-4.5-1.5l0.6,0.4
		c0,0-1-0.2-1.9,0.5l0.5,0.2c0,0-1.2,0.5-1.6,1c0,0,0.7,0.1,0.5,0.2c-0.2,0.1-0.9,0.5-1.4,1.5l0.6,0c0,0-0.8,0.5-1.1,1.6
		c0,0,0.7-0.2,0.6-0.1C26.7,99.4,26.4,100.5,26.5,100.5z"/>
	<path fill="#5D9641" d="M46.7,98.7c-0.1-0.1-0.2-0.1-0.2-0.2c-0.2-0.2-0.5-0.4-0.7-0.7c-4.6-4.7-6.3-11-6.8-16.7
		c-0.5,0.7-1.2,1.5-2.2,2.2c0,0,0-1-0.1-1.4c-0.1,0.1-0.2,0.1-0.3,0.2c-0.2,0.3-0.3,0.5-0.5,0.7c0,0.1,0,0.2,0,0.2c0,0,0,0-0.1,0
		c1.4,8.6,2.7,13.5-0.4,22.8c-0.1,0.2-0.1,0.5-0.2,0.7c0.5,1.3,0.4,1.5,1.1,1.3c0.1-0.3,0.2-0.6,0.3-0.9c1.6-5.1,2.9-8.3,2.4-15.3
		c1.2,2,2.7,3.8,4.4,5.5c0.6,0.6,1.3,1.1,2,1.6c0.1,0.1,0.2,0.1,0.2,0.2C46,99,46.4,98.9,46.7,98.7z"/>
	<path fill="#5F473B" d="M6.7,64.9c-0.9,0.7-1.1,2.1-0.3,3c0.7,0.9,2.1,1.1,3,0.3c0.9-0.7,1.1-2.1,0.3-3C9,64.3,7.6,64.2,6.7,64.9z"
		/>
	<path fill="#5F473B" d="M25.8,43.8c0.7-0.7,0.7-1.9,0-2.7c-0.7-0.7-1.9-0.7-2.7,0c-0.7,0.7-0.7,1.9,0,2.7
		C23.9,44.5,25.1,44.5,25.8,43.8z"/>
	<path fill="#679D41" d="M27.5,56.3c0.3,0,0.5-0.1,0.7-0.2c-0.1,0-0.6,0.1-1.6,0.1c-1.7,2.6-3.8,4.1-5.8,3.9c-0.1,0-0.2-0.1-0.3-0.1
		c1.9,0,3.8-1.4,5.4-3.8c-0.9,0-2.1,0-3.6-0.2c-1.8,2-4.3,3.2-6.8,3.1c-0.2,0-0.3,0-0.4-0.1c2.4,0,4.6-1.1,6.4-3.1
		c-1.2-0.1-2.6-0.3-4.1-0.5c-1.3,1.3-3,2-4.7,1.8c-0.1,0-0.2,0-0.3-0.1c1.7,0.1,3.2-0.6,4.5-1.8c-2-0.3-4.2-0.8-6.6-1.4
		c2.1,0.4,4.2,0.6,6.2,0.8c-1-1.6-2.4-2.7-4.1-2.9c0.1,0,0.2,0,0.3,0c1.9,0.2,3.4,1.3,4.4,3c1.5,0.2,2.9,0.3,4.1,0.4
		c-1.3-2.4-3.3-4.1-5.8-4.6c0.2,0,0.3,0,0.4,0c2.6,0.4,4.8,2.1,6.2,4.7c1.3,0.1,2.4,0.1,3.3,0.2c-1.1-2.6-2.6-4.3-4.4-4.7
		c0.1,0,0.2,0,0.3,0c2,0.2,3.6,2,4.8,4.7c1.5,0.1,2.4,0.1,2.4,0.1c-0.2-7.3-5.7-8.7-5.7-8.7l0.6,1.5c0,0-1.4-1.7-3.9-1.8l0.7,1
		c0,0-2.7-0.8-4.1-0.3c0,0,1.1,1.2,0.6,1c-0.5-0.2-2.2-0.4-4.4,0.7l1.1,0.7c0,0-2.1-0.1-4.1,1.3c0,0,1.5,0.6,1.1,0.6
		c-1.9,0.2-3.4,2-3.4,2c0.1,0.2,1.1,2,2.9,2.6c0.3,0.1-1.3,0.4-1.3,0.4c1.7,1.8,3.8,2.1,3.8,2.1l-1.2,0.5c1.9,1.5,3.7,1.7,4.1,1.6
		c0.5-0.1-0.8,0.9-0.8,0.9c1.2,0.7,4.1,0.5,4.1,0.5l-0.9,0.8c2.4,0.5,4.2-0.9,4.2-0.9L21,63.5c0,0,4.7-0.2,6.8-5.8
		c-0.3,0.1-0.6,0.1-0.9,0.2C26.4,57.5,26.6,57.4,27.5,56.3z"/>
	<path fill="#679D41" d="M36.5,81.9c0-0.1,0.1,0,0.1,0.1c0.1,0.4,0.1,1.4,0.1,1.4c1-0.7,1.7-1.5,2.2-2.2c0.6-1,0.9-1.7,0.9-1.7
		l0.4,1.5c2.1-1.9,2.5-3.9,2.5-4.5c0-0.6,0.9,1.1,0.9,1.1c1-1.3,1.3-4.6,1.3-4.6l0.8,1.2c1-2.7-0.4-5-0.4-5l1.4,1.3
		c0,0,0.6-6-6.3-9.3c-0.1,0.3-0.2,0.6-0.2,0.9c0,0.1,0,0.2-0.1,0.3c-0.3-0.2-0.6-0.4-0.8-0.7c0-0.1,0-0.2,0-0.3
		c-0.2,0.5-0.4,1.1-0.7,2c2.5,2.3,3.8,4.9,3.2,7.1c0,0.1-0.1,0.2-0.1,0.4c0.3-2.1-0.9-4.5-3.3-6.7c-0.3,1-0.7,2.3-1.1,3.7
		c2.2,2.5,3.3,5.6,2.6,8.6c0,0.2-0.1,0.3-0.1,0.5c0.4-2.9-0.6-5.8-2.7-8.2c-0.4,1.4-0.8,3-1.3,4.7c1.4,1.8,2,3.9,1.5,6
		c0,0.1-0.1,0.2-0.1,0.3c0.4-2-0.2-4-1.5-5.7c-0.6,2.2-1.1,4.6-1.6,7.1c0.3-2.9,0.7-5.4,1.1-7.7c-1.8,0.9-3.2,2.3-3.8,4.1
		c0-0.1,0-0.2,0.1-0.4c0.5-2,1.9-3.5,3.8-4.4c0.3-1.8,0.7-3.3,1.1-4.7c-2.8,1.1-5,3.1-5.9,5.7c0-0.2,0.1-0.3,0.1-0.5
		c0.8-2.9,3.1-5,6.1-6.2c0.5-1.6,0.9-2.9,1.3-4c-3.2,0.8-5.6,2.3-6.3,4.4c0-0.1,0-0.3,0.1-0.4c0.6-2.3,3-3.9,6.6-4.8
		c0.5-1.2,0.8-1.8,0.8-1.8c-8.5-1-10.9,5-10.9,5l1.8-0.5c0,0-2.2,1.3-2.7,4.2l1.3-0.6c0,0-1.4,3-1.1,4.6c0,0,1.5-1,1.3-0.5
		c-0.3,0.5-0.8,2.5,0.1,5.2l1-1.1c0,0-0.5,2.4,0.8,4.9c0,0,0.9-1.6,0.9-1.2c-0.1,2.3,1.5,4.1,1.7,4.2c0,0,1.7-0.6,2.9-2
		c0.2-0.2,0.4-0.5,0.5-0.7C36.4,82.1,36.5,82,36.5,81.9z"/>
	<path fill="#679D41" d="M20.6,75.6c0.2-0.3,0.2,0.8,0.2,0.8c0.9-0.4,1.8-2,1.8-2l0.1,0.8c1.2-1.1,1.1-2.6,1.1-2.6l0.4,1
		c0,0,2-3.1-1.2-6.8c0,0-0.2,0.3-0.6,0.9c0.8,1.9,0.8,3.6-0.1,4.6c-0.1,0.1-0.1,0.1-0.2,0.2c0.7-1,0.7-2.6,0-4.4
		c-0.4,0.5-0.8,1.1-1.4,1.9c0.4,1.8,0.1,3.5-0.9,4.9c-0.1,0.1-0.1,0.1-0.2,0.2c0.9-1.3,1.1-3,0.7-4.6c-0.5,0.6-1.1,1.3-1.9,2.1
		c0.2,1.2-0.1,2.4-0.8,3.3c0,0.1-0.1,0.1-0.1,0.1c0.7-0.9,0.9-2,0.7-3.1c-0.9,0.9-2,2-3.3,3c1-1,1.9-2.1,2.8-3
		c-1.2-0.1-2.4,0.3-3.2,1.1c0-0.1,0.1-0.1,0.1-0.2c0.8-0.9,2-1.4,3.3-1.3c0.6-0.7,1.2-1.5,1.8-2.1c-1.8-0.2-3.5,0.2-4.7,1.4
		c0.1-0.1,0.1-0.2,0.2-0.2c1.2-1.3,3-1.8,4.9-1.6c0.5-0.7,1-1.2,1.4-1.7c-1.8-0.4-3.4-0.2-4.2,0.6c0-0.1,0.1-0.1,0.1-0.2
		c0.8-1,2.5-1.2,4.4-0.8c0.6-0.8,0.9-1.3,0.9-1.3c-4.1-2.6-6.9-0.2-6.9-0.2l1,0.2c0,0-1.5,0.1-2.4,1.5l0.8,0c0,0-1.5,1.2-1.7,2.1
		c0,0,1.1-0.1,0.8,0.1c-0.3,0.2-1.1,1-1.3,2.7l0.8-0.3c0,0-0.9,1.1-0.9,2.7c0,0,0.9-0.6,0.8-0.4c-0.6,1.2-0.2,2.6-0.2,2.6
		c0.1,0,1.5,0.2,2.5-0.6c0.2-0.1-0.3,0.8-0.3,0.8c1.6-0.2,2.6-1.3,2.6-1.3l-0.2,0.8C19.7,76.8,20.4,75.9,20.6,75.6z"/>
	<path fill="#679D41" d="M47.8,64c0,0,0-0.7,0-0.6c0.4,0.6,1.3,1.1,1.4,1c0.1,0,0.5-1,0.4-1.6c0-0.2,0.4,0.4,0.4,0.4
		c0.4-1.1,0.1-2,0.1-2l0.4,0.4c0.3-1.1,0-1.8-0.2-2c-0.1-0.2,0.5,0.2,0.5,0.2c0-0.7-0.6-1.8-0.6-1.8l0.5,0.2
		c-0.3-1.1-1.2-1.6-1.2-1.6l0.7,0.1c0,0-1.2-2.3-4.5-1.6c-0.2,1.7,0.1,3.6,1,5.5c0.3,0.7,0.7,1.3,1.1,1.9c-0.6-0.7-1.1-1.6-1.5-2.5
		c-0.7-1.6-1.1-3.1-1.1-4.6c-2.5,1.5-2,3.8-2,3.8l0.5-0.5c0,0-0.4,0.9,0,2l0.3-0.5c0,0,0.2,1.3,0.7,1.8c0,0,0.3-0.7,0.3-0.5
		c0,0.2,0.3,1,1.2,1.7l0.1-0.6C46.4,62.5,46.8,63.4,47.8,64z"/>
	<path fill="#679D41" d="M19.8,85.1c0,0.2-0.1,0.9,0.4,1.7l0.3-0.4c0,0,0,0.8,0.6,1.6c0,0,0.2-0.6,0.2-0.5c0.1,0.6,0.7,1.3,0.8,1.2
		c0.1,0,0.7-0.6,0.9-1.2c0-0.1,0.2,0.5,0.2,0.5c0.7-0.7,0.7-1.6,0.7-1.6l0.2,0.5c0.6-0.8,0.6-1.5,0.5-1.7c0-0.2,0.4,0.3,0.4,0.3
		c0.2-0.5,0.1-1.6,0.1-1.6l0.4,0.3c0.1-1-0.5-1.6-0.5-1.6l0.5,0.3c0,0-0.2-2.2-3.1-2.7c-0.7,1.3-1,3-0.9,4.7c0,0.6,0.1,1.3,0.3,1.8
		c-0.2-0.8-0.4-1.6-0.4-2.5c-0.1-1.5,0.1-2.9,0.5-4.1c-2.5,0.5-2.8,2.4-2.8,2.4l0.6-0.3c0,0-0.7,0.6-0.6,1.6l0.4-0.3
		c0,0-0.2,1.1,0,1.6C19.4,85.3,19.9,84.9,19.8,85.1z"/>
	<path fill="#679D41" d="M28.7,47.1c0.4,1.1,1.3,1.5,1.3,1.5l-0.6,0c0.6,1,1.3,1.3,1.5,1.4c0.2,0.1-0.5,0.2-0.5,0.2
		c0.4,0.5,1.7,0.9,1.7,0.9l-0.5,0.2c1,0.6,1.9,0.3,1.9,0.3l-0.6,0.4c0,0,2.2,0.7,4-1.5c-1.4-0.3-3-0.8-4.4-1.8
		c-0.8-0.5-1.6-1.1-2.2-1.8c0.5,0.5,1.1,0.9,1.7,1.3c1.7,1.1,3.6,1.7,5.3,1.8c1.1-3.2-1-4.7-1-4.7l0,0.7c0,0-0.3-1-1.4-1.4l0.1,0.6
		c0,0-1-0.8-1.7-0.8c0,0,0.3,0.7,0.1,0.5c-0.2-0.1-0.9-0.5-2-0.4l0.3,0.5c0,0-0.9-0.4-2-0.1c0,0,0.5,0.5,0.4,0.5
		c-0.6-0.2-1.7,0.1-1.7,0.2c-0.1,0,0.3,1.1,0.8,1.5C29.4,47.3,28.7,47.1,28.7,47.1z"/>
	<path fill="#5D9641" d="M40.1,62.3c0-0.1,0-0.2,0.1-0.3c0.1-0.3,0.2-0.6,0.2-0.9c1.8-6.3,6.4-11,11-14.3c-0.9-0.1-1.9-0.2-3-0.8
		c0,0,0.9-0.5,1.2-0.8c-0.1-0.1-0.2-0.1-0.3-0.2c-0.3,0-0.6,0-0.8-0.1c-0.1,0.1-0.1,0.1-0.2,0.2c0,0,0,0,0,0
		c-6.8,5.5-10.3,9-19.9,11c-0.2,0.1-0.5,0.1-0.7,0.2c-0.9,1.1-1.1,1.1-0.6,1.6c0.3-0.1,0.6-0.1,0.9-0.2c5.2-1.1,8.6-1.7,14.5-5.5
		c-1.1,2-2,4.2-2.5,6.6c-0.2,0.8-0.3,1.7-0.4,2.5c0,0.1,0,0.2,0,0.3C39.5,61.9,39.8,62.1,40.1,62.3z"/>
	<circle fill="#5F473B" cx="48.6" cy="12.8" r="2.1"/>
	<path fill="#5F473B" d="M77.3,16.8c1,0.3,2-0.4,2.3-1.4c0.3-1-0.4-2-1.4-2.3c-1-0.2-2,0.4-2.3,1.4C75.7,15.5,76.3,16.5,77.3,16.8z"
		/>
	<path fill="#679D41" d="M67.2,24.5c0.2,0.2,0.3,0.4,0.5,0.6c0,0-0.3-0.5-0.9-1.4c-3.1-0.2-5.4-1.2-6.3-3.1c0-0.1-0.1-0.2-0.1-0.3
		c0.9,1.6,3.1,2.6,6,2.8c-0.5-0.8-1-1.9-1.7-3.2c-2.7-0.6-4.9-2.1-6.1-4.4c-0.1-0.1-0.1-0.3-0.2-0.4c1.2,2.1,3.3,3.4,5.8,4
		c-0.5-1.1-1.1-2.4-1.6-3.8c-1.8-0.5-3.2-1.6-3.9-3.2c0-0.1-0.1-0.2-0.1-0.3c0.8,1.5,2.1,2.5,3.8,3c-0.7-1.9-1.4-4-2.1-6.4
		c0.8,2,1.6,3.9,2.4,5.8c0.9-1.6,1.1-3.4,0.5-5c0.1,0.1,0.1,0.2,0.1,0.3c0.8,1.7,0.6,3.6-0.4,5.3c0.6,1.4,1.2,2.6,1.8,3.8
		c1.4-2.3,1.9-4.9,1.1-7.3c0.1,0.1,0.1,0.3,0.2,0.4c1,2.5,0.6,5.2-0.9,7.7c0.6,1.1,1.1,2.1,1.5,3c1.7-2.2,2.5-4.4,1.9-6.2
		c0.1,0.1,0.1,0.2,0.2,0.3c0.8,1.8,0.1,4.1-1.7,6.5c0.7,1.3,1.1,2.1,1.1,2.1c6.2-3.9,4.7-9.2,4.7-9.2l-1,1.3c0,0,0.8-2.1-0.4-4.3
		L71,13.8c0,0-0.7-2.7-1.7-3.7c0,0-0.5,1.5-0.6,1c-0.1-0.5-0.7-2.1-2.8-3.4l-0.1,1.3c0,0-0.9-1.9-3.1-2.9c0,0,0.2,1.6,0,1.3
		c-1.2-1.6-3.4-2-3.4-2c-0.1,0.2-1.2,1.9-0.8,3.8c0.1,0.3-1-0.9-1-0.9c-0.7,2.4,0.1,4.3,0.1,4.3l-1-0.8c-0.4,2.4,0.4,4,0.7,4.4
		c0.3,0.4-1.2-0.3-1.2-0.3c0,1.4,1.6,3.8,1.6,3.8l-1.2-0.3c0.8,2.3,2.9,3.2,2.9,3.2l-1.6-0.1c0,0,2.5,4,8.4,3
		c-0.2-0.2-0.4-0.4-0.6-0.7C65.7,24.1,65.9,24.3,67.2,24.5z"/>
	<path fill="#679D41" d="M49.6,45.1c0.1,0,0.1,0.1,0,0.1c-0.3,0.3-1.2,0.8-1.2,0.8c1.1,0.5,2.2,0.7,3,0.8c1.2,0.1,1.9-0.1,1.9-0.1
		l-1.1,1.1c2.7,0.8,4.7,0.2,5.2,0C58,47.4,57,49,57,49c1.6,0.2,4.6-1.2,4.6-1.2L61,49.1c2.8-0.5,4.1-2.8,4.1-2.8l-0.4,1.8
		c0,0,5.5-2.4,4.9-10.1c-0.3,0.1-0.6,0.2-0.9,0.3c-0.1,0-0.2,0.1-0.3,0.1c0-0.4,0.1-0.7,0.2-1.1c0.1,0,0.2-0.1,0.3-0.1
		c-0.5,0.1-1.2,0.2-2.1,0.4C66,41,64.4,43.4,62.2,44c-0.1,0-0.3,0-0.4,0.1c2-0.8,3.4-3.1,4.2-6.3c-1.1,0.2-2.4,0.5-3.8,0.9
		c-1.1,3.2-3.2,5.6-6.2,6.6c-0.2,0.1-0.3,0.1-0.5,0.1c2.7-1.1,4.7-3.4,5.7-6.4c-1.4,0.4-3,0.8-4.7,1.2c-0.8,2.1-2.4,3.7-4.5,4.3
		c-0.1,0-0.2,0.1-0.4,0.1c1.9-0.7,3.4-2.2,4.2-4.2c-2.2,0.6-4.5,1.4-6.9,2.2c2.6-1.2,5.1-2.1,7.3-2.9c-1.7-1.1-3.6-1.6-5.5-1.2
		c0.1,0,0.2-0.1,0.3-0.1c2-0.6,4-0.1,5.8,1.1c1.7-0.6,3.2-1,4.6-1.4c-2.4-1.9-5.2-2.8-7.9-2.3c0.2-0.1,0.3-0.1,0.5-0.2
		c2.9-0.7,5.9,0.2,8.4,2.2c1.6-0.4,3-0.7,4.1-0.9c-2.3-2.4-4.8-3.7-6.9-3.3c0.1,0,0.2-0.1,0.4-0.1c2.3-0.7,4.9,0.7,7.4,3.3
		c1.2-0.2,1.9-0.2,1.9-0.2c-3.4-7.8-9.8-7-9.8-7l1.3,1.3c0,0-2.3-1.3-5-0.2l1.2,0.8c0,0-3.3,0.3-4.6,1.4c0,0,1.7,0.8,1.1,0.9
		c-0.6,0-2.5,0.5-4.4,2.6l1.5,0.3c0,0-2.3,0.7-3.9,3.1c0,0,1.8,0,1.5,0.2c-2,1.1-2.8,3.4-2.8,3.6c0,0,1.4,1.1,3.1,1.5
		c0.3,0.1,0.5,0.1,0.8,0.1C49.4,45.1,49.5,45.1,49.6,45.1z"/>
	<path fill="#679D41" d="M42,22.9c0.1,0.1,0.6,1.4,1.8,1.9c0.2,0.1-0.8,0.2-0.8,0.2c1,1.3,2.4,1.6,2.4,1.6l-0.8,0.3
		c1.2,1.1,2.3,1.3,2.7,1.3c0.3,0-0.6,0.5-0.6,0.5c0.8,0.5,2.7,0.6,2.7,0.6l-0.6,0.5c1.6,0.5,2.8-0.4,2.8-0.4l-0.7,0.8
		c0,0,3.7,0.2,5.3-4.4c0,0-0.4,0-1.1,0c-1.3,1.6-2.7,2.5-4,2.2c-0.1,0-0.1,0-0.2-0.1c1.2,0.1,2.6-0.7,3.8-2.2
		c-0.6-0.1-1.4-0.1-2.4-0.3c-1.3,1.2-3,1.9-4.7,1.6c-0.1,0-0.2,0-0.3-0.1c1.6,0.1,3.1-0.5,4.4-1.7c-0.8-0.1-1.7-0.3-2.7-0.6
		c-0.9,0.8-2.1,1.1-3.2,0.9c-0.1,0-0.1,0-0.2-0.1c1.1,0.1,2.2-0.2,3-1c-1.3-0.3-2.7-0.8-4.3-1.3c1.4,0.3,2.7,0.6,4,0.9
		c-0.6-1.1-1.4-1.9-2.6-2.2c0.1,0,0.1,0,0.2,0c1.2,0.2,2.2,1.1,2.8,2.2c1,0.2,1.9,0.3,2.7,0.5c-0.7-1.7-2-2.9-3.6-3.4
		c0.1,0,0.2,0,0.3,0c1.7,0.4,3.1,1.7,3.8,3.4c0.8,0.1,1.6,0.2,2.2,0.3c-0.6-1.8-1.5-3-2.7-3.4c0.1,0,0.1,0,0.2,0
		c1.3,0.2,2.3,1.5,2.9,3.4c1,0.1,1.6,0.2,1.6,0.2c0.3-4.9-3.3-6.1-3.3-6.1l0.3,1c0,0-0.8-1.2-2.5-1.4l0.4,0.7c0,0-1.8-0.7-2.7-0.5
		c0,0,0.6,0.8,0.3,0.7c-0.3-0.1-1.4-0.4-2.9,0.2l0.7,0.6c0,0-1.4-0.2-2.8,0.6c0,0,0.9,0.5,0.7,0.5C43,21.8,42,22.9,42,22.9z"/>
	<path fill="#679D41" d="M71.1,47.3c0,0.1,1.1,0,1.6-0.4c0.1-0.1-0.2,0.6-0.2,0.6c1.1-0.2,1.8-0.9,1.8-0.9l-0.1,0.6
		c1.1-0.3,1.6-0.9,1.7-1.1c0.1-0.2,0.1,0.5,0.1,0.5c0.6-0.3,1.2-1.4,1.2-1.4l0.1,0.6c0.8-0.8,0.7-1.8,0.7-1.8l0.3,0.7
		c0,0,1.4-2.2-0.8-4.7c-1.5,0.7-3,1.9-4.2,3.6c-0.4,0.6-0.8,1.2-1.1,1.9c0.4-0.9,0.8-1.7,1.4-2.5c1-1.4,2.2-2.5,3.4-3.3
		c-2.6-1.4-4.3,0.1-4.3,0.1l0.7,0.2c0,0-1,0.1-1.7,1l0.6,0c0,0-1,0.8-1.2,1.5c0,0,0.7-0.1,0.5,0c-0.2,0.1-0.7,0.7-0.9,1.8l0.6-0.2
		c0,0-0.6,0.7-0.6,1.9c0,0,0.6-0.4,0.5-0.3C71,46.2,71,47.3,71.1,47.3z"/>
	<path fill="#679D41" d="M36.5,36c0,0.1,0.9,0.3,1.5,0.2c0.1,0-0.3,0.4-0.3,0.4c1,0.2,1.7-0.1,1.7-0.1l-0.3,0.4
		c1,0.1,1.6-0.3,1.7-0.4c0.1-0.1-0.1,0.5-0.1,0.5c0.6,0,1.5-0.7,1.5-0.7l-0.1,0.5c0.9-0.4,1.2-1.2,1.2-1.2l0,0.6c0,0,1.8-1.3,0.8-4
		c-1.5,0.1-3.1,0.6-4.6,1.6c-0.5,0.4-1,0.7-1.5,1.2c0.6-0.6,1.2-1.1,1.9-1.6c1.2-0.8,2.5-1.3,3.8-1.6c-1.6-1.9-3.5-1.2-3.5-1.2
		l0.5,0.3c0,0-0.9-0.3-1.7,0.3l0.5,0.2c0,0-1.1,0.3-1.4,0.8c0,0,0.6,0.2,0.4,0.2c-0.2,0.1-0.8,0.4-1.3,1.2l0.5,0
		c0,0-0.7,0.4-1.1,1.3c0,0,0.6-0.1,0.5,0C36.8,35.1,36.5,36,36.5,36z"/>
	<path fill="#679D41" d="M74.2,27.3L73.6,27c0,0,0.4,2.2,3.3,2.7c-0.5-1.4-0.8-3-0.7-4.7c0-1,0.2-2,0.4-2.8
		c-0.2,0.7-0.3,1.4-0.3,2.1c-0.1,2.1,0.3,4,1.1,5.5c3.3-0.6,3.5-3.2,3.5-3.2L80.4,27c0,0,0.7-0.8,0.5-1.9l-0.4,0.4
		c0,0,0.2-1.3-0.1-1.9c0,0-0.5,0.6-0.4,0.3c0-0.2,0-1-0.6-1.9L79,22.6c0,0-0.1-1-0.9-1.8c0,0-0.2,0.7-0.2,0.6c-0.2-0.6-1-1.4-1-1.3
		c-0.1,0-0.8,0.8-0.9,1.4c0,0.1-0.3-0.5-0.3-0.5c-0.7,0.9-0.7,1.8-0.7,1.8l-0.3-0.5c-0.6,1-0.5,1.8-0.4,2c0.1,0.2-0.5-0.3-0.5-0.3
		c-0.2,0.6,0.1,1.9,0.1,1.9l-0.4-0.3C73.5,26.6,74.2,27.3,74.2,27.3z"/>
	<path fill="#5D9641" d="M68.3,38.4c0.1,0,0.2-0.1,0.3-0.1c0.3-0.1,0.6-0.2,0.9-0.3c6.3-1.6,12.7,0,17.9,2.4c-0.4-0.8-0.8-1.8-0.9-3
		c0,0,0.9,0.5,1.3,0.6c0-0.1,0-0.2,0-0.3c-0.1-0.3-0.3-0.5-0.4-0.8c-0.1,0-0.2-0.1-0.2-0.1c0,0,0,0,0-0.1c-8.1-3.1-13-4.4-19.5-11.7
		c-0.2-0.2-0.3-0.4-0.5-0.6c-1.4-0.2-1.5-0.4-1.7,0.3c0.2,0.2,0.4,0.4,0.6,0.7c3.6,3.9,5.7,6.6,12,9.8c-2.3,0-4.6,0.4-7,1.1
		c-0.8,0.3-1.6,0.6-2.4,0.9c-0.1,0-0.2,0.1-0.3,0.1C68.4,37.7,68.4,38,68.3,38.4z"/>
	<circle fill="#5F473B" cx="115.5" cy="21" r="2.1"/>
	<path fill="#5F473B" d="M127.7,45.5c-1,0.3-1.6,1.3-1.3,2.3c0.3,1,1.3,1.6,2.3,1.3c1-0.3,1.6-1.3,1.3-2.3
		C129.7,45.8,128.7,45.2,127.7,45.5z"/>
	<path fill="#679D41" d="M114.7,43c-0.1,0.3-0.2,0.5-0.2,0.7c0,0,0.2-0.5,0.7-1.4c-1.4-2.8-1.7-5.3-0.5-7c0.1-0.1,0.2-0.2,0.2-0.3
		c-1,1.6-0.7,4,0.6,6.6c0.5-0.8,1.1-1.8,1.9-3c-0.9-2.6-0.7-5.3,0.8-7.4c0.1-0.1,0.2-0.2,0.3-0.4c-1.2,2.1-1.3,4.6-0.5,7.1
		c0.7-1,1.6-2.1,2.5-3.3c-0.4-1.8-0.2-3.6,0.8-5c0.1-0.1,0.1-0.2,0.2-0.2c-0.9,1.4-1.1,3.1-0.7,4.8c1.3-1.5,2.8-3.2,4.5-5
		c-1.4,1.7-2.6,3.3-3.8,4.9c1.8,0,3.5-0.8,4.6-2.1c-0.1,0.1-0.1,0.2-0.2,0.3c-1.1,1.5-2.9,2.3-4.8,2.3c-0.9,1.2-1.7,2.3-2.4,3.4
		c2.7,0.1,5.2-0.8,6.9-2.7c-0.1,0.1-0.2,0.3-0.3,0.4c-1.6,2.1-4.3,3.1-7.1,3c-0.7,1.1-1.3,2-1.8,2.8c2.8,0.4,5.1-0.1,6.3-1.5
		c-0.1,0.1-0.1,0.2-0.2,0.3c-1.1,1.6-3.5,2.1-6.5,1.8c-0.8,1.3-1.3,2-1.3,2c6.4,3.5,10.3-0.6,10.3-0.6l-1.6-0.2c0,0,2.2-0.4,3.5-2.5
		l-1.2,0.1c0,0,2-2,2.3-3.4c0,0-1.6,0.3-1.2,0c0.4-0.3,1.4-1.7,1.6-4.1l-1.2,0.5c0,0,1.2-1.7,1-4.2c0,0-1.3,1-1.1,0.7
		c0.8-1.8,0-3.9,0-3.9c-0.2,0-2.3-0.1-3.7,1.2c-0.3,0.2,0.3-1.3,0.3-1.3c-2.4,0.6-3.7,2.2-3.7,2.2l0.2-1.3c-2.3,0.9-3.3,2.3-3.5,2.8
		c-0.2,0.5-0.4-1.1-0.4-1.1c-1.2,0.7-2.5,3.3-2.5,3.3l-0.3-1.2c-1.6,1.9-1.3,4.1-1.3,4.1l-0.7-1.4c0,0-2.2,4.2,1.6,8.8
		c0.1-0.3,0.2-0.6,0.3-0.8C114.2,41.5,114.2,41.7,114.7,43z"/>
	<path fill="#679D41" d="M88,38c0.1,0.1,0,0.1-0.1,0.1c-0.4-0.1-1.3-0.6-1.3-0.6c0.1,1.2,0.5,2.2,0.9,3c0.5,1,1.1,1.6,1.1,1.6
		l-1.4-0.4c0.6,2.8,2.1,4.1,2.6,4.4c0.5,0.3-1.4,0.2-1.4,0.2c0.6,1.5,3.4,3.4,3.4,3.4l-1.4,0.1c1.9,2.2,4.5,2.2,4.5,2.2l-1.8,0.6
		c0,0,4.9,3.5,11.2-0.8c-0.2-0.2-0.4-0.5-0.7-0.7c-0.1-0.1-0.2-0.1-0.2-0.2c0.3-0.1,0.7-0.3,1-0.4c0.1,0.1,0.2,0.1,0.2,0.2
		c-0.3-0.4-0.8-0.9-1.4-1.6c-3.3,1-6.1,0.9-7.8-0.7c-0.1-0.1-0.2-0.2-0.3-0.3c1.7,1.4,4.4,1.4,7.5,0.5c-0.7-0.8-1.6-1.8-2.7-2.8
		c-3.3,0.6-6.5,0-8.8-2.1c-0.1-0.1-0.2-0.2-0.4-0.4c2.3,1.8,5.3,2.4,8.4,1.7c-1-1.1-2.2-2.2-3.4-3.4c-2.2,0.3-4.4-0.2-6-1.8
		c-0.1-0.1-0.2-0.2-0.2-0.3c1.5,1.3,3.6,1.8,5.7,1.5c-1.7-1.6-3.4-3.3-5.3-4.9c2.3,1.7,4.4,3.3,6.1,4.8c0.2-2-0.4-3.9-1.7-5.3
		c0.1,0.1,0.2,0.1,0.3,0.2c1.5,1.4,2.1,3.4,1.9,5.6c1.4,1.2,2.5,2.3,3.5,3.3c0.4-3-0.2-5.9-2-8c0.1,0.1,0.3,0.2,0.4,0.4
		c2.1,2.2,2.8,5.2,2.3,8.4c1.2,1.2,2.1,2.3,2.8,3.1c0.9-3.2,0.8-6-0.6-7.7c0.1,0.1,0.2,0.2,0.3,0.2c1.7,1.6,1.9,4.6,0.8,8.1
		c0.8,1,1.1,1.5,1.1,1.5c5.1-6.8,1.1-12,1.1-12l-0.5,1.8c0,0,0-2.6-2.3-4.4l-0.1,1.4c0,0-1.9-2.7-3.5-3.3c0,0,0.1,1.9-0.2,1.4
		c-0.3-0.5-1.7-1.9-4.5-2.5l0.4,1.4c0,0-1.8-1.6-4.7-1.8c0,0,0.9,1.6,0.6,1.4c-1.9-1.2-4.3-0.7-4.5-0.7c0,0-0.3,1.8,0.3,3.5
		c0.1,0.3,0.2,0.5,0.4,0.8C87.9,37.9,87.9,37.9,88,38z"/>
	<path fill="#679D41" d="M100.7,27.1c-0.1,0.9,0.8,2.6,0.8,2.6l-0.8-0.3c0.4,1.6,1.7,2.3,1.7,2.3l-1.1-0.2c0,0,1.7,3.3,6.5,2.3
		c0,0-0.2-0.3-0.5-1c-2-0.3-3.5-1.1-4-2.4c0-0.1,0-0.1-0.1-0.2c0.5,1.1,1.9,1.9,3.8,2.2c-0.3-0.6-0.6-1.3-0.9-2.2
		c-1.8-0.5-3.1-1.6-3.8-3.2c0-0.1-0.1-0.2-0.1-0.3c0.7,1.4,2,2.5,3.7,3c-0.3-0.8-0.6-1.6-0.9-2.6c-1.1-0.4-2-1.2-2.4-2.3
		c0-0.1,0-0.1-0.1-0.2c0.4,1,1.3,1.8,2.4,2.2c-0.4-1.3-0.7-2.7-1-4.3c0.4,1.4,0.8,2.7,1.2,3.9c0.7-1,0.9-2.2,0.6-3.3
		c0,0.1,0.1,0.1,0.1,0.2c0.4,1.2,0.2,2.4-0.5,3.5c0.3,0.9,0.6,1.8,1,2.6c1.1-1.5,1.5-3.2,1.2-4.8c0,0.1,0.1,0.2,0.1,0.3
		c0.5,1.7,0.1,3.5-1.1,5c0.3,0.8,0.6,1.5,0.8,2.1c1.3-1.4,1.9-2.8,1.6-4c0,0.1,0.1,0.1,0.1,0.2c0.4,1.2-0.2,2.7-1.5,4.2
		c0.4,0.9,0.6,1.5,0.6,1.5c4.3-2.2,3.6-5.9,3.6-5.9l-0.7,0.8c0,0,0.6-1.3,0-2.8l-0.4,0.7c0,0-0.3-1.9-0.9-2.6c0,0-0.4,1-0.5,0.7
		c0-0.3-0.4-1.4-1.7-2.4l-0.1,0.9c0,0-0.5-1.3-1.9-2.1c0,0,0.1,1.1-0.1,0.9c-0.7-1.1-2.1-1.5-2.1-1.5c-0.1,0.1-0.9,1.2-0.7,2.5
		c0,0.2-0.6-0.6-0.6-0.6c-0.6,1.5-0.2,2.9-0.2,2.9l-0.6-0.6c-0.4,1.6,0,2.7,0.2,2.9C101.6,27.7,100.7,27.1,100.7,27.1z"/>
	<path fill="#679D41" d="M100.4,61.2c0.2,0-0.4,0.4-0.4,0.4c0.5,0.4,1.8,0.4,1.8,0.4l-0.4,0.4c1.1,0.3,1.9-0.3,1.9-0.3l-0.5,0.6
		c0,0,2.6,0.1,3.6-3.1c-1.4-1-3.2-1.7-5.3-1.9c-0.7-0.1-1.5-0.1-2.2,0c0.9-0.1,1.9-0.1,2.9,0c1.7,0.2,3.2,0.6,4.5,1.3
		c-0.1-2.9-2.3-3.6-2.3-3.6l0.2,0.7c0,0-0.6-0.9-1.7-1l0.3,0.5c0,0-1.2-0.5-1.9-0.3c0,0,0.4,0.6,0.2,0.5c-0.2-0.1-1-0.3-2,0.2
		l0.5,0.4c0,0-0.9-0.1-1.9,0.4c0,0,0.7,0.3,0.5,0.3c-0.7,0-1.6,0.6-1.5,0.7c-0.1,0,0.6,0.9,1.2,1.2c0.1,0.1-0.6,0.1-0.6,0.1
		c0.7,0.9,1.6,1.1,1.6,1.1l-0.6,0.2C99.4,61.1,100.2,61.3,100.4,61.2z"/>
	<path fill="#679D41" d="M89.4,23.4c0.3,0.9,1,1.4,1,1.4l-0.5,0c0.4,0.9,1,1.2,1.2,1.3c0.2,0.1-0.4,0.2-0.4,0.2
		c0.3,0.5,1.4,0.9,1.4,0.9l-0.5,0.1c0.8,0.6,1.7,0.4,1.7,0.4L92.6,28c0,0,2,0.9,3.9-1.3c-0.8-1.2-2-2.4-3.6-3.2
		c-0.6-0.3-1.2-0.5-1.7-0.7c0.8,0.2,1.6,0.5,2.3,0.9c1.3,0.7,2.4,1.5,3.3,2.5c0.8-2.4-0.7-3.6-0.7-3.6l0,0.6c0,0-0.2-0.9-1.1-1.3
		l0.1,0.5c0,0-0.8-0.8-1.4-0.8c0,0,0.2,0.6,0,0.5c-0.1-0.1-0.7-0.5-1.7-0.5l0.2,0.5c0,0-0.7-0.4-1.7-0.3c0,0,0.4,0.5,0.3,0.4
		c-0.5-0.2-1.5,0-1.5,0.1c-0.1,0,0.2,0.9,0.6,1.3C90,23.6,89.4,23.4,89.4,23.4z"/>
	<path fill="#679D41" d="M123.4,49.2c0-0.1-1.1-0.3-1.7-0.1c-0.1,0.1,0.3-0.5,0.3-0.5c-1.1-0.2-1.9,0.3-1.9,0.3l0.3-0.5
		c-1.1,0-1.8,0.5-1.9,0.6c-0.2,0.2,0-0.5,0-0.5c-0.6,0.1-1.6,1-1.6,1l0.1-0.6c-1,0.5-1.2,1.5-1.2,1.5l-0.1-0.7c0,0-1.7,1.5-0.7,4.2
		c0.9-1.1,2.2-2.1,3.7-2.9c0.9-0.5,1.8-0.8,2.7-1c-0.7,0.2-1.3,0.5-2,0.8c-1.8,1-3.3,2.3-4.2,3.7c2.2,2.5,4.5,1.5,4.5,1.5l-0.6-0.4
		c0,0,1,0.2,1.9-0.5l-0.5-0.2c0,0,1.2-0.5,1.6-1c0,0-0.7-0.1-0.5-0.2c0.2-0.1,0.9-0.5,1.4-1.5l-0.6,0c0,0,0.8-0.5,1.1-1.6
		c0,0-0.7,0.2-0.6,0.1C123.2,50.3,123.5,49.2,123.4,49.2z"/>
	<path fill="#5D9641" d="M103.2,50.9c0.1,0.1,0.2,0.1,0.2,0.2c0.2,0.2,0.5,0.4,0.7,0.7c4.6,4.7,6.3,11,6.8,16.7
		c0.5-0.7,1.2-1.5,2.2-2.2c0,0,0,1,0.1,1.4c0.1-0.1,0.2-0.1,0.3-0.2c0.2-0.3,0.3-0.5,0.5-0.7c0-0.1,0-0.2,0-0.2c0,0,0,0,0.1,0
		c-1.4-8.6-2.7-13.5,0.4-22.8c0.1-0.2,0.2-0.5,0.2-0.7c-0.5-1.3-0.4-1.5-1.1-1.3c-0.1,0.3-0.2,0.6-0.3,0.8
		c-1.6,5.1-2.9,8.3-2.4,15.3c-1.2-2-2.7-3.8-4.4-5.5c-0.6-0.6-1.3-1.1-2-1.6c-0.1-0.1-0.2-0.1-0.2-0.2
		C103.9,50.6,103.5,50.8,103.2,50.9z"/>
	<circle fill="#5F473B" cx="141.8" cy="83" r="2.1"/>
	<circle fill="#5F473B" cx="125.4" cy="107.2" r="1.9"/>
	<path fill="#679D41" d="M140,93.4c-0.3-0.1,1.3-0.4,1.3-0.4c-1.7-1.8-3.8-2.1-3.8-2.1l1.2-0.5c-1.9-1.5-3.6-1.7-4.1-1.6
		c-0.5,0.1,0.8-0.9,0.8-0.9c-1.2-0.7-4.1-0.5-4.1-0.5l0.9-0.8c-2.4-0.5-4.2,0.9-4.2,0.9l0.9-1.3c0,0-4.7,0.2-6.8,5.7
		c0.3-0.1,0.6-0.1,0.9-0.2c0.5,0.5,0.3,0.5-0.6,1.6c-0.3,0.1-0.5,0.1-0.8,0.2c0,0,0.6-0.1,1.6-0.1c1.7-2.6,3.8-4.1,5.8-3.9
		c0.1,0,0.2,0.1,0.3,0.1c-1.9,0-3.8,1.4-5.4,3.8c0.9,0,2.1,0,3.6,0.2c1.8-2,4.3-3.2,6.8-3.1c0.1,0,0.3,0,0.4,0.1
		c-2.4,0-4.6,1.1-6.4,3.1c1.2,0.1,2.6,0.3,4.1,0.5c1.3-1.3,3-2,4.7-1.8c0.1,0,0.2,0,0.3,0.1c-1.7-0.1-3.2,0.6-4.5,1.8
		c2,0.3,4.2,0.8,6.6,1.4c-2.1-0.4-4.2-0.6-6.2-0.8c1,1.6,2.4,2.7,4.1,2.9c-0.1,0-0.2,0-0.3,0c-1.9-0.2-3.4-1.3-4.4-3
		c-1.5-0.2-2.9-0.3-4.1-0.4c1.3,2.4,3.3,4.1,5.8,4.6c-0.1,0-0.3,0-0.4,0c-2.6-0.4-4.8-2.1-6.2-4.7c-1.3-0.1-2.4-0.1-3.3-0.2
		c1.1,2.6,2.6,4.3,4.4,4.7c-0.1,0-0.2,0-0.3,0c-2-0.2-3.6-2-4.8-4.7c-1.5-0.1-2.4-0.1-2.4-0.1c0.2,7.3,5.7,8.7,5.7,8.7l-0.6-1.5
		c0,0,1.4,1.7,3.9,1.8l-0.7-1c0,0,2.7,0.8,4.1,0.3c0,0-1.1-1.2-0.6-1c0.5,0.2,2.2,0.4,4.4-0.7l-1.1-0.7c0,0,2.1,0.1,4.1-1.3
		c0,0-1.5-0.6-1.1-0.6c1.9-0.2,3.4-2,3.4-2C142.9,95.8,141.9,94,140,93.4z"/>
	<path fill="#679D41" d="M113.3,67.7c0,0.1-0.1,0-0.1-0.1c-0.1-0.4-0.1-1.4-0.1-1.4c-1,0.7-1.7,1.5-2.2,2.2c-0.6,1-0.9,1.7-0.9,1.7
		l-0.4-1.5c-2.1,1.9-2.5,3.9-2.5,4.5c0,0.6-0.9-1.1-0.9-1.1c-1,1.3-1.3,4.6-1.3,4.6l-0.8-1.2c-1,2.7,0.4,5,0.4,5l-1.4-1.3
		c0,0-0.6,6,6.3,9.3c0.1-0.3,0.2-0.6,0.2-0.9c0-0.1,0-0.2,0.1-0.3c0.3,0.2,0.6,0.4,0.8,0.7c0,0.1,0,0.2,0,0.3c0.2-0.5,0.4-1.1,0.7-2
		c-2.5-2.3-3.8-4.9-3.2-7.1c0-0.1,0.1-0.2,0.1-0.4c-0.3,2.1,0.9,4.5,3.3,6.7c0.3-1,0.7-2.3,1.1-3.7c-2.2-2.5-3.3-5.6-2.6-8.6
		c0-0.2,0.1-0.3,0.1-0.5c-0.4,2.9,0.6,5.8,2.7,8.2c0.4-1.4,0.8-3,1.3-4.7c-1.4-1.8-2-3.9-1.5-6c0-0.1,0.1-0.2,0.1-0.3
		c-0.4,2,0.2,4,1.5,5.7c0.6-2.2,1.1-4.6,1.6-7.1c-0.3,2.9-0.7,5.5-1.1,7.7c1.8-0.9,3.2-2.3,3.8-4.1c0,0.1,0,0.2-0.1,0.4
		c-0.5,2-1.9,3.5-3.8,4.4c-0.3,1.8-0.7,3.3-1.1,4.7c2.8-1.1,5-3.1,5.9-5.7c0,0.2-0.1,0.3-0.1,0.5c-0.8,2.9-3.1,5-6.1,6.2
		c-0.5,1.6-0.9,2.9-1.3,4c3.2-0.8,5.6-2.3,6.3-4.4c0,0.1,0,0.3-0.1,0.4c-0.6,2.3-3.1,3.9-6.6,4.8c-0.5,1.2-0.8,1.8-0.8,1.8
		c8.5,1,10.9-5,10.9-5l-1.8,0.5c0,0,2.2-1.3,2.7-4.2l-1.3,0.6c0,0,1.4-3,1.1-4.7c0,0-1.5,1-1.3,0.5c0.3-0.5,0.8-2.5-0.1-5.2l-1,1.1
		c0,0,0.5-2.4-0.8-4.9c0,0-0.9,1.6-0.9,1.2c0.1-2.3-1.5-4.1-1.7-4.2c0,0-1.7,0.6-2.9,2c-0.2,0.2-0.4,0.5-0.5,0.7
		C113.4,67.6,113.4,67.6,113.3,67.7z"/>
	<path fill="#679D41" d="M129.3,74.1c-0.2,0.3-0.2-0.8-0.2-0.8c-0.9,0.4-1.8,2-1.8,2l-0.1-0.8c-1.2,1.1-1.1,2.6-1.1,2.6l-0.4-1
		c0,0-2,3.1,1.2,6.8c0,0,0.2-0.3,0.6-0.9c-0.8-1.9-0.8-3.6,0.1-4.6c0.1-0.1,0.1-0.1,0.2-0.2c-0.7,1-0.7,2.6,0,4.4
		c0.4-0.5,0.8-1.1,1.4-1.9c-0.4-1.8-0.1-3.5,0.9-4.9c0.1-0.1,0.1-0.1,0.2-0.2c-0.9,1.3-1.1,3-0.7,4.6c0.5-0.6,1.1-1.3,1.9-2.1
		c-0.2-1.2,0.1-2.4,0.8-3.3c0-0.1,0.1-0.1,0.1-0.1c-0.7,0.9-0.9,2-0.7,3.1c0.9-1,2-2,3.3-3.1c-1,1-1.9,2.1-2.8,3
		c1.2,0.1,2.4-0.3,3.2-1.1c0,0.1-0.1,0.1-0.1,0.2c-0.8,0.9-2,1.4-3.3,1.3c-0.6,0.7-1.2,1.5-1.8,2.1c1.8,0.2,3.5-0.2,4.7-1.4
		c-0.1,0.1-0.1,0.2-0.2,0.2c-1.2,1.3-3,1.8-4.9,1.6c-0.5,0.7-1,1.2-1.4,1.7c1.8,0.4,3.4,0.2,4.2-0.6c0,0.1-0.1,0.1-0.1,0.2
		c-0.8,1-2.5,1.2-4.4,0.8c-0.6,0.8-0.9,1.3-0.9,1.3c4.1,2.6,6.9,0.2,6.9,0.2l-1-0.2c0,0,1.5-0.1,2.4-1.5l-0.8,0c0,0,1.5-1.2,1.7-2.1
		c0,0-1.1,0.1-0.8-0.1c0.3-0.2,1.1-1,1.3-2.7l-0.8,0.3c0,0,0.9-1.1,0.9-2.7c0,0-0.9,0.6-0.8,0.4c0.6-1.2,0.2-2.6,0.2-2.6
		c-0.1,0-1.5-0.2-2.5,0.6c-0.2,0.1,0.3-0.8,0.3-0.8c-1.6,0.2-2.6,1.3-2.6,1.3l0.2-0.8C130.2,72.9,129.5,73.8,129.3,74.1z"/>
	<path fill="#679D41" d="M105,87.8c0,0-0.3,0.7-0.3,0.5c0-0.2-0.3-1-1.2-1.7l-0.1,0.6c0,0-0.3-0.9-1.3-1.5c0,0,0,0.7,0,0.6
		c-0.3-0.6-1.3-1.1-1.4-1c-0.1,0-0.5,1-0.4,1.6c0,0.2-0.4-0.4-0.4-0.4c-0.4,1.1-0.1,2-0.1,2L99.3,88c-0.3,1.1,0,1.8,0.1,2
		c0.1,0.2-0.5-0.2-0.5-0.2c0,0.7,0.6,1.8,0.6,1.8L99,91.5c0.3,1.1,1.2,1.6,1.2,1.6l-0.7-0.1c0,0,1.2,2.3,4.5,1.6
		c0.2-1.7-0.1-3.6-1-5.5c-0.3-0.7-0.7-1.3-1.1-1.9c0.6,0.7,1.1,1.6,1.5,2.5c0.7,1.6,1.1,3.1,1.1,4.6c2.4-1.5,2-3.8,2-3.8L106,91
		c0,0,0.4-0.9,0-2l-0.3,0.5C105.7,89.5,105.4,88.3,105,87.8z"/>
	<path fill="#679D41" d="M130,64.6c0-0.2,0.1-0.9-0.4-1.7l-0.3,0.4c0,0,0-0.8-0.6-1.6c0,0-0.2,0.6-0.2,0.5c-0.1-0.6-0.7-1.3-0.8-1.2
		c-0.1,0-0.7,0.6-0.9,1.2c0,0.1-0.2-0.5-0.2-0.5c-0.7,0.7-0.7,1.5-0.7,1.5l-0.2-0.5c-0.6,0.8-0.6,1.5-0.5,1.7c0,0.2-0.4-0.3-0.4-0.3
		c-0.2,0.5-0.1,1.6-0.1,1.6l-0.4-0.3c-0.1,1,0.5,1.6,0.5,1.6l-0.5-0.3c0,0,0.2,2.2,3.1,2.7c0.7-1.3,1-3,0.9-4.7
		c0-0.6-0.1-1.3-0.3-1.9c0.2,0.8,0.4,1.6,0.4,2.5c0.1,1.5-0.1,2.9-0.5,4.1c2.5-0.5,2.8-2.4,2.8-2.4l-0.6,0.3c0,0,0.7-0.6,0.6-1.6
		l-0.4,0.3c0,0,0.2-1.1,0-1.6C130.4,64.3,130,64.8,130,64.6z"/>
	<path fill="#679D41" d="M121.2,102.5c-0.4-1.1-1.3-1.5-1.3-1.5l0.6,0c-0.6-1-1.3-1.3-1.5-1.4c-0.2-0.1,0.5-0.2,0.5-0.2
		c-0.4-0.5-1.7-0.9-1.7-0.9l0.5-0.2c-1-0.6-1.9-0.3-1.9-0.3l0.6-0.4c0,0-2.2-0.7-4,1.5c1.4,0.3,3,0.8,4.4,1.8
		c0.8,0.5,1.6,1.1,2.2,1.8c-0.5-0.5-1.1-0.9-1.7-1.3c-1.7-1.1-3.6-1.7-5.3-1.8c-1.1,3.2,1,4.7,1,4.7l0-0.7c0,0,0.3,1,1.4,1.4
		l-0.1-0.6c0,0,1,0.8,1.7,0.8c0,0-0.3-0.7-0.1-0.5c0.2,0.1,0.9,0.5,2,0.4l-0.3-0.5c0,0,0.9,0.4,2,0.1c0,0-0.5-0.5-0.4-0.5
		c0.6,0.2,1.7-0.1,1.7-0.2c0.1,0-0.3-1.1-0.8-1.5C120.5,102.4,121.2,102.5,121.2,102.5z"/>
	<path fill="#5D9641" d="M123,91.7c-0.3,0.1-0.6,0.1-0.9,0.2c-5.2,1.1-8.6,1.7-14.5,5.5c1.1-2,2-4.2,2.5-6.6
		c0.2-0.8,0.3-1.7,0.4-2.5c0-0.1,0-0.2,0-0.3c-0.3-0.2-0.6-0.5-0.8-0.7c0,0.1,0,0.2-0.1,0.3c-0.1,0.3-0.2,0.6-0.2,0.9
		c-1.8,6.3-6.4,11-11,14.3c0.9,0,1.9,0.2,3,0.7c0,0-0.9,0.5-1.2,0.8c0.1,0.1,0.2,0.1,0.3,0.2c0.3,0,0.6,0,0.8,0.1
		c0.1-0.1,0.1-0.1,0.2-0.2c0,0,0,0,0,0c6.8-5.5,10.3-9,19.9-11c0.3-0.1,0.5-0.1,0.8-0.2C123.2,92.2,123.4,92.2,123,91.7z"/>
	<path fill="#5F473B" d="M102,134.9c-1.1-0.4-2.3,0.1-2.8,1.2s0.1,2.3,1.2,2.8c1.1,0.4,2.3-0.1,2.8-1.2
		C103.7,136.6,103.2,135.3,102,134.9z"/>
	<circle fill="#5F473B" cx="72.1" cy="134.7" r="1.9"/>
	<path fill="#679D41" d="M82.6,125.1c-0.2-0.2-0.3-0.4-0.5-0.6c0,0,0.4,0.5,0.9,1.4c3.1,0.2,5.4,1.2,6.3,3.1c0,0.1,0.1,0.2,0.1,0.3
		c-0.9-1.6-3.1-2.6-6-2.8c0.5,0.8,1,1.9,1.7,3.2c2.7,0.6,4.9,2.1,6.1,4.4c0.1,0.1,0.1,0.3,0.2,0.4c-1.2-2.1-3.3-3.4-5.8-4
		c0.5,1.1,1.1,2.4,1.6,3.8c1.8,0.5,3.2,1.6,3.9,3.2c0,0.1,0.1,0.2,0.1,0.3c-0.8-1.5-2.1-2.5-3.8-2.9c0.7,1.9,1.4,4,2.1,6.4
		c-0.8-2-1.6-3.9-2.4-5.8c-0.9,1.6-1.1,3.4-0.5,5c0-0.1-0.1-0.2-0.1-0.3c-0.8-1.7-0.6-3.6,0.4-5.3c-0.6-1.3-1.2-2.6-1.8-3.8
		c-1.4,2.3-1.9,4.9-1.1,7.3c-0.1-0.1-0.1-0.3-0.2-0.4c-1-2.5-0.6-5.2,1-7.7c-0.6-1.1-1.1-2.1-1.5-3c-1.7,2.2-2.5,4.4-1.9,6.2
		c-0.1-0.1-0.1-0.2-0.2-0.3c-0.8-1.8-0.1-4.1,1.7-6.5c-0.7-1.3-1.1-2.1-1.1-2.1c-6.2,3.9-4.7,9.2-4.7,9.2l1-1.3c0,0-0.8,2.1,0.4,4.3
		l0.5-1.1c0,0,0.7,2.7,1.7,3.7c0,0,0.5-1.5,0.6-1c0.1,0.5,0.7,2.1,2.8,3.4l0.1-1.3c0,0,0.9,1.9,3.1,2.9c0,0-0.2-1.6,0-1.3
		c1.2,1.6,3.4,2,3.4,2c0.1-0.2,1.2-1.9,0.8-3.8c-0.1-0.3,1,0.9,1,0.9c0.7-2.4-0.1-4.3-0.1-4.3l1,0.8c0.4-2.4-0.4-4-0.7-4.4
		c-0.3-0.4,1.2,0.3,1.2,0.3c0-1.4-1.6-3.8-1.6-3.8l1.2,0.3c-0.8-2.3-2.9-3.2-2.9-3.2l1.6,0.1c0,0-2.5-4-8.4-3
		c0.2,0.2,0.4,0.4,0.6,0.7C84.1,125.5,84,125.4,82.6,125.1z"/>
	<path fill="#679D41" d="M100.3,104.5c-0.1,0-0.1-0.1,0-0.1c0.3-0.3,1.2-0.8,1.2-0.8c-1.1-0.5-2.2-0.7-3-0.7
		c-1.2-0.1-1.9,0.1-1.9,0.1l1.1-1.1c-2.7-0.8-4.7-0.2-5.2,0c-0.5,0.3,0.5-1.3,0.5-1.3c-1.6-0.2-4.6,1.2-4.6,1.2l0.6-1.3
		c-2.8,0.5-4.1,2.8-4.1,2.8l0.4-1.8c0,0-5.5,2.4-4.9,10.1c0.3-0.1,0.6-0.2,0.9-0.3c0.1,0,0.2-0.1,0.3-0.1c0,0.4-0.1,0.7-0.2,1.1
		c-0.1,0-0.2,0.1-0.3,0.1c0.5-0.1,1.2-0.2,2-0.4c0.8-3.4,2.3-5.8,4.5-6.4c0.1,0,0.3,0,0.4-0.1c-2,0.8-3.4,3.1-4.2,6.3
		c1.1-0.2,2.4-0.5,3.8-0.9c1.1-3.2,3.2-5.6,6.2-6.6c0.2-0.1,0.3-0.1,0.5-0.1c-2.7,1.1-4.7,3.4-5.7,6.4c1.4-0.4,3-0.8,4.7-1.2
		c0.8-2.1,2.4-3.7,4.5-4.3c0.1,0,0.2-0.1,0.3-0.1c-1.9,0.7-3.4,2.2-4.2,4.2c2.2-0.6,4.6-1.4,6.9-2.2c-2.6,1.2-5.1,2.1-7.3,2.9
		c1.7,1.1,3.6,1.6,5.5,1.2c-0.1,0-0.2,0.1-0.3,0.1c-2,0.6-4,0.1-5.8-1.1c-1.7,0.6-3.3,1-4.6,1.4c2.4,1.9,5.2,2.8,7.9,2.3
		c-0.2,0.1-0.3,0.1-0.5,0.2c-2.9,0.7-5.9-0.2-8.4-2.2c-1.6,0.4-3,0.7-4.1,0.9c2.3,2.4,4.8,3.7,6.9,3.3c-0.1,0-0.2,0.1-0.4,0.1
		c-2.3,0.7-4.9-0.7-7.4-3.3c-1.2,0.2-1.9,0.2-1.9,0.2c3.4,7.8,9.8,7,9.8,7l-1.3-1.3c0,0,2.3,1.3,5,0.2l-1.2-0.8c0,0,3.3-0.3,4.6-1.4
		c0,0-1.7-0.8-1.1-0.9c0.6,0,2.5-0.5,4.4-2.6l-1.5-0.3c0,0,2.3-0.7,3.9-3.1c0,0-1.8,0-1.5-0.2c2-1.1,2.8-3.4,2.8-3.6
		c0,0-1.4-1.1-3.1-1.5c-0.3-0.1-0.5-0.1-0.8-0.1C100.5,104.5,100.4,104.5,100.3,104.5z"/>
	<path fill="#679D41" d="M107.9,126.8c0-0.1-0.6-1.4-1.8-1.9c-0.2-0.1,0.8-0.2,0.8-0.2c-1-1.3-2.4-1.6-2.4-1.6l0.8-0.3
		c-1.2-1.1-2.3-1.3-2.7-1.3c-0.3,0,0.6-0.5,0.6-0.5c-0.8-0.5-2.7-0.6-2.7-0.6l0.6-0.5c-1.6-0.5-2.8,0.4-2.8,0.4l0.7-0.8
		c0,0-3.7-0.2-5.3,4.4c0,0,0.4,0,1.1,0c1.3-1.6,2.7-2.5,4.1-2.2c0.1,0,0.1,0,0.2,0.1c-1.2-0.1-2.6,0.7-3.8,2.2
		c0.6,0.1,1.4,0.1,2.4,0.3c1.3-1.2,3-1.9,4.7-1.6c0.1,0,0.2,0,0.3,0.1c-1.6-0.1-3.1,0.5-4.4,1.7c0.8,0.1,1.7,0.3,2.7,0.6
		c0.9-0.8,2.1-1.1,3.2-0.9c0.1,0,0.1,0,0.2,0c-1.1-0.1-2.2,0.2-3,1c1.3,0.3,2.7,0.8,4.3,1.3c-1.4-0.3-2.7-0.6-4-0.9
		c0.6,1.1,1.4,1.9,2.6,2.2c-0.1,0-0.1,0-0.2,0c-1.2-0.2-2.2-1.1-2.8-2.2c-1-0.2-1.9-0.3-2.7-0.5c0.7,1.7,2,2.9,3.6,3.4
		c-0.1,0-0.2,0-0.3,0c-1.7-0.4-3.1-1.7-3.8-3.4c-0.8-0.1-1.6-0.2-2.2-0.3c0.6,1.8,1.5,3,2.7,3.4c-0.1,0-0.1,0-0.2,0
		c-1.3-0.2-2.3-1.5-2.9-3.4c-1-0.1-1.6-0.2-1.6-0.2c-0.3,4.9,3.3,6.1,3.3,6.1l-0.3-1c0,0,0.8,1.2,2.5,1.4l-0.4-0.7
		c0,0,1.8,0.7,2.7,0.5c0,0-0.6-0.8-0.3-0.7c0.3,0.1,1.4,0.4,2.9-0.2l-0.7-0.6c0,0,1.4,0.2,2.8-0.6c0,0-0.9-0.5-0.7-0.5
		C106.8,127.8,107.9,126.8,107.9,126.8z"/>
	<path fill="#679D41" d="M78.6,104c0.3-0.6,0.3-1.7,0.2-1.7c0-0.1-1.1,0-1.6,0.4c-0.1,0.1,0.2-0.6,0.2-0.6c-1.1,0.2-1.8,0.9-1.8,0.9
		l0.1-0.6c-1.1,0.3-1.6,0.9-1.7,1.1c-0.1,0.2-0.1-0.5-0.1-0.5c-0.6,0.3-1.3,1.4-1.3,1.4l-0.1-0.6c-0.8,0.8-0.7,1.8-0.7,1.8l-0.3-0.7
		c0,0-1.4,2.2,0.8,4.7c1.5-0.7,3-1.9,4.2-3.6c0.4-0.6,0.8-1.2,1.1-1.9c-0.4,0.9-0.8,1.7-1.4,2.5c-1,1.4-2.2,2.5-3.4,3.3
		c2.6,1.4,4.3-0.1,4.3-0.1l-0.7,0c0,0,1,0.1,1.7-0.9h-0.6c0,0,1-0.9,1.2-1.6c0,0-0.7,0-0.5-0.1c0.2-0.1,0.7-0.7,0.9-1.9l-0.6,0.2
		c0,0,0.6-0.7,0.6-1.9C79.1,103.8,78.5,104.2,78.6,104z"/>
	<path fill="#679D41" d="M113.4,113.6c0-0.1-0.9-0.3-1.5-0.2c-0.1,0,0.3-0.4,0.3-0.4c-1-0.2-1.7,0.2-1.7,0.2l0.3-0.4
		c-1-0.1-1.6,0.3-1.7,0.4c-0.2,0.1,0.1-0.5,0.1-0.5c-0.6,0-1.5,0.7-1.5,0.7l0.1-0.5c-0.9,0.4-1.2,1.2-1.2,1.2l0-0.6
		c0,0-1.8,1.3-0.8,4c1.5-0.1,3.1-0.6,4.6-1.6c0.5-0.4,1-0.7,1.5-1.2c-0.6,0.6-1.2,1.1-1.9,1.6c-1.2,0.8-2.5,1.3-3.8,1.6
		c1.6,1.9,3.5,1.2,3.5,1.2l-0.5-0.4c0,0,0.9,0.3,1.7-0.3l-0.5-0.2c0,0,1.1-0.3,1.4-0.8c0,0-0.6-0.2-0.4-0.2c0.2-0.1,0.8-0.4,1.3-1.2
		l-0.5,0c0,0,0.7-0.4,1.1-1.3c0,0-0.6,0.1-0.5,0C113.1,114.6,113.4,113.7,113.4,113.6z"/>
	<path fill="#679D41" d="M75.7,122.3l0.7,0.3c0,0-0.4-2.2-3.3-2.7c0.5,1.4,0.8,3,0.7,4.7c0,1-0.2,1.9-0.4,2.8
		c0.2-0.7,0.3-1.4,0.3-2.1c0.1-2.1-0.3-4-1.1-5.5c-3.3,0.6-3.5,3.2-3.5,3.2l0.6-0.4c0,0-0.7,0.8-0.5,1.9l0.4-0.4
		c0,0-0.2,1.3,0.1,1.9c0,0,0.5-0.6,0.4-0.3c0,0.2,0,1,0.6,1.9l0.3-0.5c0,0,0.1,0.9,0.9,1.8c0,0,0.2-0.7,0.2-0.6c0.2,0.6,1,1.4,1,1.3
		c0.1,0,0.8-0.8,0.9-1.4c0-0.1,0.3,0.5,0.3,0.5c0.7-0.9,0.7-1.9,0.7-1.9l0.3,0.5c0.6-1,0.5-1.8,0.4-2c-0.1-0.2,0.5,0.3,0.5,0.3
		c0.2-0.6-0.1-1.9-0.1-1.9l0.4,0.3C76.4,123,75.7,122.3,75.7,122.3z"/>
	<path fill="#5D9641" d="M81.5,111.3c-0.1,0-0.2,0.1-0.3,0.1c-0.3,0.1-0.6,0.2-0.9,0.3c-6.3,1.6-12.7,0-17.9-2.4
		c-0.1-0.1-0.2-0.1-0.3-0.2c-0.1,0.5-0.1,1.7-0.1,2.6c0,0.1,0,0.2,0,0.3c0,0.3,0,0.5,0,0.7c0.1,0,0.2,0.1,0.3,0.1
		c0.1,0,0.2,0.1,0.2,0.1c0,0,0,0,0,0.1c8.1,3.1,13,4.4,19.5,11.7c0.2,0.2,0.3,0.4,0.5,0.6c1.4,0.2,1.5,0.4,1.7-0.3
		c-0.2-0.2-0.4-0.4-0.6-0.7c-3.6-3.9-5.7-6.6-12-9.8c2.3,0,4.6-0.4,7-1.1c0.8-0.3,1.6-0.6,2.4-0.9c0.1,0,0.2-0.1,0.3-0.1
		C81.4,112,81.5,111.6,81.5,111.3z"/>
</g>
</svg>
