<?xml version="1.0" encoding="utf-8"?>
<!-- Generator: Adobe Illustrator 18.1.0, SVG Export Plug-In . SVG Version: 6.00 Build 0)  -->
<svg version="1.1" id="Layer_1" xmlns="http://www.w3.org/2000/svg" xmlns:xlink="http://www.w3.org/1999/xlink" x="0px" y="0px"
	 viewBox="0 0 1000 1000" enable-background="new 0 0 1000 1000" xml:space="preserve">
<g>
	<g>
		<path fill="#1A0000" d="M569.2,853c-194.9,0-353-158-353-353c0-194.9,158-353,353-353c126.8,0,237.9,66.9,300.1,167.2
			C800.8,176.1,658.4,81,493.7,81c-231.4,0-419,187.6-419,419s187.6,419,419,419c164.6,0,307-95,375.5-233.2
			C807,786.1,695.9,853,569.2,853z"/>
	</g>
	<g>
		<path fill="#F5EB13" d="M507.3,307.1c-106.5,0-192.8,86.4-192.8,192.9c0,106.5,86.3,192.9,192.8,192.9
			c106.5,0,192.9-86.3,192.9-192.9C700.2,393.5,613.8,307.1,507.3,307.1z"/>
	</g>
	<g>
		<path fill="#1A0000" d="M558.9,217.4c-110.5,0-206.2,63.5-252.6,155.9c41.8-65.3,114.9-108.6,198.2-108.6
			c129.9,0,235.3,105.3,235.3,235.3S634.4,735.3,504.5,735.3c-83.3,0-156.4-43.3-198.2-108.6c46.5,92.4,142.1,155.9,252.6,155.9
			c156.1,0,282.6-126.5,282.6-282.6C841.5,343.9,715,217.4,558.9,217.4z"/>
	</g>
	<path fill="#1A0000" d="M325.2,381.9c0,10.4-8.4,18.8-18.8,18.8c-10.4,0-18.8-8.4-18.8-18.8c0-10.4,8.4-18.8,18.8-18.8
		C316.8,363.1,325.2,371.6,325.2,381.9z"/>
	<path fill="#1A0000" d="M895.9,318.4c0,13.7-11.1,24.7-24.7,24.7c-13.7,0-24.8-11.1-24.8-24.7c0-13.7,11.1-24.8,24.8-24.8
		C884.9,293.6,895.9,304.7,895.9,318.4z"/>
	<path fill="#F5EB13" d="M914.9,379.6c0,8.5-6.9,15.5-15.5,15.5c-8.5,0-15.5-6.9-15.5-15.5c0-8.5,6.9-15.5,15.5-15.5
		C908,364.2,914.9,371.1,914.9,379.6z"/>
	<path fill="#1A0000" d="M299,439.7c0,8.1-6.5,14.6-14.6,14.6c-8.1,0-14.6-6.5-14.6-14.6c0-8.1,6.5-14.6,14.6-14.6
		C292.4,425.1,299,431.7,299,439.7z"/>
	<path fill="#F5EB13" d="M925.2,431.5c0,6.4-5.2,11.6-11.6,11.6c-6.4,0-11.6-5.2-11.6-11.6s5.2-11.6,11.6-11.6
		C920,419.9,925.2,425.1,925.2,431.5z"/>
	<path fill="#1A0000" d="M286.7,489.2c0,5.2-4.2,9.4-9.4,9.4c-5.2,0-9.4-4.2-9.4-9.4c0-5.2,4.2-9.4,9.4-9.4
		C282.5,479.8,286.7,484,286.7,489.2z"/>
</g>
</svg>
