<?xml version="1.0" encoding="utf-8"?>
<!-- Generator: Adobe Illustrator 18.1.0, SVG Export Plug-In . SVG Version: 6.00 Build 0)  -->
<svg version="1.0" id="Layer_1" xmlns="http://www.w3.org/2000/svg" xmlns:xlink="http://www.w3.org/1999/xlink" x="0px" y="0px"
	 viewBox="0 0 150 150" enable-background="new 0 0 150 150" xml:space="preserve">
<g>
	<path fill="none" d="M32.5,30.6c-0.2-0.2-0.5-0.5-0.9-0.9c-0.4,0.4-0.9,0.8-1.5,1c0.8,0.3,1.5,0.5,1.9,0.6l1.4,0.4L32.5,30.6z"/>
	<path fill="none" d="M57.6,17.7l0.6,1.3l0.2-1.4c0-0.2,0.1-0.7,0.1-1.3c-0.6-0.1-1.2-0.2-1.7-0.5C57.1,16.7,57.4,17.4,57.6,17.7z"
		/>
	<path fill="none" d="M25.5,28c0-0.4,0.1-0.8,0.3-1.2c0.3-0.5,0.7-0.8,1.3-0.9c1.6-0.3,3.8,1,4.8,1.7c0.9-1.2,1.6-2.6,2.2-4
		c-3.3-0.7-6-0.9-8.2-0.1c-2.1,0.7-3.2,2.6-3.1,4.1c0,0.1,0,0.1,0,0.2c0.2,1.4,1.4,2.3,3.4,2.5c0.3,0,0.5,0,0.8,0
		C26.2,29.7,25.5,28.9,25.5,28z"/>
	<path fill="none" d="M57.1,11.5c-0.2,0-0.4,0.1-0.5,0.3c-0.5,0.5-0.5,1.5-0.2,2.6c0.7,0.5,1.5,0.7,2.3,0.9c0-1.4-0.1-2.9-0.7-3.5
		C57.7,11.5,57.4,11.4,57.1,11.5z"/>
	<path fill="none" d="M27.6,27.2c-0.3,0-0.6,0.2-0.8,0.5c-0.1,0.2-0.1,0.4-0.1,0.6c0,0.7,0.9,1.3,1.9,1.8c0.8-0.3,1.5-0.7,2.1-1.2
		C29.7,28,28.5,27.1,27.6,27.2z"/>
	<path fill="none" d="M59.6,8c-1.9-1.2-4-0.9-5.1,0.2c0,0-0.1,0.1-0.1,0.1c-1,1-0.9,2.6,0.2,4.3c0.1,0.2,0.3,0.4,0.5,0.6
		c0-1,0.3-2,0.9-2.6c0.3-0.3,0.7-0.5,1.1-0.5c0.5-0.1,1,0.1,1.5,0.4c1.2,1,1.6,3.6,1.7,4.8c1.5,0,3-0.4,4.5-0.8
		C63.2,11.5,61.6,9.3,59.6,8z"/>
	<path fill="#3A102A" d="M32.8,28.4c1-1.4,1.7-2.9,2.3-4.4c2,0.5,4.1,1.2,6.5,2c6.5,2.3,11.7,0.7,12.8-1.3c0.1-0.1,0.1-0.2,0.1-0.3
		c0-0.2-0.1-0.4-0.3-0.5c-0.3-0.2-0.6-0.1-0.8,0.2c-0.8,1.4-5.4,2.8-11.4,0.7c-2.3-0.8-4.5-1.5-6.4-2c0.1-0.2,0.1-0.3,0.2-0.5
		c1.4-3.2,8.3-6.1,8.4-6.1c0.3-0.1,0.4-0.5,0.3-0.7c-0.1-0.3-0.5-0.4-0.7-0.3c-0.3,0.1-7.4,3.1-9,6.7c-0.1,0.2-0.2,0.4-0.3,0.7
		c-3.6-0.8-6.5-1-9-0.1c-2.4,0.8-4.1,3.2-3.9,5.5c0.2,2,1.9,3.3,4.5,3.5c0.8,0.1,1.5,0,2.2-0.1c0.7,0.4,1.3,0.7,1.4,0.8l25.2,15.3
		c1-0.6,2-1.2,3.1-1.8L32.8,28.4z M26.2,30.4c-2-0.2-3.3-1.1-3.4-2.5c0-0.1,0-0.1,0-0.2c-0.1-1.5,1-3.4,3.1-4.1
		c2.2-0.8,4.9-0.6,8.2,0.1c-0.6,1.4-1.3,2.8-2.2,4c-1-0.7-3.3-2-4.8-1.7c-0.5,0.1-1,0.4-1.3,0.9c-0.2,0.4-0.3,0.8-0.3,1.2
		c0.1,0.9,0.7,1.7,1.5,2.4C26.7,30.4,26.4,30.4,26.2,30.4z M28.7,30.1c-1-0.5-1.9-1.1-1.9-1.8c0-0.2,0-0.4,0.1-0.6
		c0.2-0.3,0.4-0.5,0.8-0.5c0.8-0.1,2.1,0.8,3.1,1.7C30.2,29.4,29.5,29.9,28.7,30.1z M30.2,30.7c0.5-0.3,1-0.6,1.5-1
		c0.4,0.4,0.8,0.7,0.9,0.9l1,1.1l-1.4-0.4C31.7,31.2,30.9,31,30.2,30.7z"/>
	<path fill="#3A102A" d="M60.3,16.4c1.7-0.1,3.4-0.5,4.9-0.9c0.8,1.8,1.7,4,2.5,6.3c2.3,6.5,6.8,9.6,9,9.2c0.1,0,0.2-0.1,0.3-0.1
		c0.1-0.1,0.2-0.3,0.2-0.5c-0.1-0.3-0.3-0.5-0.7-0.5c-1.6,0.3-5.6-2.4-7.7-8.4c-0.8-2.3-1.6-4.4-2.5-6.3c0.2,0,0.3-0.1,0.5-0.1
		c3.4-0.9,9.9,2.7,10,2.7c0.3,0.2,0.6,0.1,0.8-0.2c0.2-0.3,0-0.6-0.2-0.8c-0.3-0.2-7-3.8-10.8-2.8c-0.2,0.1-0.5,0.1-0.7,0.2
		c-1.6-3.3-3.3-5.7-5.6-7.1c-2.2-1.4-5.1-1.2-6.7,0.4c-1.4,1.4-1.4,3.6,0.1,5.7c0.5,0.7,0.9,1.2,1.5,1.6c0.1,0.8,0.2,1.4,0.3,1.6
		l3.8,28.7c1-0.5,2.1-0.9,3.1-1.3L60.3,16.4z M58.4,17.6l-0.2,1.4l-0.6-1.3c-0.2-0.4-0.5-1.1-0.8-1.9c0.6,0.2,1.1,0.4,1.7,0.5
		C58.5,16.9,58.4,17.4,58.4,17.6z M58.6,15.2c-0.8-0.1-1.5-0.4-2.3-0.9c-0.3-1.1-0.3-2.1,0.2-2.6c0.1-0.1,0.3-0.2,0.5-0.3
		c0.3-0.1,0.6,0,0.9,0.3C58.6,12.3,58.7,13.8,58.6,15.2z M58.6,10.5c-0.4-0.4-0.9-0.5-1.5-0.4c-0.4,0.1-0.8,0.2-1.1,0.5
		c-0.7,0.6-0.9,1.6-0.9,2.6c-0.2-0.2-0.3-0.4-0.5-0.6c-1.1-1.7-1.2-3.2-0.2-4.3c0,0,0.1-0.1,0.1-0.1c1.1-1,3.3-1.3,5.1-0.2
		c2,1.3,3.6,3.4,5,6.5c-1.4,0.4-3,0.8-4.5,0.8C60.1,14.1,59.8,11.5,58.6,10.5z"/>
	<path fill="#3A102A" d="M78.7,107.5L78.7,107.5c0.4-0.2,0.8-0.4,1.2-0.5c0.4-0.2,0.9-0.3,1.3-0.5c1-0.3,1.8-0.6,2.5-1
		c0,0,0.1-0.3,0.1-0.4c0.3-0.8,0.4-1.6,0.4-2.4c-0.2,0.1-0.4,0.1-0.6,0.1l-0.7,0.2c-2.2,0.5-4.3,1-6.4,1.2
		c-5.8,0.8-12.3,0.6-18.5-0.5c-1.5-0.3-2.8-0.5-4.1-0.9l-0.3-0.1c-1.5-1.1-2.9-2.4-4.2-3.7l-2.3-2.4l3.1,1.2
		c7.2,2.8,16.1,3.7,25.1,2.7c2.1-0.2,4.2-0.7,6.6-1.2c0.2-0.1,0.5-0.1,0.8-0.1c0.3-0.1,0.9-0.1,1.2-0.3c0-0.2-0.1-0.5-0.2-0.9
		l-0.1-0.4c-0.5-2.1-1.3-4.1-2-5.9c-0.1-0.1-0.1-0.3-0.2-0.5c-0.1-0.3-0.2-0.4-0.2-0.6c0,0-0.1,0-0.1,0l-0.1,0
		c-0.7,0.2-1.3,0.4-2,0.6c-2.2,0.6-4.7,1.1-7.5,1.5c-7.7,1-15.4,0.5-21.9-1.6c-2.3-0.7-4.5-1.6-6.6-2.7l-0.3-0.1l-0.1-0.3
		c-0.4-1.1-0.8-2.2-1-3.3L41.2,83l1.6,1c0.4,0.2,0.8,0.5,1.2,0.7l0.2,0.1c5.3,3,12.2,4.7,19.7,4.7c2.4,0,4.9-0.2,7.4-0.5
		c2-0.3,4.1-0.7,6.4-1.3c0.2-0.1,0.5-0.1,0.7-0.2c0.4-0.1,0.8-0.2,1.1-0.3c-0.2-0.4-0.4-0.8-0.7-1.2l-0.2-0.3
		c-1.2-2.1-2.5-4.1-3.9-5.8l-0.3-0.4c-0.5-0.6-1-1.2-1.5-1.5c0,0-0.3,0.1-0.9,0.2c-0.3,0.1-0.6,0.2-0.8,0.2
		c-0.8,0.1-1.6,0.3-2.4,0.5c-1.4,0.3-3,0.6-4.6,0.8c-1.9,0.2-3.6,0.4-5.4,0.4c-3.5-0.1-7.1-1.1-11.5-2.9c-1.9-0.8-3.8-2-5.7-3.6
		c-0.1-0.1-0.3-0.3-0.5-0.5l-0.2-0.3l0-0.4c0.2-1.3,0.4-2.6,0.7-3.9l1.5,0.2c0,0.2,0,0.4,0,0.5c0.2,1,1.4,1.7,2.4,2.4
		c0,0,0.1,0,0.1,0c0-0.1,0-0.2,0.1-0.3c0-0.2,0.1-0.4,0.1-0.5c0.5-2.2,1.4-4.5,2.6-7c0.2-0.5,0.4-0.9,0.7-1.4l0.1-0.2
		c1.1-2.3,2.2-4.7,3.6-6.9c1.7-2.7,3.8-5.3,6.7-8.3l0.2-0.2c1.8-0.9,3.7-1.5,5.7-2l2.7-0.7l-2.2,2.2c-0.3,0.2-0.5,0.5-0.7,0.7
		c-5.6,4.8-9.9,11-13.3,18.8c-0.8,2-1.8,4.2-2.3,6.5c-0.1,0.2-0.1,0.5-0.2,0.8c-0.1,0.2-0.1,0.4-0.2,0.6c0.2,0.1,0.4,0.2,0.8,0.3
		c0.2,0.1,0.4,0.2,0.5,0.2c1.6,0.7,3.4,1.2,5.3,1.6c0.1,0,0.3,0.1,0.4,0.1l0.2,0c0.2,0.1,0.4,0.1,0.6,0.1l0-0.2
		c0.4-1.1,0.7-2.2,1.1-3.3c0.3-1,0.7-1.9,1-2.8c0.2-0.6,0.4-1,0.6-1.5c1.3-3.5,2.5-6.4,4.1-9.3c3.1-5.7,7.2-10.5,12-13.9
		c0.4-0.3,0.9-0.6,1.3-0.9l0.2-0.2l0.3,0c1.2,0.2,2.4,0.4,3.6,0.7l2.1,0.5l-2,0.9c-1.6,0.7-3,1.7-3.9,2.4
		c-6.7,4.9-10.6,11.9-12.6,17c-1.2,2.9-2.5,6.1-3.5,9.3c-0.1,0.3-0.2,0.6-0.4,1c0,0.1-0.1,0.2-0.1,0.4c0.5,0,1.1-0.1,1.6-0.2
		c0.3-0.1,0.6-0.1,1-0.1l0.4-0.1c1.9-0.3,3.8-0.5,5.6-0.9c0.3-0.1,0.6-0.1,1-0.2c0.4-0.1,1.4-0.2,1.6-0.4c0.1-0.1,0.2-0.6,0.2-0.8
		c0.1-0.3,0.2-0.6,0.2-0.8l0.3-0.7c0.5-1.3,1.1-2.9,1.8-4.3c1.9-4.2,4.6-8.1,8-11.6c2.2-2.3,5-4.2,7.6-5.3c0.7-0.3,1.3-0.5,2-0.7
		l0.4-0.1l0.3,0.2c0.9,0.7,1.8,1.4,2.6,2.2l3.5,3.2l-4.4-2c-0.2-0.1-0.3-0.1-0.3-0.1c-0.7,0.1-1.5,0.4-2.2,0.7
		c0.2,0.2,0.3,0.3,0.4,0.4c1.4,1.5,2.6,3,3.7,4.5l0.1,0.1c1.8,2.5,3.8,5,5.4,7.7c1.5,2.6,2.8,5.6,4,9.1c0.1,0.4,0.3,0.9,0.4,1.3
		l0,0.1l0,0.1c-0.1,2.6-0.5,5.1-1.1,7.5l-1.1,4l-0.4-4.1c0-0.3-0.1-0.7-0.1-1.1c-0.3-2.1-0.6-4.2-1.2-6.3
		c-1.7-5.5-4.8-10.3-7.3-13.9c-1.8-2.5-3.4-4.6-5.1-6.4c-0.1-0.1-0.2-0.3-0.4-0.4c-0.4-0.4-0.6-0.7-0.8-0.8
		c-0.2,0.1-0.5,0.4-0.7,0.6c-0.2,0.2-0.3,0.3-0.5,0.4c-1.4,1-2.6,2.3-4.1,4.1c-0.1,0.1-0.2,0.3-0.4,0.4c-0.4,0.4-0.6,0.6-0.7,0.7
		c0.1,0.1,0.4,0.3,0.7,0.6c0.2,0.2,0.4,0.4,0.6,0.5c1.6,1.5,3,3.1,4.3,4.7c3.8,4.7,8,10.3,10,16.9c0.3,1,0.6,2,0.8,2.9
		c0.2,0.2,0.3,0.4,0.4,0.7c1.3,3.5,1.4,7.2,0.5,10.6c5.3-6.1,8.5-14,8.5-22.7c0-19-15.4-34.5-34.5-34.5c-0.1,0-0.3,0-0.4,0
		c-3.8,0-7.4,0.7-10.8,1.9c-1.1,0.4-2.1,0.8-3.1,1.3c-0.4,0.2-0.8,0.4-1.2,0.6c-1.1,0.5-2.1,1.1-3.1,1.8c-9.5,6.1-15.8,16.8-15.8,29
		c0,14.9,9.5,27.6,22.7,32.4c2.8-1.7,6.7-1.8,9.6-1.8C73.8,107,76.2,107.3,78.7,107.5z"/>
	<path fill="#3A102A" d="M88,103.5c-0.1,0.8-0.2,1.6-0.4,2.3l-0.1,0.3l-0.3,0.1c-0.4,0.2-0.9,0.4-1.4,0.6
		c6.2-1.7,10.1-6.4,10.2-12.2c-0.2-1.7-0.5-3.4-0.9-5c0,0,0-0.1,0-0.1c-0.1-0.2-0.1-0.4-0.1-0.5c-0.9-3.7-2.2-7-4-10
		c-1.1-1.9-2.4-3.6-3.5-5.2c-1.9-2.7-4.1-5.1-6.1-7.3c-0.4-0.5-0.8-0.9-1.2-1.2l-0.8,1.4c-1,1.6-1.7,3.5-2.4,5.3l-0.5,1.2
		c-0.1,0.2-0.2,0.5-0.3,0.7c-0.1,0.3-0.5,1-0.5,1.3c0,0,0.4,0.3,0.5,0.5c0.2,0.2,0.4,0.4,0.6,0.6c1.1,1.3,2.2,2.7,3.1,4
		c2.8,4.5,5.9,9.8,7.4,15.8C87.9,98.6,88.2,101.2,88,103.5z"/>
	<path fill="#7D4169" d="M125.4,139.8c-10.1-0.7-20.3-0.3-30.4-1.8c-1.1-0.2-9.8-1.4-8-3.6c1.2-1.5,3.8-2,5.6-2.4
		c2.7-0.6,5.4-1,8.1-1.6c2.8-0.6,8.3-2.1,7.4-6.1c-0.7-3-4.6-3.5-7.1-3.8c-10.2-1.2-20.6,0.1-30.8-1.4c-1.9-0.3-3.9-0.7-5.5-1.6
		c-1.3-0.7-2.3-3-1.6-4.4c0.8-1.5,4-1.7,5.4-1.9c2.8-0.3,5.6-0.2,8.4,0c5.8,0.3,10.9,0.3,16-2.9c3.5-2.2,5.7-5.5,6.6-9.1
		c0.9-3.4,0.7-7.1-0.5-10.6c-0.1-0.3-0.2-0.5-0.4-0.7C98.3,87,98.1,86,97.8,85c-2-6.5-6.1-12.2-10-16.9c-1.3-1.6-2.7-3.1-4.3-4.7
		c-0.1-0.1-0.3-0.3-0.6-0.5c-0.3-0.3-0.5-0.4-0.7-0.6c0.1-0.1,0.3-0.4,0.7-0.7c0.2-0.2,0.3-0.3,0.4-0.4c1.5-1.8,2.8-3,4.1-4.1
		c0.1-0.1,0.3-0.2,0.5-0.4c0.2-0.2,0.5-0.4,0.7-0.6c0.1,0.1,0.4,0.4,0.8,0.8c0.1,0.2,0.3,0.3,0.4,0.4c1.7,1.8,3.4,3.9,5.1,6.4
		c2.5,3.6,5.6,8.4,7.3,13.9c0.6,2.1,1,4.2,1.2,6.3c0,0.4,0.1,0.7,0.1,1.1l0.4,4.1l1.1-4c0.7-2.5,1-5,1.1-7.5l0-0.1l0-0.1
		c-0.1-0.4-0.2-0.9-0.4-1.3c-1.2-3.5-2.5-6.6-4-9.1c-1.6-2.8-3.5-5.3-5.4-7.7l-0.1-0.1c-1.1-1.5-2.3-2.9-3.7-4.5
		c-0.1-0.1-0.2-0.2-0.4-0.4c0.7-0.3,1.5-0.6,2.2-0.7c0,0,0.1,0,0.3,0.1l4.4,2l-3.5-3.2c-0.8-0.8-1.7-1.5-2.6-2.2l-0.3-0.2l-0.4,0.1
		c-0.6,0.2-1.3,0.4-2,0.7c-2.7,1.1-5.4,3.1-7.6,5.3c-3.4,3.5-6.1,7.4-8,11.6c-0.7,1.5-1.3,3-1.8,4.3l-0.3,0.7
		c-0.1,0.2-0.2,0.5-0.2,0.8c-0.1,0.2-0.2,0.7-0.2,0.8c-0.2,0.2-1.2,0.3-1.6,0.4c-0.4,0-0.7,0.1-1,0.2c-1.8,0.4-3.7,0.7-5.6,0.9
		l-0.4,0.1c-0.3,0-0.6,0.1-1,0.1c-0.5,0.1-1,0.2-1.6,0.2c0-0.1,0.1-0.2,0.1-0.4c0.1-0.3,0.3-0.7,0.4-1c1-3.2,2.3-6.5,3.5-9.3
		c2.1-5,5.9-12.1,12.6-17c0.9-0.7,2.3-1.7,3.9-2.4l2-0.9l-2.1-0.5c-1.2-0.3-2.4-0.5-3.6-0.7l-0.3,0l-0.2,0.2
		c-0.4,0.3-0.9,0.6-1.3,0.9c-4.8,3.4-8.9,8.2-12,13.9c-1.6,2.9-2.8,5.8-4.1,9.3c-0.2,0.5-0.4,0.9-0.6,1.5c-0.4,0.9-0.7,1.8-1,2.8
		c-0.4,1.1-0.7,2.2-1.1,3.3l0,0.2c-0.2,0-0.4-0.1-0.6-0.1l-0.2,0c-0.2,0-0.3-0.1-0.4-0.1c-2-0.3-3.8-0.9-5.3-1.6
		c-0.1-0.1-0.3-0.1-0.5-0.2c-0.4-0.1-0.6-0.2-0.8-0.3c0.1-0.2,0.2-0.5,0.2-0.6c0.1-0.3,0.2-0.6,0.2-0.8c0.5-2.2,1.5-4.5,2.3-6.5
		C55,58,59.4,51.8,65,47c0.2-0.2,0.5-0.4,0.7-0.7l2.2-2.2l-2.7,0.7c-1.9,0.5-3.8,1.2-5.7,2l-0.2,0.2c-2.9,3-5,5.6-6.7,8.3
		c-1.4,2.2-2.5,4.6-3.6,6.9L49,62.5c-0.2,0.5-0.4,0.9-0.7,1.4c-1.2,2.5-2,4.8-2.6,7c0,0.1-0.1,0.3-0.1,0.5c0,0.1,0,0.2-0.1,0.3
		c0,0,0,0-0.1,0c-1-0.7-2.1-1.5-2.4-2.4c0-0.1,0-0.3,0-0.5l-1.5-0.2c-0.3,1.3-0.6,2.6-0.7,3.9l0,0.4l0.2,0.3
		c0.2,0.2,0.4,0.4,0.5,0.5c1.9,1.6,3.8,2.8,5.7,3.6c4.3,1.9,8,2.8,11.5,2.9c1.8,0.1,3.5-0.1,5.4-0.4c1.6-0.2,3.2-0.5,4.6-0.8
		c0.8-0.2,1.6-0.3,2.4-0.5c0.2,0,0.5-0.1,0.8-0.2c0.6-0.2,0.9-0.2,0.9-0.2c0.5,0.3,1,0.9,1.5,1.5l0.3,0.4c1.4,1.7,2.7,3.6,3.9,5.8
		l0.2,0.3c0.2,0.4,0.4,0.8,0.7,1.2c-0.4,0.1-0.8,0.2-1.1,0.3c-0.3,0.1-0.5,0.1-0.7,0.2c-2.3,0.6-4.4,1-6.4,1.3
		c-2.5,0.3-5,0.5-7.4,0.5c-7.6,0-14.4-1.6-19.7-4.7L44,84.7c-0.4-0.2-0.8-0.5-1.2-0.7l-1.6-1l0.5,1.9c0.3,1.1,0.6,2.2,1,3.3l0.1,0.3
		l0.3,0.1c2.1,1.1,4.3,2,6.6,2.7c6.6,2.1,14.2,2.6,21.9,1.6c2.8-0.4,5.3-0.9,7.5-1.5c0.7-0.2,1.3-0.4,2-0.6l0.1,0c0,0,0.1,0,0.1,0
		c0.1,0.1,0.1,0.3,0.2,0.6c0.1,0.2,0.1,0.4,0.2,0.5c0.7,1.8,1.6,3.9,2,5.9l0.1,0.4c0.1,0.4,0.2,0.7,0.2,0.9
		c-0.3,0.1-0.9,0.2-1.2,0.3c-0.3,0-0.5,0.1-0.8,0.1c-2.3,0.5-4.4,1-6.6,1.2c-8.9,1-17.9,0.1-25.1-2.7l-3.1-1.2l2.3,2.4
		c1.3,1.4,2.7,2.6,4.2,3.7l0.3,0.1c1.3,0.3,2.6,0.6,4.1,0.9c6.1,1.1,12.6,1.2,18.5,0.5c2-0.3,4.2-0.7,6.4-1.2l0.7-0.2
		c0.2,0,0.4-0.1,0.6-0.1c0,0.8-0.1,1.6-0.4,2.4c0,0.1-0.1,0.3-0.1,0.4c-0.7,0.4-1.5,0.7-2.5,1c-0.4,0.1-0.9,0.3-1.3,0.5
		c-0.4,0.2-0.8,0.3-1.2,0.5l0,0.1c-2.5-0.1-4.9-0.4-7.3-0.4c-2.9,0-6.9,0.2-9.6,1.8c-0.8,0.5-1.5,1.1-2,1.9c-2.1,3-0.6,7.8,2.3,9.8
		c3.3,2.3,7.8,2.6,11.6,2.9c5.5,0.5,11,0.4,16.5,0.5c4.3,0.1,8.9-0.1,13,1c0.1,0,0.4,0.1,0.5,0.2c-1.5,1.1-4.3,1.3-5.9,1.7
		c-4.6,0.9-11.7,1.3-14.4,5.8c-2.8,4.6,2.4,7.4,6,8.4c11.6,3.2,24.1,2,36.1,2.9C128,144,128,140,125.4,139.8z M79.9,80.3
		c-0.9-1.4-1.9-2.8-3.1-4c-0.2-0.2-0.4-0.4-0.6-0.6c-0.1-0.1-0.5-0.4-0.5-0.5c0-0.2,0.3-1,0.5-1.3c0.1-0.3,0.3-0.5,0.3-0.7l0.5-1.2
		c0.7-1.8,1.4-3.6,2.4-5.3l0.8-1.4c0.4,0.3,0.7,0.7,1.2,1.2c2,2.2,4.1,4.6,6.1,7.3c1.1,1.5,2.4,3.3,3.5,5.2c1.7,3,3.1,6.3,4,10
		c0,0.2,0,0.3,0.1,0.5c0,0,0,0.1,0,0.1c0.4,1.6,0.7,3.3,0.9,5c0,5.8-4,10.5-10.2,12.2c0.5-0.2,0.9-0.4,1.4-0.6l0.3-0.1l0.1-0.3
		c0.2-0.8,0.4-1.6,0.4-2.3c0.2-2.3,0-4.9-0.7-7.4C85.8,90.2,82.8,84.8,79.9,80.3z"/>
</g>
</svg>
