<?xml version="1.0" encoding="utf-8"?>
<!-- Generator: Adobe Illustrator 18.1.0, SVG Export Plug-In . SVG Version: 6.00 Build 0)  -->
<svg version="1.1" id="Layer_1" xmlns="http://www.w3.org/2000/svg" xmlns:xlink="http://www.w3.org/1999/xlink" x="0px" y="0px"
	 viewBox="0 0 2000 2000" enable-background="new 0 0 2000 2000" xml:space="preserve">
<g>
	<g>
		<path fill="#00545A" d="M1057.6,875.8c22-28.2,45.5-55.8,71.1-83.4l0,0c0.1-0.1,0.2-0.2,0.3-0.3c4.2-4.5,8.4-9,12.7-13.6
			c0,0,0.1-0.1,0.1-0.1l0,0c10.8-11.3,21.9-22.6,33.5-34c61.9-60.6,149.9-103.9,235.1-118.8c5.7-1,11.5-1.7,17.2-2.2
			c-76.2-152.4-252.3-259.2-457.3-259.2c-206.1,0-382.9,107.7-458.5,261.4c35.5,7.6,74.6,15.3,118.2,22.8
			C860.5,688.1,991.8,798.9,1057.6,875.8z"/>
	</g>
	<g>
		<path fill="#003A4D" d="M1658.1,705.3c-8.9-1.9-27-2.9-33.8-7.7c-14.9-10.4-19.8-29.9-35.2-40.9c-15.6-11.1-36.2-18.5-54.8-22.8
			c-35.1-8-71-13.7-106.8-10.5c-5.7,0.5-11.5,1.2-17.2,2.2c-85.2,14.8-173.1,58.2-235.1,118.8c-11.6,11.4-22.7,22.7-33.5,34
			c21.5,31.3,131.8,190.1,218.8,279.6c18.2,18.7,35.4,34.5,50.5,45.4l131.1-35.8c9.4-50.9,11.8-83.9,11.8-83.9
			c0.3-2.1,0.9-4.4,1.5-6.8c0.2-0.6,0.3-1.3,0.5-2c0.5-2,1.2-4.2,1.8-6.4c0.2-0.5,0.3-1,0.5-1.6c0.9-2.8,1.9-5.6,3-8.6
			c0.2-0.5,0.4-1.1,0.6-1.6c1-2.6,2-5.2,3.1-8c0.3-0.7,0.5-1.4,0.8-2.1c2.7-6.6,5.7-13.6,9-20.8c0.2-0.5,0.4-0.9,0.6-1.4
			c29.8-65.4,79.3-148.2,79.3-148.2l75.8-54.3C1706.4,716.5,1682.3,710.5,1658.1,705.3z M1470.5,765.5c-1.3,0-2.6-0.1-3.8-0.3
			c-8.5-1.5-15.2-8.8-15.5-17.8c-0.2-7.9,4.4-14.7,11.2-17.7c2.1-0.9,4.4-1.5,6.8-1.6c10.3-0.3,18.9,7.7,19.3,18.1
			C1488.9,756.5,1480.8,765.1,1470.5,765.5z M1274.3,1140.8l114.3-31.2c-12.8-10.4-26.6-23.3-40.9-38.1
			c-86.3-88.5-192.1-240.1-219-279.1c-25.6,27.7-49.1,55.3-71.1,83.4c-65.8-76.9-197-187.7-427.7-227.4
			c-43.5-7.5-82.7-15.1-118.2-22.8c-263.9-56.8-316-113.6-316-113.6s92.9,420.7,381.7,601.3c-2.2-0.4-4.4-0.7-6.6-1.1
			c67.1,37.7,154.3,75.5,250.5,89c103.5,14.6,217.4,1,327.9-70.9c22-14.3,43.9-30.9,65.6-50.1c0,0-10.9,14.6-31.8,35.5
			c-29,29-77.4,70-142.8,100.8c-126.7,59.6-317.3,80.6-555.2-99.1c-12.7-9.6-25.6-19.8-38.6-30.6c0,0-0.1-0.1-0.1-0.1L79.8,913.4
			l30.9,289.1c0,0,163.4-20.6,284.6,43.9c105,174.8,300.8,399.2,610.4,389.1c145.4-4.7,252.4-60.9,331.3-138.4
			c-16.2-5.5-29.3-17.9-33.9-34.8l-69.9-255.6c-4.6-16.8,0.3-34,11.4-47l-1.6-0.6c2.4-2.9,5-5.7,8.2-8.4
			c48.5,19.2,160.8,63.7,241.7,95.8c0,0,0,0,0,0c-79.9-31.7-190.3-75.4-239.7-95C1259.2,1146.7,1266.3,1143,1274.3,1140.8z"/>
	</g>
	<g>
		<path fill="#00545A" d="M1918.5,1294.1l-69.8-255.6c-5.2-19-21-32.2-40.1-36.4l-161.6,215.5l1.6-2.1l258.2,126
			C1918.1,1328.6,1923.2,1311.1,1918.5,1294.1z M1338.2,1497.5l0.1-0.1c-0.3-0.1-0.7-0.2-1-0.3
			C1337.6,1497.2,1337.9,1497.4,1338.2,1497.5z M1642.4,1223.7l-54.1,72.2l-92.8-36.8l-20.6,31.2l-133.5,202.3l-3.1,4.8
			c10.4,3.3,22,3.8,33.6,0.7l505.6-138.1c7.9-2.2,14.9-5.8,20.9-10.4l-256.3-125.1L1642.4,1223.7z M1328.1,1493.2
			c0.4,0.3,0.9,0.4,1.4,0.6c-0.4-0.2-0.9-0.5-1.3-0.7L1328.1,1493.2z M1244.6,1159.6c-11.1,13-16,30.2-11.4,47l69.9,255.6
			c3.7,13.7,13.1,24.4,25.1,30.9l157.1-238.1L1244.6,1159.6z M1329.4,1493.8c2.4,1.2,4.9,2.3,7.5,3.2c0.1,0,0.2,0,0.3,0.1
			c0,0-0.2-0.1-0.3-0.1C1334.4,1496.1,1331.9,1495,1329.4,1493.8z"/>
	</g>
	<g>
		<path fill="#FFFFFF" d="M1469.3,728.2c-2.4,0.1-4.7,0.7-6.8,1.6c-6.8,3-11.5,9.8-11.2,17.7c0.3,9,6.9,16.3,15.5,17.8
			c1.2,0.2,2.5,0.3,3.8,0.3c10.3-0.3,18.4-9,18.1-19.3C1488.3,735.9,1479.7,727.8,1469.3,728.2z"/>
	</g>
	<g>
		<path fill="#006663" d="M1779.8,1002.7l-225.1,61.5l31.6-162.7c-3.8,7.8-7.5,15.5-10.9,23c-0.2,0.4-0.4,0.9-0.6,1.4
			c-3.3,7.2-6.3,14.2-9,20.8c-0.3,0.7-0.6,1.4-0.8,2.1c-1.1,2.7-2.1,5.4-3.1,8c-0.2,0.5-0.4,1.1-0.6,1.6c-1.1,3-2.1,5.9-3,8.6
			c-0.1,0.5-0.3,1-0.5,1.6c-0.7,2.2-1.3,4.3-1.8,6.4c-0.2,0.7-0.4,1.3-0.5,2c-0.6,2.4-1.1,4.7-1.5,6.8c0,0,0,0.1,0,0.4
			c0,0.3-0.1,0.7-0.1,1.3c-0.6,7.3-3.4,37.9-11.6,82.2l-131.1,35.8c-15.1-10.9-32.3-26.6-50.5-45.4
			c-87-89.6-197.3-248.4-218.8-279.6c-0.1,0-0.1,0.1-0.1,0.1c-4.3,4.5-8.5,9-12.7,13.6c-0.1,0.1-0.2,0.2-0.3,0.3
			c26.8,39,132.7,190.6,219,279.1c14.3,14.7,28.1,27.6,40.9,38.1l-114.3,31.2c-8,2.2-15.1,5.9-21.2,10.6
			c49.5,19.6,159.9,63.3,239.7,95c50.9,20.1,89.4,35.4,91.9,36.4c2.6-3.5,76.7-102.4,143.3-191.1c25.3-33.7,49.5-66,68.2-91
			C1790.7,1000.7,1785.3,1001.2,1779.8,1002.7z"/>
	</g>
</g>
</svg>
