<?xml version="1.0" encoding="utf-8"?>
<!-- Generator: Adobe Illustrator 18.1.0, SVG Export Plug-In . SVG Version: 6.00 Build 0)  -->
<svg version="1.1" id="Layer_1" xmlns="http://www.w3.org/2000/svg" xmlns:xlink="http://www.w3.org/1999/xlink" x="0px" y="0px"
	 viewBox="0 0 1500 1500" enable-background="new 0 0 1500 1500" xml:space="preserve">
<g>
	<path fill="#D3EBF7" d="M1449,999c-5.5-116.8-104.7-206.9-221.4-201.4c-37.1,1.8-71.5,13-101,31.2
		c-53.8-73.1-140.2-120.2-236.6-120.7c-41.3-121.8-159.3-206.8-294.2-200.4c-136.1,6.4-246.3,103.8-274.7,230.6
		c-134.3,33.4-230.8,157.7-224,301.2c3.3,68.9,29.9,131.2,71.8,179.6c-2.7-12.8-4.5-25.9-5.1-39.3c-5.6-117.8,73.7-220,184-247.4
		c23.4-104.1,113.9-184.1,225.6-189.4c110.8-5.3,207.7,64.5,241.6,164.5c79.2,0.4,150.2,39.1,194.3,99.2c24.2-15,52.5-24.2,83-25.6
		c95.9-4.5,177.3,69.5,181.9,165.4c1.2,25.7-3.4,50.3-12.4,72.8C1371.6,1206.7,1454.3,1111,1449,999z"/>
	<path fill="#6CAB36" d="M50.7,1274.1c0,0,537.5-236.7,1305.2-51.2c0,0-80,35.2-399.9,38.4c0,0,185.5-54.4-22.4-51.2
		C725.8,1213.3,380.2,1187.7,50.7,1274.1z"/>
	<path fill="#27628E" d="M899.9,726.6c-11.6-36.9-22.9-66.8-35.4-92.1c-2.3-7.8-6.3-17.5-12.3-29.5
		c-36.4-72.7-82.6-124.1-116.7-155.2c21.5-9.6,52.7-25,92.7-48.5c77.7-45.6-13.2-153.4-72.8-202l-1.6-2.5l-0.7,0.6
		c-1.7-1.4-3.4-2.7-5-3.9c0,0,1.4,1.8,3.7,5L617,314.6c-13.8-1.5-28.7,1.6-41.8,10c-19.3,12.2-30.1,32.3-30.2,52l-253.3,218
		c0,0-10.8,43.1,14.1,48.1c24.9,5,12.7-59.5,12.7-59.5l227.2-197.5c1.1,6.5,3.4,12.9,7.1,18.7c16.4,25.9,52.9,32.1,81.6,13.9
		c28.7-18.2,38.7-53.9,22.4-79.7c-7.2-11.4-18.4-19-31.1-22.4l129.8-112.8c22.9,31.8,90.7,131.3,57.3,151.4
		c-21,12.7-87.2,39.6-130.8,58.1c-4.6,0.2-12.6,2.3-31.8,10c-32.1,12.8-38.7,29.8-38.7,29.8c-11.9,55.4,34.4,107.5,34.4,107.5
		l0.6,0.2c9.5,15.9,21.7,32.9,37.7,50.5c79.2,87.1,68.9,119,68.6,131.1c-0.3,12.2,1.3,167.9-242.4,430.7
		c0,0,215.5-161.8,293.4-322.2c-5.2,187-77.4,412.8-78.2,419.1C724.7,1276.9,949.5,884.7,899.9,726.6z"/>
	<path fill="#D8D9DB" d="M972.6,214.3c-28-42.2-88.4-57.9-166.4-49.9c65.5-2.3,115.9,14.2,140.8,51.7
		c64.9,97.7-68.5,300.5-298,452.8c-130.5,86.6-263.9,138.3-366.7,148.8c105.6-3.7,250.7-56.5,392.3-150.5
		C904.1,514.8,1037.5,312.1,972.6,214.3z M916.7,227.9c-25.5-38.5-80.6-52.8-151.8-45.5c59.8-2.1,105.8,13,128.4,47.2
		c59.2,89.3-62.6,274.4-272.1,413.5C502.1,722,380.3,769.2,286.4,778.8c96.4-3.4,228.8-51.6,358.1-137.4
		C854.1,502.2,975.9,317.1,916.7,227.9z"/>
</g>
</svg>
