<?xml version="1.0" encoding="utf-8"?>
<!-- Generator: Adobe Illustrator 18.1.0, SVG Export Plug-In . SVG Version: 6.00 Build 0)  -->
<svg version="1.0" id="Layer_1" xmlns="http://www.w3.org/2000/svg" xmlns:xlink="http://www.w3.org/1999/xlink" x="0px" y="0px"
	 viewBox="0 0 150 150" enable-background="new 0 0 150 150" xml:space="preserve">
<g>
	<path fill="#231F20" d="M135.1-2.2L135.1-2.2L135.1-2.2z"/>
	<g>
		<path fill="#00A69C" d="M101.7,126.9c-0.3,0-0.7-0.1-1-0.2c-0.9-0.4-1.5-1.3-1.5-2.3v-11.2H66.8L47.7,113l-10.9,8.4
			c-0.4,0.3-1.5,1.1-2.9,2.1L75,147.3l62.3-36V94.2l-33.9,32C102.9,126.7,102.3,126.9,101.7,126.9z"/>
		<path fill="#00A69C" d="M33.7,117.5l11.5-9c0.5-0.4,1-0.5,1.6-0.5l20,0.2h34.8c0.7,0,1.3,0.3,1.8,0.7c0.5,0.5,0.7,1.1,0.7,1.8v7.9
			l27.9-26.3l-27.9-26.3v9.5h0v5.8h-3.9c0,0-0.1,0-0.1,0H51v12.6c0,1-0.6,1.9-1.5,2.3c-0.3,0.1-0.7,0.2-1,0.2
			c-0.6,0-1.3-0.2-1.7-0.7L12.7,63.5h0v47.9l16.9,9.8C30.7,120,32,118.8,33.7,117.5z"/>
		<path fill="#F15B29" d="M46.7,27.6c0.7-0.7,1.8-0.9,2.7-0.5c0.9,0.4,1.5,1.3,1.5,2.3v12.7h63l8.4-7.9c0.3-0.3,1.3-1.1,2.5-2
			L75,3.4l-62.3,36v20.5l0,0L46.7,27.6z"/>
		<path fill="#F15B29" d="M116.7,46.5c-0.5,0.4-1.1,0.7-1.7,0.7H48.5c-0.7,0-1.3-0.3-1.8-0.7c-0.5-0.5-0.7-1.1-0.7-1.8v-9.4
			L18.1,61.6L45.9,88v-9.2c0,0,0,0,0,0v-9.3c0-1.4,1.1-2.5,2.5-2.5S51,68,51,69.4v6.7h48.2V60.1c0-1,0.6-1.9,1.5-2.3
			c0.9-0.4,2-0.2,2.7,0.5l33.9,32V39.3l-8.6-5c-1.3,1.7-2.5,3.1-2.9,3.5L116.7,46.5z"/>
	</g>
</g>
</svg>
