<?xml version="1.0" encoding="utf-8"?>
<!-- Generator: Adobe Illustrator 18.1.0, SVG Export Plug-In . SVG Version: 6.00 Build 0)  -->
<svg version="1.1" id="Layer_1" xmlns="http://www.w3.org/2000/svg" xmlns:xlink="http://www.w3.org/1999/xlink" x="0px" y="0px"
	 viewBox="0 0 150 150" enable-background="new 0 0 150 150" xml:space="preserve">
<g>
	<path fill="#EF7622" d="M101.5,112.6c-1.3,0.8-2.6,1.6-3.9,2.6C98.9,114.4,100.2,113.5,101.5,112.6z"/>
	<path fill="#EF7622" d="M62.7,82.6c0.4,0.3,0.8,0.7,1.1,1.1l7.8-4.2c-0.9-1.5-2.1-3-3.6-4.1c-6-4.6-14.7-3.5-19.4,2.6
		c-4.6,6-3.5,14.7,2.6,19.4c6,4.6,14.7,3.5,19.4-2.6C73.2,91.2,74,86.9,73,83l-8.1,3.6c0.1,1.4-0.2,2.8-1.1,3.9
		c-1.9,2.5-5.5,3-7.9,1c-2.5-1.9-2.9-5.5-1-7.9C56.7,81.2,60.2,80.7,62.7,82.6z"/>
	<path fill="#EF7622" d="M73.5,28.4c-25.8,0-46.7,21-46.7,46.7c0,25.8,21,46.7,46.7,46.7c7.8,0,15.2-1.9,21.6-5.3
		c-2.3-1.8-5-3.9-6.2-4.8c-2.4-1.8-0.7-12.2,0.1-18.6c0.8-6.4-1.7-17.5-1.7-17.5s0,0,0,0L86,75.6c3.5,13-1.1,20.7-1.1,20.7
		s-0.7-0.4-1.6-1.1c1.7-4.1,2.4-11.5-0.3-18.5l-7,4.6c0.1,0.3,0.2,0.5,0.2,0.8l0.7-0.2c0.2,0.8,0.3,1.6,0.4,2.4l-0.8,0.1
		c0.1,0.8,0.1,1.5,0.1,2.3l0.8,0c0,0.8-0.1,1.6-0.2,2.4L76.4,89c-0.1,0.8-0.3,1.5-0.5,2.2l0.8,0.2c-0.2,0.8-0.5,1.5-0.8,2.3
		l-0.8-0.4c-0.3,0.7-0.7,1.4-1.1,2l0.7,0.5c-0.3,0.5-0.7,1-1,1.5c-0.5,0.6-1,1.2-1.6,1.8l-0.7-0.7c-0.5,0.5-1.1,1-1.7,1.5l0.6,0.8
		c-0.6,0.5-1.3,0.9-2,1.3l-0.5-0.8c-0.7,0.4-1.4,0.7-2.1,1l0.4,0.9c-0.7,0.3-1.5,0.5-2.3,0.7l-0.2-1c-0.7,0.2-1.5,0.3-2.2,0.4l0.1,1
		c-0.8,0.1-1.6,0.1-2.4,0.1l0-1c-0.8,0-1.5-0.1-2.3-0.2l-0.2,1c-0.8-0.1-1.6-0.3-2.3-0.5l0.3-1c-0.7-0.2-1.4-0.5-2.1-0.8l-0.4,0.9
		c-0.7-0.3-1.4-0.7-2.1-1.1l0.5-0.8c-0.5-0.3-0.9-0.6-1.4-0.9c-0.2-0.1-0.3-0.3-0.5-0.4l-0.6,0.7c-0.6-0.5-1.2-1.1-1.7-1.7l0.7-0.6
		c-0.5-0.6-1-1.1-1.4-1.8l-0.8,0.5c-0.5-0.7-0.9-1.3-1.2-2.1l0.8-0.4c-0.4-0.7-0.7-1.4-0.9-2.1l-0.8,0.3c-0.3-0.7-0.5-1.5-0.6-2.3
		l0.8-0.2c-0.2-0.7-0.3-1.5-0.3-2.3l-0.8,0.1c-0.1-0.8-0.1-1.6,0-2.4l0.8,0.1c0-0.8,0.1-1.5,0.3-2.3l-0.8-0.2
		c0.2-0.8,0.4-1.6,0.6-2.3l0.7,0.3c0.2-0.7,0.5-1.4,0.9-2.1l-0.6-0.3c0.4-0.7,0.8-1.4,1.2-2.1l0.6,0.4c0.2-0.3,0.4-0.6,0.6-0.9
		c0.3-0.3,0.5-0.7,0.8-1l-0.5-0.5c0.5-0.6,1.1-1.2,1.7-1.7l0.4,0.5c0.6-0.5,1.2-1,1.9-1.4L50,71.4c0.7-0.4,1.4-0.8,2.1-1.1l0.3,0.6
		c0.7-0.3,1.4-0.6,2.2-0.8l-0.2-0.6c0.8-0.2,1.5-0.4,2.3-0.5l0.1,0.6c0.8-0.1,1.5-0.2,2.3-0.2l0-0.6c0.8,0,1.6,0,2.4,0.1l-0.1,0.6
		c0.8,0.1,1.5,0.2,2.3,0.4l0.1-0.6c0.8,0.2,1.5,0.4,2.3,0.7l-0.2,0.6c0.7,0.3,1.4,0.6,2.1,1l0.3-0.5c0.7,0.4,1.4,0.8,2,1.3l-0.4,0.5
		c0,0,0,0,0,0c0.6,0.5,1.2,1,1.7,1.5l0.5-0.5c0.6,0.6,1.1,1.2,1.6,1.8L73.2,76c0.5,0.6,0.9,1.2,1.3,1.9l7.2-3.9
		c-0.2-0.3-0.4-0.7-0.6-1C76.2,65,61.6,61,61.6,61S79.2,56.7,84.8,72l5.3-3.7l-3.9-0.9c0,0-1.7-1.3-2.3-1.8
		c6.8-7.6,22.7-11.1,24.8-11.4c2.1-0.3-0.4,2.4-1.4,2.5c-1,0.1-12.2,5.2-12.5,6.2c-0.2,0.5,0.2,1.2,0.6,1.8
		c4.4-2.8,9.3-5.3,10.8-4.2c1.4,0.9,1.8,1.4,1.8,1.4l-1.6,1.2l5.8,4.5l-1.8,2.4l-4.9-3.6l-1.3,1.1c0,0,3.5,2.2,4.8,4.7
		c1.3,2.5-2.7,6.6-2.7,6.6l-1.5-1.2l-2,2.6c0,0-2.7,10.2,7.3,17.8c0.9,0.7,1.9,1.3,2.9,1.9c0.3-0.5,0.6-0.9,0.9-1.4
		c-0.6-0.3-1.1-0.6-1.6-1c-10.6-7-7.5-18.4-6.9-17.9c0.6,0.5,3.4,2.6,3.4,2.6s1.4,3.4,7.4,8c0.4,0.3,0.8,0.6,1.2,0.8
		c1.8-5,2.8-10.3,2.8-15.9C120.3,49.4,99.3,28.4,73.5,28.4z M39.8,69.2l0.5,2.9l-2.6-1.4l-2.6,1.4l0.5-2.9l-2.1-2.1l2.9-0.4l1.3-2.7
		l1.3,2.7l2.9,0.4L39.8,69.2z M50.4,53.4L47.8,52l-2.6,1.4l0.5-2.9l-2.1-2.1l2.9-0.4l1.3-2.7l1.3,2.7l2.9,0.4l-2.1,2.1L50.4,53.4z
		 M71,38.6l-1,2.8l-1.6-2.5l-3-0.1l1.9-2.3l-0.8-2.9l2.8,1.1l2.5-1.6l-0.2,3l2.3,1.9L71,38.6z M95.1,46l-2.5-1.6l-2.7,1.2l0.8-2.9
		l-1.9-2.3l3-0.2l1.5-2.5l1.1,2.8l2.9,0.7L94.8,43L95.1,46z"/>
	<polygon fill="#8B2A1C" points="37.7,64 36.4,66.7 33.4,67.1 35.6,69.2 35.1,72.1 37.7,70.7 40.3,72.1 39.8,69.2 42,67.1 39,66.7 	
		"/>
	<polygon fill="#8B2A1C" points="49.1,47.9 47.8,45.3 46.5,47.9 43.5,48.4 45.6,50.5 45.1,53.4 47.8,52 50.4,53.4 49.9,50.5 
		52,48.4 	"/>
	<polygon fill="#8B2A1C" points="71.8,33 69.3,34.7 66.5,33.6 67.3,36.4 65.4,38.7 68.4,38.9 70,41.4 71,38.6 73.9,37.9 71.6,36 	
		"/>
	<polygon fill="#8B2A1C" points="94.2,40.4 93.2,37.7 91.6,40.2 88.6,40.4 90.6,42.7 89.8,45.5 92.6,44.4 95.1,46 94.8,43 
		97.1,41.1 	"/>
	<path fill="#332A22" d="M141.3,91.6l-4.7-10.2c-2.6-6-2.8-12.5-0.8-18.3l3.7-9.9c2.3-6.1-0.8-12.9-6.9-15.1l-9.2-3.4
		c-6.1-2.3-10.8-6.6-13.6-11.9l-4.2-9.1c-2.7-5.9-9.7-8.5-15.6-5.8l-8.3,3.8c-6,2.6-12.4,2.7-18.2,0.8L52,8.2
		c-3.7-1.4-7.6-0.8-10.7,1.3c-2,1.3-3.6,3.3-4.5,5.7l-3.7,9.8c-0.2,0.5-0.3,1-0.5,1.5c-2.4,5.8-6.8,10.7-13,13.5l-7.8,3.6
		c-2,0.9-3.6,2.3-4.8,4c-2.3,3.3-2.8,7.7-1,11.6l3.7,8C12.5,73,12.7,79.3,11,85L7,95.5c-2.3,6.1,0.8,12.9,6.9,15.1l9.3,3.5
		c6.2,2.4,11,6.9,13.7,12.4l4.9,10.6c2.7,5.9,9.7,8.5,15.6,5.8l9.9-4.5c5.9-2.7,12.3-3,18.1-1.2l8.9,3.3c6.1,2.3,12.9-0.8,15.1-6.9
		l2.9-7.9c2.4-6.1,6.8-10.8,12.3-13.6l10.7-4.9C141.4,104.5,144,97.5,141.3,91.6z M139.4,91.2c0.2-0.1,0.4,0,0.4,0.2l0.3,0.6
		c0.1,0.2,0.2,0.4,0.3,0.6c0.2,0.4,0.3,0.8,0.4,1.3c0,0.2-0.1,0.4-0.2,0.4c-0.2,0-0.4-0.1-0.4-0.2c-0.1-0.4-0.2-0.8-0.4-1.2
		c-0.1-0.2-0.2-0.4-0.2-0.6l-0.3-0.6C139.1,91.5,139.2,91.3,139.4,91.2z M135.6,83.1c0.2-0.1,0.4,0,0.4,0.2l1.1,2.3
		c0.1,0.2,0,0.4-0.2,0.4c-0.2,0.1-0.4,0-0.4-0.2l-1.1-2.3C135.4,83.3,135.5,83.1,135.6,83.1z M135.6,59.8c-0.1,0.2-0.3,0.3-0.4,0.2
		c-0.2-0.1-0.3-0.2-0.2-0.4l0.9-2.4c0.1-0.2,0.3-0.3,0.4-0.2c0.2,0.1,0.3,0.3,0.2,0.4L135.6,59.8z M137.2,55.6
		c-0.1,0.2-0.3,0.3-0.4,0.2c-0.2-0.1-0.3-0.2-0.2-0.4l0.9-2.4c0.1-0.2,0.3-0.3,0.4-0.2c0.2,0.1,0.3,0.3,0.2,0.4L137.2,55.6z
		 M138.9,48.7c0,0.9,0,1.8-0.2,2.6c0,0.2-0.2,0.3-0.4,0.3c-0.2,0-0.3-0.2-0.2-0.4c0.2-0.8,0.2-1.6,0.2-2.5c0-0.2,0.1-0.3,0.3-0.3
		C138.7,48.3,138.9,48.5,138.9,48.7z M137.3,44.1c0.2-0.1,0.4,0,0.4,0.1c0.4,0.8,0.7,1.6,0.9,2.5c0,0.2-0.1,0.4-0.3,0.4
		c-0.2,0-0.3-0.1-0.4-0.3c-0.2-0.8-0.5-1.6-0.9-2.3C137.1,44.4,137.1,44.2,137.3,44.1z M134.3,40.8c0.1-0.1,0.3-0.2,0.5-0.1
		c0.7,0.5,1.3,1.2,1.9,1.8c0.1,0.2,0.1,0.4-0.1,0.5c-0.1,0.1-0.3,0.1-0.5,0c-0.5-0.7-1.1-1.2-1.8-1.7
		C134.2,41.1,134.2,40.9,134.3,40.8z M133.9,62.6c0-0.1,0.1-0.2,0.1-0.3l0.1-0.3l0.2-0.6c0.1-0.2,0.3-0.3,0.4-0.2
		c0.2,0.1,0.3,0.2,0.2,0.4l-0.2,0.6l-0.1,0.3c0,0.1-0.1,0.2-0.1,0.3c-0.1,0.4-0.3,0.8-0.4,1.2c0,0.2-0.2,0.3-0.4,0.2
		c-0.2,0-0.3-0.2-0.2-0.4C133.6,63.4,133.7,63,133.9,62.6z M133.1,74.5c0.2,0,0.3,0.1,0.4,0.3c0.1,0.8,0.3,1.7,0.5,2.5
		c0,0.2-0.1,0.3-0.2,0.4c-0.2,0-0.4-0.1-0.4-0.2c-0.2-0.8-0.4-1.7-0.5-2.5C132.7,74.7,132.9,74.5,133.1,74.5z M132.6,72.9
		c-0.1-0.9-0.1-1.7,0-2.6c0-0.2,0.2-0.3,0.3-0.3c0.2,0,0.3,0.2,0.3,0.3c0,0.8,0,1.7,0,2.5c0,0.2-0.1,0.3-0.3,0.4
		C132.7,73.2,132.6,73.1,132.6,72.9z M133.7,65.9c-0.2,0.8-0.3,1.7-0.4,2.5c0,0.2-0.2,0.3-0.4,0.3c-0.2,0-0.3-0.2-0.3-0.4
		c0.1-0.9,0.2-1.7,0.4-2.6c0-0.2,0.2-0.3,0.4-0.3C133.6,65.6,133.7,65.7,133.7,65.9z M130.6,38.7l1.2,0.4c0.2,0.1,0.4,0.1,0.6,0.2
		c0.2,0.1,0.4,0.2,0.6,0.3c0.2,0.1,0.2,0.3,0.2,0.4c-0.1,0.2-0.3,0.2-0.4,0.1c-0.2-0.1-0.4-0.2-0.6-0.3c-0.2-0.1-0.4-0.1-0.6-0.2
		l-1.2-0.4c-0.2-0.1-0.3-0.3-0.2-0.4C130.3,38.7,130.5,38.6,130.6,38.7z M132.6,49.6c0,1.5-1.2,2.6-2.6,2.6c-1.5,0-2.6-1.2-2.6-2.6
		c0-1.5,1.2-2.6,2.6-2.6C131.4,47,132.6,48.2,132.6,49.6z M101.4,132.7c0,1.4-1.2,2.6-2.6,2.6c-1.5,0-2.6-1.2-2.6-2.6
		c0-1.5,1.2-2.6,2.6-2.6C100.2,130,101.4,131.2,101.4,132.7z M54.5,132.7c0,1.4-1.2,2.6-2.6,2.6c-1.5,0-2.6-1.2-2.6-2.6
		c0-1.5,1.2-2.6,2.6-2.6C53.3,130,54.5,131.2,54.5,132.7z M73.7,21.8c29.6,0,53.6,24,53.6,53.6c0,29.6-24,53.6-53.6,53.6
		c-29.6,0-53.6-24-53.6-53.6C20.1,45.8,44.1,21.8,73.7,21.8z M126.4,37.1l2.4,0.9c0.2,0.1,0.3,0.3,0.2,0.4c-0.1,0.2-0.3,0.3-0.4,0.2
		l-2.4-0.9c-0.2-0.1-0.3-0.3-0.2-0.4C126,37.2,126.2,37.1,126.4,37.1z M122.2,35.6c0.4,0.2,0.8,0.3,1.2,0.5l1.2,0.4
		c0.2,0.1,0.3,0.3,0.2,0.4c-0.1,0.2-0.3,0.3-0.4,0.2l-1.2-0.4c-0.4-0.1-0.8-0.3-1.2-0.5c-0.2-0.1-0.3-0.3-0.2-0.4
		C121.8,35.6,122,35.5,122.2,35.6z M117.8,33.7c0.1-0.1,0.3-0.2,0.5-0.1c0.7,0.4,1.5,0.8,2.2,1.2c0.2,0.1,0.2,0.3,0.2,0.4
		c-0.1,0.2-0.3,0.2-0.4,0.2c-0.8-0.4-1.5-0.8-2.3-1.2C117.7,34,117.7,33.8,117.8,33.7z M114.2,31c0.1-0.1,0.3-0.1,0.5,0
		c0.6,0.6,1.3,1.1,2,1.6c0.1,0.1,0.2,0.3,0.1,0.5c-0.1,0.2-0.3,0.2-0.5,0.1c-0.7-0.5-1.4-1-2-1.6C114.1,31.3,114.1,31.1,114.2,31z
		 M111.1,27.7c0.1-0.1,0.3-0.1,0.5,0c0.5,0.6,1.1,1.3,1.7,1.9c0.1,0.1,0.1,0.3,0,0.5c-0.1,0.1-0.3,0.1-0.5,0
		c-0.6-0.6-1.2-1.3-1.7-1.9C110.9,28,111,27.8,111.1,27.7z M108.6,24c0.2-0.1,0.4,0,0.5,0.1c0.4,0.7,0.9,1.4,1.4,2.1
		c0.1,0.1,0.1,0.4-0.1,0.5c-0.1,0.1-0.4,0.1-0.5-0.1c-0.5-0.7-1-1.4-1.4-2.2C108.4,24.3,108.4,24.1,108.6,24z M106.7,19.9
		c0.2-0.1,0.4,0,0.4,0.2l1.1,2.3c0.1,0.2,0,0.4-0.2,0.4c-0.2,0.1-0.4,0-0.4-0.2l-1.1-2.3C106.4,20.2,106.5,20,106.7,19.9z
		 M104.8,15.8c0.2-0.1,0.4,0,0.4,0.2l1.1,2.3c0.1,0.2,0,0.4-0.2,0.4c-0.2,0.1-0.4,0-0.4-0.2l-1.1-2.3
		C104.6,16.1,104.6,15.9,104.8,15.8z M102.6,11.9c0.1-0.1,0.3-0.1,0.5,0.1c0.5,0.7,1,1.4,1.4,2.2c0.1,0.2,0,0.4-0.2,0.4
		c-0.2,0.1-0.4,0-0.4-0.2c-0.3-0.8-0.8-1.5-1.3-2.1C102.4,12.2,102.5,12,102.6,11.9z M99,9.2C99.1,9,99.3,9,99.5,9.1
		c0.8,0.4,1.5,0.9,2.2,1.4c0.1,0.1,0.2,0.3,0,0.5c-0.1,0.1-0.3,0.1-0.5,0c-0.6-0.5-1.3-1-2.1-1.4C99,9.6,98.9,9.4,99,9.2z M95,8
		c0.9,0,1.8,0.1,2.6,0.4c0.2,0,0.3,0.2,0.2,0.4c0,0.2-0.2,0.3-0.4,0.2c-0.8-0.2-1.6-0.3-2.4-0.3c-0.2,0-0.3-0.1-0.3-0.3
		C94.6,8.1,94.8,8,95,8z M96,18.4c0,1.5-1.2,2.6-2.6,2.6c-1.5,0-2.6-1.2-2.6-2.6c0-1.5,1.2-2.6,2.6-2.6C94.8,15.8,96,17,96,18.4z
		 M90.5,8.9c0.8-0.4,1.6-0.6,2.5-0.8c0.2,0,0.4,0.1,0.4,0.3c0,0.2-0.1,0.3-0.3,0.4c-0.8,0.1-1.6,0.4-2.4,0.7c-0.2,0.1-0.4,0-0.4-0.2
		C90.2,9.2,90.3,9,90.5,8.9z M86.4,10.8l2.3-1.1c0.2-0.1,0.4,0,0.4,0.2c0.1,0.2,0,0.4-0.2,0.4l-2.3,1.1c-0.2,0.1-0.4,0-0.4-0.2
		C86.1,11.1,86.2,10.9,86.4,10.8z M82.3,12.7l2.3-1.1c0.2-0.1,0.4,0,0.4,0.2c0.1,0.2,0,0.4-0.2,0.4l-2.3,1.1c-0.2,0.1-0.4,0-0.4-0.2
		C82.1,12.9,82.1,12.7,82.3,12.7z M78.1,14.1c0.8-0.2,1.6-0.5,2.4-0.7c0.2-0.1,0.4,0,0.4,0.2c0.1,0.2,0,0.4-0.2,0.4
		c-0.8,0.3-1.6,0.5-2.5,0.8c-0.2,0-0.4-0.1-0.4-0.2C77.8,14.3,77.9,14.2,78.1,14.1z M73.7,14.9c0.8-0.1,1.7-0.2,2.5-0.3
		c0.2,0,0.3,0.1,0.4,0.3c0,0.2-0.1,0.4-0.3,0.4c-0.8,0.1-1.7,0.3-2.6,0.3c-0.2,0-0.3-0.1-0.4-0.3C73.4,15,73.5,14.9,73.7,14.9z
		 M69.3,14.9c0.8,0.1,1.7,0.1,2.5,0.1c0.2,0,0.3,0.1,0.3,0.3c0,0.2-0.1,0.3-0.3,0.3c-0.9,0-1.7,0-2.6-0.1c-0.2,0-0.3-0.2-0.3-0.4
		C68.9,15,69.1,14.8,69.3,14.9z M64.9,14.1c0.8,0.2,1.6,0.4,2.5,0.5c0.2,0,0.3,0.2,0.3,0.4c0,0.2-0.2,0.3-0.4,0.3
		c-0.9-0.1-1.7-0.3-2.5-0.5c-0.2,0-0.3-0.2-0.2-0.4C64.5,14.2,64.7,14.1,64.9,14.1z M60.7,12.7l2.4,0.9c0.2,0.1,0.3,0.2,0.2,0.4
		c0,0.2-0.2,0.3-0.4,0.2l-2.4-0.9c-0.2-0.1-0.3-0.3-0.2-0.4C60.3,12.7,60.5,12.6,60.7,12.7z M56.4,11.1l2.4,0.9
		c0.2,0.1,0.3,0.3,0.2,0.4c-0.1,0.2-0.3,0.3-0.4,0.2l-2.4-0.9C56,11.7,56,11.5,56,11.3C56.1,11.2,56.3,11.1,56.4,11.1z M52.2,9.6
		l2.4,0.9c0.2,0.1,0.3,0.3,0.2,0.4c-0.1,0.2-0.3,0.3-0.4,0.2L52,10.2c-0.2-0.1-0.3-0.3-0.2-0.4C51.9,9.6,52.1,9.5,52.2,9.6z
		 M47.7,8.7c0.9,0,1.8,0.1,2.6,0.3c0.2,0,0.3,0.2,0.2,0.4c0,0.2-0.2,0.3-0.4,0.2c-0.8-0.2-1.6-0.3-2.4-0.3c-0.2,0-0.3-0.1-0.3-0.3
		C47.4,8.8,47.5,8.7,47.7,8.7z M49.9,18.8c0,1.5-1.2,2.6-2.6,2.6c-1.5,0-2.6-1.2-2.6-2.6c0-1.5,1.2-2.6,2.6-2.6
		C48.7,16.1,49.9,17.3,49.9,18.8z M43.2,9.8c0.8-0.4,1.6-0.7,2.5-0.9c0.2,0,0.4,0.1,0.4,0.3c0,0.2-0.1,0.3-0.3,0.4
		c-0.8,0.2-1.6,0.5-2.3,0.8c-0.2,0.1-0.3,0-0.4-0.1C43,10.1,43.1,9.9,43.2,9.8z M39.7,12.7c0.5-0.7,1.2-1.3,1.9-1.9
		c0.1-0.1,0.4-0.1,0.5,0.1c0.1,0.1,0.1,0.4-0.1,0.5c-0.7,0.5-1.2,1.1-1.8,1.7c-0.1,0.1-0.3,0.2-0.5,0.1
		C39.6,13.1,39.5,12.9,39.7,12.7z M38.1,15.6c0.1-0.4,0.3-0.8,0.5-1.2c0.1-0.2,0.3-0.2,0.4-0.1c0.2,0.1,0.2,0.3,0.1,0.4
		c-0.2,0.4-0.4,0.7-0.5,1.1L38.2,17c-0.1,0.2-0.2,0.3-0.4,0.2c-0.2-0.1-0.3-0.3-0.2-0.4L38.1,15.6z M36.9,18.6
		c0.1-0.2,0.3-0.3,0.4-0.2c0.2,0.1,0.3,0.3,0.2,0.4l-0.9,2.4c-0.1,0.2-0.3,0.3-0.4,0.2c-0.2-0.1-0.3-0.3-0.2-0.4L36.9,18.6z
		 M35.4,22.9c0.1-0.2,0.3-0.3,0.4-0.2c0.2,0.1,0.3,0.3,0.2,0.4l-0.9,2.4c-0.1,0.2-0.2,0.3-0.4,0.2c-0.2-0.1-0.3-0.3-0.2-0.4
		L35.4,22.9z M32.7,29.3c0.4-0.7,0.8-1.5,1.1-2.3c0.1-0.2,0.3-0.3,0.4-0.2c0.2,0.1,0.3,0.3,0.2,0.4c-0.3,0.8-0.7,1.6-1.1,2.3
		c-0.1,0.2-0.3,0.2-0.4,0.1C32.7,29.7,32.6,29.5,32.7,29.3z M30.3,33.1c0.5-0.7,1-1.4,1.4-2.1c0.1-0.1,0.3-0.2,0.5-0.1
		c0.2,0.1,0.2,0.3,0.1,0.5c-0.5,0.7-1,1.4-1.5,2.1c-0.1,0.1-0.3,0.2-0.5,0.1C30.2,33.4,30.2,33.2,30.3,33.1z M27.3,36.4
		c0.6-0.6,1.2-1.2,1.8-1.8c0.1-0.1,0.3-0.1,0.5,0c0.1,0.1,0.2,0.3,0,0.5c-0.6,0.6-1.2,1.3-1.8,1.9c-0.1,0.1-0.3,0.1-0.5,0
		C27.2,36.7,27.2,36.5,27.3,36.4z M23.9,39.1c0.7-0.5,1.4-1,2-1.5c0.1-0.1,0.3-0.1,0.5,0c0.1,0.1,0.1,0.3-0.1,0.5
		c-0.7,0.5-1.4,1.1-2.1,1.5c-0.2,0.1-0.4,0.1-0.5-0.1C23.7,39.4,23.7,39.2,23.9,39.1z M19.9,41.2c0.8-0.3,1.5-0.7,2.3-1.1
		c0.2-0.1,0.4,0,0.4,0.1c0.1,0.2,0,0.4-0.1,0.5c-0.8,0.4-1.5,0.8-2.3,1.2c-0.2,0.1-0.4,0-0.4-0.2C19.7,41.5,19.8,41.3,19.9,41.2z
		 M15.9,43.1l2.3-1.1c0.2-0.1,0.4,0,0.4,0.2c0.1,0.2,0,0.4-0.2,0.4l-2.3,1.1c-0.2,0.1-0.4,0-0.4-0.2C15.6,43.4,15.7,43.2,15.9,43.1z
		 M18.3,55.6c0,1.5-1.2,2.6-2.6,2.6c-1.5,0-2.6-1.2-2.6-2.6c0-1.5,1.2-2.6,2.6-2.6C17.1,52.9,18.3,54.1,18.3,55.6z M13.2,80
		c0-0.2,0.2-0.3,0.4-0.3c0.2,0,0.3,0.2,0.3,0.4c-0.1,0.9-0.2,1.7-0.4,2.6c0,0.2-0.2,0.3-0.4,0.3c-0.2,0-0.3-0.2-0.3-0.4
		C13,81.7,13.1,80.8,13.2,80z M12.5,71.2c0-0.2,0.1-0.4,0.2-0.4c0.2-0.1,0.4,0.1,0.4,0.2c0.2,0.8,0.4,1.7,0.5,2.5
		c0,0.2-0.1,0.4-0.3,0.4c-0.2,0-0.3-0.1-0.4-0.3C12.9,72.8,12.7,72,12.5,71.2z M13.6,78.4c-0.2,0-0.3-0.2-0.3-0.3
		c0-0.8,0-1.7-0.1-2.5c0-0.2,0.1-0.3,0.3-0.4c0.2,0,0.3,0.1,0.4,0.3c0.1,0.9,0.1,1.7,0.1,2.6C14,78.3,13.8,78.4,13.6,78.4z M11.8,45
		c0.2-0.1,0.4-0.2,0.6-0.3l0.6-0.3l1.2-0.5c0.2-0.1,0.4,0,0.4,0.2c0.1,0.2,0,0.4-0.2,0.4l-1.2,0.5l-0.6,0.3
		c-0.2,0.1-0.4,0.2-0.6,0.3c-0.2,0.1-0.3,0-0.4-0.1C11.5,45.3,11.6,45.1,11.8,45z M8.3,48.1c0.5-0.7,1.1-1.4,1.8-1.9
		c0.1-0.1,0.4-0.1,0.5,0c0.1,0.1,0.1,0.3,0,0.5c-0.6,0.5-1.2,1.1-1.7,1.8c-0.1,0.1-0.3,0.2-0.5,0.1C8.2,48.4,8.2,48.2,8.3,48.1z
		 M7.3,49.8c0.1-0.2,0.3-0.2,0.4-0.2c0.2,0.1,0.2,0.3,0.2,0.4c-0.4,0.7-0.6,1.5-0.8,2.3c0,0.2-0.2,0.3-0.4,0.3
		c-0.2,0-0.3-0.2-0.3-0.4C6.6,51.5,6.9,50.6,7.3,49.8z M7.1,57.2c-0.2,0.1-0.4-0.1-0.4-0.2c-0.2-0.9-0.4-1.7-0.4-2.6
		c0-0.2,0.2-0.3,0.3-0.3C6.8,54,7,54.1,7,54.3c0,0.8,0.1,1.6,0.3,2.4C7.3,56.9,7.2,57.1,7.1,57.2z M8.9,61.3c-0.2,0.1-0.4,0-0.4-0.2
		l-1.1-2.3c-0.1-0.2,0-0.4,0.2-0.4c0.2-0.1,0.4,0,0.4,0.2L9,60.9C9.1,61,9,61.2,8.9,61.3z M10.7,65.4c-0.2,0.1-0.4,0-0.4-0.2
		l-1.1-2.3c-0.1-0.2,0-0.4,0.2-0.4c0.2-0.1,0.4,0,0.4,0.2l1.1,2.3C11,65.1,10.9,65.3,10.7,65.4z M12,69.3c-0.3-0.8-0.6-1.6-0.9-2.4
		c-0.1-0.2,0-0.4,0.2-0.4c0.2-0.1,0.4,0,0.4,0.2c0.4,0.8,0.7,1.6,0.9,2.4c0.1,0.2,0,0.4-0.2,0.4C12.2,69.6,12.1,69.5,12,69.3z
		 M11,88.6c0.1-0.2,0.3-0.3,0.4-0.2c0.2,0.1,0.3,0.2,0.2,0.4l-0.9,2.4c-0.1,0.2-0.3,0.3-0.4,0.2c-0.2-0.1-0.3-0.3-0.2-0.4L11,88.6z
		 M9.4,92.8c0.1-0.2,0.3-0.3,0.4-0.2c0.2,0.1,0.3,0.3,0.2,0.4l-0.9,2.4c-0.1,0.2-0.3,0.3-0.4,0.2c-0.2-0.1-0.3-0.2-0.2-0.4L9.4,92.8
		z M7.6,99.7c0-0.9,0.1-1.8,0.3-2.6c0-0.2,0.2-0.3,0.4-0.2c0.2,0.1,0.3,0.2,0.2,0.4c-0.2,0.8-0.3,1.6-0.3,2.4c0,0.2-0.1,0.3-0.3,0.3
		C7.7,100,7.6,99.9,7.6,99.7z M9,104.4c-0.2,0.1-0.4,0-0.4-0.2c-0.4-0.8-0.7-1.6-0.8-2.5c0-0.2,0.1-0.4,0.3-0.4
		c0.2,0,0.3,0.1,0.4,0.3c0.2,0.8,0.4,1.6,0.8,2.3C9.3,104.1,9.2,104.3,9,104.4z M11.9,107.8c-0.1,0.1-0.3,0.2-0.5,0.1
		c-0.7-0.5-1.3-1.2-1.8-1.9c-0.1-0.1-0.1-0.4,0.1-0.5c0.1-0.1,0.3-0.1,0.5,0.1c0.5,0.7,1.1,1.3,1.7,1.8
		C12,107.4,12,107.6,11.9,107.8z M12.7,85.8L12.3,87c-0.1,0.2-0.3,0.3-0.4,0.2c-0.2-0.1-0.3-0.2-0.2-0.4l0.4-1.2
		c0.1-0.2,0.1-0.4,0.2-0.6c0.1-0.2,0.1-0.4,0.2-0.6c0-0.2,0.2-0.3,0.4-0.2c0.2,0,0.3,0.2,0.2,0.4C13,84.8,13,85,12.9,85.2
		C12.8,85.4,12.8,85.6,12.7,85.8z M15.5,109.9l-1.2-0.4c-0.4-0.2-0.8-0.3-1.2-0.5c-0.2-0.1-0.2-0.3-0.1-0.4c0.1-0.2,0.3-0.2,0.4-0.1
		c0.4,0.2,0.7,0.4,1.1,0.5l1.2,0.4c0.2,0.1,0.3,0.3,0.2,0.4C15.9,109.9,15.7,110,15.5,109.9z M14.5,100c0-1.5,1.2-2.6,2.6-2.6
		c1.5,0,2.6,1.2,2.6,2.6c0,1.5-1.2,2.6-2.6,2.6C15.7,102.7,14.5,101.5,14.5,100z M19.8,111.5l-2.4-0.9c-0.2-0.1-0.3-0.3-0.2-0.4
		c0.1-0.2,0.3-0.3,0.4-0.2l2.4,0.9c0.2,0.1,0.3,0.3,0.2,0.4C20.1,111.4,19.9,111.5,19.8,111.5z M24,113c-0.8-0.3-1.6-0.6-2.4-0.9
		c-0.2-0.1-0.3-0.3-0.2-0.4c0.1-0.2,0.3-0.3,0.4-0.2c0.8,0.3,1.6,0.6,2.4,0.9c0.2,0.1,0.3,0.3,0.2,0.4C24.3,113,24.1,113.1,24,113z
		 M28.4,114.9c-0.1,0.2-0.3,0.2-0.4,0.1c-0.7-0.4-1.5-0.8-2.2-1.2c-0.2-0.1-0.2-0.3-0.2-0.4c0.1-0.2,0.3-0.2,0.4-0.2
		c0.8,0.4,1.5,0.8,2.3,1.2C28.5,114.5,28.5,114.7,28.4,114.9z M32,117.6c-0.1,0.1-0.3,0.1-0.5,0c-0.6-0.5-1.3-1.1-2-1.5
		c-0.2-0.1-0.2-0.3-0.1-0.5c0.1-0.2,0.3-0.2,0.5-0.1c0.7,0.5,1.4,1,2,1.6C32.1,117.2,32.2,117.4,32,117.6z M35.2,120.8
		c-0.1,0.1-0.3,0.1-0.5,0c-0.5-0.6-1.1-1.3-1.7-1.9c-0.1-0.1-0.1-0.3,0-0.5c0.1-0.1,0.3-0.1,0.5,0c0.6,0.6,1.2,1.2,1.8,1.9
		C35.3,120.5,35.3,120.7,35.2,120.8z M37.7,124.5c-0.2,0.1-0.4,0-0.5-0.1c-0.4-0.7-0.9-1.4-1.4-2.1c-0.1-0.1-0.1-0.3,0.1-0.5
		c0.1-0.1,0.4-0.1,0.5,0.1c0.5,0.7,1,1.4,1.4,2.2C37.9,124.2,37.9,124.4,37.7,124.5z M39.7,128.5c-0.2,0.1-0.4,0-0.4-0.2l-1.1-2.3
		c-0.1-0.2,0-0.4,0.1-0.4c0.2-0.1,0.4,0,0.4,0.2l1.1,2.3C39.9,128.3,39.8,128.5,39.7,128.5z M41.5,132.6c-0.2,0.1-0.4,0-0.4-0.2
		l-1.1-2.3c-0.1-0.2,0-0.4,0.2-0.4c0.2-0.1,0.4,0,0.4,0.2l1.1,2.3C41.8,132.4,41.7,132.6,41.5,132.6z M43.4,136.7
		c-0.2,0.1-0.4,0-0.4-0.2l-1.1-2.3c-0.1-0.2,0-0.4,0.2-0.4c0.2-0.1,0.4,0,0.4,0.2l1.1,2.3C43.7,136.5,43.6,136.6,43.4,136.7z
		 M46.2,140.2c-0.1,0.1-0.3,0.2-0.5,0c-0.7-0.6-1.3-1.2-1.8-1.9c-0.1-0.2-0.1-0.4,0.1-0.5c0.2-0.1,0.4-0.1,0.5,0.1
		c0.5,0.7,1,1.3,1.7,1.8C46.3,139.9,46.3,140.1,46.2,140.2z M49.8,142.4c-0.8-0.2-1.7-0.6-2.4-1c-0.2-0.1-0.2-0.3-0.1-0.5
		c0.1-0.2,0.3-0.2,0.4-0.1c0.7,0.4,1.5,0.7,2.3,0.9c0.2,0,0.3,0.2,0.2,0.4C50.2,142.3,50,142.4,49.8,142.4z M54.4,142.6
		c-0.9,0.2-1.8,0.2-2.6,0.1c-0.2,0-0.3-0.2-0.3-0.4c0-0.2,0.2-0.3,0.4-0.3c0.8,0.1,1.7,0,2.5-0.1c0.2,0,0.3,0.1,0.4,0.3
		C54.7,142.4,54.6,142.6,54.4,142.6z M58.7,141l-1.2,0.5l-0.6,0.3c-0.2,0.1-0.4,0.2-0.6,0.3c-0.2,0.1-0.4,0-0.4-0.2
		c-0.1-0.2,0-0.4,0.2-0.4c0.2-0.1,0.4-0.2,0.6-0.2l0.6-0.3l1.2-0.5c0.2-0.1,0.4,0,0.4,0.2C59,140.7,58.9,140.9,58.7,141z
		 M62.8,139.1l-2.3,1.1c-0.2,0.1-0.4,0-0.4-0.2c-0.1-0.2,0-0.4,0.2-0.4l2.3-1.1c0.2-0.1,0.4,0,0.4,0.2C63,138.8,63,139,62.8,139.1z
		 M66.9,137.2l-2.3,1.1c-0.2,0.1-0.4,0-0.4-0.2c-0.1-0.2,0-0.4,0.2-0.4l2.3-1.1c0.2-0.1,0.4,0,0.4,0.2
		C67.1,137,67.1,137.2,66.9,137.2z M71.1,135.7c-0.8,0.2-1.6,0.5-2.4,0.8c-0.2,0.1-0.4,0-0.4-0.2c-0.1-0.2,0-0.4,0.2-0.4
		c0.8-0.3,1.6-0.6,2.5-0.8c0.2-0.1,0.4,0.1,0.4,0.2C71.4,135.5,71.3,135.7,71.1,135.7z M75.5,134.9c-0.8,0.1-1.7,0.2-2.5,0.4
		c-0.2,0-0.3-0.1-0.4-0.3c0-0.2,0.1-0.3,0.3-0.4c0.8-0.2,1.7-0.3,2.6-0.4c0.2,0,0.4,0.1,0.4,0.3C75.8,134.8,75.6,134.9,75.5,134.9z
		 M79.9,134.9c-0.8-0.1-1.7-0.1-2.5-0.1c-0.2,0-0.3-0.1-0.3-0.3c0-0.2,0.1-0.3,0.3-0.3c0.9,0,1.7,0,2.6,0.1c0.2,0,0.3,0.2,0.3,0.4
		C80.2,134.8,80.1,134.9,79.9,134.9z M84.3,135.6c-0.8-0.2-1.7-0.4-2.5-0.5c-0.2,0-0.3-0.2-0.3-0.4c0-0.2,0.2-0.3,0.4-0.3
		c0.9,0.1,1.7,0.3,2.5,0.5c0.2,0,0.3,0.2,0.2,0.4C84.6,135.5,84.5,135.6,84.3,135.6z M88.5,137l-2.4-0.9c-0.1,0-0.1-0.1-0.2-0.2
		c0-0.1,0-0.2,0-0.3c0-0.1,0.1-0.2,0.2-0.2c0.1,0,0.2,0,0.2,0l2.4,0.9c0.2,0.1,0.3,0.3,0.2,0.4C88.9,137,88.7,137.1,88.5,137z
		 M92.7,138.6l-2.4-0.9c-0.2-0.1-0.3-0.3-0.2-0.4c0.1-0.2,0.2-0.3,0.4-0.2L93,138c0.2,0.1,0.3,0.3,0.2,0.4
		C93.1,138.5,92.9,138.6,92.7,138.6z M97.1,139.9c-0.4-0.1-0.9-0.1-1.3-0.3c-0.2-0.1-0.4-0.1-0.6-0.2c-0.1,0-0.2-0.1-0.3-0.1
		l-0.3-0.1c-0.2-0.1-0.3-0.3-0.2-0.4c0.1-0.2,0.3-0.3,0.4-0.2l0.3,0.1c0.1,0,0.2,0.1,0.3,0.1c0.2,0.1,0.4,0.1,0.6,0.2
		c0.4,0.1,0.8,0.2,1.2,0.2c0.2,0,0.3,0.2,0.3,0.4C97.4,139.8,97.3,140,97.1,139.9z M104.6,138.1c-0.7,0.5-1.5,0.9-2.3,1.2
		c-0.2,0.1-0.4,0-0.4-0.2c0.1,0.2,0,0.4-0.2,0.4c-0.8,0.3-1.7,0.4-2.6,0.5c-0.2,0-0.3-0.1-0.4-0.3c0-0.2,0.1-0.3,0.3-0.3
		c0.8,0,1.6-0.2,2.4-0.4c0.2-0.1,0.4,0,0.4,0.2c-0.1-0.2,0-0.4,0.2-0.4c0.8-0.3,1.5-0.7,2.2-1.2c0.1-0.1,0.3-0.1,0.5,0.1
		C104.8,137.7,104.8,137.9,104.6,138.1z M107.7,134.6c-0.4,0.8-0.9,1.5-1.6,2.1c-0.1,0.1-0.3,0.1-0.5,0c-0.1-0.1-0.1-0.3,0-0.5
		c0.6-0.6,1.1-1.3,1.5-2c0.1-0.2,0.3-0.2,0.4-0.1C107.7,134.2,107.8,134.4,107.7,134.6z M108.5,132.8c-0.1,0.2-0.3,0.3-0.4,0.2
		c-0.2-0.1-0.3-0.2-0.2-0.4l0.9-2.4c0.1-0.2,0.3-0.3,0.4-0.2c0.2,0.1,0.3,0.3,0.2,0.4L108.5,132.8z M110.1,128.6
		c-0.1,0.2-0.3,0.3-0.4,0.2c-0.2-0.1-0.3-0.3-0.2-0.4l0.9-2.4c0.1-0.2,0.3-0.3,0.4-0.2c0.2,0.1,0.3,0.3,0.2,0.4L110.1,128.6z
		 M112.8,122.1c-0.4,0.7-0.8,1.5-1.1,2.3c-0.1,0.2-0.3,0.2-0.4,0.2c-0.2-0.1-0.2-0.3-0.2-0.4c0.3-0.8,0.7-1.6,1.1-2.3
		c0.1-0.2,0.3-0.2,0.4-0.1C112.8,121.7,112.8,121.9,112.8,122.1z M115.2,118.4c-0.5,0.7-1,1.3-1.5,2.1c-0.1,0.1-0.3,0.2-0.5,0.1
		c-0.1-0.1-0.2-0.3-0.1-0.5c0.5-0.7,1-1.4,1.5-2.1c0.1-0.1,0.3-0.2,0.5-0.1C115.3,118,115.3,118.2,115.2,118.4z M118.2,115.1
		c-0.6,0.6-1.2,1.2-1.8,1.8c-0.1,0.1-0.3,0.1-0.5,0c-0.1-0.1-0.1-0.3,0-0.5c0.6-0.6,1.2-1.3,1.8-1.8c0.1-0.1,0.3-0.1,0.5,0
		C118.3,114.8,118.3,115,118.2,115.1z M121.7,112.4c-0.7,0.5-1.4,0.9-2.1,1.5c-0.1,0.1-0.3,0.1-0.5-0.1c-0.1-0.1-0.1-0.3,0.1-0.5
		c0.7-0.5,1.4-1,2.1-1.5c0.2-0.1,0.4-0.1,0.5,0.1C121.9,112.1,121.9,112.3,121.7,112.4z M125.7,110.3l-1.2,0.5l-0.3,0.1l-0.3,0.1
		c-0.2,0.1-0.4,0.2-0.6,0.3c-0.2,0.1-0.4,0-0.4-0.1c-0.1-0.1,0-0.4,0.1-0.4c0.2-0.1,0.4-0.2,0.6-0.3l0.3-0.2l0.3-0.1l1.2-0.5
		c0.2-0.1,0.4,0,0.4,0.2C125.9,110,125.8,110.2,125.7,110.3z M129.7,108.4l-2.3,1.1c-0.2,0.1-0.4,0-0.4-0.2c-0.1-0.2,0-0.4,0.2-0.4
		l2.3-1.1c0.2-0.1,0.4,0,0.4,0.2C130,108.2,129.9,108.4,129.7,108.4z M133.8,106.6l-2.3,1.1c-0.2,0.1-0.4,0-0.4-0.2
		c-0.1-0.2,0-0.4,0.2-0.4l2.3-1.1c0.2-0.1,0.4,0,0.4,0.2C134.1,106.3,134,106.5,133.8,106.6z M131.7,99.5c-1.5,0-2.6-1.2-2.6-2.6
		c0-1.5,1.2-2.6,2.6-2.6c1.5,0,2.6,1.2,2.6,2.6C134.3,98.3,133.2,99.5,131.7,99.5z M134.6,81.7c-0.3-0.8-0.6-1.6-0.9-2.4
		c-0.1-0.2,0-0.4,0.2-0.4c0.2-0.1,0.4,0,0.4,0.2c0.3,0.8,0.5,1.6,0.9,2.4c0.1,0.2,0,0.4-0.2,0.4C134.9,82,134.7,81.9,134.6,81.7z
		 M137.8,104.2c-0.6,0.6-1.4,1.1-2.1,1.5c-0.2,0.1-0.4,0-0.4-0.1c-0.1-0.2,0-0.4,0.1-0.4c0.7-0.4,1.4-0.9,2-1.4
		c0.1-0.1,0.3-0.1,0.5,0C137.9,103.8,137.9,104.1,137.8,104.2z M137.3,87.6c-0.1-0.2,0-0.4,0.2-0.4c0.2-0.1,0.4,0,0.4,0.2l1.1,2.3
		c0.1,0.2,0,0.4-0.2,0.4c-0.2,0.1-0.4,0-0.4-0.2L137.3,87.6z M139.1,102.7c-0.1,0.2-0.3,0.2-0.5,0.1c-0.1-0.1-0.2-0.3-0.1-0.5
		c0.5-0.7,0.9-1.4,1.2-2.2c0.1-0.2,0.3-0.2,0.4-0.2c0.2,0.1,0.3,0.3,0.2,0.4C140,101.2,139.6,102,139.1,102.7z M140.9,98.5
		c0,0.2-0.2,0.3-0.4,0.3c-0.2,0-0.3-0.2-0.3-0.4c0.2-0.8,0.2-1.6,0.2-2.5c0-0.2,0.1-0.3,0.3-0.3c0.2,0,0.3,0.1,0.4,0.3
		C141.1,96.7,141.1,97.6,140.9,98.5z"/>
	<path fill="#332A22" d="M73.5,122.8c12.1,0,23.1-4.5,31.5-11.9c0,0,0,0,0,0c2.9-2.6,5.5-5.5,7.7-8.7c0.4-0.6,0.8-1.2,1.2-1.8
		c0.3-0.5,0.6-1,0.9-1.5c0.3-0.6,0.6-1.1,1-1.7c3.4-6.6,5.4-14,5.4-22c0-26.3-21.4-47.6-47.6-47.6c-26.3,0-47.6,21.4-47.6,47.6
		C25.9,101.4,47.3,122.8,73.5,122.8z M73.5,28.4c25.8,0,46.7,21,46.7,46.7c0,5.6-1,10.9-2.8,15.9c-0.9,2.6-2.1,5.1-3.5,7.4
		c-0.3,0.5-0.6,1-0.9,1.4c-3.1,4.9-7,9.2-11.7,12.7c-1.2,0.9-2.5,1.8-3.9,2.6c-0.8,0.5-1.6,0.9-2.5,1.4c-6.5,3.4-13.8,5.3-21.6,5.3
		c-25.8,0-46.7-21-46.7-46.7C26.8,49.4,47.7,28.4,73.5,28.4z"/>
</g>
</svg>
