<?xml version="1.0" encoding="utf-8"?>
<!-- Generator: Adobe Illustrator 18.1.0, SVG Export Plug-In . SVG Version: 6.00 Build 0)  -->
<svg version="1.0" id="Layer_1" xmlns="http://www.w3.org/2000/svg" xmlns:xlink="http://www.w3.org/1999/xlink" x="0px" y="0px"
	 viewBox="0 0 150 150" enable-background="new 0 0 150 150" xml:space="preserve">
<path fill="none" d="M62.1,136.1c1.3,0.3,2.5,0.6,3.8,0.8l0-0.3L62.1,136.1z"/>
<g>
	<path fill="#333037" d="M17.1,39.6c-1.5,3.7-1.1,5.2,3,11.6C20.5,49,20,45.7,17.1,39.6z"/>
	<path fill="#333037" d="M30,87.7c1.5-2.4,2.4-6.4,1.3-15.3C27.9,76.4,27.7,78.1,30,87.7z"/>
	<path fill="#333037" d="M32.3,100.9c3.7,4.2,5.2,4.5,15.1,2.8C45.2,101.9,41.4,100.5,32.3,100.9z"/>
	<path fill="#333037" d="M22.6,91.7c2.8,4.9,4.1,5.5,14.1,5.8C35,95.3,31.6,93.1,22.6,91.7z"/>
	<path fill="#333037" d="M38.5,96.3c0.9-3.2,0.6-8-3.9-17.8C31.9,84.5,32.3,86.3,38.5,96.3z"/>
	<path fill="#333037" d="M137.8,64.3c-4.1,3-6.2,5.2-7.4,7.1c0.6-2.3,1-4.6,1.3-7c5.2-5,5.8-6.3,5.1-10.5c-2.6,3.3-4.1,5.8-4.8,7.7
		c0.1-2.4,0.1-4.8-0.1-7.2c-0.3-2.7-0.7-5.4-1.5-8c3.2-6.1,3.4-7.6,1.7-11c-1.5,4-2.2,6.8-2.3,8.8c-0.7-2.3-1.6-4.5-2.7-6.6
		c1.2-5.9,1-7.3-1.2-9.7c-0.3,3.3-0.3,5.6,0,7.4c-1.1-1.9-2.2-3.7-3.5-5.4c0.1-5.7-0.4-7.1-2.9-9c0.3,3,0.7,5.2,1.1,6.8
		c-1.9-2.2-4-4.2-6.3-6c-5.6-7.3-7.3-8-13.1-7.5c6.4,6.8,10.4,9,13.3,9.5c1.8,1.5,3.4,3.1,4.9,4.8c-5-3.8-6.5-4-10.2-2.6
		c5.9,3.6,9.2,4.3,11.5,4.1c1.2,1.5,2.2,3,3.2,4.6c-3.8-4-5.3-4.3-9-3.6c5,4.3,8.1,5.7,10.3,6c1.1,2,2,4.1,2.7,6.3
		c-3.4-5-4.9-5.7-9-5.6c4.6,5.5,7.6,7.7,9.9,8.5c0.7,2.4,1.1,4.9,1.4,7.4c-3-6.3-4.3-7.3-8.6-7.8c3.8,6.2,6.6,8.8,8.8,9.9
		c0.2,2.6,0.1,5.2-0.1,7.8c-2.8-8.1-4-9.4-8.7-10.7c3.6,7.4,6.3,10.3,8.6,11.6c-0.3,2.5-0.8,4.9-1.5,7.4c-1.2-8-2.1-9.4-6.4-11.5
		c2,7.7,4.1,11.1,6,12.8c-0.9,2.9-1.9,5.5-3.1,7.9c0.8-8.1,0.2-9.8-3.5-13c0.1,8.2,1.3,12.1,2.9,14.4c-2.8,5.5-6.4,9.7-10.5,13.1
		c-4.4,3.6-9.6,6.1-15.4,7.8c9-7.6,9.9-9.2,9.2-15.7c-7.3,7.9-9.1,12.4-9.3,15.7c-1.9,0.6-3.9,1-5.9,1.5l0.2-6.9l-9.8,5.4l-5.5,3
		c-0.7,0.2-1.5,0.3-2.4,0.4c-0.4,0-0.7,0-1.1,0c-0.5,0-0.9,0-1.4-0.1c-0.1,0-0.2,0-0.3,0c-0.4,0-0.7-0.1-1.1-0.2
		c-0.2,0-0.4-0.1-0.7-0.1l0.1,0.4l-6.2-3.4L54.8,98l0.1,6.3c-2.1-0.6-4.1-1.3-6-2.1c0.1-3.3-1.2-7.9-7.7-16.5
		c-1.4,6.4-0.6,8.1,7.6,16.5c-5.6-2.3-10.5-5.3-14.5-9.3c-3.8-3.7-6.9-8.4-9.2-14.1c1.8-2.1,3.3-5.9,4.3-14c-4,2.8-4.8,4.5-4.8,12.6
		c-0.9-2.5-1.7-5.2-2.3-8.2c2.1-1.5,4.5-4.6,7.2-12.1c-4.4,1.7-5.5,3-7.5,10.8c-0.5-2.5-0.7-5-0.8-7.5c2.4-1.1,5.4-3.6,9.7-10.7
		c-4.8,0.8-6,2-9.7,9.8c0-2.6,0.2-5.2,0.6-7.8c2.3-0.9,5.3-3.1,9.7-8.9c-4.3,0.1-5.7,0.9-9.3,6.9c0.5-2.5,1.2-4.9,2.1-7.2
		c2.4-0.6,5.6-2.5,10.7-7.5c-4-0.5-5.6,0.1-9.5,4.7c1-2.1,2.1-4.1,3.4-6c2.3,0,5.5-1.1,10.9-4.9c-3.6-1.1-5.1-0.9-9.3,2.7
		c1.1-1.5,2.3-2.9,3.7-4.3c2.2,0.4,5.6,0,11.8-3c-3.5-1.8-5-1.7-10.4,1.6c1.7-1.6,3.4-3,5.3-4.3c3-0.2,7.2-2,14.2-8.1
		c-5.7-1.1-7.4-0.6-13.7,6.1c-2.4,1.6-4.7,3.3-6.8,5.3c0.6-1.6,1.3-3.7,1.8-6.7c-2.7,1.7-3.3,2.9-3.8,8.7c-1.5,1.6-2.8,3.2-4.1,5
		c0.4-1.7,0.7-4.1,0.7-7.4c-2.4,2.1-2.8,3.5-2.2,9.5c-1.3,2-2.4,4.1-3.3,6.3c0.1-2.1-0.3-4.9-1.4-9c-2,3.2-2,4.8,0.6,11.1
		c-1,2.5-1.7,5.2-2.2,7.8c-0.4,2.3-0.7,4.7-0.8,7.1c-0.6-2-1.8-4.6-4.1-8.1c-1.1,4.1-0.7,5.5,4,10.9c0,2.3,0.2,4.7,0.6,7.1
		c-1-1.9-2.9-4.4-6.6-7.8c0,4.2,0.8,5.3,7,9.5c0,0.1,0,0.2,0.1,0.2h0l0,0.1c0.7,3.3,1.5,6.3,2.6,9.1c-1-2.1-3.2-4.5-7.9-7.9
		c0.4,4.5,1.4,5.7,8.5,9.6c0,0,0-0.1,0-0.1c1,2.4,2.2,4.7,3.5,6.8c-1.6-1.6-4.3-3.4-9.2-5.3c1.5,4.3,2.7,5.1,10.5,7.2
		c1.4,1.9,2.9,3.7,4.5,5.3c5.8,5.7,13.1,9.4,21.7,12l0.1,3.5l0.2,11.2l9.6-5.8l2.5-1.5l-15.2,27.2l8.8-4.3l3.6,9.8l10-28.5l9.6,27.2
		l3.6-9.8l8.8,4.3l-13.7-24.4l0,0l9.6,5.8l0.3-11.2l0.1-2.9c8.6-1.7,16.1-4.7,22.3-9.7c1.8-1.4,3.4-3,5-4.8
		c7.9-1.3,9.2-2.1,11.1-6.1c-5.1,1.4-7.9,2.9-9.7,4.4c1.5-1.9,2.9-4,4.1-6.4c0,0,0,0.1,0,0.1c7.5-3.2,8.6-4.2,9.4-8.7
		c-4.9,2.8-7.4,5.1-8.6,7.1c1.3-2.7,2.5-5.8,3.5-9l0-0.2h0c0,0,0.1,0,0.1-0.1C136.4,69.4,137.4,68.5,137.8,64.3z"/>
	<path fill="#333037" d="M132.3,55.6c4.7-6,5.3-7.4,4.2-11.3C132.9,50.2,132.2,53.4,132.3,55.6z"/>
	<path fill="#333037" d="M119,75.6c-2,8.8-1.4,12.8-0.2,15.3C122.1,81.6,122.1,79.9,119,75.6z"/>
	<path fill="#333037" d="M100,105.2c9.7,2.7,11.2,2.6,15.3-1.2C106.2,102.5,102.3,103.6,100,105.2z"/>
	<path fill="#333037" d="M125.9,95.7c-9.1,0.5-12.7,2.3-14.7,4.3C121.2,100.7,122.7,100.3,125.9,95.7z"/>
	<path fill="#333037" d="M109.6,98.6c7.2-9.3,7.8-11.1,5.7-17.3C109.8,90.6,109,95.4,109.6,98.6z"/>
	<path fill="#F37421" d="M85.9,60.6c-0.1-0.2-0.2-0.4-0.3-0.6l-11.6-0.2L62.5,60c-0.1,0.2-0.2,0.5-0.3,0.6c0.2,0.7,0.8,1.4,1.5,1.4
		h20.7C85.2,62,85.8,61.3,85.9,60.6z"/>
	<path fill="#F37421" d="M72,99.8V63.5l-5,0.1v35.6C68,99.4,70,99.7,72,99.8z"/>
	<path fill="#F37421" d="M82,99.6V63.5l-6-0.1V100C78,100,80,99.9,82,99.6z"/>
	<path fill="#F37421" d="M93.3,62.5c2,0,4-0.8,5.4-2.4c3.6-3.9,3.6-10.1,0-13.8c-2.8-2.9-6.3-3.1-11.4-3.5l-13.2,0l-13.2,0
		c-5.3,0.3-8.6,0.5-11.4,3.5c-3.6,3.7-3.7,9.9,0,13.8c1.5,1.5,3.4,2.4,5.4,2.4c2,0,4-0.8,5.4-2.4c2.5-2.7,2.5-7,0-9.7
		c-2-2.1-5.5-2.1-7.5,0c-1.7,1.8-1.7,4.8,0,6.7c1.4,1.4,3.7,1.4,5,0c0.9-1,1.1-2.4,0.6-3.6c0.4,1.1,0.2,2.3-0.6,3.2
		c-1.2,1.3-3.4,1.3-4.5,0c-1.4-1.5-1.4-3.8,0-5.3c1.5-1.6,4.3-1.6,5.8,0c1.7,1.8,2.3,5.1,0.5,7.1c-1,1-2.7,1.8-4.2,1.8
		c-1.5,0-3.5-0.9-4.5-1.9c-2.5-2.6-1.6-6.8,0.6-9.1c1.3-1.4,3.1-2.2,5-2.2c0.8,0,1.5,0.1,2.1,0.2l31,0c0.5-0.1,1.2-0.2,2-0.2
		c1.9,0,3.7,0.8,5,2.2c2.2,2.4,3.1,6.5,0.6,9.1c-1,1-3,1.9-4.5,1.9c-1.5,0-3.2-0.7-4.2-1.8c-1.9-2-1.2-5.3,0.5-7.1
		c1.5-1.6,4.3-1.6,5.8,0c1.4,1.5,1.4,3.8,0,5.3c-1.2,1.3-3.3,1.3-4.6,0c-0.8-0.8-1-2.1-0.6-3.1c-0.5,1.2-0.2,2.5,0.6,3.5
		c1.3,1.4,3.7,1.4,5,0c1.7-1.8,1.7-4.8,0-6.7c-1-1.1-2.3-1.6-3.7-1.6c-1.4,0-2.7,0.6-3.7,1.6c-2.5,2.7-2.5,7,0,9.7
		C89.4,61.6,91.3,62.5,93.3,62.5z"/>
	<path fill="#F37421" d="M74.1,49l-12.2,0c1,1.1,1.6,2.5,1.9,4l10.3,0.2L84.3,53c0.3-1.5,1-2.9,1.9-4L74.1,49z"/>
	<path fill="#F37421" d="M75.8,14.2c-23.7,0-42.9,19.2-42.9,42.9C32.9,76,45,92,62,97.7v-3V63.2c-1-0.3-0.9-0.7-1.1-1.3
		c-1.7,1.5-3.8,2.3-6,2.3c-2.7,0-5.5-1.1-7.1-2.8c-4.3-4.6-4.3-12.2,0-16.6c3-3.1,6.8-3.3,11.7-3.6l0.9,0l28.6,0
		c4.8,0.3,8.6,0.5,11.7,3.6c4.3,4.4,4.3,12,0,16.6c-1.6,1.7-4.3,2.8-7.1,2.8c-2.2,0-4.4-0.8-6.1-2.3c-0.3,0.6-0.2,1-1.2,1.3v30.2
		v5.4c19-4.6,32.6-21.5,32.6-41.6C118.6,33.4,99.5,14.2,75.8,14.2z"/>
</g>
</svg>
