<?xml version="1.0" encoding="utf-8"?>
<!-- Generator: Adobe Illustrator 18.1.0, SVG Export Plug-In . SVG Version: 6.00 Build 0)  -->
<svg version="1.1" id="Layer_1" xmlns="http://www.w3.org/2000/svg" xmlns:xlink="http://www.w3.org/1999/xlink" x="0px" y="0px"
	 viewBox="0 0 1000 1000" enable-background="new 0 0 1000 1000" xml:space="preserve">
<g>
	<path fill="none" d="M809.4,283.7c-21.7-29.9-72.9-31.2-102.8-52.9c-29.6-21.5-46.6-69.9-82.1-81.5
		c-34.2-11.1-76.3,17.7-114.3,17.7c-38,0-80-28.8-114.3-17.7c-35.5,11.5-52.5,59.9-82.1,81.4c-29.8,21.7-81.1,23.1-102.8,52.9
		c-21.5,29.6-7.1,78.6-18.7,114.1c-11.1,34.3-51.9,65.3-51.9,103.3c0,37.9,40.8,69,51.9,103.2c11.5,35.5-2.9,84.5,18.6,114.1
		c21.7,29.8,72.9,31.2,102.8,52.9c29.5,21.5,46.5,69.9,82.1,81.4c34.3,11.1,76.3-17.7,114.3-17.7c38,0,80,28.8,114.3,17.7
		c35.5-11.5,52.5-59.9,82.1-81.4c29.8-21.7,81.1-23.1,102.8-52.9c21.5-29.5,7.1-78.6,18.6-114.1C839.2,570,880,539,880,501
		c0-38-40.8-69-51.9-103.3C816.5,362.3,830.9,313.2,809.4,283.7z M808.1,597.8c-10.8,33.3,2.7,79.2-17.5,106.9
		c-20.4,28-68.4,29.3-96.3,49.6c-27.7,20.2-43.6,65.5-76.9,76.3c-32.1,10.4-71.5-16.6-107.1-16.6c-35.6,0-75,27-107.1,16.6
		c-33.3-10.8-49.2-56.2-76.9-76.3c-28-20.4-76-21.6-96.3-49.6c-20.2-27.7-6.7-73.7-17.5-106.9c-10.4-32.1-48.7-61.2-48.7-96.8
		c0-35.6,38.3-64.7,48.7-96.8c10.8-33.3-2.7-79.2,17.5-106.9c20.4-28,68.4-29.3,96.3-49.6c27.7-20.2,43.6-65.5,76.9-76.3
		C435.3,161,474.7,188,510.3,188c35.6,0,75-27,107.1-16.6c33.3,10.8,49.2,56.2,76.9,76.3c28,20.4,76,21.6,96.3,49.6
		c20.2,27.7,6.7,73.6,17.5,106.9c10.4,32.1,48.7,61.2,48.7,96.8C856.8,536.6,818.5,565.7,808.1,597.8z"/>
	<path fill="none" d="M749.5,327.3c-17.4-23.9-58.3-25-82.2-42.3c-23.6-17.2-37.2-55.9-65.6-65.1c-27.4-8.9-61,14.1-91.4,14.1
		c-30.3,0-64-23-91.4-14.1c-28.4,9.2-42,47.9-65.6,65.1c-23.9,17.4-64.8,18.5-82.2,42.3c-17.2,23.6-5.7,62.8-14.9,91.2
		c-8.9,27.4-41.5,52.2-41.5,82.6c0,30.3,32.6,55.2,41.5,82.6c9.2,28.4-2.3,67.6,14.9,91.2c15.5,21.3,49.9,24.5,74.1,37.4
		c7.7-10.4,15-21.2,22-32.4c-20.4-10-48-13.1-60.8-30.6c-14.7-20.1-4.8-53.6-12.7-77.8c-7.6-23.3-35.4-44.5-35.4-70.4
		c0-25.9,27.8-47,35.4-70.4c7.9-24.2-1.9-57.6,12.7-77.8c14.8-20.3,49.7-21.3,70.1-36.1c20.1-14.7,31.7-47.7,55.9-55.5
		c23.4-7.6,52,12.1,77.9,12.1c25.9,0,54.5-19.6,77.9-12.1c24.2,7.9,35.8,40.9,55.9,55.5c20.3,14.8,55.3,15.7,70.1,36.1
		c14.7,20.1,4.9,53.6,12.7,77.7c7.6,23.3,35.4,44.5,35.4,70.4c0,25.9-27.8,47-35.4,70.4c-7.9,24.2,1.9,57.6-12.7,77.8
		c-14.8,20.4-49.7,21.3-70.1,36.1c-20.1,14.7-31.7,47.7-55.9,55.5c-23.3,7.6-52-12.1-77.9-12.1c-25.9,0-54.5,19.6-77.9,12.1
		c-19.1-6.2-30.4-28.1-44.2-44.2c-7.1,11-14.5,21.9-22.4,32.4c16.8,19.1,30.1,45.9,53,53.3c27.4,8.9,61-14.1,91.4-14.1
		c30.4,0,64,23,91.4,14.1c28.4-9.2,42-47.9,65.6-65.1c23.9-17.4,64.8-18.4,82.2-42.3c17.2-23.6,5.7-62.8,14.9-91.2
		c8.9-27.4,41.5-52.2,41.5-82.6c0-30.4-32.6-55.2-41.5-82.6C755.2,390.1,766.7,350.9,749.5,327.3z"/>
	<path fill="#0E8ECE" d="M790.7,297.3c-20.4-28-68.4-29.3-96.3-49.6c-27.7-20.2-43.6-65.5-76.9-76.3C585.3,161,545.9,188,510.3,188
		c-35.6,0-75-27-107.1-16.6c-33.3,10.8-49.2,56.2-76.9,76.3c-28,20.4-76,21.6-96.3,49.6c-20.2,27.7-6.7,73.7-17.5,106.9
		c-10.4,32.1-48.7,61.2-48.7,96.8c0,35.6,38.3,64.7,48.7,96.8c10.8,33.3-2.7,79.2,17.5,106.9c20.4,28,68.4,29.3,96.3,49.6
		c27.7,20.2,43.6,65.5,76.9,76.3c32.1,10.4,71.5-16.6,107.1-16.6c35.6,0,75,27,107.1,16.6c33.3-10.8,49.2-56.2,76.9-76.3
		c28-20.4,76-21.6,96.3-49.6c20.2-27.7,6.7-73.7,17.5-106.9c10.4-32.1,48.7-61.2,48.7-96.8c0-35.6-38.3-64.7-48.7-96.8
		C797.3,371,810.8,325,790.7,297.3z M764.4,583.6c-9.2,28.4,2.3,67.6-14.9,91.2c-17.4,23.9-58.3,25-82.2,42.3
		c-23.6,17.2-37.2,55.9-65.6,65.1c-27.4,8.9-61-14.1-91.4-14.1c-30.3,0-64,23-91.4,14.1c-23-7.5-36.3-34.3-53-53.3
		c7.9-10.5,15.3-21.4,22.4-32.4c13.7-21.3,26-43.1,37.2-63.6c22.7,11.2,49.6,18.2,72.1,13.2c61.3-14.1,64.6-26.5,48.5-34.5v0
		c-19.5-9.6-67.4-12.6-76.9-3.8c-0.5,0.5,44.8-52.4,58-79c0.7-1.4,1.3-2.7,1.8-3.9c1.1-2.8,1.7-5.1,1.7-6.9c0-1.2-0.3-2.2-0.9-2.8
		c-14.4,0.3-26.3,1.7-36.3,3.8c-6,1.3-11.2,2.8-15.9,4.6c-9.3,3.5-16.2,7.9-21.6,12.6c-1.8,1.6-3.4,3.2-4.9,4.8
		c-2.9,3.3-5.3,6.6-7.4,9.9c-6.2,9.8-9.6,19.1-17.1,23.8c-0.6-0.5-1.7-7.7-3.1-17.1c-0.3-2-0.6-4.1-0.9-6.3c-0.2-1.6-0.4-3.3-0.7-5
		c-0.8-6.3-1.7-12.9-2.4-18.7c-1.2-9.5-2.2-17.3-2.5-19.3c-4.4-35-45.3,55.2-12.8,107.1c-11.8,21.5-24,43.5-37.2,64.5
		c-7,11.2-14.3,22-22,32.4c-24.2-12.9-58.6-16-74.1-37.4c-17.2-23.6-5.7-62.8-14.9-91.2c-8.9-27.4-41.5-52.2-41.5-82.6
		c0-30.4,32.6-55.2,41.5-82.6c9.2-28.4-2.3-67.6,14.9-91.2c17.4-23.9,58.3-25,82.2-42.3c23.6-17.2,37.2-55.9,65.6-65.1
		c27.4-8.9,61,14.1,91.4,14.1c30.4,0,64-23,91.4-14.1c28.4,9.2,42,47.9,65.6,65.1c23.9,17.4,64.8,18.5,82.2,42.3
		c17.2,23.6,5.7,62.8,14.9,91.2c8.9,27.4,41.5,52.2,41.5,82.6C805.9,531.4,773.3,556.2,764.4,583.6z"/>
	<path fill="#85C441" d="M883.1,379.9c-13.5-41.6,3.4-99.2-21.9-133.8c-25.5-35-85.6-36.6-120.6-62.1c-34.7-25.2-54.6-82-96.3-95.5
		c-40.2-13-89.5,20.7-134.1,20.7c-44.5,0-93.9-33.8-134-20.7C334.6,102,314.6,158.8,280,184c-35,25.5-95.1,27.1-120.6,62.1
		c-25.2,34.7-8.4,92.2-21.9,133.8c-13,40.2-60.9,76.6-60.9,121.1c0,44.5,47.9,80.9,60.9,121.1c13.5,41.6-3.3,99.2,21.9,133.8
		c25.5,35,85.6,36.6,120.6,62.1c34.7,25.2,54.6,82,96.3,95.5c40.2,13,89.5-20.7,134-20.7c44.5,0,93.9,33.8,134.1,20.7
		c41.6-13.5,61.6-70.3,96.3-95.5c35-25.5,95.1-27.1,120.6-62.1c25.2-34.7,8.4-92.2,21.9-133.8C896.1,582,944,545.5,944,501
		C944,456.5,896.1,420.1,883.1,379.9z M828.1,604.3c-11.5,35.5,2.8,84.5-18.6,114.1c-21.7,29.9-72.9,31.2-102.8,52.9
		c-29.6,21.5-46.6,69.9-82.1,81.4c-34.2,11.1-76.3-17.7-114.3-17.7c-38,0-80,28.8-114.3,17.7c-35.5-11.5-52.5-59.9-82.1-81.4
		c-29.9-21.7-81.1-23.1-102.8-52.9c-21.5-29.5-7.1-78.6-18.6-114.1C181.4,570,140.6,539,140.6,501c0-38,40.8-69,51.9-103.3
		c11.5-35.5-2.8-84.5,18.7-114.1c21.7-29.8,72.9-31.2,102.8-52.9c29.5-21.5,46.5-69.9,82.1-81.4c34.3-11.1,76.3,17.7,114.3,17.7
		c38,0,80-28.8,114.3-17.7c35.5,11.5,52.5,59.9,82.1,81.5c29.8,21.7,81.1,23.1,102.8,52.9c21.5,29.5,7.1,78.6,18.6,114.1
		C839.2,432,880,463.1,880,501C880,539,839.2,570,828.1,604.3z"/>
	<path fill="#85C441" d="M432.4,740.8c23.3,7.6,52-12.1,77.9-12.1c25.9,0,54.5,19.6,77.9,12.1c24.2-7.9,35.8-40.9,55.9-55.5
		c20.3-14.8,55.3-15.7,70.1-36.1c14.7-20.1,4.9-53.6,12.7-77.8c7.6-23.3,35.4-44.5,35.4-70.4c0-25.9-27.8-47-35.4-70.4
		c-7.9-24.2,2-57.6-12.7-77.7c-14.8-20.3-49.7-21.3-70.1-36.1c-20.1-14.7-31.7-47.7-55.9-55.5c-23.3-7.6-52,12.1-77.9,12.1
		c-25.9,0-54.5-19.6-77.9-12.1c-24.2,7.9-35.8,40.9-55.9,55.5c-20.3,14.8-55.3,15.7-70.1,36.1c-14.7,20.1-4.9,53.6-12.7,77.8
		c-7.6,23.3-35.4,44.5-35.4,70.4c0,25.9,27.8,47,35.4,70.4c7.9,24.2-1.9,57.6,12.7,77.8c12.7,17.5,40.3,20.7,60.8,30.6
		c13.2-21,25.4-43,37.2-64.5c-32.5-52,8.5-142.1,12.8-107.1c0.3,2,1.3,9.9,2.5,19.3c0.7,5.9,1.6,12.4,2.4,18.7
		c-0.8-6.3-1.7-12.9-2.4-18.7c8.7-61.6,28.6-142,56.7-146.6c14.5-45.7,36.8-48.3,24.4,19.8c-2.2,11.2,51-93,38.8-23.3
		c2.6-7.8,75.8-48.2,40.7,32.2c-3.1,7,38.4-24.5,50.9-1.1c12.1,22.8-50.7,62.2-10.4,39.2c39.4-22.7,32.8,15.2,13.9,32
		c9.9-8.1,48.6-20.7,42.1,9.8c-4.4,20.2-17,39.3-34.1,55.6c-10.7,15-37.6,37.4-88.2,63.6c-1.7,0.9-4.8,2-8.4,3.1
		c16.1,8,12.8,20.4-48.5,34.5c-22.6,5-49.5-2-72.1-13.2c-11.3,20.5-23.6,42.3-37.2,63.6C402,712.7,413.3,734.6,432.4,740.8z"/>
	<path fill="#85C441" d="M423.6,557.5c-0.3-2-0.6-4.1-0.9-6.3C423.1,553.4,423.3,555.5,423.6,557.5z"/>
	<path fill="#85C441" d="M530.8,518c0,1.8-0.6,4.1-1.7,6.9C530.1,522.2,530.8,519.8,530.8,518z"/>
	<path fill="#85C441" d="M527.2,528.9c0.7-1.4,1.3-2.7,1.8-3.9C528.5,526.2,527.9,527.5,527.2,528.9z"/>
	<path fill="#C27F91" d="M468.3,486c8.9-13.5,55.2-118.4,83.9-96.7c0,0.6-75.6,141.4-38.3,99c16.3-18.7,33.2-62.3,69.3-60.8
		c15.4,0.7-33.3,80.4-35.4,82.5c13.7,11.8,47.7-56.3,72-35c-10,37-41.9,76.3-74.1,97.2c-11.4,7.5,22.8,2.8,52.2-23.9
		c36.4-32.6,62.7-28.2,45-3.4c17-16.3,29.7-35.4,34.1-55.6c6.5-30.5-32.2-17.9-42.1-9.8c18.8-16.7,25.5-54.7-13.9-32
		c-40.3,23,22.5-16.4,10.4-39.2c-12.4-23.3-54,8.1-50.9,1.1c35.1-80.4-38.1-40-40.7-32.2c12.2-69.6-40.9,34.5-38.8,23.3
		c12.5-68.1-9.8-65.5-24.4-19.8c1.7-0.3,3.4-0.8,5.2-0.5C501.6,383.7,439.1,530,468.3,486z"/>
	<path fill="#FDDDD6" d="M642.7,545c17.8-24.8-8.6-29.2-45,3.4c-29.4,26.7-63.6,31.4-52.2,23.9c32.2-20.9,64.1-60.1,74.1-97.2
		c-24.3-21.3-58.3,46.8-72,35c2.2-2.2,50.9-81.9,35.4-82.5c-36.1-1.6-53,42-69.3,60.8c-37.3,42.4,38.4-98.5,38.3-99
		c-28.7-21.7-75,83.2-83.9,96.7c-29.2,44.1,33.3-102.2,13.3-105.5c-1.8-0.3-3.5,0.2-5.2,0.5c-28.1,4.6-48,85.1-56.7,146.6
		c0.7,5.9,1.6,12.4,2.4,18.7c0.2,1.7,0.4,3.3,0.7,5c0.3,2.2,0.6,4.3,0.9,6.3c1.3,9.5,2.5,16.7,3.1,17.1c7.5-4.8,10.9-14,17.1-23.8
		c2.1-3.3,4.5-6.6,7.4-9.9c1.5-1.6,3.1-3.2,4.9-4.8c5.4-4.7,12.3-9,21.6-12.6c4.7-1.8,9.9-3.3,15.9-4.6c10-2.1,21.9-3.5,36.3-3.8
		c0.6,0.7,0.9,1.6,0.9,2.8c0,1.8-0.6,4.1-1.7,6.9c-0.5,1.2-1.1,2.6-1.8,3.9c-13.1,26.6-58.5,79.5-58,79c9.4-8.9,57.4-5.9,76.9,3.8v0
		c3.6-1.1,6.8-2.2,8.4-3.1C605.1,582.4,632,560,642.7,545z"/>
</g>
</svg>
