<?xml version="1.0" encoding="utf-8"?>
<!-- Generator: Adobe Illustrator 18.1.0, SVG Export Plug-In . SVG Version: 6.00 Build 0)  -->
<svg version="1.1" id="Layer_1" xmlns="http://www.w3.org/2000/svg" xmlns:xlink="http://www.w3.org/1999/xlink" x="0px" y="0px"
	 viewBox="0 0 1500 1500" enable-background="new 0 0 1500 1500" xml:space="preserve">
<g>
	<path fill="none" d="M574.9,374.2c-0.1,1-0.3,1.9-0.4,2.9c0,0,0,0,0-0.1C574.7,375.9,574.8,374.9,574.9,374.2z"/>
	<path fill="none" d="M575.7,793.9C575.7,793.9,575.8,793.9,575.7,793.9c-20.4-35.7-36-74.8-45.6-115.9
		c-5.6-24.1-9.3-49.4-10.7-74.9c-0.4-7.8-0.7-16.4-0.7-24.3c0,7.9,0.2,17.3,0.7,25.1c1.4,25.5,5.1,50.4,10.7,74.5
		C539.8,719.4,555.3,758.2,575.7,793.9z"/>
	<path fill="none" d="M525.5,552.3c2-38.6,10.1-77.2,22.5-113.5C535.4,474.7,527.5,512.5,525.5,552.3z"/>
	<path fill="none" d="M525.8,606.1c4.1,63.8,22.4,124.6,51.6,177.7c-0.1-0.4-0.2-0.8-0.2-1.2C548.1,729.7,529.9,669.6,525.8,606.1z"
		/>
	<path fill="none" d="M1192.7,739.3c40.6-17.2,83.4-41.9,104.3-75c5.3-23.7,6.8-52.6,6.6-79.4c0,26.8-1.6,55.7-6.9,79.4
		C1275.9,697.4,1233.1,722.1,1192.7,739.3z"/>
	<path fill="none" d="M1124.7,763C1124.7,763,1124.8,763,1124.7,763c-16.3-10.5-106-66.8-131-103.5
		C1018.7,696.2,1108.4,752.6,1124.7,763z"/>
	<path fill="none" d="M1126.1,351.3C1126.1,351.3,1126.1,351.3,1126.1,351.3c18.3,10.3,43.7,25.8,69.8,45.3
		C1169.9,377,1144.6,361.6,1126.1,351.3z"/>
	<path fill="none" d="M888.5,223.1c-0.5-0.3-1-0.6-1.5-0.9c0.4,0.5,0.8,1.1,1.2,1.6L888.5,223.1z"/>
	<path fill="none" d="M766.1,963c-2.6,1-5.2,2-7.9,3c0,0,0,0,0,0c0.1,0,0.2,0.1,0.2,0.1c2.6-0.9,5.2-1.7,7.7-2.7
		c58.2-22.4,88.2-50.7,99.2-63.1c-0.1-0.2-0.2-0.3-0.3-0.5C853.9,912.3,824,940.7,766.1,963z"/>
	<path fill="none" d="M760,194L760,194C759.9,193.9,759.9,193.9,760,194L760,194C759.9,193.9,760,193.9,760,194z"/>
	<path fill="none" d="M759.9,193.8c-0.2,0.1-0.5,0.3-0.7,0.4c0.2,0,0.5,0,0.8,0c0-0.1,0-0.1,0-0.2c0,0,0,0,0,0c0,0,0-0.1,0-0.1
		C759.9,193.9,759.9,193.8,759.9,193.8c0,0,0,0.1,0,0.1c0.2-0.1-0.1-1.1-0.1-1.7c-0.1,0-0.2,0-0.3,0
		C759.7,193,759.9,193.8,759.9,193.8z"/>
	<path fill="none" d="M759,189.5c0,0,0.2,0.7,0.3,1.5c0.1,0,0.2-0.1,0.3-0.1C759.4,190.4,759.2,189.5,759,189.5z"/>
	<path fill="none" d="M719.8,223.6c-52.8,34-97.5,79.4-130.8,132.7C621.7,304,667.4,258.1,719.8,223.6z"/>
	<path fill="none" d="M776.7,183.9c-0.5,0.3-0.9,0.5-1.2,0.7C776.3,184.1,776.9,183.9,776.7,183.9z"/>
	<path fill="none" d="M610.5,845.7c-1.5-1.9-3-3.8-4.5-5.7C606.5,841.9,608.7,843.8,610.5,845.7z"/>
	<path fill="none" d="M577.9,699.8c2.4,29.3,8.3,77,21,119.4c-12.6-41.8-18.4-90.1-20.9-119.5C578,699.7,578,699.7,577.9,699.8z"/>
	<path fill="none" d="M1152.4,199.9c-13.2-6.6-26.6-12.7-40.3-17.9c13.3,5.5,26.4,12,39.1,18h-0.2v0.2c0,0,0.1,0.1,0.1,0.1
		c0.7,0.3,1.3,0.8,2,1.1c-0.2-0.4-0.3-0.8-0.5-1.1C1152.5,200.1,1152.5,200.1,1152.4,199.9z"/>
	<path fill="none" d="M773.4,185.4C773.4,185.4,773.4,185.4,773.4,185.4c-0.4,0.1-0.8,0.3-1.2,0.5
		C772.6,185.7,773,185.6,773.4,185.4z"/>
	<path fill="none" d="M760,194.2C760,194.2,760,194.2,760,194.2c0.2,0,0.4,0.1,0.6,0.1c-0.2-0.1-0.4-0.1-0.6-0.3
		C760,194,760,194.1,760,194.2L760,194.2z"/>
	<path fill="none" d="M1350.9,683.6c2.1-6.2,4.1-12.9,6-19.8C1355,670.7,1353,677.4,1350.9,683.6z"/>
	<path fill="none" d="M1055.6,898.7c13.2-17.7,56.4-77.8,70.7-125.5c41.9-11.5,126.3-39.8,168.5-89.2c0,0,0,0-0.1-0.1
		c-42.2,49.5-126.7,77.6-168.6,89.2c-14.3,47.8-57.7,107.9-70.9,125.4c0,0-0.2,0.1-0.2,0.1c8.7,20.6,25.6,51.8,55.3,73
		c0.2-0.1,0.5-0.2,0.7-0.3C1081.6,950.2,1064.3,919.3,1055.6,898.7z"/>
	<path fill="none" d="M1357,663.8c1.9-7,3.8-14.3,5.5-21.9C1360.8,649.5,1358.9,656.8,1357,663.8z"/>
	<path fill="none" d="M1108.2,978.5C1108.2,978.5,1108.2,978.5,1108.2,978.5C1108.2,978.5,1108.2,978.5,1108.2,978.5L1108.2,978.5z"
		/>
	<path fill="none" d="M1346.6,415.1c-0.1-0.1-0.2-0.2-0.2-0.3c0,0,0,0,0,0.1c0,0,0,0.1,0,0.1c21.2,50.9,32.9,106.7,32.9,165.3
		c0,41.7-6.2,82-17.3,120.1c11.1-38.1,17.3-78.3,17.3-120.1C1379.4,521.7,1367.8,466,1346.6,415.1z"/>
	<path fill="none" d="M1364.8,630.3c1.5-7.9,2.8-15.9,3.8-24.2C1367.6,614.3,1366.3,622.4,1364.8,630.3z"/>
	<path fill="none" d="M1334.2,757.9c-0.1,4.9-0.3,9.8-0.6,15C1333.9,767.7,1334.1,762.7,1334.2,757.9c0.2-5.8,0.2-11.3,0.2-16.5
		C1334.4,746.6,1334.4,752.1,1334.2,757.9z"/>
	<path fill="none" d="M1052.6,916.1c0.6,1.2,1.3,2.4,1.9,3.6C1053.9,918.6,1053.2,917.3,1052.6,916.1z"/>
	<path fill="none" d="M1334.2,726.8L1334.2,726.8c3.6-8,8.6-19.7,13.7-34.2C1342.7,707.1,1337.8,718.9,1334.2,726.8z"/>
	<path fill="none" d="M580.6,426.8L580.6,426.8c0.2-19.2,2.2-44,8.4-70.5c1.3-5.6,2.9-11.4,4.6-17.1c0,0,0,0,0,0
		c-1.7,5.7-3.3,11.4-4.6,17C582.8,382.8,580.8,407.6,580.6,426.8z"/>
	<linearGradient id="SVGID_1_" gradientUnits="userSpaceOnUse" x1="548.0014" y1="921.5705" x2="822.9053" y2="788.1632">
		<stop  offset="1.685400e-02" style="stop-color:#000000"/>
		<stop  offset="1" style="stop-color:#AB5153"/>
	</linearGradient>
	<path fill="url(#SVGID_1_)" d="M935.7,1016.3c-219.1,103.7-546.2,211.1-546.2,211.1l166.8-178.9l-351.7,166.8
		C365.2,1042.4,504.7,812,504.7,812l-75.8,18.2l96.7-145c-6.1-24.4-10-49.7-11.7-75.6C491.1,648.4,377.1,843,348.1,893.9l72.8-16.2
		c0,0-234.5,323.4-363.8,464.9c0,0,323.4-161.7,384.1-210.2l-230.4,186c0,0,509.8-128.3,829.7-311.4c-29.4,6.3-59.9,9.7-91.2,9.7
		C944.6,1016.6,940.2,1016.4,935.7,1016.3z"/>
	<path fill="#AB5153" d="M532,1142.5l208.1-179.2c-13.8-7.5-27.1-15.9-39.9-24.8c-122.2,68.3-395.7,201-395.7,201l268.1-336.6
		c-0.2-0.3-0.4-0.6-0.6-0.9l0.5-1.4c-5.8-9.9-11.3-20-16.3-30.3l-57.6,11.5l39.4-48.5l7.4,12.6c-8-19.5-14.7-39.8-19.9-60.6
		l-96.7,145l75.8-18.2c0,0-139.5,230.4-300.2,403.3l351.7-166.8l-166.8,178.9c0,0,327.1-107.4,546.2-211.1
		c-23.7-0.7-46.9-3.3-69.5-7.6C734.4,1070.3,532,1142.5,532,1142.5z"/>
	<path fill="#FFAD48" d="M538.1,733.1l-39.4,48.5l57.6-11.5c-3.9-8-7.4-16.1-10.8-24.4L538.1,733.1z"/>
	<path fill="#FFAD48" d="M700.3,938.4c-11-7.7-21.7-15.8-31.9-24.5c-71.2,36.4-215.2,107.2-215.2,107.2l154.1-170.1
		c-12.1-15.3-24.5-31.4-34.6-48.3l-268.1,336.6C304.6,1139.4,578.1,1006.8,700.3,938.4z"/>
	<path fill="#FFAD48" d="M866.3,1008.7c-11.8-2.3-23.4-5.1-34.8-8.3c-76.3,37.2-169.1,63.2-169.1,63.2l111.7-83.8
		c-11.6-5.1-22.9-10.6-33.9-16.6L532,1142.5C532,1142.5,734.4,1070.3,866.3,1008.7z"/>
	<path fill="#FFFFFE" d="M668.4,914c-22.4-18.9-42.8-39.9-61-62.9l-154.1,170.1C453.2,1021.2,597.2,950.4,668.4,914z"/>
	<path fill="#FFFFFE" d="M831.5,1000.4c-19.7-5.5-38.9-12.4-57.4-20.5l-111.7,83.8C662.4,1063.6,755.2,1037.5,831.5,1000.4z"/>
	<path fill="#AB5153" d="M1125,763c17.6-5,42.2-12.8,67.8-23.7c40.4-17.2,83.1-41.9,103.9-75c5.3-23.7,6.9-52.6,6.9-79.4
		c-0.1-26.8-2-51.6-3.4-67.2c-19.9-48.5-63-90-104.3-121.1c-26.1-19.5-51.3-35-69.7-45.3c-39.9,15.7-107.3,62.9-132.3,77.2v231
		C1019,696.2,1108.6,752.5,1125,763z"/>
	<path fill="#AB5153" d="M796.6,184.5c30.7,2.2,68.8,10.3,100.5,33.6c69.6-8,146,3.9,172.6,8.6c13.6-5.9,41.3-17,72-24.3
		c-57.8-29.6-123.3-46.4-192.6-46.4C895.4,156,844,166.2,796.6,184.5z"/>
	<path fill="#AB5153" d="M645,465.2c35.1-34.5,111-103.7,188.1-135.5l55-106c-0.3-0.6-0.8-1.1-1.2-1.6
		c-34.7-23.6-77.2-30-107.1-30.5c-0.4,0.2-7,2.2-6.6,2.2c0.5,0,0.9,0,1.3,0c-19,8.6-37.3,18.6-54.7,29.9
		C667.4,258.1,621.7,304,589,356.3c-6.2,26.5-8.2,51.3-8.4,70.5C600.7,446.5,631.7,459.9,645,465.2z"/>
	<path fill="#AB5153" d="M1294.8,684c-42.2,49.5-126.6,77.7-168.5,89.2c-14.3,47.7-57.5,107.8-70.7,125.5
		c8.7,20.5,26.1,51.5,55.5,72.7c90-37.9,170.9-105.9,207.9-191.4c0,0,0,0,0,0c0-15.1,3.6-29,3.5-41c0-4,0.9-7.8,0.8-11.3
		C1315.5,712.4,1300.7,691.7,1294.8,684z"/>
	<path fill="#AB5153" d="M1350.5,443.3c0.4,5,0.7,10,0.8,15.1c0.1,5,0,10.1-0.3,15.1c14.5,30.4,19.9,62.9,20,94.4
		c0,13-0.8,25.8-2.3,38.2c-1,8.3-2.3,16.4-3.8,24.2c-0.7,3.9-1.5,7.8-2.4,11.6c-1.7,7.6-3.5,14.9-5.5,21.9c-1.9,7-4,13.6-6,19.8
		c-1,3.1-2.1,6.1-3.1,9c-5.1,14.5-10.1,26.3-13.7,34.2c0.1,4.4,0.2,9.3,0.2,14.5c0,5.2-0.1,10.7-0.2,16.5
		c25-54.1,39.1-114.2,39.1-177.6C1373.3,532.3,1365.2,486.3,1350.5,443.3z"/>
	<path fill="#AB5153" d="M981,655.2V428.8c-25-29.1-111.8-75.9-141.1-91.6C762,367.5,684.6,440.4,650,474.5
		c-14,62.9-10,145.2-7.4,175.3c30.8,25.5,107.4,84.9,178.4,98.1C884.2,726.1,969,670,981,655.2z"/>
	<path fill="#AB5153" d="M570.8,425.2c0.1-13.2,0.8-21.8,0.8-21.8c0.8-5.9,0.6-9.4,0.6-9.4s1.5-10.7,2.3-17c0,0,0,0,0,0.1
		c-0.1,0.6-0.2,1.4-0.3,2c-10.3,19.3-19,39.1-26.3,59.6C535.5,475,527.5,514,525.5,552h3.6C534,515,560.8,446.5,570.8,425.2z"/>
	<path fill="#AB5153" d="M1155.2,209.7c-29,5.8-56.9,16-73.8,22.9l60.6,114.2c-0.6,0.1-1.3,0.2-1.9,0.4
		c47.4,27.2,127,81,163.2,152.4c15.1-5.2,30.1-20,37.8-28.6c1.1-24.9-3-50.1-9.1-72.9C1294.1,318.5,1232,252.5,1155.2,209.7z"/>
	<path fill="#AB5153" d="M567.7,693.6C542.5,655.5,532.1,590,529.5,565h-4.3c-0.1,12-0.3,9.7-0.3,13.8c0,9.2,0.3,18.3,0.9,27.4
		c4.1,63.5,22.3,123.6,51.3,176.5C570.4,748.5,569.2,714.6,567.7,693.6z"/>
	<path fill="#AB5153" d="M766.1,963c57.9-22.2,87.8-50.7,98.9-63.3c-22.3-40.7-41-117.5-46.3-141.1C749.5,744.7,676.8,690,643,665
		c0,0,0,0,0,0c-24.3,0-53.4,25.4-64.9,34.7c2.5,29.4,8.3,77.7,20.9,119.5c0,0.1,0.1,0.3,0.2,0.4C641.1,880.9,698.7,930.6,766.1,963z
		"/>
	<path fill="#AB5153" d="M1061.5,932c-2.6-4.2-4.9-8.3-6.9-12.2c-0.7-1.2-1.3-2.4-1.9-3.6c-2-4-3.9-7.8-5.3-11.2
		c-58.5,12.7-149.8,2.8-173.5-0.2c-10.5,12.4-39.1,40.7-95.2,63.8c52.2,23,109.9,35.9,170.6,35.9c52.6,0,103-9.8,149.5-27.4
		C1083.5,964,1070.9,947.4,1061.5,932z"/>
	<path fill="#231F20" d="M959,144.2c62.5,2.8,151.7,30.3,184.7,45.7C1087.9,161.9,1025.2,145.7,959,144.2z"/>
	<path fill="#231F20" d="M759.9,193.9L759.9,193.9C759.9,193.9,759.9,193.8,759.9,193.9C759.9,193.8,759.9,193.9,759.9,193.9z"/>
	<path fill="#231F20" d="M1335.3,377.5c-0.1-0.3-0.3-0.7-0.4-1c0,0-0.1-0.1-0.2-0.3c-41.3-77.8-105.5-143.5-183.6-184.5
		c0,0,0.1-1.8,0.1-1.8l0,0c0,0,0,0,0,0c67.4,37,143.5,108.5,176.1,179.5c0,0.1,0,1.1,0,1.2c-0.2,1.3,0.8,5.1,4.4,12.3
		c-3.2-6.1-7.7-14.2-10.1-18.2c0.1,0.2,0.1,0.5,0.2,0.7c3.7,9.9,7.2,20.9,10.3,32.5c6.1,22.8,10.2,48,9.1,72.9
		c-7.8,8.5-22.8,23.4-37.8,28.6c-36.2-71.4-115.8-125.3-163.2-152.4c0.7-0.1,1.3-0.3,1.9-0.4l-60.6-114.2
		c16.8-6.9,44.7-17.1,73.8-22.8c3.1-0.6,6.3-1.7,9.4-1.7h0c0,0-0.1-0.1-0.1-0.1c-3.8-2.2-7.6-4.3-11.4-6.4c-0.6-0.4-1.3-0.7-2-1.1
		c0,0-0.1-0.2-0.1-0.2V200h0.2c-3.2,1-6.3,1.6-9.4,2.3c-30.7,7.3-58.4,18.5-72,24.4c-26.6-4.8-103-16.6-172.6-8.6
		c-31.7-23.3-69.8-31.4-100.5-33.6c-1.1-0.1-2.2,0.1-3.2,0.1c-3.9,1.7-7.8,3.4-11.6,5.4c0,0-0.1,0-0.1,0c-0.1,0-14.8,1.6-21.8,2.4
		c0,0.6,0.3,1.4,0.1,1.6c0,0,0,0,0,0c0.2,0.1-1.6,0.1-1.4,0.2c-0.2,0-2.6-0.1-2.6-0.1s0,0,0,0c0,0,1.5,0,1.2,0
		c0.2-0.1,1.5-0.3,1.7-0.4c0,0,0.3-0.7,0.2-1.6c-1.9,0.2-3,0.4-3.1,0.4c-0.5,0,1-0.7,3.2-1.6c-0.2-0.8-0.3-1.5-0.3-1.5
		c0.2,0,0.4,0.9,0.6,1.4c1.6-0.7,3.6-1.5,5.6-2.3c1.7-1.3,3.5-2.3,5.8-3.4c30.8-18,107.7-38.4,165.7-41.1
		c-234.9,6.6-424,199.6-424,436c0,9.9,0.4,19.6,1.1,29.4c2.6-4.4,4-6.9,4-6.9l1.6,1c-0.4-7.8-0.7-17.2-0.7-25.1
		c0,7.9,0.2,16.5,0.7,24.3c1.4,25.5,5.1,50.8,10.7,74.9c9.6,41.1,25.1,80.3,45.6,116c0.6,1,1.1,2.1,1.6,3.1c0.9,1.6,2,3.2,3,4.8
		c0.3,3.2,0.6,6.4,0.6,9.4c0,0,0,0,0,0c0,0.1,2.7,0.2,2.8,0.4c6,9.5,13.8,18.7,20.5,27.6c0,0,1,0.1,1.3,0.1c0.1,0,0.3,0,0.3,0
		c0,0,0,0,0,0c0-6.3-4.7-12.9-6.8-19.7c0-0.1-0.2-0.3-0.2-0.4c-12.8-42.4-18.6-90.2-21-119.4c0,0,0.1,0,0.1-0.1
		c11.5-9.3,40.7-34.7,64.9-34.7c0,0,0,0,0,0c33.8,25,106.5,79.7,175.7,93.6c5.4,23.6,24,100.5,46.3,141.2c0.1,0.2,0.2,0.3,0.3,0.5
		c-11,12.5-41,40.8-99.2,63.1c-2.5,1-5.1,1.8-7.7,2.7c0.2,0.1,0.4,0.2,0.6,0.3c3.8,1.9,7.6,3.6,11.4,5.4c0.1,0,0.1,0.1,0.2,0.1l0,0
		c3,1.3,5.9,2.7,8.9,4c19.3,8.3,39.3,15.2,59.9,20.6c11.9,3.1,24,5.7,36.2,7.8c11.7,2,23.6,3.6,35.6,4.6c12,1.1,24.2,1.6,36.5,1.7
		c0.5,0,0.9,0,1.4,0c36.3,0,71.4-4.6,105-13.1c1.3-0.3,2.6-0.6,3.9-0.9c-5.1,3-10.3,6-15.5,9c195.8-42.9,342.8-216.9,342.8-425.4
		C1385.4,507.1,1367.3,438.1,1335.3,377.5z M548,438.7c7.2-20.5,16-40.4,26.3-59.7c0.1-0.6,0.2-1.3,0.3-2c0.1-0.9,0.3-1.9,0.4-2.8
		c-0.1,0.7-0.2,1.7-0.4,2.8c-0.9,6.2-2.3,17-2.3,17s0.2,3.5-0.6,9.5c0,0-0.7,8.5-0.8,21.8C560.8,446.5,534,515,529,552h-3.6
		C527.5,513,535.4,474.6,548,438.7z M525.8,606.1c-0.6-9.1-0.9-18.1-0.9-27.3c0-4.1,0.2-1.8,0.3-13.8h4.3c2.6,25,13,90.5,38.2,128.6
		c1.6,21,2.8,54.9,9.4,89c0.1,0.4,0.2,0.8,0.2,1.2C548.2,730.8,529.9,669.9,525.8,606.1z M994,428.5c25-14.3,92.3-61.4,132.2-77.2
		c0,0,0,0,0,0c18.4,10.3,43.7,25.7,69.8,45.3c41.3,31,84.3,72.5,104.3,121.1c1.4,15.6,3.2,40.4,3.4,67.2c0.1,26.8-1.4,55.7-6.6,79.4
		c-20.8,33.1-63.7,57.8-104.3,75c-25.6,10.8-50.3,18.7-67.9,23.7c0,0,0.1,0,0.1,0c-16.3-10.4-105.9-66.8-130.9-103.5V428.5z
		 M593.6,339.2c-1.7,5.8-3.3,11.5-4.6,17.1c33.3-53.3,78-98.7,130.8-132.7c17.4-11.2,35.7-21.2,54.7-29.9c-0.5,0-0.9,0-1.3,0
		c-0.3,0,6.2-2,6.6-2.2c30,0.5,72.4,6.9,107.1,30.5c0.5,0.3,1,0.6,1.5,0.9l-0.4,0.7l-55,106c-77,31.8-153,101-188.1,135.5
		c-13.4-5.3-44.3-18.7-64.4-38.4l0,0c0.2-19.2,2.2-44,8.4-70.5C590.4,350.6,591.9,345,593.6,339.2
		C593.6,339.2,593.6,339.2,593.6,339.2z M821.1,747.8c-71-13.2-147.7-72.6-178.5-98.1c-2.6-30.1-6.6-112.4,7.4-175.3
		c34.6-34.1,111.9-107,189.8-137.3c29.4,15.7,116.1,62.6,141.1,91.6v226.4C969,670,884.2,726.1,821.1,747.8z M949.1,1004.5
		c-60.7,0-118.3-12.9-170.6-35.9c56.1-23.1,84.8-51.5,95.2-63.8c23.7,3,115,12.9,173.5,0.2c1.5,3.4,3.3,7.2,5.3,11.2
		c0.6,1.2,1.3,2.4,1.9,3.6c2.1,3.9,4.4,8,6.9,12.2c9.4,15.4,22,32,37.1,45.1C1052.1,994.7,1001.7,1004.5,949.1,1004.5z
		 M1108.2,978.5L1108.2,978.5C1108.2,978.5,1108.2,978.5,1108.2,978.5C1108.2,978.5,1108.2,978.5,1108.2,978.5z M1319,780
		C1319,780,1319,780,1319,780c-37,85.5-117.9,153.5-207.9,191.4c-0.2,0.1-0.5,0.2-0.7,0.3c-29.7-21.2-46.6-52.3-55.3-73
		c0,0,0.2-0.1,0.2-0.1c13.1-17.6,56.6-77.7,70.9-125.4c41.9-11.5,126.4-39.7,168.6-89.2c0,0,0,0,0,0.1c5.9,7.7,20.7,28.4,28.5,43.7
		c0.1,3.5-0.8,7.3-0.8,11.3C1322.6,751,1319,764.9,1319,780z M1333.6,772.9c0.3-5.2,0.5-10.2,0.6-15c0.2-5.8,0.2-11.3,0.2-16.5
		c0-5.2-0.1-10.1-0.2-14.5v0c3.6-8,8.6-19.7,13.7-34.2c1-2.9,2.1-5.9,3.1-9c2.1-6.2,4.1-12.9,6-19.8c1.9-7,3.8-14.3,5.5-21.9
		c0.8-3.8,1.6-7.7,2.4-11.6c1.5-7.9,2.8-15.9,3.8-24.2c1.5-12.4,2.4-25.2,2.3-38.2c-0.1-31.5-5.5-64-20-94.4
		c0.3-5,0.4-10.1,0.3-15.1c-0.1-5-0.4-10.1-0.8-15.1c14.7,43,22.8,89.1,22.8,137c0,63.4-14.1,123.5-39.1,177.6
		C1334.1,762.7,1333.9,767.7,1333.6,772.9z M1379.4,580.3c0-58.6-11.7-114.4-32.9-165.3c0,0,0-0.1,0-0.1c0,0,0,0,0-0.1
		c-0.1-0.1-0.1-0.3-0.2-0.4c-0.7-1.6-1.4-3.8-2-6.1c-0.6-2.1-1.2-4.4-1.9-6.8c6.4,11.8,14.1,26.5,11.5,22c1.5,4.1-2.3-1.3-7.1-8.3
		C1367.8,466,1379.4,521.7,1379.4,580.3c0.1,41.8-6.1,82-17.3,120.1C1373.2,662.2,1379.4,622,1379.4,580.3z"/>
	<path fill="#231F20" d="M759.9,194C759.9,194,759.9,194,759.9,194C760,193.9,759.9,193.9,759.9,194
		C759.9,193.9,759.9,194,759.9,194z"/>
	<path fill="#231F20" d="M760,194.2L760,194.2c0-0.1,0-0.1,0-0.2l0,0C760,194,760,194.1,760,194.2z"/>
	<path fill="#231F20" d="M772.2,185.9c0.4-0.2,0.8-0.4,1.2-0.5c0-0.3,1.5-1.5,1.2-1.5c-1.4,0.6-2.4,1-3.5,1.5
		c-1.6,0.9-2.8,1.8-4.1,2.7C768.8,187.2,770.6,186.5,772.2,185.9z"/>
	<linearGradient id="SVGID_2_" gradientUnits="userSpaceOnUse" x1="667.2544" y1="1167.3075" x2="942.1583" y2="1033.9001">
		<stop  offset="1.685400e-02" style="stop-color:#000000"/>
		<stop  offset="1" style="stop-color:#AB5153"/>
	</linearGradient>
	<path fill="url(#SVGID_2_)" d="M1054.1,997.5c-33.6,8.4-68.8,13.1-105,13.1c-0.5,0-0.9,0-1.4,0c-4,1.9-7.9,3.8-12,5.8
		c4.4,0.1,8.9,0.3,13.4,0.3c31.3,0,61.8-3.4,91.2-9.7c0.8-0.4,1.5-0.9,2.3-1.3c-0.8,0.2-1.5,0.4-2.3,0.5
		C1045,1003.5,1049.6,1000.4,1054.1,997.5z"/>
	<linearGradient id="SVGID_3_" gradientUnits="userSpaceOnUse" x1="1234.149" y1="684.1328" x2="982.4921" y2="1023.7179">
		<stop  offset="1.685400e-02" style="stop-color:#000000"/>
		<stop  offset="1" style="stop-color:#AB5153"/>
	</linearGradient>
	<path fill="url(#SVGID_3_)" d="M1054.1,997.5c-33.6,8.4-68.8,13.1-105,13.1c-0.5,0-0.9,0-1.4,0c-4,1.9-7.9,3.8-12,5.8
		c4.4,0.1,8.9,0.3,13.4,0.3c31.3,0,61.8-3.4,91.2-9.7c0.8-0.4,1.5-0.9,2.3-1.3c-0.8,0.2-1.5,0.4-2.3,0.5
		C1045,1003.5,1049.6,1000.4,1054.1,997.5z"/>
	<path fill="#231F20" d="M1054.1,997.5c-4.6,2.9-9.2,6-13.8,8.7c0.8-0.2,1.5-0.4,2.3-0.5c5.2-3,10.4-6,15.5-9
		C1056.8,997,1055.4,997.2,1054.1,997.5z"/>
	<linearGradient id="SVGID_4_" gradientUnits="userSpaceOnUse" x1="674.8064" y1="1182.8694" x2="949.7103" y2="1049.4622">
		<stop  offset="1.685400e-02" style="stop-color:#000000"/>
		<stop  offset="1" style="stop-color:#AB5153"/>
	</linearGradient>
	<path fill="url(#SVGID_4_)" d="M1054.1,997.5c-4.6,2.9-9.2,6-13.8,8.7c0.8-0.2,1.5-0.4,2.3-0.5c5.2-3,10.4-6,15.5-9
		C1056.8,997,1055.4,997.2,1054.1,997.5z"/>
	<linearGradient id="SVGID_5_" gradientUnits="userSpaceOnUse" x1="1266.5276" y1="708.1276" x2="1014.8707" y2="1047.7128">
		<stop  offset="1.685400e-02" style="stop-color:#000000"/>
		<stop  offset="1" style="stop-color:#AB5153"/>
	</linearGradient>
	<path fill="url(#SVGID_5_)" d="M1054.1,997.5c-4.6,2.9-9.2,6-13.8,8.7c0.8-0.2,1.5-0.4,2.3-0.5c5.2-3,10.4-6,15.5-9
		C1056.8,997,1055.4,997.2,1054.1,997.5z"/>
	<linearGradient id="SVGID_6_" gradientUnits="userSpaceOnUse" x1="433.959" y1="686.5705" x2="708.8629" y2="553.1632">
		<stop  offset="1.685400e-02" style="stop-color:#000000"/>
		<stop  offset="1" style="stop-color:#AB5153"/>
	</linearGradient>
	<path fill="url(#SVGID_6_)" d="M530.2,678.3c-5.6-24.1-9.3-49-10.7-74.5l-1.6-1c0,0-1.5,2.5-4,6.9c1.7,25.9,5.7,51.1,11.7,75.6
		L530.2,678.3z"/>
	<linearGradient id="SVGID_7_" gradientUnits="userSpaceOnUse" x1="755.0721" y1="329.1024" x2="503.4152" y2="668.6876">
		<stop  offset="1.685400e-02" style="stop-color:#000000"/>
		<stop  offset="1" style="stop-color:#AB5153"/>
	</linearGradient>
	<path fill="url(#SVGID_7_)" d="M530.2,678.3c-5.6-24.1-9.3-49-10.7-74.5l-1.6-1c0,0-1.5,2.5-4,6.9c1.7,25.9,5.7,51.1,11.7,75.6
		L530.2,678.3z"/>
	<path fill="#AB5153" d="M740.2,963.3l4.8-4.1c-13.5-7.3-26.5-15.3-39-23.9c-1.9,1-3.7,2.1-5.7,3.2
		C713.1,947.4,726.4,955.7,740.2,963.3z"/>
	<linearGradient id="SVGID_8_" gradientUnits="userSpaceOnUse" x1="1030.5548" y1="533.2548" x2="778.8978" y2="872.84">
		<stop  offset="1.685400e-02" style="stop-color:#000000"/>
		<stop  offset="1" style="stop-color:#AB5153"/>
	</linearGradient>
	<path fill="url(#SVGID_8_)" d="M740.2,963.3l4.8-4.1c-13.5-7.3-26.5-15.3-39-23.9c-1.9,1-3.7,2.1-5.7,3.2
		C713.1,947.4,726.4,955.7,740.2,963.3z"/>
	<path fill="#AB5153" d="M866.3,1008.7c22.6,4.4,45.8,6.9,69.5,7.6c4.1-1.9,8-3.8,12-5.8c-12.3,0-24.4-0.6-36.5-1.7
		c-12-1.1-23.9-2.6-35.6-4.6C872.6,1005.7,869.5,1007.2,866.3,1008.7z"/>
	<linearGradient id="SVGID_9_" gradientUnits="userSpaceOnUse" x1="1178.6692" y1="643.0182" x2="927.0123" y2="982.6034">
		<stop  offset="1.685400e-02" style="stop-color:#000000"/>
		<stop  offset="1" style="stop-color:#AB5153"/>
	</linearGradient>
	<path fill="url(#SVGID_9_)" d="M866.3,1008.7c22.6,4.4,45.8,6.9,69.5,7.6c4.1-1.9,8-3.8,12-5.8c-12.3,0-24.4-0.6-36.5-1.7
		c-12-1.1-23.9-2.6-35.6-4.6C872.6,1005.7,869.5,1007.2,866.3,1008.7z"/>
	<path fill="#AB5153" d="M559.3,769.5l-3,0.6c5,10.4,10.5,20.4,16.3,30.3l2.5-7.4c0.2,0.3,0.4,0.5,0.6,0.8
		c-20.4-35.6-36-74.4-45.6-115.5l-4.6,6.9c5.2,20.8,11.8,41.1,19.9,60.6L559.3,769.5z"/>
	<linearGradient id="SVGID_10_" gradientUnits="userSpaceOnUse" x1="819.8676" y1="377.1205" x2="568.2107" y2="716.7057">
		<stop  offset="1.685400e-02" style="stop-color:#000000"/>
		<stop  offset="1" style="stop-color:#AB5153"/>
	</linearGradient>
	<path fill="url(#SVGID_10_)" d="M559.3,769.5l-3,0.6c5,10.4,10.5,20.4,16.3,30.3l2.5-7.4c0.2,0.3,0.4,0.5,0.6,0.8
		c-20.4-35.6-36-74.4-45.6-115.5l-4.6,6.9c5.2,20.8,11.8,41.1,19.9,60.6L559.3,769.5z"/>
	<path fill="#FFAD48" d="M545.4,745.8c3.4,8.2,7,16.4,10.8,24.4l3-0.6L545.4,745.8z"/>
	<linearGradient id="SVGID_11_" gradientUnits="userSpaceOnUse" x1="829.2371" y1="384.064" x2="577.5802" y2="723.6491">
		<stop  offset="1.685400e-02" style="stop-color:#000000"/>
		<stop  offset="1" style="stop-color:#AB5153"/>
	</linearGradient>
	<path fill="url(#SVGID_11_)" d="M545.4,745.8c3.4,8.2,7,16.4,10.8,24.4l3-0.6L545.4,745.8z"/>
	<linearGradient id="SVGID_12_" gradientUnits="userSpaceOnUse" x1="889.6903" y1="384.8862" x2="620.507" y2="748.1213">
		<stop  offset="1.685400e-02" style="stop-color:#000000"/>
		<stop  offset="1" style="stop-color:#AB5153"/>
	</linearGradient>
	<path fill="url(#SVGID_12_)" d="M580.8,811.2c0-3-0.2-6.2-0.5-9.4c-1-1.6-2-3.2-2.9-4.8l-1.5,1.9
		C578.4,803,580.8,807.1,580.8,811.2z"/>
	<linearGradient id="SVGID_13_" gradientUnits="userSpaceOnUse" x1="883.9495" y1="380.6318" x2="614.7662" y2="743.8669">
		<stop  offset="1.685400e-02" style="stop-color:#000000"/>
		<stop  offset="1" style="stop-color:#AB5153"/>
	</linearGradient>
	<path fill="url(#SVGID_13_)" d="M577.4,797c-0.6-1-1.1-2.1-1.6-3.1c0,0,0,0,0,0C576.3,794.9,576.8,795.9,577.4,797z"/>
	<path fill="#AB5153" d="M572.8,800.7c0-0.1-0.1-0.2-0.1-0.2l-0.5,1.4L572.8,800.7z"/>
	<linearGradient id="SVGID_14_" gradientUnits="userSpaceOnUse" x1="884.0131" y1="380.679" x2="614.8298" y2="743.9141">
		<stop  offset="1.685400e-02" style="stop-color:#000000"/>
		<stop  offset="1" style="stop-color:#AB5153"/>
	</linearGradient>
	<path fill="url(#SVGID_14_)" d="M572.8,800.7c0-0.1-0.1-0.2-0.1-0.2l-0.5,1.4L572.8,800.7z"/>
	<path fill="#AB5153" d="M575.2,793.1l-2.5,7.4c0,0.1,0.1,0.2,0.1,0.2l2-3.8c0.4,0.6,0.7,1.3,1.1,1.9l1.5-1.9
		c-0.6-1-1.1-2.1-1.7-3.1C575.6,793.6,575.3,793.3,575.2,793.1z"/>
	<linearGradient id="SVGID_15_" gradientUnits="userSpaceOnUse" x1="862.5378" y1="408.7422" x2="610.8809" y2="748.3273">
		<stop  offset="1.685400e-02" style="stop-color:#000000"/>
		<stop  offset="1" style="stop-color:#AB5153"/>
	</linearGradient>
	<path fill="url(#SVGID_15_)" d="M575.2,793.1l-2.5,7.4c0,0.1,0.1,0.2,0.1,0.2l2-3.8c0.4,0.6,0.7,1.3,1.1,1.9l1.5-1.9
		c-0.6-1-1.1-2.1-1.7-3.1C575.6,793.6,575.3,793.3,575.2,793.1z"/>
	<linearGradient id="SVGID_16_" gradientUnits="userSpaceOnUse" x1="883.5752" y1="380.3544" x2="614.3919" y2="743.5895">
		<stop  offset="1.685400e-02" style="stop-color:#000000"/>
		<stop  offset="1" style="stop-color:#AB5153"/>
	</linearGradient>
	<path fill="url(#SVGID_16_)" d="M575.2,793.1l-2.5,7.4c0,0.1,0.1,0.2,0.1,0.2l2-3.8c0.4,0.6,0.7,1.3,1.1,1.9l1.5-1.9
		c-0.6-1-1.1-2.1-1.7-3.1C575.6,793.6,575.3,793.3,575.2,793.1z"/>
	<path fill="#FFAD48" d="M574.8,797l-2,3.8l-0.6,1.2c0.2,0.3,0.4,0.6,0.6,0.9c10.1,16.9,22.5,33,34.6,48.3l4-4.4
		c-0.3-0.3-0.5-0.7-0.8-1c-1.8-1.9-4-3.8-4.5-5.7c-0.2-0.2-0.3-0.4-0.5-0.6c-0.4,0-1.2-0.1-1.3-0.1c-6.7-9-14.5-18.2-20.5-27.6
		c-0.1-0.1-2.8-0.2-2.8-0.4c0,0,0,0,0,0c0-4.1-2.5-8.2-5-12.3C575.6,798.2,575.1,797.6,574.8,797z"/>
	<linearGradient id="SVGID_17_" gradientUnits="userSpaceOnUse" x1="907.2241" y1="397.88" x2="638.0408" y2="761.1151">
		<stop  offset="1.685400e-02" style="stop-color:#000000"/>
		<stop  offset="1" style="stop-color:#AB5153"/>
	</linearGradient>
	<path fill="url(#SVGID_17_)" d="M574.8,797l-2,3.8l-0.6,1.2c0.2,0.3,0.4,0.6,0.6,0.9c10.1,16.9,22.5,33,34.6,48.3l4-4.4
		c-0.3-0.3-0.5-0.7-0.8-1c-1.8-1.9-4-3.8-4.5-5.7c-0.2-0.2-0.3-0.4-0.5-0.6c-0.4,0-1.2-0.1-1.3-0.1c-6.7-9-14.5-18.2-20.5-27.6
		c-0.1-0.1-2.8-0.2-2.8-0.4c0,0,0,0,0,0c0-4.1-2.5-8.2-5-12.3C575.6,798.2,575.1,797.6,574.8,797z"/>
	<path fill="#FFAD48" d="M700.3,938.4c1.9-1.1,3.8-2.1,5.7-3.2c-11-7.6-21.7-15.6-32-24.2c-1.8,0.9-3.7,1.9-5.6,2.9
		C678.6,922.6,689.3,930.8,700.3,938.4z"/>
	<linearGradient id="SVGID_18_" gradientUnits="userSpaceOnUse" x1="996.1061" y1="507.7259" x2="744.4491" y2="847.311">
		<stop  offset="1.685400e-02" style="stop-color:#000000"/>
		<stop  offset="1" style="stop-color:#AB5153"/>
	</linearGradient>
	<path fill="url(#SVGID_18_)" d="M700.3,938.4c1.9-1.1,3.8-2.1,5.7-3.2c-11-7.6-21.7-15.6-32-24.2c-1.8,0.9-3.7,1.9-5.6,2.9
		C678.6,922.6,689.3,930.8,700.3,938.4z"/>
	<path fill="#FFAD48" d="M831.5,1000.4c11.4,3.2,23,6,34.8,8.3c3.2-1.5,6.3-3,9.4-4.4c-12.3-2.1-24.4-4.7-36.2-7.8
		C836.8,997.8,834.1,999.1,831.5,1000.4z"/>
	<linearGradient id="SVGID_19_" gradientUnits="userSpaceOnUse" x1="1140.686" y1="614.87" x2="889.0291" y2="954.4551">
		<stop  offset="1.685400e-02" style="stop-color:#000000"/>
		<stop  offset="1" style="stop-color:#AB5153"/>
	</linearGradient>
	<path fill="url(#SVGID_19_)" d="M831.5,1000.4c11.4,3.2,23,6,34.8,8.3c3.2-1.5,6.3-3,9.4-4.4c-12.3-2.1-24.4-4.7-36.2-7.8
		C836.8,997.8,834.1,999.1,831.5,1000.4z"/>
	<path fill="#FFAD48" d="M758.2,965.9c-4.5-2.2-8.9-4.4-13.3-6.8l-4.8,4.1c11,6,22.4,11.5,33.9,16.6l5.4-4.1c-3-1.3-5.9-2.7-8.9-4
		l0,0c-0.1,0-0.1-0.1-0.2-0.1c-3.8-1.7-7.6-3.5-11.4-5.4c-0.2-0.1-0.4-0.2-0.6-0.3C758.4,966,758.3,966,758.2,965.9
		C758.2,965.9,758.2,965.9,758.2,965.9z"/>
	<linearGradient id="SVGID_20_" gradientUnits="userSpaceOnUse" x1="1064.507" y1="558.4158" x2="812.85" y2="898.001">
		<stop  offset="1.685400e-02" style="stop-color:#000000"/>
		<stop  offset="1" style="stop-color:#AB5153"/>
	</linearGradient>
	<path fill="url(#SVGID_20_)" d="M758.2,965.9c-4.5-2.2-8.9-4.4-13.3-6.8l-4.8,4.1c11,6,22.4,11.5,33.9,16.6l5.4-4.1
		c-3-1.3-5.9-2.7-8.9-4l0,0c-0.1,0-0.1-0.1-0.2-0.1c-3.8-1.7-7.6-3.5-11.4-5.4c-0.2-0.1-0.4-0.2-0.6-0.3
		C758.4,966,758.3,966,758.2,965.9C758.2,965.9,758.2,965.9,758.2,965.9z"/>
	<path fill="#FFFFFE" d="M668.4,914c1.9-1,3.8-1.9,5.6-2.9c-23.1-19.2-44-40.8-62.7-64.4l-4,4.4C625.6,874,646,895.1,668.4,914z"/>
	<linearGradient id="SVGID_21_" gradientUnits="userSpaceOnUse" x1="945.2772" y1="470.058" x2="693.6202" y2="809.6431">
		<stop  offset="1.685400e-02" style="stop-color:#000000"/>
		<stop  offset="1" style="stop-color:#AB5153"/>
	</linearGradient>
	<path fill="url(#SVGID_21_)" d="M668.4,914c1.9-1,3.8-1.9,5.6-2.9c-23.1-19.2-44-40.8-62.7-64.4l-4,4.4
		C625.6,874,646,895.1,668.4,914z"/>
	<path fill="#FFFFFE" d="M774.1,979.9c18.5,8.1,37.6,15,57.4,20.5c2.7-1.3,5.4-2.6,8-4c-20.6-5.4-40.6-12.3-59.9-20.6L774.1,979.9z"
		/>
	<linearGradient id="SVGID_22_" gradientUnits="userSpaceOnUse" x1="1103.7106" y1="587.4685" x2="852.0536" y2="927.0536">
		<stop  offset="1.685400e-02" style="stop-color:#000000"/>
		<stop  offset="1" style="stop-color:#AB5153"/>
	</linearGradient>
	<path fill="url(#SVGID_22_)" d="M774.1,979.9c18.5,8.1,37.6,15,57.4,20.5c2.7-1.3,5.4-2.6,8-4c-20.6-5.4-40.6-12.3-59.9-20.6
		L774.1,979.9z"/>
	<path fill="#773E3F" d="M793.3,184.4c1.1,0,2.1,0.1,3.2,0.2C795.7,184.5,794.6,184.4,793.3,184.4
		C793.4,184.3,793.4,184.4,793.3,184.4z"/>
	<linearGradient id="SVGID_23_" gradientUnits="userSpaceOnUse" x1="941.0082" y1="470.3002" x2="683.1814" y2="818.2109">
		<stop  offset="1.685400e-02" style="stop-color:#000000"/>
		<stop  offset="1" style="stop-color:#AB5153"/>
	</linearGradient>
	<path fill="url(#SVGID_23_)" d="M1143.7,189.9c2.5,1.2,4.9,2.5,7.3,3.8C1149.1,192.5,1146.6,191.3,1143.7,189.9z"/>
	<linearGradient id="SVGID_24_" gradientUnits="userSpaceOnUse" x1="800.416" y1="405.2834" x2="518.8254" y2="785.2609">
		<stop  offset="1.685400e-02" style="stop-color:#000000"/>
		<stop  offset="1" style="stop-color:#AB5153"/>
	</linearGradient>
	<path fill="url(#SVGID_24_)" d="M781.8,183.8c51.4-21.8,108-33.8,167.3-33.8c57.7,0,112.7,11.5,163,32.2
		c13.7,5.2,27.2,11.2,40.3,17.8c-0.4-0.9-0.8-1.8-1.1-2.6c-61.2-30.6-128.5-48.6-199.7-48.6c-61.4,0-121.7,12-175,35
		c0.2,0-0.4,0.3-1.2,0.7c-1.4,0.7-2,1-2.1,0.9c-0.4,0.1-0.8,0.3-1.2,0.5c-2.2,1-4.4,2-6.6,3c-0.3,0.2-0.6,0.4-0.8,0.5
		c-0.4,0.1-0.8,0.3-1.2,0.5c0.1-0.1,0.3-0.2,0.4-0.3c-1.3,0.6-2.7,1.2-4,1.8c-0.1,0.1-0.2-0.2-0.3-0.5c-0.1,0-0.2,0.1-0.3,0.1
		c0.1,0.4,0.2,0.7,0.2,1.1c0.1,0,0.2,0,0.3,0c0-0.2,0-0.3,0.1-0.4c1.2-0.6,2.4-0.7,3.6-1.1c0.4-0.2,0.8,0.4,1.2,0.2
		c5.4-2,10.9-1.5,16.5-3.8c0.1-0.1,0.3,3,0.4,3c0,0,0.1,0,0.1,0c1.8,0,5.1-3.4,7.9-5.6C787,184.3,784.3,183.9,781.8,183.8z"/>
	<path fill="#231F20" d="M764.8,190.9c-0.4,0.1-0.8-0.4-1.2-0.2c-1.2,0.5-2.4,0.6-3.6,1.1c-0.1,0-0.1,0.2-0.1,0.4
		c6.9-0.9,21.7-2.6,21.8-2.6c-0.1,0-0.3-2.8-0.4-2.7C775.7,189.1,770.2,188.9,764.8,190.9z"/>
	<linearGradient id="SVGID_25_" gradientUnits="userSpaceOnUse" x1="678.6111" y1="315.0173" x2="397.0206" y2="694.9948">
		<stop  offset="1.685400e-02" style="stop-color:#000000"/>
		<stop  offset="1" style="stop-color:#AB5153"/>
	</linearGradient>
	<path fill="url(#SVGID_25_)" d="M764.8,190.9c-0.4,0.1-0.8-0.4-1.2-0.2c-1.2,0.5-2.4,0.6-3.6,1.1c-0.1,0-0.1,0.2-0.1,0.4
		c6.9-0.9,21.7-2.6,21.8-2.6c-0.1,0-0.3-2.8-0.4-2.7C775.7,189.1,770.2,188.9,764.8,190.9z"/>
	<path fill="#231F20" d="M789.7,184.2c-2.9,2.1-6.2,5.3-7.9,5.3c3.8-1.8,7.7-3.5,11.6-5.2c-1.1,0-2.2-0.1-3.3-0.2
		C789.9,184.2,789.8,184.2,789.7,184.2z"/>
	<linearGradient id="SVGID_26_" gradientUnits="userSpaceOnUse" x1="687.6679" y1="321.729" x2="406.0773" y2="701.7065">
		<stop  offset="1.685400e-02" style="stop-color:#000000"/>
		<stop  offset="1" style="stop-color:#AB5153"/>
	</linearGradient>
	<path fill="url(#SVGID_26_)" d="M789.7,184.2c-2.9,2.1-6.2,5.3-7.9,5.3c3.8-1.8,7.7-3.5,11.6-5.2c-1.1,0-2.2-0.1-3.3-0.2
		C789.9,184.2,789.8,184.2,789.7,184.2z"/>
	<path fill="#231F20" d="M763.9,189.6c0.4-0.4,0.9-0.6,1.3-0.9c-2.1,0.8-4,1.6-5.6,2.3c0.1,0.3,0.2,0.5,0.3,0.5
		C761.2,190.8,762.6,190.3,763.9,189.6z"/>
	<linearGradient id="SVGID_27_" gradientUnits="userSpaceOnUse" x1="672.8179" y1="310.7242" x2="391.2274" y2="690.7016">
		<stop  offset="1.685400e-02" style="stop-color:#000000"/>
		<stop  offset="1" style="stop-color:#AB5153"/>
	</linearGradient>
	<path fill="url(#SVGID_27_)" d="M763.9,189.6c0.4-0.4,0.9-0.6,1.3-0.9c-2.1,0.8-4,1.6-5.6,2.3c0.1,0.3,0.2,0.5,0.3,0.5
		C761.2,190.8,762.6,190.3,763.9,189.6z"/>
	<path fill="#231F20" d="M756.3,192.6c0,0,1.4-0.2,3.3-0.4c-0.1-0.4-0.2-0.7-0.2-1.1C757.2,192,755.8,192.6,756.3,192.6z"/>
	<linearGradient id="SVGID_28_" gradientUnits="userSpaceOnUse" x1="671.1145" y1="309.4618" x2="389.5239" y2="689.4392">
		<stop  offset="1.685400e-02" style="stop-color:#000000"/>
		<stop  offset="1" style="stop-color:#AB5153"/>
	</linearGradient>
	<path fill="url(#SVGID_28_)" d="M756.3,192.6c0,0,1.4-0.2,3.3-0.4c-0.1-0.4-0.2-0.7-0.2-1.1C757.2,192,755.8,192.6,756.3,192.6z"/>
	<path fill="#231F20" d="M765.6,188.9c2.2-1,4.4-2,6.6-3c-1.6,0.6-3.4,1.4-5.3,2.1C766.5,188.3,766,188.6,765.6,188.9z"/>
	<linearGradient id="SVGID_29_" gradientUnits="userSpaceOnUse" x1="675.8309" y1="312.957" x2="394.2404" y2="692.9344">
		<stop  offset="1.685400e-02" style="stop-color:#000000"/>
		<stop  offset="1" style="stop-color:#AB5153"/>
	</linearGradient>
	<path fill="url(#SVGID_29_)" d="M765.6,188.9c2.2-1,4.4-2,6.6-3c-1.6,0.6-3.4,1.4-5.3,2.1C766.5,188.3,766,188.6,765.6,188.9z"/>
	<path fill="#773E3F" d="M790,184.2c1.1,0.1,2.2,0.1,3.3,0.2c0,0,0,0,0,0C792.3,184.3,791.2,184.2,790,184.2z"/>
	<linearGradient id="SVGID_30_" gradientUnits="userSpaceOnUse" x1="689.0805" y1="322.7758" x2="407.4899" y2="702.7533">
		<stop  offset="1.685400e-02" style="stop-color:#000000"/>
		<stop  offset="1" style="stop-color:#AB5153"/>
	</linearGradient>
	<path fill="url(#SVGID_30_)" d="M790,184.2c1.1,0.1,2.2,0.1,3.3,0.2c0,0,0,0,0,0C792.3,184.3,791.2,184.2,790,184.2z"/>
	<linearGradient id="SVGID_31_" gradientUnits="userSpaceOnUse" x1="692.7432" y1="286.3181" x2="434.9164" y2="634.2287">
		<stop  offset="1.685400e-02" style="stop-color:#000000"/>
		<stop  offset="1" style="stop-color:#AB5153"/>
	</linearGradient>
	<path fill="url(#SVGID_31_)" d="M763.5,189.9c0.4-0.2,0.8-0.4,1.2-0.5c0.2-0.2,0.6-0.4,0.8-0.5c-0.5,0.3-1.1,0.5-1.6,0.7
		C763.8,189.7,763.7,189.8,763.5,189.9z"/>
	<linearGradient id="SVGID_32_" gradientUnits="userSpaceOnUse" x1="674.0051" y1="311.6031" x2="392.4146" y2="691.5806">
		<stop  offset="1.685400e-02" style="stop-color:#000000"/>
		<stop  offset="1" style="stop-color:#AB5153"/>
	</linearGradient>
	<path fill="url(#SVGID_32_)" d="M763.5,189.9c0.4-0.2,0.8-0.4,1.2-0.5c0.2-0.2,0.6-0.4,0.8-0.5c-0.5,0.3-1.1,0.5-1.6,0.7
		C763.8,189.7,763.7,189.8,763.5,189.9z"/>
	<linearGradient id="SVGID_33_" gradientUnits="userSpaceOnUse" x1="697.2159" y1="289.6327" x2="439.3892" y2="637.5433">
		<stop  offset="1.685400e-02" style="stop-color:#000000"/>
		<stop  offset="1" style="stop-color:#AB5153"/>
	</linearGradient>
	<path fill="url(#SVGID_33_)" d="M775.5,184.5c0.4-0.2,0.7-0.4,1.2-0.7c-1.1,0.5-2.2,1-3.3,1.5c0,0,0,0.1,0,0.1
		C774.2,185.1,774.9,184.8,775.5,184.5z"/>
	<linearGradient id="SVGID_34_" gradientUnits="userSpaceOnUse" x1="678.2476" y1="314.7479" x2="396.657" y2="694.7253">
		<stop  offset="1.685400e-02" style="stop-color:#000000"/>
		<stop  offset="1" style="stop-color:#AB5153"/>
	</linearGradient>
	<path fill="url(#SVGID_34_)" d="M775.5,184.5c-0.6,0.3-1.2,0.5-2.1,0.9C773.5,185.5,774.1,185.3,775.5,184.5z"/>
	<linearGradient id="SVGID_35_" gradientUnits="userSpaceOnUse" x1="696.986" y1="289.4623" x2="439.1592" y2="637.3729">
		<stop  offset="1.685400e-02" style="stop-color:#000000"/>
		<stop  offset="1" style="stop-color:#AB5153"/>
	</linearGradient>
	<path fill="url(#SVGID_35_)" d="M775.5,184.5c-0.6,0.3-1.2,0.5-2.1,0.9C773.5,185.5,774.1,185.3,775.5,184.5z"/>
	<path fill="#231F20" d="M774.5,183.8c0.3,0-1.2,1.2-1.2,1.5c1.1-0.5,2.2-1,3.3-1.5c53.2-23,113.6-35,175-35
		c71.1,0,138.4,18,199.7,48.6c-0.8-2-1.1-3.5-0.2-3.7c0,0-0.1,0-0.1-0.1c-2.4-1.3-4.9-2.5-7.3-3.8c-33-15.5-122.3-42.9-184.7-45.7
		c-3.3-0.1-6.6-0.3-9.9-0.3c-4,0-8.1,0.1-12.3,0.3c-58.1,2.7-134.9,23.1-165.7,41.1C772.1,184.8,773.2,184.4,774.5,183.8z"/>
	<linearGradient id="SVGID_36_" gradientUnits="userSpaceOnUse" x1="820.6019" y1="381.0705" x2="562.7751" y2="728.9811">
		<stop  offset="1.685400e-02" style="stop-color:#000000"/>
		<stop  offset="1" style="stop-color:#AB5153"/>
	</linearGradient>
	<path fill="url(#SVGID_36_)" d="M774.5,183.8c0.3,0-1.2,1.2-1.2,1.5c1.1-0.5,2.2-1,3.3-1.5c53.2-23,113.6-35,175-35
		c71.1,0,138.4,18,199.7,48.6c-0.8-2-1.1-3.5-0.2-3.7c0,0-0.1,0-0.1-0.1c-2.4-1.3-4.9-2.5-7.3-3.8c-33-15.5-122.3-42.9-184.7-45.7
		c-3.3-0.1-6.6-0.3-9.9-0.3c-4,0-8.1,0.1-12.3,0.3c-58.1,2.7-134.9,23.1-165.7,41.1C772.1,184.8,773.2,184.4,774.5,183.8z"/>
	<path fill="#231F20" d="M765.6,188.9c0.4-0.3,0.9-0.6,1.4-0.9c1.3-0.9,2.6-1.8,4.1-2.7c-2.3,1-4.1,2.1-5.8,3.4
		c-0.4,0.3-0.9,0.6-1.3,0.9C764.5,189.4,765,189.1,765.6,188.9z"/>
	<linearGradient id="SVGID_37_" gradientUnits="userSpaceOnUse" x1="693.7112" y1="287.0355" x2="435.8845" y2="634.9461">
		<stop  offset="1.685400e-02" style="stop-color:#000000"/>
		<stop  offset="1" style="stop-color:#AB5153"/>
	</linearGradient>
	<path fill="url(#SVGID_37_)" d="M765.6,188.9c0.4-0.3,0.9-0.6,1.4-0.9c1.3-0.9,2.6-1.8,4.1-2.7c-2.3,1-4.1,2.1-5.8,3.4
		c-0.4,0.3-0.9,0.6-1.3,0.9C764.5,189.4,765,189.1,765.6,188.9z"/>
	<path fill="#773E3F" d="M949.1,150c-59.4,0-115.9,12.1-167.3,33.8c2.5,0,5.3,0.2,7.9,0.4c0.1,0,0.2,0,0.4,0c1.2,0,2.3,0.1,3.3,0.1
		c1.2,0.1,2.3,0.1,3.2,0.2C844,166.2,895.4,156,949.1,156c69.3,0,134.8,16.8,192.6,46.4c3.1-0.7,6.2-1.5,9.4-2.1
		c-12.6-6.7-25.7-12.7-39.1-18.2C1061.8,161.5,1006.8,150,949.1,150z"/>
	<linearGradient id="SVGID_38_" gradientUnits="userSpaceOnUse" x1="824.3438" y1="383.8436" x2="566.5171" y2="731.7542">
		<stop  offset="1.685400e-02" style="stop-color:#000000"/>
		<stop  offset="1" style="stop-color:#AB5153"/>
	</linearGradient>
	<path fill="url(#SVGID_38_)" d="M949.1,150c-59.4,0-115.9,12.1-167.3,33.8c2.5,0,5.3,0.2,7.9,0.4c0.1,0,0.2,0,0.4,0
		c1.2,0,2.3,0.1,3.3,0.1c1.2,0.1,2.3,0.1,3.2,0.2C844,166.2,895.4,156,949.1,156c69.3,0,134.8,16.8,192.6,46.4
		c3.1-0.7,6.2-1.5,9.4-2.1c-12.6-6.7-25.7-12.7-39.1-18.2C1061.8,161.5,1006.8,150,949.1,150z"/>
	<linearGradient id="SVGID_39_" gradientUnits="userSpaceOnUse" x1="909.0239" y1="532.6232" x2="602.0501" y2="946.8526">
		<stop  offset="1.685400e-02" style="stop-color:#000000"/>
		<stop  offset="1" style="stop-color:#AB5153"/>
	</linearGradient>
	<path fill="url(#SVGID_39_)" d="M1154.8,200.1c0.7,0,1.4-0.1,1.4-0.1v-0.3c-0.1-0.1-0.2-0.1-0.3-0.1c-0.3,0.2-0.7,0.3-1.3,0.4
		C1154.8,200.1,1154.8,200.1,1154.8,200.1z"/>
	<linearGradient id="SVGID_40_" gradientUnits="userSpaceOnUse" x1="1008.4582" y1="607.1563" x2="700.9295" y2="1022.1346">
		<stop  offset="1.685400e-02" style="stop-color:#000000"/>
		<stop  offset="1" style="stop-color:#AB5153"/>
	</linearGradient>
	<path fill="url(#SVGID_40_)" d="M1169,207.9L1169,207.9c0,0-1.1-0.1-1.2-0.1c-3.6-2.1-7.8-4.2-11.8-6.2v0.2c-1-0.6-2.1-1-3.1-1.6
		c-0.2,0-0.2,0-0.4,0c0.2,0.4,0.4,0.8,0.6,1.2c3.9,2.1,7.7,4.2,11.4,6.4c0,0,0.1,0.1,0.2,0.1h0c65.2,38,119.5,92.3,157.2,157.7
		c-0.1-0.2-0.1-0.4-0.2-0.6c2.3,4,6.8,12.4,10.1,18.4c-3.6-7.1-4.5-10.5-4.3-11.8C1290.2,303.7,1238,246.9,1169,207.9z"/>
	<linearGradient id="SVGID_41_" gradientUnits="userSpaceOnUse" x1="927.28" y1="507.521" x2="640.7866" y2="894.1143">
		<stop  offset="1.685400e-02" style="stop-color:#000000"/>
		<stop  offset="1" style="stop-color:#AB5153"/>
	</linearGradient>
	<path fill="url(#SVGID_41_)" d="M1152.9,200.2c1.1,0.5,2.1,1,3.1,1.6v-0.2c-1-0.4-1.6-0.9-2.4-1.3c0,0,0.6,0,1.2-0.1
		c0,0-0.1-0.1-0.2-0.1C1154.1,200.1,1153.5,200.2,1152.9,200.2z"/>
	<linearGradient id="SVGID_42_" gradientUnits="userSpaceOnUse" x1="904.4768" y1="538.2915" x2="592.1583" y2="959.7331">
		<stop  offset="1.685400e-02" style="stop-color:#000000"/>
		<stop  offset="1" style="stop-color:#AB5153"/>
	</linearGradient>
	<path fill="url(#SVGID_42_)" d="M1152.9,200.2c1.1,0.5,2.1,1,3.1,1.6v-0.2c-1-0.4-1.6-0.9-2.4-1.3c0,0,0.6,0,1.2-0.1
		c0,0-0.1-0.1-0.2-0.1C1154.1,200.1,1153.5,200.2,1152.9,200.2z"/>
	<linearGradient id="SVGID_43_" gradientUnits="userSpaceOnUse" x1="1132.8203" y1="698.4725" x2="825.8466" y2="1112.7019">
		<stop  offset="1.685400e-02" style="stop-color:#000000"/>
		<stop  offset="1" style="stop-color:#AB5153"/>
	</linearGradient>
	<path fill="url(#SVGID_43_)" d="M1346.6,415c0,0,0.1-0.1,0.1-0.1c-0.1-0.2,0.1-0.3,0-0.5c-0.9-2.1-1.7-4.1-2.6-6.1
		c0.7,2.4,1.4,4.5,2,6.1c0.1,0.1,0.1,0.3,0.2,0.4c0.1,0.1,0.2,0.2,0.2,0.3C1346.6,415.1,1346.6,415,1346.6,415z"/>
	<path fill="#231F20" d="M1346.7,414.8c0,0-0.1,0.1-0.1,0.1c0,0,0,0.1,0,0.1c4.8,7,8.6,12.4,7.1,8.3c2.6,4.5-5-10.2-11.5-22
		c0.6,2.4,1.2,4.7,1.9,6.8c0.8,2,1.7,4.1,2.6,6.1C1346.8,414.5,1346.6,414.7,1346.7,414.8z"/>
	<linearGradient id="SVGID_44_" gradientUnits="userSpaceOnUse" x1="1135.3085" y1="700.3163" x2="828.3348" y2="1114.5458">
		<stop  offset="1.685400e-02" style="stop-color:#000000"/>
		<stop  offset="1" style="stop-color:#AB5153"/>
	</linearGradient>
	<path fill="url(#SVGID_44_)" d="M1346.7,414.8c0,0-0.1,0.1-0.1,0.1c0,0,0,0.1,0,0.1c4.8,7,8.6,12.4,7.1,8.3c2.6,4.5-5-10.2-11.5-22
		c0.6,2.4,1.2,4.7,1.9,6.8c0.8,2,1.7,4.1,2.6,6.1C1346.8,414.5,1346.6,414.7,1346.7,414.8z"/>
	<path fill="#231F20" d="M1155.8,199.6c0.1,0.1,0.2,0.1,0.2,0.1v0.3c0,0-0.6,0-1.3,0.1c-0.6,0-1,0.1-1,0.1c0.8,0.4,1.7,0.9,2.6,1.3
		c3.9,2,8.1,4.1,11.7,6.2c0,0,1,0.1,1,0.1v0c69,39,121.2,95.8,158.4,163.8c0-0.1-0.1-0.2,0-0.3c-32.7-71.1-108.9-138.6-176.2-177.7
		C1155.9,196.5,1157.7,198.6,1155.8,199.6z"/>
	<linearGradient id="SVGID_45_" gradientUnits="userSpaceOnUse" x1="1003.1549" y1="601.374" x2="696.786" y2="1014.7873">
		<stop  offset="1.685400e-02" style="stop-color:#000000"/>
		<stop  offset="1" style="stop-color:#AB5153"/>
	</linearGradient>
	<path fill="url(#SVGID_45_)" d="M1155.8,199.6c0.1,0.1,0.2,0.1,0.2,0.1v0.3c0,0-0.6,0-1.3,0.1c-0.6,0-1,0.1-1,0.1
		c0.8,0.4,1.7,0.9,2.6,1.3c3.9,2,8.1,4.1,11.7,6.2c0,0,1,0.1,1,0.1v0c69,39,121.2,95.8,158.4,163.8c0-0.1-0.1-0.2,0-0.3
		c-32.7-71.1-108.9-138.6-176.2-177.7C1155.9,196.5,1157.7,198.6,1155.8,199.6z"/>
	<linearGradient id="SVGID_46_" gradientUnits="userSpaceOnUse" x1="948.4021" y1="475.7797" x2="690.5754" y2="823.6903">
		<stop  offset="1.685400e-02" style="stop-color:#000000"/>
		<stop  offset="1" style="stop-color:#AB5153"/>
	</linearGradient>
	<path fill="url(#SVGID_46_)" d="M1152.6,200.3c0.2,0,0.3,0,0.4,0c-0.2-0.1-0.4-0.2-0.6-0.3C1152.5,200.1,1152.5,200.2,1152.6,200.3
		z"/>
	<linearGradient id="SVGID_47_" gradientUnits="userSpaceOnUse" x1="907.2507" y1="531.3092" x2="600.277" y2="945.5386">
		<stop  offset="1.685400e-02" style="stop-color:#000000"/>
		<stop  offset="1" style="stop-color:#AB5153"/>
	</linearGradient>
	<path fill="url(#SVGID_47_)" d="M1152.6,200.3c0.2,0,0.3,0,0.4,0c-0.2-0.1-0.4-0.2-0.6-0.3C1152.5,200.1,1152.5,200.2,1152.6,200.3
		z"/>
	<linearGradient id="SVGID_48_" gradientUnits="userSpaceOnUse" x1="948.2499" y1="475.6669" x2="690.4232" y2="823.5775">
		<stop  offset="1.685400e-02" style="stop-color:#000000"/>
		<stop  offset="1" style="stop-color:#AB5153"/>
	</linearGradient>
	<path fill="url(#SVGID_48_)" d="M1154.7,200c0.5-0.1,1-0.2,1.3-0.4c-1.5-0.8-3.1-1.5-4.6-2.2C1151.6,198.2,1153.8,199.1,1154.7,200
		z"/>
	<linearGradient id="SVGID_49_" gradientUnits="userSpaceOnUse" x1="907.0985" y1="531.1964" x2="600.1248" y2="945.4258">
		<stop  offset="1.685400e-02" style="stop-color:#000000"/>
		<stop  offset="1" style="stop-color:#AB5153"/>
	</linearGradient>
	<path fill="url(#SVGID_49_)" d="M1154.7,200c0.5-0.1,1-0.2,1.3-0.4c-1.5-0.8-3.1-1.5-4.6-2.2C1151.6,198.2,1153.8,199.1,1154.7,200
		z"/>
	<linearGradient id="SVGID_50_" gradientUnits="userSpaceOnUse" x1="929.2035" y1="500.7242" x2="647.6129" y2="880.7017">
		<stop  offset="1.685400e-02" style="stop-color:#000000"/>
		<stop  offset="1" style="stop-color:#AB5153"/>
	</linearGradient>
	<path fill="url(#SVGID_50_)" d="M1153,200.2c0.6,0,1.2-0.1,1.7-0.2c-0.9-0.9-3.1-1.9-3.4-2.6c0.3,0.8,0.7,1.7,1.1,2.6
		C1152.6,200,1152.8,200.1,1153,200.2z"/>
	<linearGradient id="SVGID_51_" gradientUnits="userSpaceOnUse" x1="947.942" y1="475.4387" x2="690.1152" y2="823.3493">
		<stop  offset="1.685400e-02" style="stop-color:#000000"/>
		<stop  offset="1" style="stop-color:#AB5153"/>
	</linearGradient>
	<path fill="url(#SVGID_51_)" d="M1153,200.2c0.6,0,1.2-0.1,1.7-0.2c-0.9-0.9-3.1-1.9-3.4-2.6c0.3,0.8,0.7,1.7,1.1,2.6
		C1152.6,200,1152.8,200.1,1153,200.2z"/>
	<linearGradient id="SVGID_52_" gradientUnits="userSpaceOnUse" x1="906.7906" y1="530.9682" x2="599.8168" y2="945.1976">
		<stop  offset="1.685400e-02" style="stop-color:#000000"/>
		<stop  offset="1" style="stop-color:#AB5153"/>
	</linearGradient>
	<path fill="url(#SVGID_52_)" d="M1153,200.2c0.6,0,1.2-0.1,1.7-0.2c-0.9-0.9-3.1-1.9-3.4-2.6c0.3,0.8,0.7,1.7,1.1,2.6
		C1152.6,200,1152.8,200.1,1153,200.2z"/>
	<path fill="#231F20" d="M1151.3,197.4c1.5,0.8,3.1,1.4,4.6,2.2c1.8-1,0-3.1-4.8-5.9c0,0,0,0,0,0l0,0
		C1150.2,193.9,1150.6,195.4,1151.3,197.4z"/>
	<linearGradient id="SVGID_53_" gradientUnits="userSpaceOnUse" x1="947.3122" y1="474.972" x2="689.4854" y2="822.8826">
		<stop  offset="1.685400e-02" style="stop-color:#000000"/>
		<stop  offset="1" style="stop-color:#AB5153"/>
	</linearGradient>
	<path fill="url(#SVGID_53_)" d="M1151.3,197.4c1.5,0.8,3.1,1.4,4.6,2.2c1.8-1,0-3.1-4.8-5.9c0,0,0,0,0,0l0,0
		C1150.2,193.9,1150.6,195.4,1151.3,197.4z"/>
	<linearGradient id="SVGID_54_" gradientUnits="userSpaceOnUse" x1="906.1608" y1="530.5015" x2="599.1871" y2="944.7309">
		<stop  offset="1.685400e-02" style="stop-color:#000000"/>
		<stop  offset="1" style="stop-color:#AB5153"/>
	</linearGradient>
	<path fill="url(#SVGID_54_)" d="M1151.3,197.4c1.5,0.8,3.1,1.4,4.6,2.2c1.8-1,0-3.1-4.8-5.9c0,0,0,0,0,0l0,0
		C1150.2,193.9,1150.6,195.4,1151.3,197.4z"/>
	<path fill="#773E3F" d="M1164.7,207.9c-3.2,0.5-6.3,1.1-9.4,1.8c76.7,42.9,138.9,108.8,176.9,188.4c-3.1-11.6-6.6-22.5-10.3-32.5
		C1284.1,300.3,1229.9,245.8,1164.7,207.9z"/>
	<linearGradient id="SVGID_55_" gradientUnits="userSpaceOnUse" x1="1015.6224" y1="611.6204" x2="708.6487" y2="1025.8499">
		<stop  offset="1.685400e-02" style="stop-color:#000000"/>
		<stop  offset="1" style="stop-color:#AB5153"/>
	</linearGradient>
	<path fill="url(#SVGID_55_)" d="M1164.7,207.9c-3.2,0.5-6.3,1.1-9.4,1.8c76.7,42.9,138.9,108.8,176.9,188.4
		c-3.1-11.6-6.6-22.5-10.3-32.5C1284.1,300.3,1229.9,245.8,1164.7,207.9z"/>
	<path fill="#773E3F" d="M610.5,845.7c0.3,0.3,0.5,0.7,0.8,1c18.6,23.6,39.6,45.2,62.7,64.4c10.3,8.5,20.9,16.6,32,24.2
		c12.5,8.6,25.6,16.6,39,23.9c4.4,2.4,8.8,4.6,13.3,6.8c2.7-1,5.3-2,7.9-3c-67.5-32.4-125-82.1-167-143.4c2.1,6.8,6.8,13.4,6.8,19.7
		c0,0,0,0,0,0c0,0-0.3,0-0.4,0c0.2,0.2,0.3,0.4,0.4,0.6C607.6,841.9,609,843.8,610.5,845.7z"/>
	<linearGradient id="SVGID_56_" gradientUnits="userSpaceOnUse" x1="977.7513" y1="493.0733" x2="725.6832" y2="833.2132">
		<stop  offset="1.685400e-02" style="stop-color:#000000"/>
		<stop  offset="1" style="stop-color:#AB5153"/>
	</linearGradient>
	<path fill="url(#SVGID_56_)" d="M610.5,845.7c0.3,0.3,0.5,0.7,0.8,1c18.6,23.6,39.6,45.2,62.7,64.4c10.3,8.5,20.9,16.6,32,24.2
		c12.5,8.6,25.6,16.6,39,23.9c4.4,2.4,8.8,4.6,13.3,6.8c2.7-1,5.3-2,7.9-3c-67.5-32.4-125-82.1-167-143.4c2.1,6.8,6.8,13.4,6.8,19.7
		c0,0,0,0,0,0c0,0-0.3,0-0.4,0c0.2,0.2,0.3,0.4,0.4,0.6C607.6,841.9,609,843.8,610.5,845.7z"/>
</g>
</svg>
