<?xml version="1.0" encoding="utf-8"?>
<!-- Generator: Adobe Illustrator 18.1.0, SVG Export Plug-In . SVG Version: 6.00 Build 0)  -->
<svg version="1.1" id="Layer_1" xmlns="http://www.w3.org/2000/svg" xmlns:xlink="http://www.w3.org/1999/xlink" x="0px" y="0px"
	 viewBox="0 0 150 150" enable-background="new 0 0 150 150" xml:space="preserve">
<g>
	<path fill-rule="evenodd" clip-rule="evenodd" fill="#1F1B57" d="M31.5,18.5c11.7-9.1,26.4-14.7,42.4-15
		c18.5-0.3,35.4,6.4,48.3,17.7l-4.7,4.9C105.9,16,90.6,10.1,74,10.3c-16.6,0.3-31.6,6.8-42.8,17.3l-4.7-4.5L31.5,18.5z"/>
	<path fill-rule="evenodd" clip-rule="evenodd" fill="#1F1B57" d="M124,126.6L124,126.6l-5.2,4.5c-11.8,9.2-26.4,14.8-42.3,15
		c-18.4,0.3-35.3-6.5-48.2-17.8l4.7-4.9c11.6,10.1,26.9,16.2,43.4,15.9c16.5-0.3,31.5-6.9,42.8-17.4L124,126.6z"/>
	<path fill-rule="evenodd" clip-rule="evenodd" fill="#EE3A42" d="M127.1,26c11.8,12.5,19.1,29.2,19.4,47.6
		c0.3,18.3-6.4,35.3-17.8,48.2l-4.9-4.7c10.1-11.6,16.2-26.9,15.9-43.3c-0.3-16.6-6.8-31.6-17.4-42.9L127.1,26z"/>
	<path fill-rule="evenodd" clip-rule="evenodd" fill="#EE3A42" d="M3.9,76.1c-0.3-18.5,6.4-35.4,17.7-48.3l4.9,4.7
		C16.4,44.2,10.4,59.4,10.7,76c0.3,16.5,6.9,31.5,17.4,42.7l-4.7,4.9C11.6,111.1,4.2,94.5,3.9,76.1z"/>
	<g>
		<path fill="#EE3A42" d="M52.1,105.4h17.1l-1.9-40.7H52.1V53.9h28.7v51.5h14.5v9.5H52.1V105.4z M55.9,69h8.7v2.4h-8.7V69z
			 M99.9,119.2v-10.4h2.5v12.8H55.9v-2.4H99.9z M65.4,25.5h15.5v12.6H65.4V25.5z M69.2,42.6h16.2V29.1h2.5V45H69.2V42.6z M85.3,57.1
			h2.5v44.5h-2.5V57.1z"/>
	</g>
</g>
</svg>
