<?xml version="1.0" encoding="utf-8"?>
<!-- Generator: Adobe Illustrator 18.1.0, SVG Export Plug-In . SVG Version: 6.00 Build 0)  -->
<svg version="1.1" id="Layer_1" xmlns="http://www.w3.org/2000/svg" xmlns:xlink="http://www.w3.org/1999/xlink" x="0px" y="0px"
	 viewBox="0 0 150 150" enable-background="new 0 0 150 150" xml:space="preserve">
<g>
	<rect x="20.7" y="20.6" fill="#43B7E8" width="112.4" height="112.4"/>
	<path opacity="0.52" fill="#E7F4FB" d="M26.7,20.7c1.4,8.3,8.2,14.7,16.6,15.5C47.3,49.9,59.9,60,74.9,60
		c12.1,0,22.7-6.6,28.4-16.3c0.7,0.1,1.4,0.1,2.1,0.1c13.8,0,25.2-9.9,27.6-23H26.7z"/>
	<path fill="#E7F4FB" d="M65,20.7c0.7,4,3.9,7.1,8,7.5c1.9,6.6,8,11.5,15.2,11.5c5.8,0,11-3.2,13.7-7.9c0.3,0,0.7,0,1,0
		c6.7,0,12.2-4.8,13.3-11.1H65z"/>
	<path fill="#0E955E" d="M123.5,133c1.8-2.8,2.8-5.7,2.8-8.8c0-17.6-32.4-31.8-72.4-31.8c-12,0-23.3,1.3-33.3,3.6V133H123.5z"/>
	<path opacity="0.62" fill="#416F5F" d="M54.3,92.6c-12,0-23.3,1.3-33.3,3.6v13.6c8.7-3.5,18.6-6.5,29.2-8.5
		c20.9-3.9,40.4-3.5,54.6,0.3C91.8,96,74,92.6,54.3,92.6z"/>
	<path opacity="0.32" fill="#416F5F" d="M44.5,120.5c-8.6,0-16.6,0.9-23.7,2.5v9.7c6.2-2.5,13.2-4.6,20.8-6
		c14.9-2.8,28.8-2.5,38.9,0.2C71.2,123,58.5,120.5,44.5,120.5z"/>
	<path fill="#619F42" d="M133,90.2c-6.7,0-13.9,0.6-21.2,2.1c-30.5,6.2-52.9,24-51.6,40.7H133V90.2z"/>
	<path opacity="0.32" fill="#416F5F" d="M54.3,105.8c-12,0-23.3,1.3-33.3,3.6V123c8.7-3.5,18.6-6.5,29.2-8.5
		c20.9-3.9,40.4-3.5,54.6,0.3C91.8,109.2,74,105.8,54.3,105.8z"/>
	<g>
		<g>
			<g>
				<g>
					<rect x="47.5" y="46.6" transform="matrix(0.7705 -0.6374 0.6374 0.7705 -26.1764 44.513)" width="2.5" height="24.1"/>
					<rect x="40.4" y="49.1" transform="matrix(0.771 -0.6368 0.6368 0.771 -25.772 40.8486)" width="7" height="14.3"/>
				</g>
				<g>
					<rect x="59.9" y="61.6" transform="matrix(-0.7706 0.6373 -0.6373 -0.7706 155.1546 91.3325)" width="2.5" height="24.1"/>
					<rect x="62.5" y="68.8" transform="matrix(-0.7709 0.6369 -0.6369 -0.7709 165.1667 92.4708)" width="7" height="14.3"/>
				</g>
			</g>
			<g>
				<g>
					<rect x="59" y="46.4" transform="matrix(-0.7711 -0.6367 0.6367 -0.7711 69.5459 141.9059)" width="2.5" height="24.1"/>
					<rect x="61.6" y="48.9" transform="matrix(-0.7711 -0.6367 0.6367 -0.7711 79.5604 140.8104)" width="7" height="14.3"/>
				</g>
				<g>
					<rect x="46.6" y="61.4" transform="matrix(0.7711 0.6367 -0.6367 0.7711 57.7137 -13.6704)" width="2.5" height="24.1"/>
					<rect x="39.6" y="68.6" transform="matrix(0.771 0.6368 -0.6368 0.771 58.1126 -10.0669)" width="7" height="14.3"/>
				</g>
			</g>
		</g>
		<g>
			<polygon points="54.4,71 42.3,85.6 66.9,85.6 			"/>
			<path d="M45.4,83.8v8.8H53C53,92.4,53,92.2,53,92.1v-4.1c0-1.1,0.9-2,2-2c1.1,0,2,0.9,2,2v4.1c0,0.2,0,0.4-0.1,0.5h7.3v-8.8H45.4
				z"/>
		</g>
	</g>
	<path opacity="0.56" fill="#5BDFB8" d="M60.5,127.2c-0.4,1.8-0.6,3.7-0.5,5.5h3.9c14-11.8,37-28,69-41.2V91
		C119.3,95.8,87.6,107.9,60.5,127.2z M86.4,132.8c11.4-11.6,26.7-25,46.6-37.8v-0.8c-11.8,6.7-34,20.4-54.2,38.7H86.4z M121.5,132.8
		c3.2-6.2,7-12.8,11.4-19.7v-4.3c-5.4,7.1-11.1,15.2-16.6,24H121.5z M99.8,132.8h5.5c7.4-9.7,16.5-20.3,27.7-31.1v-1.5
		C124.1,107.7,111.8,119.1,99.8,132.8z"/>
	<g>
		<path fill="#619F42" d="M56.4,103.5c0,0,6.8,3.1,11.4,6.7c-0.1-1.9-1.4-10-14.7-8.8c0,0,2,11.4,13.4,9.5L56.4,103.5z"/>
		<path fill="#619F42" d="M69.8,101c0,0,0.6,4.9,0.2,8.7c1-0.7,5.1-4.2-0.1-11.3c0,0-5.7,5-0.7,10.8L69.8,101z"/>
	</g>
	<g>
		<circle fill="#CA5262" cx="69.1" cy="112.8" r="2.3"/>
		<circle fill="#FFFFFE" cx="68.6" cy="114.1" r="0.4"/>
	</g>
	<g>
		<path opacity="0.2" fill="#FFFFFF" d="M50.2,49.3c1.4-0.5,2.8-0.8,4.4-0.8c1.6,0,3.1,0.3,4.5,0.9l0.5-0.6c-1.5-0.6-3.2-1-5-1
			c-1.7,0-3.3,0.3-4.8,0.9L50.2,49.3z"/>
		<path opacity="0.2" fill="#FFFFFF" d="M71.1,60.3c0.5,1.4,0.8,2.8,0.8,4.4c0,1.6-0.3,3.1-0.9,4.5l0.6,0.5c0.6-1.5,1-3.2,1-5
			c0-1.7-0.3-3.3-0.9-4.8L71.1,60.3z"/>
		<path opacity="0.2" fill="#FFFFFF" d="M36.3,70.3c-0.5-1.4-0.8-2.8-0.8-4.4c0-1.6,0.3-3.1,0.9-4.5l-0.5-0.5c-0.6,1.5-1,3.2-1,5
			c0,1.7,0.3,3.3,0.9,4.8L36.3,70.3z"/>
	</g>
</g>
</svg>
