<?xml version="1.0" encoding="utf-8"?>
<!-- Generator: Adobe Illustrator 18.1.0, SVG Export Plug-In . SVG Version: 6.00 Build 0)  -->
<svg version="1.0" id="Layer_1" xmlns="http://www.w3.org/2000/svg" xmlns:xlink="http://www.w3.org/1999/xlink" x="0px" y="0px"
	 viewBox="0 0 150 150" enable-background="new 0 0 150 150" xml:space="preserve">
<g>
	<path fill="#E24301" d="M68.6,138.4c-21.3-5.1-34.7-27.1-29.6-48.3C44,68.8,66,55.3,87.3,60.4c5.5,1.3,10.4,3.7,14.7,7
		c-4.9-4.3-10.8-7.5-17.6-9.1C62.2,53,39.9,66.7,34.5,88.8c-5.3,22.2,8.4,44.5,30.5,49.8c5.2,1.3,10.4,1.4,15.5,0.7
		C76.6,139.7,72.6,139.4,68.6,138.4z"/>
	<path fill="#E24301" d="M77.4,89.6C90,76.2,88.9,70.2,88.9,70.2S77.6,86,67.2,82.1c-20.3-7.5,5.3-57.2,5.3-57.2
		C13.5,107.5,78,140,78,140C68.3,118.2,56.7,111.8,77.4,89.6z M64.3,66.3c0,5.2,3.4,9.4,7.5,9.4c4.2,0,7.5-4.2,7.5-9.4
		c0-5.2-3.4-9.4-7.5-9.4C67.7,56.9,64.3,61.2,64.3,66.3z"/>
	<g>
		<path fill="none" d="M103,108.5c3.7-1.2,6.8-2.5,8.9-4c0.5-4,0.3-8.1-0.4-12c-1.2,1-2.9,1.8-5.1,2.6
			C105.6,99.4,104.5,103.9,103,108.5z"/>
		<path fill="none" d="M104.5,78c-1.6,1.6-5.1,3-9.8,4c-0.4,3.8-1.2,8-2.3,12.4c4.7-0.9,8.8-2,11.9-3.4C104.9,86,105,81.6,104.5,78z
			"/>
		<path fill="none" d="M107.3,89.3c1.2-0.8,2.1-1.6,2.8-2.4c-0.6-1.9-1.4-3.8-2.4-5.7C107.8,83.6,107.7,86.3,107.3,89.3z"/>
		<path fill="none" d="M96.5,124.9c0,0,0,0.1-0.1,0.1c3.3-0.7,6.3-1.6,8.8-2.6c1.1-1.6,2.1-3.2,2.9-5c1.1-2.3,2-4.7,2.7-7.1
			c-2.4,1.2-5.6,2.3-9.4,3C99.9,117.3,98.3,121.3,96.5,124.9z"/>
		<path fill="none" d="M103.6,96c-3.5,1-7.6,1.7-12.2,2.2c-1.3,4.5-2.8,9.2-4.5,13.6c5.1-0.6,9.8-1.5,13.8-2.6
			C101.9,104.7,102.9,100.2,103.6,96z"/>
		<path fill="none" d="M85.5,115.2c-1,2.4-2.1,4.8-3.3,7c-0.9,1.7-2,3.5-2.9,5c5.8-0.3,11.3-1,16.1-2c1.5-3.7,2.8-7.6,4-11.5
			C95.2,114.5,90.5,115,85.5,115.2z"/>
		<path fill="#81C2CB" d="M77,137.7c0.2,0.4,0.4,0.8,0.6,1.3c0.6,0,1.2,0,1.8,0c2.6-0.5,5.1-1.2,7.5-2.2
			C83.7,137.2,80.4,137.5,77,137.7z"/>
		<path fill="#81C2CB" d="M96.4,125c0,0,0-0.1,0.1-0.1c1.8-3.6,3.5-7.6,4.9-11.6c3.8-0.8,7-1.8,9.4-3c0.5-1.9,0.9-3.9,1.1-5.8
			c-2.1,1.5-5.2,2.9-8.9,4c1.4-4.6,2.6-9.2,3.4-13.4c2.2-0.8,3.9-1.7,5.1-2.6c-0.3-1.9-0.8-3.7-1.4-5.5c-0.6,0.8-1.6,1.6-2.8,2.4
			c0.4-3,0.5-5.7,0.4-8.1c-1.7-3.4-3.9-6.5-6.5-9.3c0.6,2.2-1.9,4.2-6.2,5.8c0.4-6.7-0.6-11.7-3.4-13.2c-1.1-0.4-2.4-0.9-3.5-1.2
			l-2.4-0.7c0.1,0.1,0.3,0.1,0.4,0.2c-1.7-0.5-3.6-0.9-6.1-1.3c-0.4,0-0.9-0.1-1.2-0.1c7.9,0.9,10,3.2,7.9,4.9
			c-0.9,0.8-3.4,1.9-7.7,2.5c-0.2,0.8-0.4,1.5-0.7,2.2c4.6-0.1,8.9-0.8,11.6-1.8c0.6,2.7,0.9,6,0.8,9.9c-1.8,0.4-3.7,0.8-5.7,1.1
			c-0.6,1-1.4,2-2.2,3.2c2.7-0.1,5.3-0.4,7.8-0.7c-0.3,3.8-0.8,7.9-1.7,12.2c-5.2,0.8-10.9,1.3-17,1.4c-0.6,0.8-1.1,1.5-1.6,2.3
			c6.1,0.4,12.2,0.4,17.9-0.1c-0.9,4.4-2.1,8.9-3.6,13.5c-5.8,0.6-12.1,0.9-18.6,0.8c0.1,0.7,0.2,1.3,0.3,2
			c5.6,0.5,11.5,0.7,17.2,0.5c-1.3,4-2.8,8-4.5,12c-2.4,0.1-4.8,0.2-7.3,0.2c0.3,0.6,0.6,1.2,1,1.8c7.6,0.3,15.1-0.1,21.5-1.1
			c-0.4,0.9-0.8,1.8-1.2,2.7c0.5-0.8,1.1-1.8,1.6-2.8c2.6-0.4,4.9-0.9,7-1.5c1.3-1.4,2.4-2.8,3.5-4.3
			C102.7,123.4,99.7,124.3,96.4,125z M94.7,81.9c4.7-1,8.2-2.3,9.8-4c0.5,3.6,0.4,8-0.2,12.9c-3.1,1.4-7.2,2.5-11.9,3.4
			C93.4,90,94.2,85.8,94.7,81.9z M91.4,98.2c4.6-0.5,8.8-1.3,12.2-2.2c-0.7,4.2-1.7,8.7-2.9,13.2c-4,1.1-8.7,2-13.8,2.6
			C88.6,107.4,90.1,102.7,91.4,98.2z M79.3,127.3c1-1.6,2.1-3.4,2.9-5c1.1-2.2,2.2-4.6,3.3-7c5-0.2,9.7-0.7,13.9-1.5
			c-1.2,3.9-2.5,7.8-4,11.5C90.6,126.2,85,126.9,79.3,127.3z"/>
		<path fill="#81C2CB" d="M93.4,64.2c-4.8-2.4-9.9-3.7-14.9-4.1c3.9,0.6,7.7,1.8,11.4,3.6c4.3,2.1,8.1,5,11.2,8.3
			c2.6,2.8,4.8,5.9,6.5,9.3c0.9,1.8,1.7,3.7,2.4,5.7c0.6,1.8,1.1,3.6,1.4,5.5c0.7,3.9,0.9,8,0.4,12c-0.2,2-0.6,3.9-1.1,5.8
			c-0.7,2.4-1.5,4.8-2.7,7.1c-0.9,1.8-1.9,3.4-2.9,5c-1.1,1.5-2.3,3-3.5,4.3c-4.2,4.5-9.2,7.9-14.8,10c-2.4,1-4.9,1.7-7.5,2.2
			c-8.2,1.5-17,0.6-25-3.4c-5-2.5-9.3-6-12.8-10.1c3.8,5.3,8.9,9.7,15.1,12.8c20.4,10.1,45.2,1.7,55.4-18.7
			C122.3,99.1,113.9,74.3,93.4,64.2z"/>
	</g>
	<path fill="#E24301" d="M91.9,34.5c-6.1-7.4-6.5-9.9-1.3-16.6c-5.5,6.4-7,6.6-13.3-0.4c0,0,0,0,0,0c6,7.3,5.9,9.1,0.3,15.5
		C83.4,27,85.6,27.5,91.9,34.5C91.9,34.5,91.9,34.5,91.9,34.5z"/>
	<path fill="#81C2CB" d="M86.3,17.1c-5.2-4.9-5.6-6.6-1.1-11.1c-4.8,4.3-6.1,4.4-11.5-0.3c0,0,0,0,0,0c5.2,4.8,5.1,6,0.3,10.3
		C78.9,12.1,80.8,12.4,86.3,17.1C86.3,17.1,86.3,17.1,86.3,17.1z"/>
	<path fill="#E24301" d="M71.4,21.4c-5.3-4.9-5.6-6.6-1.1-11.1c-4.8,4.3-6.1,4.4-11.5-0.3c0,0,0,0,0,0c5.2,4.9,5.1,6,0.3,10.3
		C64,16.3,65.8,16.7,71.4,21.4C71.3,21.4,71.4,21.4,71.4,21.4z"/>
</g>
</svg>
