<?xml version="1.0" encoding="utf-8"?>
<!-- Generator: Adobe Illustrator 18.1.0, SVG Export Plug-In . SVG Version: 6.00 Build 0)  -->
<svg version="1.1" id="Layer_1" xmlns="http://www.w3.org/2000/svg" xmlns:xlink="http://www.w3.org/1999/xlink" x="0px" y="0px"
	 viewBox="0 0 150 150" enable-background="new 0 0 150 150" xml:space="preserve">
<g>
	<polygon fill="#00A1DC" points="110,41.1 110,45.9 131.5,46.2 123.9,38.6 110,38.8 	"/>
	<path fill="#00A1DC" d="M59.9,39.5l-34,0.5l-4.6,4.6L47.4,45C51.1,42.4,55.3,40.6,59.9,39.5z"/>
	<polygon fill="#00A1DC" points="38.1,123.5 111.9,124.6 119.2,117.3 33.2,118.6 	"/>
	<path fill="#00A1DC" d="M110,111.3v2.7H70.5c0,0-0.1,0-0.1,0c-6.3,0-11.9-1.2-17.1-3.7l-27.9,0.5l4.7,4.8l89.6,1.3l7.7-7.5
		l-17.4,0.3V111.3z"/>
	<polygon fill="#00A1DC" points="46.1,131.5 104.2,132.4 111.2,125.3 40.9,126.4 	"/>
	<path fill="#00A1DC" d="M37.4,55.6l-25.7,0.4c-0.8,1.4-1.6,2.8-2.2,4.2l25.4,0.4C35.5,58.8,36.4,57.1,37.4,55.6z"/>
	<path fill="#00A1DC" d="M33.8,87.1L8.1,87.5c0.5,1.4,1,2.8,1.6,4.2L35.5,92C34.8,90.4,34.3,88.8,33.8,87.1z"/>
	<path fill="#00A1DC" d="M32.5,79.2l-26,0.4C6.6,81,6.7,82.4,7,83.7l26,0.4C32.7,82.5,32.6,80.9,32.5,79.2z"/>
	<path fill="#00A1DC" d="M37,94.9l-25.4,0.4c0.9,1.5,2,2.9,3.1,4.3l25.6,0.4C39.1,98.4,38,96.7,37,94.9z"/>
	<path fill="#00A1DC" d="M43,48.4c0.3-0.3,0.7-0.5,1-0.8L17.9,48l-0.6,0.7c-1.2,1.2-2.1,2.5-3,3.7l25.1,0.3
		C40.5,51.2,41.6,49.7,43,48.4z"/>
	<path fill="#00A1DC" d="M32.1,75.4c0-1.4,0.2-2.7,0.3-4.1l-26,0.4c-0.2,1.3-0.4,2.7-0.4,4.1l26.1,0.4C32.2,76,32.1,75.7,32.1,75.4z
		"/>
	<path fill="#00A1DC" d="M133.8,48.6l-2.2-2.3L110,46.6v7.1v0.7V56H70.5c-5.4,0-9.6,1.7-13.2,4.7c-0.4,0.4-0.9,0.7-1.3,1.1
		c-0.4,0.4-0.7,0.9-1,1.3c-1.4,1.6-2.6,3.5-3.3,5.5c-0.3,0.8-0.5,1.6-0.7,2.5c-0.4,1.7-0.7,3.4-0.7,5.4c0,0.9,0.1,1.7,0.2,2.5
		c0.2,1.9,0.6,3.8,1.2,5.4c0.3,0.9,0.8,1.7,1.3,2.5c0.8,1.4,1.8,2.7,3,3.9c0.7,0.6,1.4,1.1,2.1,1.6c1.2,0.9,2.5,1.6,3.9,2.2
		c2.5,1,5.3,1.5,8.6,1.5H91v-1.9v-1.3V87H67v-0.4v-2v-0.8v-5v-2v-5.8V70h43v0.2v7.1v0.8v7.1V86v7.1v0.8v7.1l25.2,0.4
		C148.9,86.3,148.3,63.1,133.8,48.6z"/>
	<path fill="#00A1DC" d="M34,63.5L8.1,63.9c-0.4,1.4-0.9,2.7-1.2,4.1l25.9,0.4C33,66.7,33.5,65.1,34,63.5z"/>
	<polygon fill="#00A1DC" points="116,30.8 33.9,32 29.1,36.8 123.4,38.2 	"/>
	<polygon fill="#00A1DC" points="108.2,23 41.9,24 36.8,29.1 115.4,30.2 	"/>
	<path fill="#00A1DC" d="M102.6,17.4c-0.8-0.8-1.7-1.4-2.5-2.1L50.2,16c-0.6,0.5-1.2,0.9-1.7,1.4l-3.9,3.9l62.8,0.9L102.6,17.4z"/>
	<path fill="#00A1DC" d="M110,108.8l17.7,0.3l6.3-6.4c0.4-0.4,0.9-0.9,1.3-1.3l-25.2,0.4V108.8z"/>
	<path fill="#00A1DC" d="M43,103.2c-0.2-0.1-0.3-0.4-0.4-0.5l-25,0.4l4.5,4.5l26.6,0.4C46.6,106.6,44.8,105,43,103.2z"/>
	<path fill="#00A1DC" d="M53.2,13.6l45.6,0.7C85.3,3.9,66.8,3.7,53.2,13.6z"/>
	<path fill="#00A1DC" d="M102.6,133.9l0.6-0.6l-54.5,0.8C63.7,148.9,87.7,148.8,102.6,133.9z"/>
</g>
</svg>
