<?xml version="1.0" encoding="utf-8"?>
<!-- Generator: Adobe Illustrator 18.1.0, SVG Export Plug-In . SVG Version: 6.00 Build 0)  -->
<svg version="1.0" id="Layer_1" xmlns="http://www.w3.org/2000/svg" xmlns:xlink="http://www.w3.org/1999/xlink" x="0px" y="0px"
	 viewBox="0 0 150 150" enable-background="new 0 0 150 150" xml:space="preserve">
<g>
	<path fill="#0094D8" d="M128.5,45.8l6.6,5l0.2-0.2c-9.1-22-29.8-38-54.5-40.3l4.4,3.3L128.5,45.8z"/>
	<polygon fill="#006E9F" points="74.1,21.9 68.1,40 80,40 74.2,21.8 	"/>
	<polygon fill="#006E9F" points="38.3,70.2 42,58.9 32.2,58.9 25.8,58.9 22.3,58.9 23,59.4 	"/>
	<path fill="#0094D8" d="M47.5,131.2h-7.4c10,6.3,21.9,9.9,34.7,9.9c12.7,0,24.6-3.6,34.7-9.9h-8H47.5z"/>
	<path fill="#0094D8" d="M11.9,67.6l-1.5-4.5c-0.8,4-1.2,8.2-1.2,12.5c0,19.4,8.4,36.8,21.7,48.8l-2.2-6.6L11.9,67.6z"/>
	<path fill="#0094D8" d="M62.8,13.9l4.5-3.5c-24.5,2.8-45,19.1-53.6,41.4l7.7-6L62.8,13.9z"/>
	<polygon fill="#006E9F" points="90.2,107.1 105.3,117.8 99.6,100.2 	"/>
	<polygon fill="#006E9F" points="86.2,58.9 61.9,58.9 54.4,81.6 74,95.6 93.5,81.3 	"/>
	<polygon fill="#006E9F" points="124.1,58.9 106,58.9 109.5,69.5 	"/>
	<path fill="#0094D8" d="M140.3,75.5c0-5.6-0.7-11.1-2.1-16.3l-2.3,7.3L119.2,118l-2.6,7.8l0.1,0.1
		C131.2,113.9,140.3,95.8,140.3,75.5z"/>
	<polygon fill="#006E9F" points="48.2,100.4 42.5,117.6 42,119 43.3,118.1 57.9,107.3 	"/>
	<path fill="#0094D8" d="M103.4,88.4l8.9,27.3L129,64.2l-23.3,17.1L96,51.6h28.1L81,19.4l9,27.8H58.1l9.1-27.6L25.8,51.6h6.4h19.9
		l-10,30.2L18.8,65.3l16.8,50l8.8-26.6l26,18.4l-22.8,16.7h53.9l-23.6-16.8L103.4,88.4z M120.7,75.7l-8.4,25.9l-5.2-15.9L120.7,75.7
		z M35.6,101.6l-8.4-25l13.5,9.6L35.6,101.6z M89.4,31.1L111,47.2H94.6L89.4,31.1z M38.6,47.2l20-15.5l-5.1,15.5H38.6z M45.8,84.5
		l10.8-32.9h34.8L102,84.1l-27.9,20.5L45.8,84.5z M87.8,119.6H60.9l13.2-9.7L87.8,119.6z"/>
</g>
</svg>
