<?xml version="1.0" encoding="utf-8"?>
<!-- Generator: Adobe Illustrator 18.1.0, SVG Export Plug-In . SVG Version: 6.00 Build 0)  -->
<svg version="1.0" id="Layer_1" xmlns="http://www.w3.org/2000/svg" xmlns:xlink="http://www.w3.org/1999/xlink" x="0px" y="0px"
	 viewBox="0 0 150 150" enable-background="new 0 0 150 150" xml:space="preserve">
<g>
	<g>
		<path fill="#A6A8AB" d="M45.8,69.6c11.8-2.9,21.4-5.1,30.1-6.9c11.6-2.4,21.2-4.1,30.2-5.3c2.8-0.3,5.2-0.6,7.5-0.8
			c2.7-0.3,5.1-0.4,7.5-0.5c1.7-0.1,3.4-0.1,5-0.1c-0.4,0.4-0.8,0.8-1.1,1.2c-1.3,1.5-2.6,3-3.8,4.5c-1.4,1.6-2.6,3.2-3.7,4.7
			c-1.3,1.7-2.4,3.3-3.4,4.9c-0.5,0.7-0.9,1.5-1.4,2.2c-11.3-2-42.6-6.7-74.7-1.9C40.7,70.9,43.2,70.2,45.8,69.6z"/>
		<path fill="#4E5E6A" d="M133.7,51.7c-0.9,1-1.8,2-2.7,3c-1.5,1.7-3,3.4-4.4,5.1c-1.4,1.7-2.8,3.5-4.2,5.4
			c-1.4,1.8-2.7,3.7-3.9,5.6c-1.2,1.8-2.3,3.6-3.5,5.4c-1.2,1.7-2.5,3.4-3.8,5c-1.3,1.6-2.8,3.1-4.3,4.5c-1.5,1.4-3.1,2.7-4.8,3.9
			c-1.7,1.2-3.5,2.2-5.3,3.1c-3.7,1.9-7.7,3.2-11.9,4c-4.2,0.9-8.5,1.3-12.8,1.4c-4.4,0.1-8.7-0.1-13.2-0.5
			c4.3,1.2,8.6,2.1,13.1,2.7c4.4,0.5,9,0.7,13.5,0.3c2.3-0.2,4.5-0.5,6.8-1c2.2-0.5,4.5-1.2,6.7-2c4.3-1.7,8.5-4,12.1-7
			c1.8-1.5,3.6-3,5.2-4.7c1.6-1.7,3.1-3.4,4.6-5.2c1.4-1.8,2.8-3.6,4.1-5.4c1.2-1.7,2.5-3.4,3.9-5.1c1.3-1.6,2.7-3.3,4.1-4.9
			c1.4-1.6,2.9-3.2,4.4-4.8c1.5-1.5,3-3.1,4.5-4.6c0.8-0.8,1.5-1.5,2.3-2.3l1.2-1.1l1.1-1.1c1.8-1.6,1.9-4.4,0.2-6.2
			c-0.7-0.7-1.5-1.2-2.5-1.3l0,0c-3.2-0.5-6.3-0.8-9.4-0.9c-3.1-0.1-6.2-0.1-9.3,0c-3.1,0.1-6.1,0.4-9.1,0.7c-3,0.3-6,0.7-9,1.1
			c-1,0.2-2.1,0.3-3.1,0.5c-0.2-0.2-10.9-10.5-12.3-11.5l-0.7-0.5l-54.9,5.5c0,0,9.3,17.3,10.4,19c0.4,0.6,0.8,1.2,1.2,1.7
			c-3.4,1.1-6.8,2.3-10.2,3.5c-5.6,2-11.2,4.1-16.8,6.3c-2.8,1.1-5.6,2.2-8.3,3.4c-2.8,1.2-5.5,2.4-8.2,3.6
			c11.6-2.9,23.1-5.9,34.7-8.7c11.5-2.8,23.1-5.5,34.7-8c11.6-2.4,23.2-4.6,34.8-6.1c2.9-0.4,5.8-0.7,8.7-1c2.9-0.3,5.8-0.5,8.7-0.6
			C128.4,51.7,131,51.6,133.7,51.7z M78.3,50.5C76.1,51,57,56.3,49.8,58.7c-0.2-0.8-8.6-17.5-8.9-18.1c1.7-0.3,31.1-2.8,31.3-2.9
			L78.3,50.5z M100,45.9c-0.6,0.1-14.2,2.8-15.9,3.2l-5.4-13c-0.2,1,10.9-1,11.8-0.9C91.6,36.2,99,45.3,100,45.9z"/>
	</g>
	<path fill="#00A2DF" d="M19.2,76.3c12.4,26.5,62.4,30.8,62.4,30.8c70.9,5.9,46.1-27.4,46.1-27.4l0,0c16.9,6.3,16.9,14.5,16.9,14.5
		C146.8,120.7,91,116,91,116c-23.5-2.8-39.3-7.8-49.9-13.3c24.4,16.5,58.9,22.1,58.9,22.1C18.4,119.2,18.9,81.2,19.2,77
		C19.1,76.6,19.2,76.3,19.2,76.3z"/>
</g>
</svg>
