<?xml version="1.0" encoding="utf-8"?>
<!-- Generator: Adobe Illustrator 18.1.0, SVG Export Plug-In . SVG Version: 6.00 Build 0)  -->
<svg version="1.1" id="Layer_1" xmlns="http://www.w3.org/2000/svg" xmlns:xlink="http://www.w3.org/1999/xlink" x="0px" y="0px"
	 viewBox="0 0 150 150" enable-background="new 0 0 150 150" xml:space="preserve">
<g>
	<path fill="none" d="M128.6,63c0.1,1.8,0.3,3.9,0.4,6C128.9,67,128.9,65,128.6,63z"/>
	<path fill="none" d="M115,127.3c0,0.3,0,0.5,0,0.8c3.6,0.8,7.7,0.5,11.6-2.3C123,127.3,119.1,128,115,127.3z"/>
	<path fill="none" d="M34.6,105.6c-0.1,0-0.2,0.1-0.3,0.1c-0.2,0-0.4,0.1-0.4,0.2c-0.2,0.5,0.8,1.7,1.5,2.4c0,0,0,0.1,0.1,0.1
		c0.1,0,0.1,0,0.2,0C35.2,107.5,34.9,106.6,34.6,105.6z"/>
	<path fill="#FFCC4F" d="M63.2,68.3L63.2,68.3c-0.2-0.3-0.4-0.6-0.7-1l0,0C62.7,67.6,63,68,63.2,68.3z"/>
	<path fill="#FFCC4F" d="M65.8,67.9l0.1-0.1c-0.3-0.2-0.7-0.3-1.2-0.5l-0.1,0.1C65.1,67.6,65.5,67.7,65.8,67.9z"/>
	<path fill="#FFCC4F" d="M62.3,67.1C62.3,67.1,62.3,67.2,62.3,67.1L62.3,67.1C62.4,67.1,62.4,67.1,62.3,67.1
		C62.3,67.1,62.3,67.1,62.3,67.1z"/>
	<path fill="#FFCC4F" d="M63.6,68.4L63.6,68.4c0.2,0.4,0.3,0.9,0.3,1.4l0.1-0.1C63.9,69.2,63.8,68.8,63.6,68.4z"/>
	<path fill="#FFCC4F" d="M64.4,67.4l0.2-0.1c-0.5-0.1-1.1-0.2-1.7-0.2c0,0.1,0.1,0.1,0.1,0.2C63.5,67.3,64,67.4,64.4,67.4z"/>
	<path fill="#FFCC4F" d="M58.6,65.2c0,0,0.1,0,0.1,0C58.7,65.2,58.7,65.2,58.6,65.2z"/>
	<path fill="#FFCC4F" d="M123.3,51.2l-1,0.2c-0.2,0.3-0.3,0.6-0.5,0.9c-0.2,0.4-0.4,0.8-0.6,1.3c0.3,0,0.7,0,1.2,0.1l1.4-0.2
		c0,0.2,0,0.3,0.1,0.5c0,0,0.1,0,0.1,0c-0.2-1.4-0.5-2.7-0.9-4c0,0,0,0.1,0,0.1C123.1,50.4,123.2,50.8,123.3,51.2z"/>
	<path fill="#FFCC4F" d="M63.9,70.2C63.9,70.3,63.9,70.3,63.9,70.2C63.9,70.3,63.9,70.2,63.9,70.2L63.9,70.2z"/>
	<path fill="#FFCC4F" d="M77.1,73.3l0.1,0.2c0.4,0,0.9,0.1,1.3,0.1l0-0.1C78,73.5,77.6,73.4,77.1,73.3z"/>
	<path fill="#FFCC4F" d="M84.1,70c0,0,0.1-0.1,0.1-0.1c0,0,0,0,0,0C84.2,69.9,84.1,70,84.1,70z"/>
	<path fill="#FFCC4F" d="M84.3,70.8c0,0.6,0.2,1.2,0.5,1.7C84.6,72,84.4,71.4,84.3,70.8L84.3,70.8z"/>
	<path fill="#FFCC4F" d="M67,74.5c-0.3-0.1-0.6-0.2-0.9-0.2C66.3,74.3,66.6,74.4,67,74.5L67,74.5z"/>
	<path fill="#FFCC4F" d="M79.6,73.6c0,0,0.1-0.1,0.1-0.1c-0.2-0.1-0.6-0.2-1.1-0.3l0,0.1C79,73.4,79.3,73.5,79.6,73.6z"/>
	<polygon fill="#FFCC4F" points="67.9,69.7 67.9,69.7 67.9,69.7 	"/>
	<path fill="#FFCC4F" d="M47.7,72.3c0.8-0.5,1.3-1,1.3-1c0.6-0.7,1.7-1.6,3-2.7l-9.2,3.9c-0.1,0.6-0.1,1.3-0.2,2
		c0.2,0,0.4-0.1,0.6-0.1L47.7,72.3z"/>
	<path fill="#FFCC4F" d="M68,69.7c0.1,0,0.1,0,0.2,0c0.3-0.1,0.7-0.4,1.3-1C69,69,68.6,69.3,68,69.7L68,69.7z"/>
	<path fill="#FFCC4F" d="M66.9,68.9L66.9,68.9c-0.2-0.5-0.5-0.8-0.9-1.1L65.9,68C66.4,68.3,66.7,68.6,66.9,68.9z"/>
	<path fill="#FFCC4F" d="M69.5,73.8c0-0.1,0-0.2,0-0.3l0,0.2L69.5,73.8z"/>
	<path fill="#FFCC4F" d="M76.2,72.9c-0.2,0-0.5,0-0.7,0l0,0.1C75.7,73,75.9,72.9,76.2,72.9z"/>
	<path fill="#FFCC4F" d="M75.5,73.3l0,0.3c0.4,0,0.8,0,1.2,0l0-0.2C76.4,73.3,76,73.3,75.5,73.3z"/>
	<path fill="#FFCC4F" d="M85.1,69.4L85.1,69.4c-0.7,0-0.9,0.2-0.9,0.2c0,0,0.1,0,0.1,0.1c0,0,0,0,0.1-0.1
		C84.4,69.5,84.7,69.5,85.1,69.4z"/>
	<path fill="#FFCC4F" d="M75.2,73l0-0.2c-0.4,0-0.9,0-1.2-0.1l0,0.4C74.4,73.1,74.8,73.1,75.2,73z"/>
	<path fill="#FFCC4F" d="M78.3,73.1C78.3,73.1,78.2,73.1,78.3,73.1C78.2,73.1,78.3,73.1,78.3,73.1L78.3,73.1z"/>
	<path fill="#FFCC4F" d="M67.6,74.8C67.6,74.8,67.7,74.8,67.6,74.8c0-0.1-0.1-0.1-0.2-0.2l0,0.1C67.5,74.8,67.5,74.8,67.6,74.8z"/>
	<path fill="#FFCC4F" d="M50,70.9c0.3-0.2,0.6-0.5,0.8-0.7C50.5,70.4,50.2,70.7,50,70.9z"/>
	<path fill="#FFCC4F" d="M40.6,69.7c0-0.1,0-0.2,0.1-0.3l-0.1,0C40.6,69.5,40.6,69.6,40.6,69.7z"/>
	<path fill="#FFCC4F" d="M34.6,41.3c0,0.1,0.1,0.2,0.1,0.3l30,14.3l-29-11.1c0.2,0.8,0.5,1.6,0.7,2.4l27.9,9.7L37,49.8
		c0.2,0.7,0.4,1.4,0.5,2.1L64,58l-25.9-3.8c0.2,0.7,0.3,1.3,0.4,2L63.8,59L39,58.2c0.1,0.6,0.2,1.3,0.4,1.9l2.8,0
		c0-0.2,0-0.4,0.1-0.6c0-0.2,0.2-0.4,0.4-0.4c0.2,0,0.4,0.2,0.4,0.4c0,0.1,0,0.3,0,0.6l20.8,0.1l-20.7,1.5c0,0.5,0,1.1,0,1.7
		l20.8-2.2l-20.8,3.9c0,0.6,0,1.2,0,1.8l21-4.6L43,68.7c0,0.6-0.1,1.3-0.1,1.9l11.9-4c1.6-1.1,3.1-1.9,3.9-2.1c0,0,1.1-0.2,2.5,0
		l3.3-1.1l-2.8,1.2c0.5,0.1,1.1,0.3,1.7,0.5l1.6-0.7l-1.4,0.8c0.4,0.2,0.7,0.4,1.1,0.7l0.9-0.5l-0.8,0.6c0.2,0.2,0.5,0.4,0.7,0.7
		c0,0,0.1,0.1-0.1,0.1c0,0-0.3-0.1-0.6-0.3c0.2,0.2,0.3,0.4,0.5,0.6l1-0.8L65,67.1c0,0.1,0.1,0.1,0.1,0.2c0.3,0.1,0.6,0.2,0.8,0.4
		l0.7-0.7l-0.6,0.7c0.4,0.3,0.8,0.6,1,1l0.6-0.8l-0.6,0.9c0,0.1,0.1,0.1,0.1,0.2c0,0.2-0.1,0.1-0.1,0c0,0,0-0.1-0.1-0.1L67,69
		c0.1,0.2,0.2,0.4,0.2,0.6c0.4-0.2,0.8-0.4,1.1-0.6l0.3-0.4l-0.2,0.4c1.4-0.9,2.6-2.3,3.4-3.8c0.2-0.4,0.6-0.7,1-0.9
		c0,0,0.2,0,0.2,0.1c0.4,0.3,1,0.5,1.1,1c0,0.2-0.1,0.1-0.1,0.1c-0.2-0.5-0.7-0.7-1.1-1l0,0c-0.7,0.3-1.3,1.7-1.9,2.7
		c1-1.2,1.9-2.3,1.9-2.3l0.7,0.6c0,0,0.1-0.1,0.1-0.1c0,0,0.1,0,0.1,0.1c0,0-0.1,0-0.1,0.1l0.1,0c-0.1,0-0.1,0-0.2,0
		c-0.7,0.5-1.3,1.2-1.9,1.8c-0.8,0.8-1.4,1.7-2,2.6c-0.4,0.6-0.7,1-0.7,1l0.4,1.9l0.1-0.3c0-0.4-0.1-0.8-0.2-1.3
		c0-0.1,0.1-0.1,0.2-0.1c0.1,0.3,0.2,0.5,0.3,0.8l0.9-2.6l-0.8,3c0.2,0.8,0.3,1.4,0.3,1.7c0.2,0,0.4-0.1,0.6-0.1l1-4.3L71,74
		c0.4-0.1,0.8-0.1,1.3-0.2l0.5-3.8l-0.2,3.8c0.4,0,0.8-0.1,1.2-0.1l0-0.2c-0.4,0-0.7-0.1-1.1-0.2c0,0-0.2-0.1,0-0.2
		c0-0.5-0.2-1.1,0.1-1.5c0.1-0.1-0.2,0-0.3,0.1C72.3,72,72,72.5,72,73v0c0,0.1,1,0.1,1.4,0.1l0.2-0.4c-0.4,0-0.6,0-0.6,0l0.1-0.9
		c0,0-0.1,0-0.1,0c0,0,0-0.1,0.1-0.2c0,0,0.1,0,0.1,0l0-0.1c0,0,0.1,0.1,0.2,0.1c0.1,0.1,0.3,0.1,0.4,0.1l0-1.9l0.1,1.9
		c0.4,0.1,0.8,0.1,1.2,0.1l-0.2-2.1l0.4,2.2c0.2,0,0.4,0,0.7,0.1c0.2,0,0.4,0,0.5,0L76,69.7l0.7,2.4c0.4,0,0.8,0,1.2,0l-0.9-2.8
		l1.1,2.8c0.3,0,0.7,0,1,0c0.1,0,0.2,0,0.3,0L78.1,69l1.7,3.2c0.4,0,0.6-0.1,0.6-0.1l0.4-0.5l-0.1-0.2c-0.1,0.1-0.2,0.2-0.3,0.3
		c-0.1,0-0.1,0-0.2-0.1c0.1-0.2,0.2-0.3,0.3-0.5l-1.6-2.7l1.7,2.5c0.3-0.4,0.5-0.7,0.8-0.9L80,67.8l1.8,2c0.5-0.5,0.8-0.7,0.9-0.7
		l-1.9-2l2.1,1.9c0.1,0,0.2,0,0.3,0l0,0l0.1,0c0.3,0.1,0.6,0.3,0.7,0.3c0.2-0.4,0.5-0.4,0.7-0.4l-3.1-2.7l3.7,2.7
		c0.8-0.1,1.7,0,2.5,0.2l-5.5-3.7l7.6,4.4c0.6,0.2,1.1,0.5,1.7,0.9c0.3,0.2,0.6,0.4,0.9,0.6l6.8,3.9c0.1-0.6,0.1-1.2,0.2-1.8
		l-16.7-8.9l16.9,7.3c0-0.1,0-0.3,0-0.4c0-0.4,0.1-0.9,0.2-1.3l-16.6-6.6l16.9,5.2c0.1-0.5,0.2-1.1,0.4-1.6l-16.9-4.6l17.3,3.3
		c0.2-0.5,0.4-1,0.6-1.6l-17.7-2.8l18.3,1.4c0.3-0.5,0.5-1.1,0.9-1.6l-19.1-0.9l20-0.6c0.2-0.3,0.4-0.6,0.6-0.9
		c0.2-0.3,0.4-0.6,0.6-0.9l-21.2,1.3l22.5-3.2c0.5-0.8,1.1-1.5,1.8-2.1l-24.5,4.2l37.3-9.6c0.3-0.8,0.6-1.5,0.9-2.3
		c0-0.1-0.1-0.2-0.1-0.3L83.3,57l37.2-14c-0.3-0.7-0.6-1.4-1-2.1L82.9,56l35.1-17.9c-0.4-0.7-0.8-1.3-1.2-2L82.4,55l32.7-21.4
		c-0.5-0.6-0.9-1.2-1.4-1.8L81.8,54.1l29.9-24.6c-0.5-0.6-1-1.1-1.6-1.6l-29,25.4l26.7-27.5c-0.6-0.5-1.2-1-1.7-1.5L80.4,52.5
		l23.3-30c-0.6-0.4-1.2-0.8-1.9-1.3L79.5,51.8l19.8-32.1c-0.7-0.4-1.3-0.7-2-1L78.6,51.2l16-33.8c-0.7-0.3-1.4-0.6-2.1-0.8
		L77.6,50.7l12.1-35.1c-0.7-0.2-1.4-0.4-2.2-0.6l-11,35.3l8.1-35.9c-0.7-0.1-1.5-0.3-2.2-0.4l-7,36.1l4.1-36.4
		c-0.7-0.1-1.5-0.1-2.2-0.1l-3,36.4l0.1-36.4c-0.7,0-1.5,0-2.2,0.1l1,36.3l-3.9-36c-0.7,0.1-1.5,0.2-2.2,0.3l5,35.8l-7.8-35.2
		c-0.7,0.2-1.4,0.3-2.1,0.5l8.8,34.9L59.6,16.3c-0.7,0.2-1.4,0.5-2.1,0.8l12.6,33.7L54.9,18.2c-0.7,0.3-1.3,0.6-2,1l16.2,32
		L50.4,20.5c-0.6,0.4-1.2,0.8-1.9,1.2l19.6,30L46.2,23.3c-0.6,0.4-1.2,0.9-1.7,1.4l22.8,27.7L42.4,26.5c-0.5,0.5-1.1,1-1.6,1.5
		l25.7,25.1l-27.7-23c-0.5,0.5-1,1.1-1.4,1.7L65.8,54L35.7,34.1c-0.4,0.6-0.8,1.2-1.2,1.8l30.7,19L32.9,38.3
		c-0.1,0.2-0.2,0.3-0.3,0.5C33.8,39.7,34.5,41.2,34.6,41.3z"/>
	<path fill="#FFCC4F" d="M96.9,75.5c0.6,0.5,1.3,1.1,2.1,1.7c0-0.1,0-0.2,0-0.3l-2.4-1.6C96.7,75.4,96.8,75.5,96.9,75.5z"/>
	<path fill="#FFCC4F" d="M40.6,85.3c0.9-0.7,1.8-1.4,2.8-2c-0.7-0.1-1.4-0.3-2.1-0.5C41,83.6,40.8,84.4,40.6,85.3z"/>
	<path fill="#FFCC4F" d="M39.9,63.8l1.8-0.2c0.1-0.6,0.1-1.2,0.2-1.8l-2.3,0.2C39.8,62.6,39.8,63.2,39.9,63.8z"/>
	<path fill="#FFCC4F" d="M111.4,53.2l-0.8,0.1c-0.5,0.4-1.1,0.8-1.5,1.4c-0.2,0.3-0.4,0.6-0.6,0.9l0.1,0
		C109.5,54.8,110.5,54,111.4,53.2z"/>
	<path fill="#FFCC4F" d="M119.8,52.3c0-0.2,0.1-0.4,0.1-0.5l-0.4,0.1C119.6,52,119.7,52.1,119.8,52.3z"/>
	<path fill="#FFCC4F" d="M74.1,73.4l0,0.2c0.4,0,0.8,0,1.2,0l0-0.3C74.9,73.3,74.5,73.3,74.1,73.4z"/>
	<path fill="#FFCC4F" d="M120.7,52.9c0.2-0.5,0.4-0.9,0.6-1.3l-0.2,0C120.9,52,120.8,52.4,120.7,52.9z"/>
	<path fill="#FFCC4F" d="M122.5,48.1c0.1,0.3,0.2,0.6,0.2,0.9c0,0,0,0,0,0c-0.1-0.4-0.2-0.7-0.3-1.1c0,0.1-0.1,0.2-0.1,0.3
		L122.5,48.1z"/>
	<path fill="#FFCC4F" d="M81.9,70.5L81.9,70.5c-0.3,0.1-0.6,0.4-0.9,0.7l0.1,0.2L81.9,70.5z"/>
	<path fill="#FFCC4F" d="M82.3,70c-0.1,0.1-0.2,0.1-0.3,0.2l0,0.1L82.3,70z"/>
	<path fill="#FFCC4F" d="M121.6,45.6c0,0.1,0.1,0.2,0.1,0.3C121.7,45.8,121.7,45.7,121.6,45.6z"/>
	<path fill="#FFCC4F" d="M40.4,67.5l0.7-0.2c0.1-0.6,0.2-1.3,0.3-1.9l-1.3,0.2C40.3,66.3,40.3,66.9,40.4,67.5z"/>
	<path fill="#FFFC0A" d="M102.9,61.2c0.3-0.5,0.6-1,0.9-1.5l-20,0.6L102.9,61.2z"/>
	<path fill="#FFFC0A" d="M74.1,73.4C74.1,73.4,74.1,73.4,74.1,73.4c-0.1,0-0.2,0-0.3,0l0,0.2c0.1,0,0.2,0,0.3,0L74.1,73.4z"/>
	<path fill="#FFFC0A" d="M65.9,68l0.1-0.1c0,0-0.1,0-0.1,0L65.9,68C65.8,67.9,65.9,67.9,65.9,68z"/>
	<path fill="#FFFC0A" d="M74.1,73.2l0-0.4c-0.1,0-0.2,0-0.2,0l0,0.4C73.9,73.2,74,73.2,74.1,73.2z"/>
	<path fill="#FFFC0A" d="M64,69.7L64,69.7c-0.1,0.2-0.1,0.4-0.1,0.5l0,0C63.9,70,64,69.8,64,69.7z"/>
	<path fill="#FFFC0A" d="M64.6,67.5l0.1-0.1c-0.1,0-0.1,0-0.2,0l-0.2,0.1C64.5,67.5,64.5,67.5,64.6,67.5z"/>
	<path fill="#FFFC0A" d="M101.4,64.2c0.2-0.5,0.4-0.9,0.6-1.4l-18.3-1.4L101.4,64.2z"/>
	<polygon fill="#FFFC0A" points="63.6,68.4 63.6,68.4 63.6,68.4 	"/>
	<path fill="#FFFC0A" d="M119.6,40.9L119.6,40.9c-0.4-1-0.9-1.9-1.4-2.8l-0.1,0L82.9,56L119.6,40.9z"/>
	<path fill="#FFFC0A" d="M76.8,73.3l0,0.2c0.1,0,0.2,0,0.3,0l-0.1-0.2C77,73.3,76.9,73.3,76.8,73.3z"/>
	<path fill="#FFFC0A" d="M75.5,73l0-0.1c-0.1,0-0.2,0-0.2,0l0,0.2C75.3,73,75.4,73,75.5,73z"/>
	<path fill="#FFFC0A" d="M121.7,46L121.7,46C121.7,46,121.7,45.9,121.7,46c0-0.2-0.1-0.3-0.1-0.4c-0.3-0.9-0.7-1.8-1-2.7l0,0
		L83.3,57.1L121.7,46z"/>
	<path fill="#FFFC0A" d="M75.3,73.3l0,0.3c0.1,0,0.2,0,0.3,0l0-0.3C75.5,73.3,75.4,73.3,75.3,73.3z"/>
	<path fill="#FFFC0A" d="M78.7,73.3L78.7,73.3c-0.1-0.1-0.3-0.1-0.4-0.1l0,0C78.4,73.2,78.6,73.2,78.7,73.3z"/>
	<path fill="#FFFC0A" d="M108.1,53.8c0.6-0.6,1.3-1.2,2.2-1.8c2.1-1.3,4.6-1.4,6.5-1.3c0.4,0,0.8,0,1.2,0.2c1.2,0.2,1.9,0.4,1.9,0.4
		c0.3-1,0.6-1.9,1-2.9l-37.3,9.6L108.1,53.8z"/>
	<path fill="#FFFC0A" d="M78.5,73.7c0.1,0,0.2,0,0.3,0C78.7,73.7,78.6,73.7,78.5,73.7L78.5,73.7z"/>
	<path fill="#FFFC0A" d="M34.7,41.6c0.3,1.1,0.7,2.1,1,3.2l29,11.1L34.7,41.6z"/>
	<path fill="#FFFC0A" d="M43.1,63.4c0,0.5,0,1.1,0,1.7l20.8-3.9L43.1,63.4z"/>
	<path fill="#FFFC0A" d="M38.6,56.1c0.1,0.7,0.3,1.4,0.4,2L63.8,59L38.6,56.1z"/>
	<path fill="#FFFC0A" d="M43,60c0,0.4,0,0.9,0,1.6l20.7-1.5L43,60z"/>
	<path fill="#FFFC0A" d="M43,66.9c0,0.6,0,1.2-0.1,1.8l21.1-6.4L43,66.9z"/>
	<path fill="#FFFC0A" d="M84.7,69c0.1,0,0.2,0,0.2,0c0.1,0,0.2,0,0.3,0l-3.7-2.7L84.7,69z"/>
	<path fill="#FFFC0A" d="M36.3,47.2c0.2,0.9,0.5,1.8,0.7,2.6l27.2,7.1L36.3,47.2z"/>
	<path fill="#FFFC0A" d="M64.4,63.4l-3.3,1.1c0.2,0,0.3,0,0.5,0.1L64.4,63.4z"/>
	<path fill="#FFFC0A" d="M69.5,73.5c0-0.2,0-0.5-0.1-0.8L69.4,73l0.1,0.7L69.5,73.5z"/>
	<path fill="#FFFC0A" d="M37.6,51.9c0.2,0.8,0.4,1.5,0.5,2.2L64,58L37.6,51.9z"/>
	<path fill="#FFFC0A" d="M67.9,69.7L67.9,69.7c0,0,0.1,0,0.1,0l0-0.1C68,69.6,68,69.7,67.9,69.7z"/>
	<path fill="#FFFC0A" d="M100.4,67.1c0.1-0.4,0.3-0.9,0.4-1.3l-17.3-3.3L100.4,67.1z"/>
	<path fill="#FFFC0A" d="M64.8,64.4l-1.6,0.7c0,0,0.1,0,0.1,0.1L64.8,64.4z"/>
	<path fill="#FFFC0A" d="M99.8,70.1c0.1-0.5,0.2-0.9,0.2-1.4l-16.9-5.2L99.8,70.1z"/>
	<path fill="#FFFC0A" d="M66.9,68.9C66.9,69,67,69,66.9,68.9l0.1,0C67,68.9,67,68.9,66.9,68.9L66.9,68.9z"/>
	<path fill="#FFFC0A" d="M99.4,73.3c0-0.5,0.1-1,0.1-1.6l-16.9-7.3L99.4,73.3z"/>
	<path fill="#FFFC0A" d="M82.2,65.4l5.5,3.7c0,0,0,0,0,0c0.2,0.1,0.4,0.1,0.6,0.2c0.5,0.1,1,0.2,1.5,0.4L82.2,65.4z"/>
	<path fill="#FFFC0A" d="M105,57.8c0.4-0.6,0.9-1.3,1.3-1.9l-22.5,3.2L105,57.8z"/>
	<path fill="#FFFC0A" d="M48.6,21.7l-0.2-0.4c-0.8,0.5-1.6,1.1-2.4,1.7l0.3,0.3l21.9,28.4L48.6,21.7z"/>
	<path fill="#FFFC0A" d="M44.5,24.7l-0.3-0.3c-0.7,0.6-1.5,1.2-2.2,1.9l0.3,0.3l24.9,25.9L44.5,24.7z"/>
	<path fill="#FFFC0A" d="M52.9,19.1l-0.2-0.4c-0.8,0.4-1.7,0.9-2.5,1.4l0.2,0.4l18.7,30.6L52.9,19.1z"/>
	<path fill="#FFFC0A" d="M57.5,17l-0.2-0.4c-0.9,0.4-1.8,0.7-2.6,1.1l0.2,0.4l15.2,32.5L57.5,17z"/>
	<path fill="#FFFC0A" d="M34.4,35.9l-0.3-0.2c-0.5,0.8-1,1.6-1.5,2.5l0.3,0.2l32.2,16.6L34.4,35.9z"/>
	<path fill="#FFFC0A" d="M40.8,28l-0.3-0.3c-0.7,0.7-1.3,1.4-2,2.1l0.3,0.2l27.7,23L40.8,28z"/>
	<path fill="#FFFC0A" d="M62.3,15.4L62.2,15c-0.9,0.3-1.8,0.5-2.8,0.9l0.1,0.4l11.6,34.1L62.3,15.4z"/>
	<path fill="#FFFC0A" d="M67.7,67.9l-0.6,0.8c0,0,0,0.1,0,0.1L67.7,67.9z"/>
	<path fill="#FFFC0A" d="M37.4,31.8l-0.3-0.2c-0.6,0.7-1.2,1.5-1.7,2.3l0.3,0.2L65.8,54L37.4,31.8z"/>
	<path fill="#FFFC0A" d="M97.2,18.6l0.2-0.3c-0.9-0.4-1.8-0.9-2.7-1.3l-0.1,0.3l-16,33.8L97.2,18.6z"/>
	<path fill="#FFFC0A" d="M92.5,16.6l0.1-0.3c-0.9-0.3-1.9-0.7-2.8-1l-0.1,0.3L77.6,50.7L92.5,16.6z"/>
	<path fill="#FFFC0A" d="M101.8,21.2L102,21c-0.8-0.5-1.7-1.1-2.6-1.6l-0.2,0.2L79.5,51.8L101.8,21.2z"/>
	<path fill="#FFFC0A" d="M77.3,13.6l0-0.4c-0.6,0-1.5,0-2.2,0c-0.3,0-1.2,0-1.2,0v0.4L74.1,50L77.3,13.6z"/>
	<path fill="#FFFC0A" d="M67.2,14.3l-0.1-0.4c-1,0.2-1.9,0.4-2.8,0.6l0.1,0.4l7.8,35.2L67.2,14.3z"/>
	<path fill="#FFFC0A" d="M87.5,15.1l0.1-0.4c-0.9-0.2-1.9-0.4-2.9-0.6l-0.1,0.4l-8.1,35.9L87.5,15.1z"/>
	<path fill="#FFFC0A" d="M82.4,14.1l0.1-0.4c-1-0.1-1.9-0.2-2.9-0.3l0,0.4l-4.1,36.4L82.4,14.1z"/>
	<path fill="#FFFC0A" d="M73.9,70l0,1.9c0.1,0,0.1,0,0.2,0L73.9,70z"/>
	<path fill="#FFFC0A" d="M76,69.7l0.5,2.4c0.1,0,0.1,0,0.2,0L76,69.7z"/>
	<path fill="#FFFC0A" d="M74.9,69.9l0.2,2.1c0.1,0,0.1,0,0.2,0L74.9,69.9z"/>
	<path fill="#FFFC0A" d="M65.3,65.3l-0.9,0.5c0,0,0,0,0.1,0.1L65.3,65.3z"/>
	<path fill="#FFFC0A" d="M113.7,31.8l0.1-0.1c-0.6-0.8-1.3-1.6-2-2.4l-0.1,0.1L81.8,54.1L113.7,31.8z"/>
	<path fill="#FFFC0A" d="M77.1,69.4l0.9,2.8c0.1,0,0.2,0,0.2,0L77.1,69.4z"/>
	<path fill="#FFFC0A" d="M78.1,69l1.4,3.2c0.1,0,0.2,0,0.3,0L78.1,69z"/>
	<path fill="#FFFC0A" d="M66,66.2L65,67c0,0,0,0.1,0.1,0.1L66,66.2z"/>
	<path fill="#FFFC0A" d="M110.1,27.8l0.2-0.1c-0.7-0.7-1.5-1.4-2.2-2.1l-0.2,0.2L81.1,53.2L110.1,27.8z"/>
	<path fill="#FFFC0A" d="M71.7,69.7l-1,4.3c0.1,0,0.2-0.1,0.4-0.1L71.7,69.7z"/>
	<path fill="#FFFC0A" d="M66.7,67L66,67.7c0,0,0,0,0.1,0L66.7,67z"/>
	<path fill="#FFFC0A" d="M72.8,69.9l-0.5,3.8c0.1,0,0.2,0,0.3,0L72.8,69.9z"/>
	<path fill="#FFFC0A" d="M70.6,69.5L69.7,72c0,0.1,0.1,0.3,0.1,0.4L70.6,69.5z"/>
	<path fill="#FFFC0A" d="M116.9,36.1L116.9,36.1c-0.5-0.9-1-1.8-1.7-2.6l-0.1,0.1L82.4,55L116.9,36.1z"/>
	<path fill="#FFFC0A" d="M68.6,68.5L68.3,69c0,0,0,0,0.1,0L68.6,68.5z"/>
	<path fill="#FFFC0A" d="M47.7,72.3l-4.6,2.1C45,73.9,46.6,73,47.7,72.3z"/>
	<path fill="#FFFC0A" d="M72.3,13.7l0-0.4c-1,0.1-1.9,0.2-2.9,0.3l0,0.4l3.9,36L72.3,13.7z"/>
	<path fill="#FFFC0A" d="M122.3,48.2c-0.5,1.1-0.9,2.3-1.2,3.4l0.2,0c0.4-0.9,0.9-1.7,1.4-2.5c-0.1-0.3-0.1-0.6-0.2-0.9L122.3,48.2z
		"/>
	<path fill="#FFFC0A" d="M85.5,69.3c-0.2,0-0.3,0-0.5,0l0.1,0.1C85.2,69.3,85.3,69.3,85.5,69.3z"/>
	<path fill="#FFFC0A" d="M39.7,61.9l2.3-0.2c0.1-0.6,0.1-1.1,0.2-1.7l-2.8,0C39.4,60.7,39.6,61.3,39.7,61.9z"/>
	<path fill="#FFFC0A" d="M62.5,67.4L62.5,67.4c0-0.1-0.1-0.2-0.1-0.2c0,0,0,0,0,0l0,0C62.4,67.2,62.5,67.3,62.5,67.4z"/>
	<path fill="#FFFC0A" d="M113,52.2c-0.9,0.3-1.6,0.7-2.3,1.2l0.8-0.1C111.9,52.8,112.4,52.5,113,52.2z"/>
	<path fill="#FFFC0A" d="M93.1,71.7c0.8,0.7,2.7,2.7,3.5,3.5l2.4,1.6c0.1-0.6,0.2-1.1,0.2-1.7l-6.8-3.9
		C92.7,71.4,92.9,71.6,93.1,71.7z"/>
	<path fill="#FFFC0A" d="M108.5,55.6c-0.1,0.1-0.1,0.2-0.2,0.3c0.1-0.1,0.2-0.2,0.3-0.3L108.5,55.6z"/>
	<path fill="#FFFC0A" d="M82.1,70.3L82.1,70.3c-0.1,0-0.2,0.1-0.2,0.1l0.1,0.1L82.1,70.3z"/>
	<path fill="#FFFC0A" d="M63.3,68.3C63.3,68.3,63.3,68.3,63.3,68.3L63.3,68.3C63.2,68.3,63.3,68.3,63.3,68.3z"/>
	<path fill="#FFFC0A" d="M80.7,71.2c0-0.1,0.1-0.2,0.2-0.2l-1.7-2.5L80.7,71.2z"/>
	<path fill="#FFFC0A" d="M81.6,70c0-0.1,0.1-0.1,0.1-0.2l-1.8-2L81.6,70z"/>
	<path fill="#FFFC0A" d="M54.7,66.6l-11.9,4c0,0.7-0.1,1.3-0.1,2l9.2-3.9C52.8,68,53.8,67.3,54.7,66.6z"/>
	<path fill="#FFFC0A" d="M81.1,71.4L81,71.2c-0.1,0.1-0.1,0.1-0.2,0.2l0.1,0.2L81.1,71.4z"/>
	<path fill="#FFFC0A" d="M84.3,70.8C84.3,70.8,84.3,70.8,84.3,70.8L84.3,70.8C84.3,70.8,84.3,70.8,84.3,70.8z"/>
	<path fill="#FFFC0A" d="M82.7,69.1c0.1,0,0.1-0.1,0.1-0.1c0,0,0.1,0,0.2,0l-2.1-1.9L82.7,69.1z"/>
	<path fill="#FFFC0A" d="M67.4,74.7L67.4,74.7c-0.1-0.1-0.3-0.2-0.4-0.3l0,0.1C67.1,74.6,67.2,74.7,67.4,74.7z"/>
	<path fill="#FFFC0A" d="M40.2,65.6l1.3-0.2c0.1-0.6,0.2-1.2,0.3-1.8l-1.8,0.2C40,64.4,40.1,65,40.2,65.6z"/>
	<path fill="#FFFC0A" d="M106.1,24.3l0.2-0.2c-0.8-0.6-1.6-1.2-2.4-1.8l-0.2,0.2l-23.3,30L106.1,24.3z"/>
	<path fill="#FFFC0A" d="M123,50c-0.2,0.4-0.5,0.9-0.7,1.3l1-0.2C123.2,50.8,123.1,50.4,123,50z"/>
	<path fill="#FFFC0A" d="M40.6,69.4L40.6,69.4c0.2-0.7,0.4-1.4,0.5-2.1l-0.7,0.2C40.5,68.1,40.5,68.8,40.6,69.4z"/>
	<path fill="#FFFC0A" d="M119.4,51.8l0.4-0.1c0,0,0-0.1,0-0.1c-0.2,0-0.5-0.1-0.7-0.1C119.3,51.7,119.4,51.8,119.4,51.8z"/>
	<path fill="#FFFC0A" d="M123.8,53.5l-1.4,0.2c0.5,0.1,0.9,0.1,1.5,0.3C123.8,53.8,123.8,53.6,123.8,53.5z"/>
	<path fill="#F4B824" enable-background="new    " d="M36.6,81.3c0.1-0.1,0.1-0.3,0.2-0.4c-0.1-0.1-0.1-0.2-0.2-0.3
		C36.6,80.8,36.6,81.1,36.6,81.3z"/>
	<path fill="#F4B824" enable-background="new    " d="M33,82.2c1.3-2.4,0.9-5.8,3.4-7c0-0.3,0-0.7,0-1c-1.2-0.8-0.4-1.9,0-3
		c0-0.5,0-1,0-1.5c-0.2-0.3-0.5-0.7-1-1c0.5-0.5,0.6-1.3,1-1.7c-0.5-0.2-1.1-0.7-1.7-0.9c0.4-0.6,0.6-1.8,1.3-2.5
		c-0.7-1.1-0.7-1.6-0.9-2.4c-1.5-0.9-1.5-2.2-0.3-3.5c-1.1-1.8-2.6-4.1-0.4-5.9c-2-1.1-1.1-4.3-1.4-6.5c0-0.1,0-0.2,0-0.3
		c0-0.1,0-0.2,0-0.2c-0.6,0-1.3-0.2-1.9-0.1c0.2-0.9,0.4-2.1,0.8-2.9l1.3,1.7c-0.1,0.6-0.2,1.1-0.1,1.5c0,0.1,0,0.2,0,0.3
		c0.3,1.3,1.3,2,1.7,3.5c0.3,1.4-0.2,2.9,0.1,4.4c0.6,3.9,2.2,5.6,2,10c-0.1,2.1-0.2,4.3-0.2,6.4c0.2,0.5,0.2,1,0,1.5c0,1,0,2,0,3
		c0.3,0.2,0.8,0.4,1.4,0.6c-0.6,0.1-1,0.2-1.4,0.4c0,1,0,2,0.1,3c0.1-0.2,0.2-0.4,0.4-0.6c0.3-0.3,1-0.8,1.7-1.2
		c0.5-1.3,0.9-2.6,1.3-4c-0.3-7.5-1.9-17.5-6.1-30.8c-0.4-0.7-1.6-2.7-2.8-2.7c0,0,0,0,0,0c-0.5,1-6.8,14.1-1.6,34.8
		c1.5,3.2,3.1,6.9,4.2,10.4C33.5,83.5,33.5,82.9,33,82.2z M31.7,72c0.7-2.2-0.5-4.2-0.3-6.6c0-0.2,0.6-0.6,0.7-0.9
		c-1.5-1.4-0.7-4.9-0.4-6.7c-2.6-2.2-0.6-4.9-0.4-7.6c0.1,1.5-0.3,3.9,1.1,5.4c-0.2,0-0.5,0.1-0.7,0.2c0.2,0.7,0.2,1.5,0.4,2.4
		l0.4-1.7c0.1,4.2,0.5,8.6,1.6,12.1c-1.2,0.8-1.6,1.6-1.2,3.4C32.7,72,31.9,72,31.7,72z"/>
	<path fill="#F4B824" enable-background="new    " d="M38.3,77.1c-0.3,0.2-0.5,0.5-0.8,0.7c0.2-0.1,0.4-0.3,0.6-0.4
		C38.2,77.3,38.3,77.2,38.3,77.1z"/>
	<path fill="#F4B824" enable-background="new    " d="M36.4,71.2c-0.4,1.1-1.2,2.2,0,3C36.4,73.2,36.4,72.2,36.4,71.2z"/>
	<path opacity="0.58" fill="#FFFFFE" d="M36.4,71.2c-0.4,1.1-1.2,2.2,0,3C36.4,73.2,36.4,72.2,36.4,71.2z"/>
	<path fill="#F4B824" enable-background="new    " d="M32.9,43.5l-1.3-1.7c-0.5,0.7-0.6,2-0.8,2.9c0.6-0.1,1.3,0.1,1.9,0.1
		c0,0.1,0,0.2,0,0.2C32.8,44.6,32.8,44.1,32.9,43.5z"/>
	<path opacity="0.58" fill="#FFFFFE" d="M32.9,43.5l-1.3-1.7c-0.5,0.7-0.6,2-0.8,2.9c0.6-0.1,1.3,0.1,1.9,0.1c0,0.1,0,0.2,0,0.2
		C32.8,44.6,32.8,44.1,32.9,43.5z"/>
	<path fill="#F4B824" enable-background="new    " d="M32.9,45.4c0-0.1,0-0.2,0-0.3C32.8,45.2,32.9,45.3,32.9,45.4z"/>
	<path opacity="0.58" fill="#FFFFFE" d="M32.9,45.4c0-0.1,0-0.2,0-0.3C32.8,45.2,32.9,45.3,32.9,45.4z"/>
	<path fill="#F4B824" enable-background="new    " d="M36.5,78.1c0-1,0-2-0.1-3c-2.6,1.2-2.2,4.7-3.4,7c0.6,0.7,0.6,1.3,0.6,1.9
		c0.2,0.8,0.4,1.5,0.6,2.2c0.8-1.5,1.6-3.2,2.4-5c0-0.2,0-0.5,0-0.7C36.2,79.9,36,79,36.5,78.1z"/>
	<path opacity="0.58" fill="#FFFFFE" d="M36.5,78.1c0-1,0-2-0.1-3c-2.6,1.2-2.2,4.7-3.4,7c0.6,0.7,0.6,1.3,0.6,1.9
		c0.2,0.8,0.4,1.5,0.6,2.2c0.8-1.5,1.6-3.2,2.4-5c0-0.2,0-0.5,0-0.7C36.2,79.9,36,79,36.5,78.1z"/>
	<path fill="#F4B824" enable-background="new    " d="M37.8,74.7c-0.6-0.2-1.1-0.4-1.4-0.6c0,0.3,0,0.7,0,1
		C36.8,75,37.3,74.8,37.8,74.7z"/>
	<path opacity="0.58" fill="#FFFFFE" d="M37.8,74.7c-0.6-0.2-1.1-0.4-1.4-0.6c0,0.3,0,0.7,0,1C36.8,75,37.3,74.8,37.8,74.7z"/>
	<path fill="#F4B824" enable-background="new    " d="M36.6,63.3c0.2-4.5-1.4-6.1-2-10c-0.2-1.4,0.2-3-0.1-4.4
		c-0.3-1.5-1.4-2.2-1.7-3.5c0.3,2.3-0.6,5.4,1.4,6.5c-2.2,1.7-0.7,4.1,0.4,5.9c-1.2,1.4-1.2,2.6,0.3,3.5c0.3,0.8,0.3,1.3,0.9,2.4
		c-0.7,0.6-0.8,1.9-1.3,2.5c0.6,0.2,1.2,0.7,1.7,0.9c-0.3,0.4-0.5,1.2-1,1.7c0.6,0.3,0.9,0.6,1,1C36.4,67.6,36.5,65.4,36.6,63.3z"/>
	<path opacity="0.58" fill="#FFFFFE" d="M36.6,63.3c0.2-4.5-1.4-6.1-2-10c-0.2-1.4,0.2-3-0.1-4.4c-0.3-1.5-1.4-2.2-1.7-3.5
		c0.3,2.3-0.6,5.4,1.4,6.5c-2.2,1.7-0.7,4.1,0.4,5.9c-1.2,1.4-1.2,2.6,0.3,3.5c0.3,0.8,0.3,1.3,0.9,2.4c-0.7,0.6-0.8,1.9-1.3,2.5
		c0.6,0.2,1.2,0.7,1.7,0.9c-0.3,0.4-0.5,1.2-1,1.7c0.6,0.3,0.9,0.6,1,1C36.4,67.6,36.5,65.4,36.6,63.3z"/>
	<path fill="#F4B824" enable-background="new    " d="M33.2,88.1c0.1-0.2,0.2-0.4,0.4-0.6c0-0.1,0-0.2-0.1-0.3L33.2,88.1z"/>
	<path opacity="0.58" fill="#FFFFFE" d="M33.2,88.1c0.1-0.2,0.2-0.4,0.4-0.6c0-0.1,0-0.2-0.1-0.3L33.2,88.1z"/>
	<path fill="#F4B824" enable-background="new    " d="M36.4,69.7c0,0.5,0,1,0,1.5C36.6,70.7,36.6,70.2,36.4,69.7z"/>
	<path opacity="0.58" fill="#FFFFFE" d="M36.4,69.7c0,0.5,0,1,0,1.5C36.6,70.7,36.6,70.2,36.4,69.7z"/>
	<path fill="#F4B824" enable-background="new    " d="M34.1,68.7c-1.1-3.6-1.5-7.9-1.6-12.1l-0.4,1.7c-0.1-0.9-0.1-1.7-0.4-2.4
		c0.2-0.1,0.5-0.1,0.7-0.2c-1.4-1.5-1.1-3.9-1.1-5.4c-0.2,2.6-2.2,5.4,0.4,7.6c-0.3,1.7-1,5.3,0.4,6.7c-0.1,0.3-0.7,0.7-0.7,0.9
		c-0.2,2.4,1,4.4,0.3,6.6c0.2,0,1,0,1.1,0C32.5,70.3,32.9,69.5,34.1,68.7z"/>
	<path opacity="0.58" fill="#FFFFFE" d="M34.1,68.7c-1.1-3.6-1.5-7.9-1.6-12.1l-0.4,1.7c-0.1-0.9-0.1-1.7-0.4-2.4
		c0.2-0.1,0.5-0.1,0.7-0.2c-1.4-1.5-1.1-3.9-1.1-5.4c-0.2,2.6-2.2,5.4,0.4,7.6c-0.3,1.7-1,5.3,0.4,6.7c-0.1,0.3-0.7,0.7-0.7,0.9
		c-0.2,2.4,1,4.4,0.3,6.6c0.2,0,1,0,1.1,0C32.5,70.3,32.9,69.5,34.1,68.7z"/>
	<path fill="#74C044" enable-background="new    " d="M22.4,78c1.1,3.8,3.1,9.4,4.1,12.3c0.8,1.4,1.6,2.7,2.3,3.7c0,0,0,0,0,0
		c0.2,0,0.4,0.1,0.5,0.3c0.5-0.7,1.3-1.9,2.3-3.5c-1.4-5.2-4.1-14.7-7.3-19.2C23.6,71.9,21.2,73.5,22.4,78z"/>
	<path fill="#74C044" enable-background="new    " d="M15.6,72.8c-1.8,2.6-2.4,5.4-2.4,8.1c0,2.8,0.6,5.3,1.2,7
		c0.2-6.3,3.2-14.4,4.5-17.7C17.6,71.2,15.7,72.7,15.6,72.8z"/>
	<path fill="#74C044" enable-background="new    " d="M34,93.8v2.5l-1.1,3.4l0.1,2.1l0.2,0.8c0,0,0.6,0,0,0.6
		c-0.6,0.6-1.1,1.1-1.1,1.1l-0.1,1.5v1.3l0.8,1.6l0.2,0.3c0.4-0.1,0.9-0.2,1.3-0.3c-0.5-0.6-1.4-1.7-1.4-2.6c0-0.1,0-0.2,0.1-0.3
		c0.1-0.3,0.4-0.7,1.1-0.8c0.1,0,0.2-0.1,0.3-0.1c-0.3-1.3-0.5-2.5-0.5-3.8c0-0.3-0.1-0.5-0.1-0.8c0-0.2,0-0.4,0-0.6
		c0-2,0.3-3.7,0.9-5.7h0c0,0,0-0.1,0-0.1c0.3-0.9,0.9-1.7,1.3-2.6C35.4,92.3,34,93.1,34,93.8z"/>
	<path fill="#74C044" enable-background="new    " d="M41.4,75.8C41.4,75.8,41.4,75.8,41.4,75.8c-0.7,0.2-1.4,0.5-2,0.7
		c0,0.1-0.1,0.1-0.1,0.2C39.9,76.5,40.6,76.2,41.4,75.8z"/>
	<path fill="#74C044" enable-background="new    " d="M39.4,82.3c-0.5,2-1.3,4.6-2.5,7c0.7-1,1.5-2,2.4-2.9c0.4-1.2,0.8-2.5,1.1-3.9
		C40.1,82.5,39.8,82.4,39.4,82.3z"/>
	<path fill="#74C044" enable-background="new    " d="M41.6,74.9c0.3-3.1,0.5-6.2,0.6-8.7c-0.6,3.4-1.5,6.6-2.5,9.6
		C40.4,75.4,41.1,75.1,41.6,74.9z"/>
	<path fill="#7C5F47" d="M39.3,76.8c0-0.1,0.1-0.1,0.1-0.2c-0.4,0.1-0.7,0.3-1,0.5c0,0,0,0,0,0c0,0.1-0.1,0.2-0.1,0.3
		C38.5,77.2,38.9,77,39.3,76.8z"/>
	<path fill="#74C044" enable-background="new    " d="M31.9,102.2c0-1.3-0.4-1.5-0.2-3.4c0.2-1.9,0.2-2.7,0.2-2.7l0.8-2.7
		c0,0,3.7-1.1,6.6-11.1c-0.4-0.1-0.8-0.2-1.2-0.4c-0.2,0-0.4-0.1-0.7-0.3c-2.7,6.2-5.6,10.7-7,12.7l-1,0.1c0.4,2.2,0.3,4.7-0.2,7.3
		l-0.2,1c-0.3,1.2-0.4,1.4,0.6,3.4c0.9,1.8,0.8,2.4,0.6,3.6c0.6-0.1,1.2-0.2,1.9-0.4c-0.2-1.4-0.5-3.1-0.6-4.1
		C31.2,103.4,31.9,103.4,31.9,102.2z"/>
	<path fill="#74C044" enable-background="new    " d="M39.4,82.3c0,0-0.1,0-0.1,0c-2.9,10-6.6,11.1-6.6,11.1l-0.8,2.7
		c0,0,0,0.8-0.2,2.7c-0.2,1.9,0.2,2.1,0.2,3.4c0,1.3-0.6,1.3-0.4,2.9c0.1,1,0.4,2.7,0.6,4.1c0.3-0.1,0.5-0.1,0.8-0.2
		c0.1,0,0.3-0.1,0.4-0.1l-0.4-0.3L32,107v-1.3l0-1.5c0,0,0.3-0.4,1-1.1c0.6-0.6,0.1-0.6,0.1-0.6l-0.2-0.8l0-2.1l1.1-3.4v-2.5
		c0-0.6,1.4-1.5,2-2.5c0.1-0.2,0.1-0.5,0.2-0.7c0.3-0.5,0.5-0.9,0.8-1.3C38.2,86.9,39,84.3,39.4,82.3z"/>
	<path opacity="0.58" fill="#FFFFFE" d="M39.4,82.3c0,0-0.1,0-0.1,0c-2.9,10-6.6,11.1-6.6,11.1l-0.8,2.7c0,0,0,0.8-0.2,2.7
		c-0.2,1.9,0.2,2.1,0.2,3.4c0,1.3-0.6,1.3-0.4,2.9c0.1,1,0.4,2.7,0.6,4.1c0.3-0.1,0.5-0.1,0.8-0.2c0.1,0,0.3-0.1,0.4-0.1l-0.4-0.3
		L32,107v-1.3l0-1.5c0,0,0.3-0.4,1-1.1c0.6-0.6,0.1-0.6,0.1-0.6l-0.2-0.8l0-2.1l1.1-3.4v-2.5c0-0.6,1.4-1.5,2-2.5
		c0.1-0.2,0.1-0.5,0.2-0.7c0.3-0.5,0.5-0.9,0.8-1.3C38.2,86.9,39,84.3,39.4,82.3z"/>
	<path fill="#74C044" enable-background="new    " d="M21.9,69.2c-0.6-0.3-1.2-0.3-1.7-0.1c-0.3,0.6-1.2,2.8-2.2,5.8
		c2,3.7,5.6,10.3,8.5,15.4c-1.1-2.9-3.1-8.5-4.1-12.3c-1.3-4.5,1.2-6.1,1.9-6.4C23.5,70.5,22.7,69.6,21.9,69.2z"/>
	<path opacity="0.37" fill="#7C5F47" d="M21.9,69.2c-0.6-0.3-1.2-0.3-1.7-0.1c-0.3,0.6-1.2,2.8-2.2,5.8c2,3.7,5.6,10.3,8.5,15.4
		c-1.1-2.9-3.1-8.5-4.1-12.3c-1.3-4.5,1.2-6.1,1.9-6.4C23.5,70.5,22.7,69.6,21.9,69.2z"/>
	<path fill="#7C5F47" d="M27.3,92.1c0,0-0.3-0.7-0.7-1.8c-3-5.1-6.5-11.7-8.5-15.4c1-2.9,1.9-5.1,2.2-5.8c0.6-0.2,1.1-0.2,1.7,0.1
		c0.8,0.4,1.6,1.2,2.4,2.3c0.1-0.1,0.2-0.1,0.2-0.1s-0.4-0.6-1.7-2.1c-1.3-1.5-2.9-0.6-2.9-0.6l-2.1,6.7L27.3,92.1z"/>
	<path opacity="0.37" fill="#7C5F47" d="M27.3,92.1c0,0-0.3-0.7-0.7-1.8c-3-5.1-6.5-11.7-8.5-15.4c1-2.9,1.9-5.1,2.2-5.8
		c0.6-0.2,1.1-0.2,1.7,0.1c0.8,0.4,1.6,1.2,2.4,2.3c0.1-0.1,0.2-0.1,0.2-0.1s-0.4-0.6-1.7-2.1c-1.3-1.5-2.9-0.6-2.9-0.6l-2.1,6.7
		L27.3,92.1z"/>
	<path fill="#F4B824" enable-background="new    " d="M32.5,85.5c0.1,0,0.3-0.1,0.5-0.2c-2.3-8.1-7.8-17.9-9-20.1c0,0.8,0,1.6,0,2.4
		c0,0.8,0,1.5,0.1,2.3c3.5,4,6.5,13.7,8.1,19.6C32.6,88,34.1,87.3,32.5,85.5z"/>
	<path opacity="0.17" fill="#7C5F47" d="M32.5,85.5c0.1,0,0.3-0.1,0.5-0.2c-2.3-8.1-7.8-17.9-9-20.1c0,0.8,0,1.6,0,2.4
		c0,0.8,0,1.5,0.1,2.3c3.5,4,6.5,13.7,8.1,19.6C32.6,88,34.1,87.3,32.5,85.5z"/>
	<path fill="#F4B824" enable-background="new    " d="M31,39c-0.7,0-1.3,0.6-1.9,1.8c-1.4,2.9-4.5,12-5,23.4c0.2,0,0.3,0,0.4,0.2
		c0.2,0.4,2.5,4.3,4.9,9.4C24.2,53,30.5,39.9,31,39z"/>
	<path opacity="0.17" fill="#7C5F47" d="M31,39c-0.7,0-1.3,0.6-1.9,1.8c-1.4,2.9-4.5,12-5,23.4c0.2,0,0.3,0,0.4,0.2
		c0.2,0.4,2.5,4.3,4.9,9.4C24.2,53,30.5,39.9,31,39z"/>
	<path fill="#F4B824" enable-background="new    " d="M32.5,85.5c1.5,1.8,0.1,2.5-0.4,3.9c0,0.1,0.1,0.2,0.1,0.3
		c0.3-0.5,0.7-1.1,1-1.8l0.3-0.9c-0.1-0.6-0.3-1.2-0.5-1.8C32.8,85.4,32.6,85.5,32.5,85.5z"/>
	<path opacity="0.58" fill="#FFFFFE" d="M32.5,85.5c1.5,1.8,0.1,2.5-0.4,3.9c0,0.1,0.1,0.2,0.1,0.3c0.3-0.5,0.7-1.1,1-1.8l0.3-0.9
		c-0.1-0.6-0.3-1.2-0.5-1.8C32.8,85.4,32.6,85.5,32.5,85.5z"/>
	<path opacity="0.17" fill="#7C5F47" d="M32.5,85.5c1.5,1.8,0.1,2.5-0.4,3.9c0,0.1,0.1,0.2,0.1,0.3c0.3-0.5,0.7-1.1,1-1.8l0.3-0.9
		c-0.1-0.6-0.3-1.2-0.5-1.8C32.8,85.4,32.6,85.5,32.5,85.5z"/>
	<path fill="#7C5F47" d="M24.5,64.3c-0.1-0.1-0.2-0.2-0.4-0.2c0.5-11.4,3.6-20.5,5-23.4c0.6-1.2,1.2-1.8,1.9-1.8c0,0,0-0.1,0-0.1
		c-6.3-0.6-7.6,30.7-7.6,30.7c4.4,5.9,8.8,21.4,8.8,21.4l0.9-3c-0.4,0.6-0.7,1.2-1,1.8c0-0.1-0.1-0.2-0.1-0.3
		c-1.6-5.9-4.6-15.6-8.1-19.6c0-0.8-0.1-1.5-0.1-2.3c0-0.8,0-1.6,0-2.4c1.3,2.2,6.7,12,9,20.1c0.2,0.6,0.3,1.2,0.5,1.8l0.2-0.7
		c-2-4.5-3.4-8.7-4.4-12.7C27,68.7,24.7,64.7,24.5,64.3z"/>
	<path opacity="0.17" fill="#7C5F47" d="M24.5,64.3c-0.1-0.1-0.2-0.2-0.4-0.2c0.5-11.4,3.6-20.5,5-23.4c0.6-1.2,1.2-1.8,1.9-1.8
		c0,0,0-0.1,0-0.1c-6.3-0.6-7.6,30.7-7.6,30.7c4.4,5.9,8.8,21.4,8.8,21.4l0.9-3c-0.4,0.6-0.7,1.2-1,1.8c0-0.1-0.1-0.2-0.1-0.3
		c-1.6-5.9-4.6-15.6-8.1-19.6c0-0.8-0.1-1.5-0.1-2.3c0-0.8,0-1.6,0-2.4c1.3,2.2,6.7,12,9,20.1c0.2,0.6,0.3,1.2,0.5,1.8l0.2-0.7
		c-2-4.5-3.4-8.7-4.4-12.7C27,68.7,24.7,64.7,24.5,64.3z"/>
	<path fill="#74C044" enable-background="new    " d="M90.8,91.5c0,0.2-0.2,0.3-0.3,0.3c-4.2,0.9-8.1-0.6-11.8-2
		c-3.6-1.4-7-2.6-10.6-1.9c-0.4,3.7-3.1,11.9-7.2,14.8c-0.6,0.4-1.2,0.7-1.8,0.9c0.8,0.3,1.7,0.7,2.6,1c2.9,1.1,5.9,2.2,7.5,3.6
		c1.3,1.1,2,2.3,2.4,3.4c0.6-0.4,1.1-0.7,1.8-1c3-1.3,6.6-1.8,10.3-1.3c0-8,4.9-15.1,10.4-21.1c-0.7-0.2-1.2-0.3-1.2-0.3
		c-0.5,0-1.1-0.1-1.8-0.3C91.1,88.9,91.1,90.3,90.8,91.5z M71.7,92.2c0,4-4.6,11.3-8.8,11c2.4-3.6,6.4-9.3,5.9-13.9
		c4.9,0.4,9.3,4.4,14.6,4l5.3,1.2C82.3,94.5,77.3,93.1,71.7,92.2z"/>
	<path fill="#74C044" enable-background="new    " d="M68.5,108.8c-1.5-1.3-4.5-2.4-7.2-3.4c-1.6-0.6-3.1-1.2-4.3-1.7
		c0,0-0.1,0-0.1,0c-0.1,0-0.1-0.1-0.2-0.1c0,0,0,0-0.1,0c-0.7-0.4-1.1-1-1.5-1.6c-0.4-0.6-0.7-1.1-1.3-1.3c-0.5-0.2-1.2,0.2-1.9,0.6
		c-0.8,0.5-1.7,1-2.6,0.7c-3.2-1.1-5.4-3.2-6.1-6.1c-0.9-3.4,0.3-7.2,3.1-10.6c0.4-0.5,0.9-1,1.4-1.4c-0.4,0-0.8,0-1.2-0.1
		c-0.6-0.1-1.3-0.2-1.9-0.3c-3.3,1.9-5.9,4.4-7.7,7.5c-2.8,5.1-3,11.1-0.5,17.3c2.1-0.2,4.4,0,7.2,1.6c4.3,2.4,5.3,5,6.3,7.7
		c0.7,1.7,1.3,3.4,2.9,5.2c1,1.2,4.9,2.6,7.5,3.5l1.6,0.6c0.2,0.1,0.3,0.3,0.2,0.5c-0.1,0.2-0.3,0.3-0.5,0.2l-1.5-0.6
		c-2.8-1-6.7-2.4-7.9-3.8c-1.6-1.9-2.3-3.7-3-5.4c-1-2.6-2-5-6-7.3c-4-2.3-7.1-1.6-10.1-0.8c-3.5,0.8-7.1,1.6-11.7-2.5
		c-0.5,0.9-0.8,1.8-0.8,2.5c0,0.4,0.1,0.7,0.2,1c0.8,1.8,3.7,2.5,6.3,3.2c1.5,0.4,2.8,0.7,3.8,1.2c2.2,1.2,4.5,3.8,6.7,6.4l2.7,3
		c8.4,8.7,16.4,13.4,28.2,8l2-1.1c0.9-0.5,1.8-1,2.9-1.4c-1.5-0.9-2.7-2-3.8-3.2c0,0-0.1,0.1-0.1,0.1c-3,1.4-5.9,1.9-10.1,1.8
		c-0.2,0-0.4-0.2-0.4-0.4c0-0.2,0.2-0.4,0.4-0.4c0.3,0,0.5,0,0.8,0l0.6-0.3c0.7,0.1,1.4,0.2,2.1,0.2c2.3-0.2,4.2-0.7,6.2-1.6
		c-2-2.5-2.9-5.5-2.3-8.4c0.3-1.5,1-2.9,2-4.1c-2.2-4.1-6.4-6-11.2-6.7c-3.8-0.6-14.6-1.8-14-6.8c1.6,3.2,4.5,2.7,7.5,3.5
		c2.7,0.7,4.7,2.1,7.2,2.8c5.1,1.5,9.7,1.7,11.1,6.6c0.4-0.4,0.9-0.8,1.4-1.2C70.3,111,69.7,109.9,68.5,108.8z M26.6,113.2
		c7-1.7,9.1-4.9,15.6-0.6c4.9,3.2,6.6,7.4,8.2,12.9l-0.6,0.6c-0.4-4.4-4.7-10.3-8.1-13.1C34.7,107.4,33.2,114.7,26.6,113.2z"/>
	<path fill="#74C044" enable-background="new    " d="M81.6,78c0.3-0.6,0.8-1.1,1.3-1.4C82.3,76.9,81.9,77.4,81.6,78z"/>
	<path fill="#74C044" enable-background="new    " d="M90.9,87.2c0.3,0.1,0.7,0.2,1,0.2C91.5,87.3,91.2,87.2,90.9,87.2
		C90.9,87.2,90.9,87.2,90.9,87.2z"/>
	<path fill="#74C044" enable-background="new    " d="M69.7,75.1L69.7,75.1c-0.3,0.2-0.6,0.4-0.7,0.4c0.2,0.6-0.2,0.9-0.2,0.9
		c-0.1,0.2-0.2,0.4-0.3,0.6c1.2-0.3,2.3-0.6,3.3-0.8c-4,0.9-8.9,6.6-14.2,7.8c-4.8,1.1-5.3,0.1-8.3,4c-1.5,1.9-2.6,4.2-3.1,6.5
		c0,0.9,0.1,1.9,0.3,2.9l-0.6,1.2c-0.1-1.4,0-2.7,0.3-4c-0.2-5.4,2.7-10,7.5-11.7c-1.5,0.4-3.1,0.8-4.5,0.9
		c-0.8,0.6-1.5,1.3-2.1,2.1c-2.7,3.1-3.8,6.7-3,9.8c0.7,2.6,2.7,4.6,5.6,5.6c0.6,0.2,1.2-0.2,1.9-0.6c0.8-0.5,1.7-1,2.6-0.7
		c0.9,0.3,1.4,1,1.8,1.7c0.3,0.5,0.7,1,1.2,1.3c0.1,0,0.1,0.1,0.2,0.1c1,0.2,2-0.1,3.1-0.8c3.8-2.7,6.6-10.9,6.9-14.5
		c0-0.2,0.1-0.3,0.3-0.4c3.9-0.9,7.7,0.5,11.4,1.9c3.6,1.3,7.2,2.7,11.1,2c0.1-0.7,0.2-1.4,0.2-2.1c0-0.5,0-1-0.1-1.5
		c-3.1-0.7-7.4-2.1-8.6-3.1c0,0-3.1-2.9-2.3-6.5c0,0,0-0.2,0.1,0c0,0,0,0.3,0.1,0.7c0.1-0.4,0.2-0.7,0.4-1.1
		c-0.3-0.9-0.4-1.9,0.1-2.6C76.7,74.1,73.1,74.3,69.7,75.1z"/>
	<path fill="#74C044" enable-background="new    " d="M81.4,79.8c0.1-0.4,0.2-0.9,0.4-1.5C81.6,78.7,81.4,79.1,81.4,79.8
		C81.3,79.7,81.3,79.8,81.4,79.8C81.4,79.8,81.4,79.8,81.4,79.8z"/>
	<path fill="#74C044" enable-background="new    " d="M80.1,74.8c0,0-0.1,0-0.1,0c0,0,0,0,0,0c-0.6,1.5-0.3,2.7,1.1,4.5
		c0-0.1,0.1-0.1,0.1-0.2C79.5,77.1,79.8,75.6,80.1,74.8z"/>
	<path fill="#74C044" enable-background="new    " d="M68.2,76.7c0.6-0.7,0.6-1.1,0.6-1.1c0,0-0.1,0-0.1,0c0,0,0,0.1,0,0.1
		C68.6,75.8,68.5,76.2,68.2,76.7z"/>
	<path fill="#74C044" enable-background="new    " d="M58.6,82c0.1-0.1,0.2-0.2,0.3-0.3c-1.2,0.2-2.3,0.3-2.6,0.3
		c-0.1,0-0.3,0.1-0.5,0.1C56.8,82.1,57.7,82,58.6,82z"/>
	<path fill="#74C044" enable-background="new    " d="M82.1,83.9c-0.1,0-0.1-0.1-0.2-0.1C82,83.8,82,83.9,82.1,83.9z"/>
	<path fill="#7C5F47" d="M67.7,74.9C67.7,74.9,67.7,74.8,67.7,74.9c-0.1-0.1-0.1-0.1-0.1-0.1C67.7,74.9,67.7,74.9,67.7,74.9z"/>
	<path fill="#7C5F47" d="M60.8,127.8l-0.6,0.3c-0.3,0-0.5,0-0.8,0c-0.2,0-0.4,0.2-0.4,0.4c0,0.2,0.2,0.4,0.4,0.4
		c4.2,0.1,7.1-0.4,10.1-1.8c0,0,0.1-0.1,0.1-0.1c-0.2-0.2-0.4-0.4-0.5-0.7c-1.9,0.9-3.9,1.4-6.2,1.6
		C62.2,127.9,61.5,127.8,60.8,127.8z"/>
	<path fill="#7C5F47" d="M80.4,74.4c-0.5-0.3-1-0.5-1.5-0.7c-0.1,0-0.2,0-0.3,0c-0.4-0.1-0.9-0.1-1.3-0.1c-0.1,0-0.2,0-0.3,0
		c-0.4,0-0.8,0-1.2,0c-0.1,0-0.2,0-0.3,0c-0.4,0-0.8,0-1.2,0c-0.1,0-0.2,0-0.3,0c-0.4,0-0.8,0.1-1.2,0.1c-0.1,0-0.2,0-0.3,0
		c-0.4,0.1-0.8,0.1-1.3,0.2c-0.1,0-0.2,0.1-0.4,0.1c-0.2,0-0.4,0.1-0.6,0.1c0,0.4,0,0.6,0,0.6c-0.1,0.1-0.2,0.2-0.3,0.3l0,0l0,0
		c3.4-0.8,6.9-1,10.1-0.3c0,0,0,0,0,0c0.1-0.1,0.1,0,0.1,0.1c0,0,0.1,0,0.1,0C80.2,74.6,80.3,74.5,80.4,74.4z"/>
	<path fill="#7C5F47" d="M68.5,75.4c0-0.1,0-0.1-0.1-0.2C68.5,75.3,68.5,75.3,68.5,75.4C68.5,75.4,68.5,75.4,68.5,75.4z"/>
	<path fill="#7C5F47" d="M79.6,73.6c0.2,0.1,0.3,0.1,0.5,0.2c-0.1-0.1-0.2-0.2-0.3-0.3c0,0,0,0,0,0C79.7,73.6,79.7,73.6,79.6,73.6z"
		/>
	<path fill="#7C5F47" d="M90,91.1c-3.9,0.7-7.5-0.7-11.1-2c-3.7-1.4-7.4-2.8-11.4-1.9c-0.2,0-0.3,0.2-0.3,0.4
		c-0.3,3.6-3.1,11.8-6.9,14.5c-1,0.7-2.1,1-3.1,0.8c-0.1,0-0.1-0.1-0.2-0.1c-0.5-0.3-0.8-0.8-1.2-1.3c-0.4-0.7-0.9-1.4-1.8-1.7
		c-0.9-0.3-1.8,0.2-2.6,0.7c-0.7,0.4-1.4,0.8-1.9,0.6c-2.9-1-4.9-2.9-5.6-5.6c-0.8-3.1,0.3-6.7,3-9.8c0.7-0.8,1.4-1.4,2.1-2.1
		c-0.5,0.1-1,0.1-1.4,0.1c-0.5,0.4-0.9,0.9-1.4,1.4c-2.9,3.4-4,7.2-3.1,10.6c0.8,2.9,2.9,5.1,6.1,6.1c0.9,0.3,1.8-0.2,2.6-0.7
		c0.7-0.4,1.4-0.8,1.9-0.6c0.6,0.2,1,0.7,1.3,1.3c0.4,0.6,0.8,1.2,1.5,1.6c0,0,0,0,0.1,0c0.1,0,0.1,0.1,0.2,0.1c0,0,0.1,0,0.1,0
		c1.2,0.6,2.7,1.1,4.3,1.7c2.7,1,5.8,2.1,7.2,3.4c1.2,1.1,1.8,2.2,2.3,3.2c0.2-0.2,0.5-0.3,0.7-0.5c-0.5-1.1-1.1-2.2-2.4-3.4
		c-1.6-1.4-4.6-2.5-7.5-3.6c-0.9-0.3-1.8-0.7-2.6-1c0.6-0.2,1.2-0.5,1.8-0.9c4-2.9,6.8-11,7.2-14.8c3.6-0.7,7,0.5,10.6,1.9
		c3.8,1.4,7.6,2.9,11.8,2c0.2,0,0.3-0.2,0.3-0.3c0.3-1.3,0.4-2.6,0.2-3.9c-0.3-0.1-0.6-0.1-0.9-0.2c0.1,0.5,0.1,1,0.1,1.5
		C90.2,89.7,90.1,90.4,90,91.1z"/>
	<path fill="#7C5F47" d="M90.7,87.1c0.1,0,0.1,0,0.2,0c0,0,0,0,0,0C90.8,87.1,90.8,87.1,90.7,87.1z"/>
	<path fill="#7C5F47" d="M73.4,130.2c-1.2,0.4-2,0.9-2.9,1.4l-2,1.1c-11.7,5.4-19.8,0.7-28.2-8l-2.7-3c-2.2-2.6-4.5-5.3-6.7-6.4
		c-1-0.5-2.4-0.9-3.8-1.2c-2.6-0.6-5.5-1.4-6.3-3.2c-0.1-0.3-0.2-0.7-0.2-1c0-0.7,0.3-1.5,0.8-2.5c4.6,4.1,8.2,3.3,11.7,2.5
		c3-0.7,6.1-1.4,10.1,0.8c4,2.3,5,4.7,6,7.3c0.7,1.7,1.4,3.5,3,5.4c1.2,1.4,5.1,2.7,7.9,3.8l1.5,0.6c0.2,0.1,0.5,0,0.5-0.2
		c0.1-0.2,0-0.5-0.2-0.5l-1.6-0.6c-2.6-0.9-6.5-2.3-7.5-3.5c-1.5-1.8-2.2-3.5-2.9-5.2c-1.1-2.7-2.1-5.3-6.3-7.7
		c-2.7-1.6-5-1.8-7.2-1.6c-2.5-6.2-2.3-12.3,0.5-17.3c1.7-3.1,4.4-5.6,7.7-7.5c-0.4-0.1-0.8-0.2-1.2-0.2c-1,0.6-1.9,1.3-2.8,2
		c0.2-0.8,0.4-1.6,0.6-2.5c-0.3-0.1-0.6-0.1-0.8-0.2c-0.3,1.3-0.7,2.6-1.1,3.9c-0.9,0.9-1.7,1.8-2.4,2.9c-0.3,0.4-0.6,0.9-0.8,1.3
		c-0.1,0.2-0.2,0.5-0.4,0.7c-0.4,0.8-0.8,1.7-1,2.6c0,0,0,0.1,0,0.1h0c-0.6,2-0.9,3.7-0.9,5.7c0,0.2,0,0.4,0,0.6
		c0,0.2,0,0.5,0.1,0.7c0.1,1.2,0.2,2.5,0.5,3.8c-0.1,0-0.2,0.1-0.3,0.1c-0.7,0.1-1,0.5-1,0.8c0,0.1,0,0.2,0,0.3c0,0.9,0.9,2,1.4,2.6
		c-0.4,0.1-0.8,0.2-1.2,0.3c-0.1,0-0.3,0.1-0.4,0.1c-0.3,0.1-0.5,0.1-0.8,0.2c-0.6,0.1-1.2,0.3-1.9,0.4c0.2-1.2,0.2-1.8-0.6-3.6
		c-1-1.9-0.9-2.2-0.6-3.4l0.2-1c0.5-2.5,0.6-5.1,0.2-7.3l1-0.1c1.4-2,4.3-6.6,7-12.7c-0.2-0.2-0.4-0.4-0.6-0.6
		c-0.1,0.1-0.1,0.3-0.2,0.4c-0.8,1.8-1.6,3.5-2.4,5c-0.2-0.7-0.4-1.5-0.6-2.2c-1.1-3.5-2.6-7.1-4.2-10.4c1,4,2.4,8.2,4.4,12.7
		l-0.2,0.7c0,0.1,0,0.2,0.1,0.3c-0.1,0.2-0.2,0.4-0.4,0.6l-0.9,3c0,0-4.4-15.6-8.8-21.4c0,0,1.3-31.3,7.6-30.7c0,0,0,0,0,0.1
		c0,0,0,0,0,0c1.2,0,2.4,1.9,2.8,2.7c4.2,13.2,5.8,23.2,6.1,30.8c-0.4,1.4-0.8,2.7-1.3,4c0.3-0.2,0.7-0.4,1.1-0.6
		c1-3,1.9-6.2,2.5-9.6c-0.1,2.5-0.2,5.6-0.6,8.7c0.2-0.1,0.4-0.1,0.5-0.2c0.1,0,0.3-0.1,0.4-0.1c0.1-0.7,0.1-1.3,0.2-2
		c0.1-0.7,0.1-1.4,0.1-2c0-0.7,0.1-1.3,0.1-1.9c0-0.6,0.1-1.2,0.1-1.8c0-0.6,0-1.2,0-1.8c0-0.6,0-1.2,0-1.7c0-0.6,0-1.2,0-1.7
		c0-0.7,0-1.3,0-1.6c0-0.3,0-0.5,0-0.6c0-0.2-0.2-0.4-0.4-0.4c-0.2,0-0.4,0.2-0.4,0.4c0,0.2,0,0.4-0.1,0.6c0,0.6-0.1,1.2-0.2,1.7
		c-0.1,0.6-0.1,1.2-0.2,1.8c-0.1,0.6-0.2,1.2-0.3,1.8c-0.1,0.6-0.2,1.3-0.3,1.9c-0.1,0.7-0.3,1.4-0.5,2.1c0,0.1,0,0.2-0.1,0.3
		c0-0.1,0-0.2,0-0.2c-0.1-0.6-0.1-1.3-0.2-1.9c-0.1-0.6-0.1-1.2-0.2-1.8c-0.1-0.6-0.2-1.3-0.3-1.9c-0.1-0.6-0.2-1.2-0.3-1.8
		c-0.1-0.6-0.2-1.3-0.3-1.9c-0.1-0.6-0.2-1.2-0.4-1.9c-0.1-0.7-0.3-1.3-0.4-2c-0.1-0.6-0.3-1.3-0.4-2c-0.2-0.7-0.3-1.5-0.5-2.2
		c-0.2-0.7-0.4-1.4-0.5-2.1c-0.2-0.8-0.5-1.7-0.7-2.6c-0.2-0.8-0.4-1.6-0.7-2.4c-0.3-1-0.6-2.1-1-3.2c0-0.1-0.1-0.2-0.1-0.3
		c-0.1-0.1-0.8-1.6-1.9-2.5c-0.5-0.4-1-0.7-1.6-0.7c-1,0-1.9,0.8-2.7,2.3c-1.7,3.3-5.5,14.9-5.2,28.7c-0.3-0.2-0.6-0.4-0.9-0.6
		c-0.9-0.4-1.7-0.5-2.6-0.1c0,0-0.1,0-0.1,0.1c0,0,0,0,0,0L15,72.2c0,0-0.1,0-0.1,0.1c-5.5,7.7-0.5,18-0.5,18.1
		c0.1,0.2,0.3,0.3,0.5,0.2c0.2-0.1,0.3-0.2,0.3-0.4c-0.4-4.1,1-9.8,2.4-14.2c2.8,5.2,7.9,14.7,10.9,19.2c0.2,1.9,0.2,4.1-0.3,6.3
		l-0.2,1c-0.3,1.4-0.4,1.8,0.7,3.9c0.8,1.5,0.7,2,0.6,3.1l0,0.2c-2.4,0.2-4.9-0.4-7.9-3.3c-0.1-0.1-0.2-0.1-0.3-0.1
		c-0.1,0-0.2,0.1-0.3,0.2c-1.1,1.9-1.4,3.4-0.8,4.7c0.9,2.2,4.1,3,6.8,3.6c1.4,0.4,2.7,0.7,3.6,1.1c2.1,1.1,4.4,3.8,6.5,6.3l2.7,3
		c7.5,7.8,16.2,14.1,29.1,8.2l2.1-1.1c1.1-0.6,2.1-1.2,3.5-1.5C74,130.6,73.7,130.4,73.4,130.2z M35.3,108.4
		c-0.7-0.7-1.6-1.9-1.5-2.4c0-0.1,0.2-0.2,0.4-0.2c0.1,0,0.2-0.1,0.3-0.1c0.3,0.9,0.6,1.9,0.9,2.9C35.5,108.5,35.4,108.5,35.3,108.4
		C35.4,108.4,35.3,108.4,35.3,108.4z M14.4,87.8c-0.6-1.7-1.2-4.2-1.2-7c0-2.7,0.6-5.5,2.4-8.1c0.1-0.1,2-1.6,3.3-2.7
		C17.5,73.4,14.6,81.5,14.4,87.8z M17.8,75.5l2.1-6.7c0,0,1.7-0.8,2.9,0.6c1.3,1.5,1.7,2.1,1.7,2.1s-0.1,0-0.2,0.1
		c3.2,4.6,6,14,7.3,19.2c-1,1.6-1.8,2.8-2.3,3.5c-0.1-0.2-0.2-0.3-0.5-0.3c0,0,0,0,0,0c-0.7-1.1-1.5-2.4-2.3-3.7
		c0.4,1.1,0.7,1.8,0.7,1.8L17.8,75.5z"/>
	<path fill="#74C044" enable-background="new    " d="M41.9,113.1c3.4,2.7,7.7,8.7,8.1,13.1l0.6-0.6c-1.6-5.6-3.3-9.7-8.2-12.9
		c-6.6-4.3-8.6-1.1-15.6,0.6C33.2,114.7,34.7,107.4,41.9,113.1z"/>
	<path opacity="0.43" fill="#FFFFFE" d="M41.9,113.1c3.4,2.7,7.7,8.7,8.1,13.1l0.6-0.6c-1.6-5.6-3.3-9.7-8.2-12.9
		c-6.6-4.3-8.6-1.1-15.6,0.6C33.2,114.7,34.7,107.4,41.9,113.1z"/>
	<path fill="#74C044" enable-background="new    " d="M83.4,93.3c-5.3,0.4-9.6-3.6-14.6-4c0.5,4.6-3.5,10.4-5.9,13.9
		c4.2,0.3,8.8-7,8.8-11c5.6,0.9,10.6,2.3,16.9,2.3L83.4,93.3z"/>
	<path opacity="0.39" fill="#FFFFFE" d="M83.4,93.3c-5.3,0.4-9.6-3.6-14.6-4c0.5,4.6-3.5,10.4-5.9,13.9c4.2,0.3,8.8-7,8.8-11
		c5.6,0.9,10.6,2.3,16.9,2.3L83.4,93.3z"/>
	<path fill="#74C044" enable-background="new    " d="M66.9,78.6c-0.2,0.1-0.3,0.2-0.5,0.3c-0.8,0.7-1.7,1.4-3,1.8
		c-0.6,0.3-1.2,0.5-1.8,0.6c-0.6,0.1-1.7,0.3-2.7,0.4c-0.1,0.1-0.2,0.2-0.3,0.3c-1,0-1.9,0-2.7,0.2c-0.7,0.2-1.5,0.4-2.3,0.6
		c-4.9,1.7-7.7,6.3-7.5,11.7c0.5-2.4,1.6-4.6,3.1-6.5c3-3.9,3.5-2.9,8.3-4c5.2-1.2,10.2-6.8,14.2-7.8c-1,0.2-2.1,0.5-3.3,0.8
		C68.1,77.7,67.5,78.2,66.9,78.6z"/>
	<path opacity="0.39" fill="#FFFFFE" d="M66.9,78.6c-0.2,0.1-0.3,0.2-0.5,0.3c-0.8,0.7-1.7,1.4-3,1.8c-0.6,0.3-1.2,0.5-1.8,0.6
		c-0.6,0.1-1.7,0.3-2.7,0.4c-0.1,0.1-0.2,0.2-0.3,0.3c-1,0-1.9,0-2.7,0.2c-0.7,0.2-1.5,0.4-2.3,0.6c-4.9,1.7-7.7,6.3-7.5,11.7
		c0.5-2.4,1.6-4.6,3.1-6.5c3-3.9,3.5-2.9,8.3-4c5.2-1.2,10.2-6.8,14.2-7.8c-1,0.2-2.1,0.5-3.3,0.8C68.1,77.7,67.5,78.2,66.9,78.6z"
		/>
	<path fill="#74C044" enable-background="new    " d="M45.8,98.6l0.6-1.2c-0.2-1-0.3-1.9-0.3-2.9C45.8,95.8,45.7,97.2,45.8,98.6z"/>
	<path opacity="0.39" fill="#FFFFFE" d="M45.8,98.6l0.6-1.2c-0.2-1-0.3-1.9-0.3-2.9C45.8,95.8,45.7,97.2,45.8,98.6z"/>
	<path fill="#74C044" enable-background="new    " d="M58.3,106.7c-2.5-0.7-4.5-2.1-7.2-2.8c-3.1-0.8-5.9-0.3-7.5-3.5
		c-0.6,5,10.1,6.3,14,6.8c4.8,0.7,9.1,2.6,11.2,6.7c0.2-0.2,0.4-0.4,0.6-0.6C67.9,108.4,63.4,108.2,58.3,106.7z"/>
	<path opacity="0.54" fill="#FFFFFE" d="M58.3,106.7c-2.5-0.7-4.5-2.1-7.2-2.8c-3.1-0.8-5.9-0.3-7.5-3.5c-0.6,5,10.1,6.3,14,6.8
		c4.8,0.7,9.1,2.6,11.2,6.7c0.2-0.2,0.4-0.4,0.6-0.6C67.9,108.4,63.4,108.2,58.3,106.7z"/>
	<path fill="#956843" d="M94.3,126.4c-0.2,0.2-0.4,0.4-0.7,0.5c-0.6,0.2-1.5-0.1-2.1-0.2c-2.1-0.1-4.5,0.3-6.5-0.3
		c-1-0.3-1.3-1-2.4-0.8c-0.5,0.1-0.8,0.8-1.1,0.9c-1.5,0.3-2.7-1-3.6-1.9c-0.1-0.1-0.8-0.5-1-0.6c-0.9-0.6-0.7-0.8-2-0.9
		c-1.2-0.1-3.5,0.4-4.2-0.8c-0.5-0.9-0.3-1.7,0.2-2.4c-0.3,0.2-0.5,0.4-0.8,0.6c0.7-0.9,0.4-1.8,1.3-2.6c1-0.9,2.8-2,4.2-2.3
		c1.5-0.3,2.1-0.7,3.3-1.3c1.5-0.8,3.3-0.9,5.1-0.7c-0.2-1-0.4-2-0.4-3c-3.5-0.5-7,0-9.9,1.2c-3.2,1.4-5.3,3.8-5.9,6.5
		c-1.2,5.8,4.6,12,12.9,13.7c4.8,1,9.4,0.3,12.6-1.6C93.3,129,93.6,127.7,94.3,126.4z"/>
	<path fill="#956843" d="M73.4,118.2C73.4,118.2,73.5,118.2,73.4,118.2C73.5,118.2,73.4,118.2,73.4,118.2z"/>
	<path fill="#D5C9C0" d="M83,115.4c-2.3-0.6-2.2,0.5-3.9,1.3c-1.2,0.6-2.6,0-3.8,0.5c-0.6,0.2-1.2,0.6-1.8,1c0,0,0,0,0,0
		c-0.9,0.5-1.8,1.1-2.5,1.7c-0.5,0.6-0.7,1.5-0.2,2.4c0.7,1.2,3,0.7,4.2,0.8c1.2,0.1,1.1,0.3,2,0.9c0.2,0.1,0.8,0.5,1,0.6
		c0.9,0.8,2.1,2.2,3.6,1.9c0.4-0.1,0.7-0.8,1.1-0.9c1.1-0.2,1.4,0.5,2.4,0.8c2,0.6,4.4,0.1,6.5,0.3c0.6,0,1.5,0.3,2.1,0.2
		c0.3-0.1,0.5-0.3,0.7-0.5c0.4-0.6,0.8-1.2,1.3-1.7c0.2-0.2,0.3-0.3,0.5-0.4c-3.6-0.1-6.9-1.8-9.2-4.5c0,0,0,0,0,0
		c-0.9,0.4-2,1.2-2.8,1.7c0.4-0.5,0.2-1,0.7-1.4c0.4-0.4,1-0.7,1.6-1c-0.8-1-1.4-2.1-1.8-3.3C84.2,115.7,83.7,115.6,83,115.4z"/>
	<path fill="#7B6248" d="M79,114.2c-1.3,0.6-1.9,1-3.3,1.3c-1.4,0.3-3.2,1.4-4.2,2.3c-0.9,0.8-0.6,1.7-1.3,2.6
		c0.2-0.2,0.5-0.4,0.8-0.6c0.8-0.6,1.7-1.2,2.5-1.7c0,0,0,0,0,0c0.6-0.4,1.3-0.7,1.8-1c1.2-0.5,2.6,0.1,3.8-0.5
		c1.7-0.9,1.6-1.9,3.9-1.3c0.6,0.2,1.1,0.3,1.6,0.3c-0.1-0.4-0.3-0.7-0.4-1.1c-0.1-0.4-0.2-0.7-0.2-1.1
		C82.2,113.4,80.5,113.5,79,114.2z"/>
	<path fill="#7B6248" d="M84.2,121.5c0.7-0.6,1.9-1.4,2.8-1.7c0,0,0,0,0,0c-0.2-0.2-0.4-0.4-0.5-0.7c-0.6,0.3-1.2,0.6-1.6,1
		C84.4,120.5,84.6,121,84.2,121.5z"/>
	<path fill="#956843" d="M97.6,129.3C97.6,129.3,97.6,129.3,97.6,129.3C97.6,129.3,97.6,129.3,97.6,129.3z"/>
	<path fill="#956843" d="M114,127.9c0.1,0,0.2,0.1,0.3,0.1c0-0.3,0-0.5-0.1-0.8c0,0-0.1,0-0.1,0C114.2,127.5,114.1,127.7,114,127.9z
		"/>
	<path fill="#956843" d="M103.5,122.1c-0.9,0.5-1.7,1-2.7,1.4c-1.1,0.4-2.3,0.6-3.4,0.7c-0.4,0.3-0.8,0.6-1.2,1
		c-1.6,1.7-2.3,3.6-2,5.5c0.7,3.9,5.7,6.3,11.3,5.3c4.5-0.8,8-3.6,8.7-6.8c-0.5-0.1-1-0.3-1.5-0.4c-0.2,0.3-0.3,0.7-0.6,0.9
		c-0.3,0.3-0.9,0.3-1.3,0.4c-1.3,0.4-2.7,1.3-4.1,1.4c-0.7,0.1-1.1-0.3-1.7,0.1c-0.3,0.2-0.3,0.7-0.5,0.8c-0.8,0.6-1.9,0-2.7-0.3
		c-0.1,0-0.6-0.1-0.7-0.1c-0.7-0.1-0.7-0.3-1.4-0.1c-0.8,0.2-2.1,1.1-2.8,0.5c-0.5-0.4-0.6-1-0.5-1.5c-0.1,0.2-0.2,0.4-0.3,0.5
		c0.2-0.7-0.2-1.2,0.1-1.9c0.4-0.8,1.3-1.9,2-2.4c0.8-0.6,1.1-0.9,1.7-1.6c1.1-1.2,2.7-1.7,4.4-2.1c-0.2-0.2-0.4-0.3-0.5-0.5
		c-0.1-0.1-0.1-0.3,0.1-0.4C103.8,122.4,103.6,122.3,103.5,122.1z"/>
	<path fill="#D5C9C0" d="M107.3,124.6c0.1,0.1,0.3,0.2,0.5,0.3c0,0,0,0,0.1,0C107.7,124.8,107.5,124.7,107.3,124.6z"/>
	<path fill="#D5C9C0" d="M114.1,127.2c-1.8-0.4-3.6-1-5.5-1.9c0,0,0,0,0,0c-0.1,0-0.1,0-0.2,0c1.6,1,3.5,1.9,5.6,2.5
		C114.1,127.7,114.2,127.5,114.1,127.2z"/>
	<path fill="#D5C9C0" d="M102.8,125.2c-1.6,0.2-1.3,0.8-2.1,1.8c-0.6,0.7-1.6,0.6-2.2,1.2c-0.3,0.3-0.6,0.6-0.9,1c0,0,0,0,0,0
		c-0.4,0.5-0.8,1.1-1.1,1.7c-0.1,0.5-0.1,1.1,0.5,1.5c0.7,0.6,2-0.3,2.8-0.5c0.8-0.2,0.8-0.1,1.4,0.1c0.1,0,0.6,0.1,0.7,0.1
		c0.8,0.3,1.8,0.8,2.7,0.3c0.2-0.1,0.2-0.6,0.5-0.8c0.6-0.4,1,0,1.7-0.1c1.4-0.1,2.7-1,4.1-1.4c0.4-0.1,1-0.2,1.3-0.4
		c0.3-0.2,0.3-0.6,0.6-0.9c-1.7-0.6-3.4-1.4-5.1-2.6c0,0.1-0.1,0.1-0.1,0.2c-0.3,0.4-0.8,0.3-1.2,0.7c-0.4,0.4-0.9,1.2-1.3,1.7
		c0.1-0.4-0.1-0.6,0.1-1c0.2-0.4,0.7-1,1.1-1.3c0.4-0.2,0.5-0.4,0.8-0.7c-0.5-0.3-0.9-0.7-1.4-1.1c-0.1,0-0.3,0.1-0.4,0.1
		C104.4,124.9,103.9,125.1,102.8,125.2z"/>
	<path fill="#7B6248" d="M100,125.5c-0.6,0.7-0.9,1.1-1.7,1.6c-0.8,0.5-1.6,1.6-2,2.4c-0.4,0.7,0.1,1.2-0.1,1.9
		c0.1-0.2,0.2-0.4,0.3-0.5c0.3-0.5,0.7-1.1,1.1-1.7c0,0,0,0,0,0c0.3-0.4,0.6-0.8,0.9-1c0.6-0.6,1.6-0.6,2.2-1.2
		c0.8-1,0.5-1.6,2.1-1.8c1-0.1,1.5-0.3,2.4-0.6c0.1,0,0.3-0.1,0.4-0.1c-0.4-0.3-0.8-0.7-1.1-1.1C102.7,123.8,101.1,124.3,100,125.5z
		"/>
	<path fill="#7B6248" d="M108.6,125.3c-0.3-0.1-0.5-0.3-0.8-0.4c0,0,0,0-0.1,0c0.2,0.1,0.4,0.3,0.6,0.4
		C108.5,125.3,108.5,125.3,108.6,125.3C108.6,125.3,108.6,125.3,108.6,125.3z"/>
	<path fill="#7B6248" d="M106.2,126.3c-0.4,0.3-0.9,0.9-1.1,1.3c-0.2,0.4,0,0.6-0.1,1c0.3-0.5,0.8-1.3,1.3-1.7
		c0.3-0.3,0.9-0.3,1.2-0.7c0-0.1,0.1-0.1,0.1-0.2c-0.2-0.2-0.4-0.3-0.6-0.5C106.7,125.9,106.6,126.1,106.2,126.3z"/>
	<path fill="#E64D61" d="M84.2,69.9C84.2,69.9,84.2,69.9,84.2,69.9C84.3,69.8,84.3,69.8,84.2,69.9C84.2,69.8,84.2,69.9,84.2,69.9
		C84.2,69.9,84.2,69.9,84.2,69.9z"/>
	<path fill="#E64D61" d="M88.3,69.4c1.1,0.3,2.2,0.8,3.2,1.3c-0.6-0.4-1.2-0.7-1.7-0.9C89.3,69.6,88.8,69.4,88.3,69.4z"/>
	<path fill="#E64D61" d="M79.4,78.5c0.2,1.3,0.6,4,2.1,4.8c0,0,0.1,0.2,0.4,0.4c0.1,0,0.1,0.1,0.2,0.1c0.9,0.7,3.2,1.9,8.6,3.2
		c0.1,0,0.1,0,0.2,0c0.3,0.1,0.7,0.1,1,0.2c0.3,0.1,0.6,0.1,0.9,0.2c0.3,0.1,0.9,0.1,1.6,0.2c0.1-0.1,0.2-0.2,0.2-0.3
		c2.4-3.1,3.5-6,4.1-9c-1.1-1.1-2.3-2.2-3.6-3.6c-1.5-1.5-4.1-4.5-6.8-4.9c-1.4-0.5-2.3-0.7-2.9-0.7c-0.1,0-0.3,0-0.4,0.1
		c-0.4,0.1-0.7,0.2-0.7,0.2c0,0,0,0-0.1,0.1c0.2,0.1,0.4,0.2,0.3,0.3c-0.3,0.2-0.4,0.6-0.4,0.9c0,0,0,0,0,0.1
		c0.1,0.5,0.3,1.1,0.5,1.7c0.3,0.6,0.7,1,0.7,1.1c0,0,0.1,0.3-0.4-0.2l-0.2,0.2c-0.6,0.1-1.2,1.3-1.4,2.3c0,0.2,0,0.3-0.1,0.5
		c0,0,0,0,0,0c0,0.3,0,0.7,0.1,0.9l-0.1,0.1c-0.1-0.2-0.3-0.5-0.2-0.6c0,0-0.8,0.5-1.4,1.6c-0.2,0.5-0.3,1.6-0.4,1.6c0,0,0,0,0,0
		c0,0,0,0-0.1-0.1c0,0-0.2,0.5-0.3,0.2c0-0.1-0.7-1.3-1.1-2.6C79.6,77.8,79.5,78.1,79.4,78.5z M88.5,73.8c0,0,3.7,0.4,4.6,3.3
		c0.1,0.1,0.2,0.3,0.3,0.4c0,0.1,0.1,0.4-0.2,0.1c-1-0.7-1.6-1.4-2.3-2.1c-1-0.7-1.8-1.1-1.8-1.1c0,0-0.1-0.2,0-0.1
		c0.3,0.1,0.6,0.3,1,0.4C89.7,74.5,89.2,74.1,88.5,73.8z M94.1,84.6c0,0,0.2,0.1,0,0.2c-3.3,0.7-7.3,0-9.4-2.9
		c-0.1-0.2,0.1-0.1,0.1-0.1C87,84.6,90.9,84.5,94.1,84.6z"/>
	<path fill="#00A251" d="M83.2,69.1C83.2,69.1,83.2,69.1,83.2,69.1L83.2,69.1L83.2,69.1z"/>
	<path fill="#00A251" d="M73.2,71.6L73.2,71.6c0,0.1,0.1,0.1,0.2,0.1C73.3,71.7,73.3,71.7,73.2,71.6z"/>
	<path fill="#00A251" d="M81.9,70.5l-0.8,0.9l-0.2,0.2l-0.4,0.5c0,0-0.2,0-0.6,0.1c-0.1,0-0.2,0-0.3,0c-0.1,0-0.2,0-0.3,0
		c0.6,0,1.2,0,1.8,0.2c0.3,0.1,0.6,0.4,0.6,0.4c0.1,0,0.5,0.5-1.2-0.1c-2.5-0.3-4.9-0.1-7.2-0.9l-0.1,0.9c0,0,0.3,0,0.7,0
		c0.1,0,0.1,0,0.2,0c0.3,0,0.7,0,1.2,0.1c0.1,0,0.2,0,0.2,0c0.2,0,0.5,0,0.7,0c0.6-0.1,1.1-0.1,1.5,0.1c0.2,0.1,0.4,0.1,0.5,0.2
		c0,0,0.1,0,0.1,0c0.1,0,0.2,0,0.4,0.1c0.5,0.1,0.9,0.2,1.1,0.3c0,0,0,0,0,0c0.1,0.1,0.2,0.2,0.3,0.3c0.6,0.3,1.2,0.7,1.6,1.3
		c0,0,0.1,0.2-0.1,0.1c-0.4-0.3-0.8-0.6-1.2-0.8c-0.1,0.1-0.2,0.3-0.3,0.4c-0.4,0.8-0.6,2.2,1,4.3c0.1-0.4,0.3-0.8,0.5-1.1
		c0.2-0.6,0.6-1.1,1.3-1.4c0,0,0,0,0,0c0,0-0.1-2.4,1.6-3.7c0,0-1.8-1.6-0.5-2.9c0,0,0.1-0.1,0.1-0.1c0,0,0,0,0,0
		c-0.7-0.3-1.3-0.2-1.9,0.2l-0.2,0.2L81.9,70.5z"/>
	<path fill="#00A251" d="M83.4,76.5c0-0.2,0-0.3,0.1-0.5C83.5,76.1,83.4,76.3,83.4,76.5C83.4,76.5,83.4,76.5,83.4,76.5z"/>
	<path d="M74.1,73c0.4,0,0.8,0.1,1.2,0.1c0.1,0,0.2,0.1,0.3,0.1c0.4,0,0.8,0.1,1.2,0.1c0.1,0,0.2,0,0.3,0c0.5,0.1,0.9,0.2,1.4,0.3
		c0.1,0,0.2,0.1,0.4,0.1c0.5,0.2,1.1,0.4,1.5,0.7c0.4,0.2,0.9,0.5,1.2,0.8c0.2,0.1,0.1-0.1,0.1-0.1c-0.4-0.6-1-1-1.6-1.3
		c-0.2-0.1-0.3-0.1-0.5-0.2c-0.3-0.1-0.6-0.2-0.9-0.3c-0.1,0-0.3-0.1-0.4-0.1c0,0-0.1,0-0.1,0C78,73.1,77.9,73,77.7,73
		c-0.4-0.1-0.9-0.1-1.5-0.1c-0.2,0-0.5,0-0.7,0.1c-0.1,0-0.2,0-0.2,0c-0.4,0.1-0.8,0.1-1.2,0.1c-0.1,0-0.6,0-0.7,0
		c-0.4,0-1.4,0-1.4-0.1v0c0-0.5,0.3-1,0.6-1.5c0,0,0.2-0.2,0-0.1c-0.3,0.4,0,1,0,1.5c-0.1,0.1,0,0.2,0.1,0.2c0.3,0.1,0.7,0,1.1,0
		C73.9,73.2,74,73,74.1,73C74.1,73,74.1,73,74.1,73z"/>
	<path d="M80.4,72.7c1.7,0.6,1.2,0.1,1.2,0.1c0,0-0.3-0.4-0.6-0.4c-0.6-0.1-1.2-0.2-1.8-0.2c-0.3,0-0.7,0-1,0c-0.1,0-0.2,0-0.2,0
		c-0.4,0-0.8,0-1.2,0c-0.1,0-0.1,0-0.2,0c-0.2,0-0.4,0-0.5,0c-0.2,0-0.4,0-0.7-0.1c-0.1,0-0.1,0-0.2,0c-0.4,0-0.8-0.1-1.2-0.1
		c-0.1,0-0.1,0-0.2,0c-0.1,0-0.3-0.1-0.4-0.1c-0.1,0-0.1,0-0.2-0.1c0,0-0.1,0-0.1,0c-0.1,0-0.1,0.1-0.1,0.2c0,0,0.1,0,0.1,0
		C75.5,72.7,78,72.5,80.4,72.7z"/>
	<path d="M84.7,81.9c2.1,2.9,6.1,3.6,9.4,2.9c0.2-0.1,0-0.2,0-0.2c-3.2-0.1-7.1,0-9.3-2.9C84.8,81.7,84.7,81.7,84.7,81.9z"/>
	<path d="M89.1,74.5c0,0,0.9,0.4,1.8,1.1c0.7,0.7,1.3,1.4,2.3,2.1c0.3,0.3,0.3-0.1,0.2-0.1c-0.1-0.1-0.2-0.3-0.3-0.4
		c-0.8-2.9-4.6-3.3-4.6-3.3c0.7,0.3,1.1,0.7,1.6,1c-0.3-0.2-0.6-0.3-1-0.4C89,74.3,89.1,74.5,89.1,74.5z"/>
	<path fill="#FF9350" d="M134.6,102c-0.1-0.1-0.1-0.3-0.2-0.4c0.6,2.1,1,4.2,1.2,6.1C135.4,105.1,135,102.9,134.6,102z"/>
	<path fill="#FF9350" d="M126.4,106.6c0.1,0.9,0.2,1.8,0.2,2.6c0.1-1.2,0.2-2.5,0.2-4.1c0-1-0.1-2.2-0.3-3.4
		C126.5,103.4,126.5,105.1,126.4,106.6z"/>
	<path fill="#FF9350" d="M116.8,50.8c0.4,0,0.9,0.1,1.2,0.2C117.7,50.8,117.2,50.8,116.8,50.8z"/>
	<path fill="#FF9350" d="M122.4,53.7c-0.5-0.1-0.9-0.1-1.2-0.1c-0.5,1.3-1.1,2.9-1.1,4.9c0,0.8-0.2,0.1-0.2,0c0-0.5-0.4-4.2-0.1-6.2
		c-0.1-0.2-0.2-0.3-0.4-0.4c-0.1-0.1-0.2-0.2-0.2-0.2c-2.2-0.3-4.3-0.1-6.2,0.6c-0.5,0.3-1,0.7-1.6,1.1c-0.9,0.7-1.9,1.5-2.8,2.4
		c-0.1,0.1-0.2,0.2-0.3,0.3c-2.2,3-3.7,6.1-5,9.5c-1.6,4.3-1.6,8.5-2.5,13c-0.7,3.6-1,6.5-4.3,9.8c0,0,0,0,0,0
		c-6.2,6.7-12,14.4-11.6,23.6c1.7,15.9,18.5,11.3,23,5.8c0.1-0.1,1-0.9,0.4,0.3c-1.4,1.6-2.9,3.1-4.7,4.2c0.2,0.1,0.4,0.3,0.5,0.4
		c0.1-0.1,0.3-0.2,0.6-0.1c0.7,0.7,1.6,1.5,2.7,2.2c0.2,0.1,0.3,0.2,0.5,0.3c0.3,0.1,0.5,0.3,0.8,0.4c1.9,0.9,3.7,1.5,5.5,1.9
		c0,0,0.1,0,0.1,0c0.3,0.1,0.5,0.1,0.8,0.1c4.1,0.6,8,0,11.6-1.5c2.5-1.8,5-4.6,7.3-8.8c1.5-5.7,0.6-11.1-0.9-16.8
		c-3.3-6.8-3.8-11.9-3.8-11.9c-0.9-5.7,0.4-10.3-0.1-16c-0.1-1.1-0.1-2.2-0.2-3.3c-0.1-2.1-0.3-4.2-0.4-6c-0.4-2.7-1.4-5.4-3.6-7.8
		c-0.7-0.7-1.8-0.9-2.8-1.1c-0.1,0-0.3-0.1,0.1-0.2c2,0.1,3.6,1,4.8,2.2c-0.9-1.2-2-1.8-3.2-2.2c0,0-0.1,0-0.1,0
		C123.3,53.8,122.8,53.7,122.4,53.7z M116.2,60.3c0-0.1,0-0.2,0-0.2c0-0.5,0.1-1,0.3-1.5c0,0,0.8,1.2,2.2,2.3
		c0.4,0.1,0.7,0.2,1.2,0.2c1.1,0.2,1.5,0,2.1-0.2c0.6-0.2,0.8,0.6,0.6,1.2c0,0.1-0.1,0.3-0.3,0.4c0.1,0,0.2,0.1,0.4,0.1
		C121.3,65.2,115.8,65,116.2,60.3z M126.2,66.7c-1.1,4.3-2.3,16.4,0.8,26c1.9,5.8,12.8,25-6.2,26.2c0.6-0.5,1.2-1.1,1.8-1.6
		c-0.7,0.6-1.6,1-2.4,1.4c-0.3,0.1-0.2-0.2-0.1-0.2c0.1-0.1,0.3-0.3,0.4-0.4c-0.5,0.2-1,0.3-1.6,0.4c3.3-4,8.3-4.3,4.3-33.6
		c0,0,0.2,0.6,0.5,1.5C122.8,80.1,123,73.3,126.2,66.7z"/>
	<path d="M135.6,108.2c0-0.1,0-0.2,0-0.4c-0.2-2-0.6-4-1.2-6.1c-1.6-5.9-4.2-12.1-4.3-16.5c0.2-8.9,1.1-17.9-1.3-26.8
		c-0.4-0.8-1-1.6-1.7-2.2c-1.2-1.2-2.8-2.2-4.8-2.2c-0.4,0.2-0.1,0.2-0.1,0.2c1,0.1,2.1,0.4,2.8,1.1c2.3,2.4,3.2,5.1,3.6,7.8
		c0.3,2,0.3,4,0.4,6c0,1.1,0.1,2.2,0.2,3.3c0.5,5.8-0.7,10.3,0.1,16c0,0,0.6,5.1,3.8,11.9c1.5,5.7,2.4,11.1,0.9,16.8
		c-2.3,4.2-4.8,7-7.3,8.8c-3.9,2.7-8,3.1-11.6,2.3c0-0.3,0-0.5,0-0.8c-0.3,0-0.5-0.1-0.8-0.1c0,0.3,0.1,0.5,0.1,0.8
		c-0.1,0-0.2-0.1-0.3-0.1c-2.1-0.6-4-1.5-5.6-2.5c-0.2-0.1-0.4-0.3-0.6-0.4c-0.2-0.1-0.3-0.2-0.5-0.3c-1.1-0.8-2-1.5-2.7-2.2
		c-0.3-0.1-0.5,0-0.6,0.1c-0.1,0.1-0.1,0.3-0.1,0.4c0.2,0.2,0.4,0.3,0.5,0.5c0.4,0.4,0.8,0.7,1.1,1.1c0.5,0.4,0.9,0.8,1.4,1.1
		c0.2,0.2,0.4,0.3,0.6,0.5c1.7,1.2,3.4,2.1,5.1,2.6c0.5,0.2,1,0.3,1.5,0.4c-0.7,3.1-4.2,6-8.7,6.8c-5.5,1-10.6-1.4-11.3-5.3
		c-0.3-1.9,0.4-3.8,2-5.5c0.4-0.4,0.8-0.7,1.2-1c1.1-0.1,2.3-0.3,3.4-0.7c1-0.4,1.9-0.8,2.7-1.4c1.8-1.1,3.4-2.6,4.7-4.2
		c0.6-1.2-0.3-0.4-0.4-0.3c-4.5,5.5-21.3,10.2-23-5.8c-0.4-9.2,5.5-17,11.6-23.6c0,0,0,0,0,0c3.3-3.3,3.6-6.2,4.3-9.8
		c0.9-4.5,1-8.7,2.5-13c1.2-3.4,2.8-6.5,5-9.5c0.1-0.1,0.1-0.2,0.2-0.3c0.2-0.3,0.4-0.6,0.6-0.9c0.4-0.5,0.9-1,1.5-1.4
		c0.7-0.5,1.5-0.9,2.3-1.2c1.9-0.7,4.1-0.8,6.2-0.6c0.2,0,0.5,0,0.7,0.1c0,0,0,0.1,0,0.1c0,0.2-0.1,0.3-0.1,0.5
		c-0.3,2.1,0.1,5.8,0.1,6.2c0,0.1,0.2,0.8,0.2,0c0-2,0.5-3.7,1.1-4.9c0.2-0.5,0.4-0.9,0.6-1.3c0.2-0.3,0.3-0.6,0.5-0.9
		c0.2-0.4,0.5-0.9,0.7-1.3c0,0,0-0.1,0-0.1c1.5-2.7,3.1-5.1,4.6-7.7c0.2-0.4-0.2-0.2-0.3-0.2c-1.4,2.4-3.2,4.6-4.6,6.9c0,0,0,0,0,0
		c-0.5,0.8-1,1.7-1.4,2.5c-0.2,0.4-0.4,0.9-0.6,1.3c0.1-0.4,0.2-0.9,0.3-1.3c0.3-1.2,0.7-2.3,1.2-3.4c0-0.1,0.1-0.2,0.1-0.3
		c1.3-3,3.1-5.9,5-8.6c1.2,1.6,2.3,0.9,2.3,0.7c-0.1-0.8-0.7-0.3-1.9-1.2c0,0,0.3-0.7-0.3-0.3c-0.2,0.1-0.1-0.1-0.1-0.2
		c0,0-0.5,0-0.1,0.4c-2.3,2.2-4,4.8-5.3,7.6c-0.3,0.7-0.6,1.5-0.9,2.3c-0.4,0.9-0.7,1.9-1,2.9c0,0-0.8-0.2-1.9-0.4
		c-0.4-0.1-0.8-0.1-1.2-0.2c-1.9-0.2-4.4,0-6.5,1.3c-0.8,0.5-1.6,1.1-2.2,1.8c-0.7,0.7-1.3,1.4-1.8,2.1c-0.4,0.6-0.9,1.2-1.3,1.9
		c-0.2,0.3-0.4,0.6-0.6,0.9c-0.2,0.3-0.4,0.6-0.6,0.9c-0.3,0.5-0.6,1-0.9,1.5c-0.3,0.5-0.6,1.1-0.9,1.6c-0.2,0.5-0.4,0.9-0.6,1.4
		c-0.2,0.5-0.4,1-0.6,1.6c-0.1,0.4-0.3,0.9-0.4,1.3c-0.1,0.5-0.3,1.1-0.4,1.6c-0.1,0.5-0.2,0.9-0.2,1.4c-0.1,0.4-0.1,0.8-0.2,1.3
		c0,0.1,0,0.3,0,0.4c0,0.5-0.1,1.1-0.1,1.6c-0.1,0.6-0.1,1.2-0.2,1.8c-0.1,0.6-0.1,1.2-0.2,1.7c0,0.1,0,0.2,0,0.3
		c-0.8-0.6-1.5-1.2-2.1-1.7c-0.1,0-0.2-0.1-0.3-0.3c-0.8-0.8-2.7-2.8-3.5-3.5c-0.2-0.2-0.4-0.3-0.6-0.5c-0.3-0.2-0.6-0.4-0.9-0.6
		c-1-0.6-2.1-1-3.2-1.3c-0.2-0.1-0.4-0.1-0.6-0.2c0,0,0,0,0,0c-0.8-0.2-1.7-0.3-2.5-0.2c-0.1,0-0.2,0-0.3,0c0,0-0.1,0-0.2,0
		c-0.2,0-0.5,0-0.7,0.4c-0.1,0-0.4-0.2-0.7-0.3c0,0-0.1,0-0.1,0c-0.1,0-0.2,0-0.3,0c-0.1,0-0.1,0-0.2,0c0,0,0,0-0.1,0.1
		c-0.2,0.1-0.5,0.3-0.9,0.7c0,0-0.1,0.1-0.1,0.2c-0.2,0.2-0.5,0.6-0.8,0.9c0,0.1-0.1,0.1-0.2,0.2c-0.1,0.2-0.2,0.3-0.3,0.5
		c0.1,0,0.1,0.1,0.2,0.1c0.1-0.1,0.2-0.2,0.3-0.3c0.1-0.1,0.1-0.1,0.2-0.2c0.3-0.3,0.6-0.6,0.9-0.8c0.1-0.1,0.1-0.1,0.2-0.2
		c0.1-0.1,0.2-0.1,0.3-0.2c0.7-0.4,1.2-0.5,1.9-0.2c0,0,0,0,0,0c0,0,0,0-0.1,0.1c0,0-0.1,0.1-0.1,0.1c-1.3,1.3,0.5,2.9,0.5,2.9
		c-1.7,1.3-1.5,3.6-1.6,3.7c0,0,0,0,0,0c-0.5,0.3-1,0.8-1.3,1.4c-0.2,0.4-0.4,0.7-0.5,1.1c0,0.1-0.1,0.1-0.1,0.2
		c-1.4-1.9-1.7-3.1-1.1-4.5c0,0,0,0,0,0c0,0,0-0.2-0.1-0.1c0,0,0,0,0,0c-0.5,0.7-0.4,1.7-0.1,2.6c0.4,1.3,1,2.5,1.1,2.6
		c0.2,0.4,0.3-0.2,0.3-0.2c0.1,0.1,0.1,0.1,0.1,0c0,0,0,0,0-0.1c0.1-0.6,0.2-1,0.4-1.4c0.6-1.1,1.4-1.5,1.4-1.5
		c0,0.1,0.1,0.4,0.2,0.6l0.1-0.1c-0.1-0.2-0.1-0.5-0.1-0.9c0-0.2,0-0.3,0.1-0.5c0.2-1,0.7-2.2,1.4-2.3l0.2-0.2
		c0.6,0.5,0.5,0.2,0.4,0.2c-0.1-0.1-0.4-0.5-0.7-1.1c-0.3-0.5-0.5-1.1-0.5-1.7c0,0,0,0,0-0.1c0-0.3,0.1-0.6,0.4-0.9
		c0-0.1-0.2-0.2-0.3-0.3c0,0-0.1,0-0.1-0.1c0,0,0.2-0.2,0.8-0.2c0.1,0,0.3,0,0.5,0c0.6,0,1.5,0.2,2.9,0.7c2.6,0.4,5.3,3.4,6.8,4.9
		c1.3,1.4,2.5,2.5,3.6,3.6c-0.6,3-1.7,5.9-4.1,9c-0.1,0.1-0.2,0.2-0.2,0.3c-0.7,0-1.3,0-1.6-0.2c-0.3-0.1-0.6-0.1-0.9-0.2
		c-0.3-0.1-0.7-0.2-1-0.2c-0.1,0-0.1,0-0.2,0c-5.5-1.3-7.7-2.5-8.6-3.2c-0.1,0-0.1-0.1-0.2-0.1c-0.3-0.3-0.4-0.4-0.4-0.4
		c-1.5-0.8-1.9-3.6-2.1-4.8c-0.1-0.4-0.1-0.6-0.1-0.7c-0.1-0.2-0.1,0-0.1,0c-0.8,3.6,2.3,6.5,2.3,6.5c1.2,1,5.5,2.4,8.6,3.1
		c0.3,0.1,0.6,0.1,0.9,0.2c0.7,0.1,1.4,0.2,1.8,0.3c0,0,0.5,0.1,1.2,0.3c-5.5,6-10.4,13.1-10.4,21.1c-3.7-0.5-7.3,0-10.3,1.3
		c-0.6,0.3-1.2,0.6-1.8,1c-0.2,0.2-0.5,0.3-0.7,0.5c-0.5,0.4-1,0.8-1.4,1.2c-0.2,0.2-0.4,0.4-0.6,0.6c-1,1.2-1.7,2.6-2,4.1
		c-0.6,2.9,0.3,5.8,2.3,8.4c0.2,0.2,0.4,0.4,0.5,0.7c1,1.2,2.3,2.2,3.8,3.2c0.3,0.2,0.7,0.4,1,0.6c1.8,1,3.9,1.8,6.1,2.2
		c4.9,1,9.6,0.3,13.1-1.6c1.2,3.9,6.4,6.2,12,5.2c4.8-0.9,8.5-3.9,9.3-7.4c8,1.5,14.5-3.4,16.3-5.4
		C135.3,119.6,136.2,113.7,135.6,108.2z M80.7,131.9c-8.3-1.7-14.1-7.9-12.9-13.7c0.6-2.8,2.7-5.1,5.9-6.5c2.9-1.3,6.3-1.7,9.9-1.2
		c0.1,1,0.2,2,0.4,3c0.1,0.4,0.1,0.7,0.2,1.1c0.1,0.4,0.2,0.8,0.4,1.1c0.5,1.2,1.1,2.3,1.8,3.3c0.2,0.2,0.4,0.5,0.5,0.7
		c2.3,2.7,5.6,4.4,9.2,4.5c-0.2,0.2-0.4,0.3-0.5,0.4c-0.5,0.5-1,1.1-1.3,1.7c-0.7,1.3-1.1,2.6-0.9,3.9
		C90.1,132.2,85.5,132.9,80.7,131.9z"/>
	<path d="M126.6,109.2c0-0.9,0-1.8-0.2-2.6c0.1-1.5,0.1-3.2,0-4.9c-0.7-4.2-2.2-9.5-2.9-15.3c-0.3-1-0.5-1.5-0.5-1.5
		c4,29.4-1,29.6-4.3,33.6c0.6-0.1,1.1-0.2,1.6-0.4c-0.1,0.1-0.3,0.3-0.4,0.4c0,0-0.1,0.3,0.1,0.2c0.9-0.4,1.7-0.8,2.4-1.4
		C124.6,115.3,126,113.2,126.6,109.2z"/>
	<path d="M122.7,62.5c-0.1,0-0.2-0.1-0.4-0.1c0.1-0.1,0.2-0.2,0.3-0.4c0.1-0.6,0-1.4-0.6-1.2c-0.6,0.2-1,0.4-2.1,0.2
		c-0.5-0.1-0.8-0.2-1.2-0.2c-1.4-1.1-2.2-2.3-2.2-2.3c-0.2,0.6-0.3,1.1-0.3,1.5c0,0,0,0.1,0,0.2C115.8,65,121.3,65.2,122.7,62.5z"/>
	<path fill="#FFC587" d="M123.6,86.4c0.7,5.8,2.2,11.1,2.9,15.3c0.2,1.2,0.3,2.4,0.3,3.4c0,1.6-0.1,2.9-0.2,4.1
		c-0.5,4-1.9,6.1-4,8.1c-0.6,0.5-1.2,1.1-1.8,1.6c19-1.2,8.1-20.4,6.2-26.2c-3.1-9.6-1.9-21.7-0.8-26
		C123,73.3,122.8,80.1,123.6,86.4z"/>
	<path fill="#E64D61" d="M59.4,65.1c0,0-0.2,0-0.7,0.1c0,0-0.1,0-0.1,0c-1.1,0.3-3.4,1.4-7.8,5c-0.3,0.2-0.5,0.5-0.8,0.7
		c-0.3,0.2-0.5,0.4-0.8,0.6c-0.8,0.5-1.7,2.8-4.5,3.4c-1.2,0.3-2.2,0.6-3.3,0.9c0,0,0,0,0,0c-0.8,0.3-1.5,0.6-2.1,0.9
		c-0.4,0.2-0.8,0.4-1.1,0.6c-0.2,0.1-0.5,0.3-0.6,0.4c-1.4,1.6-0.8,3.1,1.1,3.7c0,0,2,0,3,0.3c5.6,1.6,9.2,0.3,16.3-0.6
		c2.1-0.3,6.1-0.6,8-2.4c1.2-0.8,1.9-1.4,2.3-1.9c0.3-0.6,0.4-1,0.4-1c0,0,0-0.1,0-0.1c-0.2,0.1-0.4,0.2-0.4,0.1
		c0-0.4-0.2-0.7-0.5-0.9c0,0-0.1,0-0.1-0.1c-0.1,0-0.2-0.1-0.3-0.1c-0.1-0.1-0.3-0.1-0.5-0.2c-0.3-0.1-0.6-0.2-0.9-0.3
		c-0.6-0.1-1.2-0.1-1.3-0.1c0,0-0.3-0.1,0.4-0.3l0-0.3c0.3-0.6-0.3-1.7-1.1-2.5c-0.1-0.1-0.2-0.2-0.3-0.3c0,0,0,0,0,0
		c-0.3-0.2-0.5-0.4-0.8-0.4l0-0.1c0.2,0,0.5,0,0.6,0.2c-0.1,0,0.2-0.9-0.4-2c0,0,0,0,0,0c-0.2-0.4-0.5-0.7-0.7-1
		c-0.1-0.1-0.1-0.1-0.2-0.2c0,0,0,0,0,0c0,0,0,0,0,0C62.3,67,62.3,67,62.4,67c0,0-0.4-0.5,0-0.4c0.1,0,1.5,0.2,2.7,0.7
		c0-0.1-0.1-0.1-0.1-0.2c0,0,0-0.1-0.1-0.1c-0.1-0.2-0.3-0.4-0.5-0.6C63.4,65.7,61,64.4,59.4,65.1z M46.3,78.8
		c0.2,0.1,0.1,0.1,0,0.1c-1.6,0.4-3.3,1.1-5,0.5c0,0-0.2-0.2,0-0.2C43,79.3,44.7,79.3,46.3,78.8z M38.3,80.5c-0.2-0.2-0.9-0.5-1-0.7
		c0,0,0-0.5,0.1-0.6c0.1,0,0.9,1.1,1,1.2C38.5,80.6,38.3,80.5,38.3,80.5z M61.9,76.5c0,0,0.2,0,0.1,0.1c-0.3,0.2-0.6,0.4-0.9,0.5
		c0.5-0.1,1.1-0.3,1.8-0.6c0,0-2.6,2.7-5.4,1.6c-0.2,0-0.3,0-0.5,0c-0.1,0-0.4-0.2,0-0.3c1.2-0.4,2.1-0.4,3.1-0.5
		C61,76.9,61.9,76.5,61.9,76.5z M44.7,81.3c0.4,0,3,0.2,5.3,0c0,0-5.2,1.4-7.7-0.1C43.2,80.3,44.3,81.3,44.7,81.3z M50.8,74.4
		c0,0-0.2,0.1-0.1-0.1c1.5-3,4.4-5.8,8-5.7c0.2,0.1,0,0.1,0,0.1C55.1,68.7,52.8,71.9,50.8,74.4z"/>
	<path fill="#E64D61" d="M68.5,75.4C68.5,75.4,68.5,75.4,68.5,75.4C68.5,75.4,68.5,75.4,68.5,75.4C68.5,75.4,68.5,75.4,68.5,75.4
		C68.5,75.4,68.5,75.4,68.5,75.4z"/>
	<path fill="#E64D61" d="M66.5,79c-1,0.7-1.9,1.3-3,1.8C64.7,80.3,65.7,79.7,66.5,79z"/>
	<path fill="#FFFFFE" d="M42.4,81.3c2.4,1.4,7.7,0.1,7.7,0.1c-2.3,0.2-4.9,0-5.3,0C44.3,81.3,43.2,80.3,42.4,81.3z"/>
	<path fill="#00A251" d="M65.9,68C65.9,67.9,65.8,67.9,65.9,68c-0.4-0.2-0.8-0.4-1.3-0.5c-0.1,0-0.1,0-0.2,0
		c-0.4-0.1-0.9-0.1-1.4-0.1c0.2,0.3,0.4,0.7,0.6,1.1c0,0,0,0,0,0c0.2,0.4,0.4,0.8,0.4,1.3c0,0.2,0,0.3,0,0.5c0,0,0,0.1,0,0.1
		c0,0,0,0,0,0c0,0,2,1.3,2,3.5c0,0,2.4-0.4,2.6,1.4c0,0.1,0,0.1,0.1,0.2c0,0,0,0,0,0.1c0.7-0.3,1-0.8,1-1.6l0-0.2L69.4,73L69,71.1
		c0,0,0.3-0.4,0.7-1c-0.4,0.5-0.8,0.9-1.2,1.3c-0.2,0.2-0.7,0.2-0.7,0.2c-0.1,0-0.7,0.1,0.8-0.9c1.7-1.8,3-3.9,5.1-5.2l-0.7-0.6
		c0,0-0.9,1.1-1.9,2.3c-0.3,0.5-0.6,0.9-1,1.2c-0.2,0.1-0.3,0.2-0.5,0.3c-0.5,0.5-1,0.9-1.3,1c-0.1,0-0.1,0-0.2,0c0,0-0.1,0-0.1,0
		c0,0,0,0,0,0c-0.6,0.3-1.3,0.6-2.1,0.5c0,0-0.2-0.1,0-0.2c0.5-0.1,0.9-0.3,1.4-0.5c0-0.1-0.1-0.3-0.2-0.6c0,0,0-0.1-0.1-0.1
		C66.7,68.6,66.4,68.3,65.9,68z"/>
	<path fill="#00A251" d="M73.7,65.6L73.7,65.6c-0.1,0-0.1,0-0.2,0C73.6,65.6,73.7,65.6,73.7,65.6z"/>
	<path fill="#00A251" d="M69.7,75.1L69.7,75.1L69.7,75.1L69.7,75.1C69.7,75.1,69.7,75.1,69.7,75.1z"/>
	<path fill="#00A251" d="M64.1,71.1c-0.1-0.1-0.2-0.2-0.3-0.3c0,0,0,0,0,0C63.9,70.9,63.9,71,64.1,71.1z"/>
	<path d="M65.8,70.1c-0.2,0.1,0,0.2,0,0.2c0.7,0,1.4-0.2,2.1-0.5c0,0,0,0,0,0c0.1,0,0.1-0.1,0.2-0.1c0.5-0.3,1-0.6,1.4-1
		c0.2-0.1,0.3-0.2,0.5-0.3c0.3-0.2,0.7-0.7,1-1.2c0.6-1.1,1.2-2.4,1.9-2.7l0,0c0.4,0.3,0.9,0.5,1.1,1c0,0,0.2,0.1,0.1-0.1
		c-0.1-0.5-0.8-0.7-1.1-1c0-0.1-0.1-0.1-0.2-0.1c-0.4,0.3-0.8,0.5-1,0.9c-0.8,1.5-2,2.8-3.4,3.8c0,0,0,0-0.1,0
		c-0.4,0.2-0.7,0.4-1.1,0.6C66.8,69.8,66.3,70,65.8,70.1z"/>
	<path d="M68.5,70.6c-1.5,1-0.8,0.9-0.8,0.9c0,0,0.5,0,0.7-0.2c0.5-0.4,0.9-0.8,1.2-1.3c0.7-0.8,1.3-1.7,2-2.6
		c0.6-0.7,1.1-1.4,1.9-1.8c0,0,0.1-0.1,0.1-0.1c0,0,0.1,0,0.1-0.1c0-0.1-0.1-0.2-0.1-0.1c0,0-0.1,0.1-0.1,0.1
		C71.5,66.8,70.2,68.8,68.5,70.6z"/>
	<path d="M46.5,83.8c0.4,0.1,0.8,0.1,1.2,0.1c0.4,0,0.9-0.1,1.4-0.1c1.5-0.2,3.1-0.6,4.5-0.9c0.8-0.2,1.6-0.4,2.3-0.6
		c0.2,0,0.3-0.1,0.5-0.1c0.3-0.1,1.4-0.2,2.6-0.3c1-0.1,2.1-0.3,2.7-0.4c0.6-0.1,1.2-0.4,1.8-0.6c1.1-0.5,2.1-1.1,3-1.8
		c0.2-0.1,0.3-0.2,0.5-0.3c0.6-0.4,1.1-0.9,1.5-1.6c0.1-0.2,0.2-0.4,0.3-0.6c0,0,0.5-0.3,0.2-0.9c0.1,0,0.4-0.2,0.7-0.4
		c0,0,0,0,0.1,0c0.1-0.1,0.2-0.2,0.3-0.3c0,0,0-0.2,0-0.6c0-0.4-0.1-0.9-0.3-1.7c0-0.1-0.1-0.3-0.1-0.4c-0.1-0.2-0.2-0.5-0.3-0.8
		c-0.1,0-0.1,0-0.2,0.1c0.1,0.5,0.1,0.9,0.2,1.3c0,0.3,0.1,0.6,0.1,0.8c0,0.1,0,0.2,0,0.3c0,0.8-0.3,1.3-1,1.6c0,0,0,0,0,0
		c0,0,0-0.1,0-0.1c0-0.1,0-0.1,0-0.2c-0.2-1.8-2.6-1.4-2.6-1.4c0-2.1-2-3.4-2-3.5c0,0,0,0,0,0c0,0,0-0.1,0-0.1c0-0.2,0-0.3,0-0.5
		c0-0.5-0.1-0.9-0.3-1.4c0,0,0,0,0,0c-0.2-0.4-0.3-0.7-0.6-1.1c0-0.1-0.1-0.1-0.1-0.2c0.7,0,1.2,0.1,1.7,0.2c0.1,0,0.1,0,0.2,0
		c0.5,0.1,0.9,0.2,1.2,0.5c0,0,0.1,0,0.1,0c0.4,0.2,0.7,0.6,1,1c0,0,0,0.1,0.1,0.1c0,0,0,0.1,0.1,0.1c0,0,0.1,0.1,0.1,0
		c0-0.1-0.1-0.1-0.1-0.2c0,0,0-0.1,0-0.1c-0.2-0.4-0.6-0.7-1-1c0,0,0,0-0.1,0c-0.3-0.2-0.5-0.3-0.8-0.4c-1.2-0.5-2.6-0.7-2.7-0.7
		c-0.4-0.1,0,0.4,0,0.4c-0.1,0-0.2,0-0.1,0.1c0,0,0,0,0,0c0,0,0,0,0,0c0.1,0.1,0.1,0.1,0.2,0.2c0.3,0.3,0.5,0.7,0.7,1c0,0,0,0,0,0
		c0.6,1.1,0.3,2.1,0.4,2c-0.1-0.1-0.4-0.2-0.6-0.2l0,0.1c0.2,0.1,0.5,0.2,0.8,0.4c0.1,0.1,0.2,0.2,0.3,0.3c0.7,0.8,1.3,1.9,1.1,2.5
		l0,0.3c-0.7,0.1-0.4,0.3-0.4,0.3c0.1,0,0.6,0,1.3,0.1c0.3,0,0.6,0.1,0.9,0.2c0.2,0.1,0.3,0.1,0.4,0.2c0.1,0.1,0.2,0.1,0.3,0.2
		c0,0,0,0.1,0.1,0.1c0.2,0.2,0.4,0.5,0.5,0.9c0.1,0.1,0.3,0,0.4-0.1c0,0,0.1,0,0.1,0c0,0,0.1,0.4-0.6,1.1c-0.4,0.5-1.1,1.1-2.3,1.9
		c-1.9,1.8-5.9,2.2-8,2.4c-7.1,0.9-10.7,2.2-16.3,0.6c-1-0.3-3-0.3-3-0.3c-1.8-0.6-2.5-2-1.1-3.7c0.2-0.2,0.5-0.5,0.8-0.7
		c0,0,0,0,0,0c0.3-0.2,0.7-0.3,1-0.5c0.7-0.3,1.3-0.5,2.1-0.7c1-0.3,2.1-0.6,3.3-0.9c2.8-0.6,3.7-2.9,4.5-3.4
		c0.3-0.2,0.5-0.4,0.8-0.6c0.3-0.2,0.6-0.5,0.8-0.7c4.4-3.6,6.7-4.7,7.8-5c0.1,0,0.1,0,0.1,0c0.5-0.1,0.7-0.1,0.7-0.1
		c1.5-0.7,4,0.6,5.1,1.2c0.3,0.2,0.6,0.3,0.6,0.3c0.2,0,0.1-0.1,0.1-0.1c-0.2-0.2-0.4-0.5-0.7-0.7c0,0,0,0-0.1-0.1
		c-0.3-0.3-0.7-0.5-1.1-0.7c0,0-0.1-0.1-0.1-0.1c-0.6-0.3-1.1-0.4-1.7-0.5c-0.2,0-0.3-0.1-0.5-0.1c-1.4-0.2-2.5,0-2.5,0
		c-0.8,0.2-2.3,1-3.9,2.1c-0.9,0.6-1.9,1.4-2.8,2.1c-1.3,1-2.4,2-3,2.7c0,0-0.5,0.4-1.3,1c-1.1,0.7-2.7,1.6-4.6,2.1
		c-0.2,0.1-0.4,0.1-0.6,0.1c-0.1,0-0.3,0.1-0.4,0.1c-0.1,0-0.3,0.1-0.5,0.2c-0.5,0.2-1.2,0.5-2,0.9c-0.4,0.2-0.7,0.4-1.1,0.6
		c-0.8,0.4-1.4,0.9-1.7,1.2c-0.2,0.2-0.3,0.4-0.4,0.6c-0.5,0.9-0.3,1.8,0.1,2.5c0.1,0.1,0.1,0.2,0.2,0.3c0.2,0.3,0.4,0.5,0.6,0.6
		c0.3,0.2,0.5,0.3,0.7,0.3c0.4,0.1,0.8,0.2,1.2,0.4c0,0,0.1,0,0.1,0c0.3,0.1,0.6,0.2,1,0.3c0.3,0.1,0.6,0.1,0.8,0.2
		c0.7,0.2,1.4,0.3,2.1,0.5c0.4,0.1,0.8,0.2,1.2,0.2C45.2,83.6,45.8,83.7,46.5,83.8z"/>
	<path d="M58.6,68.7c0,0,0.2-0.1,0-0.1c-3.6-0.1-6.5,2.7-8,5.7c0,0.2,0.1,0.1,0.1,0.1C52.8,71.9,55.1,68.7,58.6,68.7z"/>
	<path d="M41.4,79.2c-0.2,0-0.1,0.2,0,0.2c1.7,0.6,3.3-0.1,5-0.5c0,0,0.2-0.1,0-0.1C44.7,79.3,43,79.3,41.4,79.2z"/>
	<path d="M56.9,77.9c-0.4,0.1-0.1,0.2,0,0.3c0.2,0,0.3,0,0.5,0c2.8,1.1,5.4-1.6,5.4-1.6c-0.7,0.3-1.2,0.5-1.8,0.6
		c0.3-0.2,0.6-0.3,0.9-0.5c0.1-0.1,0-0.1-0.1-0.1c0,0-0.8,0.4-2,0.8C59,77.5,58,77.5,56.9,77.9z"/>
	<path d="M37.4,79.2c-0.1,0-0.1,0.6-0.1,0.6c0.1,0.3,0.8,0.5,1,0.7c0,0,0.2,0.1,0.1-0.1C38.2,80.3,37.4,79.2,37.4,79.2z"/>
</g>
</svg>
