<?xml version="1.0" encoding="utf-8"?>
<!-- Generator: Adobe Illustrator 18.1.0, SVG Export Plug-In . SVG Version: 6.00 Build 0)  -->
<svg version="1.1" id="Layer_1" xmlns="http://www.w3.org/2000/svg" xmlns:xlink="http://www.w3.org/1999/xlink" x="0px" y="0px"
	 viewBox="0 0 2000 2000" enable-background="new 0 0 2000 2000" xml:space="preserve">
<g>
	<g>
		<path fill="#184A68" d="M1642.4,990c77-20.4,110.7-77.1,118-130.1c14.2,36.4,34.2,60.8,64,79.1c4.4,2.7,9.7,2.8,14.1,0.4
			c0.6-0.3,1.2-0.7,1.7-1.1l7.1,4.4l-4.3-7.2c3.3-4.4,3.8-10.8,0.8-15.7c-24.5-40.1-39.2-105.2-39.2-174c0-34.7,4.1-65.9,10.7-83.4
			c7,1.9,14.3,2.8,21.4,2.8c0.3,0,0.9,0,1.8,0.1c1.2,0.1,3.3,0.3,5,0.3c0.8,0,2.8,0,4.6-0.5c3.1-0.7,11-4.4,11-13.8
			c0-3.3-1.2-6.5-3.3-9.3c-40-50.8-69-170.3-69-284.2c0-73.5,14.1-126.8,23.6-139.6c3.6-4.8,3.7-11.1,0.6-15.8l4.5-6.1
			c-1.5-1.3-3-2.6-4.4-3.9l-5.7,5c-0.2-0.1-0.3-0.2-0.6-0.3c-5-2.3-10.6-1.4-14.9,2.3c-8.5,7.4-58.4,21.1-140.5,21.1
			c-113.9,0-233.4-29.1-284.2-69.1c-2.6-2.1-5.8-3.2-9.1-3.2c-6.5,0-11.7,3.9-13.9,10.5c-0.7,2.2-0.7,4.2-0.7,5
			c0,1.7,0.2,3.8,0.3,4.8c0.1,1,0.1,1.6,0.1,1.9c0,8.6,1.5,17.5,4.3,26c-50.9,16.3-187.3,14.7-258.3-31.2c-3.9-2.5-8.3-2.9-12-0.9
			c-1,0.5-2,1.3-2.8,2.1l-3.9-2.3l2.5,4.1c-3,4.3-3.5,11-0.7,15.7c18.5,31.5,43.4,52.5,80.8,67.2c-52.9,7.1-108.4,40-129.3,115.6
			c-0.4,1.4-0.6,2.9-0.6,4.4c0,4.6,2.1,8.8,5.7,11.8l-1.4,5.9l4.9-3.7c5.4,2.4,11.6,1.9,16.4-1.5c44.7-31.9,93.5-38,145.3-18
			c0.1,66.6,31,105.4,40.4,115.7c4.1,4.5,9.3,5.9,14.4,3.9c0.3-0.1,0.6-0.3,0.9-0.4l3.2,3.4l-0.5-5c4.3-3.4,7.3-9.3,7.3-15.2l0-1.4
			c-4.8-55.9,13.7-85.7,35.2-115.3c11.1,18.4,29.1,29.4,50.3,30.6c23.2,1.3,46.9-9.6,61.9-27.8c1.1,3,2.3,5.9,3.6,8.9
			c18.2,41.8,53.1,75.8,71.4,84.2c4.3,2,9.3,1.6,13.3-0.9c4.7-3.1,7.3-8.5,6.3-14.2c-15.3-90.5,29.7-147.7,109.5-147.7
			c33.2,0,75.5,9.3,92.3,27.1c10.5,11.2,20.8,53.7,20.8,85.7c0,69.4-43.8,112.5-114.1,112.5c-11.3,0-22.6-1-33.5-3
			c-4-0.8-8.2,0.3-11.4,2.9c-4.8,4-6.4,10.9-3.8,16.6c8.2,18.2,42.1,53.1,84.2,71.4c5.6,2.5,11.4,4.6,17.2,6.3
			c-19.5,13.7-31.9,36.5-31.9,60.3c0,22.8,11.2,42,30.9,53.8c-30,21.8-60.4,40.8-118.9,35c-5.3-0.5-8.7,1.5-10.6,3.2
			c-1.3,1.2-2.4,2.6-3.1,4.2l-4.4-0.5l3.4,3.3c-1.4,5.9,0.8,13,5.5,17.1c13.5,11.7,51.3,38.5,113.7,38.6
			c20.7,53.9,13.5,104.1-21.7,150.1c-2,2.6-3,5.3-3,8c0,2.5,0.9,5,2.5,7.1l-1.1,1.5l2-0.5c0.5,0.5,1.1,1,1.7,1.5
			C1630.8,990.1,1637.2,991.4,1642.4,990z M1346.6,362.4c-17.7,0-31.8-9.4-39.7-26.5l-9.9-21.6l-14,19.1
			c-22,29.9-44.7,60.8-44.7,115.9c0,2.7,0.1,5.5,0.2,8.5c-11.5-16.6-26.7-47.1-26.7-92l0.3-12.8l-8.9-3.7c-24-9.6-46.6-14.3-69-14.3
			c-31.4,0-61.9,9.5-90.5,28.4c23.3-69.1,81.8-94.2,130.9-94.2l43.2,1l1.3-8.6l1.2,0l-1.2-0.3l1.3-8.7l-37.5-10.8
			c-37-10.5-62.4-25-81.2-46.9c57.9,26.7,129.9,29.9,160.4,29.9c28.9,0,67.5-1.8,92.2-10.2c11.6,19.8,31,36.2,57.7,48.9
			c-9.3,14.7-14.1,31.3-14.1,49.2l-0.1,8.4c0,2,0.1,4.6,0.5,7.7C1389.5,348.6,1368.4,362.4,1346.6,362.4z M1651.9,580.3
			c-32.7-14.1-57.6-38.3-68.7-52.9c8.8,1.1,17.4,1.6,25.7,1.6c80.9,0,133.1-51.7,133.1-131.7c0-29.9-9-80.8-25.9-98.8
			c-24.5-26.1-78.3-33.1-106.1-33.1c-80,0-131.7,52.2-131.7,133.1c0,8.3,0.6,16.9,1.6,25.7c-14.6-11.2-38.7-36-52.9-68.8
			c-14.4-32.8-13-63.4,4.8-87.1l9.9-13.1l-15-6.5c-56.1-24.3-64.7-59.3-65.5-75.6c60.2,46,186.1,66.7,288.2,66.7
			c57.4,0,110.2-7,137.7-17.6c-10.4,26.6-19.5,76.3-19.5,135.5c0,102.1,20.6,228.1,66.7,288.3c-16.3-0.8-51.4-9.4-75.6-65.5l-6.5-15
			l-13,9.8c-13,9.7-27.8,14.7-44.2,14.7C1681.2,590.2,1666.8,586.9,1651.9,580.3z M1662.5,808.6l-3.7-8.8L1646,800
			c-44.9,0-75.4-15.2-92-26.7c3,0.2,5.8,0.2,8.5,0.2c55.1,0,86-22.7,115.9-44.7l19.1-14l-21.6-10c-17.1-7.8-26.5-21.9-26.5-39.6
			c0-24.4,18.4-52.6,48.1-55.8c12.6-1.3,30.5-4.3,46.6-14.2c13.9,29.7,32.6,50.3,55.4,61.3c-8,20.3-12.4,53-12.4,93.2
			c0,30.6,3.2,102.5,29.9,160.4c-22-18.8-36.5-44.1-46.9-81.2l-10.8-37.5l-8.6,1.3l-0.3-1.1l0,1.1l-8.7,1.3l1,38.9v4.2
			c0,49.2-25.1,107.6-94.2,130.9C1680.7,919.1,1685.7,866.7,1662.5,808.6z"/>
	</g>
	<g>
		<path fill="#184A68" d="M1019.9,1618.2c20.4,77,77.1,110.7,130.1,118c-36.4,14.3-60.9,34.2-79.1,64c-2.7,4.4-2.8,9.7-0.3,14.1
			c0.3,0.6,0.7,1.2,1.1,1.7l-4.4,7.1l7.2-4.3c4.4,3.3,10.8,3.8,15.7,0.7c40.2-24.5,105.2-39.2,173.9-39.2c34.7,0,65.9,4,83.4,10.7
			c-1.9,7-2.9,14.2-2.9,21.4c0,0.3,0,0.9-0.1,1.8c-0.1,1.2-0.4,3.3-0.4,5c0,0.7,0,2.8,0.6,4.6c0.7,3.1,4.4,11,13.8,11
			c3.3,0,6.5-1.2,9.2-3.3c50.8-40,170.3-69,284.2-69c73.5,0,126.8,14.1,139.5,23.6c4.8,3.6,11.1,3.7,15.8,0.6l6.1,4.5
			c1.3-1.5,2.5-3,3.8-4.4l-5-5.7c0.1-0.2,0.2-0.3,0.3-0.6c2.3-5,1.4-10.6-2.3-14.9c-7.4-8.5-21.2-58.4-21.2-140.5
			c0-113.9,29.1-233.4,69.2-284.2c2.1-2.6,3.2-5.7,3.2-9.1c0-6.5-3.9-11.7-10.6-13.9c-2.2-0.7-4.2-0.7-5-0.7c-1.7,0-3.8,0.2-4.8,0.3
			c-1,0.1-1.6,0.1-1.9,0.1c-8.6,0-17.5,1.5-26,4.3c-16.3-50.9-14.7-187.3,31.2-258.3c2.5-3.9,2.9-8.3,0.9-12c-0.6-1-1.3-2-2.1-2.8
			l2.3-3.9l-4.1,2.5c-4.3-3-11-3.5-15.6-0.7c-31.5,18.5-52.5,43.4-67.2,80.9c-7.1-52.9-40-108.4-115.6-129.3
			c-1.5-0.4-2.9-0.6-4.4-0.6c-4.6,0-8.8,2.1-11.8,5.7l-5.9-1.4l3.8,4.9c-2.5,5.4-1.9,11.6,1.5,16.4c31.9,44.7,38,93.5,18,145.3
			c-66.6,0-105.4,30.9-115.7,40.4c-4.4,4.1-5.9,9.3-3.9,14.4c0.1,0.3,0.3,0.6,0.4,0.9l-3.3,3.2l5-0.5c3.4,4.3,9.3,7.3,15.2,7.3
			l1.4,0c55.9-4.8,85.7,13.8,115.3,35.3c-18.4,11.1-29.5,29.1-30.6,50.3c-1.3,23.2,9.6,46.9,27.8,61.9c-3,1.1-5.9,2.3-8.9,3.6
			c-41.8,18.2-75.8,53.1-84.2,71.4c-2,4.3-1.6,9.3,1,13.3c3.1,4.7,8.5,7.3,14.1,6.3c90.5-15.3,147.7,29.7,147.7,109.5
			c0,33.2-9.3,75.5-27.1,92.3c-11.2,10.5-53.7,20.8-85.7,20.8c-69.4,0-112.5-43.8-112.5-114.2c0-11.3,1-22.6,3-33.5
			c0.8-4.1-0.3-8.2-2.9-11.4c-4-4.8-10.9-6.4-16.6-3.8c-18.2,8.2-53.1,42.1-71.4,84.2c-2.5,5.6-4.6,11.4-6.3,17.2
			c-13.7-19.5-36.5-31.9-60.3-31.9c-22.8,0-42,11.2-53.8,30.9c-21.8-30-40.8-60.4-35-118.9c0.5-5.3-1.5-8.7-3.2-10.6
			c-1.2-1.3-2.6-2.4-4.2-3.1l0.5-4.4l-3.3,3.4c-5.8-1.4-13,0.8-17.1,5.5c-11.7,13.5-38.5,51.3-38.6,113.7
			c-53.9,20.8-104.1,13.5-150.1-21.7c-2.6-2-5.3-3-8-3c-2.5,0-5,0.9-7,2.5l-1.5-1.1l0.5,2c-0.5,0.5-1,1.1-1.5,1.7
			C1019.8,1606.6,1018.5,1613,1019.9,1618.2z M1647.5,1322.4c0-17.7,9.4-31.8,26.5-39.6l21.6-9.9l-19.1-14
			c-29.9-22-60.8-44.7-115.9-44.7c-2.7,0-5.5,0.1-8.5,0.2c16.6-11.5,47.1-26.7,92-26.7l12.7,0.3l3.8-8.9c9.6-24,14.3-46.6,14.3-69
			c0-31.4-9.5-61.9-28.4-90.6c69.1,23.3,94.2,81.8,94.2,130.9l-1,43.1l8.6,1.3l0,1.2l0.3-1.2l8.7,1.3l10.8-37.5
			c10.5-37,25-62.4,46.9-81.2c-26.7,57.9-29.9,129.9-29.9,160.4c0,28.9,1.8,67.5,10.2,92.2c-19.8,11.6-36.2,31-48.9,57.7
			c-14.7-9.3-31.3-14.1-49.2-14.1l-8.4-0.1c-2,0-4.6,0.1-7.7,0.5C1661.3,1365.3,1647.5,1344.2,1647.5,1322.4z M1429.6,1627.7
			c14.1-32.7,38.2-57.6,52.9-68.7c-1.1,8.8-1.6,17.4-1.6,25.7c0,80.9,51.7,133.1,131.7,133.1c29.9,0,80.9-9,98.8-25.9
			c26.1-24.5,33.1-78.3,33.1-106.1c0-80-52.2-131.7-133.1-131.7c-8.3,0-16.9,0.5-25.7,1.6c11.2-14.6,36-38.7,68.8-52.9
			c32.8-14.4,63.4-13,87.1,4.8l13.1,9.9l6.5-15c24.3-56.1,59.3-64.7,75.6-65.5c-46,60.2-66.7,186.1-66.7,288.2
			c0,57.4,7,110.2,17.6,137.7c-26.6-10.4-76.3-19.5-135.5-19.5c-102.1,0-228.1,20.6-288.3,66.6c0.7-16.3,9.3-51.4,65.4-75.6l15-6.5
			l-9.9-13c-9.7-13-14.6-27.8-14.6-44.2C1419.7,1657,1423,1642.6,1429.6,1627.7z M1201.4,1638.3l8.8-3.7l-0.2-12.8
			c0-44.9,15.2-75.4,26.7-92c-0.1,3-0.2,5.8-0.2,8.5c0,55.1,22.7,86,44.7,115.9l14,19.1l10-21.6c7.8-17.1,21.8-26.5,39.6-26.5
			c24.4,0,52.7,18.4,55.8,48.1c1.3,12.6,4.3,30.5,14.2,46.6c-29.7,13.9-50.3,32.6-61.3,55.4c-20.3-8-53-12.3-93.2-12.3
			c-30.6,0-102.6,3.1-160.5,29.9c18.8-21.9,44.2-36.5,81.2-46.9l37.5-10.8l-1.3-8.6l1.1-0.3l-1.1,0l-1.3-8.7l-38.9,1h-4.3
			c-49.1,0-107.6-25.1-130.9-94.2C1090.9,1656.5,1143.2,1661.6,1201.4,1638.3z"/>
	</g>
	<g>
		<path fill="#184A68" d="M391.7,995.7c-77,20.4-110.7,77.1-118,130.1c-14.2-36.4-34.3-60.9-64-79.1c-4.4-2.7-9.7-2.8-14.1-0.3
			c-0.6,0.3-1.1,0.7-1.7,1.1l-7.1-4.4l4.3,7.2c-3.3,4.4-3.8,10.7-0.8,15.7c24.5,40.1,39.2,105.2,39.2,173.9
			c0,34.7-4.1,65.9-10.8,83.4c-7-1.9-14.2-2.8-21.4-2.8c-0.4,0-1,0-1.8-0.1c-1.2-0.1-3.3-0.4-5-0.4c-0.8,0-2.8,0-4.6,0.6
			c-3.1,0.7-11,4.4-11,13.8c0,3.3,1.1,6.5,3.3,9.2c40,50.8,69,170.3,69,284.2c0,73.5-14.1,126.8-23.6,139.6
			c-3.5,4.8-3.6,11.1-0.6,15.8l-4.5,6.1c1.5,1.3,3,2.5,4.4,3.8l5.7-5c0.2,0.1,0.4,0.2,0.6,0.3c5,2.3,10.6,1.4,14.9-2.3
			c8.5-7.4,58.4-21.1,140.5-21.1c113.9,0,233.4,29.1,284.2,69.1c2.6,2.1,5.7,3.2,9.1,3.2c6.5,0,11.7-3.9,13.8-10.6
			c0.7-2.2,0.7-4.2,0.7-5c0-1.7-0.2-3.8-0.3-4.8c-0.1-1-0.1-1.6-0.1-1.9c0-8.6-1.5-17.5-4.2-26c50.9-16.3,187.3-14.7,258.3,31.2
			c3.9,2.5,8.2,2.9,12,0.8c1-0.6,2-1.3,2.8-2.1l3.9,2.3l-2.5-4.1c3-4.3,3.5-11,0.7-15.7c-18.5-31.5-43.4-52.5-80.8-67.2
			c52.8-7.1,108.4-40,129.3-115.6c0.4-1.5,0.6-2.9,0.6-4.4c0-4.6-2.1-8.8-5.7-11.8l1.5-5.9l-4.9,3.8c-5.4-2.5-11.6-1.9-16.4,1.5
			c-44.7,31.9-93.5,38-145.3,18c0-66.6-30.9-105.4-40.4-115.7c-4.1-4.4-9.3-5.9-14.4-3.9c-0.3,0.1-0.6,0.3-1,0.4l-3.2-3.3l0.5,5
			c-4.3,3.4-7.3,9.3-7.3,15.2l0.1,1.4c4.8,55.9-13.8,85.7-35.3,115.3c-11.1-18.4-29.1-29.4-50.3-30.6c-23.2-1.3-46.9,9.6-61.9,27.8
			c-1.1-3-2.2-5.9-3.6-8.9c-18.2-41.8-53.1-75.8-71.4-84.2c-4.3-2-9.3-1.6-13.3,1c-4.7,3.1-7.3,8.5-6.3,14.1
			c15.3,90.5-29.7,147.7-109.5,147.7c-33.2,0-75.5-9.3-92.4-27.1c-10.5-11.2-20.8-53.7-20.8-85.7c0-69.4,43.8-112.5,114.2-112.5
			c11.2,0,22.6,1,33.5,3c4.1,0.8,8.2-0.3,11.4-2.9c4.7-4,6.4-10.9,3.8-16.6c-8.2-18.2-42.1-53.1-84.2-71.4
			c-5.6-2.5-11.3-4.6-17.1-6.3c19.5-13.7,31.9-36.5,31.9-60.3c0-22.8-11.1-42-30.9-53.8c30-21.8,60.4-40.8,118.9-35
			c5.3,0.5,8.7-1.5,10.6-3.2c1.3-1.2,2.3-2.6,3.1-4.2l4.4,0.5l-3.4-3.3c1.4-5.9-0.8-13-5.5-17.1c-13.5-11.7-51.3-38.5-113.7-38.6
			c-20.8-53.9-13.5-104.1,21.7-150.1c2-2.6,3-5.3,3-8c0-2.5-0.9-5-2.5-7l1.1-1.5l-2,0.5c-0.5-0.5-1.1-1-1.7-1.5
			C403.3,995.6,396.9,994.4,391.7,995.7z M687.5,1623.3c17.7,0,31.8,9.4,39.6,26.5l10,21.6l14-19.1c22-29.9,44.7-60.8,44.7-115.9
			c0-2.7-0.1-5.5-0.2-8.5c11.5,16.6,26.7,47.1,26.7,92l-0.3,12.8l8.9,3.7c24,9.6,46.6,14.3,69,14.3c31.4,0,61.8-9.5,90.5-28.4
			c-23.3,69.1-81.8,94.2-130.9,94.2l-43.1-1l-1.3,8.6l-1.2,0l1.2,0.3l-1.3,8.7l37.5,10.8c37,10.5,62.4,25,81.2,46.9
			c-57.9-26.7-129.9-29.9-160.4-29.9c-28.9,0-67.5,1.8-92.2,10.2c-11.6-19.8-31-36.2-57.7-48.9c9.3-14.7,14.1-31.3,14.1-49.2
			l0.1-8.4c0-2-0.1-4.6-0.5-7.7C644.6,1637.1,665.7,1623.3,687.5,1623.3z M382.2,1405.4c32.8,14.1,57.6,38.3,68.8,52.9
			c-8.8-1.1-17.4-1.6-25.7-1.6c-80.9,0-133.1,51.7-133.1,131.7c0,29.9,9,80.9,26,98.8c24.5,26.1,78.2,33.1,106.1,33.1
			c80,0,131.7-52.2,131.7-133.1c0-8.3-0.6-16.9-1.6-25.7c14.6,11.2,38.7,36,52.9,68.8c14.4,32.8,13,63.4-4.8,87.1l-9.9,13.1l15,6.5
			c56.1,24.3,64.7,59.3,65.4,75.6c-60.2-46-186.1-66.7-288.2-66.7c-57.4,0-110.2,7-137.7,17.6c10.4-26.6,19.5-76.3,19.5-135.5
			c0-102.1-20.6-228.1-66.6-288.3c16.3,0.7,51.4,9.4,75.7,65.4l6.5,15l13-9.9c13-9.7,27.8-14.6,44.2-14.6
			C352.9,1395.5,367.3,1398.8,382.2,1405.4z M371.6,1177.2l3.7,8.8l12.7-0.2c44.9,0,75.4,15.2,92,26.7c-3-0.1-5.8-0.2-8.5-0.2
			c-55.1,0-86,22.7-115.9,44.7l-19.1,14l21.6,10c17.1,7.8,26.5,21.8,26.5,39.6c0,24.4-18.4,52.7-48.1,55.8
			c-12.6,1.3-30.5,4.3-46.5,14.2c-13.9-29.7-32.6-50.3-55.4-61.3c8-20.3,12.3-53,12.3-93.2c0-30.6-3.2-102.6-29.9-160.5
			c21.9,18.8,36.5,44.2,46.9,81.2l10.8,37.5l8.6-1.3l0.3,1.1l0-1.1l8.7-1.3l-1-38.9v-4.3c0-49.1,25.1-107.6,94.2-130.9
			C353.4,1066.7,348.4,1119,371.6,1177.2z"/>
	</g>
	<path fill="#184A68" d="M1014.2,367.5c-20.4-77-77.1-110.7-130-118c36.4-14.2,60.8-34.3,79.1-64c2.7-4.4,2.8-9.7,0.4-14.1
		c-0.3-0.6-0.7-1.1-1.1-1.7l4.4-7.1l-7.2,4.3c-4.4-3.3-10.8-3.8-15.7-0.8c-40.2,24.5-105.2,39.2-174,39.2
		c-34.7,0-65.9-4.1-83.4-10.8c1.9-7,2.8-14.2,2.8-21.4c0-0.4,0-1,0.1-1.8c0.1-1.2,0.4-3.3,0.4-5c0-0.8,0-2.8-0.5-4.6
		c-0.7-3.1-4.4-11-13.9-11c-3.3,0-6.5,1.1-9.3,3.3c-50.8,40-170.3,69-284.2,69c-73.5,0-126.8-14.1-139.5-23.6
		c-4.8-3.5-11.1-3.6-15.8-0.6l-6.1-4.5c-1.3,1.5-2.6,3-3.9,4.4l5,5.7c-0.1,0.2-0.2,0.4-0.3,0.6c-2.3,5-1.4,10.6,2.3,14.9
		c7.3,8.5,21.1,58.4,21.1,140.5c0,113.9-29.1,233.4-69.1,284.2c-2.1,2.6-3.2,5.7-3.2,9.1c0,6.5,3.9,11.7,10.5,13.9
		c2.2,0.7,4.2,0.7,5,0.7c1.7,0,3.8-0.2,4.9-0.3c1-0.1,1.6-0.1,1.9-0.1c8.6,0,17.5-1.5,26-4.2c16.3,50.9,14.7,187.3-31.2,258.3
		c-2.5,3.9-2.9,8.2-0.9,12c0.5,1,1.3,2,2.1,2.8l-2.3,3.9l4.1-2.5c4.3,3,11,3.5,15.7,0.7c31.5-18.5,52.5-43.4,67.2-80.8
		c7.1,52.8,40,108.4,115.6,129.4c1.4,0.4,2.9,0.6,4.4,0.6c4.6,0,8.8-2.1,11.8-5.7l5.9,1.5l-3.7-4.9c2.4-5.4,1.9-11.6-1.5-16.4
		c-31.9-44.7-38-93.5-18-145.3c66.6,0,105.4-30.9,115.7-40.4c4.5-4.1,5.9-9.3,3.9-14.4c-0.1-0.3-0.2-0.6-0.4-1l3.4-3.2l-5,0.5
		c-3.4-4.3-9.3-7.3-15.2-7.3l-1.4,0.1c-55.9,4.8-85.7-13.8-115.3-35.3c18.4-11.1,29.4-29.1,30.6-50.3c1.3-23.2-9.6-46.9-27.8-61.9
		c2.9-1.1,5.9-2.2,8.9-3.6c41.8-18.2,75.8-53.1,84.2-71.4c1.9-4.3,1.6-9.3-1-13.3c-3.1-4.7-8.5-7.3-14.2-6.3
		c-90.5,15.3-147.7-29.7-147.7-109.5c0-33.2,9.3-75.5,27.1-92.4c11.2-10.5,53.6-20.8,85.7-20.8c69.4,0,112.5,43.7,112.5,114.2
		c0,11.2-1,22.6-3,33.5c-0.8,4.1,0.3,8.2,2.9,11.4c4,4.7,10.9,6.4,16.6,3.8c18.2-8.2,53.1-42.1,71.4-84.2c2.5-5.6,4.6-11.3,6.3-17.1
		c13.7,19.5,36.5,31.9,60.3,31.9c22.8,0,42-11.1,53.8-30.9c21.8,30,40.8,60.4,35,118.9c-0.5,5.3,1.5,8.7,3.2,10.6
		c1.2,1.3,2.6,2.3,4.2,3.1l-0.5,4.4l3.3-3.4c5.9,1.4,13-0.8,17.1-5.5c11.7-13.5,38.5-51.3,38.6-113.7
		c53.9-20.8,104.1-13.5,150.1,21.7c2.6,2,5.3,3,8,3c2.6,0,5-0.9,7.1-2.5l1.5,1.1l-0.5-2c0.5-0.5,1-1.1,1.5-1.7
		C1014.3,379.1,1015.6,372.7,1014.2,367.5z M386.6,663.3c0,17.7-9.4,31.8-26.5,39.6l-21.6,10l19.1,14c29.9,22,60.8,44.7,115.9,44.7
		c2.7,0,5.5-0.1,8.5-0.2c-16.6,11.5-47.1,26.7-92,26.7l-12.8-0.3l-3.7,8.9c-9.6,24-14.3,46.6-14.3,69c0,31.4,9.5,61.9,28.4,90.6
		c-69.1-23.3-94.2-81.8-94.2-130.9l1-43.2l-8.6-1.3l0-1.2l-0.4,1.2l-8.7-1.3l-10.8,37.5c-10.5,37-25,62.4-46.9,81.2
		c26.7-57.9,29.9-129.9,29.9-160.4c0-28.9-1.9-67.5-10.2-92.1c19.8-11.6,36.2-31,48.9-57.8c14.7,9.3,31.3,14.1,49.2,14.1l8.4,0.1
		c2,0,4.6-0.1,7.7-0.5C372.8,620.5,386.6,641.5,386.6,663.3z M604.5,358.1c-14.1,32.8-38.3,57.6-52.9,68.8
		c1.1-8.8,1.6-17.4,1.6-25.7c0-80.9-51.7-133.1-131.7-133.1c-29.9,0-80.8,9-98.8,25.9c-26.1,24.5-33.1,78.3-33.1,106.1
		c0,80,52.2,131.7,133.1,131.7c8.3,0,16.9-0.6,25.7-1.6c-11.2,14.6-36,38.7-68.8,52.9c-32.8,14.4-63.4,13-87.1-4.8l-13.1-9.9
		l-6.5,15c-24.3,56.1-59.3,64.7-75.6,65.4c46-60.2,66.7-186.1,66.7-288.2c0-57.4-7-110.2-17.6-137.7c26.6,10.4,76.3,19.5,135.5,19.5
		c102.1,0,228.1-20.6,288.3-66.6c-0.8,16.3-9.4,51.4-65.5,75.7l-15,6.5l9.8,13c9.7,13,14.7,27.8,14.7,44.2
		C614.4,328.7,611.1,343.2,604.5,358.1z M832.7,347.4l-8.8,3.7l0.2,12.8c0,44.9-15.2,75.4-26.7,92c0.2-3,0.2-5.8,0.2-8.5
		c0-55.1-22.7-86-44.7-115.9l-14-19.1l-10,21.6c-7.8,17-21.9,26.5-39.6,26.5c-24.4,0-52.6-18.4-55.8-48.1
		c-1.3-12.6-4.3-30.5-14.2-46.5c29.7-14,50.3-32.6,61.3-55.4c20.3,8,53,12.3,93.2,12.3c30.5,0,102.5-3.2,160.4-29.9
		c-18.8,22-44.2,36.5-81.2,46.9l-37.5,10.8l1.3,8.6l-1.1,0.3l1.1,0l1.3,8.7l38.9-1h4.2c49.2,0,107.6,25.1,130.9,94.2
		C943.2,329.2,890.9,324.2,832.7,347.4z"/>
	<g>
		<path fill="#F39522" d="M1166.9,1503.3H867.2c-200.3,0-363.2-162.1-363.2-361.4V843.8c0-199.3,162.9-361.4,363.2-361.4h299.7
			c200.3,0,363.2,162.1,363.2,361.4v298.1C1530.1,1341.2,1367.2,1503.3,1166.9,1503.3z M867.2,503.7c-188.6,0-342,152.6-342,340.1
			v298.1c0,187.5,153.4,340.1,342,340.1h299.7c188.5,0,341.9-152.6,341.9-340.1V843.8c0-187.5-153.4-340.1-341.9-340.1H867.2z"/>
	</g>
	<path fill="#F39522" d="M873.7,553.4c-174.7,0-316.8,135.9-316.8,303v265.6c0,167,142.1,302.9,316.8,302.9h277.6
		c174.7,0,316.8-135.9,316.8-302.9V856.4c0-167-142.1-303-316.8-303H873.7z"/>
	<path fill-rule="evenodd" clip-rule="evenodd" fill="#184A68" d="M815.9,1172.5c47.6-14.7,9.8-239.6-7.8-341.5
		c-20.5-3.2-36.2-21-36.2-42.4c0-23.7,19.2-42.9,42.9-42.9s42.9,19.2,42.9,42.9c0,16.6-9.4,31-23.1,38.1
		c15.1,102.9,47.2,327.8,102.3,325.5c61.3-2.6,65.6-272.8,66.8-374.1c-19.5-5.8-33.6-23.9-33.6-45.2c0-26,21.1-47.2,47.2-47.2
		c26.1,0,47.2,21.1,47.2,47.2c0,21.3-14.2,39.4-33.6,45.2c1.2,101.3,5.5,371.5,66.8,374.1c55.1,2.3,87.2-222.6,102.4-325.5
		c-13.8-7.1-23.2-21.5-23.2-38.1c0-23.7,19.2-42.9,42.9-42.9s42.9,19.2,42.9,42.9c0,21.5-15.7,39.2-36.2,42.4
		c-17.6,101.9-55.5,326.9-7.8,341.5c43.4,13.4,115.4-158.4,139.8-246.7c-10-6.6-16.7-18-16.7-31c0-20.5,16.6-37.1,37.1-37.1
		c20.5,0,37.1,16.6,37.1,37.1c0,19.3-14.7,35.1-33.5,36.9c-28.9,99.2-93.9,276-169,332.5c-49.4,37.2-112.5,63-196.2,63
		c-83.8,0-146.8-25.8-196.2-63c-75-56.5-140-233.3-169-332.5c-18.8-1.8-33.5-17.6-33.5-36.9c0-20.5,16.6-37.1,37.1-37.1
		s37.1,16.6,37.1,37.1c0,12.9-6.6,24.3-16.7,31C700.4,1014.2,772.4,1185.9,815.9,1172.5L815.9,1172.5z M1219.8,810.7
		c-12.2,0-22.1-9.9-22.1-22.1c0-12.2,9.9-22.1,22.1-22.1c12.2,0,22.1,9.9,22.1,22.1C1241.9,800.8,1232,810.7,1219.8,810.7
		L1219.8,810.7z M1378.9,911.1c-9,0-16.2-7.3-16.2-16.2c0-9,7.3-16.2,16.2-16.2c9,0,16.2,7.3,16.2,16.2
		C1395.2,903.8,1387.9,911.1,1378.9,911.1L1378.9,911.1z M1017.3,759.3c14.5,0,26.3-11.8,26.3-26.3c0-14.6-11.8-26.3-26.3-26.3
		c-14.5,0-26.3,11.8-26.3,26.3C991,747.5,1002.7,759.3,1017.3,759.3L1017.3,759.3z M814.8,810.7c12.2,0,22.1-9.9,22.1-22.1
		c0-12.2-9.9-22.1-22.1-22.1c-12.2,0-22.1,9.9-22.1,22.1C792.7,800.8,802.6,810.7,814.8,810.7L814.8,810.7z M655.7,911.1
		c9,0,16.2-7.3,16.2-16.2c0-9-7.3-16.2-16.2-16.2c-9,0-16.2,7.3-16.2,16.2C639.4,903.8,646.7,911.1,655.7,911.1L655.7,911.1z"/>
</g>
</svg>
