<?xml version="1.0" encoding="utf-8"?>
<!-- Generator: Adobe Illustrator 18.1.0, SVG Export Plug-In . SVG Version: 6.00 Build 0)  -->
<svg version="1.1" id="Layer_1" xmlns="http://www.w3.org/2000/svg" xmlns:xlink="http://www.w3.org/1999/xlink" x="0px" y="0px"
	 viewBox="0 0 150 150" enable-background="new 0 0 150 150" xml:space="preserve">
<g>
	<path fill-rule="evenodd" clip-rule="evenodd" fill="#D9B727" d="M117,74.8c-1.8-9.6-5.4-18.1-9-25.3l-3.4-5.7
		c-2.2-0.4-4.5-0.7-6.9-0.9c11.5,14.9,20.9,35.8,17.9,63.4C118.7,97.3,118.8,84.5,117,74.8z"/>
	<path fill-rule="evenodd" clip-rule="evenodd" fill="#F5949D" d="M109.9,45.1c0,0,22.5,20.3,25.9,33.9c-7.4-4.9-13-11.6-17.8-19.1
		c2.7,9.3,5.7,19.5,4.8,32.1c-0.8,11.1-4.1,19.7-8.6,27.1c-0.2,0.3-1.1,1.4-0.5,1c1-0.7,2-2.5,2.9-3.9c6.6-9.8,10.9-21.7,10.5-38.4
		c4.1,3.7,8.8,6.8,14.5,9C138.3,65.9,129.1,50.6,109.9,45.1z"/>
	<path fill-rule="evenodd" clip-rule="evenodd" fill="#D9B727" d="M85.8,112.9c8.6-4.7,15.6-10.7,21.3-16.3l4.3-5
		c-0.3-2.2-0.7-4.5-1.3-6.9c-10.7,15.5-27.6,30.9-54.8,36.6C64.9,121.4,77.1,117.6,85.8,112.9z"/>
	<path fill-rule="evenodd" clip-rule="evenodd" fill="#F5949D" d="M111.8,96.9c0,0-12.3,27.6-24.2,35.1c2.4-8.6,7-16,12.7-22.9
		c-8,5.4-16.8,11.5-29.1,14.5c-10.8,2.6-20,2.2-28.5,0.2c-0.4-0.1-1.7-0.6-1.1-0.2c0.9,0.7,3,1.1,4.6,1.6c11.4,3.3,24,3.6,39.8-1.9
		c-2.3,5-3.8,10.4-4.1,16.5C100.9,130.3,112.5,116.9,111.8,96.9z"/>
	<path fill-rule="evenodd" clip-rule="evenodd" fill="#D9B727" d="M39.9,94.9c7.1,6.8,15,11.5,22.1,15.2l6.1,2.6c2-1,4-2.1,6.1-3.4
		c-18.1-5.3-37.9-16.7-51.8-40.8C25.4,77.7,32.8,88.1,39.9,94.9z"/>
	<path fill-rule="evenodd" clip-rule="evenodd" fill="#F5949D" d="M63.2,114.8c0,0-30.1-3.2-40.9-12.1c8.9-0.4,17.4,1.7,25.7,5
		c-7.6-6-16.1-12.4-22.8-23.2c-5.9-9.5-8.2-18.4-9-27c0-0.4,0.1-1.8-0.2-1.1c-0.4,1.1-0.1,3.2-0.1,4.9c0.4,11.8,4,24,14.1,37.2
		c-5.5-0.6-11.1-0.4-17,1.2C28,114.6,44.3,121.6,63.2,114.8z"/>
	<path fill-rule="evenodd" clip-rule="evenodd" fill="#D9B727" d="M42.8,45.7c-4.2,8.8-6.3,17.8-7.6,25.7l-0.6,6.6
		c1.5,1.6,3.2,3.2,5.1,4.8C39.3,64,43.9,41.6,62.6,21C54.7,26.6,47.1,36.8,42.8,45.7z"/>
	<path fill-rule="evenodd" clip-rule="evenodd" fill="#F5949D" d="M31.1,74c0,0-6.3-29.6-1.1-42.6c3.1,8.4,3.7,17.1,3.2,26
		c3.3-9.1,6.8-19.2,15-28.8C55.5,20,63.2,15,71.2,11.6c0.4-0.1,1.7-0.5,1-0.5c-1.2,0-3.1,0.9-4.7,1.4c-11.1,4-21.6,11.2-31.1,24.9
		c-1.1-5.4-3.1-10.7-6.4-15.8C20.4,40.5,18.8,58.2,31.1,74z"/>
	<path fill-rule="evenodd" clip-rule="evenodd" fill="#D9B727" d="M90.5,33.3C80.8,32,71.6,32.8,63.7,34l-6.5,1.5
		c-1.1,2-2,4.1-3,6.3c17.8-6.3,40.5-8.8,65.9,2.6C112.4,38.7,100.3,34.6,90.5,33.3z"/>
	<path fill-rule="evenodd" clip-rule="evenodd" fill="#F5949D" d="M60,30.9c0,0,26.2-15.1,40.2-14.2c-7,5.5-15.1,8.8-23.7,11.1
		c9.7,0.3,20.3,0.6,32,5.4c10.3,4.2,17.5,10,23.1,16.6c0.2,0.3,1,1.5,0.8,0.8c-0.4-1.1-1.8-2.7-2.8-4c-7.3-9.4-17.3-17.1-33.3-21.8
		c4.8-2.7,9.2-6.2,13-11C88.6,10.3,71.2,14.3,60,30.9z"/>
</g>
</svg>
