<?xml version="1.0" encoding="utf-8"?>
<!-- Generator: Adobe Illustrator 18.1.0, SVG Export Plug-In . SVG Version: 6.00 Build 0)  -->
<svg version="1.1" id="Layer_1" xmlns="http://www.w3.org/2000/svg" xmlns:xlink="http://www.w3.org/1999/xlink" x="0px" y="0px"
	 viewBox="0 0 1500 1500" enable-background="new 0 0 1500 1500" xml:space="preserve">
<g>
	<g>
		<path fill="#EAF2B0" d="M1116.9,847.2c0,0-203.9-370.9,0-773.8C1116.9,73.4,1290.1,394,1116.9,847.2z"/>
		<g>
			<path fill="#D5E770" d="M1172.9,242.3c-180.5,232.5-56.1,604.9-56.1,604.9C1214.2,592.6,1202.1,379.9,1172.9,242.3z"/>
			<path fill="#BBDC00" d="M1117.1,846.7c60.4-158.2,78.5-300.1,76.6-418C1071.5,551.4,1114,827.6,1117.1,846.7z"/>
		</g>
	</g>
	<g>
		<path fill="#EAF2B0" d="M1035.4,666.4c0,0-360.5-152.9-442.9-562.5C592.5,103.9,901.9,237.8,1035.4,666.4z"/>
		<g>
			<path fill="#D5E770" d="M737.8,201.4c1.4,236.4,239.1,424.2,289.3,461.2c5.3,2.5,8.3,3.8,8.3,3.8
				C962.3,431.9,836.7,285.8,737.8,201.4z"/>
			<path fill="#BBDC00" d="M858.8,327.2c-11.6,147.4,153.7,316.7,176.3,339.1c0.2,0.1,0.3,0.1,0.3,0.1
				C990.4,521.8,925.3,410.9,858.8,327.2z"/>
		</g>
	</g>
	<g>
		<path fill="#EAF2B0" d="M859.9,574.8c0,0-360.6,98.2-664.1-160.2C195.8,414.6,506.8,332.3,859.9,574.8z"/>
		<g>
			<path fill="#D5E770" d="M859.5,574.5C671.9,445.8,496.2,408.7,372.7,402.2C514.1,573.4,820.8,575,859.5,574.5z"/>
			<path fill="#BBDC00" d="M859.1,574.3C744,495.3,633.4,451,536.7,427C610.5,544,838.3,571.9,859.1,574.3z"/>
		</g>
	</g>
	<g>
		<path fill="#EAF2B0" d="M665.7,611.8c0,0-190.4,256.8-531.2,243.8C134.6,855.7,300.1,635.8,665.7,611.8z"/>
		<g>
			<path fill="#D5E770" d="M665.2,611.9c-189.3,12.5-324.8,77.5-411.6,137.2C441.6,795.5,636.7,636.3,665.2,611.9z"/>
			<path fill="#BBDC00" d="M664.6,611.9c-118.3,7.9-215.4,36.3-292.9,71C482.4,718,642.5,625.2,664.6,611.9z"/>
		</g>
	</g>
	<g>
		<path fill="#EAF2B0" d="M536.4,760.6c0,0,8.1,278.8-232.5,453.8C303.9,1214.4,298.6,974.4,536.4,760.6z"/>
		<g>
			<path fill="#D5E770" d="M329.9,1070.9c138.1-69,195.5-268.6,206-309.9C415.8,869.2,357.9,983.9,329.9,1070.9z"/>
			<path fill="#BBDC00" d="M375.5,963.7c84.4-34.4,145.3-168,159.7-201.9C460.3,829.3,409.7,899.4,375.5,963.7z"/>
		</g>
	</g>
	<g>
		<path fill="#EAF2B0" d="M613.5,1414.5c0,0-153.5-202.1-68-458.9C545.5,955.5,676.4,1130.4,613.5,1414.5z"/>
		<g>
			<path fill="#D5E770" d="M545.3,1274.7c81.3-125.9,5.2-307.1,0.1-318.9C503.9,1080.8,519,1192.7,545.3,1274.7z"/>
			<path fill="#BBDC00" d="M524.1,1180.7c55.5-68.1,25.6-207.5,21.6-224.9c-0.1-0.1-0.2-0.2-0.2-0.2
				C518.1,1037.8,515.3,1114.5,524.1,1180.7z"/>
		</g>
	</g>
	<g>
		<path fill="#EAF2B0" d="M640.2,1117.5c0,0,231.2,48.7,327.5,281.6C967.7,1399.1,769,1355.7,640.2,1117.5z"/>
		<g>
			<path fill="#D5E770" d="M855.2,1349.4c-25.3-129-184.5-215.7-214.5-231.1C706,1238.7,789.1,1309.1,855.2,1349.4z"/>
			<path fill="#BBDC00" d="M774.3,1289.2c-5.4-71.9-98.9-145.5-133.2-170.2C681.4,1193.2,728.6,1248.4,774.3,1289.2z"/>
		</g>
	</g>
	<g>
		<path fill="#EAF2B0" d="M828.6,1173c0,0,188.5-93.2,384.1,16.6C1212.6,1189.5,1049.8,1268.6,828.6,1173z"/>
		<path fill="#D5E770" d="M833.9,1175.2c122.3,51.5,226.3,50,294.2,38.5C1025.3,1122.6,860.2,1167.2,833.9,1175.2z"/>
		<path fill="#BBDC00" d="M835.2,1175.7c72.7,30.5,138.9,42.2,194.9,44.2C972.1,1157.1,852.1,1173.1,835.2,1175.7z"/>
	</g>
	<g>
		<path fill="#EAF2B0" d="M1010.6,1100c0,0,78.2-164.2,269.8-194.2C1280.3,905.9,1212,1046.7,1010.6,1100z"/>
		<g>
			<path fill="#D5E770" d="M1014.3,1099c115-31.4,186-91.1,225.4-135.9C1119.9,960,1026.6,1082.1,1014.3,1099z"/>
			<path fill="#BBDC00" d="M1015.6,1098.6c69.2-19.1,122.4-48.4,162.4-78.5C1105,1009.7,1024.3,1089.7,1015.6,1098.6z"/>
		</g>
	</g>
</g>
</svg>
