<?xml version="1.0" encoding="iso-8859-1"?>
<!-- Generator: Adobe Illustrator 13.0.0, SVG Export Plug-In . SVG Version: 6.00 Build 14948)  -->
<!DOCTYPE svg PUBLIC "-//W3C//DTD SVG 1.1//EN" "http://www.w3.org/Graphics/SVG/1.1/DTD/svg11.dtd">
<svg version="1.1" id="Layer_1" xmlns="http://www.w3.org/2000/svg" xmlns:xlink="http://www.w3.org/1999/xlink" x="0px" y="0px"
	 width="100px" height="100px" viewBox="0 0 100 100" enable-background="new 0 0 100 100" xml:space="preserve">
<g>
	<path fill="#66482A" d="M56.024,93.167l11.813-11.811H56.977v-6.963l2.841-0.26c1.632-0.173,2.491-0.688,2.491-2.836V56.431H37.983
		v17.361l4.985,0.257v7.308h-9.161l11.813,11.811C48.495,96.044,53.15,96.044,56.024,93.167z"/>
	<path fill="#66482A" d="M45.621,11.527L32.957,24.192h10.441v6.962l-2.839,0.257c-1.631,0.173-2.576,0.688-2.576,2.837v13.326
		h24.325V31.758l-4.896-0.259v-7.307h11.277L56.024,11.527C53.15,8.651,48.495,8.651,45.621,11.527z"/>
	<path fill="#DF9234" d="M9.997,57.548l16.256,16.251c0.749-0.328,1.24-0.913,1.24-2.071v-39.97l-1.997-0.105L9.997,47.147
		C7.129,50.021,7.129,54.674,9.997,57.548z"/>
	<path fill="#DF9234" d="M72.882,34.162v39.63l2.395,0.123l16.371-16.367c2.869-2.874,2.869-7.526,0-10.4l-15.779-15.78
		l-0.493,0.044C73.914,31.584,72.882,32.1,72.882,34.162z"/>
</g>
</svg>
