<?xml version="1.0" encoding="utf-8"?>
<!-- Generator: Adobe Illustrator 18.1.0, SVG Export Plug-In . SVG Version: 6.00 Build 0)  -->
<svg version="1.1" id="Layer_1" xmlns="http://www.w3.org/2000/svg" xmlns:xlink="http://www.w3.org/1999/xlink" x="0px" y="0px"
	 viewBox="0 0 150 150" enable-background="new 0 0 150 150" xml:space="preserve">
<g>
	<path fill="#0F87C9" d="M89,94.4l1.3,1l1-1.2l3.3-4.2l2.5-3.2C99,73,87.9,58.9,72.3,59.1c-6.2,2.8-11.9,5.1-17,8
		c0.3,0.2,0.5,0.4,0.8,0.7c0.8,0.6,1.7,1.3,2.6,2.1c0.3-0.2,0.6-0.4,0.9-0.6c8-5,21.2-7.9,27.5,0.9c6.3,8.7,5,16.8,1,23.5L89,94.4z"
		/>
	<path fill="#0F87C9" d="M50.5,74.6l-0.9-0.7l-1,0.6l-3.7,2.1l-2.3,1.3c-0.3,0.4-0.6,0.7-0.9,1.1c-7.1,9.9-11.6,25.1-22.5,31.4
		c0.7,1.5,1.5,2.9,2.5,4.3c12.2-10.9,18.6-27.5,30.1-39L50.5,74.6z"/>
	<path fill="#0F87C9" d="M66.1,118.6c7.5-2.1,15.2-8.2,21-14.4l-4.3-3.5c-1.9,1.9-3.9,3.7-5.8,5.3c-3.1,2.5-6.3,6.7-10.5,7.7
		c-2.7,0.1-5.4,0.2-8,0.3c-6.2,1.1-12,1.9-17,4c-3.7,1.6-6.8,3.6-9.8,5.8c1.7,1,3.5,1.8,5.4,2.4c2.6-1.8,5.3-3.5,8.4-4.8
		C51.1,119.1,59.3,120.5,66.1,118.6z"/>
	<path fill="#0F87C9" d="M74.8,82c0.4,0.7,0.6,0.8,0.8,1.5c1.1,0.9,2.1,1.7,3.1,2.5c1.1-2.1,1.7-4.7,0.4-7.1c-0.4-0.5-0.8-1-1.2-1.6
		c-0.7-0.1-1.4-0.2-2.2-0.3c-1.3,0.7-3,1.7-4.7,2.8c0.9,0.7,1.8,1.5,2.7,2.2H74.8z"/>
	<path fill="#0F87C9" d="M65.8,86.9L63.5,85c-8.3,6.1-16.9,14-18.4,19.9c2.5-1.2,5-2.5,7.4-3.7c3.1,0.1,6.2,0.2,9.3,0.3
		c5.1-1.1,8.8-4.7,11.8-8.3l-2.3-1.9c-2.9,3.7-6.8,6.8-11.3,7.1c-0.6-0.7-1.2-1.4-1.9-2.2C59.7,91.9,62.5,89.2,65.8,86.9z"/>
	<path fill="#0F87C9" d="M61.8,110.2c7-1.5,13.7-6.9,18-12l-3.1-2.5c-4.2,4.6-9.8,8.5-16.8,9.9c-4.7,0.9-7.2-1.7-10.8-0.3
		c-3.9,2.7-7.8,5.4-11.8,8.1h-0.3c1.8-8.1,13.2-22,21.3-29.5c-1.9-0.5-3.3-1.9-3.9-3.7c-8.5,9-13.8,21.2-21.4,31
		c-2.2,2.8-5.7,4.5-8.8,6.6c1.1,1.3,2.4,2.4,3.7,3.5c7.2-5.3,16.7-10.3,21.5-11.6C53.9,108.4,57,111.3,61.8,110.2z"/>
	<path fill="#0F87C9" d="M84.2,90.5c3.6-9.2,3.5-21.7-10-21.5c-3.9,1.8-7.9,2.3-11.4,4.2c1.7,1.3,3.4,2.7,5.1,4.1
		c2.3-1.1,4.6-2.3,6.8-3.4c1.3,0.2,2.7,0.4,4,0.6c5.6,2.6,4.9,8.8,2.8,13.8C83,89.6,84,90.3,84.2,90.5z"/>
	<path fill="#0F87C9" d="M105.4,76.3c-2.9-14.3-14.7-26.1-31.6-26.1c-4.1,0.7-8.3,1.4-12.4,2.2c-9,3.1-17.9,9.8-23.5,16.6l8.1-4.6
		c0.8-0.4,1.8-0.7,2.9-0.6c0.1,0,0.1,0,0.2,0c0.5,0,1.1,0.1,1.6,0.3c2.7-1.9,5.7-3.5,8.8-4.8c15.4-6.6,28.5-4.5,36.2,7.7
		c3.2,5.1,4.7,10.3,4.8,15.4L105.4,76.3z"/>
	<path fill="#0F87C9" d="M30.5,87.9c-0.7,0.4-1.6,0.6-2.4,0.6c-0.7,0-1.4-0.2-2.1-0.4c-2.8,4.5-5.8,8.7-9.7,11.9
		c0.2,1.8,0.5,3.5,0.9,5.1C23.2,100.5,26.8,94.4,30.5,87.9z"/>
	<path fill="#0F87C9" d="M101.1,101.5c1.3-2.2,2.4-4.5,3.1-6.9l-6.2,7.8c-0.1,3-2.5,5.5-5.6,5.5c-0.6,0-1.2-0.1-1.7-0.3
		c-5.8,6.9-13.5,12.1-20.9,14.3c-6.7,2-17.3-0.1-23.2,2.5c-1.7,0.8-3.3,1.8-4.8,2.9c1.6,0.3,3.2,0.4,4.9,0.4h22.5
		C84.3,123.5,94,113.5,101.1,101.5z"/>
	<path fill="#0F87C9" d="M28.8,32.7c-4.4,3.2-8,7.6-10.1,12.8c2.4-3.2,4.8-6.4,7.3-9.5C26.8,34.8,27.7,33.8,28.8,32.7z"/>
	<path fill="#0F87C9" d="M90.9,33.7c9.1,3.5,17.3,8.7,22.6,16.1c1.2,2.1,2.4,4.3,3.7,6.4c-0.1-3.2-0.7-6.3-1.7-9.1
		C109.5,37,96.6,29.7,83.3,26.8H64.2c-3.1,0.4-6.2,0.6-8.9,1.7c-12.1,4.7-32.9,19.7-39.1,35.7v5.1C26.1,47.2,59.6,21.5,90.9,33.7z"
		/>
	<path fill="#0F87C9" d="M113.6,42.9c-2.5-4.6-6.1-8.5-10.4-11.3C107.3,35,110.4,38.7,113.6,42.9z"/>
	<path fill="#0F87C9" d="M35.8,56.3C42.9,50.7,50.3,45,60,42.1c27.3-8.3,45.9,4.9,53.2,24.7l4-4.6C110.7,45,94.4,35,73.6,35.3
		c-5.7,2.2-12.1,1.4-17.3,3.4c-14.8,5.7-25.5,15.1-33.4,27.9c-2.3,3.7-4.9,5.9-6.6,9.3v5.5l3.2-1.9C25,71.9,28.5,62.2,35.8,56.3z"/>
	<path fill="#0F87C9" d="M116.4,82.2c0.9,17.9-8.6,33.6-20.3,44c12.2-4,21.1-15.5,21.1-29V80.7C117,81.3,116.8,81.8,116.4,82.2z"/>
	<path fill="#0F87C9" d="M49.9,26.8h-3.1c-2.2,0-4.3,0.2-6.4,0.7C30.7,34,20.2,43.7,16.5,53.6c-0.2,1.2-0.3,2.5-0.3,3.7v1.5
		c3.3-4.4,6.6-8.9,10-13.3C30.8,39.8,39.5,32.1,49.9,26.8z"/>
	<path fill="#0F87C9" d="M107.3,106.8c4.4-7.4,6.5-15.2,6.7-22.7c-0.5,0.2-1.1,0.3-1.7,0.4l-3.4,4.2c-2.6,16.6-16.1,31.6-28.6,39
		h6.4c0.5,0,1,0,1.4-0.1C96.1,122.2,102.5,115,107.3,106.8z"/>
	<path fill="#0F87C9" d="M108,73.1l2-2.5l1.6-1.9C106.2,53.9,92.3,42.8,72.6,43c-6.4,2.5-13.4,2.1-19.2,4.6
		c-15.2,6.7-20.9,16.5-29.1,29l5.8-3.3c0.4-0.7,0.8-1.5,1.3-2.2c6.6-11,18.2-17.9,32.2-21.7c9.8-2.7,22.3-2.3,29.4,2.5
		c4.7,3.1,8.6,8.4,11.5,13.3C106,67.9,107.2,70.5,108,73.1L108,73.1z"/>
	<path fill="#0F87C9" d="M16.4,92v-4.3c0,0.1-0.1,0.1-0.1,0.2v6.7c1.6-1.5,2.9-3.1,4.2-4.8L16.4,92z"/>
	<g>
		<path fill="#BE3253" d="M135.5,49.1l-4.1,1.7c-0.6,0.2-1.3,0.5-2.1,0.8c-0.7,0.3-1.4,0.6-1.9,0.8l-2.7,1.1l-1.4,0.6
			c-0.9,0.4-1.1,1.1-0.6,1.8c0.1,0.1,0.2,0.2,0.3,0.3l2.6,2l-8.4,9.7l-2.7,3.1l-1.7,1.9l-0.4,0.5c-0.1,0-0.3,0-0.4,0
			c-1.4,0-2.6,0.5-3.6,1.3c-1.2,1-2,2.5-2,4.2c0,0.5,0.1,1.1,0.3,1.6l-0.6,0.7l-5.9,7.4l-4.6,5.8l-2,2.5c-0.2,0-0.4,0-0.6-0.1
			c-0.2,0-0.4-0.1-0.6-0.1c-1.3,0-2.5,0.5-3.4,1.2l-2.4-2l-1.3-1c0,0-0.9-0.7-2.3-1.9c-0.8-0.6-1.7-1.4-2.7-2.2
			c-0.9-0.8-2-1.6-3.1-2.5c-0.8-0.7-1.7-1.4-2.6-2.1c-1.2-1-2.5-2-3.8-3.1c-0.8-0.6-1.5-1.2-2.3-1.9c-1.1-0.9-2.2-1.8-3.3-2.6
			c0,0,0,0,0,0c0-0.1,0-0.3,0-0.4c0-2.1-1.2-3.9-2.9-4.8c-0.8-0.4-1.7-0.7-2.7-0.7c-0.6,0-1.1,0.1-1.6,0.3c-0.3-0.3-0.6-0.5-0.9-0.7
			c-0.3-0.2-0.6-0.5-0.8-0.7c-1.9-1.6-3.1-2.5-3.1-2.5c-0.2-0.1-0.4-0.3-0.6-0.4c-0.6-0.3-1.5-0.6-2.3-0.6c-0.1,0-0.2,0-0.2,0
			c-1.1,0-2.1,0.2-2.9,0.6l-5.6,3.2l-9.3,5.3l-1.6,0.9c-0.8-0.5-1.7-0.7-2.7-0.7c-0.1,0-0.1,0-0.2,0c-3,0.1-5.3,2.5-5.4,5.4
			l-4.5,2.6l-1.7,1v0.6v0.7V92l4-2.2l4.4-2.4c0.4,0.3,0.8,0.5,1.2,0.7c0.6,0.3,1.3,0.4,2.1,0.4c0.9,0,1.7-0.2,2.4-0.6
			c1.9-0.9,3.1-2.8,3.1-5c0-0.1,0-0.2,0-0.3l8.9-4.8l2.3-1.3l3.7-2.1l1-0.6l0.9,0.7l1.3,1.1l1.9,1.5l0.5,0.4c0,0.3-0.1,0.5-0.1,0.8
			c0,0.6,0.1,1.2,0.3,1.7c0.6,1.8,2.1,3.2,3.9,3.7c0.4,0.1,0.9,0.2,1.3,0.2c0.7,0,1.3-0.1,2-0.4l1.8,1.5l2.3,1.8l5.5,4.5l2.3,1.9
			l3.1,2.5l3.1,2.5l3,2.4l4.3,3.5l0.1,0.1c0.6,1.6,1.9,2.9,3.5,3.5c0.5,0.2,1.1,0.3,1.7,0.3c3,0,5.5-2.4,5.6-5.5l6.2-7.8l4.7-5.9
			l3.4-4.2c0.6,0,1.2-0.2,1.7-0.4c1-0.4,1.8-1,2.4-1.9c0.3-0.5,0.6-1,0.8-1.5c0.2-0.6,0.3-1.1,0.3-1.8c0-0.3,0-0.6-0.1-0.9
			l12.9-16.2l3.2,2.4c0.9,0.7,1.8,0.3,2-0.8L136,59c0.2-1.2,0.4-3.1,0.6-4.2l0.6-4.4C137.3,49.2,136.5,48.6,135.5,49.1z M112,82.1
			c-0.7,0-1.3-0.2-1.9-0.6c-0.3-0.2-0.6-0.5-0.8-0.8c-0.4-0.5-0.6-1.1-0.6-1.8c0-0.4,0.1-0.8,0.2-1.2c0.5-1.2,1.6-2,2.9-2
			c0.6,0,1.1,0.2,1.5,0.4c0.2,0.1,0.4,0.2,0.5,0.4c0.7,0.6,1.1,1.4,1.1,2.4c0,1-0.4,1.8-1.1,2.4C113.4,81.8,112.7,82.1,112,82.1z
			 M92.5,105.6C92.5,105.6,92.5,105.6,92.5,105.6c-1.8,0-3.2-1.4-3.2-3.2c0-0.2,0-0.4,0.1-0.6c0-0.1,0-0.2,0.1-0.3
			c0.2-0.9,0.8-1.6,1.6-2c0.4-0.2,0.9-0.4,1.4-0.4c1,0,2,0.5,2.5,1.3c0.2,0.2,0.3,0.4,0.4,0.7c0.2,0.4,0.2,0.8,0.2,1.2
			C95.7,104.2,94.2,105.6,92.5,105.6z M56.6,78c0.1-0.6,0.3-1.2,0.7-1.6c0.6-0.7,1.5-1.2,2.4-1.2c0.1,0,0.1,0,0.2,0
			c1.7,0.1,3,1.5,3,3.2c0,0.7-0.3,1.4-0.7,2c-0.6,0.7-1.5,1.2-2.5,1.2c-1.8,0-3.2-1.4-3.2-3.2C56.5,78.2,56.6,78.1,56.6,78z
			 M24.9,82.9c0,0,0-0.1,0-0.1c0-0.2,0-0.4,0.1-0.5c0.2-0.8,0.7-1.5,1.3-2c0.5-0.3,1.1-0.5,1.8-0.5c0.4,0,0.8,0.1,1.1,0.2
			c0.4,0.2,0.8,0.4,1.1,0.7c0.6,0.6,0.9,1.4,0.9,2.3c0,1.8-1.4,3.2-3.2,3.2c-0.3,0-0.6,0-0.8-0.1C25.9,85.6,24.9,84.4,24.9,82.9z"/>
	</g>
</g>
</svg>
