<?xml version="1.0" encoding="utf-8"?>
<!-- Generator: Adobe Illustrator 18.1.0, SVG Export Plug-In . SVG Version: 6.00 Build 0)  -->
<svg version="1.1" id="Layer_1" xmlns="http://www.w3.org/2000/svg" xmlns:xlink="http://www.w3.org/1999/xlink" x="0px" y="0px"
	 viewBox="0 0 150 150" enable-background="new 0 0 150 150" xml:space="preserve">
<g>
	<path fill="none" d="M117.8,25.9c15.9,9.8,20.9,30.7,11.1,46.5c-0.1,0.2-0.2,0.3-0.3,0.4c12.4-26.1-10.3-50.4-33.9-51.6
		C102.5,20,110.6,21.5,117.8,25.9z"/>
	<path fill="#B3B4B4" d="M128.6,72.8c0.1-0.1,0.2-0.3,0.3-0.4c9.8-15.9,4.8-36.7-11.1-46.5c-7.2-4.4-15.4-5.8-23.1-4.6
		C118.3,22.5,141,46.7,128.6,72.8z"/>
	<path fill="#E95334" d="M64,21.2c-2.7,0.2-5.5,0.6-8.3,1.2C45.4,24.5,33.5,31,32.2,42.2c-9.9-1.4-21.8,4.8-25.4,13.8
		c-1.7,4.3-1.6,8.5-0.4,12.9c0.8,2.7,3.2,6.1,6.1,4.1c0.4,0.3,1.1,0.3,1.2-0.4c2.1-9,7.6-14.1,16.9-15.1
		c10.7-1.2,12.6,7.6,15.3,15.4c0.2,0.5,0.5,0.8,0.8,1c0.1,0.4,0.4,0.7,0.9,0.8c1.4,0.3,2.7,0.4,4.1,0.5c-2.3-5.7-3.6-11.8-3.6-18.3
		C48.1,42.7,54.2,30,64,21.2z"/>
	<path fill="#E95334" d="M119.9,62.2C117,49,110.5,34.2,99.1,26.2c-5.3-3.7-11-6.1-16.8-7.5c-15.6,5.7-26.7,20.7-26.7,38.2
		c0,7.6,2.1,14.7,5.7,20.8c4.4,0.1,8.9,0.9,13.3,0.4c1-0.1,2-0.8,2-2c0-0.7-0.1-1.3-0.1-1.9c0.9-7.4,0.9-8.7,8.4-13.4
		c3.9-1.9,8.6-2.3,13.1-1.6c6.8,2.3,12.8,8.8,13.9,15.4c0.2,1.2,1,1.7,1.8,1.8c0.4,0.3,0.9,0.4,1.5,0.5
		C122.9,77.2,120.9,67.1,119.9,62.2z"/>
	<path fill="#034A64" d="M96.3,8.7c-10.1,0-19.5,3.1-27.2,8.4c-1.8,1.2-3.5,2.6-5.1,4C54.2,30,48.1,42.7,48.1,56.9
		c0,6.5,1.3,12.7,3.6,18.3c0.4,0.9,0.8,1.9,1.2,2.8c2.8,5.8,6.8,10.9,11.5,15.1c0.5,0.5,0.9,1.1,1.4,1.5c-0.1,0.1-0.2,0.2-0.3,0.4
		l-2.6,3.7c-0.1,0.2-0.2,0.3-0.3,0.5l-0.3-0.2c-1.3-0.9-3.1-0.6-4,0.7l-25.2,36.5c-0.9,1.3-0.6,3.1,0.7,4l8.9,6.1
		c1.3,0.9,3.1,0.6,4-0.7l25.2-36.5c0.9-1.3,0.6-3.1-0.7-4l-0.3-0.2c0.1-0.1,0.3-0.3,0.4-0.4l2.6-3.7c0.1-0.1,0.2-0.3,0.2-0.4
		c1.9,0.9,3.9,1.5,5.9,1.9c5,1.8,10.4,2.8,16.1,2.8c26.6,0,48.2-21.6,48.2-48.2C144.4,30.3,122.9,8.7,96.3,8.7z M96.3,97.6
		c-14.9,0-27.9-8-35-20c-3.6-6.1-5.7-13.2-5.7-20.8c0-17.5,11.1-32.5,26.7-38.2c4.4-1.6,9.1-2.5,14-2.5c22.5,0,40.7,18.3,40.7,40.7
		S118.8,97.6,96.3,97.6z"/>
	<g>
		<path fill="#034A64" d="M29.6,86.6c-7.1,0-12.8-5.7-12.8-12.8S22.6,61,29.6,61c7.1,0,12.8,5.7,12.8,12.8S36.7,86.6,29.6,86.6z
			 M29.6,65c-4.8,0-8.8,3.9-8.8,8.8c0,4.8,3.9,8.8,8.8,8.8c4.8,0,8.8-3.9,8.8-8.8C38.4,68.9,34.5,65,29.6,65z"/>
	</g>
	<g>
		<path fill="#034A64" d="M93.6,86.6c-7.1,0-12.8-5.7-12.8-12.8S86.6,61,93.6,61c7.1,0,12.8,5.7,12.8,12.8S100.7,86.6,93.6,86.6z
			 M93.6,65c-4.8,0-8.8,3.9-8.8,8.8c0,4.8,3.9,8.8,8.8,8.8c4.8,0,8.8-3.9,8.8-8.8C102.4,68.9,98.5,65,93.6,65z"/>
	</g>
</g>
</svg>
