<?xml version="1.0" encoding="utf-8"?>
<!-- Generator: Adobe Illustrator 18.1.0, SVG Export Plug-In . SVG Version: 6.00 Build 0)  -->
<svg version="1.1" id="Layer_1" xmlns="http://www.w3.org/2000/svg" xmlns:xlink="http://www.w3.org/1999/xlink" x="0px" y="0px"
	 viewBox="0 0 150 150" enable-background="new 0 0 150 150" xml:space="preserve">
<g>
	<path fill="#00A9DE" d="M51.1,95.4c0.2-0.2,0.4-0.4,0.6-0.6C51.5,95,51.3,95.2,51.1,95.4z"/>
	<path fill="#00A9DE" d="M118.3,88c0,0.4,0.1,0.7,0.1,1.1C118.3,88.7,118.3,88.4,118.3,88z"/>
	<path fill="#00A9DE" d="M117.9,85.2c0.1,0.4,0.1,0.7,0.2,1.1C118,85.9,118,85.6,117.9,85.2z"/>
	<path fill="#00A9DE" d="M56.3,90.9c0.1-0.1,0.3-0.2,0.4-0.3C56.6,90.7,56.5,90.8,56.3,90.9z"/>
	<path fill="#00A9DE" d="M116.6,106.2C116.6,106.2,116.6,106.2,116.6,106.2c-0.1,0.4-0.1,0.7-0.2,1c0.1-0.4,0.2-0.8,0.3-1.3
		C116.7,106,116.7,106.1,116.6,106.2L116.6,106.2z"/>
	<path fill="#00A9DE" d="M114.8,78.6c-1.1-1.4-2.6-2.8-4.3-4.2C112.2,75.8,113.7,77.2,114.8,78.6z"/>
	<path fill="#00A9DE" d="M115.5,79.6c0.2,0.3,0.4,0.6,0.6,0.8C115.9,80.1,115.7,79.8,115.5,79.6z"/>
	<path fill="#00A9DE" d="M116.1,80.4c0.2,0.3,0.3,0.6,0.5,0.9C116.4,81,116.3,80.7,116.1,80.4z"/>
	<path fill="#00A9DE" d="M51.8,94.7c0.2-0.2,0.4-0.4,0.6-0.6C52.2,94.3,52,94.5,51.8,94.7z"/>
	<path fill="#00A9DE" d="M114.8,78.7c0.2,0.3,0.4,0.6,0.6,0.8C115.3,79.2,115.1,78.9,114.8,78.7z"/>
	<path fill="#00A9DE" d="M118.4,92.8c0,0.4,0,0.8,0,1.2C118.4,93.6,118.4,93.2,118.4,92.8z"/>
	<path fill="#00A9DE" d="M118.3,94.6c0,0.4-0.1,0.8-0.1,1.2C118.3,95.3,118.3,95,118.3,94.6z"/>
	<path fill="#00A9DE" d="M52.5,94c0.6-0.6,1.3-1.2,1.9-1.7C53.8,92.8,53.2,93.4,52.5,94z"/>
	<path fill="#00A9DE" d="M54.7,92.1c0.2-0.1,0.3-0.2,0.5-0.4C55,91.9,54.9,92,54.7,92.1z"/>
	<path fill="#00A9DE" d="M118.4,91.1c0,0.4,0,0.8,0,1.1C118.4,91.9,118.4,91.5,118.4,91.1z"/>
	<path fill="#00A9DE" d="M118.4,89.5c0,0.4,0,0.7,0,1.1C118.4,90.3,118.4,89.9,118.4,89.5z"/>
	<path fill="#00A9DE" d="M55.5,91.5c0.1-0.1,0.3-0.2,0.4-0.3C55.8,91.3,55.7,91.4,55.5,91.5z"/>
	<path fill="#00A9DE" d="M118.1,86.6c0,0.4,0.1,0.7,0.1,1.1C118.2,87.3,118.2,86.9,118.1,86.6z"/>
	<path fill="#00A9DE" d="M60.6,88.5c0.3-0.1,0.5-0.2,0.8-0.3C61.1,88.3,60.8,88.4,60.6,88.5z"/>
	<path fill="#00A9DE" d="M61.6,88.2c0.2,0,0.4-0.1,0.6-0.1C62,88.1,61.8,88.2,61.6,88.2z"/>
	<path fill="#00A9DE" d="M59.6,89c0.1,0,0.2-0.1,0.3-0.1C59.7,88.9,59.7,88.9,59.6,89z"/>
	<path fill="#00A9DE" d="M58.8,89.4c0.1-0.1,0.2-0.1,0.3-0.2C59,89.3,58.9,89.4,58.8,89.4z"/>
	<path fill="#00A9DE" d="M66,88.4c0.6,0.2,1.3,0.4,2,0.7C67.3,88.8,66.6,88.6,66,88.4z"/>
	<path fill="#00A9DE" d="M58,89.9c0.1-0.1,0.2-0.1,0.3-0.2C58.2,89.7,58.1,89.8,58,89.9z"/>
	<path fill="#00A9DE" d="M62.4,88.1c0.2,0,0.4,0,0.7,0C62.9,88,62.6,88.1,62.4,88.1z"/>
	<path fill="#00A9DE" d="M63.3,88.1c0.2,0,0.5,0,0.7,0C63.8,88.1,63.5,88.1,63.3,88.1z"/>
	<path fill="#00A9DE" d="M101.2,68.5c0.2,0.1,0.4,0.2,0.5,0.3C101.6,68.7,101.4,68.6,101.2,68.5z"/>
	<path fill="#00A9DE" d="M57.2,90.4c0.1-0.1,0.2-0.2,0.4-0.2C57.4,90.2,57.3,90.3,57.2,90.4z"/>
	<path fill="#00A9DE" d="M107.1,71.9c0.2,0.2,0.5,0.3,0.7,0.5C107.5,72.2,107.3,72.1,107.1,71.9z"/>
	<path fill="#00A9DE" d="M108.3,72.8c0.2,0.2,0.5,0.3,0.7,0.5C108.8,73.1,108.6,72.9,108.3,72.8z"/>
	<path fill="#00A9DE" d="M105.7,71c0.2,0.1,0.4,0.3,0.7,0.4C106.2,71.3,105.9,71.2,105.7,71z"/>
	<path fill="#00A9DE" d="M104.3,70.2c0.2,0.1,0.4,0.3,0.7,0.4C104.7,70.4,104.5,70.3,104.3,70.2z"/>
	<path fill="#00A9DE" d="M109.5,73.6c0.3,0.2,0.5,0.4,0.7,0.6C110,74,109.8,73.8,109.5,73.6z"/>
	<path fill="#00A9DE" d="M102.8,69.3c0.2,0.1,0.4,0.2,0.6,0.3C103.2,69.6,103,69.5,102.8,69.3z"/>
	<path fill="#00A9DE" d="M111.3,122.3c-0.1,0.3-0.2,0.5-0.4,0.8C111.1,122.8,111.2,122.6,111.3,122.3z"/>
	<path fill="#00A9DE" d="M112.9,118.7c-0.1,0.3-0.2,0.6-0.3,0.8C112.7,119.3,112.8,119,112.9,118.7z"/>
	<path fill="#00A9DE" d="M65,88.2c-0.1,0-0.3,0-0.4-0.1c0,0,0.1,0,0.1,0C64.7,88.2,64.8,88.2,65,88.2z"/>
	<path fill="#00A9DE" d="M110.1,124.8c0.1-0.2,0.2-0.4,0.3-0.7c0,0.1-0.1,0.1-0.1,0.2C110.3,124.4,110.2,124.6,110.1,124.8z"/>
	<path fill="#00A9DE" d="M105.7,131.4c-0.1,0.2-0.3,0.3-0.4,0.5C105.5,131.7,105.6,131.5,105.7,131.4z"/>
	<path fill="#00A9DE" d="M113.3,117.6c0.1-0.2,0.2-0.5,0.3-0.7C113.5,117.1,113.4,117.3,113.3,117.6
		C113.3,117.5,113.3,117.6,113.3,117.6z"/>
	<path fill="#00A9DE" d="M65.9,88.4C65.9,88.4,65.9,88.4,65.9,88.4C65.9,88.4,65.9,88.4,65.9,88.4c-0.3-0.1-0.6-0.1-0.9-0.2
		C65.3,88.3,65.6,88.3,65.9,88.4C65.9,88.4,65.9,88.4,65.9,88.4z"/>
	<path fill="#00A9DE" d="M103.1,134c0.1-0.1,0.2-0.1,0.3-0.2c0,0,0,0,0,0C103.3,133.8,103.2,133.9,103.1,134z"/>
	<path fill="#00A9DE" d="M112.1,120.5c-0.1,0.3-0.2,0.5-0.4,0.8C111.9,121.1,112,120.8,112.1,120.5z"/>
	<path fill="#00A9DE" d="M106.8,130.1c-0.1,0.2-0.3,0.4-0.4,0.6C106.5,130.5,106.6,130.3,106.8,130.1z"/>
	<path fill="#00A9DE" d="M43.6,113.4c0,0,0,0.1,0,0.1C43.6,113.5,43.6,113.5,43.6,113.4C43.6,113.4,43.6,113.4,43.6,113.4z"/>
	<path fill="#00A9DE" d="M43.5,112L43.5,112c-0.1-5,2.5-10.7,6.1-15c-3.8,4.6-6.6,10.4-6,16.3c0-0.4-0.1-0.8-0.1-1.2
		C43.5,112.1,43.5,112,43.5,112z"/>
	<path fill="#00A9DE" d="M107.3,129.3c0.1-0.2,0.3-0.4,0.4-0.6C107.6,128.9,107.5,129.1,107.3,129.3
		C107.4,129.3,107.4,129.3,107.3,129.3z"/>
	<path fill="#00A9DE" d="M102,134.8c0,0,0.1-0.1,0.1-0.1c0,0,0,0,0,0C102.1,134.7,102,134.8,102,134.8z"/>
	<path fill="#00A9DE" d="M64.5,88.1c-0.1,0-0.2,0-0.3,0C64.2,88.1,64.3,88.1,64.5,88.1C64.4,88.1,64.4,88.1,64.5,88.1z"/>
	<path fill="#00A9DE" d="M104.2,133c0.1-0.1,0.2-0.3,0.4-0.4c0,0,0,0,0,0C104.5,132.7,104.4,132.9,104.2,133z"/>
	<path fill="#00A9DE" d="M109.3,126.2c0,0.1-0.1,0.1-0.1,0.2c0.1-0.2,0.3-0.5,0.4-0.7c0,0,0,0,0,0.1
		C109.5,125.9,109.4,126,109.3,126.2z"/>
	<path fill="#00A9DE" d="M108.4,127.7c0.1-0.2,0.2-0.3,0.3-0.5c0,0.1-0.1,0.2-0.1,0.2C108.5,127.5,108.5,127.6,108.4,127.7z"/>
	<path fill="#00A9DE" d="M44.5,117.5c-0.2-0.4-0.3-0.9-0.4-1.3C44.2,116.7,44.4,117.1,44.5,117.5z"/>
	<path fill="#00A9DE" d="M113.9,115.8c0-0.1,0.1-0.2,0.1-0.4c0,0,0,0.1,0,0.1C114,115.7,114,115.8,113.9,115.8z"/>
	<path fill="#00A9DE" d="M66.1,87.9c0.1,0.1,0.2,0.1,0.3,0.2c-0.1,0-0.1-0.1-0.2-0.1C66.1,88,66.1,87.9,66.1,87.9z"/>
	<path fill="#00A9DE" d="M117.4,102c-0.1,0.4-0.1,0.8-0.2,1.2C117.3,102.8,117.4,102.4,117.4,102z"/>
	<path fill="#00A9DE" d="M43.8,114.8c-0.1-0.4-0.1-0.8-0.2-1.2C43.6,114,43.7,114.4,43.8,114.8z"/>
	<path fill="#00A9DE" d="M117.7,100.1c-0.1,0.4-0.1,0.8-0.2,1.2C117.6,100.9,117.7,100.5,117.7,100.1z"/>
	<path fill="#00A9DE" d="M50.4,96.2c0.2-0.2,0.4-0.4,0.6-0.6C50.7,95.8,50.6,96,50.4,96.2z"/>
	<path fill="#00A9DE" d="M49.6,97.1c0.2-0.2,0.4-0.5,0.6-0.7C50,96.6,49.8,96.8,49.6,97.1z"/>
	<path fill="#00A9DE" d="M118,98.2c0,0.4-0.1,0.8-0.2,1.2C117.9,99,117.9,98.6,118,98.2z"/>
	<path fill="#00A9DE" d="M117.1,103.9c-0.1,0.4-0.2,0.8-0.2,1.3C116.9,104.8,117,104.4,117.1,103.9z"/>
	<path fill="#00A9DE" d="M116.1,108.5c0,0.2-0.1,0.4-0.1,0.6c0.1-0.4,0.2-0.9,0.3-1.3C116.2,108,116.2,108.3,116.1,108.5
		C116.1,108.5,116.1,108.5,116.1,108.5z"/>
	<path fill="#00A9DE" d="M114.9,113c-0.1,0.3-0.2,0.7-0.3,1C114.7,113.6,114.8,113.3,114.9,113z"/>
	<path fill="#00A9DE" d="M114.1,115.5c0.1-0.2,0.1-0.4,0.2-0.5C114.2,115.1,114.2,115.2,114.1,115.5
		C114.1,115.4,114.1,115.4,114.1,115.5z"/>
	<path fill="#00A9DE" d="M115.8,109.6c-0.2,0.9-0.5,1.8-0.8,2.7C115.4,111.4,115.6,110.5,115.8,109.6z"/>
	<path fill="#00A9DE" d="M118.2,96.4c0,0.4-0.1,0.8-0.1,1.2C118.1,97.2,118.1,96.8,118.2,96.4z"/>
	<path fill="#00A9DE" d="M44.1,116c-0.1-0.4-0.2-0.7-0.3-1.1C43.9,115.3,44,115.7,44.1,116z"/>
	<path fill="#00A9DE" d="M67.1,88.6C67.1,88.6,67.1,88.6,67.1,88.6C67.1,88.6,67,88.5,67.1,88.6c-0.2-0.1-0.3-0.2-0.4-0.2
		c0.4,0.3,0.8,0.5,1.2,0.8c0,0,0,0,0,0C67.6,88.9,67.4,88.7,67.1,88.6z"/>
	<path fill="#00A9DE" d="M74.2,89.1c-8.2,8.9-18,18-27.7,23l39.1-3.3c12.6-6.6,24.6-14.6,32.3-23.5c-0.2-0.8-0.4-1.6-0.6-2.3
		c-0.2-0.5-0.4-1.1-0.7-1.6C106.2,85.3,90.9,89.5,74.2,89.1z"/>
	<path fill="#00A9DE" d="M22.7,103.5c-0.2,0-0.5-0.1-0.7-0.1C22.2,103.4,22.4,103.5,22.7,103.5z"/>
	<path fill="#00A9DE" d="M31,91c0.3,0.4,0.5,0.8,0.8,1.2C31.6,91.8,31.3,91.4,31,91z"/>
	<path fill="#00A9DE" d="M29.2,88.6c0.3,0.4,0.6,0.7,0.9,1.1C29.8,89.3,29.5,89,29.2,88.6z"/>
	<path fill="#00A9DE" d="M30.2,89.8c0.3,0.4,0.6,0.8,0.8,1.1C30.7,90.6,30.4,90.2,30.2,89.8z"/>
	<path fill="#00A9DE" d="M31.8,92.2c0.3,0.4,0.5,0.8,0.7,1.2C32.3,93,32,92.6,31.8,92.2z"/>
	<path fill="#00A9DE" d="M21.9,103.4c-0.6-0.1-1.2-0.2-1.7-0.4C20.8,103.2,21.3,103.3,21.9,103.4z"/>
	<path fill="#00A9DE" d="M22.1,83.5c0.3,0.1,0.6,0.2,0.9,0.3C22.7,83.7,22.4,83.6,22.1,83.5z"/>
	<path fill="#00A9DE" d="M27.1,86.4c0.3,0.3,0.7,0.6,1,1C27.8,87.1,27.5,86.7,27.1,86.4z"/>
	<path fill="#00A9DE" d="M26,85.5c0.4,0.3,0.7,0.6,1.1,0.9C26.7,86,26.4,85.7,26,85.5z"/>
	<path fill="#00A9DE" d="M28.2,87.5c0.3,0.3,0.6,0.7,0.9,1C28.8,88.2,28.5,87.8,28.2,87.5z"/>
	<path fill="#00A9DE" d="M35.3,98.8c0,0.1,0.1,0.2,0.1,0.3C35.3,99.1,35.3,99,35.3,98.8z"/>
	<path fill="#00A9DE" d="M26,85.5c-0.6-0.5-1.2-0.9-1.9-1.2c0,0,0,0,0,0C24.7,84.6,25.4,85,26,85.5z"/>
	<path fill="#00A9DE" d="M24.1,84.3c-0.2-0.1-0.3-0.2-0.5-0.2c0.1,0,0.1,0.1,0.2,0.1C23.9,84.2,24,84.2,24.1,84.3z"/>
	<path fill="#00A9DE" d="M25.2,103.7c0.3,0,0.7,0,1,0C25.9,103.7,25.5,103.7,25.2,103.7z"/>
	<path fill="#00A9DE" d="M23.6,84c-0.1-0.1-0.2-0.1-0.3-0.1C23.3,83.9,23.5,84,23.6,84L23.6,84z"/>
	<path fill="#00A9DE" d="M34.7,97.6c0.1,0.2,0.2,0.4,0.3,0.6C34.9,98,34.8,97.8,34.7,97.6z"/>
	<path fill="#00A9DE" d="M34.3,96.7c0.1,0.3,0.2,0.5,0.3,0.7C34.5,97.2,34.4,97,34.3,96.7z"/>
	<path fill="#00A9DE" d="M33.2,94.6c0.2,0.3,0.4,0.7,0.5,1C33.6,95.2,33.4,94.9,33.2,94.6z"/>
	<path fill="#00A9DE" d="M35,98.3c0.1,0.2,0.1,0.3,0.2,0.4C35.2,98.6,35.1,98.5,35,98.3z"/>
	<path fill="#00A9DE" d="M32.5,93.4c0.2,0.4,0.4,0.7,0.6,1.1C32.9,94.1,32.7,93.8,32.5,93.4z"/>
	<path fill="#00A9DE" d="M33.8,95.7c0.2,0.3,0.3,0.6,0.4,0.8C34.1,96.3,33.9,96,33.8,95.7z"/>
	<path fill="#00A9DE" d="M31.9,102.6c-0.1,0-0.2,0.1-0.3,0.1C31.7,102.7,31.8,102.6,31.9,102.6z"/>
	<path fill="#00A9DE" d="M30.6,103.1c-0.1,0-0.1,0-0.2,0.1C30.5,103.1,30.5,103.1,30.6,103.1z"/>
	<path fill="#00A9DE" d="M33,102.1c-0.1,0.1-0.2,0.1-0.4,0.2C32.7,102.2,32.9,102.2,33,102.1z"/>
	<path fill="#00A9DE" d="M34,101.5c-0.1,0.1-0.2,0.1-0.3,0.2C33.8,101.6,33.9,101.6,34,101.5z"/>
	<path fill="#00A9DE" d="M23.7,103.6c-0.2,0-0.5,0-0.7-0.1C23.2,103.6,23.5,103.6,23.7,103.6z"/>
	<path fill="#00A9DE" d="M24.7,103.7c-0.2,0-0.4,0-0.7,0C24.3,103.7,24.5,103.7,24.7,103.7z"/>
	<path fill="#00A9DE" d="M27.3,103.7c-0.2,0-0.3,0-0.5,0C27,103.7,27.1,103.7,27.3,103.7z"/>
	<path fill="#00A9DE" d="M28.4,103.5c-0.2,0-0.3,0-0.5,0.1C28.1,103.6,28.2,103.6,28.4,103.5z"/>
	<path fill="#00A9DE" d="M29.5,103.3c-0.1,0-0.3,0.1-0.4,0.1C29.2,103.4,29.3,103.4,29.5,103.3z"/>
	<path fill="#00A9DE" d="M23.5,84.6c-5.7,3.1-10.9,6.1-15.3,8.7c0-0.2-0.1-0.4-0.1-0.7c0.4,3.6,3.7,7.1,8.8,9.3
		c1,0.4,2.1,0.8,3.3,1.1L23.5,84.6z"/>
	<path fill="#00A9DE" d="M85.4,38.8c0,0.4,0,0.8,0,1.2C85.5,39.6,85.5,39.2,85.4,38.8z"/>
	<path fill="#00A9DE" d="M85.3,35.4c0,0.4,0,0.9,0,1.3C85.4,36.3,85.4,35.9,85.3,35.4z"/>
	<path fill="#00A9DE" d="M85.2,31.6c0-0.1,0-0.2,0-0.3c0,0,0,0.1,0,0.1C85.2,31.5,85.2,31.5,85.2,31.6z"/>
	<path fill="#00A9DE" d="M85.5,50.3c0,0.7-0.1,1.3-0.1,1.9C85.4,51.6,85.4,51,85.5,50.3z"/>
	<path fill="#00A9DE" d="M85.2,32c0,0.4,0,0.8,0.1,1.2C85.2,32.8,85.2,32.4,85.2,32z"/>
	<path fill="#00A9DE" d="M85.4,37.2c0,0.4,0,0.8,0,1.2C85.4,38,85.4,37.6,85.4,37.2z"/>
	<path fill="#00A9DE" d="M85,28.4c0,0.5,0.1,1,0.1,1.5C85.1,29.3,85,28.9,85,28.4z"/>
	<path fill="#00A9DE" d="M85.2,31.3c0-0.3,0-0.7-0.1-1c0,0.3,0,0.6,0,0.9C85.1,31.2,85.2,31.2,85.2,31.3z"/>
	<path fill="#00A9DE" d="M85.3,34.9c0-0.2,0-0.5,0-0.7c0,0,0,0,0,0C85.3,34.5,85.3,34.7,85.3,34.9z"/>
	<path fill="#00A9DE" d="M85.3,34.1c0-0.1,0-0.2,0-0.4C85.3,33.9,85.3,34,85.3,34.1C85.3,34.1,85.3,34.1,85.3,34.1z"/>
	<path fill="#00A9DE" d="M85.5,40.5c0,0.4,0,0.9,0,1.3C85.5,41.3,85.5,40.9,85.5,40.5z"/>
	<path fill="#00A9DE" d="M85.2,53.7c0,0.2-0.1,0.3-0.1,0.4C85.1,54,85.2,53.9,85.2,53.7z"/>
	<path fill="#00A9DE" d="M85.5,46.5c0,0.9,0,1.7,0,2.5C85.5,48.3,85.5,47.4,85.5,46.5z"/>
	<path fill="#00A9DE" d="M85.5,49.1c0,0.4,0,0.8,0,1.1C85.5,49.8,85.5,49.5,85.5,49.1z"/>
	<path fill="#00A9DE" d="M85.5,45.1c0,0.4,0,0.9,0,1.3C85.5,46,85.5,45.5,85.5,45.1z"/>
	<path fill="#00A9DE" d="M85.5,42.1c0,0.5,0,0.9,0,1.4C85.5,43,85.5,42.6,85.5,42.1z"/>
	<path fill="#00A9DE" d="M85.5,43.5c0,0.5,0,0.9,0,1.4C85.5,44.4,85.5,44,85.5,43.5z"/>
	<path fill="#00A9DE" d="M83.8,53l1.5,0.1c0,0.2,0,0.4-0.1,0.6c0.1-0.4,0.1-0.9,0.2-1.5C84.8,52.4,84.3,52.7,83.8,53z"/>
	<path fill="#00A9DE" d="M104.4,60.3c-0.3,0.6-0.4,1.1-0.5,1.2C104,61.4,104.1,61,104.4,60.3z"/>
	<path fill="#00A9DE" d="M114.9,30.9c0-0.2,0.1-0.3,0.1-0.5c0,0,0,0.1,0,0.1C115,30.7,115,30.8,114.9,30.9z"/>
	<path fill="#00A9DE" d="M105.9,11.4C105.9,11.4,105.9,11.4,105.9,11.4C105.9,11.5,105.9,11.4,105.9,11.4
		C105.9,11.4,105.9,11.4,105.9,11.4z"/>
	<path fill="#00A9DE" d="M104.7,59.6c-0.1,0.2-0.2,0.4-0.2,0.6C104.5,60,104.6,59.8,104.7,59.6z"/>
	<path fill="#00A9DE" d="M112.5,38.5C112.5,38.5,112.5,38.5,112.5,38.5C112.5,38.6,112.5,38.6,112.5,38.5c-0.3,1-0.6,1.9-0.9,2.7
		c0.4-1.2,0.8-2.3,1.2-3.5c-0.1,0.2-0.1,0.4-0.2,0.7C112.5,38.4,112.5,38.4,112.5,38.5z"/>
	<path fill="#00A9DE" d="M101,26.9c0,0.1-0.1,0.3-0.1,0.4c0,0,0-0.1,0-0.1C100.9,27.1,101,27,101,26.9z"/>
	<path fill="#00A9DE" d="M105.6,11.9C105.6,11.9,105.6,11.8,105.6,11.9C105.6,11.8,105.6,11.9,105.6,11.9z"/>
	<path fill="#00A9DE" d="M105,58.7c-0.1,0.3-0.2,0.5-0.3,0.7C104.8,59.2,104.9,59,105,58.7z"/>
	<path fill="#00A9DE" d="M105.2,12.4c0,0,0-0.1,0.1-0.1C105.3,12.3,105.3,12.4,105.2,12.4z"/>
	<path fill="#00A9DE" d="M116.5,25C116.5,25,116.5,25,116.5,25C116.5,25,116.5,25,116.5,25z"/>
	<path fill="#00A9DE" d="M105,13C105,13,105,13,105,13C104.9,13,104.9,13.1,105,13C104.9,13.1,104.9,13.1,105,13
		C104.9,13.1,104.9,13,105,13z"/>
	<path fill="#00A9DE" d="M115.4,29.3c0-0.1,0-0.2,0.1-0.2c0,0,0,0,0,0C115.4,29.2,115.4,29.2,115.4,29.3z"/>
	<path fill="#00A9DE" d="M113.9,34.1c0.1-0.2,0.2-0.5,0.2-0.7C114.1,33.6,114,33.8,113.9,34.1C114,34.1,114,34.1,113.9,34.1z"/>
	<path fill="#00A9DE" d="M115.8,27.8c0-0.1,0.1-0.2,0.1-0.3c0,0,0,0,0,0.1C115.9,27.6,115.8,27.7,115.8,27.8z"/>
	<path fill="#00A9DE" d="M103.6,16.8C103.6,16.8,103.6,16.8,103.6,16.8c0,0.1,0,0.1-0.1,0.2c0,0,0,0,0,0
		C103.5,16.9,103.6,16.9,103.6,16.8z"/>
	<path fill="#00A9DE" d="M114.5,32.4c0.1-0.2,0.1-0.3,0.2-0.5c0,0,0,0.1,0,0.1C114.6,32.1,114.5,32.2,114.5,32.4z"/>
	<path fill="#00A9DE" d="M113,37.1c0,0,0,0.1,0,0.1c0.1-0.3,0.2-0.5,0.3-0.8c0,0.1-0.1,0.2-0.1,0.3C113,36.9,113,37,113,37.1z"/>
	<path fill="#00A9DE" d="M116.2,26.5c0-0.1,0.1-0.2,0.1-0.3C116.2,26.2,116.2,26.3,116.2,26.5C116.2,26.4,116.2,26.4,116.2,26.5z"/>
	<path fill="#00A9DE" d="M102.1,22.1C102.1,22.1,102.1,22.1,102.1,22.1c0,0.1-0.1,0.2-0.1,0.3c0,0,0-0.1,0-0.1
		C102.1,22.3,102.1,22.2,102.1,22.1z"/>
	<path fill="#00A9DE" d="M116.9,22.8c0-0.1,0-0.2,0-0.3c0,0.1,0,0.1,0,0.2C117,22.7,117,22.8,116.9,22.8z"/>
	<path fill="#00A9DE" d="M116.7,23.9c0-0.1,0-0.2,0.1-0.3c0,0,0,0,0,0.1C116.8,23.7,116.8,23.8,116.7,23.9z"/>
	<path fill="#00A9DE" d="M113.5,35.6c0.1-0.2,0.1-0.4,0.2-0.6c0,0.1-0.1,0.2-0.1,0.3C113.5,35.5,113.5,35.5,113.5,35.6z"/>
	<path fill="#00A9DE" d="M100.7,28.4C100.7,28.3,100.7,28.3,100.7,28.4c0,0.2-0.1,0.5-0.2,0.7c0,0,0-0.1,0-0.1
		C100.6,28.8,100.6,28.6,100.7,28.4z"/>
	<path fill="#00A9DE" d="M100.1,31.1c0.1-0.3,0.1-0.6,0.2-0.9C100.2,30.5,100.1,30.8,100.1,31.1z"/>
	<path fill="#00A9DE" d="M101.3,25.6c0-0.2,0.1-0.3,0.1-0.5C101.4,25.3,101.3,25.5,101.3,25.6z"/>
	<path fill="#00A9DE" d="M102.8,19.6c0-0.1,0-0.2,0.1-0.3C102.8,19.4,102.8,19.5,102.8,19.6z"/>
	<path fill="#00A9DE" d="M102.4,20.8C102.5,20.8,102.5,20.8,102.4,20.8C102.5,20.8,102.5,20.8,102.4,20.8z"/>
	<path fill="#00A9DE" d="M101.6,24.1c0-0.1,0-0.2,0.1-0.3C101.7,23.8,101.7,24,101.6,24.1z"/>
	<path fill="#00A9DE" d="M99.7,32.7c0.1-0.3,0.1-0.6,0.2-0.9C99.9,32.1,99.8,32.4,99.7,32.7z"/>
	<path fill="#00A9DE" d="M99.4,34.4c0.1-0.3,0.1-0.7,0.2-1C99.5,33.7,99.5,34.1,99.4,34.4z"/>
	<path fill="#00A9DE" d="M98.6,38.6c0.1-0.4,0.2-0.8,0.2-1.2C98.7,37.8,98.6,38.2,98.6,38.6z"/>
	<path fill="#00A9DE" d="M98.2,40.2c0.1-0.4,0.2-0.8,0.2-1.2C98.4,39.4,98.3,39.8,98.2,40.2z"/>
	<path fill="#00A9DE" d="M98.9,37.1c0.2-0.8,0.3-1.6,0.5-2.4C99.2,35.5,99,36.3,98.9,37.1z"/>
	<path fill="#00A9DE" d="M104.6,13.9c0,0,0-0.1,0-0.1C104.6,13.8,104.6,13.8,104.6,13.9z"/>
	<path fill="#00A9DE" d="M103.9,15.8c0,0,0-0.1,0-0.1C103.9,15.7,103.9,15.8,103.9,15.8z"/>
	<path fill="#00A9DE" d="M106.5,55c-0.5,1.3-1,2.5-1.4,3.5c1.5-3.7,4.1-10.4,6.5-17.3c-0.9-0.3-1.8-0.6-2.7-0.9
		c-3.4,1.7-7.3,3.7-11.8,5.9c0.3-1.9,0.7-3.8,1.1-5.7c-1,5.3-1.9,10.6-2.7,15.1c0.1-0.5,0.2-1,0.3-1.6L106.5,55z"/>
	<path fill="#00A9DE" d="M104.2,14.8c0,0,0-0.1,0-0.1C104.3,14.7,104.2,14.8,104.2,14.8z"/>
	<path fill="#00A9DE" d="M103.2,18.1C103.2,18.1,103.2,18.1,103.2,18.1C103.2,18.1,103.2,18.1,103.2,18.1z"/>
	<path fill="#00A9DE" d="M132.1,58.6c-0.1,0.2-0.2,0.4-0.3,0.6C131.8,59,131.9,58.8,132.1,58.6z"/>
	<path fill="#00A9DE" d="M130.5,61c-0.1,0.2-0.2,0.4-0.4,0.5C130.3,61.4,130.4,61.2,130.5,61z"/>
	<path fill="#00A9DE" d="M127.6,64.6c-0.1,0.1-0.2,0.2-0.4,0.4C127.4,64.9,127.5,64.7,127.6,64.6z"/>
	<path fill="#00A9DE" d="M135.5,48.7c0,0.3-0.1,0.5-0.1,0.8C135.4,49.2,135.4,48.9,135.5,48.7z"/>
	<path fill="#00A9DE" d="M126.7,65.5c-0.1,0.1-0.2,0.2-0.4,0.3C126.5,65.7,126.6,65.6,126.7,65.5z"/>
	<path fill="#00A9DE" d="M129.7,62.2c-0.1,0.1-0.2,0.3-0.3,0.4C129.5,62.5,129.6,62.4,129.7,62.2z"/>
	<path fill="#00A9DE" d="M125.4,41.6c0-0.1,0.1-0.1,0.1-0.2C125.5,41.5,125.4,41.6,125.4,41.6z"/>
	<path fill="#00A9DE" d="M131.3,59.8c-0.1,0.2-0.2,0.4-0.4,0.6C131.1,60.2,131.2,60,131.3,59.8z"/>
	<path fill="#00A9DE" d="M128.5,63.7c-0.1,0.1-0.2,0.2-0.3,0.3C128.3,63.9,128.4,63.8,128.5,63.7z"/>
	<path fill="#00A9DE" d="M125.7,41.1c0,0,0.1-0.1,0.1-0.1C125.8,41,125.8,41,125.7,41.1z"/>
	<path fill="#00A9DE" d="M121.7,68.1c-0.1,0-0.2,0-0.3,0C121.6,68.1,121.7,68.1,121.7,68.1z"/>
	<path fill="#00A9DE" d="M116.9,61.7c0.3-0.8,0.6-1.6,0.9-2.4C117.6,60.1,117.2,60.9,116.9,61.7z"/>
	<path fill="#00A9DE" d="M125,42.3c0-0.1,0.1-0.1,0.1-0.2C125.1,42.2,125,42.3,125,42.3z"/>
	<path fill="#00A9DE" d="M123.4,45.7c0.1-0.2,0.2-0.3,0.2-0.5C123.5,45.4,123.4,45.6,123.4,45.7z"/>
	<path fill="#00A9DE" d="M122.7,67.9c-0.1,0-0.2,0.1-0.3,0.1C122.5,68,122.6,68,122.7,67.9z"/>
	<path fill="#00A9DE" d="M123.9,44.6c0.1-0.2,0.1-0.3,0.2-0.5C124,44.3,123.9,44.4,123.9,44.6z"/>
	<path fill="#00A9DE" d="M124.5,67.1c-0.1,0-0.1,0.1-0.2,0.1C124.4,67.2,124.5,67.2,124.5,67.1z"/>
	<path fill="#00A9DE" d="M134.9,51.8c0.1-0.3,0.2-0.7,0.2-1C135,51.1,134.9,51.4,134.9,51.8z"/>
	<path fill="#00A9DE" d="M133,41.2c0,0,0.1,0.1,0.1,0.1C133.1,41.2,133.1,41.2,133,41.2z"/>
	<path fill="#00A9DE" d="M125.8,66.3c-0.1,0.1-0.2,0.2-0.3,0.2C125.6,66.5,125.7,66.4,125.8,66.3z"/>
	<path fill="#00A9DE" d="M123.6,67.6c-0.1,0-0.2,0.1-0.3,0.1C123.4,67.7,123.5,67.6,123.6,67.6z"/>
	<path fill="#00A9DE" d="M124.4,43.4c0-0.1,0.1-0.2,0.1-0.3C124.5,43.2,124.5,43.3,124.4,43.4z"/>
	<path fill="#00A9DE" d="M135.3,49.7c0,0.3-0.1,0.6-0.2,0.9C135.2,50.3,135.3,50,135.3,49.7z"/>
	<path fill="#00A9DE" d="M135.5,45.9c0,0.2,0,0.4,0,0.6C135.5,46.3,135.5,46.1,135.5,45.9z"/>
	<path fill="#00A9DE" d="M133.4,41.5c0.1,0.1,0.1,0.1,0.2,0.2C133.5,41.6,133.5,41.5,133.4,41.5z"/>
	<path fill="#00A9DE" d="M135,43.8c0.1,0.1,0.1,0.3,0.1,0.4C135.1,44.1,135,44,135,43.8z"/>
	<path fill="#00A9DE" d="M133.8,41.8c0.1,0.1,0.1,0.1,0.2,0.2C133.9,42,133.8,41.9,133.8,41.8z"/>
	<path fill="#00A9DE" d="M134.4,42.7c0.1,0.1,0.1,0.2,0.2,0.3C134.6,42.9,134.5,42.8,134.4,42.7z"/>
	<path fill="#00A9DE" d="M135.2,44.5c0,0.1,0.1,0.3,0.1,0.5C135.3,44.8,135.2,44.6,135.2,44.5z"/>
	<path fill="#00A9DE" d="M134.1,42.3c0.1,0.1,0.1,0.2,0.2,0.3C134.2,42.4,134.2,42.4,134.1,42.3z"/>
	<path fill="#00A9DE" d="M135.5,47.7c0,0.2,0,0.5,0,0.7C135.5,48.1,135.5,47.9,135.5,47.7z"/>
	<path fill="#00A9DE" d="M118.1,58.8c0.3-0.9,0.7-1.7,1-2.6C118.7,57.1,118.4,57.9,118.1,58.8z"/>
	<path fill="#00A9DE" d="M135.4,45.2c0,0.2,0.1,0.3,0.1,0.5C135.4,45.5,135.4,45.3,135.4,45.2z"/>
	<path fill="#00A9DE" d="M134.7,43.3c0.1,0.1,0.1,0.2,0.2,0.4C134.8,43.5,134.8,43.4,134.7,43.3z"/>
	<path fill="#00A9DE" d="M135.5,46.8c0,0.2,0,0.4,0,0.6C135.5,47.2,135.5,47,135.5,46.8z"/>
	<path fill="#00A9DE" d="M123.3,45.9c-1.3,2.9-2.8,6.5-4.2,10.3l13.6,1.2c0.7-1.5,1.4-3,1.8-4.4c0.1-0.4,0.2-0.8,0.4-1.2
		C131,49.6,127.2,47.7,123.3,45.9z"/>
	<path fill="#FA8A3B" d="M112.5,119.7c0,0.1-0.1,0.1-0.1,0.2C112.4,119.9,112.4,119.8,112.5,119.7z"/>
	<path fill="#FA8A3B" d="M106.1,130.9c-0.1,0.1-0.2,0.2-0.2,0.3C105.9,131.1,106,131,106.1,130.9z"/>
	<path fill="#FA8A3B" d="M56.6,128.4c-0.4-0.2-0.8-0.4-1.2-0.7C55.8,128,56.2,128.2,56.6,128.4z"/>
	<path fill="#FA8A3B" d="M54.8,127.4c-0.4-0.3-0.9-0.5-1.3-0.8C53.9,126.9,54.4,127.2,54.8,127.4z"/>
	<path fill="#FA8A3B" d="M104.6,132.6C104.6,132.6,104.6,132.6,104.6,132.6c0.2-0.2,0.3-0.3,0.4-0.4
		C104.8,132.4,104.7,132.5,104.6,132.6z"/>
	<path fill="#FA8A3B" d="M109.3,126.2c0.1-0.2,0.2-0.3,0.3-0.5C109.5,125.9,109.4,126,109.3,126.2z"/>
	<path fill="#FA8A3B" d="M58.5,129.4c-0.4-0.2-0.8-0.4-1.2-0.6C57.6,129,58,129.2,58.5,129.4z"/>
	<path fill="#FA8A3B" d="M102.1,134.7C102.1,134.7,102.1,134.7,102.1,134.7c0.1-0.1,0.3-0.2,0.4-0.3
		C102.4,134.5,102.2,134.6,102.1,134.7z"/>
	<path fill="#FA8A3B" d="M108.3,127.9c0-0.1,0.1-0.1,0.1-0.2c0.1-0.1,0.1-0.2,0.2-0.3C108.5,127.6,108.4,127.8,108.3,127.9z"/>
	<path fill="#FA8A3B" d="M114,115.6c0,0,0-0.1,0-0.1c0,0,0,0,0,0c0,0,0-0.1,0-0.1C114.1,115.5,114,115.5,114,115.6z"/>
	<path fill="#FA8A3B" d="M60.5,130.3c-0.4-0.2-0.8-0.4-1.3-0.6C59.6,130,60,130.1,60.5,130.3z"/>
	<path fill="#FA8A3B" d="M116.1,108.5C116.1,108.5,116.1,108.5,116.1,108.5C116.1,108.5,116.1,108.5,116.1,108.5z"/>
	<path fill="#FA8A3B" d="M113.2,117.8c0-0.1,0.1-0.2,0.1-0.3c0,0,0,0,0-0.1C113.3,117.6,113.3,117.7,113.2,117.8z"/>
	<path fill="#FA8A3B" d="M85.6,108.8L46.5,112c-1,0.5-2,1-2.9,1.4c0,0,0,0.1,0,0.1c0,0,0,0,0,0c0,0.4,0.1,0.8,0.2,1.2
		c0,0,0,0.1,0,0.1c0.1,0.4,0.2,0.7,0.3,1.1c0,0.1,0,0.1,0.1,0.2c0.1,0.4,0.3,0.9,0.4,1.3c1.1,2.9,4.1,6,8.6,8.9
		c-1.1-0.7-2.1-1.4-3-2.1C60.1,120.6,73.1,115.3,85.6,108.8z"/>
	<path fill="#FA8A3B" d="M65.6,132.5c-0.8-0.3-1.5-0.6-2.2-0.9C64.1,131.9,64.8,132.2,65.6,132.5z"/>
	<path fill="#FA8A3B" d="M62.7,131.3c-0.5-0.2-1-0.4-1.4-0.6C61.7,130.9,62.2,131.1,62.7,131.3z"/>
	<path fill="#FA8A3B" d="M110.4,124.3c0-0.1,0.1-0.1,0.1-0.2c0-0.1,0.1-0.1,0.1-0.2C110.5,124,110.4,124.1,110.4,124.3z"/>
	<path fill="#FA8A3B" d="M116.6,106.2C116.6,106.2,116.6,106.2,116.6,106.2C116.6,106.2,116.6,106.2,116.6,106.2L116.6,106.2z"/>
	<path fill="#FA8A3B" d="M107.2,129.5c0-0.1,0.1-0.1,0.1-0.2c0,0,0,0,0-0.1C107.3,129.3,107.3,129.4,107.2,129.5z"/>
	<path fill="#FA8A3B" d="M43.5,112.3C43.5,112.3,43.5,112.3,43.5,112.3C43.5,112.3,43.5,112.3,43.5,112.3L43.5,112.3z"/>
	<path fill="#FA8A3B" d="M103.3,133.8C103.4,133.8,103.4,133.7,103.3,133.8c0.2-0.1,0.3-0.3,0.4-0.4
		C103.6,133.5,103.5,133.6,103.3,133.8z"/>
	<path opacity="0.69" fill="#FFC03B" d="M105.1,132.1c0,0-0.1,0.1-0.1,0.1c0.1-0.1,0.2-0.2,0.3-0.4
		C105.2,131.9,105.1,132,105.1,132.1z"/>
	<path opacity="0.69" fill="#FFC03B" d="M107.8,128.7c0.2-0.3,0.3-0.5,0.5-0.8c0,0,0,0.1-0.1,0.1
		C108.1,128.3,107.9,128.5,107.8,128.7z"/>
	<path opacity="0.69" fill="#FFC03B" d="M106.1,130.9c0.1-0.1,0.2-0.2,0.2-0.3c0,0-0.1,0.1-0.1,0.1
		C106.2,130.8,106.1,130.9,106.1,130.9z"/>
	<path opacity="0.69" fill="#FFC03B" d="M103.8,133.4c0.2-0.1,0.3-0.3,0.5-0.4C104.1,133.1,104,133.2,103.8,133.4
		C103.8,133.3,103.8,133.4,103.8,133.4z"/>
	<path opacity="0.69" fill="#FFC03B" d="M102.5,134.4c0.2-0.2,0.4-0.3,0.6-0.5C102.9,134.1,102.7,134.3,102.5,134.4
		C102.5,134.4,102.5,134.4,102.5,134.4z"/>
	<path opacity="0.69" fill="#FFC03B" d="M106.8,130.1c0.1-0.2,0.3-0.4,0.4-0.6c-0.1,0.1-0.2,0.2-0.2,0.3
		C106.9,129.9,106.8,130,106.8,130.1z"/>
	<path opacity="0.69" fill="#FFC03B" d="M118.3,94c0,0.2,0,0.4,0,0.6C118.3,94.4,118.3,94.2,118.3,94z"/>
	<polygon opacity="0.69" fill="#FFC03B" points="117.9,85.2 117.9,85.2 117.9,85.2 	"/>
	<path opacity="0.69" fill="#FFC03B" d="M118.4,90.7c0,0.2,0,0.3,0,0.5C118.4,91,118.4,90.8,118.4,90.7z"/>
	<path opacity="0.69" fill="#FFC03B" d="M118.3,89.1c0,0.1,0,0.3,0,0.4C118.4,89.4,118.4,89.2,118.3,89.1z"/>
	<path opacity="0.69" fill="#FFC03B" d="M105.7,131.4c0,0,0.1-0.1,0.1-0.1C105.8,131.2,105.8,131.3,105.7,131.4
		C105.8,131.3,105.8,131.3,105.7,131.4z"/>
	<path opacity="0.69" fill="#FFC03B" d="M118.1,86.3c0,0.1,0,0.2,0,0.2C118.1,86.5,118.1,86.4,118.1,86.3z"/>
	<path opacity="0.69" fill="#FFC03B" d="M118.4,92.3c0,0.2,0,0.4,0,0.5C118.4,92.6,118.4,92.5,118.4,92.3z"/>
	<path opacity="0.69" fill="#FFC03B" d="M118.1,97.6c0,0.2,0,0.4-0.1,0.6C118,98,118,97.8,118.1,97.6z"/>
	<path opacity="0.69" fill="#FFC03B" d="M117.6,101.3c0,0.2-0.1,0.5-0.1,0.7C117.5,101.8,117.5,101.6,117.6,101.3z"/>
	<path opacity="0.69" fill="#FFC03B" d="M118.2,87.7c0,0.1,0,0.2,0,0.4C118.3,87.9,118.3,87.8,118.2,87.7z"/>
	<path opacity="0.69" fill="#FFC03B" d="M117.8,99.4c0,0.2-0.1,0.4-0.1,0.7C117.8,99.9,117.8,99.7,117.8,99.4z"/>
	<path opacity="0.69" fill="#FFC03B" d="M117.2,103.3c0,0.2-0.1,0.5-0.1,0.7C117.1,103.7,117.2,103.5,117.2,103.3z"/>
	<path opacity="0.69" fill="#FFC03B" d="M118.2,95.8c0,0.2,0,0.4-0.1,0.6C118.2,96.2,118.2,96,118.2,95.8z"/>
	<path opacity="0.69" fill="#FFC03B" d="M116.9,105.2c0,0.2-0.1,0.5-0.1,0.7C116.8,105.7,116.8,105.4,116.9,105.2z"/>
	<path opacity="0.69" fill="#FFC03B" d="M63.4,131.6c-0.2-0.1-0.5-0.2-0.7-0.3C62.9,131.4,63.1,131.5,63.4,131.6z"/>
	<path opacity="0.69" fill="#FFC03B" d="M61.2,130.7c-0.3-0.1-0.5-0.2-0.8-0.4C60.7,130.5,61,130.6,61.2,130.7z"/>
	<path opacity="0.69" fill="#FFC03B" d="M59.2,129.8c-0.3-0.1-0.5-0.2-0.8-0.4C58.7,129.5,59,129.6,59.2,129.8z"/>
	<path opacity="0.69" fill="#FFC03B" d="M57.3,128.8c-0.2-0.1-0.5-0.2-0.7-0.4C56.8,128.5,57,128.7,57.3,128.8z"/>
	<path opacity="0.69" fill="#FFC03B" d="M110.6,123.9c0.1-0.3,0.3-0.6,0.4-0.8c-0.1,0.2-0.2,0.4-0.3,0.6
		C110.6,123.8,110.6,123.9,110.6,123.9z"/>
	<path opacity="0.69" fill="#FFC03B" d="M55.4,127.7c-0.2-0.1-0.4-0.2-0.6-0.3C55,127.5,55.2,127.6,55.4,127.7z"/>
	<path opacity="0.69" fill="#FFC03B" d="M112.5,119.7c0-0.1,0.1-0.1,0.1-0.2C112.5,119.6,112.5,119.6,112.5,119.7
		C112.5,119.7,112.5,119.7,112.5,119.7z"/>
	<path opacity="0.69" fill="#FFC03B" d="M112.9,118.7c0.1-0.3,0.2-0.6,0.3-0.9c0,0,0,0,0,0.1C113.1,118.2,113,118.4,112.9,118.7z"/>
	<path opacity="0.69" fill="#FFC03B" d="M111.4,122.2c0,0,0,0.1-0.1,0.1c0.1-0.3,0.3-0.6,0.4-1c-0.1,0.1-0.1,0.2-0.2,0.3
		C111.5,121.8,111.5,122,111.4,122.2z"/>
	<path opacity="0.69" fill="#FFC03B" d="M116,109.1c0,0.1-0.1,0.3-0.1,0.4C115.9,109.4,115.9,109.3,116,109.1z"/>
	<path opacity="0.69" fill="#FFC03B" d="M112.1,120.5c0.1-0.2,0.2-0.4,0.3-0.6c0,0.1-0.1,0.1-0.1,0.2
		C112.2,120.3,112.2,120.4,112.1,120.5z"/>
	<path opacity="0.69" fill="#FFC03B" d="M102,134.8c-0.4,0.3-0.8,0.5-1.2,0.7C101.2,135.3,101.6,135.1,102,134.8z"/>
	<path opacity="0.69" fill="#FFC03B" d="M114.6,114c-0.1,0.3-0.2,0.6-0.3,1C114.4,114.6,114.5,114.3,114.6,114z"/>
	<path opacity="0.69" fill="#FFC03B" d="M110.1,124.8c-0.2,0.3-0.3,0.6-0.5,0.9C109.8,125.4,110,125.1,110.1,124.8z"/>
	<path opacity="0.69" fill="#FFC03B" d="M113.9,115.8c-0.1,0.3-0.2,0.7-0.3,1C113.7,116.5,113.8,116.2,113.9,115.8z"/>
	<path opacity="0.69" fill="#FFC03B" d="M116.4,107.2c-0.1,0.2-0.1,0.4-0.2,0.7C116.3,107.6,116.4,107.4,116.4,107.2z"/>
	<path opacity="0.69" fill="#FFC03B" d="M109.2,126.4c-0.2,0.3-0.3,0.6-0.5,0.9C108.9,126.9,109.1,126.7,109.2,126.4z"/>
	<path opacity="0.69" fill="#FFC03B" d="M115.1,112.3c-0.1,0.2-0.1,0.5-0.2,0.7C115,112.7,115,112.5,115.1,112.3z"/>
	<path opacity="0.69" fill="#FFC03B" d="M53.5,126.6c-0.1-0.1-0.2-0.1-0.3-0.2C53.3,126.5,53.4,126.6,53.5,126.6z"/>
	<path fill="#00A9DE" d="M106.2,130.8c0,0,0.1-0.1,0.1-0.1c0.1-0.2,0.3-0.4,0.4-0.6c0.1-0.1,0.1-0.2,0.2-0.3
		C106.7,130.1,106.5,130.5,106.2,130.8z"/>
	<path opacity="0.69" fill="#FFC03B" d="M106.2,130.8c0,0,0.1-0.1,0.1-0.1c0.1-0.2,0.3-0.4,0.4-0.6c0.1-0.1,0.1-0.2,0.2-0.3
		C106.7,130.1,106.5,130.5,106.2,130.8z"/>
	<path fill="#00A9DE" d="M111.6,121.7c0.1-0.1,0.1-0.2,0.2-0.3c0.1-0.3,0.2-0.5,0.4-0.8c0.1-0.1,0.1-0.3,0.2-0.4
		C112.1,120.6,111.9,121.2,111.6,121.7z"/>
	<path opacity="0.69" fill="#FFC03B" d="M111.6,121.7c0.1-0.1,0.1-0.2,0.2-0.3c0.1-0.3,0.2-0.5,0.4-0.8c0.1-0.1,0.1-0.3,0.2-0.4
		C112.1,120.6,111.9,121.2,111.6,121.7z"/>
	<path fill="#00A9DE" d="M102.5,134.4c0.2-0.1,0.4-0.3,0.6-0.4c0.1-0.1,0.1-0.1,0.2-0.2C103.1,134,102.8,134.2,102.5,134.4z"/>
	<path opacity="0.69" fill="#FFC03B" d="M102.5,134.4c0.2-0.1,0.4-0.3,0.6-0.4c0.1-0.1,0.1-0.1,0.2-0.2
		C103.1,134,102.8,134.2,102.5,134.4z"/>
	<path fill="#00A9DE" d="M116.1,108.5c0.1-0.2,0.1-0.4,0.2-0.7c0.1-0.2,0.1-0.4,0.2-0.7c0.1-0.3,0.1-0.6,0.2-0.9
		C116.5,107,116.3,107.7,116.1,108.5z"/>
	<path opacity="0.69" fill="#FFC03B" d="M116.1,108.5c0.1-0.2,0.1-0.4,0.2-0.7c0.1-0.2,0.1-0.4,0.2-0.7c0.1-0.3,0.1-0.6,0.2-0.9
		C116.5,107,116.3,107.7,116.1,108.5z"/>
	<path fill="#00A9DE" d="M114.1,115.4c0.1-0.2,0.1-0.3,0.2-0.5c0.1-0.3,0.2-0.6,0.3-1c0.1-0.3,0.2-0.7,0.3-1
		c0.1-0.2,0.1-0.5,0.2-0.7c0.3-0.9,0.5-1.8,0.8-2.7c0-0.1,0.1-0.3,0.1-0.4c0.1-0.2,0.1-0.4,0.1-0.6
		C115.5,110.8,114.9,113.1,114.1,115.4z"/>
	<path opacity="0.69" fill="#FFC03B" d="M114.1,115.4c0.1-0.2,0.1-0.3,0.2-0.5c0.1-0.3,0.2-0.6,0.3-1c0.1-0.3,0.2-0.7,0.3-1
		c0.1-0.2,0.1-0.5,0.2-0.7c0.3-0.9,0.5-1.8,0.8-2.7c0-0.1,0.1-0.3,0.1-0.4c0.1-0.2,0.1-0.4,0.1-0.6
		C115.5,110.8,114.9,113.1,114.1,115.4z"/>
	<path fill="#00A9DE" d="M112.5,119.6c0,0,0-0.1,0-0.1c0.1-0.3,0.2-0.6,0.3-0.8c0.1-0.3,0.2-0.5,0.3-0.8
		C113,118.5,112.7,119.1,112.5,119.6z"/>
	<path opacity="0.69" fill="#FFC03B" d="M112.5,119.6c0,0,0-0.1,0-0.1c0.1-0.3,0.2-0.6,0.3-0.8c0.1-0.3,0.2-0.5,0.3-0.8
		C113,118.5,112.7,119.1,112.5,119.6z"/>
	<path fill="#00A9DE" d="M110.6,123.7c0.1-0.2,0.2-0.4,0.3-0.6c0.1-0.3,0.3-0.5,0.4-0.8c0,0,0-0.1,0.1-0.1
		C111.2,122.7,110.9,123.2,110.6,123.7z"/>
	<path opacity="0.69" fill="#FFC03B" d="M110.6,123.7c0.1-0.2,0.2-0.4,0.3-0.6c0.1-0.3,0.3-0.5,0.4-0.8c0,0,0-0.1,0.1-0.1
		C111.2,122.7,110.9,123.2,110.6,123.7z"/>
	<path fill="#00A9DE" d="M107.4,129.2c0.1-0.2,0.2-0.4,0.4-0.5c0.1-0.2,0.3-0.4,0.4-0.7C107.9,128.4,107.7,128.8,107.4,129.2z"/>
	<path opacity="0.69" fill="#FFC03B" d="M107.4,129.2c0.1-0.2,0.2-0.4,0.4-0.5c0.1-0.2,0.3-0.4,0.4-0.7
		C107.9,128.4,107.7,128.8,107.4,129.2z"/>
	<path fill="#00A9DE" d="M100.9,135.5c0.4-0.2,0.8-0.4,1.2-0.7c0,0,0.1-0.1,0.1-0.1C101.7,135,101.3,135.3,100.9,135.5z"/>
	<path opacity="0.69" fill="#FFC03B" d="M100.9,135.5c0.4-0.2,0.8-0.4,1.2-0.7c0,0,0.1-0.1,0.1-0.1
		C101.7,135,101.3,135.3,100.9,135.5z"/>
	<path fill="#00A9DE" d="M109.6,125.7C109.6,125.7,109.6,125.7,109.6,125.7c0.2-0.4,0.4-0.7,0.5-1c0.1-0.2,0.2-0.3,0.3-0.5
		C110.1,124.8,109.9,125.2,109.6,125.7z"/>
	<path opacity="0.69" fill="#FFC03B" d="M109.6,125.7C109.6,125.7,109.6,125.7,109.6,125.7c0.2-0.4,0.4-0.7,0.5-1
		c0.1-0.2,0.2-0.3,0.3-0.5C110.1,124.8,109.9,125.2,109.6,125.7z"/>
	<path fill="#00A9DE" d="M108.6,127.5c0-0.1,0.1-0.2,0.1-0.2c0.2-0.3,0.3-0.6,0.5-0.9c0-0.1,0.1-0.1,0.1-0.2
		C109.1,126.6,108.8,127,108.6,127.5z"/>
	<path opacity="0.69" fill="#FFC03B" d="M108.6,127.5c0-0.1,0.1-0.2,0.1-0.2c0.2-0.3,0.3-0.6,0.5-0.9c0-0.1,0.1-0.1,0.1-0.2
		C109.1,126.6,108.8,127,108.6,127.5z"/>
	<path fill="#00A9DE" d="M113.3,117.5c0.1-0.2,0.2-0.5,0.3-0.7c0.1-0.3,0.2-0.7,0.3-1c0-0.1,0.1-0.2,0.1-0.2
		C113.8,116.2,113.6,116.9,113.3,117.5z"/>
	<path opacity="0.69" fill="#FFC03B" d="M113.3,117.5c0.1-0.2,0.2-0.5,0.3-0.7c0.1-0.3,0.2-0.7,0.3-1c0-0.1,0.1-0.2,0.1-0.2
		C113.8,116.2,113.6,116.9,113.3,117.5z"/>
	<path fill="#00A9DE" d="M105.1,132.1c0.1-0.1,0.2-0.2,0.2-0.2c0.1-0.2,0.3-0.3,0.4-0.5c0,0,0,0,0.1-0.1
		C105.6,131.6,105.3,131.8,105.1,132.1z"/>
	<path opacity="0.69" fill="#FFC03B" d="M105.1,132.1c0.1-0.1,0.2-0.2,0.2-0.2c0.1-0.2,0.3-0.3,0.4-0.5c0,0,0,0,0.1-0.1
		C105.6,131.6,105.3,131.8,105.1,132.1z"/>
	<path fill="#00A9DE" d="M103.9,133.3c0.1-0.1,0.3-0.2,0.4-0.3c0.1-0.1,0.2-0.2,0.3-0.3C104.3,132.9,104.1,133.1,103.9,133.3z"/>
	<path opacity="0.69" fill="#FFC03B" d="M103.9,133.3c0.1-0.1,0.3-0.2,0.4-0.3c0.1-0.1,0.2-0.2,0.3-0.3
		C104.3,132.9,104.1,133.1,103.9,133.3z"/>
	<path fill="#00A9DE" d="M85.6,108.8l31.1-2.6c0-0.1,0-0.2,0-0.3c0-0.2,0.1-0.5,0.1-0.7c0.1-0.4,0.2-0.8,0.2-1.3
		c0-0.2,0.1-0.5,0.1-0.7c0.1-0.4,0.1-0.8,0.2-1.2c0-0.2,0.1-0.5,0.1-0.7c0.1-0.4,0.1-0.8,0.2-1.2c0-0.2,0.1-0.4,0.1-0.7
		c0.1-0.4,0.1-0.8,0.2-1.2c0-0.2,0-0.4,0.1-0.6c0-0.4,0.1-0.8,0.1-1.2c0-0.2,0-0.4,0.1-0.6c0-0.4,0.1-0.8,0.1-1.2c0-0.2,0-0.4,0-0.6
		c0-0.4,0-0.8,0-1.2c0-0.2,0-0.4,0-0.5c0-0.4,0-0.8,0-1.1c0-0.2,0-0.3,0-0.5c0-0.4,0-0.8,0-1.1c0-0.1,0-0.3,0-0.4
		c0-0.4,0-0.7-0.1-1.1c0-0.1,0-0.2,0-0.4c0-0.4-0.1-0.7-0.1-1.1c0-0.1,0-0.2,0-0.2c-0.1-0.4-0.1-0.7-0.1-1.1c0,0,0,0,0,0
		C110,94.2,98.2,102.1,85.6,108.8z"/>
	<path opacity="0.69" fill="#FFC03B" d="M85.6,108.8l31.1-2.6c0-0.1,0-0.2,0-0.3c0-0.2,0.1-0.5,0.1-0.7c0.1-0.4,0.2-0.8,0.2-1.3
		c0-0.2,0.1-0.5,0.1-0.7c0.1-0.4,0.1-0.8,0.2-1.2c0-0.2,0.1-0.5,0.1-0.7c0.1-0.4,0.1-0.8,0.2-1.2c0-0.2,0.1-0.4,0.1-0.7
		c0.1-0.4,0.1-0.8,0.2-1.2c0-0.2,0-0.4,0.1-0.6c0-0.4,0.1-0.8,0.1-1.2c0-0.2,0-0.4,0.1-0.6c0-0.4,0.1-0.8,0.1-1.2c0-0.2,0-0.4,0-0.6
		c0-0.4,0-0.8,0-1.2c0-0.2,0-0.4,0-0.5c0-0.4,0-0.8,0-1.1c0-0.2,0-0.3,0-0.5c0-0.4,0-0.8,0-1.1c0-0.1,0-0.3,0-0.4
		c0-0.4,0-0.7-0.1-1.1c0-0.1,0-0.2,0-0.4c0-0.4-0.1-0.7-0.1-1.1c0-0.1,0-0.2,0-0.2c-0.1-0.4-0.1-0.7-0.1-1.1c0,0,0,0,0,0
		C110,94.2,98.2,102.1,85.6,108.8z"/>
	<path fill="#FA8A3B" d="M105.8,131.3C105.8,131.3,105.8,131.2,105.8,131.3c0.1-0.2,0.2-0.3,0.3-0.3c0-0.1,0.1-0.1,0.1-0.2
		c0.2-0.3,0.5-0.6,0.7-1c0.1-0.1,0.2-0.2,0.2-0.3c0.1-0.1,0.1-0.2,0.2-0.3c0.3-0.4,0.5-0.8,0.8-1.2c0,0,0-0.1,0.1-0.1
		c0.1-0.2,0.2-0.3,0.3-0.5c0.3-0.4,0.5-0.8,0.8-1.3c0.1-0.2,0.2-0.3,0.3-0.5c0.3-0.5,0.5-1,0.8-1.5c0.1-0.1,0.1-0.2,0.2-0.3
		c0-0.1,0.1-0.1,0.1-0.2c0.3-0.5,0.5-1,0.8-1.6c0.1-0.2,0.1-0.3,0.2-0.5c0.2-0.5,0.5-1,0.7-1.6c0-0.1,0.1-0.1,0.1-0.2
		c0-0.1,0.1-0.1,0.1-0.2c0,0,0-0.1,0-0.1c0.2-0.6,0.5-1.1,0.7-1.7c0,0,0,0,0-0.1c0-0.1,0.1-0.2,0.1-0.3c0.2-0.6,0.5-1.3,0.7-1.9
		c0-0.1,0.1-0.1,0.1-0.2c0.8-2.2,1.4-4.5,2-6.8c0,0,0,0,0-0.1c0.2-0.7,0.4-1.5,0.5-2.2c0,0,0,0,0-0.1l-31.1,2.6
		c-12.4,6.6-25.4,11.8-35.4,15.5c0.9,0.7,1.9,1.4,3,2.1c0.1,0.1,0.2,0.1,0.3,0.2c0.4,0.3,0.9,0.5,1.3,0.8c0.2,0.1,0.4,0.2,0.6,0.3
		c0.4,0.2,0.8,0.4,1.2,0.7c0.2,0.1,0.5,0.2,0.7,0.4c0.4,0.2,0.8,0.4,1.2,0.6c0.2,0.1,0.5,0.2,0.8,0.4c0.4,0.2,0.8,0.4,1.3,0.6
		c0.3,0.1,0.5,0.2,0.8,0.4c0.5,0.2,0.9,0.4,1.4,0.6c0.2,0.1,0.5,0.2,0.7,0.3c0.7,0.3,1.5,0.6,2.2,0.9c12,4.5,27.6,7.2,35.3,3
		c0.4-0.2,0.8-0.5,1.3-0.8c0.1-0.1,0.3-0.2,0.4-0.3c0,0,0,0,0,0c0.3-0.2,0.5-0.4,0.8-0.6c0.1-0.1,0.3-0.2,0.4-0.4
		c0,0,0.1-0.1,0.1-0.1c0.2-0.2,0.5-0.4,0.7-0.7c0.1-0.1,0.3-0.3,0.4-0.4c0,0,0.1-0.1,0.1-0.1C105.3,131.8,105.6,131.6,105.8,131.3z"
		/>
	<path opacity="0.69" fill="#FFC03B" d="M105.8,131.3C105.8,131.3,105.8,131.2,105.8,131.3c0.1-0.2,0.2-0.3,0.3-0.3
		c0-0.1,0.1-0.1,0.1-0.2c0.2-0.3,0.5-0.6,0.7-1c0.1-0.1,0.2-0.2,0.2-0.3c0.1-0.1,0.1-0.2,0.2-0.3c0.3-0.4,0.5-0.8,0.8-1.2
		c0,0,0-0.1,0.1-0.1c0.1-0.2,0.2-0.3,0.3-0.5c0.3-0.4,0.5-0.8,0.8-1.3c0.1-0.2,0.2-0.3,0.3-0.5c0.3-0.5,0.5-1,0.8-1.5
		c0.1-0.1,0.1-0.2,0.2-0.3c0-0.1,0.1-0.1,0.1-0.2c0.3-0.5,0.5-1,0.8-1.6c0.1-0.2,0.1-0.3,0.2-0.5c0.2-0.5,0.5-1,0.7-1.6
		c0-0.1,0.1-0.1,0.1-0.2c0-0.1,0.1-0.1,0.1-0.2c0,0,0-0.1,0-0.1c0.2-0.6,0.5-1.1,0.7-1.7c0,0,0,0,0-0.1c0-0.1,0.1-0.2,0.1-0.3
		c0.2-0.6,0.5-1.3,0.7-1.9c0-0.1,0.1-0.1,0.1-0.2c0.8-2.2,1.4-4.5,2-6.8c0,0,0,0,0-0.1c0.2-0.7,0.4-1.5,0.5-2.2c0,0,0,0,0-0.1
		l-31.1,2.6c-12.4,6.6-25.4,11.8-35.4,15.5c0.9,0.7,1.9,1.4,3,2.1c0.1,0.1,0.2,0.1,0.3,0.2c0.4,0.3,0.9,0.5,1.3,0.8
		c0.2,0.1,0.4,0.2,0.6,0.3c0.4,0.2,0.8,0.4,1.2,0.7c0.2,0.1,0.5,0.2,0.7,0.4c0.4,0.2,0.8,0.4,1.2,0.6c0.2,0.1,0.5,0.2,0.8,0.4
		c0.4,0.2,0.8,0.4,1.3,0.6c0.3,0.1,0.5,0.2,0.8,0.4c0.5,0.2,0.9,0.4,1.4,0.6c0.2,0.1,0.5,0.2,0.7,0.3c0.7,0.3,1.5,0.6,2.2,0.9
		c12,4.5,27.6,7.2,35.3,3c0.4-0.2,0.8-0.5,1.3-0.8c0.1-0.1,0.3-0.2,0.4-0.3c0,0,0,0,0,0c0.3-0.2,0.5-0.4,0.8-0.6
		c0.1-0.1,0.3-0.2,0.4-0.4c0,0,0.1-0.1,0.1-0.1c0.2-0.2,0.5-0.4,0.7-0.7c0.1-0.1,0.3-0.3,0.4-0.4c0,0,0.1-0.1,0.1-0.1
		C105.3,131.8,105.6,131.6,105.8,131.3z"/>
	<path fill="#FFC03B" d="M102.4,21.2c0,0,0-0.1,0-0.1C102.4,21.1,102.4,21.1,102.4,21.2z"/>
	<path fill="#FFC03B" d="M101.8,23.5c0-0.1,0-0.2,0.1-0.2C101.8,23.4,101.8,23.5,101.8,23.5z"/>
	<path fill="#FFC03B" d="M103,18.9C103,18.9,103,18.8,103,18.9C103,18.8,103,18.9,103,18.9z"/>
	<path fill="#FFC03B" d="M103.2,17.9c0-0.1,0-0.1,0-0.2C103.3,17.8,103.3,17.9,103.2,17.9z"/>
	<path fill="#FFC03B" d="M101.1,26.3c0-0.1,0.1-0.2,0.1-0.3C101.2,26.1,101.1,26.2,101.1,26.3z"/>
	<path fill="#FFC03B" d="M75.3,56.6c-0.2-0.2-0.4-0.4-0.5-0.6C74.9,56.1,75.1,56.4,75.3,56.6z"/>
	<path fill="#FFC03B" d="M117.1,21.5c0,0.3-0.1,0.6-0.1,0.8C117.1,22.1,117.1,21.8,117.1,21.5z"/>
	<path fill="#FFC03B" d="M104.1,15.1C104.1,15.1,104.1,15.1,104.1,15.1C104.1,15.1,104.1,15.1,104.1,15.1z"/>
	<path fill="#FFC03B" d="M105.2,12.5C105.2,12.5,105.2,12.5,105.2,12.5C105.2,12.5,105.2,12.5,105.2,12.5z"/>
	<path fill="#FFC03B" d="M104.6,13.7c0,0,0-0.1,0.1-0.1C104.7,13.6,104.7,13.7,104.6,13.7z"/>
	<path fill="#FFC03B" d="M105.7,11.7c0,0,0-0.1,0.1-0.1C105.7,11.6,105.7,11.7,105.7,11.7z"/>
	<path fill="#FFC03B" d="M115.8,27.9c-0.1,0.3-0.2,0.6-0.3,0.9C115.6,28.5,115.7,28.2,115.8,27.9z"/>
	<path fill="#FFC03B" d="M104.4,14.4c0,0,0-0.1,0.1-0.1C104.4,14.3,104.4,14.4,104.4,14.4z"/>
	<path fill="#FFC03B" d="M105.4,12.1c0,0,0-0.1,0.1-0.1C105.5,12,105.5,12,105.4,12.1z"/>
	<path fill="#FFC03B" d="M23.5,84.6l0.1-0.6c-0.1-0.1-0.2-0.1-0.3-0.2c-0.1,0-0.1-0.1-0.2-0.1c-0.3-0.1-0.6-0.2-0.9-0.3
		c-4.8-1.2-9.1-0.7-11.6,1.5c-2,1.7-2.8,4.3-2.5,7.6c0,0.2,0.1,0.4,0.1,0.7C12.6,90.7,17.8,87.7,23.5,84.6z"/>
	<path fill="#FFC03B" d="M24.1,84.3C24.1,84.3,24.1,84.3,24.1,84.3C24.1,84.3,24.1,84.3,24.1,84.3C24.1,84.3,24.1,84.3,24.1,84.3
		c-0.1-0.1-0.2-0.1-0.3-0.2C23.9,84.2,24,84.2,24.1,84.3z"/>
	<path fill="#FFC03B" d="M31.5,26.5c0-0.1,0-0.2,0-0.3C31.5,26.3,31.5,26.4,31.5,26.5z"/>
	<path fill="#FFC03B" d="M31.5,27.6c0-0.1,0-0.2,0-0.4C31.5,27.4,31.5,27.5,31.5,27.6z"/>
	<path fill="#FFC03B" d="M31.5,27.1c0-0.1,0-0.2,0-0.3C31.5,26.8,31.5,27,31.5,27.1z"/>
	<path fill="#FFC03B" d="M32.9,23c0.1-0.1,0.2-0.2,0.3-0.3C33.1,22.9,33,23,32.9,23z"/>
	<path fill="#FFC03B" d="M31.5,26c0-0.1,0-0.2,0.1-0.3C31.5,25.8,31.5,25.9,31.5,26z"/>
	<path fill="#FFC03B" d="M43.4,23.1c0.3,0.3,0.7,0.6,1,1C44.1,23.7,43.8,23.4,43.4,23.1z"/>
	<path fill="#FFC03B" d="M31.6,28.2c0-0.1,0-0.3-0.1-0.4C31.5,28,31.6,28.1,31.6,28.2z"/>
	<path fill="#FFC03B" d="M31.6,25.4c0-0.1,0.1-0.2,0.1-0.3C31.7,25.2,31.6,25.3,31.6,25.4z"/>
	<path fill="#FFC03B" d="M42.2,22.1c0.4,0.2,0.7,0.5,1.1,0.8C42.9,22.6,42.6,22.3,42.2,22.1z"/>
	<path fill="#FFC03B" d="M32.4,30.8c-0.1-0.2-0.1-0.3-0.2-0.5C32.2,30.5,32.3,30.7,32.4,30.8z"/>
	<path fill="#FFC03B" d="M32.1,30.2C32.1,30,32,29.8,32,29.7C32,29.8,32.1,30,32.1,30.2z"/>
	<path fill="#FFC03B" d="M41.1,21.5c0.3,0.2,0.6,0.3,0.9,0.5C41.8,21.8,41.5,21.7,41.1,21.5z"/>
	<path fill="#FFC03B" d="M44.5,24.1c0.8,0.8,1.5,1.7,2.2,2.8C46,25.8,45.3,24.9,44.5,24.1z"/>
	<path fill="#FFC03B" d="M31.7,28.9c0-0.1-0.1-0.3-0.1-0.4C31.7,28.6,31.7,28.7,31.7,28.9z"/>
	<path fill="#FFC03B" d="M31.9,29.5c0-0.1-0.1-0.3-0.1-0.4C31.8,29.2,31.9,29.4,31.9,29.5z"/>
	<path fill="#FFC03B" d="M33.3,22.6c0.2-0.1,0.3-0.3,0.5-0.4C33.6,22.4,33.4,22.5,33.3,22.6z"/>
	<path fill="#FFC03B" d="M39.8,21c0.4,0.1,0.7,0.2,1.1,0.4C40.5,21.2,40.2,21.1,39.8,21z"/>
	<path fill="#FFC03B" d="M59.4,57c0.1,0.2,0.1,0.5,0.2,0.7C59.5,57.4,59.4,57.2,59.4,57z"/>
	<path fill="#FFC03B" d="M59.8,63.5c0,0.1-0.1,0.2-0.1,0.2C59.8,63.7,59.8,63.6,59.8,63.5z"/>
	<path fill="#FFC03B" d="M60,62.8c0,0.1,0,0.1-0.1,0.2C60,62.9,60,62.9,60,62.8z"/>
	<path fill="#FFC03B" d="M32.2,23.9c0.1-0.1,0.1-0.2,0.2-0.3C32.3,23.8,32.3,23.9,32.2,23.9z"/>
	<path fill="#FFC03B" d="M32.5,23.5c0.1-0.1,0.1-0.2,0.2-0.3C32.6,23.3,32.6,23.4,32.5,23.5z"/>
	<path fill="#FFC03B" d="M57.3,50.6c0.2,0.4,0.3,0.8,0.4,1.2C57.6,51.4,57.4,51,57.3,50.6z"/>
	<path fill="#FFC03B" d="M60.1,61.7c0,0.1,0,0.2,0,0.3C60.1,61.9,60.1,61.8,60.1,61.7z"/>
	<path fill="#FFC03B" d="M59.5,64.2c0,0.1-0.1,0.1-0.1,0.2C59.5,64.3,59.5,64.3,59.5,64.2z"/>
	<path fill="#FFC03B" d="M43.7,49.3l13.6,1.2c-0.8-2.1-1.7-4.4-2.7-6.9c0,0-2.2-5.6-2.2-5.6c-1.8-4.6-3.6-8.4-5.5-11.1
		c0.7,1.1,1.5,2.3,2.2,3.7c-6.7-0.1-12.4,0.1-16.6,0.3c1.3,3.2,3.7,6.9,6.4,10.8c1.9,2.8,3.8,5.6,5.5,8.5
		C44.1,50,43.9,49.6,43.7,49.3z"/>
	<path fill="#FFC03B" d="M31.9,24.4c0-0.1,0.1-0.2,0.1-0.3C32,24.2,32,24.3,31.9,24.4z"/>
	<path fill="#FFC03B" d="M59,55.7c0.1,0.3,0.2,0.5,0.2,0.8C59.2,56.2,59.1,56,59,55.7z"/>
	<path fill="#FFC03B" d="M57.8,52c0.4,1.1,0.8,2.2,1.1,3.2C58.6,54.3,58.2,53.2,57.8,52z"/>
	<path fill="#FFC03B" d="M59.7,58.2c0.1,0.3,0.1,0.6,0.2,0.9C59.8,58.8,59.7,58.5,59.7,58.2z"/>
	<path fill="#FFC03B" d="M31.7,24.9c0-0.1,0.1-0.2,0.1-0.3C31.8,24.7,31.8,24.8,31.7,24.9z"/>
	<path fill="#FFC03B" d="M60,59.7c0,0.2,0,0.3,0.1,0.5C60,60.1,60,59.9,60,59.7z"/>
	<path fill="#FFC03B" d="M60.1,60.7c0,0.1,0,0.3,0,0.4C60.1,61,60.1,60.9,60.1,60.7z"/>
	<path fill="#FFC03B" d="M69.7,14.8c0-0.1,0-0.2,0-0.3C69.7,14.6,69.7,14.7,69.7,14.8z"/>
	<path fill="#FFC03B" d="M69.7,15.7c0-0.1,0-0.2,0-0.3C69.7,15.5,69.7,15.6,69.7,15.7z"/>
	<path fill="#FFC03B" d="M69.8,16.7c0-0.1,0-0.2,0-0.4C69.8,16.5,69.8,16.6,69.8,16.7z"/>
	<path fill="#FFC03B" d="M70,19c0,0,0-0.1,0-0.1C70,19,70,19,70,19z"/>
	<path fill="#FFC03B" d="M69.9,17.8c0-0.1,0-0.2,0-0.3C69.9,17.6,69.9,17.7,69.9,17.8z"/>
	<path fill="#FFC03B" d="M69.7,14c0-0.1,0-0.1,0-0.2C69.7,13.9,69.7,14,69.7,14z"/>
	<path fill="#FFC03B" d="M71.4,32.1c1.3,10.8,2.9,22.3,3,23.1c0-0.2-0.2-1.4-0.4-3.1l9.8,0.9c0.5-0.3,1-0.5,1.6-0.8c0,0,0,0,0,0
		c0,0,0,0,0,0c0-0.6,0.1-1.2,0.1-1.9c0,0,0,0,0,0c0-0.4,0-0.7,0-1.1c0,0,0.2,0,0.2-0.1c0-0.8,0.3-1.6,0.3-2.5c0-0.1,0-0.1,0-0.2
		c0-0.4,0-0.9,0-1.3c0-0.1,0-0.1,0-0.2c0-0.5,0-0.9,0-1.4c0,0,0,0,0,0c0-0.4-0.2-0.9-0.3-1.4c0-0.1-0.1-0.2-0.1-0.3
		c0-0.4-0.1-0.9-0.1-1.3c0-0.1,0-0.3,0-0.4c0-0.4,0-0.8,0-1.2c0-0.1,0-0.3,0-0.4c0-0.4,0-0.8,0-1.2c0-0.2,0-0.3,0-0.5
		c0-0.4,0-0.9,0-1.3c0-0.2,0-0.3,0-0.5c0-0.2,0-0.5,0-0.7C80.5,33.3,75.9,32.6,71.4,32.1z"/>
	<path fill="#FFC03B" d="M85.3,34c0-0.1,0-0.2,0-0.3c0-0.2,0-0.4,0-0.5c0-0.4,0-0.8-0.1-1.2c0-0.1,0-0.3,0-0.4c0-0.1,0-0.1,0-0.2
		C85.2,32.3,85.2,33.2,85.3,34z"/>
	<path fill="#FFC03B" d="M85.1,30.2c0-0.1,0-0.2,0-0.4c0-0.5-0.1-1-0.1-1.5c0.1,0.9,0.1,1.8,0.2,2.7C85.1,30.8,85.1,30.5,85.1,30.2z
		"/>
	<path fill="#FFC03B" d="M112.6,38.4c0.1-0.2,0.1-0.4,0.2-0.7c0-0.1,0.1-0.3,0.1-0.4c0,0,0-0.1,0-0.1
		C112.8,37.5,112.7,37.9,112.6,38.4z"/>
	<path fill="#FFC03B" d="M116.9,23.3c0-0.2,0.1-0.3,0.1-0.5c0,0,0-0.1,0-0.1C116.9,22.9,116.9,23.1,116.9,23.3z"/>
	<path fill="#FFC03B" d="M106,11.4C106,11.4,105.9,11.4,106,11.4C105.9,11.4,105.9,11.4,106,11.4C105.9,11.4,106,11.4,106,11.4z"/>
	<path fill="#FFC03B" d="M115.9,27.5C115.9,27.5,115.9,27.5,115.9,27.5c0.1-0.3,0.1-0.5,0.2-0.7C116,27,116,27.3,115.9,27.5z"/>
	<path fill="#FFC03B" d="M105,13C104.9,13,104.9,13.1,105,13C104.9,13.1,104.9,13,105,13z"/>
	<path fill="#FFC03B" d="M103.6,16.8c0,0,0,0.1,0,0.1C103.5,16.9,103.6,16.9,103.6,16.8z"/>
	<path fill="#FFC03B" d="M112.5,38.5C112.5,38.5,112.5,38.5,112.5,38.5C112.5,38.6,112.5,38.6,112.5,38.5
		C112.5,38.5,112.5,38.5,112.5,38.5z"/>
	<path fill="#FFC03B" d="M114,34.1c0.1-0.2,0.1-0.5,0.2-0.7c0-0.1,0-0.1,0-0.2C114.1,33.5,114.1,33.8,114,34.1z"/>
	<path fill="#FFC03B" d="M100.9,27.2c0,0,0,0.1,0,0.1c0,0.1-0.1,0.2-0.1,0.4C100.9,27.5,100.9,27.3,100.9,27.2z"/>
	<path fill="#FFC03B" d="M102.1,22.1c0,0.1,0,0.2-0.1,0.2C102.1,22.3,102.1,22.2,102.1,22.1z"/>
	<path fill="#FFC03B" d="M116.2,26.4c0-0.1,0-0.1,0.1-0.2c0-0.2,0.1-0.3,0.1-0.4C116.3,25.9,116.2,26.1,116.2,26.4z"/>
	<path fill="#FFC03B" d="M114.4,32.8c0-0.1,0.1-0.3,0.1-0.4c0-0.1,0.1-0.3,0.1-0.4C114.5,32.2,114.5,32.5,114.4,32.8z"/>
	<path fill="#FFC03B" d="M108.9,40.3c-3.4-1.1-6.8-2.1-10.1-3c0.5-2.7,1.1-5.3,1.6-7.8c-0.1,0.2-0.1,0.5-0.2,0.7
		c-0.1,0.3-0.1,0.6-0.2,0.9c0,0.2-0.1,0.5-0.1,0.7c-0.1,0.3-0.1,0.6-0.2,0.9c0,0.2-0.1,0.4-0.1,0.7c-0.1,0.3-0.1,0.7-0.2,1
		c0,0.1,0,0.2-0.1,0.3c-0.2,0.8-0.3,1.6-0.5,2.4c0,0.1,0,0.2-0.1,0.3c-0.1,0.4-0.2,0.8-0.2,1.2c0,0.2-0.1,0.3-0.1,0.5
		c-0.1,0.4-0.2,0.8-0.2,1.2c0,0.1,0,0.2-0.1,0.3c-0.4,1.9-0.7,3.8-1.1,5.7C101.6,44,105.6,42,108.9,40.3z"/>
	<path fill="#FFC03B" d="M115.1,30.3c0.1-0.3,0.2-0.7,0.3-1c0-0.1,0-0.2,0.1-0.2C115.4,29.5,115.2,29.9,115.1,30.3z"/>
	<path fill="#FFC03B" d="M113.1,36.8c0-0.1,0.1-0.2,0.1-0.3c0.1-0.2,0.1-0.4,0.2-0.6C113.3,36.2,113.2,36.5,113.1,36.8z"/>
	<path fill="#FFC03B" d="M114.8,31.5c0.1-0.2,0.1-0.4,0.2-0.6c0-0.1,0.1-0.2,0.1-0.4C114.9,30.9,114.8,31.2,114.8,31.5z"/>
	<path fill="#FFC03B" d="M100.7,28.4c0,0.2-0.1,0.4-0.1,0.6C100.6,28.8,100.6,28.6,100.7,28.4z"/>
	<path fill="#FFC03B" d="M113.5,35.4c0-0.1,0.1-0.2,0.1-0.3c0.1-0.2,0.1-0.3,0.2-0.5C113.7,34.8,113.6,35.1,113.5,35.4z"/>
	<path fill="#FFC03B" d="M116.7,24.3c0-0.1,0.1-0.3,0.1-0.4c0-0.1,0-0.1,0-0.2C116.7,23.9,116.7,24.1,116.7,24.3z"/>
	<path fill="#FFC03B" d="M116.4,25.3c0-0.1,0-0.2,0.1-0.2c0,0,0,0,0-0.1c0-0.1,0-0.2,0.1-0.3C116.5,24.9,116.5,25.1,116.4,25.3z"/>
	<path opacity="0.69" fill="#5DB65F" d="M32,29.7c0-0.1,0-0.1-0.1-0.2C31.9,29.6,31.9,29.6,32,29.7z"/>
	<path opacity="0.69" fill="#5DB65F" d="M31.8,29.1c0-0.1,0-0.1-0.1-0.2C31.7,28.9,31.8,29,31.8,29.1z"/>
	<path opacity="0.69" fill="#5DB65F" d="M69.7,15.4c0-0.2,0-0.4,0-0.6C69.7,15,69.7,15.2,69.7,15.4z"/>
	<path opacity="0.69" fill="#5DB65F" d="M31.5,26.2c0-0.1,0-0.1,0-0.2C31.5,26,31.5,26.1,31.5,26.2z"/>
	<path opacity="0.69" fill="#5DB65F" d="M31.6,28.5c0-0.1,0-0.1,0-0.2C31.6,28.3,31.6,28.4,31.6,28.5z"/>
	<path opacity="0.69" fill="#5DB65F" d="M85.3,34.2c0,0,0-0.1,0-0.1C85.3,34.2,85.3,34.2,85.3,34.2C85.3,34.2,85.3,34.2,85.3,34.2z"
		/>
	<path opacity="0.69" fill="#5DB65F" d="M111.6,41.2C111.6,41.2,111.6,41.2,111.6,41.2C111.6,41.2,111.6,41.2,111.6,41.2L111.6,41.2
		z"/>
	<path opacity="0.69" fill="#5DB65F" d="M69.7,14.5c0-0.2,0-0.3,0-0.5C69.7,14.2,69.7,14.3,69.7,14.5z"/>
	<path opacity="0.69" fill="#5DB65F" d="M32.2,30.3c0-0.1,0-0.1-0.1-0.2C32.1,30.2,32.1,30.3,32.2,30.3z"/>
	<path opacity="0.69" fill="#5DB65F" d="M32.4,31C32.4,31,32.4,31,32.4,31c0,0,0-0.1,0-0.1C32.4,30.9,32.4,30.9,32.4,31z"/>
	<path opacity="0.69" fill="#5DB65F" d="M71.4,32C71.4,32,71.4,32,71.4,32c-0.6-5-1.1-9.5-1.4-13.1C70.3,22.5,70.9,27,71.4,32z"/>
	<path opacity="0.69" fill="#5DB65F" d="M106,11.4c0.1-0.1,0.1-0.1,0.2-0.2C106.1,11.2,106,11.3,106,11.4z"/>
	<path opacity="0.69" fill="#5DB65F" d="M114.4,32.8c0,0.1-0.1,0.3-0.1,0.4C114.3,33.1,114.3,32.9,114.4,32.8z"/>
	<path opacity="0.69" fill="#5DB65F" d="M69.9,17.5c0-0.3,0-0.5-0.1-0.8C69.8,17,69.9,17.2,69.9,17.5z"/>
	<path opacity="0.69" fill="#5DB65F" d="M69.7,13.3c0,0.2,0,0.4,0,0.6C69.7,13.6,69.7,13.4,69.7,13.3z"/>
	<path opacity="0.69" fill="#5DB65F" d="M116.7,24.3c0,0.1-0.1,0.3-0.1,0.4C116.6,24.5,116.6,24.4,116.7,24.3z"/>
	<path opacity="0.69" fill="#5DB65F" d="M69.8,16.4c0-0.2,0-0.4,0-0.7C69.8,15.9,69.8,16.1,69.8,16.4z"/>
	<path opacity="0.69" fill="#5DB65F" d="M70,18.9c0-0.4-0.1-0.7-0.1-1.1C69.9,18.2,70,18.5,70,18.9z"/>
	<path opacity="0.69" fill="#5DB65F" d="M116.4,25.3c0,0.1-0.1,0.3-0.1,0.4C116.4,25.6,116.4,25.4,116.4,25.3z"/>
	<path opacity="0.69" fill="#5DB65F" d="M105.2,12.5c-0.1,0.2-0.2,0.3-0.3,0.5c0,0,0,0,0,0C105,12.8,105.1,12.7,105.2,12.5z"/>
	<path opacity="0.69" fill="#5DB65F" d="M104.1,15.1c-0.1,0.2-0.1,0.4-0.2,0.5c0-0.1,0-0.1,0.1-0.2C104,15.4,104.1,15.3,104.1,15.1z
		"/>
	<path opacity="0.69" fill="#5DB65F" d="M104.2,14.8c0,0.1-0.1,0.2-0.1,0.3C104.2,15,104.2,15,104.2,14.8
		C104.2,14.9,104.2,14.9,104.2,14.8z"/>
	<path opacity="0.69" fill="#5DB65F" d="M101.1,26.3c0,0.2-0.1,0.4-0.1,0.6c0-0.1,0.1-0.3,0.1-0.4C101.1,26.4,101.1,26.4,101.1,26.3
		z"/>
	<path opacity="0.69" fill="#5DB65F" d="M101.3,25.6c0,0.1,0,0.2-0.1,0.3c0-0.1,0-0.1,0-0.2C101.3,25.7,101.3,25.7,101.3,25.6z"/>
	<path opacity="0.69" fill="#5DB65F" d="M103.9,15.9C103.9,15.8,103.9,15.8,103.9,15.9c-0.1,0.2-0.2,0.6-0.3,0.9c0,0,0,0,0,0
		C103.7,16.5,103.8,16.2,103.9,15.9z"/>
	<path opacity="0.69" fill="#5DB65F" d="M104.4,14.4c0,0.1-0.1,0.2-0.1,0.3c0,0,0-0.1,0-0.1C104.3,14.5,104.4,14.5,104.4,14.4z"/>
	<path opacity="0.69" fill="#5DB65F" d="M104.6,13.9c-0.1,0.1-0.1,0.3-0.2,0.4c0-0.1,0.1-0.2,0.1-0.2
		C104.5,14,104.6,13.9,104.6,13.9z"/>
	<path opacity="0.69" fill="#5DB65F" d="M31.5,27.9c0-0.1,0-0.1,0-0.2C31.5,27.7,31.5,27.8,31.5,27.9z"/>
	<path opacity="0.69" fill="#5DB65F" d="M105.2,12.4C105.2,12.4,105.2,12.5,105.2,12.4C105.2,12.5,105.2,12.4,105.2,12.4
		C105.2,12.4,105.2,12.4,105.2,12.4z"/>
	<path opacity="0.69" fill="#5DB65F" d="M104.9,13.1c-0.1,0.2-0.1,0.3-0.2,0.5C104.8,13.4,104.8,13.3,104.9,13.1
		C104.9,13.1,104.9,13.1,104.9,13.1z"/>
	<polygon opacity="0.69" fill="#5DB65F" points="104.6,13.7 104.6,13.8 104.6,13.8 	"/>
	<path opacity="0.69" fill="#5DB65F" d="M101.6,24.3c0-0.1,0-0.2,0.1-0.2c-0.1,0.4-0.2,0.7-0.3,1.1c0,0,0-0.1,0-0.1
		C101.5,24.8,101.5,24.5,101.6,24.3z"/>
	<path opacity="0.69" fill="#5DB65F" d="M103,18.9c0,0.1-0.1,0.3-0.1,0.4c0-0.1,0-0.1,0-0.2C102.9,19.1,102.9,19,103,18.9z"/>
	<path opacity="0.69" fill="#5DB65F" d="M102.4,21.2c-0.1,0.3-0.2,0.6-0.2,0.9c0-0.1,0-0.1,0-0.1C102.2,21.7,102.3,21.4,102.4,21.2z
		"/>
	<path opacity="0.69" fill="#5DB65F" d="M102.4,20.8c0,0.1,0,0.1-0.1,0.2c0,0,0,0,0-0.1C102.4,20.9,102.4,20.9,102.4,20.8z"/>
	<path opacity="0.69" fill="#5DB65F" d="M103.2,18.1c-0.1,0.2-0.1,0.5-0.2,0.7c0-0.1,0.1-0.2,0.1-0.4
		C103.1,18.3,103.2,18.2,103.2,18.1z"/>
	<path opacity="0.69" fill="#5DB65F" d="M102.7,19.7c0,0,0-0.1,0-0.1c-0.1,0.4-0.2,0.8-0.3,1.2c0-0.1,0.1-0.2,0.1-0.3
		C102.6,20.2,102.7,19.9,102.7,19.7z"/>
	<path opacity="0.69" fill="#5DB65F" d="M103.2,17.9c0,0,0,0.1,0,0.1C103.2,18,103.2,18,103.2,17.9
		C103.2,17.9,103.2,17.9,103.2,17.9z"/>
	<path opacity="0.69" fill="#5DB65F" d="M101.8,23.5c0,0.1,0,0.1,0,0.2C101.7,23.7,101.7,23.6,101.8,23.5
		C101.8,23.6,101.8,23.6,101.8,23.5z"/>
	<path opacity="0.69" fill="#5DB65F" d="M103.5,17c-0.1,0.2-0.1,0.5-0.2,0.8c0.1-0.2,0.1-0.4,0.2-0.6C103.5,17.1,103.5,17,103.5,17z
		"/>
	<path opacity="0.69" fill="#5DB65F" d="M105.4,12.1c0,0.1-0.1,0.2-0.1,0.2c0,0,0,0,0-0.1C105.4,12.2,105.4,12.1,105.4,12.1z"/>
	<path opacity="0.69" fill="#5DB65F" d="M102,22.5c-0.1,0.3-0.1,0.6-0.2,0.9c0-0.2,0.1-0.4,0.1-0.6C102,22.6,102,22.5,102,22.5z"/>
	<path opacity="0.69" fill="#5DB65F" d="M113.4,35.8c0-0.1,0.1-0.2,0.1-0.2C113.4,35.7,113.4,35.7,113.4,35.8
		C113.4,35.8,113.4,35.8,113.4,35.8z"/>
	<path opacity="0.69" fill="#5DB65F" d="M114.6,31.9c0-0.1,0.1-0.2,0.1-0.3C114.7,31.6,114.7,31.7,114.6,31.9
		C114.7,31.8,114.7,31.8,114.6,31.9z"/>
	<path opacity="0.69" fill="#5DB65F" d="M31.5,27.3c0-0.1,0-0.2,0-0.2C31.5,27.1,31.5,27.2,31.5,27.3z"/>
	<path opacity="0.69" fill="#5DB65F" d="M115.1,30.4c0-0.1,0-0.1,0-0.2C115.1,30.3,115.1,30.4,115.1,30.4
		C115.1,30.4,115.1,30.4,115.1,30.4z"/>
	<path opacity="0.69" fill="#5DB65F" d="M31.5,26.7c0-0.1,0-0.2,0-0.2C31.5,26.6,31.5,26.7,31.5,26.7z"/>
	<path opacity="0.69" fill="#5DB65F" d="M115.5,29.1c0-0.1,0-0.2,0.1-0.2C115.5,28.9,115.5,29,115.5,29.1
		C115.5,29,115.5,29.1,115.5,29.1z"/>
	<path opacity="0.69" fill="#5DB65F" d="M100.5,29.1c0,0.1-0.1,0.3-0.1,0.4c0,0,0,0,0,0C100.4,29.4,100.5,29.2,100.5,29.1z"/>
	<path opacity="0.69" fill="#5DB65F" d="M113.8,34.5c0-0.1,0.1-0.3,0.1-0.4c0,0,0,0.1,0,0.1C113.9,34.3,113.8,34.4,113.8,34.5z"/>
	<path opacity="0.69" fill="#5DB65F" d="M85.2,31.3C85.2,31.3,85.2,31.3,85.2,31.3C85.2,31.3,85.2,31.3,85.2,31.3z"/>
	<path opacity="0.69" fill="#5DB65F" d="M133.6,41.7c0.1,0.1,0.1,0.1,0.2,0.2C133.7,41.8,133.7,41.7,133.6,41.7z"/>
	<path opacity="0.69" fill="#5DB65F" d="M100.8,27.7c0,0.2-0.1,0.4-0.1,0.7c0-0.1,0-0.1,0-0.2C100.7,28,100.8,27.8,100.8,27.7z"/>
	<path opacity="0.69" fill="#5DB65F" d="M134.6,43c0,0.1,0.1,0.1,0.1,0.2C134.7,43.2,134.7,43.1,134.6,43z"/>
	<path opacity="0.69" fill="#5DB65F" d="M115.8,27.9c0-0.1,0-0.1,0-0.2C115.8,27.8,115.8,27.8,115.8,27.9
		C115.8,27.9,115.8,27.9,115.8,27.9z"/>
	<path opacity="0.69" fill="#5DB65F" d="M117,22.5c0,0,0-0.1,0-0.1C117,22.4,117,22.5,117,22.5C117,22.5,117,22.5,117,22.5z"/>
	<path opacity="0.69" fill="#5DB65F" d="M105.7,11.7c0,0-0.1,0.1-0.1,0.1C105.6,11.8,105.6,11.8,105.7,11.7
		C105.7,11.7,105.7,11.7,105.7,11.7z"/>
	<path opacity="0.69" fill="#5DB65F" d="M134.9,43.6c0,0.1,0.1,0.1,0.1,0.2C135,43.8,134.9,43.7,134.9,43.6z"/>
	<path opacity="0.69" fill="#5DB65F" d="M105.9,11.5c0,0-0.1,0.1-0.1,0.1C105.8,11.6,105.8,11.5,105.9,11.5
		C105.8,11.5,105.9,11.5,105.9,11.5z"/>
	<path opacity="0.69" fill="#5DB65F" d="M116.8,23.6c0-0.1,0-0.2,0.1-0.3C116.8,23.4,116.8,23.5,116.8,23.6
		C116.8,23.6,116.8,23.6,116.8,23.6z"/>
	<path opacity="0.69" fill="#5DB65F" d="M134,42.1c0.1,0.1,0.1,0.1,0.2,0.2C134.1,42.2,134,42.1,134,42.1z"/>
	<path opacity="0.69" fill="#5DB65F" d="M116.1,26.8c0-0.1,0.1-0.2,0.1-0.3c0,0,0,0.1,0,0.1C116.1,26.6,116.1,26.7,116.1,26.8z"/>
	<path opacity="0.69" fill="#5DB65F" d="M134.3,42.5c0,0.1,0.1,0.1,0.1,0.2C134.4,42.7,134.4,42.6,134.3,42.5z"/>
	<path opacity="0.69" fill="#5DB65F" d="M105.6,11.9c0,0,0,0.1-0.1,0.1C105.5,11.9,105.5,11.9,105.6,11.9
		C105.5,11.9,105.6,11.9,105.6,11.9z"/>
	<path opacity="0.69" fill="#5DB65F" d="M31.9,24.6c0-0.1,0.1-0.1,0.1-0.2C31.9,24.5,31.9,24.6,31.9,24.6z"/>
	<path opacity="0.69" fill="#5DB65F" d="M125.1,42.1c0.1-0.2,0.2-0.3,0.3-0.5C125.3,41.8,125.2,42,125.1,42.1z"/>
	<path opacity="0.69" fill="#5DB65F" d="M125.5,41.4c0.1-0.1,0.2-0.3,0.2-0.4C125.7,41.2,125.6,41.3,125.5,41.4z"/>
	<path opacity="0.69" fill="#5DB65F" d="M125.8,40.9c0.1-0.1,0.2-0.2,0.3-0.3C126,40.7,125.9,40.8,125.8,40.9z"/>
	<path opacity="0.69" fill="#5DB65F" d="M124.6,43.2c0.1-0.3,0.3-0.6,0.4-0.8C124.8,42.6,124.7,42.9,124.6,43.2z"/>
	<path opacity="0.69" fill="#5DB65F" d="M124.1,44.1c0.1-0.2,0.2-0.5,0.3-0.7C124.3,43.7,124.2,43.9,124.1,44.1z"/>
	<path opacity="0.69" fill="#5DB65F" d="M123.6,45.2c0.1-0.2,0.2-0.4,0.3-0.6C123.8,44.8,123.7,45,123.6,45.2z"/>
	<path opacity="0.69" fill="#5DB65F" d="M132.6,40.9c0.1,0.1,0.3,0.2,0.4,0.3C132.9,41,132.8,41,132.6,40.9z"/>
	<path opacity="0.69" fill="#5DB65F" d="M133.2,41.3c0.1,0.1,0.2,0.1,0.2,0.2C133.3,41.4,133.3,41.3,133.2,41.3z"/>
	<path opacity="0.69" fill="#5DB65F" d="M33.2,22.8c0,0,0.1-0.1,0.1-0.1C33.2,22.7,33.2,22.7,33.2,22.8z"/>
	<path opacity="0.69" fill="#5DB65F" d="M32.7,23.2c0-0.1,0.1-0.1,0.1-0.2C32.8,23.1,32.8,23.2,32.7,23.2z"/>
	<path opacity="0.69" fill="#5DB65F" d="M40.9,21.4c0.1,0,0.2,0.1,0.3,0.1C41.1,21.5,41,21.4,40.9,21.4z"/>
	<path opacity="0.69" fill="#5DB65F" d="M42.1,22c0,0,0.1,0,0.1,0.1C42.2,22.1,42.1,22.1,42.1,22z"/>
	<path opacity="0.69" fill="#5DB65F" d="M32.4,23.7c0-0.1,0.1-0.1,0.1-0.2C32.5,23.5,32.4,23.6,32.4,23.7z"/>
	<path opacity="0.69" fill="#5DB65F" d="M135.5,46.5c0,0.1,0,0.2,0,0.3C135.5,46.7,135.5,46.6,135.5,46.5z"/>
	<path opacity="0.69" fill="#5DB65F" d="M135.5,48.4c0,0.1,0,0.2,0,0.3C135.5,48.6,135.5,48.5,135.5,48.4z"/>
	<path opacity="0.69" fill="#5DB65F" d="M135.5,47.4c0,0.1,0,0.2,0,0.3C135.5,47.6,135.5,47.5,135.5,47.4z"/>
	<path opacity="0.69" fill="#5DB65F" d="M135.4,49.4c0,0.1,0,0.2,0,0.3C135.3,49.6,135.3,49.5,135.4,49.4z"/>
	<path opacity="0.69" fill="#5DB65F" d="M44.4,24C44.5,24,44.5,24.1,44.4,24C44.5,24.1,44.5,24,44.4,24z"/>
	<polygon opacity="0.69" fill="#5DB65F" points="134.9,51.8 134.9,51.8 134.9,51.8 	"/>
	<path opacity="0.69" fill="#5DB65F" d="M135.1,50.6c0,0.1,0,0.1,0,0.2C135.1,50.7,135.1,50.6,135.1,50.6z"/>
	<path opacity="0.69" fill="#5DB65F" d="M135.1,44.2c0,0.1,0,0.2,0.1,0.2C135.2,44.4,135.2,44.3,135.1,44.2z"/>
	<path opacity="0.69" fill="#5DB65F" d="M123.3,45.9C123.3,45.9,123.3,45.9,123.3,45.9c0-0.1,0.1-0.1,0.1-0.2
		C123.3,45.8,123.3,45.8,123.3,45.9z"/>
	<path opacity="0.69" fill="#5DB65F" d="M46.8,26.9C46.8,26.9,46.8,26.9,46.8,26.9C46.8,26.9,46.8,26.9,46.8,26.9z"/>
	<path opacity="0.69" fill="#5DB65F" d="M135.4,45.7c0,0.1,0,0.2,0,0.3C135.5,45.9,135.5,45.8,135.4,45.7z"/>
	<path opacity="0.69" fill="#5DB65F" d="M135.3,44.9c0,0.1,0,0.2,0,0.2C135.3,45.1,135.3,45,135.3,44.9z"/>
	<path opacity="0.69" fill="#5DB65F" d="M43.3,22.9c0.1,0,0.1,0.1,0.2,0.1C43.4,23,43.3,23,43.3,22.9z"/>
	<path opacity="0.69" fill="#5DB65F" d="M32.1,24.1c0-0.1,0.1-0.1,0.1-0.2C32.2,24,32.1,24.1,32.1,24.1z"/>
	<path opacity="0.69" fill="#5DB65F" d="M31.7,25.1c0-0.1,0-0.1,0.1-0.2C31.7,25,31.7,25.1,31.7,25.1z"/>
	<path opacity="0.69" fill="#5DB65F" d="M31.6,25.6c0-0.1,0-0.1,0-0.2C31.6,25.5,31.6,25.6,31.6,25.6z"/>
	<path fill="#00A9DE" d="M85.3,34.2C85.3,34.2,85.3,34.2,85.3,34.2c0,0,0-0.1,0-0.1c0,0,0-0.1,0-0.1C85.3,34.1,85.3,34.2,85.3,34.2z
		"/>
	<path opacity="0.69" fill="#5DB65F" d="M85.3,34.2C85.3,34.2,85.3,34.2,85.3,34.2c0,0,0-0.1,0-0.1c0,0,0-0.1,0-0.1
		C85.3,34.1,85.3,34.2,85.3,34.2z"/>
	<path fill="#00A9DE" d="M85.2,31.4c0,0,0-0.1,0-0.1c0,0,0,0,0,0c0-0.1,0-0.1,0-0.2C85.2,31.2,85.2,31.3,85.2,31.4z"/>
	<path opacity="0.69" fill="#5DB65F" d="M85.2,31.4c0,0,0-0.1,0-0.1c0,0,0,0,0,0c0-0.1,0-0.1,0-0.2C85.2,31.2,85.2,31.3,85.2,31.4z"
		/>
	<path fill="#00A9DE" d="M101.8,23.6c0,0.1,0,0.1,0,0.2c0,0.1,0,0.2-0.1,0.3c0,0.1,0,0.2-0.1,0.2C101.6,24.1,101.7,23.8,101.8,23.6z
		"/>
	<path opacity="0.69" fill="#5DB65F" d="M101.8,23.6c0,0.1,0,0.1,0,0.2c0,0.1,0,0.2-0.1,0.3c0,0.1,0,0.2-0.1,0.2
		C101.6,24.1,101.7,23.8,101.8,23.6z"/>
	<path fill="#00A9DE" d="M115,30.6c0,0,0-0.1,0-0.1c0,0,0,0,0,0C115.1,30.5,115,30.5,115,30.6z"/>
	<path opacity="0.69" fill="#5DB65F" d="M115,30.6c0,0,0-0.1,0-0.1c0,0,0,0,0,0C115.1,30.5,115,30.5,115,30.6z"/>
	<path fill="#00A9DE" d="M101.4,25C101.4,25.1,101.4,25.1,101.4,25c-0.1,0.3-0.1,0.4-0.1,0.6c0,0,0,0.1,0,0.1
		C101.3,25.5,101.4,25.3,101.4,25z"/>
	<path opacity="0.69" fill="#5DB65F" d="M101.4,25C101.4,25.1,101.4,25.1,101.4,25c-0.1,0.3-0.1,0.4-0.1,0.6c0,0,0,0.1,0,0.1
		C101.3,25.5,101.4,25.3,101.4,25z"/>
	<path fill="#00A9DE" d="M117,22.7c0-0.1,0-0.1,0-0.2c0,0,0,0,0,0C117,22.6,117,22.6,117,22.7z"/>
	<path opacity="0.69" fill="#5DB65F" d="M117,22.7c0-0.1,0-0.1,0-0.2c0,0,0,0,0,0C117,22.6,117,22.6,117,22.7z"/>
	<path fill="#00A9DE" d="M105.9,11.4C105.9,11.4,105.9,11.5,105.9,11.4C105.9,11.5,105.8,11.5,105.9,11.4
		C105.9,11.5,105.9,11.4,105.9,11.4z"/>
	<path opacity="0.69" fill="#5DB65F" d="M105.9,11.4C105.9,11.4,105.9,11.5,105.9,11.4C105.9,11.5,105.8,11.5,105.9,11.4
		C105.9,11.5,105.9,11.4,105.9,11.4z"/>
	<path fill="#00A9DE" d="M114.6,31.9C114.6,31.9,114.6,31.9,114.6,31.9c0-0.1,0-0.1,0-0.1C114.7,31.8,114.6,31.9,114.6,31.9z"/>
	<path opacity="0.69" fill="#5DB65F" d="M114.6,31.9C114.6,31.9,114.6,31.9,114.6,31.9c0-0.1,0-0.1,0-0.1
		C114.7,31.8,114.6,31.9,114.6,31.9z"/>
	<path fill="#00A9DE" d="M115.8,27.8C115.8,27.8,115.8,27.8,115.8,27.8c0-0.2,0.1-0.2,0.1-0.3C115.9,27.6,115.8,27.7,115.8,27.8z"/>
	<path opacity="0.69" fill="#5DB65F" d="M115.8,27.8C115.8,27.8,115.8,27.8,115.8,27.8c0-0.2,0.1-0.2,0.1-0.3
		C115.9,27.6,115.8,27.7,115.8,27.8z"/>
	<path fill="#00A9DE" d="M113.9,34.2c0,0,0-0.1,0-0.1c0,0,0,0,0,0C113.9,34.1,113.9,34.2,113.9,34.2z"/>
	<path opacity="0.69" fill="#5DB65F" d="M113.9,34.2c0,0,0-0.1,0-0.1c0,0,0,0,0,0C113.9,34.1,113.9,34.2,113.9,34.2z"/>
	<polygon fill="#00A9DE" points="104.9,13.1 104.9,13.1 104.9,13.1 	"/>
	<polygon opacity="0.69" fill="#5DB65F" points="104.9,13.1 104.9,13.1 104.9,13.1 	"/>
	<path fill="#00A9DE" d="M101.1,26.5c0,0.1-0.1,0.3-0.1,0.4c0,0.1,0,0.2-0.1,0.2C101,26.9,101,26.7,101.1,26.5z"/>
	<path opacity="0.69" fill="#5DB65F" d="M101.1,26.5c0,0.1-0.1,0.3-0.1,0.4c0,0.1,0,0.2-0.1,0.2C101,26.9,101,26.7,101.1,26.5z"/>
	<path fill="#00A9DE" d="M104.6,13.8C104.6,13.8,104.6,13.8,104.6,13.8c0,0,0,0.1-0.1,0.1c0,0.1,0,0.1-0.1,0.2
		C104.6,13.9,104.6,13.8,104.6,13.8z"/>
	<path opacity="0.69" fill="#5DB65F" d="M104.6,13.8C104.6,13.8,104.6,13.8,104.6,13.8c0,0,0,0.1-0.1,0.1c0,0.1,0,0.1-0.1,0.2
		C104.6,13.9,104.6,13.8,104.6,13.8z"/>
	<path fill="#00A9DE" d="M104.3,14.6c0,0,0,0.1,0,0.1c0,0,0,0.1,0,0.1c0,0,0,0.1,0,0.1C104.2,14.8,104.3,14.7,104.3,14.6z"/>
	<path opacity="0.69" fill="#5DB65F" d="M104.3,14.6c0,0,0,0.1,0,0.1c0,0,0,0.1,0,0.1c0,0,0,0.1,0,0.1
		C104.2,14.8,104.3,14.7,104.3,14.6z"/>
	<path fill="#00A9DE" d="M102.6,20.4c0,0.1-0.1,0.2-0.1,0.3c0,0,0,0,0,0.1c0,0.1,0,0.1,0,0.2C102.5,20.8,102.5,20.6,102.6,20.4z"/>
	<path opacity="0.69" fill="#5DB65F" d="M102.6,20.4c0,0.1-0.1,0.2-0.1,0.3c0,0,0,0,0,0.1c0,0.1,0,0.1,0,0.2
		C102.5,20.8,102.5,20.6,102.6,20.4z"/>
	<path fill="#00A9DE" d="M116.1,26.5C116.1,26.5,116.1,26.5,116.1,26.5c0-0.1,0-0.1,0-0.2C116.2,26.4,116.1,26.5,116.1,26.5z"/>
	<path opacity="0.69" fill="#5DB65F" d="M116.1,26.5C116.1,26.5,116.1,26.5,116.1,26.5c0-0.1,0-0.1,0-0.2
		C116.2,26.4,116.1,26.5,116.1,26.5z"/>
	<path fill="#00A9DE" d="M116.8,23.7C116.8,23.6,116.8,23.6,116.8,23.7c0-0.1,0-0.1,0-0.1C116.8,23.6,116.8,23.6,116.8,23.7z"/>
	<path opacity="0.69" fill="#5DB65F" d="M116.8,23.7C116.8,23.6,116.8,23.6,116.8,23.7c0-0.1,0-0.1,0-0.1
		C116.8,23.6,116.8,23.6,116.8,23.7z"/>
	<path fill="#00A9DE" d="M102.1,22.4C102,22.4,102,22.4,102.1,22.4c0,0.2-0.1,0.3-0.1,0.4C102,22.6,102,22.5,102.1,22.4z"/>
	<path opacity="0.69" fill="#5DB65F" d="M102.1,22.4C102,22.4,102,22.4,102.1,22.4c0,0.2-0.1,0.3-0.1,0.4
		C102,22.6,102,22.5,102.1,22.4z"/>
	<path fill="#00A9DE" d="M103.2,18C103.2,18,103.2,18,103.2,18c0,0.1,0,0.1-0.1,0.2c0,0.1-0.1,0.2-0.1,0.3
		C103.1,18.3,103.2,18.1,103.2,18z"/>
	<path opacity="0.69" fill="#5DB65F" d="M103.2,18C103.2,18,103.2,18,103.2,18c0,0.1,0,0.1-0.1,0.2c0,0.1-0.1,0.2-0.1,0.3
		C103.1,18.3,103.2,18.1,103.2,18z"/>
	<path fill="#00A9DE" d="M102.2,21.9c0,0.1,0,0.1,0,0.1c0,0,0,0,0,0C102.1,22.1,102.1,22,102.2,21.9z"/>
	<path opacity="0.69" fill="#5DB65F" d="M102.2,21.9c0,0.1,0,0.1,0,0.1c0,0,0,0,0,0C102.1,22.1,102.1,22,102.2,21.9z"/>
	<path fill="#00A9DE" d="M115.5,29.1C115.5,29.1,115.5,29.1,115.5,29.1C115.5,29.1,115.5,29,115.5,29.1
		C115.5,29,115.5,29.1,115.5,29.1z"/>
	<path opacity="0.69" fill="#5DB65F" d="M115.5,29.1C115.5,29.1,115.5,29.1,115.5,29.1C115.5,29.1,115.5,29,115.5,29.1
		C115.5,29,115.5,29.1,115.5,29.1z"/>
	<path fill="#00A9DE" d="M112.5,38.5c0,0,0-0.1,0-0.1C112.5,38.4,112.5,38.4,112.5,38.5z"/>
	<path opacity="0.69" fill="#5DB65F" d="M112.5,38.5c0,0,0-0.1,0-0.1C112.5,38.4,112.5,38.4,112.5,38.5z"/>
	<path fill="#00A9DE" d="M104,15.5c0,0.1,0,0.1-0.1,0.2c0,0,0,0.1,0,0.1c0,0,0,0.1,0,0.1C103.9,15.7,104,15.6,104,15.5z"/>
	<path opacity="0.69" fill="#5DB65F" d="M104,15.5c0,0.1,0,0.1-0.1,0.2c0,0,0,0.1,0,0.1c0,0,0,0.1,0,0.1
		C103.9,15.7,104,15.6,104,15.5z"/>
	<path fill="#00A9DE" d="M105.3,12.3C105.3,12.3,105.3,12.3,105.3,12.3c-0.1,0.1-0.1,0.1-0.1,0.2c0,0,0,0,0,0
		C105.3,12.4,105.3,12.3,105.3,12.3z"/>
	<path opacity="0.69" fill="#5DB65F" d="M105.3,12.3C105.3,12.3,105.3,12.3,105.3,12.3c-0.1,0.1-0.1,0.1-0.1,0.2c0,0,0,0,0,0
		C105.3,12.4,105.3,12.3,105.3,12.3z"/>
	<path fill="#00A9DE" d="M100.5,29c0,0,0,0.1,0,0.1c0,0.1-0.1,0.3-0.1,0.4C100.5,29.3,100.5,29.1,100.5,29z"/>
	<path opacity="0.69" fill="#5DB65F" d="M100.5,29c0,0,0,0.1,0,0.1c0,0.1-0.1,0.3-0.1,0.4C100.5,29.3,100.5,29.1,100.5,29z"/>
	<path fill="#00A9DE" d="M113,37.1c0-0.1,0.1-0.2,0.1-0.3C113,36.9,113,37,113,37.1z"/>
	<path opacity="0.69" fill="#5DB65F" d="M113,37.1c0-0.1,0.1-0.2,0.1-0.3C113,36.9,113,37,113,37.1z"/>
	<path fill="#00A9DE" d="M102.9,19.1c0,0.1,0,0.1,0,0.2c0,0.1,0,0.2-0.1,0.3c0,0,0,0.1,0,0.1C102.8,19.5,102.8,19.3,102.9,19.1z"/>
	<path opacity="0.69" fill="#5DB65F" d="M102.9,19.1c0,0.1,0,0.1,0,0.2c0,0.1,0,0.2-0.1,0.3c0,0,0,0.1,0,0.1
		C102.8,19.5,102.8,19.3,102.9,19.1z"/>
	<path fill="#00A9DE" d="M103.6,16.8C103.6,16.8,103.6,16.8,103.6,16.8C103.6,16.8,103.6,16.8,103.6,16.8
		C103.6,16.8,103.6,16.8,103.6,16.8z"/>
	<path opacity="0.69" fill="#5DB65F" d="M103.6,16.8C103.6,16.8,103.6,16.8,103.6,16.8C103.6,16.8,103.6,16.8,103.6,16.8
		C103.6,16.8,103.6,16.8,103.6,16.8z"/>
	<polygon fill="#00A9DE" points="105,13 105,13 105,13 	"/>
	<polygon opacity="0.69" fill="#5DB65F" points="105,13 105,13 105,13 	"/>
	<path fill="#00A9DE" d="M105.6,11.8C105.6,11.8,105.6,11.8,105.6,11.8C105.6,11.8,105.6,11.9,105.6,11.8c-0.1,0.1-0.1,0.1-0.1,0.2
		C105.6,11.9,105.6,11.8,105.6,11.8z"/>
	<path opacity="0.69" fill="#5DB65F" d="M105.6,11.8C105.6,11.8,105.6,11.8,105.6,11.8C105.6,11.8,105.6,11.9,105.6,11.8
		c-0.1,0.1-0.1,0.1-0.1,0.2C105.6,11.9,105.6,11.8,105.6,11.8z"/>
	<path fill="#00A9DE" d="M100.7,28.1c0,0.1,0,0.1,0,0.2c0,0,0,0,0,0C100.7,28.3,100.7,28.2,100.7,28.1z"/>
	<path opacity="0.69" fill="#5DB65F" d="M100.7,28.1c0,0.1,0,0.1,0,0.2c0,0,0,0,0,0C100.7,28.3,100.7,28.2,100.7,28.1z"/>
	<path fill="#00A9DE" d="M113.4,35.8c0-0.1,0-0.1,0.1-0.2c0-0.1,0-0.1,0.1-0.2C113.5,35.5,113.5,35.7,113.4,35.8z"/>
	<path opacity="0.69" fill="#5DB65F" d="M113.4,35.8c0-0.1,0-0.1,0.1-0.2c0-0.1,0-0.1,0.1-0.2C113.5,35.5,113.5,35.7,113.4,35.8z"/>
	<path fill="#00A9DE" d="M108.9,40.3c0.9,0.3,1.8,0.6,2.7,0.9c0,0,0,0,0,0c0.3-0.9,0.6-1.8,0.9-2.6
		C111.4,39.1,110.2,39.7,108.9,40.3z"/>
	<path opacity="0.69" fill="#5DB65F" d="M108.9,40.3c0.9,0.3,1.8,0.6,2.7,0.9c0,0,0,0,0,0c0.3-0.9,0.6-1.8,0.9-2.6
		C111.4,39.1,110.2,39.7,108.9,40.3z"/>
	<path fill="#00A9DE" d="M103.5,17C103.5,17,103.5,17,103.5,17c0,0.1,0,0.1,0,0.2C103.5,17.1,103.5,17,103.5,17z"/>
	<path opacity="0.69" fill="#5DB65F" d="M103.5,17C103.5,17,103.5,17,103.5,17c0,0.1,0,0.1,0,0.2C103.5,17.1,103.5,17,103.5,17z"/>
	<path fill="#00A9DE" d="M135.1,50.6c0.1-0.3,0.1-0.6,0.2-0.9c0-0.1,0-0.2,0-0.3c0-0.3,0.1-0.5,0.1-0.8c0-0.1,0-0.2,0-0.3
		c0-0.2,0-0.5,0-0.7c0-0.1,0-0.2,0-0.3c0-0.2,0-0.4,0-0.6c0-0.1,0-0.2,0-0.3c0-0.2,0-0.4,0-0.6c0-0.1,0-0.2,0-0.3
		c0-0.2-0.1-0.3-0.1-0.5c0-0.1,0-0.2,0-0.2c0-0.2-0.1-0.3-0.1-0.5c0-0.1,0-0.2-0.1-0.2c0-0.1-0.1-0.3-0.1-0.4c0-0.1-0.1-0.1-0.1-0.2
		c-0.1-0.1-0.1-0.2-0.2-0.4c0-0.1-0.1-0.1-0.1-0.2c-0.1-0.1-0.1-0.2-0.2-0.3c0-0.1-0.1-0.1-0.1-0.2c-0.1-0.1-0.1-0.2-0.2-0.3
		c-0.1-0.1-0.1-0.1-0.2-0.2c-0.1-0.1-0.1-0.2-0.2-0.2c-0.1-0.1-0.1-0.1-0.2-0.2c-0.1-0.1-0.1-0.1-0.2-0.2c-0.1-0.1-0.2-0.1-0.2-0.2
		c0,0-0.1-0.1-0.1-0.1c-0.1-0.1-0.3-0.2-0.4-0.3c-2.2-1.5-5.2-1.3-6.5-0.2c-0.1,0.1-0.2,0.2-0.3,0.3c0,0-0.1,0.1-0.1,0.1
		c-0.1,0.1-0.2,0.2-0.2,0.4c0,0.1-0.1,0.1-0.1,0.2c-0.1,0.1-0.2,0.3-0.3,0.5c0,0.1-0.1,0.1-0.1,0.2c-0.1,0.3-0.3,0.5-0.4,0.8
		c0,0.1-0.1,0.2-0.1,0.3c-0.1,0.2-0.2,0.4-0.3,0.7c-0.1,0.2-0.1,0.3-0.2,0.5c-0.1,0.2-0.2,0.4-0.3,0.6c-0.1,0.2-0.2,0.3-0.2,0.5
		c0,0.1,0,0.1,0,0.2c3.9,1.8,7.7,3.7,11.7,5.9c0,0,0,0,0,0c0-0.3,0.1-0.7,0.2-1C135.2,50.7,135.1,50.6,135.1,50.6z"/>
	<path opacity="0.69" fill="#5DB65F" d="M135.1,50.6c0.1-0.3,0.1-0.6,0.2-0.9c0-0.1,0-0.2,0-0.3c0-0.3,0.1-0.5,0.1-0.8
		c0-0.1,0-0.2,0-0.3c0-0.2,0-0.5,0-0.7c0-0.1,0-0.2,0-0.3c0-0.2,0-0.4,0-0.6c0-0.1,0-0.2,0-0.3c0-0.2,0-0.4,0-0.6c0-0.1,0-0.2,0-0.3
		c0-0.2-0.1-0.3-0.1-0.5c0-0.1,0-0.2,0-0.2c0-0.2-0.1-0.3-0.1-0.5c0-0.1,0-0.2-0.1-0.2c0-0.1-0.1-0.3-0.1-0.4c0-0.1-0.1-0.1-0.1-0.2
		c-0.1-0.1-0.1-0.2-0.2-0.4c0-0.1-0.1-0.1-0.1-0.2c-0.1-0.1-0.1-0.2-0.2-0.3c0-0.1-0.1-0.1-0.1-0.2c-0.1-0.1-0.1-0.2-0.2-0.3
		c-0.1-0.1-0.1-0.1-0.2-0.2c-0.1-0.1-0.1-0.2-0.2-0.2c-0.1-0.1-0.1-0.1-0.2-0.2c-0.1-0.1-0.1-0.1-0.2-0.2c-0.1-0.1-0.2-0.1-0.2-0.2
		c0,0-0.1-0.1-0.1-0.1c-0.1-0.1-0.3-0.2-0.4-0.3c-2.2-1.5-5.2-1.3-6.5-0.2c-0.1,0.1-0.2,0.2-0.3,0.3c0,0-0.1,0.1-0.1,0.1
		c-0.1,0.1-0.2,0.2-0.2,0.4c0,0.1-0.1,0.1-0.1,0.2c-0.1,0.1-0.2,0.3-0.3,0.5c0,0.1-0.1,0.1-0.1,0.2c-0.1,0.3-0.3,0.5-0.4,0.8
		c0,0.1-0.1,0.2-0.1,0.3c-0.1,0.2-0.2,0.4-0.3,0.7c-0.1,0.2-0.1,0.3-0.2,0.5c-0.1,0.2-0.2,0.4-0.3,0.6c-0.1,0.2-0.2,0.3-0.2,0.5
		c0,0.1,0,0.1,0,0.2c3.9,1.8,7.7,3.7,11.7,5.9c0,0,0,0,0,0c0-0.3,0.1-0.7,0.2-1C135.2,50.7,135.1,50.6,135.1,50.6z"/>
	<path fill="#FFC03B" d="M49,30.6c-0.7-1.4-1.5-2.6-2.2-3.7c0,0,0,0,0,0c-0.7-1.1-1.5-2-2.2-2.8c0,0-0.1-0.1-0.1-0.1
		c-0.3-0.3-0.7-0.7-1-1c-0.1,0-0.1-0.1-0.2-0.1c-0.4-0.3-0.7-0.6-1.1-0.8c0,0-0.1,0-0.1-0.1c-0.3-0.2-0.6-0.4-0.9-0.5
		c-0.1,0-0.2-0.1-0.3-0.1c-0.4-0.2-0.7-0.3-1.1-0.4c-2.1-0.6-4.2-0.2-6,1.3c-0.2,0.1-0.3,0.3-0.5,0.4c0,0-0.1,0.1-0.1,0.1
		C33.1,22.9,33,23,32.9,23c-0.1,0.1-0.1,0.1-0.1,0.2c-0.1,0.1-0.2,0.2-0.2,0.3c0,0.1-0.1,0.1-0.1,0.2c-0.1,0.1-0.1,0.2-0.2,0.3
		c0,0.1-0.1,0.1-0.1,0.2c0,0.1-0.1,0.2-0.1,0.3c0,0.1-0.1,0.1-0.1,0.2c0,0.1-0.1,0.2-0.1,0.3c0,0.1,0,0.1-0.1,0.2
		c0,0.1-0.1,0.2-0.1,0.3c0,0.1,0,0.1,0,0.2c0,0.1,0,0.2-0.1,0.3c0,0.1,0,0.1,0,0.2c0,0.1,0,0.2,0,0.3c0,0.1,0,0.2,0,0.2
		c0,0.1,0,0.2,0,0.3c0,0.1,0,0.2,0,0.2c0,0.1,0,0.2,0,0.4c0,0.1,0,0.1,0,0.2c0,0.1,0,0.2,0.1,0.4c0,0.1,0,0.1,0,0.2
		c0,0.1,0.1,0.3,0.1,0.4c0,0.1,0,0.1,0.1,0.2c0,0.1,0.1,0.3,0.1,0.4c0,0.1,0,0.1,0.1,0.2c0,0.2,0.1,0.3,0.2,0.5c0,0.1,0,0.1,0.1,0.2
		c0.1,0.2,0.1,0.3,0.2,0.5c0,0,0,0.1,0,0.1C36.6,30.7,42.2,30.5,49,30.6z"/>
	<path opacity="0.69" fill="#5DB65F" d="M49,30.6c-0.7-1.4-1.5-2.6-2.2-3.7c0,0,0,0,0,0c-0.7-1.1-1.5-2-2.2-2.8c0,0-0.1-0.1-0.1-0.1
		c-0.3-0.3-0.7-0.7-1-1c-0.1,0-0.1-0.1-0.2-0.1c-0.4-0.3-0.7-0.6-1.1-0.8c0,0-0.1,0-0.1-0.1c-0.3-0.2-0.6-0.4-0.9-0.5
		c-0.1,0-0.2-0.1-0.3-0.1c-0.4-0.2-0.7-0.3-1.1-0.4c-2.1-0.6-4.2-0.2-6,1.3c-0.2,0.1-0.3,0.3-0.5,0.4c0,0-0.1,0.1-0.1,0.1
		C33.1,22.9,33,23,32.9,23c-0.1,0.1-0.1,0.1-0.1,0.2c-0.1,0.1-0.2,0.2-0.2,0.3c0,0.1-0.1,0.1-0.1,0.2c-0.1,0.1-0.1,0.2-0.2,0.3
		c0,0.1-0.1,0.1-0.1,0.2c0,0.1-0.1,0.2-0.1,0.3c0,0.1-0.1,0.1-0.1,0.2c0,0.1-0.1,0.2-0.1,0.3c0,0.1,0,0.1-0.1,0.2
		c0,0.1-0.1,0.2-0.1,0.3c0,0.1,0,0.1,0,0.2c0,0.1,0,0.2-0.1,0.3c0,0.1,0,0.1,0,0.2c0,0.1,0,0.2,0,0.3c0,0.1,0,0.2,0,0.2
		c0,0.1,0,0.2,0,0.3c0,0.1,0,0.2,0,0.2c0,0.1,0,0.2,0,0.4c0,0.1,0,0.1,0,0.2c0,0.1,0,0.2,0.1,0.4c0,0.1,0,0.1,0,0.2
		c0,0.1,0.1,0.3,0.1,0.4c0,0.1,0,0.1,0.1,0.2c0,0.1,0.1,0.3,0.1,0.4c0,0.1,0,0.1,0.1,0.2c0,0.2,0.1,0.3,0.2,0.5c0,0.1,0,0.1,0.1,0.2
		c0.1,0.2,0.1,0.3,0.2,0.5c0,0,0,0.1,0,0.1C36.6,30.7,42.2,30.5,49,30.6z"/>
	<path fill="#FFC03B" d="M69.7,14c0,0.2,0,0.3,0,0.5c0,0.1,0,0.2,0,0.3c0,0.2,0,0.4,0,0.6c0,0.1,0,0.2,0,0.3c0,0.2,0,0.4,0,0.7
		c0,0.1,0,0.2,0,0.4c0,0.3,0,0.5,0.1,0.8c0,0.1,0,0.2,0,0.3c0,0.4,0.1,0.7,0.1,1.1c0,0,0,0.1,0,0.1c0.3,3.6,0.9,8.3,1.4,13.1
		c4.5,0.5,9.1,1.2,13.8,2.1c0-0.1,0-0.1,0-0.2c0-0.9-0.1-1.8-0.1-2.7c0-0.1,0-0.2,0-0.3c0-0.9-0.1-1.8-0.2-2.7
		c-1.3-21-3.8-24.4-5.9-25c-2.2-0.6-4.2-0.4-5.7,0.8c-2.2,1.5-3.5,4.8-3.7,9.1c0,0.2,0,0.3,0,0.6C69.7,13.9,69.7,14,69.7,14z"/>
	<path opacity="0.69" fill="#5DB65F" d="M69.7,14c0,0.2,0,0.3,0,0.5c0,0.1,0,0.2,0,0.3c0,0.2,0,0.4,0,0.6c0,0.1,0,0.2,0,0.3
		c0,0.2,0,0.4,0,0.7c0,0.1,0,0.2,0,0.4c0,0.3,0,0.5,0.1,0.8c0,0.1,0,0.2,0,0.3c0,0.4,0.1,0.7,0.1,1.1c0,0,0,0.1,0,0.1
		c0.3,3.6,0.9,8.3,1.4,13.1c4.5,0.5,9.1,1.2,13.8,2.1c0-0.1,0-0.1,0-0.2c0-0.9-0.1-1.8-0.1-2.7c0-0.1,0-0.2,0-0.3
		c0-0.9-0.1-1.8-0.2-2.7c-1.3-21-3.8-24.4-5.9-25c-2.2-0.6-4.2-0.4-5.7,0.8c-2.2,1.5-3.5,4.8-3.7,9.1c0,0.2,0,0.3,0,0.6
		C69.7,13.9,69.7,14,69.7,14z"/>
	<path fill="#FFC03B" d="M98.8,37.3c3.3,0.9,6.7,1.9,10.1,3c1.3-0.6,2.5-1.2,3.6-1.8c0,0,0-0.1,0-0.1c0,0,0-0.1,0-0.1
		c0.1-0.4,0.3-0.8,0.4-1.2c0-0.1,0.1-0.2,0.1-0.3c0.1-0.3,0.2-0.6,0.3-1c0,0,0,0,0,0c0-0.1,0.1-0.3,0.1-0.4c0.1-0.3,0.2-0.6,0.3-0.9
		c0-0.1,0.1-0.2,0.1-0.3c0,0,0-0.1,0-0.1c0.1-0.3,0.2-0.6,0.3-0.8c0-0.1,0.1-0.3,0.1-0.4c0.1-0.3,0.2-0.6,0.3-0.8c0,0,0-0.1,0-0.1
		c0-0.1,0.1-0.2,0.1-0.3c0.1-0.3,0.2-0.6,0.3-0.9c0-0.1,0-0.1,0-0.2c0,0,0-0.1,0-0.1c0.1-0.4,0.2-0.8,0.3-1.2c0,0,0,0,0,0
		c0-0.1,0-0.1,0.1-0.2c0.1-0.3,0.2-0.6,0.3-0.9c0,0,0-0.1,0-0.1c0-0.1,0.1-0.2,0.1-0.3c0.1-0.2,0.1-0.5,0.2-0.7c0-0.1,0-0.2,0.1-0.3
		c0-0.1,0-0.1,0-0.2c0.1-0.2,0.1-0.4,0.2-0.7c0-0.1,0.1-0.3,0.1-0.4c0-0.2,0.1-0.4,0.1-0.6c0-0.1,0.1-0.3,0.1-0.4
		c0-0.2,0.1-0.4,0.1-0.6c0,0,0-0.1,0-0.1c0-0.1,0-0.2,0.1-0.3c0-0.2,0.1-0.4,0.1-0.6c0-0.1,0-0.1,0-0.2c0,0,0-0.1,0-0.1
		c0-0.3,0.1-0.6,0.1-0.8c0.8-6.5-1.3-9.3-3.2-10.5c-2.6-1.6-5.8-1.1-7.8,0.1c-0.1,0-0.1,0.1-0.2,0.2c0,0,0,0-0.1,0.1
		c0,0-0.1,0.1-0.1,0.1c0,0-0.1,0.1-0.1,0.1c0,0,0,0.1-0.1,0.1c0,0,0,0,0,0.1c0,0-0.1,0.1-0.1,0.2c0,0,0,0,0,0c0,0,0,0.1-0.1,0.1
		c0,0.1-0.1,0.1-0.1,0.2c0,0.1-0.1,0.1-0.1,0.2c0,0,0,0,0,0c0,0,0,0,0,0c-0.1,0.2-0.2,0.3-0.2,0.5c0,0,0,0,0,0c0,0,0,0.1,0,0.1
		c0,0,0,0,0,0c-0.1,0.2-0.1,0.3-0.2,0.5c0,0,0,0.1-0.1,0.1c0,0,0,0,0,0c0,0.1-0.1,0.2-0.1,0.3c0,0.1-0.1,0.2-0.1,0.2
		c0,0,0,0.1-0.1,0.1c0,0.1,0,0.1-0.1,0.2c0,0.1-0.1,0.2-0.1,0.3c0,0.1,0,0.1-0.1,0.2c0,0,0,0,0,0c0,0.1-0.1,0.3-0.1,0.4
		c0,0.1-0.1,0.2-0.1,0.4c-0.1,0.3-0.2,0.6-0.3,0.9c0,0,0,0,0,0.1c0,0,0,0.1,0,0.1c0,0.1,0,0.1,0,0.2c-0.1,0.2-0.1,0.4-0.2,0.6
		c0,0.1,0,0.1,0,0.2c0,0,0,0,0,0c0,0.2-0.1,0.3-0.1,0.5c0,0.1-0.1,0.2-0.1,0.4c0,0,0,0,0,0.1c0,0.1,0,0.2-0.1,0.3
		c0,0.2-0.1,0.4-0.1,0.5c-0.1,0.2-0.1,0.5-0.2,0.7c0,0.2-0.1,0.4-0.1,0.6c0,0,0,0,0,0.1c0,0,0,0.1,0,0.1c-0.1,0.3-0.1,0.5-0.2,0.8
		c0,0.1,0,0.1,0,0.2c0,0.1,0,0.2-0.1,0.2c0,0.1-0.1,0.2-0.1,0.4c0,0.2-0.1,0.4-0.1,0.6c0,0.1,0,0.2-0.1,0.2c0,0,0,0,0,0.1
		c-0.1,0.2-0.1,0.5-0.2,0.7c-0.1,0.2-0.1,0.5-0.2,0.8c-0.1,0.2-0.1,0.5-0.2,0.7c0,0.1,0,0.1,0,0.2c0,0.1-0.1,0.2-0.1,0.3
		c0,0.1,0,0.2-0.1,0.2c0,0.2-0.1,0.4-0.1,0.6c0,0.2-0.1,0.3-0.1,0.5c0,0.2-0.1,0.3-0.1,0.5c0,0.1,0,0.2-0.1,0.2
		c0,0.2-0.1,0.4-0.1,0.6c0,0.2-0.1,0.4-0.1,0.5c0,0,0,0,0,0C99.9,32,99.3,34.6,98.8,37.3z"/>
	<path opacity="0.69" fill="#5DB65F" d="M98.8,37.3c3.3,0.9,6.7,1.9,10.1,3c1.3-0.6,2.5-1.2,3.6-1.8c0,0,0-0.1,0-0.1
		c0,0,0-0.1,0-0.1c0.1-0.4,0.3-0.8,0.4-1.2c0-0.1,0.1-0.2,0.1-0.3c0.1-0.3,0.2-0.6,0.3-1c0,0,0,0,0,0c0-0.1,0.1-0.3,0.1-0.4
		c0.1-0.3,0.2-0.6,0.3-0.9c0-0.1,0.1-0.2,0.1-0.3c0,0,0-0.1,0-0.1c0.1-0.3,0.2-0.6,0.3-0.8c0-0.1,0.1-0.3,0.1-0.4
		c0.1-0.3,0.2-0.6,0.3-0.8c0,0,0-0.1,0-0.1c0-0.1,0.1-0.2,0.1-0.3c0.1-0.3,0.2-0.6,0.3-0.9c0-0.1,0-0.1,0-0.2c0,0,0-0.1,0-0.1
		c0.1-0.4,0.2-0.8,0.3-1.2c0,0,0,0,0,0c0-0.1,0-0.1,0.1-0.2c0.1-0.3,0.2-0.6,0.3-0.9c0,0,0-0.1,0-0.1c0-0.1,0.1-0.2,0.1-0.3
		c0.1-0.2,0.1-0.5,0.2-0.7c0-0.1,0-0.2,0.1-0.3c0-0.1,0-0.1,0-0.2c0.1-0.2,0.1-0.4,0.2-0.7c0-0.1,0.1-0.3,0.1-0.4
		c0-0.2,0.1-0.4,0.1-0.6c0-0.1,0.1-0.3,0.1-0.4c0-0.2,0.1-0.4,0.1-0.6c0,0,0-0.1,0-0.1c0-0.1,0-0.2,0.1-0.3c0-0.2,0.1-0.4,0.1-0.6
		c0-0.1,0-0.1,0-0.2c0,0,0-0.1,0-0.1c0-0.3,0.1-0.6,0.1-0.8c0.8-6.5-1.3-9.3-3.2-10.5c-2.6-1.6-5.8-1.1-7.8,0.1
		c-0.1,0-0.1,0.1-0.2,0.2c0,0,0,0-0.1,0.1c0,0-0.1,0.1-0.1,0.1c0,0-0.1,0.1-0.1,0.1c0,0,0,0.1-0.1,0.1c0,0,0,0,0,0.1
		c0,0-0.1,0.1-0.1,0.2c0,0,0,0,0,0c0,0,0,0.1-0.1,0.1c0,0.1-0.1,0.1-0.1,0.2c0,0.1-0.1,0.1-0.1,0.2c0,0,0,0,0,0c0,0,0,0,0,0
		c-0.1,0.2-0.2,0.3-0.2,0.5c0,0,0,0,0,0c0,0,0,0.1,0,0.1c0,0,0,0,0,0c-0.1,0.2-0.1,0.3-0.2,0.5c0,0,0,0.1-0.1,0.1c0,0,0,0,0,0
		c0,0.1-0.1,0.2-0.1,0.3c0,0.1-0.1,0.2-0.1,0.2c0,0,0,0.1-0.1,0.1c0,0.1,0,0.1-0.1,0.2c0,0.1-0.1,0.2-0.1,0.3c0,0.1,0,0.1-0.1,0.2
		c0,0,0,0,0,0c0,0.1-0.1,0.3-0.1,0.4c0,0.1-0.1,0.2-0.1,0.4c-0.1,0.3-0.2,0.6-0.3,0.9c0,0,0,0,0,0.1c0,0,0,0.1,0,0.1
		c0,0.1,0,0.1,0,0.2c-0.1,0.2-0.1,0.4-0.2,0.6c0,0.1,0,0.1,0,0.2c0,0,0,0,0,0c0,0.2-0.1,0.3-0.1,0.5c0,0.1-0.1,0.2-0.1,0.4
		c0,0,0,0,0,0.1c0,0.1,0,0.2-0.1,0.3c0,0.2-0.1,0.4-0.1,0.5c-0.1,0.2-0.1,0.5-0.2,0.7c0,0.2-0.1,0.4-0.1,0.6c0,0,0,0,0,0.1
		c0,0,0,0.1,0,0.1c-0.1,0.3-0.1,0.5-0.2,0.8c0,0.1,0,0.1,0,0.2c0,0.1,0,0.2-0.1,0.2c0,0.1-0.1,0.2-0.1,0.4c0,0.2-0.1,0.4-0.1,0.6
		c0,0.1,0,0.2-0.1,0.2c0,0,0,0,0,0.1c-0.1,0.2-0.1,0.5-0.2,0.7c-0.1,0.2-0.1,0.5-0.2,0.8c-0.1,0.2-0.1,0.5-0.2,0.7
		c0,0.1,0,0.1,0,0.2c0,0.1-0.1,0.2-0.1,0.3c0,0.1,0,0.2-0.1,0.2c0,0.2-0.1,0.4-0.1,0.6c0,0.2-0.1,0.3-0.1,0.5c0,0.2-0.1,0.3-0.1,0.5
		c0,0.1,0,0.2-0.1,0.2c0,0.2-0.1,0.4-0.1,0.6c0,0.2-0.1,0.4-0.1,0.5c0,0,0,0,0,0C99.9,32,99.3,34.6,98.8,37.3z"/>
	<path fill="#AB5153" d="M65.1,87.3c0.3,0.2,0.6,0.4,0.9,0.6c0,0,0.1,0.1,0.1,0.1C65.8,87.7,65.5,87.5,65.1,87.3z"/>
	<path fill="#AB5153" d="M64.6,88.2c0,0-0.1,0-0.1,0c0,0-0.1,0-0.1,0c0,0,0,0-0.1,0C64.5,88.1,64.6,88.2,64.6,88.2z"/>
	<path fill="#AB5153" d="M84.3,62.7c0.4,0.1,0.7,0.2,1.1,0.2C85.1,62.8,84.7,62.8,84.3,62.7z"/>
	<path fill="#AB5153" d="M76.8,62c0.2,0,0.3,0,0.5,0C77.1,62,77,62,76.8,62z"/>
	<path fill="#AB5153" d="M65.9,88.4C65.9,88.4,65.9,88.4,65.9,88.4C65.9,88.4,65.9,88.4,65.9,88.4C65.9,88.4,65.9,88.4,65.9,88.4z"
		/>
	<path fill="#AB5153" d="M82,62.3c0.5,0.1,1.1,0.2,1.6,0.3C83.1,62.5,82.5,62.4,82,62.3z"/>
	<path fill="#AB5153" d="M86,63.1c0.4,0.1,0.8,0.2,1.2,0.3C86.8,63.2,86.4,63.1,86,63.1z"/>
	<path fill="#AB5153" d="M74.7,62.1c0.1,0,0.3,0,0.4,0C75,62,74.9,62.1,74.7,62.1z"/>
	<path fill="#AB5153" d="M80.2,62.1c0.3,0,0.5,0,0.8,0.1C80.7,62.2,80.5,62.1,80.2,62.1z"/>
	<path fill="#AB5153" d="M74.2,89.1c16.7,0.5,32-3.8,42.4-7.8h0c0,0,0,0,0,0c-0.1-0.3-0.3-0.6-0.5-0.9c0,0,0,0,0-0.1
		c-0.2-0.3-0.4-0.6-0.6-0.8c0,0,0,0,0-0.1c-0.2-0.3-0.4-0.6-0.6-0.8c0,0,0,0,0-0.1c-1.1-1.4-2.6-2.8-4.3-4.2
		c-0.1-0.1-0.2-0.1-0.3-0.2c-0.2-0.2-0.5-0.4-0.7-0.6c-0.2-0.1-0.3-0.2-0.5-0.4c-0.2-0.2-0.5-0.3-0.7-0.5c-0.2-0.1-0.4-0.3-0.6-0.4
		c-0.2-0.2-0.5-0.3-0.7-0.5c-0.2-0.1-0.5-0.3-0.7-0.4c-0.2-0.1-0.4-0.3-0.7-0.4c-0.3-0.2-0.5-0.3-0.8-0.5c-0.2-0.1-0.4-0.3-0.7-0.4
		c-0.3-0.2-0.6-0.3-0.9-0.5c-0.2-0.1-0.4-0.2-0.6-0.3c-0.3-0.2-0.7-0.4-1-0.5c-0.2-0.1-0.4-0.2-0.5-0.3c-0.5-0.3-1.1-0.5-1.6-0.8
		c-3.5-1.6-7.7-3.2-12-4.3c2,0.5,3.9,1.1,5.8,1.8C90.9,68.7,83.6,78.8,74.2,89.1z"/>
	<path fill="#AB5153" d="M73,62.3c0.2,0,0.3-0.1,0.5-0.1C73.4,62.2,73.2,62.3,73,62.3z"/>
	<path fill="#AB5153" d="M78.5,62c0.2,0,0.5,0,0.7,0C79,62,78.7,62,78.5,62z"/>
	<path fill="#AB5153" d="M71.5,62.6c0.2,0,0.3-0.1,0.5-0.1C71.8,62.5,71.7,62.6,71.5,62.6z"/>
	<path fill="#AB5153" d="M67.1,88.6C67.1,88.6,67.1,88.6,67.1,88.6C67.1,88.6,67,88.5,67.1,88.6C67,88.5,67.1,88.6,67.1,88.6z"/>
	<path fill="#AB5153" d="M83.8,53L74,52.1c0.2,1.7,0.4,2.9,0.4,3.1c0,0,0,0.1,0,0.1l0,0.3l0.2,0.2l0.1,0.1c0.2,0.2,0.4,0.4,0.5,0.6
		c1.7,1.9,3.6,2.7,5.5,2.3c2.1-0.4,3.7-2.2,4.4-4.7c0-0.1,0.1-0.3,0.1-0.4c0,0,0,0,0,0c0-0.2,0.1-0.4,0.1-0.6L83.8,53z"/>
	<path fill="#AB5153" d="M95.2,57.5c0.1,2.8,1,4.6,2.6,5.4c2.4,1.2,5.2-0.5,5.5-0.7c0,0,0.1-0.1,0.1-0.1l0.3-0.2l0.1-0.3
		c0,0,0.1-0.1,0.1-0.1c0-0.1,0.2-0.5,0.5-1.2c0,0,0-0.1,0-0.1c0.1-0.2,0.1-0.4,0.2-0.6c0-0.1,0-0.1,0.1-0.2c0.1-0.2,0.2-0.5,0.3-0.7
		c0-0.1,0-0.1,0.1-0.2c0.4-1,0.9-2.2,1.4-3.5l-10.7-1c-0.1,0.5-0.2,1.1-0.3,1.6c-0.1,0.5-0.2,1-0.3,1.5l0,0.1
		C95.2,57.3,95.2,57.4,95.2,57.5L95.2,57.5z"/>
	<path fill="#AB5153" d="M119.1,56.2L119.1,56.2C119.1,56.2,119.1,56.2,119.1,56.2c-0.3,0.9-0.7,1.7-1,2.6c-0.1,0.2-0.1,0.3-0.2,0.5
		c-0.3,0.8-0.6,1.6-0.9,2.4l-0.1,0.2c0,0.1,0,0.3,0,0.3l0,0.1c0.1,4.8,2.7,5.7,3.7,5.8c0.3,0,0.6,0,0.9,0c0.1,0,0.2,0,0.3,0
		c0.2,0,0.4-0.1,0.6-0.1c0.1,0,0.2-0.1,0.3-0.1c0.2-0.1,0.4-0.1,0.6-0.2c0.1,0,0.2-0.1,0.3-0.1c0.3-0.1,0.5-0.2,0.8-0.4
		c0.1,0,0.1-0.1,0.2-0.1c0.3-0.2,0.6-0.4,0.9-0.6c0.1-0.1,0.2-0.2,0.3-0.2c0.2-0.2,0.4-0.3,0.6-0.5c0.1-0.1,0.2-0.2,0.4-0.3
		c0.2-0.2,0.4-0.3,0.6-0.5c0.1-0.1,0.2-0.2,0.4-0.4c0.2-0.2,0.4-0.4,0.6-0.6c0.1-0.1,0.2-0.2,0.3-0.3c0.3-0.3,0.5-0.6,0.8-1
		c0.1-0.1,0.2-0.3,0.3-0.4c0.2-0.2,0.3-0.4,0.5-0.7c0.1-0.2,0.2-0.4,0.4-0.5c0.1-0.2,0.3-0.4,0.4-0.6c0.1-0.2,0.2-0.4,0.4-0.6
		c0.1-0.2,0.3-0.4,0.4-0.7c0.1-0.2,0.2-0.4,0.3-0.6c0.2-0.4,0.4-0.8,0.6-1.2h0L119.1,56.2z"/>
	<path fill="#AB5153" d="M43.7,49.3c0.2,0.3,0.4,0.6,0.6,0.9c6.5,11.3,9,14.6,9.1,14.7c0,0,0.2,0.2,0.2,0.2l0.2,0.2l0.3,0.1l0.3,0.1
		c2.5,0.8,3.9,0.1,4.7-0.7c0.2-0.2,0.3-0.3,0.4-0.5c0-0.1,0.1-0.1,0.1-0.2c0.1-0.1,0.1-0.3,0.2-0.4c0-0.1,0.1-0.2,0.1-0.2
		c0.1-0.2,0.1-0.3,0.1-0.5c0-0.1,0-0.1,0.1-0.2c0-0.2,0.1-0.5,0.1-0.8c0-0.1,0-0.2,0-0.3c0-0.2,0-0.4,0-0.6c0-0.1,0-0.3,0-0.4
		c0-0.2,0-0.4-0.1-0.5c0-0.2,0-0.3-0.1-0.5c0-0.2-0.1-0.4-0.1-0.6c-0.1-0.3-0.1-0.6-0.2-0.9c0-0.2-0.1-0.4-0.1-0.6
		c-0.1-0.2-0.1-0.5-0.2-0.7c0-0.2-0.1-0.3-0.1-0.5c-0.1-0.3-0.1-0.5-0.2-0.8c0-0.1-0.1-0.3-0.1-0.4c-0.3-1-0.7-2.1-1.1-3.2
		c0-0.1,0-0.1-0.1-0.2c-0.1-0.4-0.3-0.8-0.4-1.2c0,0,0,0,0-0.1h0L43.7,49.3z"/>
	<path opacity="0.61" fill="#FFC03B" d="M51.7,94.8c0.1-0.1,0.1-0.1,0.2-0.1C51.8,94.7,51.7,94.8,51.7,94.8z"/>
	<path opacity="0.61" fill="#FFC03B" d="M52.4,94.1c0,0,0.1-0.1,0.1-0.1C52.5,94,52.5,94.1,52.4,94.1z"/>
	<path opacity="0.61" fill="#FFC03B" d="M55.2,91.8c0.1-0.1,0.2-0.2,0.4-0.3C55.4,91.6,55.3,91.7,55.2,91.8z"/>
	<path opacity="0.61" fill="#FFC03B" d="M54.5,92.3c0.1-0.1,0.2-0.1,0.2-0.2C54.6,92.2,54.6,92.2,54.5,92.3z"/>
	<path opacity="0.61" fill="#FFC03B" d="M50.9,95.6c0-0.1,0.1-0.1,0.1-0.2C51,95.5,51,95.5,50.9,95.6z"/>
	<path opacity="0.61" fill="#FFC03B" d="M56,91.2c0.1-0.1,0.3-0.2,0.4-0.3C56.2,91,56.1,91.1,56,91.2z"/>
	<path opacity="0.61" fill="#FFC03B" d="M70.1,63.1c0.5-0.2,0.9-0.3,1.4-0.4C71,62.7,70.5,62.9,70.1,63.1z"/>
	<path opacity="0.61" fill="#FFC03B" d="M43.6,113.4C43.6,113.4,43.6,113.4,43.6,113.4C43.6,113.4,43.6,113.4,43.6,113.4
		C43.6,113.4,43.6,113.4,43.6,113.4z"/>
	<path opacity="0.61" fill="#FFC03B" d="M50.2,96.4c0,0,0.1-0.1,0.1-0.1C50.3,96.3,50.3,96.3,50.2,96.4z"/>
	<path opacity="0.61" fill="#FFC03B" d="M49.6,97.1C49.6,97.1,49.6,97.1,49.6,97.1C49.6,97.1,49.6,97.1,49.6,97.1z"/>
	<path opacity="0.61" fill="#FFC03B" d="M61.4,88.3c0.1,0,0.1,0,0.2,0C61.5,88.2,61.4,88.2,61.4,88.3z"/>
	<path opacity="0.61" fill="#FFC03B" d="M64,88.1c0,0,0.1,0,0.1,0C64.1,88.1,64,88.1,64,88.1z"/>
	<path opacity="0.61" fill="#FFC03B" d="M56.7,90.6c0.1-0.1,0.3-0.2,0.4-0.3C57,90.5,56.9,90.5,56.7,90.6z"/>
	<path opacity="0.61" fill="#FFC03B" d="M59.8,88.9c0.2-0.1,0.5-0.2,0.7-0.3C60.3,88.6,60.1,88.7,59.8,88.9z"/>
	<path opacity="0.61" fill="#FFC03B" d="M72,62.5c0.4-0.1,0.7-0.2,1.1-0.2C72.7,62.4,72.3,62.4,72,62.5z"/>
	<path opacity="0.61" fill="#FFC03B" d="M62.2,88.1c0.1,0,0.2,0,0.2,0C62.3,88.1,62.3,88.1,62.2,88.1z"/>
	<path opacity="0.61" fill="#FFC03B" d="M58.3,89.7c0.2-0.1,0.3-0.2,0.5-0.3C58.6,89.5,58.5,89.6,58.3,89.7z"/>
	<path opacity="0.61" fill="#FFC03B" d="M79.2,62c0.3,0,0.7,0,1,0.1C79.9,62.1,79.5,62.1,79.2,62z"/>
	<path opacity="0.61" fill="#FFC03B" d="M63.2,88C63.2,88,63.2,88,63.2,88C63.2,88,63.2,88.1,63.2,88C63.2,88.1,63.1,88,63.2,88
		C63.1,88,63.1,88,63.2,88C63.2,88,63.2,88,63.2,88z"/>
	<path opacity="0.61" fill="#FFC03B" d="M59.1,89.2c0.2-0.1,0.3-0.2,0.5-0.3C59.4,89.1,59.2,89.2,59.1,89.2z"/>
	<path opacity="0.61" fill="#FFC03B" d="M57.5,90.1c0.1-0.1,0.3-0.2,0.4-0.3C57.8,90,57.7,90,57.5,90.1z"/>
	<path opacity="0.61" fill="#FFC03B" d="M75.2,62c0.5,0,1.1-0.1,1.6-0.1C76.2,62,75.7,62,75.2,62z"/>
	<path opacity="0.61" fill="#FFC03B" d="M65.9,88.4C65.9,88.4,65.9,88.4,65.9,88.4C65.9,88.4,65.9,88.4,65.9,88.4z"/>
	<path opacity="0.61" fill="#FFC03B" d="M65,88.2C65,88.2,65,88.2,65,88.2C65,88.2,65,88.2,65,88.2z"/>
	<path opacity="0.61" fill="#FFC03B" d="M66.7,88.3c-0.1-0.1-0.2-0.1-0.3-0.2C66.5,88.2,66.6,88.3,66.7,88.3z"/>
	<polygon opacity="0.61" fill="#FFC03B" points="67.9,89.1 67.9,89.1 67.9,89.1 	"/>
	<path opacity="0.61" fill="#FFC03B" d="M77.3,62c0.4,0,0.8,0,1.2,0C78.1,62,77.7,62,77.3,62z"/>
	<path opacity="0.61" fill="#FFC03B" d="M85.4,62.9c0.2,0,0.4,0.1,0.6,0.1C85.8,63,85.6,63,85.4,62.9z"/>
	<path opacity="0.61" fill="#FFC03B" d="M73.6,62.2c0.4-0.1,0.8-0.1,1.2-0.1C74.3,62.1,73.9,62.1,73.6,62.2z"/>
	<path opacity="0.61" fill="#FFC03B" d="M87.2,63.3c0.1,0,0.2,0.1,0.4,0.1C87.5,63.4,87.3,63.4,87.2,63.3z"/>
	<path opacity="0.61" fill="#FFC03B" d="M83.6,62.6c0.2,0,0.5,0.1,0.7,0.1C84.1,62.7,83.8,62.6,83.6,62.6z"/>
	<path opacity="0.61" fill="#FFC03B" d="M81,62.2c0.3,0,0.7,0.1,1,0.1C81.7,62.3,81.3,62.2,81,62.2z"/>
	<path fill="#00A9DE" d="M65.9,88.4c-0.3-0.1-0.6-0.1-0.8-0.2c0,0-0.1,0-0.1,0c-0.1,0-0.2,0-0.3,0C65,88.2,65.4,88.3,65.9,88.4z"/>
	<path opacity="0.61" fill="#FFC03B" d="M65.9,88.4c-0.3-0.1-0.6-0.1-0.8-0.2c0,0-0.1,0-0.1,0c-0.1,0-0.2,0-0.3,0
		C65,88.2,65.4,88.3,65.9,88.4z"/>
	<path fill="#00A9DE" d="M43.5,112.3l3-0.2c9.6-5,19.4-14,27.7-23c-2.3-0.1-4.7-0.2-7.1-0.5c0.3,0.2,0.5,0.4,0.8,0.5c0,0,0,0,0,0
		c0,0,0,0,0,0c0,0,0,0,0,0c-0.7-0.3-1.3-0.5-2-0.7c0,0,0,0,0,0c0,0,0,0,0,0c-0.9-0.1-1.8-0.2-2.7-0.4c0,0-0.1,0-0.1,0
		c-0.2,0-0.4,0-0.7,0c-0.1,0-0.2,0-0.2,0c-0.2,0-0.4,0.1-0.6,0.1c-0.1,0-0.1,0-0.2,0c-0.3,0.1-0.5,0.2-0.8,0.3
		c-0.2,0.1-0.5,0.2-0.7,0.3c-0.1,0-0.2,0.1-0.3,0.1c-0.2,0.1-0.3,0.2-0.5,0.3c-0.1,0.1-0.2,0.1-0.3,0.2c-0.1,0.1-0.3,0.2-0.5,0.3
		c-0.1,0.1-0.2,0.1-0.3,0.2c-0.1,0.1-0.3,0.2-0.4,0.3c-0.1,0.1-0.2,0.2-0.4,0.2c-0.1,0.1-0.3,0.2-0.4,0.3c-0.1,0.1-0.3,0.2-0.4,0.3
		c-0.1,0.1-0.3,0.2-0.4,0.3c-0.1,0.1-0.3,0.2-0.4,0.3c-0.1,0.1-0.2,0.2-0.4,0.3c-0.2,0.1-0.3,0.2-0.5,0.4c-0.1,0.1-0.2,0.1-0.2,0.2
		c-0.7,0.5-1.3,1.1-1.9,1.7c0,0-0.1,0.1-0.1,0.1c-0.2,0.2-0.4,0.4-0.6,0.6c-0.1,0-0.1,0.1-0.2,0.1c-0.2,0.2-0.4,0.4-0.6,0.6
		c0,0.1-0.1,0.1-0.1,0.2c-0.2,0.2-0.4,0.4-0.6,0.6c0,0-0.1,0.1-0.1,0.1c-0.2,0.2-0.4,0.5-0.6,0.7c0,0,0,0.1-0.1,0.1
		C46,101.4,43.4,106.7,43.5,112.3z"/>
	<path opacity="0.61" fill="#FFC03B" d="M43.5,112.3l3-0.2c9.6-5,19.4-14,27.7-23c-2.3-0.1-4.7-0.2-7.1-0.5c0.3,0.2,0.5,0.4,0.8,0.5
		c0,0,0,0,0,0c0,0,0,0,0,0c0,0,0,0,0,0c-0.7-0.3-1.3-0.5-2-0.7c0,0,0,0,0,0c0,0,0,0,0,0c-0.9-0.1-1.8-0.2-2.7-0.4c0,0-0.1,0-0.1,0
		c-0.2,0-0.4,0-0.7,0c-0.1,0-0.2,0-0.2,0c-0.2,0-0.4,0.1-0.6,0.1c-0.1,0-0.1,0-0.2,0c-0.3,0.1-0.5,0.2-0.8,0.3
		c-0.2,0.1-0.5,0.2-0.7,0.3c-0.1,0-0.2,0.1-0.3,0.1c-0.2,0.1-0.3,0.2-0.5,0.3c-0.1,0.1-0.2,0.1-0.3,0.2c-0.1,0.1-0.3,0.2-0.5,0.3
		c-0.1,0.1-0.2,0.1-0.3,0.2c-0.1,0.1-0.3,0.2-0.4,0.3c-0.1,0.1-0.2,0.2-0.4,0.2c-0.1,0.1-0.3,0.2-0.4,0.3c-0.1,0.1-0.3,0.2-0.4,0.3
		c-0.1,0.1-0.3,0.2-0.4,0.3c-0.1,0.1-0.3,0.2-0.4,0.3c-0.1,0.1-0.2,0.2-0.4,0.3c-0.2,0.1-0.3,0.2-0.5,0.4c-0.1,0.1-0.2,0.1-0.2,0.2
		c-0.7,0.5-1.3,1.1-1.9,1.7c0,0-0.1,0.1-0.1,0.1c-0.2,0.2-0.4,0.4-0.6,0.6c-0.1,0-0.1,0.1-0.2,0.1c-0.2,0.2-0.4,0.4-0.6,0.6
		c0,0.1-0.1,0.1-0.1,0.2c-0.2,0.2-0.4,0.4-0.6,0.6c0,0-0.1,0.1-0.1,0.1c-0.2,0.2-0.4,0.5-0.6,0.7c0,0,0,0.1-0.1,0.1
		C46,101.4,43.4,106.7,43.5,112.3z"/>
	<path fill="#00A9DE" d="M64.4,88.1c-0.1,0-0.2,0-0.2,0c0,0-0.1,0-0.1,0c-0.2,0-0.5,0-0.7,0c0,0,0,0-0.1,0
		C63.6,88.1,64,88.1,64.4,88.1z"/>
	<path opacity="0.61" fill="#FFC03B" d="M64.4,88.1c-0.1,0-0.2,0-0.2,0c0,0-0.1,0-0.1,0c-0.2,0-0.5,0-0.7,0c0,0,0,0-0.1,0
		C63.6,88.1,64,88.1,64.4,88.1z"/>
	<path fill="#00A9DE" d="M43.5,112.3c0,0.4,0,0.7,0.1,1.1c0,0,0,0,0,0c0,0,0,0,0,0C43.6,113,43.5,112.7,43.5,112.3z"/>
	<path opacity="0.61" fill="#FFC03B" d="M43.5,112.3c0,0.4,0,0.7,0.1,1.1c0,0,0,0,0,0c0,0,0,0,0,0C43.6,113,43.5,112.7,43.5,112.3z"
		/>
	<path fill="#00A9DE" d="M66.2,88c0.1,0,0.1,0.1,0.2,0.1c0.1,0.1,0.2,0.1,0.3,0.2c0.1,0.1,0.2,0.1,0.3,0.2
		C66.7,88.3,66.5,88.2,66.2,88z"/>
	<path opacity="0.61" fill="#FFC03B" d="M66.2,88c0.1,0,0.1,0.1,0.2,0.1c0.1,0.1,0.2,0.1,0.3,0.2c0.1,0.1,0.2,0.1,0.3,0.2
		C66.7,88.3,66.5,88.2,66.2,88z"/>
	<path fill="#FA8A3B" d="M44,112.3C44,112.3,44,112.3,44,112.3c0,0.4-0.2,0.8-0.2,1.2c1-0.4,2.1-0.9,3-1.4L44,112.3z"/>
	<path opacity="0.61" fill="#FFC03B" d="M44,112.3C44,112.3,44,112.3,44,112.3c0,0.4-0.2,0.8-0.2,1.2c1-0.4,2.1-0.9,3-1.4L44,112.3z
		"/>
	<path fill="#AB5153" d="M64.6,88.2c-0.1,0-0.2,0-0.3,0c-0.4-0.1-0.8-0.1-1.2-0.1c0,0,0,0,0,0c0,0,0,0,0,0c0.9,0.1,1.8,0.3,2.7,0.4
		c0,0,0,0,0,0C65.4,88.3,65,88.2,64.6,88.2z"/>
	<path opacity="0.61" fill="#FFC03B" d="M64.6,88.2c-0.1,0-0.2,0-0.3,0c-0.4-0.1-0.8-0.1-1.2-0.1c0,0,0,0,0,0c0,0,0,0,0,0
		c0.9,0.1,1.8,0.3,2.7,0.4c0,0,0,0,0,0C65.4,88.3,65,88.2,64.6,88.2z"/>
	<path fill="#AB5153" d="M67,88.5C67,88.5,67.1,88.6,67,88.5c2.4,0.3,4.8,0.5,7.2,0.5c9.4-10.3,16.8-20.4,19.2-23.8
		c-1.9-0.7-3.8-1.3-5.8-1.8c-0.1,0-0.2-0.1-0.4-0.1c-0.4-0.1-0.8-0.2-1.2-0.3c-0.2,0-0.4-0.1-0.6-0.1c-0.4-0.1-0.7-0.2-1.1-0.2
		c-0.2,0-0.5-0.1-0.7-0.1c-0.5-0.1-1.1-0.2-1.6-0.3c-0.3,0-0.7-0.1-1-0.1c-0.3,0-0.5-0.1-0.8-0.1c-0.3,0-0.7-0.1-1-0.1
		c-0.2,0-0.5,0-0.7,0c-0.4,0-0.8,0-1.2,0c-0.2,0-0.3,0-0.5,0c-0.5,0-1.1,0-1.6,0.1c-0.1,0-0.3,0-0.4,0c-0.4,0-0.8,0.1-1.2,0.1
		c-0.2,0-0.4,0.1-0.5,0.1c-0.4,0.1-0.7,0.1-1.1,0.2c-0.2,0-0.3,0.1-0.5,0.1c-0.5,0.1-1,0.3-1.4,0.4c-6,2.2-9.7,6.5-10.4,11.9
		c-0.6,4.9,1.5,9.7,5.4,12.4c0.3,0.2,0.7,0.5,1.1,0.7C66.5,88.2,66.7,88.3,67,88.5z"/>
	<path opacity="0.61" fill="#FFC03B" d="M67,88.5C67,88.5,67.1,88.6,67,88.5c2.4,0.3,4.8,0.5,7.2,0.5c9.4-10.3,16.8-20.4,19.2-23.8
		c-1.9-0.7-3.8-1.3-5.8-1.8c-0.1,0-0.2-0.1-0.4-0.1c-0.4-0.1-0.8-0.2-1.2-0.3c-0.2,0-0.4-0.1-0.6-0.1c-0.4-0.1-0.7-0.2-1.1-0.2
		c-0.2,0-0.5-0.1-0.7-0.1c-0.5-0.1-1.1-0.2-1.6-0.3c-0.3,0-0.7-0.1-1-0.1c-0.3,0-0.5-0.1-0.8-0.1c-0.3,0-0.7-0.1-1-0.1
		c-0.2,0-0.5,0-0.7,0c-0.4,0-0.8,0-1.2,0c-0.2,0-0.3,0-0.5,0c-0.5,0-1.1,0-1.6,0.1c-0.1,0-0.3,0-0.4,0c-0.4,0-0.8,0.1-1.2,0.1
		c-0.2,0-0.4,0.1-0.5,0.1c-0.4,0.1-0.7,0.1-1.1,0.2c-0.2,0-0.3,0.1-0.5,0.1c-0.5,0.1-1,0.3-1.4,0.4c-6,2.2-9.7,6.5-10.4,11.9
		c-0.6,4.9,1.5,9.7,5.4,12.4c0.3,0.2,0.7,0.5,1.1,0.7C66.5,88.2,66.7,88.3,67,88.5z"/>
	<path fill="#5DB65F" d="M35.4,99.1c0-0.1-0.1-0.2-0.1-0.3c0,0,0,0,0-0.1c-0.1-0.1-0.1-0.3-0.2-0.4c0,0,0-0.1-0.1-0.1
		c-0.1-0.2-0.2-0.4-0.3-0.6c0-0.1,0-0.1-0.1-0.2c-0.1-0.2-0.2-0.5-0.3-0.7c0-0.1-0.1-0.1-0.1-0.2c-0.1-0.3-0.3-0.6-0.4-0.8
		c0,0-0.1-0.1-0.1-0.1c-0.2-0.3-0.3-0.6-0.5-1c0,0,0-0.1-0.1-0.1c-0.2-0.4-0.4-0.7-0.6-1.1c0,0,0.1,0,0.1,0C32.4,93,32,92.6,32,92.2
		c0,0,0,0,0,0c0-0.4-0.6-0.8-0.9-1.2c0,0-0.1,0-0.1-0.1c-0.3-0.4-0.6-0.8-0.8-1.1c0,0-0.1-0.1-0.1-0.1c-0.3-0.4-0.6-0.7-0.9-1.1
		c0,0-0.1-0.1-0.1-0.1c-0.3-0.4-0.6-0.7-0.9-1c0,0-0.1-0.1-0.1-0.1c-0.3-0.3-0.7-0.7-1-1c0,0,0,0-0.1-0.1c-0.4-0.3-0.7-0.6-1.1-0.9
		c0,0,0,0,0,0c-0.6-0.5-1.2-0.8-1.9-1.2c-0.1-0.1-0.2-0.1-0.3-0.2c-0.1,0-0.1-0.1-0.2-0.1c0,0,0,0,0,0l0,0l0,0l-0.1,0.6L20.1,103v0
		c0,0,0,0,0.1,0c0.6,0.1,1.1,0.3,1.7,0.4c0,0,0,0,0,0c0.2,0,0.5,0.1,0.7,0.1c0.1,0,0.2,0,0.3,0c0.2,0,0.5,0.1,0.7,0.1
		c0.1,0,0.3,0,0.4,0c0.2,0,0.4,0,0.7,0c0.1,0,0.3,0,0.5,0c0.3,0,0.7,0,1,0c0.2,0,0.4,0,0.6,0c0.2,0,0.3,0,0.5,0c0.2,0,0.4,0,0.6-0.1
		c0.2,0,0.3,0,0.5-0.1c0.2,0,0.4-0.1,0.6-0.1c0.1,0,0.3-0.1,0.4-0.1c0.3-0.1,0.6-0.1,0.9-0.2c0.1,0,0.1,0,0.2-0.1
		c0.3-0.1,0.7-0.2,1-0.3c0.1,0,0.2-0.1,0.3-0.1c0.2-0.1,0.5-0.2,0.7-0.3c0.1-0.1,0.2-0.1,0.4-0.2c0.2-0.1,0.5-0.3,0.7-0.4
		c0.1-0.1,0.2-0.1,0.3-0.2c0.3-0.2,0.6-0.4,0.9-0.7c0,0,0.3-0.2,0.3-0.2l0.6-0.5l-0.3-0.7L35.4,99.1z"/>
</g>
</svg>
