<?xml version="1.0" encoding="utf-8"?>
<!-- Generator: Adobe Illustrator 18.1.0, SVG Export Plug-In . SVG Version: 6.00 Build 0)  -->
<svg version="1.1" id="Layer_1" xmlns="http://www.w3.org/2000/svg" xmlns:xlink="http://www.w3.org/1999/xlink" x="0px" y="0px"
	 viewBox="0 0 150 150" enable-background="new 0 0 150 150" xml:space="preserve">
<g>
	<g>
		<path fill="#616CB1" d="M107.7,37.4c1.9-1.6,4.2-4.5,7-8.7c3-4.5,4.8-8,5.2-10.5c0.2-1.1,0.3-2.1,0.4-3c-1.4-1.4-3-3.6-5.4-3.6
			c-0.8,0.6-1.6,1.5-2.3,2.6C110.5,17.7,107,26.6,102,41C104.9,39.4,106.7,38.2,107.7,37.4z"/>
	</g>
	<g>
		<path fill="#29ACE3" d="M54.7,93.1c-0.1-1.9,0.2-3.5,1.1-4.9c2.5-3.9,5.2-5.9,7.9-6.1c1.4-0.1,2.8,0.2,4.2,1.1
			c0.9-2.3,2.9-7.7,5.9-16.1c-2.5,1.4-5.4,3.1-8.8,5.2c-2.4,1.8-4.6,4-6.4,6.6c-1.5,2-2.5,3.2-2.9,3.4c-1.9,1-3.2,1.1-4.1,0.3
			c-0.8-0.5-1.2-1.2-1.3-2.1c-0.1-0.8,0.1-1.7,0.6-2.7c1.7-3.9,8.4-9.8,20.1-17.8c1.8-1.2,4-2.6,6.4-4.2c4.6-14.2,10-26.1,16.1-35.8
			c3.5-5.6,7.3-9.9,11.1-13.2H6.3v89.5c0.1,0.5,0.2,1,0.3,1.5c0.3,1.6,0.8,3.2,1.3,4.8c0,0.1,0.1,0.2,0.1,0.3
			c5,11.2,13.9,25.2,29.3,35c0.1-0.1,0.1-0.2,0.2-0.4c2.9-4.1,4.4-6.3,4.6-6.7c3.3-4.8,9.1-14.4,17.4-28.9
			C56.6,99.5,55,96.6,54.7,93.1z"/>
	</g>
	<g>
		<path fill="#616CB1" d="M140.7,37.7c-3.1-5.2-6.6-9.8-10.5-13.7c-1.4,2.7-3.1,5.5-5.2,8.4C121,38,111.9,45,97.9,53.5
			c-0.5,1.6-2.7,8.4-6.7,20.5c-1.4,4.4-3.2,9.5-5.3,15.3c0.3,0,2-0.8,5.2-2.3c3.7-1.8,8.1-6.7,13.3-14.7c1.1-1.6,2.8-2,5.1-1.2
			c1.1,0.6,1,2.2,0,4.8c-0.3,0.9-6.2,7.6-17.7,20.4c-3.2,3.6-7.1,6.1-11.7,7.6c-7.8,17.9-15.1,30.2-22.1,36.9
			c-1.1,1-2.3,1.9-3.7,2.7H143V46.2c0-0.3-0.1-0.5-0.1-0.8C142.5,43.4,140.9,38.1,140.7,37.7z"/>
	</g>
</g>
</svg>
