<?xml version="1.0" encoding="utf-8"?>
<!-- Generator: Adobe Illustrator 18.1.0, SVG Export Plug-In . SVG Version: 6.00 Build 0)  -->
<svg version="1.0" id="Layer_1" xmlns="http://www.w3.org/2000/svg" xmlns:xlink="http://www.w3.org/1999/xlink" x="0px" y="0px"
	 viewBox="0 0 150 150" enable-background="new 0 0 150 150" xml:space="preserve">
<g>
	<path fill="#004E69" d="M121.2,73.1L40.6,24.3c-1.3-0.8-3-0.7-4.2,0.3c-1.2,0.9-1.7,2.6-1.2,4l30.6,90.1c0.5,1.5,1.9,2.5,3.5,2.5
		l1.1-0.2c1.1-0.4,1.9-1.2,2.3-2.3l8.4-26l21.1,27c2.7,3.5,7.7,4.1,11.2,1.4c3.5-2.7,4.1-7.7,1.4-11.2L94,83.4l25.8-3.5
		c1.5-0.2,2.8-1.4,3.1-2.8C123.2,75.5,122.5,73.9,121.2,73.1z"/>
	<polygon fill="#007498" points="142.7,25.3 142.7,8.9 126.4,8.9 126.4,15.7 81,15.7 81,13.1 73.4,13.1 73.4,15.7 26.9,15.7 
		26.9,8.9 10.6,8.9 10.6,25.3 17.6,25.3 17.6,69.5 19.9,69.5 19.9,25.3 26.9,25.3 26.9,18 73.4,18 73.4,20.7 81,20.7 81,18 
		126.4,18 126.4,25.3 134.6,25.3 134.6,69.5 136.9,69.5 136.9,25.3 	"/>
	<polygon fill="#007498" points="130.3,69.8 130.3,81.2 130.3,81.5 134.6,81.5 134.6,125.7 126.4,125.7 126.4,132.7 81,132.7 
		81,130.5 73.4,130.5 73.4,132.7 26.9,132.7 26.9,125.7 19.9,125.7 19.9,81.5 25.4,81.5 25.4,69.8 24.6,69.8 13.6,69.8 13.6,81.2 
		13.6,81.5 17.6,81.5 17.6,125.7 10.6,125.7 10.6,142 26.9,142 26.9,135 73.4,135 73.4,138 81,138 81,135 126.4,135 126.4,142 
		142.7,142 142.7,125.7 136.9,125.7 136.9,81.5 142.1,81.5 142.1,69.8 140.4,69.8 	"/>
</g>
</svg>
