<?xml version="1.0" encoding="utf-8"?>
<!-- Generator: Adobe Illustrator 18.1.0, SVG Export Plug-In . SVG Version: 6.00 Build 0)  -->
<svg version="1.1" id="Layer_1" xmlns="http://www.w3.org/2000/svg" xmlns:xlink="http://www.w3.org/1999/xlink" x="0px" y="0px"
	 viewBox="0 0 1000 1000" enable-background="new 0 0 1000 1000" xml:space="preserve">
<g>
	<path fill="#C46158" d="M522.8,571.7c-21.1,0-39.2,12.9-46.9,31.2H116.4c-12.9,0-23.4-10.5-23.4-23.4V439.3
		c0-12.9,10.5-23.4,23.4-23.4h226.5V375H116.4c-35.4,0-64.3,28.8-64.3,64.3v140.2c0,35.4,28.8,64.3,64.3,64.3h360.2
		c8.1,17.5,25.7,29.7,46.2,29.7c28.1,0,50.9-22.8,50.9-50.9C573.7,594.6,550.8,571.7,522.8,571.7z M522.8,656
		c-10.3,0-19.4-4.8-25.5-12.2c-4.8-5.8-7.8-13.1-7.8-21.2c0-7.4,2.5-14.2,6.6-19.7c6.1-8.2,15.8-13.6,26.8-13.6
		c18.4,0,33.4,15,33.4,33.4C556.1,641,541.2,656,522.8,656z"/>
	<path fill="#FFAF3A" d="M608.5,435.4c-28.1,0-50.9,22.8-50.9,50.9c0,21.4,13.3,39.8,32.1,47.3v355.7c0,12.9-10.5,23.4-23.4,23.4
		H426.1c-12.9,0-23.4-10.5-23.4-23.4V662.8h-40.9v226.4c0,35.4,28.8,64.3,64.3,64.3h140.3c35.4,0,64.3-28.8,64.3-64.3V532
		c17-8.3,28.7-25.6,28.7-45.7C659.4,458.2,636.5,435.4,608.5,435.4z M589.7,513.8c-8.8-6-14.6-16.1-14.6-27.6
		c0-18.4,15-33.4,33.3-33.4c18.4,0,33.4,15,33.4,33.4c0,9.9-4.4,18.6-11.2,24.7c-5.9,5.3-13.6,8.6-22.2,8.6
		C601.5,519.6,595.1,517.5,589.7,513.8z"/>
	<path fill="#00A9DE" d="M876.1,375h-355c-8.5-16.2-25.5-27.3-45-27.3c-28.1,0-50.9,22.8-50.9,50.9c0,28.1,22.8,50.9,50.9,50.9
		c22,0,40.7-14,47.8-33.6h352.3c12.9,0,23.4,10.5,23.4,23.4v140.2c0,12.9-10.5,23.4-23.4,23.4H649.6v40.9h226.4
		c35.4,0,64.3-28.8,64.3-64.3V439.3C940.4,403.8,911.5,375,876.1,375z M476,432c-18.4,0-33.4-15-33.4-33.4c0-18.4,15-33.4,33.4-33.4
		c9.2,0,17.5,3.7,23.5,9.7c6.1,6,9.8,14.4,9.8,23.6c0,6.4-1.9,12.2-5,17.3C498.5,425.5,488.1,432,476,432z"/>
	<path fill="#6CAB36" d="M566.4,65.3H426.1c-35.4,0-64.3,28.8-64.3,64.3v349.7c-19.8,7-34.1,25.8-34.1,48
		c0,28.1,22.8,50.9,50.9,50.9c28.1,0,50.9-22.8,50.9-50.9c0-19.3-10.9-36.2-26.8-44.8V129.5c0-12.9,10.5-23.4,23.4-23.4h140.3
		c12.9,0,23.4,10.5,23.4,23.4V356h40.9V129.5C630.6,94.1,601.8,65.3,566.4,65.3z M378.6,560.5c-18.4,0-33.4-15-33.4-33.4
		c0-12.2,6.7-22.9,16.6-28.6c5-2.9,10.6-4.7,16.8-4.7c9.5,0,18,4,24.1,10.4c5.7,6,9.3,14,9.3,22.9C412,545.6,397,560.5,378.6,560.5z
		"/>
</g>
</svg>
