<?xml version="1.0" encoding="utf-8"?>
<!-- Generator: Adobe Illustrator 18.1.0, SVG Export Plug-In . SVG Version: 6.00 Build 0)  -->
<svg version="1.0" id="Layer_1" xmlns="http://www.w3.org/2000/svg" xmlns:xlink="http://www.w3.org/1999/xlink" x="0px" y="0px"
	 viewBox="0 0 150 150" enable-background="new 0 0 150 150" xml:space="preserve">
<g>
	<radialGradient id="SVGID_1_" cx="75.3689" cy="75.5971" r="61.7063" gradientUnits="userSpaceOnUse">
		<stop  offset="0" style="stop-color:#005A89"/>
		<stop  offset="1" style="stop-color:#00395D"/>
	</radialGradient>
	<path fill="url(#SVGID_1_)" d="M140.1,75.4l-4.7-41.6c0-3.9-3.2-7-7.2-7l-53-4.7l-52.8,4.7c-3.9,0-7,3.1-7.1,7.3l-4.7,39.8
		l4.7,43.5c0,3.9,3.1,7,7.2,7l53,4.7l52.8-4.7c3.9,0,7-3.2,7-7.3L140.1,75.4z M66.8,92.5l0.4-3.6l10.1-9.9L66.8,92.5z M111.1,40v0.7
		c0,1-0.2,2.2-0.5,3.4c-0.3,1.3-0.9,2.2-1.7,2.9L95.7,59.7c-0.2,0.1-0.3,0.3-0.3,0.5c0,0.2,0,0.4,0,0.5v48.2c0,0.1,0,0.4-0.1,0.9
		c-0.1,0.5-0.1,0.8-0.1,0.9s0,0.2-0.1,0.4c-0.1,0.2-0.2,0.2-0.3,0.3l-2.6,2.7c-0.4,0.3-0.7,0.4-0.9,0.4c-0.5,0-0.9-0.3-1.1-0.9
		L78.5,78c-0.1-0.3-0.2-0.5-0.4-0.7c-0.2-0.2-0.5-0.3-0.7-0.3h-0.1c-0.1,0.1-0.3,0.2-0.5,0.2L65.3,87.8L65,103.1l-3.5,3.5
		c-0.1,0.1-0.3,0.2-0.7,0.2c-0.4,0-0.7-0.1-0.9-0.4c-0.2-0.3-0.3-0.6-0.4-0.9L57.4,97c-0.1-0.3-0.2-0.5-0.4-0.6
		c-0.2-0.1-0.4-0.2-0.6-0.2c-0.5,0-5.1,2.1-6.4,2.1c-0.3,0-0.3,0-0.3,0c0-0.5,1.7-5.5,2.1-6.6c-0.1,0.1-0.1,0.2-0.2,0.3
		c0,0.1-0.1,0.1-0.1,0.1c-0.1,0.1,0.3-0.7,0.3-0.6c0-0.2-0.1-0.4-0.3-0.6c-0.2-0.2-0.4-0.3-0.7-0.4l-8.7-2.1
		c-0.6-0.2-0.9-0.7-0.9-1.4V87c0-0.1,0-0.2,0.1-0.4l3.3-3.3c0.1-0.1,0.3-0.1,0.4-0.2c0.2-0.1,0.3-0.2,0.4-0.2h14.1
		c0.1,0,0.2,0,0.4-0.1c0.2-0.1,0.3-0.2,0.4-0.3l10.5-11.2c0.1-0.1,0.2-0.3,0.2-0.6c0-0.6-0.2-0.9-0.6-1.1L34.3,57.8
		c-0.3-0.1-0.4-0.2-0.4-0.4c0-0.2,0-0.4,0-0.6v-0.4c0-0.2,0-0.3,0.2-0.4l2.8-2.8c0.1-0.1,0.2-0.2,0.4-0.3c0.2-0.1,0.3-0.2,0.4-0.2
		H88l12.3-13.1c0.9-0.9,2-1.6,3.3-2.1c1.3-0.5,2.6-0.7,3.8-0.7c0.8,0,1.6,0.2,2.2,0.5c0.7,0.4,1.1,1,1.4,2V40z M55.4,81.2L69,70.7
		l-9.9,10.1L55.4,81.2z"/>
	<radialGradient id="SVGID_2_" cx="75.017" cy="74.7763" r="62.1053" gradientUnits="userSpaceOnUse">
		<stop  offset="0" style="stop-color:#005A89"/>
		<stop  offset="1" style="stop-color:#00395D"/>
	</radialGradient>
	<path fill="url(#SVGID_2_)" d="M51.8,91.8c0-0.1,0.1-0.2,0.1-0.2C51.9,91.5,51.8,91.6,51.8,91.8z"/>
	<path fill="#D6D6D6" d="M144.8,75.1l-4.7-41.6c0-6.2-5.2-11.4-11.7-11.4l-53.2-4.7l-53,4.7c-6.3,0-11.5,5.2-11.5,11.7L6,73.8
		l4.7,43.8c0,6.2,5.2,11.5,11.7,11.5l53.1,4.7l53-4.7c6.3,0,11.5-5.2,11.5-11.7l4.7-42L144.8,75.1z M128.4,124.4l-52.8,4.7l-53-4.7
		c-4.1,0-7.2-3.2-7.2-7l-4.7-43.5l4.7-39.8c0-4.1,3.2-7.3,7.1-7.3l52.8-4.7l53,4.7c4.1,0,7.2,3.2,7.2,7l4.7,41.6l-4.7,41.7
		C135.4,121.3,132.2,124.4,128.4,124.4z"/>
	<path fill="#D6D6D6" d="M51.5,92.2c0,0,0-0.1,0.1-0.1c0-0.1,0.1-0.2,0.2-0.3c0-0.1,0.1-0.2,0.1-0.2C51.9,91.5,51.5,92.2,51.5,92.2z
		"/>
	<path fill="#D6D6D6" d="M109.7,37.3c-0.7-0.3-1.4-0.5-2.2-0.5c-1.2,0-2.5,0.3-3.8,0.7c-1.3,0.5-2.4,1.2-3.3,2.1L88,52.7H37.6
		c-0.1,0-0.3,0.1-0.4,0.2c-0.2,0.1-0.3,0.2-0.4,0.3l-2.8,2.8c-0.1,0.1-0.2,0.2-0.2,0.4v0.4c0,0.2,0,0.4,0,0.6c0,0.2,0.2,0.4,0.4,0.4
		l36.1,11.8c0.4,0.2,0.6,0.6,0.6,1.1c0,0.3-0.1,0.5-0.2,0.6L60.4,82.5c0,0.1-0.2,0.2-0.4,0.3c-0.2,0.1-0.3,0.1-0.4,0.1H45.5
		c-0.1,0-0.2,0.1-0.4,0.2c-0.2,0.1-0.3,0.2-0.4,0.2l-3.3,3.3c-0.1,0.2-0.1,0.3-0.1,0.4v0.1c0,0.7,0.3,1.2,0.9,1.4l8.7,2.1
		c0.2,0,0.4,0.2,0.7,0.4c0.2,0.2,0.3,0.4,0.3,0.6c0,0.1,0,0.1-0.1,0.2c-0.4,1-2.1,6-2.1,6.6c0,0,0,0,0.3,0c1.3,0,5.9-2.1,6.4-2.1
		c0.2,0,0.4,0.1,0.6,0.2c0.2,0.1,0.4,0.3,0.4,0.6l2.1,8.4c0.1,0.3,0.3,0.6,0.4,0.9c0.2,0.3,0.5,0.4,0.9,0.4c0.3,0,0.5-0.1,0.7-0.2
		l3.5-3.5l0.3-15.2l11.4-10.7c0.2,0,0.4-0.1,0.5-0.2h0.1c0.3,0,0.5,0.1,0.7,0.3c0.2,0.2,0.4,0.5,0.4,0.7l11.7,35.5
		c0.2,0.6,0.6,0.9,1.1,0.9c0.2,0,0.5-0.1,0.9-0.4l2.6-2.7c0.1-0.1,0.2-0.1,0.3-0.3c0.1-0.1,0.1-0.2,0.1-0.4s0-0.4,0.1-0.9
		c0.1-0.5,0.1-0.8,0.1-0.9V60.7c0-0.1,0-0.3,0-0.5c0-0.2,0.1-0.4,0.3-0.5L109,46.9c0.8-0.7,1.4-1.7,1.7-2.9c0.3-1.2,0.5-2.4,0.5-3.4
		V40v-0.6C110.9,38.3,110.4,37.7,109.7,37.3z"/>
	<polygon fill="#D6D6D6" points="55.4,81.2 59.1,80.8 69,70.7 	"/>
	<polygon fill="#D6D6D6" points="66.8,92.5 77.4,78.9 67.2,88.8 	"/>
</g>
</svg>
