<?xml version="1.0" encoding="utf-8"?>
<!-- Generator: Adobe Illustrator 16.0.0, SVG Export Plug-In . SVG Version: 6.00 Build 0)  -->
<!DOCTYPE svg PUBLIC "-//W3C//DTD SVG 1.1//EN" "http://www.w3.org/Graphics/SVG/1.1/DTD/svg11.dtd">
<svg version="1.1" id="Layer_1" xmlns="http://www.w3.org/2000/svg" xmlns:xlink="http://www.w3.org/1999/xlink" x="0px" y="0px"
	 width="100px" height="100px" viewBox="0 0 100 100" enable-background="new 0 0 100 100" xml:space="preserve">
<g>
	<path fill-rule="evenodd" clip-rule="evenodd" fill="#006838" d="M35.876,20.38c10.484-3.392,17.366,3.677,26.35,6.388
		c7.145,2.158,13.963,1.013,22.357,2.927c0.925,7.58-1.896,14.039-5.323,18.634c-1.076,1.443-3.188,3.538-4.526,3.992
		c-3.368,1.145-6.771-0.344-9.582,1.325c-2.414,1.443-2.914,5.563-3.724,7.721c-0.796-3.368,1.036-8.139,2.392-8.511
		c2.933-1.943,6.649-1.141,9.588-2.136c5.801-1.96,8.238-12.13,9.047-18.896c-9.35-0.39-17.314-0.221-24.755-3.194
		c-4.689-1.874-9.524-4.881-14.108-5.323c-2.577-0.244-5.608,1.437-8.25,1.065c-2.21-0.314-5.277-3.84-7.185-5.324
		c-2.747-2.124-4.986-3.898-7.453-5.056c0.646,10.158,5.334,19.124,4.788,30.078c-0.337,6.836-3.206,12.043-5.853,17.296
		c-2.642,5.254-5.201,10.682-9.314,13.841c2.63-10.467,10.815-18.576,10.915-31.137C21.326,32.458,15.915,22.3,16.712,10
		c0.692-0.279,1.483-1.292,2.391-1.064C25.142,10.443,31.466,16.813,35.876,20.38z"/>
	<path fill-rule="evenodd" clip-rule="evenodd" fill="#006838" d="M55.309,32.888c0.098,2.164-3.439,2.396-4.527,1.065
		C50.555,30.09,54.145,30.444,55.309,32.888z"/>
	<g>
		<path fill="#006838" d="M61.451,61.297c0,0,2.49-5.8-4.049-12.688c0,0-0.332-1.205-2.572,0.732c0,0-1.122,0.524-1.419,4.706
			c0,0,0.745,5.9-5.975,9.489c0,0-8.069,2.764-9.414,10.233c0,0-9.937,5.679-6.051,10.31c0,0,2.618,5.748,9.71,7.017
			c0,0-5.946-3.124-7.843-7.539c0,0-2.019-1.571,1.797-4.858l4.404-3.434c0,0,0.972-4.933,5.9-7.394c0,0,9.116-2.916,9.785-9.414
			c0,0,1.123-5.678,0.896-6.347C56.623,52.11,60.015,56.741,61.451,61.297z"/>
		<path fill="#006838" d="M43.049,72.909c0,0,5.277,1.437,0.454,3.856C43.503,76.766,40.28,76.598,43.049,72.909z"/>
	</g>
	<path fill-rule="evenodd" clip-rule="evenodd" fill="#006838" d="M74.239,30.648c0,0-2.095,11.339,8.139,8.604
		c0,0,0.582-4.055,0.699-4.09c0.116-0.041,0.231-3.7,0.231-3.7s-1.803-1.455-2.385-1.512c-0.582-0.058-0.873-0.175-1.629,0"/>
</g>
</svg>
