<?xml version="1.0" encoding="utf-8"?>
<!-- Generator: Adobe Illustrator 14.0.0, SVG Export Plug-In . SVG Version: 6.00 Build 43363)  -->
<!DOCTYPE svg PUBLIC "-//W3C//DTD SVG 1.1//EN" "http://www.w3.org/Graphics/SVG/1.1/DTD/svg11.dtd">
<svg version="1.1" id="Layer_1" xmlns="http://www.w3.org/2000/svg" xmlns:xlink="http://www.w3.org/1999/xlink" x="0px" y="0px"
	 width="150px" height="150px" viewBox="0 0 150 150" enable-background="new 0 0 150 150" xml:space="preserve">
<g>
	<path fill="none" d="M56.038,83.271c0.528-0.902,0.822-2.051,0.822-3.566h-0.87h-0.246h-0.288H35.522h-0.518h-0.886
		c0,6.282,5.089,6.667,11.374,6.667C50.271,86.371,54.35,86.146,56.038,83.271z"/>
	<path fill="none" d="M55.53,77.002H35.191c-0.224,0.274-0.374,0.641-0.374,1.022c0,0.416,0.16,0.793,0.417,1.068h20.466h0.043
		c0.256-0.275,0.411-0.652,0.411-1.068c0-0.382-0.144-0.748-0.368-1.022H55.53z"/>
	<path fill="none" d="M35.437,76.392h20.056h0.048h0.497h0.822c0-2.308-0.683-4.462-1.879-6.251
		c-2.035-3.078-5.527-5.123-9.489-5.123c-6.285,0-11.374,5.102-11.374,11.374h0.822H35.437z"/>
	<path fill="none" d="M106.892,102.739h0.011c0,0-13.932-13.45-15.213-14.692c-7.438-5.062-8.506-8.683-8.506-8.683l-1.394-1.34
		l-1.324,1.397l-4.512-4.354l11.502-11.101c1.104,0.147,9.925,1.215,11.116,0.083c1.266-1.236,6.236-5.967,6.766-6.536
		c0.513-0.569,8.201-7.884,5.095-11.114c-0.978-1.006-2.634-2.723-2.97-3.057c0,0-0.026-0.021-0.063-0.067
		c-0.321-0.355-2.024-2.098-2.959-3.078c-3.288-3.412-10.7,4.221-11.288,4.699c-0.582,0.497-5.483,5.292-6.749,6.522
		c-1.255,1.242-0.325,11.24-0.325,11.24L74.582,73.756L62.424,62c2.498-3.609-2.302-7.908-2.302-7.908L46.746,41.179l0.208,0.996
		c14.358,14.489,13.792,17.923,13.162,18.699l-0.042-0.045c0,0-0.017,0.062-0.085,0.155c-0.07,0.059-0.144,0.08-0.144,0.08
		l0.037,0.034c-0.748,0.663-4.165,1.352-19.148-12.494l-0.988-0.152L53.111,61.36c0,0,4.475,4.626,7.999,2.013L73.215,75.08
		l-5.334,5.149l-1.345-1.367l-1.373,1.327c0,0-1.079,3.609-8.5,8.661c-1.303,1.261-15.229,14.689-15.229,14.689v0.017
		c0,0-0.016,0.021-0.038,0.031c-1.046,1.009-1.058,2.686-0.059,3.716c1.015,1.041,2.681,1.079,3.728,0.08
		c0-0.021,0.021-0.042,0.027-0.053l0.01,0.011c0,0,14.129-13.656,15.24-14.722c3.871-6.535,8.821-8.289,8.821-8.289l1.367-1.324
		l-1.34-1.394l5.393-5.222l4.566,4.412l-1.324,1.367l1.366,1.335c0,0,4.944,1.765,8.811,8.292
		c1.11,1.079,15.234,14.727,15.234,14.727l0.021-0.011c0.012,0.011,0.012,0.043,0.017,0.048c1.062,1.016,2.723,0.978,3.732-0.074
		c1.009-1.03,0.978-2.723-0.08-3.727C106.924,102.761,106.913,102.739,106.892,102.739z M109.679,49.541L96.933,61.859l-0.742-0.766
		l12.768-12.313L109.679,49.541z M107.474,46.396l0.742,0.755l-10.812,10.45l-0.747-0.767L107.474,46.396z M105.572,44.428
		l0.732,0.75l-9.329,9.016l-0.736-0.761L105.572,44.428z M103.56,42.345l0.731,0.75l-10.823,10.45l-0.731-0.75L103.56,42.345z
		 M101.152,40.423l0.741,0.752L89.138,53.503l-0.743-0.761L101.152,40.423z"/>
	<path fill="none" d="M116.621,79.093h0.036c0.257-0.275,0.417-0.652,0.417-1.068c0-0.382-0.145-0.748-0.373-1.022h-0.246H96.132
		c-0.245,0.274-0.378,0.641-0.378,1.022c0,0.416,0.154,0.793,0.395,1.068H116.621z"/>
	<path fill="none" d="M106.416,65.018c-6.285,0-11.384,5.102-11.384,11.374h0.833h0.491h20.039h0.07h0.485h0.839
		c0-2.308-0.705-4.462-1.891-6.251C113.865,67.062,110.379,65.018,106.416,65.018z"/>
	<path fill="none" d="M116.669,79.704h-0.283H96.442h-0.534h-0.876c0,6.282,5.099,6.667,11.384,6.667
		c4.769,0,8.854-0.225,10.535-3.101c0.545-0.902,0.839-2.051,0.839-3.566h-0.887H116.669z"/>
	<polygon fill="#D94626" points="96.976,54.194 106.305,45.178 105.572,44.428 96.239,53.433 	"/>
	<polygon fill="#D94626" points="97.403,57.601 108.216,47.151 107.474,46.396 96.656,56.834 	"/>
	<polygon fill="#D94626" points="93.468,53.545 104.291,43.096 103.56,42.345 92.736,52.795 	"/>
	<polygon fill="#D94626" points="96.933,61.859 109.679,49.541 108.958,48.78 96.19,61.093 	"/>
	<path fill="#D94626" d="M140.799,74.746l5.205-6.212l-6.209-5.211l4.058-7.024l-7.027-4.053l2.771-7.617l-7.614-2.771l1.415-7.988
		l-7.987-1.413v-8.098h-0.012h-8.1l-1.399-7.982l-7.988,1.404l-2.776-7.619l-7.608,2.782l-4.059-7.032l-7.021,4.053L81.229,3.77
		l-6.21,5.198L68.815,3.77l-5.206,6.194l-7.022-4.053l-4.053,7.032l-7.625-2.782l-2.771,7.619l-7.988-1.404l-1.404,7.982h-8.111
		v8.098l-7.978,1.413l1.399,7.988l-7.609,2.771l2.776,7.617l-7.027,4.053l4.047,7.029l-6.21,5.207l5.217,6.212l-5.217,6.216
		l6.21,5.206l-4.053,7.019l7.032,4.058l-2.776,7.62l7.609,2.767l-1.399,7.987l7.978,1.415v8.089h8.111l1.415,7.999l7.977-1.409
		l2.771,7.619l7.625-2.782l4.053,7.027l7.022-4.069l5.206,6.227l6.205-5.217l6.21,5.217l5.217-6.227l7.021,4.069l4.059-7.027
		l7.608,2.782l2.767-7.619l7.987,1.398l1.41-7.988h8.111v-8.089l7.987-1.415l-1.415-7.987l7.625-2.767l-2.771-7.62l7.017-4.058
		l-4.047-7.019l6.198-5.206L140.799,74.746z M45.492,65.018c3.962,0,7.454,2.045,9.489,5.123c1.196,1.789,1.879,3.943,1.879,6.251
		h-0.822h-0.497h-0.048H35.437H34.94h-0.822C34.118,70.12,39.207,65.018,45.492,65.018z M56.155,78.024
		c0,0.416-0.155,0.793-0.411,1.068h-0.043H35.234c-0.257-0.275-0.417-0.652-0.417-1.068c0-0.382,0.149-0.748,0.374-1.022H55.53
		h0.257C56.011,77.276,56.155,77.643,56.155,78.024z M34.118,79.704h0.886h0.518h19.933h0.288h0.246h0.87
		c0,1.516-0.293,2.664-0.822,3.566c-1.688,2.876-5.767,3.101-10.546,3.101C39.207,86.371,34.118,85.986,34.118,79.704z
		 M107.004,106.487c-1.01,1.052-2.671,1.09-3.732,0.074c-0.005-0.005-0.005-0.037-0.017-0.048l-0.021,0.011
		c0,0-14.124-13.647-15.234-14.727c-3.866-6.527-8.811-8.292-8.811-8.292l-1.366-1.335l1.324-1.367l-4.566-4.412l-5.393,5.222
		l1.34,1.394l-1.367,1.324c0,0-4.95,1.754-8.821,8.289c-1.111,1.065-15.24,14.722-15.24,14.722l-0.01-0.011
		c-0.006,0.011-0.027,0.032-0.027,0.053c-1.046,0.999-2.712,0.961-3.728-0.08c-0.999-1.03-0.987-2.707,0.059-3.716
		c0.021-0.011,0.038-0.031,0.038-0.031v-0.017c0,0,13.925-13.429,15.229-14.689c7.422-5.052,8.5-8.661,8.5-8.661l1.373-1.327
		l1.345,1.367l5.334-5.149L61.11,63.373c-3.524,2.614-7.999-2.013-7.999-2.013L39.746,48.452l0.988,0.152
		c14.983,13.846,18.4,13.157,19.148,12.494l-0.037-0.034c0,0,0.074-0.021,0.144-0.08c0.069-0.094,0.085-0.155,0.085-0.155
		l0.042,0.045c0.63-0.776,1.196-4.21-13.162-18.699l-0.208-0.996l13.376,12.914c0,0,4.8,4.299,2.302,7.908l12.158,11.755
		L86.078,62.66c0,0-0.93-9.998,0.325-11.24c1.266-1.23,6.167-6.025,6.749-6.522c0.588-0.478,8-8.111,11.288-4.699
		c0.935,0.98,2.638,2.723,2.959,3.078c0.037,0.046,0.063,0.067,0.063,0.067c0.336,0.334,1.992,2.051,2.97,3.057
		c3.106,3.23-4.582,10.545-5.095,11.114c-0.529,0.568-5.5,5.3-6.766,6.536c-1.191,1.132-10.012,0.064-11.116-0.083L75.954,75.068
		l4.512,4.354l1.324-1.397l1.394,1.34c0,0,1.068,3.621,8.506,8.683c1.281,1.242,15.213,14.692,15.213,14.692h-0.011
		c0.021,0,0.032,0.021,0.032,0.021C107.981,103.765,108.013,105.457,107.004,106.487z M116.951,83.271
		c-1.682,2.876-5.767,3.101-10.535,3.101c-6.285,0-11.384-0.385-11.384-6.667h0.876h0.534h19.943h0.283h0.234h0.887
		C117.79,81.22,117.496,82.368,116.951,83.271z M95.754,78.024c0-0.382,0.133-0.748,0.378-1.022h20.323h0.246
		c0.229,0.274,0.373,0.641,0.373,1.022c0,0.416-0.16,0.793-0.417,1.068h-0.036H96.148C95.908,78.817,95.754,78.44,95.754,78.024z
		 M116.951,76.392h-0.485h-0.07H96.356h-0.491h-0.833c0-6.272,5.099-11.374,11.384-11.374c3.963,0,7.449,2.045,9.483,5.123
		c1.186,1.789,1.891,3.943,1.891,6.251H116.951z"/>
	<polygon fill="#D94626" points="101.894,41.176 101.152,40.423 88.395,52.742 89.138,53.503 	"/>
</g>
</svg>
