<?xml version="1.0" encoding="utf-8"?>
<!-- Generator: Adobe Illustrator 18.1.0, SVG Export Plug-In . SVG Version: 6.00 Build 0)  -->
<svg version="1.0" id="Layer_1" xmlns="http://www.w3.org/2000/svg" xmlns:xlink="http://www.w3.org/1999/xlink" x="0px" y="0px"
	 viewBox="0 0 150 150" enable-background="new 0 0 150 150" xml:space="preserve">
<g>
	<g>
		<path fill="#FFCE00" d="M116.7,90.5c-0.1-0.2-1.8-3.2-5.3-6.2c-0.1-0.1-0.2-0.2-0.3-0.3v8.5c0.1,0.1,0.2,0.2,0.2,0.3v36.4
			c-3.4-3-8.7-6.1-15.5-6.1c-6.8,0-11.9,3-15.2,6l-3.2,2.1l-2.3-2c-0.1-0.1-0.2-0.1-0.2-0.2v0.2c-3.4-3-8.6-6.1-15.5-6.1h0
			c-6.7,0-11.9,3-15.2,6v-0.3c-0.1,0.1-0.2,0.1-0.2,0.2V92.2c0,0,0.1-0.2,0.1-0.2v-7.8c-0.1,0.1-0.1,0.1-0.2,0.2
			c-3.4,3.1-5,6.1-5.1,6.2L38.2,92v45l5.4,1.4l0,0c0.1-0.2,1.5-2.7,4.2-5c2.7-2.4,6.4-4.5,11.4-4.5c5.2,0,9.1,2.3,11.8,4.8
			c1.4,1.2,2.4,2.4,3.1,3.4c0.4,0.5,0.6,0.8,0.8,1.1c0.1,0.1,0.1,0.2,0.2,0.3l0,0.1h0l5-0.1v0l0,0c0.1-0.2,1.6-2.7,4.2-5
			c2.7-2.3,6.4-4.5,11.4-4.5c5.2,0,9.1,2.3,11.8,4.8c1.4,1.2,2.4,2.4,3.1,3.4c0.3,0.5,0.6,0.8,0.8,1.1c0.1,0.1,0.1,0.2,0.2,0.3
			c0,0,0,0.1,0,0.1v0l5.4-1.4V92L116.7,90.5z"/>
	</g>
	<g>
		<path fill="#1D7BBF" d="M91.6,59.2c3.9-3.7,10.1-6.1,15-5.8c0,5.7-2.9,11.1-6.7,14.9c-3.8,3.7-9.7,6.3-15,5.3
			C84.7,67.9,88.1,62.5,91.6,59.2z"/>
		<path fill="#1D7BBF" d="M97.6,21.1c3.3-4.3,9-7.6,13.8-8.1c0.9,5.7-1,11.5-4.2,15.8c-3.2,4.3-8.5,7.8-14,7.6
			C92.2,30.9,94.6,24.9,97.6,21.1z"/>
		<path fill="#1D7BBF" d="M80.8,50.4c2.9-4.5,8.4-8.3,13.1-9.1c1.4,5.5-0.2,11.5-3,16c-2.8,4.5-7.9,8.4-13.3,8.7
			C76.2,60.5,78.2,54.4,80.8,50.4z"/>
		<path fill="#FFCE00" d="M100.6,41.1c2.4-2.5,6.3-4.4,9.4-4.4c0.2,3.7-1.4,7.3-3.7,9.9c-2.3,2.5-5.9,4.5-9.4,4
			C96.6,47.1,98.5,43.4,100.6,41.1z"/>
		<path fill="#FFCE00" d="M109.3,58.2c2.1-2.3,5.6-3.9,8.5-3.9c0.2,3.3-1.3,6.6-3.3,8.9c-2.1,2.3-5.4,4-8.5,3.6
			C105.6,63.6,107.3,60.2,109.3,58.2z"/>
		<path fill="#1D7BBF" d="M57.9,20.6c-0.7-3.1,0-6.9,1.6-9.2c2.9,1.7,4.7,4.8,5.4,7.8c0.7,3,0.2,6.7-1.9,9.1
			C60.2,26.7,58.5,23.4,57.9,20.6z"/>
		<path fill="#FFCE00" d="M73.4,21.4c-0.1-3.7,1.5-8,3.9-10.4c3,2.6,4.4,6.6,4.6,10.3c0.2,3.7-1.2,7.9-4.1,10.2
			C74.8,28.9,73.5,24.7,73.4,21.4z"/>
		<path fill="#1D7BBF" d="M81.9,32c1.5-3.2,4.6-6.1,7.6-7c1.4,3.4,0.9,7.4-0.4,10.5c-1.4,3.1-4.3,6.1-7.7,6.8
			C79.9,38.9,80.6,34.8,81.9,32z"/>
		<path fill="#1D7BBF" d="M112.8,41.7c2.2-2.3,5.7-4,8.6-4c0.2,3.4-1.3,6.7-3.4,9c-2.1,2.3-5.5,4.1-8.7,3.7
			C109.1,47.1,110.9,43.7,112.8,41.7z"/>
		<path fill="#1D7BBF" d="M38.2,38.4c-1.7-2.3-2.6-5.7-2.1-8.2c3,0.4,5.7,2.2,7.4,4.4c1.7,2.2,2.7,5.4,1.8,8.2
			C42.3,42.6,39.6,40.5,38.2,38.4z"/>
		<path fill="#FFCE00" d="M54.9,61.5c-4.3-5.8-6.5-14.5-5.3-20.9C57.3,41.6,64,46.3,68.4,52c4.3,5.7,6.8,13.9,4.6,20.9
			C65.5,72.1,58.7,66.7,54.9,61.5z"/>
		<path fill="#1D7BBF" d="M66.2,43.1c-1.8-4.6-1.7-10.6,0.2-14.6c4.9,1.9,8.5,6.2,10.4,10.7c1.9,4.5,2.1,10.3-0.6,14.5
			C71.3,51.9,67.8,47.2,66.2,43.1z"/>
		<path fill="#FFCE00" d="M34.7,53.1c-2.8-3.2-4.6-8.2-4.2-12.1c4.6,0.2,8.8,2.6,11.7,5.7c2.9,3.2,4.8,7.9,3.8,12.1
			C41.6,58.8,37.3,56,34.7,53.1z"/>
		<path fill="#FFCE00" d="M41.4,26.7c-2.2-3.7-3-8.9-1.9-12.6c4.5,1,8.2,4.2,10.4,7.8c2.2,3.6,3.2,8.6,1.5,12.6
			C47,33.6,43.3,30,41.4,26.7z"/>
		<path fill="#1D7BBF" d="M58.4,30.3c0.9,0.9,1.6,2.1,2.1,3.2c0.9,2.2,1,5.1-0.3,7.1c-2.4-0.9-4.1-3.2-4.9-5.2
			c-0.9-2.2-0.9-5.2,0.1-7.2C56.6,28.7,57.6,29.4,58.4,30.3"/>
		<path fill="#1D7BBF" d="M46.8,62.9c1.3,0.2,2.5,0.6,3.6,1.3c2.1,1.2,3.9,3.4,4.2,5.8c-2.4,0.8-5.2,0-7.1-1.1
			c-2.1-1.2-3.9-3.6-4.4-5.7C44.3,62.8,45.6,62.7,46.8,62.9"/>
		<path fill="#1D7BBF" d="M116.7,27.6c-0.4,1-0.9,2-1.6,2.8c-1.3,1.5-3.4,2.8-5.5,2.6c-0.3-2.1,0.8-4.4,2-5.7
			c1.3-1.5,3.6-2.7,5.5-2.8C117.2,25.6,117.1,26.7,116.7,27.6"/>
		<path fill="#1D7BBF" d="M93.8,13.6c0,1.1-0.2,2.2-0.6,3.2c-0.7,1.9-2.4,3.7-4.4,4.2c-0.9-1.9-0.6-4.4,0.1-6.1
			c0.8-1.9,2.6-3.7,4.3-4.4C93.7,11.6,93.9,12.6,93.8,13.6"/>
		<path fill="#1D7BBF" d="M84,77.8c0.6,0,1.2,0.3,1.6,0.7c0.4,0.5,0.7,1,0.6,1.6c0,1.3-0.7,2-1.9,2.2c0.7,7.7,3.1,14.5,7.2,20.5
			L79,126.3l0.2-33.7c0.6-0.3,1.1-0.7,1.5-1.4c0.5-0.6,0.7-1.3,0.7-2c0-0.9-0.3-1.7-1-2.4c-0.7-0.7-1.5-1-2.4-1.1
			c-0.9,0-1.8,0.3-2.5,1c-0.7,0.6-1,1.4-1.1,2.4c0,1.4,0.6,2.5,1.8,3.1l-0.6,34.1l-11.9-24.2c1.6-3.1,2.7-5.4,3.4-6.9
			c0.7-1.5,1.6-3.6,2.5-6.1c0.9-2.6,1.6-4.9,2-7c-1.2-0.3-1.7-1.1-1.7-2.3c0-0.6,0.2-1.2,0.7-1.6c0.5-0.4,1-0.7,1.6-0.6L84,77.8z"/>
	</g>
</g>
</svg>
