<?xml version="1.0" encoding="utf-8"?>
<!-- Generator: Adobe Illustrator 18.1.0, SVG Export Plug-In . SVG Version: 6.00 Build 0)  -->
<svg version="1.1" id="Layer_1" xmlns="http://www.w3.org/2000/svg" xmlns:xlink="http://www.w3.org/1999/xlink" x="0px" y="0px"
	 viewBox="0 0 2000 2000" enable-background="new 0 0 2000 2000" xml:space="preserve">
<g>
	<path fill="none" d="M721.4,396.4c-159.5-0.8-213.5,158.2-159,233.1c11.1-223.7,349.8-172.3,355.7,29.8
		C956.7,569.4,900.5,397.4,721.4,396.4z"/>
	<path fill="none" d="M522,589.1c-36.5,88.7,21.3,258.3,196.5,259c156.1,0.7,206.5-156.1,152-230C863.1,838.6,530.8,788.3,522,589.1
		z"/>
	<path fill="none" d="M666.2,970.6c21.5-0.1,42.5-2.3,62.7-6.8c16-3.5,31.6-8.4,46.3-14.8c12-5.2,23.4-11.4,34.3-18.5
		c4.3-2.8,8.4-5.8,12.5-9c28.2-21.7,51-50.6,65.4-87.3c0.2-0.5,0.5-1,0.7-1.5c-0.3,0.4-0.6,0.7-0.9,1c-8.3,10.4-18,20-28.9,28.5
		c-12.9,10.1-27.5,18.8-43.4,25.5c-19.8,8.4-41.6,13.8-64.9,15.6c-4.1,0.3-8.2,0.5-12.4,0.6c-46.2,0.8-97.4-12.8-149.2-46.6
		C494.3,795.7,454,693.5,458.1,602.9c8.2-180.4,170.1-283,349.6-228.6c-292.1-138.2-551.8,81.5-461.5,371.5
		c41.2,132.6,163.6,210,283.4,222.9C641.9,970,654.1,970.6,666.2,970.6z"/>
	<path fill="none" d="M1068.1,831c-0.1,0.4-0.2,1-0.3,1.4c0.5-0.8,0.9-1.5,1.4-2.3c11.2-17.6,20.5-35.3,28.2-53
		c7.2-16.6,13-33.3,17.3-49.8C1174,500,967.2,288.3,713.9,312.1C1089.1,418.3,1093.1,739.1,1068.1,831z"/>
	<path fill="none" d="M735.3,536.9c-93.5-23.9-151.6,60.9-103.1,138.2c7.6-73.4,57.1-79.6,91.9-68.7c40,12.5,71.5,71.4,40.8,110.1
		C838.4,690.9,849.6,566.2,735.3,536.9z"/>
	<path fill="none" d="M1034.5,845.7c1.9-11.2,3.2-22.4,4.3-33.5c1.9-20.1,2.4-40.2,1.4-60c-4.1-86.6-35.1-167.7-94.2-223.6
		c40.1,88.9,38.2,199.1,0,292.5c-6.7,16.5-14.6,32.4-23.6,47.6c-6.2,10.5-13,20.5-20.3,30.3c-8.1,10.8-16.6,21.3-25.9,31.1
		c-67.4,70.1-150.6,92.9-235.6,85.6c-4.4-0.4-8.9-0.8-13.3-1.4c-1.9-0.2-3.7-0.5-5.6-0.7c-45.8-6.2-91.9-20.8-136-40.9
		c51.3,33.5,92.9,53.9,129.2,68.7c82.2,33.7,137,39.2,213.7,105.5C944.7,1082.7,1014.3,965.6,1034.5,845.7z"/>
	<path fill="none" d="M1662.9,1026.2c-11.3,7.1-22.6,11.4-33.3,13.8c10.1,2.3,20.9,3,30.7,2.9
		C1661.1,1037.9,1662,1032.3,1662.9,1026.2z"/>
	<path fill="none" d="M1162.6,672.2c-1.9,21.9-6.3,43.8-12.7,66.1c-4.9,17.1-10.9,34.3-18,51.8c-4.3,10.6-8.9,21.3-13.9,32.2
		c-13.2,28.9-28.6,58.7-45.3,89.8c-87.9,163.1-161.7,280-314.8,285.3c25,10.5,76.9,10.5,135.6-7.8c54.2-16.9,114.2-49.5,164.3-103.9
		c57-61.8,100.9-151.9,108.9-279.2C1169.2,765.7,1168.2,721.1,1162.6,672.2z"/>
	<path fill="none" d="M1618.9,1032.1c16.9-1,33.9-6.1,44.6-10c6.5-46.1,12.7-115.6,2.5-172.9c-4.4-24.7-14.5-44-27-59.2
		c1.2,34.6-2.3,75.4-13.3,124.4c-7.8,34.6-13,64.8-16,91.5c9.2-5,15.2-9.1,15.2-9.1c-5.1,6-10.4,11.1-15.9,15.5
		c-0.2,1.7-0.3,3.3-0.4,4.9c18.4-7.7,32.5-17.4,32.5-17.4c-9.6,11.4-20.1,19.4-30.6,25.2c26.5-6.8,51-23.7,51-23.7
		C1648.2,1017,1633.1,1026.5,1618.9,1032.1z"/>
	<path fill="none" d="M827.2,168.2c226.1,116.8,353.4,297.7,375,507c2,19.4,3.1,39,3.3,58.8c0.1,10.9,0,21.8-0.5,32.8
		c-2.9,70.3-17,143-42.5,217c55.9-83.2,89.2-163.2,104.5-238.4c6.8-33.4,10.1-65.9,10-97.3c0-13.8-0.7-27.3-1.9-40.6
		C1253.5,369,1044.2,200.6,827.2,168.2z"/>
	<path fill="#EF4136" d="M1674.3,1046.9c6.1-1.8,12.3-4,18.6-7.1c0,0-6,1.2-15.1,2.1c33.5-49.1,91.1-152.7,83.1-276.4
		c-11.1-173-72.5-262.2-150.6-318c-78.1-55.8-173-72.5-173-72.5s-117.2-273.4-479.8-251.1c-89,5.5-176.6,19.7-258.7,43.2
		c100.5,12.4,203.1,69.4,287.4,174.1C769.3,217.4,434.5,229.6,299.2,499.8c10-45,24.2-85.5,41.7-121.7
		c-65.8,75.8-109.2,169.2-120,281.5c-4.7,48.7-2.5,99.3,4.9,150.4c-6.6-79.1,11.1-167.5,60.1-261.4
		c-22.5,198.3,48.7,322.6,120.3,400.4c58.4,63.5,131.2,99.3,198.8,125.2c87,33.3,165.4,50.1,193.2,88.2
		c-80.8,15.9-160,14.7-232.5-0.9c-156.5-33.5-281.8-133.9-325-274c69.1,287.9,282,576.9,387.5,664.8c3.5,2.9,7.2,5.9,10.9,8.9
		c35.2,35,72.1,68.2,110.8,99.4c90.8,66.7,188.9,122.3,291.9,168.2c54.2,21.8,109.2,40.9,164.9,57.9c-27.9-171.1-20-382.8-20-382.8
		c24.5,33.7,64.4,44.9,125.9,78.3c38.4,20.9,59.7,30.5,88,40.6c80.5,28.4,92.4-52.1,97.1-82.9c4.8-30.8,35.6-11.8,52.1-35.5
		c16.6-23.7-9.5-59.2-9.5-59.2c33.2,0,40.3-45,40.3-45c-23.7-47.4,12.2-77.8,12.2-77.8c33.2,2.4,101.2-28.5,85-50.1
		c-10.8-14.3-28.3-47.5-28.3-47.5c-24.4-44-45.7-102-42.8-179.9c12.4,4.4,30.9,8.4,52.4,5.5c-2.4,13.9-4.2,22.2-4.2,22.2
		S1662.8,1063.3,1674.3,1046.9z M1114.6,727.2c-4.3,16.6-10.1,33.2-17.3,49.8c-7.7,17.7-17,35.4-28.2,53c-0.5,0.8-0.9,1.5-1.4,2.3
		c0.1-0.4,0.2-0.9,0.3-1.4c25-91.8,21-412.7-354.2-518.9C967.2,288.3,1174,500,1114.6,727.2z M724,606.4
		c-34.8-11-84.2-4.7-91.9,68.7c-48.5-77.4,9.7-162.1,103.1-138.2c114.3,29.3,103.2,154,29.5,179.7
		C795.5,677.9,763.9,618.9,724,606.4z M870.4,618.1c54.5,73.8,4.1,230.6-152,230c-175.2-0.7-233-170.3-196.5-259
		C530.8,788.3,863.1,838.6,870.4,618.1z M562.4,629.6c-54.5-74.9-0.4-233.9,159-233.1c179,0.9,235.3,172.9,196.6,262.9
		C912.2,457.3,573.4,405.9,562.4,629.6z M346.3,745.7c-90.3-290,169.3-509.7,461.5-371.5c-179.5-54.3-341.5,48.3-349.6,228.6
		c-4.1,90.6,36.2,192.8,130.3,254.4c51.8,33.9,103,47.5,149.2,46.6c4.2-0.1,8.3-0.3,12.4-0.6c23.3-1.8,45.1-7.2,64.9-15.6
		c15.9-6.7,30.5-15.4,43.4-25.5c10.9-8.5,20.5-18.1,28.9-28.5c0.3-0.4,0.6-0.7,0.9-1c-0.2,0.5-0.5,1-0.7,1.5
		c-14.4,36.7-37.2,65.6-65.4,87.3c-4.1,3.1-8.2,6.1-12.5,9c-10.8,7.1-22.3,13.3-34.3,18.5c-14.7,6.4-30.2,11.3-46.3,14.8
		c-20.2,4.5-41.3,6.7-62.7,6.8c-12.1,0-24.3-0.6-36.6-1.9C509.9,955.8,387.5,878.3,346.3,745.7z M615,1041.3
		c-36.3-14.9-78-35.2-129.2-68.7c44.1,20.2,90.1,34.7,136,40.9c1.9,0.3,3.7,0.5,5.6,0.7c4.4,0.5,8.9,1,13.3,1.4
		c85,7.2,168.2-15.5,235.6-85.6c9.3-9.7,17.8-20.2,25.9-31.1c7.2-9.7,14.1-19.8,20.3-30.3c9-15.2,16.8-31.2,23.6-47.6
		c38.3-93.4,40.1-203.6,0-292.5c59.1,55.9,90.1,137,94.2,223.6c0.9,19.8,0.4,39.9-1.4,60c-1,11.2-2.4,22.4-4.3,33.5
		c-20.2,119.9-89.8,237-205.8,301.1C752,1080.5,697.2,1075,615,1041.3z M893.5,1189.7c-58.7,18.3-110.6,18.3-135.6,7.8
		c153.1-5.3,226.9-122.2,314.8-285.3c16.8-31.1,32.1-60.9,45.3-89.8c4.9-10.8,9.6-21.6,13.9-32.2c7.1-17.5,13.1-34.7,18-51.8
		c6.4-22.3,10.8-44.2,12.7-66.1c5.7,48.9,6.6,93.4,4.1,134.3c-8,127.3-51.9,217.4-108.9,279.2
		C1007.7,1140.2,947.7,1172.8,893.5,1189.7z M1267,745.4c-15.3,75.2-48.6,155.2-104.5,238.4c25.6-74,39.7-146.7,42.5-217
		c0.4-11,0.6-21.9,0.5-32.8c-0.2-19.8-1.3-39.4-3.3-58.8c-21.6-209.3-148.9-390.1-375-507c217,32.4,426.2,200.8,447.9,439.3
		c1.2,13.3,1.9,26.9,1.9,40.6C1277.1,679.5,1273.8,712,1267,745.4z M1610.5,1025c10.4-5.8,21-13.8,30.6-25.2c0,0-14.1,9.7-32.5,17.4
		c0.1-1.6,0.3-3.2,0.4-4.9c5.5-4.3,10.9-9.4,15.9-15.5c0,0-6,4.1-15.2,9.1c3-26.7,8.2-56.9,16-91.5c11-49,14.5-89.8,13.3-124.4
		c12.5,15.2,22.6,34.5,27,59.2c10.1,57.3,3.9,126.8-2.5,172.9c-10.7,3.8-27.7,8.9-44.6,10c14.2-5.7,29.3-15.1,42.7-30.9
		C1661.5,1001.2,1637,1018.1,1610.5,1025z M1629.6,1040.1c10.6-2.4,22-6.7,33.3-13.8c-0.9,6.1-1.8,11.6-2.6,16.7
		C1650.5,1043,1639.7,1042.4,1629.6,1040.1z"/>
</g>
</svg>
