<?xml version="1.0" encoding="utf-8"?>
<!-- Generator: Adobe Illustrator 18.1.0, SVG Export Plug-In . SVG Version: 6.00 Build 0)  -->
<svg version="1.0" id="Layer_1" xmlns="http://www.w3.org/2000/svg" xmlns:xlink="http://www.w3.org/1999/xlink" x="0px" y="0px"
	 viewBox="0 0 150 150" enable-background="new 0 0 150 150" xml:space="preserve">
<g>
	<path fill="#63A70A" d="M21.3,126.7v3.9h25c-0.1-0.1-0.2-0.2-0.4-0.4C41.7,126,29.4,124.5,21.3,126.7z"/>
	<path fill="#63A70A" d="M126.2,75.6L74.3,39.5L39.1,65.1c14,2.4,26.9,8.5,37.4,17.2c-0.9,0.9-1.9,1.8-2.8,2.7
		c-11.5-8-27.4-13.4-43.8-13.2l-8.6,6.3v3.7c16.5-1.5,32,4.2,43.7,13.8c-0.8,1.1-1.5,2.2-2.2,3.4C52,91.6,36.5,87.4,21.3,90.1v9.1
		c0.9-0.1,1.7-0.1,2.6-0.1c12.9-0.8,24.5,4.3,32.7,12.2c-0.5,1.2-1,2.5-1.4,3.8c-8.2-6.4-21.4-10.4-33.9-6.9v8.5
		c1.8-0.3,3.7-0.4,5.5-0.2c10.8,0.1,19.2,6.7,22.9,14.3h3.1c0-0.1,0-0.3,0-0.4C62.9,97.4,94.8,75.1,126.2,75.6z"/>
	<path fill="#63A70A" d="M84,130.6h2.7c9.2-16.3,27.7-25.6,44.1-23.3v-8.2c-2.2,0-4.5,0.2-6.7,0.5C104.5,101.8,89.1,117,84,130.6z"
		/>
	<path fill="#63A70A" d="M130.8,91.6v-8.2c-3,0-6,0.2-9,0.7c-26.2,3-46.6,23.7-52.9,41.7c-0.6,1.7-1.2,3.3-1.6,4.8h2
		C79.4,105,106.2,88.9,130.8,91.6z"/>
	<path fill="#63A70A" d="M101.7,130.6h29.2v-15.7c-1.5,0-3,0.1-4.5,0.3C115.6,116.4,106.7,123.2,101.7,130.6z"/>
	<path fill="#4F3616" d="M144.3,66.3l-21.1-15.7V19.6H97.5v11.8L80,18.3c-1.2-0.9-2.5-1.3-3.9-1.3c-1.4,0-2.7,0.4-3.9,1.3l-64.4,48
		c-2.3,1.7-3.2,4.6-2.3,7.3c0.9,2.7,3.4,4.5,6.2,4.5h1l61.6-45.8l63.5,45.8h2.6c2.8,0,5.3-1.8,6.2-4.5
		C147.5,70.9,146.6,68,144.3,66.3z"/>
</g>
</svg>
