<?xml version="1.0" encoding="utf-8"?>
<!-- Generator: Adobe Illustrator 18.1.0, SVG Export Plug-In . SVG Version: 6.00 Build 0)  -->
<svg version="1.0" id="Layer_1" xmlns="http://www.w3.org/2000/svg" xmlns:xlink="http://www.w3.org/1999/xlink" x="0px" y="0px"
	 viewBox="0 0 150 150" enable-background="new 0 0 150 150" xml:space="preserve">
<g>
	<path fill="none" d="M115.1,102.9c3,0.8,5.8,0.4,7.9-3.9c0.1-0.1,0.1-0.2,0.2-0.4c-1.2-0.5-2.4-1-3.6-1.5
		C118.8,99.5,117.2,101.5,115.1,102.9z"/>
	<path fill="none" d="M95.5,102.6c-0.6,1-1.3,1.8-2.1,2.6c0.6-0.5,1.2-1,1.9-1.8c0.7-0.8,1.4-1.5,2-2c-0.3-0.1-0.7-0.1-1-0.2
		C96.1,101.6,95.9,102.1,95.5,102.6z"/>
	<path fill="none" d="M109.7,104.7c0.4,1.9,0.1,4.1-1,6.4c2.2,1.4,4.3,3.2,6.6,0.3c0.6-0.7,1.1-1.2,1.7-1.6c-2-1.6-3.8-3.6-5.6-5.4
		c-0.2,0.1-0.4,0.1-0.6,0.1C110.4,104.7,110.1,104.7,109.7,104.7z"/>
	<path fill="none" d="M103.8,99c1.9-0.7,3.2-2.2,3.3-5.5c0-1.1,0.2-2,0.4-2.8c-2.1,3.6-5.5,5.9-9.3,6.7c-0.3,0.8-0.6,1.7-1,2.6
		c1-0.1,2-0.2,2.9-0.2C101.3,99.1,102.6,98.9,103.8,99z"/>
	<path fill="#088587" d="M55.3,93c-1.4-0.9-2.7-1.7-4-2.6c-0.1,0-0.1-0.1-0.2-0.1C50,89.5,49,88.7,48,87.9c-0.1-0.1-0.1-0.1-0.2-0.2
		c-0.5-0.4-0.9-0.8-1.3-1.2c-0.1-0.1-0.1-0.1-0.2-0.2c-0.4-0.3-0.7-0.7-1.1-1c-0.1-0.1-0.1-0.1-0.2-0.2c-0.4-0.4-0.7-0.7-1-1.1
		c-0.1-0.1-0.1-0.1-0.2-0.2C32.5,70.5,47.1,60.8,42,53.4c-2-3.9-8.7-8.3-8.3-8.4c-4.1,1-11.4,2.2-23.4,2.2c13.1,4.2,18,4.3,22.2,9.9
		C40,65,19.3,81,52.5,94.2c1.1,0.4,2.7,0.9,4.6,1.2C56.5,94.7,56,93.9,55.3,93C55.4,93.1,55.3,93.1,55.3,93z"/>
	<path fill="#024647" d="M47.8,87.7c-0.5-0.4-0.9-0.8-1.3-1.2C46.9,86.9,47.3,87.3,47.8,87.7z"/>
	<path fill="#024647" d="M51.2,90.3C50,89.5,49,88.7,48,87.9C49,88.7,50,89.5,51.2,90.3z"/>
	<path fill="#024647" d="M55.3,93c-1.4-0.9-2.7-1.7-4-2.6C52.6,91.3,53.9,92.2,55.3,93z"/>
	<path fill="#024647" d="M77.7,82c0.1,0.2,0.3,0.4,0.4,0.7C78,82.4,77.9,82.2,77.7,82z"/>
	<path fill="#024647" d="M46.3,86.4c-0.4-0.3-0.7-0.7-1.1-1C45.6,85.7,46,86.1,46.3,86.4z"/>
	<path fill="#024647" d="M42,53.4c5,7.4-9.5,17.1,1.9,30.5c-0.3-0.4-0.6-0.7-0.9-1.1c0.3,0.1,0.6,0.2,0.9,0.2
		c11.2,0.5,21.9,18.1,32.3,4.8c0.4-0.5,0.9-1,1.3-1.5c-2.6-3-5.3-5.6-9.2-6.2c3.2-0.5,6.3,1,9.4,2.5c-0.2-0.7-0.4-1.4-0.7-2
		c0,0,0,0.1,0.1,0.1c-8.1-13.3-11.2-9.6-11.5-20c-0.3-11.2-1.6-15.1-9.1-19.4C48,36.6,38,38.3,33.7,45.1C33.3,45.2,40,49.5,42,53.4z
		 M51.3,48.9c0.8,0,1.4,0.7,1.4,1.5s-0.6,1.5-1.4,1.5c-0.8,0-1.4-0.7-1.4-1.5S50.6,48.9,51.3,48.9z"/>
	<path fill="#024647" d="M45.1,85.2c-0.4-0.4-0.7-0.7-1-1.1C44.4,84.5,44.8,84.8,45.1,85.2z"/>
	<path fill="#95B596" d="M79.7,102.7c-1.2-1.4-2.7-2.4-4.5-3c3.8,0,7,3.2,10.3,5.2c2.6,1.6,5.2,2.4,8,0.3c0.8-0.8,1.5-1.6,2.1-2.6
		c0.3-0.5,0.6-0.9,0.9-1.4c-1.4-0.2-2.8-0.1-4.3,0.4c1.4-1.1,3.1-1.4,4.9-1.6c0.4-0.9,0.8-1.7,1-2.6c2.5-7.7-0.8-14.3-6.3-16.2
		c-0.3-0.1-0.6-0.2-0.9-0.3c-0.7,0.5-1.5,0.9-2.4,1.1c-1.4,0.3-2.8,0-4.3-0.5c-1.3,0.5-2.6,1.3-3.9,2.3c-0.3,0.3-0.6,0.5-1,0.8
		c-0.4,0.4-0.8,0.7-1.2,1.1c-0.2,0.2-0.4,0.3-0.5,0.5c-0.4,0.5-0.9,1-1.3,1.5c-10.4,13.3-21.1-4.3-32.3-4.8c-0.2,0-0.5,0-0.7,0
		c5.2,1.5,8.8,5.5,12.1,10c0.6,0.8,1.1,1.6,1.7,2.4c3.7,5.2,7.2,10.6,12.5,13.2c4.6,2.3,10.1,2.9,15,1.6
		C83,107.6,81.6,104.9,79.7,102.7z"/>
	<path fill="#96B697" d="M77.7,82.6c0.2,0.1,0.4,0.2,0.6,0.3c-0.1-0.1-0.1-0.2-0.2-0.3c-0.1-0.2-0.3-0.4-0.4-0.7
		c-0.2-0.4-0.5-0.8-0.7-1.2c0,0,0-0.1-0.1-0.1C77.3,81.3,77.5,82,77.7,82.6z"/>
	<path fill="#96B697" d="M43.9,83.9c0.1,0.1,0.1,0.1,0.2,0.2c0.3,0.4,0.6,0.7,1,1.1c0.1,0.1,0.1,0.1,0.2,0.2c0.3,0.3,0.7,0.7,1.1,1
		c0.1,0.1,0.1,0.1,0.2,0.2c0.4,0.4,0.8,0.8,1.3,1.2c0.1,0.1,0.1,0.1,0.2,0.2c1,0.8,2,1.6,3.2,2.4c0.1,0,0.1,0.1,0.2,0.1
		c1.2,0.8,2.5,1.7,4,2.6c0,0,0.1,0,0.1,0.1c-3.3-4.5-6.9-8.6-12.1-10c0.2,0,0.5,0,0.7,0c-0.3-0.1-0.6-0.1-0.9-0.2
		C43.3,83.2,43.6,83.5,43.9,83.9z"/>
	<path fill="#024647" d="M68.3,80.1c3.9,0.6,6.7,3.2,9.2,6.2c0.2-0.2,0.3-0.4,0.5-0.5c0-1.1-0.1-2.1-0.4-3.1
		C74.6,81.2,71.5,79.7,68.3,80.1z"/>
	<path fill="#058687" d="M68.3,80.1c3.9,0.6,6.7,3.2,9.2,6.2c0.2-0.2,0.3-0.4,0.5-0.5c0-1.1-0.1-2.1-0.4-3.1
		C74.6,81.2,71.5,79.7,68.3,80.1z"/>
	<path fill="#058687" d="M79.1,84.3c0.1,0.1,0.1,0.2,0.2,0.3c0.3-0.3,0.6-0.6,1-0.8c-0.6-0.3-1.3-0.6-1.9-0.9
		c0.1,0.1,0.1,0.2,0.2,0.3C78.7,83.6,78.9,83.9,79.1,84.3z"/>
	<path fill="#024647" d="M79.1,84.3c-0.2-0.4-0.4-0.8-0.6-1.1C78.7,83.6,78.9,83.9,79.1,84.3z"/>
	<path fill="#058687" d="M79.1,84.3c-0.2-0.4-0.4-0.8-0.6-1.1C78.7,83.6,78.9,83.9,79.1,84.3z"/>
	<path fill="#088587" d="M98.1,97.4c3.8-0.9,7.2-3.1,9.3-6.7c0.3-1.1,0.7-2.1,1.3-2.8c4.1-11.9-8.8-19.9-16.6-7.1
		c-0.1,0.2-0.2,0.3-0.3,0.5C97.2,83.1,100.6,89.7,98.1,97.4z"/>
	<path fill="#96B697" d="M77.7,82.6c0.3,1,0.4,2.1,0.4,3.1c0.4-0.4,0.8-0.8,1.2-1.1c-0.1-0.1-0.1-0.2-0.2-0.3
		c-0.2-0.4-0.4-0.8-0.6-1.1c-0.1-0.1-0.1-0.2-0.2-0.3C78.1,82.8,77.9,82.7,77.7,82.6z"/>
	<path fill="#058687" d="M77.7,82.6c0.3,1,0.4,2.1,0.4,3.1c0.4-0.4,0.8-0.8,1.2-1.1c-0.1-0.1-0.1-0.2-0.2-0.3
		c-0.2-0.4-0.4-0.8-0.6-1.1c-0.1-0.1-0.1-0.2-0.2-0.3C78.1,82.8,77.9,82.7,77.7,82.6z"/>
	<path fill="#EAE792" d="M119.6,97.1c1.2,0.5,2.4,1,3.6,1.5c4.2-8.2,11.6-6.7,13.6-1c3.3-2.2,5.6-5.9,5.5-10.2
		c-0.2-12.4-14.6-14.2-15.4-0.8c-0.4,5.4-3.3,6.6-6.8,7c0,0.1,0,0.1,0,0.2C120.1,94.9,119.9,96,119.6,97.1z"/>
	<path fill="#F27721" d="M105.5,109.9c1.1,0,2.2,0.6,3.3,1.2c1.1-2.3,1.3-4.5,1-6.4c-4.2,0.2-8.3-2.5-12.4-3.4c-0.7,0.6-1.4,1.2-2,2
		c-0.6,0.8-1.3,1.3-1.9,1.8c-2.5,2.6-5.6,4.3-8.9,5.1c1.6,2.6,3.3,5,5.9,6.4c5.5,3,13,2.3,17-3.3c0.3-0.5,0.6-0.9,0.9-1.4
		C107.6,111,106.7,110.3,105.5,109.9z"/>
	<path fill="#F27721" d="M99.9,99.7c1.4-0.1,2.7-0.3,3.8-0.7C102.6,98.9,101.3,99.1,99.9,99.7z"/>
	<path fill="#8E5723" d="M85.4,104.8c-3.3-2-6.5-5.1-10.3-5.2c1.8,0.6,3.3,1.7,4.5,3c1.9,2.1,3.4,4.9,4.9,7.5
		c3.3-0.8,6.4-2.5,8.9-5.1C90.6,107.2,88,106.4,85.4,104.8z"/>
	<path fill="#E4B324" d="M97,99.9c-0.2,0.4-0.4,0.8-0.6,1.2c0.3,0,0.7,0.1,1,0.2c0.9-0.7,1.7-1.2,2.6-1.6C99,99.8,98,99.8,97,99.9z"
		/>
	<path fill="#E4B324" d="M109.7,104.7c0.3,0,0.7-0.1,1-0.1c0.2,0,0.4-0.1,0.6-0.1c-0.8-0.8-1.6-1.5-2.5-2.1
		C109.3,103.1,109.6,103.9,109.7,104.7z"/>
	<path fill="#E4B324" d="M107,93.5c-0.1,3.3-1.4,4.8-3.3,5.5c1.3,0.1,2.5,0.6,3.5,1.4c2.6,0.5,5.3,1.8,7.8,2.5
		c2.1-1.4,3.8-3.4,4.5-5.8c-3.6-1.5-7.2-2.9-10.8-1.6c3-2.2,7.5-1.6,11.2-2c-0.6-8-7.9-10.4-11.3-5.7c-0.5,0.8-1,1.7-1.3,2.8
		C107.2,91.5,107,92.4,107,93.5z"/>
	<path fill="#95B596" d="M92.1,101.5c1.4-0.5,2.9-0.6,4.3-0.4c0.2-0.4,0.4-0.8,0.6-1.2C95.2,100.1,93.5,100.5,92.1,101.5z"/>
	<path fill="#E4B324" d="M92.1,101.5c1.4-0.5,2.9-0.6,4.3-0.4c0.2-0.4,0.4-0.8,0.6-1.2C95.2,100.1,93.5,100.5,92.1,101.5z"/>
	<path fill="#D0A22A" d="M119.6,97.1c0.3-1.1,0.5-2.2,0.4-3.4c0-0.1,0-0.1,0-0.2c-3.7,0.4-8.2-0.2-11.2,2
		C112.4,94.2,116,95.6,119.6,97.1z"/>
	<path fill="#D75727" d="M103.7,100.4c1.2-0.3,2.4-0.2,3.6,0c-1-0.8-2.2-1.3-3.5-1.4c-1.1,0.4-2.4,0.6-3.8,0.7
		c-0.8,0.4-1.7,0.9-2.6,1.6c4.1,0.9,8.2,3.6,12.4,3.4c-0.2-0.9-0.5-1.6-0.8-2.3C107.4,101.3,105.7,100.6,103.7,100.4z"/>
	<path fill="#E4B324" d="M117.1,109.8c-0.6,0.4-1.1,0.9-1.7,1.6c-2.3,2.9-4.4,1.1-6.6-0.3c-1-0.7-2.1-1.2-3.3-1.2
		c1.2,0.4,2.1,1.1,2.8,2.1c1.6,2,2.6,4.8,4.8,5.9c2.7,1.4,6.3,0.9,8.2-1.8c0.9-1.3,1.2-2.6,1.1-3.6c-0.2,0-0.5-0.1-0.7-0.1
		C120,111.9,118.5,111,117.1,109.8z"/>
	<path fill="#E4B324" d="M90.8,80.9c1.8-1.2,3-3.3,2.7-5.6c-0.7-6.1-7.8-6.4-7.6,0.3c0.1,5.4-5.8,2.8-8.5,5.2c2.2-0.9,4.5,0,6.7,0.8
		C86.5,80.6,88.8,80.4,90.8,80.9z"/>
	<path fill="#848032" d="M88.5,82c0.8-0.2,1.7-0.6,2.4-1.1c-2-0.5-4.3-0.3-6.7,0.6C85.6,82,87,82.3,88.5,82z"/>
	<path fill="#058687" d="M126,111.7c2.9-3.3,10.4-1.1,9.4-7.6c-0.5-2.9,0.3-4.8,1.7-5.8c-0.1-0.3-0.1-0.5-0.2-0.7
		c-1.8,1.2-3.9,2.1-6,2.4c-2.6,0.4-5.1-0.3-7.6-1.3c-0.1,0.1-0.1,0.2-0.2,0.4c-2.1,4.3-4.9,4.7-7.9,3.9c-1.1,0.7-2.4,1.3-3.7,1.6
		c1.9,1.8,3.7,3.8,5.6,5.4c2.6-1.6,5.2,0,5.4,2.6c3,0.6,6.2,0.1,8.9-1.4C129.5,110.8,127.6,110.7,126,111.7z"/>
	<path fill="#067A4F" d="M123.2,98.6c2.5,1,5,1.7,7.6,1.3c2.1-0.3,4.2-1.1,6-2.4C134.8,91.9,127.3,90.4,123.2,98.6z"/>
	<path fill="#145F30" d="M108.9,102.4c0.9,0.6,1.7,1.3,2.5,2.1c1.3-0.3,2.5-0.8,3.7-1.6c-2.5-0.6-5.2-2-7.8-2.5
		C107.9,101,108.5,101.6,108.9,102.4z"/>
	<path fill="#172C17" d="M103.7,100.4c2,0.1,3.7,0.9,5.2,1.9c-0.4-0.8-1-1.4-1.6-1.9C106.1,100.2,104.9,100.2,103.7,100.4z"/>
	<path fill="#145F30" d="M117.1,109.8c1.4,1.1,2.9,2,4.7,2.5c0.2,0.1,0.5,0.1,0.7,0.1C122.2,109.8,119.7,108.2,117.1,109.8z"/>
	<path fill="#87B093" d="M144.5,102.5c-1.2-4.6-5.1-5.9-7.5-4.2c0.5,1.9,0.4,4.3-0.6,6.9c-1,2.6-2.8,4.6-5.1,5.8
		c2.7,0.4,5.6,1.3,8.1,0.4C142.9,110.1,145.5,106.4,144.5,102.5z"/>
	<path fill="#075D4F" d="M136.4,105.2c1-2.6,1.1-4.9,0.6-6.9c-1.3,1-2.1,2.9-1.7,5.8c1.1,6.5-6.5,4.3-9.4,7.6c1.6-1,3.5-1,5.4-0.7
		C133.6,109.8,135.4,107.8,136.4,105.2z"/>
	<path fill="#FFFFFF" d="M51.3,51.9c0.8,0,1.4-0.7,1.4-1.5s-0.6-1.5-1.4-1.5c-0.8,0-1.4,0.7-1.4,1.5S50.6,51.9,51.3,51.9z"/>
</g>
</svg>
