<?xml version="1.0" encoding="utf-8"?>
<!-- Generator: Adobe Illustrator 18.1.0, SVG Export Plug-In . SVG Version: 6.00 Build 0)  -->
<svg version="1.0" id="Layer_1" xmlns="http://www.w3.org/2000/svg" xmlns:xlink="http://www.w3.org/1999/xlink" x="0px" y="0px"
	 viewBox="0 0 150 150" enable-background="new 0 0 150 150" xml:space="preserve">
<g>
	<path fill="#C5AD2F" d="M74.8,48.3c-8.6,6.2-17.5,12-26.1,18.2l-0.2,0C42.1,71,21.3,85.5,8,94.6l7.5,1.2c18.8-13,44.8-31,56.6-39.3
		c1.2-0.7,2.7-2.5,4.1-1c11.5,8,23.1,16,34.7,24c7.6,5.2,15.2,10.5,22.8,15.7l7.1-1.1l-33.6-23.7C96.3,63.2,85.7,55.6,74.8,48.3z"/>
	<path fill="#C5AD2F" d="M40.3,64.2c11.5-8,23.1-16.1,34.7-24c11.8,8.2,23.7,16.4,35.5,24.6l16.9-29.4l-39.3,12L73,9.3L57.9,47.5
		l-39.3-12l18,31.3c1.5-1,2.7-1.8,3.5-2.3L40.3,64.2z"/>
	<path fill="#C5AD2F" d="M75,62.7c-10.6,7.1-32.1,22.2-49.9,34.6l20.8,3.2l-3,41L73,113.5l30.2,27.9l-3-41l23.9-3.6
		c-6-4.2-12-8.4-18-12.5C95.8,77,85.3,70,75,62.7z M73.4,109.6c-4.1,0.1-8.1,0.1-12.2,0.1c0-4.1,0-8.1,0.1-12.2c4,0,8.1,0,12.1,0
		C73.4,101.6,73.4,105.6,73.4,109.6z M61.2,94.4c0-4,0-8,0-12.1c4.1,0,8.1,0,12.2,0c0,4,0,8,0,12.1C69.3,94.4,65.3,94.4,61.2,94.4z
		 M88.7,82.3c0,4,0,8.1,0,12.1c-4,0-8.1,0-12.1,0c0-4.1,0-8.1,0-12.1C80.6,82.3,84.7,82.3,88.7,82.3z M76.6,109.7
		c0-4,0-8.1,0.1-12.1c4,0,8,0,12.1,0c0,4,0,8,0.1,12.1C84.7,109.8,80.6,109.8,76.6,109.7z"/>
</g>
</svg>
