<?xml version="1.0" encoding="utf-8"?>
<!-- Generator: Adobe Illustrator 18.1.0, SVG Export Plug-In . SVG Version: 6.00 Build 0)  -->
<svg version="1.1" id="Layer_1" xmlns="http://www.w3.org/2000/svg" xmlns:xlink="http://www.w3.org/1999/xlink" x="0px" y="0px"
	 viewBox="0 0 150 150" enable-background="new 0 0 150 150" xml:space="preserve">
<g>
	<path fill="none" d="M93.5,66.7C93.5,57,85.6,49,75.9,49c0,0,0,0,0,0C85.6,49,93.4,57,93.5,66.7C93.4,76,86,83.7,77,84.3
		C86,83.7,93.5,76,93.5,66.7z"/>
	<polygon fill="none" points="94.3,70 94.3,70 94.4,68.5 94.2,68.5 	"/>
	<path fill="none" d="M58.7,66.7c0-4,1.3-7.8,3.5-10.7C59.9,59,58.6,62.8,58.7,66.7C58.6,76.3,65,84,76,84.3
		C65,84,58.7,76.2,58.7,66.7z"/>
	<path fill="none" d="M94.5,57l-1.5,0.9c-0.3,0.2-0.6,0.1-0.8-0.2c0-0.1-0.1-0.1-0.1-0.2c0,0.1,0,0.2,0.1,0.2
		c0.2,0.3,0.5,0.4,0.8,0.2L94.5,57c0.5,1,0.9,2,1.2,3l0.1,0C95.5,59,95,58,94.5,57z"/>
	<polygon fill="none" points="94,68.5 94,68.5 94,68.5 	"/>
	<path fill="none" d="M88.5,49.9l-1,1.5c-0.1,0.2-0.4,0.3-0.6,0.2c0.2,0,0.5,0,0.6-0.2L88.5,49.9c1,0.8,1.9,1.6,2.8,2.5l0,0
		C90.5,51.5,89.5,50.7,88.5,49.9z"/>
	<path fill="none" d="M96.3,61.5L96.3,61.5l-2.3,0.8h0l-0.4-1.2l-0.1,0l0.5,1.8h0l2.3-1h0c0,0.2,0.1,0.3,0.2,0.5
		C96.4,62.2,96.3,61.8,96.3,61.5L96.3,61.5z"/>
	<path fill="none" d="M97,65.9l22.1-2.9c0.3,0,0.5-0.3,0.5-0.7c0,0.3-0.2,0.6-0.5,0.7l-22.1,2.7l-1.2,0.1l0,0
		c-0.3,0-0.6-0.2-0.7-0.5c0-0.3,0.2-0.6,0.5-0.7l-0.1,0c-0.3,0-0.8,0.3-0.8,0.7c0,0.3,0.3,0.6,0.3,0.5v0c0,0,0,0.1,0,0.1l1.9,0h0H97
		C97,66,97,65.9,97,65.9z"/>
	<path fill="none" d="M21.7,73.1c7.4,0.5,21.7,1.8,37.4,7.7c-14.1-5.3-27-7.2-34.9-7.9L21.7,73.1z"/>
	<polygon fill="none" points="94.5,68.6 95.4,68.7 94.4,68.5 	"/>
	<path fill="none" d="M65.2,40.1L68,47v0c0.1,0,0.1,0,0.2-0.1l-2.9-6.8l-7.7-18.4c-0.5,0.1-0.9,0.3-1.4,0.4l0.1,0.1
		c0.4-0.1,0.8-0.4,1.3-0.5L65.2,40.1z"/>
	<path fill="none" d="M85.5,27.8l-4.3,18.5c0.5,0.1,1,0.3,1.6,0.5c-0.5-0.2-1-0.3-1.6-0.5L85.5,27.8c0.1-0.3-0.1-0.8-0.4-0.8
		c0,0,0,0,0,0c0,0,0,0,0,0C85.4,27,85.6,27.5,85.5,27.8z"/>
	<path fill="none" d="M103.1,110.7c-16.7,5.9-30.5,13.9-40.5,20.8c-0.4,0.3-0.8,0.6-1.2,0.9c0.5-0.3,1.1-0.6,1.5-0.9
		C72.9,124.5,86.5,116.5,103.1,110.7z"/>
	<polygon fill="none" points="68,50.4 68,50.4 67.9,50.4 	"/>
	<polygon fill="none" points="67.9,50.4 67.9,50.4 67.9,50.4 	"/>
	<path fill="none" d="M80,46l4.3-18.4c0.1-0.2,0.3-0.4,0.5-0.4c0,0,0,0,0,0c-0.2,0-0.5,0.2-0.5,0.4L79.9,46H80L80,46z"/>
	<path fill="none" d="M70,46.4C70,46.4,70,46.4,70,46.4l0.3,1.1L70,46.4z"/>
	<path fill="none" d="M95.3,22.2L95.3,22.2c0-0.1-0.1-0.1-0.2-0.1C95.1,22.2,95.2,22.2,95.3,22.2z"/>
	<path fill="none" d="M53.7,83.2c-18.3-6.1-33.8-6.5-36.8-6.5c0,0.1,0,0.1,0,0.2C19.8,76.9,35.4,77.2,53.7,83.2z"/>
	<path fill="none" d="M68.8,89.4C68.7,89.4,68.7,89.4,68.8,89.4C68.7,89.4,68.7,89.3,68.8,89.4c-3.7,1.6-7.2,3.3-10.4,5
		C61.6,92.7,65.1,91,68.8,89.4z"/>
	<path fill="none" d="M134.5,74.4C134.5,74.4,134.5,74.4,134.5,74.4c0-0.3,0-0.5-0.1-0.8c0,0.1,0,0.2,0,0.4h0c0,0,0.1,0.4,0.1,0.8
		c0,0.1,0,0.1,0,0.2c0,0,0,0,0,0C134.6,74.8,134.5,74.6,134.5,74.4z"/>
	<path fill="none" d="M16.8,77C16.9,77,16.9,77,16.8,77c0,0,0-0.1,0-0.1C16.9,76.9,16.8,77,16.8,77z"/>
	<path fill="none" d="M16.9,76.6C16.9,76.6,16.9,76.6,16.9,76.6c0-0.7,0.1-1.1,0.1-1.7c0-0.4,0-0.9,0.1-0.9h0c0,0,0-0.3,0-0.6
		c0,0.3,0,0.7-0.1,1c0,0,0,0,0,0c0,0,0,0.1,0,0.1c0,0,0,0.1,0,0.1C16.9,75.3,16.9,75.1,16.9,76.6z"/>
	<path fill="#189A62" d="M63.9,135.5C63.9,135.5,63.9,135.5,63.9,135.5c3.8,0.8,7.8,1.2,11.9,1.2c21.2,0,39.9-11.3,50.2-28.1
		c-25.7,4.8-46.8,16.1-62,26.8c0,0,0,0.1,0,0.1C64,135.5,63.9,135.5,63.9,135.5z"/>
	<path fill="#189A62" d="M95.7,22.3c0.3,0.1,0.5,0.2,0.8,0.3c0.2,0.1,0.4,0.1,0.5,0.2C96.5,22.7,96.1,22.5,95.7,22.3z"/>
	<path fill="#189A62" d="M128.1,104.9c-0.3,0.5-0.5,1.1-0.8,1.6c0.4-0.7,0.8-1.5,1.2-2.2c0,0,0,0,0,0
		C128.3,104.4,128.2,104.6,128.1,104.9z"/>
	<path fill="#189A62" d="M134.6,75.2c0,0.1,0,0.1,0,0.2c0-0.1,0-0.2,0-0.3c0,0,0,0,0,0C134.6,75.1,134.6,75.1,134.6,75.2z"/>
	<path fill="#189A62" d="M134.6,75C134.6,75,134.6,75,134.6,75c0-0.2,0-0.4,0-0.6c0,0,0,0,0,0C134.5,74.6,134.6,74.8,134.6,75z"/>
	<path fill="#189A62" d="M134.6,74.3C134.6,74.3,134.6,74.3,134.6,74.3c0-0.1,0-0.3,0-0.3c0,0,0,0,0,0c0,0,0-0.2-0.1-0.5
		c0,0,0,0,0,0C134.5,73.8,134.5,74.1,134.6,74.3z"/>
	<path fill="none" stroke="#189A62" stroke-width="0" stroke-linecap="round" stroke-linejoin="round" d="M133.5,89.4
		c0-0.2,0.1-0.5,0.1-0.7"/>
	<path fill="#189A62" d="M30.9,116c-0.8-1-1.7-2-2.5-3.1c0,0,0,0,0,0C29.2,114,30,115,30.9,116C30.9,116,30.9,116,30.9,116
		C30.9,116,30.9,116,30.9,116C30.9,116,30.9,116,30.9,116z"/>
	<path fill="#189A62" d="M58.8,134.2c0.1-0.1,0.2-0.1,0.3-0.2c0.1-0.1,0.2-0.2,0.3-0.3c0.4-0.4,1.2-0.9,2-1.3
		c0.4-0.3,0.8-0.6,1.2-0.9c10-7,23.8-15,40.5-20.8c0.1-0.1,0.3-0.2,0.4-0.2c7.7-2.7,16-4.4,24.8-6.4c0,0,0,0,0,0
		c2.1-4,3.7-8.4,4.7-13c-39.8,4.5-71.3,24.1-88.3,36.9C49.1,130.6,53.8,132.7,58.8,134.2z"/>
	<path fill="#189A62" d="M44.5,102.1c1.3-0.8,2.7-1.6,4.2-2.5c-12.1-4.9-24-6.2-29.8-6.5c2,7.2,5.3,13.9,9.6,19.8
		C32.4,110,37.8,106.2,44.5,102.1z"/>
	<path fill="#189A62" d="M18.5,63.7c0.7-2.9,1.6-5.9,2.8-8.7c-1.9,4.5-3.2,9.4-3.9,14.5c0.2-1.4,0.5-2.8,0.8-4.3
		C18.3,64.7,18.4,64.2,18.5,63.7z"/>
	<path fill="#189A62" d="M134.4,72C134.4,72,134.4,72,134.4,72C134.4,72,134.4,72,134.4,72C134.4,72,134.4,72,134.4,72z"/>
	<path fill="#189A62" d="M17.1,72c0-0.2,0-0.4,0.1-0.6C17.1,71.6,17.1,71.8,17.1,72C17.1,72.1,17.1,72.1,17.1,72
		C17.1,72.1,17.1,72.1,17.1,72C17.1,72,17.1,72,17.1,72z"/>
	<path fill="#189A62" d="M53,97.2c1.7-0.9,3.5-1.9,5.3-2.8c3.3-1.7,6.7-3.4,10.3-5c-5.1-2.5-10.1-4.5-15-6.1
		c-18.3-6-33.8-6.1-36.8-6.2c0-0.1,0,0,0,0c0,0,0,0,0,0c0,0,0-0.2,0-0.2c0-1.5,0.1-1.4,0.1-2c0,0,0-0.1,0-0.2
		c-0.1,1-0.1,2.1-0.1,3.1c0,3.9,0.4,7.6,1.1,11.3c0,0,0,0,0,0C24,89,38.5,90.6,53,97.2z M16.8,77c0,0,0-0.1,0-0.1
		C16.9,76.9,16.9,77,16.8,77C16.9,77,16.9,77,16.8,77z"/>
	<path fill="#189A62" d="M17,73.6c0,0.2,0,0.3,0,0.5c0,0,0-0.1,0-0.1C17,73.9,17,73.7,17,73.6z"/>
	<path fill="#189A62" d="M16.9,74.4c0,0,0,0.1,0,0.1c0,0,0,0,0,0C16.9,74.5,16.9,74.5,16.9,74.4C16.9,74.4,16.9,74.4,16.9,74.4z"/>
	<path fill="#189A62" d="M17.9,89.1C17.9,89.1,17.9,89.1,17.9,89.1C17.9,89.1,17.9,89.1,17.9,89.1C17.9,89.1,17.9,89.1,17.9,89.1
		C17.9,89.1,17.9,89.1,17.9,89.1z"/>
	<path fill="#189A62" d="M31.1,115.8c-0.1,0-0.1,0.1-0.2,0.1c3.1,3.6,6.6,6.8,10.4,9.6c17.3-13.3,50.5-34.2,92.6-38.6
		c0.5-3,0.7-6.1,0.7-9.2c0-0.7,0-1.5-0.1-2.2C84.5,80.1,46.4,104.5,31.1,115.8C31.1,115.8,31.2,115.8,31.1,115.8
		C31.2,115.9,31.2,115.8,31.1,115.8z"/>
	<path fill="#189A62" d="M17,73.5c0-0.1,0-0.3,0-0.4c0,0,0,0,0,0C17,73.3,17,73.4,17,73.5z"/>
	<path fill="#189A62" d="M17.1,72.1C17.1,72.1,17.1,72.1,17.1,72.1C17.1,72.1,17.1,72.1,17.1,72.1C17.1,72.1,17.1,72.1,17.1,72.1z"
		/>
	<path fill="none" stroke="#189A62" stroke-width="0" stroke-linecap="round" stroke-linejoin="round" d="M18.6,92.2
		c-0.1-0.4-0.2-0.7-0.2-1.1"/>
	<path fill="#189A62" d="M134.6,75.5C134.6,75.5,134.6,75.5,134.6,75.5C134.6,75.6,134.6,75.6,134.6,75.5
		C134.6,75.6,134.6,75.6,134.6,75.5C134.6,75.6,134.6,75.6,134.6,75.5z"/>
	<path fill="none" stroke="#189A62" stroke-width="0" stroke-linecap="round" stroke-linejoin="round" d="M17.4,69.5
		c0,0.3-0.1,0.5-0.1,0.8"/>
	<path fill="none" stroke="#189A62" stroke-width="0" stroke-linecap="round" stroke-linejoin="round" d="M17.2,71.4
		c0-0.4,0.1-0.8,0.1-1.1"/>
	<path fill="none" stroke="#189A62" stroke-width="0" stroke-linecap="round" stroke-linejoin="round" d="M21.3,55
		c0.3-0.8,0.7-1.6,1-2.4"/>
	<polygon fill="#189A62" points="133.9,87 133.9,87 133.9,87 	"/>
	<path fill="#189A62" d="M133.9,87C133.9,87,133.9,87,133.9,87C133.9,87,133.9,87,133.9,87C133.9,87,133.9,87,133.9,87
		C133.9,87,133.9,87,133.9,87C133.9,87,133.9,87,133.9,87z"/>
	<path fill="#6AC5E9" d="M61.7,50.9c0.4-0.3,0.7-0.6,1.1-0.9v0l0,0L52.5,34.9c-0.2-0.3-0.1-0.6,0.2-0.8c0.3-0.2,0.6-0.1,0.8,0.2
		l10.3,15.1c0,0,0,0,0,0c0.9-0.7,2-1.6,3-2L56.3,22c0,0,0,0-0.1,0c0,0-0.1,0,0,0c0,0,0,0.2,0,0.2c0,0,0,0.1,0.1,0.1l-0.1,0
		c0,0-0.1,0-0.1,0v0l0.2,0c0,0,0.1,0,0.1,0l0-0.1c0.5-0.2,0.9-0.3,1.4-0.4l7.7,18.4l2.9,6.8c0.8-0.2,1.2-0.4,1.7-0.5l0,0
		c0,0,0,0,0.1,0l0,0v0l-4.3-18.5c-0.1-0.3,0.2-0.6,0.5-0.7c0.1,0,0.2,0,0.2,0c0.2,0,0.4,0.2,0.5,0.4l4.5,18.4
		c1.4-0.3,2.6-0.5,4.6-0.5V19c0,0,0,0,0,0c0,0,0-0.1,0-0.1s-0.1,0-0.1,0c-1,0-2.1,0-3.1,0.1c-0.3,0-0.7,0-1,0.1
		c-0.7,0-1.3,0.1-2,0.1c-0.4,0-0.8,0.1-1.2,0.1c-0.6,0.1-1.1,0.1-1.7,0.2c-0.4,0.1-0.8,0.1-1.3,0.2c-0.5,0.1-1.1,0.2-1.6,0.3
		c-0.4,0.1-0.9,0.2-1.3,0.3c-0.5,0.1-1,0.2-1.5,0.3c-0.4,0.1-0.9,0.2-1.3,0.4c-0.5,0.1-1,0.3-1.4,0.4c-0.4,0.1-0.9,0.3-1.3,0.4
		c-0.3,0.1-0.6,0.2-0.9,0.3L56.2,22c0,0-0.1,0,0,0c0,0,0,0.2,0,0.2l-0.1,0c-0.1,0-0.2,0.1-0.3,0.2c-0.4,0.2-0.9,0.4-1.3,0.5
		c-0.4,0.2-0.9,0.3-1.3,0.5c-0.4,0.2-0.9,0.4-1.3,0.6c-0.4,0.2-0.8,0.4-1.2,0.6c-0.4,0.2-0.9,0.4-1.3,0.7c-0.4,0.2-0.8,0.4-1.2,0.6
		c-0.4,0.2-0.9,0.5-1.3,0.7c-0.4,0.2-0.7,0.4-1.1,0.6c-0.4,0.3-0.9,0.5-1.3,0.8c-0.4,0.2-0.7,0.4-1,0.7c-0.4,0.3-0.9,0.6-1.3,0.9
		c-0.3,0.2-0.7,0.5-1,0.7c-0.4,0.3-0.9,0.6-1.3,1c-0.3,0.2-0.6,0.5-0.9,0.7l21.7,20.1C61,51.6,61.3,51.3,61.7,50.9z"/>
	<path fill="#6AC5E9" d="M56.9,57.1L38.5,46.4c-0.3-0.2-0.4-0.5-0.2-0.8c0.2-0.3,0.5-0.4,0.8-0.2l18.3,10.8c0.6-1.1,1.3-2.1,2.1-3
		L37.7,32.8c0.4-0.3,0.8-0.7,1.2-1c0,0,0,0,0,0c-0.4,0.3-0.8,0.7-1.3,1c-0.3,0.2-0.6,0.5-0.8,0.7c-0.4,0.4-0.8,0.7-1.2,1.1
		c-0.3,0.2-0.5,0.5-0.8,0.7c-0.4,0.4-0.8,0.8-1.2,1.2c-0.2,0.2-0.5,0.5-0.7,0.7c-0.4,0.4-0.8,0.9-1.2,1.3c-0.2,0.2-0.4,0.5-0.6,0.7
		c-0.4,0.5-0.8,0.9-1.2,1.4c-0.2,0.2-0.4,0.5-0.6,0.7c-0.4,0.5-0.8,1-1.1,1.5c-0.2,0.2-0.3,0.5-0.5,0.7c-0.4,0.5-0.8,1.1-1.1,1.6
		c-0.1,0.2-0.3,0.4-0.4,0.6c-0.4,0.6-0.7,1.2-1.1,1.7c-0.1,0.2-0.2,0.4-0.3,0.5c-0.1,0.2-0.2,0.3-0.3,0.5l31.3,11
		C56.1,58.8,56.5,57.9,56.9,57.1z"/>
	<path fill="#6AC5E9" d="M97.8,34.3c0.2-0.3,0.6-0.3,0.8-0.2c0.3,0.2,0.3,0.6,0.2,0.8l-10.2,15c1,0.8,1.9,1.6,2.8,2.5L113,32.2v0
		c0,0,0,0,0.1,0l0,0c-0.2-0.1-0.3-0.3-0.5-0.4c-0.3-0.2-0.6-0.5-0.9-0.7c-0.4-0.3-0.8-0.6-1.3-0.9c-0.3-0.2-0.7-0.5-1-0.7
		c-0.4-0.3-0.8-0.6-1.3-0.9c-0.4-0.2-0.7-0.5-1.1-0.7c-0.4-0.3-0.9-0.5-1.3-0.8c-0.4-0.2-0.8-0.4-1.1-0.6c-0.4-0.2-0.9-0.5-1.3-0.7
		c-0.4-0.2-0.8-0.4-1.2-0.6c-0.4-0.2-0.9-0.4-1.3-0.6c-0.4-0.2-0.8-0.4-1.3-0.6c-0.4-0.2-0.9-0.4-1.3-0.6c-0.4-0.2-0.9-0.3-1.3-0.5
		c-0.2-0.1-0.4-0.1-0.5-0.2c0.2,0.1,0.3,0.1,0.5,0.2L85.6,48c0.7,0.4,1.3,0.7,1.9,1.1L97.8,34.3z"/>
	<path fill="#6AC5E9" d="M114.3,33.2c0,0-0.1-0.1-0.1-0.1l0,0C114.2,33.2,114.3,33.2,114.3,33.2z"/>
	<path fill="#6AC5E9" d="M134.5,73.6c0,0.3,0,0.5,0.1,0.8c0,0,0,0,0,0c0,0,0,0,0,0c0,0,0,0,0,0c0,0,0,0,0,0c0,0,0-0.1,0-0.1
		C134.5,74.1,134.5,73.8,134.5,73.6C134.5,73.6,134.5,73.6,134.5,73.6z"/>
	<path fill="#6AC5E9" d="M125,72.7L96.8,71h-0.1l0,0c-0.7,3.4-2,6.6-4.2,9.2C102.5,77,113.4,74.4,125,72.7z"/>
	<path fill="#6AC5E9" d="M77,19v0.3v26.3c2,0.1,2,0.2,2.9,0.3l4.4-18.4c0.1-0.2,0.3-0.4,0.5-0.4c0,0,0,0,0,0c0,0,0-0.1,0-0.1
		c0.1,0,0.1-0.1,0.2-0.1c0,0,0,0,0,0c0.3,0,0.5,0.5,0.4,0.8l-4.3,18.5c0.5,0.1,1,0.3,1.6,0.5c0.4,0.2,0.9,0.3,1.3,0.5l11.2-25.1
		c-0.1,0-0.1,0-0.2-0.1c0,0-0.1,0-0.1,0v0c-0.2-0.1-0.5-0.2-0.7-0.2c-0.4-0.1-0.9-0.3-1.3-0.4c-0.5-0.1-1-0.3-1.4-0.4
		c-0.4-0.1-0.9-0.2-1.3-0.4c-0.5-0.1-1-0.2-1.5-0.3c-0.4-0.1-0.9-0.2-1.3-0.3c-0.5-0.1-1.1-0.2-1.6-0.3c-0.4-0.1-0.8-0.2-1.3-0.2
		c-0.6-0.1-1.1-0.1-1.7-0.2c-0.4,0-0.8-0.1-1.2-0.1c-0.6-0.1-1.3-0.1-1.9-0.1c-0.3,0-0.8-0.1-1.1-0.1C78.1,18.9,77,18.9,77,19L77,19
		c0.1,0,0.2,0,0.3,0H77z"/>
	<path fill="#6AC5E9" d="M95.4,22.3C95.4,22.3,95.4,22.3,95.4,22.3L95.4,22.3C95.4,22.3,95.4,22.3,95.4,22.3z"/>
	<path fill="#6AC5E9" d="M24.2,72.9c7.9,0.7,20.7,2.6,34.9,7.9c0.2,0.1,0.5,0.2,0.7,0.2c-2.5-2.9-4.3-6.3-4.9-10.1L24.2,72.9z"/>
	<path fill="#6AC5E9" d="M17.2,71.6L54.6,69h-0.1c-0.1-1,0-1.4,0-2.1c0-0.4,0-0.8,0.1-1.2L32.2,63c-0.3,0-0.6-0.4-0.5-0.7
		c0-0.3,0.3-0.6,0.7-0.5l22.3,2.8c0.1-1.2,0.4-2.3,0.7-3.4L23.7,50.1c0.2-0.4,0.4-0.7,0.6-1.1c-0.2,0.4-0.4,0.7-0.6,1.1
		c-0.1,0.1-0.1,0.3-0.2,0.4c-0.4,0.7-0.7,1.4-1,2.1c0,0.1-0.1,0.2-0.1,0.3c-1.6,3.4-2.9,7.1-3.8,10.9c-0.1,0.5-0.2,1-0.3,1.5
		C17.7,67.3,17.4,69.5,17.2,71.6z"/>
	<path fill="#6AC5E9" d="M17.1,71.8c0-0.1,0-0.2,0-0.3l0,0c0,0,0,0,0,0l0,0C17.1,71.6,17.1,71.7,17.1,71.8z"/>
	<path fill="#6AC5E9" d="M112.9,45.6c0.2,0.3,0.1,0.6-0.2,0.8L94.5,57c0.5,1,0.9,1.9,1.3,3l31.3-11c0.3,0.5,0.5,0.9,0.8,1.4
		c0-0.1-0.1-0.2-0.1-0.3c-0.3-0.6-0.7-1.3-1.1-1.9c-0.1-0.2-0.2-0.4-0.3-0.5c-0.4-0.6-0.7-1.2-1.1-1.7c-0.1-0.2-0.3-0.4-0.4-0.6
		c-0.4-0.5-0.7-1.1-1.1-1.6c-0.2-0.2-0.3-0.5-0.5-0.7c-0.4-0.5-0.8-1-1.1-1.5c-0.2-0.2-0.4-0.5-0.6-0.7c-0.4-0.5-0.8-0.9-1.2-1.4
		c-0.2-0.2-0.4-0.5-0.6-0.7c-0.4-0.4-0.8-0.9-1.2-1.3c-0.2-0.3-0.5-0.5-0.7-0.8c-0.4-0.4-0.8-0.8-1.2-1.2c-0.3-0.3-0.5-0.5-0.8-0.8
		c-0.4-0.4-0.8-0.7-1.2-1.1c-0.1-0.1-0.2-0.2-0.4-0.3l-22,20.4c0.6,0.7,1.1,1.5,1.6,2.3l18.1-10.6C112.4,45.2,112.8,45.3,112.9,45.6
		z"/>
	<path fill="#6AC5E9" d="M96.3,61.5L96.3,61.5c0.1,0.3,0.2,0.7,0.2,1c0.2,0.7,0.5,1.2,0.5,2l21.9-2.7c0.3,0,0.6,0.2,0.7,0.5
		c0,0.3-0.1,0.6-0.5,0.7L97,65.9c0,0,0,0.1,0,0.1h-0.1c0,0,0.1,0.8,0.1,1.1c0,0.6,0,0.8-0.1,1.8l0.1,0c0,0,0-0.1,0-0.1l37.4,2.7
		c-0.1-0.5-0.2-1.1-0.2-1.6c-0.1-0.4-0.1-0.9-0.2-1.3c-0.1-0.5-0.2-1-0.3-1.5c-0.1-0.5-0.2-0.9-0.3-1.4c-0.1-0.4-0.2-0.9-0.3-1.3
		c-0.2-0.8-0.4-1.5-0.6-2.2c-0.1-0.4-0.2-0.7-0.3-1.1c-0.2-0.7-0.4-1.3-0.6-2c-0.1-0.3-0.2-0.7-0.3-1c-0.2-0.6-0.4-1.2-0.7-1.8
		c-0.1-0.3-0.2-0.6-0.3-0.9c-0.4-0.9-0.7-1.7-1.1-2.6c0-0.1-0.1-0.2-0.1-0.2c-0.3-0.7-0.7-1.4-1-2.1c0-0.1-0.1-0.1-0.1-0.2
		L96.3,61.5L96.3,61.5z"/>
	<path fill="#6AC5E9" d="M17,74.4c0-0.3,0-0.7,0.1-1c0,0,0-0.1,0-0.1c0,0.2,0,0.5-0.1,0.7c0,0,0,0.1,0,0.1
		C16.9,74.2,16.9,74.3,17,74.4C16.9,74.4,16.9,74.4,17,74.4C16.9,74.4,16.9,74.4,17,74.4C16.9,74.4,17,74.4,17,74.4z"/>
	<rect x="68" y="50.4" fill="#FFFFFE" width="0" height="0"/>
	<path fill="#FFFFFE" d="M94,68.5L94,68.5L94,68.5L94,68.5z"/>
	<path fill="#FFB602" d="M93.4,66.7C93.4,57,85.6,49,75.9,49c0,0,0,0,0,0c-2.6,0-5,0.7-7.1,1.7c-2.6,1.2-4.9,3-6.6,5.3
		c-2.2,3-3.5,6.7-3.5,10.7C58.7,76.2,65,84,76,84.3v-11c0-0.4,0.1-0.8,0.5-0.8s0.5,0.4,0.5,0.8v10.9C86,83.7,93.4,76,93.4,66.7z
		 M74.1,82.3c0,0-4.8,1.5-6-5.9C68.1,76.4,75.2,76.9,74.1,82.3z M74.1,76.2c0,0-4.8,1.5-6-5.9C68.1,70.2,75.2,70.7,74.1,76.2z
		 M76,71.6c-5.1-3.3,0-9.2,0-9.2C80.9,68.9,76,71.6,76,71.6z M78,82.3c-1.1-5.5,6-5.9,6-5.9C82.9,83.8,78,82.3,78,82.3z M78,76.2
		c-1.1-5.5,6-5.9,6-5.9C82.9,77.6,78,76.2,78,76.2z"/>
	<path fill="#FFFFFF" d="M103.6,110.4c-0.1,0.1-0.3,0.1-0.4,0.2c-16.6,5.9-30.3,13.9-40.3,20.8c-0.4,0.3-1,0.6-1.5,0.9
		c-0.8,0.4-1.6,0.9-2,1.3c-0.1,0.1-0.2,0.2-0.3,0.3c-0.1,0.1-0.1,0.1-0.1,0.2c0,0,0,0,0,0c0,0,0,0,0,0c0.8,0.2,1.6,0.5,2.4,0.7
		c0.8,0.2,0.6,0.4,2.5,0.6c0,0,0.1,0,0.1,0c0,0,0,0,0-0.1c0,0,0-0.1,0-0.1c15-10.7,36.2-22.3,62-27.3c0,0,0,0,0,0c0,0,0,0.3,0,0.3
		c0.4-0.7,0.8-1.2,1.2-1.9c0,0,0,0,0.1,0c0.3-0.5,0.5-1,0.8-1.5c0.1-0.2,0.2-0.4,0.3-0.6c0,0,0-0.1,0-0.1c0,0,0-0.1,0-0.1
		c0,0,0,0,0,0C119.5,106,111.2,107.8,103.6,110.4z"/>
	<path fill="#FFFFFF" d="M133.9,87C133.9,87,133.9,87,133.9,87c-42.1,4-75.3,25.4-92.6,38.6c0,0,0,0,0,0c0,0,0,0,0,0
		c1.1,0.8,2.3,1.3,3.4,2.3c0,0,0,0,0,0c0,0,0,0,0,0c0,0,0,0,0-0.1c17-12.9,48.5-31.9,88.3-36.9c0,0,0,0,0,0c0,0,0,0,0,0
		c0.1-0.3,0.1-0.7,0.2-1c0-0.2,0.1-0.5,0.1-0.7c0-0.2,0.1-0.5,0.1-0.7C133.7,88.1,133.8,87.1,133.9,87C133.9,87,133.9,87,133.9,87
		C133.9,87,133.9,87,133.9,87C133.9,87,133.9,87,133.9,87C133.9,87,133.9,87,133.9,87C133.9,87,133.9,87,133.9,87z"/>
	<path fill="#FFFFFF" d="M114.3,33L114.3,33L114.3,33c-0.1,0.1,0,0.1,0,0.1C114.3,33.1,114.3,33,114.3,33z"/>
	<path fill="#FFFFFF" d="M95.1,22.1c0.1,0,0.1,0,0.2,0l0.1-0.1H95L95.1,22.1L95.1,22.1C95,22.1,95.1,22.1,95.1,22.1z"/>
	<path fill="#FFFFFF" d="M76,18.9C76,18.9,76,18.9,76,18.9L76,18.9C76,18.9,75.9,18.9,76,18.9z"/>
	
		<line fill="none" stroke="#FFFFFF" stroke-width="0" stroke-linecap="round" stroke-linejoin="round" x1="17" y1="72" x2="17" y2="72"/>
	<path fill="none" stroke="#FFFFFF" stroke-width="0" stroke-linecap="round" stroke-linejoin="round" d="M17,72.3
		C17,72.3,17,72.3,17,72.3C17,72.3,17,72.3,17,72.3"/>
	<path fill="#FFFFFF" d="M31.1,115.8C31.2,115.8,31.2,115.9,31.1,115.8C31.2,115.8,31.1,115.8,31.1,115.8c0-0.1-0.1-0.1-0.2-0.2
		c0,0,0,0,0,0C30.9,115.7,31.1,115.8,31.1,115.8z"/>
	<path fill="#FFFFFF" d="M17,72v0.1v0.1c0-0.1,0-0.1,0-0.1C17.1,72.1,17.1,72,17,72C17.1,72,17,72,17,72z"/>
	<path fill="#FFFFFF" d="M135,71.5l-0.1,0.1C134.9,71.6,135,71.5,135,71.5L135,71.5z"/>
	<path fill="#FFFFFF" d="M134.7,71.7c0,0-0.2,0.2-0.3,0.3l0.5-0.4C134.8,71.6,134.7,71.7,134.7,71.7z"/>
	<path fill="#FFFFFF" d="M134.6,75C134.6,75,134.6,75,134.6,75C134.6,75.1,134.6,75.1,134.6,75C134.6,75.1,134.6,75.1,134.6,75
		c0,0.1,0,0.1,0,0.1C134.6,75.2,134.6,75,134.6,75C134.6,75,134.6,75,134.6,75C134.6,75,134.6,75,134.6,75
		C134.6,75,134.6,75,134.6,75C134.6,75,134.6,75,134.6,75C134.6,75,134.6,75,134.6,75z"/>
	<path fill="#FFFFFF" d="M135,72c0,0-0.6,0-0.6,0c0,0,0.3,0.4,0.3,0.5c0,0,0,0,0,0c0.1,0,0.3-0.1,0.3-0.1C135,72.3,135,72,135,72z"
		/>
	<path fill="#FFFFFF" d="M56.2,65.3c0-0.3-0.2-0.6-0.5-0.7l-1-0.1l-22.3-2.8c-0.3,0-0.6,0.2-0.7,0.5c0,0.3,0.2,0.6,0.5,0.7l22.4,2.8
		l0.9,0.1C55.8,65.9,56.1,65.6,56.2,65.3z"/>
	<path fill="#FFFFFF" d="M76,62.3c0,0-5.1,5.9,0,9.2C76,71.6,80.9,68.9,76,62.3z"/>
	<path fill="#FFFFFF" d="M78,76.2c0,0,4.8,1.5,6-5.9C84.1,70.2,76.9,70.7,78,76.2z"/>
	<path fill="#FFFFFF" d="M78,82.3c0,0,4.8,1.5,6-5.9C84.1,76.4,76.9,76.9,78,82.3z"/>
	<path fill="#FFFFFF" d="M68.1,70.2c1.2,7.4,6,5.9,6,5.9C75.2,70.7,68.1,70.2,68.1,70.2z"/>
	<path fill="#FFFFFF" d="M68.1,76.4c1.2,7.4,6,5.9,6,5.9C75.2,76.9,68.1,76.4,68.1,76.4z"/>
</g>
</svg>
