<?xml version="1.0" encoding="utf-8"?>
<!-- Generator: Adobe Illustrator 18.1.0, SVG Export Plug-In . SVG Version: 6.00 Build 0)  -->
<svg version="1.1" id="Layer_1" xmlns="http://www.w3.org/2000/svg" xmlns:xlink="http://www.w3.org/1999/xlink" x="0px" y="0px"
	 viewBox="0 0 150 150" enable-background="new 0 0 150 150" xml:space="preserve">
<g>
	<path fill="#385072" d="M23.2,63c0,0.3,0,0.6,0,0.9l0,0C23.2,63.6,23.2,63.3,23.2,63z"/>
	<path fill="#005D2A" d="M78.2,114.3l0.7,0.8l3.6,4c-0.2,0.1-0.4,0.1-0.6,0.2c-6.2,2.1-13.2,2.2-19.9-0.3
		c-11.4-4.3-18.5-14.8-19.1-26.2c-0.2-3.9,0.4-7.9,1.8-11.8c5.8-15.3,22.8-23,38.1-17.2c0.1,0,0.2,0.1,0.3,0.1l2.6-7l0.3-0.7
		c-0.1,0-0.2-0.1-0.3-0.1c-19.5-7.4-41.3,2.5-48.7,22c-1.9,5-2.6,10.1-2.4,15.1c0.7,14.6,9.8,28.1,24.4,33.6
		c9.4,3.5,19.2,3,27.8-0.5l2.1,8.6l11.8-18.9l0.5-0.8L78.2,114.3z M90.2,129.8l-2.1-5.6l11.8-8L90.2,129.8z"/>
	<path fill="#006831" d="M37.2,61.4l0.4-1l-6,2.1l-0.1,0c0.3-6.8,3-13.5,8-18.8c11.2-11.8,29.9-12.4,41.7-1.2
		c6.1,5.7,9.1,13.4,9.2,21.1c0.1,7.4-2.6,14.8-8,20.6c-0.1,0.1-0.1,0.1-0.2,0.2l0.4,0.4l5.6,5.3c0.1-0.1,0.2-0.1,0.2-0.2
		c7-7.4,10.4-17,10.3-26.5c-0.1-9.8-4.1-19.6-11.8-26.9c-15.2-14.3-39.1-13.7-53.4,1.5c-6.6,7-10,15-10.3,24c0,0.3,0,0,0,0h0
		l-8.7-0.4l0.6,1.4l12.8,18.3L37.2,61.4z M18.3,65.3l6,0l3.1,13.9L18.3,65.3z"/>
	<path fill="#038B45" d="M106.2,104.8c17.5-4.4,29.1-20.3,28.6-37.6c-0.1-2.7-0.4-5.4-1.1-8.1c-2.4-9.5-8.2-17.3-15.8-22.3
		c-0.1-0.1-0.3-0.2-0.5-0.3l5.1-5.8l0.7-0.8l-23.2,1.1l0.5,0.8l12,18.8l1.5-6.3c5.5,3.9,9.8,9.8,11.5,16.9c0.5,2.2,0.8,4.3,0.8,6.5
		c0.3,13.5-8.7,25.9-22.3,29.3c-15.8,3.9-31.9-5.7-35.8-21.5c0-0.1,0-0.2-0.1-0.3l-8,2c0,0.1,0,0.2,0.1,0.3c0,0.2,0.1,0.3,0.2,0.4
		C65.8,97.7,86.1,109.8,106.2,104.8z M119.3,32l-3.3,5l-13.3-5H119.3z"/>
	<polygon fill="#6CAB36" points="116,37 119.3,32 102.7,32 	"/>
	<polygon fill="#007A3C" points="116,37 119.3,32 102.7,32 	"/>
	<polygon fill="#50C9ED" points="24.3,65.3 18.3,65.3 27.4,79.2 	"/>
	<polygon fill="#007A3C" points="24.3,65.3 18.3,65.3 27.4,79.2 	"/>
	<polygon fill="#0081C3" points="88.1,124.1 90.2,129.8 99.9,116.2 	"/>
	<polygon fill="#007A3C" points="88.1,124.1 90.2,129.8 99.9,116.2 	"/>
</g>
</svg>
