<?xml version="1.0" encoding="utf-8"?>
<!-- Generator: Adobe Illustrator 18.1.0, SVG Export Plug-In . SVG Version: 6.00 Build 0)  -->
<svg version="1.1" id="Layer_1" xmlns="http://www.w3.org/2000/svg" xmlns:xlink="http://www.w3.org/1999/xlink" x="0px" y="0px"
	 viewBox="0 0 150 150" enable-background="new 0 0 150 150" xml:space="preserve">
<g>
	<path fill="#29ABE2" d="M68.9,38.5h15.3h0.2c2.7-8.9,7.5-17.4,14.7-24.3c1.2-1.2,2.4-2.2,3.7-3.3H84.2H51c1.4,1.2,2.8,2.5,4.1,3.8
		C61.9,21.6,66.4,29.8,68.9,38.5z"/>
	<path fill="#EA2127" d="M84.2,112.5L84.2,112.5H69.8c-2.5,9.7-7.6,18.8-15.3,26.3c-0.5,0.5-1,0.9-1.4,1.3h31.1h16.3
		c-0.6-0.6-1.3-1.2-1.9-1.9C91.3,130.9,86.5,121.9,84.2,112.5z"/>
	<path fill="#BFD74E" d="M114.1,83.8c8.5,2.4,16.4,6.8,23.2,13.2V65.6V56c-6.8,6.3-14.8,10.5-23.2,12.8V83.8z"/>
	<path fill="#B665A7" d="M40,84.1V69.3c-9.4-2.6-18.2-7.6-25.5-15.1c-0.7-0.7-1.4-1.5-2.1-2.3v13.6v35.4c0.8-0.9,1.7-1.8,2.6-2.7
		C22.3,91.2,30.9,86.5,40,84.1z"/>
	<path fill="#E9098A" d="M100.8,38.5h13.3v14c6.9-2.9,14.6-4.5,22.6-4.4c0.2,0,0.4,0,0.7,0V11.2v-0.4h-32.5c0.2,2.2,0.3,4.4,0.3,6.6
		C105.1,24.9,103.5,32,100.8,38.5z"/>
	<path fill="#292A75" d="M84.4,38.5h16.4c2.7-6.5,4.3-13.6,4.4-21c0-2.2-0.1-4.4-0.3-6.6h-2.1c-1.3,1-2.5,2.1-3.7,3.3
		C91.9,21.1,87,29.5,84.4,38.5z"/>
	<path fill="#B01F2E" d="M136.7,48.1c-8-0.1-15.6,1.5-22.6,4.4v13.1v3.2c8.4-2.3,16.4-6.5,23.2-12.8v-7.8
		C137.1,48.2,136.9,48.1,136.7,48.1z"/>
	<path fill="#6780BF" d="M53.7,112.5H40v-12.3c-7.1,3-14.8,4.7-23,4.6c-1.6,0-3.1-0.1-4.6-0.3v21.1v14.5h12.4h23.8
		c-0.1-1.5-0.2-3.1-0.1-4.6C48.6,127.3,50.5,119.5,53.7,112.5z"/>
	<path fill="#5E0E1C" d="M69.8,112.5H53.7c-3.3,7-5.1,14.8-5.3,23c0,1.6,0,3.1,0.1,4.6h4.5c0.5-0.4,1-0.9,1.4-1.3
		C62.3,131.4,67.3,122.2,69.8,112.5z"/>
	<path fill="#49337D" d="M40,100.3V84.1c-9.1,2.4-17.7,7.1-25,14.1c-0.9,0.9-1.8,1.8-2.6,2.7v3.6c1.5,0.1,3.1,0.2,4.6,0.3
		C25.2,105,33,103.3,40,100.3z"/>
	<path fill="#6DC5AE" d="M40,53V38.5h12.5c-2.7-6.7-4.2-14.1-4.1-21.8c0-2,0.2-3.9,0.4-5.8H24.8H12.4v0.4v37.1
		c1.8-0.1,3.6-0.2,5.4-0.2C25.7,48.2,33.2,50,40,53z"/>
	<path fill="#0486A2" d="M52.5,38.5h16.4c-2.5-8.7-7.1-16.9-13.8-23.8c-1.3-1.4-2.7-2.6-4.1-3.8h-2.1c-0.2,1.9-0.4,3.8-0.4,5.8
		C48.4,24.4,49.8,31.7,52.5,38.5z"/>
	<path fill="#4E4F72" d="M40,69.3v-3.7V53c-6.8-3-14.3-4.8-22.2-4.9c-1.8,0-3.6,0.1-5.4,0.2v3.6c0.7,0.8,1.4,1.5,2.1,2.3
		C21.8,61.7,30.6,66.7,40,69.3z"/>
	<path fill="#F79820" d="M114.1,100.1v12.4h-13.8c3.2,7.3,5,15.3,4.9,23.8c0,1.3-0.1,2.6-0.2,3.8h32.3v-14.5v-20.8c-0.5,0-1,0-1.4,0
		C128.1,104.7,120.8,103.1,114.1,100.1z"/>
	<path fill="#E31E26" d="M100.3,112.5H84.2c2.3,9.4,7.1,18.3,14.3,25.7c0.6,0.6,1.3,1.2,1.9,1.9h4.5c0.1-1.3,0.2-2.5,0.2-3.8
		C105.3,127.8,103.5,119.8,100.3,112.5z"/>
	<path fill="#B8812C" d="M114.1,100.1c6.7,2.9,14,4.6,21.8,4.7c0.5,0,1,0,1.4,0V97c-6.8-6.4-14.8-10.8-23.2-13.2V100.1z"/>
</g>
</svg>
