<?xml version="1.0" encoding="utf-8"?>
<!-- Generator: Adobe Illustrator 18.1.0, SVG Export Plug-In . SVG Version: 6.00 Build 0)  -->
<svg version="1.1" id="Layer_1" xmlns="http://www.w3.org/2000/svg" xmlns:xlink="http://www.w3.org/1999/xlink" x="0px" y="0px"
	 viewBox="0 0 150 150" enable-background="new 0 0 150 150" xml:space="preserve">
<g>
	<path fill="#7D53A1" d="M97.1,30.3c-4.7,4-7.3,7.7-8.3,9.6c-2.1,3.5-2,7.8-3,10.4c-0.2,0.5-0.4,1-0.7,1.6c-0.3,0-0.7,0-1,0
		c-0.3,0-0.5,0.1-0.8,0.2c-2.2-1.4-4.1-3.1-5.5-4.9c0.5,1.4,1.4,2.7,2.4,4c-2-1.3-3.6-2.9-4.9-4.6c0.5,1.4,1.4,2.8,2.5,4.1
		c-0.1-0.1-0.3-0.2-0.5-0.3c-2.2-1.4-4.1-3.1-5.6-5c1.1,2.8,3.4,5.6,6.6,7.6c0.7,0.4,1.4,0.8,2.1,1.1c-0.2,0.2-0.3,0.4-0.4,0.6
		c-0.2,0.3-0.4,0.7-0.5,1.1c-1.6,0.5-3.6,1-6.1,1.4c-10.5,1.7-11,1.8-11.5,4.7c-0.5,2.9,1.4,5.6,1.9,7.5c0.5,1.9,0.7,4-1.7,5.1
		c-1.5,0.7-3.7,0-3.9,3.7c-0.1,2,2,3,2.9,4.1c0.2,0.2,0.2,0.3,0.2,0.3s-1.5-1.7-2.7-1.9c-0.2,0-0.4,0-0.6,0
		c-0.9,0.1-1.8,0.8-2.4,1.7c-0.3,0.5-0.5,0.9-0.4,1.5c0.2,1.7,0.6,2.7,1,3.4c0.4,0.7,0,2.4-0.5,2.9c-0.5,0.5-3.5,3.3-4.7,5.4
		c-1.2,2.1-5,6.8,0.4,10.8c5.4,4,17.5,7.1,21.9,8.9c0.4,0.2,0.7,0.4,1,0.7c-3.1,3.5-7.1,6-11.6,7.5c1,0.5,2.1,0.7,3.2,1.1
		c2.4,0.3,4.8,0.7,7.3,0.7c0.4,0,0.8-0.1,1.3-0.1V125c0.3,0,0.5,0,0.8,0.1c0.3,0,0.5-0.1,0.8-0.1v0.2c0.4,0.1,0.8,0.1,1.3,0.1
		c27.4,0,49.6-22.2,49.6-49.6C126.9,55.4,114.6,38,97.1,30.3z"/>
	<path fill="#B7D333" d="M112.6,33.4c11.8,10.3,19.5,25.3,19.5,42.2c0,3-0.4,5.9-0.9,8.7l8.3,14.5l0.3-1c2.5-7.2,3.8-14.7,3.8-22.4
		c0-15.4-5.1-29.9-15-42.1H112.6z"/>
	<path fill="#B7D333" d="M75.8,131.9c-13.7,0-26.2-5.1-35.9-13.3h-16l0.7,0.8c12.9,15.1,31.7,23.8,51.5,23.8c2.5,0,5-0.1,7.9-0.6
		l7.6-13.1C86.5,130.9,81.3,131.9,75.8,131.9z"/>
	<path fill="#7D53A1" d="M75.8,19.3c13.6,0,26,5,35.7,13.1h16.7l-0.7-0.8C114.6,16.5,95.9,7.9,76,7.9c-3.4,0-6.9,0.3-10.5,1l-8,13.7
		C63.3,20.6,69.4,19.3,75.8,19.3z"/>
	<path fill="#B7D333" d="M56.2,23l8.2-14.2l-1,0.2c-22.4,4.2-41.6,20-50.1,41.7l7.5,13C24.9,44.8,38.4,29.6,56.2,23z"/>
	<path fill="#7D53A1" d="M19.5,75.6c0-3.7,0.4-7.4,1.1-10.9l-7.8-13.4l-0.3,0.9c-2.7,7.4-4.1,15.2-4.1,23.3c0,15.4,5,29.9,15,42.1
		h15.3C27,107.3,19.5,92.4,19.5,75.6z"/>
	<path fill="#7D53A1" d="M92.9,129L85,142.6l1-0.2c23.9-3.5,44.2-19.7,53-42.7L131,86C127.2,106.4,112.3,122.7,92.9,129z"/>
</g>
</svg>
