<?xml version="1.0" encoding="utf-8"?>
<!-- Generator: Adobe Illustrator 18.1.0, SVG Export Plug-In . SVG Version: 6.00 Build 0)  -->
<svg version="1.0" id="Layer_1" xmlns="http://www.w3.org/2000/svg" xmlns:xlink="http://www.w3.org/1999/xlink" x="0px" y="0px"
	 viewBox="0 0 150 150" enable-background="new 0 0 150 150" xml:space="preserve">
<g>
	<path fill="none" d="M105.3,89.9c-0.3,9.9-2.7,18.5-6.1,25.4c2.3-2.3,5-4.7,8.1-6.8c5.9-4.2,11.1-8.1,15.6-11.8
		c-2.3-3.8-4.8-8.2-6.3-12.8l-11.3,4C105.3,88.5,105.3,89.2,105.3,89.9z"/>
	<path fill="none" d="M115.5,73.8c-2,1.4-3.7,2.8-4.6,3.6l-3.2,2.7l4.1-0.6c0.6-0.1,2-0.3,3.6-0.6C115.3,77.2,115.3,75.5,115.5,73.8
		z"/>
	<path fill="none" d="M59.3,45.9c0.1-0.3,0.2-0.7,0.4-1.2c0.1-0.3,0.2-0.5,0.3-0.8c0.1-0.3,0.2-0.6,0.4-0.9c0.1-0.3,0.3-0.6,0.4-1
		c0.2-0.3,0.3-0.7,0.5-1c0.2-0.4,0.4-0.7,0.6-1.1c0.2-0.4,0.4-0.7,0.6-1.1c0.5-0.7,0.9-1.5,1.4-2.2c0.2-0.4,0.5-0.8,0.7-1.1
		c0.2-0.4,0.5-0.7,0.8-1.1c0.3-0.4,0.5-0.7,0.8-1.1c0.3-0.4,0.6-0.7,0.8-1.1c0.3-0.4,0.6-0.7,0.8-1.1c0.3-0.4,0.6-0.7,0.8-1
		c0.6-0.6,1.1-1.3,1.6-1.9c0.5-0.6,1-1.2,1.5-1.7c0.4-0.5,0.9-1,1.3-1.4c0.4-0.4,0.7-0.8,1-1.1c0.5-0.6,0.8-1,0.8-1
		c-3.7,2.9-7,6.1-9.6,9.8c-1.8,2.5-3.4,5.2-4.7,8.1c-0.4,0.8-1.8,4-2.5,7.3c-0.1,0.5-0.2,1-0.3,1.5C62,48.7,64,47,69.3,46.2
		C66.1,46.2,62.7,45.9,59.3,45.9z"/>
	<path fill="none" d="M127.8,73.7c0.5-0.9,0.5-1.8,0.1-2.6c-0.3-0.5-0.6-0.9-1.1-1.2c-1.7-1.1-4.5-0.1-7.4,1.4
		c-0.7,2.3-0.9,4.6-0.7,6.9C122.6,77.3,126.7,75.8,127.8,73.7z"/>
	<path fill="none" d="M135,61.4c-0.1-0.1-0.3-0.2-0.4-0.2c-3.6-2-7.8-0.6-11.6,3.9c-0.5,0.6-0.9,1.1-1.3,1.7
		c2.8-0.7,5.8-0.8,7.9,0.5c1,0.6,1.8,1.6,2.3,2.7c0.6,1.4,0.6,2.9-0.1,4.4c-1.9,4.1-8.8,7.1-12.1,8.3c1.3,4.1,3.5,8.1,5.7,11.7
		c7.2-6.4,12-12.5,14-19C141.2,69.4,138.6,63.7,135,61.4z"/>
	<path fill="#5AB659" d="M53.7,50c0-1.4,0-3.6-0.6-6c-0.3-2-1.1-3.5-1.8-4.5c0.2-1.7-0.5-4-0.9-5.2c-2.1-7.5-9.4-12.2-16-13.6
		c-6.8-1.7-14.5,3.3-15.3,5.1c-1.1,1.1-2,4.7-1.8,5.2c0-0.1,0.1-0.1,0.1-0.2c0.9-0.3,1.7-0.2,3-0.1c1.2,0.3,2.3,0.5,4.6,2.1
		c4,2.7,6.8,7,10.7,9.5c4.3,2.9,7.6,2.6,11.3,1.4c0.7-0.2,1.5-0.7,2.2-1.2C47,39.1,38.5,27.1,24.9,27.7c0,0,0.3-0.1,0.8-0.1
		c-0.8,0-1.3,0.1-1.3,0.1s0.4-0.1,1.2-0.3c8.4-1.5,13.5,2.2,13.5,2.2c2.6,1.4,4.9,3.2,6.9,5.2c1.4,1.4,2.4,2.9,3.5,4.6
		c0.1,0.1,0.3,0.4,0.6,0.8l0,0c0,0,2.2,5,1.5,9.7C52.3,50,53,50,53.7,50z"/>
	<path fill="#5AB659" d="M57.9,48.1c0.8-3.3,2.2-6.5,2.5-7.3c1.3-2.9,2.9-5.6,4.7-8.1c2.7-3.7,5.9-6.9,9.6-9.8c0,0-0.3,0.4-0.8,1
		c-0.3,0.3-0.6,0.7-1,1.1c-0.4,0.4-0.8,0.9-1.3,1.4c-0.5,0.5-0.9,1.1-1.5,1.7c-0.5,0.6-1,1.3-1.6,1.9c-0.3,0.3-0.6,0.7-0.8,1
		c-0.3,0.4-0.5,0.7-0.8,1.1c-0.3,0.4-0.6,0.7-0.8,1.1c-0.3,0.4-0.5,0.7-0.8,1.1c-0.3,0.4-0.6,0.7-0.8,1.1c-0.2,0.4-0.5,0.8-0.7,1.1
		c-0.5,0.7-0.9,1.5-1.4,2.2c-0.2,0.4-0.4,0.7-0.6,1.1c-0.2,0.4-0.4,0.7-0.6,1.1c-0.2,0.4-0.3,0.7-0.5,1c-0.2,0.3-0.3,0.7-0.4,1
		c-0.1,0.3-0.3,0.6-0.4,0.9c-0.1,0.3-0.2,0.6-0.3,0.8c-0.1,0.4-0.3,0.8-0.4,1.2c3.4,0,6.8,0.3,10,0.3c1.4-0.2,3.1-0.4,5.1-0.4
		C80.5,44.7,85.3,41,87,30c0.9-6,5-12.9,11.3-16.8C68.6,9,49.6,15.4,57,43.4c-0.5,1.5-1.4,4.1-1.9,6.5c0.9-0.1,1.8-0.2,2.5-0.3
		C57.7,49.1,57.8,48.6,57.9,48.1z"/>
	<path fill="#AB1E23" d="M72.2,93.6c0.7,1.8,1.2,3.6,1.5,5.4l31.6-11.2L75,98.6c-0.3-1.6-0.7-3.2-1.3-4.8c-0.5-1.3-1.1-2.5-1.7-3.6
		l-1.1,0.5C71.3,91.7,71.8,92.6,72.2,93.6z"/>
	<path fill="#AB1E23" d="M44.9,103.3l-1.1,0.5c0.1,0.4,0.3,0.9,0.5,1.3c0.5,1.3,1.1,2.5,1.8,3.7l-17,6l18.2-6.5
		c-0.8-1.3-1.5-2.8-2.1-4.3C45.1,103.8,45,103.6,44.9,103.3z"/>
	<path fill="#424143" d="M44.3,105.2c-0.2-0.4-0.3-0.9-0.5-1.3l-16.1,7.8c-0.6,0.3-1.5,0.7-1.5,1.7l0,1l0.8,0.5
		c0.7,0.5,1.4,0.2,2.1,0l17-6C45.4,107.7,44.8,106.5,44.3,105.2z"/>
	<path fill="#424143" d="M136.2,58.3c-5-2.7-10.9-1-15.7,4.6c-1.5,1.8-2.6,3.6-3.4,5.4c-2.1,0.9-3.8,1.8-4.3,2l-8.8,4.3L71.9,90.2
		c0.7,1.1,1.2,2.3,1.7,3.6c0.6,1.6,1,3.2,1.3,4.8l30.4-10.7l11.3-4c1.5,4.6,4,9,6.3,12.8c-4.4,3.8-9.7,7.6-15.6,11.8
		c-3.1,2.2-5.8,4.5-8.1,6.8c-4.8,4.8-7.8,9.8-9.5,14.2c-1.8,4.6-2,8.6-0.8,11c0.1,0.3,0.4,0.5,0.6,0.7c0.5,0.3,1.1,0.3,1.6,0.1
		c0.8-0.4,1.2-1.4,0.8-2.2c-1.9-4.1,2.3-17.3,17.4-27.9c5.8-4.1,11-7.9,15.4-11.7c0.3,0.4,0.5,0.9,0.8,1.3c5,8.7,0.3,29.6,0.3,29.8
		c-0.2,0.9,0.3,1.8,1.2,2c0.9,0.2,1.8-0.3,2-1.2c0.2-0.9,5.1-22.4-0.6-32.2c-0.3-0.6-0.7-1.2-1.1-1.8c7.9-7,13.2-13.6,15.4-20.9
		C144.7,69.4,141.9,61.4,136.2,58.3z M111.8,79.5l-4.1,0.6l3.2-2.7c0.9-0.8,2.6-2.2,4.6-3.6c-0.2,1.7-0.2,3.4,0,5.1
		C113.8,79.2,112.5,79.4,111.8,79.5z M119.4,71.3c2.8-1.6,5.7-2.5,7.4-1.4c0.5,0.3,0.8,0.7,1.1,1.2c0.4,0.9,0.4,1.8-0.1,2.6
		c-1.1,2.1-5.3,3.6-9.1,4.5C118.5,75.9,118.7,73.6,119.4,71.3z M139.4,75.5c-2,6.5-6.8,12.6-14,19c-2.2-3.6-4.4-7.6-5.7-11.7
		c3.3-1.2,10.2-4.2,12.1-8.3c0.7-1.4,0.7-3,0.1-4.4c-0.5-1.2-1.3-2.1-2.3-2.7c-2.1-1.3-5.1-1.2-7.9-0.5c0.4-0.6,0.8-1.1,1.3-1.7
		c3.8-4.4,8-5.9,11.6-3.9c0.1,0.1,0.3,0.1,0.4,0.2C138.6,63.7,141.2,69.4,139.4,75.5z"/>
	<path fill="#E72329" d="M105.3,89.9c0-0.7,0-1.3,0-2L73.7,99c-0.3-1.8-0.8-3.6-1.5-5.4c-0.4-1-0.9-2-1.3-2.9l1.1-0.5L104,74.6
		c-2.7-12.4-9.3-20.5-16.2-24.4c-4.1-3-8.5-4.4-12.3-4.4c-0.4,0-0.7,0-1,0c-2,0-3.7,0.2-5.1,0.4C64,47,62,48.7,57.6,49.6
		c-0.8,0.1-1.6,0.3-2.5,0.3c-0.2,0-0.3,0-0.5,0c-0.3,0-0.6,0-1,0c-0.7,0-1.4,0-2,0c-6.3-0.5-9.6-3.8-18-3.2
		c-9.6,0.6-25.9,4.3-27,38.5c-1.1,34.2,20.5,53.3,29.6,52.8c9.2-0.5,13.3-3.5,18.9-3.8c1-0.1,2.1,0,3.3,0.2
		c-0.1,0.1-0.1,0.1-0.2,0.2c0.6,0,1.3,0.1,1.9,0.2c2.4,0.5,5,1.2,7.7,1.7c0,0,0.1-0.1,0.1-0.1c3.6,0.8,7.3,1.5,10.7,0.9
		c2.6-0.5,6.7-3.1,11-7.7c1.7-4.4,4.8-9.4,9.5-14.2C102.6,108.3,105,99.8,105.3,89.9z M29,114.9c-0.7,0.2-1.4,0.5-2.1,0l-0.8-0.5
		l0-1c0.1-1,0.9-1.4,1.5-1.7l16.1-7.8l1.1-0.5c0.1,0.3,0.2,0.5,0.3,0.8c0.6,1.5,1.3,3,2.1,4.3L29,114.9z"/>
</g>
</svg>
