<?xml version="1.0" encoding="utf-8"?>
<!-- Generator: Adobe Illustrator 18.1.0, SVG Export Plug-In . SVG Version: 6.00 Build 0)  -->
<svg version="1.0" id="Layer_1" xmlns="http://www.w3.org/2000/svg" xmlns:xlink="http://www.w3.org/1999/xlink" x="0px" y="0px"
	 viewBox="0 0 150 150" enable-background="new 0 0 150 150" xml:space="preserve">
<g>
	<path fill="#003B71" d="M143.4,64c0.2,1.5,0.3,2.8,0.3,2.8c0,0.1,0,0.1,0,0.1l0,0.2l0,0l0,0.3v0l0,0.2l0,0.1c0,0,0,0.1,0,0.1l0,0
		c0,0,0,0.1,0,0.1l0,0.1c0,0,0,0.1,0,0.1c0,0,0,0,0,0l0,0.1l0,0.1l0,0.1c0,0,0,0,0,0c0,0,0,0.1,0,0.1l0,0c0,0,0,0.1,0,0.1l0,0l0,0.1
		l0,0.1c0,0,0,0,0,0l0,0.1c0,0,0,0,0,0c0,0,0,0.1,0,0.1c0,0,0,0,0,0c0,0,0,0.1,0,0.1l0,0l0,0.1l0,0c0,0,0,0.1,0,0.1c0,0,0,0,0,0
		c0,0,0,0.1,0,0.1c0,0,0,0,0,0c0,0,0,0.1,0,0.1c0,0,0,0,0,0l0,0.1l0,0v0.1c0,0,0,0,0,0l0,0.1c0,0,0,0-0.1,0l0,0.1c0,0,0,0,0,0
		c-0.9,0.2-3.4-13.3-2.7-14.6c0,0,0-0.1,0.1-0.1c0,0,0,0,0.1,0c0,0,0,0.1,0,0.1c0,0,0,0,0,0l0.1,0.1c0,0,0,0,0,0l0.1,0.1
		c0,0,0,0,0,0l0,0.1c0,0,0,0,0,0l0,0.1l0,0l0,0.1l0,0l0,0.1l0,0c0,0,0,0.1,0,0.1c0,0,0,0,0,0l0,0.1l0.1,0.2l0,0l0,0.1l0,0.1l0,0.1
		l0,0c0,0,0,0.1,0,0.1c0,0,0,0,0,0c0,0,0,0.1,0,0.1l0,0l0,0.1l0,0.1l0,0c0,0.1,0,0.1,0.1,0.2c0,0,0,0,0,0l0,0.1c0,0,0,0.1,0,0.1l0,0
		c0,0,0,0.1,0,0.1l0,0.1c0,0,0,0,0,0c0,0,0,0.1,0,0.1l0.1,0.2c0,0,0,0.1,0,0.1l0,0c0,0,0,0.1,0,0.1c0.2,0.8,0.5,1.8,0.7,2.7
		L143.4,64"/>
	<path fill="#003B71" d="M101.1,77.5c0.9,6-4.6,10.4-9.2,7.4c-1.2-0.8-2-1.9-3.2-2.6c-0.8-0.4-1.6-0.6-2.4-0.5c-2,0.2-2.1,0.6-4,4.3
		c0,0,0,0.1,0,0.1l0,0.2c0,0-0.1,0-0.1,0l0,0.3c0,0-0.1,0-0.1,0l-0.1,0.3l-0.1,0.1c0,0,0,0.1,0,0.1c0,0-0.1,0-0.1,0c0,0,0,0.1,0,0.1
		l-0.1,0.1c0,0,0,0.1,0,0.1c0,0-0.1,0-0.1,0l-0.1,0.1L81.6,88l-0.1,0.1c0,0-0.1,0-0.1,0c0,0,0,0.1,0,0.1c-0.1,0-0.1,0-0.2,0.1
		c0,0,0,0.1,0,0.1c0,0-0.1,0-0.1,0l-0.1,0.1l-0.1,0.1c0,0-0.1,0-0.1,0l-0.1,0.1c0,0-0.1,0-0.1,0c0,0,0,0.1,0,0.1c-0.1,0-0.1,0-0.2,0
		c0,0,0,0.1,0,0.1c0,0-0.1,0-0.1,0l-0.1,0.1c-0.1,0-0.1,0-0.2,0.1c0,0,0,0.1,0,0.1c-0.1,0-0.1,0-0.2,0.1c0,0,0,0.1,0,0.1
		c-0.1,0-0.1,0-0.2,0.1c0,0,0,0.1,0,0.1c-0.1,0-0.1,0-0.2,0.1L79.8,90c-0.1,0-0.2,0.1-0.3,0.1l-0.1,0.1c-0.1,0-0.2,0.1-0.3,0.1
		L79,90.4c-0.2,0.1-0.4,0.1-0.6,0.2l-0.1,0.1c-0.1,0-0.2,0.1-0.3,0.1c-6.6,1.4-10.6-6.4-7.5-11.5c1.2-1.9,2.7-2.4,3.6-2.7
		c0.2-0.1,0.4-0.1,0.6-0.2c0,0,0,0.1,0,0.1c0.2,0,0.3-0.1,0.5-0.1l0.2,0.1c0.1,0,0.2-0.1,0.3-0.1l0.2,0.1c0.1,0,0.1,0,0.2,0l0.1,0.1
		c0.1,0,0.1,0,0.2-0.1l0.1,0.1c0,0,0.1,0,0.1,0l0.1,0.1c0,0,0.1,0,0.1,0l0.1,0.1c0,0,0.1,0,0.1,0c0,0,0,0.1,0,0.1
		c0.1,0,0.1,0,0.2-0.1l0.2,0.1l0.2,0.2c0,0,0.1,0,0.1,0l0.1,0.1l0.1,0.1l0.1,0.1c0.1,0,0.1,0,0.2-0.1c0,0,0,0.1,0,0.1
		c0,0,0.1,0,0.1,0c0,0,0,0.1,0,0.1c0,0,0.1,0,0.1,0l0.1,0.1l0.1,0.1c0,0,0.1,0,0.1,0c0,0.1,0,0.1,0.1,0.2c0,0,0.1,0,0.1,0l0.1,0.1
		c0,0,0,0.1,0,0.1c0,0,0.1,0,0.1,0c0,0,0,0.1,0,0.1l0.1,0.1c0,0,0.1,0,0.1,0c0,0,0,0.1,0,0.1l0.2,0.2c0,0,0,0.1,0,0.1
		c0,0,0.1,0,0.1,0c0,0,0,0.1,0,0.1c5.7,5,7.9,0.1,8.6-2.3c0.8-2.8,1.8-3.9,4.4-4.8C97.3,70.3,100.5,73.7,101.1,77.5"/>
	<path fill="#8BC541" d="M115.2,31.8c2.7,3.7,1.9,6.9-1.7,6.3c-2.7-0.5-4.2-3.4-7.1-3.3c-0.4,0-1.3,0-1.9,0.8
		c-0.6,0.8-0.3,1.8-0.6,2.7c0,0,0,0.1,0.1,0.1l0,0.2c0,0,0,0-0.1,0l0.1,0.3c0,0-0.1,0-0.1,0l0,0.2l0,0.1c0,0,0,0.1,0.1,0.1
		c0,0,0,0-0.1,0c0,0,0,0.1,0.1,0.1l0,0.1c0,0,0,0.1,0.1,0.1c0,0-0.1,0-0.1,0l0,0.1l0,0.1l0,0.1c0,0,0,0-0.1,0c0,0,0,0.1,0.1,0.1
		c-0.1,0-0.1,0-0.2,0c0,0,0,0.1,0,0.1c0,0,0,0-0.1,0l0,0.1l0,0.1c0,0,0,0-0.1,0l0,0.1c0,0-0.1,0-0.1,0c0,0,0,0.1,0.1,0.1
		c-0.1,0-0.1,0-0.2,0c0,0,0,0.1,0.1,0.1c0,0-0.1,0-0.1,0l0,0.1c-0.1,0-0.1,0-0.2,0c0,0,0,0.1,0.1,0.1c0,0-0.1,0-0.2,0
		c0,0,0,0.1,0.1,0.1c-0.1,0-0.1,0-0.1,0c0,0,0,0.1,0,0.1c-0.1,0-0.1,0-0.2,0l0,0.1c-0.1,0-0.2,0-0.2,0.1l0,0.1c-0.1,0-0.2,0-0.2,0.1
		l-0.1,0.1c-0.2,0.1-0.4,0.1-0.5,0.2l0,0.1c-0.1,0-0.2,0-0.2,0.1c-6.3,1.5-11-6.5-8.6-10c0.6-0.8,1.4-1.1,1.8-1.3
		c0.1,0,0.3-0.1,0.4-0.1c0,0,0,0,0.1,0.1c0.1,0,0.2-0.1,0.4-0.1l0.2,0c0.1,0,0.1,0,0.2-0.1l0.2,0c0,0,0.1,0,0.1,0l0.1,0
		c0,0,0.1,0,0.1,0l0.1,0.1c0,0,0,0,0.1,0l0.1,0.1c0,0,0,0,0.1,0l0.1,0c0,0,0.1,0,0.1,0c0,0,0,0.1,0.1,0.1c0,0,0.1,0,0.1,0l0.2,0
		l0.3,0.1c0,0,0,0,0.1,0l0.1,0.1l0.1,0l0.1,0.1c0,0,0.1,0,0.1,0c0,0,0,0.1,0.1,0.1c0,0,0,0,0.1,0c0,0,0,0,0.1,0.1c0,0,0,0,0.1,0
		l0.1,0.1l0.1,0.1c0,0,0,0,0.1,0c0,0.1,0.1,0.1,0.1,0.2c0,0,0,0,0.1,0l0.1,0.1c0,0,0,0,0.1,0.1c0,0,0,0,0.1,0c0,0,0,0.1,0.1,0.1
		l0.1,0.1c0,0,0,0,0.1,0c0,0,0,0,0.1,0.1l0.3,0.1c0,0,0,0,0.1,0.1c0,0,0,0,0.1,0c0,0,0,0.1,0.1,0.1c7,4.1,6-1.1,5.9-1.7
		c-0.4-1.9-0.1-2.7,1.2-3.2C109.5,26.6,113.1,29,115.2,31.8"/>
	<path fill="#003B71" d="M136.8,105.6c-0.9,1.6-2,3.7-3,5.2c-5.2,7.9-12.8,15.4-14.5,16.1c0.3-0.5,8.2-9.3,9.2-9.9
		c0,0,0-0.1,0.1-0.1c2.2-1.2,8-9.7,11.4-18.8C139.2,100.4,137.9,103.4,136.8,105.6"/>
	<path fill="#8BC541" d="M121.4,123.6c-1.8,2-5,4.7-5.6,4.5c0.1-0.6,1.3-2.2,2.2-3.5c4.5-5.8,3-7.9,2.7-8.2c-1.3-1.3-3,0.9-4.4-0.5
		c-1.1-1.2-0.9-3-0.5-4.7c0.3-1.3,1.9-5.4,5.2-6.6c1.3-0.3,4.1-0.4,2.3,5.7c-0.1,0.4-2.8,9.2,0.6,8.4c0.1,0,0.1,0,0,0
		c1.1-0.2,0,1.7-1,3C122.7,122.1,122.2,122.8,121.4,123.6"/>
	<path fill="#003B71" d="M136.4,105.4c-1.2,2.3-3.3,5.8-4.1,5.9c-0.1-0.1-0.3-0.2,0.3-1.8c0.2-0.6,0.9-2.5,0.6-2.7
		c-0.4-0.3-0.4-0.3-2.9,3.1c0,0,0,0.1,0,0.1l-0.1,0.2c0,0,0,0,0,0l-0.2,0.3l0,0l-0.2,0.2l-0.1,0.1c0,0,0,0.1,0,0.1c0,0,0,0,0,0
		c0,0,0,0.1-0.1,0.1l-0.1,0.1c0,0,0,0.1,0,0.1l0,0l-0.1,0.1l-0.1,0.1l-0.1,0.1c0,0,0,0,0,0c0,0,0,0.1-0.1,0.1c0,0,0,0-0.1,0
		c0,0,0,0.1,0,0.1l0,0l-0.1,0.1l-0.1,0.1l0,0l-0.1,0.1l0,0c0,0,0,0.1,0,0.1c0,0,0,0-0.1,0c0,0,0,0.1,0,0.1l0,0l-0.1,0.1
		c0,0,0,0-0.1,0c0,0,0,0.1,0,0.1c0,0,0,0-0.1,0c0,0,0,0.1,0,0.1c0,0,0,0-0.1,0c0,0,0,0.1,0,0.1c0,0,0,0-0.1,0l-0.1,0.1
		c0,0-0.1,0-0.1,0l-0.1,0.1c0,0-0.1,0-0.1,0l-0.1,0.1c-0.1,0-0.2,0.1-0.2,0.1l-0.1,0.1c0,0-0.1,0-0.1,0c-2.2,0.6-0.5-5.3,1.4-8.5
		c1.7-2.9,2.9-3.4,3.3-3.6c0.1,0,0.2-0.1,0.3-0.1c0,0,0,0.1,0,0.1c0.1,0,0.1,0,0.2-0.1l0.1,0.1c0,0,0.1,0,0.1,0l0,0.1
		c0,0,0.1,0,0.1,0l0,0.1c0,0,0.1,0,0.1,0l0,0.1c0,0,0,0,0,0l0,0.1c0,0,0,0,0,0l0,0.1c0,0,0,0,0,0c0,0,0,0.1,0,0.1c0,0,0.1,0,0.1,0
		l0,0.1l0,0.2l0,0l0,0.1l0,0.1l0,0.1c0,0,0.1,0,0.1,0c0,0,0,0.1,0,0.1c0,0,0,0,0,0c0,0,0,0.1,0,0.1c0,0,0,0,0,0l0,0.1l0,0.1
		c0,0,0,0,0,0c0,0.1,0,0.1-0.1,0.2c0,0,0,0,0,0v0.1c0,0,0,0.1,0,0.1c0,0,0,0,0,0c0,0,0,0.1,0,0.1l0,0.1c0,0,0,0,0,0c0,0,0,0.1,0,0.1
		l0,0.2c0,0,0,0.1,0,0.1l0,0c0,0,0,0.1,0,0.1c-0.1,1.2-0.2,2.7,0.6,2.2c2.3-1.6,2.1-5,4.5-6.5C139.1,98.6,138.2,101.8,136.4,105.4"
		/>
	<path fill="#003B71" d="M115.6,125.5c-2.1,2.8-5.8,5.5-6,4c-0.1-0.8,0.6-2.1,0.9-2.7c1.8-3.5,1.7-6-0.5-7.2
		c-2.1-1.2-6.9,0.6-9.6,4.5c-2,2.9-2.2,5.3-2.2,6.3c0,0.2-0.2,1.9-1.7,3.2c-1.8,1.6-4.4,0.6-4.9-1.9c-0.2-1.1,0.2-2.1,0.4-2.4
		c0.8-1.3,1.6-1.6,2.5-1.9c1.3-0.4,3.2-1,5.3-4c2.2-3,2.6-5.7,2.6-7.5c0-1.3,0.1-2.8,1.3-4.5c0.1-0.2,1.4-2,3.7-2.8
		c1.1-0.3,4.5-0.8,4.1,4.4c0,0.1,0,0.2,0,0.2c-0.5,5.8,1.2,8.7,4.6,7.8C118.1,120.7,117.5,123.1,115.6,125.5"/>
	<path fill="#8BC541" d="M97.6,117.6c0,1.5-0.5,2.4-0.7,2.9c-1,2-2.6,2.5-3.1,2.7c-3.6,1.2-5,3.3-5.6,4.8c-0.5,1.2-0.8,3.1,0.3,5.2
		c0.5,1,0.3,2.1-0.2,2.7c-1.2,1.4-4.4,0.7-6-0.9c-1.6-1.5-1.7-3.5,0.7-4.3c0,0,0,0,0-0.1c3.8-1,6.9-5.1,5.2-11.2
		c-0.5-1.8,0.1-5.1,3.9-6.3C95.4,112.3,97.6,114.8,97.6,117.6"/>
	<path fill="#003B71" d="M83.4,121.5c1.1,3.8-2.5,7-6.9,4.5c-4.3-2.4-5.7-2.2-6.3,1.1c0,0,0,0,0,0.1l0,0.1c0,0,0,0,0,0l0.1,0.2
		c0,0,0,0-0.1,0l0,0.2l0,0.1c0,0,0,0,0,0c0,0,0,0-0.1,0c0,0,0,0,0.1,0.1l0,0.1c0,0,0,0,0,0.1c0,0,0,0-0.1,0l0,0.1l0,0.1l0,0.1
		c0,0,0,0-0.1,0c0,0,0,0,0.1,0.1c0,0-0.1,0-0.1,0c0,0,0,0,0.1,0.1c0,0,0,0-0.1,0l0,0.1l0,0.1c0,0,0,0-0.1,0l0,0.1c0,0,0,0-0.1,0
		c0,0,0,0,0,0.1c0,0-0.1,0-0.1,0c0,0,0,0,0.1,0.1c0,0,0,0-0.1,0l0,0.1c0,0-0.1,0-0.1,0c0,0,0,0,0,0.1c0,0-0.1,0-0.1,0
		c0,0,0,0,0.1,0.1c0,0-0.1,0-0.1,0c0,0,0,0,0.1,0.1c0,0-0.1,0-0.1,0l0,0.1c-0.1,0-0.1,0-0.2,0l0,0.1c-0.1,0-0.1,0-0.2,0l-0.1,0.1
		c-0.1,0-0.3,0.1-0.4,0.1l0,0.1c-0.1,0-0.1,0-0.2,0c-4.8,1-11-4.5-8.7-7.7c0.5-0.7,1.3-1,1.8-1.1c0.1,0,0.3-0.1,0.4-0.1
		c0,0,0,0.1,0.1,0.1c0.1,0,0.2-0.1,0.3-0.1l0.2,0c0.1,0,0.1,0,0.2-0.1l0.2,0c0,0,0.1,0,0.1,0l0.1,0.1c0,0,0.1,0,0.1,0l0.1,0
		c0,0,0,0,0.1,0l0.1,0.1c0,0,0,0,0.1,0l0.1,0.1c0,0,0,0,0.1,0c0,0,0,0,0,0.1c0,0,0.1,0,0.1,0l0.2,0l0.2,0.1c0,0,0.1,0,0.1,0l0.1,0.1
		l0.1,0.1l0.1,0c0,0,0.1,0,0.1,0c0,0,0,0.1,0.1,0.1c0,0,0,0,0.1,0c0,0,0,0.1,0.1,0.1c0,0,0,0,0.1,0l0.1,0l0.1,0.1c0,0,0,0,0.1,0
		c0,0,0.1,0.1,0.1,0.1c0,0,0,0,0.1,0l0.1,0.1c0,0,0,0.1,0.1,0.1c0,0,0,0,0.1,0c0,0,0,0,0,0.1l0.1,0.1c0,0,0,0,0.1,0
		c0,0,0,0.1,0.1,0.1l0.2,0.1c0,0,0,0.1,0.1,0.1c0,0,0,0,0.1,0c0,0,0,0,0,0.1c1.4,0.8,5.7,3.3,6.5-1.6c0.3-1.9,1.1-2.7,3.1-3.4
		C79.8,116.6,82.7,118.9,83.4,121.5"/>
	<path fill="#8BC541" d="M79,135.8c1,1,2.2,2.8-0.6,2.8c-1.2,0-2.6-0.4-3.1-0.5c-4.4-1.2-8.1-4.3-12.6-5.3c-3.3-0.8-6.7,0.1-9.9-1.3
		c-4.1-1.9-6.8-5.4-5.2-6.8c0.3-0.2,0.6-0.4,0.9-0.4c3.1-0.5,6.5,1.9,7.9,3.3c5,4.9,11.6,6.6,15.5,5.9c0.2,0,0.2,0,0.2,0
		C74.7,133,77.5,134.4,79,135.8"/>
	<path fill="#003B71" d="M40.5,131.6c3.7,2.5,4.3,2.9,4.5,3.2c0,0-0.1,0.1-0.1,0.1c0.1,0.1,0.2,0.2,1,0.6c-2.1-1.1-4.9-2.7-6.9-4
		l0,0c-5-3.3-5.7-4.4-5.7-4.4c0,0,0-0.1,0-0.1C34,127.2,36.3,128.7,40.5,131.6"/>
	<path fill="#003B71" d="M69.6,138.1c2.4,1.2,2.6,1.7,2.7,1.9c0,0-1.2,1.5-9.9-1.8c-2.3-0.9-9.5-3.6-12.5-3.9
		c-2.9-0.2-3.1,2.8,14.8,7.3c-0.4,0-0.4,0-1-0.2c-1.7-0.4-3.9-0.8-5.5-1.3l-4.7-1.5c-4.9-1.8-17.8-10.9-15.5-12.1c0,0,0.1,0,0.2-0.1
		c2.2-0.2,6.1,2.7,7.5,3.8c0.1,0.1,0.2,0.1,0.2,0.2c7.3,5.2,13.4,5.8,15.6,5.5C64.1,135.5,69,137.8,69.6,138.1"/>
	<path fill="#003B71" d="M18.2,98.6c1.3,3.8,1.5,7.2-0.2,6.3c-0.9-0.5-1.9-2.1-2.7-3.5c-1.2-2-1.4-2.1-1.6-2.2c0,0-0.1,0-0.1,0
		c-0.1,0.4,0,0.7,0.7,2.9c0,0,0,0.1,0,0.1l0.1,0.2c0,0,0,0,0,0l0.1,0.3l0,0l0.1,0.2l0,0.1c0,0,0,0.1,0,0.1l0,0c0,0,0,0.1,0,0.1
		l0,0.1c0,0,0,0.1,0,0.1l0,0l0,0.1l0,0.1l0,0.1c0,0,0,0,0,0c0,0,0,0.1,0,0.1l0,0c0,0,0,0.1,0,0.1c0,0,0,0,0,0l0,0.1l0,0.1l0,0l0,0.1
		h0c0,0,0,0.1,0.1,0.1l0,0c0,0,0,0.1,0.1,0.1l0,0l0,0.1l0,0c0,0,0,0.1,0.1,0.1l0,0c0,0,0,0.1,0.1,0.1l0,0c0,0,0,0.1,0,0.1l0,0l0,0.1
		l0,0l0,0.1l0,0l0,0.1c0,0,0,0,0,0l0,0.1l0,0c-0.8-1.8-2-4.3-2.7-6.2c-0.6-1.9-1.5-4.4-2.1-6.4l-0.4-1.4c0,0,0,0,0,0
		c0,0,0,0.1,0,0.1c0,0,0,0,0,0l0,0.1c0,0,0,0,0,0l0,0.1l0,0l0,0.1l0,0l0,0.1l0,0l0,0.1l0,0l0,0.1l0,0c0,0,0,0.1,0,0.1l0,0l0,0.1
		l0.1,0.2l0,0l0,0.1l0,0.1l0,0.1c0,0,0,0,0,0c0,0,0,0.1,0,0.1c0,0,0,0,0,0c0,0,0,0.1,0,0.1l0,0l0,0.1l0,0.1l0,0c0,0.1,0,0.1,0.1,0.2
		c0,0,0,0,0,0l0,0.1c0,0,0,0.1,0,0.1l0,0c0,0,0,0.1,0,0.1l0,0.1l0,0c0,0,0,0.1,0,0.1l0.1,0.2c0,0,0,0.1,0,0.1l0,0c0,0,0,0.1,0,0.1
		c1,2.6,1.3,3.1,1.6,3.2c0.2-0.1,0.2-0.8-0.2-3.1c-0.4-2.6-0.1-3.2,0.5-3.4C14.9,91.1,17,94.9,18.2,98.6"/>
	<path fill="#8BC541" d="M143.5,85.1c0,0.1-0.9,5.4-1.6,6.5c-0.1-0.1-0.4-0.5,0.4-6c0.2-1.6,0.9-6.3-0.2-10.1c-1-3.5-2.3-3.2-3.1-3
		c-2,0.5-3.3-4.3-3.4-4.8c0-0.1-0.2-1-0.5-2.2c-0.3-1.8-0.7-6.6,1.1-7.6c0.6-0.1,2.8,0,4.2,7.6c0.1,0.5,2.1,11.4,3.3,12.2
		c0.1,0,0.1,0,0.2,0c0,0,0,0.1,0,0.1C144.5,78.7,143.5,85.1,143.5,85.1"/>
	<path fill="#8BC541" d="M118.4,72.5c0.3,2.5-0.5,4.3-0.7,4.8c-1.1,2.2-2.3,2.8-3.5,3.2c-1.4,0.5-4.7,1.7-7.4,6.3
		c-2.3,4-2.4,8.3-2.1,10.2c0.2,1.7,0.1,3-1,5c-0.1,0.2-0.3,0.4-0.4,0.6c-2.1,2.8-5.5,3.5-8,1.5c-3.2-2.6-3.2-9.4,2.4-11.6
		c0,0,0-0.1,0-0.1c6-1.6,11.3-8.4,9.2-17.8c-0.4-1.7-0.4-7,4-8.6C114.9,65.1,117.8,68.7,118.4,72.5"/>
	<path fill="#003B71" d="M140.7,86.6c-0.7,4.6-2.8,8.1-3.9,6.5c-0.4-0.6-0.8-2-0.6-5.2c0.8-10.4-4.2-12-4.7-12.2
		c-3.4-0.9-9.1,3.7-10.6,13.3c-0.3,2-0.1,4-0.6,5.9c-0.6,2.3-1.9,3.7-2.1,3.9c-2.4,2.5-5.2,2.6-6.9,0.2c-1.3-1.7-1.5-4.8-0.5-7.2
		c1.3-3.4,3.4-4.1,4.3-4.4c1.4-0.5,4-1.4,6.2-5c3.1-5,2.5-10,2.1-12c-0.3-1.4-0.8-4.2,0.4-6.5c1-2,2-2.4,2.5-2.6
		c1.5-0.4,4.1-0.1,5.6,6c0,0.1,0,0.2,0.1,0.3c2.7,12,6.3,12.2,7.3,11.9C140.8,79.2,141.3,82.9,140.7,86.6"/>
	<path fill="#8BC541" d="M87.6,102.8c0.8,5.1-4.5,9.3-9.3,5.8c-1.6-1.2-2.2-2.6-2.3-2.9c-2-5.8-6.1-8.4-9.2-9.6
		c-3.3-1.3-5.7-0.8-7.3-0.4c-3.5,0.7-5.8-1.6-6.4-2.3c-3.3-3.9-2.8-10.3,2.1-11.9c4.6-0.9,7.4,3.1,8.1,5.2C66.1,95.8,74,99,80,97.4
		c0.1,0,0.1,0,0.1,0.1C83.8,96.8,87,99.1,87.6,102.8"/>
	<path fill="#003B71" d="M24.1,117.8c1.7,2.1,3.3,4,3.8,4.5c-1.3-1.4-3.1-3.3-4.3-4.8c-1.4-1.8-3.2-4.2-4.4-6.1
		C19.9,112.5,22.3,115.6,24.1,117.8"/>
	<path fill="#003B71" d="M68.2,108c1.4,4.4-2.4,8.3-7.5,5.9c-2.1-1-3.2-2.6-3.6-3.4c-4.9-9.5-13-10.3-13.1-10.3
		c-6.8-0.6-10.4,4.7-7.7,11.5c1,2.6,3.4,4.6,3.2,7.7c-0.1,1.6-1.7,2.1-3.8,1.1c-5-2.3-8.8-9.4-5.7-10.7c1.7-0.7,7-2.8,3.3-14.8
		c-2-6.7,1.8-8.4,3-8.7c2.2-0.4,5.2,0.3,7.3,6c0,0.1,0.1,0.2,0.1,0.3c3.7,9.2,10.7,11.3,16.1,10.2C63.7,101.9,67.2,104.8,68.2,108"
		/>
	<path fill="#8BC541" d="M28.8,96.4c0.4,1.3,0.4,2,0.5,2.7c0.1,0.8,0.1,3.7-2.1,4.3c-2.6,0.8-3.5,3-2.5,6.6c0.6,2.2,1.9,4.6,3.8,7.1
		c0,0,3.1,4.1,2.3,5.2c-3.5,0.5-9.7-9.9-9-10.7c0.1-0.1,0.2-0.1,0.3-0.2c0,0,0-0.1-0.1-0.1c2.6-0.7,1-8.2-1.2-14.3
		c-0.7-2.1-1.3-6.7,1.5-7.5C25,89.1,27.7,92.7,28.8,96.4"/>
	<path fill="#8BC541" d="M37.3,53.6c-0.5,6.2-5.6,9.3-8,6.1c-0.6-0.8-0.9-1.9-1.5-2.8c-0.5-0.7-1-0.7-1.3-0.7
		c-1.2,0-1.5,0.5-3.4,3.6c0,0,0,0.1,0,0.1l-0.1,0.2c0,0,0,0-0.1,0L23,60.5c0,0,0,0-0.1,0l-0.1,0.2l-0.1,0.1c0,0,0,0.1,0,0.1
		c0,0,0,0-0.1,0c0,0,0,0.1,0,0.1l-0.1,0.1c0,0,0,0.1,0,0.1c0,0,0,0,0,0l-0.1,0.1l-0.1,0.1l-0.1,0.1c0,0,0,0-0.1,0c0,0,0,0.1,0,0.1
		c0,0-0.1,0-0.1,0c0,0,0,0.1,0,0.1c0,0,0,0-0.1,0L22,62l-0.1,0.1c0,0,0,0-0.1,0l-0.1,0.1c0,0,0,0-0.1,0c0,0,0,0.1,0,0.1
		c0,0-0.1,0-0.1,0c0,0,0,0.1,0,0.1c0,0,0,0-0.1,0l-0.1,0.1c0,0-0.1,0-0.1,0c0,0,0,0.1,0,0.1c0,0-0.1,0-0.1,0c0,0,0,0.1,0,0.1
		c0,0-0.1,0-0.1,0c0,0,0,0.1,0,0.1c0,0-0.1,0-0.1,0l-0.1,0.1c-0.1,0-0.1,0-0.2,0l-0.1,0.1c-0.1,0-0.1,0-0.2,0l-0.1,0.1
		c-0.1,0-0.3,0.1-0.4,0.1L20,63.7c-0.1,0-0.1,0-0.2,0c-3.8,0.5-3-8.1,0.3-12.2c0.9-1.1,1.5-1.3,2-1.4c0.1,0,0.2,0,0.3-0.1
		c0,0,0,0.1,0,0.1c0.1,0,0.2,0,0.2-0.1l0.1,0.1c0.1,0,0.1,0,0.1,0l0.1,0.1c0,0,0.1,0,0.1,0l0,0.1c0,0,0.1,0,0.1,0l0,0.1c0,0,0,0,0,0
		l0,0.1c0,0,0,0,0.1,0l0,0.1c0,0,0,0,0,0c0,0,0,0.1,0,0.1c0,0,0.1,0,0.1,0l0.1,0.1l0.1,0.2c0,0,0,0,0.1,0l0,0.1l0,0.1l0,0.1
		c0,0,0.1,0,0.1,0c0,0,0,0.1,0,0.1c0,0,0,0,0.1,0c0,0,0,0.1,0,0.1c0,0,0,0,0.1,0l0,0.1l0,0.1c0,0,0,0,0.1,0c0,0.1,0,0.1,0,0.2
		c0,0,0,0,0,0l0,0.1c0,0,0,0.1,0,0.1c0,0,0,0,0.1,0c0,0,0,0.1,0,0.1l0,0.1c0,0,0,0,0.1,0c0,0,0,0.1,0,0.1l0.1,0.2c0,0,0,0.1,0,0.1
		c0,0,0,0,0.1,0c0,0,0,0.1,0,0.1c0.9,3.4,2.7,3.2,4.8-0.4c1.8-3.1,2.3-3.8,4.3-4.5C36.3,47.1,37.6,50.3,37.3,53.6"/>
	<path fill="#003B71" d="M112.7,54.1c1.8,5.6-2.7,9.9-7.5,7.2c-2.6-1.4-3.5-3.8-3.7-4.2c-0.6-1.6-2.4-6.5-8.6-9.3
		c-3.8-1.7-6.7-1.1-8.2-0.7c-3.1,0.7-5.2-0.9-6.2-1.9c-2.7-2.8-3.3-8.3,1.2-9.9c4-0.9,6.9,2.1,7.7,3.8c4,8.2,11.7,10.9,16.9,9.3
		c0,0,0.1,0.1,0.1,0.1C107.9,47.8,111.4,50.2,112.7,54.1"/>
	<path fill="#003B71" d="M132.2,36c-2.3-3.3-2.9-3.2-3.1-3.2c-0.6,1.2,2.6,8.3,4.6,12.4c3.8,8,0.9,8.6,0.8,8.6
		c-2.1,0.1-5.1-4.4-6.3-8.4c-0.5-1.9-0.9-4.2,0.3-4.8c1.6-0.8,1.5-3-0.3-6.4c-1.6-3.1-4.1-5.6-5.1-6.7c-3.8-3.9-3.9-4.7-3.8-4.8
		c0.3,0,1.5,0.5,5.5,4.5c0.1,0.1,0.1,0.2,0.2,0.2c1,1,3.6,3.8,5.7,6.6L132.2,36"/>
	<path fill="#8BC541" d="M122.6,29.1c2.1,2.4,2.5,4,2.5,4.3c0,0.1,0,0.2,0.1,0.3c0.1,0.7-0.3,0.9-0.5,1c-0.5,0.3-2.1,1.1-1.5,5.7
		c0.6,4,2.5,8.2,2.5,8.4c0.4,0.8,1.1,2.3,1.1,4c0.1,3.6-1.9,4.7-3.6,4.5c-4.9-0.6-8.7-10.1-5.3-12.9c0.2-0.2,0.5-0.3,0.7-0.4
		c0,0,0-0.1-0.1-0.1c4.8-1.9,4.3-7.7-1.2-14.1c-1.4-1.6-3.6-4.8-2.2-5.5C116.9,24,120.3,26.5,122.6,29.1"/>
	<path fill="#003B71" d="M24.2,77.8c0.4,5.6-2.6,8.7-5,6.8c-0.4-0.3-1.2-1.1-1.9-2.9c-1.7-4.2-1.2-8.8-2.7-13
		c-1.1-3.2-2-3.5-2.7-3.5c-0.6,0-0.7-0.8-0.7-1.1c-0.5-4.2,2.1-12.2,3.9-12.7c1.2,0.3,0.4,4.7,0.2,6c-1.7,8.2,0.2,13.7,4.5,13.2
		c0.1,0,0.1,0,0.1,0.1C22,70.7,23.9,73.7,24.2,77.8"/>
	<path fill="#8BC541" d="M93.4,59.8c1.4,5.8-4.1,10.2-9.1,7.2c-1.6-0.9-2.7-2.3-3.3-4.2c-2.5-7.7-7.8-9.8-10-10.3
		c-6.9-1.8-12.2,2.7-14.1,7.6c-1.7,4.3-1.1,7.6-0.7,9.4c0.3,1.6,0.1,4.1-1.2,5.9c-2.6,3.8-7,2.9-8.9,0.5c-2.6-3.2-1.9-6.9-1.2-8.5
		c2.1-4.6,8-4.6,10.7-8.6c3-4.5,2.9-8.8,2.6-11c-0.2-1-0.5-3.1,0.7-5c0.6-0.9,1.7-2.2,3.6-2.8c2.2-0.5,5.1-0.1,6.7,4.5
		c0,0.1,0.1,0.2,0.1,0.3c3.1,8.7,10.4,10.3,15.6,9.1C89.5,53,92.6,56.8,93.4,59.8"/>
	<path fill="#003B71" d="M52.8,49.7c0.1,1.7-0.4,3-0.8,3.8c-1.4,2.7-3.1,3.3-3.9,3.5c-1.4,0.4-4.7,1.5-7.2,5.8
		c-0.9,1.5-2.9,5.7-1.9,11.2c0.2,0.8,0.4,3-1,5.5c-0.1,0.2-0.2,0.4-0.3,0.6c-1.7,2.5-4.6,2.8-6.7,0.7c-3.5-3.3-3.1-11.2,1.7-12.9
		c0,0,0-0.1,0-0.1c4.8-1.1,9.8-7.2,9.7-16.4c0-1.8,1.1-6,4.9-7.2C50.5,43.5,52.6,46.4,52.8,49.7"/>
	<path fill="#003B71" d="M105.9,13.6c1.8,0.9,4.7,2.5,5.2,3.2c-0.4,0.1-0.6,0.1-6.4-2.7c-8.7-4.3-14.5-4.4-14.5-4.3
		c-5,0.2-13.6-2.1-13.7-2.1c-0.1,0-0.2-0.1-0.2-0.1c0,0,0,0,0-0.1c7.7-1.3,14.5,3.2,22,3.4c0.2,0,0.2,0,0.3,0
		C99.5,10.9,102.7,12,105.9,13.6"/>
	<path fill="#8BC541" d="M75.9,11c2.3,1,2.8,2.2,1.8,2.7c-1.3,0.6-3.9,1.8-1,7c0.7,1.3,1.8,2.3,2.1,3.7c0.2,0.8,0,2-0.8,2.8
		c-3.2,3.2-9.9-1.2-8.5-5.6c0.4-1.3,1.3-1.6,1.8-1.8c0,0,0,0,0,0c3.4-0.9,5-4.4-0.3-7.7c-0.8-0.5-2.7-1.8-1.7-2.1
		C70.4,9.5,73.6,10,75.9,11"/>
	<path fill="#003B71" d="M65.8,26.3c1.1,4.2-3.3,7-6.3,5.1c-0.2-0.2-0.6-0.4-0.8-0.6c-0.3-0.3-1.1-1.2-1.3-2.5
		c-0.4-3.1-1.4-4.7-2.2-5.6c-1.6-1.7-2.6-2.1-4.5-1.7c-0.3,0.1-0.9,0.2-1.3-0.3c-0.1-0.1-0.2-0.3-0.2-0.4c-0.7-1.9,2.4-5.7,4.2-6.2
		c1.5-0.3,1,2.3,1,2.3c-1,5.3,3.1,6.9,6.3,6c0,0,0,0,0,0C63.3,22.2,65.2,24.2,65.8,26.3"/>
	<path fill="#8BC541" d="M104,14.7c2.9,1.6,4.6,3.3,3.7,3.7c-0.2,0.1-1.6,0.5-7.3-2.7c-6.8-3.8-13.3-4.8-15.6-4.2c0,0,0,0,0,0
		c-2.4,1.2,1.1,4.9,4.5,7.8c3.1,2.7,1.8,5.8-2.3,5.1c-4.1-0.7-7.5-4.8-6.6-6.9c0.6-1.3,2.6-0.9,3-2.4c0.1-0.5-0.1-1.6-1.6-2.8
		C80.2,11.1,78,10.4,77,10c-3.3-1.1-3.4-1.2-3.5-1.5c0,0,0.1-0.1,0.1-0.1c0.2,0,2.1-0.4,7.1,0.7c0.1,0,0.2,0,0.3,0.1
		C92.1,11.8,92.1,11.8,93,12c1.5,0.2,3.1-0.2,4.6,0.2C98.5,12.4,101,13.1,104,14.7"/>
	<path fill="#003B71" d="M69.1,13c1.8,1.5,1.2,3.3-1.1,3.4c-1.8,0-3-1.7-4.8-1.7c-0.9,0-1.1,0.7-1.4,1.8c0,0,0,0,0,0l0,0.1
		c0,0,0,0,0,0l0,0.2c0,0,0,0,0,0L61.6,17l0,0.1c0,0,0,0,0,0.1c0,0,0,0,0,0c0,0,0,0,0,0l0,0.1c0,0,0,0,0,0.1c0,0,0,0,0,0l0,0.1l0,0.1
		l0,0.1c0,0,0,0,0,0c0,0,0,0,0,0c0,0-0.1,0-0.1,0c0,0,0,0,0,0c0,0,0,0,0,0l0,0.1l0,0.1c0,0,0,0,0,0l0,0.1c0,0,0,0,0,0c0,0,0,0,0,0.1
		c0,0-0.1,0-0.1,0c0,0,0,0,0,0c0,0,0,0,0,0l0,0.1c0,0-0.1,0-0.1,0c0,0,0,0,0,0.1c0,0-0.1,0-0.1,0c0,0,0,0,0,0c0,0-0.1,0-0.1,0
		c0,0,0,0,0,0.1c0,0-0.1,0-0.1,0l0,0.1c0,0-0.1,0-0.1,0l0,0.1c0,0-0.1,0-0.1,0l-0.1,0.1c-0.1,0-0.2,0.1-0.3,0.1l0,0.1
		c0,0-0.1,0-0.1,0c-3.1,0.7-3.8-2.7-2.4-4.9c0.5-0.8,1-1,1.3-1.1c0.1,0,0.1,0,0.2,0c0,0,0,0,0,0c0,0,0.1,0,0.1,0l0.1,0
		c0,0,0.1,0,0.1,0l0.1,0c0,0,0,0,0.1,0l0,0c0,0,0,0,0.1,0l0,0l0,0l0,0c0,0,0,0,0,0l0,0c0,0,0,0,0,0l0,0c0,0,0,0,0.1,0l0.1,0l0.1,0.1
		l0,0l0,0l0,0l0,0c0,0,0,0,0.1,0c0,0,0,0,0,0c0,0,0,0,0,0c0,0,0,0,0,0l0,0l0,0l0,0c0,0,0,0,0,0c0,0,0,0.1,0,0.1c0,0,0,0,0,0l0,0
		c0,0,0,0,0,0l0,0l0,0l0,0c0,0,0,0,0,0c0,0,0,0,0,0l0.1,0.1c0,0,0,0,0,0c0,0,0,0,0,0l0,0c1.8,1.4,3,0.8,2.8-0.8
		c-0.1-0.7-0.1-1.1,0.7-1.4C65.3,11,67.7,11.8,69.1,13"/>
	<path fill="#003B71" d="M40.4,20.5c-3.6,3.6-4.8,4.2-5.4,4.4c-1.9,0.5-4.3,2.8-5.6,4.1c-3.4,3.4-5.2,6.5-5.9,7.5
		c0,0.1-3.6,5.9-4.8,5.8c-1.1-1.4,5.3-10.6,7.4-11.5c0,0,0,0,0.1-0.1c1.1-0.3,2.6-1.6,7.1-5.9c3.4-3.2,8.1-7.7,10.6-8.4
		c0,0,0.1,0,0.1,0C44,16.7,43.9,16.9,40.4,20.5"/>
	<path fill="#8BC541" d="M51.8,30.1c-0.4,4.7-5.1,7.3-7.1,5c-1-1.2-0.7-2.7-0.4-4.4c0-0.1,1.4-8-2.6-7.3l0,0
		c-3.7,1.2-8.4,6.1-11.1,11.6c-1.7,3.4-3.8,5.6-5,6.1c-1.8,0.7-1.7-1.6-0.5-4.1c0.6-1.2,2-3.7,4.4-6c1-0.9,1.5-1.1,1.8-1.1
		c1-0.3,2.2-0.8,5.2-3.6c2.9-2.8,5.3-6.1,8.4-8.7c0.8-0.7,2.3-1.7,3.1-2c0,0,0.1,0,0.1,0c0.1,0,0.1,0.1,0.2,0.2c0,0.5-0.4,1.2-1.6,3
		c0,0.1-0.1,0.1-0.1,0.2c-3.5,5.7-0.8,7.4,2.1,6.8C51.1,25.2,52,28,51.8,30.1"/>
	<path fill="#003B71" d="M36.2,21.3c-4.4,3.7-5.2,4.4-5.5,4.3c0-0.4,1.4-1.8,2.7-3c0.8-0.8,0.9-0.9,1-1c-0.2,0-1.5,1-2.6,1.9
		c0,0-0.1,0-0.1,0.1l-0.2,0.1h0L31.3,24h0l-0.2,0.1L31,24.2c0,0-0.1,0.1-0.1,0.1l0,0c0,0,0,0-0.1,0.1l-0.1,0.1c0,0-0.1,0.1-0.1,0.1
		h0l-0.1,0.1l-0.1,0.1l-0.1,0.1l0,0c0,0,0,0-0.1,0.1h0c0,0-0.1,0.1-0.1,0.1h0l-0.1,0.1L30.1,25c0,0,0,0,0,0L30.1,25h0
		c0,0-0.1,0.1-0.1,0.1l0,0c0,0,0,0-0.1,0.1l0,0l-0.1,0.1c0,0,0,0,0,0c0,0-0.1,0.1-0.1,0.1l0,0c0,0,0,0-0.1,0.1l0,0
		c0,0-0.1,0.1-0.1,0.1l0,0l-0.1,0.1h0l-0.1,0.1c0,0,0,0,0,0l-0.1,0.1l0,0l-0.1,0.1l0,0c1.2-1.5,7.9-7,11.3-8.8c0,0,0,0,0,0
		c0,0-0.1,0-0.1,0.1l0,0l-0.1,0.1l0,0l-0.1,0.1v0l-0.1,0.1h0l-0.1,0.1l0,0L40,17.3h0l-0.1,0.1h0c0,0-0.1,0-0.1,0.1h0l-0.1,0.1
		l-0.2,0.1l0,0l-0.1,0.1l-0.1,0.1l-0.1,0.1l0,0c0,0-0.1,0-0.1,0.1h0c0,0-0.1,0-0.1,0.1l0,0L39,18L39,18l0,0c-0.1,0-0.1,0.1-0.2,0.1
		h0l-0.1,0.1c0,0-0.1,0-0.1,0.1h0c0,0-0.1,0-0.1,0.1l-0.1,0.1h0c0,0-0.1,0-0.1,0.1l-0.2,0.1c0,0-0.1,0-0.1,0.1l0,0
		c0,0-0.1,0-0.1,0.1c-0.5,0.4-1.9,1.4-2.4,1.9c0.1,0,0.1,0,1.1-0.7c1.4-0.9,3.9-2.7,4.7-2.9c-0.1,0.2-0.1,0.2-1.2,1.1
		C39.1,18.9,37.8,19.9,36.2,21.3"/>
	<path fill="#003B71" d="M20,37.1c-1.2,1.7-2.1,3.6-3.5,5.2c0-0.2,0-0.2,0.4-0.8l0.4-0.7c3.6-5.8,3.7-5.9,5.9-8.6l1.8-2.1
		c-0.5,0.6-0.5,0.6-0.6,0.7c0,0,0,0.1-0.1,0.1c-0.1,0.1-0.1,0.2-0.7,1C22.8,33.1,21.5,34.9,20,37.1"/>
</g>
</svg>
