<?xml version="1.0" encoding="utf-8"?>
<!-- Generator: Adobe Illustrator 18.1.0, SVG Export Plug-In . SVG Version: 6.00 Build 0)  -->
<svg version="1.1" id="Layer_1" xmlns="http://www.w3.org/2000/svg" xmlns:xlink="http://www.w3.org/1999/xlink" x="0px" y="0px"
	 viewBox="0 0 150 150" enable-background="new 0 0 150 150" xml:space="preserve">
<g>
	<path fill="none" d="M78.9,128.1c0-0.3,0-0.5,0.1-0.8c0-0.8,0.1-1.6,0.1-2.4c0-0.7,0-1.4-0.1-2.1c0-0.7-0.1-1.3-0.1-2
		c0-0.2,0-0.4-0.1-0.6c0-0.5-0.1-0.9-0.2-1.4c0-0.2-0.1-0.5-0.1-0.7c-0.1-0.4-0.1-0.8-0.2-1.2c0-0.3-0.1-0.5-0.2-0.8
		c-0.1-0.4-0.2-0.8-0.2-1.1c-0.1-0.3-0.1-0.5-0.2-0.8c-0.1-0.4-0.2-0.7-0.3-1.1c-0.1-0.3-0.2-0.5-0.2-0.8c-0.1-0.4-0.2-0.7-0.3-1.1
		c-0.1-0.3-0.2-0.5-0.3-0.8c-0.1-0.3-0.2-0.7-0.4-1c-0.1-0.3-0.2-0.5-0.3-0.8c-0.1-0.3-0.3-0.7-0.4-1c-0.1-0.3-0.2-0.5-0.3-0.8
		c-0.2-0.3-0.3-0.7-0.5-1c-0.1-0.3-0.3-0.5-0.4-0.8c-0.2-0.3-0.3-0.6-0.5-1c-0.1-0.2-0.3-0.5-0.4-0.7c-0.2-0.3-0.4-0.6-0.6-0.9
		c-0.1-0.2-0.3-0.5-0.4-0.7c-0.2-0.3-0.4-0.6-0.6-0.9c-0.1-0.2-0.2-0.3-0.3-0.5c-0.1-0.1-0.1-0.1-0.2-0.2c-0.2-0.3-0.5-0.6-0.7-0.9
		c-0.2-0.2-0.3-0.4-0.5-0.6c-0.2-0.3-0.5-0.6-0.8-0.9c0-0.1-0.1-0.1-0.1-0.2c-0.1-0.1-0.2-0.3-0.3-0.4c-0.3-0.3-0.6-0.7-0.9-1
		c0,0-0.1-0.1-0.1-0.1c-0.1-0.1-0.2-0.2-0.3-0.3c0,0,0,0,0,0c0.7-0.4,1.3-0.7,2-1c0.9-0.4,1.9-0.8,2.9-1.1c0.6-0.2,1.2-0.4,1.8-0.6
		c0.6-0.2,1.2-0.3,1.8-0.5c0,0,0.1,0,0.1,0c0.5-0.1,1.1-0.2,1.6-0.3c0.7-0.1,1.5-0.3,2.2-0.3c0.5-0.1,1-0.1,1.5-0.1
		c0.9-0.1,1.8-0.1,2.7-0.1c6.8,0,13.5,2,19.1,5.7c0.1,0.1,0.2,0.1,0.3,0.2c0.7,0.5,1.4,0.9,2,1.5c0.1,0.1,0.2,0.2,0.3,0.3
		c0.2,0.2,0.5,0.4,0.7,0.6c0.3,0.3,0.6,0.5,0.9,0.8c0.1,0.1,0,0.2,0.1,0.3c3.6,3.6,7.5,9.5,9.5,15.2v-0.3v-3.2v-0.6v-2.6
		c-1-2.9-3.2-5.7-5.1-8c-0.1-0.2-0.1-0.3-0.3-0.4c-0.1-0.1-0.2-0.3-0.3-0.4c-0.2-0.3-0.5-0.6-0.7-0.8c-0.1-0.1-0.2-0.3-0.4-0.4
		c-0.4-0.5-0.9-0.9-1.3-1.3c-0.1-0.1-0.2-0.2-0.4-0.3c-0.1-0.1-0.2-0.2-0.3-0.2c-6.8-5.7-15.5-8.9-24.4-8.9c-1.1,0-2.3,0.1-3.4,0.2
		c-0.5,0-1,0.1-1.4,0.1c0,0-0.1,0-0.1,0c-0.4,0.1-0.9,0.1-1.3,0.2c-0.1,0-0.3,0-0.4,0.1c-0.6,0.1-1.2,0.2-1.8,0.4
		c-1.2,0.3-2.4,0.6-3.5,1c-1,0.3-2.1,0.7-3.1,1.2c-0.9,0.4-1.7,0.8-2.5,1.2c0,0-0.1,0-0.1,0.1c-0.3,0.2-0.7,0.4-1,0.6
		c-0.3-0.3-0.6-0.5-0.9-0.8c0,0,0,0,0,0c0.3-0.5,0.6-0.9,0.9-1.4c0.3-0.5,0.6-0.9,1-1.4c2.6-3.6,5.7-6.8,9.1-9.5
		c0.4-0.3,0.8-0.6,1.2-1c0.4-0.3,0.8-0.6,1.2-0.9c2.3-1.6,4.7-3,7.2-4.2c1-0.5,2-0.9,3-1.3c0.9-0.3,1.8-0.7,2.7-1
		c4.7-1.5,9.6-2.3,14.7-2.4l0.5,0c0.4,0,0.7,0,1.1,0c0.5,0,1.1,0,1.6,0.1c0.5,0,0.9,0.1,1.4,0.1c2.4,0.2,4.9,0.6,6.9,1.2V70v-1.4
		c-2-0.6-5.3-1-8.1-1.2c-0.5,0-1-0.1-1.5-0.1c-0.5,0-1,0-1.5,0l-0.1,0l-0.5,0c-3.8,0-7.5,0.5-11.1,1.3c3-3,6.1-5.6,8.7-7.2
		c0.4-0.3,0.9-0.5,1.3-0.7c0.4-0.2,0.9-0.4,1.3-0.6c1.1-0.5,1.9-0.7,2.7-0.7c2.9,0,5.8,3.2,8.8,8.1v-2.6v-2.4V21H34v44.7v2.5v2.3
		c8-10.5,18.1-19.6,23.1-19.6c4,0,8.4,6,12.3,14.2c-5.6,6.8-10.8,14.7-14,22c-5.9-2.9-12.4-4.5-19-4.5c-0.5,0-1.1,0-1.7,0
		c-0.2,0-0.8,0-0.8,0V84v1.5c1,0,0.7-0.1,1-0.1c0.5,0,1,0,1.4,0c5.6,0,11.2,1.2,16.3,3.5c0.5,0.2,1.1,0.5,1.6,0.8
		c0.4,0.2,0.9,0.4,1.3,0.7c0.2,0.1,0.3,0.2,0.5,0.3c0.3,0.1,0.5,0.3,0.8,0.5c0.7,0.4,1.3,0.8,2,1.2c0.9,0.6,1.8,1.3,2.7,2.1
		c0,0,0,0,0.1,0.1c0.6,0.5,1.1,1,1.7,1.5c0,0,0.1,0.1,0.1,0.1c0.1,0.1,0.3,0.3,0.4,0.4c0.3,0.3,0.6,0.6,1,1c1.2,1.3,2.3,2.6,3.4,4
		c4.6,6.2,7.3,13.7,7.7,21.5c0,0.6,0,1.3,0,1.9c0,0.8,0,1.5-0.1,2.3c0,0.3,0,0.5-0.1,0.8c0,0.5-0.1,1-0.1,1.5c0,0.3-0.1,0.8-0.1,1.2
		c0,0,0-0.7,0,0.3h1.5h1.5h0c0-1,0.1-0.8,0.1-1.1C78.8,129.4,78.8,128.6,78.9,128.1z M63.2,89.8c-0.3,0.5-0.6,0.9-0.9,1.4
		c0,0,0,0,0,0c0,0,0,0,0,0c-0.8-0.6-1.6-1.1-2.4-1.7c-0.6-0.4-1.2-0.8-1.8-1.2c2.9-6.7,7.6-14,12.8-20.4c0.3-0.4,0.7-0.8,1-1.2
		c0.3-0.4,0.7-0.8,1-1.2c7.3-8.5,15-14.8,19.4-14.8c3,0,6.2,3.2,9.3,8.1c-4,2.5-8.5,6.5-12.7,11.3c-4.2,1.5-8.2,3.5-11.8,5.9
		c-0.4,0.3-0.8,0.6-1.2,0.9c-0.4,0.3-0.8,0.6-1.2,0.9C70.2,81.2,66.4,85.2,63.2,89.8z"/>
	<path fill="none" d="M115.1,131h0.6C115.5,130,115.2,130,115.1,131z"/>
	<path fill="#583716" d="M36.5,82.5c6.6,0,13.1,1.6,19,4.5c3.2-7.3,8.4-15.2,14-22c-3.9-8.2-8.4-14.2-12.3-14.2
		c-5.1,0-15.1,9.1-23.1,19.6v12.1c0,0,0.6,0,0.8,0C35.4,82.5,36,82.5,36.5,82.5z"/>
	<path fill="#583716" d="M74.5,77.9c0.4-0.3,0.8-0.6,1.2-0.9c0.4-0.3,0.8-0.6,1.2-0.9c3.7-2.5,7.6-4.5,11.8-5.9
		c4.3-4.8,8.7-8.8,12.7-11.3c-3.1-5-6.3-8.1-9.3-8.1c-4.4,0-12.1,6.3-19.4,14.8c-0.3,0.4-0.7,0.8-1,1.2c-0.3,0.4-0.7,0.8-1,1.2
		c-5.1,6.3-9.8,13.6-12.8,20.4c0.6,0.4,1.2,0.8,1.8,1.2c0.8,0.5,1.6,1.1,2.4,1.7c0,0,0,0,0,0c0,0,0,0,0,0c0.3-0.5,0.6-0.9,0.9-1.4
		C66.4,85.2,70.2,81.2,74.5,77.9z"/>
	<path fill="#583716" d="M108.2,59.4c-0.8,0-1.7,0.3-2.8,0.7c-0.4,0.2-0.8,0.4-1.2,0.6c-0.4,0.2-0.8,0.5-1.2,0.7
		c-2.6,1.6-5.6,4.2-8.7,7.2c3.6-0.8,7.3-1.3,11.1-1.3l0.5,0l0.1,0c0.5,0,1,0,1.5,0c0.5,0,0.9,0,1.4,0.1c2.8,0.2,6.1,0.6,8.1,1.2
		v-1.2C114,62.5,111.1,59.4,108.2,59.4z"/>
	<path fill="#58AEE1" d="M115.8,131h1.6H117v-0.6v-2v-0.6v-11.6c-2-5.7-5.8-11.6-9.5-15.2c-0.1-0.1-0.1-0.2-0.2-0.3
		c-0.3-0.3-0.5-0.6-0.9-0.8c-0.2-0.2-0.5-0.4-0.7-0.6c-0.1-0.1-0.2-0.2-0.3-0.3c-0.7-0.5-1.3-1-2-1.5c-0.1-0.1-0.2-0.1-0.3-0.2
		c-5.7-3.7-12.3-5.7-19.1-5.7c-0.9,0-1.8,0-2.7,0.1c-0.5,0-1,0.1-1.5,0.1c-0.8,0.1-1.5,0.2-2.2,0.3c-0.5,0.1-1.1,0.2-1.6,0.3
		c0,0-0.1,0-0.1,0c-0.6,0.1-1.2,0.3-1.8,0.5c-0.6,0.2-1.2,0.4-1.8,0.6c-1,0.3-1.9,0.7-2.9,1.1c-0.7,0.3-1.4,0.6-2,1c0,0,0,0,0,0
		c0.1,0.1,0.2,0.2,0.3,0.3c0,0,0.1,0.1,0.1,0.1c0.3,0.3,0.6,0.7,0.9,1c0.1,0.1,0.2,0.3,0.3,0.4c0,0.1,0.1,0.1,0.1,0.2
		c0.3,0.3,0.5,0.6,0.8,0.9c0.2,0.2,0.3,0.4,0.5,0.6c0.2,0.3,0.5,0.6,0.7,0.9c0.1,0.1,0.1,0.1,0.2,0.2c0.1,0.2,0.2,0.3,0.3,0.5
		c0.2,0.3,0.4,0.6,0.6,0.9c0.1,0.2,0.3,0.5,0.4,0.7c0.2,0.3,0.4,0.6,0.6,0.9c0.1,0.2,0.3,0.5,0.4,0.7c0.2,0.3,0.4,0.6,0.5,1
		c0.1,0.2,0.3,0.5,0.4,0.8c0.2,0.3,0.3,0.7,0.5,1c0.1,0.3,0.2,0.5,0.3,0.8c0.1,0.3,0.3,0.7,0.4,1c0.1,0.3,0.2,0.5,0.3,0.8
		c0.1,0.3,0.3,0.7,0.4,1c0.1,0.3,0.2,0.5,0.3,0.8c0.1,0.4,0.2,0.7,0.3,1.1c0.1,0.3,0.2,0.5,0.2,0.8c0.1,0.4,0.2,0.7,0.3,1.1
		c0.1,0.3,0.1,0.5,0.2,0.8c0.1,0.4,0.2,0.8,0.2,1.1c0.1,0.3,0.1,0.5,0.2,0.8c0.1,0.4,0.1,0.8,0.2,1.2c0,0.2,0.1,0.5,0.1,0.7
		c0.1,0.5,0.1,0.9,0.2,1.4c0,0.2,0,0.4,0.1,0.6c0.1,0.7,0.1,1.3,0.1,2c0,0.7,0.1,1.4,0.1,2.1c0,0.8,0,1.6-0.1,2.4
		c0,0.3,0,0.5-0.1,0.8c0,0.5-0.1,1.3-0.1,1.8c0,0.3-0.1,0.1-0.1,1.1h36.5C115.2,130,115.5,130,115.8,131z"/>
	<path fill="#263233" d="M21,8v81.8v0.6V143h38.6H70h1.5h1.6h1.6h2.3h14.8H130v-40v-1.5v-4.6v-5.6V8H21z M78.6,131L78.6,131h-1.5
		h-1.5c0-1,0-0.3,0-0.3c0-0.3,0.1-0.7,0.1-1c0.1-0.5,0.1-1,0.1-1.5c0-0.3,0-0.5,0.1-0.8c0-0.8,0.1-1.5,0.1-2.3c0-0.6,0-1.3,0-1.9
		c-0.4-7.9-3.1-15.3-7.7-21.5c-1-1.4-2.1-2.7-3.4-4c-0.3-0.3-0.6-0.7-1-1c-0.2-0.1-0.3-0.3-0.4-0.4c0,0-0.1-0.1-0.1-0.1
		c-0.6-0.5-1.2-1.1-1.7-1.5c0,0,0,0-0.1-0.1c-0.9-0.7-1.8-1.4-2.7-2.1c-0.6-0.4-1.3-0.8-2-1.2c-0.3-0.2-0.5-0.3-0.8-0.5
		c-0.2-0.1-0.3-0.2-0.5-0.3c-0.4-0.2-0.9-0.5-1.3-0.7c-0.5-0.3-1-0.5-1.6-0.8c-5.1-2.3-10.6-3.5-16.3-3.5c-0.5,0-1,0-1.5,0
		c-0.3,0,0,0-1,0.1V84v-1.5V70.4v-2.3v-2.5V21h83v41.3v2.4v2.6v1.2V70v1.4c-2-0.6-4.5-1-6.9-1.2c-0.5,0-1-0.1-1.5-0.1
		c-0.5,0-1,0-1.5-0.1c-0.4,0-0.7,0-1.1,0l-0.5,0c-5.1,0.1-10,0.9-14.7,2.4c-0.9,0.3-1.8,0.6-2.7,1c-1,0.4-2,0.8-3,1.3
		c-2.5,1.2-5,2.6-7.2,4.2c-0.4,0.3-0.8,0.6-1.2,0.9c-0.4,0.3-0.8,0.6-1.2,1c-3.4,2.7-6.5,5.9-9.1,9.5c-0.3,0.4-0.6,0.9-1,1.4
		c-0.3,0.5-0.6,0.9-0.9,1.4c0,0,0,0,0,0c0.3,0.3,0.6,0.5,0.9,0.8c0.3-0.2,0.7-0.4,1-0.6c0,0,0.1,0,0.1-0.1c0.8-0.4,1.7-0.8,2.5-1.2
		c1-0.4,2-0.8,3.1-1.2c1.2-0.4,2.3-0.7,3.5-1c0.6-0.1,1.2-0.3,1.8-0.4c0.1,0,0.3,0,0.4-0.1c0.4-0.1,0.9-0.2,1.3-0.2c0,0,0.1,0,0.1,0
		c0.5-0.1,1-0.1,1.4-0.1c1.1-0.1,2.2-0.2,3.4-0.2c8.9,0,17.6,3.2,24.4,8.9c0.1,0.1,0.2,0.2,0.3,0.2c0.1,0.1,0.3,0.2,0.4,0.3
		c0.4,0.4,0.9,0.8,1.3,1.3c0.1,0.1,0.3,0.3,0.4,0.4c0.2,0.3,0.5,0.5,0.7,0.8c0.1,0.1,0.2,0.2,0.3,0.4c0.1,0.1,0,0.3,0.2,0.4
		c1.9,2.3,4.1,5.1,5.1,8v2.6v0.6v3.2v0.3v11.6v0.6v2v0.6h0.3h-1.6h-0.6H78.6z"/>
</g>
</svg>
