<?xml version="1.0" encoding="utf-8"?>
<!-- Generator: Adobe Illustrator 16.0.0, SVG Export Plug-In . SVG Version: 6.00 Build 0)  -->
<!DOCTYPE svg PUBLIC "-//W3C//DTD SVG 1.1//EN" "http://www.w3.org/Graphics/SVG/1.1/DTD/svg11.dtd">
<svg version="1.1" id="Layer_1" xmlns="http://www.w3.org/2000/svg" xmlns:xlink="http://www.w3.org/1999/xlink" x="0px" y="0px"
	 width="100px" height="100px" viewBox="0 0 100 100" enable-background="new 0 0 100 100" xml:space="preserve">
<g>
	<g>
		<g>
			<g>
				<path fill="#26A9E0" d="M50.201,90.791c5.169-0.014,10.338-1.053,15.067-3.105c4.735-2.041,9.028-5.059,12.535-8.781
					c3.515-3.717,6.211-8.145,7.973-12.865c1.751-4.723,2.483-9.803,2.268-14.715c-0.42-9.979-4.891-19.388-11.938-25.93
					c-3.501-3.289-7.598-5.894-12.013-7.639c-2.208-0.883-4.5-1.533-6.825-1.975c-2.311-0.45-4.74-0.668-7.029-0.66l-0.97,0.014
					l-0.854,0.027c-0.585,0.027-1.183,0.067-1.77,0.121c-1.18,0.11-2.354,0.277-3.519,0.503c-2.324,0.453-4.616,1.094-6.819,1.98
					c-4.417,1.75-8.511,4.355-12.01,7.641c-7.038,6.529-11.507,15.985-11.924,25.879c-0.223,4.992,0.512,10.008,2.257,14.748
					c1.762,4.723,4.458,9.15,7.967,12.869c3.507,3.723,7.8,6.74,12.533,8.781C39.864,89.738,45.03,90.777,50.201,90.791z
					 M50.201,90.791c-5.171,0.02-10.343-0.973-15.158-2.891c-4.821-1.912-9.282-4.762-13.085-8.352
					C14.301,72.424,9.466,62.078,9.051,51.326c-0.221-5.421,0.598-10.878,2.513-16.023c1.931-5.123,4.867-9.922,8.689-13.941
					c3.812-4.027,8.468-7.289,13.604-9.495c2.575-1.093,5.252-1.96,8-2.507c1.373-0.277,2.758-0.488,4.15-0.63
					c0.697-0.067,1.393-0.119,2.096-0.159l1.082-0.046l0.968-0.011c2.882,0.011,5.618,0.291,8.382,0.846
					c2.747,0.56,5.425,1.417,7.994,2.513c5.134,2.211,9.79,5.473,13.602,9.497c3.813,4.026,6.755,8.815,8.684,13.936
					c1.912,5.126,2.736,10.637,2.516,15.975c-0.409,10.832-5.241,21.117-12.891,28.26c-3.803,3.592-8.261,6.441-13.082,8.359
					C60.542,89.813,55.373,90.811,50.201,90.791z"/>
			</g>
		</g>
	</g>
	<g>
		<path fill="#F3C625" d="M49.485,31.371c-4.827-4.627-11.1-7.563-18.537-8.549c-1.072,0.663-2.112,1.374-3.103,2.141
			c8.231,0.485,15.011,3.302,20.061,8.147C48.413,32.508,48.94,31.937,49.485,31.371z"/>
		<path fill="#F3C625" d="M33.104,29.442c5.074,1.072,9.335,3.254,12.708,6.44c0.452-0.668,0.929-1.306,1.427-1.939
			c-3.671-3.399-8.263-5.761-13.637-6.893c-2.233-0.466-4.727-0.706-7.404-0.743c-0.894,0.775-1.756,1.597-2.575,2.456
			c0.242-0.005,0.49-0.011,0.727-0.016C27.582,28.672,30.528,28.909,33.104,29.442z"/>
		<path fill="#F3C625" d="M31.708,32.966c3.976,0.679,8.549,2.294,12.301,5.887c0.396-0.722,0.816-1.425,1.25-2.111
			c-3.469-3.173-7.889-5.29-13.139-6.179c-2.472-0.423-5.368-0.542-8.851-0.366c-0.342,0.016-0.654,0.03-0.983,0.046
			c-0.698,0.821-1.363,1.667-1.988,2.545c1.169-0.059,2.241-0.107,3.087-0.156C26.693,32.467,29.419,32.578,31.708,32.966z"/>
		<path fill="#F3C625" d="M30.329,36.494c3.997,0.496,8.576,1.961,12.134,5.595c0.337-0.795,0.709-1.563,1.086-2.319
			c-3.305-3.092-7.649-5.05-12.918-5.699c-2.244-0.274-4.91-0.272-8.393,0.011c-1.051,0.086-2.037,0.167-2.984,0.253
			c-0.536,0.837-1.04,1.703-1.514,2.581c1.872-0.173,3.561-0.308,4.697-0.399C25.745,36.247,28.255,36.241,30.329,36.494z"/>
		<path fill="#F3C625" d="M28.964,40.022c4.14,0.28,8.869,1.622,12.204,5.576c0.28-0.889,0.603-1.735,0.937-2.581
			c-3.156-3.194-7.528-5.058-12.977-5.435c-2.031-0.135-4.471-0.017-7.921,0.391c-1.546,0.18-2.938,0.366-4.258,0.541
			c-0.404,0.856-0.771,1.729-1.11,2.623c1.686-0.245,3.572-0.495,5.651-0.737C24.738,40.011,27.113,39.896,28.964,40.022z"/>
		<path fill="#F3C625" d="M27.617,43.541c4.436-0.014,9.53,1.217,12.484,6.06c0.231-1.056,0.512-2.085,0.803-3.087
			c-3.787-4.517-9.406-5.424-13.29-5.413c-1.918,0.005-4.353,0.258-7.453,0.765c-1.514,0.248-3.195,0.555-4.889,0.899
			c-0.283,0.87-0.533,1.756-0.749,2.653c1.824-0.396,3.83-0.784,6.034-1.145C23.525,43.788,25.834,43.545,27.617,43.541z"/>
		<path fill="#F3C625" d="M36.115,49.787c1.462,1.354,2.486,3.217,3.076,5.555c0.167-1.615,0.404-3.178,0.706-4.688
			c-0.596-1-1.298-1.889-2.131-2.654c-3.515-3.265-8.296-3.636-11.679-3.372c-3.052,0.231-7.531,1.128-11.918,2.405
			c-0.172,0.886-0.307,1.78-0.415,2.683c4.563-1.406,9.408-2.416,12.521-2.658C29.176,46.836,33.235,47.125,36.115,49.787z"/>
		<path fill="#F3C625" d="M72.563,24.974c-0.997-0.771-2.031-1.487-3.103-2.149c-16.474,2.163-27.161,13.96-29.257,32.224
			c0.717,0.248,1.509,0.463,2.381,0.645C44.519,37.186,55.356,25.968,72.563,24.974z"/>
		<path fill="#F3C625" d="M46.915,49.646c2.77-10.983,9.815-17.973,20.39-20.209c2.562-0.528,5.511-0.765,8.748-0.689
			c0.229,0.005,0.478,0.011,0.72,0.016c-0.819-0.859-1.681-1.681-2.578-2.456c-2.677,0.038-5.166,0.277-7.396,0.743
			c-11.386,2.403-19.283,10.219-22.254,22c-0.544,2.175-0.948,4.443-1.233,6.777c0.771,0.137,1.578,0.248,2.419,0.338
			C46,53.916,46.393,51.736,46.915,49.646z"/>
		<path fill="#F3C625" d="M49.657,51.855c2.758-13.409,11.873-17.667,19.032-18.89c2.292-0.391,5.015-0.499,8.317-0.334
			c0.856,0.048,1.917,0.097,3.092,0.156c-0.625-0.878-1.293-1.724-1.99-2.545c-0.326-0.016-0.639-0.03-0.98-0.046
			c-3.488-0.175-6.381-0.057-8.851,0.366c-11.176,1.891-18.645,9.287-21.012,20.798c-0.326,1.59-0.576,3.223-0.781,4.871
			c0.803,0.068,1.621,0.111,2.445,0.135C49.124,54.836,49.353,53.328,49.657,51.855z"/>
		<path fill="#F3C625" d="M52.087,56.342c0.092-0.768,0.191-1.535,0.313-2.281c2.052-12.971,10.738-16.715,17.663-17.567
			c2.074-0.253,4.585-0.247,7.895,0.021c1.134,0.092,2.825,0.227,4.692,0.399c-0.466-0.884-0.976-1.746-1.506-2.586
			c-0.948-0.081-1.934-0.162-2.989-0.253c-3.478-0.277-6.146-0.28-8.394-0.005c-10.962,1.353-17.986,8.317-19.774,19.608
			c-0.141,0.887-0.259,1.795-0.372,2.699C50.438,56.389,51.263,56.375,52.087,56.342z"/>
		<path fill="#F3C625" d="M71.431,40.022c1.848-0.126,4.229-0.011,7.472,0.378c2.082,0.242,3.965,0.492,5.651,0.737
			c-0.334-0.894-0.7-1.767-1.104-2.623c-1.325-0.175-2.712-0.361-4.261-0.541c-3.445-0.407-5.894-0.525-7.919-0.391
			C60.512,38.32,53.918,44.86,52.709,55.998c-0.008,0.1-0.019,0.203-0.029,0.309c0.846-0.049,1.681-0.113,2.483-0.209
			C56.585,43.642,64.784,40.475,71.431,40.022z"/>
		<path fill="#F3C625" d="M72.78,43.541c1.78,0.005,4.092,0.247,7.06,0.732c2.198,0.36,4.207,0.748,6.033,1.145
			c-0.215-0.897-0.469-1.783-0.748-2.653c-1.7-0.345-3.375-0.651-4.892-0.899c-3.103-0.507-5.532-0.76-7.445-0.765
			C67,41.083,57.425,43.098,55.68,56.027c0.889-0.119,1.74-0.268,2.529-0.447C59.887,45.711,66.9,43.524,72.78,43.541z"/>
		<path fill="#F3C625" d="M86.229,47.034c-4.39-1.277-8.866-2.174-11.921-2.405c-3.383-0.264-8.161,0.107-11.679,3.372
			c-1.972,1.82-3.265,4.335-3.93,7.458c1.048-0.256,1.996-0.568,2.761-0.941c0.614-1.943,1.541-3.543,2.828-4.731
			c2.874-2.661,6.933-2.95,9.831-2.729c3.116,0.242,7.956,1.252,12.521,2.658C86.536,48.814,86.396,47.919,86.229,47.034z"/>
		<path fill="#F3C625" d="M39.789,89.285c0.808,0.238,1.622,0.447,2.446,0.631V62.777c-0.852-0.174-1.665-0.389-2.446-0.625V89.285z
			"/>
		<path fill="#F3C625" d="M42.856,63.432v26.625c0.8,0.164,1.613,0.293,2.438,0.398V63.432c0-0.057,0.003-0.111,0.008-0.162
			c-0.832-0.098-1.643-0.227-2.432-0.371C42.861,63.07,42.856,63.25,42.856,63.432z"/>
		<path fill="#F3C625" d="M45.919,65.053v25.482c0.803,0.09,1.616,0.17,2.442,0.211V65.053c0-0.514,0.017-1.025,0.033-1.539
			c-0.822-0.031-1.633-0.1-2.436-0.178C45.94,63.904,45.919,64.477,45.919,65.053z"/>
		<path fill="#F3C625" d="M49.049,63.527c-0.043,1.057-0.07,2.109-0.07,3.148v24.086c0.404,0.01,0.813,0.029,1.223,0.029
			c0.404,0,0.813-0.02,1.221-0.029V66.676c0-1.039,0.029-2.092,0.072-3.15C50.678,63.553,49.862,63.553,49.049,63.527z"/>
		<path fill="#F3C625" d="M52.041,68.303v22.443c0.821-0.041,1.635-0.121,2.443-0.211V68.303c0-1.627,0.054-3.307,0.134-4.988
			c-0.811,0.088-1.626,0.152-2.448,0.189C52.098,65.115,52.041,66.73,52.041,68.303z"/>
		<path fill="#F3C625" d="M55.098,69.926v20.529c0.822-0.105,1.641-0.234,2.443-0.398V69.926l0.205-7.074
			c-0.801,0.156-1.619,0.285-2.454,0.395L55.098,69.926z"/>
		<path fill="#F3C625" d="M58.163,89.916c0.824-0.184,1.638-0.393,2.44-0.631V62.146c-0.781,0.236-1.589,0.453-2.44,0.625V89.916z"
			/>
		<path fill="#F3C625" d="M38.181,55.979c0.267,1.158,0.407,2.459,0.447,3.873c6.165,2.537,16.984,2.531,23.139-0.006
			c0.044-1.416,0.187-2.723,0.453-3.881C56.688,58.666,43.77,58.764,38.181,55.979z"/>
	</g>
</g>
</svg>
