<?xml version="1.0" encoding="utf-8"?>
<!-- Generator: Adobe Illustrator 18.1.0, SVG Export Plug-In . SVG Version: 6.00 Build 0)  -->
<svg version="1.1" id="Layer_1" xmlns="http://www.w3.org/2000/svg" xmlns:xlink="http://www.w3.org/1999/xlink" x="0px" y="0px"
	 viewBox="0 0 150 150" enable-background="new 0 0 150 150" xml:space="preserve">
<g>
	<path fill="#FFC600" d="M96.5,70.1c0.8,1.3,3.2,5.9,0.5,9.8c-3,4.2-4.6,5.5-1.5,9.3c3.1,3.8,4.6,6.5,2.9,11.6
		c6.8-0.4,12.9,0.1,18.2,1.1l0.6-0.5l-3.7-4.7l3.7-4.7l-4.6-3.8l2.6-5.3l-5.2-2.8l1.4-5.8l-5.7-1.6l0.2-5.9l-0.8-0.1
		c-0.6,5.1-4.8,4.1-4.8,4.1c-0.5-2.3,0.3-3.6,1.5-4.4l-1.8-0.1l-1-5.8l-4.3,0.6C100.2,65.3,97,69.4,96.5,70.1z M106.3,79.2
		c-5.1,6.8-9.3,1.9-9.3,1.9C99.8,74.7,106.3,79.2,106.3,79.2z"/>
	<path fill="#FFC600" d="M36,92.4c-2.8-4.5-4.8-4.5-0.7-9.7c3.4-4.3,2.4-7.9,1.9-9c0,0,0,0,0,0c-0.2-0.1-0.5-0.2-0.7-0.3l-2.6,0.7
		l1.4,5.8l-0.8,0.4c0.1,0.5,0.1,0.8,0.1,0.8c-0.5,0-1,0-1.4-0.1l-3.1,1.6l2.6,5.3L30.5,90c3.1-0.7,4.3,3.2,4.3,3.2
		c-4.2,1.1-5.2-1.2-5.5-2.3l-1.2,1l3.7,4.7l-3.7,4.7l1.3,1.1c2-0.7,4-1.3,6.3-1.9C36.5,99.2,38.2,95.9,36,92.4z"/>
	<path fill="#FFC600" d="M37.7,82.1c-2.5,3.6-3.9,4.7-1.3,7.9c2.6,3.2,3.9,5.5,2.5,9.8c7.3-1.6,16-2.4,25.8-1.7c1.7-3,3.9-8.8,0-15
		c-5.4-8.8-9.5-8.8-1.4-19c2.4-3,3.7-5.9,4.3-8.4l-4.3-2.7l-2.4,3.6c0.9,2.4,1,4.5,1,4.5c-4.2,0.1-6.9-0.7-8.8-2l-0.9,2.2l-5.9-0.8
		l-1,5.8l-5.9,0.4l0.2,5.9l-2,0.6c-0.2,0.2-0.3,0.4-0.4,0.5C37.9,74.8,40,78.8,37.7,82.1z M62.3,84.6c-10.6,2.8-10.9-5.4-10.9-5.4
		C59.4,74.9,62.3,84.6,62.3,84.6z M44.7,69.7c-0.1,5.6-4.1,4.6-4.1,4.6C39.5,69.9,44.7,69.7,44.7,69.7z M45.7,81.5
		c-4.4,5.8-8,1.6-8,1.6C40.1,77.6,45.7,81.5,45.7,81.5z"/>
	<path fill="#FFC600" d="M67.9,62.7c-5,7.1-7.7,9.2-2.5,15.6c5.4,6.6,7.9,11.1,4.5,20.3c5.5,0.7,11.2,1.9,17.3,3.7
		c2.7-0.5,5.3-0.9,7.8-1.2c1-1.7,2.4-5.3,0.1-9.1c-3.2-5.3-5.7-5.3-0.8-11.3c4-5,2.8-9.2,2.2-10.5c0,0,0,0.1,0,0.1
		c-6.1-1.9-4.4-7.4-3.5-9.4l-2-5l-5.6,2l-3.3-4.9l-5,3.2l-4.3-4.1l-2.7,2.6C70.1,57.2,69.7,60.1,67.9,62.7z M93.6,92.9
		c-6.3,1.7-6.5-3.2-6.5-3.2C91.9,87.1,93.6,92.9,93.6,92.9z M86.1,72.7c6.8-1.9,7.3,6.1,7.3,6.1C84.8,79.1,86.1,72.7,86.1,72.7z
		 M83.7,61.7C75,73.2,68,64.9,68,64.9C72.6,54,83.7,61.7,83.7,61.7z"/>
	<path fill="#387167" d="M75.7,111.1L62.3,111c8.9-4.5,17.2-7.3,24.9-8.8c-6.1-1.8-11.8-3-17.3-3.7c3.4-9.2,0.9-13.7-4.5-20.3
		c-5.2-6.4-2.4-8.5,2.5-15.6c1.9-2.7,2.3-5.5,2-8.1c-0.3-3.8-2-7-2.8-8.3c1-1.2,7.1-9.2-5.5-16.8c0,0-7.2,13.1,5.4,16.9
		c0,0,0,0,0.1-0.1c0.6,1.4,1.6,4.8,0.6,9.2c-0.6,2.5-1.9,5.4-4.3,8.4c-8.2,10.2-4.1,10.2,1.4,19c3.8,6.2,1.6,12,0,15
		c-9.8-0.7-18.4,0.2-25.8,1.7c1.4-4.3,0.2-6.6-2.5-9.8c-2.6-3.2-1.2-4.3,1.3-7.9c2.3-3.3,0.3-7.2-0.4-8.4c0.1-0.1,0.2-0.3,0.4-0.5
		c0.9-1.3,2.3-4.8-3.2-8c0,0-3.4,6.1,2.1,8.4c0.2,0.1,0.4,0.2,0.7,0.3c0,0,0,0,0,0c0.5,1.1,1.5,4.7-1.9,9c-4.1,5.2-2.1,5.2,0.7,9.7
		c2.2,3.5,0.5,6.8-0.3,8.1c-2.2,0.6-4.3,1.2-6.3,1.9c-11.9,4-18.5,9.2-18.5,9.2L75.7,111.1z"/>
	<path fill="#6CAB36" d="M98.3,100.7c1.8-5.1,0.3-7.8-2.9-11.6c-3.1-3.8-1.4-5,1.5-9.3c2.7-3.9,0.3-8.5-0.5-9.8c0,0,0,0,0,0
		c0.5,1.3,1.8,5.5-2.2,10.5c-4.9,6.1-2.4,6.1,0.8,11.3c2.3,3.8,0.9,7.3-0.1,9.1c-2.5,0.3-5.1,0.7-7.8,1.2c-7.6,1.6-16,4.3-24.9,8.8
		l13.5,0.1l64.7,0.5c0,0-8.7-6.9-24-9.8C111.2,100.8,105.1,100.3,98.3,100.7z"/>
	<path fill="#387167" d="M81.6,38.5c0,0-10.2,0.2-8.2,9C73.5,47.5,81.5,49.4,81.6,38.5z"/>
	<path fill="#6CAB36" d="M62.3,84.6c0,0-3-9.8-10.9-5.4C51.4,79.2,51.8,87.4,62.3,84.6z"/>
	<path fill="#6CAB36" d="M83.7,61.7c0,0-11-7.7-15.7,3.2C68,64.9,75,73.2,83.7,61.7z"/>
	<path fill="#6CAB36" d="M61.9,61c0,0-0.1-2.1-1-4.5c-1.3-3.6-4.4-7.7-11.2-5.8c0,0-1.1,5.4,3.5,8.3C55,60.3,57.8,61.1,61.9,61z"/>
	<path fill="#387167" d="M44.7,69.7c0,0-5.2,0.1-4.1,4.6C40.5,74.3,44.6,75.3,44.7,69.7z"/>
	<path fill="#6CAB36" d="M34.9,93.2c0,0-1.2-4-4.3-3.2c-0.4,0.1-0.8,0.2-1.2,0.5c0,0,0,0.2,0.1,0.5C29.6,92,30.6,94.3,34.9,93.2z"/>
	<path fill="#6CAB36" d="M45.7,81.5c0,0-5.6-3.9-8,1.6C37.7,83.2,41.3,87.4,45.7,81.5z"/>
	<path fill="#6CAB36" d="M34.6,80.5c-0.3-1.7-1.5-5.7-6.1-4.5c0,0-0.9,4.7,4.8,5.2c0.4,0,0.9,0.1,1.4,0.1
		C34.7,81.2,34.6,80.9,34.6,80.5z"/>
	<path fill="#387167" d="M96.4,70.2C96.4,70.2,96.4,70.1,96.4,70.2C96.4,70.1,96.5,70.1,96.4,70.2c0.6-0.7,3.8-4.9-1.7-9.1
		c-0.4-0.3-0.9-0.7-1.5-1c0,0-0.1,0.3-0.3,0.7C92,62.8,90.3,68.3,96.4,70.2z"/>
	<path fill="#387167" d="M100.3,70.8c0,0,4.1,1,4.8-4.1c0-0.4,0.1-0.8,0.1-1.2c0,0-1.9,0-3.4,1C100.6,67.2,99.7,68.5,100.3,70.8z"/>
	<path fill="#6CAB36" d="M87.2,89.7c0,0,0.2,4.9,6.5,3.2C93.6,92.9,91.9,87.1,87.2,89.7z"/>
	<path fill="#6CAB36" d="M106.3,79.2c0,0-6.6-4.6-9.3,1.9C97,81.2,101.2,86.1,106.3,79.2z"/>
	<path fill="#6CAB36" d="M93.4,78.9c0,0-0.5-8-7.3-6.1C86.1,72.7,84.8,79.1,93.4,78.9z"/>
</g>
</svg>
