<?xml version="1.0" encoding="utf-8"?>
<!-- Generator: Adobe Illustrator 16.0.0, SVG Export Plug-In . SVG Version: 6.00 Build 0)  -->
<!DOCTYPE svg PUBLIC "-//W3C//DTD SVG 1.1//EN" "http://www.w3.org/Graphics/SVG/1.1/DTD/svg11.dtd">
<svg version="1.1" id="Layer_1" xmlns="http://www.w3.org/2000/svg" xmlns:xlink="http://www.w3.org/1999/xlink" x="0px" y="0px"
	 width="100px" height="100px" viewBox="0 0 100 100" enable-background="new 0 0 100 100" xml:space="preserve">
<g>
	<path fill="#8BC53F" d="M9.157,57.844c0,0,8.761-5.423,21.301-6.103c12.539-0.677,19.488,5.085,19.488,5.085
		s-5.289,3.051-8.46,6.779c-3.175,3.729-0.803,5.233,4.529,7.456c5.29,2.201,7.705,4.915,4.534,10.677
		c-3.171,5.764-6.647,8.304-6.647,8.304s-10.966,0.235-22.391-9.401C10.454,71.316,9.157,57.844,9.157,57.844z"/>
	<path fill="#8BC53F" d="M85.14,54.454c0,0-4.833-4.068-14.652-3.901c-9.394,0.168-17.068,6.103-17.068,6.103
		s-6.346,5.933-5.893,8.137c0.61,2.972,5.893,2.03,11.33,5.928c6.6,4.737,2.114,16.44,2.114,16.44S83.431,81.161,85.14,54.454z"/>
	<path fill="#005995" d="M50.244,57.418c0,0-6.001,3.561-8.042,6.23c-2.042,2.669-1.134,4.573,2.379,6.099
		c3.774,1.643,7.415,2.637,8.042,6.992c0.796,5.463-7.25,13.346-7.25,13.346s3.4,0,7.929-0.635c4.534-0.637,6.8-2.29,6.8-2.29
		s3.604-9.724,0.113-14.107c-2.83-3.56-7.251-3.942-11.668-5.972c-2.346-1.082-2.495-2.034-1.021-4.577
		c1.471-2.543,4.192-4.958,4.192-4.958L50.244,57.418z"/>
	<radialGradient id="SVGID_1_" cx="50.1353" cy="19.627" r="37.7789" gradientUnits="userSpaceOnUse">
		<stop  offset="0" style="stop-color:#FFDD15"/>
		<stop  offset="0.4727" style="stop-color:#F6921E"/>
		<stop  offset="1" style="stop-color:#F05A28"/>
	</radialGradient>
	<path fill="url(#SVGID_1_)" d="M80.037,27.868L63.241,40.513c1.176,1.169,2.346,2.343,3.52,3.905L80.037,27.868z"/>
	<radialGradient id="SVGID_2_" cx="50.1372" cy="19.627" r="37.7766" gradientUnits="userSpaceOnUse">
		<stop  offset="0" style="stop-color:#FFDD15"/>
		<stop  offset="0.4727" style="stop-color:#F6921E"/>
		<stop  offset="1" style="stop-color:#F05A28"/>
	</radialGradient>
	<path fill="url(#SVGID_2_)" d="M62.852,24.901l-7.82,10.926c1.954,0.392,3.52,1.173,4.693,1.954L62.852,24.901z"/>
	<radialGradient id="SVGID_3_" cx="50.1382" cy="19.627" r="37.778" gradientUnits="userSpaceOnUse">
		<stop  offset="0" style="stop-color:#FFDD15"/>
		<stop  offset="0.4727" style="stop-color:#F6921E"/>
		<stop  offset="1" style="stop-color:#F05A28"/>
	</radialGradient>
	<path fill="url(#SVGID_3_)" d="M51.337,55.146l0.236,0.194l0.058,0.009c0.099-0.095,0.193-0.19,0.295-0.287l0.155-0.132
		c0.299-0.229,6.575-5.016,14.92-6.266c-3.128-7.138-10.229-12.053-18.617-12.053c-8.758,0-16.113,5.358-19.005,13.012
		c0.316-0.022,0.636-0.044,0.959-0.063c0.719-0.039,1.445-0.058,2.154-0.058C44.396,49.503,51.058,54.916,51.337,55.146z"/>
	<radialGradient id="SVGID_4_" cx="50.1426" cy="19.6294" r="37.7759" gradientUnits="userSpaceOnUse">
		<stop  offset="0" style="stop-color:#FFDD15"/>
		<stop  offset="0.4727" style="stop-color:#F6921E"/>
		<stop  offset="1" style="stop-color:#F05A28"/>
	</radialGradient>
	<path fill="url(#SVGID_4_)" d="M27.283,49.823c0.21-0.65,0.461-1.271,0.773-1.893l-13.295-1.562l7.545,4.268
		C23.869,50.306,25.532,50.023,27.283,49.823z"/>
	<radialGradient id="SVGID_5_" cx="50.1348" cy="19.625" r="37.7784" gradientUnits="userSpaceOnUse">
		<stop  offset="0" style="stop-color:#FFDD15"/>
		<stop  offset="0.4727" style="stop-color:#F6921E"/>
		<stop  offset="1" style="stop-color:#F05A28"/>
	</radialGradient>
	<path fill="url(#SVGID_5_)" d="M33.527,40.513l-16.23-11.917l12.714,15.821C31.184,42.856,32.354,41.683,33.527,40.513z"/>
	<radialGradient id="SVGID_6_" cx="50.1333" cy="19.627" r="37.7741" gradientUnits="userSpaceOnUse">
		<stop  offset="0" style="stop-color:#FFDD15"/>
		<stop  offset="0.4727" style="stop-color:#F6921E"/>
		<stop  offset="1" style="stop-color:#F05A28"/>
	</radialGradient>
	<path fill="url(#SVGID_6_)" d="M41.736,35.827l-7.817-10.926l3.128,12.88C38.22,37,39.782,36.219,41.736,35.827z"/>
	<radialGradient id="SVGID_7_" cx="50.1387" cy="19.6265" r="37.774" gradientUnits="userSpaceOnUse">
		<stop  offset="0" style="stop-color:#FFDD15"/>
		<stop  offset="0.4727" style="stop-color:#F6921E"/>
		<stop  offset="1" style="stop-color:#F05A28"/>
	</radialGradient>
	<polyline fill="url(#SVGID_7_)" points="45.649,34.657 51.123,34.657 48.384,8.778 	"/>
	<g>
		<g>
			<path fill="#005995" d="M85.334,50.55c0.322,5.15-0.415,10.398-2.098,15.358c-1.702,4.95-4.366,9.614-7.879,13.581
				c-3.472,3.999-7.827,7.25-12.654,9.524c-4.846,2.26-10.186,3.429-15.554,3.446c-5.333-0.014-10.698-1.19-15.536-3.443
				c-4.828-2.277-9.186-5.524-12.663-9.52c-1.739-1.995-3.305-4.142-4.617-6.423c-1.307-2.288-2.405-4.686-3.258-7.163
				C9.393,60.948,8.655,55.7,8.982,50.55c0.32,5.143,1.435,10.193,3.43,14.854c1.958,4.664,4.762,8.936,8.213,12.554
				c6.887,7.25,16.604,11.686,26.542,11.595c4.926,0.035,9.874-1.032,14.399-3.041c4.552-1.979,8.652-4.954,12.126-8.547
				c3.455-3.621,6.259-7.894,8.217-12.561C83.897,60.743,85.014,55.696,85.334,50.55z"/>
		</g>
	</g>
</g>
</svg>
