<?xml version="1.0" encoding="utf-8"?>
<!-- Generator: Adobe Illustrator 18.1.0, SVG Export Plug-In . SVG Version: 6.00 Build 0)  -->
<svg version="1.1" id="Layer_1" xmlns="http://www.w3.org/2000/svg" xmlns:xlink="http://www.w3.org/1999/xlink" x="0px" y="0px"
	 viewBox="0 0 150 150" enable-background="new 0 0 150 150" xml:space="preserve">
<g>
	<rect x="23.7" y="3.3" fill="#FDD3A5" width="16.9" height="25.2"/>
	<rect x="44.6" y="3.3" fill="#B77C45" width="16.9" height="25.2"/>
	<rect x="66.3" y="3.3" fill="#F89A31" width="16.9" height="25.2"/>
	<rect x="88" y="3.3" fill="#B77C45" width="16.9" height="25.2"/>
	<rect x="109.7" y="3.3" fill="#C6956A" width="16.9" height="25.2"/>
	<rect x="44.6" y="62.4" fill="#B77C45" width="16.9" height="25.2"/>
	<rect x="66.3" y="62.4" fill="#F89A31" width="16.9" height="25.2"/>
	<rect x="88" y="62.4" fill="#FDD3A5" width="16.9" height="25.2"/>
	<rect x="44.6" y="121.5" fill="#F89A31" width="16.9" height="25.2"/>
	<rect x="66.3" y="121.5" fill="#B77C45" width="16.9" height="25.2"/>
	<rect x="88" y="121.5" fill="#C6956A" width="16.9" height="25.2"/>
	<rect x="109.7" y="121.5" fill="#B77C45" width="16.9" height="25.2"/>
	<rect x="23.7" y="32.9" fill="#C6956A" width="16.9" height="25.2"/>
	<rect x="23.7" y="62.4" fill="#FDD3A5" width="16.9" height="25.2"/>
	<rect x="23.7" y="92" fill="#B77C45" width="16.9" height="25.2"/>
	<rect x="23.7" y="121.5" fill="#C6956A" width="16.9" height="25.2"/>
</g>
</svg>
