<?xml version="1.0" encoding="utf-8"?>
<!-- Generator: Adobe Illustrator 16.0.0, SVG Export Plug-In . SVG Version: 6.00 Build 0)  -->
<!DOCTYPE svg PUBLIC "-//W3C//DTD SVG 1.1//EN" "http://www.w3.org/Graphics/SVG/1.1/DTD/svg11.dtd">
<svg version="1.1" id="Layer_1" xmlns="http://www.w3.org/2000/svg" xmlns:xlink="http://www.w3.org/1999/xlink" x="0px" y="0px"
	 width="100px" height="100px" viewBox="0 0 100 100" enable-background="new 0 0 100 100" xml:space="preserve">
<g>
	<g>
		<g>
			<radialGradient id="SVGID_1_" cx="28.54" cy="75.9814" r="4.8335" gradientUnits="userSpaceOnUse">
				<stop  offset="0" style="stop-color:#9C7DB8"/>
				<stop  offset="0.2234" style="stop-color:#9172B2"/>
				<stop  offset="0.4247" style="stop-color:#8364AA"/>
				<stop  offset="0.7957" style="stop-color:#603C96"/>
				<stop  offset="1" style="stop-color:#29154A"/>
			</radialGradient>
			<path fill="url(#SVGID_1_)" d="M34.946,74.105c0,0-3.351-1.073-6.732,2.381c-2.994,3.055-5.959,2.015-6.08-0.462
				c0,0,1.665,1.999,5.872-0.913C31.194,72.899,34.634,73.624,34.946,74.105z"/>
			<radialGradient id="SVGID_2_" cx="25.165" cy="45.4316" r="24.0446" gradientUnits="userSpaceOnUse">
				<stop  offset="0" style="stop-color:#9C7DB8"/>
				<stop  offset="0.2234" style="stop-color:#9172B2"/>
				<stop  offset="0.4247" style="stop-color:#8364AA"/>
				<stop  offset="0.7957" style="stop-color:#603C96"/>
				<stop  offset="1" style="stop-color:#29154A"/>
			</radialGradient>
			<path fill="url(#SVGID_2_)" d="M45.188,72.857c0,0-19.226-0.874-29.727-12.471C0.023,43.335,12.734,18.103,29.143,17.975
				c0,0-20.015-1.574-23.508,19.022c-2.682,15.827,6.295,23.379,9.684,25.997C23.488,69.308,35.444,73.463,45.188,72.857z"/>
			<radialGradient id="SVGID_3_" cx="35.2549" cy="79.7529" r="8.3567" gradientUnits="userSpaceOnUse">
				<stop  offset="0" style="stop-color:#9C7DB8"/>
				<stop  offset="0.2234" style="stop-color:#9172B2"/>
				<stop  offset="0.4247" style="stop-color:#8364AA"/>
				<stop  offset="0.7957" style="stop-color:#603C96"/>
				<stop  offset="1" style="stop-color:#29154A"/>
			</radialGradient>
			<path fill="url(#SVGID_3_)" d="M44.866,72.876c0,0-23.312,0.937-18.592,13.754C26.274,86.63,23.917,76.723,44.866,72.876z"/>
			<radialGradient id="SVGID_4_" cx="37.9844" cy="79.5" r="4.5569" gradientUnits="userSpaceOnUse">
				<stop  offset="0" style="stop-color:#9C7DB8"/>
				<stop  offset="0.2234" style="stop-color:#9172B2"/>
				<stop  offset="0.4247" style="stop-color:#8364AA"/>
				<stop  offset="0.7957" style="stop-color:#603C96"/>
				<stop  offset="1" style="stop-color:#29154A"/>
			</radialGradient>
			<path fill="url(#SVGID_4_)" d="M38.292,74.508c0,0-4.972-0.025-4.327,5.878c0.253,2.307,2.037,4.188,4.483,4.103
				c5.539-0.194,4.527-8.554-1.792-6.574c0,0,3.01-0.652,3.842,2.104c0.676,2.24-1.625,2.713-1.625,2.713s-3.256,0.68-3.755-2.222
				C34.301,75.835,38.292,74.508,38.292,74.508z"/>
			<radialGradient id="SVGID_5_" cx="34.7139" cy="82.1582" r="2.3311" gradientUnits="userSpaceOnUse">
				<stop  offset="0" style="stop-color:#9C7DB8"/>
				<stop  offset="0.2234" style="stop-color:#9172B2"/>
				<stop  offset="0.4247" style="stop-color:#8364AA"/>
				<stop  offset="0.7957" style="stop-color:#603C96"/>
				<stop  offset="1" style="stop-color:#29154A"/>
			</radialGradient>
			<path fill="url(#SVGID_5_)" d="M36.633,84.814c-3.61-1.035-3.306-5.336-3.306-5.336s-1.181,1.887-0.023,3.757
				C34.495,85.164,36.633,84.814,36.633,84.814z"/>
			<radialGradient id="SVGID_6_" cx="30.1138" cy="61.3223" r="15.709" gradientUnits="userSpaceOnUse">
				<stop  offset="0" style="stop-color:#9C7DB8"/>
				<stop  offset="0.2234" style="stop-color:#9172B2"/>
				<stop  offset="0.4247" style="stop-color:#8364AA"/>
				<stop  offset="0.7957" style="stop-color:#603C96"/>
				<stop  offset="1" style="stop-color:#29154A"/>
			</radialGradient>
			<path fill="url(#SVGID_6_)" d="M50.14,70.921c0,0-31.239-1.017-40.053-19.217c0,0,1.768,11.063,19.502,16.021
				C42.664,71.378,50.14,70.921,50.14,70.921z"/>
			<radialGradient id="SVGID_7_" cx="42.6396" cy="77.5371" r="5.0947" gradientUnits="userSpaceOnUse">
				<stop  offset="0" style="stop-color:#9C7DB8"/>
				<stop  offset="0.2234" style="stop-color:#9172B2"/>
				<stop  offset="0.4247" style="stop-color:#8364AA"/>
				<stop  offset="0.7957" style="stop-color:#603C96"/>
				<stop  offset="1" style="stop-color:#29154A"/>
			</radialGradient>
			<path fill="url(#SVGID_7_)" d="M46.236,73.393c0,0-5.747,0.032-9.49,2.717c0,0,8.829-0.592,11.787,5.572
				c0,0-0.803-5.838-7.401-6.446C41.132,75.235,42.149,74.455,46.236,73.393z"/>
			<radialGradient id="SVGID_8_" cx="22.7861" cy="25.0205" r="6.7525" gradientUnits="userSpaceOnUse">
				<stop  offset="0" style="stop-color:#9C7DB8"/>
				<stop  offset="0.2234" style="stop-color:#9172B2"/>
				<stop  offset="0.4247" style="stop-color:#8364AA"/>
				<stop  offset="0.7957" style="stop-color:#603C96"/>
				<stop  offset="1" style="stop-color:#29154A"/>
			</radialGradient>
			<path fill="url(#SVGID_8_)" d="M14.473,25.466c0,0,7.29-8.899,14.506-3.29c4.927,3.828,0.61,10.69-6.222,5.912
				c0,0,4.981,3.048,6.409-0.543C31.009,22.908,22.23,18.551,14.473,25.466z"/>
			<radialGradient id="SVGID_9_" cx="25.3438" cy="25.8501" r="3.0124" gradientUnits="userSpaceOnUse">
				<stop  offset="0" style="stop-color:#9C7DB8"/>
				<stop  offset="0.2234" style="stop-color:#9172B2"/>
				<stop  offset="0.4247" style="stop-color:#8364AA"/>
				<stop  offset="0.7957" style="stop-color:#603C96"/>
				<stop  offset="1" style="stop-color:#29154A"/>
			</radialGradient>
			<path fill="url(#SVGID_9_)" d="M22.424,22.748c0,0,4.993-0.08,5.751,3.224c0.669,2.906-2.623,3.837-5.408,2.127
				c0,0,4.636,2.226,4.667-1.508C27.455,22.979,22.424,22.748,22.424,22.748z"/>
			<radialGradient id="SVGID_10_" cx="25.2446" cy="70.4629" r="4.8396" gradientUnits="userSpaceOnUse">
				<stop  offset="0" style="stop-color:#9C7DB8"/>
				<stop  offset="0.2234" style="stop-color:#9172B2"/>
				<stop  offset="0.4247" style="stop-color:#8364AA"/>
				<stop  offset="0.7957" style="stop-color:#603C96"/>
				<stop  offset="1" style="stop-color:#29154A"/>
			</radialGradient>
			<path fill="url(#SVGID_10_)" d="M31.64,72.417c0,0-3.367,1.031-6.704-2.46c-2.958-3.097-5.938-2.096-6.087,0.377
				c0,0,1.695-1.97,5.855,0.993C27.872,73.576,31.321,72.895,31.64,72.417z"/>
			<radialGradient id="SVGID_11_" cx="23.0449" cy="73.4121" r="4.6972" gradientUnits="userSpaceOnUse">
				<stop  offset="0" style="stop-color:#9C7DB8"/>
				<stop  offset="0.2234" style="stop-color:#9172B2"/>
				<stop  offset="0.4247" style="stop-color:#8364AA"/>
				<stop  offset="0.7957" style="stop-color:#603C96"/>
				<stop  offset="1" style="stop-color:#29154A"/>
			</radialGradient>
			<path fill="url(#SVGID_11_)" d="M29.514,73.345c0,0-2.942,1.928-7.127-0.491c-3.701-2.137-6.288-0.345-5.737,2.069
				c0,0,1.077-2.368,5.91-0.69C26.222,75.509,29.344,73.893,29.514,73.345z"/>
		</g>
		<radialGradient id="SVGID_12_" cx="50.3652" cy="69.9492" r="16.419" gradientUnits="userSpaceOnUse">
			<stop  offset="0" style="stop-color:#9C7DB8"/>
			<stop  offset="0.2234" style="stop-color:#9172B2"/>
			<stop  offset="0.4247" style="stop-color:#8364AA"/>
			<stop  offset="0.7957" style="stop-color:#603C96"/>
			<stop  offset="1" style="stop-color:#29154A"/>
		</radialGradient>
		<path fill="url(#SVGID_12_)" d="M50.234,72.192c0,0-6.555-0.044-12.604-1.216c-3.114-0.487-7.604-1.46-10.375-3.271
			c0,0,4.296,1.711,10.375,2.609c0,0,5.809,1.03,12.604,1.134h0.255c6.792-0.104,12.6-1.134,12.6-1.134
			c6.082-0.898,10.387-2.609,10.387-2.609c-2.773,1.811-7.264,2.783-10.387,3.271c-6.145,1.2-12.6,1.216-12.6,1.216H50.234z"/>
		<g>
			<radialGradient id="SVGID_13_" cx="72.1895" cy="75.9814" r="4.8338" gradientUnits="userSpaceOnUse">
				<stop  offset="0" style="stop-color:#9C7DB8"/>
				<stop  offset="0.2234" style="stop-color:#9172B2"/>
				<stop  offset="0.4247" style="stop-color:#8364AA"/>
				<stop  offset="0.7957" style="stop-color:#603C96"/>
				<stop  offset="1" style="stop-color:#29154A"/>
			</radialGradient>
			<path fill="url(#SVGID_13_)" d="M65.783,74.105c0,0,3.346-1.073,6.725,2.381c2.996,3.055,5.969,2.015,6.088-0.462
				c0,0-1.673,1.999-5.875-0.913C69.526,72.899,66.086,73.624,65.783,74.105z"/>
			<radialGradient id="SVGID_14_" cx="75.5586" cy="45.4316" r="24.0446" gradientUnits="userSpaceOnUse">
				<stop  offset="0" style="stop-color:#9C7DB8"/>
				<stop  offset="0.2234" style="stop-color:#9172B2"/>
				<stop  offset="0.4247" style="stop-color:#8364AA"/>
				<stop  offset="0.7957" style="stop-color:#603C96"/>
				<stop  offset="1" style="stop-color:#29154A"/>
			</radialGradient>
			<path fill="url(#SVGID_14_)" d="M55.537,72.857c0,0,19.23-0.874,29.726-12.471c15.445-17.052,2.729-42.284-13.686-42.412
				c0,0,20.02-1.574,23.508,19.022c2.692,15.827-6.286,23.379-9.675,25.997C77.234,69.308,65.277,73.463,55.537,72.857z"/>
			<radialGradient id="SVGID_15_" cx="65.4688" cy="79.7529" r="8.3584" gradientUnits="userSpaceOnUse">
				<stop  offset="0" style="stop-color:#9C7DB8"/>
				<stop  offset="0.2234" style="stop-color:#9172B2"/>
				<stop  offset="0.4247" style="stop-color:#8364AA"/>
				<stop  offset="0.7957" style="stop-color:#603C96"/>
				<stop  offset="1" style="stop-color:#29154A"/>
			</radialGradient>
			<path fill="url(#SVGID_15_)" d="M55.854,72.876c0,0,23.323,0.937,18.598,13.754C74.451,86.63,76.813,76.723,55.854,72.876z"/>
			<radialGradient id="SVGID_16_" cx="62.7393" cy="79.5" r="4.5563" gradientUnits="userSpaceOnUse">
				<stop  offset="0" style="stop-color:#9C7DB8"/>
				<stop  offset="0.2234" style="stop-color:#9172B2"/>
				<stop  offset="0.4247" style="stop-color:#8364AA"/>
				<stop  offset="0.7957" style="stop-color:#603C96"/>
				<stop  offset="1" style="stop-color:#29154A"/>
			</radialGradient>
			<path fill="url(#SVGID_16_)" d="M62.428,74.508c0,0,4.972-0.025,4.329,5.878c-0.256,2.307-2.032,4.188-4.48,4.103
				c-5.539-0.194-4.527-8.554,1.796-6.574c0,0-3.015-0.652-3.842,2.104c-0.677,2.24,1.63,2.713,1.63,2.713s3.247,0.68,3.753-2.222
				C66.421,75.835,62.428,74.508,62.428,74.508z"/>
			<radialGradient id="SVGID_17_" cx="66.0098" cy="82.1582" r="2.3307" gradientUnits="userSpaceOnUse">
				<stop  offset="0" style="stop-color:#9C7DB8"/>
				<stop  offset="0.2234" style="stop-color:#9172B2"/>
				<stop  offset="0.4247" style="stop-color:#8364AA"/>
				<stop  offset="0.7957" style="stop-color:#603C96"/>
				<stop  offset="1" style="stop-color:#29154A"/>
			</radialGradient>
			<path fill="url(#SVGID_17_)" d="M64.092,84.814c3.614-1.035,3.308-5.336,3.308-5.336s1.177,1.887,0.019,3.757
				C66.227,85.164,64.092,84.814,64.092,84.814z"/>
			<radialGradient id="SVGID_18_" cx="70.6084" cy="61.3223" r="15.7078" gradientUnits="userSpaceOnUse">
				<stop  offset="0" style="stop-color:#9C7DB8"/>
				<stop  offset="0.2234" style="stop-color:#9172B2"/>
				<stop  offset="0.4247" style="stop-color:#8364AA"/>
				<stop  offset="0.7957" style="stop-color:#603C96"/>
				<stop  offset="1" style="stop-color:#29154A"/>
			</radialGradient>
			<path fill="url(#SVGID_18_)" d="M50.584,70.921c0,0,31.238-1.017,40.049-19.217c0,0-1.758,11.063-19.5,16.021
				C58.062,71.378,50.584,70.921,50.584,70.921z"/>
			<radialGradient id="SVGID_19_" cx="58.0889" cy="77.5371" r="5.0975" gradientUnits="userSpaceOnUse">
				<stop  offset="0" style="stop-color:#9C7DB8"/>
				<stop  offset="0.2234" style="stop-color:#9172B2"/>
				<stop  offset="0.4247" style="stop-color:#8364AA"/>
				<stop  offset="0.7957" style="stop-color:#603C96"/>
				<stop  offset="1" style="stop-color:#29154A"/>
			</radialGradient>
			<path fill="url(#SVGID_19_)" d="M54.492,73.393c0,0,5.738,0.032,9.495,2.717c0,0-8.833-0.592-11.797,5.572
				c0,0,0.805-5.838,7.411-6.446C59.602,75.235,58.581,74.455,54.492,73.393z"/>
			<radialGradient id="SVGID_20_" cx="77.9375" cy="25.0205" r="6.7534" gradientUnits="userSpaceOnUse">
				<stop  offset="0" style="stop-color:#9C7DB8"/>
				<stop  offset="0.2234" style="stop-color:#9172B2"/>
				<stop  offset="0.4247" style="stop-color:#8364AA"/>
				<stop  offset="0.7957" style="stop-color:#603C96"/>
				<stop  offset="1" style="stop-color:#29154A"/>
			</radialGradient>
			<path fill="url(#SVGID_20_)" d="M86.252,25.466c0,0-7.284-8.899-14.509-3.29c-4.93,3.828-0.61,10.69,6.224,5.912
				c0,0-4.981,3.048-6.408-0.543C69.715,22.908,78.497,18.551,86.252,25.466z"/>
			<radialGradient id="SVGID_21_" cx="75.3848" cy="25.8501" r="3.0136" gradientUnits="userSpaceOnUse">
				<stop  offset="0" style="stop-color:#9C7DB8"/>
				<stop  offset="0.2234" style="stop-color:#9172B2"/>
				<stop  offset="0.4247" style="stop-color:#8364AA"/>
				<stop  offset="0.7957" style="stop-color:#603C96"/>
				<stop  offset="1" style="stop-color:#29154A"/>
			</radialGradient>
			<path fill="url(#SVGID_21_)" d="M78.307,22.748c0,0-5-0.08-5.756,3.224c-0.667,2.906,2.618,3.837,5.416,2.127
				c0,0-4.65,2.226-4.669-1.508C73.27,22.979,78.307,22.748,78.307,22.748z"/>
			<radialGradient id="SVGID_22_" cx="75.4854" cy="70.4629" r="4.839" gradientUnits="userSpaceOnUse">
				<stop  offset="0" style="stop-color:#9C7DB8"/>
				<stop  offset="0.2234" style="stop-color:#9172B2"/>
				<stop  offset="0.4247" style="stop-color:#8364AA"/>
				<stop  offset="0.7957" style="stop-color:#603C96"/>
				<stop  offset="1" style="stop-color:#29154A"/>
			</radialGradient>
			<path fill="url(#SVGID_22_)" d="M69.091,72.417c0,0,3.355,1.031,6.702-2.46c2.949-3.097,5.931-2.096,6.087,0.377
				c0,0-1.691-1.97-5.86,0.993C72.858,73.576,69.403,72.895,69.091,72.417z"/>
			<radialGradient id="SVGID_23_" cx="77.6816" cy="73.4121" r="4.6938" gradientUnits="userSpaceOnUse">
				<stop  offset="0" style="stop-color:#9C7DB8"/>
				<stop  offset="0.2234" style="stop-color:#9172B2"/>
				<stop  offset="0.4247" style="stop-color:#8364AA"/>
				<stop  offset="0.7957" style="stop-color:#603C96"/>
				<stop  offset="1" style="stop-color:#29154A"/>
			</radialGradient>
			<path fill="url(#SVGID_23_)" d="M71.219,73.345c0,0,2.938,1.928,7.117-0.491c3.7-2.137,6.284-0.345,5.736,2.069
				c0,0-1.077-2.368-5.896-0.69C74.507,75.509,71.389,73.893,71.219,73.345z"/>
		</g>
	</g>
	<g>
		<g>
			<radialGradient id="SVGID_24_" cx="68.7031" cy="41.543" r="22.5511" gradientUnits="userSpaceOnUse">
				<stop  offset="0" style="stop-color:#9C7DB8"/>
				<stop  offset="0.2234" style="stop-color:#9172B2"/>
				<stop  offset="0.4247" style="stop-color:#8364AA"/>
				<stop  offset="0.7957" style="stop-color:#603C96"/>
				<stop  offset="1" style="stop-color:#29154A"/>
			</radialGradient>
			<path fill="url(#SVGID_24_)" d="M52.976,61.094c-0.832,2.198-1.711,4.386-2.51,6.612c1.068-2.107,2.052-4.249,3.077-6.365
				c1.001-2.136,1.994-4.272,2.968-6.414c1.914-4.211,3.771-8.45,5.604-12.689L86.94,31.227l-24.962,9.712
				c-1.791-4.202-3.596-8.398-5.468-12.563c-0.969-2.183-1.967-4.353-2.958-6.521c-1.035-2.16-2.019-4.334-3.087-6.475
				c0.799,2.254,1.669,4.476,2.505,6.715c0.86,2.226,1.729,4.452,2.623,6.664c1.729,4.353,3.535,8.677,5.35,12.992
				c-1.814,4.248-3.61,8.498-5.35,12.779C54.7,56.715,53.841,58.902,52.976,61.094z"/>
			<radialGradient id="SVGID_25_" cx="69.1309" cy="50.3711" r="17.5739" gradientUnits="userSpaceOnUse">
				<stop  offset="0" style="stop-color:#9C7DB8"/>
				<stop  offset="0.2234" style="stop-color:#9172B2"/>
				<stop  offset="0.4247" style="stop-color:#8364AA"/>
				<stop  offset="0.7957" style="stop-color:#603C96"/>
				<stop  offset="1" style="stop-color:#29154A"/>
			</radialGradient>
			<path fill="url(#SVGID_25_)" d="M81.606,44.648c-0.87,1.947-1.702,3.909-2.552,5.86l-2.373,5.652
				c-4.235,1.81-8.445,3.647-12.638,5.548c-2.141,0.959-4.268,1.943-6.39,2.935c-2.112,1.021-4.239,1.999-6.332,3.063
				c2.211-0.788,4.39-1.648,6.583-2.472c2.188-0.85,4.361-1.715,6.536-2.599c4.343-1.749,8.662-3.563,12.973-5.411l0.24-0.104
				l0.095-0.236l2.41-5.919c0.784-1.979,1.578-3.95,2.345-5.939c0.775-1.985,1.521-3.975,2.277-5.974
				c0.718-2.004,1.475-3.998,2.159-6.017c-0.935,1.914-1.809,3.857-2.717,5.785C83.335,40.759,82.461,42.701,81.606,44.648z"/>
		</g>
		<g>
			<radialGradient id="SVGID_26_" cx="32.0195" cy="41.543" r="22.5517" gradientUnits="userSpaceOnUse">
				<stop  offset="0" style="stop-color:#9C7DB8"/>
				<stop  offset="0.2234" style="stop-color:#9172B2"/>
				<stop  offset="0.4247" style="stop-color:#8364AA"/>
				<stop  offset="0.7957" style="stop-color:#603C96"/>
				<stop  offset="1" style="stop-color:#29154A"/>
			</radialGradient>
			<path fill="url(#SVGID_26_)" d="M47.753,61.094c0.832,2.198,1.706,4.386,2.505,6.612c-1.063-2.107-2.051-4.249-3.077-6.365
				c-0.997-2.136-1.994-4.272-2.958-6.414c-1.929-4.211-3.776-8.45-5.62-12.689L13.78,31.227l24.97,9.712
				c1.796-4.202,3.592-8.398,5.463-12.563c0.974-2.183,1.966-4.353,2.968-6.521c1.026-2.16,2.013-4.334,3.077-6.475
				c-0.799,2.254-1.673,4.476-2.505,6.715c-0.865,2.226-1.734,4.452-2.613,6.664c-1.739,4.353-3.544,8.677-5.355,12.992
				C41.596,46,43.401,50.25,45.13,54.53C46.019,56.715,46.888,58.902,47.753,61.094z"/>
			<radialGradient id="SVGID_27_" cx="31.5967" cy="50.3711" r="17.5771" gradientUnits="userSpaceOnUse">
				<stop  offset="0" style="stop-color:#9C7DB8"/>
				<stop  offset="0.2234" style="stop-color:#9172B2"/>
				<stop  offset="0.4247" style="stop-color:#8364AA"/>
				<stop  offset="0.7957" style="stop-color:#603C96"/>
				<stop  offset="1" style="stop-color:#29154A"/>
			</radialGradient>
			<path fill="url(#SVGID_27_)" d="M19.123,44.648c0.87,1.947,1.704,3.909,2.543,5.86l2.387,5.652
				c4.228,1.81,8.443,3.647,12.633,5.548c2.131,0.959,4.257,1.943,6.385,2.935c2.108,1.021,4.244,1.999,6.342,3.063
				c-2.217-0.788-4.395-1.648-6.598-2.472c-2.173-0.85-4.357-1.715-6.528-2.599c-4.341-1.749-8.668-3.563-12.971-5.411l-0.236-0.104
				l-0.096-0.236l-2.408-5.919c-0.79-1.979-1.583-3.95-2.349-5.939c-0.78-1.985-1.532-3.975-2.273-5.974
				c-0.731-2.004-1.479-3.998-2.172-6.017c0.943,1.914,1.813,3.857,2.728,5.785C17.394,40.759,18.271,42.701,19.123,44.648z"/>
		</g>
	</g>
</g>
</svg>
