<?xml version="1.0" encoding="utf-8"?>
<!-- Generator: Adobe Illustrator 18.1.0, SVG Export Plug-In . SVG Version: 6.00 Build 0)  -->
<svg version="1.1" id="Layer_1" xmlns="http://www.w3.org/2000/svg" xmlns:xlink="http://www.w3.org/1999/xlink" x="0px" y="0px"
	 viewBox="0 0 150 150" enable-background="new 0 0 150 150" xml:space="preserve">
<g>
	<g>
		<path fill="#4CC1E2" d="M52.6,118.2c-2,0.1-3.6,1.4-3.5,3.1c0.1,1.7,1.7,2.9,3.7,2.9c2,0,3.6-1.4,3.5-3.1
			C56.2,119.5,54.6,118.2,52.6,118.2z"/>
		<path fill="#4CC1E2" d="M98.7,34.9c2,0.1,3.7-1.2,3.7-2.9c0.1-1.6-1.5-3-3.5-3.1c-2-0.1-3.7,1.2-3.7,2.9
			C95.2,33.5,96.7,34.9,98.7,34.9z"/>
		<path fill="#4CC1E2" d="M76.1,129.3c-2,0.1-3.6,1.4-3.5,3.1c0.1,1.7,1.7,3,3.7,2.9c2-0.1,3.6-1.4,3.5-3.1
			C79.7,130.6,78.1,129.3,76.1,129.3z"/>
		<path fill="#4CC1E2" d="M35.3,44.3c-2,0-3.7,1.2-3.7,2.9c-0.1,1.6,1.5,3,3.5,3.1c2,0.1,3.7-1.2,3.7-2.9
			C38.8,45.8,37.3,44.4,35.3,44.3z"/>
		<path fill="#4CC1E2" d="M35.1,101.7c-2,0.1-3.6,1.4-3.5,3.1c0.1,1.6,1.7,2.9,3.7,2.9c2-0.1,3.5-1.4,3.5-3.1
			C38.7,102.9,37,101.6,35.1,101.7z"/>
		<path fill="#4CC1E2" d="M52.8,27.8c-2-0.1-3.7,1.2-3.7,2.9c-0.1,1.6,1.5,3,3.5,3.1c2,0,3.6-1.3,3.7-2.9
			C56.3,29.2,54.8,27.8,52.8,27.8z"/>
		<path fill="#4CC1E2" d="M79.8,19.8c0.1-1.6-1.5-3-3.5-3.1c-2-0.1-3.7,1.2-3.7,2.9c-0.1,1.7,1.5,3,3.5,3.1
			C78.1,22.8,79.7,21.5,79.8,19.8z"/>
		<path fill="#4CC1E2" d="M115,52.4c2,0.1,3.7-1.2,3.7-2.9c0.1-1.6-1.5-3-3.5-3.1c-2-0.1-3.7,1.2-3.7,2.9
			C111.4,50.9,113,52.3,115,52.4z"/>
		<path fill="#4CC1E2" d="M118.7,10.5H31.6c-12.1,0-21.9,9.8-21.9,21.9v87.1c0,12.1,9.8,21.9,21.9,21.9h87.1
			c12.1,0,21.9-9.8,21.9-21.9V32.5C140.6,20.3,130.8,10.5,118.7,10.5z M35.4,110.6c-3.9,0.1-7.2-2.5-7.3-5.7c-0.1-3.2,2.9-6,6.9-6.1
			c2.2-0.1,4.2,0.7,5.5,2c9.9-3.1,20.3-9,22-24.8c-1.7-15.8-12.1-21.7-22-24.8c-1.4,1.3-3.3,2.1-5.5,2c-3.9-0.1-7-2.8-6.9-6.1
			c0.1-3.2,3.4-5.8,7.3-5.7s7,2.8,6.9,6.1c0,0.4-0.1,0.8-0.2,1.1C56.6,53.3,64.3,62,65.9,75.3c0.1,0,0.1,0,0.2,0
			c0,0.2-0.1,0.5-0.1,0.7c0,0.2,0.1,0.5,0.1,0.7c-0.1,0-0.1,0-0.2,0c-1.6,13.3-9.3,22-23.8,26.7c0.1,0.4,0.2,0.7,0.2,1.1
			C42.4,107.7,39.3,110.5,35.4,110.6z M52.9,127.1c-3.9,0.1-7.2-2.5-7.3-5.7c-0.1-3.2,3-6,6.9-6.1c0.6,0,1.2,0.1,1.8,0.2
			c7.4-10.9,11.9-24.7,12.9-39.5c-1-14.8-5.4-28.6-12.9-39.5c-0.6,0.1-1.2,0.2-1.8,0.2c-3.9-0.1-7-2.8-6.9-6.1
			c0.1-3.2,3.4-5.8,7.3-5.7c3.9,0.1,7,2.8,6.9,6.1c-0.1,1.7-1,3.2-2.4,4.2c7.6,11.2,12.1,25.2,13.2,40.3c0,0,0.1,0,0.1,0
			c0,0.2,0,0.4-0.1,0.6c0,0.2,0,0.4,0.1,0.6c0,0-0.1,0-0.1,0c-1.1,15.1-5.6,29.1-13.2,40.3c1.4,1,2.3,2.5,2.4,4.2
			C59.9,124.3,56.8,127,52.9,127.1z M76.4,138.2c-3.9,0.1-7.2-2.5-7.3-5.7c-0.1-2.8,2.2-5.2,5.3-5.9l-2.1-50.1h0l0-0.5l0-0.5l0,0
			l2.1-50.1c-3.1-0.7-5.4-3.1-5.3-5.9c0.1-3.2,3.4-5.8,7.3-5.7c3.9,0.1,7,2.8,6.9,6.1c-0.1,2.7-2.4,4.9-5.4,5.5L75.8,76l2.1,50.6
			c3,0.6,5.3,2.8,5.4,5.5C83.4,135.4,80.3,138.1,76.4,138.2z M99.1,125.9c-3.9,0.1-7.2-2.5-7.3-5.7c-0.1-1.7,0.8-3.2,2.1-4.3
			c-8.4-10.8-14-24.6-16.2-39.6c0,0-0.1,0-0.1,0c0-0.1,0-0.2,0.1-0.3c0-0.1,0-0.2-0.1-0.3c0,0,0.1,0,0.1,0
			c2.2-15,7.8-28.8,16.2-39.6c-1.3-1.1-2.1-2.6-2.1-4.3c0.1-3.2,3.4-5.8,7.3-5.7c3.9,0.1,7,2.8,6.9,6.1c-0.1,3.2-3.4,5.8-7.3,5.7
			c-0.6,0-1.2-0.1-1.8-0.3C88.7,48,83.2,61.4,81.1,76c2.1,14.6,7.6,28,15.8,38.4c0.6-0.1,1.2-0.2,1.8-0.3c3.9-0.1,7.2,2.5,7.3,5.7
			C106,123.1,103,125.8,99.1,125.9z M85.8,76c3.1,15.2,13.7,20.5,23.7,23c1.2-1.3,3.2-2.2,5.4-2.3c3.9-0.1,7.2,2.5,7.3,5.7
			c0.1,3.2-2.9,6-6.9,6.1c-3.9,0.1-7.2-2.5-7.3-5.7c0-0.4,0-0.8,0.1-1.1c-14.9-4-23.3-12.2-25.8-25.5c0,0,0,0-0.1,0
			c0-0.1,0-0.1,0-0.1c0-0.1,0-0.1,0-0.1c0,0,0,0,0.1,0c2.5-13.3,10.9-21.6,25.8-25.5c-0.1-0.4-0.1-0.7-0.1-1.1
			c0.1-3.2,3.4-5.8,7.3-5.7c3.9,0.1,7,2.8,6.9,6.1c-0.1,3.2-3.4,5.8-7.3,5.7c-2.2-0.1-4.1-1-5.4-2.3C99.5,55.5,88.8,60.8,85.8,76
			C85.8,76,85.7,76,85.8,76C85.7,76,85.8,76,85.8,76z"/>
		<path fill="#4CC1E2" d="M115.2,105.6c2-0.1,3.6-1.4,3.5-3.1c-0.1-1.6-1.7-2.9-3.7-2.9c-2,0.1-3.6,1.4-3.5,3.1
			C111.5,104.4,113.2,105.7,115.2,105.6z"/>
		<path fill="#4CC1E2" d="M98.7,117.1c-2,0.1-3.6,1.4-3.5,3.1c0.1,1.6,1.7,2.9,3.7,2.9c2-0.1,3.6-1.4,3.5-3.1
			C102.4,118.3,100.7,117,98.7,117.1z"/>
	</g>
</g>
</svg>
