<?xml version="1.0" encoding="utf-8"?>
<!-- Generator: Adobe Illustrator 18.1.0, SVG Export Plug-In . SVG Version: 6.00 Build 0)  -->
<svg version="1.0" id="Layer_1" xmlns="http://www.w3.org/2000/svg" xmlns:xlink="http://www.w3.org/1999/xlink" x="0px" y="0px"
	 viewBox="0 0 150 150" enable-background="new 0 0 150 150" xml:space="preserve">
<g>
	<path fill="#00A896" d="M96.1,45.5c-13.1,0-19.7,12-20.6,13.2c-0.9-1.2-7.5-13.2-20.6-13.2c-13.6,0-21.7,13.5-14.6,27.6
		c6.9,13.7,28.2,31,34.5,35.8c0.2,0.2,0.4,0.4,0.6,0.5c0,0,0,0,0,0c0,0,0,0,0.1,0c0,0,0,0,0,0c0,0,0,0,0,0c0,0,0,0,0,0c0,0,0,0,0,0
		c0.2-0.2,0.5-0.4,0.7-0.6c6.5-4.9,27.5-22.1,34.4-35.7C117.8,59.1,109.7,45.5,96.1,45.5z"/>
	<path fill="#AECB36" d="M75.2,58.5c-1.5-2.2-8-12.9-20.4-12.9c-13.6,0-21.7,13.5-14.6,27.6c6.9,13.7,28.2,31,34.5,35.8
		c0.2,0.2,0.3,0.3,0.5,0.4V58.5z"/>
	<path fill="#2EC1DE" d="M124.1,26.1v0.7c-6.9-6.3-15.8-9.8-25.1-9.8c-7.9,0-15.9,2.5-23.6,7.3v19.8l4.4-3.5
		c6.5-5.1,12.9-7.7,19.2-7.7c6.8,0,12.9,3.2,17.3,8.9c5.2,6.7,6.9,15.7,4.7,24.1c-0.5,2.1-1.3,6-2.3,8.9c-4.1,9.5-11.4,25-18.2,32.3
		c0,0,0.1,0,0.1,0c-0.1,0-0.1,0-0.2,0c-1.8-0.1-4.5-0.9-6.7-0.9c-1.3,0-3.5,0.3-5.8,0.7c-1.3,0.3-5.4,1-5.3,2.3
		c0.1,1.8,3,0.9,4.7,0.6c1.4-0.2,4.5-1.1,4.9,0.2c0.2,0.7-2.3,3-3.1,3.6c-1.4,0.9-4,2-6.9,3.2c-1,0.4-4.4,1.4-5.5,2.6
		c-1.4-0.6-2.5-1.1-3.3-1.7c-0.8-0.5-3.3-2.9-3.1-3.6c0.4-1.3,3.4-0.4,4.9-0.2c1.7,0.3,4.6,1.2,4.7-0.6c0.1-1.3-4-2-5.3-2.3
		c-2.3-0.5-4.5-0.7-5.8-0.7c-2.3,0-4.9,0.8-6.7,0.9c0,0,0,0,0,0c0,0,0,0,0,0c-13-10.6-28.6-29.8-32.6-45.2
		c-2.2-8.4-0.4-17.4,4.7-24.1c4.4-5.7,10.6-8.9,17.3-8.9c6.2,0,12.7,2.6,19.2,7.7l4.4,3.5V24.5c-7.7-4.8-15.7-7.3-23.6-7.3
		c-11.6,0-22.6,5.5-29.9,15.1c-8.2,10.6-11,24.7-7.5,37.8c3.9,15,17.8,29.6,30.7,41c0.2,0.2,0.4,0.4,0.6,0.5l0,0
		c3.5,3.1,7,6,10.1,8.5c1.9,2,3.3,4,4.4,5.9c0.8,1.3,1.4,2.5,2.2,3.8c1.2,1.9,4.4,7.4,5.9,7c1.6-0.5-1.6-5.3-1.8-5.8
		c-0.4-0.9-0.9-1.6-1.2-2.5c-0.1-0.5-0.2-0.9,0.1-1.4c3,0.7,4.6,3.2,6.7,5.6c0.9,1,5.4,6.4,6.8,4.2c0.2-0.3-0.9-2.2-1.2-2.5
		c-1.1-1.3-2.6-2.9-3.4-3.7c-2.2-2.2-4.8-3.7-4.5-6.2c1.6-0.1,4.2,1.5,6.1,2.7c1.5,1,6.5,5.8,8.4,5.4c0,0,0,0.1,0,0.1
		c1.4,2.2,5.9-3.2,6.8-4.2c2.1-2.4,3.7-4.9,6.7-5.6c0.3,0.5,0.2,0.9,0.1,1.4c-0.3,0.9-0.7,1.6-1.2,2.5c-0.2,0.5-3.5,5.3-1.8,5.8
		c1.5,0.4,4.7-5.1,5.9-7c0.8-1.3,1.5-2.5,2.2-3.8c1.5-2.6,3.6-5.3,6.5-8.1c0,0,0,0,0.1,0c0-0.1,0-0.2,0-0.3
		c9.5-11,24.6-30.2,27.9-43.6c3.3-13.5,0.4-27.8-7.9-38.3C127.8,29.6,126,27.8,124.1,26.1z M83,119.3c2.6-1.3,5.2-2,7-2.5
		c-0.8,2-3.5,3.7-6.2,5.4c-1.3-0.6-2.7-1-3.3-1.2c-0.2-0.1-0.4-0.2-0.6-0.3C81,120.3,82.1,119.7,83,119.3z M72.8,121
		c1.8,0.5,4.4,1.2,7,2.5c0.4,0.2,0.8,0.4,1.3,0.6c-0.4,0.3-0.7,0.6-1.1,0.9c-0.2,0.1-0.7,0.7-1.2,1.3
		C76.2,124.6,73.6,122.9,72.8,121z M88.7,126.7c-0.8,0.8-2.3,2.4-3.4,3.7c-0.1,0.1-0.4,0.6-0.7,1.2c-0.4-1-1.6-2.2-1.8-2.4
		c-0.5-0.5-1.1-0.9-1.7-1.4c1.1-0.7,2.4-1.7,3.5-2.6c1,0.1,1.9-0.2,1.8-1c0-0.1-0.1-0.3-0.1-0.4c0.4-0.3,0.7-0.5,0.9-0.7
		c2-1.3,4.5-2.8,6.1-2.7C93.4,122.9,90.9,124.5,88.7,126.7z"/>
</g>
</svg>
