<?xml version="1.0" encoding="utf-8"?>
<!-- Generator: Adobe Illustrator 18.1.0, SVG Export Plug-In . SVG Version: 6.00 Build 0)  -->
<svg version="1.1" id="Layer_1" xmlns="http://www.w3.org/2000/svg" xmlns:xlink="http://www.w3.org/1999/xlink" x="0px" y="0px"
	 viewBox="0 0 2000 2000" enable-background="new 0 0 2000 2000" xml:space="preserve">
<g>
	<path fill="#1FB9E4" d="M627.6,261.5c8.7-6.2,14.4-16.3,14.4-27.8c0-18.9-15.3-34.2-34.2-34.2c-18.9,0-34.2,15.3-34.2,34.2
		c0,18.9,15.3,34.2,34.2,34.2c3.4,0,6.5-0.6,9.6-1.5c-92,209.9,14.3,327.2,102.6,384.5c-7.8-36.6-4.7-80.8,17.5-134.1
		c-1.1,0.2-2.1,0.3-3.3,0.3c-16.5,0-30-13.4-30-30c0-16.6,13.4-30,30-30c16.5,0,30,13.5,30,30c0,9.5-4.5,17.9-11.4,23.3
		c19.6,9.5,62.8,33.2,97.2,71.8C874.7,383.3,668,279.7,627.6,261.5z M939.3,558.8c11.1-33.9,34.2-69.3,75.4-104.6
		c-12.6-3.6-22-15-22-28.8c0-16.5,13.4-30,30-30c16.5,0,30,13.5,30,30c0,16.6-13.5,30-30,30c-0.1,0-0.2-0.1-0.4-0.1
		c12.3,14.8,50.6,64.6,63.9,126.4c137.9-190.4-57.5-404.4-57.5-404.4C857,320.4,888.3,466.4,939.3,558.8z M1033.4,176.7
		c18.9,0,34.2-15.3,34.2-34.2c0-18.9-15.3-34.3-34.2-34.3c-18.9,0-34.2,15.3-34.2,34.3C999.2,161.4,1014.5,176.7,1033.4,176.7z
		 M659.9,714.3c-86-208.7-363.4-167.6-363.4-167.6c23.6,230.7,171.9,281.7,278,288.1c-25.3-28.8-44.6-70.5-51.4-130.3
		c-5.5,5.8-13.2,9.4-21.7,9.4c-16.5,0-30-13.4-30-30c0-16.6,13.5-30,30-30c16.5,0,30,13.5,30,30c0,6.1-1.8,11.7-5,16.5
		C541.6,698.7,601.5,693.8,659.9,714.3z M1355.7,733.5c36.6-9.5,81.7-8.2,137.1,12c-0.4-1.9-0.6-3.9-0.6-6c0-16.5,13.5-30,30-30
		c16.5,0,30,13.5,30,30c0,16.6-13.4,30-30,30c-11.2,0-20.9-6.2-26-15.4c-7,18-29.7,69.9-71.9,110.2
		C1649.5,882,1738,615.7,1738,615.7C1521.7,532.8,1409.3,641.6,1355.7,733.5z M264.2,558.3c18.9,0,34.2-15.3,34.2-34.3
		c0-18.9-15.3-34.2-34.2-34.2c-18.9,0-34.2,15.3-34.2,34.2C230,543,245.3,558.3,264.2,558.3z M1770.7,640.4
		c18.9,0,34.2-15.3,34.2-34.2c0-18.9-15.3-34.2-34.2-34.2c-18.9,0-34.2,15.3-34.2,34.2C1736.5,625.1,1751.8,640.4,1770.7,640.4z
		 M1459.1,313.5c18.9,0,34.2-15.3,34.2-34.2c0-18.9-15.3-34.2-34.2-34.2c-18.9,0-34.2,15.3-34.2,34.2
		C1424.9,298.2,1440.2,313.5,1459.1,313.5z M1281,518c0-16.5,13.5-30,30-30c16.5,0,30,13.4,30,30c0,16.6-13.4,30-30,30
		c-7.7,0-14.6-3-20-7.7c3.2,20.7,9,75-6.4,129.3c202.9-98.9,144.5-373.1,144.5-373.1c-228.6,37.9-270.4,188.9-270.1,295.2
		c27-26.9,67-48.7,125.8-59.3C1282.5,528.1,1281,523.3,1281,518z M1390.7,1771.3h-0.2c84.9-212.1-20.7-325.9-110.9-381.2
		c8.3,35.8,6.4,79.3-13.4,132.1c15.8,0.8,28.5,13.8,28.5,29.8c0,16.6-13.5,30-30,30c-16.5,0-30-13.4-30-30
		c0-10.8,5.8-20.2,14.3-25.5c-21.9-9.7-66.6-32.8-101.7-71.2c-20.7,204.9,196.5,301.3,235.7,316.9c-15.2,3.5-26.5,17-26.5,33.2
		c0,18.9,15.3,34.2,34.2,34.2c18.9,0,34.2-15.3,34.2-34.2C1424.9,1786.7,1409.6,1771.3,1390.7,1771.3z M982.7,1585.9
		c11.4,4.2,19.5,15.2,19.5,28c0,16.5-13.4,30-30,30c-16.5,0-30-13.5-30-30c0-12.5,7.6-23.2,18.5-27.7c-13.8-19.2-41.2-62-52.2-113.6
		c-119.7,163.9,13.1,353.7,41.9,391.2c-14.7,3.8-25.5,17.1-25.5,33c0,18.9,15.3,34.2,34.2,34.2c18.9,0,34.2-15.3,34.2-34.2
		c0-16.9-12.2-30.8-28.3-33.6c173.3-138.6,139.9-287.7,90.7-379.9C1045.1,1516.8,1023,1551.7,982.7,1585.9z M1732.7,1459.7
		c-7.1,0-13.7,2.2-19.1,5.8c-35.2-222.7-182.8-267-287.9-269.1c25.1,26.4,45.3,64.3,55.1,119.1c4.6-2.8,9.9-4.6,15.6-4.6
		c16.5,0,30,13.5,30,30c0,16.6-13.5,30-30,30c-16.5,0-30-13.5-30-30c0-4,0.8-7.8,2.2-11.2c-23.8,2.7-74.2,5.5-124.1-10
		c83.8,182.4,310.3,161.5,360.3,154.5c-4,5.6-6.4,12.4-6.4,19.7c0,18.9,15.3,34.2,34.2,34.2c18.9,0,34.2-15.3,34.2-34.2
		C1766.9,1475,1751.6,1459.7,1732.7,1459.7z M708.7,1526.3c0,16.6-13.5,30-30,30c-16.5,0-30-13.5-30-30c0-16.5,13.4-30,30-30
		c1.1,0,2.1,0.2,3.2,0.3c-2.3-19.9-6.3-75.4,11.7-130C486,1456.7,533,1733.7,533,1733.7c229.9-28.4,278-177.5,282.2-283.7
		c-26.6,24.3-64.6,43.6-118.7,52.4C703.8,1507.8,708.7,1516.5,708.7,1526.3z M536.4,1074.2c-32.3-10.7-65.7-32.6-98.1-71.3
		c-4.7,10.5-15.2,17.9-27.4,17.9c-16.5,0-30-13.5-30-30c0-16.6,13.4-30,30-30c11.1,0,20.7,6.1,25.9,15c20-13.7,62.4-38.9,112.6-48.7
		c-158.6-120.5-347.3,2-389.5,32.6c-6-10.1-16.8-16.9-29.3-16.9c-18.9,0-34.2,15.3-34.2,34.2c0,18.9,15.3,34.2,34.2,34.2
		c16.7,0,30.6-12,33.6-27.9C297.6,1151.2,444.6,1120.9,536.4,1074.2z M1869.5,1018.8c-14.6,0-27,9.3-31.9,22.2
		c-142.9-173.6-292.5-137-384.2-85.6c35.1,10,71.8,32.6,108.1,75c4.6-10.6,15.2-18.1,27.5-18.1c16.5,0,30,13.5,30,30
		c0,16.6-13.4,30-30,30c-14.7,0-26.9-10.7-29.5-24.7c-18.5,14-61.3,43-113.4,55.3c165,115.1,350.3-18.6,389.1-49.5
		c0.2,18.7,15.4,33.9,34.2,33.9c18.9,0,34.2-15.3,34.2-34.2C1903.7,1034.2,1888.4,1018.8,1869.5,1018.8z M221.7,1398.9
		c-18.9,0-34.2,15.3-34.2,34.2c0,18.9,15.3,34.3,34.2,34.3c18.9,0,34.2-15.3,34.2-34.3C255.9,1414.2,240.6,1398.9,221.7,1398.9z
		 M624.8,1299.9c-34.4,7.3-75.8,5-125.4-13.6c2.1,4.1,3.3,8.6,3.3,13.4c0,16.5-13.5,30-30,30c-16.6,0-30-13.5-30-30
		c0-16.6,13.5-30,30-30c4.7,0,9.2,1.2,13.2,3.2c7.9-18,32.5-68.2,75.9-106.4c-224.4-27.1-324,235.4-324,235.4
		C450.5,1493.9,567.4,1389.5,624.8,1299.9z M525.7,1733.3c-18.9,0-34.2,15.3-34.2,34.2c0,18.9,15.3,34.2,34.2,34.2
		c18.9,0,34.2-15.3,34.2-34.2C559.9,1748.7,544.6,1733.3,525.7,1733.3z"/>
	<path fill="#E5A475" d="M824.3,1018.3c-74.6-111.4-184.3-47.7-214.5-27c-3.3-8.6-11.6-14.8-21.4-14.8c-12.7,0-23,10.3-23,23
		c0,12.7,10.3,23,23,23c9.9,0,18.3-6.3,21.6-15.2C709.5,1129.2,824.3,1018.3,824.3,1018.3z M844.9,1106.2
		c-127.3-61.4-189.8,64.7-200.8,89.9c-3.6-2.4-8-3.8-12.6-3.8c-12.7,0-23,10.3-23,23c0,12.7,10.3,23.1,23,23.1
		c12.7,0,23-10.4,23-23.1c0-4.1-1.2-7.9-3.1-11.2C801.5,1262,844.9,1106.2,844.9,1106.2z M1144.5,935.8
		c143.8,62.2,198.5-102.5,198.5-102.5C1182.8,771.8,1144.5,935.8,1144.5,935.8z M779.7,1351.1c-1.4-0.2-2.8-0.4-4.2-0.4
		c-12.7,0-23,10.3-23,23s10.3,23,23,23c12.7,0,23-10.3,23-23c0-8.2-4.3-15.3-10.8-19.4c161.4-24.8,119.6-182.6,119.6-182.6
		C765.9,1183.1,776.4,1324.5,779.7,1351.1z M850.9,932c-9.4-156.4-181.1-130.9-181.1-130.9C687.2,971.8,850.9,932,850.9,932z
		 M1198.8,684.2c-169.3,28-119.3,188.9-119.3,188.9C1235,854,1198.8,684.2,1198.8,684.2z M1004.4,851.9
		c124.5-95.2,7.3-223.4,7.3-223.4C879.9,738.4,1004.4,851.9,1004.4,851.9z M994.2,1196.5c-112.1,78.5-41.1,189.8-21.3,216.7
		c-8.9,3.2-15.4,11.6-15.4,21.6c0,12.7,10.3,23,23,23c12.7,0,23-10.3,23-23c0-10.9-7.6-19.9-17.7-22.3
		C1108.5,1310,994.2,1196.5,994.2,1196.5z M824.7,668c7.5-3.8,12.6-11.5,12.6-20.4c0-12.7-10.3-23-23-23c-12.7,0-23,10.3-23,23
		s10.3,23.1,23,23.1c1.9,0,3.7-0.3,5.5-0.7C752.4,823.1,911.2,871,911.2,871C976,743.6,847.8,678.5,824.7,668z M1217.3,692.2
		c12.7,0,23-10.3,23-23c0-12.7-10.3-23.1-23-23.1c-12.7,0-23,10.4-23,23.1C1194.3,681.9,1204.7,692.2,1217.3,692.2z M1346.9,1221.1
		c-6.1,0-11.6,2.4-15.8,6.3c-27.5-162.5-185.3-117.2-185.3-117.2c14.1,138.4,149.9,128.2,180.3,124.2c-1.4,3-2.3,6.3-2.3,9.8
		c0,12.7,10.3,23.1,23,23.1c12.7,0,23-10.4,23-23.1C1369.9,1231.4,1359.6,1221.1,1346.9,1221.1z M1364.9,846.9c12.7,0,23-10.3,23-23
		c0-12.7-10.3-23.1-23-23.1c-12.7,0-23,10.4-23,23.1C1341.8,836.6,1352.2,846.9,1364.9,846.9z M1411.7,1012.4
		c-11.3,0-20.7,8.2-22.6,19c-106.2-128.3-220.2-8.5-220.2-8.5c84.2,115,199.7,30.7,220,14.5c1,11.8,10.8,21.1,22.8,21.1
		c12.7,0,23-10.3,23-23C1434.7,1022.7,1424.4,1012.4,1411.7,1012.4z M1185,1368.6c-0.9,0-1.8,0.2-2.8,0.3
		c58.6-154.2-100.5-195-100.5-195c-57.2,125,61.7,185,91.7,197.9c-6.8,4-11.5,11.4-11.5,19.8c0,12.7,10.3,23,23,23
		c12.7,0,23-10.3,23-23S1197.7,1368.6,1185,1368.6z M1015.8,627.4c12.7,0,23-10.3,23-23c0-12.7-10.3-23-23-23c-12.7,0-23,10.3-23,23
		C992.8,617.1,1003.1,627.4,1015.8,627.4z M651.7,808.1c12.7,0,23-10.3,23-23c0-12.7-10.3-23-23-23c-12.7,0-23,10.3-23,23
		C628.6,797.7,639,808.1,651.7,808.1z"/>
</g>
</svg>
