<?xml version="1.0" encoding="utf-8"?>
<!-- Generator: Adobe Illustrator 18.1.0, SVG Export Plug-In . SVG Version: 6.00 Build 0)  -->
<svg version="1.1" id="Layer_1" xmlns="http://www.w3.org/2000/svg" xmlns:xlink="http://www.w3.org/1999/xlink" x="0px" y="0px"
	 viewBox="0 0 2000 2000" enable-background="new 0 0 2000 2000" xml:space="preserve">
<g>
	<path fill="#FFAF3A" d="M1154.7,1398c-6.8,6.8-13.6,13.5-20.6,20.3C1141.1,1411.5,1148,1404.7,1154.7,1398z"/>
	<path fill="#FFAF3A" d="M1417,483.9c1.6-1,3.2-1.8,4.8-2.7C1420.1,482.1,1418.6,483,1417,483.9z"/>
	<path fill="#FFAF3A" d="M1488.6,894.2c-2.2,6-4.5,12-6.8,18.1C1484.1,906.2,1486.4,900.2,1488.6,894.2z"/>
	<path fill="#FFAF3A" d="M1124.8,1427.1c-7.1,6.8-14.3,13.5-21.6,20.3C1110.6,1440.6,1117.7,1433.9,1124.8,1427.1z"/>
	<path fill="#FFAF3A" d="M1406.1,491.2c1.6-1.2,3.2-2.2,4.8-3.3C1409.2,489,1407.7,490,1406.1,491.2z"/>
	<path fill="#FFAF3A" d="M1383.4,510.6c1.3-1.3,2.6-2.4,3.9-3.6C1386,508.1,1384.7,509.3,1383.4,510.6z"/>
	<path fill="#FFAF3A" d="M1093.8,1456c-7.5,6.8-15.1,13.6-22.8,20.4C1078.7,1469.6,1086.3,1462.8,1093.8,1456z"/>
	<path fill="#FFAF3A" d="M1394.9,500c1.6-1.3,3.1-2.5,4.6-3.7C1397.9,497.6,1396.4,498.7,1394.9,500z"/>
	<path fill="#FFAF3A" d="M1427.5,478.3c1.6-0.7,3.1-1.4,4.7-2C1430.7,476.9,1429.1,477.5,1427.5,478.3z"/>
	<path fill="#FFAF3A" d="M1475.1,472.4c1.3,0.4,2.5,0.7,3.8,1.2C1477.6,473.1,1476.4,472.8,1475.1,472.4z"/>
	<path fill="#FFAF3A" d="M1285.9,1250.3c-5.9,7.6-12,15.1-18.2,22.7C1273.9,1265.5,1280,1257.9,1285.9,1250.3z"/>
	<path fill="#FFAF3A" d="M1483.4,475.6c1.2,0.6,2.4,1.1,3.5,1.7C1485.8,476.7,1484.6,476.1,1483.4,475.6z"/>
	<path fill="#FFAF3A" d="M1447.7,471.5c1.5-0.3,2.9-0.5,4.4-0.7C1450.6,471,1449.2,471.2,1447.7,471.5z"/>
	<path fill="#FFAF3A" d="M1466.4,470.7c1.3,0.2,2.7,0.3,4,0.6C1469.1,471,1467.7,470.8,1466.4,470.7z"/>
	<path fill="#FFAF3A" d="M1497.7,868.3c-2,5.9-4.1,11.9-6.2,17.8C1493.6,880.2,1495.7,874.2,1497.7,868.3z"/>
	<path fill="#FFAF3A" d="M1457.2,470.4c1.4-0.1,2.8-0.1,4.2-0.1C1460.1,470.3,1458.7,470.3,1457.2,470.4z"/>
	<path fill="#FFAF3A" d="M1262.1,1280c-5.9,7.2-12.1,14.4-18.2,21.7C1250.1,1294.4,1256.2,1287.2,1262.1,1280z"/>
	<path fill="#FFAF3A" d="M1437.8,474.1c1.5-0.5,3-0.9,4.6-1.4C1440.8,473.2,1439.3,473.6,1437.8,474.1z"/>
	<path fill="#FFAF3A" d="M1237.1,1309.6c-6.1,7-12.3,14-18.5,21C1224.8,1323.6,1231,1316.6,1237.1,1309.6z"/>
	<path fill="#FFAF3A" d="M1519.7,793.6c-1.5,6.2-3.2,12.4-4.9,18.7C1516.5,806,1518.2,799.8,1519.7,793.6z"/>
	<path fill="#FFAF3A" d="M376.3,621c4.7-11.1,10.3-22.7,16.9-34.8C386.6,598.3,381,609.9,376.3,621z"/>
	<path fill="#FFAF3A" d="M563,649.9c0.1,0.8,0.1,1.5,0.2,2.3C563.1,651.4,563,650.7,563,649.9z"/>
	<path fill="#FFAF3A" d="M357.3,701.7c0.1-8.9,1-18.1,2.7-27.7C358.4,683.6,357.5,692.8,357.3,701.7z"/>
	<path fill="#FFAF3A" d="M362.4,663c2.3-9.6,5.3-19.6,9.2-30C367.6,643.4,364.6,653.4,362.4,663z"/>
	<path fill="#FFAF3A" d="M372,631.7c1.3-3.5,2.7-7.1,4.3-10.7C374.7,624.6,373.3,628.2,372,631.7z"/>
	<path fill="#FFAF3A" d="M1513.3,818c-1.6,5.9-3.4,11.9-5.2,18C1509.8,829.9,1511.6,823.9,1513.3,818z"/>
	<path fill="#FFAF3A" d="M1210.9,1339.1c-6.2,6.9-12.6,13.7-19.1,20.6C1198.2,1352.9,1204.6,1346,1210.9,1339.1z"/>
	<path fill="#FFAF3A" d="M1285.4,595.2c0.5-0.3,0.9-0.6,1.4-1C1286.3,594.6,1285.8,594.9,1285.4,595.2z"/>
	<path fill="#FFAF3A" d="M1339.4,553.8c0.9-0.8,1.8-1.5,2.6-2.3C1341.2,552.3,1340.3,553,1339.4,553.8z"/>
	<path fill="#FFAF3A" d="M1350.1,544.3c1-1,2.1-1.9,3.1-2.9C1352.1,542.4,1351.1,543.4,1350.1,544.3z"/>
	<path fill="#FFAF3A" d="M1505.9,842.9c-1.8,5.9-3.7,11.8-5.7,17.8C1502.2,854.7,1504.1,848.8,1505.9,842.9z"/>
	<path fill="#FFAF3A" d="M1183.4,1368.6c-6.5,6.8-13.1,13.6-19.7,20.4C1170.3,1382.2,1176.9,1375.4,1183.4,1368.6z"/>
	<path fill="#FFAF3A" d="M1300.8,584.2c0,0,0.1-0.1,0.1-0.1C1300.9,584.2,1300.9,584.2,1300.8,584.2z"/>
	<path fill="#FFAF3A" d="M1328,563.4c0.2-0.2,0.4-0.3,0.6-0.5C1328.4,563,1328.2,563.2,1328,563.4z"/>
	<path fill="#FFAF3A" d="M1538.1,581.2c0.4,2.8,0.7,5.6,1,8.4C1538.8,586.7,1538.4,583.9,1538.1,581.2z"/>
	<path fill="#FFAF3A" d="M1541.3,632.5c0,3.5,0,6.9-0.1,10.5C1541.3,639.5,1541.3,636,1541.3,632.5z"/>
	<path fill="#FFAF3A" d="M1414.9,1055.4c-4.2,7.7-8.4,15.3-12.9,23.1C1406.5,1070.7,1410.8,1063.1,1414.9,1055.4z"/>
	<path fill="#FFAF3A" d="M1540.9,614.5c0.1,3.2,0.2,6.5,0.3,9.8C1541.2,621,1541,617.7,1540.9,614.5z"/>
	<path fill="#FFAF3A" d="M1491.3,480.1c1.1,0.7,2.2,1.4,3.2,2.2C1493.5,481.5,1492.4,480.8,1491.3,480.1z"/>
	<path fill="#FFAF3A" d="M1539.8,597.4c0.3,3,0.5,6,0.7,9.1C1540.3,603.4,1540.1,600.4,1539.8,597.4z"/>
	<path fill="#FFAF3A" d="M740,802.2c1.2-0.3,1.9-0.6,1.9-0.6S741.3,801.8,740,802.2c-25.1,7.1-313.5,85.4-379-65.6
		c-0.6-2.6-1.2-5.3-1.6-8c35.1,201.4,502,198.1,553.5,477.7c62.9,341.8-251.9,548.7-251.9,548.7c68.2-35.8,131.5-73.3,190.5-112.1
		c-32.2,19.8-65.6,39.2-100.6,58.1c0,0,148.6-86.1,267.7-267.8c24.3-59.2,103.4-275.9,65.1-505.8c-19.9-119.4,48.2-148.9,93-92.6
		c17.7-96.9,52.7-172.3,93.7-229.7c0.3-0.2,0.7-0.4,1-0.7c-224.4,149.1-657.4,292.1-705.2,69.6C592.6,836.3,722.5,806.9,740,802.2z"
		/>
	<path fill="#FFAF3A" d="M1362.9,531.9c-0.9,0.9-1.8,1.8-2.7,2.7C1361.1,533.7,1362.1,532.8,1362.9,531.9z"/>
	<path fill="#FFAF3A" d="M1535.7,565.8c0.5,2.5,0.9,5.1,1.3,7.7C1536.5,571,1536.1,568.4,1535.7,565.8z"/>
	<path fill="#FFAF3A" d="M360.1,674c0.5-3.1,1.2-6.2,1.9-9.4C361.3,667.8,360.6,670.9,360.1,674z"/>
	<path fill="#FFAF3A" d="M1535.8,709.8c-3.4,25.6-8.5,52.7-15.5,81.1C1527.3,762.4,1532.4,735.3,1535.8,709.8z"/>
	<path fill="#FFAF3A" d="M1538.1,690.4c-0.5,4.5-0.9,9.1-1.5,13.7C1537.2,699.5,1537.7,695,1538.1,690.4z"/>
	<path fill="#FFAF3A" d="M1442.9,1001.3c-3.3,6.7-6.6,13.5-10,20.3C1436.3,1014.8,1439.6,1008.1,1442.9,1001.3z"/>
	<path fill="#FFAF3A" d="M1467.6,947.2c-2.7,6.3-5.4,12.5-8.2,18.9C1462.2,959.8,1464.9,953.5,1467.6,947.2z"/>
	<path fill="#FFAF3A" d="M1429.2,1028.5c-3.7,7.1-7.4,14.2-11.3,21.4C1421.9,1042.7,1425.6,1035.6,1429.2,1028.5z"/>
	<path fill="#FFAF3A" d="M359.3,728c-1.3-7.9-2-16.2-2-24.8C357.3,711.8,358,720,359.3,728z"/>
	<path fill="#FFAF3A" d="M1540.9,651.2c-0.1,3.8-0.3,7.5-0.5,11.4C1540.7,658.7,1540.8,655,1540.9,651.2z"/>
	<path fill="#FFAF3A" d="M1539.9,670.6c-0.3,4.1-0.6,8.2-1,12.4C1539.3,678.8,1539.6,674.7,1539.9,670.6z"/>
	<path fill="#FFAF3A" d="M786.4,306.2C703.2,349.6,555.5,466,562.1,630.7c0-332.8,602.7-503.7,620.7-314.8
		c18,188.9-161.9,332.8-233.9,251.9c-71.9-81,108-224.9,108-224.9S634.1,450.8,724,612.7c89.9,161.9,656.6-72,674.6-305.8
		c18-233.9-746.6-134.9-989.5,251.9c-5.6,8.9-10.6,17.5-15.2,26c2.1-3.9,4.3-7.8,6.6-11.7C488.4,457.5,674.3,349.5,786.4,306.2z"/>
	<path fill="#FFAF3A" d="M1455.7,974.2c-2.9,6.5-5.9,12.9-9.1,19.5C1449.7,987.1,1452.7,980.7,1455.7,974.2z"/>
	<path fill="#FFAF3A" d="M1506.2,493.8c0.7,0.8,1.4,1.5,2,2.4C1507.5,495.3,1506.8,494.6,1506.2,493.8z"/>
	<path fill="#FFAF3A" d="M1524.6,526c0.7,1.8,1.4,3.8,2,5.7C1525.9,529.8,1525.3,527.8,1524.6,526z"/>
	<path fill="#FFAF3A" d="M1029.2,1512c-8.9,7.3-17.8,14.7-26.9,22C1011.4,1526.6,1020.3,1519.3,1029.2,1512z"/>
	<path fill="#FFAF3A" d="M1061.8,1484.3c-8.1,7-16.2,14-24.5,20.9C1045.7,1498.3,1053.8,1491.3,1061.8,1484.3z"/>
	<path fill="#FFAF3A" d="M1519.7,514.9c0.7,1.5,1.4,3.2,2.1,4.7C1521.1,518.1,1520.4,516.4,1519.7,514.9z"/>
	<path fill="#FFAF3A" d="M1514.2,504.9c0.6,1,1.2,2.2,1.8,3.2C1515.4,507.1,1514.8,505.9,1514.2,504.9z"/>
	<path fill="#FFAF3A" d="M1478.6,920.5c-2.4,6.1-4.9,12.3-7.5,18.4C1473.6,932.8,1476.1,926.6,1478.6,920.5z"/>
	<path fill="#FFAF3A" d="M1308.5,1220.8c-6.1,8.2-12.4,16.4-18.8,24.6C1296.2,1237.1,1302.5,1228.9,1308.5,1220.8z"/>
	<path fill="#FFAF3A" d="M1498.8,486.1c0.9,0.9,1.9,1.6,2.8,2.5C1500.7,487.7,1499.7,486.9,1498.8,486.1z"/>
	<path fill="#FFAF3A" d="M997.3,1537.8c-43.8,34.7-90.6,68.7-140.8,101.8C906.7,1606.5,953.6,1572.5,997.3,1537.8z"/>
	<path fill="#FFAF3A" d="M1528.9,538.2c0.7,2.1,1.2,4.3,1.8,6.4C1530.1,542.5,1529.5,540.3,1528.9,538.2z"/>
	<path fill="#FFAF3A" d="M1400.6,1081.1c-26.2,45.5-56.6,92-91.4,138.8C1344,1173.1,1374.3,1126.6,1400.6,1081.1z"/>
	<path fill="#FFAF3A" d="M1532.6,551.5c0.6,2.3,1.1,4.7,1.6,7.1C1533.7,556.2,1533.1,553.8,1532.6,551.5z"/>
	<path opacity="0.55" fill="#FFDD30" d="M371.5,633c0.2-0.4,0.3-0.9,0.5-1.3C371.8,632.2,371.7,632.6,371.5,633z"/>
	<path opacity="0.55" fill="#FFDD30" d="M361,703.2c0-0.5,0-1,0-1.5C361,702.2,361,702.7,361,703.2z"/>
	<path opacity="0.55" fill="#FFDD30" d="M362,664.6c0.1-0.5,0.2-1.1,0.4-1.6C362.2,663.6,362.1,664.1,362,664.6z"/>
	<path opacity="0.55" fill="#FFDD30" d="M373,621C373,621,373,621,373,621C373,621,373,621,373,621z"/>
	<path opacity="0.55" fill="#FFDD30" d="M359.4,728.6c0-0.2-0.1-0.4-0.1-0.7C359.3,728.2,359.4,728.4,359.4,728.6z"/>
	<path opacity="0.55" fill="#FFDD30" d="M361,674C361,674,361,674,361,674C361,674,361,674,361,674z"/>
	<path opacity="0.55" fill="#FFDD30" d="M562.1,630.7c0,6.7,0.4,13,0.9,19.2C562.4,643.7,562.1,637.4,562.1,630.7z"/>
	<path opacity="0.55" fill="#FFDD30" d="M393.2,586.2c0.3-0.5,0.5-1,0.8-1.5C393.7,585.2,393.4,585.7,393.2,586.2z"/>
	<path opacity="0.55" fill="#FFDD30" d="M566.3,673.7c-0.2-0.7-0.2-1.5-0.4-2.2c-0.1-0.7-0.2-1.3-0.3-2c-1.1-5.6-1.8-11.4-2.4-17.4
		c0.7,7.7,1.7,15,3.2,22C566.4,674,566.4,673.9,566.3,673.7z"/>
	<path fill="#FFAF3A" d="M359.4,728.6c0.5,2.7,1,5.4,1.6,8c65.5,151,353.9,72.7,379,65.6c-17.5,4.8-147.5,34.1-173.6-128
		c-1.5-6.9-2.5-14.3-3.2-22c-0.1-0.8-0.2-1.5-0.2-2.3c-0.5-6.2-0.9-12.5-0.9-19.2c-6.6-164.7,141.1-281,224.3-324.5
		c-112.1,43.3-298,151.3-385.7,266.8c-2.3,4-4.5,7.9-6.6,11.7c-0.3,0.5-2.2,1-2.4,1.5c-6.6,12.1-6.5,23.7-18.5,34.8c0,0,0,0,0,0
		c0,3.6-1.3,7.2-2.6,10.7c-0.2,0.4,0.5,0.9,0.3,1.3c-3.9,10.4-6.5,20.4-8.8,30c-0.1,0.5,0.4,1.1,0.3,1.6c-0.7,3.2-1.2,6.3-1.2,9.4
		c0,0,0,0,0,0c0,9.6,0,18.8,0,27.7c0,0.5,0,1,0,1.5c0,8.6-1.2,16.8,0.1,24.8C361.2,728.2,359.4,728.4,359.4,728.6z"/>
	<path opacity="0.55" fill="#FFDD30" d="M359.4,728.6c0.5,2.7,1,5.4,1.6,8c65.5,151,353.9,72.7,379,65.6
		c-17.5,4.8-147.5,34.1-173.6-128c-1.5-6.9-2.5-14.3-3.2-22c-0.1-0.8-0.2-1.5-0.2-2.3c-0.5-6.2-0.9-12.5-0.9-19.2
		c-6.6-164.7,141.1-281,224.3-324.5c-112.1,43.3-298,151.3-385.7,266.8c-2.3,4-4.5,7.9-6.6,11.7c-0.3,0.5-2.2,1-2.4,1.5
		c-6.6,12.1-6.5,23.7-18.5,34.8c0,0,0,0,0,0c0,3.6-1.3,7.2-2.6,10.7c-0.2,0.4,0.5,0.9,0.3,1.3c-3.9,10.4-6.5,20.4-8.8,30
		c-0.1,0.5,0.4,1.1,0.3,1.6c-0.7,3.2-1.2,6.3-1.2,9.4c0,0,0,0,0,0c0,9.6,0,18.8,0,27.7c0,0.5,0,1,0,1.5c0,8.6-1.2,16.8,0.1,24.8
		C361.2,728.2,359.4,728.4,359.4,728.6z"/>
	<path fill="#FFAF3A" d="M740,802.2c1.3-0.3,1.9-0.6,1.9-0.6S741.2,801.9,740,802.2z"/>
	<path opacity="0.55" fill="#FFDD30" d="M740,802.2c1.3-0.3,1.9-0.6,1.9-0.6S741.2,801.9,740,802.2z"/>
	<path opacity="0.55" fill="#FFDD30" d="M1432.2,476.2c1.9-0.8,3.7-1.5,5.6-2.1C1436,474.7,1434.1,475.5,1432.2,476.2z"/>
	<path opacity="0.55" fill="#FFDD30" d="M1452.1,470.8c1.7-0.2,3.4-0.4,5.1-0.4C1455.5,470.5,1453.8,470.6,1452.1,470.8z"/>
	<path opacity="0.55" fill="#FFDD30" d="M1387.3,506.9c2.5-2.4,5-4.7,7.5-6.9C1392.4,502.2,1389.9,504.5,1387.3,506.9z"/>
	<path opacity="0.55" fill="#FFDD30" d="M1410.8,487.9c2.1-1.4,4.1-2.8,6.1-4C1414.9,485.1,1412.9,486.5,1410.8,487.9z"/>
	<path opacity="0.55" fill="#FFDD30" d="M1399.5,496.3c2.2-1.8,4.4-3.6,6.6-5.2C1403.9,492.8,1401.7,494.6,1399.5,496.3z"/>
	<path opacity="0.55" fill="#FFDD30" d="M1371.7,522.7c3.9-4.4,7.9-8.4,11.7-12.2C1379.5,514.3,1375.6,518.4,1371.7,522.7z"/>
	<path opacity="0.55" fill="#FFDD30" d="M1421.7,481.3c2-1.1,3.9-2.1,5.8-3C1425.6,479.2,1423.7,480.2,1421.7,481.3z"/>
	<path opacity="0.55" fill="#FFDD30" d="M1442.4,472.8c1.8-0.5,3.6-0.9,5.3-1.3C1445.9,471.8,1444.2,472.3,1442.4,472.8z"/>
	<path opacity="0.55" fill="#FFDD30" d="M1353.1,541.5c2.4-2.3,4.8-4.6,7.1-6.8C1357.9,536.9,1355.6,539.2,1353.1,541.5z"/>
	<path opacity="0.55" fill="#FFDD30" d="M1461.5,470.3c1.7,0,3.3,0.2,4.9,0.4C1464.7,470.5,1463.1,470.4,1461.5,470.3z"/>
	<path opacity="0.55" fill="#FFDD30" d="M1520.3,790.9c-0.2,0.9-0.4,1.8-0.7,2.8C1519.9,792.7,1520.1,791.8,1520.3,790.9z"/>
	<path opacity="0.55" fill="#FFDD30" d="M1271.6,604.6c4.7-3.1,9.3-6.2,13.8-9.3C1280.9,598.3,1276.3,601.4,1271.6,604.6z"/>
	<path opacity="0.55" fill="#FFDD30" d="M1432.8,1021.6c-1.2,2.3-2.4,4.6-3.6,6.9C1430.4,1026.2,1431.7,1023.9,1432.8,1021.6z"/>
	<path opacity="0.55" fill="#FFDD30" d="M851.7,1642.9c1.6-1.1,3.2-2.2,4.8-3.2c-1.7,1.1-3.3,2.3-5,3.4
		C851.6,1643,851.7,1642.9,851.7,1642.9z"/>
	<path opacity="0.55" fill="#FFDD30" d="M1371.7,522.7c-2.8,3-5.7,6.1-8.7,9.2C1366,528.9,1368.9,525.8,1371.7,522.7z"/>
	<path opacity="0.55" fill="#FFDD30" d="M1286.7,594.3c4.8-3.3,9.5-6.7,14.1-10C1296.3,587.6,1291.5,590.9,1286.7,594.3z"/>
	<path opacity="0.55" fill="#FFDD30" d="M1328.6,562.9c3.7-3,7.3-6.1,10.8-9.1C1335.9,556.8,1332.3,559.9,1328.6,562.9z"/>
	<path opacity="0.55" fill="#FFDD30" d="M1342,551.5c2.8-2.4,5.4-4.8,8-7.2C1347.5,546.7,1344.8,549.1,1342,551.5z"/>
	<path opacity="0.55" fill="#FFDD30" d="M1301,584.1c9.6-7,18.6-13.9,27.1-20.8C1319.6,570.2,1310.5,577.2,1301,584.1z"/>
	<path opacity="0.55" fill="#FFDD30" d="M1536.6,704.1c-0.2,1.9-0.5,3.8-0.8,5.6C1536.1,707.9,1536.4,706,1536.6,704.1z"/>
	<path opacity="0.55" fill="#FFDD30" d="M1540.4,662.6c-0.2,2.6-0.4,5.3-0.6,8C1540.1,667.9,1540.3,665.2,1540.4,662.6z"/>
	<path opacity="0.55" fill="#FFDD30" d="M1530.7,544.7c0.6,2.3,1.3,4.5,1.9,6.9C1532,549.2,1531.4,546.9,1530.7,544.7z"/>
	<path opacity="0.55" fill="#FFDD30" d="M1534.2,558.6c0.5,2.4,1,4.8,1.5,7.2C1535.2,563.4,1534.7,561,1534.2,558.6z"/>
	<path opacity="0.55" fill="#FFDD30" d="M1037.3,1505.3c-2.7,2.2-5.4,4.4-8.1,6.7C1031.9,1509.7,1034.7,1507.5,1037.3,1505.3z"/>
	<path opacity="0.55" fill="#FFDD30" d="M1539.1,589.6c0.3,2.6,0.5,5.2,0.8,7.8C1539.6,594.7,1539.4,592.1,1539.1,589.6z"/>
	<path opacity="0.55" fill="#FFDD30" d="M1537,573.6c0.4,2.5,0.8,5,1.1,7.6C1537.7,578.6,1537.4,576.1,1537,573.6z"/>
	<path opacity="0.55" fill="#FFDD30" d="M1540.5,606.5c0.2,2.7,0.3,5.4,0.4,8.1C1540.8,611.8,1540.7,609.1,1540.5,606.5z"/>
	<path opacity="0.55" fill="#FFDD30" d="M1541.2,643c-0.1,2.7-0.2,5.5-0.3,8.2C1541,648.5,1541.2,645.7,1541.2,643z"/>
	<path opacity="0.55" fill="#FFDD30" d="M1538.9,683c-0.2,2.5-0.5,5-0.8,7.5C1538.4,687.9,1538.7,685.4,1538.9,683z"/>
	<path opacity="0.55" fill="#FFDD30" d="M1470.4,471.3c1.6,0.3,3.2,0.7,4.7,1.2C1473.6,472,1472,471.6,1470.4,471.3z"/>
	<path opacity="0.55" fill="#FFDD30" d="M1486.9,477.3c1.5,0.8,2.9,1.8,4.4,2.8C1489.9,479.1,1488.4,478.1,1486.9,477.3z"/>
	<path opacity="0.55" fill="#FFDD30" d="M1494.5,482.3c1.5,1.1,2.9,2.5,4.3,3.8C1497.4,484.8,1496,483.5,1494.5,482.3z"/>
	<path opacity="0.55" fill="#FFDD30" d="M1501.6,488.6c1.6,1.6,3.1,3.4,4.5,5.2C1504.7,492,1503.2,490.2,1501.6,488.6z"/>
	<path opacity="0.55" fill="#FFDD30" d="M1478.9,473.6c1.5,0.6,3.1,1.3,4.6,2C1481.9,474.9,1480.4,474.2,1478.9,473.6z"/>
	<path opacity="0.55" fill="#FFDD30" d="M1541.2,624.3c0.1,2.7,0.1,5.5,0.1,8.2C1541.3,629.7,1541.3,627,1541.2,624.3z"/>
	<path opacity="0.55" fill="#FFDD30" d="M1516,508.2c1.3,2.2,2.5,4.4,3.7,6.7C1518.5,512.5,1517.2,510.4,1516,508.2z"/>
	<path opacity="0.55" fill="#FFDD30" d="M1508.2,496.2c2.1,2.7,4.1,5.6,6,8.7C1512.3,501.8,1510.3,498.9,1508.2,496.2z"/>
	<path opacity="0.55" fill="#FFDD30" d="M1521.8,519.6c0.9,2.1,1.9,4.2,2.8,6.4C1523.7,523.8,1522.7,521.7,1521.8,519.6z"/>
	<path opacity="0.55" fill="#FFDD30" d="M1526.6,531.7c0.8,2.2,1.6,4.3,2.3,6.5C1528.2,536,1527.4,533.8,1526.6,531.7z"/>
	<path opacity="0.55" fill="#FFDD30" d="M1002.3,1533.9c-1.6,1.3-3.3,2.6-5,3.9C999,1536.5,1000.7,1535.2,1002.3,1533.9z"/>
	<path opacity="0.55" fill="#FFDD30" d="M1402.1,1078.5c-0.5,0.9-1,1.8-1.5,2.6C1401.1,1080.2,1401.6,1079.3,1402.1,1078.5z"/>
	<path opacity="0.55" fill="#FFDD30" d="M1471.1,938.9c-1.1,2.8-2.3,5.5-3.5,8.3C1468.8,944.5,1469.9,941.7,1471.1,938.9z"/>
	<path opacity="0.55" fill="#FFDD30" d="M1481.8,912.3c-1.1,2.7-2.1,5.5-3.2,8.2C1479.7,917.8,1480.7,915,1481.8,912.3z"/>
	<path opacity="0.55" fill="#FFDD30" d="M1309.2,1219.9c-0.2,0.3-0.4,0.6-0.6,0.9C1308.8,1220.5,1309,1220.2,1309.2,1219.9z"/>
	<path opacity="0.55" fill="#FFDD30" d="M1459.4,966.1c-1.2,2.7-2.4,5.4-3.7,8.1C1456.9,971.5,1458.1,968.8,1459.4,966.1z"/>
	<path opacity="0.55" fill="#FFDD30" d="M1071,1476.4c-3,2.6-6.1,5.3-9.2,7.9C1064.9,1481.7,1068,1479.1,1071,1476.4z"/>
	<path opacity="0.55" fill="#FFDD30" d="M1446.6,993.6c-1.2,2.6-2.5,5.1-3.7,7.7C1444.1,998.8,1445.4,996.2,1446.6,993.6z"/>
	<path opacity="0.55" fill="#FFDD30" d="M1134.1,1418.2c-3.1,3-6.2,5.9-9.3,8.9C1127.9,1424.1,1131.1,1421.2,1134.1,1418.2z"/>
	<path opacity="0.55" fill="#FFDD30" d="M1418,1049.9c-1,1.8-2,3.7-3,5.5C1416,1053.6,1417,1051.7,1418,1049.9z"/>
	<path opacity="0.55" fill="#FFDD30" d="M1289.8,1245.3c-1.3,1.7-2.6,3.3-3.9,5C1287.2,1248.7,1288.5,1247,1289.8,1245.3z"/>
	<path opacity="0.55" fill="#FFDD30" d="M1508,835.9c-0.7,2.3-1.4,4.6-2.1,6.9C1506.7,840.5,1507.3,838.2,1508,835.9z"/>
	<path opacity="0.55" fill="#FFDD30" d="M1103.3,1447.4c-3.1,2.9-6.3,5.7-9.5,8.6C1097,1453.1,1100.2,1450.2,1103.3,1447.4z"/>
	<path opacity="0.55" fill="#FFDD30" d="M1218.5,1330.6c-2.6,2.9-5.1,5.7-7.7,8.6C1213.4,1336.3,1216,1333.4,1218.5,1330.6z"/>
	<path opacity="0.55" fill="#FFDD30" d="M1514.8,812.3c-0.5,1.9-1,3.8-1.5,5.7C1513.8,816.1,1514.3,814.2,1514.8,812.3z"/>
	<path opacity="0.55" fill="#FFDD30" d="M1191.8,1359.7c-2.8,3-5.6,5.9-8.4,8.9C1186.2,1365.7,1189,1362.7,1191.8,1359.7z"/>
	<path opacity="0.55" fill="#FFDD30" d="M1163.6,1389c-3,3-5.9,6-8.9,9C1157.7,1395,1160.7,1392,1163.6,1389z"/>
	<path opacity="0.55" fill="#FFDD30" d="M1267.7,1273c-1.9,2.3-3.7,4.6-5.6,6.9C1264,1277.6,1265.8,1275.3,1267.7,1273z"/>
	<path opacity="0.55" fill="#FFDD30" d="M1491.5,886.2c-1,2.7-1.9,5.3-2.9,8C1489.6,891.5,1490.5,888.8,1491.5,886.2z"/>
	<path opacity="0.55" fill="#FFDD30" d="M1500.3,860.7c-0.8,2.6-1.7,5.1-2.5,7.7C1498.6,865.7,1499.4,863.2,1500.3,860.7z"/>
	<path opacity="0.55" fill="#FFDD30" d="M1243.9,1301.6c-2.3,2.7-4.5,5.3-6.8,8C1239.4,1306.9,1241.6,1304.3,1243.9,1301.6z"/>
	<path fill="#FFAF3A" d="M1176.9,835c56.4,71,75.7,278.3-165,614.3c0,0,2.6-5.7,6.8-16C899.6,1615.1,751,1701.1,751,1701.1
		c35-18.9,68.4-38.3,100.6-58.1c1.7-1.1,3.3-2.2,5-3.4c50.1-33.2,97-67.2,140.8-101.8c1.6-1.3,3.3-2.6,5-3.9
		c9.1-7.3,18.1-14.6,26.9-22c2.7-2.2,5.4-4.4,8.1-6.7c8.3-7,16.4-13.9,24.5-20.9c3-2.6,6.1-5.3,9.2-7.9c7.7-6.8,15.3-13.6,22.8-20.4
		c3.2-2.9,6.4-5.7,9.5-8.6c7.3-6.7,14.5-13.5,21.6-20.3c3.1-3,6.2-5.9,9.3-8.9c7-6.7,13.8-13.5,20.6-20.3c3-3,6-6,8.9-9
		c6.7-6.8,13.3-13.6,19.7-20.4c2.8-3,5.6-5.9,8.4-8.9c6.4-6.9,12.8-13.7,19.1-20.6c2.6-2.9,5.1-5.7,7.7-8.6c6.3-7,12.5-14,18.5-21
		c2.3-2.7,4.5-5.3,6.8-8c6.2-7.2,12.3-14.4,18.2-21.7c1.9-2.3,3.7-4.6,5.6-6.9c6.2-7.6,12.3-15.1,18.2-22.7c1.3-1.7,2.6-3.3,3.9-5
		c6.4-8.2,12.7-16.4,18.8-24.6c0.2-0.3,0.4-0.6,0.6-0.9c34.8-46.8,65.1-93.3,91.4-138.8c0.5-0.9,1-1.8,1.5-2.6
		c4.4-7.7,8.7-15.4,12.9-23.1c1-1.8,2.1-3.7,3-5.5c3.9-7.2,7.6-14.3,11.3-21.4c1.2-2.3,2.4-4.6,3.6-6.9c3.5-6.8,6.8-13.5,10-20.3
		c1.2-2.6,2.5-5.1,3.7-7.7c3.1-6.5,6.1-13,9.1-19.5c1.2-2.7,2.5-5.4,3.7-8.1c2.8-6.3,5.6-12.6,8.2-18.9c1.2-2.8,2.3-5.5,3.5-8.3
		c2.6-6.2,5.1-12.3,7.5-18.4c1.1-2.7,2.1-5.5,3.2-8.2c2.3-6.1,4.6-12.1,6.8-18.1c1-2.7,1.9-5.4,2.9-8c2.1-6,4.2-11.9,6.2-17.8
		c0.9-2.6,1.7-5.1,2.5-7.7c2-6,3.9-11.9,5.7-17.8c0.7-2.3,1.4-4.6,2.1-6.9c1.8-6,3.6-12,5.2-18c0.5-1.9,1-3.8,1.5-5.7
		c1.7-6.3,3.4-12.5,4.9-18.7c0.2-0.9,0.4-1.8,0.7-2.8c7-28.4,12.1-55.5,15.5-81.1c0.3-1.9,0.6-3.8,0.8-5.6c0.6-4.6,1-9.2,1.5-13.7
		c0.3-2.5,0.6-5,0.8-7.5c0.4-4.2,0.7-8.3,1-12.4c0.2-2.7,0.4-5.4,0.6-8c0.2-3.9,0.4-7.6,0.5-11.4c0.1-2.7,0.2-5.5,0.3-8.2
		c0.1-3.6,0.1-7,0.1-10.5c0-2.8,0-5.5-0.1-8.2c-0.1-3.3-0.2-6.5-0.3-9.8c-0.1-2.7-0.2-5.4-0.4-8.1c-0.2-3.1-0.4-6.1-0.7-9.1
		c-0.2-2.6-0.5-5.3-0.8-7.8c-0.3-2.8-0.6-5.6-1-8.4c-0.3-2.6-0.7-5.1-1.1-7.6c-0.4-2.6-0.8-5.2-1.3-7.7c-0.5-2.5-1-4.9-1.5-7.2
		c-0.5-2.4-1-4.8-1.6-7.1c-0.6-2.4-1.2-4.6-1.9-6.9c-0.6-2.2-1.2-4.3-1.8-6.4c-0.7-2.3-1.5-4.4-2.3-6.5c-0.7-1.9-1.3-3.9-2-5.7
		c-0.9-2.2-1.8-4.3-2.8-6.4c-0.7-1.6-1.4-3.2-2.1-4.7c-1.2-2.4-2.4-4.5-3.7-6.7c-0.6-1.1-1.2-2.2-1.8-3.2c-1.9-3.1-3.9-6-6-8.7
		c-0.7-0.9-1.4-1.6-2-2.4c-1.5-1.8-3-3.6-4.5-5.2c-0.9-0.9-1.9-1.7-2.8-2.5c-1.4-1.3-2.8-2.6-4.3-3.8c-1-0.8-2.1-1.5-3.2-2.2
		c-1.4-1-2.9-2-4.4-2.8c-1.1-0.6-2.3-1.2-3.5-1.7c-1.5-0.7-3-1.4-4.6-2c-1.2-0.5-2.5-0.8-3.8-1.2c-1.6-0.4-3.1-0.9-4.7-1.2
		c-1.3-0.3-2.7-0.4-4-0.6c-1.6-0.2-3.3-0.3-4.9-0.4c-1.4,0-2.8,0-4.2,0.1c-1.7,0.1-3.4,0.2-5.1,0.4c-1.5,0.2-2.9,0.4-4.4,0.7
		c-1.8,0.3-3.5,0.8-5.3,1.3c-1.5,0.4-3,0.8-4.6,1.4c-1.8,0.6-3.7,1.3-5.6,2.1c-1.6,0.6-3.1,1.3-4.7,2c-1.9,0.9-3.9,2-5.8,3
		c-1.6,0.9-3.2,1.7-4.8,2.7c-2,1.2-4.1,2.6-6.1,4c-1.6,1.1-3.2,2.1-4.8,3.3c-2.2,1.6-4.4,3.4-6.6,5.2c-1.5,1.2-3.1,2.4-4.6,3.7
		c-2.5,2.1-5,4.5-7.5,6.9c-1.3,1.2-2.6,2.3-3.9,3.6c-3.9,3.8-7.8,7.8-11.7,12.2c-2.8,3-5.7,6.1-8.7,9.2c-0.9,0.9-1.8,1.8-2.7,2.7
		c-2.3,2.3-4.6,4.5-7.1,6.8c-1,1-2.1,1.9-3.1,2.9c-2.6,2.4-5.3,4.8-8,7.2c-0.9,0.8-1.8,1.5-2.6,2.3c-3.5,3-7.1,6-10.8,9.1
		c-0.2,0.2-0.4,0.3-0.6,0.5c-8.5,6.9-17.5,13.8-27.1,20.8c0,0-0.1,0.1-0.1,0.1c-4.6,3.3-9.3,6.7-14.1,10c-0.5,0.3-0.9,0.6-1.4,1
		c-4.5,3.1-9.1,6.2-13.8,9.3c-0.3,0.2-0.7,0.4-1,0.7C1229.6,662.7,1194.6,738.1,1176.9,835z"/>
	<path opacity="0.55" fill="#FFDD30" d="M1176.9,835c56.4,71,75.7,278.3-165,614.3c0,0,2.6-5.7,6.8-16
		C899.6,1615.1,751,1701.1,751,1701.1c35-18.9,68.4-38.3,100.6-58.1c1.7-1.1,3.3-2.2,5-3.4c50.1-33.2,97-67.2,140.8-101.8
		c1.6-1.3,3.3-2.6,5-3.9c9.1-7.3,18.1-14.6,26.9-22c2.7-2.2,5.4-4.4,8.1-6.7c8.3-7,16.4-13.9,24.5-20.9c3-2.6,6.1-5.3,9.2-7.9
		c7.7-6.8,15.3-13.6,22.8-20.4c3.2-2.9,6.4-5.7,9.5-8.6c7.3-6.7,14.5-13.5,21.6-20.3c3.1-3,6.2-5.9,9.3-8.9
		c7-6.7,13.8-13.5,20.6-20.3c3-3,6-6,8.9-9c6.7-6.8,13.3-13.6,19.7-20.4c2.8-3,5.6-5.9,8.4-8.9c6.4-6.9,12.8-13.7,19.1-20.6
		c2.6-2.9,5.1-5.7,7.7-8.6c6.3-7,12.5-14,18.5-21c2.3-2.7,4.5-5.3,6.8-8c6.2-7.2,12.3-14.4,18.2-21.7c1.9-2.3,3.7-4.6,5.6-6.9
		c6.2-7.6,12.3-15.1,18.2-22.7c1.3-1.7,2.6-3.3,3.9-5c6.4-8.2,12.7-16.4,18.8-24.6c0.2-0.3,0.4-0.6,0.6-0.9
		c34.8-46.8,65.1-93.3,91.4-138.8c0.5-0.9,1-1.8,1.5-2.6c4.4-7.7,8.7-15.4,12.9-23.1c1-1.8,2.1-3.7,3-5.5
		c3.9-7.2,7.6-14.3,11.3-21.4c1.2-2.3,2.4-4.6,3.6-6.9c3.5-6.8,6.8-13.5,10-20.3c1.2-2.6,2.5-5.1,3.7-7.7c3.1-6.5,6.1-13,9.1-19.5
		c1.2-2.7,2.5-5.4,3.7-8.1c2.8-6.3,5.6-12.6,8.2-18.9c1.2-2.8,2.3-5.5,3.5-8.3c2.6-6.2,5.1-12.3,7.5-18.4c1.1-2.7,2.1-5.5,3.2-8.2
		c2.3-6.1,4.6-12.1,6.8-18.1c1-2.7,1.9-5.4,2.9-8c2.1-6,4.2-11.9,6.2-17.8c0.9-2.6,1.7-5.1,2.5-7.7c2-6,3.9-11.9,5.7-17.8
		c0.7-2.3,1.4-4.6,2.1-6.9c1.8-6,3.6-12,5.2-18c0.5-1.9,1-3.8,1.5-5.7c1.7-6.3,3.4-12.5,4.9-18.7c0.2-0.9,0.4-1.8,0.7-2.8
		c7-28.4,12.1-55.5,15.5-81.1c0.3-1.9,0.6-3.8,0.8-5.6c0.6-4.6,1-9.2,1.5-13.7c0.3-2.5,0.6-5,0.8-7.5c0.4-4.2,0.7-8.3,1-12.4
		c0.2-2.7,0.4-5.4,0.6-8c0.2-3.9,0.4-7.6,0.5-11.4c0.1-2.7,0.2-5.5,0.3-8.2c0.1-3.6,0.1-7,0.1-10.5c0-2.8,0-5.5-0.1-8.2
		c-0.1-3.3-0.2-6.5-0.3-9.8c-0.1-2.7-0.2-5.4-0.4-8.1c-0.2-3.1-0.4-6.1-0.7-9.1c-0.2-2.6-0.5-5.3-0.8-7.8c-0.3-2.8-0.6-5.6-1-8.4
		c-0.3-2.6-0.7-5.1-1.1-7.6c-0.4-2.6-0.8-5.2-1.3-7.7c-0.5-2.5-1-4.9-1.5-7.2c-0.5-2.4-1-4.8-1.6-7.1c-0.6-2.4-1.2-4.6-1.9-6.9
		c-0.6-2.2-1.2-4.3-1.8-6.4c-0.7-2.3-1.5-4.4-2.3-6.5c-0.7-1.9-1.3-3.9-2-5.7c-0.9-2.2-1.8-4.3-2.8-6.4c-0.7-1.6-1.4-3.2-2.1-4.7
		c-1.2-2.4-2.4-4.5-3.7-6.7c-0.6-1.1-1.2-2.2-1.8-3.2c-1.9-3.1-3.9-6-6-8.7c-0.7-0.9-1.4-1.6-2-2.4c-1.5-1.8-3-3.6-4.5-5.2
		c-0.9-0.9-1.9-1.7-2.8-2.5c-1.4-1.3-2.8-2.6-4.3-3.8c-1-0.8-2.1-1.5-3.2-2.2c-1.4-1-2.9-2-4.4-2.8c-1.1-0.6-2.3-1.2-3.5-1.7
		c-1.5-0.7-3-1.4-4.6-2c-1.2-0.5-2.5-0.8-3.8-1.2c-1.6-0.4-3.1-0.9-4.7-1.2c-1.3-0.3-2.7-0.4-4-0.6c-1.6-0.2-3.3-0.3-4.9-0.4
		c-1.4,0-2.8,0-4.2,0.1c-1.7,0.1-3.4,0.2-5.1,0.4c-1.5,0.2-2.9,0.4-4.4,0.7c-1.8,0.3-3.5,0.8-5.3,1.3c-1.5,0.4-3,0.8-4.6,1.4
		c-1.8,0.6-3.7,1.3-5.6,2.1c-1.6,0.6-3.1,1.3-4.7,2c-1.9,0.9-3.9,2-5.8,3c-1.6,0.9-3.2,1.7-4.8,2.7c-2,1.2-4.1,2.6-6.1,4
		c-1.6,1.1-3.2,2.1-4.8,3.3c-2.2,1.6-4.4,3.4-6.6,5.2c-1.5,1.2-3.1,2.4-4.6,3.7c-2.5,2.1-5,4.5-7.5,6.9c-1.3,1.2-2.6,2.3-3.9,3.6
		c-3.9,3.8-7.8,7.8-11.7,12.2c-2.8,3-5.7,6.1-8.7,9.2c-0.9,0.9-1.8,1.8-2.7,2.7c-2.3,2.3-4.6,4.5-7.1,6.8c-1,1-2.1,1.9-3.1,2.9
		c-2.6,2.4-5.3,4.8-8,7.2c-0.9,0.8-1.8,1.5-2.6,2.3c-3.5,3-7.1,6-10.8,9.1c-0.2,0.2-0.4,0.3-0.6,0.5c-8.5,6.9-17.5,13.8-27.1,20.8
		c0,0-0.1,0.1-0.1,0.1c-4.6,3.3-9.3,6.7-14.1,10c-0.5,0.3-0.9,0.6-1.4,1c-4.5,3.1-9.1,6.2-13.8,9.3c-0.3,0.2-0.7,0.4-1,0.7
		C1229.6,662.7,1194.6,738.1,1176.9,835z"/>
	<path fill="#FFDD30" d="M1176.9,835c-44.8-56.4-112.9-26.8-93,92.6c38.3,229.8-40.8,446.5-65.1,505.8c-4.2,10.3-6.8,16-6.8,16
		C1252.6,1113.3,1233.3,906,1176.9,835z"/>
	<path fill="#6CAB36" d="M861.3,1278.5c0.2,1.8,0.4,3.5,0.6,5.2C861.7,1282,861.6,1280.3,861.3,1278.5z"/>
	<path fill="#6CAB36" d="M863.7,1302.3c0.2,2.2,0.3,4.4,0.4,6.6C863.9,1306.7,863.8,1304.5,863.7,1302.3z"/>
	<path fill="#6CAB36" d="M856.5,1250.2c0.3,1.4,0.6,2.8,0.9,4.2C857.1,1253,856.8,1251.6,856.5,1250.2z"/>
	<path fill="#6CAB36" d="M762.1,1593.6c-0.6,0.7-1.2,1.4-1.7,2.1C760.9,1595.1,761.5,1594.3,762.1,1593.6z"/>
	<path fill="#6CAB36" d="M849.7,1222c0.7,2.6,1.5,5.2,2.1,7.8C851.1,1227.2,850.4,1224.6,849.7,1222z"/>
	<path fill="#6CAB36" d="M715.8,1643c5.5-5.2,11.4-10.9,17.6-17.3C727.2,1632.1,721.3,1637.9,715.8,1643z"/>
	<path fill="#6CAB36" d="M742.1,1616.5c-1.5,1.6-2.9,3.1-4.3,4.6C739.2,1619.6,740.6,1618.1,742.1,1616.5z"/>
	<path fill="#6CAB36" d="M140.4,1368.4c-0.5,0.4-0.9,0.7-1.1,0.8C139.5,1369.1,139.9,1368.8,140.4,1368.4z"/>
	<path fill="#6CAB36" d="M143.4,1365.4c-1,1-1.8,1.8-2.5,2.4C141.6,1367.3,142.4,1366.4,143.4,1365.4z"/>
	<path fill="#6CAB36" d="M841.6,1196.2c0.9,2.5,1.7,5.1,2.5,7.6C843.3,1201.2,842.5,1198.7,841.6,1196.2z"/>
	<path fill="#6CAB36" d="M679,1674.1c0,0,14.7-10.5,35.7-30.2c33-48.5,143.4-236.3,27.2-437.6c-123-213.2-500.1-134.7-593,153.5
		c-0.2,0.2-0.4,0.4-0.6,0.6c36.3-36.5,175.9-170.4,377.7-118.1C769,1305.3,751,1539.2,679,1674.1z"/>
	<path fill="#6CAB36" d="M139.1,1369.3c-0.1,0-0.1-0.3,0.2-1C139,1369,139,1369.2,139.1,1369.3z"/>
	<path fill="#6CAB36" d="M751.2,1606.4c-1.3,1.4-2.5,2.8-3.8,4.2C748.7,1609.2,749.9,1607.9,751.2,1606.4z"/>
	<path fill="#6CAB36" d="M846.4,1442.9c-0.3,1.1-0.7,2.1-1.1,3.2C845.7,1445,846.1,1443.9,846.4,1442.9z"/>
	<path fill="#6CAB36" d="M822.2,1502c-0.2,0.5-0.5,1-0.7,1.4C821.7,1502.9,822,1502.5,822.2,1502z"/>
	<path fill="#6CAB36" d="M861.4,1376.2c-0.2,1.6-0.5,3.3-0.7,4.9C860.9,1379.4,861.2,1377.8,861.4,1376.2z"/>
	<path fill="#6CAB36" d="M782.9,1566.7c-0.9,1.2-1.8,2.4-2.6,3.6C781.1,1569.1,782,1567.9,782.9,1566.7z"/>
	<path fill="#6CAB36" d="M857.8,1398.1c-0.3,1.4-0.5,2.9-0.8,4.3C857.3,1401,857.5,1399.6,857.8,1398.1z"/>
	<path fill="#6CAB36" d="M839.7,1462.1c-0.5,1.3-1,2.5-1.5,3.8C838.7,1464.7,839.2,1463.4,839.7,1462.1z"/>
	<path fill="#6CAB36" d="M831.2,1482.8c-0.2,0.3-0.3,0.7-0.5,1.1C830.9,1483.6,831,1483.2,831.2,1482.8z"/>
	<path fill="#6CAB36" d="M803.8,1535.1c-0.5,0.9-1.1,1.8-1.6,2.7C802.7,1536.9,803.3,1536,803.8,1535.1z"/>
	<path fill="#6CAB36" d="M864.5,1327.1c0,1.6,0.1,3.1,0,4.7C864.6,1330.2,864.5,1328.7,864.5,1327.1z"/>
	<path fill="#6CAB36" d="M813.5,1518.5c-0.7,1.2-1.3,2.3-2,3.5C812.2,1520.8,812.8,1519.6,813.5,1518.5z"/>
	<path fill="#6CAB36" d="M773,1579.9c-1,1.3-1.9,2.5-2.9,3.8C771,1582.4,772,1581.2,773,1579.9z"/>
	<path fill="#6CAB36" d="M863.7,1354.5c0,0.3-0.1,0.6-0.1,0.9C863.6,1355.1,863.6,1354.8,863.7,1354.5z"/>
	<path opacity="0.28" fill="#007045" d="M802.2,1537.8c-6.3,10.2-12.8,19.8-19.3,28.9C789.4,1557.6,795.9,1547.9,802.2,1537.8z"/>
	<path opacity="0.28" fill="#007045" d="M860.7,1381.1c-0.8,5.8-1.8,11.4-2.9,17.1C858.9,1392.5,859.9,1386.8,860.7,1381.1z"/>
	<path opacity="0.28" fill="#007045" d="M845.3,1446c-1.8,5.4-3.7,10.8-5.7,16.1C841.6,1456.8,843.5,1451.5,845.3,1446z"/>
	<path opacity="0.28" fill="#007045" d="M830.7,1483.9c-2.7,6.2-5.6,12.2-8.5,18.1C825.2,1496.1,828,1490.1,830.7,1483.9z"/>
	<path opacity="0.28" fill="#007045" d="M857,1402.4c-2.9,13.9-6.4,27.4-10.6,40.5C850.6,1429.9,854.1,1416.4,857,1402.4z"/>
	<path opacity="0.28" fill="#007045" d="M838.2,1465.9c-2.2,5.7-4.6,11.4-7,16.9C833.6,1477.3,836,1471.7,838.2,1465.9z"/>
	<path opacity="0.28" fill="#007045" d="M737.7,1621.1c-1.5,1.6-2.9,3.1-4.4,4.6C734.8,1624.2,736.2,1622.7,737.7,1621.1z"/>
	<path opacity="0.28" fill="#007045" d="M780.2,1570.3c-2.4,3.3-4.8,6.5-7.2,9.6C775.4,1576.8,777.8,1573.6,780.2,1570.3z"/>
	<path opacity="0.28" fill="#007045" d="M821.5,1503.4c-2.6,5.1-5.3,10.1-8,15.1C816.2,1513.5,818.9,1508.5,821.5,1503.4z"/>
	<path opacity="0.28" fill="#007045" d="M140.9,1367.9c-0.2,0.2-0.4,0.3-0.6,0.5C140.6,1368.2,140.7,1368.1,140.9,1367.9z"/>
	<path opacity="0.28" fill="#007045" d="M851.8,1229.8c1.8,6.9,3.3,13.6,4.7,20.4C855.1,1243.4,853.5,1236.7,851.8,1229.8z"/>
	<path opacity="0.28" fill="#007045" d="M760.3,1595.8c-3.1,3.7-6.1,7.2-9.2,10.7C754.2,1603,757.2,1599.4,760.3,1595.8z"/>
	<path opacity="0.28" fill="#007045" d="M857.4,1254.3c1.6,8.2,2.9,16.2,3.9,24.2C860.3,1270.5,859,1262.5,857.4,1254.3z"/>
	<path opacity="0.28" fill="#007045" d="M747.4,1610.6c-1.8,2-3.6,4-5.4,5.9C743.8,1614.6,745.6,1612.6,747.4,1610.6z"/>
	<path opacity="0.28" fill="#007045" d="M139.3,1369.2c-0.1,0-0.2,0.1-0.2,0.1C139.1,1369.3,139.2,1369.3,139.3,1369.2z"/>
	<path opacity="0.28" fill="#007045" d="M832,1170.4c3.6,8.7,6.7,17.3,9.7,25.8C838.7,1187.7,835.5,1179.1,832,1170.4z"/>
	<path opacity="0.28" fill="#007045" d="M863.6,1355.4c-0.5,7-1.3,13.9-2.2,20.7C862.3,1369.3,863,1362.4,863.6,1355.4z"/>
	<path opacity="0.28" fill="#007045" d="M844.1,1203.8c2,6.1,3.9,12.2,5.5,18.3C848,1216,846.1,1209.9,844.1,1203.8z"/>
	<path opacity="0.28" fill="#007045" d="M864.6,1331.8c-0.1,7.7-0.4,15.3-0.9,22.7C864.2,1347,864.5,1339.5,864.6,1331.8z"/>
	<path opacity="0.28" fill="#007045" d="M148.4,1360.4c-1.9,1.9-3.6,3.7-5,5C144.8,1364.1,146.4,1362.4,148.4,1360.4z"/>
	<path opacity="0.28" fill="#007045" d="M861.9,1283.7c0.7,6.3,1.3,12.4,1.7,18.6C863.2,1296.2,862.6,1290,861.9,1283.7z"/>
	<path opacity="0.28" fill="#007045" d="M811.5,1522c-2.5,4.5-5.1,8.9-7.7,13.2C806.4,1530.8,809,1526.4,811.5,1522z"/>
	<path opacity="0.28" fill="#007045" d="M864,1308.9c0.3,6.1,0.5,12.2,0.5,18.2C864.5,1321.1,864.4,1315,864,1308.9z"/>
	<path opacity="0.28" fill="#007045" d="M714.8,1644c0.3-0.3,0.7-0.7,1-1C715.5,1643.3,715.1,1643.7,714.8,1644
		C714.8,1644,714.8,1644,714.8,1644z"/>
	<path opacity="0.28" fill="#007045" d="M770.1,1583.7c-2.7,3.4-5.3,6.7-8,9.9C764.7,1590.4,767.4,1587.1,770.1,1583.7z"/>
	<path fill="#6CAB36" d="M742,1206.4c116.2,201.3,5.8,389.1-27.2,437.6c0.3-0.3,0.7-0.6,1-1c5.5-5.2,11.4-11,17.6-17.3
		c1.4-1.5,2.9-3,4.4-4.6c1.4-1.5,2.9-3.1,4.3-4.6c1.8-1.9,3.6-3.9,5.4-5.9c1.3-1.4,2.5-2.8,3.8-4.2c3-3.4,6.1-7,9.2-10.7
		c0.6-0.7,1.2-1.4,1.7-2.1c2.7-3.2,5.3-6.5,8-9.9c1-1.2,1.9-2.5,2.9-3.8c2.4-3.1,4.8-6.3,7.2-9.6c0.9-1.2,1.8-2.4,2.6-3.6
		c6.6-9.1,13-18.7,19.3-28.9c0.5-0.9,1.1-1.8,1.6-2.7c2.6-4.3,5.2-8.7,7.7-13.2c0.7-1.2,1.3-2.3,2-3.5c2.7-4.9,5.4-9.9,8-15.1
		c0.2-0.5,0.5-1,0.7-1.4c2.9-5.9,5.8-11.9,8.5-18.1c0.2-0.3,0.3-0.7,0.5-1.1c2.4-5.5,4.8-11.2,7-16.9c0.5-1.3,1-2.5,1.5-3.8
		c2-5.3,3.9-10.6,5.7-16.1c0.3-1.1,0.7-2.1,1.1-3.2c4.2-13,7.7-26.5,10.6-40.5c0.3-1.4,0.5-2.9,0.8-4.3c1.1-5.6,2-11.3,2.9-17.1
		c0.2-1.6,0.5-3.3,0.7-4.9c0.9-6.8,1.6-13.7,2.2-20.7c0-0.3,0.1-0.6,0.1-0.9c0.5-7.5,0.8-15.1,0.9-22.7c0-1.5,0-3.1,0-4.7
		c0-6-0.2-12.1-0.5-18.2c-0.1-2.2-0.2-4.4-0.4-6.6c-0.4-6.1-1-12.3-1.7-18.6c-0.2-1.7-0.4-3.5-0.6-5.2c-1-8-2.3-16-3.9-24.2
		c-0.3-1.4-0.6-2.8-0.9-4.2c-1.4-6.7-3-13.5-4.7-20.4c-0.7-2.6-1.4-5.2-2.1-7.8c-1.7-6-3.5-12.1-5.5-18.3c-0.8-2.5-1.6-5.1-2.5-7.6
		c-2.9-8.5-6.1-17.1-9.7-25.8C706,864.6,184.3,927.5,139.3,1368.3c-0.4,0.7-0.4,1-0.2,1c0,0,0.1,0,0.2-0.1c0.2-0.1,0.6-0.4,1.1-0.8
		c0.2-0.2,0.3-0.3,0.6-0.5c0.7-0.6,1.5-1.5,2.5-2.4c1.3-1.3,3.1-3.1,5-5c0.2-0.2,0.4-0.4,0.6-0.6C241.9,1071.6,619,993.1,742,1206.4
		z"/>
	<path opacity="0.28" fill="#007045" d="M742,1206.4c116.2,201.3,5.8,389.1-27.2,437.6c0.3-0.3,0.7-0.6,1-1
		c5.5-5.2,11.4-11,17.6-17.3c1.4-1.5,2.9-3,4.4-4.6c1.4-1.5,2.9-3.1,4.3-4.6c1.8-1.9,3.6-3.9,5.4-5.9c1.3-1.4,2.5-2.8,3.8-4.2
		c3-3.4,6.1-7,9.2-10.7c0.6-0.7,1.2-1.4,1.7-2.1c2.7-3.2,5.3-6.5,8-9.9c1-1.2,1.9-2.5,2.9-3.8c2.4-3.1,4.8-6.3,7.2-9.6
		c0.9-1.2,1.8-2.4,2.6-3.6c6.6-9.1,13-18.7,19.3-28.9c0.5-0.9,1.1-1.8,1.6-2.7c2.6-4.3,5.2-8.7,7.7-13.2c0.7-1.2,1.3-2.3,2-3.5
		c2.7-4.9,5.4-9.9,8-15.1c0.2-0.5,0.5-1,0.7-1.4c2.9-5.9,5.8-11.9,8.5-18.1c0.2-0.3,0.3-0.7,0.5-1.1c2.4-5.5,4.8-11.2,7-16.9
		c0.5-1.3,1-2.5,1.5-3.8c2-5.3,3.9-10.6,5.7-16.1c0.3-1.1,0.7-2.1,1.1-3.2c4.2-13,7.7-26.5,10.6-40.5c0.3-1.4,0.5-2.9,0.8-4.3
		c1.1-5.6,2-11.3,2.9-17.1c0.2-1.6,0.5-3.3,0.7-4.9c0.9-6.8,1.6-13.7,2.2-20.7c0-0.3,0.1-0.6,0.1-0.9c0.5-7.5,0.8-15.1,0.9-22.7
		c0-1.5,0-3.1,0-4.7c0-6-0.2-12.1-0.5-18.2c-0.1-2.2-0.2-4.4-0.4-6.6c-0.4-6.1-1-12.3-1.7-18.6c-0.2-1.7-0.4-3.5-0.6-5.2
		c-1-8-2.3-16-3.9-24.2c-0.3-1.4-0.6-2.8-0.9-4.2c-1.4-6.7-3-13.5-4.7-20.4c-0.7-2.6-1.4-5.2-2.1-7.8c-1.7-6-3.5-12.1-5.5-18.3
		c-0.8-2.5-1.6-5.1-2.5-7.6c-2.9-8.5-6.1-17.1-9.7-25.8C706,864.6,184.3,927.5,139.3,1368.3c-0.4,0.7-0.4,1-0.2,1c0,0,0.1,0,0.2-0.1
		c0.2-0.1,0.6-0.4,1.1-0.8c0.2-0.2,0.3-0.3,0.6-0.5c0.7-0.6,1.5-1.5,2.5-2.4c1.3-1.3,3.1-3.1,5-5c0.2-0.2,0.4-0.4,0.6-0.6
		C241.9,1071.6,619,993.1,742,1206.4z"/>
	<path fill="#6CAB36" d="M1723.1,357.6c1.2-0.1,2.3-0.2,3.4-0.2C1725.4,357.5,1724.3,357.5,1723.1,357.6z"/>
	<path fill="#6CAB36" d="M1711.8,359.8c1.5-0.4,3.1-0.8,4.6-1.1C1714.8,359,1713.3,359.4,1711.8,359.8z"/>
	<path fill="#6CAB36" d="M1616.2,515.1c9.1-98,56.5-144.3,95.2-155.2c-43,12-96.9,67.8-96.9,189.8
		c27,926.5-989.5,1250.3-989.5,1250.3c353.9-52.1,604.4-160.4,780.7-295.1c-24.4,18.7-50.3,36.8-77.6,54.4
		c61.6-85.6,344.6-510.7,287-1022.2c0-1.1,0.1-2.3,0.1-3.4c11.3,35.7,163.1,537.2-94.2,869.4c22.1-22.7,42.5-45.8,61.4-69.3
		C1624,1245.4,1750.4,923.4,1616.2,515.1z"/>
	<path fill="#6CAB36" d="M1738.6,358.3c0.8,0.2,1.5,0.3,2.3,0.5C1740.1,358.6,1739.3,358.4,1738.6,358.3z"/>
	<path fill="#6CAB36" d="M1728.5,357.4c1,0,2,0,3,0.1C1730.5,357.4,1729.5,357.3,1728.5,357.4z"/>
	<path fill="#6CAB36" d="M1733.7,357.6c0.9,0.1,1.8,0.2,2.6,0.3C1735.4,357.7,1734.5,357.6,1733.7,357.6z"/>
	<path fill="#6CAB36" d="M1717.5,358.5c1.3-0.3,2.6-0.4,3.9-0.6C1720.1,358,1718.8,358.2,1717.5,358.5z"/>
	<path fill="#6CAB36" d="M1474.3,1448c-20.3,18.3-41.7,36.2-64.4,53.7C1432.7,1484.2,1454.1,1466.3,1474.3,1448z"/>
	<path fill="#6CAB36" d="M1743.1,359.4c0.7,0.2,1.3,0.4,2,0.7C1744.5,359.9,1743.8,359.6,1743.1,359.4z"/>
	<path fill="#6CAB36" d="M1775.6,424c1.3,5.4,2.6,11.1,3.8,17.1C1778.2,435.1,1776.9,429.4,1775.6,424z"/>
	<path fill="#6CAB36" d="M1763.5,381.2c0.2,0.7,0.5,1.4,0.7,2.1C1764,382.6,1763.8,381.9,1763.5,381.2z"/>
	<path fill="#6CAB36" d="M1773.7,416.2c0.6,2.3,1.2,4.7,1.7,7.2C1774.9,420.9,1774.3,418.5,1773.7,416.2z"/>
	<path fill="#6CAB36" d="M1761.7,376.2c0.1,0.3,0.2,0.6,0.3,0.9C1761.9,376.8,1761.8,376.5,1761.7,376.2z"/>
	<path fill="#6CAB36" d="M1765.8,387.9c0.4,1.3,0.8,2.6,1.3,4.1C1766.6,390.5,1766.2,389.2,1765.8,387.9z"/>
	<path fill="#6CAB36" d="M1770.5,403.9c0.8,3.1,1.7,6.3,2.6,9.7C1772.2,410.1,1771.3,406.9,1770.5,403.9z"/>
	<path fill="#6CAB36" d="M1754.8,365.9c0.3,0.3,0.7,0.6,1,0.9C1755.5,366.5,1755.1,366.2,1754.8,365.9z"/>
	<path fill="#6CAB36" d="M1582.6,1333.6c266.1-330.4,231.2-731,196.9-892.2C1813.7,602.7,1848.6,1003.3,1582.6,1333.6z"/>
	<path fill="#6CAB36" d="M1747.4,361.1c0.6,0.3,1.2,0.5,1.7,0.8C1748.5,361.6,1747.9,361.4,1747.4,361.1z"/>
	<path fill="#6CAB36" d="M1759.8,372c0.1,0.2,0.3,0.5,0.4,0.8C1760,372.6,1759.9,372.3,1759.8,372z"/>
	<path fill="#6CAB36" d="M1768.3,396c0.4,1.4,0.8,2.8,1.3,4.3C1769.1,398.8,1768.7,397.4,1768.3,396z"/>
	<path fill="#6CAB36" d="M1751.2,363.2c0.5,0.3,1,0.6,1.4,0.9C1752.2,363.8,1751.7,363.5,1751.2,363.2z"/>
	<path fill="#6CAB36" d="M1520.9,1403.3c-5.2,5.4-10.7,10.7-16.1,16C1510.3,1414,1515.7,1408.6,1520.9,1403.3z"/>
	<path fill="#6CAB36" d="M1496.9,1427c-5.6,5.4-11.3,10.7-17,16C1485.6,1437.7,1491.3,1432.4,1496.9,1427z"/>
	<path fill="#98C21F" d="M1582.4,1333.6c266-330.3,231.2-730.9,197-892.2c0-0.1,0-0.2,0-0.3c-1.3-6.1-2.5-11.8-3.8-17.1
		c-0.1-0.2-0.1-0.4-0.1-0.7c-0.6-2.5-1.2-4.8-1.7-7.2c-0.2-0.9-0.4-1.7-0.7-2.6c-0.9-3.4-1.7-6.7-2.6-9.7c-0.3-1.2-0.6-2.4-1-3.5
		c-0.4-1.5-0.8-2.9-1.3-4.3c-0.4-1.4-0.8-2.8-1.2-4.1c-0.4-1.4-0.9-2.8-1.3-4.1c-0.5-1.6-1-3.1-1.5-4.6c-0.3-0.7-0.5-1.4-0.7-2.1
		c-0.5-1.5-1.1-2.9-1.5-4.1c-0.1-0.3-0.2-0.6-0.3-0.9c-0.5-1.3-1-2.4-1.5-3.4c-0.1-0.3-0.3-0.5-0.4-0.8c-0.5-0.9-0.9-1.7-1.3-2.2
		c-0.8-1.1-1.7-2.1-2.7-3.1c-0.3-0.3-0.7-0.6-1-0.9c-0.7-0.6-1.4-1.2-2.1-1.8c-0.4-0.3-0.9-0.6-1.4-0.9c-0.7-0.5-1.4-0.9-2.2-1.3
		c-0.5-0.3-1.1-0.5-1.7-0.8c-0.7-0.3-1.5-0.7-2.2-1c-0.6-0.2-1.3-0.5-2-0.7c-0.8-0.2-1.5-0.5-2.3-0.7c-0.7-0.2-1.5-0.3-2.3-0.5
		c-0.8-0.1-1.5-0.3-2.3-0.4c-0.9-0.1-1.7-0.2-2.6-0.3c-0.7-0.1-1.4-0.1-2.2-0.1c-1,0-2-0.1-3-0.1c-0.7,0-1.3,0-2,0.1
		c-1.1,0.1-2.3,0.1-3.4,0.2c-0.6,0.1-1.1,0.1-1.7,0.2c-1.3,0.2-2.6,0.4-3.9,0.6c-0.4,0.1-0.8,0.2-1.2,0.2c-1.5,0.3-3,0.7-4.6,1.1
		c-0.1,0-0.2,0.1-0.3,0.1c-38.7,10.9-86.3,57.2-95.4,155.2c134.2,408.3,13,730.3-34,818.8c0,0,0,0,0,0
		C1582,1333.8,1582.3,1333.7,1582.4,1333.6z"/>
	<path opacity="0.19" fill="#007045" d="M1479.8,1443.1c-1.8,1.7-3.7,3.3-5.5,4.9C1476.2,1446.3,1478,1444.7,1479.8,1443.1z"/>
	<path opacity="0.19" fill="#007045" d="M1521,1403.2C1521,1403.2,1521,1403.2,1521,1403.2C1521,1403.2,1521,1403.2,1521,1403.2
		C1521,1403.2,1521,1403.2,1521,1403.2z"/>
	<path opacity="0.19" fill="#007045" d="M1504.8,1419.3c-2.6,2.6-5.3,5.2-7.9,7.7C1499.6,1424.5,1502.2,1421.9,1504.8,1419.3z"/>
	<path opacity="0.19" fill="#007045" d="M1410,1501.7c-1.4,1.1-2.8,2.2-4.3,3.3C1407.2,1503.9,1408.6,1502.8,1410,1501.7z"/>
	<path fill="#6CAB36" d="M1615.2,533.8c-0.1,1.1-0.1,2.3-0.1,3.4c57.6,511.5-225.4,936.6-287,1022.2c27.4-17.6,53.2-35.7,77.6-54.4
		c1.4-1.1,2.8-2.2,4.3-3.3c22.7-17.5,44.1-35.4,64.4-53.7c1.8-1.6,3.7-3.3,5.5-4.9c5.8-5.3,11.5-10.7,17-16c2.7-2.6,5.3-5.1,7.9-7.7
		c5.4-5.3,10.9-10.7,16.1-16c0,0,0.1-0.1,0.1-0.1C1778.4,1071,1626.5,569.5,1615.2,533.8z"/>
	<path opacity="0.19" fill="#007045" d="M1615.2,533.8c-0.1,1.1-0.1,2.3-0.1,3.4c57.6,511.5-225.4,936.6-287,1022.2
		c27.4-17.6,53.2-35.7,77.6-54.4c1.4-1.1,2.8-2.2,4.3-3.3c22.7-17.5,44.1-35.4,64.4-53.7c1.8-1.6,3.7-3.3,5.5-4.9
		c5.8-5.3,11.5-10.7,17-16c2.7-2.6,5.3-5.1,7.9-7.7c5.4-5.3,10.9-10.7,16.1-16c0,0,0.1-0.1,0.1-0.1
		C1778.4,1071,1626.5,569.5,1615.2,533.8z"/>
</g>
</svg>
