<?xml version="1.0" encoding="utf-8"?>
<!-- Generator: Adobe Illustrator 18.1.0, SVG Export Plug-In . SVG Version: 6.00 Build 0)  -->
<svg version="1.0" id="Layer_1" xmlns="http://www.w3.org/2000/svg" xmlns:xlink="http://www.w3.org/1999/xlink" x="0px" y="0px"
	 viewBox="0 0 150 150" enable-background="new 0 0 150 150" xml:space="preserve">
<g>
	<path fill="none" d="M55.1,100.3c-2,0-3.7,0.8-5,2.1c-1.3,1.3-2.1,3.1-2.1,5c0,2,0.8,3.7,2.1,5c1.3,1.3,3.1,2.1,5,2.1
		c2,0,3.7-0.8,5-2.1c1.3-1.3,2.1-3.1,2.1-5v0c0-2-0.8-3.7-2.1-5C58.9,101.1,57.1,100.3,55.1,100.3z"/>
	<path fill="none" d="M92.2,32.5c0-0.6-0.1-1.3,0.4-1.6C92.3,31.1,92.2,31.8,92.2,32.5z"/>
	<path fill="none" d="M55.1,60.8c2,0,3.7-0.8,5-2.1c1.3-1.3,2.1-3.1,2.1-5c0-2-0.8-3.7-2.1-5c-1.3-1.3-3.1-2.1-5-2.1
		c-2,0-3.7,0.8-5,2.1c-1.3,1.3-2.1,3.1-2.1,5v0c0,2,0.8,3.7,2.1,5C51.4,60,53.2,60.8,55.1,60.8z"/>
	<path fill="none" d="M55.1,73.5c-2,0-3.7,0.8-5,2.1c-1.3,1.3-2.1,3.1-2.1,5c0,2,0.8,3.7,2.1,5c1.3,1.3,3.1,2.1,5,2.1
		c2,0,3.7-0.8,5-2.1c1.3-1.3,2.1-3,2.1-5v0c0-2-0.8-3.7-2.1-5C58.9,74.3,57.1,73.5,55.1,73.5z"/>
	<path fill="#005F9C" d="M78.9,10.3c-36.5,0-66,29.6-66,66c0,36.5,29.6,66,66,66c1.2,0,2.5-0.1,3.7-0.2c-35.2,0-63.7-28.6-63.7-63.8
		c0-35.2,28.6-63.8,63.8-63.8c23.4,0,43.8,12.6,54.9,31.4C126.5,24.8,104.4,10.3,78.9,10.3z"/>
	<path fill="#005F9C" d="M54.8,65.9h44.1c0.1,0,0.2,0,0.3,0L80.9,42.7l-0.2,0.1l-0.1-0.4l-0.3-0.4l-0.4-0.5H54.8
		c-6.2,0-11.1,5-11.1,11.1v2.1C43.7,60.9,48.7,65.9,54.8,65.9z M48,53.7c0-2,0.8-3.7,2.1-5c1.3-1.3,3.1-2.1,5-2.1c2,0,3.7,0.8,5,2.1
		c1.3,1.3,2.1,3.1,2.1,5c0,2-0.8,3.7-2.1,5c-1.3,1.3-3.1,2.1-5,2.1c-2,0-3.7-0.8-5-2.1C48.8,57.4,48,55.7,48,53.7L48,53.7z"/>
	<path fill="#696969" d="M98.9,68.4H54.8c-6.2,0-11.1,5-11.1,11.2v2.1c0,6.2,5,11.1,11.1,11.1h44.1c6.2,0,11.1-5,11.1-11.1v-2
		l-8.6-10.9C100.6,68.5,99.8,68.4,98.9,68.4z M62.2,80.6c0,2-0.8,3.7-2.1,5c-1.3,1.3-3.1,2.1-5,2.1c-2,0-3.7-0.8-5-2.1
		c-1.3-1.3-2.1-3-2.1-5c0-2,0.8-3.7,2.1-5c1.3-1.3,3.1-2.1,5-2.1c2,0,3.7,0.8,5,2.1C61.4,76.8,62.2,78.6,62.2,80.6L62.2,80.6z"/>
	<path fill="#00A692" d="M98.9,95.3H54.8c-6.2,0-11.1,5-11.1,11.2v2c0,6.2,5,11.2,11.1,11.2h44.1c6.2,0,11.1-5,11.1-11.2v-2
		C110.1,100.3,105.1,95.3,98.9,95.3z M62.2,107.4c0,2-0.8,3.7-2.1,5c-1.3,1.3-3.1,2.1-5,2.1c-2,0-3.7-0.8-5-2.1
		c-1.3-1.3-2.1-3.1-2.1-5c0-2,0.8-3.7,2.1-5c1.3-1.3,3.1-2.1,5-2.1c2,0,3.7,0.8,5,2.1C61.4,103.7,62.2,105.5,62.2,107.4L62.2,107.4z
		"/>
	<path fill="#CD9768" d="M97,29l-0.4-0.1C96.7,28.9,96.8,28.9,97,29L97,29z"/>
	<path fill="#696969" d="M84.3,37.2c0.6-0.5,1.8-0.6,2.6-0.3c-0.2-0.7-0.1-1.5,0.5-2l0.9-0.7l1.2-0.9c0.7-0.6,1.6-0.6,2.3-0.1
		c0.1,0.1,0.2,0.2,0.3,0.3l0.1-0.1c-0.1-0.1-0.2-0.2-0.2-0.4c-0.1-0.2,0.2-0.4,0.1-0.6c0-0.7,0.1-1.4,0.4-1.6l2.1-1.7
		c0.5-0.4,1.1-0.5,1.7-0.3l0,0l-7.1-1.7l-3.6,3.5l-0.2,0.1l-3.9,2.6l0,6.1c0.1-0.2,0.3-0.4,0.5-0.6L84.3,37.2z"/>
	<polygon fill="#A1A1A1" points="85.8,30.6 89.4,27.1 89.4,27.1 81.6,25.2 81.6,33.4 81.7,33.3 85.6,30.7 	"/>
	<path fill="#005F9C" d="M97.5,29.5c-0.2-0.2-0.4-0.3-0.6-0.5c-0.1-0.1-0.2-0.1-0.4-0.1c0,0-0.1,0-0.1,0c-0.6-0.1-1.2-0.1-1.7,0.3
		l-2.1,1.7c-0.5,0.4-0.5,1-0.4,1.6c0,0.2-0.2,0.4-0.1,0.6c0,0.1,0.1,0.3,0.2,0.4l-0.1,0.1c-0.1-0.1-0.2-0.2-0.3-0.3
		c-0.7-0.5-1.6-0.5-2.3,0.1l-1.2,0.9l-0.9,0.7c-0.6,0.5-0.7,1.3-0.5,2c-0.8-0.3-2-0.2-2.6,0.3l-2.2,1.7c-0.2,0.2-0.4,0.4-0.5,0.6
		c-0.2,0.3-0.3,0.7-0.2,1.1l30.3,38.2l5-4l0,0l5.2-4.1l5.2-4.1L109,43.8L97.5,29.5z"/>
</g>
</svg>
