<?xml version="1.0" encoding="iso-8859-1"?>
<!-- Generator: Adobe Illustrator 13.0.0, SVG Export Plug-In . SVG Version: 6.00 Build 14948)  -->
<!DOCTYPE svg PUBLIC "-//W3C//DTD SVG 1.1//EN" "http://www.w3.org/Graphics/SVG/1.1/DTD/svg11.dtd">
<svg version="1.1" id="Layer_1" xmlns="http://www.w3.org/2000/svg" xmlns:xlink="http://www.w3.org/1999/xlink" x="0px" y="0px"
	 width="100px" height="100px" viewBox="0 0 100 100" enable-background="new 0 0 100 100" xml:space="preserve">
<g>
	<path fill="#008ACD" d="M33.986,87.677c3.424-2.943,7.039-5.681,10.838-8.214c1.636-1.041,3.255-2.063,4.858-3.068
		c1.605-1.005,3.261-2.032,4.973-3.073c0.743-2.686,1.471-5.367,2.181-8.049c0.702-2.681,1.47-5.321,2.294-7.932
		c-0.969,1.414-2.205,2.905-3.691,4.472c-1.495,1.636-3.312,3.165-5.474,4.579c-2.165,1.417-4.362,2.31-6.595,2.682
		c-1.114,0.149-2.104,0.056-2.96-0.279c-0.856-0.334-1.619-0.84-2.29-1.506c-0.67-0.675-1.231-1.453-1.675-2.351
		c-0.449-0.893-0.784-1.821-1.006-2.791c-0.67-2.758-0.82-5.568-0.449-8.436c0.376-2.867,0.933-5.645,1.676-8.327
		c0.743-2.831,1.636-5.584,2.681-8.266c1.042-2.681,2.197-5.327,3.465-7.936c0.965-2.155,2.027-4.281,3.183-6.368
		c1.155-2.083,2.552-3.982,4.193-5.698c0.816-0.82,1.769-1.025,2.852-0.614c1.074,0.412,1.656,1.171,1.728,2.291
		c0.146,0.819,0.089,1.639-0.17,2.458c-0.258,0.82-0.459,1.64-0.613,2.459c-0.97,3.946-2.155,7.818-3.577,11.618
		c-1.412,3.8-2.752,7.637-4.021,11.509c-0.444,1.341-0.893,2.702-1.341,4.08c-0.448,1.382-0.856,2.812-1.228,4.3
		c-0.226,0.671-0.432,1.341-0.618,2.012c-0.186,0.67-0.351,1.341-0.501,2.011c-0.072,0.376-0.186,0.82-0.334,1.341
		c-0.15,0.525-0.279,1.083-0.392,1.676c-0.109,0.598-0.13,1.159-0.057,1.676c0.073,0.521,0.299,0.934,0.67,1.229
		c0.598,0.448,1.268,0.675,2.012,0.675c0.747,0,1.49-0.114,2.236-0.336c0.743-0.227,1.47-0.542,2.177-0.953
		c0.71-0.408,1.282-0.835,1.734-1.283c1.712-1.49,3.255-3.11,4.635-4.858c1.382-1.753,2.699-3.595,3.966-5.533
		c0.445-0.743,0.881-1.47,1.285-2.181c0.412-0.702,0.799-1.434,1.17-2.177l0.114-0.112c0.896-2.831,1.824-5.642,2.794-8.436
		c0.969-2.795,2.052-5.566,3.239-8.324c1.041-2.383,2.237-4.879,3.577-7.487c1.066-2.076,2.407-3.808,3.999-5.225
		c-5.848-6.046-14.021-9.822-23.101-9.822h-3.539c-17.76,0-32.155,14.396-32.155,32.157v54.674h9.977
		C28.765,92.854,31.179,90.088,33.986,87.677z"/>
	<path fill="#008ACD" d="M53.873,76.446c-3.578,2.161-7.058,4.395-10.445,6.704c-3.388,2.311-6.575,4.918-9.555,7.823
		c-1.575,1.517-2.988,3.197-4.313,4.966h18.988c0.542-1.897,1.074-3.801,1.585-5.693C51.36,85.667,52.604,81.067,53.873,76.446z"/>
	<path fill="#78584A" d="M77.9,60.58c-1.793,1.64-3.691,3.15-5.701,4.527c-2.012,1.381-4.022,2.701-6.034,3.966
		c-0.598,1.862-1.171,3.687-1.728,5.475c-0.566,1.79-1.14,3.612-1.737,5.477c-1.777,5.34-3.65,10.642-5.597,15.915H84.58V52.827
		c-0.557,0.863-1.132,1.708-1.761,2.504C81.324,57.193,79.686,58.945,77.9,60.58z"/>
	<path fill="#78584A" d="M75.664,34.438c-1.414,5.289-2.836,10.519-4.249,15.696c-1.413,5.18-2.866,10.374-4.354,15.587l3.015-2.124
		c1.864-1.265,3.666-2.641,5.419-4.135c1.752-1.485,3.367-3.126,4.861-4.914c0.743-0.894,1.43-1.807,2.067-2.738
		c0.631-0.929,1.212-1.918,1.729-2.96c0.105-0.259,0.267-0.493,0.429-0.73v-6.853c0-6.769-2.101-13.037-5.67-18.217
		c-0.654,1.715-1.219,3.444-1.623,5.185C76.794,30.281,76.262,32.349,75.664,34.438z"/>
</g>
</svg>
