<?xml version="1.0" encoding="utf-8"?>
<!-- Generator: Adobe Illustrator 18.1.0, SVG Export Plug-In . SVG Version: 6.00 Build 0)  -->
<svg version="1.1" id="Layer_1" xmlns="http://www.w3.org/2000/svg" xmlns:xlink="http://www.w3.org/1999/xlink" x="0px" y="0px"
	 viewBox="0 0 150 150" enable-background="new 0 0 150 150" xml:space="preserve">
<g>
	<path fill="#739F40" d="M74.9,147.9c0.1,0,0.2,0.1,0.3,0.1c0.1,0,0.1-0.1,0.2-0.1c0.7-0.4,1.3-0.7,2-1.1
		C76.5,147.1,75.7,147.5,74.9,147.9L74.9,147.9z"/>
	<path fill="#739F40" d="M77.1,128.1c0.1,0,0.1-0.1,0.2-0.1C77.2,128,77.1,128,77.1,128.1z"/>
	<path fill="#739F40" d="M76.6,120.6c0.1,0.1,0.2,0.1,0.2,0.2c-0.1-0.1-0.3-0.2-0.4-0.2c0,0,0,0,0,0c0,0,0,0,0,0
		c-0.1-0.1-0.1-0.1,0-0.1c0,0,0.1,0,0.2,0.1c-0.5-0.3-1.2-0.4-1.8-0.4c-0.8,0-1.5,0.2-2.2,0.6c0,0-0.1,0.2-0.3,0.3
		c0.1-0.1,0.2-0.2,0.1-0.2c0,0,0,0,0,0c-0.1,0-0.2,0.1-0.3,0.2c-1.1,0.8-1.8,2.1-1.8,3.5c0,0.3,0,0.6,0.1,0.9
		c0.1,0.1,0.2,0.4,0.2,0.5c0.6,1.7,2.2,2.9,4.1,2.9c0.9,0,1.7-0.3,2.4-0.7c0,0-0.1,0-0.1,0c0.2-0.1,0.5-0.3,0.4-0.4
		c0.1-0.1,0.1-0.1,0.1-0.1l0,0c0,0,0,0-0.1,0.1c0.8-0.7,1.3-1.7,1.4-2.8l0,0c0,0-0.1,0.1-0.1,0.1c0-0.1,0.1-0.3,0.1-0.3
		c0-0.1,0-0.2,0-0.2C79,122.8,78.1,121.3,76.6,120.6z M70.4,124.3C70.4,124.3,70.4,124.3,70.4,124.3c0-0.2,0-0.6,0-0.7
		c0,0,0-0.1,0-0.1c0,0,0,0,0,0C70.6,123.5,70.5,124.2,70.4,124.3z M71.8,121.8C71.8,121.8,71.9,121.8,71.8,121.8
		c0.2,0,0.1,0.3,0,0.5c0.1-0.1,0.1-0.3,0-0.3c0,0,0,0-0.1,0c-0.1,0-0.2,0.1-0.2,0.2C71.5,122,71.7,121.8,71.8,121.8z M71.7,125.4
		c-0.1-0.1-0.1-0.2-0.2-0.2c-0.1,0-0.2,0.2-0.2,0.3c0,0-0.1-0.1-0.1-0.1c-0.1-0.2-0.1-0.4,0.1-0.5C71.6,124.9,71.7,125.2,71.7,125.4
		z M70.8,125.4c-0.1,0-0.1,0.1-0.1,0.2c0,0,0,0,0-0.1c-0.1-0.2-0.1-0.4,0-0.5c0.1,0,0.2,0.3,0.3,0.5
		C70.9,125.5,70.9,125.4,70.8,125.4z M70.9,124.1c-0.1,0-0.1,0-0.1,0c0.1-0.2,0.1-0.6,0-0.7c0,0,0.1-0.1,0.1-0.1c0,0,0,0,0,0
		C71.2,123.3,71.1,123.9,70.9,124.1z M71.2,122.1L71.2,122.1c-0.1,0-0.2,0.1-0.2,0.3c0,0,0,0,0,0c0.1-0.2,0.2-0.4,0.3-0.4
		c0,0,0,0,0,0c0,0-0.1,0.2-0.2,0.4C71.2,122.2,71.2,122.1,71.2,122.1z M71.4,127.1c-0.1-0.2-0.2-0.3-0.2-0.4c0.1,0,0.5,0.5,0.5,0.6
		C71.6,127.4,71.5,127.3,71.4,127.1z M72,127.2c0,0.1-0.2,0-0.4-0.2c-0.1-0.2-0.2-0.4-0.1-0.4c0.1,0,0.1,0,0.2,0.1
		c0,0.1,0.1,0.2,0.1,0.3C71.9,127.1,72,127.1,72,127.2C72,127.2,72,127.2,72,127.2z M71.9,124L71.9,124c0.1-0.3-0.2-0.7-0.4-0.6
		c0-0.1,0-0.1,0.1-0.2c0,0,0,0,0,0c0.2-0.2,0.5,0.2,0.5,0.5C72,123.9,72,123.9,71.9,124z M76.9,121.4c0.2,0,0.4,0.2,0.4,0.4
		c-0.1-0.1-0.2-0.2-0.4-0.2c-0.1,0-0.2,0.1-0.1,0.2c0,0,0,0,0-0.1C76.8,121.6,76.7,121.4,76.9,121.4z M76.9,122.8
		c0.2,0,0.4,0.3,0.4,0.5c-0.1-0.1-0.2-0.2-0.3-0.2c-0.2,0-0.3,0.2-0.3,0.3c0,0,0-0.1,0-0.1C76.6,123.1,76.6,122.8,76.9,122.8z
		 M77,126.5c0,0-0.1,0-0.1-0.1l0,0c-0.2,0-0.3,0.2-0.4,0.4c0-0.1-0.1-0.1-0.1-0.2c0-0.2,0.2-0.4,0.4-0.4c0,0,0,0,0,0
		C77,126.2,77.1,126.3,77,126.5z M76.3,121.6c-0.1,0-0.1-0.1-0.2-0.1c-0.2,0-0.2,0.2-0.2,0.3c0,0,0,0.1,0,0.1
		c-0.1,0-0.2-0.1-0.2-0.2c0-0.1,0-0.3,0.2-0.3C76.1,121.4,76.2,121.5,76.3,121.6z M75.7,120.4c0.2,0,0.4,0.1,0.4,0.3
		c-0.1-0.1-0.2-0.1-0.3-0.1c-0.1,0-0.1,0.1,0,0.1c0,0-0.1-0.1-0.1-0.1C75.7,120.6,75.6,120.5,75.7,120.4z M75.6,122.8
		c0.3,0,0.4,0.3,0.4,0.5c-0.1-0.1-0.2-0.2-0.3-0.2c-0.2,0-0.3,0.2-0.3,0.3c0-0.1-0.1-0.1-0.1-0.2C75.3,123.1,75.3,122.9,75.6,122.8z
		 M74.2,125.1c-0.1-0.1-0.2-0.1-0.3-0.1c-0.2,0.1-0.3,0.2-0.3,0.4c0,0-0.1-0.1-0.1-0.2c-0.1-0.2-0.1-0.4,0.2-0.5
		C73.9,124.6,74.2,124.8,74.2,125.1z M73.9,123.4c0-0.2,0.1-0.4,0.4-0.4c0.3,0,0.5,0.3,0.4,0.5c-0.1-0.1-0.2-0.2-0.4-0.2
		c-0.2,0-0.3,0.1-0.4,0.3C74,123.5,73.9,123.4,73.9,123.4z M74.3,127.6c0.2,0,0.3,0.2,0.3,0.3c0,0-0.1,0-0.1,0
		c-0.1,0-0.2,0.1-0.1,0.2c0,0-0.1-0.1-0.1-0.1C74.1,127.8,74.1,127.6,74.3,127.6z M74.4,126.8c-0.1,0-0.1-0.1-0.1-0.2
		c0-0.1,0-0.4,0.3-0.4c0.3,0,0.4,0.2,0.3,0.4c-0.1,0-0.1-0.1-0.2-0.1C74.5,126.6,74.4,126.7,74.4,126.8z M74.8,125.1
		c0,0,0-0.1,0-0.1c0-0.2,0.1-0.4,0.4-0.5c0.3,0,0.5,0.3,0.4,0.6c-0.1-0.1-0.2-0.2-0.4-0.2C74.9,124.9,74.8,125,74.8,125.1z
		 M75.7,126.2c0.2,0,0.3,0.2,0.3,0.3c0,0-0.1-0.1-0.2-0.1c-0.2,0-0.3,0.2-0.3,0.4c-0.1-0.1-0.1-0.1-0.1-0.2
		C75.4,126.4,75.5,126.2,75.7,126.2z M75.7,127.8c0-0.1,0.2-0.3,0.3-0.3c0,0,0,0,0,0c0.1,0,0.1,0.1,0.1,0.2c0,0,0,0,0,0l0,0
		c-0.2,0-0.3,0.2-0.3,0.3l0,0C75.7,128,75.7,127.9,75.7,127.8z M75.1,120.5c0.1,0,0.3,0.1,0.3,0.2c-0.1-0.1-0.2-0.1-0.2-0.1
		c-0.2,0-0.2,0.1-0.1,0.2c0,0-0.1-0.1-0.1-0.1C74.9,120.6,74.9,120.5,75.1,120.5z M74.9,121.5c0.2,0,0.3,0.1,0.3,0.2
		c-0.1,0-0.1-0.1-0.2-0.1c-0.2,0-0.3,0.2-0.3,0.3c0,0,0,0.1,0,0.1c-0.1,0-0.1-0.1-0.1-0.2C74.6,121.7,74.6,121.5,74.9,121.5z
		 M74.3,120.5C74.3,120.5,74.4,120.5,74.3,120.5c0.2,0,0.2,0.1,0.2,0.2c0,0-0.1-0.1-0.1-0.1c0,0,0,0,0,0c-0.2,0-0.2,0.1-0.3,0.2
		c0,0,0-0.1,0-0.1C74.1,120.6,74.2,120.5,74.3,120.5z M73.8,121.5c0.1,0,0.2,0.1,0.3,0.2c0,0-0.1,0-0.2,0l0,0
		c-0.2,0-0.4,0.2-0.4,0.4c0,0,0,0,0,0c-0.1,0-0.1-0.1-0.1-0.2C73.4,121.8,73.5,121.6,73.8,121.5L73.8,121.5z M73.2,120.8
		c0.1-0.1,0.2-0.2,0.4-0.2c0,0,0.1,0,0.1,0c0.1,0,0,0.2,0,0.3c0,0,0-0.1,0-0.1c0,0-0.1,0-0.1,0C73.4,120.7,73.3,120.8,73.2,120.8
		C73.2,120.9,73.2,120.8,73.2,120.8z M73.2,123.7C73.2,123.7,73.2,123.7,73.2,123.7c0-0.2-0.1-0.4-0.4-0.4c-0.1,0-0.2,0.1-0.2,0.1
		c0-0.1,0.1-0.3,0.4-0.3C73.3,123,73.4,123.4,73.2,123.7z M73,120.6C73,120.6,73,120.6,73,120.6c0.1,0.1-0.1,0.3-0.3,0.4
		c0.1-0.1,0.2-0.2,0.2-0.3c0,0,0,0,0,0c-0.1,0-0.1,0-0.2,0.1C72.7,120.7,72.9,120.7,73,120.6z M72.7,121.6
		C72.7,121.6,72.7,121.6,72.7,121.6c0.2,0,0.2,0.2,0.2,0.3c0,0-0.1-0.1-0.1-0.1c0,0-0.1,0-0.1,0c-0.2,0-0.3,0.2-0.4,0.3
		c0,0,0-0.1,0-0.2C72.3,121.9,72.5,121.7,72.7,121.6z M72.4,124.8c0.2,0,0.4,0.2,0.4,0.4c-0.1-0.1-0.2-0.1-0.3-0.1
		c-0.2,0-0.3,0.2-0.3,0.4c0,0-0.1-0.1-0.1-0.2C72.1,125.1,72.2,124.8,72.4,124.8z M72.3,126.5c0.1,0,0.2,0.1,0.3,0.2
		c-0.1,0.1-0.1,0.3,0,0.4c0,0,0,0.1,0.1,0.1c-0.1,0.1-0.3,0-0.4-0.2C72.1,126.7,72.1,126.5,72.3,126.5z M72.9,128.4
		c0,0-0.2-0.1-0.3-0.1c-0.2-0.1-0.4-0.2-0.4-0.2C72.3,128,72.9,128.4,72.9,128.4L72.9,128.4z M72.7,128.2c-0.2-0.1-0.3-0.2-0.3-0.3
		c0.1,0,0.2,0.1,0.3,0.2c0,0,0,0,0,0c0,0,0.1,0.1,0.2,0.2C72.9,128.3,72.8,128.2,72.7,128.2z M73,128.1C73,128.1,73,128.1,73,128.1
		c-0.2-0.2-0.3-0.3-0.2-0.3c0.1,0,0.3,0.1,0.5,0.3c-0.1-0.1-0.2-0.1-0.2-0.1C73,128,73,128,73,128.1z M73.3,126.9
		c-0.1,0-0.1-0.1-0.2-0.2c-0.1-0.2,0-0.4,0.2-0.4c0.2,0,0.4,0.2,0.4,0.4c-0.1,0-0.1-0.1-0.2-0.1C73.4,126.7,73.3,126.8,73.3,126.9z
		 M73.7,127.9c-0.1,0-0.1,0.1-0.1,0.2c-0.1,0-0.1-0.1-0.2-0.1c-0.1-0.1-0.2-0.3,0-0.3c0.2,0,0.3,0.1,0.4,0.3
		C73.8,127.9,73.8,127.9,73.7,127.9z M74.2,128.8c-0.2,0-0.3-0.1-0.4-0.1l0,0c0,0,0,0,0.1,0l0.6,0.1
		C74.6,128.8,74.4,128.8,74.2,128.8z M74.4,128.7c-0.1,0-0.2-0.1-0.2-0.1c0,0-0.1,0,0,0C74.2,128.6,74.2,128.6,74.4,128.7
		c-0.1-0.1,0.3,0,0.3,0.1C74.7,128.8,74.5,128.7,74.4,128.7z M74.6,128.6C74.5,128.6,74.5,128.6,74.6,128.6L74.6,128.6
		C74.5,128.6,74.4,128.5,74.6,128.6c0-0.1,0.2,0.1,0.2,0.1C74.7,128.7,74.6,128.6,74.6,128.6z M74.9,128.6
		C74.9,128.6,74.9,128.6,74.9,128.6C74.8,128.6,74.8,128.5,74.9,128.6C74.9,128.5,75,128.5,74.9,128.6
		C75,128.6,74.9,128.6,74.9,128.6z M74.9,127.8c0-0.1,0.1-0.2,0.2-0.2c0.2,0,0.3,0.2,0.1,0.4c0,0.1-0.1,0.1-0.1,0.1
		c0-0.1,0-0.2-0.1-0.2C75,127.8,75,127.8,74.9,127.8z M75.1,128.7C75.1,128.7,75.1,128.7,75.1,128.7
		C75.1,128.7,75.1,128.7,75.1,128.7c0-0.2,0.1-0.2,0.1-0.2l0,0c0,0,0,0,0,0.1h0C75.2,128.6,75.2,128.6,75.1,128.7z M75.2,128.7
		c0,0,0,0,0.1-0.1c0.1-0.1,0.2-0.2,0.3-0.2c0,0,0,0,0,0c0,0,0,0-0.1,0.1v0c0,0,0,0,0,0C75.5,128.6,75.3,128.7,75.2,128.7L75.2,128.7
		z M75.6,128.6c0.3-0.1,0.3-0.1,0.4-0.1l0,0c0,0-0.1,0.1-0.2,0.1c0,0,0,0,0,0l0,0c0,0-0.4,0.2-0.4,0.2
		C75.4,128.7,75.5,128.7,75.6,128.6z M75.4,128.7c0.1,0,0.2-0.1,0.3-0.1c0.4-0.1,0.4-0.1,0.4-0.1l0,0
		C76.1,128.6,75.5,128.7,75.4,128.7z M76,125c0,0,0-0.1,0-0.1c0-0.2,0.2-0.4,0.5-0.3c0.3,0.1,0.3,0.5,0,0.7c0-0.1-0.1-0.3-0.2-0.3
		C76.2,124.9,76.1,124.9,76,125z M76.7,127.8C76.7,127.8,76.7,127.8,76.7,127.8c-0.2,0-0.3,0.1-0.4,0.2c0,0,0-0.1,0.1-0.2
		c0.1-0.1,0.2-0.3,0.4-0.3c0,0,0,0,0,0C76.8,127.6,76.8,127.7,76.7,127.8L76.7,127.8z M77.1,127.8L77.1,127.8
		C77.1,127.8,77.1,127.8,77.1,127.8c-0.1,0-0.3,0.1-0.4,0.2c0,0,0.1-0.2,0.1-0.2c0,0,0.3-0.3,0.4-0.3l0,0
		C77.4,127.6,77.3,127.7,77.1,127.8z M77.6,124.5c0.3,0,0.3,0.5,0.1,0.7c0,0,0,0-0.1,0c0.1-0.2,0-0.5-0.2-0.5c0,0-0.1,0-0.1,0
		C77.4,124.7,77.5,124.5,77.6,124.5z M77.8,126.5C77.8,126.5,77.8,126.5,77.8,126.5C77.8,126.5,77.8,126.5,77.8,126.5
		c-0.2,0-0.4,0.1-0.4,0.3c0-0.1,0-0.2,0-0.3c0.1-0.1,0.2-0.4,0.4-0.4c0,0,0,0,0,0C77.9,126.2,77.9,126.4,77.8,126.5z M78.2,126.8
		c0-0.1,0.1-0.2,0-0.2l0,0c-0.1,0-0.1,0.1-0.2,0.1c0,0,0-0.1,0-0.1c0.1-0.2,0.2-0.4,0.3-0.4l0,0C78.5,126.3,78.4,126.6,78.2,126.8z
		 M78.6,122.9c0.1,0,0.2,0.3,0.2,0.5c0-0.1-0.1-0.2-0.2-0.3c-0.1,0-0.1,0.1-0.1,0.3c0,0,0-0.1,0-0.1
		C78.6,123.2,78.5,122.9,78.6,122.9z M78.5,124.6c0.2,0.1,0.2,0.6,0,0.8c0,0-0.1,0-0.1,0c0.1-0.2,0-0.5-0.1-0.5l0,0
		C78.4,124.7,78.4,124.6,78.5,124.6z M78,123c-0.2,0-0.2,0.2-0.2,0.4c0,0,0-0.1,0-0.1c0-0.2,0-0.4,0.2-0.4c0.2,0,0.3,0.2,0.3,0.4
		C78.2,123.1,78.1,123,78,123z M78.1,121.9c-0.1-0.1-0.2-0.3-0.3-0.3c-0.1,0-0.1,0.1,0,0.2c0,0,0,0,0,0c-0.1-0.1-0.2-0.3,0-0.3
		C77.8,121.5,78,121.7,78.1,121.9z"/>
	<path fill="#739F40" d="M74.7,129C74.7,129,74.7,129,74.7,129l0.1,0c0.1,0,0.3,0,0.4-0.1C75,128.9,74.9,129,74.7,129
		C74.7,129,74.7,129,74.7,129z"/>
	<path fill="#739F40" d="M120.5,92.5c-1.5-0.7-3-1.3-4.6-1.8c-1.2-0.4-2.5-0.8-3.8-1.1c-1.1-0.3-2.3-0.6-3.4-0.8
		c-6.3-1.3-13.2-1.9-20.2-2.1c0,0.3,0,0.5,0,0.8c0,0.9,0,2,0,3.1c-0.1,4.7-1,6.9-1.3,7.5c-0.3,0.6-0.8,4-0.8,6.2c0,0.1,0,0.2,0,0.4
		c0,0.2,0,0.4,0,0.6c0,1.8-0.1,3.1-0.7,3.5c-0.7,0.5-0.8,1.3-1,2.4c-0.2,1.1,1.7,1.9,0.7,2.2c-1,0.3-4.9,0-5.2,0c0,0,0,0,0,0
		c-2-0.2-1.4-1.3-1.5-1.7c-0.1-0.4-0.2-0.6-0.3-0.7c0-0.1-0.1-0.4-0.1-0.9c-0.1-1-0.1-2.6,0.2-4c0.4-2.1,0.2-2.9,0.2-5.3
		s0.1-5.5,0.5-7.2c0.4-1.7,0.4-5.6,0.4-5.6c-0.5,0-1.8,2.1-3,4.1c-1.2,2-4.7,6.6-6.4,7.8c-1.2,0.8-4,3.4-5.9,5
		c-0.4,0.4-0.8,0.7-1.1,0.9c-0.4,0.3-0.6,0.5-0.7,0.6c-0.7,0.4-1.4-0.4-1.4-0.4s0,0-0.1,0.1c-0.2,0.2-0.5,0.5-1.1,1.2
		c-0.6,0.5-0.6,1.6-0.7,2.5c0,0.6-0.1,1.1-0.3,1.4c0,0.1-0.1,0.1-0.1,0.2c-0.7,0.7-3,1.2-4.3-0.7c-0.1-0.1-0.2-0.3-0.3-0.5
		c-0.2-0.4-0.4-0.9-0.5-1.3c-0.2-1-0.1-2,0.1-2.9c0.1-0.5,0.3-0.9,0.5-1.3c0.7-1.4,0.7-2.3,0.7-3.5c0-0.2,0-0.4,0-0.5
		c0-0.1,0-0.2,0-0.3c0.2-1.3,1.5-2.1,2.4-2.3c1-0.2,2.5-0.7,3.2-0.8c0.7-0.1,7.1-8.8,8.4-10.7c0-0.1,0.1-0.1,0.1-0.2
		c-9.9,0.1-19.8,0.4-28.6,2.2c-1.2,0.2-2.3,0.5-3.4,0.8c-1.3,0.3-2.5,0.7-3.7,1.1c-1.6,0.5-3.1,1.2-4.6,1.9
		c-0.5,0.2-0.9,0.4-1.4,0.7c0.3,1.9,0.7,3.5,1.1,4.7c0.1,0.3,0.2,0.5,0.3,0.8c7.3,20.3,22.2,35.5,45.8,46.3
		c23.8-10.9,38.9-26.3,46-47c0.1-0.4,0.2-0.8,0.4-1.2c0.3-1,0.6-2.3,0.8-3.6C121.5,92.9,121,92.7,120.5,92.5z M75.9,128.8
		c0,0.4,0,0.8-0.2,1.1c-0.2,0.5-0.5,0.7-0.6,1.3c0,0.2,0,1.1-0.1,2.1c-0.1,0-0.2,0-0.4,0c0-1,0-1.9-0.1-2.1
		c-0.1-0.6-0.4-0.8-0.6-1.3c-0.1-0.3-0.2-0.7-0.2-1c-2.1-0.4-3.7-2.2-3.7-4.4c0-2.5,2-4.5,4.5-4.5c2.5,0,4.5,2,4.5,4.5
		C79.2,126.5,77.8,128.3,75.9,128.8z"/>
	<path fill="#40A6D2" d="M97.8,26.3l-0.2,0.4v1.7l-0.5,0.3c0,0-0.3,3.3-1.4,5.3c-1.2,2.1-1.5,3.3-2.8,3.9c-1.3,0.6-3.5,1.1-3.5,1.1
		l-0.2,1.5l-2,0.5l0.1,1.5l-1.1,0.6c0,0,1.3,3.3,2,5.1c0.7,1.8,0.6,6,0.4,8.2c-0.2,2.2-1.1,4.7-0.6,5.4c0.5,0.7,1.2,3.1,1.6,4.4
		c0.4,1.3,0.8,8.8,0.7,10.8c-0.1,2-1.1,4.2-1.5,5.3c-0.3,0.7-0.2,2.1-0.2,4.5c7,0.2,13.8,0.8,20.2,2.1c0.4-2.3,1.3-4.7,1.9-6
		c0.4,1.7,1.1,3.7,1.4,6.1c0,0.2,0.1,0.5,0.1,0.7c1.3,0.3,2.5,0.7,3.8,1.1c0.9-0.4,1.9-0.7,2.8-0.9c1.3-0.2,2.6-0.1,3.3,0.3
		c-0.4,0.8-1,1.6-1.6,2.4c0.5,0.2,1,0.5,1.5,0.7c0-0.1,0-0.1,0-0.2c0.4,0.3,0.8,0.5,1.1,0.8c0.4,0.3,0.8,0.5,1.2,0.8
		c2.4-20.3,1.9-56.6,1.7-65.6l-29-7.7c0.2,0.2,0.3,0.4,0.5,0.6C98.4,22.9,97.8,26.3,97.8,26.3z M122.1,84.7
		c-1.1,1.8-3.8,2.8-5.9,2.5c-0.9-0.1-1.2,0.5-1.8-0.4c-0.8-1.2-1.7-2.7-2.2-3.9c-0.9-2.7-0.6-6.9-0.2-8.8c0.9,1.5,2,3.3,3,5.5
		c0.4,0.8,0.6,1.8,0.7,2.9c0.1,1.3,0.1,2,0,3.3l-0.1,1.4l0.4-1c0.3-0.8,0.6-1.6,1-2.4c0.4-1,0.9-2,1.4-2.6c0.8-1,2-1.9,3.2-2.4
		c1.2-0.5,2.4-0.8,3.3-0.6C124.5,80.2,123.4,82.8,122.1,84.7z M123.7,72.3c-0.5,2-2.8,3.8-4.9,4.1c-0.9,0.1-1,0.9-1.9,0.2
		c-1.1-0.9-2.4-2.1-3.2-3.1c-1.7-2.3-2.6-6.4-2.8-8.3c1.3,1.2,2.9,2.6,4.4,4.4c0.6,0.7,1.1,1.6,1.5,2.6c0.5,1.2,0.7,1.9,1,3.1
		l0.3,1.4l0.1-1.1c0.1-0.9,0.1-1.8,0.2-2.6c0.1-1.1,0.3-2.2,0.6-2.9c0.5-1.2,1.4-2.4,2.4-3.2c1-0.8,2.1-1.5,3-1.6
		C124.6,67.3,124.3,70.1,123.7,72.3z M117.1,59.2c0.1-1.3,0.7-2.7,1.4-3.8c0.8-1.1,1.6-2,2.4-2.3c0.7,2,1.2,4.8,1.2,7
		c0,2.1-1.7,4.4-3.6,5.3c-0.9,0.4-0.8,1.1-1.7,0.7c-1.3-0.6-2.9-1.3-4-2.1c-2.2-1.7-4.2-5.5-5-7.3c1.6,0.8,3.5,1.7,5.5,3
		c0.7,0.5,1.5,1.2,2.2,2.1c0.8,1,1.2,1.6,1.8,2.8l0.7,1.2l-0.2-1c-0.1-0.9-0.3-1.7-0.5-2.6C117.2,61,117.1,59.9,117.1,59.2z
		 M113.9,53.7c-0.3-0.7-0.7-1.5-1-2.2c-0.4-0.9-0.7-1.9-0.9-2.6c-0.2-1.2,0-2.5,0.4-3.7c0.4-1.1,1-2.1,1.6-2.6c1.1,1.6,2.2,4,2.7,6
		c0.5,1.9-0.5,4.4-2,5.6c-0.7,0.6-0.4,1.2-1.4,1c-1.3-0.2-2.9-0.5-4.1-1c-2.4-1-5.1-3.9-6.1-5.4c1.6,0.4,3.5,0.7,5.6,1.4
		c0.8,0.3,1.6,0.7,2.4,1.3c1,0.7,1.4,1.2,2.2,2.1l0.9,0.9L113.9,53.7z M108.1,45c-0.6-0.6-1.1-1.2-1.7-1.8c-0.7-0.7-1.3-1.5-1.7-2.2
		c-0.6-1.1-0.8-2.4-0.8-3.6c0-1.2,0.3-2.4,0.7-3c1.6,1.2,3.3,3.1,4.5,4.8c1.1,1.6,0.9,4.3-0.1,5.9c-0.5,0.8,0,1.2-1,1.4
		c-1.3,0.2-2.9,0.4-4.2,0.3c-2.6-0.2-6-2.1-7.5-3.1c1.6-0.2,3.6-0.5,5.7-0.5c0.8,0,1.8,0.2,2.7,0.5c1.1,0.4,1.7,0.7,2.8,1.2l1.2,0.6
		L108.1,45z"/>
	<path fill="#40A6D2" d="M124.2,95.8c0-0.1,0-0.2,0-0.4C124.2,95.5,124.2,95.7,124.2,95.8L124.2,95.8z"/>
	<path fill="#40A6D2" d="M26.3,98.9C26.3,98.9,26.3,98.9,26.3,98.9c0,0.3,0.1,0.6,0.1,0.8c0-0.2-0.1-0.4-0.1-0.6
		C26.3,99,26.3,98.9,26.3,98.9z"/>
	<path fill="#40A6D2" d="M27.6,93.3c0.5-0.2,0.9-0.5,1.4-0.7c-0.7-0.9-1.2-1.7-1.7-2.6c0.8-0.4,2-0.4,3.3-0.3c1,0.1,2,0.5,2.9,0.9
		c1.2-0.4,2.4-0.8,3.7-1.1c0-0.3,0-0.5,0.1-0.8c0.3-2.3,1-4.4,1.4-6.1c0.6,1.3,1.5,3.7,1.9,6c8.8-1.9,18.7-2.2,28.6-2.2l0,0
		c0.9-1.3,1.1-1.4,2-1.7c0.9-0.2,0.1-1.4,1-2.5c0.9-1.1,0.8-5.5,0.8-6.6c0-1.2-1.2-1.2-1.6-2.5c-0.4-1.3,0.2-5.2,0.2-7.4
		c0-2.2,1.4-5.1,1.4-5.1c0.4-1.2,0.1-7.2,0.1-9c-0.1-1.8-1.9-4.6-2.7-6.6c-0.9-2-1.4-3.4-0.6-5.2c0.8-1.8,0.4-2.1-0.1-2.8
		c-0.5-0.7-0.2-1.4,0.4-1.9c0.6-0.4,0.7-0.4,0.4-0.7c-0.3-0.2-1.4-1.8-1.4-1.8c-0.6,0-0.9-0.4-0.9-0.4c-1.9-2.3-2-6.7,1.4-8.3
		c3.5-1.6,6.1,0.3,6.1,0.3s2.2-0.7,3.1-0.9c0.8-0.2,1.4-0.1,1.5,1c0,1.1-2.6,2.2-2.6,2.2s0,0.2,0.1,0.8c0.1,0.6,0.6,1.6,1.2,1.9
		c0.6,0.3,0.2,0.9,0,1.1c-0.2,0.2,0.4,0.4,0.7,0.8c0.3,0.4,0.1,2,0.1,2s1.3,0.2,2.1,0.2c0.8,0,4.8,0.5,5.5,0.4
		c0.7-0.1,1.6-4.1,1.9-5c0.4-1,0.5-5.1,0.5-5.1s-0.8-0.4-1.3-1.4s-1.5-3.4-1.5-3.4s-0.2-0.1-0.6-0.3L75,15.4L23.9,29
		c-0.1,6.8-0.4,29.7,0.5,49.1c0.8-0.1,2.1,0.1,3.3,0.6c1.2,0.5,2.4,1.4,3.2,2.4c0.5,0.6,1,1.6,1.4,2.6c0.4,0.8,0.7,1.6,1,2.4l0.4,1
		l-0.1-1.4c-0.1-1.3-0.1-2,0-3.3c0.1-1.1,0.3-2.1,0.7-2.9c1-2.2,2.1-3.9,3-5.5c0.4,1.9,0.7,6.1-0.2,8.8c-0.5,1.3-1.4,2.8-2.2,3.9
		c-0.6,0.9-0.9,0.2-1.8,0.4c-2.1,0.3-4.8-0.7-5.9-2.5c-1.2-1.9-2.3-4.4-2.8-6.4c0.3,5.8,0.7,11.3,1.2,16c0.6-0.4,1.2-0.9,1.9-1.3
		C27.5,93.1,27.6,93.2,27.6,93.3z M48.7,33.8c1.3-1.4,3.3-2.8,4.9-3.6c0.3,0.7,0.3,1.7,0.1,2.8c-0.2,1.1-0.7,2.3-1.4,3.1
		c-0.4,0.5-1.1,1.1-1.9,1.7c-0.6,0.4-1.2,0.9-1.8,1.3l-0.7,0.5l1.2-0.3c1-0.3,1.6-0.5,2.7-0.6c0.9-0.1,1.8-0.1,2.5,0
		c2,0.4,3.7,1,5.1,1.4c-1.5,0.7-4.9,1.8-7.3,1.5c-1.1-0.1-2.6-0.6-3.7-1c-0.8-0.3-0.3-0.7-0.6-1.4C47.1,37.4,47.4,35,48.7,33.8z
		 M40.3,39.2c1.2-1.8,2.9-3.7,4.5-4.8c0.4,0.7,0.7,1.8,0.7,3c0,1.2-0.2,2.6-0.8,3.6c-0.4,0.6-1,1.4-1.7,2.2
		c-0.5,0.6-1.1,1.2-1.7,1.8l-0.7,0.7l1.2-0.6c1-0.5,1.6-0.9,2.8-1.2c1-0.3,1.9-0.5,2.7-0.5c2.2,0,4.1,0.3,5.7,0.5
		c-1.5,1-4.9,2.9-7.5,3.1c-1.2,0.1-2.9-0.1-4.2-0.3c-1-0.2-0.5-0.7-1-1.4C39.3,43.5,39.2,40.8,40.3,39.2z M32.7,48.6
		c0.5-2,1.6-4.4,2.7-6c0.6,0.5,1.2,1.5,1.6,2.6c0.4,1.2,0.6,2.5,0.4,3.7c-0.1,0.7-0.5,1.7-0.9,2.6c-0.3,0.7-0.7,1.5-1,2.2l-0.4,0.9
		l0.9-0.9c0.8-0.8,1.3-1.3,2.2-2.1c0.8-0.6,1.6-1.1,2.4-1.3c2.1-0.7,4-1.1,5.6-1.4c-1.1,1.4-3.7,4.3-6.1,5.4c-1.1,0.5-2.8,0.8-4,1
		c-1,0.2-0.7-0.5-1.4-1C33.2,53,32.2,50.5,32.7,48.6z M28.4,53.1c0.8,0.3,1.7,1.2,2.4,2.3c0.7,1.1,1.3,2.5,1.4,3.8
		c0.1,0.8-0.1,1.9-0.2,2.9c-0.1,0.9-0.3,1.7-0.5,2.6l-0.2,1l0.7-1.2c0.6-1.1,1-1.7,1.8-2.8c0.7-0.9,1.4-1.6,2.2-2.1
		c2-1.3,3.9-2.2,5.5-3c-0.7,1.8-2.7,5.5-5,7.3c-1.1,0.8-2.7,1.6-4,2.1c-1,0.4-0.9-0.3-1.7-0.7c-1.9-0.9-3.6-3.2-3.6-5.3
		C27.2,57.8,27.7,55,28.4,53.1z M35.7,73.5c-0.8,1.1-2.2,2.3-3.2,3.1c-0.8,0.7-0.9,0-1.8-0.2c-2.1-0.3-4.4-2.1-4.9-4.1
		c-0.6-2.2-0.9-5-0.8-7.1c0.8,0.1,1.9,0.7,3,1.6c1,0.9,1.9,2,2.4,3.2c0.3,0.7,0.5,1.8,0.6,2.9c0.1,0.9,0.1,1.7,0.2,2.6l0.1,1.1
		l0.3-1.4c0.3-1.2,0.5-1.9,1-3.1c0.4-1,0.9-1.9,1.5-2.6c1.5-1.8,3.2-3.2,4.4-4.4C38.3,67.1,37.3,71.2,35.7,73.5z"/>
	<path fill="#453217" d="M124.3,94.6c-0.4-0.3-0.8-0.5-1.2-0.8c-0.4-0.3-0.7-0.5-1.1-0.8c0,0.1,0,0.1,0,0.2
		c-0.2,1.4-0.5,2.6-0.8,3.6c-0.1,0.4-0.2,0.8-0.4,1.2c-7.2,20.7-22.2,36.1-46,47C51.3,134.3,36.3,119.1,29,98.8
		c-0.1-0.3-0.2-0.5-0.3-0.8c-0.4-1.2-0.8-2.8-1.1-4.7c0-0.1,0-0.2-0.1-0.3c-0.6,0.4-1.3,0.9-1.9,1.3c-0.2,0.1-0.3,0.2-0.5,0.3
		c0.3,1.6,0.7,3,1.1,4.2c0,0,0,0,0,0c0,0.1,0,0.1,0.1,0.2c0.1,0.4,0.3,0.8,0.4,1.1c0.6,1.6,1.2,3.2,1.9,4.9
		c2.1,4.7,4.8,9.7,8.6,14.7c4.4,5.9,10.3,11.8,18.1,17.3c5.4,3.8,11.8,7.5,19.3,10.9v0.1c0,0,0,0,0.1,0c0,0,0,0,0.1,0v0v0
		c0.8-0.4,1.7-0.8,2.5-1.1c4.4-2.1,8.4-4.3,12-6.5c20.9-13.1,29.6-28.8,34-41.3c0.3-0.9,0.6-1.9,0.8-3.1c0-0.1,0-0.2,0.1-0.4
		C124.3,95.2,124.3,94.9,124.3,94.6C124.4,94.6,124.3,94.6,124.3,94.6z"/>
	<path fill="#40A6D2" d="M94.1,27.6c0-0.3-0.1-1.6-0.1-1.6l-0.6-0.4c0,0,0,2.7,0.1,2.8C93.6,28.6,94.1,27.9,94.1,27.6z"/>
	<path fill="#40A6D2" d="M95.4,19.9c-0.7-0.3-0.8-0.5-1.1-0.6c-0.3-0.1-0.7-0.2-1.1-0.5c-0.3-0.2-1-1-2.4-1c-1.4,0-1.2,0.2-1.5,0.3
		c-0.3,0.1-0.4,0-0.9-0.5c-0.5-0.5-0.2-0.6-0.6-1.4c-0.4-0.8-1.6-0.5-1.3,0.5l0.1,0.4l-30.2-15c0,0-1-0.5-2.1,0.3
		c-1,0.8-2.6,2.7-1.8,4c0.8,1.3,1.7,0.3,2.5-1.2c0.8-1.5-0.1-2,0.7-2.2c0.8-0.2,1.7,0.5,2.8,1.2c1.1,0.6,24.2,12.3,28.1,14.3
		L97,21.3C96.5,20.6,96,20.2,95.4,19.9z"/>
	<g>
		<path fill="#FFFFFF" d="M74.7,120c-2.5,0-4.5,2-4.5,4.5c0,2.2,1.6,4,3.7,4.4c0,0,0-0.1,0-0.1c-1.7-0.3-3-1.6-3.4-3.2l0,0
			c0,0,0,0,0,0c0,0,0-0.1,0-0.1l0,0v0l0,0c-0.1-0.3-0.1-0.6-0.1-0.9c0-2.4,2-4.4,4.4-4.4c2.4,0,4.4,2,4.4,4.4c0,0.1,0,0.2,0,0.3
			c0,0.1,0,0.3-0.1,0.5c-0.3,1.6-1.5,2.9-3.1,3.4c0,0,0,0.1,0,0.1c1.9-0.5,3.3-2.3,3.3-4.3C79.2,122,77.2,120,74.7,120z M71.7,121.3
			L71.7,121.3L71.7,121.3z"/>
	</g>
	<path fill="#FFFFFF" d="M74,128.8c0.2,0.1,0.5,0.2,0.7,0.2c0,0,0,0,0,0c0.2,0,0.3,0,0.5-0.1c0.2,0,0.3-0.1,0.5-0.2
		c-0.3,0.1-0.6,0.1-1,0.1C74.5,128.9,74.2,128.8,74,128.8z"/>
	<path fill="#FFFFFF" d="M74,128.8c0,0-0.1,0-0.1,0c0,0,0,0.1,0,0.1c0.3,0,0.5,0.1,0.8,0.1C74.4,129,74.2,128.9,74,128.8z"/>
	<path fill="#FFFFFF" d="M75.7,128.7c-0.1,0.1-0.3,0.1-0.5,0.2c0.2,0,0.5-0.1,0.7-0.1c0,0,0-0.1,0-0.1
		C75.8,128.7,75.7,128.7,75.7,128.7z"/>
</g>
</svg>
