<?xml version="1.0" encoding="utf-8"?>
<!-- Generator: Adobe Illustrator 18.1.0, SVG Export Plug-In . SVG Version: 6.00 Build 0)  -->
<svg version="1.1" id="Layer_1" xmlns="http://www.w3.org/2000/svg" xmlns:xlink="http://www.w3.org/1999/xlink" x="0px" y="0px"
	 viewBox="0 0 150 150" enable-background="new 0 0 150 150" xml:space="preserve">
<g>
	<path fill="none" d="M75,13.7c-32.7,0-59.3,26.6-59.3,59.3c0,32.7,26.6,59.3,59.3,59.3c32.7,0,59.3-26.6,59.3-59.3
		C134.4,40.3,107.7,13.7,75,13.7z M100,115.5C100.1,115.5,100.1,115.5,100,115.5c-5.6,3.3-11.8,5.5-18.5,6.4
		c-2.1,0.3-4.2,0.4-6.4,0.4c-2.4,0-4.7-0.2-7-0.5c-6-0.8-11.7-2.7-16.8-5.6c0.5-0.4,1-0.7,1.6-1c-0.6,0.3-1.2,0.7-1.6,1
		C36,107.8,25.7,91.6,25.7,73c0-27.2,22.1-49.3,49.3-49.3c27.2,0,49.3,22.1,49.3,49.3C124.4,91.1,114.6,106.9,100,115.5z"/>
	<path fill="none" d="M57,113c0.4,0.2,0.8,0.3,1.2,0.4C57.8,113.2,57.5,113,57,113C57.1,112.9,57,112.9,57,113z"/>
	<path fill="#F3F2F2" d="M50.5,12.2c-0.1,0.1-0.1,0.1-0.2,0.2c0.1,0,0.1,0,0.2-0.1C50.5,12.3,50.5,12.2,50.5,12.2z"/>
	<path fill="#F3F2F2" d="M47.7,13.1c0,0.2,0,0.3,0,0.4c0.1,0,0.2-0.1,0.3-0.1C47.9,13.3,47.8,13.3,47.7,13.1z"/>
	<path fill="#F3F2F2" d="M94.1,135.7c0.1,0,0.3,0.1,0.4,0.2c0-0.1,0.1-0.3,0.1-0.4C94.4,135.5,94.3,135.6,94.1,135.7
		C94.1,135.6,94.1,135.7,94.1,135.7z"/>
	<path fill="#00ABE8" d="M75,7.5c-8.7,0-17,1.7-24.6,4.8c-0.1,0-0.1,0-0.2,0.1c-0.8,0.3-1.5,0.7-2.3,1c-0.1,0-0.2,0.1-0.3,0.1
		C25.2,23.9,9.6,46.6,9.6,73c0,36.1,29.4,65.5,65.5,65.5c6.6,0,13-1,19.1-2.9c0.2,0,0.3-0.1,0.5-0.1c26.6-8.3,45.9-33.2,45.9-62.5
		C140.5,36.9,111.1,7.5,75,7.5z M75,136.1c-34.9,0-63.1-28.3-63.1-63.1C11.9,38.1,40.2,9.9,75,9.9c34.9,0,63.1,28.3,63.1,63.1
		C138.2,107.9,109.9,136.1,75,136.1z"/>
	<path fill="#008BCD" d="M75,9.9C40.2,9.9,11.9,38.1,11.9,73c0,34.9,28.3,63.1,63.1,63.1c34.9,0,63.1-28.3,63.1-63.1
		C138.2,38.1,109.9,9.9,75,9.9z M75,132.3c-32.7,0-59.3-26.6-59.3-59.3c0-32.7,26.6-59.3,59.3-59.3c32.7,0,59.3,26.6,59.3,59.3
		C134.4,105.7,107.7,132.3,75,132.3z"/>
	<path fill="#008BCD" d="M75,23.7c-27.2,0-49.3,22.1-49.3,49.3c0,18.6,10.3,34.8,25.6,43.2c0.5-0.4,1-0.7,1.6-1
		c-0.5,0.3-1.1,0.6-1.6,1c5.1,2.8,10.8,4.7,16.8,5.6c2.3,0.3,4.6,0.5,7,0.5c2.2,0,4.3-0.2,6.4-0.4c6.7-0.9,13-3.1,18.5-6.4
		c0,0,0,0,0,0c14.5-8.6,24.3-24.4,24.3-42.5C124.4,45.8,102.3,23.7,75,23.7z M97.7,110.6C97.7,110.6,97.7,110.6,97.7,110.6
		c-3.7,2.2-8.7,3.4-13.1,4.4c-1-2.8-3.9-5.8-3.9-5.8c3.8-1.7,7-4,9.5-6.6c0.7,0.1,1.4,0.2,2.1,0.2c4.2,0,8.3-2.2,12.1-6.4
		c8-9,12.6-25.5,9.9-30.7c-0.7-1.3-1.7-2.1-3-2.3c-2.9-0.3-6.7,2.4-9.8,5.2c0-1.6-0.1-2.6-0.1-2.6c-2.7-2.7-8.5-3.8-14-4.2l4.8-9.8
		c0.2,0.1,0.4,0.1,0.6,0.1c0.7,0,1.3-0.6,1.3-1.3s-0.6-1.3-1.3-1.3c-0.7,0-1.3,0.6-1.3,1.3c0,0.3,0.1,0.6,0.3,0.8l-8.3,6.7
		l-0.4-13.7c0.7,0,1.3-0.6,1.3-1.3c0-0.7-0.6-1.3-1.3-1.3c-0.7,0-1.3,0.6-1.3,1.3c0,0.5,0.3,0.9,0.7,1.1l-7.5,13.4l-7.5-13.4
		c0.4-0.2,0.7-0.6,0.7-1.1c0-0.7-0.6-1.3-1.3-1.3c-0.7,0-1.3,0.6-1.3,1.3c0,0.7,0.6,1.3,1.3,1.3l-0.4,13.7L58,51.7
		c0.2-0.2,0.3-0.5,0.3-0.8c0-0.7-0.6-1.3-1.3-1.3c-0.7,0-1.3,0.6-1.3,1.3s0.6,1.3,1.3,1.3c0.2,0,0.4,0,0.6-0.1l4.8,9.8
		c-5.5,0.4-11.3,1.6-14,4.2c0,0-0.1,1-0.1,2.6c-3.1-2.8-7-5.6-9.8-5.2c-1.3,0.2-2.4,0.9-3,2.3c-2.6,5.2,1.9,21.7,9.9,30.7
		c3.8,4.3,7.9,6.4,12.1,6.4c0.7,0,1.4-0.1,2.1-0.2c2.6,2.6,5.7,4.9,9.5,6.6c0,0-2.9,2.9-3.9,5.7c-2.1-0.5-4.7-0.9-6.9-1.6
		c-0.4-0.1-0.8-0.3-1.2-0.4c0,0,0.1-0.1,0.1-0.1C42,106,31.4,90.7,31.4,73c0-24.2,19.7-43.8,43.8-43.8c24.2,0,43.8,19.7,43.8,43.8
		C119.1,89,110.5,103,97.7,110.6z M91.5,101.3c8.5-9.8,9.9-23.4,10-30.5c3.2-3,7.1-6.1,9.6-5.8c0.8,0.1,1.4,0.6,1.9,1.5
		c2.1,4.3-1.9,20.2-9.7,29C100.6,98.5,96.5,101.7,91.5,101.3z M58.2,101.3c-5,0.4-9.1-2.8-11.8-5.8c-7.8-8.8-11.8-24.8-9.7-29
		c0.4-0.9,1-1.4,1.9-1.5c2.5-0.3,6.5,2.8,9.6,5.8C48.3,77.9,49.7,91.5,58.2,101.3z"/>
	<path fill="#00ABE8" d="M103.3,95.5c7.8-8.8,11.8-24.8,9.7-29c-0.4-0.9-1-1.4-1.9-1.5c-2.5-0.3-6.5,2.8-9.6,5.8
		c-0.1,7.1-1.5,20.8-10,30.5C96.5,101.7,100.6,98.5,103.3,95.5z"/>
	<path fill="#00ABE8" d="M38.6,65c-0.8,0.1-1.4,0.6-1.9,1.5c-2.1,4.3,1.9,20.2,9.7,29c2.7,3,6.8,6.2,11.8,5.8
		c-8.5-9.8-9.9-23.4-10-30.5C45.1,67.7,41.1,64.7,38.6,65z"/>
	<path fill="#00ABE8" d="M75.2,29.2c-24.2,0-43.8,19.7-43.8,43.8c0,17.7,10.6,33,25.7,39.9c0.4,0.2,0.7,0.3,1.1,0.5
		c2.2,0.7,4.9,1.1,6.9,1.6c1.1-2.8,3.9-5.7,3.9-5.7c-3.8-1.7-7-4-9.5-6.6c-0.7,0.1-1.4,0.2-2.1,0.2c-4.2,0-8.3-2.2-12.1-6.4
		c-8-9-12.6-25.5-9.9-30.7c0.7-1.3,1.7-2.1,3-2.3c2.9-0.4,6.7,2.4,9.8,5.2c0-1.6,0.1-2.6,0.1-2.6c2.7-2.7,8.5-3.8,14-4.2L57.6,52
		c-0.2,0.1-0.4,0.1-0.6,0.1c-0.7,0-1.3-0.6-1.3-1.3s0.6-1.3,1.3-1.3c0.7,0,1.3,0.6,1.3,1.3c0,0.3-0.1,0.6-0.3,0.8l8.3,6.7l0.4-13.7
		c-0.7,0-1.3-0.6-1.3-1.3c0-0.7,0.6-1.3,1.3-1.3c0.7,0,1.3,0.6,1.3,1.3c0,0.5-0.3,0.9-0.7,1.1l7.5,13.4l7.5-13.4
		c-0.4-0.2-0.7-0.6-0.7-1.1c0-0.7,0.6-1.3,1.3-1.3c0.7,0,1.3,0.6,1.3,1.3c0,0.7-0.6,1.3-1.3,1.3l0.4,13.7l8.3-6.7
		c-0.2-0.2-0.3-0.5-0.3-0.8c0-0.7,0.6-1.3,1.3-1.3c0.7,0,1.3,0.6,1.3,1.3s-0.6,1.3-1.3,1.3c-0.2,0-0.4,0-0.6-0.1l-4.8,9.8
		c5.5,0.4,11.3,1.6,14,4.2c0,0,0.1,1,0.1,2.6c3.1-2.8,7-5.6,9.8-5.2c1.3,0.2,2.4,0.9,3,2.3c2.6,5.2-1.9,21.7-9.9,30.7
		c-3.8,4.3-7.9,6.4-12.1,6.4c-0.7,0-1.4-0.1-2.1-0.2c-2.6,2.6-5.7,4.9-9.5,6.6c0,0,2.9,2.9,3.9,5.8c4.4-1,9.3-2.2,13.1-4.4
		c0,0,0,0,0,0C110.5,103,119.1,89,119.1,73C119.1,48.8,99.4,29.2,75.2,29.2z"/>
</g>
</svg>
