<?xml version="1.0" encoding="utf-8"?>
<!-- Generator: Adobe Illustrator 18.1.0, SVG Export Plug-In . SVG Version: 6.00 Build 0)  -->
<svg version="1.1" id="Layer_1" xmlns="http://www.w3.org/2000/svg" xmlns:xlink="http://www.w3.org/1999/xlink" x="0px" y="0px"
	 viewBox="0 0 2000 2000" enable-background="new 0 0 2000 2000" xml:space="preserve">
<g>
	<path fill="#718F40" d="M603.3,1765.9c-0.9-0.9-1.8-1.8-2.6-2.7C601.6,1764.2,602.5,1765.1,603.3,1765.9z"/>
	<path fill="#718F40" d="M618.5,1781.1c-0.4-0.4-0.9-0.9-1.3-1.3C617.7,1780.2,618.1,1780.7,618.5,1781.1z"/>
	<path fill="#718F40" d="M611.3,1774c-0.7-0.7-1.5-1.5-2.3-2.3C609.8,1772.4,610.6,1773.2,611.3,1774z"/>
	<path fill="#718F40" d="M625.1,1787.5c0,0-0.1-0.1-0.2-0.1C625,1787.4,625,1787.5,625.1,1787.5z"/>
	<path fill="#718F40" d="M191.5,679.2c1.2-2.6,2.3-5.2,3.5-7.8C193.8,674,192.7,676.6,191.5,679.2z"/>
	<path fill="#718F40" d="M208.3,1198.9c-1-2.4-2-4.8-3-7.3C206.3,1194,207.3,1196.5,208.3,1198.9z"/>
	<path fill="#718F40" d="M179.8,1119.7c-0.4-1.2-0.7-2.3-1-3.5C179.1,1117.4,179.4,1118.6,179.8,1119.7z"/>
	<path fill="#718F40" d="M166.2,1071.5c-0.7-2.9-1.4-5.8-2.1-8.7C164.9,1065.7,165.5,1068.6,166.2,1071.5z"/>
	<path fill="#718F40" d="M148.4,973.9c-0.4-3.5-0.7-7.1-1.1-10.6C147.7,966.8,148,970.4,148.4,973.9z"/>
	<path fill="#718F40" d="M172.6,1095.7c-0.7-2.4-1.3-4.8-1.9-7.2C171.4,1090.9,172,1093.3,172.6,1095.7z"/>
	<path fill="#718F40" d="M151.6,998.4c-0.5-3.4-1-6.9-1.4-10.3C150.7,991.5,151.1,995,151.6,998.4z"/>
	<path fill="#718F40" d="M160.6,1047.2c-0.7-3.2-1.3-6.4-2-9.6C159.3,1040.8,159.9,1044,160.6,1047.2z"/>
	<path fill="#718F40" d="M155.7,1022.9c-0.6-3.4-1.2-6.7-1.7-10.1C154.5,1016.2,155.1,1019.5,155.7,1022.9z"/>
	<path fill="#718F40" d="M198.2,1173c-0.6-1.7-1.3-3.4-1.9-5.1C196.9,1169.7,197.5,1171.3,198.2,1173z"/>
	<path fill="#718F40" d="M218.5,1223.2c-1.2-2.7-2.4-5.4-3.5-8.1C216.1,1217.8,217.3,1220.5,218.5,1223.2z"/>
	<path fill="#718F40" d="M263.3,1315.8c-1.6-3-3.2-5.9-4.7-8.9C260.2,1309.9,261.7,1312.8,263.3,1315.8z"/>
	<path fill="#718F40" d="M287.9,1360.1c-1.7-2.9-3.4-5.9-5.1-8.8C284.5,1354.2,286.2,1357.1,287.9,1360.1z"/>
	<path fill="#718F40" d="M300.7,1381.7c-1.7-2.9-3.4-5.8-5.2-8.7C297.2,1375.9,298.9,1378.8,300.7,1381.7z"/>
	<path fill="#718F40" d="M275.5,1338.1c-1.6-3-3.3-5.9-4.9-8.9C272.2,1332.2,273.8,1335.1,275.5,1338.1z"/>
	<path fill="#718F40" d="M251.5,1293.2c-1.5-3-3-5.9-4.5-8.9C248.5,1287.3,250,1290.2,251.5,1293.2z"/>
	<path fill="#718F40" d="M229.1,1247c-1.3-2.9-2.6-5.7-3.9-8.6C226.5,1241.3,227.8,1244.1,229.1,1247z"/>
	<path fill="#718F40" d="M240.1,1270.3c-1.4-3-2.9-5.9-4.3-8.9C237.3,1264.4,238.7,1267.4,240.1,1270.3z"/>
	<path fill="#718F40" d="M245.5,590.3c4.7-5.8,9.7-11.4,14.7-16.8C255.1,578.9,250.2,584.5,245.5,590.3z"/>
	<path fill="#718F40" d="M206.9,647.9c3.7-6.9,7.6-13.6,11.7-20.1C214.5,634.3,210.6,641,206.9,647.9z"/>
	<path fill="#718F40" d="M218.6,627.6c4.1-6.5,8.3-12.8,12.7-19C226.9,614.8,222.7,621.1,218.6,627.6z"/>
	<path fill="#718F40" d="M231.5,608.4c4.4-6.1,9-12.1,13.7-17.8C240.5,596.4,235.9,602.3,231.5,608.4z"/>
	<path fill="#718F40" d="M180.8,704.6c1.2-3.2,2.4-6.3,3.7-9.5C183.2,698.2,182,701.4,180.8,704.6z"/>
	<path fill="#718F40" d="M260.4,573.3c5.1-5.4,10.3-10.7,15.7-15.7C270.7,562.6,265.5,567.9,260.4,573.3z"/>
	<path fill="#718F40" d="M276.3,557.4c5.4-5.1,10.9-10,16.6-14.7C287.2,547.3,281.7,552.3,276.3,557.4z"/>
	<path fill="#718F40" d="M146.1,949.4c-0.3-3.6-0.5-7.2-0.7-10.8C145.6,942.2,145.8,945.8,146.1,949.4z"/>
	<path fill="#718F40" d="M313.7,1403c-1.8-2.8-3.5-5.7-5.3-8.5C310.2,1397.3,311.9,1400.2,313.7,1403z"/>
	<path fill="#718F40" d="M171.9,729.1c1.1-3.4,2.2-6.8,3.4-10.1C174.1,722.3,173,725.7,171.9,729.1z"/>
	<path fill="#718F40" d="M144.9,875.8c0.2-3.7,0.4-7.4,0.6-11C145.3,868.4,145.1,872.1,144.9,875.8z"/>
	<path fill="#718F40" d="M164.4,753.5c1-3.5,1.9-7,3-10.5C166.3,746.5,165.3,750,164.4,753.5z"/>
	<path fill="#718F40" d="M144.3,900.3c0-3.7,0.1-7.3,0.1-11C144.4,893,144.3,896.6,144.3,900.3z"/>
	<path fill="#718F40" d="M144.7,924.9c-0.1-3.6-0.2-7.3-0.3-10.9C144.5,917.6,144.6,921.2,144.7,924.9z"/>
	<path fill="#718F40" d="M146.6,851.2c0.3-3.7,0.7-7.4,1.1-11C147.2,843.9,146.9,847.6,146.6,851.2z"/>
	<path fill="#718F40" d="M158.1,777.9c0.8-3.6,1.6-7.2,2.5-10.8C159.7,770.7,159,774.3,158.1,777.9z"/>
	<path fill="#718F40" d="M149.3,826.8c0.5-3.7,1-7.3,1.5-11C150.3,819.4,149.8,823.1,149.3,826.8z"/>
	<path fill="#718F40" d="M153.1,802.3c0.7-3.7,1.3-7.3,2-11C154.4,795,153.8,798.7,153.1,802.3z"/>
	<path fill="#718F40" d="M340.2,1444.4c-1.7-2.6-3.4-5.2-5.1-7.8C336.8,1439.2,338.5,1441.8,340.2,1444.4z"/>
	<path fill="#718F40" d="M467.2,1615.1c-1.2-1.5-2.4-2.9-3.7-4.4C464.7,1612.2,466,1613.7,467.2,1615.1z"/>
	<path fill="#718F40" d="M367.5,1484.4c-1.7-2.4-3.3-4.8-5-7.2C364.2,1479.6,365.8,1482,367.5,1484.4z"/>
	<path fill="#718F40" d="M494.4,1647.5c-1.5-1.8-3.1-3.6-4.6-5.4C491.3,1643.9,492.8,1645.7,494.4,1647.5z"/>
	<path fill="#718F40" d="M408.7,1541.1c-0.9-1.2-1.7-2.3-2.6-3.5C406.9,1538.7,407.8,1539.9,408.7,1541.1z"/>
	<path fill="#718F40" d="M353.8,1464.6c-1.7-2.5-3.4-5-5-7.5C350.4,1459.6,352.1,1462.1,353.8,1464.6z"/>
	<path fill="#718F40" d="M554.9,1715.4c-1.5-1.6-3-3.2-4.4-4.8C551.9,1712.2,553.4,1713.8,554.9,1715.4z"/>
	<path fill="#718F40" d="M565.7,1726.9c-1.4-1.5-2.9-3.1-4.3-4.6C562.8,1723.8,564.2,1725.4,565.7,1726.9z"/>
	<path fill="#718F40" d="M481.1,1631.9c-1.5-1.7-2.9-3.5-4.4-5.2C478.2,1628.4,479.6,1630.1,481.1,1631.9z"/>
	<path fill="#718F40" d="M381.2,1503.7c-1.5-2.1-3.1-4.3-4.6-6.5C378.1,1499.4,379.6,1501.6,381.2,1503.7z"/>
	<path fill="#718F40" d="M507.4,1662.5c-1.6-1.9-3.2-3.7-4.9-5.6C504.1,1658.8,505.7,1660.7,507.4,1662.5z"/>
	<path fill="#718F40" d="M326.9,1423.9c-1.8-2.7-3.5-5.5-5.2-8.2C323.4,1418.4,325.1,1421.1,326.9,1423.9z"/>
	<path fill="#718F40" d="M575.9,1737.7c-1.3-1.4-2.7-2.8-4-4.2C573.2,1734.9,574.6,1736.3,575.9,1737.7z"/>
	<path fill="#718F40" d="M452.7,1597.4c-0.9-1.1-1.8-2.2-2.7-3.3C450.9,1595.2,451.8,1596.3,452.7,1597.4z"/>
	<path fill="#718F40" d="M531.8,1690.2c-1.5-1.7-3.1-3.4-4.7-5.2C528.8,1686.7,530.3,1688.4,531.8,1690.2z"/>
	<path fill="#718F40" d="M594.8,1757.3c-1.1-1.1-2.2-2.2-3.3-3.4C592.6,1755.1,593.7,1756.2,594.8,1757.3z"/>
	<path fill="#718F40" d="M585.6,1747.9c-1.2-1.2-2.4-2.5-3.6-3.7C583.2,1745.4,584.4,1746.6,585.6,1747.9z"/>
	<path fill="#718F40" d="M519.8,1676.7c-1.6-1.8-3.2-3.6-4.9-5.5C516.6,1673,518.2,1674.9,519.8,1676.7z"/>
	<path fill="#718F40" d="M543.5,1703c-1.5-1.6-3-3.3-4.5-5C540.5,1699.8,542,1701.4,543.5,1703z"/>
	<path fill="#718F40" d="M394.9,1522.6c-1.3-1.7-2.6-3.5-3.8-5.3C392.3,1519.1,393.6,1520.8,394.9,1522.6z"/>
	<path fill="#97A822" d="M495.5,455.5c-74.3,9.9-145.2,39.3-202.5,87c0,0-0.1,0.1-0.1,0.1c-5.7,4.7-11.2,9.6-16.6,14.7
		c-0.1,0.1-0.1,0.1-0.2,0.2c-5.4,5.1-10.6,10.3-15.7,15.7c-0.1,0.1-0.1,0.2-0.2,0.2c-5.1,5.4-10,11-14.7,16.8
		c-0.1,0.1-0.2,0.2-0.2,0.3c-4.7,5.8-9.3,11.7-13.7,17.8c-0.1,0.1-0.1,0.2-0.2,0.2c-4.4,6.1-8.7,12.5-12.7,19c0,0-0.1,0.1-0.1,0.1
		c-4.1,6.5-8,13.2-11.7,20.1c-4.2,7.8-8.1,15.7-11.9,23.5c-1.2,2.6-2.3,5.2-3.5,7.8c-2.4,5.3-4.8,10.5-7,15.9
		c-1.3,3.1-2.5,6.3-3.7,9.5c-1.9,4.8-3.8,9.6-5.5,14.4c-1.2,3.4-2.3,6.8-3.4,10.1c-1.5,4.6-3.1,9.2-4.5,13.9c-1.1,3.5-2,7-3,10.5
		c-1.3,4.5-2.6,9.1-3.7,13.6c-0.9,3.6-1.7,7.2-2.5,10.8c-1,4.5-2.1,9-3,13.5c-0.7,3.6-1.4,7.3-2,11c-0.8,4.5-1.6,8.9-2.3,13.4
		c-0.6,3.7-1.1,7.3-1.5,11c-0.6,4.5-1.2,9-1.7,13.5c-0.4,3.7-0.7,7.4-1.1,11c-0.4,4.5-0.8,9-1,13.5c-0.2,3.7-0.4,7.4-0.6,11
		c-0.2,4.5-0.4,9-0.5,13.6c-0.1,3.7-0.1,7.3-0.1,11c0,4.5,0,9.1,0.1,13.6c0.1,3.6,0.2,7.3,0.3,10.9c0.2,4.6,0.4,9.1,0.7,13.7
		c0.2,3.6,0.4,7.2,0.7,10.8c0.4,4.6,0.8,9.2,1.2,13.9c0.3,3.5,0.7,7.1,1.1,10.6c0.5,4.7,1.2,9.4,1.8,14.1c0.5,3.5,0.9,6.9,1.4,10.3
		c0.7,4.8,1.5,9.6,2.3,14.4c0.6,3.4,1.1,6.7,1.7,10.1c0.9,4.9,1.9,9.9,2.9,14.8c0.7,3.2,1.3,6.4,2,9.6c1.1,5.2,2.4,10.4,3.6,15.5
		c0.7,2.9,1.3,5.8,2.1,8.7c1.4,5.7,3,11.3,4.5,17c0.7,2.4,1.2,4.8,1.9,7.2c1.9,6.9,4,13.7,6.1,20.6c0.4,1.2,0.7,2.3,1,3.5
		c5,16.2,10.5,32.3,16.5,48.2c0.6,1.7,1.3,3.4,1.9,5.1c2.3,6.2,4.7,12.4,7.1,18.6c1,2.4,2,4.8,3,7.3c2.2,5.4,4.4,10.8,6.7,16.2
		c1.1,2.7,2.3,5.4,3.5,8.1c2.2,5.1,4.4,10.1,6.7,15.2c1.3,2.9,2.6,5.7,3.9,8.6c2.2,4.8,4.5,9.7,6.7,14.5c1.4,3,2.9,5.9,4.3,8.9
		c2.3,4.7,4.5,9.3,6.9,14c1.5,3,3,6,4.5,8.9c2.3,4.6,4.7,9.1,7.1,13.7c1.6,3,3.2,6,4.7,8.9c2.4,4.5,4.8,8.9,7.2,13.4
		c1.6,3,3.3,5.9,4.9,8.9c2.4,4.4,4.9,8.8,7.4,13.1c1.7,3,3.4,5.9,5.1,8.8c2.5,4.3,5,8.6,7.6,12.9c1.7,2.9,3.4,5.8,5.2,8.7
		c2.6,4.3,5.2,8.5,7.8,12.8c1.7,2.9,3.5,5.7,5.3,8.5c2.6,4.2,5.3,8.4,7.9,12.6c1.7,2.8,3.5,5.5,5.2,8.2c2.7,4.3,5.5,8.5,8.3,12.7
		c1.7,2.6,3.4,5.2,5.1,7.8c2.8,4.3,5.7,8.5,8.5,12.7c1.7,2.5,3.4,5,5,7.5c2.9,4.3,5.8,8.5,8.7,12.7c1.7,2.4,3.3,4.8,5,7.2
		c3,4.3,6,8.6,9.1,12.8c1.5,2.2,3.1,4.4,4.6,6.5c3.3,4.6,6.6,9.1,9.9,13.6c1.3,1.8,2.6,3.5,3.8,5.3c3.7,5,7.4,10,11.2,15
		c0.9,1.2,1.7,2.4,2.6,3.5c13.9,18.4,27.7,36.1,41.4,53.1c0.9,1.1,1.8,2.2,2.7,3.3c3.6,4.5,7.2,8.9,10.8,13.3c1.2,1.5,2.4,3,3.7,4.4
		c3.2,3.9,6.4,7.7,9.5,11.5c1.5,1.8,2.9,3.5,4.4,5.2c2.9,3.4,5.8,6.9,8.6,10.2c1.6,1.8,3.1,3.6,4.6,5.4c2.7,3.2,5.4,6.3,8.1,9.5
		c1.6,1.9,3.2,3.7,4.9,5.6c2.5,2.9,5.1,5.8,7.6,8.7c1.6,1.9,3.2,3.7,4.9,5.5c2.5,2.8,4.9,5.6,7.4,8.3c1.6,1.7,3.1,3.5,4.7,5.2
		c2.4,2.7,4.8,5.3,7.2,7.9c1.5,1.7,3,3.3,4.5,5c2.3,2.5,4.6,5,6.9,7.5c1.5,1.6,3,3.2,4.4,4.8c2.2,2.4,4.3,4.7,6.5,6.9
		c1.5,1.6,2.9,3.1,4.3,4.6c2.1,2.2,4.2,4.4,6.2,6.6c1.3,1.4,2.7,2.8,4,4.2c2.1,2.2,4.1,4.3,6.1,6.4c1.2,1.3,2.4,2.5,3.6,3.7
		c2,2.1,4,4.1,5.9,6.1c1.1,1.1,2.2,2.3,3.3,3.4c2,2.1,4,4,5.9,6c0.9,0.9,1.8,1.8,2.6,2.7c2,2,3.9,3.9,5.7,5.7
		c0.8,0.8,1.5,1.5,2.3,2.3c2.1,2,4,4,5.9,5.9c0.4,0.4,0.9,0.9,1.3,1.3c2.2,2.2,4.4,4.3,6.4,6.3c0,0,0.1,0.1,0.2,0.1
		c8.3,8.1,14.7,14.1,18.6,17.8c0,0,0,0,0,0C380.1,906.1,465,542.5,495.5,455.5z"/>
	<path fill="#718F40" d="M1428.8,789.8c7.5,0.7,15,1.6,22.4,2.7C1443.8,791.4,1436.3,790.5,1428.8,789.8z"/>
	<path fill="#718F40" d="M1638.5,879.2c-53.4-44.9-117.7-75.9-187.2-86.6c69.5,10.7,133.7,41.8,187.1,86.7
		C1638.4,879.2,1638.4,879.2,1638.5,879.2z"/>
	<path fill="#718F40" d="M1406,788.5c7.6,0.2,15.2,0.6,22.7,1.3C1421.2,789.1,1413.6,788.7,1406,788.5z"/>
	<path fill="#718F40" d="M1680.4,914c0.3,11,0.5,3.4,0.8,3.6c-2.5,0.7-5.3,2.9-8.3,3.8c-13,5.4-27,11.1-41.9,15.5
		c-137.5,55.3-468.3,245.6-982.5,872.4c0,0,0.1,0.3,0.1,0.3c0,0,0,0,0.1,0c0,0.1,0-2.5,0-2.5C1834.8,1776.7,1922.9,1184,1680.4,914
		C1680.4,914,1680.4,914,1680.4,914z"/>
	<path fill="#718F40" d="M1240,817.7c6.7-2.4,13.5-4.7,20.3-6.8C1253.5,813,1246.7,815.3,1240,817.7z"/>
	<path fill="#718F40" d="M1382.9,788.7c7.7-0.3,15.4-0.4,23-0.2C1398.3,788.3,1390.6,788.4,1382.9,788.7z"/>
	<path fill="#718F40" d="M1293.1,802c5.1-1.2,10.1-2.5,15.2-3.5C1303.2,799.5,1298.2,800.8,1293.1,802z"/>
	<path fill="#718F40" d="M1266,809.2c5.9-1.8,11.9-3.5,17.9-5.1C1277.9,805.7,1271.9,807.5,1266,809.2z"/>
	<path fill="#718F40" d="M1322.2,795.9c3.8-0.7,7.6-1.5,11.4-2.1C1329.7,794.5,1326,795.2,1322.2,795.9z"/>
	<path fill="#718F40" d="M1359.6,790.4c7.8-0.8,15.5-1.4,23.3-1.7C1375.1,789,1367.4,789.6,1359.6,790.4z"/>
	<path fill="#718F40" d="M1237.5,818.5c-104.6,37.8-191.7,107-263.9,192.1c33.9-379.4-192.4-555.4-414.7-558.8
		C611.5,290.2,520.2,190,520.2,190l-43.8,43.9c68.6,64.3,42.9,169.5,24.3,221c-76.2,9.2-149.1,38.9-207.6,87.6
		c57.3-47.7,128.2-77.1,202.5-87c-30.5,87-115.4,450.6,148.2,1349.8c2.8,2.7,4.4,4.1,4.7,4.3C660.4,1732,787.9,981.6,1237.5,818.5z"
		/>
	<path fill="#97A822" d="M1631,937.7c14.9-4.5,28.9-9.4,41.9-14.8c3-0.9,5.8-4.5,8.3-5.2c-0.3-0.3-0.5,7.4-0.8-3.6c0,0,0,0,0,0
		c167.4-64,175.6-215.4,175.6-215.4l-62,0.8c2.3,104.3-112.6,161.6-155.5,179.1c0,0-0.1,0.4-0.1,0.4
		c-53.4-44.8-117.6-75.8-187.1-86.5c0,0-0.1-2.3-0.1-2.3c-7.4-1.1-14.9,5.9-22.4-5.1c0,0-0.1,0-0.1,0c-7.5,0-15.1,0-22.7,0
		c0,0-0.1,0-0.1,0c-7.6,0-15.3,0-23,0c0,0-0.1,0-0.1,0c-7.7,0-15.5,2.7-23.3,3.6c-8.8,0.9-17.4,3-26,4.4c-3.8,0.6-7.6,1.8-11.4,2.5
		c-4.6,0.8-9.3,1.8-13.8,2.8c-5.1,1.1-10.2,2.4-15.2,3.6c-3.1,0.7-6.2,1.4-9.2,2.2c-6,1.6-12,3.3-17.9,5.1c-1.9,0.6-3.8,1.1-5.7,1.7
		c-6.9,2.1-13.6,4.4-20.3,6.8c-0.8,0.3-1.6,0.6-2.5,0.9C787.9,981.6,660.4,1732,648.4,1809.7c0,0,0,0.1,0,0.1c0,0,0.1-0.1,0.1-0.1
		C1162.7,1182.9,1493.5,992.9,1631,937.7z"/>
</g>
</svg>
