<?xml version="1.0" encoding="utf-8"?>
<!-- Generator: Adobe Illustrator 18.1.0, SVG Export Plug-In . SVG Version: 6.00 Build 0)  -->
<svg version="1.0" id="Layer_1" xmlns="http://www.w3.org/2000/svg" xmlns:xlink="http://www.w3.org/1999/xlink" x="0px" y="0px"
	 viewBox="0 0 150 150" enable-background="new 0 0 150 150" xml:space="preserve">
<g>
	<path fill="#5A324C" d="M139.6,65c-4.7-6.7-11-11.1-18.5-13.1c3.9-1.8,7.1-4.6,9.2-7.9c3.4-5.4,3.6-11.7,0.4-18.2
		C125.1,15.6,113.3,11,104,11c-0.5,0-1,0-1.7,0c-9,0.7-16.6,4.5-22.3,10.9c-0.8-9.6-7.5-16.4-17.6-17.2l-0.7,0
		c-12.1,0-22,8.4-26.5,16.9c-3.9,8-4.5,16.3-2.1,24.3c-3-1.6-6.3-2.5-9.6-2.5c-6.1,0-11.5,3-15.4,8.9c-5.4,9.1-4.7,22.2,1.7,32
		c4.3,6.1,10,10.4,16.7,12.5c-0.7,0.8-1.3,1.6-1.8,2.4c-3.4,5.4-3.6,11.7-0.4,18.1c5.7,10.3,17.5,14.9,26.7,14.9c0.5,0,0.9,0,1.6,0
		c6.5-0.5,12.3-2.6,17.2-6.2c1,9.4,7.6,16,17.6,16.8l0.7,0c12.1,0,22-8.4,26.4-16.9c3.5-7.2,4.4-14.7,2.7-22c2.8,1.3,5.7,2,8.6,2
		l0,0c6.1,0,11.5-3,15.4-8.9C146.7,87.8,146,74.8,139.6,65z M134.8,94.4c-10,15.2-33.4-6.7-21.6-20.3c2.2-2.6,8.2-5,12.4,0.7
		l0.2-0.2c1.9,2.7,3.2,6.1,2.8,10c-0.1,0.8-0.3,1.6-0.6,2.4c-0.6,1.2-1.6,1.4-2.1,1.4c-0.5,0-0.9-0.1-1.3-0.4
		c-2-1.2-3.6-2.7-4.4-4.3c-0.4-0.7-1.4-3-0.3-5.3c0.1,0.1,0.1,0.2,0.2,0.3l5.5-4c-4.5-5.2-9.4-3.1-11.5-0.2c-3.2,4.5-2.8,10-0.6,14
		c1.6,3,4.3,5.5,7.2,7.2c5,3,11.7,1.2,14.2-4.5c0.7-1.5,1.1-3.1,1.3-4.8c0.9-10.2-5.3-18.9-13.2-22.6c-12.2-5.8-23.6,1.5-34.7,7.7
		c-2.4,1.4-4.8,2.7-7.1,4c6,3.9,11.6,8.1,16.9,13.1c0.3,0.2,0.6,0.5,0.9,0.7c9.6,8.8,15.4,21.2,8.9,34.5
		c-3.6,6.9-11.7,12.9-20.1,12.7c-18.2-1.5-10.2-32.5,7.4-28.7c3.4,0.7,8.7,5.1,5.1,11.8c2.9-6.9-1.5-10.4-5.1-10.8
		c-5.5-0.6-10.1,2.4-12.6,6.2c-1.8,2.8-2.7,6.4-2.8,9.8c-0.2,5.8,4.6,10.8,10.8,10.3c1.7-0.1,3.3-0.5,4.9-1.2
		c9.3-4.1,14-13.7,13.5-22.5c-0.8-13.5-12.7-20-23.4-26.7c-1.8-1.1-3.5-2.2-5.2-3.2c-0.4,6.1-1.1,12.1-2.6,18.1
		c-0.1,0.4-0.1,0.7-0.2,1.1c-2.8,12.8-10.5,24-25.2,25.2c-7.8,0.4-17.1-3.5-21.1-10.9c-7.9-16.4,22.9-25.2,28.5-8.2
		c1.1,3.3,0,10-7.6,10.4c7.5-1,8.2-6.6,6.7-9.9c-2.3-5-7.1-7.5-11.7-7.7c-3.4-0.2-6.9,0.9-9.9,2.5c-5.1,2.8-7,9.4-3.4,14.5
		c1,1.4,2.1,2.6,3.5,3.6c8.3,6,18.9,5.1,26.2,0.2c11.2-7.5,10.8-21,11.1-33.7c0.1-2.5,0.1-5,0.2-7.4C67.2,83.4,60,86.9,52,89.5
		c-0.4,0.2-0.9,0.4-1.3,0.5c-12.4,4.1-26,3.3-34.5-8.8c-4.3-6.5-5.7-16.5-1.4-23.7c10-15.2,33.4,6.7,21.6,20.3
		c-2.3,2.7-8.6,5.2-12.8-1.3c4.7,5.9,9.8,3.7,11.9,0.7c3.2-4.5,2.8-10,0.6-14c-1.6-3-4.3-5.5-7.2-7.2c-5-3-11.7-1.2-14.2,4.5
		c-0.7,1.5-1.1,3.1-1.3,4.8c-0.9,10.2,5.3,18.9,13.2,22.6c12.2,5.8,23.6-1.5,34.7-7.7c3-1.7,5.9-3.3,8.8-5
		c-6.5-4.2-12.5-8.5-18.1-13.9c-0.3-0.2-0.6-0.5-0.9-0.7c-9.6-8.8-15.4-21.2-8.9-34.5c3.6-6.9,11.7-12.9,20.1-12.7
		c18.2,1.5,10.2,32.5-7.4,28.7c-3.4-0.7-8.7-5.1-5.1-11.8c-2.9,6.9,1.5,10.4,5.1,10.8c5.5,0.6,10.1-2.4,12.6-6.2
		c1.8-2.8,2.7-6.4,2.8-9.8c0.2-5.8-4.6-10.8-10.8-10.3c-1.7,0.1-3.3,0.5-4.9,1.2c-9.3,4.1-14,13.7-13.5,22.5
		c0.8,13.5,12.7,20,23.4,26.7c3.5,2.2,6.8,4.2,10.1,6.2c0.3-8.7,0.9-17,2.9-25.3c0.1-0.4,0.1-0.8,0.2-1.2
		c2.8-12.8,10.5-24,25.2-25.2c7.8-0.4,17.1,3.5,21.1,10.9c7.9,16.4-22.9,25.2-28.5,8.2c-1.1-3.3,0-10,7.6-10.4
		c-7.5,1-8.2,6.6-6.7,9.9c2.3,5,7.1,7.5,11.7,7.7c3.4,0.2,6.9-0.9,9.9-2.5c5.1-2.8,7-9.4,3.4-14.5c-1-1.4-2.1-2.6-3.5-3.6
		c-8.3-6-18.9-5.1-26.2-0.2c-11.2,7.5-10.8,21-11.1,33.7c-0.1,3.6-0.2,7.1-0.2,10.5c5.5-2.8,11.1-5.3,17-7.2
		c0.4-0.2,0.9-0.4,1.3-0.5c12.4-4.1,26-3.3,34.5,8.8C137.7,77.2,139,87.1,134.8,94.4z M105.9,69.8c-2.3,3.4-3.5,7.3-3.6,11.3
		c-2.2-2-4.5-4-7-6C98.9,73,102.5,71.1,105.9,69.8z M84.9,99.9c0,0,0-0.1,0-0.1c0.5-2.2,0.9-4.4,1.3-6.7c3.1,2,5.7,3.8,7.9,5.6
		C90.9,98.4,87.7,98.9,84.9,99.9z M99.6,118.4c-1.4,3-3.8,5.7-7.4,7.3c-0.8,0.3-1.5,0.5-2.7,0.6c-0.6,0-1.2-0.2-1.6-0.7
		c-0.5-0.5-0.7-1.1-0.7-1.8c0.1-2.3,0.7-4.5,1.6-5.9c0.4-0.6,1.9-2.7,4.5-2.8c0,0.1-0.1,0.2-0.1,0.3L99.6,118.4z M51.5,115.5
		c-3.6,0.3-7.2-0.6-10-2.7c-0.7-0.5-1.2-1.1-1.7-1.8c-0.4-0.6-0.6-1.2-0.4-1.9c0.2-0.7,0.6-1.3,1.2-1.6c1.9-1,3.9-1.6,5.9-1.6h0
		c0.8,0,3.3,0.3,4.7,2.4c-0.1,0-0.2,0-0.3,0.1L51.5,115.5z M60,93.4c2.3-0.9,4.6-1.9,6.7-2.8c-0.1,3.9-0.3,7.3-0.8,10.3
		C64.5,97.9,62.5,95.4,60,93.4z M21,64.7c0.1-0.8,0.3-1.6,0.6-2.4c0.6-1.2,1.6-1.4,2.1-1.4c0.4,0,0.9,0.1,1.3,0.4
		c2,1.2,3.6,2.7,4.4,4.3c0.4,0.7,1.4,3,0.3,5.3c-0.1-0.1-0.1-0.2-0.2-0.3l-5.8,4.2C21.8,72,20.6,68.6,21,64.7z M47.1,66.1
		c2.6,2.5,5.5,4.9,8.7,7.3l-0.3,0.2c-4.1,2.3-8,4.5-11.8,6C46.4,75.5,47.6,70.8,47.1,66.1z M69.9,44.9c-0.9,4.2-1.5,8.3-1.9,12.2
		l-1.3-0.8c-4.4-2.7-8-5.1-10.9-7.5C61.1,49.4,66,47.8,69.9,44.9z M50.4,29.1c1.4-3,3.8-5.7,7.4-7.3c0.8-0.3,1.5-0.5,2.7-0.6
		c0.7,0,1.2,0.2,1.6,0.7c0.5,0.5,0.7,1.1,0.7,1.8c-0.1,2.3-0.7,4.5-1.6,5.9c-0.4,0.6-1.9,2.7-4.5,2.8c0-0.1,0.1-0.2,0.1-0.3
		L50.4,29.1z M99.5,52.5c-1.1,0.3-2.2,0.6-3.3,1c-0.3,0.1-0.7,0.3-1.1,0.4c-2.3,0.7-4.5,1.5-6.8,2.4l0-0.7c0.1-5.1,0.3-9.5,0.9-13.2
		C91.4,47,95,50.5,99.5,52.5z M103.6,27.8c3.6-0.3,7.2,0.6,10,2.7c0.7,0.5,1.2,1.1,1.7,1.8c0.4,0.6,0.6,1.2,0.4,1.9
		c-0.2,0.7-0.6,1.3-1.2,1.6c-1.9,1-3.9,1.6-5.9,1.6c0,0,0,0,0,0c-0.8,0-3.3-0.3-4.7-2.4c0.1,0,0.2,0,0.3-0.1L103.6,27.8z"/>
</g>
</svg>
