<?xml version="1.0" encoding="utf-8"?>
<!-- Generator: Adobe Illustrator 18.1.0, SVG Export Plug-In . SVG Version: 6.00 Build 0)  -->
<svg version="1.1" id="Layer_1" xmlns="http://www.w3.org/2000/svg" xmlns:xlink="http://www.w3.org/1999/xlink" x="0px" y="0px"
	 viewBox="0 0 150 150" enable-background="new 0 0 150 150" xml:space="preserve">
<g>
	<path fill="#0090C6" d="M95.3,49.9c-6.7-3.5-13.9-6-20.8-6c-7,0-14.2,2.5-21.1,6.1c-12.5,6-23,15.9-29.2,22.8
		c-2.4,2.5-3.8,4.1-3.8,4.1s26.5,31.7,54,31.7c27.6,0,54-31.7,54-31.7s-1.3-1.5-3.7-4C118.5,65.9,108,55.9,95.3,49.9z M98.3,98.7
		c-1.7-0.1-3.3-0.2-4.8-0.2c-1.5,0-2.7-0.1-3.7-0.1c-1.2,0-2.5,0-4,0.1c-1.5,0-3,0.1-4.7,0.2v-2.3c0.1,0,0.3,0,0.6,0
		c0.3,0,0.4,0,0.6,0c1.8,0,3-0.5,3.6-1.5c0.6-1,0.9-3.3,0.9-7.1V84v-7.1h-0.4c-5.6-0.1-9.7-0.1-12.3-0.1c-2,0-3.8,0-5.6,0.1
		c-0.2,0-0.4,0-0.4,0c-0.9,0-1.9,0-3,0c-1.1,0-2.2,0-3.5,0v7.8v2.6c0,4.2,0.3,6.8,0.9,7.8c0.6,1,1.8,1.5,3.6,1.5c0.1,0,0.3,0,0.6,0
		c0.3,0,0.5,0,0.6,0v2.3c-1.7-0.1-3.2-0.2-4.7-0.2s-2.8-0.1-4-0.1c-1,0-2.2,0-3.7,0.1c-1.5,0-3.1,0.1-4.8,0.2v-2.2
		c0.1,0,0.3,0,0.4,0c0.2,0,0.4,0,0.7,0c1.7,0,2.8-0.5,3.5-1.6c0.6-1.1,0.9-3.4,0.9-7c0-0.7,0-1.9,0-3.8c0-1.8,0-3.3,0-4.5V71
		c0-1.1,0-2.5,0-4.2c0-1.7,0-2.8,0-3.4c0-3.8-0.3-6.2-0.9-7.3c-0.6-1.1-1.8-1.7-3.5-1.7c-0.1,0-0.2,0-0.4,0s-0.3,0-0.5,0v-2.3
		c1.5,0.1,3,0.2,4.4,0.2s2.7,0.1,3.8,0.1c1.3,0,2.7,0,4.1-0.1c1.4,0,2.8-0.1,4.3-0.2v2.3h-0.9c-1.8,0-3,0.5-3.6,1.4
		c-0.6,0.9-0.9,3.5-0.9,7.5V65v8c1.4,0,2.9,0.1,4.5,0.1c1.6,0,3.8,0,6.6,0c2.9,0,5.4,0,7.5,0c2.1,0,4.3-0.1,6.5-0.1v-9.1
		c0-4.3-0.3-7-0.9-8c-0.6-1-1.8-1.5-3.6-1.5h-0.9v-2.3c1.5,0.1,2.9,0.2,4.3,0.2s2.8,0.1,4.1,0.1c1.2,0,2.4,0,3.8-0.1
		c1.4,0,2.9-0.1,4.4-0.2v2.3c-0.1,0-0.3,0-0.5,0s-0.3,0-0.4,0c-1.7,0-2.8,0.5-3.4,1.6c-0.6,1.1-0.9,3.3-0.9,6.8c0,0.7,0,1.9,0,3.7
		c0,1.8,0,3.3,0,4.5v8.7c0,1.2,0,2.7,0,4.5c0,1.8,0,3.1,0,3.8c0,3.6,0.3,5.9,0.9,7c0.6,1.1,1.7,1.6,3.4,1.6c0.3,0,0.5,0,0.7,0
		c0.2,0,0.3,0,0.4,0V98.7z"/>
	<path fill="#3D469C" d="M143.3,72.7c-1.2-1.7-30.8-41.9-68.8-41.9c-38,0-67.6,40.2-68.8,41.9C4,74.9,4,78,5.7,80.3
		c1.2,1.7,30.8,41.9,68.8,41.9c38,0,67.6-40.2,68.8-41.9C144.9,78,144.9,74.9,143.3,72.7z M74.5,109.5c-28.4,0-55.6-32.7-55.6-32.7
		s1.4-1.6,3.9-4.2c6.4-7,17.2-17.2,30.1-23.4c7-3.7,14.4-6.2,21.7-6.2c7.1,0,14.5,2.5,21.4,6.1c13.1,6.2,23.9,16.6,30.4,23.6
		c2.4,2.5,3.8,4.1,3.8,4.1S102.8,109.5,74.5,109.5z"/>
	<path fill="#3D469C" d="M97.1,96.5c-1.7,0-2.8-0.5-3.4-1.6c-0.6-1.1-0.9-3.4-0.9-7c0-0.7,0-1.9,0-3.8c0-1.8,0-3.3,0-4.5V71
		c0-1.2,0-2.7,0-4.5c0-1.8,0-3.1,0-3.7c0-3.5,0.3-5.7,0.9-6.8c0.6-1.1,1.7-1.6,3.4-1.6c0.1,0,0.2,0,0.4,0s0.3,0,0.5,0v-2.3
		c-1.5,0.1-3,0.2-4.4,0.2c-1.4,0-2.7,0.1-3.8,0.1c-1.3,0-2.7,0-4.1-0.1s-2.8-0.1-4.3-0.2v2.3h0.9c1.8,0,3,0.5,3.6,1.5
		c0.6,1,0.9,3.7,0.9,8V73c-2.2,0-4.4,0.1-6.5,0.1c-2.1,0-4.7,0-7.5,0c-2.8,0-5,0-6.6,0c-1.6,0-3.1-0.1-4.5-0.1v-8v-1.6
		c0-4.1,0.3-6.6,0.9-7.5c0.6-0.9,1.8-1.4,3.6-1.4h0.9v-2.3c-1.5,0.1-2.9,0.2-4.3,0.2c-1.4,0-2.7,0.1-4.1,0.1c-1.2,0-2.4,0-3.8-0.1
		s-2.9-0.1-4.4-0.2v2.3c0.1,0,0.3,0,0.5,0s0.3,0,0.4,0c1.7,0,2.9,0.6,3.5,1.7c0.6,1.1,0.9,3.5,0.9,7.3c0,0.6,0,1.8,0,3.4
		c0,1.7,0,3.1,0,4.2v8.7c0,1.2,0,2.7,0,4.5c0,1.8,0,3.1,0,3.8c0,3.6-0.3,5.9-0.9,7c-0.6,1.1-1.8,1.6-3.5,1.6c-0.3,0-0.5,0-0.7,0
		c-0.2,0-0.3,0-0.4,0v2.2c1.7-0.1,3.3-0.2,4.8-0.2c1.5,0,2.7-0.1,3.7-0.1c1.2,0,2.5,0,4,0.1s3,0.1,4.7,0.2v-2.3c-0.1,0-0.3,0-0.6,0
		c-0.3,0-0.4,0-0.6,0c-1.8,0-3-0.5-3.6-1.5c-0.6-1-0.9-3.6-0.9-7.8v-2.6v-7.8c1.2,0,2.4,0,3.5,0c1.1,0,2.1,0,3,0c0,0,0.2,0,0.4,0
		c1.8,0,3.6-0.1,5.6-0.1c2.6,0,6.7,0,12.3,0.1h0.4V84v3.9c0,3.7-0.3,6.1-0.9,7.1c-0.6,1-1.8,1.5-3.6,1.5c-0.1,0-0.3,0-0.6,0
		c-0.3,0-0.5,0-0.6,0v2.3c1.7-0.1,3.2-0.2,4.7-0.2c1.5,0,2.8-0.1,4-0.1c1,0,2.2,0,3.7,0.1c1.5,0,3.1,0.1,4.8,0.2v-2.2
		c-0.1,0-0.3,0-0.4,0C97.7,96.5,97.4,96.5,97.1,96.5z"/>
</g>
</svg>
