<?xml version="1.0" encoding="utf-8"?>
<!-- Generator: Adobe Illustrator 16.0.0, SVG Export Plug-In . SVG Version: 6.00 Build 0)  -->
<!DOCTYPE svg PUBLIC "-//W3C//DTD SVG 1.1//EN" "http://www.w3.org/Graphics/SVG/1.1/DTD/svg11.dtd">
<svg version="1.1" id="Layer_1" xmlns="http://www.w3.org/2000/svg" xmlns:xlink="http://www.w3.org/1999/xlink" x="0px" y="0px"
	 width="100px" height="100px" viewBox="0 0 100 100" enable-background="new 0 0 100 100" xml:space="preserve">
<g>
	<g>
		<path fill="#EBD417" d="M79.262,19.76c0,0,0.157,8.162-7.52,9.243c0,0-10.033,0.656-10.98,0.923c0,0,0.049-9.292,9.256-9.499
			L79.262,19.76z"/>
		<path fill="#EBD417" d="M31.877,15.484c0,0,7.41,3.656,4.616,11.102c0,0-4.336,9.365-4.555,10.35c0,0-8.345-4.386-3.996-12.803
			L31.877,15.484z"/>
		<path fill="#EBD417" d="M4.912,53.818c0,0,7.069-4.287,11.843,2.053c0,0,5.575,8.687,6.292,9.391c0,0-8.175,4.7-12.961-3.486
			L4.912,53.818z"/>
	</g>
	<g>
		<path fill="#58595B" d="M95.089,38.404c0,0-3.693,7.386-11.127,4.337c0,0-9.377-4.665-10.361-4.908c0,0,4.434-8.308,12.852-3.668
			L95.089,38.404z"/>
		<path fill="#58595B" d="M56.001,11.099c0,0,4.566,6.887-1.579,11.928c0,0-8.479,5.892-9.159,6.645c0,0-5.004-7.981,2.988-13.083
			L56.001,11.099z"/>
		<path fill="#58595B" d="M13.924,30.777c0,0,8.26-0.061,9.11,7.834c0,0,0.34,10.324,0.583,11.296c0,0-9.425-0.169-9.329-9.645
			L13.924,30.777z"/>
		<path fill="#58595B" d="M8.896,78.161c0,0,3.887-7.301,11.236-4.288c0,0,9.231,4.628,10.215,4.87c0,0-4.64,8.212-12.924,3.621
			L8.896,78.161z"/>
	</g>
	<path fill="#EBD417" d="M91.493,57.889c0,0-12.632,16.64-31.022,17.575c-10.349,0.535-28.934-2.987-35.857-20.856
		c0,0,16.18-18.438,35.931-16.068C60.544,38.539,81.849,40.057,91.493,57.889z"/>
	<path fill="#58595B" d="M85.541,82.157c0,0-17.831,10.859-35.298,5.017c-9.839-3.291-25.848-13.361-25.75-32.528
		c0,0,21.791-11.248,39.307-1.811C63.799,52.835,83.088,62.03,85.541,82.157z"/>
</g>
</svg>
