<?xml version="1.0" encoding="utf-8"?>
<!-- Generator: Adobe Illustrator 18.1.0, SVG Export Plug-In . SVG Version: 6.00 Build 0)  -->
<svg version="1.1" id="Layer_1" xmlns="http://www.w3.org/2000/svg" xmlns:xlink="http://www.w3.org/1999/xlink" x="0px" y="0px"
	 viewBox="0 0 150 150" enable-background="new 0 0 150 150" xml:space="preserve">
<g>
	<g>
		<circle fill="#D8505C" cx="62.8" cy="18.6" r="5"/>
		<path fill="#D8505C" d="M70.3,53.2V33.7c0-4.2-3.4-7.5-7.5-7.5c-4.2,0-7.5,3.4-7.5,7.5V67L70.3,53.2z"/>
	</g>
	<g>
		<circle fill="#FFAF3A" cx="107.5" cy="27" r="5"/>
		<path fill="#FFAF3A" d="M88.1,56.6L102,43c3-2.9,3-7.7,0.1-10.7c-2.9-3-7.7-3-10.7-0.1L67.7,55.5L88.1,56.6z"/>
	</g>
	<g>
		<circle fill="#00A9DE" cx="132.9" cy="64.8" r="5"/>
		<path fill="#00A9DE" d="M98.2,71.7l19.5,0.4c4.2,0.1,7.6-3.2,7.7-7.4c0.1-4.2-3.2-7.6-7.4-7.7l-33.3-0.6L98.2,71.7z"/>
	</g>
	<g>
		<circle fill="#D27E3D" cx="123.6" cy="109.3" r="5"/>
		<path fill="#D27E3D" d="M94.4,89.4l13.4,14.2c2.9,3,7.6,3.2,10.7,0.3c3-2.9,3.2-7.6,0.3-10.7L95.9,69L94.4,89.4z"/>
	</g>
	<g>
		<path fill="#B55366" d="M80.4,133.8c0.1-2.8,2.4-4.9,5.2-4.8c2.8,0.1,4.9,2.4,4.8,5.2c-0.1,2.8-2.4,4.9-5.2,4.8
			C82.4,138.9,80.3,136.5,80.4,133.8z"/>
		<path fill="#B55366" d="M79.2,99.1l-0.7,19.5c-0.2,4.2,3.1,7.7,7.2,7.8c4.2,0.2,7.7-3.1,7.8-7.2l1.3-33.2L79.2,99.1z"/>
	</g>
	<g>
		<path fill="#FFAF3A" d="M37.6,120.2c2.1-1.9,5.2-1.7,7.1,0.3c1.9,2.1,1.7,5.2-0.3,7.1c-2.1,1.9-5.2,1.7-7.1-0.3
			C35.4,125.2,35.6,122,37.6,120.2z"/>
		<path fill="#FFAF3A" d="M61.5,95.1l-14.4,13.1c-3.1,2.8-3.3,7.6-0.5,10.7c2.8,3.1,7.6,3.3,10.7,0.5l24.6-22.4L61.5,95.1z"/>
	</g>
	<g>
		<path fill="#00A9DE" d="M17.4,80.1c2.8,0.2,4.9,2.5,4.7,5.3c-0.2,2.8-2.5,4.9-5.3,4.7c-2.8-0.2-4.9-2.5-4.7-5.3
			C12.3,82.1,14.7,80,17.4,80.1z"/>
		<path fill="#00A9DE" d="M52.1,79.6l-19.4-1.1c-4.2-0.2-7.7,2.9-8,7.1c-0.2,4.2,2.9,7.7,7.1,8L65,95.5L52.1,79.6z"/>
	</g>
	<g>
		<path fill="#B85856" d="M31.8,37.7c1.8,2.1,1.6,5.3-0.5,7.1c-2.1,1.8-5.3,1.6-7.1-0.5c-1.8-2.1-1.6-5.3,0.5-7.1
			C26.8,35.4,30,35.6,31.8,37.7z"/>
		<path fill="#B85856" d="M56.5,62.1L43.7,47.4c-2.7-3.1-7.5-3.5-10.6-0.7c-3.1,2.7-3.5,7.5-0.7,10.6l21.9,25L56.5,62.1z"/>
	</g>
</g>
</svg>
