<?xml version="1.0" encoding="utf-8"?>
<!-- Generator: Adobe Illustrator 18.1.0, SVG Export Plug-In . SVG Version: 6.00 Build 0)  -->
<svg version="1.1" id="Layer_1" xmlns="http://www.w3.org/2000/svg" xmlns:xlink="http://www.w3.org/1999/xlink" x="0px" y="0px"
	 viewBox="0 0 150 150" enable-background="new 0 0 150 150" xml:space="preserve">
<g>
	<g>
		<path fill="#999999" d="M64.4,24.5c-4.7-6.3-9.9-9.4-15.1-11.2c-3.9,2.6-9.5,10.9-10.9,17.3C44.3,24.6,53.8,22.3,64.4,24.5z"/>
		<path fill="#999999" d="M109.8,30.6c-1.4-6.4-7-14.7-10.9-17.3c-5.2,1.8-10.5,4.9-15.1,11.2C94.4,22.3,103.9,24.6,109.8,30.6z"/>
		<path fill="#999999" d="M105.3,61.9c7.8-0.9,13.2-3.9,17.3-7.5c-0.3-4.6-4.7-13.7-9.5-18.1C115.3,44.4,112.6,53.8,105.3,61.9z"/>
		<path fill="#999999" d="M97.8,97.4c1.1-5.4,1-11.5-2.2-18.7c-2.6,7.9-7.2,13.9-12.8,17.2l0.5,3.3C88.8,99.6,94.8,98.9,97.8,97.4z"
			/>
		<path fill="#999999" d="M52.5,78.7c-3.1,7.2-3.2,13.3-2.2,18.7c4,2,13.5,2.7,19.7,1l0-0.4C62.3,95.6,55.8,88.7,52.5,78.7z"/>
		<path fill="#999999" d="M35.1,36.3c-4.8,4.4-9.2,13.4-9.5,18.1C29.7,58,35,61,42.8,61.9C35.6,53.8,32.8,44.4,35.1,36.3z"/>
		<path fill="#999999" d="M89,135.9c-4.3-0.7-8.9-1.1-13.7-1.1c-2.6,0-5.1,0.1-7.6,0.3c-13.5,1.2-24.5,5.4-28.9,11
			c6.5-3.7,16.8-6.3,28.7-7.1c2.6-0.2,5.3-0.3,8-0.3c4.9,0,9.7,0.3,14.1,0.9c8.9,1.1,16.6,3.3,21.9,6.1
			C107.6,141.2,99.4,137.6,89,135.9z"/>
	</g>
	<path fill="#48BFE1" d="M123.1,56.1C111.6,65.5,99.2,65,80.9,58c0.7-1.2,1.2-2.7,1.2-4.2c0-4-2.9-7.4-6.8-8.1
		c3.1-18.2,9.1-28.6,22.6-33.9C86,1,61.3,1.4,50.5,12c13.4,5.1,19.3,15.5,22.4,33.6c-4.1,0.5-7.3,3.9-7.3,8.1c0,1.6,0.5,3.1,1.3,4.3
		c-18.1,7-30.5,7.2-42.2-2C21.3,71.7,34.1,92.9,48.6,97C46.3,82.4,52.8,71.8,68,59.5c1.2,1.2,2.7,2,4.4,2.3l-2.3,36.1l0,0.4
		l-2.4,36.8c2.5-0.2,5-0.3,7.6-0.3c4.8,0,9.5,0.4,13.7,1.1l-5.7-36.7l-0.5-3.3l-5.4-34.8c0.9-0.4,1.7-1,2.4-1.8
		c15.5,12.3,22,23,19.8,37.9C114.9,92.4,126.9,70.8,123.1,56.1z"/>
</g>
</svg>
