<?xml version="1.0" encoding="utf-8"?>
<!-- Generator: Adobe Illustrator 18.1.0, SVG Export Plug-In . SVG Version: 6.00 Build 0)  -->
<svg version="1.1" id="Layer_1" xmlns="http://www.w3.org/2000/svg" xmlns:xlink="http://www.w3.org/1999/xlink" x="0px" y="0px"
	 viewBox="0 0 150 150" enable-background="new 0 0 150 150" xml:space="preserve">
<g>
	<path fill="none" d="M104.8,65.8c-6,2-8.8,7.9-10.5,13.6c-0.2,0.8-0.8,1.1-1.4,1.2c-0.5,0.5-1.4,0.7-2,0
		C80.5,69.9,68.5,58.2,53.5,54.8c-8.8-2-18-2.5-27-2.2c-4.8,0.2-11.2-0.2-15.6,1.5c-3,6.2-1.3,8.7,5,7.6c1.2,0.1,1.4,1.6,0.3,2
		c-1.8,6.1-0.5,8.4,3.8,7c1.8-0.1,3.5-0.3,5.3-0.5c0.7-0.1,0.8,0.9,0.3,1.2c-10.5,6.4,9.9,6.8,11.8,6.4c1.2-0.3,2,1.2,1.1,2
		c0.1,0.3,0.1,0.8-0.2,1.1c-0.9,1.1-2.4,1.6-3.1,3c-0.4,0.8-0.8,1.9-0.5,2.8c0.1,0.4,0.4,0.6,0.7,0.8c1.6,0.2,3.1,0.2,4.7,0.1
		c0.2,0,0.3-0.1,0.4-0.1c0.3-0.1,0.6-0.1,0.7,0.1c3.4-0.3,6.8-1,10.4-1.5c1.2-0.2,2,1.3,0.9,2c-2.8,5.3-2,7.8,2.5,7.4
		c1.3,0,2.5-0.1,3.8-0.2c0.9-0.1,1.4,0.9,1.2,1.6c-1.8,8.3,7.1,5,11.6,3c-0.1-0.3-0.1-0.5-0.1-0.8c-0.1-0.4,0.3-0.7,0.7-0.5
		c0.3,0.2,0.6,0.4,0.9,0.6c0.1-0.1,0.3-0.1,0.4-0.2c0.5-0.2,1.3,0.3,0.9,0.9c-0.1,0.1-0.1,0.1-0.2,0.2c4.4,4.5-1,10.8-6.3,13.2
		c-3.8,1.8-8.3,1.5-12.4,2.3c-2.9,0.6-6,1.3-8.2,3.6c-2.4,1.5-2.2,3,0.6,4.5c0.3-0.2,0.7-0.4,1-0.6c0.2-0.2,0.4-0.5,0.7-0.7
		c0.2-0.1,0.4-0.1,0.6-0.1c0.8-0.5,1.8,0.5,1.3,1.3c-0.2,0.3-0.4,0.5-0.6,0.7c0,2-0.3,4.3,1.2,5.8c2.3,2.3,5.2,1.4,7.3-0.7
		c1.2-1.2,3.2,0,2.8,1.6c-0.5,1.8-0.7,3.7,0.2,5.4c1.4,2.5,2.6,0.3,3.5-1.4c0.4-0.8,1.4-0.6,1.8,0c0.5-0.1,1-0.1,1.3,0.3
		c1.6,1.8,2.9,4.2,5.7,3.1c2.1-0.8,3.9-2.6,5-4.5c2.6-4.8-0.3-10.9,1.6-16c0.2-0.6,0.9-0.8,1.4-0.7c0.2-0.2,0.5-0.4,0.9-0.4
		c9-1,19.6-3,24.2-12c3.3-6.6,3.3-12.6,2.8-19.7c-0.5-7.7,1.7-12.4,8.7-14.2c0-0.4,0.3-0.8,0.7-0.9C115.7,66.9,110.1,64,104.8,65.8z
		"/>
	<path fill="none" d="M123.3,72.9c-1.2,0.2-1.9,2.4-1.8,5.3c1,0.5,3.4,1.8,6.1,3.2c0-0.3-0.1-0.5-0.1-0.8
		C126.8,76.1,124.9,72.6,123.3,72.9z"/>
	<path fill="#437A80" d="M143.3,118.9c-0.2,0.2-0.3,0.3-0.5,0.5C143.1,119.1,143.3,118.9,143.3,118.9z"/>
	<path fill="#437A80" d="M141.4,109.3L141.4,109.3c-2.5-2.7-4.5-6.1-4.5-6.1c-3.1-5.4,5-15.7,5-15.7c-1.9,0-8.3-3.1-13.6-5.7
		c0-0.9-0.1-1.9-0.2-2.9c-0.7-4.6-2.9-8-4.9-7.7c-0.1,0-0.3,0.1-0.4,0.2c0-0.4-0.2-0.7-0.6-0.9c0.1-0.2,0.2-0.6,0-0.8
		c-1.2-1.2-2.5-2.4-3.9-3.4c0,0-6.6-5-14.5-3.7c-5.2,0.9-8.7,5-10.9,9.6c-1.5-16.4-5-32.8-13.9-46.8C74,17.6,62.8,3.8,52,8.2
		c-3,1.2-3.4,4.8-3.5,7.5c-0.1,1.7,0.1,2.6,0.2,3.1c0,0.1,0,0.1,0,0.2c-0.4-0.1-1.1,0-2.5,0.8c-5.3,2.9-2.8,7.6,1,10.3
		c-3,1.1-4.5,4.4-4,7.8c0.5,3.4,2.9,5.8,5.9,6.9c-0.7,0.6-1.1,1.4-1.2,2.4c-0.1,1.4,0.4,2.5,1.2,3.2c-6-0.8-12.2-0.8-18.3-0.8
		c-6.6,0-22.8-1.2-27,6c-2.4,4.1,2.6,6.8,5.7,7.8c0.6,0.2,1.1,0.3,1.5,0.5c-1.1,0.1-2.2,0.8-1.6,3.5c1.6,6.9,8.2,6.4,13.8,4.8
		c-2.5,0.7-4,3.3-1.3,6.1c3.2,3.2,8,4.1,12.3,3.2c-0.3,0.4-0.6,0.8-0.8,1.2c-0.8,1.4-0.7,3,0,4.5c0.1,0.2,0.2,0.3,0.2,0.4
		c0,0.2,0,0.3,0.2,0.4c0,0,0,0,0.1,0c1.5,2.3,3.9,3,6.3,1.8c2.7,0.3,5.4,0,8.2-0.6c-3.2,5.1,2.7,10.4,9.5,8.8
		c1.1,7.6,8.7,8.7,14.2,4.3c0.1,12.7-21.8,7-28.1,16.2c-3.5,5.1-0.2,9.1,3.5,8.4c-0.1,2.4,1,4.9,2.7,6.5c2.5,2.4,5.7,2.2,8.4,0.9
		c0.1,2.3,0.9,4.7,2.9,5.8c2.6,1.6,4.8,0.2,5.9-2.1c1.6,5.1,7.9,4.7,11.8,1.7c6.5-5.1,4.1-13,4.4-20.1c0.1,0,0.1,0.1,0.2,0.1
		c10.9,0.6,21.3-3.8,27.2-13.2c6.6-10.4-4-28.8,9-33.4c0.6-0.3,1.2-0.5,1.9-0.7c-0.8,1.3-1.1,3.4-0.9,5.9c-0.2,1-0.9,3.9-1.5,7.3
		c-0.7,4.1-1,5.1-4.1,9.8c-3.1,4.7-1.1,10.4-1.1,10.4c2.2,3.6,8.8,5.8,11.5,8.5c2.7,2.7,7.2,6.1,7.2,6.1c0.7,0.3,1.4,0.6,2,0.8
		C129.8,113.1,141.4,109.3,141.4,109.3z M119.5,70.8c-7.1,1.8-9.3,6.5-8.7,14.2c0.5,7.1,0.6,13.1-2.8,19.7c-4.6,9-15.2,11-24.2,12
		c-0.4,0-0.7,0.2-0.9,0.4c-0.5-0.1-1.2,0.1-1.4,0.7c-1.9,5.1,1,11.2-1.6,16c-1.1,2-2.9,3.7-5,4.5c-2.8,1.1-4.1-1.3-5.7-3.1
		c-0.3-0.4-0.9-0.4-1.3-0.3c-0.4-0.6-1.4-0.8-1.8,0c-0.9,1.7-2,3.9-3.5,1.4c-0.9-1.7-0.7-3.6-0.2-5.4c0.4-1.6-1.6-2.8-2.8-1.6
		c-2.1,2.1-5,3.1-7.3,0.7c-1.5-1.5-1.2-3.8-1.2-5.8c0.2-0.2,0.4-0.5,0.6-0.7c0.5-0.8-0.5-1.8-1.3-1.3c-0.2,0-0.4,0-0.6,0.1
		c-0.3,0.2-0.5,0.5-0.7,0.7c-0.3,0.2-0.7,0.4-1,0.6c-2.7-1.5-2.9-3-0.6-4.5c2.1-2.3,5.2-3,8.2-3.6c4-0.8,8.6-0.5,12.4-2.3
		c5.2-2.5,10.7-8.7,6.3-13.2c0.1-0.1,0.1-0.1,0.2-0.2c0.4-0.6-0.4-1.1-0.9-0.9c-0.1,0-0.2,0.1-0.4,0.2c-0.3-0.2-0.6-0.4-0.9-0.6
		c-0.4-0.2-0.8,0.1-0.7,0.5c0.1,0.3,0.1,0.5,0.1,0.8c-4.5,2-13.4,5.3-11.6-3c0.2-0.7-0.4-1.7-1.2-1.6c-1.3,0.1-2.5,0.2-3.8,0.2
		c-4.5,0.4-5.3-2-2.5-7.4c1.2-0.7,0.3-2.2-0.9-2c-3.6,0.5-7,1.2-10.4,1.5c-0.2-0.1-0.4-0.2-0.7-0.1c-0.1,0.1-0.3,0.1-0.4,0.1
		c-1.5,0.1-3.1,0.1-4.7-0.1c-0.3-0.2-0.5-0.5-0.7-0.8c-0.3-0.9,0.1-2,0.5-2.8c0.7-1.4,2.2-1.8,3.1-3c0.2-0.3,0.3-0.7,0.2-1.1
		c0.8-0.8,0-2.2-1.1-2c-1.9,0.4-22.3,0-11.8-6.4c0.5-0.3,0.3-1.2-0.3-1.2c-1.8,0.2-3.5,0.3-5.3,0.5c-4.3,1.4-5.5-0.9-3.8-7
		c1.1-0.4,0.9-1.9-0.3-2c-6.3,1.1-8-1.4-5-7.6c4.5-1.7,10.8-1.3,15.6-1.5c9-0.3,18.2,0.3,27,2.2c15,3.4,27,15.1,37.3,25.7
		c0.7,0.7,1.5,0.5,2,0c0.6-0.1,1.2-0.5,1.4-1.2c1.8-5.7,4.5-11.5,10.5-13.6c5.3-1.8,11,1.1,15.4,4.1C119.8,70,119.5,70.3,119.5,70.8
		z M121.5,78.2c0-3,0.7-5.2,1.8-5.3c1.6-0.3,3.5,3.2,4.2,7.8c0,0.3,0.1,0.5,0.1,0.8C124.8,80,122.5,78.8,121.5,78.2z"/>
	<path fill="#F9C7C6" d="M141.4,109.3L141.4,109.3c0,0-11.6,3.7-6.6,11.8c0,0,0,0,0,0c0,0,0.6,0.2,1.5,0.3l0,0c0.3,0,0.7,0.1,1,0.1
		c0,0,0,0,0,0c1.5,0,3.4-0.3,5.1-1.8c0.1-0.1,0.3-0.2,0.4-0.3c0.2-0.2,0.3-0.3,0.5-0.5C143.3,118.9,147.3,114.8,141.4,109.3z"/>
</g>
</svg>
