<?xml version="1.0" encoding="utf-8"?>
<!-- Generator: Adobe Illustrator 18.1.0, SVG Export Plug-In . SVG Version: 6.00 Build 0)  -->
<svg version="1.1" id="Layer_1" xmlns="http://www.w3.org/2000/svg" xmlns:xlink="http://www.w3.org/1999/xlink" x="0px" y="0px"
	 viewBox="0 0 150 150" enable-background="new 0 0 150 150" xml:space="preserve">
<g>
	<path fill="none" d="M114.6,83.9c0.1,0.1,0.2,0.1,0.3,0l0.6-0.6c0.1-0.1,0.1-0.2,0-0.3c-0.1-0.1-0.2-0.1-0.3,0l-0.6,0.6
		C114.5,83.7,114.5,83.8,114.6,83.9z"/>
	<path fill="none" d="M113.9,83.2c0.1,0.1,0.2,0.1,0.3,0l0.6-0.6c0.1-0.1,0.1-0.2,0-0.3c-0.1-0.1-0.2-0.1-0.3,0l-0.6,0.6
		C113.9,83,113.9,83.2,113.9,83.2z"/>
	<path fill="none" d="M115.2,84.5c0.1,0.1,0.2,0.1,0.3,0l0.6-0.6c0.1-0.1,0.1-0.2,0-0.3c-0.1-0.1-0.2-0.1-0.3,0l-0.6,0.6
		C115.1,84.3,115.1,84.4,115.2,84.5z"/>
	<path fill="none" d="M112.3,81.4l0.6-0.6c0.1-0.1,0.1-0.2,0-0.3c-0.1-0.1-0.2-0.1-0.3,0l-0.6,0.6c-0.1,0.1-0.1,0.2,0,0.3
		C112.1,81.4,112.2,81.4,112.3,81.4z"/>
	<path fill="none" d="M115.8,85.1c0.1,0.1,0.2,0.1,0.3,0l0.6-0.6c0.1-0.1,0.1-0.2,0-0.3c-0.1-0.1-0.2-0.1-0.3,0l-0.6,0.6
		C115.7,84.9,115.7,85.1,115.8,85.1z"/>
	<path fill="none" d="M113.3,82.6c0.1,0.1,0.2,0.1,0.3,0l0.6-0.6c0.1-0.1,0.1-0.2,0-0.3c-0.1-0.1-0.2-0.1-0.3,0l-0.6,0.6
		C113.2,82.4,113.2,82.5,113.3,82.6z"/>
	<path fill="none" d="M112.7,82c0.1,0.1,0.2,0.1,0.3,0l0.6-0.6c0.1-0.1,0.1-0.2,0-0.3c-0.1-0.1-0.2-0.1-0.3,0l-0.6,0.6
		C112.6,81.8,112.6,81.9,112.7,82z"/>
	<path fill="none" d="M131.1,83c-0.1-0.1-0.2-0.1-0.3,0c-0.1,0.1-0.1,0.2,0,0.3l0.6,0.6c0.1,0.1,0.2,0.1,0.3,0
		c0.1-0.1,0.1-0.2,0-0.3L131.1,83z"/>
	<path fill="none" d="M131.3,81.9c0,0,0-0.1,0-0.1c0,0-0.1,0-0.1,0l-6.4,6.4c0,0,0,0.1,0,0.1c0,0,0.1,0,0.1,0L131.3,81.9z"/>
	<path fill="none" d="M132,83.2c0.1,0.1,0.2,0.1,0.3,0c0.1-0.1,0.1-0.2,0-0.3l-0.6-0.6c-0.1-0.1-0.2-0.1-0.3,0
		c-0.1,0.1-0.1,0.2,0,0.3L132,83.2z"/>
	<path fill="none" d="M111.5,81.6c0,0,0,0.1,0,0.1l6.4,6.4c0,0,0.1,0,0.1,0c0,0,0-0.1,0-0.1l-6.4-6.4
		C111.6,81.5,111.6,81.5,111.5,81.6z"/>
	<path fill="none" d="M117.1,86.4c0.1,0.1,0.2,0.1,0.3,0l0.6-0.6c0.1-0.1,0.1-0.2,0-0.3c-0.1-0.1-0.2-0.1-0.3,0l-0.6,0.6
		C117,86.2,117,86.3,117.1,86.4z"/>
	<path fill="none" d="M116.4,85.8c0.1,0.1,0.2,0.1,0.3,0l0.6-0.6c0.1-0.1,0.1-0.2,0-0.3c-0.1-0.1-0.2-0.1-0.3,0l-0.6,0.6
		C116.4,85.6,116.4,85.7,116.4,85.8z"/>
	<path fill="none" d="M117.7,87c0.1,0.1,0.2,0.1,0.3,0l0.6-0.6c0.1-0.1,0.1-0.2,0-0.3c-0.1-0.1-0.2-0.1-0.3,0l-0.6,0.6
		C117.6,86.8,117.6,86.9,117.7,87z"/>
	<path fill="none" d="M110.5,100c-0.1-0.1-0.2-0.1-0.3,0c-0.1,0.1-0.1,0.2,0,0.3l0.6,0.6c0.1,0.1,0.2,0.1,0.3,0
		c0.1-0.1,0.1-0.2,0-0.3L110.5,100z"/>
	<path fill="none" d="M112.1,99.5c0.1,0.1,0.2,0.1,0.3,0c0.1-0.1,0.1-0.2,0-0.3l-0.6-0.6c-0.1-0.1-0.2-0.1-0.3,0
		c-0.1,0.1-0.1,0.2,0,0.3L112.1,99.5z"/>
	<path fill="none" d="M119.2,87.1c0.1-0.1,0.1-0.2,0-0.3c-0.1-0.1-0.2-0.1-0.3,0l-0.6,0.6c-0.1,0.1-0.1,0.2,0,0.3
		c0.1,0.1,0.2,0.1,0.3,0L119.2,87.1z"/>
	<path fill="none" d="M111.4,100.2c0.1,0.1,0.2,0.1,0.3,0c0.1-0.1,0.1-0.2,0-0.3l-0.6-0.6c-0.1-0.1-0.2-0.1-0.3,0
		c-0.1,0.1-0.1,0.2,0,0.3L111.4,100.2z"/>
	<path fill="none" d="M130.5,83.6c-0.1-0.1-0.2-0.1-0.3,0c-0.1,0.1-0.1,0.2,0,0.3l0.6,0.6c0.1,0.1,0.2,0.1,0.3,0
		c0.1-0.1,0.1-0.2,0-0.3L130.5,83.6z"/>
	<path fill="none" d="M111.3,101.2c0,0,0,0.1,0,0.1c0,0,0.1,0,0.1,0l6.4-6.4c0,0,0-0.1,0-0.1c0,0-0.1,0-0.1,0L111.3,101.2z"/>
	<path fill="none" d="M113.3,98.3c0.1,0.1,0.2,0.1,0.3,0c0.1-0.1,0.1-0.2,0-0.3l-0.6-0.6c-0.1-0.1-0.2-0.1-0.3,0
		c-0.1,0.1-0.1,0.2,0,0.3L113.3,98.3z"/>
	<path fill="none" d="M112.7,98.9c0.1,0.1,0.2,0.1,0.3,0c0.1-0.1,0.1-0.2,0-0.3l-0.6-0.6c-0.1-0.1-0.2-0.1-0.3,0
		c-0.1,0.1-0.1,0.2,0,0.3L112.7,98.9z"/>
	<path fill="none" d="M116.5,95.1c0.1,0.1,0.2,0.1,0.3,0c0.1-0.1,0.1-0.2,0-0.3l-0.6-0.6c-0.1-0.1-0.2-0.1-0.3,0
		c-0.1,0.1-0.1,0.2,0,0.3L116.5,95.1z"/>
	<path fill="none" d="M115.8,95.8c0.1,0.1,0.2,0.1,0.3,0c0.1-0.1,0.1-0.2,0-0.3l-0.6-0.6c-0.1-0.1-0.2-0.1-0.3,0
		c-0.1,0.1-0.1,0.2,0,0.3L115.8,95.8z"/>
	<path fill="none" d="M117.1,94.5c0.1,0.1,0.2,0.1,0.3,0c0.1-0.1,0.1-0.2,0-0.3l-0.6-0.6c-0.1-0.1-0.2-0.1-0.3,0
		c-0.1,0.1-0.1,0.2,0,0.3L117.1,94.5z"/>
	<path fill="none" d="M114.6,97c0.1,0.1,0.2,0.1,0.3,0c0.1-0.1,0.1-0.2,0-0.3l-0.6-0.6c-0.1-0.1-0.2-0.1-0.3,0
		c-0.1,0.1-0.1,0.2,0,0.3L114.6,97z"/>
	<path fill="none" d="M113.9,97.6c0.1,0.1,0.2,0.1,0.3,0c0.1-0.1,0.1-0.2,0-0.3l-0.6-0.6c-0.1-0.1-0.2-0.1-0.3,0
		c-0.1,0.1-0.1,0.2,0,0.3L113.9,97.6z"/>
	<path fill="none" d="M115.2,96.4c0.1,0.1,0.2,0.1,0.3,0c0.1-0.1,0.1-0.2,0-0.3l-0.6-0.6c-0.1-0.1-0.2-0.1-0.3,0
		c-0.1,0.1-0.1,0.2,0,0.3L115.2,96.4z"/>
	<path fill="none" d="M127.7,99.2l-0.6,0.6c-0.1,0.1-0.1,0.2,0,0.3c0.1,0.1,0.2,0.1,0.3,0l0.6-0.6c0.1-0.1,0.1-0.2,0-0.3
		C127.9,99.2,127.8,99.2,127.7,99.2z"/>
	<path fill="none" d="M124,94.9l-1.2-1.2c-0.3,0.2-0.6,0.4-1,0.5l2.4,6.5l0.2-0.9l0,1.4l2.9,8l0.9-7.7l-5.3-5.3L124,94.9z"/>
	<path fill="none" d="M124.9,96.1c-0.1-0.1-0.2-0.1-0.3,0l-0.6,0.6c-0.1,0.1-0.1,0.2,0,0.3c0.1,0.1,0.2,0.1,0.3,0l0.6-0.6
		C124.9,96.3,124.9,96.2,124.9,96.1z"/>
	<path fill="none" d="M128.6,99.9c-0.1-0.1-0.2-0.1-0.3,0l-0.6,0.6c-0.1,0.1-0.1,0.2,0,0.3c0.1,0.1,0.2,0.1,0.3,0l0.2-0.2l0,0l0,0
		l0.4-0.4C128.7,100.1,128.7,99.9,128.6,99.9z"/>
	<path fill="none" d="M125.5,96.7c-0.1-0.1-0.2-0.1-0.3,0l-0.6,0.6c-0.1,0.1-0.1,0.2,0,0.3c0.1,0.1,0.2,0.1,0.3,0l0.6-0.6
		C125.6,96.9,125.6,96.8,125.5,96.7z"/>
	<path fill="none" d="M126.7,98c-0.1-0.1-0.2-0.1-0.3,0l-0.6,0.6c-0.1,0.1-0.1,0.2,0,0.3c0.1,0.1,0.2,0.1,0.3,0l0.6-0.6
		C126.8,98.2,126.8,98.1,126.7,98z"/>
	<path fill="none" d="M127.4,98.6c-0.1-0.1-0.2-0.1-0.3,0l-0.6,0.6c-0.1,0.1-0.1,0.2,0,0.3c0.1,0.1,0.2,0.1,0.3,0l0.6-0.6
		C127.4,98.8,127.4,98.7,127.4,98.6z"/>
	<path fill="none" d="M126.1,97.4c-0.1-0.1-0.2-0.1-0.3,0l-0.6,0.6c-0.1,0.1-0.1,0.2,0,0.3c0.1,0.1,0.2,0.1,0.3,0l0.6-0.6
		C126.2,97.6,126.2,97.4,126.1,97.4z"/>
	<polygon fill="none" points="126.9,111.8 126.9,111.6 126.8,111.6 	"/>
	<polygon fill="none" points="122.4,109.5 122.5,109.5 122.6,109 122.4,109 	"/>
	<polygon fill="none" points="120.4,104 120,104 120,107 120.3,107 120.3,107 120,107 120,108.7 122,108.4 122,107 123,107 
		123.1,107 122,107 122,104 123,104 123,105.5 123.6,104 120.4,104 	"/>
	<polygon fill="none" points="120.2,109 120.2,109 120.2,109 	"/>
	<polygon fill="none" points="119,107 119,106.1 119,104 119.6,104 119.8,104 119,104 	"/>
	<path fill="none" d="M131,101.5c0,0,0-0.1,0-0.1l-6.4-6.4c0,0-0.1,0-0.1,0c0,0,0,0.1,0,0.1l6.4,6.4
		C130.9,101.6,131,101.6,131,101.5z"/>
	<path fill="none" d="M128,86.1c-0.1-0.1-0.2-0.1-0.3,0c-0.1,0.1-0.1,0.2,0,0.3l0.6,0.6c0.1,0.1,0.2,0.1,0.3,0
		c0.1-0.1,0.1-0.2,0-0.3L128,86.1z"/>
	<path fill="none" d="M127.3,86.7c-0.1-0.1-0.2-0.1-0.3,0c-0.1,0.1-0.1,0.2,0,0.3l0.6,0.6c0.1,0.1,0.2,0.1,0.3,0
		c0.1-0.1,0.1-0.2,0-0.3L127.3,86.7z"/>
	<path fill="none" d="M126.7,87.4c-0.1-0.1-0.2-0.1-0.3,0c-0.1,0.1-0.1,0.2,0,0.3l0.6,0.6c0.1,0.1,0.2,0.1,0.3,0
		c0.1-0.1,0.1-0.2,0-0.3L126.7,87.4z"/>
	<path fill="none" d="M126.1,88c-0.1-0.1-0.2-0.1-0.3,0c-0.1,0.1-0.1,0.2,0,0.3l0.6,0.6c0.1,0.1,0.2,0.1,0.3,0
		c0.1-0.1,0.1-0.2,0-0.3L126.1,88z"/>
	<path fill="none" d="M129.2,84.8c-0.1-0.1-0.2-0.1-0.3,0c-0.1,0.1-0.1,0.2,0,0.3l0.6,0.6c0.1,0.1,0.2,0.1,0.3,0
		c0.1-0.1,0.1-0.2,0-0.3L129.2,84.8z"/>
	<path fill="none" d="M128.6,85.5c-0.1-0.1-0.2-0.1-0.3,0c-0.1,0.1-0.1,0.2,0,0.3l0.6,0.6c0.1,0.1,0.2,0.1,0.3,0
		c0.1-0.1,0.1-0.2,0-0.3L128.6,85.5z"/>
	<path fill="none" d="M125.5,88.6c-0.1-0.1-0.2-0.1-0.3,0c-0.1,0.1-0.1,0.2,0,0.3l0.6,0.6c0.1,0.1,0.2,0.1,0.3,0
		c0.1-0.1,0.1-0.2,0-0.3L125.5,88.6z"/>
	<path fill="none" d="M129.9,101.1c-0.1-0.1-0.2-0.1-0.3,0l-0.6,0.6c-0.1,0.1-0.1,0.2,0,0.3c0.1,0.1,0.2,0.1,0.3,0l0.6-0.6
		C130,101.3,130,101.2,129.9,101.1z"/>
	<path fill="none" d="M119.5,91.7c0,1,0.8,1.8,1.8,1.8c0.4,0,0.8-0.2,1.1-0.4c0.1-0.1,0.2-0.2,0.3-0.3c0.2-0.3,0.4-0.7,0.4-1.1
		c0-0.4-0.1-0.7-0.3-0.9l0,0c-0.1-0.2-0.2-0.3-0.4-0.4c-0.3-0.2-0.7-0.4-1.1-0.4C120.3,89.9,119.5,90.7,119.5,91.7z M121.3,90.7
		c0.6,0,1,0.4,1,1c0,0.6-0.4,1-1,1c-0.5,0-1-0.4-1-1C120.3,91.1,120.7,90.7,121.3,90.7z"/>
	<path fill="none" d="M130.2,101.8l-0.6,0.6c-0.1,0.1-0.1,0.2,0,0.3c0.1,0.1,0.2,0.1,0.3,0l0.6-0.6c0.1-0.1,0.1-0.2,0-0.3
		C130.4,101.7,130.3,101.7,130.2,101.8z"/>
	<path fill="none" d="M129.2,100.5c-0.1-0.1-0.2-0.1-0.3,0l-0.6,0.6c-0.1,0.1-0.1,0.2,0,0.3c0.1,0.1,0.2,0.1,0.3,0l0.6-0.6
		C129.3,100.7,129.3,100.6,129.2,100.5z"/>
	<path fill="none" d="M123.4,96c-0.1,0.1-0.1,0.2,0,0.3c0.1,0.1,0.2,0.1,0.3,0l0.6-0.6c0.1-0.1,0.1-0.2,0-0.3
		c-0.1-0.1-0.2-0.1-0.3,0L123.4,96z"/>
	<path fill="none" d="M129.9,84.2c-0.1-0.1-0.2-0.1-0.3,0c-0.1,0.1-0.1,0.2,0,0.3l0.6,0.6c0.1,0.1,0.2,0.1,0.3,0
		c0.1-0.1,0.1-0.2,0-0.3L129.9,84.2z"/>
	<path fill="none" d="M48.5,65.3c0.2,0.2,0.6,0.2,0.8,0c0.2-0.2,0.2-0.6,0-0.8l-1.6-1.6c-0.2-0.2-0.6-0.2-0.8,0
		c-0.2,0.2-0.2,0.6,0,0.8L48.5,65.3z"/>
	<path fill="none" d="M52.1,26.4c0.2,0.2,0.6,0.2,0.8,0l1.6-1.6c0.2-0.2,0.2-0.6,0-0.8c-0.2-0.2-0.6-0.2-0.8,0l-1.6,1.6
		C51.9,25.8,51.9,26.2,52.1,26.4z"/>
	<path fill="none" d="M55.9,30.1c0.2,0.2,0.6,0.2,0.8,0l1.6-1.6c0.2-0.2,0.2-0.6,0-0.8c-0.2-0.2-0.6-0.2-0.8,0l-1.6,1.6
		C55.6,29.5,55.6,29.9,55.9,30.1z"/>
	<path fill="none" d="M50.3,24.5c0.2,0.2,0.6,0.2,0.8,0l1.6-1.6c0.2-0.2,0.2-0.6,0-0.8c-0.2-0.2-0.6-0.2-0.8,0l-1.6,1.6
		C50.1,24,50.1,24.3,50.3,24.5z"/>
	<path fill="none" d="M54,28.3c0.2,0.2,0.6,0.2,0.8,0l1.6-1.6c0.2-0.2,0.2-0.6,0-0.8c-0.2-0.2-0.6-0.2-0.8,0L54,27.5
		C53.8,27.7,53.8,28,54,28.3z"/>
	<path fill="none" d="M48.4,22.7c0.2,0.2,0.6,0.2,0.8,0l1.6-1.6c0.2-0.2,0.2-0.6,0-0.8c-0.2-0.2-0.6-0.2-0.8,0l-1.6,1.6
		C48.2,22.1,48.2,22.5,48.4,22.7z"/>
	<path fill="none" d="M44.7,19c0.2,0.2,0.6,0.2,0.8,0l1.6-1.6c0.2-0.2,0.2-0.6,0-0.8c-0.2-0.2-0.6-0.2-0.8,0l-1.6,1.6
		C44.5,18.4,44.5,18.7,44.7,19z"/>
	<path fill="none" d="M46.6,20.8c0.2,0.2,0.6,0.2,0.8,0l1.6-1.6c0.2-0.2,0.2-0.6,0-0.8c-0.2-0.2-0.6-0.2-0.8,0L46.6,20
		C46.3,20.2,46.3,20.6,46.6,20.8z"/>
	<path fill="none" d="M97.5,23.7c-0.2-0.2-0.6-0.2-0.8,0c-0.2,0.2-0.2,0.6,0,0.8l1.6,1.6c0.2,0.2,0.6,0.2,0.8,0
		c0.2-0.2,0.2-0.6,0-0.8L97.5,23.7z"/>
	<path fill="none" d="M43.6,17.1l1.6-1.6c0.2-0.2,0.2-0.6,0-0.8c-0.2-0.2-0.6-0.2-0.8,0l-1.6,1.6c-0.2,0.2-0.2,0.6,0,0.8
		C43.1,17.3,43.4,17.3,43.6,17.1z"/>
	<path fill="none" d="M95.6,25.5c-0.2-0.2-0.6-0.2-0.8,0c-0.2,0.2-0.2,0.6,0,0.8l1.6,1.6c0.2,0.2,0.6,0.2,0.8,0
		c0.2-0.2,0.2-0.6,0-0.8L95.6,25.5z"/>
	<path fill="none" d="M99.3,21.8c-0.2-0.2-0.6-0.2-0.8,0c-0.2,0.2-0.2,0.6,0,0.8l1.6,1.6c0.2,0.2,0.6,0.2,0.8,0
		c0.2-0.2,0.2-0.6,0-0.8L99.3,21.8z"/>
	<path fill="none" d="M59.6,33.8c0.2,0.2,0.6,0.2,0.8,0l1.6-1.6c0.2-0.2,0.2-0.6,0-0.8c-0.2-0.2-0.6-0.2-0.8,0L59.6,33
		C59.4,33.3,59.4,33.6,59.6,33.8z"/>
	<path fill="none" d="M57.7,32c0.2,0.2,0.6,0.2,0.8,0l1.6-1.6c0.2-0.2,0.2-0.6,0-0.8c-0.2-0.2-0.6-0.2-0.8,0l-1.6,1.6
		C57.5,31.4,57.5,31.8,57.7,32z"/>
	<path fill="none" d="M80.7,37.9l19.1-19.1c0.1-0.1,0.1-0.3,0-0.4c-0.1-0.1-0.3-0.1-0.4,0L80.3,37.4c-0.1,0.1-0.1,0.3,0,0.4
		C80.4,38,80.6,38,80.7,37.9z"/>
	<path fill="none" d="M102,22.4c0.2,0.2,0.6,0.2,0.8,0c0.2-0.2,0.2-0.6,0-0.8l-1.6-1.6c-0.2-0.2-0.6-0.2-0.8,0
		c-0.2,0.2-0.2,0.6,0,0.8L102,22.4z"/>
	<path fill="none" d="M38.3,72.2c-0.2-0.2-0.6-0.2-0.8,0c-0.2,0.2-0.2,0.6,0,0.8l1.6,1.6c0.2,0.2,0.6,0.2,0.8,0
		c0.2-0.2,0.2-0.6,0-0.8L38.3,72.2z"/>
	<path fill="none" d="M41,72.8c0.2,0.2,0.6,0.2,0.8,0c0.2-0.2,0.2-0.6,0-0.8l-1.6-1.6c-0.2-0.2-0.6-0.2-0.8,0
		c-0.2,0.2-0.2,0.6,0,0.8L41,72.8z"/>
	<path fill="none" d="M93.7,27.4c-0.2-0.2-0.6-0.2-0.8,0c-0.2,0.2-0.2,0.6,0,0.8l1.6,1.6c0.2,0.2,0.6,0.2,0.8,0
		c0.2-0.2,0.2-0.6,0-0.8L93.7,27.4z"/>
	<path fill="none" d="M42.9,70.9c0.2,0.2,0.6,0.2,0.8,0c0.2-0.2,0.2-0.6,0-0.8L42,68.4c-0.2-0.2-0.6-0.2-0.8,0
		c-0.2,0.2-0.2,0.6,0,0.8L42.9,70.9z"/>
	<path fill="none" d="M44.8,69c0.2,0.2,0.6,0.2,0.8,0c0.2-0.2,0.2-0.6,0-0.8l-1.6-1.6c-0.2-0.2-0.6-0.2-0.8,0
		c-0.2,0.2-0.2,0.6,0,0.8L44.8,69z"/>
	<path fill="none" d="M59.6,56.7L40.6,75.8c-0.1,0.1-0.1,0.3,0,0.4c0.1,0.1,0.3,0.1,0.4,0l19.1-19.1c0.1-0.1,0.1-0.3,0-0.4
		C60,56.6,59.8,56.6,59.6,56.7z"/>
	<path fill="none" d="M64.8,47.6c0,2.9,2.4,5.3,5.3,5.3c1.1,0,2.1-0.3,2.9-0.9l0,0c0.5-0.4,1-0.8,1.3-1.4l0,0c0.6-0.9,1-1.9,1-3.1
		c0-1.1-0.3-2-0.8-2.8l-0.1,0.1c-0.3-0.6-0.7-1.1-1.2-1.5l0,0c-0.9-0.7-2-1.1-3.2-1.1C67.2,42.2,64.8,44.6,64.8,47.6z M70.1,44.6
		c1.6,0,2.9,1.3,2.9,2.9c0,1.6-1.3,2.9-2.9,2.9c-1.6,0-2.9-1.3-2.9-2.9C67.1,45.9,68.5,44.6,70.1,44.6z"/>
	<path fill="none" d="M63.9,34c0.2-0.2,0.2-0.6,0-0.8c-0.2-0.2-0.6-0.2-0.8,0l-1.6,1.6c-0.2,0.2-0.2,0.6,0,0.8
		c0.2,0.2,0.6,0.2,0.8,0L63.9,34z"/>
	<path fill="none" d="M57.8,56c0.2,0.2,0.6,0.2,0.8,0c0.2-0.2,0.2-0.6,0-0.8l-1.6-1.6c-0.2-0.2-0.6-0.2-0.8,0
		c-0.2,0.2-0.2,0.6,0,0.8L57.8,56z"/>
	<path fill="none" d="M41.7,17.7c-0.1-0.1-0.3-0.1-0.4,0c-0.1,0.1-0.1,0.3,0,0.4l19.1,19.1c0.1,0.1,0.3,0.1,0.4,0
		c0.1-0.1,0.1-0.3,0-0.4L41.7,17.7z"/>
	<path fill="none" d="M55.9,57.9c0.2,0.2,0.6,0.2,0.8,0c0.2-0.2,0.2-0.6,0-0.8l-1.6-1.6c-0.2-0.2-0.6-0.2-0.8,0
		c-0.2,0.2-0.2,0.6,0,0.8L55.9,57.9z"/>
	<path fill="none" d="M54,59.7c0.2,0.2,0.6,0.2,0.8,0c0.2-0.2,0.2-0.6,0-0.8l-1.6-1.6c-0.2-0.2-0.6-0.2-0.8,0
		c-0.2,0.2-0.2,0.6,0,0.8L54,59.7z"/>
	<path fill="none" d="M50.3,63.5c0.2,0.2,0.6,0.2,0.8,0c0.2-0.2,0.2-0.6,0-0.8L49.5,61c-0.2-0.2-0.6-0.2-0.8,0
		c-0.2,0.2-0.2,0.6,0,0.8L50.3,63.5z"/>
	<path fill="none" d="M52.2,61.6c0.2,0.2,0.6,0.2,0.8,0c0.2-0.2,0.2-0.6,0-0.8l-1.6-1.6c-0.2-0.2-0.6-0.2-0.8,0
		c-0.2,0.2-0.2,0.6,0,0.8L52.2,61.6z"/>
	<path fill="none" d="M46.6,67.2c0.2,0.2,0.6,0.2,0.8,0c0.2-0.2,0.2-0.6,0-0.8l-1.6-1.6c-0.2-0.2-0.6-0.2-0.8,0
		c-0.2,0.2-0.2,0.6,0,0.8L46.6,67.2z"/>
	<path fill="none" d="M88.2,33c-0.2-0.2-0.6-0.2-0.8,0c-0.2,0.2-0.2,0.6,0,0.8l1.6,1.6c0.2,0.2,0.6,0.2,0.8,0c0.2-0.2,0.2-0.6,0-0.8
		L88.2,33z"/>
	<path fill="none" d="M86.3,66.3c-0.2-0.2-0.6-0.2-0.8,0L83.9,68c-0.2,0.2-0.2,0.6,0,0.8c0.2,0.2,0.6,0.2,0.8,0l1.6-1.6
		C86.6,66.9,86.6,66.6,86.3,66.3z"/>
	<path fill="none" d="M90.1,70.1c-0.2-0.2-0.6-0.2-0.8,0l-1.6,1.6c-0.2,0.2-0.2,0.6,0,0.8c0.2,0.2,0.6,0.2,0.8,0l1.6-1.6
		C90.3,70.6,90.3,70.3,90.1,70.1z"/>
	<path fill="none" d="M91.9,71.9c-0.2-0.2-0.6-0.2-0.8,0l-1.6,1.6c-0.2,0.2-0.2,0.6,0,0.8c0.2,0.2,0.6,0.2,0.8,0l1.6-1.6
		C92.1,72.5,92.1,72.1,91.9,71.9z"/>
	<path fill="none" d="M84.5,64.5c-0.2-0.2-0.6-0.2-0.8,0L82,66.1c-0.2,0.2-0.2,0.6,0,0.8c0.2,0.2,0.6,0.2,0.8,0l1.6-1.6
		C84.7,65.1,84.7,64.7,84.5,64.5z"/>
	<path fill="none" d="M93.8,73.8c-0.2-0.2-0.6-0.2-0.8,0l-1.6,1.6c-0.2,0.2-0.2,0.6,0,0.8c0.2,0.2,0.6,0.2,0.8,0l1.6-1.6
		C94,74.4,94,74,93.8,73.8z"/>
	<path fill="none" d="M77,83H61v18h3.2l0.2-0.4l0.1,0.4H68v-0.7l0.9,0.7h1.3l0.6-1.2l0.3,1.2h0.1l0.1-0.7l0.3,0.7h0.7l0.3-0.7
		l0.1,0.7H73l0.3-1.2l0.6,1.2h1.3l0.9-0.7v0.7h1V83z M68,99h-6v-7h6V99z M68,92h-6v-8h6V92z M76,99h-6v-7h6V99z M76,92h-6v-8h6V92z"
		/>
	<path fill="none" d="M91.9,29.3c-0.2-0.2-0.6-0.2-0.8,0c-0.2,0.2-0.2,0.6,0,0.8l1.6,1.6c0.2,0.2,0.6,0.2,0.8,0
		c0.2-0.2,0.2-0.6,0-0.8L91.9,29.3z"/>
	<path fill="none" d="M82.6,62.6c-0.2-0.2-0.6-0.2-0.8,0l-1.6,1.6c-0.2,0.2-0.2,0.6,0,0.8c0.2,0.2,0.6,0.2,0.8,0l1.6-1.6
		C82.8,63.2,82.8,62.8,82.6,62.6z"/>
	<path fill="none" d="M80.8,60.8c-0.2-0.2-0.6-0.2-0.8,0l-1.6,1.6c-0.2,0.2-0.2,0.6,0,0.8c0.2,0.2,0.6,0.2,0.8,0l1.6-1.6
		C81,61.3,81,61,80.8,60.8z"/>
	<path fill="none" d="M88.2,68.2c-0.2-0.2-0.6-0.2-0.8,0l-1.6,1.6c-0.2,0.2-0.2,0.6,0,0.8c0.2,0.2,0.6,0.2,0.8,0l1.6-1.6
		C88.4,68.8,88.4,68.4,88.2,68.2z"/>
	<path fill="none" d="M86.3,34.8c-0.2-0.2-0.6-0.2-0.8,0c-0.2,0.2-0.2,0.6,0,0.8l1.6,1.6c0.2,0.2,0.6,0.2,0.8,0
		c0.2-0.2,0.2-0.6,0-0.8L86.3,34.8z"/>
	<path fill="none" d="M84.4,36.7c-0.2-0.2-0.6-0.2-0.8,0c-0.2,0.2-0.2,0.6,0,0.8l1.6,1.6c0.2,0.2,0.6,0.2,0.8,0
		c0.2-0.2,0.2-0.6,0-0.8L84.4,36.7z"/>
	<path fill="none" d="M90,31.1c-0.2-0.2-0.6-0.2-0.8,0c-0.2,0.2-0.2,0.6,0,0.8l1.6,1.6c0.2,0.2,0.6,0.2,0.8,0c0.2-0.2,0.2-0.6,0-0.8
		L90,31.1z"/>
	<path fill="none" d="M82.6,38.6c-0.2-0.2-0.6-0.2-0.8,0c-0.2,0.2-0.2,0.6,0,0.8l1.6,1.6c0.2,0.2,0.6,0.2,0.8,0
		c0.2-0.2,0.2-0.6,0-0.8L82.6,38.6z"/>
	<path fill="none" d="M95.6,75.6c-0.2-0.2-0.6-0.2-0.8,0l-1.6,1.6c-0.2,0.2-0.2,0.6,0,0.8c0.2,0.2,0.6,0.2,0.8,0l1.6-1.6
		C95.9,76.2,95.9,75.9,95.6,75.6z"/>
	<path fill="none" d="M96.7,77.5L95,79.1c-0.2,0.2-0.2,0.6,0,0.8c0.2,0.2,0.6,0.2,0.8,0l1.6-1.6c0.2-0.2,0.2-0.6,0-0.8
		C97.3,77.3,96.9,77.3,96.7,77.5z"/>
	<path fill="none" d="M76.4,60.5c-0.2,0.2-0.2,0.6,0,0.8c0.2,0.2,0.6,0.2,0.8,0l1.6-1.6c0.2-0.2,0.2-0.6,0-0.8
		c-0.2-0.2-0.6-0.2-0.8,0L76.4,60.5z"/>
	<path fill="none" d="M98.7,76.9c0.1,0.1,0.3,0.1,0.4,0c0.1-0.1,0.1-0.3,0-0.4L80,57.4c-0.1-0.1-0.3-0.1-0.4,0
		c-0.1,0.1-0.1,0.3,0,0.4L98.7,76.9z"/>
	<circle fill="#5B784D" cx="70.1" cy="47.6" r="2.9"/>
	<rect x="70" y="92" fill="#5B784D" width="6" height="7"/>
	<polygon fill="#5B784D" points="71.2,100.7 71.2,100.4 71.1,100.4 	"/>
	<polygon fill="#5B784D" points="72.9,100.7 73,100.4 72.8,100.4 	"/>
	<polygon fill="#5B784D" points="72,101 72.3,100.4 71.7,100.4 	"/>
	<polygon fill="#5B784D" points="74.5,101.6 75.1,100.4 73.8,100.4 	"/>
	<rect x="70" y="84" fill="#5B784D" width="6" height="8"/>
	<polygon fill="#5B784D" points="88.9,102.6 88.8,102.4 88.9,102.9 	"/>
	<polygon fill="#5B784D" points="69.5,101.6 70.2,100.4 68.9,100.4 	"/>
	<rect x="62" y="84" fill="#5B784D" width="6" height="8"/>
	<path fill="#5B784D" d="M53.4,98.9l0.4,3.7l1-2.6l0.4,3l0.1-2.7l0.8,2.6v-2.3l1.4,2.2l1.3-2l1,2.4l0.6-2.4l1.1,1.8l0.7-1.6l1.2,2.1
		l0.9-1.8H61V83h16v18h-1v1.5l0.5-1.2l1,1.5l1.3-1.6l0.5,1.2l0.4-2.4l1.1,2.6l1.2-1.8l0.7,1.6l1.1-1.8l0.5,2.4l1-2.4l1.4,2l1.4-2.2
		v2.3l0.5-1.8l-16.7-46c1.1-0.2,2-0.7,2.9-1.4l3.7,3.7l-3.5,3.5l20.9,21l4.9-4.9l-21-21l0,0L76,52.2c1-1.3,1.7-2.9,1.7-4.7
		c0-1.7-0.6-3.2-1.5-4.4l4-4l3.5,3.5l21-21l-4.9-4.9l-21,21l0,0l-4,4c-1.3-1.1-2.9-1.7-4.8-1.7c-1.5,0-2.9,0.5-4.1,1.2l-4-4l3.5-3.5
		L44.6,12.8l-4.9,4.9l21,21l0,0l3.9,3.9c-1.2,1.3-2,3.1-2,5.1c0,1.6,0.5,3,1.3,4.2l-3.6,3.6l-3.5-3.5l-21,20.9l4.9,4.9l21-20.9l0,0
		l3.6-3.6c0.5,0.5,1.1,0.9,1.8,1.2l-16.6,45.8l0.7,3.3L53.4,98.9z M78.3,63.2c-0.2-0.2-0.2-0.6,0-0.8l1.6-1.6c0.2-0.2,0.6-0.2,0.8,0
		c0.2,0.2,0.2,0.6,0,0.8l-1.6,1.6C78.9,63.4,78.5,63.4,78.3,63.2z M80.2,65.1c-0.2-0.2-0.2-0.6,0-0.8l1.6-1.6c0.2-0.2,0.6-0.2,0.8,0
		c0.2,0.2,0.2,0.6,0,0.8L81,65.1C80.7,65.3,80.4,65.3,80.2,65.1z M82,66.9c-0.2-0.2-0.2-0.6,0-0.8l1.6-1.6c0.2-0.2,0.6-0.2,0.8,0
		c0.2,0.2,0.2,0.6,0,0.8l-1.6,1.6C82.6,67.1,82.2,67.1,82,66.9z M83.9,68.8c-0.2-0.2-0.2-0.6,0-0.8l1.6-1.6c0.2-0.2,0.6-0.2,0.8,0
		c0.2,0.2,0.2,0.6,0,0.8l-1.6,1.6C84.5,69,84.1,69,83.9,68.8z M85.7,70.6c-0.2-0.2-0.2-0.6,0-0.8l1.6-1.6c0.2-0.2,0.6-0.2,0.8,0
		c0.2,0.2,0.2,0.6,0,0.8l-1.6,1.6C86.3,70.9,86,70.9,85.7,70.6z M87.6,72.5c-0.2-0.2-0.2-0.6,0-0.8l1.6-1.6c0.2-0.2,0.6-0.2,0.8,0
		c0.2,0.2,0.2,0.6,0,0.8l-1.6,1.6C88.2,72.7,87.8,72.7,87.6,72.5z M89.5,74.4c-0.2-0.2-0.2-0.6,0-0.8l1.6-1.6c0.2-0.2,0.6-0.2,0.8,0
		c0.2,0.2,0.2,0.6,0,0.8l-1.6,1.6C90,74.6,89.7,74.6,89.5,74.4z M91.3,76.2c-0.2-0.2-0.2-0.6,0-0.8l1.6-1.6c0.2-0.2,0.6-0.2,0.8,0
		c0.2,0.2,0.2,0.6,0,0.8l-1.6,1.6C91.9,76.4,91.5,76.4,91.3,76.2z M93.2,78.1c-0.2-0.2-0.2-0.6,0-0.8l1.6-1.6c0.2-0.2,0.6-0.2,0.8,0
		c0.2,0.2,0.2,0.6,0,0.8L94,78.1C93.8,78.3,93.4,78.3,93.2,78.1z M97.5,78.3l-1.6,1.6c-0.2,0.2-0.6,0.2-0.8,0
		c-0.2-0.2-0.2-0.6,0-0.8l1.6-1.6c0.2-0.2,0.6-0.2,0.8,0C97.7,77.7,97.7,78.1,97.5,78.3z M79.6,57.4c0.1-0.1,0.3-0.1,0.4,0
		l19.1,19.1c0.1,0.1,0.1,0.3,0,0.4c-0.1,0.1-0.3,0.1-0.4,0L79.6,57.8C79.5,57.7,79.5,57.5,79.6,57.4z M78.9,58.9
		c0.2,0.2,0.2,0.6,0,0.8l-1.6,1.6c-0.2,0.2-0.6,0.2-0.8,0c-0.2-0.2-0.2-0.6,0-0.8l1.6-1.6C78.3,58.7,78.7,58.7,78.9,58.9z M84.2,41
		c-0.2,0.2-0.6,0.2-0.8,0l-1.6-1.6c-0.2-0.2-0.2-0.6,0-0.8c0.2-0.2,0.6-0.2,0.8,0l1.6,1.6C84.4,40.4,84.4,40.8,84.2,41z M86.1,39.2
		c-0.2,0.2-0.6,0.2-0.8,0l-1.6-1.6c-0.2-0.2-0.2-0.6,0-0.8c0.2-0.2,0.6-0.2,0.8,0l1.6,1.6C86.3,38.6,86.3,38.9,86.1,39.2z
		 M87.9,37.3c-0.2,0.2-0.6,0.2-0.8,0l-1.6-1.6c-0.2-0.2-0.2-0.6,0-0.8c0.2-0.2,0.6-0.2,0.8,0l1.6,1.6C88.2,36.7,88.2,37.1,87.9,37.3
		z M89.8,35.4c-0.2,0.2-0.6,0.2-0.8,0l-1.6-1.6c-0.2-0.2-0.2-0.6,0-0.8c0.2-0.2,0.6-0.2,0.8,0l1.6,1.6C90,34.9,90,35.2,89.8,35.4z
		 M91.7,33.6c-0.2,0.2-0.6,0.2-0.8,0l-1.6-1.6c-0.2-0.2-0.2-0.6,0-0.8c0.2-0.2,0.6-0.2,0.8,0l1.6,1.6C91.9,33,91.9,33.4,91.7,33.6z
		 M93.5,31.7c-0.2,0.2-0.6,0.2-0.8,0l-1.6-1.6c-0.2-0.2-0.2-0.6,0-0.8c0.2-0.2,0.6-0.2,0.8,0l1.6,1.6C93.7,31.1,93.7,31.5,93.5,31.7
		z M95.4,29.9c-0.2,0.2-0.6,0.2-0.8,0l-1.6-1.6c-0.2-0.2-0.2-0.6,0-0.8c0.2-0.2,0.6-0.2,0.8,0l1.6,1.6
		C95.6,29.3,95.6,29.6,95.4,29.9z M97.2,28c-0.2,0.2-0.6,0.2-0.8,0l-1.6-1.6c-0.2-0.2-0.2-0.6,0-0.8c0.2-0.2,0.6-0.2,0.8,0l1.6,1.6
		C97.5,27.4,97.5,27.8,97.2,28z M99.1,26.1c-0.2,0.2-0.6,0.2-0.8,0l-1.6-1.6c-0.2-0.2-0.2-0.6,0-0.8c0.2-0.2,0.6-0.2,0.8,0l1.6,1.6
		C99.3,25.6,99.3,25.9,99.1,26.1z M101,24.3c-0.2,0.2-0.6,0.2-0.8,0l-1.6-1.6c-0.2-0.2-0.2-0.6,0-0.8c0.2-0.2,0.6-0.2,0.8,0l1.6,1.6
		C101.2,23.7,101.2,24.1,101,24.3z M100.4,20c0.2-0.2,0.6-0.2,0.8,0l1.6,1.6c0.2,0.2,0.2,0.6,0,0.8c-0.2,0.2-0.6,0.2-0.8,0l-1.6-1.6
		C100.1,20.5,100.1,20.2,100.4,20z M80.3,37.4l19.1-19.1c0.1-0.1,0.3-0.1,0.4,0c0.1,0.1,0.1,0.3,0,0.4L80.7,37.9
		c-0.1,0.1-0.3,0.1-0.4,0C80.2,37.8,80.2,37.6,80.3,37.4z M62,31.4c0.2,0.2,0.2,0.6,0,0.8l-1.6,1.6c-0.2,0.2-0.6,0.2-0.8,0
		c-0.2-0.2-0.2-0.6,0-0.8l1.6-1.6C61.5,31.2,61.8,31.2,62,31.4z M60.2,29.5c0.2,0.2,0.2,0.6,0,0.8L58.5,32c-0.2,0.2-0.6,0.2-0.8,0
		c-0.2-0.2-0.2-0.6,0-0.8l1.6-1.6C59.6,29.3,60,29.3,60.2,29.5z M58.3,27.7c0.2,0.2,0.2,0.6,0,0.8l-1.6,1.6c-0.2,0.2-0.6,0.2-0.8,0
		c-0.2-0.2-0.2-0.6,0-0.8l1.6-1.6C57.7,27.4,58.1,27.4,58.3,27.7z M56.5,25.8c0.2,0.2,0.2,0.6,0,0.8l-1.6,1.6
		c-0.2,0.2-0.6,0.2-0.8,0c-0.2-0.2-0.2-0.6,0-0.8l1.6-1.6C55.9,25.6,56.2,25.6,56.5,25.8z M54.6,23.9c0.2,0.2,0.2,0.6,0,0.8
		l-1.6,1.6c-0.2,0.2-0.6,0.2-0.8,0c-0.2-0.2-0.2-0.6,0-0.8l1.6-1.6C54,23.7,54.4,23.7,54.6,23.9z M52.7,22.1c0.2,0.2,0.2,0.6,0,0.8
		l-1.6,1.6c-0.2,0.2-0.6,0.2-0.8,0c-0.2-0.2-0.2-0.6,0-0.8l1.6-1.6C52.2,21.9,52.5,21.9,52.7,22.1z M50.9,20.2
		c0.2,0.2,0.2,0.6,0,0.8l-1.6,1.6c-0.2,0.2-0.6,0.2-0.8,0c-0.2-0.2-0.2-0.6,0-0.8l1.6-1.6C50.3,20,50.7,20,50.9,20.2z M49,18.4
		c0.2,0.2,0.2,0.6,0,0.8l-1.6,1.6c-0.2,0.2-0.6,0.2-0.8,0c-0.2-0.2-0.2-0.6,0-0.8l1.6-1.6C48.4,18.1,48.8,18.1,49,18.4z M47.2,16.5
		c0.2,0.2,0.2,0.6,0,0.8L45.5,19c-0.2,0.2-0.6,0.2-0.8,0c-0.2-0.2-0.2-0.6,0-0.8l1.6-1.6C46.6,16.3,46.9,16.3,47.2,16.5z M42.8,16.3
		l1.6-1.6c0.2-0.2,0.6-0.2,0.8,0c0.2,0.2,0.2,0.6,0,0.8l-1.6,1.6c-0.2,0.2-0.6,0.2-0.8,0C42.6,16.9,42.6,16.5,42.8,16.3z M60.7,37.2
		c-0.1,0.1-0.3,0.1-0.4,0L41.3,18.1c-0.1-0.1-0.1-0.3,0-0.4c0.1-0.1,0.3-0.1,0.4,0l19.1,19.1C60.9,36.9,60.9,37.1,60.7,37.2z
		 M61.4,35.7c-0.2-0.2-0.2-0.6,0-0.8l1.6-1.6c0.2-0.2,0.6-0.2,0.8,0c0.2,0.2,0.2,0.6,0,0.8l-1.6,1.6C62,35.9,61.7,35.9,61.4,35.7z
		 M56.1,53.6c0.2-0.2,0.6-0.2,0.8,0l1.6,1.6c0.2,0.2,0.2,0.6,0,0.8c-0.2,0.2-0.6,0.2-0.8,0l-1.6-1.6C55.9,54.1,55.9,53.8,56.1,53.6z
		 M54.3,55.4c0.2-0.2,0.6-0.2,0.8,0l1.6,1.6c0.2,0.2,0.2,0.6,0,0.8c-0.2,0.2-0.6,0.2-0.8,0l-1.6-1.6C54,56,54,55.6,54.3,55.4z
		 M52.4,57.3c0.2-0.2,0.6-0.2,0.8,0l1.6,1.6c0.2,0.2,0.2,0.6,0,0.8c-0.2,0.2-0.6,0.2-0.8,0l-1.6-1.6C52.2,57.9,52.2,57.5,52.4,57.3z
		 M50.5,59.1c0.2-0.2,0.6-0.2,0.8,0l1.6,1.6c0.2,0.2,0.2,0.6,0,0.8c-0.2,0.2-0.6,0.2-0.8,0L50.5,60C50.3,59.7,50.3,59.4,50.5,59.1z
		 M48.7,61c0.2-0.2,0.6-0.2,0.8,0l1.6,1.6c0.2,0.2,0.2,0.6,0,0.8c-0.2,0.2-0.6,0.2-0.8,0l-1.6-1.6C48.5,61.6,48.5,61.2,48.7,61z
		 M46.8,62.9c0.2-0.2,0.6-0.2,0.8,0l1.6,1.6c0.2,0.2,0.2,0.6,0,0.8c-0.2,0.2-0.6,0.2-0.8,0l-1.6-1.6C46.6,63.4,46.6,63.1,46.8,62.9z
		 M45,64.7c0.2-0.2,0.6-0.2,0.8,0l1.6,1.6c0.2,0.2,0.2,0.6,0,0.8c-0.2,0.2-0.6,0.2-0.8,0L45,65.5C44.7,65.3,44.7,64.9,45,64.7z
		 M43.1,66.6c0.2-0.2,0.6-0.2,0.8,0l1.6,1.6c0.2,0.2,0.2,0.6,0,0.8c-0.2,0.2-0.6,0.2-0.8,0l-1.6-1.6C42.9,67.2,42.9,66.8,43.1,66.6z
		 M41.2,68.4c0.2-0.2,0.6-0.2,0.8,0l1.6,1.6c0.2,0.2,0.2,0.6,0,0.8c-0.2,0.2-0.6,0.2-0.8,0l-1.6-1.6C41,69,41,68.7,41.2,68.4z
		 M39.4,70.3c0.2-0.2,0.6-0.2,0.8,0l1.6,1.6c0.2,0.2,0.2,0.6,0,0.8c-0.2,0.2-0.6,0.2-0.8,0l-1.6-1.6C39.2,70.9,39.2,70.5,39.4,70.3z
		 M40,74.6c-0.2,0.2-0.6,0.2-0.8,0L37.5,73c-0.2-0.2-0.2-0.6,0-0.8c0.2-0.2,0.6-0.2,0.8,0l1.6,1.6C40.2,74,40.2,74.4,40,74.6z
		 M60.1,57.1L41,76.2c-0.1,0.1-0.3,0.1-0.4,0c-0.1-0.1-0.1-0.3,0-0.4l19.1-19.1c0.1-0.1,0.3-0.1,0.4,0C60.2,56.8,60.2,57,60.1,57.1z
		 M73.3,43.3L73.3,43.3c0.5,0.4,0.9,0.9,1.2,1.5l0.1-0.1c0.5,0.8,0.8,1.8,0.8,2.8c0,1.2-0.4,2.2-1,3.1l0,0c-0.4,0.5-0.8,1-1.3,1.4
		l0,0c-0.8,0.6-1.9,0.9-2.9,0.9c-2.9,0-5.3-2.4-5.3-5.3c0-2.9,2.4-5.3,5.3-5.3C71.3,42.2,72.4,42.7,73.3,43.3z"/>
	<polygon fill="#5B784D" points="64.8,102.7 65.4,101.3 66.7,102.9 67.5,101.3 68,102.5 68,101 64.5,101 	"/>
	<rect x="62" y="92" fill="#5B784D" width="6" height="7"/>
	<circle fill="#D5D7D8" cx="121.3" cy="91.7" r="1"/>
	<path fill="#D5D7D8" d="M117,104.4l1.1,3.7l1-1.1v-3h0.8l0.7-1.5l-0.1,1.5h3.1l0.6-3.2l-2.4-6.6c0.4-0.1,0.7-0.3,1-0.5l1.2,1.2
		l-1.2,1.2l5.3,5.3l0.1-0.9l-0.2,0.2c-0.1,0.1-0.2,0.1-0.3,0c-0.1-0.1-0.1-0.2,0-0.3l0.6-0.6c0.1-0.1,0.2-0.1,0.3,0
		c0.1,0.1,0.1,0.2,0,0.3l-0.4,0.4l0,1.1l1.6,1.6l1.7-1.7l-7.1-7.1l0,0l-1.2-1.2c0.3-0.4,0.6-1,0.6-1.6c0-0.6-0.2-1.1-0.5-1.5
		l1.3-1.3l1.2,1.2l7.1-7.1l-1.7-1.7l-7.1,7.1l0,0l-1.3,1.3c-0.4-0.4-1-0.6-1.6-0.6c-0.5,0-1,0.2-1.4,0.4l-1.3-1.3l1.2-1.2l-7.1-7.1
		l-1.7,1.7l7.1,7.1l0,0l1.3,1.3c-0.4,0.5-0.7,1-0.7,1.7c0,0.5,0.2,1,0.4,1.4l-1.2,1.2l-1.2-1.2l-7.1,7.1l1.7,1.7l7.1-7.1l0,0
		l1.2-1.2c0.2,0.2,0.4,0.3,0.6,0.4l-4.7,13l0,0.7L117,104.4z M124,96.9c-0.1-0.1-0.1-0.2,0-0.3l0.6-0.6c0.1-0.1,0.2-0.1,0.3,0
		c0.1,0.1,0.1,0.2,0,0.3l-0.6,0.6C124.2,97,124.1,97,124,96.9z M124.7,97.6c-0.1-0.1-0.1-0.2,0-0.3l0.6-0.6c0.1-0.1,0.2-0.1,0.3,0
		c0.1,0.1,0.1,0.2,0,0.3l-0.6,0.6C124.8,97.6,124.7,97.6,124.7,97.6z M125.3,98.2c-0.1-0.1-0.1-0.2,0-0.3l0.6-0.6
		c0.1-0.1,0.2-0.1,0.3,0c0.1,0.1,0.1,0.2,0,0.3l-0.6,0.6C125.5,98.3,125.4,98.3,125.3,98.2z M125.9,98.8c-0.1-0.1-0.1-0.2,0-0.3
		l0.6-0.6c0.1-0.1,0.2-0.1,0.3,0c0.1,0.1,0.1,0.2,0,0.3l-0.6,0.6C126.1,98.9,126,98.9,125.9,98.8z M126.5,99.4
		c-0.1-0.1-0.1-0.2,0-0.3l0.6-0.6c0.1-0.1,0.2-0.1,0.3,0c0.1,0.1,0.1,0.2,0,0.3l-0.6,0.6C126.7,99.5,126.6,99.5,126.5,99.4z
		 M128,99.5l-0.6,0.6c-0.1,0.1-0.2,0.1-0.3,0c-0.1-0.1-0.1-0.2,0-0.3l0.6-0.6c0.1-0.1,0.2-0.1,0.3,0C128.1,99.3,128.1,99.4,128,99.5
		z M128.4,101.3c-0.1-0.1-0.1-0.2,0-0.3l0.6-0.6c0.1-0.1,0.2-0.1,0.3,0c0.1,0.1,0.1,0.2,0,0.3l-0.6,0.6
		C128.6,101.4,128.5,101.4,128.4,101.3z M129,102c-0.1-0.1-0.1-0.2,0-0.3l0.6-0.6c0.1-0.1,0.2-0.1,0.3,0c0.1,0.1,0.1,0.2,0,0.3
		l-0.6,0.6C129.2,102,129.1,102,129,102z M130.5,102l-0.6,0.6c-0.1,0.1-0.2,0.1-0.3,0c-0.1-0.1-0.1-0.2,0-0.3l0.6-0.6
		c0.1-0.1,0.2-0.1,0.3,0C130.6,101.8,130.6,102,130.5,102z M124.5,95c0,0,0.1,0,0.1,0l6.4,6.4c0,0,0,0.1,0,0.1c0,0-0.1,0-0.1,0
		l-6.4-6.4C124.4,95.1,124.4,95,124.5,95z M124.2,95.5c0.1,0.1,0.1,0.2,0,0.3l-0.6,0.6c-0.1,0.1-0.2,0.1-0.3,0
		c-0.1-0.1-0.1-0.2,0-0.3l0.6-0.6C124,95.4,124.1,95.4,124.2,95.5z M126,89.4c-0.1,0.1-0.2,0.1-0.3,0l-0.6-0.6
		c-0.1-0.1-0.1-0.2,0-0.3c0.1-0.1,0.2-0.1,0.3,0l0.6,0.6C126.1,89.2,126.1,89.4,126,89.4z M126.7,88.8c-0.1,0.1-0.2,0.1-0.3,0
		l-0.6-0.6c-0.1-0.1-0.1-0.2,0-0.3c0.1-0.1,0.2-0.1,0.3,0l0.6,0.6C126.7,88.6,126.7,88.7,126.7,88.8z M127.3,88.2
		c-0.1,0.1-0.2,0.1-0.3,0l-0.6-0.6c-0.1-0.1-0.1-0.2,0-0.3c0.1-0.1,0.2-0.1,0.3,0l0.6,0.6C127.4,88,127.4,88.1,127.3,88.2z
		 M127.9,87.6c-0.1,0.1-0.2,0.1-0.3,0l-0.6-0.6c-0.1-0.1-0.1-0.2,0-0.3c0.1-0.1,0.2-0.1,0.3,0l0.6,0.6C128,87.4,128,87.5,127.9,87.6
		z M128.5,86.9c-0.1,0.1-0.2,0.1-0.3,0l-0.6-0.6c-0.1-0.1-0.1-0.2,0-0.3c0.1-0.1,0.2-0.1,0.3,0l0.6,0.6
		C128.6,86.7,128.6,86.8,128.5,86.9z M129.2,86.3c-0.1,0.1-0.2,0.1-0.3,0l-0.6-0.6c-0.1-0.1-0.1-0.2,0-0.3c0.1-0.1,0.2-0.1,0.3,0
		l0.6,0.6C129.2,86.1,129.2,86.2,129.2,86.3z M129.8,85.7c-0.1,0.1-0.2,0.1-0.3,0l-0.6-0.6c-0.1-0.1-0.1-0.2,0-0.3
		c0.1-0.1,0.2-0.1,0.3,0l0.6,0.6C129.9,85.5,129.9,85.6,129.8,85.7z M130.4,85c-0.1,0.1-0.2,0.1-0.3,0l-0.6-0.6
		c-0.1-0.1-0.1-0.2,0-0.3c0.1-0.1,0.2-0.1,0.3,0l0.6,0.6C130.5,84.8,130.5,85,130.4,85z M131,84.4c-0.1,0.1-0.2,0.1-0.3,0l-0.6-0.6
		c-0.1-0.1-0.1-0.2,0-0.3c0.1-0.1,0.2-0.1,0.3,0l0.6,0.6C131.1,84.2,131.1,84.3,131,84.4z M131.7,83.8c-0.1,0.1-0.2,0.1-0.3,0
		l-0.6-0.6c-0.1-0.1-0.1-0.2,0-0.3c0.1-0.1,0.2-0.1,0.3,0l0.6,0.6C131.7,83.6,131.7,83.7,131.7,83.8z M131.5,82.3
		c0.1-0.1,0.2-0.1,0.3,0l0.6,0.6c0.1,0.1,0.1,0.2,0,0.3c-0.1,0.1-0.2,0.1-0.3,0l-0.6-0.6C131.4,82.5,131.4,82.4,131.5,82.3z
		 M124.7,88.2l6.4-6.4c0,0,0.1,0,0.1,0c0,0,0,0.1,0,0.1l-6.4,6.4c0,0-0.1,0-0.1,0C124.6,88.3,124.6,88.3,124.7,88.2z M118.5,86.2
		c0.1,0.1,0.1,0.2,0,0.3L118,87c-0.1,0.1-0.2,0.1-0.3,0c-0.1-0.1-0.1-0.2,0-0.3l0.6-0.6C118.3,86.1,118.5,86.1,118.5,86.2z
		 M117.9,85.6c0.1,0.1,0.1,0.2,0,0.3l-0.6,0.6c-0.1,0.1-0.2,0.1-0.3,0c-0.1-0.1-0.1-0.2,0-0.3l0.6-0.6
		C117.7,85.5,117.8,85.5,117.9,85.6z M117.3,84.9c0.1,0.1,0.1,0.2,0,0.3l-0.6,0.6c-0.1,0.1-0.2,0.1-0.3,0c-0.1-0.1-0.1-0.2,0-0.3
		l0.6-0.6C117.1,84.9,117.2,84.9,117.3,84.9z M116.6,84.3c0.1,0.1,0.1,0.2,0,0.3l-0.6,0.6c-0.1,0.1-0.2,0.1-0.3,0
		c-0.1-0.1-0.1-0.2,0-0.3l0.6-0.6C116.4,84.2,116.6,84.2,116.6,84.3z M116,83.7c0.1,0.1,0.1,0.2,0,0.3l-0.6,0.6
		c-0.1,0.1-0.2,0.1-0.3,0c-0.1-0.1-0.1-0.2,0-0.3l0.6-0.6C115.8,83.6,115.9,83.6,116,83.7z M115.4,83c0.1,0.1,0.1,0.2,0,0.3
		l-0.6,0.6c-0.1,0.1-0.2,0.1-0.3,0c-0.1-0.1-0.1-0.2,0-0.3l0.6-0.6C115.2,83,115.3,83,115.4,83z M114.8,82.4c0.1,0.1,0.1,0.2,0,0.3
		l-0.6,0.6c-0.1,0.1-0.2,0.1-0.3,0c-0.1-0.1-0.1-0.2,0-0.3l0.6-0.6C114.6,82.3,114.7,82.3,114.8,82.4z M114.1,81.8
		c0.1,0.1,0.1,0.2,0,0.3l-0.6,0.6c-0.1,0.1-0.2,0.1-0.3,0c-0.1-0.1-0.1-0.2,0-0.3l0.6-0.6C113.9,81.7,114.1,81.7,114.1,81.8z
		 M113.5,81.2c0.1,0.1,0.1,0.2,0,0.3l-0.6,0.6c-0.1,0.1-0.2,0.1-0.3,0c-0.1-0.1-0.1-0.2,0-0.3l0.6-0.6
		C113.3,81.1,113.4,81.1,113.5,81.2z M112,81.1l0.6-0.6c0.1-0.1,0.2-0.1,0.3,0c0.1,0.1,0.1,0.2,0,0.3l-0.6,0.6
		c-0.1,0.1-0.2,0.1-0.3,0C112,81.3,112,81.2,112,81.1z M118.1,88.1c0,0-0.1,0-0.1,0l-6.4-6.4c0,0,0-0.1,0-0.1c0,0,0.1,0,0.1,0
		l6.4,6.4C118.1,88,118.1,88.1,118.1,88.1z M118.3,87.6c-0.1-0.1-0.1-0.2,0-0.3l0.6-0.6c0.1-0.1,0.2-0.1,0.3,0
		c0.1,0.1,0.1,0.2,0,0.3l-0.6,0.6C118.5,87.7,118.4,87.7,118.3,87.6z M116.5,93.7c0.1-0.1,0.2-0.1,0.3,0l0.6,0.6
		c0.1,0.1,0.1,0.2,0,0.3c-0.1,0.1-0.2,0.1-0.3,0l-0.6-0.6C116.5,93.9,116.5,93.7,116.5,93.7z M115.9,94.3c0.1-0.1,0.2-0.1,0.3,0
		l0.6,0.6c0.1,0.1,0.1,0.2,0,0.3c-0.1,0.1-0.2,0.1-0.3,0l-0.6-0.6C115.8,94.5,115.8,94.4,115.9,94.3z M115.3,94.9
		c0.1-0.1,0.2-0.1,0.3,0l0.6,0.6c0.1,0.1,0.1,0.2,0,0.3c-0.1,0.1-0.2,0.1-0.3,0l-0.6-0.6C115.2,95.1,115.2,95,115.3,94.9z
		 M114.6,95.6c0.1-0.1,0.2-0.1,0.3,0l0.6,0.6c0.1,0.1,0.1,0.2,0,0.3c-0.1,0.1-0.2,0.1-0.3,0l-0.6-0.6
		C114.6,95.8,114.6,95.6,114.6,95.6z M114,96.2c0.1-0.1,0.2-0.1,0.3,0l0.6,0.6c0.1,0.1,0.1,0.2,0,0.3c-0.1,0.1-0.2,0.1-0.3,0
		l-0.6-0.6C113.9,96.4,113.9,96.3,114,96.2z M113.4,96.8c0.1-0.1,0.2-0.1,0.3,0l0.6,0.6c0.1,0.1,0.1,0.2,0,0.3
		c-0.1,0.1-0.2,0.1-0.3,0l-0.6-0.6C113.3,97,113.3,96.9,113.4,96.8z M112.8,97.4c0.1-0.1,0.2-0.1,0.3,0l0.6,0.6
		c0.1,0.1,0.1,0.2,0,0.3c-0.1,0.1-0.2,0.1-0.3,0l-0.6-0.6C112.7,97.6,112.7,97.5,112.8,97.4z M112.1,98.1c0.1-0.1,0.2-0.1,0.3,0
		l0.6,0.6c0.1,0.1,0.1,0.2,0,0.3c-0.1,0.1-0.2,0.1-0.3,0l-0.6-0.6C112.1,98.3,112.1,98.1,112.1,98.1z M111.5,98.7
		c0.1-0.1,0.2-0.1,0.3,0l0.6,0.6c0.1,0.1,0.1,0.2,0,0.3c-0.1,0.1-0.2,0.1-0.3,0l-0.6-0.6C111.4,98.9,111.4,98.8,111.5,98.7z
		 M110.9,99.3c0.1-0.1,0.2-0.1,0.3,0l0.6,0.6c0.1,0.1,0.1,0.2,0,0.3c-0.1,0.1-0.2,0.1-0.3,0l-0.6-0.6
		C110.8,99.5,110.8,99.4,110.9,99.3z M111.1,100.8c-0.1,0.1-0.2,0.1-0.3,0l-0.6-0.6c-0.1-0.1-0.1-0.2,0-0.3c0.1-0.1,0.2-0.1,0.3,0
		l0.6,0.6C111.2,100.6,111.2,100.7,111.1,100.8z M117.9,94.9l-6.4,6.4c0,0-0.1,0-0.1,0c0,0,0-0.1,0-0.1l6.4-6.4c0,0,0.1,0,0.1,0
		C117.9,94.8,117.9,94.8,117.9,94.9z M122.4,90.3c0.1,0.1,0.3,0.3,0.4,0.4l0,0c0.2,0.3,0.3,0.6,0.3,0.9c0,0.4-0.2,0.8-0.4,1.1
		c-0.1,0.1-0.2,0.2-0.3,0.3c-0.3,0.2-0.7,0.4-1.1,0.4c-1,0-1.8-0.8-1.8-1.8c0-1,0.8-1.8,1.8-1.8C121.7,89.9,122.1,90,122.4,90.3z"/>
	<polygon fill="#D5D7D8" points="121,104 121,106 123.1,106 123,105.5 123,104 	"/>
	<polygon fill="#D5D7D8" points="118.6,106.1 119.6,104.2 118.6,104.2 	"/>
	<polygon fill="#D5D7D8" points="122.4,110 122.5,109.5 122.4,109.5 	"/>
	<polygon fill="#D5D7D8" points="121,104 120.4,104 120.3,106 121,106 	"/>
	<polygon fill="#D5D7D8" points="120.3,107 120.2,109 120.2,109 121,108.7 121,107 	"/>
	<polygon fill="#D5D7D8" points="121,108.4 122,107.4 122,109 122.6,109 123,107 121,107 	"/>
	<polygon fill="#D5D7D8" points="124.4,111.1 126.1,106.9 126.8,111 126.9,111 127.2,108.9 124.3,101 	"/>
	<path fill="#718F40" d="M135,116.9v-7.3l-1.9,6.4c0,0-0.2,0-0.2,0l-0.5-3.2l-1,1.9l0.3-12.5l-1.8,11.7l-0.1-3l-1,1.8l-0.5-11l0-1.1
		l0,0l0,0l-0.1,0.9l-0.9,7.7l-0.3,2.4l0,0.2l0-0.2l-0.8-4.4l-1.6,3.9l-0.1-9.9l0-1.4l-0.2,0.9l-0.6,3.1l-0.3,1.7l-0.2,0.9l-0.1,0.4
		l-0.4,2.2l-0.3,0.4L122,110v-0.5V109v-1.6l-1.1,1l-0.3,0.3l-0.5,0.3l-0.1,0v0l0.2-2.2l0.1-0.4l0.1-2.2l0-0.4l0.1-1.5l-0.7,1.5
		l-0.2,0.4l-0.9,1.9l-0.4,0.8l-0.5,1.1l-0.7-3.7l-1.5,3.3l0-0.7l-0.1-6.5l-1.4,7.2l-0.8-2.6l-0.8,1.6l-0.3-4.8l-1.1,5.4l-1-6.1
		l-0.5,5.3l-1.2-2.2l-1.3,1.5V95.6l-1.7,9.5l-1.2-3.4l-0.7,1.6l-1.2-5.8l-0.4,5l-0.8,3.2c0,0,0,0,0,0l-1.1-6.2l-0.5,5.2l-1.1-4.8
		l-0.6,4.1l-2.6-2.6v2.6l-0.9-6.5l-1.3,6l-2.3-4.6l-0.4,3.7l-0.9-2.6l-0.4,2.7l0,0.3l-0.1-0.6l-0.2-2.1l-0.1,0.8l-0.5,1.8v-2.3
		l-1.4,2.2l-1.3-2l-1,2.4l-0.6-2.4l-1.1,1.8l-0.7-1.6l-1.2,1.8l-1.1-2.6l-0.4,2.4l-0.5-1.2l-1.4,1.6l-0.8-1.5l-0.5,1.2v-2.1v0
		l-0.4,0l-0.9,1.3l-0.7-1.3l-0.7-1.2l-0.3,1.2l-0.1,0.4l-0.1-0.4l-0.1-0.7l-0.3,0.7L72,101l-0.3-0.7l-0.3-0.7l-0.1,0.7l-0.1,0.4
		l-0.1-0.4l-0.3-1.2l-0.6,1.2l-0.6,1.3l-1.1-1.3l-0.4,0v0v2.1l-0.5-1.2l-1,1.5l-1.2-1.6l-0.5,1.2l-0.3-2l-0.1-0.4l-0.2,0.4l-0.9,2.2
		l-1.2-1.8l-0.7,1.6l-1.1-1.8l-0.5,2.4l-1-2.4l-1.4,2l-1.4-2.2v2.3l-0.8-2.6l-0.2,2.7l-0.4-3l-0.9,2.6l-0.4-3.7l-2.3,4.6l-0.7-3.3
		l-0.4-2.7L49,104v-2.6l-2.6,2.6l-0.5-4.1l-1.1,4.8l-0.6-5.2l-1.1,6.1c0,0,0,0,0,0l-0.8-3.2l-0.4-5l-1.2,5.8l-0.7-1.6l-1.3,3.4
		L37,95.6v10.3l-1.3-1.5l-1.2,2.2l-0.5-5.3l-0.9,6.1l-1.1-5.4l-0.3,4.8l-0.8-1.6l-0.8,2.6l-1.4-7.2l-0.1,7.2l-1.5-3.3l-0.7,3.7
		l-2.9-5.8L24,109l-2-1.6v2.6l-2.1-10.2l-0.2,11.3l-1.7-3.9l-0.8,4.6l-1.4-11.3l-0.5,12.1l-1-1.8l-0.1,3l-1.8-11.7l0.3,12.5l-1-1.9
		l-0.4,3.1c0,0-0.4,0-0.4,0L9,109.6v7.2c0,0.1,0,0.2,0,0.3V135h129v-16.2C136.5,118.1,135,117.5,135,116.9z M66.4,126.4
		c-9.8-4.6-11.8-9.7-11.8-9.7c1.6,6.3,11.4,10.1,11.4,10.1C52.9,127.5,50,112.5,50,112.5C68.2,115.6,66.4,126.4,66.4,126.4z
		 M67.9,126.6c0,0,14.5-3.9,17.7-12.5c0,0-3.6,6.9-18.1,11.9c0,0-0.8-15.5,25.3-17.2C92.8,108.7,86.4,129.5,67.9,126.6z"/>
	<path fill="#718F40" d="M92.8,108.7c-26.2,1.7-25.3,17.2-25.3,17.2c14.5-5,18.1-11.9,18.1-11.9c-3.2,8.6-17.7,12.5-17.7,12.5
		C86.4,129.5,92.8,108.7,92.8,108.7z"/>
	<path opacity="0.51" fill="#FFFFFF" d="M92.8,108.7c-26.2,1.7-25.3,17.2-25.3,17.2c14.5-5,18.1-11.9,18.1-11.9
		c-3.2,8.6-17.7,12.5-17.7,12.5C86.4,129.5,92.8,108.7,92.8,108.7z"/>
	<path fill="#718F40" d="M50,112.5c0,0,2.9,15,16.1,14.4c0,0-9.8-3.8-11.4-10.1c0,0,2,5.1,11.8,9.7C66.4,126.4,68.2,115.6,50,112.5z
		"/>
	<path opacity="0.51" fill="#FFFFFF" d="M50,112.5c0,0,2.9,15,16.1,14.4c0,0-9.8-3.8-11.4-10.1c0,0,2,5.1,11.8,9.7
		C66.4,126.4,68.2,115.6,50,112.5z"/>
</g>
</svg>
