<?xml version="1.0" encoding="utf-8"?>
<!-- Generator: Adobe Illustrator 18.1.0, SVG Export Plug-In . SVG Version: 6.00 Build 0)  -->
<svg version="1.1" id="Layer_1" xmlns="http://www.w3.org/2000/svg" xmlns:xlink="http://www.w3.org/1999/xlink" x="0px" y="0px"
	 viewBox="0 0 150 150" enable-background="new 0 0 150 150" xml:space="preserve">
<g>
	<path fill="#EEA91F" d="M65.5,29.3c4.1-0.6,8.3-0.8,12.3-0.7c2-1.9,4-4,6-6.1c-6-0.8-12.2-0.8-18.4,0.2
		c-36.2,5.6-61,39.4-55.5,75.7c0.9,5.9,2.6,11.6,4.9,16.8c0.3-0.1,0.6-0.2,0.9-0.3c0.2-0.2,0.4-0.4,0.7-0.6
		c-1.6-4.2-2.8-8.5-3.5-13.1C7.5,66.8,31.1,34.6,65.5,29.3z"/>
	<path fill="#EEA91F" d="M141,78.2c-3.1-19.9-14.7-36.3-30.6-46.2l-2.6,5.7c15.4,9.3,26.8,25.2,29.7,44.4
		c2.1,13.8-0.6,27.2-6.6,38.7l0,3.8C139.5,111.3,143.5,95.1,141,78.2z"/>
	<path fill="#FFFFFF" d="M81.8,102.2l-6.8,7.5L71.2,120h0.6h2.3c1-1,1.9-3.6,1.9-5.5c0-1.9,0-3.7,1-4.7L81.8,102.2z"/>
	<path fill="#FFFFFF" d="M76,103.1c1.9-3.9,4.8-5.8,7.7-7.7c0,0,1.9-3.9,2.9-4.8c-1,1-10.7,0-10.7,0c-1,0-1.9,1-1.9,1l-13.6,26.1
		l8.7,1.9l2.9-11.6C72.1,108,74.1,106,76,103.1z"/>
	<path fill="#0094D4" d="M93.4,78c-1.9,3.9-1,6,1,6.8c1.5,0.6,2,0.3,2.9,0c2.9-1,4.6-4.5,3.9-6.8c-0.3-0.9-1-1.9-1.9-2.9
		C97.3,74.1,95.4,75.1,93.4,78z"/>
	<path fill="#0094D4" d="M115.7,130.2c-1.9-1-4.8-1.9-6.8-2.9c-1.9-1-4.8-1-8.7,0c-5.8,1.9-13.7-2.5-14.5-2.9
		c-1.5-0.8-8.7-2.9-8.7-2.9c0-1.9,1-2.9,1.9-4.8c0-1.9,1-3.9,1-4.8c2.9-3.9,4.8-5.8,6.8-7.7c1-1,6.8-10.6,7.7-11.6
		c2.9-2.9,2.7-3.6,0.8-6c-1.6-2-2.7-1.8-2.7-1.8c-1,0-14.5,2.9-15.5,2.9c0-0.6-0.4-0.8-0.6-0.7l32.2-69l0.4-1c0,0,0,0-1,0l-0.3,0.6
		l-49.1,100l-5.8-1.9c-2.9-1-6.8-1.9-7.7-1c-1,1-1,1.9,1,3.9c1,1,1.9,1.9,2.9,1.9c-1,0-2.9-1-4.9-1.9c-2.9-1.9-3.9-1.9-5.8-1.9
		c-5.8,0-11.6,2.9-17.4,8.7c-1,1-0.9,1-1.9,2.9c0,1,0,1.9,0,1.9c3-2.9,6.7-5.8,9.6-7.7c2.9-1.9,5.8-2.9,9.7-2.9c1.9,0,3.9,1,6.8,2.9
		c2.9,1.9,4.8,3.9,7.7,3.9c2.9,0,5.8-0.1,8.7-1c2.5-0.7,17.4,1.9,21.3,3.9c2.9,1.9,5.7,2.5,7.7,2.9c3.8,0.9,7.7-1,10.7-1.9
		c2.9-1,7.7-1,12.6,1.9c1.9,1,3.9,1,6.8,0c1.9-1,2.9-2.9,2.9-5.8C121.5,129.2,118.6,131.2,115.7,130.2z M60.5,117.6l13.6-26.1
		c0,0,1-1,1.9-1c0,0,9.7,1,10.7,0c-1,1-2.9,4.8-2.9,4.8c-2.9,1.9-5.8,3.9-7.7,7.7c-1.9,2.9-3.9,4.8-3.9,4.8l-2.9,11.6L60.5,117.6z
		 M74.1,120h-2.3h-0.6l3.9-10.4l6.8-7.6l-4.8,7.8c-1,1-1,2.7-1,4.6C76,116.4,75,119,74.1,120z"/>
	<path fill="#007CB1" d="M49.9,73.1c-1.9,5.8-1.9,12.6,0,19.3c1.9,6.8,3.9,12.6,6.8,19.4L104.1,17c-9.7,11.6-18.4,20.3-26.1,27.1
		C69.2,51.8,60.5,61.5,49.9,73.1z"/>
</g>
</svg>
