<?xml version="1.0" encoding="utf-8"?>
<!-- Generator: Adobe Illustrator 18.1.0, SVG Export Plug-In . SVG Version: 6.00 Build 0)  -->
<svg version="1.1" id="Layer_1" xmlns="http://www.w3.org/2000/svg" xmlns:xlink="http://www.w3.org/1999/xlink" x="0px" y="0px"
	 viewBox="0 0 150 150" enable-background="new 0 0 150 150" xml:space="preserve">
<g>
	<g>
		<path fill="#87D4F2" d="M74.3,122.9C66.1,106.4,50.7,92,36.4,87.6c6.9,17.4,19.1,33.5,38.5,42.5c19.6-9,31.8-25.2,38.5-42.8
			C99.4,91.3,85.8,106.2,74.3,122.9z"/>
		<path fill="#87D4F2" d="M118.3,31.9c-14.2-7.2-28-10.5-43.4-10.5c-16.1,0-30.5,3.3-44,10.1c-1.2,5.2-1.8,11.2-1.8,17.6
			c0,6.1,0.6,12.6,1.8,19.3c0.1,0,0.2,0.1,0.4,0.1c0.5,0.2,1,0.4,1.6,0.6c1.4-0.9,2.9-1.4,4.4-1.6c1.7-0.2,3.5,0,5.2,0.7
			c1,0.4,2,0.9,2.9,1.6c2.4,1.6,4.7,4,6.8,7.1c2.6,3.7,8.4,6.1,13.9,7.3l1,0.8c1.9-9.1,7.8-18,24.9-10.8
			c-8.6,2.2-10.4,5.8-10.4,12.3l3.2-2.6c0,0,9.4-3.7,11.7-6.9c2.2-3.1,4.5-5.5,6.8-7.1c1-0.7,1.9-1.2,2.9-1.6
			c1.7-0.7,3.5-0.9,5.2-0.7c1.6,0.2,3.1,0.8,4.6,1.7c0.6-0.3,1.2-0.5,1.9-0.7c0.2-0.1,0.5-0.1,0.7-0.2c1.1-6.2,1.6-12.4,1.6-18.2
			C120.2,43.4,119.6,37.2,118.3,31.9z M45.8,50.3l0.8,4.8l-4.3-2.3L38,55.1l0.8-4.8l-3.5-3.4l4.8-0.7l2.2-4.4l2.2,4.4l4.8,0.7
			L45.8,50.3z M66.5,38.8l-0.3,4.9l-3.7-3.2l-4.7,1.2l1.9-4.5L57.1,33l4.9,0.5l3.1-3.8l1.1,4.8l4.5,1.8L66.5,38.8z M94.9,41.8
			l-4.7-1.3l-3.7,3.2l-0.2-4.9L82,36.2l4.6-1.7l1.2-4.8l3.1,3.8l4.9-0.4L93,37.3L94.9,41.8z M110.8,50.8l0.1,4.9l-3.9-2.9l-4.6,1.6
			l1.6-4.6l-2.9-3.9l4.9,0.1l2.8-4l1.5,4.7l4.7,1.5L110.8,50.8z"/>
		<path fill="#87D4F2" d="M39,74c2.2,1.9,4.4,3.8,6.6,5.7c0,0-0.1-0.1-0.1-0.2C43.3,77.4,41.2,75.5,39,74z"/>
	</g>
	<g>
		<path fill="#344559" d="M24,67.7c1.1-0.2,2.3-0.2,3.6-0.1c1.1,0.1,2.2,0.4,3.4,0.7c-1.2-6.7-1.8-13.2-1.8-19.3
			c0-6.4,0.6-12.4,1.8-17.6c13.5-6.8,28-10.1,44-10.1c15.4,0,29.3,3.4,43.4,10.5c1.2,5.3,1.9,11.5,1.9,18.1c0,5.9-0.5,12-1.6,18.2
			c1-0.3,2.1-0.5,3-0.6c0.9-0.1,1.7-0.1,2.5,0c1.3,0.1,2.5,0.4,3.7,0.9c2.8-16.8,1.4-31.8-1.4-41.6l-0.4-1.3L125,25
			c-16.3-8.8-32-12.9-49.2-12.9l-0.8,0l-1,0c-17.8,0-34.1,4.1-49.8,12.4L23,25.2l-0.4,1.3c-2.8,9.9-4,25-1.1,42
			C22.3,68.1,23.1,67.9,24,67.7z"/>
		<path fill="#344559" d="M143.1,88.4c-0.2-0.4-0.4-0.9-0.6-1.3c-1.6-2.8-3.8-4.9-6.7-6.2c-2.5-1.2-5.5-1.8-8.8-1.8
			c-0.4,0-0.9,0-1.3,0c-1.3,0.1-2.6,0.2-4,0.4c-1,0.2-2,0.4-3.1,0.6c-0.9,0.2-1.9,0.5-2.9,0.8c-1.4,0.5-2.8,1-4.3,1.6
			c-2.5,1.1-5.1,2.3-7.7,3.8c1.9-1.3,3.9-2.4,5.9-3.4c2.2-1.1,4.3-2,6.3-2.8c0.3-0.1,0.6-0.2,0.9-0.3c1.9-0.7,3.6-1.1,5.1-1.4
			c1.2-0.2,2.4-0.4,3.6-0.5c0.2,0,0.3,0,0.4,0c2.5-0.2,4.9,0,7,0.5c-0.5-1-1.1-1.9-1.7-2.7c-0.3-0.4-0.7-0.8-1.1-1.2
			c-0.6-0.6-1.2-1.2-1.9-1.6c-0.4-0.3-0.7-0.5-1.1-0.7c-1.1-0.6-2.3-1.1-3.6-1.3c-1.1-0.2-2.3-0.2-3.5-0.1c-0.7,0.1-1.3,0.2-2,0.3
			c-0.5,0.1-1.1,0.3-1.6,0.4c-1.6,0.5-3.3,1.3-5,2.3c-2.4,1.4-4.8,3.2-7.3,5.5c-3.7,3.4-7.4,7.7-10.8,12.7c3.1-4.8,6.4-9,9.7-12.5
			c2.4-2.5,4.9-4.6,7.3-6.2c2.4-1.6,4.7-2.7,7-3.4c-0.5-0.4-0.9-0.7-1.4-1c-1.5-0.9-3-1.5-4.6-1.7c-1.7-0.2-3.5,0-5.2,0.7
			c-1,0.4-2,0.9-2.9,1.6c-2.4,1.6-4.7,4-6.8,7.1c-2.2,3.2-11.7,6.9-11.7,6.9l-3.2,2.6c0-6.5,1.8-10.1,10.4-12.3
			c-17.1-7.3-23,1.7-24.9,10.8l-1-0.8c-5.6-1.2-11.4-3.6-13.9-7.3c-2.2-3.1-4.5-5.5-6.8-7.1c-1-0.7-1.9-1.2-2.9-1.6
			c-1.8-0.7-3.5-0.9-5.2-0.7c-1.5,0.2-3,0.7-4.4,1.6c-0.5,0.3-1.1,0.7-1.6,1.1c0,0,0,0-0.1,0c0,0,0,0,0.1,0c2.2,0.7,4.6,1.8,6.9,3.3
			c0.3,0.2,0.6,0.4,0.8,0.6c2.1,1.5,4.3,3.4,6.5,5.6c0,0,0.1,0.1,0.1,0.2c3.3,3.4,6.6,7.6,9.6,12.3c-3.4-5-7.1-9.3-10.8-12.7
			c-2.5-2.2-4.9-4.1-7.3-5.5c-1.7-1-3.3-1.7-5-2.3c-0.2-0.1-0.4-0.1-0.7-0.2c-1-0.3-2-0.5-2.9-0.6c-1.4-0.1-2.7,0-4,0.2
			c-0.8,0.2-1.6,0.5-2.4,0.8c-0.6,0.3-1.2,0.6-1.8,1.1c-0.7,0.5-1.3,1-1.9,1.7c-0.4,0.4-0.8,0.8-1.1,1.3c-0.6,0.8-1.2,1.6-1.7,2.6
			c2.3-0.6,4.8-0.7,7.5-0.5c0.1,0,0.3,0,0.4,0c0.9,0.1,1.8,0.2,2.7,0.4c1.7,0.3,3.5,0.8,5.6,1.5c0.7,0.2,1.3,0.5,2,0.7
			c1.7,0.7,3.4,1.4,5.2,2.4c2,1,3.9,2.1,5.9,3.4c-2.5-1.5-5.1-2.8-7.7-3.8c-1.1-0.5-2.1-0.9-3.2-1.2c-1.4-0.5-2.7-0.9-4-1.2
			c-1.2-0.3-2.4-0.5-3.6-0.7c-0.9-0.1-1.8-0.3-2.7-0.3c-0.7-0.1-1.4-0.1-2.1-0.1c-3.3,0-6.3,0.6-8.8,1.8c-2.9,1.4-5.1,3.4-6.7,6.2
			c-0.3,0.5-0.6,1.1-0.8,1.7c-0.7,1.7-1.2,3.7-1.5,5.8c1.9-1.7,4.1-3.2,6.6-4.4c2.6-1.3,5.5-2.2,8.5-2.9c2.2-0.5,4.6-0.8,7-1
			c6.1,17.8,19.3,41.3,47.6,53.2l1.2,0.5l1.2-0.5c28.3-11.9,41.4-35.4,47.3-53.1c2.1,0.2,4.2,0.5,6.2,0.9c3.1,0.7,6,1.7,8.5,2.9
			c2.5,1.2,4.7,2.7,6.6,4.4C144.5,92.3,143.9,90.3,143.1,88.4z M74.9,130.1c-19.3-8.9-31.5-25.1-38.5-42.5
			c14.3,4.4,29.6,18.8,37.9,35.3c11.5-16.7,25.1-31.6,39.1-35.6C106.7,104.9,94.5,121,74.9,130.1z"/>
		<polygon fill="#344559" points="44.5,46.2 42.3,41.8 40.1,46.2 35.3,46.9 38.8,50.3 38,55.1 42.3,52.9 46.6,55.1 45.8,50.3 
			49.3,46.9 		"/>
		<polygon fill="#344559" points="62.5,40.5 66.2,43.7 66.5,38.8 70.7,36.3 66.2,34.5 65.1,29.7 61.9,33.5 57.1,33 59.7,37.2 
			57.7,41.7 		"/>
		<polygon fill="#344559" points="90.8,33.5 87.8,29.7 86.6,34.4 82,36.2 86.2,38.8 86.4,43.6 90.1,40.5 94.9,41.8 93,37.3 
			95.7,33.2 		"/>
		<polygon fill="#344559" points="110.1,46.6 108.6,41.9 105.8,45.9 100.9,45.8 103.8,49.7 102.3,54.4 106.9,52.8 110.8,55.7 
			110.8,50.8 114.8,48 		"/>
	</g>
</g>
</svg>
