<?xml version="1.0" encoding="utf-8"?>
<!-- Generator: Adobe Illustrator 16.0.0, SVG Export Plug-In . SVG Version: 6.00 Build 0)  -->
<!DOCTYPE svg PUBLIC "-//W3C//DTD SVG 1.1//EN" "http://www.w3.org/Graphics/SVG/1.1/DTD/svg11.dtd">
<svg version="1.1" id="Layer_1" xmlns="http://www.w3.org/2000/svg" xmlns:xlink="http://www.w3.org/1999/xlink" x="0px" y="0px"
	 width="100px" height="100px" viewBox="0 0 100 100" enable-background="new 0 0 100 100" xml:space="preserve">
<g>
	<path fill="#26A9E0" d="M44.41,10.389c1.652,3.047,1.586,10.78-2.001,11.667c-1.128-3.37-4.06-7.934-2.332-12
		C41.55,9.619,43.296,9.626,44.41,10.389z"/>
	<path fill="#26A9E0" d="M65.068,13.055c7.039,1.725-0.494,9.643-4.332,9.334C61.113,19.46,62.842,15.215,65.068,13.055z"/>
	<path fill="#26A9E0" d="M26.413,29.72c-2.032,2.034-4.071-0.369-6-1.997c-1.628-1.383-4.725-3.634-4.663-5.333
		c0.073-1.952,3.443-4.108,5.664-2.667C24.029,21.417,24.178,28.03,26.413,29.72z"/>
	<path fill="#262261" d="M46.077,23.72c10.582-1.27,17.894,2.873,23.325,8.666c3.504,3.734,7.666,10.714,7.666,18.659
		c0,17.789-15.533,29.749-31.991,27.327C31.001,76.301,21.018,63.889,21.75,49.378C22.427,35.912,32.618,25.339,46.077,23.72z
		 M51.74,28.383c-1.921,0.3-3.799,0.642-4.999,1.671c2.473-0.031,4.933-0.047,6.665,0.661c-2.082,0.254-4.078,0.587-5.664,1.336
		c2.351,0.649,5.734,0.264,7.996,0.998c-2.204,0.46-4.211,1.123-5.995,2.004c2.35,0.642,5.786,0.207,7.995,0.996
		c-2.209,0.46-4.209,1.123-5.998,2.003c2.402,0.819,6.271,0.167,8.33,1.331c-2.152,0.404-4.37,0.744-5.663,1.997
		c2.774,0.007,5.702-0.146,7.665,0.667c-2.331,0.557-4.674,1.109-6.334,2.333c2.652,0.236,5.568,0.206,7.664,1.001
		c-1.887,0.663-4.125,0.986-5.332,2.332c2.289,0.158,4.531,0.354,6.334,1.002c-1.567,0.987-4.319,0.784-5.334,2.328
		c2.266,0.288,4.673,0.443,6.334,1.335c-2.194,0.358-4.471,0.642-6,1.671c2.008,0.436,4.271,0.608,6,1.331
		c-2.369,0.4-4.946,0.604-6.664,1.661c2.086,0.359,4.503,0.387,5.998,1.336c-2.453,0.326-4.969,0.581-6.668,1.666
		c1.68,0.548,4.104,0.34,5.003,1.662c-2.275,0.281-4.938,0.179-6.335,1.34c1.681,0.202,3.371,0.406,4.664,1.001
		c-2.178,0.595-5.192,0.358-6.666,1.661c1.432,0.236,2.795,0.542,3.668,1.332c-1.911,0.084-3.945,0.056-4.998,0.999
		c1.203,0.133,2.224,0.442,3.002,1.002c-1.52,0.373-3.912-0.133-4.668,1.001c0.892,0.221,2.08,0.141,2.667,0.664
		c-1.326,0.23-2.384,0.723-3.998,0.666c-0.303,1.406,1.882,0.34,1.666,1.666c-1.793,0.099-3.101,0.68-4.333,1.336
		c15.146,0.038,25.417-9.553,25.328-23.661C72.984,37.12,62.63,27.303,48.408,27.723C49.574,27.888,50.924,27.869,51.74,28.383z
		 M37.413,30.715c0.956,0.715,3.386-0.055,3.995,1.003c-2.69,0.531-6.074,0.363-7.663,1.999c2.731,0.156,5.374,0.404,7.663,1.001
		c-3.733,0.486-7.504,0.938-10.663,1.999c2.518,0.482,5.744,0.258,8.001,1c-3.481,0.518-6.911,1.088-9.667,2.334
		c2.143,0.409,4.845,0.262,6.665,0.996c-2.948,0.495-6.297,0.592-8.329,2.004c2.006,0.434,4.271,0.611,5.996,1.33
		c-1.848,1.041-5.083,0.692-6.332,2.333c1.888,0.11,3.581,0.42,4.999,1c-1.543,1.013-4.281,0.833-5.666,1.999
		c2.011,0.434,4.626,0.264,6.001,1.332c-2.082,0.477-4.142,0.977-5.667,2.005c1.926,0.293,4.345,0.095,6,0.661
		c-1.746,1.143-4.545,1.236-6,2.663c2.299,0.036,4.89-0.219,6.333,0.669c-1.853,0.596-3.894,0.996-4.999,2.333
		c1.671,0.216,4.213-0.435,5.331,0.333c-1.861,0.468-3.693,0.979-5,1.998c1.955,0.491,4.567,0.325,6.332,1
		c-1.196,1.023-3.412,1.027-4.33,2.331c1.833,0.06,3.622,0.162,4.998,0.671c-0.531,1.02-2.608,0.5-2.998,1.667
		c1.584,0.192,3.071,0.476,4.999,0.334c-0.149,0.958-1.436,0.789-1.668,1.667c7.566-4.579,18.053-9.029,17.992-19.329
		c-0.047-8.602-7.958-11.446-8.326-20.328c0.321-0.683,0.68-1.32,0.997-1.997C42.668,27.98,39.86,29.169,37.413,30.715z"/>
	<path fill="#26A9E0" d="M74.736,33.049c-1.063-4.477,9.543-10.816,9.66-5.327C84.475,31.232,77.922,32.983,74.736,33.049z"/>
	<path fill="#F6921E" d="M48.408,27.723c14.222-0.42,24.576,9.397,24.662,22.991c0.089,14.108-10.182,23.699-25.328,23.661
		c1.231-0.656,2.539-1.236,4.333-1.336c0.217-1.326-1.968-0.26-1.666-1.666c1.614,0.057,2.671-0.436,3.998-0.666
		c-0.587-0.523-1.775-0.443-2.667-0.664c0.756-1.134,3.148-0.628,4.668-1.001c-0.778-0.56-1.799-0.869-3.002-1.002
		c1.053-0.942,3.087-0.915,4.998-0.999c-0.873-0.79-2.236-1.096-3.668-1.332c1.474-1.303,4.488-1.066,6.666-1.661
		c-1.293-0.595-2.983-0.799-4.664-1.001c1.396-1.161,4.06-1.058,6.335-1.34c-0.897-1.322-3.323-1.114-5.003-1.662
		c1.699-1.085,4.215-1.34,6.668-1.666c-1.495-0.949-3.912-0.977-5.998-1.336c1.718-1.057,4.295-1.261,6.664-1.661
		c-1.729-0.723-3.992-0.896-6-1.331c1.529-1.029,3.806-1.312,6-1.671c-1.661-0.892-4.068-1.047-6.334-1.335
		c1.015-1.544,3.767-1.341,5.334-2.328c-1.803-0.648-4.045-0.845-6.334-1.002c1.207-1.346,3.445-1.669,5.332-2.332
		c-2.096-0.795-5.012-0.765-7.664-1.001c1.66-1.224,4.003-1.777,6.334-2.333c-1.963-0.814-4.891-0.661-7.665-0.667
		c1.293-1.253,3.511-1.593,5.663-1.997c-2.059-1.164-5.928-0.512-8.33-1.331c1.789-0.88,3.789-1.543,5.998-2.003
		c-2.209-0.789-5.646-0.354-7.995-0.996c1.784-0.881,3.791-1.544,5.995-2.004c-2.262-0.734-5.646-0.349-7.996-0.998
		c1.585-0.749,3.582-1.082,5.664-1.336c-1.731-0.708-4.191-0.692-6.665-0.661c1.199-1.029,3.077-1.371,4.999-1.671
		C50.924,27.869,49.574,27.888,48.408,27.723z"/>
	<path fill="#26A9E0" d="M46.407,27.723c-0.317,0.677-0.675,1.314-0.997,1.997c0.369,8.882,8.279,11.726,8.326,20.328
		c0.062,10.3-10.426,14.75-17.992,19.329c0.233-0.878,1.519-0.709,1.668-1.667c-1.928,0.142-3.415-0.142-4.999-0.334
		c0.39-1.167,2.466-0.647,2.998-1.667c-1.376-0.509-3.165-0.611-4.998-0.671c0.918-1.304,3.134-1.308,4.33-2.331
		c-1.765-0.675-4.377-0.509-6.332-1c1.308-1.02,3.139-1.53,5-1.998c-1.118-0.768-3.66-0.117-5.331-0.333
		c1.105-1.337,3.146-1.737,4.999-2.333c-1.442-0.888-4.034-0.633-6.333-0.669c1.454-1.427,4.253-1.521,6-2.663
		c-1.654-0.566-4.073-0.368-6-0.661c1.525-1.028,3.585-1.528,5.667-2.005c-1.375-1.068-3.99-0.898-6.001-1.332
		c1.385-1.166,4.123-0.986,5.666-1.999c-1.418-0.581-3.11-0.89-4.999-1c1.249-1.641,4.484-1.292,6.332-2.333
		c-1.725-0.719-3.99-0.896-5.996-1.33c2.032-1.412,5.381-1.509,8.329-2.004c-1.819-0.734-4.522-0.587-6.665-0.996
		c2.756-1.247,6.185-1.817,9.667-2.334c-2.257-0.743-5.483-0.519-8.001-1c3.158-1.062,6.929-1.512,10.663-1.999
		c-2.289-0.597-4.932-0.845-7.663-1.001c1.589-1.635,4.973-1.468,7.663-1.999c-0.609-1.058-3.04-0.288-3.995-1.003
		C39.86,29.169,42.668,27.98,46.407,27.723z"/>
	<path fill="#26A9E0" d="M19.083,46.05c-0.944,4.432-9.964,3.356-12.328,0.996C5.508,37.434,15.418,43.834,19.083,46.05z"/>
	<path fill="#26A9E0" d="M80.396,53.711c-0.602-4.749,10.479-4.139,11.996-1.331c0.974,1.784-0.121,5.155-2,5.664
		C86.589,59.082,84.044,53.928,80.396,53.711z"/>
	<path fill="#26A9E0" d="M22.083,64.374c-1.164,1.533-4.489,7.442-7.665,6.999c-1.178-0.164-2.342-1.756-2.33-2.662
		C12.106,66.109,19.779,62,22.083,64.374z"/>
	<path fill="#26A9E0" d="M84.068,80.37c-4.451,8.905-8.826-2.871-10.668-7.331c0.396-0.496,1.265-0.52,1.666-1
		C78.432,74.45,81.977,76.684,84.068,80.37z"/>
	<path fill="#26A9E0" d="M34.078,77.373c-0.875,4.12-2.114,7.876-4.664,10.331c-1.854-0.254-3.513-0.708-4.666-1.667
		c1.314-3.902,4.519-5.919,6.332-9.33C32.601,76.409,32.969,77.258,34.078,77.373z"/>
	<path fill="#26A9E0" d="M54.077,80.37c2.028,2.688,3.747,7.292,2.991,11.667c-1.18,0.48-3.482,0.48-4.662,0
		C50.754,88.913,51.057,81.838,54.077,80.37z"/>
</g>
</svg>
