<?xml version="1.0" encoding="utf-8"?>
<!-- Generator: Adobe Illustrator 14.0.0, SVG Export Plug-In . SVG Version: 6.00 Build 43363)  -->
<!DOCTYPE svg PUBLIC "-//W3C//DTD SVG 1.1//EN" "http://www.w3.org/Graphics/SVG/1.1/DTD/svg11.dtd">
<svg xmlns="http://www.w3.org/2000/svg" xmlns:xlink="http://www.w3.org/1999/xlink" version="1.1" id="Layer_1" x="0px" y="0px" width="100px" height="100px" viewBox="0 0 100 100" enable-background="new 0 0 100 100" xml:space="preserve">









<g>
	<g>
		<path fill="#FFFFFF" d="M89.861,47.874c0,20.751-14.906,37.58-33.293,37.58c-18.383,0-33.287-16.828-33.287-37.58    c0-20.756,14.904-37.581,33.287-37.581C74.955,10.293,89.861,27.117,89.861,47.874z"/>
		<g>
			<path fill="#FFFFFF" d="M89.861,47.874c0,20.751-14.906,37.58-33.293,37.58c-18.383,0-33.287-16.828-33.287-37.58     c0-20.756,14.904-37.581,33.287-37.581C74.955,10.293,89.861,27.117,89.861,47.874z"/>
			<g>
				<path fill="#FFFFFF" d="M23.028,59.402c-0.498-0.977-1.125-3.265-0.665-3.287c-0.444,0.022-0.504,0.038-1.03-1.512      c0.308-0.008,0.031-1.426-0.116-2.332c-0.098,0.766-0.036,1.814,0.228,3.893c0.968,1.746,1.093,5.811,2.451,7.289      C23.594,62.182,23.679,60.857,23.028,59.402z"/>
				<path fill="#FFFFFF" d="M23.621,50.956l-0.192-0.257c0.096,1.042,0.39,2.063,0.606,3.085      C23.797,53.182,23.355,51.074,23.621,50.956z"/>
				<path fill="#FFFFFF" d="M23.601,40.826c0.261,0.321,0.725-1.223,1.048-1.131c-0.633-0.049,0.344-2.478,0.725-3.79l-0.321-0.656      c-0.821,1.168-1.521,4.548-1.862,7.405L23.601,40.826z"/>
				<path fill="#FFFFFF" d="M24.5,38.361l-0.12-0.955C24.294,38.167,23.956,39.882,24.5,38.361z"/>
				<path fill="#FFFFFF" d="M22.287,39.962c-0.361,2.282,0.41-1.347,0.196,0.972C22.479,40.147,22.671,39.262,22.287,39.962z"/>
				<path fill="#FFFFFF" d="M26.119,31.018c-0.616,1.508-1.062,3.062-1.448,4.624l0.828-1.833      C25.606,32.858,25.916,31.962,26.119,31.018z"/>
				<path fill="#FFFFFF" d="M27.228,31.17c-0.241,0.564-0.798,1.405-0.618,0.524c1.003-1.445,1.013-2.594,2.087-3.856l-0.566,1.41      c0.478,0.002,1.102-3.002,1.789-2.549c0.687-1.979-1.432,1.017-0.254-1.425c-1.33,2.195-2.32,3.816-3.312,5.728      c0.408-0.506,0.431-0.774,0.957-1.497c-0.598,1.394-1.296,3.316-1.731,5.014C26.297,33.748,26.382,32.421,27.228,31.17z"/>
				<path fill="#FFFFFF" d="M31.077,24.601c1.011-1.282,2.581-3.234,2.509-3.865c-1.525,1.03-1.26,1.626-1.583,2.342      c-0.408,0.326-1.427,1.622-1.276,0.928C30.961,23.87,30.491,25.107,31.077,24.601z"/>
				<path fill="#FFFFFF" d="M35.335,19.806c0.151-0.399,0.308-0.801,0.504-1.167l-0.513,0.582l-0.323-0.174      c-0.029,0.163,0.042,1.006-1.131,2.152C34.68,20.758,34.635,20.343,35.335,19.806z"/>
				<path fill="#FFFFFF" d="M33.814,17.874c1.042-0.651,1.499-1.164,2.449-2.164c-1.495,1.213-3.435,3.096-3.636,3.66l0.038-0.161      c0,0-1.071,1.425-1.51,2.617C31.976,20.076,34.912,18.104,33.814,17.874z"/>
				<path fill="#FFFFFF" d="M32.088,19.587l0.749-1.18L32.088,19.587z"/>
				<path fill="#FFFFFF" d="M39.171,16.458c-0.754,0.415-1.438,0.919-2.11,1.436l0.573-0.29      C38.11,17.174,38.636,16.812,39.171,16.458z"/>
				<path fill="#FFFFFF" d="M35.757,17.272c1.675-1.32-1.162,0.475,0.386-0.814c0.384-0.386-2.286,1.9-2.141,2.23      C34.39,18.354,35.297,17.12,35.757,17.272z"/>
				<path fill="#FFFFFF" d="M40.568,15.552c0.481-0.529,1.079-0.896,1.621-1.358C41.647,14.656,41.049,15.023,40.568,15.552z"/>
				<path fill="#FFFFFF" d="M45.33,13.34l0.274-0.388c1.94-0.627,4.563-1.66,6.156-1.32c-0.414-0.25,0.732-0.785-1.102-0.567      c-0.241,0.212-0.887,0.317-0.727,0.5c-0.758,0.156-0.674-0.103-1.195-0.042c-1.231,0.569-3.236,1.12-4.104,1.791      c0.464-0.25,0.607-0.246,0.973-0.361c-1.882,1.209-2.729,0.535-3.225,1.628C42.958,13.984,44.4,13.784,45.33,13.34z"/>
				<path fill="#FFFFFF" d="M44.391,11.838c-0.589,0.226-1.223,0.393-1.78,0.694c0.33-0.627,2.139-0.939,2.279-1.36      c-0.189-0.145-2.029,0.52-1.432,0.12c0.116,0.743-2.34,1.218-1.017,1.526c-2.077,1.282-0.969-0.121-3.15,1.289l-0.339,0.756      C41.212,13.124,41.873,13.199,44.391,11.838z"/>
				<path fill="#FFFFFF" d="M51.5,9.889l0.951,0.098l-0.557-0.279c4.328-0.643,6.754,1.077,9.154,1.229      c3.221-0.098,5.73,1.666,8.541,2.839c1.514,0.395-1.211-0.825-1.309-0.995c0.703-0.397,1.238,0.843,2.096,0.765      c0.465-0.375-2.713-1.833-3.949-2.522c-1.199-0.283-1.23-0.141-1.668,0.002c-0.211-0.317-1.369-0.783-1.629-1.037      c-2.578-0.154-3.846-0.93-6.42-0.643c-0.789-0.39,1.91,0.036,1.066-0.062c-0.463-0.013-0.928-0.067-1.387-0.049l0.15,0.049      c-1.881,0.339-5.312,0.431-6.579,0.518c0.975-0.049,1.672,0.12,0.604,0.415l-0.999-0.234l-2.121,1.225      C49.059,10.25,51.291,10.636,51.5,9.889z"/>
				<path fill="#FFFFFF" d="M48.691,9.731c-2.868,0.613,0.514,0.459-2.58,1.191c1.048-0.348,2.118-0.649,3.183-0.977L48.691,9.731z"/>
				<path fill="#FFFFFF" d="M62.418,10.304c0.432,0.181,0.879,0.301,1.293,0.542C63.123,10.092,60.771,10.507,62.418,10.304z"/>
				<polygon fill="#FFFFFF" points="67.365,11.698 66.49,11.899 67.797,12.122     "/>
				<path fill="#FFFFFF" d="M71.236,14.203c1.041,0.263,0.092-0.506-0.994-1.021C71.178,13.712,71.543,14.171,71.236,14.203z"/>
				<path fill="#FFFFFF" d="M76.531,19.212c-1.664-1.412,1.369,1.352-0.162,0.66C76.734,19.899,77.768,20.455,76.531,19.212z"/>
				<path fill="#FFFFFF" d="M80.182,25.099c-0.562-0.526-0.674-0.821-0.631-0.977C79.887,24.557,80.141,24.918,80.182,25.099z"/>
				<path fill="#FFFFFF" d="M58.076,11.02l-0.789-0.06L58.076,11.02z"/>
				<path fill="#FFFFFF" d="M58.6,11.058l-0.523-0.038L58.6,11.058z"/>
				<polygon fill="#FFFFFF" points="73.342,17.622 73.334,17.618 73.227,17.484     "/>
				<path fill="#FFFFFF" d="M23.875,44.68c0.014,0.417,0.005,0.743-0.009,0.999l0.004-0.988L23.875,44.68z"/>
				<path fill="#FFFFFF" d="M23.059,45.806c-0.29-1.825,0.91-1.856,1.055-4.724c-0.051,1.164-0.243,2.364-0.243,3.609      C23.25,46.304,23.639,43.386,23.059,45.806z"/>
				<path fill="#FFFFFF" d="M30.66,22.746l0.051-0.089C30.81,22.502,30.765,22.585,30.66,22.746z"/>
				<polygon fill="#FFFFFF" points="77.754,76.5 77.658,76.385 78.941,75.342     "/>
				<path fill="#FFFFFF" d="M77.402,76.479L75.1,78.066c4.229-3.428,7.557-7.781,9.867-12.553l-0.057,0.541      c0.174-0.055-1.322,2.93-3.311,5.596C79.592,74.311,77.111,76.543,77.402,76.479z"/>
				<path fill="#FFFFFF" d="M76.969,77.154c-0.816,1.477-2.156,1.592-3.561,3c0.938-0.973,1.496-1.717,2.535-2.449L76.969,77.154z"/>
				<path fill="#FFFFFF" d="M73.23,81.432c-0.838,0.398-1.707,1.1-2.213,1.293C71.057,82.162,72.529,81.824,73.23,81.432z"/>
				<path fill="#FFFFFF" d="M71.957,84.145l-0.398,0.219c0.146-0.104,0.275-0.211,0.365-0.293L71.957,84.145z"/>
				<path fill="#FFFFFF" d="M71.924,84.07l-0.082-0.191C72.16,83.797,72.119,83.895,71.924,84.07z"/>
				<path fill="#FFFFFF" d="M71.559,84.363c-0.328,0.248-0.705,0.559-0.914,0.713l0.404-0.154c-0.5,0.305-1.4,0.836-1.703,0.846      c1.084-0.416,1.039-0.551,0.934-0.818l-1.732,0.678C68.564,84.84,70.076,85.125,71.559,84.363z"/>
				<path fill="#FFFFFF" d="M66.146,86.717c0.574-0.32,1.17-0.57,1.693-0.959C68.492,85.932,66.865,86.559,66.146,86.717z"/>
				<path fill="#FFFFFF" d="M63.266,87.018c0.436-0.125,2.213-0.662,1.088-0.506c0.268-0.154,0.617-0.24,0.98-0.342      C64.156,86.576,65.441,86.777,63.266,87.018z"/>
				<path fill="#FFFFFF" d="M65.334,86.17c0.145-0.049,0.295-0.105,0.512-0.166L65.334,86.17z"/>
				<path fill="#FFFFFF" d="M80.121,74.891c-0.189,0.115-0.219,0.076-0.197-0.018L80.121,74.891z"/>
				<polygon fill="#FFFFFF" points="59.412,87.17 58.703,87.207 59.271,87.154     "/>
				<path fill="#FFFFFF" d="M88.037,47.874c-0.201,2.092-0.398,4.033-0.609,7.05c0.551,0.014-0.105,1.209,0.391,1.481      c0.236-1.573-0.09,1.414-1.018,4.362c-0.82,2.977-2.178,5.898-1.48,4.791l0.086-0.799l0.176,0.939      c-0.883,1.332-2.203,3.031-2.588,4.025c-0.145,0.098,1.707-2.693,2.941-5.729c1.326-2.994,2.07-6.154,1.922-5.92      c0.459-0.52-0.4,3.943-2.479,8.277c-1.986,4.375-5.363,8.275-5.455,8.52L79.52,74.83c-1.414,2.031-2.342,3.391-3.861,4.92      l-0.656-0.012c1.355-0.824,1.453-1.359,2.557-2.475c-2.02,1.848-2.574,1.969-4.279,3.186c0.357,0.355,1.656-0.84-0.393,0.896      c-0.783,0.221,0.447-1.084-1.564,0.141c-2.566,1.273-1.758,1.557-4.105,2.609l1.682-0.494c-0.857,0.391-2.471,1.18-3.467,1.129      c1.1-0.18,3.473-1.559,3.174-1.939c-0.91,0.562-3.197,1.195-4.104,1.404l0.438-0.48c-1.062-0.049-1.461,0.672-2.795,0.562      c-1.141,0.387,0.828,0.35,0.197,0.6c-0.285-0.092-2.611,0.219-3.422,0.393c0.682,0.756,2.744-0.566,4.393-0.152l-2.27,0.264      c-1.293,0.939,3.605-0.623,2.994-0.018c-1.555,1.07-3.658,0.094-5.158,1.039c1.115,0.25,4.543-0.492,4.168-0.121      c-1.281-0.088-2.035,0.695-3.775,0.873l-2.102-0.207c-0.875,0.268-0.17,0.234,0.533,0.338c-3.043-0.229-8.378-0.344-12.21-2.408      c-2.369-0.867-0.419,0.164-1.593-0.049c-1.1-0.83-3.207-1.688-4.443-2.359c-0.321-0.258-1.195-0.338-0.972,0.033      c0.997,0.637,2.168,1.039,3.238,1.557c-0.259,0.086-0.04,0.75,1.204,1.201c-0.52-1.025,4.613,2.377,5.258,1.412l-0.181,0.391      c1.521,0.42,3.144,0.432,4.689,0.645l-0.127-0.078c-0.029,0.143,3.975,0.137,6.545,0.008c-0.727,0.299-5.082,0.068-2.523,0.584      c-1.959,0.191-5.443-0.357-8.874-1.213l0.587,0.467c-3.848-0.445-8.152-3.1-11.4-5.371l1.223,0.359      c-1.095-0.883-2.284-2.178-3.475-2.805c1.298,1.062,0.481,0.68,0.129,0.604c-1.977-1.26-4.1-3.836-6.083-6.16      c0,0,0.169,0.066,0.141-0.068c-0.779-0.762-1.352-1.65-2.039-2.48c-0.798-1.279-0.783-1.863-0.972-2.777      c-0.312-0.455-0.941-1.65-0.919-1.1c0.111,0.271,0.232,0.535,0.348,0.693c-1.16-1.223-0.455-1.01-1.479-2.723      c0.952,1.26,0.316-0.631,0.756-0.604c-1.05-2.035-0.733,0.039-1.013-0.158c-0.883-2.654-0.557-3.122-1.298-5.776      c-0.317-0.089,0.388,1.923,0.212,2.218c-0.174-0.772-0.506-1.648-0.607-1.771c0.078,0.564,0.219,1.119,0.328,1.684      c-0.625-2.85-1.064-5.569-1.637-8.723l-0.089,0.258c-0.107-0.655-0.129-1.32-0.151-1.979l0.481,0.684      c-0.161-1.06,0.19-2.207-0.196-2.764l-0.013,0.391l-0.196-1.33l0.495,1.356c0.107-1.66-0.745-4.026-0.33-6.794      c0.558-0.536-0.188,4.777,0.643,5.134c0.16-0.896,0.361-2.42,0.178-2.978c-0.219,0.094-0.254,0.747-0.286,1.394      c-0.377-2.427,0.808-5.911,0.524-7.499c-0.208,0.578-0.458,1.153-0.627,1.742c0.341-2.114,1.49-3.254,1.196-4.046l0.386,1.78      c0.051-2.157,1.01-4.762,1.535-6.711c-0.464-0.214-1.068,2.723-1.051,2.576l-0.009-1.015c1.441-2.854,0.549-0.78,2.375-4.162      l-0.257-0.152c0.973-0.957,1.938-4.336,1.99-2.844c-0.259,0.256-0.455,0.544-0.685,0.823l0.366,0.078      c0.64-1.318,1.452-2.569,2.206-3.852c-0.054,0.486,1.235-1.244,1.168-0.595l0.776-1.468c0.874-0.268-1.423,2.686-1.153,3.047      c0.212,0.064,0.656-0.54,0.868-0.845c-0.875,1.713-2.083,2.081-3.149,3.711l-0.161,0.979l-0.379-0.241      c-0.301,0.74-0.361,1.463-0.324,1.78c-1.367,1.458-1.561,3.566-2.487,6.194c0.468-2.295-0.879,1.314-0.875,0.91      c-0.325,1.269-0.29,4.479-0.892,5.489c-0.316,0.716-0.109-1.61-0.45,0.158c-0.103,1.167,0.026,1.976,0.343,1.256      c-0.174,2.565-0.312,5.612-0.103,8.42l-0.334-0.656c-0.201,1.794,0.575,3.462,0.981,4.325c-0.089,0.257,0.018,0.38-0.196,0.134      c0.016,2.286,1.042,2.755,2.112,6.246c0.368-0.328-0.181-1.863-0.618-2.945l0.535,0.182c-0.72-3.031-1.427-6.476-1.699-9.012      l0.401,1.145c0.58-2.19-0.754-1.548,0.016-3.596c-0.105-1.519-0.297,1.093-0.453-0.054c0.187-1.07,0.825,0.284,0.937-1.492      c-0.189,6.651,1.218,14.269,4.501,20.495c0.147,0.084,0-0.256-0.143-0.588c0.838,0.928,3.076,5.934,6.798,9.826      c3.54,4.049,8.382,6.461,8.908,6.082c0.241,0.305-0.919-0.014,0.495,0.604c0.17-0.02,0.585,0.027,0.326-0.264      c3.266,2.258,8.695,2.787,13.392,2.875c-0.119-0.191,0.914-0.361,0.914-0.498c1.67,0.346,4.301-0.648,5.785-0.885l-0.539-0.086      c1.535-0.369,2.961-1.002,4.406-1.602c0.084-0.129-0.506,0.109-0.859,0.221c0.889-0.482,1.221-0.334,1.402-0.219l1.561-1.426      c5.928-2.295,10.191-8.859,13.559-14.607c0.084-1.066,0.203-1.936,0.836-3.492l-0.443,0.717      c0.324-1.688,0.279-0.012,0.611-1.431c0.023-1.017-0.459-0.452-0.746,0.841c-0.463,0.717-0.393,0.196-0.258-0.377      C86.309,56.99,87.229,52.189,88.037,47.874z"/>
				<path fill="#FFFFFF" d="M85.99,42.19c0.119-0.584,0.471,2.184,0.711,0.788c0.365-4.495-2.328-11.349-4.812-15.997      c-0.539-1.325-0.66-1.708-1.352-2.801c-0.07,0.018-0.145,0.062-0.17,0.154c-0.848-1.207-2.523-2.893-3.447-4.042      c-0.359-0.246-0.799-0.246-0.188,0.274c-1.826-1.296-2.488-2.982-3.748-3.484c0.773,0.776-1.078-0.379-0.111,0.486      c-1.932-1.302-1.146-2.049-2.773-3.096c-0.143,0.024-0.295,0.042,0.031,0.25c-1.58-1.553-6.059-2.186-6.059-2.916l-0.918,0.069      c-0.854-0.424-0.59-0.535-2.135-0.91c-1.043-0.06-0.008,0.283-0.395,0.337c-0.367-0.471-3.15-0.448-4.418-0.901      c-0.059-0.562,2.244,0.749,3.516,0.372c0.055-0.093-0.129-0.131-0.385-0.158c6.727,0.872,10.564,4.356,14.855,6.99      c0.648,0.961,1.504,1.289,2.146,1.374c-0.562-0.751-2.484-2.667-3.014-2.105l-1.072-1.278c-0.531-0.321-0.15-0.847-0.322-1.086      c0.986,0.626,2.48,0.937,1.295-0.21c2.668,1.731-1.703,0.603,0.674,2.023l0.646-0.161c-0.559-0.121,1.182,1.454,1.928,1.949      l-0.215-0.31c5.59,4.684,10.803,12.979,12.51,20.625c-0.77,2.039,1.459,5.561,0.418,7.438c0.213,0.845,0.406-1.229,0.633,0.399      c0.117,0.816-0.221,0.899-0.316,0.861l0.139,0.747C88.316,48.476,87.42,46.968,85.99,42.19z"/>
			</g>
		</g>
	</g>
	<g>
		<path fill="none" d="M89.086,37.877c0-0.078-0.387-0.159-1.059-0.236c0.037,0.154,0.066,0.312,0.107,0.464    C88.75,38.028,89.086,37.953,89.086,37.877z"/>
		<path fill="none" d="M89.643,33.884c0-0.131-1.096-0.263-2.908-0.388c0.094,0.248,0.164,0.509,0.254,0.761    C88.643,34.136,89.643,34.011,89.643,33.884z"/>
		<path fill="none" d="M90.734,25.891c0-0.237-3.314-0.459-8.332-0.663c0.289,0.426,0.576,0.852,0.852,1.289    C87.787,26.325,90.734,26.113,90.734,25.891z"/>
		<path fill="none" d="M24.081,60.019c-0.152,0-0.299-0.005-0.446-0.009c0.205,0.497,0.415,1.057,0.629,1.762    C24.509,61.555,24.339,60.811,24.081,60.019z"/>
		<path fill="none" d="M23.692,58.943c-0.016-0.037-0.031-0.08-0.045-0.118l0.326,0.109c0.062,0,0.129,0,0.19-0.003    c-0.226-0.959-0.444-1.949-0.656-2.945c-0.444-0.008-0.89-0.014-1.327-0.023c0.089,1.17,0.471,1.883,0.99,2.987    C23.34,58.947,23.518,58.947,23.692,58.943z"/>
		<path fill="none" d="M90.191,29.892c0-0.185-2.049-0.366-5.322-0.533c0.176,0.343,0.371,0.676,0.541,1.03    C88.357,30.231,90.191,30.063,90.191,29.892z"/>
		<path fill="none" d="M67.9,13.094c0.43,0.185,0.865,0.344,1.281,0.546C68.73,13.346,68.338,12.947,67.9,13.094z"/>
		<path fill="#F05A28" d="M64.652,62.969c10.336-0.301,19.432-0.688,19.432-1.115c0-0.41-8.633-0.787-18.627-1.09    C65.215,61.518,64.961,62.254,64.652,62.969z"/>
		<path fill="#F05A28" d="M85.484,57.861c0-0.414-8.867-0.796-19.102-1.095c-0.111,0.74-0.209,1.483-0.379,2.194    C76.402,58.66,85.484,58.279,85.484,57.861z"/>
		<path fill="#F05A28" d="M63.814,64.742c-0.412,0.783-0.875,1.525-1.365,2.258c10.609-0.309,20.238-0.709,20.238-1.143    C82.688,65.428,73.863,65.049,63.814,64.742z"/>
		<path fill="#F05A28" d="M88.729,55.598c-0.871,3.506-1.869,6.727-2.984,9.609C87.1,62.209,88.125,58.997,88.729,55.598z"/>
		<path fill="#FFFFFF" d="M23.897,37.728c-0.085,0.76-0.424,2.476,0.118,0.952L23.897,37.728z"/>
		<path fill="#F05A28" d="M25.637,31.339c-0.616,1.508-1.066,3.062-1.45,4.622l0.828-1.831    C25.124,33.18,25.432,32.281,25.637,31.339z"/>
		<path fill="#F05A28" d="M35.779,16.032c-0.712,0.58-1.519,1.307-2.197,1.974C34.425,17.441,34.925,16.933,35.779,16.032z"/>
		<path fill="#F05A28" d="M33.37,18.222c-0.636,0.636-1.131,1.202-1.225,1.47l0.036-0.163c0,0-1.07,1.425-1.507,2.618    C31.477,20.43,34.298,18.512,33.37,18.222z"/>
		<path fill="#F05A28" d="M33.582,18.006c-0.094,0.064-0.147,0.125-0.25,0.189c0.022,0.004,0.018,0.018,0.038,0.027    C33.439,18.151,33.506,18.082,33.582,18.006z"/>
		
			<line fill="none" stroke="#F05A28" stroke-width="0" stroke-linecap="round" stroke-linejoin="round" x1="31.606" y1="19.906" x2="32.355" y2="18.726"/>
		<path fill="#F05A28" d="M35.659,16.777c0.386-0.384-2.286,1.9-2.144,2.232c0.388-0.334,1.298-1.568,1.758-1.418    C36.95,16.272,34.113,18.068,35.659,16.777z"/>
		<path fill="none" stroke="#F05A28" stroke-width="0" stroke-linecap="round" stroke-linejoin="round" d="M41.706,14.515    c-0.542,0.459-1.138,0.83-1.62,1.358"/>
		<path fill="#F05A28" d="M42.129,12.854c0.328-0.627,2.137-0.939,2.277-1.363c-0.141-0.105-1.158,0.223-1.459,0.245    c-0.158,0.667-2.201,1.104-1.004,1.398c0.542-0.252,1.146-0.531,1.965-0.977C43.32,12.385,42.687,12.55,42.129,12.854z"/>
		<path fill="#F05A28" d="M41.944,13.134c-0.41,0.19-0.813,0.386-1.185,0.578c0.224-0.044,0.549-0.169,1.2-0.573    C41.951,13.134,41.951,13.134,41.944,13.134z"/>
		<path fill="#F05A28" d="M42.948,11.736c0.007-0.04,0.038-0.078,0.029-0.125C42.821,11.718,42.838,11.747,42.948,11.736z"/>
		<path fill="#F05A28" d="M38.81,14.428l-0.339,0.754c0.968-0.745,1.633-1.133,2.288-1.47C40.267,13.806,40.309,13.46,38.81,14.428z    "/>
		<path fill="#F05A28" d="M56.092,9.566c0.398-0.005,0.807,0.024,1.203,0.04C58.041,9.693,56.029,9.372,56.092,9.566z"/>
		<path fill="#F05A28" d="M51.664,10.005c0.535-0.029,1.07-0.064,1.645-0.104C52.795,9.9,52.246,9.932,51.664,10.005z"/>
		<path fill="#F05A28" d="M50.085,10.538l-0.999-0.234l-2.126,1.224c1.614-0.957,3.85-0.573,4.055-1.318l0.955,0.096l-0.559-0.276    c0.088-0.016,0.166-0.014,0.252-0.025c-0.891,0.047-1.706,0.083-2.183,0.119C50.454,10.074,51.15,10.244,50.085,10.538z"/>
		<path fill="#F05A28" d="M46.853,10.866c-0.405,0.123-0.82,0.245-1.227,0.377C46.327,11.076,46.666,10.96,46.853,10.866z"/>
		<path fill="#F05A28" d="M48.208,10.052c-2.218,0.475-0.726,0.493-1.354,0.814c0.651-0.196,1.305-0.399,1.959-0.6L48.208,10.052z"/>
		<path fill="#FFFFFF" d="M62.186,10.73c0.348,0.132,0.709,0.241,1.043,0.437C63.016,10.895,62.58,10.779,62.186,10.73z"/>
		<path fill="#FFFFFF" d="M62.186,10.73c-0.09-0.033-0.168-0.071-0.25-0.107C60.879,10.757,61.467,10.636,62.186,10.73z"/>
		<polygon fill="#FFFFFF" points="66.883,12.019 66.008,12.22 67.316,12.441   "/>
		<path fill="#FFFFFF" d="M75.631,19.25c0.031,0.009,0.066,0.016,0.105,0.022C75.523,19.103,75.52,19.123,75.631,19.25z"/>
		
			<line fill="none" stroke="#F05A28" stroke-width="0" stroke-linecap="round" stroke-linejoin="round" x1="57.596" y1="11.341" x2="56.803" y2="11.281"/>
		
			<line fill="none" stroke="#F05A28" stroke-width="0" stroke-linecap="round" stroke-linejoin="round" x1="58.117" y1="11.379" x2="57.596" y2="11.341"/>
		<path fill="#F05A28" d="M30.23,22.975l-0.054,0.091C30.281,22.904,30.328,22.821,30.23,22.975z"/>
		<path fill="#F05A28" d="M71.473,84.465l-0.031-0.074c-0.092,0.082-0.219,0.188-0.365,0.295L71.473,84.465z"/>
		<path fill="#F05A28" d="M71.357,84.201l0.084,0.189C71.639,84.217,71.678,84.119,71.357,84.201z"/>
		<path fill="#F05A28" d="M68.062,85.947l1.732-0.678c0.107,0.268,0.152,0.404-0.932,0.816c0.303-0.008,1.205-0.537,1.705-0.844    l-0.406,0.154c0.209-0.154,0.584-0.463,0.914-0.711C69.596,85.445,68.082,85.16,68.062,85.947z"/>
		<path fill="#F05A28" d="M62.783,87.34c2.178-0.244,0.893-0.441,2.07-0.85c-0.367,0.102-0.713,0.189-0.984,0.342    C64.994,86.674,63.221,87.215,62.783,87.34z"/>
		<path fill="none" stroke="#F05A28" stroke-width="0" stroke-linecap="round" stroke-linejoin="round" d="M64.854,86.49    c0.141-0.049,0.293-0.105,0.508-0.166"/>
		<polygon fill="#F05A28" points="58.93,87.488 58.791,87.475 58.223,87.527   "/>
		<path fill="#F05A28" d="M21.671,61.56c-0.103-0.535-0.232-1.06-0.31-1.591h-0.004C21.462,60.496,21.553,61.024,21.671,61.56z"/>
		<path fill="#F05A28" d="M21.948,61.646c0.116-0.191-0.127-1.079-0.237-1.675c-0.111,0-0.209-0.003-0.321-0.003    C21.524,60.215,21.796,60.955,21.948,61.646z"/>
		<path fill="#F05A28" d="M24.768,68.691c-0.096-0.137-0.196-0.367-0.294-0.6c-0.069-0.002-0.134-0.002-0.196-0.006    C24.388,68.254,24.522,68.426,24.768,68.691z"/>
		<path fill="#F05A28" d="M23.692,58.943c0.094-0.004,0.188-0.004,0.281-0.009l-0.326-0.109    C23.661,58.863,23.677,58.906,23.692,58.943z"/>
		<path fill="#F05A28" d="M63.754,57.471c0-0.624-23.302-1.17-40.247-1.484c0.212,0.996,0.43,1.986,0.656,2.945    C41.047,58.617,63.754,58.08,63.754,57.471z"/>
		<path fill="#F05A28" d="M64.781,77.064c-0.619-0.639-1.23-1.377-1.82-2.176c8.771-0.295,16.082-0.656,16.082-1.045    c0-0.418-8.109-0.799-17.514-1.09c-0.336-0.562-0.674-1.135-0.998-1.746c10.59-0.309,20.332-0.717,20.332-1.16    c0-0.439-9.297-0.834-19.592-1.146c-2.967,3.736-6.965,6.637-11.59,8.363H31.378c-0.491-0.186-0.953-0.406-1.423-0.619    c1.45,1.666,2.931,3.238,4.338,4.135c0.355,0.076,1.169,0.463-0.127-0.602c1.191,0.627,2.377,1.924,3.475,2.807l-1.227-0.359    c3.248,2.27,7.555,4.924,11.404,5.369l-0.584-0.467c3.427,0.854,6.912,1.404,8.871,1.213c-2.561-0.518,1.795-0.285,2.525-0.584    c-2.574,0.127-6.578,0.137-6.547-0.01l0.127,0.082c-1.545-0.215-3.167-0.227-4.689-0.645l0.179-0.393    c-0.643,0.965-5.776-2.436-5.255-1.41c-1.244-0.453-1.463-1.117-1.207-1.203C40.168,83.861,39,83.459,38,82.822    c-0.223-0.369,0.654-0.291,0.975-0.035c1.236,0.676,3.342,1.531,4.443,2.359c1.173,0.217-0.776-0.816,1.593,0.049    c3.829,2.068,9.165,2.182,12.208,2.412c-0.701-0.107-1.408-0.072-0.531-0.342l2.104,0.209c1.74-0.178,2.494-0.963,3.773-0.871    c0.375-0.373-3.053,0.369-4.166,0.121c1.498-0.947,3.6,0.031,5.154-1.043c0.611-0.602-4.287,0.959-2.994,0.021l2.27-0.264    c-1.57-0.398-3.486,0.744-4.256,0.195c1.064-0.092,2.109-0.238,3.145-0.439c0.039,0,0.125-0.006,0.143,0    c0.035-0.014,0.035-0.021,0.055-0.033c2.148-0.43,4.221-1.088,6.205-1.961c-0.012,0.465-2.137,1.682-3.172,1.848    c0.996,0.053,2.609-0.738,3.471-1.127l-1.682,0.494c1.766-0.795,1.744-1.15,2.729-1.826c0.811-0.398,1.611-0.824,2.379-1.293    c0.486-0.121-0.014,0.529,0.562,0.371c2.047-1.738,0.746-0.543,0.393-0.896c1.703-1.219,2.258-1.34,4.279-3.186    c-1.104,1.115-1.203,1.65-2.562,2.471l0.658,0.014c0.988-0.992,1.73-1.928,2.512-3.006H64.781z"/>
		<path fill="#F05A28" d="M57.012,69.457c0-0.549-17.215-1.039-32.313-1.359c0.203,0.283,0.466,0.742,0.645,0.998    c0.125,0.607,0.179,1.082,0.424,1.697C40.594,70.471,57.012,69.99,57.012,69.457z"/>
		<path fill="#F05A28" d="M59.68,65.459c0-0.596-20.829-1.127-36.982-1.443c0.094,0.361,0.179,0.711,0.339,1.191    c0.276,0.195-0.04-1.879,1.013,0.158c-0.442-0.031,0.196,1.861-0.758,0.602c0.241,0.4,0.375,0.684,0.473,0.918    C39.751,66.559,59.68,66.043,59.68,65.459z"/>
		<path fill="#F05A28" d="M66.67,54.777c-0.002,0.064-0.021,0.125-0.023,0.188c10.576-0.302,19.811-0.684,19.811-1.098    c0-0.584-17.758-1.098-32.26-1.416c-0.09-0.382-0.168-0.774-0.24-1.158c14.879-0.321,33.482-0.841,33.482-1.425    c0-0.596-19.062-1.12-34.029-1.437c-0.066-0.37-0.133-0.743-0.199-1.12c15.27-0.326,34.771-0.845,34.771-1.437    c0-0.609-19.9-1.135-35.227-1.456c-0.055-0.361-0.104-0.728-0.162-1.093c15.631-0.321,35.938-0.848,35.938-1.447    c0-0.611-20.639-1.14-36.307-1.461c-0.035-0.361-0.08-0.727-0.125-1.082c13.945-0.274,31.758-0.716,36.035-1.231    c-0.041-0.152-0.07-0.31-0.107-0.464c-4.461-0.511-22.322-0.955-36.213-1.223c-0.029-0.354-0.059-0.711-0.09-1.07    c12.852-0.252,29.027-0.64,35.264-1.091c-0.09-0.252-0.16-0.513-0.254-0.761c-6.447-0.448-22.5-0.834-35.225-1.082    c-0.018-0.348-0.049-0.709-0.07-1.064c11.865-0.225,26.551-0.562,33.971-0.961c-0.17-0.354-0.365-0.687-0.541-1.03    c-7.615-0.391-21.973-0.718-33.566-0.937c-0.016-0.354-0.037-0.709-0.047-1.068c10.805-0.196,23.938-0.491,31.998-0.836    c-0.275-0.437-0.562-0.863-0.852-1.289c-8.137-0.333-20.775-0.611-31.213-0.803c-0.008-0.642-0.023-1.289-0.023-1.938h29.162    c-1.869-2.249-3.975-4.231-6.281-5.904c0-0.04-0.053-0.114,0.018-0.098l-0.115,0.029c-0.336-0.241-0.676-0.468-1.018-0.694    c0.492-0.151,1.41-0.163-0.188-1.2c1.188,1.146-0.307,0.838-1.295,0.212c0.01,0.011,0.002,0.031,0.01,0.044    c-0.209-0.123-0.432-0.232-0.646-0.35c0.881,0.192,0-0.524-1.053-1.026c0.893,0.511,1.246,0.939,1.014,1.004    c-0.467-0.261-0.928-0.529-1.41-0.765c0.164,0.083,0.338,0.147,0.531,0.127c0.463-0.373-2.713-1.832-3.951-2.523    c-1.197-0.281-1.229-0.138-1.666,0.004c-0.211-0.316-1.369-0.783-1.629-1.037c-2.58-0.154-3.842-0.93-6.418-0.645    c-0.094-0.044-0.127-0.076-0.139-0.1c-0.062,0-0.121-0.014-0.186-0.009l0.15,0.049c-0.746,0.136-1.744,0.223-2.748,0.294    c1.922,0.004,3.439,0.437,4.773,0.825c-0.641-0.04-1.273-0.109-1.928-0.109c-0.184-0.038-0.309-0.033-0.373,0.016    c-8.041,0.083-15.396,3.379-21.115,8.815l-0.147-0.078c-0.007,0.04-0.009,0.131-0.025,0.259c-0.488,0.468-0.955,0.95-1.414,1.447    c-0.894,0.611-1.148,1.064-1.292,1.486c-0.504,0.611-1.012,1.218-1.481,1.864c0-0.076-0.006-0.129-0.062-0.098    c-0.026,0.112,0.022,0.101,0.049,0.125c-0.5,0.685-0.959,1.405-1.41,2.132c-0.103-0.007-0.08-0.208,0.294-0.99    c-1.325,2.195-2.315,3.814-3.31,5.728c0.411-0.506,0.433-0.774,0.959-1.499c-0.388,0.899-0.787,2.014-1.157,3.154    c-0.366,0.923-0.685,1.874-0.979,2.835l-0.12-0.241c-0.823,1.169-1.521,4.546-1.865,7.405l0.41-1.829    c0.089,0.105,0.196-0.016,0.312-0.189c-0.167,0.993-0.303,1.994-0.406,3.013c-0.316,0.687-0.606,1.153-0.448,2.157    c0.239-0.995,0.314-1.08,0.364-0.955c-0.045,0.611-0.065,1.227-0.085,1.84c-0.165,0.007-0.328,0.027-0.406,0.479    c0.131,0.979,0.29-0.776,0.401-0.354c-0.007,0.225-0.029,0.448-0.029,0.676c-0.274,0.863-0.127,1.193,0.033,1.557    c0.016,0.524,0.036,1.048,0.071,1.568c-0.018,0.071-0.022,0.125-0.04,0.202l-0.406-1.146c0.151,1.392,0.439,3.062,0.778,4.783    H66.67z M57.596,11.341l-0.793-0.061L57.596,11.341l0.521,0.038L57.596,11.341z M75.736,19.272    c-0.039-0.006-0.074-0.013-0.105-0.022C75.52,19.123,75.523,19.103,75.736,19.272z M66.883,12.019l0.434,0.422l-1.309-0.221    L66.883,12.019z M61.936,10.623c0.082,0.036,0.16,0.074,0.25,0.107c0.395,0.049,0.83,0.165,1.043,0.437    c-0.334-0.196-0.695-0.305-1.043-0.437C61.467,10.636,60.879,10.757,61.936,10.623z M69.182,13.641    c-0.416-0.203-0.852-0.361-1.281-0.546C68.338,12.947,68.73,13.346,69.182,13.641z M41.706,14.515    c-0.542,0.459-1.138,0.83-1.62,1.358C40.568,15.345,41.164,14.975,41.706,14.515z M23.897,37.728l0.118,0.952    C23.474,40.203,23.812,38.488,23.897,37.728z"/>
		<path fill="#F05A28" d="M52.639,73.453c0-0.48-12.905-0.912-26.047-1.23c0.564,0.729,1.093,1.475,1.76,2.131    c0.029,0.137-0.14,0.066-0.14,0.066c0.062,0.072,0.125,0.148,0.189,0.219C40.896,74.326,52.639,73.908,52.639,73.453z"/>
		<path fill="#F05A28" d="M22.073,54.777c-0.401-0.928-0.865-2.267-0.705-3.712l0.333,0.655c-0.208-2.808-0.072-5.854,0.104-8.417    c-0.316,0.72-0.448-0.092-0.343-1.256c0.339-1.769,0.134,0.558,0.451-0.158c0.602-1.011,0.566-4.22,0.892-5.492    c-0.007,0.404,1.343-3.203,0.872-0.908c0.926-2.627,1.12-4.735,2.487-6.194c-0.036-0.317,0.022-1.042,0.326-1.78l0.377,0.241    l0.163-0.981c1.066-1.628,2.275-1.999,3.147-3.709c-0.212,0.306-0.656,0.908-0.868,0.846c-0.268-0.364,2.03-3.314,1.155-3.047    l-0.776,1.465c0.067-0.647-1.222,1.084-1.168,0.596c-0.754,1.282-1.566,2.534-2.208,3.854l-0.366-0.078    c0.232-0.279,0.429-0.566,0.687-0.823c-0.053-1.492-1.017,1.885-1.989,2.844l0.254,0.149c-1.825,3.383-0.933,1.309-2.374,4.164    l0.007,1.013c-0.016,0.147,0.586-2.79,1.05-2.574c-0.521,1.949-1.481,4.554-1.534,6.711l-0.384-1.78    c0.294,0.792-0.856,1.93-1.195,4.046c0.169-0.589,0.419-1.167,0.626-1.742c0.283,1.586-0.901,5.07-0.524,7.499    c0.031-0.649,0.067-1.3,0.285-1.394c0.183,0.558-0.018,2.081-0.181,2.978c-0.827-0.359-0.083-5.67-0.64-5.135    c-0.415,2.768,0.438,5.135,0.33,6.794l-0.495-1.358l0.196,1.332l0.014-0.393c0.383,0.56,0.036,1.705,0.196,2.763l-0.482-0.682    c0.022,0.66,0.044,1.324,0.152,1.98l0.089-0.262c0.125,0.683,0.23,1.294,0.348,1.943H22.073z"/>
		<path fill="#F05A28" d="M23.17,58.95c-0.52-1.104-0.901-1.817-0.99-2.987c-0.536-0.01-1.071-0.018-1.593-0.028    c0.183,1.026,0.386,2.063,0.576,3.054C21.819,58.977,22.488,58.966,23.17,58.95z"/>
		<path fill="#F05A28" d="M61.926,61.467c0-0.601-21.375-1.131-37.845-1.448c0.259,0.792,0.428,1.536,0.183,1.753    c-0.214-0.705-0.424-1.265-0.629-1.762c-0.591-0.012-1.191-0.022-1.764-0.033c0.31,1.262,0.417,2.08,0.582,2.967    C39.1,62.631,61.926,62.084,61.926,61.467z"/>
	</g>
</g>
</svg>
