<?xml version="1.0" encoding="utf-8"?>
<!-- Generator: Adobe Illustrator 18.1.0, SVG Export Plug-In . SVG Version: 6.00 Build 0)  -->
<svg version="1.1" id="Layer_1" xmlns="http://www.w3.org/2000/svg" xmlns:xlink="http://www.w3.org/1999/xlink" x="0px" y="0px"
	 viewBox="0 0 2000 2000" enable-background="new 0 0 2000 2000" xml:space="preserve">
<g>
	<path fill="#97A822" d="M850.9,1585.8c485.8,127.8,620.2-423.2,620.2-423.2s-94.5,122.5-420.2,145.1
		c-240.8,16.7-271.5,123.7-271.2,178.3c-448.2-1-619.4-464.8-619.4-464.8l0.4,3.1c207.7,720.1,700.2,547.7,931.3,418.1
		c129.5-55.7,236.4-129.6,236.4-129.6C1249.9,1499.9,850.9,1585.8,850.9,1585.8z"/>
	<path fill="#907963" d="M1863.6,944.3c-54.3-4.2-127.2,63.5-172.9,113.2c14.2-64.9,18.4-114.5,19.6-135.1
		c12.4-17.2,19.1-35.1,19.1-53.4c0-59.8-69.3-114.7-184.7-157.5c69.4,34.3,109.5,74.7,109.5,118c0,123.7-326.9,224-730.1,224
		c-403.3,0-730.1-100.3-730.1-224c0-43.3,40.2-83.7,109.5-118C188.2,754.3,118.8,809.2,118.8,869c0,136.5,360.5,247.1,805.3,247.1
		c291.1,0,546.1-47.4,687.6-118.4c-35.3,601-629.7,698-629.7,698c427.1-40.9,603.9-313.4,677.2-525.7
		c60.5-103.6,171.7-162.5,171.7-35.8c0,216.1-383,412.5-383,412.5C1965.1,1392.8,1948.7,950.9,1863.6,944.3z"/>
	<path fill="#F2EEEA" d="M472.3,946.5c-62.1-26-98.6-57.5-98.6-91.5c0-85.4,230.3-155.3,521.5-160.9c1.7-19.1,5.9-39.3,13.6-60.7
		c-342.5,3.6-616.4,84.8-616.4,184.6C292.3,868,360.9,913.3,472.3,946.5z"/>
	<path fill="#F2EEEA" d="M1490.8,855c0,34-36.4,65.5-98.5,91.5c111.4-33.2,180-78.5,180-128.4c0-97.9-263.7-178-597.2-184.3
		c-16.4,21.7-28.8,41.6-38,60.1C1243.3,694.6,1490.8,766.5,1490.8,855z"/>
	<path fill="#ECE6E1" d="M598.1,765.7c-77.7,24.1-125.3,56.3-125.3,91.8c0,74.3,208.7,134.6,466.1,134.6
		c257.4,0,466.1-60.3,466.1-134.6c0-35.4-47.6-67.7-125.2-91.7c41.6,18.4,65.9,40.4,65.9,64c0,64.9-182.1,117.4-406.8,117.4
		c-224.6,0-406.8-52.6-406.8-117.4C532.2,806.2,556.5,784.2,598.1,765.7z"/>
	<path fill="#C6B8AB" d="M953.4,865.8c-28.8-31.7-59.9-84.2-16.3-171.9c9.1-18.4,21.5-38.4,38-60.1c3.5-4.6,7.1-9.2,10.9-14
		c91.5-112.9,41.5-207.8,23.6-234.7c6.8,16.1,9.1,62.8-70.6,187.7c-13.4,21-23.2,41.3-30.2,60.7c-7.7,21.3-11.9,41.6-13.6,60.7
		C886,798.3,953.4,865.8,953.4,865.8z"/>
	<path fill="#C6B8AB" d="M1004,377.5c0,0,2.2,2.6,5.5,7.6C1007.1,379.3,1004,377.5,1004,377.5z"/>
	<path fill="#C6B8AB" d="M975.1,377.5c-29-84.2-20.8-107.7-16.4-113.8c-11.2,11.4-70.1,76-30.6,131.8
		c43.4,61.5-32.6,166.4-32.6,166.4S1011.3,482.4,975.1,377.5z"/>
	<path fill="#C6B8AB" d="M960.7,261.8c0,0-0.9,0.5-1.9,1.9C959.9,262.6,960.7,261.8,960.7,261.8z"/>
</g>
</svg>
