<?xml version="1.0" encoding="utf-8"?>
<!-- Generator: Adobe Illustrator 18.1.0, SVG Export Plug-In . SVG Version: 6.00 Build 0)  -->
<svg version="1.1" id="Layer_1" xmlns="http://www.w3.org/2000/svg" xmlns:xlink="http://www.w3.org/1999/xlink" x="0px" y="0px"
	 viewBox="0 0 150 150" enable-background="new 0 0 150 150" xml:space="preserve">
<g>
	<path fill="#FDB834" d="M146.9,116c-0.1-0.4-0.2-0.7-0.3-1.1c-0.2-0.3-0.4-0.6-0.7-0.9c-0.1-0.1-0.3-0.3-0.4-0.4
		c-0.1-0.1-0.2-0.1-0.2-0.1c-0.1-0.1-0.2-0.1-0.3-0.1c-0.2-0.1-0.4-0.1-0.6-0.2c-0.2,0-0.4,0-0.6,0c-0.4,0-0.8,0.1-1.1,0.3
		c-0.3,0.2-0.7,0.4-0.9,0.7c-0.1,0.1-0.2,0.3-0.3,0.4c0,0-0.1,0.1-0.1,0.1c0,0,0,0,0,0.1l0,0c0,0,0,0,0,0v0l0,0l0,0l0,0l0,0
		c0,0,0,0,0,0.1c0,0,0,0.1,0,0.1c-0.1,0.2-0.1,0.4-0.1,0.5c0,0.2,0,0.3,0,0.5c0,0.3,0.1,0.6,0.3,0.9c0.1,0.2,0.3,0.4,0.5,0.6
		c0.2,0.1,0.4,0.2,0.5,0.2c0.2,0,0.3,0,0.4-0.1c0.1-0.1,0.2-0.2,0.3-0.3c0.1-0.1,0.1-0.2,0.1-0.3c0-0.1,0-0.2,0-0.3
		c0-0.1,0-0.2,0-0.2c0-0.1,0-0.1-0.1-0.2c0-0.1,0-0.1-0.1-0.2c0-0.1-0.1-0.1-0.1-0.2c0-0.1-0.1-0.1-0.1-0.2c0-0.1,0-0.2,0-0.3
		c0,0,0,0,0,0c0,0,0,0,0,0l0,0v0v0l0,0h0l0,0v0l0,0c0,0,0,0,0-0.1c0-0.1,0-0.1,0.1-0.2c0.1-0.1,0.1-0.3,0.2-0.4
		c0.1-0.1,0.3-0.3,0.4-0.4c0.2-0.1,0.4-0.2,0.6-0.2c0.1,0,0.2,0,0.3,0c0.1,0,0.1,0,0.2,0c0,0,0.1,0,0.1,0c0,0,0.1,0,0.1,0
		c0.2,0.1,0.5,0.2,0.7,0.4c0.2,0.2,0.4,0.4,0.6,0.6c0.2,0.2,0.3,0.5,0.3,0.8c0,0.2,0.1,0.4,0.1,0.6c0,0.2,0,0.4-0.1,0.6
		c0,0,0,0.1,0,0.1c0,0,0,0,0,0.1c0,0,0,0,0,0.1c0,0.1-0.1,0.2-0.1,0.3c-0.1,0.2-0.1,0.4-0.2,0.5c-0.1,0.2-0.2,0.3-0.3,0.5
		c-0.1,0.2-0.2,0.3-0.4,0.5c-0.1,0.2-0.3,0.3-0.5,0.4c-0.2,0.1-0.4,0.3-0.6,0.4c-0.2,0.1-0.5,0.2-0.8,0.3c-0.3,0.1-0.6,0.1-0.9,0.1
		c-0.2,0-0.3,0-0.5,0c-0.1,0-0.2,0-0.3,0c0,0-0.1,0-0.1,0c0,0-0.1,0-0.1,0c-0.4-0.1-0.7-0.2-1.1-0.5c-0.4-0.2-0.8-0.5-1.1-0.8
		c-0.4-0.4-0.7-0.8-0.9-1.3c-0.3-0.5-0.5-1.1-0.6-1.7c-0.1-0.3-0.1-0.7-0.1-1c0-0.3,0-0.6,0.1-1c0.3-1,0.5-2.1,0.5-3.2
		c0-1.1-0.2-2.3-0.6-3.3c-0.1-0.3-0.2-0.5-0.3-0.8c-0.1-0.3-0.2-0.5-0.4-0.8c-0.3-0.5-0.5-1-0.9-1.5c-0.6-1-1.4-1.9-2.3-2.7
		c-0.8-0.7-1.8-1.4-2.8-2c-0.5-0.3-1.1-0.6-1.7-0.8c-1.2-0.5-2.5-0.8-3.8-0.9c-0.5,0-1,0-1.5,0c2.6-6.2,4.1-13,4.1-20.2
		c0-29-23.5-52.5-52.5-52.5c-29,0-52.5,23.5-52.5,52.5c0,7.2,1.5,14.1,4.1,20.3c-0.8-0.1-1.7-0.2-2.6-0.1c-1.3,0.1-2.5,0.4-3.8,0.9
		c-0.6,0.2-1.1,0.5-1.7,0.8c-1,0.6-2,1.2-2.8,2c-0.9,0.8-1.7,1.7-2.3,2.7c-0.3,0.5-0.6,1-0.9,1.5c-0.1,0.3-0.2,0.5-0.4,0.8
		c-0.1,0.3-0.2,0.5-0.3,0.8c-0.4,1.1-0.6,2.2-0.6,3.3c0,1.1,0.2,2.2,0.5,3.2c0.1,0.4,0.1,0.7,0.1,1c0,0.4,0,0.7-0.1,1
		c-0.1,0.6-0.3,1.2-0.6,1.7c-0.3,0.5-0.6,0.9-0.9,1.3c-0.4,0.3-0.7,0.6-1.1,0.8c-0.4,0.2-0.8,0.4-1.1,0.5c0,0-0.1,0-0.1,0
		c0,0-0.1,0-0.1,0c-0.1,0-0.2,0-0.3,0c-0.2,0-0.4,0-0.5,0c-0.3,0-0.6,0-0.9-0.1c-0.3-0.1-0.5-0.2-0.8-0.3c-0.2-0.1-0.4-0.2-0.6-0.4
		c-0.2-0.1-0.3-0.3-0.5-0.4c-0.1-0.2-0.3-0.3-0.4-0.5c-0.1-0.2-0.2-0.3-0.3-0.5c-0.1-0.2-0.2-0.4-0.2-0.5c0-0.1-0.1-0.2-0.1-0.3
		c0,0,0,0,0-0.1c0,0,0,0,0-0.1c0,0,0-0.1,0-0.1c0-0.2-0.1-0.4-0.1-0.6c0-0.2,0-0.4,0.1-0.6c0.1-0.3,0.2-0.6,0.3-0.8
		c0.2-0.2,0.4-0.4,0.6-0.6c0.2-0.2,0.5-0.3,0.7-0.4c0,0,0.1,0,0.1,0c0,0,0.1,0,0.1,0c0.1,0,0.1,0,0.2,0c0.1,0,0.2,0,0.3,0
		c0.2,0,0.4,0.1,0.6,0.2c0.2,0.1,0.3,0.2,0.4,0.4c0.1,0.1,0.2,0.3,0.2,0.4c0,0.1,0,0.1,0.1,0.2c0,0,0,0,0,0.1l0,0v0l0,0h0h0v0v0l0,0
		c0,0,0,0,0,0c0,0,0,0,0,0c0,0.1,0,0.2,0,0.3c0,0.1,0,0.2-0.1,0.2c0,0.1-0.1,0.1-0.1,0.2c0,0.1,0,0.1-0.1,0.2c0,0.1,0,0.1-0.1,0.2
		c0,0.1,0,0.2,0,0.2c0,0.1,0,0.2,0,0.3c0,0.1,0.1,0.2,0.1,0.3c0.1,0.1,0.2,0.2,0.3,0.3c0.1,0.1,0.3,0.1,0.4,0.1
		c0.2,0,0.4-0.1,0.5-0.2c0.2-0.1,0.4-0.3,0.5-0.6c0.1-0.2,0.2-0.5,0.3-0.9c0-0.2,0-0.3,0-0.5c0-0.2-0.1-0.4-0.1-0.5c0,0,0-0.1,0-0.1
		c0,0,0,0,0-0.1l0,0l0,0l0,0l0,0v0c0,0,0,0,0,0l0,0c0,0,0,0,0-0.1c0,0,0-0.1-0.1-0.1c-0.1-0.2-0.2-0.3-0.3-0.4
		c-0.2-0.3-0.6-0.5-0.9-0.7c-0.3-0.2-0.7-0.3-1.1-0.3c-0.2,0-0.4,0-0.6,0c-0.2,0-0.4,0.1-0.6,0.2c-0.1,0-0.2,0.1-0.3,0.1
		c-0.1,0-0.2,0.1-0.2,0.1c-0.2,0.1-0.3,0.2-0.5,0.4c-0.3,0.3-0.5,0.6-0.7,0.9c-0.2,0.3-0.3,0.7-0.4,1.1c-0.1,0.4,0,0.8,0,1.1
		c0,0.1,0,0.2,0.1,0.3c0,0.1,0,0.2,0.1,0.3c0.1,0.2,0.1,0.4,0.2,0.6c0.2,0.4,0.4,0.7,0.6,1c0.2,0.2,0.4,0.4,0.6,0.6
		c0.2,0.2,0.5,0.3,0.7,0.5c0.3,0.1,0.5,0.2,0.8,0.3c0.3,0.1,0.6,0.1,0.9,0.1c0.3,0,0.6,0,0.9-0.1c0.1,0,0.1,0,0.2,0c0,0,0.1,0,0.1,0
		l0.1,0l0,0c0.1,0,0.3-0.1,0.4-0.1c0.5-0.2,1.1-0.5,1.5-0.8c0.4-0.4,0.8-0.8,1.1-1.2c0.3-0.4,0.5-0.9,0.7-1.4c0.2-0.5,0.2-1,0.3-1.4
		c0-0.3,0-0.6,0-0.9c0.3,0.8,0.8,1.6,1.3,2.4c0.6,0.9,1.4,1.6,2.3,2.3c0.7,0.5,1.4,0.8,1.9,1c0.6,0.2,1.1,0.3,1.6,0.4
		c0.5,0.1,1,0.1,1.4,0c0.5,0,1-0.1,1.5-0.3c0.6-0.1,1.2-0.3,1.9-0.7c0.3-0.2,0.7-0.3,1.1-0.6c0.4-0.2,0.8-0.5,1.1-0.8
		c0.4-0.3,0.8-0.7,1.2-1.2c0.4-0.5,0.7-1,1-1.6c0.1-0.3,0.3-0.6,0.4-1c0.1-0.2,0.1-0.3,0.2-0.5c0-0.2,0.1-0.4,0.1-0.6
		c0-0.1,0-0.2,0-0.2c0,0,0-0.1,0-0.1c0.1-0.8,0.1-1.5,0-2.1c-0.1-0.7-0.4-1.2-0.7-1.7c-0.3-0.5-0.6-0.9-1-1.2
		c-0.3-0.3-0.7-0.6-1-0.7c-0.3-0.2-0.6-0.3-0.8-0.4c-0.2-0.1-0.4-0.1-0.5-0.1c-0.1,0-0.2,0-0.2,0c0,0,0,0.1,0.2,0.1
		c0.1,0.1,0.3,0.1,0.5,0.2c0.2,0.1,0.5,0.3,0.7,0.5c0.3,0.2,0.6,0.4,0.9,0.8c0.3,0.3,0.6,0.7,0.8,1.2c0.2,0.5,0.4,1,0.5,1.6
		c0.1,0.6,0.1,1.2,0,1.9c0,0.2-0.1,0.3-0.1,0.5c-0.1,0.2-0.1,0.3-0.2,0.5c-0.1,0.4-0.3,0.7-0.5,1c-0.4,0.7-1,1.3-1.6,1.8
		c-0.7,0.5-1.5,0.9-2.4,1.2c-0.9,0.2-1.9,0.3-2.8,0.1c-0.2,0-0.5-0.1-0.7-0.2c-0.1,0-0.2-0.1-0.4-0.1c-0.1,0-0.2-0.1-0.4-0.1
		c-0.5-0.2-1-0.4-1.4-0.7c-0.9-0.6-1.7-1.3-2.4-2.2c-0.7-0.9-1.2-1.9-1.5-3.1c-0.3-1.1-0.4-2.3-0.2-3.5c0.1-0.3,0.1-0.6,0.2-0.9
		c0-0.1,0-0.1,0.1-0.2c0-0.1,0-0.2,0.1-0.2c0.1-0.2,0.1-0.3,0.2-0.5c0.2-0.6,0.5-1.2,0.8-1.7c0.6-1.1,1.4-2.1,2.4-2.9
		c0.9-0.8,2-1.5,3.1-1.9c1.1-0.5,2.3-0.7,3.4-0.8c1-0.1,2,0,3,0.2c1,2.2,2.1,4.2,3.3,6.2c0,0.2,0,0.3,0,0.5c0.1,1.3,0.3,2.7,0.8,4
		c0.4,1.3,1,2.6,1.6,3.8c0.7,1.2,1.4,2.2,2.2,3.1c0.8,0.9,1.6,1.7,2.5,2.4c0.8,0.7,1.7,1.2,2.5,1.6c0.8,0.4,1.6,0.7,2.2,1
		c0.7,0.2,1.3,0.4,1.8,0.5c0.1,0,0.2,0,0.3,0c1.5,0.5,3,0.8,4.5,1c1.8,0.2,3.7,0.1,5.4-0.1c1.7-0.2,3.4-0.6,5-1.2
		c1.5-0.6,3-1.3,4.3-2.1c1.3-0.8,2.5-1.7,3.5-2.6c0.7-0.7,1.4-1.4,2-2.1c0.2,0,0.6,0,0.9,0c0.6,0,1.2,0.1,1.7,0.2
		c0.5,0.1,1,0.3,1.4,0.6c0.4,0.2,0.7,0.5,1,0.8c0,0,0.1,0.1,0.1,0.1c0,0,0.1,0.1,0.1,0.1c0.1,0.1,0.1,0.1,0.2,0.2
		c-0.1,0.2-0.3,0.4-0.4,0.6c-0.1,0.3-0.3,0.6-0.4,0.9c-0.1,0.3-0.1,0.6-0.2,0.9c0,0.3,0,0.6,0.1,0.9c0.1,0.3,0.1,0.6,0.3,0.9
		c0.1,0.4,0.3,0.7,0.5,1c-0.1,0.1-0.1,0.2-0.2,0.2c-0.1,0.1-0.1,0.2-0.2,0.2c0,0,0,0-0.1,0.1c0,0,0,0-0.1,0c0,0-0.1,0.1-0.1,0.1
		c-0.2,0.1-0.3,0.3-0.5,0.4c-0.2,0.1-0.4,0.2-0.6,0.3c-0.3,0.1-0.6,0.1-0.9,0.1c-0.3,0-0.6-0.1-0.9-0.2c-0.3-0.1-0.5-0.3-0.7-0.5
		c0,0-0.1,0-0.1-0.1c0,0,0,0-0.1-0.1c0,0-0.1-0.1-0.1-0.1c-0.1-0.1-0.1-0.2-0.2-0.3c-0.1-0.2-0.1-0.4-0.1-0.7c0-0.2,0-0.4,0.1-0.6
		c0.1-0.2,0.2-0.3,0.3-0.5c0-0.1,0.1-0.1,0.2-0.2c0,0,0,0,0,0l0,0h0h0l0,0c0,0,0,0,0,0h0h0l0,0l0,0c0,0,0,0,0,0c0,0,0,0,0,0
		c0.1-0.1,0.2-0.1,0.3-0.1c0.1,0,0.2,0,0.3,0c0.1,0,0.2,0,0.2,0c0.1,0,0.1,0,0.2,0c0.1,0,0.1,0,0.2-0.1c0.1,0,0.2-0.1,0.2-0.1
		c0.1,0,0.2-0.1,0.2-0.2c0.1-0.1,0.2-0.2,0.3-0.3c0.1-0.1,0.1-0.3,0.1-0.4c0-0.1-0.1-0.3-0.2-0.4c-0.1-0.1-0.3-0.3-0.5-0.4
		c-0.2-0.1-0.5-0.2-0.8-0.2c-0.3,0-0.6,0.1-1,0.2c-0.2,0.1-0.3,0.2-0.5,0.3c-0.2,0.1-0.3,0.2-0.4,0.4c0,0-0.1,0.1-0.1,0.1
		c0,0,0,0,0,0.1l0,0l0,0l0,0l0,0l0,0c0,0,0,0,0,0l0,0c0,0,0,0,0,0.1c0,0-0.1,0.1-0.1,0.1c-0.1,0.2-0.2,0.4-0.2,0.5
		c-0.1,0.4-0.2,0.8-0.2,1.2c0,0.4,0.2,0.8,0.4,1.2c0.1,0.2,0.2,0.4,0.3,0.5c0.1,0.2,0.3,0.3,0.5,0.4c0.1,0.1,0.2,0.1,0.3,0.2
		c0.1,0.1,0.2,0.1,0.3,0.2c0.2,0.1,0.4,0.2,0.6,0.2c0.4,0.1,0.8,0.2,1.2,0.2c0.4,0,0.8-0.1,1.2-0.2c0.4-0.1,0.7-0.4,1-0.6
		c0.1-0.1,0.2-0.1,0.2-0.2c0.1-0.1,0.1-0.1,0.2-0.2c0.1-0.1,0.2-0.2,0.3-0.3c0.1,0.1,0.2,0.2,0.3,0.3c0.1,0.1,0.1,0.2,0.2,0.2
		c0.1,0.1,0.2,0.1,0.2,0.2c0.3,0.3,0.7,0.5,1,0.6c0.4,0.1,0.8,0.2,1.2,0.2c0.4,0,0.8,0,1.2-0.2c0.2-0.1,0.4-0.1,0.6-0.2
		c0.1-0.1,0.2-0.1,0.3-0.2c0.1,0,0.2-0.1,0.3-0.2c0.2-0.1,0.3-0.3,0.5-0.4c0.1-0.2,0.3-0.3,0.4-0.5c0.2-0.4,0.3-0.8,0.3-1.2
		c0-0.4,0-0.8-0.1-1.2c-0.1-0.2-0.1-0.4-0.2-0.5c0,0,0-0.1-0.1-0.1c0,0,0,0,0-0.1l0,0l0,0l0,0v0l0,0l0,0l0,0c0,0,0,0,0-0.1
		c0,0-0.1-0.1-0.1-0.1c-0.1-0.1-0.3-0.3-0.4-0.4c-0.2-0.1-0.3-0.2-0.5-0.3c-0.3-0.1-0.7-0.2-1-0.2c-0.3,0-0.6,0.1-0.8,0.2
		c-0.2,0.1-0.4,0.2-0.5,0.4c-0.1,0.1-0.2,0.3-0.2,0.4c0,0.1,0,0.3,0.1,0.4c0.1,0.1,0.2,0.2,0.3,0.3c0.1,0.1,0.2,0.1,0.3,0.2
		c0.1,0,0.2,0.1,0.2,0.1c0.1,0,0.1,0,0.2,0.1c0.1,0,0.1,0,0.2,0c0.1,0,0.1,0,0.2,0c0.1,0,0.2,0,0.3,0c0.1,0,0.2,0.1,0.3,0.1
		c0,0,0,0,0,0c0,0,0,0,0,0l0,0l0,0h0h0c0,0,0,0,0,0l0,0h0h0l0,0c0,0,0,0,0,0c0.1,0.1,0.1,0.1,0.2,0.2c0.1,0.1,0.2,0.3,0.3,0.5
		c0.1,0.2,0.1,0.4,0.1,0.6c0,0.2,0,0.4-0.1,0.7c0,0.1-0.1,0.2-0.2,0.3c0,0-0.1,0.1-0.1,0.1c0,0,0,0.1-0.1,0.1c0,0-0.1,0.1-0.1,0.1
		c-0.2,0.2-0.4,0.4-0.7,0.5c-0.3,0.1-0.6,0.2-0.9,0.2c-0.3,0-0.6,0-0.9-0.1c-0.2-0.1-0.4-0.2-0.6-0.3c-0.2-0.1-0.4-0.2-0.5-0.4
		c0,0-0.1-0.1-0.1-0.1c0,0,0,0-0.1,0c0,0,0,0-0.1-0.1c-0.1-0.1-0.1-0.2-0.2-0.2c-0.1-0.1-0.1-0.2-0.2-0.2c0.2-0.3,0.4-0.6,0.5-1
		c0.1-0.3,0.2-0.6,0.3-0.9c0.1-0.3,0.1-0.6,0.1-0.9c0-0.3-0.1-0.6-0.2-0.9c-0.1-0.3-0.2-0.6-0.4-0.9c-0.1-0.2-0.2-0.4-0.4-0.6
		c0.1-0.1,0.1-0.1,0.2-0.2c0,0,0.1-0.1,0.1-0.1c0,0,0.1-0.1,0.1-0.1c0.3-0.3,0.6-0.6,1-0.8c0.4-0.2,0.9-0.4,1.4-0.6
		c0.5-0.1,1.1-0.2,1.7-0.2c0.3,0,0.7,0,0.9,0c0.6,0.7,1.3,1.4,2,2.1c1,0.9,2.2,1.8,3.5,2.6c1.3,0.8,2.7,1.5,4.3,2.1
		c1.5,0.6,3.2,1,5,1.2c1.7,0.2,3.6,0.3,5.4,0.1c1.5-0.1,3-0.5,4.5-1c0.1,0,0.2,0,0.3,0c0.5-0.1,1.1-0.2,1.8-0.5
		c0.7-0.2,1.4-0.5,2.2-1c0.8-0.4,1.6-1,2.5-1.6c0.8-0.7,1.7-1.4,2.5-2.4c0.8-0.9,1.5-2,2.2-3.1c0.7-1.1,1.2-2.4,1.6-3.8
		c0.3-0.9,0.5-1.8,0.6-2.7c1.7-2.6,3.3-5.3,4.5-8.2c0.6-0.1,1.3-0.1,1.9,0c1.2,0.1,2.3,0.4,3.4,0.8c1.1,0.5,2.2,1.1,3.1,1.9
		c0.9,0.8,1.8,1.8,2.4,2.9c0.3,0.6,0.6,1.1,0.8,1.7c0.1,0.1,0.1,0.3,0.2,0.5c0,0.1,0,0.1,0.1,0.2c0,0.1,0,0.1,0.1,0.2
		c0.1,0.3,0.1,0.6,0.2,0.9c0.2,1.2,0.1,2.4-0.2,3.5c-0.3,1.1-0.8,2.2-1.5,3.1c-0.7,0.9-1.5,1.6-2.4,2.2c-0.5,0.3-0.9,0.5-1.4,0.7
		c-0.1,0-0.2,0.1-0.4,0.1c-0.1,0-0.3,0.1-0.4,0.1c-0.2,0.1-0.5,0.1-0.7,0.2c-1,0.2-1.9,0.1-2.8-0.1c-0.9-0.2-1.7-0.6-2.4-1.2
		c-0.7-0.5-1.2-1.2-1.6-1.8c-0.2-0.3-0.4-0.7-0.5-1c-0.1-0.2-0.1-0.3-0.2-0.5c0-0.2-0.1-0.3-0.1-0.5c-0.1-0.7-0.1-1.3,0-1.9
		c0.1-0.6,0.3-1.1,0.5-1.6c0.2-0.5,0.5-0.9,0.8-1.2c0.3-0.3,0.6-0.6,0.9-0.8c0.3-0.2,0.5-0.3,0.7-0.5c0.2-0.1,0.4-0.2,0.5-0.2
		c0.1-0.1,0.2-0.1,0.2-0.1c0,0-0.1,0-0.2,0c-0.1,0-0.3,0.1-0.5,0.1c-0.2,0.1-0.5,0.2-0.8,0.4c-0.3,0.2-0.6,0.4-1,0.7
		c-0.3,0.3-0.7,0.7-1,1.2c-0.3,0.5-0.5,1.1-0.7,1.7c-0.1,0.7-0.2,1.4,0,2.1c0,0,0,0.1,0,0.1c0,0.1,0,0.2,0,0.2
		c0,0.2,0.1,0.4,0.1,0.6c0,0.2,0.1,0.4,0.2,0.5c0.1,0.3,0.3,0.7,0.4,1c0.3,0.6,0.6,1.1,1,1.6c0.4,0.5,0.8,0.8,1.2,1.2
		c0.4,0.3,0.8,0.6,1.1,0.8c0.4,0.2,0.7,0.4,1.1,0.6c0.7,0.3,1.3,0.5,1.9,0.7c0.6,0.1,1.1,0.2,1.5,0.3c0.5,0,1,0,1.4,0
		c0.5-0.1,1-0.2,1.6-0.4c0.6-0.2,1.2-0.5,1.9-1c0.9-0.6,1.7-1.4,2.3-2.3c0.5-0.7,1-1.5,1.3-2.4c0,0.3-0.1,0.6,0,0.9
		c0,0.5,0.1,1,0.3,1.4c0.2,0.5,0.4,1,0.7,1.4c0.3,0.5,0.7,0.9,1.1,1.2c0.4,0.4,0.9,0.6,1.5,0.8c0.1,0.1,0.3,0.1,0.4,0.1l0.1,0l0.1,0
		c0,0,0.1,0,0.1,0c0.1,0,0.1,0,0.2,0c0.3,0,0.6,0.1,0.9,0.1c0.3,0,0.6-0.1,0.9-0.1c0.3-0.1,0.6-0.2,0.8-0.3c0.3-0.1,0.5-0.3,0.7-0.5
		c0.2-0.2,0.4-0.4,0.6-0.6c0.2-0.3,0.5-0.7,0.6-1c0.1-0.2,0.2-0.4,0.2-0.6c0-0.1,0.1-0.2,0.1-0.3c0-0.1,0-0.2,0.1-0.3
		C146.9,116.8,146.9,116.4,146.9,116z M37.9,115.1c-0.6-0.8-1.2-1.8-1.7-2.8c-0.5-1-1-2.1-1.3-3.2c-0.4-1.1-0.6-2.3-0.7-3.4
		c-0.1-1.1-0.1-2.2-0.1-3.2c0,0,0,0,0-0.1c0.7,0.6,1.4,1.3,1.9,1.9c0.6,0.7,1.1,1.5,1.5,2.3c0.4,0.8,0.7,1.5,1,2.3
		c0.3,0.7,0.4,1.5,0.6,2.1c0.3,1.4,0.3,2.6,0.2,3.6c0,0.8-0.1,1.5-0.2,2C38.7,116.1,38.3,115.7,37.9,115.1z M70.3,115.2
		c-0.1,0-0.1,0-0.2,0c0,0,0,0,0,0c-0.2,0-0.3,0-0.4,0.1c0.2-0.2,0.4-0.5,0.6-0.7c0.6-0.8,1.2-1.6,1.7-2.4c0.4,0.4,0.9,0.8,1.3,1.1
		c0.4,0.3,0.8,0.5,1.3,0.7c-0.9,0.4-1.8,0.7-2.5,0.9C71.4,115,70.8,115.1,70.3,115.2z M67.5,103.2c0,0.5,0.1,1,0.2,1.5
		c0,0.2,0.1,0.5,0.2,0.7c-0.3-0.2-0.6-0.3-0.9-0.6c-0.6-0.4-1.2-1-1.6-1.7c-0.4-0.7-0.7-1.5-0.8-2.3c0-0.2,0-0.4,0-0.6
		c0-0.1,0-0.2,0-0.3c0-0.1,0-0.2,0-0.3c0-0.5,0.1-0.9,0.2-1.4c0.2-0.9,0.7-1.8,1.2-2.6c0.6-0.8,1.3-1.5,2.2-2c0.9-0.5,1.9-0.9,2.9-1
		c0.3,0,0.5-0.1,0.8-0.1c0.1,0,0.1,0,0.2,0c0.1,0,0.1,0,0.2,0c0.1,0,0.3,0,0.4,0c0.2,0,0.3,0,0.5,0c-0.8,0.5-1.6,1.1-2.3,1.8
		c-0.4,0.4-0.8,0.8-1.1,1.2c-0.7,0.9-1.3,1.9-1.7,2.9c-0.4,1-0.6,2.1-0.7,3.2c0,0.3,0,0.5,0,0.8C67.5,102.6,67.5,102.9,67.5,103.2z
		 M68.3,102.2c0-0.1,0-0.1,0-0.2c0-0.1,0-0.2,0-0.4c0.1-1,0.3-2,0.6-2.9c0.4-0.9,0.9-1.9,1.5-2.7c0.7-0.8,1.5-1.5,2.4-2.1
		c0.7-0.4,1.4-0.8,2.2-1c0.8,0.3,1.5,0.6,2.2,1c0.9,0.6,1.7,1.3,2.4,2.1c0.7,0.8,1.2,1.7,1.6,2.7c0.4,1,0.6,1.9,0.6,2.9
		c0,0.1,0,0.2,0,0.4c0,0.1,0,0.1,0,0.2v0.2c0,0.2,0,0.5,0,0.7c0,0.5-0.1,1-0.2,1.4c-0.1,0.4-0.2,0.8-0.3,1.2c0,0-0.1,0-0.1,0
		c-0.3,0.1-0.7,0.2-1,0.2c-0.2,0-0.3,0-0.5,0c-0.2,0-0.3,0-0.5,0c-0.6,0-1.1-0.2-1.6-0.4c-0.5-0.2-0.9-0.5-1.2-0.9
		c-0.3-0.3-0.6-0.7-0.8-1c-0.2-0.3-0.3-0.6-0.4-0.9c-0.1-0.3-0.2-0.5-0.2-0.7c0-0.2-0.1-0.4-0.1-0.5c0-0.1,0-0.2,0-0.2
		c0,0,0,0.1-0.1,0.2c0,0.1,0,0.3-0.1,0.5c0,0.2-0.1,0.4-0.2,0.7c-0.1,0.3-0.2,0.6-0.4,0.9c-0.2,0.3-0.4,0.7-0.8,1
		c-0.3,0.3-0.7,0.6-1.2,0.9c-0.5,0.2-1,0.4-1.6,0.4c-0.1,0-0.3,0-0.5,0c-0.2,0-0.3,0-0.5,0c-0.3,0-0.7-0.1-1-0.2c0,0-0.1,0-0.1,0
		c-0.1-0.4-0.2-0.8-0.3-1.2c-0.1-0.5-0.1-0.9-0.2-1.4c0-0.2,0-0.5,0-0.7V102.2z M74.9,82.1c0,0.2,0,0.3,0,0.5c0,0.1,0,0.1,0,0.2
		c0,0,0,0,0,0c0,0.1,0,0.1,0,0.2c0,0,0,0,0,0c0,0,0,0.1-0.1,0.1c-0.1,0.1-0.1,0.1-0.2,0.2c-0.1,0.1-0.2,0.1-0.3,0.1
		c-0.1,0-0.2,0-0.3,0.1c-0.1,0-0.1,0-0.2,0c0,0-0.1,0-0.1,0c0,0,0,0,0.1,0.1c0,0,0.1,0.1,0.2,0.1c0.1,0,0.2,0,0.3,0
		c0.1,0,0.2-0.1,0.4-0.1c0.1-0.1,0.2-0.2,0.3-0.3c0,0,0,0,0,0c0,0,0,0,0,0c0.1,0.1,0.2,0.2,0.3,0.3c0.1,0.1,0.2,0.1,0.4,0.1
		c0.1,0,0.2,0,0.3,0c0.1,0,0.2,0,0.2-0.1c0,0,0.1-0.1,0.1-0.1c0,0,0,0-0.1,0c0,0-0.1,0-0.2,0c-0.1,0-0.2,0-0.2-0.1
		c-0.1,0-0.2-0.1-0.3-0.1c-0.1,0-0.2-0.1-0.2-0.2c0,0,0-0.1-0.1-0.1c0,0,0,0,0,0c0-0.1,0-0.2,0-0.2c0,0,0,0,0,0c0-0.1,0-0.1,0-0.2
		c0-0.1,0-0.3,0-0.5c0-0.1-0.1-0.3-0.1-0.4c0,0,0,0,0,0c0.1-0.1,0.2-0.3,0.3-0.4c0.1-0.1,0.1-0.1,0.2-0.1c0,0,0.1,0,0.1,0
		c0,0,0,0,0.1,0c0,0,0,0,0.1,0c0.2,0,0.4-0.1,0.6,0c0.2,0,0.4,0.1,0.6,0.2c0.1,0,0.2,0.1,0.2,0.1c0.1,0.1,0.2,0.2,0.3,0.3
		c0.1,0.1,0.1,0.2,0.1,0.3c0,0.1,0.1,0.2,0.1,0.3c0,0.1,0,0.2,0.1,0.4c0,0.1,0,0.3,0,0.4c0,0.1,0,0.3-0.1,0.4c0,0.1-0.1,0.2-0.1,0.3
		c0,0.1-0.1,0.1-0.1,0.2c-0.1,0-0.2,0-0.3,0c-0.1,0-0.2,0-0.3,0c-0.1,0-0.2,0-0.3,0.1c-0.2,0.1-0.4,0.1-0.5,0.2
		c-0.2,0.1-0.4,0.2-0.5,0.3c-0.1,0.1-0.2,0.1-0.4,0.2c-0.1,0-0.1,0-0.2,0.1c-0.1,0-0.1,0-0.2-0.1c-0.1-0.1-0.3-0.1-0.4-0.2
		c-0.2-0.1-0.4-0.2-0.5-0.3c-0.2-0.1-0.3-0.1-0.5-0.2c-0.1,0-0.2,0-0.3-0.1c-0.1,0-0.2,0-0.3,0c-0.1,0-0.2,0-0.3,0
		c0-0.1-0.1-0.1-0.1-0.2c-0.1-0.1-0.1-0.2-0.1-0.3c0-0.1-0.1-0.3-0.1-0.4c0-0.1,0-0.3,0-0.4c0-0.1,0-0.2,0-0.4
		c0-0.1,0.1-0.2,0.1-0.3c0-0.1,0.1-0.2,0.1-0.3c0.1-0.1,0.2-0.2,0.3-0.3c0.1,0,0.1-0.1,0.2-0.1c0.2-0.1,0.4-0.2,0.6-0.2
		c0.2,0,0.4,0,0.6,0c0,0,0,0,0.1,0c0,0,0,0,0.1,0c0,0,0.1,0,0.1,0c0.1,0,0.2,0.1,0.2,0.1c0.1,0.1,0.3,0.2,0.3,0.4c0,0,0,0,0,0
		C75,81.8,75,82,74.9,82.1z M75.1,81.8c0,0.1,0.1,0.2,0.1,0.3c0,0.1,0,0.3,0,0.4c0,0.1,0,0.1,0,0.2l0,0c0,0,0,0.1-0.1,0.1
		c0,0,0-0.1-0.1-0.1c0,0,0,0,0,0c0-0.1,0-0.1,0-0.2c0-0.1,0-0.3,0-0.4C75.1,82,75.1,81.9,75.1,81.8z M78.8,87.9L78.8,87.9L78.8,87.9
		L78.8,87.9L78.8,87.9C78.8,87.9,78.8,87.9,78.8,87.9c-0.2,0-0.3,0-0.3,0c-0.1,0-0.1-0.1-0.2-0.1c-0.1,0-0.1-0.1-0.2-0.1
		c-0.1,0-0.1-0.1-0.2-0.1c-0.1,0-0.1,0-0.2-0.1c-0.1,0-0.1,0-0.2,0c-0.1,0-0.2,0-0.3,0c-0.1,0-0.2,0.1-0.3,0.1
		c-0.1,0.1-0.2,0.1-0.3,0.3c0,0,0,0.1,0,0.1c0-0.1,0-0.2,0-0.3c0-0.3-0.1-0.6-0.2-0.8c-0.1-0.3-0.2-0.5-0.3-0.8
		c-0.1-0.2-0.3-0.5-0.5-0.7c-0.1-0.1-0.2-0.2-0.2-0.2c0.1-0.1,0.1-0.1,0.2-0.1c0.1,0,0.3,0,0.4,0c0.2,0,0.4,0,0.6-0.1
		c0.2,0,0.3-0.1,0.5-0.2c0,0,0,0,0,0c0.1,0,0.1,0,0.2-0.1c0.1,0,0.1-0.1,0.2-0.2c0.1-0.1,0.2-0.1,0.2-0.2c0,0,0,0,0.1,0
		c0.2,0,0.4,0,0.6,0.1c0.3,0.1,0.5,0.2,0.8,0.3c0.2,0.2,0.4,0.4,0.6,0.6c0.1,0.2,0.3,0.5,0.3,0.7c0,0,0,0.1,0,0.1c0,0,0,0.1,0,0.1
		c0,0.1,0,0.1,0,0.2c0,0.1,0,0.2,0,0.3c0,0.2-0.1,0.4-0.2,0.6c-0.1,0.2-0.2,0.3-0.4,0.4c-0.1,0.1-0.3,0.2-0.4,0.2
		C79.1,87.8,79,87.8,78.8,87.9C78.9,87.9,78.9,87.9,78.8,87.9L78.8,87.9L78.8,87.9L78.8,87.9L78.8,87.9L78.8,87.9L78.8,87.9z
		 M75.7,84.9c0.2-0.1,0.3-0.2,0.5-0.3c0.2-0.1,0.3-0.1,0.5-0.2c0.1,0,0.2-0.1,0.3-0.1c0,0,0,0,0.1,0c0,0,0,0,0.1,0c0,0,0.1,0,0.1,0
		c0,0,0.1,0,0.1,0c-0.1,0.1-0.2,0.2-0.3,0.3c-0.2,0.1-0.3,0.2-0.5,0.2c-0.2,0.1-0.4,0.1-0.6,0.1C75.9,84.9,75.8,84.9,75.7,84.9z
		 M75.2,84.9C75.2,84.9,75.2,84.9,75.2,84.9C75.1,84.9,75.1,84.9,75.2,84.9C75.1,84.9,75.1,84.9,75.2,84.9
		C75.2,84.9,75.2,84.9,75.2,84.9z M74.6,84.9c-0.1,0-0.2,0-0.3,0c-0.2,0-0.4,0-0.6-0.1c-0.2,0-0.3-0.1-0.5-0.2
		c-0.1-0.1-0.2-0.2-0.3-0.3c0,0,0.1,0,0.1,0c0,0,0.1,0,0.1,0c0,0,0,0,0.1,0c0,0,0.1,0,0.1,0c0.1,0,0.2,0,0.3,0.1
		c0.2,0.1,0.4,0.1,0.5,0.2C74.3,84.7,74.4,84.8,74.6,84.9z M72.4,84.3C72.5,84.3,72.5,84.3,72.4,84.3c0.1,0.1,0.2,0.2,0.3,0.2
		c0.1,0.1,0.2,0.1,0.2,0.2c0.1,0,0.1,0.1,0.2,0.1c0,0,0,0,0,0c0.2,0.1,0.3,0.2,0.5,0.2c0.2,0,0.4,0.1,0.6,0.1c0.1,0,0.3,0,0.4,0
		c0.1,0,0.1,0.1,0.2,0.1c-0.1,0.1-0.2,0.2-0.2,0.2c-0.2,0.2-0.3,0.4-0.5,0.7c-0.1,0.2-0.2,0.5-0.3,0.8c-0.1,0.3-0.1,0.6-0.2,0.8
		c0,0.1,0,0.2,0,0.3c0,0,0-0.1,0-0.1c-0.1-0.1-0.2-0.2-0.3-0.3c-0.1-0.1-0.2-0.1-0.3-0.1c-0.1,0-0.2,0-0.3,0c-0.1,0-0.2,0-0.2,0
		c-0.1,0-0.1,0-0.2,0.1c-0.1,0-0.1,0-0.2,0.1c-0.1,0-0.1,0.1-0.2,0.1c-0.1,0-0.1,0.1-0.2,0.1c-0.1,0-0.2,0-0.3,0c0,0,0,0,0,0
		c0,0,0,0,0,0l0,0v0l0,0l0,0h0l0,0h0h0c0,0,0,0-0.1,0c-0.1,0-0.1,0-0.2-0.1c-0.1,0-0.3-0.1-0.4-0.2c-0.1-0.1-0.3-0.2-0.4-0.4
		c-0.1-0.2-0.2-0.4-0.2-0.6c0-0.1,0-0.2,0-0.3c0-0.1,0-0.1,0-0.2c0,0,0-0.1,0-0.1c0,0,0-0.1,0-0.1c0.1-0.2,0.2-0.5,0.3-0.7
		c0.1-0.2,0.3-0.4,0.6-0.6c0.2-0.2,0.5-0.3,0.8-0.3C72,84.3,72.3,84.3,72.4,84.3z M74.1,87.1c0.1-0.3,0.2-0.5,0.3-0.7
		c0.1-0.2,0.2-0.4,0.4-0.6c0.1-0.1,0.2-0.3,0.4-0.4c0.1,0.1,0.3,0.2,0.4,0.4c0.1,0.2,0.3,0.4,0.4,0.6c0.1,0.2,0.2,0.5,0.3,0.7
		c0.1,0.3,0.1,0.6,0.1,0.9c0,0.2,0,0.3,0,0.5c0,0.1,0,0.2,0,0.3c0,0,0,0.1,0,0.1c0,0,0,0.1,0,0.1c-0.1,0.4-0.2,0.7-0.4,1.1
		c-0.2,0.3-0.4,0.6-0.6,0.9c-0.3-0.3-0.5-0.6-0.6-0.9c-0.2-0.4-0.3-0.7-0.4-1.1c0,0,0-0.1,0-0.1c0,0,0-0.1,0-0.1c0-0.1,0-0.2,0-0.3
		c0-0.2,0-0.3,0-0.5C74,87.7,74,87.4,74.1,87.1z M75.1,91.3C75.2,91.4,75.2,91.4,75.1,91.3c0.1,0.1,0,0.1,0,0.1
		C75.1,91.5,75.1,91.5,75.1,91.3C75.1,91.4,75.1,91.4,75.1,91.3z M82.8,101.6c-0.1-1.1-0.3-2.1-0.7-3.2c-0.4-1-1-2-1.7-2.9
		c-0.3-0.4-0.7-0.8-1.1-1.2c-0.7-0.7-1.5-1.3-2.3-1.8c0.2,0,0.3,0,0.5,0c0.1,0,0.3,0,0.4,0c0.1,0,0.1,0,0.2,0c0.1,0,0.1,0,0.2,0
		c0.3,0,0.5,0,0.8,0.1c1,0.1,2,0.5,2.9,1c0.9,0.5,1.6,1.2,2.2,2c0.6,0.8,1,1.7,1.2,2.6c0.1,0.4,0.2,0.9,0.2,1.4c0,0.1,0,0.2,0,0.3
		c0,0.1,0,0.2,0,0.3c0,0.2,0,0.4,0,0.6c-0.1,0.8-0.4,1.6-0.8,2.3c-0.4,0.7-1,1.3-1.6,1.7c-0.3,0.2-0.6,0.4-0.9,0.5
		c0.1-0.2,0.1-0.4,0.1-0.7c0.1-0.5,0.2-1,0.2-1.5c0-0.3,0-0.5,0-0.8C82.8,102.1,82.8,101.9,82.8,101.6z M76.3,106.3
		c-0.3-0.9-0.5-1.7-0.7-2.4c0.2,0.3,0.4,0.7,0.7,1c0.3,0.4,0.8,0.7,1.3,1c0.5,0.3,1.1,0.5,1.8,0.6c0,0,0.1,0,0.1,0
		c0.1,0,0.1,0,0.2,0c0.2,0,0.3,0,0.5,0c0.2,0,0.3,0,0.5,0c0.2,0,0.4,0,0.5-0.1c-0.1,0.2-0.1,0.4-0.2,0.6c-0.3,0.8-0.8,1.6-1.2,2.3
		c-0.4,0.6-0.8,1.1-1.3,1.6C77.5,109.3,76.8,107.7,76.3,106.3z M78,111.6c-0.4,0.4-0.9,0.8-1.3,1.1c-0.5,0.4-1,0.7-1.5,0.9
		c-0.5-0.3-1-0.6-1.5-0.9c-0.5-0.3-0.9-0.7-1.3-1.1c1.1-1.9,1.7-3.7,2.2-5.1c0.4-1.5,0.6-2.7,0.7-3.5c0-0.1,0-0.2,0-0.2
		c0,0.1,0,0.2,0,0.2c0.1,0.8,0.3,2,0.7,3.5C76.2,107.9,76.9,109.7,78,111.6z M69.6,106.6c0.2,0,0.3,0,0.5,0c0.2,0,0.3,0,0.5,0
		c0.1,0,0.1,0,0.2,0c0,0,0.1,0,0.1,0c0.7-0.1,1.3-0.3,1.8-0.6c0.5-0.3,0.9-0.6,1.3-1c0.3-0.3,0.5-0.7,0.7-1
		c-0.2,0.7-0.4,1.4-0.7,2.3c-0.5,1.4-1.2,3-2.2,4.8c-0.5-0.5-0.9-1-1.3-1.6c-0.5-0.7-0.9-1.4-1.2-2.3c-0.1-0.2-0.2-0.4-0.2-0.6
		C69.2,106.6,69.4,106.6,69.6,106.6z M75.7,118.8c0.1,0.3,0.1,0.6,0.2,0.9c0,0.3,0,0.5,0,0.8c0,0.3-0.1,0.5-0.1,0.7
		c-0.1,0.2-0.1,0.4-0.2,0.6c-0.1,0.2-0.2,0.4-0.3,0.5c-0.1-0.2-0.2-0.3-0.3-0.5c-0.1-0.2-0.2-0.4-0.2-0.6c-0.1-0.2-0.1-0.5-0.1-0.7
		c0-0.2,0-0.5,0-0.8c0-0.3,0.1-0.6,0.2-0.9c0.1-0.3,0.2-0.6,0.4-0.9c0-0.1,0.1-0.1,0.1-0.2c0,0.1,0.1,0.1,0.1,0.2
		C75.5,118.2,75.6,118.5,75.7,118.8z M77.4,115.6c-0.6,0.2-1.1,0.5-1.6,0.9c-0.1,0.1-0.2,0.2-0.3,0.3l0,0l0,0c0,0-0.1,0.1-0.1,0.1
		c0,0.1-0.1,0.1-0.1,0.2c0-0.1-0.1-0.1-0.1-0.2c0,0-0.1-0.1-0.1-0.1l0,0l0,0c-0.1-0.1-0.2-0.2-0.3-0.3c-0.5-0.4-1-0.7-1.6-0.9
		c-0.4-0.1-0.8-0.2-1.1-0.3c0.1,0,0.2,0,0.4-0.1c0.8-0.2,1.9-0.4,3-1c1.1,0.5,2.2,0.8,3,1c0.1,0,0.3,0,0.4,0.1
		C78.1,115.3,77.7,115.4,77.4,115.6z M80.2,115.2C80.2,115.2,80.2,115.2,80.2,115.2c-0.1,0-0.2,0-0.2,0c-0.4-0.1-1-0.2-1.7-0.3
		c-0.7-0.2-1.6-0.5-2.5-0.9c0.4-0.2,0.8-0.5,1.3-0.7c0.4-0.3,0.9-0.7,1.3-1.1c0.5,0.8,1,1.6,1.7,2.4c0.2,0.2,0.4,0.5,0.6,0.7
		C80.5,115.3,80.3,115.2,80.2,115.2z M116.2,105.8c-0.1,1.1-0.4,2.3-0.7,3.4c-0.3,1.1-0.8,2.2-1.3,3.2c-0.5,1-1.1,1.9-1.7,2.8
		c-0.4,0.5-0.8,1-1.2,1.4c-0.1-0.5-0.2-1.1-0.2-2c0-1,0-2.2,0.2-3.6c0.1-0.7,0.3-1.4,0.6-2.1c0.3-0.7,0.6-1.5,1-2.3
		c0.4-0.8,0.9-1.5,1.5-2.3c0.6-0.7,1.2-1.3,1.9-1.9c0,0,0,0,0,0.1C116.3,103.6,116.3,104.7,116.2,105.8z M115.5,94.2
		c-0.5-0.5-1-0.9-1.4-1.2c-0.1-0.1-0.1-0.1-0.2-0.2c-0.5-0.5-1-0.9-1.5-1.3c-1.5-1.2-3.3-2.1-5.1-2.7c-1.8-0.5-3.7-0.7-5.4-0.6
		c-0.2,0-0.4,0-0.7,0.1c-0.2,0-0.4,0.1-0.7,0.1c-0.4,0.1-0.9,0.2-1.3,0.3c-0.8,0.2-1.6,0.5-2.4,0.9c-1.5,0.8-2.8,1.8-3.8,2.9
		c-1,1.2-1.8,2.5-2.3,3.8c-0.5,1.3-0.7,2.7-0.8,3.9c0,0.5,0,1.1,0.1,1.6c0,0.1-0.1,0.2-0.1,0.3c-0.1,0.4-0.1,1.1,0,1.8
		c0.1,0.8,0.4,1.7,0.9,2.6c0.5,0.9,1.2,1.9,2.1,2.7c0.9,0.8,1.9,1.4,2.9,1.7c1,0.3,1.9,0.5,2.7,0.5c0.8,0,1.4-0.1,1.8-0.3
		c0.4-0.2,0.6-0.4,0.6-0.5c0-0.2-0.2-0.3-0.6-0.4c-0.4-0.1-0.9-0.3-1.5-0.5c-0.6-0.2-1.3-0.5-2.1-0.8c-0.7-0.4-1.5-0.9-2.2-1.5
		c-0.7-0.6-1.3-1.3-1.8-2c-0.5-0.7-0.8-1.3-1.1-1.9c-0.3-0.6-0.5-1.1-0.7-1.4c0,0,0-0.1-0.1-0.1c-0.1-0.5-0.1-1.1,0-1.7
		c0.1-1.2,0.3-2.4,0.8-3.7c0.5-1.2,1.2-2.4,2.2-3.5c1-1.1,2.2-2,3.5-2.7c0,0,0.1,0,0.1-0.1c-0.2,0.1-0.5,0.3-0.7,0.5
		c-0.3,0.2-0.7,0.5-1,0.8c-0.3,0.3-0.6,0.7-0.9,1.1c-0.3,0.4-0.6,0.9-0.8,1.4c-0.2,0.5-0.4,1.1-0.5,1.7c-0.1,0.6-0.2,1.2-0.2,1.9
		c0,0.3,0,0.7,0.1,1c0,0.2,0,0.3,0.1,0.5c0,0.2,0.1,0.3,0.1,0.5c0.2,0.7,0.4,1.3,0.8,1.9c0.4,0.6,0.9,1.2,1.4,1.6
		c0.3,0.2,0.5,0.4,0.8,0.6c0.5,0.4,1.1,0.7,1.7,0.9c0.6,0.2,1.3,0.4,1.9,0.5c0.3,0,0.6,0,1,0c0.2,0,0.3,0,0.5,0c0.2,0,0.3,0,0.5-0.1
		c0.6-0.1,1.2-0.3,1.8-0.6c0.6-0.3,1.1-0.7,1.5-1.1c0.4-0.4,0.8-0.9,1-1.5c0.3-0.6,0.4-1.2,0.5-1.7c0-0.5,0-0.9,0-1.2
		c-0.1-0.3-0.1-0.6-0.2-0.9c-0.1-0.3-0.2-0.5-0.4-0.7c-0.2-0.2-0.3-0.4-0.5-0.7c-0.2-0.2-0.5-0.5-0.8-0.7c-0.2-0.1-0.4-0.2-0.6-0.4
		c-0.2-0.1-0.4-0.2-0.7-0.3c-0.3-0.1-0.6-0.2-0.9-0.3c-0.3-0.1-0.7-0.1-1.1-0.1c-0.2,0-0.4,0-0.6,0.1c-0.1,0-0.2,0-0.3,0.1
		c-0.1,0-0.2,0.1-0.3,0.1c0,0-0.1,0-0.1,0c0,0,0,0-0.1,0c-0.4,0.1-0.8,0.3-1.1,0.6c-0.3,0.2-0.5,0.5-0.7,0.8
		c-0.2,0.3-0.3,0.5-0.4,0.8c-0.1,0.3-0.1,0.5-0.1,0.7c0,0.2,0,0.4,0,0.5c0,0.1,0,0.2,0.1,0.3c0,0.1,0,0.1,0,0.1c0,0,0,0,0-0.1
		c0-0.1,0-0.2,0-0.3c0-0.1,0-0.3,0-0.5c0-0.2,0.1-0.4,0.2-0.6c0.1-0.2,0.2-0.5,0.4-0.7c0.2-0.2,0.4-0.5,0.6-0.7
		c0.3-0.2,0.6-0.4,1-0.5c0.1,0,0.2,0,0.3-0.1c0.1,0,0.2,0,0.3,0c0.2,0,0.4,0,0.6,0c0.4,0,0.9,0.1,1.3,0.3c0.4,0.2,0.9,0.5,1.2,0.9
		c0.3,0.4,0.6,0.8,0.8,1.4c0,0.1,0.1,0.3,0.1,0.4c0,0.1,0,0.1,0,0.2c0,0.1,0,0.1,0,0.2c0,0.3,0,0.6,0,0.9c0,0.6-0.2,1.2-0.4,1.8
		c-0.3,0.6-0.6,1.1-1.1,1.5c-0.5,0.4-1.1,0.8-1.7,1c-0.2,0.1-0.3,0.1-0.5,0.1c0,0-0.1,0-0.1,0c0,0-0.1,0-0.1,0c-0.1,0-0.2,0-0.3,0
		c-0.3,0.1-0.7,0.1-1.1,0.1c-0.7,0-1.4-0.2-2.1-0.4c-0.7-0.3-1.2-0.6-1.8-1c-0.5-0.4-1-0.9-1.3-1.5c-0.3-0.5-0.6-1.1-0.8-1.7
		c0-0.1,0-0.1-0.1-0.2c0,0,0-0.1,0-0.1l0-0.1c0-0.2-0.1-0.3-0.1-0.5c0-0.3-0.1-0.6-0.1-0.9c0-0.6,0-1.2,0.2-1.8
		c0.1-0.6,0.3-1.1,0.5-1.6c0.2-0.5,0.4-0.9,0.7-1.3c0.3-0.4,0.6-0.8,0.9-1.1c0.3-0.3,0.6-0.6,0.9-0.8c0.6-0.5,1.2-0.8,1.7-1.1
		c0.5-0.2,0.9-0.4,1.2-0.5c0,0,0,0,0,0c0.3-0.1,0.6-0.1,0.9-0.2c0.2,0,0.4,0,0.6-0.1c0.2,0,0.4,0,0.6-0.1c1.6-0.1,3.4,0.1,5,0.6
		c1.7,0.5,3.3,1.4,4.7,2.5c0.6,0.5,1.1,1,1.7,1.6c0.5,0.8,1.1,1.8,1.7,3.2c0.3,0.7,0.6,1.5,0.8,2.4c0.1,0.6,0.2,1.1,0.3,1.8
		c-0.1,0.1-0.2,0.1-0.3,0.2c-0.8,0.7-1.5,1.5-2.2,2.2c-0.6,0.8-1.1,1.6-1.5,2.4c-0.4,0.8-0.7,1.6-1,2.4c-0.2,0.8-0.4,1.5-0.5,2.3
		c-0.2,1.4-0.2,2.7-0.1,3.7c0.1,0.9,0.3,1.6,0.4,2.1c-0.8,0.9-1.7,1.7-2.5,2.3c-1.2,0.9-2.3,1.6-3.1,2.1c-1.5,0.6-3.1,0.9-4.6,1.1
		c-1.8,0.2-3.5,0.2-5.2,0c-1.7-0.2-3.3-0.6-4.7-1.1c-1.5-0.5-2.9-1.2-4.1-1.9c-1.3-0.7-2.4-1.6-3.4-2.4c-1-0.9-1.9-1.8-2.7-2.7
		c-0.7-0.8-1.3-1.6-1.8-2.4c0.5-0.5,1.1-1.1,1.5-1.8c0.5-0.7,1-1.5,1.3-2.4c0.2-0.4,0.3-0.7,0.4-1.1c0.4-0.1,0.7-0.2,1.1-0.3
		c0.5-0.2,0.9-0.4,1.3-0.7c0.4-0.3,0.7-0.5,1-0.8c0.3-0.3,0.5-0.5,0.8-0.8c0.4-0.5,0.8-1,1-1.4c0.3-0.4,0.5-0.8,0.6-1.2
		c0.2-0.4,0.3-0.8,0.4-1.2c0.1-0.4,0.1-0.9,0.1-1.4c0-0.5-0.1-1.2-0.3-1.9c-0.3-0.9-0.7-1.8-1.3-2.5c-0.6-0.8-1.3-1.4-2.1-2
		c-0.8-0.6-1.7-1-2.6-1.2c-0.9-0.3-1.9-0.4-2.9-0.4c-0.2,0-0.5,0-0.7,0.1c-0.2,0-0.5,0.1-0.7,0.1c-0.5,0.1-1,0.2-1.5,0.4
		c-0.2,0.1-0.4,0.1-0.6,0.2c-0.1-0.1-0.1-0.1-0.2-0.2c0.1-0.1,0.2-0.2,0.3-0.3c0.3-0.4,0.6-0.9,0.8-1.5c0-0.1,0.1-0.3,0.1-0.4l0,0
		l0-0.1c0,0,0-0.1,0-0.1c0-0.1,0-0.1,0-0.2c0-0.1,0-0.1,0-0.2c0,0.1,0.1,0.3,0.2,0.4c0.1,0.2,0.3,0.4,0.5,0.5
		c0.2,0.1,0.5,0.3,0.8,0.3c0.2,0,0.3,0,0.5,0c0.2,0,0.3,0,0.5-0.1c0,0,0.1,0,0.1,0c0,0,0,0,0.1,0l0,0l0,0l0,0l0,0l0,0c0,0,0,0,0,0
		l0,0c0,0,0,0,0.1,0c0,0,0.1,0,0.1-0.1c0.2-0.1,0.3-0.2,0.4-0.3c0.3-0.2,0.5-0.5,0.7-0.9c0.2-0.3,0.3-0.7,0.3-1.1c0-0.2,0-0.4,0-0.6
		c0-0.2-0.1-0.4-0.1-0.5c0-0.1-0.1-0.2-0.1-0.3c0-0.1-0.1-0.2-0.1-0.2c-0.1-0.2-0.2-0.3-0.3-0.4c-0.2-0.3-0.5-0.5-0.8-0.7
		c-0.3-0.2-0.7-0.3-1-0.4c-0.1,0-0.3,0-0.4,0c0,0,0,0,0,0c0.1-0.1,0.1-0.2,0.2-0.4c0-0.1,0.1-0.3,0.1-0.5c0-0.2,0-0.3,0-0.5
		c0-0.1,0-0.3-0.1-0.4c0-0.1-0.1-0.3-0.2-0.4c-0.1-0.1-0.1-0.2-0.2-0.3c-0.1-0.1-0.1-0.1-0.2-0.2c-0.1-0.1-0.1-0.1-0.2-0.1
		c0,0,0,0,0,0c-0.1,0-0.1-0.1-0.2-0.1c-0.2-0.1-0.4-0.2-0.6-0.2c-0.2,0-0.4,0-0.6,0c0,0-0.1,0-0.1,0c0,0,0,0-0.1,0
		c0,0-0.1,0-0.1,0.1c-0.1,0-0.2,0.1-0.2,0.2c-0.1,0.1-0.3,0.2-0.4,0.4c-0.1-0.1-0.2-0.3-0.4-0.4c-0.1-0.1-0.2-0.1-0.2-0.2
		c0,0-0.1,0-0.1-0.1c0,0,0,0-0.1,0c0,0,0,0-0.1,0c-0.2,0-0.4-0.1-0.6,0c-0.2,0-0.4,0.1-0.6,0.2c-0.1,0-0.1,0.1-0.2,0.1c0,0,0,0,0,0
		c-0.1,0-0.1,0.1-0.2,0.1c-0.1,0-0.1,0.1-0.2,0.2c-0.1,0.1-0.1,0.2-0.2,0.3c-0.1,0.1-0.1,0.2-0.2,0.4c0,0.1-0.1,0.3-0.1,0.4
		c0,0.2,0,0.3,0,0.5c0,0.2,0.1,0.3,0.1,0.5c0.1,0.1,0.1,0.3,0.2,0.4c0,0,0,0,0,0c-0.1,0-0.3,0-0.4,0c-0.4,0.1-0.7,0.2-1,0.4
		c-0.3,0.2-0.6,0.4-0.8,0.7c-0.1,0.1-0.2,0.3-0.3,0.4c-0.1,0.1-0.1,0.2-0.1,0.2c0,0.1-0.1,0.2-0.1,0.3c-0.1,0.2-0.1,0.4-0.1,0.5
		c0,0.2,0,0.4,0,0.6c0,0.4,0.1,0.7,0.3,1.1c0.2,0.3,0.4,0.6,0.7,0.9c0.1,0.1,0.3,0.2,0.4,0.3c0,0,0.1,0,0.1,0.1c0,0,0,0,0.1,0l0,0h0
		l0,0l0,0l0,0l0,0l0,0c0,0,0,0,0.1,0c0,0,0.1,0,0.1,0c0.2,0.1,0.3,0.1,0.5,0.1c0.2,0,0.3,0,0.5,0c0.3,0,0.6-0.2,0.8-0.3
		c0.2-0.1,0.4-0.3,0.5-0.5c0.1-0.2,0.2-0.3,0.2-0.4c0,0.1,0,0.1,0,0.2c0,0.1,0,0.1,0,0.2c0,0,0,0.1,0,0.1l0,0.1l0,0
		c0,0.1,0.1,0.3,0.1,0.4c0.2,0.5,0.4,1,0.8,1.5c0.1,0.1,0.2,0.2,0.3,0.3c-0.1,0.1-0.1,0.1-0.2,0.2c-0.2-0.1-0.4-0.1-0.6-0.2
		c-0.5-0.1-1-0.3-1.5-0.4c-0.2,0-0.5-0.1-0.7-0.1c-0.2,0-0.5,0-0.7-0.1c-1,0-2,0.1-2.9,0.4c-0.9,0.3-1.8,0.7-2.6,1.2
		c-0.8,0.6-1.5,1.2-2.1,2c-0.6,0.8-1,1.6-1.3,2.5c-0.2,0.7-0.3,1.3-0.3,1.9c0,0.5,0,1,0.1,1.4c0.1,0.4,0.2,0.8,0.4,1.2
		c0.2,0.4,0.4,0.8,0.6,1.2c0.3,0.4,0.6,0.9,1,1.4c0.2,0.3,0.5,0.5,0.8,0.8c0.3,0.3,0.6,0.5,1,0.8c0.4,0.2,0.8,0.5,1.3,0.7
		c0.3,0.1,0.7,0.2,1.1,0.3c0.1,0.4,0.3,0.7,0.4,1.1c0.4,0.9,0.8,1.7,1.3,2.4c0.5,0.7,1,1.3,1.5,1.8c-0.5,0.8-1.1,1.6-1.8,2.4
		c-0.8,0.9-1.7,1.9-2.7,2.7c-1,0.9-2.2,1.7-3.4,2.4c-1.3,0.7-2.6,1.4-4.1,1.9c-1.5,0.5-3.1,0.9-4.7,1.1c-1.7,0.2-3.4,0.2-5.2,0
		c-1.5-0.2-3.1-0.5-4.6-1.1c-0.8-0.5-1.9-1.1-3.1-2.1c-0.8-0.6-1.7-1.4-2.5-2.3c0.1-0.5,0.3-1.2,0.4-2.1c0.1-1,0.1-2.3-0.1-3.7
		c-0.1-0.7-0.3-1.5-0.5-2.3c-0.2-0.8-0.6-1.6-1-2.4c-0.4-0.8-0.9-1.6-1.5-2.4c-0.6-0.8-1.3-1.6-2.2-2.2c-0.1-0.1-0.2-0.1-0.3-0.2
		c0.1-0.6,0.2-1.2,0.3-1.8c0.2-0.9,0.5-1.7,0.8-2.4c0.6-1.4,1.2-2.4,1.7-3.2c0.5-0.6,1.1-1.1,1.7-1.6c1.4-1.1,3-2,4.7-2.5
		c1.7-0.5,3.4-0.7,5-0.6c0.2,0,0.4,0,0.6,0.1c0.2,0,0.4,0,0.6,0.1c0.3,0,0.6,0.1,0.9,0.2c0,0,0,0,0,0c0.3,0.1,0.7,0.2,1.2,0.5
		c0.5,0.2,1.1,0.6,1.7,1.1c0.3,0.2,0.6,0.5,0.9,0.8c0.3,0.3,0.6,0.7,0.9,1.1c0.3,0.4,0.5,0.9,0.7,1.3c0.2,0.5,0.4,1,0.5,1.6
		c0.1,0.6,0.2,1.1,0.1,1.8c0,0.3,0,0.6-0.1,0.9c0,0.2,0,0.3-0.1,0.5l0,0.1c0,0,0,0.1,0,0.1c0,0.1,0,0.2-0.1,0.2
		c-0.2,0.6-0.4,1.2-0.8,1.7c-0.3,0.5-0.8,1.1-1.3,1.5c-0.5,0.4-1.1,0.8-1.8,1c-0.7,0.2-1.3,0.4-2.1,0.4c-0.4,0-0.7,0-1.1-0.1
		c-0.1,0-0.2,0-0.3,0c0,0-0.1,0-0.1,0c0,0-0.1,0-0.1,0c-0.2,0-0.3-0.1-0.5-0.1c-0.6-0.2-1.2-0.6-1.7-1c-0.5-0.4-0.9-1-1.1-1.5
		c-0.3-0.6-0.4-1.2-0.5-1.8c0-0.3,0-0.6,0-0.9c0-0.1,0-0.1,0-0.2c0-0.1,0-0.1,0-0.2c0-0.1,0.1-0.3,0.1-0.4c0.2-0.5,0.5-1,0.8-1.4
		c0.3-0.4,0.8-0.7,1.2-0.9c0.4-0.2,0.9-0.3,1.3-0.3c0.2,0,0.4,0,0.6,0c0.1,0,0.2,0,0.3,0c0.1,0,0.2,0,0.3,0.1c0.4,0.1,0.7,0.3,1,0.5
		c0.3,0.2,0.5,0.4,0.6,0.7c0.2,0.2,0.3,0.5,0.4,0.7c0.1,0.2,0.1,0.4,0.1,0.6c0,0.2,0,0.3,0,0.5c0,0.1,0,0.2,0,0.3c0,0.1,0,0.1,0,0.1
		c0,0,0,0,0.1-0.1c0-0.1,0-0.2,0.1-0.3c0-0.1,0-0.3,0-0.5c0-0.2,0-0.4-0.1-0.7c-0.1-0.2-0.2-0.5-0.3-0.8c-0.2-0.3-0.4-0.5-0.7-0.8
		c-0.3-0.2-0.6-0.4-1-0.6c0,0,0,0-0.1,0c0,0-0.1,0-0.1,0c-0.1,0-0.2-0.1-0.3-0.1c-0.1,0-0.2,0-0.3-0.1c-0.2,0-0.4-0.1-0.6-0.1
		c-0.4,0-0.7,0-1.1,0.1c-0.3,0.1-0.6,0.2-0.9,0.3c-0.3,0.1-0.5,0.2-0.7,0.3c-0.2,0.1-0.4,0.3-0.6,0.4c-0.3,0.3-0.6,0.5-0.8,0.7
		c-0.2,0.2-0.4,0.5-0.5,0.7c-0.2,0.2-0.3,0.5-0.4,0.7c-0.1,0.2-0.2,0.5-0.2,0.9c-0.1,0.3-0.1,0.7,0,1.2c0.1,0.6,0.2,1.2,0.5,1.7
		c0.3,0.6,0.6,1.1,1,1.5c0.4,0.4,0.9,0.8,1.5,1.1c0.6,0.3,1.2,0.5,1.8,0.6c0.2,0,0.3,0.1,0.5,0.1c0.2,0,0.3,0,0.5,0c0.3,0,0.6,0,1,0
		c0.6-0.1,1.3-0.2,1.9-0.5c0.6-0.2,1.2-0.5,1.7-0.9c0.3-0.2,0.6-0.4,0.8-0.6c0.6-0.5,1-1,1.4-1.6c0.4-0.6,0.6-1.2,0.8-1.9
		c0-0.2,0.1-0.3,0.1-0.5c0-0.2,0.1-0.3,0.1-0.5c0-0.3,0.1-0.7,0.1-1c0-0.6-0.1-1.3-0.2-1.9c-0.1-0.6-0.3-1.1-0.5-1.7
		c-0.2-0.5-0.5-1-0.8-1.4c-0.3-0.4-0.6-0.8-0.9-1.1c-0.3-0.3-0.7-0.6-1-0.8c-0.2-0.2-0.5-0.3-0.7-0.5c0,0,0.1,0,0.1,0.1
		c1.4,0.7,2.6,1.6,3.5,2.7c1,1.1,1.7,2.3,2.2,3.5c0.5,1.2,0.7,2.5,0.8,3.7c0,0.6,0,1.1,0,1.7c0,0,0,0.1-0.1,0.1
		c-0.2,0.4-0.4,0.9-0.7,1.4c-0.3,0.6-0.7,1.2-1.1,1.9c-0.5,0.7-1.1,1.4-1.8,2c-0.7,0.6-1.5,1.1-2.2,1.5c-0.7,0.4-1.4,0.6-2.1,0.8
		c-0.6,0.2-1.2,0.3-1.5,0.5c-0.4,0.1-0.6,0.3-0.6,0.4c0,0.2,0.2,0.4,0.6,0.5c0.4,0.2,1,0.3,1.8,0.3c0.8,0,1.7-0.1,2.7-0.5
		c1-0.3,2-0.9,2.9-1.7c0.9-0.8,1.6-1.7,2.1-2.7c0.5-0.9,0.8-1.8,0.9-2.6c0.1-0.8,0.1-1.4,0-1.8c0-0.1-0.1-0.2-0.1-0.3
		c0-0.5,0.1-1,0-1.6c0-1.3-0.3-2.6-0.8-3.9c-0.5-1.3-1.2-2.6-2.3-3.8c-1-1.2-2.3-2.2-3.8-3c-0.7-0.4-1.6-0.7-2.4-0.9
		c-0.4-0.1-0.8-0.2-1.3-0.3c-0.2,0-0.4-0.1-0.7-0.1c-0.2,0-0.4,0-0.7-0.1c-1.8-0.1-3.6,0.1-5.4,0.6c-1.8,0.5-3.5,1.4-5.1,2.7
		c-0.5,0.4-1,0.8-1.5,1.3c-0.1,0-0.1,0.1-0.2,0.2c-0.4,0.3-0.9,0.7-1.4,1.2c-0.5,0.5-1,1.2-1.5,1.9c-0.5,0.8-1,1.7-1.3,2.7
		c-0.1,0.3-0.2,0.6-0.3,0.9l0,0c-0.2-0.1-0.5-0.2-0.7-0.3c-2.3-5.6-3.6-11.8-3.6-18.3c0-26.7,21.6-48.3,48.3-48.3
		c26.7,0,48.3,21.6,48.3,48.3c0,6.3-1.2,12.2-3.4,17.7c-0.1,0-0.2,0.1-0.3,0.1c-0.6,0.2-1.1,0.4-1.6,0.7c-0.1-0.3-0.2-0.6-0.3-0.9
		c-0.4-1-0.8-1.9-1.3-2.7C116.5,95.4,116,94.7,115.5,94.2z M119.1,102.1c-0.1-0.5-0.2-1-0.3-1.4c0.1,0,0.1-0.1,0.2-0.1
		c0.3-0.2,0.6-0.3,1-0.4C119.7,100.8,119.4,101.5,119.1,102.1z"/>
	<path fill="#69472C" d="M75,34.1c-4.5,0-8.2,4.1-8.2,9.1c0,5,8.2,33.3,8.2,33.3s8.2-28.3,8.2-33.3C83.1,38.2,79.5,34.1,75,34.1z"/>
	<path fill="#FDB834" d="M99.3,44.1c-3.8-2.4-9.1-0.9-11.8,3.3c-2.7,4.2-10.9,32.5-10.9,32.5s22-19.6,24.7-23.8
		C104,51.9,103.1,46.5,99.3,44.1z"/>
	<path fill="#FDB834" d="M50.6,44.1c-3.8,2.4-4.7,7.8-2.1,12c2.7,4.2,24.7,23.8,24.7,23.8s-8.2-28.3-10.9-32.5
		C59.7,43.1,54.4,41.6,50.6,44.1z"/>
	<polygon fill="#69472C" points="39.3,63.7 45.2,68.7 52.6,66.7 49.6,73.8 53.8,80.3 46.1,79.7 41.3,85.7 39.5,78.2 32.3,75.4 
		38.9,71.4 	"/>
	<polygon fill="#69472C" points="114.6,63.3 114.6,71 120.9,75.5 113.5,77.8 111.2,85.2 106.8,78.9 99.1,79 103.7,72.8 101.2,65.5 
		108.5,68 	"/>
</g>
</svg>
