<?xml version="1.0" encoding="utf-8"?>
<!-- Generator: Adobe Illustrator 18.1.0, SVG Export Plug-In . SVG Version: 6.00 Build 0)  -->
<svg version="1.1" id="Layer_1" xmlns="http://www.w3.org/2000/svg" xmlns:xlink="http://www.w3.org/1999/xlink" x="0px" y="0px"
	 viewBox="0 0 150 150" enable-background="new 0 0 150 150" xml:space="preserve">
<g>
	<g>
		<g>
			<path fill="#C1A82F" d="M27.7,65.2c0.3,0.5,0.6,1,0.9,1.4c-0.1,0.1-0.1,0.2-0.1,0.4c-0.2,0.8-0.4,1.7-0.6,2.5
				c-0.1-1.7-0.3-3.4-0.6-5.1C27.4,64.7,27.6,64.9,27.7,65.2L27.7,65.2z M30.4,46.2c1.7-2.4,4.1-3.8,6.9-4.1c-3.5,1-6.6,3.4-6.8,7
				c-0.1,1.4,0.6,3.1,1.6,4.2c1,1.1,2.3,1.5,3.5,1.3c2.5-0.5,4.2-2.7,4.3-4.5c0-1.2-0.7-2.1-1.9-2.4c-0.2,0-0.4-0.1-0.6-0.1
				c-1,0-2,0.6-2.4,1c-0.6-0.7-0.7-1.3-0.4-2c0.7-1.7,3.9-3.1,7.1-3.1c1.4,0,2.7,0.3,3.8,0.8c0.9,0.4,1.1,0.4,1.2,0.4
				c0.2,0,0.3-0.1,0.4-0.2c0,0,0.1-0.1,0.1-0.1c0.1-0.2,0.1-0.4-0.3-1.4c-1.4-3-0.8-7.1,0.7-9.3c0.7-1.1,1.5-1.7,2.3-1.7
				c0.4,0,0.9,0.2,1.3,0.6c-0.4,0.5-1.2,1.7-0.9,3c0.3,1.2,1.1,1.9,2.3,1.9c1.8,0,4.1-1.7,4.6-4.3c0.2-1-0.1-2.1-0.9-3
				c-1.1-1.3-3-2.2-4.7-2.1c-1.8,0.1-3.5,1-4.8,2.5c-1,1.2-1.8,2.7-2.2,4.3c0.4-3.4,2.3-5.6,4.1-6.9c2.4-1.7,5.6-2.7,9.1-2.7
				c5.5,0,11.8,2.6,12.7,7.3c0.2,1.2,0,2.3-0.7,3.1c-0.5,0.6-1.2,1-1.8,1c-0.4,0-0.8-0.2-1-0.6c-1-1.7-2-2-2.6-2
				c-0.9,0-1.7,0.7-1.9,1.7c-0.3,1.1,0.1,2.7,2,3.6c0.6,0.3,1.4,0.5,2.2,0.5c0.3,0,0.7,0,1-0.1c2.4-0.4,5.2-2.2,5.9-4.9
				c0.4-1.4,0.1-2.9-0.7-4.4c1.5-0.5,3.3-0.8,4.2-0.9c2-0.2,4-0.3,6-0.3c28.9,0,52.4,23.5,52.4,52.4c0,28.9-23.5,52.4-52.4,52.4
				s-52.4-23.5-52.4-52.4c0-4,0.4-7.9,1.3-11.7c1.3,0.9,2.7,1.4,4,1.4c0.4,0,0.9-0.1,1.3-0.2c2.7-0.7,4.5-3.5,4.9-5.9
				c0.2-1.2,0-2.3-0.4-3.2c-0.6-1.3-1.7-2-2.9-2c-1.1,0-2,0.6-2.3,1.5c-0.1,0.5-0.2,1.8,2,3.1c0.7,0.4,0.6,1.1,0.5,1.5
				c-0.3,1-1.5,2.1-3.2,2.1c-0.3,0-0.5,0-0.8-0.1c-0.9-0.2-1.9-0.6-2.7-1.3c-0.2-0.6-0.7-1-1.3-1.2c-0.9-1-1.6-2.2-2.1-3.7
				C26.8,56.6,27.5,50.2,30.4,46.2L30.4,46.2z M19,83.8c2.9,0,6-1.6,7.7-5.1c0,1-0.1,1.9-0.1,2.9c0,15.1,5.9,29.2,16.5,39.9
				C53.8,132.1,67.9,138,83,138s29.2-5.9,39.9-16.5c10.7-10.7,16.5-24.8,16.5-39.9c0-15.1-5.9-29.2-16.5-39.9
				C112.2,31,98.1,25.1,83,25.1c-2.2,0-4.4,0.1-6.5,0.4c0,0,0,0,0,0c-0.4,0.1-3.6,0.5-5.9,1.5c-0.1,0.1-0.3,0.1-0.4,0.2
				c-0.8-0.7-1.6-1.3-2.6-1.8c-0.3-0.1-0.5-0.3-0.8-0.4c2.5,0.4,5,0.7,7.4,0.7c0.6,0,1.2,0,1.8-0.1c4.7-0.3,7.2-2.3,8.4-3.9
				c1.4-1.8,2-4.1,1.6-6.4c-1-5.5-5-7.5-8.4-7.5c-2.1,0-4.2,0.7-5.6,2c-1.9,1.7-3.1,4.6-1.3,7.4c1.3,2,2.8,2.3,3.5,2.3
				c1.4,0,2.6-0.9,2.9-2.2c0.3-1.4-0.6-2.7-2.5-3.6c-0.4-0.2-0.6-0.5-0.5-0.9c0.2-1,1.9-2.5,4-2.5c1.2,0,2.9,0.5,4.4,2.9
				c0.9,1.4,1,3.1,0.4,4.7c-0.8,2.1-2.7,3.9-5,4.6c-1.9,0.6-4.4,0.9-7.7,0.9c-2.2,0-4.3-0.1-6.2-0.2c-0.1,0-0.3,0-0.4,0
				c2.5-1.3,4.3-3.5,4.9-5.8c0.5-2.1-0.2-4-1.8-5.7c-1.2-1.2-2.7-1.8-4.4-1.8c-2.6,0-5.1,1.4-6,3.3c-0.5,1.1-0.4,2.3,0.5,3.2
				c0.8,0.9,1.6,1.1,2.2,1.1c1,0,2-0.6,2.5-1.6c0.5-0.9,0.3-2-0.3-2.9c-0.2-0.3-0.2-0.4-0.2-0.5c0.2-0.4,1.1-0.7,2.1-0.7
				c0.5,0,0.9,0.1,1.2,0.2c1.9,0.9,2.4,2.6,2.6,3.9c0.4,2.8-2.6,5.8-5.6,7l-0.3,0c-1.1-0.2-2.3-0.3-3.4-0.3c-4.6,0-8.8,1.8-11.5,5
				c-3,3.4-3.8,8-2.3,13c0.1,0.4,0.4,0.9,0.6,1.4c-0.5-0.3-1-0.5-1.4-0.6c-1.6-0.5-3.3-0.7-4.8-0.7c-3.1,0-6,1.1-8.3,3
				c-4,3.5-5.7,9.2-4.6,14.9l0,0.3c-1.1,2.8-3.8,5.7-6.4,5.7c-0.2,0-0.3,0-0.5,0c-1.4-0.2-3-0.7-3.9-2.6c-0.3-0.7-0.2-2.3,0.2-3
				c0.1-0.1,0.2-0.3,0.4-0.3c0.1,0,0.2,0.1,0.4,0.2c0.5,0.4,1.1,0.6,1.7,0.6c1.1,0,2.2-0.8,2.6-1.9c0.4-1.1,0-2.2-1-3.1
				c-0.6-0.5-1.3-0.8-2-0.8c-1.6,0-3.1,1.3-4,3.4c-0.9,2.1-1,5.1,1.2,7.3c1.3,1.3,2.8,2,4.4,2c3,0,5.7-2.4,7.1-5c0,0.1,0,0.3,0,0.4
				c0.2,4.3,0.6,10.1-0.7,14c-1,3.1-3.8,5.3-6.6,5.3c-1,0-1.9-0.3-2.7-0.8c-3.2-2-3.1-4.4-2.7-5.6c0.5-1.6,1.7-2.8,2.6-2.8
				c0.3,0,0.5,0.2,0.7,0.5c0.7,1.6,1.8,2.5,3.1,2.5c1.2,0,2.3-0.9,2.6-2.1c0.5-1.6-0.3-3.2-2.2-4.4c-0.9-0.6-1.9-0.9-2.9-0.9
				c-1.6,0-3.3,0.8-4.5,2.2c-1.9,2.2-2.5,5.6-1.5,8.5c1,2.9,3.5,4.8,7,5.5C18.1,83.7,18.5,83.8,19,83.8L19,83.8z"/>
		</g>
	</g>
	<path fill="#E0CD7C" d="M64.6,44.4c-0.3,0-0.6,0.1-1,0.1c-0.4,0.1-0.7,0.2-1.2,0.3c-0.8,0.2-1.8,0.5-2.8,1c-2,1-4.4,2.7-6.5,5.2
		c-2.1,2.5-4,5.9-4.7,10.1c-0.3,2.1-0.3,4.3,0,6.6c0.3,2.3,1,4.6,1.8,6.8c0.9,2.2,2,4.5,3.3,6.6c1.3,2.2,2.7,4.3,4.2,6.4
		c0.4,0.5,0.8,1.1,1.2,1.6l0.3,0.4l0.3,0.4l0.6,0.8c0.9,1,1.7,2,2.6,3c0.9,1,1.7,2,2.6,3c0.9,1,1.7,2,2.6,3c1.7,2,3.4,4.1,4.9,6.2
		c1.6,2.1,3,4.3,4.2,6.6c0.6,1.1,1.1,2.3,1.4,3.5c0.3,1.2,0.5,2.3,0.4,3.4c-0.1,0.5-0.2,1-0.5,1.5c-0.3,0.4-0.6,0.8-1,1.2
		c-0.8,0.7-1.9,1.2-3.1,1.5c-0.9,0.3-1.8,0.4-2.8,0.5c-0.4,0-0.7,0.1-1.1,0.1c1.8,0.5,3.7,1,5.6,1.3c0.8-0.3,1.6-0.7,2.4-1.2
		c0.6-0.4,1.2-1,1.6-1.6c0.5-0.6,0.8-1.3,1-2.1c0.2-0.7,0.3-1.5,0.3-2.2c0-0.7-0.1-1.4-0.2-2.1c-0.3-1.3-0.8-2.6-1.3-3.8
		c-0.5-1.2-1.2-2.3-1.8-3.4c-1.3-2.2-2.8-4.3-4.4-6.3c-1.6-2-3.2-3.9-4.8-5.8c-1.6-1.9-3.3-3.7-5-5.5c-0.8-0.9-1.6-1.8-2.4-2.7
		c-0.2-0.2-0.4-0.4-0.6-0.7l-0.5-0.7c-0.4-0.5-0.7-1-1.1-1.4c-0.4-0.5-0.7-1-1-1.4c-0.3-0.5-0.7-1-1-1.4c-0.3-0.5-0.7-1-1-1.5
		c-0.3-0.5-0.6-1-0.9-1.5c-1.2-2-2.3-3.9-3.1-5.9c-0.9-2-1.5-4.1-2-6.1c-0.1-0.5-0.2-1-0.3-1.5c-0.1-0.5-0.1-1-0.2-1.5
		c0-0.5,0-1,0-1.5l0-0.4l0-0.4c0-0.2,0-0.5,0-0.7c0-0.2,0-0.5,0-0.7c0-0.2,0.1-0.5,0.1-0.7c0-0.2,0.1-0.5,0.1-0.7
		c0-0.2,0.1-0.5,0.2-0.7c0.2-0.9,0.5-1.8,0.8-2.6c0.7-1.7,1.5-3.2,2.4-4.5c1.8-2.7,4-4.5,6-5.7c1-0.6,1.9-1,2.8-1.3
		c0.9-0.3,1.6-0.5,2.2-0.6c0.3-0.1,0.6-0.1,0.8-0.1c0.2,0,0.4-0.1,0.6-0.1c0.3,0,0.5,0,0.5,0s-0.2,0-0.5,0
		C65.7,44.3,65.2,44.4,64.6,44.4z"/>
	<path fill="#C1A82F" d="M76.8,65.1c0.7-0.4,1.6-1,2.4-1.7c0.8-0.8,1.7-1.8,2.2-3.1c0.3-0.6,0.4-1.3,0.5-2.1c0-0.1,0-0.2,0-0.3
		c-0.1-0.6-0.2-1.3-0.1-2c-0.3-1.5-1.1-3.1-2.3-4.4c-0.6-0.7-1.3-1.3-2.1-1.8c-0.8-0.5-1.6-1-2.5-1.4c-0.9-0.4-1.9-0.7-2.9-1
		c-1-0.2-2-0.4-3.1-0.5c-1,0-2.1,0-3.1,0.2c-1,0.2-2,0.5-2.9,0.9c-1.9,0.9-3.6,2.2-5.1,3.9c-1.4,1.7-2.6,3.6-3.4,5.7
		c-0.4,1-0.7,2.1-0.8,3.2c0,0.3-0.1,0.5-0.1,0.8l0,0.4c0,0.1,0,0.3,0,0.4l0,0.8c0,0.1,0,0.3,0,0.4l0,0.4c0.2,4.4,2.1,8.7,4.5,12.7
		c1.2,2,2.5,4,3.9,5.9c0.7,0.9,1.4,1.9,2,2.8c0.4,0.5,0.6,0.7,0.9,1.2c0.4,0.4,0.7,0.8,1.1,1.3c1.9,2.1,3.7,4.2,5.3,6.2
		c1.7,2,3.2,4.1,4.6,6c2.8,4,5,7.8,6.4,11.8c0.1,0.4,0.2,0.7,0.3,1.1c0.3-1.1,0.7-2.1,1.2-3.2c1-2.4,2.4-4.7,3.9-7.1
		c1.6-2.4,3.3-4.8,5.3-7.3c2-2.5,4.2-5,6.5-7.5c0.4-0.4,0.7-0.8,1.1-1.2c0.4-0.5,0.6-0.7,1-1.2c0.7-0.9,1.4-1.8,2.1-2.8
		c1.4-1.9,2.7-3.8,3.9-5.8c2.4-4,4.3-8.4,4.6-12.7l0-0.4c0-0.1,0-0.3,0-0.4l0-0.8c0-0.1,0-0.3,0-0.4l0-0.4c0-0.2-0.1-0.5-0.1-0.8
		c-0.2-1.1-0.4-2.1-0.8-3.2c-0.8-2.1-1.9-4.1-3.3-5.8c-1.4-1.7-3.1-3-5-3.9c-0.9-0.4-1.9-0.8-2.9-1c-1-0.2-2-0.3-3.1-0.2
		c-1,0-2.1,0.2-3.1,0.4c-1,0.3-2,0.6-2.9,1c-0.9,0.4-1.8,0.9-2.5,1.4c-0.8,0.5-1.5,1.2-2.1,1.8c-1.2,1.3-2,2.9-2.3,4.4
		c0,0.7,0,1.4-0.1,2c0,0.1,0,0.2,0,0.3c0.1,0.7,0.3,1.4,0.5,2.1c0.5,1.3,1.4,2.3,2.2,3.1c0.8,0.8,1.7,1.4,2.4,1.7
		c0.7,0.4,1.3,0.7,1.7,0.8c0.4,0.2,0.6,0.3,0.6,0.3s-0.2-0.1-0.6-0.2c-0.4-0.1-1.1-0.3-1.8-0.6c-0.2-0.1-0.4-0.2-0.6-0.3
		c-0.2-0.1-0.4-0.2-0.7-0.3c-0.1-0.1-0.2-0.1-0.4-0.2c-0.1-0.1-0.2-0.1-0.4-0.2c-0.2-0.1-0.5-0.3-0.8-0.5c-1-0.7-2.1-1.7-2.9-3.1
		c-0.1-0.1-0.1-0.2-0.2-0.4c-0.1,0.1-0.1,0.2-0.2,0.4c-0.9,1.4-2,2.4-3,3.1c-0.2,0.2-0.5,0.3-0.8,0.5c-0.1,0.1-0.2,0.1-0.4,0.2
		c-0.1,0.1-0.2,0.1-0.4,0.2c-0.2,0.1-0.5,0.2-0.7,0.3c-0.2,0.1-0.4,0.2-0.6,0.2c-0.8,0.3-1.4,0.5-1.8,0.6c-0.4,0.1-0.6,0.2-0.6,0.2
		s0.2-0.1,0.6-0.3C75.5,65.8,76.1,65.5,76.8,65.1z"/>
	<path fill="#E0CD7C" d="M71.2,123.6c0.9-0.3,2-0.6,3.1-1.1c1.1-0.5,2.1-1.2,2.6-2c0.3-0.4,0.4-0.8,0.4-1.2c0-0.4,0-1-0.2-1.6
		c-0.3-1.3-1.1-3-2.2-4.7c-1.1-1.8-2.5-3.7-4.1-5.7c-1.6-2-3.4-4.1-5.4-6.4c-2-2.3-4.2-4.7-6.4-7.2c-0.4-0.4-0.8-0.9-1.2-1.4
		c-0.4-0.4-0.9-1.1-1.3-1.6c-0.8-1-1.5-2-2.2-3.1c-1.4-2.1-2.8-4.4-4.1-6.8c-1.3-2.4-2.4-5.1-3.3-7.9c-0.8-2.8-1.3-5.9-1.3-9.1
		l0-0.6c0-0.2,0-0.4,0-0.6l0.1-1.2c0-0.2,0-0.4,0.1-0.6l0.1-0.6c0.1-0.4,0.2-0.8,0.3-1.2c0.4-1.6,1-3,1.6-4.4
		c0.6-1.3,1.4-2.5,2.2-3.6c-7.3,8-11.7,18.6-11.7,30.2c0,20.1,13.3,37.1,31.5,42.8C70.4,123.9,70.8,123.8,71.2,123.6z"/>
	<path fill="#E0CD7C" d="M83.2,36.4c-8.9,0-17.1,2.6-24.1,7c0.6-0.3,1.2-0.5,1.9-0.7c1.4-0.5,2.9-0.7,4.3-0.8c1.4-0.1,2.9,0,4.2,0.2
		c1.4,0.2,2.6,0.6,3.8,1.1c1.2,0.5,2.3,1,3.4,1.6c2.1,1.3,3.9,2.9,5.2,4.8c0.4,0.6,0.7,1.2,1,1.8c0.3-0.6,0.6-1.2,1-1.8
		c1.3-1.9,3.1-3.5,5.2-4.8c1.1-0.6,2.2-1.1,3.4-1.6c1.2-0.4,2.5-0.8,3.8-1c1.4-0.2,2.8-0.3,4.2-0.2c1.4,0.1,2.9,0.4,4.3,0.9
		c2.8,0.9,5.4,2.6,7.6,4.6c2.2,2.1,4,4.6,5.3,7.4c0.7,1.4,1.2,2.9,1.6,4.4c0.1,0.4,0.2,0.8,0.3,1.2l0.1,0.6c0,0.2,0,0.4,0.1,0.6
		l0.1,1.2c0,0.2,0,0.4,0,0.6l0,0.6c0.1,3.1-0.5,6.2-1.3,9.1c-0.9,2.9-2,5.5-3.3,7.9c-1.3,2.4-2.7,4.7-4.2,6.8
		c-0.7,1.1-1.4,2-2.2,3.1c-0.3,0.5-0.9,1.2-1.3,1.6c-0.4,0.5-0.8,0.9-1.2,1.4c-1.9,2.1-3.7,4.1-5.4,6c-1.7,1.9-3.3,3.7-4.7,5.4
		c-2.9,3.4-5.2,6.5-6.8,9.3c-0.8,1.4-1.3,2.6-1.5,3.6c-0.1,0.5-0.1,0.9-0.1,1.3c0,0.4,0.1,0.7,0.3,1c0.3,0.7,1.1,1.3,1.9,1.8
		c0.8,0.5,1.7,0.8,2.6,1.1c-0.8-0.1-1.6-0.2-2.4-0.4c-0.8-0.2-1.5-0.5-2.1-0.9c-0.4-0.3-0.8-0.6-1.1-0.9c-0.3-0.4-0.5-0.8-0.7-1.2
		c-0.2-0.5-0.2-1-0.3-1.5c0-0.5,0-1.1,0.1-1.6c0.2-1.1,0.5-2.3,1-3.4c0.5-1.1,1-2.2,1.6-3.3c1.2-2.2,2.6-4.2,4-6.2
		c1.5-2,3-4,4.6-5.9c1.6-1.9,3.2-3.8,4.8-5.6c0.8-0.9,1.6-1.8,2.4-2.8c0.2-0.2,0.4-0.5,0.6-0.7l0.5-0.7c0.4-0.5,0.7-1,1.1-1.5
		c0.3-0.5,0.7-1,1-1.5c0.3-0.5,0.7-1,1-1.5c0.3-0.5,0.7-1,1-1.5c0.3-0.5,0.6-1,0.9-1.5c1.2-2,2.2-4,3.1-6.1c0.9-2.1,1.5-4.1,1.9-6.2
		c0.1-0.5,0.2-1,0.3-1.5c0.1-0.5,0.1-1,0.2-1.5c0-0.5,0-1,0-1.5l0-0.4l0-0.4c0-0.2,0-0.5-0.1-0.7c0-0.2,0-0.5,0-0.7
		c0-0.2-0.1-0.5-0.1-0.7c0-0.2-0.1-0.5-0.1-0.7c0-0.2-0.1-0.5-0.2-0.7c-0.2-0.9-0.5-1.8-0.8-2.6c-0.7-1.7-1.5-3.2-2.4-4.5
		c-1.9-2.7-4-4.6-6-5.7c-1-0.6-2-1-2.8-1.3c-0.9-0.3-1.6-0.5-2.2-0.6c-0.3-0.1-0.6-0.1-0.8-0.1c-0.2,0-0.4-0.1-0.6-0.1
		c-0.3,0-0.5,0-0.5,0s0.2,0,0.4,0.1c0.3,0,0.7,0.2,1.3,0.3c0.3,0.1,0.6,0.2,0.9,0.3c0.3,0.1,0.7,0.3,1.1,0.4
		c0.8,0.3,1.6,0.7,2.5,1.3c1.8,1.2,3.8,2.9,5.5,5.5c0.9,1.3,1.6,2.7,2.2,4.3c0.6,1.6,1.1,3.4,1.2,5.2c0.1,1.9,0,3.8-0.4,5.8
		c-0.4,2-1.1,4-2,6.1c-0.9,2-2,4.1-3.3,6.1c-1.3,2-2.7,4-4.2,6c-0.4,0.5-0.8,1-1.1,1.5l-0.3,0.4l-0.3,0.3l-0.6,0.7
		c-0.8,1-1.7,1.9-2.6,2.9c-0.9,1-1.7,2-2.6,3c-0.9,1-1.7,2-2.6,3.1c-1.7,2.1-3.4,4.2-5,6.5c-1.6,2.3-3,4.6-4.2,7.2
		c-0.6,1.3-1.1,2.6-1.5,4c-0.3,1.4-0.5,2.9-0.2,4.5c0.2,0.8,0.5,1.5,0.9,2.2c0.4,0.7,1,1.3,1.6,1.7c1.2,0.9,2.6,1.4,4,1.7
		c0,0,0,0,0,0c21.3-3.5,37.5-21.9,37.5-44.2C128,56.5,107.9,36.4,83.2,36.4z"/>
	<path fill="#E0CD7C" d="M87.7,125.7c-0.9-0.3-1.8-0.7-2.8-1.5c-0.9-0.7-1.7-1.8-2.2-3c-0.4,1-1.1,2-1.9,2.6
		c-0.7,0.7-1.5,1.2-2.3,1.5c-0.3,0.1-0.5,0.2-0.8,0.3c1.8,0.2,3.6,0.3,5.5,0.3c1.5,0,3.1-0.1,4.6-0.2
		C87.7,125.7,87.7,125.7,87.7,125.7z"/>
</g>
</svg>
