<?xml version="1.0" encoding="utf-8"?>
<!-- Generator: Adobe Illustrator 14.0.0, SVG Export Plug-In . SVG Version: 6.00 Build 43363)  -->
<!DOCTYPE svg PUBLIC "-//W3C//DTD SVG 1.1//EN" "http://www.w3.org/Graphics/SVG/1.1/DTD/svg11.dtd">
<svg xmlns="http://www.w3.org/2000/svg" xmlns:xlink="http://www.w3.org/1999/xlink" version="1.1" id="Layer_1" x="0px" y="0px" width="100px" height="100px" viewBox="0 0 100 100" enable-background="new 0 0 100 100" xml:space="preserve">

<g>
	<g>
		<path fill="#F48245" d="M89.981,70.292c-10.444,7.175-25.042,11.701-41.145,11.701c-15.856,0-30.197-4.341-40.588-11.325    l4.155-2.83c9.31,6.228,22.207,10.125,36.433,10.125c14.465,0,27.556-4.021,36.929-10.506L89.981,70.292L89.981,70.292z     M56.197,57.828c1.63,0,3.021,1.444,3.021,3.212c0,1.7-1.391,3.149-3.021,3.149c-1.639,0-3.021-1.449-3.021-3.149    C53.177,59.272,54.559,57.828,56.197,57.828L56.197,57.828z M38.455,57.828c1.639,0,2.958,1.444,2.958,3.212    c0,1.7-1.32,3.149-2.958,3.149c-1.701,0-3.021-1.449-3.021-3.149C35.434,59.272,36.754,57.828,38.455,57.828z"/>
		<path fill="#231F20" d="M28.383,36.822h40.958L48.836,16.364L28.383,36.822L28.383,36.822z M76.642,44.178v26.619l-5.466,2.011    V42.354H26.744v30.769l-5.474-2.14V43.93l-3.703,3.711H9.754l39.082-39.01l39.073,39.01h-7.805L76.642,44.178L76.642,44.178z     M76.642,79.102v13.141H21.27V79.345l5.474,1.768v5.602h44.432v-6.041L76.642,79.102z"/>
	</g>
</g>
</svg>
