<?xml version="1.0" encoding="utf-8"?>
<!-- Generator: Adobe Illustrator 18.1.0, SVG Export Plug-In . SVG Version: 6.00 Build 0)  -->
<svg version="1.0" id="Layer_1" xmlns="http://www.w3.org/2000/svg" xmlns:xlink="http://www.w3.org/1999/xlink" x="0px" y="0px"
	 viewBox="0 0 150 150" enable-background="new 0 0 150 150" xml:space="preserve">
<g>
	<path fill-rule="evenodd" clip-rule="evenodd" fill="#A4C839" d="M99,135.8c0,3.4-2.7,6.1-6.1,6.1c-3.4,0-6.1-2.7-6.1-6.1
		c0-3.4,2.7-6.1,6.1-6.1C96.2,129.7,99,132.5,99,135.8z"/>
	<path fill-rule="evenodd" clip-rule="evenodd" fill="#D8E039" d="M109.6,130c0,1.9-1.6,3.4-3.5,3.4c-1.9,0-3.4-1.5-3.4-3.4
		c0-1.9,1.5-3.5,3.4-3.5C108,126.5,109.6,128.1,109.6,130z"/>
	<path fill-rule="evenodd" clip-rule="evenodd" fill="#E21569" d="M116.5,124.4c0,0.9-0.7,1.6-1.6,1.6c-0.9,0-1.6-0.7-1.6-1.6
		c0-0.9,0.7-1.6,1.6-1.6C115.8,122.8,116.5,123.5,116.5,124.4z"/>
	<path fill-rule="evenodd" clip-rule="evenodd" fill="#E21569" d="M80.6,141.7c-33.2,0-60.9-27.7-60.9-60.9s27.7-60.9,60.9-60.9
		c33.2,0,60.9,27.7,60.9,60.9c0,9.2-2.2,18-6,26c5.3-9.7,8.3-20.8,8.3-32.7c0-37.7-30.5-68.2-68.2-68.2C37.9,5.9,7.3,36.4,7.3,74.1
		c0,37.7,30.5,68.2,68.2,68.2c3.8,0,7.5-0.3,11.2-0.9C84.7,141.6,82.6,141.7,80.6,141.7z"/>
	<path fill="#A4C839" d="M84.6,72.6c2.5,5.8,3.9,11.9,4.3,18.4c0.2,2.6,0.2,5.2,0.1,7.7c2.3-1.5,4.9-2.7,7.8-3.5
		c1.1-5,1.5-10.4,1.1-16.1c-0.5-7.1-2-13.9-4.8-20.2l-2.8-6.5l-5.4,4.5c-13.8,11.3-21,26.4-21.4,44.9c0,5.5,0.6,10.9,1.8,16.3
		c-0.1-1.5-0.1-3.1-0.1-4.6C65.6,96.5,72.1,82.9,84.6,72.6z"/>
	<g>
		<path fill="#D8E039" d="M40.8,62.4C49.2,66.6,56.2,72,62,78.7c0.3,0.3,0.6,0.7,0.9,1.1c1.1-3,2.5-5.9,4.1-8.7
			c-0.1-0.1-0.2-0.2-0.3-0.3c-6-5.8-13.1-10.3-21.1-13.5l-12.9-5.1L31.1,66c-2.5,23.6,5.7,42.7,24.5,56.9c3.2,2.4,6.6,4.3,10.1,5.8
			c-1.4-1-2.8-2.1-4.2-3.3C42.9,108.6,36,87.6,40.8,62.4z"/>
	</g>
	<path fill="#62C3AE" d="M127.3,92.7c-14.2-0.7-27.5,2.3-39.8,8.9c6.1-2.3,12.6-3.7,19.6-4.3l0.6,0.3c-3.4,7.5-8.3,14-14.7,19.3
		C83,125.3,71.7,130,59.3,131c16.8,2.3,32.8-2.1,47.7-13.3c8.5-6.4,15.5-14.6,20.9-24.6L127.3,92.7z"/>
</g>
</svg>
