<?xml version="1.0" encoding="utf-8"?>
<!-- Generator: Adobe Illustrator 18.1.0, SVG Export Plug-In . SVG Version: 6.00 Build 0)  -->
<svg version="1.0" id="Layer_1" xmlns="http://www.w3.org/2000/svg" xmlns:xlink="http://www.w3.org/1999/xlink" x="0px" y="0px"
	 viewBox="0 0 150 150" enable-background="new 0 0 150 150" xml:space="preserve">
<g>
	<path fill="none" d="M83.7,19.5c-1-0.4-1.9-0.3-2.8,0.1c-0.5,0.3-0.9,0.7-1.2,1.2c1.9-0.1,3.8-0.2,5.6-0.1
		C84.9,20.2,84.4,19.8,83.7,19.5z"/>
	<path fill="none" d="M71.4,41.2c-2,1.2-3.9,2.4-5.9,3.6h3.6c1.4,0,2.8,0.7,3.6,2c1,1.5,2.6,2.7,4.6,3.4c2.3,0,4.5,0.1,6.8,0.1
		c1,0,2,0,2.9,0c2.2-0.7,4-2,5-3.5c0.8-1.2,2.1-2,3.6-2h3.9c-1.3-0.8-2.7-1.7-4.5-2.8c-3.7-2.2-7.3-4.4-11-6.6
		c-0.7-0.4-1.5-0.5-2.2-0.1C79.2,36.7,75.7,38.6,71.4,41.2z"/>
	<path fill="#A5CE39" d="M23.7,75.6c0-35.6,29.1-64.4,64.9-64.4c11.7,0,22.6,3.1,32.1,8.4C109.4,11.9,95.8,7.3,81.1,7.3
		C42.9,7.3,11.9,38.1,11.9,76s31,68.7,69.2,68.7c17.3,0,33.1-6.3,45.3-16.7c-10.6,7.6-23.7,12.1-37.8,12.1
		C52.7,140,23.7,111.2,23.7,75.6z"/>
	<path fill="#0D71BA" d="M85.8,21.2c-0.1-0.2-0.3-0.4-0.4-0.5c-1.9-0.1-3.8,0-5.6,0.1c-0.8,0.1-1.7,0.1-2.5,0.2
		c-12.6,1.4-25,7.1-34.6,17.1C20.8,60.6,20.8,96,42.6,117.3c8.8,8.6,19.9,13.5,31.4,14.9c-3.1-0.8-6.2-1.9-9.1-3.3
		c-5.5-2.4-10.8-5.7-15.3-10.2c-2.6-2.6-4.9-5.4-6.9-8.3c-15-21.2-13.7-50.3,4.4-69.2c8.5-8.9,19.5-14,30.9-15.5
		c0.2,0,0.4-0.1,0.6-0.1c2.1-0.2,4.1-0.4,6.2-0.4C86.2,23.9,86.5,22.6,85.8,21.2z"/>
	<path fill="#0D71BA" d="M88.3,24.8c-0.1,0.2-0.1,0.3-0.2,0.5c12.8,0.7,25.6,5.9,35.6,15.8c3.5,3.4,6.4,7.2,8.9,11.2
		c-2.7-6-6.5-11.5-11.4-16.4c-9.3-9-21-14-33-15.1C88.7,22.1,88.7,23.4,88.3,24.8z"/>
	<path d="M78.7,25.6L78.7,25.6c-0.2,0-0.4,0-0.6,0.1C78.2,25.7,78.4,25.7,78.7,25.6z"/>
	<path d="M88.2,20.9c-0.1-0.2-0.1-0.4-0.2-0.6c-0.8-1.5-1.9-2.4-3.4-3c-1.5-0.5-3-0.4-4.5,0.3c-1.2,0.6-2.2,1.7-2.8,3.2
		c0,0.1,0,0.1-0.1,0.2c0.8-0.1,1.7-0.1,2.5-0.2c0.3-0.5,0.7-0.9,1.2-1.2c0.9-0.4,1.8-0.5,2.8-0.1c0.7,0.3,1.2,0.7,1.7,1.2
		c0.1,0.2,0.3,0.3,0.4,0.5c0.7,1.4,0.4,2.7-0.9,3.9c-0.6,0.5-1.3,1.1-2.3,1.5c-0.9,0.5-1.4,0.9-1.4,1.2L81.1,32L59.4,45.3
		c-1.8,1.1-2.6,2.3-2.6,3.5L40.6,65c-1.7,1.7-1.7,4.4,0,6.1L51,81.5c1.6,1.6,4.5,1.6,6.1,0l2.4-2.4v38.2c0,2.4,1.9,4.3,4.3,4.3h37.2
		c2.4,0,4.3-1.9,4.3-4.3V79.1l2.4,2.4c1.6,1.6,4.5,1.6,6.1,0l10.4-10.4c1.7-1.7,1.7-4.4,0-6.1l-16.3-16.3c-0.1-0.3-0.1-0.7-0.3-1
		c-0.5-0.9-1.3-1.7-2.6-2.5l-21-13l0-2.7c0-0.3,0.1-0.5,0.3-0.7c-0.4,0.2,0,0,1.2-0.6c1.2-0.6,2.1-1.6,2.7-2.9
		c0.1-0.2,0.2-0.3,0.2-0.5C88.7,23.4,88.7,22.1,88.2,20.9z M67.5,80c-0.7-2.1,0.1-4.3,1.5-5.5c1.4-1.2,3.5-1.4,5.4-0.9
		c2,0.5,3.7,1.3,5,1.6c1.2,0.3,2,0.2,2.1,0.2c-0.1,0.1-0.9,0.5-1.6,1.4c-0.9,1-1.9,2.7-3.2,4.3c-1.3,1.6-3,2.6-4.9,2.4
		C70.1,83.4,68.2,82.1,67.5,80z M81.6,75.4c-0.1-0.1-0.7-0.7-1.8-1.1c-1.2-0.5-3.1-0.9-5-1.7c-1.9-0.7-3.4-2.1-3.8-3.9
		c-0.4-1.8,0.2-4.1,2-5.3c1.8-1.3,4.1-1.2,5.7-0.2c1.6,1,2.4,2.9,2.5,4.9c0.1,2-0.1,4,0,5.3C81.2,74.5,81.6,75.3,81.6,75.4z
		 M86.4,87.2c-0.7,1.7-2.5,3.2-4.7,3.1c-2.2,0-4.1-1.4-4.7-3.2c-0.7-1.7-0.3-3.7,0.8-5.4c1.1-1.7,2.4-3.1,3.1-4.3
		c0.7-1,0.8-1.8,0.8-2c0,0.2,0.2,1,0.8,2c0.7,1.2,2,2.6,3.1,4.3C86.7,83.5,87.1,85.5,86.4,87.2z M95.8,80.1
		c-0.7,2.1-2.6,3.4-4.5,3.5c-1.9,0.1-3.6-0.9-4.9-2.5c-1.3-1.6-2.2-3.3-3.1-4.3c-0.8-0.9-1.5-1.3-1.6-1.4c0.2,0,1,0.1,2.1-0.2
		c1.3-0.3,3.1-1.1,5.1-1.6c2-0.5,4-0.3,5.4,0.9C95.7,75.8,96.5,78.1,95.8,80.1z M81.7,75.4c0.1-0.1,0.4-0.9,0.5-2.1
		c0.1-1.3-0.1-3.3,0.1-5.3c0.1-2,0.9-3.9,2.6-4.9c1.6-1,3.9-1.1,5.7,0.3c1.8,1.3,2.4,3.5,2,5.3c-0.4,1.8-2,3.2-3.9,3.9
		c-1.9,0.7-3.8,1.1-5,1.6C82.4,74.8,81.8,75.3,81.7,75.4z M84.1,35.4c3.7,2.2,7.3,4.4,11,6.6c1.7,1.1,3.2,2,4.5,2.8h-3.9
		c-1.5,0-2.8,0.7-3.6,2c-1,1.6-2.8,2.8-5,3.5c-0.9,0-1.9,0-2.9,0c-2.3,0-4.5-0.1-6.8-0.1c-2-0.7-3.7-1.9-4.6-3.4
		c-0.8-1.2-2.1-2-3.6-2h-3.6c2-1.2,3.9-2.4,5.9-3.6c4.3-2.5,7.8-4.5,10.5-5.9C82.6,34.9,83.3,34.9,84.1,35.4z"/>
	<path fill="#73B3E2" d="M88.6,72.7c1.9-0.7,3.4-2.1,3.9-3.9c0.5-1.8-0.2-4.1-2-5.3c-1.8-1.3-4.1-1.3-5.7-0.3
		c-1.6,1-2.4,2.8-2.6,4.9c-0.1,2,0.1,3.9-0.1,5.3c-0.1,1.2-0.4,2-0.5,2.1c0.1-0.1,0.7-0.7,1.8-1.1C84.8,73.8,86.7,73.4,88.6,72.7z"
		/>
	<path fill="#45C3D2" d="M88.9,73.7c-2,0.5-3.7,1.3-5.1,1.6c-1.2,0.3-2,0.2-2.1,0.2c0.1,0.1,0.9,0.5,1.6,1.4c0.9,1,1.8,2.7,3.1,4.3
		c1.3,1.6,3,2.6,4.9,2.5c1.8-0.1,3.8-1.4,4.5-3.5c0.7-2.1-0.1-4.3-1.5-5.5C92.9,73.4,90.9,73.2,88.9,73.7z"/>
	<path fill="#AFE1F5" d="M82.5,77.5c-0.7-1-0.8-1.8-0.8-2c0,0.2-0.2,1-0.8,2c-0.7,1.2-2,2.6-3.1,4.3c-1.1,1.7-1.6,3.7-0.8,5.4
		c0.7,1.7,2.5,3.2,4.7,3.2c2.2,0.1,4.1-1.4,4.7-3.1c0.7-1.7,0.3-3.7-0.8-5.4C84.5,80.1,83.2,78.7,82.5,77.5z"/>
	<path fill="#D2D3D4" d="M80,76.8c0.8-0.9,1.5-1.3,1.6-1.4c-0.1,0-1,0.1-2.1-0.2c-1.3-0.3-3.1-1.1-5-1.6c-1.9-0.5-4-0.3-5.4,0.9
		c-1.4,1.2-2.3,3.4-1.5,5.5c0.6,2.1,2.6,3.4,4.4,3.6c1.9,0.2,3.6-0.9,4.9-2.4C78.2,79.5,79.1,77.9,80,76.8z"/>
	<path fill="#80C4C2" d="M78.6,63.1c-1.5-1-3.9-1.1-5.7,0.2c-1.8,1.3-2.5,3.5-2,5.3c0.4,1.8,2,3.2,3.8,3.9c1.9,0.8,3.8,1.1,5,1.7
		c1.1,0.4,1.7,1,1.8,1.1c-0.1-0.1-0.4-0.9-0.5-2.1c-0.1-1.3,0.1-3.3,0-5.3C81.1,66,80.3,64.1,78.6,63.1z"/>
</g>
</svg>
