<?xml version="1.0" encoding="utf-8"?>
<!-- Generator: Adobe Illustrator 18.1.0, SVG Export Plug-In . SVG Version: 6.00 Build 0)  -->
<svg version="1.1" id="Layer_1" xmlns="http://www.w3.org/2000/svg" xmlns:xlink="http://www.w3.org/1999/xlink" x="0px" y="0px"
	 viewBox="0 0 150 150" enable-background="new 0 0 150 150" xml:space="preserve">
<g>
	<path fill="#DD8389" d="M73,11.8c0,0-2.2-4.7-7.2-1.4c-5,3.3-4.7,9.7-2,15.2C63.9,24.5,65.4,16.8,73,11.8z"/>
	<path fill="#DD8389" d="M63.8,25.7C63.8,25.7,63.8,25.7,63.8,25.7C63.8,25.8,63.8,25.8,63.8,25.7z"/>
	<path fill="#DD8389" d="M85.2,39.3c0,0-5,18.6,7.5,21.1c11.1,1.7,16.7-12.5,6.4-23.6c-2.2-3.1,0.3,5.6-7.8,5
		c-8.1-0.6-0.3-7.2,1.7-5c1.4,2.2-2.5,0.3-2.2,2.5c0.3,2.2,6.4,1.7,5-2.8C94.4,32.1,86.1,34.9,85.2,39.3z"/>
	<path fill="#DD8389" d="M78,12.9c3.1,0,10.8,1.7,10,7.8c-0.6,4.7-13.3,3.9-15.6-1.9c-2.2-5.8,11.1-2.2,9.2,0.6
		c-1.9,2.8-6.7-1.4-6.7-1.4c11.7,11.1,15-0.6,6.9-3.1c-5.4-1.7-15-0.8-15.3,13.6c-0.3,14.4,22.2,6.9,25-0.3c2.8-7.2-2.8-8.3-2.8-9.2
		c1.4-1.7,1.4-7.2-5-10C77.5,6.3,75,12.9,78,12.9z"/>
	<path fill="#DD8389" d="M78.3,51c3.9,7.8,7.8,8.3,7.8,8.3s-5.6-5.6-4.2-19.2C81.9,40.2,74.4,43.2,78.3,51z"/>
	<path fill="#E3B3B8" d="M52.2,89.6C51.9,82.7,66.9,93,66.9,93C45.2,75.2,51.6,93.2,52.2,89.6z"/>
	<path fill="#E3B3B8" d="M83,100.7c11.7,16.4,22.8,1.7,18.3-8.1C96.9,83,83.6,96,83.6,96c0.3,0.6,6.7-6.1,12.2-6.1
		c5.6,0,3.3,8.3,2.5,5.6C96.9,91,87.2,96,87.2,96s13.6-5,9.7,2.5C93,106,83.6,100.7,83,100.7z"/>
	<path fill="#E3B3B8" d="M74.6,112.5c0.1,0,0.1,0,0.2,0c0.8-0.1,1.6-0.4,2.2-0.9c2.8-2.2,0.6-5.8,4.7-9.4c4.2-3.6-0.8-5.8,0.3-4.2
		c0.6,0.9-0.2,2.2-2.3,2.6c-0.4,0.1-0.7,0.1-1.2,0.1c-1.7,0.1-3.8-0.2-6.5-1.3c-0.4-0.1-0.7-0.3-1-0.4c-0.4-0.2-0.8-0.4-1.1-0.6
		c-4.7-2.5-2.3-4-2.3-4c-4.7-0.8,2.2,9.4,1.4,13.6c-0.6,2.8,2.1,4.5,4.7,4.6c0.2,0,0.3,0,0.5,0C74.2,112.5,74.4,112.5,74.6,112.5z"
		/>
	<path fill="#E3B3B8" d="M53.3,103c8.3,2.8,11.9-3.6,11.9-5.3c0-0.3-11.4,0-15.3-8.6c-3.9-8.6,0-16.4,8.3-8.1
		c5.3,6.7,8.6,10.8,8.6,10.8s-3.8-7.9-8.7-12.2c-0.2-0.2-0.4-0.4-0.6-0.5c-2.2-1.7-4.5-2.7-6.8-2c-5.8,2.5-3.1,9.4-3.9,12.8
		C46.1,93.2,45,100.2,53.3,103z"/>
	<path fill="#E3B3B8" d="M97.7,109.1c-11.9,5.6-15-6.1-15-6.1h-0.8c1.4,24,18.9,13.3,23.1,8c4.2-5.3,6.9-1.4,6.9-1.4
		S109.7,103.5,97.7,109.1z"/>
	<path fill="#E3B3B8" d="M55.8,115.2c0.8,9.2-13.3,11.9-13.9,4.2c-0.6-7.8,8.1-4.2,4.7-0.6c-1.4,1.1,3.6,0,5.3-5.6
		c1.7-5.6-6.9-6.9-8.6-2.5c-1.7,4.4-6.1,13.1,2.2,16.7c8.3,3.6,16.1-1.7,15.3-10c-0.8-8.3,0,7.5-5.8,8.9c-2.2-0.6,2.2,1.1,3.6-9.2
		c1.4-10.3,1.4-10.3,7.5-14.7C66.1,102.4,55,106,55.8,115.2z"/>
	<path fill="#98C21F" d="M73,81.3c5-5.8,3.2-13.4,2.8-14.8c0,0.5-0.2,1.7-3.1,4.2c-5.3,4.7-2.8,14.8-2.8,13.9
		c0.3-5.6,3.9-11.7,3.9-11.7S70,84.1,73,81.3z"/>
	<path fill="#98C21F" d="M74.6,112.5c-0.2,0-0.4,0-0.6,0c-0.2,0-0.3,0-0.5,0c-4.7,13.5-5.7,24.4-4.7,32.1c0.4,0.2-0.6-13.4,5.5-31.3
		c5.1,13.8,11,22.9,13.2,24.7c-5.7-8.5-9.8-17.1-12.7-25.5C74.7,112.5,74.6,112.5,74.6,112.5z"/>
	<path fill="#98C21F" d="M96.1,75.2c5-1.1,5.6-8.1,5.6-7.8c-6.1,0-8.1,8.1-8.1,8.1l5.6-5.6C99.1,69.9,93.9,76.6,96.1,75.2z"/>
	<path fill="#98C21F" d="M64.1,52.4l-0.8-5.6c0,0,2.2,7.8,2.5,7.5c1.9-8.6-3.9-14.4-3.9-14.4C58.3,47.4,64.1,52.4,64.1,52.4z"/>
	<path fill="#98C21F" d="M75.9,66.5c0-0.2-0.1-0.2-0.1-0.2S75.8,66.4,75.9,66.5z"/>
	<path fill="#98C21F" d="M71.6,41.6c0.6-2.7-1.9-2.2-1.9-2.2c-5.5,21.9-3.9,42.4,0.1,59c0.3,0.2,0.7,0.4,1.1,0.6
		C65.7,74.7,69.1,53.3,71.6,41.6z"/>
	<path fill="#98C21F" d="M82.2,95.7C95.8,71.9,95,62.4,91.9,63.2c0,0,1.4,9.2-10.3,31.1c-1.1,2.2-2.2,4.3-3.2,6.3
		c0.4,0,0.8-0.1,1.2-0.1C80.4,99,81.3,97.4,82.2,95.7z"/>
</g>
</svg>
