<?xml version="1.0" encoding="utf-8"?>
<!-- Generator: Adobe Illustrator 18.1.0, SVG Export Plug-In . SVG Version: 6.00 Build 0)  -->
<svg version="1.1" id="Layer_1" xmlns="http://www.w3.org/2000/svg" xmlns:xlink="http://www.w3.org/1999/xlink" x="0px" y="0px"
	 viewBox="0 0 1000 1000" enable-background="new 0 0 1000 1000" xml:space="preserve">
<g>
	<path fill="none" d="M350.9,630.6c14.5-26.3,41.9-69.4,80.6-104.2l-33.9-6.2l-5.5-1l-44.6,68.5
		C347.4,601.2,348.6,615.6,350.9,630.6z"/>
	<path fill="none" d="M587,94.9c-16.7,17.5-29.8,35.2-40,52.6c10.2-8.9,22-16.9,35.9-23.8C583.8,112.9,585.3,103.2,587,94.9z"/>
	<polygon fill="none" points="437,476.3 424.1,473 425.2,468.3 408,494.8 	"/>
	<path fill="none" d="M280.8,398.9l-2.8-13.7l13.7,3l42.4,9.3c3.7-7,10.8-17.7,22.7-27.7l-115.2,18.7c-10.3,8-20.6,17.3-30.8,27.9
		c20.3-3,48.6-5.2,73.7,0.1L280.8,398.9z"/>
	<path fill="none" d="M426.4,344.7c-7.8-1.8-16.7-3.3-26.6-4.3c6.6,1.6,12.7,3.3,18.2,4.9C420.7,345,423.5,344.8,426.4,344.7z"/>
	<path fill="none" d="M534.1,817.9c16.6,1.9,33.5,5,50.2,9.4l-0.6-20.1C567.7,810.2,551.2,813.8,534.1,817.9z"/>
	<path fill="#AABA8A" d="M347.6,587.6l44.6-68.5l-17.3-3.2l19.5-12.5l13.7-8.7l17.2-26.4l3.3-13l4.5,1.1l45.4-69.7
		c0,0-14.9,5.2-35.8,18.1C402.6,435.8,348.5,494.8,347.6,587.6z"/>
	<path fill="#AABA8A" d="M340.5,517.8c-16.4,33.8-28.1,75.5-29.9,126.6l19.8-30.5C327.3,577.5,331.8,545.5,340.5,517.8z"/>
	<path fill="#AABA8A" d="M176.9,398.9l30.4-4.9c36.3-34.4,73.1-53.3,106.2-63.1C264.8,332.7,212.9,349,176.9,398.9z"/>
	<path fill="#AABA8A" d="M418,345.3c-5.5-1.6-11.6-3.3-18.2-4.9c-41.7-4.2-99.6,2.3-158.3,48.1l115.2-18.7
		C370.2,358.4,389.9,348,418,345.3z"/>
	<path fill="#AABA8A" d="M546.4,153.4l19.6,10l16.9,8.7c-1.6-17.7-1.3-34,0-48.4c-13.9,6.9-25.7,15-35.9,23.8
		c-28.8,49.3-34.5,96-34.2,126.5l50.9-67.1l-10.5-32.6L546.4,153.4z"/>
	<path fill="#AABA8A" d="M446.7,355.2c0,0-3.7-1.6-10.1-3.8l-0.1,5.5L446.7,355.2z"/>
	<path fill="#AABA8A" d="M543.9,345.5l153.5,54c-9.2-8.4-18.3-15.6-27.4-21.7C606.6,335.2,548.6,344.6,543.9,345.5z"/>
	<path fill="#AABA8A" d="M496,296.1c-1.7-18.2-2.2-49.1,6.6-85.6c-19.9,49.1-14.6,96-14.6,96L496,296.1z"/>
	<path fill="#AABA8A" d="M540.2,327.6c4.4-0.9,107.1-19.5,194.9,85.2l22.8,8c-78-105.3-148.9-124.8-198-120.2
		c-17.5,10.6-27.3,22.3-28.3,23.5l0,0l-14.2-11.5c0.1-0.1,0.6-0.7,1.6-1.8c-17.8,7.5-27.9,16-27.9,16l52.6,18.5L540.2,327.6z"/>
	<path fill="#AABA8A" d="M600.3,158.7l40.9-53.9c-14.3,2.6-27.2,6.3-39,10.6C600.5,128,599.6,142.6,600.3,158.7z"/>
	<path fill="#AABA8A" d="M425.1,275.1l49.7,60C474.5,334.5,459.6,305.8,425.1,275.1z"/>
	<path fill="#AABA8A" d="M463.9,288c-11.6-27.5-35.6-58.8-85.2-69l1.7,2C418.9,241.8,446.1,267.3,463.9,288z"/>
	<path fill="#64C4E8" d="M579.9,669.7c-91.2,13.4-161.6,43.1-213.6,74.5c57.6-13.4,131.8-25.2,215-25.4L579.9,669.7z"/>
	<path fill="#64C4E8" d="M647.7,663.2c2.5,18.8,4.4,38.3,5.5,58.5c3.2,0.3,6.3,0.5,9.5,0.8l160.8-48.9
		C758.9,663.4,700.4,660.6,647.7,663.2z"/>
	<path fill="#64C4E8" d="M247.4,848.6l274.1-83.3c-121.1,8.9-215.2,40.1-248,52.3C255.8,836.1,247.4,848.6,247.4,848.6z"/>
	<path fill="#C2A289" d="M609.4,802.5c-8.3,1.4-16.9,2.9-25.6,4.6l0.6,20.1c1.9,0.5,3.8,1,5.7,1.5l-5.2,18.1l2.7,93.8
		c1.9-5.2,3.7-10.3,5.5-15.4l-1.1-0.3C601.8,882.6,607.2,841.7,609.4,802.5z"/>
	<path fill="#C2A289" d="M647.5,661.2c7.9-197.8-76-284.3-76-284.3l1.2,40.3c13.1,26.2,27.6,59.2,40.8,98.3
		C626.9,555.3,639.8,604.6,647.5,661.2z"/>
	<path fill="#C2A289" d="M609,719.2c-1.1-18.1-2.9-35.6-5.2-52.6c-6.2-45.1-16.1-86.2-27.5-122.4l3.6,125.5l1.4,49.1
		C590.4,718.8,599.7,718.9,609,719.2z"/>
	<path fill="#3F5564" d="M831.7,308.3c-15.7,8.2-23.4,23.6-27,33.8c-24.1-5.8-40.1,5-40.9,5.6l10.4,14.9c1.2-0.7,13.9-8.4,33.2-0.5
		l10.5,4.2l1.9-11.1c0-0.2,4.2-22.3,20.3-30.8L831.7,308.3z"/>
	<polygon fill="#3F5564" points="516.3,309.5 516.3,309.5 516.3,309.5 	"/>
	<path fill="#3F5564" d="M702.4,561.8c0.3-0.1,33.8-5.9,54.7,12.7l12.2-13.6c-19.5-17.4-45.5-18.9-59.8-18.1
		c-2.9-35.9-25.5-52.1-26.6-52.8l-10.3,15l-0.1,0c0.8,0.6,20,14.7,19.1,47.6l-0.3,11.3L702.4,561.8z"/>
	<path fill="#3F5564" d="M327.9,283.2l5.5,9.8l8.5-7.4l12.1-10.5l16.2,32.4l16.3-8.2L365,256.5l-5.3-10.5l-8.9,7.7l-12.8,11.2
		c-15.7-23.8-38-44.2-56-58.5c65.7,12.1,112.2,41.2,143.1,68.8c34.4,30.7,49.4,59.4,49.7,60l16.3-8.2c-0.9-1.8-9.3-18-27.2-38.8
		c-17.8-20.8-45-46.2-83.5-67c-34.6-18.6-78.4-33.4-132.8-37.6l-5.4,16.9C242.7,200.7,302.3,237.3,327.9,283.2z"/>
	<path fill="#3F5564" d="M496,296.1c1,10.9,2.4,17.4,2.5,17.6l17.7-4.2c-0.4-1.7-3.3-14.9-3.5-35.5c-0.3-30.5,5.4-77.2,34.2-126.5
		c10.2-17.4,23.3-35.2,40-52.6c-1.7,8.3-3.1,18-4.1,28.8c-1.3,14.4-1.6,30.7,0,48.4l-16.9-8.7l-19.6-10l6.8,20.9l10.5,32.6l5.8,17.8
		c-13.8,5.7-38.6,20.2-46.4,53.9l17.8,4.1c8.3-35.4,41.7-43.3,42.1-43.4l9.7-2.2l-3.1-9.5l-12.3-38.1l12.5,6.4l15.9,8.2l-2.8-17.7
		c-1.5-9.7-2.3-19-2.7-27.9c-0.7-16.1,0.2-30.7,1.9-43.3c3.6-28.1,10.6-45.9,10.7-46.2l-14.4-10.3c-58.3,49.9-84.6,105.3-95.8,151.6
		C493.8,247,494.3,277.9,496,296.1z"/>
	<path fill="#3F5564" d="M531.6,324.1L531.6,324.1c1-1.2,10.8-12.9,28.3-23.5c28.7-17.4,78.2-32.1,143.8,6.8l9.3-15.7
		c-110.1-65.2-182.7,6.7-194,19.1c-1,1.1-1.5,1.7-1.6,1.8L531.6,324.1z"/>
	<path fill="#3F5564" d="M647.7,663.2c-0.1-0.6-0.2-1.3-0.3-1.9c-7.6-56.7-20.6-106-34-145.6c-13.2-39.1-27.7-72.1-40.8-98.3
		c-21.5-42.9-39-67.3-40.1-68.9l-35.4,25.7l0,0c0.9,1.2,46.1,65.1,79.2,170.1c11.4,36.2,21.3,77.3,27.5,122.4
		c2.3,17,4.1,34.5,5.2,52.6c-9.4-0.3-18.6-0.4-27.8-0.3c-83.2,0.2-157.4,12-215,25.4c-72.2,16.8-118.2,36.2-122.6,38l17.2,40.2l0,0
		c0.3-0.1,4.7-2,12.6-4.9c32.8-12.2,127-43.5,248-52.3c18.9-1.4,38.4-2.2,58.4-2.3c-66.4,12.5-142.9,33-219.8,66.8l14.3,41.2
		c1.1-0.3,108.7-27.3,203.6-0.1l6.8-23.9l5.2-18.1c-1.9-0.6-3.8-1-5.7-1.5c-16.7-4.4-33.6-7.5-50.2-9.4c17-4.1,33.6-7.7,49.6-10.7
		c8.7-1.7,17.3-3.2,25.6-4.6c-2.1,39.2-7.5,80.1-17.5,122.5l1.1,0.3l41.5,9.7c11.3-48.4,17.2-95,19.1-139
		c77.1-9.7,129.2-8.3,130.2-8.2l6.3-43c-43.4-11.4-86.2-18.5-127.5-22.4c-3.2-0.3-6.3-0.5-9.5-0.8
		C652.1,701.4,650.2,681.9,647.7,663.2z"/>
	<path fill="#3F5564" d="M476.4,361.9c-1.9,0.9-48,22.8-88.4,70.5c-17.9,21.2-36.2,49.6-47.5,85.4c-8.7,27.6-13.2,59.6-10.1,96.1
		c1.3,14.8,3.8,30.3,7.8,46.5l6.4,25.9l10.8-24.3c0.4-0.8,37.7-83.5,102.4-133.8l16.1-12.5l-20-3.7l-30.2-5.6l40.9-26.2l17.8-11.4
		l-20.5-5.2l-28.9-7.3l-4.5-1.1l-3.3,13l-1.2,4.7l12.9,3.3L408,494.8l-13.7,8.7L374.9,516l17.3,3.2l5.5,1l33.9,6.2
		c-38.8,34.8-66.1,77.9-80.6,104.2c-2.4-15-3.5-29.4-3.3-43c0.9-92.9,55.1-151.8,95-182.7c21.8-16.9,39.4-25.4,41.6-26.5
		L476.4,361.9z"/>
	<path fill="#3F5564" d="M293.1,438l15.5,5.9l-3.3-16.2l-3.8-18.6l35.8,7.9l7.8,1.7l2.7-7.6c0.7-2,19.3-50.1,88.6-48.3l0.1-5.9
		l0.1-5.5l0.1-4c14.4,4.1,23.3,8.3,24.7,8.9l8-16.4c-1.6-0.8-40.2-19.5-95.6-18.4c-17.6,0.3-38.2,2.8-60.4,9.4
		c-33.1,9.8-69.9,28.7-106.2,63.1c-9.6,9.2-19.2,19.4-28.7,30.8l-18.1,21.9l27.5-7.3C188.6,439.3,252.8,422.6,293.1,438z
		 M210.7,416.4c10.2-10.6,20.5-19.9,30.8-27.9c58.6-45.7,116.6-52.2,158.3-48.1c9.8,1,18.7,2.5,26.6,4.3c-2.9,0.1-5.7,0.3-8.4,0.6
		c-28.1,2.8-47.8,13.1-61.3,24.5c-11.9,10-19,20.8-22.7,27.7l-42.4-9.3l-13.7-3l2.8,13.7l3.6,17.6
		C259.3,411.1,231,413.3,210.7,416.4z"/>
	<path fill="#3F5564" d="M540.2,327.6l3.5,17.8l0,0.1c0,0,0.1,0,0.1,0c0,0,0,0,0,0c4.7-0.9,62.7-10.3,126,32.3
		c9.1,6.1,18.3,13.3,27.4,21.7c4.2,3.8,8.3,7.9,12.4,12.2l-56-2.8l4.8-5.2l10-10.9l-14.2-4.1l-57-16.4l-5,17.5l42.9,12.3l-8,8.7
		L614,425.2l19.4,1l97,4.8l20.4,1L738,416.2c-0.9-1.2-1.9-2.2-2.9-3.4C647.4,308.1,544.6,326.7,540.2,327.6z"/>
</g>
</svg>
