<?xml version="1.0" encoding="utf-8"?>
<!-- Generator: Adobe Illustrator 18.1.0, SVG Export Plug-In . SVG Version: 6.00 Build 0)  -->
<svg version="1.0" id="Layer_1" xmlns="http://www.w3.org/2000/svg" xmlns:xlink="http://www.w3.org/1999/xlink" x="0px" y="0px"
	 viewBox="0 0 150 150" enable-background="new 0 0 150 150" xml:space="preserve">
<g>
	<path fill="none" d="M138.3,88.5c-0.2-4.1-0.8-8.1-1.8-12c-1-3.9-2.4-7.7-4.1-11.4c-3.4-7.3-8.2-13.8-14-19.2
		c-2.9-2.7-6-5.1-9.3-7.2c-3.3-2.1-6.8-3.8-10.4-5.3c-3.6-1.5-7.4-2.5-11.2-3.2c-1.9-0.4-3.8-0.6-5.8-0.8c-1-0.1-1.9-0.2-2.9-0.2
		c-0.5,0-1,0-1.5,0l-1.5,0l-1.4,0c-0.5,0-1,0-1.5,0.1c-1,0-1.9,0.1-2.9,0.2c-1.9,0.2-3.9,0.5-5.8,0.8c-3.8,0.7-7.6,1.8-11.2,3.2
		c-7.3,2.8-14,7.1-19.8,12.5c-5.8,5.4-10.6,11.9-14,19.2c-3.4,7.2-5.5,15.3-5.9,23.4c-0.4,8.2,0.8,16.5,3.6,24.4
		c1.1,3.1,2.5,6.2,4.2,9.1c-0.7,0.4-1.4,0.7-2.1,1.1c5.8-1.9,12-3.2,18.1-3.9c6.1-0.7,12.3-0.7,18.5-0.1c6.2,0.7,12,1.8,18,2.7
		c1.7,0.3,3.5,0.5,5.3,0.8c1.8-24.9-12.2-38.3-12.4-38.4c-3.6-3.1-7.8-6.3-12.3-8.5c0,0,12.7,11.5,18,23.8c0,0-11.6,10.4-25.4-6.7
		C32.9,75.6,36.6,51.8,36.6,51.8s6.2,12.3,23.7,16.8C77.4,73,82.8,83.2,77.5,94.7c2.7,4.2,4.4,8.6,5.3,12.8c0.8-2.5,1.9-5,3.5-7.4
		c-4.5-9.5,0.1-17.9,14.2-21.6c14.4-3.7,19.5-13.9,19.5-13.9s3.1,19.7-8.4,33.8c-11.4,14.1-21,5.5-21,5.5
		c4.4-10.2,14.9-19.7,14.9-19.7c-3.8,1.9-7.2,4.5-10.2,7c-0.1,0.1-11.9,11.4-10.2,32.2c2.1,0.3,4.1,0.7,6.2,1
		c5.9,0.9,11.8,1.5,17.8,1.8c5.9,0.2,11.9,0.1,17.7-0.9c0.6-0.1,1.2-0.3,1.9-0.4c2.4-3.8,4.5-7.8,6-12
		C137.5,105,138.7,96.7,138.3,88.5z"/>
	<path fill="#FBEE59" d="M21.1,122c-1.6-2.9-3-6-4.2-9.1c-2.8-7.9-4-16.2-3.6-24.4c0.4-8.2,2.4-16.2,5.9-23.4
		c3.4-7.3,8.2-13.8,14-19.2C39,40.5,45.7,36.3,53,33.4c3.6-1.5,7.4-2.5,11.2-3.2c1.9-0.4,3.8-0.6,5.8-0.8c1-0.1,1.9-0.2,2.9-0.2
		c0.5,0,1,0,1.5-0.1l1.4,0l1.5,0c0.5,0,1,0,1.5,0c1,0,1.9,0.1,2.9,0.2c1.9,0.2,3.9,0.5,5.8,0.8c3.8,0.8,7.6,1.8,11.2,3.2
		c3.6,1.5,7.1,3.2,10.4,5.3c3.3,2.1,6.4,4.5,9.3,7.2c5.8,5.4,10.6,11.9,14,19.2c1.7,3.6,3.1,7.4,4.1,11.4c1,3.9,1.6,8,1.8,12
		c0.4,8.2-0.8,16.5-3.6,24.4c-1.5,4.2-3.6,8.2-6,12c1.3-0.2,2.5-0.6,3.7-0.9c2.1-3.1,4.1-6.3,5.7-9.8c1.9-4,3.4-8.2,4.4-12.5
		c1.1-4.3,1.7-8.8,1.9-13.3c0.4-9-0.9-18.2-4.1-26.8c-3.2-8.6-8.1-16.6-14.5-23.4c-3.2-3.4-6.7-6.5-10.5-9.1
		c-3.8-2.7-7.9-5-12.2-6.8c-4.3-1.8-8.8-3.3-13.4-4.2c-2.3-0.5-4.6-0.8-7-1.1c-1.2-0.1-2.3-0.2-3.5-0.3c-0.6,0-1.2-0.1-1.8-0.1
		l-0.9,0h-0.8l-0.9,0l-0.9,0c-0.6,0-1.2,0-1.8,0.1c-1.2,0.1-2.3,0.2-3.5,0.3c-2.3,0.2-4.7,0.6-7,1.1c-4.6,1-9.1,2.4-13.4,4.2
		c-8.6,3.7-16.4,9.2-22.7,16c-6.4,6.7-11.3,14.8-14.5,23.4c-3.2,8.6-4.5,17.8-4.1,26.8c0.4,9,2.6,17.8,6.3,25.8
		c1.5,3.1,3.1,6.1,5,8.9c0.1-0.1,0.3-0.1,0.4-0.2C19.7,122.7,20.4,122.4,21.1,122z"/>
	<path fill="#37B34A" d="M95.4,91.3c2.9-2.6,6.4-5.1,10.2-7c0,0-10.4,9.5-14.9,19.7c0,0,9.6,8.6,21-5.5c11.4-14.1,8.4-33.8,8.4-33.8
		s-5.2,10.2-19.5,13.9c-14.2,3.6-18.7,12-14.2,21.6c-1.6,2.4-2.7,4.9-3.5,7.4c-1-4.2-2.6-8.6-5.3-12.8c5.4-11.5-0.1-21.7-17.2-26.1
		c-17.4-4.5-23.7-16.8-23.7-16.8s-3.7,23.8,10.1,40.9c13.8,17.1,25.4,6.7,25.4,6.7c-5.4-12.3-18-23.8-18-23.8
		c4.5,2.3,8.8,5.4,12.3,8.5c0.1,0.1,14.2,13.5,12.4,38.4c2.1,0.3,4.3,0.7,6.4,1C83.5,102.7,95.3,91.4,95.4,91.3z"/>
	<path fill="#8BC53F" d="M132.4,124.1c-1.2,0.3-2.5,0.6-3.7,0.9c-0.6,0.1-1.2,0.3-1.9,0.4c-5.8,1-11.8,1.1-17.7,0.9
		c-5.9-0.3-11.9-0.9-17.8-1.8c-2.1-0.3-4.1-0.6-6.2-1c-2.1-0.3-4.3-0.7-6.4-1c-1.8-0.3-3.5-0.5-5.3-0.8c-6-0.9-11.8-2-18-2.7
		c-6.1-0.5-12.4-0.6-18.5,0.1c-6.1,0.7-12.2,1.9-18.1,3.9c-0.1,0-0.3,0.1-0.4,0.2c-5.6,1.9-11,4.4-15.9,7.6
		c11.1-4.8,22.9-7.2,34.7-7.8c5.9-0.2,11.8-0.1,17.7,0.7c5.8,0.7,11.8,1.9,17.7,2.9c11.9,1.8,24,3.7,36.3,3.5
		c6.1-0.1,12.3-0.8,18.3-2.4c0.5-0.2,1.1-0.4,1.6-0.6c0.6-0.2,1.1-0.4,1.7-0.6c4.7-1.6,9.3-3.6,13.3-6.4
		C140.2,121.8,136.3,123.1,132.4,124.1z"/>
</g>
</svg>
