<?xml version="1.0" encoding="utf-8"?>
<!-- Generator: Adobe Illustrator 18.1.0, SVG Export Plug-In . SVG Version: 6.00 Build 0)  -->
<svg version="1.1" id="Layer_1" xmlns="http://www.w3.org/2000/svg" xmlns:xlink="http://www.w3.org/1999/xlink" x="0px" y="0px"
	 viewBox="0 0 150 150" enable-background="new 0 0 150 150" xml:space="preserve">
<g>
	<path fill="#051837" d="M137.2,68.4L90,21.5v11.7l41.3,41.1c0.6,0.6,0.8,1.3,0.8,2.1c0,0.8-0.6,1.5-1.1,2.1L83,126.8
		c0-8,0-19.4,0-20.4c11-2.9,17.2-10.5,17.2-20.4c0-5-1.1-9.1-3.8-12.4C94.9,72,93,70.7,90.7,70c-0.3-0.1-0.5-0.3-0.9-0.4
		c-3.8-1.4-11.8-4.3-11.8-4.3l-1.6,4.4l-8.4-13L83,52.2l-1.6,4.3c0,0,6.8,2.5,11.3,4.1c0.5,0.2,1,0.4,1.4,0.6l4.4-16.1l-2.8-1.3
		c-3.5-1.6-7.4-2.7-11.7-3.1c0-0.7,0-4.7,0-9l0,0l0.2-16.4c-2.1-2.1-6.5-4.1-9.5-4.1c-3,0-5.9,1.2-8,3.3L12.5,69
		c-2.1,2.1-3.3,5-3.3,8c0,3,1.2,5.9,3.3,8l46.2,45.8l-0.1-11.8L18.5,79c-0.6-0.6-0.9-1.3-0.9-2.1c0-0.8,0.3-1.5,0.9-2.1l48.7-49.1
		c0,6.4,0,15.2,0,16.1C57,44.8,51,52.1,51,61.7c0,8.2,4.3,13.2,9.9,16.6c0.3,0.1,0.6,0.3,1,0.4c0.3,0.1,0.6,0.3,0.9,0.4
		c3.8,1.4,11.8,4.3,11.8,4.3l1.6-4.4l8.4,13l-14.9,4.6l1.6-4.3c0,0-6.8-2.5-11.3-4.1c-3-1.1-4.6-2.8-5.3-4.5l-4.8,18.6l2.7,1.4
		c3.6,2,8.4,3.5,14.4,4.1c0,1.1,0,11.6,0,19.2v-0.1v11.7l0.4,0.6c2.1,2.1,4.8,3.3,7.8,3.3c3,0,5.8-1.2,8-3.3l54.1-54.5
		c2.1-2.1,3.3-5,3.3-8C140.5,73.4,139.4,70.6,137.2,68.4z"/>
</g>
</svg>
