<?xml version="1.0" encoding="utf-8"?>
<!-- Generator: Adobe Illustrator 18.1.0, SVG Export Plug-In . SVG Version: 6.00 Build 0)  -->
<svg version="1.1" id="Layer_1" xmlns="http://www.w3.org/2000/svg" xmlns:xlink="http://www.w3.org/1999/xlink" x="0px" y="0px"
	 viewBox="0 0 150 150" enable-background="new 0 0 150 150" xml:space="preserve">
<g>
	<g>
		<path fill-rule="evenodd" clip-rule="evenodd" fill="#1B85C7" d="M57,19.6c0.7-0.5,1.6-0.9,2.5-1.2c0.9-0.2,1.8-0.3,2.7-0.2
			c-1.4-1.2-2.3-3-2.3-5c0-0.8,0.1-1.5,0.4-2.2c-0.7,0.5-1.5,0.9-2.5,1.2c-0.9,0.2-1.8,0.3-2.7,0.2c0.6,0.5,1.1,1.1,1.4,1.7
			C57.5,15.8,57.6,17.8,57,19.6z"/>
		<path fill-rule="evenodd" clip-rule="evenodd" fill="#1B85C7" d="M66.4,18.5c2.6,0,5-2.1,8.1-2.1s5.5,2.1,8.1,2.1
			c3,0,5.4-2.4,5.4-5.4s-2.4-5.4-5.4-5.4c-2.7,0-5,2.1-8.1,2.1s-5.5-2.1-8.1-2.1c-3,0-5.4,2.4-5.4,5.4S63.5,18.5,66.4,18.5z
			 M82.7,10.2c1.6,0,2.9,1.3,2.9,2.9c0,1.6-1.3,2.9-2.9,2.9c-1.6,0-2.9-1.3-2.9-2.9C79.8,11.5,81.1,10.2,82.7,10.2z M66.4,10.2
			c1.6,0,2.9,1.3,2.9,2.9c0,1.6-1.3,2.9-2.9,2.9c-1.6,0-2.9-1.3-2.9-2.9C63.6,11.5,64.9,10.2,66.4,10.2z"/>
		<path fill-rule="evenodd" clip-rule="evenodd" fill="#1B85C7" d="M137.1,55.3c-0.5,0.6-1.1,1-1.7,1.4c-1.7,1-3.8,1.1-5.5,0.5
			c0.5,0.7,0.9,1.6,1.2,2.5c0.3,0.9,0.3,1.8,0.2,2.7c1.2-1.4,3-2.3,5-2.3c0.8,0,1.5,0.1,2.2,0.4c-0.5-0.7-0.9-1.5-1.2-2.5
			C137.1,57.1,137.1,56.2,137.1,55.3z"/>
		<path fill-rule="evenodd" clip-rule="evenodd" fill="#1B85C7" d="M113.7,32c0.8,0.4,1.6,0.9,2.2,1.6c0.7,0.7,1.2,1.5,1.6,2.2
			c0.3-1.8,1.4-3.5,3.2-4.5c0.7-0.4,1.4-0.6,2.1-0.8c-0.8-0.4-1.6-0.9-2.2-1.6c-0.7-0.7-1.2-1.5-1.6-2.2c-0.1,0.7-0.4,1.4-0.8,2.1
			C117.2,30.5,115.5,31.6,113.7,32z"/>
		<path fill-rule="evenodd" clip-rule="evenodd" fill="#1B85C7" d="M119.3,39.7c1.3,2.3,4.3,3.3,5.9,6c1.6,2.7,0.9,5.8,2.2,8.1
			c1.5,2.6,4.8,3.5,7.4,2c2.6-1.5,3.5-4.8,2-7.4c-1.3-2.3-4.3-3.3-5.9-6c-1.6-2.7-0.9-5.8-2.2-8.1c-1.5-2.6-4.8-3.5-7.4-2
			C118.7,33.8,117.8,37.1,119.3,39.7z M130.7,48.5c1.4-0.8,3.1-0.3,3.9,1.1c0.8,1.4,0.3,3.1-1.1,3.9c-1.4,0.8-3.1,0.3-3.9-1.1
			C128.8,51.1,129.3,49.3,130.7,48.5z M122.5,34.5c1.4-0.8,3.1-0.3,3.9,1.1c0.8,1.4,0.3,3.1-1.1,3.9c-1.4,0.8-3.1,0.3-3.9-1.1
			C120.7,37,121.2,35.3,122.5,34.5z"/>
		<path fill-rule="evenodd" clip-rule="evenodd" fill="#1B85C7" d="M87,18.2c0.9,0,1.8,0,2.7,0.2c0.9,0.2,1.7,0.7,2.5,1.2
			c-0.6-1.8-0.5-3.8,0.5-5.5c0.4-0.7,0.9-1.3,1.4-1.7c-0.9,0-1.8,0-2.7-0.2c-0.9-0.2-1.7-0.7-2.5-1.2c0.2,0.7,0.4,1.4,0.4,2.2
			C89.3,15.1,88.4,16.9,87,18.2z"/>
		<path fill-rule="evenodd" clip-rule="evenodd" fill="#1B85C7" d="M39.4,30.1c2.3-1.3,3.3-4.3,6-5.9c2.7-1.6,5.8-0.9,8.1-2.2
			c2.6-1.5,3.5-4.8,2-7.4c-1.5-2.6-4.8-3.5-7.4-2c-2.3,1.3-3.3,4.3-6,5.9c-2.7,1.6-5.8,0.9-8.1,2.2c-2.6,1.5-3.5,4.8-2,7.4
			C33.5,30.7,36.8,31.6,39.4,30.1z M49.3,14.8c1.4-0.8,3.1-0.3,3.9,1.1c0.8,1.4,0.3,3.1-1.1,3.9c-1.4,0.8-3.1,0.3-3.9-1.1
			C47.5,17.4,47.9,15.6,49.3,14.8z M35.2,23c1.4-0.8,3.1-0.3,3.9,1.1c0.8,1.4,0.3,3.1-1.1,3.9c-1.4,0.8-3.1,0.3-3.9-1.1
			C33.4,25.5,33.8,23.8,35.2,23z"/>
		<path fill-rule="evenodd" clip-rule="evenodd" fill="#1B85C7" d="M95.7,22c2.3,1.3,5.4,0.7,8.1,2.2c2.7,1.6,3.7,4.6,6,5.9
			c2.6,1.5,5.9,0.6,7.4-2c1.5-2.6,0.6-5.9-2-7.4c-2.3-1.3-5.4-0.7-8.1-2.2c-2.7-1.6-3.7-4.6-6-5.9c-2.6-1.5-5.9-0.6-7.4,2
			C92.2,17.2,93.1,20.5,95.7,22z M110,24c0.8-1.4,2.6-1.8,3.9-1.1c1.4,0.8,1.9,2.6,1.1,3.9c-0.8,1.4-2.6,1.9-3.9,1.1
			C109.7,27.2,109.2,25.4,110,24z M95.9,15.9c0.8-1.4,2.6-1.9,3.9-1.1c1.4,0.8,1.9,2.6,1.1,3.9c-0.8,1.4-2.6,1.8-3.9,1.1
			C95.6,19,95.1,17.3,95.9,15.9z"/>
		<path fill-rule="evenodd" clip-rule="evenodd" fill="#1B85C7" d="M92.2,130.2c-0.7,0.5-1.6,0.9-2.5,1.2c-0.9,0.2-1.8,0.3-2.7,0.2
			c1.4,1.2,2.3,3,2.3,5c0,0.8-0.1,1.5-0.4,2.2c0.7-0.5,1.6-0.9,2.5-1.2c0.9-0.2,1.8-0.3,2.7-0.2c-0.6-0.5-1.1-1.1-1.4-1.7
			C91.7,134,91.6,131.9,92.2,130.2z"/>
		<path fill-rule="evenodd" clip-rule="evenodd" fill="#1B85C7" d="M62.2,131.6c-0.9,0-1.8,0-2.7-0.2c-0.9-0.3-1.7-0.7-2.5-1.2
			c0.6,1.8,0.5,3.8-0.5,5.5c-0.4,0.7-0.9,1.3-1.4,1.7c0.9,0,1.8,0,2.7,0.2c0.9,0.2,1.7,0.7,2.5,1.2c-0.2-0.7-0.4-1.4-0.4-2.2
			C59.8,134.6,60.7,132.8,62.2,131.6z"/>
		<path fill-rule="evenodd" clip-rule="evenodd" fill="#1B85C7" d="M117.5,114c-0.4,0.8-0.9,1.6-1.6,2.2c-0.7,0.7-1.5,1.2-2.2,1.6
			c1.8,0.3,3.5,1.4,4.5,3.2c0.4,0.7,0.6,1.4,0.8,2.1c0.4-0.8,0.9-1.6,1.6-2.2c0.7-0.7,1.4-1.2,2.2-1.6c-0.7-0.1-1.4-0.4-2.1-0.8
			C118.9,117.5,117.8,115.8,117.5,114z"/>
		<path fill-rule="evenodd" clip-rule="evenodd" fill="#1B85C7" d="M82.7,131.2c-2.7,0-5,2.1-8.1,2.1s-5.5-2.1-8.1-2.1
			c-3,0-5.4,2.4-5.4,5.4c0,3,2.4,5.4,5.4,5.4c2.6,0,5-2.1,8.1-2.1s5.5,2.1,8.1,2.1c3,0,5.4-2.4,5.4-5.4
			C88.1,133.6,85.7,131.2,82.7,131.2z M66.4,139.5c-1.6,0-2.9-1.3-2.9-2.9c0-1.6,1.3-2.9,2.9-2.9c1.6,0,2.9,1.3,2.9,2.9
			C69.3,138.2,68,139.5,66.4,139.5z M82.7,139.5c-1.6,0-2.9-1.3-2.9-2.9c0-1.6,1.3-2.9,2.9-2.9c1.6,0,2.9,1.3,2.9,2.9
			C85.6,138.2,84.3,139.5,82.7,139.5z"/>
		<path fill-rule="evenodd" clip-rule="evenodd" fill="#1B85C7" d="M109.8,119.6c-2.3,1.3-3.3,4.3-6,5.9c-2.7,1.6-5.8,0.9-8.1,2.2
			c-2.6,1.5-3.5,4.8-2,7.4c1.5,2.6,4.8,3.5,7.4,2c2.3-1.3,3.3-4.3,6-5.9c2.7-1.6,5.8-0.9,8.1-2.2c2.6-1.5,3.5-4.8,2-7.4
			C115.7,119,112.4,118.1,109.8,119.6z M99.8,134.9c-1.4,0.8-3.1,0.3-3.9-1.1c-0.8-1.4-0.3-3.1,1.1-3.9c1.4-0.8,3.1-0.3,3.9,1.1
			C101.7,132.3,101.2,134.1,99.8,134.9z M113.9,126.8c-1.4,0.8-3.1,0.3-3.9-1.1c-0.8-1.4-0.3-3.1,1.1-3.9c1.4-0.8,3.1-0.3,3.9,1.1
			C115.8,124.2,115.3,126,113.9,126.8z"/>
		<path fill-rule="evenodd" clip-rule="evenodd" fill="#1B85C7" d="M141.7,66.7c0-3-2.4-5.4-5.4-5.4c-3,0-5.4,2.4-5.4,5.4
			c0,2.6,2.1,5,2.1,8.1c0,3.1-2.1,5.5-2.1,8.1c0,3,2.4,5.4,5.4,5.4c3,0,5.4-2.4,5.4-5.4c0-2.6-2.1-5-2.1-8.1
			C139.6,71.7,141.7,69.4,141.7,66.7z M136.3,85.9c-1.6,0-2.9-1.3-2.9-2.9c0-1.6,1.3-2.9,2.9-2.9c1.6,0,2.9,1.3,2.9,2.9
			C139.2,84.6,137.9,85.9,136.3,85.9z M136.3,69.6c-1.6,0-2.9-1.3-2.9-2.9c0-1.6,1.3-2.9,2.9-2.9c1.6,0,2.9,1.3,2.9,2.9
			C139.2,68.3,137.9,69.6,136.3,69.6z"/>
		<path fill-rule="evenodd" clip-rule="evenodd" fill="#1B85C7" d="M131.3,87.3c0,0.9,0,1.8-0.2,2.7c-0.2,0.9-0.7,1.7-1.2,2.5
			c1.8-0.6,3.8-0.5,5.5,0.5c0.7,0.4,1.3,0.9,1.7,1.4c0-0.9,0-1.8,0.2-2.7c0.2-0.9,0.7-1.7,1.2-2.5c-0.7,0.2-1.4,0.4-2.2,0.4
			C134.3,89.6,132.5,88.7,131.3,87.3z"/>
		<path fill-rule="evenodd" clip-rule="evenodd" fill="#1B85C7" d="M134.8,94c-2.6-1.5-5.9-0.6-7.4,2c-1.3,2.3-0.7,5.4-2.2,8.1
			c-1.6,2.7-4.6,3.7-5.9,6c-1.5,2.6-0.6,5.9,2,7.4c2.6,1.5,5.9,0.6,7.4-2c1.3-2.3,0.7-5.4,2.2-8.1c1.6-2.7,4.6-3.7,5.9-6
			C138.3,98.8,137.4,95.5,134.8,94z M126.5,114.2c-0.8,1.4-2.6,1.9-3.9,1.1c-1.4-0.8-1.8-2.6-1.1-3.9c0.8-1.4,2.6-1.9,3.9-1.1
			C126.8,111.1,127.3,112.8,126.5,114.2z M134.6,100.1c-0.8,1.4-2.6,1.9-3.9,1.1c-1.4-0.8-1.8-2.6-1.1-3.9c0.8-1.4,2.6-1.8,3.9-1.1
			C134.9,97,135.4,98.8,134.6,100.1z"/>
		<path fill-rule="evenodd" clip-rule="evenodd" fill="#1B85C7" d="M18.2,83c0-2.6-2.1-5-2.1-8.1c0-3.1,2.1-5.5,2.1-8.1
			c0-3-2.4-5.4-5.4-5.4c-3,0-5.4,2.4-5.4,5.4c0,2.6,2.1,5,2.1,8.1c0,3.1-2.1,5.5-2.1,8.1c0,3,2.4,5.4,5.4,5.4
			C15.8,88.4,18.2,86,18.2,83z M12.8,63.9c1.6,0,2.9,1.3,2.9,2.9c0,1.6-1.3,2.9-2.9,2.9c-1.6,0-2.9-1.3-2.9-2.9
			C10,65.1,11.2,63.9,12.8,63.9z M10,83c0-1.6,1.3-2.9,2.9-2.9c1.6,0,2.9,1.3,2.9,2.9c0,1.6-1.3,2.9-2.9,2.9
			C11.2,85.9,10,84.6,10,83z"/>
		<path fill-rule="evenodd" clip-rule="evenodd" fill="#1B85C7" d="M17.9,62.5c0-0.9,0-1.8,0.2-2.7c0.3-0.9,0.7-1.7,1.2-2.5
			c-1.8,0.6-3.8,0.5-5.5-0.5c-0.7-0.4-1.3-0.9-1.7-1.4c0,0.9,0,1.8-0.2,2.7c-0.2,0.9-0.7,1.7-1.2,2.5c0.7-0.2,1.4-0.4,2.2-0.4
			C14.8,60.1,16.7,61,17.9,62.5z"/>
		<path fill-rule="evenodd" clip-rule="evenodd" fill="#1B85C7" d="M31.7,35.8c0.4-0.8,0.9-1.6,1.6-2.2c0.7-0.7,1.5-1.2,2.2-1.6
			c-1.8-0.3-3.5-1.4-4.5-3.2c-0.4-0.7-0.6-1.4-0.8-2.1c-0.4,0.8-0.9,1.6-1.6,2.2c-0.7,0.7-1.4,1.2-2.2,1.6c0.7,0.1,1.4,0.4,2.1,0.8
			C30.2,32.2,31.3,33.9,31.7,35.8z"/>
		<path fill-rule="evenodd" clip-rule="evenodd" fill="#1B85C7" d="M14.3,55.7c2.6,1.5,5.9,0.6,7.4-2c1.3-2.3,0.7-5.4,2.2-8.1
			c1.6-2.7,4.6-3.7,5.9-6c1.5-2.6,0.6-5.9-2-7.4c-2.6-1.5-5.9-0.6-7.4,2c-1.3,2.3-0.7,5.4-2.2,8.1c-1.6,2.7-4.6,3.7-5.9,6
			C10.9,50.9,11.8,54.2,14.3,55.7z M22.7,35.5c0.8-1.4,2.6-1.8,3.9-1.1c1.4,0.8,1.8,2.6,1.1,3.9c-0.8,1.4-2.6,1.8-3.9,1.1
			C22.4,38.7,21.9,36.9,22.7,35.5z M14.5,49.6c0.8-1.4,2.6-1.9,3.9-1.1c1.4,0.8,1.8,2.6,1.1,3.9c-0.8,1.4-2.6,1.9-3.9,1.1
			C14.2,52.7,13.8,51,14.5,49.6z"/>
		<path fill-rule="evenodd" clip-rule="evenodd" fill="#1B85C7" d="M53.4,127.7c-2.3-1.3-5.4-0.7-8.1-2.2c-2.7-1.6-3.7-4.6-6-5.9
			c-2.6-1.5-5.9-0.6-7.4,2c-1.5,2.6-0.6,5.9,2,7.4c2.3,1.3,5.4,0.7,8.1,2.2c2.7,1.6,3.7,4.6,6,5.9c2.6,1.5,5.9,0.6,7.4-2
			C56.9,132.5,56,129.2,53.4,127.7z M39.2,125.7c-0.8,1.4-2.6,1.9-3.9,1.1c-1.4-0.8-1.8-2.6-1.1-3.9c0.8-1.4,2.6-1.9,3.9-1.1
			C39.5,122.6,40,124.3,39.2,125.7z M53.2,133.8c-0.8,1.4-2.6,1.9-3.9,1.1c-1.4-0.8-1.8-2.6-1.1-3.9c0.8-1.4,2.6-1.9,3.9-1.1
			C53.6,130.7,54,132.5,53.2,133.8z"/>
		<path fill-rule="evenodd" clip-rule="evenodd" fill="#1B85C7" d="M12,94.4c0.5-0.6,1.1-1.1,1.7-1.4c1.7-1,3.8-1.1,5.5-0.5
			c-0.5-0.7-0.9-1.6-1.2-2.5c-0.3-0.9-0.3-1.8-0.2-2.7c-1.2,1.4-3,2.3-5,2.3c-0.8,0-1.5-0.1-2.2-0.4c0.5,0.7,0.9,1.5,1.2,2.5
			C12,92.6,12.1,93.5,12,94.4z"/>
		<path fill-rule="evenodd" clip-rule="evenodd" fill="#1B85C7" d="M35.5,117.8c-0.8-0.4-1.6-0.9-2.2-1.6c-0.7-0.7-1.2-1.4-1.6-2.2
			c-0.3,1.8-1.4,3.5-3.2,4.5c-0.7,0.4-1.4,0.6-2.1,0.8c0.8,0.4,1.6,0.9,2.2,1.6c0.7,0.7,1.2,1.4,1.6,2.2c0.1-0.7,0.4-1.4,0.8-2.1
			C32,119.2,33.6,118.1,35.5,117.8z"/>
		<path fill-rule="evenodd" clip-rule="evenodd" fill="#1B85C7" d="M29.8,110.1c-1.3-2.3-4.3-3.3-5.9-6c-1.6-2.7-0.9-5.8-2.2-8.1
			c-1.5-2.6-4.8-3.5-7.4-2c-2.6,1.5-3.5,4.8-2,7.4c1.3,2.3,4.3,3.3,5.9,6c1.6,2.7,0.9,5.8,2.2,8.1c1.5,2.6,4.8,3.5,7.4,2
			C30.4,115.9,31.3,112.7,29.8,110.1z M18.5,101.2c-1.4,0.8-3.1,0.3-3.9-1.1c-0.8-1.4-0.3-3.1,1.1-3.9c1.4-0.8,3.1-0.3,3.9,1.1
			C20.3,98.6,19.9,100.4,18.5,101.2z M26.6,115.3c-1.4,0.8-3.1,0.3-3.9-1.1c-0.8-1.4-0.3-3.1,1.1-3.9c1.4-0.8,3.1-0.3,3.9,1.1
			C28.5,112.7,28,114.5,26.6,115.3z"/>
	</g>
	<g>
		<path fill="#1B85C7" d="M73.9,42.6l-2.1-1.8l-9-0.6v-6.9h41.7v6.9l-7.4,0.6l-2,1.8v39c0,11.9-2.5,20.5-7.4,25.8c-5,5.3-13,8-24,8
			c-3,0-6-0.2-9.1-0.7c-3.1-0.5-6.3-1.2-9.5-2.2v-23h11l2.8,16.3l1.6,1.5c5-0.2,8.4-2.1,10.4-5.7c2-3.6,3-10.3,3-20.1V42.6z"/>
	</g>
</g>
</svg>
