<?xml version="1.0" encoding="utf-8"?>
<!-- Generator: Adobe Illustrator 18.1.0, SVG Export Plug-In . SVG Version: 6.00 Build 0)  -->
<svg version="1.1" id="Layer_1" xmlns="http://www.w3.org/2000/svg" xmlns:xlink="http://www.w3.org/1999/xlink" x="0px" y="0px"
	 viewBox="0 0 150 150" enable-background="new 0 0 150 150" xml:space="preserve">
<g>
	<path fill="#0073A2" d="M98.5,80.5v48.7c0,5.8-12.3,10.5-27.5,10.5c-15.2,0-27.5-4.7-27.5-10.5V79.3"/>
	<path fill="#3D89B1" d="M35.4,61.2c-0.5,4.7-5,9.2-10.1,9.9c-5.1,0.7-8.8-2.5-8.3-7.3c0.5-4.7,5-9.2,10.1-9.9
		C32.2,53.1,35.9,56.4,35.4,61.2z"/>
	<path fill="#047BA7" d="M29,69l-2.6-4.7l-4.2,6.3c0,0,3.9,1,6.8-1"/>
	<path fill="#3D89B1" d="M44,110.8L25.9,65.1c0,0,0.4-1.6,2.4-1.6l21.5,31.7"/>
	<path fill="#2896CD" d="M35.4,61.2c-0.5,4.7-5,9.2-10.1,9.9c-5.1,0.7-8.8-2.5-8.3-7.3c0.5-4.7,5-9.2,10.1-9.9
		C32.2,53.1,35.9,56.4,35.4,61.2z"/>
	<path fill="#047BA7" d="M29,69l-2.6-4.7l-4.2,6.3c0,0,3.9,1,6.8-1"/>
	<path fill="#2896CD" d="M44,110.8L25.9,65.1c0,0,0.4-1.6,2.4-1.6l21.5,31.7"/>
	<polyline fill="#047BA7" points="35.8,88.4 43.5,109.2 43.5,85.8 	"/>
	<path fill="#0073A2" d="M65.7,40.8c0,0,7.3-2.8,10.3,5.1c3,7.9,3.7,16.6,3.7,16.6l8.4,3.3c0,0,0-26.6-12.1-27.3"/>
	<path fill="#3D89B1" d="M42.6,71.7v52.6c0,6.1,13,11.1,29.1,11.1c16,0,29.1-5,29.1-11.1V72.9"/>
	<ellipse fill="#0073A2" cx="71.7" cy="72.3" rx="29.1" ry="11.1"/>
	<path fill="#3D89B1" d="M59.8,82.7c0,0,10.2-17.8,28.4-19.5c0,0-9.5-4-22.8-4C52,59.1,22.7,74.8,59.8,82.7z"/>
	<path fill="#609ABC" d="M55.2,90l9.5,1.7c0,0-3.6-32,3.3-43.7C75,36.4,80,39.7,80,39.7s-10.1-5.8-17.2,1.8
		C55.6,49,52.2,72.3,55.2,90z"/>
	<path fill="#0073A2" d="M65.7,40.8c0,0,7.3-2.8,10.3,5.1c3,7.9,3.7,16.6,3.7,16.6l8.4,3.3c0,0,0-26.6-12.1-27.3"/>
	<path fill="#2896CD" d="M100.7,72.9v51.4c0,6.1-13,11.1-29.1,11.1c-16,0-29.1-5-29.1-11.1V71.7"/>
	<path opacity="0.65" fill="#8FBEE1" d="M87.1,133.7c8.1-2,13.6-5.4,13.6-9.4V73.2l-11.2,6.7c0,0,4.4,8.3,3.7,26.9
		C92.7,122,88.7,130.9,87.1,133.7z"/>
	<ellipse fill="#0073A2" cx="71.7" cy="72.3" rx="29.1" ry="11.1"/>
	<path fill="#0081C3" d="M59.8,82.7c0,0,13.1-17.4,31.2-19.1c0,0-5.9-3.4-25.6-4.5C49.7,58.2,22.7,74.8,59.8,82.7z"/>
	<path fill="#58A4D4" d="M55.2,90l9.5,1.7c0,0-3.6-32,3.3-43.7C75,36.4,80,39.7,80,39.7s-10.1-5.8-17.2,1.8
		C55.6,49,52.2,72.3,55.2,90z"/>
	<path fill="#6CB68C" d="M77,82.1c0,0,24.1-38.6,23.2-61.3c0,0,3.2,25.6-20.4,61"/>
	<path fill="#6CB68C" d="M82,80.3c0,0,10.2-15.9,21.8-18.5c11.6-2.6,17.9,10.1,17.9,10.1s-5.9-9.5-15.7-8.7
		c-9.8,0.8-21.4,17.5-21.4,17.5"/>
	<path fill="#6CB68C" d="M88,78.4c0,0,6.7-9.2,15.6-9c8.8,0.2,10.5,14.8,10.5,14.8s-3.4-12.7-9.9-13.4c-6.6-0.8-14.5,8.5-14.5,8.5"
		/>
	<path fill="#6CB68C" d="M74.1,81c0,0,2.6-4.4-5.3-10.8C60.8,63.8,47.5,68,47.5,68s13.6-5.3,21.8,0c8.2,5.3,6.1,13.1,6.1,13.1"/>
	<path fill="#6CB68C" d="M72.7,80.3c0,0-3.4-4.3-9.9-2.4c-6.6,1.8-4,14.3,1.8,19.1c5.8,4.7,5.8,4.7,5.8,4.7s-6.3-0.6-10.5-8.2
		C55.6,85.8,57.1,79,62.6,76c5.5-3.1,12.2,1.4,13,5.6"/>
	<path fill="#6CB68C" d="M76.5,80.1c0,0,2.1-5.6,0.6-17.1c-1.5-11.4-18.6-20.4-18.6-20.4s13.1,4.6,18.6,14.2
		c5.5,9.6,3.8,20,0.5,24.9"/>
	<path fill="#6CB68C" d="M71.5,80.1c0,0-3.5-2.3-6.3,2.3c-2.7,4.6,2,11.6,2,11.6s-4.3-2.7-5.2-6.9c-0.9-4.1,5.3-13.3,12.2-5.6"/>
	<path fill="#6CB68C" d="M88.1,78.6c0,0,1.1-17.1,11.9-28.1c10.8-11,20.9-6.7,20.9-6.7s-10.8-5.3-22.6,7
		C86.6,63.2,85.1,76,85.5,80.4"/>
	<path fill="#6CB68C" d="M82,70.8c0,0,6-16,3.4-28.4c-2.6-12.4-4.4-13.7-4.4-13.7s14.6,21.7,1.2,42.9"/>
	<path fill="#6CB68C" d="M75.6,75.2c0,0,2.6-5.8-8.4-15c-11-9.2-20-8.7-20-8.7s32,3.8,29.3,24.9"/>
	<g>
		<path fill="#E39B7A" d="M95.6,15.1c0,0,5.6,1.2,6.2,4.4c0.6,3.2-2,4.7-3.6,2.9C96.5,20.5,95.6,15.1,95.6,15.1z"/>
		<path fill="#E39B7A" d="M100.5,19.6c0,0-2.3-1.7,0-4.7c2.3-3,3.1-4.5,3.1-4.5s3.5,10.7-3.3,12.2"/>
	</g>
	<g>
		<path fill="#E39B7A" d="M74.7,23c0,0,5.6,1.2,6.2,4.4c0.6,3.2-2,4.7-3.6,2.9C75.6,28.4,74.7,23,74.7,23z"/>
		<path fill="#E39B7A" d="M79.7,27.5c0,0-2.3-1.7,0-4.7c2.3-3,3.2-4.5,3.2-4.5s3.5,10.7-3.3,12.2"/>
	</g>
	<g>
		<path fill="#FFBC75" d="M129.9,42.7c0,0-4.1,4-7,2.7c-3-1.2-2.8-4.2-0.4-4.6C124.9,40.5,129.9,42.7,129.9,42.7z"/>
		<path fill="#FFBC75" d="M123.4,44.3c0,0,2.6-1,3.9,2.6c1.2,3.5,2,5.1,2,5.1s-10.8-3-8.3-9.5"/>
	</g>
	<g>
		<path fill="#EF8CC1" d="M52.5,38.7c0,0,5.7-0.2,7,2.7c1.3,2.9-0.8,5-2.8,3.6C54.7,43.7,52.5,38.7,52.5,38.7z"/>
		<path fill="#EF8CC1" d="M58.4,41.9c0,0-2.6-1.1-1.1-4.5c1.5-3.5,2-5.1,2-5.1s5.9,9.5-0.3,12.6"/>
	</g>
	<g>
		<path fill="#EF8CC1" d="M128.4,70.3c0,0-4.5,3.5-7.3,1.9c-2.8-1.6-2.3-4.5,0.1-4.6C123.6,67.5,128.4,70.3,128.4,70.3z"/>
		<path fill="#EF8CC1" d="M121.7,71.2c0,0,2.7-0.7,3.6,3c0.9,3.7,1.4,5.3,1.4,5.3s-10.4-4.2-7.2-10.3"/>
	</g>
	<g>
		<path fill="#E39B7A" d="M121.6,85c0,0-5.7,0.3-7.1-2.6c-1.4-2.9,0.7-5,2.8-3.7C119.4,80,121.6,85,121.6,85z"/>
		<path fill="#E39B7A" d="M115.7,81.9c0,0,2.6,1,1.2,4.5c-1.4,3.5-1.9,5.2-1.9,5.2s-6-9.4,0.1-12.6"/>
	</g>
	<g>
		<path fill="#E39B7A" d="M40.7,51.2c0,0,5.2-2.3,7.5-0.1c2.3,2.2,1.1,4.9-1.3,4.4C44.6,55,40.7,51.2,40.7,51.2z"/>
		<path fill="#E39B7A" d="M47.3,51.9c0,0-2.8,0-2.7-3.8c0.1-3.7-0.1-5.5-0.1-5.5s9,6.6,4.4,11.8"/>
	</g>
	<g>
		<path fill="#FFBC75" d="M44.7,70.9c0,0,2.8-4.9,6-4.5c3.2,0.4,3.8,3.3,1.6,4.3C50.2,71.7,44.7,70.9,44.7,70.9z"/>
		<path fill="#FFBC75" d="M50.5,67.6c0,0-2.3,1.6-4.4-1.4c-2.2-3.1-3.3-4.4-3.3-4.4s11.2-0.1,10.6,6.8"/>
	</g>
	<g>
		<path fill="#E39B7A" d="M75.1,97.3c0,0-4.1,4-7,2.7c-3-1.2-2.8-4.2-0.4-4.6C70.1,95.1,75.1,97.3,75.1,97.3z"/>
		<path fill="#E39B7A" d="M68.6,99c0,0,2.6-1,3.9,2.6c1.3,3.5,2,5.1,2,5.1s-10.8-3-8.3-9.4"/>
	</g>
	<g>
		<path fill="#FFCC68" d="M74.2,90.3c0,0-4.1,4-7,2.7c-3-1.2-2.8-4.2-0.4-4.6C69.2,88,74.2,90.3,74.2,90.3z"/>
		<path fill="#FFCC68" d="M67.7,91.9c0,0,2.6-1,3.9,2.6c1.3,3.5,2,5.1,2,5.1s-10.8-3-8.3-9.4"/>
	</g>
	<path fill="#6CB68C" d="M97.5,42.7c0,0,3.5-7.7,12-5.7C109.5,37,106.5,43.3,97.5,42.7z"/>
	<path fill="#6CB68C" d="M96.4,40.8c0,0-8-2.7-6.9-11.4C89.5,29.5,96.1,31.8,96.4,40.8z"/>
	<path fill="#6CB68C" d="M102.2,26.6c0,0,3.8-5,9.7-2.2C112,24.4,108.7,28.5,102.2,26.6z"/>
	<path fill="#6CB68C" d="M109.5,45.4c0,0,6.2-1.1,8.6,5.1C118.1,50.5,112.9,51.2,109.5,45.4z"/>
	<path fill="#6CB68C" d="M116.1,42.4c0,0-2.9-5.6,2.2-9.7C118.4,32.7,120.7,37.4,116.1,42.4z"/>
	<path fill="#6CB68C" d="M66.2,46.2c0,0-2.9-5.6,2.2-9.7C68.4,36.5,70.7,41.2,66.2,46.2z"/>
	<path fill="#6CB68C" d="M70.7,51.4c0,0-4.8,4.1-10,0.1C60.8,51.4,64.8,48.1,70.7,51.4z"/>
	<path fill="#6CB68C" d="M83.6,35.5c0,0-4.8,4.1-10,0.1C73.7,35.5,77.7,32.2,83.6,35.5z"/>
	<path fill="#6CB68C" d="M85.5,36.9c0,0-2.8-5.6,2.3-9.7C87.8,27.2,90.1,31.9,85.5,36.9z"/>
	<path fill="#6CB68C" d="M104.4,61.8c0,0-2.8-5.6,2.3-9.7C106.7,52.1,109,56.8,104.4,61.8z"/>
	<path fill="#6CB68C" d="M114,66.7c0,0,5.1,3.6,2.5,9.6C116.5,76.4,112.3,73.3,114,66.7z"/>
	<path fill="#6CB68C" d="M113.9,63.7c0,0,0.1-6.3,6.6-7.5C120.5,56.3,120.3,61.5,113.9,63.7z"/>
	<path fill="#6CB68C" d="M88.8,78.2c0,0,5.5-3,9.8,2C98.6,80.2,94,82.6,88.8,78.2z"/>
	<path fill="#6CB68C" d="M61.1,104.6c0,0-3.5-5.3,1.2-9.9C62.4,94.8,65.1,99.2,61.1,104.6z"/>
	<path fill="#6CB68C" d="M50.7,95.1c0,0,1.7-6.1,8.2-5.6C58.9,89.4,57.4,94.4,50.7,95.1z"/>
	<path fill="#6CB68C" d="M53.5,73.1c0,0,5.9-2.1,9.3,3.5C62.8,76.6,57.8,78.2,53.5,73.1z"/>
</g>
</svg>
