<?xml version="1.0" encoding="utf-8"?>
<!-- Generator: Adobe Illustrator 18.1.0, SVG Export Plug-In . SVG Version: 6.00 Build 0)  -->
<svg version="1.1" id="Layer_1" xmlns="http://www.w3.org/2000/svg" xmlns:xlink="http://www.w3.org/1999/xlink" x="0px" y="0px"
	 viewBox="0 0 150 150" enable-background="new 0 0 150 150" xml:space="preserve">
<g>
	<path fill="#50A5DB" d="M74.9,8.3C37.9,8.3,8,38.3,8,75.2c0,30.8,20.8,56.7,49,64.5L43.4,116c-0.8-0.5-1.4-1.4-1.4-2.4l-0.4-6.9
		c-2.2-1.3-3.8-3.7-3.8-6.5l0-52.2c0-1.5,1.6-2.8,3.1-2.8c1.5,0,3.1,1.2,3.1,2.8V55h62v-6.9c0-1.5,1.5-2.8,3-2.8
		c1.4,0,2.6,1,2.8,2.4l27,47c1.9-6.2,2.9-12.7,2.9-19.5C141.8,38.3,111.9,8.3,74.9,8.3z M40.6,44.1c-2.8,0-5-2.2-5-5
		c0-2.8,2.2-5,5-5c2.8,0,5,2.2,5,5C45.6,41.8,43.3,44.1,40.6,44.1z M109.2,44.1c-2.8,0-5-2.2-5-5c0-2.8,2.2-5,5-5c2.8,0,5,2.2,5,5
		C114.2,41.8,112,44.1,109.2,44.1z"/>
	<polygon fill="#296698" points="44,86.2 48,86.2 48,60 44,60 	"/>
	<path fill="#296698" d="M104.5,102c1.1,0,2-0.8,2-1.9l0-6.5c-0.1-1-0.9-1.6-2-1.6H45.3c-1,0-1.3,0.5-1.3,1.6v6.7
		c0,1.1,0.2,1.7,1.3,1.7H104.5z"/>
	<polygon fill="#296698" points="59,60 52,60 52,86.2 59,86.2 	"/>
	<rect x="75" y="60" fill="#296698" width="9" height="26"/>
	<path fill="#296698" d="M112,48.1l-0.4,52.2c0,3-1.6,5.5-4.6,6.7v6.7c0,1.5-1,2.8-2.5,2.8c-1.5,0-2.5-1.2-2.5-2.8V107H48v6.6
		c0,1.5-1.5,2.8-3,2.8c-0.5,0-1.1-0.1-1.5-0.4l13.6,23.7c5.7,1.6,11.7,2.4,17.9,2.4c30.2,0,55.7-20,64-47.5l-27-47
		C112,47.8,112,47.9,112,48.1z"/>
	<rect x="66" y="60" fill="#296698" width="6" height="26"/>
	<rect x="101" y="60" fill="#296698" width="5" height="26.2"/>
	<rect x="90" y="60" fill="#296698" width="7" height="26.2"/>
</g>
</svg>
