<?xml version="1.0" encoding="utf-8"?>
<!-- Generator: Adobe Illustrator 18.1.0, SVG Export Plug-In . SVG Version: 6.00 Build 0)  -->
<svg version="1.0" id="Layer_1" xmlns="http://www.w3.org/2000/svg" xmlns:xlink="http://www.w3.org/1999/xlink" x="0px" y="0px"
	 viewBox="0 0 150 150" enable-background="new 0 0 150 150" xml:space="preserve">
<g>
	<path fill="#00B8D7" d="M40.7,101.2c12.4,2.3,24,9.2,24,9.2C61,100,57,91.7,57,91.7c12.1,15.2,17.4,34,17.4,34
		c0.3,1.1,0.6,2.3,0.8,3.4h2.6c-1.5-15.9-3.7-33.6-6.8-39.2c0,0,3.6,6.5,10.2,21.2c0,0,4.7-11.4,10.2-21.9c0,0-4.7,19.5-8.1,39.9
		h2.4c0.2-1.1,0.5-2.2,0.8-3.4c0,0,5.2-18.9,17.4-34c0,0-4,8.3-7.7,18.7c0,0,11.6-6.9,24-9.2c0,0-16.3,5.2-26.7,23.8
		c0,0-0.7,1.4-1.7,4.1h3.3h0c0.6,0,1.3,0,1.9,0l0-0.1h7.5l0,0.1c1.8,0,3.7,0,5.5,0c0,0,0.1,0,0.1,0h8.3c3,0,5.5-2.5,5.5-5.5v-17.4
		c0-0.1,0-0.2,0-0.3c0-6.9,0-13.7,0-20.6c-0.1,0-0.1,0-0.2,0v-4.3h0.2c0-15.6,0-31.2,0-46.8c0.1-4.5-2.4-9.8-7.2-10.6
		c-8.5-0.8-17.2-0.6-25.7-0.3c-11.3-0.4-22.7-0.3-34,0.6c8.5,1.2,16.8,3.4,25.2,5.1c4,1,8.3,1.2,12,3.3c-12.4,0.6-24.8-0.8-37.2-0.1
		c13.6,6.3,26.8,13.5,40.3,20.2c-7-2.4-14.2-3.7-21.2-6.1c-7.2-1.9-14.1-4.5-21.4-5.8C66.1,52,77.6,63.2,89.1,74.6l-0.4,0.1
		c-12-9-24.3-17.6-36.5-26.4c-0.6-0.8-1.1-1.6-1.7-2.4c0.5,4.7,3.5,8.5,5.6,12.6c4,6.7,7,13.8,10.9,20.4c-8-8.7-15.4-18-22.9-27.2
		c1.5,8.2,4.9,15.8,6.9,23.8c1.2,4.5,3.3,8.8,3.2,13.5c-0.5-1.6-0.9-3.2-1.6-4.7c-4.6-8.5-9.4-17-13.6-25.7
		c-0.5-0.1-1.5-0.3-2.1-0.4c1.2,13.3,2.7,26.5,2.8,39.9c-2.6-14-5.9-27.7-8.6-41.7c-0.6,20.7-0.1,41.5-0.3,62.3
		c-0.6,5.2,3.9,10.5,9.1,10.5c3.8,0.1,9.7,0.1,14.2,0c0.1,0,0.1,0,0.2,0h13h1.9c-1-2.6-1.7-4.1-1.7-4.1
		C57,106.5,40.7,101.2,40.7,101.2z M108.3,100.5c0,2-1.6,3.6-3.6,3.6c-2,0-3.6-1.6-3.6-3.6c0-2,1.6-3.6,3.6-3.6
		C106.7,96.9,108.3,98.5,108.3,100.5z M81.2,93.1c2.1,0,3.8,1.7,3.8,3.8c0,2.1-1.7,3.8-3.8,3.8c-2.1,0-3.8-1.7-3.8-3.8
		C77.4,94.8,79.1,93.1,81.2,93.1z M56,96.9c2,0,3.6,1.6,3.6,3.6c0,2-1.6,3.6-3.6,3.6c-2,0-3.6-1.6-3.6-3.6
		C52.5,98.5,54.1,96.9,56,96.9z"/>
	<path fill="#637B84" d="M138.1,35.7c0-5.2-0.5-10.7-3.4-15.2c-4.2-7.6-12.6-12.6-21.3-12.7c-23.5,0-47.1,0-70.6,0
		c-2.7,0-5.4,0-8,0.4c-11.7,2.1-20.9,13.1-20.5,24.9c0,28.9-0.1,57.9,0,86.8c-0.1,13.1,11.6,24.8,24.7,24.6
		c11.5,0.1,23,0.1,34.5,0.1c1.1,0,2.2,0,3.3,0c0.7,0,1.5,0,2.2,0c0.6,0,1.3,0,1.9,0c1,0,2,0,2.9,0c1.1,0,2.2,0,3.3,0
		c7.9,0,15.8,0,23.8,0c5.5,0.1,11.2-1.1,15.8-4.1c7.3-4.7,11.4-13.4,11.4-22C138.2,91,138.3,63.3,138.1,35.7z M131,119.9
		c0.1,7.6-5.5,14.8-12.7,17c-3.5,1.3-7.4,1-11.1,1c-6.1,0-12.2,0-18.3,0c-1.5,0-3.1,0-4.6,0c-0.8,0-1.6,0-2.4,0c-1.1,0-2.2,0-3.4,0
		c-0.7,0-1.3,0-2,0c-1.5,0-3.1,0-4.6,0c-10.9,0-21.8,0-32.7,0c-9.5-0.1-18-8.4-18-18c-0.1-28.8-0.1-57.7,0-86.5
		c-0.1-8.1,5.7-15.7,13.5-17.8c3.9-0.8,7.9-0.7,11.8-0.7c20.6,0,41.3,0,61.9,0c3.7,0,7.5-0.1,11,1.2c6.7,2.9,11.9,9.8,11.6,17.3
		C131,62.1,131.1,91,131,119.9z"/>
</g>
</svg>
