<?xml version="1.0" encoding="utf-8"?>
<!-- Generator: Adobe Illustrator 18.1.0, SVG Export Plug-In . SVG Version: 6.00 Build 0)  -->
<svg version="1.0" id="Layer_1" xmlns="http://www.w3.org/2000/svg" xmlns:xlink="http://www.w3.org/1999/xlink" x="0px" y="0px"
	 viewBox="0 0 150 150" enable-background="new 0 0 150 150" xml:space="preserve">
<g>
	<g>
		<g>
			<g>
				<g>
					<path fill="#00B097" d="M91.4,54.3c-0.7,8-7.6,14.5-15.8,14.5c-8.3,0-15.1-6.4-15.8-14.5H45.3c0.8,16,14,28.9,30.3,28.9
						c16.3,0,29.5-12.9,30.3-28.9H91.4z"/>
				</g>
				<g>
					<path fill="#0083C6" d="M91.4,112c-0.7-8.1-7.6-14.5-15.8-14.5c-8.3,0-15.1,6.3-15.8,14.5H45.3c0.8-16.1,14-28.9,30.3-28.9
						c16.3,0,29.5,12.8,30.3,28.9H91.4z"/>
				</g>
			</g>
			<path fill="#0083C6" d="M88.3,42.7c0,7-5.7,12.7-12.7,12.7s-12.7-5.7-12.7-12.7c0-7,5.7-12.7,12.7-12.7S88.3,35.7,88.3,42.7z"/>
		</g>
	</g>
	<g>
		<g>
			<g>
				<path fill="#00B097" d="M75,12.3c5.2,0,10.3,0.7,15.1,1.9L75,5.5l-15.1,8.7C64.8,13,69.8,12.3,75,12.3z"/>
				<path fill="#0083C6" d="M58.2,14.7H40.7L32,29.8C39.2,22.8,48.2,17.5,58.2,14.7z"/>
				<path fill="#00B097" d="M30.8,31l-15.1,8.7v17.5C18.5,47.2,23.8,38.3,30.8,31z"/>
				<path fill="#0083C6" d="M143.6,74l-8.7-15.1c1.2,4.8,1.9,9.9,1.9,15.1c0,5.2-0.7,10.3-1.9,15.1L143.6,74z"/>
				<path fill="#00B097" d="M134.4,57.3V39.8L119.2,31C126.3,38.3,131.6,47.2,134.4,57.3z"/>
				<path fill="#0083C6" d="M118.1,29.8l-8.7-15.1H91.8C101.9,17.5,110.8,22.8,118.1,29.8z"/>
				<path fill="#0083C6" d="M13.3,74c0-5.2,0.7-10.3,1.9-15.1L6.5,74l8.7,15.1C14,84.3,13.3,79.3,13.3,74z"/>
				<path fill="#0083C6" d="M91.8,133.4h17.5l8.7-15.2C110.8,125.3,101.9,130.6,91.8,133.4z"/>
				<path fill="#00B097" d="M119.2,117.1l15.2-8.7V90.8C131.6,100.9,126.3,109.8,119.2,117.1z"/>
				<path fill="#00B097" d="M15.7,90.8v17.5l15.1,8.7C23.8,109.8,18.5,100.9,15.7,90.8z"/>
				<path fill="#00B097" d="M75,135.8c-5.2,0-10.3-0.7-15.1-1.9l15.1,8.7l15.1-8.7C85.3,135.1,80.2,135.8,75,135.8z"/>
				<path fill="#0083C6" d="M32,118.2l8.7,15.2h17.5C48.2,130.6,39.2,125.3,32,118.2z"/>
			</g>
		</g>
	</g>
</g>
</svg>
