<?xml version="1.0" encoding="utf-8"?>
<!-- Generator: Adobe Illustrator 18.1.0, SVG Export Plug-In . SVG Version: 6.00 Build 0)  -->
<svg version="1.0" id="Layer_1" xmlns="http://www.w3.org/2000/svg" xmlns:xlink="http://www.w3.org/1999/xlink" x="0px" y="0px"
	 viewBox="0 0 150 150" enable-background="new 0 0 150 150" xml:space="preserve">
<g>
	<path fill="#09131C" d="M81.2,21.9c0.2-0.2,0.3-0.4,0.3-0.6c-0.2,0.2-0.4,0.5-0.4,0.7C81.1,21.9,81.1,21.9,81.2,21.9z"/>
	<path fill="#09131C" d="M81.4,20.5c0-0.1,0-0.2-0.1-0.2c0,0-0.1,0-0.1,0c-0.3,0.5-0.7,0.9-1,1.4C80.7,21.3,81,20.9,81.4,20.5z"/>
	<path fill="#09131C" d="M81.4,18.6c0.4-0.4,0.8-0.9,1.2-1.3c0-0.2,0-0.4-0.2-0.5c-0.4-0.5-1.1-0.6-1.6-0.2
		c-0.5,0.4-0.6,1.1-0.2,1.6C80.9,18.4,81.2,18.5,81.4,18.6z"/>
	<path fill="#09131C" d="M32.6,112.8c0.2-0.4,0.5-0.7,0.8-1.1c-0.2,0.2-0.4,0.4-0.6,0.6C32.7,112.4,32.6,112.6,32.6,112.8z"/>
	<path fill="#09131C" d="M80.1,20c-0.1,0-0.3,0-0.4,0.1c-0.2,0.2-0.4,0.5-0.4,0.8C79.6,20.6,79.8,20.3,80.1,20z"/>
	<path fill="#09131C" d="M48.3,126.9c0,0,0.1-0.1,0.1-0.1c0-0.1,0-0.3-0.1-0.4c-0.3,0.3-0.5,0.7-0.8,0.9
		C47.7,127.3,48,127.1,48.3,126.9z"/>
	<path fill="#09131C" d="M115.5,58.1c0.1-0.1,0.1-0.1,0.2-0.2c1-0.8,1.6-1.9,2.4-2.8C117.3,55,115.5,56.7,115.5,58.1z"/>
	<path fill="#09131C" d="M90.6,30.1c-0.8,1.1-1.9,1.9-2.5,3.2C89.6,33,90.9,30.8,90.6,30.1z"/>
	<path fill="#09131C" d="M79.2,112.4c2.7,0,4.9-2.2,4.9-4.9c0-2.7-2.2-4.9-4.9-4.9c-2.7,0-4.9,2.2-4.9,4.9
		C74.3,110.2,76.4,112.4,79.2,112.4z"/>
	<path fill="#09131C" d="M76.5,37.3c0.5-0.4,0.6-1.1,0.2-1.6c-0.4-0.5-1.1-0.5-1.6-0.2c-0.5,0.4-0.6,1.1-0.2,1.6
		C75.3,37.6,76,37.7,76.5,37.3z"/>
	<path fill="#09131C" d="M82.3,18.3c0.3-0.3,0.4-0.7,0.3-1.1c-0.4,0.4-0.8,0.9-1.2,1.3C81.7,18.6,82.1,18.5,82.3,18.3z"/>
	<path fill="#09131C" d="M48.3,126.9c-0.3,0.2-0.5,0.4-0.8,0.4c0.3-0.2,0.6-0.6,0.8-0.9c-0.8-6,0-9.9,0-9.9c1-7.1,10-18.8,10-18.8
		c2.3-3.1-0.7-8-0.7-8c-4.8-8.2,0-13.9,0-13.9c3.6-4.8,12.2,1.4,12.2,1.4c2.4,1.5,4.5,4.3,5.6,5.8L75.1,41c-3.1-0.4-1.6-2.9-1.6-2.9
		l0.5-1.8l-0.9-0.2c-0.1,0.1-0.2,0.2-0.3,0.3c-0.5,0.4-1.3,0.4-1.8-0.2c-0.4-0.5-0.4-1.3,0.2-1.8c0.5-0.4,1.3-0.4,1.8,0.2
		c0.2,0.2,0.3,0.5,0.3,0.8l0.9,0.2l0.8-3.1l-0.7-0.1c-0.1,0.1-0.2,0.2-0.3,0.3c-0.5,0.4-1.3,0.4-1.8-0.2c-0.4-0.5-0.4-1.3,0.2-1.8
		c0.5-0.4,1.3-0.4,1.8,0.2c0.2,0.2,0.3,0.5,0.3,0.8l0.7,0.1l0.8-3.2l-0.6-0.1c-0.1,0.1-0.2,0.2-0.3,0.3c-0.5,0.4-1.3,0.4-1.8-0.2
		c-0.4-0.5-0.4-1.3,0.2-1.8c0.5-0.4,1.3-0.4,1.8,0.2c0.2,0.2,0.3,0.5,0.3,0.8l0.6,0.1l0.6-2.4c0.1-0.3,0.1-0.5,0.2-0.8l-0.5-0.1
		c-0.1,0.1-0.2,0.2-0.3,0.3c-0.4,0.3-1,0.3-1.4,0c-2.6,3.2-5,6.7-9.7,7.9c-0.7-2.6-6.7,7-9.9,5.3c1.3-3.7,4.5-5.4,6.4-8.5
		c-0.8-1.2-1.6,1.1-2.1,0c4.6-5.1,8.7-8.6,12.4-14.5c-3.4,0.7-4.2,4.1-7.1,5.3c0.9-1.7,2.9-2.3,3.5-4.2c-0.7-0.3-1.2,1.1-1.4,0
		c0.3-0.1,1.5-1,0.7-1.1c-1.8,2-2.7,4.8-6.4,5c-1.9,2.7-4.8,4.4-8.5,5.3C48,31.9,38.6,36.9,33.7,43.1c-1.7,2.2-2.5,5.6-3.9,8.1
		c-1.4,2.6-2.8,5.5-4.6,7.8c-0.9,1.1-2.4,1.7-3.2,2.8c-1.5,2.1-3.2,5.8-4.6,8.8c-2.8,6.1-5.1,11.5-1.4,16.6c2.4-0.5,1.7-4.2,4.6-4.2
		c-1,2.5,2.1,3.7,1.4,7.1c-4.7,6-11.6,11.7-15.9,17c5.8-4,10.7-8.9,15.9-13.4c0,0.7,0,1.4,0,2.1c2.3,1.4,9.4-6.6,9.9-4.6
		c0.3,1.1-3.1,2.1-2.1,3.5c1.1,0.4,1.4-1.9,2.1-0.7c-5.2,6-10.6,11.8-15.6,18c4.3-0.9,5.3-5,8.8-6.7c-1.3,1.9-3.3,3.1-4.6,4.9
		c0.8,0.5,1.3-0.9,1.4,0c0,0.7-1.9,1.3-1.1,1.8c3.1-4.7,8.2-7.4,12.4-11c-2.3,3.8-7.3,6.6-8.1,10.6c0.6,1.1,1.2-2.5,2.1-1.1
		c-0.3,0.9-0.7,1.7-0.9,2.4c-1.7,1.1-3.3,2.2-4.7,3.2c1.4,0.2,3-1.3,4.5-2.3c-0.1,0.4-0.3,0.8-0.3,1.2c1.1,0.3,0.7-0.9,1.4-1.1
		c0.2,1.1-0.2,1.6-0.3,2.5c0.7-0.1,1.3-0.5,1.6,0c-1.8,2.3-5.6,4.5-6,6.6c1.7-2.2,3.8-4.2,6.1-6c0,0.6-0.2,1.2-0.3,1.8
		c-0.2,0.2-0.5,0.5-0.7,0.7c0,0.8,0.3,1.3,0.7,1.7c2.3-1.1,3.6-2.9,5.3-4.5c0.2-0.1,0.3-0.2,0.5-0.3c-0.5,2.1-3.6,4.6-5,6.8
		c2.7-1.1,5.6-3.5,8.2-5.8c0.1,0.4,0.1,0.9,0.1,1.3c-1.2,1-2.5,1.8-3.6,2.6c0.6,0.4,2.1-1.2,2.9-1.6c-2,4.5-6.6,7.2-7.2,13.2
		c0.6-0.7,1.1-1.4,1.6-2.1c4-1.6,6.1-4.7,8.7-7.2c0.4-0.1,0.8-0.1,1.2-0.1c-0.3,0.6-0.5,1.2-0.2,1.4c0.2-0.4,0.4-1,0.6-1.5
		c0.2,0,0.4-0.1,0.7-0.1c0.2-0.1,0.4-0.3,0.6-0.5c-1.4,2.4-2.6,4.8-3,7c1.3-1.2,2.7-3.3,4-4.8c-1,2.7-1.9,5.3-2.8,7.2
		c1,0.9,1.9-0.7,3.1-0.6c0.2,0,0.3,0.1,0.4,0.1c-1,1.6-2,3.1-3.3,4.4c1.3-0.5,2.4-2.4,3.5-4.3c0.2,0.3,0,0.8,0,1.4
		c0.8-0.3,1.2-0.8,2.4-0.8c0,0.7-1.3,0.5-0.8,1.6c0.9-0.2,1.7-0.6,2.5-1.1c-0.5,1-0.8,2-0.5,2.9c0.5-1.1,1-2.2,1.5-3.4
		c-0.7-2.1-1.1-4.1-1.4-5.9C48.3,126.9,48.3,126.9,48.3,126.9z M32.6,112.8c0-0.2,0.1-0.4,0.2-0.5c0.2-0.2,0.4-0.4,0.6-0.6
		C33.1,112.1,32.8,112.4,32.6,112.8z"/>
	<path fill="#09131C" d="M78.6,24.2c-0.5,0.4-0.6,1.1-0.2,1.6c0.4,0.5,1.1,0.6,1.6,0.2c0.5-0.4,0.6-1.1,0.2-1.6S79.1,23.8,78.6,24.2
		z"/>
	<path fill="#09131C" d="M77.8,33.6c0.5-0.4,0.6-1.1,0.1-1.6c-0.4-0.5-1.1-0.6-1.6-0.2c-0.5,0.4-0.6,1.1-0.2,1.6
		C76.6,34,77.3,34,77.8,33.6z"/>
	<path fill="#09131C" d="M79.5,21.8c0.4,0.5,1.1,0.6,1.6,0.2c0,0,0,0,0-0.1c0,0-0.1,0-0.1,0.1c0-0.2,0.2-0.4,0.4-0.7
		c0.1-0.2,0-0.5-0.1-0.7c-0.3,0.4-0.7,0.8-1.1,1.1c0.3-0.5,0.7-0.9,1-1.4c-0.3-0.3-0.7-0.4-1.1-0.2c-0.3,0.3-0.6,0.6-0.8,0.9
		C79.3,21.2,79.3,21.5,79.5,21.8z"/>
	<path fill="#09131C" d="M78.9,29.6c0.5-0.4,0.6-1.1,0.1-1.6c-0.4-0.5-1.1-0.6-1.6-0.2c-0.5,0.4-0.6,1.1-0.2,1.6
		C77.7,29.9,78.4,30,78.9,29.6z"/>
	<path fill="#09131C" d="M49.8,134.4c0.1,0,0.2-0.2,0.3-0.2c-0.1-0.2-0.1-0.3-0.2-0.5C49.6,134,49.4,134.3,49.8,134.4z"/>
	<path fill="#09131C" d="M76.8,24l0.4,0.1c0.2-0.8,0.4-1.5,0.6-2.2c-0.5,0.4-0.9,0.8-1.4,1.3l0,0C76.7,23.5,76.8,23.8,76.8,24z"/>
	<path fill="#09131C" d="M50.3,138.7c0.5,0.6,0.8-0.6,1.3-1.1c0-0.1-0.1-0.2-0.1-0.2C51,137.8,50.7,138.3,50.3,138.7z"/>
	<path fill="#00B9F1" d="M136,75.9c-1.1,0,0.2-0.8-0.3-1.4c-1.8,1-2,3-3.5,4.3c0.7-3.1,3.8-4.4,3.9-7.9c-5.2,4.8-7.8,9.4-12,14.8
		c-1.2-0.3,1-1.5-0.4-2.1c-2.7,2.4-3.8,5.9-7.2,7.8c-2.3-2.9,6.1-10.5,3.4-10.7c0.3-6.8,6-9.8,8.7-14.9c-0.1-0.1-0.2-0.2-0.3-0.3
		c3-3.4,5.8-6.8,8.2-10.3c-2.9,2.3-5.2,5.1-7.7,7.8c0.2-0.3,0.3-0.7,0.6-0.9c-0.4-0.8-1.1,0.8-1.6,1c0.9-3.2,2.5-6,2.1-10.1
		c-3,0.7-5.4,2.8-8,4c1.6-1.6,3.3-3.1,3.3-5.3c-2.9,1.1-4.5,5.3-6.7,6c0,0,0,0,0,0c0.5-1.9,3.6-3,3.2-4.6c-1.2,1-0.7,0-0.7-0.5
		c1.1-1.2,2.2-2.3,3.1-3.6c-1.1,0.3-3.2,2.6-4.3,4c-0.7-0.4,0.9-1.8,1.3-2.4c-0.3-0.7-1,0.7-1.3,1c0.1-1-1.8-0.3-3-0.5
		c1.6-3.9,4.8-6.6,7.5-9.7c-1.7-0.1-4.7,4.6-5.3,4.2c-5,4.3-11.6,10.2-17.3,15.1c4.1-3.9,7.4-9.1,11-14.3c0.3-0.4,1.1-1.3,1.5-1.7
		c5.4-5.8,11.4-11,15.4-17.6c-2.2,0.7-3.9,4.4-6,6.2c0.3-1.5,2.8-4.2,4.3-5.8c-3.6-0.1-4.5,4.2-6.8,5.9c1.1-4.2,4-7.1,6.7-10.2
		c-1.7,0.1-2.7,3.2-4.2,4.4c0-0.9-0.2-1.9,0.2-2.6c-1.3-0.7-1.2,2.2-2.4,2.6c-0.2-0.6,0.3-0.8,0.1-1.5c-1.8,0.3-2,1.6-3.1,2.4
		c1-0.9-1.1-0.5-0.2-1c-0.5-0.1-1,0.5-1.5,1.2c-0.4-0.1-0.9-0.1-1.5-0.2c0.6-1.1,2.8-2.6,2.5-3.5c-0.4,1-0.3-1.1-1.1,0
		c0.5-1.2,1.8-1.7,1.8-3.5c-0.7-0.1-0.8,0.4-1.4,0.3c0.1-1.3,3-1.7,2.1-2.8c-0.5,0.5-1.6,0.6-2.5,0.7c0.9-1.7,3.8-3.3,3.5-4.9
		c-2.6,3.2-4.9,6.6-8.8,8.5c1.3-2.6,5.4-4.3,4.6-7.8c-1.4,1.8-3.5,4.7-4.9,5.3c1.3-2.5,4.6-4.8,4.9-7.1c-5.7,5.1-9.8,12-14.5,18.4
		c-0.3,0.4-1.1,1.4-1.4,1.8c-4.5,4.5-8.9,8.7-12,13.4c3.7-6.5,8.3-14.1,11.7-19.8c-0.5-0.6,3.6-4.4,3.2-6c-2.5,3.3-4.6,6.9-8.1,9.2
		c-0.5-1.1-0.1-3.1-1.1-2.8c0.2-0.3,1.5-1.3,0.7-1.4c-0.5,0.6-1.6,2.4-2.1,1.8c1.2-1.3,3.1-3.8,3.2-4.9c-1.9,1.9-3.3,4.3-5,6.3
		c-0.3-0.2-1.6,1.1-0.8-0.6c-0.7-0.1-1.2,0.6-1.7,1.3C88,29.8,88,29.6,88,29.3c1.1-1.3,2.3-2.7,2.6-4.2c-0.9,0.2-1.7,0.6-2.3,1.3
		c0.7-2.7,2.3-5.3,2.4-8.3c-0.8,0.1-1.6,0.3-2.3,0.5c-0.8,2.7-3.9,3.3-3.9,3.3l2.1,8.3c2.1,6.6-1.2,6.6-1.2,6.6c-3,1-3,9.4-2.7,14.8
		c0.1,1.9,0.2,24.8,0.3,38.4c2.5,0.3,4.2-1.3,4.2-1.3c18.3-9.3,8.6,7.8,8.6,7.8c-4.1,7.4,0.9,13.1,0.9,13.1
		c3.4,5.3,5.7,9.7,7.3,13.2c1.5-1.3,3-2.6,4.5-3.8c2.2-1.9,5.4-3.2,7.3-5.3c5.3-5.9,8.4-16.2,13.9-22c0.2-3.8,1.4-6.9,3.6-9.3
		c-0.5-3.6,2.1-5,3.7-7.2C136.7,74.2,136.1,75.6,136,75.9z"/>
	<path fill="#09131C" d="M51.1,143.2c0.7-0.8,1.3-1.6,2-2.5c-0.3-0.5-0.5-0.9-0.7-1.4C51.7,140.5,51.2,141.7,51.1,143.2z"/>
</g>
</svg>
