<?xml version="1.0" encoding="utf-8"?>
<!-- Generator: Adobe Illustrator 18.1.0, SVG Export Plug-In . SVG Version: 6.00 Build 0)  -->
<svg version="1.0" id="Layer_1" xmlns="http://www.w3.org/2000/svg" xmlns:xlink="http://www.w3.org/1999/xlink" x="0px" y="0px"
	 viewBox="0 0 150 150" enable-background="new 0 0 150 150" xml:space="preserve">
<g>
	<path fill="#3E3634" d="M96.2,107.2l-16-20.4l-20.4,26.3c0.8,2.8,1.2,5.7,1.2,8.6c0,1.7-0.2,3.3-0.4,4.9c6,2,12.3,3,19,3
		c8.2,0,16.1-1.6,23.2-4.6c-4.1-4.5-6.6-10.4-6.6-16.9C96.2,107.9,96.2,107.5,96.2,107.2z"/>
	<path fill="#3E3634" d="M29.5,89.6l22.4-29c-0.3-1.6-0.4-3.3-0.4-5c0-15.8,12.9-28.6,28.6-28.6c15.8,0,28.6,12.8,28.6,28.6
		c0,1.7-0.1,3.3-0.4,4.9l18.1,23.1c3.9,0.8,7.5,2.6,10.6,5c2.1-6.1,3.2-12.7,3.2-19.5c0-33.5-27.2-60.7-60.7-60.7
		C46.1,8.4,19,35.6,19,69.1c0,7.4,1.3,14.6,3.8,21.1c2-0.4,4.1-0.6,6.2-0.6C29.1,89.6,29.3,89.6,29.5,89.6z"/>
	<path fill="#EE3F2E" d="M121.4,94c-0.2,0-0.4,0-0.6,0L96.3,62.8c1-2.2,1.5-4.7,1.5-7.2c0-9.8-7.9-17.7-17.7-17.7
		c-9.8,0-17.7,7.9-17.7,17.7c0,2.6,0.6,5.1,1.6,7.3l-29.7,38.4c-1.7-0.5-3.6-0.7-5.4-0.7c-11.7,0-21.2,9.5-21.2,21.2
		c0,11.7,9.5,21.2,21.2,21.2c11.7,0,21.2-9.5,21.2-21.2c0-3.8-1-7.3-2.7-10.4L77.1,73c1,0.2,2,0.3,3.1,0.3c1.1,0,2.1-0.1,3.2-0.3
		l24.4,31.2c-0.4,1.3-0.6,2.6-0.6,4c0,7.8,6.3,14.2,14.2,14.2c7.8,0,14.2-6.3,14.2-14.2C135.5,100.3,129.2,94,121.4,94z"/>
</g>
</svg>
