<?xml version="1.0" encoding="utf-8"?>
<!-- Generator: Adobe Illustrator 18.1.0, SVG Export Plug-In . SVG Version: 6.00 Build 0)  -->
<svg version="1.1" id="Layer_1" xmlns="http://www.w3.org/2000/svg" xmlns:xlink="http://www.w3.org/1999/xlink" x="0px" y="0px"
	 viewBox="0 0 2000 2000" enable-background="new 0 0 2000 2000" xml:space="preserve">
<g>
	<path fill="#CED4DA" d="M1007.5,1429.5c-11.6,2.4-29.6,3-51.2,2.7c0.8,1.6,1.4,3.2,2.1,4.8c22.1-1.6,43.8-3.6,65.1-5.9
		c0.1-1.5,0.2-3.1,0.4-4.6C1018.6,1427.4,1013.2,1428.3,1007.5,1429.5z"/>
	<path fill="#CED4DA" d="M714.4,1614.5C488,1608.3,387,1547.3,337,1425.6L104.9,1458c0,0,421.6,182.9,690,305.6l734.5-139.9
		l-13.9-90.1l69.4-32.9c-108.6-36.9-180.9-37.3-270.1-62.2C1255.4,1555.1,1102.7,1625.1,714.4,1614.5z"/>
	<path fill="#C1DCF3" d="M1543.1,552.1l9.4,3l-11.3,35.2c38-5.3,74.5-15.9,101.5-28.8c62.6-29.8,107.3-9,107.3-9s-29.8,3-29.8,35.8
		c0,32.8-73.9,518.8-73.9,518.8l-29.2-26.8v35.8c0,0-81.1,92.4-274.9,8.9l-74.8-569.4c0,0,68.4-11.9,134,20.9
		c27.7,13.8,63.8,18.6,101,17.3l13.2-41.2c-1.3,0-2.7,0-4,0c-163.4,0-298-36.7-316.7-84.1l3,18.7l4.2,26.2l4.7,29.2l0,0.1
		c0.1,0,0.3,0,0.4,0l82.6,484.2c25.8,30.6,43.3,64.7,50.9,101.6c21.6,8.7,37.3,24.9,37.3,51.9c31.4-13.9,70.1-1,69.2,34.5
		c15.4,7,31.6,17.3,40.3,31.5l-6.4,123.9c-72,4.3-126,21.7-126,42.5c0,24.1,72.1,43.6,161,43.6c88.9,0,161-19.5,161-43.6
		c0-20.1-50.2-36.9-118.4-42l-8.4-133.1c21.7-25.2,65.2-35.2,65.2-35.2c115.9,0,109.5-155,109.5-155l89-559.9
		C1774.7,522.5,1669.8,548.4,1543.1,552.1z"/>
	<path fill="#D4E3A1" d="M1200.7,520l-9-1.8l1.6-8.3c-35.7-7.9-66.3-28.6-86.7-57l-8.9,5.7l-5-7.7l8.8-5.7
		c-13.6-21.7-21.6-47.2-21.6-74.6c0-11.6,1.6-22.9,4.2-33.7l-11.6-3.2l2.4-8.9l11.5,3.1c12.2-38.4,40.5-69.7,77.1-86.6l-2.2-5.1
		l8.4-3.7l2.3,5.2c16.5-6.4,34.4-10,53.2-10c21.6,0,42.1,4.8,60.5,13.1l1.2-2.4l8.2,4.1l-1.1,2.2c36.2,19.2,63.1,53,72.6,93.4
		l6.1-1.2l1.8,9l-6,1.2c1.3,7.6,2.1,15.4,2.1,23.4c0,39.7-16.5,75.5-43,101.4l9.6,10.2l-6.7,6.3l-9.8-10.4
		c-7.2,6.2-15,11.6-23.3,16.3c11,4.1,23.5,7.9,37.3,11.4c40.5-31.7,66.5-80.4,66.5-135.2c0-95.5-78.8-172.8-175.9-172.8
		c-97.1,0-175.9,77.4-175.9,172.8c0,89.3,68.9,162.8,157.3,171.9l-4.7-29.2L1200.7,520z"/>
	<path fill="#98C21F" d="M1192.4,457.2c0-0.7,0.1-1.3,0.2-2l-0.2-1l0.2,0.1c0.5-5.1,2.3-10.1,5.4-15c2.1,0,5.2,0.1,8.9,0.4
		l11.6-59.2L1106.5,453c20.4,28.4,51.1,49.1,86.7,57l4.5-22.8l-3-18.7C1193.3,464.8,1192.4,461,1192.4,457.2z M1170.1,441.1
		c-2.5,0-4.6-2-4.6-4.6c0-2.5,2.1-4.6,4.6-4.6c2.5,0,4.6,2,4.6,4.6C1174.7,439.1,1172.7,441.1,1170.1,441.1z M1185.4,428.9
		c-2.5,0-4.6-2-4.6-4.6c0-2.5,2.1-4.6,4.6-4.6c2.5,0,4.6,2,4.6,4.6C1190,426.8,1188,428.9,1185.4,428.9z"/>
	<path fill="#98C21F" d="M1163.6,241.6c-36.6,16.9-64.9,48.2-77.1,86.6l130.7,35.6L1163.6,241.6z M1154.9,306.5
		c-2.5,0-4.6-2.1-4.6-4.6c0-2.6,2.1-4.6,4.6-4.6c2.5,0,4.6,2.1,4.6,4.6C1159.4,304.5,1157.4,306.5,1154.9,306.5z M1176.3,332.5
		c-2.5,0-4.6-2.1-4.6-4.6c0-2.6,2.1-4.6,4.6-4.6c2.5,0,4.6,2.1,4.6,4.6C1180.9,330.5,1178.8,332.5,1176.3,332.5z"/>
	<path fill="#98C21F" d="M1084.1,337c-2.7,10.8-4.2,22.1-4.2,33.7c0,27.4,8,52.9,21.6,74.6l112.6-72.9L1084.1,337z M1105.9,404.4
		c-2.5,0-4.6-2.1-4.6-4.6c0-2.5,2.1-4.6,4.6-4.6c2.6,0,4.6,2.1,4.6,4.6C1110.5,402.4,1108.5,404.4,1105.9,404.4z M1133.4,380
		c-2.5,0-4.6-2.1-4.6-4.6c0-2.5,2.1-4.6,4.6-4.6c2.5,0,4.6,2.1,4.6,4.6C1138,377.9,1136,380,1133.4,380z"/>
	<path fill="#98C21F" d="M1366.6,338.4c-9.5-40.4-36.4-74.3-72.6-93.4l-60.5,119.5L1366.6,338.4z M1277.2,321.8
		c2.6,0,4.6,2.1,4.6,4.6c0,2.5-2.1,4.6-4.6,4.6c-2.5,0-4.6-2.1-4.6-4.6C1272.6,323.9,1274.7,321.8,1277.2,321.8z"/>
	<path fill="#98C21F" d="M1285.7,241.1c-18.4-8.3-38.9-13.1-60.5-13.1c-18.8,0-36.7,3.6-53.2,10l53.5,122L1285.7,241.1z M1213,300.4
		c-2.6,0-4.6-2.1-4.6-4.6c0-2.5,2.1-4.6,4.6-4.6c2.5,0,4.6,2.1,4.6,4.6C1217.6,298.4,1215.5,300.4,1213,300.4z M1213,260.6
		c-2.6,0-4.6-2.1-4.6-4.6c0-2.5,2.1-4.6,4.6-4.6c2.5,0,4.6,2.1,4.6,4.6C1217.6,258.6,1215.5,260.6,1213,260.6z"/>
	<path fill="#98C21F" d="M1216.2,440.5c13.2,1.3,28.2,4.3,29.9,10.8c0,16.2,19.1,31.2,51.3,43.3c8.3-4.7,16.1-10.2,23.3-16.3
		l-92.6-97.9L1216.2,440.5z M1240.5,416.6c2.5,0,4.6,2,4.6,4.6c0,2.5-2.1,4.6-4.6,4.6c-2.6,0-4.6-2.1-4.6-4.6
		C1235.9,418.7,1238,416.6,1240.5,416.6z"/>
	<path fill="#98C21F" d="M1327.5,472.1c26.6-25.9,43-61.7,43-101.4c0-8-0.8-15.7-2.1-23.4l-134.1,26.3L1327.5,472.1z M1301.7,395.2
		c2.5,0,4.6,2.1,4.6,4.6c0,2.5-2.1,4.6-4.6,4.6c-2.5,0-4.6-2.1-4.6-4.6C1297.1,397.3,1299.2,395.2,1301.7,395.2z"/>
	<path fill="#DFEAB7" d="M1207,439.7c2.8,0.2,6,0.4,9.2,0.7l11.8-60l92.6,97.9l9.8,10.4l6.7-6.3l-9.6-10.2l-93.2-98.5l134.1-26.3
		l6-1.2l-1.8-9l-6.1,1.2l-133.1,26.1L1294,245l1.1-2.2l-8.2-4.1l-1.2,2.4l-60.2,119L1172,238l-2.3-5.2l-8.4,3.7l2.2,5.1l53.5,122.2
		l-130.7-35.6L1075,325l-2.4,8.9l11.6,3.2l129.9,35.5l-112.6,72.9l-8.8,5.7l5,7.7l8.9-5.7l112.1-72.5L1207,439.7z"/>
	<polygon fill="#DFEAB7" points="1193.3,510 1191.6,518.2 1200.7,520 1202,513.4 1197.7,487.2 	"/>
	<path fill="#DFEAB7" d="M1176.3,323.3c-2.5,0-4.6,2.1-4.6,4.6c0,2.5,2.1,4.6,4.6,4.6c2.5,0,4.6-2.1,4.6-4.6
		C1180.9,325.4,1178.8,323.3,1176.3,323.3z"/>
	<path fill="#DFEAB7" d="M1154.9,297.3c-2.5,0-4.6,2.1-4.6,4.6c0,2.5,2.1,4.6,4.6,4.6c2.5,0,4.6-2.1,4.6-4.6
		C1159.4,299.4,1157.4,297.3,1154.9,297.3z"/>
	<path fill="#DFEAB7" d="M1213,251.5c-2.6,0-4.6,2.1-4.6,4.6c0,2.5,2.1,4.6,4.6,4.6c2.5,0,4.6-2.1,4.6-4.6
		C1217.6,253.5,1215.5,251.5,1213,251.5z"/>
	<path fill="#DFEAB7" d="M1213,291.2c-2.6,0-4.6,2.1-4.6,4.6c0,2.5,2.1,4.6,4.6,4.6c2.5,0,4.6-2.1,4.6-4.6
		C1217.6,293.3,1215.5,291.2,1213,291.2z"/>
	<path fill="#DFEAB7" d="M1133.4,370.8c-2.5,0-4.6,2.1-4.6,4.6c0,2.6,2.1,4.6,4.6,4.6c2.5,0,4.6-2.1,4.6-4.6
		C1138,372.8,1136,370.8,1133.4,370.8z"/>
	<path fill="#DFEAB7" d="M1105.9,395.2c-2.5,0-4.6,2.1-4.6,4.6c0,2.5,2.1,4.6,4.6,4.6c2.6,0,4.6-2.1,4.6-4.6
		C1110.5,397.3,1108.5,395.2,1105.9,395.2z"/>
	<path fill="#DFEAB7" d="M1185.4,419.7c-2.5,0-4.6,2-4.6,4.6c0,2.5,2.1,4.6,4.6,4.6c2.5,0,4.6-2,4.6-4.6
		C1190,421.8,1188,419.7,1185.4,419.7z"/>
	<path fill="#DFEAB7" d="M1170.1,432c-2.5,0-4.6,2-4.6,4.6c0,2.5,2.1,4.6,4.6,4.6c2.5,0,4.6-2,4.6-4.6
		C1174.7,434,1172.7,432,1170.1,432z"/>
	<path fill="#DFEAB7" d="M1240.5,425.8c2.5,0,4.6-2.1,4.6-4.6c0-2.6-2.1-4.6-4.6-4.6c-2.6,0-4.6,2-4.6,4.6
		C1235.9,423.8,1238,425.8,1240.5,425.8z"/>
	<path fill="#DFEAB7" d="M1301.7,404.4c2.5,0,4.6-2.1,4.6-4.6c0-2.5-2.1-4.6-4.6-4.6c-2.5,0-4.6,2.1-4.6,4.6
		C1297.1,402.4,1299.2,404.4,1301.7,404.4z"/>
	<path fill="#DFEAB7" d="M1277.2,331c2.6,0,4.6-2.1,4.6-4.6c0-2.5-2.1-4.6-4.6-4.6c-2.5,0-4.6,2.1-4.6,4.6
		C1272.6,328.9,1274.7,331,1277.2,331z"/>
	<path fill="#C1DCF3" d="M1192.6,455.2c0-0.3,0-0.6,0.1-0.9l-0.2-0.1L1192.6,455.2z"/>
	<path fill="#9DC9EC" d="M1246.1,451.3c-1.7-6.5-16.6-9.5-29.9-10.8c-3.3-0.3-6.4-0.6-9.2-0.7c-3.7-0.2-6.9-0.3-8.9-0.4
		c-3.1,4.9-4.9,9.9-5.4,15c0,0.3-0.1,0.6-0.1,0.9c0,0.7-0.2,1.3-0.2,2c0,3.8,0.8,7.6,2.3,11.3c18.7,47.4,153.3,84.1,316.7,84.1
		c1.3,0,2.7,0,4,0l2.7-8.4l24.9,8c126.7-3.7,231.6-29.6,270.8-64.6c10.7-9.5,16.6-19.7,16.6-30.4c0-41.6-89.2-77-213.4-90
		c21.3-54.9,41.3-106.3,44.5-114.3c17-2.3,96.9-13.4,96.9-13.4c9-1.2,15.4-8.9,15.4-17.7c0-0.8-0.1-1.7-0.2-2.5
		c-1.3-9.8-10.4-16.6-20.2-15.3l-107.3,14.9c-6.4,0.9-11.9,5.2-14.2,11.2L1579.8,364c-22-1.4-44.9-2.2-68.4-2.2
		c-35.9,0-70.5,1.8-102.7,5.1c1.5,5.5,1.8,11.1,1.4,16.5c31.2-3.6,65.5-5.6,101.4-5.6c21.4,0,42.3,0.7,62.2,2L1544,456l-16.5,42.4
		c-0.3,0.8-0.5,1.7-0.7,2.5c-1.9,8.5,2.5,17.4,10.9,20.6c9.2,3.6,19.6-1,23.2-10.2c0,0,1.4-3.5,3.7-9.6c3.7-9.5,9.9-25.5,17.5-45
		c8.4-21.7,18.5-47.6,28.6-73.6c97.3,10.9,166,37.2,166,68c0,40.5-118.8,73.4-265.4,73.4c-67.9,0-129.9-7.1-176.8-18.7
		c-13.8-3.4-26.3-7.2-37.3-11.4C1265.1,482.5,1246.1,467.5,1246.1,451.3z"/>
	<path fill="#98C21F" d="M1577,707.7c-10.2,3.8-42.2,5.5-75.6,6.1l-2.7,8.4l-25-8c-34.3,0.2-63.7-0.5-63.7-0.5l56.1-2l-1.7-0.5
		l37.7-117.3c-37.2,1.3-73.4-3.4-101.1-17.3c-65.6-32.8-134.2-20.9-134.2-20.9l75.1,569.4c193.8,83.5,274.9-8.9,274.9-8.9v-35.8
		l29.2,26.8c0,0,74.2-486,74.2-518.8c0-32.8,29.7-35.8,29.7-35.8s-44.8-20.9-107.4,9c-27,12.9-63.5,23.5-101.5,28.8l-38.6,119.9
		L1577,707.7z M1463.7,746.4l92.4-6L1463.7,746.4z"/>
	<path fill="#B1CF5B" d="M1663.6,473.5c-23.5-9.9-51.8-14.9-81.5-16.7c-7.6,19.5-13.8,35.5-17.5,45
		C1643,502.8,1723.4,498.7,1663.6,473.5z"/>
	<path fill="#B1CF5B" d="M1544,456c-89.7,1.7-178.8,25-178.8,25l86.1,16.5c0,0,33.8,2.1,75.5,3.4c0.2-0.9,0.4-1.7,0.7-2.5L1544,456z
		"/>
	<path fill="#FFFFFE" d="M1518.2,544.1l-2.7,8.4l-13.2,41.2l-37.7,117.3l1.7,0.5l-56.1,2c0,0,29.4,0.6,63.7,0.5l25,8l2.7-8.4
		c33.3-0.6,65.4-2.3,75.6-6.1l-74.5,2.7l38.6-119.9l11.3-35.2l-9.4-3L1518.2,544.1z"/>
	
		<line fill="none" stroke="#FFFFFE" stroke-width="0" stroke-linecap="round" stroke-linejoin="round" x1="1556.1" y1="740.4" x2="1463.7" y2="746.4"/>
	<path fill="#809673" d="M1343.9,1301.5c-8.9-3.9-27.7-1.2-36.3-4.6c-0.2,6.6-0.8,13.5-1.5,20.2l0.7,4.2c0,0-0.7-0.4-1.9-1.2
		c-11.6-3.4-30.5,0.8-41.5-4.4c-0.6,7.4-2.4,16.3-2.1,23.7c-27.1-0.4-43.1-11.1-68.5-17.2c3.7,9.1,2.6,19.3,4.4,27.7
		c31.6,5.5,58.6,17.9,76.5,34.5c23-6.4,45.3-13.1,66.4-20.3c-2.1,10-4.5,19.8-7.4,29.3c20.2-24.3,74.9-63,36.4-99.2
		c-5.2-4.9-13.5-8.5-23.2-11.3C1346.2,1288.9,1345.6,1295,1343.9,1301.5z"/>
	<path fill="#809673" d="M406.6,1401.3c20.6-24.9,58-41.6,100.8-41.6c59.8,0,109.1,32.6,116.7,74.7c22.4,2,45.2,3.7,68.3,4.9
		c13.9-38.3,68.3-66.9,133.5-66.9c3.6,0,7.2,0.2,10.8,0.3c-6.3-3.4-13.1-9-20.5-17.2c-15.9,33.8-56.6,11.1-74.8-14.3
		c-11.3,15.1-34.5,17.8-57.8,11.2c0.2-0.8,0.2-1.7,0.3-2.6c-24.5,13.3-39.5,22.6-39.5,22.6l6.9-43.2
		c-15.4,63.5-186.3,1.3-199.1,29.5c-36.8,10-47.2-14.5-40.9-32.1c-10.4,2.6-21.6,5-32.7,6.5c-35.9,18.6-59.1,33-59.1,33l6-37.5
		c-1.1-0.6-1.9-1.3-2.9-2c-26.4,6.4-46.2,20.6-41.6,52.7c3.6,25.5,26.9,36.6,53.9,41.2c-5.1-13-9.6-26.6-13.7-41
		C348.3,1387.4,376.9,1394.7,406.6,1401.3z M669.8,1413.8c-7,0-12.8-7.1-12.8-15.9c0-8.8,5.7-15.9,12.8-15.9c7,0,12.7,7.1,12.7,15.9
		C682.5,1406.7,676.8,1413.8,669.8,1413.8z M711.2,1369.8c4,0,7.2,4,7.2,8.9c0,4.9-3.2,9-7.2,9c-4,0-7.2-4-7.2-9
		C704,1373.8,707.2,1369.8,711.2,1369.8z"/>
	<path fill="#809673" d="M652.2,1323.2l2.2-13.9c-0.9,0.2-1.9,0.2-2.8,0.4C652.5,1314.7,652.5,1319.1,652.2,1323.2z"/>
	<path fill="#809673" d="M956.3,1432.2c21.7,0.3,39.6-0.3,51.2-2.7c5.7-1.2,11-2.1,16.3-3.1c4.4-37.5,47-68.2,103.5-76.9
		c-6.4-2.6-12.3-6.1-17.6-11.4c-18.5,5.6-35.8,10.4-58.2,3.2c-1.9,5-8.6,8.9-8.6,11.9c0,0,0,0,0,0c0,4.9-1.9,9-5.9,9
		c-1.7,0-2.5-0.8-3.8-2.1c-21.4,6.5-51.4-11.5-63.2-31.8c-0.7,9.5-2.7,20.9-2.1,30.3c-22.4-11.2-19.7,0.8-25.4-29.9
		c-33-9.4-52.2,37.4-80.1,46.8C907,1383.4,942.3,1404.8,956.3,1432.2z M981.9,1378.8c7.1,0,12.7,7.1,12.7,15.9
		c0,8.8-5.7,15.9-12.7,15.9c-7,0-12.7-7.1-12.7-15.9C969.2,1385.9,974.9,1378.8,981.9,1378.8z"/>
	<path fill="#8E5951" d="M507.4,1359.7c-42.8,0-80.2,16.7-100.8,41.6c67,14.9,140.1,26.1,217.5,33.1
		C616.5,1392.2,567.2,1359.7,507.4,1359.7z"/>
	<path fill="#8E5951" d="M862.6,1375.6c-7.8,2.7-16.3,2.4-26-2.9c-3.6-0.2-7.1-0.3-10.8-0.3c-65.2,0-119.6,28.6-133.5,66.9
		c37.4,2.1,75.5,3.2,114.4,3.2c51.8,0,102.5-1.9,151.6-5.5c-0.7-1.6-1.3-3.2-2.1-4.8C942.3,1404.8,907,1383.4,862.6,1375.6z"/>
	<path fill="#8E5951" d="M1127.4,1349.5c-56.5,8.8-99.1,39.5-103.5,76.9c-0.2,1.5-0.3,3-0.4,4.6c90.9-9.8,175.3-25.7,250.2-46.4
		c-18-16.6-45-29-76.5-34.5c0.1,0.7,0.2,1.5,0.4,2.2C1174.2,1354.1,1148.3,1358,1127.4,1349.5z"/>
	<path fill="#6CAB36" d="M1377.8,1180.5c0.1-27-15.6-43.2-37.3-51.9c2.3,11,3.7,22.1,4.1,33.6c-20.2,7.2-40.2,13.7-60.2,20
		l21.6,135.1c0.7-6.7,1.3-13.6,1.5-20.2c8.6,3.4,27.4,0.7,36.3,4.6c1.7-6.5,2.3-12.6,1.9-18.4c-0.9-15.6-9.2-28.6-24.2-38.4
		c32.2,1.7,96.5,48.9,92.5-17.7c-1.8-0.4-3.4-0.8-5-1.3c12.3,0.2,25.1-0.3,36.9-0.8c0.7-3.5,1-6.8,1.1-9.9
		C1447.9,1179.5,1409.2,1166.6,1377.8,1180.5z"/>
	<path fill="#6CAB36" d="M344.9,1206.8l19.1,6.4l8.2,1.1c0.3-0.5,0.6-1,0.9-1.5c-21.6-5.1-41.1-10.2-58.1-15c-1.2-9-2-18.2-2-27.4
		c0-0.3,0-0.7,0-1c-30.7,8.2-67.5,1.9-69.4,42.9c17.1-1.8,39.3,5.2,56.1,2.2c-7.3,8-10.4,15-10.3,21c-11.4,2.7-22.5,8.2-33.2,17.5
		c14.7,8.3,27.6,22.1,44.9,23.9c-63.1,2.5-44.2,70.8,10.7,32.7c1.2,7.7,5,13.1,10.6,17c0.9,0.7,1.8,1.4,2.9,2L344.9,1206.8z"/>
	<path fill="#6CAB36" d="M651.6,1309.7c0.9-0.2,1.9-0.3,2.8-0.4l4.7-29.3c-19.5,31-64.1,54-118.1,59.3c-1.3,2.3-3.3,3.9-5.8,3.9
		c-2.1,0-4-1.2-5.3-3c-4.3,0.2-8.6,0.4-13,0.4c-39.7,0-75.8-9.5-103-25.1c-12.8,6.1-24.7,12-35.4,17.6c11.1-1.5,22.3-3.8,32.7-6.5
		c-6.3,17.6,4,42.1,40.9,32.1c12.8-28.2,183.7,34,199.1-29.5l1-6C652.5,1319.1,652.5,1314.7,651.6,1309.7z"/>
	<path fill="#6CAB36" d="M1090.2,1334.2c-60.9,0-113.4-22.3-137.9-54.5c-22.2,35.6-77.5,60.9-142.4,60.9c-29.5,0-56.9-5.3-80.2-14.3
		c-17.4,8.5-32.9,16.6-45.9,23.6c-0.1,0.9-0.1,1.7-0.3,2.6c23.3,6.7,46.4,3.9,57.8-11.2c18.3,25.4,58.9,48.1,74.8,14.3
		c7.4,8.2,14.2,13.8,20.5,17.2c9.7,5.3,18.2,5.5,26,2.9c27.9-9.5,47.2-56.2,80.1-46.8c5.7,30.7,3.1,18.7,25.5,29.9
		c-0.6-9.5,1.5-20.8,2.2-30.3c11.8,20.4,42.2,38.3,63.5,31.8c-1.6-1.6-2.7-4.1-2.7-6.9c0-5,3.2-9,7.2-9c3.9,0,7.1,4,7.2,8.9
		c2.9-3,5.4-6.9,7.3-11.9c22.4,7.2,38.4,2.4,56.8-3.2c5.2,5.3,11.2,8.8,17.6,11.4c21,8.4,46.8,4.6,70.2,2.8
		c-0.2-0.7-0.2-1.5-0.4-2.2c-1.7-8.4-0.7-18.7-4.4-27.7c25.4,6.1,41.3,16.8,68.5,17.2c-0.4-7.4,1.5-16.3,2.1-23.7
		c11,5.2,29.9,1,41.5,4.4c-7.4-4.5-36.3-21.7-76.1-41.4C1204.4,1311.5,1151.6,1334.2,1090.2,1334.2z"/>
	<path fill="#B3525A" d="M373.2,1212.8c-0.3,0.5-0.6,1-0.9,1.5l18.8,2.6C384.9,1215.5,379,1214.2,373.2,1212.8z"/>
	<path fill="#B3525A" d="M618.5,1252.2C618.5,1252.2,618.5,1252.2,618.5,1252.2C618.5,1252.2,618.5,1252.2,618.5,1252.2
		C618.5,1252.2,618.5,1252.2,618.5,1252.2z"/>
	<path fill="#B3525A" d="M623.1,1252.7c-17.6,4.2-36.4,12.4-55.2,24.2c-28.3,17.7-52.6,11.8-68.6,3.1
		c-30.4,10.8-59.6,23.3-85.3,35.5c27.2,15.5,63.2,25.1,103,25.1c4.4,0,8.7-0.2,13-0.4c-1.1-1.6-1.9-3.6-1.9-6c0-4.9,3.2-8.9,7.2-8.9
		c4,0,7.2,4,7.2,8.9c0,1.9-0.6,3.6-1.4,5.1c54.1-5.4,98.6-28.3,118.1-59.3l3.9-24.3C649.5,1254.8,636.2,1253.8,623.1,1252.7z"/>
	<path fill="#B3525A" d="M1090.2,1238.7c0,0-31.9-6.4-70.1,19.1c-18.1,12-51.7,8.4-82.3,1.2c-70.2,6.6-149.6,38.8-208.2,67.2
		c23.3,9,50.8,14.3,80.2,14.3c64.9,0,120.2-25.3,142.4-60.9c24.6,32.2,77,54.5,137.9,54.5c61.4,0,114.2-22.7,138.5-55.3
		c-22.4-11.1-48.3-23-75.9-33.8C1126.2,1247.6,1090.2,1238.7,1090.2,1238.7z"/>
	<path fill="#FFCD6D" d="M499.2,1280.4c-12.9-7-20.5-15.4-20.5-15.4s-19.1,0-57.3,0c-38.2,0-51-38.3-51-38.3
		c37.3,20.1,143.1,26.3,248.1,26.3c0,0,0,0,0,0c-88.9-12-166-21.8-227.5-35.7l-18.8-2.8l-8.2-1.2l-19.1-6.4l-19.5,121.7l-6,37.5
		c0,0,23.2-14.4,59.1-33c10.8-5.6,22.6-11.3,35.4-17.3C439.7,1303.5,468.9,1291.2,499.2,1280.4z"/>
	<path fill="#FFCD6D" d="M937.9,1259c-7.3-1.7-14.4-3.6-21.1-5.5c-25.6,2.1-50.8,3.6-75.5,4.5l-75.9,25.3c0,0-44.6,19.1-70.1-12.7
		c-4.8-6-10.5-10.6-16.9-14c-5.1-0.3-10.3-0.6-15.4-0.9l-3.9,24.3l-4.7,29.3l-2.2,13.9l-1,6l-6.9,43.2c0,0,15-9.3,39.5-22.6
		c12.9-7,28.5-15.1,45.9-23.6C788.3,1297.8,867.7,1265.6,937.9,1259z"/>
	<path fill="#FFCD6D" d="M1191.4,1208.3c-1.2,2.3-4.2,8.3-12,23.9c-4,8-14.3,11.6-26.5,12.8c27.5,10.9,53.4,22.7,75.9,33.8
		c39.8,19.7,68.7,36.9,76.1,41.4c1.2,0.7,1.9,1.2,1.9,1.2l-0.7-4.2l-21.6-135.1C1253.2,1191.9,1222.1,1200.6,1191.4,1208.3z"/>
	<path fill="#FFAF3A" d="M315,1197.8c17,4.8,36.5,9.9,58.1,15c5.8,1.4,11.7,3.2,17.9,4.5c61.5,13.9,138.6,23.7,227.5,35.7
		c0,0,0,0,0,0c2.1,0,4.3-0.4,6.4-0.4c15.2-3.4,29.4-3.7,41.7-0.4c110-1.2,207-7.1,207-7.1l-31.9,12.7l-0.5,0.1
		c24.7-0.9,49.9-2.4,75.5-4.5c-24.5-7.2-43.1-14.8-43.1-14.8l-25.5-6.4c63.7,6.4,407.7-44.6,407.7-44.6l-63.7,19.1c0,0,0,0-0.8,1.5
		c30.7-7.7,61.8-16.4,93.1-26.2c20-6.2,40-12.8,60.2-20c-0.4-11.4-1.9-22.6-4.1-33.6c-7.6-36.9-25.1-71-50.9-101.6
		c-85-101-259.3-164.2-460.6-164.2c-284.4,0-515.1,126.7-515.9,306.5c0,0.3,0,0.7,0,1C313.1,1179.6,313.9,1188.7,315,1197.8z
		 M1190.5,1035.6c7.9,0,14.3,5.4,14.3,12c0,6.6-6.4,11.9-14.3,11.9c-7.9,0-14.3-5.3-14.3-11.9
		C1176.2,1041,1182.6,1035.6,1190.5,1035.6z M1075.9,927.3c7.9,0,14.3,5.3,14.3,11.9c0,6.6-6.4,12-14.3,12c-7.9,0-14.3-5.4-14.3-12
		C1061.6,932.7,1068,927.3,1075.9,927.3z M1056.8,1016.5c7.9,0,14.3,5.3,14.3,11.9c0,6.6-6.4,12-14.3,12s-14.3-5.4-14.3-12
		C1042.4,1021.8,1048.9,1016.5,1056.8,1016.5z M910.3,959.2c7.9,0,14.3,5.3,14.3,11.9c0,6.6-6.4,12-14.3,12c-7.9,0-14.3-5.4-14.3-12
		C895.9,964.5,902.3,959.2,910.3,959.2z M884.8,908.2c7.9,0,14.3,5.4,14.3,12c0,6.6-6.4,11.9-14.3,11.9c-7.9,0-14.3-5.3-14.3-11.9
		C870.5,913.6,876.9,908.2,884.8,908.2z M776.5,1035.6c7.9,0,14.3,5.4,14.3,12c0,6.6-6.4,11.9-14.3,11.9c-7.9,0-14.3-5.3-14.3-11.9
		C762.2,1041,768.6,1035.6,776.5,1035.6z M735.1,921.3c3.5,0,6.3,2.3,6.3,5.2c0,2.9-2.8,5.2-6.3,5.2c-3.4,0-6.3-2.3-6.3-5.2
		C728.8,923.6,731.6,921.3,735.1,921.3z M663.5,965.9c3.5,0,6.3,2.3,6.3,5.2c0,2.9-2.8,5.2-6.3,5.2c-3.5,0-6.3-2.3-6.3-5.2
		C657.2,968.2,660.1,965.9,663.5,965.9z M668.2,1061.1c7.9,0,14.3,5.4,14.3,12c0,6.6-6.4,12-14.3,12c-7.9,0-14.3-5.4-14.3-12
		C653.9,1066.4,660.3,1061.1,668.2,1061.1z M572.7,959.2c7.9,0,14.3,5.3,14.3,11.9c0,6.6-6.4,12-14.3,12c-7.9,0-14.4-5.4-14.4-12
		C558.3,964.5,564.7,959.2,572.7,959.2z M516.9,1026.1c7.9,0,14.3,5.3,14.3,11.9c0,6.6-6.4,11.9-14.3,11.9
		c-7.9,0-14.3-5.3-14.3-11.9C502.6,1031.4,509,1026.1,516.9,1026.1z M459.7,978.6c3.5,0,6.3,2.3,6.3,5.2c0,2.9-2.8,5.2-6.3,5.2
		c-3.5,0-6.3-2.3-6.3-5.2C453.4,981,456.2,978.6,459.7,978.6z M370.5,1144.2c3.5,0,6.3,2.3,6.3,5.2c0,2.9-2.8,5.2-6.3,5.2
		c-3.5,0-6.3-2.3-6.3-5.2C364.2,1146.6,367,1144.2,370.5,1144.2z"/>
	<path fill="#FFAF3A" d="M663,1255.6c5.1,0.3,10.2,0.6,15.4,0.9c-3.7-1.9-7.6-3.3-11.7-4.5c-13.8,0.1-27.7,0.2-41.7,0.2
		c-0.6,0.1-1.2,0.3-1.8,0.4C636.2,1253.8,649.5,1254.8,663,1255.6z"/>
	<path fill="#FFAF3A" d="M1273.6,1384.7c-74.9,20.7-159.3,36.5-250.2,46.4c-21.4,2.3-43.1,4.3-65.1,5.9
		c-49.1,3.6-99.8,5.5-151.6,5.5c-38.8,0-77-1.1-114.4-3.2c-23.1-1.3-45.9-2.9-68.3-4.9c-77.4-7-150.5-18.2-217.5-33.1
		c-29.7-6.6-58.2-13.9-85.4-21.8c4.1,14.3,8.6,28,13.7,41c0.7,1.8,1.4,3.5,2.2,5.2c49.9,121.7,151,182.7,377.4,188.9
		c388.3,10.6,541-59.4,600.3-176c7.3-14.3,13.2-29.2,17.9-44.9c2.9-9.5,5.3-19.3,7.4-29.3
		C1318.9,1371.6,1296.7,1378.3,1273.6,1384.7z"/>
	<path fill="#6CAB36" d="M370.4,1226.7c0,0,12.8,38.3,51,38.3c38.2,0,57.3,0,57.3,0s7.6,8.4,20.5,15.4c16.1,8.7,40.4,14.3,68.6-3.3
		c18.8-11.8,37.7-20.2,55.2-24.3c0.6-0.1,1.2,0.1,1.8-0.1c-2.1,0-4.3,0.3-6.4,0.3c0,0,0,0,0,0C513.5,1253,407.7,1246.8,370.4,1226.7
		z"/>
	<path fill="#FFFFFE" d="M666.7,1252c-12.3-3.4-26.5-3.2-41.7,0.2C639,1252.3,652.9,1252.2,666.7,1252z"/>
	<path fill="#6CAB36" d="M678.4,1256.5c6.4,3.4,12.1,8,16.9,14c25.5,31.8,70.1,12.7,70.1,12.7l75.9-25.3l0.5-0.2l31.9-12.8
		c0,0-97,5.9-207,7C670.8,1253.2,674.7,1254.6,678.4,1256.5z"/>
	<path fill="#6CAB36" d="M1020.1,1257.8c38.2-25.5,70.1-19.1,70.1-19.1s35.9,9,62.6,6.4c12.2-1.2,22.5-4.8,26.5-12.8
		c7.8-15.6,10.8-21.6,12-23.9c0.7-1.5,0.8-1.5,0.8-1.5l63.7-19.1c0,0-344,51-407.7,44.6l25.5,6.4c0,0,18.7,7.6,43.1,14.8
		c6.7,2,13.8,3.8,21.1,5.5C968.4,1266.2,1002.1,1269.8,1020.1,1257.8z"/>
	<path fill="#FFFFFE" d="M516.9,1049.9c7.9,0,14.3-5.3,14.3-11.9c0-6.6-6.4-11.9-14.3-11.9c-7.9,0-14.3,5.3-14.3,11.9
		C502.6,1044.6,509,1049.9,516.9,1049.9z"/>
	<path fill="#FFFFFE" d="M572.7,983.1c7.9,0,14.3-5.4,14.3-12c0-6.6-6.4-11.9-14.3-11.9c-7.9,0-14.4,5.3-14.4,11.9
		C558.3,977.7,564.7,983.1,572.7,983.1z"/>
	<path fill="#FFFFFE" d="M776.5,1059.5c7.9,0,14.3-5.3,14.3-11.9c0-6.6-6.4-12-14.3-12c-7.9,0-14.3,5.4-14.3,12
		C762.2,1054.2,768.6,1059.5,776.5,1059.5z"/>
	<path fill="#FFFFFE" d="M668.2,1085c7.9,0,14.3-5.4,14.3-12c0-6.6-6.4-12-14.3-12c-7.9,0-14.3,5.4-14.3,12
		C653.9,1079.6,660.3,1085,668.2,1085z"/>
	<path fill="#FFFFFE" d="M1056.8,1040.4c7.9,0,14.3-5.4,14.3-12c0-6.6-6.4-11.9-14.3-11.9s-14.3,5.3-14.3,11.9
		C1042.4,1035,1048.9,1040.4,1056.8,1040.4z"/>
	<path fill="#FFFFFE" d="M1190.5,1059.5c7.9,0,14.3-5.3,14.3-11.9c0-6.6-6.4-12-14.3-12c-7.9,0-14.3,5.4-14.3,12
		C1176.2,1054.2,1182.6,1059.5,1190.5,1059.5z"/>
	<path fill="#FFFFFE" d="M1075.9,951.2c7.9,0,14.3-5.4,14.3-12c0-6.6-6.4-11.9-14.3-11.9c-7.9,0-14.3,5.3-14.3,11.9
		C1061.6,945.8,1068,951.2,1075.9,951.2z"/>
	<path fill="#FFFFFE" d="M910.3,983.1c7.9,0,14.3-5.4,14.3-12c0-6.6-6.4-11.9-14.3-11.9c-7.9,0-14.3,5.3-14.3,11.9
		C895.9,977.7,902.3,983.1,910.3,983.1z"/>
	<path fill="#FFFFFE" d="M884.8,932.1c7.9,0,14.3-5.3,14.3-11.9c0-6.6-6.4-12-14.3-12c-7.9,0-14.3,5.4-14.3,12
		C870.5,926.8,876.9,932.1,884.8,932.1z"/>
	<path fill="#FFFFFE" d="M735.1,931.7c3.5,0,6.3-2.3,6.3-5.2c0-2.9-2.8-5.2-6.3-5.2c-3.4,0-6.3,2.3-6.3,5.2
		C728.8,929.4,731.6,931.7,735.1,931.7z"/>
	<path fill="#FFFFFE" d="M663.5,976.3c3.5,0,6.3-2.3,6.3-5.2c0-2.9-2.8-5.2-6.3-5.2c-3.5,0-6.3,2.3-6.3,5.2
		C657.2,974,660.1,976.3,663.5,976.3z"/>
	<path fill="#FFFFFE" d="M459.7,989.1c3.5,0,6.3-2.3,6.3-5.2c0-2.9-2.8-5.2-6.3-5.2c-3.5,0-6.3,2.3-6.3,5.2
		C453.4,986.7,456.2,989.1,459.7,989.1z"/>
	<path fill="#FFFFFE" d="M370.5,1154.7c3.5,0,6.3-2.3,6.3-5.2c0-2.9-2.8-5.2-6.3-5.2c-3.5,0-6.3,2.3-6.3,5.2
		C364.2,1152.3,367,1154.7,370.5,1154.7z"/>
	<path fill="#FFCD6D" d="M981.9,1410.6c7.1,0,12.7-7.1,12.7-15.9c0-8.8-5.7-15.9-12.7-15.9c-7,0-12.7,7.1-12.7,15.9
		C969.2,1403.5,974.9,1410.6,981.9,1410.6z"/>
	<path fill="#FFCD6D" d="M669.8,1382c-7,0-12.8,7.1-12.8,15.9c0,8.8,5.7,15.9,12.8,15.9c7,0,12.7-7.1,12.7-15.9
		C682.5,1389.1,676.8,1382,669.8,1382z"/>
	<path fill="#FFCD6D" d="M704,1378.8c0,4.9,3.2,9,7.2,9c4,0,7.2-4,7.2-9c0-4.9-3.2-8.9-7.2-8.9C707.2,1369.8,704,1373.8,704,1378.8z
		"/>
	<path fill="#FFCD6D" d="M1045.6,1353.3C1045.6,1353.3,1045.6,1353.3,1045.6,1353.3c0-5-3.2-9-7.2-9c-4,0-7.2,4-7.2,9
		c0,2.8,1.1,5.2,2.7,6.9c1.2,1.2,2.7,2.1,4.4,2.1C1042.4,1362.3,1045.6,1358.2,1045.6,1353.3z"/>
	<path fill="#FFCD6D" d="M535.2,1325.2c-4,0-7.2,4-7.2,8.9c0,2.3,0.7,4.4,1.9,6c1.3,1.8,3.2,3,5.3,3c2.4,0,4.5-1.6,5.8-3.9
		c0.8-1.5,1.4-3.1,1.4-5.1C542.4,1329.3,539.2,1325.2,535.2,1325.2z"/>
</g>
</svg>
