<?xml version="1.0" encoding="utf-8"?>
<!-- Generator: Adobe Illustrator 18.1.0, SVG Export Plug-In . SVG Version: 6.00 Build 0)  -->
<svg version="1.1" id="Layer_1" xmlns="http://www.w3.org/2000/svg" xmlns:xlink="http://www.w3.org/1999/xlink" x="0px" y="0px"
	 viewBox="0 0 2000 2000" enable-background="new 0 0 2000 2000" xml:space="preserve">
<g>
	<path fill="none" d="M360.4,953.6c2-0.1,4.1,0,6.1-0.1C364.5,953.5,362.4,953.5,360.4,953.6z"/>
	<path fill="none" d="M383,1048c0.2,0,0.4-0.9,0.5-1c2.3-0.1,4.6-0.5,7-1c-10.3,0.8-20.7,1.2-31.2,0.5c-45.3-2.8-89-19.2-125.1-46.6
		c35-26.7,77-42.5,120.9-45.9c-45,2.9-88.3,19.2-124.6,46.7c43.7,33.1,97.7,47.2,152.3,47.2C382.9,1048,383,1048,383,1048z"/>
	<path fill="none" d="M440.6,951.3c52.5-65-11.8-149.2-22.9-155.3c12.1,68.9-36.5,126-59.5,146.6
		C388.7,939.7,416.4,944.6,440.6,951.3z"/>
	<path fill="none" d="M421.8,540.8c-0.9-16-98.3-121.1-112.3-24.5c-0.8,4.2,2.7,7.7,5.5,5c35.5-38.9,74.2,58.4,82.9,101
		C396.7,594.2,408.7,558.2,421.8,540.8z"/>
	<path fill="none" d="M446.2,767.1c1.1,3.7,5.7,1.4,5.9-1.7c1.5-19.5-1.7-62.2-21.6-93.3c-19.2-30.1-52.5-49.1-73.6-57.6
		c-5.4-2.1-7.1,5.1-3.9,8.3c25.4,25.4,33.2,60.9,33.6,93.8C397.1,717.9,431,720.8,446.2,767.1z"/>
	<path fill="none" d="M450.4,829.2c4.6,17.3,0.2-128.9-89.4-99c-33.3,13.2-42.5,33.3-45.5,53.6c-0.7,4.4,2.4,11.2,7.4,7.6
		C386.5,745.5,440.9,793.3,450.4,829.2z"/>
	<path fill="none" d="M490.5,1473.7c-46.4-3.3-48-107.5-48.6-150.3c-8.9,20.4-20.9,36-37.8,47.4c0,30.2,27.3,144.6,88.2,110.4
		C495.5,1479,494.5,1474,490.5,1473.7z"/>
	<path fill="none" d="M1369.4,1606.1c30.2,0,144.6-27.3,110.4-88.2c-2.3-3.1-7.3-2.1-7.6,1.9c-3.3,46.4-107.5,48-150.3,48.6
		C1342.4,1577.2,1358.1,1589.2,1369.4,1606.1z"/>
	<path fill="none" d="M417.9,1207.2c11-6,76.3-97.4,22.7-160.7c-0.2,0.1-38.3,14.3-82.6,9.2C384.4,1075.7,430.1,1138.4,417.9,1207.2
		z"/>
	<path fill="none" d="M315.3,1482c-3.3-3.5-6.2,1.2-5.5,5c15.2,93.9,107.9-8.8,112.2-24.5c-13.1-17.4-25.1-57.3-23.8-85.3
		C390.6,1415,348.2,1516.4,315.3,1482z"/>
	<path fill="none" d="M450.5,1174.1c-9.5,35.9-63,82.3-126.6,36.4c-5-3.6-9,4.6-8.3,9c3,20.4,12.3,40.4,45.6,53.6
		C450.8,1303.1,455.1,1156.8,450.5,1174.1z"/>
	<path fill="none" d="M430.7,1331.2c19.9-31.1,23-73.8,21.6-93.3c-0.2-3-4.7-5.3-5.9-1.6c-15.2,46.2-49.1,49.1-59.6,50.4
		c-0.5,32.9-8.2,68.4-33.6,93.8c-3.2,3.2-1.5,10.4,3.8,8.3C378.2,1380.3,411.6,1361.2,430.7,1331.2z"/>
	<path fill="none" d="M667.2,420.3c31.1,19.9,73.8,23,93.3,21.6c3-0.2,5.3-4.7,1.6-5.9c-46.2-15.1-49.1-49.1-50.4-59.6
		c-32.9-0.4-68.4-8.2-93.8-33.6c-3.2-3.2-10.4-1.5-8.3,3.8C618.1,367.8,637.2,401.2,667.2,420.3z"/>
	<path fill="none" d="M1231.3,435.8c-3.7,1.1-1.4,5.7,1.7,5.9c19.5,1.5,62.2-1.7,93.3-21.6c30.1-19.2,49.1-52.5,57.6-73.6
		c2.1-5.4-5.1-7.1-8.3-3.9c-25.4,25.4-60.9,33.2-93.8,33.7C1280.4,386.7,1277.6,420.7,1231.3,435.8z"/>
	<path fill="none" d="M1457.6,411.4c16-0.8,121.1-98.3,24.5-112.3c-4.2-0.8-7.7,2.7-5,5.5c38.9,35.5-58.5,74.2-101,82.9
		C1404.2,386.3,1440.2,398.3,1457.6,411.4z"/>
	<path fill="none" d="M1318.5,431.4c42.8,0.6,146.9,2.2,150.2,48.6c0.3,4,5.4,5,7.5,1.9c34.2-60.9-80.2-88.2-110.4-88.2
		C1354.6,410.4,1338.9,422.5,1318.5,431.4z"/>
	<path fill="none" d="M627.6,393.8c-30.2,0-144.6,27.3-110.4,88.2c2.3,3.1,7.3,2.1,7.6-1.9c3.3-46.4,107.5-48,150.2-48.6
		C654.6,422.6,638.9,410.6,627.6,393.8z"/>
	<path fill="none" d="M678.5,1568.4c-42.8-0.6-146.9-2.2-150.2-48.6c-0.3-3.9-5.4-5-7.6-1.8c-34.2,60.9,80.2,88.2,110.4,88.2
		C642.4,1589.4,658.1,1577.4,678.5,1568.4z"/>
	<path fill="none" d="M535.9,411.6c17.4-13.1,57.3-25.1,85.3-23.8c-37.8-7.6-139.2-50-104.9-82.9c3.5-3.3-1.2-6.2-5-5.5
		C417.4,314.6,520.1,407.2,535.9,411.6z"/>
	<path fill="none" d="M441.8,679.9c0.6-42.8,2.2-146.9,48.6-150.2c3.9-0.3,5-5.4,1.8-7.6c-60.9-34.2-88.2,80.2-88.2,110.4
		C420.9,643.8,432.9,659.5,441.8,679.9z"/>
	<path fill="none" d="M1268.2,350.6c-13.2-33.3-33.3-42.6-53.6-45.5c-4.3-0.7-11.2,2.4-7.6,7.5c45.9,63.6-2,117.9-37.8,127.5
		C1151.9,444.6,1298.2,440.2,1268.2,350.6z"/>
	<path fill="none" d="M1202.4,407.3c-68.9,12.1-126-36.6-146.6-59.5c3,30.5-2,58.2-8.7,82.4C1112.1,482.7,1196.3,418.4,1202.4,407.3
		z"/>
	<path fill="none" d="M824.3,440.1c-35.9-9.5-82.3-63-36.4-126.6c3.6-5-4.6-9-9-8.3c-20.4,3-40.4,12.3-53.6,45.6
		C695.3,440.4,841.6,444.7,824.3,440.1z"/>
	<path fill="none" d="M951.9,430.2c-0.1-0.2-14.3-38.3-9.2-82.6c-20,26.4-82.7,72.1-151.5,59.9C797.2,418.6,888.5,483.8,951.9,430.2
		z"/>
	<path fill="none" d="M1604.6,629c0-30.2-27.3-144.6-88.2-110.4c-3.1,2.3-2.1,7.3,1.9,7.6c46.4,3.3,48,107.5,48.6,150.3
		C1575.8,656,1587.8,640.3,1604.6,629z"/>
	<path fill="none" d="M1693.5,517.8c3.3,3.5,6.2-1.2,5.5-5c-15.2-93.9-107.9,8.8-112.2,24.5c13.1,17.4,25.1,57.4,23.8,85.3
		C1618.2,584.9,1660.6,483.4,1693.5,517.8z"/>
	<path fill="none" d="M1562.4,763.6c15.1-46.2,49.1-49.1,59.6-50.4c0.5-32.9,8.2-68.4,33.6-93.8c3.2-3.2,1.5-10.4-3.8-8.3
		c-21.1,8.5-54.5,27.5-73.7,57.6c-19.9,31.1-23,73.8-21.6,93.3C1556.7,765,1561.2,767.3,1562.4,763.6z"/>
	<path fill="none" d="M1558.3,825.7c9.5-35.9,63-82.3,126.6-36.4c5,3.6,9-4.6,8.3-9c-3-20.4-12.3-40.4-45.5-53.6
		C1558,696.8,1553.7,843,1558.3,825.7z"/>
	<path fill="none" d="M1650.6,1057.2c-30.5,3-58.2-2-82.4-8.7c-52.5,65,11.8,149.2,22.9,155.2
		C1579,1134.9,1627.6,1077.8,1650.6,1057.2z"/>
	<path fill="none" d="M1650.8,944.1c-26.4-20-72.1-82.6-59.9-151.5c-11,6-76.3,97.4-22.7,160.7
		C1568.4,953.3,1606.5,939,1650.8,944.1z"/>
	<path fill="none" d="M1558.4,1170.6c-4.6-17.3-0.2,128.9,89.4,99c33.3-13.2,42.5-33.3,45.5-53.6c0.7-4.4-2.4-11.2-7.4-7.6
		C1622.3,1254.3,1567.9,1206.5,1558.4,1170.6z"/>
	<path fill="none" d="M1562.6,1232.7c-1.1-3.7-5.7-1.4-5.9,1.7c-1.5,19.5,1.7,62.2,21.6,93.3c19.2,30.1,52.5,49.1,73.6,57.6
		c5.4,2.1,7.1-5.1,3.9-8.3c-25.4-25.4-33.2-60.9-33.6-93.8C1611.7,1281.9,1577.8,1279,1562.6,1232.7z"/>
	<path fill="none" d="M1587,1459c0.9,16.1,98.3,121.1,112.3,24.5c0.8-4.2-2.7-7.7-5.5-5c-35.5,38.9-74.2-58.4-82.9-101
		C1612.2,1405.6,1600.1,1441.6,1587,1459z"/>
	<path fill="none" d="M1567,1320c-0.6,42.8-2.2,146.9-48.6,150.2c-3.9,0.3-5,5.4-1.8,7.6c60.9,34.2,88.2-80.2,88.2-110.4
		C1588,1356,1575.9,1340.3,1567,1320z"/>
	<path fill="none" d="M539.4,1588.4c-16,0.9-121.1,98.3-24.5,112.3c4.2,0.8,7.7-2.7,5-5.5c-38.9-35.5,58.4-74.2,101-82.9
		C592.8,1613.6,556.8,1601.6,539.4,1588.4z"/>
	<path fill="none" d="M794.6,1592.5c68.9-12.1,126,36.5,146.6,59.5c-3-30.5,2-58.2,8.7-82.4C884.9,1517.1,800.6,1581.4,794.6,1592.5
		z"/>
	<path fill="none" d="M1172.7,1559.8c35.9,9.5,82.3,63,36.4,126.6c-3.6,5,4.6,9,9,8.3c20.4-3,40.4-12.3,53.6-45.6
		C1301.7,1559.5,1155.4,1555.1,1172.7,1559.8z"/>
	<path fill="none" d="M998.4,1502.3C998.4,1502.3,998.4,1502.3,998.4,1502.3c26.6,36.7,42.4,80.2,45.1,125.6
		c2.1,34.6-3.5,68.9-15.9,100.8c13.2-31.9,19.3-66.5,17.1-101.5C1042,1581.9,1025.9,1538.4,998.4,1502.3z"/>
	<path fill="none" d="M728.8,1649.3c13.2,33.3,33.3,42.5,53.6,45.5c4.4,0.7,11.2-2.4,7.6-7.4c-45.9-63.6,2-118,37.8-127.5
		C845.1,1555.2,698.8,1559.6,728.8,1649.3z"/>
	<path fill="none" d="M765.7,1564c3.7-1.1,1.4-5.7-1.6-5.9c-19.5-1.5-62.2,1.7-93.3,21.6c-30.1,19.2-49.1,52.5-57.6,73.6
		c-2.1,5.4,5.1,7.1,8.3,3.9c25.4-25.4,60.9-33.2,93.8-33.6C716.5,1613.2,719.4,1579.2,765.7,1564z"/>
	<path fill="none" d="M1329.8,1579.5c-31.1-19.9-73.8-23-93.3-21.6c-3,0.2-5.3,4.7-1.6,5.9c46.2,15.2,49.1,49.1,50.4,59.6
		c32.9,0.5,68.4,8.2,93.8,33.6c3.2,3.2,10.4,1.5,8.3-3.8C1378.9,1632,1359.8,1598.7,1329.8,1579.5z"/>
	<path fill="none" d="M1461.1,1588.3c-17.4,13.1-57.4,25.1-85.3,23.7c37.8,7.6,139.2,50,104.9,82.9c-3.5,3.3,1.2,6.2,5,5.5
		C1579.5,1685.3,1476.9,1592.6,1461.1,1588.3z"/>
	<path fill="none" d="M1045.1,1569.6c0.1,0.2,14.3,38.3,9.3,82.6c20-26.4,82.6-72.1,151.5-59.9
		C1199.8,1581.3,1108.4,1516.1,1045.1,1569.6z"/>
	<path fill="#184A68" d="M998.6,497.5c27.5-36.1,43.9-79.7,46.6-125.1c3.3-54.8-13.5-108.7-46.6-152.4
		c-33.2,43.7-49.7,97.8-46.4,152.5C954.9,418,971.1,461.4,998.6,497.5z"/>
	<path fill="#184A68" d="M1043.6,1627.9c-2.7-45.4-18.5-88.9-45.1-125.6c-27.5,36.1-43.8,79.7-46.6,125
		c-3.3,54.8,13.5,108.7,46.6,152.4c12-15.8,21.7-33,29.2-51C1040.1,1696.9,1045.7,1662.5,1043.6,1627.9z"/>
	<path fill="#184A68" d="M1778.3,1000c-43.7-33.2-97.8-49.7-152.5-46.3c-45.4,2.7-88.8,18.9-124.9,46.3
		c36.1,27.5,79.7,43.9,125.1,46.6C1680.7,1049.9,1734.6,1033.2,1778.3,1000z"/>
	<path fill="#184A68" d="M359.3,1046.6c10.5,0.6,20.9,0.3,31.2-0.5c2.4-0.5,4.8-1,7.2-1.3c37.2-4.7,72.6-18.4,103.3-40
		c2.4-2.2,4.5-3.8,6.4-5c-0.2-0.1-0.3-0.2-0.4-0.3c-35.9-27-79.2-42.9-124.1-45.7c-5.5-0.3-10.9-0.3-16.3-0.2c-2,0.1-4.1,0-6.1,0.1
		c-1.8,0.1-3.5,0.3-5.3,0.4c-43.9,3.4-85.9,19.3-120.9,45.9C270.4,1027.4,314,1043.8,359.3,1046.6z"/>
	<path fill="#F5BB43" d="M1654.5,1065.1l13.2-11.9c41.2-5.3,80.5-21.5,113.8-46.8l8.8-6.6l-8.8-6.7c-33.4-25.4-72.9-41.4-114.1-46.6
		l-13.1-11.8c-19.9-17.8-58.8-63.1-58.8-118.4c-0.5-11.8,3.2-28.5,3.2-28.5c9.5-5.3,20.6-8.8,32.5-8.8c14.3,0,30.5,4.8,47.9,17.3
		c2,1.5,4.6,2.6,7.5,2.6c14.7-0.3,13.1-17.2,13-18c-3.3-22.6-14.4-47.2-51.8-60.3c-7.1-2.5-9-4-21-4.5V715c0-31.9,8.8-64.8,32-88
		c2.9-2.9,4.5-6.8,4.5-10c0-1.3,0-2.7-0.4-4.1c-1.1-3.9-4.7-8.8-11.3-8.8c-1.7,0-3.3,0.4-4.8,0.9c-8.1,3.3-18,8.1-28.5,14.4
		c9.4-36.7,38.6-98.7,59-98.7c2.1,0,5,0.8,8.4,4.4c1.8,1.8,4.5,3.7,8.2,3.7c7.8,0,12.2-6.8,11.5-15.6c-4.6-31.4-18.6-47.4-39.6-47.4
		c-10.4,0-21.2,4.1-30.9,9.7c-21.7,12.4-42.6,34.6-52.2,48.8c-1.3,2.1-2.7,4.4-3.9,6.8c-10.7-14.8-24.8-25.5-42.5-25.5
		c-8.4,0-17.1,2.5-25.9,7.6c-4.3,2.4-6.1,6.6-6.1,10.6c0,5.4,4,11.9,11.5,12.4c36.6,2.6,40.2,93.1,40.8,142l0.2,13.2
		c-8.3,22.9-10.8,47.1-10.8,63.3c0,3.5,0.1,6.8,0.3,9.6c0.4,5.3,4.7,10.1,10,11.1c-3.1,8.9-5.2,17.4-6.5,24.5
		c-2,10.7-2.9,19.9-2.9,25.2c-1.3,8.6,3.2,9.9,3.8,10.3c-7.6,16.7-13.2,36.3-13.2,56.5c0,20.9,6.1,42.8,22.2,62.9l2.1,2.4
		c-24.3,8.2-47.2,20.4-67.8,36l-8.7,6.7l8.7,6.6c20.6,15.7,43.6,27.9,67.9,36.1l-2,2.5c-16.3,20.1-22.2,41.9-22.2,62.8
		c0,20.2,5.6,39.8,13.1,56.5c-0.6,0.5-4.3,3.4-3.8,10.3c0,5.3,0.8,14.6,2.8,25.3c1.4,7.2,3.4,15.7,6.4,24.5c-5.2,1-9.5,5.7-9.8,11.1
		c-0.2,2.9-0.3,6.1-0.3,9.6c0,16.2,2.5,40.3,10.8,63.3l-0.2,13.1c-0.6,49-4.3,139.5-40.9,142.1c-7.6,0.5-11.5,7-11.5,12.4
		c0,3.9,1.8,8.2,6.2,10.6c8.8,5.1,17.4,7.5,25.9,7.5c17.6,0,31.8-10.7,42.5-25.5c1.9,3.9,4.9,8.2,7.7,11.9
		c14.9,19.7,49.8,53.4,79.3,53.4c21,0,35.1-16.1,39.6-47.5c2-12.3-3.7-15.6-11.5-15.6c-4.5-0.2-10.9,7.5-16.6,8.2
		c-20.4,0-49.6-62-59-98.7c10.4,6.4,20.4,11.2,28.5,14.5c1.5,0.5,3.1,0.9,4.9,0.9c6.5,0,10.2-4.8,11.3-8.7c0.5-1.4,0.6-2.8,0.6-4.1
		c0-3.2-2.1-7.1-4.9-10.1c-23.2-23.2-32.1-56.1-32.1-88v-1.1c12-0.6,13.9-2,21-4.5c37.5-13.1,48.1-37.7,51.4-60.3
		c0.1-0.8,5.6-21.2-12.7-18.1c-3,0-5.5,1.1-7.5,2.6c-17.4,12.5-33.5,17.3-47.7,17.3c-12,0-23.1-3.4-32.5-8.8c0,0-4.6-11.8-3.2-28.5
		C1595.8,1128.2,1634.6,1082.9,1654.5,1065.1z M1647.7,726.7c33.3,13.2,42.5,33.3,45.5,53.6c0.7,4.4-3.3,12.5-8.3,9
		c-63.6-45.9-117.1,0.5-126.6,36.4C1553.7,843,1558,696.8,1647.7,726.7z M1699,512.8c0.7,3.8-2.2,8.5-5.5,5
		c-33-34.4-75.4,67.1-82.9,104.9c1.4-28-10.7-67.9-23.8-85.3C1591.1,521.5,1683.8,418.9,1699,512.8z M1518.3,526.1
		c-4-0.3-5-5.3-1.9-7.6c60.9-34.2,88.2,80.2,88.2,110.4c-16.8,11.4-28.9,27-37.8,47.4C1566.3,633.6,1564.7,529.5,1518.3,526.1z
		 M1578.1,668.6c19.2-30,52.5-49.1,73.7-57.6c5.3-2.1,7.1,5.1,3.8,8.3c-25.4,25.4-33.1,60.9-33.6,93.8c-10.4,1.3-44.4,4.2-59.6,50.4
		c-1.2,3.7-5.7,1.4-5.9-1.6C1555,742.4,1558.2,699.7,1578.1,668.6z M1590.9,792.6c-12.2,68.8,33.5,131.5,59.9,151.5
		c-44.3-5-82.4,9.2-82.6,9.2C1514.6,890,1579.8,798.6,1590.9,792.6z M1500.9,1000c36.1-27.5,79.6-43.6,124.9-46.3
		c54.7-3.3,108.8,13.2,152.5,46.3c-43.7,33.2-97.6,49.9-152.4,46.6C1580.6,1043.8,1537,1027.4,1500.9,1000z M1516.6,1477.7
		c-3.2-2.2-2.1-7.2,1.8-7.6c46.4-3.3,48-107.4,48.6-150.2c8.9,20.4,20.9,36,37.8,47.4C1604.8,1397.6,1577.5,1511.9,1516.6,1477.7z
		 M1693.7,1478.5c2.8-2.7,6.4,0.8,5.5,5c-14,96.6-111.4-8.5-112.3-24.5c13.1-17.4,25.2-53.4,23.8-81.4
		C1619.5,1420.1,1658.2,1517.4,1693.7,1478.5z M1655.8,1377c3.2,3.2,1.5,10.4-3.9,8.3c-21.1-8.5-54.5-27.5-73.6-57.6
		c-19.9-31-23-73.8-21.6-93.3c0.2-3,4.7-5.3,5.9-1.7c15.2,46.3,49.2,49.2,59.6,50.4C1622.6,1316.1,1630.4,1351.5,1655.8,1377z
		 M1685.9,1208.4c5-3.6,8.1,3.2,7.4,7.6c-2.9,20.4-12.2,40.4-45.5,53.6c-89.7,29.9-94.1-116.3-89.4-99
		C1567.9,1206.5,1622.3,1254.3,1685.9,1208.4z M1591.1,1203.8c-11.1-6-75.4-90.3-22.9-155.2c24.2,6.6,51.9,11.6,82.4,8.7
		C1627.6,1077.8,1579,1134.9,1591.1,1203.8z"/>
	<path fill="#F5BB43" d="M1474.1,1584.5c-2.1-1.3-4.4-2.7-6.8-3.9c14.8-10.7,25.5-24.8,25.5-42.5c0-8.4-2.5-17.1-7.6-25.9
		c-2.4-4.2-6.6-6.1-10.6-6.1c-5.4,0-11.9,4-12.4,11.5c-2.6,36.6-93.1,40.2-142,40.9l-13.2,0.2c-22.9-8.3-47.1-10.8-63.3-10.8
		c-3.5,0-6.8,0.1-9.6,0.3c-5.3,0.4-10.1,4.7-11.1,10c-8.9-3.1-17.4-5.1-24.5-6.5c-10.7-2-19.9-2.9-25.2-2.9
		c-8.6-1.3-9.9,3.2-10.3,3.8c-16.7-7.6-36.3-13.2-56.5-13.2c-20.9,0-42.8,6.1-62.9,22.2l-2.4,2.1c-8.2-24.3-20.4-47.2-36-67.8
		l-6.7-8.7l-6.6,8.7c-15.7,20.6-27.8,43.6-36.1,67.9l-2.5-2c-20.1-16.3-41.9-22.2-62.8-22.2c-20.2,0-39.8,5.6-56.5,13.2
		c-0.5-0.6-3.3-4.3-10.3-3.8c-5.3,0-14.6,0.8-25.3,2.8c-7.2,1.4-15.7,3.4-24.5,6.4c-1-5.2-5.7-9.5-11-9.8c-2.9-0.2-6.1-0.3-9.6-0.3
		c-16.2,0-40.3,2.5-63.3,10.8l-13.1-0.2c-49-0.6-139.5-4.3-142.1-40.9c-0.5-7.6-7-11.5-12.4-11.5c-3.9,0-8.2,1.8-10.6,6.2
		c-5.1,8.8-7.5,17.4-7.5,25.9c0,17.6,10.7,31.8,25.5,42.5c-3.9,1.9-8.2,4.9-11.9,7.7c-19.7,14.9-53.4,49.8-53.4,79.3
		c0,21,16,35.1,47.5,39.7c12.3,2,15.6-3.7,15.6-11.5c0.2-4.5-7.5-10.9-8.2-16.6c0-20.4,62-49.6,98.7-59
		c-6.4,10.4-11.2,20.4-14.5,28.5c-0.5,1.5-0.9,3.1-0.9,4.9c0,6.5,4.8,10.2,8.7,11.3c1.4,0.5,2.8,0.6,4.1,0.6c3.2,0,7.1-2.3,10.1-5.1
		c23.2-23.2,56.1-32.3,88-32.3h1.1c0.6,12,2,14.2,4.5,21.3c13.1,37.5,37.7,48.2,60.3,51.5c0.8,0.1,21.2,5.6,18.1-12.7
		c0-3-1.1-5.4-2.6-7.5c-12.5-17.4-17.3-33.5-17.3-47.7c0-12,3.4-23,8.8-32.5c0,0,11.8-4.6,28.5-3.2c55.3,0,100.6,38.8,118.4,58.8
		l11.9,13.2c5.3,41.2,21.5,80.5,46.8,113.8l6.6,8.8l6.7-8.8c25.4-33.4,41.4-72.9,46.6-114.1l11.8-13.1
		c17.8-19.9,63.1-58.8,118.4-58.8c11.8-0.5,28.5,3.2,28.5,3.2c5.3,9.5,8.8,20.6,8.8,32.5c0,14.3-4.8,30.5-17.3,47.9
		c-1.5,2-2.6,4.6-2.6,7.5c0.3,14.7,17.2,13.1,18,13c22.6-3.3,47.2-14.6,60.3-52c2.5-7.1,4-9.2,4.5-21.2h1.1c31.9,0,64.8,9,88,32.2
		c2.9,2.9,6.8,4.6,10,4.6c1.3,0,2.7,0,4.1-0.4c3.9-1.1,8.8-4.7,8.8-11.3c0-1.7-0.4-3.3-0.9-4.8c-3.3-8.1-8.1-18-14.4-28.5
		c36.7,9.4,98.7,38.6,98.7,59c0,2.2-0.8,5-4.4,8.4c-1.8,1.8-3.7,4.6-3.7,8.2c0,7.8,6.8,12.2,15.6,11.5c31.4-4.6,47.4-18.6,47.4-39.6
		c0-10.5-4.1-21.2-9.7-30.9C1510.4,1614.9,1488.3,1594,1474.1,1584.5z M1472.3,1519.7c0.3-4,5.3-5,7.6-1.9
		c34.2,60.9-80.2,88.2-110.4,88.2c-11.3-16.8-27-28.9-47.4-37.8C1364.8,1567.7,1468.9,1566.1,1472.3,1519.7z M520.7,1518
		c2.2-3.2,7.2-2.1,7.6,1.8c3.3,46.4,107.4,48,150.2,48.6c-20.4,8.9-36,20.9-47.4,37.8C600.8,1606.2,486.5,1578.9,520.7,1518z
		 M519.9,1695.2c2.7,2.8-0.8,6.4-5,5.5c-96.6-14,8.5-111.4,24.5-112.3c17.4,13.2,53.4,25.2,81.4,23.8
		C578.3,1620.9,481,1659.7,519.9,1695.2z M715.2,1623.6c-32.9,0.4-68.4,8.2-93.8,33.6c-3.2,3.2-10.4,1.5-8.3-3.9
		c8.5-21.1,27.5-54.5,57.6-73.6c31-19.9,73.8-23,93.3-21.6c3,0.2,5.3,4.7,1.6,5.9C719.4,1579.2,716.5,1613.2,715.2,1623.6z
		 M790,1687.3c3.6,5-3.2,8.1-7.6,7.4c-20.4-2.9-40.4-12.2-53.6-45.5c-30-89.7,116.3-94.1,99-89.4
		C791.9,1569.3,744.1,1623.7,790,1687.3z M941.2,1652c-20.6-23-77.7-71.6-146.6-59.5c6-11.1,90.3-75.4,155.2-22.9
		C943.2,1593.9,938.2,1621.5,941.2,1652z M1027.6,1728.7c-7.5,18-17.2,35.2-29.2,51c-33.2-43.7-49.9-97.6-46.6-152.4
		c2.8-45.3,19.2-88.9,46.6-125c0,0,0,0,0,0c27.5,36.1,43.6,79.6,46.3,124.9C1046.9,1662.2,1040.9,1696.8,1027.6,1728.7z
		 M1054.3,1652.2c5-44.3-9.2-82.4-9.3-82.6c63.4-53.6,154.8,11.6,160.7,22.7C1137,1580.1,1074.3,1625.8,1054.3,1652.2z
		 M1271.7,1649.1c-13.2,33.3-33.3,42.5-53.6,45.6c-4.4,0.7-12.6-3.3-9-8.3c45.9-63.6-0.5-117.1-36.4-126.6
		C1155.4,1555.1,1301.7,1559.5,1271.7,1649.1z M1387.3,1653.2c2.1,5.3-5.1,7.1-8.3,3.8c-25.4-25.4-60.9-33.1-93.8-33.6
		c-1.3-10.4-4.2-44.4-50.4-59.6c-3.7-1.2-1.4-5.7,1.6-5.9c19.5-1.5,62.2,1.7,93.3,21.6C1359.8,1598.7,1378.9,1632,1387.3,1653.2z
		 M1485.6,1700.5c-3.8,0.7-8.5-2.2-5-5.5c34.4-33-67.1-75.4-104.9-82.9c28,1.4,67.9-10.7,85.3-23.7
		C1476.9,1592.6,1579.5,1685.3,1485.6,1700.5z"/>
	<path fill="#F5BB43" d="M498.1,1486.7c4.2-2.4,6.1-6.6,6.1-10.6c0-5.4-4-11.9-11.5-12.4c-36.6-2.6-40.2-93.1-40.9-142l-0.2-13.2
		c8.3-22.9,10.8-47.1,10.8-63.3c0-3.5-0.1-6.8-0.3-9.6c-0.4-5.3-4.7-10.1-10-11c3.1-8.9,5.2-17.4,6.5-24.5c2-10.7,2.9-19.9,2.9-25.2
		c1.3-8.6-3.2-9.9-3.8-10.3c7.6-16.7,13.2-36.3,13.2-56.5c0-20.9-6-42.8-22.2-62.9l-2.1-2.4c22.2-7.5,43.2-18.5,62.3-32.2
		c-0.7-0.5,8.2-6.1,8.7-8c0.5-1.9,0.4-3.5-0.5-4.6c-0.5-1.7-1.4-3.3-2.5-4.1l-0.2-0.3c-20.6-15.7-43.6-27.9-67.9-36.1l2-2.5
		c16.3-20.1,22.2-41.9,22.2-62.8c0-20.2-5.6-39.8-13.1-56.5c0.6-0.5,4.3-3.3,3.8-10.3c0-5.3-0.8-14.6-2.8-25.3
		c-1.4-7.2-3.4-15.7-6.4-24.5c5.2-1,9.5-5.7,9.8-11.1c0.2-2.9,0.3-6.1,0.3-9.6c0-16.2-2.5-40.3-10.8-63.3l0.2-13.2
		c0.6-49,4.3-139.5,40.9-142.1c7.6-0.5,11.5-7,11.5-12.4c0-3.9-1.8-8.2-6.2-10.6c-8.8-5.1-17.4-7.5-25.9-7.5
		c-17.6,0-31.8,10.7-42.5,25.5c-1.9-3.9-4.9-8.2-7.7-11.9c-14.9-19.7-49.8-53.4-79.3-53.4c-21,0-35.1,16-39.7,47.5
		c-2,12.3,3.7,15.6,11.5,15.6c4.5,0.2,10.9-7.5,16.6-8.2c20.4,0,49.6,62,59,98.7c-10.4-6.3-20.4-11.2-28.5-14.5
		c-1.5-0.5-3.1-0.9-4.9-0.9c-6.5,0-10.2,4.8-11.3,8.7c-0.5,1.4-0.6,2.8-0.6,4.1c0,3.2,3.2,7.1,6,10.1c23.2,23.2,33.2,56.1,33.2,88
		v1.1c-12,0.6-15,2-22.1,4.5c-37.5,13.1-48.6,37.7-52,60.3c-0.1,0.8-5.9,21.2,12.5,18.1c3,0,5.3-1.1,7.3-2.6
		c17.4-12.5,33.4-17.3,47.7-17.3c12,0,23,3.4,32.5,8.8c0,0,4.6,11.8,3.2,28.5c0,55.3-38.8,100.6-58.8,118.4l-13.2,11.9
		c-41.2,5.3-80.5,21.5-113.8,46.8l-8.8,6.6l8.8,6.7c33.4,25.5,72.9,41.4,114.1,46.6l13.1,11.8c19.9,17.8,58.8,63.1,58.8,118.4
		c0.5,11.8-3.2,28.5-3.2,28.5c-9.5,5.3-20.6,8.8-32.5,8.8c-14.3,0-30.5-4.8-47.9-17.3c-2-1.5-4.6-2.6-7.5-2.6
		c-14.7,0.3-13.1,17.2-13,18c3.3,22.6,15.5,47.2,52.9,60.3c7.1,2.5,10,4,22,4.5v1.1c0,31.9-9.9,64.8-33.1,88
		c-2.9,2.9-5.1,6.8-5.1,10c0,1.3-0.2,2.7,0.2,4.1c1.1,3.9,4.6,8.8,11.2,8.8c1.7,0,3.3-0.4,4.8-0.9c8.1-3.3,18-8.1,28.4-14.4
		c-9.4,36.7-38.6,98.7-59,98.7c-2.1,0-5-0.8-8.4-4.4c-1.8-1.8-4.6-3.7-8.2-3.7c-7.8,0-12.2,6.8-11.5,15.6
		c4.5,31.4,18.6,47.4,39.6,47.4c10.5,0,21.2-4.1,30.9-9.7c21.7-12.4,42.6-34.6,52.2-48.8c1.3-2.1,2.7-4.4,3.9-6.8
		c10.7,14.8,24.8,25.5,42.5,25.5C480.7,1494.2,489.4,1491.7,498.1,1486.7z M492.2,522.1c3.2,2.2,2.1,7.3-1.8,7.6
		c-46.4,3.3-48,107.4-48.6,150.2c-8.9-20.4-20.9-36-37.8-47.4C404,602.3,431.3,487.9,492.2,522.1z M315.1,521.3
		c-2.8,2.7-6.4-0.8-5.5-5c14-96.6,111.4,8.5,112.3,24.5c-13.2,17.4-25.2,53.4-23.8,81.4C389.3,579.7,350.6,482.4,315.1,521.3z
		 M353,622.9c-3.2-3.2-1.5-10.4,3.9-8.3c21.1,8.5,54.5,27.5,73.6,57.6c19.9,31,23,73.8,21.6,93.3c-0.2,3-4.7,5.3-5.9,1.7
		c-15.2-46.3-49.2-49.2-59.6-50.4C386.2,683.7,378.4,648.3,353,622.9z M322.9,791.4c-5,3.6-8.1-3.2-7.4-7.6
		c2.9-20.4,12.2-40.4,45.5-53.6c89.7-30,94.1,116.3,89.4,99C440.9,793.3,386.5,745.5,322.9,791.4z M417.7,796
		c11.1,6,75.4,90.3,22.9,155.3c-24.2-6.7-51.9-11.6-82.4-8.7C381.2,922.1,429.8,864.9,417.7,796z M230.5,1000.8
		c36.3-27.6,79.6-43.9,124.6-46.8c1.8-0.1,3.5-0.3,5.3-0.4c2-0.1,4.1-0.1,6.1-0.1c5.4-0.1,10.9-0.1,16.3,0.2
		c44.9,2.8,88.2,18.7,124.1,45.7c0.2,0.1,0.3,0.2,0.4,0.3c-1.9,1.3-3.9,2.8-6.4,5c-30.7,21.6-66.1,35.4-103.3,40
		c-2.4,0.3-4.8,0.8-7.2,1.3c-2.3,0.5-4.6,0.8-7,0.9c-0.2,0-0.4,1-0.5,1c-0.1,0-0.1,0-0.2,0C328.2,1048,274.2,1033.9,230.5,1000.8z
		 M358,1055.7c44.3,5,82.4-9.2,82.6-9.2c53.6,63.4-11.6,154.8-22.7,160.7C430.1,1138.4,384.4,1075.7,358,1055.7z M361.1,1273.1
		c-33.3-13.2-42.5-33.3-45.6-53.6c-0.7-4.4,3.3-12.6,8.3-9c63.6,45.9,117.1-0.5,126.6-36.4C455.1,1156.8,450.8,1303.1,361.1,1273.1z
		 M357.1,1388.8c-5.3,2.1-7.1-5.1-3.8-8.3c25.4-25.4,33.1-60.9,33.6-93.8c10.4-1.3,44.4-4.2,59.6-50.4c1.2-3.7,5.7-1.4,5.9,1.6
		c1.5,19.5-1.7,62.2-21.6,93.3C411.6,1361.2,378.2,1380.3,357.1,1388.8z M309.8,1487c-0.7-3.8,2.2-8.5,5.5-5
		c33,34.4,75.4-67.1,82.9-104.9c-1.4,28,10.7,67.9,23.8,85.3C417.7,1478.3,325,1581,309.8,1487z M404.2,1370.8
		c16.8-11.3,28.9-27,37.8-47.4c0.6,42.8,2.2,146.9,48.6,150.3c4,0.3,5,5.3,1.9,7.6C431.5,1515.4,404.2,1401.1,404.2,1370.8z"/>
	<path fill="#F5BB43" d="M522.9,415.4c2.1,1.3,4.4,2.7,6.8,4c-14.9,10.7-25.5,24.7-25.5,42.5c0,8.4,2.5,17.1,7.6,25.8
		c2.4,4.3,6.6,6.1,10.6,6.1c5.4,0,11.9-4,12.4-11.5c2.6-36.6,93.1-40.2,142-40.9l13.2-0.2c22.9,8.3,47.1,10.8,63.3,10.8
		c3.5,0,6.8-0.1,9.6-0.3c5.4-0.4,10.1-4.7,11.1-9.9c8.9,3.1,17.3,5.1,24.5,6.5c10.7,2,19.9,2.9,25.2,2.9c8.6,1.3,9.9-3.2,10.3-3.8
		c16.7,7.6,36.3,13.2,56.5,13.2c20.9,0,42.8-6,62.9-22.2l2.4-2.1c8.2,24.3,20.4,47.2,35.9,67.8l6.7,8.7l6.6-8.7
		c15.7-20.7,27.9-43.6,36.1-67.9l2.5,2c20.1,16.3,41.9,22.2,62.9,22.2c20.2,0,39.8-5.6,56.5-13.2c0.5,0.6,3.3,4.3,10.3,3.8
		c5.4,0,14.6-0.8,25.3-2.8c7.2-1.4,15.7-3.4,24.5-6.4c1,5.2,5.7,9.5,11,9.8c2.9,0.2,6.1,0.3,9.6,0.3c16.2,0,40.3-2.5,63.3-10.8
		l13.2,0.2c49,0.6,139.5,4.3,142,40.9c0.5,7.5,7,11.5,12.4,11.5c3.9,0,8.2-1.8,10.6-6.2c5.1-8.8,7.5-17.4,7.5-25.9
		c0-17.6-10.7-31.8-25.5-42.5c3.9-1.9,8.2-4.9,11.9-7.6c19.7-14.9,53.4-49.8,53.4-79.3c0-21-16-35.1-47.5-39.7
		c-12.3-2-15.6,3.7-15.6,11.5c-0.2,4.5,7.5,11,8.1,16.6c0,20.4-62,49.7-98.7,59c6.4-10.4,11.2-20.4,14.5-28.5
		c0.5-1.5,0.9-3.1,0.9-4.9c0-6.5-4.8-10.2-8.7-11.3c-1.4-0.5-2.8-0.6-4.1-0.6c-3.2,0-7.1,3.4-10,6.2c-23.2,23.2-56.1,33.4-88,33.4
		h-1.1c-0.6-12-2-15.2-4.5-22.3c-13.1-37.5-37.7-48.7-60.3-52.1c-0.8-0.1-21.2-5.9-18.1,12.4c0,3,1.1,5.3,2.6,7.3
		c12.5,17.4,17.3,33.4,17.3,47.7c0,12-3.4,23-8.8,32.5c0,0-11.7,4.6-28.5,3.2c-55.3,0-100.6-38.8-118.4-58.8l-11.9-13.2
		c-5.2-41.2-21.5-80.5-46.8-113.9l-6.6-8.8l-6.7,8.8c-25.4,33.4-41.4,72.9-46.6,114.1l-11.8,13.1c-17.8,19.9-63.1,58.8-118.4,58.8
		c-11.8,0.5-28.5-3.2-28.5-3.2c-5.3-9.5-8.8-20.6-8.8-32.5c0-14.3,4.8-30.5,17.3-47.9c1.5-2,2.6-4.6,2.6-7.5
		c-0.2-14.7-17.2-13.1-18-13c-22.6,3.3-47.2,15.7-60.3,53.1c-2.5,7.1-4,10.3-4.5,22.3h-1.1c-31.9,0-64.8-10.1-88-33.3
		c-2.9-2.9-6.8-5.2-10-5.2c-1.3,0-2.7-0.3-4.1,0.1c-3.9,1.2-8.7,4.5-8.7,11.1c0,1.7,0.4,3.3,0.9,4.8c3.3,8.1,8.1,18,14.4,28.4
		c-36.7-9.3-98.7-38.6-98.7-59c0-2.2,0.8-5,4.4-8.4c1.8-1.8,3.7-4.6,3.7-8.2c0-7.8-6.8-12.2-15.6-11.5
		c-31.4,4.5-47.4,18.6-47.4,39.6c0,10.5,4.1,21.1,9.7,30.8C486.6,384.9,508.7,405.8,522.9,415.4z M524.7,480.1c-0.3,4-5.3,5-7.6,1.9
		c-34.2-60.9,80.2-88.2,110.4-88.2c11.3,16.8,27,28.8,47.4,37.8C632.2,432.1,528,433.7,524.7,480.1z M1476.3,481.8
		c-2.2,3.2-7.3,2.1-7.5-1.9c-3.3-46.4-107.4-48-150.2-48.6c20.4-8.9,36-20.9,47.4-37.8C1396.1,393.6,1510.5,420.9,1476.3,481.8z
		 M1477.1,304.7c-2.7-2.8,0.8-6.3,5-5.5c96.6,14-8.5,111.5-24.5,112.3c-17.4-13.1-53.4-25.2-81.4-23.8
		C1418.7,378.9,1516,340.2,1477.1,304.7z M1281.7,376.3c32.9-0.5,68.4-8.2,93.8-33.7c3.2-3.2,10.4-1.5,8.3,3.9
		c-8.5,21.1-27.5,54.5-57.6,73.6c-31,19.9-73.8,23-93.3,21.6c-3-0.2-5.3-4.7-1.7-5.9C1277.6,420.7,1280.4,386.7,1281.7,376.3z
		 M1207,312.5c-3.6-5,3.2-8.1,7.6-7.5c20.4,2.9,40.5,12.2,53.6,45.5c30,89.7-116.3,94.1-99,89.4
		C1205.1,430.5,1252.9,376.1,1207,312.5z M1055.8,347.8c20.6,23,77.7,71.6,146.6,59.5c-6,11.1-90.3,75.4-155.2,22.9
		C1053.8,406,1058.8,378.3,1055.8,347.8z M998.6,220.1c33.2,43.7,49.9,97.6,46.6,152.4c-2.8,45.3-19.2,89-46.6,125.1
		c-27.5-36.1-43.6-79.6-46.4-124.9C948.9,317.9,965.4,263.8,998.6,220.1z M942.7,347.6c-5.1,44.3,9.2,82.4,9.2,82.6
		c-63.4,53.6-154.7-11.6-160.7-22.7C860,419.7,922.7,374,942.7,347.6z M725.3,350.7c13.2-33.3,33.3-42.6,53.6-45.6
		c4.4-0.7,12.5,3.3,9,8.3c-45.9,63.6,0.5,117.1,36.4,126.6C841.6,444.7,695.3,440.4,725.3,350.7z M609.6,346.7
		c-2.1-5.3,5.1-7.1,8.3-3.8c25.4,25.4,60.9,33.2,93.8,33.6c1.3,10.5,4.2,44.4,50.4,59.6c3.7,1.2,1.4,5.7-1.6,5.9
		c-19.5,1.5-62.2-1.7-93.3-21.6C637.2,401.2,618.1,367.8,609.6,346.7z M511.4,299.4c3.8-0.7,8.5,2.2,5,5.5
		c-34.4,33,67.1,75.4,104.9,82.9c-28-1.3-67.9,10.7-85.3,23.8C520.1,407.2,417.4,314.6,511.4,299.4z"/>
	<path fill="#FEBC32" d="M1069.4,634.6c0.1,0.2,22.8,61.1,14.8,131.8c31.9-42.2,132-115.1,241.9-95.6
		C1316.5,653.2,1170.6,549.1,1069.4,634.6z"/>
	<path fill="#184A68" d="M995,527.1c-43.9,57.7-70,127.3-74.5,199.7c-5.3,87.4,21.5,173.5,74.5,243.3c53-69.8,79.3-156.1,74-243.5
		C1064.6,654.1,1038.8,584.8,995,527.1z"/>
	<path fill="#FEBC32" d="M669.5,671.2c110-19.4,201.2,58.3,234,95c-4.7-48.7,3.2-92.9,13.8-131.5
		C813.7,550.8,679.1,653.5,669.5,671.2z"/>
	<path fill="#FEBC32" d="M1364.4,1072.8c-0.2,0.1-61.1,22.8-131.8,14.8c42.2,31.9,115.1,132,95.6,241.9
		C1345.8,1319.9,1450,1174,1364.4,1072.8z"/>
	<path fill="#184A68" d="M1272.2,923.9c-87.4-5.3-173.5,21.5-243.3,74.5c69.8,53,156.1,79.3,243.5,74c72.4-4.4,141.8-30.1,199.5-74
		C1414.3,954.5,1344.6,928.3,1272.2,923.9z"/>
	<path fill="#FEBC32" d="M1232.8,907c48.7-4.7,92.9,3.2,131.5,13.9c83.8-103.7-18.8-238.3-36.5-247.9
		C1347.2,782.9,1269.5,874.1,1232.8,907z"/>
	<path fill="#FEBC32" d="M926.2,1367.8c-0.1-0.2-22.8-61.1-14.8-131.8c-31.9,42.2-132,115.1-241.9,95.6
		C679.1,1349.3,825,1453.4,926.2,1367.8z"/>
	<path fill="#184A68" d="M1000.6,1475.3c43.9-57.7,70-127.3,74.5-199.7c5.3-87.4-21.5-173.5-74.5-243.3
		c-53,69.8-79.3,156.1-74,243.5C931,1348.3,956.8,1417.7,1000.6,1475.3z"/>
	<path fill="#FEBC32" d="M1326.1,1331.3c-110,19.4-201.2-58.3-234-95c4.7,48.7-3.2,92.9-13.8,131.5
		C1181.9,1451.6,1316.5,1349,1326.1,1331.3z"/>
	<path fill="#FEBC32" d="M631.2,929.6c0.2-0.1,61.1-22.8,131.8-14.8c-42.2-31.9-115.1-132-95.6-241.9
		C649.8,682.5,545.6,828.4,631.2,929.6z"/>
	<path fill="#184A68" d="M530.6,999.2c-6.1,5.5-6,5.6-6.1,5.5c0,0,0.1,0.1,0.1,0.1c2.7,2,5.4,3.8,8.2,5.7
		c55.8,39.9,121.9,63.8,190.6,68c87.4,5.3,173.5-21.5,243.3-74.5c-69.8-53-156.1-79.3-243.5-74c-66.4,4-130.1,26.2-184.6,63.5
		C535.9,995.4,533.2,997.3,530.6,999.2z"/>
	<path fill="#FEBC32" d="M762.8,1095.4c-48.7,4.7-92.9-3.2-131.5-13.8c-83.8,103.7,18.8,238.3,36.6,247.9
		C648.4,1219.5,726.1,1128.3,762.8,1095.4z"/>
</g>
</svg>
