<?xml version="1.0" encoding="iso-8859-1"?>
<!-- Generator: Adobe Illustrator 13.0.0, SVG Export Plug-In . SVG Version: 6.00 Build 14948)  -->
<!DOCTYPE svg PUBLIC "-//W3C//DTD SVG 1.1//EN" "http://www.w3.org/Graphics/SVG/1.1/DTD/svg11.dtd">
<svg version="1.1" id="Layer_1" xmlns="http://www.w3.org/2000/svg" xmlns:xlink="http://www.w3.org/1999/xlink" x="0px" y="0px"
	 width="100px" height="100px" viewBox="0 0 100 100" enable-background="new 0 0 100 100" xml:space="preserve">
<g>
	<path fill="#5A3C57" d="M90.055,59.354c-1.274,2.61-2.347,5.326-4.039,7.698c-4.758,7.128-12.324,12.348-20.749,14.053
		c-3.457,0.809-7.031,0.633-10.555,0.598c-7.395-0.334-14.584-3.437-20.059-8.384c-4.992-4.447-8.538-10.449-10.208-16.909
		c-1.88-7.461-1.208-15.555,1.991-22.559c3.774-8.437,11.13-15.186,19.87-18.209c4.474-1.634,9.266-2.012,13.995-1.924
		c2.742,0.422,5.464,0.94,8.144,1.652c-9.146-4.447-19.989-5.124-29.722-2.276c-10.287,3.014-19.295,10.203-24.401,19.642
		c-4.565,8.349-6.02,18.368-3.955,27.666c1.696,7.962,5.932,15.327,11.886,20.872c6.305,5.933,14.54,9.746,23.122,10.81
		c7.928,0.958,16.154-0.255,23.345-3.761c8.305-3.955,15.236-10.801,19.111-19.159c2.376-4.974,3.428-10.449,3.691-15.915
		C91.139,55.312,90.462,57.306,90.055,59.354z"/>
	<path fill="#5A3C57" d="M57.304,46.989c-0.1-0.659-0.486-2.628-0.486-2.628c1.969-1.573,1.813-5.44,0.281-7.083
		c-2.105-2.487-6.301-2.522-8.604-0.308c-1.942,1.881-1.942,5.186-0.105,7.145c-0.949,8.077-1.679,16.179-2.602,24.264
		c4.755,0.044,9.509,0.07,14.267-0.009C59.097,61.252,58.136,52.314,57.304,46.989z"/>
	<path fill="#48593F" d="M68.972,17.346c-7.08-2.654-15.095-2.724-22.208-0.167c-8.617,2.971-15.731,9.799-19.268,18.174
		c-2.747,6.609-3.296,14.114-1.402,21.03c0.866,3.138,2.043,6.311,4.025,8.903c3.537,6.151,9.496,10.739,16.083,13.243
		c7.58,2.892,16.215,2.725,23.723-0.308l0.032-0.097c4.025-1.502,7.584-4.051,10.678-7.004c5.309-5.352,8.914-12.436,9.781-19.949
		C92.026,36.786,82.462,22.258,68.972,17.346z M71.708,69.108c-4.854,5.317-12.022,8.411-19.22,8.297
		c-6.793,0.053-13.551-2.733-18.332-7.567c-1.322-1.257-2.395-2.751-3.52-4.183c-3.502-5.581-5.018-12.4-3.832-18.913
		c1.261-7.584,6.121-14.457,12.809-18.236c5.304-3.058,11.703-4.095,17.716-2.997c7.107,1.239,13.54,5.66,17.39,11.741
		c4.458,6.969,5.237,16.074,2.179,23.737C75.672,63.977,73.964,66.789,71.708,69.108z"/>
</g>
</svg>
