<?xml version="1.0" encoding="utf-8"?>
<!-- Generator: Adobe Illustrator 18.1.0, SVG Export Plug-In . SVG Version: 6.00 Build 0)  -->
<svg version="1.0" id="Layer_1" xmlns="http://www.w3.org/2000/svg" xmlns:xlink="http://www.w3.org/1999/xlink" x="0px" y="0px"
	 viewBox="0 0 150 150" enable-background="new 0 0 150 150" xml:space="preserve">
<g>
	<path fill="#476362" d="M119,94.6L72.2,78.5l6.5,17.4l9.1,26.9C102,118.5,113.4,108.1,119,94.6z"/>
	<path fill="#283F3E" d="M120.7,89.9c1.4-4.5,2.2-9.3,2.2-14.2c0-9.3-2.6-18-7.2-25.5L76.4,69.4L120.7,89.9z"/>
	<path fill="#476362" d="M123.6,28c-18.8,0-35.4,8.9-46.1,22.6l-4.6,13L96.3,55l19.1-5.5c-2.9-4.6-6.5-8.6-10.7-12
		c8.1-4.4,17.4-6.9,27.3-6.9c4.4,0,8.7,0.5,12.9,1.5C138.3,29.5,131.1,28,123.6,28z"/>
	<path fill="#476362" d="M87,123.1c0.2-0.1,0.4-0.2,0.7-0.2l-21.3-43l-1.1,2.4c-0.1,1.4-0.2,2.8-0.2,4.2c0,32.3,26.2,58.5,58.5,58.5
		c1.4,0,2.9-0.1,4.3-0.2C111.3,143.7,96.6,135.4,87,123.1z"/>
	<path fill="#93C83D" d="M63.9,59l1,1.9l15.3-33.5c-3-0.6-6.1-1-9.2-1c-7.6,0-14.7,2-21.1,5.1l6.5,11.7L63.9,59z"/>
	<path fill="#00A750" d="M48.2,32.5C40,37,33.3,43.7,29,52l30,10.3L48.2,32.5z"/>
	<path fill="#93C83D" d="M49.7,116.5c6.4,3.2,13.4,5.2,21.1,5.2c-5.8-7.4-9.8-16.2-11.7-25.8L49.7,116.5z"/>
	<path fill="#93C83D" d="M54.7,71.4L26.2,58.2c-1.8,5-2.9,10.3-2.9,15.9c0,4.3,0.8,8.4,1.8,12.4l8.1-4.6L54.7,71.4z"/>
	<path fill="#00A750" d="M25.9,89c3.5,10.5,10.3,19.3,19.4,25.1l12.9-36.9L25.9,89z"/>
	<path fill="#00A750" d="M91.3,31.1c-2-1-4.1-1.7-6.2-2.4l-2.8,8C85.2,34.6,88.1,32.7,91.3,31.1z"/>
	
		<line fill="none" stroke="#283F3E" stroke-width="0" stroke-linecap="round" stroke-linejoin="round" x1="86.6" y1="19.7" x2="86.6" y2="19.6"/>
	<polygon fill="#283F3E" points="97.6,57 70,67.2 86.6,19.7 65.4,65.9 55,44.2 63,65.8 5.1,45.9 60.2,71.4 34.7,83.8 62.3,73.7 
		45.7,121.3 66.9,75 77.3,96.6 69.3,75.1 126.8,94.9 127.2,95 126.8,94.8 72.1,69.5 	"/>
</g>
</svg>
