<?xml version="1.0" encoding="utf-8"?>
<!-- Generator: Adobe Illustrator 16.0.0, SVG Export Plug-In . SVG Version: 6.00 Build 0)  -->
<!DOCTYPE svg PUBLIC "-//W3C//DTD SVG 1.1//EN" "http://www.w3.org/Graphics/SVG/1.1/DTD/svg11.dtd">
<svg version="1.1" id="Layer_1" xmlns="http://www.w3.org/2000/svg" xmlns:xlink="http://www.w3.org/1999/xlink" x="0px" y="0px"
	 width="100px" height="100px" viewBox="0 0 100 100" enable-background="new 0 0 100 100" xml:space="preserve">
<g>
	<path fill="#BBBDBF" d="M92.081,58.086c-0.355-0.479-1.031-0.579-1.514-0.225c-0.853,0.629-1.993,0.824-3.21,0.7
		c-0.57-0.067-1.149-0.187-1.733-0.35c-0.278,0.655-0.59,1.283-0.939,1.892c0.781,0.255,1.59,0.45,2.442,0.556
		c0.432,0.049,0.873,0.067,1.322,0.049L85.863,64.3c-1.484,2.069-2.971,4.129-4.438,6.208l-4.4,6.228
		c-1.342,1.887-2.655,3.794-3.977,5.692c-3.809-0.993-7.617-1.793-11.474-2.445c-4.09-0.698-8.215-1.229-12.364-1.475
		c-4.143-0.249-8.325-0.23-12.452,0.36c-2.063,0.292-4.105,0.77-6.06,1.489c-1.948,0.729-3.806,1.771-5.284,3.219
		c1.576-1.342,3.48-2.203,5.423-2.808c1.957-0.603,3.983-0.919,6.015-1.121c2.035-0.191,4.082-0.229,6.126-0.182
		c2.045,0.048,4.091,0.182,6.127,0.384c4.077,0.416,8.128,1.055,12.153,1.85c2.012,0.397,4.014,0.843,6.007,1.316
		c1.988,0.469,3.99,0.973,5.936,1.533c0.397,0.11,0.838-0.023,1.092-0.379l0.005-0.005c1.5-2.055,3.019-4.095,4.493-6.165
		l4.456-6.193c1.494-2.061,2.96-4.134,4.426-6.214l4.407-6.227l0.01-0.02C92.349,58.982,92.357,58.475,92.081,58.086"/>
	<path fill="#6D6E70" d="M90.413,49.84c-0.411-0.562-1.197-0.687-1.758-0.279c-0.857,0.625-1.892,1.013-3.022,1.185
		c-0.45,0.071-0.909,0.104-1.38,0.115c-0.191,0.831-0.439,1.642-0.747,2.427c0.813,0.033,1.647,0.01,2.486-0.101
		c0.264-0.039,0.531-0.092,0.8-0.145l-2.549,5.232c-1.342,2.739-2.673,5.484-3.984,8.243l-3.943,8.263
		c-1.184,2.463-2.332,4.944-3.492,7.416c-3.727-0.957-7.449-1.733-11.224-2.356c-4.096-0.689-8.226-1.213-12.378-1.438
		c-4.153-0.239-8.34-0.21-12.472,0.397c-2.063,0.308-4.108,0.79-6.062,1.528c-1.948,0.737-3.804,1.792-5.272,3.248
		c1.585-1.332,3.493-2.176,5.435-2.769c1.955-0.595,3.981-0.9,6.01-1.092c2.033-0.184,4.079-0.216,6.119-0.153
		c2.041,0.053,4.081,0.19,6.117,0.401c4.067,0.433,8.12,1.073,12.134,1.878c2.012,0.402,4.005,0.853,5.998,1.332
		c1.992,0.47,3.99,0.978,5.925,1.533c0.537,0.163,1.126-0.087,1.38-0.604l0.005-0.014c1.352-2.734,2.73-5.462,4.062-8.206
		l4.006-8.235c1.346-2.739,2.663-5.494,3.975-8.247l3.948-8.264l0.005-0.016C90.721,50.719,90.691,50.228,90.413,49.84"/>
	<path fill="#754C28" d="M17.746,49.623l0.252-0.369l-0.826,0.956C17.356,50.013,17.55,49.819,17.746,49.623"/>
	<path fill="#754C28" d="M16.836,78.096c0.07-0.048,0.167-0.133,0.307-0.269L16.836,78.096z"/>
	<path fill="#754C28" d="M18.851,49.807C18.697,49.854,18.69,49.915,18.851,49.807"/>
	<path fill="#754C28" d="M31.918,52.047l-0.002,0.019C31.943,51.998,31.938,52.008,31.918,52.047"/>
	<path fill="#754C28" d="M19.014,49.788c-0.058,0-0.029-0.058,0.038-0.144c-0.079,0.074-0.151,0.131-0.201,0.163
		C18.889,49.802,18.944,49.788,19.014,49.788"/>
	<polygon fill="#754C28" points="24.832,67.873 24.846,67.845 24.822,67.873 	"/>
	<path fill="#754C28" d="M24.386,68.621c0.144-0.403,0.264-0.556,0.436-0.748l-0.318-0.037L24.386,68.621z"/>
	<path fill="#754C28" d="M9.249,86.268l-0.02,0.016c0.029,0.028,0.104,0.076,0.159,0.119l-0.07-0.029
		c-0.038,0.067-0.071,0.097-0.104,0.105c-0.005,0-0.02,0-0.02,0l0.067,0.049l0.141,0.085c0.046,0.025,0.104,0.063,0.151,0.078
		l0.117-0.019c0.084-0.021,0.17-0.025,0.261-0.012c-0.038-0.032-0.221-0.066-0.347-0.075c-0.007,0-0.015,0.004-0.022,0l-0.031-0.028
		l-0.048-0.059c-0.026-0.028-0.045-0.063-0.05-0.081c-0.005-0.034,0.02-0.034,0.077-0.023c-0.002,0-0.002-0.005-0.004-0.011
		C9.407,86.35,9.284,86.307,9.249,86.268"/>
	<path fill="#754C28" d="M9.48,86.325c0.002,0.006,0.005,0.011,0.007,0.016c0.005,0.014,0.012,0.028,0.017,0.042
		c0.019,0.011,0.038,0.011,0.055,0.02c-0.02-0.004-0.036-0.009-0.051-0.009c0.02,0.047,0.039,0.076,0.077,0.019
		c0.002,0,0.007,0,0.007,0s-0.002,0-0.005-0.005l0,0l-0.002-0.005C9.548,86.378,9.514,86.354,9.48,86.325"/>
	<path fill="#754C28" d="M14.058,81.363c0.017,0,0.036-0.005,0.064-0.02l0.033-0.152c-0.036,0.048-0.064,0.095-0.081,0.152
		C14.067,81.354,14.065,81.354,14.058,81.363"/>
	<path fill="#754C28" d="M32.029,48.508c0.041,0.185,0.091,0.388,0.126,0.146c-0.083-0.021-0.275-0.759-0.483-1.154
		c-0.076,0.163,0.269,0.974,0.376,1.401c-0.048,0.012-0.099-0.026-0.163-0.101l-0.046-0.065l-0.026-0.038h-0.002
		c-0.139-0.735-0.366-1.466-0.718-2.144c-0.139-0.268-0.304-0.521-0.479-0.766c0-0.005,0.002-0.007,0.002-0.009
		c-0.053-0.084-0.12-0.188-0.206-0.3c-0.168-0.225-0.406-0.484-0.681-0.735c-0.549-0.508-1.287-0.934-1.792-1.19
		c-0.117-0.029-0.27-0.067-0.383-0.084l-0.072-0.009c-0.014,0.002-0.016-0.004-0.033,0.002c-0.009-0.005-0.016-0.009-0.029-0.012
		c-0.771-0.262-1.576-0.395-2.378-0.421c-0.537-0.017-1.071,0.014-1.6,0.082l0.005-0.006l0.009-0.007
		c0.007-0.004,0.012-0.009,0.017-0.014c0.009-0.01,0.014-0.022,0.014-0.031l-0.316,0.071l-0.161,0.038l-0.076,0.022
		c-0.005,0.002-0.008,0.004-0.012,0.008c-0.022,0.002-0.041,0.007-0.062,0.009c0.017-0.015,0.019-0.009,0.038-0.024l0.072-0.038
		c0.048-0.021,0.074-0.043,0.004-0.043c-0.029,0.029-0.093,0.063-0.177,0.097l-0.067,0.025l-0.033,0.012h-0.002
		c-0.012,0.002-0.024,0.005-0.038,0.007c-0.276,0.057-0.546,0.127-0.814,0.201c-0.005-0.002-0.02,0-0.022-0.002
		c-0.016,0.004-0.033,0.012-0.049,0.021l-0.003,0.002c-0.225,0.067-0.445,0.137-0.666,0.216c0-0.002,0-0.005,0-0.005l-0.082,0.02
		c-0.038,0.024-0.074,0.033-0.11,0.05c-0.024,0.009-0.038,0.012-0.063,0.026c-0.898,0.343-1.753,0.795-2.537,1.356
		c-0.647,0.462-1.243,0.999-1.765,1.604c-0.52,0.606-0.961,1.287-1.292,2.018c-0.082,0.184-0.155,0.371-0.223,0.561
		c-0.034,0.095-0.064,0.187-0.093,0.283c-0.031,0.093-0.06,0.186-0.089,0.279c-0.112,0.376-0.211,0.76-0.29,1.147
		c-0.151,0.773-0.228,1.578-0.129,2.389c0.053,0.397,0.148,0.8,0.307,1.184c0.158,0.382,0.38,0.737,0.656,1.043
		c0.28,0.313,0.611,0.565,0.973,0.757c0.18,0.101,0.366,0.184,0.56,0.25c0.096,0.039,0.194,0.066,0.292,0.09
		c0.1,0.025,0.197,0.053,0.312,0.063l0.062-0.432c-0.036-0.019-0.079-0.043-0.115-0.066c-0.041-0.025-0.079-0.048-0.12-0.066
		c-0.077-0.049-0.151-0.106-0.223-0.159c-0.144-0.101-0.278-0.216-0.397-0.34c-0.06-0.063-0.115-0.124-0.17-0.192
		c-0.077-0.23-0.108-0.469-0.008-0.492c-0.217-0.178-0.306-0.57-0.277-0.954c0.019-0.417,0.107-0.819,0.096-1.312
		c0.024-0.039,0.041-0.068,0.048-0.058c0.007,0.009,0.007,0.042,0.009,0.066c0.002,0.063,0.004,0.134,0.043,0.086
		c-0.005-0.028-0.008-0.067-0.008-0.095c-0.002-0.034,0.004-0.097,0.012-0.145c0.014-0.097,0.038-0.202,0.069-0.317
		c0.074-0.239,0.177-0.506,0.41-0.937l-0.007,0.07c0.036-0.074,0.06-0.139,0.103-0.218l0.163-0.254l0.079-0.126l0.019-0.033
		l0.01-0.014l0.228-0.201l0.929-0.824l0.039-0.033c-0.153,0.15-0.357,0.34-0.651,0.603c0.479-0.39,0.884-0.756,0.951-0.74
		c0.06-0.053,0.118-0.103,0.165-0.148c0.211-0.192,0.267-0.285-0.095-0.038l0.184-0.163c0.103-0.084,0.187-0.158,0.228-0.204
		l1.02-0.903l0.458-0.405l0.113-0.098l0.029-0.026c0.004-0.004,0,0,0,0l-0.002-0.004l-0.012-0.007l-0.045-0.031
		c-0.112-0.07-0.199-0.132-0.273-0.189c0.357-0.151,0.723-0.278,1.095-0.376c0.55-0.154,1.113-0.242,1.657-0.283
		c0.546-0.034,1.073-0.019,1.555,0.063c0.137,0.024,0.269,0.047,0.396,0.079c-0.664,0.374-1.323,0.778-1.948,1.221
		c-0.433,0.424-0.412,0.524-0.1,0.479c0.313-0.05,0.913-0.247,1.583-0.45c0.67-0.203,1.406-0.412,1.986-0.481
		c0.002,0,0.004,0,0.007,0c0.041,0.038,0.079,0.077,0.115,0.113c0.096,0.108,0.172,0.217,0.243,0.337
		c0.019,0.029,0.033,0.06,0.049,0.091c-0.723,0.234-1.743,0.603-1.063,0.733c0.374,0.019,0.831,0.026,1.346,0.019
		c0.046,0.189,0.084,0.398,0.11,0.628c0.01,0.108,0.02,0.22,0.024,0.335c0.007,0.116,0.013,0.237,0.013,0.359
		c0.002,0.245-0.01,0.506-0.032,0.775c-0.023,0.268-0.055,0.544-0.101,0.831c-0.043,0.289-0.096,0.576-0.163,0.878
		c-0.128,0.595-0.29,1.206-0.488,1.824l-0.15,0.471l-0.017,0.047c-0.678,0.02-1.181,0.011-1.27,0.011
		c0.28,0.095,0.671,0.214,1.145,0.354l-0.017,0.058c-0.091,0.258-0.201,0.526-0.323,0.814c-0.183,0.427-0.393,0.872-0.618,1.322
		c-0.527-0.335-1.018-0.633-1.444-0.882c0.4,0.354,0.78,0.738,1.154,1.14c-0.418-0.182-0.838-0.363-1.252-0.551
		c0.225,0.245,0.638,0.604,1.159,1.05c-0.272,0.521-0.561,1.05-0.857,1.581c-0.175,0.315-0.355,0.632-0.537,0.944l-0.554,0.951
		c-0.187,0.317-0.376,0.634-0.567,0.949l-0.575,0.953l-0.585,0.954c-0.194,0.321-0.387,0.642-0.584,0.958l-2.388,3.86l-1.2,1.94
		c-0.091,0.153-0.187,0.307-0.28,0.459c-0.007-0.058-0.017-0.119-0.024-0.168c-0.009,0.088-0.02,0.175-0.029,0.25
		c-0.288,0.475-0.577,0.938-0.862,1.418c-0.798,1.308-1.588,2.625-2.369,3.962s-1.555,2.678-2.305,4.047
		c-0.756,1.367-1.496,2.751-2.184,4.183l0.199,0.177c-0.019,0.068-0.007,0.115,0.017,0.163c0.036,0.058,0.103,0.097,0.179,0.048
		c-0.069,0.212-0.115,0.326-0.146,0.379c0.005,0,0.009,0,0.015,0.005c0.115-0.058,0.264-0.124,0.502-0.363
		c-0.012,0.085,0.039,0.085,0.127,0.037c0.022-0.009,0.045-0.009,0.071-0.048l0.094-0.105l0.213-0.244l-0.058,0.282
		c0.338-0.44,0.329-0.545,0.534-0.871c0.355-0.383,0.408-0.277,0.472-0.206c0.575-0.618-0.362,0.14,0.323-0.685
		c0.312-0.302,0.57-0.623,0.875-1.035c-0.091-0.177-0.299,0.058-0.505,0.288c-0.25,0.282-0.5,0.561-0.513,0.114
		c0.314-0.364,0.63-0.729,0.941-1.092l-0.131,0.345c0.133,0.173,0.27,0.134,0.349,0.147c0.115-0.158,0.237-0.33,0.372-0.521
		c0.324-0.297-0.069,0.221,0.045,0.149l0.305-0.533c0.069-0.08,0.045,0.005,0.031,0.049c0.246-0.354,0.043-0.269,0.405-0.757
		c-0.084,0-0.043-0.239,0.012-0.517c0.079-0.097,0.156-0.188,0.235-0.278l-0.149,0.623c0.218-0.287,0.762-0.533,1.174-1.262
		c0.117-0.076-0.055,0.207-0.02,0.25c0.651-0.963,0.556-0.8,1.073-1.677l0.453-0.402c-0.271,0.191-0.06-0.225,0.213-0.698
		c-0.05,0.014-0.101,0.022-0.154,0.032c0.104-0.124,0.204-0.249,0.307-0.373c0.002,0.015,0.007,0.019,0.009,0.01l0.043-0.029
		c-0.069,0.119-0.139,0.24-0.206,0.36c0.045-0.015,0.091-0.03,0.134-0.054c0.041-0.105,0.089-0.22,0.139-0.34l0.178-0.105
		c-0.01-0.043-0.008-0.119,0.005-0.216c0.06-0.076,0.12-0.143,0.177-0.221l0.002,0.014v0.016l-0.002,0.02
		c-0.014,0.075-0.071,0.216-0.141,0.364L17.5,76.903c0.007,0.019,0.009,0.039,0.017,0.044c-0.091,0.22-0.208,0.335-0.333,0.401
		c-0.06,0.163-0.101,0.302-0.076,0.354c0.036-0.076,0.107-0.182,0.186-0.292c-0.036,0.081-0.057,0.139-0.038,0.139
		c0.022,0,0.08-0.125,0.17-0.297l0.153,0.066l0.024-0.124l0.781-0.809c0.517-0.906,0.927-1.807,1.739-2.946
		c-0.172,0.411,0.012,0.297,0.041,0.487c-0.273,0.105-0.64,0.916-1.095,1.438c0.234-0.269,0.199-0.12,0.146-0.016l0.759-1.173
		c0.012,0.163,0.189-0.105,0.41-0.312c-0.223-0.081,0.539-0.934,0.829-1.423c0.047,0.058-0.002,0.25-0.397,0.729
		c0.488-0.35,0.462-1.025,0.924-1.399c-0.091,0.124-0.146,0.184-0.167,0.273c0.191-0.359,0.742-1.002,0.644-0.761l-0.093,0.124
		c0.637-0.786,1.871-2.505,1.851-2.817c0.02,0.019,0.043,0.336,0.026,0.423l0.359-1.046l0.084-0.264l0.043-0.129h-0.003
		c0.11-0.158,0.218-0.315,0.326-0.469l0.007,0.009l0.041,0.03c0.023,0.019,0.053,0.037,0.074,0.062
		c0.094,0.09,0.135,0.249-0.086,0.637c0.154-0.172,0.347-0.402,0.609-0.877c-0.113,0.121-0.381,0.13-0.262-0.071
		c0.465-0.345,0.309-0.258,0.841-0.766c-0.163,0.177-0.172-0.27,0.05-0.586c-0.009,0.087,0.188,0.182,0.125,0.326
		c0.129-0.345,0.254-0.68,0.374-1.016c-0.103,0.239,0.125,0.202,0.297,0.066c-0.091,0.053,0.474-0.708,0.599-0.948l-0.271,0.312
		c0.632-0.909,0.326-1.164,0.901-2.074c-0.026,0.145,0.085,0.484,0.402,0.021c0.014-0.145,0.033-0.48,0.091-0.883l0.012-0.076
		c0.002,0,0.002,0,0-0.009c0.201-0.347,0.403-0.7,0.594-1.055h0.002l-0.002,0.01l-0.004,0.024l-0.034,0.177
		c-0.095,0.479-0.229,0.996-0.345,1.352c0.259-0.331,0.134-0.053,0.44-0.604c0.167-0.153-0.079,0.359-0.172,0.518
		c0.262-0.412,0.515-0.834,0.762-1.255c-0.158-0.019,0.388-1.063,0.245-1.073c-0.192,0.494-0.391,0.986-0.604,1.476
		c-0.161-0.029,0.076-1.007,0.536-1.898c0.167-0.209,0.163,0.278,0.218,0.289c0.017-0.145,0.329-0.921,0.398-0.997l-0.105,0.426
		c0.294-0.502,0.193-0.919,0.572-1.518c0.088-0.22,0.424-0.622,0.35-0.69c-0.146,0.167-0.36,0.231-0.535,0.221
		c-0.021,0-0.042-0.005-0.064-0.01l-0.031-0.01h-0.01c0.086-0.248,0.175-0.498,0.251-0.746h0.006l0.045,0.043l0.043-0.149
		l-0.058-0.004l-0.003-0.005c0.079-0.255,0.151-0.513,0.22-0.776h0.005c0.021,0,0.041,0,0.055,0.019
		c0.029,0.039,0.05,0.115,0.07,0.197c0.038,0.158,0.064,0.331,0.17,0.177c-0.036-0.019-0.031-0.239-0.024-0.326
		c0.099-0.229,0.103,0.124,0.22-0.402c-0.127-0.11,0.259-1.073-0.07-0.269c0.072-0.517,0.159-0.535,0.264-1.149
		c-0.067,0.097-0.127-0.048-0.167-0.269c-0.013-0.058-0.022-0.124-0.029-0.182l-0.005-0.053c0.005-0.005,0.002-0.005-0.005-0.005
		c0.034-0.22,0.063-0.44,0.086-0.661c0.012-0.005-0.002-0.01,0.008-0.01l0.011-0.027c0.113-1.055,0.192-1.639,0.101-2.631
		c0.031-0.096,0.007-0.582,0.1-0.392c-0.047-0.137-0.12-0.256-0.184-0.559C31.936,48.159,31.979,48.327,32.029,48.508
		 M18.746,49.521c-0.039,0.029-0.075,0.051-0.118,0.084c0.043-0.033,0.092-0.071,0.142-0.11
		C18.762,49.505,18.752,49.515,18.746,49.521 M19.833,47.867c-0.579,0.434-0.958,0.718-0.879,0.498
		c-0.605,0.728-0.565,0.688-0.532,0.675c0.026-0.012,0.046,0.01-0.654,0.8c-0.022,0.013-0.042,0.026-0.064,0.037
		c-0.216,0.124-0.402,0.246-0.578,0.385l0.037-0.064c0.004-0.012,0.004,0,0.007-0.009l0.007-0.015l0.01-0.016
		c0.002-0.008,0.004-0.012,0.007-0.015c0.007-0.009,0.017-0.022,0.026-0.038c0.074-0.123,0.155-0.238,0.239-0.353
		c0.668-0.913,1.583-1.622,2.616-2.131c0.074-0.036,0.15-0.069,0.225-0.106C20.137,47.639,19.979,47.757,19.833,47.867
		 M10.189,85.569l-0.131,0.211c-0.039,0.032-0.075,0.062-0.113,0.095l-0.002,0.039c-0.015-0.076-0.05-0.134-0.084-0.191
		c-0.003,0-0.003,0-0.003,0c0.183-0.202,0.362-0.411,0.544-0.613c-0.029,0.096-0.026,0.143,0.012,0.096
		C10.335,85.339,10.262,85.454,10.189,85.569 M10.779,84.678c0.002,0,0.002,0,0.002,0S10.781,84.678,10.779,84.678 M11.634,83.825
		c-0.217,0.604-0.258,0.44-0.296,0.221c0.083-0.097,0.165-0.191,0.249-0.288l-0.063,0.159
		C11.581,83.825,11.579,83.912,11.634,83.825 M13.524,81.621c-0.017-0.019-0.038-0.042-0.058-0.066
		c0.036-0.039,0.072-0.076,0.105-0.124C13.562,81.497,13.545,81.56,13.524,81.621 M17.739,76.745
		c0.098-0.134,0.211-0.269,0.338-0.384C18.005,76.506,17.883,76.63,17.739,76.745"/>
	<path fill="#754C28" d="M9.354,86.226c-0.004-0.005-0.015-0.016-0.021-0.02c-0.02-0.015-0.036-0.023-0.055-0.033L9.26,86.164
		c0.01,0.009,0.019,0.022,0.024,0.057c-0.05,0.015-0.055,0.028-0.036,0.047l0.041-0.019C9.315,86.235,9.334,86.23,9.354,86.226"/>
	<polyline fill="#754C28" points="22.429,61.388 22.421,61.383 22.429,61.388 22.429,61.388 	"/>
	<path fill="#754C28" d="M9.242,86.336l-0.02-0.005c-0.007-0.006,0.031,0.015,0.046,0.023l0.049,0.019l0,0
		C9.294,86.354,9.268,86.346,9.242,86.336"/>
	<path fill="#754C28" d="M9.385,86.21c-0.01,0-0.022,0.011-0.031,0.016c0.041,0.023,0.082,0.063,0.126,0.1
		C9.459,86.268,9.433,86.21,9.385,86.21"/>
	<path fill="#754C28" d="M9.251,86.164H9.26c-0.002,0-0.002,0-0.002,0C9.253,86.164,9.249,86.157,9.251,86.164"/>
	<path fill="#754C28" d="M12.803,83.682c0.204-0.608,0.193-0.689,0.098-0.705c-0.048,0.067-0.095,0.131-0.141,0.197
		C12.801,83.25,12.819,83.404,12.803,83.682"/>
	<path fill="#754C28" d="M17.16,77.732c-0.034,0.01-0.043-0.011-0.053-0.029C17.068,77.779,17.068,77.809,17.16,77.732"/>
	<path fill="#754C28" d="M31.768,55.112c-0.06,0.153-0.104,0.234-0.139,0.287C31.653,55.413,31.693,55.347,31.768,55.112"/>
	<path fill="#754C28" d="M25.749,43.082c-0.17-0.031-0.342-0.058-0.517-0.077l0.142,0.031C25.5,43.053,25.625,43.062,25.749,43.082"
		/>
	<path fill="#754C28" d="M30.879,45.706c-0.067-0.072-0.146-0.138-0.217-0.206c0.076,0.142,0.06,0.159,0.079,0.25L30.879,45.706z"/>
	<path fill="#754C28" d="M31.706,47.088c-0.055-0.05-0.331-0.594-0.139-0.074C31.631,47.057,31.983,47.81,31.706,47.088"/>
	<path fill="#754C28" d="M28.127,62.911c-0.186,0.411-0.338,0.584-0.112,0.518c0.434-0.595-0.017-0.239,0.386-0.758
		C28.445,62.488,28.072,63.093,28.127,62.911"/>
	<path fill="#754C28" d="M28.127,62.911c0.031-0.063,0.06-0.135,0.091-0.211C28.163,62.814,28.14,62.872,28.127,62.911"/>
	<path fill="#754C28" d="M10.11,86.394c0.065,0.009,0.123,0.066,0.202,0l0.033-0.087c-0.02-0.01-0.046,0.005-0.086,0.039
		C10.218,86.364,10.176,86.373,10.11,86.394"/>
	<path fill="#754C28" d="M13.397,82.761c0.098-0.085,0.199-0.114,0.299-0.258C13.775,81.555,13.612,82.428,13.397,82.761"/>
	<path fill="#754C28" d="M13.397,82.761c-0.031,0.03-0.063,0.058-0.092,0.106C13.337,82.848,13.369,82.81,13.397,82.761"/>
	<path fill="#EC1C24" d="M28.206,15.127l-0.009,0.014l-0.039,0.051l-0.033,0.048c-0.046,0.063-0.089,0.127-0.13,0.191
		c-0.162,0.269-0.283,0.575-0.35,0.877c-0.069,0.301-0.086,0.599-0.077,0.862c0.008,0.266,0.041,0.508,0.079,0.735
		c0.077,0.448,0.178,0.836,0.261,1.2c0.168,0.726,0.264,1.37,0.216,2.002c-0.022,0.316-0.08,0.627-0.166,0.938
		c-0.089,0.309-0.213,0.616-0.359,0.918c-0.3,0.605-0.709,1.188-1.174,1.743c-0.235,0.276-0.484,0.547-0.745,0.81l-0.209,0.208
		c-0.074,0.074-0.148,0.151-0.22,0.228c-0.147,0.156-0.291,0.313-0.426,0.479c-0.547,0.659-1.016,1.401-1.354,2.206
		c-0.335,0.805-0.527,1.669-0.57,2.527c-0.046,0.862,0.064,1.71,0.268,2.52c0.101,0.402,0.23,0.797,0.378,1.18
		c0.149,0.384,0.317,0.755,0.499,1.117c0.182,0.364,0.383,0.714,0.594,1.056c0.213,0.342,0.434,0.676,0.671,0.999
		c0.235,0.321,0.481,0.635,0.735,0.942c0.254,0.304,0.517,0.601,0.788,0.891c0.546,0.57,1.116,1.119,1.732,1.607
		c-0.13-0.146-0.254-0.297-0.379-0.448c-0.126-0.15-0.246-0.304-0.366-0.457c-0.239-0.309-0.471-0.623-0.697-0.941
		c-0.223-0.316-0.438-0.64-0.644-0.968c-0.206-0.325-0.402-0.658-0.589-0.996c-0.369-0.673-0.7-1.365-0.963-2.072
		c-0.268-0.707-0.467-1.43-0.582-2.153c-0.058-0.364-0.089-0.726-0.097-1.084c-0.004-0.359,0.015-0.717,0.06-1.066
		c0.094-0.7,0.307-1.37,0.618-1.99c0.313-0.621,0.73-1.19,1.217-1.704c0.125-0.126,0.249-0.254,0.378-0.376
		c0.065-0.062,0.132-0.122,0.196-0.182l0.221-0.194c0.307-0.275,0.609-0.565,0.896-0.87c0.579-0.608,1.114-1.288,1.547-2.069
		c0.215-0.388,0.405-0.804,0.548-1.241c0.146-0.436,0.25-0.896,0.297-1.36c0.053-0.462,0.053-0.927,0.015-1.375
		c-0.038-0.448-0.113-0.877-0.192-1.279c-0.079-0.398-0.163-0.773-0.208-1.1c-0.026-0.16-0.039-0.306-0.039-0.431
		c-0.002-0.126,0.01-0.228,0.032-0.304c0.021-0.079,0.045-0.142,0.088-0.206c0.007-0.01,0.014-0.019,0.019-0.029
		c0.029,0.007,0.079,0.017,0.139,0.041c0.082,0.033,0.185,0.086,0.292,0.155c0.105,0.072,0.215,0.161,0.323,0.259
		c0.213,0.196,0.419,0.436,0.608,0.699c0.378,0.525,0.68,1.14,0.908,1.787c0.226,0.646,0.376,1.332,0.455,2.029l0.002,0.024
		c0.069,0.625,0.632,1.07,1.257,1.001c0.211-0.024,0.402-0.105,0.561-0.225l0.043-0.031l0.031-0.024l0.06-0.048l0.105-0.091
		c0.07-0.06,0.139-0.12,0.204-0.182c0.131-0.123,0.258-0.247,0.38-0.374c0.245-0.259,0.472-0.532,0.683-0.822
		c0.421-0.577,0.776-1.229,1.009-1.944c0.071-0.234,0.136-0.475,0.179-0.721c0.417,0.549,0.805,1.121,1.152,1.717
		c0.446,0.779,0.838,1.59,1.145,2.431c0.297,0.846,0.527,1.715,0.642,2.606c0.249,1.782,0.072,3.626-0.475,5.396
		c-0.139,0.44-0.292,0.879-0.469,1.31c-0.177,0.433-0.379,0.86-0.589,1.279c-0.424,0.839-0.917,1.653-1.451,2.444
		c0.67-0.678,1.292-1.416,1.844-2.204c0.278-0.398,0.542-0.806,0.786-1.229c0.239-0.421,0.459-0.857,0.661-1.305
		c0.402-0.896,0.7-1.844,0.896-2.824c0.187-0.979,0.263-1.985,0.215-2.991c-0.053-1.006-0.215-2.007-0.489-2.978
		c-0.278-0.97-0.642-1.913-1.102-2.809c-0.455-0.896-0.982-1.753-1.576-2.56c-0.297-0.405-0.61-0.798-0.943-1.176
		c-0.166-0.192-0.335-0.378-0.513-0.563c-0.086-0.091-0.177-0.182-0.269-0.276l-0.142-0.136l-0.074-0.07l-0.086-0.077
		c-0.429-0.39-1.095-0.358-1.485,0.07c-0.294,0.323-0.35,0.781-0.177,1.152l0.024,0.05c0.213,0.458,0.343,0.925,0.372,1.387
		c0.031,0.463-0.038,0.922-0.194,1.373c-0.104,0.296-0.245,0.584-0.417,0.864c-0.024-0.076-0.047-0.155-0.074-0.232
		c-0.287-0.831-0.68-1.636-1.219-2.378c-0.269-0.374-0.575-0.728-0.939-1.058c-0.184-0.163-0.383-0.318-0.604-0.465
		c-0.22-0.144-0.464-0.275-0.747-0.38c-0.28-0.105-0.604-0.185-0.98-0.182c-0.187,0-0.388,0.025-0.585,0.081
		c-0.201,0.055-0.4,0.142-0.574,0.254c-0.177,0.115-0.333,0.252-0.462,0.398c-0.015,0.015-0.033,0.039-0.053,0.063L28.206,15.127z
		 M29.971,16.547l0.005-0.009l0.012-0.015l-0.002,0.005c-0.002,0.004-0.009,0.01-0.009,0.01
		C29.981,16.536,29.977,16.541,29.971,16.547"/>
	<path fill="#EC1C24" d="M30.292,16.907l0.06,0.066L30.292,16.907z"/>
	<polygon fill="#EC1C24" points="30.175,16.756 30.199,16.782 30.144,16.72 	"/>
	<path fill="#EC1C24" d="M30.187,16.749c-0.103-0.1,0.012,0.02-0.026-0.014l-0.021-0.024l0.079,0.082
		C30.209,16.777,30.158,16.722,30.187,16.749"/>
	<polygon fill="#EC1C24" points="30.421,16.945 30.405,16.936 30.417,16.945 	"/>
	<path fill="#EC1C24" d="M30.417,16.945"/>
	<polygon fill="#EC1C24" points="30.41,16.907 30.441,16.943 30.496,16.979 	"/>
	<path fill="#EC1C24" d="M30.335,16.833l0.015,0.017L30.335,16.833z"/>
	<polygon fill="#EC1C24" points="30.376,16.885 30.348,16.85 30.359,16.861 	"/>
	<path fill="#EC1C24" d="M30.357,16.874l-0.074-0.065L30.357,16.874z"/>
	<polygon fill="#EC1C24" points="30.084,16.646 30.053,16.617 30.084,16.651 	"/>
	<polygon fill="#EC1C24" points="30.52,16.881 30.415,16.823 30.437,16.852 	"/>
	<path fill="#EC1C24" d="M30.415,16.823l-0.033-0.043L30.415,16.823z"/>
	<polygon fill="#EC1C24" points="30.213,16.732 30.291,16.811 30.213,16.729 	"/>
	<polygon fill="#EC1C24" points="30.58,16.768 30.633,16.818 30.554,16.737 	"/>
	<path fill="#EC1C24" d="M30.604,16.614l0.134,0.002c-0.002-0.069-0.055-0.139-0.11-0.193
		C30.664,16.485,30.659,16.559,30.604,16.614"/>
	<path fill="#EC1C24" d="M30.537,16.336l0.091,0.087L30.537,16.336z"/>
	<polygon fill="#EC1C24" points="30.412,16.753 30.501,16.768 30.417,16.744 	"/>
	<polygon fill="#EC1C24" points="30.415,16.744 30.417,16.744 30.432,16.722 	"/>
	<path fill="#EC1C24" d="M30.41,16.756v-0.002V16.756z"/>
	<path fill="#EC1C24" d="M30.287,16.763l-0.136-0.103L30.287,16.763z"/>
	<polygon fill="#EC1C24" points="30.312,16.715 30.285,16.722 30.353,16.763 	"/>
	<polygon fill="#EC1C24" points="30.292,16.696 30.312,16.715 30.321,16.713 	"/>
	<path fill="#EC1C24" d="M30.494,16.528c-0.039-0.036-0.046-0.074-0.065-0.125l-0.007,0.146L30.494,16.528z"/>
	<path fill="#EC1C24" d="M30.453,16.665l-0.002-0.007L30.453,16.665z"/>
	<polygon fill="#EC1C24" points="30.092,16.08 30.094,16.097 30.099,16.083 	"/>
	<polygon fill="#EC1C24" points="30.405,16.557 30.429,16.614 30.421,16.55 	"/>
	<path fill="#EC1C24" d="M30.41,16.188l0.011,0.101L30.41,16.188z"/>
	<path fill="#EC1C24" d="M30.475,16.655l0.002,0.007L30.475,16.655z"/>
	<polygon fill="#EC1C24" points="30.475,16.655 30.429,16.614 30.45,16.658 	"/>
	<path fill="#EC1C24" d="M29.977,16.579c-0.005-0.014,0.021-0.132,0-0.036l0.117-0.446l-0.067,0.101
		c0.008,0.042,0.053,0.117,0.002,0.175c-0.036,0.033-0.014-0.031-0.026-0.075l-0.023,0.278v-0.043L29.977,16.579z"/>
	<path fill="#EC1C24" d="M30.216,16.159l0.033,0.013l-0.062-0.156l-0.088,0.067c0.038,0.014,0.084,0.036,0.134,0.072L30.216,16.159z
		"/>
	<path fill="#EC1C24" d="M30.374,16.309l-0.208,0.076c0.043,0.051,0.088,0.002,0.144,0.039l0.057-0.108l0.063,0.088l-0.007-0.115
		l-0.002,0.007l0.002,0.002h-0.002l-0.009,0.007l-0.002-0.002L30.374,16.309l0.034-0.006l0.012-0.004v-0.002
		c-0.048-0.058-0.11-0.103-0.168-0.124C30.273,16.205,30.317,16.231,30.374,16.309"/>
	<path fill="#EC1C24" d="M30.002,16.555l0.015,0.012L30.002,16.555z"/>
	<polygon fill="#EC1C24" points="30.046,16.581 30.077,16.603 30.017,16.567 30.103,16.622 30.096,16.614 30.23,16.676 	"/>
	<polygon fill="#EC1C24" points="30.218,16.596 30.183,16.545 30.108,16.557 30.151,16.562 	"/>
	<polygon fill="#EC1C24" points="30.092,16.037 30.127,15.951 30.046,16.066 	"/>
	<polygon fill="#EC1C24" points="29.988,16.035 29.993,15.956 29.971,16.004 	"/>
	<path fill="#EC1C24" d="M30.359,16.815l0.017,0.012L30.359,16.815z"/>
	<path fill="#EC1C24" d="M30.364,16.818l-0.031-0.023L30.364,16.818z"/>
	<polygon fill="#EC1C24" points="30.391,16.809 30.472,16.866 30.403,16.815 	"/>
	<polygon fill="#EC1C24" points="29.971,16.514 29.95,16.5 30.02,16.545 	"/>
	<path fill="#EC1C24" d="M29.679,16.313l0.046,0.031L29.679,16.313z"/>
	<path fill="#EC1C24" d="M30.429,16.874l0.07,0.052L30.429,16.874z"/>
	<path fill="#EC1C24" d="M29.783,16.106l-0.024-0.045C29.78,16.106,29.813,16.174,29.783,16.106"/>
	<path fill="#EC1C24" d="M29.637,16.258l0.04,0.031L29.637,16.258z"/>
	<path fill="#EC1C24" d="M29.754,16.064l0.009,0.019l-0.005-0.019C29.739,16.03,29.729,16.011,29.754,16.064"/>
	<path fill="#EC1C24" d="M30.364,16.839l-0.007-0.007L30.364,16.839z"/>
	<path fill="#EC1C24" d="M29.677,16.313l-0.004-0.004L29.677,16.313z"/>
	<path fill="#EC1C24" d="M29.818,16.021"/>
	<path fill="#EC1C24" d="M29.929,16.342l0.011,0.042L29.929,16.342z"/>
	<path fill="#EC1C24" d="M29.971,16.526"/>
	<path fill="#EC1C24" d="M29.838,16.057l-0.015-0.021L29.838,16.057z"/>
	<path fill="#EC1C24" d="M29.823,16.018l0.007,0.008L29.823,16.018z"/>
	<polygon fill="#EC1C24" points="29.813,16.028 29.823,16.035 29.818,16.021 	"/>
	<path fill="#EC1C24" d="M30.187,16.693l-0.004-0.004L30.187,16.693z"/>
	<polygon fill="#EC1C24" points="29.658,16.303 29.66,16.305 29.662,16.309 	"/>
	<path fill="#EC1C24" d="M29.604,16.265c0.086,0.063,0.077,0.055,0.058,0.044l0.204,0.138L29.604,16.265z"/>
	<path fill="#EC1C24" d="M30.379,16.83l0.06,0.048l0.153,0.117l-0.235-0.183l0.043,0.034l0.01,0.007
		c0.1,0.08-0.154-0.119-0.125-0.096l0.074,0.055l-0.053-0.041l0.036,0.031l-0.016-0.014l0.007,0.005l-0.108-0.084l0.05,0.038
		l-0.053-0.041l0.101,0.079c0.213,0.163-0.053-0.042,0.071,0.055l0.026,0.02l0.154,0.117l-0.242-0.187
		c0.015,0.012,0.022,0.019-0.02-0.015c0.075,0.058,0.058,0.043,0.053,0.041l0.099,0.077l-0.125-0.098l0.154,0.12l-0.141-0.11
		c0.038,0.029-0.005-0.002-0.065-0.05l0.092,0.07L30.3,16.763l0.038,0.031l-0.127-0.099l-0.019-0.016l-0.464-0.335
		c-0.039-0.026-0.07-0.046-0.008-0.002l-0.105-0.075l0.179,0.122l-0.069-0.045l0.246,0.17l0.088,0.06l0.055,0.038l-0.095-0.064
		l0.024,0.014l-0.159-0.107L29.95,16.5l-0.196-0.134l0.029,0.019l-0.042-0.029l0.039,0.027l-0.118-0.08l0.046,0.029l-0.071-0.047
		l0.337,0.232l-0.242-0.166c0.108,0.075-0.046-0.031-0.024-0.015l-0.075-0.055l0.096,0.069l-0.096-0.067l0.159,0.11l-0.096-0.07
		c-0.125-0.084,0.191,0.134,0.086,0.062l-0.022-0.014c0.05,0.033,0.009,0.007-0.039-0.027l0,0c-0.021-0.015-0.002,0,0.136,0.096
		l-0.194-0.133l0.465,0.32l-0.47-0.324c-0.016-0.012-0.036-0.026,0.005,0.003l0.185,0.126l-0.185-0.126l0.207,0.144l-0.204-0.142
		l0.182,0.127l-0.206-0.144c0.033,0.024-0.005-0.002,0.014,0.012l0.043,0.029l0.246,0.17l-0.256-0.175l0.525,0.362l-0.055-0.038
		l0.062,0.042l-0.555-0.383l-0.057-0.039l-0.08-0.058l-0.033-0.019l0.201,0.138l-0.113-0.081l0.292,0.204l-0.232-0.161
		c0.036,0.026,0.071,0.05,0.045,0.031l-0.06-0.04c-0.04-0.029,0.147,0.1,0.042,0.029c-0.008-0.005-0.142-0.097-0.077-0.053
		l0.606,0.419l-0.18-0.125l-0.32-0.22l0.082,0.055l-0.082-0.055l0.095,0.064c0.031,0.022-0.024-0.015-0.019-0.012l0.277,0.191
		l-0.084-0.057l-0.009-0.005l0.021,0.015l0.002,0.005v0.002l0,0l0,0v0.004v-0.004c0.031,0.067-0.088-0.183-0.108-0.234l0.036,0.076
		c0.015,0.026-0.11-0.27-0.055-0.16l0.106,0.268c0.015,0.038-0.026-0.062-0.026-0.057l0.019,0.046
		c0.014,0.033,0.026,0.057,0.012,0.028c0.036,0.082,0.013,0.034,0.02,0.052l-0.02-0.06l0.005,0.015l-0.047-0.154
		c-0.017-0.058-0.037-0.151-0.013-0.107l0.029,0.12l-0.014-0.033c-0.007-0.053,0.042,0.158,0.016,0.002l-0.023-0.082
		c-0.005-0.06,0-0.192,0.036-0.156l-0.041-0.124c0.034,0.17-0.064,0.002-0.009,0.179c-0.046-0.158-0.036-0.064-0.086-0.193
		l0.009,0.058l0.008,0.033v-0.002v0.005l0.002,0.002l0.021,0.055c0.022,0.091,0.01,0.091,0.024,0.136l-0.031-0.083l0.021,0.069
		l-0.07-0.189l-0.009-0.002c-0.021-0.042-0.036-0.06-0.024-0.023l0.008,0.028l0.014,0.055l-0.009-0.021
		c-0.012-0.008,0.053,0.139-0.021-0.005c0.007,0.019,0.02,0.045,0.007,0.023l-0.036-0.069l0,0l0.707,0.813
		c0.014,0.009,0.041,0.029-0.004-0.005c0.17,0.12,0.038,0.026,0.069,0.048l-0.084-0.057l-0.05-0.038l-0.074-0.048
		c-0.06-0.042,0.053,0.034,0.045,0.029l0.002,0.002c0.166,0.115-0.12-0.084,0,0h0.003l0.005,0.002l0,0l0.038,0.026l-0.038-0.026
		l-0.029-0.019l0.079,0.052H30.4l-0.099-0.067l-0.045-0.033l0.091,0.064l-0.187-0.129l0.029,0.016
		c0.015,0.013,0.031,0.024-0.009-0.004l0.1,0.07l-0.134-0.094l0.175,0.12l-0.163-0.112l0.064,0.046
		c-0.002-0.002-0.088-0.063-0.036-0.024l0.132,0.089c-0.19-0.131,0.086,0.057-0.063-0.045l0.11,0.076
		c-0.042-0.029,0.072,0.048-0.053-0.038l0.094,0.064l-0.013-0.007l0.058,0.038l-0.277-0.189c0.062,0.041,0.055,0.036-0.032-0.024
		l0.104,0.071c0.004,0.003,0.062,0.042-0.043-0.031l-0.005-0.002c0.008,0.004,0.017,0.01,0.01,0.004l-0.002-0.002l-0.008-0.002
		l-0.009-0.007l-0.043-0.029l-0.297-0.216l-0.011-0.009l-0.013-0.012l-0.06-0.043l0.077,0.057c0.162,0.125-0.096-0.071-0.033-0.024
		l0.042,0.033l-0.241-0.186l-0.034-0.024c-0.093-0.075,0.101,0.074,0.123,0.093l-0.144-0.112c-0.046-0.034,0.17,0.134,0.069,0.055
		l0.113,0.086c0.015,0.015-0.156-0.117-0.026-0.016l-0.034-0.026l0.127,0.098l-0.115-0.086l0.013,0.01l-0.024-0.019l0.101,0.077
		l-0.053-0.041c-0.048-0.036-0.039-0.029,0.081,0.064l-0.078-0.06c0.045,0.034-0.123-0.093-0.031-0.023l-0.034-0.027
		c0.089,0.072-0.217-0.165,0.065,0.055l0.069,0.053l0.17,0.132l-0.098-0.079l0.014,0.012l-0.153-0.118l-0.083-0.06l0.115,0.086
		l-0.007-0.005l-0.084-0.064c-0.065-0.05,0.055,0.043,0.079,0.062l-0.136-0.107l0.007,0.007l0.014,0.012l0.092,0.069l-0.075-0.058
		l-0.004-0.002l-0.009-0.007l0.091,0.07l0.095,0.076l-0.105-0.082c0.065,0.05,0.065,0.05,0.058,0.046l0.108,0.082l-0.244-0.185
		l0.167,0.13l-0.129-0.101c0.084,0.063-0.053-0.041-0.024-0.019l0.11,0.086l-0.139-0.106c0.015,0.009,0.161,0.122,0.064,0.051
		l0.065,0.05c-0.134-0.104,0.109,0.086-0.144-0.108l0.062,0.048l0.105,0.081l-0.105-0.081l0.108,0.083l-0.02-0.014l0.409,0.316
		c-0.131-0.103,0.199,0.154,0.008,0.005l0.084,0.065c-0.065-0.05-0.077-0.061-0.048-0.039l0.017,0.012l0.091,0.069l-0.074-0.058
		l0.05,0.038l-0.132-0.098l0.177,0.132l-0.086-0.065l0.045,0.036l-0.057-0.048l0.108,0.083l0.012,0.012
		c0.055,0.042-0.017-0.014,0-0.002l-0.029-0.021l-0.074-0.062l-0.037-0.026c-0.064-0.051,0.039,0.031,0.008,0.008l0.009,0.004
		l-0.048-0.037l0.125,0.097l-0.185-0.144l0.058,0.045l-0.093-0.074l0.153,0.119c0.127,0.098-0.126-0.101,0.058,0.046l-0.125-0.096
		l-0.103-0.082l0.204,0.156l0.012,0.007c0.041,0.033-0.058-0.042,0.009,0.009l-0.117-0.091l0.029,0.022
		c-0.034-0.026-0.177-0.137-0.108-0.084l0.077,0.06l0.012,0.009l0.123,0.094c0.053,0.042-0.088-0.07,0.045,0.036l-0.107-0.086
		l0.074,0.058l-0.046-0.033l0.096,0.074c-0.082-0.064,0.072,0.055,0.027,0.021l-0.142-0.112c-0.101-0.077,0.194,0.151,0.158,0.123
		l-0.079-0.061l0.084,0.063l-0.123-0.094c0.091,0.07-0.038-0.028-0.067-0.049l0.077,0.057c0.047,0.038-0.159-0.123-0.099-0.077
		l0.103,0.082l-0.026-0.022l0.086,0.067c-0.062-0.05-0.045-0.038-0.021-0.019l-0.141-0.108l0.062,0.048l0.037,0.029l0.071,0.055
		c0.053,0.038,0.012,0.007,0.012,0.007l-0.017-0.012L30.28,16.76l0.072,0.055l-0.048-0.038l0.154,0.12l-0.067-0.053l0.095,0.072
		c0.037,0.029-0.12-0.091-0.071-0.055l-0.031-0.024c0.014,0.01,0.089,0.07,0.005,0.002l0.11,0.086l-0.179-0.139l0.124,0.096
		c-0.055-0.043-0.168-0.129-0.079-0.062L30.379,16.83z M30.331,16.792l0.02,0.014L30.331,16.792z M29.821,16.411l0.017,0.013
		L29.821,16.411z M29.813,16.106v0.002V16.106z M29.835,16.141l-0.015-0.037l0.002,0.02L29.835,16.141z M29.677,16.301l0.02,0.017
		L29.677,16.301z"/>
	<path fill="#EC1C24" d="M29.713,16.336l0.043,0.029L29.713,16.336z"/>
	<polygon fill="#EC1C24" points="30.417,16.864 30.415,16.861 30.429,16.874 	"/>
	<path fill="#EC1C24" d="M29.662,16.313l0.039,0.026L29.662,16.313z"/>
	<polygon fill="#EC1C24" points="29.874,15.963 29.858,15.992 29.883,16.021 	"/>
	<polygon fill="#EC1C24" points="29.974,16.545 29.981,16.533 30.01,16.5 	"/>
	<polygon fill="#EC1C24" points="29.94,16.274 29.959,16.311 29.957,16.311 	"/>
	<path fill="#EC1C24" d="M29.962,16.309l0.007-0.003L29.962,16.309z"/>
	<path fill="#EC1C24" d="M29.828,16.088l-0.019-0.067L29.828,16.088z"/>
	<polygon fill="#EC1C24" points="29.979,16.536 29.964,16.438 29.977,16.517 	"/>
	<polygon fill="#EC1C24" points="29.959,16.466 29.969,16.492 29.959,16.459 	"/>
	<path fill="#EC1C24" d="M29.959,16.461l-0.002-0.02L29.959,16.461z"/>
	<polygon fill="#EC1C24" points="29.983,16.564 29.981,16.545 29.979,16.538 	"/>
	<polygon fill="#EC1C24" points="29.942,16.452 29.955,16.475 29.971,16.514 	"/>
	<polygon fill="#EC1C24" points="29.988,16.552 29.988,16.552 29.988,16.552 	"/>
	<path fill="#EC1C24" d="M29.986,16.547"/>
	<polygon fill="#EC1C24" points="29.94,16.504 29.94,16.504 30.108,16.617 	"/>
	<path fill="#EC1C24" d="M29.542,16.227c-0.038-0.027,0.104,0.071,0.053,0.038l0.075,0.051L29.542,16.227z"/>
	<path fill="#EC1C24" d="M29.67,16.315l0.026,0.016L29.67,16.315z"/>
	<polygon fill="#EC1C24" points="29.591,16.246 29.557,16.219 29.61,16.26 	"/>
	<polygon fill="#EC1C24" points="29.708,16.336 29.607,16.26 29.699,16.329 	"/>
	<polygon fill="#EC1C24" points="30.537,16.95 30.512,16.931 30.479,16.905 	"/>
	<polygon fill="#EC1C24" points="30.458,16.892 30.46,16.892 30.369,16.823 	"/>
	<path fill="#EC1C24" d="M30.575,16.983l-0.012-0.009L30.575,16.983z"/>
	<path fill="#EC1C24" d="M28.654,15.35c-0.105,0.103-0.002,0.12-0.007,0.144C28.789,15.304,28.637,15.338,28.654,15.35"/>
	<path fill="#EC1C24" d="M31.057,14.874l-0.063,0.007c0.139,0.036,0.28,0.077,0.417,0.132
		C31.293,14.957,31.176,14.912,31.057,14.874"/>
	<path fill="#EC1C24" d="M33.066,16.742c-0.024-0.309-0.628-0.812-0.96-1.172l-0.039-0.078l-0.244-0.058
		C32.297,15.786,32.868,16.355,33.066,16.742"/>
	<path fill="#EC1C24" d="M33.84,19.019c-0.051-0.272,0.261,0.539-0.259-0.707l0.043,0.141L33.84,19.019z"/>
	<path fill="#EC1C24" d="M33.624,18.454C33.392,17.884,33.749,18.89,33.624,18.454"/>
	<path fill="#EC1C24" d="M34.586,19.692c-0.122,0.242-0.157,0.245-0.234,0.374c0.022,0.017,0.079-0.021,0.122-0.055
		c0.043-0.029,0.11-0.137,0.05-0.014C34.879,19.398,34.791,19.477,34.586,19.692"/>
	<path fill="#EC1C24" d="M34.869,19.072l-0.158,0.278C34.743,19.326,34.793,19.261,34.869,19.072"/>
	<path fill="#EC1C24" d="M34.414,19.82c0.053-0.013,0.185-0.283,0.297-0.47c-0.053,0.038-0.064-0.033-0.158,0.271
		C34.584,19.484,34.489,19.754,34.414,19.82"/>
	<path fill="#EC1C24" d="M34.281,19.855l-0.024,0.007c-0.146-0.481-0.288-0.915-0.044-0.393c-0.474-1.197-0.471-0.938,0.044,0.408
		L34.281,19.855z"/>
	<path fill="#EC1C24" d="M33.27,16.782l-0.134-0.273c-0.06-0.063-0.126-0.12-0.192-0.18C33.047,16.416,33.246,16.821,33.27,16.782"
		/>
	<path fill="#EC1C24" d="M35.665,16.263c-0.034-0.024-0.053,0.172-0.087,0.21c0.015,0.06,0.022,0.108,0.034,0.18
		c0.017,0.083,0.023,0.167,0.029,0.256C35.662,16.583,35.626,16.313,35.665,16.263"/>
	<path fill="#EC1C24" d="M35.576,16.475c-0.038-0.17-0.088-0.334-0.148-0.493C35.526,16.423,35.542,16.509,35.576,16.475"/>
	<path fill="#EC1C24" d="M34.867,18.789l-0.246,0.472l-0.129,0.247c-0.041,0.074-0.058,0.045-0.086,0.081
		c0.048,0.029,0.166-0.222,0.268-0.407c0.103-0.189,0.204-0.369,0.28-0.541L34.867,18.789z"/>
	<path fill="#EC1C24" d="M35.246,14.816c0.024,0.041,0.04,0.074,0.069,0.103c-0.042-0.052-0.069-0.12-0.084-0.191
		C35.229,14.756,35.246,14.79,35.246,14.816"/>
	<path fill="#EC1C24" d="M35.485,14.5c-0.04,0.074,0.11,0.069,0.055,0.122c0.082-0.034,0.199-0.067,0.307-0.064
		C35.741,14.538,35.631,14.507,35.485,14.5"/>
	<path fill="#EC1C24" d="M36.053,14.636c-0.055-0.045-0.093-0.062-0.113-0.064c-0.029-0.007-0.06-0.012-0.093-0.014l0.084,0.021
		C35.95,14.581,35.988,14.593,36.053,14.636"/>
	<path fill="#EC1C24" d="M35.157,15.18c-0.003-0.063,0.023-0.089,0.017-0.218c-0.02,0.031-0.041,0.069-0.06,0.108
		C35.131,15.105,35.123,15.11,35.157,15.18"/>
	<path fill="#EC1C24" d="M35.114,15.075V15.07c-0.024-0.103-0.029-0.18-0.021-0.211C35.087,14.885,35.085,14.953,35.114,15.075"/>
	<path fill="#EC1C24" d="M35.176,15.225l-0.019-0.045C35.157,15.201,35.16,15.211,35.176,15.225"/>
	<path fill="#EC1C24" d="M35.428,17.513c0.026-0.424-0.075-1.145-0.127-0.458C35.337,17.326,35.423,16.918,35.428,17.513"/>
	<path fill="#EC1C24" d="M35.171,15.489c0.057,0.162,0.103,0.328,0.144,0.498c0.02-0.016,0.026-0.117,0.084,0.017
		C35.334,15.824,35.257,15.651,35.171,15.489"/>
	<path fill="#EC1C24" d="M35.049,15.266c0.043,0.072,0.084,0.146,0.122,0.223l-0.067-0.18L35.049,15.266z"/>
	<path fill="#EC1C24" d="M35.688,14.366c0.118-0.024,0.262,0.016,0.369,0.105c-0.1-0.11-0.283-0.185-0.445-0.18
		C35.588,14.322,35.528,14.363,35.688,14.366"/>
	<path fill="#EC1C24" d="M35.215,14.521l0.009-0.021C35.209,14.507,35.202,14.516,35.215,14.521"/>
	<polygon fill="#EC1C24" points="37.677,16.26 37.665,16.219 37.648,16.221 	"/>
	<path fill="#EC1C24" d="M35.583,14.279c-0.129-0.01-0.196,0.043-0.24,0.093c0.07-0.046,0.161-0.077,0.269-0.082
		C35.622,14.279,35.624,14.272,35.583,14.279"/>
	<path fill="#EC1C24" d="M36.549,15.077c-0.065-0.093-0.123-0.185-0.199-0.275C36.403,14.885,36.503,15.06,36.549,15.077"/>
	<path fill="#EC1C24" d="M35.265,14.492l-0.007,0.015C35.291,14.498,35.282,14.492,35.265,14.492"/>
	<path fill="#EC1C24" d="M35.265,14.492c0.026-0.043,0.048-0.082,0.079-0.12c-0.055,0.036-0.096,0.084-0.12,0.127
		C35.236,14.495,35.253,14.492,35.265,14.492"/>
	<path fill="#EC1C24" d="M38.563,16.536c-0.082,0.012-0.459-0.374-0.683-0.79c-0.345-0.314-0.34,0.078-0.216,0.474
		c0.037-0.009,0.06-0.029,0.379,0.309c-0.061-0.155-0.554-0.877-0.251-0.613c0.407,0.469,0.287,0.418,0.433,0.685
		c-0.072-0.269,0.568,0.561,0.611,0.372l-0.36-0.419C38.491,16.53,38.634,16.672,38.563,16.536"/>
	<path fill="#EC1C24" d="M37.114,15.537l-0.13-0.134c0.132,0.165,0.204,0.311,0.34,0.565c0.232,0.213,0.29,0.253,0.324,0.253
		c-0.188-0.248-0.391-0.483-0.585-0.725L37.114,15.537z"/>
	<path fill="#EC1C24" d="M36.405,14.783c0.153,0.031,0.505,0.358,0.375,0.083c-0.386-0.4-0.323-0.228-0.584-0.432
		c0.657,0.602-0.215-0.144,0.211,0.335l-0.35-0.299c0.089,0.088,0.205,0.225,0.293,0.328l-0.013-0.016l-0.002-0.002h0.002
		c-0.021-0.034-0.024-0.048,0-0.013l0.017,0.01C36.366,14.775,36.386,14.777,36.405,14.783c0.155,0.188,0.016,0.045-0.051-0.005
		c-0.004,0.003-0.015,0-0.015,0l-0.002,0.005c0.207,0.184,0.439,0.414,0.645,0.62C36.87,15.259,36.695,15.067,36.405,14.783"/>
	<path fill="#EC1C24" d="M35.083,16.495c0.004-0.029,0.009-0.029,0.017-0.031C35.081,16.406,35.068,16.384,35.083,16.495"/>
	<path fill="#EC1C24" d="M35.059,16.109c0.026,0.065,0.079,0.11,0.105,0.335c0.005,0.196-0.038,0.005-0.067,0.02
		c0.048,0.122,0.115,0.472,0.11,0.033l-0.021-0.064c-0.024-0.386-0.103-0.894-0.07-0.834C35.081,15.733,35.068,15.846,35.059,16.109
		"/>
	<path fill="#EC1C24" d="M35.081,14.306c0.124-0.141,0.316-0.235,0.527-0.254c-0.108-0.021-0.223-0.026-0.338-0.008l0.033,0.037
		C34.97,14.227,35.094,14.265,35.081,14.306"/>
	<polygon fill="#EC1C24" points="37.696,16.354 37.564,16.332 37.928,16.596 	"/>
	<polygon fill="#EC1C24" points="38.278,17.13 38.192,17.144 38.378,17.326 	"/>
	<path fill="#EC1C24" d="M30.741,20.48c0.007,0.079,0.016,0.161,0.019,0.239C30.759,20.604,30.748,20.533,30.741,20.48"/>
	<path fill="#EC1C24" d="M30.561,18.777l-0.045-0.033C30.551,18.815,30.573,18.844,30.561,18.777"/>
	<path fill="#EC1C24" d="M39.617,31.809c0.196-0.283,0.431-0.601,0.335-0.594l-0.115,0.067
		C39.771,31.51,39.693,31.676,39.617,31.809"/>
	<polygon fill="#EC1C24" points="36.309,20.353 36.383,20.286 36.424,20.054 	"/>
	<path fill="#EC1C24" d="M36.479,20.748c-0.103,0.115-0.201,0.228-0.312,0.333C36.247,21.015,36.348,20.909,36.479,20.748"/>
	<path fill="#EC1C24" d="M26.319,28.265l-0.089,0.249C26.472,28.212,26.333,28.317,26.319,28.265"/>
	<path fill="#EC1C24" d="M41.035,26.403c-0.058,0.269-0.096,0.481-0.129,0.668C41.001,26.756,41.102,26.494,41.035,26.403"/>
	<path fill="#EC1C24" d="M29.794,19.884c0.031,0.128,0.048,0.184,0.067,0.179C29.84,19.93,29.813,19.855,29.794,19.884"/>
	<path fill="#EC1C24" d="M40.771,27.843l0.048-0.136c0.023-0.197,0.047-0.396,0.091-0.635
		C40.833,27.307,40.771,27.573,40.771,27.843"/>
	<path fill="#EC1C24" d="M24.731,25.795l0.06-0.05C24.788,25.73,24.764,25.754,24.731,25.795"/>
	<path fill="#EC1C24" d="M27.993,17.678l0.07,0.362C28.058,17.972,28.034,17.862,27.993,17.678"/>
	<path fill="#EC1C24" d="M40.082,20.564C40,20.377,40.063,20.538,40.082,20.564"/>
	<path fill="#EC1C24" d="M40,19.508c0.029,0.036,0.053,0.062,0.072,0.06C40.048,19.56,40.019,19.539,40,19.508"/>
	<path fill="#EC1C24" d="M40.69,29.972l-0.009,0.017C40.718,29.937,40.714,29.946,40.69,29.972"/>
	<path fill="#EC1C24" d="M40,20.265c0.019,0.077,0.048,0.161,0.076,0.251L40,20.265z"/>
	<path fill="#EC1C24" d="M39.981,20.317l-0.058-0.168C39.895,20.133,39.899,20.157,39.981,20.317"/>
	<path fill="#EC1C24" d="M40.187,20.83c-0.042-0.11-0.076-0.212-0.11-0.313c0.01,0.041,0.01,0.058,0.005,0.048L40.187,20.83z"/>
	<path fill="#EC1C24" d="M28.084,41.352l-0.032-0.036C27.864,41.208,27.941,41.263,28.084,41.352"/>
	<polygon fill="#EC1C24" points="39.833,26.272 39.837,26.295 39.837,26.265 	"/>
	<path fill="#EC1C24" d="M39.731,25.544c0.134,0.302,0.125,0.483,0.106,0.721l0.244-0.254
		C39.972,25.851,39.847,25.694,39.731,25.544"/>
	<path fill="#EC1C24" d="M29.641,24.451c0.117-0.148,0.234-0.299,0.345-0.459c-0.213,0.673-0.546,1.064-0.158,0.668
		c-0.091-0.105,0.196-0.583,0.419-1.1c0.225-0.512,0.366-1.066,0.249-1.137l0.141-0.353c-0.024,0.105-0.015,0.125-0.043,0.228
		c0.276-0.699-0.047-0.572,0.051-1.49c0.033-0.324,0.055-0.551,0.096-0.328c-0.024-0.245-0.063-0.484-0.108-0.718
		c-0.017-0.207,0.036-0.163,0.053,0.045c-0.039-0.367-0.108-0.721-0.18-1.068l0.01,0.005c-0.07-0.144-0.199-0.458-0.256-0.616
		c-0.012-0.266,0.052,0.124,0.074,0.053l-0.17-0.551c0.029-0.241,0.177,0.211,0.242,0.604c0.081-0.29,0.042-0.403-0.022-0.589
		c-0.028-0.082-0.074-0.225-0.098-0.337c-0.014-0.042,0-0.398,0.07-0.406c-0.01,0.037-0.007,0.048-0.005,0.101l0.007,0.23
		c0.038-0.06,0.069-0.163,0.091-0.225c0.02-0.041,0.034-0.034,0.051-0.048l0.007-0.009l0.005-0.004v-0.002h0.002
		c0.623-0.269-0.848,0.364-0.696,0.299l0,0c0.005,0.005,0.012,0.008,0.009,0.01l0.002,0.002l0,0l0,0l0.166-0.428l-0.01,0.021
		L29.84,17.23c-0.019,0.058,0.012,0.024,0.005,0.036c-0.005,0.002-0.002,0.008,0.026,0.026c0.071,0.053,0.247,0.175,0.217,0.194
		c-0.007-0.026,0.026-0.029-0.074-0.122c-0.084-0.079-0.154-0.158-0.158-0.192c-0.002-0.007-0.002-0.017-0.007-0.026l-0.007-0.011
		l-0.002-0.008v-0.002l0,0l0.572-0.246H30.41l0,0h-0.005c-0.02,0.007-0.039,0.009-0.053,0.004c-0.013-0.004-0.024-0.012-0.029-0.029
		v-0.017v-0.009l0.002-0.002l0,0c-0.937,0.4-0.259,0.11-0.468,0.199l0,0h0.005c0.012-0.002,0.029-0.005,0.043-0.002
		c0.015,0.031,0.329,0.188,0.477,0.287c-0.066,0.069,0.18,0.273,0.424,0.561l-0.113,0.062c0.256,0.263,0.288,0.237,0.472,0.397
		c0.22,0.409,0.175,0.541,0.144,0.675c0.29,0.676-0.072-0.534,0.316,0.259c0.189,0.594,0.36,0.999,0.577,1.734
		c0.033,0.446-0.086-0.064-0.096,0.101l0.155,0.374c0.01,0.095-0.024,0.066-0.042,0.055c0.042,0.161,0.086,0.216,0.122,0.234
		c0.048,0.029,0.064,0.108,0.242,0.397c0.103,0.041,0.234,0.366,0.62,0.602c0.187,0.117,0.436,0.193,0.688,0.187
		c0.256-0.009,0.495-0.108,0.656-0.247c0.201-0.083-0.048,0.123,0.028,0.127c0.481-0.374,0.534-0.512,0.678-0.662
		c0.117-0.146,0.22-0.277,0.424-0.62c0.172-0.145,0.331-0.304,0.488-0.465c-0.383,0.326-0.06-0.228,0.141-0.729l-0.313,0.28
		c0.144-0.239,0.273-0.488,0.386-0.742c0.067-0.079,0.064,0.015,0.043,0.163l0.048-0.151c0.18-0.245,0.18-0.074,0.135,0.155
		c-0.072,0.08-0.148,0.153-0.223,0.228c-0.046,0.221-0.088,0.436-0.002,0.439c0.022-0.055,0.069-0.154,0.129-0.259
		c-0.011,0.057-0.016,0.101,0.008,0.083c0.029-0.016,0.055-0.11,0.098-0.251l0.225-0.105l-0.026-0.07l0.417-0.687l0.031-0.596
		c-0.009-0.218,0.055-0.137,0.115-0.11c0.062,0.036,0.137,0.088,0.218,0.17c0.172,0.159,0.385,0.407,0.634,0.786
		c-0.251-0.213-0.18,0.031-0.294,0.08c-0.094-0.413-0.386-0.514-0.58-0.817c0.115,0.179,0.084,0.241,0.065,0.251
		c0.098,0.064,0.228,0.179,0.38,0.352c-0.105,0.015,0.043,0.214,0.166,0.499c0.064-0.297,0.534,0.678,0.783,1.076
		c-0.048,0.055-0.158-0.017-0.398-0.53c0.149,0.621,0.576,0.623,0.7,1.246c-0.047-0.13-0.077-0.201-0.129-0.237
		c0.187,0.27,0.417,1.034,0.292,0.879l-0.043-0.129c0.149,0.433,0.35,1.102,0.494,1.682c0.153,0.582,0.249,1.078,0.345,1.138
		c-0.024,0.012-0.221-0.097-0.259-0.146c0.254,0.512,0.479,1.054,0.661,1.624c-0.148-0.144-0.498,0.4-0.574-0.355
		c-0.02,0.216-0.038,0.481-0.02,0.939c0.029-0.144,0.23-0.359,0.235-0.154c-0.197,0.549-0.106,0.386-0.326,1.049
		c0.062-0.215,0.254,0.06,0.192,0.415c-0.024-0.062-0.226-0.007-0.23-0.139c0.029,0.3,0.042,0.601,0.053,0.906
		c0.009-0.223-0.178-0.08-0.288,0.095c0.077-0.074-0.191,0.729-0.249,0.954l0.158-0.338c-0.331,0.927-0.005,1.04-0.407,1.961
		c0.004-0.131-0.144-0.383-0.369,0.065c0.005,0.249,0.063,1.173-0.328,2l-0.144,0.115l-0.299,0.627l0.529-2.302
		c-0.208,0.309-0.112,0.058-0.366,0.554c-0.146,0.144,0.06-0.309,0.132-0.455c-0.208,0.374-0.424,0.745-0.656,1.106
		c0.151,0.022-0.4,0.917-0.287,0.932c0.217-0.422,0.421-0.848,0.612-1.279c0.144,0.011-0.069,0.905-0.612,1.674
		c-0.176,0.168-0.101-0.28-0.149-0.287c-0.011,0.055-0.086,0.203-0.177,0.361l0.556,0.456c0.16-0.194,0.347-0.403,0.398-0.427
		l-0.228,0.346c0.407-0.355,0.464-0.752,0.967-1.164c0.144-0.166,0.551-0.412,0.508-0.494c-0.335,0.201-0.757-0.048-0.7-0.294
		c0.058-0.048,0.777-0.822,0.972-0.995c0.302-0.235-0.062,0.604,0.192,0.405c-0.024-0.031,0.053-0.223,0.086-0.3
		c0.149-0.182,0.043,0.144,0.292-0.296c-0.067-0.137,0.517-0.884,0.029-0.264c0.201-0.447,0.287-0.438,0.531-0.96
		c-0.158,0.122-0.034-0.589,0.101-1.05c0.024,0.042,0.106-0.045,0.144-0.086c0.359-0.924,0.561-1.427,0.748-2.339
		c0.047-0.08,0.153-0.518,0.182-0.319c-0.004-0.139-0.029-0.266,0-0.553c0.182-0.544-0.058,0.642,0.134,0.234
		c-0.072-0.045-0.019-0.759-0.063-1.171c-0.119,0.12-0.081,0.941-0.1,1.358c-0.163-0.024-0.22-0.75-0.287-1.696
		c-0.039-0.75,0.105-0.329,0.086-0.458c-0.057-1.43-0.364-1.176-0.455-2.342c0.004-0.477,0.206-0.067,0.254-0.183
		c0.172,0.602,0.115,0.951,0.167,1.368c-0.005-0.175-0.01-0.347-0.02-0.522c0.067,0.189,0.148,0.602,0.134,0.832
		c0.034-0.201-0.024-0.812-0.167-1.497c-0.134-0.69-0.364-1.444-0.508-1.985c-0.105-0.176-0.259-0.481-0.245-0.314l0.139,0.323
		c0.028,0.331-0.345-0.575-0.226-0.146c-0.225-0.417-0.512-0.855-0.762-1.461l0.053-0.163c-0.024,0.029,0.129,0.415,0.24,0.568
		c-0.158-0.225-0.312-0.978-0.6-1.167l0.149,0.446c-0.273-0.388-0.667-0.814-0.954-1.315c0.038,0.285,0.086,0.103,0.182,0.522
		c-0.019-0.4,0.724,1.277,0.604,0.695c0.053,0.445,0.283,0.673,0.378,1.226c0.028-0.031-0.005-0.208,0.167,0.237
		c0.02,0.017,0.048,0.058,0.067,0.084L40,20.265v-0.026c0.01,0.017,0.01,0.019-0.004-0.009c-0.024-0.113-0.043-0.204-0.043-0.25
		c0.192,0.18,0.464,0.901,0.584,1.133c0.076,0.28-0.077-0.098-0.067,0.063l0.183,0.35c-0.072,0.064,0.071,0.769-0.163,0.141
		l0.153,0.579c0.039,0.353,0.116,0.83,0.201,1.117c0.024,0.28,0.192,0.694,0.096,0.458c0.058,0.309,0.096,0.62,0.134,0.932
		l-0.02,0.012c0.034,0.913,0.13,1.93-0.234,2.944c-0.039,0.309-0.082,0.633-0.254,1.128l-0.105,0.077
		c-0.086,0.393-0.47,1.097-0.47,1.281c-0.345,0.318-0.896,1.718-1.346,2.276l0.067,0.079c-0.276,0.403-0.532,0.793-0.886,1.289
		l0.091,0.029c-0.206,0.342-0.629,0.724-1.075,1.14l0.646,0.53c0.125-0.172,0.25-0.35,0.367-0.534
		c-0.002,0.07-0.132,0.249-0.234,0.366c0.747-0.757,1.03-1.935,1.562-2.718c0.071-0.225,0.153-0.376,0.239-0.522l-0.019,0.057
		l0.043-0.088l0.172-0.285c-0.058,0.084-0.115,0.166-0.153,0.238c0.071-0.168,0.172-0.429,0.239-0.688l0.135-0.076l0.019-0.06
		c0.125-0.238,0.029-0.216-0.086-0.108c0.033-0.132,0.057-0.256,0.067-0.355c0.216-0.158,0.167-0.689,0.397-0.934
		c-0.015-0.194,0.24-1.351,0.077-1.518c0.024-0.005,0.043-0.082,0.024,0.06c0.066-0.292,0.115-0.591,0.095-0.865l0.125-0.117
		c-0.038-0.223-0.076-0.446-0.129-0.663c0.081-0.396,0.115-0.568,0.215-0.168c-0.162-0.96-0.067-0.786-0.296-1.581l0.086,0.029
		c-0.033-0.287-0.216-0.728-0.192-0.91c0.015-0.335-0.158-1.128-0.479-2.007c-0.316-0.884-0.786-1.83-1.149-2.587
		c-0.02,0.199-0.097,0.02-0.194-0.206c-0.12-0.259-0.374-0.695-0.434-0.627c-0.042-0.168-0.244-0.492,0.015-0.218
		c-0.237-0.296-0.419-0.558-0.601-0.809l-0.254-0.362c-0.039-0.053-0.086-0.134-0.115-0.156l-0.088-0.062
		c-0.079,0.355-0.163,0.791-0.218,1.26c-0.077,0.093,0.024-0.434-0.033-0.335c-0.024,0.151-0.084,0.551-0.152,0.663
		c-0.066,0.12,0.029-0.254,0.072-0.556c-0.093,0.434-0.185,0.719-0.24,0.944c-0.036,0.106-0.062,0.199-0.079,0.272
		c-0.008,0.046-0.008,0.086-0.008,0.123c0,0.141,0.058,0.21,0.115,0.272c-0.261,0.335-0.361,0.505-0.447,0.817
		c-0.127,0.091-0.307,0.256-0.034-0.172c-0.136,0.261-1.151,1.308-1.113,1.391c-0.084,0.039-0.305,0.269-0.352,0.319
		c-0.238,0.187-0.367,0.215-0.501,0.244c-0.132,0.02-0.278,0.031-0.51-0.064c0.038,0.029,0.082,0.051,0.124,0.069
		c-0.242,0.079-0.477-0.148-0.647-0.539l0.02,0.008c-0.053-0.223-0.041-0.437-0.064-0.561c-0.015-0.127-0.026-0.192-0.048-0.256
		c-0.043-0.127-0.048-0.256-0.146-0.865l-0.075,0.086c-0.208-0.053-0.172-1.083-0.582-1.7l0.057,0.258
		c-0.208-0.321-0.258-1.094-0.524-1.46c-0.048-0.086,0.119,0.093,0.201,0.196c-0.605-0.942-0.179-0.05-0.729-0.616
		c-0.027-0.077,0.038-0.072,0.062-0.099c0.007-0.038,0.053-0.052-0.218-0.306c-0.101-0.086-0.196-0.137-0.359-0.214
		c-0.074-0.033-0.213-0.105-0.369-0.134l-0.057-0.009l-0.031-0.004h-0.007l-0.002-0.002h-0.002c-0.232,0.1,0.517-0.223-0.52,0.225
		h-0.002l-0.005,0.012l-0.05,0.105c-0.031,0.074-0.06,0.155-0.079,0.237c-0.034,0.18-0.019,0.322-0.019,0.429
		c0.002,0.101,0.009,0.285,0.04,0.405c0.043,0.22,0.075,0.418,0.075,0.594c0.022-0.156,0.046-0.314,0.146,0.021
		c0.125,0.532,0.084,1.421,0.271,1.852c-0.01,0.067-0.024,0.091-0.037,0.096c0.086,0.381,0.072,1.248,0.104,1.492
		c-0.187,0.153-0.259,0.735-0.422,1.272c-0.153,0.537-0.375,1.011-0.505,0.932c-0.188,0.347-0.404,0.685-0.639,1.008l-0.008-0.045
		c-0.481,0.594-0.625,0.831-0.756,1.085c-0.144,0.115-0.072,0-0.072-0.02c-0.831,0.772-0.951,0.798-1.555,1.634l-0.141,0.012
		c-0.069,0.122-0.383,0.419-0.731,0.848c-0.354,0.418-0.716,1.034-0.857,1.619c-0.007-0.015-0.016-0.043,0.005-0.139
		c-0.196,0.651-0.421,1.444-0.479,2.153c-0.069,0.707,0.005,1.314,0.22,1.528c0.082,0.28,0.154,0.563,0.256,0.833
		c-0.206-1.097,0.18,0.132,0.144-0.328c0.106,0.415,0.18,1.109,0.013,0.601l-0.002-0.086c-0.259-0.134,0.342,1.344,0.237,1.349
		c0.81,2.052,1.919,3.899,3.207,5.499l-0.036-0.273l0.318,0.396l0.395-0.402l-0.153-0.125c-0.117-0.136-0.122-0.235,0.22,0.038
		l-0.546,0.559l-0.036-0.041l0.024,0.05l0.565-0.579c-0.189-0.211-0.654-0.422-0.683-0.41c-0.678-0.676,0.391,0.117,0.175-0.082
		l-0.305-0.249l0.053,0.071c-0.273-0.172-0.342-0.141-0.749-0.567c-0.235-0.294-0.067-0.204-0.161-0.314
		c0.007-0.007-0.024-0.045-0.151-0.17c-0.187-0.22-0.376-0.438-0.554-0.666l0.134,0.34c-0.292-0.258-0.512-0.641-0.362-0.244
		c-0.115-0.293-0.594-0.947-1.013-1.607c-0.421-0.661-0.771-1.325-0.817-1.504c-0.303-0.45-0.51-0.947-0.687-1.576
		c0.029,0.158-0.077,0.297-0.21-0.261c0.294,0.142-0.134-1.046,0.047-1.514c-0.043,0.204-0.096-0.189-0.11-0.553
		c-0.019-0.364-0.009-0.709-0.12-0.395c0.051-0.468,0.101-0.024,0.187-0.369c-0.004-1.121,0.575-2.362,1.325-3.487
		c-0.017-0.039-0.194,0.124-0.067-0.149c0.185-0.17,0.381-0.323,0.578-0.474c0.158-0.213,0.005-0.328,0.431-0.606
		c-0.07,0.029-0.175,0.077-0.055-0.064c1.047-0.912,2.047-2.069,2.589-3.487c0.269-0.709,0.381-1.49,0.335-2.25
		c-0.041-0.752-0.208-1.485-0.273-2.165c0.017,0.378-0.048,0.134-0.105-0.141c0.02,0.182-0.084,0.012-0.125,0.055
		c-0.033-0.386-0.038-0.77,0.013-1.122c-0.063-0.095-0.051-0.395,0.014-0.656c0.068-0.254,0.189-0.51,0.159-0.589
		c-0.043,0.11-0.084,0.223-0.117,0.333c0.019-0.242-0.125-0.132-0.281,0.058c-0.156,0.186-0.285,0.472-0.371,0.419
		c0.055,0.584-0.199,1.614,0.266,2.457c0.007,0.207-0.098-0.151-0.117-0.038c0.13,0.209,0.218,0.477,0.263,0.978l-0.029-0.053
		c0.123,0.694,0.092,1.183-0.024,1.676c-0.115,0.488-0.323,0.98-0.732,1.636l0.139-0.053c-0.18,0.285-0.249,0.328-0.355,0.445
		c-0.082,0.412,0.508-0.797,0.455-0.421c-0.189,0.153-0.508,0.656-0.881,1.109c-0.369,0.455-0.776,0.862-0.963,0.896
		c-0.375,0.38,0.194-0.039-0.191,0.347L25.04,25.58l-0.046,0.156c-0.261,0.261-0.434,0.361-0.481,0.34
		c0.063-0.067,0.156-0.209,0.218-0.28c-0.391,0.307-0.835,1.085-0.939,1.214c0.113-0.146,0.225-0.292,0.345-0.432
		c-0.44,0.642-0.884,1.39-1.181,2.208c-0.296,0.812-0.436,1.672-0.409,2.424l0.051-0.11c0.011,0.57,0.026,0.793,0.016,1.038
		c0.008,0.239-0.007,0.501,0.13,1.109l-0.02-0.043c0.091,0.239,0.187,0.551,0.275,0.879c-0.141-0.285,0.075,0.596-0.101,0.217
		c0.484,1.138,0.269,0.556,0.719,1.234l0.012,0.199c0.18,0.216,0.211,0.225,0.518,0.749c-0.293-0.409,0.088,0.401-0.255-0.057
		c0.487,1.222,1.143,1.536,1.301,2.144c0.508,0.355-0.568-0.958-0.333-0.723c-0.101-0.264,0.397,0.313,0.627,0.634
		c0.247,0.318,0.213,0.716,0.913,1.48c-0.069-0.076-0.086-0.069-0.153-0.146c0.22,0.321,0.563,0.508,0.855,0.898
		c0.28,0.096,0.462,0.419,0.623,0.347c-0.251-0.192-0.496-0.393-0.73-0.606c0.359,0.301,0.786,0.481,1.296,0.91l0.196-0.201
		c-0.062-0.082-0.127-0.174-0.194-0.273c0.048,0.024,0.161,0.117,0.268,0.211l-0.328,0.338l-0.148-0.087
		c0.038,0.043,0.078,0.082,0.122,0.118l0.386-0.393c-0.121-0.148-0.269-0.269-0.367-0.448c0.076-0.02,0.237,0.159,0.436,0.388
		l-0.51,0.524c-0.288-0.218-0.638-0.515-0.915-0.68c0.166,0.249,0.913,0.616,0.582,0.565c0.11,0.024,0.214,0.072,0.314,0.139
		l0.554-0.567c-0.267-0.269-0.468-0.68-0.87-1.016l0.101-0.022c-0.077-0.074-0.242-0.228-0.354-0.39l0.307,0.217
		c-0.405-0.38-0.534-0.903-0.857-1.31c0.596,0.91,0.038,0.268,0.237,0.689c-0.843-1.065-0.245-0.773-1.011-2.05
		c0.103,0.175,0.319,0.694,0.125,0.438c-0.123-0.258-0.269-0.608-0.297-0.785c-0.453-0.879-0.022,0.177-0.259-0.175
		c-0.038-0.354-0.249-0.418-0.448-0.814l0.086-0.039c-0.33-1.076-0.313-0.206-0.546-1.2l0.249,0.371l-0.182-0.493l0.137,0.074
		c-0.225-0.524-0.242-0.711-0.301-1.257c-0.043,0.137-0.192-0.046-0.233-0.542c0.041-0.337,0.088,0.182,0.063-0.51
		c0.06,0.157,0.134,0.318,0.069,0.625c0.033,0.029,0.077,0.146,0.11,0.175c0.021-0.357-0.036-0.881-0.02-1.128
		c-0.004,0.093-0.016,0.206-0.029,0.263c-0.04-0.328-0.055-0.666-0.042-0.996c0.062-0.148,0.064-0.02,0.076,0.103
		c0.019-0.196,0.005-0.34,0.07-0.627c0.057,0.093,0.129,0.096,0.086,0.496c0.026-0.302,0.077-0.605,0.153-0.905
		c0.053-0.051,0.262-0.405,0.245-0.283c0.122-0.228,0.216-0.501,0.371-0.8c0.151-0.302,0.35-0.621,0.599-0.872
		c0.012-0.038,0.048-0.103,0.139-0.223c0.405-0.446,1.002-0.769,1.523-1.458c0.146-0.082,0.294-0.163,0.438-0.254
		c0.432-0.52-0.567,0.371,0.139-0.496c0.472-0.634,0.278-0.15,0.487-0.345c0.193-0.362,0.474-0.992,0.908-1.6
		C29.863,24.093,29.749,24.248,29.641,24.451 M29.902,17.017c-0.007,0-0.018,0-0.029,0.002h-0.007h-0.005h-0.002l0,0l0.463-0.199
		v0.005l-0.004,0.019c-0.008,0.026-0.008,0.048-0.01,0.07c-0.002,0.036-0.002,0.082-0.036,0.146
		c-0.048-0.093-0.062-0.12-0.046-0.163c0.01-0.021,0.024-0.038,0.043-0.058l0.014-0.014l0.008-0.01l0.004-0.005l0.002-0.002
		l0.002-0.002l-0.437,0.189h0.003C29.878,17.002,29.893,17.01,29.902,17.017 M36.995,19.44c-0.003,0.051-0.022,0.099-0.051,0.154
		c-0.033,0.069-0.091,0.158-0.154,0.239C36.853,19.692,36.929,19.534,36.995,19.44 M40.805,22.684l0.01,0.014
		C40.843,23.031,40.833,22.912,40.805,22.684 M40.681,22.001c-0.034-0.065-0.044-0.055-0.048-0.024
		c0.033,0.04,0.077,0.188,0.115,0.364C40.757,22.287,40.757,22.196,40.681,22.001 M26.882,39.35l0.074,0.117
		C26.726,39.259,26.802,39.304,26.882,39.35"/>
	<path fill="#EC1C24" d="M36.462,20.696c-0.039,0.031-0.06,0.031-0.082,0.029C36.357,20.787,36.374,20.799,36.462,20.696"/>
	<path fill="#EC1C24" d="M26.336,28.219l-0.017,0.017c-0.002,0.015-0.002,0.024,0,0.029L26.336,28.219z"/>
	<path fill="#EC1C24" d="M39.713,32.712c-0.096,0.12-0.163,0.18-0.207,0.216C39.521,32.947,39.579,32.902,39.713,32.712"/>
	<path fill="#EC1C24" d="M39.138,18.674l0.235,0.378c-0.106-0.186-0.125-0.263-0.159-0.369
		C39.195,18.703,39.205,18.794,39.138,18.674"/>
	<path fill="#EC1C24" d="M37.373,15.139c-0.053-0.041-0.095-0.106-0.148-0.144l-0.021,0.044
		C37.396,15.245,37.552,15.376,37.373,15.139"/>
	<path fill="#EC1C24" d="M39.214,18.157c0.048-0.07-0.115-0.307-0.297-0.563l0.03,0.046C38.802,17.621,39.013,17.884,39.214,18.157"
		/>
	<path fill="#EC1C24" d="M38.87,17.534c-0.053-0.081-0.105-0.163-0.154-0.247C38.654,17.28,38.769,17.393,38.87,17.534"/>
	<path fill="#EC1C24" d="M40.374,21.172c-0.028-0.146-0.129-0.052-0.124-0.142C40.105,20.907,40.67,21.925,40.374,21.172"/>
	<polygon fill="#EC1C24" points="39.31,17.8 39.281,17.948 39.444,18.064 	"/>
	<path fill="#EC1C24" d="M40.393,20.083l-0.183-0.479c-0.009,0.014-0.048-0.04-0.086-0.11
		C40.254,19.781,40.369,20.107,40.393,20.083"/>
	<path fill="#EC1C24" d="M40.125,19.494c-0.067-0.151-0.139-0.288-0.192-0.362L40.125,19.494z"/>
	<polygon fill="#EC1C24" points="39.684,18.392 39.742,18.535 39.904,18.859 	"/>
	<path fill="#EC1C24" d="M41.465,25.422c0.005,0.184,0.01,0.371,0.01,0.558c0.029,0.058,0.062-0.093,0.053-0.301
		C41.509,25.544,41.495,25.336,41.465,25.422"/>
	<path fill="#EC1C24" d="M41.628,23.709c0,0.158-0.019,0.17-0.047,0.259l0.125,0.004L41.628,23.709z"/>
	<path fill="#EC1C24" d="M41.763,25.361c0.038,0.055,0.077,0.832,0.091,0.105C41.82,25.41,41.792,24.837,41.763,25.361"/>
	<polygon fill="#EC1C24" points="38.937,33.249 39.022,33.134 38.841,33.034 	"/>
	<path fill="#EC1C24" d="M38.846,30.961c-0.28,0.578,0.067,0.192-0.216,0.702c-0.019,0.159,0.229-0.417,0.211-0.258
		C38.937,31.021,39.032,30.839,38.846,30.961"/>
	<path fill="#EC1C24" d="M38.841,31.405l-0.053,0.194C38.821,31.489,38.836,31.438,38.841,31.405"/>
	<path fill="#EC1C24" d="M28.144,16.318c0.045-0.106,0.105-0.218,0.166-0.326l-0.151,0.199L28.144,16.318z"/>
	<path fill="#EC1C24" d="M28.295,15.592c0.05-0.002,0.108-0.017,0.148-0.002c-0.016-0.042,0.024-0.17,0.037-0.247l-0.101,0.151
		C28.35,15.527,28.328,15.565,28.295,15.592"/>
	<path fill="#EC1C24" d="M30.453,17.788h0.043c-0.015-0.067-0.077-0.139-0.201-0.273L30.453,17.788z"/>
	<polygon fill="#EC1C24" points="30.85,21.06 30.86,20.953 30.729,21.146 	"/>
	<path fill="#EC1C24" d="M28.922,25.875c0.141-0.158,0.275-0.37,0.405-0.539C29.066,25.721,28.774,25.827,28.922,25.875"/>
	<path fill="#FFDD15" d="M32.029,42.729c0.316,0.009,0.632,0.009,0.946-0.007c0.312-0.015,0.624-0.043,0.932-0.083
		c0.307-0.041,0.611-0.093,0.911-0.163c0.299-0.069,0.594-0.151,0.883-0.244c0.58-0.191,1.135-0.434,1.663-0.726
		c0.261-0.146,0.52-0.302,0.769-0.47c0.246-0.167,0.489-0.347,0.718-0.536c0.464-0.378,0.901-0.793,1.294-1.246
		c0.397-0.445,0.762-0.924,1.092-1.427c0.331-0.501,0.628-1.025,0.891-1.572c0.263-0.541,0.499-1.099,0.704-1.671
		c0.101-0.285,0.197-0.575,0.283-0.867l0.067-0.216l0.058-0.221l0.067-0.237c0.029-0.086,0.047-0.17,0.076-0.254
		c0.211-0.673,0.484-1.329,0.834-1.952c0.345-0.62,0.766-1.205,1.246-1.731c0.479-0.529,1.02-0.996,1.595-1.404
		c0.58-0.405,1.193-0.745,1.826-1.03c0.546-0.24,1.102-0.434,1.672-0.589c-0.005,0-0.005-0.002-0.005-0.002
		c-0.719-0.194-1.495-0.254-2.281-0.192c-0.781,0.062-1.571,0.239-2.347,0.491c-0.384,0.129-0.767,0.275-1.145,0.441
		c-0.379,0.166-0.752,0.347-1.117,0.554c0.302-0.295,0.632-0.554,0.978-0.801c0.345-0.244,0.699-0.471,1.073-0.675
		c0.752-0.409,1.562-0.733,2.415-0.926c0.862-0.192,1.772-0.252,2.672-0.11c0.91,0.129,1.792,0.471,2.577,0.958
		c0.178,0.109,0.307,0.297,0.341,0.522c0.057,0.402-0.226,0.773-0.628,0.833l-0.086,0.01l-0.096,0.014l-0.101,0.017
		c-0.071,0.011-0.144,0.024-0.216,0.038c-0.144,0.029-0.292,0.06-0.44,0.097c-0.287,0.069-0.575,0.153-0.862,0.241
		c-0.57,0.18-1.121,0.41-1.648,0.678c-0.531,0.264-1.034,0.575-1.495,0.93c-0.459,0.35-0.881,0.742-1.259,1.173
		c-0.187,0.218-0.364,0.443-0.527,0.675c-0.167,0.235-0.312,0.479-0.455,0.729c-0.133,0.251-0.263,0.51-0.374,0.776
		c-0.115,0.266-0.216,0.536-0.307,0.814c-0.019,0.07-0.038,0.139-0.057,0.209L45.097,33.8l-0.072,0.244l-0.076,0.245
		c-0.101,0.321-0.216,0.64-0.335,0.958c-0.245,0.632-0.527,1.252-0.848,1.854c-0.326,0.599-0.69,1.179-1.097,1.732
		c-0.407,0.548-0.857,1.068-1.347,1.551c-0.493,0.477-1.025,0.916-1.595,1.303c-0.575,0.381-1.179,0.714-1.813,0.975
		c-1.265,0.53-2.635,0.776-3.971,0.74c-1.337-0.036-2.64-0.347-3.823-0.868C30.759,42.638,31.395,42.71,32.029,42.729"/>
	<path fill="#FFDD15" d="M31.957,42.24c0.11,0.014,0.072-0.069,0.092-0.083C31.861,42.164,31.96,42.265,31.957,42.24"/>
	<polygon fill="#FFDD15" points="30.092,42.839 30.046,42.856 30.348,42.892 	"/>
	<path fill="#FFDD15" d="M31.845,43.421c-0.134-0.175-0.654-0.144-0.953-0.302l-0.039-0.048l-0.177,0.058
		C31.059,43.256,31.581,43.318,31.845,43.421"/>
	<path fill="#FFDD15" d="M32.773,43.905c-0.053-0.065,0.223-0.015-0.232-0.053l0.041,0.02L32.773,43.905z"/>
	<path fill="#FFDD15" d="M32.583,43.872C32.384,43.846,32.705,43.938,32.583,43.872"/>
	<path fill="#FFDD15" d="M33.506,43.946c-0.088,0.012-0.177,0.019-0.268,0.026c0.053,0.041,0.287,0.067,0.199,0.082
		C33.713,44.042,33.658,44.005,33.506,43.946"/>
	<path fill="#FFDD15" d="M33.76,43.855l-0.136,0.014C33.648,43.883,33.684,43.891,33.76,43.855"/>
	<path fill="#FFDD15" d="M33.334,43.893c0.097-0.002,0.194-0.017,0.29-0.024c-0.036-0.025-0.038-0.071-0.134,0.008
		C33.519,43.835,33.457,43.876,33.334,43.893"/>
	<path fill="#FFDD15" d="M33.174,43.855c-0.145-0.046-0.331-0.084-0.065-0.106C32.616,43.709,32.671,43.821,33.174,43.855"/>
	<path fill="#FFDD15" d="M31.969,43.301l-0.172-0.086l-0.172,0.005C31.71,43.215,31.969,43.349,31.969,43.301"/>
	<path fill="#FFDD15" d="M35.157,43.996c0.014-0.031-0.096-0.07-0.12-0.105c-0.063,0.02-0.125,0.029-0.189,0.046
		C34.948,43.956,35.14,43.953,35.157,43.996"/>
	<path fill="#FFDD15" d="M35.039,43.891l0.283-0.082C35.063,43.829,35.021,43.857,35.039,43.891"/>
	<path fill="#FFDD15" d="M33.813,43.7c-0.155,0.028-0.314,0.062-0.475,0.081l0.565-0.076L33.813,43.7z"/>
	<polygon fill="#FFDD15" points="36.269,43.835 36.117,43.938 36.388,43.773 	"/>
	<path fill="#FFDD15" d="M36.989,43.649c-0.105,0.086,0.191,0.051,0.074,0.117c0.194-0.062,0.345-0.172,0.479-0.258
		C37.392,43.577,37.224,43.637,36.989,43.649"/>
	<path fill="#FFDD15" d="M37.766,43.356l-0.223,0.151C37.622,43.469,37.696,43.419,37.766,43.356"/>
	<path fill="#FFDD15" d="M35.813,43.757c0.024,0.014,0.074,0.055,0.239,0.05l-0.126-0.067L35.813,43.757z"/>
	<path fill="#FFDD15" d="M35.921,43.737l0.005,0.002l0.241-0.04C36.137,43.704,36.065,43.721,35.921,43.737"/>
	<path fill="#FFDD15" d="M35.785,43.762l0.029-0.005C35.801,43.749,35.794,43.747,35.785,43.762"/>
	<path fill="#FFDD15" d="M34.563,43.778c0.167-0.055,0.507-0.124,0.17-0.179C34.615,43.663,34.812,43.694,34.563,43.778"/>
	<path fill="#FFDD15" d="M35.629,43.678c-0.101,0.012-0.201,0.016-0.304,0.019c0.009,0.022,0.066,0.048-0.013,0.082
		C35.418,43.747,35.526,43.718,35.629,43.678"/>
	<polygon fill="#FFDD15" points="35.772,43.627 35.629,43.678 35.741,43.667 	"/>
	<path fill="#FFDD15" d="M37.238,43.453c0.115-0.077,0.254-0.12,0.405-0.183c-0.17,0.043-0.347,0.088-0.51,0.142
		C37.116,43.445,37.059,43.515,37.238,43.453"/>
	<path fill="#FFDD15" d="M36.602,43.608l0.026-0.012C36.608,43.594,36.594,43.594,36.602,43.608"/>
	<polygon fill="#FFDD15" points="39.109,42.607 39.08,42.607 39.085,42.621 	"/>
	<path fill="#FFDD15" d="M37.102,43.407c-0.131,0.022-0.201,0.06-0.268,0.105l0.299-0.101
		C37.141,43.397,37.141,43.391,37.102,43.407"/>
	<path fill="#FFDD15" d="M38.175,43.155l-0.232,0.041C38.017,43.196,38.161,43.186,38.175,43.155"/>
	<path fill="#FFDD15" d="M36.678,43.608l-0.019,0.008C36.707,43.623,36.697,43.616,36.678,43.608"/>
	<path fill="#FFDD15" d="M36.678,43.608c0.062-0.031,0.108-0.064,0.156-0.096c-0.077,0.026-0.146,0.055-0.206,0.084
		C36.645,43.599,36.664,43.603,36.678,43.608"/>
	<path fill="#FFDD15" d="M39.252,41.9c0.02,0.074-0.23,0.313-0.522,0.371c-0.225,0.177,0.053,0.329,0.35,0.335
		c-0.009-0.033-0.019-0.062,0.216-0.251c-0.11,0.021-0.627,0.232-0.437,0.05c0.317-0.223,0.288-0.132,0.479-0.192
		c-0.191,0.002,0.345-0.38,0.191-0.457l-0.258,0.223C39.257,41.965,39.339,41.867,39.252,41.9"/>
	<path fill="#FFDD15" d="M38.565,42.861l-0.11,0.06c0.137-0.044,0.242-0.063,0.433-0.093c0.173-0.13,0.197-0.172,0.197-0.207
		l-0.553,0.269L38.565,42.861z"/>
	<path fill="#FFDD15" d="M37.94,43.144c0.062-0.113,0.316-0.267,0.115-0.278c-0.329,0.139-0.206,0.158-0.395,0.271
		c0.539-0.231-0.139,0.104,0.273-0.002c-0.103,0.058-0.199,0.095-0.29,0.136l0.299-0.074h-0.015l-0.002,0.002v-0.002
		c-0.025,0-0.038-0.004-0.007-0.008l0.009-0.007C37.925,43.17,37.933,43.155,37.94,43.144c0.167-0.048,0.033,0.009-0.013,0.038
		c0,0.004-0.004,0.01-0.002,0.015h0.002c0.18-0.082,0.353-0.183,0.527-0.275C38.335,42.959,38.196,43.033,37.94,43.144"/>
	<path fill="#FFDD15" d="M35.025,43.397c0.017,0.005,0.017,0.012,0.02,0.016C35.081,43.4,35.092,43.393,35.025,43.397"/>
	<path fill="#FFDD15" d="M35.262,43.424c-0.041,0.016-0.071,0.055-0.206,0.06c-0.12-0.015-0.002-0.041-0.012-0.07
		c-0.077,0.034-0.28,0.084-0.022,0.108l0.041-0.019c0.232,0.01,0.544,0.079,0.503,0.094C35.49,43.532,35.423,43.483,35.262,43.424"
		/>
	<path fill="#FFDD15" d="M36.611,43.352l0.453-0.167c-0.084,0.002-0.17-0.002-0.256-0.005l0.024,0.041
		C36.563,43.272,36.635,43.311,36.611,43.352"/>
	<polygon fill="#FFDD15" points="39.181,42.616 39.167,42.729 39.354,42.475 	"/>
	<polygon fill="#FFDD15" points="39.727,42.281 39.751,42.36 39.866,42.229 	"/>
	<path fill="#FFDD15" d="M44.464,26.444l0.12-0.077C44.522,26.401,44.488,26.425,44.464,26.444"/>
	<path fill="#FFDD15" d="M43.531,26.902l-0.005,0.046C43.554,26.907,43.569,26.882,43.531,26.902"/>
	<path fill="#FFDD15" d="M47.971,29.984c0.188-0.077,0.422-0.115,0.35-0.167l-0.101-0.031
		C48.125,29.879,48.048,29.941,47.971,29.984"/>
	<polygon fill="#FFDD15" points="51.065,24.928 51.114,24.966 51.267,24.919 	"/>
	<path fill="#FFDD15" d="M50.865,25.252c-0.077-0.032-0.154-0.063-0.24-0.092C50.683,25.187,50.759,25.215,50.865,25.252"/>
	<path fill="#FFDD15" d="M50.06,25.402l0.192-0.055C49.978,25.294,50.093,25.367,50.06,25.402"/>
	<path fill="#FFDD15" d="M44.067,37.522c0.12-0.139,0.196-0.259,0.259-0.369C44.187,37.323,44.033,37.436,44.067,37.522"/>
	<path fill="#FFDD15" d="M44.494,27.438c0.067-0.05,0.086-0.079,0.076-0.096C44.503,27.39,44.464,27.426,44.494,27.438"/>
	<path fill="#FFDD15" d="M44.561,36.688l-0.062,0.076c-0.043,0.127-0.096,0.247-0.172,0.388
		C44.431,37.029,44.537,36.873,44.561,36.688"/>
	<path fill="#FFDD15" d="M39.257,40.798l-0.043,0.022C39.219,40.832,39.234,40.82,39.257,40.798"/>
	<path fill="#FFDD15" d="M33.663,42.286l0.228-0.034C33.849,42.254,33.78,42.262,33.663,42.286"/>
	<path fill="#FFDD15" d="M41.758,40.708C41.667,40.81,41.753,40.732,41.758,40.708"/>
	<path fill="#FFDD15" d="M41.054,40.906c0.01-0.026,0.02-0.05,0.01-0.067C41.068,40.863,41.063,40.885,41.054,40.906"/>
	<path fill="#FFDD15" d="M44.589,35.273l0.004-0.012C44.561,35.292,44.57,35.285,44.589,35.273"/>
	<path fill="#FFDD15" d="M41.586,40.823c0.042-0.026,0.091-0.06,0.139-0.101L41.586,40.823z"/>
	<path fill="#FFDD15" d="M41.633,40.832l-0.091,0.077C41.538,40.931,41.552,40.925,41.633,40.832"/>
	<path fill="#FFDD15" d="M41.887,40.569c-0.052,0.057-0.105,0.108-0.158,0.153c0.024-0.016,0.033-0.021,0.029-0.014L41.887,40.569z"
		/>
	<path fill="#FFDD15" d="M44.234,31.371l-0.019,0.02C44.187,31.522,44.211,31.467,44.234,31.371"/>
	<polygon fill="#FFDD15" points="50.366,27.5 50.353,27.51 50.375,27.505 	"/>
	<path fill="#FFDD15" d="M50.797,27.269c-0.162,0.17-0.268,0.203-0.421,0.237l0.236,0.172C50.673,27.544,50.73,27.403,50.797,27.269
		"/>
	<path fill="#FFDD15" d="M46.812,25.618l-0.354,0.007c0.374-0.228,0.689-0.245,0.345-0.28c0.004,0.254-1.303,0.378-1.255,0.673
		l-0.23,0.021c0.063-0.019,0.067-0.038,0.125-0.057c-0.455,0.026-0.23,0.295-0.762,0.467c-0.187,0.058-0.321,0.079-0.216-0.005
		l-0.364,0.244c-0.115,0.048-0.11-0.005,0.005-0.055c-0.196,0.101-0.388,0.209-0.58,0.324v-0.009l-0.062,0.076l0.475,0.637
		c0.048-0.091,0.11-0.208,0.153-0.273c0.144-0.072-0.043,0.072,0.01,0.072l0.215-0.271c0.154-0.031-0.024,0.197-0.201,0.343
		c0.408,0,0.159-0.242,0.8-0.526l-0.23,0.217c0.25-0.002,0.417-0.194,0.767-0.305c-0.096-0.004-0.728,0.205-0.464-0.06
		c0.1-0.042,0.216-0.11,0.355-0.263c0.052,0.079,0.206-0.043,0.407-0.17l0.053,0.12c0.206-0.16,0.158-0.206,0.263-0.328
		c0.268-0.127,0.369-0.057,0.464-0.015c0.426-0.172-0.359-0.012,0.13-0.261c0.374-0.108,0.603-0.254,1.029-0.462
		c0.273-0.032-0.023,0.088,0.082,0.095l0.201-0.161c0.058-0.012,0.048,0.022,0.043,0.039c0.188-0.082-0.015-0.132,0.292-0.23
		c0.062-0.163,0.68,0.076,1.055-0.099c0.095,0.029-0.048,0.079-0.01,0.127l0.905-0.211c0.125,0.034,0.245,0.075,0.369,0.12
		c-0.268-0.124,0.105-0.208,0.44-0.232c-0.091-0.067-0.172-0.117-0.229-0.148c0.177,0.004,0.354,0.022,0.537,0.042
		c0.057,0.039-0.011,0.065-0.106,0.097l0.106-0.005c0.162,0.098,0.047,0.139-0.097,0.172l-0.157-0.12
		c-0.145,0.048-0.273,0.112-0.26,0.191c0.034-0.011,0.097-0.011,0.168-0.004c-0.038,0.015-0.063,0.029-0.048,0.043
		c0.01,0.016,0.067,0,0.153-0.015l0.077,0.165l0.038-0.048c0.2,0.084,0.393,0.18,0.584,0.283c0.479,0.031,0.968,0.004,1.657,0.333
		c-0.239-0.017-0.162,0.103-0.277,0.177c0.01-0.146-0.44-0.182-0.781-0.362c0.178,0.097,0.11,0.132,0.063,0.13l0.623,0.183
		c-0.067,0.078,0.028,0.103,0.067,0.172c0.052-0.075,0.19-0.087,0.19,0.047c0.011,0.117-0.028,0.266-0.047,0.374
		c-0.067-0.021-0.097-0.086-0.044-0.261c-0.1,0.104-0.053,0.142-0.033,0.256c0.02,0.094,0.02,0.235-0.134,0.261
		c0.048-0.033,0.076-0.052,0.067-0.093c-0.015,0.187-0.461,0.151-0.379,0.093l0.086-0.016c-0.618,0.042-1.749,0.421-1.782,0.616
		c-0.014-0.02,0.011-0.218,0.033-0.264c-0.276,0.295-0.541,0.587-0.775,0.896c0.029-0.17-0.436-0.347-0.009-0.613
		c-0.144,0.034-0.316,0.082-0.565,0.251c0.096-0.024,0.307,0.094,0.192,0.156c-0.393,0.012-0.264,0.021-0.719,0.108
		c0.144-0.039,0.105,0.237-0.096,0.335c0.014-0.045-0.125-0.187-0.067-0.247c-0.129,0.158-0.254,0.318-0.374,0.481
		c0.096-0.112-0.077-0.174-0.221-0.158c0.072,0.002-0.421,0.273-0.526,0.388l0.23-0.101c-0.546,0.357-0.321,0.625-0.786,1.028
		c0.02-0.084-0.057-0.343-0.311-0.134c-0.034,0.191-0.072,0.845-0.321,1.31l-0.11,0.044c-0.062,0.124-0.12,0.244-0.172,0.373
		c-0.015-0.302,0.148-1.114,0.35-1.514c-0.201,0.147-0.106-0.004-0.345,0.276c-0.135,0.06,0.062-0.213,0.134-0.294
		c-0.207,0.201-0.398,0.417-0.585,0.639c0.12,0.046-0.278,0.616-0.158,0.654c0.129-0.285,0.273-0.562,0.437-0.833
		c0.119,0.06-0.048,0.642-0.364,1.125c-0.125,0.101-0.148-0.223-0.192-0.235c0,0.091-0.21,0.534-0.259,0.571
		c0.015-0.086,0.034-0.176,0.058-0.26c-0.21,0.273-0.105,0.563-0.383,0.875c-0.067,0.123-0.317,0.326-0.249,0.374
		c0.22-0.161,0.675-0.017,0.728,0.153c-0.029,0.036-0.374,0.596-0.479,0.724c-0.183,0.177-0.173-0.403-0.326-0.254
		c0.029,0.021,0.038,0.153,0.038,0.203c-0.067,0.127-0.095-0.086-0.162,0.21c0.115,0.089-0.183,0.578,0.067,0.17
		c-0.048,0.29-0.115,0.285-0.221,0.616c0.115-0.077,0.183,0.391,0.115,0.687c-0.029-0.029-0.095,0.017-0.124,0.041
		c-0.235,0.561-0.426,0.833-0.671,1.339c-0.058,0.031-0.21,0.254-0.21,0.124c-0.02,0.084-0.01,0.172-0.086,0.326
		c-0.269,0.237,0.163-0.347-0.082-0.189c0.063,0.058-0.119,0.441-0.206,0.678c0.148-0.002,0.316-0.481,0.378-0.726
		c0.148,0.076,0.11,0.546-0.139,1.102c-0.221,0.431-0.201,0.12-0.23,0.201c-0.513,0.728-0.183,0.809-0.738,1.334
		c-0.278,0.162-0.172-0.123-0.278-0.121c0.21-0.325,0.422-0.424,0.565-0.644c-0.077,0.078-0.144,0.16-0.225,0.232
		c0.043-0.117,0.167-0.345,0.278-0.441c-0.206,0.156-0.905,1.198-1.461,1.612c-0.058,0.113-0.177,0.291-0.077,0.25l0.139-0.168
		c0.201-0.082-0.206,0.379,0.02,0.209c-0.163,0.251-0.345,0.551-0.694,0.785l-0.139-0.045c0.028,0.024,0.254-0.121,0.316-0.223
		c-0.096,0.155-0.589,0.285-0.638,0.52l0.278-0.112c-0.192,0.232-0.412,0.563-0.747,0.745c0.21,0,0.057-0.063,0.364-0.101
		c-0.288,0.002,0.775-0.579,0.363-0.498c0.317-0.043,0.408-0.247,0.767-0.383c-0.034-0.022-0.145,0.031,0.105-0.173
		c0-0.017,0.015-0.05,0.024-0.072l0.02-0.012l-0.015,0.007c0.004-0.012,0.004-0.014-0.01,0.005
		c-0.066,0.039-0.124,0.065-0.158,0.065c0.058-0.167,0.408-0.52,0.489-0.675c0.138-0.123-0.02,0.088,0.081,0.045l0.116-0.234
		c0.081,0.04,0.44-0.271,0.187,0.091c0.091-0.096,0.177-0.197,0.263-0.297c0.192-0.144,0.403-0.388,0.499-0.567
		c0.129-0.137,0.192-0.443,0.158-0.269c0.105-0.18,0.206-0.36,0.301-0.544l0.024,0.007c0.345-0.51,0.527-1.138,0.978-1.691
		c0.071-0.196,0.139-0.397,0.292-0.701l0.101-0.029c0.081-0.251,0.369-0.712,0.33-0.848c0.144-0.101,0.264-0.396,0.36-0.721
		c0.101-0.343,0.158-0.694,0.239-0.879l-0.091-0.045c0.101-0.28,0.163-0.563,0.273-0.903l-0.091-0.015
		c0.058-0.326,0.407-0.709,0.67-1.126c0.01,0.048-0.066,0.144-0.133,0.213c0.464-0.388,0.603-1.114,1.102-1.404
		c0.067-0.115,0.144-0.177,0.23-0.228c-0.01,0.009-0.02,0.02-0.02,0.029l0.038-0.038l0.172-0.086
		c-0.057,0.02-0.11,0.043-0.153,0.067c0.082-0.069,0.187-0.184,0.292-0.299l0.11,0.033l0.029-0.026
		c0.139-0.064,0.067-0.11-0.043-0.115c0.053-0.062,0.096-0.12,0.129-0.175c0.192,0.053,0.297-0.291,0.532-0.242
		c0.038-0.129,0.627-0.464,0.627-0.645c0.02,0.017,0.063,0.004-0.009,0.046c0.163-0.064,0.326-0.13,0.451-0.24l0.115,0.077
		c0.095-0.108,0.192-0.206,0.287-0.309c0.245-0.026,0.345-0.022,0.172,0.156c0.46-0.34,0.393-0.22,0.8-0.508l0.006,0.082
		c0.152-0.055,0.392-0.23,0.507-0.194c0.105,0.009,0.273-0.015,0.479-0.058c0.212-0.046,0.433-0.077,0.729-0.125
		c0.412,0.005,0.748-0.387,0.872-0.756c0.077-0.196,0.124-0.405,0.135-0.604c0-0.098,0.005-0.196-0.02-0.285
		c-0.029-0.086-0.105-0.136-0.153-0.206c0,0.159-0.076,0.036-0.244-0.088c-0.082-0.065-0.168-0.134-0.249-0.183
		c-0.058-0.033-0.11-0.045-0.14-0.012c-0.028-0.074-0.144-0.167,0.029-0.134c-0.498-0.192-0.694-0.424-1.097-0.417
		c-0.039-0.071,0.138-0.033,0.101-0.084c-0.049-0.002-0.183-0.016-0.221-0.064c-0.043-0.05,0.086-0.016,0.172-0.009
		c-0.526-0.182-0.637-0.024-0.713,0.115c-0.244-0.144-0.394-0.168-0.608-0.099c-0.086-0.064-0.24-0.144,0.104-0.107
		c-0.19-0.062-1.164-0.196-1.188-0.055c-0.058-0.033-0.264-0.002-0.312,0.012c-0.426,0.015-0.464,0.007-0.877,0.077l0.116,0.002
		c-0.134,0.177-0.331,0.083-0.652,0.172v-0.017c-0.767,0.087-0.306,0.12-1.059,0.235l0.072,0.074
		c0.005,0.214-0.671,0.115-1.035,0.386l0.168-0.02c-0.182,0.163-0.724,0.046-0.954,0.151c-0.053,0.012,0.063-0.065,0.12-0.115
		c-0.618,0.215-0.015,0.148-0.403,0.416c-0.11-0.009,0.005-0.208-0.272-0.042c-0.172,0.04-0.642,0.696-1.055,0.891
		c0.115-0.024,0.221-0.045,0.077,0.127c-0.086,0.077-0.201,0.163-0.335,0.25l0.421,0.56c0.259-0.091,0.546-0.174,0.671-0.349
		c0.043-0.005,0.063,0,0.067,0.012c0.201-0.146,0.695-0.376,0.795-0.515c0.317,0.211,1.389-0.637,1.476-0.32
		c0.235-0.064,0.474-0.122,0.714-0.168l-0.015,0.033c0.47-0.055,0.623-0.134,0.781-0.223c0.11,0.015,0.034,0.048,0.024,0.062
		c0.689,0.032,0.737,0.026,1.332-0.071l0.047,0.105c0.077-0.017,0.317,0.053,0.604,0.158l0.115,0.039l0.009,0.004l0,0
		c0-1.457,0-0.404,0-0.728l0,0l0,0h-0.009l-0.005,0.002l-0.034,0.007l-0.067,0.015L50.07,25.81c-0.183,0.053-0.36,0.123-0.518,0.208
		c0-0.012,0.01-0.039,0.058-0.067c-0.718,0.355-1.921,0.541-1.997,1.018c-0.139,0.115-0.278,0.228-0.408,0.353
		c0.594-0.346,0,0.184,0.264,0.084c-0.207,0.16-0.633,0.29-0.369,0.093l0.053-0.015c-0.01-0.232-0.733,0.439-0.791,0.34
		c-1.063,0.851-1.993,1.852-2.616,2.994l0.201-0.063c-0.076,0.13-0.148,0.259-0.215,0.393c-0.082,0.091-0.173,0.093-0.024-0.194
		c-0.154,0.118-0.168,0.515-0.144,0.535c-0.297,0.548-0.058-0.29-0.134-0.118l-0.096,0.244l0.038-0.047
		c-0.024,0.217,0.029,0.258-0.115,0.61c-0.115,0.213-0.13,0.083-0.163,0.172c-0.01-0.005-0.029,0.024-0.058,0.137
		c-0.062,0.177-0.125,0.364-0.172,0.539l0.163-0.182c-0.01,0.251-0.144,0.499,0.047,0.288c-0.259,0.307-0.67,1.89-0.833,2.064
		c-0.053,0.338-0.188,0.64-0.374,1.001c0.066-0.081,0.21-0.081,0.038,0.229c-0.182-0.234-0.397,0.523-0.718,0.66
		c0.249-0.144-0.499,0.85-0.135,0.618c-0.182,0.23-0.095-0.041-0.269,0.107c-0.296,0.633-0.958,1.172-1.533,1.78
		c0.015,0.036,0.154-0.026,0.058,0.139l-0.445,0.172c-0.115,0.121,0.014,0.254-0.3,0.355c0.055-0.002,0.132-0.007,0.05,0.069
		c-0.7,0.455-1.404,0.925-2.175,1.284c-0.771,0.354-1.619,0.592-2.465,0.55c0.232,0.031,0.084,0.063-0.086,0.091
		c0.113,0,0.009,0.086,0.038,0.13c-0.242-0.015-0.479-0.026-0.718-0.058c-0.123,0.144-0.752,0.043-0.826,0.163
		c0.074-0.008,0.15-0.015,0.225-0.024c-0.304,0.155,0.431,0.316,0.4,0.505c0.33-0.185,0.958,0.18,1.495-0.167
		c0.131,0.011-0.096,0.082-0.021,0.112c0.129-0.115,0.303-0.154,0.627-0.203l-0.029,0.028c0.886-0.261,1.293-0.306,2.261-0.73
		l-0.11-0.048c0.203-0.093,0.263-0.088,0.366-0.119c0.158-0.245-0.565,0.29-0.429,0.038c0.372,0.06,1.351-0.793,1.628-0.754
		c0.273-0.213-0.144-0.024,0.13-0.237l0.105-0.009l0.024-0.113c0.178-0.137,0.317-0.154,0.355-0.123
		c-0.044,0.032-0.11,0.112-0.154,0.156c0.273-0.136,0.608-0.572,0.695-0.632l-0.268,0.206c0.661-0.678,1.456-1.525,1.849-2.354
		l-0.077,0.031c0.302-0.62,0.345-0.434,0.68-1.111v0.025c0.034-0.15,0.106-0.34,0.201-0.521c-0.038,0.194,0.25-0.278,0.192-0.029
		c0.24-0.711,0.091-0.364,0.139-0.877l0.11-0.077c0-0.179-0.019-0.204,0.091-0.558c-0.048,0.309,0.188-0.185,0.148,0.168
		c0.432-0.693,0.221-1.15,0.556-1.43c-0.091-0.402-0.307,0.62-0.288,0.411c-0.115,0.139-0.057-0.325,0.029-0.555
		c0.077-0.24,0.35-0.342,0.546-0.903c-0.024,0.055-0.009,0.064-0.029,0.122c0.12-0.194,0.082-0.44,0.263-0.666
		c-0.052-0.192,0.149-0.326,0.024-0.431l-0.182,0.526c0.077-0.307,0.019-0.661,0.345-1.087c0.009,0.05-0.024,0.208-0.048,0.313
		c0.105-0.117,0.105-0.275,0.221-0.39c0.11,0.112-0.283,0.608-0.297,0.967c0.12-0.122,0.153-0.621,0.239-0.397
		c-0.096-0.312,0.283-0.498,0.355-0.927l0.067,0.075c0.015-0.064,0.053-0.199,0.119-0.294l-0.014,0.242
		c0.091-0.328,0.421-0.46,0.565-0.733c-0.388,0.513-0.172,0.046-0.403,0.226c0.403-0.721,0.47-0.23,1.035-0.908
		c-0.077,0.095-0.354,0.287-0.259,0.122c0.139-0.109,0.316-0.25,0.426-0.283c0.417-0.416-0.129-0.009,0.015-0.222
		c0.22-0.055,0.182-0.235,0.363-0.432l0.063,0.072c0.57-0.374,0.014-0.273,0.56-0.582c-0.047,0.082-0.091,0.172-0.133,0.258
		c0.076-0.071,0.157-0.146,0.239-0.212l0.01,0.126c0.24-0.259,0.345-0.304,0.657-0.447c-0.101-0.017-0.053-0.18,0.22-0.324
		c0.211-0.048-0.062,0.134,0.317-0.082c-0.063,0.099-0.121,0.216-0.326,0.225c-0.005,0.039-0.053,0.099-0.058,0.134
		c0.225-0.048,0.493-0.25,0.638-0.312c-0.058,0.022-0.121,0.048-0.163,0.051c0.172-0.127,0.335-0.261,0.512-0.379
		c0.106-0.004,0.043,0.051-0.015,0.108c0.116-0.058,0.173-0.137,0.346-0.208c-0.02,0.089,0.019,0.155-0.202,0.292
		c0.163-0.105,0.34-0.199,0.518-0.294c0.047,0.016,0.316-0.008,0.25,0.042c0.162-0.031,0.345-0.124,0.536-0.22l0.038-0.017
		l0.02-0.007l0.01-0.005v-0.002l0,0h0.004c0,0.24-0.004-2.091-0.004-1.104l0,0h-0.01l-0.092-0.012l-0.186-0.026
		c-0.125-0.014-0.25-0.041-0.374-0.075c-0.024,0.012-0.077,0.017-0.183,0.015c-0.45-0.079-0.862-0.199-1.403-0.064l-0.317-0.118
		c-0.417,0.072,0.426,0.135-0.263,0.256c-0.479,0.11-0.201-0.093-0.374-0.104c-0.24,0.104-0.623,0.325-1.078,0.33
		C46.563,25.668,46.678,25.659,46.812,25.618 M44.982,26.864c-0.067,0.067-0.172,0.222-0.263,0.217
		C44.737,26.933,44.834,26.924,44.982,26.864 M51.698,25.297c-0.077,0.007-0.173-0.041-0.278-0.108
		C51.506,25.204,51.603,25.237,51.698,25.297 M42.692,39.558v-0.009C42.855,39.397,42.798,39.45,42.692,39.558 M42.366,39.878
		c-0.019,0.046-0.005,0.05,0.02,0.046c0-0.041,0.062-0.12,0.144-0.204C42.491,39.728,42.438,39.761,42.366,39.878 M43.109,32.408
		l0.052-0.074C43.123,32.533,43.114,32.471,43.109,32.408"/>
	<path fill="#FFDD15" d="M50.889,25.213c-0.023-0.019-0.023-0.038-0.029-0.055C50.826,25.165,50.816,25.185,50.889,25.213"/>
	<path fill="#FFDD15" d="M50.031,25.412l0.01,0.005c0.009-0.005,0.019-0.009,0.019-0.014L50.031,25.412z"/>
	<path fill="#FFDD15" d="M44.776,33.503c0.038-0.084,0.071-0.129,0.1-0.158C44.857,33.333,44.819,33.371,44.776,33.503"/>
	<path fill="#FFDD15" d="M40.733,41.67l0.215-0.203c-0.105,0.093-0.163,0.107-0.23,0.139C40.738,41.62,40.805,41.611,40.733,41.67"
		/>
	<path fill="#FFDD15" d="M38.297,42.482c-0.034,0.03-0.079,0.039-0.113,0.065l0.029,0.036C38.374,42.508,38.47,42.428,38.297,42.482
		"/>
	<path fill="#FFDD15" d="M40.326,41.584c-0.067-0.051-0.197,0.074-0.354,0.203L40,41.769C40.019,41.896,40.173,41.74,40.326,41.584"
		/>
	<path fill="#FFDD15" d="M39.938,41.819c-0.047,0.038-0.1,0.077-0.153,0.105C39.789,41.972,39.856,41.894,39.938,41.819"/>
	<path fill="#FFDD15" d="M42.021,40.344c-0.082,0.055,0.033,0.115-0.029,0.132C41.998,40.628,42.337,39.915,42.021,40.344"/>
	<polygon fill="#FFDD15" points="40.038,41.465 40.153,41.505 40.192,41.373 	"/>
	<path fill="#FFDD15" d="M41.284,40.523l-0.254,0.194c0.015,0.01-0.004,0.044-0.038,0.084C41.14,40.671,41.308,40.538,41.284,40.523
		"/>
	<path fill="#FFDD15" d="M40.992,40.801c-0.082,0.062-0.154,0.127-0.187,0.177C40.848,40.942,40.939,40.861,40.992,40.801"/>
	<path fill="#FFDD15" d="M40.364,41.182l0.086-0.043l0.172-0.134C40.537,41.069,40.451,41.125,40.364,41.182"/>
	<path fill="#FFDD15" d="M43.415,37.881l0.159-0.309c-0.015-0.048-0.077,0.024-0.134,0.139
		C43.415,37.795,43.363,37.91,43.415,37.881"/>
	<path fill="#FFDD15" d="M42.615,38.595c0.072-0.064,0.097-0.055,0.154-0.079l-0.096-0.079L42.615,38.595z"/>
	<path fill="#FFDD15" d="M43.143,37.756c-0.01-0.047,0.168-0.469-0.048-0.1C43.104,37.702,42.956,38.008,43.143,37.756"/>
	<polygon fill="#FFDD15" points="45.265,33.094 45.236,33.175 45.433,33.229 	"/>
	<path fill="#FFDD15" d="M47.54,28.998c-0.364,0.239,0,0.159-0.33,0.369c-0.043,0.104,0.272-0.172,0.22-0.072
		C47.588,29.084,47.717,29.026,47.54,28.998"/>
	<path fill="#FFDD15" d="M47.43,29.294l-0.076,0.108C47.396,29.345,47.42,29.313,47.43,29.294"/>
	<polygon fill="#FFDD15" points="32.738,42.243 32.486,42.209 32.649,42.271 	"/>
	<path fill="#FFDD15" d="M32.254,42.396l-0.057-0.129l-0.156,0.112C32.098,42.377,32.21,42.367,32.254,42.396"/>
	<path fill="#FFDD15" d="M45.7,26.706V26.67c-0.053-0.01-0.105,0.019-0.201,0.074L45.7,26.706z"/>
	<polygon fill="#FFDD15" points="44.728,26.195 44.666,26.217 44.824,26.279 	"/>
	<path fill="#FFDD15" d="M47.722,25.199c-0.134,0.012-0.278,0.064-0.412,0.079C47.588,25.208,47.775,25.338,47.722,25.199"/>
	<path fill="#404041" d="M88.085,42.621c-0.469-0.642-1.369-0.783-2.013-0.314c-1.753,1.282-3.897,2.086-6.154,2.518
		c-2.256,0.437-4.623,0.534-6.994,0.448c-4.757-0.165-9.537-1.005-14.279-2.021c-0.6-0.123-1.17-0.259-1.83-0.379
		c-0.643-0.11-1.294-0.179-1.95-0.201c-1.308-0.048-2.615,0.093-3.87,0.405c-2.525,0.618-4.786,1.931-6.721,3.517
		c-1.945,1.59-3.598,3.465-5.035,5.468c-1.437,2.007-2.683,4.134-3.672,6.377c1.214-2.123,2.637-4.111,4.194-5.97
		c0.786-0.92,1.61-1.804,2.486-2.63c0.867-0.831,1.787-1.604,2.754-2.294c1.936-1.382,4.091-2.421,6.348-2.864
		c1.126-0.218,2.275-0.28,3.405-0.18c0.57,0.05,1.131,0.139,1.687,0.264c0.537,0.124,1.14,0.302,1.734,0.455
		c2.385,0.618,4.785,1.174,7.219,1.633c2.434,0.458,4.9,0.826,7.406,0.979c2.505,0.146,5.053,0.11,7.606-0.321
		c1.337-0.228,2.684-0.577,3.986-1.083l-2.238,6.606c-1.14,3.334-2.271,6.678-3.371,10.021l-3.315,10.042
		c-0.987,2.941-1.926,5.905-2.884,8.861c-1.61-0.407-3.209-0.775-4.828-1.121c-2.031-0.431-4.077-0.805-6.132-1.141
		c-4.101-0.68-8.23-1.197-12.393-1.408c-4.153-0.229-8.35-0.182-12.488,0.45c-2.064,0.313-4.113,0.806-6.065,1.553
		c-1.944,0.752-3.808,1.812-5.262,3.286c1.601-1.316,3.5-2.155,5.447-2.74c1.954-0.58,3.978-0.872,6.004-1.054
		c2.031-0.172,4.072-0.201,6.112-0.135c2.041,0.068,4.077,0.211,6.108,0.427c2.036,0.216,4.057,0.504,6.079,0.818
		c2.021,0.317,4.033,0.687,6.036,1.094c2.007,0.402,4.005,0.861,5.993,1.34c1.982,0.476,3.979,0.988,5.916,1.544
		c0.68,0.2,1.408-0.173,1.638-0.848l0.01-0.016c1.149-3.333,2.328-6.653,3.454-9.992l3.396-10.012
		c1.14-3.334,2.246-6.678,3.353-10.026l3.319-10.038l0.011-0.026C88.43,43.488,88.368,43.007,88.085,42.621"/>
</g>
</svg>
