<?xml version="1.0" encoding="utf-8"?>
<!-- Generator: Adobe Illustrator 16.0.0, SVG Export Plug-In . SVG Version: 6.00 Build 0)  -->
<!DOCTYPE svg PUBLIC "-//W3C//DTD SVG 1.1//EN" "http://www.w3.org/Graphics/SVG/1.1/DTD/svg11.dtd">
<svg version="1.1" id="Layer_1" xmlns="http://www.w3.org/2000/svg" xmlns:xlink="http://www.w3.org/1999/xlink" x="0px" y="0px"
	 width="100px" height="100px" viewBox="0 0 100 100" enable-background="new 0 0 100 100" xml:space="preserve">
<g>
	<path fill="#231F20" d="M30.991,60.648c0.832,0.431,1.985,1.314,2.97,4.668c0.488,1.788,1.625,5.16,2.102,7.598
		c0.263,1.352-0.068,1.162-0.153,1.702c1.149,3.293,2.3,6.585,3.45,9.881c0.141,0.384-0.085,1.028-0.61,1.191
		c-0.528,0.164-1.077-0.243-1.182-0.638c-0.879-3.248-1.755-6.496-2.634-9.745c-0.682-1.432-1.667-3.505-2.534-6.104
		C30.556,63.385,29.62,59.93,30.991,60.648z M38.617,85.281c0.186-0.058,0.302-0.216,0.355-0.384
		c-0.283-0.053-0.525-0.259-0.597-0.477c-1.001-2.934-2.006-5.871-3.006-8.808c0.004,0.04,0.008,0.076,0.021,0.116
		c0.839,3.055,1.674,6.108,2.513,9.163C37.963,85.135,38.298,85.381,38.617,85.281z M32.702,69.104
		c0.122,0.363,0.243,0.711,0.363,1.054c-0.089-0.314-0.178-0.637-0.258-0.973c-0.428-1.855-1.432-6.206-0.928-6.621
		c0,0,0.049,0,0.158,0.048c0.233,0.106,0.483,0.247,0.73,0.457c-0.669-1.327-1.355-1.844-1.925-2.143
		c-0.112-0.057-0.161-0.057-0.161-0.057C30.258,61.398,31.968,66.797,32.702,69.104z"/>
	<path fill="#231F20" d="M65.093,64.15c-0.521-1.349,0,0,0.005,0c-0.005-0.012-2.454-6.346-2.604-6.303
		c-0.148,0.045,1.082,3.776,1.853,6.367l-0.432,0.129c-0.94-2.542-2.199-6.262-2.349-6.222c-0.146,0.05,0.965,3.813,1.65,6.428
		l-0.428,0.129c-0.859-2.562-1.997-6.322-2.146-6.277c-0.149,0.043,0.839,3.849,1.44,6.487l-0.432,0.129
		c-0.775-2.59-1.792-6.384-1.937-6.339c-0.149,0.045,0.988,5.286,1.275,6.694c0.254,1.227,1.311,2.243,2.477,2.203
		c1.344,5.173,2.683,10.348,4.026,15.521c0.102,0.412,0.666,0.841,1.215,0.675c0.549-0.161,0.791-0.831,0.649-1.231
		c-1.71-5.063-3.421-10.127-5.128-15.19C65.23,66.766,65.586,65.437,65.093,64.15z M68.587,83.343
		c-0.193,0.057-0.383-0.012-0.524-0.125c0.21-0.209,0.303-0.528,0.238-0.749c-0.831-3.111-1.658-6.215-2.49-9.321
		c0.017,0.032,0.037,0.068,0.049,0.108c1.041,3.116,2.082,6.229,3.119,9.346C69.063,82.843,68.918,83.246,68.587,83.343z
		 M63.746,67.213c-0.565,0.134-1.042-0.065-1.34-0.255c-0.558-0.355-0.977-0.967-1.114-1.645l-0.197-0.938
		c0.076,0.255,0.314,1.058,0.314,1.058l1.041-0.312c0,0-0.193-0.847-0.263-1.129c0.089,0.275,0.367,1.098,0.367,1.098l1.037-0.308
		c0,0-0.214-0.813-0.286-1.081c0.097,0.263,0.387,1.05,0.387,1.05l1.038-0.308c0,0-0.25-0.847-0.336-1.126
		c0.058,0.154,0.117,0.308,0.178,0.46c0.041,0.113,0.102,0.271,0.189,0.497c0.036,0.098,0.069,0.194,0.098,0.294l-3.079,0.917
		c0.201,0.472,0.528,0.884,0.933,1.149c0.286,0.194,0.746,0.4,1.286,0.274c0.263-0.097,0.484-0.254,0.666-0.46
		C64.452,66.809,64.141,67.071,63.746,67.213z"/>
	<g>
		<g>
			<path fill="#006838" d="M66.393,72.349c-0.033-0.005-0.057-0.028-0.053-0.057c0-0.056-0.004-0.109-0.013-0.152l0,0
				c-0.008-0.065-0.028-0.13-0.048-0.189c-0.028-0.081-0.064-0.158-0.097-0.218c-0.021-0.033-0.04-0.066-0.057-0.093
				c-0.077-0.118-0.161-0.194-0.246-0.227c-0.028-0.013-0.041-0.045-0.032-0.073c0.012-0.027-0.424-0.352-0.5-0.423
				c-0.005-0.005-0.009-0.009-0.009-0.009c-0.004-0.012-0.008-0.017-0.012-0.02c-0.008-0.005-0.013-0.012-0.017-0.017
				c-0.008,0-0.052-0.028-0.25-0.045c-0.263-0.017-0.589,0.085-0.629,0.138c-0.005,0.005-0.008,0.009-0.017,0.012
				c-0.012,0.009-0.023,0.012-0.04,0.021c-0.517,0.351-0.73,0.689-0.622,1.007v0.005c0,0,0.005,0,0.005,0.005
				c0.02,0.057,0.052,0.116,0.092,0.168c0.021,0.028,0.041,0.054,0.058,0.078c0.02,0.023,0.016,0.057-0.009,0.076
				c-0.023,0.017-0.057,0.017-0.077-0.008c-0.02-0.028-0.04-0.052-0.056-0.08c-0.033-0.041-0.057-0.081-0.077-0.121
				c-0.137,0.164-0.133,0.387,0.013,0.685c0.004,0.005,0.004,0.008,0.004,0.008c0.004,0.005,0.004,0.005,0.004,0.009
				c0.008,0.012,0.017,0.024,0.023,0.036c0.009,0.017,0.021,0.033,0.025,0.045c0.017,0.031,0.036,0.06,0.061,0.093
				c0.036,0.044,0.076,0.097,0.129,0.153c0.121,0.121,0.25,0.197,0.375,0.229c0.004,0,0.016,0.003,0.028,0.008
				c0.146,0.024,0.21,0,0.242-0.023c0.016-0.013,0.028-0.033,0.032-0.058c-0.098-0.072-0.178-0.153-0.254-0.246
				c-0.036-0.048-0.068-0.092-0.105-0.145l-0.036-0.053c-0.016-0.023-0.012-0.061,0.017-0.077c0.023-0.015,0.057-0.012,0.072,0.014
				l0.036,0.055c0.037,0.05,0.069,0.095,0.101,0.138c0.077,0.093,0.161,0.175,0.259,0.246l0,0c0.189,0.138,0.403,0.211,0.649,0.23
				c0.045,0,0.089,0.009,0.129,0C66.533,73.269,66.393,72.349,66.393,72.349z"/>
		</g>
		<g>
			<path fill="#006838" d="M58.456,75.964c0.952-0.076,1.965-0.319,3.025-0.729c2.15-0.832,3.753-2.066,3.821-2.118l-1.149-1.481
				c-0.053,0.044-5.62,4.284-9.099,1.578l-1.154,1.48C55.163,75.673,56.709,76.097,58.456,75.964z"/>
		</g>
	</g>
	<g>
		<g>
			<path fill="#006838" d="M34.921,77.332c0.025-0.02,0.033-0.058,0.013-0.081c-0.033-0.045-0.057-0.093-0.077-0.138l0,0
				c-0.032-0.063-0.052-0.128-0.069-0.193c-0.024-0.084-0.037-0.169-0.04-0.242c-0.004-0.04-0.004-0.081-0.008-0.112
				c0.004-0.149,0.028-0.263,0.085-0.339c0.016-0.028,0.012-0.061-0.016-0.082c-0.024-0.015,0.169-0.548,0.189-0.652
				c0.004-0.009,0.004-0.017,0.004-0.021c0-0.008,0-0.012,0-0.02c0-0.009,0.004-0.017,0.004-0.017
				c0.008-0.012,0.028-0.061,0.193-0.187c0.214-0.169,0.557-0.266,0.622-0.249c0.004,0.004,0.012,0.004,0.02,0.004
				c0.016,0,0.032-0.004,0.044-0.009c0.659,0.009,1.033,0.183,1.126,0.517c-0.004,0,0,0.005,0,0.005v0.004
				c0.016,0.064,0.021,0.133,0.016,0.205c0,0.037-0.004,0.065-0.008,0.097c0,0.028,0.025,0.057,0.057,0.062
				c0.028,0.004,0.057-0.021,0.057-0.053c0.003-0.032,0.008-0.068,0.008-0.102c0-0.052,0-0.1-0.004-0.149
				c0.214,0.064,0.339,0.259,0.384,0.602c0,0.005,0,0.008,0,0.013c0,0,0,0.004,0,0.007c0.004,0.013,0.004,0.028,0.004,0.045
				c0,0.021,0,0.036,0.003,0.053c0.005,0.037,0,0.073,0,0.113c-0.003,0.06-0.012,0.128-0.024,0.209
				c-0.032,0.175-0.097,0.314-0.189,0.416c-0.004,0.003-0.012,0.008-0.02,0.02c-0.113,0.106-0.186,0.121-0.222,0.121
				c-0.025-0.003-0.045-0.012-0.065-0.031c0.04-0.118,0.069-0.234,0.077-0.359c0.008-0.061,0.008-0.121,0.008-0.186v-0.068
				c0.004-0.028-0.02-0.057-0.053-0.057c-0.032,0-0.056,0.023-0.061,0.057v0.068c0,0.06,0,0.121-0.008,0.173
				c-0.012,0.126-0.036,0.247-0.081,0.367l0,0c-0.084,0.226-0.226,0.412-0.432,0.569c-0.037,0.028-0.068,0.061-0.109,0.076
				C35.329,78.211,34.921,77.332,34.921,77.332z"/>
		</g>
		<g>
			<path fill="#006838" d="M43.391,78.57c-0.949,0.109-1.989,0.069-3.111-0.13c-2.275-0.398-4.083-1.299-4.16-1.334l0.839-1.675
				c0.06,0.032,6.347,3.11,9.236-0.223l1.412,1.231C46.561,77.646,45.129,78.364,43.391,78.57z"/>
		</g>
	</g>
	<g>
		<path fill="#006838" d="M85.827,41.681c-0.955,5.826-17.829,7.9-37.692,4.64c-19.863-3.259-35.187-10.619-34.227-16.445
			c0.953-5.822,17.826-7.9,37.689-4.636C71.456,28.495,86.784,35.859,85.827,41.681z"/>
		<radialGradient id="SVGID_1_" cx="49.8657" cy="35.7803" r="15.6339" gradientUnits="userSpaceOnUse">
			<stop  offset="0.1212" style="stop-color:#D6DE23"/>
			<stop  offset="0.4545" style="stop-color:#8BC53F"/>
			<stop  offset="0.7455" style="stop-color:#009345"/>
			<stop  offset="1" style="stop-color:#00411D"/>
		</radialGradient>
		<path fill="url(#SVGID_1_)" d="M70.802,39.216c-0.557,3.39-10.381,4.6-21.945,2.704c-11.563-1.9-20.479-6.186-19.927-9.575
			c0.557-3.394,10.382-4.6,21.945-2.703C62.435,31.542,71.354,35.827,70.802,39.216z"/>
		<path fill="#BE1E2D" d="M13.908,29.875c0.953-5.822,17.826-7.9,37.689-4.636c17.353,2.844,31.239,8.824,33.834,14.174
			c0.009-0.037,0.021-0.068,0.028-0.109c1.158-7.064-14.004-15.433-33.862-18.693c-19.864-3.26-36.902-0.178-38.06,6.892
			c-0.149,0.903-0.024,1.832,0.339,2.768C13.88,30.142,13.885,30.009,13.908,29.875z"/>
		<path fill="#006838" d="M51.598,20.612c3.264,0.537,6.394,1.21,9.352,1.993c0.149-6.834-3.61-12.584-8.929-13.213
			c-5.124-0.609-9.95,3.736-11.6,10.023C43.975,19.587,47.731,19.975,51.598,20.612z"/>
		<path fill="#BE1E2D" d="M60.828,40.721c0.274-2.328,0.642-5.398,0.694-8.428c-3.059-1.074-6.698-2.001-10.647-2.651
			c-3.608-0.593-7.049-0.88-10.091-0.896c-0.21,0.173-0.416,0.339-0.63,0.521c-24.305,20.395,6.564,56.429,24.301,60.201
			c0,0,5.52,2.103,1.82-2.234C50.686,66.563,59.444,52.345,60.828,40.721z"/>
		<path fill="#231F20" d="M49.37,36.226c0,0,0.089-0.096,0.282-0.229c0.194-0.141,0.48-0.303,0.856-0.456
			c0.367-0.146,0.818-0.291,1.314-0.363c0.497-0.084,1.038-0.101,1.582-0.052c0.271,0.024,0.536,0.077,0.803,0.137
			c0.263,0.044,0.509,0.165,0.75,0.238c0.473,0.205,0.881,0.459,1.194,0.722c0.308,0.27,0.529,0.517,0.654,0.718
			c0.138,0.19,0.201,0.303,0.201,0.303s-0.124-0.057-0.326-0.162c-0.19-0.116-0.488-0.237-0.819-0.395
			c-0.169-0.065-0.354-0.134-0.549-0.206c-0.201-0.057-0.407-0.117-0.621-0.182c-0.44-0.089-0.899-0.201-1.38-0.226
			c-0.473-0.061-0.956-0.061-1.412-0.061c-0.46,0-0.888,0.037-1.267,0.057C49.89,36.129,49.37,36.226,49.37,36.226z"/>
		<path fill="#231F20" d="M37.411,35.605c0,0,0.092-0.097,0.282-0.23c0.198-0.141,0.484-0.299,0.855-0.456
			c0.371-0.146,0.818-0.291,1.319-0.363c0.496-0.085,1.037-0.102,1.582-0.053c0.271,0.025,0.537,0.081,0.799,0.138
			c0.267,0.044,0.508,0.166,0.75,0.242c0.476,0.202,0.884,0.456,1.194,0.719c0.307,0.27,0.533,0.517,0.658,0.718
			c0.133,0.193,0.197,0.302,0.197,0.302s-0.121-0.056-0.323-0.162c-0.194-0.117-0.488-0.238-0.818-0.391
			c-0.169-0.065-0.355-0.133-0.553-0.209c-0.198-0.057-0.403-0.117-0.617-0.182c-0.444-0.089-0.899-0.202-1.38-0.226
			c-0.476-0.061-0.96-0.061-1.416-0.061s-0.887,0.036-1.263,0.061C37.935,35.512,37.411,35.605,37.411,35.605z"/>
		<path fill="#231F20" d="M52.537,44.945c0,0,0.032,0.068,0.093,0.206c0.024,0.061,0.057,0.137,0.093,0.225
			c0.021,0.061,0.044,0.129,0.068,0.203c0.032,0.133,0.21,0.439,0.339,0.718c0.165,0.294,0.335,0.638,0.561,1
			c0.864,1.465,2.22,3.377,3.878,5.043c0.818,0.851,1.727,1.602,2.627,2.279c0.459,0.303,0.907,0.625,1.355,0.889
			c0.451,0.241,0.879,0.495,1.295,0.696c0.424,0.183,0.812,0.349,1.158,0.497c0.351,0.154,0.67,0.219,0.932,0.307
			c0.528,0.161,0.831,0.251,0.831,0.251s-0.314,0.028-0.867,0.076c-0.278,0.012-0.625,0.072-1.018,0.061
			c-0.395-0.012-0.843-0.021-1.335-0.037c-0.488-0.031-1.013-0.112-1.585-0.181c-0.565-0.085-1.146-0.229-1.768-0.359
			c-1.206-0.323-2.501-0.747-3.74-1.299c-2.501-1.081-4.829-2.571-6.492-3.851c-0.424-0.311-0.791-0.637-1.134-0.906
			c-0.343-0.312-0.602-0.505-0.892-0.812c-0.468-0.48-0.738-0.755-0.738-0.755c-1.504-1.533-1.48-3.99,0.052-5.495
			c1.533-1.501,3.991-1.477,5.492,0.057C52.085,44.106,52.355,44.521,52.537,44.945z"/>
		<path fill="#231F20" d="M42.862,48.221c0,0-0.303,0.234-0.839,0.642c-0.334,0.262-0.613,0.415-1,0.673
			c-0.375,0.223-0.787,0.488-1.251,0.735c-1.828,1.029-4.345,2.163-6.976,2.873c-1.308,0.372-2.651,0.602-3.894,0.751
			c-0.629,0.036-1.227,0.097-1.8,0.1c-0.572-0.016-1.105-0.016-1.597-0.047c-0.484-0.062-0.928-0.114-1.323-0.162
			c-0.387-0.044-0.726-0.153-0.997-0.205c-0.541-0.126-0.852-0.199-0.852-0.199s0.315-0.048,0.864-0.128
			c0.27-0.053,0.597-0.069,0.968-0.171c0.359-0.095,0.771-0.204,1.214-0.322c0.44-0.14,0.9-0.33,1.384-0.504
			c0.481-0.193,0.969-0.451,1.469-0.686c0.988-0.54,1.993-1.154,2.925-1.876c1.88-1.408,3.502-3.106,4.563-4.434
			c0.278-0.323,0.492-0.642,0.701-0.908c0.166-0.254,0.388-0.532,0.436-0.662c0.037-0.068,0.069-0.133,0.097-0.189
			c0.048-0.081,0.092-0.154,0.129-0.21c0.076-0.125,0.117-0.194,0.117-0.194c1.126-1.828,3.514-2.4,5.342-1.275
			c1.827,1.122,2.4,3.514,1.278,5.342C43.563,47.58,43.229,47.939,42.862,48.221z"/>
		<g>
			<g>
				<polygon fill="#FFFFFF" points="16.6,25.772 18,23.609 20.203,25.001 				"/>
				<polygon fill="#FFFFFF" points="23.544,23.605 25.323,21.435 27.538,23.207 				"/>
				<polygon fill="#FFFFFF" points="30.911,22.823 33.074,20.636 35.305,22.794 				"/>
				<polygon fill="#FFFFFF" points="38.569,22.843 41.111,20.648 43.357,23.19 				"/>
				<polygon fill="#FFFFFF" points="46.372,23.433 49.293,21.226 51.553,24.15 				"/>
			</g>
			<polygon fill="#FFFFFF" points="79.998,33.733 79.219,31.276 76.729,32.03 			"/>
			<polygon fill="#FFFFFF" points="73.521,30.355 72.38,27.786 69.773,28.911 			"/>
			<polygon fill="#FFFFFF" points="66.622,27.641 65.117,24.961 62.394,26.45 			"/>
			<polygon fill="#FFFFFF" points="59.234,25.631 57.367,22.839 54.526,24.691 			"/>
		</g>
	</g>
</g>
</svg>
