<?xml version="1.0" encoding="utf-8"?>
<!-- Generator: Adobe Illustrator 18.1.0, SVG Export Plug-In . SVG Version: 6.00 Build 0)  -->
<svg version="1.1" id="Layer_1" xmlns="http://www.w3.org/2000/svg" xmlns:xlink="http://www.w3.org/1999/xlink" x="0px" y="0px"
	 viewBox="0 0 150 150" enable-background="new 0 0 150 150" xml:space="preserve">
<g>
	<g>
		<rect x="72" y="116" fill="#333333" width="10" height="19"/>
	</g>
	<g>
		<ellipse fill="#333333" cx="77.1" cy="139.2" rx="21.4" ry="2.9"/>
	</g>
	<g>
		<g>
			<path fill="#00A99D" d="M45.8,81.6c-1.7,0.9-4.8,2.6-7.3,3.1C41,84.2,44.1,82.6,45.8,81.6z"/>
		</g>
		<g>
			<path fill="#00A99D" d="M61.8,18.9c1.7-3.3,3.4-6.6,5.1-9.8c-2.6,0.6-5.2,1.4-7.6,2.6C60.3,15.5,61.3,18.7,61.8,18.9z"/>
		</g>
		<g>
			<path fill="#524996" d="M35.8,85.1l1.6-0.2c-0.8-1.4-2.2-3.8-2.2-6v-3.3c0-4.7,3.3-11.4,4.8-15.1c0.8-2.1,5.6-12,6.6-13.1v-0.4
				c0-2.3-0.6-5-0.5-7.2c0-1.9-0.1-5.5-0.4-7.4c-0.3-2.8-0.4-6.4-0.4-9.9c-5.6,6.9-9.3,15.9-10.1,25.7h-0.7
				c-5.7,0-10.4,4.2-10.5,9.4c-0.2,1.9-1,14.1,3.9,26.6c1.4,0.4,2.9,0.8,4.8,0.8L35.8,85.1z"/>
		</g>
		<g>
			<path fill="#00A99D" d="M83.9,18.8c0,4.5,0.6,7.5,1.4,11c0.3,1.2,1.3,3.2,1.9,4.3c0.9,1.5,2.2,2.4,2.8,3.3c2.1-1.4,7-6.6,9.1-8.6
				c1.7-1.7,3.5-3.2,5.4-4.8C99.3,17.1,92.2,12,84.2,9.7c-0.2,2-0.4,4.1-0.4,6.4V18.8z"/>
		</g>
		<g>
			<path fill="#00A99D" d="M66.8,31.5c-0.7-1.3-1.3-2.6-1.9-3.9c-0.9-1.9-1.6-4.3-2.4-6.3c0.8,2.1,1.5,4.4,2.4,6.3
				C65.5,29,66.1,30.3,66.8,31.5z"/>
		</g>
		<g>
			<path fill="#F99C1C" d="M76.5,109.5v-0.5l-0.2,0.4l-3.8-0.4h-0.2c-2.7-0.2-5.7-0.9-8.5-0.9c-1.9,0-6.5-0.6-8.5-0.9
				c-2.7-0.4-5.2-0.7-7.6-1.2c10.3,5.2,25.5,9.4,40.1,5.5c0.3-0.1,0.6-0.1,0.9-0.2c-0.5-0.1-1.1-0.2-1.6-0.3
				C84,110.5,79.4,109.5,76.5,109.5z"/>
		</g>
		<g>
			<path fill="#00A99D" d="M100.7,84.4c-1,0.7-8.4,5.7-8.7,5.7l-0.2,0.4c-0.5,2.1-1.3,3.8-1.3,6.5v0.5c0,5.2,3,8.8,6.5,11.2
				c6-2.4,11.1-6,15.2-10.6c7.6-8.4,10.7-18.8,11.8-26.9c-4.8,2.5-9.7,5.1-14.3,7.7C106.8,80.7,103.6,82.4,100.7,84.4z"/>
		</g>
		<g>
			<path fill="#00A99D" d="M79.7,48c-0.4-0.5-1.9-1.7-2.8-2.5C77.8,46.3,79.3,47.5,79.7,48z"/>
		</g>
		<g>
			<path fill="#00A99D" d="M63.8,108c2.8,0,5.7,0.7,8.5,0.9c-1.4-2.1-4.3-4.7-6-7c-1.9-2.5-3.6-4.9-5.4-7.6
				c-1.7-2.6-3.1-5.5-4.6-8.4c-0.8-1.5-3.5-8.8-3.9-9.3c-2.2,1.5-4.1,3.6-6.7,5.1c-1.7,1-4.8,2.6-7.3,3.1c-0.4,0.1-0.7,0.1-1,0.2
				l-1.6,0.2l-2.9,0c-1.9,0-3.4-0.3-4.8-0.8c1.9,4.8,4.6,9.5,8.4,13.8c2.1,2.3,6,5.2,11.2,7.8c2.4,0.4,5,0.7,7.6,1.2
				C57.3,107.4,61.9,108,63.8,108z"/>
		</g>
		<g>
			<path fill="#F6C812" d="M63.8,108c2.8,0,5.7,0.7,8.5,0.9c-1.4-2.1-4.3-4.7-6-7c-1.9-2.5-3.6-4.9-5.4-7.6
				c-1.7-2.6-3.1-5.5-4.6-8.4c-0.8-1.5-3.5-8.8-3.9-9.3c-2.2,1.5-4.1,3.6-6.7,5.1c-1.7,1-4.8,2.6-7.3,3.1c-0.4,0.1-0.7,0.1-1,0.2
				l-1.6,0.2l-2.9,0c-1.9,0-3.4-0.3-4.8-0.8c1.9,4.8,4.6,9.5,8.4,13.8c2.1,2.3,6,5.2,11.2,7.8c2.4,0.4,5,0.7,7.6,1.2
				C57.3,107.4,61.9,108,63.8,108z"/>
		</g>
		<g>
			<path fill="#00A99D" d="M82.9,50.4c2.6,1.6,6.3,3.4,8.7,4.3C89.2,53.8,85.6,52,82.9,50.4z"/>
		</g>
		<g>
			<g>
				<defs>
					<path id="SVGID_1_" d="M82.9,50.4c2.6,1.6,6.3,3.4,8.7,4.3C89.2,53.8,85.6,52,82.9,50.4z"/>
				</defs>
				<clipPath id="SVGID_2_">
					<use xlink:href="#SVGID_1_"  overflow="visible"/>
				</clipPath>
				<rect x="82.9" y="50.4" clip-path="url(#SVGID_2_)" fill="#F7C246" width="8.7" height="0.2"/>
				<rect x="82.9" y="50.5" clip-path="url(#SVGID_2_)" fill="#F7C248" width="8.7" height="0.7"/>
				<rect x="82.9" y="51.2" clip-path="url(#SVGID_2_)" fill="#F8C349" width="8.7" height="0.7"/>
				<rect x="82.9" y="51.9" clip-path="url(#SVGID_2_)" fill="#F9C44A" width="8.7" height="0.7"/>
				<rect x="82.9" y="52.6" clip-path="url(#SVGID_2_)" fill="#F9C44C" width="8.7" height="0.7"/>
				<rect x="82.9" y="53.2" clip-path="url(#SVGID_2_)" fill="#F9C54D" width="8.7" height="0.7"/>
				<rect x="82.9" y="53.9" clip-path="url(#SVGID_2_)" fill="#F9C64E" width="8.7" height="0.7"/>
				<rect x="82.9" y="54.6" clip-path="url(#SVGID_2_)" fill="#F9C750" width="8.7" height="0.1"/>
			</g>
		</g>
		<g>
			<path fill="#00A99D" d="M90.5,97.5V97c0-2.7,0.8-4.4,1.3-6.5c-4.1,2.2-15.4,12.5-15.4,18.4v0.5c3,0.1,7.6,1,10.5,1.6
				c0.6,0.1,1.1,0.2,1.6,0.3c3-0.6,5.8-1.5,8.4-2.6C93.6,106.3,90.5,102.8,90.5,97.5z"/>
		</g>
		<g>
			<path fill="#E32626" d="M90.5,97.5V97c0-2.7,0.8-4.4,1.3-6.5c-4.1,2.2-15.4,12.5-15.4,18.4v0.5c3,0.1,7.6,1,10.5,1.6
				c0.6,0.1,1.1,0.2,1.6,0.3c3-0.6,5.8-1.5,8.4-2.6C93.6,106.3,90.5,102.8,90.5,97.5z"/>
		</g>
		<g>
			<polygon fill="#00A99D" points="90,37.4 79.9,48 79.9,48 			"/>
		</g>
		<g>
			<g>
				<defs>
					<polygon id="SVGID_3_" points="90,37.4 79.9,48 79.9,48 					"/>
				</defs>
				<clipPath id="SVGID_4_">
					<use xlink:href="#SVGID_3_"  overflow="visible"/>
				</clipPath>
				<polygon clip-path="url(#SVGID_4_)" fill="#EC9F33" points="81.3,37.4 79.9,40.5 79.9,37.4 				"/>
				<polygon clip-path="url(#SVGID_4_)" fill="#ECA033" points="83.3,37.4 79.9,45 79.9,40.5 81.3,37.4 				"/>
				<polygon clip-path="url(#SVGID_4_)" fill="#EDA134" points="85.3,37.4 80.5,48 79.9,48 79.9,45 83.3,37.4 				"/>
				<polygon clip-path="url(#SVGID_4_)" fill="#EDA235" points="87.2,37.4 82.5,48 80.5,48 85.3,37.4 				"/>
				<polygon clip-path="url(#SVGID_4_)" fill="#EEA435" points="89.2,37.4 84.5,48 82.5,48 87.2,37.4 				"/>
				<polygon clip-path="url(#SVGID_4_)" fill="#EEA436" points="90,40 86.4,48 84.5,48 89.2,37.4 90,37.4 				"/>
				<polygon clip-path="url(#SVGID_4_)" fill="#EEA538" points="90,44.5 88.4,48 86.4,48 90,40 				"/>
				<polygon clip-path="url(#SVGID_4_)" fill="#EEA638" points="88.4,48 90,44.5 90,48 				"/>
			</g>
		</g>
		<g>
			<path fill="#00A99D" d="M90,37.4L79.9,48c0.4,0.6,1.6,1.4,3,2.3c2.6,1.6,6.3,3.4,8.7,4.3c0.5,0.2,1,0.4,1.4,0.5
				c5.3,1.5,10.5,3,17.3,3l6.7-9.5c-0.9-0.2-1.8-0.3-2.7-0.3h-0.7c-0.7-9.3-4-17.7-9-24.4c-1.8,1.6-3.7,3.1-5.4,4.8
				C97,30.8,92.1,36,90,37.4z"/>
		</g>
		<g>
			<g>
				<defs>
					<path id="SVGID_5_" d="M90,37.4L79.9,48c0.4,0.6,1.6,1.4,3,2.3c2.6,1.6,6.3,3.4,8.7,4.3c0.5,0.2,1,0.4,1.4,0.5
						c5.3,1.5,10.5,3,17.3,3l6.7-9.5c-0.9-0.2-1.8-0.3-2.7-0.3h-0.7c-0.7-9.3-4-17.7-9-24.4c-1.8,1.6-3.7,3.1-5.4,4.8
						C97,30.8,92.1,36,90,37.4z"/>
				</defs>
				<clipPath id="SVGID_6_">
					<use xlink:href="#SVGID_5_"  overflow="visible"/>
				</clipPath>
				<rect x="79.9" y="23.9" clip-path="url(#SVGID_6_)" fill="#F3AF23" width="37" height="2.3"/>
				<rect x="79.9" y="26.2" clip-path="url(#SVGID_6_)" fill="#F3AF23" width="37" height="0.7"/>
				<rect x="79.9" y="26.9" clip-path="url(#SVGID_6_)" fill="#F3AF23" width="37" height="0.7"/>
				<rect x="79.9" y="27.5" clip-path="url(#SVGID_6_)" fill="#F3B024" width="37" height="0.7"/>
				<rect x="79.9" y="28.2" clip-path="url(#SVGID_6_)" fill="#F3B025" width="37" height="0.7"/>
				<rect x="79.9" y="28.9" clip-path="url(#SVGID_6_)" fill="#F3B025" width="37" height="0.7"/>
				<rect x="79.9" y="29.6" clip-path="url(#SVGID_6_)" fill="#F3B126" width="37" height="0.7"/>
				<rect x="79.9" y="30.2" clip-path="url(#SVGID_6_)" fill="#F3B127" width="37" height="0.7"/>
				<rect x="79.9" y="30.9" clip-path="url(#SVGID_6_)" fill="#F4B227" width="37" height="0.7"/>
				<rect x="79.9" y="31.6" clip-path="url(#SVGID_6_)" fill="#F4B228" width="37" height="0.7"/>
				<rect x="79.9" y="32.3" clip-path="url(#SVGID_6_)" fill="#F5B229" width="37" height="0.7"/>
				<rect x="79.9" y="33" clip-path="url(#SVGID_6_)" fill="#F5B22A" width="37" height="0.7"/>
				<rect x="79.9" y="33.6" clip-path="url(#SVGID_6_)" fill="#F4B42B" width="37" height="0.7"/>
				<rect x="79.9" y="34.3" clip-path="url(#SVGID_6_)" fill="#F4B42B" width="37" height="0.7"/>
				<rect x="79.9" y="35" clip-path="url(#SVGID_6_)" fill="#F4B42D" width="37" height="0.7"/>
				<rect x="79.9" y="35.7" clip-path="url(#SVGID_6_)" fill="#F4B42E" width="37" height="0.7"/>
				<rect x="79.9" y="36.3" clip-path="url(#SVGID_6_)" fill="#F5B52E" width="37" height="0.7"/>
				<rect x="79.9" y="37" clip-path="url(#SVGID_6_)" fill="#F5B530" width="37" height="0.7"/>
				<rect x="79.9" y="37.7" clip-path="url(#SVGID_6_)" fill="#F5B731" width="37" height="0.7"/>
				<rect x="79.9" y="38.4" clip-path="url(#SVGID_6_)" fill="#F5B632" width="37" height="0.7"/>
				<rect x="79.9" y="39" clip-path="url(#SVGID_6_)" fill="#F5B833" width="37" height="0.7"/>
				<rect x="79.9" y="39.7" clip-path="url(#SVGID_6_)" fill="#F5B834" width="37" height="0.7"/>
				<rect x="79.9" y="40.4" clip-path="url(#SVGID_6_)" fill="#F4B835" width="37" height="0.7"/>
				<rect x="79.9" y="41.1" clip-path="url(#SVGID_6_)" fill="#F5BA36" width="37" height="0.7"/>
				<rect x="79.9" y="41.7" clip-path="url(#SVGID_6_)" fill="#F5B938" width="37" height="0.7"/>
				<rect x="79.9" y="42.4" clip-path="url(#SVGID_6_)" fill="#F6BB39" width="37" height="0.7"/>
				<rect x="79.9" y="43.1" clip-path="url(#SVGID_6_)" fill="#F6BB3A" width="37" height="0.7"/>
				<rect x="79.9" y="43.8" clip-path="url(#SVGID_6_)" fill="#F6BB3B" width="37" height="0.7"/>
				<rect x="79.9" y="44.4" clip-path="url(#SVGID_6_)" fill="#F6BC3C" width="37" height="0.7"/>
				<rect x="79.9" y="45.1" clip-path="url(#SVGID_6_)" fill="#F6BC3D" width="37" height="0.7"/>
				<rect x="79.9" y="45.8" clip-path="url(#SVGID_6_)" fill="#F6BE3E" width="37" height="0.7"/>
				<rect x="79.9" y="46.5" clip-path="url(#SVGID_6_)" fill="#F7BF40" width="37" height="0.7"/>
				<rect x="79.9" y="47.1" clip-path="url(#SVGID_6_)" fill="#F7BF41" width="37" height="0.7"/>
				<rect x="79.9" y="47.8" clip-path="url(#SVGID_6_)" fill="#F7BF42" width="37" height="0.7"/>
				<rect x="79.9" y="48.5" clip-path="url(#SVGID_6_)" fill="#F7C043" width="37" height="0.7"/>
				<rect x="79.9" y="49.2" clip-path="url(#SVGID_6_)" fill="#F7C045" width="37" height="0.7"/>
				<rect x="79.9" y="49.9" clip-path="url(#SVGID_6_)" fill="#F7C246" width="37" height="0.7"/>
				<rect x="79.9" y="50.5" clip-path="url(#SVGID_6_)" fill="#F7C248" width="37" height="0.7"/>
				<rect x="79.9" y="51.2" clip-path="url(#SVGID_6_)" fill="#F8C349" width="37" height="0.7"/>
				<rect x="79.9" y="51.9" clip-path="url(#SVGID_6_)" fill="#F9C44A" width="37" height="0.7"/>
				<rect x="79.9" y="52.6" clip-path="url(#SVGID_6_)" fill="#F9C44C" width="37" height="0.7"/>
				<rect x="79.9" y="53.2" clip-path="url(#SVGID_6_)" fill="#F9C54D" width="37" height="0.7"/>
				<rect x="79.9" y="53.9" clip-path="url(#SVGID_6_)" fill="#F9C64E" width="37" height="0.7"/>
				<rect x="79.9" y="54.6" clip-path="url(#SVGID_6_)" fill="#F9C750" width="37" height="0.7"/>
				<rect x="79.9" y="55.3" clip-path="url(#SVGID_6_)" fill="#FAC751" width="37" height="0.7"/>
				<rect x="79.9" y="55.9" clip-path="url(#SVGID_6_)" fill="#FAC852" width="37" height="0.7"/>
				<rect x="79.9" y="56.6" clip-path="url(#SVGID_6_)" fill="#FAC953" width="37" height="0.7"/>
				<rect x="79.9" y="57.3" clip-path="url(#SVGID_6_)" fill="#FAC953" width="37" height="0.7"/>
				<rect x="79.9" y="58" clip-path="url(#SVGID_6_)" fill="#FBCA55" width="37" height="0.2"/>
			</g>
		</g>
		<g>
			<path fill="#6CC284" d="M90,37.4L79.9,48c0.4,0.6,1.6,1.4,3,2.3c2.6,1.6,6.3,3.4,8.7,4.3c0.5,0.2,1,0.4,1.4,0.5
				c5.3,1.5,10.5,3,17.3,3l6.7-9.5c-0.9-0.2-1.8-0.3-2.7-0.3h-0.7c-0.7-9.3-4-17.7-9-24.4c-1.8,1.6-3.7,3.1-5.4,4.8
				C97,30.8,92.1,36,90,37.4z"/>
		</g>
		<g>
			<path fill="#97C944" d="M110.2,58.3v-0.2c-6.8,0-11.9-1.5-17.3-3c-0.4-0.1-0.9-0.3-1.4-0.5c-2.4-0.9-6-2.7-8.7-4.3
				c-1.5-0.9-2.6-1.7-3-2.3h-0.2c-0.9,1.4-5.2,5.7-6.6,7.1c-2.3,2.3-4.3,4.8-6.6,7.1c-2.3,2.3-4.3,4.9-6.6,7.1
				c-1.3,1.3-6.2,5.8-6.9,6.8h-0.5v0.4c0.4,0.5,3.2,7.8,3.9,9.3c1.5,2.9,2.9,5.8,4.6,8.4c1.8,2.7,3.5,5.1,5.4,7.6c1.7,2.3,4.6,5,6,7
				h0.2l3.8,0.4l0.2-0.4c0-5.9,11.2-16.2,15.4-18.4l0.2-0.4l1.1-2.9C93.9,83.7,108.3,59.7,110.2,58.3z"/>
		</g>
		<g>
			<path fill="#36B2C0" d="M82.9,50.4c-1.5-0.9-2.6-1.7-3-2.3h0C80.3,48.6,81.5,49.5,82.9,50.4z"/>
		</g>
		<g>
			<path fill="#00A99D" d="M50.5,69.5c-0.5-2.3-1.1-4.8-1.6-7.1c-0.3-1.5-2.1-14.8-2.2-15c-1,1.1-5.7,11.1-6.6,13.1
				c-1.5,3.6-4.8,10.4-4.8,15.1v3.3c0,2.1,1.4,4.5,2.2,6c0.3,0,0.7-0.1,1-0.2c2.5-0.5,5.6-2.1,7.3-3.1c2.6-1.5,4.5-3.6,6.7-5.1v-0.4
				C52,74.1,50.9,71.6,50.5,69.5z"/>
		</g>
		<g>
			<path fill="#EA3A3D" d="M50.5,69.5c-0.5-2.3-1.1-4.8-1.6-7.1c-0.3-1.5-2.1-14.8-2.2-15c-1,1.1-5.7,11.1-6.6,13.1
				c-1.5,3.6-4.8,10.4-4.8,15.1v3.3c0,2.1,1.4,4.5,2.2,6c0.3,0,0.7-0.1,1-0.2c2.5-0.5,5.6-2.1,7.3-3.1c2.6-1.5,4.5-3.6,6.7-5.1v-0.4
				C52,74.1,50.9,71.6,50.5,69.5z"/>
		</g>
		<g>
			<path fill="#00A99D" d="M61.6,19.3c0.3,0.6,0.6,1.3,0.8,2c0.8,2.1,1.5,4.4,2.4,6.3c0.6,1.4,1.3,2.7,1.9,3.9
				c0.7,1.3,1.4,2.5,2.1,3.8c1.1,2,2.3,3.5,3.6,5.2c0.4,0.5,0.8,1.1,1.3,1.7c0.7,1,1.9,2.2,2.8,3c0.1,0.1,0.2,0.2,0.3,0.3
				c0.9,0.8,2.4,2,2.8,2.5h0.2L90,37.4c-0.6-0.9-1.9-1.8-2.8-3.3c-0.6-1-1.6-3-1.9-4.3c-0.9-3.6-1.4-6.5-1.4-11v-2.7
				c0-2.2,0.1-4.3,0.4-6.4c-3.1-0.9-6.4-1.4-9.8-1.4c-2.5,0-5,0.3-7.4,0.8c-1.7,3.3-3.4,6.6-5.1,9.8L61.6,19.3z"/>
		</g>
		<g>
			<path fill="#4FB84D" d="M61.6,19.3c0.3,0.6,0.6,1.3,0.8,2c0.8,2.1,1.5,4.4,2.4,6.3c0.6,1.4,1.3,2.7,1.9,3.9
				c0.7,1.3,1.4,2.5,2.1,3.8c1.1,2,2.3,3.5,3.6,5.2c0.4,0.5,0.8,1.1,1.3,1.7c0.7,1,1.9,2.2,2.8,3c0.1,0.1,0.2,0.2,0.3,0.3
				c0.9,0.8,2.4,2,2.8,2.5h0.2L90,37.4c-0.6-0.9-1.9-1.8-2.8-3.3c-0.6-1-1.6-3-1.9-4.3c-0.9-3.6-1.4-6.5-1.4-11v-2.7
				c0-2.2,0.1-4.3,0.4-6.4c-3.1-0.9-6.4-1.4-9.8-1.4c-2.5,0-5,0.3-7.4,0.8c-1.7,3.3-3.4,6.6-5.1,9.8L61.6,19.3z"/>
		</g>
		<g>
			<path fill="#00A99D" d="M110.2,58.3l14.4-0.6c0,0,0,0,0-0.1c-0.1-4.3-3.4-7.9-7.8-9l-6.7,9.5V58.3z"/>
		</g>
		<g>
			<g>
				<defs>
					<path id="SVGID_7_" d="M110.2,58.3l14.4-0.6c0,0,0,0,0-0.1c-0.1-4.3-3.4-7.9-7.8-9l-6.7,9.5V58.3z"/>
				</defs>
				<clipPath id="SVGID_8_">
					<use xlink:href="#SVGID_7_"  overflow="visible"/>
				</clipPath>
				<polygon clip-path="url(#SVGID_8_)" fill="#0379B2" points="110.2,55.6 110.7,58.3 110.2,58.3 				"/>
				<polygon clip-path="url(#SVGID_8_)" fill="#0379B2" points="110.2,52.2 111.3,58.3 110.7,58.3 110.2,55.6 				"/>
				<polygon clip-path="url(#SVGID_8_)" fill="#0679B3" points="110.2,48.8 111.9,58.3 111.3,58.3 110.2,52.2 				"/>
				<polygon clip-path="url(#SVGID_8_)" fill="#097AB3" points="110.8,48.7 112.5,58.3 111.9,58.3 110.2,48.8 110.2,48.7 				"/>
				<polygon clip-path="url(#SVGID_8_)" fill="#077AB4" points="111.4,48.7 113.1,58.3 112.5,58.3 110.8,48.7 				"/>
				<polygon clip-path="url(#SVGID_8_)" fill="#0A7BB4" points="112,48.7 113.7,58.3 113.1,58.3 111.4,48.7 				"/>
				<polygon clip-path="url(#SVGID_8_)" fill="#0A7BB4" points="112.6,48.7 114.3,58.3 113.7,58.3 112,48.7 				"/>
				<polygon clip-path="url(#SVGID_8_)" fill="#0B7CB5" points="113.2,48.7 114.9,58.3 114.3,58.3 112.6,48.7 				"/>
				<polygon clip-path="url(#SVGID_8_)" fill="#107DB4" points="113.8,48.7 115.5,58.3 114.9,58.3 113.2,48.7 				"/>
				<polygon clip-path="url(#SVGID_8_)" fill="#107DB4" points="114.4,48.7 116.1,58.3 115.5,58.3 113.8,48.7 				"/>
				<polygon clip-path="url(#SVGID_8_)" fill="#107EB6" points="115,48.7 116.7,58.3 116.1,58.3 114.4,48.7 				"/>
				<polygon clip-path="url(#SVGID_8_)" fill="#107EB6" points="115.6,48.7 117.3,58.3 116.7,58.3 115,48.7 				"/>
				<polygon clip-path="url(#SVGID_8_)" fill="#127FB6" points="116.2,48.7 117.9,58.3 117.3,58.3 115.6,48.7 				"/>
				<polygon clip-path="url(#SVGID_8_)" fill="#1480B6" points="116.8,48.7 118.5,58.3 117.9,58.3 116.2,48.7 				"/>
				<polygon clip-path="url(#SVGID_8_)" fill="#1480B6" points="117.4,48.7 119.1,58.3 118.5,58.3 116.8,48.7 				"/>
				<polygon clip-path="url(#SVGID_8_)" fill="#1580B7" points="118,48.7 119.7,58.3 119.1,58.3 117.4,48.7 				"/>
				<polygon clip-path="url(#SVGID_8_)" fill="#1681B8" points="118.6,48.7 120.3,58.3 119.7,58.3 118,48.7 				"/>
				<polygon clip-path="url(#SVGID_8_)" fill="#1681B8" points="119.2,48.7 120.9,58.3 120.3,58.3 118.6,48.7 				"/>
				<polygon clip-path="url(#SVGID_8_)" fill="#1782B9" points="119.8,48.7 121.5,58.3 120.9,58.3 119.2,48.7 				"/>
				<polygon clip-path="url(#SVGID_8_)" fill="#1A83B9" points="120.4,48.7 122.1,58.3 121.5,58.3 119.8,48.7 				"/>
				<polygon clip-path="url(#SVGID_8_)" fill="#1883B9" points="121,48.7 122.7,58.3 122.1,58.3 120.4,48.7 				"/>
				<polygon clip-path="url(#SVGID_8_)" fill="#1A84BA" points="121.6,48.7 123.3,58.3 122.7,58.3 121,48.7 				"/>
				<polygon clip-path="url(#SVGID_8_)" fill="#1D84BA" points="122.2,48.7 123.9,58.3 123.3,58.3 121.6,48.7 				"/>
				<polygon clip-path="url(#SVGID_8_)" fill="#1C85B9" points="122.8,48.7 124.5,58.3 123.9,58.3 122.2,48.7 				"/>
				<polygon clip-path="url(#SVGID_8_)" fill="#1E85BB" points="123.4,48.7 124.7,55.7 124.7,58.3 124.5,58.3 122.8,48.7 				"/>
				<polygon clip-path="url(#SVGID_8_)" fill="#1F87BB" points="124,48.7 124.7,52.3 124.7,55.7 123.4,48.7 				"/>
				<polygon clip-path="url(#SVGID_8_)" fill="#1E87BA" points="124.6,48.7 124.7,48.9 124.7,52.3 124,48.7 				"/>
				<polygon clip-path="url(#SVGID_8_)" fill="#2187BC" points="124.7,48.9 124.6,48.7 124.7,48.7 				"/>
			</g>
		</g>
		<g>
			<path fill="#00A99D" d="M124.8,61.1L93.1,87.2L92,90.1c0.3-0.1,7.7-5.1,8.7-5.7c2.9-2,6.1-3.7,9.2-5.5c4.6-2.7,9.4-5.2,14.3-7.7
				C124.7,67.1,124.8,63.5,124.8,61.1z"/>
		</g>
		<g>
			<g>
				<defs>
					<path id="SVGID_9_" d="M124.8,61.1L93.1,87.2L92,90.1c0.3-0.1,7.7-5.1,8.7-5.7c2.9-2,6.1-3.7,9.2-5.5c4.6-2.7,9.4-5.2,14.3-7.7
						C124.7,67.1,124.8,63.5,124.8,61.1z"/>
				</defs>
				<clipPath id="SVGID_10_">
					<use xlink:href="#SVGID_9_"  overflow="visible"/>
				</clipPath>
				<polygon clip-path="url(#SVGID_10_)" fill="#ABCD5D" points="92,89.7 92.2,90.1 92,90.1 				"/>
				<polygon clip-path="url(#SVGID_10_)" fill="#ACCC5E" points="92,82.9 96.2,90.1 92.2,90.1 92,89.7 				"/>
				<polygon clip-path="url(#SVGID_10_)" fill="#ACCE5F" points="92,77.3 92.6,77 99.3,88.7 96.8,90.1 96.2,90.1 92,82.9 				"/>
				
					<rect x="95.7" y="75.2" transform="matrix(-0.866 0.5 -0.5 -0.866 222.781 104.2852)" clip-path="url(#SVGID_10_)" fill="#ADCE60" width="3.4" height="13.5"/>
				
					<rect x="98.7" y="73.5" transform="matrix(-0.866 0.5 -0.5 -0.866 227.4688 99.5974)" clip-path="url(#SVGID_10_)" fill="#ADCE61" width="3.4" height="13.5"/>
				
					<rect x="101.6" y="71.8" transform="matrix(-0.866 0.5 -0.5 -0.866 232.1566 94.9097)" clip-path="url(#SVGID_10_)" fill="#AECE63" width="3.4" height="13.5"/>
				
					<rect x="104.6" y="70.1" transform="matrix(-0.866 0.5 -0.5 -0.866 236.8444 90.2219)" clip-path="url(#SVGID_10_)" fill="#AFCF63" width="3.4" height="13.5"/>
				
					<rect x="107.6" y="68.4" transform="matrix(-0.866 0.5 -0.5 -0.866 241.5322 85.5341)" clip-path="url(#SVGID_10_)" fill="#B0CF64" width="3.4" height="13.5"/>
				
					<rect x="110.6" y="66.7" transform="matrix(-0.866 0.5 -0.5 -0.866 246.22 80.8463)" clip-path="url(#SVGID_10_)" fill="#B1CF66" width="3.4" height="13.5"/>
				
					<rect x="113.5" y="64.9" transform="matrix(-0.866 0.5 -0.5 -0.866 250.9077 76.1585)" clip-path="url(#SVGID_10_)" fill="#B1CF67" width="3.4" height="13.5"/>
				
					<rect x="116.5" y="63.2" transform="matrix(-0.866 0.5 -0.5 -0.866 255.5955 71.4707)" clip-path="url(#SVGID_10_)" fill="#B2D168" width="3.4" height="13.5"/>
				<polygon clip-path="url(#SVGID_10_)" fill="#B3D16A" points="116.3,63.3 119.3,61.6 124.8,71.1 124.8,74 123.1,75 				"/>
				<polygon clip-path="url(#SVGID_10_)" fill="#B4D16C" points="119.3,61.6 120.1,61.1 123,61.1 124.8,64.3 124.8,71.1 				"/>
				<polygon clip-path="url(#SVGID_10_)" fill="#B4D26D" points="124.8,64.3 123,61.1 124.8,61.1 				"/>
			</g>
		</g>
		<g>
			<path fill="#00A99D" d="M45.7,32.5c0.2,1.9,0.4,5.5,0.4,7.4c0,2.3,0.5,5,0.5,7.2l15-27.8l0.2-0.4c-0.5-0.2-1.5-3.4-2.5-7.3
				c-5.4,2.5-10.1,6.3-14,11C45.4,26.1,45.4,29.7,45.7,32.5z"/>
		</g>
		<g>
			<path fill="#FAA821" d="M45.7,32.5c0.2,1.9,0.4,5.5,0.4,7.4c0,2.3,0.5,5,0.5,7.2l15-27.8l0.2-0.4c-0.5-0.2-1.5-3.4-2.5-7.3
				c-5.4,2.5-10.1,6.3-14,11C45.4,26.1,45.4,29.7,45.7,32.5z"/>
		</g>
		<g>
			<path fill="#00A99D" d="M50.5,69.5c0.5,2.1,1.5,4.6,2,6.7H53c0.7-1,5.6-5.5,6.9-6.8c2.3-2.3,4.3-4.9,6.6-7.1
				c2.3-2.3,4.3-4.9,6.6-7.1c1.4-1.4,5.7-5.7,6.6-7.1c-0.4-0.5-1.9-1.7-2.8-2.5c-0.1-0.1-0.2-0.2-0.3-0.3c-0.8-0.9-2.1-2.1-2.8-3
				c-0.4-0.6-0.9-1.1-1.3-1.7c-1.3-1.6-2.5-3.2-3.6-5.2c-0.7-1.3-1.4-2.5-2.1-3.8c-0.7-1.3-1.3-2.6-1.9-3.9
				c-0.9-1.9-1.6-4.3-2.4-6.3c-0.3-0.7-0.5-1.4-0.8-2l-15,27.8v0.4c0.1,0.1,1.9,13.4,2.2,15C49.3,64.7,49.9,67.2,50.5,69.5z"/>
		</g>
		<g>
			<path fill="#3490CE" d="M50.5,69.5c0.5,2.1,1.5,4.6,2,6.7H53c0.7-1,5.6-5.5,6.9-6.8c2.3-2.3,4.3-4.9,6.6-7.1
				c2.3-2.3,4.3-4.9,6.6-7.1c1.4-1.4,5.7-5.7,6.6-7.1c-0.4-0.5-1.9-1.7-2.8-2.5c-0.1-0.1-0.2-0.2-0.3-0.3c-0.8-0.9-2.1-2.1-2.8-3
				c-0.4-0.6-0.9-1.1-1.3-1.7c-1.3-1.6-2.5-3.2-3.6-5.2c-0.7-1.3-1.4-2.5-2.1-3.8c-0.7-1.3-1.3-2.6-1.9-3.9
				c-0.9-1.9-1.6-4.3-2.4-6.3c-0.3-0.7-0.5-1.4-0.8-2l-15,27.8v0.4c0.1,0.1,1.9,13.4,2.2,15C49.3,64.7,49.9,67.2,50.5,69.5z"/>
		</g>
		<g>
			<path fill="#00A99D" d="M73.8,42.2c0.7,1,1.9,2.2,2.8,3C75.7,44.3,74.5,43.1,73.8,42.2z"/>
		</g>
		<g>
			<g>
				<defs>
					<path id="SVGID_11_" d="M73.8,42.2c0.7,1,1.9,2.2,2.8,3C75.7,44.3,74.5,43.1,73.8,42.2z"/>
				</defs>
				<clipPath id="SVGID_12_">
					<use xlink:href="#SVGID_11_"  overflow="visible"/>
				</clipPath>
				<polygon clip-path="url(#SVGID_12_)" fill="#2C91C1" points="73.8,43.1 74.2,45.2 73.8,45.2 				"/>
				<polygon clip-path="url(#SVGID_12_)" fill="#2E92C1" points="74.2,42.2 74.7,45.2 74.2,45.2 73.8,43.1 73.8,42.2 				"/>
				<polygon clip-path="url(#SVGID_12_)" fill="#2E92C1" points="74.7,42.2 75.2,45.2 74.7,45.2 74.2,42.2 				"/>
				<polygon clip-path="url(#SVGID_12_)" fill="#3093C2" points="75.1,42.2 75.7,45.2 75.2,45.2 74.7,42.2 				"/>
				<polygon clip-path="url(#SVGID_12_)" fill="#3193C2" points="75.6,42.2 76.2,45.2 75.7,45.2 75.1,42.2 				"/>
				<polygon clip-path="url(#SVGID_12_)" fill="#3294C2" points="76.1,42.2 76.6,44.7 76.6,45.2 76.2,45.2 75.6,42.2 				"/>
				<polygon clip-path="url(#SVGID_12_)" fill="#3395C4" points="76.6,44.7 76.1,42.2 76.6,42.2 				"/>
			</g>
		</g>
		<g>
			<g>
				<defs>
					<path id="SVGID_13_" d="M73.8,42.2c0.7,1,1.9,2.2,2.8,3C75.7,44.3,74.5,43.1,73.8,42.2z"/>
				</defs>
				<clipPath id="SVGID_14_">
					<use xlink:href="#SVGID_13_"  overflow="visible"/>
				</clipPath>
				<rect x="73.8" y="42.2" clip-path="url(#SVGID_14_)" fill="#E53894" width="2.8" height="0.2"/>
				<rect x="73.8" y="42.4" clip-path="url(#SVGID_14_)" fill="#E53A94" width="2.8" height="0.6"/>
				<rect x="73.8" y="43" clip-path="url(#SVGID_14_)" fill="#E43B94" width="2.8" height="0.6"/>
				<rect x="73.8" y="43.6" clip-path="url(#SVGID_14_)" fill="#E43B94" width="2.8" height="0.6"/>
				<rect x="73.8" y="44.2" clip-path="url(#SVGID_14_)" fill="#E43C95" width="2.8" height="0.6"/>
				<rect x="73.8" y="44.8" clip-path="url(#SVGID_14_)" fill="#E43C95" width="2.8" height="0.4"/>
			</g>
		</g>
		<g>
			<path fill="#00A99D" d="M72.5,40.5c-1.3-1.6-2.5-3.2-3.6-5.2c-0.7-1.3-1.4-2.5-2.1-3.8c0.7,1.3,1.4,2.5,2.1,3.8
				C70.1,37.3,71.3,38.8,72.5,40.5z"/>
		</g>
		<g>
			<g>
				<defs>
					<path id="SVGID_15_" d="M72.5,40.5c-1.3-1.6-2.5-3.2-3.6-5.2c-0.7-1.3-1.4-2.5-2.1-3.8c0.7,1.3,1.4,2.5,2.1,3.8
						C70.1,37.3,71.3,38.8,72.5,40.5z"/>
				</defs>
				<clipPath id="SVGID_16_">
					<use xlink:href="#SVGID_15_"  overflow="visible"/>
				</clipPath>
				<polygon clip-path="url(#SVGID_16_)" fill="#238ABD" points="66.8,40.1 66.9,40.5 66.8,40.5 				"/>
				<polygon clip-path="url(#SVGID_16_)" fill="#228ABC" points="66.8,37.3 67.4,40.5 66.9,40.5 66.8,40.1 				"/>
				<polygon clip-path="url(#SVGID_16_)" fill="#248ABE" points="66.8,34.5 67.9,40.5 67.4,40.5 66.8,37.3 				"/>
				<polygon clip-path="url(#SVGID_16_)" fill="#268CBD" points="66.8,31.7 68.4,40.5 67.9,40.5 66.8,34.5 				"/>
				<polygon clip-path="url(#SVGID_16_)" fill="#268CBD" points="67.3,31.5 68.9,40.5 68.4,40.5 66.8,31.7 66.8,31.5 				"/>
				<polygon clip-path="url(#SVGID_16_)" fill="#278CBE" points="67.8,31.5 69.4,40.5 68.9,40.5 67.3,31.5 				"/>
				<polygon clip-path="url(#SVGID_16_)" fill="#288DBE" points="68.3,31.5 69.9,40.5 69.4,40.5 67.8,31.5 				"/>
				<polygon clip-path="url(#SVGID_16_)" fill="#288DBE" points="68.8,31.5 70.4,40.5 69.9,40.5 68.3,31.5 				"/>
				<polygon clip-path="url(#SVGID_16_)" fill="#2A8EBF" points="69.3,31.5 70.9,40.5 70.4,40.5 68.8,31.5 				"/>
				<polygon clip-path="url(#SVGID_16_)" fill="#2A8EBF" points="69.8,31.5 71.4,40.5 70.9,40.5 69.3,31.5 				"/>
				<polygon clip-path="url(#SVGID_16_)" fill="#2A8FC0" points="70.3,31.5 71.9,40.5 71.4,40.5 69.8,31.5 				"/>
				<polygon clip-path="url(#SVGID_16_)" fill="#2C90C0" points="70.8,31.5 72.4,40.5 71.9,40.5 70.3,31.5 				"/>
				<polygon clip-path="url(#SVGID_16_)" fill="#2C90C0" points="71.3,31.5 72.5,38.7 72.5,40.5 72.4,40.5 70.8,31.5 				"/>
				<polygon clip-path="url(#SVGID_16_)" fill="#2C91C1" points="71.8,31.5 72.5,35.8 72.5,38.7 71.3,31.5 				"/>
				<polygon clip-path="url(#SVGID_16_)" fill="#2E92C1" points="72.3,31.5 72.5,33 72.5,35.8 71.8,31.5 				"/>
				<polygon clip-path="url(#SVGID_16_)" fill="#2E92C1" points="72.5,33 72.3,31.5 72.5,31.5 				"/>
			</g>
		</g>
		<g>
			<g>
				<defs>
					<path id="SVGID_17_" d="M72.5,40.5c-1.3-1.6-2.5-3.2-3.6-5.2c-0.7-1.3-1.4-2.5-2.1-3.8c0.7,1.3,1.4,2.5,2.1,3.8
						C70.1,37.3,71.3,38.8,72.5,40.5z"/>
				</defs>
				<clipPath id="SVGID_18_">
					<use xlink:href="#SVGID_17_"  overflow="visible"/>
				</clipPath>
				<rect x="66.8" y="31.5" clip-path="url(#SVGID_18_)" fill="#E5278F" width="5.7" height="0.2"/>
				<rect x="66.8" y="31.8" clip-path="url(#SVGID_18_)" fill="#E62990" width="5.7" height="0.6"/>
				<rect x="66.8" y="32.3" clip-path="url(#SVGID_18_)" fill="#E62990" width="5.7" height="0.6"/>
				<rect x="66.8" y="32.9" clip-path="url(#SVGID_18_)" fill="#E62B90" width="5.7" height="0.6"/>
				<rect x="66.8" y="33.5" clip-path="url(#SVGID_18_)" fill="#E62B90" width="5.7" height="0.6"/>
				<rect x="66.8" y="34.1" clip-path="url(#SVGID_18_)" fill="#E62D91" width="5.7" height="0.6"/>
				<rect x="66.8" y="34.7" clip-path="url(#SVGID_18_)" fill="#E62D91" width="5.7" height="0.6"/>
				<rect x="66.8" y="35.3" clip-path="url(#SVGID_18_)" fill="#E62F91" width="5.7" height="0.6"/>
				<rect x="66.8" y="35.9" clip-path="url(#SVGID_18_)" fill="#E63092" width="5.7" height="0.6"/>
				<rect x="66.8" y="36.5" clip-path="url(#SVGID_18_)" fill="#E53092" width="5.7" height="0.6"/>
				<rect x="66.8" y="37.1" clip-path="url(#SVGID_18_)" fill="#E53292" width="5.7" height="0.6"/>
				<rect x="66.8" y="37.7" clip-path="url(#SVGID_18_)" fill="#E53292" width="5.7" height="0.6"/>
				<rect x="66.8" y="38.3" clip-path="url(#SVGID_18_)" fill="#E53492" width="5.7" height="0.6"/>
				<rect x="66.8" y="38.9" clip-path="url(#SVGID_18_)" fill="#E53492" width="5.7" height="0.6"/>
				<rect x="66.8" y="39.5" clip-path="url(#SVGID_18_)" fill="#E53593" width="5.7" height="0.6"/>
				<rect x="66.8" y="40.1" clip-path="url(#SVGID_18_)" fill="#E53593" width="5.7" height="0.4"/>
			</g>
		</g>
		<g>
			<path fill="#00A99D" d="M93.1,87.2l31.7-26.2c0-1.6-0.1-2.8-0.1-3.3l-14.4,0.6C108.3,59.7,93.9,83.7,93.1,87.2z"/>
		</g>
		<g>
			<path fill="#4E499E" d="M93.1,87.2l31.7-26.2c0-1.6-0.1-2.8-0.1-3.3l-14.4,0.6C108.3,59.7,93.9,83.7,93.1,87.2z"/>
		</g>
	</g>
</g>
</svg>
