<?xml version="1.0" encoding="iso-8859-1"?>
<!-- Generator: Adobe Illustrator 13.0.0, SVG Export Plug-In . SVG Version: 6.00 Build 14948)  -->
<!DOCTYPE svg PUBLIC "-//W3C//DTD SVG 1.1//EN" "http://www.w3.org/Graphics/SVG/1.1/DTD/svg11.dtd">
<svg version="1.1" id="Layer_1" xmlns="http://www.w3.org/2000/svg" xmlns:xlink="http://www.w3.org/1999/xlink" x="0px" y="0px"
	 width="100px" height="100px" viewBox="0 0 100 100" enable-background="new 0 0 100 100" xml:space="preserve">
<g>
	<path fill="#8E462C" d="M53.864,59.176h10.693c0,0-6.393-10.697-7.33-12.519c-0.938-1.818-6.507-4.411-8.993,2.536
		c-1.594-2.973-0.163-6.229,2.262-6.229c2.426,0,9.486,0,9.486,0l-2.152,3.53l1.655,2.923l5.625-9.156H49.784
		c0,0-6.84,1.408-1.917,9.038c-7.076-1.678-3.394-6.723-3.102-7.011c0.289-0.289,3.637-6.29,3.637-6.29l2.027,3.561h3.558
		l-5.25-9.267L41,43.813c0,0-1.613,6.332,6.909,5.671c-1.989,3.186-5.337,3.186-6.662,0.911c-1.321-2.277-4.384-7.82-4.384-7.82
		h4.013l1.697-2.976H31.9c0,0,6.97,12.015,7.486,12.823c0.516,0.801,5.356,4.729,8.811-2.813c1.655,3.185-0.083,6.179-2.129,6.179
		c-2.38,0-9.578,0-9.578,0l2.114-3.537l-1.697-2.972l-5.546,9.22c0,0,14.539,0,15.139,0s6.821-2.004,1.985-8.974
		c3.705,0.353,5.128,3.018,3.971,5.253c-1.157,2.229-4.548,8.021-4.548,8.021l-1.864-3.641h-3.64l5.253,9.346l7.774-13.479
		c0,0,1.762-6.412-6.969-5.793c1.636-2.482,4.859-3.473,6.351-1.158c1.487,2.319,4.966,8.23,4.966,8.23h-4.222L53.864,59.176z"/>
	<g>
		<g>
			<path fill="#DA802E" d="M23.367,76.235V25.03H74.58v50.396v0.809H23.367L23.367,76.235z M73.768,75.427v-0.805V75.427
				L73.768,75.427z M24.988,74.622h47.971V26.64H24.988V74.622L24.988,74.622z"/>
		</g>
		<g>
			<path fill="#DA802E" d="M12.761,50.631l36.21-36.21l35.641,35.641l-0.569,0.569l0.569-0.569l0.573,0.569L48.971,86.846
				L12.761,50.631L12.761,50.631z M15.046,50.631l33.925,33.926L82.9,50.631L48.971,16.709L15.046,50.631L15.046,50.631z"/>
		</g>
	</g>
</g>
</svg>
