<?xml version="1.0" encoding="utf-8"?>
<!-- Generator: Adobe Illustrator 18.1.0, SVG Export Plug-In . SVG Version: 6.00 Build 0)  -->
<svg version="1.1" id="Layer_1" xmlns="http://www.w3.org/2000/svg" xmlns:xlink="http://www.w3.org/1999/xlink" x="0px" y="0px"
	 viewBox="0 0 150 150" enable-background="new 0 0 150 150" xml:space="preserve">
<g>
	<path fill="#0081C3" d="M101.3,20.6L101.3,20.6l8.6-7.3L38,14l8.8,7.6C26.4,32,12.3,53.3,12.3,77.7c0,34.7,28.2,62.9,62.9,62.9
		c34.7,0,62.9-28.2,62.9-62.9C138,52.4,122.9,30.5,101.3,20.6z M56.8,103.3c0-1.3,1-2.3,2.3-2.3c1.3,0,2.3,1,2.3,2.3
		c0,1.3-1,2.3-2.3,2.3C57.9,105.6,56.8,104.6,56.8,103.3z M77.9,95.5c0.1,0.2,0.3,0.4,0.5,0.7c0.2,0.3,0.5,0.7,0.8,1.2
		c1.8,2.9,3.7,8.2-0.7,12.8c0,0,6.2-5.7,2.2-13.1c-0.2-0.5-0.5-0.9-0.9-1.4c-0.2-0.2-0.4-0.5-0.6-0.7c1.6-0.5,3.4-0.8,5.5-0.5
		l7.9-3.6l-2.3,4.9c0,0,4.3,4.3,4.9,7.3c0.7,3,5.6,4.3,7.6,2.3c2-2,5.9-4.3,5.9-4.3s0.3,9.9-3,12.9c0,0-4.3-4.3-5.3-4.3
		c-1,0-3-0.7-4,0c-1,0.7-5.6,5.6-11.9,5.6l1,2.6l-7.3-4.3c0,0-3-1-6.9-5.6c0,0-3.3,2.3-3.3-1.6c0-1.4,0.4-1.9,0.9-2
		c-1.4-0.8-2.8-2.1-1.3-3.6c2.6-2.6,2,1.3,3,1c0,0,0.3-0.4,0.9-1C73,99.4,74.9,97,77.9,95.5z M65.4,99.7c-1.8,0-3.3-1.5-3.3-3.3
		c0-1.8,1.5-3.3,3.3-3.3c1.8,0,3.3,1.5,3.3,3.3C68.7,98.2,67.2,99.7,65.4,99.7z M115.3,119.9c0,0,15.5-16.7,14.4-41.9
		c-5.3-2.2-17.6-6-34.1-2.9c-7.3,1.4-17.4,3.6-27.9,5.4c0.6,0.8,1,1.7,1,2.7c0,2.4-1.9,4.3-4.3,4.3c-2.4,0-4.3-1.9-4.3-4.3
		c0-0.6,0.1-1.1,0.3-1.6c-12.7,1.8-25.1,2.3-33.2-0.7c4.3,34.4,27.3,48.2,27.3,48.2C15.3,116.2,18,76.4,17.9,72.3c0,0,0,0-0.1-0.1
		c2.3-24.1,19.6-44,42.4-50.1l25.5-0.9c26.6,5,46.7,28.3,46.9,56.2l0,0C132.7,77.4,134.4,103.1,115.3,119.9z"/>
	<path fill="#0081C3" d="M71.2,101.5c-0.1,0.1-0.2,0.1-0.3,0.2C71.1,101.7,71.1,101.6,71.2,101.5z"/>
	<circle fill="#0081C3" cx="65.4" cy="96.4" r="2"/>
	<circle fill="#0081C3" cx="59.1" cy="103.3" r="1"/>
	<path fill="#0081C3" d="M61.4,83.2c0,1.6,1.3,3,3,3c1.6,0,3-1.3,3-3c0-0.8-0.3-1.5-0.9-2.1c-0.1-0.1-0.3-0.3-0.4-0.4
		c-1.3,0.2-2.6,0.4-3.9,0.6C61.7,81.9,61.4,82.5,61.4,83.2z"/>
	<path fill="#0081C3" d="M123.8,71.8c-2.7-1.1-5.6-1.8-8.6-2.3C118.3,70.1,121.2,70.8,123.8,71.8z"/>
	<path fill="#0081C3" d="M129.5,75C129.5,75,129.5,75,129.5,75c0,0-0.1-0.1-0.1-0.1C129.4,74.9,129.4,75,129.5,75z"/>
	<path fill="#FFFFFE" d="M95.4,103c-0.7-3-4.9-7.3-4.9-7.3l2.3-4.9l-7.9,3.6c-2.1-0.2-3.9,0-5.5,0.5c0.2,0.2,0.4,0.5,0.6,0.7
		C84.5,94.3,90.2,95.1,95.4,103z"/>
	<path fill="#FFFFFE" d="M71.9,100.7c1.2-1.2,3.6-3.2,6.6-4.5c-0.2-0.3-0.4-0.5-0.5-0.7C74.9,97,73,99.4,71.9,100.7z"/>
	<path fill="#48B2E8" d="M129.3,74.9c-1.5-1.3-3.4-2.3-5.5-3.1c-2.6-1-5.5-1.7-8.6-2.3c-1.6-0.3-3.2-0.6-4.8-0.8
		c-11.2-1.6-39.9,5-62,8.4c-9.9,1.5-16.9,0.6-21.6-0.8c0.1,1.6,0.3,3.1,0.5,4.6c8.1,3.1,20.6,2.5,33.2,0.7c0.2-0.5,0.5-1,0.9-1.4
		c0.8-0.8,1.9-1.3,3-1.3c1.1,0,2.2,0.4,3,1.3c0.1,0.1,0.2,0.2,0.2,0.3c10.5-1.8,20.7-4,27.9-5.4c16.5-3.1,28.7,0.7,34.1,2.9
		c0-1-0.1-2-0.2-3C129.4,75,129.4,74.9,129.3,74.9z"/>
	<path fill="#48B2E8" d="M62.3,81.1c-0.1,0.1-0.1,0.2-0.2,0.2c1.3-0.2,2.6-0.4,3.9-0.6c-0.5-0.3-1.1-0.5-1.7-0.5
		C63.6,80.3,62.9,80.6,62.3,81.1z"/>
	<circle fill="#0081C3" cx="76.4" cy="102.2" r="1.5"/>
	<path fill="#48B2E8" d="M71,101.7c0.1-0.1,0.2-0.1,0.3-0.2c2.9-2.2,5.6-3.5,8-4.1c-0.3-0.5-0.5-0.9-0.8-1.2c-3,1.3-5.4,3.3-6.6,4.5
		C71.3,101.3,71,101.7,71,101.7z"/>
	<path fill="#48B2E8" d="M95.4,103c-5.2-8-10.9-8.7-15.5-7.3c0.3,0.5,0.6,0.9,0.9,1.4C89.9,95.7,95.4,103,95.4,103z"/>
	<path fill="#FFFFFE" d="M65.4,93.1c-1.8,0-3.3,1.5-3.3,3.3c0,1.8,1.5,3.3,3.3,3.3c1.8,0,3.3-1.5,3.3-3.3
		C68.7,94.6,67.2,93.1,65.4,93.1z M65.4,98.4c-1.1,0-2-0.9-2-2c0-1.1,0.9-2,2-2c1.1,0,2,0.9,2,2C67.4,97.5,66.5,98.4,65.4,98.4z"/>
	<path fill="#FFFFFE" d="M61.4,103.3c0-1.3-1-2.3-2.3-2.3c-1.3,0-2.3,1-2.3,2.3c0,1.3,1,2.3,2.3,2.3
		C60.4,105.6,61.4,104.6,61.4,103.3z M58.1,103.3c0-0.5,0.4-1,1-1c0.5,0,1,0.4,1,1c0,0.5-0.4,1-1,1
		C58.6,104.3,58.1,103.9,58.1,103.3z"/>
	<path fill="#FFFFFE" d="M64.4,78.9c-1.1,0-2.2,0.4-3,1.3c-0.4,0.4-0.7,0.9-0.9,1.4c-0.2,0.5-0.3,1.1-0.3,1.6c0,2.4,1.9,4.3,4.3,4.3
		c2.4,0,4.3-1.9,4.3-4.3c0-1-0.4-2-1-2.7c-0.1-0.1-0.2-0.2-0.2-0.3C66.6,79.4,65.5,78.9,64.4,78.9z M66.5,81.1
		c0.6,0.6,0.9,1.3,0.9,2.1c0,1.6-1.3,3-3,3c-1.6,0-3-1.3-3-3c0-0.7,0.2-1.3,0.7-1.9c0.1-0.1,0.1-0.2,0.2-0.2
		c0.6-0.6,1.3-0.9,2.1-0.9c0.6,0,1.2,0.2,1.7,0.5C66.2,80.9,66.4,81,66.5,81.1z"/>
</g>
</svg>
