<?xml version="1.0" encoding="utf-8"?>
<!-- Generator: Adobe Illustrator 18.1.0, SVG Export Plug-In . SVG Version: 6.00 Build 0)  -->
<svg version="1.1" id="Layer_1" xmlns="http://www.w3.org/2000/svg" xmlns:xlink="http://www.w3.org/1999/xlink" x="0px" y="0px"
	 viewBox="0 0 1500 1500" enable-background="new 0 0 1500 1500" xml:space="preserve">
<g>
	<path fill="#D2374A" d="M1192.3,341.4c128.5,75.5,216.5,229.8,216.5,408.1c0,178.3-88.1,332.6-216.5,408.1
		c144.8-59.7,248.5-219.8,248.5-408.1S1337.2,401.1,1192.3,341.4z"/>
	<path fill="#D2374A" d="M1359.2,749.5c0-207.6-132.5-384.1-317.4-449.9c164.1,83.2,276.6,253.4,276.6,449.9
		c0,196.6-112.5,366.7-276.6,450C1226.7,1133.6,1359.2,957,1359.2,749.5z"/>
	<path fill="#D2374A" d="M891.2,636.9l-0.1,0C891.1,636.9,891.1,636.9,891.2,636.9C891.2,636.9,891.2,636.9,891.2,636.9z"/>
	<path fill="#D2374A" d="M1263.8,749.5c0-254-205.9-459.9-459.9-459.9c-174.4,0-326.1,97.1-404.1,240.2c35.8,5.3,67.9,16.1,90,36.3
		c1.1,1,2.3,2.1,3.4,3.2c2.8,1.6,5.1,3.8,6.7,6.3c31.8,29.9,74,73.2,105.3,112.9c4.6-8.9,10.5-17.2,17.6-24.6c0,0-0.1,0.1-0.1,0.1
		l0.1-0.1v0c9.2-9.7,19.4-16.1,30.9-21.6c11.4-5.6,24-7.2,36.6-7.2h1.4c1.9,0,3.6-1.3,5.5-1.1c-0.6-4.7-1.2-11-1.2-15.6v-0.4
		c0-14.3,2.9-28.3,8.3-41.1c5.3-12.8,13.5-24.4,23.7-34.3c0,0,0,0,0,0l0.1-0.1c0,0,0,0,0,0c10.1-10,22-15.3,35.1-20.4
		c13-5.1,27.1-5,41.6-5h0.8c14.5,0,28.6,0.3,41.5,5.6c13,5.3,24.8,12,34.9,22c9.9,9.8,18.3,20.5,23.6,33c5.3,12.5,8.3,25.5,8.3,39.4
		v1.2v0.2v-0.2c0,5.2-1,11.1-1.9,16.3c1.3,0,2.1,0.4,3.4,0.4h0.9h0.2h-0.2c13.3,0,26.4,2.2,38.3,7.7c12,5.5,22.6,13.4,31.8,23.4
		l-0.1-0.2c9.3,10.1,16.7,21.6,21.4,34.2c4.7,12.7,7.2,26.2,7.2,40.2v1.1v0.1v-0.1c0,14.9-2.9,29.3-8.3,42.6
		c-5.4,13.3-13.6,25.3-23.9,35.5c-10.2,10.2-22,19.2-35.1,24.6c-13,5.4-27.2,8.9-41.7,8.9h-0.1l-1.6-0.9c-17.4-1-33.5-5.4-47.9-12.4
		c5.3,6.1,11.7,11.4,19.2,16.6c3.3,2.3,10.2,5.5,20,8.7c9.9,3.3,22.7,6.5,38.2,9.6c9.6,1.9,17.1,9.3,19.2,18.9l2.3,10.6
		c1.6,7.3-0.2,14.9-4.9,20.7c-4.7,5.8-11.8,9.1-19.3,9.1l-255.6-2.1c-7.5-0.1-14.5-3.5-19.1-9.4c-4.6-5.9-6.3-13.5-4.6-20.8
		l2.4-10.4c2.2-9.4,9.6-16.6,19.1-18.5c16-3.2,29.2-6.5,39.1-9.5c9.9-3,16.7-6,18.9-7.5l0.1-0.1c6.8-4.2,13.1-8.1,18.9-15
		c-15.6,7.1-32,12.6-48.7,12.6h-0.7h-0.1c-14.6,0-28.7-4.5-41.7-10c-12.4-5.2-23.7-13.8-33.5-23.5
		c-33.3,72.9-91.8,206.4-115.7,214.4c-8.2,2.7-27.9,9.3-53.4,16.9c84.3,97.2,208.7,158.7,347.4,158.7
		C1057.9,1209.5,1263.8,1003.5,1263.8,749.5z M658.3,442.5c-33.8,16.1-64.6,37.6-91.2,63.4c-7.8,7.6-20.2,7.4-27.8-0.4
		c-7.6-7.8-7.4-20.2,0.4-27.8c29.6-28.8,63.9-52.8,101.7-70.7c9.8-4.7,21.6-0.5,26.2,9.3C672.3,426.1,668.1,437.8,658.3,442.5z
		 M899.4,402.4c-2.3,10.6-12.8,17.4-23.4,15.1c-23.3-5-47.4-7.7-72.2-7.7c-13.1,0-26.1,0.7-38.8,2.2c-10.8,1.2-20.5-6.5-21.8-17.3
		c-1.2-10.8,6.5-20.5,17.3-21.8c14.2-1.6,28.7-2.4,43.3-2.4c27.6,0,54.5,2.9,80.5,8.6C895,381.3,901.7,391.8,899.4,402.4z
		 M682.1,1088.3c-4.2,10-15.8,14.7-25.8,10.4c-38.6-16.3-73.9-38.9-104.7-66.3c-8.1-7.2-8.8-19.7-1.6-27.8
		c7.2-8.1,19.7-8.8,27.8-1.6c27.6,24.6,59.3,44.8,93.8,59.5C681.7,1066.7,686.3,1078.3,682.1,1088.3z M900.3,1116.2
		c-30.8,8.1-63.1,12.4-96.4,12.4c-9.1,0-18.1-0.3-27-1c-10.8-0.8-19-10.2-18.2-21c0.8-10.8,10.2-19,21-18.2c8,0.6,16.1,0.8,24.3,0.8
		c29.9,0,58.8-3.8,86.4-11.1c10.5-2.8,21.3,3.5,24,14C917.1,1102.6,910.8,1113.4,900.3,1116.2z M979.3,458.5
		c-9.3-5.6-12.3-17.7-6.7-27c5.6-9.3,17.7-12.3,27-6.7c35.7,21.6,67.5,48.8,94.2,80.5c7,8.3,5.9,20.7-2.4,27.7
		c-8.3,7-20.7,5.9-27.7-2.4C1039.8,502.2,1011.2,477.8,979.3,458.5z M1104.1,981c-25.4,32.9-56,61.4-90.7,84.4
		c-9.1,6-21.3,3.6-27.3-5.5c-6-9.1-3.6-21.3,5.5-27.3c31.1-20.6,58.6-46.3,81.3-75.7c6.6-8.6,19-10.2,27.6-3.5
		C1109.1,960,1110.7,972.4,1104.1,981z M1143.3,734.8c-1.6-38.2-9.6-74.8-22.8-108.7c-3.9-10.1,1.1-21.5,11.2-25.5
		c10.1-4,21.5,1.1,25.5,11.2c14.8,37.9,23.6,78.7,25.4,121.3c0.1,2.9-0.4,5.7-1.5,8.2c1.1,2.5,1.8,5.2,1.8,8.1
		c0,42.7-7.1,83.9-20.2,122.3c-3.5,10.3-14.7,15.8-25,12.3c-10.3-3.5-15.8-14.7-12.3-25c11.7-34.4,18.1-71.2,18.1-109.6
		c0-2.6,0.5-5.1,1.5-7.4C1144,739.9,1143.4,737.4,1143.3,734.8z"/>
	<path fill="#B02D3D" d="M1063.7,530.7c7,8.3,19.4,9.4,27.7,2.4c8.3-7,9.4-19.4,2.4-27.7c-26.7-31.7-58.6-58.9-94.2-80.5
		c-9.3-5.6-21.4-2.6-27,6.7c-5.6,9.3-2.6,21.4,6.7,27C1011.2,477.8,1039.8,502.2,1063.7,530.7z"/>
	<path fill="#B02D3D" d="M641.4,406.9c-37.8,18-72.1,42-101.7,70.7c-7.8,7.6-8,20-0.4,27.8c7.6,7.8,20,8,27.8,0.4
		c26.6-25.8,57.3-47.3,91.2-63.4c9.8-4.7,14-16.4,9.3-26.2C663,406.4,651.3,402.3,641.4,406.9z"/>
	<path fill="#B02D3D" d="M884.4,379c-25.9-5.6-52.9-8.6-80.5-8.6c-14.6,0-29.1,0.8-43.3,2.4c-10.8,1.2-18.6,11-17.3,21.8
		c1.2,10.8,11,18.6,21.8,17.3c12.7-1.4,25.7-2.2,38.8-2.2c24.8,0,48.9,2.6,72.2,7.7c10.6,2.3,21.1-4.4,23.4-15.1
		C901.7,391.8,895,381.3,884.4,379z"/>
	<path fill="#B02D3D" d="M890.3,1078.1c-27.6,7.2-56.5,11.1-86.4,11.1c-8.2,0-16.2-0.3-24.3-0.8c-10.8-0.8-20.2,7.4-21,18.2
		c-0.8,10.8,7.4,20.2,18.2,21c8.9,0.6,17.9,1,27,1c33.3,0,65.6-4.3,96.4-12.4c10.5-2.8,16.8-13.5,14-24
		C911.6,1081.6,900.8,1075.3,890.3,1078.1z"/>
	<path fill="#FFFFFF" d="M493.2,569.2c2.2,2,4.4,4.1,6.7,6.3C498.3,573,496,570.8,493.2,569.2z"/>
	<path fill="#B02D3D" d="M671.6,1062.5c-34.6-14.6-66.2-34.8-93.8-59.5c-8.1-7.2-20.5-6.5-27.8,1.6c-7.2,8.1-6.5,20.5,1.6,27.8
		c30.8,27.5,66.1,50,104.7,66.3c10,4.2,21.6-0.4,25.8-10.4C686.3,1078.3,681.7,1066.7,671.6,1062.5z"/>
	<path fill="#B02D3D" d="M1125.5,859.1c-3.5,10.3,2,21.5,12.3,25c10.3,3.5,21.5-2,25-12.3c13.1-38.4,20.2-79.6,20.2-122.3
		c0-2.9-0.7-5.7-1.8-8.1c1-2.5,1.6-5.3,1.5-8.2c-1.8-42.6-10.7-83.4-25.4-121.3c-3.9-10.1-15.4-15.1-25.5-11.2
		c-10.1,3.9-15.1,15.3-11.2,25.5c13.2,33.9,21.2,70.4,22.8,108.7c0.1,2.6,0.8,5.1,1.8,7.3c-0.9,2.3-1.5,4.8-1.5,7.4
		C1143.6,787.9,1137.2,824.7,1125.5,859.1z"/>
	<path fill="#B02D3D" d="M1100.5,953.4c-8.6-6.6-21-5.1-27.6,3.5c-22.7,29.5-50.2,55.1-81.3,75.7c-9.1,6-11.5,18.2-5.5,27.3
		c6,9,18.2,11.5,27.3,5.5c34.7-23,65.3-51.6,90.7-84.4C1110.7,972.4,1109.1,960,1100.5,953.4z"/>
	
		<line fill="none" stroke="#FFFFFF" stroke-width="0" stroke-linecap="round" stroke-linejoin="round" x1="914.4" y1="635.2" x2="914.4" y2="635.2"/>
	
		<line fill="none" stroke="#FFFFFF" stroke-width="0" stroke-linecap="round" stroke-linejoin="round" x1="1014.7" y1="744.5" x2="1014.7" y2="744.5"/>
	
		<line fill="none" stroke="#FFFFFF" stroke-width="0" stroke-linecap="round" stroke-linejoin="round" x1="914.4" y1="616.9" x2="914.4" y2="616.9"/>
	<path fill="#FFFFFF" d="M728.1,542.5C728.1,542.4,728.1,542.4,728.1,542.5C728.1,542.4,728.2,542.4,728.1,542.5L728.1,542.5z"/>
	<path fill="#B02D3D" d="M640.6,680.7c15.1-15.9,31.7-24,50.1-24.2c12.7,0.5,29.4,6.1,50.1,16.7c-8.4-14-13.7-24.6-16.2-31.8
		c-2.5-7.3-3.6-15-3.6-23.2c0.2-23.1,8.3-42.4,24.3-58.1c16.1-15.7,36-23.4,60-23.3c23.5,0.2,43.3,8.3,59.3,24.1
		c16.2,16,24.1,35.1,23.9,57.4c-0.1,17.7-7.2,36.3-21.2,55.9c17-8,27.2-12.6,30.6-13.6c5.4-1.6,11.5-2.4,18.4-2.3
		c20.1,0.1,37.5,8.2,52.1,24.1c14.7,15.9,21.9,35.6,21.7,59c-0.1,24.2-8.4,44.5-24.7,60.8c-16.3,16.3-36.1,24.5-59.5,24.4
		c-15.5-0.9-29-4.4-40.5-10.3c-11.5-5.9-22.3-14.1-32.2-24.4c-7-7.5-15.7-20.1-26-37.9c0.6,31.9,5.1,57.2,14,75.9
		c8.8,18.6,22.4,34,40.7,46.5c12.4,8.3,34.8,15.7,67.1,22.1l2.3,10.6l-255.6-2.1l2.4-10.5c33.2-6.7,55.3-13.5,66.1-20.3
		c16.4-10.1,29.8-25.1,40.3-45.1c10.5-20,15.8-41,16-63.2c-0.1-3.2-0.1-7.8-0.2-14.2c-12.5,24.9-27.7,43-45.4,54.3
		c-17.7,11.3-35.7,16.9-54,16.8c-23.4-0.2-43.2-8.5-59.3-25c-1.8-1.8-3.4-3.6-4.9-5.5c-3.3,6.8-7,15-11.2,24.1
		c9.8,9.7,21.1,19.1,33.5,24.4c13,5.5,27.2,10,41.7,10h0.1h0.7c16.7,0,33.1-5.5,48.7-12.6c-5.8,7-12.1,11.6-18.9,15.9l-0.1-0.4
		c-2.2,1.5-9,4.3-18.9,7.3c-9.9,3-23.1,6.2-39.1,9.4c-9.4,1.9-16.9,9.1-19.1,18.5l-2.4,10.4c-1.7,7.3,0,14.9,4.6,20.8
		c4.6,5.9,11.7,9.3,19.1,9.4l255.6,2.1c7.5,0.1,14.6-3.3,19.3-9.1c4.7-5.8,6.5-13.4,4.9-20.7l-2.3-10.6c-2.1-9.6-9.6-17-19.2-18.9
		c-15.5-3.1-28.3-6.4-38.2-9.6c-9.8-3.2-16.7-6.5-20-8.8c-7.6-5.2-13.9-10.7-19.2-16.8c14.4,7,30.6,11.8,47.9,12.8l1.6,0.9h0.1
		c14.5,0,28.7-3.5,41.7-8.9c13-5.4,24.9-13.9,35-24.1c10.3-10.3,18.6-22.5,24-35.8c5.4-13.3,8.3-27.9,8.3-42.8v-1.1
		c0-14-2.4-27.6-7.2-40.3c-4.7-12.7-12-24.3-21.3-34.3l0,0.1c-9.2-10-19.8-17.5-31.8-23.1c-11.9-5.6-25-7.7-38.3-7.7h-0.9
		c-1.3,0-2.1-0.5-3.4-0.4c0.9-5.2,1.9-11.1,1.9-16.3v-1.2c0-13.9-3-27.5-8.3-40c-5.3-12.5-13.5-23.9-23.4-33.6
		c-10.1-10-22-15.5-35-20.8c-13-5.3-27.1-5.6-41.6-5.6h-0.8c-14.5,0-28.5-0.1-41.6,5c-13,5.1-24.9,11.6-35.1,21.6
		c-10.2,9.9-18.5,20.9-23.8,33.7c-5.4,12.8-8.3,26.2-8.3,40.5v0.4c0,4.7,0.6,10.9,1.2,15.6c-1.9-0.2-3.6,1.1-5.5,1.1h-1.4
		c-12.7,0-25.2,1.6-36.6,7.2c-11.4,5.5-21.7,12.7-30.9,22.4c-7.1,7.4-13,15.3-17.6,24.2c6.2,7.8,11.9,15.3,17,22.7
		C626,700.1,632.1,689.7,640.6,680.7z M891.2,636.9C891.2,636.9,891.2,636.9,891.2,636.9c-0.1,0-0.1,0-0.1,0L891.2,636.9z"/>
	<path fill="#FFFFFF" d="M622.8,663.8C622.8,663.8,622.8,663.8,622.8,663.8L622.8,663.8L622.8,663.8z"/>
	<path fill="#231F20" d="M701,825.1c18.3,0.1,36.3-5.5,54-16.8c17.7-11.3,32.9-29.4,45.4-54.3c0.1,6.3,0.2,10.9,0.2,14.2
		c-0.2,22.1-5.6,43.2-16,63.2c-10.6,19.9-24,35-40.3,45.1c-10.8,6.7-32.9,13.6-66.1,20.3l-2.4,10.5l255.6,2.1l-2.3-10.6
		c-32.3-6.5-54.7-13.8-67.1-22.1c-18.4-12.5-31.9-27.9-40.7-46.5c-8.9-18.7-13.4-44-14-75.9c10.3,17.8,19,30.4,26,37.9
		c10,10.3,20.7,18.5,32.2,24.4c11.5,5.9,25,9.4,40.5,10.3c23.4,0.1,43.3-8.1,59.5-24.4c16.3-16.3,24.6-36.6,24.7-60.8
		c0.2-23.3-7-43-21.7-59c-14.6-16-31.9-24-52.1-24.1c-6.8-0.1-13,0.7-18.4,2.3c-3.4,1-13.6,5.5-30.6,13.6
		c14-19.6,21.2-38.2,21.2-55.9c0.3-22.3-7.7-41.4-23.9-57.4c-16-15.8-35.8-23.9-59.3-24.1c-24-0.1-44,7.5-60,23.3
		c-16,15.7-24.1,35-24.3,58.1c0.1,8.3,1.2,15.9,3.6,23.2c2.5,7.2,7.8,17.9,16.2,31.8c-20.7-10.6-37.4-16.2-50.1-16.7
		c-18.4,0.3-35,8.3-50.1,24.2c-8.6,9-14.6,19.2-18.4,30.6c19.8,28.5,30.7,52.9,23.3,65.9c-2.2,3.8-5.2,9.9-8.8,17.4
		c1.6,1.9,3.2,3.7,4.9,5.5C657.8,816.5,677.6,824.9,701,825.1z"/>
	<path fill="#EF8334" d="M625.6,818.6c4.2-9.1,7.9-17.2,11.2-24.1c3.6-7.6,6.6-13.6,8.8-17.4c7.4-12.9-3.6-37.4-23.3-65.9
		c-5.1-7.4-10.9-15.1-17-22.9c-31.2-39.7-73.5-82.9-105.3-112.9c-2.3-2.2-4.5-4.3-6.7-6.3c-1.2-1.1-2.3-2.2-3.4-3.2
		c-22-20.2-54.2-30.9-90-36.3c-62.2-9.3-135.4-2.1-186.5,1.1c-80.4,5-170.9,251.3-150.8,316.6c20.1,65.3,175.9,216.1,175.9,216.1
		c40.3,32.9,149.8,7.3,218-13c25.5-7.6,45.2-14.4,53.4-17.1C533.8,1025.5,592.3,891.6,625.6,818.6z M517.2,774.2
		c9.3-24.9,33.4-38.8,53.7-31.2c20.3,7.6,29.3,34,19.9,58.8c-9.3,24.8-33.4,38.8-53.7,31.2C516.8,825.4,507.9,799.1,517.2,774.2z
		 M452.8,780.7c20.3,7.6,29.3,34,19.9,58.8c-9.3,24.9-33.4,38.8-53.7,31.2c-20.3-7.6-29.3-34-19.9-58.8
		C408.4,787.1,432.4,773.1,452.8,780.7z M189.3,665.5c13.4-35.7,48-55.8,77.2-44.9c29.2,11,42.1,48.8,28.7,84.6
		c-13.4,35.7-48,55.8-77.2,44.9C188.7,739.2,175.9,701.3,189.3,665.5z M208.2,897.4c8.5-20,35.2-27.8,59.6-17.4
		c24.4,10.4,37.4,35,28.9,55c-8.5,20-35.2,27.8-59.6,17.4C212.7,942,199.7,917.4,208.2,897.4z M317.6,1033.4
		c-7.5,20.4-33.8,29.4-58.7,20.2c-24.9-9.2-39-33.2-31.4-53.6c7.5-20.4,33.8-29.4,58.7-20.2C311.1,989,325.2,1013,317.6,1033.4z
		 M422.2,1025.4c-14.1,16.5-41.9,15.9-62.1-1.4c-20.2-17.3-25.1-44.6-10.9-61.1c14.1-16.5,41.9-15.9,62.1,1.4
		C431.4,981.5,436.3,1008.9,422.2,1025.4z M327.1,845c-12.6-5-188.8,7.5-216.4,10.1c-13.5,1.2-17.6,4.3-18,7l2.7,5.5
		c0,0-3.3-2.6-2.8-5.5l-0.8-1.5l-9-18.1c0,0,213.6-15.1,233.7-17.6C336.5,822.4,427,571.1,427,571.1l-2.5-12.6
		c12.6-5,45.2,20.1,45.2,20.1l-27.6,7.5L334,837.5l158.3,150.8l23.2,10.1l-29.5,25.1c0,0,0-12.6,0-20.1
		C486,995.8,339.6,850,327.1,845z"/>
	<path fill="#EF8334" d="M95.2,867.6l-2.8-5.5C92,865,95.2,867.6,95.2,867.6z"/>
	<path opacity="0.41" fill="#FFFFFF" d="M95.2,867.6l-2.8-5.5C92,865,95.2,867.6,95.2,867.6z"/>
	<path fill="#EF8334" d="M515.5,998.3l-22.9-10.1L334.1,837.5l108-251.3l27.6-7.5c0,0-32.7-25.1-45.3-20.1l2.5,12.6
		c0,0-90.5,251.3-110.6,253.8c-20.1,2.5-233.7,17.6-233.7,17.6l9,18.1l0.8,1.5c0.5-2.8,4.3-5.8,17.9-7
		c27.6-2.5,204.2-15.1,216.7-10.1c12.6,5,158.9,150.8,158.9,158.3c0,7.5,0,20.1,0,20.1L515.5,998.3z"/>
	<path fill="#F08D33" d="M515.5,998.3l-22.9-10.1L334.1,837.5l108-251.3l27.6-7.5c0,0-32.7-25.1-45.3-20.1l2.5,12.6
		c0,0-90.5,251.3-110.6,253.8c-20.1,2.5-233.7,17.6-233.7,17.6l9,18.1l0.8,1.5c0.5-2.8,4.3-5.8,17.9-7
		c27.6-2.5,204.2-15.1,216.7-10.1c12.6,5,158.9,150.8,158.9,158.3c0,7.5,0,20.1,0,20.1L515.5,998.3z"/>
	<path fill="#F08D33" d="M218,750.1c29.2,11,63.8-9.1,77.2-44.9c13.4-35.7,0.6-73.6-28.7-84.6c-29.2-11-63.8,9.1-77.2,44.9
		C175.9,701.3,188.7,739.2,218,750.1z"/>
	<path fill="#F08D33" d="M399.1,811.9c-9.3,24.9-0.4,51.2,19.9,58.8c20.3,7.6,44.4-6.3,53.7-31.2c9.3-24.9,0.4-51.2-19.9-58.8
		C432.4,773.1,408.4,787.1,399.1,811.9z"/>
	<path fill="#F08D33" d="M537.1,833.1c20.3,7.6,44.4-6.4,53.7-31.2c9.3-24.9,0.4-51.2-19.9-58.8c-20.3-7.6-44.4,6.3-53.7,31.2
		C507.9,799.1,516.8,825.4,537.1,833.1z"/>
	<path fill="#F08D33" d="M296.7,935c8.5-20-4.4-44.6-28.9-55c-24.5-10.4-51.1-2.6-59.6,17.4c-8.5,20,4.5,44.6,28.9,55
		C261.5,962.8,288.2,955,296.7,935z"/>
	<path fill="#F08D33" d="M411.2,964.2c-20.2-17.3-48-17.9-62.1-1.4c-14.1,16.5-9.2,43.9,10.9,61.1c20.2,17.3,48,17.9,62.1,1.4
		C436.3,1008.9,431.4,981.5,411.2,964.2z"/>
	<path fill="#F08D33" d="M286.2,979.8c-24.9-9.2-51.2-0.2-58.7,20.2c-7.6,20.4,6.5,44.4,31.4,53.6c24.9,9.2,51.2,0.2,58.7-20.2
		C325.2,1013,311.1,989,286.2,979.8z"/>
</g>
</svg>
