<?xml version="1.0" encoding="utf-8"?>
<!-- Generator: Adobe Illustrator 18.1.0, SVG Export Plug-In . SVG Version: 6.00 Build 0)  -->
<svg version="1.1" id="Layer_1" xmlns="http://www.w3.org/2000/svg" xmlns:xlink="http://www.w3.org/1999/xlink" x="0px" y="0px"
	 viewBox="0 0 150 150" enable-background="new 0 0 150 150" xml:space="preserve">
<g>
	<g>
		<path fill="#B2C035" d="M138.5,59.4c3.4-6.9,5.3-14.4,7.2-21.9c0.1,10.6-2,21.1-6,31c-1.1,3.5-3.6,6.8-3.3,10.7
			c0.2,16.6,0.2,33.3,0.3,49.9c-28.7,0.1-57.5,0.4-86.2,0.5c-3.5-0.1-7.2,0.5-10.4-1.1c-4.1-1.9-7.3-5.3-10.6-8.4
			c27.1-0.3,53.7-9.4,75.8-24.9C118.7,85.8,131.3,74.2,138.5,59.4z"/>
	</g>
	<path fill="#878D56" d="M31.3,20.2c35.7,0.1,71.4,0.3,107.1,0.4c4,19.6-6.6,38.8-20.7,51.6c-2.8-4.5,0.4-9.9,0.5-14.8
		c3.1-0.9,6.4-2.5,7.5-5.9c2-4.9-1.5-10.9-6.8-11.5c-5.4-1.1-10.8,4.1-9.9,9.5c0.2,3.1,2.6,5.2,4.8,7c-0.8,4.8-1.6,9.5-2.3,14.3
		c1,1.4,2,2.8,3,4.2c-1.7,1.4-3.4,2.8-5.1,4.2c-2.3-3-4.5-6-6.7-9c0.8-5,1.6-9.9,2.3-14.9c-2.6-3.2-5.1-6.4-7.6-9.6
		c2.6-4.6,1.3-11.3-3.9-13.2c-5.9-2.8-13.2,3-11.8,9.4c0.8,5.7,7.2,8.5,12.3,6.6c2.1,2.8,4.1,5.6,6.1,8.4c-0.8,4.8-1.6,9.6-2.4,14.3
		c2.7,3.6,5.3,7.2,8,10.8c-1.9,1.3-3.7,2.7-5.6,4c-3.6-4.9-7.2-9.9-10.7-14.8c3.1-4.3,2.4-11-2.5-13.5c-5.6-3.3-13.3,1.6-12.7,8
		c0.1,5.6,5.9,9.1,11.1,8.1c3.7,4.9,7.3,9.8,11,14.7c-1.9,1.2-3.9,2.4-5.8,3.6c-2.4-3.3-4.8-6.6-7.3-9.9c-4.7-0.9-9.6-1.2-14.2-2.4
		c-2.6-2.2-4.2-5.3-6.3-7.9c3.1-3.8,3.3-10-0.8-13.1c-4.9-4.3-13.6-0.7-14,5.8c-0.8,6,5.3,10.5,10.9,9.5c2.4,3.3,4.7,6.6,7.2,9.9
		c4.8,0.7,9.5,1.5,14.3,2.2c2.1,2.7,4.1,5.4,6.1,8.2c-2,1.1-4,2.1-6,3.2c-0.5-0.6-1.4-1.8-1.8-2.5c-4.3-0.9-8.7-1.1-13-2.2
		c-1.5-2.4-2.6-5.5-5.5-6.5c-4.9-2.4-11.3,1.1-12.1,6.5c-1.2,5.6,4.5,11.1,10.2,9.9c3-0.4,5-2.8,6.6-5.1c4,0.4,8,0.9,11.9,1.5
		c-16.4,8.3-35,13.4-53.5,12.2c-7.6-0.3-14.7-3.7-20.4-8.6c3.8,1.6,7.5,3.3,11.6,3.9c5.7,0.9,11.5,0,17.1-1
		C31.3,77.4,31.3,48.8,31.3,20.2z"/>
</g>
</svg>
