<?xml version="1.0" encoding="utf-8"?>
<!-- Generator: Adobe Illustrator 18.1.0, SVG Export Plug-In . SVG Version: 6.00 Build 0)  -->
<svg version="1.0" id="Layer_1" xmlns="http://www.w3.org/2000/svg" xmlns:xlink="http://www.w3.org/1999/xlink" x="0px" y="0px"
	 viewBox="0 0 150 150" enable-background="new 0 0 150 150" xml:space="preserve">
<g>
	<path fill="#88AB58" d="M100.3,62.9v-7c0-11.6-9.2-21.1-20.5-21.1h-1.5c1.1-6.8,2.5-13.2,6.5-18.6c0.9-1.2,0.7-3-0.6-3.9
		c-1.2-0.9-3-0.7-3.9,0.6c-2,2.7-3.5,5.6-4.6,8.6c-0.6-3.3-1.9-7.5-4.9-10.5c-5.8-5.8-15.7-5.3-15.7-5.3s-0.5,10,5.3,15.9
		c4.2,4.2,10.5,5.1,13.7,5.3c-0.6,2.7-1.1,5.4-1.5,8h-2.4c-11.3,0-20.5,9.4-20.5,21.1v7C37.8,70.7,29.9,84,29.9,99
		c0,24,20.2,43.5,45.2,43.5c24.9,0,45.2-19.5,45.2-43.5C120.3,84,112.3,70.7,100.3,62.9z"/>
	<path fill="#613627" d="M74.3,26.7c-0.6,2.6-1.1,5.2-1.5,7.8h5.6c1.1-6.8,2.5-13.1,6.5-18.4c0.9-1.2,0.7-3-0.6-3.9
		c-1.2-0.9-3-0.7-3.9,0.6c-2,2.7-3.5,5.6-4.6,8.6c-0.6-3.3-1.9-7.5-4.9-10.5c-5.8-5.8-15.7-5.3-15.7-5.3s-0.5,10,5.3,15.9
		C64.8,25.7,71.1,26.6,74.3,26.7z"/>
	<g>
		<g>
			<path fill="#6D8237" d="M112.5,84.3c-0.9,0.1-0.9,0.1-5.4,1.1c-4.2,0.9-5.9,1.1-9.5,1.7c2.1,1.8,2.2,1.9,4.9,4.6
				c-13.1,16.3-38.5,27.3-54.5,26.6c-0.6,2.6-1.9,4.9-4,6.5c14.4,7.8,46.6-1.5,64.5-20.3c0.3,2.5,0.3,2.9,0.2,6.4
				c2.4-5.3,3.1-8,4.1-13.2C113.7,91.7,113,87.4,112.5,84.3z"/>
			<g>
				<path fill="#6D8237" d="M86,86.9c-3.1,0.1-3.6,0.1-7,0.1c0.9,0.8,2,1.9,2.8,2.8c-15.8,11-35.7,15.9-44.5,11.2
					c-0.7,1.1-1.7,2.1-2.9,2.9c0.1,0.2,0.3,0.3,0.4,0.5c0.7-0.1,1.5-0.2,2.4-0.2c4.4,0,7.5,2.1,9.3,4.9c10.6,0.8,25.6-3.2,40-12.1
					c0.4,1.1,0.9,2.7,1.3,3.8c1.5-3.2,1.8-3.8,3.1-7.3c0.9-2.6,1.3-4.4,1.9-7.1C89.8,86.7,89.3,86.7,86,86.9z"/>
			</g>
			<path fill="#6D8237" d="M103.4,124.9c-2.1,2.8-2.4,3.1-4.4,5.3c0.1-0.7,0.3-1.6,0.4-2.3c-19,12-36,13.2-44.4,9.2l-0.5-0.2
				c-1.6-1-3.7-2.3-5.2-3.4c9.8,6.4,30.4,1.9,49-10.6c-0.5-0.7-1.1-1.5-1.6-2.2c3.2-0.4,3.5-0.5,6-0.9c2.6-0.5,2.8-0.6,4.6-1
				C105.9,121.3,105,122.8,103.4,124.9"/>
		</g>
	</g>
	<g enable-background="new    ">
		<g>
			<path fill="#153037" d="M117.4,98.7c-1.3,5.7-2.2,8.6-4.9,14.3c0.2-3.9,0.2-4.3,0-7.1c-22.7,22.5-64.9,31.1-76.4,15.7
				c-1-1.8-2.3-4.2-3.2-6c-0.6-1.4-1.3-3.4-1.8-4.9c7.2,17.3,54.3,5.2,75.2-19.2c-2.9-3.1-3.1-3.2-5.3-5.3c4-0.5,5.9-0.7,10.5-1.5
				c5-0.8,5-0.8,6-1C118,87.3,118.6,92,117.4,98.7"/>
			<path fill="#153037" d="M105.4,125.1c-2.4,2.9-2.8,3.3-5,5.7c0.2-0.7,0.4-1.7,0.5-2.5c-21.3,12.5-40,13.2-49.2,8.4l-0.5-0.3
				c-1.7-1.1-4-2.7-5.6-3.9c10.6,7.4,33.4,3.3,54.3-9.8c-0.5-0.7-1.1-1.7-1.6-2.5c3.5-0.4,3.9-0.4,6.6-0.8c2.8-0.5,3.1-0.5,5.1-1
				C108.3,121.2,107.2,122.9,105.4,125.1"/>
			<g>
				<path fill="#153037" d="M93.4,93.1c-1.5,3.7-1.8,4.4-3.6,7.9c-0.4-1.3-0.9-3-1.3-4.3c-28.8,16.5-59.5,16-59.6-1l0-0.6
					c0.1-1.7,0.4-4.1,0.6-5.8c-1.9,17.8,30.1,14.8,54-0.7c-0.9-0.9-2.1-2.2-3-3.1c3.7,0.2,4.3,0.2,7.7,0.2c3.7-0.1,4.2-0.1,7.5-0.3
					C95,88.4,94.5,90.3,93.4,93.1"/>
			</g>
		</g>
	</g>
	<path opacity="0.2" fill="#FFFFFF" d="M79.8,34.8h-1c-2.1,0.8-4.5,0.9-7,0h-1.5c-11.3,0-20.5,9.4-20.5,21.1v7
		C37.8,70.7,29.9,84,29.9,99c0,6.6,1.5,12.9,4.3,18.5c0.8,0,1.6,0.1,2.5,0.1c33.5,0,60.7-26.1,60.7-58.3c0-6.4-1.1-12.6-3.1-18.4
		C90.5,37.1,85.4,34.8,79.8,34.8z"/>
</g>
</svg>
