<?xml version="1.0" encoding="iso-8859-1"?>
<!-- Generator: Adobe Illustrator 13.0.0, SVG Export Plug-In . SVG Version: 6.00 Build 14948)  -->
<!DOCTYPE svg PUBLIC "-//W3C//DTD SVG 1.1//EN" "http://www.w3.org/Graphics/SVG/1.1/DTD/svg11.dtd">
<svg version="1.1" id="Layer_1" xmlns="http://www.w3.org/2000/svg" xmlns:xlink="http://www.w3.org/1999/xlink" x="0px" y="0px"
	 width="100px" height="100px" viewBox="0 0 100 100" enable-background="new 0 0 100 100" xml:space="preserve">
<g>
	<g>
		<path fill="#D25A5F" d="M90.39,21.043L58.338,10.508L50.722,8l-7.617,2.506L11.054,21.043c0,9.151,1.54,18.73,4.329,27.946
			c-0.024-0.56-0.042-1.114-0.042-1.68c0-16.872,11.917-31.046,27.763-34.546c2.453-0.542,5.005-0.832,7.617-0.832
			c2.613,0,5.161,0.291,7.616,0.832c15.844,3.501,27.76,17.676,27.76,34.546c0,0.566-0.014,1.121-0.038,1.683
			C88.85,39.773,90.39,30.194,90.39,21.043z"/>
		<path fill="#D25A5F" d="M50.722,82.688c-2.612,0-5.164-0.288-7.617-0.833c-6.714-1.481-12.721-4.879-17.418-9.589
			c4.877,8.032,10.781,14.949,17.418,19.914c2.445,1.831,4.99,3.396,7.617,4.653c2.627-1.257,5.172-2.822,7.616-4.653
			c6.638-4.965,12.542-11.882,17.421-19.917c-4.697,4.71-10.704,8.11-17.421,9.592C55.886,82.399,53.334,82.688,50.722,82.688z"/>
		<path fill="#48B4DC" d="M18.722,36.846H33.4c0.769-3.163-1.052-6.167,0.346-8.959c0.48-0.96,0.995-1.896,1.544-2.801h-1.544
			h-8.282C22.479,28.475,20.164,32.463,18.722,36.846z"/>
		<path fill="#48B4DC" d="M30.691,47.309c0-2.927,3.211-5.775,3.748-8.521H18.147c-0.714,2.721-1.094,5.577-1.094,8.521
			c0,2.841,0.356,5.604,1.023,8.242h11.918C29.489,52.891,30.691,50.134,30.691,47.309z"/>
		<path fill="#48B4DC" d="M35.417,69.732c-0.596-0.971-1.154-1.973-1.671-3.006c-1.44-2.874-2.572-5.974-3.34-9.237H18.634
			c1.457,4.582,3.873,8.741,7.011,12.243h8.102H35.417z"/>
		<path fill="#48B4DC" d="M71.395,38.788c0.539,2.746,0.819,5.594,0.819,8.521c0,2.825-0.26,5.582-0.764,8.242h11.917
			c0.667-2.638,1.024-5.401,1.024-8.242c0-2.944-0.382-5.8-1.095-8.521H71.395z"/>
		<path fill="#48B4DC" d="M66.153,25.085c0.546,0.905,1.062,1.841,1.544,2.801c1.397,2.792,2.506,5.796,3.274,8.959h11.75
			c-1.442-4.383-3.757-8.372-6.743-11.761h-8.281H66.153z"/>
		<path fill="#48B4DC" d="M58.338,78.785c-0.365,0.315-0.739,0.618-1.113,0.914c-0.368,0.288-0.74,0.569-1.118,0.841
			c0.376-0.06,0.746-0.128,1.118-0.2c0.371-0.075,0.744-0.156,1.113-0.243c0.683-0.155,1.357-0.337,2.024-0.536
			c2.587-0.775,5.048-1.856,7.335-3.197c2.252-1.321,4.341-2.896,6.222-4.686h-6.222H64.76c-1.321,1.897-2.797,3.652-4.397,5.245
			C59.708,77.57,59.034,78.192,58.338,78.785z"/>
		<path fill="#48B4DC" d="M60.362,15.051c-0.667-0.2-1.342-0.378-2.024-0.54c-0.369-0.086-0.742-0.165-1.113-0.238
			c-0.372-0.07-0.744-0.141-1.118-0.198c0.378,0.271,0.75,0.551,1.118,0.842c0.374,0.294,0.748,0.599,1.113,0.911
			c0.696,0.593,1.37,1.216,2.024,1.866c1.658,1.647,3.179,3.475,4.538,5.452h2.797h6.432c-1.937-1.876-4.096-3.521-6.432-4.893
			C65.41,16.91,62.949,15.828,60.362,15.051z"/>
		<path fill="#48B4DC" d="M67.697,66.727c-0.518,1.033-1.075,2.035-1.671,3.006h1.671h8.102c3.138-3.502,5.551-7.661,7.011-12.243
			H71.038C70.267,60.753,69.137,63.853,67.697,66.727z"/>
		<path fill="#48B4DC" d="M43.104,78.789c-0.693-0.592-1.365-1.211-2.017-1.858c-1.605-1.594-3.08-3.354-4.404-5.253h-2.938h-6.221
			c1.881,1.789,3.968,3.364,6.221,4.686c2.29,1.342,4.752,2.422,7.341,3.199c0.663,0.197,1.337,0.379,2.017,0.537
			c0.368,0.086,0.74,0.165,1.117,0.24c0.368,0.072,0.737,0.141,1.112,0.2c-0.376-0.271-0.746-0.55-1.112-0.839
			C43.843,79.403,43.47,79.101,43.104,78.789z"/>
		<path fill="#48B4DC" d="M49.75,57.489h-5.529h-1.117h-2.017h-7.341h-1.614c0.434,1.738,0.974,3.43,1.614,5.058
			c1.006,2.562,2.257,4.968,3.721,7.186h3.62h2.017h1.117h5.529V57.489z"/>
		<path fill="#48B4DC" d="M43.104,14.511c-0.68,0.161-1.354,0.339-2.017,0.54c-2.591,0.775-5.051,1.857-7.341,3.202
			c-2.339,1.373-4.497,3.017-6.432,4.893h6.432h2.796c1.361-1.979,2.883-3.81,4.545-5.46c0.652-0.648,1.324-1.267,2.017-1.859
			c0.366-0.311,0.738-0.615,1.117-0.909c0.366-0.291,0.737-0.571,1.117-0.842c-0.376,0.06-0.749,0.128-1.117,0.198
			C43.845,14.346,43.472,14.425,43.104,14.511z"/>
		<path fill="#48B4DC" d="M49.75,13.655l-0.374,0.014c-1.819,1.013-3.546,2.21-5.155,3.572c-0.381,0.321-0.751,0.649-1.117,0.984
			c-0.695,0.643-1.367,1.317-2.017,2.021c-0.843,0.919-1.647,1.885-2.402,2.9h2.402h2.017h1.117h5.529V13.655z"/>
		<path fill="#48B4DC" d="M49.75,25.085h-5.529h-1.117h-2.017h-3.754c-1.405,2.161-2.61,4.501-3.587,6.983
			c-0.605,1.539-1.124,3.134-1.544,4.777h1.544h7.341h2.017h1.117h5.529V25.085z"/>
		<path fill="#48B4DC" d="M49.75,38.788h-5.529h-1.117h-2.017h-7.341h-1.993c-0.562,2.736-0.861,5.59-0.861,8.521
			c0,2.829,0.279,5.587,0.808,8.242h2.046h7.341h2.017h1.117h5.529V38.788z"/>
		<path fill="#48B4DC" d="M49.75,80.963v-9.285h-5.529h-1.117h-2.017h-2.248c0.709,0.937,1.46,1.836,2.248,2.689
			c0.65,0.705,1.322,1.379,2.017,2.021c0.366,0.338,0.735,0.664,1.117,0.982c1.612,1.365,3.336,2.563,5.155,3.576L49.75,80.963z"/>
		<path fill="#48B4DC" d="M39.98,69.732h17.244h1.113h2.024h3.616c1.46-2.218,2.71-4.627,3.719-7.187
			c0.638-1.628,1.18-3.318,1.614-5.057h-1.614h-7.335h-2.024h-1.113L42.906,45.777L39.98,69.732z"/>
		<path fill="#48B4DC" d="M51.692,80.963l0.373-0.016c1.818-1.012,3.545-2.211,5.159-3.574c0.377-0.32,0.751-0.646,1.113-0.985
			c0.7-0.644,1.375-1.322,2.024-2.027c0.783-0.852,1.535-1.747,2.241-2.683h-2.241h-2.024h-1.113h-5.532V80.963z"/>
		<path fill="#48B4DC" d="M51.692,36.846h5.532h1.113h2.024h7.335h1.544c-0.421-1.644-0.938-3.239-1.544-4.777
			c-0.977-2.482-2.182-4.823-3.589-6.983h-3.746h-2.024h-1.113h-5.532V36.846z"/>
		<path fill="#48B4DC" d="M51.692,55.551h5.532h1.113h2.024h7.335h2.045c0.529-2.655,0.808-5.413,0.808-8.242
			c0-2.931-0.298-5.785-0.861-8.521h-1.991h-7.335l-2.024-5.858h-1.113H41.442L51.692,55.551z"/>
		<path fill="#48B4DC" d="M51.692,13.655v9.491h5.532h1.113h2.024h2.396c-0.755-1.013-1.555-1.977-2.396-2.894
			c-0.649-0.707-1.324-1.383-2.024-2.028c-0.362-0.334-0.735-0.665-1.113-0.984c-1.614-1.361-3.338-2.562-5.159-3.572L51.692,13.655
			z"/>
	</g>
	<g>
		<path fill="#FFFFFF" d="M33.737,24.494h22.078c6.577,0,11.143,0.832,13.694,2.499c2.553,1.667,3.829,4.103,3.829,7.307
			c0,3.459-0.834,6.507-2.5,9.14c-1.667,2.636-4.122,4.355-7.369,5.156c2.402,0.971,3.985,1.898,4.745,2.784
			c0.886,0.842,1.327,2.467,1.327,4.871c0,1.098-0.125,2.593-0.381,4.492l-0.63,3.542l-0.506,3.099
			c0.126,0.93,0.547,1.392,1.265,1.392l-0.255,1.328H53.981l-0.063-1.643c0-1.183,0.124-2.723,0.378-4.621l0.506-5.12
			c0-2.066-0.653-3.344-1.959-3.827c-1.309-0.487-3.691-0.73-7.149-0.73h-2.215l-2.847,15.941H25.704L33.737,24.494z M46.833,35.12
			l-1.645,9.046h6.326c4.555,0,7.023-1.475,7.401-4.426c0.126-0.844,0.01-1.614-0.347-2.311c-0.36-0.696-0.98-1.253-1.866-1.678
			c-0.887-0.42-1.794-0.632-2.721-0.632H46.833z"/>
	</g>
</g>
</svg>
