<?xml version="1.0" encoding="utf-8"?>
<!-- Generator: Adobe Illustrator 18.1.0, SVG Export Plug-In . SVG Version: 6.00 Build 0)  -->
<svg version="1.1" id="Layer_1" xmlns="http://www.w3.org/2000/svg" xmlns:xlink="http://www.w3.org/1999/xlink" x="0px" y="0px"
	 viewBox="0 0 150 150" enable-background="new 0 0 150 150" xml:space="preserve">
<g>
	<path fill="#A31E22" d="M21.8,56.1L3.9,74l15.5,15.5c-0.8-3.9-1.2-8-1.2-12.2C18.3,70,19.5,62.9,21.8,56.1z"/>
	<path fill="#A31E22" d="M65.3,135.4L76,146.1l11.2-11.2c-4.2,0.9-8.4,1.4-12.6,1.4C71.5,136.2,68.4,135.9,65.3,135.4z"/>
	<path fill="#A31E22" d="M96.1,29.7c0-0.9-0.3-2.3-2.5-3.8c-2-1.3-4.5-2-7.5-2c-6,0-11.4,1.7-16.3,5.2c-4.9,3.5-8.8,8.6-11.6,15.2
		C55.4,51,54,58.8,54,67.3c0,7.8,1.7,15,5,21.3c3.3,6.3,7.8,11.3,13.3,14.7c5.5,3.5,11.6,5.2,18.1,5.2c5.5,0,11.3-1.3,17.3-3.8
		c3.8-1.6,7.1-3.4,9.9-5.6c0.9-3.6,4.1-6.2,7.9-6.2c1,0,2,0.2,2.9,0.6L148.1,74l-23.3-23.3c-0.7,0.8-1.4,1.7-2.2,2.4
		c-3.6,3.2-7.9,4.8-12.7,4.8c-4.6,0-8.5-1.6-11.5-4.9c-3-3.2-4.5-6.7-4.5-10.5c0-0.6,0.2-1.8,1.2-6.5C96,31.8,96.1,30.3,96.1,29.7z"
		/>
	<path fill="#A31E22" d="M85.9,11.7L76,1.9L62.8,15.1c6.7-2.2,14-3.4,21.7-3.4C85,11.7,85.4,11.7,85.9,11.7z"/>
	<path fill="#FFFFFF" d="M57.5,117.1c-7.4-4-13.2-9.5-17.6-16.7c-4.3-7.1-6.5-15.1-6.5-23.8c0-10.2,2.6-19.9,7.9-29.2
		C46.5,38,54.1,29.7,64,22.3c-8.3,3.1-15.4,7.4-21.2,12.9C37.1,40.6,32.7,47,29.6,54.2c-3,7.2-4.6,14.6-4.6,22.1
		c0,10.2,2.4,19.3,7.3,27.3c4.9,8.1,11.3,14.3,19.2,18.8c7.9,4.5,16,6.7,24.2,6.7c11.9,0,23.1-3.9,33.6-11.7
		c-11.4,3.7-20.5,5.6-27.5,5.6C73,123.1,64.9,121.1,57.5,117.1z"/>
	<path fill="#FFFFFF" d="M101.8,36.7c-0.8,2.5-1.2,4.4-1.2,5.7c0,2.8,1.1,4.9,3.2,6.3c2.1,1.4,4.4,2.1,7,2.1c0.8,0,2.9-0.3,6.4-1
		c-5.4-1.1-8.1-3.9-8.1-8.3c0-0.3,0.2-1.3,0.6-3c0.4-1.6,0.6-3,0.6-4.2c0-4.8-3.4-8.4-10.2-10.9c1.9,2.7,2.9,5.2,2.9,7.4
		C102.9,32.2,102.5,34.2,101.8,36.7z"/>
	<path fill="#A31E22" d="M125.6,95.5c-2.9,0-5.3,2.2-5.6,5.1c-3.2,2.5-6.9,4.7-11.3,6.5c-6.4,2.6-12.5,4-18.3,4
		c-7,0-13.5-1.9-19.5-5.6c-5.9-3.7-10.7-9-14.2-15.7c-3.5-6.7-5.3-14.2-5.3-22.5c0-8.9,1.5-16.9,4.5-24c3-7.1,7.1-12.5,12.4-16.3
		c5.3-3.8,11.2-5.7,17.7-5.7c3.5,0,6.4,0.8,8.9,2.4c2.4,1.6,3.6,3.6,3.6,5.9c0,1.2-0.4,3.5-1.2,6.8c-0.8,3.3-1.2,5.3-1.2,5.9
		c0,3.1,1.3,6.1,3.8,8.8c2.6,2.7,5.8,4.1,9.7,4.1c4.3,0,7.9-1.4,11.1-4.2c3.1-2.8,4.7-6.3,4.7-10.5c0-4.9-1.8-9.3-5.4-13.4
		c-3.6-4.1-8.5-7.3-14.8-9.6c-6.3-2.3-13.2-3.5-20.8-3.5c-9.5,0-18.1,1.7-25.9,5.1c-7.8,3.4-14.6,8.1-20.2,14
		C32.7,39.2,28.4,46,25.3,53.5c-3,7.6-4.6,15.5-4.6,23.8c0,10.2,2.5,19.7,7.5,28.3c5,8.6,11.7,15.5,20.1,20.5
		c8.4,5,17.2,7.6,26.4,7.6c9.9,0,19.6-2.6,29.2-7.9c8.3-4.6,15.6-10.9,21.8-18.9c3.1-0.1,5.6-2.6,5.6-5.7
		C131.3,98.1,128.8,95.5,125.6,95.5z M110.2,34.3c0,1.1-0.2,2.5-0.6,4.2c-0.4,1.7-0.6,2.6-0.6,3c0,4.4,2.7,7.2,8.1,8.3
		c-3.5,0.7-5.6,1-6.4,1c-2.5,0-4.8-0.7-7-2.1c-2.1-1.4-3.2-3.5-3.2-6.3c0-1.3,0.4-3.2,1.2-5.7c0.8-2.5,1.2-4.5,1.2-6
		c0-2.3-1-4.7-2.9-7.4C106.8,25.8,110.2,29.5,110.2,34.3z M75.7,129.2c-8.2,0-16.2-2.2-24.2-6.7c-7.9-4.5-14.3-10.7-19.2-18.8
		c-4.9-8.1-7.3-17.2-7.3-27.3c0-7.5,1.5-14.8,4.6-22.1c3-7.2,7.4-13.6,13.2-19.1c5.8-5.5,12.8-9.8,21.2-12.9
		C54.1,29.7,46.5,38,41.3,47.3c-5.3,9.3-7.9,19.1-7.9,29.2c0,8.8,2.2,16.7,6.5,23.8c4.3,7.1,10.2,12.7,17.6,16.7
		c7.4,4,15.5,6,24.4,6c6.9,0,16.1-1.9,27.5-5.6C98.8,125.3,87.6,129.2,75.7,129.2z"/>
</g>
</svg>
