<?xml version="1.0" encoding="iso-8859-1"?>
<!-- Generator: Adobe Illustrator 13.0.0, SVG Export Plug-In . SVG Version: 6.00 Build 14948)  -->
<!DOCTYPE svg PUBLIC "-//W3C//DTD SVG 1.1//EN" "http://www.w3.org/Graphics/SVG/1.1/DTD/svg11.dtd">
<svg version="1.1" id="Layer_1" xmlns="http://www.w3.org/2000/svg" xmlns:xlink="http://www.w3.org/1999/xlink" x="0px" y="0px"
	 width="100px" height="100px" viewBox="0 0 100 100" enable-background="new 0 0 100 100" xml:space="preserve">
<g>
	<g>
		<radialGradient id="SVGID_1_" cx="66.3369" cy="30.4087" r="33.619" gradientUnits="userSpaceOnUse">
			<stop  offset="0" style="stop-color:#919395"/>
			<stop  offset="0.6727" style="stop-color:#424243"/>
			<stop  offset="1" style="stop-color:#272525"/>
		</radialGradient>
		<path fill="url(#SVGID_1_)" d="M60.337,24.671c0.63-0.493,1.406-0.063,1.958,0.332c1.652,1.284,2.126,3.657,1.694,5.62
			c-1.224-0.762-1.951-2.031-2.874-3.086c0.039,1.68,1.611,2.583,2.783,3.496c0.13-0.4,0.249-0.801,0.376-1.201
			c0.413,0.093,0.767,0.312,1.04,0.649c0.21,0.01,0.638,0.024,0.848,0.029c0.104,1.338-0.945,2.686-2.21,3.027
			c-0.537-0.352-1.064-0.728-1.714-0.835c0.359-0.381,0.718-0.762,1.084-1.138c-1.655-0.371-2.739-1.733-4.035-2.69
			c-0.638-0.547-0.989,0.42-0.981,0.928c0.842,1.392,2.614,1.602,3.933,2.344c-1.691-0.327-3.716-0.786-4.675-2.349
			c-0.488-1.333,1.11-1.743,1.821-2.466C59.714,26.453,59.727,25.428,60.337,24.671z"/>
		<radialGradient id="SVGID_2_" cx="66.3359" cy="30.4058" r="33.6136" gradientUnits="userSpaceOnUse">
			<stop  offset="0" style="stop-color:#919395"/>
			<stop  offset="0.6727" style="stop-color:#424243"/>
			<stop  offset="1" style="stop-color:#272525"/>
		</radialGradient>
		<path fill="url(#SVGID_2_)" d="M47.124,28.587c1.081,0.298,2.204,0.356,3.312,0.205c2.246-0.283,4.725-0.278,6.714,0.942
			c0.022,0.229,0.078,0.684,0.105,0.918c-0.923-0.371-1.851-0.845-2.874-0.815c1.182,0.43,2.444,0.713,3.484,1.46
			c1.03,0.713,2.285,0.903,3.472,1.206c-3.301,0.239-6.468-1.611-9.766-0.938c-1.167,0.215-2.251,0.698-3.338,1.152
			c0.223-0.903,0.654-1.733,1.25-2.451C48.576,29.896,47.808,29.28,47.124,28.587z"/>
		<radialGradient id="SVGID_3_" cx="66.3369" cy="30.4087" r="33.6224" gradientUnits="userSpaceOnUse">
			<stop  offset="0" style="stop-color:#919395"/>
			<stop  offset="0.6727" style="stop-color:#424243"/>
			<stop  offset="1" style="stop-color:#272525"/>
		</radialGradient>
		<path fill="url(#SVGID_3_)" d="M67.002,31.15c1.447-0.649,3.21-1.001,4.699-0.278c0.618,0.312,1.399,0.854,1.172,1.66
			c-0.366,0.938-1.392,1.348-1.982,2.109c-0.195,0.664-0.129,1.387-0.407,2.031c-0.35,0.684-1.274,0.708-1.885,0.386
			c-1.355-0.645-2.454-1.758-3.232-3.032c1.177,0.952,2.173,2.305,3.745,2.598c0.493-0.151,0.676-0.649,0.938-1.04
			c-1.487-1.055-3.738-1.157-4.624-2.939c1.782,0.259,3.486,0.918,5.295,1.03c-1.506-0.674-3.213-0.874-4.619-1.768
			C66.113,31.434,66.677,31.355,67.002,31.15z"/>
		<radialGradient id="SVGID_4_" cx="66.3398" cy="30.4087" r="33.6166" gradientUnits="userSpaceOnUse">
			<stop  offset="0" style="stop-color:#919395"/>
			<stop  offset="0.6727" style="stop-color:#424243"/>
			<stop  offset="1" style="stop-color:#272525"/>
		</radialGradient>
		<path fill="url(#SVGID_4_)" d="M55.31,38.006c1.966-2.046,4.16-3.95,6.717-5.215c-0.137,0.137-0.413,0.405-0.547,0.537
			c0.158,0.059,0.474,0.166,0.635,0.22c-1.802,1.362-3.03,3.315-4.126,5.259c-1.104,1.909-1.729,4.062-2.972,5.898
			c-1.064,1.631-2.409,3.066-3.918,4.292c0.72-1.348,1.216-2.793,1.628-4.268c-2.075,0.942-4.404,0.806-6.623,0.835
			C49.937,44.173,52.692,40.984,55.31,38.006z"/>
		<radialGradient id="SVGID_5_" cx="66.3389" cy="30.4072" r="33.6174" gradientUnits="userSpaceOnUse">
			<stop  offset="0" style="stop-color:#919395"/>
			<stop  offset="0.6727" style="stop-color:#424243"/>
			<stop  offset="1" style="stop-color:#272525"/>
		</radialGradient>
		<path fill="url(#SVGID_5_)" d="M63.034,33.738c0.267,0.146,0.532,0.288,0.801,0.435c0.706,4.541,0.936,9.346-0.739,13.711
			c-0.667,1.87-1.211,3.784-1.587,5.737c-0.195,1.001-0.35,2.002-0.464,3.018c-0.122,1.177-0.145,2.378-0.242,3.555
			c-0.866-1.387-1.25-3.013-1.457-4.619c-0.135-1.123-0.218-2.246-0.229-3.379c-0.008-0.43-0.008-0.864-0.005-1.294
			c-0.283,0.308-0.566,0.615-0.854,0.918c-0.557,0.43-1.182,0.757-1.805,1.074c0.252-0.508,0.516-1.011,0.794-1.499
			c2.165-3.604,4.079-7.393,5.215-11.445C63,37.933,63.381,35.823,63.034,33.738z"/>
		<radialGradient id="SVGID_6_" cx="66.3379" cy="30.4121" r="33.613" gradientUnits="userSpaceOnUse">
			<stop  offset="0" style="stop-color:#919395"/>
			<stop  offset="0.6727" style="stop-color:#424243"/>
			<stop  offset="1" style="stop-color:#272525"/>
		</radialGradient>
		<path fill="url(#SVGID_6_)" d="M64.704,34.119c0.374,0.527,0.737,1.069,1.072,1.626c-0.11,0.693,0.02,1.387,0.156,2.07
			c0.005-0.703-0.008-1.401,0.021-2.095c0.898,0.527,0.649,1.709,1.189,2.485c1.221,2.007,3.662,2.72,5.847,3.076
			c-0.71,0.469-1.46,0.869-2.236,1.211c0.41,1.05,0.721,2.124,0.936,3.228c-1.614-0.942-3.398-1.655-4.673-3.086
			C64.699,40.496,64.313,37.088,64.704,34.119z"/>
	</g>
	<g>
		<radialGradient id="SVGID_7_" cx="46.7959" cy="54.0166" r="50.1035" gradientUnits="userSpaceOnUse">
			<stop  offset="0" style="stop-color:#ECBA31"/>
			<stop  offset="0.3576" style="stop-color:#CB2229"/>
			<stop  offset="0.6606" style="stop-color:#A22430"/>
			<stop  offset="1" style="stop-color:#540000"/>
		</radialGradient>
		<path fill="url(#SVGID_7_)" d="M33.542,37.332c6.561-5.063,16.084-5.703,23.426-1.978c-0.669,0.532-1.348,1.055-2.015,1.602
			c-4.302-2.144-9.265-3.008-14.019-2.188C38.342,35.179,35.859,36.111,33.542,37.332z"/>
		<radialGradient id="SVGID_8_" cx="46.7969" cy="54.0312" r="50.1264" gradientUnits="userSpaceOnUse">
			<stop  offset="0" style="stop-color:#ECBA31"/>
			<stop  offset="0.3576" style="stop-color:#CB2229"/>
			<stop  offset="0.6606" style="stop-color:#A22430"/>
			<stop  offset="1" style="stop-color:#540000"/>
		</radialGradient>
		<path fill="url(#SVGID_8_)" d="M35.435,37.332c3.474-1.562,7.329-2.075,11.11-1.919c-2.08,0.308-4.189,0.508-6.196,1.157
			c-6.04,1.821-11.32,6.353-13.571,12.31c-0.811,1.953-1.053,4.058-1.333,6.133c-1.072,1.914-1.592,4.077-1.585,6.27
			c-1.511-4.712-1.04-10.005,1.221-14.404C27.246,42.586,31.047,39.227,35.435,37.332z"/>
		<radialGradient id="SVGID_9_" cx="46.8003" cy="54.0273" r="50.1187" gradientUnits="userSpaceOnUse">
			<stop  offset="0" style="stop-color:#ECBA31"/>
			<stop  offset="0.3576" style="stop-color:#CB2229"/>
			<stop  offset="0.6606" style="stop-color:#A22430"/>
			<stop  offset="1" style="stop-color:#540000"/>
		</radialGradient>
		<path fill="url(#SVGID_9_)" d="M58.643,39.329c0.396-0.771,0.803-1.533,1.242-2.28c0.708,0.522,1.396,1.069,2.075,1.626
			c-0.278,0.957-0.603,1.89-0.954,2.817C60.249,40.735,59.458,40.018,58.643,39.329z"/>
		<radialGradient id="SVGID_10_" cx="46.7983" cy="54.0332" r="50.1262" gradientUnits="userSpaceOnUse">
			<stop  offset="0" style="stop-color:#ECBA31"/>
			<stop  offset="0.3576" style="stop-color:#CB2229"/>
			<stop  offset="0.6606" style="stop-color:#A22430"/>
			<stop  offset="1" style="stop-color:#540000"/>
		</radialGradient>
		<path fill="url(#SVGID_10_)" d="M64.714,46.673c0.186-1.519,0.281-3.052,0.374-4.58c3.955,5.273,5.449,12.295,3.936,18.716
			c-0.317-1.357-0.921-2.603-1.678-3.76C67.189,53.455,66.403,49.866,64.714,46.673z"/>
		<radialGradient id="SVGID_11_" cx="46.7969" cy="54.0312" r="50.1234" gradientUnits="userSpaceOnUse">
			<stop  offset="0" style="stop-color:#ECBA31"/>
			<stop  offset="0.3576" style="stop-color:#CB2229"/>
			<stop  offset="0.6606" style="stop-color:#A22430"/>
			<stop  offset="1" style="stop-color:#540000"/>
		</radialGradient>
		<path fill="url(#SVGID_11_)" d="M39.86,49.827c4.134-0.757,8.396-0.679,12.52,0.117c0.081,1.025,0.083,2.061,0.073,3.091
			c-4.18-0.84-8.522-0.908-12.705-0.049C39.738,51.932,39.748,50.877,39.86,49.827z"/>
		<radialGradient id="SVGID_12_" cx="46.7969" cy="54.0361" r="50.129" gradientUnits="userSpaceOnUse">
			<stop  offset="0" style="stop-color:#ECBA31"/>
			<stop  offset="0.3576" style="stop-color:#CB2229"/>
			<stop  offset="0.6606" style="stop-color:#A22430"/>
			<stop  offset="1" style="stop-color:#540000"/>
		</radialGradient>
		<path fill="url(#SVGID_12_)" d="M30.407,53.558c2.3-1.646,4.983-2.617,7.674-3.398c-0.203,4.702,1.706,9.565,5.236,12.72
			c-0.254-0.396-0.513-0.786-0.767-1.167c2.305-0.43,4.671-0.42,6.973,0.034c-0.195,0.337-0.383,0.674-0.576,1.016
			c3.345-3.174,5.337-7.793,5.132-12.417c1.074,0.288,2.137,0.63,3.167,1.05c-0.278,0.488-0.542,0.991-0.794,1.499
			c0.623-0.317,1.248-0.645,1.805-1.074c0.212,0.093,0.642,0.283,0.859,0.376c0.012,1.133,0.095,2.256,0.229,3.379
			c-1.406-0.747-2.874-1.382-4.393-1.865c-0.354,1.26-0.803,2.495-1.357,3.682c2.503,1.084,4.837,2.681,6.482,4.893
			c-0.171,0.308-0.342,0.62-0.513,0.928c-1.88-1.968-4.222-3.477-6.797-4.365c-0.696,1.118-1.517,2.153-2.466,3.071
			c2.632,0.737,5.186,2.002,7.053,4.038c-0.095,0.215-0.28,0.645-0.376,0.854c3.657-2.588,6.194-6.553,7.366-10.845
			c1.06,1.401,2.031,2.944,2.312,4.712c0.43,2.329-0.347,4.766-1.841,6.572c0.483-1.309,1.067-2.671,0.813-4.097
			c-0.154-1.294-0.76-2.466-1.468-3.535c-0.847,1.562-1.901,2.998-3.093,4.312c0.479,1.128,0.781,2.319,0.845,3.545
			c-0.413-1.021-0.818-2.046-1.414-2.974c-0.825,0.757-1.691,1.465-2.603,2.119c0.955,1.328,1.565,2.9,1.67,4.546
			c-0.578-1.479-1.304-2.905-2.434-4.043c-0.308,0.127-0.608,0.254-0.913,0.376c0.166-0.171,0.493-0.503,0.659-0.669
			c-4.15-3.633-10.225-4.814-15.472-3.193c-2.285,0.674-4.341,2.061-5.788,3.96c-0.161-0.215-0.486-0.64-0.647-0.85
			c1.406-2.524,4.038-4.072,6.753-4.834c-0.913-0.952-1.721-2.002-2.424-3.115c-2.537,0.981-4.861,2.612-6.321,4.941
			c-0.212-0.41-0.422-0.82-0.635-1.226c1.289-2.471,3.587-4.243,6.108-5.322c-0.52-1.143-0.923-2.329-1.25-3.545
			c-2.373,0.767-4.67,1.851-6.623,3.418C30.441,55.896,30.393,54.729,30.407,53.558z"/>
		<radialGradient id="SVGID_13_" cx="46.7842" cy="54.0303" r="50.1744" gradientUnits="userSpaceOnUse">
			<stop  offset="0" style="stop-color:#ECBA31"/>
			<stop  offset="0.3576" style="stop-color:#CB2229"/>
			<stop  offset="0.6606" style="stop-color:#A22430"/>
			<stop  offset="1" style="stop-color:#540000"/>
		</radialGradient>
		<path fill="url(#SVGID_13_)" d="M61.509,53.621c0.381,0.273,0.759,0.542,1.147,0.815c-0.115,1.011-0.317,2.012-0.56,3.003
			c-0.349-0.269-0.7-0.532-1.052-0.801C61.159,55.623,61.313,54.622,61.509,53.621z"/>
		<radialGradient id="SVGID_14_" cx="46.7983" cy="54.0352" r="50.1267" gradientUnits="userSpaceOnUse">
			<stop  offset="0" style="stop-color:#ECBA31"/>
			<stop  offset="0.3576" style="stop-color:#CB2229"/>
			<stop  offset="0.6606" style="stop-color:#A22430"/>
			<stop  offset="1" style="stop-color:#540000"/>
		</radialGradient>
		<path fill="url(#SVGID_14_)" d="M25.693,60.984c0.1-2.178,1.245-4.131,2.678-5.703c0.633,4.37,2.656,8.657,6.033,11.567
			c-0.154,0.146-0.303,0.293-0.452,0.444c-0.588-0.571-1.201-1.108-1.818-1.646c-0.132,0.811-0.237,1.616-0.327,2.437
			c-0.239-1.011-0.283-2.046-0.208-3.071c-1.369-1.626-2.492-3.438-3.384-5.361c-0.72,1.357-1.294,2.891-1.003,4.443
			c0.234,1.899,1.423,3.462,2.624,4.868C27.393,67.088,25.488,64.163,25.693,60.984z"/>
		<radialGradient id="SVGID_15_" cx="46.7959" cy="54.0303" r="50.1519" gradientUnits="userSpaceOnUse">
			<stop  offset="0" style="stop-color:#ECBA31"/>
			<stop  offset="0.3576" style="stop-color:#CB2229"/>
			<stop  offset="0.6606" style="stop-color:#A22430"/>
			<stop  offset="1" style="stop-color:#540000"/>
		</radialGradient>
		<path fill="url(#SVGID_15_)" d="M40.368,56.556c3.701-1.04,7.69-0.884,11.372,0.176c-0.173,0.537-0.356,1.074-0.534,1.616
			c-3.359-0.854-6.914-0.923-10.281-0.063C40.737,57.708,40.549,57.132,40.368,56.556z"/>
		<radialGradient id="SVGID_16_" cx="46.7979" cy="54.0342" r="50.1282" gradientUnits="userSpaceOnUse">
			<stop  offset="0" style="stop-color:#ECBA31"/>
			<stop  offset="0.3576" style="stop-color:#CB2229"/>
			<stop  offset="0.6606" style="stop-color:#A22430"/>
			<stop  offset="1" style="stop-color:#540000"/>
		</radialGradient>
		<path fill="url(#SVGID_16_)" d="M67.15,59.725c1.482,2.49,1.565,5.737,0.154,8.276c-1.733,3.169-4.896,5.254-8.135,6.646
			c-5.931,2.461-12.583,2.9-18.872,1.812c-4.561-0.859-9.165-2.612-12.469-5.981c-1.973-2.002-3.228-4.863-2.744-7.69
			c0.643,4.331,4.012,7.661,7.739,9.624c6.069,3.179,13.276,3.838,19.932,2.446c4.766-1.055,9.59-3.247,12.549-7.271
			C66.999,65.359,67.653,62.469,67.15,59.725z"/>
		<radialGradient id="SVGID_17_" cx="46.7915" cy="54.0244" r="50.1491" gradientUnits="userSpaceOnUse">
			<stop  offset="0" style="stop-color:#ECBA31"/>
			<stop  offset="0.3576" style="stop-color:#CB2229"/>
			<stop  offset="0.6606" style="stop-color:#A22430"/>
			<stop  offset="1" style="stop-color:#540000"/>
		</radialGradient>
		<path fill="url(#SVGID_17_)" d="M34.377,71.751c-0.222-1.533-0.236-3.135,0.376-4.575c0.633,0.566,1.309,1.094,1.927,1.675
			c-0.477-0.21-0.947-0.439-1.419-0.664C34.741,69.31,34.541,70.53,34.377,71.751z"/>
		<radialGradient id="SVGID_18_" cx="46.7964" cy="54.0293" r="50.1336" gradientUnits="userSpaceOnUse">
			<stop  offset="0" style="stop-color:#ECBA31"/>
			<stop  offset="0.3576" style="stop-color:#CB2229"/>
			<stop  offset="0.6606" style="stop-color:#A22430"/>
			<stop  offset="1" style="stop-color:#540000"/>
		</radialGradient>
		<path fill="url(#SVGID_18_)" d="M59.619,77.508c2.048-1.304,3.755-3.042,5.256-4.932c-1.428,3.687-4.411,6.606-7.858,8.447
			c-5.244,2.788-11.66,3.184-17.261,1.27c-4.321-1.499-8.24-4.502-10.291-8.643c3.064,3.511,7.28,5.967,11.831,6.973
			C47.492,82.02,54.277,81.009,59.619,77.508z"/>
	</g>
</g>
</svg>
