<?xml version="1.0" encoding="utf-8"?>
<!-- Generator: Adobe Illustrator 18.1.0, SVG Export Plug-In . SVG Version: 6.00 Build 0)  -->
<svg version="1.1" id="Layer_1" xmlns="http://www.w3.org/2000/svg" xmlns:xlink="http://www.w3.org/1999/xlink" x="0px" y="0px"
	 viewBox="0 0 150 150" enable-background="new 0 0 150 150" xml:space="preserve">
<g>
	<g>
		<g>
			<g>
				<g>
					<g>
						<g>
							<path fill="#F5BE17" d="M70.7,49l5.2-2.2c1.2-1,2.1-2.3,2.7-3.8c0.8-2.1,1.1-5.8-0.7-7.5c-0.8-0.7-2.3-1.1-3.2-0.3
								c-1,1-1.4,2.3-1.8,3.6c-0.6,1.8-0.9,3.6-1.1,5.4c-1.4-1.2-2.9-2.2-4.5-3.1c-1.2-0.6-2.4-1.3-3.8-1.3c-1.3,0-2,1.4-2.1,2.5
								c-0.2,2.5,2.7,5,4.7,5.9C67.6,48.9,69.2,49.2,70.7,49 M74.6,42c0.2-0.8,0.4-1.7,0.6-2.5c0.1-0.4,0.3-0.8,0.4-1.2
								c0.2-0.4,0.5-1.5,0.9-0.6c0.7,1.4,0.3,3.4-0.2,4.8c-0.4,1.1-1.2,2-2.2,2.8C74.2,44.2,74.4,43.1,74.6,42 M63.8,42.9
								c-0.3-1,0.7-0.4,1.1-0.2c0.4,0.2,0.7,0.3,1.1,0.5c0.8,0.4,1.5,0.8,2.2,1.3c0.9,0.6,1.8,1.3,2.6,2.1c-1.2,0.2-2.4,0.1-3.5-0.4
								C66,45.6,64.3,44.4,63.8,42.9"/>
						</g>
					</g>
				</g>
			</g>
		</g>
	</g>
	<g>
		<g>
			<g>
				<g>
					<g>
						<g>
							<polygon fill="#56883D" points="97.5,55.3 84.5,60.6 89.1,71.8 82.9,70.5 79.4,75.8 74.8,64.6 61.2,70.2 69.5,90.3 
								105.8,75.4 							"/>
						</g>
					</g>
				</g>
			</g>
		</g>
	</g>
	<g>
		<g>
			<g>
				<g>
					<g>
						<g>
							<path fill="#E37926" d="M53.5,56.1L59,69.5l1.7-0.7L97,54l1.7-0.7l-5.5-13.4L53.5,56.1z"/>
						</g>
					</g>
				</g>
			</g>
		</g>
	</g>
	<g>
		<g>
			<g>
				<g>
					<g>
						<g>
							<path fill="#56883D" d="M77,112.6c0,5.2-4.2,9.3-9.3,9.3c-5.2,0-9.3-4.2-9.3-9.3c0-5.2,4.2-9.3,9.3-9.3
								C72.9,103.2,77,107.4,77,112.6z"/>
						</g>
					</g>
				</g>
			</g>
		</g>
	</g>
	<g>
		<g>
			<g>
				<g>
					<g>
						<g>
							<path fill="#56883D" d="M121.5,102.3c0,5.2-4.2,9.3-9.3,9.3c-5.2,0-9.3-4.2-9.3-9.3c0-5.2,4.2-9.3,9.3-9.3
								C117.3,93,121.5,97.2,121.5,102.3z"/>
						</g>
					</g>
				</g>
			</g>
		</g>
	</g>
	<g>
		<g>
			<g>
				<g>
					<g>
						<g>
							<path fill="#DC4D26" d="M125.9,46.9c-0.3-2-2.2-3.2-4.2-2.9L110,46.1c0.1,0.1,0.1,0.2,0.2,0.3c-0.1,0-0.1,0-0.2,0
								c-2,0.2-3.4,1.7-3.3,3.4l3,32.4L63.5,94.4L37.9,43.8c-0.6-1.2-1.8-1.9-3.1-2l-18.8-0.3c-1.1-1.6-2.9-2.7-4.9-2.7
								c-3.3,0-5.9,2.7-5.9,5.9c0,3.3,2.7,5.9,5.9,5.9c1.8,0,3.4-0.8,4.4-2l17,0.2l26,51.2c0.8,1.5,2.5,2.3,4.1,1.8l54.1-14.1
								c0,0,0,0,0-0.1c0.3,0,0.5,0,0.8,0l-3.3-35.2l8.8-1.6C125,50.7,126.3,48.8,125.9,46.9z"/>
						</g>
					</g>
				</g>
			</g>
		</g>
	</g>
	<g>
		<g>
			<g>
				<g>
					<g>
						<g>
							<path fill="#F5BE17" d="M136.9,76.6c7.6-11,4.9-26-6.1-33.6c5.4,13.5-7.1,24.5-7.1,24.5l-6.6-4.6l4.1,22.4l22.4-4.1
								L136.9,76.6z M136.9,76.6"/>
						</g>
					</g>
				</g>
			</g>
		</g>
	</g>
</g>
</svg>
