<?xml version="1.0" encoding="utf-8"?>
<!-- Generator: Adobe Illustrator 18.1.0, SVG Export Plug-In . SVG Version: 6.00 Build 0)  -->
<svg version="1.1" id="Layer_1" xmlns="http://www.w3.org/2000/svg" xmlns:xlink="http://www.w3.org/1999/xlink" x="0px" y="0px"
	 viewBox="0 0 2000 2000" enable-background="new 0 0 2000 2000" xml:space="preserve">
<g>
	<path fill="none" d="M1396.6,905c-24-43-27.2-91.9-13.2-135l0.1,0c-0.4-0.5-0.8-0.9-1.1-1.4c-43.9-10.9-83.5-39.5-107.3-82.4
		c-27.8-50-27.7-107.8-5-155.4c-31.1,43.5-85.6,71.6-143.6,70.6c-49.2-0.8-87.4-22.4-126.4-56v0c0,0.1,1.6,0.2,1.1,0.2
		c-31.4,32.6-74.5,52.6-123.6,51.8c-57.2-0.9-106.5-29.9-136.4-73.4c22.1,48.7,20.9,104.4-8.9,154.1c-25.3,42.2-65.6,75.9-110,75.9
		h0c-0.3,13-0.5,4.1-0.7,4.7c12.5,43.5,7.6,93.6-17.7,135.7c-29.4,49.1-79.5,78.7-132.1,82.8c53.2,5.2,103.4,36.3,131.6,87
		c23.9,43,27.2,92.1,13.2,135.2l0,0.1c0.3,0.5,0.7,1,1.1,1.4c43.9,10.9,83.5,39.5,107.4,82.4c27.8,50,27.7,107.9,5,155.5
		c31.1-43.5,85.6-71.6,143.7-70.6c49.2,0.8,87.4,22.4,126.4,56v0.1c0-0.1-1.7-0.2-1.1-0.3c31.4-32.5,74.5-52.6,123.6-51.8
		c57.2,0.9,106.5,29.9,136.4,73.4c-22.1-48.7-21-107.5,8.8-157.2c25.3-42.2,65.8-69.5,110.1-78.9l0,0.1c0.2-0.6,0.4-1.1,0.6-1.6
		c-12.5-43.5-7.6-92.1,17.6-134.2c29.4-49.1,79.5-77.9,132.1-82.1C1474.9,986.3,1424.8,955.7,1396.6,905z M1125.1,1221.5
		c-111.3,47.4-239.9-4.4-287.3-115.7c-9-21-14.4-42.6-16.5-64.2c2.4,11.5,5.9,23,10.7,34.3c39.9,93.5,148,137.1,241.4,97.2
		c93.5-39.8,137-148,97.2-241.5c-39.8-93.5-147.9-137-241.5-97.2c-8.5,3.6-16.4,8-24,12.6c14.6-11.2,30.5-21,48.2-28.6
		c111.3-47.4,239.9,4.4,287.3,115.6C1288.2,1045.5,1236.4,1174.1,1125.1,1221.5z M872.8,1001.9c0-75.6,61.3-136.9,136.9-136.9
		c75.7,0,137,61.3,137,136.9c0,75.6-61.3,137-137,137C934.1,1138.9,872.8,1077.5,872.8,1001.9z M1301.9,1079.7
		c3.2-16.4,5-33.3,5-50.7c0-144-116.7-260.7-260.6-260.7c-144,0-260.7,116.7-260.7,260.7c0,143.9,116.7,260.6,260.7,260.6
		c13.1,0,25.8-1.3,38.4-3.1c-25.2,6.6-51.5,10.5-78.7,10.5c-171.3,0-310.2-138.9-310.2-310.1c0-171.3,138.9-310.2,310.2-310.2
		c171.3,0,310.2,138.9,310.2,310.2C1316.1,1019.2,1311.1,1050.3,1301.9,1079.7z"/>
	<path fill="#BA6065" d="M878.9,597.3c49.1,0.8,90.8-19.2,122.2-51.8c0.5-0.1-1.1-0.2-1.1-0.2v0c39,33.7,77.1,55.3,126.4,56
		c58,0.9,111-27.1,142.2-70.6c4-8.4,9.5-16.5,15-24.2c10.2-21.1,16.6-44.5,17.1-69.4c0.3-21.2-3.2-41.6-10.2-60.4
		c-34.1-112.2-168.5-159.8-277.8-265.1c0,0-0.5,0.6-1.5,1.6l0.1-1.6c-112.6,101.7-248.5,145-286.2,256c-7.6,18.5-12,38.8-12.3,60
		c-0.4,25.6,5.2,49.9,15.3,71.8c5.3,7.8,10,16,13.9,24.5C771.7,567.4,821.7,596.4,878.9,597.3z"/>
	<path fill="#FF5D60" d="M471.8,978c52.6-4.1,102.7-33,132.1-82.1c25.2-42.1,30.1-93.7,17.7-137.2c0.2-0.5,0.4,8.3,0.7-4.7h0
		c44.3,0,85-33.6,110.3-75.9c29.8-49.8,31.3-107,9.2-155.7c-3.9-8.5-8.6-15.9-13.9-23.8c-13.1-19.4-30.4-35.9-51.7-48.7
		c-18.2-10.9-37.7-17.7-57.5-21C504.5,402.4,396,495.2,250.2,537.1c0,0,0.2,0.9,0.6,2.2l-1.4-0.8c31.8,148.4,1.3,287.7,78.6,375.9
		c12.3,15.8,27.6,29.8,45.8,40.7c22,13.2,45.9,20.5,70,22.6C453.1,977,462.5,977.1,471.8,978z"/>
	<path fill="#BA6065" d="M725,1283.3c-23.9-42.9-63.5-71.4-107.4-82.4c-0.4-0.4-0.7-0.9-1.1-1.4l0,0c14-43.1,10.7-92-13.2-135
		c-28.2-50.7-78.3-81.4-131.6-86.6c-9.3-0.9-18.6-0.9-28-0.2c-23.4,1.7-46.7,8.2-68.5,20.3c-18.5,10.3-34.3,23.7-47.1,39.2
		c-80.1,85.6-54.1,225.9-90.7,373.2c0,0,0.8,0.2,2.1,0.6l-1.4,0.8c144.4,46.6,249.8,142.7,364.8,119.9c19.9-2.7,39.6-9,58.1-19.3
		c22.5-12.5,40.7-29.6,54.6-49.3c4.1-8.4,8.8-16.5,14.2-24.1C752.7,1391.2,752.8,1333.3,725,1283.3z"/>
	<path fill="#FF5D60" d="M1121,1372.2c-49.1-0.8-90.7,19.2-122.2,51.8c-0.6,0.1,1.1,0.2,1.1,0.3v-0.1c-39-33.7-77.2-55.3-126.4-56
		c-58-0.9-111.1,27.1-142.2,70.6c-5.4,7.6-10.8,15.7-14.9,24.1c-10.3,21.1-16.7,44.6-17.1,69.5c-0.4,21.2,3.2,41.6,10.2,60.4
		c34.1,112.2,168.5,159.8,277.7,265.1c0,0,0.6-0.6,1.5-1.6l0,1.6c112.6-101.8,248.6-145,286.2-256c7.6-18.6,12-38.8,12.3-60
		c0.4-25.7-5.2-50-15.4-71.9c-5.3-7.8-9.9-15.9-13.8-24.4C1228.3,1402.1,1178.3,1373.1,1121,1372.2z"/>
	<path fill="#BA6065" d="M1671.9,1055.1c-12.3-15.8-27.6-29.8-45.8-40.7c-22-13.2-45.9-20.4-69.9-22.6c-9.4,0.7-18.8,0.7-28.1-0.2
		c-52.6,4.1-102.7,33-132.1,82.1c-25.2,42.1-30.1,90.7-17.6,134.2c-0.2,0.5-0.4,1.1-0.6,1.6l-0.1-0.1c-44.3,9.4-85,36.7-110.3,78.9
		c-29.8,49.8-31.3,108.5-9.2,157.2c3.9,8.5,8.5,16.6,13.8,24.4c13.1,19.4,30.4,36.4,51.8,49.2c18.2,10.9,37.7,17.9,57.5,21.2
		c114.2,26.6,222.7-66.1,368.5-108c0,0-0.2-0.8-0.6-2.1l1.4,0.8C1718.7,1282.7,1749.3,1143.3,1671.9,1055.1z"/>
	<path fill="#FF5D60" d="M1275,686.2c23.8,42.9,63.4,71.5,107.3,82.4c0.4,0.4,0.7,0.9,1.1,1.4l-0.1,0c-14,43.1-10.7,92,13.2,135
		c28.2,50.7,78.3,81.4,131.6,86.6c9.3,0.9,18.7,0.9,28.1,0.2c23.4-1.7,46.7-8.2,68.4-20.3c18.5-10.3,34.3-23.7,47.1-39.2
		c80.2-85.6,54.1-225.9,90.7-373.2c0,0-0.8-0.2-2.1-0.5l1.4-0.8c-144.4-46.6-249.8-142.8-364.8-119.9c-19.9,2.7-39.6,9-58.2,19.3
		c-22.4,12.5-40.7,29.5-54.6,49.2c-5.4,7.7-10.2,15.7-14.2,24.2C1247.2,578.4,1247.2,636.2,1275,686.2z"/>
	<path fill="#FFC069" d="M1005.9,676.6c-171.3,0-310.2,138.9-310.2,310.2c0,171.3,138.9,310.1,310.2,310.1
		c27.2,0,53.5-3.9,78.7-10.5c-12.5,1.8-25.3,3.1-38.4,3.1c-144,0-260.7-116.7-260.7-260.6c0-144,116.7-260.7,260.7-260.7
		c143.9,0,260.6,116.7,260.6,260.7c0,17.3-1.8,34.3-5,50.7c9.2-29.3,14.2-60.5,14.2-92.8C1316.1,815.5,1177.2,676.6,1005.9,676.6z"
		/>
	<path fill="#FFC069" d="M953.4,818.6c-17.7,7.5-33.7,17.3-48.2,28.6c7.7-4.7,15.6-9,24-12.6c93.5-39.8,201.6,3.7,241.5,97.2
		c39.8,93.5-3.7,201.6-97.2,241.5c-93.5,39.8-201.6-3.7-241.4-97.2c-4.8-11.3-8.3-22.7-10.7-34.3c2.1,21.6,7.5,43.2,16.5,64.2
		c47.4,111.3,176,163.1,287.3,115.7c111.3-47.4,163-176,115.6-287.3C1193.3,823,1064.7,771.2,953.4,818.6z"/>
	<path fill="#FFE1B8" d="M1009.7,1138.9c75.7,0,137-61.3,137-137c0-75.6-61.3-136.9-137-136.9c-75.6,0-136.9,61.3-136.9,136.9
		C872.8,1077.5,934.1,1138.9,1009.7,1138.9z"/>
</g>
</svg>
