<?xml version="1.0" encoding="utf-8"?>
<!-- Generator: Adobe Illustrator 18.1.0, SVG Export Plug-In . SVG Version: 6.00 Build 0)  -->
<svg version="1.1" id="Layer_1" xmlns="http://www.w3.org/2000/svg" xmlns:xlink="http://www.w3.org/1999/xlink" x="0px" y="0px"
	 viewBox="0 0 150 150" enable-background="new 0 0 150 150" xml:space="preserve">
<g>
	<path fill="#5FC2E8" d="M10.6,75.5c0-0.6,0.1-1.2,0.1-1.9C10.7,74.3,10.7,74.9,10.6,75.5z"/>
	<path fill="#5FC2E8" d="M12.2,93.6c-0.1-0.6-0.3-1.2-0.4-1.8C11.9,92.4,12,93,12.2,93.6z"/>
	<path fill="#5FC2E8" d="M11.1,70.1c0.2-1.7,0.5-3.5,0.9-5.2C11.7,66.6,11.4,68.4,11.1,70.1z"/>
	<path fill="#5FC2E8" d="M135.8,52.4c0.2,0.4,0.3,0.7,0.5,1.1C136.2,53.1,136,52.8,135.8,52.4z"/>
	<path fill="#5FC2E8" d="M10.5,79.1c0-0.9,0-1.8,0.1-2.7C10.6,77.3,10.5,78.2,10.5,79.1z"/>
	<path fill="#5FC2E8" d="M11.7,91.4c-0.1-0.5-0.2-1.1-0.3-1.6C11.5,90.3,11.6,90.9,11.7,91.4z"/>
	<path fill="#5FC2E8" d="M11.3,89.1c-0.1-0.5-0.2-1-0.2-1.5C11.2,88.2,11.2,88.7,11.3,89.1z"/>
	<path fill="#5FC2E8" d="M136.7,54.3c0.1,0.3,0.3,0.7,0.4,1C136.9,55,136.8,54.7,136.7,54.3z"/>
	<path fill="#5FC2E8" d="M11,86.9c-0.1-0.4-0.1-0.9-0.2-1.3C10.9,86,10.9,86.4,11,86.9z"/>
	<path fill="#5FC2E8" d="M10.8,84.6c0-0.4-0.1-0.8-0.1-1.2C10.7,83.8,10.7,84.2,10.8,84.6z"/>
	<path fill="#5FC2E8" d="M10.6,82.2c0-0.3,0-0.6,0-0.9C10.6,81.6,10.6,81.9,10.6,82.2z"/>
	<path fill="#5FC2E8" d="M10.8,72.8c0.1-0.6,0.1-1.2,0.2-1.8C11,71.5,10.9,72.1,10.8,72.8z"/>
	<path fill="#5FC2E8" d="M140.5,67.4c0.1,0.3,0.1,0.6,0.1,0.9C140.6,67.9,140.5,67.6,140.5,67.4z"/>
	<path fill="#5FC2E8" d="M141.1,71.6c0,0.3,0.1,0.6,0.1,0.9C141.2,72.2,141.1,71.9,141.1,71.6z"/>
	<path fill="#5FC2E8" d="M140.8,69.5c0,0.3,0.1,0.6,0.1,0.9C140.9,70.1,140.8,69.8,140.8,69.5z"/>
	<path fill="#5FC2E8" d="M141.4,76.2c0,0.2,0,0.5,0,0.7C141.5,76.6,141.4,76.4,141.4,76.2z"/>
	<path fill="#5FC2E8" d="M141.3,73.8c0,0.3,0,0.6,0.1,0.8C141.3,74.4,141.3,74.1,141.3,73.8z"/>
	<path fill="#5FC2E8" d="M138.8,60.3c0.1,0.3,0.2,0.6,0.3,1C139,60.9,138.9,60.6,138.8,60.3z"/>
	<path fill="#5FC2E8" d="M137.4,56.3c0.1,0.3,0.3,0.7,0.4,1C137.7,56.9,137.5,56.6,137.4,56.3z"/>
	<path fill="#5FC2E8" d="M138.1,58.2c0.1,0.3,0.2,0.7,0.3,1C138.3,58.9,138.2,58.6,138.1,58.2z"/>
	<path fill="#5FC2E8" d="M139.4,62.5c0.1,0.3,0.1,0.5,0.2,0.8C139.5,63,139.4,62.7,139.4,62.5z"/>
	<path fill="#5FC2E8" d="M140,65.3c0.1,0.3,0.1,0.5,0.2,0.8C140.1,65.8,140.1,65.5,140,65.3z"/>
	<path fill="#5FC2E8" d="M135.4,51.4c-0.4-0.8-0.7-1.5-1.1-2.3C134.6,49.8,135,50.5,135.4,51.4C135.3,51.3,135.3,51.3,135.4,51.4z"
		/>
	<path fill="#5FC2E8" d="M13.2,60.6c0.1-0.3,0.2-0.6,0.2-0.8c-0.2,0.6-0.4,1.2-0.5,1.8c0-0.1,0.1-0.2,0.1-0.3
		C13.1,61,13.1,60.8,13.2,60.6z"/>
	<polygon fill="#5FC2E8" points="111.9,133.7 112.2,133.7 111.9,133.7 	"/>
	<path fill="#5FC2E8" d="M12.4,63.4c0.1-0.3,0.2-0.7,0.2-1c-0.2,0.6-0.3,1.2-0.4,1.8c0.1-0.2,0.1-0.4,0.2-0.7
		C12.4,63.5,12.4,63.4,12.4,63.4z"/>
	<path fill="#5FC2E8" d="M14.5,56.6c7-3.3,21.2-7.5,38.2,1.1c21.3,10.7,52-19.7,81.5-8.8c-6.1-11.8-15.7-21.4-27.4-27.6
		c6.5-1.2,10.4-2.7,10.4-4.4c0-3.6-18-6.6-40.1-6.6s-40.1,3-40.1,6.6c0,1.6,3.3,3,8.9,4.1C30.7,28.8,19,42.5,13.7,59c0,0,0,0,0-0.1
		C13.9,58.2,14.2,57.4,14.5,56.6z M77.6,12.7c14.9,0,26.9,1.7,26.9,3.7c0,2.1-12.1,3.7-26.9,3.7c-14.9,0-26.9-1.7-26.9-3.7
		C50.7,14.4,62.7,12.7,77.6,12.7z"/>
	<path fill="#5FC2E8" d="M38.7,132.9c-0.2-0.1-0.3-0.2-0.5-0.4c-1.5-1.1-3-2.2-4.4-3.4c0,0,0,0-0.1-0.1c-10.1-8.5-17.5-20-21-33.1
		c4.3,16.1,14.5,29.8,28.2,38.5c0,0,0,0,0,0C40.2,133.9,39.4,133.4,38.7,132.9z"/>
	<path fill="#5FC2E8" d="M12.7,95.8c-0.2-0.6-0.3-1.3-0.5-1.9C12.4,94.5,12.5,95.1,12.7,95.8z"/>
	<path fill="#B1DDF2" d="M13.7,59C13.7,59,13.7,59,13.7,59c-0.1,0.3-0.2,0.5-0.2,0.8c-0.1,0.3-0.2,0.6-0.2,0.8
		C13.4,60,13.5,59.5,13.7,59z"/>
	<path fill="#B1DDF2" d="M13,61.3c0,0.1-0.1,0.2-0.1,0.3c-0.1,0.3-0.2,0.6-0.2,0.8c-0.1,0.3-0.2,0.7-0.2,1
		C12.6,62.7,12.8,62,13,61.3z"/>
	<path fill="#B1DDF2" d="M46.4,111.7c0.2-0.3,0.5-0.6,0.8-0.9c0.9-0.9,1.7-1.9,2.4-2.9c-0.7-0.7-1.4-1.5-2-2.2
		C47.7,107.8,47.3,109.8,46.4,111.7z"/>
	<path fill="#B1DDF2" d="M135.3,51.3c-0.4-0.8-0.7-1.5-1.1-2.2c0-0.1-0.1-0.1-0.1-0.2C134.6,49.7,134.9,50.5,135.3,51.3z"/>
	<path fill="#B1DDF2" d="M40.9,134.3c-0.8-0.5-1.5-1-2.2-1.5C39.4,133.4,40.2,133.9,40.9,134.3C40.9,134.3,40.9,134.3,40.9,134.3z"
		/>
	<path fill="#B1DDF2" d="M33.8,129.1c1.4,1.2,2.9,2.3,4.4,3.4C36.7,131.4,35.2,130.3,33.8,129.1z"/>
	<path fill="#B1DDF2" d="M33.7,129c-0.7-0.6-1.5-1.3-2.2-1.9c0.3-0.2,0.6-0.4,0.9-0.7c-0.7-1.3-2-4.6,0.8-7.4
		c3.5-3.5,3.8-8.4,1.7-11c-2.1-2.6-1.9-6-0.3-7.9c1.7-1.9,1.1-3,1.1-3s1.9,1.5,0.4,3.8c-1.4,2.3-1.6,4.1,0.3,6.4
		c1.9,2.3,2.5,7.5-0.4,10.8c-1.9,2.1-1.8,5.2-1.4,7c0.8-0.5,1.7-0.9,2.7-1.4c-0.2-2.3,0.4-4.9,2.8-7.2c4.9-4.9,5.9-11.2,4-15.7
		c-0.5-0.8-1-1.6-1.4-2.4c-0.9-1.1-1.5-2.3-1.9-3.6c-0.9-1.9-1.4-3.1-1.4-3.1s0.4-1.1,1.3-2.9c0.4-1.2,0.9-2.2,1.7-3.1
		c0.1-0.1,0.2-0.3,0.4-0.4c0.3-0.4,0.6-0.9,0.9-1.3c1.1-2,0.5-3.1,0.5-3.1s0.5,0.4,1,1.2c0.8-1,1.6-2,2.6-3
		c-0.4-3.5,0.7-6.9,2.7-9.3c3.6-4.2,2.3-6.5,2.3-6.5s4,3.3,1,8.2c-0.9,1.4-1.5,2.7-1.9,4c2.6-2,5.7-3.7,9.4-4.9
		c0.8-2.1,3-5.7,8.6-6.1c8.1-0.5,13.2,2.5,13.2,3.5c0,0.7-2,2.2-2.9,3.2c9.8,3.9,17.6,12.3,21.5,16.3c0-2.3,0.7-4.4,2.1-5.9
		c2.7-3.1,1.7-4.9,1.7-4.9s3,2.4,0.7,6.2c-1.5,2.4-2.1,4.5-1.6,6.7c1.3-0.6,4.1-3.2,7.1-5.8c-0.2-0.4-0.5-0.8-0.8-1.1
		c-4.6-5.8-4.2-13-0.6-17.3c3.6-4.2,2.3-6.5,2.3-6.5s4,3.3,1,8.2c-3.1,5-3.5,9,0.6,14c0.1,0.1,0.2,0.2,0.2,0.3
		c2.7-2.3,5.3-4.1,6.7-4.1c0.5,0,0.9,0.4,1.3,1.1c2.1-2.8,1.2-4.2,1.2-4.2s3,2.4,0.7,6.2c-0.3,0.5-0.6,1.1-0.9,1.6
		c0.4,2.3,0.7,5.1,0.7,8.1c0.2,0.3,0.4,0.5,0.6,0.8c3,3.7,4,12.2-0.7,17.5c-3.8,4.2-2.6,10.5-2,12.9c1.1,0.5,2.1,1.1,2.9,1.9
		c-3.2,3.5-6.8,6.7-10.6,9.5c16.6-11.9,27.5-31.3,27.5-53.3c0-0.7,0-1.5,0-2.2c0-0.2,0-0.5,0-0.7c0-0.5,0-1-0.1-1.5
		c0-0.3,0-0.6-0.1-0.8c0-0.4-0.1-0.9-0.1-1.3c0-0.3-0.1-0.6-0.1-0.9c0-0.4-0.1-0.8-0.2-1.3c0-0.3-0.1-0.6-0.1-0.9
		c-0.1-0.4-0.1-0.8-0.2-1.2c0-0.3-0.1-0.6-0.1-0.9c-0.1-0.4-0.2-0.9-0.3-1.3c-0.1-0.3-0.1-0.5-0.2-0.8c-0.1-0.7-0.3-1.3-0.5-2
		c-0.1-0.3-0.1-0.5-0.2-0.8c-0.1-0.4-0.2-0.8-0.3-1.2c-0.1-0.3-0.2-0.6-0.3-1c-0.1-0.3-0.2-0.7-0.3-1c-0.1-0.3-0.2-0.7-0.3-1
		c-0.1-0.3-0.2-0.6-0.3-0.9c-0.1-0.3-0.2-0.7-0.4-1c-0.1-0.3-0.2-0.6-0.3-0.9c-0.1-0.3-0.3-0.7-0.4-1c-0.1-0.3-0.2-0.6-0.4-0.8
		c-0.2-0.4-0.3-0.7-0.5-1.1c-0.1-0.2-0.2-0.5-0.3-0.7c1.2,2.6,2.2,5.3,3.1,8.1c-5.2-2.8-25-4.3-39.4,0.5
		c-15.3,5.1-33.2,4.9-44.1,0.4c-4.8-2-9.4-2.7-14.1-2.4c0.8,0.8,1.3,2,1.3,3.2c0,2.5-2.1,4.6-4.6,4.6c-2.5,0-4.6-2.1-4.6-4.6
		c0-0.8,0.2-1.5,0.6-2.2c-3.9,0.8-7.9,2.1-12.3,3.8c-4.9,1.8-7.7,2.5-9.4,2.7c0.2-0.8,0.3-1.5,0.5-2.3c-0.1,0.2-0.1,0.4-0.2,0.7
		c-0.1,0.3-0.1,0.5-0.2,0.8c-0.4,1.7-0.7,3.4-0.9,5.2c0,0.3-0.1,0.5-0.1,0.8c-0.1,0.6-0.1,1.2-0.2,1.8c0,0.3-0.1,0.6-0.1,0.9
		c-0.1,0.6-0.1,1.2-0.1,1.9c0,0.3,0,0.6,0,0.8c0,0.9-0.1,1.8-0.1,2.7c0,0.7,0,1.5,0,2.2c0,0.3,0,0.6,0,0.9c0,0.4,0,0.8,0.1,1.2
		c0,0.4,0.1,0.8,0.1,1.2c0,0.3,0,0.6,0.1,1c0,0.4,0.1,0.9,0.2,1.3c0,0.3,0.1,0.5,0.1,0.8c0.1,0.5,0.1,1,0.2,1.5
		c0,0.2,0.1,0.4,0.1,0.6c0.1,0.5,0.2,1.1,0.3,1.6c0,0.1,0,0.3,0.1,0.4c0.1,0.6,0.2,1.2,0.4,1.8c0,0.1,0,0.2,0.1,0.3
		c0.1,0.6,0.3,1.3,0.5,1.9c0,0,0,0.1,0,0.1C16.2,109,23.7,120.5,33.7,129z M36.4,73c1.1,0,2,0.9,2,2c0,1.1-0.9,2-2,2
		c-1.1,0-2-0.9-2-2C34.4,73.9,35.3,73,36.4,73z M33.2,82.7c1.3,0,2.3,1,2.3,2.3c0,1.3-1,2.3-2.3,2.3c-1.3,0-2.3-1-2.3-2.3
		C30.9,83.7,31.9,82.7,33.2,82.7z M25.8,71.6c-1.6,0-2.8-1.3-2.8-2.9c0-1.6,1.3-2.8,2.8-2.8c1.6,0,2.9,1.3,2.9,2.8
		C28.7,70.3,27.4,71.6,25.8,71.6z"/>
	<path fill="#B1DDF2" d="M101.2,112.2c5.7-5.7,6.1-13.5,2.7-17.8c-0.1-0.1-0.2-0.1-0.3-0.1c-0.6,0.1-4.5,5.3-10.8,10.6
		c1,0.4,3.4,1.4,3.7,2.9c0.4,1.9-4.3,6.8-8.1,7c-2.9,0.2-5.5-1.7-6.5-2.7c-3.9,1.9-8.2,3.4-12.9,3.9c-6.8,0.7-12.5-2-16.9-5.7
		c-2.1,3.3-2.6,7.1-2.4,10.4c4.1-0.2,8.7,0.2,14,1.6c17.1,4.7,26.2,2.1,35.2-0.3C98.1,119.3,97.8,115.5,101.2,112.2z"/>
	<path fill="#B1DDF2" d="M44.5,114.7C44.5,114.8,44.4,114.8,44.5,114.7c-2,2.2-2.6,4.8-2.7,7.2c0.6-0.2,1.2-0.3,1.8-0.5
		C43.3,119.4,43.4,117.1,44.5,114.7z"/>
	<path fill="#B1DDF2" d="M119.4,109.7c4.4-4.4,5.9-10.2,4.6-14.5c0,0.5,0,0.9,0,1.4c0,0,0,0,0,0c0,0.3-0.2,0.6-0.3,0.9
		c0,0.1-0.1,0.2-0.1,0.3c0,0.3-0.1,0.5-0.2,0.7c0,0.1-0.1,0.2-0.1,0.3c0,0.2-0.1,0.5-0.1,0.7c0,0.1-0.1,0.3-0.1,0.4
		c0,0.2-0.1,0.4-0.1,0.6c0,0.1-0.1,0.3-0.1,0.4c0,0.2-0.1,0.4-0.1,0.5c-0.1,0.2-0.1,0.4-0.2,0.6c-0.1,0.2-0.1,0.3-0.2,0.5
		c-0.1,0.2-0.1,0.4-0.2,0.5c0,0.1-0.1,0.2-0.1,0.3c-0.1,0.2-0.1,0.3-0.2,0.4c0,0.1-0.1,0.2-0.1,0.3c-0.1,0.1-0.1,0.3-0.2,0.4
		c-0.1,0.1-0.1,0.2-0.2,0.2c-0.1,0.1-0.2,0.2-0.2,0.3c-0.1,0.1-0.1,0.1-0.2,0.2c-0.1,0.1-0.2,0.2-0.3,0.3c0,0-0.1,0.1-0.1,0.1
		c-0.1,0.1-0.3,0.2-0.5,0.3c-1.9,1.1-4.4-0.1-6.8-2.1c-0.1,0.1-0.2,0.3-0.3,0.4c-4.2,4.7-3.8,11.3-3.1,15.3c2.8-0.3,5.2-0.2,7.3,0.1
		C116.3,117.1,115.9,113.1,119.4,109.7z"/>
	<path fill="#B1DDF2" d="M103.3,115.2c-0.5,2-0.4,4-0.2,5.7c0.4-0.1,0.8-0.2,1.2-0.3C103.8,119.1,103.3,117.2,103.3,115.2z"/>
	<path fill="#B1DDF2" d="M108.7,99.6c0.2,1.7,0.1,3.5-0.3,5.3c0.9-1,1.6-2.1,2.3-3.2C110,101,109.4,100.3,108.7,99.6z"/>
	<path fill="#B1DDF2" d="M113.9,132.5c-0.6,0.4-1.1,0.8-1.7,1.2C112.8,133.3,113.3,132.9,113.9,132.5z"/>
	<path opacity="0.69" fill="#FFFFFF" d="M135.5,51.7c-0.1-0.1-0.1-0.2-0.2-0.4C135.4,51.5,135.5,51.6,135.5,51.7
		C135.5,51.7,135.5,51.7,135.5,51.7z"/>
	<path fill="#5FC2E8" d="M13,61.3c0.1-0.2,0.1-0.5,0.2-0.7C13.1,60.8,13.1,61,13,61.3z"/>
	<path opacity="0.69" fill="#FFFFFF" d="M13,61.3c0.1-0.2,0.1-0.5,0.2-0.7C13.1,60.8,13.1,61,13,61.3z"/>
	<path fill="#5FC2E8" d="M13.7,59c0.3-0.8,0.5-1.6,0.8-2.4C14.2,57.4,13.9,58.2,13.7,59z"/>
	<path opacity="0.69" fill="#FFFFFF" d="M13.7,59c0.3-0.8,0.5-1.6,0.8-2.4C14.2,57.4,13.9,58.2,13.7,59z"/>
	<path fill="#5FC2E8" d="M12.4,63.5c0-0.1,0-0.1,0-0.2C12.4,63.4,12.4,63.5,12.4,63.5z"/>
	<path opacity="0.69" fill="#FFFFFF" d="M12.4,63.5c0-0.1,0-0.1,0-0.2C12.4,63.4,12.4,63.5,12.4,63.5z"/>
	<path fill="#5FC2E8" d="M135.5,51.7c-0.1-0.1-0.1-0.2-0.2-0.4c0,0,0,0,0-0.1C135.4,51.4,135.5,51.6,135.5,51.7z"/>
	<path opacity="0.69" fill="#FFFFFF" d="M135.5,51.7c-0.1-0.1-0.1-0.2-0.2-0.4c0,0,0,0,0-0.1C135.4,51.4,135.5,51.6,135.5,51.7z"/>
	<path fill="#B1DDF2" d="M52.7,57.7c-17-8.6-31.2-4.3-38.2-1.1c-0.3,0.8-0.6,1.6-0.8,2.4c-0.2,0.5-0.3,1.1-0.5,1.6
		c-0.1,0.2-0.1,0.5-0.2,0.7c-0.2,0.7-0.4,1.4-0.5,2.1c0,0.1,0,0.1,0,0.2c-0.2,0.8-0.4,1.5-0.5,2.3c1.7-0.2,4.6-0.9,9.4-2.7
		c4.4-1.6,8.5-2.9,12.3-3.8c0.8-1.4,2.3-2.4,4-2.4c1.3,0,2.5,0.5,3.3,1.4c4.7-0.2,9.3,0.5,14.1,2.4c11,4.5,28.8,4.7,44.1-0.4
		c14.4-4.8,34.3-3.3,39.4-0.5c-0.9-2.8-1.9-5.5-3.1-8.1c0,0,0,0,0,0c-0.1-0.1-0.1-0.3-0.2-0.4c-0.4-0.8-0.8-1.6-1.2-2.4c0,0,0,0,0,0
		C104.7,38,73.9,68.4,52.7,57.7z"/>
	<path opacity="0.69" fill="#FFFFFF" d="M52.7,57.7c-17-8.6-31.2-4.3-38.2-1.1c-0.3,0.8-0.6,1.6-0.8,2.4c-0.2,0.5-0.3,1.1-0.5,1.6
		c-0.1,0.2-0.1,0.5-0.2,0.7c-0.2,0.7-0.4,1.4-0.5,2.1c0,0.1,0,0.1,0,0.2c-0.2,0.8-0.4,1.5-0.5,2.3c1.7-0.2,4.6-0.9,9.4-2.7
		c4.4-1.6,8.5-2.9,12.3-3.8c0.8-1.4,2.3-2.4,4-2.4c1.3,0,2.5,0.5,3.3,1.4c4.7-0.2,9.3,0.5,14.1,2.4c11,4.5,28.8,4.7,44.1-0.4
		c14.4-4.8,34.3-3.3,39.4-0.5c-0.9-2.8-1.9-5.5-3.1-8.1c0,0,0,0,0,0c-0.1-0.1-0.1-0.3-0.2-0.4c-0.4-0.8-0.8-1.6-1.2-2.4c0,0,0,0,0,0
		C104.7,38,73.9,68.4,52.7,57.7z"/>
	<path fill="#B1DDF2" d="M113.9,81c-4-5-3.6-9-0.6-14c3.1-5-1-8.2-1-8.2s1.3,2.3-2.3,6.5c-3.6,4.2-4,11.5,0.6,17.3
		c0.3,0.4,0.5,0.7,0.8,1.1c0.9-0.8,1.8-1.6,2.7-2.3C114.1,81.2,114,81.1,113.9,81z"/>
	<path opacity="0.85" fill="#6CAB36" d="M113.9,81c-4-5-3.6-9-0.6-14c3.1-5-1-8.2-1-8.2s1.3,2.3-2.3,6.5c-3.6,4.2-4,11.5,0.6,17.3
		c0.3,0.4,0.5,0.7,0.8,1.1c0.9-0.8,1.8-1.6,2.7-2.3C114.1,81.2,114,81.1,113.9,81z"/>
	<path fill="#B1DDF2" d="M113,104.3c0.1-0.1,0.2-0.3,0.3-0.4c-0.9-0.7-1.7-1.5-2.6-2.3c-0.6,1.1-1.4,2.2-2.3,3.2
		c-0.5,2.1-1.4,4-2.9,5.7c-1.2,1.4-1.9,3-2.3,4.6c0,2,0.5,3.9,1,5.4c0.8-0.2,1.7-0.4,2.6-0.5c1-0.2,2-0.3,2.9-0.4
		C109.1,115.7,108.8,109,113,104.3z"/>
	<path opacity="0.85" fill="#6CAB36" d="M113,104.3c0.1-0.1,0.2-0.3,0.3-0.4c-0.9-0.7-1.7-1.5-2.6-2.3c-0.6,1.1-1.4,2.2-2.3,3.2
		c-0.5,2.1-1.4,4-2.9,5.7c-1.2,1.4-1.9,3-2.3,4.6c0,2,0.5,3.9,1,5.4c0.8-0.2,1.7-0.4,2.6-0.5c1-0.2,2-0.3,2.9-0.4
		C109.1,115.7,108.8,109,113,104.3z"/>
	<path fill="#B1DDF2" d="M52,110.2c-0.8-0.7-1.6-1.5-2.4-2.2c-0.7,1-1.5,2-2.4,2.9c-0.3,0.3-0.5,0.6-0.8,0.9c-0.5,1.1-1.1,2.1-1.9,3
		c-1.1,2.3-1.2,4.7-0.9,6.7c1.8-0.4,3.8-0.7,6-0.9C49.4,117.4,49.9,113.5,52,110.2z"/>
	<path opacity="0.85" fill="#6CAB36" d="M52,110.2c-0.8-0.7-1.6-1.5-2.4-2.2c-0.7,1-1.5,2-2.4,2.9c-0.3,0.3-0.5,0.6-0.8,0.9
		c-0.5,1.1-1.1,2.1-1.9,3c-1.1,2.3-1.2,4.7-0.9,6.7c1.8-0.4,3.8-0.7,6-0.9C49.4,117.4,49.9,113.5,52,110.2z"/>
	<path fill="#B1DDF2" d="M51.6,75.4c0.4-1.3,1-2.6,1.9-4c3.1-5-1-8.2-1-8.2s1.3,2.3-2.3,6.5c-2.1,2.4-3.1,5.8-2.7,9.3
		C48.8,77.7,50.1,76.5,51.6,75.4z"/>
	<path opacity="0.85" fill="#6CAB36" d="M51.6,75.4c0.4-1.3,1-2.6,1.9-4c3.1-5-1-8.2-1-8.2s1.3,2.3-2.3,6.5
		c-2.1,2.4-3.1,5.8-2.7,9.3C48.8,77.7,50.1,76.5,51.6,75.4z"/>
	<path fill="#B1DDF2" d="M36,118.1c2.9-3.3,2.3-8.5,0.4-10.8c-1.9-2.3-1.7-4.1-0.3-6.4c1.4-2.3-0.4-3.8-0.4-3.8s0.6,1.1-1.1,3
		c-1.7,1.9-1.9,5.3,0.3,7.9c2.1,2.6,1.9,7.5-1.7,11c-2.8,2.8-1.5,6.1-0.8,7.4c0.6-0.4,1.3-0.9,2.1-1.4
		C34.2,123.2,34.1,120.2,36,118.1z"/>
	<path opacity="0.85" fill="#6CAB36" d="M36,118.1c2.9-3.3,2.3-8.5,0.4-10.8c-1.9-2.3-1.7-4.1-0.3-6.4c1.4-2.3-0.4-3.8-0.4-3.8
		s0.6,1.1-1.1,3c-1.7,1.9-1.9,5.3,0.3,7.9c2.1,2.6,1.9,7.5-1.7,11c-2.8,2.8-1.5,6.1-0.8,7.4c0.6-0.4,1.3-0.9,2.1-1.4
		C34.2,123.2,34.1,120.2,36,118.1z"/>
	<path fill="#B1DDF2" d="M103.3,115.2c0-2.8,0.9-5.9,3.7-8.7c0.5-0.5,1-1,1.4-1.6c0.4-1.8,0.5-3.6,0.3-5.3c-2.2-2.4-4.1-4.7-4.8-5.2
		c3.4,4.3,3,12.1-2.7,17.8c-3.3,3.3-3.1,7.1-2.3,9.7c1.4-0.4,2.8-0.7,4.2-1.1C102.9,119.2,102.8,117.2,103.3,115.2z"/>
	<path opacity="0.85" fill="#91BF68" d="M103.3,115.2c0-2.8,0.9-5.9,3.7-8.7c0.5-0.5,1-1,1.4-1.6c0.4-1.8,0.5-3.6,0.3-5.3
		c-2.2-2.4-4.1-4.7-4.8-5.2c3.4,4.3,3,12.1-2.7,17.8c-3.3,3.3-3.1,7.1-2.3,9.7c1.4-0.4,2.8-0.7,4.2-1.1
		C102.9,119.2,102.8,117.2,103.3,115.2z"/>
	<path fill="#B1DDF2" d="M103.8,89.5c0.1,0,0.3,0,0.5-0.1c-0.5-2.2,0.1-4.3,1.6-6.7c2.3-3.7-0.7-6.2-0.7-6.2s1,1.7-1.7,4.9
		c-1.3,1.6-2.1,3.7-2.1,5.9C102.6,88.7,103.5,89.5,103.8,89.5z"/>
	<path opacity="0.85" fill="#91BF68" d="M103.8,89.5c0.1,0,0.3,0,0.5-0.1c-0.5-2.2,0.1-4.3,1.6-6.7c2.3-3.7-0.7-6.2-0.7-6.2
		s1,1.7-1.7,4.9c-1.3,1.6-2.1,3.7-2.1,5.9C102.6,88.7,103.5,89.5,103.8,89.5z"/>
	<path fill="#B1DDF2" d="M103.3,115.2c0.4-1.6,1.1-3.2,2.3-4.6c1.5-1.7,2.4-3.7,2.9-5.7c-0.4,0.5-0.9,1.1-1.4,1.6
		C104.2,109.3,103.3,112.4,103.3,115.2z"/>
	<path opacity="0.85" fill="#6CAB36" d="M103.3,115.2c0.4-1.6,1.1-3.2,2.3-4.6c1.5-1.7,2.4-3.7,2.9-5.7c-0.4,0.5-0.9,1.1-1.4,1.6
		C104.2,109.3,103.3,112.4,103.3,115.2z"/>
	<path opacity="0.85" fill="#91BF68" d="M103.3,115.2c0.4-1.6,1.1-3.2,2.3-4.6c1.5-1.7,2.4-3.7,2.9-5.7c-0.4,0.5-0.9,1.1-1.4,1.6
		C104.2,109.3,103.3,112.4,103.3,115.2z"/>
	<path fill="#B1DDF2" d="M123.8,108.1c4.7-5.3,3.7-13.7,0.7-17.5c-0.2-0.3-0.4-0.5-0.6-0.8c0,1.1,0,2.3-0.1,3.4c0,0,0,0,0,0
		c0,0,0,0,0,0c0,0.6-0.1,1.2-0.1,1.8c1.3,4.4,0,10.1-4.4,14.5c-3.4,3.4-3.1,7.4-2.2,10c1.8,0.3,3.3,0.7,4.6,1.3
		C121.2,118.6,120,112.3,123.8,108.1z"/>
	<path opacity="0.85" fill="#91BF68" d="M123.8,108.1c4.7-5.3,3.7-13.7,0.7-17.5c-0.2-0.3-0.4-0.5-0.6-0.8c0,1.1,0,2.3-0.1,3.4
		c0,0,0,0,0,0c0,0,0,0,0,0c0,0.6-0.1,1.2-0.1,1.8c1.3,4.4,0,10.1-4.4,14.5c-3.4,3.4-3.1,7.4-2.2,10c1.8,0.3,3.3,0.7,4.6,1.3
		C121.2,118.6,120,112.3,123.8,108.1z"/>
	<path fill="#B1DDF2" d="M124.1,80.2c2.3-3.7-0.7-6.2-0.7-6.2s0.9,1.5-1.2,4.2c0.4,0.8,0.8,2,1.1,3.5
		C123.5,81.3,123.8,80.8,124.1,80.2z"/>
	<path opacity="0.85" fill="#91BF68" d="M124.1,80.2c2.3-3.7-0.7-6.2-0.7-6.2s0.9,1.5-1.2,4.2c0.4,0.8,0.8,2,1.1,3.5
		C123.5,81.3,123.8,80.8,124.1,80.2z"/>
	<path fill="#B1DDF2" d="M44.5,114.7c0.5-1,1.1-2,1.9-3c0.9-1.9,1.2-3.9,1.2-5.9c-1.4-1.7-2.6-3.4-3.7-5.1c1.9,4.5,0.9,10.8-4,15.7
		c-2.4,2.4-2.9,5-2.8,7.2c1.3-0.6,2.9-1.2,4.6-1.7C41.9,119.5,42.5,116.9,44.5,114.7C44.4,114.8,44.5,114.8,44.5,114.7z"/>
	<path opacity="0.85" fill="#91BF68" d="M44.5,114.7c0.5-1,1.1-2,1.9-3c0.9-1.9,1.2-3.9,1.2-5.9c-1.4-1.7-2.6-3.4-3.7-5.1
		c1.9,4.5,0.9,10.8-4,15.7c-2.4,2.4-2.9,5-2.8,7.2c1.3-0.6,2.9-1.2,4.6-1.7C41.9,119.5,42.5,116.9,44.5,114.7
		C44.4,114.8,44.5,114.8,44.5,114.7z"/>
	<path fill="#B1DDF2" d="M44,80.8c0,0,0.6,1.1-0.5,3.1c0.4-0.6,0.9-1.3,1.4-1.9C44.5,81.2,44,80.8,44,80.8z"/>
	<path opacity="0.85" fill="#91BF68" d="M44,80.8c0,0,0.6,1.1-0.5,3.1c0.4-0.6,0.9-1.3,1.4-1.9C44.5,81.2,44,80.8,44,80.8z"/>
	<path fill="#B1DDF2" d="M42.3,85.6c-0.8,0.9-1.3,1.9-1.7,3.1c0.5-1,1.2-2.2,2-3.5C42.5,85.3,42.4,85.5,42.3,85.6z"/>
	<path opacity="0.85" fill="#91BF68" d="M42.3,85.6c-0.8,0.9-1.3,1.9-1.7,3.1c0.5-1,1.2-2.2,2-3.5C42.5,85.3,42.4,85.5,42.3,85.6z"
		/>
	<path fill="#B1DDF2" d="M42.5,98.3c-0.7-1.3-1.4-2.5-1.9-3.6C41.1,95.9,41.7,97.1,42.5,98.3z"/>
	<path opacity="0.85" fill="#91BF68" d="M42.5,98.3c-0.7-1.3-1.4-2.5-1.9-3.6C41.1,95.9,41.7,97.1,42.5,98.3z"/>
	<path fill="#B1DDF2" d="M46.4,111.7c-0.8,1-1.5,2-1.9,3C45.3,113.8,45.9,112.8,46.4,111.7z"/>
	<path opacity="0.85" fill="#6CAB36" d="M46.4,111.7c-0.8,1-1.5,2-1.9,3C45.3,113.8,45.9,112.8,46.4,111.7z"/>
	<path opacity="0.85" fill="#91BF68" d="M46.4,111.7c-0.8,1-1.5,2-1.9,3C45.3,113.8,45.9,112.8,46.4,111.7z"/>
	<path fill="#00A19B" d="M122.6,102c-0.1,0.2-0.1,0.3-0.2,0.5C122.5,102.4,122.6,102.2,122.6,102z"/>
	<path fill="#00A19B" d="M122.3,103.1c0,0.1-0.1,0.2-0.1,0.3C122.2,103.3,122.2,103.2,122.3,103.1z"/>
	<path fill="#00A19B" d="M122.9,100.8c0,0.2-0.1,0.4-0.1,0.5C122.8,101.2,122.9,101,122.9,100.8z"/>
	<path fill="#00A19B" d="M121.9,103.8c0,0.1-0.1,0.2-0.1,0.3C121.8,104,121.9,103.9,121.9,103.8z"/>
	<path fill="#00A19B" d="M121.6,104.5c0,0.1-0.1,0.2-0.2,0.2C121.5,104.7,121.5,104.6,121.6,104.5z"/>
	<path fill="#00A19B" d="M123.7,96.6c0.1-0.5,0.1-0.9,0.1-1.4c0-0.6,0.1-1.2,0.1-1.8C123.8,94.5,123.8,95.5,123.7,96.6z"/>
	<path fill="#00A19B" d="M121.2,105.1c-0.1,0.1-0.1,0.1-0.2,0.2C121.1,105.2,121.1,105.1,121.2,105.1z"/>
	<path fill="#00A19B" d="M123.7,96.6c0,0.3-0.1,0.6-0.1,0.9C123.6,97.1,123.6,96.9,123.7,96.6z"/>
	<path fill="#00A19B" d="M123.4,98.8c0,0.2-0.1,0.5-0.1,0.7C123.3,99.2,123.3,99,123.4,98.8z"/>
	<path fill="#00A19B" d="M120.7,105.6c0,0-0.1,0.1-0.1,0.1C120.6,105.7,120.7,105.6,120.7,105.6z"/>
	<path fill="#00A19B" d="M123.5,97.7c0,0.3-0.1,0.5-0.1,0.7C123.4,98.2,123.5,97.9,123.5,97.7z"/>
	<path fill="#00A19B" d="M41.5,93.4c1.2,1,3,2.1,5.1,1.9c4-0.2,5.6-3.3,5.6-3.3l0.7,0.8c0,0-2.6,4-7,3.6c-1.1-0.1-2-0.4-2.8-0.9
		c3.5,4,10.3,7.8,23.1,8.5c0.2,0,0.4,0,0.6,0c0.9,1.7,3.7,5.8,8.5,5.8c4.6,0,3-3.3,1-5.8c21.2-1.5,27.9-12,27.9-12
		s12.5,8.9,17.3,4.2c0.9-0.9,1.7-1.9,2.3-2.9c0.1-1.1,0.1-2.3,0.1-3.4c0-3-0.3-5.8-0.7-8.1c-0.3-1.5-0.6-2.7-1.1-3.5
		c-0.4-0.7-0.8-1.1-1.3-1.1c-1.4,0-4,1.8-6.7,4.1c-0.9,0.7-1.8,1.5-2.7,2.3c-3,2.7-5.9,5.2-7.1,5.8c-0.2,0.1-0.4,0.1-0.5,0.1
		c-0.3,0-1.2-0.9-2.5-2.2c-3.9-4-11.6-12.4-21.5-16.3c0.9-1,2.9-2.5,2.9-3.2c0-0.9-5.1-4-13.2-3.5c-5.6,0.4-7.8,3.9-8.6,6.1
		c-3.7,1.2-6.8,2.9-9.4,4.9c-1.5,1.1-2.9,2.4-4.1,3.6c-1,1-1.8,2-2.6,3c-0.5,0.7-1,1.3-1.4,1.9c-0.3,0.5-0.6,0.9-0.9,1.3
		c-0.8,1.3-1.5,2.5-2,3.5c-0.9,1.7-1.3,2.9-1.3,2.9S39.5,91,40,90C40.3,91.1,40.8,92.2,41.5,93.4z M57.3,79.5c1.5,0,2.7,1.5,3.1,3.6
		c0.2,0.4,0.3,0.9,0.3,1.4c0,0.5-0.1,0.9-0.3,1.3c-0.4,2.2-1.6,3.8-3.2,3.8c-1.8,0-3.3-2.3-3.3-5.1C54,81.8,55.5,79.5,57.3,79.5z"/>
	<path fill="#00A19B" d="M123.2,99.8c0,0.2-0.1,0.4-0.1,0.6C123.1,100.2,123.1,100,123.2,99.8z"/>
	<path fill="#00A19B" d="M57.3,89.7c1.5,0,2.8-1.6,3.2-3.8c-0.3,0.6-0.7,0.9-1.2,0.9c-0.8,0-1.5-1-1.5-2.2c0-1.2,0.7-2.2,1.5-2.2
		c0.5,0,0.9,0.3,1.2,0.9c-0.4-2.1-1.7-3.6-3.1-3.6c-1.8,0-3.3,2.3-3.3,5.1C54,87.4,55.5,89.7,57.3,89.7z"/>
	<path opacity="0.85" fill="#FFFFFF" d="M57.3,89.7c1.5,0,2.8-1.6,3.2-3.8c-0.3,0.6-0.7,0.9-1.2,0.9c-0.8,0-1.5-1-1.5-2.2
		c0-1.2,0.7-2.2,1.5-2.2c0.5,0,0.9,0.3,1.2,0.9c-0.4-2.1-1.7-3.6-3.1-3.6c-1.8,0-3.3,2.3-3.3,5.1C54,87.4,55.5,89.7,57.3,89.7z"/>
	<path fill="#00A19B" d="M88.4,114.8c3.9-0.3,8.5-5.2,8.1-7c-0.3-1.5-2.7-2.5-3.7-2.9c-3.1,2.6-6.8,5.2-10.9,7.3
		C82.9,113,85.5,115,88.4,114.8z"/>
	<path fill="#387167" d="M59.3,82.3c-0.8,0-1.5,1-1.5,2.2c0,1.2,0.7,2.2,1.5,2.2c0.5,0,0.9-0.4,1.2-0.9c0.2-0.4,0.3-0.8,0.3-1.3
		c0-0.5-0.1-1-0.3-1.4C60.2,82.6,59.8,82.3,59.3,82.3z"/>
	<path fill="#B1DDF2" d="M123.5,97.4c0,0.1,0,0.2,0,0.3C123.5,97.6,123.5,97.5,123.5,97.4z"/>
	<path opacity="0.18" fill="#387167" d="M123.5,97.4c0,0.1,0,0.2,0,0.3C123.5,97.6,123.5,97.5,123.5,97.4z"/>
	<path fill="#B1DDF2" d="M121,105.3c-0.1,0.1-0.2,0.2-0.3,0.3C120.8,105.5,120.9,105.4,121,105.3z"/>
	<path opacity="0.18" fill="#387167" d="M121,105.3c-0.1,0.1-0.2,0.2-0.3,0.3C120.8,105.5,120.9,105.4,121,105.3z"/>
	<path fill="#B1DDF2" d="M120.6,105.7c-0.1,0.1-0.3,0.2-0.5,0.3C120.3,106,120.4,105.8,120.6,105.7z"/>
	<path opacity="0.18" fill="#387167" d="M120.6,105.7c-0.1,0.1-0.3,0.2-0.5,0.3C120.3,106,120.4,105.8,120.6,105.7z"/>
	<path fill="#B1DDF2" d="M124,96.6C124,96.6,124,96.6,124,96.6C124,96.6,124,96.6,124,96.6z"/>
	<path opacity="0.18" fill="#387167" d="M124,96.6C124,96.6,124,96.6,124,96.6C124,96.6,124,96.6,124,96.6z"/>
	<path fill="#B1DDF2" d="M123.4,98.4c0,0.1,0,0.2-0.1,0.3C123.4,98.7,123.4,98.6,123.4,98.4z"/>
	<path opacity="0.18" fill="#387167" d="M123.4,98.4c0,0.1,0,0.2-0.1,0.3C123.4,98.7,123.4,98.6,123.4,98.4z"/>
	<path fill="#B1DDF2" d="M123.2,99.5c0,0.1,0,0.3-0.1,0.4C123.2,99.7,123.2,99.6,123.2,99.5z"/>
	<path opacity="0.18" fill="#387167" d="M123.2,99.5c0,0.1,0,0.3-0.1,0.4C123.2,99.7,123.2,99.6,123.2,99.5z"/>
	<path fill="#B1DDF2" d="M122.8,101.4c-0.1,0.2-0.1,0.4-0.2,0.6C122.7,101.8,122.7,101.6,122.8,101.4z"/>
	<path opacity="0.18" fill="#387167" d="M122.8,101.4c-0.1,0.2-0.1,0.4-0.2,0.6C122.7,101.8,122.7,101.6,122.8,101.4z"/>
	<path fill="#B1DDF2" d="M122.5,102.5c-0.1,0.2-0.1,0.4-0.2,0.5C122.3,102.9,122.4,102.7,122.5,102.5z"/>
	<path opacity="0.18" fill="#387167" d="M122.5,102.5c-0.1,0.2-0.1,0.4-0.2,0.5C122.3,102.9,122.4,102.7,122.5,102.5z"/>
	<path fill="#B1DDF2" d="M123,100.4c0,0.1-0.1,0.3-0.1,0.4C123,100.7,123,100.6,123,100.4z"/>
	<path opacity="0.18" fill="#387167" d="M123,100.4c0,0.1-0.1,0.3-0.1,0.4C123,100.7,123,100.6,123,100.4z"/>
	<path fill="#B1DDF2" d="M122.1,103.4c-0.1,0.2-0.1,0.3-0.2,0.4C122,103.7,122.1,103.5,122.1,103.4z"/>
	<path opacity="0.18" fill="#387167" d="M122.1,103.4c-0.1,0.2-0.1,0.3-0.2,0.4C122,103.7,122.1,103.5,122.1,103.4z"/>
	<path fill="#B1DDF2" d="M121.8,104.1c-0.1,0.1-0.1,0.3-0.2,0.4C121.7,104.4,121.7,104.2,121.8,104.1z"/>
	<path opacity="0.18" fill="#387167" d="M121.8,104.1c-0.1,0.1-0.1,0.3-0.2,0.4C121.7,104.4,121.7,104.2,121.8,104.1z"/>
	<path fill="#B1DDF2" d="M121.4,104.7c-0.1,0.1-0.2,0.2-0.2,0.3C121.3,105,121.3,104.9,121.4,104.7z"/>
	<path opacity="0.18" fill="#387167" d="M121.4,104.7c-0.1,0.1-0.2,0.2-0.2,0.3C121.3,105,121.3,104.9,121.4,104.7z"/>
	<path fill="#B1DDF2" d="M123.9,93.3C123.9,93.3,123.9,93.3,123.9,93.3C123.9,93.3,123.9,93.4,123.9,93.3
		C123.9,93.4,123.9,93.3,123.9,93.3z"/>
	<path opacity="0.85" fill="#91BF68" d="M123.9,93.3C123.9,93.3,123.9,93.3,123.9,93.3C123.9,93.3,123.9,93.4,123.9,93.3
		C123.9,93.4,123.9,93.3,123.9,93.3z"/>
	<path opacity="0.18" fill="#387167" d="M123.9,93.3C123.9,93.3,123.9,93.3,123.9,93.3C123.9,93.3,123.9,93.4,123.9,93.3
		C123.9,93.4,123.9,93.3,123.9,93.3z"/>
	<path fill="#00A19B" d="M41.5,93.4c-0.7-1.2-1.2-2.3-1.6-3.4c-0.4,1-0.7,1.6-0.7,1.6l0.6,0.1C40,91.7,40.5,92.5,41.5,93.4z"/>
	<path opacity="0.18" fill="#387167" d="M41.5,93.4c-0.7-1.2-1.2-2.3-1.6-3.4c-0.4,1-0.7,1.6-0.7,1.6l0.6,0.1
		C40,91.7,40.5,92.5,41.5,93.4z"/>
	<path fill="#00A19B" d="M49.7,108c0.7,0.8,1.5,1.5,2.4,2.2c4.5,3.8,10.1,6.5,16.9,5.7c4.7-0.5,9-1.9,12.9-3.9
		c4.2-2.1,7.8-4.7,10.9-7.3c6.3-5.3,10.2-10.5,10.8-10.6c0.1,0,0.2,0,0.3,0.1c0.8,0.5,2.6,2.8,4.8,5.2c0.6,0.7,1.3,1.4,2,2.1
		c0.8,0.8,1.7,1.6,2.6,2.3c2.5,2,4.9,3.1,6.8,2.1c0.2-0.1,0.3-0.2,0.5-0.3c0,0,0.1-0.1,0.1-0.1c0.1-0.1,0.2-0.2,0.3-0.3
		c0.1-0.1,0.1-0.1,0.2-0.2c0.1-0.1,0.2-0.2,0.2-0.3c0.1-0.1,0.1-0.2,0.2-0.2c0.1-0.1,0.1-0.3,0.2-0.4c0-0.1,0.1-0.2,0.1-0.3
		c0.1-0.1,0.1-0.3,0.2-0.4c0-0.1,0.1-0.2,0.1-0.3c0.1-0.2,0.1-0.4,0.2-0.5c0.1-0.2,0.1-0.3,0.2-0.5c0.1-0.2,0.1-0.4,0.2-0.6
		c0-0.2,0.1-0.4,0.1-0.5c0-0.1,0.1-0.3,0.1-0.4c0-0.2,0.1-0.4,0.1-0.6c0-0.1,0.1-0.3,0.1-0.4c0-0.2,0.1-0.4,0.1-0.7
		c0-0.1,0-0.2,0.1-0.3c0-0.2,0.1-0.5,0.1-0.7c0-0.1,0.2-0.2,0.2-0.3c0-0.3,0.3-0.6,0.3-0.9c0,0,0,0,0,0c0-1,0-2.1,0.1-3.2
		c0,0-0.1,0-0.1,0c-0.6,1.1-1.4,2.1-2.3,2.9c-4.9,4.7-17.4-4.2-17.4-4.2s-6.7,10.5-27.9,12c2.1,2.5,3.6,5.8-1,5.8
		c-4.8,0-7.6-4.1-8.5-5.8c-0.2,0-0.4,0-0.6,0c-12.8-0.7-19.5-4.5-23.1-8.5c-2.5-1.4-3.8-3.9-3.8-3.9s0.5,1.2,1.4,3.1
		c0.5,1,1.1,2.2,1.9,3.6c0.4,0.8,0.9,1.6,1.4,2.4c1.1,1.7,2.3,3.4,3.7,5.1C48.3,106.5,49,107.3,49.7,108z"/>
	<path opacity="0.18" fill="#387167" d="M49.7,108c0.7,0.8,1.5,1.5,2.4,2.2c4.5,3.8,10.1,6.5,16.9,5.7c4.7-0.5,9-1.9,12.9-3.9
		c4.2-2.1,7.8-4.7,10.9-7.3c6.3-5.3,10.2-10.5,10.8-10.6c0.1,0,0.2,0,0.3,0.1c0.8,0.5,2.6,2.8,4.8,5.2c0.6,0.7,1.3,1.4,2,2.1
		c0.8,0.8,1.7,1.6,2.6,2.3c2.5,2,4.9,3.1,6.8,2.1c0.2-0.1,0.3-0.2,0.5-0.3c0,0,0.1-0.1,0.1-0.1c0.1-0.1,0.2-0.2,0.3-0.3
		c0.1-0.1,0.1-0.1,0.2-0.2c0.1-0.1,0.2-0.2,0.2-0.3c0.1-0.1,0.1-0.2,0.2-0.2c0.1-0.1,0.1-0.3,0.2-0.4c0-0.1,0.1-0.2,0.1-0.3
		c0.1-0.1,0.1-0.3,0.2-0.4c0-0.1,0.1-0.2,0.1-0.3c0.1-0.2,0.1-0.4,0.2-0.5c0.1-0.2,0.1-0.3,0.2-0.5c0.1-0.2,0.1-0.4,0.2-0.6
		c0-0.2,0.1-0.4,0.1-0.5c0-0.1,0.1-0.3,0.1-0.4c0-0.2,0.1-0.4,0.1-0.6c0-0.1,0.1-0.3,0.1-0.4c0-0.2,0.1-0.4,0.1-0.7
		c0-0.1,0-0.2,0.1-0.3c0-0.2,0.1-0.5,0.1-0.7c0-0.1,0.2-0.2,0.2-0.3c0-0.3,0.3-0.6,0.3-0.9c0,0,0,0,0,0c0-1,0-2.1,0.1-3.2
		c0,0-0.1,0-0.1,0c-0.6,1.1-1.4,2.1-2.3,2.9c-4.9,4.7-17.4-4.2-17.4-4.2s-6.7,10.5-27.9,12c2.1,2.5,3.6,5.8-1,5.8
		c-4.8,0-7.6-4.1-8.5-5.8c-0.2,0-0.4,0-0.6,0c-12.8-0.7-19.5-4.5-23.1-8.5c-2.5-1.4-3.8-3.9-3.8-3.9s0.5,1.2,1.4,3.1
		c0.5,1,1.1,2.2,1.9,3.6c0.4,0.8,0.9,1.6,1.4,2.4c1.1,1.7,2.3,3.4,3.7,5.1C48.3,106.5,49,107.3,49.7,108z"/>
	<circle fill="#B1DDF2" cx="33.2" cy="85" r="2.3"/>
	<circle opacity="0.69" fill="#FFFFFF" cx="33.2" cy="85" r="2.3"/>
	<circle fill="#B1DDF2" cx="36.4" cy="75.1" r="2"/>
	<circle opacity="0.69" fill="#FFFFFF" cx="36.4" cy="75.1" r="2"/>
	<circle fill="#B1DDF2" cx="25.8" cy="68.7" r="2.9"/>
	<circle opacity="0.69" fill="#FFFFFF" cx="25.8" cy="68.7" r="2.9"/>
	<path fill="#B1DDF2" d="M33.1,61.5c0,2.5,2.1,4.6,4.6,4.6c2.5,0,4.6-2.1,4.6-4.6c0-1.3-0.5-2.4-1.3-3.2c-2.4,0.1-4.8,0.5-7.3,1
		C33.3,60,33.1,60.8,33.1,61.5z"/>
	<path opacity="0.69" fill="#FFFFFF" d="M33.1,61.5c0,2.5,2.1,4.6,4.6,4.6c2.5,0,4.6-2.1,4.6-4.6c0-1.3-0.5-2.4-1.3-3.2
		c-2.4,0.1-4.8,0.5-7.3,1C33.3,60,33.1,60.8,33.1,61.5z"/>
	<path fill="#B1DDF2" d="M37.7,56.9c-1.8,0-3.3,1-4,2.4c2.5-0.6,4.9-0.9,7.3-1C40.1,57.5,39,56.9,37.7,56.9z"/>
	<path fill="#387167" d="M43.2,95.5c0.8,0.4,1.7,0.8,2.8,0.9c4.4,0.4,7-3.6,7-3.6L52.2,92c0,0-1.6,3.1-5.6,3.3
		c-2.2,0.1-3.9-1-5.1-1.9c-1-0.8-1.6-1.6-1.6-1.6l-0.6-0.1C39.3,91.6,40.6,94.1,43.2,95.5z"/>
	<path fill="#E1B78C" d="M73.9,139.2c-0.4,0-0.8,0-1.1,0C73.2,139.2,73.5,139.2,73.9,139.2z"/>
	<path fill="#E1B78C" d="M62.1,138.7c-0.2,0-0.4,0-0.6,0C61.7,138.7,61.9,138.7,62.1,138.7z"/>
	<path fill="#E1B78C" d="M63.6,138.8c-0.2,0-0.5,0-0.7,0C63.2,138.8,63.4,138.8,63.6,138.8z"/>
	<path fill="#E1B78C" d="M76.3,139.2c-0.6,0-1.2,0-1.8,0C75.1,139.2,75.7,139.2,76.3,139.2z"/>
	<path fill="#E1B78C" d="M60.5,138.6c-0.2,0-0.4,0-0.5,0C60.2,138.6,60.4,138.6,60.5,138.6z"/>
	<path fill="#E1B78C" d="M66.9,139c-0.3,0-0.5,0-0.8,0C66.3,139,66.6,139,66.9,139z"/>
	<path fill="#E1B78C" d="M68.5,139c-0.3,0-0.6,0-0.8,0C68,139,68.3,139,68.5,139z"/>
	<path fill="#E1B78C" d="M59,138.5c-0.1,0-0.3,0-0.4,0C58.8,138.5,58.9,138.5,59,138.5z"/>
	<path fill="#E1B78C" d="M65.2,138.9c-0.3,0-0.5,0-0.8,0C64.7,138.9,65,138.9,65.2,138.9z"/>
	<path fill="#E1B78C" d="M70.3,139.1c-0.3,0-0.6,0-0.9,0C69.7,139.1,70,139.1,70.3,139.1z"/>
	<path fill="#E1B78C" d="M72.1,139.1c-0.3,0-0.7,0-1,0C71.4,139.1,71.7,139.1,72.1,139.1z"/>
	<path fill="#E1B78C" d="M48.2,137.1C48.2,137.1,48.1,137.1,48.2,137.1C48.1,137.1,48.2,137.1,48.2,137.1z"/>
	<path fill="#E1B78C" d="M45.5,136.5C45.5,136.5,45.5,136.5,45.5,136.5C45.5,136.5,45.5,136.5,45.5,136.5z"/>
	<path fill="#E1B78C" d="M46.4,136.7C46.3,136.7,46.3,136.7,46.4,136.7C46.3,136.7,46.3,136.7,46.4,136.7z"/>
	<path fill="#E1B78C" d="M44.7,136.3C44.7,136.2,44.7,136.2,44.7,136.3C44.7,136.2,44.7,136.2,44.7,136.3z"/>
	<path fill="#E1B78C" d="M49.2,137.3C49.2,137.3,49.2,137.3,49.2,137.3C49.2,137.3,49.2,137.3,49.2,137.3z"/>
	<path fill="#E1B78C" d="M47.3,136.9C47.2,136.9,47.2,136.9,47.3,136.9C47.2,136.9,47.2,136.9,47.3,136.9z"/>
	<path fill="#E1B78C" d="M57.6,138.4c-0.1,0-0.1,0-0.2,0C57.5,138.4,57.5,138.4,57.6,138.4z"/>
	<path fill="#E1B78C" d="M44,136C44,136,44,136,44,136C44,136,44,136,44,136z"/>
	<path fill="#E1B78C" d="M124.7,122.9c-0.8-0.7-1.8-1.3-2.9-1.9c-1.3-0.6-2.9-1.1-4.6-1.3c-2.1-0.3-4.5-0.4-7.3-0.1
		c-0.9,0.1-1.9,0.2-2.9,0.4c-0.9,0.2-1.7,0.3-2.6,0.5c-0.4,0.1-0.8,0.2-1.2,0.3c-1.4,0.3-2.8,0.7-4.2,1.1c-9,2.4-18.1,5-35.2,0.3
		c-5.3-1.4-9.9-1.8-14-1.6c-2.2,0.1-4.2,0.4-6,0.9c-0.6,0.1-1.2,0.3-1.8,0.5c-1.7,0.5-3.2,1.1-4.6,1.7c-1,0.5-1.9,0.9-2.7,1.4
		c-0.8,0.5-1.5,1-2.1,1.4c-0.3,0.2-0.6,0.5-0.9,0.7c0.7,0.7,1.4,1.3,2.2,1.9c0,0,0,0,0.1,0.1c1.4,1.2,2.9,2.3,4.4,3.4
		c0.2,0.1,0.3,0.2,0.5,0.4c0.7,0.5,1.5,1,2.2,1.5c-0.1-0.2-0.2-0.4-0.2-0.6c0-3,15.9-5.4,35.6-5.4c19.5,0,35.4,2.4,35.6,5.4l0.3,0
		c0.6-0.4,1.1-0.8,1.7-1.2c0.1,0,0.1-0.1,0.2-0.1C117.9,129.6,121.5,126.4,124.7,122.9z"/>
	<path fill="#D0995C" d="M76.3,128.3c-19.7,0-35.6,2.4-35.6,5.4c0,0.2,0.1,0.4,0.2,0.6c0,0,0,0,0,0c0,0,0,0,0,0
		c0.4,0.6,1.5,1.1,3,1.7c0,0,0,0,0,0c0.2,0.1,0.4,0.1,0.7,0.2c0,0,0,0,0,0c0.2,0.1,0.5,0.1,0.7,0.2c0,0,0.1,0,0.1,0
		c0.2,0.1,0.5,0.1,0.8,0.2c0,0,0.1,0,0.1,0c0.3,0.1,0.5,0.1,0.8,0.2c0,0,0.1,0,0.1,0c0.3,0.1,0.6,0.1,0.9,0.2c0,0,0.1,0,0.1,0
		c0.3,0.1,0.6,0.1,0.9,0.2c0,0,0,0,0.1,0c2.4,0.4,5.1,0.8,8.2,1.1c0.1,0,0.1,0,0.2,0c0.3,0,0.7,0.1,1,0.1c0.1,0,0.3,0,0.4,0
		c0.3,0,0.6,0.1,1,0.1c0.2,0,0.4,0,0.5,0c0.3,0,0.6,0,0.9,0.1c0.2,0,0.4,0,0.6,0c0.3,0,0.6,0,0.9,0.1c0.2,0,0.5,0,0.7,0
		c0.3,0,0.6,0,0.9,0c0.3,0,0.5,0,0.8,0c0.3,0,0.6,0,0.8,0c0.3,0,0.5,0,0.8,0c0.3,0,0.6,0,0.8,0c0.3,0,0.6,0,0.8,0c0.3,0,0.6,0,0.8,0
		c0.3,0,0.6,0,0.9,0c0.3,0,0.5,0,0.8,0c0.3,0,0.7,0,1,0c0.2,0,0.5,0,0.7,0c0.4,0,0.8,0,1.1,0c0.2,0,0.4,0,0.6,0c0.6,0,1.2,0,1.8,0
		c19.7,0,35.7-2.4,35.7-5.4c0,0,0,0,0-0.1c0,0,0,0,0,0C112,130.7,95.9,128.3,76.3,128.3z"/>
	<ellipse fill="#DAEEF8" cx="77.6" cy="16.4" rx="26.9" ry="3.7"/>
</g>
</svg>
