<?xml version="1.0" encoding="utf-8"?>
<!-- Generator: Adobe Illustrator 18.1.0, SVG Export Plug-In . SVG Version: 6.00 Build 0)  -->
<svg version="1.1" id="Layer_1" xmlns="http://www.w3.org/2000/svg" xmlns:xlink="http://www.w3.org/1999/xlink" x="0px" y="0px"
	 viewBox="0 0 2000 2000" enable-background="new 0 0 2000 2000" xml:space="preserve">
<g>
	<path fill="#90C89E" d="M1316.6,1816.2c-175.1-171.3-625.3-73.4-625.3-73.4c70.4-2.2,125.1,24.4,291.8,130.5
		C1149.8,1979.3,1491.7,1987.5,1316.6,1816.2z"/>
	<path fill="#FFBE63" d="M603.9,478.3l14.7-7.3c-2.1-6.7-51.7-163.6-70.3-195.2c-6.3-10.7-14.9-13.5-21-14.1
		c-24.1-2.1-51.7,29.2-54.8,32.8l-4.2,4.9l3.9,5.1L603.9,478.3z"/>
	<path fill="#FFBE63" d="M436.7,628.4c-5.9-7.8-145.5-191.5-184.7-224.3c-12.2-10.3-23.8-10.2-31.3-8.3c-31.1,7.8-51.9,60.1-54.2,66
		l-2.3,6l5.5,3.6L425.3,640L436.7,628.4z"/>
	<path fill="#FFBE63" d="M1721.2,446.6c-1.3-23.7-36.8-46-40.9-48.4l-5.6-3.4l-4.7,4.5l-157.1,152.1l9.4,13.2
		c6.4-3,158.3-73.2,187.5-95.7C1719.8,461.3,1721.5,452.5,1721.2,446.6z"/>
	<path fill="#FFBE63" d="M506.4,899.2c35.8-165,206.5-290.4,411.1-290.4c212.9,0,391.4,135.3,415.3,314.6l0.6,4.8l4.7,1.8
		c20.4,7.7,36,21.6,46.1,41.5l6,11.7l4-5.2l-2.1-0.7c0.8-2.1,72.9-209.5-226.5-431.2l8-14.1c10.2,3.9,247.2,94.6,318.5,278.1
		c15.9-37.9,29.2-79.5,34.7-121.5l0.3-2.4l-1-2.1c-85.3-179.4-287-295.4-513.9-295.4c-281.1,0-514.1,179.5-549.7,411.2
		c6.9,13.6,13.9,29.8,20.8,48.8C489.5,865.6,497.3,882.5,506.4,899.2z"/>
	<path fill="#FFBE63" d="M871.3,373.6l16.3-1.7c0.7-9.7,15.6-238.1,7.5-287.9c-2.5-15.6-11.4-22.8-18.4-26.1
		c-28.9-13.7-79.3,12.9-85,16l-5.7,3.1l1.8,6.2L871.3,373.6z"/>
	<path fill="#FFBE63" d="M1230.5,168.1c3.1-11.9-1-19.8-5-24.4c-15.8-18-57.8-14.4-62.6-13.9l-6.6,0.7l-0.9,6.4L1126,351.1l15.7,4.8
		C1144.9,349.7,1221.3,203.4,1230.5,168.1z"/>
	<path fill="#FFBE63" d="M1557.8,239.7c9.1-13,7.8-24.2,5.1-31.3c-11.2-29.4-66.5-44.2-72.8-45.8l-6.4-1.6l-3.1,5.7l-144.3,266.6
		l13,9.8C1356.7,436.5,1528.6,281.3,1557.8,239.7z"/>
	<path fill="#9A5260" d="M1521.6,856.7c-45.1,124.7-177.6,242.8-262.3,315.4c-84.7,72.7,69.2,204.9,3.7,313.9
		c-65.5,109-175.3,1.3-224.7,50.1c-49.5,48.9,25.3,117.2,25.3,117.2c69.4,61.6,239.1,45.1,323.7-107.7
		c84.6-152.9,19.5-330.6,19.5-330.6c163.4-137.5,244.4-372.2,226.6-429C1615.5,729.2,1566.7,732,1521.6,856.7z"/>
	<path fill="#9A5260" d="M1414.4,1547.6c-2.7,112.7-25.8,169.5-30.2,205.5c-4.4,35.9,59.6,90.8,115.7-11.9
		c56.1-102.8-38-367.8-38-367.8C1456.7,1455.4,1414.4,1547.6,1414.4,1547.6z"/>
	<path fill="#9A5260" d="M1258.9,963.1c-47.3,16.6-74.4,60.8-60.5,98.6c13.9,37.9,63.5,55.1,110.7,38.5
		c47.3-16.6,74.4-60.7,60.6-98.6C1355.8,963.8,1306.2,946.5,1258.9,963.1z"/>
	<path fill="#00A9DE" d="M941.4,1645.2c0,0,74.8-68.4,25.3-117.2c-49.5-48.9-159.2,58.8-224.7-50.1
		c-65.6-108.9,88.3-241.3,3.6-313.9c-73.1-62.8-181.8-159.3-239.2-264.8c-9.1-16.7-16.9-33.6-23.1-50.7c-6.9-19-13.9-35.2-20.8-48.8
		c-38.5-75.3-75.8-70-91-21.9c-17.8,56.8,63.1,291.5,226.6,429c0,0-65.1,177.8,19.5,330.6C702.3,1690.3,871.9,1706.9,941.4,1645.2z"
		/>
	<path fill="#00A9DE" d="M590.6,1539.4c0,0-42.4-92.2-47.5-174.3c0,0-94.1,265-38,367.8c56.1,102.8,120.1,47.8,115.7,11.9
		C616.4,1708.9,593.2,1652.1,590.6,1539.4z"/>
	<path fill="#00A9DE" d="M635.3,993.5c-13.9,37.9,13.2,82,60.5,98.6c47.3,16.6,96.9-0.7,110.8-38.6c13.9-37.8-13.2-82-60.6-98.6
		C698.7,938.3,649.1,955.6,635.3,993.5z"/>
</g>
</svg>
