<?xml version="1.0" encoding="utf-8"?>
<!-- Generator: Adobe Illustrator 18.1.0, SVG Export Plug-In . SVG Version: 6.00 Build 0)  -->
<svg version="1.0" id="Layer_1" xmlns="http://www.w3.org/2000/svg" xmlns:xlink="http://www.w3.org/1999/xlink" x="0px" y="0px"
	 viewBox="0 0 150 150" enable-background="new 0 0 150 150" xml:space="preserve">
<g>
	<g>
		<path fill-rule="evenodd" clip-rule="evenodd" fill="#EF4B23" d="M107.6,22.3C97.6,16.5,94,11,83.2,9.4
			C51.4,4.8,29.6,39.3,43.1,66.7c2.2,4.5,6.3,8.5,8.3,14.2c4.4,12.6-0.7,30.8,14.4,32.5c-19.5,2.6-13.4-23.2-20-36.8
			c-4.5-9.3-10.6-15.2-11.7-24.8C29.1,7,87.7-9.5,107.6,22.3z"/>
	</g>
	<g>
		<polygon fill="#231F20" points="88.5,122.2 88.8,118.1 58.8,115.9 58.4,120 		"/>
		<polygon fill="#231F20" points="58,125.4 88,127.6 88.4,123.5 58.3,121.3 		"/>
		<polygon fill="#231F20" points="57.9,126.7 57.5,130.8 87.6,133 87.9,128.9 		"/>
		<polygon fill="#231F20" points="57.6,132.1 57.2,136.2 87.1,138.4 87.5,134.3 		"/>
		<polygon fill="#231F20" points="66.5,138.4 66.2,142.5 77.8,143.3 78.2,139.2 		"/>
	</g>
	<g>
		<path fill-rule="evenodd" clip-rule="evenodd" fill="#231F20" d="M56.3,27.7c9.7-3.5,13.7-7.8,23.5-7.4
			c28.5,1,42.1,34.6,25.9,56.4c-2.7,3.6-6.9,6.4-9.5,11.1c-5.8,10.3-4.3,27-17.8,26.2c16.7,5.4,15.4-18.2,23.3-29
			c5.5-7.4,11.7-11.6,14.2-19.8C127.4,26.8,78.8,3,56.3,27.7z"/>
	</g>
</g>
</svg>
