<?xml version="1.0" encoding="utf-8"?>
<!-- Generator: Adobe Illustrator 18.1.0, SVG Export Plug-In . SVG Version: 6.00 Build 0)  -->
<svg version="1.0" id="Layer_1" xmlns="http://www.w3.org/2000/svg" xmlns:xlink="http://www.w3.org/1999/xlink" x="0px" y="0px"
	 viewBox="0 0 150 150" enable-background="new 0 0 150 150" xml:space="preserve">
<path fill="#9DD6C9" d="M96,16.4c0,0,0-0.1,0.1-0.1c-0.2,0.2-0.3,0.3-0.5,0.5C95.8,16.7,95.9,16.6,96,16.4z"/>
<g>
	<path opacity="0.44" fill-rule="evenodd" clip-rule="evenodd" fill="#E8559A" d="M85.4,19.1c2.3,6.2-0.8,13.1-7,15.5
		c-6.2,2.3-13.1-0.8-15.5-7c-2.3-6.2,0.8-13.1,7-15.5C76.1,9.8,83,12.9,85.4,19.1z"/>
	<g>
		<g opacity="0.85">
			<path fill="#9C2D67" d="M82.2,13.5c-0.1-0.1-0.2-0.2-0.3-0.3L81.6,13c0.1,0.1,0.2,0.2,0.3,0.3C82,13.4,82.1,13.4,82.2,13.5z"/>
			<path fill="#9C2D67" d="M80.9,12.5c0,0-0.1-0.1-0.1-0.1c0,0-0.1,0-0.1-0.1C80.8,12.4,80.9,12.5,80.9,12.5z"/>
			<path fill="#9C2D67" d="M79.7,11.8c0.2,0.1,0.4,0.2,0.6,0.3C80.1,12.1,79.9,11.9,79.7,11.8z"/>
			<path fill="#9C2D67" d="M80.7,12.4C80.6,12.3,80.6,12.3,80.7,12.4C80.7,12.4,80.7,12.4,80.7,12.4c-0.1-0.1-0.2-0.2-0.3-0.2
				C80.4,12.2,80.6,12.3,80.7,12.4z"/>
			<path fill="#9C2D67" d="M80.7,12.4c0.1,0.1,0.2,0.1,0.2,0.2C80.8,12.5,80.7,12.5,80.7,12.4z"/>
			<path fill="#9C2D67" d="M80.2,12.5c-0.1-0.1,0-0.1-0.3-0.2c-0.6-0.3-1.1-0.5-1.7-0.7c-0.1,0-0.1,0-0.2-0.1
				c-0.1,0-0.2-0.1-0.2-0.1c-0.2-0.1-0.3-0.2-0.5-0.2c-0.2,0-0.4-0.1-0.6-0.1c-0.2,0-0.5-0.1-0.7-0.1c-0.4,0-0.5,0-0.1,0.1
				c0.1,0,0.2,0,0.3,0c0.1,0,0.2,0,0.3,0c0.2,0,0.3,0.1,0.5,0.1c0.2,0,0.3,0.1,0.5,0.1c0.1,0,0.3,0.1,0.4,0.1c0.1,0,0.3,0.1,0.4,0.1
				c0.1,0,0.3,0.1,0.4,0.2c0.1,0.1,0.3,0.1,0.4,0.2c0.1,0.1,0.3,0.1,0.4,0.2c0.1,0.1,0.2,0.1,0.4,0.2C80,12.4,80.1,12.5,80.2,12.5
				c0.3,0.2,0.5,0.3,0.7,0.4c0.5,0.3,0.9,0.6,1.3,0.9c0.2,0.2,0.5,0.4,0.7,0.6c-0.1-0.1-0.1-0.1-0.2-0.2c-0.1-0.1-0.1-0.1-0.2-0.2
				c-0.1-0.1-0.1-0.1-0.2-0.2c-0.1-0.1-0.2-0.1-0.2-0.2C81.6,13.3,80.9,13,80.2,12.5z"/>
			<path fill="#9C2D67" d="M85.8,18.3c-0.1-0.1-0.2-0.4-0.2-0.4c-0.2-0.6-0.6-1.2-1-1.7c0,0.1,0.1,0.2,0.1,0.3
				c0.1,0.2,0.2,0.2,0.2,0.3c0,0,0-0.1-0.1-0.2c0.4,0.7,0.7,1.3,1,2C85.8,18.5,85.9,18.5,85.8,18.3z"/>
			<path fill="#9C2D67" d="M86,19c-0.1-0.1-0.1-0.3-0.2-0.4v0C85.9,18.7,85.9,18.9,86,19L86,19z"/>
			<path fill="#9C2D67" d="M76.8,10.9c-1.9-0.4-3.7-0.4-5.4-0.1c-0.1,0-0.2,0.1-0.4,0.1c-0.1,0-0.3,0-0.4,0.1
				c-0.1,0-0.2,0.1-0.4,0.1c-0.1,0-0.2,0.1-0.4,0.1c-0.1,0-0.2,0.1-0.3,0.1l0,0c-0.1,0.1-0.1,0.1,0,0c0.1,0,0.2,0,0.3-0.1
				c-0.1,0-0.2,0-0.3,0.1c-0.1,0-0.2,0.1-0.4,0.1c-0.2,0.1-0.4,0.2-0.7,0.3c0.3-0.1,0.5-0.2,0.7-0.3c0.1-0.1,0.3-0.1,0.4-0.2
				c0,0,0.1,0,0.1-0.1c-0.3,0.1-0.6,0.2-0.8,0.3c-0.1,0.1-0.3,0.1-0.4,0.2l-0.4,0.2c-0.1,0.1-0.2,0.1-0.3,0.2
				c-0.4,0.2-0.7,0.4-1,0.5c-0.1,0.1-0.2,0.1-0.3,0.2c0,0,0,0,0,0c0,0-0.1,0-0.1,0.1c-0.1,0.1-0.2,0.1-0.3,0.2l-0.3,0.2
				c-0.1,0.1-0.2,0.1-0.3,0.2l-0.3,0.2c-0.2,0.2-0.4,0.4-0.6,0.6c0,0,0,0-0.1,0.1c-0.1,0-0.1,0.1-0.2,0.1c-0.1,0.1-0.2,0.2-0.3,0.4
				c0.2-0.2,0.4-0.3,0.5-0.4c0.1-0.1,0.2-0.2,0.3-0.3c0.1-0.1,0.1-0.1,0.2-0.2c0.1-0.1,0.1-0.1,0.2-0.1c-0.1,0-0.2,0.1-0.2,0.1
				c-0.1,0.1-0.1,0.1-0.2,0.2c-0.1,0.1-0.2,0.3-0.3,0.3c-0.2,0.1-0.3,0.3-0.5,0.4c-0.3,0.3-0.6,0.7-0.9,1c0.3-0.5,0.6-0.8,0.9-1
				c0.1-0.2,0.2-0.3,0.3-0.4c0,0,0.1-0.1,0.2-0.1c0,0,0.1-0.1,0.1-0.1c0.2-0.2,0.4-0.4,0.6-0.6c-0.7,0.5-1.3,1.2-1.9,1.9
				c-0.5,0.6-0.9,1.1-1.2,1.8c-0.4,0.6-0.7,1.3-0.9,1.9c-0.5,1.3-0.8,2.7-0.8,4.1c-0.1,2.8,0.7,5.7,2.4,8.2c1.9,2.7,4.6,4.5,7.6,5.3
				c0.7,0.2,1.5,0.3,2.3,0.4c0.8,0.1,1.5,0.1,2.3,0c0.7-0.1,1.5-0.2,2.2-0.4c0.7-0.2,1.4-0.4,2.1-0.8c0.2-0.1,0.3-0.2,0.5-0.2
				l0.5-0.3l0.5-0.3c0.2-0.1,0.3-0.2,0.5-0.3c0.6-0.4,1.2-0.9,1.8-1.4c1.1-1,2.1-2.3,2.8-3.7c0.3-0.5,0.6-1.2,0.8-2
				c0.3-0.8,0.4-1.6,0.5-2.5c0.1-0.9,0.1-1.7,0.1-2.5c-0.1-0.8-0.2-1.5-0.3-2.1c-0.1-0.2-0.1-0.4-0.2-0.5c-0.1-0.2-0.1-0.3-0.2-0.4
				c-0.1-0.2-0.2-0.4-0.3-0.5c-0.2-0.2-0.2-0.3-0.3-0.3c-0.1,0.1-0.1,0.5-0.1,0.6c0,0.1,0,0.2,0,0.3c0,0.1,0,0.2,0,0.3
				c0,0.2,0.1,0.4,0.1,0.7c0,0.2,0.1,0.4,0.1,0.7c0,0.2,0,0.5,0.1,0.7c0,0.5,0.1,1.1,0,1.8c0,0.7-0.2,1.5-0.4,2.3
				c0.2-0.6,0.2-0.8,0.2-0.7c0,0.1,0,0.5-0.2,1c-0.1,0.5-0.3,1.2-0.6,1.8c-0.3,0.6-0.7,1.3-1,1.7c-0.5,0.7-1.1,1.4-1.8,2.1
				c-0.7,0.7-1.5,1.3-2.4,1.9c-0.1,0.1-0.2,0.1-0.3,0.2c-0.1,0.1-0.2,0.1-0.4,0.2c-0.2,0.1-0.5,0.2-0.7,0.4c-0.5,0.2-1,0.4-1.5,0.6
				c-0.5,0.2-1.1,0.3-1.6,0.4c-0.1,0-0.3,0-0.4,0.1l-0.2,0L75,36c-0.1,0-0.3,0-0.4,0c-0.1,0-0.3,0-0.4,0c-0.3,0-0.5,0-0.8,0
				c-0.1,0-0.3,0-0.4,0c-0.1,0-0.3,0-0.4,0c-0.1,0-0.3,0-0.4-0.1c-0.1,0-0.3,0-0.4-0.1c-0.1,0-0.1,0-0.2,0c-0.1,0-0.1,0-0.2,0
				c-0.1,0-0.3-0.1-0.4-0.1c-3.1-0.8-5.8-2.7-7.5-5.4c-0.8-1.3-1.5-2.8-1.8-4.4c-0.3-1.6-0.3-3.2,0-4.9c0.4-1.7,1-3.2,1.8-4.5
				c0.6-0.9,1.5-1.8,2.1-2.4c0.5-0.5,1.1-0.9,1.6-1.2c0.5-0.3,1-0.6,1.6-0.9c-1.2,0.6-2,1.1-3.1,2c-0.4,0.3-0.3,0.2,0-0.1
				c0.1-0.1,0.3-0.3,0.5-0.5c0.2-0.2,0.3-0.3,0.5-0.4c0.1-0.1,0.3-0.2,0.4-0.2c0.2-0.1,0.3-0.1,0.4-0.2c0.1,0,0.1-0.1,0.2-0.1
				c0.1,0,0.1-0.1,0.2-0.1c0.1-0.1,0.3-0.1,0.4-0.2c0.3-0.1,0.5-0.3,0.8-0.4c0.3-0.1,0.3,0,0.4-0.1c0.8-0.3,1.5-0.6,2-0.7
				c0.2,0,0.4-0.1,0.6-0.1c0.2,0,0.4,0,0.6,0c0.2,0,0.5,0,0.7,0c0.2,0,0.3,0,0.5,0c-0.1,0-0.2-0.1-0.2-0.1c0.1,0,0.3,0,0.4,0
				c0.1,0,0.3,0,0.4,0c-0.1,0-0.3,0-0.4,0c-0.1,0-0.3,0-0.4,0c0,0,0.1,0.1,0.2,0.1c0.1,0,0.3,0,0.5,0c0.2,0,0.3,0,0.5,0
				c0.2,0,0.3,0,0.5,0c0.2,0,0.3,0,0.5,0c0.6,0.1,1.3,0.2,1.9,0.4c0,0,0,0,0,0c-0.7-0.2-1.4-0.4-2.2-0.5c0.2,0,0.2,0.1,0.2,0.1
				c0,0-0.1,0-0.3,0c-0.1,0-0.2-0.1-0.3-0.1c0.7,0,1.3,0.1,1.9,0.3c0,0,0.3,0.1,0.4,0.1c0.2,0.1,0.2,0.1,0.2,0.1
				c0.1,0,0.3,0.1,0.4,0.1c-0.1,0-0.2-0.1-0.3-0.1c-0.1-0.1-0.3-0.1-0.4-0.2c-0.1,0-0.3-0.1-0.3-0.1C76.8,10.9,76.8,10.9,76.8,10.9z
				"/>
			<path fill="#9C2D67" d="M69.2,11.4c0.1,0,0.2-0.1,0.3-0.1L69.2,11.4l-0.3,0.1c-0.1,0.1-0.2,0.1-0.3,0.1l-0.3,0.1
				c0.1,0,0.3-0.1,0.5-0.2C68.8,11.6,69,11.5,69.2,11.4z"/>
		</g>
	</g>
	<path fill-rule="evenodd" clip-rule="evenodd" fill="#C0A1CC" d="M56.9,23.6c0.4,5.4-3.6,10.1-9,10.5c-5.4,0.4-10.1-3.6-10.5-9
		C37,19.7,41,15,46.4,14.6C51.8,14.2,56.5,18.2,56.9,23.6z"/>
	<g>
		<g opacity="0.85">
			<path fill="#71438A" d="M55.7,18.4c-0.1-0.1-0.1-0.2-0.2-0.3l-0.2-0.3c0.1,0.1,0.1,0.2,0.2,0.3C55.6,18.3,55.6,18.4,55.7,18.4z"
				/>
			<path fill="#71438A" d="M54.9,17.4C54.9,17.4,54.9,17.4,54.9,17.4c-0.1-0.1-0.1-0.1-0.2-0.2C54.8,17.3,54.9,17.4,54.9,17.4z"/>
			<path fill="#71438A" d="M54.1,16.6c0.2,0.1,0.3,0.3,0.4,0.4C54.4,16.9,54.3,16.7,54.1,16.6z"/>
			<path fill="#71438A" d="M54.7,17.3C54.7,17.2,54.7,17.2,54.7,17.3C54.8,17.3,54.8,17.3,54.7,17.3c0-0.1-0.1-0.2-0.2-0.3
				C54.6,17.1,54.7,17.2,54.7,17.3z"/>
			<path fill="#71438A" d="M54.7,17.3c0,0.1,0.1,0.1,0.1,0.2C54.8,17.4,54.8,17.3,54.7,17.3z"/>
			<path fill="#71438A" d="M54.3,17.3c-0.1-0.1,0-0.1-0.2-0.3c-0.4-0.4-0.8-0.6-1.2-0.9c0,0-0.1-0.1-0.1-0.1c-0.1,0-0.1-0.1-0.2-0.1
				c-0.1-0.1-0.2-0.2-0.3-0.2c-0.1-0.1-0.3-0.2-0.5-0.2c-0.2-0.1-0.4-0.2-0.5-0.2c-0.3-0.1-0.4-0.1-0.1,0c0.1,0,0.1,0.1,0.2,0.1
				c0.1,0,0.1,0.1,0.2,0.1c0.1,0.1,0.2,0.1,0.4,0.2c0.1,0.1,0.2,0.1,0.3,0.2c0.1,0.1,0.2,0.1,0.3,0.2c0.1,0.1,0.2,0.1,0.3,0.2
				c0.1,0.1,0.2,0.1,0.3,0.2c0.1,0.1,0.2,0.2,0.3,0.2c0.1,0.1,0.2,0.2,0.3,0.3c0.1,0.1,0.2,0.1,0.2,0.2
				C54.2,17.1,54.3,17.2,54.3,17.3c0.2,0.2,0.3,0.3,0.5,0.5c0.3,0.3,0.6,0.7,0.8,1c0.1,0.2,0.3,0.4,0.4,0.6c0-0.1-0.1-0.1-0.1-0.2
				c0-0.1-0.1-0.1-0.1-0.2c0-0.1-0.1-0.1-0.1-0.2c0-0.1-0.1-0.1-0.1-0.2C55.3,18.2,54.8,17.8,54.3,17.3z"/>
			<path fill="#71438A" d="M57.4,23.1c0-0.1-0.1-0.3-0.1-0.3c0-0.5-0.2-1.1-0.4-1.6c0,0.1,0,0.2,0,0.2c0.1,0.1,0.1,0.2,0.1,0.2
				c0,0,0-0.1,0-0.2c0.1,0.6,0.2,1.2,0.3,1.8C57.4,23.2,57.4,23.2,57.4,23.1z"/>
			<path fill="#71438A" d="M57.4,23.6c0-0.1,0-0.2,0-0.4l0,0C57.4,23.4,57.4,23.5,57.4,23.6L57.4,23.6z"/>
			<path fill="#71438A" d="M52.1,15.2c-1.4-0.8-2.8-1.2-4.2-1.3c-0.1,0-0.2,0-0.3,0c-0.1,0-0.2,0-0.3,0c-0.1,0-0.2,0-0.3,0
				c-0.1,0-0.2,0-0.3,0c-0.1,0-0.1,0-0.2,0h0c-0.1,0-0.1,0,0,0c0.1,0,0.2,0,0.2,0c0,0-0.1,0-0.2,0c-0.1,0-0.2,0-0.3,0
				c-0.2,0-0.4,0-0.6,0.1c0.2,0,0.4-0.1,0.6-0.1c0.1,0,0.2,0,0.3,0c0,0,0.1,0,0.1,0c-0.2,0-0.5,0-0.7,0c-0.1,0-0.2,0-0.4,0L45,13.9
				c-0.1,0-0.2,0-0.3,0.1c-0.3,0.1-0.7,0.2-0.9,0.2c-0.1,0-0.2,0-0.2,0.1c0,0,0,0,0,0c0,0-0.1,0-0.1,0c-0.1,0-0.2,0.1-0.3,0.1
				l-0.2,0.1c-0.1,0-0.2,0.1-0.3,0.1l-0.3,0.1c-0.2,0.1-0.4,0.2-0.6,0.3c0,0,0,0-0.1,0c0,0-0.1,0-0.1,0c-0.1,0.1-0.2,0.1-0.3,0.2
				c0.2-0.1,0.3-0.1,0.5-0.2c0.1,0,0.2-0.1,0.3-0.2c0.1,0,0.1-0.1,0.2-0.1c0.1,0,0.1-0.1,0.2-0.1c-0.1,0-0.1,0-0.2,0.1
				c-0.1,0-0.1,0.1-0.2,0.1c-0.1,0.1-0.2,0.1-0.3,0.2c-0.1,0.1-0.3,0.1-0.5,0.2c-0.3,0.2-0.7,0.4-1,0.6c0.3-0.3,0.7-0.5,1-0.6
				c0.1-0.1,0.2-0.2,0.3-0.2c0,0,0.1,0,0.1,0c0,0,0.1,0,0.1,0c0.2-0.1,0.4-0.2,0.6-0.3c-0.6,0.3-1.3,0.6-1.9,1
				c-0.5,0.3-0.9,0.7-1.4,1.1c-0.4,0.4-0.8,0.8-1.1,1.3c-0.7,0.9-1.2,1.9-1.6,3c-0.7,2.2-0.8,4.6,0,6.9c0.8,2.5,2.6,4.6,4.7,5.9
				c0.5,0.3,1.1,0.6,1.7,0.8c0.6,0.2,1.2,0.4,1.8,0.5c0.6,0.1,1.2,0.2,1.8,0.2c0.6,0,1.2,0,1.8-0.1c0.2,0,0.3,0,0.5-0.1l0.4-0.1
				l0.4-0.1c0.1,0,0.3-0.1,0.4-0.1c0.6-0.2,1.2-0.4,1.7-0.7c1.1-0.6,2.1-1.3,3.1-2.2c0.4-0.4,0.7-0.8,1.1-1.4c0.4-0.5,0.7-1.2,1-1.8
				c0.3-0.7,0.5-1.3,0.6-2c0.1-0.6,0.2-1.2,0.2-1.7c0-0.2,0-0.3,0-0.4c0-0.1,0-0.2,0-0.4c0-0.2-0.1-0.4-0.1-0.5
				c-0.1-0.2-0.1-0.3-0.2-0.3c-0.1,0-0.2,0.4-0.2,0.4c0,0.1,0,0.2,0,0.3c0,0.1,0,0.2,0,0.3c0,0.2-0.1,0.4-0.1,0.5
				c0,0.2-0.1,0.4-0.1,0.6c0,0.2-0.1,0.4-0.1,0.6c-0.1,0.4-0.2,0.9-0.4,1.4c-0.2,0.5-0.5,1.1-0.8,1.7c0.3-0.4,0.3-0.6,0.3-0.5
				c0,0.1-0.1,0.4-0.4,0.7c-0.2,0.4-0.5,0.9-0.9,1.3c-0.4,0.4-0.8,0.8-1.2,1.1c-0.6,0.4-1.2,0.8-1.9,1.2c-0.7,0.4-1.5,0.7-2.3,0.9
				c-0.1,0-0.2,0.1-0.3,0.1c-0.1,0-0.2,0-0.3,0.1c-0.2,0.1-0.4,0.1-0.7,0.1c-0.4,0.1-0.9,0.1-1.3,0.1c-0.4,0-0.9,0-1.3-0.1
				c-0.1,0-0.2,0-0.3-0.1l-0.2,0l-0.2,0c-0.1,0-0.2,0-0.3-0.1c-0.1,0-0.2-0.1-0.3-0.1c-0.2-0.1-0.4-0.1-0.6-0.2
				c-0.1,0-0.2-0.1-0.3-0.1c-0.1,0-0.2-0.1-0.3-0.1c-0.1,0-0.2-0.1-0.3-0.1c-0.1-0.1-0.2-0.1-0.3-0.2c-0.1,0-0.1,0-0.2-0.1
				c-0.1,0-0.1-0.1-0.2-0.1c-0.1-0.1-0.2-0.1-0.3-0.2c-2.2-1.4-3.9-3.5-4.6-5.9c-0.4-1.2-0.5-2.5-0.4-3.8c0.1-1.3,0.5-2.6,1.1-3.8
				c0.7-1.3,1.5-2.3,2.4-3.1c0.7-0.6,1.5-1.1,2.2-1.4c0.5-0.2,1-0.4,1.5-0.6c0.5-0.1,1-0.3,1.4-0.3c-1.1,0.2-1.8,0.4-2.9,0.9
				c-0.4,0.2-0.2,0.1,0-0.1c0.1-0.1,0.3-0.2,0.5-0.2c0.2-0.1,0.3-0.2,0.5-0.2c0.1,0,0.2-0.1,0.4-0.1c0.1,0,0.3,0,0.4-0.1
				c0.1,0,0.1,0,0.2,0c0.1,0,0.1,0,0.2,0c0.1,0,0.2-0.1,0.4-0.1c0.2,0,0.5-0.1,0.7-0.1c0.2,0,0.2,0,0.3,0c0.7-0.1,1.3-0.2,1.7-0.1
				c0.2,0,0.3,0,0.5,0.1c0.2,0,0.3,0.1,0.5,0.1c0.2,0,0.4,0.1,0.6,0.1c0.1,0,0.3,0,0.4,0.1c-0.1-0.1-0.1-0.1-0.2-0.1
				c0.1,0,0.2,0.1,0.3,0.1c0.1,0,0.2,0.1,0.3,0.1c-0.1,0-0.2-0.1-0.3-0.1c-0.1,0-0.2-0.1-0.3-0.1c0,0,0.1,0.1,0.2,0.1
				c0.1,0,0.2,0.1,0.4,0.1c0.1,0,0.2,0.1,0.4,0.1c0.1,0,0.2,0.1,0.4,0.1c0.1,0,0.2,0.1,0.4,0.1c0.5,0.2,1,0.4,1.4,0.7l0,0
				c-0.5-0.3-1-0.6-1.6-0.9c0.1,0.1,0.2,0.1,0.2,0.1c0,0-0.1,0-0.2-0.1c-0.1,0-0.1-0.1-0.2-0.1c0.5,0.2,1,0.4,1.4,0.7
				c0,0,0.2,0.1,0.3,0.2c0.1,0.1,0.1,0.1,0.1,0.2c0.1,0.1,0.2,0.1,0.3,0.2c0,0-0.1-0.1-0.2-0.2c-0.1-0.1-0.2-0.2-0.3-0.2
				c-0.1-0.1-0.2-0.1-0.2-0.2C52.1,15.2,52.1,15.2,52.1,15.2z"/>
			<path fill="#71438A" d="M46,13.9c0.1,0,0.2,0,0.3,0L46,13.9l-0.3,0c-0.1,0-0.2,0-0.3,0l-0.3,0c0.1,0,0.2,0,0.4,0
				C45.6,13.9,45.8,13.9,46,13.9z"/>
		</g>
	</g>
	<path fill-rule="evenodd" clip-rule="evenodd" fill="#A3DDF5" d="M35.2,35.1c-0.3,4.6-4.2,8.2-8.9,7.9c-4.6-0.3-8.2-4.2-7.9-8.9
		c0.3-4.6,4.2-8.2,8.8-7.9C31.9,26.5,35.4,30.5,35.2,35.1z"/>
	<g>
		<g opacity="0.85">
			<path fill="#4C8496" d="M34.8,30.6c0-0.1-0.1-0.2-0.1-0.3l-0.1-0.3c0,0.1,0.1,0.2,0.1,0.3C34.7,30.5,34.7,30.6,34.8,30.6z"/>
			<path fill="#4C8496" d="M34.2,29.7C34.2,29.6,34.2,29.6,34.2,29.7c-0.1-0.1-0.1-0.1-0.1-0.2C34.2,29.6,34.2,29.6,34.2,29.7z"/>
			<path fill="#4C8496" d="M33.6,28.9c0.1,0.1,0.2,0.3,0.3,0.4C33.8,29.1,33.7,29,33.6,28.9z"/>
			<path fill="#4C8496" d="M34.1,29.5C34.1,29.5,34,29.4,34.1,29.5L34.1,29.5c0-0.1-0.1-0.2-0.2-0.2C34,29.4,34,29.4,34.1,29.5z"/>
			<path fill="#4C8496" d="M34.1,29.5c0,0.1,0.1,0.1,0.1,0.2C34.1,29.6,34.1,29.6,34.1,29.5z"/>
			<path fill="#4C8496" d="M33.7,29.5c-0.1-0.1,0-0.1-0.1-0.2c-0.3-0.3-0.6-0.6-0.9-0.9c0,0-0.1-0.1-0.1-0.1c0,0-0.1-0.1-0.1-0.1
				c-0.1-0.1-0.2-0.2-0.2-0.2c-0.1-0.1-0.2-0.2-0.4-0.2c-0.1-0.1-0.3-0.2-0.4-0.2c-0.2-0.1-0.3-0.2-0.1,0c0.1,0,0.1,0.1,0.2,0.1
				c0,0,0.1,0.1,0.1,0.1c0.1,0.1,0.2,0.1,0.3,0.2c0.1,0.1,0.2,0.1,0.3,0.2c0.1,0.1,0.2,0.1,0.2,0.2c0.1,0.1,0.1,0.1,0.2,0.2
				c0.1,0.1,0.2,0.1,0.2,0.2c0.1,0.1,0.1,0.2,0.2,0.2c0.1,0.1,0.1,0.2,0.2,0.3c0.1,0.1,0.1,0.1,0.2,0.2
				C33.6,29.3,33.7,29.4,33.7,29.5c0.1,0.2,0.2,0.3,0.3,0.5c0.2,0.3,0.4,0.6,0.6,1c0.1,0.2,0.2,0.4,0.2,0.6c0-0.1,0-0.1-0.1-0.2
				c0-0.1-0.1-0.1-0.1-0.2c0-0.1-0.1-0.1-0.1-0.2c0-0.1-0.1-0.1-0.1-0.2C34.4,30.3,34.1,29.9,33.7,29.5z"/>
			<path fill="#4C8496" d="M35.7,34.8c0-0.1,0-0.3,0-0.3c0-0.4,0-0.9-0.1-1.4c0,0.1,0,0.1,0,0.2c0,0.1,0,0.2,0,0.2c0,0,0,0,0-0.2
				c0,0.5,0.1,1.1,0.1,1.6C35.6,34.9,35.7,34.9,35.7,34.8z"/>
			<path fill="#4C8496" d="M35.6,35.2c0-0.1,0-0.2,0-0.3v0C35.6,35,35.6,35.1,35.6,35.2L35.6,35.2z"/>
			<path fill="#4C8496" d="M32,27.4c-1.1-0.8-2.2-1.3-3.4-1.6c-0.1,0-0.2,0-0.3,0c-0.1,0-0.2-0.1-0.3-0.1c-0.1,0-0.2,0-0.3,0
				c-0.1,0-0.2,0-0.3,0c-0.1,0-0.1,0-0.2,0h0c-0.1,0-0.1,0,0,0c0.1,0,0.1,0,0.2,0c0,0-0.1,0-0.2,0c-0.1,0-0.2,0-0.3,0
				c-0.2,0-0.3,0-0.5,0c0.2,0,0.4,0,0.5,0c0.1,0,0.2,0,0.3,0c0,0,0.1,0,0.1,0c-0.2,0-0.4,0-0.6,0c-0.1,0-0.2,0-0.3,0l-0.3,0
				c-0.1,0-0.2,0-0.3,0c-0.3,0-0.6,0.1-0.8,0.1c-0.1,0-0.1,0-0.2,0l0,0c0,0-0.1,0-0.1,0c-0.1,0-0.2,0-0.2,0l-0.2,0
				c-0.1,0-0.1,0-0.2,0.1L24,25.9c-0.2,0.1-0.4,0.1-0.6,0.2c0,0,0,0-0.1,0c0,0-0.1,0-0.1,0c-0.1,0.1-0.2,0.1-0.3,0.2
				c0.2,0,0.3-0.1,0.4-0.1c0.1,0,0.2-0.1,0.3-0.1c0.1,0,0.1-0.1,0.2-0.1c0.1,0,0.1,0,0.2,0c-0.1,0-0.1,0-0.2,0c-0.1,0-0.1,0-0.2,0.1
				c-0.1,0.1-0.2,0.1-0.3,0.1c-0.1,0-0.3,0.1-0.4,0.1c-0.3,0.1-0.6,0.3-0.9,0.4c0.3-0.2,0.6-0.3,0.9-0.4c0.1-0.1,0.2-0.1,0.3-0.2
				c0,0,0.1,0,0.1,0c0,0,0.1,0,0.1,0c0.2-0.1,0.4-0.2,0.6-0.2c-0.6,0.2-1.2,0.4-1.7,0.7c-0.4,0.2-0.9,0.5-1.3,0.8
				c-0.4,0.3-0.8,0.6-1.1,1c-0.7,0.7-1.3,1.5-1.7,2.4c-0.9,1.8-1.2,3.8-0.8,5.9c0.4,2.2,1.7,4.2,3.3,5.6c0.4,0.3,0.9,0.6,1.3,0.9
				c0.5,0.3,1,0.5,1.4,0.6c0.5,0.2,1,0.3,1.5,0.4c0.5,0.1,1,0.1,1.6,0.1c0.1,0,0.3,0,0.4,0l0.4,0l0.4,0c0.1,0,0.3,0,0.4-0.1
				c0.5-0.1,1-0.2,1.5-0.4c1-0.3,2-0.9,2.9-1.5c0.3-0.3,0.7-0.6,1.1-1c0.4-0.4,0.7-0.9,1.1-1.4c0.3-0.5,0.6-1.1,0.8-1.6
				c0.2-0.5,0.3-1,0.4-1.4c0-0.1,0-0.3,0-0.4c0-0.1,0-0.2,0-0.3c0-0.2,0-0.3,0-0.4c0-0.2-0.1-0.3-0.1-0.3c-0.1,0-0.2,0.3-0.2,0.4
				c0,0.1,0,0.2-0.1,0.2c0,0.1-0.1,0.2-0.1,0.2c0,0.1-0.1,0.3-0.1,0.5c0,0.2-0.1,0.3-0.1,0.5c-0.1,0.2-0.1,0.3-0.2,0.5
				c-0.1,0.3-0.3,0.7-0.5,1.1c-0.2,0.4-0.5,0.9-0.9,1.4c0.3-0.3,0.4-0.4,0.3-0.4c0,0.1-0.2,0.3-0.4,0.6c-0.2,0.3-0.6,0.7-0.9,1
				c-0.4,0.3-0.8,0.6-1.1,0.8c-0.5,0.3-1.1,0.6-1.8,0.8c-0.6,0.2-1.3,0.4-2.1,0.5c-0.1,0-0.2,0-0.3,0c-0.1,0-0.2,0-0.3,0
				c-0.2,0-0.4,0-0.6,0c-0.4,0-0.8,0-1.1-0.1c-0.4,0-0.7-0.1-1.1-0.2c-0.1,0-0.2-0.1-0.3-0.1l-0.1,0l-0.1,0c-0.1,0-0.2-0.1-0.3-0.1
				c-0.1,0-0.2-0.1-0.2-0.1c-0.2-0.1-0.3-0.2-0.5-0.2c-0.1,0-0.2-0.1-0.2-0.1c-0.1,0-0.2-0.1-0.3-0.1c-0.1,0-0.2-0.1-0.3-0.1
				c-0.1-0.1-0.2-0.1-0.3-0.2c0,0-0.1-0.1-0.1-0.1c0,0-0.1-0.1-0.1-0.1c-0.1-0.1-0.2-0.1-0.3-0.2c-1.7-1.4-2.9-3.4-3.2-5.6
				c-0.2-1.1-0.1-2.2,0.1-3.3c0.2-1.1,0.7-2.2,1.4-3.1c0.7-1,1.5-1.8,2.4-2.4c0.7-0.4,1.4-0.7,2-0.9c0.5-0.1,0.9-0.2,1.4-0.3
				c0.4-0.1,0.9-0.1,1.3-0.1c-0.9,0-1.6,0.1-2.6,0.4c-0.3,0.1-0.2,0,0-0.1c0.1,0,0.3-0.1,0.4-0.2s0.3-0.1,0.4-0.1c0.1,0,0.2,0,0.4,0
				c0.1,0,0.3,0,0.3,0c0.1,0,0.1,0,0.2,0c0.1,0,0.1,0,0.2,0c0.1,0,0.2,0,0.3,0c0.2,0,0.4,0,0.6,0c0.2,0,0.2,0.1,0.3,0.1
				c0.6,0,1.1,0,1.5,0.1c0.1,0,0.3,0.1,0.4,0.1c0.1,0,0.3,0.1,0.4,0.1c0.2,0.1,0.3,0.1,0.5,0.2c0.1,0,0.2,0.1,0.3,0.1
				c-0.1-0.1-0.1-0.1-0.1-0.1c0.1,0,0.2,0.1,0.2,0.1c0.1,0,0.2,0.1,0.3,0.1c-0.1,0-0.2-0.1-0.3-0.1c-0.1,0-0.2-0.1-0.2-0.1
				c0,0,0,0.1,0.1,0.1c0.1,0,0.2,0.1,0.3,0.1c0.1,0,0.2,0.1,0.3,0.1c0.1,0,0.2,0.1,0.3,0.1c0.1,0.1,0.2,0.1,0.3,0.2
				c0.4,0.2,0.8,0.5,1.1,0.8l0,0c-0.4-0.3-0.8-0.6-1.2-1c0.1,0.1,0.1,0.1,0.1,0.1c0,0-0.1,0-0.2-0.1c-0.1,0-0.1-0.1-0.2-0.1
				c0.4,0.2,0.8,0.5,1.1,0.8c0,0,0.2,0.1,0.3,0.2c0.1,0.1,0.1,0.1,0.1,0.1c0.1,0.1,0.2,0.1,0.2,0.2c0,0-0.1-0.1-0.2-0.2
				c-0.1-0.1-0.1-0.1-0.2-0.2C32.2,27.6,32.2,27.6,32,27.4C32.1,27.5,32,27.4,32,27.4z"/>
			<path fill="#4C8496" d="M27,25.6c0.1,0,0.2,0,0.2,0L27,25.6l-0.3,0c-0.1,0-0.2,0-0.3,0l-0.3,0c0.1,0,0.2,0,0.3,0
				C26.7,25.6,26.9,25.6,27,25.6z"/>
		</g>
	</g>
	<path fill-rule="evenodd" clip-rule="evenodd" fill="#E5DC6E" d="M20.7,47.7c1.2,3.2-0.4,6.9-3.6,8.1c-3.2,1.2-6.9-0.4-8.1-3.6
		c-1.2-3.2,0.4-6.9,3.6-8.1C15.9,42.9,19.5,44.5,20.7,47.7z"/>
	<g>
		<g opacity="0.85">
			<path fill="#8C843F" d="M19.1,44.8c-0.1,0-0.1-0.1-0.2-0.1l-0.2-0.1c0.1,0,0.1,0.1,0.2,0.1C19,44.7,19,44.8,19.1,44.8z"/>
			<path fill="#8C843F" d="M18.4,44.3C18.4,44.3,18.3,44.3,18.4,44.3c-0.1-0.1-0.1-0.1-0.1-0.1C18.3,44.2,18.4,44.3,18.4,44.3z"/>
			<path fill="#8C843F" d="M17.7,43.9c0.1,0.1,0.2,0.1,0.3,0.2C18,44.1,17.9,44,17.7,43.9z"/>
			<path fill="#8C843F" d="M18.2,44.2C18.2,44.2,18.2,44.2,18.2,44.2L18.2,44.2c0-0.1-0.1-0.1-0.2-0.1
				C18.1,44.2,18.2,44.2,18.2,44.2z"/>
			<path fill="#8C843F" d="M18.2,44.2c0,0,0.1,0.1,0.1,0.1C18.3,44.3,18.3,44.3,18.2,44.2z"/>
			<path fill="#8C843F" d="M18,44.3c-0.1,0,0-0.1-0.2-0.1c-0.3-0.1-0.6-0.2-0.9-0.4c0,0-0.1,0-0.1,0c0,0-0.1,0-0.1-0.1
				c-0.1,0-0.2-0.1-0.2-0.1c-0.1,0-0.2,0-0.3-0.1c-0.1,0-0.2,0-0.3,0c-0.2,0-0.3,0,0,0c0,0,0.1,0,0.1,0c0,0,0.1,0,0.1,0
				c0.1,0,0.2,0,0.3,0.1c0.1,0,0.2,0,0.2,0.1c0.1,0,0.2,0,0.2,0.1c0.1,0,0.1,0,0.2,0.1c0.1,0,0.1,0.1,0.2,0.1c0.1,0,0.1,0.1,0.2,0.1
				c0.1,0,0.1,0.1,0.2,0.1c0.1,0,0.1,0.1,0.2,0.1C17.9,44.3,17.9,44.3,18,44.3c0.1,0.1,0.3,0.1,0.4,0.2c0.2,0.1,0.5,0.3,0.7,0.5
				c0.1,0.1,0.2,0.2,0.3,0.3c0,0-0.1-0.1-0.1-0.1c0,0-0.1-0.1-0.1-0.1c0,0-0.1-0.1-0.1-0.1c0,0-0.1-0.1-0.1-0.1
				C18.7,44.7,18.4,44.5,18,44.3z"/>
			<path fill="#8C843F" d="M20.9,47.3c0-0.1-0.1-0.2-0.1-0.2c-0.1-0.3-0.3-0.6-0.5-0.9c0,0.1,0,0.1,0.1,0.1c0.1,0.1,0.1,0.1,0.1,0.1
				c0,0,0,0,0-0.1c0.2,0.4,0.4,0.7,0.5,1.1C21,47.4,21,47.4,20.9,47.3z"/>
			<path fill="#8C843F" d="M21,47.7c0-0.1-0.1-0.1-0.1-0.2c0,0,0,0,0,0C21,47.5,21,47.6,21,47.7C21,47.7,21,47.7,21,47.7z"/>
			<path fill="#8C843F" d="M16.2,43.4c-1-0.2-1.9-0.2-2.8-0.1c-0.1,0-0.1,0-0.2,0.1c-0.1,0-0.1,0-0.2,0c-0.1,0-0.1,0-0.2,0.1
				c-0.1,0-0.1,0-0.2,0.1c0,0-0.1,0-0.1,0.1h0c-0.1,0,0,0,0,0c0.1,0,0.1,0,0.1,0c0,0-0.1,0-0.1,0c-0.1,0-0.1,0-0.2,0.1
				c-0.1,0.1-0.2,0.1-0.4,0.1c0.1-0.1,0.3-0.1,0.4-0.1c0.1,0,0.1-0.1,0.2-0.1c0,0,0,0,0.1,0c-0.1,0.1-0.3,0.1-0.4,0.2
				c-0.1,0-0.1,0.1-0.2,0.1l-0.2,0.1c-0.1,0-0.1,0.1-0.2,0.1c-0.2,0.1-0.4,0.2-0.5,0.3c0,0-0.1,0.1-0.1,0.1l0,0c0,0,0,0,0,0
				c-0.1,0-0.1,0.1-0.1,0.1l-0.1,0.1c0,0-0.1,0.1-0.1,0.1l-0.1,0.1c-0.1,0.1-0.2,0.2-0.3,0.3c0,0,0,0,0,0c0,0-0.1,0-0.1,0.1
				c0,0.1-0.1,0.1-0.2,0.2c0.1-0.1,0.2-0.1,0.3-0.2c0.1,0,0.1-0.1,0.2-0.2c0,0,0.1-0.1,0.1-0.1c0,0,0.1-0.1,0.1-0.1
				c0,0-0.1,0-0.1,0.1c0,0-0.1,0.1-0.1,0.1c-0.1,0.1-0.1,0.1-0.2,0.2c-0.1,0.1-0.2,0.1-0.3,0.2c-0.1,0.2-0.3,0.4-0.5,0.5
				c0.2-0.2,0.3-0.4,0.5-0.5c0.1-0.1,0.1-0.1,0.2-0.2c0,0,0.1,0,0.1,0c0.1,0,0.1-0.1,0.1-0.1c0.1-0.1,0.2-0.2,0.3-0.3
				c-0.4,0.3-0.7,0.6-1,1c-0.2,0.3-0.5,0.6-0.6,0.9c-0.2,0.3-0.3,0.7-0.5,1c-0.3,0.7-0.4,1.4-0.4,2.1c-0.1,1.5,0.4,3,1.3,4.3
				c1,1.4,2.4,2.4,4,2.8c0.4,0.1,0.8,0.2,1.2,0.2c0.4,0,0.8,0,1.2,0c0.4,0,0.8-0.1,1.2-0.2c0.4-0.1,0.7-0.2,1.1-0.4
				c0.1,0,0.2-0.1,0.3-0.1l0.3-0.1l0.3-0.1c0.1-0.1,0.2-0.1,0.2-0.2c0.3-0.2,0.6-0.5,0.9-0.7c0.6-0.5,1.1-1.2,1.5-1.9
				c0.2-0.3,0.3-0.6,0.4-1c0.1-0.4,0.2-0.9,0.3-1.3c0.1-0.5,0.1-0.9,0-1.3c0-0.4-0.1-0.8-0.2-1.1c0-0.1-0.1-0.2-0.1-0.3
				c0-0.1-0.1-0.1-0.1-0.2c0-0.1-0.1-0.2-0.1-0.3c-0.1-0.1-0.1-0.2-0.2-0.1c-0.1,0,0,0.3,0,0.3c0,0.1,0,0.1,0,0.2c0,0.1,0,0.1,0,0.2
				c0,0.1,0,0.2,0,0.3c0,0.1,0,0.2,0,0.4c0,0.1,0,0.3,0,0.4c0,0.3,0,0.6,0,0.9c0,0.4-0.1,0.8-0.2,1.2c0.1-0.3,0.1-0.4,0.1-0.4
				c0,0.1,0,0.2-0.1,0.5c-0.1,0.3-0.2,0.6-0.3,1c-0.2,0.3-0.4,0.7-0.5,0.9c-0.3,0.4-0.6,0.7-1,1.1c-0.4,0.4-0.8,0.7-1.3,1
				c-0.1,0-0.1,0.1-0.2,0.1c-0.1,0-0.1,0.1-0.2,0.1c-0.1,0.1-0.3,0.1-0.4,0.2c-0.3,0.1-0.5,0.2-0.8,0.3c-0.3,0.1-0.5,0.1-0.8,0.2
				c-0.1,0-0.1,0-0.2,0l-0.1,0l-0.1,0c-0.1,0-0.1,0-0.2,0c-0.1,0-0.1,0-0.2,0c-0.1,0-0.3,0-0.4,0c-0.1,0-0.1,0-0.2,0
				c-0.1,0-0.1,0-0.2,0c-0.1,0-0.1,0-0.2,0c-0.1,0-0.2,0-0.2,0c0,0-0.1,0-0.1,0c0,0-0.1,0-0.1,0c-0.1,0-0.2,0-0.2-0.1
				c-1.6-0.4-3-1.4-3.9-2.8c-0.4-0.7-0.8-1.5-0.9-2.3c-0.2-0.8-0.2-1.7,0-2.6c0.2-0.9,0.5-1.7,0.9-2.4c0.3-0.5,0.8-0.9,1.1-1.2
				c0.3-0.2,0.6-0.5,0.8-0.6c0.3-0.2,0.5-0.3,0.8-0.5c-0.6,0.3-1,0.6-1.6,1.1c-0.2,0.2-0.1,0.1,0,0c0.1-0.1,0.2-0.2,0.2-0.2
				c0.1-0.1,0.2-0.2,0.2-0.2c0.1,0,0.1-0.1,0.2-0.1c0.1,0,0.2-0.1,0.2-0.1c0,0,0.1,0,0.1-0.1c0,0,0.1,0,0.1-0.1
				c0.1,0,0.1-0.1,0.2-0.1c0.1-0.1,0.3-0.2,0.4-0.2c0.1-0.1,0.1,0,0.2,0c0.4-0.2,0.8-0.3,1.1-0.4c0.1,0,0.2,0,0.3,0
				c0.1,0,0.2,0,0.3,0c0.1,0,0.2,0,0.4,0c0.1,0,0.2,0,0.3,0c-0.1,0-0.1,0-0.1-0.1c0.1,0,0.1,0,0.2,0c0.1,0,0.2,0,0.2,0
				c-0.1,0-0.1,0-0.2,0c-0.1,0-0.1,0-0.2,0c0,0,0,0,0.1,0.1c0.1,0,0.2,0,0.2,0c0.1,0,0.2,0,0.2,0c0.1,0,0.2,0,0.2,0
				c0.1,0,0.2,0,0.3,0c0.3,0,0.7,0.1,1,0.2c0,0,0,0,0,0c-0.4-0.1-0.7-0.2-1.1-0.3c0.1,0,0.1,0,0.1,0c0,0-0.1,0-0.2,0
				c-0.1,0-0.1,0-0.1,0C15.6,43.3,16,43.4,16.2,43.4c0.1,0.1,0.2,0.1,0.3,0.1c0.1,0,0.1,0.1,0.1,0.1c0.1,0,0.2,0.1,0.2,0.1
				c0,0-0.1,0-0.2-0.1c-0.1,0-0.1-0.1-0.2-0.1C16.4,43.5,16.3,43.5,16.2,43.4C16.2,43.4,16.2,43.4,16.2,43.4z"/>
			<path fill="#8C843F" d="M12.2,43.7c0,0,0.1,0,0.2-0.1L12.2,43.7l-0.2,0.1c-0.1,0-0.1,0-0.2,0.1l-0.2,0.1c0.1,0,0.2-0.1,0.2-0.1
				C12,43.8,12.1,43.7,12.2,43.7z"/>
		</g>
	</g>
	<path opacity="0.44" fill-rule="evenodd" clip-rule="evenodd" fill="#E8559A" d="M16.7,62.3c0.9,2.4-0.3,5.1-2.7,6
		c-2.4,0.9-5.1-0.3-6-2.7c-0.9-2.4,0.3-5.1,2.7-6C13.2,58.7,15.8,59.9,16.7,62.3z"/>
	<g>
		<g opacity="0.85">
			<path fill="#9C2D67" d="M15.5,60.1c0,0-0.1-0.1-0.1-0.1l-0.1-0.1c0,0,0.1,0.1,0.1,0.1C15.4,60.1,15.5,60.1,15.5,60.1z"/>
			<path fill="#9C2D67" d="M15,59.7C15,59.7,15,59.7,15,59.7C15,59.7,14.9,59.7,15,59.7C15,59.7,15,59.7,15,59.7z"/>
			<path fill="#9C2D67" d="M14.5,59.5c0.1,0,0.2,0.1,0.3,0.1C14.7,59.6,14.6,59.5,14.5,59.5z"/>
			<path fill="#9C2D67" d="M14.9,59.7C14.9,59.7,14.9,59.7,14.9,59.7L14.9,59.7c0,0-0.1-0.1-0.1-0.1C14.8,59.6,14.9,59.7,14.9,59.7z
				"/>
			<path fill="#9C2D67" d="M14.9,59.7C14.9,59.7,15,59.8,14.9,59.7C15,59.7,14.9,59.7,14.9,59.7z"/>
			<path fill="#9C2D67" d="M14.7,59.8c0,0,0-0.1-0.1-0.1c-0.2-0.1-0.4-0.2-0.7-0.3c0,0-0.1,0-0.1,0c0,0-0.1,0-0.1,0
				c-0.1,0-0.1-0.1-0.2-0.1c-0.1,0-0.1,0-0.2,0c-0.1,0-0.2,0-0.3,0c-0.1,0-0.2,0,0,0c0,0,0.1,0,0.1,0c0,0,0.1,0,0.1,0
				c0.1,0,0.1,0,0.2,0c0.1,0,0.1,0,0.2,0c0.1,0,0.1,0,0.2,0.1c0.1,0,0.1,0,0.2,0.1c0,0,0.1,0,0.2,0.1c0.1,0,0.1,0,0.2,0.1
				c0.1,0,0.1,0.1,0.2,0.1c0.1,0,0.1,0,0.1,0.1C14.6,59.7,14.7,59.7,14.7,59.8c0.1,0.1,0.2,0.1,0.3,0.2c0.2,0.1,0.4,0.2,0.5,0.4
				c0.1,0.1,0.2,0.2,0.2,0.2c0,0,0-0.1-0.1-0.1c0,0-0.1-0.1-0.1-0.1c0,0-0.1-0.1-0.1-0.1c0,0-0.1-0.1-0.1-0.1
				C15.3,60,15,59.9,14.7,59.8z"/>
			<path fill="#9C2D67" d="M16.9,62c0,0-0.1-0.1-0.1-0.1c-0.1-0.2-0.2-0.5-0.4-0.7c0,0,0,0.1,0,0.1c0,0.1,0.1,0.1,0.1,0.1
				c0,0,0,0,0-0.1C16.7,61.6,16.8,61.8,16.9,62C16.9,62.1,16.9,62.1,16.9,62z"/>
			<path fill="#9C2D67" d="M17,62.2c0-0.1,0-0.1-0.1-0.2l0,0C16.9,62.1,16.9,62.2,17,62.2L17,62.2z"/>
			<path fill="#9C2D67" d="M13.4,59.1c-0.7-0.2-1.4-0.2-2.1,0c0,0-0.1,0-0.2,0c-0.1,0-0.1,0-0.2,0c0,0-0.1,0-0.1,0c0,0-0.1,0-0.1,0
				c0,0-0.1,0-0.1,0h0c0,0,0,0,0,0c0,0,0.1,0,0.1,0c0,0-0.1,0-0.1,0c0,0-0.1,0-0.2,0c-0.1,0-0.2,0.1-0.3,0.1c0.1,0,0.2-0.1,0.3-0.1
				c0.1,0,0.1,0,0.2-0.1c0,0,0,0,0,0c-0.1,0-0.2,0.1-0.3,0.1c-0.1,0-0.1,0-0.2,0.1l-0.2,0.1c0,0-0.1,0-0.1,0.1
				c-0.1,0.1-0.3,0.2-0.4,0.2c0,0-0.1,0-0.1,0.1c0,0,0,0,0,0l0,0c0,0-0.1,0-0.1,0.1L9.2,60c0,0-0.1,0-0.1,0.1L9,60.1
				c-0.1,0.1-0.2,0.2-0.2,0.2c0,0,0,0,0,0s0,0-0.1,0c0,0-0.1,0.1-0.1,0.1c0.1-0.1,0.1-0.1,0.2-0.2c0,0,0.1-0.1,0.1-0.1
				c0,0,0-0.1,0.1-0.1c0,0,0.1,0,0.1-0.1c0,0-0.1,0-0.1,0.1c0,0,0,0-0.1,0.1c0,0.1-0.1,0.1-0.1,0.1c-0.1,0.1-0.1,0.1-0.2,0.2
				c-0.1,0.1-0.2,0.3-0.4,0.4c0.1-0.2,0.2-0.3,0.4-0.4c0-0.1,0.1-0.1,0.1-0.1c0,0,0,0,0.1,0s0,0,0,0c0.1-0.1,0.2-0.2,0.2-0.2
				c-0.3,0.2-0.5,0.4-0.7,0.7c-0.2,0.2-0.3,0.4-0.5,0.7c-0.1,0.2-0.3,0.5-0.3,0.7c-0.2,0.5-0.3,1-0.3,1.6c0,1.1,0.3,2.2,0.9,3.1
				c0.7,1,1.8,1.8,2.9,2.1c0.3,0.1,0.6,0.1,0.9,0.1c0.3,0,0.6,0,0.9,0c0.3,0,0.6-0.1,0.8-0.2c0.3-0.1,0.5-0.2,0.8-0.3
				c0.1,0,0.1-0.1,0.2-0.1l0.2-0.1l0.2-0.1c0.1,0,0.1-0.1,0.2-0.1c0.2-0.2,0.5-0.3,0.7-0.5c0.4-0.4,0.8-0.9,1.1-1.4
				c0.1-0.2,0.2-0.5,0.3-0.8c0.1-0.3,0.2-0.6,0.2-1c0-0.3,0-0.7,0-1c0-0.3-0.1-0.6-0.1-0.8c0-0.1,0-0.1-0.1-0.2c0-0.1,0-0.1-0.1-0.2
				c0-0.1-0.1-0.2-0.1-0.2c-0.1-0.1-0.1-0.1-0.1-0.1c-0.1,0,0,0.2,0,0.2c0,0,0,0.1,0,0.1c0,0,0,0.1,0,0.1c0,0.1,0,0.2,0,0.3
				c0,0.1,0,0.2,0,0.3c0,0.1,0,0.2,0,0.3c0,0.2,0,0.4,0,0.7c0,0.3-0.1,0.6-0.2,0.9c0.1-0.2,0.1-0.3,0.1-0.3c0,0,0,0.2-0.1,0.4
				c0,0.2-0.1,0.5-0.2,0.7c-0.1,0.2-0.3,0.5-0.4,0.7c-0.2,0.3-0.4,0.5-0.7,0.8c-0.3,0.3-0.6,0.5-0.9,0.7c0,0-0.1,0.1-0.1,0.1
				c0,0-0.1,0-0.1,0.1c-0.1,0.1-0.2,0.1-0.3,0.1c-0.2,0.1-0.4,0.2-0.6,0.2c-0.2,0.1-0.4,0.1-0.6,0.1c0,0-0.1,0-0.2,0l-0.1,0l-0.1,0
				c-0.1,0-0.1,0-0.2,0c-0.1,0-0.1,0-0.2,0c-0.1,0-0.2,0-0.3,0c-0.1,0-0.1,0-0.2,0c-0.1,0-0.1,0-0.2,0c-0.1,0-0.1,0-0.2,0
				c-0.1,0-0.1,0-0.2,0c0,0-0.1,0-0.1,0c0,0-0.1,0-0.1,0c-0.1,0-0.1,0-0.2,0c-1.2-0.3-2.2-1.1-2.9-2.1c-0.3-0.5-0.6-1.1-0.7-1.7
				c-0.1-0.6-0.1-1.3,0-1.9c0.1-0.7,0.4-1.3,0.7-1.7c0.2-0.4,0.6-0.7,0.8-0.9c0.2-0.2,0.4-0.3,0.6-0.5c0.2-0.1,0.4-0.2,0.6-0.3
				c-0.5,0.2-0.8,0.4-1.2,0.8c-0.1,0.1-0.1,0.1,0,0c0-0.1,0.1-0.1,0.2-0.2C9.3,60.1,9.4,60,9.5,60c0,0,0.1-0.1,0.2-0.1
				c0.1,0,0.1-0.1,0.2-0.1c0,0,0,0,0.1,0c0,0,0,0,0.1,0c0,0,0.1-0.1,0.2-0.1c0.1-0.1,0.2-0.1,0.3-0.2c0.1,0,0.1,0,0.1,0
				c0.3-0.1,0.6-0.2,0.8-0.3c0.1,0,0.2,0,0.2,0c0.1,0,0.1,0,0.2,0c0.1,0,0.2,0,0.3,0c0.1,0,0.1,0,0.2,0c-0.1,0-0.1,0-0.1,0
				c0.1,0,0.1,0,0.2,0c0.1,0,0.1,0,0.2,0c0,0-0.1,0-0.2,0c-0.1,0-0.1,0-0.2,0c0,0,0,0,0.1,0c0.1,0,0.1,0,0.2,0c0.1,0,0.1,0,0.2,0
				c0.1,0,0.1,0,0.2,0c0.1,0,0.1,0,0.2,0c0.2,0,0.5,0.1,0.7,0.1l0,0c-0.3-0.1-0.5-0.1-0.8-0.2c0.1,0,0.1,0,0.1,0c0,0,0,0-0.1,0
				c0,0-0.1,0-0.1,0C13,59,13.2,59.1,13.4,59.1c0.1,0.1,0.2,0.1,0.2,0.1c0.1,0,0.1,0,0.1,0.1c0.1,0,0.1,0,0.2,0c0,0-0.1,0-0.1-0.1
				c-0.1,0-0.1,0-0.2-0.1C13.6,59.2,13.5,59.1,13.4,59.1C13.4,59.1,13.4,59.1,13.4,59.1z"/>
			<path fill="#9C2D67" d="M10.5,59.3c0,0,0.1,0,0.1,0L10.5,59.3l-0.1,0.1c0,0-0.1,0-0.1,0.1l-0.1,0.1c0,0,0.1,0,0.2-0.1
				C10.3,59.4,10.4,59.3,10.5,59.3z"/>
		</g>
	</g>
	<path fill="none" d="M90.1,70.5c4.4-0.4,9,0.2,13.4,1.9c15.7,5.9,23.6,23.5,17.7,39.2c-5.9,15.7-23.5,23.6-39.2,17.7
		c-11.4-4.3-18.7-14.8-19.6-26.3c-0.4,0.1-0.7,0.2-1.1,0.2c0.1,1.6,0.4,3.4,1,5.4c-0.4-1.5-0.5-2-0.6-1.8c0,0.2,0.1,1.2,0.4,2.5
		c0.3,1.3,0.9,3,1.6,4.6c0.7,1.6,1.7,3.2,2.6,4.4c1.3,1.7,2.9,3.5,4.7,5.2c1.8,1.7,3.8,3.4,6.2,4.8c0.3,0.2,0.6,0.4,0.9,0.5
		c0.3,0.2,0.6,0.3,0.9,0.5c0.6,0.3,1.2,0.6,1.8,0.9c1.3,0.6,2.5,1.1,3.9,1.5c1.3,0.4,2.7,0.7,4,0.9c0.3,0,0.7,0.1,1,0.1l0.5,0.1
		l0.5,0c0.3,0,0.7,0,1,0.1c0.3,0,0.7,0,1,0c0.7,0,1.3,0,2,0c0.3,0,0.7,0,1-0.1c0.3,0,0.7,0,1-0.1c0.4,0,0.7-0.1,1.1-0.1
		c0.4-0.1,0.7-0.1,1.1-0.2c0.2,0,0.4-0.1,0.6-0.1c0.2,0,0.4-0.1,0.6-0.1c0.4-0.1,0.8-0.1,1.1-0.3c7.8-2.1,14.6-6.9,18.9-13.6
		c2.2-3.3,3.7-7.1,4.5-11.1c0.8-4,0.8-8.2-0.1-12.4c-0.9-4.4-2.4-8.2-4.5-11.5c-1.5-2.4-3.7-4.5-5.4-6c-1.4-1.2-2.7-2.2-4-3.1
		c-1.3-0.9-2.7-1.6-4-2.3c3,1.4,5.1,2.8,7.9,5.2c0.9,0.8,0.7,0.5,0-0.2c-0.3-0.3-0.8-0.8-1.2-1.2c-0.4-0.4-0.9-0.8-1.2-1
		c-0.3-0.2-0.7-0.4-1.1-0.6c-0.4-0.2-0.8-0.4-1.1-0.6c-0.2-0.1-0.3-0.2-0.5-0.3c-0.2-0.1-0.3-0.2-0.5-0.3c-0.3-0.2-0.6-0.4-1-0.6
		c-0.7-0.3-1.3-0.7-2.1-1.1c-0.6-0.3-0.7-0.1-1-0.2c-2.1-0.8-3.7-1.6-5.1-1.8c-0.5-0.1-1.1-0.2-1.6-0.2c-0.5,0-1-0.1-1.5-0.1
		c-0.6,0-1.2-0.1-1.9-0.1c-0.4,0-0.8-0.1-1.2-0.1c-0.4,0-0.7,0-1.1,0c-0.4,0-0.8,0-1.2,0c-0.4,0-0.8,0-1.2,0.1l0,0
		C90.1,69.6,90.1,70,90.1,70.5z"/>
	<path fill="none" d="M90.6,68.7c-0.2,0-0.3,0-0.5,0c0,0,0,0.1,0,0.1C90.3,68.8,90.4,68.7,90.6,68.7z"/>
	<path fill="none" d="M73.7,42.6C73.7,42.6,73.7,42.6,73.7,42.6L73.7,42.6C73.7,42.6,73.7,42.6,73.7,42.6z"/>
	<path fill="none" d="M75.9,43.3C75.9,43.3,75.9,43.3,75.9,43.3c-0.2-0.2-0.4-0.4-0.6-0.6l0,0c-0.1,0-0.3,0-0.4,0
		c-0.2,0-0.3,0-0.5,0c-0.2,0-0.3,0-0.5,0c0,0,0,0,0,0c0.3,0.2,0.6,0.3,0.8,0.5C75.1,43.3,75.5,43.3,75.9,43.3z"/>
	<path fill="none" d="M104.3,70.2c-0.1,0-0.3-0.1-0.4-0.1C104.1,70.1,104.2,70.2,104.3,70.2z"/>
	<path fill="none" d="M117.9,78.8c0.7,0.8,1.6,1.8,2.4,2.6C119.5,80.3,118.7,79.5,117.9,78.8z"/>
	<path fill="none" d="M105.3,70.5c0.2,0.1,0.5,0.2,0.7,0.3c-0.2-0.1-0.3-0.1-0.5-0.2C105.5,70.5,105.4,70.5,105.3,70.5z"/>
	<path fill="none" d="M104.3,70.2c0.3,0.1,0.6,0.2,1,0.3c-0.2-0.1-0.5-0.2-0.7-0.3c0,0-0.1,0-0.1-0.1l0,0c-0.1,0-0.1-0.1-0.2-0.1
		l0,0C104.7,70.2,104.6,70.2,104.3,70.2z"/>
	<path fill="none" d="M73.7,42.6C73.6,42.6,73.6,42.6,73.7,42.6L73.7,42.6C73.6,42.6,73.6,42.6,73.7,42.6z"/>
	<path fill="none" d="M73.7,42.7C73.7,42.7,73.7,42.7,73.7,42.7c0.2,0,0.3-0.1,0.4-0.1C73.9,42.6,73.8,42.6,73.7,42.7
		C73.6,42.6,73.6,42.6,73.7,42.7C73.6,42.6,73.7,42.6,73.7,42.7z"/>
	<path fill="none" d="M87.6,66.2c-0.1-0.7-0.1-1.3-0.2-1.9c-0.1-0.6-0.1-1.2-0.2-1.7c-0.1-0.3-0.1-0.7-0.1-1
		c-0.3,0.5-0.6,1.1-0.9,1.6c0.4,2,0.6,4,0.5,6c0.4-0.1,0.7-0.2,1.1-0.2C87.7,67.9,87.7,67,87.6,66.2z"/>
	<path fill="none" d="M73.5,42.6C73.5,42.7,73.5,42.7,73.5,42.6C73.5,42.7,73.5,42.7,73.5,42.6C73.5,42.7,73.5,42.7,73.5,42.6
		L73.5,42.6z"/>
	<path fill="none" d="M79.5,43.2c0.1,0,0.2,0.1,0.4,0.1C79.7,43.2,79.6,43.2,79.5,43.2C79.6,43.2,79.6,43.2,79.5,43.2z"/>
	<path fill="none" d="M73.5,42.6L73.5,42.6L73.5,42.6c-0.5,0-0.9,0.1-1.4,0.3l0,0c0,0,0,0,0.1,0C72.6,42.8,73,42.7,73.5,42.6z"/>
	<path fill="none" d="M84.8,46.6c0.3,0.3,0.6,0.7,0.9,1C85.5,47.2,85.1,46.8,84.8,46.6z"/>
	<path fill="none" d="M86.8,59.1c0-0.2-0.1-1.3,0.2-1.5c0.1-0.1,0.3,0,0.5,0.3c0,0,0,0,0-0.1c0.3-1.6,0.3-3.2,0-4.9
		c-0.4-1.7-1-3.2-1.8-4.5c-0.6-0.9-1.5-1.8-2.1-2.4c-0.5-0.5-1.1-0.9-1.6-1.2c-0.5-0.3-1-0.6-1.6-0.9c1.2,0.6,2,1.1,3.1,2
		c0.4,0.3,0.3,0.2,0-0.1c-0.1-0.1-0.3-0.3-0.5-0.5c-0.2-0.2-0.3-0.3-0.5-0.4c-0.1-0.1-0.3-0.2-0.4-0.2c-0.2-0.1-0.3-0.1-0.4-0.2
		c-0.1,0-0.1-0.1-0.2-0.1c-0.1,0-0.1-0.1-0.2-0.1c-0.1-0.1-0.3-0.1-0.4-0.2c-0.3-0.1-0.5-0.3-0.8-0.4c-0.2-0.1-0.3,0-0.4-0.1
		c-0.8-0.3-1.5-0.6-2-0.7c-0.2,0-0.4-0.1-0.6-0.1c-0.2,0-0.4,0-0.6,0c-0.2,0-0.5,0-0.7,0c-0.1,0-0.3,0-0.4,0l0.6,0.4
		c0.1,0,0.1,0.1,0.2,0.1c1,0.1,2.1,0.3,3.1,0.7c6.2,2.3,9.3,9.3,7,15.5c-0.2,0.4-0.4,0.8-0.6,1.2c0.1,0.4,0.2,0.8,0.3,1.2
		c0.4-0.6,0.7-1.3,1-2C86.8,59.7,86.8,59.4,86.8,59.1z"/>
	<path fill="none" d="M73.7,42.8c-0.1,0-0.2,0-0.3,0c-0.4,0-0.8,0.1-1.2,0.2c0,0,0.1,0,0.1,0.1c0,0,0.1,0,0.1,0
		c0.2,0,0.5-0.1,0.7-0.1c0.4,0,0.6,0,0.1,0.1c-0.1,0-0.2,0-0.3,0c-0.1,0-0.2,0-0.3,0c-0.1,0-0.1,0-0.2,0c0.1,0.1,0.3,0.2,0.4,0.3
		c0.5-0.1,1-0.2,1.6-0.2C74.2,43.1,73.9,42.9,73.7,42.8z"/>
	<path fill="none" d="M87.7,70.7c0-0.3,0-0.5,0-0.8l0,0c-0.2,0-0.4,0.1-0.6,0.1c-0.1,0-0.3,0.1-0.4,0.1c0,0.3,0,0.6-0.1,0.9
		c0.4-0.1,0.7-0.1,1.1-0.2C87.7,70.8,87.7,70.7,87.7,70.7z"/>
	<path fill="none" d="M43,38.9c0.2-0.1,0.5-0.2,0.7-0.3c-0.1,0-0.2,0.1-0.3,0.1C43.3,38.7,43.1,38.8,43,38.9z"/>
	<path fill="none" d="M87.7,69.4c-0.4,0.1-0.7,0.1-1.1,0.2c0,0.1,0,0.2,0,0.3c0.4-0.1,0.7-0.1,1.1-0.1
		C87.7,69.6,87.7,69.5,87.7,69.4z"/>
	<path fill="none" d="M62.5,98.6c-0.4,0.1-0.7,0.1-1.1,0.2c0,0.6-0.1,1.2-0.1,1.8c0.4-0.1,0.7-0.1,1.1-0.2
		C62.4,99.8,62.4,99.2,62.5,98.6z"/>
	<path fill="none" d="M44.7,38.3c0.1,0,0.3-0.1,0.4-0.1C45,38.2,44.9,38.3,44.7,38.3z"/>
	<path fill="none" d="M28.8,49.5c0.8-0.8,1.7-1.8,2.4-2.6C30.4,47.6,29.5,48.4,28.8,49.5z"/>
	<path fill="none" d="M86.7,69.4c0.4-0.1,0.7-0.2,1.1-0.2c0-0.1,0-0.1,0-0.2c-0.4,0.1-0.7,0.2-1.1,0.2
		C86.7,69.3,86.7,69.4,86.7,69.4z"/>
	<path fill="none" d="M44.5,38.3c0,0-0.1,0-0.1,0c-0.2,0.1-0.5,0.2-0.7,0.3c0.4-0.1,0.7-0.2,1-0.3c-0.2,0-0.3,0,0-0.1c0,0,0,0,0,0
		C44.7,38.2,44.6,38.2,44.5,38.3L44.5,38.3z"/>
	<path fill="none" d="M64.4,37.8c-0.4-0.1-1.1-0.2-1.1-0.2c-1.5-0.6-3.2-0.8-4.9-0.9c0.2,0.1,0.5,0.1,0.7,0.2c0.5,0,0.8,0.1,0.8,0
		c0,0,0,0-0.1-0.1c-0.2,0-0.3-0.1-0.5-0.1c0.2,0,0.4,0.1,0.5,0.1c1.8,0.4,3.4,0.8,5.1,1.2C64.9,38.1,64.9,38,64.4,37.8z"/>
	<path opacity="0.75" fill="#BBD260" d="M60.2,92.6c0.2-0.4,0.3-0.7,0.4-1c0.2-0.6,0.5-1,0.7-1.4c0.4-0.6,0.6-0.8,0.8-0.7
		c0.3,0.2,0.2,1.3,0.2,1.5c0,0.3-0.1,0.6-0.1,0.9c0,0.3-0.1,0.6-0.1,0.9c-0.1,0.6-0.1,1.1-0.2,1.7c-0.1,0.6-0.1,1.1-0.2,1.7
		c-0.1,0.6-0.1,1.2-0.2,1.9c0,0.2,0,0.5,0,0.7c0.4-0.1,0.7-0.1,1.1-0.2c0.2-2.9,0.8-5.8,1.9-8.6c3.8-10.1,12.4-17,22.3-19
		c0-0.3,0-0.6,0.1-0.9c-0.3,0.1-0.6,0.1-0.8,0.2c-0.4,0.1-0.8,0.2-1.1,0.3c-0.4,0.1-0.7,0.2-1.1,0.3c-0.4,0.1-0.7,0.2-1.1,0.4
		c-0.4,0.1-0.7,0.2-1.1,0.4c-0.4,0.1-0.7,0.3-1.1,0.4c-0.4,0.2-0.7,0.3-1.1,0.5c-0.3,0.1-0.6,0.3-0.9,0.4c-0.3,0.1-0.6,0.3-0.9,0.5
		c-0.6,0.3-1.2,0.6-1.8,1c-1.2,0.7-2.3,1.5-3.4,2.4c-0.6,0.5-1.1,1-1.6,1.6c0.2-0.2,0.3-0.4,0.5-0.5c0.2-0.2,0.4-0.3,0.5-0.5
		c0.2-0.2,0.4-0.4,0.6-0.5c0.2-0.2,0.4-0.4,0.6-0.5c1.1-1,2.7-1.8,4.7-2.8c0.3-0.2,0.1-0.3,0.8-0.6c1.5-0.7,2.9-1.2,4.3-1.7
		c0.2,0,0.4-0.1,0.6-0.2c0.2-0.1,0.4-0.2,0.6-0.3c0.4-0.2,0.8-0.4,1.2-0.4c0.4-0.1,1-0.2,1.6-0.3c0,0,0.1,0,0.1,0c0-0.1,0-0.2,0-0.3
		c-0.9,0.2-1.8,0.4-2.6,0.6l0,0c-0.4,0.1-0.7,0.2-1.1,0.3c0.2-0.1,0.5-0.2,0.8-0.4c0.3-0.1,0.7-0.3,1-0.4c0.3-0.1,0.7-0.2,0.9-0.3
		c0.2-0.1,0.4-0.1,0.4-0.1c0.2,0,0.4-0.1,0.6-0.1c0-2-0.2-4-0.5-6c0,0,0,0,0,0c-1.9,2.7-4.6,4.5-7.6,5.3c-0.7,0.2-1.5,0.3-2.3,0.4
		c-0.8,0.1-1.5,0.1-2.3,0c-0.7-0.1-1.5-0.2-2.2-0.4c-0.7-0.2-1.4-0.5-2.1-0.8c-0.2-0.1-0.3-0.2-0.5-0.2l-0.5-0.3L68.2,67
		c-0.2-0.1-0.3-0.2-0.5-0.3c-0.6-0.4-1.2-0.9-1.8-1.4c-1.1-1-2.1-2.3-2.8-3.7c-0.3-0.5-0.6-1.2-0.9-2c-0.3-0.8-0.4-1.6-0.5-2.5
		c-0.1-0.9-0.1-1.7-0.1-2.5c0.1-0.8,0.2-1.5,0.3-2.1c0.1-0.2,0.1-0.4,0.2-0.5c0.1-0.2,0.1-0.3,0.2-0.4c0.1-0.2,0.2-0.4,0.3-0.5
		c0.2-0.2,0.3-0.3,0.3-0.3c0.1,0.1,0.1,0.5,0.1,0.6c0,0.1,0,0.2,0,0.3c0,0.1,0,0.2,0,0.3c0,0.2-0.1,0.4-0.1,0.7
		c0,0.2-0.1,0.4-0.1,0.7c0,0.2-0.1,0.5-0.1,0.7c0,0.5-0.1,1.1,0,1.8c0,0.7,0.2,1.5,0.4,2.3c-0.2-0.6-0.2-0.8-0.2-0.7
		c0,0.1,0,0.5,0.2,1c0.1,0.5,0.3,1.2,0.6,1.8c0.3,0.6,0.7,1.3,1,1.7c0.5,0.7,1.1,1.4,1.8,2.1c0.7,0.7,1.5,1.3,2.4,1.9
		c0.1,0.1,0.2,0.1,0.3,0.2c0.1,0.1,0.2,0.1,0.4,0.2c0.2,0.1,0.5,0.2,0.7,0.4c0.5,0.2,1,0.4,1.5,0.6c0.5,0.2,1,0.3,1.6,0.4
		c0.1,0,0.3,0,0.4,0.1l0.2,0l0.2,0c0.1,0,0.3,0,0.4,0c0.1,0,0.3,0,0.4,0c0.3,0,0.5,0,0.8,0c0.1,0,0.3,0,0.4,0c0.1,0,0.3,0,0.4,0
		c0.1,0,0.3,0,0.4,0c0.1,0,0.3,0,0.4-0.1c0.1,0,0.1,0,0.2,0c0.1,0,0.1,0,0.2,0c0.1,0,0.3-0.1,0.4-0.1c3.1-0.8,5.8-2.7,7.5-5.4
		c0.1-0.1,0.1-0.2,0.2-0.3c-0.1-0.4-0.2-0.8-0.3-1.2c-2.7,5.3-9.1,7.9-14.9,5.7c-6.2-2.3-9.3-9.3-7-15.4c1.6-4.1,5.1-6.9,9.2-7.6
		c-0.1-0.1-0.3-0.2-0.4-0.3c-0.1,0-0.2,0-0.3,0.1c-0.2,0-0.3,0.1-0.5,0.1c-0.1,0-0.3,0.1-0.4,0.1c-0.1,0-0.3,0.1-0.4,0.1
		c-0.1,0-0.3,0.1-0.4,0.2c-0.1,0.1-0.3,0.1-0.4,0.2c-0.1,0.1-0.3,0.1-0.4,0.2c-0.1,0-0.2,0.1-0.4,0.2c-0.1,0.1-0.2,0.1-0.4,0.2
		c-0.2,0.1-0.5,0.2-0.7,0.4c-0.5,0.3-0.9,0.6-1.3,0.9c-0.2,0.2-0.4,0.4-0.7,0.6c0.1-0.1,0.1-0.1,0.2-0.2c0.1-0.1,0.1-0.1,0.2-0.2
		c0.1-0.1,0.1-0.1,0.2-0.2c0.1-0.1,0.2-0.1,0.2-0.2c0.4-0.4,1.1-0.7,1.8-1.1c0.1-0.1,0-0.1,0.3-0.2c0.6-0.3,1.1-0.5,1.7-0.7
		c0.1,0,0.1,0,0.2-0.1c0.1,0,0.2-0.1,0.2-0.1c0.2-0.1,0.3-0.2,0.5-0.2c0.1,0,0.3-0.1,0.5-0.1c0,0-0.1,0-0.1-0.1
		c-0.2,0.1-0.5,0.1-0.7,0.2l0,0c-0.1,0-0.3,0.1-0.4,0.1c0.1,0,0.2-0.1,0.3-0.1c0.1-0.1,0.3-0.1,0.4-0.2c0.1,0,0.2-0.1,0.2-0.1
		c-7.7-4.7-17.4-5.9-26.5-2.4c-15.7,5.9-23.6,23.5-17.7,39.2c4.9,13.1,17.9,20.7,31.2,19.5c0.1-2,0.5-3.8,0.8-5.2
		C60,93.4,60.1,93,60.2,92.6z M75.9,73.2c0.1-0.1,0.2-0.1,0.3-0.1c0.3-0.2,0.6-0.4,1-0.5c0.5-0.3,1-0.6,1.6-0.9
		c-0.6,0.3-1.1,0.6-1.6,0.9c-0.3,0.2-0.6,0.4-0.9,0.6c-0.1,0.1-0.2,0.2-0.3,0.2c-0.1,0.1-0.2,0.1-0.2,0.2c0,0,0.1-0.1,0.2-0.2
		c0.1-0.1,0.2-0.1,0.3-0.2c0.2-0.1,0.2-0.2-0.1-0.1l0,0c-0.2,0.1-0.4,0.2-0.6,0.3C75.7,73.3,75.8,73.2,75.9,73.2z M73.1,75.1
		l0.8-0.6C73.7,74.7,73.4,74.9,73.1,75.1c-0.3,0.4-0.5,0.5-0.8,0.7C72.6,75.5,72.9,75.3,73.1,75.1z M62.7,89.7
		c0.1-0.3,0.3-0.7,0.4-1c0-0.1-0.1-0.1,0.1-0.7c0.2-0.3,0.5-1,0.5-1c0.5-1.5,1.4-3,2.5-4.4c-0.1,0.2-0.2,0.5-0.3,0.7
		c-0.3,0.4-0.4,0.6-0.5,0.6c0,0,0-0.1,0.1-0.2c-0.9,1.6-1.6,3.2-2.4,4.8c0,0,0,0,0,0C63,89.1,62.9,89.4,62.7,89.7L62.7,89.7z
		 M68.3,44.3c0,0,0.1,0,0.1-0.1c0,0,0,0,0,0l0,0c0.1-0.1,0.2-0.1,0.4-0.2c0.2-0.1,0.4-0.2,0.6-0.3c-0.2,0.1-0.4,0.2-0.6,0.3
		c-0.1,0.1-0.2,0.2-0.3,0.2c-0.1,0.1-0.2,0.1-0.2,0.2c0.1-0.1,0.1-0.1,0.2-0.2c0.1-0.1,0.1-0.1,0,0c0,0,0,0,0,0
		c-0.1,0-0.2,0.1-0.2,0.1C68.2,44.4,68.2,44.4,68.3,44.3z M67.2,45.1l0.3-0.3C67.4,44.9,67.3,45,67.2,45.1c-0.1,0.1-0.2,0.2-0.3,0.3
		C67,45.3,67.1,45.2,67.2,45.1z M63.1,50.9c0.1-0.1,0.1-0.3,0.2-0.4c0-0.1,0-0.1,0-0.3c0.1-0.1,0.2-0.4,0.2-0.4
		c0.2-0.5,0.4-0.9,0.7-1.4c0,0,0,0,0,0s0,0,0,0c0.1-0.1,0.1-0.2,0.2-0.3c0,0.1-0.1,0.2-0.1,0.3c-0.1,0.2-0.2,0.2-0.2,0.3l0,0
		c-0.3,0.6-0.6,1.2-0.9,1.9c0,0,0,0,0,0C63.2,50.6,63.1,50.8,63.1,50.9C63.1,50.9,63.1,50.9,63.1,50.9z"/>
	<path opacity="0.75" fill="#BBD260" d="M72.1,42.9c-0.1,0-0.3,0.1-0.4,0.1c-0.2,0.1-0.2,0.1-0.2,0.1C71.7,43.1,71.9,43,72.1,42.9
		C72.1,42.9,72.1,42.9,72.1,42.9z"/>
	<path opacity="0.75" fill="#BBD260" d="M86.7,69.2c-0.3,0.1-0.7,0.2-1,0.3c0,0-0.7,0.1-1.1,0.2c-0.5,0.2-0.5,0.3-0.5,0.4
		c0.9-0.2,1.7-0.5,2.6-0.7C86.7,69.4,86.7,69.3,86.7,69.2z"/>
	<path fill="#82943A" d="M75.9,43.3C75.9,43.3,75.9,43.3,75.9,43.3c0.1,0,0.2,0.1,0.2,0.1C76,43.3,76,43.2,75.9,43.3l-0.5-0.5
		c0,0,0,0,0,0C75.5,42.9,75.7,43.1,75.9,43.3z"/>
	<path fill="#82943A" d="M73.2,41.2c-0.1-0.1-0.2-0.1-0.3-0.1c0.2,0.1,0.4,0.2,0.6,0.3C73.4,41.4,73.3,41.3,73.2,41.2z"/>
	<path fill="#82943A" d="M70.3,39.7c0.6,0.3,1.1,0.6,1.6,0.9C71.5,40.3,70.9,40,70.3,39.7z"/>
	<path fill="#82943A" d="M72.9,41.1c-0.3-0.2-0.6-0.3-0.9-0.5C72.3,40.8,72.5,41,72.9,41.1C72.6,41,72.5,40.9,72.9,41.1z"/>
	<path fill="#82943A" d="M72.9,41.1L72.9,41.1C72.9,41.1,72.9,41.1,72.9,41.1C72.9,41.1,72.9,41.1,72.9,41.1z"/>
	<path fill="#82943A" d="M73,41.4c0.1,0.1,0.2,0.2,0.3,0.2C73.3,41.6,73.2,41.5,73,41.4z"/>
	<path fill="#82943A" d="M72.8,41.2c0.1,0.1,0.2,0.1,0.3,0.2C73,41.3,72.9,41.2,72.8,41.2z"/>
	<path fill="#82943A" d="M73.5,42.6C73.5,42.7,73.5,42.7,73.5,42.6c0.1,0,0.1,0,0.2,0c0,0,0,0-0.1,0C73.6,42.6,73.5,42.6,73.5,42.6z
		"/>
	<path fill="#82943A" d="M73.6,42.6L73.6,42.6c-0.1,0-0.1,0-0.1,0l0,0C73.5,42.6,73.6,42.6,73.6,42.6z"/>
	<path fill="#82943A" d="M74.5,43.3c0.1,0,0.2,0,0.3,0c-0.3-0.2-0.6-0.3-0.9-0.5c-0.1,0-0.1,0-0.2,0C73.9,42.9,74.2,43.1,74.5,43.3z
		"/>
	<path fill="#82943A" d="M71.5,41.5c-0.3-0.1-0.1-0.3-0.8-0.6c-1.5-0.7-2.8-1.2-4.3-1.7c-0.2,0-0.4-0.1-0.6-0.2
		c-0.2-0.1-0.4-0.2-0.6-0.3c-0.4-0.2-0.8-0.4-1.2-0.4c-0.4-0.1-1-0.2-1.6-0.3c-0.6-0.1-1.2-0.2-1.7-0.2c-1-0.1-1.4,0-0.2,0.1
		c0.2,0,0.5,0.1,0.7,0.1c0.2,0,0.4,0.1,0.6,0.1c0.4,0.1,0.8,0.2,1.2,0.3c0.4,0.1,0.8,0.2,1.1,0.3c0.4,0.1,0.7,0.2,1.1,0.3
		c0.4,0.1,0.7,0.2,1.1,0.3c0.4,0.1,0.7,0.2,1.1,0.4c0.3,0.1,0.7,0.3,1.1,0.4c0.4,0.2,0.7,0.3,1.1,0.5c0.3,0.1,0.6,0.3,0.9,0.4
		C71,41.2,71.3,41.4,71.5,41.5c0.7,0.4,1.3,0.7,1.8,1.1c0,0,0,0,0,0c0,0,0.1,0,0.1,0C72.9,42.2,72.3,41.9,71.5,41.5z"/>
	<path fill="#82943A" d="M87.7,69.2c0.5-0.1,0.9-0.2,1.4-0.3c0.1,0,0.2-0.1,0.5-0.1c-0.2,0-0.3,0.1-0.5,0.1c-0.1,0-0.1,0-0.1,0.1
		c0,0,0.3,0,0.8,0c0.1,0,0.1,0,0.2-0.1c0,0,0-0.1,0-0.1c-0.8,0.1-1.6,0.1-2.3,0.3C87.7,69,87.7,69.1,87.7,69.2z"/>
	<path fill="#82943A" d="M87.7,69.4c0,0.1,0,0.2,0,0.3c0.2,0,0.3,0,0.5,0c1-0.1,1.4,0,0.2,0.1c-0.2,0-0.4,0.1-0.6,0.1
		c0,0.3,0,0.5,0,0.8c0,0,0,0.1,0,0.1c0.8-0.1,1.6-0.2,2.4-0.3c0-0.5,0-0.9,0-1.4c-0.4,0-0.8,0-1.2,0.1
		C88.5,69.3,88.1,69.3,87.7,69.4z"/>
	<path fill="#82943A" d="M62.4,100.4c-0.4,0.1-0.7,0.1-1.1,0.2c0,0.6,0,1.3,0,2c0,0.2,0,0.4,0,0.5c0.4-0.1,0.7-0.1,1.1-0.2
		C62.4,102.1,62.4,101.2,62.4,100.4z"/>
	<path fill="#82943A" d="M87.2,62.6c0.1,0.6,0.1,1.1,0.2,1.7c0.1,0.6,0.1,1.2,0.2,1.9c0.1,0.8,0.1,1.7,0.1,2.7
		c0.8-0.1,1.6-0.2,2.3-0.3c0-0.4,0-0.9-0.1-1.3c-0.1-2-0.5-3.8-0.8-5.3c-0.1-0.5-0.3-0.9-0.4-1.3c-0.1-0.4-0.3-0.7-0.4-1
		c-0.1-0.3-0.2-0.6-0.4-0.8c-0.2,0.9-0.6,1.8-1,2.6C87.1,61.9,87.1,62.2,87.2,62.6z"/>
	<path fill="#82943A" d="M59,101l-0.1,0l-0.5,0c-0.3,0-0.7,0-1,0.1c-0.3,0-0.7,0-1,0c-0.7,0-1.3,0-2,0c-0.3,0-0.7,0-1-0.1
		c-0.3,0-0.7,0-1-0.1c-0.4,0-0.7-0.1-1.1-0.1c-0.4-0.1-0.7-0.1-1.1-0.2c-0.2,0-0.4-0.1-0.6-0.1s-0.4-0.1-0.6-0.1
		c-0.4-0.1-0.8-0.1-1.1-0.3c-7.8-2.1-14.6-7-18.9-13.6c-2.2-3.3-3.7-7.1-4.5-11.1c-0.8-4-0.8-8.2,0.1-12.4c0.9-4.4,2.4-8.2,4.5-11.5
		c1.5-2.4,3.7-4.5,5.4-6c1.4-1.2,2.7-2.2,4-3.1c1.3-0.9,2.7-1.6,4-2.3c-3,1.4-5.1,2.8-7.9,5.2c-0.9,0.8-0.7,0.5,0-0.2
		c0.3-0.3,0.8-0.8,1.2-1.2c0.4-0.4,0.9-0.8,1.2-1c0.3-0.2,0.7-0.4,1.1-0.6c0.4-0.2,0.8-0.4,1.1-0.6c0.2-0.1,0.3-0.2,0.5-0.3
		c0.2-0.1,0.3-0.2,0.5-0.3c0.3-0.2,0.6-0.4,1-0.6c0.7-0.4,1.3-0.7,2.1-1.1c0.6-0.3,0.7-0.1,1-0.2c2.1-0.8,3.7-1.6,5.1-1.8
		c0.5-0.1,1.1-0.2,1.6-0.2c0.5,0,1-0.1,1.5-0.1c0.6,0,1.2-0.1,1.9-0.1c0.4,0,0.8-0.1,1.2-0.1c-0.3-0.1-0.5-0.2-0.6-0.3
		c0.3,0,0.7,0,1,0.1c0.4,0,0.7,0,1,0.1c-0.3,0-0.7,0-1-0.1c-0.4,0-0.7-0.1-1-0.1c0.1,0.1,0.2,0.2,0.6,0.3c0.4,0,0.8,0,1.1,0
		c0.4,0,0.8,0,1.2,0c0.4,0,0.8,0,1.2,0.1c0.4,0,0.8,0,1.2,0.1c1.6,0.2,3.3,0.5,4.8,0.9c0,0,0,0,0,0c-1.7-0.5-3.3-0.9-5.1-1.2
		C60,37,60,37,60,37c0,0-0.3,0-0.8,0c-0.2-0.1-0.5-0.1-0.7-0.2c1.7,0.1,3.4,0.3,4.9,0.9c0,0,0.7,0.1,1.1,0.2
		c0.5,0.2,0.5,0.3,0.5,0.4c0.4,0.1,0.7,0.2,1.1,0.3c-0.2-0.1-0.5-0.2-0.8-0.3c-0.3-0.1-0.7-0.3-1-0.4c-0.3-0.1-0.7-0.2-0.9-0.3
		c-0.2-0.1-0.4-0.1-0.4-0.1c-4.7-1.1-9.3-1.1-13.7-0.3c-0.3,0.1-0.5,0.2-1,0.3c-0.3,0-0.7,0.1-1,0.2c-0.3,0.1-0.6,0.2-0.9,0.2
		c-0.3,0.1-0.6,0.2-0.9,0.3c-0.2,0.1-0.4,0.2-0.6,0.2c0,0,0,0,0,0c-0.3,0.1-0.2,0.2,0,0.1c0.2,0,0.3-0.1,0.4-0.1c0.1,0,0.2,0,0.2,0
		c-0.1,0-0.2,0-0.2,0c-0.1,0-0.3,0.1-0.4,0.1c-0.3,0.1-0.6,0.2-1,0.3c-0.2,0.1-0.5,0.2-0.7,0.3c-0.2,0.1-0.5,0.2-0.7,0.3
		c-0.4,0.2-0.8,0.4-1.2,0.4l0.8-0.4c0.3-0.1,0.6-0.2,0.9-0.3l0.9-0.3l0.8-0.3c0.1,0,0.2-0.1,0.2-0.1c0.1,0,0.2-0.1,0.3-0.1
		c-0.7,0.2-1.4,0.5-2.1,0.8c-0.3,0.1-0.7,0.3-1,0.4l-1,0.5c-0.3,0.1-0.6,0.3-0.8,0.4c-0.9,0.5-1.8,1.1-2.5,1.3
		c-0.2,0.1-0.4,0.3-0.7,0.4c0,0,0.1,0,0.1-0.1c-0.1,0.1-0.2,0.1-0.3,0.1c-0.2,0.2-0.5,0.3-0.7,0.5l-0.7,0.5
		c-0.2,0.2-0.5,0.3-0.7,0.5l-0.7,0.5c-0.5,0.5-1,1.1-1.6,1.6c0,0-0.1,0.1-0.2,0.2c-0.1,0.1-0.3,0.2-0.4,0.3c-0.2,0.3-0.5,0.6-0.8,1
		c0.5-0.4,0.9-0.7,1.3-1c0.3-0.2,0.6-0.5,0.9-0.9c0.1-0.2,0.3-0.3,0.5-0.5c0.2-0.1,0.4-0.3,0.6-0.4c-0.2,0.1-0.4,0.2-0.6,0.4
		c-0.2,0.1-0.3,0.3-0.5,0.5c-0.3,0.3-0.6,0.6-0.9,0.9c-0.4,0.3-0.9,0.6-1.3,1c-0.7,0.8-1.6,1.8-2.4,2.6c0.7-1.2,1.6-2,2.4-2.6
		c0.3-0.4,0.6-0.7,0.8-1c0.1-0.1,0.3-0.2,0.4-0.3c0.1-0.1,0.2-0.2,0.2-0.2c0.5-0.5,1-1.1,1.6-1.6c-1.7,1.4-3.3,2.9-4.7,4.7
		c-1.2,1.4-2.2,2.9-3.1,4.5c-0.9,1.6-1.7,3.2-2.3,4.8c-1.3,3.3-2,6.8-2.1,10.4c-0.3,7.1,1.7,14.4,6,20.7
		c4.7,6.8,11.7,11.5,19.3,13.6c1.9,0.5,3.8,0.8,5.7,1c1.9,0.2,3.8,0.2,5.7,0c0.1,0,0.2,0,0.3,0C59,102.6,58.9,101.8,59,101z"/>
	<path fill="#82943A" d="M59.9,37c-0.1,0-0.2-0.1-0.5-0.1C59.6,36.9,59.7,36.9,59.9,37z"/>
	<path fill="#82943A" d="M45.1,38.2c0.1,0,0.2,0,0.2,0C45.3,38.2,45.2,38.2,45.1,38.2z"/>
	<path fill="#82943A" d="M86.9,57.6c-0.3,0.2-0.2,1.3-0.2,1.5c0,0.3,0.1,0.5,0.1,0.8c0.3-0.7,0.5-1.3,0.6-2
		C87.2,57.6,87,57.6,86.9,57.6z"/>
	<path fill="#82943A" d="M43.7,38.6c-0.1,0-0.1,0.1-0.2,0.1C43.5,38.6,43.6,38.6,43.7,38.6c0.3-0.1,0.5-0.2,0.7-0.3
		C44.1,38.4,43.9,38.5,43.7,38.6z"/>
	<path fill="#82943A" d="M44.5,38.3L44.5,38.3c-0.1,0-0.1,0-0.1,0C44.5,38.3,44.5,38.3,44.5,38.3z"/>
	<path fill="#82943A" d="M42,39.3c0.3-0.1,0.7-0.3,1-0.4c0.2-0.1,0.3-0.1,0.5-0.2C43,38.8,42.5,39,42,39.3z"/>
	<path fill="#82943A" d="M43.5,38.7c0.1,0,0.1-0.1,0.2-0.1c0.2-0.1,0.5-0.2,0.7-0.3c0,0,0.1,0,0.1,0l-0.8,0.3l-0.9,0.3
		c-0.3,0.1-0.6,0.2-0.9,0.3l-0.8,0.4c0.3-0.1,0.7-0.2,1.2-0.4c0.2-0.1,0.5-0.2,0.7-0.3c-0.3,0.1-0.6,0.3-1,0.4
		C42.5,39,43,38.8,43.5,38.7z"/>
	<path opacity="0.75" fill="#BBD260" d="M64.3,99.9c1.3-0.4,2.6-0.9,3.9-1.5c0.6-0.3,1.2-0.6,1.8-0.9c0.3-0.2,0.6-0.3,0.9-0.5
		c0.3-0.2,0.6-0.4,0.9-0.5c2.3-1.4,4.3-3.1,6.1-4.8c1.8-1.7,3.3-3.5,4.7-5.3c0.9-1.2,1.9-2.7,2.6-4.4c0.7-1.6,1.3-3.3,1.6-4.6
		c0.3-1.3,0.4-2.3,0.4-2.5c0-0.2-0.1,0.2-0.6,1.8c0.6-2.2,0.9-4.1,1-5.8c-0.4,0.1-0.7,0.1-1.1,0.2C85.8,82.5,78.5,93,67,97.3
		c-1.5,0.6-3,1-4.6,1.3c0,0.6-0.1,1.2-0.1,1.8C63,100.3,63.7,100.1,64.3,99.9z"/>
	<path opacity="0.75" fill="#BBD260" d="M88.5,80c-0.6,1.9-1.4,3.7-2.2,5c-2,3.5-4.4,6.6-7.2,9.3c-1.4,1.3-2.9,2.5-4.5,3.5
		c-0.4,0.3-0.8,0.5-1.2,0.8l-1.2,0.7l-1.3,0.7c-0.4,0.2-0.9,0.4-1.3,0.6c-1.7,0.8-3.5,1.4-5.3,1.9c-0.6,0.2-1.3,0.3-1.9,0.4
		c0.8,11.5,8.1,21.9,19.6,26.3c15.7,5.9,33.2-2,39.2-17.7c5.9-15.7-2-33.2-17.7-39.2c-4.4-1.7-9-2.2-13.4-1.9c0,1.1-0.1,2.1-0.2,3.2
		C89.6,75.9,89.1,78.1,88.5,80z"/>
	<path opacity="0.75" fill="#BBD260" d="M86.6,71c-9.8,2-18.4,8.9-22.3,19c-1.1,2.8-1.7,5.7-1.9,8.6c1.5-0.3,3.1-0.8,4.6-1.3
		C78.5,93,85.8,82.5,86.6,71z"/>
	<path fill="#BFD569" d="M86.6,71c-9.8,2-18.4,8.9-22.3,19c-1.1,2.8-1.7,5.7-1.9,8.6c1.5-0.3,3.1-0.8,4.6-1.3
		C78.5,93,85.8,82.5,86.6,71z"/>
	<path fill="#82943A" d="M87.2,74.9c0,0.2-0.1,1.2-0.4,2.5c-0.3,1.3-0.9,3-1.6,4.6c-0.7,1.6-1.7,3.2-2.6,4.4
		c-1.3,1.7-2.9,3.5-4.7,5.3c-1.8,1.7-3.8,3.4-6.1,4.8c-0.3,0.2-0.6,0.4-0.9,0.5c-0.3,0.2-0.6,0.3-0.9,0.5c-0.6,0.3-1.2,0.6-1.8,0.9
		c-1.3,0.6-2.5,1.1-3.9,1.5c-0.6,0.2-1.3,0.4-2,0.5c0,0.8,0,1.7,0.1,2.5c0.6-0.1,1.3-0.3,1.9-0.4c1.8-0.5,3.6-1.1,5.3-1.9
		c0.4-0.2,0.9-0.4,1.3-0.6l1.3-0.7l1.2-0.7c0.4-0.2,0.8-0.5,1.2-0.8c1.6-1.1,3.1-2.2,4.5-3.5c2.8-2.6,5.3-5.7,7.2-9.3
		c0.7-1.4,1.5-3.1,2.2-5s1.1-4.1,1.4-6.3c0.1-1.1,0.2-2.1,0.2-3.2c-0.8,0.1-1.6,0.2-2.4,0.3c-0.1,1.7-0.4,3.6-1,5.8
		C87.1,75.1,87.2,74.6,87.2,74.9z"/>
	<path fill="#B1C657" d="M87.2,74.9c0,0.2-0.1,1.2-0.4,2.5c-0.3,1.3-0.9,3-1.6,4.6c-0.7,1.6-1.7,3.2-2.6,4.4
		c-1.3,1.7-2.9,3.5-4.7,5.3c-1.8,1.7-3.8,3.4-6.1,4.8c-0.3,0.2-0.6,0.4-0.9,0.5c-0.3,0.2-0.6,0.3-0.9,0.5c-0.6,0.3-1.2,0.6-1.8,0.9
		c-1.3,0.6-2.5,1.1-3.9,1.5c-0.6,0.2-1.3,0.4-2,0.5c0,0.8,0,1.7,0.1,2.5c0.6-0.1,1.3-0.3,1.9-0.4c1.8-0.5,3.6-1.1,5.3-1.9
		c0.4-0.2,0.9-0.4,1.3-0.6l1.3-0.7l1.2-0.7c0.4-0.2,0.8-0.5,1.2-0.8c1.6-1.1,3.1-2.2,4.5-3.5c2.8-2.6,5.3-5.7,7.2-9.3
		c0.7-1.4,1.5-3.1,2.2-5s1.1-4.1,1.4-6.3c0.1-1.1,0.2-2.1,0.2-3.2c-0.8,0.1-1.6,0.2-2.4,0.3c-0.1,1.7-0.4,3.6-1,5.8
		C87.1,75.1,87.2,74.6,87.2,74.9z"/>
	<path fill="#82943A" d="M74,74.5l-0.8,0.6c-0.3,0.2-0.5,0.4-0.8,0.7c0.3-0.2,0.5-0.3,0.9-0.6C73.4,74.9,73.7,74.7,74,74.5z"/>
	<path fill="#82943A" d="M75.9,73.2c-0.1,0.1-0.2,0.1-0.3,0.2c0.2-0.1,0.4-0.2,0.6-0.3C76.1,73,76,73.1,75.9,73.2z"/>
	<path fill="#82943A" d="M77.1,72.5c0.5-0.3,1.1-0.6,1.6-0.9C78.1,71.9,77.6,72.2,77.1,72.5z"/>
	<path fill="#82943A" d="M76.3,73.1c0.2-0.2,0.5-0.4,0.9-0.6c-0.3,0.2-0.6,0.4-1,0.5L76.3,73.1C76.5,72.8,76.4,72.9,76.3,73.1z"/>
	<path fill="#82943A" d="M76.3,73.1c-0.1,0.1-0.2,0.2-0.3,0.2C76.1,73.2,76.2,73.1,76.3,73.1z"/>
	<path fill="#82943A" d="M76,73.3c-0.1,0.1-0.2,0.2-0.2,0.2C75.8,73.4,75.9,73.4,76,73.3z"/>
	<path fill="#82943A" d="M87.7,69.9L87.7,69.9c0-0.1,0-0.1,0-0.2c-0.3,0-0.7,0.1-1.1,0.1c0,0.1,0,0.2,0,0.3c0.1,0,0.3-0.1,0.4-0.1
		C87.3,70,87.5,69.9,87.7,69.9z"/>
	<path fill="#82943A" d="M86.5,69.8c-0.6,0.1-1.2,0.2-1.6,0.3c-0.4,0.1-0.8,0.3-1.2,0.4c-0.2,0.1-0.4,0.2-0.6,0.3
		c-0.2,0.1-0.4,0.2-0.6,0.2c-1.5,0.5-2.8,1-4.3,1.7c-0.7,0.3-0.5,0.5-0.8,0.6c-2,1.1-3.6,1.9-4.7,2.8c-0.2,0.2-0.4,0.4-0.6,0.5
		c-0.2,0.2-0.4,0.4-0.6,0.5c-0.2,0.2-0.4,0.4-0.5,0.5c-0.2,0.2-0.3,0.4-0.5,0.5c0.5-0.5,1.1-1,1.6-1.6c1.1-0.9,2.2-1.7,3.4-2.4
		c0.6-0.4,1.2-0.7,1.8-1c0.3-0.2,0.6-0.3,0.9-0.5c0.3-0.1,0.6-0.3,0.9-0.4c0.4-0.2,0.8-0.3,1.1-0.5c0.4-0.1,0.7-0.3,1.1-0.4
		c0.3-0.1,0.7-0.3,1.1-0.4c0.4-0.1,0.7-0.3,1.1-0.4c0.4-0.1,0.7-0.2,1.1-0.3c0.4-0.1,0.8-0.2,1.1-0.3c0.3-0.1,0.5-0.1,0.8-0.2
		c0-0.1,0-0.2,0-0.3C86.6,69.8,86.6,69.8,86.5,69.8z"/>
	<path fill="#82943A" d="M88.4,69.8c1.2-0.2,0.8-0.2-0.2-0.1c-0.1,0-0.3,0-0.5,0c0,0.1,0,0.1,0,0.2C87.9,69.8,88.2,69.8,88.4,69.8z"
		/>
	<path fill="#82943A" d="M65.5,83.9c0.1-0.1,0.1-0.2,0.2-0.3C65.6,83.7,65.6,83.8,65.5,83.9z"/>
	<path fill="#82943A" d="M65.7,83.5c-0.1,0.1-0.1,0.2-0.2,0.3c-0.1,0.1-0.1,0.2-0.1,0.2c0,0,0.2-0.2,0.5-0.6
		c0.1-0.2,0.2-0.5,0.3-0.7c-1,1.3-1.9,2.8-2.5,4.4c0,0-0.4,0.6-0.5,1c-0.2,0.5-0.1,0.5-0.1,0.7c0.7-1.6,1.5-3.2,2.4-4.8
		C65.6,83.8,65.6,83.7,65.7,83.5z"/>
	<path fill="#82943A" d="M63.2,88.7c-0.1,0.3-0.3,0.7-0.4,1l0,0C62.9,89.4,63,89.1,63.2,88.7C63.2,88.7,63.2,88.7,63.2,88.7z"/>
	<path fill="#82943A" d="M60.4,100.8c0.3-0.1,0.6-0.1,1-0.2c0-0.6,0-1.2,0.1-1.8c-0.8,0.1-1.6,0.2-2.3,0.3c0,0,0,0,0,0.1
		c0,0.6-0.1,1.2-0.1,1.8l0.4,0C59.7,100.9,60,100.8,60.4,100.8z"/>
	<path fill="#82943A" d="M125,89.8c-0.6-1.7-1.4-3.3-2.3-4.8c-0.9-1.6-1.9-3-3.1-4.5c-1.4-1.8-3-3.3-4.7-4.7c0.5,0.5,1,1.1,1.6,1.6
		c0,0,0.1,0.1,0.2,0.2c0.1,0.1,0.3,0.2,0.4,0.3c0.2,0.3,0.5,0.6,0.8,1c0.8,0.7,1.6,1.5,2.4,2.6c-0.8-0.8-1.7-1.8-2.4-2.6
		c-0.5-0.4-0.9-0.7-1.3-1c-0.3-0.2-0.6-0.5-0.9-0.9c-0.1-0.2-0.3-0.3-0.5-0.5c-0.2-0.1-0.4-0.3-0.6-0.4c0.2,0.1,0.4,0.2,0.6,0.4
		c0.2,0.1,0.3,0.3,0.5,0.5c0.3,0.3,0.6,0.6,0.9,0.9c0.4,0.3,0.9,0.6,1.3,1c-0.3-0.4-0.6-0.7-0.8-1c-0.1-0.1-0.3-0.2-0.4-0.3
		c-0.1-0.1-0.2-0.2-0.2-0.2c-0.5-0.5-1-1.1-1.6-1.6l-0.7-0.5c-0.2-0.2-0.5-0.3-0.7-0.5l-0.7-0.5c-0.2-0.2-0.5-0.3-0.7-0.5
		c-0.1,0-0.2-0.1-0.3-0.1c0,0,0.1,0,0.1,0.1c-0.2-0.1-0.4-0.3-0.7-0.4c-0.6-0.2-1.5-0.8-2.5-1.3c-0.2-0.1-0.5-0.3-0.8-0.4l-1-0.5
		c-0.3-0.2-0.7-0.3-1-0.4c-0.7-0.3-1.4-0.5-2.1-0.8c0.1,0,0.2,0.1,0.3,0.1c0.1,0,0.1,0.1,0.2,0.1l0.9,0.3l0.9,0.3
		c0.3,0.1,0.6,0.2,0.9,0.3l0.8,0.4c-0.3-0.1-0.7-0.3-1.2-0.4c-0.2-0.1-0.5-0.2-0.7-0.3c-0.2-0.1-0.5-0.2-0.7-0.3
		c-0.4-0.1-0.7-0.2-1-0.3c-0.1,0-0.3-0.1-0.4-0.1c-0.1,0-0.2,0-0.3-0.1c0.1,0,0.2,0,0.3,0.1c0.1,0,0.3,0,0.4,0.1c0.2,0,0.3,0,0-0.1
		l0,0c-0.2-0.1-0.4-0.2-0.6-0.2c-0.3-0.1-0.6-0.2-0.9-0.3c-0.3-0.1-0.6-0.2-0.9-0.2c-0.3-0.1-0.7-0.1-1-0.2c-0.4-0.1-0.7-0.2-1-0.3
		c-3.1-0.6-6.4-0.7-9.7-0.3c0,0.1,0,0.1,0,0.1c0.2,0,0.3,0,0.5,0c-0.2,0.1-0.3,0.1-0.5,0.1c0,0.1,0,0.2,0,0.3l0,0
		c0.4,0,0.8-0.1,1.2-0.1c0.4,0,0.8,0,1.2,0c0.4,0,0.8,0,1.1,0c0.3-0.1,0.5-0.2,0.6-0.3c-0.3,0-0.7,0-1,0c-0.4,0-0.7,0-1,0.1
		c0.3,0,0.7,0,1-0.1c0.4,0,0.7-0.1,1,0c-0.1,0.1-0.2,0.2-0.6,0.3c0.4,0,0.8,0.1,1.2,0.1c0.6,0,1.2,0.1,1.9,0.1c0.5,0,1,0.1,1.5,0.1
		c0.5,0,1,0.1,1.6,0.2c1.4,0.2,3.1,0.9,5.1,1.8c0.3,0.1,0.3-0.1,1,0.2c0.8,0.3,1.4,0.7,2.1,1.1c0.3,0.2,0.6,0.4,1,0.6
		c0.2,0.1,0.3,0.2,0.5,0.3c0.2,0.1,0.3,0.2,0.5,0.3c0.3,0.2,0.7,0.4,1.1,0.6c0.4,0.2,0.8,0.4,1.1,0.6c0.3,0.2,0.8,0.6,1.2,1
		c0.4,0.4,0.9,0.8,1.2,1.2c0.7,0.7,0.9,1.1,0,0.2c-2.8-2.4-4.9-3.7-7.9-5.2c1.3,0.7,2.7,1.4,4,2.3c1.3,0.9,2.7,1.9,4,3.1
		c1.7,1.5,3.9,3.6,5.4,6c2,3.3,3.5,7.1,4.5,11.5c0.9,4.2,0.9,8.4,0.1,12.4c-0.8,4-2.4,7.7-4.5,11.1c-4.3,6.6-11.1,11.5-18.9,13.6
		c-0.4,0.1-0.8,0.2-1.1,0.3c-0.2,0-0.4,0.1-0.6,0.1c-0.2,0-0.4,0.1-0.6,0.1c-0.4,0.1-0.7,0.1-1.1,0.2c-0.4,0-0.7,0.1-1.1,0.1
		c-0.4,0-0.7,0.1-1,0.1c-0.3,0-0.7,0.1-1,0.1c-0.7,0-1.3,0-2,0c-0.3,0-0.7,0-1,0c-0.3,0-0.7,0-1-0.1l-0.5,0l-0.5-0.1
		c-0.3,0-0.7-0.1-1-0.1c-1.3-0.2-2.7-0.5-4-0.9c-1.3-0.4-2.6-0.9-3.9-1.5c-0.6-0.3-1.2-0.6-1.8-0.9c-0.3-0.2-0.6-0.3-0.9-0.5
		c-0.3-0.2-0.6-0.4-0.9-0.5c-2.3-1.4-4.3-3.1-6.2-4.8c-1.8-1.7-3.3-3.5-4.7-5.2c-0.9-1.2-1.9-2.8-2.6-4.4c-0.7-1.6-1.3-3.3-1.6-4.6
		c-0.3-1.3-0.4-2.3-0.4-2.5c0-0.2,0.2,0.2,0.6,1.8c-0.6-2-0.9-3.8-1-5.4c-0.8,0.1-1.6,0.2-2.4,0.3c0,0.7,0.1,1.4,0.2,2.1
		c0.3,2.2,0.7,4.4,1.4,6.3c0.6,1.9,1.4,3.7,2.2,5c2,3.5,4.4,6.6,7.2,9.3c1.4,1.3,2.9,2.5,4.5,3.5c0.4,0.3,0.8,0.5,1.2,0.8l1.2,0.7
		l1.3,0.7c0.4,0.2,0.9,0.4,1.3,0.6c1.7,0.8,3.5,1.4,5.3,1.9c1.8,0.5,3.7,0.8,5.6,1c1.9,0.2,3.8,0.2,5.7,0c1.9-0.2,3.8-0.5,5.7-1
		c7.6-2,14.6-6.8,19.3-13.6c4.3-6.3,6.3-13.6,6-20.7C127,96.7,126.3,93.2,125,89.8z"/>
	<path fill="#82943A" d="M103.9,70.1c-0.1,0-0.2,0-0.3-0.1C103.8,70.1,103.9,70.1,103.9,70.1z"/>
	<path fill="#82943A" d="M105.4,70.5c-0.2-0.1-0.5-0.2-0.7-0.3C104.9,70.3,105.1,70.4,105.4,70.5c0,0,0.1,0,0.2,0.1
		C105.5,70.5,105.4,70.5,105.4,70.5z"/>
	<path fill="#82943A" d="M87.7,69.2c-0.4,0.1-0.7,0.2-1.1,0.2c0,0,0,0.1,0,0.1c0.4-0.1,0.7-0.1,1.1-0.2
		C87.8,69.3,87.7,69.2,87.7,69.2z"/>
	<path fill="#82943A" d="M87.7,69c0,0,0-0.1,0-0.1c-0.4,0.1-0.7,0.1-1.1,0.2c0,0,0,0.1,0,0.1C87,69.1,87.4,69.1,87.7,69z"/>
	<path fill="#82943A" d="M84.1,70.1L84.1,70.1c0.8-0.2,1.7-0.4,2.6-0.5c0,0,0-0.1,0-0.1C85.8,69.6,85,69.8,84.1,70.1z"/>
	<path fill="#82943A" d="M84.6,69.7c0.4-0.1,1.1-0.2,1.1-0.2c0.3-0.1,0.6-0.2,1-0.3c0,0,0-0.1,0-0.1c-0.2,0-0.4,0.1-0.6,0.1
		c0,0-0.1,0-0.4,0.1c-0.2,0.1-0.6,0.2-0.9,0.3c-0.3,0.1-0.7,0.3-1,0.4c-0.3,0.1-0.6,0.3-0.8,0.4c0.4-0.1,0.7-0.2,1.1-0.3
		C84.2,70,84.1,69.9,84.6,69.7z"/>
	<path fill="#82943A" d="M61.4,98.1c0.1-0.7,0.1-1.3,0.2-1.9c0.1-0.6,0.1-1.2,0.2-1.7c0.1-0.6,0.1-1.1,0.2-1.7
		c0-0.3,0.1-0.6,0.1-0.9c0-0.3,0.1-0.6,0.1-0.9c0-0.2,0.1-1.3-0.2-1.5c-0.1-0.1-0.4,0-0.8,0.7c-0.2,0.3-0.4,0.7-0.7,1.4
		c-0.1,0.3-0.3,0.6-0.4,1c-0.1,0.4-0.3,0.8-0.4,1.3c-0.3,1.4-0.7,3.2-0.8,5.2c0.8-0.1,1.6-0.2,2.3-0.3
		C61.4,98.6,61.4,98.3,61.4,98.1z"/>
	<path fill="#82943A" d="M89.1,68.9C89.1,68.9,89.1,68.9,89.1,68.9c-0.4,0-0.9,0.2-1.3,0.3c0,0.1,0,0.1,0,0.2
		c0.4-0.1,0.8-0.1,1.2-0.2c0.4-0.1,0.8-0.1,1.2-0.1c0-0.1,0-0.2,0-0.3c-0.1,0-0.1,0-0.2,0.1C89.4,68.9,89.1,68.9,89.1,68.9z"/>
	<path fill="#82943A" d="M87.7,69c0.8-0.1,1.6-0.2,2.3-0.3c0,0,0-0.1,0-0.1c-0.8,0.1-1.6,0.2-2.3,0.3C87.7,68.9,87.7,69,87.7,69z"/>
	<path fill="#82943A" d="M89.2,68.9c0.2,0,0.3-0.1,0.5-0.1C89.4,68.8,89.3,68.8,89.2,68.9z"/>
	<path fill="#82943A" d="M61.4,102.6c0-0.7-0.1-1.4,0-2c-0.3,0.1-0.6,0.1-1,0.2c-0.3,0-0.7,0.1-1,0.1l-0.4,0c0,0.8,0,1.7,0.1,2.5
		c0.8-0.1,1.6-0.2,2.4-0.3C61.4,103,61.4,102.8,61.4,102.6z"/>
	<path fill="#82943A" d="M105.6,70.6c0.2,0.1,0.4,0.1,0.5,0.2c0.3,0.1,0.6,0.3,1,0.4C106.5,70.9,106,70.7,105.6,70.6z"/>
	<path fill="#82943A" d="M104.7,70.2c0,0-0.1,0-0.1,0l0,0C104.6,70.2,104.6,70.2,104.7,70.2z"/>
	<path fill="#82943A" d="M105.4,70.5c0.1,0,0.1,0,0.2,0.1c0.4,0.2,0.9,0.4,1.5,0.6c-0.3-0.1-0.6-0.3-1-0.4c0.2,0.1,0.5,0.2,0.7,0.3
		c0.4,0.2,0.8,0.4,1.2,0.4l-0.8-0.4c-0.3-0.1-0.6-0.2-0.9-0.3L105.4,70.5l-0.8-0.3c0,0,0.1,0,0.1,0
		C104.9,70.3,105.2,70.4,105.4,70.5z"/>
	<path opacity="0.44" fill="#E8559A" d="M79.2,44c-1-0.4-2.1-0.6-3.1-0.7c0.2,0.2,0.4,0.4,0.7,0.5c-0.3-0.2-0.5-0.3-0.8-0.6
		c-0.4,0-0.8,0-1.2,0c0.6,0.4,1.1,0.7,1.5,1.1c0.2,0.2,0.4,0.4,0.6,0.5c0.2,0.2,0.4,0.4,0.6,0.5c0.2,0.2,0.4,0.4,0.5,0.5
		c0.2,0.2,0.3,0.4,0.5,0.5c-0.5-0.5-1.1-1-1.6-1.6c-0.8-0.6-1.5-1.1-2.3-1.7c-0.5,0-1,0.1-1.6,0.2c5.2,3.4,9.4,8.4,11.8,14.7
		c0.3,0.9,0.6,1.7,0.8,2.6c0.2-0.4,0.4-0.8,0.6-1.2C88.5,53.3,85.3,46.4,79.2,44z M83.5,52c0.1,0.1,0.1,0.2,0.1,0.2
		c-0.1,0-0.2-0.2-0.5-0.6c-0.1-0.2-0.2-0.5-0.3-0.7c1,1.4,1.9,2.8,2.5,4.4c0,0,0.4,0.6,0.5,1c0.2,0.5,0.1,0.5,0.1,0.7
		c0.1,0.3,0.3,0.7,0.4,1c0,0,0,0,0,0c-0.2-0.3-0.3-0.7-0.5-1c0,0,0,0,0,0C85.2,55.2,84.4,53.6,83.5,52z"/>
	<path opacity="0.75" fill="#BBD260" d="M72.9,43.4c-4.1,0.7-7.6,3.4-9.2,7.6c-2.3,6.2,0.8,13.1,7,15.4c5.8,2.2,12.1-0.4,14.9-5.7
		c-0.2-0.9-0.5-1.7-0.8-2.6C82.3,51.9,78.1,46.8,72.9,43.4z"/>
	<path fill="#D8A290" d="M72.9,43.4c-4.1,0.7-7.6,3.4-9.2,7.6c-2.3,6.2,0.8,13.1,7,15.4c5.8,2.2,12.1-0.4,14.9-5.7
		c-0.2-0.9-0.5-1.7-0.8-2.6C82.3,51.9,78.1,46.8,72.9,43.4z"/>
	<path fill="#82943A" d="M76.7,43.9c-0.2-0.2-0.4-0.4-0.7-0.5c-0.1,0-0.1,0-0.2,0C76.2,43.6,76.4,43.7,76.7,43.9z"/>
	<path opacity="0.44" fill="#E8559A" d="M76.7,43.9c-0.2-0.2-0.4-0.4-0.7-0.5c-0.1,0-0.1,0-0.2,0C76.2,43.6,76.4,43.7,76.7,43.9z"/>
	<path fill="#82943A" d="M74.5,43.3c0.8,0.5,1.5,1.1,2.3,1.7c0.6,0.5,1.1,1,1.6,1.6c-0.2-0.2-0.3-0.4-0.5-0.5
		c-0.2-0.2-0.4-0.3-0.5-0.5c-0.2-0.2-0.4-0.4-0.6-0.5c-0.2-0.2-0.4-0.4-0.6-0.5c-0.4-0.4-0.9-0.7-1.5-1.1
		C74.6,43.3,74.5,43.3,74.5,43.3z"/>
	<path opacity="0.44" fill="#E8559A" d="M74.5,43.3c0.8,0.5,1.5,1.1,2.3,1.7c0.6,0.5,1.1,1,1.6,1.6c-0.2-0.2-0.3-0.4-0.5-0.5
		c-0.2-0.2-0.4-0.3-0.5-0.5c-0.2-0.2-0.4-0.4-0.6-0.5c-0.2-0.2-0.4-0.4-0.6-0.5c-0.4-0.4-0.9-0.7-1.5-1.1
		C74.6,43.3,74.5,43.3,74.5,43.3z"/>
	<path fill="#82943A" d="M85.8,56.1c-0.2-0.3-0.5-1-0.5-1c-0.5-1.5-1.4-3-2.5-4.4c0.1,0.2,0.2,0.5,0.3,0.7c0.3,0.4,0.4,0.6,0.5,0.6
		c0,0,0-0.1-0.1-0.2c-0.1-0.1-0.1-0.2-0.2-0.4c0.1,0.2,0.1,0.3,0.2,0.4c0.9,1.6,1.6,3.2,2.3,4.8C85.9,56.7,86,56.7,85.8,56.1z"/>
	<path opacity="0.44" fill="#E8559A" d="M85.8,56.1c-0.2-0.3-0.5-1-0.5-1c-0.5-1.5-1.4-3-2.5-4.4c0.1,0.2,0.2,0.5,0.3,0.7
		c0.3,0.4,0.4,0.6,0.5,0.6c0,0,0-0.1-0.1-0.2c-0.1-0.1-0.1-0.2-0.2-0.4c0.1,0.2,0.1,0.3,0.2,0.4c0.9,1.6,1.6,3.2,2.3,4.8
		C85.9,56.7,86,56.7,85.8,56.1z"/>
	<path fill="#82943A" d="M83.5,52c0-0.1-0.1-0.2-0.2-0.4C83.4,51.8,83.5,51.9,83.5,52z"/>
	<path opacity="0.44" fill="#E8559A" d="M83.5,52c0-0.1-0.1-0.2-0.2-0.4C83.4,51.8,83.5,51.9,83.5,52z"/>
	<path fill="#82943A" d="M86.3,57.9C86.3,57.9,86.3,57.8,86.3,57.9c-0.2-0.4-0.3-0.7-0.5-1.1c0,0,0,0,0,0
		C86,57.2,86.2,57.5,86.3,57.9z"/>
	<path opacity="0.44" fill="#E8559A" d="M86.3,57.9C86.3,57.9,86.3,57.8,86.3,57.9c-0.2-0.4-0.3-0.7-0.5-1.1c0,0,0,0,0,0
		C86,57.2,86.2,57.5,86.3,57.9z"/>
	<path fill="#9C2D67" d="M67.5,44.9l-0.3,0.3c-0.1,0.1-0.2,0.2-0.3,0.3c0.1-0.1,0.2-0.1,0.3-0.2C67.3,45,67.4,44.9,67.5,44.9z"/>
	<path fill="#9C2D67" d="M68.3,44.3c0,0-0.1,0-0.1,0.1c0.1-0.1,0.2-0.1,0.2-0.1C68.3,44.3,68.3,44.3,68.3,44.3z"/>
	<path fill="#9C2D67" d="M68.7,44.1c0.2-0.1,0.4-0.2,0.6-0.3C69.1,43.8,68.9,44,68.7,44.1z"/>
	<path fill="#9C2D67" d="M68.4,44.3C68.4,44.3,68.4,44.3,68.4,44.3S68.4,44.3,68.4,44.3L68.4,44.3z"/>
	<path fill="#9C2D67" d="M68.4,44.3c0.1-0.1,0.2-0.2,0.3-0.2C68.6,44.1,68.5,44.2,68.4,44.3C68.5,44.2,68.5,44.3,68.4,44.3z"/>
	<path fill="#9C2D67" d="M68.4,44.3c-0.1,0.1-0.1,0.1-0.2,0.2C68.2,44.4,68.3,44.4,68.4,44.3z"/>
	<path fill="#9C2D67" d="M72.9,43.1c0.1,0,0.2,0,0.3,0c0.5-0.1,0.3-0.1-0.1-0.1c-0.2,0-0.4,0-0.7,0.1c-0.1,0-0.1,0-0.1,0
		c0.1,0,0.1,0.1,0.2,0.1c0.1,0,0.1,0,0.2,0C72.7,43.1,72.8,43.1,72.9,43.1z"/>
	<path fill="#9C2D67" d="M71.8,43.1c-0.1,0-0.3,0.1-0.5,0.2c-0.1,0-0.2,0.1-0.2,0.1c-0.1,0-0.2,0.1-0.2,0.1
		c-0.6,0.2-1.1,0.4-1.7,0.7c-0.3,0.1-0.2,0.2-0.3,0.2c-0.8,0.4-1.4,0.7-1.8,1.1c-0.1,0.1-0.2,0.1-0.2,0.2c-0.1,0.1-0.1,0.1-0.2,0.2
		c-0.1,0.1-0.1,0.1-0.2,0.2c-0.1,0.1-0.1,0.1-0.2,0.2c0.2-0.2,0.4-0.4,0.7-0.6c0.4-0.3,0.9-0.7,1.3-0.9c0.2-0.1,0.5-0.3,0.7-0.4
		c0.1-0.1,0.2-0.1,0.4-0.2c0.1-0.1,0.2-0.1,0.4-0.2c0.2-0.1,0.3-0.1,0.4-0.2c0.1-0.1,0.3-0.1,0.4-0.2c0.1-0.1,0.3-0.1,0.4-0.2
		c0.1,0,0.3-0.1,0.4-0.1c0.1,0,0.3-0.1,0.4-0.1c0.1,0,0.3-0.1,0.5-0.1c0.1,0,0.2,0,0.3-0.1c-0.1,0-0.1-0.1-0.2-0.1
		C72.1,43.1,72,43.1,71.8,43.1z"/>
	<path fill="#9C2D67" d="M64.1,48.6c0,0,0.1-0.1,0.2-0.3c0-0.1,0.1-0.2,0.1-0.3c-0.1,0.1-0.1,0.2-0.2,0.3
		C64.2,48.5,64.2,48.6,64.1,48.6L64.1,48.6z"/>
	<path fill="#9C2D67" d="M64.2,48.5c-0.3,0.4-0.6,0.9-0.7,1.4c0,0-0.1,0.3-0.2,0.4c-0.1,0.2,0,0.2,0,0.3c0.3-0.6,0.6-1.2,0.9-1.9
		C64.2,48.6,64.2,48.5,64.2,48.5z"/>
	<path fill="#9C2D67" d="M64.2,48.4C64.2,48.4,64.2,48.4,64.2,48.4C64.2,48.5,64.2,48.5,64.2,48.4C64.2,48.4,64.2,48.4,64.2,48.4z"
		/>
	<path fill="#9C2D67" d="M64.2,48.5C64.2,48.5,64.2,48.5,64.2,48.5c-0.1,0.1-0.1,0.1-0.1,0.2C64.2,48.6,64.2,48.5,64.2,48.5z"/>
	<path fill="#9C2D67" d="M63.2,50.5c-0.1,0.1-0.1,0.3-0.2,0.4c0,0,0,0,0,0C63.1,50.8,63.2,50.6,63.2,50.5
		C63.2,50.5,63.2,50.5,63.2,50.5z"/>
	<path fill="#9C2D67" d="M73.7,42.8c-0.1,0-0.1-0.1-0.1-0.1c-0.1,0-0.1,0-0.1,0c0,0,0,0,0,0c-0.5,0.1-0.9,0.2-1.3,0.3c0,0,0,0,0,0
		c0.4-0.1,0.8-0.2,1.2-0.2C73.5,42.8,73.6,42.8,73.7,42.8z"/>
	<path fill="#9C2D67" d="M79.5,43.1L79.5,43.1C79.5,43.1,79.5,43.1,79.5,43.1C79.5,43.1,79.5,43.1,79.5,43.1z"/>
	<polygon fill="#9C2D67" points="73.5,42.6 73.5,42.6 73.5,42.6 	"/>
	<path fill="#9C2D67" d="M72.1,42.9c0.4-0.2,0.9-0.2,1.4-0.3c0,0,0,0-0.1,0c-0.4,0.1-0.8,0.1-1.1,0.2C72.3,42.8,72.2,42.8,72.1,42.9
		c0-0.1-0.1-0.1-0.1,0C72,42.9,72.1,42.9,72.1,42.9L72.1,42.9z"/>
	<path fill="#9C2D67" d="M73.6,42.6C73.6,42.6,73.6,42.6,73.6,42.6L73.6,42.6C73.6,42.6,73.6,42.6,73.6,42.6L73.6,42.6z"/>
	<path fill="#9C2D67" d="M79.5,43.2c-0.1,0-0.2,0-0.3-0.1C79.3,43.1,79.4,43.2,79.5,43.2z"/>
	<path fill="#9C2D67" d="M87,60.9c0-0.3-0.1-0.6-0.1-0.9c0,0,0-0.1,0-0.1c-0.3,0.7-0.6,1.4-1,2c0.1,0.4,0.2,0.8,0.3,1.2
		c0.4-0.5,0.7-1.1,0.9-1.6C87,61.3,87,61.1,87,60.9z"/>
	<path fill="#9C2D67" d="M75.5,42.6c-0.1,0-0.2,0-0.3,0l0.1,0.1C75.4,42.7,75.4,42.7,75.5,42.6z"/>
	<path fill="#9C2D67" d="M73.7,42.6C73.7,42.6,73.7,42.6,73.7,42.6C73.7,42.6,73.7,42.6,73.7,42.6c0.1,0,0.3,0,0.4,0
		c-0.1,0-0.2,0.1-0.3,0.1C73.7,42.7,73.7,42.7,73.7,42.6c0.1,0.1,0.1,0.1,0.2,0.1c0,0,0,0,0,0c0.2,0,0.3,0,0.5,0c0.2,0,0.3,0,0.5,0
		c0.1,0,0.3,0,0.4,0c0,0,0,0,0,0c0,0-0.1-0.1-0.1-0.1c0,0-0.1,0-0.1,0c-0.1,0-0.3,0-0.4,0c0.1,0,0.3,0,0.4,0c0,0,0.1,0,0.1,0
		c0,0-0.1-0.1-0.1-0.1l0.1,0.1c0.1,0,0.2,0,0.3,0c0,0-0.1,0.1-0.2,0.1l0,0c0.1,0,0.3,0,0.4,0c0.2,0,0.5,0,0.7,0c0.2,0,0.4,0,0.6,0
		c0.2,0,0.4,0,0.6,0.1c0.6,0.1,1.2,0.4,2,0.7c0.1,0.1,0.1-0.1,0.4,0.1c0.3,0.1,0.6,0.3,0.8,0.4c0.1,0.1,0.3,0.1,0.4,0.2
		c0.1,0,0.1,0.1,0.2,0.1c0.1,0,0.1,0.1,0.2,0.1c0.1,0.1,0.3,0.2,0.4,0.2c0.2,0.1,0.3,0.2,0.4,0.2c0.1,0.1,0.3,0.2,0.5,0.4
		c0.2,0.2,0.3,0.3,0.5,0.5c0.3,0.3,0.4,0.4,0,0.1c-1.1-0.9-1.9-1.5-3.1-2c0.5,0.3,1,0.6,1.6,0.9c0.5,0.4,1.1,0.7,1.6,1.2
		c0.7,0.6,1.5,1.4,2.1,2.4c0.8,1.3,1.4,2.8,1.8,4.5c0.4,1.6,0.4,3.3,0,4.9c0,0,0,0,0,0c0.1,0.1,0.2,0.2,0.3,0.4
		c0.1,0.2,0.2,0.3,0.3,0.6c0.3-1.3,0.5-2.6,0.4-3.9c-0.1-1.4-0.3-2.8-0.8-4.1c-0.3-0.7-0.5-1.3-0.9-1.9c-0.4-0.6-0.8-1.2-1.2-1.8
		c-0.6-0.7-1.2-1.3-1.9-1.9c0.2,0.2,0.4,0.4,0.6,0.6c0,0,0,0,0.1,0.1c0.1,0,0.1,0.1,0.2,0.1c0.1,0.1,0.2,0.2,0.3,0.4
		c0.3,0.3,0.6,0.6,0.9,1c-0.3-0.3-0.7-0.7-0.9-1c-0.2-0.2-0.4-0.3-0.5-0.4c-0.1-0.1-0.2-0.2-0.3-0.3c-0.1-0.1-0.1-0.1-0.2-0.2
		c-0.1-0.1-0.1-0.1-0.2-0.1c0.1,0,0.2,0.1,0.2,0.1c0.1,0.1,0.1,0.1,0.2,0.2c0.1,0.1,0.2,0.3,0.3,0.3c0.2,0.1,0.3,0.3,0.5,0.4
		c-0.1-0.2-0.2-0.3-0.3-0.4c0,0-0.1-0.1-0.2-0.1c-0.1,0-0.1-0.1-0.1-0.1c-0.2-0.2-0.4-0.4-0.6-0.6l-0.3-0.2
		c-0.1-0.1-0.2-0.1-0.3-0.2l-0.3-0.2c-0.1-0.1-0.2-0.1-0.3-0.2c0,0-0.1,0-0.1-0.1c0,0,0,0,0.1,0c-0.1-0.1-0.2-0.1-0.3-0.2
		c-0.2-0.1-0.6-0.3-1-0.5c-0.1,0-0.2-0.1-0.3-0.2l-0.4-0.2c-0.1-0.1-0.3-0.1-0.4-0.2c-0.3-0.1-0.5-0.2-0.8-0.3c0,0,0.1,0,0.1,0.1h0
		c0,0,0,0,0,0c0.1,0,0.2,0.1,0.4,0.1c0.1,0,0.1,0,0.2,0.1c-0.1,0-0.1,0-0.2-0.1c-0.1,0-0.2-0.1-0.3-0.1l0.3,0.1l0.3,0.1
		c0.1,0,0.2,0.1,0.3,0.1l0.3,0.2c-0.1,0-0.3-0.1-0.5-0.2c-0.1-0.1-0.3-0.1-0.4-0.2c-0.1,0-0.1,0-0.2-0.1c-0.2,0-0.3-0.1-0.4-0.1
		c-0.1,0-0.2,0-0.3-0.1c0,0,0.2,0,0.3,0.1c0.1,0,0.1,0,0,0c0,0,0,0,0,0c-0.1,0-0.2-0.1-0.3-0.1c-0.1,0-0.2-0.1-0.4-0.1
		c-0.1,0-0.2-0.1-0.4-0.1c-0.1,0-0.3,0-0.4-0.1c-0.2,0-0.3-0.1-0.4-0.1c-1.3-0.2-2.7-0.3-4.2-0.1C73.6,42.6,73.6,42.6,73.7,42.6
		C73.6,42.6,73.6,42.6,73.7,42.6z"/>
	<path fill="#9C2D67" d="M75.3,42.7C75.3,42.7,75.3,42.7,75.3,42.7L75.3,42.7L75.3,42.7z"/>
	<path fill="#9C2D67" d="M85.7,62.2c-1.7,2.6-4.4,4.5-7.5,5.4c-0.1,0-0.3,0.1-0.4,0.1c-0.1,0-0.1,0-0.2,0c-0.1,0-0.1,0-0.2,0
		c-0.1,0-0.3,0-0.4,0.1c-0.1,0-0.3,0-0.4,0c-0.1,0-0.3,0-0.4,0c-0.1,0-0.3,0-0.4,0c-0.3,0-0.5,0-0.8,0c-0.1,0-0.3,0-0.4,0
		c-0.1,0-0.3,0-0.4,0l-0.2,0l-0.2,0c-0.1,0-0.3,0-0.4-0.1c-0.5-0.1-1.1-0.2-1.6-0.4c-0.5-0.2-1-0.4-1.5-0.6
		c-0.2-0.1-0.5-0.2-0.7-0.4c-0.1-0.1-0.2-0.1-0.4-0.2c-0.1-0.1-0.2-0.1-0.3-0.2c-0.9-0.6-1.7-1.2-2.4-1.9c-0.7-0.7-1.3-1.4-1.8-2.1
		c-0.4-0.5-0.7-1.1-1-1.7c-0.3-0.6-0.5-1.3-0.6-1.8c-0.1-0.5-0.2-0.9-0.2-1c0-0.1,0.1,0.1,0.2,0.7c-0.3-0.9-0.4-1.7-0.4-2.3
		c0-0.7,0-1.3,0-1.8c0-0.3,0.1-0.5,0.1-0.7c0-0.2,0.1-0.5,0.1-0.7c0-0.2,0.1-0.4,0.1-0.7c0-0.1,0-0.2,0-0.3c0-0.1,0-0.2,0-0.3
		c0-0.1,0-0.5-0.1-0.6c-0.1,0-0.1,0-0.3,0.3c-0.1,0.1-0.2,0.3-0.3,0.5c-0.1,0.1-0.1,0.3-0.2,0.4c0,0.2-0.1,0.3-0.2,0.5
		c-0.1,0.6-0.3,1.3-0.3,2.1c-0.1,0.8,0,1.7,0.1,2.5c0.1,0.9,0.3,1.7,0.5,2.5c0.3,0.8,0.6,1.5,0.9,2c0.8,1.4,1.7,2.6,2.8,3.7
		c0.6,0.5,1.1,1,1.8,1.4c0.2,0.1,0.3,0.2,0.5,0.3l0.5,0.3l0.5,0.3c0.2,0.1,0.3,0.2,0.5,0.2c0.7,0.3,1.4,0.6,2.1,0.8
		c0.7,0.2,1.5,0.3,2.2,0.4c0.7,0.1,1.5,0.1,2.3,0c0.8-0.1,1.5-0.2,2.3-0.4c3-0.8,5.8-2.7,7.6-5.3c0,0,0,0,0,0
		c-0.1-0.4-0.2-0.8-0.3-1.2C85.8,62,85.8,62.1,85.7,62.2z"/>
	<path fill="#9C2D67" d="M71.4,43.1c-0.1,0.1-0.2,0.1-0.3,0.1c0.1,0,0.3-0.1,0.4-0.1c0,0,0-0.1,0.2-0.1c0.1,0,0.3-0.1,0.4-0.1
		c0,0,0,0-0.1,0c-0.1,0-0.1,0.1-0.2,0.1C71.6,43,71.5,43.1,71.4,43.1z"/>
	<path fill="#9C2D67" d="M71.5,43.1L71.5,43.1c0.2,0,0.5-0.1,0.7-0.1c0,0,0,0,0,0C71.9,43,71.7,43.1,71.5,43.1z"/>
	<path fill="#9C2D67" d="M75.1,42.6C75.1,42.6,75.1,42.6,75.1,42.6l0.1,0.1L75.1,42.6z"/>
	<path fill="#9C2D67" d="M75.2,42.6L75.2,42.6C75.2,42.7,75.2,42.7,75.2,42.6l0.1,0.1L75.2,42.6z"/>
	<path fill="#9C2D67" d="M75.3,42.7L75.3,42.7L75.3,42.7L75.3,42.7C75.3,42.7,75.3,42.7,75.3,42.7z"/>
	<path fill="#9C2D67" d="M73.6,42.6C73.6,42.6,73.6,42.6,73.6,42.6c-0.1,0-0.2,0-0.2,0c0,0,0,0,0.1,0C73.5,42.6,73.6,42.6,73.6,42.6
		z"/>
	<path fill="#9C2D67" d="M73.6,42.6L73.6,42.6c0,0-0.1,0-0.1,0l0,0C73.5,42.6,73.6,42.6,73.6,42.6z"/>
	<path fill="#9C2D67" d="M73.5,42.7c0.1,0,0.1,0.1,0.1,0.1c0.1,0,0.1,0,0.2,0c-0.1,0-0.1-0.1-0.2-0.1C73.6,42.7,73.6,42.7,73.5,42.7
		z"/>
	<path fill="#9C2D67" d="M87.5,57.9c-0.1,0.7-0.4,1.4-0.6,2c0,0,0,0.1,0,0.1c0,0.3,0.1,0.6,0.1,0.9c0,0.2,0.1,0.4,0.1,0.6
		c0.4-0.9,0.8-1.7,1-2.6c-0.1-0.2-0.2-0.4-0.3-0.6C87.6,58.2,87.5,58,87.5,57.9z"/>
	<path fill="#9C2D67" d="M80.9,43.7l-0.3-0.2c-0.1,0-0.2-0.1-0.3-0.1l-0.3-0.1l-0.3-0.1c0.1,0.1,0.2,0.1,0.3,0.1
		c0.1,0,0.1,0,0.2,0.1c0.2,0.1,0.3,0.1,0.5,0.2c-0.2-0.1-0.3-0.1-0.5-0.2c0.1,0.1,0.3,0.1,0.4,0.2C80.6,43.6,80.8,43.7,80.9,43.7z"
		/>
	<path fill-rule="evenodd" clip-rule="evenodd" fill="#C0A1CC" d="M92.2,55.5c-0.4,5.4,3.6,10.1,9,10.5c5.4,0.4,10.1-3.6,10.5-9
		c0.4-5.4-3.6-10.1-9-10.5C97.3,46.1,92.6,50.1,92.2,55.5z"/>
	<g>
		<g opacity="0.85">
			<path fill="#71438A" d="M93.3,50.4c0.1-0.1,0.1-0.2,0.2-0.3l0.2-0.3c-0.1,0.1-0.1,0.2-0.2,0.3C93.5,50.2,93.4,50.3,93.3,50.4z"/>
			<path fill="#71438A" d="M94.1,49.3C94.2,49.3,94.2,49.3,94.1,49.3c0.1-0.1,0.1-0.1,0.1-0.2C94.2,49.2,94.2,49.3,94.1,49.3z"/>
			<path fill="#71438A" d="M95,48.5c-0.2,0.1-0.3,0.3-0.4,0.4C94.6,48.8,94.8,48.6,95,48.5z"/>
			<path fill="#71438A" d="M94.3,49.2C94.4,49.1,94.4,49.1,94.3,49.2L94.3,49.2c0-0.1,0.1-0.2,0.2-0.3C94.4,49,94.4,49.1,94.3,49.2z
				"/>
			<path fill="#71438A" d="M94.3,49.2c0,0.1-0.1,0.1-0.1,0.2C94.2,49.3,94.3,49.2,94.3,49.2z"/>
			<path fill="#71438A" d="M94.7,49.2c0.1-0.1,0-0.1,0.2-0.3c0.4-0.4,0.8-0.6,1.2-0.9c0,0,0.1-0.1,0.2-0.1c0.1,0,0.1-0.1,0.2-0.1
				c0.1-0.1,0.2-0.2,0.3-0.2c0.1-0.1,0.3-0.2,0.5-0.2c0.2-0.1,0.4-0.2,0.5-0.2c0.3-0.1,0.4-0.1,0.1,0c-0.1,0-0.1,0.1-0.2,0.1
				c-0.1,0-0.1,0.1-0.2,0.1c-0.1,0.1-0.2,0.1-0.4,0.2c-0.1,0.1-0.2,0.1-0.3,0.2c-0.1,0.1-0.2,0.1-0.3,0.2c-0.1,0.1-0.2,0.1-0.3,0.2
				c-0.1,0.1-0.2,0.1-0.3,0.2c-0.1,0.1-0.2,0.2-0.3,0.2c-0.1,0.1-0.2,0.2-0.3,0.3C95.1,48.8,95,48.9,95,49
				C94.9,49,94.8,49.1,94.7,49.2c-0.2,0.2-0.3,0.3-0.5,0.5c-0.3,0.3-0.6,0.7-0.8,1c-0.1,0.2-0.3,0.4-0.4,0.6c0-0.1,0.1-0.1,0.1-0.2
				c0-0.1,0.1-0.1,0.1-0.2c0-0.1,0.1-0.1,0.1-0.2c0-0.1,0.1-0.1,0.1-0.2C93.8,50.1,94.2,49.7,94.7,49.2z"/>
			<path fill="#71438A" d="M91.6,55c0-0.1,0.1-0.3,0.1-0.3c0-0.5,0.2-1.1,0.4-1.6c0,0.1,0,0.2,0,0.2c0,0.1-0.1,0.2-0.1,0.2
				c0,0,0,0,0-0.2c-0.1,0.6-0.2,1.2-0.3,1.8C91.7,55.1,91.6,55.1,91.6,55z"/>
			<path fill="#71438A" d="M91.6,55.5c0-0.1,0-0.2,0-0.4l0,0C91.7,55.3,91.6,55.4,91.6,55.5C91.6,55.5,91.6,55.5,91.6,55.5z"/>
			<path fill="#71438A" d="M97,47.1c1.4-0.8,2.8-1.2,4.2-1.3c0.1,0,0.2,0,0.3,0c0.1,0,0.2,0,0.3,0c0.1,0,0.2,0,0.3,0
				c0.1,0,0.2,0,0.3,0c0.1,0,0.1,0,0.2,0h0c0.1,0,0.1,0,0,0c-0.1,0-0.2,0-0.2,0c0,0,0.1,0,0.2,0c0.1,0,0.2,0,0.3,0
				c0.2,0,0.4,0,0.6,0.1c-0.2,0-0.4-0.1-0.6-0.1c-0.1,0-0.2,0-0.4,0c0,0-0.1,0-0.1,0c0.2,0,0.5,0,0.7,0c0.1,0,0.2,0,0.4,0l0.4,0.1
				c0.1,0,0.2,0,0.3,0.1c0.3,0.1,0.7,0.2,0.9,0.2c0.1,0,0.2,0,0.2,0.1c0,0,0,0,0,0c0,0,0.1,0,0.1,0c0.1,0,0.2,0.1,0.3,0.1l0.3,0.1
				c0.1,0,0.2,0.1,0.2,0.1l0.3,0.1c0.2,0.1,0.4,0.2,0.6,0.3c0,0,0,0,0.1,0c0,0,0.1,0,0.1,0c0.1,0.1,0.2,0.1,0.3,0.2
				c-0.2-0.1-0.4-0.1-0.5-0.2c-0.1,0-0.2-0.1-0.3-0.2c-0.1,0-0.1-0.1-0.2-0.1c-0.1,0-0.1-0.1-0.2-0.1c0.1,0,0.1,0,0.2,0.1
				c0.1,0,0.1,0.1,0.2,0.1c0.1,0.1,0.2,0.2,0.3,0.2c0.2,0.1,0.3,0.1,0.5,0.2c0.3,0.2,0.7,0.4,1,0.6c-0.3-0.3-0.7-0.5-1-0.6
				c-0.1-0.1-0.3-0.2-0.3-0.2c0,0-0.1,0-0.1,0c0,0-0.1,0-0.1,0c-0.2-0.1-0.4-0.2-0.6-0.3c0.6,0.3,1.3,0.6,1.9,1
				c0.5,0.3,0.9,0.7,1.4,1.1c0.4,0.4,0.8,0.8,1.1,1.3c0.7,0.9,1.2,1.9,1.6,3c0.7,2.2,0.8,4.6,0,6.9c-0.8,2.5-2.6,4.6-4.7,5.9
				c-0.5,0.3-1.1,0.6-1.7,0.8c-0.6,0.2-1.2,0.4-1.8,0.5c-0.6,0.1-1.2,0.2-1.8,0.2c-0.6,0-1.2,0-1.8-0.1c-0.2,0-0.3,0-0.4-0.1
				l-0.4-0.1L99.3,67c-0.1,0-0.3-0.1-0.4-0.1c-0.6-0.2-1.2-0.4-1.7-0.7c-1.1-0.6-2.1-1.3-3.1-2.2c-0.4-0.4-0.7-0.8-1.1-1.4
				c-0.4-0.5-0.7-1.2-1-1.8c-0.3-0.7-0.5-1.3-0.6-2c-0.1-0.6-0.2-1.2-0.2-1.7c0-0.2,0-0.3,0-0.4c0-0.1,0-0.2,0-0.4
				c0-0.2,0.1-0.4,0.1-0.5c0.1-0.2,0.1-0.3,0.2-0.3c0.1,0,0.2,0.4,0.2,0.4c0,0.1,0,0.2,0.1,0.3c0,0.1,0,0.2,0,0.3
				c0,0.2,0.1,0.4,0.1,0.5c0,0.2,0.1,0.4,0.1,0.6c0,0.2,0.1,0.4,0.1,0.6c0.1,0.4,0.2,0.9,0.4,1.4c0.2,0.5,0.4,1.1,0.8,1.7
				c-0.3-0.4-0.3-0.6-0.3-0.5c0,0.1,0.1,0.4,0.4,0.8c0.2,0.4,0.5,0.9,0.9,1.3c0.4,0.4,0.8,0.8,1.2,1.1c0.6,0.4,1.2,0.8,1.9,1.2
				c0.7,0.4,1.5,0.7,2.3,0.9c0.1,0,0.2,0.1,0.3,0.1c0.1,0,0.2,0,0.3,0.1c0.2,0.1,0.4,0.1,0.7,0.1c0.4,0.1,0.9,0.1,1.3,0.1
				c0.4,0,0.9,0,1.3-0.1c0.1,0,0.2,0,0.3-0.1l0.2,0l0.2,0c0.1,0,0.2,0,0.3-0.1c0.1,0,0.2-0.1,0.3-0.1c0.2-0.1,0.4-0.1,0.6-0.2
				c0.1,0,0.2-0.1,0.3-0.1c0.1,0,0.2-0.1,0.3-0.1c0.1,0,0.2-0.1,0.3-0.1c0.1-0.1,0.2-0.1,0.3-0.2c0.1,0,0.1-0.1,0.2-0.1
				c0.1,0,0.1-0.1,0.2-0.1c0.1-0.1,0.2-0.1,0.3-0.2c2.2-1.4,3.9-3.5,4.6-5.9c0.4-1.2,0.5-2.5,0.4-3.8c-0.1-1.3-0.5-2.6-1.1-3.8
				c-0.7-1.3-1.5-2.3-2.4-3.1c-0.7-0.6-1.5-1.1-2.2-1.4c-0.5-0.2-1-0.4-1.5-0.6c-0.5-0.1-1-0.3-1.4-0.3c1.1,0.2,1.8,0.4,2.9,0.9
				c0.4,0.2,0.2,0.1,0-0.1c-0.1-0.1-0.3-0.2-0.5-0.3c-0.2-0.1-0.3-0.2-0.5-0.2c-0.1,0-0.3-0.1-0.4-0.1c-0.1,0-0.3,0-0.4-0.1
				c-0.1,0-0.1,0-0.2,0c-0.1,0-0.1,0-0.2,0c-0.1,0-0.2-0.1-0.4-0.1c-0.2,0-0.5-0.1-0.7-0.1c-0.2,0-0.2,0-0.3,0
				c-0.7-0.1-1.3-0.2-1.7-0.1c-0.2,0-0.3,0-0.5,0.1c-0.2,0-0.3,0.1-0.5,0.1c-0.2,0-0.4,0.1-0.6,0.1c-0.1,0-0.3,0-0.4,0.1
				c0.1-0.1,0.1-0.1,0.1-0.1c-0.1,0-0.2,0.1-0.3,0.1c-0.1,0-0.2,0.1-0.3,0.1c0.1,0,0.2-0.1,0.3-0.1c0.1,0,0.2-0.1,0.3-0.1
				c0,0-0.1,0.1-0.1,0.1c-0.1,0-0.2,0.1-0.4,0.1c-0.1,0-0.2,0.1-0.4,0.1c-0.1,0-0.2,0.1-0.4,0.1c-0.1,0-0.2,0.1-0.4,0.1
				c-0.5,0.2-1,0.4-1.4,0.7c0,0,0,0,0,0c0.5-0.3,1-0.6,1.6-0.9c-0.1,0.1-0.2,0.1-0.2,0.1c0,0,0.1,0,0.2-0.1c0.1,0,0.1-0.1,0.2-0.1
				c-0.5,0.2-1,0.4-1.4,0.7c0,0-0.2,0.1-0.3,0.2c-0.1,0.1-0.1,0.1-0.1,0.2c-0.1,0.1-0.2,0.1-0.3,0.2c0-0.1,0.1-0.1,0.2-0.2
				c0.1-0.1,0.2-0.2,0.3-0.2c0.1-0.1,0.2-0.1,0.2-0.2C97,47.1,97,47.1,97,47.1z"/>
			<path fill="#71438A" d="M103.1,45.8c-0.1,0-0.2,0-0.3,0L103.1,45.8l0.3,0c0.1,0,0.2,0,0.3,0l0.3,0c-0.1,0-0.2,0-0.4,0
				C103.4,45.8,103.2,45.8,103.1,45.8z"/>
		</g>
	</g>
	<path fill-rule="evenodd" clip-rule="evenodd" fill="#A3DDF5" d="M113.9,67c0.3,4.6,4.2,8.2,8.9,7.9c4.6-0.3,8.2-4.2,7.9-8.9
		c-0.3-4.6-4.2-8.2-8.9-7.9C117.1,58.4,113.6,62.4,113.9,67z"/>
	<g>
		<g opacity="0.85">
			<path fill="#4C8496" d="M114.3,62.5c0-0.1,0.1-0.2,0.1-0.3l0.1-0.3c0,0.1-0.1,0.2-0.1,0.3C114.4,62.4,114.3,62.5,114.3,62.5z"/>
			<path fill="#4C8496" d="M114.8,61.6C114.9,61.5,114.9,61.5,114.8,61.6c0.1-0.1,0.1-0.1,0.1-0.2C114.9,61.5,114.9,61.5,114.8,61.6
				z"/>
			<path fill="#4C8496" d="M115.5,60.8c-0.1,0.1-0.2,0.3-0.3,0.4C115.2,61.1,115.3,60.9,115.5,60.8z"/>
			<path fill="#4C8496" d="M115,61.4C115,61.4,115,61.3,115,61.4L115,61.4c0-0.1,0.1-0.2,0.2-0.2C115.1,61.3,115,61.3,115,61.4z"/>
			<path fill="#4C8496" d="M115,61.4c0,0.1-0.1,0.1-0.1,0.2C114.9,61.5,114.9,61.5,115,61.4z"/>
			<path fill="#4C8496" d="M115.3,61.4c0.1-0.1,0-0.1,0.1-0.2c0.3-0.4,0.6-0.6,0.9-0.9c0,0,0.1-0.1,0.1-0.1c0,0,0.1-0.1,0.1-0.1
				c0.1-0.1,0.2-0.2,0.2-0.2c0.1-0.1,0.2-0.2,0.4-0.3c0.1-0.1,0.3-0.2,0.4-0.2c0.2-0.1,0.3-0.2,0.1,0c-0.1,0-0.1,0.1-0.2,0.1
				c0,0-0.1,0.1-0.1,0.1c-0.1,0.1-0.2,0.1-0.3,0.2c-0.1,0.1-0.2,0.1-0.3,0.2c-0.1,0.1-0.2,0.1-0.2,0.2c-0.1,0.1-0.2,0.1-0.2,0.2
				c-0.1,0.1-0.2,0.1-0.2,0.2c-0.1,0.1-0.1,0.2-0.2,0.2c-0.1,0.1-0.1,0.2-0.2,0.3c-0.1,0.1-0.1,0.1-0.2,0.2
				C115.4,61.2,115.4,61.3,115.3,61.4c-0.1,0.2-0.2,0.3-0.3,0.5c-0.2,0.3-0.4,0.6-0.6,1c-0.1,0.2-0.2,0.4-0.2,0.6
				c0-0.1,0-0.1,0.1-0.2c0-0.1,0.1-0.1,0.1-0.2c0-0.1,0.1-0.1,0.1-0.2c0-0.1,0.1-0.1,0.1-0.2C114.6,62.2,115,61.9,115.3,61.4z"/>
			<path fill="#4C8496" d="M113.4,66.7c0-0.1,0-0.3,0-0.3c0-0.5,0-0.9,0.1-1.4c0,0.1,0,0.1,0,0.2c0,0.1,0,0.2-0.1,0.2c0,0,0,0,0-0.2
				c0,0.5-0.1,1.1-0.1,1.6C113.4,66.8,113.4,66.8,113.4,66.7z"/>
			<path fill="#4C8496" d="M113.4,67.1c0-0.1,0-0.2,0-0.3l0,0C113.4,66.9,113.4,67,113.4,67.1C113.4,67.1,113.4,67.1,113.4,67.1z"/>
			<path fill="#4C8496" d="M117,59.3c1.1-0.8,2.2-1.3,3.4-1.6c0.1,0,0.2,0,0.3,0c0.1,0,0.2-0.1,0.3-0.1c0.1,0,0.2,0,0.3,0
				c0.1,0,0.2,0,0.3,0c0.1,0,0.1,0,0.2,0h0c0.1,0,0.1,0,0,0c-0.1,0-0.1,0-0.2,0c0,0,0.1,0,0.2,0c0.1,0,0.2,0,0.3,0
				c0.2,0,0.3,0,0.5,0c-0.2,0-0.4,0-0.5,0c-0.1,0-0.2,0-0.3,0c0,0-0.1,0-0.1,0c0.2,0,0.4,0,0.6,0c0.1,0,0.2,0,0.3,0l0.3,0
				c0.1,0,0.2,0,0.3,0c0.3,0,0.6,0.1,0.8,0.1c0.1,0,0.1,0,0.2,0c0,0,0,0,0,0c0,0,0,0,0.1,0c0.1,0,0.2,0,0.2,0l0.2,0.1
				c0.1,0,0.2,0,0.2,0.1l0.2,0.1c0.2,0.1,0.4,0.1,0.6,0.2c0,0,0,0,0.1,0c0,0,0.1,0,0.1,0c0.1,0,0.2,0.1,0.3,0.2
				c-0.2,0-0.3-0.1-0.4-0.1c-0.1,0-0.2-0.1-0.3-0.1c-0.1,0-0.1,0-0.2-0.1c-0.1,0-0.1,0-0.2,0c0.1,0,0.1,0,0.2,0c0.1,0,0.1,0,0.2,0.1
				c0.1,0.1,0.2,0.1,0.3,0.1c0.1,0,0.3,0.1,0.4,0.1c0.3,0.1,0.6,0.3,0.9,0.4c-0.3-0.2-0.6-0.3-0.9-0.4c-0.1-0.1-0.2-0.1-0.3-0.2
				c0,0-0.1,0-0.1,0c0,0-0.1,0-0.1,0c-0.2-0.1-0.4-0.2-0.6-0.2c0.6,0.2,1.2,0.4,1.7,0.7c0.5,0.2,0.9,0.5,1.3,0.8
				c0.4,0.3,0.8,0.6,1.1,1c0.7,0.7,1.3,1.5,1.7,2.4c0.9,1.8,1.2,3.8,0.8,5.9c-0.4,2.2-1.7,4.2-3.3,5.6c-0.4,0.3-0.9,0.6-1.3,0.9
				c-0.5,0.3-1,0.5-1.5,0.6c-0.5,0.2-1,0.3-1.5,0.4c-0.5,0.1-1,0.1-1.6,0.1c-0.1,0-0.3,0-0.4,0l-0.4,0l-0.4,0c-0.1,0-0.3,0-0.4-0.1
				c-0.5-0.1-1-0.2-1.5-0.4c-1-0.3-2-0.9-2.9-1.5c-0.3-0.3-0.7-0.6-1.1-1c-0.4-0.4-0.7-0.9-1.1-1.4s-0.6-1.1-0.8-1.6
				c-0.2-0.5-0.3-1-0.4-1.4c0-0.1,0-0.3,0-0.4c0-0.1,0-0.2,0-0.3c0-0.2,0-0.3,0-0.4c0-0.2,0.1-0.3,0.1-0.3c0.1,0,0.2,0.3,0.2,0.4
				c0,0.1,0,0.2,0.1,0.2c0,0.1,0,0.1,0.1,0.2c0,0.2,0.1,0.3,0.1,0.5c0,0.2,0.1,0.3,0.1,0.5c0.1,0.2,0.1,0.3,0.2,0.5
				c0.1,0.3,0.3,0.7,0.5,1.1c0.2,0.4,0.5,0.9,0.9,1.4c-0.3-0.3-0.4-0.5-0.3-0.4c0,0.1,0.2,0.3,0.4,0.6c0.2,0.3,0.6,0.7,0.9,1
				c0.4,0.3,0.8,0.6,1.1,0.8c0.5,0.3,1.1,0.6,1.8,0.8c0.6,0.2,1.4,0.4,2.1,0.5c0.1,0,0.2,0,0.3,0c0.1,0,0.2,0,0.3,0
				c0.2,0,0.4,0,0.6,0c0.4,0,0.8,0,1.1-0.1c0.4,0,0.8-0.1,1.1-0.2c0.1,0,0.2-0.1,0.3-0.1l0.1,0l0.1,0c0.1,0,0.2-0.1,0.3-0.1
				c0.1,0,0.2-0.1,0.2-0.1c0.2-0.1,0.3-0.2,0.5-0.2c0.1,0,0.2-0.1,0.2-0.1c0.1,0,0.2-0.1,0.3-0.1c0.1,0,0.2-0.1,0.3-0.1
				c0.1-0.1,0.2-0.1,0.3-0.2c0,0,0.1-0.1,0.1-0.1c0,0,0.1-0.1,0.1-0.1c0.1-0.1,0.2-0.1,0.3-0.2c1.7-1.4,2.9-3.4,3.2-5.5
				c0.2-1.1,0.1-2.2-0.1-3.3c-0.2-1.1-0.7-2.2-1.4-3.1c-0.7-1-1.5-1.8-2.4-2.4c-0.7-0.4-1.4-0.7-2-0.9c-0.5-0.1-0.9-0.2-1.4-0.3
				c-0.4-0.1-0.9-0.1-1.3-0.1c0.9,0,1.6,0.1,2.6,0.4c0.3,0.1,0.2,0,0-0.1c-0.1,0-0.3-0.1-0.4-0.2c-0.2,0-0.3-0.1-0.4-0.1
				c-0.1,0-0.2,0-0.3,0c-0.1,0-0.3,0-0.4,0c-0.1,0-0.1,0-0.2,0c-0.1,0-0.1,0-0.2,0c-0.1,0-0.2,0-0.3,0c-0.2,0-0.4,0-0.6,0
				c-0.2,0-0.2,0.1-0.3,0.1c-0.6,0-1.1,0-1.5,0.1c-0.1,0-0.3,0.1-0.4,0.1c-0.1,0-0.3,0.1-0.4,0.1c-0.2,0.1-0.3,0.1-0.5,0.2
				c-0.1,0-0.2,0.1-0.3,0.1c0.1-0.1,0.1-0.1,0.1-0.1c-0.1,0-0.2,0.1-0.2,0.1c-0.1,0-0.2,0.1-0.2,0.1c0.1,0,0.2-0.1,0.2-0.1
				c0.1,0,0.2-0.1,0.2-0.1c0,0,0,0.1-0.1,0.1c-0.1,0-0.2,0.1-0.3,0.1c-0.1,0-0.2,0.1-0.3,0.1c-0.1,0-0.2,0.1-0.3,0.2
				c-0.1,0.1-0.2,0.1-0.3,0.2c-0.4,0.2-0.8,0.5-1.1,0.8l0,0c0.4-0.3,0.8-0.6,1.2-1c-0.1,0.1-0.1,0.1-0.1,0.1c0,0,0.1,0,0.2-0.1
				c0.1,0,0.1-0.1,0.2-0.1c-0.4,0.2-0.8,0.5-1.1,0.8c0,0-0.2,0.1-0.2,0.2c-0.1,0.1-0.1,0.1-0.1,0.2c-0.1,0.1-0.2,0.1-0.2,0.2
				c0,0,0.1-0.1,0.2-0.2c0.1-0.1,0.1-0.2,0.2-0.2C116.8,59.5,116.9,59.5,117,59.3C117,59.4,117,59.3,117,59.3z"/>
			<path fill="#4C8496" d="M122,57.5c-0.1,0-0.2,0-0.2,0L122,57.5l0.3,0c0.1,0,0.2,0,0.3,0l0.3,0c-0.1,0-0.2,0-0.3,0
				C122.3,57.5,122.2,57.5,122,57.5z"/>
		</g>
	</g>
	<path fill-rule="evenodd" clip-rule="evenodd" fill="#E5DC6E" d="M128.4,79.6c-1.2,3.2,0.4,6.9,3.7,8.1c3.2,1.2,6.9-0.4,8.1-3.6
		c1.2-3.2-0.4-6.9-3.6-8.1C133.2,74.8,129.6,76.4,128.4,79.6z"/>
	<g>
		<g opacity="0.85">
			<path fill="#8C843F" d="M130,76.7c0.1,0,0.1-0.1,0.2-0.1l0.2-0.1c-0.1,0-0.1,0.1-0.2,0.1C130.1,76.6,130.1,76.7,130,76.7z"/>
			<path fill="#8C843F" d="M130.7,76.2C130.7,76.2,130.7,76.2,130.7,76.2c0.1-0.1,0.1-0.1,0.1-0.1C130.8,76.1,130.7,76.2,130.7,76.2
				z"/>
			<path fill="#8C843F" d="M131.3,75.8c-0.1,0.1-0.2,0.1-0.3,0.2C131.1,76,131.2,75.9,131.3,75.8z"/>
			<path fill="#8C843F" d="M130.8,76.1C130.9,76.1,130.9,76.1,130.8,76.1L130.8,76.1c0-0.1,0.1-0.1,0.2-0.1
				C130.9,76.1,130.9,76.1,130.8,76.1z"/>
			<path fill="#8C843F" d="M130.8,76.1c0,0-0.1,0.1-0.1,0.1C130.7,76.2,130.8,76.2,130.8,76.1z"/>
			<path fill="#8C843F" d="M131.1,76.2c0.1,0,0-0.1,0.2-0.1c0.3-0.1,0.6-0.2,0.9-0.4c0,0,0.1,0,0.1,0c0,0,0.1,0,0.1-0.1
				c0.1,0,0.2-0.1,0.2-0.1c0.1,0,0.2,0,0.3-0.1c0.1,0,0.2,0,0.3,0c0.2,0,0.3,0,0,0c-0.1,0-0.1,0-0.1,0c0,0-0.1,0-0.1,0
				c-0.1,0-0.2,0-0.3,0.1c-0.1,0-0.2,0-0.2,0.1c-0.1,0-0.2,0-0.2,0.1c-0.1,0-0.1,0-0.2,0.1c-0.1,0-0.1,0-0.2,0.1
				c-0.1,0-0.1,0.1-0.2,0.1c-0.1,0-0.1,0.1-0.2,0.1c-0.1,0-0.1,0.1-0.2,0.1C131.2,76.2,131.1,76.2,131.1,76.2
				c-0.1,0.1-0.3,0.1-0.4,0.2c-0.2,0.1-0.5,0.3-0.7,0.5c-0.1,0.1-0.2,0.2-0.3,0.3c0,0,0.1-0.1,0.1-0.1c0,0,0.1-0.1,0.1-0.1
				c0,0,0.1-0.1,0.1-0.1c0,0,0.1-0.1,0.1-0.1C130.3,76.6,130.7,76.4,131.1,76.2z"/>
			<path fill="#8C843F" d="M128.1,79.2c0-0.1,0.1-0.2,0.1-0.2c0.1-0.3,0.3-0.6,0.5-0.9c0,0,0,0.1-0.1,0.1c-0.1,0.1-0.1,0.1-0.1,0.1
				c0,0,0,0,0.1-0.1c-0.2,0.4-0.4,0.7-0.5,1.1C128.1,79.3,128.1,79.3,128.1,79.2z"/>
			<path fill="#8C843F" d="M128,79.6c0-0.1,0.1-0.1,0.1-0.2v0C128.1,79.4,128,79.5,128,79.6L128,79.6z"/>
			<path fill="#8C843F" d="M132.8,75.3c1-0.2,1.9-0.2,2.8-0.1c0.1,0,0.1,0,0.2,0.1c0.1,0,0.1,0,0.2,0c0.1,0,0.1,0,0.2,0.1
				c0.1,0,0.1,0,0.2,0.1c0,0,0.1,0,0.1,0.1l0,0c0.1,0,0,0,0,0c-0.1,0-0.1,0-0.1,0c0,0,0.1,0,0.1,0c0.1,0,0.1,0,0.2,0.1
				c0.1,0,0.2,0.1,0.4,0.1c-0.1-0.1-0.2-0.1-0.4-0.1c-0.1,0-0.1-0.1-0.2-0.1c0,0,0,0-0.1,0c0.1,0.1,0.3,0.1,0.4,0.2
				c0.1,0,0.1,0.1,0.2,0.1l0.2,0.1c0.1,0,0.1,0.1,0.2,0.1c0.2,0.1,0.4,0.2,0.5,0.3c0,0,0.1,0.1,0.1,0.1c0,0,0,0,0,0c0,0,0,0,0.1,0
				c0,0,0.1,0.1,0.1,0.1l0.1,0.1c0,0,0.1,0.1,0.1,0.1l0.1,0.1c0.1,0.1,0.2,0.2,0.3,0.3c0,0,0,0,0.1,0c0,0,0.1,0,0.1,0.1
				c0,0.1,0.1,0.1,0.2,0.2c-0.1-0.1-0.2-0.1-0.3-0.2c-0.1,0-0.1-0.1-0.2-0.2c0,0-0.1-0.1-0.1-0.1c0,0-0.1-0.1-0.1-0.1
				c0,0,0.1,0,0.1,0.1c0,0,0.1,0.1,0.1,0.1c0.1,0.1,0.1,0.1,0.2,0.2c0.1,0.1,0.2,0.1,0.3,0.2c0.1,0.2,0.3,0.4,0.5,0.5
				c-0.2-0.2-0.3-0.4-0.5-0.5c-0.1-0.1-0.1-0.1-0.2-0.2c0,0-0.1,0-0.1-0.1c0,0-0.1,0-0.1,0c-0.1-0.1-0.2-0.2-0.3-0.3
				c0.4,0.3,0.7,0.6,1,1c0.2,0.3,0.5,0.6,0.6,0.9c0.2,0.3,0.3,0.7,0.5,1c0.3,0.7,0.4,1.4,0.4,2.1c0.1,1.5-0.4,3-1.3,4.3
				c-1,1.4-2.4,2.4-4,2.8c-0.4,0.1-0.8,0.2-1.2,0.2c-0.4,0-0.8,0-1.2,0c-0.4,0-0.8-0.1-1.2-0.2c-0.4-0.1-0.7-0.2-1.1-0.4
				c-0.1,0-0.2-0.1-0.3-0.1l-0.3-0.1l-0.3-0.2c-0.1,0-0.2-0.1-0.2-0.2c-0.3-0.2-0.6-0.5-0.9-0.7c-0.6-0.5-1.1-1.2-1.5-1.9
				c-0.2-0.3-0.3-0.6-0.4-1c-0.1-0.4-0.2-0.8-0.3-1.3c-0.1-0.5-0.1-0.9,0-1.3c0-0.4,0.1-0.8,0.2-1.1c0-0.1,0.1-0.2,0.1-0.3
				c0-0.1,0.1-0.2,0.1-0.2c0-0.1,0.1-0.2,0.1-0.3c0.1-0.1,0.1-0.2,0.2-0.1c0.1,0,0,0.3,0,0.3c0,0.1,0,0.1,0,0.2c0,0.1,0,0.1,0,0.2
				c0,0.1,0,0.2,0,0.3c0,0.1,0,0.2-0.1,0.4c0,0.1,0,0.3,0,0.4c0,0.3,0,0.6,0,0.9c0,0.4,0.1,0.8,0.2,1.2c-0.1-0.3-0.1-0.4-0.1-0.4
				c0,0.1,0,0.3,0.1,0.5c0.1,0.3,0.2,0.6,0.3,1c0.1,0.3,0.3,0.7,0.5,0.9c0.3,0.4,0.6,0.7,1,1.1c0.4,0.4,0.8,0.7,1.3,1
				c0.1,0,0.1,0.1,0.2,0.1c0.1,0,0.1,0.1,0.2,0.1c0.1,0.1,0.3,0.1,0.4,0.2c0.3,0.1,0.5,0.2,0.8,0.3c0.3,0.1,0.5,0.1,0.8,0.2
				c0.1,0,0.1,0,0.2,0l0.1,0l0.1,0c0.1,0,0.1,0,0.2,0c0.1,0,0.1,0,0.2,0c0.1,0,0.3,0,0.4,0c0.1,0,0.1,0,0.2,0c0.1,0,0.1,0,0.2,0
				c0.1,0,0.1,0,0.2,0c0.1,0,0.1,0,0.2,0c0,0,0.1,0,0.1,0c0,0,0.1,0,0.1,0c0.1,0,0.2,0,0.2-0.1c1.6-0.4,3-1.4,3.9-2.8
				c0.4-0.7,0.8-1.5,0.9-2.3c0.2-0.8,0.2-1.7,0-2.6c-0.2-0.9-0.5-1.7-0.9-2.4c-0.3-0.5-0.8-0.9-1.1-1.2c-0.3-0.2-0.6-0.5-0.8-0.6
				c-0.3-0.2-0.5-0.3-0.8-0.5c0.6,0.3,1.1,0.6,1.6,1.1c0.2,0.2,0.1,0.1,0,0c-0.1-0.1-0.2-0.2-0.2-0.2c-0.1-0.1-0.2-0.2-0.3-0.2
				c-0.1,0-0.1-0.1-0.2-0.1c-0.1,0-0.2-0.1-0.2-0.1c0,0-0.1,0-0.1-0.1c0,0-0.1,0-0.1-0.1c-0.1,0-0.1-0.1-0.2-0.1
				c-0.1-0.1-0.3-0.1-0.4-0.2c-0.1-0.1-0.1,0-0.2,0c-0.4-0.2-0.8-0.3-1.1-0.4c-0.1,0-0.2,0-0.3,0c-0.1,0-0.2,0-0.3,0
				c-0.1,0-0.2,0-0.4,0c-0.1,0-0.2,0-0.3,0c0.1,0,0.1,0,0.1-0.1c-0.1,0-0.1,0-0.2,0c-0.1,0-0.1,0-0.2,0c0.1,0,0.1,0,0.2,0
				c0.1,0,0.1,0,0.2,0c0,0-0.1,0-0.1,0.1c-0.1,0-0.2,0-0.2,0c-0.1,0-0.2,0-0.2,0c-0.1,0-0.2,0-0.2,0c-0.1,0-0.2,0-0.2,0
				c-0.3,0-0.7,0.1-1,0.2c0,0,0,0,0,0c0.4-0.1,0.7-0.2,1.1-0.3c-0.1,0-0.1,0-0.1,0c0,0,0.1,0,0.2,0c0.1,0,0.1,0,0.2,0
				C133.4,75.2,133.1,75.3,132.8,75.3c-0.1,0.1-0.2,0.1-0.3,0.1c-0.1,0-0.1,0.1-0.1,0.1c-0.1,0-0.1,0-0.2,0.1c0,0,0.1,0,0.2-0.1
				c0.1,0,0.1-0.1,0.2-0.1C132.7,75.4,132.7,75.4,132.8,75.3C132.8,75.3,132.8,75.3,132.8,75.3z"/>
			<path fill="#8C843F" d="M136.8,75.6c-0.1,0-0.1,0-0.2-0.1L136.8,75.6l0.2,0.1c0.1,0,0.1,0,0.2,0.1l0.2,0.1
				c-0.1,0-0.1-0.1-0.2-0.1C137,75.7,136.9,75.6,136.8,75.6z"/>
		</g>
	</g>
	<path opacity="0.44" fill-rule="evenodd" clip-rule="evenodd" fill="#E8559A" d="M132.3,94.2c-0.9,2.4,0.3,5.1,2.7,6
		c2.4,0.9,5.1-0.3,6-2.7c0.9-2.4-0.3-5.1-2.7-6C135.9,90.6,133.2,91.8,132.3,94.2z"/>
	<g>
		<g opacity="0.85">
			<path fill="#9C2D67" d="M133.6,92c0,0,0.1-0.1,0.1-0.1l0.1-0.1c0,0-0.1,0.1-0.1,0.1C133.6,92,133.6,92,133.6,92z"/>
			<path fill="#9C2D67" d="M134,91.6C134.1,91.6,134.1,91.6,134,91.6C134.1,91.6,134.1,91.6,134,91.6
				C134.1,91.6,134.1,91.6,134,91.6z"/>
			<path fill="#9C2D67" d="M134.5,91.4c-0.1,0-0.2,0.1-0.2,0.1C134.4,91.5,134.4,91.4,134.5,91.4z"/>
			<path fill="#9C2D67" d="M134.1,91.6C134.2,91.6,134.2,91.6,134.1,91.6L134.1,91.6c0,0,0.1-0.1,0.1-0.1
				C134.2,91.5,134.2,91.6,134.1,91.6z"/>
			<path fill="#9C2D67" d="M134.1,91.6C134.1,91.6,134.1,91.7,134.1,91.6C134.1,91.6,134.1,91.6,134.1,91.6z"/>
			<path fill="#9C2D67" d="M134.3,91.7c0.1,0,0-0.1,0.1-0.1c0.2-0.1,0.4-0.2,0.7-0.3c0,0,0.1,0,0.1,0c0,0,0.1,0,0.1,0
				c0.1,0,0.1-0.1,0.2-0.1c0.1,0,0.1,0,0.2,0c0.1,0,0.2,0,0.3,0c0.1,0,0.2,0,0,0c0,0-0.1,0-0.1,0c0,0-0.1,0-0.1,0
				c-0.1,0-0.1,0-0.2,0c-0.1,0-0.1,0-0.2,0c-0.1,0-0.1,0-0.2,0c-0.1,0-0.1,0-0.2,0.1c-0.1,0-0.1,0-0.2,0.1c0,0-0.1,0-0.2,0.1
				c-0.1,0-0.1,0.1-0.2,0.1c0,0-0.1,0-0.1,0.1C134.4,91.6,134.4,91.6,134.3,91.7c-0.1,0.1-0.2,0.1-0.3,0.2c-0.2,0.1-0.3,0.2-0.5,0.4
				c-0.1,0.1-0.2,0.2-0.2,0.2c0,0,0-0.1,0.1-0.1c0,0,0.1-0.1,0.1-0.1c0,0,0.1-0.1,0.1-0.1c0,0,0.1-0.1,0.1-0.1
				C133.8,91.9,134,91.8,134.3,91.7z"/>
			<path fill="#9C2D67" d="M132.2,93.9c0,0,0.1-0.1,0.1-0.1c0.1-0.2,0.2-0.5,0.4-0.7c0,0,0,0.1,0,0.1c0,0.1-0.1,0.1-0.1,0.1
				c0,0,0,0,0-0.1C132.4,93.5,132.3,93.7,132.2,93.9C132.2,94,132.1,94,132.2,93.9z"/>
			<path fill="#9C2D67" d="M132.1,94.1c0-0.1,0.1-0.1,0.1-0.2v0C132.1,94,132.1,94.1,132.1,94.1L132.1,94.1z"/>
			<path fill="#9C2D67" d="M135.6,91c0.7-0.2,1.4-0.2,2.1-0.1c0.1,0,0.1,0,0.1,0c0.1,0,0.1,0,0.2,0c0,0,0.1,0,0.1,0c0,0,0.1,0,0.1,0
				c0,0,0.1,0,0.1,0v0c0.1,0,0,0,0,0c0,0-0.1,0-0.1,0c0,0,0.1,0,0.1,0c0.1,0,0.1,0,0.2,0c0.1,0,0.2,0.1,0.3,0.1
				c-0.1,0-0.2-0.1-0.3-0.1c-0.1,0-0.1,0-0.2-0.1c0,0,0,0,0,0c0.1,0,0.2,0.1,0.3,0.1c0.1,0,0.1,0,0.2,0.1l0.2,0.1c0,0,0.1,0,0.1,0.1
				c0.1,0.1,0.3,0.2,0.4,0.2c0,0,0.1,0,0.1,0.1l0,0c0,0,0,0,0,0c0,0,0.1,0,0.1,0.1l0.1,0.1c0,0,0.1,0,0.1,0.1L140,92
				c0.1,0.1,0.2,0.2,0.2,0.2c0,0,0,0,0,0c0,0,0,0,0.1,0c0,0,0.1,0.1,0.1,0.1c-0.1-0.1-0.1-0.1-0.2-0.2c0,0-0.1-0.1-0.1-0.1
				c0,0,0-0.1-0.1-0.1c0,0-0.1,0-0.1-0.1c0,0,0.1,0,0.1,0.1c0,0,0,0.1,0.1,0.1c0,0,0.1,0.1,0.1,0.1c0.1,0,0.1,0.1,0.2,0.2
				c0.1,0.1,0.2,0.3,0.4,0.4c-0.1-0.2-0.2-0.3-0.4-0.4c0-0.1-0.1-0.1-0.1-0.1c0,0,0,0-0.1,0c0,0,0,0,0,0c-0.1-0.1-0.2-0.2-0.2-0.2
				c0.3,0.2,0.5,0.5,0.7,0.7c0.2,0.2,0.3,0.4,0.5,0.7c0.1,0.2,0.3,0.5,0.3,0.7c0.2,0.5,0.3,1,0.3,1.6c0,1.1-0.3,2.2-0.9,3.2
				c-0.7,1-1.8,1.8-2.9,2.1c-0.3,0.1-0.6,0.1-0.9,0.2c-0.3,0-0.6,0-0.9,0c-0.3,0-0.6-0.1-0.9-0.2s-0.5-0.2-0.8-0.3
				c-0.1,0-0.1-0.1-0.2-0.1l-0.2-0.1l-0.2-0.1c-0.1,0-0.1-0.1-0.2-0.1c-0.2-0.2-0.5-0.3-0.7-0.5c-0.4-0.4-0.8-0.9-1.1-1.4
				c-0.1-0.2-0.2-0.5-0.3-0.8c-0.1-0.3-0.2-0.6-0.2-1c0-0.3-0.1-0.7,0-1c0-0.3,0.1-0.6,0.1-0.8c0-0.1,0-0.1,0.1-0.2
				c0-0.1,0-0.1,0.1-0.2c0-0.1,0.1-0.2,0.1-0.2c0.1-0.1,0.1-0.1,0.1-0.1c0,0,0,0.2,0,0.2c0,0,0,0.1,0,0.1c0,0,0,0.1,0,0.1
				c0,0.1,0,0.2,0,0.3c0,0.1,0,0.2,0,0.3c0,0.1,0,0.2,0,0.3c0,0.2,0,0.4,0,0.7c0,0.3,0.1,0.6,0.2,0.9c-0.1-0.2-0.1-0.3-0.1-0.3
				c0,0,0,0.2,0.1,0.4c0,0.2,0.1,0.5,0.2,0.7c0.1,0.2,0.3,0.5,0.4,0.7c0.2,0.3,0.4,0.5,0.7,0.8c0.3,0.3,0.6,0.5,0.9,0.7
				c0,0,0.1,0.1,0.1,0.1c0,0,0.1,0,0.1,0.1c0.1,0.1,0.2,0.1,0.3,0.1c0.2,0.1,0.4,0.2,0.6,0.2c0.2,0.1,0.4,0.1,0.6,0.1
				c0,0,0.1,0,0.2,0l0.1,0l0.1,0c0.1,0,0.1,0,0.1,0c0.1,0,0.1,0,0.2,0c0.1,0,0.2,0,0.3,0c0.1,0,0.1,0,0.2,0c0.1,0,0.1,0,0.2,0
				c0,0,0.1,0,0.2,0c0.1,0,0.1,0,0.2,0c0,0,0.1,0,0.1,0c0,0,0.1,0,0.1,0c0.1,0,0.1,0,0.2,0c1.2-0.3,2.2-1.1,2.9-2.1
				c0.3-0.5,0.6-1.1,0.7-1.7c0.1-0.6,0.1-1.3,0-1.9c-0.1-0.7-0.4-1.3-0.7-1.7c-0.2-0.4-0.6-0.7-0.8-0.9c-0.2-0.2-0.4-0.3-0.6-0.5
				c-0.2-0.1-0.4-0.2-0.6-0.3c0.5,0.2,0.8,0.4,1.2,0.8c0.1,0.1,0.1,0.1,0,0c-0.1-0.1-0.1-0.1-0.2-0.2c-0.1-0.1-0.1-0.1-0.2-0.2
				c0,0-0.1-0.1-0.2-0.1c-0.1,0-0.1-0.1-0.2-0.1c0,0-0.1,0-0.1,0c0,0-0.1,0-0.1,0c-0.1,0-0.1-0.1-0.2-0.1c-0.1-0.1-0.2-0.1-0.3-0.2
				c-0.1-0.1-0.1,0-0.1,0c-0.3-0.1-0.6-0.2-0.8-0.3c-0.1,0-0.2,0-0.2,0c-0.1,0-0.2,0-0.2,0c-0.1,0-0.2,0-0.3,0c-0.1,0-0.1,0-0.2,0
				c0.1,0,0.1,0,0.1,0c0,0-0.1,0-0.1,0c-0.1,0-0.1,0-0.2,0c0,0,0.1,0,0.2,0c0.1,0,0.1,0,0.2,0c0,0,0,0-0.1,0c-0.1,0-0.1,0-0.2,0
				c-0.1,0-0.1,0-0.2,0c-0.1,0-0.1,0-0.2,0c-0.1,0-0.1,0-0.2,0c-0.2,0-0.5,0.1-0.7,0.1c0,0,0,0,0,0c0.3-0.1,0.5-0.1,0.8-0.2
				c-0.1,0-0.1,0-0.1,0s0.1,0,0.1,0c0,0,0.1,0,0.1,0C136.1,90.9,135.8,91,135.6,91c-0.1,0-0.2,0.1-0.2,0.1c-0.1,0-0.1,0-0.1,0
				c-0.1,0-0.1,0-0.2,0.1c0,0,0.1,0,0.1-0.1c0.1,0,0.1,0,0.2-0.1C135.5,91.1,135.6,91,135.6,91C135.6,91,135.6,91,135.6,91z"/>
			<path fill="#9C2D67" d="M138.6,91.2c0,0-0.1,0-0.1,0L138.6,91.2l0.1,0.1c0,0,0.1,0,0.1,0.1l0.1,0.1c-0.1,0-0.1,0-0.2-0.1
				C138.7,91.3,138.7,91.2,138.6,91.2z"/>
		</g>
	</g>
</g>
</svg>
