<?xml version="1.0" encoding="utf-8"?>
<!-- Generator: Adobe Illustrator 18.1.0, SVG Export Plug-In . SVG Version: 6.00 Build 0)  -->
<svg version="1.1" id="Layer_1" xmlns="http://www.w3.org/2000/svg" xmlns:xlink="http://www.w3.org/1999/xlink" x="0px" y="0px"
	 viewBox="0 0 2000 2000" enable-background="new 0 0 2000 2000" xml:space="preserve">
<g>
	<path fill="#E57B3D" d="M423.1,884.9c0-70.3,80.4-133.2,206.8-175.1c-305,52.5-517,167.9-517,301.9c0,141,234.7,261.4,565.8,309.6
		c-12.1-83.2-19.7-172.3-21.8-265.5C515,1019.9,423.1,960.1,423.1,884.9z"/>
	<path fill="#E57B3D" d="M1886.6,1011.8c0-134-211.9-249.4-517-301.9c126.4,41.9,206.8,104.7,206.8,175
		c0,126-258.2,208.8-576.7,208.8c-31,0-61.4-0.8-91.1-2.3c4.8,93.3,17,179.1,35.5,251.8c18.4,0.4,36.9,0.7,55.6,0.7
		C1489.6,1343.9,1886.6,1195.2,1886.6,1011.8z"/>
	<path fill="#E65F54" d="M906.4,1000.3c0-318.5,82.8-576.7,208.8-576.7c70.3,0,133.2,80.5,175.1,206.9
		c-52.5-305.1-167.9-517-301.9-517c-183.4,0-332.2,397.1-332.2,886.8c0,18.7,0.3,37.2,0.7,55.6c2.2,93.1,9.7,182.3,21.8,265.5
		c48.2,331,168.6,565.8,309.6,565.8c134,0,249.4-211.9,301.9-517c-41.9,126.4-104.7,206.8-175.1,206.8c-75.2,0-135-92-171-233.8
		c-18.5-72.7-30.7-158.5-35.5-251.8C907.2,1061.7,906.4,1031.3,906.4,1000.3z"/>
	<path fill="#BEBDBF" d="M964.2,1038.8l323.1-294C1287.3,744.8,1054.7,153.6,964.2,1038.8z"/>
	<path fill="#929194" d="M1287.3,744.8l-323.1,294C964.2,1038.8,1830.1,1035.6,1287.3,744.8z"/>
</g>
</svg>
