<?xml version="1.0" encoding="utf-8"?>
<!-- Generator: Adobe Illustrator 18.1.0, SVG Export Plug-In . SVG Version: 6.00 Build 0)  -->
<svg version="1.1" id="Layer_1" xmlns="http://www.w3.org/2000/svg" xmlns:xlink="http://www.w3.org/1999/xlink" x="0px" y="0px"
	 viewBox="0 0 150 150" enable-background="new 0 0 150 150" xml:space="preserve">
<g>
	<g>
		<path fill="#8B8592" d="M83.4,87.2c0,0-11.5,23.4,6,48.4c0,0,9.9,1.5,17.9,11.5c0,0-23.3-7.4-57.3,0c0,0,9.2-6.2,21.2-10.2
			c0,0-20.7-20.2-2.2-70.6c0,0-1,27.8,5.5,44.4C74.5,110.6,72.5,102.6,83.4,87.2z"/>
	</g>
	<polygon fill="#4074AC" points="95.8,79.3 97.8,85.4 104.2,85.4 99,89.1 101,95.2 95.8,91.5 90.7,95.2 92.6,89.1 87.5,85.4 
		93.8,85.4 	"/>
	<polygon fill="#4074AC" points="98.3,57.3 100.3,63.4 106.6,63.4 101.5,67.1 103.5,73.2 98.3,69.4 93.1,73.2 95.1,67.1 89.9,63.4 
		96.3,63.4 	"/>
	<polygon fill="#4074AC" points="107.6,40.9 109.6,46.9 115.9,46.9 110.8,50.7 112.8,56.7 107.6,53 102.4,56.7 104.4,50.7 
		99.3,46.9 105.6,46.9 	"/>
	<polygon fill="#4074AC" points="104.8,14.8 106.8,20.9 113.1,20.9 108,24.6 110,30.7 104.8,26.9 99.7,30.7 101.6,24.6 96.5,20.9 
		102.8,20.9 	"/>
	<polygon fill="#4074AC" points="119.4,27.8 121.4,33.9 127.7,33.9 122.6,37.7 124.5,43.7 119.4,40 114.2,43.7 116.2,37.7 111,33.9 
		117.4,33.9 	"/>
	<polygon fill="#4074AC" points="125.3,48.3 127.2,54.4 133.6,54.4 128.5,58.1 130.4,64.2 125.3,60.4 120.1,64.2 122.1,58.1 
		116.9,54.4 123.3,54.4 	"/>
	<polygon fill="#4074AC" points="63.9,5.8 65.8,11.9 72.2,11.9 67.1,15.6 69,21.7 63.9,18 58.7,21.7 60.7,15.6 55.5,11.9 61.9,11.9 
			"/>
	<polygon fill="#4074AC" points="38.4,13.9 40.4,20 46.8,20 41.6,23.7 43.6,29.8 38.4,26 33.3,29.8 35.2,23.7 30.1,20 36.5,20 	"/>
	<polygon fill="#4074AC" points="81.9,13 83.8,19 90.2,19 85,22.8 87,28.8 81.9,25.1 76.7,28.8 78.7,22.8 73.5,19 79.9,19 	"/>
	<polygon fill="#4074AC" points="114.4,64.8 116.4,70.8 122.8,70.8 117.6,74.6 119.6,80.6 114.4,76.9 109.3,80.6 111.2,74.6 
		106.1,70.8 112.4,70.8 	"/>
	<polygon fill="#4074AC" points="36,73.7 37.9,79.8 44.3,79.8 39.1,83.6 41.1,89.6 36,85.9 30.8,89.6 32.8,83.6 27.6,79.8 34,79.8 	
		"/>
	<polygon fill="#4074AC" points="53.2,76.2 55.2,82.2 61.6,82.2 56.4,86 58.4,92 53.2,88.3 48.1,92 50,86 44.9,82.2 51.3,82.2 	"/>
	<polygon fill="#4074AC" points="46.5,57.6 48.5,63.7 54.8,63.7 49.7,67.4 51.7,73.5 46.5,69.7 41.3,73.5 43.3,67.4 38.2,63.7 
		44.5,63.7 	"/>
	<polygon fill="#4074AC" points="64.2,47.7 66.2,53.8 72.5,53.8 67.4,57.5 69.3,63.6 64.2,59.8 59,63.6 61,57.5 55.8,53.8 
		62.2,53.8 	"/>
	<polygon fill="#4074AC" points="48.4,39.6 50.3,45.7 56.7,45.7 51.5,49.4 53.5,55.5 48.4,51.7 43.2,55.5 45.2,49.4 40,45.7 
		46.4,45.7 	"/>
	<polygon fill="#4074AC" points="28.8,53.3 30.8,59.3 37.2,59.3 32,63.1 34,69.1 28.8,65.4 23.7,69.1 25.6,63.1 20.5,59.3 
		26.9,59.3 	"/>
	<polygon fill="#4074AC" points="81.9,64.4 83.8,70.5 90.2,70.5 85,74.2 87,80.3 81.9,76.6 76.7,80.3 78.7,74.2 73.5,70.5 
		79.9,70.5 	"/>
	<polygon fill="#4074AC" points="82.8,44 84.8,50 91.1,50 86,53.8 87.9,59.8 82.8,56.1 77.6,59.8 79.6,53.8 74.4,50 80.8,50 	"/>
	<polygon fill="#4074AC" points="71.6,28.8 73.6,34.8 80,34.8 74.8,38.6 76.8,44.6 71.6,40.9 66.5,44.6 68.4,38.6 63.3,34.8 
		69.7,34.8 	"/>
	<polygon fill="#4074AC" points="94,27.5 95.9,33.6 102.3,33.6 97.1,37.3 99.1,43.4 94,39.7 88.8,43.4 90.8,37.3 85.6,33.6 92,33.6 
			"/>
	<polygon fill="#4074AC" points="54.9,22.6 56.9,28.6 63.2,28.6 58.1,32.4 60,38.4 54.9,34.7 49.7,38.4 51.7,32.4 46.5,28.6 
		52.9,28.6 	"/>
	<polygon fill="#4074AC" points="31,33.1 33,39.2 39.3,39.2 34.2,42.9 36.2,49 31,45.2 25.8,49 27.8,42.9 22.7,39.2 29,39.2 	"/>
</g>
</svg>
