<?xml version="1.0" encoding="utf-8"?>
<!-- Generator: Adobe Illustrator 18.1.0, SVG Export Plug-In . SVG Version: 6.00 Build 0)  -->
<svg version="1.1" id="Layer_1" xmlns="http://www.w3.org/2000/svg" xmlns:xlink="http://www.w3.org/1999/xlink" x="0px" y="0px"
	 viewBox="0 0 1500 1500" enable-background="new 0 0 1500 1500" xml:space="preserve">
<g>
	<path fill="#935550" d="M1293,467.2c0-30.3-24.5-54.8-54.8-54.8c-30.2,0-54.8,24.5-54.8,54.8c0,0,0,23.9,0,59.9l109.5,44V467.2z
		 M1349.6,1156.2l-68.3-244.9c7.4-9.4,11.7-21.1,11.7-33.6V689.1c-28.7-11.5-66.8-26.8-109.5-44v191.8c-65,16.7-206,41.1-314-25.4
		c-15.4-9.4-34.4-10.7-50.9-3.4c-16.5,7.3-28.3,22.2-31.7,40l-26.7,142.5l31.9,170.2c4.8,25.6-9.1,50.2-31.9,60.2
		c3.7,1.6,7.6,3,11.8,3.8c29.7,5.6,58.3-14,63.9-43.7c0,0,29.8-159,45.6-243.1c108.6,39.4,223.2,27.9,297,12.6l65.6,235.1
		c8.1,29.1,38.3,46.2,67.5,38C1340.7,1215.5,1357.7,1185.3,1349.6,1156.2z"/>
	<path fill="#B58681" d="M336.9,467.2c0-30.3-24.5-54.8-54.8-54.8c-30.2,0-54.8,24.5-54.8,54.8v105.1l109.5-45.2
		C336.9,491.1,336.9,467.2,336.9,467.2z M792.1,1160.8l-31.9-170.2l-26.7-142.5c-3.3-17.7-15.2-32.7-31.7-40
		c-16.5-7.3-35.5-6-50.9,3.4c-108,66.5-249,42.1-314,25.4V645.6c-43.2,17.8-81.4,33.6-109.5,45.2v186.9c0,12.5,4.4,24.2,11.7,33.6
		l-68.3,244.9c-8.1,29.1,8.9,59.4,38,67.5c29.1,8.1,59.3-8.9,67.5-38l65.6-235.1c73.8,15.3,188.4,26.8,297-12.6
		c15.8,84.2,45.6,243.1,45.6,243.1c5.6,29.7,34.2,49.3,63.9,43.7c4.2-0.8,8.1-2.1,11.8-3.8C783.1,1211,796.9,1186.4,792.1,1160.8z"
		/>
	<path fill="#B76D30" d="M1388.5,609.5l-95.5-38.4l-109.5-44L775.1,363c-13.3-5.3-28.1-5.3-41.3,0.2L336.9,527.1l-109.5,45.2
		l-90.5,37.4c-28,11.5-41.3,43.6-29.7,71.5c11.5,27.9,43.6,41.2,71.5,29.7c0,0,18.4-7.6,48.7-20.1c28.1-11.6,66.3-27.4,109.5-45.2
		C498.9,578.7,730.3,483.2,755,473c24.8,10,261.8,105.2,428.5,172.1c42.7,17.2,80.8,32.5,109.5,44c33.8,13.6,54.7,22,54.7,22
		c28.1,11.3,59.9-2.3,71.2-30.4C1430.1,652.6,1416.5,620.7,1388.5,609.5z"/>
	<rect x="734.2" y="569.9" fill="#C34E5C" width="57.5" height="82.2"/>
</g>
</svg>
