<?xml version="1.0" encoding="utf-8"?>
<!-- Generator: Adobe Illustrator 14.0.0, SVG Export Plug-In . SVG Version: 6.00 Build 43363)  -->
<!DOCTYPE svg PUBLIC "-//W3C//DTD SVG 1.1//EN" "http://www.w3.org/Graphics/SVG/1.1/DTD/svg11.dtd">
<svg xmlns="http://www.w3.org/2000/svg" xmlns:xlink="http://www.w3.org/1999/xlink" version="1.1" id="Layer_1" x="0px" y="0px" width="100px" height="100px" viewBox="0 0 100 100" enable-background="new 0 0 100 100" xml:space="preserve">









<g>
	<g>
		<path fill="#DCBA7B" d="M87.196,42.372c-1.64-20.631-19.57-34.423-40.04-30.778C26.683,15.222,11.419,34.898,13.059,55.52    c1.637,20.623,19.571,34.41,40.034,30.791C73.565,82.656,88.829,62.971,87.196,42.372z M51.166,76.535    c-15.771,2.812-29.547-7.402-30.762-22.764C19.176,38.398,30.97,23.664,46.738,20.868c15.771-2.808,29.543,7.389,30.771,22.765    C78.718,58.996,66.931,73.742,51.166,76.535z"/>
		<path fill="#93BF3E" d="M51.17,78.523c-16.947,3.02-31.76-7.957-33.064-24.473c-1.317-16.525,11.366-32.359,28.309-35.372    c16.95-3.019,31.757,7.945,33.08,24.477C80.803,59.68,68.116,75.514,51.17,78.523z"/>
		<path fill="#93BF3E" d="M63.526,22.702c-4.938-2.377-10.796-3.279-16.956-2.183c-4.544,0.813-8.742,2.624-12.41,5.116    L47.456,47.59L63.526,22.702z M77.579,43.498c-0.718-9.117-5.841-16.41-13.134-20.298L49.082,47.64l16.96,21.938    C73.707,63.178,78.376,53.48,77.579,43.498z M20.104,54.494c1.14,10.508,8.149,18.504,17.612,21.426l7.971-25.564L20.104,54.494z     M33.324,26.206c-8.557,6.229-13.957,16.39-13.345,26.943l25.988-5.581L33.324,26.206z M38.632,76.166    c3.842,1.047,8.023,1.271,12.387,0.5c5.284-0.932,10.107-3.209,14.184-6.383L47.394,49.309L38.632,76.166z"/>
		<path fill="#93BF3E" d="M71.929,48.752c-0.197-1.813-1.863-2.812-3.724-2.219c-1.851,0.612-3.207,2.555-2.999,4.382    c0.21,1.828,1.883,2.824,3.74,2.232C70.803,52.543,72.14,50.584,71.929,48.752z M64.926,36.287    c-0.214-1.827-1.873-2.809-3.724-2.229c-1.86,0.616-3.2,2.565-2.996,4.389c0.2,1.84,1.87,2.809,3.727,2.239    C63.793,40.08,65.127,38.115,64.926,36.287z M47.265,34.845c1.287-0.418,2.232-1.778,2.084-3.046    c-0.138-1.281-1.304-1.972-2.595-1.557c-1.297,0.415-2.219,1.788-2.08,3.079C44.806,34.582,45.978,35.263,47.265,34.845z     M32.837,38.125c-1.962,0.629-3.385,2.72-3.164,4.662c0.21,1.926,1.969,2.97,3.954,2.341c1.969-0.608,3.392-2.709,3.171-4.639    C36.58,38.546,34.809,37.492,32.837,38.125z M35.415,56.773c-1.972,0.633-3.392,2.729-3.181,4.656    c0.227,1.928,1.992,3.002,3.964,2.363c1.976-0.623,3.398-2.707,3.174-4.648C39.155,57.205,37.397,56.16,35.415,56.773z     M52.082,63.023c-1.97,0.625-3.385,2.719-3.175,4.648c0.225,1.936,1.996,2.992,3.965,2.367c1.966-0.633,3.392-2.709,3.174-4.662    C55.828,63.438,54.058,62.391,52.082,63.023z"/>
	</g>
	<g>
		<path fill="#F8CF88" d="M85.346,42.333C83.775,22.59,66.608,9.384,47.018,12.874c-19.597,3.474-34.209,22.31-32.642,42.052    c1.567,19.738,18.731,32.936,38.322,29.473C72.298,80.9,86.903,62.059,85.346,42.333z M50.851,75.041    c-15.093,2.689-28.28-7.082-29.445-21.797C20.23,38.533,31.517,24.421,46.616,21.751c15.093-2.684,28.279,7.075,29.451,21.796    C77.229,58.252,65.943,72.367,50.851,75.041z"/>
		<path fill="#EF522A" d="M50.784,74.969c-15.09,2.686-28.279-7.086-29.441-21.797c-1.172-14.715,10.121-28.81,25.211-31.494    c15.093-2.687,28.279,7.069,29.458,21.797C77.174,58.189,65.877,72.287,50.784,74.969z"/>
		<path fill="#FFCE20" d="M61.791,25.257c-4.398-2.114-9.617-2.917-15.103-1.942c-4.043,0.721-7.78,2.334-11.046,4.557l11.84,19.544    L61.791,25.257z M74.307,43.778c-0.64-8.12-5.202-14.609-11.695-18.079l-13.684,21.77L64.03,67.004    C70.859,61.301,75.011,52.668,74.307,43.778z M23.121,53.57c1.014,9.357,7.257,16.482,15.686,19.076l7.099-22.761L23.121,53.57z     M34.898,28.375c-7.622,5.548-12.436,14.596-11.886,23.992l23.143-4.964L34.898,28.375z M39.623,72.867    c3.424,0.936,7.145,1.139,11.026,0.451c4.705-0.83,9.005-2.861,12.634-5.689l-15.86-18.672L39.623,72.867z"/>
		<path fill="#EF522A" d="M69.275,48.457c-0.175-1.62-1.663-2.506-3.315-1.979c-1.653,0.55-2.854,2.281-2.674,3.904    c0.188,1.629,1.676,2.516,3.332,1.985C68.271,51.834,69.463,50.089,69.275,48.457z M63.036,37.357    c-0.191-1.63-1.67-2.502-3.315-1.985c-1.66,0.546-2.849,2.285-2.667,3.905c0.178,1.643,1.666,2.506,3.315,1.995    C62.028,40.739,63.217,38.98,63.036,37.357z M47.311,36.073c1.146-0.372,1.985-1.583,1.854-2.713    c-0.125-1.143-1.162-1.755-2.311-1.386c-1.156,0.369-1.976,1.59-1.851,2.739C45.121,35.836,46.158,36.442,47.311,36.073z     M34.46,38.987c-1.742,0.573-3.013,2.426-2.818,4.158c0.188,1.715,1.758,2.644,3.523,2.084c1.751-0.544,3.019-2.414,2.825-4.136    C37.796,39.366,36.219,38.427,34.46,38.987z M36.755,55.598c-1.755,0.566-3.019,2.43-2.828,4.148    c0.204,1.723,1.774,2.674,3.529,2.104c1.755-0.559,3.022-2.41,2.825-4.141C40.087,55.98,38.523,55.055,36.755,55.598z     M51.601,61.162c-1.758,0.562-3.016,2.42-2.831,4.145c0.201,1.719,1.781,2.662,3.533,2.107c1.751-0.566,3.022-2.416,2.828-4.148    C54.937,61.535,53.359,60.602,51.601,61.162z"/>
	</g>
	<path fill="#EF522A" d="M56.711,27.964c-0.191-1.626-1.669-2.502-3.315-1.989c-1.659,0.55-2.848,2.288-2.67,3.915   c0.181,1.633,1.666,2.496,3.318,1.989C55.703,31.342,56.892,29.59,56.711,27.964z"/>
	<path fill="#EF522A" d="M59.26,47.811c-0.194-1.623-1.67-2.499-3.316-1.982c-1.659,0.547-2.848,2.282-2.67,3.912   c0.182,1.636,1.666,2.5,3.319,1.986C58.252,51.193,59.44,49.441,59.26,47.811z"/>
	<path fill="#EF522A" d="M50.119,56.184c-0.092-0.799-0.823-1.23-1.633-0.977c-0.816,0.27-1.402,1.125-1.313,1.922   c0.089,0.807,0.819,1.23,1.633,0.98C49.622,57.848,50.208,56.984,50.119,56.184z"/>
	<path fill="#EF522A" d="M63.886,43.89c-0.093-0.804-0.82-1.238-1.63-0.985c-0.816,0.27-1.403,1.129-1.317,1.929   c0.089,0.804,0.823,1.229,1.633,0.979C63.389,45.549,63.975,44.686,63.886,43.89z"/>
	<path fill="#EF522A" d="M67.129,32.797c-0.093-0.804-0.82-1.235-1.63-0.981c-0.82,0.27-1.403,1.126-1.314,1.926   c0.089,0.803,0.82,1.228,1.634,0.978C66.631,34.457,67.221,33.594,67.129,32.797z"/>
	<path fill="#EF522A" d="M70.737,41.582c-0.096-0.8-0.82-1.231-1.63-0.978c-0.82,0.267-1.399,1.126-1.313,1.923   c0.089,0.807,0.819,1.232,1.633,0.981C70.243,43.248,70.826,42.382,70.737,41.582z"/>
	<path fill="#EF522A" d="M62.348,55.035c-0.092-0.797-0.819-1.229-1.633-0.979c-0.816,0.268-1.399,1.127-1.311,1.926   c0.086,0.805,0.816,1.232,1.633,0.982C61.851,56.697,62.44,55.834,62.348,55.035z"/>
	<path fill="#EF522A" d="M60.062,65.957c-0.096-0.805-0.823-1.232-1.633-0.982c-0.816,0.273-1.399,1.129-1.313,1.926   c0.089,0.807,0.819,1.232,1.633,0.982C59.562,67.615,60.148,66.754,60.062,65.957z"/>
	<path fill="#EF522A" d="M48.431,40.074c-0.096-0.804-0.823-1.231-1.634-0.981c-0.816,0.273-1.399,1.129-1.313,1.926   c0.089,0.807,0.82,1.231,1.633,0.981C47.93,41.733,48.516,40.871,48.431,40.074z"/>
	<path fill="#EF522A" d="M48.431,26.028c-0.096-0.804-0.823-1.231-1.634-0.981c-0.816,0.273-1.399,1.129-1.313,1.926   c0.089,0.807,0.82,1.231,1.633,0.981C47.93,27.687,48.516,26.825,48.431,26.028z"/>
	<path fill="#EF522A" d="M43.505,52.941c-0.096-0.805-0.823-1.232-1.63-0.979c-0.816,0.27-1.402,1.127-1.313,1.926   c0.089,0.807,0.819,1.232,1.63,0.979C43.008,54.604,43.594,53.74,43.505,52.941z"/>
	<path fill="#EF522A" d="M33.785,55.752c-0.092-0.799-0.82-1.23-1.63-0.977c-0.82,0.266-1.402,1.125-1.313,1.922   c0.089,0.807,0.82,1.232,1.629,0.984C33.288,57.418,33.874,56.553,33.785,55.752z"/>
	<path fill="#EF522A" d="M37.832,67c-0.093-0.801-0.823-1.232-1.63-0.979c-0.82,0.268-1.406,1.127-1.314,1.926   c0.089,0.811,0.817,1.229,1.629,0.979C37.335,68.666,37.921,67.801,37.832,67z"/>
	<path fill="#EF522A" d="M68.64,57.906c-0.092-0.801-0.823-1.232-1.63-0.979c-0.819,0.27-1.402,1.127-1.313,1.924   c0.086,0.807,0.816,1.234,1.63,0.98C68.143,59.572,68.729,58.709,68.64,57.906z"/>
	<path fill="#EF522A" d="M42.553,44.051c-0.092-0.804-0.816-1.238-1.626-0.981c-0.82,0.264-1.402,1.126-1.317,1.923   c0.089,0.81,0.823,1.229,1.634,0.981C42.06,45.71,42.648,44.848,42.553,44.051z"/>
	<path fill="#EF522A" d="M36.008,31.796c-0.096-0.804-0.823-1.238-1.633-0.981c-0.816,0.27-1.399,1.126-1.314,1.923   c0.089,0.81,0.82,1.231,1.633,0.981C35.507,33.456,36.093,32.593,36.008,31.796z"/>
	<path fill="#EF522A" d="M31.131,39.471c-0.132-1.113-1.136-1.712-2.259-1.36c-1.129,0.372-1.939,1.561-1.814,2.667   c0.119,1.113,1.132,1.699,2.259,1.356C30.44,41.769,31.256,40.574,31.131,39.471z"/>
	<path fill="#EF522A" d="M29.735,58.57c-0.128-1.111-1.139-1.709-2.259-1.355c-1.129,0.369-1.936,1.555-1.817,2.66   c0.122,1.115,1.136,1.705,2.262,1.363C29.05,60.869,29.857,59.674,29.735,58.57z"/>
	<path fill="#EF522A" d="M43.896,29.225c-0.125-1.109-1.136-1.708-2.252-1.353c-1.133,0.365-1.942,1.554-1.821,2.66   c0.122,1.113,1.137,1.706,2.259,1.36C43.212,31.523,44.021,30.331,43.896,29.225z"/>
	<path fill="#EF522A" d="M46.854,66.408c-0.132-1.107-1.14-1.707-2.259-1.354c-1.133,0.371-1.939,1.557-1.817,2.662   c0.118,1.113,1.132,1.703,2.259,1.361C46.162,68.709,46.975,67.518,46.854,66.408z"/>
</g>
</svg>
