<?xml version="1.0" encoding="utf-8"?>
<!-- Generator: Adobe Illustrator 16.0.0, SVG Export Plug-In . SVG Version: 6.00 Build 0)  -->
<!DOCTYPE svg PUBLIC "-//W3C//DTD SVG 1.1//EN" "http://www.w3.org/Graphics/SVG/1.1/DTD/svg11.dtd">
<svg version="1.1" id="Layer_1" xmlns="http://www.w3.org/2000/svg" xmlns:xlink="http://www.w3.org/1999/xlink" x="0px" y="0px"
	 width="100px" height="100px" viewBox="0 0 100 100" enable-background="new 0 0 100 100" xml:space="preserve">
<g>
	<path fill="#FFFFFF" d="M82.412,44.443c0.754-1.453,2.674-2.383,3.848-0.786c-0.346,1.305-1.039,2.464-1.799,3.56
		c-5.751,8.15-11.472,16.319-17.13,24.532c-0.887-0.494-1.762-1.009-2.632-1.512C70.661,61.675,76.491,53.028,82.412,44.443"/>
	<path fill="#FFC514" d="M90.512,31.463c0.241-0.43,0.697-1.288,0.934-1.718c-0.246,2.366-0.209,4.804-1.048,7.058
		c-3.032,0.895-5.837,2.354-8.736,3.568c-0.331-1.681-1.799-3.752-0.366-5.285C83.695,32.593,87.403,32.467,90.512,31.463"/>
	<path fill="#0F85C6" d="M21.578,58.786c0.624,2.108,0.503,4.479,1.657,6.387c3.482,4.331,9.245,5.956,14.619,5.814
		c0.797,0.628,1.583,1.296,2.349,1.977c-6.171,0.462-12.542-1.311-16.805-5.977C20.786,65.063,21.562,61.565,21.578,58.786"/>
	<path fill="#0777B8" d="M80.319,44.086c1.825-3.12,5.573-3.998,8.562-5.605c-0.724,3.233-0.477,6.9-2.632,9.629
		c-5.967,8.474-11.865,17.009-17.79,25.524c-2.601,0.073-4.772-1.257-6.172-3.408C68.359,61.565,74.336,52.818,80.319,44.086
		 M82.412,44.443c-5.921,8.585-11.751,17.232-17.713,25.794c0.87,0.503,1.745,1.018,2.632,1.512
		c5.658-8.213,11.379-16.382,17.13-24.532c0.76-1.096,1.453-2.255,1.799-3.56C85.086,42.06,83.166,42.99,82.412,44.443"/>
	<path fill="#F9AC1B" d="M79.407,37.212c-0.886,1.096-1.499,2.557-2.916,3.078c-5.311,2.454-11.268,2.574-17.021,2.637
		c-3.239-0.775-6.621-0.647-9.93-0.82c-4.646,0.327-9.26,1.104-13.737,2.417c0.383,0.895,0.776,1.781,1.168,2.677
		c4.405-1.168,8.946-1.809,13.492-2.191c4.105-0.147,8.237,0.082,12.321-0.503c1.494,0.375,3.057,0.026,4.572-0.007
		c0.319-0.038,0.948-0.092,1.269-0.122c3.267-0.655,7.504-0.08,9.61-3.192c1.033-0.769,2.858,1.578,3.269-0.239
		C80.864,39.669,80.125,38.445,79.407,37.212"/>
	<path fill="#077DBE" d="M66.152,48.048c-9.03,3.623-17.53,8.441-26.097,13.024l0.073,0.121c-1.531,0.917-3.031,1.887-4.498,2.895
		c-3.828-3.497-7.084-7.567-11.001-10.965c0,0-5.742-6.053-8.798-8.816c1.924-0.913,24.198-11.95,26.579-13.593
		c5.479,3.681,11.089,7.167,16.889,10.324c1.269,0.867,2.826,0.703,4.288,0.694c-6.994-5.123-14.214-9.931-21.266-14.97
		c-2.795,1.46-5.563,2.958-8.353,4.418c-4.226,2.2-8.453,4.391-12.752,6.462c-4.027,1.854-8.054,3.722-12.222,5.23
		c4.609,4.811,9.401,9.431,14.058,14.205c3.989,4.446,8.415,8.504,12.604,12.767c2.182-1.619,4.373-3.234,6.554-4.859
		c3.733-2.643,7.272-5.569,11.2-7.938c0.383,2.202,0.645,4.413,1.06,6.601c-4.977,3.538-10.534,6.35-16.617,7.341
		c0.797,0.628,1.583,1.296,2.349,1.977c6.534-0.64,12.867-3.492,17.323-8.378c-1.305-2.926-1.651-6.141-1.896-9.303
		C59.088,52.804,62.644,50.476,66.152,48.048"/>
</g>
</svg>
