<?xml version="1.0" encoding="utf-8"?>
<!-- Generator: Adobe Illustrator 18.1.0, SVG Export Plug-In . SVG Version: 6.00 Build 0)  -->
<svg version="1.1" id="Layer_1" xmlns="http://www.w3.org/2000/svg" xmlns:xlink="http://www.w3.org/1999/xlink" x="0px" y="0px"
	 viewBox="0 0 150 150" enable-background="new 0 0 150 150" xml:space="preserve">
<g>
	<polygon fill="none" points="43.2,50.4 42,48.6 42,51.2 	"/>
	<path fill="none" d="M47.9,58l-3.6-5.4L35.5,58H42v25.2c1,1.2,3,2.2,4,3.2v-0.2l-1.2-1l1.2-0.8V58H47.9z"/>
	<path fill="none" d="M105,84.9V88c2,0.8,3,1.9,5,3.2V80.4C109,82.1,107,83.6,105,84.9z"/>
	<path fill="none" d="M78,83.5c-1-1.7-2.5-3.7-3-5.9c-0.4-1.8-0.1-3.6,0.3-5.4l-1.3,0V92h-9.7c3.2,1,7.1,1.5,11.6,1.4
		c2.1-0.1,4.3-0.4,6.3-0.4H78V83.5z"/>
	<path fill="#F5AA80" d="M117.4,117.2c1.9,5.1-4.2,7.5-4.7,7.5c-0.6,0-1.6-2.9-1.6-2.9s-3.5-0.2-4.7,3.5c-1.2,3.7,2.3,9.3,3.1,9.5
		c0.8,0.2,15.9-3.3,18.2-11.4c1.7-5.9-1.1-10.3-2.8-12.3C123.2,113.2,119.9,116,117.4,117.2z"/>
	<path fill="#0193D7" d="M104.1,54C104.2,54,104.2,54,104.1,54l0.9,0v-7.6c-4,1-13.8,3.6-24.1,7.6h5.7C93,52,100.4,52.4,104.1,54z"
		/>
	<rect x="110" y="20" fill="#0193D7" width="27" height="34"/>
	<path fill="#0193D7" d="M15,66c0.2-2,3.6-5,7-8h-8v34h16.4C19.3,81,14.7,68.3,15,66z"/>
	<path fill="#0193D7" d="M42,48.6L31.3,32.8l6.6-4.4c0.5-0.5,2.1-1.5,4.1-2.9V20H14v33h24.2l3.8-1.8V48.6z M26.2,43.7
		c-2.9,0-5.2-2.3-5.2-5.2c0-2.9,2.3-5.2,5.2-5.2c2.9,0,5.2,2.3,5.2,5.2C31.3,41.3,29,43.7,26.2,43.7z"/>
	<path fill="#0193D7" d="M110,58.9c1,2.1,1.5,4.1,1.6,5.2c0.9,2.5,1.2,5.6,1,8.3c0,2.8-0.6,5.5-2.6,7.9v10.8c1,0.4,1.2,0.9,1.8,1.9
		H137V58h-27V58.9z M126.2,66.1c2.1,0,3.9,1.7,3.9,3.9s-1.7,3.9-3.9,3.9c-2.1,0-3.9-1.7-3.9-3.9S124,66.1,126.2,66.1z"/>
	<path fill="#0193D7" d="M78,83.5V93h4.3c5-1,9.7-2.6,13.3-3.9C88.5,90.2,82,87.8,78,83.5z"/>
	<path fill="#0193D7" d="M46.9,86.7l-0.7-0.6v0.2C46.5,86.5,46.7,86.6,46.9,86.7z"/>
	<path fill="#0193D7" d="M54.9,68.4L47.9,58H46v26.4l2.3-1.4l5.7,3.4l0.3,2.1c0,0,3.7,2.5,10,3.5H74V72.3l-10,0.2
		c0,0,2.2-5.7,3.1-6.3c0.5-0.3,2.9-0.8,6.9-1.3V58h-2.6c-3.6,2-7,3.8-9.9,5.9l0,0L54.9,68.4z M52.5,77.2c-0.4,0-0.8-0.3-0.8-0.8
		c0-0.4,0.3-0.8,0.8-0.8s0.8,0.3,0.8,0.8C53.3,76.9,53,77.2,52.5,77.2z"/>
	<path fill="#0193D7" d="M102.5,86.4c0.6,0.3,1.5,0.9,2.5,1.5v-3.1C105,85.5,103.4,86,102.5,86.4z"/>
	<path fill="#0193D7" d="M35.5,58l-1.8,1.1c1.6,2.5,2.8,5.2,2.8,6.2c0,2.1-4.5,2.5-4.5,2.5c1.4,6.7,4.9,11.6,9.9,15.4V58H35.5z"/>
	<path fill="#0193D7" d="M78.1,58.4v0.8c0.2-0.3,0.5-0.6,0.7-0.8H78.1z"/>
	<path fill="#0193D7" d="M46,20v2.9c2-0.9,4.2-1.9,6.6-2.9H46z"/>
	<path fill="#F5AA80" d="M110.1,79.6c-3.5,2.9-10.9,4.3-14.7,5c-3.9,0.8-8.3-2.9-7.8-4.3c0.6-1.4-0.2-4.5-2.3-4.5
		c-2.1,0-1.9,1.4-1.9,1.4l1.2,4.8L83,81.7c-1.3-1.8-3-6.2-4.1-9.7c-1.6,0-2.6,0-3.2-0.1l-0.2,0.4l-0.4,0c-0.4,1.8-0.5,3.6-0.1,5.4
		c0.5,2.2,1.5,4.2,3.1,5.9c3.8,4.2,10.4,6.4,17.5,5.3c4-1.5,6.6-2.8,6.6-2.8s0.3,0.2,0.8,0.4c0.9-0.5,1.7-1,2.5-1.5
		c1.8-1.3,3.4-2.9,4.6-4.6c1.7-2.4,2.6-5.1,2.6-7.9C112.4,75.6,111.5,78.4,110.1,79.6z"/>
	<path fill="#F5AA80" d="M47.6,87.3l-0.6-0.5c-0.2-0.1-0.5-0.3-0.7-0.4c-1.6-0.9-3.1-2-4.6-3.2c-4.6-3.8-8.3-8.7-9.8-15.4
		c0,0,4.7-0.4,4.7-2.5c0-1-1.3-3.7-2.8-6.2l-1.6,1l-0.9-2l1.2-0.8c-1.3-1.9-2.7-3.4-3.6-3.4c-1,0-4,1.8-6.9,4.2
		c-3.4,2.7-6.8,6.1-7,8.1c-0.3,2.3,4.3,15.3,15.4,26c2.7,2.6,5.7,5,9.2,7.2L47.6,87.3z"/>
	<path fill="#6DBB87" d="M105.4,88c-1.1-0.7-1.9-1.2-2.5-1.5c-0.5-0.3-0.8-0.4-0.8-0.4s-2.6,1.3-6.6,2.8c-3.6,1.4-8.3,2.8-13.3,3.7
		c-2.1,0.3-4.2,0.6-6.3,0.7c-4.5,0.1-8.4-0.4-11.6-1.1c-6.3-1.4-10-3.6-10-3.6l-0.2-2.1L48.4,83l-2.2,1.4L45,85.2l1.2,1l0.7,0.6
		l0.6,0.5l-8,12.1l-0.4,0.6L37,98.7l-0.4,2.5c12.3,14.8,39.8,13.9,39.8,13.9C73.8,119.3,70,137,70,137h32.6c0.4-9,8.5-21.5,8.5-21.5
		s0.8,2.2,4.2,2.2c0.6,0,1.3-0.2,2.1-0.6c2.5-1.2,5.8-4,7.6-6.1c0.8-1,1.4-1.8,1.4-2.2c0-1.7-3-8.9-3-8.9l-3.4,3
		c-0.6-3.5-4.3-7.3-8.2-10.4c-0.6-0.5-1.2-0.9-1.8-1.4C108.3,89.9,106.7,88.8,105.4,88z"/>
	<polygon fill="#4D4D4F" points="31.2,58 32.1,60 33.7,59.1 35.5,58 44.3,52.6 47.9,58 54.9,68.4 61.6,64 61.5,63.9 37.8,28.3 
		37.7,28.4 31.1,32.8 41.7,48.6 42.9,50.4 41.7,51.2 38.2,53.4 32.5,57.2 	"/>
	<path fill="#4D4D4F" d="M111.7,65c0,0-1.9,3.3-16.3,5.4c-8,1.2-13.4,1.5-16.5,1.5c1.2,3.5,2.8,8,4.1,9.7l1.5,0.4l-1.2-4.8
		c0,0-0.2-1.4,1.9-1.4c2.1,0,2.9,3.1,2.3,4.5c-0.6,1.4,3.9,5,7.8,4.3c3.9-0.8,11.2-2.1,14.7-5c1.4-1.2,2.3-3.9,2.5-7.1
		c0.2-2.7-0.1-5.8-1-8.3C111.7,64.7,111.7,65,111.7,65z"/>
	<path fill="#FD4F57" d="M63.8,72.5l9.8-0.2l1.6,0l0.4,0l0.2-0.4c0.5,0,1.6,0.1,3.2,0.1c3.2,0,8.5-0.3,16.5-1.5
		c14.3-2.1,16.3-5.4,16.3-5.4s0-0.3-0.1-0.9c-0.1-1.1-0.5-3.1-1.6-5.2c-1.1-1.9-2.9-3.8-5.8-5.1c0,0,0,0-0.1,0
		c-3.7-1.6-11.1-2-17.5,0c-2.9,0.9-5.7,2.4-7.7,4.6c-0.3,0.3-0.5,0.5-0.7,0.8c-1.2,1.5-2.2,3.3-2.7,5.4c-0.6,0.1-1.3,0.2-1.9,0.3
		c-3.2,0.5-6.4,1-6.8,1.3C65.9,66.8,63.8,72.5,63.8,72.5z"/>
	<path fill="#0193D7" d="M50.5,33.6c0,3.9,3.1,7,7,7c3.9,0,7-3.1,7-7c0-3.9-3.1-7-7-7C53.6,26.6,50.5,29.7,50.5,33.6z M55,28.4
		c1.1,0,1.9,0.9,1.9,1.9c0,1.1-0.9,1.9-1.9,1.9c-1.1,0-1.9-0.9-1.9-1.9C53,29.3,53.9,28.4,55,28.4z"/>
	<circle fill="#0193D7" cx="69.1" cy="28.4" r="1.3"/>
	<path fill="#A1C8EB" d="M26.2,33.3c-2.9,0-5.2,2.3-5.2,5.2c0,2.9,2.3,5.2,5.2,5.2c2.9,0,5.2-2.3,5.2-5.2
		C31.3,35.6,29,33.3,26.2,33.3z M23.1,38c-0.6,0-1-0.5-1-1c0-0.6,0.5-1,1-1c0.6,0,1,0.5,1,1C24.1,37.5,23.6,38,23.1,38z"/>
	<path fill="#A1C8EB" d="M77.1,44.2c2.4,0,4.4-2,4.4-4.4c0-2.4-2-4.4-4.4-4.4s-4.4,2-4.4,4.4C72.7,42.2,74.6,44.2,77.1,44.2z
		 M75.9,37.2c0.6,0,1.2,0.5,1.2,1.2c0,0.6-0.5,1.2-1.2,1.2c-0.6,0-1.2-0.5-1.2-1.2C74.7,37.7,75.3,37.2,75.9,37.2z"/>
	<circle fill="#A1C8EB" cx="78.7" cy="26.7" r="1.2"/>
	<path fill="#A1C8EB" d="M126.2,73.9c2.1,0,3.9-1.7,3.9-3.9s-1.7-3.9-3.9-3.9c-2.1,0-3.9,1.7-3.9,3.9S124,73.9,126.2,73.9z
		 M124.5,67.9c0.5,0,0.9,0.4,0.9,0.9c0,0.5-0.4,0.9-0.9,0.9c-0.5,0-0.9-0.4-0.9-0.9C123.6,68.3,124,67.9,124.5,67.9z"/>
	<circle fill="#A1C8EB" cx="52.5" cy="76.5" r="0.8"/>
	<path fill="#FFFFFF" d="M55,32.3c1.1,0,1.9-0.9,1.9-1.9c0-1.1-0.9-1.9-1.9-1.9c-1.1,0-1.9,0.9-1.9,1.9C53,31.4,53.9,32.3,55,32.3z"
		/>
	<circle fill="#FFFFFF" cx="23.1" cy="36.9" r="1"/>
	<circle fill="#FFFFFF" cx="75.9" cy="38.4" r="1.2"/>
	<path fill="#FFFFFF" d="M124.5,69.8c0.5,0,0.9-0.4,0.9-0.9c0-0.5-0.4-0.9-0.9-0.9c-0.5,0-0.9,0.4-0.9,0.9
		C123.6,69.3,124,69.8,124.5,69.8z"/>
</g>
</svg>
