<?xml version="1.0" encoding="utf-8"?>
<!-- Generator: Adobe Illustrator 18.1.0, SVG Export Plug-In . SVG Version: 6.00 Build 0)  -->
<svg version="1.0" id="Layer_1" xmlns="http://www.w3.org/2000/svg" xmlns:xlink="http://www.w3.org/1999/xlink" x="0px" y="0px"
	 viewBox="0 0 150 150" enable-background="new 0 0 150 150" xml:space="preserve">
<g>
	<polygon fill="#006AB5" points="58.6,13.3 76.5,2.4 108.8,22.5 108.8,42.7 	"/>
	<polygon fill="#006AB5" points="63.8,29.4 45.4,19.1 13.7,38.7 13.7,109.6 31.5,121.7 31.5,49.6 	"/>
	<polygon fill="#006AB5" points="44.8,106.7 44.8,128 75.3,147.6 94.9,136.7 	"/>
	<polygon fill="#006AB5" points="119.7,27.7 139.3,39.8 139.3,109.6 105.3,129.8 87.4,118.2 119.7,98.6 	"/>
	<g>
		<polygon fill="#EE472C" points="108.6,60.1 108.6,56.2 79.7,39.5 86.4,60.1 		"/>
		<polygon fill="#EE472C" points="108.6,66.5 92.3,78.3 98.9,98.7 108.6,93.1 		"/>
		<polygon fill="#EE472C" points="59.8,101.9 76.6,111.6 93.6,101.8 76.8,89.6 		"/>
		<polygon fill="#EE472C" points="44.6,66.2 44.6,93.1 54.6,98.9 61.3,78.3 		"/>
		<polygon fill="#EE472C" points="74,39.2 44.6,56.2 44.6,60.1 67.2,60.1 		"/>
	</g>
</g>
</svg>
