<?xml version="1.0" encoding="utf-8"?>
<!-- Generator: Adobe Illustrator 18.1.0, SVG Export Plug-In . SVG Version: 6.00 Build 0)  -->
<svg version="1.0" id="Layer_1" xmlns="http://www.w3.org/2000/svg" xmlns:xlink="http://www.w3.org/1999/xlink" x="0px" y="0px"
	 viewBox="0 0 150 150" enable-background="new 0 0 150 150" xml:space="preserve">
<g>
	<path fill-rule="evenodd" clip-rule="evenodd" fill="#5FA74E" d="M37.5,94.2c0.9,4.4,2.2,8.5,3.6,12.4c-5.9,1.5-11.4,3.4-16.4,5.5
		c-4.1-5.4-7.3-11.4-9.5-17.9H37.5L37.5,94.2z M59.1,135.2c-11.6-3.1-21.8-9.3-29.8-17.8c4.5-1.8,9.3-3.3,14.5-4.6
		c0.8,1.7,1.6,3.4,2.5,5C50.1,124.8,54.6,130.7,59.1,135.2L59.1,135.2z M135.6,94.2c-2.2,6.5-5.4,12.5-9.5,17.9
		c-5-2.1-10.5-4-16.4-5.5c1.5-3.9,2.7-8.1,3.6-12.4H135.6L135.6,94.2z M121.6,117.5c-8,8.4-18.2,14.7-29.8,17.8
		c4.5-4.6,9-10.4,12.8-17.4c0.9-1.6,1.7-3.3,2.5-5C112.3,114.1,117.1,115.7,121.6,117.5L121.6,117.5z M72.1,102.3
		c-8.6,0.2-16.8,1.2-24.4,2.8c-1.3-3.4-2.5-7.1-3.3-10.9h27.7V102.3L72.1,102.3z M50.5,111.3c6.7-1.3,14-2.1,21.6-2.3v28.1
		c-6.3-3.6-13.9-11.5-19.9-22.5C51.6,113.6,51.1,112.5,50.5,111.3L50.5,111.3z M78.8,109c7.6,0.2,14.9,1,21.6,2.3
		c-0.5,1.1-1.1,2.2-1.7,3.3c-6,11-13.6,18.9-19.9,22.5V109L78.8,109z M103.2,105c-7.6-1.6-15.7-2.6-24.3-2.8v-8.1h27.7
		C105.6,98,104.5,101.6,103.2,105L103.2,105z"/>
	<path fill="#5FA74E" d="M133.1,91.9c0.1,0.1,0.1,0.2,0.1,0.3h-20.4c5.3-6.2,10.7-12.4,16-18.6c0.3,0.6,0.3,1.2,0.5,1.9
		c0.3,1.3,0.6,2.7,0.9,4c0.7,3.2,1.5,6.3,2.3,9.5C132.8,90,132.9,90.9,133.1,91.9z"/>
	<path fill="#093452" d="M113.2,76.6c-3.5,5-6.9,10-10.4,15H80.1c9.4-13.7,18.9-27.4,28.3-41c1.5,7.9,3,15.8,4.6,23.6
		C112.9,75,113.1,75.8,113.2,76.6z"/>
	<path fill="#5FA74E" d="M91.1,53.3c0.2,1,0.7,4.6,0.9,5.6c-8.1,11.7-14.4,20.7-22.4,32.5l-21.4,0.2c13.1-19.1,26.2-38.1,39.4-57.2
		c0.3,0.7,0.2,1.4,0.4,2.1c0.3,1.7,0.6,3.4,0.9,5C89.6,45.4,90.3,49.4,91.1,53.3z"/>
	<path fill="#093452" d="M72.4,40.5c-8.1,11.7-28,39.4-36,51.1H17.1c13.1-19.1,38.6-55.9,51.7-74.9C69.2,17.4,72.2,39.5,72.4,40.5z"
		/>
	<g>
		<path fill="#093452" d="M74.9,139.3c-35,0-63.5-29.1-63.5-64.9c0-35.8,28.5-64.9,63.5-64.9c35,0,63.5,29.1,63.5,64.9
			C138.3,110.1,109.9,139.3,74.9,139.3z M74.9,14C42.4,14,16,41.1,16,74.3c0,33.2,26.4,60.3,58.9,60.3c32.5,0,58.9-27,58.9-60.3
			C133.8,41.1,107.4,14,74.9,14z"/>
	</g>
</g>
</svg>
