<?xml version="1.0" encoding="utf-8"?>
<!-- Generator: Adobe Illustrator 18.1.0, SVG Export Plug-In . SVG Version: 6.00 Build 0)  -->
<svg version="1.0" id="Layer_1" xmlns="http://www.w3.org/2000/svg" xmlns:xlink="http://www.w3.org/1999/xlink" x="0px" y="0px"
	 viewBox="0 0 150 150" enable-background="new 0 0 150 150" xml:space="preserve">
<g>
	<path fill="#005672" d="M45,101.4L33.7,136l29.4-21.4C55.8,112.1,49.5,107.5,45,101.4z"/>
	<path fill="#005672" d="M96.6,67.9c-4.1-8-12.4-13.2-21.5-13.2c-9.1,0-17.3,5.2-21.5,13.2H96.6z"/>
	<path fill="#005672" d="M86.7,43.3L75.3,8L63.9,43.2c3.6-1.1,7.4-1.7,11.3-1.7C79.2,41.4,83.1,42.1,86.7,43.3z"/>
	<path fill="#005672" d="M142.6,56.9h-37.1c4.5,6.1,7.2,13.6,7.2,21.7L142.6,56.9z"/>
	<path fill="#005672" d="M8,56.9l29.6,21.5c0.1-8,2.8-15.4,7.2-21.5H8z"/>
	<path fill="#005672" d="M105.5,101.1c-4.5,6.2-10.8,10.9-18.2,13.5l29.5,21.4L105.5,101.1z"/>
	<path fill="#005672" d="M73,79c0,1.2,1,2.2,2.2,2.2c1.2,0,2.2-1,2.2-2.2c0-1.2-1-2.2-2.2-2.2C73.9,76.9,73,77.8,73,79z"/>
	<path fill="#005672" d="M82,102.2c9.5-2.8,16.3-11,17.3-20.8C90.4,82.8,83.2,91.4,82,102.2z"/>
	<path fill="#005672" d="M51,81.5c1,9.8,7.8,18,17.3,20.8C67,91.4,59.9,82.8,51,81.5z"/>
	<path fill="#D56927" d="M110.5,79c0-19.5-15.8-35.4-35.4-35.4c-19.5,0-35.4,15.8-35.4,35.4c0,19.5,15.8,35.4,35.4,35.4
		C94.7,114.4,110.5,98.6,110.5,79z M100,70.2H50.2c3.7-10.3,13.4-17.7,24.9-17.7C86.6,52.5,96.4,59.9,100,70.2z M79.6,79
		c0,2.4-2,4.4-4.4,4.4c-2.4,0-4.4-2-4.4-4.4c0-2.4,2-4.4,4.4-4.4C77.6,74.6,79.6,76.6,79.6,79z M48.6,79c12.1,0,21.9,11.6,22.1,26.1
		C58.2,103,48.6,92.1,48.6,79z M79.6,105.1c0.2-14.4,10-26.1,22.1-26.1C101.7,92.1,92.1,103,79.6,105.1z"/>
</g>
</svg>
