<?xml version="1.0" encoding="utf-8"?>
<!-- Generator: Adobe Illustrator 14.0.0, SVG Export Plug-In . SVG Version: 6.00 Build 43363)  -->
<!DOCTYPE svg PUBLIC "-//W3C//DTD SVG 1.1//EN" "http://www.w3.org/Graphics/SVG/1.1/DTD/svg11.dtd">
<svg version="1.1" id="Layer_1" xmlns="http://www.w3.org/2000/svg" xmlns:xlink="http://www.w3.org/1999/xlink" x="0px" y="0px"
	 width="150px" height="150px" viewBox="0 0 150 150" enable-background="new 0 0 150 150" xml:space="preserve">
<g>
	<path fill="#DC1F26" d="M74.832,140.706c36.143,0,65.558-29.415,65.558-65.565c0-36.159-29.415-65.581-65.558-65.581
		c-36.151,0-65.581,29.422-65.581,65.581C9.251,111.291,38.681,140.706,74.832,140.706z M74.832,16.857
		c32.186,0,58.288,26.093,58.288,58.283c0,32.179-26.102,58.271-58.288,58.271c-32.171,0-58.271-26.093-58.271-58.271
		C16.56,42.95,42.661,16.857,74.832,16.857z"/>
	<path fill="#838587" d="M74.832,133.412c32.186,0,58.288-26.093,58.288-58.271c0-32.19-26.102-58.283-58.288-58.283
		c-32.171,0-58.271,26.093-58.271,58.283C16.56,107.319,42.661,133.412,74.832,133.412z M53.268,51.018
		c10.724,1.626,10.863-7.329,16.051-11.188c2.253-0.635,0.976,2.284,2.795,2.086c1.525-0.825,4.057-4.266,5.59-2.784
		c-0.913,0.008-0.867,1.917,0,2.095c2.749,0.163,2.594-2.524,5.599-2.095c2.268,0.546-3.453,2.436-0.713,3.48
		c3.314-0.039,6.883-0.372,7.673,2.095c-2.795-0.248-5.095,0.015-5.575,2.098c1.332,0.793,4.02-0.523,4.895,2.094
		c-0.821,0.112-1.99-0.104-2.084,0.705c12.676,16.612-9.353,27.363-12.589,41.176c5.087-12.489,23.05-23.852,38.194-19.617
		c3.833,1.069,7.479,3.078,10.693,6.376c-4.925-0.627-11.715-1.703-13.969,2.083c4.127,2.872,12.598,5.087,11.886,10.476
		c-2.114-5.404-12.505-6.039-17.468-6.287c1.045,3.167,2.471,5.931,3.492,9.082c-2.896-3.089-6.829-4.862-10.91-5.466
		c-10.305-1.511-21.586,4.8-19.82,18.729c0.131,0.278,0.324,0.379,0.487,0.619c3.384,5.079,11.978-1.037,14.185-1.332
		c-4.746,8.556-11.754,8.556-17.166,4.306c-5.683-4.437-9.609-13.542-7.278-22.438c-3.399,3.26-4.537,10.306-4.878,16.12
		c-0.302,4.963-0.015,9.021-0.015,9.021c-2.424-3.817-3.004-9.509-4.87-13.898c0,0-0.008-0.031-0.023-0.055v0.023
		c-0.751,2.292-1.44,4.359-1.386,4.158c-1.603,7.1-1.154,0.743-0.697-3.5c0.07-0.735,0.24-1.533,0.411-2.33
		c0.604-2.579,1.649-5.227,2.385-6.752c-1.595-0.944-2.633,1.804-2.795,0c4.251-5.729,5.846-8.997,7.673-13.952
		c6.558-1.905,18.823-7.41,13.968-13.991c-4.793,3.116-12.296,7.286-17.468,7.692c4.297-0.968,0.209-4.386,0-6.961
		c2.818-2.563,7.039-3.705,10.492-5.605c-5.072-1.882-9.841,2.148-15.362,2.09C52.703,58.076,53.338,54.181,53.268,51.018z
		 M30.024,75.249c0.658-0.287,1.224-0.62,1.75-1.053c0.131-0.108,0.248-0.248,0.395-0.368c0.302-0.317,0.697-0.562,0.906-0.948
		c-0.836-0.112-1.92,0.039-2.431-0.383c-0.17-0.128-0.294-0.275-0.341-0.523c0.124-0.069,0.193-0.189,0.302-0.278
		c2.749-1.998,4.839-4.615,6.148-8.014c2.524-0.658,1.858,1.839,3.693,1.839c2.741-1.839,4.545-4.654,7.371-6.431
		c1.75,5.289,10.909-1.649,12.884,0.921c-0.287,0.19-0.643,0.364-0.976,0.546c-4.483,2.536-11.514,5.083-11.947,9.798
		c-0.062,0.523-0.108,1.038,0.039,1.618c-0.101,0.016-0.132,0-0.201,0.016c-3.492,0.809-3.934-1.467-5.327-2.783
		c-2.741,5.625-11.498,13.662-17.994,7.73c-0.434-0.426-0.906-0.728-1.339-1.293C24.968,76.441,27.787,76.209,30.024,75.249z"/>
	<path fill="#DC1F26" d="M70.031,57.282c-3.453,1.9-7.673,3.042-10.492,5.605c0.209,2.575,4.297,5.993,0,6.961
		c5.172-0.407,12.675-4.576,17.468-7.692c4.854,6.581-7.41,12.086-13.968,13.991c-1.827,4.955-3.422,8.223-7.673,13.952
		c0.163,1.804,1.2-0.944,2.795,0c-0.736,1.525-1.781,4.173-2.385,6.752c-0.17,0.797-0.341,1.595-0.411,2.33
		c-0.457,4.243-0.906,10.6,0.697,3.5c-0.054,0.201,0.635-1.866,1.386-4.158V98.5c0.016,0.023,0.023,0.055,0.023,0.055
		c1.866,4.39,2.446,10.081,4.87,13.898c0,0-0.287-4.058,0.015-9.021c0.341-5.814,1.479-12.86,4.878-16.12
		c-2.331,8.896,1.595,18.002,7.278,22.438c5.412,4.25,12.419,4.25,17.166-4.306c-2.207,0.295-10.801,6.411-14.185,1.332
		c-0.163-0.24-0.356-0.341-0.487-0.619c-1.766-13.93,9.516-20.24,19.82-18.729c4.081,0.604,8.014,2.377,10.91,5.466
		c-1.021-3.151-2.447-5.915-3.492-9.082c4.963,0.248,15.354,0.883,17.468,6.287c0.712-5.389-7.759-7.604-11.886-10.476
		c2.254-3.786,9.044-2.71,13.969-2.083c-3.214-3.299-6.86-5.308-10.693-6.376c-15.145-4.235-33.107,7.127-38.194,19.617
		c3.236-13.813,25.265-24.564,12.589-41.176c0.094-0.809,1.263-0.592,2.084-0.705c-0.875-2.617-3.562-1.301-4.895-2.094
		c0.48-2.083,2.78-2.346,5.575-2.098c-0.79-2.466-4.358-2.133-7.673-2.095c-2.74-1.045,2.98-2.935,0.713-3.48
		c-3.005-0.43-2.85,2.257-5.599,2.095c-0.867-0.178-0.913-2.087,0-2.095c-1.533-1.482-4.065,1.959-5.59,2.784
		c-1.819,0.198-0.542-2.722-2.795-2.086c-5.188,3.859-5.327,12.814-16.051,11.188c0.07,3.163-0.565,7.058,1.401,8.354
		C60.19,59.431,64.959,55.4,70.031,57.282z"/>
	<path fill="#DC1F26" d="M24.295,76.937c6.496,5.932,15.253-2.105,17.994-7.73c1.394,1.316,1.835,3.592,5.327,2.783
		c0.069-0.016,0.101,0,0.201-0.016c-0.147-0.581-0.101-1.095-0.039-1.618c0.434-4.715,7.464-7.263,11.947-9.798
		c0.333-0.182,0.689-0.356,0.976-0.546c-1.975-2.57-11.134,4.367-12.884-0.921c-2.826,1.777-4.63,4.591-7.371,6.431
		c-1.835,0-1.169-2.497-3.693-1.839c-1.309,3.399-3.399,6.016-6.148,8.014c-0.108,0.089-0.178,0.209-0.302,0.278
		c0.046,0.248,0.17,0.395,0.341,0.523c0.511,0.422,1.595,0.271,2.431,0.383c-0.209,0.387-0.604,0.631-0.906,0.948
		c-0.147,0.12-0.264,0.259-0.395,0.368c-0.526,0.434-1.092,0.767-1.75,1.053c-2.238,0.96-5.056,1.192-7.069,0.395
		C23.389,76.209,23.861,76.511,24.295,76.937z"/>
	<path fill="#838587" d="M134.706,106.034c-0.55,1.146-1.224,2.199-1.843,3.268c-11.831,19.674-33.293,32.914-57.854,32.914
		c-37.266,0-67.594-30.352-67.594-67.609c0-7.015,1.254-13.724,3.26-20.081c0.155-1.897,0.457-3.759,0.821-5.605
		C7.354,57.704,5,67.464,5,77.819c0,37.924,30.87,68.81,68.802,68.81c24.591,0,46.008-13.108,58.179-32.573
		c1.967-4.561,3.577-9.167,4.848-13.132c-0.644,1.58-1.146,3.19-1.905,4.73C134.846,105.771,134.775,105.934,134.706,106.034z"/>
	<path fill="#838587" d="M124.54,23.76c-26.837-26.813-70.49-26.813-97.334,0c-5.273,5.281-9.345,11.27-12.458,17.619
		c-0.689,2.427-1.293,4.781-1.796,7c0.744-1.672,1.44-3.368,2.308-4.986c0.751-1.409,1.541-2.822,2.408-4.208
		c0.852-1.355,1.766-2.656,2.687-3.934c1.936-2.594,3.933-5.145,6.287-7.502c26.379-26.353,69.244-26.353,95.599,0
		c17.661,17.642,23.298,42.682,17.29,65.232c-0.287,3.376-0.922,6.752-1.921,9.958c0.426-1.092,0.999-2.122,1.387-3.26
		C149.797,74.552,145.02,44.255,124.54,23.76z"/>
</g>
</svg>
