<?xml version="1.0" encoding="iso-8859-1"?>
<!-- Generator: Adobe Illustrator 13.0.0, SVG Export Plug-In . SVG Version: 6.00 Build 14948)  -->
<!DOCTYPE svg PUBLIC "-//W3C//DTD SVG 1.1//EN" "http://www.w3.org/Graphics/SVG/1.1/DTD/svg11.dtd">
<svg version="1.1" id="Layer_1" xmlns="http://www.w3.org/2000/svg" xmlns:xlink="http://www.w3.org/1999/xlink" x="0px" y="0px"
	 width="100px" height="100px" viewBox="0 0 100 100" enable-background="new 0 0 100 100" xml:space="preserve">
<g>
	<g>
		<path fill="#272525" d="M46.697,97.993l-1.895-0.5L14.149,80.358c-3.226-0.677-5.641-3.534-5.644-6.956l0,0V29.517
			c0.003-3.471,2.49-6.369,5.792-6.991l0,0L45.575,7.079l0.165-0.037l1.554-0.367h5.572l0.16,0.037l1.506,0.34L86.998,22.52
			c3.316,0.608,5.824,3.51,5.827,6.997l0,0l0.003,43.886c-0.006,3.449-2.461,6.322-5.721,6.978l0,0L54.703,97.535l-0.179,0.043
			l-1.472,0.365l-0.176,0.05H46.697L46.697,97.993z M52.701,96.536V95.08V96.536L52.701,96.536z M46.566,9.834L15.192,25.329
			l-0.217,0.035c-2.006,0.306-3.569,2.059-3.563,4.153l0,0v43.886c-0.006,2.068,1.52,3.806,3.486,4.14l0,0l0.239,0.043
			l30.757,17.189l1.172,0.306h5.46l1.122-0.278l32.508-17.211l0.239-0.037c1.989-0.324,3.528-2.07,3.522-4.151l0,0V29.517
			c0.006-2.099-1.564-3.858-3.579-4.159l0,0l-0.217-0.032L53.573,9.818l-1.039-0.233h-4.899L46.566,9.834L46.566,9.834z"/>
	</g>
	<path fill="#1A77BB" d="M88.23,73.402c0,1.393-1.126,2.518-2.516,2.518L52.704,93.393h-5.822L15.618,75.92
		c-1.389,0-2.516-1.125-2.516-2.518V29.517c0-1.39,1.127-2.516,2.516-2.516l31.846-15.726h5.24L85.715,27
		c1.39,0,2.516,1.126,2.516,2.516V73.402z"/>
	<g>
		<path fill="#FFFFFF" d="M50.254,79.243c-2.737,0-5.267-0.5-7.581-1.501c-2.316-1-4.333-2.368-6.042-4.106
			c-1.713-1.737-3.053-3.765-4.028-6.082c-0.976-2.316-1.488-4.791-1.541-7.424V33.906c0-1.369,0.526-2.527,1.581-3.476
			c1.052-0.949,2.264-1.422,3.633-1.422c1.368,0,2.58,0.513,3.632,1.542c1.053,1.026,1.581,2.224,1.581,3.592v26.38
			c0,1.161,0.236,2.269,0.71,3.319c0.475,1.052,1.107,1.948,1.897,2.685c0.789,0.737,1.709,1.331,2.764,1.777
			c1.052,0.448,2.16,0.672,3.318,0.672c1.262,0,2.434-0.239,3.513-0.712c1.078-0.473,2.027-1.104,2.844-1.895
			c0.815-0.789,1.447-1.725,1.897-2.804c0.445-1.079,0.669-2.225,0.669-3.436V33.906c0-1.422,0.516-2.594,1.541-3.516
			c1.028-0.919,2.251-1.382,3.672-1.382c1.422,0.053,2.62,0.579,3.596,1.581c0.973,0.999,1.461,2.184,1.461,3.553v26.619
			c0,2.634-0.528,5.082-1.581,7.345c-1.055,2.265-2.447,4.226-4.185,5.884c-1.738,1.657-3.766,2.949-6.082,3.871
			C55.202,78.784,52.781,79.243,50.254,79.243z"/>
	</g>
</g>
</svg>
