<?xml version="1.0" encoding="utf-8"?>
<!-- Generator: Adobe Illustrator 18.1.0, SVG Export Plug-In . SVG Version: 6.00 Build 0)  -->
<svg version="1.0" id="Layer_1" xmlns="http://www.w3.org/2000/svg" xmlns:xlink="http://www.w3.org/1999/xlink" x="0px" y="0px"
	 viewBox="0 0 150 150" enable-background="new 0 0 150 150" xml:space="preserve">
<g>
	<path fill="#87C7E2" d="M93.1,63.9c3.3,3.1,3.4,6.6,3.5,9.7c0,0,0,0,0,0c1.2-2.2,0.5-5.9-1.7-9.5c0,0,0-0.1,0,0
		c2.2,1.7,2.9,4.6,3.2,7c0.8-1.4,0.2-3.4-0.5-5.4c0-0.1,0-0.1,0.1,0c0.6,0.7,1.2,1.4,1.5,2.5c0,0,0,0,0,0c0.1-3.7-4-6.8-8.5-8.2
		c-1.4-0.4-4.9-1.4-6.6-2.1c-0.1,0-0.1,0,0,0C86.2,59.6,90.6,61.7,93.1,63.9z"/>
	<path fill="#87C7E2" d="M84.9,64.5C84.8,64.4,84.8,64.5,84.9,64.5c1,1.6,1.9,3.3,2.8,4.9c2,3.9,2.9,6.3,2.3,10.4c0,0,0,0.1,0,0
		c2.8-3.6,0.8-7.9-2.7-12.9C86.7,66,85.7,65.2,84.9,64.5z"/>
	<path fill="#87C7E2" d="M79.7,59.6C79.7,59.6,79.7,59.6,79.7,59.6c0.1,2,1.1,7.1,1.2,9.3c0.2,2.9,0.5,5.3,2.5,7.5c0,0,0.1,0,0.1,0
		c-1.1-2.9-1.6-6.1-1.5-9.1c0-0.2,0.1-0.2,0.2,0c1,3.5,1.7,7.1,3.7,10.3c0.6,0.5,1.1,1,1.7,1.4c0,0,0.1,0,0.1,0
		c-1.3-2.4-2.5-5.8-2.7-8.6c0,0,0-0.1,0.1,0c1,2.4,2.6,6.9,4.2,8.6c0.6-1.7-0.9-6.2-2.1-8.5C85.4,67.1,81.6,62.2,79.7,59.6z"/>
	<path fill="#87C7E2" d="M67.5,81.3c-2.4-4.5-1.6-8.1,1.4-13c2.2-3.6,3.9-9.6,2.5-13.7c-0.8-2.3-3.1-5.9-3.9-7
		c0.1-0.3,0.2-0.5,0.3-0.8l2.6,0.7l0.1-2.9l2,0.5l0.5-0.7l1.1,0.3l0.5-1.9l0.5,0.1c0,0,0,0.2,0,0.4c0.6-0.1,1.2-0.2,1.8-0.3
		c0.2,2.3,0.5,5.1,1.5,7.8c1.4,3.9,6.6,6.7,13.3,8.7c5.3,1.6,8.4,4.5,8.7,8.8c0,0.6,0,1,0,1.2c0,0,0,0,0,0c1,1.7-1,3.9-1,3.9
		c-0.8,0.2-1.5,0.6-2,1.2c-0.3,0.3-0.8,0.8-1,1.1c-0.9,1.1-2.4,1.8-3.6,1.9c-0.3,0.5-0.6,0.9-1,1.2c0.2,0.2,0.4,0.4,0.7,0.6
		c0.8,0.2,2,0,2.4-1.1c0.1-0.2,0.2-0.1,0.2,0c0,0,0,0.1,0,0.1C95,78.7,95,78.8,94.9,79c-0.1,0.2-0.2,0.5-0.3,0.7
		c-0.7,0.5-2.1,0.7-3.4,0.3c-0.1,0-0.1,0,0,0.1c0.5,0.3,1.2,0.6,1.6,1.6c0.1,0.2,0.1,0.3,0.2,0.5c-0.2,0.5-0.3,1.1-0.2,1.6
		c-0.1,0.1-0.2,0.1-0.3,0.2l0.1-0.1c0,0,0-0.7-0.2-1.4c-0.4-1.4-1.3-1.7-2.8-1.1c-0.7,0.3-1.3,0.3-2.1,0.1c-0.1,0.6,0.1,1.2,0.5,1.6
		c1,1.1,2.1,0.4,2.7-0.9c0.3,1.1-0.4,2.1-1.4,2.3c-1.1,0.1-2.1-0.9-2.9-2.1c-0.6,1.1,1,2.8,2,3.5c0.9,0.7,2.1,0.2,2.8-0.1
		c-0.1,0.4-0.2,0.7-0.2,1.1c0,0-0.1,0.1-0.1,0.1l0.1-0.2c0,0-1.8,0.8-3-0.2c0.2,0.8,0.5,1.6,0.6,2.4c0.2,2.2-2,4.1-3.5,2.2
		c1.1,0.1,2.4-0.1,2.5-2.2c0-1-0.5-2.3-1.1-2.9c-0.1,0.7-0.6,1.3-1,1.8c0,0.2,0.1,0.4,0.2,0.6c0.1,0.2,0.7,0.3,1.1,0.3c0,0,0,0,0,0
		c-1.6,0.7-2.5-0.4-1.8-1.6c0.5-0.8,0.4-1.5-0.3-2.1c-0.1,0.9-0.2,1.4-1,2c-0.6,0.4-1,1.1-0.8,1.7c0.2,0.5,0.9,0.9,1.7,1
		c0.1,0,0.1,0,0.1,0.1c-1.1,1.1-3.2-0.4-2.5-2c0.1-0.2,0.9-1.2,1.1-1.6c0.2-0.5,0.4-1.2-0.2-1.7c-0.1,0-0.3,0.1-0.4,0.1
		c-0.1,0.4-0.3,0.7-0.6,0.9c-0.5,0.4-1.6,0.9-1.6,1.4c0,0.3,0.2,0.5,0.4,0.3c0.7-0.4,1.2,0.9,0.2,0.8c-0.9,0-1.8-0.8-1-1.7
		c0.3-0.3,1.3-0.9,1.4-1.3c-0.5,0.1-1.2,0-1.7-0.1c-0.2,0.2-0.3,1.1-0.4,1.6c-0.1,0.5-0.3,0.8-0.5,1c2.6,1.7,5.2,3.6,7.9,5.7
		c3.2-1.2,12.8-4.7,22.6-5.4c2-4.6,3-9.6,3-14.9c0-21.1-17.1-38.2-38.2-38.2c-21.1,0-38.2,17.1-38.2,38.2c0,0.3,0,0.6,0,0.9
		C43.1,73.7,54.3,75.1,67.5,81.3z M91.8,49.4c-0.5-0.3-0.9-0.7-1.2-1.2l0-0.1c0.6-1.7,2.7-2.1,4.7-0.5c0.6,0.4,0.9,1,1.3,1.6
		l-0.1,0.1C95.5,50.6,93.4,50.6,91.8,49.4z M95.9,53c-0.4-0.5-0.8-0.9-1-1.4l0-0.1c0.9-1.5,3.2-1.3,4.8,0.7c0.4,0.6,0.8,1.2,1,1.8
		l-0.1,0.1C99.4,55.1,97.3,54.5,95.9,53z M102,62.5c-0.3-0.6-0.4-1.2-0.4-1.7l0.1,0c1.4-0.8,3.6,0.5,4.4,3c0.2,0.7,0.4,1.3,0.3,2
		l-0.1,0C104.7,66,102.9,64.5,102,62.5z M103.8,67.9c-0.2-0.6-0.2-1.2-0.1-1.7l0.1,0c1.6-0.4,3.6,1.4,3.9,3.9c0.1,0.7,0,0.9-0.1,1.9
		h-0.1C105.8,72,104.2,70,103.8,67.9z M106.4,86.9c-0.1,0.2-0.3,0.3-0.5,0.2c-0.2-0.1-0.2-0.4-0.1-0.6c1.5-3.6,2.3-7.8,2.2-12.1
		c0-0.3,0.1-0.4,0.3-0.4c0.2,0,0.3,0.3,0.3,0.5C108.7,78.9,108,83.2,106.4,86.9z M110.2,65c0.4,0.6,0.7,1.4,0.9,2.2
		c0.6,2.9-0.6,5.1-2.3,5l-0.1,0c-0.3-0.6-0.4-1.3-0.5-2C107.8,67.6,108.5,65.4,110.2,65L110.2,65z M107.4,57.9L107.4,57.9
		c0.5,0.5,1,1.2,1.3,2c1.2,2.8,0.5,5.3-1.2,5.6l-0.1,0c-0.3-0.6-0.7-1.2-0.9-1.9C105.7,61.2,105.9,58.7,107.4,57.9z M103.5,51.4
		L103.5,51.4c0.6,0.4,1.2,0.9,1.6,1.6c1.7,2.5,1.4,5.3,0,6l-0.1,0c-0.5-0.5-0.9-1-1.2-1.7C102.6,55.2,102.3,52.6,103.5,51.4z
		 M103.4,57.6c0.3,0.6,0.6,1.3,0.7,1.9l-0.1,0c-1.6,0.7-3.4-0.4-4.7-2.1c-0.3-0.5-0.6-1.1-0.7-1.6l0.1-0.1
		C99.9,54.6,102.2,55.4,103.4,57.6z M98.6,45.9L98.6,45.9c0.6,0.2,1.3,0.6,1.8,1.2c2,2.2,2.4,5,1.1,6.1l-0.1,0.1
		c-0.5-0.4-1-0.8-1.4-1.4C98.4,49.9,97.7,47.3,98.6,45.9z M93,41.4L93,41.4c0.7,0.1,1.3,0.4,2,0.8c2.3,1.7,3.2,4.5,2.2,5.9l-0.1,0.1
		c-0.6-0.2-1.1-0.6-1.6-1.1C93.6,45.6,92.4,43.2,93,41.4z M86.5,42c1.4-1.2,4.2-0.4,5.6,1.7c0.4,0.6,0.6,1.2,0.8,1.7l-0.1,0
		c-1.7,0.6-3.8-0.2-5.3-1.9C87,43.2,86.7,42.6,86.5,42L86.5,42z M48.9,56.5c-1.3,1.7-3.5,2.6-5.1,2.1l-0.1,0
		c0.1-0.6,0.3-1.2,0.8-1.8c1.5-2.1,4-2.8,5.3-1.8l0.1,0.1C49.6,55.6,49.3,56.1,48.9,56.5z M52.8,52.4c-1.6,1.4-3.9,2-5.3,1l-0.1-0.1
		c0.2-0.6,0.6-1.1,1.1-1.6c1.8-1.9,4.3-2.1,5.3-0.8l0.1,0.1C53.7,51.6,53.3,52,52.8,52.4z M62.5,46.5c-2,0.7-4,0.4-4.7-1.2l0-0.1
		c0.5-0.4,1-0.9,1.7-1.2c2.4-1.1,4.5-0.3,4.6,1.5l0,0.1C63.6,46.1,63,46.3,62.5,46.5z M69.4,44.5c-0.5,0.3-1.1,0.5-1.6,0.5
		c-2,0.4-3.8-0.5-4.1-2.2l0-0.1c0.5-0.4,1.1-0.7,1.8-0.9c2.4-0.6,4.2,0.7,4,2.5L69.4,44.5z M75.7,40.7L75.7,40.7
		c-0.4,0.5-0.9,0.8-1.5,1.1c-2.1,0.9-4.4,0.7-5.6-0.6l-0.1-0.1c0.3-0.4,0.8-0.9,1.4-1.2C72.1,38.6,75,39.1,75.7,40.7z M68,37.3
		c0.8-0.1,1.5-0.1,2.1,0l0,0.1c-0.2,1.8-2.3,3.5-4.7,4.1c-0.7,0.1-1.3,0.3-1.9,0.2l0-0.1C63.2,39.9,65.2,37.8,68,37.3z M60.9,39.3
		c0.8-0.3,1.5-0.4,2.2-0.4l0,0.1c0.2,1.7-1.6,3.7-3.9,4.8c-0.6,0.3-1.3,0.5-1.9,0.6l0-0.1C56.6,42.7,58.2,40.3,60.9,39.3z
		 M58.8,47.8L58.8,47.8c-0.4,0.5-0.8,0.9-1.3,1.2c-1.9,1.1-4,1.2-5.1-0.1l-0.1-0.1c0.4-0.5,0.9-1,1.4-1.4
		C55.8,45.9,58.2,46.2,58.8,47.8z M54.1,42.6c0.7-0.4,1.4-0.7,2.1-0.9l0,0.1c0.6,1.6-0.7,3.8-2.8,5.3c-0.6,0.4-1.2,0.8-1.8,1
		L51.6,48C50.5,46.8,51.5,44.1,54.1,42.6z M47.9,47.2c0.6-0.5,1.3-1,2-1.3L50,46c1,1.4,0.1,3.7-1.6,5.5c-0.5,0.5-1.1,0.9-1.6,1.3
		l-0.1,0C45.2,51.8,45.7,49.2,47.9,47.2z M42.7,52.7c0.5-0.6,1.1-1.2,1.7-1.6l0.1,0c1.3,1,1,3.4-0.4,5.5c-0.4,0.6-0.8,1.1-1.4,1.6
		l-0.1,0C40.9,57.5,40.8,55,42.7,52.7z M41.7,60.3c0.1-0.2,0.4-0.4,0.5-0.3c0.2,0.1,0.2,0.3,0.1,0.5c-2,3.8-3.1,7.9-3.3,11.9
		c0,0.2-0.2,0.5-0.4,0.5c-0.2,0-0.4-0.1-0.3-0.4C38.5,68.5,39.7,64.3,41.7,60.3z"/>
	<path fill="#87C7E2" d="M76.9,86.1c0.1,0.2,0.2,0.5,0.4,0.6c0.1,0.1,0.2,0.1,0.3,0.2c0.1,0,0.1,0,0.2,0c0.4-0.1,0.9-1.1,0.4-1.7
		c-0.7,0.3-1.6,0.6-2.3,0.7c0.2,0.1,0.4,0.2,0.5,0.3c0-0.1,0.1-0.2,0.1-0.2C76.7,85.9,76.8,86,76.9,86.1z"/>
	<path fill="#87C7E2" d="M75.8,51.8c-0.7-2.4-0.5-5.4-0.2-7.9c-0.2-0.1-0.4-0.1-0.6-0.1c-0.1,0.6-0.2,1.3-0.2,1.9
		c-0.2,0.1-0.5,0.2-0.7,0.3C74.1,47.9,74.7,50.3,75.8,51.8C75.8,51.9,75.9,51.9,75.8,51.8z"/>
	<path fill="#87C7E2" d="M74.1,51.2c-0.5-1.5-1.3-4.5-1.8-5.4c-0.3,0-0.7,0-1,0C71.8,47.8,73,49.5,74.1,51.2
		C74.1,51.3,74.1,51.3,74.1,51.2z"/>
	<path fill="#87C7E2" d="M71.4,79.6c-0.7-1.8-1.2-4.3-0.8-6.6c0.1,0,0.2,0,0.3,0c0.1,2.9,1.9,10,4.6,10.8c-2.4-4.5-2.8-9.5-2.1-13.3
		c0.6-3.6,0.9-5.2,0.1-8.7c-0.7,1.6-3.1,8.3-3.5,9.9C69.3,74.1,69.3,78.1,71.4,79.6z"/>
	<path fill="#87C7E2" d="M82.2,84c0.2-0.1,0.2-0.2-0.1-0.3c-2.7-1.3-4.5-4.9-4.2-7.7c0,0,0,0,0.1,0c0.4,0.9,0.7,1.9,1.1,2.8
		c0.5,1,1.8,3.5,3.3,3.2c0.8-0.2,1.5-1.1,1.4-2.1c-1.2-1.9-2.9-5.2-3.4-6.8c-0.9-2.8-0.8-5.7-1.1-8.6c-0.4-3.8-1.3-5.8-2.9-9.8
		c0,0,0,0,0,0c0,2.1,1.2,4.6,1.3,6.5c0,0,0,0-0.1,0c-0.6-1.4-1.2-2.7-1.9-4.1c0,0,0,0,0,0c0.1,2.1-0.2,5.7-0.5,8.5
		c-0.3,3-1.6,9-0.6,12.1c0-1.3,0.8-5,1.1-5.9c0.5-1.4,0.7-3.2,1-4.6c0-0.1,0-0.1,0,0c0,2.1,0,4.2-0.3,6.4
		C75.2,81.7,78.6,85.3,82.2,84z"/>
	<path fill="#87C7E2" d="M75.3,85.3c-2.6-1.3-4.5-3.2-5.6-5.3c-1-1.9-1.3-3.3-1.1-5c0.3-2.1,1-4.7,1.6-6.8c0-0.1,0-0.1-0.1,0
		c-2.7,4-4.3,8.6-2.1,13c0.1,0.2,0.3,0.4,0.4,0.7c2.2,1.1,4.5,2.3,6.8,3.7c0,0,0.1,0,0.1,0C75.4,85.4,75.4,85.4,75.3,85.3z"/>
	<path fill="#87C7E2" d="M86.9,65.4c2.6,2.5,5.6,6.1,5.9,9.9c0,0,0,0,0,0c0.8-2.3-0.1-4.9-1.4-7.7c0,0,0,0,0,0
		c1.4,1.7,3,4.6,2.6,8.4c0,0,0,0.1,0,0c1.8-3.1-0.4-8.3-4.6-12.3c-0.1,0,0-0.1,0-0.1c2.7,1.8,4.4,4.2,5.3,6.4c0,0,0,0,0,0
		c-0.3-3.3-2.3-5-5.4-7.3c-0.9-0.6-5.1-3.2-6.2-4c-4.1-2.9-5.9-6.8-6.8-11.5c0-0.1,0-0.1,0,0C76.3,53,78.1,57.1,86.9,65.4z"/>
	<path fill="#87C7E2" d="M74.1,60.9C74.1,60.9,74.2,60.9,74.1,60.9c-0.1-2.5-0.7-5.8-1.3-8.4c0.1-0.2,0.1-0.4,0.2-0.7c0,0,0,0,0,0
		c0.6,1.4,0.9,2.7,1.2,4c0.1-0.1,0.1-0.1,0.2-0.2c-0.2-1.1-0.2-2.3-0.7-3.4c-0.3-0.7-1.8-3.3-2.1-4c-0.6,1-1.6,0.1-2.2-0.1
		c-0.2-0.1-0.2,0-0.1,0.2c1.4,2.1,3.6,6.9,3.9,10.4C73.6,59.4,73.8,60.1,74.1,60.9z"/>
	<path fill="#A8C257" d="M81,132.7l1,0.3c-0.4-0.2-0.7-0.3-0.9-0.3C81.1,132.6,81,132.6,81,132.7z"/>
	<path fill="#A8C257" d="M65.1,105.2c3.1,1.7,6,3.7,8.9,5.9c1.2,0,2.4-0.1,3.5-0.2c-13-10.2-25.9-14.8-35.6-16.8
		c0.6,0.9,1.2,1.8,1.9,2.6C51.3,98.5,58.4,101.4,65.1,105.2z"/>
	<path fill="#A8C257" d="M66.5,103.1c4,2.2,7.8,4.9,11.5,7.8c1-0.1,2-0.3,3.1-0.5c-14-11.6-28-16.5-38.4-18.5
		c-0.8-0.2-1.5-0.3-2.3-0.4c0.5,0.8,0.9,1.6,1.4,2.4C50.4,95.5,58.7,98.7,66.5,103.1z"/>
	<path fill="#A8C257" d="M52.1,104.3c3.5,1.4,6.9,3.1,10.2,5c2.1,0.7,4.3,1.1,6.5,1.4c-7.7-5.1-15.1-8.4-21.6-10.5
		C48.7,101.7,50.3,103.1,52.1,104.3z"/>
	<path fill="#A8C257" d="M75.1,85.5c-2.3-1.4-4.6-2.6-6.8-3.7C69.9,83.8,73,85.6,75.1,85.5z"/>
	<path fill="#A8C257" d="M60.8,108.8c-2.6-1.4-5.1-2.7-7.6-3.7C55.6,106.6,58.1,107.9,60.8,108.8z"/>
	<path fill="#A8C257" d="M76.6,88.2c7.1,4,13.8,9.2,20,15.3c5.4-4,9.7-9.5,12.4-15.7c-9.8,0.7-19.4,4.2-22.6,5.4
		c-2.7-2.1-5.3-4-7.9-5.7c-0.4,0.4-0.8,0.4-0.9,0.4c-0.2-0.2-0.4-0.4-0.7-0.5c-0.2-0.1-0.4-0.2-0.6-0.3c0-0.2,0-0.6,0.2-0.9
		c-0.2-0.1-0.4-0.2-0.5-0.3c-0.6,0.1-1,0.2-1.3,0.3c-0.1-0.1-0.1-0.1-0.2-0.1c-3.6-0.1-6-2.9-6.2-3.3l0.1,0.1c0,0,0,0,0,0
		c-0.1-0.1-0.2-0.2-0.3-0.4c-0.1-0.2-0.2-0.3-0.3-0.5c-0.1-0.2-0.2-0.3-0.3-0.5c-13.2-6.3-24.4-7.6-31.9-7.6c0,1.2,0.1,2.4,0.3,3.6
		c4.2,0,9.6,0.3,15.6,1.5C60.2,80.6,68.7,83.8,76.6,88.2z"/>
	<path fill="#A8C257" d="M63.7,107.3c1.9,1.1,3.8,2.3,5.6,3.5c1.4,0.2,2.8,0.3,4.3,0.3C63,103.3,52.7,99.2,44.2,97
		c0.8,1,1.7,2,2.6,2.9C52.6,101.7,58.3,104.2,63.7,107.3z"/>
	<path fill="#A8C257" d="M77.5,86.9c-0.1-0.1-0.2-0.1-0.3-0.2C77.3,86.8,77.4,86.9,77.5,86.9z"/>
	<path fill="#A8C257" d="M44.2,89.5c8.8,1.7,17.2,4.9,25.1,9.3c5.3,3,10.3,6.6,15.1,10.7c0.9-0.2,1.7-0.5,2.5-0.8
		C72,95.3,56.7,89.8,45.6,87.6c-2.6-0.5-5.1-0.9-7.5-1.1c0.3,0.7,0.6,1.4,0.9,2.1C40.7,88.9,42.4,89.1,44.2,89.5z"/>
	<path fill="#A8C257" d="M45.7,87.4c8.8,1.7,17.2,4.9,25.1,9.3c5.8,3.3,11.3,7.3,16.4,11.9c0.8-0.3,1.6-0.6,2.3-1
		C74.2,93.5,58.4,87.7,47,85.5c-3.5-0.7-6.8-1.1-9.7-1.3c0.2,0.7,0.5,1.4,0.7,2.1C40.4,86.5,43,86.9,45.7,87.4z"/>
	<path fill="#A8C257" d="M72.2,94.6c6.2,3.5,12.1,7.9,17.6,13c0.7-0.3,1.5-0.7,2.2-1.1C76.3,91.6,60.1,85.7,48.5,83.4
		c-4.3-0.8-8.3-1.3-11.8-1.4c0.2,0.7,0.3,1.3,0.5,2c3,0.2,6.3,0.6,9.9,1.3C55.9,87,64.3,90.1,72.2,94.6z"/>
	<path fill="#A8C257" d="M42.8,91.6c8.8,1.7,17.2,4.9,25.1,9.3c4.7,2.7,9.2,5.8,13.5,9.4c0.9-0.2,1.8-0.4,2.7-0.7
		c-14.5-12.6-29.2-17.8-40-19.9c-1.7-0.3-3.4-0.6-5-0.8c0.4,0.8,0.7,1.5,1.1,2.3C41.1,91.3,41.9,91.4,42.8,91.6z"/>
	<path fill="#A8C257" d="M73.7,92.5c6.6,3.7,12.7,8.4,18.5,13.9c0.7-0.4,1.4-0.8,2-1.2C78.3,89.7,61.7,83.6,49.9,81.3
		c-5.1-1-9.8-1.4-13.7-1.5c0.1,0.7,0.3,1.3,0.4,1.9c3.5,0.2,7.5,0.6,11.9,1.4C57.3,84.9,65.8,88,73.7,92.5z"/>
	<path fill="#A8C257" d="M75.1,90.4c6.9,3.9,13.3,8.8,19.3,14.7c0.7-0.4,1.3-0.9,1.9-1.3c-16.1-16-33-22.2-45-24.6
		c-6-1.2-11.2-1.5-15.5-1.5c0.1,0.6,0.2,1.3,0.3,1.9C40.1,79.6,44.8,80,50,81C58.8,82.7,67.2,85.9,75.1,90.4z"/>
	<path fill="#46853E" d="M96.3,103.7c0.1,0,0.1-0.1,0.2-0.1c-6.2-6.2-12.8-11.3-20-15.3c-7.9-4.5-16.4-7.6-25.1-9.3
		c-6-1.2-11.3-1.5-15.6-1.5c0,0.1,0,0.2,0,0.2c4.2,0,9.5,0.3,15.5,1.5C63.4,81.5,80.3,87.7,96.3,103.7z"/>
	<path fill="#46853E" d="M94.2,105.2c0.1,0,0.1-0.1,0.2-0.1c-6-5.9-12.4-10.8-19.3-14.7C67.2,85.9,58.8,82.7,50,81
		c-5.2-1-9.9-1.4-13.8-1.5c0,0.1,0,0.2,0,0.2c3.9,0.1,8.5,0.5,13.7,1.5C61.7,83.6,78.3,89.7,94.2,105.2z"/>
	<path fill="#46853E" d="M91.9,106.5c0.1,0,0.1-0.1,0.2-0.1c-5.7-5.5-11.9-10.2-18.5-13.9c-7.9-4.5-16.4-7.6-25.1-9.3
		c-4.4-0.9-8.4-1.3-11.9-1.4c0,0.1,0,0.2,0.1,0.2c3.5,0.2,7.5,0.6,11.8,1.4C60.1,85.7,76.3,91.6,91.9,106.5z"/>
	<path fill="#46853E" d="M89.5,107.7c0.1,0,0.2-0.1,0.3-0.1c-5.5-5.1-11.4-9.5-17.6-13c-7.9-4.5-16.4-7.6-25.1-9.3
		c-3.6-0.7-6.9-1.1-9.9-1.3c0,0.1,0,0.2,0.1,0.2c3,0.2,6.2,0.6,9.7,1.3C58.4,87.7,74.2,93.5,89.5,107.7z"/>
	<path fill="#46853E" d="M45.6,87.6c11.1,2.2,26.4,7.7,41.4,21.1c0.1,0,0.2-0.1,0.3-0.1C82,104,76.6,100,70.8,96.7
		c-7.9-4.5-16.4-7.6-25.1-9.3c-2.7-0.5-5.3-0.9-7.7-1.1c0,0.1,0.1,0.2,0.1,0.2C40.4,86.7,42.9,87.1,45.6,87.6z"/>
	<path fill="#46853E" d="M44.1,89.7c10.8,2.1,25.5,7.3,40,19.9c0.1,0,0.2-0.1,0.3-0.1c-4.8-4.2-9.8-7.8-15.1-10.7
		c-7.9-4.5-16.3-7.6-25.1-9.3c-1.8-0.4-3.6-0.6-5.2-0.8c0,0.1,0.1,0.2,0.1,0.3C40.7,89.1,42.4,89.4,44.1,89.7z"/>
	<path fill="#46853E" d="M42.7,91.8c10.4,2,24.4,7,38.4,18.5c0.1,0,0.2,0,0.3-0.1c-4.3-3.6-8.8-6.7-13.5-9.4
		c-7.9-4.5-16.4-7.6-25.1-9.3c-0.9-0.2-1.7-0.3-2.6-0.5c0.1,0.1,0.1,0.2,0.2,0.3C41.1,91.6,41.9,91.7,42.7,91.8z"/>
	<path fill="#46853E" d="M77.6,110.9c0.1,0,0.2,0,0.4,0c-3.7-2.9-7.5-5.5-11.5-7.8c-7.8-4.4-16.1-7.5-24.7-9.3
		c0.1,0.1,0.1,0.2,0.2,0.3C51.7,96.1,64.6,100.7,77.6,110.9z"/>
	<path fill="#46853E" d="M73.6,111.1c0,0,0.1,0,0.1,0c0.1,0,0.2,0,0.3,0c-2.9-2.2-5.9-4.1-8.9-5.9c-6.7-3.8-13.9-6.7-21.2-8.5
		c0.1,0.1,0.2,0.2,0.2,0.3C52.7,99.2,63,103.3,73.6,111.1z"/>
	<path fill="#46853E" d="M14.3,97.1c-0.3,0.1-0.5,0.1-0.5,0.1l0,0.2c0,0,0.3-0.1,0.7-0.1C14.4,97.2,14.3,97.2,14.3,97.1z"/>
	<path fill="#46853E" d="M68.8,110.7c0.2,0,0.4,0.1,0.6,0.1c-1.8-1.3-3.7-2.5-5.6-3.5c-5.4-3.1-11.1-5.6-17-7.4
		c0.1,0.1,0.3,0.3,0.4,0.4C53.7,102.3,61.1,105.6,68.8,110.7z"/>
	<path fill="#46853E" d="M12.6,99.1l0,0.2c0,0,1.4-0.3,3.9-0.5c-0.1-0.1-0.2-0.1-0.4-0.2C13.9,98.8,12.7,99.1,12.6,99.1z"/>
	<path fill="#46853E" d="M53.3,105.1c2.4,1.1,5,2.3,7.6,3.7c0.5,0.2,1,0.3,1.5,0.5c-3.3-1.9-6.7-3.6-10.2-5
		C52.5,104.6,52.9,104.8,53.3,105.1z"/>
	<path fill="#B8C459" d="M133.3,73.1L133.3,73.1V73c0-0.5,0.6-1.2,1.6-2.5l0-0.1c1.2-1.5,2.6-3.1,2.4-5.1c-0.2-1.9-1.9-3.2-3.5-4.4
		c-1.5-1.1-2-1.6-2.2-2l0-0.1l0-0.1c-0.1-0.5,0.3-1.4,1-2.9c0.9-1.8,1.8-3.7,1.1-5.5c-0.7-1.8-2.6-2.6-4.5-3.4
		c-1.7-0.7-2.4-1.1-2.6-1.4l0-0.1l0-0.1c-0.2-0.5-0.1-1.3,0.3-2.9l0-0.1c0.4-1.9,0.8-4-0.3-5.6c-1.1-1.6-3.2-1.9-5.2-2.2
		c-1.8-0.3-2.6-0.5-2.9-0.8l-0.1,0l0-0.1c-0.3-0.4-0.4-1.3-0.4-3c-0.1-2-0.1-4.1-1.6-5.4c-1.1-1-2.5-1.1-3.5-1.1
		c-0.6,0-1.3,0.1-2,0.1l-0.1,0c-0.6,0.1-1.2,0-1.8,0c-0.4,0-0.8-0.2-1-0.2h-0.1l-0.2,0c-0.4-0.3-0.7-1.1-1.1-2.7l0,0
		c-0.5-1.9-1.1-3.9-2.8-4.8c-0.6-0.3-1.2-0.4-1.9-0.4c-1.2,0-2.5,0.4-3.7,0.9l-0.1,0c-0.9,0.3-1.9,0.9-2.6,0.9
		c-0.1,0-0.1,0.2-0.2,0.2H95l-0.1-0.3c-0.5-0.3-0.9-1.1-1.7-2.5c-1-1.8-2-3.6-3.9-4.1c-0.3-0.1-0.6-0.1-0.9-0.1
		c-1.6,0-3,0.9-4.4,1.8c-1.6,1-2.3,1.3-2.7,1.3h-0.1L81,14c-0.5-0.1-1.2-0.8-2.3-1.9c-1.4-1.5-2.9-3-4.8-3c-2,0-3.4,1.5-4.8,3
		c-1.3,1.3-1.8,1.8-2.2,1.9l-0.1,0h-0.1c-0.5,0-1.4-0.5-2.8-1.3c-1.4-0.9-2.9-1.8-4.4-1.8c-0.3,0-0.6,0-0.9,0.1
		c-1.9,0.5-3,2.4-4,4.1c-0.8,1.4-1.3,2.1-1.7,2.4l-0.1,0l0,0c-0.1,0-0.2,0-0.3,0c-0.7,0-1.7-0.3-2.7-0.7l-0.1,0
		c-1.2-0.4-2.5-0.8-3.7-0.8c-0.7,0-1.3,0.1-1.9,0.4c-1.7,0.9-2.3,2.9-2.8,4.9c-0.5,1.8-0.8,2.4-1.1,2.7l-0.2,0h-0.1
		c-0.3,0-0.6,0.2-1.1,0.2c-0.6,0-1.2,0-1.8,0l-0.1,0c-0.6-0.1-1.3-0.1-2-0.1c-1,0-2.4,0.1-3.5,1.1c-1.5,1.3-1.5,3.5-1.6,5.4
		c-0.1,1.9-0.2,2.6-0.4,3l0,0.1l-0.1,0c-0.4,0.3-1.2,0.5-2.9,0.8c-2,0.3-4.1,0.6-5.2,2.2c-1.1,1.6-0.7,3.7-0.3,5.6
		c0.3,1.7,0.5,2.5,0.3,3l0,0.1l0,0.1c-0.3,0.4-0.9,0.8-2.6,1.5c-1.8,0.7-3.8,1.6-4.5,3.4c-0.7,1.8,0.2,3.7,1.1,5.5
		c0.7,1.5,1.1,2.4,1,2.9l0,0.1l0,0.1c-0.2,0.5-0.9,1.1-2.2,2c-1.6,1.2-3.3,2.5-3.5,4.4c-0.2,1.9,1.1,3.5,2.4,5.1
		c1.1,1.3,1.6,2,1.7,2.6l0,0.1l0,0.1c-0.1,0.5-0.6,1.3-1.7,2.6c-1.3,1.5-2.6,3.1-2.3,5c0.2,2,2,3.3,3.6,4.4l0.1,0
		c1.3,1,1.9,1.5,2.1,2l0,0.1l0,0.1c0.1,0.5-0.3,1.4-1,2.9c-0.8,1.7-1.8,3.7-1.1,5.5c0.7,1.8,2.6,2.6,4.5,3.4c1.5,0.7,2.3,1,2.6,1.4
		l0,0.1l0,0.1c0.2,0.5,0.1,1.4-0.3,3c-0.4,1.9-0.8,4,0.3,5.6c1.1,1.6,3.2,1.9,5.2,2.2c1.7,0.3,2.5,0.4,2.9,0.8l0.1,0l0,0.1
		c0.3,0.4,0.4,1.2,0.4,3c0.1,2,0.1,4.1,1.6,5.4c1.1,0.9,2.5,1.1,3.5,1.1c0.7,0,1.4-0.1,2-0.1l0.1,0c0.6-0.1,1.2,0,1.7,0
		c0.4,0,0.8,0.2,1,0.2H40l0.2,0c0.4,0.3,0.7,1.1,1.1,2.7l0,0c0.5,1.9,1.1,3.9,2.8,4.9c0.5,0.3,1.2,0.4,1.9,0.4
		c1.2,0,2.5-0.4,3.7-0.8l0.1,0c0.9-0.3,1.9-0.4,2.6-0.4c0.1,0,0.1,0.3,0.2,0.3h0.1l0.1-0.2c0.5,0.3,1,0.9,1.8,2.3c1,1.8,2,3.5,3.9,4
		c0.3,0.1,0.6,0.1,0.9,0.1c1.6,0,3-0.9,4.4-1.8c1.4-0.9,2.2-1.4,2.7-1.4h0.1l0.1,0c0.5,0.1,1.2,0.7,2.3,1.9c1.3,1.4,2.9,3,4.8,3
		c2,0,3.5-1.6,4.8-3c1.1-1.2,1.7-1.8,2.2-1.9l0.1,0h0.1c0.5,0,1.4,0.5,2.7,1.3c1.4,0.9,2.9,1.8,4.4,1.8c0.3,0,0.6,0,0.9-0.1
		c1.9-0.5,3-2.4,3.9-4.1c0.8-1.4,1.3-2.2,1.7-2.4l0,0l0,0c0.1,0,0.2,0,0.3,0c0.7,0,1.7,0.3,2.7,0.7c1.2,0.4,2.5,0.8,3.7,0.8
		c0.7,0,1.3-0.1,1.9-0.4c1.7-0.9,2.3-2.9,2.8-4.9c0.5-1.8,0.8-2.5,1.1-2.8l0.1-0.1l0.1,0c0.2-0.1,0.7-0.2,1.2-0.2
		c0.5,0,1.1,0,1.8,0.1c0.7,0.1,1.4,0.1,2,0.1c1,0,2.4-0.1,3.5-1.1c1.5-1.3,1.5-3.5,1.6-5.4c0.1-1.7,0.1-2.6,0.4-3l0-0.1l0.1-0.1
		c0.4-0.3,1.2-0.5,2.8-0.8l0.1,0c1.9-0.3,4.1-0.6,5.2-2.2c1.1-1.6,0.7-3.7,0.3-5.6c-0.4-1.9-0.5-2.6-0.3-3l0-0.1l0-0.1
		c0.3-0.4,0.9-0.8,2.6-1.5c1.8-0.7,3.8-1.6,4.5-3.4c0.7-1.8-0.2-3.7-1.1-5.5c-0.7-1.5-1.1-2.3-1-2.8l0-0.1l0-0.1
		c0.2-0.5,0.9-1.1,2.2-2c1.6-1.2,3.3-2.5,3.5-4.4c0.2-1.9-1.1-3.5-2.4-5.1C133.9,74.3,133.3,73.6,133.3,73.1z M73.8,129.6
		c-31.3,0-56.7-25.4-56.7-56.7c0-31.3,25.4-56.7,56.7-56.7c31.3,0,56.7,25.4,56.7,56.7C130.5,104.2,105,129.6,73.8,129.6z"/>
	<path fill="#EA7025" d="M73.8,16.2c-31.3,0-56.7,25.4-56.7,56.7c0,31.3,25.4,56.7,56.7,56.7c31.3,0,56.7-25.4,56.7-56.7
		C130.5,41.6,105,16.2,73.8,16.2z M73.8,129c-31,0-56.1-25.1-56.1-56.1c0-31,25.1-56.1,56.1-56.1c31,0,56.1,25.1,56.1,56.1
		C129.9,103.9,104.7,129,73.8,129z"/>
	<path fill="#86603E" d="M133.9,73c0-0.4,1-1.6,1.5-2.3c1.3-1.6,2.8-3.3,2.5-5.5c-0.3-2.2-2.1-3.6-3.8-4.9c-0.7-0.5-1.8-1.4-2-1.7
		c-0.1-0.4,0.6-1.8,0.9-2.5c0.9-1.8,1.9-3.9,1.1-6c-0.8-2.1-2.9-3-4.8-3.8c-0.8-0.3-2.1-0.9-2.3-1.2c-0.2-0.4,0.1-1.8,0.3-2.7
		c0.4-2,0.9-4.3-0.4-6.1c-1.3-1.8-3.6-2.2-5.6-2.5c-0.9-0.1-2.3-0.4-2.6-0.6c-0.2-0.4-0.3-1.8-0.3-2.7c-0.1-2.1-0.2-4.4-1.8-5.8
		c-1.2-1.1-2.8-1.2-3.9-1.2c-0.7,0-1.4,0.1-2.1,0.1c-0.6,0.1-1.2,0.1-1.7,0.1c-0.7,0-0.9-0.1-0.9-0.1c-0.3-0.3-0.7-1.7-1-2.5
		c-0.6-2-1.2-4.2-3.2-5.3c-0.6-0.3-1.4-0.5-2.2-0.5c-1.3,0-2.6,0.4-3.9,0.9c-0.9,0.3-1.9,0.7-2.5,0.7c-0.1,0-0.1,0-0.1,0
		c0,0,0,0,0,0c-0.4,0-1.1-1.5-1.5-2.2c-1-1.8-2.2-3.8-4.3-4.4c-0.3-0.1-0.7-0.1-1-0.1c-1.7,0-3.3,1-4.8,1.9c-0.7,0.5-2,1.2-2.4,1.3
		c-0.4-0.1-1.4-1.1-2-1.7c-1.4-1.5-3-3.2-5.3-3.2c-2.2,0-3.8,1.7-5.3,3.2c-0.6,0.6-1.6,1.6-2,1.7c-0.5,0-1.7-0.8-2.4-1.3
		c-1.5-1-3-1.9-4.8-1.9c-0.4,0-0.7,0-1,0.1c-2.2,0.5-3.3,2.6-4.3,4.4c-0.4,0.7-1.1,2-1.5,2.2c0,0,0,0-0.1,0c-0.6,0-1.6-0.3-2.5-0.6
		c-1.3-0.4-2.6-0.9-3.9-0.9c-0.8,0-1.5,0.2-2.2,0.5c-2,1-2.6,3.3-3.2,5.3c-0.2,0.8-0.6,2.2-0.9,2.5c0,0-0.2,0.1-1,0.1
		c-0.5,0-1.1,0-1.7-0.1c-0.7-0.1-1.4-0.1-2.1-0.1c-1.1,0-2.7,0.1-3.9,1.2c-1.7,1.5-1.7,3.8-1.8,5.8c0,0.9-0.1,2.3-0.3,2.6
		c-0.3,0.3-1.7,0.5-2.6,0.6c-2,0.3-4.3,0.7-5.6,2.5c-1.3,1.8-0.8,4.1-0.4,6.1c0.2,0.8,0.5,2.3,0.3,2.7c-0.2,0.4-1.6,0.9-2.4,1.2
		c-1.9,0.8-4,1.7-4.8,3.8c-0.8,2.1,0.2,4.1,1.1,6c0.4,0.8,1,2.1,1,2.5c-0.2,0.4-1.3,1.3-2,1.8c-1.7,1.2-3.5,2.6-3.8,4.8
		c-0.3,2.2,1.2,4,2.5,5.5c0.6,0.7,1.5,1.8,1.5,2.2c0,0.4-1,1.6-1.5,2.3c-1.3,1.6-2.8,3.3-2.5,5.5c0.3,2.2,2.1,3.6,3.8,4.8
		c0.7,0.5,1.8,1.4,2,1.7c0.1,0.4-0.6,1.8-0.9,2.5c-0.9,1.8-1.9,3.9-1.1,6c0.2,0.5,0.4,0.9,0.7,1.2c0.1,0.1,0.1,0.1,0.2,0.2
		c0.5,0.5,1.1,0.9,1.7,1.3c0.1,0.1,0.2,0.1,0.4,0.2c0.6,0.3,1.3,0.6,1.9,0.9c0.8,0.3,2.1,0.9,2.3,1.2c0.2,0.4-0.1,1.8-0.3,2.7
		c-0.4,2-0.9,4.3,0.4,6.1c1.3,1.8,3.6,2.2,5.6,2.5c0.9,0.1,2.3,0.4,2.6,0.6c0.2,0.4,0.3,1.8,0.3,2.7c0.1,2.1,0.2,4.4,1.8,5.8
		c1.2,1.1,2.8,1.2,3.9,1.2c0.7,0,1.4-0.1,2.1-0.1c0.6-0.1,1.2-0.1,1.7-0.1c0.7,0,0.9,0.1,0.9,0.1c0.3,0.3,0.7,1.7,1,2.5
		c0.6,2,1.2,4.2,3.2,5.2c0.6,0.3,1.4,0.5,2.2,0.5c1.3,0,2.6-0.4,3.9-0.9c0.9-0.3,1.9-0.7,2.5-0.7c0.1,0,0.1-0.1,0.1-0.1c0,0,0,0,0,0
		c0.4,0,1.1,1.5,1.5,2.2c1,1.8,2.2,3.8,4.3,4.4c0.3,0.1,0.7,0.1,1,0.1c1.7,0,3.3-1,4.8-1.9c0.7-0.5,2-1.2,2.4-1.2
		c0.4,0.1,1.4,1.1,2,1.7c1.4,1.5,3,3.2,5.3,3.2c2.2,0,3.8-1.7,5.3-3.2c0.5-0.5,1.4-1.4,1.8-1.7c0.1,0,0.1-0.1,0.1-0.1
		c0.2,0,0.5,0.1,0.9,0.3c0.5,0.3,1.1,0.7,1.5,0.9c1.5,1,3,1.9,4.8,1.9c0.3,0,0.7,0,1-0.1c2.2-0.5,3.3-2.6,4.3-4.4
		c0.4-0.7,1.1-2,1.5-2.2c0,0,0,0,0.1,0c0.6,0,1.6,0.3,2.5,0.6c1.3,0.4,2.6,0.9,3.9,0.9c0.8,0,1.5-0.2,2.2-0.5c2-1,2.6-3.3,3.2-5.2
		c0.2-0.8,0.6-2.2,0.9-2.5c0,0,0.2-0.1,1-0.1c0.5,0,1.1,0,1.7,0.1c0.7,0.1,1.4,0.1,2.1,0.1c1.1,0,2.7-0.1,3.9-1.2
		c1.7-1.5,1.7-3.8,1.8-5.8c0-0.9,0.1-2.3,0.3-2.6c0.3-0.3,1.8-0.5,2.6-0.7c2-0.3,4.3-0.7,5.6-2.5c1.3-1.8,0.8-4.1,0.4-6.1
		c-0.2-0.8-0.5-2.3-0.3-2.7c0.2-0.4,1.6-0.9,2.4-1.2c1.9-0.8,4-1.7,4.8-3.8c0.8-2.1-0.2-4.1-1.1-6c-0.4-0.8-1-2.1-0.9-2.5
		c0.2-0.4,1.3-1.3,2-1.8c1.6-1.2,3.5-2.6,3.8-4.8c0.3-2.2-1.2-4-2.5-5.5C134.9,74.6,133.9,73.4,133.9,73z M137.3,80.7
		c-0.2,2-2,3.3-3.5,4.4c-1.3,1-2,1.6-2.2,2l0,0.1l0,0.1c-0.1,0.5,0.3,1.3,1,2.8c0.9,1.9,1.8,3.7,1.1,5.5c-0.7,1.8-2.7,2.7-4.5,3.4
		c-1.7,0.7-2.4,1.1-2.6,1.5l0,0.1l0,0.1c-0.2,0.4-0.1,1.2,0.3,3c0.4,1.9,0.8,4-0.3,5.6c-1.1,1.6-3.3,1.9-5.2,2.2l-0.1,0
		c-1.6,0.3-2.4,0.4-2.8,0.8l-0.1,0.1l0,0.1c-0.3,0.4-0.4,1.3-0.4,3c-0.1,1.9-0.1,4.1-1.6,5.4c-1.1,0.9-2.5,1.1-3.5,1.1
		c-0.7,0-1.3-0.1-2-0.1c-0.7-0.1-1.3-0.1-1.8-0.1c-0.6,0-1,0.1-1.2,0.2l-0.1,0l-0.1,0.1c-0.3,0.3-0.6,1-1.1,2.8
		c-0.5,1.9-1.1,4-2.8,4.9c-0.5,0.3-1.2,0.4-1.9,0.4c-1.2,0-2.5-0.4-3.7-0.8c-1-0.3-2-0.7-2.7-0.7c-0.2,0-0.3,0-0.3,0l0,0l0,0
		c-0.4,0.2-0.9,1-1.7,2.4c-1,1.7-2,3.6-3.9,4.1c-0.3,0.1-0.6,0.1-0.9,0.1c-1.6,0-3-0.9-4.4-1.8c-1.4-0.9-2.2-1.3-2.7-1.3H81l-0.1,0
		c-0.5,0.1-1.1,0.7-2.2,1.9c-1.4,1.4-2.9,3-4.8,3c-2,0-3.5-1.6-4.8-3c-1.1-1.2-1.8-1.8-2.3-1.9l-0.1,0h-0.1c-0.5,0-1.3,0.4-2.7,1.3
		c-1.4,0.9-2.9,1.8-4.4,1.8c-0.3,0-0.6,0-0.9-0.1c-1.9-0.5-2.9-2.3-3.9-4.1c-0.8-1.4-1.3-1.9-1.8-2.2l-0.1,0.2h-0.1
		c0,0-0.1-0.3-0.2-0.3c-0.7,0-1.7,0.2-2.6,0.5l-0.1,0c-1.2,0.4-2.5,0.8-3.7,0.8c-0.7,0-1.3-0.2-1.9-0.4c-1.7-0.9-2.3-3-2.8-4.9
		l0-0.1c-0.5-1.6-0.7-2.3-1.1-2.6l-0.2,0h-0.1c-0.3,0-0.6-0.2-1-0.2c-0.5,0-1.1,0-1.7,0l-0.1,0c-0.7,0.1-1.4,0.1-2,0.1
		c-1,0-2.4-0.1-3.5-1.1c-1.5-1.3-1.5-3.4-1.6-5.4c-0.1-1.8-0.2-2.6-0.4-3l0-0.1l-0.1,0c-0.4-0.3-1.2-0.5-2.9-0.8
		c-2-0.3-4.1-0.6-5.2-2.2c-1.1-1.6-0.7-3.7-0.3-5.6c0.3-1.6,0.5-2.5,0.3-3l0-0.1l0-0.1c-0.3-0.4-1.1-0.8-2.6-1.4
		c-1.9-0.8-3.8-1.6-4.5-3.4c-0.7-1.8,0.2-3.8,1.1-5.5c0.7-1.5,1.1-2.4,1-2.9l0-0.1l0-0.1c-0.2-0.5-0.8-1-2.1-2l-0.1,0
		c-1.6-1.2-3.3-2.5-3.6-4.4c-0.2-1.9,1.1-3.5,2.3-5c1.1-1.3,1.7-2.1,1.7-2.6l0-0.1l0-0.1c-0.1-0.5-0.6-1.2-1.7-2.6
		c-1.3-1.6-2.6-3.2-2.4-5.1c0.2-2,2-3.3,3.5-4.4c1.3-0.9,2-1.6,2.2-2l0-0.1l0-0.1c0.1-0.5-0.3-1.4-1-2.9c-0.9-1.8-1.8-3.7-1.1-5.5
		c0.7-1.8,2.7-2.7,4.5-3.4c1.7-0.7,2.4-1.1,2.6-1.5l0-0.1l0-0.1c0.2-0.5,0.1-1.3-0.3-3c-0.4-1.9-0.8-4,0.3-5.6
		c1.1-1.6,3.2-1.9,5.2-2.2c1.7-0.3,2.5-0.4,2.9-0.8l0.1,0l0-0.1c0.3-0.4,0.4-1.1,0.4-3c0.1-1.9,0.1-4.1,1.6-5.4
		c1.1-1,2.5-1.1,3.5-1.1c0.6,0,1.3,0.1,2,0.1l0.1,0c0.6,0.1,1.2,0,1.8,0c0.5,0,0.8-0.2,1.1-0.2h0.1l0.2,0c0.3-0.3,0.6-0.9,1.1-2.7
		c0.6-1.9,1.1-3.9,2.8-4.8c0.5-0.3,1.2-0.4,1.9-0.4c1.2,0,2.4,0.4,3.7,0.8l0.1,0c1,0.3,2,0.7,2.7,0.7c0.2,0,0.3,0,0.3,0l0,0l0.1,0
		c0.4-0.2,0.9-0.9,1.7-2.4c1-1.7,2.1-3.6,4-4.1c0.3-0.1,0.6-0.1,0.9-0.1c1.5,0,3,0.9,4.4,1.8c1.4,0.9,2.2,1.3,2.8,1.3h0.1l0.1,0
		c0.4-0.1,1-0.6,2.2-1.9c1.4-1.5,2.9-3,4.8-3c2,0,3.4,1.5,4.8,3c1.1,1.1,1.8,1.8,2.3,1.9l0.1,0h0.1c0.5,0,1.1-0.3,2.7-1.3
		c1.4-0.9,2.9-1.8,4.4-1.8c0.3,0,0.6,0,0.9,0.1c1.9,0.5,2.9,2.3,3.9,4.1c0.8,1.4,1.3,2.4,1.7,2.7L95,18h0.1c0,0,0.1-0.2,0.2-0.2
		c0.7,0,1.6-0.4,2.6-0.8l0.1-0.1c1.2-0.4,2.5-0.9,3.7-0.9c0.7,0,1.3,0.1,1.9,0.4c1.7,0.9,2.3,3,2.8,4.9l0,0.1
		c0.5,1.6,0.7,2.2,1.1,2.6l0.2,0h0.1c0.3,0,0.6,0.2,1,0.2c0.6,0,1.2,0,1.8,0l0.1,0c0.6-0.1,1.3-0.1,2-0.1c1,0,2.4,0.1,3.5,1.1
		c1.5,1.3,1.5,3.4,1.6,5.4c0.1,1.7,0.1,2.6,0.4,3l0,0.1l0.1,0c0.3,0.3,1.1,0.5,2.9,0.8c2,0.3,4.1,0.6,5.2,2.2
		c1.1,1.6,0.7,3.7,0.3,5.6l0,0.1c-0.3,1.6-0.4,2.5-0.3,2.9l0,0.1l0,0.1c0.3,0.4,0.9,0.7,2.6,1.4c1.9,0.8,3.8,1.6,4.5,3.4
		c0.7,1.8-0.2,3.7-1.1,5.5c-0.7,1.5-1.1,2.4-1,2.9l0,0.1l0,0.1c0.2,0.4,0.7,0.9,2.2,2c1.6,1.2,3.3,2.5,3.5,4.4
		c0.2,1.9-1.1,3.6-2.4,5.1l0,0.1c-1.1,1.3-1.6,2-1.6,2.5l0,0.1l0,0.1c0.1,0.5,0.6,1.2,1.7,2.6C136.2,77.2,137.6,78.8,137.3,80.7z"/>
	<path fill="#6B4B2C" d="M73.8,16.8c-31,0-56.1,25.1-56.1,56.1c0,31,25.1,56.1,56.1,56.1c31,0,56.1-25.1,56.1-56.1
		C129.9,41.9,104.7,16.8,73.8,16.8z M32.2,72.9c0-22.9,18.7-41.6,41.6-41.6c22.9,0,41.6,18.7,41.6,41.6c0,22.9-18.7,41.6-41.6,41.6
		C50.8,114.5,32.2,95.8,32.2,72.9z"/>
	<path fill="#86603E" d="M73.8,114c22.7,0,41.1-18.4,41.1-41.1c0-22.7-18.4-41.1-41.1-41.1c-22.7,0-41.1,18.4-41.1,41.1
		C32.7,95.6,51.1,114,73.8,114z M33.9,72.9c0-22,17.8-39.8,39.8-39.8c22,0,39.8,17.8,39.8,39.8c0,22-17.8,39.8-39.8,39.8
		C51.8,112.7,33.9,94.9,33.9,72.9z"/>
	<path fill="#F8A91B" d="M73.8,114.5c22.9,0,41.6-18.7,41.6-41.6c0-22.9-18.7-41.6-41.6-41.6c-22.9,0-41.6,18.7-41.6,41.6
		C32.2,95.8,50.8,114.5,73.8,114.5z M32.7,72.9c0-22.7,18.4-41.1,41.1-41.1c22.7,0,41.1,18.4,41.1,41.1c0,22.7-18.4,41.1-41.1,41.1
		C51.1,114,32.7,95.6,32.7,72.9z"/>
	<path fill="#035946" d="M73.8,112.7c22,0,39.8-17.8,39.8-39.8c0-22-17.8-39.8-39.8-39.8c-22,0-39.8,17.8-39.8,39.8
		C33.9,94.9,51.8,112.7,73.8,112.7z M46.8,99.9C45.8,99,45,98,44.2,97c-0.1-0.1-0.2-0.2-0.2-0.3c-0.7-0.8-1.3-1.7-1.9-2.6
		c-0.1-0.1-0.1-0.2-0.2-0.3c-0.5-0.8-1-1.6-1.4-2.4c-0.1-0.1-0.1-0.2-0.2-0.3c-0.4-0.7-0.8-1.5-1.1-2.3c0-0.1-0.1-0.2-0.1-0.3
		c-0.3-0.7-0.6-1.4-0.9-2.1c0-0.1-0.1-0.2-0.1-0.2c-0.3-0.7-0.5-1.4-0.7-2.1c0-0.1,0-0.2-0.1-0.2c-0.2-0.7-0.4-1.3-0.5-2
		c0-0.1,0-0.2-0.1-0.2c-0.2-0.6-0.3-1.3-0.4-1.9c0-0.1,0-0.2,0-0.2c-0.1-0.6-0.2-1.3-0.3-1.9c0-0.1,0-0.2,0-0.2
		c-0.1-1.2-0.2-2.4-0.3-3.6c0-0.3,0-0.6,0-0.9c0-21.1,17.1-38.2,38.2-38.2c21.1,0,38.2,17.1,38.2,38.2c0,5.3-1.1,10.4-3,14.9
		c-2.7,6.3-7,11.7-12.4,15.7c-0.1,0-0.1,0.1-0.2,0.1c-0.6,0.5-1.3,0.9-1.9,1.3c-0.1,0-0.1,0.1-0.2,0.1c-0.7,0.4-1.3,0.8-2,1.2
		c-0.1,0-0.1,0.1-0.2,0.1c-0.7,0.4-1.4,0.7-2.2,1.1c-0.1,0-0.2,0.1-0.3,0.1c-0.8,0.3-1.5,0.7-2.3,1c-0.1,0-0.2,0.1-0.3,0.1
		c-0.8,0.3-1.7,0.6-2.5,0.8c-0.1,0-0.2,0.1-0.3,0.1c-0.9,0.3-1.8,0.5-2.7,0.7c-0.1,0-0.2,0-0.3,0.1c-1,0.2-2,0.3-3.1,0.5
		c-0.1,0-0.2,0-0.4,0c-1.2,0.1-2.3,0.2-3.5,0.2c-0.1,0-0.2,0-0.3,0c0,0-0.1,0-0.1,0c-1.5,0-2.9-0.1-4.3-0.3c-0.2,0-0.4,0-0.6-0.1
		c-2.2-0.3-4.4-0.8-6.5-1.4c-0.5-0.2-1-0.3-1.5-0.5c-2.7-1-5.2-2.2-7.6-3.7c-0.4-0.3-0.8-0.5-1.2-0.8c-1.7-1.2-3.4-2.6-4.9-4
		C47,100.1,46.9,100,46.8,99.9z"/>
</g>
</svg>
