<?xml version="1.0" encoding="utf-8"?>
<!-- Generator: Adobe Illustrator 18.1.0, SVG Export Plug-In . SVG Version: 6.00 Build 0)  -->
<svg version="1.0" id="Layer_1" xmlns="http://www.w3.org/2000/svg" xmlns:xlink="http://www.w3.org/1999/xlink" x="0px" y="0px"
	 viewBox="0 0 150 150" enable-background="new 0 0 150 150" xml:space="preserve">
<g>
	<g>
		<path fill="none" d="M34.8,97.7c0.8-0.5,1.6-1.1,2.2-1.6c0.8-0.7,1.4-1.3,1.8-1.9c0.7-1,1-1.9,1-3.1V91c0-0.3,0-0.6-0.1-0.9
			c-0.1-0.3-0.2-0.6-0.3-0.9c-0.2-0.5-0.5-0.9-0.9-1.3c-0.8-0.7-1.8-1.1-3-1.1c-0.7,0-1.5,0.2-2.1,0.5c-0.7,0.3-1.3,0.8-1.8,1.4
			l-0.8,1l-0.8-1c-0.5-0.6-1.1-1.1-1.8-1.4c-0.7-0.3-1.4-0.5-2.1-0.5c-0.8,0-1.6,0.2-2.3,0.6c-0.7,0.4-1.2,1-1.6,1.7
			c-0.1,0.3-0.2,0.5-0.3,0.8C22,90.3,22,90.6,22,90.9V91c0,0.9,0.2,1.7,0.6,2.4c0.3,0.7,0.8,1.3,1.5,2c0.8,0.8,1.8,1.5,2.9,2.3
			c0.6,0.4,1.2,0.9,1.8,1.3c0.3,0.2,0.6,0.5,0.8,0.7c0.5,0.4,0.9,0.8,1.3,1.2c0.4-0.5,0.8-0.8,1.2-1.2c0.4-0.4,0.9-0.7,1.3-1
			C33.9,98.3,34.4,98,34.8,97.7z"/>
		<path fill="#DA3E26" d="M36.5,101c0.2-0.1,0.3-0.3,0.5-0.4c0.6-0.4,1.1-0.8,1.7-1.3c1.1-0.7,2.2-1.5,3.2-2.4
			c0.9-0.8,1.5-1.6,2-2.5c0.5-1,0.8-2.1,0.8-3.3v-0.2c0-0.3,0-0.6-0.1-0.9c-0.1-0.6-0.2-1.2-0.5-1.7c-0.5-1.1-1.3-2-2.4-2.6
			c-0.5-0.3-1.1-0.5-1.7-0.7c-1.1-0.2-2.2-0.3-3.3,0c0,0-0.1,0-0.2,0c-0.4,0.1-0.8,0.2-1.1,0.4c-0.5,0.2-0.9,0.5-1.3,0.8
			c-0.1,0.1-0.3,0.2-0.4,0.3c-0.1-0.1-0.2-0.2-0.4-0.3c-0.4-0.3-0.9-0.6-1.4-0.9c-0.3-0.2-0.7-0.3-1-0.4c-0.2,0-0.3-0.1-0.5-0.1
			c-0.5-0.1-1-0.2-1.5-0.2c-0.6,0-1.1,0.1-1.6,0.2c-1,0.2-1.9,0.7-2.7,1.3c-0.6,0.5-1.1,1.2-1.4,1.9c-0.2,0.5-0.4,1.1-0.5,1.7
			c0,0.3-0.1,0.6-0.1,0.9V91c0,1.5,0.5,3,1.4,4.2c0.5,0.8,1.2,1.5,2.2,2.3c0.8,0.6,1.6,1.2,2.4,1.8c0.5,0.3,0.9,0.6,1.3,1
			c0.3,0.2,0.6,0.5,1,0.8v15.7h5.6V101z M33.6,100.9c-0.4-0.4-0.8-0.8-1.3-1.2c-0.2-0.2-0.5-0.5-0.8-0.7c-0.6-0.5-1.2-0.9-1.8-1.3
			c-1.1-0.8-2.1-1.5-2.9-2.3c-0.7-0.7-1.2-1.3-1.5-2c-0.4-0.7-0.6-1.5-0.6-2.4v-0.1c0-0.3,0-0.6,0.1-0.9c0.1-0.3,0.2-0.6,0.3-0.8
			c0.3-0.7,0.8-1.3,1.5-1.7c0.7-0.4,1.5-0.6,2.3-0.6c0.7,0,1.5,0.2,2.1,0.5c0.7,0.3,1.3,0.8,1.8,1.4l0.8,1l0.8-1
			c0.5-0.6,1.1-1.1,1.8-1.4c0.7-0.3,1.4-0.5,2.1-0.5c1.1,0,2.2,0.4,3,1.1c0.4,0.3,0.7,0.8,0.9,1.3c0.1,0.3,0.2,0.5,0.3,0.9
			c0.1,0.3,0.1,0.6,0.1,0.9v0.1c0,1.1-0.3,2.1-1,3.1c-0.4,0.6-1,1.2-1.8,1.9c-0.7,0.6-1.4,1.1-2.2,1.6c-0.5,0.3-0.9,0.7-1.4,1
			c-0.4,0.3-0.8,0.6-1.3,1C34.5,100.1,34,100.4,33.6,100.9z"/>
		<path fill="#DA3E26" d="M119.6,101c0.2-0.1,0.3-0.3,0.5-0.4c0.5-0.4,1.1-0.8,1.7-1.3c1.1-0.7,2.2-1.5,3.2-2.4
			c0.9-0.8,1.5-1.6,2-2.5c0.5-1,0.8-2.1,0.8-3.3v-0.2c0-0.3,0-0.6-0.1-0.9c-0.1-0.6-0.2-1.2-0.5-1.7c-0.5-1.1-1.3-2-2.4-2.6
			c-0.5-0.3-1.1-0.5-1.7-0.7c-1.1-0.2-2.2-0.3-3.3,0c-0.1,0-0.1,0-0.2,0c-0.4,0.1-0.8,0.2-1.1,0.4c-0.5,0.2-0.9,0.5-1.4,0.8
			c-0.1,0.1-0.3,0.2-0.4,0.3c-0.1-0.1-0.2-0.2-0.4-0.3c-0.4-0.3-0.9-0.6-1.4-0.9c-0.3-0.2-0.7-0.3-1-0.4c-0.2,0-0.3-0.1-0.5-0.1
			c-0.5-0.1-1-0.2-1.5-0.2c-0.5,0-1.1,0.1-1.6,0.2c-1,0.2-1.9,0.7-2.7,1.3c-0.6,0.5-1.1,1.2-1.4,1.9c-0.2,0.5-0.4,1.1-0.5,1.7
			c0,0.3-0.1,0.6-0.1,0.9V91c0,1.5,0.5,3,1.4,4.2c0.5,0.8,1.2,1.5,2.2,2.3c0.8,0.6,1.6,1.2,2.4,1.8c0.5,0.3,0.9,0.6,1.3,1
			c0.3,0.2,0.7,0.5,1,0.8v15.7h5.6V101z M116.8,100.9c-0.4-0.4-0.8-0.8-1.3-1.2c-0.3-0.2-0.5-0.5-0.8-0.7c-0.6-0.5-1.2-0.9-1.8-1.3
			c-1.1-0.8-2.1-1.5-2.9-2.3c-0.7-0.7-1.2-1.3-1.5-2c-0.4-0.7-0.6-1.5-0.6-2.4v-0.1c0-0.3,0-0.6,0.1-0.9c0.1-0.3,0.2-0.6,0.3-0.8
			c0.3-0.7,0.8-1.3,1.5-1.7c0.7-0.4,1.5-0.6,2.3-0.6c0.7,0,1.5,0.2,2.1,0.5c0.7,0.3,1.3,0.8,1.8,1.4l0.8,1l0.8-1
			c0.5-0.6,1.1-1.1,1.8-1.4c0.7-0.3,1.4-0.5,2.1-0.5c1.1,0,2.2,0.4,3,1.1c0.4,0.3,0.7,0.8,0.9,1.3c0.1,0.3,0.2,0.5,0.3,0.9
			c0.1,0.3,0.1,0.6,0.1,0.9v0.1c0,1.1-0.3,2.1-1,3.1c-0.4,0.6-1,1.2-1.8,1.9c-0.7,0.6-1.4,1.1-2.2,1.6c-0.5,0.3-0.9,0.7-1.4,1
			c-0.4,0.3-0.8,0.6-1.3,1C117.6,100.1,117.2,100.4,116.8,100.9z"/>
	</g>
	<g>
		<path fill="#009C4C" d="M56.9,81.7c0.2-0.1,0.3-0.3,0.5-0.4c0.6-0.4,1.1-0.8,1.7-1.3c1.1-0.7,2.2-1.5,3.2-2.4
			c0.9-0.8,1.5-1.6,2-2.5c0.5-1,0.8-2.1,0.8-3.3v-0.2c0-0.3,0-0.6-0.1-0.9c-0.1-0.6-0.2-1.2-0.5-1.7c-0.5-1.1-1.3-2-2.4-2.6
			c-0.5-0.3-1.1-0.5-1.7-0.7c-1.1-0.2-2.2-0.3-3.3,0c-0.1,0-0.1,0-0.2,0c-0.4,0.1-0.8,0.2-1.1,0.4c-0.5,0.2-0.9,0.5-1.3,0.8
			c-0.1,0.1-0.3,0.2-0.4,0.3c-0.1-0.1-0.2-0.2-0.4-0.3c-0.4-0.3-0.9-0.6-1.4-0.9c-0.3-0.2-0.7-0.3-1-0.4c-0.2,0-0.3-0.1-0.5-0.1
			c-0.5-0.1-1-0.2-1.5-0.2c-0.6,0-1.1,0.1-1.6,0.2c-1,0.2-1.9,0.7-2.7,1.3c-0.6,0.5-1.1,1.2-1.4,1.9c-0.2,0.5-0.4,1.1-0.5,1.7
			c0,0.3-0.1,0.6-0.1,0.9v0.2c0,1.5,0.5,3,1.4,4.2c0.5,0.8,1.2,1.5,2.2,2.3c0.8,0.6,1.6,1.2,2.4,1.8c0.5,0.3,0.9,0.6,1.3,1
			c0.3,0.2,0.6,0.5,1,0.8V107h5.6V81.7z M54.1,81.6c-0.4-0.4-0.8-0.8-1.3-1.2c-0.3-0.2-0.5-0.5-0.8-0.7c-0.6-0.5-1.2-0.9-1.8-1.3
			c-1.1-0.8-2.1-1.5-2.9-2.3c-0.7-0.7-1.2-1.3-1.5-2c-0.4-0.7-0.6-1.5-0.6-2.4v-0.1c0-0.3,0-0.6,0.1-0.9c0.1-0.3,0.2-0.6,0.3-0.8
			c0.3-0.7,0.8-1.3,1.6-1.7c0.7-0.4,1.5-0.6,2.3-0.6c0.7,0,1.5,0.2,2.1,0.5c0.7,0.3,1.3,0.8,1.8,1.4l0.8,1l0.8-1
			c0.5-0.6,1.1-1.1,1.8-1.4c0.7-0.3,1.4-0.5,2.1-0.5c1.1,0,2.2,0.4,3,1.1c0.4,0.3,0.7,0.8,0.9,1.3c0.1,0.3,0.2,0.5,0.3,0.9
			C63,71,63,71.3,63,71.6v0.1c0,1.1-0.3,2.1-1,3.1c-0.4,0.6-1,1.2-1.8,1.9c-0.7,0.6-1.4,1.1-2.2,1.6c-0.5,0.3-0.9,0.7-1.4,1
			c-0.4,0.3-0.8,0.6-1.3,1C54.9,80.7,54.5,81.1,54.1,81.6z"/>
		<path fill="#009C4C" d="M98.2,81.7c0.2-0.1,0.3-0.3,0.5-0.4c0.6-0.4,1.1-0.8,1.7-1.3c1.1-0.7,2.2-1.5,3.2-2.4
			c0.9-0.8,1.5-1.6,2-2.5c0.5-1,0.8-2.1,0.8-3.3v-0.2c0-0.3,0-0.6-0.1-0.9c-0.1-0.6-0.2-1.2-0.5-1.7c-0.5-1.1-1.3-2-2.4-2.6
			c-0.5-0.3-1.1-0.5-1.7-0.7c-1.1-0.2-2.2-0.3-3.3,0c-0.1,0-0.1,0-0.2,0c-0.4,0.1-0.8,0.2-1.1,0.4c-0.5,0.2-0.9,0.5-1.3,0.8
			c-0.1,0.1-0.3,0.2-0.4,0.3c-0.1-0.1-0.2-0.2-0.4-0.3c-0.4-0.3-0.9-0.6-1.4-0.9c-0.3-0.2-0.7-0.3-1-0.4c-0.2,0-0.3-0.1-0.5-0.1
			c-0.5-0.1-1-0.2-1.5-0.2c-0.6,0-1.1,0.1-1.6,0.2c-1,0.2-1.9,0.7-2.7,1.3c-0.6,0.5-1.1,1.2-1.4,1.9c-0.2,0.5-0.4,1.1-0.5,1.7
			c0,0.3-0.1,0.6-0.1,0.9v0.2c0,1.5,0.5,3,1.4,4.2c0.5,0.8,1.2,1.5,2.2,2.3c0.8,0.6,1.6,1.2,2.4,1.8c0.5,0.3,0.9,0.6,1.3,1
			c0.3,0.2,0.7,0.5,1,0.8V107h5.6V81.7z M95.3,81.6c-0.4-0.4-0.8-0.8-1.3-1.2c-0.3-0.2-0.5-0.5-0.8-0.7c-0.6-0.5-1.2-0.9-1.8-1.3
			c-1.1-0.8-2.1-1.5-2.9-2.3c-0.7-0.7-1.2-1.3-1.5-2c-0.4-0.7-0.6-1.5-0.6-2.4v-0.1c0-0.3,0-0.6,0.1-0.9c0.1-0.3,0.2-0.6,0.3-0.8
			c0.3-0.7,0.8-1.3,1.6-1.7c0.7-0.4,1.5-0.6,2.3-0.6c0.7,0,1.5,0.2,2.1,0.5c0.7,0.3,1.3,0.8,1.8,1.4l0.8,1l0.8-1
			c0.5-0.6,1.1-1.1,1.8-1.4c0.7-0.3,1.4-0.5,2.1-0.5c1.1,0,2.2,0.4,3,1.1c0.4,0.3,0.7,0.8,0.9,1.3c0.1,0.3,0.2,0.5,0.3,0.9
			c0.1,0.3,0.1,0.6,0.1,0.9v0.1c0,1.1-0.3,2.1-1,3.1c-0.4,0.6-1,1.2-1.8,1.9c-0.7,0.6-1.4,1.1-2.2,1.6c-0.5,0.3-0.9,0.7-1.4,1
			c-0.4,0.3-0.8,0.6-1.3,1C96.1,80.7,95.7,81.1,95.3,81.6z"/>
		<path fill="#DA3E26" d="M77.4,60.9c0.2-0.1,0.3-0.3,0.5-0.4c0.6-0.4,1.1-0.8,1.7-1.3c1.1-0.7,2.2-1.5,3.2-2.4
			c0.9-0.8,1.5-1.6,2-2.5c0.5-1,0.8-2.1,0.8-3.3v-0.2c0-0.3,0-0.6-0.1-0.9c-0.1-0.6-0.2-1.2-0.5-1.7c-0.5-1.1-1.3-2-2.4-2.6
			c-0.5-0.3-1.1-0.5-1.7-0.7c-1.1-0.2-2.2-0.3-3.3,0c0,0-0.1,0-0.2,0c-0.4,0.1-0.8,0.2-1.1,0.4c-0.5,0.2-0.9,0.5-1.3,0.8
			c-0.1,0.1-0.3,0.2-0.4,0.3c-0.1-0.1-0.2-0.2-0.4-0.3c-0.4-0.3-0.9-0.6-1.4-0.9c-0.3-0.2-0.7-0.3-1-0.4c-0.2,0-0.3-0.1-0.5-0.1
			c-0.5-0.1-1-0.2-1.5-0.2c-0.6,0-1.1,0.1-1.6,0.2c-1,0.2-1.9,0.7-2.7,1.3c-0.6,0.5-1.1,1.2-1.4,1.9c-0.2,0.5-0.4,1.1-0.5,1.7
			c0,0.3-0.1,0.6-0.1,0.9v0.2c0,1.5,0.5,3,1.4,4.2c0.5,0.8,1.2,1.5,2.2,2.3c0.8,0.6,1.6,1.2,2.4,1.8c0.5,0.3,0.9,0.6,1.3,1
			c0.3,0.2,0.6,0.5,1,0.8v46h5.6V60.9z M74.5,60.8c-0.4-0.4-0.8-0.8-1.3-1.2c-0.2-0.2-0.5-0.5-0.8-0.7c-0.6-0.5-1.2-0.9-1.8-1.3
			c-1.1-0.8-2.1-1.5-2.9-2.3c-0.7-0.7-1.2-1.3-1.5-2c-0.4-0.7-0.6-1.5-0.6-2.4v-0.1c0-0.3,0-0.6,0.1-0.9c0.1-0.3,0.2-0.6,0.3-0.8
			c0.3-0.7,0.8-1.3,1.5-1.7c0.7-0.4,1.5-0.6,2.3-0.6c0.7,0,1.5,0.2,2.1,0.5c0.7,0.3,1.3,0.8,1.8,1.4l0.8,1l0.8-1
			c0.5-0.6,1.1-1.1,1.8-1.4c0.7-0.3,1.4-0.5,2.1-0.5c1.1,0,2.2,0.4,3,1.1c0.4,0.3,0.7,0.8,0.9,1.3c0.1,0.3,0.2,0.5,0.3,0.9
			c0.1,0.3,0.1,0.6,0.1,0.9V51c0,1.1-0.3,2.1-1,3.1c-0.4,0.6-1,1.2-1.8,1.9c-0.7,0.6-1.4,1.1-2.2,1.6c-0.5,0.3-0.9,0.7-1.4,1
			c-0.4,0.3-0.8,0.6-1.3,1C75.3,59.9,74.9,60.3,74.5,60.8z"/>
	</g>
	<g>
		<path fill="#DA3E26" d="M13.5,98.8C13.6,64.8,41.1,37.3,75,37.3c34,0.1,61.4,27.5,61.5,61.5c0,6.4-1,12.5-2.8,18.3h0.2
			c1.6-5.8,12.1-11.9,12.1-18.3c0-39.3-31.8-71-71-71c-39.2,0-71,31.8-71,71c0,6.3,10.6,12.4,12.1,18.3h0.2
			C14.5,111.3,13.6,105.1,13.5,98.8z"/>
	</g>
	<rect x="40.3" y="110.2" fill="#009C4C" width="69.7" height="2"/>
	<rect x="40.3" y="114.6" fill="#009C4C" width="69.7" height="2"/>
</g>
</svg>
