<?xml version="1.0" encoding="utf-8"?>
<!-- Generator: Adobe Illustrator 18.1.0, SVG Export Plug-In . SVG Version: 6.00 Build 0)  -->
<svg version="1.0" id="Layer_1" xmlns="http://www.w3.org/2000/svg" xmlns:xlink="http://www.w3.org/1999/xlink" x="0px" y="0px"
	 viewBox="0 0 150 150" enable-background="new 0 0 150 150" xml:space="preserve">
<g>
	<g>
		<path fill="#00B4EC" d="M73.5,27.1c-19.4,0-35.3,15.3-36.1,34.5c3.1,0,1.8-0.1,3.1,0c0.9-5.2,6.4-9.7,14.3-12.5
			c0.6,2.5,1.2,6,1.4,8.8c-1,0.6-1.6,1.6-1.6,2.9c0,1.9,1.5,3.4,3.3,3.4c1.8,0,3.3-1.5,3.3-3.4c0-1.4-0.8-2.6-2.1-3.1
			c-0.3-3-0.9-6.8-1.6-9.4c4.3-1.2,9.2-2,14.3-2.1v6.4c-1,0.6-1.6,1.6-1.6,2.9c0,1.8,1.5,3.3,3.3,3.3c1.8,0,3.3-1.5,3.3-3.3
			c0-1.4-0.8-2.5-2-3v-6.2c5.1,0.1,10,0.8,14.2,2c-0.8,3-1.3,6.2-1.6,9.6c-1.1,0.6-1.8,1.7-1.8,3c0,1.8,1.5,3.3,3.3,3.3
			c1.8,0,3.3-1.5,3.3-3.3c0-1.3-0.8-2.4-1.9-3c0.2-3.1,0.7-6,1.4-8.7c8,2.8,13.4,7.3,14.4,12.5h3.1C108.7,42.4,92.9,27.1,73.5,27.1z
			 M41.8,53.6c1.7-5.7,4.9-10.7,9.1-14.6c1.2,2.2,2.2,4.6,3.1,7.4C48.9,48.1,44.7,50.6,41.8,53.6z M57.9,58.9c1,0,1.8,0.8,1.8,1.8
			c0,1-0.8,1.8-1.8,1.8c-1,0-1.8-0.8-1.8-1.8C56.1,59.8,56.9,58.9,57.9,58.9z M56.8,45.4c-1-3.1-2.2-5.9-3.6-8.4
			c5.2-4.1,11.7-6.6,18.7-6.9v13C66.5,43.3,61.4,44.1,56.8,45.4z M75.5,55.5c0,1-0.8,1.8-1.8,1.8c-1,0-1.8-0.8-1.8-1.8
			c0-1,0.8-1.8,1.8-1.8C74.6,53.6,75.5,54.4,75.5,55.5z M91.1,60.8c0,1-0.8,1.8-1.8,1.8c-1,0-1.8-0.8-1.8-1.8c0-1,0.8-1.8,1.8-1.8
			C90.2,59,91.1,59.8,91.1,60.8z M90,45.4c-4.5-1.3-9.6-2.1-15-2.2v-13c7,0.3,13.4,2.8,18.7,6.8C92.3,39.4,91,42.3,90,45.4z
			 M92.8,46.3c0.8-2.7,1.9-5.2,3.1-7.4c4.3,3.9,7.5,9,9.2,14.7C102.2,50.6,98,48.1,92.8,46.3z"/>
	</g>
	<g>
		<path fill="#00B4EC" d="M45.5,107.5l22.8-17l-29.6-20C43.8,80.9,47.8,93.9,45.5,107.5z"/>
		<polygon points="112,66.2 36.7,66.3 74.6,91.8 		"/>
		<polygon fill="#00B4EC" points="74.6,94.9 70.5,92.1 45.2,110.9 103.8,110.7 78.5,92.1 		"/>
		<path fill="#00B4EC" d="M110.5,70.3L80.8,90.6l22.4,15.1C101.5,92.6,105.5,80.2,110.5,70.3z"/>
	</g>
	<path d="M38.2,124.8c20.7-36.3-16-72.8-16-72.8C46.4,83.1,4,97.9,4,97.9C40.5,90.3,38.2,124.8,38.2,124.8z"/>
	<path d="M11,69.2C8,72,7.9,77,11,80.4s8,3.9,11.1,1.1c3.1-2.8,3.1-7.8,0-11.2C19.1,67,14.1,66.5,11,69.2z"/>
	<path d="M110.7,124.8C90,88.5,126.8,52,126.8,52c-24.2,31.1,18.2,46,18.2,46C108.4,90.3,110.7,124.8,110.7,124.8z"/>
	<path d="M137.9,69.2c3.1,2.8,3.1,7.8,0,11.2c-3.1,3.4-8,3.9-11.1,1.1c-3.1-2.8-3.1-7.8,0-11.2C129.9,67,134.8,66.5,137.9,69.2z"/>
</g>
</svg>
