<?xml version="1.0" encoding="utf-8"?>
<!-- Generator: Adobe Illustrator 18.1.0, SVG Export Plug-In . SVG Version: 6.00 Build 0)  -->
<svg version="1.1" id="Layer_1" xmlns="http://www.w3.org/2000/svg" xmlns:xlink="http://www.w3.org/1999/xlink" x="0px" y="0px"
	 viewBox="0 0 150 150" enable-background="new 0 0 150 150" xml:space="preserve">
<g>
	<g>
		<path fill="#444355" d="M134.2,65.4l-0.7-0.6l-0.3-0.2l-0.9-0.8l-0.3-0.3l-0.6-0.5l-0.9-0.8l0,0l-0.9-0.8l-0.6-0.5l-0.3-0.3
			l-0.9-0.8l-0.3-0.3l-0.6-0.5l-0.9-0.8l0,0l-0.9-0.8l-0.7-0.6l-0.3-0.2l-0.9-0.8l-0.4-0.4l-0.5-0.4l-0.9-0.8l-0.2-0.2l-0.7-0.6
			l-0.9-0.8l0,0l-0.9-0.8l-0.9-0.8l-1.5-1.3l-0.4-0.3l-1.4-1.2l-1.8-1.5l-3.7-3.2l-1.9-1.7l-2-1.7l-2.1-1.8l-2.2-1.9l-2.3-2
			l-2.5-2.2l-2.8-2.4l-3.3-2.9l-4.3-3.7l-14-12.1l-0.6,0.5l-1.4,1.2l-1.4,1.2L65.9,15l-1.4,1.2l-2.9,2.5L60,19.9l-1.5,1.3l-3.1,2.6
			l-1.6,1.4l-1.7,1.4L50.4,28l-1.9,1.6l-2.1,1.7l-2.4,2l-4.3,3.6l-3,2.5l-4.3,3.6L30,45L28,46.7l-1.8,1.5l-1.7,1.5l-1.7,1.4
			l-1.6,1.3L18,55.1l-1.5,1.3L15,57.6l-2.9,2.5l-1.4,1.2l-1.4,1.2L8.6,63l0.8,0.1l2,0.2l2,0.2l4.1,0.4l2.1,0.2l2.2,0.2l2.2,0.2
			l0.4,3.3l0.3,3l0.3,2.7l0.6,5l0.3,2.3l0.3,2.3l0.3,2.2l0.2,2.1l0.2,2.1l0.2,2.1l0.2,2l0.2,2l0.2,2l0.2,2l0.2,2l0,0.2
			c0.1,0,0.1-0.1,0.2-0.1c0.2-0.2,0.5-0.3,0.7-0.5c0,0.1,0,0.1,0.1,0.2c-0.2,0.1-0.4,0.3-0.5,0.4c-0.1,0.1-0.3,0.2-0.4,0.3l0.2,1.4
			l0.2,1.9l0.2,1.9l0.4,3.8l0.2,1.9l0.2,1.9l0.4,3.5c4.7,0.3,10.5-0.1,17.1-1.2c1.4-0.2,2.8-0.5,4.3-0.8c0.7-0.1,1.5-0.3,2.2-0.5
			c0.7-0.2,1.4-0.3,2.1-0.5l0.2-0.6l0.5-1.6l0.1-0.2l0.6-2.2l0.4-1.5l0.5-1.9l0.4-1.5l0.1-0.4l0.5-1.9l0-0.1l0.5-1.8l0.2-0.7
			l0.4-1.3l0.5-2l0.5-1.6l0.1-0.4l0.6-2l0-0.1l0.6-2l0.1-0.4l0.2-0.9c-0.3-0.1-0.5-0.2-0.8-0.3c0,0-0.1,0-0.1,0
			c-0.4-0.2-0.7-0.3-1.1-0.6c-0.3-0.2-0.6-0.4-0.9-0.6c0,0-0.1-0.1-0.1-0.1c-0.2-0.2-0.4-0.4-0.6-0.6C59,88.2,59,88.1,58.9,88
			c-0.1-0.1-0.2-0.3-0.4-0.5c-0.1-0.2-0.3-0.4-0.4-0.5c-0.2-0.3-0.4-0.7-0.5-1c0,0-0.1-0.1-0.1-0.1c-0.2-0.4-0.3-0.9-0.4-1.3
			c0-0.1,0-0.1-0.1-0.2c-0.1-0.4-0.1-0.9-0.1-1.4c0-0.2,0-0.3,0-0.5c0-0.5,0.1-0.9,0.1-1.4c0-0.2,0-0.3,0.1-0.5
			c0.1-0.7,0.4-1.4,0.7-2c0,0,0,0,0-0.1c0.4-0.8,0.8-1.5,1.4-2.2c0.1-0.1,0.2-0.2,0.4-0.4c0.8-0.9,1.8-1.5,2.8-1.9
			c0.5-0.2,1-0.3,1.5-0.5c0.3-0.1,0.6-0.1,0.9-0.2c0.1,0,0.1,0,0.2,0c0.6-0.1,1.1-0.1,1.6,0c0.2,0,0.3,0,0.5,0.1
			c0.3,0.1,0.7,0.1,1,0.2c0.3,0.1,0.7,0.2,1,0.4c0.1,0,0.2,0.1,0.2,0.1c0.4,0.2,0.7,0.4,1.1,0.7c0.2,0.2,0.5,0.4,0.7,0.6
			c0.1,0.1,0.2,0.2,0.3,0.3c0.2,0.2,0.4,0.4,0.5,0.6c0.1,0.1,0.2,0.2,0.3,0.3c0.3,0.3,0.5,0.7,0.7,1.1c0,0,0,0,0,0
			c0.2,0.4,0.4,0.8,0.5,1.2c0.1,0.2,0.1,0.4,0.2,0.6c0.1,0.3,0.1,0.6,0.2,0.9c0.1,0.4,0.1,0.8,0.1,1.2v0c0,0.2,0,0.3,0,0.5
			c-0.1,0.7-0.2,1.4-0.4,2c0,0,0,0.1,0,0.1c-0.3,1.2-0.9,2.2-1.7,3.2c-0.2,0.2-0.3,0.4-0.5,0.6c-1.2,1.2-2.5,2-4.1,2.5
			c-0.1,0-0.1,0-0.2,0.1l0,0.1l0.4,1.2l0.5,1.5l0.1,0.2l0.4,1.1l0.2,0.6l0.3,0.8l0.3,0.9l0.5,1.7l0,0.1l0.4,1.3l0.1,0.3l0.3,1
			l0.2,0.6l0.2,0.7l0.3,1l0.1,0.3l0.4,1.3l0,0l0.4,1.3l0.4,1.3l0.2,0.7l0.2,0.6l0.4,1.1l0.1,0.2l0,0.1c0.9-0.3,1.7-0.6,2.6-0.9
			c0.9-0.3,1.8-0.7,2.8-1c0.9-0.4,1.9-0.7,2.8-1.1c0.8-0.3,1.5-0.6,2.3-0.9c0.2-0.1,0.4-0.2,0.6-0.2c1-0.4,2-0.8,3-1.2
			c1-0.4,2-0.9,3.1-1.3c1.1-0.5,2.1-0.9,3.2-1.4c0.1,0,0.2-0.1,0.3-0.1c1-0.4,1.9-0.9,2.8-1.3c0.1,0,0.1-0.1,0.2-0.1
			c1.2-0.6,2.3-1.1,3.4-1.7c0.4-0.2,0.8-0.4,1.1-0.6c1.5-0.8,2.9-1.5,4.2-2.2c1.4-0.7,2.7-1.5,3.9-2.2c0.7-0.4,1.5-0.9,2.2-1.3
			l0.3-2.3l0.4-3.5l0.1-0.6l0.2-1.4l0.2-2l0.2-1.4l0.1-0.6l0.2-2l0.2-2l0.1-1.1l0.1-0.9l0.2-2l0.2-2l0.1-1c0-0.3-0.1-0.5-0.1-0.8
			c0-0.1,0-0.2,0-0.2c0.1,0,0.2,0,0.2,0l0.2-1.9l0.2-1.4h1.3h0.9h0.9h0.9h0.8h1h0.8h1h0.8h1h0.7h1.1h0.7h1.1h0.6h1.2h0.6h1.2h0.5
			h1.2h0.5h0.7L134.2,65.4z"/>
		<path fill="#444355" d="M104.2,110.8c-2.1,1.1-4.2,2.1-6.4,3.1c-2.7,1.2-5.4,2.4-8.2,3.6c-4,1.7-8.1,3.2-12.2,4.6
			c-0.4,0.1-0.8,0.3-1.2,0.4c-0.5,0.2-1,0.3-1.4,0.5c-0.9,0.3-1.7,0.6-2.6,0.8c-0.4,0.1-0.8,0.3-1.2,0.4c-0.4,0.1-0.9,0.3-1.3,0.4
			c-0.8,0.3-1.7,0.5-2.5,0.7c-0.8,0.2-1.6,0.5-2.5,0.7c-0.8,0.2-1.6,0.4-2.4,0.7c-0.8,0.2-1.6,0.4-2.4,0.6c-0.8,0.2-1.6,0.4-2.3,0.6
			c-0.8,0.2-1.5,0.4-2.3,0.5c-0.4,0.1-0.8,0.2-1.3,0.3l0.9,0.1l1.4,0.2l0.1,0l1.6,0.2l1.6,0.2l1.6,0.2l1.5,0.2l0,0l1.6,0.2l1.6,0.2
			l1.6,0.2l0.5,0.1l1.1,0.1l3.4,0.4l4,0.5l3.7,0.5l3.5,0.5l3.3,0.4l3.1,0.4l3.1,0.4l2.9,0.4l2.9,0.4l2.7,0.4l2.7,0.4l2.8,0.4
			l0.3-2.5l0.3-2.3l0.3-2.4l0.3-2.5l0.3-2.5l0.3-2.6l0.3-2.6l0.3-2.7l0.3-2.7l0.3-2.8l0.3-2.5c-0.2,0.1-0.4,0.2-0.6,0.4
			C107.8,108.9,106.1,109.9,104.2,110.8z"/>
	</g>
	<path fill-rule="evenodd" clip-rule="evenodd" fill="#AFBB36" d="M140.9,74.4c-0.6-0.9-1.4-1.8-2.5-2.5c-4.3-2.9-12.4-4-23.8-2.9
		c-0.1,0-0.2,0-0.2,0c0,0.1,0,0.2,0,0.2c0,0.3,0.1,0.5,0.1,0.8c0,0,0,0.1,0,0.1c8.8-0.2,14.2,1.5,16.1,4.7c2.9,5-3.3,13.4-19.3,22.9
		c0,0-0.1,0-0.1,0c-1.3,0.8-2.8,1.6-4.2,2.4c-1.5,0.8-3,1.6-4.6,2.5c-1.7,0.9-3.4,1.7-5.3,2.6c-0.8,0.4-1.5,0.7-2.3,1.1
		c-1,0.5-2.1,0.9-3.1,1.4c-0.3,0.2-0.7,0.3-1,0.5c-0.7,0.3-1.4,0.6-2.1,0.9c-1,0.4-2,0.8-3,1.2c-1,0.4-2,0.8-2.9,1.2
		c-0.4,0.2-0.8,0.3-1.2,0.4c-0.6,0.2-1.1,0.4-1.7,0.6c-0.9,0.3-1.9,0.7-2.8,1c-0.8,0.3-1.6,0.6-2.4,0.9c-7.2,2.5-13.9,4.3-20.1,5.7
		c-0.4,0.1-0.8,0.2-1.2,0.3c-0.3,0.1-0.5,0.1-0.7,0.1c-0.7,0.1-1.5,0.3-2.2,0.4c-0.7,0.1-1.4,0.3-2.1,0.4c-2.3,0.4-4.4,0.7-6.5,0.9
		c-3.7,0.4-7.1,0.5-10,0.4c-0.4,0-0.8,0-1.2-0.1c-7-0.5-11.3-2.4-12.2-5.6c-0.2-0.8-0.2-1.7,0-2.6c0.7-3.7,4.6-8,9.9-12.3
		c0.1-0.1,0.3-0.2,0.4-0.3c0.2-0.1,0.3-0.3,0.5-0.4c0-0.1,0-0.1-0.1-0.2c-0.2,0.2-0.5,0.3-0.7,0.5c-0.1,0-0.1,0.1-0.2,0.1
		c-4,2.9-7.8,6-10.8,9.1c-3.6,3.8-6.1,7.5-6.4,10.9c-0.1,1,0,1.9,0.2,2.8c2.5,8.3,20.5,8.9,42.8,4c0.4-0.1,0.8-0.2,1.3-0.3
		c0.8-0.2,1.5-0.3,2.3-0.5c0.8-0.2,1.5-0.4,2.3-0.6c0.8-0.2,1.6-0.4,2.4-0.6c0.8-0.2,1.6-0.4,2.4-0.7c0.8-0.2,1.6-0.5,2.5-0.7
		c0.8-0.2,1.7-0.5,2.5-0.7c0.4-0.1,0.9-0.3,1.3-0.4c0.4-0.1,0.8-0.3,1.2-0.4c0.9-0.3,1.7-0.6,2.6-0.8c0.5-0.2,1-0.3,1.4-0.5
		c0.4-0.1,0.8-0.3,1.2-0.4c4.1-1.4,8.2-3,12.2-4.6c2.8-1.1,5.5-2.3,8.2-3.6c2.1-1,4.3-2,6.4-3.1c1.8-0.9,3.6-1.8,5.3-2.8
		c0.2-0.1,0.4-0.2,0.6-0.4c5.5-3.1,10.8-6.4,15.5-9.8C139.5,87.7,144,79.5,140.9,74.4z"/>
</g>
</svg>
