<?xml version="1.0" encoding="utf-8"?>
<!-- Generator: Adobe Illustrator 14.0.0, SVG Export Plug-In . SVG Version: 6.00 Build 43363)  -->
<!DOCTYPE svg PUBLIC "-//W3C//DTD SVG 1.1//EN" "http://www.w3.org/Graphics/SVG/1.1/DTD/svg11.dtd">
<svg version="1.1" id="Layer_1" xmlns="http://www.w3.org/2000/svg" xmlns:xlink="http://www.w3.org/1999/xlink" x="0px" y="0px"
	 width="150px" height="150px" viewBox="0 0 150 150" enable-background="new 0 0 150 150" xml:space="preserve">
<g>
	<path fill="#FDBB17" d="M77.336,135.322c4.153-0.616,6.327-2.726,6.834-6.651c-0.278-0.026-0.552-0.028-0.832-0.022
		c-3.64,0.124-6.486,3.113-6.362,6.687c0.124,3.569,3.173,6.363,6.811,6.243c0.499-0.018,0.981-0.086,1.445-0.206
		C84.224,137.579,81.695,135.661,77.336,135.322z"/>
	<path fill="#FDBB17" d="M71.645,9.366c-3.646-1.956-6.449-1.359-8.954,1.89C66.336,13.214,69.14,12.617,71.645,9.366z"/>
	<path fill="#FDBB17" d="M88.096,11.256c-2.498-3.249-5.303-3.843-8.948-1.89C81.651,12.617,84.456,13.209,88.096,11.256z"/>
	<path fill="#323234" d="M65.002,17.325c0.269-0.076,0.532-0.172,0.779-0.274c-1.743-3.571-4.481-4.898-8.617-4.199
		c4.031-1.669,5.811-4.274,5.547-8.185c-0.477,0.033-0.959,0.116-1.436,0.253c-3.491,1.01-5.488,4.605-4.458,8.031
		C57.851,16.381,61.511,18.337,65.002,17.325z"/>
	<path fill="#323234" d="M60.027,127.037c-0.275-0.048-0.552-0.082-0.828-0.101c-0.1,3.962,1.73,6.36,5.736,7.585
		c-4.363-0.312-7.154,1.216-8.728,4.817c0.441,0.188,0.906,0.326,1.399,0.414c3.574,0.66,7.018-1.659,7.685-5.169
		C65.961,131.075,63.604,127.695,60.027,127.037z"/>
	<path fill="#FDBB17" d="M52.474,124.687c-0.272-0.08-0.541-0.14-0.809-0.184c-0.5,3.93,1.073,6.498,4.943,8.105
		c-4.313-0.734-7.243,0.515-9.173,3.943c0.419,0.229,0.868,0.41,1.347,0.555c3.493,0.993,7.154-0.973,8.174-4.398
		C57.971,129.275,55.967,125.684,52.474,124.687z"/>
	<path fill="#323234" d="M45.718,121.153c-0.26-0.112-0.517-0.212-0.78-0.292c-1.075,3.815,0.098,6.582,3.684,8.724
		c-4.157-1.343-7.24-0.526-9.66,2.587c0.377,0.288,0.795,0.536,1.248,0.734c3.308,1.495,7.22,0.072,8.74-3.175
		C50.47,126.484,49.024,122.646,45.718,121.153z"/>
	<path fill="#FDBB17" d="M41.426,125.738c1.981-2.995,1.11-7.003-1.941-8.944c-0.237-0.152-0.48-0.285-0.727-0.4
		c-1.627,3.621-0.871,6.525,2.366,9.152c-3.918-1.916-7.093-1.546-9.943,1.19c0.334,0.337,0.709,0.641,1.132,0.909
		C35.365,129.592,39.444,128.736,41.426,125.738z"/>
	<path fill="#323234" d="M33.883,111.667c-0.209-0.179-0.432-0.343-0.66-0.495c-2.135,3.359-1.812,6.34,1.01,9.39
		c-3.597-2.44-6.792-2.521-10.01-0.207c0.284,0.383,0.609,0.733,0.983,1.056c2.743,2.35,6.906,2.073,9.301-0.615
		C36.901,118.106,36.622,114.021,33.883,111.667z"/>
	<path fill="#FDBB17" d="M29.016,105.877c-0.185-0.214-0.375-0.402-0.579-0.588c-2.598,3.026-2.705,6.021-0.354,9.44
		c-3.209-2.923-6.364-3.443-9.881-1.604c0.222,0.414,0.498,0.812,0.82,1.184c2.374,2.708,6.538,3.015,9.295,0.685
		C31.079,112.666,31.391,108.578,29.016,105.877z"/>
	<path fill="#323234" d="M22.993,108.418c2.97-2.059,3.677-6.098,1.578-9.017c-0.167-0.222-0.339-0.433-0.523-0.631
		c-2.879,2.771-3.274,5.744-1.261,9.357c-2.916-3.205-6.001-4.015-9.685-2.507c0.186,0.433,0.42,0.853,0.709,1.255
		C15.911,109.791,20.024,110.481,22.993,108.418z"/>
	<path fill="#FDBB17" d="M18.605,101.213c3.241-1.625,4.528-5.521,2.874-8.698c-0.122-0.252-0.268-0.482-0.421-0.706
		c-3.255,2.338-4.08,5.223-2.617,9.088c-2.413-3.585-5.349-4.816-9.214-3.848c0.118,0.449,0.288,0.903,0.511,1.336
		C11.393,101.569,15.36,102.831,18.605,101.213z"/>
	<path fill="#323234" d="M15.231,93.492c3.45-1.14,5.304-4.811,4.14-8.193c-0.088-0.265-0.195-0.515-0.311-0.755
		c-3.572,1.842-4.815,4.58-3.943,8.615c-1.854-3.89-4.579-5.533-8.542-5.128c0.042,0.47,0.149,0.937,0.309,1.4
		C8.047,92.813,11.786,94.635,15.231,93.492z"/>
	<path fill="#FDBB17" d="M12.942,85.402c3.584-0.633,5.97-3.991,5.327-7.505c-0.048-0.271-0.116-0.537-0.195-0.791
		c-3.801,1.309-5.45,3.834-5.192,7.945c-1.253-4.113-3.695-6.136-7.681-6.312c-0.023,0.473,0.009,0.949,0.099,1.432
		C5.936,83.685,9.361,86.027,12.942,85.402z"/>
	<path fill="#323234" d="M11.815,77.075c3.627-0.273,6.345-3.382,6.067-6.943c-0.025-0.274-0.064-0.542-0.121-0.807
		c-3.917,0.927-5.811,3.279-5.975,7.397c-0.827-4.218-3.05-6.471-6.996-7.028c-0.071,0.46-0.089,0.94-0.052,1.431
		C5.016,74.684,8.189,77.35,11.815,77.075z"/>
	<path fill="#FDBB17" d="M11.807,68.681c3.626,0.261,6.79-2.414,7.058-5.973c0.021-0.277,0.025-0.547,0.012-0.812
		c-4.02,0.333-6.249,2.382-7.044,6.428c-0.169-4.289-2.025-6.844-5.843-7.984c-0.138,0.451-0.229,0.923-0.267,1.408
		C5.455,65.312,8.177,68.413,11.807,68.681z"/>
	<path fill="#323234" d="M12.911,60.352c3.551,0.79,7.078-1.388,7.892-4.871c0.062-0.27,0.103-0.537,0.13-0.806
		c-4.025-0.251-6.54,1.444-7.94,5.327c0.484-4.263-0.964-7.062-4.563-8.749c-0.205,0.427-0.366,0.878-0.479,1.355
		C7.142,56.088,9.361,59.555,12.911,60.352z"/>
	<path fill="#FDBB17" d="M15.191,52.253c3.446,1.132,7.182-0.695,8.339-4.082c0.088-0.265,0.156-0.524,0.213-0.788
		c-3.979-0.642-6.656,0.801-8.438,4.534c0.909-4.198-0.248-7.124-3.665-9.15c-0.248,0.401-0.452,0.837-0.609,1.3
		C9.876,47.458,11.735,51.121,15.191,52.253z"/>
	<path fill="#323234" d="M18.542,44.529c3.248,1.609,7.211,0.337,8.856-2.849c0.125-0.247,0.236-0.496,0.327-0.749
		c-3.843-1.201-6.707-0.159-9.02,3.28c1.521-4.028,0.814-7.085-2.268-9.575c-0.304,0.362-0.575,0.764-0.798,1.197
		C13.997,39.02,15.294,42.913,18.542,44.529z"/>
	<path fill="#FDBB17" d="M22.912,37.311c2.977,2.051,7.088,1.353,9.185-1.573c0.157-0.223,0.303-0.456,0.428-0.693
		c-3.627-1.734-6.608-1.101-9.402,1.973c2.098-3.768,1.841-6.892-0.845-9.792c-0.354,0.315-0.682,0.676-0.964,1.073
		C19.217,31.226,19.938,35.256,22.912,37.311z"/>
	<path fill="#323234" d="M37.542,30.448c0.193-0.198,0.368-0.405,0.529-0.626c-3.34-2.222-6.385-2.006-9.599,0.65
		c2.623-3.442,2.818-6.572,0.582-9.816c-0.398,0.261-0.769,0.573-1.107,0.926c-2.495,2.602-2.372,6.695,0.28,9.143
		C30.876,33.176,35.044,33.05,37.542,30.448z"/>
	<path fill="#FDBB17" d="M43.697,25.5c0.215-0.184,0.412-0.374,0.591-0.575c-3.109-2.52-6.163-2.593-9.617-0.247
		c2.94-3.181,3.44-6.281,1.522-9.718c-0.42,0.229-0.82,0.501-1.192,0.822c-2.734,2.359-3.002,6.445-0.598,9.128
		C36.801,27.595,40.964,27.857,43.697,25.5z"/>
	<path fill="#323234" d="M50.429,21.835c0.234-0.15,0.452-0.314,0.666-0.486c-2.713-2.927-5.727-3.43-9.485-1.589
		c3.373-2.736,4.313-5.736,2.916-9.403c-0.447,0.163-0.883,0.377-1.301,0.645c-3.045,1.953-3.907,5.962-1.916,8.949
		C43.292,22.945,47.376,23.788,50.429,21.835z"/>
	<path fill="#FDBB17" d="M57.571,19.095c0.255-0.119,0.5-0.248,0.729-0.389c-2.254-3.281-5.16-4.201-9.148-2.917
		c3.735-2.229,5.108-5.06,4.266-8.888c-0.466,0.1-0.933,0.249-1.384,0.453c-3.305,1.503-4.743,5.346-3.211,8.588
		C50.35,19.183,54.269,20.596,57.571,19.095z"/>
	<path fill="#FDBB17" d="M67.457,128.648c-0.283-0.006-0.56-0.004-0.833,0.022c0.505,3.926,2.678,6.035,6.832,6.651
		c-4.361,0.339-6.891,2.257-7.895,6.05c0.461,0.12,0.945,0.188,1.445,0.206c3.635,0.12,6.683-2.674,6.808-6.243
		C73.939,131.762,71.092,128.772,67.457,128.648z"/>
	<path fill="#323234" d="M93.628,12.851c-4.14-0.699-6.873,0.628-8.619,4.199c0.249,0.102,0.515,0.198,0.781,0.274
		c3.488,1.013,7.154-0.944,8.185-4.374c1.027-3.425-0.968-7.021-4.457-8.031c-0.48-0.138-0.959-0.221-1.437-0.253
		C87.814,8.577,89.599,11.182,93.628,12.851z"/>
	<path fill="#323234" d="M85.851,134.521c4.011-1.225,5.837-3.623,5.738-7.585c-0.273,0.019-0.552,0.053-0.823,0.101
		c-3.578,0.658-5.933,4.038-5.27,7.547c0.67,3.51,4.114,5.829,7.693,5.169c0.487-0.088,0.952-0.227,1.395-0.414
		C93.009,135.737,90.217,134.21,85.851,134.521z"/>
	<path fill="#FDBB17" d="M94.184,132.608c3.871-1.607,5.446-4.176,4.943-8.105c-0.27,0.044-0.543,0.104-0.809,0.184
		c-3.495,0.997-5.501,4.589-4.482,8.021c1.021,3.426,4.681,5.392,8.173,4.398c0.479-0.145,0.929-0.326,1.349-0.555
		C101.429,133.123,98.495,131.874,94.184,132.608z"/>
	<path fill="#323234" d="M102.171,129.585c3.582-2.142,4.76-4.908,3.682-8.724c-0.263,0.08-0.521,0.18-0.774,0.292
		c-3.31,1.493-4.755,5.331-3.237,8.578c1.517,3.247,5.431,4.67,8.74,3.175c0.452-0.198,0.868-0.446,1.247-0.734
		C109.41,129.059,106.322,128.242,102.171,129.585z"/>
	<path fill="#FDBB17" d="M109.669,125.546c3.235-2.627,3.988-5.531,2.362-9.152c-0.245,0.115-0.487,0.248-0.723,0.4
		c-3.052,1.941-3.919,5.949-1.942,8.944c1.982,2.998,6.061,3.854,9.113,1.907c0.419-0.269,0.797-0.572,1.132-0.909
		C116.756,124,113.586,123.63,109.669,125.546z"/>
	<path fill="#323234" d="M116.557,120.562c2.818-3.05,3.146-6.03,1.013-9.39c-0.232,0.152-0.448,0.316-0.663,0.495
		c-2.733,2.354-3.018,6.439-0.62,9.128c2.393,2.688,6.556,2.965,9.297,0.615c0.375-0.322,0.7-0.673,0.984-1.056
		C123.347,118.041,120.151,118.121,116.557,120.562z"/>
	<path fill="#FDBB17" d="M122.711,114.729c2.349-3.419,2.243-6.414-0.354-9.44c-0.206,0.186-0.4,0.374-0.581,0.588
		c-2.374,2.701-2.062,6.789,0.698,9.117c2.76,2.33,6.92,2.023,9.292-0.685c0.328-0.371,0.604-0.77,0.825-1.184
		C129.072,111.286,125.918,111.807,122.711,114.729z"/>
	<path fill="#323234" d="M128.003,108.128c2.016-3.613,1.62-6.587-1.259-9.357c-0.186,0.198-0.361,0.409-0.523,0.631
		c-2.103,2.919-1.395,6.958,1.575,9.017c2.973,2.063,7.083,1.373,9.189-1.542c0.288-0.402,0.52-0.822,0.699-1.255
		C134.007,104.113,130.92,104.923,128.003,108.128z"/>
	<path fill="#FDBB17" d="M132.351,100.896c1.464-3.865,0.637-6.75-2.618-9.088c-0.152,0.224-0.295,0.454-0.423,0.706
		c-1.653,3.178-0.366,7.073,2.875,8.698c3.244,1.618,7.213,0.356,8.862-2.828c0.23-0.433,0.398-0.887,0.52-1.336
		C137.698,96.08,134.761,97.312,132.351,100.896z"/>
	<path fill="#323234" d="M135.67,93.159c0.875-4.035-0.367-6.773-3.937-8.615c-0.119,0.24-0.224,0.49-0.315,0.755
		c-1.163,3.383,0.691,7.054,4.136,8.193c3.452,1.143,7.19-0.679,8.354-4.061c0.158-0.464,0.26-0.931,0.312-1.4
		C140.253,87.626,137.527,89.27,135.67,93.159z"/>
	<path fill="#FDBB17" d="M137.908,85.052c0.259-4.111-1.389-6.637-5.19-7.945c-0.083,0.254-0.15,0.521-0.2,0.791
		c-0.637,3.514,1.748,6.872,5.33,7.505c3.584,0.625,7.004-1.718,7.645-5.23c0.089-0.482,0.117-0.959,0.097-1.432
		C141.604,78.916,139.158,80.938,137.908,85.052z"/>
	<path fill="#323234" d="M139.002,76.723c-0.163-4.118-2.054-6.471-5.973-7.397c-0.056,0.264-0.096,0.532-0.12,0.807
		c-0.276,3.561,2.438,6.67,6.066,6.943c3.628,0.274,6.799-2.392,7.075-5.95c0.035-0.491,0.018-0.971-0.045-1.431
		C142.056,70.252,139.828,72.505,139.002,76.723z"/>
	<path fill="#FDBB17" d="M138.959,68.323c-0.792-4.045-3.022-6.094-7.043-6.428c-0.012,0.265-0.012,0.536,0.012,0.812
		c0.266,3.559,3.429,6.234,7.056,5.973c3.629-0.268,6.355-3.369,6.086-6.934c-0.036-0.484-0.131-0.957-0.269-1.408
		C140.982,61.479,139.129,64.034,138.959,68.323z"/>
	<path fill="#323234" d="M137.797,60.001c-1.397-3.883-3.913-5.578-7.943-5.327c0.031,0.269,0.075,0.537,0.139,0.806
		c0.81,3.483,4.342,5.661,7.889,4.871c3.548-0.797,5.771-4.264,4.956-7.745c-0.106-0.477-0.27-0.928-0.474-1.355
		C138.757,52.939,137.315,55.739,137.797,60.001z"/>
	<path fill="#FDBB17" d="M135.486,51.918c-1.783-3.733-4.456-5.176-8.438-4.534c0.052,0.264,0.122,0.523,0.212,0.788
		c1.153,3.387,4.888,5.213,8.336,4.082c3.456-1.132,5.318-4.796,4.163-8.185c-0.155-0.463-0.364-0.899-0.61-1.3
		C135.733,44.794,134.578,47.72,135.486,51.918z"/>
	<path fill="#323234" d="M123.063,40.932c0.095,0.252,0.204,0.501,0.329,0.749c1.645,3.186,5.61,4.458,8.858,2.849
		c3.245-1.616,4.547-5.509,2.901-8.695c-0.224-0.434-0.493-0.835-0.798-1.197c-3.081,2.489-3.793,5.547-2.271,9.575
		C129.771,40.772,126.91,39.731,123.063,40.932z"/>
	<path fill="#FDBB17" d="M118.261,35.044c0.13,0.237,0.276,0.47,0.434,0.693c2.095,2.926,6.208,3.625,9.184,1.573
		c2.978-2.055,3.695-6.085,1.601-9.013c-0.288-0.397-0.609-0.758-0.966-1.073c-2.684,2.9-2.938,6.024-0.846,9.792
		C124.872,33.943,121.89,33.31,118.261,35.044z"/>
	<path fill="#323234" d="M112.721,29.822c0.162,0.221,0.339,0.428,0.527,0.626c2.495,2.602,6.668,2.728,9.317,0.277
		c2.648-2.448,2.779-6.542,0.278-9.143c-0.339-0.354-0.713-0.665-1.106-0.926c-2.235,3.244-2.041,6.374,0.58,9.816
		C119.104,27.816,116.059,27.6,112.721,29.822z"/>
	<path fill="#FDBB17" d="M106.501,24.925c0.18,0.201,0.38,0.391,0.588,0.575c2.731,2.357,6.9,2.095,9.301-0.589
		c2.402-2.683,2.136-6.769-0.599-9.128c-0.373-0.321-0.78-0.594-1.196-0.822c-1.914,3.437-1.415,6.537,1.525,9.718
		C112.663,22.333,109.615,22.405,106.501,24.925z"/>
	<path fill="#323234" d="M99.701,21.349c0.206,0.172,0.425,0.336,0.665,0.486c3.045,1.953,7.13,1.11,9.119-1.885
		c1.988-2.987,1.127-6.996-1.92-8.949c-0.416-0.268-0.855-0.481-1.302-0.645c-1.396,3.667-0.454,6.667,2.922,9.403
		C105.425,17.918,102.413,18.422,99.701,21.349z"/>
	<path fill="#FDBB17" d="M101.642,15.79c-3.989-1.284-6.896-0.364-9.15,2.917c0.232,0.141,0.476,0.27,0.729,0.389
		c3.301,1.5,7.222,0.087,8.749-3.152c1.53-3.243,0.09-7.085-3.209-8.588c-0.456-0.205-0.917-0.353-1.385-0.453
		C96.53,10.73,97.903,13.561,101.642,15.79z"/>
	<path fill="#FDBB17" d="M129.511,73.159c0-30.324-24.581-54.903-54.906-54.903c-3.62,0-7.153,0.36-10.578,1.028v12.903
		c-3.955,0.994-7.733,2.56-11.235,4.654l-9.077-9.07c-5.767,3.933-10.75,8.934-14.654,14.724l9.037,9.039
		c-2.091,3.5-3.658,7.281-4.654,11.236H20.701c-0.646,3.365-0.995,6.835-0.995,10.39c0,3.552,0.35,7.022,0.995,10.384h12.746
		c0.996,3.959,2.559,7.739,4.654,11.24l-9.039,9.038c3.904,5.79,8.888,10.788,14.654,14.724l9.075-9.07
		c3.501,2.094,7.281,3.659,11.237,4.654v12.902c3.424,0.668,6.958,1.028,10.578,1.028C104.93,128.06,129.511,103.479,129.511,73.159
		z M119.884,42.38c4.1,6.043,7.021,12.949,8.445,20.389h-12.943c-0.997-3.957-2.561-7.738-4.654-11.238L119.884,42.38z
		 M84.802,19.242c7.44,1.423,14.349,4.346,20.388,8.449l-9.147,9.15c-3.503-2.092-7.282-3.659-11.24-4.654V19.242z M36.564,73.159
		c0-20.98,17.066-38.044,38.043-38.044c20.977,0,38.042,17.063,38.042,38.044c0,20.976-17.064,38.041-38.042,38.041
		C53.63,111.2,36.564,94.135,36.564,73.159z M84.802,127.075v-12.946c3.958-0.995,7.737-2.561,11.24-4.658l9.147,9.154
		C99.15,122.727,92.245,125.651,84.802,127.075z M115.386,83.543h12.943c-1.421,7.442-4.346,14.347-8.445,20.393l-9.152-9.152
		C112.825,91.282,114.392,87.502,115.386,83.543z"/>
	<path fill="#FDBB17" d="M74.608,36.274c-20.339,0-36.885,16.546-36.885,36.885c0,20.337,16.545,36.882,36.885,36.882
		c20.338,0,36.884-16.545,36.884-36.882C111.492,52.82,94.946,36.274,74.608,36.274z M108.309,80.283
		c-0.498,2.347-1.249,4.65-2.226,6.849c0,0.004-0.003,0.004-0.003,0.006c-0.004,0.006-0.003,0.015-0.007,0.024
		c-0.974,2.19-2.188,4.29-3.602,6.237c-0.005,0.005-0.014,0.007-0.019,0.013c-1.399,1.934-3.004,3.724-4.772,5.316
		c-0.005,0.008-0.018,0.004-0.024,0.01c0,0.001,0,0.001-0.002,0.005c-1.771,1.599-3.714,3.011-5.771,4.207
		c-0.007,0.003-0.011,0.013-0.021,0.017c-2.067,1.193-4.271,2.174-6.545,2.919c-0.021,0.006-0.033,0.023-0.052,0.029
		c-2.268,0.733-4.623,1.233-7.003,1.483c-0.003,0-0.008,0.005-0.013,0.005c-0.007,0-0.014,0-0.021,0
		c-0.003,0.002-0.005,0.002-0.007,0.002c-0.034,0.004-0.068,0.004-0.1,0.004l0,0c-1.179,0.12-2.367,0.188-3.547,0.188
		c-1.173,0-2.359-0.062-3.524-0.18c-0.008,0-0.015-0.008-0.023-0.008l0,0c-2.393-0.244-4.761-0.747-7.045-1.487
		c-0.009,0-0.013-0.007-0.022-0.013c-2.256-0.74-4.454-1.713-6.531-2.904c-0.002-0.002-0.002-0.002-0.004-0.004
		c-0.008-0.004-0.012-0.004-0.018-0.006c-2.063-1.191-4.009-2.604-5.789-4.2c-0.006-0.008-0.016-0.004-0.023-0.01
		c-1.788-1.604-3.413-3.399-4.826-5.342c-0.009-0.014-0.011-0.031-0.02-0.044c-1.412-1.938-2.625-4.023-3.598-6.201
		c-0.006-0.015-0.004-0.034-0.011-0.052c-0.963-2.175-1.708-4.452-2.204-6.774c-0.002-0.008-0.012-0.012-0.013-0.021
		c-0.491-2.318-0.741-4.704-0.748-7.092c0-0.019-0.009-0.032-0.009-0.05v-0.084c0-2.377,0.248-4.754,0.739-7.074
		c0-0.005,0.004-0.007,0.004-0.012l0,0c0.491-2.351,1.238-4.657,2.213-6.852c0.007-0.014,0.018-0.021,0.024-0.035
		c0.482-1.084,1.027-2.157,1.625-3.188c0.595-1.033,1.248-2.045,1.94-3.002c0,0,0-0.001,0.003-0.001
		c0.002-0.003,0.002-0.009,0.004-0.012c1.393-1.92,2.994-3.698,4.756-5.296c0.017-0.017,0.021-0.039,0.04-0.053
		c1.781-1.611,3.738-3.035,5.819-4.24c0.002-0.001,0.004-0.001,0.007-0.003c0,0,0-0.001,0.002-0.002
		c2.079-1.208,4.29-2.194,6.57-2.94c0.027-0.01,0.055-0.004,0.081-0.01c2.257-0.735,4.596-1.234,6.952-1.49h0.002
		c0.002,0,0.002-0.001,0.004-0.001c2.364-0.249,4.801-0.254,7.16-0.014c0.012,0,0.021-0.004,0.031-0.003
		c2.389,0.244,4.757,0.744,7.043,1.481c0.003,0.001,0.006,0,0.008,0.001c2.283,0.738,4.497,1.721,6.582,2.92
		c0.011,0.006,0.015,0.015,0.024,0.022l0.014,0.007c2.076,1.2,4.038,2.618,5.816,4.212c0.021,0.018,0.026,0.042,0.045,0.061
		c1.758,1.587,3.357,3.353,4.753,5.262c0,0.001,0,0.001,0,0.001c0.009,0.011,0.02,0.015,0.026,0.025
		c1.392,1.914,2.584,3.982,3.554,6.148c0.01,0.017,0.025,0.028,0.034,0.046c0.984,2.192,1.737,4.492,2.237,6.843
		c0.002,0.013-0.004,0.025,0,0.036c0,0.002,0.002,0.002,0.002,0.005c0.505,2.352,0.761,4.76,0.766,7.158
		c0,0.009-0.005,0.014-0.005,0.023v0.011c0,2.39-0.25,4.776-0.735,7.097C108.306,80.265,108.31,80.275,108.309,80.283z"/>
	<path fill="#323234" d="M38.098,51.533l-9.037-9.039l-0.113-0.114c-4.1,6.044-7.024,12.95-8.446,20.389h0.199h12.744
		C34.44,58.814,36.007,55.033,38.098,51.533z"/>
	<path fill="#323234" d="M64.027,32.187V19.284v-0.041c-7.438,1.421-14.346,4.347-20.392,8.447l0.08,0.081l9.077,9.07
		C56.294,34.747,60.073,33.181,64.027,32.187z"/>
	<path fill="#323234" d="M128.329,62.77c-1.425-7.44-4.346-14.346-8.445-20.389l-9.152,9.151c2.094,3.5,3.657,7.281,4.654,11.238
		H128.329z"/>
	<path fill="#323234" d="M105.189,27.691c-6.039-4.103-12.947-7.026-20.388-8.449v12.945c3.958,0.995,7.737,2.562,11.24,4.654
		L105.189,27.691z"/>
	<path fill="#323234" d="M128.329,83.543h-12.943c-0.994,3.959-2.561,7.739-4.654,11.24l9.152,9.152
		C123.983,97.89,126.908,90.985,128.329,83.543z"/>
	<path fill="#323234" d="M33.446,83.543H20.701h-0.202c1.427,7.442,4.35,14.347,8.449,20.393l0.113-0.114l9.039-9.038
		C36.005,91.282,34.442,87.502,33.446,83.543z"/>
	<path fill="#323234" d="M84.802,114.129v12.946c7.443-1.424,14.349-4.349,20.388-8.45l-9.147-9.154
		C92.539,111.568,88.76,113.134,84.802,114.129z"/>
	<path fill="#323234" d="M52.79,109.475l-9.075,9.07l-0.08,0.08c6.047,4.102,12.951,7.026,20.392,8.45v-0.044v-12.902
		C60.071,113.134,56.292,111.568,52.79,109.475z"/>
	<path fill="#FFFFFF" d="M78.25,107.403c0.005,0,0.01-0.005,0.013-0.005c-0.011,0.004-0.022,0.005-0.033,0.005
		C78.236,107.403,78.243,107.403,78.25,107.403z"/>
	<path fill="#323234" d="M109.044,73.148v-0.066c0-0.531-0.437-0.963-0.969-0.963c-0.531,0-0.966,0.432-0.966,0.963v0.078
		c0,2.272-0.232,4.548-0.7,6.756c-0.109,0.522,0.221,1.035,0.741,1.146c0.068,0.014,0.137,0.021,0.203,0.021
		c0.447,0,0.848-0.313,0.945-0.768c0.006-0.021,0.006-0.039,0.01-0.059c0.485-2.32,0.735-4.707,0.735-7.097V73.148z"/>
	<path fill="#323234" d="M58.726,102.645c0.271-0.463,0.109-1.055-0.35-1.323c-1.961-1.133-3.813-2.473-5.497-3.992
		c-0.398-0.356-1.009-0.32-1.366,0.07c-0.356,0.4-0.327,1.007,0.07,1.367c0.012,0.012,0.025,0.017,0.036,0.028
		c1.78,1.596,3.725,3.009,5.789,4.2c0.006,0.002,0.01,0.002,0.018,0.006c0.147,0.082,0.309,0.126,0.463,0.126
		C58.225,103.127,58.545,102.953,58.726,102.645z"/>
	<path fill="#323234" d="M47.545,93.82c0.197,0,0.395-0.062,0.57-0.187c0.429-0.314,0.524-0.915,0.21-1.351
		c-1.338-1.832-2.485-3.81-3.409-5.876c-0.218-0.484-0.79-0.706-1.276-0.484c-0.471,0.21-0.68,0.745-0.5,1.224
		c0.007,0.018,0.005,0.037,0.011,0.052c0.974,2.178,2.186,4.264,3.598,6.201c0.004,0.007,0.009,0.013,0.015,0.022
		C46.954,93.682,47.247,93.82,47.545,93.82z"/>
	<path fill="#323234" d="M72.09,106.548c0.052-0.532-0.332-1.005-0.861-1.059c-2.259-0.234-4.495-0.707-6.65-1.403
		c-0.508-0.168-1.05,0.114-1.215,0.62c-0.164,0.501,0.107,1.027,0.598,1.203c0.009,0.006,0.014,0.013,0.022,0.013
		c2.284,0.74,4.652,1.243,7.045,1.487l0,0c0.034,0.002,0.067,0.006,0.1,0.006C71.619,107.415,72.037,107.042,72.09,106.548z"/>
	<path fill="#323234" d="M97.727,97.378c-0.356-0.396-0.971-0.429-1.366-0.07c-1.682,1.52-3.532,2.866-5.488,3.998
		c-0.463,0.268-0.621,0.858-0.353,1.322c0.179,0.309,0.502,0.48,0.836,0.48c0.161,0,0.33-0.042,0.482-0.13
		c0.016-0.01,0.028-0.021,0.045-0.028c2.058-1.196,4.001-2.608,5.771-4.207c0.002-0.004,0.002-0.004,0.002-0.005
		C98.053,98.379,98.081,97.775,97.727,97.378z"/>
	<path fill="#323234" d="M85.884,104.692c-0.166-0.505-0.71-0.785-1.216-0.616c-2.155,0.698-4.389,1.171-6.646,1.405
		c-0.53,0.058-0.916,0.532-0.862,1.062c0.054,0.494,0.471,0.865,0.963,0.865l0,0c0.031,0,0.065,0,0.1-0.004
		c0.002,0,0.004,0,0.007-0.002c0.011,0,0.022-0.001,0.033-0.005c2.38-0.25,4.735-0.75,7.003-1.483
		c0.019-0.006,0.031-0.023,0.052-0.029C85.788,105.697,86.043,105.183,85.884,104.692z"/>
	<path fill="#323234" d="M105.585,85.887c-0.485-0.22-1.059,0.002-1.272,0.488c-0.925,2.072-2.067,4.046-3.403,5.884
		c-0.312,0.429-0.219,1.037,0.214,1.348c0.169,0.126,0.369,0.188,0.567,0.188c0.291,0,0.575-0.138,0.763-0.382
		c0.005-0.006,0.014-0.008,0.019-0.013c1.414-1.947,2.628-4.047,3.602-6.237c0.004-0.01,0.003-0.019,0.007-0.024
		C106.28,86.655,106.063,86.102,105.585,85.887z"/>
	<path fill="#323234" d="M41.654,67.183c0.068,0.012,0.135,0.023,0.2,0.023c0.448,0,0.85-0.314,0.945-0.769
		c0.466-2.22,1.17-4.394,2.088-6.465c0.218-0.489-0.002-1.059-0.489-1.272c-0.474-0.214-1.022-0.007-1.252,0.454
		c-0.007,0.014-0.018,0.021-0.024,0.035c-0.975,2.194-1.723,4.5-2.213,6.852l0,0C40.798,66.56,41.135,67.071,41.654,67.183z"/>
	<path fill="#323234" d="M41.87,81.12c0.064,0,0.134-0.01,0.198-0.023c0.525-0.11,0.856-0.623,0.747-1.147
		c-0.47-2.204-0.709-4.478-0.711-6.756c0-0.532-0.434-0.966-0.966-0.966c-0.536,0-0.965,0.434-0.965,0.967
		c0,0.021,0.002,0.043,0.002,0.064c0.007,2.388,0.257,4.774,0.748,7.092c0.001,0.009,0.011,0.013,0.013,0.021
		C41.042,80.812,41.432,81.12,41.87,81.12z"/>
	<path fill="#323234" d="M46.934,54.301c0.172,0.124,0.37,0.187,0.565,0.187c0.3,0,0.595-0.14,0.784-0.402
		c1.331-1.833,2.858-3.533,4.542-5.052c0.395-0.36,0.427-0.968,0.07-1.366c-0.359-0.395-0.97-0.427-1.366-0.069
		c-0.02,0.017-0.036,0.038-0.055,0.056c-1.762,1.599-3.363,3.376-4.756,5.296c-0.002,0.003-0.002,0.009-0.004,0.012
		C46.411,53.396,46.506,53.993,46.934,54.301z"/>
	<path fill="#323234" d="M96.238,47.598c-0.355,0.397-0.322,1.007,0.073,1.366c1.688,1.512,3.22,3.209,4.558,5.038
		c0.188,0.26,0.482,0.397,0.781,0.397c0.196,0,0.4-0.06,0.569-0.187c0.43-0.315,0.524-0.917,0.21-1.349c0,0,0,0,0-0.001
		c-1.396-1.909-2.995-3.675-4.753-5.262c-0.028-0.023-0.05-0.053-0.078-0.077C97.204,47.167,96.596,47.199,96.238,47.598z"/>
	<path fill="#323234" d="M104.771,58.597c-0.49,0.218-0.708,0.789-0.487,1.278c0.924,2.066,1.637,4.239,2.112,6.458
		c0.095,0.45,0.495,0.761,0.941,0.761c0.063,0,0.134-0.007,0.2-0.023c0.512-0.109,0.832-0.6,0.744-1.109
		c-0.004-0.011,0.002-0.023,0-0.036c-0.5-2.351-1.253-4.651-2.237-6.843c-0.009-0.018-0.024-0.029-0.034-0.046
		C105.776,58.589,105.238,58.386,104.771,58.597z"/>
	<path fill="#323234" d="M83.978,41.002c-0.164,0.507,0.114,1.052,0.622,1.218c2.155,0.695,4.245,1.622,6.211,2.754
		c0.148,0.088,0.314,0.128,0.481,0.128c0.333,0,0.658-0.172,0.836-0.484c0.259-0.449,0.112-1.022-0.326-1.297
		c-0.01-0.007-0.014-0.016-0.024-0.022c-2.085-1.199-4.299-2.182-6.582-2.92c-0.002-0.001-0.005,0-0.008-0.001
		C84.681,40.218,84.14,40.5,83.978,41.002z"/>
	<path fill="#323234" d="M70.092,39.977c0.053,0.495,0.473,0.862,0.961,0.862c0.032,0,0.068,0,0.102-0.004
		c2.239-0.237,4.552-0.24,6.794-0.012c0.535,0.056,1.008-0.333,1.061-0.861c0.056-0.531-0.33-1.006-0.865-1.061
		c-0.01-0.001-0.02-0.001-0.031-0.001c-2.359-0.24-4.796-0.235-7.16,0.014c-0.001,0-0.001,0.001-0.004,0.001
		C70.421,38.973,70.038,39.448,70.092,39.977z"/>
	<path fill="#323234" d="M56.991,44.676c0.18,0.308,0.505,0.481,0.839,0.481c0.164,0,0.332-0.043,0.484-0.131
		c1.961-1.139,4.049-2.074,6.199-2.775c0.506-0.167,0.783-0.711,0.618-1.219c-0.157-0.479-0.655-0.741-1.137-0.627
		c-0.026,0.006-0.054,0-0.081,0.01c-2.28,0.746-4.491,1.731-6.57,2.94c-0.002,0.001-0.002,0.002-0.002,0.002
		C56.883,43.629,56.724,44.217,56.991,44.676z"/>
	<path fill="#E43127" d="M57.841,69.437l-4.949-5.831c-0.079-0.093-0.193-0.154-0.313-0.165c-0.014,0-0.029-0.002-0.046-0.002
		c-0.141,0-0.271,0.06-0.361,0.167l-4.948,5.831c-0.149,0.178-0.149,0.437,0,0.612l4.948,5.833c0.09,0.104,0.22,0.167,0.361,0.167
		c0.017,0,0.032-0.005,0.046-0.005c0.12-0.011,0.234-0.068,0.313-0.162l4.949-5.833C57.989,69.873,57.989,69.614,57.841,69.437z"/>
	<path fill="#E43127" d="M98.557,65.681c-0.993-0.03-1.88,0.52-2.094,0.923c-0.221-0.403-1.102-0.953-2.097-0.923
		c-2.581,0.086-3.537,2.811-2.438,4.966c0.896,1.747,2.591,3.285,3.934,4.146c0.262,0.166,0.447,0.242,0.602,0.26
		c0.153-0.018,0.339-0.094,0.599-0.26c1.344-0.861,3.038-2.4,3.931-4.146C102.095,68.492,101.138,65.767,98.557,65.681z"/>
	<path fill="#323234" d="M81.146,89.837c4.975,0,9.005-4.03,9.005-8.999c0-4.648-3.521-8.476-8.042-8.953
		c0.312-0.914,0.48-1.889,0.48-2.905c0-4.97-4.03-9.001-9.001-9.001c-0.043,0-0.089,0.003-0.137,0.003
		c-4.908,0.071-8.869,4.071-8.869,8.998c0,1.017,0.171,1.991,0.481,2.905c-4.515,0.477-8.037,4.305-8.037,8.953
		c0,4.969,4.029,8.999,9.001,8.999c1.386,0,2.691-0.311,3.863-0.869c0.159,2.995-0.168,7.116-2.443,10.616
		c-0.782,1.329-0.777,1.617,0.245,1.617h5.758h0.137h5.893c1.019,0,1.028-0.288,0.248-1.617c-2.276-3.5-2.606-7.621-2.442-10.616
		C78.455,89.526,79.763,89.837,81.146,89.837z"/>
	<path fill="#323234" d="M72.056,53.737c0.412,0.013,0.807-0.071,1.148-0.201c0.022,0.882-0.107,2.024-0.743,3.003
		c-0.237,0.404-0.237,0.489,0.073,0.489h1.733h0.043h1.775c0.309,0,0.309-0.085,0.074-0.489c-0.63-0.968-0.765-2.099-0.745-2.971
		c0.322,0.11,0.687,0.179,1.063,0.168c2.732-0.091,3.739-2.975,2.577-5.244c-0.945-1.847-2.733-3.471-4.151-4.383
		c-0.278-0.178-0.478-0.259-0.637-0.276c-0.162,0.017-0.359,0.098-0.634,0.276c-1.421,0.912-3.209,2.536-4.156,4.383
		C68.317,50.762,69.327,53.646,72.056,53.737z"/>
</g>
</svg>
