<?xml version="1.0" encoding="utf-8"?>
<!-- Generator: Adobe Illustrator 18.1.0, SVG Export Plug-In . SVG Version: 6.00 Build 0)  -->
<svg version="1.1" id="Layer_1" xmlns="http://www.w3.org/2000/svg" xmlns:xlink="http://www.w3.org/1999/xlink" x="0px" y="0px"
	 viewBox="0 0 150 150" enable-background="new 0 0 150 150" xml:space="preserve">
<g>
	<path fill="#00A551" d="M116.4,60.4c0.4,0.3,0.9,0.6,1.5,0.8c0.8,0.2,1.6,0.3,2.4,0.1c1.4-0.3,2.6-1.2,3.2-2.4
		c-1.1-0.8-2.5-1.2-3.9-0.9c-0.6,0.1-1.2,0.4-1.7,0.7C117.2,59.2,116.7,59.8,116.4,60.4z"/>
	<path fill="#00A551" d="M76.6,33.6c0.7-0.5,1.2-1.1,1.6-1.9c0.2-0.5,0.4-1,0.5-1.5c0.1-1-0.1-1.9-0.5-2.7c-0.2-0.4-0.5-0.8-0.8-1.1
		c-0.9,0.6-1.6,1.6-1.9,2.7c-0.1,0.2-0.1,0.5-0.2,0.7c-0.1,0.6,0,1.3,0.2,1.9C75.7,32.4,76.1,33.1,76.6,33.6z"/>
	<path fill="#00A551" d="M77.3,45.7c-0.6,0.3-1.2,0.7-1.7,1.1c-1.3,1.1-2.3,2.6-2.8,4.4c-0.1,0.2-0.1,0.4-0.1,0.7
		c-0.2,1.1-0.2,2.1,0,3.1c0.2,1.2,0.7,2.3,1.3,3.2c0.6-0.3,1.1-0.6,1.6-1c1.2-1,2.1-2.2,2.7-3.8c0.1-0.2,0.2-0.5,0.2-0.7
		c0.5-1.8,0.4-3.6-0.2-5.2C78,46.9,77.7,46.3,77.3,45.7z"/>
	<path fill="#00A551" d="M78,37.4c-0.5,1.8-0.4,3.5,0.2,5.1c0.2,0.7,0.6,1.3,1,2c0.6-0.3,1.2-0.6,1.7-1.1c1.3-1.1,2.4-2.6,2.9-4.4
		c0.7-2.5,0.2-5.1-1.2-7.1c-0.6,0.3-1.2,0.7-1.7,1.1c-1.2,1-2.1,2.3-2.7,3.8C78.1,37,78.1,37.2,78,37.4z"/>
	<path fill="#00A551" d="M89.2,35.8c0.6-1.2,0.8-2.6,0.2-4c-0.5-1.3-1.6-2.3-2.9-2.8c-0.6,1.2-0.7,2.6-0.2,4
		C86.9,34.4,87.9,35.4,89.2,35.8z"/>
	<path fill="#00A551" d="M67.7,34.4c0.1-1.4-0.5-2.8-1.5-3.7c-1.1,0.8-1.8,2.1-1.8,3.5c-0.1,1.5,0.5,2.8,1.5,3.7
		C66.9,37.2,67.7,35.9,67.7,34.4z"/>
	<path fill="#00A551" d="M51.8,48.4c1,0.6,2.2,1,3.4,1.2c0.2,0,0.4,0,0.5,0c0.3-1.7,0.2-3.5-0.5-5.2c-0.3-0.6-0.6-1.2-1-1.8
		c-0.7-0.9-1.5-1.6-2.4-2.1c-1.2-0.7-2.6-1.2-3.9-1.2c-0.5,2.4,0,4.9,1.6,7C50.1,47.1,50.9,47.9,51.8,48.4z"/>
	<path fill="#00A551" d="M55.2,39.2c0.6,0.9,1.5,1.6,2.5,2c0.6-1.2,0.7-2.6,0.2-4c-0.5-1.3-1.5-2.2-2.7-2.7c-0.1,0-0.1,0-0.2-0.1
		c-0.6,1.2-0.8,2.6-0.2,4C54.9,38.7,55,38.9,55.2,39.2z"/>
	<path fill="#00A551" d="M63.5,51.7c0.3-0.2,0.5-0.5,0.7-0.8c1.3-1.6,2.1-3.6,2-5.8c-0.1-2-0.8-3.9-2-5.3c-0.3-0.4-0.7-0.8-1.1-1.1
		c-1.8,1.7-2.8,4-2.8,6.6C60.4,47.9,61.7,50.2,63.5,51.7z"/>
	<path fill="#00A551" d="M72.6,43.3c0.5,0.4,1.1,0.8,1.7,1.1c0.6-0.9,1-1.9,1.3-3c0.3-1.2,0.3-2.4,0-3.6c0-0.2-0.1-0.3-0.1-0.4
		c-0.5-1.8-1.5-3.3-2.9-4.4c-0.5-0.4-1.1-0.8-1.7-1.1c-1.3,2-1.8,4.5-1.2,7.1C70.2,40.7,71.2,42.2,72.6,43.3z"/>
	<path fill="#00A551" d="M87.1,43c-0.7,2.5-0.2,5.1,1.2,7.1c0.6-0.3,1.2-0.7,1.7-1.1c1.4-1.1,2.4-2.6,2.9-4.4
		c0.7-2.5,0.2-5.1-1.2-7.1c-0.6,0.3-1.2,0.7-1.7,1.1C88.6,39.7,87.6,41.2,87.1,43z"/>
	<path fill="#00A551" d="M109.2,62.7c-0.3,0.1-0.5,0.3-0.8,0.4c-0.2,0.1-0.4,0.2-0.5,0.3c-2,1.3-3.2,3.3-3.6,5.5
		c1.2,0.4,2.4,0.6,3.6,0.4c0.4,0,0.9-0.1,1.3-0.2c0.7-0.2,1.5-0.5,2.2-0.9c2.3-1.3,3.7-3.4,4.2-5.8
		C113.5,61.7,111.2,61.8,109.2,62.7z"/>
	<path fill="#00A551" d="M109.2,55.5c-0.6,0.9-0.9,1.9-1.1,2.9c0.4,0.1,0.8,0.2,1.1,0.3c2,0.4,4.1,0.1,6-1c1.1-0.6,2-1.5,2.7-2.4
		c0.7-1,1.2-2.2,1.5-3.4c-0.5-0.2-1-0.3-1.5-0.4c-1.9-0.3-3.9,0-5.7,1C110.9,53.3,109.9,54.3,109.2,55.5z"/>
	<path fill="#00A551" d="M107.8,44.5c0.4,0,0.9-0.2,1.3-0.3c0.2-0.1,0.4-0.2,0.5-0.2c1.3-0.7,2.1-1.9,2.3-3.2
		c-0.9-0.3-1.9-0.4-2.9-0.1c-0.4,0.1-0.7,0.3-1.1,0.4c-0.1,0-0.2,0.1-0.2,0.1c-1.1,0.7-1.9,1.9-2.1,3.1
		C106.4,44.5,107.1,44.6,107.8,44.5z"/>
	<path fill="#00A551" d="M109.2,48.7c-0.5,0.8-0.8,1.7-0.8,2.7c0.3,0,0.5,0.1,0.8,0c1.1,0,2.1-0.4,3-1.2c1.1-0.9,1.6-2.3,1.6-3.6
		c-1.3-0.2-2.7,0.2-3.8,1.1C109.7,48,109.4,48.3,109.2,48.7z"/>
	<path fill="#00A551" d="M95.1,37.8c0.8-0.3,1.5-0.8,2.1-1.5c0.3-0.4,0.6-0.8,0.7-1.3c0.5-1.4,0.4-2.8-0.3-4
		c-0.2,0.1-0.3,0.1-0.5,0.2c-0.9,0.5-1.7,1.2-2.2,2.3c0,0.1-0.1,0.2-0.1,0.3c-0.5,1.3-0.4,2.6,0.1,3.8C95,37.6,95.1,37.7,95.1,37.8z
		"/>
	<path fill="#00A551" d="M97.2,40.5c-1,1.9-1.3,4.1-0.8,6.1c0.3,0,0.6-0.1,0.8-0.1c1-0.2,2.1-0.6,3-1.2c0.9-0.6,1.7-1.3,2.4-2.3
		c1.5-2.1,2-4.7,1.4-7c-1.3,0.1-2.7,0.6-3.8,1.3c-0.9,0.6-1.7,1.3-2.4,2.3C97.6,39.9,97.4,40.2,97.2,40.5z"/>
	<path fill="#00A551" d="M99.5,50.2c-1.2,1.2-1.9,2.6-2.3,4.1C97,55.2,96.9,56,97,56.9c0.1,0,0.1,0,0.2,0c1,0,2-0.1,3-0.4
		c1.3-0.4,2.5-1.1,3.5-2.1c1.8-1.8,2.7-4.3,2.5-6.7c-2.1-0.1-4.3,0.5-6,1.9C100,49.8,99.7,50,99.5,50.2z"/>
	<path fill="#00A551" d="M64.3,54c-0.4-0.3-0.8-0.6-1.3-0.7c-0.6,1.2-0.8,2.6-0.2,4c0.3,0.8,0.9,1.5,1.5,2.1
		c0.4,0.3,0.8,0.5,1.3,0.7c0.6-1.2,0.7-2.6,0.2-4C65.5,55.2,64.9,54.5,64.3,54z"/>
	<path fill="#00A551" d="M96.2,86.2c-0.4-0.4-0.8-0.6-1.2-0.9c-0.8-0.4-1.7-0.6-2.6-0.5c-0.1,1.4,0.4,2.7,1.4,3.7
		c0.4,0.4,0.8,0.6,1.2,0.9c0.7,0.4,1.5,0.5,2.2,0.5c0.1,0,0.2,0,0.4,0c0.1-0.7-0.1-1.5-0.4-2.2C97,87.1,96.6,86.6,96.2,86.2z"/>
	<path fill="#00A551" d="M50,57.5c0.5,0.5,1.1,0.9,1.7,1.2c1.1,0.6,2.2,0.9,3.4,0.9c0.6,0,1.2,0,1.7-0.1c0-1.8-0.6-3.6-1.7-5.1
		c-0.4-0.5-0.8-0.9-1.3-1.4c-0.7-0.6-1.4-1-2.1-1.4c-1.5-0.7-3.1-0.9-4.7-0.7C47,53.4,48.1,55.8,50,57.5z"/>
	<path fill="#00A551" d="M44.5,84.3c-0.9,0.3-1.7,0.9-2.2,1.7c-0.3,0.3-0.5,0.7-0.6,1.1c0.2,0.1,0.4,0.2,0.6,0.3
		c0.9,0.3,1.8,0.4,2.8,0.2c0.2,0,0.4-0.1,0.6-0.2c1.4-0.5,2.4-1.5,2.9-2.8c-1-0.6-2.2-0.8-3.4-0.5C44.9,84.1,44.7,84.2,44.5,84.3z"
		/>
	<path fill="#00A551" d="M115.5,83.7c-1.3-0.6-2.8-0.6-4-0.1c0.4,1.3,1.3,2.4,2.6,3c1.2,0.6,2.6,0.6,3.8,0.2c0.1,0,0.2-0.1,0.2-0.1
		c-0.1-0.2-0.1-0.4-0.2-0.7C117.4,85.1,116.6,84.2,115.5,83.7z"/>
	<path fill="#00A551" d="M117.8,69.7c-0.2-0.1-0.4-0.1-0.7-0.2c-1.4-0.2-2.8,0.2-3.9,1.1c0.7,1.1,1.9,2,3.3,2.2
		c0.4,0.1,0.8,0.1,1.2,0c1-0.1,1.9-0.5,2.7-1.1C119.9,70.8,119,70,117.8,69.7z"/>
	<path fill="#00A551" d="M123.6,65.5c-1-0.9-2.3-1.4-3.8-1.3c-0.7,0.1-1.4,0.3-2,0.7c-0.6,0.3-1,0.8-1.4,1.3
		c0.4,0.4,0.9,0.7,1.4,0.9c0.7,0.3,1.5,0.4,2.3,0.4C121.6,67.3,122.9,66.6,123.6,65.5z"/>
	<path fill="#00A551" d="M33.7,81.8c-1.1,0-2.1,0.2-3.1,0.6c-1.3,0.5-2.5,1.3-3.4,2.4c0.9,1.1,2.1,1.9,3.4,2.4c1,0.4,2,0.6,3.1,0.6
		c2.3,0,4.3-0.9,5.9-2.3c0.2-0.2,0.4-0.4,0.7-0.7c-0.2-0.2-0.4-0.5-0.7-0.7C38,82.7,35.9,81.8,33.7,81.8z"/>
	<path fill="#00A551" d="M120.4,76.2c-0.8-0.6-1.7-1.1-2.6-1.4c-1.4-0.4-2.8-0.6-4.3-0.3c-1.7,0.3-3.2,1.1-4.3,2.3
		c-0.5,0.5-1,1-1.3,1.6c-0.1,0.1-0.1,0.2-0.2,0.3c0.1,0,0.1,0.1,0.2,0.1c0.4,0.3,0.9,0.6,1.3,0.8c1.6,0.8,3.5,1.1,5.5,0.7
		c1.2-0.2,2.3-0.7,3.2-1.3C118.9,78.3,119.8,77.3,120.4,76.2z"/>
	<path fill="#00A551" d="M102.7,86.2c1.9,0,3.7-0.6,5.1-1.7c0.5-0.3,0.9-0.8,1.3-1.2l0.1-0.1l-0.1-0.1c-0.4-0.5-0.8-0.9-1.3-1.2
		c-1.4-1.1-3.2-1.7-5.1-1.7c-0.9,0-1.7,0.1-2.5,0.4c-1.1,0.3-2.1,0.9-3,1.6c-0.4,0.3-0.7,0.6-1,1c0.3,0.4,0.7,0.7,1,1
		c0.9,0.7,1.9,1.3,3,1.6C101,86.1,101.8,86.2,102.7,86.2z"/>
	<path fill="#00A551" d="M37.6,57.7c0.6,0.4,1.2,0.7,1.9,1c0.9,0.3,1.8,0.5,2.7,0.5c0.8,0,1.6-0.1,2.4-0.3c-0.2-1.9-1-3.7-2.4-5.1
		c-0.4-0.4-0.8-0.8-1.3-1.1c-0.5-0.3-1-0.6-1.4-0.8c-1.8-0.8-3.8-0.9-5.6-0.4C34.2,53.9,35.5,56.2,37.6,57.7z"/>
	<path fill="#00A551" d="M42.4,44c0.5,1.3,1.5,2.2,2.6,2.7c0.1,0,0.1,0.1,0.2,0.1c0.6-1.2,0.8-2.6,0.2-4c-0.1-0.3-0.3-0.6-0.4-0.9
		c-0.6-0.9-1.5-1.6-2.4-1.9c-0.2,0.3-0.3,0.7-0.4,1c-0.2,0.8-0.2,1.7,0,2.5C42.3,43.7,42.4,43.9,42.4,44z"/>
	<path fill="#00A551" d="M38.5,48.3c0.3,0.2,0.7,0.4,1,0.6c0.9,0.4,1.8,0.5,2.7,0.3c0,0,0.1,0,0.2,0c0-0.3-0.1-0.7-0.2-1
		c-0.3-1-0.9-1.9-1.7-2.6c-0.3-0.2-0.7-0.4-1-0.6c-0.9-0.4-1.9-0.5-2.9-0.3C36.7,46.1,37.4,47.4,38.5,48.3z"/>
	<path fill="#00A551" d="M44.9,61.7c0,0.3,0.1,0.7,0.2,1c0.5,2,1.7,3.9,3.5,5.1c1,0.7,2.1,1.1,3.2,1.4c1.1,0.2,2.3,0.2,3.4,0
		c0.2,0,0.3-0.1,0.5-0.1c-0.1-0.7-0.2-1.3-0.5-1.9c-0.6-1.7-1.7-3.1-3.2-4.2c-0.1,0-0.1-0.1-0.2-0.1c-2-1.3-4.5-1.7-6.7-1.2
		C45,61.7,44.9,61.7,44.9,61.7z"/>
	<path fill="#00A551" d="M32.7,66.2c2.1,1.4,4.6,1.8,6.8,1.3c0.1,0,0.1,0,0.2,0c0-0.4-0.1-0.8-0.2-1.1c-0.5-2-1.7-3.8-3.5-5
		c-1.7-1.2-3.6-1.6-5.5-1.5c-0.5,0-1,0.1-1.6,0.3c0.2,1.4,0.7,2.8,1.6,4C31.1,64.9,31.9,65.6,32.7,66.2z"/>
	<path fill="#00A551" d="M39.5,76.5c0.9,0.2,1.8,0.2,2.7,0.1c1-0.1,1.9-0.4,2.8-0.8c0.4-0.2,0.9-0.5,1.3-0.7
		c-0.3-0.7-0.8-1.3-1.3-1.8c-0.8-0.9-1.7-1.6-2.8-2.1c-0.5-0.2-1-0.4-1.5-0.5c-0.4-0.1-0.8-0.2-1.2-0.2c-2.1-0.2-4.2,0.4-5.8,1.5
		c1.1,2.2,3.1,3.8,5.6,4.4C39.4,76.5,39.5,76.5,39.5,76.5z"/>
	<path fill="#00A551" d="M28.9,71.3c0.6,0,1.2,0,1.7-0.2c0.8-0.2,1.5-0.6,2-1.2c-0.5-0.7-1.2-1.3-2-1.6c-0.4-0.2-0.9-0.3-1.5-0.3
		c-1.4-0.1-2.8,0.4-3.7,1.4C26.2,70.4,27.4,71.2,28.9,71.3z"/>
	<path fill="#00A551" d="M27.6,78.3c1.2-0.2,2.3-0.9,3-1.9c0.1-0.1,0.2-0.3,0.3-0.4c-0.1-0.1-0.2-0.1-0.3-0.2c-1-0.7-2.3-1-3.6-0.8
		c-1.4,0.3-2.6,1.1-3.3,2.3C24.8,78.2,26.2,78.6,27.6,78.3z"/>
	<path fill="#00A551" d="M67.6,119.5c-0.1,0.7-0.2,1.4-0.3,2.1c2.2,0.2,4.5,0.3,6.7,0.3c3.3,0,6.6-0.2,9.8-0.6
		c-0.1-0.7-0.2-1.4-0.3-2.1c-0.3-2-0.6-3.7-0.8-5.2c-4.6-0.2-9.4-0.7-14.3-1.3C68.2,114.8,68,117.1,67.6,119.5z"/>
	<path fill="#00A551" d="M64.3,67c3.2,4.5,6.7,9.2,8.3,16.4c0.3,1.3,0.5,2.8,0.7,4.3c-0.2-0.3-0.5-0.5-0.7-0.8
		c-2.7-3-5.4-5.3-8.3-7.4c-0.5-0.3-0.9-0.6-1.4-1c-2.7-5.1-3.1-11-7.7-15.9c-0.3-0.4-0.7-0.7-1.1-1.1c0.4,0.6,0.8,1.2,1.1,1.8
		c2.4,4.5,2.9,9,4.5,13.1c-1.4-0.9-2.9-1.7-4.5-2.6c-1.1-0.6-2.2-1.3-3.4-2c-2.1-1.2-4.3-2.5-6.7-4.1c-0.7-0.4-1.4-0.9-2.1-1.4
		c0,1.3,0.8,2.4,2.1,3.6c1.7,1.6,4.2,3.1,6.7,4.8c1.2,0.8,2.4,1.6,3.4,2.4c1.4,1.1,2.7,2.4,3.5,3.7c-0.6-0.2-1.9-0.5-3.5-0.8
		c-1-0.2-2.2-0.4-3.4-0.6c-2-0.3-4.4-0.6-6.7-0.8c-0.9-0.1-1.9-0.1-2.8-0.2c-0.9,0-1.8-0.1-2.7,0c-3.7,0-7.1,0.3-9,1.4
		c-0.1,0.1-0.2,0-0.3,0h0.3c3.1,0,6.1,0.3,9,0.6c0.9,0.1,1.8,0.3,2.7,0.4c0.9,0.1,1.9,0.3,2.8,0.5c2.3,0.4,4.6,1,6.7,1.7
		c1.2,0.4,2.3,0.8,3.4,1.3c3.6,1.6,6.7,3.6,9.1,6.3c2.1,2.3,3.6,5.1,4.5,8.4c0.1,0.5,0.2,1.3,0.2,2.4c4.1,0.3,8.1,0.5,11.9,0.5
		c0-0.2-0.1-0.5-0.1-0.8c-0.1-1-0.1-1.9,0-2.4c0-0.1,0-0.2,0-0.3c1.3-8.8,4.8-13.1,9-15.8c1.6-1,3.4-1.8,5.1-2.5
		c0.7-0.3,1.5-0.6,2.2-0.8c1-0.4,2-0.7,3-1.1c3-1.1,5.7-2.5,7.6-4.8c0.5-0.6,0.9-1.3,1.3-2c0.3-0.6,0.6-1.2,0.8-1.9
		c-0.3,0.2-0.5,0.4-0.8,0.6c-0.4,0.3-0.9,0.5-1.3,0.8c-2.1,1.1-4.8,2-7.6,2.8c-1,0.3-2,0.6-3,0.8c-0.6,0.2-1.3,0.4-1.9,0.5
		c0.6-1,1.2-2,1.9-3c0.9-1.2,1.9-2.5,3-3.6c1.2-1.2,2.5-2.4,4-3.4c-1.3,0.5-2.7,1.2-4,2.1c-1,0.7-2,1.5-3,2.3
		c-0.8,0.6-1.5,1.3-2.2,2c-1.7,1.7-3.3,3.5-4.8,5.2L89.9,77c-3.6,1.3-6.9,3-9,5.5c-0.7,0.9-1.3,1.8-1.8,2.9
		c-0.1-3.6,0.6-6.7,1.8-9.3c2-4.3,5.4-7.3,9-9.6c1.7-1,3.4-1.9,5.1-2.7c0.7-0.4,1.5-0.7,2.2-1c1-0.5,2-0.9,3-1.3
		c3.4-1.5,5.7-2.7,5.7-4.4c-1.7,1.4-3.7,2.1-5.7,2.6c-1,0.2-2,0.4-3,0.5c-0.8,0.1-1.5,0.2-2.2,0.4c-0.8,0.2-1.6,0.3-2.4,0.6
		c2-5.9,2.6-8.5,0.8-14.1c0,7.1-0.9,10.9-3.5,14c-0.6,0.7-1.4,1.4-2.2,2.1c-1.8,1.5-4.5,2.9-6.8,4.9c-0.9,0.8-1.9,1.6-2.7,2.6
		c-0.2,0.2-0.3,0.4-0.5,0.6c0-1.2,0.2-2.4,0.5-3.5c0.6-2.2,1.6-4.3,2.7-6.4c2.7-5.3,5.8-10.6,2.9-18.5c-0.3,4.8-1.5,8.2-2.9,10.9
		c-0.9,1.7-1.8,3.2-2.7,4.6c-1,1.7-1.9,3.3-2.5,5.1l-0.2-0.2c-1.2-0.9-2.1-1.9-3-2.8c-5.1-5.6-4.1-10.6-3-18.3
		c-6.4,19.3,3,16.1,3,31c-3.1-4-6-6.9-8.3-9.7c-3.5-4.3-5.8-8.7-5.8-17.4C56.5,55.8,60.1,61.2,64.3,67z"/>
	<path fill="#7E7E7E" d="M124.2,63.4c11.3,7.5,17.3,15.4,16,22.6c-3.2,17.6-49.2,23.9-102.9,14.2C24.7,97.9,12.8,95,2,91.5
		c13.9,8.3,33.3,15.4,55.3,19.4c3.8,0.7,7.5,1.2,11.2,1.7c4.9,0.6,9.7,1.1,14.3,1.3c34.3,1.8,60.9-6.4,63.6-21.2
		C148.1,83,139.5,72.5,124.2,63.4z"/>
</g>
</svg>
