<?xml version="1.0" encoding="utf-8"?>
<!-- Generator: Adobe Illustrator 18.1.0, SVG Export Plug-In . SVG Version: 6.00 Build 0)  -->
<svg version="1.0" id="Layer_1" xmlns="http://www.w3.org/2000/svg" xmlns:xlink="http://www.w3.org/1999/xlink" x="0px" y="0px"
	 viewBox="0 0 150 150" enable-background="new 0 0 150 150" xml:space="preserve">
<g>
	<g>
		<path fill="#9B8774" d="M122.3,30.7l-2.4-2c0,0-0.5,0.1-1.2,0.1c-0.1,0-0.1,0-0.2,0c-1.7,0.2-4.8,0.6-9,1.2v0.2v2.1
			c5-0.7,9-1.1,11.1-1.4C121.7,30.7,122.3,30.7,122.3,30.7z"/>
		<path fill="#9B8774" d="M108.2,30.4v-0.2c-3.2,0.4-6.9,1-11,1.6v0.1V34c4-0.6,7.7-1.1,11-1.5V30.4z"/>
		<path fill="#9B8774" d="M95.5,32.1V32c-3.8,0.6-7.8,1.2-11.9,1.8v0.1V36c4.1-0.7,8.1-1.3,11.9-1.8V32.1z"/>
		<path fill="#9B8774" d="M43.3,42.4c-1.7,0.5-3.3,1.1-4.7,1.6v2c1.4-0.5,3-1.1,4.7-1.6V42.4z"/>
		<path fill="#9B8774" d="M67.9,36.6L67.9,36.6c-3.2,0.6-6.4,1.2-9.4,1.9v0v2.1c3-0.6,6.2-1.3,9.4-1.9V36.6z"/>
		<path fill="#9B8774" d="M55,39.3L55,39.3c-2.9,0.7-5.7,1.3-8.2,2.1v2.1c2.5-0.7,5.3-1.4,8.2-2V39.3z"/>
		<path fill="#9B8774" d="M35.1,45.5c-0.2,0.1-0.4,0.2-0.5,0.3v2c0.2-0.1,0.4-0.2,0.5-0.3V45.5z"/>
		<path fill="#9B8774" d="M81.4,34.3L81.4,34.3c-3.7,0.5-7.4,1.2-11.1,1.9v0v2.1c3.7-0.7,7.4-1.3,11.1-1.9V34.3z"/>
		<path fill="#9B8774" d="M48.1,66.2c2.9,0.7,5.9,1.3,9,2v-1.6c-3.1-0.7-6.1-1.3-9-2V66.2z"/>
		<path fill="#9B8774" d="M38.9,63.9c2.3,0.6,4.8,1.2,7.3,1.8v-1.6c-2.6-0.6-5-1.2-7.3-1.8V63.9z"/>
		<path fill="#9B8774" d="M105.4,80.2v-1.6c-1.4-0.5-2.9-1-4.4-1.5v1.6C102.5,79.2,104,79.7,105.4,80.2z"/>
		<path fill="#9B8774" d="M58.9,68.6c3,0.6,6,1.3,9.1,2v-1.6c-3.1-0.7-6.1-1.3-9.1-2V68.6z"/>
		<path fill="#9B8774" d="M114.2,82.3c-1.6-0.8-3.4-1.6-5.3-2.4v1.6c1.9,0.8,3.7,1.6,5.3,2.4V82.3z"/>
		<path fill="#9B8774" d="M78,72.7v-1.6c-2.5-0.6-5-1.1-7.5-1.6v1.6C73,71.6,75.5,72.2,78,72.7z"/>
		<path fill="#9B8774" d="M30.7,61.4c2.1,0.8,4.5,1.5,7.1,2.2V62c-2.6-0.7-5-1.5-7.1-2.2V61.4z"/>
		<path fill="#9B8774" d="M81.1,73.4c2.3,0.5,4.5,1.1,6.7,1.6v-1.6c-2.2-0.6-4.5-1.1-6.7-1.6V73.4z"/>
		<path fill="#9B8774" d="M21,52.9v1.6c0,0.1,0.1,0.2,0.1,0.3v-0.3l0.8,1.9c1.3,1.6,4,3.1,7.8,4.6v-1.6C24.5,57.4,21.2,55.3,21,52.9
			z"/>
		<path fill="#9B8774" d="M90.7,75.8c2.6,0.7,5.1,1.4,7.5,2.1v-1.6c-2.4-0.7-4.9-1.4-7.5-2.1V75.8z"/>
		<path fill="#9B8774" d="M66.1,136.1l-18.5-11.6v3.3l18.5,11.6c0,0,68.2-13.9,68.2-41.6v-3.3C134.3,122.3,66.1,136.1,66.1,136.1z"
			/>
	</g>
	<g>
		<path fill="#002D3E" d="M43.3,42.4c-1.7,0.5-3.3,1.1-4.7,1.6v0C40,43.5,41.6,42.9,43.3,42.4z"/>
		<path fill="#002D3E" d="M30.4,48.1v6.4c1.2,0.6,2.8,1.3,4.7,1.9v-8.9c-0.2,0.1-0.4,0.2-0.5,0.3v-2C33.4,46.5,31.8,47.3,30.4,48.1z
			"/>
		<path fill="#002D3E" d="M118.7,28.8c-0.1-0.1-0.3-0.3-0.4-0.4l0.2,0.4C118.6,28.9,118.6,28.8,118.7,28.8z"/>
		<path fill="#002D3E" d="M117.7,95.1c-1.1-0.4-2.3-0.9-3.5-1.3v-9.9c-1.6-0.8-3.4-1.6-5.3-2.4v10.4c-1.1-0.4-2.3-0.8-3.5-1.2V80.2
			c-1.4-0.5-2.9-1-4.4-1.5v10.6c-0.9-0.3-1.9-0.6-2.9-0.9V77.8c-2.4-0.7-4.9-1.4-7.5-2.1v10.4c-0.9-0.3-1.9-0.6-2.9-0.8V75.1
			c-2.2-0.6-4.5-1.1-6.7-1.6v9.9c-1-0.3-2-0.6-3.1-0.9v-9.8c-2.5-0.6-5-1.1-7.5-1.6v9.3c-0.9-0.2-1.7-0.5-2.5-0.7v-9.1
			c-3.1-0.7-6.1-1.3-9.1-2v8.5c-0.6-0.2-1.2-0.3-1.8-0.5v-8.4c-3.1-0.7-6.1-1.3-9-2V74c-0.6-0.2-1.2-0.4-1.9-0.6v-7.7
			c-2.6-0.6-5-1.2-7.3-1.8v7.2c-0.4-0.1-0.7-0.2-1.1-0.4v-7.2c-2.6-0.7-5-1.5-7.1-2.2v7c-0.3-0.1-0.7-0.2-1-0.4v-7
			c-3.8-1.4-6.5-2.9-7.8-4.6l0.2,0.4v7.7c-0.4-0.3-0.6-0.5-0.9-0.7l0-9c0-0.1-0.1-0.2-0.1-0.3v-1.6c-0.2-2.7,2-5.3,5.9-7.6l1.1-0.6
			c2.1-1.1,4.5-2.3,7.2-3.3c2.4-0.9,5.1-1.8,8.1-2.8v-0.1h0.4c20.4-6.3,53-12.8,68.7-15.3C102,14.9,88.8,10,74.4,10
			c-33.2,0-60.1,26-60.7,58.3c-0.2,0.1-0.3,0.9,0,1.3c0.1,24.6,15.5,45.7,37.4,54.5c11.2-1.6,46-7.4,63-18.3l0,0l0,0
			c3.1-1.9,5.6-4,7.3-6.3V87.6c-1-1.1-2.3-2.2-3.8-3.2V95.1z"/>
		<path fill="#002D3E" d="M120.6,30.9c-2.1,0.3-6,0.7-11.1,1.4v8.6c-0.4,0.1-0.9,0.1-1.3,0.2v-8.7c-3.3,0.4-7,0.9-11,1.5v9.1
			c-0.6,0.1-1.2,0.2-1.8,0.3v-9.2c-3.8,0.6-7.8,1.2-11.9,1.8v9.6c-0.7,0.2-1.5,0.3-2.2,0.4v-9.7c-3.7,0.6-7.4,1.2-11.1,1.9v10.2
			c-0.8,0.2-1.6,0.4-2.4,0.5V38.8c-3.2,0.6-6.4,1.2-9.4,1.9v10.6c-1.2,0.3-2.4,0.6-3.5,0.9V41.4c-2.9,0.7-5.7,1.3-8.2,2v10.9
			c-1.2,0.4-2.4,0.7-3.5,1.1v-11C41.6,45,40,45.5,38.6,46v11.5h-0.2c18.5,5.3,55.7,10.2,78,19.7c7.2,3,12.7,6.6,15.6,10.7
			c2-5.9,3.1-12.1,3.1-18.6C135.1,54.6,129.6,41.2,120.6,30.9z"/>
	</g>
</g>
</svg>
