<?xml version="1.0" encoding="utf-8"?>
<!-- Generator: Adobe Illustrator 18.1.0, SVG Export Plug-In . SVG Version: 6.00 Build 0)  -->
<svg version="1.1" id="Layer_1" xmlns="http://www.w3.org/2000/svg" xmlns:xlink="http://www.w3.org/1999/xlink" x="0px" y="0px"
	 viewBox="0 0 1000 1000" enable-background="new 0 0 1000 1000" xml:space="preserve">
<g>
	<path fill="#385072" d="M790.3,568c0,172.2-139.6,311.8-311.8,311.8c-172.2,0-311.8-139.6-311.8-311.8
		c0-172.2,139.6-311.8,311.8-311.8C650.7,256.2,790.3,395.8,790.3,568z"/>
	<g>
		<path fill="#64A046" d="M714.9,440.9l-1.4-2.4l2.3,9.9L714.9,440.9z M477.5,260.3c-38.4,0-75.1,7.4-109,20.3l2.8,1.1l3.8-1.9
			l2.8-0.9l2.8-1.9l2.8-0.9h5.6l0.9,1.8l0.9,2.8l-1.8,2.8l-1,2.8l-2.8,1.9l-2.8,0.9l-3.7,3.7l-2.8,1l-1.9,2.8h-3.7l-0.9,3.7l-1,3.7
			l-2.8,1.9l-3.7,4.7h-3.7l-3.7-2.8l-0.9-3.7l-2.8-1.8h-5.6l-3.7,1.8l-2.8,0.9l-3.7-0.9v3.7l1.9,4.7h4.7v2.8l2.8-3.7h3.7l1.8,1.8
			l-2.8,2.8l-3.8,1.9l1.9,3.7l-2.8,2.8l0.9,4.6c0,0,0,0,1,3.8c0.9,3.7,0.9,3.7,0.9,3.7l2.8-1.9l2.8-1.8l2.8-2.8l1.8,2.8v2.8
			l-2.8,3.7l-3.7,2.8l-0.9,2.8l1.8,2.8l5.6-0.9l2.8-2.8l1.8-4.7l1.9-1.9l3.7-0.9l5.6-2.8l2.8-2.8l4.7-6.5l-1.9-8.4l3.7-1.8l5.6-4.7
			l3.7-1.8l6.5,0.9l2.8-1.9l5.6-4.6l5.6-1.9l2.8-1.8l4.6,4.7l2.8-1.9l1.9-3.7l2.8-3.7l4.7-1l2.8-1.8l3.7-0.9l2.8-0.9l1.9,2.8v2.8
			h2.8l2.8-0.9l2.8-1.9l1.8-1.8l4.7-1.9h2.8l2.8,5.6h3.7l5.6-1.9l2.4-1.7l1.4-1.1l-2.8,7.4h3.7l1.9,5.6h8.4l2.8-2.8h2.8l11.2-0.9
			l6.5-1.9l4.7,1.9l5.6-6.5l3.7,3.7h5.6v4.7l4.7-4.7h2.8v4.7l-2.8,4.6l5.6-2.8h9.3l3.7,3.7l2.8-2.8l3.7-0.9l1.9,4.6l2.8,3.8l3.7,1.9
			l4.7,1.9v5.6l6.5,0.9h2.8l6.5,2.8l2.8,2.8l2.8,0.9l4.6,3.7l0.9,3.7v4.6l-5.6-2.8l1.8-1.9c0,0,1.9-4.6-0.9-3.7
			c-2.8,0.9-6.5-0.9-6.5-0.9h-1.9l-0.9,2.8l-2.8,0.9l-0.9,3.7l0.9,1.9H578l-1.9,3.7l-1.8,4.7l0.9,2.8l3.7,1.8l2.8,0.9l2.8,3.7
			l0.9,1.9l1.9,1.9l5.6,0.9v3.7l2.8,4.7l4.6,1.9l3.8,1.9l3.7,5.6l1.9,3.7l8.4-0.9v1.9l-2.8,4.6l4.7,1.8l0.9,1.9v3.7h14.9l-3.7-4.7
			l-2.8-1.8l1.9-3.7c0,0,3.7-0.9,4.6,1.9c0.9,2.8,5.6,8.4,5.6,8.4l3.7,1.9h3.7l1.9-1.9l-1.9-4.7l-2.8-3.7l-1.9-2.8l-1.9-3.7
			l-4.7-0.9l-2.8-1h-2.8l-2.8-3.7v-3.7c0,0,0-1-2.8,0c-2.8,0.9-2.8,0.9-2.8,0.9l-1.9-2.8l-2.8-1.9h-2.8l-3.7-2.8l-13.1-2.8v-14.9
			l9.3,7.4l3.7,1.9l4.6,4.7l5.6,1.9h3.7l0.9-4.6l-3.7-3.8l4.6-3.7l2.8,2.8l1.8,6.6c2.8,0.9,6.5,3.7,6.5,3.7s-0.9,0.9,1.9,3.7
			c2.8,2.8,4.7,4.7,4.7,4.7l1.9,2.8l1,4.7l1.9,2.8v2.8l2.8,4.6l2.8,6.5c0,0-4.7,1-3.8,3.7c1,2.8-3.7,1.8-3.7,1.8l3.7,3.7l2.8,7.5
			l0.9,5.6l2.8,2.8l0.9,8.4l-1.8,3.7l-3.7-2.8l-0.9-2.8l-3.8-0.9l-3.7-1l-6.5-2.8v-2.8l-4.6-1.8l-4.7-5.6c0,4.6,0,4.6,0,4.6h-2.8
			l-4.6,1.9l2.8,5.6l7.4,5.6l-0.9,2.8l2.8,6.5v3.8l2.8,3.7h2.8l0.9-1.9v-8.4l-1.9-4.7l3.8,1.9l3.7,4.7l1.9,4.7l7.4-1l0.9-6.5h5.6
			l0.9,3.7l-1.9,4.7l0.9,2.8h7.4l2.8,2.8l0.9,2.8l3.7,5.6l1.9,0.9l0.9,2.8l-1.9,7.5l-5.6,3.7l-1.9,1.9l3.7,5.6l1.9,2.8l1.9,3.7
			l1.9,4.7l2.8,2.8l3.7,3.7v4.7l3.7,2.8l4.7,0.9l1.1-2.8l0.8-1.9l3.7-1.8l1.8-4.7l-1.8-8.4l-3.7-6.5l-0.9-2.8v-5.6l-0.9-4.7v-9.3
			h-2.8l-2.8-3.7v-4.7l4.6-0.9l-0.9-3.7l-2.8-3.7v-1.9l-0.9-2.8c0,0-0.9-2.8,1.8-2.8c2.8,0,2.8,0,2.8,0l6.6,5.6l5.6-3.7l2.8-5.6
			l4.2,6.9l-3.3-13.4l-2.8-1.8l-3.8,0.9l-3.7,0.9l-9.3-1.8v-1.9l10.3-5.6l12.1,7.5l2.8-2.8l2.8,0.9l-1-5.6l-2.8-1.8l-2.8-1l-3.7-3.7
			l-3.7-3.7V400l4.6,2.8c0,0,1.9,2.8,4.7,2.8c2.8,0,2.8,0,2.8,0l0.9-3.7l-0.9-3.7l-0.9-2.8l-1.9-3.7l-1.9-3.7l3.7,0.9l2.8,5.6
			l2.8,2.8l1.8,2.8l1.9,5.6l3.7,0.9v5.6l3.7,0.9v1.9l0.9,2.8l-0.9,2.8l0.9,2.8l-1.9,2.8l-0.9,5.6l2.8,3.7v3.7l1.9,1.8
			c0,0,1.8,2.8,1.8,5.6c0,2.8,0.9,4.7,0.9,4.7s-1.9,0-1.9,3.7c0,3.7,0,3.7,0,3.7l-2.8,0.9l-1.9,3.7l-2.8,3.7l-3.7-3.7v-2.8l-3.7-2.8
			l-3.7-3.7l-1-1v11.1l0.9,2.8l-4.6,0.9l0.9,2.8l0.9,2.8l-3.7,2.8l0.9,2.8l1.9,11.2v2.8l-3.7,3.7l-2.8,6.5h-1.9l-2.8,3.7l0.9,3.7
			l-1.8,2.8l2.8,2.8l-1.9,3.7c0,0-0.9,1.9,0,5.6c0.9,3.7,0.9,3.7,0.9,3.7l0.9,4.6l1.9,3.7l1,2.8l0.9,3.8l-0.9,4.6v11.2l-2.8,10.3
			c0.9,4.6,0.9,12.1,0.9,12.1l1.9,3.7v17.7l3.7,2.8h2.8l1.9,5.6l-0.9,7.4v1.9l2.8,4.7l-0.9,4.6l0.9,1.9l1.9,2.8l1.9,0.9l3.7,0.9
			l2.3-0.8l0.5-0.2l1.9,5.6l3.7,0.9h1.9l0.9,2.8h2.8l3.8-1.8l3.8-2.8l3.7-4.7l1.9-2.8l2.8-1.9l2.8-3.7l0.9-9.3l2.8-1.9l1.9-3.7v-5.6
			l0.9-1.9V602c0,0,0,0,1.9-3.7c1.9-3.7,0-7.5,1.9-3.7c1.8,3.7,5.6-11.2,5.6-11.2l3.7,15.9l-0.9,9.3c0,0,1.9-5.6,4.6-9.3
			c0.6-0.7,1.5-4.1,2.6-9.3c0.6-7.4,1.1-14.8,1.1-22.3C784.7,397.9,647.2,260.3,477.5,260.3z M651.6,760.2l-5.6,0.9l-3.7-0.9
			l-3.7-0.9l-4.7,1.9l-7.4,0.9l-8.4,2.8l-2.8,1l-1.9,0.9l-3.7-0.9l-1.9-1.9h-11.2l-3.7,0.9l-1.9,1l-3.7-1l-5.6,2.8H579l0.9-4.7
			l4.7-2.8l-1.9-1.9c0,0,0,0-2.8-1.9l-0.9-2.8l-2.8-2.8l-3.7-1.9l-2.8-0.9h-2.8l-5.6-1h-4.6c0,0,0,0-2.8,0c-2.8,0-2.8,0-2.8,0
			l-2.8-0.9l-2.8-0.9H538l-2.8-2.8l-2.8-3.7h-10.3V736l-1.9-3.7l-1.9-1h-5.6l-1.8,2.8l-1.9,3.7l-1.9,0.9l-2.8-0.9l-3.7-2.8l-1.9-1.9
			h-2.8l-3.7-0.9l-2.8-3.7h-2.8l-2.8-1.8l-3.7,0.9l-2.8,2.8l-1.9,1.9l-1.9,0.9v1.9l1.9,0.9v1.9l-1.9,1.9h-3.7l-1.9-1.9V736l1.9-3.7
			v-3.7l1.9-4.6l-2.8,0.9l-0.8,1.1l-1.1,1.7l-2.8,1.9l-2.8,0.9H457l-3.7,2.8l-1.9,3.8l-0.9,2.8h-8.4l-3.7-1.9l-0.9-2.8l-7.4,0.9
			l-2.3,1.2l-1.5,0.7l-2.8,0.9l-3.7-1.9l-1.9-1.9l-3.7-1.9c0,0-4.7-8.4-5.6-14c-0.9-5.6,0,0,1.9-10.2l-3.7-1.9l-0.9-2.8l-4.7-1.9
			h-9.3l-2.8-1.8l0.9-2.8c0,0,0,0-3.7-1.9c-3.7-1.8-2.8-3.7-2.8-3.7s2.8-1.8,4.6-6.5l2.8-0.9v-4.7l1.9-2.8l2.8-0.9l1.9-2.8l-4.6-0.9
			l-3.7-1.8l-2.8,0.9l-6.5,3.7l-1.9,2.8l-3.7,3.7c0,0,0,0-7.4-0.9c-7.5-0.9-2.8,0-2.8,0h-4.7l-3.7-3.8l-1.8-1.8l-2.8-4.6
			c0,0,0,0,0-3.7c0-3.7,0,0,0-3.7c0-3.7,0-3.7,0-3.7v-2.8c0,0,0,0-1.9-2.8c-1.8-2.8,1-2.8,1-2.8s0,0-1.8-5.6
			c-1.9-5.6,1.8-3.8,1.8-3.8l1.9-3.7l4.6-3.7v-7.5h3.7l2.8-1.8h5.6l2.8-1.9c0,0,3.8,1.9,7.5,0l2.8,3.7c0,0,1.9,0.9,2.8-2.8
			c0.9-3.7,5.6,4.7,5.6,4.7h1.9l3.7-1.9l4.7-0.9l3.7,0.9l2.8,2.8c0,0,0,0,3.7,0.9l1.9,4.7c0,0,0,0,3.7-1.9l3.8,1.9v13.9l2.8,3.7
			l2.8,4.6h2.8l0.9-2.8l0.9-3.7l1.8-4.7l-0.9-3.7c0,0,1.9-6.5,0.9-9.3c-0.9-2.8-3.7-4.6-3.7-4.6v-2.8l1.9-1.9l3.7,1l3.7-3.8l1.8-1.8
			l6.5-4.7c0,0,0,0,5.6-2.8c2.8-1.4,3.7-1.6,3.9-1.5c0.3-0.7,0.9-2.4,2.6-6.9c2.8-7.4-1.8-3.7-1.8-3.7l-3.8-4.7c0,0,2.8-0.9,5.6-4.7
			v-5.6l2.8-1.9c0,0,2.8-0.9,4.6-4.6v-1.9l1.9-0.9c0,0,9.3,0,14-0.9c4.7-0.9,0.9-2.8,0.9-2.8l-2.8-2.8v-2.8l2.8-2.8l3.7-2.8
			c0,0,0,0,3.7-1.8l1.9-1.9l2.8-1.9c0,0,0,0,4.6-1.8v2.8l-1.8,3.7l4.6-0.9l3.7-1.9c0,0,0,0,2.8-1.9c2.8-1.8,3.7-2.8,3.7-2.8
			s2.8-1.8,4.7-4.6l-1.9-4.7l-0.6,0.8l-1.3,2l-2.8,4.7h-9.3l-3.7-1.9c0,0,0,0-1.9-2.8c-1.9-2.8-1.9-3.7-1.9-3.7l3.7-3.7v-2.8h-3.7
			l-7.5,7.4l-4.6,0.9l3.7-4.6c0,0,0.9-0.7,2-1.9c1.1-1.2,2.2-2.8,2.7-4.7c1-3.7,2.8-1.8,2.8-1.8l2.8-0.9l3.7-0.9l3.7-0.9l2.8-0.9
			h2.8l4.6-1.8c0,0,0,0,2.8-1.9c1.3-0.8,1.7-0.9,1.9-0.7V521h2.8v4.7l0.9,3.7v3.7l-2.8,4.7l2.8,3.7l3.7-1.8l5.6-1.9h6.5l1.8,2.8
			v-9.3h-4.6l-3.7-7.5l-0.8,2.4l-0.1,0.4l-3.7,1.9l-0.9-2.8V521l-1.8-3.7v-5.6l-1.9-5.6l-5.6-0.9L511,507l1.8-3.7l-0.9-2.8h-1.9
			l-5.6-2.8l-2.8-3.7v-2.8l-0.9-4.7l-6.5-6.5l-5.6-9.3l-0.9,8.4l-3.7,3.8l-1.9,1.8h-2.8l-1.9-3.7v-2.8l0.9-3.7l1.8-2.8V467l-1.8-1.9
			v-15.8l-5.6,4.6l-1.9,2.8l-2.8,4.7l-7.4,1.9L457,466v14.9l-0.9,3.7l0.9,1.8l1,2.8v3.7l-1,2.8l-1.8,3.7l-2.8,3.8h-2.8l0.9,3.7v7.5
			l-1.8,5.6H445l-2.8-5.6l-1.9-5.6v-8.3l-3.7-1.9h-6.5l-1.9-4.6l-2.8-1.9v-1.9l-2.8-1.9l-3.7-1.9l-1-2.7l-1.9-1.9c0,0,0,0-1.9-4.6
			c-0.9-2.4-0.9-3.1-0.7-3.2l-1.2-0.6l3.7-7.5l-4.6-4.7l5.1-2.3l5.1-2.4l6.5-2.8l2.8-4.6l9.3-1.9l0.9-3.7l2.8-1.8h3.7l4.7-2.8
			l3.8-7.5l-3.8-5.6l11.2,0.9l2.8,2.8l4.6,2.8l2.8,2.8l1.9,1h5.6l1.8-1.9l0.9-4.7l-4.7-3.7l-3.7-1.9l-5.6-3.7h-2.8l-2.8-4.6
			l-2.8-5.6h-8.4l-6.6,0.9v14l-1.8,5.6l-4.7,2.8v-4.7h-8.4V426l2.8-2.8l-1.9-7.5l-1.1,2.2l-1.7,3.3l-4.7,2.8l-3.7,4.6l-1.8,1.9H417
			l-2.8-3.7l-1.9-3.7l-6.5,0.9l-11.2-7.4l-4.7,3.7l-9.3-1.9l-6.5-0.9l-1.9-3.7l2.8-2.8l4.7-1.9l4.6,4.7h2.8l2.8-2.8l0.9-5.6
			l-1.8-5.6l-3.7-0.9l-1.9-2.8l0.9-4.7l-1.8-1.8h-2.8l-4.7-1.9l-1.9-0.9v-9.3l-0.9-3.7l1.9-4.6v-3.7l-2.8-4.7l-1.8-4.6l-1.9-0.9
			l-3.7-1.9l-3.7,6.5l-6.5-3.7l-3.7-1.9l-4.7,6.5l-1.9,2.8l-3.3,2.3l-4.2-1.4v-1.9l-2.8-1.9h-2.8l-3.7,1.9c0,0,0,0-2.8,1.9
			c-2.8,1.9,0,3.7,0,3.7l-1.9,2.8l-2.8,0.9l-3.8,1.8l0.9,1.9v5.6l-2.8,1.9l-2.8,0.9c0,0-5.6,0-10.3-5.6l2.8,2.8l3.8,4.6l0.9,1
			l3.7,1.9h10.3l3.7-1c0,0,0,0,3.7-1.9c3.7-1.8,2.8,2.8,2.8,2.8l-5.6,3.7l-0.9,2.8c0,0,0,0,5.6,1.9l-1.9,4.7v4.7l1.9,2.8l-0.9,2.8
			v11.2l-2.8,6.5v2.8l0.9,5.6v1.9l-6.5,7.4l-1.9,1.9l-0.9,3.7l-0.9,7.5l-1.9,1.8c0,0,0,0-2.8,1.8c-2.8,1.9-1.9,1.9-1.9,1.9v5.6
			l0.9,9.3l-2.8,4.7l-1.8,5.6l-1,2.8l-1.8,2.7l-1.9,2.8l-2.8,2.8l-3.7,2.8L296,507l-2.8,3.7v2.8l-0.9,1.9l-4.6,3.7
			c0,0,0,1.9-0.9,7.5c-0.9,5.6,0,2.8,0,2.8v10.2l-1.8,4.6v11.2l1.8,3.8l1.9,4.6l-0.9,5.6v1.9l2.8,6.5l-0.9,4.7v3.7l1.9,12.1
			l-0.9,3.7l2.8,0.9l1.9,12.1l-2.8,0.9l2.8,3.7l3.7,7.5l-0.9-7.5v-3.7l-1.9-7.5v-9.3l-0.9-16.7c0,0,0,0,0.9-3.7
			c0.9-3.8,2.8,0.9,2.8,0.9l1.8,2.8v8.4l0.9,4.6c0,0,0,0,1.8,5.6c1.9,5.6,0.9,3.7,0.9,3.7v2.8l2.8,4.7v4.6l-0.9,2.8l7.5,11.2
			l0.9,3.8c0,0,0,0,0,7.4v2.8l0.9,5.6c0,0,0,0-1.8,0.9l0.9,3.7l2.8,2.8l1.9,2.7l3.7,2.8v2.8l5.6,2.8l0.9,2.8l3.7,3.7
			c0,0,0,0,1.9,2.8c1.9,2.8,2.8,0,2.8,0h3.7v2.8l4.6,4.7l2.8,2.8h2.8l4.6,1.9h6.5l5.6,5.6l1.9,3.8l1.9,0.9l3.7,1.9v3.7l3.7,1.9
			c0,0,0,0,3.7,1.9l4.6,1.9l2.8,0.9h2.8v3.7l-2.8,1.9l7.4,3.7l1.9,3.7l0.9,1.8l2.8-0.9l3.7,4.6l2.8,5.6l1.9,1.9h1.9l5.6,2.8l2.8,0.9
			l1.8,1.9l3.7-2.8l3.7-1.9l1.9,1.9l5.6,3.7l2.8,1.8l0.9,7.4l0.9,3.7l-0.9,4.7l-6.5,5.6h-1.9l-6.5,4.6h-1.9l-1.8,1.9v6.5l2.8,3.7
			l0.9,4.6l-4.7,2.8v1.9l2.8,3.7l2.8,2.8l2.8,4.7l2.8,4.7l2.8,3.7l2.8,3.7l2.8,3.8l6.5-0.9v3.7l2.8,1.8c0,0,0,0,1.9,2.8
			c1.9,2.8,1.9,0,1.9,0h2.8l2.8,2.8v1.9c0,0,4.7-1.9,8.4-1.9l2.8,2.8l4.7,0.9l0.9,2.8l3.7,1.8l-0.9,3.8l-1.9,3.7l-0.9,3.7l-2.8,4.7
			l-1.9,5.6l-2.8,3.7v1.8l-2.8,3.7l-4.6,1.9l-1.1,1.1c5,0.2,10,0.8,15.1,0.8c20.9,0,41.3-2.1,61-6.1l0.4-0.4c0,0,2.8-0.9,4.7-3.7
			l3.7-2.8l3.7-1.9l3.7-0.9l3.7-1.9l2.8-0.9l2.8-1.9l3.7-0.9l1.9-3.7l1.8-2.8l2.8-1l2.8-0.9h2.8l2.8-5.6c0,0,0,0,2.8-2.8
			c2.8-2.8,1-1.9,1-1.9s4.6-1.9,7.4-3.7c2.8-1.8,1.9,0,1.9,0l4.6-1.9c0,0,0,0,0-2.8c0-2.8,2.8-2.8,2.8-2.8l11.2-1.9l7.5-4.7
			c0,0,0,0,1.9-5.6l5.6-1.9l0.9-2.8c0,0,1.9,0,3.7-6.5c0.9-3.2,1.6-3.7,1.8-3.7c-0.1-0.1-0.4-0.3-0.9-1c-1.9-2.8,0-2.8,0-2.8
			l2.8-1.8l0.9-4.7c0,0,2.8-1.9,6.5-5.6l1.8-2.8c0,0,1.9-1.9,3.7-5.6c0,0,0.9-1.9,4.6-3.7V763l-0.9-4.7L651.6,760.2z"/>
		<path fill="#64A046" d="M552.4,512.1l0.9,2.8h4.7c0.9,2.8,1.9,4.7,1.9,4.7l3.7-0.9l4.7,0.9l2.8,4.6l1.8,2.8l3.7,4.7l1.8,4.7
			c2.8,0.9,2.8,0.9,2.8,0.9l0.9,1.9v2.8c0,4.6,0,4.6,0,4.6l0,0l3.7-2.8h3.7c1.9,4.6,1.9,4.6,1.9,4.6l-0.9,1.9l4.6,0.9l-0.9,3.8
			l1.8,2.8l4.6,2.8l2.8-3.7c1.9,2.8,1.9,6.5,1.9,6.5l3.7,2.8l2.8-1.9l1.9-1.9l1.9-0.9h2.8l1.9-2.8l3.7-1.9l1.9-2.8v-2.8l-1-3.7
			c0,0-5.6,1.8-1.8-1.9c3.7-3.7,4.7-7.5,4.7-7.5l1.9-3.7l-1.9-9.3l-2.8,4.7l-2.8-2.8l1.9-5.6l-0.9-2.8l-3.7,0.9l-2.8-1.9
			c0,0-5.6-1.9-2.8-2.8c2.8-0.9,3.7-2.8,3.7-2.8l-3.7-2.8l1.9-3.7l-3.7-1.9h-4.7l-1.9-0.9c0,0,0.9,1.9-2.8-2.8
			c-3.7-4.7-3.7-4.7-3.7-4.7l-1.9-2.8l-3.7-3.7l-1-5.6l-4.6-4.7l-1,2.8l-0.9,1.9l-2.8,1.9l-3.7-4.7l-1.9,2.8l-4.7,2.8l-1.8,3.7
			c0,0-1-3.8-1.9,0c-0.9,3.7-0.9,3.7-0.9,3.7l0,0l-3.8,1.8l-2.8-1.8l-2.8-2.8c-2.8,0-2.8,0-2.8,0l0,0l-3.7,2.8l-3.7-0.9l-2.8,2.8
			h-1.9l-4.7,1l-0.9-2.8c-1.9,3.7-6.5,5.6-6.5,5.6v2.8c0,0,0,0,0,2.8c0,2.8,0,2.8,0,2.8l0,0v2.8h2.8l2.8,0.9l-1.9,2.8l2.8,1.8
			l-2.6,3.4l-0.2,0.3h6.5l0.9-2.8V514v-1.9l1.9-4.6h2.8h2.8L552.4,512.1z"/>
	</g>
	<g>
		<linearGradient id="SVGID_1_" gradientUnits="userSpaceOnUse" x1="375.8577" y1="663.4151" x2="743.257" y2="123.3328">
			<stop  offset="0" style="stop-color:#43B7E8"/>
			<stop  offset="1" style="stop-color:#385072"/>
		</linearGradient>
		<path fill="url(#SVGID_1_)" d="M852.4,282.8c-11.3-18.8-26.9-34.2-46-46.2c-17.1,4.8-24.2,20-27.1,29.9c5.8,6.2,11,13,15.4,20.4
			c60.8,101.2-38.9,272.7-222.6,383c-183.7,110.3-381.9,117.7-442.7,16.5c-30.2-50.3-20.7-117.9,18.9-186.8
			C95,582.2,79.8,664.9,116,725.1c67.3,112,286.6,103.8,490-18.3C809.4,584.7,919.7,394.9,852.4,282.8z"/>
	</g>
	<path fill="#3C5375" d="M767.6,225.2c-4.9-9.3-38.7-39.6-38.7-39.6l60.2-38.6c-11.9-8.8-16.2-6.3-16.2-6.3l-18.2,6
		c-3-2.7-13.3-11.7-17.2-7.6c-3.1,3.1,0.4,5.9,7.5,10.8l-20,6.6c-3.6-3.2-12.9-10.9-16.6-7.1c-3,3,0.1,5.7,6.8,10.3l-18.7,6.2
		c0,0-24.2-16.5-35.9-22.6c-11.7-6.1-19.8,2.5-19.8,2.5s-5.3,10.6,4.5,19.5c9.8,8.9,33.6,26,33.6,26l0.6,19.7
		c-6.6-4.7-10.3-6.7-12-2.8c-2.3,4.7,8.1,10.9,12.3,13.1l0.7,21.1c-7.1-5-11-7.3-12.8-3.4c-2.5,5.1,9.5,11.7,13.1,13.5l0.6,19.1
		c0,0-0.9,4.9,11.5,13.1l15.5-69.8c0,0,40.2,21.3,50.5,22.7l1.3,25.3l8,9l10.3-29.8l24.4-19.9l-11.2-4.4L767.6,225.2z"/>
	<path fill="#43B7E8" d="M704,282.8c0,0,165.3,129.5-173.6,377.5c0,0,352.7-217.7,176.3-394"/>
	<path fill="#43B7E8" d="M797.7,153.3c0,0,275.5,129.5,16.5,399.5c0,0,250.8-234.2-30.3-394"/>
</g>
</svg>
