<?xml version="1.0" encoding="utf-8"?>
<!-- Generator: Adobe Illustrator 18.1.0, SVG Export Plug-In . SVG Version: 6.00 Build 0)  -->
<svg version="1.0" id="Layer_1" xmlns="http://www.w3.org/2000/svg" xmlns:xlink="http://www.w3.org/1999/xlink" x="0px" y="0px"
	 viewBox="0 0 150 150" enable-background="new 0 0 150 150" xml:space="preserve">
<g>
	<polygon fill="none" points="56.9,137.1 57.4,127 56.4,127 	"/>
	<polygon fill="none" points="70,137.1 70.5,127 69.5,127 	"/>
	<polygon fill="none" points="60.2,137.1 60.7,127 59.7,127 	"/>
	<polygon fill="none" points="53.7,137.1 54.2,127 53.2,127 	"/>
	<polygon fill="none" points="50.4,137.1 50.9,127 49.9,127 	"/>
	<polygon fill="none" points="66.7,137.1 67.2,127 66.2,127 	"/>
	<polygon fill="none" points="63.5,137.1 64,127 63,127 	"/>
	<polygon fill="none" points="30.8,137.1 31.3,127 30.3,127 	"/>
	<polygon fill="none" points="74.9,11 73.7,17 79.1,17 77.9,11 	"/>
	<polygon fill="none" points="73.2,137.1 73.7,127 72.8,127 	"/>
	<polygon fill="none" points="34.1,137.1 34.6,127 33.6,127 	"/>
	<polygon fill="none" points="37.4,137.1 37.8,127 36.9,127 	"/>
	<polygon fill="none" points="43.9,137.1 44.4,127 43.4,127 	"/>
	<polygon fill="none" points="47.1,137.1 47.6,127 46.6,127 	"/>
	<polygon fill="none" points="40.6,137.1 41.1,127 40.1,127 	"/>
	<polygon fill="none" points="89.6,137.1 90.1,127 89.1,127 	"/>
	<polygon fill="none" points="105.9,137.1 106.4,127 105.4,127 	"/>
	<polygon fill="none" points="112.4,137.1 112.9,127 111.9,127 	"/>
	<polygon fill="none" points="109.1,137.1 109.6,127 108.6,127 	"/>
	<polygon fill="none" points="115.7,137.1 116.2,127 115.2,127 	"/>
	<polygon fill="none" points="118.9,137.1 119.4,127 118.4,127 	"/>
	<polygon fill="none" points="76.5,137.1 77,127 76,127 	"/>
	<polygon fill="none" points="122.2,137.1 122.7,127 121.7,127 	"/>
	<polygon fill="none" points="83,137.1 83.5,127 82.5,127 	"/>
	<polygon fill="none" points="102.6,137.1 103.1,127 102.1,127 	"/>
	<polygon fill="none" points="86.3,137.1 86.8,127 85.8,127 	"/>
	<polygon fill="none" points="96.1,137.1 96.6,127 95.6,127 	"/>
	<polygon fill="none" points="99.3,137.1 99.8,127 98.9,127 	"/>
	<polygon fill="none" points="92.8,137.1 93.3,127 92.3,127 	"/>
	<polygon fill="none" points="79.8,137.1 80.3,127 79.3,127 	"/>
	<path fill="#005079" d="M63.5,114c4,0,4.5-2.8,4.5-4V107c0-0.3,0.4-1,0.7-1H72v-8h1V71l-50.9,43h11.7c0.2,0,0.3,0,0.4,0H63.5z"/>
	<path fill="#005079" d="M81,98v8h3.1h0c0.3,0,0.9,0.7,0.9,1v3.1c0,0-0.2,0.1-0.2,0.2c0,0-0.1-0.1-0.1-0.1c0.1,1.3,0.7,3.9,4.6,3.9
		h29.5c0.1,0,0.2,0,0.4,0h11.1L80,71.5V98H81z"/>
	<path fill="#005079" d="M80,45h1V16.8L78.9,9h-4.9L72,16.8V45h1v1h7V45z M73.7,17l1.2-6h3l1.2,6H73.7z"/>
	<path fill="#98C856" d="M122.8,116.1c-1.5-1.5-2.9-1.9-3.6-2c-0.2,0-0.4-0.1-0.5-0.1H89.3c-3.8,0-4.5-2.6-4.6-3.9c0,0,0.2,0,0.2,0
		c0-0.1,0.2-0.1,0.2-0.1V107c0-0.3-0.6-1-0.9-1h0H81v-8h-1V71.5V56.9V46h-7v10.9V71v27h-1v8h-3.3c-0.3,0-0.7,0.7-0.7,1v3.1
		c0,1.2-0.5,4-4.5,4H34.1c-0.1,0-0.2,0.1-0.4,0.1c-0.7,0.1-2.1,0.5-3.5,1.9c-2.1,2.1-4.1,4-4.1,4l-0.2,0.1v0.5v5.7
		c0,0.4,0.5,0.8,1,0.8h1.1l-0.7,14h0.7h0.8H30h0.4h0.2H31h0.3h0.8h1.1h0.4h0.2h0.3h0.3h0.8h1.1h0.4h0.2h0.3h0.3h0.8h1.1h0.4h0.2h0.3
		h0.3h0.8H43h0.4h0.2H44h0.3h0.8h1.1h0.4H47h0.3h0.3h0.8h1.1H50h0.2h0.3h0.3h0.8h1.1h0.4h0.2h0.3h0.3H55h1.1h0.4h0.2h0.3h0.3h0.8
		h1.1h0.4H60h0.3h0.3h0.8h1.1h0.4h0.2h0.3h0.3h0.8h1.1h0.4h0.2h0.3h0.3H68h1.1h0.4h0.2h0.3h0.3h0.8h1.1h0.4h0.2h0.3h0.3h0.8h1.1h0.4
		h0.2h0.3H77h0.8h1.1h0.4h0.2h0.3h0.3h0.8h1.1h0.4h0.2h0.3h0.3h0.8h1.1h0.4h0.2h0.3h0.3h0.8h1.1h0.4h0.2h0.3h0.3h0.8H92h0.4h0.2H93
		h0.3h0.8h1.1h0.4h0.2h0.3h0.3h0.8h1.1h0.4h0.2h0.3h0.3h0.8h1.1h0.4h0.2h0.3h0.3h0.8h1.1h0.4h0.2h0.3h0.3h0.8h1.1h0.4h0.2h0.3h0.3
		h0.8h1.1h0.4h0.2h0.3h0.3h0.8h1.1h0.4h0.2h0.3h0.3h0.8h1.1h0.4h0.2h0.3h0.3h0.8h1.1h0.4h0.2h0.3h0.3h0.8h1.1h0.4h0.6l-0.7-14h0.8
		c0.4,0,1.2-0.3,1.2-0.8v-5.7V120C127,120,124.9,118.1,122.8,116.1z M30.8,137.1L30.3,127h1L30.8,137.1z M34.1,137.1L33.6,127h1
		L34.1,137.1z M37.4,137.1L36.9,127h1L37.4,137.1z M40.6,137.1L40.1,127h1L40.6,137.1z M43.9,137.1L43.4,127h1L43.9,137.1z
		 M47.1,137.1L46.6,127h1L47.1,137.1z M50.4,137.1L49.9,127h1L50.4,137.1z M53.7,137.1L53.2,127h1L53.7,137.1z M56.9,137.1L56.4,127
		h1L56.9,137.1z M60.2,137.1L59.7,127h1L60.2,137.1z M63.5,137.1L63,127h1L63.5,137.1z M66.7,137.1L66.2,127h1L66.7,137.1z
		 M70,137.1L69.5,127h1L70,137.1z M73.2,137.1L72.8,127h1L73.2,137.1z M76.5,137.1L76,127h1L76.5,137.1z M79.8,137.1L79.3,127h1
		L79.8,137.1z M83,137.1L82.5,127h1L83,137.1z M86.3,137.1L85.8,127h1L86.3,137.1z M89.6,137.1L89.1,127h1L89.6,137.1z M92.8,137.1
		L92.3,127h1L92.8,137.1z M96.1,137.1L95.6,127h1L96.1,137.1z M99.3,137.1L98.9,127h1L99.3,137.1z M102.6,137.1l-0.5-10.1h1
		L102.6,137.1z M105.9,137.1l-0.5-10.1h1L105.9,137.1z M109.1,137.1l-0.5-10.1h1L109.1,137.1z M112.4,137.1l-0.5-10.1h1L112.4,137.1
		z M115.7,137.1l-0.5-10.1h1L115.7,137.1z M118.9,137.1l-0.5-10.1h1L118.9,137.1z M122.2,137.1l-0.5-10.1h1L122.2,137.1z"/>
</g>
</svg>
