<?xml version="1.0" encoding="iso-8859-1"?>
<!-- Generator: Adobe Illustrator 13.0.0, SVG Export Plug-In . SVG Version: 6.00 Build 14948)  -->
<!DOCTYPE svg PUBLIC "-//W3C//DTD SVG 1.1//EN" "http://www.w3.org/Graphics/SVG/1.1/DTD/svg11.dtd">
<svg version="1.1" id="Layer_1" xmlns="http://www.w3.org/2000/svg" xmlns:xlink="http://www.w3.org/1999/xlink" x="0px" y="0px"
	 width="600px" height="600px" viewBox="0 0 600 600" enable-background="new 0 0 600 600" xml:space="preserve">
<g>
	<path fill="none" d="M135.195,437.789c1.631-4.861,2.109-9.001,2.247-11C136.486,430.651,135.75,434.451,135.195,437.789z"/>
	<linearGradient id="SVGID_1_" gradientUnits="userSpaceOnUse" x1="40.1558" y1="282.4438" x2="537.7432" y2="282.4438">
		<stop  offset="0" style="stop-color:#C62141"/>
		<stop  offset="1" style="stop-color:#932341"/>
	</linearGradient>
	<path fill="url(#SVGID_1_)" d="M521.402,128.351c-21.213-27.486-54.958-36.992-75.378-21.236
		c-13.978,10.786-6.375,37.368-12.469,50.867c-1.763,2.187-4.554,4.152-8.866,5.802c-37.896,6.855-58.646-67.717-88.178-100.599
		c-33.016,21.528-66.031,43.054-99.047,64.579c-7.283,4.315-7.283,11.205-4.135,19.636c13.223,23.759,47.639,13.153,61.448,34.13
		c6.312,34.445-69.619,87.781-97.669,58.037c-14.433-18.988,13.082-43.496-7.36-63.752c-7.249-9.314-7.798-9.283-19.634-4.134
		c-33.018,21.528-66.034,43.054-99.049,64.58c17.151,40.07,79.771,89.713,56.485,121.266c-17.26,15.713-51.71-11.848-72.966,7.258
		c-19.181,17.24-19.772,50.812,1.438,78.301c16.907,21.902,40.454,26.658,61.875,16.533L117.5,459.5
		c10.277-5.652,15.267-14.47,17.695-21.711c0.555-3.338,1.291-7.138,2.247-11c0.056-0.818,0.058-1.289,0.058-1.289l0.216,0.203
		c3.209-12.453,8.739-25.133,17.896-24.614c-0.422,0.218-0.693,0.417,0.353,0.018c37.718-6.003,58.777,67.105,88.177,100.597
		c31.695-20.66,63.391-41.33,95.088-61.994c6.709-7.213,16.27-11.209,5.509-26.184c-11.073-23.152-43.631-7.901-53.923-34.778
		c-7.385-41.103,65.535-82.994,97.667-58.034c13.955,22.205-12.269,48.176,2.425,68.364c8.775,3.452,11.53,4.83,19.636,4.132
		c33.011-21.529,66.031-43.051,99.042-64.581c-17.145-40.069-79.768-89.713-56.48-121.264c3.97-3.898,7.477-5.613,10.697-5.969
		c7.127,5.239,50.885,11.549,59.041,5.255C543.259,190.893,542.615,155.838,521.402,128.351z"/>
</g>
</svg>
