<?xml version="1.0" encoding="utf-8"?>
<!-- Generator: Adobe Illustrator 18.1.0, SVG Export Plug-In . SVG Version: 6.00 Build 0)  -->
<svg version="1.0" id="Layer_1" xmlns="http://www.w3.org/2000/svg" xmlns:xlink="http://www.w3.org/1999/xlink" x="0px" y="0px"
	 viewBox="0 0 150 150" enable-background="new 0 0 150 150" xml:space="preserve">
<g>
	<path fill="#AC8057" d="M74.8,58.4l-0.2,0.2c0.1,0.1,0.2,0.1,0.3,0.2l56.5,56.5c0,0,0-0.1,0-0.1L75.1,58.8
		C74.9,58.7,74.9,58.6,74.8,58.4z"/>
	<path fill="#AC8057" d="M61.8,71.5l-0.1,0.1l57.3,57.4c0,0,0.1,0,0.1,0l-57-57.1C61.9,71.7,61.9,71.6,61.8,71.5z"/>
	<path fill="#FDD9B7" d="M112.5,19.9h-71c-10.8,0-19.6,8.8-19.6,19.6v71c0,10.8,8.8,19.6,19.6,19.6h52.8L48.6,84.4
		c-1.6-1.6-1.9-3.9-1.1-5.8l-2-17l-0.2,0.2l-2.7-22.7l22.2,2.7l-0.1,0.1L85,44.3L85,44.4c0.1,0,0.2,0,0.3,0.1l1.1,0.1l-0.1,0.1
		c0.6,0.3,1.2,0.6,1.7,1.1L132.2,90V39.5C132.1,28.7,123.3,19.9,112.5,19.9z"/>
	<path fill="#CD9768" d="M74.7,58.6l0.2-0.2c-0.3-0.3-0.5-0.7-0.7-1L73.7,58C74,58.2,74.3,58.4,74.7,58.6z"/>
	<path fill="#CD9768" d="M86.4,44.6l-1.1-0.1C85.6,44.5,86,44.6,86.4,44.6L86.4,44.6z"/>
	<path fill="#CD9768" d="M54,71.5c2.1-2.1,5.5-2.1,7.5,0l0.1,0.1l0.1-0.1c-1.8-2.1-1.8-5.3,0.3-7.3l2.2-2.2l-8.8-8.8l-10,8.5l2,17
		c0.3-0.6,0.6-1.2,1.1-1.7L54,71.5z"/>
	<path fill="#FAB77D" d="M55.9,52.7l-0.5,0.4l8.8,8.8l3.1-3.1c1.7-1.7,4.3-2,6.4-0.9l0.5-0.6c-1-2-0.8-4.6,0.9-6.3l5.2-5.2
		c1.3-1.3,3-1.7,4.6-1.4l0.1-0.1l-20.3-2.4L55.9,52.7z"/>
	<polygon fill="#AC8057" points="55.9,52.7 64.8,41.9 64.8,41.8 42.6,39.1 45.3,61.8 45.4,61.6 55.4,53.1 	"/>
	<path fill="#467FC0" d="M61.6,71.5c-2.1-2.1-5.5-2.1-7.5,0l-5.4,5.4c-0.5,0.5-0.9,1.1-1.1,1.7c-0.8,1.9-0.4,4.3,1.1,5.8l45.7,45.7
		h18.2c2.3,0,4.4-0.5,6.5-1.2L61.6,71.5L61.6,71.5z"/>
	<path fill="#AC8057" d="M86.3,44.7c-0.3-0.1-0.7-0.2-1-0.2c-0.1,0-0.2,0-0.3-0.1c-1.6-0.2-3.4,0.2-4.6,1.4l-5.2,5.2
		c-1.7,1.7-2,4.3-0.9,6.3c0.2,0.4,0.4,0.7,0.7,1c0.1,0.1,0.1,0.3,0.3,0.4l56.4,56.5c0.4-1.5,0.7-3.1,0.7-4.8V90L88,45.8
		C87.5,45.3,86.9,45,86.3,44.7z"/>
	<path fill="#5AC3BC" d="M74.7,58.6c-0.3-0.3-0.7-0.5-1-0.7c-2.1-1.1-4.6-0.8-6.4,0.9l-3.1,3.1l-2.2,2.2c-2,2-2.1,5.2-0.3,7.3
		c0.1,0.1,0.1,0.3,0.3,0.4l57,57.1c6.1-2.2,10.7-7.2,12.4-13.5L75,58.9C74.9,58.8,74.8,58.7,74.7,58.6z"/>
	<path fill="#467FC0" d="M139.8,95.9v-58c0-14.2-11.5-25.7-25.7-25.7H39.9c-14.2,0-25.7,11.5-25.7,25.7v74.2
		c0,14.2,11.5,25.7,25.7,25.7h60.3h13.9c3.4,0,6.7-0.7,9.7-1.9c0.9-0.4,1.8-0.9,2.7-1.4c4.9-2.7,8.8-6.8,11.1-11.9
		c0.3-0.6,0.5-1.3,0.7-1.9c1-2.7,1.6-5.6,1.6-8.6V95.9z M134.6,112.1c0,1.7-0.3,3.4-0.7,5c0,0,0,0.1,0,0.1
		c-1.7,6.6-6.6,11.8-12.9,14.1c0,0-0.1,0-0.1,0c-2.1,0.8-4.4,1.2-6.7,1.2H95H39.9c-11.3,0-20.5-9.2-20.5-20.5V37.9
		c0-11.3,9.2-20.5,20.5-20.5h74.2c11.3,0,20.5,9.2,20.5,20.5v52.8V112.1z"/>
</g>
</svg>
