<?xml version="1.0" encoding="utf-8"?>
<!-- Generator: Adobe Illustrator 18.1.0, SVG Export Plug-In . SVG Version: 6.00 Build 0)  -->
<svg version="1.1" id="Layer_1" xmlns="http://www.w3.org/2000/svg" xmlns:xlink="http://www.w3.org/1999/xlink" x="0px" y="0px"
	 viewBox="0 0 2000 2000" enable-background="new 0 0 2000 2000" xml:space="preserve">
<g>
	<path fill="none" d="M1311.7,806.4c-189.2,44.4-266.4,75.6-300.5,129.3c-6.9,15.7-11.7,32.9-14,51.8c22-43.3,71.4-95.4,182.2-118
		c202.3-42.1,314.5-61.4,360.5-122.7c11-7-22.1,91.2-339.7,147.3c-115.9,32.3-160.1,52.5-192.7,117.3
		c47.8-47.6,119.2-88.5,223.3-98.7C1513.4,885,1579,804.9,1607,702.2c0-41,0-77.5,0-105.7C1593,653.3,1522.6,756.9,1311.7,806.4z"/>
	<path fill="none" d="M778.3,894C473,827.4,436.2,732.7,447.2,739.7c49.7,64.9,147.2,85.9,349.5,128c80.8,16.5,129.3,49,158.5,82.3
		c-2.1-7.2-4.7-14.8-8.4-22.9c-37.5-45.9-110.6-74.6-285.9-120.8C440.7,748.4,393,649.1,393,609.5c0,26.9,0,59.8,0,96.2
		c0,47,52.4,176.2,332.5,207c115.3,12.7,197.2,48,248.6,105C941.1,947.7,898,927.4,778.3,894z"/>
	<path fill="none" d="M1489.6,1423.6l0.2-0.9c117.2-68.3,117.3-218.8,117.3-220.1c0,0,0-179.9,0-352.7
		c-71,56.2-181.7,65.2-365.6,83.2c-178.4,17.4-241.4,183.7-241.4,204v595.5C1042.3,1701,1489.6,1423.6,1489.6,1423.6z"/>
	<path fill="none" d="M713.1,943.6C550.8,925.8,450,886.3,393,843.5c0,174.7,0,358.9,0,358.9c0,1.5-0.8,152,116.4,220.3l-3.7,0.4
		c0,0,395.3,252.1,480.3,303.3v-616.2C972,1063.7,892.2,963.3,713.1,943.6z"/>
	<path fill="#CBE1F4" d="M1738.9,458.6c-193.8-225.8-456.6-350.1-739.5-350.1c-282.8,0-545.3,124.3-739,350.1L238,484.8v717.8
		c0,9.5,1.9,233.2,191.8,343.8l-3.1-1.8l572.4,360.6l572.5-360.6l-2.3,1.8c189.9-110.6,192.7-334.3,192.7-343.8V484.8L1738.9,458.6z
		 M1706,1202.6c0,8.5,0.3,208.5-166.9,305.9l3.9-0.9l-544.7,342.8l-545.1-342.8l-0.4,0.9C285.5,1411.1,280,1211.1,280,1202.6V689.7
		c0-1.2,0-2.3,0-3.1V500.2l14.9-14C479,271.7,730.4,153.6,997.6,153.6c267.2,0,514.7,118.1,698.8,332.7l9.5,14V1202.6z"/>
	<path fill="#427B9E" d="M997.7,153.6c-267.2,0-518.7,118.1-702.8,332.7l-14.9,14v186.4c0,0.8,0,1.9,0,3.1v512.9
		c0,8.5,5.5,208.5,172.7,305.9l0.3-0.9l545.1,342.8l544.7-342.8l-3.7,0.9c167.2-97.4,166.9-297.4,166.9-305.9V500.2l-9.5-14
		C1512.4,271.7,1264.9,153.6,997.7,153.6z M1589.1,550.4c0,0-22.1,59.6-84.6,45.6c-62.5-14-80.9,7-80.9,7s22.1-52.6,77.3-42.1
		C1556,571.4,1567,571.4,1589.1,550.4z M1512.6,406.4c0,0,0,63.2-63.8,69.8c-63.9,6.7-73.8,32.3-73.8,32.3s2.4-56.6,58.1-64.2
		C1488.8,436.7,1499.2,433.2,1512.6,406.4z M1340.2,346.5c41.4-18.4,48.6-23.4,52.5-47.3c0,0,15.6,49.1-32.4,68.5
		c-48,19.5-49.4,41.6-49.4,41.6S1298.8,364.9,1340.2,346.5z M1202.8,276.6c24.5-22.2,28.4-27.4,25.2-45c0,0,23.1,31-5.8,55.4
		c-28.9,24.5-24.4,40.4-24.4,40.4S1178.2,298.9,1202.8,276.6z M1077.7,241.6c24.5-22.2,28.4-27.4,25.2-45c0,0,23.1,31-5.8,55.4
		c-28.9,24.5-24.4,40.4-24.4,40.4S1053.1,263.8,1077.7,241.6z M946.4,187.7c-6.5,16.8-3.7,22.5,16.3,48.6c20,26-4.5,50.8-4.5,50.8
		s7.4-14.9-16.5-43.9C917.8,214.3,946.4,187.7,946.4,187.7z M771.6,228.1c-3.2,17.6,0.6,22.8,25.2,45c24.5,22.2,5,50.8,5,50.8
		s4.5-15.9-24.4-40.4C748.5,259.1,771.6,228.1,771.6,228.1z M606.8,295.7c3.8,23.9,11,28.9,52.5,47.3c41.4,18.4,29.4,62.9,29.4,62.9
		s-1.4-22.2-49.4-41.6C591.2,344.8,606.8,295.7,606.8,295.7z M566.5,440.8c55.7,7.6,58.1,64.2,58.1,64.2s-10-25.7-73.9-32.3
		c-63.9-6.6-63.8-69.9-63.8-69.9C500.3,429.7,510.8,433.2,566.5,440.8z M498.7,557.4c55.2-10.5,77.3,42.1,77.3,42.1s-18.4-21-80.9-7
		c-62.5,14-84.6-45.6-84.6-45.6C432.5,567.9,443.5,567.9,498.7,557.4z M1607,702.2c-28,102.7-93.6,182.7-376.3,210.4
		c-104.1,10.2-175.4,51.1-223.2,98.7c-3.6,7.2-6.7,14.9-10.1,23.3c2.3,12.7,2.6,20.7,2.6,20.7v28v53.7c0-20.3,63-186.5,241.4-204
		c183.9-18,294.6-27,365.6-83.2c0,172.8,0,352.7,0,352.7c0,1.3-0.3,151.8-117.5,220.1l0.1,0.9c0,0-447.3,277.4-489.6,309.1v52.4h-14
		v-58.5c-85-51.3-480.2-303.3-480.2-303.3l3.2-0.4C391.7,1354.4,393,1203.9,393,1202.4c0,0,0-184.3,0-358.9
		c57,42.8,157.8,82.3,320.1,100.1C892.2,963.3,972,1063.7,986,1110.3v-52.4c0,8,0,16.4,0,25.4v-28c0,0-3.6-8.2-1.3-21.2
		c-2.4-5.7-6.4-11.2-8.8-16.4c-51.4-57-134.2-92.3-249.5-105c-280.1-30.8-333.3-160-333.3-207c0-36.4,0-69.3,0-96.2
		c0,39.6,47.7,138.9,267.9,196.9c175.2,46.1,248.3,74.8,285.8,120.8c-16.7-36.7-54.8-80.6-161.1-113.7c0,0-161.8-49.1-202.3-73.7
		l8.1-7.5c-0.4-6.2-0.8-12.5-0.8-18.8c0-215,182.8-389.2,408.4-389.2c223.1,0,404.3,170.6,408.2,382.3l25.9,19.2
		c0,0-45.2,27.5-180.3,63.1c-132.3,34.9-210.6,76.1-241.8,146.9c34.1-53.7,111.4-84.9,300.6-129.3c211-49.5,281.3-153.1,295.3-209.8
		C1607,624.7,1607,661.2,1607,702.2z"/>
	<path fill="#427B9E" d="M989.5,1055.3c-0.1-0.3-0.2-0.5-0.3-0.8c-0.1,0.3-0.2,0.5-0.3,0.8H989.5z"/>
	<path fill="#D77145" d="M855.6,539.9L995.4,361l246.5,298.1l58.9-31.6l106.5,79c-3.9-211.7-185.1-382.3-408.2-382.3
		c-225.5,0-408.4,174.3-408.4,389.2c0,6.3,0.4,12.5,0.8,18.8l227.3-209.9L855.6,539.9z"/>
	<path fill="#0081C3" d="M1200.2,894c317.7-56.1,350.7-154.3,339.7-147.3c-46,61.4-158.2,80.7-360.5,122.7
		c-110.9,22.6-160.2,74.7-182.3,118c-3.3,6.4-5.9,12.7-8.1,18.6c-6.4-17-16.8-36.7-33.8-56c-29.2-33.3-77.6-65.8-158.5-82.3
		c-202.3-42.1-299.8-63.1-349.5-128c-11-7,25.8,87.7,331.1,154.3c119.7,33.4,162.9,53.7,195.9,123.7c2.4,5.2,8.1,10.7,10.5,16.4
		c-2.3,13,1.3,21.2,1.3,21.2v28c0-9.1,0-17.4,0-25.4v52.4v616.2v58.5h14v-52.4v-595.5v-53.7v-28c0,0-0.3-8-2.6-20.7
		c3.4-8.4,6.7-16.1,10.3-23.3C1040.3,946.5,1084.2,926.4,1200.2,894z M989.5,1055.3H989c0.1-0.3,0.2-0.5,0.3-0.8
		C989.3,1054.8,989.4,1055.1,989.5,1055.3z"/>
	<polygon fill="#FFFFFE" points="1035.9,673.1 1105.8,750.3 1225.8,669.6 1000,385.6 1000,567.9 1063.9,641.5 	"/>
	<polygon opacity="0.29" fill="#0081C3" points="1035.9,673.1 1105.8,750.3 1225.8,669.6 1000,385.6 1000,567.9 1063.9,641.5 	"/>
	<polygon fill="#FFFFFE" points="1197.7,788.8 1297.1,645.1 1116.8,760.8 	"/>
	<polygon opacity="0.29" fill="#0081C3" points="1197.7,788.8 1297.1,645.1 1116.8,760.8 	"/>
	<polygon fill="#FFFFFE" points="873,781.8 923.2,837.9 855.4,557.4 817,539.9 817,680.1 873,732.7 	"/>
	<polygon opacity="0.29" fill="#0081C3" points="873,781.8 923.2,837.9 855.4,557.4 817,539.9 817,680.1 873,732.7 	"/>
	<path fill="#D77145" d="M495,592.5c62.5-14,80.9,7,80.9,7s-22.1-52.6-77.3-42.1c-55.2,10.5-66.2,10.5-88.3-10.5
		C410.4,546.9,432.5,606.5,495,592.5z"/>
	<path fill="#D77145" d="M550.7,472.7c63.9,6.6,73.9,32.3,73.9,32.3s-2.4-56.6-58.1-64.2c-55.7-7.6-66.1-11.1-79.6-38
		C486.9,402.9,486.9,466.1,550.7,472.7z"/>
	<path fill="#D77145" d="M639.2,364.3c48,19.4,49.4,41.6,49.4,41.6s12-44.5-29.4-62.9c-41.4-18.4-48.6-23.4-52.5-47.3
		C606.8,295.7,591.2,344.8,639.2,364.3z"/>
	<path fill="#D77145" d="M777.4,283.5c28.9,24.5,24.4,40.4,24.4,40.4s19.5-28.6-5-50.8c-24.5-22.2-28.4-27.4-25.2-45
		C771.6,228.1,748.5,259.1,777.4,283.5z"/>
	<path fill="#D77145" d="M1423.5,603c0,0,18.4-21,80.9-7c62.5,14,84.6-45.6,84.6-45.6c-22.1,21-33.1,21-88.3,10.5
		C1445.6,550.4,1423.5,603,1423.5,603z"/>
	<path fill="#D77145" d="M1374.9,508.6c0,0,10-25.7,73.8-32.3c63.9-6.6,63.8-69.8,63.8-69.8c-13.4,26.9-23.9,30.4-79.6,38
		C1377.3,451.9,1374.9,508.6,1374.9,508.6z"/>
	<path fill="#D77145" d="M1360.3,367.8c48-19.4,32.4-68.5,32.4-68.5c-3.8,23.9-11.1,28.9-52.5,47.3c-41.4,18.4-29.3,62.9-29.3,62.9
		S1312.3,387.2,1360.3,367.8z"/>
	<path fill="#D77145" d="M1222.1,287.1c28.9-24.5,5.8-55.4,5.8-55.4c3.2,17.6-0.6,22.8-25.2,45c-24.5,22.2-5,50.8-5,50.8
		S1193.3,311.5,1222.1,287.1z"/>
	<path fill="#D77145" d="M1097,252c28.9-24.5,5.8-55.4,5.8-55.4c3.2,17.6-0.6,22.8-25.2,45c-24.5,22.2-5,50.8-5,50.8
		S1068.2,276.4,1097,252z"/>
	<path fill="#D77145" d="M958.1,287.1c0,0,24.5-24.8,4.5-50.8c-20-26.1-22.8-31.8-16.3-48.6c0,0-28.6,26.6-4.7,55.5
		C965.5,272.2,958.1,287.1,958.1,287.1z"/>
</g>
</svg>
