<?xml version="1.0" encoding="utf-8"?>
<!-- Generator: Adobe Illustrator 18.1.0, SVG Export Plug-In . SVG Version: 6.00 Build 0)  -->
<svg version="1.0" id="Layer_1" xmlns="http://www.w3.org/2000/svg" xmlns:xlink="http://www.w3.org/1999/xlink" x="0px" y="0px"
	 viewBox="0 0 150 150" enable-background="new 0 0 150 150" xml:space="preserve">
<g>
	<path fill="#76BF43" d="M42.1,90.4c-1.5,0-2.7,1.2-2.7,2.7c0,1.5,1.2,2.7,2.7,2.7c1.5,0,2.7-1.2,2.7-2.7
		C44.8,91.6,43.6,90.4,42.1,90.4z"/>
	<path fill="#76BF43" d="M107.9,99.5C107.9,99.5,107.9,99.5,107.9,99.5c-0.1,0-0.1,0-0.2,0c-1.1,1.3-2.2,2.6-3.4,3.9
		c-1.1,1.3-2.3,2.6-2.9,4.2c1.5-0.9,2.4-2.4,3.4-3.8c1-1.4,2.1-2.7,3-4.1C108,99.7,108,99.7,107.9,99.5
		C108,99.6,108,99.6,107.9,99.5z"/>
	<path fill="#76BF43" d="M111.3,87.9c-1.9,0.5-3.4,1.9-3.9,3.3c-1.6,4,1.7,7.6,5.2,7.6c0.3,0,0.5,0,0.8-0.1c3.5-0.6,5.7-4,4.2-7.6
		C116.5,88.6,113.9,87.2,111.3,87.9z"/>
	<path fill="#76BF43" d="M61.5,76v-6.7C48.8,71.8,39.8,76,39.8,76H61.5z"/>
	<path fill="#76BF43" d="M66.2,68.5V76h32.5C98.8,76,84.5,65.9,66.2,68.5z"/>
	<path fill="#76BF43" d="M115.3,13.2c-1,1.9-2.2,3.8-3.5,5.6l17.3,14l-19.2-11.6c-1.7,2.1-3.7,3.9-5.7,5.7l13.6,18.5L102,28.5
		c-3.2,2.4-6.7,4.3-10.5,5.8l8,21.9L87.8,35.6c-3.3,1-6.8,1.6-10.4,1.8l-0.7,22.2l-2.3-22.1c-4.2,0-8.2-0.6-12-1.7L50.2,53.9
		l9.1-19.1c-3.6-1.3-6.9-3-10-5.1L30.7,45.9l15.7-18.3c-2.5-2-4.8-4.2-6.9-6.6L18.7,33.9l18.9-15.4c-1-1.4-1.9-2.8-2.7-4.2
		C17.1,26.9,5.5,47.7,5.5,71.3c0,38.8,31.5,70.2,70.2,70.2c38.8,0,70.3-31.4,70.3-70.2C146,47.1,133.8,25.9,115.3,13.2z M42.1,100.1
		c-3.9,0-7-3.1-7-7c0-3.9,3.1-7,7-7c3.9,0,7,3.1,7,7C49.2,97,46,100.1,42.1,100.1z M110.5,99.9c-0.7,0.3-1.4,0.3-1.8,0
		c-2.2,2.5-3.6,6.1-6.5,8.5c-0.8,0.6-2,1.3-2.6,0.2c-0.5-1.1,0.6-2.4,1-3c1.7-2.7,4.3-4.7,6.3-7.1c-0.3-0.5-0.6-1.3-0.4-1.8
		c-1.3-2.5-1.1-5-0.2-6.7c0.9-1.7,2.6-3.1,4.9-3.6c0.5-0.1,0.9-0.1,1.4-0.1c2.7,0,5.4,1.6,6.4,4.3
		C121.2,96.2,115.9,101.5,110.5,99.9z M121.7,95.1c0.7-4.1-3.2-11.1-10.1-11.1c-5,0-9.1,4.1-9.1,9.1c0,0.7,0.1,1.4,0.2,2h-5.9H52.6
		h-1.4c0.1-0.7,0.2-1.3,0.2-2c0-5-4.1-9.1-9.1-9.1c-5,0-9.1,4.1-9.1,9.1c0,0.7,0.1,1.4,0.2,2c0,0-0.6,0-6.7,0
		c-2.8-2.8-1.9-8.1-1.1-12.1c4.1,0,3-5.4,3-5.4c49.5-27.7,74-3.1,74-3.1c24.6-0.3,28.4,8.1,28.4,8.1s-1.4,3.1,0,11.5L121.7,95.1z"/>
</g>
</svg>
