<?xml version="1.0" encoding="utf-8"?>
<!-- Generator: Adobe Illustrator 18.1.0, SVG Export Plug-In . SVG Version: 6.00 Build 0)  -->
<svg version="1.1" id="Layer_1" xmlns="http://www.w3.org/2000/svg" xmlns:xlink="http://www.w3.org/1999/xlink" x="0px" y="0px"
	 viewBox="0 0 150 150" enable-background="new 0 0 150 150" xml:space="preserve">
<g>
	<polygon fill="#F16528" points="77.2,43.8 77.2,11.8 77.1,11.8 77.1,11.6 24.8,11.6 24.8,11.8 24.7,11.8 24.7,67.6 37.5,67.6 
		37.5,24.4 64.4,24.4 64.4,56.4 64.6,56.4 64.6,56.6 115.2,56.6 115.2,43.8 	"/>
	<polygon fill="#3FB772" points="106.8,76.5 138.8,76.5 138.8,76.3 139,76.3 139,24.1 138.8,24.1 138.8,23.9 83,23.9 83,36.7 
		126.2,36.7 126.2,63.7 94.2,63.7 94.2,63.8 94,63.8 94,114.4 106.8,114.4 	"/>
	<polygon fill="#3E4199" points="74.1,106.4 74.1,138.4 74.3,138.4 74.3,138.6 126.5,138.6 126.5,138.4 126.7,138.4 126.7,82.6 
		113.9,82.6 113.9,125.8 86.9,125.8 86.9,93.7 86.8,93.7 86.8,93.6 36.2,93.6 36.2,106.4 	"/>
	<polygon fill="#00B2C9" points="44.2,72.4 12.2,72.4 12.2,72.5 12,72.5 12,124.8 12.2,124.8 12.2,124.9 68,124.9 68,112.1 
		24.9,112.1 24.9,85.2 56.9,85.2 56.9,85 57,85 57,34.4 44.2,34.4 	"/>
</g>
</svg>
