<?xml version="1.0" encoding="utf-8"?>
<!-- Generator: Adobe Illustrator 16.0.0, SVG Export Plug-In . SVG Version: 6.00 Build 0)  -->
<!DOCTYPE svg PUBLIC "-//W3C//DTD SVG 1.1//EN" "http://www.w3.org/Graphics/SVG/1.1/DTD/svg11.dtd">
<svg version="1.1" id="Layer_1" xmlns="http://www.w3.org/2000/svg" xmlns:xlink="http://www.w3.org/1999/xlink" x="0px" y="0px"
	 width="100px" height="100px" viewBox="0 0 100 100" enable-background="new 0 0 100 100" xml:space="preserve">
<g>
	<g>
		<path fill="#7A287E" d="M28.814,90.43c5.848-2.666,11.712-8.126,15.978-15.515c4.259-7.39,6.048-15.2,5.431-21.593
			c-5.846,2.663-11.71,8.121-15.97,15.515C29.986,76.23,28.202,84.034,28.814,90.43z"/>
		<path fill="#2EAAE1" d="M71.94,90.427c0.61-6.395-1.183-14.206-5.455-21.593C62.22,61.447,56.35,55.995,50.504,53.332
			c-0.617,6.395,1.178,14.203,5.449,21.592C60.218,82.308,66.089,87.759,71.94,90.427z"/>
		<path fill="#9FCB3A" d="M93.494,53.077C88.264,49.353,80.6,47,72.069,47.003c-8.531,0.003-16.189,2.362-21.419,6.093
			c5.235,3.727,12.888,6.078,21.424,6.072C80.605,59.164,88.264,56.813,93.494,53.077z"/>
		<path fill="#FBED25" d="M71.929,15.739c-5.847,2.666-11.711,8.125-15.976,15.515c-4.26,7.39-6.054,15.201-5.432,21.592
			c5.846-2.663,11.71-8.122,15.97-15.515C70.758,29.938,72.544,22.13,71.929,15.739z"/>
		<path fill="#F18820" d="M28.805,15.741c-0.61,6.395,1.181,14.206,5.454,21.593c4.266,7.387,10.136,12.838,15.982,15.501
			c0.616-6.395-1.178-14.202-5.449-21.588C40.526,23.861,34.65,18.408,28.805,15.741z"/>
		<path fill="#ED2424" d="M7.252,53.091c5.23,3.725,12.891,6.077,21.422,6.073c8.532-0.002,16.19-2.36,21.42-6.092
			C44.859,49.347,37.2,46.994,28.668,47C20.137,47.003,12.479,49.355,7.252,53.091z"/>
	</g>
	<g>
		<path fill="#FFFFFF" d="M42.717,66.344c2.075-0.949,4.162-2.883,5.675-5.511c1.513-2.623,2.148-5.394,1.928-7.666
			c-2.075,0.949-4.161,2.886-5.675,5.513C43.132,61.301,42.497,64.073,42.717,66.344z"/>
		<path fill="#FFFFFF" d="M58.034,66.344c0.213-2.271-0.422-5.046-1.94-7.667c-1.515-2.624-3.595-4.559-5.676-5.505
			c-0.22,2.271,0.422,5.041,1.935,7.665C53.872,63.461,55.953,65.395,58.034,66.344z"/>
		<path fill="#FFFFFF" d="M65.686,53.084c-1.861-1.328-4.583-2.16-7.609-2.16c-3.026,0.003-5.748,0.839-7.604,2.167
			c1.855,1.321,4.577,2.156,7.604,2.156C61.109,55.244,63.824,54.407,65.686,53.084z"/>
		<path fill="#FFFFFF" d="M58.027,39.824c-2.074,0.949-4.162,2.886-5.675,5.51s-2.148,5.395-1.928,7.667
			c2.075-0.949,4.162-2.886,5.675-5.513C57.612,44.868,58.247,42.094,58.027,39.824z"/>
		<path fill="#FFFFFF" d="M42.717,39.827c-0.22,2.267,0.415,5.043,1.934,7.665c1.514,2.624,3.594,4.558,5.675,5.504
			c0.219-2.271-0.421-5.041-1.935-7.665C46.873,42.708,44.792,40.773,42.717,39.827z"/>
		<path fill="#FFFFFF" d="M35.059,53.084c1.861,1.323,4.583,2.16,7.609,2.16c3.027-0.003,5.749-0.839,7.604-2.167
			c-1.855-1.321-4.577-2.153-7.604-2.156C39.636,50.924,36.92,51.761,35.059,53.084z"/>
	</g>
</g>
</svg>
