<?xml version="1.0" encoding="utf-8"?>
<!-- Generator: Adobe Illustrator 18.1.0, SVG Export Plug-In . SVG Version: 6.00 Build 0)  -->
<svg version="1.1" id="Layer_1" xmlns="http://www.w3.org/2000/svg" xmlns:xlink="http://www.w3.org/1999/xlink" x="0px" y="0px"
	 viewBox="0 0 150 150" enable-background="new 0 0 150 150" xml:space="preserve">
<g>
	<path fill="#EB9893" d="M132.9,69.4c0.1,0.9,0.2,1.8,0.2,2.7C133.1,71.2,133,70.3,132.9,69.4z"/>
	<path fill="#EB9893" d="M131.9,63.2c0.4,2,0.8,4,1,6C132.7,67.2,132.4,65.2,131.9,63.2z"/>
	<path fill="#EB9893" d="M49.5,113.5l-11.7-10.6l47.3-52l6.9,6.3l0,0l-6.9-6.3l7.5-3.4c0,0,0,0,0,0l10.4-4.7l28.9,20.5
		c-5.7-26.3-29.1-46-57.1-46c-32.3,0-58.5,26.2-58.5,58.5c0,31.5,24.9,57.2,56.1,58.4l-22.9-20.7L49.5,113.5z M48.8,45.2
		c8.2,0,14.8,6.6,14.8,14.8c0,8.2-6.6,14.8-14.8,14.8c-8.2,0-14.8-6.6-14.8-14.8C34.1,51.8,40.7,45.2,48.8,45.2z"/>
	<path fill="#EB9893" d="M133.2,72.6c0.1,1,0.1,2.1,0.1,3.1C133.3,74.7,133.3,73.6,133.2,72.6z"/>
	<circle fill="#F7C4C0" cx="48.8" cy="59.9" r="14.8"/>
	<path fill="#DD6D6C" d="M88.9,107.9c-4.6-2.5-7.8-7.4-7.8-13c0-8.2,6.6-14.8,14.8-14.8c4.4,0,8.4,2,11.1,5l0.1-0.1l19.9,17.1
		c-1.7,3.4-3.7,6.5-6.1,9.5c7.8-9.9,12.4-22.4,12.4-36c0-1.1,0-2.1-0.1-3.1c0-0.1,0-0.3,0-0.4c-0.1-0.9-0.1-1.8-0.2-2.7
		c0-0.1,0-0.1,0-0.2c-0.2-2-0.9-4-0.9-6c0,0,0-0.2,0-0.2h0l-29-20.4l-6.2,18.8l-47.2,51.9l22.9,20.8l0,0c0.8,0,1.5,0.1,2.3,0.1
		c14.6,0,27.9-5.3,38.1-14.2c-1.9,1.6-3.8,3.1-5.9,4.4L88.9,107.9z"/>
	<polygon fill="#DD6D6C" points="92,57.1 96.8,61.5 92,57.1 	"/>
	<path fill="#DD6D6C" d="M113.2,119.8c2.8-2.4,5.3-5.1,7.6-8C118.5,114.7,116,117.4,113.2,119.8z"/>
	<path fill="#EB9893" d="M120.8,111.8C120.8,111.8,120.9,111.7,120.8,111.8c2.4-3,4.4-6.2,6.1-9.6L107,85.1l-0.1,0.1
		c2.3,2.6,3.7,6,3.7,9.7c0,8.2-6.6,14.8-14.8,14.8c-2.5,0-4.9-0.6-7-1.8l18.2,16.6c2-1.4,4-2.8,5.9-4.4c0.1-0.1,0.2-0.2,0.3-0.2
		C116,117.4,118.5,114.7,120.8,111.8z"/>
	<path fill="#F7C4C0" d="M95.8,80.1c-8.2,0-14.8,6.6-14.8,14.8c0,5.6,3.2,10.5,7.8,13c2.1,1.1,4.5,1.8,7,1.8
		c8.2,0,14.8-6.6,14.8-14.8c0-3.7-1.4-7.1-3.7-9.7C104.2,82.1,100.3,80.1,95.8,80.1z"/>
	<path fill="#58595B" d="M85.1,50.9l-47.3,52l11.7,10.6l0.1-0.1l47.2-51.9L92,57.1L85.1,50.9z M46.4,110.7l-5-4.6l47.3-52l5,4.6
		L46.4,110.7z"/>
	
		<rect x="32.4" y="79" transform="matrix(0.6728 -0.7398 0.7398 0.6728 -38.8632 76.9272)" fill="#6F7073" width="70.3" height="6.8"/>
	<path fill="#F7C4C0" d="M92.6,47.5l-7.5,3.4l6.9,6.3l4.8,4.4l6.2-18.7l-3.4,10.4C96.5,52.3,94.1,50.2,92.6,47.5z"/>
	<path fill="#58595B" d="M92.6,47.5c1.5,2.7,3.9,4.8,6.9,5.7l3.4-10.4L92.6,47.5C92.6,47.5,92.6,47.5,92.6,47.5z"/>
</g>
</svg>
