<?xml version="1.0" encoding="utf-8"?>
<!-- Generator: Adobe Illustrator 18.1.0, SVG Export Plug-In . SVG Version: 6.00 Build 0)  -->
<svg version="1.0" id="Layer_1" xmlns="http://www.w3.org/2000/svg" xmlns:xlink="http://www.w3.org/1999/xlink" x="0px" y="0px"
	 viewBox="0 0 150 150" enable-background="new 0 0 150 150" xml:space="preserve">
<path fill="#9DD6C9" d="M96,16.4c0,0,0-0.1,0.1-0.1c-0.2,0.2-0.3,0.3-0.5,0.5C95.8,16.7,95.9,16.6,96,16.4z"/>
<g>
	<path fill="#E5DC6E" d="M88.8,36c-0.1,0.4,0.3,1,0.4,1.4c0.1,0.4,0.3,1.1,0.3,1.4c0.3,1.1,2.5,2.4,2.8,3.8c0.2,0.7,0.7,1.3,0.9,2
		c0.1,0.4-0.2,0.8-0.1,1.1l0.2,0.7c0.2,0.7-0.7,1.2-1.1,1.8c-0.3,0.4,2.1,1,0.9,2l-1.3,1.1c-0.5,0.4-1.3,1.6-1.3,2.2
		c-0.1,1.2-0.6,1.7-0.7,2.7c-0.2,2.3-0.1,3.2,1.4,5l1,0.9c0.6,0.7,0.9,0.7,1.9,1.4c0.2,0.2,0.7,0.1,0.8,0.1c0.5-0.1,2.2-0.2,2.9-0.6
		l1-0.6c1.3-0.8,1.3-3.3,1.5-4.5c0.3-1.5,0.1-3.9-0.9-5l-0.5-0.6c-0.2-0.2-0.8-1.7-0.9-2c-0.1-0.4-0.8-1.1-0.8-1.1
		c-0.4-0.2-0.6-0.4-0.4-0.8c0,0,0.4-1.2,0.4-1.6c-0.1-0.4,1.3-2.2,1.6-2.6c0.3-0.4,1.4-1.6,2.1-2c1-0.6,3.3-3.7,3-4.8
		c-0.2-0.7,0-1.5-0.2-2.2l-0.5-2.1c0-1.9,1.9-4.5,1.4-6.7c-0.3-1.1,0.2-2.4-0.2-3.7c-0.3-1.4-1.3-2.5-1.7-3.7
		c-0.3-0.8-2.4-2.6-2.6-2.7c-0.4-0.3-1.7-0.7-1.7-0.7c-0.6-0.4-0.6,0-1.2-0.1c-1.2-0.3-2.5,0.6-3.7,0.5c-0.8,0-1.9,1.4-2.5,2.1
		c-0.3,0.4-1.4,3.2-1.4,3.7c0.1,1.3-0.4,2.8-0.1,4.1c0.3,1.1,0.5,2.4,1.5,3c0.9,0.6-0.7,2-0.5,2.7l0.3,1c0,0.1-0.9,1-0.9,1.1
		C89.5,34.3,89,35,88.8,36z"/>
	<path fill="#FCB352" d="M55.8,20.4c0,1.9,0,3.8,1.3,5.3l1.2,1.6c0.4,0.6,1.4,0.9,1.2,1.8c-0.2,0.8-0.9,3.6-0.7,4.3
		c0.3,1.1,0.6,2.5,0.8,3.6c0.2,0.7,0.8,1.7,1,2.4c0.1,0.4,1.4,1.6,1.6,1.8c0.3,0.4,1.3,0.6,1.7,0.7l0.8,0.2c0,0,0.7,0.1,0.8,0.2
		c0.8,0.7,0.8,2.2,0.7,2.8C66,47.6,63,49.3,64.1,52c0.4,0.9,0.6,1.9,0.7,2.8c0.1,1.3,1.2,1.3,2,2.3c0.9,1.1,2,0.9,3.5,1.2
		c0.5,0.1,0.6,0.5,1.2,0.4c0.1,0,1.3-0.3,1.4-0.4c1.7-0.4,4.7-2.3,4.2-4.4c-0.1-0.4,0.2-2.3,0.1-2.6c-0.1-0.4-0.4-1.8-0.5-2.1
		c-0.5-2.1-4.6-3.3-5-4.7l-0.2-0.7c-0.2-1-0.9-0.2-0.5-2.1c0.1-0.3,0-0.5-0.2-0.7c-0.2-0.2,0.4-0.5,0.6-0.5c1.3-0.3,2.3-3.5,2.6-4.7
		c0.2-0.8-0.3-1.5-0.2-2.2c0.2-1-1.2-3.1-1.4-4.1c-0.1-0.3-0.5-0.8-0.7-1c-0.2-0.2-0.4-1.4-0.2-1.4c0.6-0.2,1.8-3,1.4-4.4
		c-0.2-0.7-0.3-1.3-0.3-2c-0.1-1.2-0.8-2.5-1.1-3.7c-0.2-0.7-0.3-1.4-0.5-2.1c-0.2-0.7-1.7-2.2-1.8-2.5c-0.2-0.9-1.4-2.3-2.2-2.8
		C66.5,9,64.6,7.8,63.7,8c-1.4,0.3-3.3-0.8-3.6,0.7c0,0-1.5,0.4-2,1.1c-0.5,0.9-2.5,2.8-2.3,4.3C55.9,15.9,55.8,18.3,55.8,20.4z"/>
	<path fill="#A3DDF5" d="M144.5,54.6c-0.5-1.1-1.5-2.4-2.2-2.9c-0.3-0.2-2.5-0.8-2.6-0.9c-1.4-1.3-7.7-2.5-7.1,1.9
		c0,0.4-0.4,0.9-0.3,1.3c0.3,1.1-1.1,2.2-1.7,1.9c-5.3-2.4-1.8,4-4.1,3.7c-0.9-0.1-1.1,0.4-1.1,1c0,0.8-1,1.3-0.5,3.2
		c0.1,0.4,0.6,1.4,0.8,2.5c0.2,0.9-0.7,0.3-1,0.4c-1.4,0.4-2.8,1.1-3.6,2.4c-0.4,0.6-0.6,0.4-0.8,1.3c-0.5,2.2-1.3,7.4-4,8.1
		c-0.9,0.2-1.9,0.1-2.6,0.3c-0.8,0.2-3.2-0.9-3.8-1.7l-0.5-0.6c-0.3-0.3-3.6-2.3-4-2.4c-1.3-0.3-1.1-1-2.1-1.6
		c-1.1-0.7-2.7-1.1-4-1.4c-1.3-0.3-2.6-0.6-3.7-1.3c-1.2-0.7-6.1,0.4-7,0.6c-0.3,0.1-2.2,1.1-2.2,1.1c-0.4-0.1-0.6-0.5-0.7-0.7
		c-0.1-0.3-1.1-0.5-1.3-0.8c-1.2-1.4-4.5-3.7-6.5-3.2c-0.4,0.1-1.6-0.3-2-0.3c-1.6,0.4-3.3,0.2-4.9,0.1c-1.4-0.1-2.4-0.1-3.8,0.2
		c-2.4,0.6-4.4,0.2-7.2,1.4c-1,0.4-3,1.5-4.1,1.8c-0.4,0.1-4.8,3.7-5.2,3.9c-1.9,0.8-2.7,3.4-2.3,4c0.5,0.7-0.2,1.6-0.3,1.9
		c-0.7,2.8,0,3.2,0.8,6.2c0.4,1.8,1.5,1.4,1.7,2.2c0.3,1,3.4,4,4.7,3.7c0.8-0.2,2.2,1,2.7,1.6c0.5,0.6,2.1,1.6,1.7,2.2
		c-0.1,0.2-1,1.7-1.1,1.8c-0.3,0.6,0.3,1,0.6,1c0.5,0,0.9,0.9,0.4,0.9c-0.3,0-1.1-0.4-1.3-0.3c-1.4,0.8-2.1-0.2-3.3,0.1l-1.1,0.6
		c-2.2,0.5-4.1,2.1-6.2,2.7c-0.9,0.2-2.2,2.2-2.7,2.9c-0.4,0.7-1.9,1.6-2.5,2.1c-1.1,0.9-2.2,0.2-3.1,1.2l-1.3,1.1
		c-0.1,0-0.7,0.9-0.6,0.5l0.2-0.8c0-0.2-0.3-1.1-0.4-1.4c-0.3-1.1-1.7-1.9-1.4-2.6c0.1-0.3-0.4-1-0.6-1c-0.9-0.1-1.9-1.5-2.1-2.5
		c-0.1-0.3-0.7-1.1-1.1-1.2c-0.8-0.2-3.2,0.4-2.4-0.5c0.4-0.5,0.3-0.9-0.3-1.4l-0.4-0.3c-0.5-1.2-2-1.5-2.5-2.4
		c-3.3-5.6-7.3-4.8-12.8-5.8c-1-0.2-1.9-0.1-2.8,1.1c-0.2,0.3-0.5,0.9-0.9,1c-0.7,0.2-3.4,3.2-3.2,3.8c0.1,0.4-0.1,1-0.1,1.1
		c0.1,0.3,0.3,1.1,0.4,1.4c0.4,1.6,0.7,2.2,2.3,3.2c0.4,0.3,0.6,1,1.1,1.2c1.2,0.7,2.4,1.4,3.6,2.1c0.4,0.3,1.3,0,2,0.3
		c0.8,0.3,1.6,0.3,1.8,1c0.1,0.5,0.7,1.3,1.7,0.7c1.8-1.2,4.9,0.6,6.6-0.9c0.8-0.7,1.9-3.3,2.8-2.6c0.1,0.1,0.2,0.8,0.3,1.1
		c0.3,1.1,0.5,2.1,0.8,3.2c0.1,0.4,0.8,1.7,0.9,2c0.2,0.7,1.8,2.4,2.1,2.5l0.8,0.2c0.4,0.1,1.6-0.4,2.1-0.5c0.6-0.1,0.7-0.1,1-0.6
		c0.2-0.3,0,1.5,0.2,2.2c0.3,1.3,2.2,2.6,2.5,3.9c0.2,1,2.4,2.1,2.7,3.1c0.4,1.5,2,2,2.4,3.5c0.1,0.4,1.3,0.8,1.4,1.1
		c0.2,0.8,2.2,2.5,2.8,3.4c0.6,1,1.9,3.2,2.8,3.8l0.9,0.5c1.8,1,3.4,2.6,5.1,3.6c1.6,1,6.5,2.2,8.6,2.3c2,0.1,3.7,0.9,5.8,0.4
		c0.6-0.1,1.1,0.1,1.5,0l1.1-0.3c0.5-0.1,1-0.3,1.5-0.6c-0.1-1.5-0.8-2.7-1.9-3.4c-3.3-2.2-11.2-0.9-13.3-4.5c-0.6-1,0-2.5-0.2-4
		c-0.1-0.5-0.4-1.4-0.7-2.1c-0.6-1.2-1.9-2.6,0.5-3.2c-0.5-0.5-1.4-0.6-1.8-1.2c0-0.1,0-0.1,0-0.2c-0.1-1.6,1.2-3,1-4.2
		c-0.3-1.8-3.1-1.8-2.5-4.1c0.3-1.2,1.9-1.7,2.7-2.6c1.3-1.4,2.1-2.7,2.5-4.6c-0.5-0.4-0.9,0.4-1.5,0c0.2-0.8,1.1-1,1.4-1.7
		c-0.2-0.6-0.3-1.2-0.4-1.8c-1-5.8,1.6-10.6,4.2-14c-0.8,0-2,0.8-3.2,0.9c0.1-0.9,0.9-1.1,1.4-1.6c0.1-0.3-0.6,0.1-0.4-0.4
		c2.4-4.5,7.9-7.2,14.4-8.6c2.2-0.5,4.6-0.8,7-0.9l3.5-0.1c6.1,0,12.2,1.1,16.9,3c0.2-0.3-0.1-0.6-0.2-0.8c0.7,0,1.4,1.3,2,1.9
		c0.5-0.4-0.3-1.4,0-1.5c0,0,0.1,0,0.1,0c0.1,0,0.1,0.1,0.2,0.1c0.1,0.3,0,0.8,0.3,0.9c0.2,0,0.1-0.4,0.2-0.6c0,0,0.1,0.1,0.1,0.1
		c0.1,0.3,0.2,1.1,0.3,1.6c0.5,0.1,0.2-0.4,0.3-0.7c2.2,3.3,4.4,6.8,5.7,10.9c0.4,1.3,0.8,2.8,1,4.3l0.2,7.2
		c-0.8,6.9-4.8,11.3-7.8,16c-0.6,1-1.2,2-1.7,3c-0.5-0.1-0.1-0.3-0.2-0.7c-0.6,0.3-0.3,1.5-1,1.7c0,0,0,0,0,0c0.1-0.6-0.1-1-0.2-1.5
		c-0.2,0.5-0.3,1-0.4,1.7c-0.5,0.1-0.3-0.6-0.6-0.7c-0.7,1.2-2.2,1.8-3.5,2.5c-0.6,0.3-1.2,0.7-1.7,1.1c-2.1,1.9-1.9,5.1-1.2,8.3
		c0.8,0.5,1.6,0.7,2.4,0.6c1.5-0.2,3.7-0.5,5.5-1c6.4-1.6,9.4-13.9,9.9-19.7c0.2-2.3,1.2-5.5,1.1-7.7c-0.1-1.8,1.1-4.9,1-6.7
		c-0.1-1.4,1.6-2.6,1.1-4.6l0,0c0.3-1,0-2,0.5-2.7l0.5-0.9c0.6-0.9-0.3-2.5-0.6-3.9c-0.2-0.7-1.9-0.9-1.2-1.9
		c0.8-1.3,1.1-3.3,2.9-3.7c2.3-0.5,2.8,1.3,7.7-1.2c0.7-0.4,1.4-0.6,2-1.2c0.4-0.4,1.5-1.4,1.8-1.9c0.8-1.5,1.5-3,1.1-4.7
		c-0.1-0.3,0.9-1.3,1.3-0.7c0.7,0.8,3.1-1.6,2.9-2.2c-0.1-0.2,1-1.1,0.8-1.3c-0.4-0.5,1.5-2.3,2.7-2.9c1.5-0.7,2.1-3,3.1-4.2
		l0.6-0.7l0.3-0.3l0.2-0.8c0.2-0.8,0.6-1.8,0.5-2.4l0.4-0.8C145.4,55.8,144.7,55.2,144.5,54.6z"/>
	<path opacity="0.44" fill="#E8559A" d="M26.9,35.2c0.4,1.5,1.8,2.8,2.1,3.9c0.5,1.8,3.5,1.4,4.1,2.8c0.3,0.8-0.1,1.6-0.1,2.5
		c0,2,0.8,3.6,1.7,5.2c0.2,0.3,0.9,0.9,1.1,1.2c1.1,1.7,4.3,6,6.3,5.5c0.3-0.1,0.8,0,1.2-0.2c3.6-1.7,1.9-0.6,0.1,1
		c0,0-2.2,2.5-2.3,2.8c-1,2.3-0.6,5,1.2,6.4c0.3,0.3,1.2,1.2,1.1,1.6c0,0.4,1.1,1.2,1.4,1.1c1.5-0.4,4,0.5,5.7,0.1
		c0.4-0.1,1.6-0.3,1.8-0.4c1.1-0.9,1.6-1.6,2.3-2.8c0.6-1.1,0-3.9,0.2-5.3c0.2-1.1-2.1-5.1-3.8-4.6c-0.4,0.1-3.1-0.3-2.8-0.4
		c0.6-0.2,1.7-0.7,1.8-1.4c0.3-1.3,0.5-2,0.8-3.3c0.2-0.8-0.6-2.9-0.6-4c0-2.2-2.2-4.3-2.7-6.4c-0.3-1.1-2.4-3.2-3.3-4
		c-0.3-0.3-1.2-0.7-1.1-1.2c0.3-1.3-0.1-2.9-1-3.9c-0.8-0.9-1-1.9-1.9-2.9c-0.2-0.3-1.4-1.1-1.5-1.5c-0.5-2.1-2.2-3.3-3.2-3.8
		c-0.9-0.4-2.8-0.4-3.1-0.3c-1.5,0.4-3.2,1.6-4,2.6c-1.6,2-2.5,5.3-1.9,7.6C26.9,33.7,26.7,34.5,26.9,35.2z"/>
</g>
</svg>
