<?xml version="1.0" encoding="utf-8"?>
<!-- Generator: Adobe Illustrator 16.0.0, SVG Export Plug-In . SVG Version: 6.00 Build 0)  -->
<!DOCTYPE svg PUBLIC "-//W3C//DTD SVG 1.1//EN" "http://www.w3.org/Graphics/SVG/1.1/DTD/svg11.dtd">
<svg version="1.1" id="Layer_1" xmlns="http://www.w3.org/2000/svg" xmlns:xlink="http://www.w3.org/1999/xlink" x="0px" y="0px"
	 width="100px" height="100px" viewBox="0 0 100 100" enable-background="new 0 0 100 100" xml:space="preserve">
<g>
	<g>
		<linearGradient id="SVGID_1_" gradientUnits="userSpaceOnUse" x1="55.0811" y1="2.729" x2="58.6562" y2="86.9582">
			<stop  offset="0" style="stop-color:#00ADEE"/>
			<stop  offset="0.093" style="stop-color:#009AD8"/>
			<stop  offset="0.2779" style="stop-color:#007AB3"/>
			<stop  offset="0.463" style="stop-color:#006196"/>
			<stop  offset="0.646" style="stop-color:#004E82"/>
			<stop  offset="0.8262" style="stop-color:#004475"/>
			<stop  offset="1" style="stop-color:#004071"/>
		</linearGradient>
		<path fill="url(#SVGID_1_)" d="M74.492,23.794L60.373,9.669c-1.512-1.504-3.52-2.332-5.658-2.332
			c-2.145,0-4.147,0.828-5.657,2.332L37.356,21.376c0.516,0.367,0.883,0.957,0.908,1.766c0.025,0.584,0.068,1.156,0.062,1.716
			l12.963-12.963c0.901-0.908,2.12-1.405,3.426-1.405c1.293,0,2.512,0.497,3.426,1.405l10.053,10.06
			C70.407,22.147,72.564,22.762,74.492,23.794z"/>
		<linearGradient id="SVGID_2_" gradientUnits="userSpaceOnUse" x1="52.751" y1="2.8325" x2="56.3266" y2="87.0728">
			<stop  offset="0" style="stop-color:#00ADEE"/>
			<stop  offset="0.093" style="stop-color:#009AD8"/>
			<stop  offset="0.2779" style="stop-color:#007AB3"/>
			<stop  offset="0.463" style="stop-color:#006196"/>
			<stop  offset="0.646" style="stop-color:#004E82"/>
			<stop  offset="0.8262" style="stop-color:#004475"/>
			<stop  offset="1" style="stop-color:#004071"/>
		</linearGradient>
		<path fill="url(#SVGID_2_)" d="M94.132,43.441L80.317,29.626c0.024,0.137,0.05,0.28,0.05,0.43c0,0.236-0.043,0.466-0.105,0.678
			c0,0.049,0,0.087,0,0.137c-0.007,0.037,0,0.137,0.006,0.249c0.211,0.491,0.373,1.013,0.516,1.548
			c0.063,0.086,0.094,0.137,0.007,0.031l0.013,0.018c0.503,0.685,0.696,1.524,0.446,2.282L91.906,45.66
			c0.907,0.914,1.417,2.127,1.417,3.433c0,1.299-0.51,2.519-1.417,3.426L58.141,86.277c-0.914,0.914-2.133,1.418-3.426,1.418
			c-1.306,0-2.524-0.504-3.432-1.418L17.518,52.519c-0.902-0.907-1.412-2.127-1.412-3.426c0-0.491,0.075-0.965,0.211-1.411
			c-0.037-0.013-0.075-0.025-0.099-0.038c-1.044-0.43-1.99-1.118-2.506-1.958c-0.491,1.051-0.752,2.207-0.752,3.407
			c0,2.133,0.833,4.146,2.332,5.645L49.058,88.51c1.51,1.504,3.513,2.331,5.657,2.331c2.139,0,4.146-0.827,5.646-2.331
			l33.771-33.772c1.504-1.498,2.338-3.512,2.338-5.645C96.47,46.953,95.636,44.939,94.132,43.441z"/>
	</g>
	<g>
		<g>
			<path fill="#231F20" d="M12.724,41.538c1.61,1.194,3.444,2.083,5.372,2.637c1.934,0.554,3.96,0.746,5.956,0.603
				c2.015-0.154,3.985-0.672,5.813-1.504c1.822-0.853,3.494-2.016,4.905-3.433c1.406-1.417,2.568-3.077,3.395-4.899
				c0.41-0.901,0.746-1.846,0.994-2.803c0.237-0.964,0.392-1.946,0.46-2.928c0.075-0.989,0.05-1.971-0.049-2.954
				c-0.112-0.976-0.292-1.946-0.572-2.878c-0.28-0.939-0.641-1.853-1.082-2.717c-0.436-0.864-0.946-1.697-1.53-2.462
				c-2.319-3.084-5.745-5.241-9.395-5.925c1.735,0.641,3.339,1.567,4.744,2.705c1.393,1.131,2.586,2.493,3.506,4.004
				c0.938,1.504,1.598,3.152,1.965,4.855c0.174,0.852,0.286,1.716,0.323,2.574c0.037,0.864-0.012,1.728-0.112,2.58
				c-0.105,0.852-0.286,1.697-0.534,2.512c-0.261,0.813-0.572,1.609-0.958,2.368c-0.777,1.512-1.796,2.897-3.021,4.061
				c-1.231,1.169-2.649,2.133-4.19,2.81c-1.536,0.69-3.183,1.107-4.875,1.231c-3.357,0.274-6.789-0.659-9.562-2.599
				c-1.393-0.964-2.624-2.17-3.619-3.551c-0.497-0.689-0.932-1.43-1.305-2.194c-0.374-0.771-0.684-1.573-0.92-2.399
				c-0.236-0.827-0.41-1.672-0.503-2.53c-0.093-0.864-0.119-1.734-0.068-2.599c0.099-1.735,0.497-3.47,1.181-5.098
				c0.685-1.635,1.661-3.159,2.873-4.501c1.206-1.336,2.648-2.493,4.265-3.395c-3.494,1.237-6.553,3.892-8.38,7.299
				c-0.908,1.698-1.517,3.575-1.766,5.515c-0.137,0.97-0.175,1.952-0.137,2.928c0.05,0.982,0.174,1.965,0.398,2.929
				C7.166,35.639,9.491,39.177,12.724,41.538z"/>
			<path fill="#231F20" d="M17.12,27.612l0.013,0.125c0.006,0.08,0.018,0.167,0.031,0.249c0.019,0.161,0.062,0.317,0.094,0.478
				c0.155,0.635,0.429,1.226,0.801,1.742c0.728,1.02,1.834,1.704,2.96,1.84c-0.436-0.355-0.809-0.747-1.101-1.169
				c-0.292-0.417-0.504-0.865-0.641-1.313c-0.149-0.454-0.199-0.908-0.199-1.349c0.006-0.112,0.019-0.223,0.025-0.336
				c0.012-0.056,0.012-0.105,0.019-0.161v-0.019v-0.013c0.006,0.006,0.006-0.012,0.006,0.006v-0.006v-0.05
				c0.013-0.031,0.013-0.068,0.018-0.087l0.032-0.149c0.012-0.05,0.025-0.106,0.037-0.156c0.025-0.105,0.063-0.205,0.087-0.305
				c0.274-0.796,0.79-1.455,1.43-1.909c0.646-0.454,1.393-0.684,2.164-0.671c0.771,0.006,1.529,0.255,2.157,0.727
				c0.628,0.467,1.119,1.145,1.374,1.94c0.255,0.802,0.261,1.722-0.037,2.624c-0.149,0.442-0.374,0.889-0.672,1.299
				c-0.298,0.417-0.678,0.79-1.119,1.138c1.119-0.112,2.239-0.771,3.003-1.771c0.373-0.498,0.665-1.083,0.839-1.716
				c0.043-0.162,0.087-0.317,0.112-0.479c0.025-0.156,0.044-0.33,0.056-0.492c0.031-0.33,0.031-0.665-0.006-0.994
				c-0.13-1.35-0.796-2.661-1.834-3.587c-0.51-0.467-1.12-0.846-1.772-1.101c-0.659-0.255-1.361-0.392-2.064-0.404
				c-0.696-0.006-1.405,0.112-2.07,0.354c-0.659,0.243-1.274,0.603-1.803,1.057c-0.529,0.454-0.964,1.001-1.287,1.604
				c-0.323,0.609-0.547,1.268-0.622,1.934c-0.031,0.167-0.037,0.336-0.043,0.503c-0.006,0.081-0.006,0.162-0.006,0.249
				c0.006,0.081,0.012,0.162,0.012,0.255C17.113,27.55,17.12,27.575,17.12,27.612z"/>
			<path fill="#231F20" d="M82.108,36.596c-0.124-1.156-0.337-2.301-0.598-3.425c-0.137-0.566-0.285-1.125-0.447-1.679
				c-0.162-0.56-0.33-1.101-0.535-1.654c-0.211-0.547-0.459-1.082-0.771-1.579c-0.324-0.498-0.709-0.958-1.162-1.331
				c-0.23-0.18-0.491-0.342-0.752-0.466c-0.131-0.069-0.262-0.125-0.404-0.174c-0.144-0.043-0.287-0.081-0.43-0.099
				c-0.584-0.093-1.156,0-1.729,0.087c0.572-0.037,1.151-0.081,1.703,0.056c0.273,0.056,0.522,0.168,0.771,0.305
				c0.237,0.143,0.46,0.311,0.659,0.497c0.41,0.379,0.734,0.839,0.995,1.33c0.261,0.492,0.466,1.008,0.628,1.542
				c0.162,0.534,0.291,1.088,0.428,1.642c0.119,0.552,0.231,1.106,0.324,1.66c0.187,1.119,0.322,2.244,0.379,3.364
				c0.057,1.125,0.044,2.238-0.111,3.325c-0.075,0.541-0.188,1.076-0.342,1.586c-0.155,0.504-0.361,0.994-0.629,1.418
				c-0.03,0.05-0.056,0.093-0.1,0.161l-0.055,0.074l-0.063,0.112c-0.1,0.149-0.175,0.292-0.249,0.436
				c-0.144,0.292-0.261,0.572-0.36,0.851c-0.219,0.561-0.392,1.12-0.56,1.674c-0.348,1.106-0.653,2.2-0.982,3.288
				c-0.659,2.176-1.355,4.321-2.338,6.28c-0.497,0.969-1.057,1.883-1.734,2.647c-0.169,0.188-0.342,0.367-0.528,0.535
				c-0.094,0.08-0.187,0.155-0.28,0.229L72.694,59.4l-0.16,0.119l-1.394,1.007c-0.485,0.342-0.963,0.721-1.431,1.138
				c-0.459,0.423-0.907,0.895-1.293,1.411c-0.049,0.068-0.099,0.137-0.148,0.211l-0.124,0.181l-0.25,0.373l-0.478,0.709
				l-0.951,1.411c-1.293,1.871-2.599,3.718-3.991,5.482c-0.697,0.884-1.406,1.748-2.146,2.569c-0.74,0.826-1.505,1.609-2.301,2.274
				c-0.397,0.33-0.808,0.628-1.193,0.834c-0.044,0.025-0.094,0.049-0.143,0.074c-0.05,0.024-0.05,0.024-0.131,0.057l-0.031,0.012
				c-0.024,0.013,0.006,0,0,0l-0.012,0.007c-0.013,0.006-0.02,0.006-0.025,0.011c-0.025,0-0.05,0.007-0.087,0.013
				c-0.112,0.025-0.286,0.031-0.473,0.013c-0.385-0.036-0.858-0.16-1.318-0.335c-0.473-0.181-0.944-0.398-1.43-0.634
				c-0.951-0.486-1.896-1.058-2.822-1.66c-0.933-0.61-1.841-1.263-2.761-1.929l-0.703-0.51l-0.36-0.248
				c-0.106-0.074-0.205-0.149-0.312-0.224c-0.422-0.324-0.851-0.672-1.274-1.025c-0.846-0.716-1.679-1.468-2.487-2.239
				c-1.604-1.548-3.133-3.183-4.526-4.898c-0.696-0.864-1.355-1.748-1.958-2.66c-0.299-0.455-0.591-0.914-0.858-1.388
				c-0.137-0.229-0.267-0.466-0.392-0.695l-0.1-0.188l-0.056-0.111l-0.068-0.137c-0.105-0.162-0.199-0.306-0.286-0.442
				c-0.367-0.533-0.734-1-1.106-1.46c-0.379-0.461-0.753-0.901-1.132-1.344c-0.765-0.882-1.542-1.741-2.325-2.586
				c-0.236-0.255-0.466-0.51-0.703-0.759c2.294-0.789,4.085-2.038,5.365-3.196c0.212,0.244,0.423,0.492,0.647,0.734
				c0.267,0.299,0.541,0.591,0.827,0.883c0.137,0.144,0.273,0.286,0.429,0.436l0.211,0.205l0.024,0.025l0.05,0.05
				c0.031,0.03,0.057,0.056,0.087,0.08c0.062,0.044,0.124,0.087,0.174,0.131c0.23,0.162,0.448,0.28,0.646,0.379
				c0.211,0.105,0.417,0.192,0.616,0.273c0.404,0.162,0.79,0.299,1.175,0.417c0.783,0.236,1.554,0.429,2.325,0.591
				c0.385,0.086,0.771,0.161,1.156,0.235c0.385,0.075,0.771,0.144,1.156,0.213c0.385,0.067,0.771,0.124,1.156,0.186l0.584,0.087
				l0.572,0.081l1.157,0.175c0.385,0.049,0.771,0.111,1.156,0.204c-0.659-0.448-1.393-0.758-2.108-1.082l-0.541-0.236l-0.535-0.229
				c-0.366-0.155-0.728-0.299-1.087-0.448c-1.437-0.584-2.879-1.138-4.234-1.765c-0.336-0.156-0.672-0.312-0.97-0.479
				c-0.156-0.082-0.298-0.168-0.435-0.255c-0.125-0.088-0.249-0.181-0.323-0.249c-0.025-0.019-0.038-0.037-0.05-0.05
				c-0.013-0.007-0.013-0.013-0.019-0.025c0,0-0.006-0.006,0,0l-0.032-0.031l-0.192-0.198c-0.131-0.131-0.255-0.268-0.386-0.404
				c-0.255-0.268-0.497-0.548-0.746-0.834c-0.255-0.297-0.516-0.608-0.765-0.914c0.51-0.64,0.771-1.062,0.771-1.062l0,0
				c1.672-2.5,2.661-5.503,2.661-8.742c0-0.708-0.05-1.411-0.144-2.096c-0.952,2.207-2.319,4.197-4.01,5.851
				c-3.588,3.451-7.833,4.583-9.165,4.862c-1.175,0.236-2.387,0.36-3.631,0.36c-5.77,0-10.904-2.668-14.262-6.832
				c1.051,7.641,7.598,13.528,15.531,13.528c0.709,0,1.405-0.043,2.089-0.138c0.584,0.628,1.168,1.257,1.741,1.892
				c0.765,0.838,1.517,1.685,2.238,2.536c0.373,0.436,0.734,0.857,1.082,1.293c0.342,0.423,0.684,0.863,0.958,1.274
				c0.062,0.094,0.137,0.199,0.174,0.279l0.037,0.057l0.038,0.074l0.099,0.199c0.149,0.272,0.292,0.534,0.448,0.795
				c0.299,0.522,0.609,1.038,0.945,1.537c0.659,1,1.362,1.946,2.101,2.871c1.479,1.841,3.096,3.544,4.787,5.161
				c0.852,0.801,1.716,1.591,2.624,2.35c0.448,0.38,0.908,0.753,1.405,1.113c0.125,0.093,0.249,0.186,0.386,0.28l0.348,0.235
				l0.684,0.491c0.939,0.665,1.903,1.337,2.885,1.971c0.994,0.635,2.015,1.243,3.108,1.784c0.547,0.274,1.119,0.529,1.722,0.74
				c0.61,0.212,1.257,0.397,2.009,0.46c0.373,0.025,0.783,0.025,1.23-0.063c0.112-0.03,0.218-0.055,0.336-0.087
				c0.056-0.024,0.118-0.044,0.174-0.063l0.088-0.036l0.068-0.031c0.056-0.02,0.18-0.081,0.255-0.118
				c0.081-0.038,0.161-0.08,0.235-0.124c0.616-0.349,1.126-0.74,1.604-1.15c0.951-0.814,1.766-1.685,2.536-2.574
				c0.777-0.901,1.506-1.815,2.201-2.748c1.398-1.859,2.704-3.768,3.955-5.707l0.932-1.455l0.46-0.728l0.211-0.354l0.112-0.167
				c0.037-0.051,0.063-0.095,0.101-0.144c0.571-0.809,1.342-1.499,2.213-2.182l1.354-1.045l0.188-0.144l0.186-0.155
				c0.125-0.105,0.249-0.217,0.36-0.329c0.237-0.23,0.461-0.467,0.659-0.709c0.821-0.982,1.418-2.052,1.916-3.141
				c0.51-1.087,0.901-2.2,1.256-3.313c0.36-1.114,0.659-2.232,0.945-3.352c0.285-1.113,0.546-2.231,0.832-3.32
				c0.137-0.553,0.286-1.094,0.455-1.609c0.08-0.262,0.179-0.51,0.273-0.746c0.042-0.113,0.099-0.219,0.154-0.317l0.044-0.068
				l0.057-0.106c0.036-0.055,0.086-0.131,0.124-0.204c0.304-0.573,0.522-1.157,0.671-1.748c0.149-0.597,0.237-1.192,0.298-1.79
				C82.281,38.927,82.232,37.758,82.108,36.596z"/>
			<path fill="#231F20" d="M51.396,39.275c0.148,0.429,0.323,0.846,0.516,1.256c0.205,0.404,0.416,0.796,0.641,1.175
				c0.235,0.373,0.472,0.733,0.684,1.051l0.124,0.199c-0.019,0.106-0.063,0.23-0.093,0.349c-0.056,0.167-0.112,0.354-0.181,0.535
				l-0.397,1.118l-0.41,1.15c-0.138,0.385-0.268,0.777-0.386,1.175c-0.137,0.398-0.249,0.796-0.36,1.213
				c-0.112,0.409-0.212,0.832-0.286,1.287c-0.025,0.224-0.056,0.453-0.068,0.708v0.057v0.036v0.082c0,0.062,0,0.117,0,0.174
				c0,0.118,0.013,0.23,0.019,0.342c0.037,0.447,0.105,0.876,0.187,1.293c0.354,1.679,1,3.141,1.355,4.743
				c0.143-0.813,0.124-1.659,0.099-2.48c-0.037-0.82-0.086-1.629-0.074-2.405c0-0.386,0.013-0.765,0.063-1.125
				c0.012-0.095,0.024-0.181,0.037-0.268c0.013-0.051,0.019-0.088,0.025-0.131l0.012-0.069l0.006-0.036v-0.006c0-0.007,0,0,0,0
				l0.007-0.02c0.037-0.149,0.087-0.311,0.137-0.479c0.124-0.335,0.261-0.688,0.41-1.043c0.155-0.355,0.323-0.709,0.491-1.069
				l1.032-2.176c0.181-0.368,0.348-0.747,0.516-1.139c0.087-0.192,0.168-0.393,0.249-0.603c0.087-0.205,0.162-0.424,0.236-0.691
				c0.019-0.093,0.043-0.186,0.068-0.297c1.398,1.721,3.04,3.251,4.843,4.556c1.878,1.337,3.93,2.426,6.075,3.258
				c1.074,0.411,2.169,0.765,3.275,1.058c1.12,0.292,2.238,0.528,3.376,0.703c0.031,0.006,0.057-0.007,0.069-0.038
				s-0.013-0.067-0.038-0.08H73.64c-2.182-0.796-4.303-1.579-6.316-2.544c-2.02-0.95-3.941-2.051-5.726-3.338
				c-1.784-1.28-3.438-2.735-4.943-4.364c-0.187-0.206-0.379-0.41-0.56-0.616l-0.546-0.634c-0.131-0.148-0.25-0.298-0.374-0.453
				c-0.074-0.131-0.161-0.262-0.229-0.393c-0.367-0.646-0.666-1.286-0.901-1.958c-0.479-1.337-0.685-2.761-0.616-4.215
				c0.019-0.368,0.044-0.734,0.094-1.095c0.024-0.181,0.05-0.373,0.074-0.547l0.05-0.274c0.013-0.08,0.031-0.161,0.05-0.249
				c0.074-0.329,0.174-0.646,0.299-0.963c0.118-0.312,0.273-0.616,0.447-0.908c0.181-0.292,0.386-0.572,0.609-0.846
				c0.23-0.267,0.485-0.522,0.759-0.771c0.547-0.484,1.169-0.926,1.84-1.336c0.659-0.417,1.374-0.79,2.089-1.194
				c0.36-0.193,0.722-0.397,1.075-0.634c0.175-0.118,0.349-0.242,0.504-0.385c0.162-0.143,0.299-0.317,0.367-0.516
				c-0.131,0.156-0.311,0.249-0.491,0.33c-0.181,0.075-0.367,0.137-0.56,0.193c-0.386,0.105-0.783,0.193-1.182,0.292
				c-0.789,0.187-1.591,0.392-2.394,0.666c-0.802,0.28-1.598,0.64-2.344,1.113c-0.386,0.236-0.746,0.503-1.101,0.802
				c-0.342,0.304-0.665,0.634-0.964,1c-0.298,0.367-0.559,0.771-0.783,1.188c-0.224,0.41-0.403,0.858-0.56,1.305
				c-0.03,0.113-0.068,0.225-0.099,0.337l-0.088,0.322c-0.049,0.225-0.1,0.43-0.149,0.646c-0.086,0.436-0.149,0.878-0.198,1.318
				c-0.1,0.889-0.093,1.803,0,2.704C50.873,37.521,51.084,38.417,51.396,39.275z M53.397,42.795c0-0.025,0-0.044,0-0.044
				c0.006-0.025,0.006,0.006,0,0.057V42.795z"/>
			<path fill="#231F20" d="M71.675,31.523c0.71,0.733,1.338,1.535,1.841,2.399c0.522,0.864,0.92,1.784,1.194,2.749
				c0.541,1.921,0.547,3.979,0.186,6c-0.342,2.026-1.02,4.01-1.79,5.986c1.219-1.74,2.17-3.687,2.723-5.788
				c0.28-1.051,0.436-2.139,0.448-3.245c0.013-0.548-0.013-1.101-0.081-1.654c-0.068-0.547-0.18-1.088-0.329-1.629
				c-0.156-0.534-0.348-1.063-0.573-1.565c-0.235-0.499-0.497-0.996-0.807-1.456c-0.598-0.927-1.337-1.76-2.152-2.475
				c-0.826-0.722-1.728-1.337-2.673-1.84c-0.484-0.249-0.971-0.485-1.468-0.678c-0.497-0.192-1-0.36-1.517-0.478
				c0.933,0.484,1.828,1.038,2.667,1.653C70.184,30.117,70.967,30.789,71.675,31.523z"/>
		</g>
		<path fill="#231F20" d="M50.183,28.905c0.877-1.219,1.971-2.245,3.127-3.214c0.585-0.466,1.194-0.914,1.815-1.33
			c0.634-0.423,1.293-0.796,1.965-1.15c2.698-1.418,5.757-2.275,8.891-2.319c3.121-0.062,6.255,0.721,8.952,2.17
			c2.711,1.443,5.023,3.469,6.803,5.844l-0.101,0.112c-1.081-0.982-2.207-1.902-3.406-2.717c-1.193-0.827-2.462-1.554-3.786-2.151
			c-2.643-1.2-5.539-1.834-8.438-1.766c-2.908,0.038-5.77,0.747-8.43,1.915c-1.331,0.591-2.611,1.281-3.83,2.077
			c-1.219,0.784-2.394,1.653-3.457,2.642L50.183,28.905z"/>
	</g>
</g>
</svg>
