<?xml version="1.0" encoding="utf-8"?>
<!-- Generator: Adobe Illustrator 18.1.0, SVG Export Plug-In . SVG Version: 6.00 Build 0)  -->
<svg version="1.0" id="Layer_1" xmlns="http://www.w3.org/2000/svg" xmlns:xlink="http://www.w3.org/1999/xlink" x="0px" y="0px"
	 viewBox="0 0 150 150" enable-background="new 0 0 150 150" xml:space="preserve">
<g>
	<g>
		<path fill="#FCB316" d="M54.9,35.3c-6.9,0-15.3,1.9-25.1,5.6c-5.3,2-11,4.6-17.1,7.7v55.1l15.7-30.4c0.7-1.4,2.4-2,3.8-1.2
			c1.4,0.7,1.9,2.5,1.2,3.8L12.7,116v1.8c1.7-0.8,4.1-1.9,7.1-3.1l18.8-36.2c1.4-2.8,4.9-3.9,7.7-2.4c2.8,1.4,3.9,4.9,2.4,7.7
			l-13.2,25.4c2.4-0.7,4.9-1.3,7.4-1.9l10.9-20.9c0.7-1.4,2.4-1.9,3.8-1.2c1.4,0.7,2,2.4,1.2,3.8l-8.9,17.2c2-0.2,3.9-0.3,5.7-0.3
			c8.9,0,14.2,2.8,17.4,6.5V45.7c0-0.1,0-0.2,0-0.3c0,0,0-0.1,0.1-0.3c-0.4-0.9-1.1-2.5-2.6-4.1C68,38.1,63.4,35.3,54.9,35.3z
			 M60.2,80.1c-1.7-0.9-3.5-1.1-5.4-0.8c-0.1-0.5-0.2-1.1-0.3-1.6c-0.9-2.9-2.9-5.2-5.6-6.7c-2.7-1.4-5.8-1.6-8.7-0.7
			c-0.6,0.2-1.1,0.4-1.6,0.7c-0.8-1.6-1.9-3.1-3.6-4c-0.1-0.1-0.3-0.1-0.5-0.2l19-11.8l5.3-3.1l0.3,5.9l1.4,22.5
			C60.4,80.3,60.3,80.2,60.2,80.1z"/>
		<path fill="#FCB316" d="M114.5,109.2c4.4,1.3,8.5,2.7,12.2,4.2l-9.4-12.4L114.5,109.2z"/>
		<polygon fill="#FCB316" points="137.3,110.1 137.3,93.6 125.9,95 		"/>
		<path fill="#FCB316" d="M88.6,55.8c0.8-0.6,1.9-0.7,2.7-0.2l45.9,28.8V48.6c-6.1-3.1-11.8-5.6-17.1-7.7
			c-9.7-3.7-18.2-5.6-25.1-5.6c-8.5,0-13.1,2.8-15.6,5.6c-1.5,1.6-2.2,3.2-2.6,4.1c-0.1,0.4-0.2,0.6-0.3,0.8v66.8
			c0.1-0.1,0.2-0.2,0.4-0.4c3.2-3.7,8.5-6.5,17.4-6.5c2.9,0,5.9,0.3,9,0.8L87.8,58.5C87.5,57.5,87.8,56.5,88.6,55.8z"/>
	</g>
	<g>
		<path fill="#6567A1" d="M140.8,126.8l-3.2-1.5l-3.2-1.5c-7.3-3.5-26.1-11.5-40.1-11.4l0,0c-6.2,0-10.1,1.6-12.4,4.2l0,0l-7.3,8.9
			l-6.7-9c-2.2-2.6-6.2-4.2-12.4-4.2l0,0c-14,0-32.8,8-40.1,11.4l0,0l-3.2,1.5l-6.3,3v-3.5v-3.5v-3.5V48.6v-1.4v-2.7l1.2-0.6
			l1.2-0.6l1.2-0.6c6.3-3.2,12.3-5.9,17.7-8l0,0c10.4-4,19.6-6,27.5-6l0,0c10.4,0,16.7,3.8,20.1,7.3l0,0c3.4-3.5,9.7-7.3,20.1-7.3
			l0,0c7.8,0,17,2.1,27.4,6.1l0,0c5.7,2.2,11.6,4.8,17.7,7.9l0,0l1.2,0.6l2.4,1.2v1.4v1.4v1.4v69.3v3.5v3.5v3.5L140.8,126.8
			L140.8,126.8z M141.7,124.9l0.9-2L141.7,124.9L141.7,124.9z M136.3,119.9l3.2,1.5v-3.5V48.6v-1.4l-1.2-0.6c-6-3-11.8-5.6-17.3-7.8
			l0,0c-10.1-3.9-18.8-5.8-25.9-5.8l0,0c-9.7,0-14.7,3.5-17.3,6.4l0,0c-0.4,0.4-0.7,0.8-1,1.2l0,0L75,43.1l-1.8-2.4
			c-0.3-0.4-0.7-0.9-1-1.3l0,0c-2.6-2.8-7.5-6.3-17.3-6.3l0,0c-7,0-15.8,1.9-25.9,5.8l0,0c-5.3,2-11.1,4.6-17.3,7.8l0,0l-1.2,0.6
			v1.4v69.3v3.5l3.2-1.5c7.6-3.5,26.5-11.8,42-11.9l0,0c6.8,0,12.3,1.8,15.8,5.8l0,0l3.3,4.4l4-4.5c3.4-4,8.9-5.7,15.7-5.7l0,0
			C109.8,108.1,128.8,116.3,136.3,119.9L136.3,119.9z"/>
	</g>
</g>
</svg>
