<?xml version="1.0" encoding="utf-8"?>
<!-- Generator: Adobe Illustrator 18.1.0, SVG Export Plug-In . SVG Version: 6.00 Build 0)  -->
<svg version="1.1" id="Layer_1" xmlns="http://www.w3.org/2000/svg" xmlns:xlink="http://www.w3.org/1999/xlink" x="0px" y="0px"
	 viewBox="0 0 150 150" enable-background="new 0 0 150 150" xml:space="preserve">
<g>
	<path fill="#007CB6" d="M52.3,123.3c-3.1,0.7-6,1.1-8.7,1.5c7.9,4.2,16.8,6.6,26.4,6.6c23.3,0,43.3-14.3,51.8-34.5
		c-2.9,0.6-6,1.5-9.3,2.8C97.4,105.7,74.1,118.6,52.3,123.3z"/>
	<path fill="#9ED6C4" d="M46,95.3c0.4-0.2,0.8-0.5,1.2-0.7c2.7-1.6,6.2-4.1,9.9-7c0.7-0.5,1.4-0.9,2-1.5c1.3-3.3,2.6-6.3,3.6-9.4
		c1.2-4.1,0.5-8-2.4-11.8C51.6,73.8,42.5,82.3,46,95.3z"/>
	<path fill="#00A77A" d="M67.6,96c18-9.6,34.8-22.7,48.5-24.2c13.5-1.5,26.9,7.9,31.1,12.3l0,0c0,0-8-11.1-21.4-13.5
		c-2.4-28.7-26.5-51.3-55.8-51.3c-17.2,0-32.7,7.8-42.9,20.1c4.5,6.8,11.4,10.1,19.1,12.5c4,1.2,8,2.6,12,3.8
		c0.8,0.2,2.3,0.2,2.8-0.4c5.1-5.2,10.5-10.4,12.6-17.6c0.9-3,0.9-6.3,1.2-9.5c0.1-0.9,0-1.8,0-2.7c3.5,3.9,3.9,8.5,3.1,13.2
		c-1.3,7.3-5.5,13-10.3,18.3c-2,2.2-2.4,3.9-1,6.8c2.5,5,2.1,11.1-0.5,16.2c0.7-0.6,1.3-1.2,1.9-1.8c6.9-6.4,13.9-14.7,17.1-13
		c2.2,1.3,1.8,7.1,0.1,12.2c-1.7,5.1-3.9,9.6-3.9,9.6l-4,2.5c0,0,2.4-5.6,2.4-7.2c0-1.7-0.6-3-5.1,0.6c-6,4.8-14.8,12-26.5,17.6
		c0.1,0.2-0.8,0.5-1.2,0.5c0,0,0,0,0,0c-3.3,1.6-6.8,3-10.6,4.2c-4,1.3-8,2.1-11.9,2.6c0.4,0.5-0.4-0.5,0,0c-10.6,1.8-16.5,3-16.5,3
		s-0.3-0.1,0,0c3.4-0.1,7.3,1.8,18.1-0.1C37.7,108.7,48.3,106.2,67.6,96z M54.6,50.8c-4.1-0.4-6.9-3.8-6.5-8
		c0.4-4.2,3.7-7.1,7.8-6.9c4.1,0.3,7.1,4,6.6,8.3C62.1,48.4,58.8,51.2,54.6,50.8z"/>
	<path fill="#0085BC" d="M68.3,107.1c18.2-9.1,35.5-20.5,49.1-23c5-0.9,8,0.4,7.9-0.2c0.2-1.6,0.5-4.3,0.6-6
		c-2.5-0.4-5.2-0.6-8.2-0.3c-13.7,1.5-30.4,14.7-48.5,24.2c-16.7,8.8-26.9,11.8-36.9,13.8c-0.4,0-0.8,0-1.3,0.1
		c0.9,0.9,1.9,1.8,2.9,2.6C31.8,118.7,48.8,116.9,68.3,107.1z"/>
	<path fill="#9ED6C4" d="M27,103.5c6.3-1.7,11-3.8,15.1-6c0,0,1.7-0.4,1.1-1.5c-3.6-6.8-3.1-13.8,0.7-20.3c2.2-3.7,5-7,7.5-10.4
		c0.9-1.3,2.1-2.4,3.5-4.1c-3-1-5.5-1.6-7.9-2.7c-5.2-2.4-10.7-4.6-15.4-7.8c-4.2-2.8-6.8-6.9-7.3-12.2c-0.3-0.6-0.7-1.1-1-1.7
		c-0.1-0.2-0.5-0.2-1.1-0.5c0,2.8,0.5,5.2,1.5,7.4c-6.2,9-9.8,19.9-9.8,31.7c0,10.3,2.9,20,7.7,28.3c-6.2,1.5-10.9,2.5-13.1,2.6
		c-2.6,0.1-5.2,0.8-5.2,0.8s0.8,0.6,7.9,0.1C15,106.5,20.4,105.2,27,103.5z"/>
	<path fill="#FFFFFF" d="M62.6,44.2c0.5-4.3-2.5-8-6.6-8.3c-4.1-0.3-7.4,2.6-7.8,6.9c-0.4,4.2,2.3,7.6,6.5,8
		C58.8,51.2,62.1,48.4,62.6,44.2z"/>
</g>
</svg>
