<?xml version="1.0" encoding="iso-8859-1"?>
<!-- Generator: Adobe Illustrator 13.0.0, SVG Export Plug-In . SVG Version: 6.00 Build 14948)  -->
<!DOCTYPE svg PUBLIC "-//W3C//DTD SVG 1.1//EN" "http://www.w3.org/Graphics/SVG/1.1/DTD/svg11.dtd">
<svg version="1.1" id="Layer_1" xmlns="http://www.w3.org/2000/svg" xmlns:xlink="http://www.w3.org/1999/xlink" x="0px" y="0px"
	 width="100px" height="100px" viewBox="0 0 100 100" enable-background="new 0 0 100 100" xml:space="preserve">
<g>
	<g>
		<path fill="#3C71B6" d="M51.042,70.451l-0.054,0.04c0.039,0,0.075,0.003,0.111,0.005L51.042,70.451z"/>
		<path fill="#C9555E" d="M57.415,39.874c0.136,0.044,0.251,0.108,0.386,0.155l-6.759-20.798l-6.838,21.056
			c2.203-0.85,4.621-1.284,7.264-1.284C53.707,39.003,55.688,39.293,57.415,39.874z"/>
		<path fill="#3C71B6" d="M64.504,60.668L86.29,44.843H63.584l-4.588,3.78c-0.908-1.114-2.028-1.962-3.341-2.552
			c-1.312-0.586-2.75-0.88-4.288-0.88c-2.085,0-4.066,0.537-5.937,1.613c-1.874,1.08-3.333,2.619-4.374,4.624
			c-1.044,2.007-1.566,4.234-1.566,6.683c0,2.405,0.504,4.551,1.513,6.438c1.009,1.89,2.468,3.356,4.363,4.398
			c1.781,0.98,3.662,1.482,5.622,1.544l0.054-0.04l0.058,0.045c0.093,0.004,0.179,0.016,0.268,0.016c3.48,0,6.198-1.397,8.147-4.2
			l5.622,4.053c-1.377,1.902-3.197,3.433-5.458,4.585c-0.493,0.25-1.012,0.461-1.541,0.661l14.691,10.672L64.504,60.668z"/>
		<path fill="#C9555E" d="M35.331,67.581l-6.076,18.701l15.021-10.911c-1.134-0.437-2.221-0.938-3.197-1.588
			C38.646,72.152,36.751,70.065,35.331,67.581z"/>
		<path fill="#C9555E" d="M37.584,44.843H15.793l16.952,12.313c0.086-3.313,0.891-6.345,2.461-9.084
			C35.893,46.873,36.705,45.815,37.584,44.843z"/>
	</g>
	<path fill="#3C71B6" d="M40.839,67.086c1.062,1.575,2.578,2.799,4.556,3.671c1.981,0.869,4.077,1.302,6.269,1.302
		c3.634,0,6.474-1.164,8.516-3.501l3.008,2.489c0.2-0.198,0.465-0.357,0.662-0.568l-3.67-2.867
		c-2.042,2.338-4.882,3.504-8.516,3.504c-2.192,0-4.288-0.435-6.269-1.306c-1.978-0.869-3.494-2.096-4.556-3.671
		c-0.966-1.445-1.466-3.083-1.549-4.891c-0.003,0.157-0.032,0.308-0.032,0.467C39.258,63.721,39.787,65.511,40.839,67.086z"/>
	<path fill="#3C71B6" d="M42.43,42.923c2.525-1.424,5.422-2.138,8.683-2.138c2.028,0,3.83,0.262,5.396,0.787
		c1.57,0.527,2.9,1.186,3.999,1.985c0.522,0.36,1.065,0.876,1.624,1.47l0.543-0.449c-0.754-0.885-1.474-1.57-2.167-2.051
		c-1.099-0.799-2.429-1.457-3.999-1.983c-1.566-0.525-3.368-0.788-5.396-0.788c-3.261,0-6.158,0.713-8.683,2.139
		c-2.539,1.431-4.556,3.456-6.065,6.085c-1.513,2.632-2.264,5.554-2.264,8.77c0,0.184,0.021,0.364,0.025,0.547
		c0.071-3.024,0.805-5.788,2.239-8.288C37.874,46.381,39.891,44.352,42.43,42.923z"/>
</g>
</svg>
