<?xml version="1.0" encoding="utf-8"?>
<!-- Generator: Adobe Illustrator 18.1.0, SVG Export Plug-In . SVG Version: 6.00 Build 0)  -->
<svg version="1.0" id="Layer_1" xmlns="http://www.w3.org/2000/svg" xmlns:xlink="http://www.w3.org/1999/xlink" x="0px" y="0px"
	 viewBox="0 0 150 150" enable-background="new 0 0 150 150" xml:space="preserve">
<g>
	<g>
		<path fill="#00AFEF" d="M93.2,44.6l0-28h1.3c3.4,0,6.1-2.9,6.1-6.4c0-3.5-2.7-6.4-6.1-6.4H62c-3.3,0-6.1,2.9-6.1,6.4
			c0,3.5,2.7,6.4,6.1,6.4h0.9v27.9l0,0.1c0,0.1-0.4,1-1,2.5c-3.6,8.5-14.4,34.5-22,52.7l-0.9,2.3l2.4,0.5c3.8,0.8,7.1,2.7,9.6,5.5
			l0.3,0.4l0.5,0.2c6,2.3,9.3,7,10.9,11.9c2,1.5,3.8,3.2,5.2,5.3c-0.7-9.4-6-17.5-14.1-20.8c-2.5-2.7-5.6-4.6-9.1-5.8
			c7.5-18,17.6-42.3,21.1-50.5c1-2.3,1.1-2.5,1.1-2.5s0,0,0,0l0.3-0.8V12.5H62c-1.1,0-2-1-2-2.2c0-1.2,0.9-2.2,2-2.3h32.5
			c1.1,0,2,1,2,2.3c0,1.2-0.9,2.2-2,2.2h-5.4v32.9l0.4,1c0.8,1.8,9.8,23.4,17.9,42.8c1.3-0.6,2.5-1.1,3.8-1.5
			C104.3,71.1,94.5,47.4,93.2,44.6z"/>
		<path fill="#00AFEF" d="M87.3,113c-1.9,4.4-2.6,9.3-2,14.3H68.9c0.8,1.3,1.4,2.7,1.9,4.1h16.9c-0.9-3.1-1.5-6.4-1.5-9.8
			C86.2,118.6,86.6,115.7,87.3,113z"/>
	</g>
	<path fill="#A8CA43" d="M51.5,63.9C53.3,41.6,62.8,31,62.8,31s-14.5,3.3-24.1,12.8c-9.6,9.4,11.5,32.9,11.5,32.9L51.5,63.9z"/>
	<path fill="#A8CA43" d="M105.8,61.8C104,39.5,94.5,28.9,94.5,28.9s14.5,3.3,24.1,12.8c9.6,9.4-11.4,32.9-11.4,32.9L105.8,61.8z"/>
	<path fill="#00AFEF" d="M83.3,115.4c0,5-4.1,9.1-9.1,9.1c-5,0-9.1-4.1-9.1-9.1c0-5,4.1-9.1,9.1-9.1
		C79.3,106.3,83.3,110.3,83.3,115.4z"/>
	<circle fill="#00AFEF" cx="62.9" cy="94.5" r="5.2"/>
	<circle fill="#00AFEF" cx="84.8" cy="105.7" r="5.2"/>
	<circle fill="#00AFEF" cx="86" cy="88.3" r="5.2"/>
	<circle fill="#00AFEF" cx="63.9" cy="78.6" r="5.2"/>
	<path fill="#00AFEF" d="M100.7,75.5c0,2.8-2.3,5.2-5.2,5.2c-2.9,0-5.2-2.3-5.2-5.2c0-2.9,2.3-5.2,5.2-5.2
		C98.4,70.3,100.7,72.6,100.7,75.5z"/>
	<path fill="#A8CA43" d="M87.7,99.7c-7.2,9.5-9.8,25.5-7.6,42.4c24.5,0.1,41.6-16.6,47-23.7c6.3-8.3,9.5-18.2,9-28.7
		c-0.2-4.8-2-11.5-5.1-15.3c7.1,14.6-1.8,28-17.1,38.5c-11.8,8.1-22.6,15-28.6,26.8c3.4-13.4,12.2-21.6,24.2-32.3
		c9.3-8.4,15.5-14.9,19.2-25.2c3.6-9.9,3.7-24.2-8.2-32.9c4,8.5-1.5,17.6-7.9,24.6C104.1,83.1,94.9,90.2,87.7,99.7z"/>
	<path fill="#A8CA43" d="M65.8,99.7c7.2,9.5,9.8,25.5,7.6,42.4c-24.5,0.1-41.6-16.6-47-23.7c-6.3-8.3-9.5-18.2-9-28.7
		c0.2-4.8,2-11.5,5.1-15.3c-7.1,14.6,1.8,28,17.1,38.5c11.9,8.1,22.6,15,28.6,26.8C64.8,126.3,56,118,44.1,107.3
		c-9.3-8.4-15.5-14.9-19.2-25.2c-3.6-9.9-3.7-24.2,8.2-32.9c-4,8.5,1.5,17.6,7.9,24.6C49.4,83.1,58.5,90.2,65.8,99.7z"/>
</g>
</svg>
