<?xml version="1.0" encoding="utf-8"?>
<!-- Generator: Adobe Illustrator 16.0.0, SVG Export Plug-In . SVG Version: 6.00 Build 0)  -->
<!DOCTYPE svg PUBLIC "-//W3C//DTD SVG 1.1//EN" "http://www.w3.org/Graphics/SVG/1.1/DTD/svg11.dtd">
<svg version="1.1" id="Layer_1" xmlns="http://www.w3.org/2000/svg" xmlns:xlink="http://www.w3.org/1999/xlink" x="0px" y="0px"
	 width="100px" height="100px" viewBox="0 0 100 100" enable-background="new 0 0 100 100" xml:space="preserve">
<path fill="none" d="M33.12,43.147h-8.933h-8.933v-8.991v-8.99h8.933h8.933v8.99V43.147z"/>
<rect x="33.12" y="30.238" fill="none" width="17.865" height="17.981"/>
<g>
	<path fill="#F6921E" d="M29.185,23.639c12.534,6.219,20.313,17.855,21.226,29.72c0.908-11.865,8.689-23.501,21.223-29.72
		c3.494-1.733,7.1-2.917,10.699-3.582C74.264,11.701,62.943,6.503,50.41,6.503c-12.539,0-23.855,5.198-31.926,13.554
		C22.082,20.722,25.69,21.906,29.185,23.639z"/>
	<g>
		<path fill="#231F20" d="M78.846,20.16c-2.682,0.295-5.359,0.849-7.965,1.691c-2.609,0.85-5.145,1.979-7.537,3.384
			c-2.395,1.404-4.648,3.075-6.713,4.958c-2.064,1.884-3.951,3.966-5.645,6.199c-0.197,0.253-0.389,0.52-0.576,0.781
			c-0.193-0.261-0.386-0.527-0.579-0.781c-1.695-2.233-3.581-4.315-5.649-6.199c-2.065-1.883-4.315-3.555-6.71-4.958
			c-2.392-1.404-4.926-2.534-7.532-3.384c-2.61-0.842-5.286-1.396-7.97-1.691c-5.375-0.589-10.741-0.131-15.902,0.945
			c5.251-0.458,10.558-0.246,15.585,0.925c2.514,0.582,4.95,1.404,7.255,2.472c2.303,1.062,4.471,2.37,6.463,3.891
			c3.992,3.034,7.243,6.896,9.744,11.177c1.249,2.137,2.319,4.377,3.203,6.678c0.444,1.158,0.839,2.322,1.185,3.494
			c0.169,0.582,0.329,1.17,0.472,1.754c0.072,0.287,0.137,0.574,0.2,0.863l0.085,0.416c0.023,0.137,0.049,0.273,0.064,0.377
			l0.084-0.02l0.082,0.02c0.014-0.104,0.039-0.24,0.063-0.377l0.086-0.416c0.063-0.289,0.127-0.576,0.201-0.863
			c0.143-0.584,0.299-1.172,0.473-1.754c0.346-1.172,0.738-2.335,1.184-3.494c0.885-2.301,1.953-4.541,3.205-6.678
			c2.492-4.281,5.754-8.144,9.738-11.177c1.994-1.521,4.166-2.829,6.471-3.891c2.305-1.068,4.734-1.891,7.25-2.472
			c5.033-1.171,10.332-1.384,15.588-0.925C89.59,20.029,84.215,19.571,78.846,20.16z"/>
		<path fill="#231F20" d="M62.004,15.735c0,0-4.629,6.843-8.283,12.227c0.127,0.062,0.248,0.13,0.359,0.212
			c17.516-17.548,29.451-10.932,29.451-10.932C76.955,12.543,62.004,15.735,62.004,15.735z"/>
		<path fill="#231F20" d="M37.929,15.735c0,0,4.628,6.843,8.279,12.227c-0.123,0.062-0.241,0.13-0.357,0.212
			C28.335,10.626,16.4,17.242,16.4,17.242C22.974,12.543,37.929,15.735,37.929,15.735z"/>
		<g>
			<path fill="#231F20" d="M72.039,41.591c3.074,0,5.568-2.493,5.568-5.561c0-3.075-2.494-5.562-5.568-5.562
				c-3.068,0-5.563,2.486-5.563,5.562C66.477,39.098,68.971,41.591,72.039,41.591z M70.387,34.372c0.912,0,1.652,0.747,1.652,1.658
				s-0.74,1.65-1.652,1.65c-0.91,0-1.654-0.74-1.654-1.65S69.477,34.372,70.387,34.372z"/>
			<path fill="#231F20" d="M74.654,26.016c-0.932,0.342-1.85,0.719-2.742,1.137c-0.322,0.144-0.637,0.301-0.957,0.458
				c0.357-0.047,0.721-0.075,1.084-0.075c4.691,0,8.492,3.801,8.492,8.494c0,4.691-3.801,8.493-8.492,8.493
				c-4.686,0-8.49-3.801-8.49-8.493c0-1.671,0.482-3.219,1.311-4.535c-1.047,0.836-2.047,1.726-2.992,2.671
				c-0.109,0.603-0.172,1.226-0.172,1.863c0,5.712,4.631,10.342,10.344,10.342c5.715,0,10.344-4.63,10.344-10.342
				C82.383,31.221,79.1,27.181,74.654,26.016z"/>
		</g>
		<g>
			<path fill="#231F20" d="M38.991,34.208c0.128,0.589,0.194,1.199,0.194,1.822c0,4.691-3.799,8.493-8.489,8.493
				c-4.688,0-8.49-3.801-8.49-8.493c0-4.391,3.332-8,7.601-8.445c-0.296-0.151-0.596-0.294-0.898-0.431
				c-0.616-0.288-1.239-0.548-1.87-0.802c-3.906,1.479-6.685,5.253-6.685,9.678c0,5.712,4.628,10.342,10.343,10.342
				c5.578,0,10.123-4.418,10.333-9.945C40.381,35.66,39.701,34.92,38.991,34.208z"/>
			<path fill="#231F20" d="M25.135,36.03c0,3.068,2.49,5.561,5.562,5.561c3.071,0,5.563-2.493,5.563-5.561
				c0-3.075-2.492-5.562-5.563-5.562C27.625,30.468,25.135,32.955,25.135,36.03z M32.349,34.372c0.914,0,1.655,0.747,1.655,1.658
				s-0.742,1.65-1.655,1.65c-0.912,0-1.652-0.74-1.652-1.65S31.438,34.372,32.349,34.372z"/>
		</g>
	</g>
	<path fill="#F6921E" d="M53.313,64.379c-1.676-3.383-2.623-6.953-2.902-10.563l2.643,28.721l-2.643,4.629l-2.649-4.629
		l2.649-28.721c-0.284,3.609-1.228,7.18-2.902,10.563c-4.786,9.637-14.391,15.506-25.229,16.637
		C29.936,87.297,39.73,91.07,50.41,91.07c10.676,0,20.471-3.773,28.127-10.055C67.703,79.885,58.094,74.016,53.313,64.379z"/>
</g>
</svg>
