<?xml version="1.0" encoding="utf-8"?>
<!-- Generator: Adobe Illustrator 18.1.0, SVG Export Plug-In . SVG Version: 6.00 Build 0)  -->
<svg version="1.1" id="Layer_1" xmlns="http://www.w3.org/2000/svg" xmlns:xlink="http://www.w3.org/1999/xlink" x="0px" y="0px"
	 viewBox="0 0 1500 1500" enable-background="new 0 0 1500 1500" xml:space="preserve">
<g>
	<path fill="#9E6746" d="M1064.5,608H467.8c59.3,234-145.4,365.4-145.4,365.4l54.5-1l-48,109l133-110l615.9-3l136.5,112.7
		L1164.7,968l73.5,1.1C993.6,849,1064.5,608,1064.5,608z"/>
	<path fill="#BC9178" d="M459.1,569.5l614,2.2c17.4-104.2,80.3-121.6,80.3-121.6c-151.2-22.4-385.2-47.7-385.2-47.7
		C662,416,376.7,458.7,376.7,458.7C450.5,510.8,459.1,569.5,459.1,569.5z"/>
	<path fill="#BC9178" d="M1086.8,639.5c-59.8,243.4,274.8,359.8,274.8,359.8c-120.2-91.4-206.1-165.2-206.1-292
		c0-126.9,99.6-185.9,199.2-141.6c99.6,44.2,34.3,115-10.3,115c-72.1,0-68.7-62-68.7-62c-68.7,64.9,119.1,188.4,188.9,29.5
		C1533.3,492,1146.9,394.6,1086.8,639.5z"/>
	<path fill="#BC9178" d="M166.2,999.3c0,0,334.6-116.4,274.8-359.8C380.9,394.6-5.5,492,63.2,648.3
		c69.8,158.9,257.6,35.4,188.9-29.5c0,0,3.4,62-68.7,62c-44.7,0-109.9-70.8-10.3-115c99.6-44.2,199.2,14.7,199.2,141.6
		C372.3,834.1,286.5,907.9,166.2,999.3z"/>
</g>
</svg>
