<?xml version="1.0" encoding="utf-8"?>
<!-- Generator: Adobe Illustrator 18.1.0, SVG Export Plug-In . SVG Version: 6.00 Build 0)  -->
<svg version="1.1" id="Layer_1" xmlns="http://www.w3.org/2000/svg" xmlns:xlink="http://www.w3.org/1999/xlink" x="0px" y="0px"
	 viewBox="0 0 150 150" enable-background="new 0 0 150 150" xml:space="preserve">
<g>
	<path fill="#0087CB" d="M122.8,27.8l-4.3,5.3c2.7,4.3,4.7,9.1,6,14.3c2.8,11.6,1.2,23.3-3.7,33.3c-0.3,0.5-5,7.7-6.9,10.5l0,0
		c-6.5,7.7-15.4,13.5-26,16c-26.6,6.5-53.5-9.9-59.9-36.5c-6.4-26.6,9.9-53.5,36.5-59.9c19.1-4.6,38.3,2.5,50,16.8l4.8-4.4
		C108.7,10.8,93.1,2.9,75.6,2.9C44,2.9,18.3,28.5,18.3,60.1c0,31.6,57.2,87.4,57.2,87.4s26.4-25.7,43.3-52.1c0,0,5.7-9.7,5.8-9.7
		c0.4-0.8,0.9-1.6,1.3-2.4c4.2-8.3,6.9-16.3,6.9-23.1C132.8,48.1,129.1,37,122.8,27.8z"/>
	<path fill="#857E6C" d="M66.6,19.7c-21.7,5.2-35,27.1-29.7,48.8c5.3,21.7,27.1,35,48.8,29.8c21.7-5.3,35-27.1,29.8-48.8
		c-0.8-3.1-2-6.1-3.4-8.8l-7.5,9v25.4c0,2.5-2,4.6-4.6,4.6H79.9l-1.2,1.5l-2.1,2.6l-2.1-2.6l-1.1-1.4H52.9c-2.5,0-4.6-2-4.6-4.6
		V45.2c0-2.5,2.1-4.6,4.6-4.6h14.5v-1.1c0-3.7,3-6.6,6.6-6.6h5.9c3.7,0,6.6,3,6.6,6.6v1.1h13.5c0,0,0.1,0,0.1,0l7.5-6.8
		C98.1,21.9,82.4,15.9,66.6,19.7z"/>
	<path fill="#857E6C" d="M79.9,35.3H74c-2.3,0-4.2,1.9-4.2,4.2v1.1h14.3v-1.1C84.1,37.2,82.2,35.3,79.9,35.3z"/>
	<path fill="#0087CB" d="M76.4,44.3c-4.1,0-7.4,3.3-7.4,7.4s3.3,7.4,7.4,7.4c4.1,0,7.4-3.3,7.4-7.4S80.5,44.3,76.4,44.3z"/>
	<path fill="#FFFFFF" d="M122.6,23.7L76.6,79.4L55,51.9L77.5,65L122.6,23.7z"/>
	<polygon fill="#0087CB" points="77.5,65 55,51.9 76.6,79.4 122.6,23.7 	"/>
</g>
</svg>
