<?xml version="1.0" encoding="utf-8"?>
<!-- Generator: Adobe Illustrator 18.1.0, SVG Export Plug-In . SVG Version: 6.00 Build 0)  -->
<svg version="1.1" id="Layer_1" xmlns="http://www.w3.org/2000/svg" xmlns:xlink="http://www.w3.org/1999/xlink" x="0px" y="0px"
	 viewBox="0 0 2000 2000" enable-background="new 0 0 2000 2000" xml:space="preserve">
<g>
	<path fill="none" d="M1465.8,685.3l-2.5-9.5l-333.8,754.6c-49.4-67.6-22.1-203.7-22.1-203.7l330.3-649.6l-2.3-8.9L1114,1204.7
		l-637.9-0.8c0,0-18.3,45.5-4.1,104.6c0.8-1.6,1.3-2.4,1.3-2.4l19.5,54.6c11.9,21,28.8,42.6,52.6,63.5l580.4,28.3L1465.8,685.3z"/>
	<path fill="#E2E3E4" d="M1129.5,1430.3l333.8-754.6l-25.6-98.7l-330.3,649.6C1107.4,1226.7,1080.1,1362.8,1129.5,1430.3z"/>
	<path fill="#41BB7D" d="M1855.1,605.4c-33.8,17.1-31.8,51.7-31.8,51.7c21.1,140.4-48.5,272.2-48.5,272.2
		c69.4-181,3.1-394.9,3.1-394.9c-37.7,3.7-35.6,72.5-35.6,72.5c54.6,178,6.7,319,6.7,319c35-258.3-76.1-429.1-76.1-429.1
		c-51.3,17.8-33.1,97.6-33.1,97.6c77.7,170,47.9,360.8,47.9,360.8l-3.1-1c7.1-174.8-52.2-308-52.2-308
		c-103.9,66.8,4.8,229.8-25,329.4c-29.8,99.6-62.8,85.8-62.8,85.8s34.4-70.6,24.3-131.5c-9.5-57.2-48.9-97-48.9-97
		s-31,143.1-57.7,220c-26.7,77,8.4,181.8,8.4,181.8s-4.7,35.1-39.9,91.9c-91.4,98.4-221.9,203.9-377.8,231.3
		c-310.9,54.6-323.5-63-323.5-63l-22.2-3.5l432.7,25.2l359.7-814.7l0.3-0.1c0,0,222.9-431.5-373.7-414.7
		c-112.1,3.2-208.1,25.2-290,58.8c-115.1,41.1-248.7,110.4-386.9,227C59.3,902.3,94.5,1394.9,110,1387
		c33.8-17.1,31.8-51.7,31.8-51.7c-21.1-140.4,48.5-272.2,48.5-272.2c-69.4,181-3.1,394.9-3.1,394.9c37.7-3.8,35.6-72.4,35.6-72.4
		c-54.6-178-6.8-319.1-6.8-319.1c-35,258.3,76.1,429.1,76.1,429.1c51.3-17.8,33.1-97.6,33.1-97.6c-77.7-170-47.9-360.8-47.9-360.8
		l3.2,1.1c-7.1,174.8,52.2,307.9,52.2,307.9c103.9-66.8-4.8-229.8,25-329.3c29.8-99.6,62.8-85.8,62.8-85.8s-34.4,70.6-24.3,131.5
		c9.5,57.2,48.9,97,48.9,97s31-143.1,57.7-220c26.7-77-8.4-181.8-8.4-181.8s4.8-35.1,39.9-92c91.4-98.4,221.9-203.9,377.8-231.3
		c260.1-45.7,316,60,327.3,95.7l-434.5,44.1l-364.8,627.5c-22.3,59.5-11.9,115.6,8.9,161.8c-38.4,113.5-67.2,354.6,389.9,341.7
		c112.1-3.2,208.1-25.2,290-58.8c115.1-41.1,248.7-110.4,387-227C1905.8,1090.2,1870.6,597.6,1855.1,605.4z M492.8,1360.7
		l-19.5-54.6c0,0-0.5,0.9-1.3,2.4c-14.2-59.1,4.1-104.6,4.1-104.6l637.9,0.8l321.3-636.5l2.3,8.9l25.6,98.7l2.5,9.5l-340,767.2
		l-580.4-28.3C521.6,1403.2,504.7,1381.7,492.8,1360.7z"/>
</g>
</svg>
