<?xml version="1.0" encoding="utf-8"?>
<!-- Generator: Adobe Illustrator 18.1.0, SVG Export Plug-In . SVG Version: 6.00 Build 0)  -->
<svg version="1.1" id="Layer_1" xmlns="http://www.w3.org/2000/svg" xmlns:xlink="http://www.w3.org/1999/xlink" x="0px" y="0px"
	 viewBox="0 0 150 150" enable-background="new 0 0 150 150" xml:space="preserve">
<g>
	<polygon fill="#971B1F" points="93.7,26.6 84.4,26.6 87.9,18.3 	"/>
	<polygon fill="#D5242A" points="86.3,17.3 82.7,25.9 76.9,17.3 	"/>
	<polygon fill="#971B1F" points="80.9,26.6 69.8,26.6 75,17.7 	"/>
	<polygon fill="#971B1F" points="73.1,17.3 68.2,25.7 63.6,17.3 	"/>
	<polygon fill="#D5242A" points="62,18.2 66.6,26.6 56.2,26.6 	"/>
	<polygon fill="#D5242A" points="56.2,28.5 67.4,28.5 73.2,44.8 	"/>
	<polygon fill="#D5242A" points="69.3,28.5 81.7,28.5 75,44.8 	"/>
	<polygon fill="#971B1F" points="76.6,44.9 83.7,28.5 93.7,28.5 	"/>
	<path fill="none" d="M48.2,125.1c-0.1,0.9-0.2,1.8-0.2,2.7c0,3.3,1.1,6,3.3,8.1c2.2,2.1,5.8,3.2,11,3.2c2.5,0,5.2-0.4,8.2-1.2
		c-4.7-2-9.5-4.5-14.5-7.5C53.3,128.8,50.8,127,48.2,125.1z"/>
	<path fill="none" d="M93.2,105.3c-0.2-0.4-0.5-0.7-0.8-1.1c-2,2.2-4.1,4.2-6.2,6c-2.3,2-4.6,3.6-6.9,4.8c-0.3,0.2-0.6,0.4-1,0.5
		c-1.2,0.6-2.3,1.1-3.4,1.4c-1.1-0.3-2.2-0.8-3.4-1.4c-0.3-0.2-0.6-0.4-0.9-0.5c-2.3-1.3-4.6-2.9-6.9-4.8c-2.1-1.8-4.2-3.8-6.2-6
		c-0.2,0.4-0.5,0.7-0.8,1.1c-2.6,4-4.8,8-6.4,12c-0.6,1.6-1.1,3.1-1.5,4.5c2.6,2,5.2,3.9,7.9,5.6c5.7,3.7,11.2,6.5,16.7,8.6
		c0.6,0.2,1.1,0.4,1.6,0.5c0.5-0.2,1-0.3,1.6-0.5c5.4-2.1,11-4.9,16.7-8.6c2.6-1.7,5.3-3.6,7.9-5.6c-0.4-1.4-0.9-2.9-1.5-4.5
		C98,113.3,95.9,109.3,93.2,105.3z"/>
	<path fill="none" d="M69.2,110.7c2.1,1.5,4,2.5,5.8,3.1c1.8-0.6,3.8-1.6,5.8-3.1c3.5-2.5,6.8-5.5,9.9-9c-2-2.8-4.1-5.6-6.5-8.2
		c-3-3.4-6.1-6.5-9.2-9.2c-3.2,2.7-6.2,5.8-9.2,9.2c-2.4,2.7-4.5,5.4-6.5,8.2C62.3,105.2,65.6,108.2,69.2,110.7z"/>
	<path fill="none" d="M88.4,91.6c1.9,2,3.7,4.1,5.4,6.2c2-2.6,3.7-5.3,5.2-8c2.2-4,3.3-7.4,3.3-10.3c0-2.2-0.6-3.8-1.7-4.7
		c-1.1-1-2.7-1.5-4.7-1.5c-2.7,0-5.8,0.9-9.2,2.7c-2.9,1.5-5.9,3.5-8.9,5.9C81.5,84.8,85,88,88.4,91.6z"/>
	<path fill="none" d="M54,73.3c-2,0-3.5,0.5-4.6,1.5c-1.1,1-1.7,2.6-1.7,4.7c0,2.9,1.1,6.3,3.3,10.3c1.5,2.7,3.3,5.4,5.2,8
		c1.7-2.1,3.5-4.2,5.4-6.2c3.4-3.6,6.9-6.8,10.6-9.7c-3-2.4-5.9-4.4-8.9-5.9C59.8,74.2,56.7,73.3,54,73.3z"/>
	<path fill="none" d="M98.8,135.9c2.2-2.1,3.3-4.8,3.3-8.1c0-0.9-0.1-1.8-0.2-2.7c-2.6,1.9-5.2,3.7-7.8,5.3c-4.9,3-9.7,5.5-14.4,7.5
		c2.9,0.7,5.7,1.2,8.2,1.2C92.9,139.1,96.6,138,98.8,135.9z"/>
	<path fill="none" d="M58.2,37.4c-3.9-1.9-8.1-3.4-12.5-4.7c-4.4-1.2-8.7-1.9-12.8-1.9c-3,0-5.8,0.4-8.5,1.2c-2.6,0.8-5,2.2-6.9,4.1
		c-2,1.9-3.5,4.4-4.7,7.5c-1.1,3.1-1.7,7-1.7,11.6c0,7.5,1.3,14.7,4,21.7c2.6,7,6.1,13.7,10.4,19.9c4.3,6.2,9.1,11.9,14.6,17.1
		c1.3,1.2,2.6,2.4,3.9,3.6c0-0.1,0.1-0.2,0.1-0.3c1.8-4.3,4.1-8.6,7.1-13c0.9-1.4,1.9-2.7,2.9-4.1c-1.7-2.1-3.3-4.2-4.7-6.4
		c-1.9-2.9-3.5-5.8-4.6-8.7c-1.2-2.8-1.8-5.4-1.8-7.5c0-2.8,0.8-4.8,2.3-6c1.5-1.2,3.5-1.9,6.1-1.9c3.8,0,7.9,1,12.1,3
		c3.8,1.8,7.7,4.1,11.5,6.9c3.8-2.8,7.7-5.1,11.5-6.9c4.2-2,8.3-3,12.1-3c2.6,0,4.6,0.6,6.1,1.9c1.5,1.2,2.2,3.3,2.2,6
		c0,2.2-0.6,4.7-1.8,7.5c-1.2,2.9-2.7,5.8-4.6,8.7c-1.4,2.2-3,4.3-4.7,6.4c1,1.3,2,2.7,2.9,4.1c3,4.4,5.4,8.7,7.1,13
		c0,0.1,0.1,0.2,0.1,0.3c1.3-1.2,2.6-2.4,3.9-3.6c5.4-5.2,10.3-10.9,14.6-17.1c4.3-6.2,7.8-12.8,10.4-19.9c2.6-7,4-14.3,4-21.7
		c0-4.7-0.6-8.5-1.7-11.6c-1.1-3.1-2.7-5.6-4.7-7.5c-2-1.9-4.3-3.3-6.9-4.1c-2.6-0.8-5.5-1.2-8.5-1.2c-4.1,0-8.4,0.6-12.8,1.9
		c-4.4,1.2-8.6,2.8-12.5,4.7c-3.9,1.9-7.4,3.8-10.4,5.9c-2.1,1.4-3.7,2.8-5,4c-0.5,0.5-1,1-1.4,1.4c-0.4-0.5-0.9-0.9-1.4-1.4
		c-1.3-1.2-2.9-2.6-5-4C65.6,41.2,62.2,39.3,58.2,37.4z"/>
	<path fill="#D5242A" d="M84.2,93.5c2.4,2.7,4.5,5.4,6.5,8.2c0.1-0.1,0.2-0.3,0.4-0.4c1-1.1,1.9-2.3,2.8-3.5
		c-1.7-2.1-3.5-4.2-5.4-6.2c-3.4-3.6-6.9-6.8-10.6-9.7c-0.6,0.4-1.1,0.9-1.7,1.4c-0.4,0.3-0.8,0.7-1.2,1C78.2,87,81.2,90,84.2,93.5z
		"/>
	<path fill="#D5242A" d="M102,127.8c0,3.3-1.1,6-3.3,8.1c-2.2,2.1-5.8,3.2-11,3.2c-2.5,0-5.2-0.4-8.2-1.2c-1.4,0.6-2.8,1.1-4.2,1.6
		c-0.1,0-0.3,0.1-0.4,0.1c5.9,2.1,11.2,3.1,15.8,3.1c6.3,0,10.8-1.3,13.6-3.8c2.7-2.5,4.1-5.8,4.1-9.9c0-2.5-0.5-5.3-1.4-8.2
		c-1.8,1.4-3.5,2.8-5.3,4.1C101.9,126,102,126.9,102,127.8z"/>
	<path fill="#D5242A" d="M98.8,104.4c-0.9-1.4-1.9-2.7-2.9-4.1c-0.6,0.8-1.2,1.5-1.9,2.3c-0.5,0.5-1,1-1.5,1.6
		c0.2,0.4,0.5,0.7,0.8,1.1c2.6,4,4.8,8,6.4,12c0.7,1.6,1.1,3.1,1.5,4.5c1.6-1.3,3.3-2.6,4.9-4c0-0.1-0.1-0.2-0.1-0.3
		C104.1,113.1,101.8,108.8,98.8,104.4z"/>
	<path fill="#D5242A" d="M51.4,69.9c-2.6,0-4.6,0.6-6.1,1.9C43.8,73,43,75,43,77.8c0,2.2,0.6,4.7,1.8,7.5c1.2,2.9,2.7,5.8,4.6,8.7
		c1.4,2.2,3,4.3,4.7,6.4c0.6-0.8,1.3-1.7,2-2.5c-2-2.6-3.7-5.3-5.2-8c-2.2-4-3.3-7.4-3.3-10.3c0-2.2,0.6-3.8,1.7-4.7
		c1.1-1,2.7-1.5,4.6-1.5c2.7,0,5.8,0.9,9.3,2.7c2.9,1.5,5.9,3.5,8.9,5.9c0.5-0.4,1.1-0.9,1.6-1.3c0.4-0.3,0.8-0.6,1.2-0.9
		c-3.8-2.8-7.7-5.1-11.5-6.9C59.3,70.8,55.2,69.9,51.4,69.9z"/>
	<path fill="#D5242A" d="M40.1,114.1c-5.4-5.2-10.3-10.9-14.6-17.1c-4.3-6.2-7.8-12.8-10.4-19.9c-2.6-7-4-14.3-4-21.7
		c0-4.7,0.6-8.5,1.7-11.6c1.1-3.1,2.7-5.6,4.7-7.5c1.9-1.9,4.3-3.3,6.9-4.1c2.6-0.8,5.5-1.2,8.5-1.2c4.1,0,8.4,0.6,12.8,1.9
		c4.4,1.2,8.6,2.8,12.5,4.7c3.9,1.9,7.4,3.8,10.4,5.9c2.1,1.4,3.7,2.8,5,4c0-0.1,0-0.2,0-0.3c0-0.6,0.5-1.4,1.4-2.4
		c-0.7-0.8-1.7-1.7-3-2.7c-3-2.2-6.7-4.5-11.3-6.7c-4.6-2.3-9.6-4.2-15.1-5.9c-5.5-1.7-10.8-2.5-16-2.5c-3.3,0-6.4,0.4-9.4,1.3
		c-3,0.9-5.5,2.4-7.7,4.5c-2.2,2.1-4,4.9-5.3,8.3c-1.3,3.4-2,7.7-2,12.7c0,8,1.4,15.7,4.3,23.2c2.9,7.5,6.7,14.5,11.5,21.1
		c4.8,6.6,10.2,12.6,16.2,18.2c1.8,1.7,3.7,3.2,5.5,4.8c0.3-1.1,0.7-2.1,1.2-3.2C42.7,116.5,41.4,115.3,40.1,114.1z"/>
	<path fill="#D5242A" d="M63.7,110.1c2.3,2,4.6,3.6,6.9,4.8c0.1-0.2,0.2-0.3,0.4-0.4c1.3,0,2.6-0.3,4-0.8c-1.8-0.6-3.8-1.6-5.8-3.1
		c-3.5-2.5-6.8-5.5-9.9-9c-0.6,0.8-1.2,1.6-1.8,2.5C59.6,106.3,61.6,108.3,63.7,110.1z"/>
	<path fill="#D5242A" d="M56.8,127.4c-2.6-1.7-5.3-3.6-7.9-5.6c-0.3,1.2-0.6,2.3-0.7,3.4c2.6,1.9,5.2,3.7,7.8,5.3
		c4.9,3,9.7,5.5,14.5,7.5c1.5-0.4,3-0.8,4.6-1.4c-0.5-0.2-1-0.3-1.6-0.5C68,133.9,62.4,131.1,56.8,127.4z"/>
	<path fill="#971B1F" d="M142.7,41c-1.3-3.4-3.1-6.2-5.3-8.3c-2.2-2.1-4.8-3.6-7.7-4.5c-3-0.9-6.1-1.3-9.4-1.3
		c-5.2,0-10.5,0.8-16,2.5C98.9,31,93.9,33,89.3,35.2C84.7,37.5,81,39.8,78,42c-1.3,1-2.3,1.9-3,2.7c-0.9,1-1.4,1.8-1.4,2.4
		c0,0.1,0,0.2,0,0.3c0.5,0.5,1,1,1.4,1.4c0.4-0.5,0.8-0.9,1.4-1.4c1.3-1.2,2.9-2.6,5-4c3-2.1,6.5-4,10.4-5.9
		c3.9-1.9,8.1-3.4,12.5-4.7c4.4-1.2,8.7-1.9,12.8-1.9c3,0,5.8,0.4,8.5,1.2c2.7,0.8,5,2.2,6.9,4.1c2,1.9,3.5,4.4,4.7,7.5
		c1.1,3.1,1.7,7,1.7,11.6c0,7.5-1.3,14.7-4,21.7c-2.6,7-6.1,13.7-10.4,19.9c-4.3,6.2-9.1,11.9-14.6,17.1c-1.3,1.2-2.6,2.4-3.9,3.6
		c-1.6,1.4-3.2,2.7-4.9,4c-2.6,2-5.2,3.9-7.9,5.6c-5.7,3.7-11.2,6.5-16.7,8.6c-0.5,0.2-1.1,0.4-1.6,0.5c-1.6,0.6-3.1,1-4.6,1.4
		c-3,0.7-5.7,1.2-8.2,1.2c-5.2,0-8.8-1.1-11-3.2c-2.2-2.1-3.3-4.8-3.3-8.1c0-0.9,0.1-1.8,0.2-2.7c0.1-1.1,0.4-2.2,0.7-3.4
		c0.4-1.4,0.9-2.9,1.5-4.5c1.6-3.9,3.7-7.9,6.4-12c0.2-0.4,0.5-0.7,0.8-1.1c0.6-0.8,1.2-1.7,1.8-2.5c2-2.8,4.1-5.6,6.5-8.2
		c3-3.4,6.1-6.5,9.2-9.2c0.4-0.3,0.8-0.7,1.2-1c0.6-0.5,1.1-0.9,1.7-1.4c3-2.4,6-4.4,8.9-5.9c3.5-1.8,6.5-2.7,9.2-2.7
		c2,0,3.5,0.5,4.7,1.5c1.1,1,1.7,2.6,1.7,4.7c0,2.9-1.1,6.3-3.3,10.3c-1.5,2.7-3.3,5.4-5.2,8c-0.9,1.2-1.8,2.3-2.8,3.5
		c-0.1,0.1-0.2,0.3-0.4,0.4c-3.1,3.5-6.3,6.5-9.9,9c-2.1,1.5-4,2.5-5.8,3.1c-1.4,0.5-2.8,0.8-4,0.8c-0.1,0.1-0.3,0.2-0.4,0.4
		c0.3,0.2,0.6,0.4,0.9,0.5c1.2,0.6,2.3,1.1,3.4,1.4c1.1-0.3,2.2-0.8,3.4-1.4c0.3-0.2,0.6-0.4,1-0.5c2.3-1.3,4.6-2.9,6.9-4.8
		c2.1-1.8,4.2-3.8,6.2-6c0.5-0.5,1-1,1.5-1.6c0.7-0.7,1.2-1.5,1.9-2.3c1.7-2.1,3.3-4.2,4.7-6.4c1.9-2.9,3.5-5.8,4.6-8.7
		c1.2-2.8,1.8-5.4,1.8-7.5c0-2.8-0.8-4.8-2.2-6c-1.5-1.2-3.5-1.9-6.1-1.9c-3.8,0-7.9,1-12.1,3c-3.8,1.8-7.7,4.1-11.5,6.9
		c-0.4,0.3-0.8,0.6-1.2,0.9c-0.6,0.4-1.1,0.9-1.6,1.3c-3.7,2.9-7.2,6.1-10.6,9.7c-1.9,2-3.7,4.1-5.4,6.2c-0.7,0.8-1.3,1.7-2,2.5
		c-1,1.3-2,2.7-2.9,4.1c-3,4.4-5.4,8.7-7.1,13c0,0.1-0.1,0.2-0.1,0.3c-0.4,1.1-0.8,2.2-1.2,3.2c-0.9,2.9-1.4,5.7-1.4,8.2
		c0,4,1.4,7.3,4.1,9.9c2.8,2.5,7.3,3.8,13.6,3.8c4.7,0,9.9-1.1,15.8-3.1c0.1,0,0.3-0.1,0.4-0.1c1.4-0.5,2.8-1.1,4.2-1.6
		c4.7-2,9.5-4.5,14.4-7.5c2.6-1.6,5.2-3.4,7.8-5.3c1.8-1.3,3.6-2.7,5.3-4.1c1.8-1.5,3.7-3.1,5.5-4.8c6.1-5.5,11.5-11.6,16.2-18.2
		c4.8-6.6,8.6-13.6,11.5-21.1c2.9-7.5,4.4-15.2,4.4-23.2C144.7,48.6,144.1,44.4,142.7,41z"/>
</g>
</svg>
