<?xml version="1.0" encoding="utf-8"?>
<!-- Generator: Adobe Illustrator 16.0.0, SVG Export Plug-In . SVG Version: 6.00 Build 0)  -->
<!DOCTYPE svg PUBLIC "-//W3C//DTD SVG 1.1//EN" "http://www.w3.org/Graphics/SVG/1.1/DTD/svg11.dtd">
<svg version="1.1" id="Layer_1" xmlns="http://www.w3.org/2000/svg" xmlns:xlink="http://www.w3.org/1999/xlink" x="0px" y="0px"
	 width="100px" height="100px" viewBox="0 0 100 100" enable-background="new 0 0 100 100" xml:space="preserve">
<g>
	<path fill="none" d="M76.735,70.61c3.521,0.167,6.614-0.29,9.255-1.011v-0.845c-2.172,0.564-4.715,0.915-7.636,0.845
		c-10.137-0.242-21.437-5.521-21.437-5.521S71.397,38.266,78.84,39.493c2.733,0.45,5.106,1.892,7.15,3.808V14.329H11.417V61.51
		c2.585-2.045,7.117-4.283,14.817-4.651C42.782,56.069,61.206,69.868,76.735,70.61z M56.223,45.588
		c4.483,0.262,7.866,5.688,7.866,5.688l-7.953,12.449c-9.773-4.092-15.364-5.428-15.364-5.428S51.742,45.324,56.223,45.588z
		 M40.291,49.789c2.444,0.025,4.958,2.813,4.958,2.813l-5.209,5.441c-6.618-2.014-9.236-1.83-9.236-1.83
		S37.845,49.763,40.291,49.789z"/>
	<path fill="none" d="M30.488,71.03c-7.31-5.629-14.868-5.918-19.071-5.499v0.804c1.239-0.19,2.719-0.288,4.262-0.078
		c3.652,0.497,9.815,0.819,17.837,9.632c2.697,2.961,6.154,8.097,10.076,13.012h3.619C40.856,82.604,35.62,74.982,30.488,71.03z"/>
	<path fill="none" d="M71.518,85.501c-8.213-2.568-14.833-9.989-28.726-18.547c-11.832-7.284-21.994-5.906-25.533-5.305
		c-2.136,0.362-4.215,1.133-5.841,1.854v0.821c4.095-1.771,11.71-3.795,21.471-0.55c14.96,4.97,20.327,17.047,32.865,23.3
		c1.491,0.744,2.923,1.342,4.292,1.826H85.99v-3.064C82.843,86.916,78.037,87.538,71.518,85.501z"/>
	<path fill="#4DA3DA" d="M32.888,63.774c-9.761-3.245-17.375-1.222-21.471,0.55v1.207c4.203-0.419,11.761-0.13,19.071,5.499
		c5.132,3.952,10.368,11.574,16.723,17.87h22.834c-1.369-0.484-2.801-1.082-4.292-1.826C53.215,80.821,47.848,68.744,32.888,63.774z
		"/>
	<path fill="#81A33E" d="M76.735,70.61c-15.529-0.742-33.953-14.541-50.501-13.752c-7.7,0.368-12.231,2.606-14.817,4.651v1.993
		c1.626-0.721,3.705-1.491,5.841-1.854c3.539-0.602,13.702-1.979,25.533,5.305c13.893,8.558,20.513,15.979,28.726,18.547
		c6.52,2.037,11.325,1.415,14.473,0.335V69.6C83.35,70.32,80.257,70.777,76.735,70.61z"/>
	<path fill="#53672E" d="M56.136,63.725l7.953-12.449c0,0-3.383-5.426-7.866-5.688c-4.48-0.264-15.451,12.709-15.451,12.709
		S46.363,59.633,56.136,63.725z"/>
	<path fill="#53672E" d="M40.04,58.044l5.209-5.441c0,0-2.514-2.788-4.958-2.813c-2.446-0.026-9.487,6.425-9.487,6.425
		S33.422,56.03,40.04,58.044z"/>
	<path fill="#53672E" d="M91.97,8.35H5.437v86.532H91.97V8.35z M85.99,88.9H70.045H47.211h-3.619
		c-3.922-4.915-7.379-10.051-10.076-13.012c-8.022-8.813-14.185-9.135-17.837-9.632c-1.543-0.21-3.023-0.112-4.262,0.078v-0.804
		v-1.207v-0.821V61.51V14.329H85.99v28.972c-2.044-1.916-4.417-3.357-7.15-3.808c-7.442-1.228-21.922,24.586-21.922,24.586
		s11.3,5.278,21.437,5.521c2.921,0.07,5.464-0.28,7.636-0.845V69.6v16.236V88.9z"/>
</g>
</svg>
