<?xml version="1.0" encoding="utf-8"?>
<!-- Generator: Adobe Illustrator 18.1.0, SVG Export Plug-In . SVG Version: 6.00 Build 0)  -->
<svg version="1.0" id="Layer_1" xmlns="http://www.w3.org/2000/svg" xmlns:xlink="http://www.w3.org/1999/xlink" x="0px" y="0px"
	 viewBox="0 0 150 150" enable-background="new 0 0 150 150" xml:space="preserve">
<g>
	<polygon fill-rule="evenodd" clip-rule="evenodd" fill="#4B9644" points="95.6,15.6 78.9,34.8 78.9,104.2 95.6,104.2 	"/>
	<polygon fill-rule="evenodd" clip-rule="evenodd" fill="#3174A6" points="30.6,33.3 47.3,57.1 47.3,104.6 30.6,104.6 	"/>
	<polygon fill-rule="evenodd" clip-rule="evenodd" fill="#3174A6" points="54.5,22 71.2,45.8 71.2,104.2 54.5,104.2 	"/>
	<polygon fill-rule="evenodd" clip-rule="evenodd" fill="#4B9644" points="116.5,32.9 99.7,56.7 99.7,104.2 116.5,104.2 	"/>
	<path fill-rule="evenodd" clip-rule="evenodd" fill="#3174A6" d="M121.7,39.3v12.5c1.6,0.9,2.3,2.7,2.3,5.1v41.5
		c0,4.1-1.8,5.9-5.9,5.9H52.6c0,0,0,0-0.3,0c-0.3,0-20.6,0-21.4,0c-0.3,0-0.3,0-0.3,0c-3.8,0-7.3-2.1-7.3-5.9V56.9
		c0-3.4,1.6-5.4,4.5-5.8V39.1c-10.9,0.5-16.4,6.4-16.4,17.7v41.5c0,9.5,3.9,15.4,11.6,17.2c0,0.7,5.5,1.1,7.7,1.1
		c1,0,27.7-0.5,28.5-0.5h42.4l-6.2,16.4l21.4-16.4h1.3c11.8,0,17.8-5.9,17.8-17.8V56.9C135.8,46.3,131.1,40.5,121.7,39.3z"/>
</g>
</svg>
