<?xml version="1.0" encoding="utf-8"?>
<!-- Generator: Adobe Illustrator 18.1.0, SVG Export Plug-In . SVG Version: 6.00 Build 0)  -->
<svg version="1.1" id="Layer_1" xmlns="http://www.w3.org/2000/svg" xmlns:xlink="http://www.w3.org/1999/xlink" x="0px" y="0px"
	 viewBox="0 0 150 150" enable-background="new 0 0 150 150" xml:space="preserve">
<g>
	<path fill="#447759" d="M141.4,69.3c-0.1-1.8-0.3-3.4-0.5-5.1c-0.5-3.4-1.2-6.7-2.2-9.8c-4.1-12.8-12.3-23.2-22.2-29.7
		c4.1,4.4,7.7,9.4,10.5,14.6c2.8,5.3,4.8,11,5.9,16.8c0.6,2.9,0.9,5.9,1,8.8c0,1.5,0,3,0,4.4c-0.1,1.5-0.2,2.9-0.4,4.4
		c-0.4,2.9-0.9,5.7-1.7,8.4c-0.8,2.8-1.8,5.4-2.9,8c-1.2,2.6-2.5,5-4.1,7.3c-1.5,2.3-3.2,4.5-5,6.6c-3.7,4.1-7.8,7.6-12.4,10.4
		c-0.7,0.4-1.4,0.7-2,1.1c-2.1,1.2-4.2,2.3-6.4,3.2c-0.5,0.2-1,0.4-1.5,0.5c-0.6,0.2-1.1,0.4-1.7,0.6c-0.9,0.3-1.9,0.8-2.8,1
		c-1.1,0.3-2.2,0.5-3.3,0.8c-3.7,0.9-7.4,1.4-11.2,1.6c-0.3,0-0.6,0.1-0.9,0.1c-0.4,0-0.7,0-1.1,0c-3.3,0-6.6-0.3-9.9-0.8
		c-1.5-0.3-3.1-0.4-4.6-0.8c-1.4-0.3-2.7-0.8-4-1.2c-0.4-0.1-0.9-0.3-1.3-0.4c-0.5-0.2-1-0.3-1.4-0.4c-1.7-0.7-3.4-1.5-5.1-2.3
		c-1-0.5-1.9-0.8-2.9-1.3c-4.7-2.5-9-5.8-12.9-9.6c-1.9-1.9-3.8-4-5.4-6.2c-1.7-2.2-3.2-4.5-4.5-7c-1.3-2.5-2.5-5-3.4-7.7
		c-1-2.7-1.7-5.5-2.3-8.3c-1.1-5.7-1.3-11.6-0.5-17.5c0.7-5.9,2.4-11.7,4.9-17.2c2.5-5.5,5.7-10.7,9.6-15.4
		c-4.7,3.6-9,8.1-12.5,13.4c-3.5,5.3-6.2,11.4-7.8,17.8c-1.6,6.5-2.1,13.4-1.5,20.2c0.6,6.8,2.4,13.6,5.2,19.8
		c2.8,6.2,6.5,11.8,10.9,16.7c4.4,4.9,9.5,9,14.9,12.3c5.5,3.3,11.4,5.7,17.4,7.3c6,1.5,12.3,2.2,18.5,2.1
		c6.2-0.2,12.4-1.2,18.4-3.1c6-1.9,11.7-4.7,17-8.3c5.3-3.6,10.2-8.1,14.3-13.3c2.1-2.6,4-5.4,5.6-8.3c1.7-2.9,3.1-6,4.3-9.2
		c2.4-6.4,3.7-13.3,3.9-20.1C141.6,72.7,141.5,70.9,141.4,69.3z"/>
	<path fill="#007495" d="M76.2,116.1c27.4,0,49.6-22.2,49.6-49.6c0-24.1-17.2-44.1-39.9-48.6l0.2,0l-0.1,0.1L85.4,18l-0.3,0.2
		l-0.4,0.1h-0.4h-0.5h-0.4l-0.4,0l-0.4-0.1l-0.5-0.2L81.6,18l-0.2-0.1l-0.7-0.2h-0.6h-0.7l-0.7-0.2h-0.9l-0.6-0.2l-0.9-0.1h-0.9
		l-0.7,0l-0.5,0.1h-0.7c0,0,0,0.1-0.3,0.1c-0.3,0-0.7,0-0.7,0s-0.5,0-0.6,0c-0.1,0-0.8,0-0.8,0l-0.5,0.2l0.5,0.1l0.5,0.1l0,0.4
		l-0.4,0.1l-0.6,0c0,0-0.2-0.1-0.4,0c-0.2,0.1-0.5,0.1-0.5,0.1l-0.3,0.4h-0.3l-0.6-0.1l-0.4-0.1h-0.6l0.3-0.4l0.7-0.2l0.6-0.1
		l0.7-0.2l0-0.2h-0.3c-0.1,0-0.3,0-0.4,0l-0.6,0.1l-0.5,0.1l-0.4,0.3l-0.6,0.2l-0.4,0.2h-0.6l-0.5,0.1l-0.2,0.2l-0.1,0L65.2,19
		l0.6,0l0.1,0.2l-0.1,0.3l-0.3,0.1h-0.5h-0.3l-0.5,0.1h-0.4l-0.1,0.3l-0.9,0.1c0,0-0.3,0.2,0.1,0.2c0.3,0,0.6,0.1,0.6,0.1l0.7-0.2
		l0.3-0.1l0.6-0.1c0,0,0.1-0.1,0.3-0.2c0.2,0,0.3,0,0.4,0.1c0.1,0.2,0.3,0.3,0.3,0.3l-0.7,0c0,0-0.1-0.2-0.2-0.1
		c-0.1,0.1-0.2,0.5-0.2,0.5s0.2,0.3,0,0.3c-0.2,0-0.6,0.1-0.6,0.1h-0.3l-0.5,0.4l-0.3,0.1L62.2,22l-0.4,0.1l-0.5,0.2
		c0,0-0.3,0.3-0.4,0.3c-0.2,0-0.6,0-0.6,0l-0.4,0.1l-0.5,0.2l-0.5,0.6l-0.3,0.4c0,0-0.2,0.1-0.4,0.2c-0.2,0.1-0.5,0.1-0.5,0.1
		l-0.4,0l0-0.2l0.6-0.4l0.1-0.4l-0.5,0.1L57,23.5l-0.7,0.4l-0.5,0.3h-0.3l0.4-0.6l-0.6,0.3H55l0.3-0.2l0.5-0.2l0.3-0.3l0.4-0.2
		l0.2-0.1l0.5-0.2l0-1.3l1-0.3l0.6-0.5c0,0,0.5,0.5,0.5,0.6c0,0.1,0.4,0.4,0.4,0.4L59,22.2h0.3h0.3H60l0.3-0.1l0.3-0.3
		c0,0,0-0.2,0.2-0.2c0.1,0,0.4,0,0.4,0s0.3,0.1,0.4-0.1c0.1-0.2-0.2-0.3,0.3-0.3c0.4,0,0.7,0,0.7,0l0.1-0.4H62h-0.6h-0.4v-0.2h-0.2
		h-0.5l-0.5,0.1l-0.3-0.1l0.2-0.3l0.4-0.1c0,0,0.3-0.2,0.4-0.2c0.2,0,0.3-0.1,0.3-0.1l0.1-0.2v-0.2c-3,1-5.8,2.2-8.5,3.7l0.1,0
		l0.3,0l0.3-0.1l0.4-0.2l0.4-0.1l0.2-0.2l0.3-0.1l0.2-0.2l0.4-0.1l0.1,0.1l0.2-0.1l0.4,0l0.3-0.2l0.6-0.2h0.3l-0.6,0.4L56,22.8
		L55.6,23h-0.3L55,23.2l-0.3,0.2l-0.4,0.3l-0.2,0.2l-0.3-0.1l-0.4,0.2l-0.3,0.2l-0.2,0l-0.3,0.3h-0.4c0,0-0.2-0.1-0.3,0.1
		c-0.1,0.2-0.1,0.6-0.1,0.6h0.5h0.4l-0.5,0.2L52,25.6h-0.4c0,0-0.4,0-0.5,0.2c0,0.1-0.2,0.4-0.2,0.4l-0.6,0.2h-0.2l-0.6,0.3
		l-0.2,0.4L49,27.3l-0.3,0.3l-0.3,0.4l-0.2,0.3l0-0.3l-0.3-0.2L47.6,28v0.3l-0.4,0.3l-0.2,0.5l-0.4,0.1l-0.5,0.4H46l-0.1-0.3v-0.3
		l0.1-0.4l0.3-0.3l0-0.3l0.1-0.2l-0.2-0.3L46,27.8c0,0,0.1,0.1-0.2,0.3c-0.3,0.2-0.5,0.4-0.5,0.4l-0.3,0l-0.2,0.2l-0.2,0.3l-0.5,0.3
		l-0.2,0.4l-0.4,0.1l0-0.2c-10.3,9.1-16.9,22.2-16.9,37C26.7,94,48.8,116.1,76.2,116.1z M84.3,81.6l-0.2,0.1h-0.3h-0.2l-0.3-0.1
		v-0.3l0.3-0.1l0.2,0.1h0.3l0.2,0V81.6z M105.8,80.9v0.3v0.3v0.3l-0.1,0.2l-0.1,0.2l-0.2,0.2l-0.1,0.2l-0.2,0.2h-0.3l-0.1-0.2
		l-0.2-0.2v-0.2l-0.1-0.3l0-0.3V81l0-0.4c0,0,0.1-0.2,0.1-0.3c0-0.1,0-0.4,0-0.4l0.2-0.4l0.2,0.1l0.2,0.2l0.3,0.2l0.1,0.2l0.1,0.2
		l0.1,0.2l0.1,0.2V80.9z M119,83.6l-0.2-0.1l-0.2-0.2l-0.2,0l-0.3-0.3l-0.3-0.3l-0.2-0.2l-0.1-0.3l-0.1-0.3l-0.1-0.2l-0.2-0.3
		l-0.3-0.2l-0.2-0.2l-0.2-0.3l0-0.4l-0.1-0.2l-0.3-0.1l-0.3,0l-0.1-0.3l-0.2-0.2l-0.3-0.1c0,0-0.1-0.1-0.2-0.1
		c-0.1,0-0.4-0.1-0.4-0.1l0-0.2l-0.2-0.1l-0.1-0.2v-0.2h0.3l0.3-0.1l0.2-0.2l0.3,0L116,78l0,0.2l0.2,0l0.1,0.2l0.3,0.2l0.3,0.1
		c0,0,0,0.1,0.1,0.2c0.1,0.1,0.3,0.2,0.3,0.2l0.2,0.1h0.2l0.2-0.1l0.3,0.1l0.2,0l0.1,0.2c0,0,0.2,0,0.3,0.1c0,0.1-0.1,0.4-0.1,0.4
		v0.4l0.2,0.2h0.2l0.4,0l0.3,0.2c0,0,0.1,0.3,0.1,0.4c-0.1,0.1-0.1,0.3-0.1,0.3c0,0.1-0.1,0.3-0.1,0.4c0,0.1-0.1,0.6-0.1,0.6
		l-0.1,0.4l0,0.3l-0.3,0.2L119,83.6z M122.4,81.8l-0.2,0.3c0,0-0.1,0.2-0.2,0.3c-0.1,0.1-0.2,0.2-0.2,0.2l-0.2,0.2l-0.4,0.1L121,83
		l-0.2,0.5l-0.3,0.1c0,0-0.1,0.2-0.2,0.2c-0.1,0-0.4,0.2-0.4,0.2s-0.1,0-0.2,0c-0.1,0-0.2,0-0.2,0l0.1-0.3l0.2-0.4L120,83l0.1-0.2
		l0.3-0.1c0,0,0.1,0.1,0.2,0.1c0.1-0.1,0-0.2,0.2-0.2c0.2-0.1,0.3-0.2,0.3-0.2l0.1-0.4l0.2-0.2l0.2-0.2l0.3-0.2l0.1,0.2l0.4-0.2
		l0.1-0.1V81.8z M124.5,65.5l0.1-0.1l0-0.4l0.1-0.6v-0.5l0.1-0.2l0,0.3c0,0,0.1,0,0.1,0.1c0,0.1,0,0.4,0,0.4s0.1,0,0.1,0.1
		c0,0.2,0.1,0.2,0.1,0.4c0,0.1,0.1,0.4,0.1,0.4l-0.1,0.3v0.3c0,0,0.1,0,0.1,0.1c0,0.2,0,0.5,0,0.5l-0.2,0.1l-0.1-0.2l0-0.2l-0.1-0.3
		l-0.1,0.2l-0.2,0.1l-0.1-0.3l0.1-0.3L124.5,65.5z M124.5,73.9c0,0,0.1,0,0.1,0.1c0.1,0.1,0.1,0.5,0.1,0.5l0,0.5l0,0.4v0.4l-0.2,0
		c0,0-0.1,0.3-0.1,0.4c0,0.1-0.1,0.6-0.1,0.6s-0.1,0.1-0.1,0.3c0,0.2-0.1,0.4-0.1,0.4l-0.1-0.4v-0.6l0-0.8v-0.5l0-0.4l0.1-0.3l0-0.4
		l0.2-0.3L124.5,73.9z M123.7,63.6l0.3-0.3l0.1,0.2c0,0,0.1,0.2,0.1,0.3v0.4l-0.1,0.2l-0.1-0.1l-0.2-0.1l-0.1,0V63.6z M123.5,62.7
		c0,0,0.1,0.5,0.1,0.6c0,0-0.1,0.2-0.1,0.2l-0.2,0l-0.1-0.2l0-0.4l0.1-0.2L123.5,62.7z M122.2,58.7c0,0,0.3-0.1,0.3,0
		c0,0.1,0.1,0.4,0.1,0.4l0.2,0.3v0.3c0,0,0.1,0.2,0.1,0.3c0,0,0,0.2,0,0.3c0,0.1,0.1,0.2,0.1,0.3c0,0.1,0,0.5,0,0.5v0.5
		c0,0,0.2,0.1,0.2,0.3c0,0.1,0,0.3,0,0.3v0.3l-0.3-0.1l0-0.3c0,0-0.1-0.2-0.2-0.3c0-0.1,0-0.5,0-0.5s-0.1-0.2-0.1-0.3v-0.4l-0.1-0.3
		l-0.1-0.4l-0.1-0.4l-0.1-0.4L122.2,58.7z M121,77.2l0-0.3l0-0.3v-0.3l0.1-0.3l0.2-0.1l0.2-0.2l0.2-0.2l0.1-0.3V75v-0.2l0.1-0.2
		l0.1-0.2l0.2-0.3l0.1-0.5l0.2-0.4V73l0.1-0.3l0-0.4v-0.3l0.2-0.2l0.1-0.3l0.1-0.2l0-0.4v-0.4l0-0.3l0.1-0.3l0-0.3l0-0.3l0.3-0.1
		l0,0.1l0.1,0.3h0.3l0,0.2c0,0,0,0.2-0.1,0.3c-0.1,0,0.1,0.3,0.1,0.3v0.3c0,0-0.2,0.2-0.2,0.3c0,0.1,0,0.4,0,0.4s-0.1,0.2,0,0.3
		c0,0.1,0,0.3,0,0.4c0,0.1,0.1,0.2,0.1,0.2s0.2,0.1,0.2,0.2c0,0.1,0,0.3,0,0.3s0.1,0.2,0.1,0.3l-0.1,0.3l-0.1,0.4c0,0,0,0.2-0.1,0.4
		c0,0.1,0,0.4,0,0.4l0,0.5c0,0,0,0.3,0,0.4s-0.1,0.3-0.1,0.4c0,0.1-0.1,0.4-0.1,0.5c0,0.1,0,0.6,0,0.6l-0.1,0.4l-0.1,0.4l-0.2,0.3
		l-0.2,0c0,0-0.2,0.1-0.3,0.3c-0.1,0.1-0.2,0.2-0.2,0.3c0,0.1-0.1,0.3-0.1,0.3h-0.1l-0.2-0.1l-0.3,0.3c0,0-0.1,0-0.1-0.1
		c0-0.1,0-0.4,0-0.4v-0.2v-0.2l-0.2-0.3l-0.2-0.2l-0.1-0.2L121,77.2z M119.9,54.4c0-0.2,0-0.3,0-0.3l0.2-0.3l0.2,0.3l0.2,0.3
		l0.1,0.3l0.1,0.4l0.2,0.4l0,0.5l-0.1,0.2l-0.2-0.1l-0.2-0.1l0-0.4c0,0-0.2-0.3-0.2-0.4c0-0.1-0.1-0.3-0.1-0.3
		S119.9,54.5,119.9,54.4z M118.2,45c0,0,0.2,0.1,0.2,0.2c0,0.1,0.1,0.4,0.1,0.4s-0.1,0.2-0.2,0.2c-0.1,0-0.1-0.1-0.1-0.1l-0.1-0.4
		l-0.1-0.3l-0.3-0.1l-0.1-0.3l0-0.4h0.1c0,0,0.3,0.3,0.3,0.4C118.2,44.9,118.2,45,118.2,45z M113.9,36.8c0,0,0.2-0.1,0.3,0
		c0.1,0.1,0.3,0.3,0.3,0.3v0.2l0.3,0.3l0.2,0.3c0,0,0,0.3,0.2,0.3c0.2,0,0.6,0.5,0.6,0.5l0.4,0.5l0.4,0.5l0.2,0.4l0.1,0.5L117,41
		l0.2,0.5v0.5l0.2,0.2l0.2,0.3l0.1,0.2l0,0.3v0.3l0.1,0.5l0.1,0.3l-0.1,0.2l-0.2-0.2l-0.3,0c0,0-0.1-0.1-0.1-0.2
		c0-0.2-0.1-0.4-0.1-0.4s0-0.4-0.1-0.4c-0.1-0.1-0.2-0.3-0.2-0.3l0-0.3l-0.1-0.4v-0.4l-0.1-0.3l-0.1-0.4l-0.2-0.2l-0.2-0.3
		c0,0,0.1-0.2,0-0.4c-0.1-0.2-0.2-0.3-0.2-0.3s-0.1-0.1-0.2-0.2c-0.1-0.1-0.3-0.4-0.3-0.4l-0.3-0.4l-0.1-0.2c0,0-0.1-0.2-0.2-0.3
		c-0.1-0.1-0.3-0.4-0.3-0.4l-0.3-0.4l-0.2-0.2l-0.1-0.1l-0.1-0.2L113.9,36.8z M111.4,34.2h0.2c0,0,0.2,0,0.2-0.1c0-0.1,0.1,0,0.1,0
		l0.1,0.2l0.1,0.2l0.1,0.3l0.2,0.3l0.3,0.2l0.1,0.2l-0.1,0.2l0.1,0.2v0.2l-0.3-0.2c0,0-0.2-0.3-0.2-0.4l-0.1-0.2l-0.2-0.3l-0.3-0.2
		l-0.2-0.3l-0.3-0.3l0-0.1H111.4z M106,30.4l0.3,0.1l0.3,0.2l0.4,0.2l0.4,0.2c0,0,0.3,0.1,0.4,0.2c0.1,0,0.4,0.2,0.4,0.2l0.3,0.3
		l0.2,0.3c0,0,0.3,0.2,0.4,0.3c0.1,0,0.2,0.3,0.3,0.4c0.1,0.1,0.2,0.1,0.4,0.2c0.2,0,0.2,0.2,0.2,0.2l0.2,0.2l-0.1,0.1l-0.3-0.1
		l-0.3-0.2l-0.3-0.2l-0.2-0.1l-0.1-0.2c0,0-0.2-0.1-0.3-0.2c-0.1-0.1-0.1-0.2-0.1-0.2l-0.3-0.1l-0.5-0.2c0,0-0.1-0.2-0.1-0.3
		c-0.1-0.1-0.3-0.2-0.3-0.2l-0.4-0.1l-0.4-0.3l-0.4-0.1l-0.3-0.2l0-0.3H106z M84.4,27.1h0.2h0.2l0.3,0v0.2l-0.2,0.2l-0.2-0.1h-0.2
		l-0.2-0.2c0,0,0,0-0.1-0.3C84,26.8,84.4,27.1,84.4,27.1z M83.1,27.1l0.2,0.1l0.1-0.1l0.3-0.1l0.2,0.2l0.1,0.2l0.2,0.2l-0.5,0
		l-0.4,0.1c0,0,0-0.2,0-0.3c0-0.1-0.2-0.1-0.3-0.1C83,27.3,83.1,27.1,83.1,27.1z M82.4,26.9l0.3-0.1l0.1,0.1c0,0,0,0,0,0.1
		c0,0.1-0.1,0.4-0.1,0.4l-0.3-0.3V26.9z M78.7,27.9l0.3-0.1l0.1,0.1v0.3l-0.2,0l-0.2-0.2L78.7,27.9z M78.4,28.2l0.2,0l0.2,0.1
		l-0.1,0.2l-0.2,0L78.4,28.2z M78.2,33.6l0.1-0.1v-0.3V33l0.1-0.1l0.1-0.1l0.1-0.2l0-0.2l0.1-0.2l0-0.2v-0.3l0.2-0.2
		c0,0,0-0.2,0.1-0.2c0.1,0,0.1-0.1,0.1-0.1s0-0.2,0.1-0.2c0.1,0,0.1,0,0.1,0l0.3-0.2l0.4,0c0,0,0.1-0.1,0.2-0.2
		c0.1-0.1,0.1-0.3,0.1-0.3l0.3-0.2l0.4,0.1l0.1,0.2L81,30.7l-0.2,0.2L80.5,31l-0.3,0.2c0,0-0.1,0-0.2,0.1c-0.1,0.1-0.3,0.4-0.3,0.4
		l-0.2,0.3l-0.1,0.5l-0.1,0.1l0,0.4l0,0.5l0.1,0.3l0.3,0.4l0.3,0.2l-0.2,0.1h-0.3l-0.3,0L79,34.3l-0.1-0.2L78.8,34l-0.4-0.1
		l-0.1-0.1l-0.1-0.1L78.2,33.6z M77.4,35.3h0.3l0.2,0.1l0,0.1l0,0.2L77.8,36h-0.3l-0.2-0.4L77.4,35.3z M76.8,28.4H77l0.2,0l0.1,0.1
		L77,28.8l-0.2,0.1l-0.1-0.3L76.8,28.4z M72.3,18.9l0.1-0.3l0.4-0.2c0,0,0.1,0,0.3,0c0.1,0.1,0.5,0.1,0.5,0.1h0.2v0.3
		c0,0,0,0.2-0.2,0.3c-0.1,0-0.4,0-0.5,0c-0.2,0-0.3,0-0.5,0c-0.1,0-0.5,0-0.5,0L72.3,18.9z M72.3,29.3l-0.1-0.2l-0.2,0.1l-0.3,0.2
		l-0.1,0.2l-0.3,0.2l-0.1,0.2L71,30.2L70.9,30l-0.1-0.2l0.2-0.2l0.3-0.1l-0.2-0.2l0.2,0L71.2,29l0.1-0.2l-0.1-0.2l0.2-0.4l0.1,0.4
		l0.2-0.1c0,0,0.1,0,0.2,0c0.1,0,0.3,0,0.3,0l0,0.2l0.2,0c0,0,0.1,0.2,0.1,0.3c0,0.1,0.1,0.1,0.1,0.3c0,0.2,0,0.5,0,0.5
		s-0.1,0.1-0.2,0.1c-0.1,0-0.2-0.1-0.2-0.1l0.1-0.4L72.3,29.3z M72.7,28.8l-0.1-0.2c-0.2-0.1,0.1-0.3,0.1-0.3l0.3,0.1l0.2,0.1
		c0,0,0.2,0,0.3,0c0.2,0,0,0.2,0,0.2l-0.2,0.1l-0.4,0l-0.3,0.1L72.7,28.8z M70.8,19.4h0.3h0.4h0.4h0.4l-0.1,0.4l-0.6,0l-0.5,0.1
		l-0.2-0.1h-0.6L70.8,19.4z M70.5,20.5c0,0,0.1-0.1,0.3-0.1c0.2,0,0.5-0.1,0.5-0.1l0.3,0.2l-0.2,0.3l-0.5,0.1l-0.5-0.1l-0.1-0.2
		L70.5,20.5z M68.9,20c0,0,0.3,0,0.4,0s0.5,0.3,0.4,0.3c-0.1,0-0.5,0.1-0.5,0.1s0.1,0.1,0.1,0.2c-0.1,0.1-0.5,0-0.5,0l-0.1-0.4
		L68.9,20z M68.3,21.2c0,0.4,0.1,0.5,0.1,0.5l0.4,0H69l0.3-0.1l0.1-0.4l0.3-0.1l0.1,0.1h0.4c0,0,0.2-0.1,0.3-0.1
		c0.1,0,0.4,0.1,0.4,0.1l0.5,0.1l-0.3,0.4l-0.9-0.1c0,0-0.2-0.1-0.3,0c0,0.2,0.4,0.2,0.4,0.2l0.7,0c0,0,0.4-0.2,0.4,0.1
		c-0.1,0.3-0.3,0.7-0.3,0.7s-0.1,0.5-0.3,0.5c-0.2,0-0.5,0.2-0.7,0.2c-0.2,0-0.4-0.2-0.4-0.2l-0.2-0.3l-0.5-0.1l-0.4-0.4l-0.1-0.3
		l-0.4,0.2l-0.4-0.2c0,0-0.2-0.2-0.4-0.2c-0.1,0-0.4,0-0.4,0l-0.1-0.2l0.5-0.2l0.2-0.2l0.4-0.3C68,21.1,68.3,20.8,68.3,21.2z
		 M66.4,21.2l0.2-0.2l0.4,0l0.4-0.2l0.5,0l-0.2,0.4h-0.4l-0.2,0.3l-0.4,0.2l-0.4,0.1L66,21.5L66.4,21.2z M51.3,28.9l0.3-0.3l0.1-0.3
		l0.4-0.3l0.3-0.2l0.3-0.3l0.3-0.2l0.5-0.3l0.3-0.3h0.4h0.4v-0.3l0.4-0.2l0.5-0.1c0,0,0.1-0.2,0.2-0.2c0.1,0,0.6-0.3,0.6-0.3
		l0.5-0.2h0.5c0,0-0.1,0.1,0.1,0.1c0.3,0,0.4-0.1,0.5-0.1c0.1,0,0.2-0.1,0.4-0.1c0.2,0,0.5,0,0.5,0s-0.1-0.3,0-0.4
		c0.2-0.1,0.5-0.2,0.5-0.2s0.1,0.2,0.4,0.2c0.2,0,0.1-0.3,0.3-0.3c0.2,0,0.3-0.3,0.3-0.3s0-0.2,0.3-0.2c0.3,0,1,0,1,0l0.4-0.1
		l0.4-0.2l1.1-0.3l0.4-0.1l0.3-0.4l0.4-0.2l0.1-0.5l0.3-0.2h0.4l0.3-0.1l0.3-0.1l0.1,0.3l0.3-0.4c0,0,0,0,0.2,0c0.2,0,0.5,0,0.5,0
		l0.1,0.3c0,0-0.1,0.3,0,0.3c0.1,0,0.5,0.1,0.5,0.1l0.4-0.2l0.3,0.2l0.4,0.2l0.5,0.1c0,0,0.4,0.2,0,0.2c-0.4,0-0.4,0.3-0.4,0.3
		l0.2,0.3h0.5l0.3,0.1l0.3,0.3l0.4,0.2l-0.3,0.2l-0.3-0.1l-0.1,0.4L69.5,25l-0.2-0.1l-0.3-0.3l-0.1,0.2l0.1,0.2l-0.5,0.1l0.1,0.4
		h0.4h0.4l0.3,0v0.3L69,25.9h-0.6h-0.4L68,25.9l-0.5,0.1l-0.8,0.1l-0.4,0.2l-0.3,0L66,26.8L65.7,27l-0.2-0.1l-0.2-0.1h-0.1l-0.4,0.1
		l-0.2,0.4l-0.2,0.1l-0.2-0.1l-0.7,0.3c0,0,0.3,0.2-0.1,0.2c-0.3,0-0.1-0.2-0.3,0c-0.2,0.1-0.4,0.3-0.4,0.3l-0.3-0.4l-0.1-0.1
		l-0.1,0.1c0,0-0.1,0.3-0.2,0.3c-0.2,0-0.4-0.1-0.4-0.1l-0.3,0.8c0,0-0.2-0.1-0.3,0c0,0.2-0.6,0.3-0.6,0.3s0.1-0.2,0.1-0.4
		c0-0.1,0.1-0.4,0.1-0.4h-0.3L60,28.1l-0.2,0.3l0.4,0.3v0.5c0,0-0.3,0.1-0.4,0.1c-0.2,0-0.5,0-0.5,0l-0.7-0.1L58.2,29l-0.3-0.4
		l-0.1-0.3l-0.4,0.3h-0.6l-0.3,0.1h-0.4l-0.4,0v-0.2l-0.2-0.1l-0.6-0.1L54.6,28l-0.3,0.4h-0.3l-0.4,0.2h-0.4l-0.4,0
		c0,0,0,0.3-0.2,0.3c-0.2,0-0.9,0.3-0.9,0.3l-0.5,0.3l-0.2,0L51,29.2L51.3,28.9z M56.7,39.5c0.1,0,0.1,0,0.2,0
		c0.1,0.1,0.2,0.2,0.2,0.2L56.6,40l-0.4,0.2L56,40.4l-0.2,0.3l0.3,0v0.5l-0.1,0.2l-0.2,0.4V42l0.1,0.4l-0.1,0.2c0,0-0.1,0.1-0.1,0.2
		c-0.1,0.2-0.1,0.3-0.1,0.3l-0.3,0.3c0,0,0.3,0.1,0.4,0.1c0.1,0,0.3-0.2,0.3,0c0,0.2-0.1,0.5-0.1,0.5l-0.3,0.3h-0.3H55l-0.2,0.2
		l0.1,0.3l-0.3,0.2c0,0-0.2,0.1-0.3,0c-0.1-0.1-0.3-0.2-0.3-0.2l-0.2-0.3l-0.2,0l-0.3-0.1l-0.1-0.2h-0.2l-0.1,0.2h-0.1l-0.3-0.1
		l-0.2-0.1l-0.1,0.1L52,44l0.2-0.1l0.4-0.1l0.2-0.1l0.2,0.1l0.2-0.2v-0.2l-0.2-0.1l-0.2-0.1c0,0-0.2-0.1,0-0.1c0.1,0,0.2,0,0.3,0
		c0.1,0,0.3,0,0.3,0l0.2-0.3l0.1-0.4l0.1-0.1l0.2,0.1l0.2,0.1l0.2,0c0,0,0.1-0.2,0.2-0.3c0.1-0.1,0.1-0.2,0.1-0.2v-0.2l0.1-0.2
		l0.2-0.1l-0.3-0.2l-0.1-0.1v-0.1l0.1-0.2l0.2-0.1l0.2-0.2l0-0.2v-0.3v-0.2l0.2-0.1l0.1-0.2l0.3-0.1l0.1-0.2L56,39l0.1-0.1l0.3-0.1
		l0.1-0.1l0.2-0.1l0.3,0.1l0.1,0.1l0.1,0.1l0.1,0.1L56.8,39l-0.3,0.1l-0.1,0.2C56.4,39.3,56.6,39.4,56.7,39.5z M52,41.3
		c0,0,0.2,0,0.3,0s0-0.2,0-0.2l-0.1-0.2v-0.1l0.3-0.1l0.2-0.1l0-0.2h0.2l0,0.2c0,0,0.2,0,0.3,0c0.1,0,0.1-0.1,0.1-0.1l0.1-0.2
		l0.2-0.1l0.1,0.1l0.1,0.2l0.3,0l0.3,0.1l-0.1,0.3c0,0,0,0-0.1,0.1c-0.1,0.1,0,0.2,0,0.2v0.2L54,41.3l-0.3,0.1l-0.3,0.1l-0.1,0.2
		c0,0-0.1,0.1-0.2,0.2c-0.1,0-0.2,0.1-0.2,0.1s-0.2,0.2-0.2,0.3c0,0.1-0.3,0.1-0.3,0.1l-0.2-0.1l-0.1,0H52l-0.4,0l-0.3,0.1V42
		c0,0,0.2-0.1,0.3-0.3c0.2-0.2,0.1,0,0.1,0H52L52,41.3z M56.8,33.6c0,0-0.1,0-0.3-0.1c-0.2,0-0.1-0.1-0.1-0.3
		c-0.1-0.2-0.2-0.2-0.2-0.2s0-0.3,0-0.5c0-0.1,0.1-0.1,0.2-0.2c0.2-0.1,0-0.2,0-0.2l0.2-0.3l0.4,0l0.1-0.2l0.1-0.4l0.2,0.1l0.2,0.1
		v0.2l-0.1,0.2l0.2,0.1h0.4l0.1,0.1l0.1,0.2h0.3l0.2,0.2v0.2l-0.1,0.2L58.8,33l-0.1,0.1l-0.1,0.2l-0.2,0.1l-0.2,0.1l-0.4,0h-0.2
		l-0.4,0.1l-0.1-0.1L56.8,33.6z M43.6,31l0.1-0.2l0.2-0.4l0.5-0.2c0,0,0.3-0.1,0.5-0.2c0.2,0,0.6-0.3,0.6-0.3l0.4-0.1l-0.1,0.2
		l-0.5,0.3L45,30.5l-0.1,0.4l-0.3,0.4l-0.5,0.5l-0.6,0.2l-0.2-0.2l0.1-0.3L43.6,31z M43.1,30.2l0.4-0.1v0.5v0.3L43.2,31L43,30.6
		L43.1,30.2z M40.5,80.2L40,79.9c0,0-0.2-0.1-0.3-0.1c-0.1-0.1-0.3-0.2-0.4-0.2c-0.1-0.1-0.1-0.3-0.1-0.3l-0.2-0.2L38.6,79l-0.2-0.1
		l-0.3,0l-0.3-0.1h-0.2l-0.4,0c0,0-0.2,0-0.3,0c-0.1,0-0.1-0.3-0.1-0.3l-0.2-0.2l0-0.2c0,0-0.4-0.4-0.4-0.5c0-0.1-0.2-0.3-0.2-0.3
		c0-0.1-0.2-0.2-0.2-0.2l-0.1-0.3c0,0-0.1-0.2-0.2-0.3c-0.1,0,0-0.4,0-0.4l-0.1-0.4l-0.3-0.5l-0.1-0.4L35,74.5l-0.2-0.2L34.7,74
		c0,0-0.1-0.3,0-0.4c0-0.1,0-0.3-0.1-0.4c0-0.1,0-0.4,0-0.5c0-0.1,0.1-0.3,0.1-0.4c0-0.1-0.1-0.2-0.1-0.2L34.5,72l-0.1-0.6
		c0-0.1-0.1-0.2-0.1-0.2l-0.1-0.1l-0.1-0.2l0.1-0.3v-0.4H34c0,0-0.2-0.2-0.2-0.3c0-0.1-0.1-0.2-0.1-0.2s0-0.5,0-0.6
		c0,0,0.1-0.1,0.1-0.2c0-0.1,0-0.4,0-0.5c0-0.1,0.2-0.2,0.2-0.2L34,67.7c0-0.1,0-0.3,0-0.3c0-0.2,0-0.5,0-0.5l0.2-0.1l0.2-0.3
		l0.1-0.3c0-0.1,0.2-0.2,0.2-0.2l0.1-0.4l0.2-0.4c0,0,0.2-0.3,0.2-0.3c0,0,0.1-0.3,0.1-0.4c0,0,0-0.3,0-0.3l0-0.5l0.1-0.2l0.2-0.1
		l0-0.4l0-0.4c0,0,0-0.2,0-0.3c0-0.1,0-0.3,0-0.3l0.1-0.2l0.2-0.3c0,0,0.4-0.3,0.5-0.4c0.1-0.1,0.1-0.2,0.1-0.2s0.1-0.1,0.2-0.2
		c0.1-0.1,0.2-0.2,0.2-0.2l0.2-0.3l0.2-0.2l0.3-0.1l0.2-0.3c0,0,0.3-0.4,0.4-0.5c0-0.1,0.2-0.2,0.2-0.2s0.4,0,0.4-0.1
		c0.1,0,0.2-0.1,0.2-0.1s0.3-0.4,0.3-0.5c0-0.1,0.2-0.1,0.2-0.1l0.2,0.1h0.2c0,0,0.1,0,0.2-0.1c0.1,0,0.3-0.2,0.3-0.2l0.5-0.1
		l0.4-0.2l0.2-0.1l0.1-0.2l0.1-0.3l0.1-0.4l0.1-0.2l0.3-0.3l0.2-0.2l0.2-0.3l0.3-0.1c0,0,0.1-0.3,0.2-0.4c0.1,0,0.2-0.1,0.2-0.1
		s0.4,0,0.5,0c0.1,0,0.3,0,0.4,0c0.1,0,0.2-0.1,0.3-0.1c0.1-0.1,0.3-0.2,0.3-0.2l0.1-0.1c0,0,0.1-0.2,0.2-0.3
		c0.1-0.1,0.2-0.2,0.2-0.2l0.2-0.1l0.1,0.1l0.1,0.3l0,0.2l0.1,0.3c0,0,0.3,0.1,0.4,0.1c0.1,0,0.3,0.2,0.3,0.2l0.2,0.1l0.3,0.2l0.3,0
		l0.3-0.1l0.3,0c0,0,0.2,0,0.3,0c0.1,0,0.3-0.1,0.3-0.1h0.4H49l0.4,0.1l0.1,0l0.2,0.1h0.2l0.2,0l0.3,0.2c0,0,0.3,0.1,0.5,0.1
		c0.2,0,0.2,0.1,0.2,0.1l0.2,0.1h0.2h0.3l0.3,0.1l0.3,0.1l0.3,0.3l0.3,0h0.3c0,0,0.2,0,0.2,0c0.1-0.1,0.1,0,0.1,0l0.3,0.1l0.1,0.2
		l0.1,0.2l0.1,0h0.2h0.1v0.2v0.1l-0.1,0.1l-0.2,0.1L53.8,58l-0.1,0.2v0.2l0.1,0.2v0.2l0,0.2l0,0.1l-0.2,0.1l-0.2,0.2l-0.2,0.2
		c0,0-0.2,0.1-0.3,0.1c-0.1,0-0.1,0.2-0.1,0.2l0,0.1l0.2,0.2l0.2,0.2l0.1,0.2l0.2,0.2l0.1,0.1l0.1,0.1l0.1,0.2l0.2,0.1l0.3,0l0.4,0
		l0.2,0.2l0.3,0.2l0.3,0.2l0.2,0.2l0,0.1v0.3v0.2v0.2l0.1,0.2l0.2,0.1l0.4,0.1l0.2,0.2l0.4,0.2l0.2,0.3l0.2,0.2c0,0,0.2,0.3,0.3,0.3
		c0.1,0,0.4,0,0.4,0l0.4-0.2l0.2-0.3l0.1-0.4l0-0.3c0,0,0.1-0.2,0.1-0.3c0.1-0.1,0.1-0.1,0.1-0.1l0.2-0.2l0.3,0l0.4,0l0.5,0.1
		l0.2,0.1l0.2,0.2l0,0.2l0.1,0.3l0.2,0.2l0.2,0.2l0.4,0l0.4,0.3l0,0.1l0.1,0.2l0.3,0.1l0.3,0.1H63l0.3,0.2l0.4,0.1L64,65l0.4,0.1
		l0.3,0.1H65l0.2-0.2l0.5-0.1h0.4h0.3h0.4l0.2,0.1l0.2,0.2l0.2,0.2l0.4,0.1h0.2l0.3-0.1l0.3-0.2l0.3-0.3l0.1-0.3l0.1-0.4
		c0,0,0.2-0.3,0.2-0.4c0-0.2,0.1-0.2,0.1-0.2l0.2-0.3c0,0,0.2-0.4,0.2-0.5c0-0.1,0.2-0.2,0.2-0.2l0.1-0.1c0,0,0-0.2,0-0.3
		c0-0.1,0-0.3,0-0.3v-0.4v-0.4l0.1-0.2l0.2-0.3h-0.3L70,60.9L69.9,61l-0.2-0.1l-0.1-0.1l-0.3-0.1l-0.1,0.1L69.1,61
		c0,0-0.1,0.1-0.2,0.2c-0.1,0-0.2,0-0.2,0s-0.3,0-0.4,0c-0.1,0-0.4,0-0.4,0L67.7,61l-0.1-0.3l-0.1-0.2l-0.2-0.1l-0.1,0l-0.4-0.1
		l-0.2,0.1l-0.1,0.2l-0.1,0.2h-0.2l-0.3,0l-0.1-0.1l-0.1-0.1l-0.1-0.1c0,0-0.1-0.1,0-0.2c0-0.1-0.1,0-0.1,0l-0.1-0.2h-0.2l-0.1-0.1
		l0-0.2h-0.2h-0.3c0,0-0.1-0.2-0.1-0.3c0.1-0.1-0.1,0-0.1,0s0.1-0.2,0.1-0.3c0.1-0.1-0.1-0.1-0.1-0.1s0.1-0.2,0.1-0.3
		c0-0.1-0.1-0.1-0.1-0.1l-0.2-0.1L64,58.7l0.2-0.1l0.2-0.2l0-0.3c0,0,0-0.3,0-0.4c0-0.1-0.1,0-0.1,0h-0.2l0.1-0.3l0.2-0.3l0.1-0.2
		l0.2-0.1l0.2-0.1l0.1,0L65,57h0.2l0.1,0.1h0.2h0.3l0.4,0c0,0,0,0,0-0.1c0.1-0.1,0.2,0,0.2,0h0.3l0-0.2l-0.1,0h-0.1l0-0.1h0.1
		l0.2,0.1h0.1H67l0.3,0.1l0.1,0.1h0.2l0.3-0.1l0.2-0.1l0.2-0.1l0.2,0l0.2-0.2l0.2,0H69l0.4,0h0.2l0.2,0h0.3l0.1,0.2l0.1,0.1h0.3
		l0.2,0.1l0.1,0.1v0.1l0.1,0.2l0.2,0.1c0,0,0,0,0.1,0.1c0.1,0.1,0.2,0.1,0.2,0.1l0.4,0l0.2,0.1h0.3h0.3l0.2,0H73l0.1,0.1h0.3
		l0.2-0.1l0.3-0.3l0.2-0.1l0.2-0.3l0.1-0.3l-0.2-0.2L74,55.8l-0.1-0.1c0-0.1-0.1,0-0.1,0l-0.2-0.1l-0.2-0.1l-0.2-0.1l-0.1-0.2
		L73.1,55l-0.2-0.2l-0.1-0.1l-0.3-0.2l-0.1-0.1l-0.2-0.1L72,54.2L71.6,54l-0.1-0.4l0.2-0.1l0.2,0l0.2-0.2v-0.2l0.2-0.1
		c0,0,0.2-0.1,0.3-0.1c0.1,0,0-0.2,0-0.2l-0.2-0.1v-0.2h0.2h0.2l0.1-0.1l0.2-0.1l0.2-0.1L73,51.9l-0.2,0l-0.1,0h-0.2l-0.1,0.1h-0.2
		L72,52.2l-0.3,0.1h-0.3l-0.1,0.1L71,52.5l-0.2,0.1l-0.2,0.1c0,0-0.1,0-0.2,0.1c-0.1,0-0.2,0-0.2,0h-0.3l0.1,0.2l0.1,0.1l0.2,0.1
		l0.1,0.1l0.1,0.1l0.2,0.1l0.2,0c0,0,0.1,0,0.3,0c0.2,0,0.2,0.2,0.2,0.2l-0.2,0.1l-0.2,0h-0.1h-0.3l0,0.2l-0.2,0
		c0,0-0.2,0.1-0.3,0.1C70,54,70,54.1,70,54.1l-0.2,0l-0.1,0.1h-0.1l-0.1-0.1v-0.2l0.1-0.3l0-0.1l-0.3-0.2l-0.1-0.1l0.1-0.2l0.2-0.2
		h0.2l0.1-0.1l-0.1-0.2l-0.1,0h-0.2H69l-0.2-0.1l-0.1-0.2l0-0.3h-0.3l-0.1,0.1L68,52.3l-0.2,0.1l-0.1,0.1l-0.1,0.2l-0.1,0.1
		l-0.3,0.1l0,0.1l0,0.2l0,0.1l0,0.2L67,53.5l-0.2-0.1l-0.1,0l-0.1,0.3L66.4,54l-0.1,0.1l0,0.2l-0.2,0.2H66l-0.1,0.1l-0.1,0.2
		l-0.1,0.2l-0.1,0.1l0,0.2v0.2l0.1,0.2l0.1,0.2l0,0.1v0.2l0.2,0.1l0,0.1v0.1l-0.1,0.1h-0.2h-0.2h-0.3H65l-0.2,0.2h-0.3l-0.4-0.2
		L64,56.3c0,0-0.1,0-0.3,0s-0.2,0-0.2,0h-0.2h-0.2l-0.2,0.1l0,0.2l-0.2,0.2l-0.2,0l-0.1,0l0-0.2l-0.1-0.3h-0.2l0,0.1v0.1v0.2v0.1
		l0,0.2l0,0.2l0,0.3l-0.1,0l-0.1,0.3H62l0.2,0.2l0.1,0.2l0,0.1l0.1,0.2l0.1,0.2l-0.1,0.1h-0.2l-0.1-0.1l-0.2-0.1l-0.1,0.1
		c0,0,0.1,0.2,0.1,0.3c0,0-0.1,0-0.1,0l-0.1,0l-0.1-0.1L61.5,59v0.3l0,0.2l0.1,0.3l-0.2,0.1l-0.1-0.3l-0.2,0l-0.1-0.1L61,59.3
		l-0.1,0.2l-0.2,0.1l0-0.2l0.2-0.3l-0.1-0.1v-0.2l-0.1-0.1l0-0.1l0.1-0.2l0.2,0h0.2h0.1l0.2,0l0.1,0.1l0.2,0.1l0.1-0.1l0-0.2l-0.1,0
		l-0.1-0.1l-0.2,0h-0.2l-0.2,0L60.6,58l0-0.3l0.1-0.1l0.1-0.2l-0.2-0.1L60.5,57l-0.3-0.3l0-0.3l-0.1-0.1l0-0.3c0,0,0.1-0.2,0.2-0.3
		c0-0.1,0.1-0.1,0.1-0.1l0-0.4l0.1-0.2l0-0.3l-0.1-0.2l-0.1-0.2l-0.1-0.3L60,54.1l0-0.1l-0.1-0.2l-0.1-0.1l-0.1-0.3l-0.3-0.3l-0.3,0
		l-0.1-0.3l-0.1-0.3l0-0.2c0,0,0.1-0.3,0.1-0.4c0-0.1,0-0.4,0-0.4l-0.1-0.2l-0.2,0.2l-0.2,0.1l-0.1-0.1v-0.2l0-0.2l0.1-0.1l0-0.2
		l-0.1-0.1h-0.3l-0.3,0h-0.2L57.5,51v0.2l-0.1,0.2l-0.1,0.2l0,0.2l0,0.2l0.2,0.3l0.2,0.2l0,0.2v0.2v0.2v0.1v0.3l0.1,0.2
		c0,0,0.1,0.1,0.1,0.2c0.1,0.1,0.1,0.2,0.1,0.2l0.2,0.1c0,0,0.1,0,0.2,0c0.1,0,0.1,0,0.1,0l0,0.1l-0.2,0.2l0.2,0.1l0.1,0.1l0.2,0.1
		l0.1,0.2l0.2,0.1l0.2,0.2l0.1,0.1l0.1,0.2l0,0.3l-0.1,0.2l-0.2,0l0-0.1L59.1,56L59,55.8l-0.2-0.2l-0.2,0l-0.2,0.1l-0.1,0.2
		l-0.1,0.2v0.2l0.1,0.2v0.2v0.1l-0.2,0.1l-0.2,0l-0.1,0.2L58,57.3c0,0-0.1,0-0.2,0.1c-0.1,0.1-0.2,0.1-0.2,0.1h-0.2l-0.1-0.1
		l0.2-0.2l0.1-0.3l0.1,0l0.1-0.2v-0.3L57.8,56v-0.3l-0.2,0l-0.1-0.2v-0.3L57.5,55l-0.2-0.2l-0.1-0.3c0,0-0.2-0.1-0.2-0.2
		c0-0.1-0.2,0-0.2,0l-0.2-0.1l-0.1-0.2l-0.1-0.3l-0.1-0.4l-0.1-0.3L56.1,53L56,52.8l-0.1-0.3l0-0.2l0-0.4l0.1-0.2l-0.1-0.3l-0.2-0.2
		l-0.2-0.1l-0.2-0.1l-0.2,0l-0.1,0.1L55,51.4h-0.2h-0.2l-0.2,0h-0.2l-0.2,0l-0.1,0.1l-0.2,0h-0.1l-0.1,0l-0.1-0.1l-0.2-0.2l-0.1,0
		L53.1,51L53,51l-0.3,0h-0.3l-0.1,0.1l-0.1,0.1L52,51.4l0,0.4L51.9,52c0,0-0.1,0.1-0.2,0.1c-0.1,0-0.2,0.1-0.2,0.1l-0.2,0h-0.3h-0.3
		h-0.3l-0.3,0l-0.1,0.1l-0.1,0.2l-0.2,0.1l-0.1,0.2l-0.3,0.1c0,0-0.1,0.1-0.2,0.2c-0.1,0-0.1,0.1-0.1,0.1c-0.1,0,0,0.1,0,0.1v0.3
		l-0.1,0.3c0,0-0.2,0-0.3,0c-0.1,0-0.1,0.1-0.1,0.1c-0.1,0-0.1,0.1-0.1,0.1l-0.3,0.1h-0.2l-0.3,0.3l-0.2,0.1l-0.2,0h-0.1l-0.2-0.1
		l-0.2-0.1l-0.2-0.1l-0.2-0.1c0,0-0.3,0-0.4,0c-0.1,0-0.1,0-0.1,0l-0.3,0l-0.2-0.2l0-0.2c0,0,0-0.1,0-0.4c0-0.2,0-0.2,0-0.2l0-0.3
		l-0.2,0h-0.3l-0.2-0.2l-0.1-0.1v-0.3l0.3-0.3c0,0,0.1-0.2,0.2-0.3c0-0.1,0.1-0.2,0.1-0.2l-0.1-0.2L45,51.4l0-0.3l0.2-0.2l0.3-0.3
		l0.3-0.3l0.3-0.3l0.1-0.3l0.3-0.2l0.1-0.3l0.2-0.3l0.1-0.2l0.1-0.2l0.1-0.3l0-0.2h0.2h0.2l0.1,0l0.2,0l0.1,0.2l0.1,0.1l0.2,0.3
		l0.2,0.1l0.2,0.2l0.3,0.2h0.2l0.2,0.1l0.2,0.2l0.2,0.2l0.5,0.2l0.4-0.2l0.2-0.2L51,49l0.2-0.2l0.2-0.2l0.3-0.1l0-0.3l0-0.2l0.2-0.4
		c0,0-0.2-0.2-0.2-0.3c0-0.1,0-0.3,0-0.3l0.2-0.2l-0.1-0.2l-0.1-0.3l-0.2-0.2L51.4,46l-0.1-0.2l0.1-0.3l0.2-0.2l0.3,0l0.3,0.3l0,0.3
		h0.2l0.2,0.1l0.2,0l0.1-0.3l0.1-0.2l0-0.2l0.1,0l0,0.2l0.1,0.2l0.1,0.1l0.3,0.1l0.2,0l0.1-0.2l0.2,0h0.2h0.2l0.2-0.3L55,45l0.3-0.1
		h0.4h0.3L56,45l0.3,0l0.1,0l0.1-0.3l0.1-0.1l0.2-0.3c0,0,0.2-0.1,0.2-0.2c0.1,0,0,0.1,0,0.1v0.2h0.1c0,0,0.2-0.2,0.2-0.2
		c0.1-0.1,0.2-0.3,0.2-0.3l0.1-0.1h0.2l0.1,0l0.2,0.2l0.2,0l0-0.2h0.2l0.1,0.1l0.2,0.2h0.1l0.1-0.2l0.2,0l0.1-0.2l0.1-0.2l0.1-0.2
		l0.1-0.3l0.1-0.3v-0.2l0.1-0.2l0.1-0.2l0-0.3l0.3-0.2h0.3l0.3-0.1l0.3,0v0.1l0,0.2l0,0.1l-0.2,0.1l-0.1,0.1l0,0.2l0.1,0.1l0.2,0.1
		c0,0,0,0.1-0.1,0.1c-0.1,0-0.3,0-0.3,0l-0.3,0.1L60,42.9l-0.2,0.2l0,0.3l0,0.3l0.1,0.2l0,0.2v0.1l0.2,0.1l0.3,0.1l0.3-0.1l0.2,0
		h0.1l0.1,0.1l0,0.3l0.3,0.2l0.1-0.1l0.3-0.1l0.4-0.1l0.4,0l0.1-0.1l0.3,0l0.2-0.1l0.2,0.1l0.1,0.2l0.1,0.1h0.2l0.3,0l0.3-0.1
		l0.2-0.2l0.1,0l0.1,0.1h0.2l0.1-0.2l0.1-0.2l0.1-0.2l-0.1-0.2l0.1-0.3l0.2-0.4l0.2,0l0.1-0.2l0.1-0.1l0.1-0.1l0.1,0.1l0.1,0.1
		l0.1,0.2l0.1,0.1l0.1,0.2h0.2h0.1l0.1-0.2l0.2-0.2l0-0.3l0.2-0.3c0,0-0.3,0-0.3,0c-0.1,0-0.1-0.2-0.1-0.2l0.2-0.3l0-0.2
		c0,0,0.3-0.1,0.3-0.1c0-0.1,0.1,0,0.1,0h0.4l0.3,0l0.1,0.1l0.3,0.1l0.1,0.1h0.3l0.1-0.2l0.3,0H70l0.1-0.2l-0.2-0.1l-0.2,0l-0.1-0.1
		l-0.2-0.1L69.3,41c0,0-0.3,0-0.4,0c-0.1,0-0.2,0-0.3,0c-0.1,0-0.3,0-0.3,0l-0.2,0.1c0,0-0.2,0.1-0.3,0.1c-0.1,0-0.2,0-0.3,0
		c-0.2,0-0.2,0-0.2,0l-0.1-0.1v-0.3l-0.3-0.2l-0.1-0.3l0-0.3l0.2-0.3l0-0.4l0.2-0.4l0.2-0.2l0.3,0l0.2-0.1l0.2-0.1l0.2-0.2l0.3-0.1
		l0.2-0.2L69,38l0.1-0.1h0.2l0.2-0.2l0-0.3l-0.1-0.3l-0.2-0.1l-0.2,0h-0.3l-0.2,0l-0.1,0.1l-0.2,0.1l-0.2,0.3l-0.2,0.3l-0.1,0.1
		l-0.1,0.1l-0.3,0.1l0,0.1h-0.3c0,0-0.1,0.1-0.1,0.1c-0.1,0-0.2,0.1-0.2,0.1l-0.2,0L66,38.7v0.1l-0.3,0l-0.1,0.3v0.2
		c0,0-0.1,0.1-0.2,0.1c-0.1,0-0.1,0.1-0.1,0.1l-0.2,0.1l-0.1,0.2c0,0,0,0.2,0,0.3c0,0-0.1,0.1-0.1,0.2c-0.1,0.1-0.1,0.1-0.1,0.1
		l0.4,0l0.1,0.2l0,0.2L65.2,41l-0.3,0c0,0-0.1,0-0.2-0.1c-0.1,0-0.2-0.1-0.2-0.1h-0.3l0.1,0.1l0.2,0.2v0.2l-0.1,0.1h-0.3
		c0,0-0.1,0-0.3,0c-0.1,0,0,0.1,0,0.1l0,0.3l-0.1,0.1c0,0-0.1,0.2-0.1,0.3c0,0.1-0.1,0.2-0.2,0.3c-0.1,0.1-0.2,0.2-0.2,0.2L63.2,43
		L63,43.1h-0.2L62.5,43l-0.1,0l-0.1,0.2l-0.1,0.1l-0.1,0.2l-0.3,0l-0.3-0.1l-0.1-0.1l0-0.2l0.1-0.2l0.1-0.2l0.1-0.2v-0.2l0.1-0.3
		l-0.1-0.2l0.1-0.3l0.1-0.2l0-0.4l0.1-0.1l0-0.3l0.1-0.3l0.1-0.3l-0.1-0.1l-0.1,0.2L62,40.3l-0.2,0.3l-0.4,0l-0.1,0.1
		c0,0-0.2,0.2-0.2,0.2c-0.1,0-0.2,0-0.2,0h-0.2h-0.3l-0.1-0.1l0-0.2l-0.1-0.2l-0.1-0.2l0.1-0.2l0.4-0.2l0.1-0.3l0.4-0.3l0.2-0.2
		L61,38.9c0,0,0-0.2,0-0.4c0-0.1,0.1,0,0.1,0l0.2,0.1h0.2l0.2-0.1l0-0.1l-0.2,0h-0.2l-0.2-0.1l0.3-0.3h0.2l0.1,0l0.1-0.2l0.2-0.1
		l0.3-0.1h0.2l0.1-0.2h0.2h0.5h0.3l0.2,0.1l0.3,0l0.1-0.1l-0.4,0L64,37l0.4-0.1h0.3c0,0,0.1-0.1,0.1-0.2c0-0.1,0.3-0.1,0.3-0.1
		l0.3-0.2c0,0,0.3-0.1,0.3-0.2c0-0.1,0.1-0.1,0.1-0.1l0.4-0.3l0.2-0.2l0.4-0.1c0,0,0.2,0,0.3,0c0.1,0,0.2-0.2,0.2-0.2h0.2l0.3-0.3
		l0.2,0l0.2-0.2c0,0,0.3,0,0.3-0.1c0.1-0.1,0-0.1,0.1-0.2c0-0.1,0.3-0.1,0.3-0.1h0.2l0.3-0.1l0.1-0.1l0.3,0.1l0.2-0.2l0.1,0l0.2,0.1
		l0.1-0.2l0.2-0.2l0.3,0l-0.1,0.2l-0.1,0.2h0.2l0.2-0.2l0.3,0.1l0.1-0.1l0.1,0.1l0.3-0.1l0.1-0.1l0.2,0.1l0.1,0.2v0.1l-0.1,0.1h-0.2
		l-0.1,0l0.1,0.1l0.1,0.2l0.4,0l0.2,0l0.1,0.2l0.3,0.2l0.3,0h0.2l0.2,0.2l0.2,0.2l0.3,0.2l0.2,0.2l0.3,0.2l0.3,0.1l0.1,0.3l0,0.3
		l-0.2,0.2l-0.1,0.1l-0.1,0.1l-0.3,0l-0.2,0.1L74,37.4l-0.2,0l-0.2,0h-0.1l-0.1-0.1h-0.2L72.9,37h-0.2l-0.1-0.1l-0.3-0.1l-0.2-0.1
		l0,0.2V37l0.1,0.1l0.2,0.2l0.1,0.1l0.1,0.3v0.2L72.6,38l0,0.2l0.1,0.3v0.3l0.2,0.2l0.2,0.1l0.2,0.1c0,0,0.2,0,0.3,0
		c0.1,0,0.1-0.1,0.1-0.3c0-0.1,0-0.1,0-0.1l-0.2-0.1l-0.1-0.1v-0.2l0.1-0.1l0.2,0.2l0.2,0.2l0.3,0.1l0.3,0.1l0.3,0l0.1-0.2l-0.1-0.2
		l-0.2-0.2l0.1-0.3l0.2-0.1l0.2-0.1l0.1-0.3l0.3,0l0.2,0.2l0.2,0.2l0.2,0l0.1-0.4l0.1-0.3c0,0-0.2-0.1-0.2-0.2c-0.1-0.1,0-0.2,0-0.2
		v-0.2l0.2-0.3V36h0.1l0.2,0l0.2,0.1l0.1,0.2l0,0.2l-0.3,0.1l-0.1,0.1l0,0.1l0,0.1l0.1,0.1l0.1,0.1H77l0.2,0l0.2-0.1l0.1-0.3
		l0.2-0.2l0.4-0.3l0.3-0.2l0.2-0.1h0.2l0.1-0.1v-0.2l0.3,0l0,0.2l0.1,0.2h0.2l0.2-0.2l0.1-0.2l0.3-0.1h0.3l0.2-0.2l0.2,0.1l0.1,0.1
		l0,0.2l0.2-0.2l0.2-0.3l0-0.3L81.1,35v-0.2h0.2l0.3,0.1H82l0.4,0l0.3,0.1l0.3,0l0.2,0.1l0.4,0.2l0.1-0.3L83.6,35l-0.1-0.3l-0.1-0.1
		l-0.2,0l-0.2-0.1c0,0-0.1-0.1-0.1-0.1c0-0.1,0-0.2,0-0.2l0-0.2l0-0.2h-0.2l0-0.3l0.1-0.2l0-0.2l-0.1-0.2v-0.3l0.1-0.1l0.2,0h0.3
		l0.2,0.1l0.2,0.2l0.1,0.2v0.2l0.2,0.2l0.1,0.1l0.1,0.3l0.2,0.3l0.2,0.3l0.1,0.2l0.1,0.2l0.1,0.2h0.2l0.1,0.2l0.1,0.2v0.2v0.2L85,36
		l-0.1,0.1l-0.2,0.2l0,0.2l0.3-0.1l0.3-0.1l0.3-0.1l0.1-0.2l0.1-0.4l-0.1-0.4l0-0.2l-0.1-0.2l-0.1-0.1l0.1-0.2l0.2-0.1l0.2,0.1
		l0.1,0.1l0.1,0.1l0.1,0.2l0.1,0.2l0.1,0.1l0.4,0l0.2-0.2l-0.3,0l-0.3,0l0-0.2l-0.1-0.1l-0.1-0.2l-0.1-0.1H86l-0.2-0.1l-0.3,0
		l-0.2,0.1l-0.3,0l-0.2-0.1L84.6,34l-0.1-0.3l-0.1-0.1v-0.3l-0.1-0.1c0,0-0.3-0.2-0.3-0.2c0-0.1-0.1-0.2-0.1-0.2l0-0.3l0.1-0.2
		l0.2,0.2l0.1,0.1l0.1,0.2h0.2h0.3h0.3l-0.1-0.1L85,32.7l-0.3-0.1l0.1-0.1l-0.2-0.1l0-0.3l0.2,0l0.4,0l0.3,0h0.3l0.2,0.2l0.1,0.2
		l0.2,0.3c0,0,0.1,0.1,0.2,0.1c0.1,0,0.1,0.1,0.2,0.1s0.1,0,0.1,0l0-0.2l-0.1-0.2l-0.1-0.1l-0.3-0.1l0-0.2c0-0.1-0.2-0.1-0.2-0.1
		h-0.3L85.8,32c0,0-0.1-0.1-0.3-0.1c-0.1,0-0.2-0.1-0.2-0.1l-0.2-0.1L85,31.7c0,0-0.1-0.1-0.1-0.2c0-0.1-0.2-0.1-0.2-0.1v-0.2
		l0.3-0.1l0.2-0.1l0.3-0.1l0.1-0.3l-0.2-0.2l-0.2-0.2l0.2-0.4l0.1-0.4l0.1-0.2l0.1-0.2l0.2-0.2h0.2l0.1-0.2l0.2-0.2
		c0,0-0.1-0.3-0.1-0.4c-0.1-0.1-0.3-0.1-0.3-0.1l-0.2-0.2l0.1-0.2l0.2-0.1l0.1,0.1l0.2,0.1l0.3-0.1l0.2,0.1l0.1,0.1l0.1-0.1v-0.3
		l0.2-0.2h0.3l0.2,0h0.1l0.1,0.2l0.3,0l0.2,0.1l0.1,0.2l0.1,0.2l0.1,0.2l0.2,0.2l0.1,0.3l0.1,0.4l0.2,0.2c0,0,0.1,0,0.2-0.1
		c0.1-0.1,0-0.2,0-0.2v-0.3c0-0.1,0.1-0.3,0.1-0.3l0.1-0.1h0.2L89.5,28l0.2-0.2l0.2,0l0.3,0h0.2l0.1-0.4l0-0.2l-0.2,0
		c0,0-0.1-0.1-0.1-0.2l0-0.2l0.3-0.1l0.1-0.2l0.3,0l0.4,0.1l0.3,0.2l0.3,0.1l0.3,0h0.4l0.1-0.2l-0.1-0.2l-0.4-0.1l-0.1-0.2l0.1-0.3
		l0.3-0.3l-0.3-0.3l-0.3-0.1l-0.3-0.3l-0.3-0.1l-0.2-0.1c0,0-0.1-0.4-0.1-0.5c0-0.1,0.1-0.2,0.1-0.2l0.1-0.3l0.1,0l0.3,0.2l0-0.2
		l0.3-0.1l0-0.3c0,0-0.3-0.1-0.4-0.1c-0.1,0-0.2-0.2-0.2-0.2v-0.4l0.1,0c0,0,0.2,0,0.4,0c0.2,0,0.1-0.2,0.1-0.2l-0.2-0.2l-0.3-0.2
		c0,0-0.2,0-0.2-0.2c0-0.1-0.2-0.2-0.2-0.2l-0.1-0.3l-0.2-0.1l-0.3-0.1h-0.4l-0.2-0.1l-0.1-0.1l-0.1-0.1L89.5,21l-0.2-0.2
		c0-0.1-0.2-0.1-0.2-0.1S89,20.5,89,20.3l-0.1-0.2c0,0,0-0.3,0-0.4c0-0.1-0.3-0.1-0.3-0.1h-0.5v-0.2h0.2l0.3,0l0.4,0.1h0.1h0.2
		l0.3,0.1L90,20l0.2,0.3l0.4,0.2l0.2,0l0.5,0.1l0.4,0.1l0.2,0.2l0.4,0.1c0,0,0-0.1,0.1-0.1c0.1-0.1,0.2,0,0.2,0c0.1,0,0.3,0,0.3,0
		l0.3,0.1l0.2,0.2l0.5,0.2l0.3,0.2l0.3,0.2l0.4,0.2l0.4,0.1l0.6,0.2l0.3,0.1l0.2,0.2l0.5,0.2l0.4,0.2l0.4,0.3l0.4,0.2l0.5,0.3
		l0.3,0.1l0.5,0.3l0.2,0.2l0.4,0.2l0.4,0l0.4,0.2l0.2,0.1c0,0,0.2,0.1,0.2,0.1c0.1,0,0.3,0.1,0.3,0.1l0.4,0.2l0.2,0.2
		c0,0,0.2,0.1,0.2,0.1c0.1,0,0.2,0.1,0.2,0.1l0.2,0.2l0.4,0.2l0.3,0.2l0.2,0.2l0.2,0.2l0.3,0.2l0.4,0.2l0.1,0.2l-0.3-0.1l-0.3-0.1
		c0,0-0.2-0.1-0.3-0.2c-0.1,0-0.3-0.1-0.3-0.1l-0.5-0.3l-0.6-0.2l-0.4-0.2l-0.1-0.2l-0.3-0.1c0,0-0.2-0.1-0.3-0.2
		c0-0.1-0.3-0.2-0.3-0.2l-0.4-0.2l-0.6-0.4c0,0-0.5-0.4-0.6-0.4c-0.1,0-0.3-0.2-0.3-0.2l-0.3-0.1l-0.2-0.2L98.5,24L98,23.7l-0.3-0.1
		l-0.4-0.3l-0.5-0.1l0.2,0.2l0.4,0.2l0.2,0.2l0.1,0.1l0.1,0.1l-0.1,0l0.2,0.2l0.1,0.1l0.3,0.3c0,0,0.3,0.2,0.4,0.3
		c0.1,0.1,0.2,0.1,0.2,0.1l0.4,0.2l0.2,0l0.2,0.2l0.3,0.2l0.2,0.1l0.2,0.2l0.2,0.1l0.1,0.1l0,0.3v0.2l0.2,0.3l0.2,0.2L101,27
		l0.1,0.3l0.2,0.3l0.1,0.2l0.1,0.2l0.1,0.3l0.2,0.2l0.4,0.3l0.3,0.2l0.3,0.3l0.3,0.3l0.5,0.5l0.4,0.3l0.4,0.5l0.2,0.2l0.3,0.3
		l0.5,0.3c0,0,0.2-0.1,0.3-0.1c0.1,0,0.1,0,0.1,0l0.1,0v-0.3l-0.1,0l-0.1-0.1l0-0.1l0.2-0.1l0.2,0.1l0.2,0.2l0.3,0.1l0.3,0.1
		l0.3,0.2l0.4,0.4l0.2,0.2l0.3,0.2l0.4,0.3l0.5,0.3l0.3,0.3l0.1,0.1l0.2,0.2l0.1,0.2l0.3,0.3l0.2,0.2l0.1,0.1l0.1,0.2l0.2,0.2
		l0.6,0.5l0.1,0.2l0.3,0.5l0.2,0.3l0.2,0.3l0.1,0.3l0.2,0.2l0.3,0.5l0.2,0.3c0,0,0.1,0.3,0.2,0.4l0,0.2h-0.2l-0.3,0.1l0.2,0.2
		l0.1,0.2l0.1,0.2l0,0.2l0.1,0.2l0.1,0.1l0.1,0.2l0.2,0.2l0.1,0.3l0.2,0.2l0.2,0.2v0.3l0.3,0.2l0.1,0.3l0,0.3l0.2,0.3l0.1,0.1
		l0.1,0.4h0.2h0.2l0.2,0.1l0.2,0.1l0.2,0l0.1,0.1l0.2,0.2l0.1,0.2l0.2,0.1l0.2,0.2l0.1,0.2l0.2,0.2l0.1,0.1l0.1,0.2l0.1,0.2l0,0.5
		c0,0,0,0.2,0,0.3c0,0.1,0,0.2,0,0.2c0,0.1-0.2,0-0.2,0l-0.2-0.4c0,0-0.1-0.1-0.1-0.2c0-0.1-0.2-0.2-0.3-0.2
		c-0.1-0.1-0.2-0.3-0.2-0.3s-0.3-0.2-0.3-0.3l-0.1-0.3l-0.3-0.1l-0.1,0.1l-0.3,0.1l-0.1-0.2l-0.1-0.3c0,0,0-0.2-0.1-0.2
		c-0.1-0.1-0.2-0.1-0.2-0.1l-0.1-0.3c0,0-0.1-0.1-0.2-0.1c-0.1,0,0,0.2,0,0.2l-0.1,0.1l-0.1,0.2l0,0.3l0.1,0.3c0,0-0.1,0.2-0.1,0.3
		c0,0.1,0,0.2,0,0.2l-0.3-0.1c0,0,0-0.1,0-0.3c0-0.1-0.1-0.1-0.1-0.1s-0.1-0.2-0.1-0.3c0-0.1,0-0.1,0-0.1l-0.1-0.3l-0.4,0v0.3v0.2
		l0.1,0.2l0.1,0.2l0,0.1c0,0,0,0.1,0,0.2c0,0,0,0.4,0,0.5l0.1,0.1l0.1,0.2c0,0,0,0.1,0,0.2c0,0.1,0,0.3,0,0.3l0,0.4l0.1,0.2l0.1,0.1
		l0.1,0.1h0.1h0.1l0.2,0.1l0.3,0.2h0.1c0,0,0-0.1,0-0.3c0-0.2,0-0.3,0-0.3l-0.1-0.4c0,0,0.1-0.1,0.2-0.1c0.1,0,0.2,0,0.2,0l0.1-0.1
		l0.1,0l0.1,0.2l0,0.1l-0.1,0.2V46l0,0.2l0,0.3l0,0.2l0.2,0.2l0.1,0.2v0.3l0.1,0.4c0,0,0.2,0.1,0.4,0.1c0.1,0,0.1,0,0.1,0h0.2
		l0.2,0.1l0.2,0.2l0.2,0.2l0.1,0.1l0.2,0.2c0,0,0.2,0.1,0.3,0.2c0.1,0.1,0.1,0.2,0.1,0.2s0,0.1-0.1,0.2c-0.1,0.1-0.1,0.1-0.1,0.1
		l0.1,0.1l0.1,0c0,0,0.1,0,0.2,0c0.1,0,0.1,0.1,0.1,0.1l0.1,0.2l0.1,0.2c0,0,0,0.4,0,0.4c0,0.1,0.1,0.2,0.1,0.2l0.1,0l0.1-0.1l0.2,0
		l0.1,0.1l0.1,0.1l0,0.3v0.2l0.1,0.2l0.1,0.2l0.1,0.3l0,0.3l0.1,0.3l0.1,0.3l0.1,0.4v0.2v0.2v0.2l0.2,0.2l0.1,0.2l0.1,0.2l0.1,0.2
		l0,0.3l0,0.2l0.1,0.3l0.1,0.3l-0.1,0.3l0.1,0.2v0.2l-0.1,0.3v0.3V57l0.1,0.3l0,0.2l-0.1,0.3l-0.2,0.2l-0.1,0.1c0,0,0,0.3,0,0.4
		c0,0.1,0,0.1,0,0.1h-0.2l0,0.3c0,0-0.1,0.1-0.1,0.2l0.1,0.2l-0.1,0.3l0.1,0.2l-0.2,0.1l0,0.3l-0.1,0.2l-0.1,0.1
		c0,0-0.1,0.2-0.1,0.3c0,0.1,0,0.2,0,0.2l0,0.3l0.2,0.2l-0.1,0.2l-0.3-0.1l0-0.1l0-0.2l-0.1-0.2l-0.1,0.1l-0.2,0.1l-0.2,0.1
		l-0.1,0.2l-0.1,0l-0.1,0.3l-0.1,0.1l0,0.3v0.2v0.2V63l0,0.3v0.2v0.2c0,0,0,0.2,0.1,0.3c0,0.1,0,0.2,0,0.2v0.2l0.1,0.2l0.2,0.2
		l0.2,0.1l0.2,0.2l0.1,0.1l0.2,0.2l0.2,0.1l0.3,0.1l0.2,0.1l0.3,0.1l0.1,0.2l0.2,0.2l0.2,0.2l0,0.2l0.1,0.2l0.1,0.2l0,0.3l0.1,0.3
		V68l0.1,0.3l0.1,0.3l-0.1,0.2l0.1,0.3l-0.1,0.3l0,0.1v0.2c0,0-0.2,0.2-0.2,0.3c0,0.1-0.1,0.2-0.1,0.2l-0.2,0.2l-0.1,0.1l-0.2,0.2
		V71l0,0.3l0,0.3l-0.1,0.3l0,0.3l-0.1,0.3l-0.2,0.2l-0.1-0.3V72l0-0.2l0-0.3h-0.2l-0.3,0l-0.2,0.1l0-0.3c0,0-0.2,0.1-0.2,0l-0.1-0.2
		l-0.2-0.2l-0.1-0.1l-0.2-0.1l-0.1-0.1H117l-0.1,0.1l-0.1,0.1h-0.2l-0.1-0.2v-0.2l-0.1-0.1l-0.2,0.1l-0.2,0.1l-0.1,0.2V71l0.1,0.3
		l0.1,0.2l-0.1,0.2l0.1,0.3l0,0.3v0.2l-0.1,0.3l0.1,0.3l-0.1,0.3l0.1,0.2v0.3v0.3l0.2,0.1l0.1-0.2l0.2,0.1l0.1,0.2l0.1,0.1l0.1,0.1
		l0.1,0.3l0.1,0.2l0.2,0.2l0.2-0.1l0.2,0.1l0.2,0.2l0.2,0.1l0.2,0.1l0.2,0.3l0.1,0.2l0,0.3l-0.1,0.3l0.1,0.2l-0.1,0.2l0.1,0.3
		l0.2,0.2l0.1,0.3l0.1,0.4l-0.1,0.2l-0.1,0.1h-0.2l-0.3,0l-0.2-0.1l-0.2-0.1l-0.1-0.2l-0.1-0.1l0-0.3l-0.2-0.2l-0.1-0.3l-0.1-0.2
		l0-0.4v-0.3l-0.1-0.2l-0.1-0.4l-0.2-0.1l-0.3-0.3l-0.2-0.2l-0.2-0.1l-0.2-0.2l-0.1-0.2l0-0.4l0-0.2l-0.1-0.4l0-0.3v-0.3l-0.1-0.4
		l0.1-0.3l-0.1-0.2l0-0.3l-0.1-0.4l-0.1-0.2l-0.1-0.2l-0.2-0.3l-0.2-0.2l-0.2-0.4l-0.1-0.3l-0.1-0.3l0-0.3v-0.3l-0.1-0.2l-0.2-0.1
		h-0.2l-0.1-0.2l-0.1,0.1v0.3v0.2l-0.2,0.2c0,0.1,0,0.2,0,0.2l-0.1,0.2l-0.1,0.3l-0.1,0.2l-0.1,0.2h-0.2l-0.1-0.2l-0.1-0.2l-0.1-0.3
		c0,0,0-0.2,0.1-0.4c0-0.1,0-0.2,0-0.2l-0.1-0.3l-0.1-0.2l-0.3-0.2l-0.1-0.3l-0.2-0.1l-0.1-0.1V68l-0.3-0.2l-0.4-0.2l-0.2-0.2
		c0,0-0.3-0.1-0.4-0.1c0-0.1-0.1-0.2-0.1-0.2l-0.1-0.3l-0.1-0.4l-0.2-0.2l-0.1-0.1l-0.2,0l-0.2,0.1l-0.2,0.2l0,0.2l0,0.3l-0.3,0.1
		l-0.1,0.3l-0.3,0.2l-0.2,0.2l-0.2,0.1h-0.2l-0.1,0l-0.1,0.3l-0.2,0.2l-0.1,0.2v0.4l0.1,0.2v0.4l0,0.3l-0.3,0.2l-0.2,0.2l-0.1,0.3
		l-0.2,0.2l-0.1,0.3l-0.1,0.2l-0.1,0.2l-0.1,0.3l0,0.3l-0.1,0.2l-0.1,0.2l-0.1,0.3l-0.2,0.2l-0.1,0.3l-0.1,0.2l-0.2,0.3l-0.2,0.2
		l0,0.2l-0.1,0.2l-0.2,0.2l-0.2,0.1l-0.2,0.1v0.2l-0.1,0.2h-0.2l-0.2,0.1l-0.1,0.3v0.3l0.1,0.3l0,0.2l0.1,0.4l0.1,0.3l0,0.2l0.1,0.2
		v0.3v0.2l-0.1,0.2l-0.1,0.2l-0.1,0.3v0.3l0.1,0.2l0,0.3v0.2c0,0,0.1,0.2,0.1,0.3c0,0.1-0.2,0.1-0.2,0.1l-0.2,0l0,0.3l-0.1,0.2V80
		l-0.1,0.1l-0.2,0.2l-0.1,0.2l-0.1,0.1v0.4l-0.2,0.2l-0.1,0.3l-0.2,0l-0.2-0.1l-0.1-0.2l-0.1-0.1l-0.1-0.1l-0.1-0.1l-0.1-0.3
		l-0.2-0.2l-0.1-0.2l0-0.3l-0.1-0.2l-0.1-0.2l-0.1-0.2l0-0.1v-0.2l-0.2-0.2l-0.1-0.3l-0.2-0.2l-0.2-0.2l0-0.2l-0.1-0.2l0-0.3
		l-0.2-0.1l-0.1-0.2l0-0.2l-0.2-0.2l-0.1-0.1l-0.2-0.2l0-0.3l-0.2-0.3L99.1,76L99,75.7l-0.2-0.3l-0.1-0.4l-0.2-0.3l-0.1-0.1
		l-0.1-0.2l-0.1-0.2v-0.3l0-0.2l-0.2-0.3L98,73.2l0-0.1v-0.2l0.1-0.2v-0.3l0-0.3L97.9,72l-0.1-0.2l0-0.3l-0.1-0.1v-0.3l0-0.2h-0.2
		l-0.1,0.2v0.3v0.3l0,0.2L97.2,72l-0.1,0.2l-0.2,0.1l-0.2,0.1h-0.2l-0.2-0.1l-0.2,0L96,72.3c0,0-0.2-0.1-0.2-0.2
		c0,0-0.2-0.1-0.2-0.1l-0.1-0.2l-0.3-0.1v-0.2l0.2-0.1l0.2-0.1l0.2-0.1l0.1-0.2l0-0.3l-0.1,0.2l-0.2,0.1l-0.2,0h-0.3h-0.2h-0.3
		l-0.2-0.2l-0.2-0.3L94,70.4l-0.2-0.1l-0.3-0.1l-0.1-0.4l-0.2-0.2l-0.1-0.1H93v-0.2l-0.2-0.1l-0.2,0.1l-0.3,0.1l-0.2,0.1l-0.4,0.1
		h-0.2l0,0.1h-0.3H91l-0.2,0l-0.2,0l-0.1,0.1L90.4,70l-0.3,0h-0.3l-0.2,0.1l-0.2,0.1l-0.2,0.1H89l-0.2,0l-0.3,0h-0.3L88,70.2h-0.3
		l-0.2-0.1l-0.2,0l-0.3,0l-0.1-0.1h-0.3h-0.3L86,70l-0.2-0.2l0-0.2l-0.1-0.3L85.5,69L85.3,69H85l-0.4,0.2l-0.2,0.1l-0.2,0.2
		l-0.2,0.1l-0.2,0.1h-0.3l-0.3-0.1l-0.3,0l-0.2-0.1l-0.1-0.2l-0.4-0.1c0,0-0.2-0.1-0.2-0.2c0-0.1-0.1-0.1-0.1-0.1l-0.2-0.1l-0.2,0
		h-0.3l-0.1-0.2l-0.1-0.2L81,68l-0.2-0.4c0,0-0.2-0.2-0.2-0.3c0-0.1-0.1-0.1-0.1-0.1L80.3,67l-0.1-0.3L80,66.6l-0.1,0l-0.2,0
		l-0.1-0.1l-0.2,0l0-0.2h-0.3v0.2l-0.1,0.2L79,66.7l-0.2,0.1h-0.2V67v0.2l0,0.1h-0.2l-0.1,0.2l0.3,0.1l0.2,0.2l0.1,0.1V68l0.2,0.2
		l0,0.2l0.1,0.2l0.2,0.2l0.2,0.3l0.1,0.2l0.2,0.1l0.2,0.1l0.1,0.1l0.1,0.2l0.1,0.2l0,0.1v0.2v0.2l0.1,0l0.1,0.1l0.1,0.2l0.1,0.3
		l0.2,0.2l0-0.2L81,71v-0.2l0-0.2l0.2-0.1L81,70.3l0.1-0.2l0.2-0.1l0.1,0.1l0.1,0.1l0,0.3l0,0.1l0.1,0.2l0,0.2l-0.1,0.1l0,0.1l0,0.1
		l0.1,0.1l0.1,0.1l0.2,0.1l0.2,0h0.3l0.2-0.1l0.2-0.1l0.3,0h0.3h0.3l0.3-0.2l0.1-0.2l0.2-0.2l0.2-0.2l0.1-0.2l0.2-0.3l0.1-0.2
		l0.1-0.2l0.1-0.3l0.2,0.2v0.2v0.2v0.3v0.2l0.1,0.3l0.1,0.2l0.1,0.2l0.2,0.1l0.3,0.1l0.3,0.1l0.3,0.1l0.3,0.1l0.1,0l0.1,0.1l0.1,0.1
		l0.1,0.1l0.1,0.2l0.1,0.1l0.2,0.1l0.1,0v0.1l0,0.2l0,0.2l-0.1,0.1l0,0.2l-0.2,0.1l-0.1,0.3l-0.1,0.1l-0.1,0.2l0,0.2l-0.1,0.1h-0.2
		l-0.1,0.1l-0.1,0.1v0.3l-0.1,0.3l0,0.3l0.1,0.2v0.1l-0.2,0.1L86.4,76h-0.2l-0.1,0.1l-0.1,0.1l-0.1,0.2l-0.1,0.2l0,0.2l-0.2,0.1
		l-0.2,0.1h-0.2L85,77l-0.1,0.1l-0.1,0.2l0,0.2l-0.3,0.2l-0.1,0.1h-0.2h-0.2l-0.1,0l-0.2,0.1L83.5,78l-0.1,0.1l-0.2,0.1L83,78.2
		h-0.2l-0.2,0.1l-0.1,0.2l-0.1,0.1l0,0.1L82.3,79l-0.2,0l-0.2,0.1l-0.2,0.2l-0.3,0.2h-0.3l-0.1,0.1l-0.2,0.1l-0.2,0.1L80.2,80
		l-0.3,0.1l-0.2,0.1l-0.1,0.1l-0.1,0.1l-0.1,0.1H79l-0.2,0l-0.2,0l-0.1,0.2l-0.1,0.1l-0.2,0L78,81l-0.2,0h-0.3h-0.3h-0.1h-0.2
		l-0.2,0.2l-0.2,0.1l-0.1,0.1l-0.2,0.1l-0.2,0.1h-0.3h-0.3l-0.3,0l-0.1-0.1h-0.1l0-0.2l-0.1,0l0-0.3l-0.1-0.1v-0.3l-0.1-0.1l0-0.2
		l-0.1-0.2l0-0.4l-0.1-0.2l0-0.3l0-0.2l0-0.3l0-0.2l-0.1-0.3L74.4,78l-0.1-0.2l-0.1-0.1L74,77.5l-0.1-0.1l-0.1-0.1l-0.1-0.2
		l-0.2-0.1l0-0.2l-0.1-0.2v-0.2l-0.1-0.1v-0.3l0-0.3l-0.2-0.2l0-0.2l-0.1-0.1l-0.1-0.2l-0.2-0.1l-0.1-0.1l-0.2,0L72,74.9l-0.2-0.1
		l-0.1-0.2v-0.3l-0.1-0.3v-0.3v-0.3l0-0.2V73l-0.1-0.2l-0.2-0.3l-0.1-0.2l-0.1-0.2l-0.2-0.3l-0.1-0.2l-0.2-0.2c0,0,0,0-0.1,0
		c-0.1,0-0.1,0-0.1,0l-0.1-0.2l-0.1-0.1l-0.1-0.2l0-0.4l-0.1-0.2l0-0.2L70,70.3l-0.1-0.2L69.7,70l0-0.3l0-0.2l-0.2-0.1l-0.2-0.3
		l-0.1-0.2l0-0.3L69,68.4l-0.1-0.2l-0.3-0.1v-0.2l0.1-0.2l0.1-0.4l-0.1-0.1l-0.1,0.3l-0.1,0.2l0,0.2L68.3,68v0.2l-0.1,0.1L68,68.3
		l-0.2-0.2l-0.1-0.1v-0.2l-0.1-0.2l-0.1-0.3l0-0.4l-0.2-0.3l-0.1-0.3l-0.2-0.1l0,0.2v0.2l0.1,0.2l0,0.2l0.1,0.3l0.1,0.2l0,0.2
		l0.1,0.3l0.1,0.2l0.1,0.2l0.2,0.2l0,0.2l0,0.2l0.1,0.2l0.1,0.2l0.1,0.3l0.1,0.3l0.2,0.2v0.3l0.2,0.4l0.1,0.3l0.2,0.3l0.1,0.1
		l0.1,0.1v0.2V72l0,0.3l0,0.2l0,0.3l0.1,0.2l0.3,0.2l0.1,0.2l0.1,0.1l0.1,0.2l0.1,0.2V74l0,0.1l0.1,0.2v0.2l0,0.2l0.1,0.1v0.3
		L70,75.2l0.1,0.2v0.2v0.3l0.1,0.4l0.1,0.1l0.1,0.1l0.2,0.1l0.2,0.2l0.1,0.2l0.2,0.2l0,0l0.1,0.3l0.2,0.2l0.1,0.2v0.2V78l0,0.2
		l0,0.1l0,0.2l0.1,0.2l0.1,0.3l0.1,0.2l0.2,0.1l0.2,0.1l0.2,0l0.2,0.1l0.2,0.2l0.2,0.1l0.3,0.1l0.1,0.1l0.1,0.2l0.2,0.2l0.2,0.1
		l0.2,0.2l0.2,0.2l0.1,0.2l0.2,0.1l0.2,0.2l0.1,0.2l0.1,0.2L75,82l0,0.1l-0.2,0.1l-0.2,0l-0.2,0.1l-0.1,0.1l0.1,0.1h0.2h0.3l0.1,0.1
		l0.1,0.1l0.1,0.1l0.2,0.2l0,0.1l0.1,0.2l0.2,0l0.2,0h0.3l0.2-0.1l0.2-0.2l0.3-0.1h0.2l0.1,0.1h0.3l0.3-0.2l0.2-0.1l0.2-0.2h0.3h0.4
		l0.2-0.1l0.3,0h0.2l0.2,0l0.2-0.1l0.3-0.1h0.3l0.2-0.1l0.2,0l0.2-0.1l0.1,0l0.1,0.1l0,0.1v0.4v0.3l-0.1,0.3l-0.1,0.1L81.3,84l0,0.3
		l-0.1,0.3l-0.3,0.3l0,0.3l-0.2,0.2l-0.1,0.3l-0.1,0.2l-0.2,0.4L80,86.4l-0.2,0.3L79.8,87l-0.1,0.3l-0.1,0.2l-0.2,0.1l-0.2,0.3
		L79,87.9l-0.1,0.3l-0.1,0.3l-0.2,0.1l-0.3,0.2l-0.1,0.2l-0.2,0.2l-0.3,0.2l-0.1,0.2l-0.3,0.2L77,90.1l-0.3,0.1l-0.4,0.2l-0.3,0.2
		L75.6,91l-0.4,0.3l-0.3,0.2l-0.3,0.3L74.4,92l-0.2,0.2L74,92.4l-0.2,0.2l-0.3,0.2l-0.3,0.1L73,93.2l-0.2,0.2l-0.2,0.2l-0.3,0.2
		l-0.1,0.3l-0.2,0.2l-0.1,0.4l-0.2,0.2l-0.2,0.2l-0.1,0.3l-0.1,0.4L71.2,96l0.1,0.2l0.2,0.2l0.3,0.1l0,0.3v0.4v0.3l0,0.3l0.1,0.3
		l0.1,0.2l0.1,0.4l0.2,0.2l0.3,0.2v0.3l-0.1,0.2l-0.1,0.3l0,0.2l0.1,0.3v0.3v0.3v0.3v0.3l0.1,0.3l-0.1,0.3l-0.2,0.3l-0.2,0.1l-0.2,0
		l-0.2,0.2l-0.3,0.3h-0.4h-0.3l-0.5,0.1l-0.4,0.3l-0.2,0l-0.3,0.4l-0.3,0l-0.4,0.2l-0.3,0.2l-0.3,0.2l0.1,0.3l0.1,0.2l0.2,0.3
		l0.2,0.3v0.3v0.3l-0.1,0.3l-0.1,0.3l-0.3,0.1l-0.2,0.1h-0.3l-0.5,0.2l-0.3,0.2l0.1,0.2l0.1,0.2l-0.1,0.4l0,0.2l-0.1,0.3l-0.2,0.2
		h-0.4L66,109l-0.2,0.2l-0.3,0.3l-0.1,0.3h-0.2l-0.3,0.1l-0.3,0.1l-0.3,0.1l-0.3,0.2h-0.4h-0.4h-0.5h-0.4l-0.3-0.1l-0.3,0l-0.3-0.1
		l-0.4-0.1h-0.2h-0.3H60c0,0-0.3,0.1-0.4,0c-0.1-0.1-0.3-0.1-0.3-0.1l-0.2-0.1c0,0-0.3,0-0.4,0c-0.1,0-0.1-0.1-0.1-0.2
		c0-0.1-0.4-0.1-0.4-0.1l-0.5-0.3l-0.3-0.2c0,0-0.1-0.3-0.1-0.3c0-0.1,0-0.3,0-0.3l-0.3-0.2l-0.2-0.2c0,0-0.1-0.3-0.2-0.4
		c0-0.1-0.3-0.1-0.4-0.1c-0.1,0-0.2-0.2-0.3-0.3c-0.1,0-0.1-0.3-0.1-0.3l-0.2-0.2l-0.3-0.1c0,0-0.2-0.1-0.3-0.2
		c0-0.1-0.2-0.2-0.2-0.2l-0.2-0.2l-0.2-0.2l-0.3-0.3l-0.2-0.5l-0.3-0.4l-0.1-0.3l-0.2-0.3l-0.3-0.3l-0.1-0.5c0-0.1-0.2-0.4-0.2-0.4
		l-0.2-0.2l-0.3-0.2c0,0-0.1-0.2-0.2-0.3c-0.1-0.1-0.2-0.3-0.2-0.3l-0.2-0.3l-0.2-0.3l-0.3-0.3l-0.3-0.4l-0.4-0.3l-0.2-0.2l-0.2-0.4
		l0-0.6c0,0,0.1-0.4,0.1-0.5c0-0.1,0-0.6,0-0.7c0,0,0.2-0.5,0.2-0.6c0-0.1,0.2-0.4,0.2-0.4l0.3-0.1c0,0,0.1-0.2,0.1-0.3l0-0.4l0-0.5
		c0-0.1-0.2-0.2-0.2-0.2l-0.2-0.3l-0.1-0.3l-0.1-0.2l0.1-0.3l0-0.3l-0.3-0.3l-0.1-0.2l-0.1-0.3l-0.2-0.3l-0.1-0.4
		c0,0-0.2-0.3-0.2-0.3c0-0.1-0.1-0.5-0.1-0.5l-0.2-0.5l-0.3-0.5l-0.3-0.4l-0.3-0.3c0,0-0.3-0.3-0.3-0.4c0-0.1-0.2-0.3-0.2-0.3
		s-0.2-0.3-0.3-0.3c-0.1,0-0.2-0.4-0.2-0.4s0-0.2,0-0.3c0-0.1-0.3-0.2-0.3-0.2l-0.1-0.3v-0.4l0.1-0.3l0.2-0.2c0,0,0-0.3,0-0.4
		c0.1-0.1,0-0.2,0-0.2l0-0.4l0.1-0.2l0.2-0.3l0-0.4v-0.3v-0.4l-0.2-0.3c0,0-0.2-0.1-0.2-0.1c-0.1,0-0.1-0.4-0.1-0.4l-0.4-0.5
		c0,0-0.2,0.2-0.3,0.2c-0.1,0-0.2-0.1-0.3-0.1c-0.1,0-0.2-0.2-0.2-0.2s-0.4,0-0.5,0c-0.1,0-0.4-0.1-0.5-0.1c-0.1,0-0.1-0.3-0.1-0.3
		l-0.2-0.4l0-0.3l-0.1-0.4l-0.1-0.4c0,0-0.2-0.2-0.3-0.3c-0.2,0-0.3-0.3-0.3-0.3l-0.2-0.1c0,0-0.4-0.1-0.5-0.1
		c-0.1,0-0.2-0.1-0.2-0.1l-0.3-0.1h-0.3l-0.2-0.1h-0.2l-0.2,0l-0.2,0l-0.4,0.1H41L40.5,80.2z M50.6,53.7v-0.2l0.1-0.1l0.2,0l0.2,0.1
		L51,53.7L51,53.8l-0.1,0L50.6,53.7z M51.3,53.7l0.1-0.2l0.2,0l0,0.2l-0.3,0.1L51.3,53.7z M55.2,52.7l0,0.4L55,53.3l-0.1,0.2l-0.2,0
		L54.6,53l0.1-0.3l0-0.2l0.2,0l0.2-0.1h0.1v0.1L55.2,52.7z M54.6,53.7l0.1,0.1V54l-0.1,0.2l-0.1,0.3l0,0.4c0,0-0.2,0.1-0.2,0.2
		c0,0.1-0.1,0.3-0.1,0.3l-0.2-0.1L54,55.5l-0.3,0.1l-0.1-0.1c0,0-0.1-0.1-0.1-0.3c0-0.1,0-0.3,0-0.3l0-0.2l0.2-0.1l0.1-0.3l0-0.3
		v-0.2l0.3-0.1l0.2-0.1H54.6z M55.5,57.3l-0.2-0.1V57l0.2-0.1h0.2l0.2,0.1l0.1,0.1l0.1,0.2h0.2l0.2,0H57l0.2,0v0.2L57,57.5l-0.2,0.3
		L56.8,58l0,0.1l0,0.3l-0.3,0.1l-0.1-0.2l-0.1-0.1L56.1,58l-0.1-0.1c0,0-0.2-0.1-0.2-0.2c0-0.1,0-0.3,0-0.3L55.5,57.3z M61.4,61
		v-0.1l0.1,0l0.4-0.1l0.3,0.1l0.1,0.2h0.2l0.2,0l0.2,0.2h0.3l0.1,0.2c0,0,0.1,0.1,0,0.1c-0.1,0-0.4,0-0.4,0l-0.3,0.1l-0.3-0.2
		l-0.1,0c0,0,0,0-0.2,0c-0.1,0-0.3-0.1-0.3-0.1s-0.2,0-0.3,0C61.5,61.2,61.4,61,61.4,61z M67.5,62.2v-0.1l0.3-0.2l0.3,0h0.4l0.1,0
		l0.4-0.2l0.3-0.1L69,61.9l-0.2,0.2l-0.2,0.2l-0.3,0.3c0,0-0.1,0-0.2,0c-0.1,0-0.5,0-0.5,0l-0.1-0.1L67.5,62.2z M61.2,42.9v0.2
		l-0.1,0.2c0,0,0,0.1-0.1,0.1c0,0-0.4,0-0.4,0c0-0.1-0.1-0.4-0.1-0.4l0,0.2l-0.1,0.1l-0.3-0.2v-0.2h0.3l0.1,0.1l0.1-0.2H61
		L61.2,42.9z M88.7,24.1c0.1,0,0.3,0.2,0.3,0.2l0.2,0.1l0.2,0.2c0,0,0,0.1,0.1,0.2c0,0.1,0,0.2,0,0.2h-0.3h-0.3h-0.2l-0.2-0.1l0-0.2
		c0,0,0-0.1,0.1-0.3l0-0.3C88.4,24.1,88.6,24.1,88.7,24.1z M88.7,23.8l0-0.2H89l0.1,0.1V24l-0.3,0L88.7,23.8z M90.1,25v-0.4
		c0,0,0.2,0,0.3,0c0.2,0,0.1,0.1,0.1,0.1l0.1,0.3l-0.1,0.1h-0.3L90.1,25z M118.4,62.7l0.1-0.3l0.2-0.4l0.2-0.3l0.2,0.1l0,0.4
		c0,0,0.1,0.3,0.1,0.4c0,0.1,0,0.3,0,0.3c0,0.2,0,0.5,0,0.5l-0.2,0.3l-0.2,0h-0.2l-0.1-0.1l0-0.2v-0.2L118.4,62.7z"/>
</g>
</svg>
