<?xml version="1.0" encoding="utf-8"?>
<!-- Generator: Adobe Illustrator 18.1.0, SVG Export Plug-In . SVG Version: 6.00 Build 0)  -->
<svg version="1.0" id="Layer_1" xmlns="http://www.w3.org/2000/svg" xmlns:xlink="http://www.w3.org/1999/xlink" x="0px" y="0px"
	 viewBox="0 0 150 150" enable-background="new 0 0 150 150" xml:space="preserve">
<g>
	<g>
		<polygon fill="#F16830" points="18.7,91 18.6,91 18.7,91 		"/>
		<path fill="#F16830" d="M128.9,91c-6.3,23.8-27.8,41.5-53.7,41.5c-24.9-0.1-45.7-16.5-52.8-39.1l12.1,8l-7.9-13.7L18.7,74
			l-7.9,13.7l-7.9,13.7l11.8-7.8c7.4,26.6,31.6,46.2,60.5,46.2c29.9,0,54.9-20.9,61.4-48.8H128.9z M18.7,91L18.7,91L18.7,91L18.7,91
			z"/>
		<path fill="#F16830" d="M21.5,63.2c6.3-23.8,27.8-41.5,53.7-41.5c24.9,0.1,45.7,16.5,52.8,39.1l-12.1-8l7.9,13.7l7.9,13.7
			l7.9-13.7l7.9-13.7l-11.8,7.8c-7.4-26.6-31.6-46.2-60.5-46.2c-29.9,0-54.9,20.9-61.4,48.8H21.5z M131.7,63.2L131.7,63.2
			L131.7,63.2L131.7,63.2z"/>
	</g>
	<path fill="#F16830" d="M118.9,76.1c-1.2-0.6-4.9-2.2-7.6-3.2c-0.1,0.2-4.6-8.8-6.2-11.7c-0.4-0.8-1.5-0.9-2.9-0.9
		c-0.1,0-5.3,0-10.7,0L80.8,91.3l9,0c0.1-0.3,0.2-1,0.4-1.5c1.7-5,7.3-9,12.6-9c3.7,0,6.2,2.1,6.8,5l7.7,0c1.2-3.6,2.6-7.7,2.6-7.7
		S120.4,76.8,118.9,76.1"/>
	<polygon fill="#B54E21" points="38.4,80.1 83,80.2 91,56.8 46.4,56.7 	"/>
	<path fill="#F16830" d="M119.6,77.4"/>
	<path fill="#00A4AC" d="M41.1,89.8C40.7,91,40.6,92,40.7,93c0.4,2.6,2.5,4.4,5.7,4.4c3.2,0,6.6-1.8,8.7-4.4c0.8-1,1.4-2,1.8-3.1
		c1.4-4.2-0.9-7.5-5.3-7.5C47.2,82.3,42.5,85.7,41.1,89.8"/>
	<polygon fill="#F16830" points="117.1,91.4 108.3,91.4 109.8,87 118.6,87 	"/>
	<path fill="#F16830" d="M39.6,89.7c1.2-3.6,4.4-6.6,8.1-8.1l-9.7,0l-3.3,9.6l4.6,0C39.3,90.8,39.4,90.2,39.6,89.7"/>
	<path fill="#F16830" d="M56,81.6c2.7,1.5,3.8,4.6,2.5,8.1c-0.2,0.5-0.5,1.1-0.8,1.5l21.6,0l3.3-9.7H56z"/>
	<path fill="#00A4AC" d="M91.8,89.9c-0.4,1.1-0.5,2.2-0.4,3.1c0.4,2.6,2.5,4.4,5.7,4.4c3.2,0,6.6-1.8,8.7-4.4c0.8-1,1.4-2,1.8-3.1
		c1.4-4.2-0.9-7.5-5.3-7.6C97.9,82.4,93.2,85.8,91.8,89.9"/>
	<polygon fill="#00A4AC" points="90.7,55.7 38.2,55.7 91.5,53.4 	"/>
	<polygon fill="#00A4AC" points="88.5,96.3 55.5,96.3 89.1,94.9 	"/>
	<polygon fill="#00A4AC" points="89.3,93.8 56.2,93.8 89.8,92.3 	"/>
</g>
</svg>
