<?xml version="1.0" encoding="utf-8"?>
<!-- Generator: Adobe Illustrator 18.1.0, SVG Export Plug-In . SVG Version: 6.00 Build 0)  -->
<svg version="1.1" id="Layer_1" xmlns="http://www.w3.org/2000/svg" xmlns:xlink="http://www.w3.org/1999/xlink" x="0px" y="0px"
	 viewBox="0 0 1000 1000" enable-background="new 0 0 1000 1000" xml:space="preserve">
<g>
	<path fill="none" d="M525.4,431.4c-8.9,13.7-26.2,42.2-42.7,80.9c44.5-0.9,96.2-6,152.4-19.2l4.8,20.6
		c-62,14.6-118.4,19.7-165.9,20.2c-9.2,24.1-17.6,51.4-23.5,80.8c52-1.1,116.4-9,195-29.4l5.3,20.5
		c-82.5,21.4-149.9,29.5-204.1,30.4c-3.7,24.1-5.6,49.3-4.9,75.5c57-0.2,124.4-8.2,199.8-31l6.1,20.3
		c-77.5,23.4-146.4,31.8-204.8,32.3c2.4,29.3,8.4,59.5,18.9,90c53.2-0.1,116.2-7.5,186.8-28.8l6.1,20.3c-69.6,21-131.7,29-184.8,30
		c10.7,25.6,24.8,51.3,42.9,76.8c135.9-0.3,246.4-110.2,246.4-245.2C759.1,545.4,655.4,438.2,525.4,431.4z"/>
	<path fill="#FFB602" d="M487.8,321c-55.3,7.3-98.2,48.9-100.7,99.9c30.4-14.8,63.7-24.3,98.9-27.5L487.8,321z"/>
	<path fill="#FFB602" d="M512.2,392.2c39.1,0,76.4,7.9,110.4,22.1c-6.3-52.9-56.1-94.1-116.8-94.4l0.9,72.4
		C508.6,392.3,510.4,392.2,512.2,392.2z"/>
	<path fill="#97A822" d="M512.2,431c-16.5,0-32.6,1.6-48.2,4.7c-9.3,11-28.8,36.7-46.2,74.8c19.2,1.4,41,2.1,64.9,1.7
		c16.5-38.6,33.8-67.1,42.7-80.9C521,431.1,516.6,431,512.2,431z"/>
	<path fill="#97A822" d="M409,531.4c-3.7,9.8-7.2,20.2-10.4,31.2c-4.6,16.4-8,33-10.3,49.8c18.3,1.8,38.9,2.6,62,2.1
		c6-29.4,14.4-56.7,23.5-80.8C449.9,534,428.1,533,409,531.4z"/>
	<path fill="#97A822" d="M424.4,843.7c10.3,24.1,22.6,48.2,36.8,72.4c16.5,3.4,33.5,5.3,51,5.3c0.2,0,0.3,0,0.5,0
		c-18.2-25.5-32.3-51.2-42.9-76.8C453.8,844.9,438.7,844.6,424.4,843.7z"/>
	<path fill="#97A822" d="M323.8,517.9c-17.1,20.1-31,42.9-41,67.7c13.2,6.7,40.6,18,84.6,24.4c2.7-19.9,6.6-38,11.2-54.2
		c2.7-9.3,5.6-18.1,8.7-26.6C354.1,525.3,331.9,520,323.8,517.9z"/>
	<path fill="#97A822" d="M317.1,826.3c29.3,37.4,69.2,66.2,115.2,81.9c-12.5-22.8-23-44.9-31.7-66.3
		C366.8,838.4,338.8,832.4,317.1,826.3z"/>
	<path fill="#97A822" d="M446.5,636.1c-22.3,0.4-42.4-0.5-60.4-2.2c-1.9,24.8-1.3,50,1.6,75.5c16.7,1.4,34.7,2.3,53.9,2.2
		C440.9,685.5,442.8,660.2,446.5,636.1z"/>
	<path fill="#97A822" d="M340.6,500.1c11.8,2.5,30.5,5.9,54.8,8.5c11.5-26.8,24.3-48.1,35-63.7C396.5,456.8,366,475.8,340.6,500.1z"
		/>
	<path fill="#97A822" d="M365.1,631.5c-44.6-6.4-73.6-17.7-89.5-25.6c-6.7,22.3-10.4,45.9-10.4,70.3c0,2.8,0.1,5.6,0.2,8.4
		c21.3,7.4,55.6,17.1,100.8,22.6C363.4,680,363.3,654.7,365.1,631.5z"/>
	<path fill="#97A822" d="M267.4,707.9c4.2,32.3,14.8,62.7,30.5,89.8c19.7,6.9,51.7,16.1,94.1,21.3c-11.2-31.6-18.6-61.5-22.9-89.6
		C325.3,724.5,291,715.7,267.4,707.9z"/>
	<path fill="#97A822" d="M390.9,731.5c5,29.7,13.2,59.7,24.6,89.9c14.4,1.1,29.8,1.8,46.2,1.8c-10.5-30.5-16.4-60.7-18.9-90
		C424.4,733.4,407.1,732.7,390.9,731.5z"/>
	<path fill="#698948" d="M622.6,414.3c-34-14.2-71.3-22.1-110.4-22.1c-1.8,0-3.6,0.1-5.4,0.1l-0.9-72.4l-0.1-7.1
		c51.4,27.4,107-28.2,107-28.2c-70.8-33.1-97.4-10.8-107.2,7.5l-2.1-168.9c38.9-39.4-2-101.2-2-101.2c-52.1,70.6-13.8,94.9-1.7,99.9
		h-6.9l-4.2,169.3c-8.6-18.7-34.1-45.1-108.7-10.3c0,0,56.5,56.5,108.2,27.6l-0.3,12.4l-1.8,72.4c-35.2,3.2-68.6,12.7-98.9,27.5
		c-95,46.2-160.7,143.3-160.7,255.3c0,156.6,128.2,284,285.8,284c157.6,0,285.8-127.4,285.8-284C798,558.5,725.5,457.3,622.6,414.3z
		 M367.4,610c-44.1-6.4-71.5-17.7-84.6-24.4c10-24.8,23.9-47.6,41-67.7c8.1,2.1,30.3,7.4,63.5,11.3c-3.1,8.5-6,17.2-8.7,26.6
		C374,571.9,370.1,590.1,367.4,610z M317.1,826.3c21.6,6.1,49.7,12.1,83.5,15.6c8.7,21.4,19.2,43.5,31.7,66.3
		C386.3,892.5,346.4,863.7,317.1,826.3z M297.8,797.8c-15.7-27.1-26.3-57.5-30.5-89.8c23.6,7.7,58,16.6,101.7,21.5
		c4.3,28.1,11.7,58,22.9,89.6C349.5,813.8,317.5,804.7,297.8,797.8z M265.4,684.6c-0.1-2.8-0.2-5.6-0.2-8.4c0-24.4,3.7-48,10.4-70.3
		c15.9,7.9,44.9,19.3,89.5,25.6c-1.8,23.2-1.8,48.5,1.1,75.7C321,701.7,286.8,692,265.4,684.6z M340.6,500.1
		c25.3-24.3,55.8-43.3,89.7-55.2c-10.7,15.5-23.5,36.9-35,63.7C371.1,506,352.4,502.6,340.6,500.1z M512.7,921.4c-0.2,0-0.3,0-0.5,0
		c-17.5,0-34.5-1.8-51-5.3c-14.3-24.1-26.5-48.3-36.8-72.4c14.3,0.8,29.4,1.2,45.4,0.9c53.1-1,115.2-9,184.8-30l-6.1-20.3
		c-70.7,21.3-133.6,28.7-186.8,28.8c-16.4,0-31.8-0.6-46.2-1.8c-11.4-30.2-19.6-60.2-24.6-89.9c16.2,1.2,33.5,1.8,51.9,1.7
		c58.4-0.5,127.2-9,204.8-32.3l-6.1-20.3c-75.5,22.8-142.9,30.8-199.8,31c-19.2,0.1-37.1-0.8-53.9-2.2c-3-25.5-3.5-50.7-1.6-75.5
		c18,1.7,38.1,2.6,60.4,2.2c54.3-0.9,121.7-9,204.1-30.4l-5.3-20.5c-78.6,20.4-143,28.3-195,29.4c-23.1,0.5-43.7-0.4-62-2.1
		c2.3-16.9,5.7-33.5,10.3-49.8c3.1-11,6.6-21.4,10.4-31.2c19.1,1.6,40.9,2.6,64.9,2.4c47.6-0.4,104-5.6,165.9-20.2L635,493
		c-56.2,13.2-107.9,18.3-152.4,19.2c-23.9,0.5-45.7-0.3-64.9-1.7c17.4-38.2,36.9-63.9,46.2-74.8c15.6-3.1,31.7-4.7,48.2-4.7
		c4.4,0,8.8,0.1,13.2,0.4c130.1,6.8,233.8,114,233.8,244.8C759.1,811.2,648.6,921.1,512.7,921.4z"/>
	<path fill="#698948" d="M509.8,241.3c62.3,12.7,95.2-65.6,95.2-65.6C488.3,170,509.8,241.3,509.8,241.3z"/>
	<path fill="#698948" d="M507.3,166.2c49.3,10,75.3-51.8,75.3-51.8C490.3,109.8,507.3,166.2,507.3,166.2z"/>
	<path fill="#698948" d="M482.8,237.8c0,0,21.5-71.3-95.2-65.6C387.6,172.2,420.5,250.4,482.8,237.8z"/>
	<path fill="#698948" d="M485.3,162.7c0,0,17-56.4-75.3-51.9C410,110.8,436,172.7,485.3,162.7z"/>
</g>
</svg>
