<?xml version="1.0" encoding="iso-8859-1"?>
<!-- Generator: Adobe Illustrator 13.0.0, SVG Export Plug-In . SVG Version: 6.00 Build 14948)  -->
<!DOCTYPE svg PUBLIC "-//W3C//DTD SVG 1.1//EN" "http://www.w3.org/Graphics/SVG/1.1/DTD/svg11.dtd">
<svg version="1.1" id="Layer_1" xmlns="http://www.w3.org/2000/svg" xmlns:xlink="http://www.w3.org/1999/xlink" x="0px" y="0px"
	 width="100px" height="100px" viewBox="0 0 100 100" enable-background="new 0 0 100 100" xml:space="preserve">
<g>
	<path fill="#4674B7" d="M26.432,35.809c6.327-2.795,21.455-4.75,22.655,10.296c0.954,11.939-22.062,27.185,0,31.444
		c-16.411-0.585-15.548-6.981-15.388-11.142C33.929,60.336,53.889,31.574,26.432,35.809z"/>
	<path fill="#4674B7" d="M74.282,35.809c-6.322-2.795-21.455-4.75-22.655,10.296c-0.949,11.939,22.062,27.185,0,31.444
		c16.41-0.585,15.548-6.981,15.393-11.142C66.785,60.336,46.825,31.574,74.282,35.809z"/>
	<g>
		<path fill="#4674B7" d="M50.357,19.358c-4.469,0-8.087,3.623-8.087,8.087c0,4.468,3.618,8.09,8.087,8.09
			c4.468,0,8.086-3.622,8.086-8.09C58.443,22.981,54.825,19.358,50.357,19.358z M52.116,29.204v4.473h-3.519v-4.473H44.13v-3.519
			h4.468v-4.468h3.519v4.468h4.473v3.519H52.116z"/>
	</g>
	<path fill="#4674B7" d="M26.432,35.809c6.327-2.795,21.455-4.75,22.655,10.296c0.954,11.939-22.062,27.185,0,31.444
		c-16.411-0.585-15.548-6.981-15.388-11.142C33.929,60.336,53.889,31.574,26.432,35.809z"/>
	<g>
		<path fill="#6D6E70" d="M23.45,44.813c1.04-2.596,11.206-5.417,12.84,4.75c1.634,10.17-17.888,26.872,13.14,28.579
			c-22.859,1.261-20.775-8.94-20.598-10.652C29.227,63.799,39.042,39.323,23.45,44.813z"/>
	</g>
	<path fill="#4674B7" d="M74.282,35.809c-6.322-2.795-21.455-4.75-22.655,10.296c-0.949,11.939,22.062,27.185,0,31.444
		c16.41-0.585,15.548-6.981,15.393-11.142C66.785,60.336,46.825,31.574,74.282,35.809z"/>
	<g>
		<path fill="#6D6E70" d="M77.264,44.813c-1.04-2.596-11.206-5.417-12.84,4.75c-1.634,10.17,17.893,26.872-13.14,28.579
			c22.859,1.261,20.779-8.94,20.598-10.652C71.491,63.799,61.676,39.323,77.264,44.813z"/>
	</g>
</g>
</svg>
