<?xml version="1.0" encoding="utf-8"?>
<!-- Generator: Adobe Illustrator 18.1.0, SVG Export Plug-In . SVG Version: 6.00 Build 0)  -->
<svg version="1.1" id="Layer_1" xmlns="http://www.w3.org/2000/svg" xmlns:xlink="http://www.w3.org/1999/xlink" x="0px" y="0px"
	 viewBox="0 0 150 150" enable-background="new 0 0 150 150" xml:space="preserve">
<g>
	<path fill="none" d="M35.1,75.7C26,75.8,19,77.1,15.3,78c0,0,0,0,0,0C19,77.2,26,75.9,35.1,75.7C35.1,75.7,35.1,75.7,35.1,75.7z"/>
	<path fill="#CD926A" d="M94.7,38.3c0-0.3,0.1-0.7,0.1-1c0-9.9-8-17.9-17.9-17.9c-9.9,0-17.9,8-17.9,17.9c0,0.6,0,1.2,0.1,1.7
		C67,36.9,80.6,34.7,94.7,38.3z M76.8,22.5c7.8,0,14.2,6.4,14.2,14.2c0,0.3,0,0.5,0,0.8c-1.4-0.4-2.7-0.6-4.1-0.9
		c-0.1-5.5-4.6-9.8-10.1-9.8c-5.6,0-10.1,4.5-10.1,10.1c0,0.1,0,0.2,0,0.3c-1.5,0.3-2.8,0.6-4,0.9c0-0.5-0.1-0.9-0.1-1.4
		C62.7,28.8,69,22.5,76.8,22.5z"/>
	<path fill="#006DB6" d="M15.2,78C15.2,78,15.2,78,15.2,78C15.3,78,15.3,78,15.2,78C15.3,78,15.3,78,15.2,78
		C15.3,78,15.3,78,15.2,78z"/>
	<path fill="#006DB6" d="M37.4,79.3c-1.4,0-2.6-1.1-2.6-2.6c0-0.4,0.1-0.7,0.2-1C26,75.9,19,77.2,15.3,78c-0.2,0.6-0.3,1.1-0.3,1.8
		v13.8c0,2.8,2.2,5.1,5.1,5.1l11.3,3.6c3.7,5.5,8.7,10.3,14.9,14c-0.1,0.4-0.3,0.9-0.3,1.3v8.2c0,2.8,2.4,5.1,5.2,5.1H63
		c2.8,0,5-2.3,5-5.1v-2V102h-7.8l8.5-14.7l3.2-5.6c-11.6-4.2-22.7-5.7-32.1-5.9c0.1,0.3,0.2,0.7,0.2,1C40,78.1,38.8,79.3,37.4,79.3z
		"/>
	<path fill="#006DB6" d="M86.1,88.1l8,13.9h-8v21.5v2.4c0,2.8,2.4,5.1,5.2,5.1H103c2.8,0,5-2.3,5-5.1v-8.2c0-0.8-0.2-1.6-0.6-2.3
		c2.3-1.5,4.4-3.1,6.4-4.9C104.9,100.5,95.5,93.3,86.1,88.1z"/>
	<linearGradient id="SVGID_1_" gradientUnits="userSpaceOnUse" x1="80.715" y1="168.11" x2="128.8375" y2="85.1754">
		<stop  offset="0" style="stop-color:#FFFFFF"/>
		<stop  offset="7.056916e-02" style="stop-color:#E0EDF6"/>
		<stop  offset="0.2148" style="stop-color:#A5CCE5"/>
		<stop  offset="0.359" style="stop-color:#73AFD7"/>
		<stop  offset="0.4997" style="stop-color:#4997CB"/>
		<stop  offset="0.6363" style="stop-color:#2985C2"/>
		<stop  offset="0.7676" style="stop-color:#1378BB"/>
		<stop  offset="0.8915" style="stop-color:#0570B7"/>
		<stop  offset="1" style="stop-color:#006DB6"/>
	</linearGradient>
	<path fill="url(#SVGID_1_)" d="M113.9,110.4c0.5-0.5,1-1,1.5-1.5C114.9,109.4,114.4,109.9,113.9,110.4
		C113.9,110.4,113.9,110.4,113.9,110.4z"/>
	<path fill="#006DB6" d="M133.7,64.4c5.4,9.8-8,5-9.1,4.6c-6.6-16.9-25.8-29.2-48.5-29.2c-8.8,0-17,1.8-24.3,5.1
		c-4.6-3.6-14.7-10.2-23.1-7.1c-9.5,3.4,3.7,2.3,7.8,17.6c-4.8,4.9-8.3,10.8-10.1,17.2L20,74.7c-0.3,0-0.6,0-0.9,0.1
		c-0.1,0-0.2,0-0.3,0.1c-0.2,0-0.4,0.1-0.6,0.2c-0.1,0-0.2,0.1-0.3,0.1c-0.2,0.1-0.3,0.2-0.5,0.2c-0.1,0.1-0.2,0.1-0.3,0.2
		c-0.1,0.1-0.2,0.1-0.3,0.2c-0.3,0.2-0.5,0.5-0.7,0.7c0,0.1-0.1,0.1-0.1,0.2c-0.1,0.2-0.2,0.3-0.3,0.5c0,0.1-0.1,0.1-0.1,0.2
		c-0.1,0.2-0.2,0.4-0.3,0.6c0,0,0,0,0,0c0,0,0,0,0.1,0c3.7-0.9,10.7-2.2,19.8-2.3c0.4-0.9,1.3-1.5,2.3-1.5c1,0,1.9,0.6,2.3,1.5
		c9.4,0.2,20.5,1.7,32.1,5.9l5.2-9.1l8.5,14.7l0.5,0.9c9.4,5.2,18.8,12.4,27.8,22.3c0.5-0.5,1-1,1.5-1.5c0.3-0.3,0.5-0.6,0.8-0.8
		c0.3-0.3,0.5-0.6,0.8-0.9c0.3-0.3,0.5-0.6,0.8-0.9c0.3-0.3,0.5-0.6,0.7-0.9c0.2-0.3,0.5-0.6,0.7-0.9c0.3-0.3,0.5-0.7,0.7-1
		c0.2-0.3,0.4-0.5,0.6-0.8c0.4-0.6,0.8-1.2,1.1-1.8c0.1-0.2,0.3-0.5,0.4-0.7c0.2-0.4,0.5-0.8,0.7-1.2c0.1-0.3,0.3-0.6,0.4-0.8
		c0.2-0.4,0.4-0.8,0.6-1.2c0.1-0.3,0.3-0.6,0.4-0.8c0.2-0.4,0.4-0.9,0.5-1.3c0.1-0.2,0.2-0.5,0.3-0.7c0.2-0.7,0.5-1.4,0.7-2.1
		c0-0.1,0.1-0.3,0.1-0.4c0.2-0.6,0.3-1.2,0.4-1.8c0.1-0.3,0.1-0.5,0.2-0.8c0.1-0.5,0.2-1,0.3-1.5c0-0.3,0.1-0.5,0.1-0.8
		c0.1-0.5,0.1-1,0.2-1.6c0-0.2,0-0.5,0.1-0.7c0-0.8,0.1-1.5,0.1-2.3c0-1.3-0.1-2.6-0.2-3.8c6.3,1.1,10.7-0.1,12-5.2
		C140.3,67,133.7,64.4,133.7,64.4z M94.8,50.6c-11.6-3.2-23.8-3.2-35.3,0c-0.4-1.3-0.7-2.6-1.1-3.9c12.3-3.4,25.2-3.4,37.5,0
		C95.5,48,95.1,49.3,94.8,50.6z"/>
	<linearGradient id="SVGID_2_" gradientUnits="userSpaceOnUse" x1="33.4074" y1="140.6599" x2="81.5299" y2="57.7253">
		<stop  offset="0" style="stop-color:#FFFFFF"/>
		<stop  offset="7.056916e-02" style="stop-color:#E0EDF6"/>
		<stop  offset="0.2148" style="stop-color:#A5CCE5"/>
		<stop  offset="0.359" style="stop-color:#73AFD7"/>
		<stop  offset="0.4997" style="stop-color:#4997CB"/>
		<stop  offset="0.6363" style="stop-color:#2985C2"/>
		<stop  offset="0.7676" style="stop-color:#1378BB"/>
		<stop  offset="0.8915" style="stop-color:#0570B7"/>
		<stop  offset="1" style="stop-color:#006DB6"/>
	</linearGradient>
	<path fill="url(#SVGID_2_)" d="M133.7,64.4c5.4,9.8-8,5-9.1,4.6c-6.6-16.9-25.8-29.2-48.5-29.2c-8.8,0-17,1.8-24.3,5.1
		c-4.6-3.6-14.7-10.2-23.1-7.1c-9.5,3.4,3.7,2.3,7.8,17.6c-4.8,4.9-8.3,10.8-10.1,17.2L20,74.7c-0.3,0-0.6,0-0.9,0.1
		c-0.1,0-0.2,0-0.3,0.1c-0.2,0-0.4,0.1-0.6,0.2c-0.1,0-0.2,0.1-0.3,0.1c-0.2,0.1-0.3,0.2-0.5,0.2c-0.1,0.1-0.2,0.1-0.3,0.2
		c-0.1,0.1-0.2,0.1-0.3,0.2c-0.3,0.2-0.5,0.5-0.7,0.7c0,0.1-0.1,0.1-0.1,0.2c-0.1,0.2-0.2,0.3-0.3,0.5c0,0.1-0.1,0.1-0.1,0.2
		c-0.1,0.2-0.2,0.4-0.3,0.6c0,0,0,0,0,0c0,0,0,0,0.1,0c3.7-0.9,10.7-2.2,19.8-2.3c0.4-0.9,1.3-1.5,2.3-1.5c1,0,1.9,0.6,2.3,1.5
		c9.4,0.2,20.5,1.7,32.1,5.9l5.2-9.1l8.5,14.7l0.5,0.9c9.4,5.2,18.8,12.4,27.8,22.3c0.5-0.5,1-1,1.5-1.5c0.3-0.3,0.5-0.6,0.8-0.8
		c0.3-0.3,0.5-0.6,0.8-0.9c0.3-0.3,0.5-0.6,0.8-0.9c0.3-0.3,0.5-0.6,0.7-0.9c0.2-0.3,0.5-0.6,0.7-0.9c0.3-0.3,0.5-0.7,0.7-1
		c0.2-0.3,0.4-0.5,0.6-0.8c0.4-0.6,0.8-1.2,1.1-1.8c0.1-0.2,0.3-0.5,0.4-0.7c0.2-0.4,0.5-0.8,0.7-1.2c0.1-0.3,0.3-0.6,0.4-0.8
		c0.2-0.4,0.4-0.8,0.6-1.2c0.1-0.3,0.3-0.6,0.4-0.8c0.2-0.4,0.4-0.9,0.5-1.3c0.1-0.2,0.2-0.5,0.3-0.7c0.2-0.7,0.5-1.4,0.7-2.1
		c0-0.1,0.1-0.3,0.1-0.4c0.2-0.6,0.3-1.2,0.4-1.8c0.1-0.3,0.1-0.5,0.2-0.8c0.1-0.5,0.2-1,0.3-1.5c0-0.3,0.1-0.5,0.1-0.8
		c0.1-0.5,0.1-1,0.2-1.6c0-0.2,0-0.5,0.1-0.7c0-0.8,0.1-1.5,0.1-2.3c0-1.3-0.1-2.6-0.2-3.8c6.3,1.1,10.7-0.1,12-5.2
		C140.3,67,133.7,64.4,133.7,64.4z M94.8,50.6c-11.6-3.2-23.8-3.2-35.3,0c-0.4-1.3-0.7-2.6-1.1-3.9c12.3-3.4,25.2-3.4,37.5,0
		C95.5,48,95.1,49.3,94.8,50.6z"/>
	<path fill="#FFFFFE" d="M37.4,74.2c-1,0-1.9,0.6-2.3,1.5c0,0,0,0,0,0c-0.1,0.3-0.2,0.7-0.2,1c0,1.4,1.1,2.6,2.6,2.6
		s2.6-1.1,2.6-2.6c0-0.4-0.1-0.7-0.2-1c0,0,0,0,0,0C39.4,74.8,38.5,74.2,37.4,74.2z"/>
</g>
</svg>
