<?xml version="1.0" encoding="utf-8"?>
<!-- Generator: Adobe Illustrator 18.1.0, SVG Export Plug-In . SVG Version: 6.00 Build 0)  -->
<svg version="1.1" id="Layer_1" xmlns="http://www.w3.org/2000/svg" xmlns:xlink="http://www.w3.org/1999/xlink" x="0px" y="0px"
	 viewBox="0 0 150 150" enable-background="new 0 0 150 150" xml:space="preserve">
<g>
	<path fill="none" d="M88.2,33.7c0,0,0.1,0.1,0.1,0.1c0.3,0.2,0.5,0.5,0.8,0.8c0.2,0.2,0.4,0.4,0.6,0.6c0.2,0.2,0.5,0.5,0.7,0.7
		c0.2,0.2,0.4,0.4,0.6,0.7c0.2,0.3,0.5,0.6,0.7,0.8c0.3,0.3,0.6,0.7,0.9,1c0.2,0.3,0.5,0.6,0.7,0.9c0.2,0.3,0.4,0.5,0.6,0.8
		c0.2,0.3,0.4,0.5,0.6,0.8c0.2,0.3,0.4,0.5,0.5,0.8c0.2,0.3,0.3,0.5,0.5,0.8c0.2,0.3,0.3,0.5,0.5,0.8c0.2,0.4,0.4,0.7,0.6,1.1
		c0.2,0.4,0.5,0.8,0.7,1.3c0.1,0.3,0.3,0.6,0.4,0.8c0.1,0.3,0.3,0.6,0.4,0.9c0.1,0.3,0.3,0.6,0.4,0.8c0.1,0.3,0.3,0.6,0.4,0.9
		c0.1,0.3,0.2,0.6,0.3,0.9c0.1,0.3,0.2,0.9,0.3,0.9h3.9c0-1,0-1.9,0-2.7c0-13.8-0.8-14.5-14.5-14.5C88.8,33.7,88.5,33.7,88.2,33.7z"
		/>
	<path fill="#00A9DE" d="M16.8,51.7c0.2-0.5,0.4-1.1,0.6-1.6C17.1,50.6,17,51.1,16.8,51.7z"/>
	<path fill="#00A9DE" d="M82.7,29.4c0.2,0.1,0.4,0.3,0.6,0.4C83.1,29.7,82.9,29.5,82.7,29.4z"/>
	<path fill="#00A9DE" d="M14.8,59.8c0.1-0.6,0.2-1.2,0.3-1.8C15,58.6,14.9,59.2,14.8,59.8z"/>
	<path fill="#00A9DE" d="M15.6,55.7c0.1-0.6,0.3-1.1,0.4-1.7C15.9,54.5,15.7,55.1,15.6,55.7z"/>
	<path fill="#00A9DE" d="M67.1,22.9c0.1,0,0.3,0.1,0.4,0.1C67.4,22.9,67.2,22.9,67.1,22.9z"/>
	<path fill="#00A9DE" d="M85.8,31.7c0.2,0.2,0.4,0.3,0.6,0.5C86.2,32,86,31.8,85.8,31.7z"/>
	<path fill="#00A9DE" d="M84.2,30.5c0.2,0.2,0.4,0.3,0.7,0.5C84.7,30.8,84.5,30.6,84.2,30.5z"/>
	<path fill="#00A9DE" d="M16.1,53.7c0.2-0.6,0.3-1.1,0.5-1.6C16.5,52.6,16.3,53.1,16.1,53.7z"/>
	<path fill="#00A9DE" d="M15.2,57.7c0.1-0.6,0.2-1.2,0.4-1.8C15.4,56.5,15.3,57.1,15.2,57.7z"/>
	<path fill="#00A9DE" d="M81.1,28.3c0.1,0.1,0.3,0.2,0.4,0.3C81.3,28.5,81.2,28.4,81.1,28.3z"/>
	<path fill="#00A9DE" d="M99.3,50.1c0.1,0.3,0.2,0.6,0.3,0.9h0C99.5,50.7,99.4,50.4,99.3,50.1z"/>
	<path fill="#00A9DE" d="M91.1,36.6c-0.2-0.2-0.4-0.4-0.6-0.7C90.7,36.2,90.9,36.4,91.1,36.6z"/>
	<path fill="#00A9DE" d="M88.2,33.7c0,0,0.1,0.1,0.1,0.1C88.3,33.8,88.2,33.8,88.2,33.7C88.2,33.7,88.2,33.7,88.2,33.7z"/>
	<path fill="#00A9DE" d="M89.1,34.6c0.2,0.2,0.4,0.4,0.6,0.6C89.5,35,89.3,34.8,89.1,34.6z"/>
	<path fill="#00A9DE" d="M49,89.3v-3.2c-16-3.1-29.2-12.3-34.4-24.1c-0.1,1.3-0.2,2.7-0.2,4c0,21,14.5,38.6,34.5,42.9V93.2V89.3z"/>
	<path fill="#00A9DE" d="M88.2,33.7c-0.2-0.1-0.3-0.3-0.5-0.4C87.9,33.4,88.1,33.6,88.2,33.7C88.2,33.7,88.2,33.7,88.2,33.7z"/>
	<path fill="#00A9DE" d="M28.6,33.6c-2.4,2.2-4.6,4.7-6.4,7.4C24,38.4,26.1,35.9,28.6,33.6z"/>
	<path fill="#00A9DE" d="M93.9,40.2c-0.2-0.3-0.4-0.5-0.6-0.8C93.6,39.7,93.7,39.9,93.9,40.2z"/>
	<path fill="#00A9DE" d="M96,43.4c-0.2-0.3-0.3-0.5-0.5-0.8C95.7,42.8,95.9,43.1,96,43.4z"/>
	<path fill="#00A9DE" d="M97.3,45.7c-0.2-0.4-0.4-0.8-0.7-1.3C96.9,44.9,97.1,45.3,97.3,45.7z"/>
	<path fill="#00A9DE" d="M98.2,47.5c-0.1-0.3-0.3-0.6-0.4-0.9C97.9,46.8,98,47.1,98.2,47.5z"/>
	<path fill="#00A9DE" d="M99,49.2c-0.1-0.3-0.3-0.6-0.4-0.9C98.7,48.6,98.8,48.9,99,49.2z"/>
	<path fill="#00A9DE" d="M95,41.8c-0.2-0.3-0.4-0.5-0.5-0.8C94.7,41.2,94.8,41.5,95,41.8z"/>
	<path fill="#00A9DE" d="M92.6,38.5c-0.3-0.3-0.6-0.7-0.9-1C92.1,37.8,92.4,38.2,92.6,38.5z"/>
	<path fill="#00A9DE" d="M14.6,61.9c0.1-0.7,0.1-1.3,0.2-1.9C14.7,60.6,14.6,61.3,14.6,61.9z"/>
	<path fill="#00A9DE" d="M77,26.2c0.2,0.1,0.4,0.2,0.7,0.3C77.5,26.4,77.3,26.3,77,26.2z"/>
	<path fill="#00A9DE" d="M50.9,22.6c0.3-0.1,0.6-0.1,0.9-0.2C51.5,22.5,51.2,22.6,50.9,22.6z"/>
	<path fill="#00A9DE" d="M53.1,22.3c0.3,0,0.6-0.1,0.9-0.1C53.7,22.2,53.4,22.3,53.1,22.3z"/>
	<path fill="#00A9DE" d="M33.5,29.7c0.3-0.2,0.7-0.4,1-0.7C34.1,29.3,33.8,29.5,33.5,29.7z"/>
	<path fill="#00A9DE" d="M71,23.9c0.2,0.1,0.4,0.1,0.6,0.2C71.4,24,71.2,23.9,71,23.9z"/>
	<path fill="#00A9DE" d="M55.4,22.1c0.2,0,0.5,0,0.7-0.1C55.9,22.1,55.6,22.1,55.4,22.1z"/>
	<path fill="#00A9DE" d="M28.6,33.6c0.4-0.3,0.8-0.7,1.2-1C29.4,32.9,29,33.2,28.6,33.6z"/>
	<path fill="#00A9DE" d="M60.4,22.1c0.2,0,0.4,0,0.6,0C60.8,22.1,60.6,22.1,60.4,22.1z"/>
	<path fill="#00A9DE" d="M31.8,30.9c0.3-0.3,0.7-0.5,1-0.7C32.5,30.4,32.1,30.7,31.8,30.9z"/>
	<path fill="#00A9DE" d="M30.2,32.2c0.3-0.3,0.7-0.6,1.1-0.9C30.9,31.6,30.5,31.9,30.2,32.2z"/>
	<path fill="#00A9DE" d="M69,23.3c0.2,0.1,0.4,0.1,0.7,0.2C69.5,23.4,69.3,23.4,69,23.3z"/>
	<path fill="#00A9DE" d="M44.6,24.2c0.3-0.1,0.6-0.2,1-0.3C45.3,24,45,24.1,44.6,24.2z"/>
	<path fill="#00A9DE" d="M75.3,25.4c0.2,0.1,0.4,0.2,0.6,0.3C75.7,25.6,75.5,25.5,75.3,25.4z"/>
	<path fill="#00A9DE" d="M38.8,26.6c0.3-0.2,0.6-0.3,1-0.5C39.5,26.3,39.1,26.4,38.8,26.6z"/>
	<path fill="#00A9DE" d="M40.7,25.7c0.3-0.1,0.6-0.3,1-0.4C41.4,25.4,41,25.5,40.7,25.7z"/>
	<path fill="#00A9DE" d="M48.8,23.1c0.3-0.1,0.6-0.1,0.9-0.2C49.4,22.9,49.1,23,48.8,23.1z"/>
	<path fill="#00A9DE" d="M73.1,24.6c0.1,0,0.2,0.1,0.4,0.1C73.4,24.6,73.2,24.6,73.1,24.6z"/>
	<path fill="#00A9DE" d="M46.7,23.6c0.3-0.1,0.6-0.2,1-0.3C47.3,23.4,47,23.5,46.7,23.6z"/>
	<path fill="#00A9DE" d="M35.2,28.6c0.3-0.2,0.7-0.4,1-0.6C35.8,28.2,35.5,28.4,35.2,28.6z"/>
	<path fill="#00A9DE" d="M37,27.5c0.3-0.2,0.6-0.4,1-0.5C37.6,27.2,37.3,27.4,37,27.5z"/>
	<path fill="#00A9DE" d="M17.5,49.8c0.2-0.5,0.4-1,0.7-1.6C17.9,48.7,17.7,49.2,17.5,49.8z"/>
	<path fill="#00A9DE" d="M42.7,24.9c0.3-0.1,0.6-0.2,1-0.4C43.3,24.6,43,24.8,42.7,24.9z"/>
	<path fill="#00A9DE" d="M20.1,44.3c0.3-0.5,0.6-1,0.9-1.5C20.7,43.3,20.4,43.8,20.1,44.3z"/>
	<path fill="#00A9DE" d="M64.6,22.5c0.2,0,0.4,0,0.5,0.1C65,22.5,64.8,22.5,64.6,22.5z"/>
	<path fill="#00A9DE" d="M21.1,42.6c0.3-0.5,0.7-1,1-1.5C21.7,41.6,21.4,42.1,21.1,42.6z"/>
	<path fill="#00A9DE" d="M78.8,27.1c0.2,0.1,0.4,0.2,0.6,0.3C79.2,27.3,79,27.2,78.8,27.1z"/>
	<path fill="#00A9DE" d="M19.1,46.1c0.3-0.5,0.5-1,0.8-1.5C19.7,45,19.4,45.6,19.1,46.1z"/>
	<path fill="#00A9DE" d="M62.5,22.2c0.2,0,0.5,0,0.7,0.1C62.9,22.2,62.7,22.2,62.5,22.2z"/>
	<path fill="#00A9DE" d="M18.3,47.9c0.2-0.5,0.5-1,0.7-1.5C18.7,46.9,18.5,47.4,18.3,47.9z"/>
	<path fill="#BBDC00" d="M120.5,51h-10.3C109.9,63,103,72.9,91,79.5V89h38V60C129,55,125.4,51,120.5,51z"/>
	<path fill="#BBDC00" d="M91,93v39h29.5c5,0,8.5-4.5,8.5-9.4V93H91z"/>
	<path fill="#BBDC00" d="M87,93H49v15.9v13.7c0,5,3.9,9.4,8.9,9.4H87V93z M65.3,115.4c0-0.8,0-1.5,0-2.1c0-7.6-0.4-8-8-8
		c-0.7,0-1.4,0-2.1,0c0.8,0,1.5,0,2.1,0c7.6,0,8-0.4,8-8c0-0.7,0-1.4,0-2.1c0,0.8,0,1.5,0,2.1c0,7.6,0.4,8,8,8c0.7,0,1.4,0,2.1,0
		c-0.8,0-1.5,0-2.1,0c-7.6,0-8,0.4-8,8C65.3,114,65.3,114.7,65.3,115.4z"/>
	<path fill="#BBDC00" d="M49,86.1V89h38v-7.4c-7,3.6-16.3,5.6-25.9,5.6C56.9,87.2,53,86.8,49,86.1z"/>
	<path opacity="0.18" fill="#FFFFFF" d="M15.5,56c0-0.1,0-0.2,0.1-0.3C15.6,55.8,15.6,55.9,15.5,56z"/>
	<path opacity="0.18" fill="#FFFFFF" d="M71.6,24.1c0.5,0.2,1,0.3,1.5,0.5C72.6,24.4,72.1,24.2,71.6,24.1z"/>
	<path opacity="0.18" fill="#FFFFFF" d="M65.1,22.5c0.7,0.1,1.3,0.2,2,0.3C66.5,22.8,65.8,22.6,65.1,22.5z"/>
	<path opacity="0.18" fill="#FFFFFF" d="M69.7,23.5c0.4,0.1,0.9,0.2,1.3,0.4C70.6,23.7,70.1,23.6,69.7,23.5z"/>
	<path opacity="0.18" fill="#FFFFFF" d="M18.1,48.2c0-0.1,0.1-0.2,0.1-0.3C18.2,48,18.2,48.1,18.1,48.2z"/>
	<path opacity="0.18" fill="#FFFFFF" d="M16.1,54c0-0.1,0.1-0.2,0.1-0.3C16.1,53.8,16.1,53.9,16.1,54z"/>
	<path opacity="0.18" fill="#FFFFFF" d="M19,46.3c0-0.1,0.1-0.2,0.1-0.3C19.1,46.2,19,46.3,19,46.3z"/>
	<path opacity="0.18" fill="#FFFFFF" d="M20,44.5c0-0.1,0.1-0.2,0.1-0.2C20,44.4,20,44.5,20,44.5z"/>
	<path opacity="0.18" fill="#FFFFFF" d="M16.7,52c0-0.1,0.1-0.2,0.1-0.3C16.7,51.8,16.7,51.9,16.7,52z"/>
	<path opacity="0.18" fill="#FFFFFF" d="M17.3,50.1c0-0.1,0.1-0.2,0.1-0.3C17.4,49.9,17.4,50,17.3,50.1z"/>
	<path opacity="0.18" fill="#FFFFFF" d="M79.5,27.4c0.5,0.3,1.1,0.6,1.6,0.9C80.5,28,80,27.7,79.5,27.4z"/>
	<path opacity="0.18" fill="#FFFFFF" d="M81.5,28.6c0.4,0.3,0.8,0.5,1.2,0.8C82.3,29.1,81.9,28.8,81.5,28.6z"/>
	<path opacity="0.18" fill="#FFFFFF" d="M15.1,58c0-0.1,0-0.2,0-0.3C15.2,57.8,15.1,57.9,15.1,58z"/>
	<path opacity="0.18" fill="#FFFFFF" d="M84.9,31c0.3,0.2,0.6,0.5,0.9,0.7C85.5,31.4,85.2,31.2,84.9,31z"/>
	<path opacity="0.18" fill="#FFFFFF" d="M77.7,26.5c0.4,0.2,0.8,0.4,1.1,0.6C78.5,26.9,78.1,26.7,77.7,26.5z"/>
	<path opacity="0.18" fill="#FFFFFF" d="M83.3,29.8c0.3,0.2,0.6,0.4,0.9,0.7C83.9,30.2,83.6,30,83.3,29.8z"/>
	<path opacity="0.18" fill="#FFFFFF" d="M75.9,25.6c0.4,0.2,0.8,0.4,1.2,0.5C76.7,26,76.3,25.8,75.9,25.6z"/>
	<polygon opacity="0.18" fill="#FFFFFF" points="14.6,61.9 14.6,61.9 14.6,61.9 	"/>
	<path opacity="0.18" fill="#FFFFFF" d="M14.8,60c0-0.1,0-0.1,0-0.2C14.8,59.9,14.8,59.9,14.8,60z"/>
	<path opacity="0.18" fill="#FFFFFF" d="M73.5,24.7c0.6,0.2,1.2,0.5,1.8,0.7C74.7,25.1,74.1,24.9,73.5,24.7z"/>
	<path opacity="0.18" fill="#FFFFFF" d="M67.5,23c0.5,0.1,1,0.2,1.5,0.3C68.5,23.2,68,23.1,67.5,23z"/>
	<path opacity="0.18" fill="#FFFFFF" d="M56.1,22.1c0.7,0,1.5-0.1,2.2-0.1C57.6,22,56.9,22,56.1,22.1z"/>
	<path opacity="0.18" fill="#FFFFFF" d="M51.8,22.5c0.4-0.1,0.8-0.1,1.3-0.2C52.7,22.4,52.2,22.4,51.8,22.5z"/>
	<path opacity="0.18" fill="#FFFFFF" d="M21,42.8c0-0.1,0.1-0.1,0.1-0.2C21.1,42.7,21,42.7,21,42.8z"/>
	<path opacity="0.18" fill="#FFFFFF" d="M47.6,23.3c0.4-0.1,0.7-0.2,1.1-0.3C48.4,23.1,48,23.2,47.6,23.3z"/>
	<path opacity="0.18" fill="#FFFFFF" d="M49.7,22.9c0.4-0.1,0.8-0.1,1.2-0.2C50.5,22.7,50.1,22.8,49.7,22.9z"/>
	<path opacity="0.18" fill="#FFFFFF" d="M61,22.1c0.5,0,1,0.1,1.4,0.1C62,22.2,61.5,22.1,61,22.1z"/>
	<path opacity="0.18" fill="#FFFFFF" d="M63.1,22.3c0.5,0.1,1,0.1,1.5,0.2C64.1,22.4,63.6,22.3,63.1,22.3z"/>
	<path opacity="0.18" fill="#FFFFFF" d="M43.6,24.5c0.3-0.1,0.7-0.2,1-0.3C44.3,24.3,44,24.4,43.6,24.5z"/>
	<path opacity="0.18" fill="#FFFFFF" d="M58.3,22c0.7,0,1.4,0,2.1,0.1C59.7,22,59,22,58.3,22z"/>
	<path opacity="0.18" fill="#FFFFFF" d="M86.4,32.1c0.5,0.4,0.9,0.8,1.3,1.2C87.3,32.9,86.9,32.5,86.4,32.1z"/>
	<path opacity="0.18" fill="#FFFFFF" d="M54,22.2c0.5,0,1-0.1,1.4-0.1C54.9,22.1,54.4,22.2,54,22.2z"/>
	<path opacity="0.18" fill="#FFFFFF" d="M31.2,31.4c0.2-0.1,0.4-0.3,0.5-0.4C31.6,31.1,31.4,31.2,31.2,31.4z"/>
	<path opacity="0.18" fill="#FFFFFF" d="M32.8,30.2c0.2-0.2,0.4-0.3,0.6-0.5C33.2,29.9,33,30,32.8,30.2z"/>
	<path opacity="0.18" fill="#FFFFFF" d="M29.8,32.5c0.1-0.1,0.3-0.2,0.4-0.3C30,32.3,29.9,32.4,29.8,32.5z"/>
	<path opacity="0.18" fill="#FFFFFF" d="M28.6,33.6C28.6,33.6,28.6,33.6,28.6,33.6C28.6,33.6,28.6,33.6,28.6,33.6z"/>
	<path opacity="0.18" fill="#FFFFFF" d="M22.1,41.1C22.1,41.1,22.1,41.1,22.1,41.1C22.1,41.1,22.1,41.1,22.1,41.1z"/>
	<path opacity="0.18" fill="#FFFFFF" d="M38,27c0.3-0.2,0.6-0.3,0.9-0.4C38.5,26.7,38.2,26.9,38,27z"/>
	<path opacity="0.18" fill="#FFFFFF" d="M41.7,25.3c0.3-0.1,0.6-0.3,1-0.4C42.3,25,42,25.1,41.7,25.3z"/>
	<path opacity="0.18" fill="#FFFFFF" d="M34.5,29.1c0.2-0.2,0.5-0.3,0.7-0.5C34.9,28.7,34.7,28.9,34.5,29.1z"/>
	<path opacity="0.18" fill="#FFFFFF" d="M39.8,26.1c0.3-0.1,0.6-0.3,0.9-0.4C40.4,25.8,40.1,26,39.8,26.1z"/>
	<path opacity="0.18" fill="#FFFFFF" d="M36.2,28c0.3-0.2,0.5-0.3,0.8-0.5C36.7,27.7,36.4,27.8,36.2,28z"/>
	<path opacity="0.18" fill="#FFFFFF" d="M45.6,23.9c0.4-0.1,0.7-0.2,1.1-0.3C46.3,23.7,46,23.8,45.6,23.9z"/>
	<path opacity="0.18" fill="#FFFFFF" d="M98.6,48.3c-0.1-0.3-0.2-0.6-0.4-0.8C98.3,47.7,98.4,48,98.6,48.3z"/>
	<path opacity="0.18" fill="#FFFFFF" d="M97.8,46.5c-0.1-0.3-0.3-0.6-0.4-0.8C97.5,46,97.6,46.3,97.8,46.5z"/>
	<path opacity="0.18" fill="#FFFFFF" d="M88.3,33.8c0.3,0.2,0.5,0.5,0.8,0.8C88.9,34.3,88.6,34.1,88.3,33.8z"/>
	<path opacity="0.18" fill="#FFFFFF" d="M99.3,50.1c-0.1-0.3-0.2-0.6-0.3-0.9C99.1,49.5,99.2,49.8,99.3,50.1z"/>
	<path opacity="0.18" fill="#FFFFFF" d="M91.8,37.5c-0.2-0.3-0.5-0.6-0.7-0.8C91.3,36.9,91.5,37.2,91.8,37.5z"/>
	<path opacity="0.18" fill="#FFFFFF" d="M93.4,39.4c-0.2-0.3-0.5-0.6-0.7-0.9C92.9,38.8,93.1,39.1,93.4,39.4z"/>
	<path opacity="0.18" fill="#FFFFFF" d="M95.5,42.6c-0.2-0.3-0.3-0.5-0.5-0.8C95.2,42,95.4,42.3,95.5,42.6z"/>
	<path opacity="0.18" fill="#FFFFFF" d="M94.5,41c-0.2-0.3-0.4-0.5-0.6-0.8C94.1,40.4,94.3,40.7,94.5,41z"/>
	<path opacity="0.18" fill="#FFFFFF" d="M96.7,44.5c-0.2-0.4-0.4-0.7-0.6-1.1C96.2,43.7,96.4,44.1,96.7,44.5z"/>
	<path opacity="0.18" fill="#FFFFFF" d="M90.4,36c-0.2-0.2-0.5-0.5-0.7-0.7C90,35.5,90.2,35.7,90.4,36z"/>
	<path fill="#00A9DE" d="M49,86.1V71.6c-1,2.1-0.5,5-0.5,8.9c0,1.2,0,2.5,0,3.9c0-1.4,0-2.7,0-3.9c0-13.8-0.8-14.5-14.5-14.5
		c-1.2,0-2.5,0-3.9,0c1.4,0,2.7,0,3.9,0c13.8,0,14.5-0.8,14.5-14.5c0-1.2,0-2.5,0-3.9c0,1.4,0.1,2.7,0.1,3.9c0,3.9-0.5,6.8,0.5,8.9
		V60c0-5,3.9-9,8.9-9h29.3h4h8.5c-0.1,0-0.2-0.6-0.3-0.9c-0.1-0.3-0.2-0.6-0.3-0.9c-0.1-0.3-0.3-0.6-0.4-0.9
		c-0.1-0.3-0.2-0.6-0.4-0.8c-0.1-0.3-0.3-0.6-0.4-0.9c-0.1-0.3-0.3-0.6-0.4-0.8c-0.2-0.4-0.4-0.8-0.7-1.3c-0.2-0.4-0.4-0.7-0.6-1.1
		c-0.2-0.3-0.3-0.5-0.5-0.8c-0.2-0.3-0.3-0.5-0.5-0.8c-0.2-0.3-0.4-0.5-0.5-0.8c-0.2-0.3-0.4-0.5-0.6-0.8c-0.2-0.3-0.4-0.5-0.6-0.8
		c-0.2-0.3-0.5-0.6-0.7-0.9c-0.3-0.3-0.6-0.7-0.9-1c-0.2-0.3-0.5-0.6-0.7-0.8c-0.2-0.2-0.4-0.4-0.6-0.7c-0.2-0.2-0.5-0.5-0.7-0.7
		c-0.2-0.2-0.4-0.4-0.6-0.6c-0.3-0.3-0.5-0.5-0.8-0.8c0,0-0.1-0.1-0.1-0.1c-1,0-2,0-3,0c1.1,0,2.1,0,3,0c-0.2-0.1-0.3-0.3-0.5-0.4
		c-0.4-0.4-0.9-0.8-1.3-1.2c-0.2-0.2-0.4-0.3-0.6-0.5c-0.3-0.2-0.6-0.5-0.9-0.7c-0.2-0.2-0.4-0.3-0.7-0.5c-0.3-0.2-0.6-0.4-0.9-0.7
		c-0.2-0.1-0.4-0.3-0.6-0.4c-0.4-0.3-0.8-0.5-1.2-0.8c-0.1-0.1-0.3-0.2-0.4-0.3c-0.5-0.3-1.1-0.6-1.6-0.9c-0.2-0.1-0.4-0.2-0.6-0.3
		c-0.4-0.2-0.7-0.4-1.1-0.6c-0.2-0.1-0.4-0.2-0.7-0.3c-0.4-0.2-0.8-0.4-1.2-0.5c-0.2-0.1-0.4-0.2-0.6-0.3c-0.6-0.2-1.2-0.5-1.8-0.7
		c-0.1,0-0.2-0.1-0.4-0.1c-0.5-0.2-1-0.3-1.5-0.5c-0.2-0.1-0.4-0.1-0.6-0.2c-0.4-0.1-0.9-0.3-1.3-0.4c-0.2-0.1-0.4-0.1-0.7-0.2
		c-0.5-0.1-1-0.2-1.5-0.3c-0.1,0-0.3-0.1-0.4-0.1c-0.6-0.1-1.3-0.2-2-0.3c-0.2,0-0.4,0-0.5-0.1c-0.5-0.1-1-0.1-1.5-0.2
		c-0.2,0-0.5,0-0.7-0.1c-0.5,0-1-0.1-1.4-0.1c-0.2,0-0.4,0-0.6,0C59.7,22,59,22,58.3,22c-0.7,0-1.5,0-2.2,0.1c-0.2,0-0.5,0-0.7,0.1
		c-0.5,0-1,0.1-1.4,0.1c-0.3,0-0.6,0.1-0.9,0.1c-0.4,0.1-0.8,0.1-1.3,0.2c-0.3,0-0.6,0.1-0.9,0.2c-0.4,0.1-0.8,0.1-1.2,0.2
		c-0.3,0.1-0.6,0.1-0.9,0.2c-0.4,0.1-0.8,0.2-1.1,0.3c-0.3,0.1-0.6,0.2-1,0.3c-0.4,0.1-0.7,0.2-1.1,0.3c-0.3,0.1-0.6,0.2-1,0.3
		c-0.3,0.1-0.7,0.2-1,0.3c-0.3,0.1-0.6,0.2-1,0.4c-0.3,0.1-0.6,0.3-1,0.4c-0.3,0.1-0.7,0.3-1,0.4c-0.3,0.1-0.6,0.3-0.9,0.4
		c-0.3,0.2-0.6,0.3-1,0.5c-0.3,0.1-0.6,0.3-0.9,0.4c-0.3,0.2-0.7,0.3-1,0.5c-0.3,0.2-0.5,0.3-0.8,0.5c-0.3,0.2-0.7,0.4-1,0.6
		c-0.2,0.2-0.5,0.3-0.7,0.5c-0.3,0.2-0.7,0.4-1,0.7c-0.2,0.2-0.4,0.3-0.6,0.5c-0.3,0.2-0.7,0.5-1,0.7c-0.2,0.1-0.4,0.3-0.5,0.4
		c-0.4,0.3-0.7,0.6-1.1,0.9c-0.1,0.1-0.3,0.2-0.4,0.3c-0.4,0.3-0.8,0.7-1.2,1c0,0,0,0-0.1,0.1c-2.4,2.2-4.6,4.7-6.4,7.4c0,0,0,0,0,0
		c-0.3,0.5-0.7,1-1,1.5c0,0.1-0.1,0.1-0.1,0.2c-0.3,0.5-0.6,1-0.9,1.5c0,0.1-0.1,0.2-0.1,0.2c-0.3,0.5-0.5,1-0.8,1.5
		c0,0.1-0.1,0.2-0.1,0.3c-0.3,0.5-0.5,1-0.7,1.5c0,0.1-0.1,0.2-0.1,0.3c-0.2,0.5-0.4,1-0.7,1.6c0,0.1-0.1,0.2-0.1,0.3
		c-0.2,0.5-0.4,1.1-0.6,1.6c0,0.1-0.1,0.2-0.1,0.3c-0.2,0.5-0.4,1.1-0.5,1.6c0,0.1-0.1,0.2-0.1,0.3c-0.2,0.6-0.3,1.1-0.4,1.7
		c0,0.1,0,0.2-0.1,0.3c-0.1,0.6-0.3,1.2-0.4,1.8c0,0.1,0,0.2,0,0.3c-0.1,0.6-0.2,1.2-0.3,1.8c0,0.1,0.2,0.1,0.2,0.2
		c-0.1,0.6,0,1.3,0,1.9c0,0,0,0,0,0C20,73.8,33,82.9,49,86.1z M47.3,35c6.9,0,6.7-0.1,6.7-7c0-0.5,0-1.1,0-1.7c0,0.6,0,1.2,0,1.7
		c1,6.9,0.8,7,7.7,7c0.5,0,1.1,0,1.7,0c-0.6,0-1.2,0-1.7,0c-6.9,0-6.7,0.6-7.7,7.4c0,0.5,0,1.1,0,1.7c0-0.6,0-1.2,0-1.7
		C54,35.6,54.2,35,47.3,35c-0.5,0-1.1,0-1.7,0C46.2,35,46.8,35,47.3,35z M30.1,38c3.3,0,3.9-0.6,3.9-3.9c0-0.3,0-0.5,0-0.8
		c0,0.3,0,0.6,0,0.8c0,3.3-0.3,3.9,3,3.9c0.3,0,0.5,0,0.8,0c-0.3,0-0.6,0-0.8,0c-3.3,0-3-0.3-3,3c0,0.3,0,0.5,0,0.8
		c0-0.3,0-0.6,0-0.8C34,37.7,33.4,38,30.1,38c-0.3,0-0.5,0-0.8,0C29.5,38,29.8,38,30.1,38z"/>
	<path opacity="0.18" fill="#FFFFFF" d="M49,86.1V71.6c-1,2.1-0.5,5-0.5,8.9c0,1.2,0,2.5,0,3.9c0-1.4,0-2.7,0-3.9
		c0-13.8-0.8-14.5-14.5-14.5c-1.2,0-2.5,0-3.9,0c1.4,0,2.7,0,3.9,0c13.8,0,14.5-0.8,14.5-14.5c0-1.2,0-2.5,0-3.9
		c0,1.4,0.1,2.7,0.1,3.9c0,3.9-0.5,6.8,0.5,8.9V60c0-5,3.9-9,8.9-9h29.3h4h8.5c-0.1,0-0.2-0.6-0.3-0.9c-0.1-0.3-0.2-0.6-0.3-0.9
		c-0.1-0.3-0.3-0.6-0.4-0.9c-0.1-0.3-0.2-0.6-0.4-0.8c-0.1-0.3-0.3-0.6-0.4-0.9c-0.1-0.3-0.3-0.6-0.4-0.8c-0.2-0.4-0.4-0.8-0.7-1.3
		c-0.2-0.4-0.4-0.7-0.6-1.1c-0.2-0.3-0.3-0.5-0.5-0.8c-0.2-0.3-0.3-0.5-0.5-0.8c-0.2-0.3-0.4-0.5-0.5-0.8c-0.2-0.3-0.4-0.5-0.6-0.8
		c-0.2-0.3-0.4-0.5-0.6-0.8c-0.2-0.3-0.5-0.6-0.7-0.9c-0.3-0.3-0.6-0.7-0.9-1c-0.2-0.3-0.5-0.6-0.7-0.8c-0.2-0.2-0.4-0.4-0.6-0.7
		c-0.2-0.2-0.5-0.5-0.7-0.7c-0.2-0.2-0.4-0.4-0.6-0.6c-0.3-0.3-0.5-0.5-0.8-0.8c0,0-0.1-0.1-0.1-0.1c-1,0-2,0-3,0c1.1,0,2.1,0,3,0
		c-0.2-0.1-0.3-0.3-0.5-0.4c-0.4-0.4-0.9-0.8-1.3-1.2c-0.2-0.2-0.4-0.3-0.6-0.5c-0.3-0.2-0.6-0.5-0.9-0.7c-0.2-0.2-0.4-0.3-0.7-0.5
		c-0.3-0.2-0.6-0.4-0.9-0.7c-0.2-0.1-0.4-0.3-0.6-0.4c-0.4-0.3-0.8-0.5-1.2-0.8c-0.1-0.1-0.3-0.2-0.4-0.3c-0.5-0.3-1.1-0.6-1.6-0.9
		c-0.2-0.1-0.4-0.2-0.6-0.3c-0.4-0.2-0.7-0.4-1.1-0.6c-0.2-0.1-0.4-0.2-0.7-0.3c-0.4-0.2-0.8-0.4-1.2-0.5c-0.2-0.1-0.4-0.2-0.6-0.3
		c-0.6-0.2-1.2-0.5-1.8-0.7c-0.1,0-0.2-0.1-0.4-0.1c-0.5-0.2-1-0.3-1.5-0.5c-0.2-0.1-0.4-0.1-0.6-0.2c-0.4-0.1-0.9-0.3-1.3-0.4
		c-0.2-0.1-0.4-0.1-0.7-0.2c-0.5-0.1-1-0.2-1.5-0.3c-0.1,0-0.3-0.1-0.4-0.1c-0.6-0.1-1.3-0.2-2-0.3c-0.2,0-0.4,0-0.5-0.1
		c-0.5-0.1-1-0.1-1.5-0.2c-0.2,0-0.5,0-0.7-0.1c-0.5,0-1-0.1-1.4-0.1c-0.2,0-0.4,0-0.6,0C59.7,22,59,22,58.3,22
		c-0.7,0-1.5,0-2.2,0.1c-0.2,0-0.5,0-0.7,0.1c-0.5,0-1,0.1-1.4,0.1c-0.3,0-0.6,0.1-0.9,0.1c-0.4,0.1-0.8,0.1-1.3,0.2
		c-0.3,0-0.6,0.1-0.9,0.2c-0.4,0.1-0.8,0.1-1.2,0.2c-0.3,0.1-0.6,0.1-0.9,0.2c-0.4,0.1-0.8,0.2-1.1,0.3c-0.3,0.1-0.6,0.2-1,0.3
		c-0.4,0.1-0.7,0.2-1.1,0.3c-0.3,0.1-0.6,0.2-1,0.3c-0.3,0.1-0.7,0.2-1,0.3c-0.3,0.1-0.6,0.2-1,0.4c-0.3,0.1-0.6,0.3-1,0.4
		c-0.3,0.1-0.7,0.3-1,0.4c-0.3,0.1-0.6,0.3-0.9,0.4c-0.3,0.2-0.6,0.3-1,0.5c-0.3,0.1-0.6,0.3-0.9,0.4c-0.3,0.2-0.7,0.3-1,0.5
		c-0.3,0.2-0.5,0.3-0.8,0.5c-0.3,0.2-0.7,0.4-1,0.6c-0.2,0.2-0.5,0.3-0.7,0.5c-0.3,0.2-0.7,0.4-1,0.7c-0.2,0.2-0.4,0.3-0.6,0.5
		c-0.3,0.2-0.7,0.5-1,0.7c-0.2,0.1-0.4,0.3-0.5,0.4c-0.4,0.3-0.7,0.6-1.1,0.9c-0.1,0.1-0.3,0.2-0.4,0.3c-0.4,0.3-0.8,0.7-1.2,1
		c0,0,0,0-0.1,0.1c-2.4,2.2-4.6,4.7-6.4,7.4c0,0,0,0,0,0c-0.3,0.5-0.7,1-1,1.5c0,0.1-0.1,0.1-0.1,0.2c-0.3,0.5-0.6,1-0.9,1.5
		c0,0.1-0.1,0.2-0.1,0.2c-0.3,0.5-0.5,1-0.8,1.5c0,0.1-0.1,0.2-0.1,0.3c-0.3,0.5-0.5,1-0.7,1.5c0,0.1-0.1,0.2-0.1,0.3
		c-0.2,0.5-0.4,1-0.7,1.6c0,0.1-0.1,0.2-0.1,0.3c-0.2,0.5-0.4,1.1-0.6,1.6c0,0.1-0.1,0.2-0.1,0.3c-0.2,0.5-0.4,1.1-0.5,1.6
		c0,0.1-0.1,0.2-0.1,0.3c-0.2,0.6-0.3,1.1-0.4,1.7c0,0.1,0,0.2-0.1,0.3c-0.1,0.6-0.3,1.2-0.4,1.8c0,0.1,0,0.2,0,0.3
		c-0.1,0.6-0.2,1.2-0.3,1.8c0,0.1,0.2,0.1,0.2,0.2c-0.1,0.6,0,1.3,0,1.9c0,0,0,0,0,0C20,73.8,33,82.9,49,86.1z M47.3,35
		c6.9,0,6.7-0.1,6.7-7c0-0.5,0-1.1,0-1.7c0,0.6,0,1.2,0,1.7c1,6.9,0.8,7,7.7,7c0.5,0,1.1,0,1.7,0c-0.6,0-1.2,0-1.7,0
		c-6.9,0-6.7,0.6-7.7,7.4c0,0.5,0,1.1,0,1.7c0-0.6,0-1.2,0-1.7C54,35.6,54.2,35,47.3,35c-0.5,0-1.1,0-1.7,0C46.2,35,46.8,35,47.3,35
		z M30.1,38c3.3,0,3.9-0.6,3.9-3.9c0-0.3,0-0.5,0-0.8c0,0.3,0,0.6,0,0.8c0,3.3-0.3,3.9,3,3.9c0.3,0,0.5,0,0.8,0c-0.3,0-0.6,0-0.8,0
		c-3.3,0-3-0.3-3,3c0,0.3,0,0.5,0,0.8c0-0.3,0-0.6,0-0.8C34,37.7,33.4,38,30.1,38c-0.3,0-0.5,0-0.8,0C29.5,38,29.8,38,30.1,38z"/>
	<path fill="#BBDC00" d="M104,51h-4.3h0H91v28.5c12-6.6,18.9-16.5,19.1-28.5H104c0,0,0,0.8,0,1.2C104,51.8,104,51,104,51z"/>
	<path opacity="0.18" fill="#FFFFFF" d="M104,51h-4.3h0H91v28.5c12-6.6,18.9-16.5,19.1-28.5H104c0,0,0,0.8,0,1.2
		C104,51.8,104,51,104,51z"/>
	<path fill="#BBDC00" d="M49,60v0.3c1,5.3,4.1,5.7,14,5.7c1.2,0,2.5,0,3.9,0c-1.4,0-2.7,0-3.9,0c-9.9,0-13,0.4-14,5.7v14.4
		c4,0.8,7.9,1.2,12.1,1.2c9.6,0,18.9-2.1,25.9-5.6V51H57.9C52.9,51,49,55,49,60z M71.6,60.2c0,0.8,0,1.5,0,2.1c0,7.6,0.4,8,8,8
		c0.7,0,1.4,0,2.1,0c-0.8,0-1.5,0-2.1,0c-7.6,0-8,0.4-8,8c0,0.7,0,1.4,0,2.1c0-0.8,0-1.5,0-2.1c0-7.6-0.4-8-8-8c-0.7,0-1.4,0-2.1,0
		c0.8,0,1.5,0,2.1,0c7.6,0,8-0.4,8-8C71.6,61.7,71.6,61,71.6,60.2z"/>
	<path opacity="0.18" fill="#FFFFFF" d="M49,60v0.3c1,5.3,4.1,5.7,14,5.7c1.2,0,2.5,0,3.9,0c-1.4,0-2.7,0-3.9,0
		c-9.9,0-13,0.4-14,5.7v14.4c4,0.8,7.9,1.2,12.1,1.2c9.6,0,18.9-2.1,25.9-5.6V51H57.9C52.9,51,49,55,49,60z M71.6,60.2
		c0,0.8,0,1.5,0,2.1c0,7.6,0.4,8,8,8c0.7,0,1.4,0,2.1,0c-0.8,0-1.5,0-2.1,0c-7.6,0-8,0.4-8,8c0,0.7,0,1.4,0,2.1c0-0.8,0-1.5,0-2.1
		c0-7.6-0.4-8-8-8c-0.7,0-1.4,0-2.1,0c0.8,0,1.5,0,2.1,0c7.6,0,8-0.4,8-8C71.6,61.7,71.6,61,71.6,60.2z"/>
	<path fill="#FFFFFF" d="M30,65.9c1.4,0,2.7,0,3.9,0C32.7,65.9,31.4,65.9,30,65.9z"/>
	<path fill="#FFFFFF" d="M48.4,84.4c0-1.4,0-2.7,0-3.9C48.4,81.7,48.4,83,48.4,84.4z"/>
	<path fill="#FFFFFF" d="M48.4,47.5c0,1.4,0,2.7,0,3.9C48.4,50.2,48.4,48.9,48.4,47.5z"/>
	<path fill="#FFFFFF" d="M66.9,65.9c-1.4,0-2.7,0-3.9,0C64.2,65.9,65.4,65.9,66.9,65.9z"/>
	<path fill="#6DC6E9" d="M122,33.7c-1.4,0-2.7,0-3.9,0C119.3,33.7,120.6,33.7,122,33.7z"/>
	<path fill="#6DC6E9" d="M104,51c0,0.4,0,0.8,0,1.2C104,51.8,104,51.4,104,51c0-1,0-1.9,0-2.7C104,49.1,104,50,104,51z"/>
	<path fill="#6DC6E9" d="M103.6,15.3c0,1.4,0,2.7,0,3.9C103.6,18,103.6,16.7,103.6,15.3z"/>
	<path fill="#6DC6E9" d="M103.6,48.3c0-13.8,0.8-14.5,14.5-14.5c-13.8,0-14.5-0.8-14.5-14.5c0,13.8-0.8,14.5-14.5,14.5
		C102.9,33.8,103.6,34.5,103.6,48.3z"/>
	<path fill="#6DC6E9" d="M85.2,34c1.1,0,2.1,0,3,0c0,0,0,0,0,0c0.3,0,0.6,0,0.9,0c-0.3,0-0.6,0-0.9,0c0,0,0,0,0,0
		C87.3,34,86.3,34,85.2,34z"/>
	<path fill="#6DC6E9" d="M72.4,18c-0.6,0-1.3,0-2,0C71.2,18,71.8,18,72.4,18z"/>
	<path fill="#6DC6E9" d="M79.9,25.5c0-7.1,0.4-7.4,7.4-7.4c-7.1,0-7.4-0.4-7.4-7.4c0,7.1-0.4,7.4-7.4,7.4
		C79.5,18,79.9,18.4,79.9,25.5z"/>
	<path fill="#6DC6E9" d="M79.9,8.6c0,0.7,0,1.4,0,2C79.9,9.9,79.9,9.3,79.9,8.6z"/>
	<path fill="#6DC6E9" d="M89.3,18c-0.7,0-1.4,0-2,0C87.9,18,88.6,18,89.3,18z"/>
	<path fill="#6DC6E9" d="M79.9,27.4c0-0.7,0-1.4,0-2C79.9,26.1,79.9,26.7,79.9,27.4z"/>
	<path fill="#6DC6E9" d="M23.8,116.4c0.7,0,1.4,0,2,0C25.1,116.4,24.5,116.4,23.8,116.4z"/>
	<path fill="#6DC6E9" d="M40.6,116.4c0.6,0,1.3,0,2,0C41.9,116.4,41.2,116.4,40.6,116.4z"/>
	<path fill="#6DC6E9" d="M33.2,108.9c0,7.1-0.4,7.4-7.4,7.4c7.1,0,7.4,0.4,7.4,7.4c0-7.1,0.4-7.4,7.4-7.4
		C33.6,116.4,33.2,116,33.2,108.9z"/>
	<path fill="#6DC6E9" d="M33.2,106.9c0,0.7,0,1.4,0,2C33.2,108.3,33.2,107.7,33.2,106.9z"/>
	<path fill="#6DC6E9" d="M33.2,125.8c0-0.7,0-1.4,0-2C33.2,124.4,33.2,125.1,33.2,125.8z"/>
	<path fill="#FFFFFF" d="M65.3,115.4c0-0.8,0-1.5,0-2.1C65.3,114,65.3,114.7,65.3,115.4z"/>
	<path fill="#FFFFFF" d="M65.3,95.2c0,0.8,0,1.5,0,2.1C65.3,96.7,65.3,96,65.3,95.2z"/>
	<path fill="#FFFFFF" d="M55.2,105.3c0.8,0,1.5,0,2.1,0C56.7,105.3,56,105.3,55.2,105.3z"/>
	<path fill="#FFFFFF" d="M75.4,105.3c-0.8,0-1.5,0-2.1,0C74,105.3,74.7,105.3,75.4,105.3z"/>
	<path fill="#FFFFFF" d="M81.7,70.3c-0.8,0-1.5,0-2.1,0C80.2,70.3,80.9,70.3,81.7,70.3z"/>
	<path fill="#FFFFFF" d="M71.6,80.4c0-0.8,0-1.5,0-2.1C71.6,78.9,71.6,79.6,71.6,80.4z"/>
	<path fill="#FFFFFF" d="M61.5,70.3c0.8,0,1.5,0,2.1,0C62.9,70.3,62.2,70.3,61.5,70.3z"/>
	<path fill="#FFFFFF" d="M71.6,60.2c0,0.8,0,1.5,0,2.1C71.6,61.7,71.6,61,71.6,60.2z"/>
	<path fill="#FFFFFF" d="M54,26.3c0,0.6,0,1.2,0,1.7C54,27.5,54,26.9,54,26.3z"/>
	<path fill="#FFFFFF" d="M63.4,35c-0.6,0-1.2,0-1.7,0C62.2,35,62.8,35,63.4,35z"/>
	<path fill="#FFFFFF" d="M47.3,35c-0.5,0-1.1,0-1.7,0C46.2,35,46.8,35,47.3,35z"/>
	<path fill="#FFFFFF" d="M54,44.2c0-0.6,0-1.2,0-1.7C54,43,54,43.5,54,44.2z"/>
	<path fill="#FFFFFF" d="M34,41.8c0-0.3,0-0.6,0-0.8C34,41.3,34,41.5,34,41.8z"/>
	<path fill="#FFFFFF" d="M37.8,38c-0.3,0-0.6,0-0.8,0C37.2,38,37.5,38,37.8,38z"/>
	<path fill="#FFFFFF" d="M30.1,38c-0.3,0-0.5,0-0.8,0C29.5,38,29.8,38,30.1,38z"/>
	<path fill="#FFFFFF" d="M34,33.3c0,0.3,0,0.6,0,0.8C34,33.9,34,33.6,34,33.3z"/>
	<polygon fill="#FFFFFF" points="91,89 91,79.5 91,51 87,51 87,81.6 87,89 49,89 49,93 87,93 87,132 91,132 91,93 129,93 129,89 	
		"/>
</g>
</svg>
