<?xml version="1.0" encoding="utf-8"?>
<!-- Generator: Adobe Illustrator 18.1.0, SVG Export Plug-In . SVG Version: 6.00 Build 0)  -->
<svg version="1.1" id="Layer_1" xmlns="http://www.w3.org/2000/svg" xmlns:xlink="http://www.w3.org/1999/xlink" x="0px" y="0px"
	 viewBox="0 0 1500 1500" enable-background="new 0 0 1500 1500" xml:space="preserve">
<g>
	<path fill="none" d="M952.5,365.4c0.5,0.5,1.4,0.6,2.2,0.5c0.7-0.1,1.6-0.7,1.8-1.3c3-9.4-85.1-118.1-174.8-161.8
		c-0.9-0.5-2.1-0.2-2.7,0.6c-0.2,0.3-0.3,0.5-0.3,0.8c0,0.5,0.3,1.1,0.9,1.4l-11.1,14.8c-0.9-0.5-2.1-0.3-2.7,0.5
		c-0.6,0.8-0.3,1.8,0.6,2.3C767.6,223.6,877.4,283.1,952.5,365.4z"/>
	<path fill="none" d="M734.7,208.3c6.7-2.2,12.2-7,15.3-13c5.8-11.3,1.1-23.8-10.4-27.9c-11.5-4.1-25.5,1.7-31.3,13
		c-5.8,11.3-1.1,23.8,10.4,27.9C723.6,210.1,729.3,210.1,734.7,208.3z"/>
	
		<line fill="none" stroke="#0E955E" stroke-width="0" stroke-linecap="round" stroke-linejoin="round" x1="673.9" y1="230.8" x2="673.9" y2="230.8"/>
	<path fill="#0E955E" d="M678.4,162.2c-2.7-6.1-5.4-13-7.7-19l-17.5,11.6c3.3,5.1,7.1,11.1,10.9,17.5
		C668.6,168.9,673.5,165.5,678.4,162.2z"/>
	<path fill="#0E955E" d="M661.8,248.7c-4.6,0.9-9.1,1-13.5,0.3c-3.7-0.6-7.2-1.9-10.6-3.6c2,23.4,4.5,43,6.9,47.9l0.1-0.2
		L661.8,248.7z"/>
	<path fill="#0E955E" d="M1228.6,1275.2l-141.3-592.7c-84-269.9-365-405.3-368-406.7c-0.9-0.5-1.3-1.4-0.7-2.3
		c0.5-0.8,1.7-1.1,2.7-0.6c0,0,0.2,0.1,0.2,0.1l21.4-23.8c-0.7-0.5-1.1-1.3-0.6-2c0.5-0.8,1.7-1.1,2.7-0.7
		C893.1,310.3,1001,454,1059.6,566.5l-81.7-342.6C960.1,148.9,875.7,88.2,789.4,88.3l-71.1,0c9.4,15.4,13.6,37.7,10.6,63.1
		c-0.1,0.9-1,1.5-2,1.5c-1,0-1.9,2.2-1.9,1.3c-2.3-31.9-17.5-60.2-36.7-60.2h-17.6c-21.3,0-37.8,33.1-38.8,68.6
		c4.1-2.8,8.8-7.2,13.8-10.2c-0.2-0.5-0.3-1.8-0.4-2.1c-0.2-0.8,0.3-2,1.2-2.3c0.9-0.3,2-0.2,2.4,0.6c0.1,0.1,0.2,0.2,0.3,0.4
		c6.2-3.7,12.7-7.4,19.3-11.1c-1.8-4.8-3.1-8.4-3.5-9.6c-0.3-0.8,0.2-1.7,1.1-2c0.9-0.3,2,0,2.5,0.7c1.7,2.6,3.4,5.3,5.1,7.9
		c5.7-3.1,11.2-6.1,16.3-8.8l-3.3-7.4c-1.9-2.8-3.8-5.5-5.8-8.2c-0.2-0.3-0.3-0.6-0.3-0.9c0-0.6,0.3-1.1,1-1.4
		c0.9-0.5,2.1-0.2,2.7,0.6c3.1,4.3,6.8,9.6,10.3,14.9c3.9-2,7.5-3.9,10.6-5.5c0.9-0.5,2.1-0.2,2.7,0.5c0.6,0.8,0.3,1.8-0.6,2.3
		c-3.6,1.9-7.2,3.8-10.8,5.7c6.8,10.8,12,21.2,9,23.9c-1.3,1.2-3.3,1.2-6,0.1c-0.9-0.4-1.2-1.3-0.8-2.1c0.2-0.4,0.6-0.7,1.1-0.8
		l-8.3-18.4l-15.1,10c3.7,6,7.2,12,10.1,17.5c3-2,6-3.9,8.7-5.6c0.9-0.6,2.1-0.4,2.7,0.3c0.7,0.7,0.5,1.8-0.4,2.3
		c-3.1,2-6.3,4.1-9.4,6.1c4.9,9.6,7.5,17.1,5,19c-1.3,1.1-3.3,0.9-6.1-0.6c-1.8-1.5-4.4-6.2-7.1-12.1l-13.1,11
		c11.9,20,23,41.2,19.2,45.2c-0.4,0.4-1.7,1.4-4,0.9c-7.7-1.8-16.9-20.4-24.2-38.5l-9.4,7.8c0.4,0.3,0.6,0.7,0.5,1.2
		c-0.1,0.9-0.8,1.6-1.8,1.6c-3,0-3.9-1.3-4.2-2c-1-2.6,4.4-8.1,12.5-14.6c-3-7.8-5.6-15.2-7.4-20.6l-16,10.6
		c1.2,24.7,9.9,44.2,23.8,56.1c6.6,5.7,13.8,6.2,21.3,6.2h0l5.2,2.1c0.8-0.1,1.7,1.6,2.1,2.2c0.1,0.1,0,0.9,0.1,1l0.7,0.2
		c1.1-0.9,1.9-1.3,2.1-1.5c0.8-0.6,2.1-0.4,2.8,0.3c0.7,0.7,0.6,1.8-0.3,2.4c-0.3,0.2-26.3,19.1-36.8,70.2c5.3,5,9.3,9.8,8.7,12.5
		c3.1,174.2,16.7,214.7,18.1,218.5c1.5,1,7.4,5.2,14.5,17.8c8.6,15.2,12.3,21,13.9,23.3c1.7-1.2,9.6-6.9,13.8-9.9
		c-3.9-1-18.7-5.4-18.7-14.3c0-0.8,0.1-1.7,0.4-2.6c7.7-24.4,26.8-50.1,33.6-56.7c-7-7.3-9.2-14.2-9.2-19.7c0-5.3,1.9-9.3,2.9-11.1
		c3.1-5.3,8.1-8.8,12.5-8.7c2.7,0.1,4.8,1.4,6,3.8c5.1,10.7,15.1,16.5,21.5,16.5c16.9-1.8,31.7,1.2,42.4,8.9
		c21.1,15.4,22.4,43.7,22.4,44.9v0c0,0.3-0.8,0.6-1,0.8c0,0-49.2,72.1-50.8,74.5c104.7,65.7,158.4,129.9,160,190.7
		c0,0.9-0.1,1.8-0.1,2.6c0,55.7-46.2,87.9-46.6,88.2c-0.6,0.4-1.3,0.5-2,0.2c-17.8-6.1-46.3-15.2-51.8-15.2c-1.3,0-2.3-0.5-2.8-1.4
		c-2.4-4.2,15.1-23.4,30.1-38.6c0.4-0.4,0.9-0.6,1.5-0.6c1.2,0,6.3,0.2,9.8,1.6c6.3-6.9,9.7-14.7,9.7-23.4c0-1.7-0.1-3.5-0.4-5.3
		c-2.7-19.1-19-39.2-36.5-55.9c-1.7,1.6-3.3,2.7-4.9,2.8c-1.6,0.2-3.8-0.2-5.7-3.1c-6.6-10-25.4-24.7-36.5-33
		c-5.6,7.8-20.5,28.6-20.5,28.6c-7.3,10.7-18-22.5-18-7.4c0,18.9,4.4,39.5,9.7,57.6c66.2,95.3,155.7,308,155.7,317.6
		c0,0.2,0,0.3-0.1,0.4c-8,69.9-51,186.2-71.1,237.7c3.1,14.7,4.1,31.8,4.1,46.1c0,5.2-0.1,9.9-0.3,14.1l237.1-0.1
		C1191,1410.9,1246.4,1350.1,1228.6,1275.2z M765.9,220.8c0.6-0.8,1.8-1,2.7-0.5l11.1-14.8c-0.6-0.3-0.9-0.8-0.9-1.4
		c0-0.3,0.1-0.6,0.3-0.8c0.6-0.8,1.8-1.1,2.7-0.6c89.6,43.7,177.8,152.4,174.8,161.8c-0.2,0.6-1,1.2-1.8,1.3c-0.7,0.1-1.7,0-2.2-0.5
		c-75.1-82.2-184.9-141.7-186-142.3C765.5,222.5,765.3,221.5,765.9,220.8z M708.3,180.5c5.8-11.3,19.8-17.1,31.3-13
		c11.5,4.1,16.2,16.6,10.4,27.9c-3.1,6-8.6,10.7-15.3,13c-5.4,1.8-11,1.8-16,0C707.2,204.2,702.5,191.7,708.3,180.5z"/>
	<path fill="#1A5EAB" d="M827.3,1074.5c-1,0.3-2.1-0.2-2.5-1c-13.3-29-30.9-58.6-44.8-80.3c1.9,106.8,24.3,231.3,40,290.3
		c5.8,2.4,9.7,4.1,11.6,4.9c3.3-17.1,25.8-133,25.8-149c0-13.2-10.4-40.7-23.6-69.9C831,1072.2,828.6,1074.1,827.3,1074.5z"/>
	<path fill="#1A5EAB" d="M691.8,1105.7c-0.5-0.2-0.9-0.6-1-1.1c-20.1-70.5-33.6-161-41.8-229.6C600.5,731,596,511.4,596.1,509.7
		c0-0.5,0.3-0.9,0.7-1.2l10.2-7.2c0.3-83,7.7-146,8.6-153.4c-0.3,0.1-0.2,0.4-0.5,0.4c-2.8,0-5.3-1-7.4-3c-13.4-12.6-6-65.8-5.7-68
		c0.1-0.6,0.5-1.1,1.1-1.3c0.6-0.2,1.4-0.2,1.9,0.1l22.1,12.8c-1.2-19.3-5.1-42.9-13.9-71.9c-0.1-0.3-0.1-0.5,0-0.8
		c0.1-0.3,0.3-0.5,0.4-0.8c-6.7-18.4-7.7-42.1-2.1-66.5c5.6-24.6,16.9-46,30.7-60.8l-212,0.1c-86.2,0-141.7,60.8-123.8,135.7
		l250.6,1051.3c17.9,74.9,102.3,135.6,188.5,135.6l92.1,0c-67.7-94.7-110.7-209.6-137.3-306C696.2,1105.9,693,1106.2,691.8,1105.7z"
		/>
</g>
</svg>
