<?xml version="1.0" encoding="utf-8"?>
<!-- Generator: Adobe Illustrator 18.1.0, SVG Export Plug-In . SVG Version: 6.00 Build 0)  -->
<svg version="1.1" id="Layer_1" xmlns="http://www.w3.org/2000/svg" xmlns:xlink="http://www.w3.org/1999/xlink" x="0px" y="0px"
	 viewBox="0 0 150 150" enable-background="new 0 0 150 150" xml:space="preserve">
<g>
	<path fill="#7ECBEB" d="M117.6,49.3c-1.7,2.6-4,3.8-6.1,4.2c2,1,4.5,4,4.5,4s0-1.5,1.8-0.8c1.8,0.8,7,11.4,3.4,32.8
		c-3.6,21.4-28.4,39.5-43.9,39.2c-15.5-0.3-13.7-8.8-13.7-8.8c-0.5-0.2-0.9-0.5-1-0.9c-13.7,5.5-21.7-1.3-21.7-1.3s-5.8,2.9-7.6-1.2
		c-1.7-4.1,2.3-5.8,2.3-5.8s-5.2-3.1-7.6-10.3c-0.2,10.4,2.5,30.1,25.7,37.4c32,10.2,68.2-7,75.8-38.9
		C134.6,76.8,127.7,58.3,117.6,49.3z"/>
	<path fill="#7ECBEB" d="M105.8,53.5l-4.1-5.9c0,0,0,0-0.1-0.1c4.8,7.4,7.3,13.2,7.3,13.2c0,9.9-11.7,23.9-11.7,23.9l-7.2-7.9
		c0-0.6,0.1-1.2,0.1-1.8c-0.6,4.9-2.7,8.9-7.3,10.1c0,1,0.1,2,0,3c-0.1,0,0,0-0.1,0c0,0.3,0.2,0.7,0.2,1.1c0,0,0,0.1,0,0.1
		c0,5.5-1.5,12.4-6.2,17.3c0.8,0.3,1.3,0.2,1.3,0.2c27.4-3.6,33.2-33.8,33.2-33.8s-2.3-5.4-2.1-7.7c0.3-2.3,2.6-1.3,2.6-1.3
		s-1-6.7-1.6-7c-0.4-0.2-1.3-2-1-3C107.3,53.9,105.8,53.5,105.8,53.5z"/>
	<path fill="#7ECBEB" d="M88.9,59.7c-0.4-1.7-0.8-3.2-1.2-4.5C88,56.5,88.5,58,88.9,59.7z"/>
	<path fill="#F5CEB4" d="M35.5,110.8c0,0-4.1,1.7-2.3,5.8c1.7,4.1,7.6,1.2,7.6,1.2s8,6.8,21.7,1.3c0.2,0.4,0.5,0.7,1,0.9
		c0,0-1.8,8.5,13.7,8.8c15.5,0.3,40.3-17.8,43.9-39.2c3.6-21.4-1.5-32-3.4-32.8c-1.8-0.8-1.8,0.8-1.8,0.8s-2.5-3-4.5-4
		c-0.8,0.2-1.5,0.2-2.1,0.2c-0.3,1,0.6,2.8,1,3c0.5,0.3,1.5,7,1.5,7s-2.3-1-2.6,1.3c-0.3,2.3,2.1,7.7,2.1,7.7S105.3,103,78,106.6
		c0,0-0.6,0.2-1.4-0.2c4.7-4.9,6-11.7,6-17.3c0,0.4,0,0.9,0,1.3c-2.8,0.4-6.4,0.4-10.3-0.3c-3.6,4.4-9.5,5.3-10.1,4.8
		c-0.7-0.5-1.3-1.8,0-2.6c1.3-0.7,0.7,1.3,0.7,1.3c4.1,0.5,7.5-3,8.1-3.7c-3.3-0.7-6.8-1.8-10.3-3.6c-9.7-4.8-15.2-12.5-17.2-15.9
		c-0.8,0-1.5-0.1-2.1-0.2c-7.1,3-10.7,8.5-12.7,13.1c-0.8,1.6-1.4,3.5-1.7,5.7c-0.3,1.5-0.4,2.5-0.4,2.5l0.1,0
		c-0.2,3.5,0.3,6.5,1.2,9C30.3,107.8,35.5,110.8,35.5,110.8z M53.6,84.1c0,0-0.8,8.6-10.5,9.3c0,0,0-1.8,0.8-1.8S51,91.5,53.6,84.1z
		"/>
	<path fill="#F5CEB4" d="M82.6,89.1c0-0.4,0-0.7,0-1.1c0,0,0,0,0,0C82.6,88.4,82.6,88.7,82.6,89.1z"/>
	<path fill="#7ECBEB" d="M83,89.1C83,89.1,83,89.2,83,89.1C83,89.2,83,89.1,83,89.1z"/>
	<path opacity="0.66" fill="#E5A475" d="M83,89.1C83,89.1,83,89.2,83,89.1C83,89.2,83,89.1,83,89.1z"/>
	<path fill="#F5CEB4" d="M82.8,88c-5.4,0.7-13.4-0.1-21.7-4.2c-7.7-3.8-12.8-9.5-15.5-13.3c0,0,0,0-0.1,0c-0.7,0-1.4,0-2-0.1
		c2,3.4,7.5,11.1,17.2,15.9c3.6,1.8,7.1,2.9,10.3,3.6c0.1-0.1,0.1-0.1,0.1-0.1l2.2-1.1c-0.3,0.5-0.7,1-1,1.5c4,0.7,7.7,0.7,10.5,0.3
		c0-0.5,0.2-0.9,0.2-1.3c0,0,0-0.1,0-0.1C83,88.7,82.8,88.4,82.8,88z"/>
	<path opacity="0.66" fill="#E5A475" d="M82.8,88c-5.4,0.7-13.4-0.1-21.7-4.2c-7.7-3.8-12.8-9.5-15.5-13.3c0,0,0,0-0.1,0
		c-0.7,0-1.4,0-2-0.1c2,3.4,7.5,11.1,17.2,15.9c3.6,1.8,7.1,2.9,10.3,3.6c0.1-0.1,0.1-0.1,0.1-0.1l2.2-1.1c-0.3,0.5-0.7,1-1,1.5
		c4,0.7,7.7,0.7,10.5,0.3c0-0.5,0.2-0.9,0.2-1.3c0,0,0-0.1,0-0.1C83,88.7,82.8,88.4,82.8,88z"/>
	<path fill="#7ECBEB" d="M82,85.4C82,85.4,82,85.4,82,85.4c0,0.4,0.3,0.7,0.3,1.1c0,0,0.1,0.1,0.1,0.1c0,0.5,0.1,0.9,0.1,1.4
		c0.1,0,0.3,0,0.4,0c0-1.1,0-2.1,0-3c-0.2,0-0.6,0.1-0.7,0.1C82.2,85.2,82,85.3,82,85.4z"/>
	<path opacity="0.66" fill="#E5A475" d="M82,85.4C82,85.4,82,85.4,82,85.4c0,0.4,0.3,0.7,0.3,1.1c0,0,0.1,0.1,0.1,0.1
		c0,0.5,0.1,0.9,0.1,1.4c0.1,0,0.3,0,0.4,0c0-1.1,0-2.1,0-3c-0.2,0-0.6,0.1-0.7,0.1C82.2,85.2,82,85.3,82,85.4z"/>
	<path fill="#F5CEB4" d="M82.6,88C82.6,88,82.6,88,82.6,88c0-0.5,0-1-0.1-1.4C82.5,87.1,82.5,87.6,82.6,88z"/>
	<path opacity="0.66" fill="#E5A475" d="M82.6,88C82.6,88,82.6,88,82.6,88c0-0.5,0-1-0.1-1.4C82.5,87.1,82.5,87.6,82.6,88z"/>
	<path fill="#F5CEB4" d="M82.3,85.1c0,0.1,0,0.2,0,0.3C82.3,85.3,82.3,85.2,82.3,85.1C82.3,85.1,82.3,85.1,82.3,85.1z"/>
	<path opacity="0.66" fill="#E5A475" d="M82.3,85.1c0,0.1,0,0.2,0,0.3C82.3,85.3,82.3,85.2,82.3,85.1C82.3,85.1,82.3,85.1,82.3,85.1
		z"/>
	<path fill="#F5CEB4" d="M82.5,86.5c0-0.4-0.1-0.8-0.1-1.1C82.4,85.7,82.4,86.1,82.5,86.5z"/>
	<path opacity="0.66" fill="#E5A475" d="M82.5,86.5c0-0.4-0.1-0.8-0.1-1.1C82.4,85.7,82.4,86.1,82.5,86.5z"/>
	<path fill="#7ECBEB" d="M82.5,86.6c0,0,0-0.1,0-0.1C82.5,86.5,82.5,86.6,82.5,86.6z"/>
	<path opacity="0.66" fill="#E5A475" d="M82.5,86.6c0,0,0-0.1,0-0.1C82.5,86.5,82.5,86.6,82.5,86.6z"/>
	<path opacity="0.66" fill="#E5A475" d="M82.5,86.6c0,0,0-0.1,0-0.1C82.5,86.5,82.5,86.6,82.5,86.6z"/>
	<path fill="#7ECBEB" d="M82,85.4C82,85.4,82,85.4,82,85.4C82,85.4,82,85.4,82,85.4z"/>
	<path opacity="0.66" fill="#E5A475" d="M82,85.4C82,85.4,82,85.4,82,85.4C82,85.4,82,85.4,82,85.4z"/>
	<path opacity="0.66" fill="#E5A475" d="M82,85.4C82,85.4,82,85.4,82,85.4C82,85.4,82,85.4,82,85.4z"/>
	<path fill="#F5CEB4" d="M61,83.8c8.3,4.1,16.2,4.9,21.6,4.2c0-0.5,0-1-0.1-1.4c0,0-0.2-0.1-0.2-0.1c0-0.4-0.3-0.8-0.3-1.1
		c0,0,0,0,0,0c0-0.1,0.2-0.2,0.1-0.3c-0.3,0.1-0.5,0.1-0.8,0.2c-10.3,1.5-25-5.5-35.8-14.8c-0.1,0-0.1,0-0.2,0
		C48.2,74.4,53.3,80,61,83.8z"/>
	<path opacity="0.66" fill="#E5A475" d="M61,83.8c8.3,4.1,16.2,4.9,21.6,4.2c0-0.5,0-1-0.1-1.4c0,0-0.2-0.1-0.2-0.1
		c0-0.4-0.3-0.8-0.3-1.1c0,0,0,0,0,0c0-0.1,0.2-0.2,0.1-0.3c-0.3,0.1-0.5,0.1-0.8,0.2c-10.3,1.5-25-5.5-35.8-14.8
		c-0.1,0-0.1,0-0.2,0C48.2,74.4,53.3,80,61,83.8z"/>
	<path opacity="0.66" fill="#E5A475" d="M61,83.8c8.3,4.1,16.2,4.9,21.6,4.2c0-0.5,0-1-0.1-1.4c0,0-0.2-0.1-0.2-0.1
		c0-0.4-0.3-0.8-0.3-1.1c0,0,0,0,0,0c0-0.1,0.2-0.2,0.1-0.3c-0.3,0.1-0.5,0.1-0.8,0.2c-10.3,1.5-25-5.5-35.8-14.8
		c-0.1,0-0.1,0-0.2,0C48.2,74.4,53.3,80,61,83.8z"/>
	<path fill="#7B6648" d="M43.4,70.4c0.7,0,1.3,0.1,2,0.1c0,0,0,0,0,0c0.1,0,0.1,0,0.2,0c-5.3-4.6-9.6-9.7-12-14.7
		c-2.7-1.5-4.5-3.2-5.3-4.1l-0.2,0c0,0-2.2,16.3,13.1,18.6C42,70.3,42.7,70.4,43.4,70.4z"/>
	<path fill="#F0C09F" d="M81.5,85.2c0.3,0,0.6-0.2,0.8-0.2c0,0,0,0,0,0c0.2,0,0.4,0,0.6-0.1c4.6-1.3,6.6-5.2,7.3-10.1
		c0,0.6,0,1.2-0.1,1.8l7.2,8c0,0,11.7-14,11.7-23.9c0,0-2.5-5.9-7.3-13.2c-5.3-5.4-14.3-1.1-29.5,5c-0.1,2.5-2.5,7.7-10.4,9.9
		c0,0,5.8-1.9,8.3-9c-2.9,1.1-6,2.3-9.4,3.5c-12.8,4.5-21.7,2-27-1c2.4,5,6.7,10.1,12,14.7C56.4,79.8,71.2,86.7,81.5,85.2z
		 M87.6,55.1c0.4,1.3,0.9,2.8,1.2,4.5C88.5,58,88,56.5,87.6,55.1z M49.1,71.7c1.8-0.2,5.5-3.3,5.5-3.3
		C52.4,76.1,47.4,71.9,49.1,71.7z M69.4,79.8c0.7-0.1,0.2-2.2,2.4-2.4s4.9-0.9,5.3-3.8c0,0-0.9,6.6-5.1,7.5
		C67.8,82,66.5,80.1,69.4,79.8z M76,83.1c-1.5,0-2.6-1.1-2.6-1.1l3.7-2.7C78.9,81.4,77.5,83.1,76,83.1z"/>
	<path fill="#907D62" d="M33.7,55.8c5.3,3,14.2,5.6,27,1c3.4-1.2,6.5-2.4,9.4-3.5c-2.6,7.1-8.3,9-8.3,9c7.9-2.2,10.3-7.3,10.4-9.9
		c15.2-6.1,24.2-10.3,29.5-5c0,0,0,0,0.1,0.1l4.1,5.9c0,0,1.5,0.4,3.4,0.3c0.7,0,1.4-0.1,2.1-0.2c2.1-0.4,4.5-1.6,6.1-4.2
		c1.2-1.9,2-4.5,2.2-8.3c0.8-16-11.1-16-13.9-13.7c-2.8,2.3-2.8,9,1.5,9.8c0,0-2.1-1.3,0.5-3.4c2.6-2.1,4.9,4.9,0.5,5.2
		c-4.4,0.3-6.5-14.4-24.5-25C70,5.8,21.2,7.3,27.7,50.9c0,0,0.2,0.3,0.7,0.8C29.2,52.6,31,54.3,33.7,55.8z"/>
	<path fill="#E5A475" d="M71,89.8c0,0,0,0.1-0.1,0.1c-0.6,0.7-4,4.2-8.1,3.7c0,0,0.5-2-0.7-1.3c-1.3,0.7-0.7,2,0,2.6
		c0.7,0.5,6.6-0.4,10.1-4.8c0.4-0.5,0.7-0.9,1-1.5L71,89.8z"/>
	<path fill="#E5A475" d="M77.1,73.6c-0.4,2.9-3.1,3.7-5.3,3.8s-1.7,2.3-2.4,2.4c-2.9,0.4-1.6,2.2,2.6,1.3
		C76.2,80.1,77.1,73.6,77.1,73.6z"/>
	<path fill="#E5A475" d="M73.4,82c0,0,1.1,1.1,2.6,1.1s2.9-1.6,1.1-3.8L73.4,82z"/>
	<path fill="#907D62" d="M54.6,68.4c0,0-3.7,3.1-5.5,3.3C47.4,71.9,52.4,76.1,54.6,68.4z"/>
	<path fill="#907D62" d="M43.1,93.5c9.7-0.8,10.5-9.3,10.5-9.3c-2.5,7.4-9,7.6-9.7,7.6S43.1,93.5,43.1,93.5z"/>
</g>
</svg>
