<?xml version="1.0" encoding="utf-8"?>
<!-- Generator: Adobe Illustrator 16.0.0, SVG Export Plug-In . SVG Version: 6.00 Build 0)  -->
<!DOCTYPE svg PUBLIC "-//W3C//DTD SVG 1.1//EN" "http://www.w3.org/Graphics/SVG/1.1/DTD/svg11.dtd">
<svg version="1.1" id="Layer_1" xmlns="http://www.w3.org/2000/svg" xmlns:xlink="http://www.w3.org/1999/xlink" x="0px" y="0px"
	 width="100px" height="100px" viewBox="0 0 100 100" enable-background="new 0 0 100 100" xml:space="preserve">
<g>
	<g>
		<path fill="#F6921E" d="M9.598,7.349c0,0,0.234,32.878,43.054,44.233C52.652,51.582,50.525,15.628,9.598,7.349z"/>
		<path fill="#0D9948" d="M9.598,7.349c0,0,0,0.028,0.003,0.082L52.5,51.541c0.053,0.016,0.1,0.027,0.152,0.041
			C52.652,51.582,50.525,15.628,9.598,7.349z"/>
	</g>
	<g>
		<path fill="#8BC53F" d="M77.203,28.129c0,0-16.443,0.117-22.119,21.527C55.084,49.656,73.061,48.591,77.203,28.129z"/>
		<path fill="#006838" d="M77.203,28.129c0,0-0.012,0-0.043,0L55.105,49.58c-0.008,0.025-0.014,0.051-0.021,0.076
			C55.084,49.656,73.061,48.591,77.203,28.129z"/>
	</g>
	<g>
		<path fill="#F6921E" d="M90.402,92.65c0,0-0.213-29.492-38.611-39.674C51.791,52.977,53.697,85.225,90.402,92.65z"/>
		<path fill="#93340E" d="M90.402,92.65c0,0,0-0.027-0.002-0.076L51.924,53.014c-0.043-0.014-0.089-0.025-0.133-0.037
			C51.791,52.977,53.697,85.225,90.402,92.65z"/>
	</g>
	<g>
		<path fill="#8BC53F" d="M20,83.107c0,0,23.626-0.17,31.792-30.938C51.791,52.17,25.954,53.703,20,83.107z"/>
		<path fill="#006838" d="M20,83.107c0,0,0.025,0,0.063,0L51.76,52.281c0.006-0.035,0.018-0.072,0.031-0.111
			C51.791,52.17,25.954,53.703,20,83.107z"/>
	</g>
</g>
</svg>
