<?xml version="1.0" encoding="iso-8859-1"?>
<!-- Generator: Adobe Illustrator 13.0.0, SVG Export Plug-In . SVG Version: 6.00 Build 14948)  -->
<!DOCTYPE svg PUBLIC "-//W3C//DTD SVG 1.1//EN" "http://www.w3.org/Graphics/SVG/1.1/DTD/svg11.dtd">
<svg version="1.1" id="Layer_1" xmlns="http://www.w3.org/2000/svg" xmlns:xlink="http://www.w3.org/1999/xlink" x="0px" y="0px"
	 width="100px" height="100px" viewBox="0 0 100 100" enable-background="new 0 0 100 100" xml:space="preserve">
<g>
	<g>
		<g>
			<radialGradient id="SVGID_1_" cx="50.0381" cy="36.895" r="40.51" gradientUnits="userSpaceOnUse">
				<stop  offset="0" style="stop-color:#7CC5F1"/>
				<stop  offset="0.009" style="stop-color:#79C4F1"/>
				<stop  offset="0.2612" style="stop-color:#22B2ED"/>
				<stop  offset="0.3758" style="stop-color:#00ABEB"/>
				<stop  offset="0.465" style="stop-color:#00A4E3"/>
				<stop  offset="0.6054" style="stop-color:#0091CC"/>
				<stop  offset="0.7795" style="stop-color:#0072A7"/>
				<stop  offset="0.9788" style="stop-color:#004775"/>
				<stop  offset="1" style="stop-color:#00426F"/>
			</radialGradient>
			<path fill="url(#SVGID_1_)" d="M58.404,40.943c-6.154-0.083-33.654-0.023-39.803-0.03c0.625,2.208,1.334,4.396,1.953,6.61
				c1.22,0.042,2.446,0.03,3.667,0.023c-0.323-1.112-0.661-2.219-0.996-3.325c4.606,0.012,30.559,0,35.162,0.012
				C58.393,43.133,58.393,42.038,58.404,40.943z"/>
		</g>
		<radialGradient id="SVGID_2_" cx="50.0405" cy="36.8979" r="40.504" gradientUnits="userSpaceOnUse">
			<stop  offset="0" style="stop-color:#7CC5F1"/>
			<stop  offset="0.009" style="stop-color:#79C4F1"/>
			<stop  offset="0.2612" style="stop-color:#22B2ED"/>
			<stop  offset="0.3758" style="stop-color:#00ABEB"/>
			<stop  offset="0.465" style="stop-color:#00A4E3"/>
			<stop  offset="0.6054" style="stop-color:#0091CC"/>
			<stop  offset="0.7795" style="stop-color:#0072A7"/>
			<stop  offset="0.9788" style="stop-color:#004775"/>
			<stop  offset="1" style="stop-color:#00426F"/>
		</radialGradient>
		<path fill="url(#SVGID_2_)" d="M69.021,41.565c0.057-0.215,0.17-0.64,0.228-0.849l0.045-0.006c0.574-2.333,1.357-4.6,1.94-6.927
			c0.467-1.687,0.957-3.361,1.457-5.03c4.01-0.018,8.023-0.06,12.031,0.024c0.004,0.867,0.004,1.734-0.006,2.602
			c-2.351,0.072-4.701,0.024-7.049,0.03c-0.183,0.502-0.303,1.017-0.523,1.495c-0.732,2.423-1.451,4.839-2.201,7.244l-0.027,0.018
			c-0.365,1.358-0.78,2.716-1.211,4.062c-2.9-0.018-5.803-0.006-8.703-0.012c0-0.879,0-1.758,0-2.638
			C66.345,41.578,67.685,41.59,69.021,41.565z"/>
	</g>
	<g>
		<radialGradient id="SVGID_3_" cx="53.96" cy="60.4326" r="37.1607" gradientUnits="userSpaceOnUse">
			<stop  offset="0" style="stop-color:#CB2229"/>
			<stop  offset="0.3342" style="stop-color:#AA181D"/>
			<stop  offset="0.77" style="stop-color:#840C0F"/>
			<stop  offset="1" style="stop-color:#76070A"/>
		</radialGradient>
		<path fill="url(#SVGID_3_)" d="M26.816,63.254h15.271v-0.029c7.435,0,14.873,0,22.313-0.006c0.273-0.922,0.548-1.849,0.832-2.752
			c0.622-2.242,3.445-11.502,4.086-13.942c1.246-0.114,2.494-0.054,3.734-0.06c-0.672,2.56-5.512,18.112-5.967,19.888
			c-13.418,0.042-26.838,0.013-40.26,0.019C26.843,65.33,26.819,64.289,26.816,63.254z"/>
		<radialGradient id="SVGID_4_" cx="53.9619" cy="60.4316" r="37.1648" gradientUnits="userSpaceOnUse">
			<stop  offset="0" style="stop-color:#CB2229"/>
			<stop  offset="0.3342" style="stop-color:#AA181D"/>
			<stop  offset="0.77" style="stop-color:#840C0F"/>
			<stop  offset="1" style="stop-color:#76070A"/>
		</radialGradient>
		<path fill="url(#SVGID_4_)" d="M61.5,68.5c2.213,0.574,3.721,2.967,3.266,5.21c-0.338,2.381-2.82,4.127-5.18,3.708
			c-2.498-0.287-4.357-2.931-3.795-5.383C56.197,69.493,59.033,67.734,61.5,68.5z"/>
		<radialGradient id="SVGID_5_" cx="53.959" cy="60.4346" r="37.1625" gradientUnits="userSpaceOnUse">
			<stop  offset="0" style="stop-color:#CB2229"/>
			<stop  offset="0.3342" style="stop-color:#AA181D"/>
			<stop  offset="0.77" style="stop-color:#840C0F"/>
			<stop  offset="1" style="stop-color:#76070A"/>
		</radialGradient>
		<path fill="url(#SVGID_5_)" d="M32.906,68.44c2.356,0.431,4.041,2.931,3.535,5.281c-0.344,2.351-2.785,4.109-5.129,3.702
			c-2.279-0.238-4.091-2.451-3.903-4.73C27.382,69.953,30.289,67.807,32.906,68.44z"/>
	</g>
</g>
</svg>
