<?xml version="1.0" encoding="utf-8"?>
<!-- Generator: Adobe Illustrator 18.1.0, SVG Export Plug-In . SVG Version: 6.00 Build 0)  -->
<svg version="1.0" id="Layer_1" xmlns="http://www.w3.org/2000/svg" xmlns:xlink="http://www.w3.org/1999/xlink" x="0px" y="0px"
	 viewBox="0 0 150 150" enable-background="new 0 0 150 150" xml:space="preserve">
<g>
	<path fill="#004F79" d="M71.8,18H34.6L21.7,31c0.3,0.6,0.6,1.3,0.9,2L71.8,18z"/>
	<path fill="#69A543" d="M99.8,49.8l20.1-6.2l1,3.4l5.2-5.5l5.2-5.5l-7.3-1.8l-7.3-1.8l1.5,5l-18.9,5.8c0.4,1.7,0.6,3.6,0.6,5.6
		C99.9,49.2,99.9,49.5,99.8,49.8z"/>
	<path fill="#69A543" d="M79,49.5C79,49.4,79,49.4,79,49.5l-6,1.9c0.3,0.7,0.9,1.3,1.3,1.7c0.7,0.7,2.3,1.9,4.4,3.4L90.5,53H79V49.5
		z"/>
	<path fill="#69A543" d="M53.7,57.4L45.4,60L27,65.7c0,0,0,0,0,0c0,2.5-0.1,4.8-0.2,6.7l25.2-7.8l4.4-1.4c-0.6-0.9-1.2-1.9-1.7-3
		C54.4,59.3,54,58.4,53.7,57.4z"/>
	<path fill="#69A543" d="M76.3,41c-1.2,0-2.1,0.5-2.7,1.4c-0.3,0.5-0.6,1.2-0.7,2.1l6.3-2C78.6,41.5,77.7,41,76.3,41z"/>
	<path fill="#69A543" d="M96.7,37.1l31.1-9.5l1.3,3.9l5-5.7l5-5.7l-7.4-1.4l-7.4-1.4l1.5,4.4L91.5,32.2c1.5,0.9,2.8,1.9,3.9,3.1
		C95.8,35.8,96.3,36.4,96.7,37.1z"/>
	<path fill="#69A543" d="M52.9,44.1l-13.5,4.2c0,0,0,0,0,0L35,49.6c0.2,2.1,0.4,4.3,0.4,6.5l17-5.2c0-0.6-0.1-1.1-0.1-1.7
		C52.4,47.4,52.6,45.7,52.9,44.1z"/>
	<path fill="#69A543" d="M23.4,94.1c-0.1,0.8-0.1,1.8-0.1,2.8c0,1.4,0.1,2.6,0.3,3.7l29.6-9.1c-0.3-2-0.5-4.1-0.5-6.4L23.4,94.1z"/>
	<path fill="#69A543" d="M101,76.8l19.2-5.9l1.3,3.6l4.8-5.8l4.8-5.8l-7.4-1.3l-7.5-1.3l1.7,4.5l-19.5,6c0.6,1,1.2,2,1.7,3.2
		C100.4,75,100.7,75.9,101,76.8z"/>
	<path fill="#69A543" d="M73,85.3c0,0.1-0.2,0.2-0.2,0.2l6.8-2.1c-0.1-0.4-0.2-0.8-0.4-1.1c-0.4-1.3-1.7-3-3.6-4.5l-8,2.2H73V85.3z"
		/>
	<path fill="#69A543" d="M82,109.2v0.9l42.6-13.3l1.4,3.5l4.5-6.1l4.5-6.1l-7.5-0.9l-7.5-0.9l2.2,4.5L99.3,98
		c-0.7,1.4-1.3,2.6-2.3,3.8C93.7,105.8,88,108.3,82,109.2z"/>
	<path fill="#69A543" d="M67.6,107.9l-28.1,8.6c2.8,1.2,5.6,2.5,8.8,3.8l18.6-5.9v0l6-1.6V109C71,108.8,69.2,108.4,67.6,107.9z"/>
	<path fill="#004F79" d="M111.4,60.1c0.1-2.3,0.2-4.8,0.4-7c0,0,0,0,0,0L86.3,61c3,1.9,5.4,3.4,7.2,4.7L111.4,60.1z"/>
	<path fill="#004F79" d="M19.6,81.6l-1.7-4.1l-4.5,6.1l-4.5,6.1l7.5,0.9l7.5,1l-1.7-3.9l46.6-14.2c-3.1-2-5.4-3.6-7.1-4.9L19.6,81.6
		z"/>
	<path fill="#004F79" d="M73,29.1v-4.9L26.4,38.6l-1.7-3.9l-4.5,6.1l-4.5,6.1l7.5,0.9l7.5,0.9l-1.8-4.1l28.2-8.7
		c0.1-0.1,0.5-0.3,0.6-0.4C61,32,65,29.9,73,29.1z"/>
	<polygon fill="#004F79" points="114.8,18.2 114.2,18 94.4,18 82,21.7 82,28.3 	"/>
	<path fill="#004F79" d="M57.8,124.4L57.8,124.4C57.8,124.4,57.8,124.4,57.8,124.4C57.8,124.4,57.8,124.4,57.8,124.4z"/>
	<path fill="#004F79" d="M74.3,135.3c11-12.2,37.5-17.3,44.7-24.3c2.1-2.2,4-4.3,5.2-7.2l-66.4,20.5
		C64.2,127.4,70.3,130.8,74.3,135.3z"/>
	<path fill="#004F79" d="M136,72.7l-34.2,10.6c0,0.6,0.1,1.2,0.1,1.9c0,1.7-0.1,3.3-0.3,4.8L137,79.1c0,0-0.1,0,0,0
		C136.6,77.5,136,75.4,136,72.7L136,72.7z"/>
	<path fill="#004F79" d="M73.1,95.2c0.4,1.3,1.4,1.9,3,1.9c1.3,0,2.3-0.4,3-1.3c0.7-0.9,1-2.2,1-4c0-0.6,0-1.2,0-1.8l-7.3,2.3
		C72.8,93.7,72.9,94.7,73.1,95.2z"/>
	<path fill="#004F79" d="M55,97.7l-3.9,1.2c0,0-0.1,0-0.1,0l-5.7,1.8l-2.1-4.8l-4.5,6.1l-4.5,6.1l7.5,0.9l7.5,0.9l-1.4-3.2l11.1-3.4
		c-0.1-0.1-0.2-0.2-0.3-0.3C57.2,101.5,55.9,99.8,55,97.7z"/>
</g>
</svg>
