<?xml version="1.0" encoding="utf-8"?>
<!-- Generator: Adobe Illustrator 18.1.0, SVG Export Plug-In . SVG Version: 6.00 Build 0)  -->
<svg version="1.1" id="Layer_1" xmlns="http://www.w3.org/2000/svg" xmlns:xlink="http://www.w3.org/1999/xlink" x="0px" y="0px"
	 viewBox="0 0 150 150" enable-background="new 0 0 150 150" xml:space="preserve">
<g>
	<path fill="#A15124" d="M97,74.2v-9.9c0-5.9,3-7.6,3-7.7c0-0.1,0-0.1,0-0.1s1.1-0.5,2.6-0.5L102,17.9l-13-2.5l1,63.3
		C93,76.8,96,75.1,97,74.2z"/>
	<path fill="#B45B2B" d="M87.3,80.5c0.9-0.6,1.9-1.2,2.8-1.8l-1-63.3L81,20.2L81.2,32l5.4,1L87.3,80.5z"/>
	<path fill="#2C8C43" d="M76.9,95.1c0.4-3.1,1.9-9.2,6.8-12.3c1.2-0.8,2.4-1.5,3.6-2.3l-0.7-47.4l-5.4-1l-7.7-1.5l0.9,56.8
		C76,90.1,76.6,93.2,76.9,95.1z"/>
	<path fill="#209445" d="M71.9,84.1c1,1,1.9,2.1,2.5,3.2l-0.9-56.8l-8.1,4.8l0.1,7.2l5.7,1.1L71.9,84.1z"/>
	<path fill="#026FA2" d="M70.1,82.8c0.6,0.4,1.2,0.9,1.7,1.3l-0.6-40.5l-5.7-1.1l-7.4-1.4l0.5,34.3C61.6,77.3,66.1,80.1,70.1,82.8z"
		/>
	<path fill="#0091BA" d="M54,56.5c0,0,0,0.1,0,0.1c0,0,3,1.7,3,7.7v9.9c0,0.3,1.1,0.7,1.8,1.2l-0.6-34.3l-8.1,4.8l0.3,10.2
		C52.4,55.8,54,56.5,54,56.5z"/>
	<polygon fill="#6D5A00" points="38,83.8 38,64.7 36.9,64.3 37,64.4 37,84.8 	"/>
	<path fill="#6D5A00" d="M46,81.2V58.7c0-0.6,0.9-1,1.4-1.4L45.1,55L45,55.1v26.7L46,81.2z"/>
	<polygon fill="#6D5A00" points="31,87.9 31,74.1 30.6,73.9 31,74 31,88.7 	"/>
	<path fill="#6D5A00" d="M54,56.6c0,1.5,0,15.9,0,21c0,5.4,6,10.3,6,10.3l9.3,6.8c-0.2-3.2-2.8-5-8.4-9.2
		c-5.6-4.2-5.1-12.1-5.1-12.1s0.3,0.3,1.3,0.8v-9.9C57,58.4,54,56.7,54,56.6z"/>
	<polygon fill="#E6BC21" points="77.1,134.5 77.1,134.4 76.9,134.4 	"/>
	<path fill="#E6BC21" d="M77,97.1c0,0-0.1-0.8,0.1-2c-0.3-1.9-1-5-2.6-7.8c-0.7-1.1-1.5-2.3-2.6-3.2c-0.5-0.5-1.1-0.9-1.7-1.3
		c-4.1-2.6-8.5-5.5-11.4-7.4c-0.8-0.5-1.4-0.9-1.9-1.2c-0.8-0.5-1.2-0.8-1.2-0.8s-0.4,8,5.2,12.1c5.6,4.2,8.2,6,8.4,9.2L60,87.9
		c0,0-6-5-6-10.3c0-5.1,0-19.5,0-21c0-0.1,0-0.1,0-0.1s-1.7-0.7-3.5-0.4c-0.9,0.1-2.1,0.5-3,1.2C47,57.7,46,58.1,46,58.7v22.5
		l-1,0.6V55.1v-0.2c0,0-3-2.6-7,2.8v7v19l-1,1V64.4v-0.1c0,0-4,0.4-6,4.8v5.1v13.8v0.8V74v-0.1c0,0-4,1.6-5,4.6v12.5
		c0,0-0.4,4.6,5.6,7.8l13.3,9c0,0,5.1,2.6,4.1,9.6v10.1l28,7.1V97.1z"/>
	<path fill="#6D5A00" d="M108,58.7v22.5l1,0.6V55.1l-0.2-0.1l-2.2,2.4C107.1,57.7,107,58.1,108,58.7z"/>
	<polygon fill="#6D5A00" points="123,88.7 123,74 122.9,73.9 122,74.1 122,87.9 	"/>
	<polygon fill="#6D5A00" points="117,84.8 117,64.4 116.6,64.3 115,64.7 115,83.8 	"/>
	<path fill="#6D5A00" d="M97,64.3v9.9c1-0.5,1.2-0.8,1.2-0.8s0.4,8-5.2,12.1c-5.6,4.2-8.2,6-8.4,9.2l9.2-6.8c0,0,6.1-5,6.1-10.3
		c0-5.1,0-19.5,0-21C100,56.7,97,58.4,97,64.3z"/>
	<path fill="#D9B21F" d="M128,90.9V78.4c-1-3-5-4.6-5-4.6V74v14.8l-1-0.8V74.1V69c-1-4.4-5-4.8-5-4.8v0.1v20.4l-2-1v-19v-7
		c-3-5.4-6-2.8-6-2.8v0.2v26.7l-1-0.6V58.7c-1-0.6-1-1-1.5-1.4c-1.3-1-2.8-1.3-3.9-1.3c-1.4,0-2.6,0.5-2.6,0.5s0,0.1,0,0.1
		c0,1.5,0,15.9,0,21c0,5.4-6.1,10.3-6.1,10.3l-9.3,6.8c0.2-3.2,2.8-5,8.4-9.2c5.6-4.2,5.2-12.1,5.2-12.1s-0.4,0.3-1.2,0.8
		c-1.4,0.9-4,2.6-7,4.5c-0.9,0.6-1.8,1.2-2.8,1.8c-1.2,0.8-2.4,1.5-3.6,2.3c-4.9,3.2-6.2,9.2-6.6,12.3c-0.2,1.2,0,2,0,2v37.3v0.1
		l0.1,0l0.2,0l27.7-7.1v-10.1c-1-7,4.1-9.6,4.1-9.6l13.3-9C128.4,95.5,128,90.9,128,90.9z"/>
</g>
</svg>
