<?xml version="1.0" encoding="utf-8"?>
<!-- Generator: Adobe Illustrator 18.1.0, SVG Export Plug-In . SVG Version: 6.00 Build 0)  -->
<svg version="1.1" id="Layer_1" xmlns="http://www.w3.org/2000/svg" xmlns:xlink="http://www.w3.org/1999/xlink" x="0px" y="0px"
	 viewBox="0 0 150 150" enable-background="new 0 0 150 150" xml:space="preserve">
<g>
	<polygon fill="#808BAC" points="71.7,24.8 44.6,56.6 45.5,68.6 71.7,43.3 71.7,43.3 	"/>
	<polygon fill="#808BAC" points="71.6,55.5 46.1,76.6 46.8,87.3 71.6,71.3 71.6,71.3 	"/>
	<polygon fill="#044C7B" points="71.7,55.5 71.7,55.5 71.7,55.5 	"/>
	<polygon fill="#044C7B" points="71.6,81.7 71.6,81.7 71.6,81.8 	"/>
	<polygon fill="#808BAC" points="71.6,81.8 47.4,94.5 48.1,104.2 71.6,95.4 71.5,95.4 	"/>
	<polygon fill="#044C7B" points="71.5,104.5 71.6,104.5 71.6,104.5 	"/>
	<polygon fill="#808BAC" points="71.5,104.5 48.5,110.7 49.2,119.4 71.5,116.4 71.4,116.4 	"/>
	<path fill="#808BAC" d="M71.4,124.3l-21.8,0.9l0.2,3.6c6.6,3.4,13.8,5.5,21.4,6L71.4,124.3z"/>
	<polygon fill="#044C7B" points="71.5,124.3 71.5,124.3 71.5,124.3 	"/>
	<polygon fill="#044C7B" points="112,52.9 71.7,24.8 71.7,43.3 71.7,43.3 110.5,66.1 	"/>
	<polygon fill="#044C7B" points="109.5,74.9 71.7,55.5 71.7,55.5 71.6,55.5 71.6,55.5 71.6,71.3 71.6,71.3 108.2,86.5 	"/>
	<polygon fill="#044C7B" points="107.3,94.3 71.6,81.8 71.6,81.7 71.6,81.7 71.6,81.8 71.5,95.4 71.6,95.4 106.1,104.8 	"/>
	<polygon fill="#044C7B" points="71.5,104.5 71.5,104.5 71.4,116.4 71.5,116.4 104.3,121.1 105.3,111.7 71.6,104.5 71.5,104.5 	"/>
	<path fill="#044C7B" d="M74.7,135.1c10,0,19.9-2.8,28.8-7.6l0-0.1l-32-3h-0.1h0l0,0l-0.2,10.5C72.4,135,73.6,135.1,74.7,135.1z"/>
	<path fill="#044C7B" d="M142.3,79L142.3,79c-1.9,21.5-17.2,41.1-37,51.6c-9.5,5-20,8-30.6,8c-1.3,0-2.5-0.1-3.7-0.2
		c-8.1-0.5-15.8-2.8-22.7-6.3c-20.7-10.6-35-33-35.1-57.4c0.1-33.8,27.5-63,61.5-63c32.4,0.1,64.6,26.7,67.4,58.5h0
		c-2.4-35.1-31.6-62.9-67.5-62.9C37.3,7.3,7,37.5,7,74.8c0,28,17.2,52,41.6,62.2c2.7,1.1,5.5,2,8.3,2.8c3.7,1,7.6,1.8,11.6,2.1
		c0.8,0.1,1.6,0.1,2.4,0.1c0.4,0,0.7,0,1,0.1c0.9,0,1.8,0.2,2.8,0.2c6.9,0,13.5-1.1,19.7-3c3.6-1.1,7-2.5,10.3-4.1
		C125.9,124.8,140.7,103.7,142.3,79z"/>
</g>
</svg>
