<?xml version="1.0" encoding="utf-8"?>
<!-- Generator: Adobe Illustrator 18.1.0, SVG Export Plug-In . SVG Version: 6.00 Build 0)  -->
<svg version="1.0" id="Layer_1" xmlns="http://www.w3.org/2000/svg" xmlns:xlink="http://www.w3.org/1999/xlink" x="0px" y="0px"
	 viewBox="0 0 150 150" enable-background="new 0 0 150 150" xml:space="preserve">
<g>
	<path fill="#5D4B33" d="M42,39.4c0.9,0.9,1.8,1.8,2.8,2.6c3,2.6,6.4,4.8,10,6.7c-0.5,1.8-0.9,3.6-1.3,5.5c0.1,0,0.3,0,0.5,0
		c0.5,0.1,0.9,0.1,1.4,0.1c0.4-1.7,0.7-3.3,1.2-4.9c6.9,3.2,14.7,5,23,5.2v7.2c0,0,0,0,0,0c0.4,0.2,0.8,0.5,1.2,0.7
		c0.2,0.1,0.4,0.3,0.6,0.4v-8.3c3.7,0,7.3-0.5,10.8-1.2c0.2-0.2,0.4-0.4,0.6-0.6c0.1-0.1,0.2-0.2,0.4-0.3c0.1-0.1,1,0.4,1.1,0.3
		l-0.8-0.6c0.9,0.3,0.1-0.1,0.1-0.1l0.7,0.6c0-0.1,0-0.2,0.1-0.2c0.1-0.6,0.3-1.1,0.4-1.6c0,0,0,0,0,0c-4.3,1.1-8.7,1.8-13.4,1.9
		v-30c2.5,0,5,0.3,7.5,0.7c4.1,2.7,7.7,7.2,10.7,13.2c1.1,2.2,2,4.6,3,7.1c0.4-0.5,0.9-1,1.4-1.5c-0.8-2.3-1.7-4.4-2.8-6.4
		c-2.4-4.8-5.2-8.7-8.4-11.6c8.9,2.1,16.9,6.6,23.4,12.6c0,0,0.1-0.1,0.1-0.1c0.8-0.6,1.7-1.2,2.6-1.7c0,0,0.1-0.1,0.1-0.1
		c0.1,0,0.2-0.1,0.3-0.1c0.3-0.2,0.6-0.3,0.9-0.4c-10.3-10-24.3-16.1-39.8-16.1c-22.5,0-42,13-51.3,31.9c1.5,0.4,2.9,0.8,4.4,1.1
		C35.8,47,38.6,42.9,42,39.4z M72.1,23.5c2.4-0.4,4.9-0.6,7.5-0.6v30c-8.2-0.1-15.8-2-22.5-5.1c1.2-4.1,2.7-7.8,4.3-11.1
		C64.3,30.7,68,26.1,72.1,23.5z M68.1,24.2c-3.2,2.9-6,6.8-8.4,11.6c-1.7,3.3-3.1,7-4.4,11.1c-3.4-1.8-6.6-3.9-9.4-6.3
		c-1-0.8-1.9-1.7-2.7-2.6C50,31.4,58.6,26.5,68.1,24.2z"/>
	<path fill="#5D4B33" d="M107.1,65.4c0.1,1.6,0.3,3.2,0.4,4.8c0.6,0,1.3,0.1,1.8,0.2c-0.1-2.6-0.3-5.2-0.6-7.8
		C108.1,63.5,107.6,64.4,107.1,65.4z"/>
	<path fill="#5D4B33" d="M55.3,98.4c0.1-0.1,0.2-0.2,0.3-0.3c-1.1-4.9-1.9-10.1-2.2-15.6c-0.2,0-0.4-0.1-0.6-0.1
		c-0.4-0.1-0.7-0.1-1.1-0.2c-0.1,0-0.1,0-0.1,0c0.4,6.1,1.2,11.8,2.5,17.2C54.5,99.1,54.9,98.8,55.3,98.4z"/>
	<path fill="#5D4B33" d="M35.8,107.3c0.3-0.1,0.5-0.2,0.8-0.4c0.3-0.1,0.7-0.3,1.1-0.4c-6.2-8.5-9.9-18.9-10.1-30.1h13.3
		c-0.2-0.2-0.3-0.3-0.3-0.4L39.8,75c-0.3-0.1-0.5-0.2-0.8-0.3H27.6c0-2.3,0.3-4.6,0.6-6.8c-0.1-0.1-0.3-0.3-0.4-0.4
		c-0.1-0.1-0.3-0.3-0.4-0.5c-0.1-0.1-0.1-0.1-0.1-0.2c-0.1-0.1-0.2-0.3-0.2-0.3l0,0c-0.1-0.1-0.2-0.2-0.2-0.3l1.3-1.1
		c-0.5-0.2-0.9-0.5-1.3-0.7c-0.2-0.1-0.5-0.3-0.7-0.4c-0.6-0.3-1.1-0.7-1.6-1c-0.9,4.1-1.5,8.3-1.5,12.7c0,12.2,3.9,23.5,10.4,32.8
		c0.5-0.2,1-0.5,1.5-0.8C35.2,107.6,35.5,107.5,35.8,107.3z"/>
	<path fill="#5D4B33" d="M133.2,74.6h-13.5c0.4,0.4,0.8,0.8,1.1,1.1c0.2,0.3,0.4,0.5,0.6,0.7h11.8c-0.2,13.7-5.6,26.1-14.3,35.3
		c-0.9-0.9-1.8-1.8-2.8-2.6c-3-2.6-6.3-4.8-10-6.6c1.4-5,2.4-10.6,2.9-16.4c-0.6,0.2-1.3,0.4-1.9,0.6c-0.5,5.3-1.4,10.4-2.7,15
		c-2.9-1.4-6-2.4-9.3-3.2c-0.5,0.5-1,1-1.5,1.5c3.6,0.9,7,2,10.2,3.6c-1.2,4.1-2.7,7.9-4.4,11.2c-3,5.8-6.6,10.4-10.6,13.1
		c-2.5,0.4-5,0.6-7.6,0.7v-20c-0.2,0.1-0.4,0.1-0.6,0.2c-0.4,0.1-0.8,0.3-1.2,0.4c0,0,0,0,0,0v19.3c-2.6,0-5.1-0.3-7.6-0.7
		c-2.5-1.7-4.9-4.2-7-7.2c-0.5,0.5-0.9,1-1.3,1.3c1.4,1.9,2.9,3.6,4.4,5.1c-2.8-0.7-5.5-1.6-8.2-2.7c0,0-0.1,0-0.1,0.1
		c-0.3,0.1-0.5,0.2-0.8,0.3c-0.1,0-0.2,0.1-0.3,0.1c-0.6,0.2-1.2,0.3-1.7,0.4c-1,0.2-1.7,0.2-1.9,0.2l-0.4-1.8
		c-0.2,0.1-0.3,0.2-0.5,0.3c-0.4,0.3-0.8,0.6-1.3,0.8c-0.3,0.2-0.6,0.4-0.9,0.6c-0.1,0-0.1,0-0.1,0.1c8.4,4.9,18.2,7.7,28.6,7.7
		c31.7,0,57.3-25.7,57.3-57.3c0-12.3-3.9-23.7-10.5-33c-1.2,0.9-2.4,1.9-3.5,2.9C129.5,53.8,133,63.8,133.2,74.6z M92.9,126.9
		c3.1-2.9,5.9-6.7,8.3-11.4c1.7-3.3,3.2-7.1,4.4-11.2c3.4,1.8,6.5,3.9,9.3,6.2c0.9,0.8,1.9,1.7,2.7,2.5
		C110.9,119.8,102.4,124.6,92.9,126.9z"/>
	<path fill="#0D1E11" d="M90.2,69.4c1.2,0.8,2.3,1.2,2.3,1.2l0,0c0,0-1.3-0.7-2.3-2.4c-0.3-0.5-0.5-1-0.7-1.6c0-0.1,0-0.1,0-0.2
		c-0.1-0.5-0.2-1.1-0.3-1.6c-0.1-1.6,0.1-3.4,0.8-5.3l0-0.1l0,0c0,0-0.8,0.6-1.5,1.7c-0.6,1-1.4,2.6-1.1,4.5
		C87.7,67.4,89.1,68.7,90.2,69.4z M89.6,66.8c0,0,0-0.1-0.1-0.1C89.6,66.8,89.6,66.8,89.6,66.8z"/>
	<path fill="#0D1E11" d="M90.9,62.1c0,0.2,0,0.4,0.1,0.7c0.1,0.7,0.2,1.4,0.4,2.1c0.1,0.2,0.2,0.4,0.2,0.7c0.2,0.5,0.4,1.1,0.7,1.7
		c0.2,0.3,0.3,0.6,0.5,0.9c0.3,0.6,0.7,1.2,1.2,1.8c0.1,0.2,0.2,0.3,0.3,0.5l0,0c-0.9-2.4-1.4-4.8-1.6-7.1c-0.1-1.8-0.1-3.6,0.2-5.3
		c0.5-2.9,1.5-4.4,1.5-4.5l0,0c0,0-0.8,0.6-1.6,1.6c-0.5,0.6-1,1.4-1.4,2.5c-0.1,0.1-0.1,0.3-0.2,0.4c-0.1,0.2-0.1,0.5-0.2,0.7
		c-0.1,0.2-0.1,0.4-0.1,0.6c0,0.2-0.1,0.3-0.1,0.5c0,0.1,0,0.1,0,0.2C90.9,60.8,90.9,61.4,90.9,62.1z M90.9,62.3c0,0.1,0,0.2,0,0.3
		C90.9,62.5,90.9,62.4,90.9,62.3z M92.5,67.4c0.1,0.2,0.1,0.3,0.2,0.4C92.7,67.7,92.6,67.6,92.5,67.4z M91.4,58.4
		C91.3,58.4,91.3,58.5,91.4,58.4C91.3,58.5,91.3,58.4,91.4,58.4z M91,59.9C91,59.9,91,59.9,91,59.9C91,59.9,91,59.9,91,59.9
		C91,60,91,60,91,59.9z"/>
	<path fill="#0D1E11" d="M95,62.4c0.1,2.8,0.5,5.5,1.3,8.2l0,0c-0.1-4,0.1-7.8,0.6-11.2c0.5-2.7,1.1-5.3,2-7.6
		c0.8-2,1.6-3.4,2.1-4.3c0.6-0.9,1-1.3,1-1.3l0,0l-5,3.6l0,0c-0.4,0.8-1.2,3.1-1.7,6C95.1,58,94.9,60.2,95,62.4z M98.8,52.2
		c-0.4,1-0.7,2-1,3C98.1,54.1,98.5,53.1,98.8,52.2z M97.6,56c-0.2,0.9-0.5,1.9-0.6,2.9C97.2,57.9,97.4,56.9,97.6,56z M96.3,69.8
		c0-1.6,0-3.1,0-4.5C96.2,66.8,96.2,68.3,96.3,69.8z M95.8,54.2c0-0.2,0.1-0.4,0.1-0.6C95.9,53.8,95.8,54,95.8,54.2z M96.9,59.8
		c-0.2,1.5-0.4,3.1-0.5,4.8C96.4,62.8,96.6,61.2,96.9,59.8z M100.1,49.3c0.2-0.4,0.4-0.8,0.6-1.1C100.5,48.6,100.3,48.9,100.1,49.3z
		 M99.2,51.2c0.2-0.4,0.4-0.8,0.5-1.2C99.5,50.4,99.4,50.8,99.2,51.2z M96.3,52.3c0-0.2,0.1-0.3,0.1-0.4
		C96.4,52,96.3,52.1,96.3,52.3z M96.8,50.8c0-0.1,0-0.1,0.1-0.2C96.8,50.6,96.8,50.7,96.8,50.8z M101.1,47.6
		c0.1-0.1,0.1-0.2,0.2-0.3C101.2,47.4,101.1,47.5,101.1,47.6z"/>
	<path fill="#0D1E11" d="M100.2,55.4c-0.1,0.3-0.1,0.5-0.2,0.7c-0.3,1-0.5,2.1-0.7,3.1c-0.1,0.5-0.2,0.9-0.3,1.3
		c-0.2,0.9-0.3,1.7-0.4,2.5c0,0.2-0.1,0.4-0.1,0.6c-0.3,3-0.2,5.3,0.3,6.8l0,0c0.7-5.5,1.9-10.6,3.6-15.1c1.4-3.6,3.1-6.9,5.1-9.7
		c3.4-4.8,6.5-6.7,6.5-6.7l0,0c0,0-1.9,0.5-4.2,1.6c-2.1,0.9-4.9,2.6-6.5,4.8C103.4,45.5,101.6,50.1,100.2,55.4z M100.2,63.2
		c-0.5,2.2-0.9,4.5-1.2,7C99.3,67.6,99.7,65.3,100.2,63.2z M102.4,55.8c-0.8,2.1-1.5,4.3-2,6.6C100.9,60,101.6,57.8,102.4,55.8z
		 M104.5,50.9c-0.7,1.3-1.3,2.7-1.9,4.2C103.2,53.5,103.9,52.2,104.5,50.9z M107.4,46c-0.9,1.3-1.7,2.6-2.5,4.1
		C105.7,48.6,106.6,47.2,107.4,46z"/>
	<path fill="#0D1E11" d="M108,53.9c1.2-2.1,2.6-4,4.1-5.9c0,0,0,0,0,0c1.5-1.9,3.2-3.7,4.9-5.4c3.2-3.1,6.1-5.3,8-6.6
		c2.1-1.4,3.5-2.1,3.5-2.1v0c0,0-0.5,0-1.2,0.1c-0.6,0.1-1.4,0.3-2.3,0.6c-0.1,0-0.2,0-0.2,0.1c-0.3,0.1-0.6,0.2-0.9,0.3
		c-0.3,0.1-0.6,0.2-0.9,0.3c-0.4,0.2-0.8,0.3-1.3,0.6c-0.4,0.2-0.8,0.4-1.2,0.6c-0.2,0.1-0.4,0.2-0.5,0.3c-0.1,0.1-0.2,0.1-0.3,0.2
		c-0.7,0.4-1.4,0.9-2.1,1.4c-0.3,0.2-0.6,0.4-0.9,0.6c-0.6,0.5-1.2,1-1.8,1.5c-0.3,0.3-0.6,0.6-1,0.9c-0.4,0.5-0.9,0.9-1.3,1.4
		c-0.3,0.3-0.6,0.7-0.9,1c-0.4,0.5-0.9,1.1-1.3,1.7c-0.2,0.3-0.4,0.5-0.6,0.7c-2.4,3.3-4.4,7.1-5.8,11c-1.6,4.4-2.5,8.9-2.6,13.3h0
		c0,0,0,0,0,0s0,0,0,0l0,0C102.7,64.6,104.9,59,108,53.9z M106.1,57.3c0,0.1-0.1,0.1-0.1,0.2C106,57.4,106,57.4,106.1,57.3z
		 M104.5,60.6c-0.1,0.3-0.3,0.6-0.4,1C104.2,61.3,104.4,60.9,104.5,60.6z M108.2,53.4c1.1-1.8,2.3-3.5,3.5-5
		C110.5,50,109.3,51.7,108.2,53.4z M116.8,42.7c-1.6,1.6-3.1,3.3-4.5,5C113.8,45.8,115.4,44.1,116.8,42.7z M119.9,36.7L119.9,36.7
		C119.9,36.6,119.9,36.7,119.9,36.7L119.9,36.7z M117.2,38.4c-0.1,0-0.1,0.1-0.2,0.1C117,38.5,117.1,38.5,117.2,38.4z M112.1,43.1
		c-0.1,0.1-0.2,0.2-0.2,0.3C112,43.3,112.1,43.2,112.1,43.1z M102.7,65.6c0,0.1-0.1,0.2-0.1,0.3C102.6,65.8,102.6,65.7,102.7,65.6z"
		/>
	<path fill="#0D1E11" d="M143.9,29.5L143.9,29.5c0,0-0.5,0-1.4,0.1c-1.3,0.2-3.5,0.7-6.4,2c-2.2,0.9-4.4,2.2-6.8,3.7
		c-0.1,0.1-0.2,0.1-0.3,0.2c-1.3,0.9-2.7,1.8-4.1,2.8c-5.1,3.6-9.7,7.9-13.3,12.7c-2,2.7-3.7,5.5-5,8.3c-1.4,3.1-2.5,6.2-3,9.4l0,0
		c0.4-1.1,0.9-2.3,1.4-3.4c0.1-0.2,0.1-0.3,0.2-0.5c0.5-1.1,1.2-2.2,1.8-3.4c0.1-0.2,0.2-0.4,0.3-0.6c1.6-2.6,3.5-5.2,5.8-7.9
		c1.8-2,3.8-4.1,5.9-6.1c0.1-0.1,0.1-0.1,0.2-0.2c2.2-2.1,4.7-4.1,7.3-6.1C135.7,33.7,143.8,29.5,143.9,29.5z M110.7,56.1
		c-0.1,0.2-0.3,0.4-0.5,0.6C110.4,56.4,110.6,56.2,110.7,56.1z M121.1,41.3c0.1-0.1,0.1-0.1,0.2-0.2
		C121.2,41.2,121.2,41.3,121.1,41.3z M137.2,31.3c0.5-0.2,0.9-0.4,1.3-0.5C138.1,30.9,137.6,31.1,137.2,31.3z M139.6,30.4
		c0.3-0.1,0.5-0.2,0.8-0.2C140.2,30.2,139.9,30.3,139.6,30.4z M141.4,29.9C141.5,29.9,141.5,29.9,141.4,29.9
		C141.5,29.9,141.5,29.9,141.4,29.9z M131.9,33.9c-0.6,0.3-1.2,0.7-1.8,1.1C130.7,34.5,131.3,34.2,131.9,33.9z M134.7,32.3
		c-0.5,0.2-0.9,0.4-1.4,0.7C133.8,32.8,134.3,32.6,134.7,32.3z M125.8,37.8c0.9-0.6,1.8-1.3,2.7-1.9
		C127.6,36.5,126.7,37.1,125.8,37.8z M117.8,44.2c-0.2,0.2-0.3,0.3-0.5,0.5C117.5,44.6,117.6,44.4,117.8,44.2z M108.1,59.7
		c-0.2,0.3-0.4,0.6-0.6,0.8C107.8,60.2,108,60,108.1,59.7z"/>
	<path fill="#0D1E11" d="M70.6,92.1c0.1,0,0.2,0,0.3,0c0.2,0,0.5,0,0.8,0.1c0.6,0.1,1.2,0.2,1.8,0.2c0.2,0,0.4,0,0.5,0
		c0.6,0,1.1,0,1.7-0.1c0.2,0,0.4-0.1,0.5-0.1c0.1,0,0.2-0.1,0.3-0.1c-0.1,0-0.1,0-0.2,0c0.4-0.1,0.8-0.2,1.3-0.4
		c-0.1,0-0.2,0.1-0.2,0.1c0.4-0.1,0.8-0.3,1.2-0.5c-0.1,0.1-0.2,0.1-0.3,0.2c0.3-0.2,0.7-0.4,1.1-0.6c-0.1,0.1-0.2,0.1-0.3,0.2
		c0.3-0.1,0.5-0.2,0.8-0.4c1.2-0.7,2.6-1.6,4.1-2.8c2.6-1.9,4.7-3.8,4.7-3.8l0,0l0,0l0,0v0c-1.3,0.7-2.6,1.3-3.8,1.8
		c0,0-0.1,0-0.1,0c-1.2,0.5-2.3,1-3.5,1.4c-0.1,0-0.2,0.1-0.4,0.1c-2.4,0.8-4.7,1.4-6.9,1.8c-4.1,0.7-7.1,0.4-8.9,0
		c-1.9-0.4-2.9-0.9-2.9-0.9l0,0c0,0,1.7,1.3,4.2,2.5C67.7,91.3,69.2,91.8,70.6,92.1z M66.9,89.4c0.4,0,0.7,0.1,1.1,0.1
		C67.6,89.4,67.2,89.4,66.9,89.4z M65.5,89.2c0.2,0,0.4,0.1,0.6,0.1C65.9,89.3,65.7,89.2,65.5,89.2z M64.6,89
		C64.6,89,64.6,89,64.6,89C64.6,89,64.6,89,64.6,89z M70.6,92c-0.2,0-0.3-0.1-0.5-0.1C70.3,91.9,70.5,92,70.6,92
		C70.7,92,70.6,92,70.6,92z M72.8,92.3c0.2,0,0.3,0,0.5,0C73.1,92.3,73,92.3,72.8,92.3z M69.1,89.5c0.5,0,1,0,1.5,0
		C70.1,89.5,69.6,89.5,69.1,89.5z M71.7,89.4c0.5,0,1-0.1,1.5-0.2C72.6,89.3,72.2,89.3,71.7,89.4z M75.7,92.2c-0.3,0-0.6,0-0.9,0.1
		c0.4,0,0.9,0,1.3-0.1C75.9,92.1,75.8,92.2,75.7,92.2z M74.3,89c0.9-0.2,1.8-0.3,2.7-0.6C76.1,88.7,75.1,88.9,74.3,89z M80.6,90.1
		c0.2-0.1,0.4-0.3,0.7-0.4C81,89.8,80.8,89.9,80.6,90.1z M85.8,85.3c-0.2,0.1-0.4,0.2-0.5,0.2C85.5,85.5,85.7,85.4,85.8,85.3z
		 M81.9,86.9c0.4-0.1,0.9-0.3,1.3-0.5C82.7,86.6,82.3,86.8,81.9,86.9z M80.1,87.6c-0.5,0.2-1.1,0.3-1.6,0.5
		C79,87.9,79.5,87.7,80.1,87.6z"/>
	<path fill="#0D1E11" d="M62.6,86.3c0.2,0.1,0.4,0.1,0.6,0.2c0.7,0.2,1.3,0.4,1.9,0.6c0.2,0,0.4,0.1,0.6,0.1
		c0.7,0.1,1.4,0.3,2.1,0.3c0.2,0,0.3,0,0.5,0c0.9,0,1.7,0,2.6-0.1c0.5-0.1,1-0.2,1.5-0.4c0.2,0,0.4-0.1,0.5-0.1
		c0.5-0.1,0.9-0.3,1.3-0.5c0.2-0.1,0.4-0.1,0.6-0.2c0.5-0.2,0.9-0.4,1.4-0.6c0.1-0.1,0.2-0.1,0.3-0.2c0.8-0.4,1.6-0.8,2.4-1.3
		c1-0.5,1.9-1.1,3-1.6l0,0c1.1-0.5,2.2-1,3.5-1.4c3.7-1.2,5.1-1.6,5.7-1.8c0.2,0,0.3,0,0.3,0h0l0,0c0,0,0,0-0.2,0c0,0-0.1,0-0.1,0
		c-0.9,0.1-3.3,0.3-6.2,0.8c-0.4,0.1-0.8,0.1-1.1,0.2c-0.5,0.1-1,0.2-1.5,0.3c-0.5,0.1-1,0.2-1.5,0.3c-0.5,0.1-1,0.2-1.4,0.4
		c-0.3,0.1-0.7,0.2-1,0.3c-3.6,1-6.3,1.6-8.4,2c-3.5,0.6-5.6,0.4-8.4,0.2c-0.2,0-0.5,0-0.7-0.1c-1.9-0.1-3.3-0.3-4.1-0.6
		c-0.5-0.3-0.8-0.5-0.8-0.5l0,0l0,0c0,0,0,0,0,0c0,0,0,0,0,0c0,0,0,0,0,0.1c0,0,0,0,0,0c0,0,0,0.1,0.1,0.1c0.1,0.1,0.2,0.1,0.3,0.2
		c0.1,0,0.1,0.1,0.2,0.1c0.1,0,0.1,0.1,0.2,0.1c1.1,0.7,3.2,2,5.8,3C62.3,86.2,62.5,86.2,62.6,86.3z M62.2,86.1
		c-0.1,0-0.2-0.1-0.3-0.1C62,86,62.1,86.1,62.2,86.1C62.2,86.1,62.2,86.1,62.2,86.1z M81.3,82.8c-0.6,0.3-1.2,0.6-1.8,1
		C80.1,83.4,80.7,83.1,81.3,82.8z M65.6,83.9c0.1,0,0.2,0,0.2,0C65.7,83.9,65.6,83.9,65.6,83.9z M56.6,83.2c0.3,0.1,0.7,0.2,1.1,0.2
		C57.3,83.3,56.9,83.3,56.6,83.2z M58.6,83.5c0.2,0,0.5,0,0.7,0.1C59.1,83.6,58.8,83.6,58.6,83.5z M64,86.7c0.3,0.1,0.5,0.2,0.8,0.2
		C64.5,86.9,64.2,86.8,64,86.7z M63.9,83.9C64,83.9,64,83.9,63.9,83.9C64,83.9,64,83.9,63.9,83.9z M66.1,87.2
		c0.4,0.1,0.8,0.1,1.3,0.2C67,87.3,66.5,87.3,66.1,87.2z M68.5,87.5c0.6,0,1.2,0,1.8-0.1C69.7,87.5,69.1,87.5,68.5,87.5z M84.8,81.2
		c-0.9,0.3-1.8,0.7-2.5,1.1C83.1,81.9,83.9,81.6,84.8,81.2z"/>
	<path fill="#0D1E11" d="M56,80.8c1.5,0.1,3.1,0,4.7-0.1l0.1,0c3.3-0.3,5.5-0.5,8.5-1c2.9-0.5,6.7-1.3,12.9-2.7
		c4.7-0.8,8.5-1.1,10.8-1.2c2.5-0.1,3.9-0.1,3.9-0.1v0c-0.1,0-9.7-1.7-15.6-1.4c-0.6,0-1.3,0.1-1.9,0.2c-0.4,0-0.8,0.1-1.2,0.1
		c-2.3,0.2-4.7,0.5-7.2,0.8c-4.7,0.6-9.5,1.2-14.2,1.6c-0.4,0-0.9,0-1.4,0c-0.4,0-0.8,0-1.2,0c-0.7,0-1.4,0-2.2-0.1
		c-0.1,0-0.3,0-0.4,0c-0.9-0.1-1.8-0.2-2.7-0.3c0,0-0.1,0-0.1,0c-1-0.1-2-0.3-3-0.6c-2.5-0.6-3.7-1.2-3.7-1.2l-0.1,0l0,0
		c0,0,1.2,1.8,4.2,3.4c0.8,0.4,1.6,0.8,2.5,1.1l0,0c1,0.4,2.1,0.7,3.2,0.9c1,0.2,2.1,0.3,3.2,0.4C55.5,80.8,55.7,80.8,56,80.8z
		 M58.2,77c1.5-0.1,3-0.3,4.5-0.4C61.2,76.8,59.7,76.9,58.2,77z M43.3,76.3L43.3,76.3L43.3,76.3z M49.6,79.7
		c-0.2-0.1-0.4-0.1-0.6-0.2C49.2,79.6,49.4,79.7,49.6,79.7z"/>
	<path fill="#0D1E11" d="M49.7,74.8C58.4,75,64,74.2,71.8,73c2.2-0.3,4.6-0.7,7.4-1c7.2-0.7,12.9,0.2,13,0.2l0,0
		c-0.1,0-7.5-2.4-14.7-2.9c-2.4-0.1-6.2,0.1-10.6,0.4c-3,0.2-6.4,0.4-9.7,0.5c-0.1,0-0.2,0-0.3,0c-1.7,0.1-3.4,0.1-5.1,0.1
		c0,0,0,0,0,0c-1.7,0-3.4-0.1-4.9-0.2c-2.8,0-5.4-0.3-8-0.8c-2-0.4-3.9-1-5.7-1.7c-3-1.2-4.6-2.4-4.6-2.4l0,0c0,0,1.8,2.3,5.3,4.6
		c0.7,0.5,1.5,0.9,2.3,1.3c0.3,0.1,0.5,0.3,0.7,0.4c1.2,0.6,2.4,1.1,3.6,1.5c1.1,0.3,2.2,0.6,3.3,0.8c0.4,0.1,0.7,0.2,1.1,0.3
		C46.4,74.6,48,74.8,49.7,74.8z M55.9,74.7c-0.1,0-0.2,0-0.3,0C55.7,74.7,55.8,74.7,55.9,74.7z M49.3,70.3c0.6,0,1.2,0.1,1.8,0.1
		C50.5,70.4,49.9,70.3,49.3,70.3z M46,74.4c-0.4-0.1-0.7-0.1-1.1-0.1C45.3,74.4,45.7,74.4,46,74.4z M59.7,70.2
		C59.7,70.2,59.7,70.2,59.7,70.2C59.7,70.2,59.7,70.2,59.7,70.2z M54.3,70.3c0.4,0,0.9,0,1.4,0C55.2,70.3,54.8,70.3,54.3,70.3z
		 M30.1,67.1L30.1,67.1L30.1,67.1z M37,71.8c0,0,0.1,0,0.2,0.1C37.1,71.8,37,71.8,37,71.8z"/>
	<path fill="#0D1E11" d="M30.3,64c0.1,0.1,0.3,0.1,0.4,0.2c0.1,0.1,0.2,0.1,0.3,0.1c1.2,0.5,2.5,1,3.9,1.4c0.2,0.1,0.4,0.1,0.7,0.2
		c1.2,0.3,2.3,0.5,3.6,0.7c0.1,0,0.3,0.1,0.4,0.1c1.5,0.3,3.1,0.5,4.8,0.6c0.1,0,0.2,0,0.2,0c1.5,0.2,3.1,0.3,4.7,0.4
		c0.2,0,0.4,0,0.6,0c1.5,0.1,3.1,0.1,4.6,0.1c0.1,0,0.2,0,0.3,0c6.4,0.1,12.6-0.2,17.5-0.5c1.7-0.1,3.4-0.2,4.8-0.2
		c2.8,0.1,4.7,0.6,5.9,1.1c1.2,0.4,1.8,0.9,1.8,0.9l0,0c0,0-0.8-1-4.2-2.1c-0.1,0-0.3-0.1-0.5-0.1c-0.7-0.2-1.5-0.4-2.4-0.6
		c-0.5-0.1-0.9-0.2-1.4-0.3c-0.6-0.1-1.3-0.2-2-0.4c-0.4-0.1-0.7-0.2-1.2-0.2c-3.7-0.6-8-1-12.9-1.2c-2.5,0.2-8,0.1-14-0.4
		c-3.1-0.3-6-0.6-8.5-1.1c-2.8-0.5-5.1-1.1-6.7-1.8c-4.8-1.5-8.1-2.9-10-3.9c-2.1-1-3-1.7-3-1.7l0,0c0,0,2.1,2.6,5.8,5.2
		c0.1,0.1,0.3,0.2,0.4,0.3c0.8,0.6,1.7,1.2,2.7,1.7c0.2,0.1,0.5,0.3,0.7,0.4C28.6,63.2,29.4,63.6,30.3,64z M83.9,68.5
		c-0.1,0-0.1-0.1-0.2-0.1C83.8,68.5,83.9,68.5,83.9,68.5z M38.8,62.6c0.6,0.1,1.3,0.2,2,0.3C40.1,62.8,39.4,62.7,38.8,62.6z
		 M41.6,66.9c0.7,0.1,1.5,0.2,2.2,0.3C43.1,67.2,42.3,67,41.6,66.9z M43.2,63.2c0.6,0.1,1.1,0.1,1.7,0.2
		C44.3,63.3,43.8,63.3,43.2,63.2z M46.7,67.5c0.5,0,1.1,0.1,1.7,0.1C47.8,67.6,47.2,67.5,46.7,67.5z M51.6,67.8c0.4,0,0.8,0,1.2,0
		C52.4,67.8,52,67.8,51.6,67.8z M56.4,67.8c0.1,0,0.2,0,0.3,0C56.7,67.8,56.5,67.8,56.4,67.8z"/>
	<path fill="#0D1E11" d="M21.7,53.8c1.1,0.6,2.3,1.2,3.5,1.8c0.1,0.1,0.3,0.2,0.4,0.2c1.3,0.6,2.7,1.1,4.1,1.6
		c0.2,0.1,0.4,0.1,0.5,0.2c2.3,0.7,4.9,1.3,7.7,1.6c0.3,0,0.5,0,0.8,0.1c1.8,0.2,3.6,0.4,5.5,0.5c1.5,0.1,3.1,0.2,4.7,0.2
		c0.2,0,0.5,0,0.7,0c0.7,0,1.4,0.1,2.1,0.1c2.2,0.1,4.5,0.2,6.8,0.3c0.1,0,0.2,0,0.3,0c2.4,0.1,4.8,0.3,7.3,0.5
		c6.4,0.9,15.8,4.9,15.9,5l0,0c0,0-2.5-1.9-6.5-4c-0.2-0.1-0.4-0.2-0.5-0.3c-0.8-0.4-1.6-0.8-2.6-1.2c-0.4-0.2-0.8-0.4-1.3-0.5
		c-0.7-0.3-1.4-0.5-2.1-0.8c-0.3-0.1-0.6-0.2-0.8-0.3c-0.2-0.1-0.4-0.1-0.6-0.2c-1.1-0.4-2.3-0.7-3.6-1c-0.4-0.1-0.8-0.2-1.2-0.3
		c-1-0.2-2.1-0.4-3.1-0.5c-0.3,0-0.5-0.1-0.8-0.1c-1.2-0.2-3-0.4-5.4-0.6c-7.3-0.7-18.9-1.8-28.4-5c0,0-0.1,0-0.1,0
		c-1.4-0.5-2.7-1-3.9-1.5c-5.1-1.8-9.1-4.3-11.6-6.1C7.1,41.5,5.6,40,5.6,40l0,0c0,0,1.7,2.5,5,5.6c0.1,0.1,0.2,0.2,0.3,0.3
		c0.8,0.7,1.6,1.4,2.5,2.2c0.2,0.2,0.5,0.4,0.7,0.6c0.7,0.6,1.4,1.1,2.2,1.7c0.2,0.1,0.3,0.3,0.5,0.4c0.1,0.1,0.3,0.2,0.4,0.3
		c1.1,0.8,2.4,1.6,3.7,2.3C21.2,53.5,21.4,53.6,21.7,53.8z M26.2,56c1,0.5,2.1,0.8,3.1,1.2C28.3,56.8,27.2,56.4,26.2,56z M30.7,57.6
		c1,0.3,2.1,0.6,3.1,0.8C32.8,58.2,31.7,57.9,30.7,57.6z M38.1,59.1c-0.7-0.1-1.3-0.2-1.9-0.3c0.7,0.1,1.5,0.2,2.3,0.3
		C38.3,59.2,38.2,59.2,38.1,59.1z M72.9,62.4c-0.1,0-0.1,0-0.2-0.1C72.7,62.4,72.8,62.4,72.9,62.4z M70.4,61.7
		c-0.2-0.1-0.5-0.1-0.7-0.2C69.9,61.6,70.1,61.7,70.4,61.7z M68,61.2c-0.3-0.1-0.6-0.1-0.9-0.2C67.3,61.1,67.6,61.1,68,61.2z
		 M63.5,60.7c-1.2-0.1-2.4-0.2-3.6-0.3C61.1,60.5,62.3,60.6,63.5,60.7z M32.7,53.1c-0.7-0.1-1.3-0.3-2-0.5
		C31.4,52.8,32,53,32.7,53.1z M40.8,54.6c-0.3,0-0.7-0.1-1-0.2C40.1,54.5,40.4,54.6,40.8,54.6z M37.4,54.1c-0.9-0.2-1.9-0.3-2.8-0.5
		C35.5,53.7,36.4,53.9,37.4,54.1z M29,52.2c-1-0.3-2-0.6-3-0.9C27,51.6,27.9,51.9,29,52.2z M22,49.8c0.8,0.4,1.7,0.7,2.6,1
		C23.7,50.5,22.8,50.2,22,49.8z"/>
	<path fill="#0D1E11" d="M121.1,79.3L121.1,79.3L121.1,79.3c0,0-0.7,1.2-3.4,1.7c0,0-0.1,0-0.1,0.1c0,0.1,0,0.2,0,0.3c0,0,0,0,0,0.1
		c0,0.6,0.2,1.7,0.2,1.8v0h0c0,0,0.5-0.1,1.2-0.2c1-0.2,2.6-0.3,4.1-0.2c0.8,0.1,1.5,0.2,2.1,0.4c0.1,0,0.2,0.1,0.3,0.1
		c0.6,0.2,1.1,0.6,1.5,1l0,0l0,0c-0.2-1.2-0.6-2.2-1.3-3c-0.5-0.6-1.2-1.1-2-1.5C122.4,79.2,121.1,79.3,121.1,79.3z M120.3,82.8
		c-0.2,0-0.4,0-0.6,0.1C119.9,82.8,120.1,82.8,120.3,82.8z M122.5,82.7c-0.4,0-0.8,0-1.2,0C121.6,82.7,122.1,82.7,122.5,82.7z
		 M117.7,81.1C117.7,81.1,117.7,81,117.7,81.1c0,0,0,0.1,0,0.2C117.6,81.2,117.6,81.1,117.7,81.1z M123.4,82.8
		c0.5,0.1,1.1,0.2,1.5,0.3C124.5,83,124,82.8,123.4,82.8z M126.7,84.1c-0.3-0.3-0.7-0.5-1.1-0.7C126,83.5,126.4,83.8,126.7,84.1z"/>
	<path fill="#0D1E11" d="M93.9,72.2c0.5,0.2,5.7,2.7,6.4,3.9l0,0h0c-3.5,0.6-7.4,2.9-7.8,3.1c0.3,0,1.8,0.2,5,1.1v0
		c-2.9,0.5-6.5,2.8-7,3.1c0.5,0,4.3-0.4,5.4,0.5l0,0l0,0c-2.7,0.9-4.6,2.6-5.7,3.9c-1,1.1-1.6,2.1-1.7,2.4c0.2-0.2,0.8-0.9,1.8-1.5
		c1.1-0.8,3-1.8,5.5-2.2c0.4-0.1,0.8-0.1,1.2-0.1c1.5-0.2,2.9-1.3,2.9-1.3l0,0c-2.5,3.8-5.7,7.3-6.5,8.2c0.3-0.2,0.9-0.8,1.6-1.3
		c1.2-1,2.6-2.2,3.7-2.9c2.1-1.4,4.4-2.6,6.7-3.5c1.9-0.7,3.8-1.2,5.8-1.6c2.8-0.5,5.1-0.4,5.9-0.3c0-0.2-0.4-2.5,0-3
		c0.4-0.5,3.4-1.6,3.7-1.7c-0.1-0.1-0.5-0.8-1.3-1.7c-0.8-0.9-2.2-2.2-4.2-3.2c-1.3-0.7-3.2-1.2-5.7-1.6c-2-0.3-4.4-0.4-7-0.4
		C98.1,71.8,94.4,72.1,93.9,72.2z M108.1,76.9c0,0,1-0.5,2.1-0.6c0.7-0.1,1.3-0.1,1.8,0c1.2,0,3.7,1.2,3.8,1.3l0,0l-2.4,0.4
		c0,0.1-0.1,0.4-0.3,0.7c-0.2,0.3-0.5,0.7-1.1,0.8c-0.1,0-0.2,0-0.3,0c-0.7,0-1-0.3-1.3-0.5c-0.2-0.2-0.3-0.4-0.3-0.4v0l0.7-0.9
		L108.1,76.9L108.1,76.9L108.1,76.9z"/>
	<path fill="#0D1E11" d="M94.2,93.9c-0.7,0.6-1.4,1.3-2,1.9c-1,0.9-2,1.8-3,2.7c-0.5,0.4-1,0.9-1.5,1.3c-0.7,0.7-1.5,1.3-2.2,1.9
		c-0.6,0.5-1.2,0.9-1.8,1.4c-0.6,0.5-1.3,0.9-1.9,1.3c-0.9,0.6-1.7,1-2.6,1.5c-0.4,0.2-0.8,0.5-1.2,0.7c-0.4,0.2-0.8,0.4-1.1,0.5
		c0.2-0.1,0.3-0.1,0.5-0.2c-0.3,0.2-0.7,0.3-1,0.4c0.1-0.1,0.3-0.1,0.4-0.2c-2.7,1.2-5,1.6-5.5,1.7c-0.1,0-0.1,0-0.1,0v0
		c0,0,1.1,0,2.7-0.3c0.4-0.1,0.9-0.2,1.3-0.3c0,0,0,0,0.1,0c0.5-0.1,1-0.2,1.6-0.4c0.2,0,0.4-0.1,0.6-0.2c0.5-0.1,1-0.3,1.6-0.5
		c0.3-0.1,0.6-0.2,1-0.3c0.5-0.2,1-0.4,1.5-0.6c0.5-0.2,1-0.5,1.6-0.7c0.3-0.2,0.6-0.3,0.9-0.4C87.8,103.4,93,98,96,94.8
		c0.3-0.3,0.6-0.6,0.9-0.9c2-2.8,7.1-6.7,7.2-6.7l0,0C104,87.2,96.9,91.3,94.2,93.9z M86.7,100.7c-0.3,0.2-0.6,0.5-0.9,0.7
		C86.1,101.2,86.4,101,86.7,100.7z M88.6,101.9c0,0-0.1,0.1-0.1,0.1C88.6,101.9,88.6,101.9,88.6,101.9z M87,103.2c0,0-0.1,0-0.1,0.1
		C86.9,103.2,87,103.2,87,103.2z M82.7,103.8c-0.2,0.2-0.5,0.4-0.7,0.5C82.2,104.2,82.4,104,82.7,103.8z M75.9,108.1
		c0,0,0.1,0,0.1,0C75.9,108.1,75.9,108.1,75.9,108.1z M78.2,107.5c0.1,0,0.2,0,0.3-0.1C78.4,107.4,78.3,107.5,78.2,107.5z
		 M81.1,106.5C81.1,106.5,81.1,106.5,81.1,106.5C81.1,106.5,81.1,106.5,81.1,106.5z"/>
	<path fill="#0D1E11" d="M58.3,101.2C58.4,101.2,58.4,101.2,58.3,101.2c0.3,0,0.5-0.1,0.7-0.1c0.1,0,0.2,0,0.2,0.1c0,0,0.1,0,0.1,0
		c0,0,0,0,0,0.1l0,0c0,0.1,0,0.3-0.1,0.4c0,0,0,0,0,0c-0.1,0.1-0.2,0.3-0.4,0.5c0.1-0.1,0.2-0.2,0.3-0.3c-0.2,0.2-0.4,0.4-0.6,0.6
		c0,0,0.1-0.1,0.1-0.1c-2.4,2.1-9.5,5.9-9.6,5.9l0,0c0,0,4.7-1.7,11.6-5.6c1.6-0.5,1.6-0.6,3.8-0.9c0,0,0,0,0,0.1c0,0,0,0.1,0,0.2
		c0,0.1-0.1,0.2-0.1,0.2c0,0,0,0,0,0c-0.7,0.8-2.9,2.1-2.9,2.1l0,0c0,0,4-0.6,4.7-0.5c0.8,0.6-1.2,4.1-1.2,4.1l0,0l0,0l0,0l0,0
		c0,0,0.5-0.6,1.4-1.4c0,0,0.1-0.1,0.1-0.1c0.3-0.2,0.6-0.5,0.9-0.8c0.1-0.1,0.3-0.2,0.4-0.3c0.5-0.4,1.1-0.8,1.8-1.2
		c0.2-0.1,0.5-0.3,0.7-0.4c0.3-0.2,0.6-0.3,1-0.4c0.3-0.1,0.7-0.3,1-0.4c0.3-0.1,0.7-0.2,1-0.3c0.4-0.1,0.9-0.2,1.3-0.2
		c0.3,0,0.6-0.1,0.9-0.1c0.7,0,1.4,0,2.2,0.2c0.1,0,0.1,0,0.2,0c-0.3,0.2-2.7,1.9-5.2,3.6l0,0c2.7-0.5,5.6-1.8,8.5-3.7
		c0.2-0.1,0.4-0.3,0.5-0.4c0.8-0.6,1.7-1.2,2.5-1.9c0.3-0.2,0.5-0.4,0.8-0.7c1-0.9,2-1.8,2.9-2.7c0.1-0.1,0.3-0.2,0.4-0.4
		c4-4.1,6.6-8.1,6.7-8.1l0,0l0,0l-11.3,4.9l4.6-6.4l0,0c0,0-1.7,1.8-4.1,3.7c-1.4,1.1-2.8,2-4.2,2.8c-1.7,0.9-3.3,1.5-4.8,1.7
		c-1.3,0.1-2.6,0-3.8-0.1c0,0-0.1,0-0.1,0c-1.2-0.2-2.3-0.4-3.4-0.8c-1.7-0.6-2.8-1.4-3.4-1.8l-0.1-0.1v0c-2.6,3.2-5.6,5.9-7.7,7.6
		c-2.3,1.9-3.9,3-3.9,3l0,0C52.6,102.9,56.5,101.5,58.3,101.2z M58,102.9c-0.3,0.2-0.6,0.4-0.9,0.7C57.4,103.3,57.7,103.1,58,102.9z
		 M55.8,104.4c-0.2,0.1-0.4,0.3-0.6,0.4C55.4,104.7,55.6,104.5,55.8,104.4z M64.4,102.1L64.4,102.1
		C64.3,102.2,64.3,102.2,64.4,102.1z M70.3,103.8c0.1,0,0.1-0.1,0.2-0.1C70.4,103.7,70.3,103.7,70.3,103.8z M72.3,103
		c0.2-0.1,0.3-0.1,0.5-0.1C72.6,102.9,72.5,102.9,72.3,103z M74.7,102.5c0.2,0,0.3,0,0.5,0C75.1,102.5,74.9,102.5,74.7,102.5z
		 M74.6,95.1c-1.1,0-2.1,0-3-0.1C72.5,95.1,73.5,95.1,74.6,95.1z M67.9,94.2c0.9,0.3,1.9,0.5,2.9,0.7C69.7,94.8,68.8,94.5,67.9,94.2
		z"/>
	<path fill="#0D1E11" d="M70.1,109.6L70.1,109.6L70.1,109.6c0,0-2.9,3-6.2,6.2c-5.5,5.3-8,7-9.1,7.5v0c0,0,0.7,0,1.6-0.1
		c0.4-0.1,0.9-0.2,1.4-0.3c0,0,0.1,0,0.1,0c0.3-0.1,0.6-0.2,1-0.3c0.1,0,0.1-0.1,0.2-0.1c0.3-0.1,0.6-0.3,1-0.4l0,0
		c0.4-0.2,0.7-0.4,1.1-0.7c2.1-1.4,4.4-4.5,6-6.9C68.8,111.9,70.1,109.7,70.1,109.6L70.1,109.6L70.1,109.6z"/>
	<path fill="#0D1E11" d="M55.5,120.2c0.2-0.2,0.4-0.3,0.6-0.5c4.9-5.2,18-16.1,18.1-16.2l0,0c-3.3,2.2-12.6,8.7-23.8,17.3
		c-4.1,2.6-6.7,3.3-7.6,3.5c-0.1,0-0.2,0-0.2,0c-0.1,0-0.1,0-0.1,0l0,0l0,0c0,0,0.1,0,0.1,0c0,0,0.1,0.1,0.3,0.2
		c0.2,0.1,0.4,0.2,0.6,0.2c0.1,0,0.2,0,0.2,0.1c0.3,0.1,0.7,0.1,1.1,0.2c0.1,0,0.2,0,0.3,0c0.5,0,1,0,1.6-0.1c0.1,0,0.1,0,0.2,0
		c0.1,0,0.2-0.1,0.3-0.1c0.4-0.1,0.9-0.2,1.4-0.4c0.2-0.1,0.3-0.1,0.5-0.2c0.5-0.2,1-0.4,1.5-0.7c0.1-0.1,0.2-0.1,0.4-0.2
		c0.1-0.1,0.2-0.2,0.3-0.2c0.6-0.4,1.2-0.8,1.9-1.2c0.3-0.2,0.5-0.4,0.8-0.6C54.5,121.1,55,120.7,55.5,120.2z M53.6,121.8
		c0.1,0,0.1-0.1,0.2-0.1C53.8,121.7,53.7,121.7,53.6,121.8z"/>
	<path fill="#0D1E11" d="M43.8,121.7c8.6-4.9,9.9-6.1,11.9-8.1c0.6-0.5,1.2-1.1,2-1.8c3.9-3.4,6.7-5.3,6.8-5.3l0,0
		c-1.5,0.6-5.5,2.7-10.1,5.7c-2,1.3-6,3.8-9.8,5.8c-3.4,1.8-7.9,4.1-10.2,4.5c-2.1,0.7-4.9,1.5-5,1.5l0,0l0,0c0,0,2.4,0.9,6.2,0.5
		c0,0,0.1,0,0.1,0c0.3,0,0.5,0,0.8-0.1c0.2,0,0.4-0.1,0.6-0.2c0.7-0.1,1.5-0.3,2.2-0.6c0.4-0.1,0.8-0.2,1.2-0.4
		c0.8-0.3,1.6-0.7,2.4-1.1C43.1,122,43.5,121.9,43.8,121.7z M59.1,110.6C59.1,110.6,59.1,110.6,59.1,110.6
		C59.1,110.6,59.1,110.6,59.1,110.6z M31.2,124.4c0,0,0.1,0,0.1,0C31.3,124.4,31.3,124.4,31.2,124.4
		C31.3,124.4,31.2,124.4,31.2,124.4z M32.6,124.5c-0.2,0-0.4,0-0.5,0C32.3,124.5,32.5,124.5,32.6,124.5z M34.2,124.5
		c0.3,0,0.5,0,0.8,0C34.8,124.5,34.5,124.5,34.2,124.5z M36.4,124.3c-0.1,0-0.2,0-0.3,0c0.2,0,0.4-0.1,0.6-0.1
		C36.6,124.3,36.5,124.3,36.4,124.3z M39.7,123.5c0.2-0.1,0.4-0.1,0.5-0.2C40.1,123.4,39.9,123.4,39.7,123.5z"/>
	<path fill="#0D1E11" d="M31.8,121c0.7-0.2,1.5-0.5,2.3-0.7c0.3-0.1,0.6-0.2,0.8-0.3c7.3-2.8,9.9-4.6,12.2-6.2
		c0.9-0.6,1.8-1.2,2.9-1.9c4.6-2.6,7.1-4.3,8.4-5.3c1.4-1,1.7-1.5,1.7-1.5l0,0l0,0c-0.2,0.1-16.5,6.8-21,9.1
		c-1.4,0.7-2.6,1.4-3.7,1.9c-0.1,0.1-0.3,0.1-0.4,0.2c-1.5,0.7-2.8,1.2-3.8,1.6c-0.1,0-0.1,0-0.2,0.1c-1.1,0.4-2.1,0.7-3.1,1
		c-1,0.3-1.9,0.6-2.9,0.9c-0.1,0-0.2,0.1-0.4,0.1c-0.4,0.1-0.8,0.2-1.2,0.2c-0.5,0.1-0.9,0.1-1.4,0.1c-0.2,0-0.5,0-0.7,0
		c-0.5,0-1,0-1.5,0c-0.2,0-0.3,0-0.5,0c-0.6,0-1.1-0.1-1.7-0.1c-0.1,0-0.1,0-0.2,0c-0.6-0.1-1.2-0.1-1.7-0.2
		c-2.4-0.4-4.1-0.8-4.1-0.8l0,0c0,0,0.6,0.4,1.5,0.9c0,0,0.1,0,0.1,0.1c0.4,0.2,0.8,0.4,1.4,0.6c0.2,0.1,0.4,0.2,0.6,0.2
		c0.2,0.1,0.3,0.1,0.5,0.2c0.1,0,0.2,0.1,0.3,0.1c0.5,0.2,1.1,0.3,1.7,0.5c0.3,0.1,0.6,0.1,0.9,0.2c0.4,0.1,0.9,0.1,1.3,0.2
		c0.2,0,0.5,0.1,0.7,0.1c0.1,0,0.3,0,0.4,0c0.8,0.1,1.6,0.1,2.5,0c0.3,0,0.6,0,0.9,0c0.9,0,1.8-0.1,2.8-0.3c0.1,0,0.2,0,0.4,0
		c0.2,0,0.5-0.1,0.7-0.2c0.6-0.1,1.3-0.3,2-0.4C30.9,121.2,31.3,121.1,31.8,121z M31.1,121.1c0.1,0,0.2,0,0.2-0.1
		C31.3,121.1,31.2,121.1,31.1,121.1z M39.7,117.9c-0.1,0.1-0.2,0.1-0.4,0.2C39.5,118,39.6,117.9,39.7,117.9z M23.2,120.2
		c-0.2,0-0.4,0-0.6,0.1C22.7,120.3,23,120.3,23.2,120.2z M20.9,120.4c-0.2,0-0.3,0-0.5,0C20.6,120.4,20.8,120.4,20.9,120.4z
		 M18.6,120.3c-0.1,0-0.1,0-0.2,0C18.4,120.3,18.5,120.3,18.6,120.3z M24.2,122.2C24.2,122.2,24.2,122.2,24.2,122.2
		C24.2,122.2,24.2,122.2,24.2,122.2z M27.8,121.9C27.7,121.9,27.7,121.9,27.8,121.9c0,0,0.1,0,0.1,0
		C27.9,121.8,27.8,121.9,27.8,121.9z"/>
	<path fill="#0D1E11" d="M20.1,117.6c0.6,0.1,1.3,0.2,2,0.3c0.2,0,0.3,0,0.5,0c0.6,0,1.2-0.1,1.9-0.1c0.2,0,0.3,0,0.4,0
		c0.1,0,0.2-0.1,0.4-0.1c0.1,0,0.2,0,0.2,0c2.3-0.5,5-1.4,8.3-3c9.1-5.4,21.7-11.4,21.9-11.5l0,0c-0.1,0-13.9,3.3-20,6.3
		c-2.4,1.2-3.9,2.1-5.3,2.9c-2.2,1.3-3.7,2.2-7,3.2c-0.1,0-0.2,0-0.3,0.1c-0.3,0.1-0.6,0.1-0.9,0.2c-0.3,0-0.7,0.1-1,0.1
		c-0.2,0-0.3,0-0.5,0c-0.4,0-0.8,0-1.2-0.1c-0.1,0-0.2,0-0.3,0c-0.4-0.1-0.8-0.1-1.2-0.2c0,0,0,0-0.1,0c-0.4-0.1-0.8-0.2-1.2-0.3
		c-1.6-0.4-2.6-0.9-2.7-0.9l0,0c0,0,2.7,2.6,5.7,3.3C20,117.6,20.1,117.6,20.1,117.6z M25.2,114.9L25.2,114.9L25.2,114.9z
		 M26.5,114.4c0.1,0,0.2-0.1,0.3-0.1C26.8,114.3,26.7,114.3,26.5,114.4z M28.1,113.7L28.1,113.7L28.1,113.7z M22,115.7
		c-0.2,0-0.3,0-0.4,0C21.7,115.8,21.9,115.7,22,115.7z M20.4,115.8c-0.1,0-0.3,0-0.4,0C20.2,115.8,20.3,115.8,20.4,115.8z
		 M18.8,115.6c-0.1,0-0.1,0-0.2,0C18.7,115.6,18.7,115.6,18.8,115.6z"/>
</g>
</svg>
