<?xml version="1.0" encoding="utf-8"?>
<!-- Generator: Adobe Illustrator 18.1.0, SVG Export Plug-In . SVG Version: 6.00 Build 0)  -->
<svg version="1.1" id="Layer_1" xmlns="http://www.w3.org/2000/svg" xmlns:xlink="http://www.w3.org/1999/xlink" x="0px" y="0px"
	 viewBox="0 0 150 150" enable-background="new 0 0 150 150" xml:space="preserve">
<g>
	<linearGradient id="SVGID_1_" gradientUnits="userSpaceOnUse" x1="85.05" y1="85.9386" x2="34.2544" y2="28.9721">
		<stop  offset="0" style="stop-color:#BAE0F3"/>
		<stop  offset="1" style="stop-color:#00A8DE"/>
	</linearGradient>
	<path fill="url(#SVGID_1_)" d="M30.7,104.6c4.7,8,15,9.9,27.2,6.4c-7.8,1-14.1-1.2-17.3-6.6c-6.9-11.6,3-34,22-50
		c19-16,40-19.5,46.8-7.9c2.7,4.6,2.8,10.8,0.8,17.7c4.8-10.8,5.7-20.9,1.6-27.8c-8.1-13.7-32.8-9.5-55.2,9.3
		C34.2,64.5,22.6,90.9,30.7,104.6z"/>
	<linearGradient id="SVGID_2_" gradientUnits="userSpaceOnUse" x1="105.6059" y1="114.4401" x2="53.6667" y2="63.6762">
		<stop  offset="0" style="stop-color:#00A9DE"/>
		<stop  offset="1" style="stop-color:#385072"/>
	</linearGradient>
	<path fill="url(#SVGID_2_)" d="M56.9,123.3c10.3-3.1,21.8-9.4,32.7-18.6c11.1-9.4,20-20.3,25.9-31.1c-4.4-8.1-9.6-15.7-15.7-21.3
		C80,34.2,43.4,43.9,41.1,47.5c-2.3,3.6,6.4,7.3,6.4,7.3S37,56,34.1,56.6c-10.8,2.1-7.5,14.9-7.5,14.9c0.7-2.7,4.4-3.6,4.4-3.6
		c20.2-2.9,28.1,6,28.1,6C68.2,86.7,62,107.8,56.9,123.3z"/>
	<linearGradient id="SVGID_3_" gradientUnits="userSpaceOnUse" x1="106.548" y1="116.5705" x2="79.1772" y2="80.7277">
		<stop  offset="0" style="stop-color:#CBA7AE"/>
		<stop  offset="1" style="stop-color:#945465"/>
	</linearGradient>
	<path fill="url(#SVGID_3_)" d="M134,29.8c-6.6-11.2-21.1-13.9-38.3-9c11-1.3,19.9,1.6,24.4,9.3c9.7,16.4-4.2,47.9-30.9,70.4
		C62.5,123,33,128,23.3,111.7c-3.8-6.4-4-15.2-1.1-24.8c-6.7,15.1-8,29.4-2.3,39.1c11.4,19.3,46.2,13.4,77.7-13.1
		C129.1,86.2,145.4,49.1,134,29.8z"/>
	<linearGradient id="SVGID_4_" gradientUnits="userSpaceOnUse" x1="103.3992" y1="107.1776" x2="60.388" y2="57.3235">
		<stop  offset="0" style="stop-color:#CBA7AE"/>
		<stop  offset="1" style="stop-color:#945465"/>
	</linearGradient>
	<path fill="url(#SVGID_4_)" d="M125.3,29.1c-4-6.7-11.1-10-20-10.3c-2.9,0.4-6,1-9.1,1.8c0.2,0,0.4,0,0.6,0c10.4-1,18.9,2,23.3,9.4
		c9.7,16.4-4.2,47.9-30.9,70.4C62.5,123,33,128,23.3,111.7c-3.8-6.4-4-15.2-1.1-24.8c-0.9,2-1.7,3.9-2.3,5.9
		c-2.1,9.1-1.6,17.3,2,23.5c10.3,17.5,41.9,12.2,70.4-11.9C120.9,80.2,135.7,46.6,125.3,29.1z"/>
	<linearGradient id="SVGID_5_" gradientUnits="userSpaceOnUse" x1="70.2012" y1="55.3567" x2="72.4817" y2="31.8963">
		<stop  offset="0" style="stop-color:#00A9DE"/>
		<stop  offset="1" style="stop-color:#385072"/>
	</linearGradient>
	<path fill="url(#SVGID_5_)" d="M41.8,48c0,0,0.7,5.2,12.4,4.2c11.7-1,38.1-5.5,45.9,2.6c0,0-18-22.5-59-7.4"/>
	<linearGradient id="SVGID_6_" gradientUnits="userSpaceOnUse" x1="95.5545" y1="28.2518" x2="89.8584" y2="20.8293">
		<stop  offset="0" style="stop-color:#CBA7AE"/>
		<stop  offset="1" style="stop-color:#945465"/>
	</linearGradient>
	<circle fill="url(#SVGID_6_)" cx="91.2" cy="22.5" r="6.2"/>
	<linearGradient id="SVGID_7_" gradientUnits="userSpaceOnUse" x1="87.8691" y1="19.6772" x2="94.4274" y2="24.1641">
		<stop  offset="0" style="stop-color:#FFFFFE"/>
		<stop  offset="1" style="stop-color:#945465"/>
	</linearGradient>
	<circle fill="url(#SVGID_7_)" cx="88.7" cy="20.3" r="2.2"/>
</g>
</svg>
