<?xml version="1.0" encoding="iso-8859-1"?>
<!-- Generator: Adobe Illustrator 13.0.0, SVG Export Plug-In . SVG Version: 6.00 Build 14948)  -->
<!DOCTYPE svg PUBLIC "-//W3C//DTD SVG 1.1//EN" "http://www.w3.org/Graphics/SVG/1.1/DTD/svg11.dtd">
<svg version="1.1" id="Layer_1" xmlns="http://www.w3.org/2000/svg" xmlns:xlink="http://www.w3.org/1999/xlink" x="0px" y="0px"
	 width="100px" height="100px" viewBox="0 0 100 100" enable-background="new 0 0 100 100" xml:space="preserve">
<g>
	
		<linearGradient id="SVGID_1_" gradientUnits="userSpaceOnUse" x1="-273.9263" y1="329.3281" x2="-269.2608" y2="329.3281" gradientTransform="matrix(-1.5074 0.2225 -0.2225 -1.5074 -322.8105 613.4558)">
		<stop  offset="0" style="stop-color:#9DC44E"/>
		<stop  offset="1" style="stop-color:#C4D54B"/>
	</linearGradient>
	<path fill="url(#SVGID_1_)" d="M30.322,53.914c-0.128,0.135-0.253,0.271-0.388,0.399C30.069,54.185,30.194,54.049,30.322,53.914z"
		/>
	
		<linearGradient id="SVGID_2_" gradientUnits="userSpaceOnUse" x1="-273.9185" y1="329.7949" x2="-269.249" y2="329.7949" gradientTransform="matrix(-1.5074 0.2225 -0.2225 -1.5074 -322.8105 613.4558)">
		<stop  offset="0" style="stop-color:#9DC44E"/>
		<stop  offset="1" style="stop-color:#C4D54B"/>
	</linearGradient>
	<path fill="url(#SVGID_2_)" d="M31.062,53.062c-0.119,0.15-0.236,0.302-0.362,0.447C30.826,53.363,30.943,53.212,31.062,53.062z"/>
	
		<linearGradient id="SVGID_3_" gradientUnits="userSpaceOnUse" x1="-273.9365" y1="330.3066" x2="-269.2754" y2="330.3066" gradientTransform="matrix(-1.5074 0.2225 -0.2225 -1.5074 -322.8105 613.4558)">
		<stop  offset="0" style="stop-color:#9DC44E"/>
		<stop  offset="1" style="stop-color:#C4D54B"/>
	</linearGradient>
	<path fill="url(#SVGID_3_)" d="M31.709,52.153c-0.106,0.165-0.212,0.329-0.326,0.488C31.497,52.482,31.603,52.318,31.709,52.153z"
		/>
	
		<linearGradient id="SVGID_4_" gradientUnits="userSpaceOnUse" x1="-274.0781" y1="336.3662" x2="-269.4712" y2="336.3662" gradientTransform="matrix(-1.5074 0.2225 -0.2225 -1.5074 -322.8105 613.4558)">
		<stop  offset="0" style="stop-color:#9DC44E"/>
		<stop  offset="1" style="stop-color:#C4D54B"/>
	</linearGradient>
	<path fill="url(#SVGID_4_)" d="M33.133,42.559c0.051,0.174,0.086,0.35,0.129,0.525C33.219,42.909,33.184,42.733,33.133,42.559z"/>
	
		<linearGradient id="SVGID_5_" gradientUnits="userSpaceOnUse" x1="-273.8706" y1="333.4248" x2="-269.1819" y2="333.4248" gradientTransform="matrix(-1.5074 0.2225 -0.2225 -1.5074 -322.8105 613.4558)">
		<stop  offset="0" style="stop-color:#9DC44E"/>
		<stop  offset="1" style="stop-color:#C4D54B"/>
	</linearGradient>
	<path fill="url(#SVGID_5_)" d="M33.533,47.002c-0.022,0.205-0.053,0.409-0.085,0.612C33.48,47.411,33.511,47.208,33.533,47.002z"/>
	
		<linearGradient id="SVGID_6_" gradientUnits="userSpaceOnUse" x1="-273.9189" y1="338.8193" x2="-269.2402" y2="338.8193" gradientTransform="matrix(-1.5074 0.2225 -0.2225 -1.5074 -322.8105 613.4558)">
		<stop  offset="0" style="stop-color:#9DC44E"/>
		<stop  offset="1" style="stop-color:#C4D54B"/>
	</linearGradient>
	<path fill="url(#SVGID_6_)" d="M14.818,42.188c-0.09-0.275-0.179-0.55-0.263-0.825C14.639,41.638,14.727,41.913,14.818,42.188z"/>
	
		<linearGradient id="SVGID_7_" gradientUnits="userSpaceOnUse" x1="-273.8979" y1="328.543" x2="-269.2157" y2="328.543" gradientTransform="matrix(-1.5074 0.2225 -0.2225 -1.5074 -322.8105 613.4558)">
		<stop  offset="0" style="stop-color:#9DC44E"/>
		<stop  offset="1" style="stop-color:#C4D54B"/>
	</linearGradient>
	<path fill="url(#SVGID_7_)" d="M28.508,55.47c-0.113,0.078-0.22,0.162-0.335,0.237C28.288,55.632,28.395,55.548,28.508,55.47z"/>
	
		<linearGradient id="SVGID_8_" gradientUnits="userSpaceOnUse" x1="-273.9399" y1="334.1309" x2="-269.279" y2="334.1309" gradientTransform="matrix(-1.5074 0.2225 -0.2225 -1.5074 -322.8105 613.4558)">
		<stop  offset="0" style="stop-color:#9DC44E"/>
		<stop  offset="1" style="stop-color:#C4D54B"/>
	</linearGradient>
	<path fill="url(#SVGID_8_)" d="M33.597,45.897c-0.001,0.208-0.015,0.414-0.028,0.62C33.582,46.311,33.595,46.104,33.597,45.897z"/>
	
		<linearGradient id="SVGID_9_" gradientUnits="userSpaceOnUse" x1="-273.8906" y1="332.7412" x2="-269.2098" y2="332.7412" gradientTransform="matrix(-1.5074 0.2225 -0.2225 -1.5074 -322.8105 613.4558)">
		<stop  offset="0" style="stop-color:#9DC44E"/>
		<stop  offset="1" style="stop-color:#C4D54B"/>
	</linearGradient>
	<path fill="url(#SVGID_9_)" d="M33.365,48.092c-0.041,0.201-0.089,0.399-0.14,0.597C33.276,48.491,33.324,48.293,33.365,48.092z"/>
	
		<linearGradient id="SVGID_10_" gradientUnits="userSpaceOnUse" x1="-273.9062" y1="332.084" x2="-269.2316" y2="332.084" gradientTransform="matrix(-1.5074 0.2225 -0.2225 -1.5074 -322.8105 613.4558)">
		<stop  offset="0" style="stop-color:#9DC44E"/>
		<stop  offset="1" style="stop-color:#C4D54B"/>
	</linearGradient>
	<path fill="url(#SVGID_10_)" d="M33.096,49.159c-0.059,0.194-0.123,0.386-0.191,0.577C32.973,49.545,33.037,49.353,33.096,49.159z"
		/>
	
		<linearGradient id="SVGID_11_" gradientUnits="userSpaceOnUse" x1="-274.9463" y1="335.5986" x2="-270.6781" y2="335.5986" gradientTransform="matrix(-1.5074 0.2225 -0.2225 -1.5074 -322.8105 613.4558)">
		<stop  offset="0" style="stop-color:#9DC44E"/>
		<stop  offset="1" style="stop-color:#C4D54B"/>
	</linearGradient>
	<path fill="url(#SVGID_11_)" d="M33.399,43.668c0.038,0.199,0.06,0.398,0.087,0.598C33.459,44.067,33.438,43.868,33.399,43.668z"/>
	
		<linearGradient id="SVGID_12_" gradientUnits="userSpaceOnUse" x1="-273.9067" y1="330.8613" x2="-269.2321" y2="330.8613" gradientTransform="matrix(-1.5074 0.2225 -0.2225 -1.5074 -322.8105 613.4558)">
		<stop  offset="0" style="stop-color:#9DC44E"/>
		<stop  offset="1" style="stop-color:#C4D54B"/>
	</linearGradient>
	<path fill="url(#SVGID_12_)" d="M32.265,51.196c-0.091,0.177-0.185,0.351-0.286,0.522C32.08,51.547,32.173,51.373,32.265,51.196z"
		/>
	
		<linearGradient id="SVGID_13_" gradientUnits="userSpaceOnUse" x1="-273.9268" y1="331.4551" x2="-269.2609" y2="331.4551" gradientTransform="matrix(-1.5074 0.2225 -0.2225 -1.5074 -322.8105 613.4558)">
		<stop  offset="0" style="stop-color:#9DC44E"/>
		<stop  offset="1" style="stop-color:#C4D54B"/>
	</linearGradient>
	<path fill="url(#SVGID_13_)" d="M32.729,50.196c-0.076,0.186-0.155,0.371-0.24,0.552C32.573,50.565,32.653,50.382,32.729,50.196z"
		/>
	
		<linearGradient id="SVGID_14_" gradientUnits="userSpaceOnUse" x1="-273.9102" y1="334.8564" x2="-269.2374" y2="334.8564" gradientTransform="matrix(-1.5074 0.2225 -0.2225 -1.5074 -322.8105 613.4558)">
		<stop  offset="0" style="stop-color:#9DC44E"/>
		<stop  offset="1" style="stop-color:#C4D54B"/>
	</linearGradient>
	<path fill="url(#SVGID_14_)" d="M33.553,44.783c0.018,0.207,0.023,0.413,0.03,0.62C33.576,45.196,33.571,44.99,33.553,44.783z"/>
	
		<linearGradient id="SVGID_15_" gradientUnits="userSpaceOnUse" x1="-273.9282" y1="328.9121" x2="-269.2641" y2="328.9121" gradientTransform="matrix(-1.5074 0.2225 -0.2225 -1.5074 -322.8105 613.4558)">
		<stop  offset="0" style="stop-color:#9DC44E"/>
		<stop  offset="1" style="stop-color:#C4D54B"/>
	</linearGradient>
	<path fill="url(#SVGID_15_)" d="M29.484,54.711c-0.131,0.113-0.257,0.23-0.394,0.338C29.227,54.941,29.353,54.824,29.484,54.711z"
		/>
	
		<linearGradient id="SVGID_16_" gradientUnits="userSpaceOnUse" x1="-273.918" y1="340.6699" x2="-269.2621" y2="340.6699" gradientTransform="matrix(-1.5074 0.2225 -0.2225 -1.5074 -322.8105 613.4558)">
		<stop  offset="0" style="stop-color:#9DC44E"/>
		<stop  offset="1" style="stop-color:#C4D54B"/>
	</linearGradient>
	<path fill="url(#SVGID_16_)" d="M13.871,38.647c-0.055-0.269-0.109-0.542-0.164-0.821c-0.028-0.162-0.051-0.325-0.077-0.487
		c0.177,1.12,0.426,2.245,0.741,3.373c-0.022-0.088-0.05-0.176-0.071-0.263C14.136,39.842,13.99,39.25,13.871,38.647z"/>
	
		<linearGradient id="SVGID_17_" gradientUnits="userSpaceOnUse" x1="-273.915" y1="342.6406" x2="-269.3133" y2="342.6406" gradientTransform="matrix(-1.5074 0.2225 -0.2225 -1.5074 -322.8105 613.4558)">
		<stop  offset="0" style="stop-color:#9DC44E"/>
		<stop  offset="1" style="stop-color:#C4D54B"/>
	</linearGradient>
	<path fill="url(#SVGID_17_)" d="M13.401,35.564c0.033,0.336,0.075,0.674,0.119,1.012c-0.032-0.246-0.063-0.491-0.087-0.737
		C13.421,35.748,13.413,35.655,13.401,35.564z"/>
	
		<linearGradient id="SVGID_18_" gradientUnits="userSpaceOnUse" x1="-273.9028" y1="330.9824" x2="-269.2087" y2="330.9824" gradientTransform="matrix(-1.5074 0.2225 -0.2225 -1.5074 -322.8105 613.4558)">
		<stop  offset="0" style="stop-color:#9DC44E"/>
		<stop  offset="1" style="stop-color:#C4D54B"/>
	</linearGradient>
	<path fill="url(#SVGID_18_)" d="M21.168,53.05c-0.085-0.093-0.168-0.189-0.252-0.283C21,52.859,21.083,52.958,21.168,53.05z"/>
	
		<linearGradient id="SVGID_19_" gradientUnits="userSpaceOnUse" x1="-273.9189" y1="345.2695" x2="-269.2477" y2="345.2695" gradientTransform="matrix(-1.5074 0.2225 -0.2225 -1.5074 -322.8105 613.4558)">
		<stop  offset="0" style="stop-color:#9DC44E"/>
		<stop  offset="1" style="stop-color:#C4D54B"/>
	</linearGradient>
	<path fill="url(#SVGID_19_)" d="M13.305,31.579c-0.015,0.311-0.028,0.622-0.032,0.936c0.002-0.082,0.005-0.165,0.005-0.247
		C13.282,32.039,13.293,31.809,13.305,31.579z"/>
	
		<linearGradient id="SVGID_20_" gradientUnits="userSpaceOnUse" x1="-273.9199" y1="328.7109" x2="-269.2514" y2="328.7109" gradientTransform="matrix(-1.5074 0.2225 -0.2225 -1.5074 -322.8105 613.4558)">
		<stop  offset="0" style="stop-color:#9DC44E"/>
		<stop  offset="1" style="stop-color:#C4D54B"/>
	</linearGradient>
	<path fill="url(#SVGID_20_)" d="M23.657,55.409c0.432,0.361,0.872,0.701,1.319,1.028C24.532,56.109,24.089,55.766,23.657,55.409z"
		/>
	
		<linearGradient id="SVGID_21_" gradientUnits="userSpaceOnUse" x1="-273.9233" y1="329.834" x2="-269.2595" y2="329.834" gradientTransform="matrix(-1.5074 0.2225 -0.2225 -1.5074 -322.8105 613.4558)">
		<stop  offset="0" style="stop-color:#9DC44E"/>
		<stop  offset="1" style="stop-color:#C4D54B"/>
	</linearGradient>
	<path fill="url(#SVGID_21_)" d="M21.964,53.855c0.413,0.412,0.835,0.805,1.267,1.184c-0.079-0.071-0.159-0.14-0.239-0.213
		C22.638,54.514,22.3,54.187,21.964,53.855z"/>
	
		<linearGradient id="SVGID_22_" gradientUnits="userSpaceOnUse" x1="-273.873" y1="332.0898" x2="-269.1141" y2="332.0898" gradientTransform="matrix(-1.5074 0.2225 -0.2225 -1.5074 -322.8105 613.4558)">
		<stop  offset="0" style="stop-color:#9DC44E"/>
		<stop  offset="1" style="stop-color:#C4D54B"/>
	</linearGradient>
	<path fill="url(#SVGID_22_)" d="M19.779,51.428c-0.019-0.024-0.04-0.047-0.059-0.071C19.739,51.381,19.76,51.403,19.779,51.428z"/>
	
		<linearGradient id="SVGID_23_" gradientUnits="userSpaceOnUse" x1="-273.9165" y1="336.0801" x2="-269.233" y2="336.0801" gradientTransform="matrix(-1.5074 0.2225 -0.2225 -1.5074 -322.8105 613.4558)">
		<stop  offset="0" style="stop-color:#9DC44E"/>
		<stop  offset="1" style="stop-color:#C4D54B"/>
	</linearGradient>
	<path fill="url(#SVGID_23_)" d="M16.41,46.067c-0.099-0.202-0.193-0.408-0.29-0.612C16.216,45.661,16.31,45.865,16.41,46.067z"/>
	
		<linearGradient id="SVGID_24_" gradientUnits="userSpaceOnUse" x1="-273.9189" y1="339.4404" x2="-269.2495" y2="339.4404" gradientTransform="matrix(-1.5074 0.2225 -0.2225 -1.5074 -322.8105 613.4558)">
		<stop  offset="0" style="stop-color:#9DC44E"/>
		<stop  offset="1" style="stop-color:#C4D54B"/>
	</linearGradient>
	<path fill="url(#SVGID_24_)" d="M13.816,27.439c0.023-0.091,0.037-0.191,0.055-0.283c-0.009,0.055-0.009,0.114-0.018,0.164
		c0.342-1.568,0.82-3.073,1.455-4.469c0.022-0.032,0.068-0.086,0.068-0.086S4.56,34.908,10.752,50.121
		c2.18,5.362,7.779,8.321,13.251,7.264c-3.73-2.928-6.913-7.1-8.919-12.198c-2.248-5.723-2.635-11.591-1.468-16.68
		c-0.021,0.123-0.03,0.25-0.049,0.373c0.051-0.333,0.107-0.666,0.177-0.998C13.771,27.74,13.789,27.585,13.816,27.439z
		 M13.342,45.871c1.395,3.556,3.369,6.765,5.799,9.483l0,0.001c-2.922-0.812-5.435-2.956-6.656-5.951
		c-2.043-5.011-2.102-9.653-1.34-13.561C11.322,39.204,12.065,42.61,13.342,45.871z"/>
	
		<linearGradient id="SVGID_25_" gradientUnits="userSpaceOnUse" x1="-273.9194" y1="334.7363" x2="-269.253" y2="334.7363" gradientTransform="matrix(-1.5074 0.2225 -0.2225 -1.5074 -322.8105 613.4558)">
		<stop  offset="0" style="stop-color:#9DC44E"/>
		<stop  offset="1" style="stop-color:#C4D54B"/>
	</linearGradient>
	<path fill="url(#SVGID_25_)" d="M17.694,48.397c-0.28-0.463-0.547-0.944-0.812-1.432C17.142,47.453,17.412,47.931,17.694,48.397z"
		/>
	
		<linearGradient id="SVGID_26_" gradientUnits="userSpaceOnUse" x1="-273.9165" y1="333.1104" x2="-269.2414" y2="333.1104" gradientTransform="matrix(-1.5074 0.2225 -0.2225 -1.5074 -322.8105 613.4558)">
		<stop  offset="0" style="stop-color:#9DC44E"/>
		<stop  offset="1" style="stop-color:#C4D54B"/>
	</linearGradient>
	<path fill="url(#SVGID_26_)" d="M19.213,50.662c-0.331-0.453-0.655-0.909-0.97-1.382C18.555,49.755,18.88,50.212,19.213,50.662z"/>
	
		<linearGradient id="SVGID_27_" gradientUnits="userSpaceOnUse" x1="-273.918" y1="346.3242" x2="-269.2433" y2="346.3242" gradientTransform="matrix(-1.5074 0.2225 -0.2225 -1.5074 -322.8105 613.4558)">
		<stop  offset="0" style="stop-color:#9DC44E"/>
		<stop  offset="1" style="stop-color:#C4D54B"/>
	</linearGradient>
	<path fill="url(#SVGID_27_)" d="M13.439,29.859c-0.041,0.362-0.071,0.727-0.098,1.095c0.013-0.169,0.023-0.338,0.037-0.506
		C13.394,30.255,13.417,30.057,13.439,29.859z"/>
	
		<linearGradient id="SVGID_28_" gradientUnits="userSpaceOnUse" x1="-273.9189" y1="336.293" x2="-269.249" y2="336.293" gradientTransform="matrix(-1.5074 0.2225 -0.2225 -1.5074 -322.8105 613.4558)">
		<stop  offset="0" style="stop-color:#9DC44E"/>
		<stop  offset="1" style="stop-color:#C4D54B"/>
	</linearGradient>
	<path fill="url(#SVGID_28_)" d="M12.485,49.404c1.222,2.995,3.734,5.139,6.656,5.951l0-0.001c-2.43-2.719-4.404-5.928-5.799-9.483
		c-1.277-3.261-2.021-6.667-2.198-10.028C10.383,39.751,10.442,44.393,12.485,49.404z"/>
	
		<linearGradient id="SVGID_29_" gradientUnits="userSpaceOnUse" x1="-469.3105" y1="494.4297" x2="-464.6432" y2="494.4297" gradientTransform="matrix(7.0678 1.6797 1.6797 -7.0678 2493.4126 4326.4697)">
		<stop  offset="0" style="stop-color:#DDE599"/>
		<stop  offset="0.0123" style="stop-color:#DDE599"/>
		<stop  offset="0.2699" style="stop-color:#C4D54B"/>
		<stop  offset="1" style="stop-color:#9DC44E"/>
	</linearGradient>
	<path fill="url(#SVGID_29_)" d="M12.485,49.404c1.222,2.995,3.734,5.139,6.656,5.951l0-0.001c-2.43-2.719-4.404-5.928-5.799-9.483
		c-1.277-3.261-2.021-6.667-2.198-10.028C10.383,39.751,10.442,44.393,12.485,49.404z"/>
	
		<linearGradient id="SVGID_30_" gradientUnits="userSpaceOnUse" x1="-388.459" y1="499.2549" x2="-383.7284" y2="499.2549" gradientTransform="matrix(-4.7343 1.8627 -1.8627 -4.7343 -870.2221 3124.9678)">
		<stop  offset="0" style="stop-color:#9DC44E"/>
		<stop  offset="1" style="stop-color:#C4D54B"/>
	</linearGradient>
	<path fill="url(#SVGID_30_)" d="M16.457,46.167c0.119,0.242,0.251,0.479,0.378,0.716c0.015,0.028,0.031,0.054,0.046,0.082
		c-0.159-0.298-0.321-0.592-0.472-0.897C16.426,46.1,16.44,46.134,16.457,46.167z"/>
	
		<linearGradient id="SVGID_31_" gradientUnits="userSpaceOnUse" x1="-388.4321" y1="500.4141" x2="-383.7286" y2="500.4141" gradientTransform="matrix(-4.7343 1.8627 -1.8627 -4.7343 -870.2221 3124.9678)">
		<stop  offset="0" style="stop-color:#9DC44E"/>
		<stop  offset="1" style="stop-color:#C4D54B"/>
	</linearGradient>
	<path fill="url(#SVGID_31_)" d="M14.51,41.22c0.014,0.048,0.031,0.096,0.046,0.144c-0.066-0.217-0.124-0.434-0.185-0.651
		C14.415,40.881,14.456,41.051,14.51,41.22z"/>
	
		<linearGradient id="SVGID_32_" gradientUnits="userSpaceOnUse" x1="-388.394" y1="502.6172" x2="-383.7301" y2="502.6172" gradientTransform="matrix(-4.7343 1.8627 -1.8627 -4.7343 -870.2221 3124.9678)">
		<stop  offset="0" style="stop-color:#9DC44E"/>
		<stop  offset="1" style="stop-color:#C4D54B"/>
	</linearGradient>
	<path fill="url(#SVGID_32_)" d="M13.567,28.879c-0.043,0.285-0.082,0.571-0.115,0.863c-0.005,0.04-0.008,0.078-0.012,0.118
		C13.476,29.53,13.518,29.203,13.567,28.879z"/>
	
		<linearGradient id="SVGID_33_" gradientUnits="userSpaceOnUse" x1="-388.3931" y1="496.9414" x2="-383.7332" y2="496.9414" gradientTransform="matrix(-4.7343 1.8627 -1.8627 -4.7343 -870.2221 3124.9678)">
		<stop  offset="0" style="stop-color:#9DC44E"/>
		<stop  offset="1" style="stop-color:#C4D54B"/>
	</linearGradient>
	<path fill="url(#SVGID_33_)" d="M30.322,53.914c0.127-0.134,0.257-0.267,0.377-0.405C30.579,53.647,30.45,53.78,30.322,53.914z"/>
	
		<linearGradient id="SVGID_34_" gradientUnits="userSpaceOnUse" x1="-388.5195" y1="500.0176" x2="-383.7289" y2="500.0176" gradientTransform="matrix(-4.7343 1.8627 -1.8627 -4.7343 -870.2221 3124.9678)">
		<stop  offset="0" style="stop-color:#9DC44E"/>
		<stop  offset="1" style="stop-color:#C4D54B"/>
	</linearGradient>
	<path fill="url(#SVGID_34_)" d="M15.367,43.728c-0.202-0.512-0.376-1.026-0.548-1.54C14.988,42.7,15.166,43.213,15.367,43.728z"/>
	
		<linearGradient id="SVGID_35_" gradientUnits="userSpaceOnUse" x1="-388.4336" y1="498.2305" x2="-383.727" y2="498.2305" gradientTransform="matrix(-4.7343 1.8627 -1.8627 -4.7343 -870.2221 3124.9678)">
		<stop  offset="0" style="stop-color:#9DC44E"/>
		<stop  offset="1" style="stop-color:#C4D54B"/>
	</linearGradient>
	<path fill="url(#SVGID_35_)" d="M19.33,50.828c0.114,0.15,0.223,0.314,0.342,0.469c0.016,0.021,0.033,0.039,0.049,0.06
		c-0.175-0.223-0.337-0.465-0.507-0.694C19.253,50.716,19.29,50.773,19.33,50.828z"/>
	
		<linearGradient id="SVGID_36_" gradientUnits="userSpaceOnUse" x1="-388.395" y1="496.7812" x2="-383.7305" y2="496.7812" gradientTransform="matrix(-4.7343 1.8627 -1.8627 -4.7343 -870.2221 3124.9678)">
		<stop  offset="0" style="stop-color:#9DC44E"/>
		<stop  offset="1" style="stop-color:#C4D54B"/>
	</linearGradient>
	<path fill="url(#SVGID_36_)" d="M28.508,55.47c0.197-0.138,0.396-0.273,0.583-0.421C28.903,55.196,28.705,55.333,28.508,55.47z"/>
	
		<linearGradient id="SVGID_37_" gradientUnits="userSpaceOnUse" x1="-388.4097" y1="498.7354" x2="-383.729" y2="498.7354" gradientTransform="matrix(-4.7343 1.8627 -1.8627 -4.7343 -870.2221 3124.9678)">
		<stop  offset="0" style="stop-color:#9DC44E"/>
		<stop  offset="1" style="stop-color:#C4D54B"/>
	</linearGradient>
	<path fill="url(#SVGID_37_)" d="M17.743,48.483c0.15,0.251,0.306,0.497,0.46,0.739c0.013,0.02,0.027,0.038,0.04,0.058
		c-0.188-0.289-0.369-0.585-0.549-0.883C17.71,48.425,17.726,48.456,17.743,48.483z"/>
	
		<linearGradient id="SVGID_38_" gradientUnits="userSpaceOnUse" x1="-388.3984" y1="497.9678" x2="-383.7287" y2="497.9678" gradientTransform="matrix(-4.7343 1.8627 -1.8627 -4.7343 -870.2221 3124.9678)">
		<stop  offset="0" style="stop-color:#9DC44E"/>
		<stop  offset="1" style="stop-color:#C4D54B"/>
	</linearGradient>
	<path fill="url(#SVGID_38_)" d="M19.779,51.428c0.368,0.462,0.75,0.905,1.137,1.339C20.527,52.333,20.146,51.891,19.779,51.428z"/>
	
		<linearGradient id="SVGID_39_" gradientUnits="userSpaceOnUse" x1="-388.3955" y1="495.9834" x2="-383.7255" y2="495.9834" gradientTransform="matrix(-4.7343 1.8627 -1.8627 -4.7343 -870.2221 3124.9678)">
		<stop  offset="0" style="stop-color:#9DC44E"/>
		<stop  offset="1" style="stop-color:#C4D54B"/>
	</linearGradient>
	<path fill="url(#SVGID_39_)" d="M45.85,56.322c-0.971,0.685-2.011,1.272-3.142,1.72c-5.034,1.983-10.611,1.162-15.541-1.752
		c0.348-0.179,0.681-0.375,1.004-0.583c-0.651,0.419-1.352,0.783-2.099,1.076c-0.137,0.059-0.287,0.096-0.429,0.15
		c0.005-0.01,0.014-0.01,0.027-0.01c1.286,0.867,2.622,1.609,4,2.181C35.139,60.873,41.208,59.916,45.85,56.322z"/>
	
		<linearGradient id="SVGID_40_" gradientUnits="userSpaceOnUse" x1="-388.4707" y1="499.6719" x2="-383.7285" y2="499.6719" gradientTransform="matrix(-4.7343 1.8627 -1.8627 -4.7343 -870.2221 3124.9678)">
		<stop  offset="0" style="stop-color:#9DC44E"/>
		<stop  offset="1" style="stop-color:#C4D54B"/>
	</linearGradient>
	<path fill="url(#SVGID_40_)" d="M15.367,43.728c0.231,0.593,0.488,1.165,0.753,1.728C15.857,44.89,15.599,44.319,15.367,43.728z"/>
	
		<linearGradient id="SVGID_41_" gradientUnits="userSpaceOnUse" x1="-388.395" y1="501.7754" x2="-383.7291" y2="501.7754" gradientTransform="matrix(-4.7343 1.8627 -1.8627 -4.7343 -870.2221 3124.9678)">
		<stop  offset="0" style="stop-color:#9DC44E"/>
		<stop  offset="1" style="stop-color:#C4D54B"/>
	</linearGradient>
	<path fill="url(#SVGID_41_)" d="M13.273,32.515c-0.004,0.126-0.008,0.252-0.008,0.383c-0.009,0.803,0.032,1.614,0.109,2.431
		c0.004,0.08,0.018,0.157,0.027,0.236C13.303,34.536,13.26,33.518,13.273,32.515z"/>
	
		<linearGradient id="SVGID_42_" gradientUnits="userSpaceOnUse" x1="-388.3838" y1="496.7715" x2="-383.7321" y2="496.7715" gradientTransform="matrix(-4.7343 1.8627 -1.8627 -4.7343 -870.2221 3124.9678)">
		<stop  offset="0" style="stop-color:#9DC44E"/>
		<stop  offset="1" style="stop-color:#C4D54B"/>
	</linearGradient>
	<path fill="url(#SVGID_42_)" d="M24.998,56.455c0.142,0.104,0.292,0.219,0.438,0.323c0.073,0.05,0.137,0.101,0.21,0.155
		c-0.227-0.155-0.445-0.332-0.669-0.496C24.983,56.443,24.99,56.449,24.998,56.455z"/>
	
		<linearGradient id="SVGID_43_" gradientUnits="userSpaceOnUse" x1="-388.3936" y1="497.6318" x2="-383.7295" y2="497.6318" gradientTransform="matrix(-4.7343 1.8627 -1.8627 -4.7343 -870.2221 3124.9678)">
		<stop  offset="0" style="stop-color:#9DC44E"/>
		<stop  offset="1" style="stop-color:#C4D54B"/>
	</linearGradient>
	<path fill="url(#SVGID_43_)" d="M21.235,53.126c0.165,0.183,0.342,0.351,0.511,0.524c0.07,0.07,0.146,0.135,0.217,0.205
		c-0.267-0.266-0.537-0.526-0.795-0.806C21.191,53.075,21.213,53.102,21.235,53.126z"/>
	
		<linearGradient id="SVGID_44_" gradientUnits="userSpaceOnUse" x1="-388.3721" y1="497.1729" x2="-383.7329" y2="497.1729" gradientTransform="matrix(-4.7343 1.8627 -1.8627 -4.7343 -870.2221 3124.9678)">
		<stop  offset="0" style="stop-color:#9DC44E"/>
		<stop  offset="1" style="stop-color:#C4D54B"/>
	</linearGradient>
	<path fill="url(#SVGID_44_)" d="M23.589,55.356c0.022,0.019,0.045,0.034,0.068,0.053c-0.144-0.12-0.285-0.247-0.426-0.37
		C23.349,55.145,23.466,55.252,23.589,55.356z"/>
	
		<linearGradient id="SVGID_45_" gradientUnits="userSpaceOnUse" x1="-388.3809" y1="502.2832" x2="-383.7312" y2="502.2832" gradientTransform="matrix(-4.7343 1.8627 -1.8627 -4.7343 -870.2221 3124.9678)">
		<stop  offset="0" style="stop-color:#9DC44E"/>
		<stop  offset="1" style="stop-color:#C4D54B"/>
	</linearGradient>
	<path fill="url(#SVGID_45_)" d="M13.305,31.579c0.01-0.209,0.022-0.417,0.037-0.625C13.327,31.162,13.315,31.37,13.305,31.579z"/>
	
		<linearGradient id="SVGID_46_" gradientUnits="userSpaceOnUse" x1="-388.397" y1="497.3076" x2="-383.7308" y2="497.3076" gradientTransform="matrix(-4.7343 1.8627 -1.8627 -4.7343 -870.2221 3124.9678)">
		<stop  offset="0" style="stop-color:#9DC44E"/>
		<stop  offset="1" style="stop-color:#C4D54B"/>
	</linearGradient>
	<path fill="url(#SVGID_46_)" d="M32.488,50.748c-0.071,0.15-0.146,0.3-0.223,0.448C32.342,51.048,32.417,50.898,32.488,50.748z"/>
	
		<linearGradient id="SVGID_47_" gradientUnits="userSpaceOnUse" x1="-388.4146" y1="496.8516" x2="-383.7181" y2="496.8516" gradientTransform="matrix(-4.7343 1.8627 -1.8627 -4.7343 -870.2221 3124.9678)">
		<stop  offset="0" style="stop-color:#9DC44E"/>
		<stop  offset="1" style="stop-color:#C4D54B"/>
	</linearGradient>
	<path fill="url(#SVGID_47_)" d="M29.935,54.313c-0.145,0.138-0.299,0.267-0.45,0.397C29.636,54.58,29.791,54.452,29.935,54.313z"/>
	
		<linearGradient id="SVGID_48_" gradientUnits="userSpaceOnUse" x1="-388.4111" y1="498.4043" x2="-383.6997" y2="498.4043" gradientTransform="matrix(-4.7343 1.8627 -1.8627 -4.7343 -870.2221 3124.9678)">
		<stop  offset="0" style="stop-color:#9DC44E"/>
		<stop  offset="1" style="stop-color:#C4D54B"/>
	</linearGradient>
	<path fill="url(#SVGID_48_)" d="M33.486,44.267c0.023,0.172,0.051,0.344,0.067,0.517C33.538,44.611,33.509,44.438,33.486,44.267z"
		/>
	
		<linearGradient id="SVGID_49_" gradientUnits="userSpaceOnUse" x1="-388.4092" y1="497.46" x2="-383.7137" y2="497.46" gradientTransform="matrix(-4.7343 1.8627 -1.8627 -4.7343 -870.2221 3124.9678)">
		<stop  offset="0" style="stop-color:#9DC44E"/>
		<stop  offset="1" style="stop-color:#C4D54B"/>
	</linearGradient>
	<path fill="url(#SVGID_49_)" d="M32.904,49.736c-0.056,0.155-0.114,0.308-0.176,0.46C32.791,50.044,32.849,49.891,32.904,49.736z"
		/>
	
		<linearGradient id="SVGID_50_" gradientUnits="userSpaceOnUse" x1="-388.4106" y1="497.626" x2="-383.7083" y2="497.626" gradientTransform="matrix(-4.7343 1.8627 -1.8627 -4.7343 -870.2221 3124.9678)">
		<stop  offset="0" style="stop-color:#9DC44E"/>
		<stop  offset="1" style="stop-color:#C4D54B"/>
	</linearGradient>
	<path fill="url(#SVGID_50_)" d="M33.225,48.689c-0.04,0.157-0.082,0.314-0.129,0.47C33.143,49.003,33.185,48.847,33.225,48.689z"/>
	
		<linearGradient id="SVGID_51_" gradientUnits="userSpaceOnUse" x1="-388.397" y1="497.8047" x2="-383.7317" y2="497.8047" gradientTransform="matrix(-4.7343 1.8627 -1.8627 -4.7343 -870.2221 3124.9678)">
		<stop  offset="0" style="stop-color:#9DC44E"/>
		<stop  offset="1" style="stop-color:#C4D54B"/>
	</linearGradient>
	<path fill="url(#SVGID_51_)" d="M33.448,47.614c-0.025,0.16-0.051,0.319-0.083,0.478C33.397,47.934,33.423,47.774,33.448,47.614z"
		/>
	
		<linearGradient id="SVGID_52_" gradientUnits="userSpaceOnUse" x1="-388.4126" y1="497.9941" x2="-383.7011" y2="497.9941" gradientTransform="matrix(-4.7343 1.8627 -1.8627 -4.7343 -870.2221 3124.9678)">
		<stop  offset="0" style="stop-color:#9DC44E"/>
		<stop  offset="1" style="stop-color:#C4D54B"/>
	</linearGradient>
	<path fill="url(#SVGID_52_)" d="M33.568,46.517c-0.01,0.162-0.019,0.324-0.035,0.485C33.55,46.841,33.559,46.679,33.568,46.517z"/>
	
		<linearGradient id="SVGID_53_" gradientUnits="userSpaceOnUse" x1="-388.4116" y1="498.1943" x2="-383.7002" y2="498.1943" gradientTransform="matrix(-4.7343 1.8627 -1.8627 -4.7343 -870.2221 3124.9678)">
		<stop  offset="0" style="stop-color:#9DC44E"/>
		<stop  offset="1" style="stop-color:#C4D54B"/>
	</linearGradient>
	<path fill="url(#SVGID_53_)" d="M33.583,45.403c0.006,0.165,0.015,0.33,0.014,0.494C33.598,45.732,33.589,45.567,33.583,45.403z"/>
	
		<linearGradient id="SVGID_54_" gradientUnits="userSpaceOnUse" x1="-388.3843" y1="497.0469" x2="-383.7412" y2="497.0469" gradientTransform="matrix(-4.7343 1.8627 -1.8627 -4.7343 -870.2221 3124.9678)">
		<stop  offset="0" style="stop-color:#9DC44E"/>
		<stop  offset="1" style="stop-color:#C4D54B"/>
	</linearGradient>
	<path fill="url(#SVGID_54_)" d="M31.383,52.642c-0.103,0.143-0.212,0.281-0.321,0.42C31.17,52.923,31.28,52.784,31.383,52.642z"/>
	
		<linearGradient id="SVGID_55_" gradientUnits="userSpaceOnUse" x1="-388.4194" y1="498.6289" x2="-383.6772" y2="498.6289" gradientTransform="matrix(-4.7343 1.8627 -1.8627 -4.7343 -870.2221 3124.9678)">
		<stop  offset="0" style="stop-color:#9DC44E"/>
		<stop  offset="1" style="stop-color:#C4D54B"/>
	</linearGradient>
	<path fill="url(#SVGID_55_)" d="M33.262,43.083c0.047,0.195,0.101,0.389,0.138,0.585C33.362,43.473,33.309,43.278,33.262,43.083z"
		/>
	
		<linearGradient id="SVGID_56_" gradientUnits="userSpaceOnUse" x1="-388.3843" y1="501.2246" x2="-383.7294" y2="501.2246" gradientTransform="matrix(-4.7343 1.8627 -1.8627 -4.7343 -870.2221 3124.9678)">
		<stop  offset="0" style="stop-color:#9DC44E"/>
		<stop  offset="1" style="stop-color:#C4D54B"/>
	</linearGradient>
	<path fill="url(#SVGID_56_)" d="M13.63,37.339c-0.041-0.255-0.077-0.509-0.11-0.763C13.554,36.831,13.591,37.085,13.63,37.339z"/>
	
		<linearGradient id="SVGID_57_" gradientUnits="userSpaceOnUse" x1="-388.3926" y1="497.1699" x2="-383.735" y2="497.1699" gradientTransform="matrix(-4.7343 1.8627 -1.8627 -4.7343 -870.2221 3124.9678)">
		<stop  offset="0" style="stop-color:#9DC44E"/>
		<stop  offset="1" style="stop-color:#C4D54B"/>
	</linearGradient>
	<path fill="url(#SVGID_57_)" d="M31.979,51.719c-0.086,0.146-0.178,0.291-0.271,0.435C31.802,52.01,31.894,51.865,31.979,51.719z"
		/>
	
		<linearGradient id="SVGID_58_" gradientUnits="userSpaceOnUse" x1="-388.3706" y1="498.9062" x2="-383.7977" y2="498.9062" gradientTransform="matrix(-4.7343 1.8627 -1.8627 -4.7343 -870.2221 3124.9678)">
		<stop  offset="0" style="stop-color:#9DC44E"/>
		<stop  offset="1" style="stop-color:#C4D54B"/>
	</linearGradient>
	<path fill="url(#SVGID_58_)" d="M32.75,41.461c0.148,0.363,0.274,0.729,0.383,1.098C33.024,42.19,32.897,41.824,32.75,41.461z"/>
	
		<linearGradient id="SVGID_59_" gradientUnits="userSpaceOnUse" x1="-273.9189" y1="339.5117" x2="-269.2497" y2="339.5117" gradientTransform="matrix(-1.5074 0.2225 -0.2225 -1.5074 -322.8105 613.4558)">
		<stop  offset="0" style="stop-color:#9DC44E"/>
		<stop  offset="1" style="stop-color:#C4D54B"/>
	</linearGradient>
	<path fill="url(#SVGID_59_)" d="M28.172,55.707c0.116-0.075,0.223-0.159,0.335-0.237c0.197-0.137,0.396-0.273,0.583-0.421
		c0.136-0.107,0.263-0.225,0.394-0.338c0.151-0.131,0.306-0.26,0.45-0.397c0.134-0.129,0.26-0.265,0.388-0.399
		c0.127-0.134,0.257-0.267,0.377-0.405c0.125-0.146,0.243-0.297,0.362-0.447c0.109-0.139,0.219-0.277,0.321-0.42
		c0.114-0.159,0.22-0.323,0.326-0.488c0.093-0.144,0.185-0.288,0.271-0.435c0.101-0.172,0.194-0.346,0.286-0.522
		c0.077-0.148,0.152-0.298,0.223-0.448c0.085-0.182,0.165-0.366,0.24-0.552c0.062-0.152,0.12-0.305,0.176-0.46
		c0.068-0.191,0.133-0.383,0.191-0.577c0.047-0.155,0.089-0.312,0.129-0.47c0.051-0.198,0.099-0.396,0.14-0.597
		c0.032-0.158,0.058-0.318,0.083-0.478c0.032-0.203,0.063-0.407,0.085-0.612c0.017-0.161,0.025-0.323,0.035-0.485
		c0.013-0.206,0.027-0.413,0.028-0.62c0.001-0.165-0.008-0.33-0.014-0.494c-0.007-0.207-0.012-0.413-0.03-0.62
		c-0.016-0.172-0.044-0.345-0.067-0.517c-0.027-0.2-0.049-0.399-0.087-0.598c-0.037-0.196-0.09-0.39-0.138-0.585
		c-0.043-0.175-0.078-0.351-0.129-0.525c-0.109-0.368-0.235-0.734-0.383-1.098c-3.329-8.121-18.522-10.529-17.374-18.696
		c0,0-0.046,0.054-0.068,0.086c-0.634,1.396-1.113,2.9-1.455,4.469c0.009-0.05,0.009-0.109,0.018-0.164
		c-0.018,0.091-0.032,0.191-0.055,0.283c-0.027,0.146-0.045,0.301-0.073,0.442c-0.069,0.332-0.126,0.664-0.177,0.998
		c-0.049,0.324-0.091,0.651-0.127,0.98c-0.023,0.198-0.045,0.396-0.061,0.589c-0.014,0.168-0.024,0.337-0.037,0.506
		c-0.015,0.208-0.027,0.416-0.037,0.625c-0.011,0.23-0.023,0.46-0.026,0.689c0,0.082-0.003,0.165-0.005,0.247
		c-0.013,1.003,0.03,2.021,0.128,3.049c0.012,0.091,0.02,0.184,0.032,0.275c0.023,0.246,0.055,0.492,0.087,0.737
		c0.033,0.254,0.069,0.508,0.11,0.763c0.026,0.162,0.048,0.325,0.077,0.487c0.055,0.278,0.109,0.552,0.164,0.821
		c0.119,0.602,0.265,1.195,0.429,1.801c0.021,0.087,0.049,0.175,0.071,0.263c0.061,0.217,0.118,0.435,0.185,0.651
		c0.083,0.275,0.172,0.55,0.263,0.825c0.172,0.514,0.347,1.028,0.548,1.54c0.232,0.591,0.49,1.162,0.753,1.728
		c0.096,0.204,0.191,0.41,0.29,0.612c0.15,0.305,0.313,0.6,0.472,0.897c0.265,0.488,0.532,0.969,0.812,1.432
		c0.18,0.297,0.361,0.594,0.549,0.883c0.315,0.473,0.639,0.929,0.97,1.382c0.17,0.229,0.332,0.472,0.507,0.694
		c0.019,0.024,0.04,0.047,0.059,0.071c0.367,0.463,0.749,0.905,1.137,1.339c0.084,0.094,0.167,0.19,0.252,0.283
		c0.258,0.279,0.528,0.54,0.795,0.806c0.336,0.331,0.674,0.658,1.027,0.971c0.081,0.073,0.16,0.142,0.239,0.213
		c0.142,0.123,0.283,0.25,0.426,0.37c0.432,0.356,0.875,0.7,1.319,1.028c0.224,0.164,0.442,0.341,0.669,0.496
		c0.142-0.055,0.292-0.092,0.429-0.15C26.821,56.49,27.521,56.126,28.172,55.707z M19.781,48.196
		c-0.155-0.219-0.292-0.447-0.438-0.688c-0.301-0.488-0.58-0.985-0.848-1.491l-0.365-0.688c-0.364-0.739-0.711-1.496-1.021-2.28
		c-0.31-0.793-0.565-1.577-0.802-2.371l-0.201-0.72c-0.15-0.561-0.283-1.127-0.401-1.683c-0.05-0.26-0.105-0.511-0.15-0.775
		c-0.109-0.62-0.196-1.236-0.26-1.852l-0.064-0.483c-0.063-0.766-0.091-1.519-0.096-2.271l0.018-0.588
		c0.009-0.565,0.041-1.126,0.087-1.674c0.027-0.223,0.045-0.442,0.073-0.67c0.046-0.356,0.082-0.702,0.146-1.044
		c1.77,2.152,4.473,3.876,7.132,5.568c1.947,1.247,3.932,2.515,5.534,3.931c-1.243-1.308-2.785-2.461-4.416-3.538l0,0
		c3.352,1.896,6.684,3.935,7.929,6.967c1.888,4.592-0.219,9.886-4.651,12.828c0.573-0.491,1.086-1.034,1.55-1.613
		c-0.654,0.61-1.396,1.142-2.224,1.567l-0.374,0.191c-0.378-0.287-0.762-0.583-1.145-0.903c-0.187-0.159-0.37-0.31-0.552-0.474
		c-0.396-0.355-0.779-0.726-1.158-1.118l-0.47-0.469c-0.502-0.547-1.003-1.112-1.473-1.724l-0.31-0.429
		C20.46,49.218,20.109,48.716,19.781,48.196z"/>
	
		<linearGradient id="SVGID_60_" gradientUnits="userSpaceOnUse" x1="-388.3979" y1="500.1943" x2="-383.7284" y2="500.1943" gradientTransform="matrix(-4.7343 1.8627 -1.8627 -4.7343 -870.2221 3124.9678)">
		<stop  offset="0" style="stop-color:#9DC44E"/>
		<stop  offset="1" style="stop-color:#C4D54B"/>
	</linearGradient>
	<path fill="url(#SVGID_60_)" d="M28.172,55.707c0.116-0.075,0.223-0.159,0.335-0.237c0.197-0.137,0.396-0.273,0.583-0.421
		c0.136-0.107,0.263-0.225,0.394-0.338c0.151-0.131,0.306-0.26,0.45-0.397c0.134-0.129,0.26-0.265,0.388-0.399
		c0.127-0.134,0.257-0.267,0.377-0.405c0.125-0.146,0.243-0.297,0.362-0.447c0.109-0.139,0.219-0.277,0.321-0.42
		c0.114-0.159,0.22-0.323,0.326-0.488c0.093-0.144,0.185-0.288,0.271-0.435c0.101-0.172,0.194-0.346,0.286-0.522
		c0.077-0.148,0.152-0.298,0.223-0.448c0.085-0.182,0.165-0.366,0.24-0.552c0.062-0.152,0.12-0.305,0.176-0.46
		c0.068-0.191,0.133-0.383,0.191-0.577c0.047-0.155,0.089-0.312,0.129-0.47c0.051-0.198,0.099-0.396,0.14-0.597
		c0.032-0.158,0.058-0.318,0.083-0.478c0.032-0.203,0.063-0.407,0.085-0.612c0.017-0.161,0.025-0.323,0.035-0.485
		c0.013-0.206,0.027-0.413,0.028-0.62c0.001-0.165-0.008-0.33-0.014-0.494c-0.007-0.207-0.012-0.413-0.03-0.62
		c-0.016-0.172-0.044-0.345-0.067-0.517c-0.027-0.2-0.049-0.399-0.087-0.598c-0.037-0.196-0.09-0.39-0.138-0.585
		c-0.043-0.175-0.078-0.351-0.129-0.525c-0.109-0.368-0.235-0.734-0.383-1.098c-3.329-8.121-18.522-10.529-17.374-18.696
		c0,0-0.046,0.054-0.068,0.086c-0.634,1.396-1.113,2.9-1.455,4.469c0.009-0.05,0.009-0.109,0.018-0.164
		c-0.018,0.091-0.032,0.191-0.055,0.283c-0.027,0.146-0.045,0.301-0.073,0.442c-0.069,0.332-0.126,0.664-0.177,0.998
		c-0.049,0.324-0.091,0.651-0.127,0.98c-0.023,0.198-0.045,0.396-0.061,0.589c-0.014,0.168-0.024,0.337-0.037,0.506
		c-0.015,0.208-0.027,0.416-0.037,0.625c-0.011,0.23-0.023,0.46-0.026,0.689c0,0.082-0.003,0.165-0.005,0.247
		c-0.013,1.003,0.03,2.021,0.128,3.049c0.012,0.091,0.02,0.184,0.032,0.275c0.023,0.246,0.055,0.492,0.087,0.737
		c0.033,0.254,0.069,0.508,0.11,0.763c0.026,0.162,0.048,0.325,0.077,0.487c0.055,0.278,0.109,0.552,0.164,0.821
		c0.119,0.602,0.265,1.195,0.429,1.801c0.021,0.087,0.049,0.175,0.071,0.263c0.061,0.217,0.118,0.435,0.185,0.651
		c0.083,0.275,0.172,0.55,0.263,0.825c0.172,0.514,0.347,1.028,0.548,1.54c0.232,0.591,0.49,1.162,0.753,1.728
		c0.096,0.204,0.191,0.41,0.29,0.612c0.15,0.305,0.313,0.6,0.472,0.897c0.265,0.488,0.532,0.969,0.812,1.432
		c0.18,0.297,0.361,0.594,0.549,0.883c0.315,0.473,0.639,0.929,0.97,1.382c0.17,0.229,0.332,0.472,0.507,0.694
		c0.019,0.024,0.04,0.047,0.059,0.071c0.367,0.463,0.749,0.905,1.137,1.339c0.084,0.094,0.167,0.19,0.252,0.283
		c0.258,0.279,0.528,0.54,0.795,0.806c0.336,0.331,0.674,0.658,1.027,0.971c0.081,0.073,0.16,0.142,0.239,0.213
		c0.142,0.123,0.283,0.25,0.426,0.37c0.432,0.356,0.875,0.7,1.319,1.028c0.224,0.164,0.442,0.341,0.669,0.496
		c0.142-0.055,0.292-0.092,0.429-0.15C26.821,56.49,27.521,56.126,28.172,55.707z M19.781,48.196
		c-0.155-0.219-0.292-0.447-0.438-0.688c-0.301-0.488-0.58-0.985-0.848-1.491l-0.365-0.688c-0.364-0.739-0.711-1.496-1.021-2.28
		c-0.31-0.793-0.565-1.577-0.802-2.371l-0.201-0.72c-0.15-0.561-0.283-1.127-0.401-1.683c-0.05-0.26-0.105-0.511-0.15-0.775
		c-0.109-0.62-0.196-1.236-0.26-1.852l-0.064-0.483c-0.063-0.766-0.091-1.519-0.096-2.271l0.018-0.588
		c0.009-0.565,0.041-1.126,0.087-1.674c0.027-0.223,0.045-0.442,0.073-0.67c0.046-0.356,0.082-0.702,0.146-1.044
		c1.77,2.152,4.473,3.876,7.132,5.568c1.947,1.247,3.932,2.515,5.534,3.931c-1.243-1.308-2.785-2.461-4.416-3.538l0,0
		c3.352,1.896,6.684,3.935,7.929,6.967c1.888,4.592-0.219,9.886-4.651,12.828c0.573-0.491,1.086-1.034,1.55-1.613
		c-0.654,0.61-1.396,1.142-2.224,1.567l-0.374,0.191c-0.378-0.287-0.762-0.583-1.145-0.903c-0.187-0.159-0.37-0.31-0.552-0.474
		c-0.396-0.355-0.779-0.726-1.158-1.118l-0.47-0.469c-0.502-0.547-1.003-1.112-1.473-1.724l-0.31-0.429
		C20.46,49.218,20.109,48.716,19.781,48.196z"/>
	
		<linearGradient id="SVGID_61_" gradientUnits="userSpaceOnUse" x1="-273.9189" y1="338.1836" x2="-269.2496" y2="338.1836" gradientTransform="matrix(-1.5074 0.2225 -0.2225 -1.5074 -322.8105 613.4558)">
		<stop  offset="0" style="stop-color:#9DC44E"/>
		<stop  offset="1" style="stop-color:#C4D54B"/>
	</linearGradient>
	<path fill="url(#SVGID_61_)" d="M21.14,50.13c0.47,0.611,0.971,1.177,1.473,1.724l0.47,0.469c0.378,0.393,0.761,0.763,1.158,1.118
		c0.183,0.164,0.365,0.314,0.552,0.474c0.383,0.32,0.766,0.616,1.145,0.903l0.374-0.191c0.828-0.426,1.57-0.957,2.224-1.567
		c2.535-3.161,3.38-7.48,1.761-11.424c-0.484-1.189-1.248-2.246-2.172-3.219c-1.602-1.416-3.587-2.684-5.534-3.931
		c-2.659-1.692-5.362-3.416-7.132-5.568c-0.064,0.342-0.1,0.688-0.146,1.044c-0.027,0.228-0.045,0.447-0.073,0.67
		c-0.046,0.547-0.078,1.108-0.087,1.674l-0.018,0.588c0.004,0.752,0.032,1.505,0.096,2.271l0.064,0.483
		c0.064,0.616,0.15,1.231,0.26,1.852c0.045,0.264,0.1,0.515,0.15,0.775c0.119,0.556,0.251,1.122,0.401,1.683l0.201,0.72
		c0.237,0.794,0.492,1.578,0.802,2.371c0.311,0.784,0.657,1.542,1.021,2.28l0.365,0.688c0.269,0.506,0.547,1.003,0.848,1.491
		c0.146,0.242,0.283,0.47,0.438,0.688c0.328,0.52,0.679,1.021,1.049,1.504L21.14,50.13z"/>
	
		<linearGradient id="SVGID_62_" gradientUnits="userSpaceOnUse" x1="-388.3975" y1="499.8145" x2="-383.7285" y2="499.8145" gradientTransform="matrix(-4.7343 1.8627 -1.8627 -4.7343 -870.2221 3124.9678)">
		<stop  offset="0" style="stop-color:#9DC44E"/>
		<stop  offset="1" style="stop-color:#C4D54B"/>
	</linearGradient>
	<path fill="url(#SVGID_62_)" d="M21.14,50.13c0.47,0.611,0.971,1.177,1.473,1.724l0.47,0.469c0.378,0.393,0.761,0.763,1.158,1.118
		c0.183,0.164,0.365,0.314,0.552,0.474c0.383,0.32,0.766,0.616,1.145,0.903l0.374-0.191c0.828-0.426,1.57-0.957,2.224-1.567
		c2.535-3.161,3.38-7.48,1.761-11.424c-0.484-1.189-1.248-2.246-2.172-3.219c-1.602-1.416-3.587-2.684-5.534-3.931
		c-2.659-1.692-5.362-3.416-7.132-5.568c-0.064,0.342-0.1,0.688-0.146,1.044c-0.027,0.228-0.045,0.447-0.073,0.67
		c-0.046,0.547-0.078,1.108-0.087,1.674l-0.018,0.588c0.004,0.752,0.032,1.505,0.096,2.271l0.064,0.483
		c0.064,0.616,0.15,1.231,0.26,1.852c0.045,0.264,0.1,0.515,0.15,0.775c0.119,0.556,0.251,1.122,0.401,1.683l0.201,0.72
		c0.237,0.794,0.492,1.578,0.802,2.371c0.311,0.784,0.657,1.542,1.021,2.28l0.365,0.688c0.269,0.506,0.547,1.003,0.848,1.491
		c0.146,0.242,0.283,0.47,0.438,0.688c0.328,0.52,0.679,1.021,1.049,1.504L21.14,50.13z"/>
	
		<linearGradient id="SVGID_63_" gradientUnits="userSpaceOnUse" x1="-534.8696" y1="664.543" x2="-530.2015" y2="664.543" gradientTransform="matrix(2.9177 -0.2504 0.2504 2.9177 1411.5966 -2030.7173)">
		<stop  offset="0" style="stop-color:#DDE599"/>
		<stop  offset="0.0123" style="stop-color:#DDE599"/>
		<stop  offset="0.2699" style="stop-color:#C4D54B"/>
		<stop  offset="1" style="stop-color:#9DC44E"/>
	</linearGradient>
	<path fill="url(#SVGID_63_)" d="M21.14,50.13c0.47,0.611,0.971,1.177,1.473,1.724l0.47,0.469c0.378,0.393,0.761,0.763,1.158,1.118
		c0.183,0.164,0.365,0.314,0.552,0.474c0.383,0.32,0.766,0.616,1.145,0.903l0.374-0.191c0.828-0.426,1.57-0.957,2.224-1.567
		c2.535-3.161,3.38-7.48,1.761-11.424c-0.484-1.189-1.248-2.246-2.172-3.219c-1.602-1.416-3.587-2.684-5.534-3.931
		c-2.659-1.692-5.362-3.416-7.132-5.568c-0.064,0.342-0.1,0.688-0.146,1.044c-0.027,0.228-0.045,0.447-0.073,0.67
		c-0.046,0.547-0.078,1.108-0.087,1.674l-0.018,0.588c0.004,0.752,0.032,1.505,0.096,2.271l0.064,0.483
		c0.064,0.616,0.15,1.231,0.26,1.852c0.045,0.264,0.1,0.515,0.15,0.775c0.119,0.556,0.251,1.122,0.401,1.683l0.201,0.72
		c0.237,0.794,0.492,1.578,0.802,2.371c0.311,0.784,0.657,1.542,1.021,2.28l0.365,0.688c0.269,0.506,0.547,1.003,0.848,1.491
		c0.146,0.242,0.283,0.47,0.438,0.688c0.328,0.52,0.679,1.021,1.049,1.504L21.14,50.13z"/>
	
		<linearGradient id="SVGID_64_" gradientUnits="userSpaceOnUse" x1="-273.9189" y1="335.8506" x2="-269.2496" y2="335.8506" gradientTransform="matrix(-1.5074 0.2225 -0.2225 -1.5074 -322.8105 613.4558)">
		<stop  offset="0" style="stop-color:#9DC44E"/>
		<stop  offset="1" style="stop-color:#C4D54B"/>
	</linearGradient>
	<path fill="url(#SVGID_64_)" d="M31.021,42.177c1.547,3.796,0.449,8.145-2.486,10.881c-0.464,0.579-0.977,1.122-1.55,1.613
		c4.433-2.941,6.54-8.236,4.651-12.828c-1.245-3.032-4.577-5.07-7.929-6.967l0,0c1.631,1.077,3.173,2.229,4.416,3.538
		C29.411,39.552,30.45,40.784,31.021,42.177z"/>
	
		<linearGradient id="SVGID_65_" gradientUnits="userSpaceOnUse" x1="-388.3975" y1="498.9473" x2="-383.7292" y2="498.9473" gradientTransform="matrix(-4.7343 1.8627 -1.8627 -4.7343 -870.2221 3124.9678)">
		<stop  offset="0" style="stop-color:#9DC44E"/>
		<stop  offset="1" style="stop-color:#C4D54B"/>
	</linearGradient>
	<path fill="url(#SVGID_65_)" d="M31.021,42.177c1.547,3.796,0.449,8.145-2.486,10.881c-0.464,0.579-0.977,1.122-1.55,1.613
		c4.433-2.941,6.54-8.236,4.651-12.828c-1.245-3.032-4.577-5.07-7.929-6.967l0,0c1.631,1.077,3.173,2.229,4.416,3.538
		C29.411,39.552,30.45,40.784,31.021,42.177z"/>
	
		<linearGradient id="SVGID_66_" gradientUnits="userSpaceOnUse" x1="-445.6729" y1="607.1426" x2="-441.0038" y2="607.1426" gradientTransform="matrix(5.8017 4.2444 -4.2444 5.8017 5180.731 -1591.5702)">
		<stop  offset="0" style="stop-color:#9FBF4C"/>
		<stop  offset="0.3463" style="stop-color:#9FBF4C"/>
		<stop  offset="1" style="stop-color:#5E8948"/>
	</linearGradient>
	<path fill="url(#SVGID_66_)" d="M31.021,42.177c1.547,3.796,0.449,8.145-2.486,10.881c-0.464,0.579-0.977,1.122-1.55,1.613
		c4.433-2.941,6.54-8.236,4.651-12.828c-1.245-3.032-4.577-5.07-7.929-6.967l0,0c1.631,1.077,3.173,2.229,4.416,3.538
		C29.411,39.552,30.45,40.784,31.021,42.177z"/>
	
		<linearGradient id="SVGID_67_" gradientUnits="userSpaceOnUse" x1="-273.9185" y1="334.9395" x2="-269.249" y2="334.9395" gradientTransform="matrix(-1.5074 0.2225 -0.2225 -1.5074 -322.8105 613.4558)">
		<stop  offset="0" style="stop-color:#9DC44E"/>
		<stop  offset="1" style="stop-color:#C4D54B"/>
	</linearGradient>
	<path fill="url(#SVGID_67_)" d="M28.535,53.059c2.935-2.736,4.034-7.085,2.486-10.881c-0.571-1.393-1.611-2.625-2.897-3.762
		c0.925,0.974,1.688,2.03,2.172,3.219C31.916,45.578,31.07,49.898,28.535,53.059z"/>
	
		<linearGradient id="SVGID_68_" gradientUnits="userSpaceOnUse" x1="-388.3975" y1="498.5566" x2="-383.7293" y2="498.5566" gradientTransform="matrix(-4.7343 1.8627 -1.8627 -4.7343 -870.2221 3124.9678)">
		<stop  offset="0" style="stop-color:#9DC44E"/>
		<stop  offset="1" style="stop-color:#C4D54B"/>
	</linearGradient>
	<path fill="url(#SVGID_68_)" d="M28.535,53.059c2.935-2.736,4.034-7.085,2.486-10.881c-0.571-1.393-1.611-2.625-2.897-3.762
		c0.925,0.974,1.688,2.03,2.172,3.219C31.916,45.578,31.07,49.898,28.535,53.059z"/>
	
		<linearGradient id="SVGID_69_" gradientUnits="userSpaceOnUse" x1="-534.8706" y1="666.082" x2="-530.2008" y2="666.082" gradientTransform="matrix(2.9177 -0.2504 0.2504 2.9177 1411.5966 -2030.7173)">
		<stop  offset="0" style="stop-color:#DDE599"/>
		<stop  offset="0.0123" style="stop-color:#DDE599"/>
		<stop  offset="0.2699" style="stop-color:#C4D54B"/>
		<stop  offset="1" style="stop-color:#9DC44E"/>
	</linearGradient>
	<path fill="url(#SVGID_69_)" d="M28.535,53.059c2.935-2.736,4.034-7.085,2.486-10.881c-0.571-1.393-1.611-2.625-2.897-3.762
		c0.925,0.974,1.688,2.03,2.172,3.219C31.916,45.578,31.07,49.898,28.535,53.059z"/>
	
		<linearGradient id="SVGID_70_" gradientUnits="userSpaceOnUse" x1="-445.6729" y1="607.0293" x2="-441.0051" y2="607.0293" gradientTransform="matrix(5.8017 4.2444 -4.2444 5.8017 5180.731 -1591.5702)">
		<stop  offset="0" style="stop-color:#9FBF4C"/>
		<stop  offset="0.3463" style="stop-color:#9FBF4C"/>
		<stop  offset="1" style="stop-color:#5E8948"/>
	</linearGradient>
	<path fill="url(#SVGID_70_)" d="M28.535,53.059c2.935-2.736,4.034-7.085,2.486-10.881c-0.571-1.393-1.611-2.625-2.897-3.762
		c0.925,0.974,1.688,2.03,2.172,3.219C31.916,45.578,31.07,49.898,28.535,53.059z"/>
	
		<linearGradient id="SVGID_71_" gradientUnits="userSpaceOnUse" x1="-60.2676" y1="554.2588" x2="-55.5991" y2="554.2588" gradientTransform="matrix(-0.5608 0.9441 0.9441 0.5608 -535.7347 -192.9257)">
		<stop  offset="0" style="stop-color:#9DC44E"/>
		<stop  offset="1" style="stop-color:#C4D54B"/>
	</linearGradient>
	<path fill="url(#SVGID_71_)" d="M18.782,63.468c2.002-0.821,4.086-1.271,6.142-1.345c-0.871-0.521-1.878-0.799-2.914-0.799
		c-0.707,0-1.427,0.133-2.125,0.406l-0.155,0.063c-2.758,1.14-4.628,2.892-5.9,4.697C15.275,65.246,16.949,64.221,18.782,63.468z"/>
	
		<linearGradient id="SVGID_72_" gradientUnits="userSpaceOnUse" x1="-463.522" y1="517.0381" x2="-458.8525" y2="517.0381" gradientTransform="matrix(11.5082 1.6248 1.6248 -11.5082 4531.1533 6739.9297)">
		<stop  offset="0" style="stop-color:#8B5443"/>
		<stop  offset="0.1893" style="stop-color:#824B3B"/>
		<stop  offset="0.4969" style="stop-color:#6A3324"/>
		<stop  offset="0.5395" style="stop-color:#662F20"/>
		<stop  offset="1" style="stop-color:#593029"/>
	</linearGradient>
	<path fill="url(#SVGID_72_)" d="M66.534,29.463l-0.004,0.073l0.25-1.815c0.548,0.083,1.104,0.16,1.656,0.237
		c0.748,0.091,1.194-0.392,1.008-1.044c-0.196-0.671-0.743-1.464-1.264-1.692c-1.09-0.451-2.257-0.675-3.434-0.675
		c-0.319,0-0.633,0.019-0.952,0.055c-0.565,0.082-1.313,0.684-1.679,1.272c-0.365,0.583-0.073,1.167,0.675,1.291
		c0.547,0.073,1.1,0.155,1.646,0.228l-0.25,1.811c-14.378-1.4-27.442,8.769-29.485,23.215l8.027,1.133
		C45.012,42.678,54.064,34.078,66.534,29.463z"/>
	
		<linearGradient id="SVGID_73_" gradientUnits="userSpaceOnUse" x1="-443.7319" y1="618.5527" x2="-439.0629" y2="618.5527" gradientTransform="matrix(-5.5931 -2.0054 -2.0054 5.5931 -1170.7947 -4289.791)">
		<stop  offset="0" style="stop-color:#8B5443"/>
		<stop  offset="0.1893" style="stop-color:#824B3B"/>
		<stop  offset="0.4969" style="stop-color:#6A3324"/>
		<stop  offset="0.5395" style="stop-color:#662F20"/>
		<stop  offset="1" style="stop-color:#593029"/>
	</linearGradient>
	<polygon fill="url(#SVGID_73_)" points="42.728,53.552 42.727,53.555 78.136,58.553 	"/>
	
		<linearGradient id="SVGID_74_" gradientUnits="userSpaceOnUse" x1="-463.5249" y1="516.8359" x2="-458.8549" y2="516.8359" gradientTransform="matrix(11.5082 1.6248 1.6248 -11.5082 4531.1533 6739.9297)">
		<stop  offset="0" style="stop-color:#8B5443"/>
		<stop  offset="0.1893" style="stop-color:#824B3B"/>
		<stop  offset="0.4969" style="stop-color:#6A3324"/>
		<stop  offset="0.5395" style="stop-color:#662F20"/>
		<stop  offset="1" style="stop-color:#593029"/>
	</linearGradient>
	<path fill="url(#SVGID_74_)" d="M66.53,29.537l0.004-0.073c-12.47,4.615-21.522,13.214-23.806,24.088l35.408,5.001
		c1.309-10.133-2.203-19.723-8.642-26.718c9.539,5.326,15.363,16.015,13.918,27.461l5.024,0.711
		C90.471,45.561,80.739,32.172,66.53,29.537z"/>
	
		<linearGradient id="SVGID_75_" gradientUnits="userSpaceOnUse" x1="-443.7324" y1="616.5537" x2="-439.0631" y2="616.5537" gradientTransform="matrix(-5.5931 -2.0054 -2.0054 5.5931 -1170.7947 -4289.791)">
		<stop  offset="0" style="stop-color:#8B5443"/>
		<stop  offset="0.1893" style="stop-color:#824B3B"/>
		<stop  offset="0.4969" style="stop-color:#6A3324"/>
		<stop  offset="0.5395" style="stop-color:#662F20"/>
		<stop  offset="1" style="stop-color:#593029"/>
	</linearGradient>
	<path fill="url(#SVGID_75_)" d="M66.53,29.537l0.004-0.073c-12.47,4.615-21.522,13.214-23.806,24.088l35.408,5.001
		c1.309-10.133-2.203-19.723-8.642-26.718c9.539,5.326,15.363,16.015,13.918,27.461l5.024,0.711
		C90.471,45.561,80.739,32.172,66.53,29.537z"/>
	
		<linearGradient id="SVGID_76_" gradientUnits="userSpaceOnUse" x1="-434.1895" y1="617.1992" x2="-429.5205" y2="617.1992" gradientTransform="matrix(-5.8179 -1.2037 -1.2037 5.8179 -1712.8516 -4049.5684)">
		<stop  offset="0" style="stop-color:#8B5443"/>
		<stop  offset="0.1893" style="stop-color:#824B3B"/>
		<stop  offset="0.4969" style="stop-color:#6A3324"/>
		<stop  offset="0.5395" style="stop-color:#662F20"/>
		<stop  offset="1" style="stop-color:#593029"/>
	</linearGradient>
	<path fill="url(#SVGID_76_)" d="M90.233,61.881H42.275l-0.003,0.016c0.019,0.793,0.077,1.571,0.163,2.352h47.799
		c0.657,0,1.186-0.538,1.186-1.182C91.419,62.405,90.891,61.881,90.233,61.881z"/>
</g>
</svg>
