<?xml version="1.0" encoding="utf-8"?>
<!-- Generator: Adobe Illustrator 18.1.0, SVG Export Plug-In . SVG Version: 6.00 Build 0)  -->
<svg version="1.1" id="Layer_1" xmlns="http://www.w3.org/2000/svg" xmlns:xlink="http://www.w3.org/1999/xlink" x="0px" y="0px"
	 viewBox="0 0 150 150" enable-background="new 0 0 150 150" xml:space="preserve">
<g>
	<path fill="none" d="M36.4,30.6c-4.3-8.5-9.2-18.2-14.6-19.4c-1.6-0.4-3.2,0-4.8,1.2c-0.9,0.7-1.5,1.4-1.8,2.1
		c-0.2,0.4-0.3,0.9-0.3,1.4c0,5.1,9.5,12.1,17.9,18.4c3.2,2.3,6.3,4.6,8.8,6.8l0.3-0.3C40.2,38.1,38.3,34.4,36.4,30.6z"/>
	<path fill="none" d="M42.6,41.6l-0.1,0.1c0.1,0.1,0.2,0.1,0.2,0.2l0.1-0.1C42.7,41.8,42.6,41.7,42.6,41.6z"/>
	<path fill="none" d="M46.7,46.3c0.1,0.1,0.1,0.2,0.2,0.3l0.1-0.1C46.9,46.4,46.9,46.3,46.7,46.3L46.7,46.3z"/>
	<path fill="none" d="M53,52.2c0.5,1,1.1,2.1,1.7,3.4c0.3-0.3,0.5-0.5,0.8-0.7C54.8,53.9,53.9,53.1,53,52.2z"/>
	<path fill="none" d="M108.1,82.2c3.7,3.9,6.4,6.8,8.9,11.2c1.2,2.1,1.7,5.3,1.6,6.8c0.3-0.8,1.7-3.1,0.9-5.1
		c2.6,3.4,3.5,7.8,3,12.3l6.4-6.6c-0.3-1.6-1.1-3.1-2.3-4.4l-21.3-21.7C105.2,77.3,106.2,80.2,108.1,82.2z"/>
	<path fill="none" d="M104.2,73.5l-6.1-6.2c0,4.1,2,8.1,4.5,11.9C102.5,77.8,102.9,75.6,104.2,73.5z"/>
	<path fill="#EC2227" d="M54.7,55.6c-0.3,0.3-0.5,0.6-0.8,0.9c-0.9,1.2-1.6,2.7-1.8,4.3c1.1-1.8,2.8-3.2,4.9-3.9
		c-0.4-0.7-0.9-1.4-1.5-2.1C55.2,55.1,54.9,55.3,54.7,55.6z"/>
	<path fill="#EC2227" d="M132.6,94.5l-33-33c0.7-1.3,1.7-2.6,3.1-3.9c-1.7,0.9-3.1,1.8-4.2,2.8l-1.2-1.1C93.9,55.8,86.9,53,82,53H61
		c-1.7,0-3.3,0.4-4.6,1.2c0.7,0.8,1.3,1.8,1.8,2.6c0.4-0.1,0.8,0.1,1.2,0.1h19.7c4.6,0,11.1,2.5,14.4,5.9l1.8,1.8
		c-0.4,0.7-0.8,1.5-1.1,2.3c-1.8,4.7-1.1,8.8-0.6,12.8c1.4-1.9,3.4-3.7,5.4-5.1c-1.7,2.9-1.7,5.3-1.7,7.3c0.2,4.9,3.7,8.2,6.9,11.7
		c5.9,6.8,11.9,14.5,7.4,24.4c-0.1,0.3-0.3,0.6-0.4,0.9l-5.7,5.8c-3.1,3.2-8.7,3.8-12.4,1.3l-1.3-0.9c-4.7-4.2-6.5-11.4-3.2-16.8
		c1.8-2.9,3.8-4.7,6.7-5.6c-1.6,1.5-1.6,4.9-0.4,6.3c3,3.5,7.1-0.2,5.3-4.5c-2.9-6.8-7.2-9.7-8.6-14.1c-1.2,0.7-2.8,0.6-4.4-0.6
		c-1.5-1.1-2.5-2.4-3.4-3.9c0.8,1.8,1.6,3.9,1.4,6.5c-0.3,3.1-2.4,7.5-3.3,11.2c-1.3,5.3-1.8,10.5,0.4,14.8L68.1,109l24.7,24.7
		c2.1,2.1,5,2.9,7.8,2.5c2.1-0.1,4.2-1,5.9-2.6l26.3-26.3C136.1,103.8,136.1,98,132.6,94.5z M98.1,67.3l6.1,6.2
		c0.5-0.8,1.1-1.7,1.9-2.4c-0.5,1-0.8,2.2-0.8,3.5l21.3,21.7c1.2,1.2,2,2.8,2.3,4.4l-6.4,6.6l-6.2,6.4c3.1-11.2-3.9-20.9-10.3-29.7
		c-1.1-1.6-2.3-3.2-3.4-4.8C100.1,75.4,98,71.4,98.1,67.3z"/>
	<path fill="#F9EC23" d="M102.6,79.2c1.1,1.7,2.3,3.3,3.4,4.8c6.4,8.8,13.4,18.5,10.3,29.7l6.2-6.4c0.5-4.5-0.4-8.9-3-12.3
		c0.8,2-0.6,4.4-0.9,5.1c0.1-1.5-0.4-4.7-1.6-6.8c-2.5-4.4-5.2-7.3-8.9-11.2c-1.9-2-2.8-4.9-2.8-7.5c0-1.3,0.3-2.5,0.8-3.5
		c-0.8,0.7-1.4,1.5-1.9,2.4C102.9,75.6,102.5,77.8,102.6,79.2z"/>
	<path fill="#F69127" d="M94.9,109.1c-1.2-1.4-1.2-4.8,0.4-6.3c-2.9,0.9-4.9,2.7-6.7,5.6c-3.3,5.4-1.5,12.6,3.2,16.8l1.3,0.9
		c3.7,2.5,9.3,2,12.4-1.3l5.7-5.8c0.2-0.3,0.3-0.6,0.4-0.9c4.5-9.8-1.5-17.6-7.4-24.4c-3.1-3.5-6.7-6.8-6.9-11.7
		c0-1.9,0-4.4,1.7-7.3c-2.1,1.4-4,3.1-5.4,5.1c-1,1.4-1.8,2.8-2.1,4.3c-0.7,2.7-0.5,4.7,0.1,6.5c1.4,4.4,5.8,7.3,8.6,14.1
		C102,108.9,97.9,112.6,94.9,109.1z"/>
	<path fill="#EC2227" d="M59.2,61.2c-0.2,0-0.3,0-0.4-0.1c-0.6,0.4-1.1,1-1.4,1.7c-0.8,2,0.1,4.2,2,5.1c2,0.8,4.2-0.1,5.1-2
		c0.8-2-0.1-4.2-2-5.1c-0.9-0.4-1.9-0.4-2.8-0.1c0,0.1,0,0.1,0,0.2C59.6,61.1,59.4,61.2,59.2,61.2z"/>
	<path fill="#1A1A1A" d="M51.1,48.9c-0.2-0.1-0.3-0.3-0.5-0.5c-0.6-0.7-0.9-1.1-1-1.1c-0.1-0.1-0.2-0.1-0.4-0.1
		c-0.2-0.2-0.4-0.4-0.7-0.6l0.6-0.5c0.1-0.1,0.1-0.1,0.2-0.2c0.1-0.2,0-0.4-0.1-0.6C49,45,48.7,45,48.5,45.2l-0.7,0.6
		c-0.1-0.1-0.1-0.1-0.2-0.2l1-0.9c0.1-0.1,0.1-0.1,0.1-0.2c0.1-0.2,0-0.4-0.1-0.6c-0.2-0.2-0.5-0.3-0.8-0.1l-1.1,0.9c0,0,0,0,0,0
		l0.7-0.6c0.1-0.1,0.1-0.1,0.1-0.2c0.1-0.2,0-0.4-0.1-0.6c-0.2-0.2-0.5-0.3-0.8-0.1L46.1,44c-0.1-0.1-0.1-0.1-0.2-0.2l0.7-0.6
		c0.1-0.1,0.1-0.1,0.1-0.2c0.1-0.2,0-0.4-0.1-0.6c-0.2-0.2-0.5-0.3-0.8-0.1L45.2,43c0,0,0,0-0.1-0.1l0.9-0.8
		c0.1-0.1,0.1-0.1,0.2-0.2c0.1-0.2,0-0.4-0.1-0.6c-0.2-0.2-0.5-0.3-0.8-0.1l-0.9,0.8c0,0-0.1-0.1-0.1-0.2l0.9-0.7
		c0.1-0.1,0.1-0.1,0.2-0.2c0.1-0.2,0-0.4-0.1-0.6c-0.2-0.2-0.5-0.3-0.8-0.1l-0.8,0.7c-0.1-0.1-0.1-0.2-0.2-0.2l0.5-0.5
		c0.1-0.1,0.1-0.1,0.2-0.2c0.1-0.2,0-0.4-0.1-0.6c-0.2-0.2-0.5-0.3-0.8-0.1L42.8,40c-1.7-2.6-3.5-6.2-5.4-9.9
		c-4.4-8.7-9.5-18.6-15.3-20c-1.9-0.5-3.8,0-5.7,1.4c-1.7,1.2-2.5,2.7-2.5,4.4c0,5.6,9.3,12.5,18.4,19.2c3.1,2.3,6.1,4.5,8.6,6.6
		l-0.4,0.3c-0.2,0.2-0.3,0.5-0.1,0.8c0.2,0.2,0.5,0.3,0.8,0.1l0.5-0.4c0.1,0.1,0.1,0.1,0.2,0.2l-0.9,0.8c-0.2,0.2-0.3,0.5-0.1,0.8
		c0.2,0.2,0.5,0.3,0.8,0.1l1-0.9c0,0,0.1,0.1,0.1,0.1l-1,0.9c-0.2,0.2-0.3,0.5-0.1,0.8c0.2,0.2,0.5,0.3,0.8,0.1l1.1-0.9
		c0,0,0,0,0.1,0.1L43,44.8c-0.2,0.2-0.3,0.5-0.1,0.8c0.2,0.2,0.5,0.3,0.8,0.1l0.7-0.6c0,0.1,0.1,0.1,0.2,0.2l-0.5,0.4
		c-0.2,0.2-0.3,0.5-0.1,0.8c0.2,0.2,0.5,0.3,0.8,0.1l0.5-0.4c0,0,0,0,0,0l-0.8,0.7c-0.2,0.2-0.3,0.5-0.1,0.8
		c0.2,0.2,0.5,0.3,0.8,0.1l0.8-0.7c0,0.1,0.1,0.2,0.1,0.2c0,0,0,0,0,0l-0.7,0.6c-0.2,0.2-0.3,0.5-0.1,0.8c0.2,0.2,0.5,0.3,0.8,0.1
		l1.7-1.5c0.7,0.7,1.4,1.3,2,1.9c0.9,1.2,2.4,3.5,4.1,7.3c0.2-0.3,0.5-0.6,0.8-0.9c-0.6-1.3-1.1-2.4-1.7-3.4
		c0.9,0.9,1.8,1.8,2.5,2.7c0.6,0.7,1.1,1.4,1.5,2.1c0.8,1.2,1.3,2.5,1.6,3.9c0,0.1,0.1,0.2,0.2,0.3c0.1,0.1,0.3,0.1,0.4,0.1
		c0.2,0,0.3-0.2,0.4-0.3c0-0.1,0-0.1,0-0.2c0,0,0-0.1,0-0.1c-0.3-1.4-0.8-2.7-1.5-4c-0.5-0.8-1.1-1.6-1.8-2.4
		C54.9,52.5,53.1,50.8,51.1,48.9z M32.9,34.3C24.4,28,14.9,21,14.9,15.9c0-0.5,0.1-0.9,0.3-1.4c0.3-0.8,0.9-1.5,1.8-2.1
		c1.6-1.2,3.2-1.6,4.8-1.2c5.4,1.3,10.3,10.9,14.6,19.4c1.9,3.8,3.8,7.4,5.6,10.1L41.6,41C39.1,38.9,36,36.6,32.9,34.3z M42.5,41.7
		l0.1-0.1c0.1,0.1,0.1,0.2,0.2,0.2l-0.1,0.1C42.6,41.9,42.5,41.8,42.5,41.7z M46.9,46.5c-0.1-0.1-0.1-0.2-0.2-0.3l0,0
		C46.9,46.3,46.9,46.4,46.9,46.5L46.9,46.5z"/>
</g>
</svg>
