<?xml version="1.0" encoding="utf-8"?>
<!-- Generator: Adobe Illustrator 16.0.0, SVG Export Plug-In . SVG Version: 6.00 Build 0)  -->
<!DOCTYPE svg PUBLIC "-//W3C//DTD SVG 1.1//EN" "http://www.w3.org/Graphics/SVG/1.1/DTD/svg11.dtd">
<svg version="1.1" id="Layer_1" xmlns="http://www.w3.org/2000/svg" xmlns:xlink="http://www.w3.org/1999/xlink" x="0px" y="0px"
	 width="100px" height="100px" viewBox="0 0 100 100" enable-background="new 0 0 100 100" xml:space="preserve">
<g>
	<path fill="#37B34A" d="M82.043,50.305c-0.492-2.293-10.465,1.531-10.465,1.531s16.641-8.091,13.926-11.174
		c-2.709-3.086-14.18,6.059-14.834,5.516c-0.65-0.539,14.934-13.16,11.711-16.218c-2.281-2.166-15.838,12.417-17.365,11.36
		c-1.531-1.063,12.432-13.151,10.344-15.49c-2.092-2.343-14.941,8.388-25.509,18.272c-10.566,9.891-35.653,24.247-35.653,24.247
		c3.439,15.139,17.836,22.721,17.836,22.721c5.051-8.834,16.931-19.348,24.916-24.984C64.938,60.443,82.764,53.66,82.043,50.305
		L82.043,50.305z M46.811,70.205c-11.89,7.15-18.843,5.553-24.111,1.887c-5.262-3.666,2.6-7.66,8.366-12.004
		C35.91,57.271,50.415,44.959,55.1,40.495c4.686-4.462,12.76-10.842,14.248-11.8c1.48-0.96,3.836-2.866,4.455-1.834
		c0.621,1.022-7.592,9.274-9.338,11.88c-1.748,2.603-1.133,4.345,0.682,3.585c1.16-0.486,13.541-12.246,15.121-10.588
		c1.471,1.456-8.125,10.269-9.814,12.336c-1.688,2.066-1.83,2.773-1.01,2.978s1.533-0.291,4.559-2.036
		c4.303-2.444,8.58-4.769,9.34-3.315c0.758,1.453-10.252,8.416-12.018,9.652c-1.77,1.244-1.771,1.811-0.377,1.166
		c1.396-0.645,8.063-3.21,8.877-1.773C80.719,52.318,58.697,63.049,46.811,70.205L46.811,70.205z"/>
	<path fill="#006838" d="M27.094,59.656c0.031-0.053,12.314-7.746,18.403-13.218c10.732-9.442,24.613-20.73,25.052-20.947
		c0.506-1.345,1.109-3.83,0.279-4.257c-3.656-1.875-10.969,10.845-11.771,10.579c-0.809-0.267,9.057-17.725,4.936-19.385
		c-2.916-1.177-10.176,17.365-11.984,16.938c-1.813-0.421,6.736-16.789,3.936-18.202c-2.805-1.41-10.815,13.284-17.016,26.363
		C35.5,44.758,28.445,54.885,22.824,62.502C24.172,61.615,25.606,60.66,27.094,59.656L27.094,59.656z"/>
	<path fill="#37B34A" d="M51.152,45.334c0,0,7.678-6.724,9.367-3.588S45.729,60.395,45.729,60.395s7.958-5.727,12.044-10.279
		c4.094-4.555,5.785-7.756,3.408-9.671C58.803,38.524,53.32,43.583,51.152,45.334L51.152,45.334z"/>
</g>
</svg>
