<?xml version="1.0" encoding="utf-8"?>
<!-- Generator: Adobe Illustrator 18.1.0, SVG Export Plug-In . SVG Version: 6.00 Build 0)  -->
<svg version="1.1" id="Layer_1" xmlns="http://www.w3.org/2000/svg" xmlns:xlink="http://www.w3.org/1999/xlink" x="0px" y="0px"
	 viewBox="0 0 150 150" enable-background="new 0 0 150 150" xml:space="preserve">
<g>
	<g>
		<g>
			<path fill="#958A32" d="M48.2,49.9C48.2,49.9,48.2,49.9,48.2,49.9L2.6,56.5l33.4,32.6c3.4-6.5,7.6-12.2,12.5-17.1v-4.2l17.8-11.9
				c-4.9-2.6-10.8-4.7-17.5-6C48.7,49.9,48.4,49.9,48.2,49.9z"/>
		</g>
		<g>
			<path fill="#958A32" d="M119.7,141.6l-7.9-46c-3.6,1.8-7.3,3.3-11,4.4l0,4.7h-33c2.5,4.9,6,10.1,10.6,15.1
				c0.2,0.1,0.5,0.2,0.7,0.4c0,0,0,0,0,0L119.7,141.6z"/>
		</g>
	</g>
	<g>
		<g>
			<path fill="#DB4326" d="M48.6,104.7V81.4c-3.7,3.8-7.3,8.5-10.4,14.1c0,0.3-0.1,0.5-0.1,0.8c0,0,0,0,0,0l-7.8,45.3l41.3-21.7
				c-4.6-4.6-8.3-9.7-11.3-15.2H48.6z"/>
		</g>
		<g>
			<path fill="#DB4326" d="M101,49.9c1.2,7.6,1,15.2-0.3,22.4l0,21.4c4.1-1,8.5-2.5,12.9-4.5c0.2-0.2,0.4-0.4,0.6-0.6c0,0,0,0,0,0
				l32.9-32.1L101,49.9z"/>
		</g>
	</g>
	<g>
		<g>
			<path fill="#37271A" d="M74.7,50.3l20.7,13.8c0.9-5.4,1-11.6,0.3-18.2c-0.1-0.2-0.2-0.5-0.4-0.7c0,0,0,0,0,0L75,4L54.3,45.9
				c6.5,1.1,12.7,3.1,18.4,5.8L74.7,50.3z"/>
		</g>
		<g>
			<path fill="#37271A" d="M94.6,67.7L93,66.6L74.7,54.4l-5,3.3L69,58.2L51.9,69.6v8.8v23h6.6h7.7h1h28.3h1.9v-0.4l0-6.6l0-10.1
				l0-14.8L94.6,67.7z M90.1,93.3h-31V74.1l15.5-10.3l15.5,10.3V93.3z"/>
		</g>
	</g>
</g>
</svg>
