<?xml version="1.0" encoding="utf-8"?>
<!-- Generator: Adobe Illustrator 18.1.0, SVG Export Plug-In . SVG Version: 6.00 Build 0)  -->
<svg version="1.1" id="Layer_1" xmlns="http://www.w3.org/2000/svg" xmlns:xlink="http://www.w3.org/1999/xlink" x="0px" y="0px"
	 viewBox="0 0 150 150" enable-background="new 0 0 150 150" xml:space="preserve">
<g>
	<path fill="none" d="M75.9,98.4c0.3-7.7-1.6-13.1-6.6-17.4c-9.2-7.8-18.9-6.6-19.6,1.1c3.1,0,6.6,0,10.6,0c5.7,0,9.4,3.4,10.2,7.3
		c1.2,5.2-4.2,9.1-11.2,7.7c-1.5-0.3-3.1-0.8-4.5-1.4c5.4,4.8,12.5,7.8,20.3,8c0-0.1,0.1-0.3,0.2-0.5
		C75.9,101.7,75.9,99.9,75.9,98.4z"/>
	<path fill="none" d="M67,88.2c-1.2-2.7-4.1-5.2-7.2-5.2H49.6c-0.1,6,4.2,11.1,10.5,12.2C66.4,96.2,69.1,92.9,67,88.2z"/>
	<path fill="none" d="M97.6,39.7c-6.3-4-13.7-6.1-21.5-6.1c-7.2,0-14.2,1.9-20.1,5.4c-9.5,5.6-15.5,14.9-17.5,26.6
		c1.2-0.2,2.4-0.2,3.3,0.1c2.9-16.2,17.1-28.4,34.1-28.4c17.2,0,31.5,12.6,34.2,29c0.1,0,0.1-0.1,0.2-0.1c0.9-0.6,2.3-0.8,3.8-0.6
		C112.3,54.4,106.7,45.5,97.6,39.7z"/>
	<path fill="none" d="M41.2,71.9c0-1.4,0.1-2.8,0.3-4.2c-5.8,2.2-7.6,9.7-6.8,15.7c4.5,2.9,8.3,7.1,13.9,11.8c2,1.6,4,3,6,4.1
		C46.5,92.9,41.2,83,41.2,71.9z"/>
	<path fill="none" d="M93.4,97c-6.9,1.4-12.3-2.5-11.2-7.7c0.9-3.9,4.5-7.3,10.2-7.3c4,0,7.5,0,10.6,0c-0.7-7.7-10.4-8.9-19.6-1.1
		c-5.1,4.3-7,9.7-6.6,17.4c0.1,1.6,0,3.3,0.6,4.7c0.1,0.2,0.1,0.4,0.1,0.5c7-0.4,13.4-3,18.5-7.2C95.2,96.6,94.3,96.9,93.4,97z"/>
	<path fill="none" d="M110.5,67.3c-0.1,0-0.1,0-0.2-0.1c0.2,1.5,0.3,3,0.3,4.6c0,8.2-2.8,15.7-7.6,21.6c5.9-5.1,9.8-9.5,15.4-12
		C118.6,75.5,116.4,68.8,110.5,67.3z"/>
	<path fill="none" d="M85.8,88.2c-2.1,4.7,0.6,8,6.9,6.9c6.3-1,10.7-6.2,10.5-12.2H93C89.9,83,87,85.5,85.8,88.2z"/>
	<path fill="none" d="M128.7,91.3c-2.1-0.6-4.6-0.5-7.5,0.2c-6.6,1.5-12,6.2-18,9.1c-5.7,3-11.4,4.4-17.5,5.8c0,0,31.5,0,37.2,0
		c-0.7-0.7-1.1-1.8-1-2.9c0.2-2,2-3.5,4-3.3c1.9,0.2,3.4,1.9,3.3,3.8C135.7,102.7,136.7,93.5,128.7,91.3z"/>
	<path fill="none" d="M28.4,91.6c-2.8-0.7-5.4-0.8-7.5-0.2c-8,2.1-7,11.4-0.5,12.7c-0.1-1.9,1.4-3.6,3.3-3.8c2-0.2,3.8,1.3,4,3.3
		c0.1,1.1-0.3,2.1-1,2.9c5.7,0,37.2,0,37.2,0c-6.2-1.4-11.8-2.8-17.5-5.8C40.4,97.7,35,93,28.4,91.6z"/>
	<path fill="none" d="M75.9,40.1c-17.5,0-31.7,14.2-31.7,31.7c0,3.2,0.5,6.3,1.4,9.2c2.2-8.8,15.3-11.3,26.4,1.4
		c0.1,0.1,0.1,0,0.1-0.1c-3.2-6.1-8.4-11.8-13.5-16.6c-2.7-2.6-0.3-3.5,1.3-2.8c4.8,2,10.1,11.7,13.2,18c0.1,0.1,0.1,0.1,0.1,0
		c-2.4-8.4-6.6-18.8-7.5-22.2c-0.7-2.5,1.8-3.4,2.9-1.3c2.7,5.5,4.6,13.3,6.3,21.6c0,0.2,0.1,0.2,0.1,0c-0.7-10.1-2.5-23.1,1.2-28.6
		c0.4-0.6,0.5-0.5,0.8,0c3.6,5.5,1.9,18.4,1.2,28.6c0,0.2,0,0.2,0.1,0c1.7-8.3,3.6-16.1,6.3-21.6c1-2.1,3.5-1.2,2.9,1.3
		c-0.9,3.4-5.2,13.8-7.5,22.2c0,0.1,0,0.2,0.1,0c3.1-6.3,8.4-16,13.2-18c1.6-0.7,4,0.3,1.3,2.8C89.2,70.6,84,76.3,80.8,82.4
		c-0.1,0.1,0,0.1,0.1,0.1c10.4-11.9,22.5-10.5,25.8-3c0.6-2.4,0.9-5,0.9-7.6C107.6,54.4,93.4,40.1,75.9,40.1z"/>
	<path fill="#003056" d="M38.5,65.5c2-11.7,8-20.9,17.5-26.6c5.9-3.5,12.9-5.4,20.1-5.4c7.8,0,15.2,2.1,21.5,6.1
		c9.1,5.8,14.8,14.7,16.6,25.8c1,0.1,2.1,0.5,3.1,1c-2.1-16.5-11.7-25.2-18.1-29.3c-6.7-4.3-14.7-6.5-23-6.5c-7.8,0-15.2,2-21.6,5.8
		c-10.7,6.4-17.3,16.9-19.1,30.2C36.4,66.1,37.5,65.7,38.5,65.5z"/>
	<path fill="#B48B2E" d="M41.5,67.7c-0.2,1.4-0.3,2.8-0.3,4.2c0,11.1,5.3,21,13.4,27.4c9.5,5.3,19,5.5,20.2,5.5
		c1.4,0,15-0.3,26.2-9.6c0.7-0.6,1.3-1.1,2-1.7c4.7-5.9,7.6-13.4,7.6-21.6c0-1.6-0.1-3.1-0.3-4.6c0.1,0,0.1,0,0.2,0.1
		c5.9,1.5,8.2,8.2,7.9,14.1c2-0.9,4.2-1.5,6.8-1.9c0.2,0,0.4-0.1,0.6-0.1c2.7-2.8,6.4-5,10.2-5.6c0.8-0.1,0.8-0.3,0.2-0.8
		c-1.3-1.2-3.2-2-4.8-1.3c0-0.9,0.5-2.1-0.4-2.8c-0.8-0.1-1.8,0.7-2.6,1.3c-0.5,0.4-0.4,0.2-0.2-0.2c2.4-4.4,6.8-9.7,11.1-9.1
		c1.5,0.2,3.3,1.2,3.9,3.6c-0.2,0-0.4,0-0.5,0c-1.6,0-3,1.3-3,3c0,1.6,1.3,3,3,3c3.3,0,5-5.1,2.5-8.5c-3.3-4.4-8.5-4.4-12.5-1.5
		c-1.9,1.4-3.5,3.2-4.8,5.1c0.2-1.8,0.1-3.1-1.7-3.8c-1.7-0.7-3.7,0.4-4.6,1.7c-1,1.3-0.3,1.4,0.5,1.1c2.6-1,3.1,2.6,2.8,4.8
		c-0.2,2-0.9,3.8-1.5,4.9c-0.1-3.1-0.1-5.9-2.2-8.1c-0.9,0.1-1.7,0.7-2,1.6c-0.5-0.5-1.2-0.9-1.9-1.3c-1-0.5-2.1-0.8-3.1-1
		c-1.5-0.2-2.9,0-3.8,0.6c-0.1,0-0.1,0.1-0.2,0.1c-2.7-16.4-17-29-34.2-29c-17,0-31.2,12.3-34.1,28.4c-0.9-0.3-2.1-0.3-3.3-0.1
		c-1.1,0.2-2.1,0.6-3.1,1.1c-0.6,0.3-1.1,0.7-1.6,1.1c-0.3-0.9-1.1-1.5-2-1.6c-2.1,2.3-2.1,5.1-2.2,8.1c-0.5-1-1.2-2.9-1.5-4.9
		c-0.3-2.2,0.3-5.8,2.8-4.8c0.7,0.3,1.4,0.2,0.5-1.1c-0.9-1.2-2.9-2.4-4.6-1.7c-1.8,0.7-1.9,2-1.7,3.8c-1.3-2-2.9-3.8-4.8-5.1
		c-4.1-2.9-9.3-2.9-12.5,1.5c-2.5,3.4-0.8,8.5,2.5,8.5c1.6,0,3-1.3,3-3c0-1.6-1.3-3-3-3c-0.2,0-0.4,0-0.5,0c0.6-2.4,2.4-3.3,3.9-3.6
		c4.3-0.6,8.7,4.6,11.1,9.1c0.2,0.5,0.3,0.6-0.2,0.2c-0.8-0.6-1.8-1.4-2.6-1.3c-0.9,0.6-0.4,1.9-0.4,2.8c-1.7-0.7-3.5,0.1-4.8,1.3
		c-0.6,0.5-0.6,0.7,0.2,0.8c4,0.7,8.1,3.2,10.9,6.4c2.6,0.7,4.8,1.8,6.8,3.1C33.9,77.3,35.7,69.8,41.5,67.7z M54.9,95.6
		c1.4,0.6,3,1.1,4.5,1.4c6.9,1.4,12.3-2.5,11.2-7.7c-0.9-3.9-4.5-7.3-10.2-7.3c-4,0-7.5,0-10.6,0c0.7-7.7,10.4-8.9,19.6-1.1
		c5.1,4.3,7,9.7,6.6,17.4c-0.1,1.6,0,3.3-0.6,4.7c-0.1,0.2-0.2,0.4-0.2,0.5C67.4,103.4,60.3,100.4,54.9,95.6z M49.6,83h10.2
		c3.1,0,6,2.5,7.2,5.2c2.1,4.7-0.7,8-6.9,6.9C53.8,94.1,49.5,89,49.6,83z M77.6,103.6c0-0.1-0.1-0.3-0.1-0.5
		c-0.6-1.4-0.5-3.1-0.6-4.7c-0.3-7.7,1.6-13.1,6.6-17.4c9.2-7.8,18.9-6.6,19.6,1.1c-3.1,0-6.6,0-10.6,0c-5.7,0-9.4,3.4-10.2,7.3
		c-1.2,5.2,4.2,9.1,11.2,7.7c0.9-0.2,1.8-0.4,2.7-0.7C91,100.5,84.6,103.2,77.6,103.6z M103.2,83c0.1,6-4.2,11.1-10.5,12.1
		c-6.2,1-9-2.2-6.9-6.9C87,85.5,89.9,83,93,83H103.2z M80.9,82.5C80.8,82.6,80.7,82.5,80.9,82.5c3.2-6.2,8.3-11.9,13.4-16.7
		c2.7-2.6,0.3-3.5-1.3-2.8c-4.8,2-10.1,11.7-13.2,18c-0.1,0.1-0.1,0.1-0.1,0c2.4-8.4,6.6-18.8,7.5-22.2c0.7-2.5-1.8-3.4-2.9-1.3
		c-2.7,5.5-4.6,13.3-6.3,21.6c0,0.2-0.1,0.2-0.1,0c0.7-10.1,2.5-23.1-1.2-28.6c-0.3-0.5-0.4-0.6-0.8,0c-3.6,5.5-1.9,18.4-1.2,28.6
		c0,0.2,0,0.2-0.1,0c-1.7-8.3-3.6-16.1-6.3-21.6c-1-2.1-3.5-1.2-2.9,1.3c0.9,3.4,5.2,13.8,7.5,22.2c0,0.1,0,0.2-0.1,0
		c-3.1-6.3-8.4-16-13.2-18c-1.6-0.7-4,0.3-1.3,2.8c5.1,4.8,10.2,10.5,13.5,16.6c0.1,0.1,0,0.1-0.1,0.1
		c-11.1-12.7-24.2-10.2-26.4-1.4c-0.9-2.9-1.4-6-1.4-9.2c0-17.5,14.2-31.7,31.7-31.7c17.5,0,31.7,14.2,31.7,31.7
		c0,2.6-0.3,5.2-0.9,7.6C103.4,72,91.2,70.6,80.9,82.5z"/>
	<path fill="#003056" d="M132,106.3c-0.2,0-0.2-0.1-0.1-0.1c4.4-1.7,6.9-7.1,4.4-12.6c-0.7-1.6-3.5-6-10.7-5.6
		c3.8-2.8,10.8-4.3,15.6-1.7c1.8,1,2.3,1.3,0.9-1.2c-3-5.3-10.2-6.3-16.3-5.5c-0.2,0-0.4,0-0.6,0.1c-2.6,0.4-4.8,1-6.8,1.9
		c-5.6,2.5-9.5,6.8-15.4,12c-0.6,0.6-1.3,1.1-2,1.7c-11.2,9.3-24.8,9.6-26.2,9.6c-1.2,0-10.6-0.2-20.2-5.5c-2-1.1-4.1-2.5-6-4.1
		c-5.7-4.7-9.5-8.9-13.9-11.8c-2-1.3-4.2-2.4-6.8-3.1c-1-0.3-2.1-0.5-3.3-0.7c-6.3-0.9-13.8,0-17,5.4c-1.4,2.5-0.8,2.2,0.9,1.2
		c4.8-2.6,11.8-1.1,15.6,1.7c-7.3-0.4-10,4.1-10.7,5.6c-2.5,5.6,0,10.9,4.4,12.6c0.1,0,0.2,0.1,0,0.1c-2,0-12.8,0-12.8,0v3.7h140
		v-3.7C145,106.3,134,106.3,132,106.3z M26.7,106.5c0.7-0.7,1.1-1.8,1-2.9c-0.2-2-2-3.5-4-3.3c-1.9,0.2-3.4,1.9-3.3,3.8
		c-6.4-1.3-7.4-10.6,0.5-12.7c2.1-0.6,4.6-0.5,7.5,0.2c6.6,1.5,12,6.2,18,9.1c5.7,3,11.4,4.4,17.5,5.8
		C64,106.5,32.4,106.4,26.7,106.5z M126,100.3c-2-0.2-3.8,1.3-4,3.3c-0.1,1.1,0.3,2.1,1,2.9c-5.7,0-37.2,0-37.2,0
		c6.2-1.4,11.8-2.8,17.5-5.8c6.1-2.9,11.4-7.6,18-9.1c2.8-0.7,5.4-0.8,7.5-0.2c8,2.1,7,11.4,0.5,12.7
		C129.3,102.2,127.9,100.5,126,100.3z"/>
</g>
</svg>
