<?xml version="1.0" encoding="utf-8"?>
<!-- Generator: Adobe Illustrator 18.1.0, SVG Export Plug-In . SVG Version: 6.00 Build 0)  -->
<svg version="1.1" id="Layer_1" xmlns="http://www.w3.org/2000/svg" xmlns:xlink="http://www.w3.org/1999/xlink" x="0px" y="0px"
	 viewBox="0 0 150 150" enable-background="new 0 0 150 150" xml:space="preserve">
<g>
	<g>
		<g>
			<polygon fill="#004769" points="100.8,33.8 102.2,25.6 112.5,28.8 112.5,36.7 			"/>
			<polygon fill="#004769" points="115.3,37.6 116.2,30.5 124.4,33.8 124.4,40.1 			"/>
			<polygon fill="#004769" points="128.2,35.3 128.2,41.2 135.9,44.6 135.9,39.9 			"/>
			<polygon fill="#004769" points="130.9,33 130.9,28.3 123.1,24.4 123.1,29.5 			"/>
			<polygon fill="#004769" points="119.9,28.7 119.9,22.1 110.9,18.4 110.9,25.1 			"/>
			<polygon fill="#004769" points="120.5,43.6 119.9,51.4 108.9,48.4 109.5,39.9 			"/>
		</g>
		<path fill="#004769" d="M98.7,35.3l1.2-11.7l5.8,0.9l0.5-7.1c-4.2-1.6-8.6-2.8-13.2-3.5C57.7,8.1,16.4,32.1,9,70.8
			c-7.7,39.9,18.5,70,46.7,72.3c0.7,0.1,1.4,0.1,2,0.2c-20.2-6.7-36.6-28-31.4-54.5C32,59,64.5,39.9,97.4,46.1c2,0.4,4,0.8,5.9,1.4
			l1.5-10.8L98.7,35.3z"/>
	</g>
	<g>
		<path fill="#0098D7" d="M124,100.4c0,0.2,0,0.3-0.1,0.5c0-0.4,0.1-0.8,0.1-1.2c0,0.2,0,0.3-0.2,0.3c-0.1,0-0.1-0.1-0.1-0.2
			c0,0,0,0.1,0,0.1c0,0,0-0.1,0-0.1c0-0.4,0.2-1,0.3-1.1c0.1,0.4,0,0.7,0,1.1c0.1-0.4,0.1,0.1,0.1,0.2c0-0.2,0.1-0.5,0.1-0.8
			c0-0.9,0.1-1.7,0.1-2.6c0-18.9-11.5-35.2-27.8-42.3c-0.1-0.1-0.2-0.1-0.4-0.1c0.2,0.1,0.4,0.4,0.6,0.3c-1.1-0.2,0.2,0.2,0.4,0.3
			c0.3,0.1,0.6,0.3,0.8,0.4c0.6,0.3,1.1,0.6,1.7,0.9c0.7,0.4,1.4,0.8,2,1.2c0.2,0.1,1.8,1.1,0.8,0.6c0.5,0.2,0.8,0.6,1.2,0.9
			c0.1,0.1,0.7,0.4,0.6,0.4c0.6,0.4,1.2,0.9,1.8,1.3c1.3,0.9,2.6,1.9,3.7,3c-1.5-1.2-3-2.3-4.5-3.4c-1.2-1-2.4-2-3.8-2.6
			c0.6,0.3,1.2,0.7,1.8,1.2c-0.3-0.1-0.6-0.3-0.8-0.4c0.7,0.9,2,1.1,2.5,2.2c-0.7-0.5,0,0.4,0.1,0.6c0.2,0.2,0.1,0.5-0.2,0.4
			c1.3,1.5,2.3,3.6,4.4,4.2c0-0.7,1.3,0.6,1.5,0.8c0.5,0.6,1.1,1.2,1.6,1.8c0.3,0.4,2.7,4,1.8,4.1c0.5,1.3,1.1,2.6,1.9,3.7
			c0.4,0.5,1.3,1.5,0.9,2.2c-0.2-0.5-0.4-1.3-0.9-1.6c-0.6-0.3-0.7-0.7-1.3-1.1c-0.2,0.4-0.1,0.8-0.1,1.3c-0.3-0.4-0.3-1.2-0.9-1.1
			c0.2,0.9,0.1,2.1,1,2.6c0.1-0.2,0.2-0.7,0.5-0.8c0.4-0.1,0.3,1.1,0.3,1.3c0.1,0.6,0.3,1.2,0.8,1.6c0.3,0.2,0.8,0.5,0.5,1
			c1.2-0.2,1.4,2.9,1.5,3.7c0.1,0.5,0.4,3.6-0.7,3.2c0.1,0.9-0.6,1.7-0.8,2.5c-0.1-0.2-0.3-0.5-0.4-0.7c-1.2,1.4-0.2,3.1,0.5,4.5
			c0.4,0.8,0.9,1.8,0.6,2.7c-0.1,0.4-0.9,0.8-0.5,1.3c-0.1-0.1-0.2-0.2-0.3-0.2c0,0.2,0.4,0.8,0,0.8c-0.3,0-0.5-0.5-0.6-0.7
			c-0.3-0.5-0.8-1-1.4-1.2c-0.9-0.3-0.3,1.6-0.1,1.9c0.4,0.9,0.8,1.7,1.3,2.5c0.2,0.3,1.3,2.3,0.4,2.5c-0.7,0.1-1.2-0.8-1.4-1.3
			c-0.9-1.9-0.1-4.3-1.3-6.1c-0.4-0.6-1-1-1.6-1.3c0,0.2-0.5,1.5-0.9,0.9c-0.2-0.4-0.2-0.9-0.3-1.3c-0.2-0.6-0.9-0.7-1.3-1.1
			c-0.4-0.4-0.7-1.1-1.3-1.3c0.4,1-0.8,1.2-1.3,1.6c-0.8,0.6-1.2,1.6-1.6,2.5c-0.6,1.2-1.4,2.3-1.6,3.6c-0.2,1.1,0,2.3-0.6,3.3
			c-0.8,1.3-2.1-1.6-2.4-2.1c-0.6-1.1-1.1-2.3-1.4-3.5c-0.2-0.7,0-1.8-0.8-2.2c-0.1,0.8-0.9,1.2-1.5,0.6c-0.5-0.5,0.3-0.9,0.6-1.2
			c-0.4-0.2-1.7,0.7-1.3-0.4c-0.6,0.1-0.9-0.2-1.4-0.6c-0.5-0.4-0.8-0.2-1.3-0.1c-1.3,0.3-2.7,0.5-4.1,0.3C87,94.3,85,92.9,83,91.9
			c0.3,0.9,0.9,2.1,1.4,2.9c0.2,0.3,0.8,0.2,0.9,0.4c0.1,0.2,0,0.4,0.2,0.5c0.7,0.9,2.3-0.9,2.8-1.3c0.1,0.7,0.7,1.2,1.4,1.6
			c0.4,0.2,0.9,0.3,1.1,0.8c0.2,0.6-0.7,1.2-0.8,1.8c-0.1,0.5-0.4,1-0.9,1.2c-2.4,1.4-4.5,3.7-7.4,4.1c-2.6,0.4-2.1-2.1-2.8-3.8
			c-0.2-0.7-0.9-1.2-1.2-1.8c-0.3-0.6-0.6-1.1-0.9-1.7c-0.4-0.8-0.9-1.6-1.2-2.4c-0.2-0.4-0.9-0.6-0.8-1.1c-0.5,0.5-0.8-0.1-1.3-0.3
			c1,2.1,2.3,4.2,3.2,6.4c0.4,0.9,0.7,1.9,1.2,2.6c0.5,0.7,1.3,1.1,1.9,1.7c0.7,0.7,0.2,1.5,1.2,1.7c1,0.2,1.9-0.2,2.9-0.5
			c0.4-0.1,1.5-0.6,1.5,0.2c0,0.5-0.3,1.1-0.5,1.5c-0.6,1.3-1.3,2.6-2.3,3.6c-0.9,1-2,1.7-3,2.6c-1,0.8-1.9,1.8-2.3,3
			c-0.4,1.4,0.4,2.3,0.7,3.5c0.2,1.1,0.2,2.9-0.9,3.6c-0.6,0.4-1.5,0.1-2,0.6c-0.5,0.5-0.5,1.2-0.5,1.8c0.1,1.7-1.3,2.6-2.2,3.9
			c-0.8,1.1-1.9,2.1-3.3,2.4c-3,0.6-5.5-2.1-7.2-4.3c-1.1-1.5-2.2-3.1-2.8-4.9c-0.2-0.7-0.4-1.5-0.2-2.3c0.2-0.6,0.7-1.1,0.9-1.7
			c0.2-0.9-0.5-1.7-0.8-2.4c-0.3-0.9-0.6-1.8-1-2.6c-0.3-0.6-0.9-1.1-1.2-1.7c-0.4-0.7-0.3-1.5-0.1-2.2c0.1-0.6,0.6-1.6,0-2.1
			c-0.5-0.4-1.3-0.5-1.8-0.8c-0.6-0.4-1-1-1.7-1.2l0,0c0,0,0,0,0,0l0,0c-0.6-0.2-1.4,0.3-1.9-0.2c0.8,0.6-2.1,0.3-2.4,0.2
			c-1.5-0.3-2.8-0.3-3.8-1.7c-2-3-2.6-7-1.5-10.4c0.6-1.8,2.2-3.2,3.6-4.4c1.3-1.2,2.4-2.7,3.9-3.6c0.9-0.6,1.1-0.3,1.9,0
			c0.8,0.3,1.9,0.2,2.7,0.2c1.9,0.2,3.9,0.1,5.7,0.7c-1.9,2.1,1.1,4.3,3,4.9c1.1,0.4,1.1-0.4,1.7-1c0.9-0.9,2.6,0,3.5,0.5
			c2.2,1.2,5.2,1.6,5.9-1.4c0.4-1.6-0.8-1.1-2-1.4c-0.6-0.1-1.4,0.3-1.8-0.1c-0.5-0.4-0.9-0.9-1.4-1.3c0.4-0.2,0.3-0.6-0.1-0.8
			c0.7-1,2.1-1,3.1-1.2c0.7-0.1,1.4-0.3,2.1-0.2c0.6,0.1,1.1,0.5,1.8,0.5c0.5,0.1,2,0.1,1.6-0.8c-0.4-0.9-1.5-1.7-2.3-2.1
			c0.6-0.2,0.8-1,1.4-1.3c-1,0-1.9,0.6-2.9,0.5c0.3,0.4,0.8,0.7,1.3,0.8c-0.4,0.2-0.9,0.4-1.4,0.4c-0.3,0-0.4-0.4-0.7-0.5
			c0.2-0.2,0.5-0.3,0.8-0.3c-0.3-0.3-1.1-0.1-1.1-0.7c-1.3,0.5-3,2.4-2,3.8c-0.5,0-1,0.3-1.6,0.5c0-0.5-0.8-0.8-1.2-0.5
			c-0.2,0.1,0,0.3-0.1,0.4c-0.3,0.2-0.5-0.2-0.5-0.4c-0.1,0.4-0.2,0.9-0.3,1.3c0.4-0.1,0.7,0.2,0.9,0.6c-0.2-0.2-0.4-0.3-0.6-0.5
			c0.2,0.5,0.4,0.9-0.3,1c-0.5,0.1-0.8-0.6-0.2-0.6c-1.5-0.9-0.7-2.5-1.7-3.5c-0.3-0.3-1.9-2.3-2.1-1.7c-0.1-0.3-0.1-0.5,0-0.8
			c-2.1,0.3,1.4,3.5,1.5,4.4c-0.2-0.2-0.5-0.3-0.8-0.5c-0.1,0.5-0.1,1.6-0.9,1.6c0.6-1.2-0.9-3.3-1.6-4.3c-0.7-0.9-1.2-0.2-2.1-0.2
			c-0.8,0-1.1-0.5-1.8,0c-1.3,0.9-2.1,2.3-3.5,3c-0.7,0.3-1.6,0.5-2.3,0.1c-0.3-0.2-0.3-0.5-0.6-0.7c-0.3-0.2-0.6-0.2-0.9-0.4
			c0.7-1,0.8-2.3,1.5-3.4c0.8-1.2,1.7-0.3,2.7,0.1c2,0.8,2.2-2,1.2-3.1c-0.4-0.5,0.2-0.6,0.6-0.5c0.6,0.2,0.9,0.4,1.6,0.2
			c1-0.4,1.5-1.3,2.4-1.8c0.5-0.3,1.2-0.5,1.7-0.2c0.3,0.1,0.5,0.2,0.7-0.1c0.4-0.5,0.7-1,1-1.6c0.1-0.1,0.8-1.2,0.2-0.8
			c0.3-0.3,0.8-0.3,1.2-0.3c-0.4,0.3-0.5,0.9-0.6,1.3c-0.1,0.1-0.2,0.8-0.3,0.3c-0.9,1.3,2.1,1.2,2.7,1.2c0.7,0,1.3,0,1.8-0.6
			c0.5-0.6,0.6-1.4,1.3-1.7c0.2,0.9,0.9,0,1.2-0.3c0.7-0.7,1.6-1,2.5-1.2c-0.4-0.3-0.9-0.7-1.5-0.5c-0.5,0.2-1.1,0.4-1.6,0.1
			c0.4-0.3-0.1-1.1,0.2-1.6c0.3-0.4,0.7-0.7,1.1-1c0.9-0.9,0.3-1.7-0.8-1c-0.9,0.6-2.8,2-2.2,3.3c0.4,1-0.3,1.1-1.1,1.1
			c0.1,0-0.2,0.9-0.2,1c-0.2,0.6-0.5,0.6-1,0.8c-1.4,0.8-1-0.3-0.9-1.3c0-0.2,0.4-1.1-0.1-1.1c-0.4,0-0.7,0.4-1.1,0.5
			c-0.2,0-1,0-0.9-0.4c0-0.2,0.9-0.8,0-0.6c0.4-0.2,0.7-0.5,1-0.6c-0.2,0-1,0.2-0.7-0.4c0.2-0.3,0.7-0.1,1-0.1
			c-0.2-0.1-0.5-0.2-0.7-0.2c0.2-0.1,2.1-1.3,2.9-1.4c-0.1,0,0-0.1,0.3-0.3c0.1-0.1,0.2-0.2,0.4-0.2c0.3-0.2,0.7-0.5,1-0.7
			c0.7-0.5,1.4-1,2-1.6c0.5-0.4,0.9-1,1.6-1.2c0.4-0.1,0.6,0.1,1-0.3c0.2,0.2,0.2,0.5-0.1,0.7c0.2-0.2,0.4-0.4,0.6-0.6
			c-0.4,0.9,0.2,0.1,0.3,0c0.3-0.2,0.6,0.6,0.5,0.8c0.6-0.2,1,0.6,1.4,0.8c0.4,0.2,1,0.4,1.3,0.8c0.4,0.5-0.2,1-0.7,0.9
			c-0.6-0.1-1.2-0.4-1.9-0.5c0.2,0.5,0.7,0.8,0.8,1.4c0.1,0.5,0.4,0.9,1,0.9c-0.1-0.4-0.3-0.8-0.2-1.1c0.3,0.2,0.7,0.5,1.1,0.6
			c-0.3-0.5-0.1-1.2,0.6-1.2c0.5,0,0.4-0.3,0.5-0.8c0-0.3,0.1-0.6,0.1-0.8c0.5,0.3,0.2,1.4,0.7,1.4c0.7,0,1.4-1.1,1.9-1.5
			c0.4,0.7,1.4-0.4,1.9,0.3c0.3-0.6-0.2-1.4,0.8-1.1c0.6,0.2,1.1,0.4,1.6,0.6c-0.6-0.8-2.3-2.3-1.1-3.3c0.8,1.1,1.7,2.1,2.5,3.2
			c0.4,0.6,0.1,0.7-0.2,1.1c-0.2,0.4,1,0.5,1.2,0.6c-0.1-0.1-0.8-2.3-0.7-2.3c0.5-0.3,1.2,1.3,1.8,0.8c-0.4-0.1-0.7-0.4-1-0.7
			c-0.4-0.4-0.7-0.3-1.2-0.4c-0.9,0-1.2-1.6-1.5-2.2c0.4,0.4,0.8,1.2,1.4,0.9c-0.2-0.1-0.5-0.2-0.6-0.4c0.4,0,0.5-0.2,0.2-0.5
			c0.4,0.1,0.7,0.1,1.1,0.2c-0.6-0.4-1.8-1.5-0.3-1.5c-0.4-0.3-1-0.7-0.9-1.3c0.1-0.5,0.8-0.8,1.2-0.5c-0.5-0.3-0.9-0.7-1.2-1.2
			c0.2,0,1.9,0.7,1.4-0.1c0.7,0.2,2,0.2,2.2,1.1c0.1,0.3,1.4,1.3,1,1.6c0.5-0.3-0.1-0.9-0.3-1.2c0.4,0,0.8,0.2,1.2,0.4
			c-0.4-0.2-0.7-0.5-1-0.8c0.3-0.3,0.8-0.3,1.3-0.3c-0.4-0.1-0.8-0.2-0.7-0.4c0.1-0.3,1.1,0.3,1.3,0.4c0,0-0.1,0-0.2,0
			c0.2,0,0.5,0.1,0.7,0.1c0,0-0.1-0.1-0.1-0.1c0,0,0.3,0.1,0.3,0.1s0,0-0.1,0c0.2,0.1,0.4,0.1,0.5,0.2c-0.1-0.1-0.3-0.2-0.4-0.3
			c0.5,0,1,0.2,1.6,0.2c-0.3-0.2-0.7-0.4-1-0.6c0.7,0.3,0.1-0.1,0.6-0.4c-0.5-0.2-1.1-0.4-1.5-0.7c0.5-0.2,1,0,1.5,0.1
			c-0.1-0.1-0.6-0.3-0.5-0.4c0.1-0.2,0.3,0,0.4,0c-0.1,0-0.2-0.1-0.2-0.2c0.1,0.1,0.3,0.1,0.4,0.1c-0.3-0.1,0.2,0.1,0.3,0.1
			c-0.2-0.2-0.4-0.5-0.5-0.7c0.4,0,0.8,0.2,1.3,0.2c-0.2-0.1-0.9-0.5-0.8-0.7c0.1-0.1,0.2-0.1,0.4,0c-0.6-0.3-1.4-0.4-1.7-1
			c0.1,0,0.9,0.1,0.7,0c-0.9-0.4-1.9-0.7-2.9-1.1c0,0,0,0-0.1,0l0,0c-0.7-0.2-1.5-0.4-2.3-0.6c-0.1,0-0.2,0-0.2-0.1c0,0,0.1,0,0.1,0
			c-3.8-1-7.7-1.6-11.8-1.5c-3.2,0-6.4,0.4-9.5,1c0.2,0,0.4,0,0.6,0c0.3,0,0.7-0.1,1,0c0,0.1-0.1,0.2-0.3,0.3c0.1,0,0.2,0,0.2,0.1
			c0.1,0.1-1.2,0.3-1.3,0.3c0.2,0,0.5,0.1,0.7,0.1c0.2,0,0.3,0,0.5-0.1c-0.1,0.1-0.3,0.1-0.5,0.1c-0.3,0.1-0.7,0.1-1,0
			c0.1,0,0.4,0.1,0.5,0.1c-0.3,0.1-0.6,0-0.9,0c0.2-0.1,0.5-0.6,0.7-0.3c0.1,0.1,0.4-0.1,0.5-0.1l0,0c-0.4,0-0.8,0-1,0
			c0.1,0,0,0-0.1-0.1c-0.4,0.2-0.9,0.1-1.4,0.4c0.2,0,0.4-0.1,0.6-0.1c-0.1,0-0.7,0.1-0.7,0.1c0.1,0,0.2,0,0.2,0c-0.2,0-0.2,0-0.2,0
			c-0.3,0-0.8,0.2-0.9,0.3c0.4-0.1-0.2,0.2-0.4,0.2c0.1,0,0.3,0,0.4,0c-0.2,0-0.3,0-0.5,0.1c0.3,0.1,0.5-0.1,0.7-0.1
			c0,0,0.1,0,0.2,0c-0.1,0-0.1,0-0.2,0c-0.1,0,0.1,0.1,0,0.2c-0.4,0.2-1,0.1-1.4,0.2c0.1,0,0.1,0,0.1,0c0.3,0,0.6-0.1,0.9-0.1
			c-0.2,0.1-0.2,0.1,0.1,0.1c-0.4,0.2-0.9,0.3-1.4,0.4c0.1,0,0.2,0.1,0.3,0.2c-0.2-0.3-2.2,0.4-2.4,0.7c0.1,0,0.8-0.2,0.9-0.2
			c0.3-0.1,0.6-0.2,0.9-0.3c0.4,0,0.4,0.3,0.1,0.5c-0.2,0.1-0.7,0.3-0.9,0.1c-0.1-0.2-0.6,0.1-0.7-0.1c0,0,0.2,0.1,0.3,0.1
			c0,0,0.1,0,0.1,0c0,0-0.1,0-0.1,0.1c0,0,0,0,0,0c0,0-0.1,0-0.1,0.1c0,0,0,0.1-0.2,0.2c0.2-0.1,0.4-0.4,0.6-0.2
			c-0.5,0.5-1.2,0.5-1.8,0.8c0.7-0.3,0.1,0.1-0.1,0.1c0.6,0-0.1,0.1-0.2,0.2c0.3,0-0.6,0.1-0.2,0.2c-0.3,0.1-0.5,0.2-0.7,0.3
			c0.1,0,0.1,0,0.1,0c-0.3,0.3-0.8,0.3-1.2,0.4c-0.3,0.1-0.6,0.3-0.9,0.5c0,0-0.1,0.1-0.1,0.1c0,0-0.1,0-0.1,0l0,0
			c0.8,0.4-0.8,0-0.6,0.4c0,0.1,0.3,0,0.4,0c0,0-0.7,0.3-0.5,0.2c0.7,0-0.3,0.3-0.6,0.4c-0.2,0.1-0.7,0.4-1,0.3
			c0.4-0.4,0.8-0.6,1.2-0.9c0.7-0.6-0.2-0.1-0.1-0.1c0,0,0.1,0,0.1,0c0,0,0.1,0,0.2-0.1c0,0-0.1,0.1-0.2,0.1c0,0-0.1,0-0.1,0
			c-0.1,0.1-0.3,0.1-0.2,0c-0.4,0.2-0.8,0.5-1.1,0.8c-0.1,0.1-0.2,0.1-0.3,0.2c0,0,0,0.1-0.1,0.1c0,0,0,0,0.1-0.1
			c-0.3,0.2-0.6,0.3-0.8,0.5c0-0.2,0.4-0.5,0.5-0.6c-0.3,0.2,0-0.1,0.1-0.2c-0.3,0.1-0.6,0.4-0.8,0.7c-0.2,0.2-0.4,0.5-0.7,0.5
			c0.4-0.9,1.2-1.3,2-1.9c-0.1,0.1-0.1,0.1-0.1,0c-0.2,0.1-0.3,0.2,0-0.1c0,0,0,0,0,0c-0.1,0.1-0.2,0.1-0.3,0.1
			c0.1,0,0.2-0.1,0.3-0.1c0.3-0.2,0.5-0.5,0.8-0.5c-0.1,0.1-0.2,0.3-0.1,0.4c0.2-0.1,3.4-1.2,3.3-1.4c0-0.1-0.1-0.1-0.2-0.1
			c0.1,0,0.7-0.3,0.6-0.2c0.2-0.1,0.5-0.1,0.7-0.3c-0.2,0.1,0.2-0.3,0.3-0.2c-0.5,0-0.1-0.1,0.2-0.2c0-0.1,0.4-0.3,0.4-0.3
			c-0.2,0.1-0.4,0.1-0.6,0.2c0.3-0.1,0.5-0.2,0.8-0.4c-0.2,0.1-0.4,0.2-0.6,0.2c0.1-0.1,0.3-0.3,0.6-0.4c0,0,0,0,0,0c0,0,0,0,0,0
			c0,0,0.1-0.1,0.1-0.1c0,0,0,0,0,0s0,0,0,0c0.3-0.2,0.7-0.4,1.1-0.6c-0.8,0.2-1.7,0.5-2.5,0.8c0.3-0.1,0.6-0.2,0.9-0.2
			c-0.7,0.3-1.5,0.4-2.2,0.8c0.7-0.3,1.4-0.5,2.2-0.6c-0.3,0.3-0.9,0.6-1.6,0.9c0,0,0,0,0,0c0,0,0,0,0,0c-0.6,0.3-1.1,0.4-1.5,0.3
			c-0.1,0,0.2-0.2,0.3-0.2c-0.1,0.1-0.3,0.1-0.4,0.2c0.1-0.1,0.3-0.2,0.4-0.3c-0.2,0.1-0.3,0.2-0.5,0.2c0.2-0.1,0.4-0.2,0.6-0.4
			c-0.5,0-0.8,0.5-1.3,0.6c0.1-0.1,0.1-0.1,0.2-0.2c-1.1,0.4-2.1,1-3.1,1.5c-2.2,1.3-4.2,2.9-6.2,4.5c-0.1,0.1-0.2,0.2-0.3,0.3
			c0.9-0.7,2-1.4,2.8-1.9c1.2-0.9,2.4-2.1,3.9-2.3c-0.9,1.2-2.5,1.8-3.4,3.1c0.5-0.2,0.9-0.5,1.4-0.6c-1,0.6-1.7,1.6-2.6,2.1
			c-0.4,0.3-0.8,0.8-1.2,1.3c-0.2,0.3-0.3,0.5-0.7,0.6c-0.2,0-0.3,0.1-0.4,0.2c0.2,0,0.3,0,0.5,0c-0.5,0.8-2.8,2.2-2.1,0.3
			c-0.2,0.1-0.5,0.3-0.7,0.4c0.1,0,0.4,0.3,0.2,0.4c0.9-0.8,0,0.6-0.2,0.7c0.2,0,0.1-0.4,0.2-0.5c-0.1,0.1-0.8,0.5-0.6,0.2
			c-0.1,0.1-0.7,0.8-1,1.3c-0.1,0.2-0.2,0.3-0.2,0.5c0-0.1,0.1-0.3,0.2-0.5c0,0,0-0.1,0-0.1c-0.1,0-0.1,0.1-0.2,0.1
			c-0.1,0.1-0.1,0.1,0,0.1c0,0-0.1,0-0.1,0c-0.1,0.3-0.2,0.4-0.2,0.3c0-0.1,0.1-0.2,0.2-0.3c-0.1,0-0.2,0.1-0.3,0.1
			c0.4-0.4-0.3,0.1,0-0.2c-0.1,0.1-0.5,0.4-0.3,0.1c-0.3,0.3-1,0.5-1.1,1c0,0-0.1,0.1-0.2,0.2l0,0v0c-0.1,0.1-0.1,0.1-0.2,0.2
			c-5.1,6.8-8.4,15-9.1,24c0,0.4,0.1,0.9,0.1,1.1c0.1,1.3,0.2,2.6,0.2,3.9l0,0c0,0.1,0,0.2,0,0.3c0-0.1,0-0.2,0-0.3
			c-0.1,0-0.3,0.5-0.3,0.5c-0.1,0.1,0,1.5,0.2,0.4c0,0,0,0,0,0c0,0,0-0.1,0-0.2c0-0.1,0-0.2,0.1-0.3c0.1,0.1-0.1,1.5,0,1.4
			c0.1-0.1,0.1-0.3,0.2-0.4c-0.2,0.7-0.3,1-0.1,1.8c0.3,1.3-0.2,2.5,0.1,3.3c0.3,0.9,0.8,1.7,0.7,2.7c0,0.5,1,3.5,0.8,4
			c-0.1,0,0.3,0.7,0.2,0.6c0.3,1.8,1.2,1,1.3,2.8c-0.1-0.1-0.2-0.2-0.3-0.3c6.9,16.6,23.1,28.4,42.1,28.6c1.2-0.1,2.4-0.4,3.5-0.5
			c0.7-0.1,1.9-0.5,2.5-0.1c0,0-0.3,0.2-0.3,0.2c0.9-0.1,1.8-0.1,2.6-0.2c0.3-0.1,0.6-0.2,1-0.2c0,0,0.4,0,0.5,0
			c12.2-2.5,22.6-9.7,29.3-19.7c-0.3,0.3-0.6,0.5-0.9,0.7c-0.3-0.6,0.7-1.5,0.9-2.1c0.2-0.5,0.2-1,0.4-1.4c0-0.1,0.4-1.3,0.3-0.4
			c0.2-0.8,0.4-1.7,0.9-2.5c0,0,0,0,0-0.1c0,0,0,0.1,0,0.1c0.1,0,0.3-0.3,0.4-0.3c0.1-0.2,0.2-0.3,0.3-0.5c0.3-0.5,0.6-1,0.9-1.4
			c0.4-0.6,0.8-1.1,1-1.8c0.2-0.4,0.1-1,0.4-1.3c0.1,0,0.1,0,0.1,0.2c0.3-1,0.4-2.1,1.1-2.9c0,0.3,0,0.5-0.1,0.8
			c0.5-1.2,0.7-2.4,1.1-3.6c0,0.1,0,0,0.1-0.2c0.2-1.1,0.4-2.2,0.5-3.3c0,0.1,0,0.2-0.1,0.3c-0.2-0.2,0.1-0.4,0.1-0.6
			c-0.1-0.1-0.1-0.3,0-0.4c0,0.1,0,0.2,0,0.4c0-0.5,0.1-1,0.1-1.5C124.1,100.6,124,100.5,124,100.4z M106.1,60.3
			C106.1,60.3,106.1,60.3,106.1,60.3C106.1,60.3,106.1,60.3,106.1,60.3z M116,77c0,0,0.1,0.1,0.1,0.1C116.1,77.2,116,77.1,116,77z
			 M117.3,92.2c-0.5,0.7-0.6-0.6-0.4-0.9C117.3,90.6,117.5,91.9,117.3,92.2z M77.4,116.6c0-0.1,0-0.2,0-0.2c0.1,0,0.2,0.1,0.2,0.2
			C77.5,116.6,77.5,116.6,77.4,116.6z M74.9,88.4c-0.2,0.2-0.4,0.6-0.8,0.7c-0.2,0.1-0.6,0-0.7-0.3C73.9,88.7,74.4,88.5,74.9,88.4z
			 M70.7,87.4C70.8,87.4,70.4,87.4,70.7,87.4L70.7,87.4z M70.4,88.3C70.4,88.4,70.4,88.3,70.4,88.3C70.4,88.3,70.4,88.3,70.4,88.3z
			 M70,87.3C70,87.3,70,87.3,70,87.3C70,87.3,69.9,87.3,70,87.3z M70,86.7c0-0.1,0.2,0,0.2,0C70.1,86.9,70,86.8,70,86.7z M70.1,87.3
			c0-0.1,0.2-0.1,0.1,0C70.2,87.4,70.1,87.4,70.1,87.3z M70.3,85.8c-0.1,0.2-0.4-0.1-0.3-0.2C70.2,85.4,70.4,85.6,70.3,85.8z
			 M69.9,86.2c0.1,0,0.1,0.2,0.1,0.2C69.9,86.3,69.9,86.2,69.9,86.2z M69.9,88.6c-0.2,0.6-1.3-0.2-1.6-0.4
			C68.4,88.1,70,88.3,69.9,88.6z M67.7,87.4C67.4,87.4,67.8,87.1,67.7,87.4L67.7,87.4z M67,86.1c-0.1,0-0.3,0-0.2-0.1
			C66.8,86,67,86.1,67,86.1z M66.6,84.9C66.8,84.9,66.5,85.2,66.6,84.9L66.6,84.9z M63.7,85.7c-0.4,0.9-0.5,0.9-1.3,0.3
			C61.6,85.3,63.3,85.6,63.7,85.7z M61.5,81.6c0,0.1-0.1,0.2-0.1,0.3C60.9,83.8,60.4,81.5,61.5,81.6z M61,83
			c0.6,0.2,0.1,1.4-0.4,1.5C60.1,84.5,60.2,82.7,61,83z M58.6,83.2c0.1,0,0.2,0.1,0.1,0.3C58.7,83.4,58.4,83.3,58.6,83.2z
			 M57.6,83.1c0.2,0,0.3,0.1,0.3,0.3C57.5,83.9,57.5,83.3,57.6,83.1z M56.7,83.3c0,0-0.2,0.3-0.2,0.1C56.4,83.3,56.7,83.3,56.7,83.3
			z M72.9,66.9C72.9,67,72.9,67,72.9,66.9C72.9,67,72.9,67,72.9,66.9z M70.5,72.1c0-0.1,0.1-0.1,0.1-0.1
			C70.6,72.1,70.5,72.1,70.5,72.1z M71.1,71.2c-0.1,0.1-0.1,0.1-0.2,0.2C70.7,71.2,71,71.1,71.1,71.2z M70.5,71.6
			c0.2-0.3,0.5,0.3,0.6,0C71,71.9,70.2,72.1,70.5,71.6z M70.1,70.1c0.1,0,0.2,0.1,0.2,0.3C69.9,70.7,70.1,70.2,70.1,70.1z M69.8,70
			C69.8,70,69.8,70,69.8,70C69.8,70,69.8,70,69.8,70z M69.4,72c0,0-0.1,0.1-0.1,0.1c-0.1,0.2-0.3,0.4-0.5,0.6
			C68.5,72.1,69.1,72.4,69.4,72z M68.4,74.4c0,0-0.1,0-0.1,0C68.3,74.4,68.4,74.4,68.4,74.4z M66.9,73.5c0,0,0.3,0.3,0.2,0.3
			C66.9,73.8,66.8,73.7,66.9,73.5z M64.9,73.9c0-0.1,0.1-0.2,0.2-0.3C65.1,73.7,65,73.8,64.9,73.9z M65.7,73.9
			C65.6,74,65.4,74,65.2,74c0-0.1,0-0.2,0-0.3C65.3,73.7,65.6,73.9,65.7,73.9c0,0,0.1,0,0.2-0.1C65.8,73.8,65.8,73.9,65.7,73.9z
			 M65.5,73.5c-0.6-0.1,0.3-0.6,0.3-0.7C65.8,72.9,66,73.6,65.5,73.5z M64.7,69.7C64.7,69.7,64.7,69.7,64.7,69.7
			C64.7,69.7,64.7,69.7,64.7,69.7z M96.2,55.5C96.2,55.6,96.1,55.5,96.2,55.5C96.1,55.5,96.2,55.5,96.2,55.5z M95.3,56.1
			c0,0-0.1,0-0.2-0.1C95.2,56,95.3,56.1,95.3,56.1z M95.4,56C95.4,56,95.4,56,95.4,56C95.4,56,95.4,56,95.4,56z M95.3,54.8
			C95.3,54.8,95.3,54.8,95.3,54.8C95.4,54.8,95.3,54.8,95.3,54.8c-0.1,0-0.2,0-0.3-0.1C95,54.6,95.2,54.7,95.3,54.8z M93.7,57.6
			c0,0,0.2,0.2,0.2,0.2C93.9,57.9,93.7,57.6,93.7,57.6z M93.8,57.8c0.1,0,0.1,0,0.2,0.1C94,57.8,93.9,57.8,93.8,57.8z M94.2,57.8
			C94.2,57.8,94.3,57.8,94.2,57.8C94.2,57.9,94,57.6,94.2,57.8z M94.6,57.9C94.6,57.9,94.5,57.9,94.6,57.9
			C94.5,57.9,94.6,57.9,94.6,57.9z M94.4,57.8C94.6,58,94.3,57.9,94.4,57.8C94.4,57.8,94.4,57.8,94.4,57.8z M94.3,57.7
			c0.2,0.1,0.1,0.1-0.3-0.1C94.1,57.6,94.2,57.6,94.3,57.7z M94,57.7C94,57.7,94,57.7,94,57.7C93.9,57.7,94,57.6,94,57.7z
			 M93.9,57.6c0,0.1-0.2-0.1-0.1-0.1C93.8,57.5,93.8,57.5,93.9,57.6z M93.2,57.4c0,0,0.1,0,0.2,0C93.4,57.5,93.2,57.5,93.2,57.4z
			 M93.4,57.6C93.4,57.6,93.5,57.6,93.4,57.6C93.4,57.6,93.4,57.6,93.4,57.6z M93.5,57.5C93.5,57.5,93.5,57.5,93.5,57.5
			C93.5,57.5,93.5,57.5,93.5,57.5z M93.7,57.5C93.6,57.6,93.4,57.4,93.7,57.5C93.6,57.5,93.6,57.5,93.7,57.5z M92.8,56
			c0.2-0.1,0.6,0,0.7,0.1C93.9,56.2,92.7,56.1,92.8,56z M93.3,53.7c-0.2,0-0.4,0-0.5-0.2c0,0-0.1-0.1-0.1-0.1
			C92.7,53.3,93.3,53.6,93.3,53.7z M92.7,53L92.7,53L92.7,53z M92.9,56.1c-0.1,0-0.2-0.1-0.3-0.1C92.6,55.9,92.9,56.1,92.9,56.1z
			 M91.1,58.1c0.1,0.1,0.1,0.1,0.2,0.2C91.3,58.3,91,58.2,91.1,58.1z M91.9,55.2c0,0.1-0.8-0.1-0.8-0.1C91.3,55,91.7,54.8,91.9,55.2
			z M91.8,55.6c-0.2,0-0.5-0.1-0.7-0.2C91.2,55.1,92.1,55.6,91.8,55.6z M92.4,56c0.1,0.1-1.5-0.4-1.7-0.4
			C91.2,55.6,92.1,55.7,92.4,56z M87.6,58.1c0,0.2-0.1,0.1-0.2,0C87.4,58,87.6,58,87.6,58.1z M87.3,58.4
			C87.3,58.4,87.2,58.4,87.3,58.4C87.2,58.4,87.3,58.4,87.3,58.4z M79.6,57.4c0,0,0.1,0.2,0.1,0.2C79.6,57.5,79.5,57.5,79.6,57.4z
			 M79.7,57.1c0-0.1,0.2,0,0.2,0.1C79.8,57.1,79.6,57.3,79.7,57.1z M79.8,56.6c0,0.1-0.1,0-0.1-0.1C79.7,56.5,79.8,56.6,79.8,56.6z
			 M79.7,56.4c0.1,0,0.2,0.1,0.2,0.2C80,56.6,79.7,56.5,79.7,56.4z M79.8,57C79.7,57,79.8,56.9,79.8,57C79.8,57,79.8,57,79.8,57z
			 M79.9,57.2C79.9,57.2,79.9,57.2,79.9,57.2C79.9,57.2,79.9,57.2,79.9,57.2z M80,56.7c0,0-0.1,0-0.1,0C79.8,56.5,80,56.7,80,56.7z
			 M80,57.2C79.8,57.1,80.1,57.1,80,57.2L80,57.2z M80.5,57.3c0,0,0.1,0.1,0.1,0.1c0,0,0,0,0,0s0,0,0,0
			C80.6,57.4,80.5,57.4,80.5,57.3z M82.7,63.2C82.7,63.2,82.7,63.3,82.7,63.2C82.7,63.3,82.6,63.3,82.7,63.2z M83.3,64.7
			C83.3,64.6,83.4,64.6,83.3,64.7C83.4,64.6,83.4,64.7,83.3,64.7z M83.2,63.4c0.1,0,0.8,0.2,0.7,0.4C83.8,64.1,83.2,63.4,83.2,63.4z
			 M84.2,56.5c0.1,0,0.6,0.1,0.6,0.2C84.7,57.1,84.2,56.5,84.2,56.5z M85.1,61.1c-0.1,0.1-0.3-0.2-0.2-0.3c0.1,0.1,0.2,0.1,0.3,0.1
			C85.1,61,85.1,61.1,85.1,61.1z M85.8,61.1c0,0,0.1,0,0.1,0.1C85.9,61.2,85.8,61.1,85.8,61.1z M86.9,61.3c0-0.1,0-0.3,0.1-0.2
			C87.1,61.3,87,61.5,86.9,61.3z M87,60.8c0-0.1-0.3,0-0.3-0.1C86.7,60.5,86.9,60.8,87,60.8z M86.5,57.1c0.1-0.2-1-0.7-1.2-0.8
			C85.7,56.4,86.7,56.7,86.5,57.1z M85.7,56.8c-0.3,0.1-1.3-0.2-1.6-0.4c-0.3-0.1-0.4-0.4-0.6-0.6c0.6,0.1,1.2,0.3,1.7,0.7
			C84.6,55.9,85.6,56.7,85.7,56.8z M83.2,56.1c-0.1,0-0.1-0.1-0.2-0.1C83,55.9,83.3,56,83.2,56.1z M81.1,61.8c0-0.2,0.1-0.3,0.2-0.5
			c-0.2,0.1-0.3-0.5-0.1-0.6c0.2-0.3,0.1-0.4,0.3-0.7c0.3-0.3,1-0.4,1.1-0.8c0.1-0.2,0.4-0.6,0.5-0.2c0.1,0.5-0.7,0.9-1,1.4
			c-0.1,0.2-0.2,1-0.7,0.8c0.4,0.3,0.4,0.6,0.6,1c0.2,0.5,0.6,0.4,0.9,0.8c0.2-0.1-1.4,0.6-1.2,0c0.3-0.6-1-0.4-0.7-0.8
			C81.1,62.1,81.1,62.3,81.1,61.8z M80.9,64.6c-0.1,0.1-0.4-0.3-0.2-0.5C80.8,64.4,81.2,64.3,80.9,64.6z M80.7,56.4
			c0.1,0,0.1,0.1,0.2,0.1c0,0.1,0,0.2-0.1,0.3C80.8,56.8,80.5,56.5,80.7,56.4z M80.7,57.1c-0.2,0-0.3-0.4-0.2-0.4
			C80.4,56.8,80.8,57.1,80.7,57.1z M80.4,57c0.1,0.3,0,0.3-0.2-0.1C80.3,57,80.3,57,80.4,57z M80.3,57.1c0,0.1,0,0.1,0.1,0.1
			C80,57.4,80.2,56.9,80.3,57.1z M80,56.4c0,0,0.1,0.1,0.1,0.1C80,56.6,80,56.4,80,56.4z M79.7,56.3c0,0,0.2,0,0.2,0.1
			C80,56.6,79.8,56.3,79.7,56.3z M79.9,56.3C79.9,56.3,79.9,56.3,79.9,56.3C79.9,56.3,79.9,56.3,79.9,56.3z M79.8,56.1
			C79.8,56,79.8,56.1,79.8,56.1C79.8,56.1,79.8,56,79.8,56.1z M79.7,56.2C79.8,56.2,79.8,56.2,79.7,56.2
			C79.7,56.2,79.7,56.1,79.7,56.2z M79.6,56.3C79.7,56.3,79.7,56.4,79.6,56.3C79.6,56.4,79.6,56.4,79.6,56.3z M79.7,55.8
			C79.7,55.8,79.6,55.7,79.7,55.8C79.5,55.7,79.7,55.8,79.7,55.8z M79.7,56C79.8,56.1,79.6,55.9,79.7,56C79.7,55.9,79.7,56,79.7,56z
			 M79.7,56.1C79.7,56.1,79.6,56.2,79.7,56.1C79.6,56.1,79.6,55.9,79.7,56.1z M79.5,57.4c0,0-0.2-0.1-0.1-0.2
			C79.5,57.2,79.5,57.4,79.5,57.4z M79.3,56.9c0.4,0,0,0.4-0.1,0.5c0,0-0.3-0.3-0.1-0.3C79.1,57.1,79.4,57.1,79.3,56.9z M79,56.8
			c0,0,0.2,0.2,0.2,0.2c-0.2,0-0.4,0.3-0.7,0.2C78.8,57.2,78.7,56.8,79,56.8z M68.3,52.2C68.3,52.2,68.2,52.3,68.3,52.2
			C68.2,52.2,68.3,52.2,68.3,52.2z M61.8,54.2C61.8,54.2,61.8,54.3,61.8,54.2C61.7,54.3,61.8,54.2,61.8,54.2z M59.1,55.4
			c0,0,0.1,0,0.1,0C59.2,55.3,59.2,55.4,59.1,55.4z M60.9,54.8c0.1-0.1,0.4-0.1,0.5-0.2C61.2,54.7,61,54.7,60.9,54.8z M60.4,55.4
			C60.4,55.4,60.4,55.4,60.4,55.4C60.3,55.4,60.4,55.4,60.4,55.4z M60.4,55.4C60.4,55.4,60.4,55.4,60.4,55.4
			C60.4,55.4,60.4,55.4,60.4,55.4z M60.4,55.5C60.2,55.6,60.6,55.4,60.4,55.5L60.4,55.5z M60.2,55.6c0,0-0.2,0-0.2,0
			C60.1,55.6,60.1,55.6,60.2,55.6z M60,55.6c0,0-0.1,0.1-0.2,0.1C59.9,55.6,59.9,55.6,60,55.6z M59.8,55.9
			C59.9,55.9,59.9,55.9,59.8,55.9C59.9,55.9,59.9,55.9,59.8,55.9z M59.8,55.9C59.8,55.9,59.8,55.9,59.8,55.9
			C59.8,55.9,59.8,55.9,59.8,55.9z M58.7,56.5c0-0.1,0.2-0.1,0.3-0.1C58.9,56.4,58.8,56.4,58.7,56.5z M58.8,56.3
			c0,0.1-0.2,0.2-0.3,0.2C58.6,56.4,58.7,56.4,58.8,56.3z M58.5,56.5c0,0-0.1,0.1-0.2,0.1C58.2,56.7,58.5,56.4,58.5,56.5z
			 M58.5,56.5c-0.1,0-0.4,0.1-0.4,0.1C58.2,56.5,58.3,56.5,58.5,56.5z M57.1,57.2C56.9,57.2,57.6,57.1,57.1,57.2L57.1,57.2z
			 M57.6,56c-0.1,0-0.2,0.1-0.3,0.1C57.5,56.1,57.6,56,57.6,56z M55.6,56.9c-0.1-0.4,1.5-0.7,1.7-0.8c-0.1,0.3-1.8,1.1-1.9,1
			c0.2-0.1,0.3-0.2,0.5-0.3c0.1,0,0.2-0.1,0.3-0.2C56,56.6,55.9,56.9,55.6,56.9z M55.2,57.2c-0.1,0.1-0.2,0.1-0.4,0.1
			C55,57,55.2,57.2,55.2,57.2z M54.9,57.8c0,0-0.1,0.1-0.1,0.1C54.8,57.8,54.9,57.8,54.9,57.8z M54.7,57.9c0,0-0.1,0.1-0.1,0.1
			C54.5,57.9,54.6,57.9,54.7,57.9z M54.6,58c0,0-0.2,0.1-0.2,0.1C54.5,58.1,54.6,58,54.6,58z M50.2,60.3
			C50.2,60.3,50.2,60.3,50.2,60.3C50.2,60.3,50.2,60.3,50.2,60.3z M48.3,61.6c0-0.1,0.2-0.3,0.3-0.3C48.6,61.4,48.3,61.6,48.3,61.6z
			 M50.3,60.3c-0.1,0-0.1,0.1-0.2,0.1c0.1-0.1,0.3-0.2,0.5-0.3C50.5,60.2,50.4,60.2,50.3,60.3z M50.6,60.1
			C50.6,60.1,50.7,60,50.6,60.1C50.7,60,50.6,60.1,50.6,60.1z M54.1,58c0-0.1,0.4-0.2,0.4-0.2C54.3,57.9,54.2,58.1,54.1,58z
			 M54.3,58.4C54.2,58.5,54.2,58.5,54.3,58.4C54.2,58.5,54.2,58.5,54.3,58.4z M53.6,59.1c0,0-0.1,0.1-0.1,0.1
			C53.4,59.2,53.6,59.1,53.6,59.1z M56.2,73.8c-0.2,0-0.5,0-0.7,0c0.1,0,0.2-0.1,0.2-0.2c-0.3-0.4,0.7-0.5,0.9-1
			c-0.4,0.5-0.2-1,0.4-0.6c0.2,0.1,0.9-0.3,1.1-0.4c0.1,0.1-0.1,0.3-0.2,0.3c0.9-0.1,0,0.5-0.2,0.7c-0.2,0.2-0.2,0.5-0.4,0.8
			C57.1,73.7,56.6,73.6,56.2,73.8z M59.9,71.5c0.3,0.1,0.6,1.6,0.4,1.8c-0.2-0.2-0.3-0.1-0.3,0.3c0,0.1,0,0.3,0,0.4
			c1.2-0.2-1,0.9-0.1,1c-0.4,0.3-0.9,0.2-1.4,0.1c0,0-0.1,0-0.1,0c0,0,0,0,0.1,0c-0.1,0-0.2,0-0.3-0.1c-0.3-0.1-0.7-0.1-1.1-0.1
			c-0.2-0.1-0.4,0.2-0.6,0.2c0.3-0.8,1.3-0.3,1.8-0.9c-0.3,0-0.6,0-0.8,0c0.1-0.2,0-0.2-0.2-0.2c0,0,0,0,0,0c0,0,0,0,0,0
			c0,0,0,0,0,0c0,0,0,0,0,0c0.2-0.1,1-0.6,0.4-0.7c0.1-0.1,0.5-0.5,0.6-0.5c-0.2,0.3,0.4,0.1,0.5,0c0.2-0.2,0-0.6,0.3-0.7
			c-0.2-0.2-0.4-0.1-0.7-0.2c-0.1,0,0.4-0.7,0.5-0.7c-0.1-0.1-0.2-0.1-0.3,0c0.5-0.7,0.9-1.8,2-1.9c0.2,0-0.6,0.7-0.7,0.8
			C61.4,70.3,60.3,71.2,59.9,71.5z M58.5,71.5C58.5,71.5,58.5,71.5,58.5,71.5C58.5,71.5,58.5,71.5,58.5,71.5z M58.7,71.1
			C58.7,71.1,58.7,71,58.7,71.1C58.7,71,58.7,71.1,58.7,71.1z M58.7,71.6C58.8,71.5,58.8,71.5,58.7,71.6
			C58.8,71.5,58.8,71.5,58.7,71.6z M58.9,71.1c0.1,0.2-0.2,0.1-0.2,0.2C58.8,71.2,58.8,71.1,58.9,71.1z M58.8,71c0,0,0-0.1,0-0.1
			C58.9,70.9,58.8,71,58.8,71z M59,70.8c0,0.1,0,0.1,0,0.2C58.8,71.1,58.8,70.6,59,70.8z M58.9,70.2C58.9,70.1,59,70.1,58.9,70.2
			C58.9,70.1,58.9,70.1,58.9,70.2z M59.1,69.9c0-0.1,0.1,0,0.2,0C59.2,69.9,59,70,59.1,69.9z M59.5,70c0,0,0,0.1-0.1,0.1
			c-0.1,0.2-0.2,0.5-0.2,0.5c-0.1,0.1,0.1-0.3,0.2-0.5C59.5,70,59.5,70,59.5,70z M59.3,69.9c0.2-0.2,0.6-0.2,0.7-0.5
			c-0.1,0.1-0.2,0.3-0.3,0.4C59.5,69.8,59.4,69.9,59.3,69.9z M61.6,63.9c-0.3,0.3-0.3,0.6-0.9,0.9c-0.6,0.3-1.2,0.2-1.8,0.1
			c0.6-0.1-0.1-0.3-0.2-0.5c-0.1-0.2,0.6,0,0.3-0.6c0,0,0.7-0.2,0.7-0.2c0-0.1-0.3-0.3-0.4-0.2c0.1-0.2,0.6-0.4,0.8-0.4
			C60,63.1,60,63.2,60,63.3c0.1-0.2,0.2-0.3,0.4-0.3c0,0.4-0.5,0.4-0.5,0.7c0.3-0.3,0.7-0.4,1.2-0.3c-0.2,0.1-0.2,0.2-0.2,0.3
			c0.4-0.4,0.7,0,1.2,0C61.8,63.8,61.7,63.8,61.6,63.9z M60.2,62.9c0.1-0.1,0.2-0.1,0.2,0C60.5,63.1,60.3,62.9,60.2,62.9z
			 M62.4,74.3c0,0,0.3-0.2,0.2,0C62.6,74.3,62.5,74.3,62.4,74.3z M62.3,69c0.1-0.1,0.2-0.2,0.3-0.4C62.5,68.7,62.3,69,62.3,69z
			 M62.9,68.5C62.8,68.5,62.9,68.4,62.9,68.5C62.9,68.4,62.9,68.5,62.9,68.5z M64.4,69.9C64.4,69.8,64.4,69.8,64.4,69.9
			C64.4,69.8,64.4,69.8,64.4,69.9z M64.5,69.7C64.4,69.7,64.5,69.8,64.5,69.7C64.5,69.8,64.4,69.7,64.5,69.7z M64.6,69.6L64.6,69.6
			C64.6,69.5,64.6,69.6,64.6,69.6z M66.6,67.7C66.6,67.5,66.7,67.6,66.6,67.7C66.6,67.6,66.6,67.7,66.6,67.7z M67.1,67.3
			c0.1,0,0.1-0.1,0.2-0.1C67.3,67.3,67.3,67.4,67.1,67.3z M67.1,58.7C67.2,58.6,67.2,58.7,67.1,58.7L67.1,58.7c0.1,0,0.1,0,0.1,0
			c0,0,0,0,0,0L67.1,58.7C67.2,58.7,67.2,58.6,67.1,58.7z M67.1,58.6L67.1,58.6C67.1,58.6,67.1,58.6,67.1,58.6
			C67,58.6,67,58.6,67.1,58.6C67,58.6,67,58.6,67.1,58.6C67.1,58.6,67.1,58.6,67.1,58.6C67.1,58.6,67.1,58.6,67.1,58.6
			c0.1,0,0.2-0.1,0.2-0.2C67.2,58.5,67.2,58.6,67.1,58.6z M67.5,58.5c0.1-0.2,0.3-0.3,0.6-0.3C67.8,58.3,67.9,58.5,67.5,58.5z
			 M68.2,58c0,0,0.3-0.3,0.4-0.3C68.6,57.8,68.2,57.9,68.2,58z M68.7,57.7C68.6,57.7,68.7,57.6,68.7,57.7
			C68.7,57.6,68.7,57.6,68.7,57.7z M70.3,64.7C70.2,64.8,70.1,64.6,70.3,64.7C70.3,64.6,70.3,64.7,70.3,64.7z M70.7,64.6
			c-0.1,0-0.2,0-0.3,0.1C70.5,64.5,70.9,64.5,70.7,64.6z M70.9,64.5c-0.1-0.5,0.4-0.1,0.5-0.2C71.3,64.3,70.9,64.7,70.9,64.5z
			 M71.4,64C71.4,64,71.5,64,71.4,64C71.5,64,71.4,64,71.4,64z M71.5,64.2C71.5,64.1,71.5,64.1,71.5,64.2c0.2-0.3,0.6-0.7,0.5-0.4
			C71.9,63.9,71.7,64,71.5,64.2C71.5,64.1,71.5,64.2,71.5,64.2z M71.5,64C71.4,64,71.5,64,71.5,64C71.5,64,71.4,64,71.5,64z
			 M72.2,63.5c0,0,0.2,0,0.1,0C72.2,63.6,72.1,63.5,72.2,63.5z M72.4,63.4c-0.2-0.1,0.1-0.2,0.1-0.2C72.5,63.3,72.5,63.4,72.4,63.4z
			 M72.7,63.2c0,0-0.1-0.2,0-0.2C72.8,63,72.8,63.2,72.7,63.2z M72.9,63.3c-0.1,0,0.1-0.2,0.1-0.1C72.9,63.2,72.9,63.2,72.9,63.3z
			 M73.4,63.1C73.4,63.2,73.4,63.2,73.4,63.1C73.4,63.2,73.4,63.2,73.4,63.1z M73.3,63c0-0.1,0.4-0.3,0.4-0.3
			C73.6,62.9,73.4,63,73.3,63z M73.6,63.2c-0.1-0.1,0.1-0.2,0.2-0.2C73.8,63.1,73.7,63.3,73.6,63.2z M74,62.9c0,0,0-0.1,0-0.1
			C74,62.7,73.9,62.9,74,62.9z M74.4,62.9c0-0.1,0-0.2,0.1-0.2C74.5,62.8,74.5,63.1,74.4,62.9z M75.1,63C75.2,63,75.2,63,75.1,63
			C75.2,63,75.2,63,75.1,63z M74.8,59.1c0.1-0.2,0.9-0.5,0.8-0.1C75.4,59.2,74.9,59,74.8,59.1z M75,58.4c0.1-0.1,0.3-0.1,0.3,0.1
			C75.2,58.6,74.9,58.5,75,58.4z M76.3,58.3c-0.1,0-0.1-0.1,0-0.1C76.3,58.1,76.3,58.3,76.3,58.3z M76.7,58.1c0,0.1-0.1,0-0.2,0
			C76.5,58,76.7,58,76.7,58.1z M76.1,57C76.1,57,76.1,57.1,76.1,57C76.1,57.1,76.1,57,76.1,57z M75.7,57.1c0.3-0.1,0.5,0.2,0.7-0.1
			c0,0.1-0.1,0.2-0.1,0.3c0-0.1,0.3,0,0.4,0c-0.2,0.3-0.5,0.8-0.9,0.6c-0.5-0.2-0.1-0.2,0-0.4C75.7,57.4,75,57.4,75.7,57.1z
			 M74.6,57.5c0.1-0.1,0.2-0.1,0.3-0.1c-0.1,0.1-0.2,0.3-0.2,0.5c0.2-0.3,0.4-0.5,0.6-0.8c0,0.7-0.5,1.8-1.2,2.2
			c-0.3,0.2-0.4-0.3-0.4-0.5c0-0.1,0.1-0.1,0.2-0.1h0l0,0c0.1,0,0.3-0.1,0.3-0.1c-0.2,0.1-0.3,0.1-0.4-0.1c0-0.3,0.6-0.1,0.8-0.2
			c-0.1-0.1-0.2-0.2-0.1-0.3c0,0-0.4,0.3-0.4,0.2c0-0.1,0-0.2,0-0.3C74.1,57.9,74,58,74,58c-0.1,0,0.2-0.4,0.2-0.4
			c0,0,0,0.1-0.1,0.2c0.1-0.3,0.5-0.6,0.7-0.6C74.8,57.3,74.5,57.4,74.6,57.5z M71,51.7c-0.2,0,0.5,0,0.6,0c-0.3,0-0.1,0.2,0,0.3
			c-0.1-0.1-0.6,0-0.8,0c0.5-0.1-0.1-0.1-0.1-0.1c0.1-0.1,0.3,0,0.4,0C71.1,51.8,70.3,51.8,71,51.7c-0.2,0.1-0.3,0.1-0.4,0
			C70.7,51.7,70.8,51.7,71,51.7z M71,52.3c0.1,0,0.2,0,0.2-0.1c0,0-0.1,0-0.2,0c0.1,0,0.1,0,0.2,0l0,0c0,0,0.1,0,0.2,0
			c-0.1,0-0.1,0-0.2,0l0,0C71.2,52.2,71.2,52.2,71,52.3z M71.3,52.2C71.3,52.2,71.3,52.2,71.3,52.2C71.3,52.2,71.3,52.2,71.3,52.2z
			 M71.3,52.2C71.4,52.2,71.4,52.2,71.3,52.2C71.4,52.2,71.4,52.2,71.3,52.2c0.1,0,0.1,0,0.1-0.1C71.4,52.1,71.4,52.2,71.3,52.2
			L71.3,52.2C71.4,52.2,71.4,52.2,71.3,52.2z M71.5,52.7c-0.1,0.1-0.5,0-0.6,0C71,52.7,71.5,52.7,71.5,52.7z M70.2,52.1
			c-0.2-0.1,0.8,0,0.8,0C70.8,52.3,70.3,52.2,70.2,52.1z M70.4,52.4c0,0-0.1,0-0.1,0C70.4,52.5,70.4,52.5,70.4,52.4z M70.2,51.9
			c0,0,0.1,0,0.2,0C70.3,51.9,70.2,51.9,70.2,51.9z M71,52.3C70.9,52.3,70.9,52.3,71,52.3C70.9,52.3,70.9,52.3,71,52.3z M70.6,52
			c0,0-0.1,0-0.2,0C70.3,52,70.6,51.9,70.6,52z M70,51.8L70,51.8L70,51.8c0.2-0.1,0.3,0,0.4,0.1c0,0-0.1,0-0.1,0
			C70.2,51.8,70.1,51.8,70,51.8z M70,52.2C69.9,52.2,69.9,52.2,70,52.2C69.9,52.2,69.9,52.2,70,52.2z M69.6,52.5
			c0.1,0.1,0.3,0,0.4,0C70,52.4,69.4,52.5,69.6,52.5z M69.6,52.6c-0.1,0-0.1,0-0.1,0c0.1-0.1,0.2,0,0.3,0c0.4-0.1,0.8-0.2,1.2-0.1
			c-0.2,0,0.3,0,0.4,0c-0.1,0.1-0.3,0.1-0.5,0c0.4,0-0.4,0-0.5,0.1c-0.1,0-0.3,0.1-0.5,0.1c0.2,0,0.4,0,0.4,0.1
			c-0.3,0.1-0.7,0.2-1.1,0.2c-0.1,0-0.1-0.1-0.2-0.1C69.1,52.8,69.4,52.7,69.6,52.6c-0.1,0.1-0.2,0.1-0.4,0.1
			C69.3,52.7,69.5,52.7,69.6,52.6z M69.2,52.5c-0.2,0.1-0.3,0.1-0.3,0C69,52.5,69.1,52.5,69.2,52.5z M68.9,52.9c0,0-0.3,0.4-0.3,0.1
			C68.5,52.9,68.8,52.8,68.9,52.9z M68.6,52.7c-0.1,0-0.2,0.1-0.3,0.1C68.4,52.8,68.5,52.8,68.6,52.7c0.1,0,0.1,0,0.2,0
			C68.7,52.7,68.7,52.7,68.6,52.7z M67.9,52.5c-0.1,0-0.2,0-0.3,0C67.7,52.6,67.8,52.6,67.9,52.5z M68,52.6C68,52.6,68,52.6,68,52.6
			C68,52.6,68,52.6,68,52.6c0.3-0.1,0.6-0.2,0.7-0.1l0,0c0,0,0,0,0.1,0c0,0-0.1,0-0.1,0l0,0c-0.1,0-0.2,0-0.3,0
			c0,0.2,0.2,0.2-0.3,0.3c-0.1,0.1-0.3,0.1-0.4,0l0,0c0.3,0,0.6,0.1,0.8,0c-0.2,0-0.6,0.2-0.8,0c-0.1,0-0.2,0-0.3,0
			c-0.1,0-0.2,0-0.2,0c-0.2,0-0.3,0-0.4,0.1c0.1-0.2,0.4-0.2,0.6-0.2C67.6,52.7,67.8,52.6,68,52.6z M67.4,53
			C67.4,53,67.4,53,67.4,53C67.3,53,67.4,53,67.4,53z M67.4,52.9L67.4,52.9L67.4,52.9z M67.4,52.9C67.4,52.9,67.5,52.9,67.4,52.9
			C67.5,52.9,67.4,52.9,67.4,52.9z M67.3,53.1C67.3,53.1,67.3,53.1,67.3,53.1S67.3,53.1,67.3,53.1S67.2,53.1,67.3,53.1
			C67.2,53.1,67.3,53.1,67.3,53.1z M67.1,53c0.1,0,0.3,0,0.3,0C67.3,53,67.1,53,67.1,53z M66,52.6c0.2-0.2,0.8-0.2,1-0.2
			C66.7,52.6,66.3,52.7,66,52.6z M66.5,53c0,0-0.1,0-0.1,0C66.4,53,66.5,53,66.5,53z M66.1,53.2c0,0,0,0-0.1,0
			C66.1,53.2,66.2,53.2,66.1,53.2z M66.5,53.2c0.2,0,0.4,0,0.6-0.1c-0.2,0.2-0.8,0-1.1,0.1C66.1,53.2,66.3,53.2,66.5,53.2z
			 M61.5,55.6c0,0,0.1,0,0.2-0.1C61.6,55.6,61.5,55.6,61.5,55.6z M61.2,55.9L61.2,55.9L61.2,55.9z M61.4,57.4c0,0-0.3,0.1-0.2,0.1
			C61.2,57.4,61.3,57.4,61.4,57.4z M61.3,57.6L61.3,57.6C61.2,57.5,61.3,57.6,61.3,57.6z M58.7,58.8C58.7,58.8,58.6,58.8,58.7,58.8
			C58.6,58.8,58.7,58.8,58.7,58.8z M57.5,58.1C57.6,58.1,57.6,58.1,57.5,58.1C57.6,58.1,57.6,58.1,57.5,58.1
			C57.5,58.1,57.5,58.1,57.5,58.1C57.5,58.1,57.5,58.1,57.5,58.1z M55.6,58.7C55.6,58.7,55.5,58.7,55.6,58.7
			C55.4,58.8,55.6,58.6,55.6,58.7z M54.2,59.6c-0.1,0-0.2,0.1-0.3,0.1C54,59.5,54.1,59.4,54.2,59.6z M53.1,60
			C53.2,60,52.7,60.1,53.1,60L53.1,60z M53,60.1C53,60.1,53,60.1,53,60.1C53,60.1,53,60.1,53,60.1z M53,63.3
			c0.2-0.1,0.3-0.3,0.4-0.4c-0.1,0.1-0.3,0.1-0.5,0c0.5-0.4,0.8-1,1.3-1.5c0.3-0.2,0.6-0.4,0.9-0.5c0.3-0.2,0.3-0.2,0-0.2
			c0.8-0.5,1.6-1.5,2.7-1.3c-0.4-0.1,0.1-0.2-0.4-0.2c0.2-0.1,0.6-0.3,0.7,0c0.4-0.2,0.6-0.5,1-0.5c-0.3,0.3,0.5-0.1,0.2-0.1
			c0.4-0.2,0.7-0.4,0.9-0.8c-0.2,0.1-1.1,0.8-1.3,0.5c-0.1-0.1,1.5-0.8,1.7-0.8c-0.1,0.2-0.2,0.4-0.4,0.6c0.1-0.1,1.4-0.9,1.4-1
			c-0.1,0-0.3,0-0.4,0c0.8-0.5,1.7-0.6,2.6-1c0.1,0,0.2-0.1,0.3-0.1c-0.2,0,0-0.1,0.1,0c0,0,0,0,0,0c0.6-0.3,1.2-0.7,1.9-1
			c-0.1,0-0.2,0-0.2-0.1c0,0,0,0,0.1,0c0,0,0-0.1-0.3-0.1c0.5-0.5,1.3-0.3,1.9-0.4c0.1-0.1,0.4-0.3,0.7-0.2c0.4,0,0.8,0.2,1.2,0.2
			c0.4,0,0.7-0.2,1.1-0.2c-0.3-0.1-0.7-0.1-1-0.1c0.2-0.1-0.1-0.1-0.1-0.1c0.2-0.1,0.4-0.1,0.5-0.1c-0.1,0-0.3,0-0.2,0
			c0,0-0.4,0.1-0.4,0.1l0,0v0h0c0,0-0.2,0.1-0.3,0.1c0,0-0.1,0-0.1,0c-0.4,0-0.1,0,0.1,0c0.1,0,0.2-0.1,0.3-0.1l0,0c0,0,0,0-0.1-0.1
			c0-0.1-0.2,0-0.4,0c0,0,0.1,0,0.1,0c-0.1,0.1-1.5,0.2-1.5,0.1c0,0,0.1-0.1,0.1-0.1c-0.5-0.1-0.9,0.3-1.3,0.2
			c0.3-0.1,0.6-0.1,0.9-0.2c-0.1,0-0.3,0-0.4,0c0.1-0.1,0.3-0.1,0.4-0.1c-0.2,0-0.4,0-0.6,0c0.1,0,0.7-0.1,0.3-0.1
			c0.1,0,0.2-0.1,0.4-0.1c-0.1,0-0.2,0-0.3,0c0.6-0.2-0.3-0.1-0.3-0.1c0.1,0,0.2,0,0.2,0c-0.2,0.1-0.4,0.1-0.6,0.2
			c0,0,0,0.1,0.1,0.1c-0.4,0.4-0.9,0.4-1.5,0.5c0.1-0.2,0.2-0.2,0.4-0.2c-0.3,0.1,0.3-0.3,0.4-0.4c-0.1,0.1-0.2,0-0.2-0.1
			c0.3-0.3,0.9-0.2,1.3-0.2c0.5-0.1,1-0.6,1.5-0.3c-0.1,0.3-0.6,0.3-0.8,0.3c0,0,0.1,0,0.3,0c-0.2-0.1-0.3-0.1-0.3,0.1
			c0.5,0.1,0.9,0.2,1.4,0.1c-0.1,0-0.5,0-0.6-0.1c0.1,0.2,0.7-0.1,0.9-0.1c0.1,0-0.5-0.1-0.4-0.1c-0.1,0-0.2,0-0.3,0
			c-0.1,0-0.2,0-0.2,0c0.1,0,0.1,0,0.2,0c0.2,0,0.3,0,0.4,0c0.1,0,0.3,0,0.3,0c-0.1,0-0.1,0-0.2,0c0.4-0.1,0.8-0.2,1.1-0.2
			c0.2,0,0.5-0.1,0.8,0c0.2,0,0.2,0.1,0,0.1c0.1,0,0.2,0,0.3,0c0,0,0.1,0,0.1,0c0.1,0,0.2,0,0.3,0c0.1,0,0.8-0.2,0.5,0
			c0.2,0,0.4,0,0.6,0c-0.4,0.1-0.9,0-1.3,0.1c-0.3,0.1-0.2,0.3-0.6,0.4c0.3,0,0.6,0.1,1,0.2c-0.7-0.3,0.2-0.2-0.6-0.3
			c0.2,0,0.3-0.1,0.3-0.1c-0.3,0,0.4-0.1,0,0h0c0.2,0,0.4,0,0.6,0c-0.6,0,0.5-0.3,0.4,0c0.1,0,0.2,0.1,0.4,0c-0.1,0.1-0.4,0-0.5,0
			c0.3,0,0.7,0,1,0c-0.3,0.1-0.6,0.1-0.9,0.1c0.5,0,0,0-0.1,0c0.2,0,0.5,0,0.8,0c-0.2,0-0.4,0-0.6,0.1c0.2,0,0.5,0,0.7,0
			c-0.1,0-0.1,0-0.1,0c0,0,0.1,0,0.1,0c-0.1,0-0.1,0-0.2,0c0.1,0,0.4,0.1,0.5,0c-0.9,0.3-0.1,0.1,0.3,0.1c-0.6,0.3-1.2,0.3-1.9,0.3
			c0,0,0,0-0.1,0c-0.1,0-0.2,0-0.3,0c0.3,0-0.1,0.1-0.4,0.1c0.1,0,0.1,0.1,0.1,0.1c0.3-0.1,0.5-0.1,0.8-0.1c-0.2,0-0.4,0.1-0.6,0.1
			c0.6-0.1,1,0,1.4,0c-0.4,0.1-0.8,0.2-1.2,0.2c0.1,0,0.7-0.1,0.1,0.1c0.4-0.1,0.9-0.2,1.3-0.2c0,0.3-1.2,0.3-1.4,0.4
			c0.2,0,0.2,0.1,0,0.1c0.5-0.1,1-0.1,1.5-0.4c-0.5,0.2,0,0,0.2,0c-0.1,0.1-0.3,0.1-0.4,0.1c0.4-0.1,0.8-0.3,1.3-0.3
			c-0.2,0-0.4,0.1-0.5,0.1c0.1,0,0.6-0.1,0.1,0c0.4-0.1,0.8-0.2,1.1-0.1c-0.2,0.2-0.2,0.3-0.4,0.3c0.1,0,0.2,0,0,0c0,0,0,0,0,0
			c-0.2,0-0.6,0.1-0.1,0.1c-0.6,0.2-1.3,0-1.9,0.2c0.2,0,0.9-0.2,0.5,0.2c0.2,0,0.3-0.1,0.5-0.1c-0.3,0.2-0.7,0.1-1,0.4
			c0.3,0,0.9-0.2,1.2-0.1c-0.2-0.1-1,0.4-1.3,0.4c0,0,0.3,0,0.3,0c-0.3,0.2-0.8-0.1-1.1,0.2c0.1-0.1,0.2-0.1,0.3-0.1
			c0,0.3-1,0.5-1.2,0.6c-0.1,0-0.7,0.3-0.5,0.1c-0.4,0.1-0.5,0.5-0.8,0.7c-0.3,0.2-0.7,0.1-1,0.3c0,0.1-0.2,0.3-0.4,0.4
			c-0.2,0-0.5,0-0.6,0.1c0,0-0.6,1-0.5,0.3c-0.1,0-0.1,0.1-0.1,0.1c0,0,0,0,0.1,0c0.1,0,0,0.2-0.1,0.2c-0.1,0-0.1-0.1-0.1-0.1
			c-0.1,0.2-0.1,0.3-0.5,0.4c-0.2,0-0.6,0-0.3-0.3c-0.2,0.1-0.5,0.1-0.7,0.2c0.1,0.2,0.2-0.1,0.4,0.1c0.2,0.2-0.2,0.3-0.3,0.3
			c0.5,0.1-0.5,0.4-0.5,0.5c-0.1-0.4,0.5-0.4,0.5-0.8c-0.2,0.1-0.4,0.1-0.6,0.1c0.3,0.3,0.3,0.2-0.1,0.7c-0.2,0.3-0.4,0.5-0.7,0.8
			c-0.2,0.1-0.5,0-0.3-0.3c0.1-0.2,0.4-0.3,0.4-0.5c-0.1-0.1-0.1-0.3-0.1-0.4c-0.5,0.4-0.1,0.2-0.1,0.5c0,0.2-1-0.4-1,0.1
			c0.2-0.2,0.3,0,0.5,0.1c0.1,0,0.1,0,0.2,0c-0.1,0-0.1,0-0.2,0c-0.1,0-0.3-0.1-0.5-0.1c0,0.2,0.4,0.1,0,0.3c1.8,0.9-3,0.9-2.3,0.4
			c-0.6,0.4-1.3,0.8-2,1c-0.6,0.1-1.1-0.3-1.6,0c-0.7,0.3-1.4,0.7-2.1,1.1c-0.6,0.3-1.1,1-1.9,1.1c0-0.2,0.5-0.4,0-0.2
			c0.1,0,0.1-0.1,0.2-0.1c-0.1-0.1-0.1-0.1-0.2,0C52.7,63.6,53.4,63.2,53,63.3z M66,54.1c0.1,0,0.2,0,0.3-0.1
			C66.7,54,64.8,54.3,66,54.1z M67.3,54.3C67.3,54.3,67.3,54.3,67.3,54.3C67.3,54.3,67.3,54.3,67.3,54.3z M67.3,54.3
			C67.3,54.1,67.6,54.3,67.3,54.3C67.3,54.3,67.3,54.3,67.3,54.3z M69.8,53.7L69.8,53.7C69.8,53.7,69.8,53.7,69.8,53.7z M72.8,54.2
			c-0.2,0.1-0.5,0.1-0.7,0.2c0,0-0.1,0-0.1,0c0,0,0.1,0,0.1,0C72.3,54.3,72.5,54.3,72.8,54.2z M73.5,55.3L73.5,55.3
			C73.3,55.4,73.5,55.3,73.5,55.3z M73.2,55.4c0-0.1,0.3-0.1,0.2-0.1C73.4,55.3,73.3,55.3,73.2,55.4z M52.7,63.8
			c0,0-0.1,0.2-0.1,0.1C52.5,63.9,52.6,63.9,52.7,63.8z M52.4,60.1C52.5,60.1,52.5,60.1,52.4,60.1C52.5,60.1,52.5,60.1,52.4,60.1z
			 M49.5,62.9C49.5,62.9,49.5,62.9,49.5,62.9C49.5,62.9,49.5,62.9,49.5,62.9z M32.2,98.9C32.2,98.8,32.2,98.8,32.2,98.9
			C32.2,98.8,32.2,98.8,32.2,98.9z M32.2,98.4C32.2,98.4,32.2,98.5,32.2,98.4C32.2,98.5,32.2,98.4,32.2,98.4z M32.2,98.7
			C32.2,98.8,32.2,98.7,32.2,98.7C32.2,98.7,32.2,98.7,32.2,98.7z M32.4,96.9C32.4,96.9,32.5,97,32.4,96.9
			C32.4,97,32.4,96.9,32.4,96.9z M32.8,87.9c0,0,0-0.1,0-0.1C32.9,87.8,32.8,87.8,32.8,87.9z M41.6,68.9
			C41.6,68.9,41.7,68.9,41.6,68.9C41.7,68.9,41.6,68.9,41.6,68.9z M43.1,68.8c0.1-0.1,0.3-0.2,0.4-0.3
			C43.5,68.5,43.1,68.9,43.1,68.8z M45.3,87.6C45.3,87.5,45.3,87.5,45.3,87.6C45.3,87.5,45.3,87.5,45.3,87.6z M45.3,88
			c0-0.1,0.3,0,0.4-0.1C45.7,87.9,45.4,88.1,45.3,88z M45.8,88.3c0-0.1,0-0.1,0-0.2C46.1,88.2,45.9,88.5,45.8,88.3z M46.1,66.8
			C46.1,66.8,46.1,66.8,46.1,66.8C46.1,66.8,46.1,66.8,46.1,66.8z M47,88.1C47,88.2,46.9,88.1,47,88.1C47,88,47,88.1,47,88.1z
			 M46.5,88.5c0,0,0.3-0.2,0.3-0.3C46.8,88.3,46.6,88.6,46.5,88.5z M44.5,67.7c0.1-0.2,0.6-0.3,0.6-0.4c0.3-0.3,0.9-1.6,1.5-1
			c-0.1,0.1-0.2,0.2-0.3,0.2c-0.1,0.1-1.3,1-0.5,0.5c-0.2,0-0.7,0.6-0.1,0.5c-0.1,0-0.3,0.4-0.4,0.6l0,0l0,0c0,0.1-0.1,0.2,0,0.2
			c-0.1,0.1-0.4,0.2-0.5,0.4c0,0-0.1,0.1-0.1,0.1c0-0.1,0.3-0.2,0.4-0.2c-0.3,0.2-0.4,0.7-0.7,0.7c0.1,0,0.4-0.5,0-0.2
			c0,0,0.2-0.2,0.3-0.3l0,0c0,0,0.1-0.1,0.1-0.1c0,0,0-0.1,0-0.1c-0.1-0.1-0.4,0.3-0.5,0.2c0.2-0.1,0.3-0.2,0.5-0.3
			C44.5,68.6,44.3,67.9,44.5,67.7z M44.3,67.4c0,0-0.1,0.1-0.1,0.1C44.1,67.4,44.3,67.4,44.3,67.4z M44.1,68.8c0,0-0.1,0.1-0.1,0.1
			C44.3,68.7,44.3,68.6,44.1,68.8z M42.5,68.7c-0.1,0.1-0.3,0.2-0.4,0.3c0.2-0.2,0.4-0.5,0.6-0.7c0.1-0.1,0.3-0.1,0.2,0
			c0.1-0.1,0.3-0.2,0.3-0.3c0,0.1-0.3,0.6,0.1,0.2c0.1-0.1,0.8-0.3,0.6-0.2c-0.1,0.1-0.4,0.1-0.6,0.2c-0.1,0.1-0.2,0.2-0.3,0.3
			C42.9,68.7,42.3,69.1,42.5,68.7z M42.9,68.9C42.8,68.9,42.9,68.8,42.9,68.9C42.9,68.8,42.9,68.8,42.9,68.9z M44,101.9
			c0,0,0.1,0.1,0.1,0.1C44.1,102.1,44,101.9,44,101.9z M56.1,108c0.1,0,0.1-0.1,0.2-0.2c0,0,0.1,0.1,0.1,0.1
			C56.4,108.1,56.3,108.1,56.1,108z M84.5,122.9c0-0.1,0.1-0.1,0.1-0.1C84.6,122.9,84.6,122.9,84.5,122.9z M84.9,121.9
			c-0.2,0.5-0.4-0.1-0.5,0.3c0.1,0.6,0,0.9-0.3,1.4c-0.6,0.9-0.8,1.9-1.4,2.8c-0.5,0.8-1.2,1.1-2,0.7c-0.7-0.3-1.3-1.1-0.9-1.8
			c0.2-0.4,0.6-0.6,0.7-1c0.1-0.5-0.2-0.9-0.1-1.4c0.2-0.9,1.6-0.7,2.3-1.1c0.5-0.3,0.9-1.8,1.5-1.7C84.7,120.3,85,121.5,84.9,121.9
			z M87.1,104c0.2,0.1,0.4,0.1,0.6,0.1C87.5,104.1,87.2,104,87.1,104z M87.7,124.8c0-0.1,0.5,0.1,0.4,0.1
			C88.1,125,87.7,125,87.7,124.8z M89.5,124c0,0.1,0,0.1,0,0.2C89.5,124.6,88.8,124.2,89.5,124z M104.7,105.5
			c-0.5,0.5-0.9-0.1-0.9-0.6c0-0.3-0.2-1.9,0.5-1.3C104.7,104.1,105.3,104.9,104.7,105.5z M110.7,98.7c0-0.1,0-0.1,0-0.2
			C110.7,98.6,110.7,98.6,110.7,98.7z M110.8,99.2C110.9,99.2,110.8,99.1,110.8,99.2C110.8,99.1,110.8,99.1,110.8,99.2z M110.9,99.5
			c0,0,0-0.1,0-0.2C110.9,99.4,110.9,99.5,110.9,99.5z M110.8,100.6C110.8,100.6,110.9,100.6,110.8,100.6
			C110.9,100.6,110.8,100.6,110.8,100.6z M110.8,99.7C110.9,99.7,110.9,99.7,110.8,99.7C110.9,99.9,110.9,99.8,110.8,99.7z
			 M111.6,102.7c0,0,0.1,0,0.1,0C111.7,102.8,111.6,102.7,111.6,102.7z M123.7,99.6C123.6,99.8,123.7,99.5,123.7,99.6L123.7,99.6z
			 M123.8,99.1c0,0.1-0.2,0.1-0.1,0.2C123.5,99.2,123.8,98.8,123.8,99.1z M123.6,100.2c0,0.1,0,0.2,0,0.2
			C123.6,100.3,123.6,100.3,123.6,100.2z M123.4,97.9C123.4,98.1,123.2,98.1,123.4,97.9C123.3,97.9,123.4,97.8,123.4,97.9z
			 M123.3,98.1c0,0.3-0.1,0.6,0.1,0.8c-0.1-0.2-0.1-0.3,0-0.3c0.2,0.1,0,0.8-0.1,0.9c0,0,0-0.1,0-0.2
			C123.1,99,122.9,98.4,123.3,98.1z M123.3,99.7c0-0.3,0-0.2,0.1,0.2c0,0.1,0,0.1,0,0.1c0,0,0-0.1,0-0.1
			C123.4,99.8,123.3,99.7,123.3,99.7z M123.3,100.2c0,0.2-0.1,0,0-0.1C123.2,100.1,123.3,100.2,123.3,100.2z M121.9,102.2
			c0.3-0.1,0.4-0.5,0.6-0.8c-0.1,0.6-0.5,1-0.3,1.7c0.2,0.4,0.4,0.9,0.1,1.3c0-0.1,0-0.2,0-0.4c-0.1,0.3-0.3,0.4-0.3,0
			c0,0.2-0.6,1-0.5,1.1c-0.5-0.4-0.1-1.5-0.1-2.1c0.1-1,0.1-2,0.8-2.8c0.2-0.3,0.2-0.7,0.4-0.9C123.5,100.4,121.2,101.1,121.9,102.2
			z M123,101.2c0,0.1-0.1,0.2-0.1,0.2C122.9,101.4,123,101.2,123,101.2z M122.9,105.4c-0.1,0-0.1,0.1-0.2,0.2
			C122.7,105.4,122.9,105.2,122.9,105.4z M122.7,101.9c0-0.1,0.1-0.2,0.2-0.3C122.8,101.6,122.8,102,122.7,101.9z M122.6,106
			c0,0.1-0.1,0.1-0.1,0.2C122.5,106.1,122.5,106,122.6,106z M122.5,101.9c-0.1,0-0.2,0.1-0.2,0.2
			C122.2,101.8,122.5,101.9,122.5,101.9z M122.4,106.2c0,0,0,0.1,0,0.1C122.4,106.3,122.4,106.2,122.4,106.2z M122.3,106.4
			C122.3,106.4,122.3,106.4,122.3,106.4C122.3,106.4,122.3,106.4,122.3,106.4z M122.1,104.8C122.1,104.8,122.1,104.7,122.1,104.8
			L122.1,104.8z M122,94.1c0,0.2,0-0.6-0.1-0.6C122.1,93.5,122,94,122,94.1c0,0.2,0.1,0.6-0.1,0.7c-0.3,0.1-0.1-0.9-0.1-1
			C121.7,93.8,122.1,94.7,122,94.1z M122.1,94.1c0,0.1-0.1,0.2-0.1,0.2C122,94.2,122.1,93.9,122.1,94.1z M121.6,94.1
			C121.6,94.1,121.6,94.2,121.6,94.1C121.7,94.2,121.6,94.1,121.6,94.1z M121.5,94.4c-0.1-0.2-0.1-0.4-0.1-0.6
			c0.1-0.1,0.1-0.1,0.2-0.2C121.8,93.6,121.5,94.3,121.5,94.4z M121.9,96.8C121.8,96.8,121.8,96.9,121.9,96.8
			C121.8,96.9,121.8,96.8,121.9,96.8z M122.6,94.9c0,0.4,0,0.8,0,1.2c-0.2-0.2,0,0.5-0.1,0.7c0-0.2-0.2-0.7-0.4-0.8
			c-0.2-0.1-0.5,0.6-0.4,0.6c-0.1-0.2,0-0.5,0-0.7c0.1-0.5,0.5-1,0.5-1.6C122.3,94.5,122.6,94.6,122.6,94.9z M122.2,93.7
			c0.1-0.1-0.5-0.4-0.3-0.6C122.1,93,122.4,93.6,122.2,93.7z M121.9,92.2c0,0,0.3,0.8,0.3,0.8C122,93.2,121.7,92.4,121.9,92.2z
			 M121.8,93c0,0.1-0.1,0.2-0.2,0.1C121.6,93,121.8,92.9,121.8,93z M121.6,91.7C121.6,91.8,121.6,91.8,121.6,91.7
			C121.4,91.6,121.7,91.6,121.6,91.7z M119.5,82.9c0-0.1,0-0.2,0-0.3C119.5,82.7,119.5,82.8,119.5,82.9z M120.9,93.9
			c-0.1,0.1-0.2,0-0.1-0.1C120.9,93.8,121,93.9,120.9,93.9z M120.9,92.7c0.3,0,0.3,0.5,0.2,0.6c0-0.1,0-0.2,0-0.3
			C120.9,93.2,120.7,92.7,120.9,92.7z M120.9,94.4c0.2,0.7,0.3,1.9-0.3,2.4c-0.1-0.4,0.1-0.8,0.2-1.2
			C120.8,95.3,120.7,94.8,120.9,94.4z M120.7,97.7c1,0.5,0,1.3,0.3,2.1c0.4,1.1,0.1,2.2,0.1,3.3c0,1.1-0.4,1.7-1.3,2.3
			c-0.7,0.4-1.1-0.6-1.2-0.5c0-0.7-0.2-1.3-0.1-2c0.1-0.5,0.4-0.3,0.7-0.4c-0.1-1.1,0.7-2,1.1-3C120.3,99.5,120.9,97.8,120.7,97.7z
			 M120,107.2c0,0.1-0.2,0.2-0.2,0.2C119.9,107.4,119.8,107.1,120,107.2z M119.3,82.7c0,0,0,0.1,0,0.1
			C119.3,82.9,119.3,82.7,119.3,82.7z M119.2,81.5C119.2,81.5,119.2,81.5,119.2,81.5C119.2,81.5,119.2,81.5,119.2,81.5z M119.4,87.2
			c-0.7-0.4-0.4-1.5-0.6-2.1C119.1,84.8,119.3,87,119.4,87.2z M118.8,79.8c0,0.1,0,0.1,0,0.2C118.8,80,118.7,79.7,118.8,79.8z
			 M118.8,80C118.7,79.9,118.7,80,118.8,80C118.7,80,118.7,79.9,118.8,80z M118.4,78.2c-0.5-0.2-0.6-0.9-0.6-1.3
			c0.1,0.1,0.2,0.3,0.3,0.5C118.3,77.6,118.2,77.9,118.4,78.2z M117.9,76.9C117.8,76.8,117.9,76.8,117.9,76.9
			C117.9,76.8,117.8,76.8,117.9,76.9z M114.2,69.1C114.2,69,114.2,69,114.2,69.1C114.2,69,114.2,69,114.2,69.1z M114.2,69.3
			c-0.1-0.2-0.2-0.4-0.3-0.5C114,68.9,114.1,69.2,114.2,69.3z M113.8,68.6c-0.1-0.2-0.3-0.4-0.4-0.6c-0.1-0.1-0.2-0.2-0.3-0.3
			C113.3,67.5,113.7,68.4,113.8,68.6z M113.2,67.5c-0.2-0.1-0.3-0.4-0.4-0.5C112.9,67.2,113.1,67.4,113.2,67.5z M112.4,66.6
			C112.4,66.5,112.4,66.5,112.4,66.6C112.4,66.5,112.4,66.5,112.4,66.6z M112.4,66.5c-0.1,0-0.2-0.2-0.2-0.3
			C112.3,66.3,112.4,66.4,112.4,66.5z M111.1,65L111.1,65L111.1,65z M110.8,64.6c0,0-0.1-0.1-0.1-0.1
			C110.6,64.5,110.8,64.6,110.8,64.6z M110.3,64.1c-0.1-0.1-0.2-0.2-0.2-0.3C110.1,63.9,110.2,64,110.3,64.1z M108.1,64.8
			c0.2,0,0.2,0.3,0.2,0.3C108.2,65,108.2,64.9,108.1,64.8z M113.2,68.8c-0.8-0.9-1.6-1.8-2.5-2.5c-0.7-0.6-1.7-1.1-2-1.9
			c1,0.8,2.1,1.4,2.9,2.4c0-0.1-0.1-0.1-0.1-0.1c0,0.7,1.5,1.3,1.8,1.9c-0.1-0.1-0.2-0.2-0.3-0.3C113,68.5,113.1,68.6,113.2,68.8z
			 M114.4,70.2c-0.3-0.4-0.8-0.7-1-1.2c0.1,0.1,0.9,0.5,0.8,0.3c0.1,0.2,0.9,1.5,0.6,1.4c0,0,0.1,0.1,0.1,0.1
			c0.1,0.2,0.3,0.4,0.2,0.5c0-0.1-0.1-0.3-0.2-0.5C114.7,70.5,114.5,70.3,114.4,70.2z M115.3,71.4L115.3,71.4
			C115.1,71.2,115.3,71.4,115.3,71.4z M116.9,74.7c0-0.1-0.1-0.2-0.1-0.3C116.8,74.5,116.9,74.6,116.9,74.7c0,0.1,0,0.1,0,0.1
			C116.9,74.8,116.9,74.8,116.9,74.7z M117.1,81.2C117.1,81.2,117.1,81.3,117.1,81.2C117.1,81.4,117.1,81.1,117.1,81.2z M117.3,79
			c0,0.1,0.1,0.2,0,0.3C117.3,79.2,117.3,79,117.3,79z M117.4,76.4C117.4,76.4,117.4,76.5,117.4,76.4
			C117.4,76.6,117.3,76.3,117.4,76.4z M117.4,76.6c0.3-0.3-0.2-1.2-0.3-1.4c-0.2-0.4-0.3-0.8-0.4-1.3c-0.1-0.4-0.8-0.9-0.8-1.3
			c-0.2-0.3-0.5-0.7-0.6-1.1c0.6,0.6,1.2,1.3,1.6,2.1c0.3,0.6,0.9,1.1,1,1.8c-0.1-0.2-0.2-0.4-0.3-0.6c0.1,0.4,0.4,0.6,0.5,1
			c-0.3-0.4-0.2,1.1,0,1.2c-0.2-0.1-0.2-0.3-0.3-0.5c0,0.2,0,1.1-0.3,1.1C117.4,77.7,117.4,76.6,117.4,76.6z M118,78.6
			c0.1,0.1,0.1,0.4-0.1,0.2c-0.1-0.2,0-0.2,0,0c0-0.1-0.8-1.3-0.1-0.9c0.3,0,0.9,1.4,0.7,1.5c-0.2,0.1,0-0.9-0.2,0
			C118.4,79.4,118.2,78.8,118,78.6z M118,101.6c0.1,0,0.1,0.1,0,0.3C117.9,101.8,117.9,101.7,118,101.6z M117.9,106.4
			c0.1-0.1,0.2-0.1,0.3-0.2C118.6,106,117.5,107,117.9,106.4z M117.3,106.1c0.1,0,0.4,0.6,0.3,0.6c-0.3,0.1-0.2-0.3-0.2-0.5
			c-0.1,0-0.1,0.1-0.2,0.1C117.1,106.2,117.2,106.1,117.3,106.1z M116.8,104.2c0,0-0.1,0.1-0.1,0.1
			C116.6,104.3,116.8,104.3,116.8,104.2z M116.5,105.6c0,0-0.1,0.1-0.1,0.1C116.4,105.6,116.5,105.6,116.5,105.6z M115.8,104.4
			c0,0,0.2,0.1,0.1,0.1C115.8,104.6,115.7,104.5,115.8,104.4z M115.6,104.4C115.6,104.4,115.5,104.5,115.6,104.4
			C115.5,104.4,115.6,104.3,115.6,104.4z M112.7,105c0.1,0,0.2,0.1,0.2,0.1C112.8,105.1,112.8,105.1,112.7,105z M113.4,105.6
			c0.3-0.1,0.3,0.3,0.4,0.3C113.6,106,113.5,105.8,113.4,105.6z M114.5,107.4c-0.2,0.1-0.4-0.3-0.2-0.4
			C114.5,107,114.7,107.4,114.5,107.4z M114.8,107.8c0,0,0.1,0.1,0,0.1C114.7,107.9,114.8,107.8,114.8,107.8z M116.8,108.6
			c-1,0.2-1.5-1.2-1.9-1.9c-0.3-0.6-0.5-1.3-1.1-1.8c-0.4-0.3-0.8-0.5-1.1-0.9c-0.4-0.4-0.5-1,0.3-1c0.5,0,0.9,0.3,1.2,0.6
			c0.2,0.2,1,1,1.5,1.1l0,0h0c0.1,0,0.2,0,0.3-0.1c0,0.2,0,1.3,0.5,1.3c0.3-0.1,0.2,0.5,0.5,0.6c0.8,0.1,0.2,1.8-0.4,1.9
			C116.8,108.5,116.8,108.6,116.8,108.6z M117.4,118.6C117.3,118.6,117.4,118.6,117.4,118.6L117.4,118.6z M117.3,109.1
			c-0.6,0.3,0.2-0.8,0.6-0.9c0.4-0.1,0.6,0.1,1-0.2c0.3-0.2,0.5-0.4,0.8-0.6c0,0.2,0,0.4,0,0.6c0.1-0.1,0.6-0.4,0.5,0
			c0.1,0,0.1-0.1,0.2-0.1C120.2,108.6,117.3,109,117.3,109.1z M120.6,107.8c0,0-0.1,0.4-0.1,0.4C120.5,108,120.5,107.9,120.6,107.8z
			 M120.9,108c-0.1,0.1-0.2,0.2-0.3,0.4c0-0.2,0.3-0.8,0.6-0.8C121.3,107.5,121,107.9,120.9,108z M121.2,93.1
			C121.2,93.2,121.3,93.2,121.2,93.1C121.3,93.2,121.2,93.2,121.2,93.1z M121.2,92.1c0,0.1,0,0.2,0.1,0.3c-0.1-0.4-0.2,0.2-0.4,0.2
			c-0.3,0-0.1-0.6-0.2-0.7c-0.1,0.4-0.4-0.5-0.4-0.6c0.4,0-0.1-0.9-0.1-1c0-0.2-0.2-0.6,0-0.8c0.1,0.2,0.2-0.1,0.2-0.2
			c0.4,0.7,0,1.6,0.3,2.4c0.2,0.8,0.8-0.2,1,0.9C121.5,92.4,121.3,92,121.2,92.1z M121.4,108.4c-0.1-0.1-0.1-0.2,0-0.3
			C121.7,107.8,121.4,108.3,121.4,108.4z M121.4,107.3c-0.2,0,0.8-0.8,0.7-0.7C122.1,106.8,121.7,107.3,121.4,107.3z M121.9,108.1
			c0-0.8,1-2.1,1-2.5C122.8,106.4,122.3,107.4,121.9,108.1z M123,102.4c-0.1-0.1,0.3-0.8,0.2-0.6C123.2,101.9,123.1,102.5,123,102.4
			z M123.1,105.1C123.1,105.1,123.1,105.1,123.1,105.1C123.1,105.1,123.1,105.1,123.1,105.1z M123.1,106.9c0-0.1,0-0.2,0.1-0.3
			C123.2,106.4,123.1,107,123.1,106.9z M123.2,106.7c0,0,0.1-0.2,0.1-0.2C123.2,106.6,123.2,106.7,123.2,106.7z M123.3,106.4
			C123.1,106.7,123.2,106.2,123.3,106.4L123.3,106.4z M123.3,100.5c0,0.1,0,0.2,0,0.1C123.3,100.7,123.3,100.7,123.3,100.5z
			 M123.5,104.3c-0.1-0.1,0.1-0.5,0.1-0.6C123.6,103.9,123.6,104.3,123.5,104.3z M123.5,101.6c-0.1,0.1-0.1,0.2-0.2,0.3
			c0-0.2,0.3-0.4,0.4-0.6C123.6,101.4,123.6,101.5,123.5,101.6z M123.7,99.8C123.7,99.8,123.7,99.7,123.7,99.8
			C123.7,99.7,123.7,99.8,123.7,99.8z"/>
	</g>
</g>
</svg>
