<?xml version="1.0" encoding="utf-8"?>
<!-- Generator: Adobe Illustrator 18.1.0, SVG Export Plug-In . SVG Version: 6.00 Build 0)  -->
<svg version="1.0" id="Layer_1" xmlns="http://www.w3.org/2000/svg" xmlns:xlink="http://www.w3.org/1999/xlink" x="0px" y="0px"
	 viewBox="0 0 150 150" enable-background="new 0 0 150 150" xml:space="preserve">
<g>
	<path fill="#332A7A" d="M40.9,67.2c-12.4,2.5-24.7,6.3-36.8,11.4c6.8,2.9,13.2,6.1,19.7,9.7c-2.4,6.6-4.6,13.2-6.3,20
		C29.2,103.3,41,99.9,53,98c-2.5-4-4.7-8.3-6.5-12.3C45.2,82.6,42.2,75.1,40.9,67.2z"/>
	<path fill="#332A7A" d="M146,78.6c-12-5.1-24.3-8.9-36.6-11.4c-0.5,2.9-1.2,5.7-1.9,8.2c-2.2,7.3-6,15.5-10.5,22.6
		c12,1.9,23.9,5.3,35.7,10.3c-1.4-5.8-3.1-11.6-5.1-17.2C133.5,86.6,139.6,82.5,146,78.6z"/>
	<path fill="#6C9961" d="M59.7,39.3c-4.6,1.6-8.6,4-11.6,7.2h9.2L59.7,39.3z"/>
	<path fill="#6C9961" d="M104.8,51.4c-7.2-12.3-26.3-16.7-41.5-13.1l2.7,8.3h14.2l-11.5,8.3l4.4,13.5l-11.5-8.4l-11.5,8.4l4.4-13.5
		l-8.3-6.1c-0.6,0.8-1.1,1.6-1.5,2.5c-6.8,14.5,11.4,55.6,27,60.7l0.1-7.4l-2.8-4.4c-0.2-0.3-0.2-1-0.1-2c0,0,0-0.1,0-0.1L68.4,98
		c-0.1,0.2-0.3,0.4-0.5,0.6c-0.1,0.1-0.1,0.2-0.2,0.2l-1.3-0.4c-0.1-0.4-0.1-0.8,0-1.1c0-0.3,0.1-0.5,0.1-0.7c0-0.1,0.1-0.3,0.1-0.4
		c0.2-0.5,0.6-0.7,0.8-0.8l1.3,0.4c0.1,0.3,0,0.6,0,0.8c0,0.1,0,0.1,0,0.2L69,97c0,0,0,0,0-0.1c0.1-1,0.4-2,0.7-3.2L69,93.5
		c-0.2,0.3-0.4,0.6-0.6,0.8l-1.3-0.4c-0.3-2,0.6-2.8,1-2.9l1.3,0.4c0.1,0.4,0.1,0.7,0,1l0.5,0.2c0.2-1,0.5-2,0.8-3.1l-0.7-0.2
		c-0.2,0.3-0.4,0.6-0.6,0.8l-1.3-0.4c-0.3-2,0.6-2.8,1-2.9l1.3,0.4c0.1,0.4,0.1,0.7,0,1l0.6,0.2c0.3-1,0.6-2.1,1-3.2L71.4,85
		c-0.2,0.3-0.4,0.6-0.6,0.8l-1.3-0.4c-0.3-2,0.6-2.8,1-2.9l1.3,0.4c0.1,0.4,0.1,0.7,0,1.1l0.7,0.2c0.3-1.1,0.7-2.1,1.1-3.1l-0.8-0.2
		c-0.2,0.3-0.4,0.6-0.6,0.8l-1.3-0.4c-0.3-2,0.6-2.8,1-2.9l1.3,0.4c0.1,0.4,0.1,0.7,0,1l0.8,0.2c0.4-1.1,0.8-2.1,1.2-3.1l-0.8-0.2
		c-0.2,0.3-0.4,0.6-0.6,0.8L72.3,77c-0.3-2,0.6-2.8,1-2.9l1.3,0.4c0.1,0.4,0.1,0.7,0,1l0.9,0.3c0.7-1.6,1.3-3,1.9-3.8
		c0.9-1.4,2.5-2.2,3.3-0.4l2.3,5.6c0.6,1.5-3,4.4-1.6,10.1l2.2,9c0.4,1.7-1.7,2.5-2.8,4.6c-0.8,1.5-1,2.6-1.1,3.8h0l0.1,6.6
		C95.2,103.6,112.8,65.1,104.8,51.4z"/>
</g>
</svg>
