<?xml version="1.0" encoding="utf-8"?>
<!-- Generator: Adobe Illustrator 18.1.0, SVG Export Plug-In . SVG Version: 6.00 Build 0)  -->
<svg version="1.0" id="Layer_1" xmlns="http://www.w3.org/2000/svg" xmlns:xlink="http://www.w3.org/1999/xlink" x="0px" y="0px"
	 viewBox="0 0 150 150" enable-background="new 0 0 150 150" xml:space="preserve">
<g>
	<path fill="#4063AD" d="M54.6,88c0,0.9,0.7,1.5,1.5,1.5h2.7v40.3c0,3.4,2.8,6.2,6.2,6.2h22.2c3.4,0,6.2-2.8,6.2-6.2V89.6
		c0,0,0,0,0,0h2.9c0.9,0,1.5-0.7,1.5-1.5c0-0.8-0.7-1.5-1.5-1.5h-2.9c0,0,0,0-0.1,0v-8.9c0-3.4-2.8-6.2-6.2-6.2H65.1
		c-3.4,0-6.2,2.8-6.2,6.2v8.9h-2.7C55.3,86.5,54.6,87.2,54.6,88 M62.8,88c0,0,2.6-2.8,13.4-2.8C87,85.3,89.7,88,89.7,88l-3.1,10.6
		c0,0-11.1-3.3-20.3,0L62.8,88z M66.4,116.7h20.6l2.8,6.5H63.4L66.4,116.7z M89.1,114.1V97l2.9-6.9v27.3L89.1,114.1z M60.4,90.1
		l2.9,6.9v17.2l-2.9,3.3V90.1z"/>
	<path fill="#F7CC27" d="M100.9,135.2c0,0-12.2-36.5,39.3-41.6c0,0,8.3,41.6-36.5,46.6c0,0,11.8-10,14.3-17.1
		C118,123.1,110.6,132.7,100.9,135.2"/>
	<path fill="#F7CC27" d="M74.6,61.3c0,0-34-18-0.1-57.2c0,0,34.6,24.4,5.6,59c0,0,1.6-15.4-1.4-22.3C78.8,40.8,80,52.9,74.6,61.3"/>
	<path fill="#F7CC27" d="M49.9,135.2c0,0,12.2-36.5-39.3-41.6c0,0-8.3,41.6,36.5,46.6c0,0-11.8-10-14.3-17.1
		C32.8,123.1,40.2,132.7,49.9,135.2"/>
	<path fill="#F7CC27" d="M104.7,91.7c0,0-8.6-25.5,27.4-29c0,0,5.8,29-25.5,32.6c0,0,8.2-7,10-11.9C116.7,83.3,111.5,90,104.7,91.7"
		/>
	<path fill="#F7CC27" d="M47.4,91.7c0,0,8.6-25.5-27.4-29c0,0-5.8,29,25.5,32.6c0,0-8.2-7-10-11.9C35.5,83.3,40.6,90,47.4,91.7"/>
	<path fill="#F7CC27" d="M94.4,64.7c0,0-5.5-16.3,17.6-18.6c0,0,3.7,18.6-16.3,20.9c0,0,5.3-4.5,6.4-7.6
		C102.1,59.3,98.8,63.6,94.4,64.7"/>
	<path fill="#F7CC27" d="M57.8,64.7c0,0,5.5-16.3-17.5-18.6c0,0-3.7,18.6,16.3,20.9c0,0-5.3-4.5-6.4-7.6
		C50.1,59.3,53.4,63.6,57.8,64.7"/>
</g>
</svg>
