<?xml version="1.0" encoding="utf-8"?>
<!-- Generator: Adobe Illustrator 18.1.0, SVG Export Plug-In . SVG Version: 6.00 Build 0)  -->
<svg version="1.1" id="Layer_1" xmlns="http://www.w3.org/2000/svg" xmlns:xlink="http://www.w3.org/1999/xlink" x="0px" y="0px"
	 viewBox="0 0 1500 1500" enable-background="new 0 0 1500 1500" xml:space="preserve">
<g>
	<path fill="#97A822" d="M709.1,996.4c-12-45.9-28.7-124.1-34.6-222.1c-0.2-3.9-0.4-7.9-0.6-11.9c-1.6-0.2-3.3-0.4-5-0.7
		c4.5,74.3,16.9,152.7,40,234.6C709,996.3,709.1,996.3,709.1,996.4z"/>
	<path fill="#FF854F" d="M1015.2,940.6c37.5-25.9,70.9-58.9,98-98.9c34.6-51.1,54.9-107.7,61.9-165.1
		c-100.2,58.1-218,89.6-347.9,93.4C840.5,882.9,966.2,927.5,1015.2,940.6z"/>
	<path fill="#FF854F" d="M1016,478.3c-9,7.9-20.1,16.5-31.8,25.7c-60.6,47.5-149.4,117.1-157.6,226
		c115.9-3.2,239.7-29.7,351.4-101.6c-0.5-84.8-29.5-168.3-84.1-235.7C1075,418.9,1048.9,449.6,1016,478.3z"/>
	<path fill="#AF6148" d="M787.4,770.4c-23.9-0.3-48.2-1.5-72.9-3.7c6.2,111.7,27,198,38.2,237.7c74.1,9.4,149.5-3.4,216.2-36.5
		C901.2,943.7,798.5,887.9,787.4,770.4z"/>
	<path fill="#AF6148" d="M712.9,726.1c23.9,2.2,48.7,3.7,73.8,4.1c7.9-128,109.8-208,172.9-257.4c11.8-9.2,22-17.2,30.2-24.4
		c32.3-28.2,58.6-59.7,76.8-85.8c-16.4-16.3-34.6-31.4-54.4-44.9c-60.3-40.8-128.1-61.7-195.8-64.5
		C731.5,419.1,710.2,588.3,712.9,726.1z"/>
	<path fill="#AF6148" d="M668.9,761.7c-25-415.2,198.7-698.5,198.7-698.5l-43.2-9.6C678.9,269.8,627.8,555,627.8,555h-22.3l7.9-63.2
		c1.6-13.1-7.7-22.8-20.8-22.8c-13.1,0-25,9.3-26.6,22.4l-8,63.6h-20.6c0-76,51.1-290,51.1-290h-31.4c-173,529,78.6,1070,78.6,1070
		h86.5c-39.3-63-90.4-214-90.4-214h31.4c55,164,133.6,277,133.6,277H899c-94.7-139-154.8-273.6-190.1-398.6
		C685.8,917.6,673.4,836,668.9,761.7z"/>
	<path fill="#E1E4E5" d="M320.7,1186.5l288.9,156.6c-41.8-38.3-62.6-146.2-62.6-146.2L320.7,1186.5z"/>
</g>
</svg>
