<?xml version="1.0" encoding="utf-8"?>
<!-- Generator: Adobe Illustrator 18.1.0, SVG Export Plug-In . SVG Version: 6.00 Build 0)  -->
<svg version="1.0" id="Layer_1" xmlns="http://www.w3.org/2000/svg" xmlns:xlink="http://www.w3.org/1999/xlink" x="0px" y="0px"
	 viewBox="0 0 150 150" enable-background="new 0 0 150 150" xml:space="preserve">
<g>
	<path fill="#005179" d="M17.4,96.7c0.1,0.6,0.3,1.2,0.4,1.7c0.1-0.2,0.2-0.4,0.4-0.6C17.9,97.5,17.6,97.1,17.4,96.7z"/>
	<path fill="#005179" d="M48.4,37.6l-6.7-13.3c6.1-1.8,11.9-3.2,17.7-6.2h-1.1c0.7,0,1.3,0,2,0H27c-5.8,0-10,5-10,10.9v64.8
		c0,1.2,0.9,2.3,1.9,3.3C19.7,95.7,48.4,37.6,48.4,37.6z"/>
	<path fill="#80CDC8" d="M129,48.7c3-10.5,6.5-21,10.1-31.6c-5,1.2-9.8,2.2-14.8,3.3c2.7,1.7,4.7,4.6,4.7,8v10
		c-4,11.2-11.6,35.8-11.9,36.9c-5-4.4-16-14.5-16.5-14.8c-21.1,17.5-43.3,34-64.9,51c-0.8,0.6-1.7,1.3-2.5,1.9
		c-1-1.5-2.4-2.5-3.4-3.6c-0.4-0.5-0.8-1-1.1-1.6c0.4-0.4,0.7-0.7,1.1-1.1C49.9,87.3,69,67.4,88.9,47.7c0,0-9.5-12.7-13.9-16.9
		c16.5-3.4,32.7-7.3,49-11c-1.4-0.8-3.1-1.8-4.8-1.8H67.7c0.2,0,0.4-1.7,0.5-2.9c-2.7,0.8-5.3,1.5-8,2.4c-0.7,0.2-1.3,0.4-2,0.4h1.1
		h4.9c-1.8,12-4.9,37.6-4.9,39.5C56.9,54,51.1,46,50.5,45.2c-5,7.3-24,41.1-29.2,50c-0.2,0.3-0.3,0.5-0.5,0.8c0,0,0,0,0,0
		c-0.3,0.6-0.7,1.2-1,1.7c-0.5-0.3-0.6-0.6-1-0.9c-1-1-1.9-2.1-1.9-3.3v8v21.6c0,5.2,3.7,8.8,8.9,8.8h19.9c-1-2-1-4.6-1.8-6.8
		c1.7,0.9,5.2,4.8,5.5,5c0.9-0.5,42.4-12.7,60.3-20c0.3,0.1,5.3,3.9,8.1,4.9c-1.1,1-41.9,12.3-61.2,17.6c-1,0.3-1.9,0.5-2.9,0.8
		l2.6,1.9c2.2,0.6,4.4,1,6.5,1.6l-5.6-4.5c0.1,0,0.2-0.4,0.3-0.4h61.5c5.2,0,9.9-3.5,9.9-8.8V98.7c2-4.3,3.7-8.6,5.8-12.8
		c-1.9,0.2-3.8,0.3-5.8,0.5V48.7z M17.7,98.5c-0.1-0.6-0.3-1.1-0.4-1.7c0.3,0.4,0.5,0.7,0.7,1.1c1.1,1.7,2,3.3,3.7,4.6
		c0.2-0.2,28.2-43,30.9-45.5c0.4,0.7,4.9,6.8,6.9,8.8c-3.2,2.9-25.6,30.6-34.3,40.9l2.2,2.4l2.7,3c-3-1.9-7.1-2.1-10.2-3.7
		C19.2,104.9,18.5,101.8,17.7,98.5z M78.7,86.8c0.4,0.3,0.8,0.7,1.1,1c3.1,2.8,6.2,5.6,9.3,8c-17.4,8.3-53.8,26.9-54.4,28.2l3,2.7
		l2.8,2.6c-4.4-1.1-8.4-2.7-13-3.9c-0.9-3.6-1.7-7.6-2.6-11.2c1.8,1.4,5.3,5.5,5.4,5.8 M129,91.4c-3,5.7-8.9,18.6-9.3,19.3
		c-3.2-2.5-10.4-6.7-10.6-7c0,0-38.9,14.8-58.5,21.9c-0.5,0.2-0.9,0.3-1.4,0.5c-0.4,0.1-0.8,0.3-1.2,0.4c-0.1,0-0.3,0.1-0.4,0.1
		c-1.5-1.1-3.5-2.2-4.5-3.7c15.3-6.4,53.2-23.4,56.8-25.4c0,0-9.2-8.3-11.8-9.4c1.5,0.1,33.9-0.9,40.9-1.5V91.4z"/>
</g>
</svg>
