<?xml version="1.0" encoding="utf-8"?>
<!-- Generator: Adobe Illustrator 18.1.0, SVG Export Plug-In . SVG Version: 6.00 Build 0)  -->
<svg version="1.1" id="Layer_1" xmlns="http://www.w3.org/2000/svg" xmlns:xlink="http://www.w3.org/1999/xlink" x="0px" y="0px"
	 viewBox="0 0 150 150" enable-background="new 0 0 150 150" xml:space="preserve">
<g>
	<path fill="none" d="M122,98.7v-7.1c-3,2.8-4,3.6-8.9,7.4c3,2.7,5.9,5,8.9,6.9v-5.3V98.7z"/>
	<path fill="none" d="M117.2,43H61.9c-0.5,3-0.9,6-1.2,11.1c-0.3,7.3-0.4,10.7,0.3,21c-5.7-0.7-11.3-1.4-17-2.1
		c-7.1-0.8-8.6-1-12.6-1.2c2.7-4.1,3.1-4.6,5.8-7.9c-3.3-6.5-6.6-14-8-21h-4.4c-2.5,0-4.8,2-4.8,4.5v58.5c0,2.5,2.3,4.9,4.8,4.9
		h58.5c0-1-0.1-2.4-0.1-3.9c-0.2-5.7-0.4-11.5-0.6-17.2c10.3,1.6,13.7,1.7,21,2.1c8.8,0.1,11.4-0.2,18.4-1.2V47.5
		C122,45,119.7,43,117.2,43z M77.1,91.2c0,2.2-1.8,3.8-3.9,3.8h-3.9c-2.2,0-3.9-1.6-3.9-3.8l3-16.9c-1.9-1.1-3.1-3-3.1-5.3
		c0-3.4,2.8-6.2,6.2-6.2c3.4,0,6.2,2.8,6.2,6.2c0,2.5-1.4,4.5-3.5,5.5L77.1,91.2z"/>
	<path fill="none" d="M141.7,112.7c0.6-0.4,0.9-1,0.9-1.9c-0.2,0.6-0.4,1.1-0.6,1.6C141.9,112.4,141.8,112.6,141.7,112.7z"/>
	<path fill="none" d="M41.7,20c0.7,3.3,2.3,7,5,12h31.8C64.7,24,51.4,18.9,41.7,20z"/>
	<path fill="none" d="M133,92.8v5.9v1.9v5.5c0,1.8-0.5,3.6-1.1,5.2c1.8,0.7,3.5,1.3,4.9,1.6C137.2,108.1,136,101.6,133,92.8z"/>
	<path fill="none" d="M54.6,44.1c0.4-0.4,0.8-0.8,1.1-1.2h-1.9C54,43.3,54.3,43.7,54.6,44.1z"/>
	<path fill="#3B3A3C" d="M110,125.2H38.2c-3.4,0-6.2,2.8-6.2,6.2v3.3c0,0.5,0.1,1,0.2,1.5h83.7c0.1-0.5,0.2-1,0.2-1.5v-3.3
		C116.1,128,113.4,125.2,110,125.2z"/>
	<path fill="#F05A2B" d="M41.7,20.2c9.7-1.2,23,3.8,36.7,12h7C64.6,13.3,48.8,7.1,43.1,11.6C41.4,13.6,40.9,16.5,41.7,20.2z"/>
	<path fill="#F05A2B" d="M30.7,26.1c1.5-2.2,2.5-3.6,3.2-4.6C32.5,23.3,32,24,30.7,26.1z"/>
	<path fill="#F05A2B" d="M40.3,14.3c-1,1-2,2-2.8,2.8C38.4,16.2,39.3,15.3,40.3,14.3z"/>
	<path fill="#F05A2B" d="M136.5,112.9c2.4,0.5,4.2,0.5,5.3-0.2c0.1-0.1,0.2-0.2,0.2-0.3c0.3-0.5,0.5-1,0.6-1.6v0v0
		c2-6.8-3.8-17.3-10-26.1v8.2C136.1,101.6,136.9,108.1,136.5,112.9z"/>
	<path fill="#F05A2B" d="M132.4,122.6c0.4-0.4,0.9-0.8,1.3-1.2c-0.1,0.1-0.3,0.2-0.4,0.3C132.9,122,132.6,122.4,132.4,122.6z"/>
	<path fill="#3B3A3C" d="M83.3,119.6c0.1-3.2,0.2-4.8,0.1-8.9H24.8c-2.5,0-4.6-2.1-4.6-4.6V47.5c0-2.5,2.1-4.6,4.6-4.6h4.4
		c-0.8-3.7-1-7.4-0.5-10.8h-3.9c-8.5,0-15.4,6.9-15.4,15.4v58.5c0,8.5,6.9,15.4,15.4,15.4h79.6c-4.4-2-8.8-4.5-12.7-7
		C88.2,117,87.6,117.3,83.3,119.6z"/>
	<path fill="#3B3A3C" d="M46.7,32.1c1.9,3.3,4.2,6.9,7.1,10.8h1.9c3.6-3.9,4.4-4.7,7.9-7.9c-0.7,3.2-1.3,5.5-1.7,7.9h55.3
		c2.5,0,4.6,2.1,4.6,4.6v43.3c0.3,0,0.6-0.1,0.9-0.1c-0.3,0.3-0.6,0.6-0.9,0.8v7.1v1.9v5.3c3.6,2.4,6.9,4.2,9.9,5.4
		c0.6-1.6,0.9-3.4,0.9-5.2v-5.5v-1.9v-5.9v-8.2V47.5c0-8.5-6.9-15.4-15.4-15.4H85.4h-7H46.7z"/>
	<path fill="#F49021" d="M29.2,42.9c1.4,7.1,4.7,14.5,8,21c-2.7,3.2-3.1,3.8-5.8,7.9c4,0.2,5.5,0.3,12.6,1.2
		c5.7,0.7,11.3,1.4,17,2.1c-0.7-10.4-0.6-13.7-0.3-21c0.4-5.1,0.7-8.2,1.2-11.1c0.4-2.4,0.9-4.7,1.7-7.9c-3.5,3.2-4.3,4-7.9,7.9
		c-0.3,0.4-0.7,0.7-1.1,1.2c-0.3-0.4-0.6-0.8-0.8-1.2c-2.8-3.9-5.2-7.5-7.1-10.8c-2.6-4.6-4.3-8.6-5-12c-0.7-3.7-0.3-6.6,1.4-8.6
		c-0.9,0.8-1.8,1.7-2.8,2.7c-1,1-1.9,2-2.8,2.8c-1.6,1.8-2.3,2.5-3.6,4.4c-0.7,1-1.7,2.4-3.2,4.6c-1,1.9-1.7,3.9-2,6.1
		C28.2,35.5,28.4,39.2,29.2,42.9z"/>
	<path fill="#F49021" d="M142.6,110.7L142.6,110.7c0,0.9-0.3,1.5-0.9,1.9c-1,0.7-2.8,0.7-5.3,0.2c-1.4-0.3-3-0.9-4.8-1.6
		c-2.9-1.2-6.3-3-9.9-5.4c-2.9-1.9-5.9-4.2-8.9-6.9c4.9-3.8,5.9-4.6,8.9-7.4c0.3-0.3,0.6-0.5,0.9-0.8c-0.3,0-0.6,0.1-0.9,0.1
		c-6.6,0.9-9.5,1.2-18.3,1.1c-7.3-0.4-10.7-0.5-20.9-2.1c0.2,5.7,0.4,11.4,0.6,17.1c0,1.4,0.1,2.6,0.1,3.7c0.1,4.1,0.1,5.8-0.1,8.9
		c4.4-2.4,4.9-2.7,8.4-5.1c4,2.4,8.3,4.9,12.7,7c8.4,3.8,17.2,6,24.4,2.8c2-1.1,3.4-1.9,4.4-2.5c0.2-0.1,0.3-0.2,0.4-0.3
		c2-1.2,2.7-1.7,4.7-3.2C140.1,116.8,142.7,113.1,142.6,110.7L142.6,110.7z"/>
	<path fill="#15AB9B" d="M77.6,69c0-3.4-2.8-6.2-6.2-6.2c-3.4,0-6.2,2.8-6.2,6.2c0,2.3,1.3,4.3,3.1,5.4l-3,16.9
		c0,2.2,1.8,3.8,3.9,3.8h3.9c2.2,0,3.9-1.6,3.9-3.8l-3-16.7C76.1,73.5,77.6,71.5,77.6,69z"/>
</g>
</svg>
