<?xml version="1.0" encoding="utf-8"?>
<!-- Generator: Adobe Illustrator 18.1.0, SVG Export Plug-In . SVG Version: 6.00 Build 0)  -->
<svg version="1.1" id="Layer_1" xmlns="http://www.w3.org/2000/svg" xmlns:xlink="http://www.w3.org/1999/xlink" x="0px" y="0px"
	 viewBox="0 0 150 150" enable-background="new 0 0 150 150" xml:space="preserve">
<g>
	<path fill="#696A6C" d="M136.3,34.3L74.9,3.6L13.6,34.3c-9.1,94.8,61.3,111.3,61.3,111.3S145.3,129.1,136.3,34.3"/>
	<path fill="#00B5F0" d="M128.4,39.4L74.9,12.7L21.4,39.4c-7.9,82.7,53.5,97.1,53.5,97.1S136.3,122.1,128.4,39.4"/>
	<path fill="#009BDB" d="M74.6,136.5c0,0-61.4-14.4-53.5-97.1l53.5-26.7V136.5z"/>
	<g>
		<path fill="#696A6C" d="M59.4,69.4c-0.7,0-1.4,0.9-0.6,1.8c0.5,0.7,1.4,1.3,2.3,1.3c-0.2-0.8-0.4-1.6-0.6-2.5
			C60.3,69.7,59.9,69.4,59.4,69.4z"/>
		<path fill="#696A6C" d="M92,71.2c0.7-0.9,0.1-1.8-0.6-1.8c-0.5,0-0.9,0.3-1.1,0.6c-0.2,0.9-0.4,1.8-0.6,2.5
			C90.6,72.5,91.4,71.9,92,71.2z"/>
		<path fill="#696A6C" d="M52.4,45.9c0,0.5,0.2,1,0.5,1.3l0,0c0,0.6,0.5,1.1,1.1,1.1h42.9c0.6,0,1.1-0.5,1.1-1.1l0,0
			c0.3-0.4,0.5-0.8,0.5-1.3c0-1.1-0.9-2-2-2h-42C53.3,43.9,52.4,44.8,52.4,45.9z"/>
		<path fill="#696A6C" d="M55.6,38c0,0,0.1-0.2,0.1-0.4v-0.1L55.6,38z"/>
		<path fill="#696A6C" d="M106.5,35.9c-1.4-1.5-3.1-2.6-4.8-3.3c-1.1-0.4-2.3-0.7-3.3-0.8c-0.2,0-0.3,0-0.5,0
			c-1.8,0-3.4,0.2-4.7,0.9c-1.4,0.6-2.5,1.6-3.1,3c-0.5,1-0.6,1.9-0.6,2.8c0,1.6,0.6,2.7,0.6,2.9h2.2v-1.1c0-0.1,0-0.1,0-0.1
			c0-0.1-0.1-0.2-0.1-0.3c-0.1-0.3-0.2-0.7-0.2-1.2c0-0.5,0.1-1.1,0.4-1.7c0.4-0.8,1-1.4,1.9-1.8c0.9-0.4,2.2-0.6,3.7-0.6
			c0.1,0,0.3,0,0.4,0c1,0,2.5,0.5,3.9,1.3c1.4,0.8,2.7,2,3.4,3.2c0.5,0.9,0.8,1.8,0.8,2.7c0,0.2,0,0.3,0,0.5
			c-0.5,4.9-2.5,9.1-6.4,13.5c-2.5,2.9-5.8,6-8,8c2-6.5,4.6-14,4.6-14H75.4h0H54.2c0,0,3.1,8.9,5.1,15.7c-1.6-1.4-6.6-5.8-9.9-9.7
			c-3.8-4.4-5.9-8.6-6.4-13.5c0-0.1,0-0.3,0-0.5c0-1,0.3-1.9,0.8-2.7c0.8-1.3,2-2.4,3.4-3.2c1.4-0.8,2.9-1.3,3.9-1.3
			c0.1,0,0.3,0,0.4,0c1.6,0,2.8,0.2,3.7,0.6c0.9,0.4,1.5,1,1.9,1.8c0.3,0.6,0.4,1.2,0.4,1.7c0,0.5-0.1,0.9-0.2,1.2
			c-0.1,0.1-0.1,0.3-0.1,0.3c0,0,0,0.1,0,0.1v1.1h2.2c0-0.1,0.6-1.2,0.6-2.9c0-0.8-0.2-1.8-0.6-2.8c-0.7-1.4-1.8-2.5-3.2-3
			c-1.4-0.6-3-0.9-4.7-0.9c-0.2,0-0.3,0-0.5,0c-1,0-2.2,0.3-3.3,0.8c-1.7,0.7-3.4,1.8-4.8,3.3c-1.4,1.5-2.4,3.4-2.4,5.7
			c0,0.2,0,0.5,0,0.7c0.5,5.5,2.9,10.3,7,15c4.1,4.7,10.1,9.8,10.8,10.4c0.1,0.1,0.3,0.2,0.4,0.3c-0.6,0.1-1.1,0.5-1.3,1.1
			c-0.5,1.4-1.1,4.1,1.4,6.1c1,0.8,2,1.1,2.9,1.1c0.1,1,0.2,2,0.2,2.7c0.5,0,0.9,0.6,1.1,1.2c0.2-0.7,0.7-1.3,1.3-1.3
			c0.5,0,1,0.4,1.2,1c0.2-0.6,0.7-1,1.2-1c0.5,0,1,0.4,1.2,1c0.2-0.6,0.7-1,1.2-1c0.5,0,1,0.4,1.2,1c0.2-0.6,0.7-1,1.2-1
			c0.5,0,1,0.4,1.2,1c0.2-0.6,0.7-1,1.2-1c0.5,0,1,0.4,1.2,1c0.2-0.6,0.7-1,1.2-1c0.5,0,1,0.4,1.2,1c0.2-0.6,0.7-1,1.2-1
			c0.5,0,1,0.4,1.2,1c0.2-0.6,0.7-1,1.2-1c0.5,0,1,0.4,1.2,1c0.2-0.6,0.7-1,1.2-1c0.5,0,1,0.4,1.2,1c0.2-0.6,0.7-1,1.2-1
			c0.5,0,1,0.4,1.2,1c0.2-0.6,0.7-1,1.2-1c0,0,0.1,0,0.1,0c0-0.7,0.1-1.7,0.2-2.7c0.9-0.1,1.9-0.3,2.9-1.1c2.5-1.9,1.9-4.7,1.4-6.1
			c-0.4-1.2-1.8-1.5-2.7-0.6c0.1-0.2,0.1-0.4,0.1-0.6c0.1-0.1,0.2-0.1,0.3-0.2c0.7-0.6,6.8-5.8,10.8-10.4c4.1-4.7,6.5-9.5,7-15
			c0-0.2,0-0.5,0-0.7C108.9,39.3,107.9,37.4,106.5,35.9z M58.8,71.2c-0.7-0.9-0.1-1.8,0.6-1.8c0.5,0,0.9,0.3,1.1,0.6
			c0.2,0.9,0.4,1.8,0.6,2.5C60.2,72.5,59.3,71.9,58.8,71.2z M91.3,69.4c0.7,0,1.4,0.9,0.6,1.8c-0.5,0.7-1.4,1.3-2.3,1.3
			c0.2-0.8,0.4-1.6,0.6-2.5C90.5,69.7,90.8,69.4,91.3,69.4z"/>
		<path fill="#696A6C" d="M95,37.7c0,0.1,0.1,0.3,0.1,0.4L95,37.7L95,37.7z"/>
		<path fill="#696A6C" d="M85.1,112.1c0.6-3.2-4.9-4.6-4.9-4.6h-2.6h-4.4h-2.6c0,0-5.5,1.4-4.9,4.6h7.5h4.4H85.1z"/>
		<path fill="#696A6C" d="M89.2,117.3H61.6c-1.1,0-2,0.7-2.4,1.6c0,0.9,1.3,0.9,2.4,0.9h27.6c1.1,0,2.4,0.1,2.4-0.9
			C91.2,118,90.3,117.3,89.2,117.3z"/>
		<path fill="#696A6C" d="M60.7,115.8c0,0.3,1.2,0.3,2.2,0.3H86c0,0,0.1,0,0.1,0h1.8c1,0,2.2,0,2.2-0.3c-0.3-0.3-1.2-0.5-2.2-0.5
			h-0.3c0-0.1,0-0.1,0-0.2c-0.3-1-1-1.6-1.8-1.6H65c-0.8,0-1.5,0.7-1.8,1.6c0,0.1,0,0.1,0,0.2h-0.3C61.8,115.4,61,115.6,60.7,115.8z
			"/>
		<path fill="#696A6C" d="M96.5,82.3c-1-1.2-2-2-3.4-1.3c-0.9,0.4-1.2,1.8-1.4,2.7c-0.3-1.5-1.4-2.6-2.6-2.8c0-0.1-0.1-0.2-0.1-0.4
			c-0.1-0.2-0.1-0.4-0.1-0.7c0,0-0.1,0-0.1,0c-0.6,0-1,0.5-1,1.2l0,0h-0.4l0,0c0-0.7-0.5-1.2-1-1.2c-0.6,0-1,0.6-1,1.2l0,0h-0.4l0,0
			c0-0.7-0.5-1.2-1-1.2c-0.5,0-0.9,0.5-1,1.1c-0.1,0-0.1,0-0.2,0c-0.1,0-0.1,0-0.2,0c-0.1-0.6-0.5-1.1-1-1.1c-0.5,0-0.9,0.4-1,1
			c0,0.1,0,0.1,0,0.2h0H80h0c0-0.1,0-0.1,0-0.2c-0.1-0.6-0.5-1-1-1c-0.6,0-1,0.5-1,1.1c0,0,0,0.1,0,0.1h0h-0.3h0c0,0,0-0.1,0-0.1
			c0-0.6-0.5-1.1-1-1.1c-0.5,0-0.9,0.5-1,1c-0.1,0-0.1,0-0.2,0c-0.1,0-0.2,0-0.3,0.1c-0.1-0.6-0.5-1.1-1-1.1c-0.6,0-1,0.6-1,1.2l0,0
			h-0.4l0,0c0-0.7-0.5-1.2-1-1.2c-0.6,0-1,0.6-1,1.2l0,0h-0.4h0c0-0.7-0.5-1.2-1-1.2c-0.5,0-0.9,0.5-1,1c0,0-0.1,0-0.1,0
			c-0.1,0-0.3,0.1-0.4,0.1c-0.1-0.6-0.5-1.1-1-1.1c-0.6,0-1,0.6-1,1.2h0h-0.3l0,0c0-0.7-0.5-1.2-1-1.2c-0.6,0-1.1,0.6-1.1,1.2h-0.1
			h-0.1c0,0-0.1,0-0.1,0c0-0.7-0.5-1.2-1-1.2c0,0.3-0.1,0.5-0.1,0.7c0,0.1-0.1,0.3-0.1,0.4c-1.3,0.2-2.3,1.3-2.6,2.8
			c-0.2-0.9-0.5-2.3-1.4-2.7c-1.4-0.7-2.4,0.1-3.4,1.3c-0.2,0.2-0.3,0.4-0.4,0.7c-0.7,1.4-0.8,3.4-0.8,4.6v0
			c-0.1,1.3,0.1,3.1,0.3,4.2c0.8,9.6,8.3,12.9,18.1,13.6v0.1c0,0.5-0.3,0.9-0.8,1.2v0.2h9.7v-0.2c-0.5-0.3-0.8-0.7-0.8-1.2v-0.1
			c9.9-0.7,17.4-4.1,18.1-13.8c0.1-1.1,0.3-2.7,0.2-3.8c0,0,0-0.1,0-0.1c0-1.2-0.1-3.2-0.8-4.6C96.8,82.7,96.7,82.5,96.5,82.3z"/>
	</g>
</g>
</svg>
