<?xml version="1.0" encoding="iso-8859-1"?>
<!-- Generator: Adobe Illustrator 13.0.0, SVG Export Plug-In . SVG Version: 6.00 Build 14948)  -->
<!DOCTYPE svg PUBLIC "-//W3C//DTD SVG 1.1//EN" "http://www.w3.org/Graphics/SVG/1.1/DTD/svg11.dtd">
<svg version="1.1" id="Layer_1" xmlns="http://www.w3.org/2000/svg" xmlns:xlink="http://www.w3.org/1999/xlink" x="0px" y="0px"
	 width="100px" height="100px" viewBox="0 0 100 100" enable-background="new 0 0 100 100" xml:space="preserve">
<g>
	<g>
		<g>
			<path fill="none" d="M32.554,84.076c3.142,1.631,6.565,2.766,10.182,3.347L42.05,58.952L32.554,84.076z"/>
		</g>
		<path fill="#36A457" d="M50.863,6.5C25.918,6.5,5.697,26.721,5.697,51.666c0,24.945,20.221,45.167,45.167,45.167
			s45.166-20.222,45.166-45.167C96.029,26.721,75.809,6.5,50.863,6.5z M48.125,89.99c-19.905,0-36.04-16.138-36.04-36.041
			c0-19.906,16.135-36.044,36.04-36.044c19.906,0,36.043,16.138,36.043,36.044C84.169,73.853,68.031,89.99,48.125,89.99z"/>
	</g>
	<path fill="#444148" d="M84.649,33.497l-4.186-17.271L64.241,28.961l2.856,0.651L53.009,68.562l-0.498-31.832H38.521L26.675,68.562
		l-0.285-31.832h-7.817c-3.776,5.749-4.71,11.545-4.71,16.627c0,13.103,7.473,24.471,18.373,30.125l9.496-25.125l0.685,28.471
		c1.759,0.282,3.552,0.471,5.39,0.471c3.904,0,8.375-1.25,13.001-3.379l21.482-50.946L84.649,33.497z"/>
</g>
</svg>
