<?xml version="1.0" encoding="utf-8"?>
<!-- Generator: Adobe Illustrator 18.1.0, SVG Export Plug-In . SVG Version: 6.00 Build 0)  -->
<svg version="1.1" id="Layer_1" xmlns="http://www.w3.org/2000/svg" xmlns:xlink="http://www.w3.org/1999/xlink" x="0px" y="0px"
	 viewBox="0 0 150 150" enable-background="new 0 0 150 150" xml:space="preserve">
<g>
	<path fill="#ED3324" d="M58.7,110.1c-1.1,1-2.8,2-5.5,2c-1.3,0-2.7-0.2-4.5-0.8l-0.4-0.1l-0.4-0.2c-0.1-0.1-1.4-0.7-4-1.6
		c-1.4-0.5-2.4-0.7-3.2-0.9c-0.8-0.2-1.5-0.4-2.4-0.7c-0.5,0.6-1,0.9-1.5,1.2c1.8,2.4,3.8,4.8,6,7.1c23.7,23.4,61.9,23.3,85.3-0.4
		c10.4-10.5,16.2-23.9,17.3-37.5c-2.1,9.8-7,19.2-14.6,26.9C111.1,124.8,80.2,126.5,58.7,110.1z"/>
	<path fill="#ED3324" d="M32.1,85.6l1.6,0H35c0.1,0,0.2,0,0.3,0c0.9-0.7,2.3-1.9,3.9-3.4c-5.6-18.6-1.1-39.6,13.6-54.4
		c7.1-7.2,15.8-12,24.9-14.4c-12.9,1.6-25.4,7.4-35.3,17.4C27.2,46.1,22,67.5,26.5,87c1.4-0.7,2.6-1.2,3.4-1.3
		C30.6,85.7,31.3,85.6,32.1,85.6z"/>
	<path fill="#00ACE4" d="M62,107.1c-0.1,0.1-0.1,0.1-0.2,0.2c5.6,3.9,12,6.7,19.1,8.2c12.2,2.5,24.3,0.3,34.5-5.2
		c-7.9,3-16.8,3.9-25.8,2.1c-8.4-1.7-15.7-5.6-21.6-10.9C66.3,103.5,64,105.4,62,107.1z"/>
	<path fill="#00ACE4" d="M48.2,73.5c1-1.2,2.5-2.8,4.3-4.3c-0.2-3.8,0-7.6,0.8-11.4c5.1-25.1,29.5-41.3,54.6-36.3
		c8.4,1.7,15.8,5.5,21.7,10.9c-7.1-8.4-17-14.5-28.7-16.9C73.4,9.9,46.6,27.8,41,55.4c-1.7,8.3-1.2,16.6,1,24.3
		C44.8,77,47.5,74.4,48.2,73.5z"/>
	<path fill="#007BBB" d="M24.9,106.6c1.1-0.8,3-1.6,4.2-1.6c1.1-0.1,3-0.2,4.1-0.2s0.9-2,1.1-2c0.2,0,2.6-0.5,4.5,0.2
		c1.8,0.7,2.9,0.6,6,1.8c3.1,1.1,4.5,1.8,4.5,1.8c4.7,1.3,5,0,6.6-1.6c1.6-1.5,6-4.8,8.1-7.5c2.1-2.7,6.7-10.8,7.2-11.8
		c0.5-1,0.3-0.6,1.8-0.9c1.6-0.3,3.9-2.1,5.5-2.8c1.6-0.7,5.6-1.7,8.4-2.1c2.8-0.4,5.4-3.2,6.5-3.9c1.1-0.7,4.5-2.5,5.3-2.5
		c0.8,0,0.9,0.5,2.1,1.1c1.3,0.6,9.4,0.3,12.5,0.3c3.1,0,4,0.2,5.6-0.6c1.7-0.9,8.5-5.3,8.5-5.3c0.1,0.3,1.1,0,1.9-0.1
		c0.9-0.1,2.6-1.5,4.3-1.5c1.7-0.1,1.7-0.6,1.7-0.6s2.9,0.1,4.1-0.1c1.2-0.1,0.7-4.7,0.7-4.7c-0.3-6.4-5.3-8.3-5.3-8.3
		c-1-2.4-3.4-2.8-4.6-2.5c-1.2,0.3-5.2,1.4-6.4,1.5c-1.2,0.1-3.8-0.3-4.7-0.3c-0.9,0-0.8,0.7-1.3,0.7c-0.6,0-9.2-0.4-9.2-0.4
		s0.3-5.6-2.5-8c-2.9-2.5-6.4-2.1-8.8-1.2c-2.5,0.9-4.5,4.1-4.5,4.1h-0.3c0,0-0.5-0.8-2.2-1.8c-1.7-1.1-2.7-1.4-4-1.1
		c-1.3,0.3-4.3,3.5-5.4,5.1c-1.1,1.5,0.1,2.5-0.1,2.7c-0.3,0.1-6,8-6.3,8.8c-0.3,0.8-1.5,2.3-3,2.5c-1.6,0.2-5.7,3.2-6.1,4.2
		c-0.4,1.1-0.6,1.4-0.6,1.4c-7,0.1-11.7,5.1-13.5,7.3c-1.8,2.2-13.7,13.7-15.3,14c-1.6,0.3-4.5-0.1-6.3,0.1
		c-1.8,0.2-11.2,6.5-11.7,6.8c-0.5,0.4-1.9,0.3-4,0.2c-2.1-0.2-3,0.4-3.8,1.8c-0.9,1.3-0.5,1.8-2.7,4.4c-2.2,2.6-0.9,5.9-0.9,5.9
		c1.3,2.8,4.2,0.8,5.2-0.1c1.1-0.9,2.4-3.2,4-3.9c1.6-0.7,2.4-2.3,2.4-2.9c0-0.6,1.2-1.1,2.3-1.5c1.1-0.4,3.7-1.1,3.7-1.1
		s-2.6,2.9-3.6,4.6c-1,1.7-0.5,4.3,0.6,4.7C22.5,109.9,23.8,107.4,24.9,106.6z M104.4,60c0,0,7.2-0.9,9.1-1.8
		c1.9-0.9,4.9-1.4,4.9-1.4s-0.2,0.6,0.2,0.6c0.4,0,3.3,0.1,3.9,0.1c0.6,0,1.3-0.6,2-0.4c0.6,0.1,1.5,1.5,2.2,2c0.1,0.2,0.2,1.8,1,3
		c0,0-0.2,1.8-0.7,2.2c-0.5,0.4-1.6,1.1-1.7,1.5c0,0-1.9,1-2.7,1.1c-0.9,0.1-4.4,0.8-5.4,1.4c-1,0.6-1.5,1.4-2.7,1.3
		c-1.2-0.1-5.4-1.5-5.6-1.5c0,0,0.5-2.9-0.8-4C106.6,62.8,103.7,61.1,104.4,60z M54.4,88.9c0,0-2.7,7.9-4.1,9.1
		c-1.4,1.2,1-0.7-8.8-1.2C41.5,96.8,48.4,94,54.4,88.9z"/>
</g>
</svg>
