<?xml version="1.0" encoding="utf-8"?>
<!-- Generator: Adobe Illustrator 18.1.0, SVG Export Plug-In . SVG Version: 6.00 Build 0)  -->
<svg version="1.0" id="Layer_1" xmlns="http://www.w3.org/2000/svg" xmlns:xlink="http://www.w3.org/1999/xlink" x="0px" y="0px"
	 viewBox="0 0 150 150" enable-background="new 0 0 150 150" xml:space="preserve">
<g>
	<g>
		<path fill-rule="evenodd" clip-rule="evenodd" fill="#23A7D3" d="M81,51.8c0,0-27.9-4.2-45,0.1l17.8-0.9"/>
		<path fill-rule="evenodd" clip-rule="evenodd" fill="#23A7D3" d="M94.5,63.5c0,0,36.5,7.5,40.6,17.2c4.1,9.7-0.7,1.5-3,2.2
			c-1.1,0.4-9.4-12.3-28.8-15.3c-11.7-1.8-24-0.7-27.4-1.5"/>
		<linearGradient id="SVGID_1_" gradientUnits="userSpaceOnUse" x1="51.0587" y1="59.9921" x2="95.3463" y2="59.9921">
			<stop  offset="0" style="stop-color:#C2DFEE"/>
			<stop  offset="0.5" style="stop-color:#9ACDE4"/>
			<stop  offset="0.7558" style="stop-color:#8DC8E2"/>
			<stop  offset="1" style="stop-color:#86C6E1"/>
		</linearGradient>
		<path fill-rule="evenodd" clip-rule="evenodd" fill="url(#SVGID_1_)" d="M54,68.4l-3-14.9l29.4-1.9l14.9,13.1L54,68.4z"/>
		<path fill-rule="evenodd" clip-rule="evenodd" fill="#48C4D9" d="M54,68.4l-3-14.9l29.4-1.9l14.9,13.1L54,68.4z M54,55l1.1,11.6
			l35.4-3.4l-9.7-9.3L54,55z"/>
		<linearGradient id="SVGID_2_" gradientUnits="userSpaceOnUse" x1="98.7696" y1="86.1723" x2="134.4932" y2="86.1723">
			<stop  offset="0" style="stop-color:#2EC4F2"/>
			<stop  offset="0.5" style="stop-color:#27ACE3"/>
			<stop  offset="1" style="stop-color:#1C94D2"/>
		</linearGradient>
		<path fill-rule="evenodd" clip-rule="evenodd" fill="url(#SVGID_2_)" d="M98.8,87.8c0,0,31.6-0.4,35.7-3.4"/>
		<path fill-rule="evenodd" clip-rule="evenodd" fill="#23A7D3" d="M88.8,91.4l1.1,3c0,0,13.4,1.5,16,0.7c2.6-0.7,0.4-2.2,0.4-2.2
			L88.8,91.4z"/>
		<path fill-rule="evenodd" clip-rule="evenodd" fill="#F1F1F2" d="M90.2,100.6c0,0,25.3,7.8,44.3-4.5l0.4,2.2
			c0,0-7.1,10.8-43.9,5.2L90.2,100.6z"/>
		<path fill-rule="evenodd" clip-rule="evenodd" fill="#194171" d="M70.7,109.6c-4.8-0.4-9-6.1-9.3-12.8C61,89.9,64.8,84.6,69.8,85
			c5,0.5,9.2,6.5,9.3,13.3C79.3,105,75.5,110,70.7,109.6z M71.7,87.2c-3.8,0-6.9,4.2-6.9,9.3c0,5.1,3.1,9.3,6.9,9.3
			c3.8,0,6.9-4.2,6.9-9.3C78.6,91.4,75.5,87.2,71.7,87.2z"/>
		<linearGradient id="SVGID_3_" gradientUnits="userSpaceOnUse" x1="24.2652" y1="91.5428" x2="58.5029" y2="91.5428">
			<stop  offset="0" style="stop-color:#2EC4F2"/>
			<stop  offset="0.5" style="stop-color:#27ACE3"/>
			<stop  offset="1" style="stop-color:#1C94D2"/>
		</linearGradient>
		<path fill-rule="evenodd" clip-rule="evenodd" fill="url(#SVGID_3_)" d="M24.3,86.5l33.1,7.1l1.1,3"/>
		<path fill-rule="evenodd" clip-rule="evenodd" fill="#0082CA" d="M33.1,79.3l23.8,3.4v4.8"/>
		<path fill-rule="evenodd" clip-rule="evenodd" fill="#BBBDBF" d="M21.9,93.2L4.6,84.9l15.3,9.7"/>
		<path fill-rule="evenodd" clip-rule="evenodd" fill="#194171" d="M19,94.2c-2-0.5-4.4-3.1-5.8-7.3c-1.7-5-1.2-11,2.3-11
			c3.8,0,7.6,7.2,7.6,12.8C23.1,93.3,21,94.8,19,94.2z M20.3,82.7c-0.6-3.8-2.7-6.6-4.8-6.3c-2.1,0.3-3.3,3.6-2.7,7.4
			c0.6,3.8,2.7,6.6,4.8,6.3C19.7,89.8,20.9,86.5,20.3,82.7z"/>
	</g>
	<g>
		<path fill="#FFFFFF" d="M131.8,97.2c9.6-7.4,17.1-21.2,11.9-29c-1-1.5-3.1-2.4-5.1-1.1C133.9,70.2,146.4,80.8,131.8,97.2z"/>
		<path fill="#FFFFFF" d="M114.8,85.3c0.4,0,0.6-0.3,0.5-0.5c0-0.5-0.2-1,0-1.6c0.3-0.8,1-1.4,1.8-1.7c0,0-1.2,0-2,0.5
			c-0.8,0.5-1.3,1.4-1.2,2.1C114,84.6,114.2,85.2,114.8,85.3z"/>
		<path fill="#FFFFFF" d="M112.6,104.5c2.1-0.3,10-2.5,15.8-8.1c6.3-6.2,11.2-18.3,1-29.8c-6.7-7.6-16.1-6.5-19.5-3.4
			c-5.1,4.5-4,10.7-2.5,12.5c-1-3.2,0.6-6.9,4.4-9.7c4.4-3.1,12.8-0.8,16.6,3.5c6.8,7.9,6.1,18.5-1.1,25.9
			C121.7,101.3,114.6,103.9,112.6,104.5z"/>
		<path fill="#193863" d="M113.9,85.6c0.7,0.6,1.7,0.7,2.2,1.6c2.3,4,0.4,9.3-6.3,11.9c5.4,0.1,15-7.8,11.4-15.3
			c-1.3-2.6-4.7-4.5-7-2.2C113.4,82.3,112.6,84.3,113.9,85.6z M117.2,81.5c-0.8,0.3-1.6,0.8-1.8,1.7c-0.2,0.6,0,1.1,0,1.6
			c0,0.2-0.2,0.5-0.5,0.5c-0.7,0-0.8-0.7-0.8-1.1c0-0.7,0.4-1.6,1.2-2.1C116,81.5,117.2,81.5,117.2,81.5z"/>
		<path fill="#48C4D9" d="M130.5,97.5c9.5-7.4,17.1-21.2,11.9-29c-1-1.5-3.1-2.4-5.1-1.1C132.6,70.6,145.1,81.2,130.5,97.5z"/>
		
			<linearGradient id="SVGID_4_" gradientUnits="userSpaceOnUse" x1="-47.4286" y1="17.2349" x2="-7.8902" y2="17.2349" gradientTransform="matrix(0.6639 0.7478 -0.7478 0.6639 144.1574 94.7166)">
			<stop  offset="0" style="stop-color:#C2DFEE"/>
			<stop  offset="0.5" style="stop-color:#9ACDE4"/>
			<stop  offset="0.7558" style="stop-color:#8DC8E2"/>
			<stop  offset="1" style="stop-color:#86C6E1"/>
		</linearGradient>
		<path fill="url(#SVGID_4_)" d="M106.9,76.8c2.8,2.9,5.9,2.6,7.6,1.4c2.9-2,1.7-4.2,4.4-5.7c3.9-2.2,8.6,2.8,9.6,6.1
			c1,3.5,1.1,8.8-4.6,14.9c-8.4,9.1-22.1,11.9-31.7,7.7c0.7,0.8,1.5,1.7,2.2,2.6c12.3,4.8,25.5,2.8,34.7-6.2
			c9-8.8,9.2-21.2,2.7-29.8c-6.9-9.3-17.3-10.2-23.1-4.9C104.2,66.9,103.9,73.6,106.9,76.8z M129.3,66.6c10.2,11.5,5.4,23.6-1,29.8
			c-5.8,5.6-13.7,7.8-15.8,8.1c2-0.6,9.1-3.2,14.7-9c7.1-7.4,7.9-18,1.1-25.9c-3.8-4.4-12.2-6.7-16.6-3.5c-3.8,2.7-5.4,6.4-4.4,9.7
			c-1.4-1.8-2.6-8,2.5-12.5C113.3,60.1,122.6,59,129.3,66.6z"/>
	</g>
	<polygon fill="#194171" points="60.3,45.5 65,52.6 70.8,49.2 66,54.4 69.6,61.8 64.9,55 59.5,58.6 63.7,53.5 	"/>
</g>
</svg>
