<?xml version="1.0" encoding="utf-8"?>
<!-- Generator: Adobe Illustrator 18.1.0, SVG Export Plug-In . SVG Version: 6.00 Build 0)  -->
<svg version="1.1" id="Layer_1" xmlns="http://www.w3.org/2000/svg" xmlns:xlink="http://www.w3.org/1999/xlink" x="0px" y="0px"
	 viewBox="0 0 2000 2000" enable-background="new 0 0 2000 2000" xml:space="preserve">
<g>
	<path fill="#FF9F36" d="M670.4,886l79.2,8.6c43.1-398.4-384.2-510-388.5-511.1l-19.4,77.3C356.6,464.6,706,557,670.4,886z"/>
	<path fill="#FF9F36" d="M633.1,1064.5c-103.6-72.1-128.7-155.9-128.7-221.3c0-43.7,11.2-78,17.7-94.6c15.1-7.6,36.9-11.3,55.8,15.2
		l64.8-46.2c-53.5-74.9-134-58.4-175.1-29.1l-8.1,5.8l-4.4,8.9c-1.2,2.5-122.1,249.7,132.4,426.7
		C798.7,1276.8,909.2,1502,909.2,1583h79.7C988.9,1480,862.2,1223.8,633.1,1064.5z"/>
	<path fill="#FF9F36" d="M514,1126.6l-46.3,64.7c92.3,66,332,276.7,332,425.7h79.7C879.3,1388,528.9,1137.3,514,1126.6z"/>
	<path fill="#FF9F36" d="M433.3,1206.9l-44.2,66.9c97.1,64.9,251.2,194.2,251.2,286.2H720C720,1399,462.6,1226.5,433.3,1206.9z"/>
	<path fill="#FF9F36" d="M319.4,1253.1c-144.6-72.3-191.3-288.7-128.2-593.8l-78-16.2c-71,343.2-8.8,591.5,170.6,681.2
		c163.3,81.7,229.7,228,230.4,229.5l73-32C584,1514.7,509.4,1348.1,319.4,1253.1z"/>
	<path fill="#FF9F36" d="M1329.3,886c-35.5-329,313.8-421.5,328.7-425.2l-19.4-77.3c-4.3,1.1-431.6,112.6-388.5,511.1L1329.3,886z"
		/>
	<path fill="#FF9F36" d="M1412.1,1129.9c254.5-177,133.7-425.4,132.4-427.9l-4.4-8.3l-8.1-5.5c-41.1-29.3-121.6-45.6-175.1,29.3
		l64.8,46.4c18.9-26.5,40.7-22.5,55.8-14.9c6.5,16.6,17.7,51.5,17.7,95.2c0,65.4-25.1,148.1-128.7,220.2
		c-229.1,159.4-355.8,415.5-355.8,518.5h79.7C1090.5,1502,1200.9,1276.8,1412.1,1129.9z"/>
	<path fill="#FF9F36" d="M1532,1191.4l-46.3-65c-14.9,10.7-365.3,261.5-365.3,490.5h79.7C1200.1,1468,1439.7,1257.5,1532,1191.4z"/>
	<path fill="#FF9F36" d="M1610.6,1273.2l-44.2-65.7c-29.3,19.5-286.7,191.5-286.7,352.5h79.7
		C1359.4,1468,1513.5,1338.1,1610.6,1273.2z"/>
	<path fill="#FF9F36" d="M1886.5,643.2l-78,16.2c63.1,305,16.4,521.5-128.2,593.8c-190,95-264.6,261.6-267.7,268.7l73,32
		c0.6-1.5,67.1-147.8,230.4-229.5C1895.4,1234.6,1957.5,986.4,1886.5,643.2z"/>
	<path fill="#C97773" d="M863.6,1182.2c0,0,90.1,57.3,122.8,110.5l1.7-4.1c32.7-53.2,122.8-110.5,122.8-110.5
		c174.3-90.1,176.1-286.6,12.3-298.9c-94.8-7.1-126.5,55.8-136.3,110c-10.7-53.2-43.1-112.8-135.6-105.9
		C687.5,895.7,691.6,1088.1,863.6,1182.2z"/>
</g>
</svg>
