<?xml version="1.0" encoding="utf-8"?>
<!-- Generator: Adobe Illustrator 16.0.0, SVG Export Plug-In . SVG Version: 6.00 Build 0)  -->
<!DOCTYPE svg PUBLIC "-//W3C//DTD SVG 1.1//EN" "http://www.w3.org/Graphics/SVG/1.1/DTD/svg11.dtd">
<svg version="1.1" id="Layer_1" xmlns="http://www.w3.org/2000/svg" xmlns:xlink="http://www.w3.org/1999/xlink" x="0px" y="0px"
	 width="100px" height="100px" viewBox="0 0 100 100" enable-background="new 0 0 100 100" xml:space="preserve">
<g>
	<path fill="#37B34A" d="M48.917,82.896c2.552,0.49,5.134,0.891,7.707,1.177c3.58,0.422,7.186,0.609,10.748,0.544
		c0.376-0.009,0.746-0.038,1.117-0.049c22.313-32.16-5.723-64.034-13.859-74.045C59.641,29.546,35.864,43.345,48.917,82.896z"/>
	<path fill="#231F20" d="M38.861,18.758c0,4.551-3.64,8.24-8.122,8.24c-4.486,0-8.122-3.689-8.122-8.24s3.636-8.235,8.122-8.235
		C35.221,10.522,38.861,14.207,38.861,18.758z"/>
	<path fill="#FFFFFF" d="M60.832,84.448c0.134-0.356,0.277-0.712,0.396-1.068c1.375-4.1,2.211-8.329,2.75-12.563
		c0.529-4.245,0.752-8.508,0.688-12.768c-0.029-2.132-0.163-4.259-0.356-6.385c-0.242-2.117-0.484-4.253-1.083-6.321
		c-0.158,2.132-0.371,4.224-0.599,6.321l-0.653,6.267c-0.435,4.169-0.885,8.325-1.409,12.449c-0.529,4.136-1.107,8.246-1.943,12.287
		c-0.109,0.524-0.233,1.049-0.352,1.573C59.126,84.319,59.982,84.389,60.832,84.448z"/>
	<path fill="#231F20" d="M25.487,75.348c3.2,1.563,6.549,2.909,9.977,4.047c2.839,0.954,5.718,1.761,8.651,2.458
		c-13.677-34.921,12.221-59.736,6.208-71.33c1.123,10.046-18.885,30.053-22.169,41.231c-6.148-7.726-16.457-23.4-10.199-39.693
		c-9.972,17.075-2.746,45.6,3.66,61.181C22.87,73.987,24.162,74.695,25.487,75.348z"/>
	<radialGradient id="SVGID_1_" cx="42.458" cy="88.8135" r="50.1806" gradientUnits="userSpaceOnUse">
		<stop  offset="0" style="stop-color:#575758"/>
		<stop  offset="0.6533" style="stop-color:#322F30"/>
		<stop  offset="1" style="stop-color:#231F20"/>
	</radialGradient>
	<path fill="url(#SVGID_1_)" d="M87.602,72.696c-1.177-1.864-2.637-3.328-4.179-4.601c-2.146-1.74-4.433-3.175-6.787-4.422
		c-0.139,1.178-0.326,2.355-0.568,3.548c1.701,1.162,3.313,2.413,4.739,3.804c1.222,1.216,2.334,2.518,3.064,3.867
		c0.373,0.673,0.624,1.354,0.748,1.988c0.059,0.316,0.084,0.624,0.074,0.915c0,0.144-0.016,0.286-0.034,0.425l-0.036,0.209
		l-0.029,0.104l-0.009,0.033c-0.564,2.271-3.631,3.834-6.837,4.725c-3.264,0.881-6.815,1.247-10.376,1.325
		c-3.563,0.065-7.168-0.122-10.748-0.544c-3.581-0.406-7.178-1.009-10.684-1.801c-3.571-0.781-7.049-1.73-10.477-2.877
		c-3.428-1.138-6.776-2.483-9.977-4.047c-3.195-1.563-6.257-3.403-8.849-5.575c-1.276-1.087-2.424-2.29-3.22-3.536
		c-0.4-0.622-0.703-1.246-0.875-1.85c-0.084-0.297-0.134-0.595-0.154-0.87c-0.015-0.148-0.015-0.287-0.009-0.426l0.015-0.208
		l0.015-0.1l0.005-0.049l0.005-0.029c-0.01,0.029,0.02-0.089-0.02,0.049l0.079-0.335l0.04-0.158
		c0.034-0.109,0.089-0.259,0.144-0.388c0.114-0.266,0.267-0.533,0.455-0.801c0.376-0.524,0.895-1.027,1.508-1.482
		c0.604-0.451,1.286-0.843,2.013-1.198c-0.356-1.336-0.698-2.69-1.014-4.07c-1.172,0.43-2.334,0.965-3.458,1.686
		c-0.925,0.6-1.825,1.336-2.606,2.276c-0.386,0.47-0.737,0.988-1.039,1.563c-0.148,0.286-0.272,0.563-0.396,0.896l-0.178,0.51
		l-0.094,0.335c-0.683,2.78,0.138,5.264,1.222,7.212c1.113,1.968,2.542,3.526,4.026,4.927c3.002,2.779,6.361,4.866,9.793,6.707
		c6.896,3.61,14.261,6.033,21.714,7.716c7.523,1.627,15.185,2.521,22.975,2.157c3.888-0.219,7.811-0.697,11.703-1.949
		c1.935-0.644,3.894-1.455,5.722-2.77c0.916-0.663,1.797-1.466,2.543-2.454c0.372-0.494,0.707-1.038,0.979-1.632
		c0.139-0.297,0.248-0.584,0.366-0.921c0.05-0.168,0.113-0.375,0.149-0.524l0.073-0.335C89.685,76.926,88.75,74.537,87.602,72.696z"
		/>
</g>
</svg>
