<?xml version="1.0" encoding="iso-8859-1"?>
<!-- Generator: Adobe Illustrator 13.0.0, SVG Export Plug-In . SVG Version: 6.00 Build 14948)  -->
<!DOCTYPE svg PUBLIC "-//W3C//DTD SVG 1.1//EN" "http://www.w3.org/Graphics/SVG/1.1/DTD/svg11.dtd">
<svg version="1.1" id="Layer_1" xmlns="http://www.w3.org/2000/svg" xmlns:xlink="http://www.w3.org/1999/xlink" x="0px" y="0px"
	 width="100px" height="100px" viewBox="0 0 100 100" enable-background="new 0 0 100 100" xml:space="preserve">
<g>
	<g>
		<g>
			<path fill="#5C94CF" d="M79.617,26.154c-38.188-0.706-29.35,29.349-29.35,29.349S80.322,64.342,79.617,26.154z"/>
			<path fill="#5C94CF" d="M50.268,55.503C12.08,54.791,20.925,84.846,20.925,84.846S50.974,93.684,50.268,55.503z"/>
			<path fill="#5C94CF" d="M79.617,84.846c0.705-38.188-29.35-29.343-29.35-29.343S41.429,85.552,79.617,84.846z"/>
			<path fill="#5C94CF" d="M50.268,55.503c0.706-38.187-29.342-29.349-29.342-29.349S12.08,56.209,50.268,55.503z"/>
			<path fill="#5C94CF" d="M50.268,14c-27.5,26.497,0,41.503,0,41.503S77.768,40.497,50.268,14z"/>
			<path fill="#5C94CF" d="M50.268,55.503C22.768,82,50.268,97,50.268,97S77.768,82,50.268,55.503z"/>
			<path fill="#5C94CF" d="M91.771,55.503c-26.503-27.504-41.503,0-41.503,0S65.268,82.997,91.771,55.503z"/>
			<path fill="#5C94CF" d="M50.268,55.503c-26.504-27.504-41.503,0-41.503,0S23.764,82.997,50.268,55.503z"/>
		</g>
	</g>
	<g>
		<path fill="#FFFFFF" d="M39.886,53.853c-1.063-0.441-2.039-0.997-2.925-1.66c-0.887-0.666-1.648-1.435-2.284-2.307
			c-0.635-0.871-1.13-1.811-1.485-2.816c-0.355-1.004-0.502-2.054-0.442-3.146c0.029-1.095,0.256-2.093,0.686-2.995
			c0.429-0.901,1.004-1.668,1.73-2.304c0.723-0.637,1.565-1.125,2.527-1.463c0.96-0.34,2.001-0.496,3.125-0.466
			c1.98,0.06,3.872,0.524,5.676,1.397c1.802,0.871,3.533,1.914,5.188,3.125c1.123,0.799,2.298,1.529,3.525,2.195
			c1.226,0.666,2.489,1.206,3.789,1.619l0.399-0.444c0.711-0.708,1.479-1.368,2.308-1.973c0.825-0.604,1.742-1.087,2.749-1.442
			c0.353-0.117,0.791-0.212,1.307-0.289c0.518-0.071,1.027-0.064,1.528,0.022c0.503,0.089,0.947,0.289,1.331,0.599
			c0.384,0.312,0.621,0.762,0.711,1.354c0.087,0.59,0,1.093-0.266,1.507c-0.268,0.415-0.63,0.755-1.087,1.02
			c-0.459,0.267-0.97,0.465-1.53,0.599c-0.562,0.132-1.062,0.244-1.507,0.333c-1.716,0.294-3.46,0.429-5.233,0.396
			c-0.591,1.037-1.084,2.138-1.485,3.306c-0.399,1.167-0.747,2.313-1.041,3.437c-0.503,1.859-0.917,3.744-1.242,5.651
			c-0.326,1.906-0.679,3.82-1.063,5.741c-0.415,2.102-0.982,4.163-1.708,6.186c-0.724,2.025-1.779,3.836-3.168,5.434
			c-0.652,0.768-1.398,1.411-2.24,1.927c-0.842,0.519-1.744,0.874-2.705,1.064c-0.962,0.193-1.967,0.222-3.015,0.09
			c-1.052-0.134-2.108-0.495-3.171-1.087c-0.297-0.147-0.63-0.334-0.998-0.555c-0.371-0.221-0.659-0.464-0.864-0.732
			c-0.208-0.147-0.274-0.323-0.198-0.531c0.071-0.207,0.212-0.295,0.419-0.266c0.147,0.028,0.317,0.103,0.509,0.222
			c0.192,0.117,0.362,0.206,0.511,0.265c1.092,0.503,2.202,0.807,3.325,0.91c1.123,0.104,2.172-0.066,3.148-0.51
			c0.976-0.441,1.802-1.063,2.483-1.862c0.678-0.797,1.264-1.69,1.75-2.682c0.486-0.99,0.88-2.026,1.175-3.104
			c0.294-1.079,0.561-2.105,0.798-3.081c0.206-0.916,0.392-1.855,0.555-2.816c0.16-0.96,0.316-1.914,0.464-2.861
			c0.147-0.943,0.318-1.882,0.512-2.813c0.192-0.931,0.436-1.839,0.73-2.729c0.473-1.595,1.078-3.123,1.817-4.589
			c0.739-1.462,1.612-2.842,2.617-4.144c-1.035-0.09-2.054-0.26-3.06-0.509c-1.004-0.253-1.995-0.631-2.972-1.132
			c-0.769-0.385-1.492-0.827-2.173-1.329c-0.679-0.502-1.389-1.005-2.128-1.509c-1.153-0.769-2.387-1.477-3.703-2.128
			c-1.315-0.65-2.637-1.019-3.968-1.108c-1.389-0.089-2.592,0.199-3.614,0.865c-1.02,0.664-1.706,1.603-2.061,2.815
			c-0.416,1.213-0.48,2.5-0.201,3.856c0.281,1.361,0.88,2.589,1.798,3.682c0.442,0.502,0.931,0.945,1.462,1.329
			c0.532,0.385,1.092,0.727,1.684,1.021c0.208,0.09,0.512,0.187,0.909,0.289c0.4,0.102,0.672,0.258,0.822,0.464
			c0.147,0.208,0.154,0.386,0.022,0.533C40.308,53.868,40.123,53.913,39.886,53.853z M64.362,45.651
			c0.355-0.029,0.791-0.111,1.309-0.243c0.517-0.134,0.996-0.312,1.44-0.534c0.445-0.221,0.798-0.509,1.062-0.865
			c0.269-0.355,0.327-0.782,0.18-1.286c-0.147-0.5-0.48-0.81-0.999-0.932c-0.519-0.115-0.97-0.16-1.351-0.132
			c-0.533,0.061-1.036,0.186-1.51,0.377c-0.472,0.192-0.916,0.436-1.328,0.73c-0.531,0.355-1.015,0.763-1.442,1.22
			c-0.429,0.46-0.836,0.939-1.22,1.442C61.835,45.696,63.121,45.77,64.362,45.651z"/>
	</g>
</g>
</svg>
