<?xml version="1.0" encoding="utf-8"?>
<!-- Generator: Adobe Illustrator 18.1.0, SVG Export Plug-In . SVG Version: 6.00 Build 0)  -->
<svg version="1.1" id="Layer_1" xmlns="http://www.w3.org/2000/svg" xmlns:xlink="http://www.w3.org/1999/xlink" x="0px" y="0px"
	 viewBox="0 0 2000 2000" enable-background="new 0 0 2000 2000" xml:space="preserve">
<g>
	<path fill="#8A451F" d="M624,1679.1c-14.3-7.7-32.7-19.2-46.7-27.4c9.9,5.9,23.1,13.9,32.9,19.8
		C614.8,1674.1,619.4,1676.6,624,1679.1"/>
	<path fill="#8A451F" d="M1662.2,1415.9l10.5-16.5C1669.2,1404.9,1665.6,1410.3,1662.2,1415.9"/>
	<path fill="#8A451F" d="M1739.3,1048.7c0.4,38.4,23.2,74.5,11,114.1c-10.3,33.5-37.5,101.8-103.1,183.8c6.3,3.9,14.8,9.1,20.5,13.8
		c37.9-51.4,41-55.6,59.9-90.3c-15.5,31.5-37.8,72.7-55.7,102.9l2.3,10c37.7-62.8,70.3-117.1,96.1-221.4l2.5-10.4l4.9-24.7l5.6-34.9
		c-8.2-35-15.8-58-32.3-98.5C1747.4,1011.7,1739.1,1029.3,1739.3,1048.7"/>
	<path fill="#8A451F" d="M1782.3,1010.6c-1.3,21.7-0.8,49.7,1.8,53.1c4.7-2.2,7.6-66.5,4.9-82.6c-0.4-1.7-0.5-2-1.1-2.6
		C1784.5,980,1782.9,1001.4,1782.3,1010.6"/>
	<path fill="#8A451F" d="M1301.8,1714.7l38.6-17.2C1318.2,1707.8,1301.9,1714.6,1301.8,1714.7"/>
	<path fill="#8A451F" d="M1585.6,1501.8c-24.3,34.1-74.9,105-231.6,170.7c0.9,2.2,1.9,5.3,2,7.7c55.2-24.7,59.7-26.7,91-45.8
		c-28.4,16.9-67.3,37.9-97,52.4l-5.3,5.2c64.9-31.4,68.8-33.3,114.6-64.7c21-16.1,48.8-37.9,68.8-55.2
		c19.6-18.8,45.4-44.3,63.8-64.2c18.2-21.4,27.6-37.7,38.9-58.5c-2.6,3.1-5.2,6.1-7.9,9.2l2.9-2.3c-8.3,9.5-19.4,22.2-27.7,31.8
		l-6.3,5.2C1589.9,1495.9,1587.4,1499.3,1585.6,1501.8"/>
	<path fill="#8A451F" d="M1547.1,1430.8c-12,24.3,2.4,55.5-20,77c-26.3,25.3-86.8,75.7-195.4,129.6c5.9,1.9,13.8,4.5,19.5,6.7
		c63.5-30.7,68.7-33.3,106.5-55.7c-30.1,19.8-71.2,44.8-102.6,62.4l4.2,5.3c66.5-35.6,124-66.4,203.8-141.4l28.6-21.4l6.3-5.2
		l28.3-32.3c-26.5,22.3-29.3,4.7-40.9-69.2C1572.8,1401.5,1556,1412.7,1547.1,1430.8"/>
	<path fill="#8A451F" d="M1627,1400.6c-14.9,21.6-21.6,42.2-13.5,41.6c12.4-0.9,46.8-47.8,43.5-64.7
		C1652.9,1369.3,1637,1386,1627,1400.6"/>
	<polyline fill="#8A451F" points="639.7,1687.4 610.8,1671.8 650.7,1692.9 639.7,1687.4 	"/>
	<path fill="#8A451F" d="M1158.4,1757.2c-52.2,9.3-78.5,14-159.6-14c10.1,4.4,23.4,10.4,33.6,14.3c-10.1-4.3-23.8-9.4-33.6-14.3
		c33.4,17.8,48.7,25.9,81.9,26.7l2.7,0.2c6.7-0.8,15.6-1.8,22.3-2.7c12.4-1.9,28.9-4.5,41.2-6.7c27.9-5.3,42.2-9.1,58.8-13.4
		c-2.5,0.7-5,1.4-7.5,2l1.1-0.3c-8.4,1.8-19.5,4.2-27.8,6.1l-4.5,0.5C1164.2,1756.1,1160.9,1756.7,1158.4,1757.2"/>
	<path fill="#8A451F" d="M1257.8,1725l-0.2,0c3.1-0.8,6.2-1.7,9.3-2.5l-0.3,0.1C1262.1,1724.5,1262.1,1724.5,1257.8,1725
		 M1203.1,1738c6.7-1.8,15.9-3.3,22.8-4.4l35.2-8.7c-21.7,8.4-45.9,9.8-65.1,24.7c1.1-0.1,2.5-0.3,3.5-0.6
		c-8.4,1.8-19.6,4.3-28.1,6.1l-4.5,0.5l-21.7,1.2c-54.6,1.2-82.1,1.8-146.3-13.7l47.8,8.2c-14.4-2.5-33.5-5.4-47.8-8.2l6.6,1
		C1119.7,1759.7,1156.5,1750.1,1203.1,1738"/>
	<path fill="#8A451F" d="M1258.5,1730.2c-7.2,2.2-14.5,4.4-21.7,6.5c-11,3.3-17.1,5.1-18.7,6c1.1,0.3,11.6-1.5,43.5-12.7l18.1-6.6
		l1.5-0.6C1273.5,1725.1,1266.1,1727.8,1258.5,1730.2"/>
	<path fill="#8A451F" d="M1220.3,1715.1c-37.1,14.5-83.2,32.6-221.5,28.1l55.5,2.4l-55.5-2.4c73.5,4.5,110.4,6.7,184.6-4.2l28.7-3.4
		l13.7-2l35.2-8.7l3.5-1c-14.1,2.8-17.4,1.3-19.1,0.6c0-4,0-4,43.3-31.5c-4.1,1.4-8.3,2.8-12.4,4.1c1.9-0.4,3.8-0.8,5.7-1.2
		c-13,4.1-30.3,9.7-43.3,13.8l-9.8,2.1C1226.3,1712.7,1222.8,1714,1220.3,1715.1"/>
	<path fill="#8A451F" d="M1205.5,1688c-19.2,10-35.6,25.3-57.1,31c-28.3,7.6-77.3,17.9-149.7,24.2l47.2-3l-47.2,3
		c96.1-4.9,96.1-4.9,187.8-23.3l42.3-8.1l9.8-2.1l43.4-13.8c-50.4,11.5-40-5.8-36.6-11.4c1.6-2.5,1.6-2.5,13.6-19.6
		C1241.4,1672.9,1222.8,1679,1205.5,1688"/>
	<path fill="#8A451F" d="M1299.4,1701.1c-35.7,12.9-37.6,15.1-38.4,16l0.3,0.5c9.2,1.2,59.2-15.8,71.4-25.5l0.6-0.9
		C1332.1,1690.6,1330.2,1689.9,1299.4,1701.1"/>
	<path fill="#8A451F" d="M1292,1670c-1.6,0.7-37.9,18-30.9,19.9c9.8,2.8,72.3-22.6,72.8-32.8C1330.8,1652,1298.5,1667,1292,1670"/>
	<path fill="#8A451F" d="M797.4,1746.9c112.4,10.7,157.7,4.6,201.3-3.7c-24.2,2.4-56.6,5.4-81,6c-65.4,0.8-128.1-8.2-186.8-25.9
		c5.5,2.9,10.2,7.3,16.1,9.6l7.7,2.6l2.8,0.9c-2.1-0.7-4.1-1.3-6.2-2c9.8,2.9,23,6.7,32.8,9.6l9.6,2.5
		C794.9,1746.5,796.3,1746.8,797.4,1746.9"/>
	<path fill="#8A451F" d="M882.8,1765.7l1.2,0.2c-13.3-2.2-31.1-5.3-44.4-7.9c-12.7-2.9-29.7-6.8-42.4-10l-3.1-0.8
		c-10-2.8-23.8-6.5-42.8-12.9c9.8,2.9,23,6.7,32.8,9.6l9.6,2.5l39.2,8.4c63.1,5.5,86.6,7.6,165.8-11.5
		c-18.2,4.8-42.6,11.2-61.2,14.4c18.5-3.6,43.2-8.8,61.2-14.4l-1.1,0.5c-44,18.9-76.6,21.8-118.2,20.4
		C880.4,1764.7,881.7,1765.4,882.8,1765.7"/>
	<path fill="#8A451F" d="M699.7,1714.6c8.7,3.3,19,6.8,21.1,6.5c-0.2-0.4-0.4-0.8-3.4-2.2c-21.6-7.1-42.6-15.4-63.1-24.8l1.2,0.7
		C662.7,1698.8,682.2,1707.9,699.7,1714.6"/>
	<path fill="#8A451F" d="M998.8,1743.2c-8.1,6.3-19.2,14.4-28.4,18.9C979.1,1756.8,990.7,1749.5,998.8,1743.2
		c7.2-4.5-16.7,10.5-24.4,14c-27.9,12.9-46.3,12.4-65.9,11.9l-7.1-0.8c6.8,0.8,15.9,1.9,22.7,2.5c23.8,2,23.8,2,35.8,2.6l2.2,0.1
		c-3.7-0.2-4.9-0.3-6.4-0.5C971.3,1769.8,984.8,1766.9,998.8,1743.2"/>
	<path fill="#8A451F" d="M1062.8,1772c-27,2-28.4,1.4-32.9-0.6c-7.7-3.5-19.6-15.8-31.2-28.2c2.2,5.5,5.3,12.8,6.7,18.5
		c-2.1-5.5-4.9-12.9-6.7-18.5c0.9,20.1,1.3,29.2-1.3,31.3h-0.2c9.4-0.1,21.9-0.3,31.3-0.5c21.8-1,26.4-1.2,36.4-2.2l0.7,0
		L1062.8,1772"/>
	<path fill="#8A451F" d="M443.9,1017.2c12.9,7.2,37.4,12.4,57.1,16.6c26.7,5.7,28.7,6.3,31.6,13.2c4.9,12,6.6,44.2,8.8,85
		c3.6,67.7,6.7,101.6,14.6,158.1c17.3-7.3,40.4-16.9,57.9-23.5c2.7-71,2.8-75.2,9.8-122.6c7.9,34.7,19.3,80.7,28.6,115.1l38.1-8.9
		c-13.5-72.5-25.1-135.2-30.1-251.4l32.4-46.3c-9.5-7.7-9.5-7.7-1.5-49.8c-48,34.6-131.9,70.2-259.4,43c-0.3,4.7-0.6,9.4-0.9,14.2
		c2.4-3.4,3.3-4.8,4.6-6.9c1.2,13.7,2.8,32,3.9,45.7l-4.9,12.1C437.4,1012.6,441,1015.5,443.9,1017.2"/>
	<path fill="#8A451F" d="M269.6,1040l-0.1,0.4c-0.3-4-0.5-8-0.8-12l0.2,0c1.2,0.4,2.4,0.7,3.6,1
		C272.3,1030.7,271.3,1034.5,269.6,1040 M284.3,1098.8c-2-1.4-4.2-3.8-6-5.4c0.5-6.5,1.3-15.2,1.8-21.7l-6.1-41.9
		c100.6,18.6,160.9-75.9,161.5-76.9c1.2,13.7,2.8,32,3.9,45.7l-4.9,12.1l-18,51.1c14.8,76.1,27.6,141.8,72.8,244.3l-23.7,11.9
		c-15.6-32.6-35-76.6-48.6-110c11.4,72.7,12.1,77.1,25.1,120.7c-9.2,8.1-21.3,19-29.7,27.8c-29.1-69-43-117.6-59.8-188.4
		c-4.9-20.6-9.9-41.9-12.8-47.8c-3.3-6.6-3.4-6.7-20.9-10.3C306.6,1107.5,292.7,1104.7,284.3,1098.8"/>
	<path fill="#8A451F" d="M532.5,902.7c5.1,35.7,50.4,43,73.5,11.8c20-27.2,4.8-66.5-34.4-63.1C540.4,857.3,529.9,885,532.5,902.7"/>
	<path fill="#8A451F" d="M322.7,975.3c4.6,28.2,25.6,37.4,40.9,17.9c21-26.7,9.4-77.9-16.6-73l-2.7,0.7
		C324.6,929.4,319.8,957.8,322.7,975.3"/>
	<path fill="#8A451F" d="M235.5,1182.3c0.5,1.1,1.3,2.6,1.9,3.6c3.2,5.8,11.4,3.7,14.6,9.4c8.8,16,12.2,33.8,18.5,50.7
		c30.8,83.7,61.5,135.9,90.2,179.9c-0.4-8.9-0.6-20.8,0.5-29.6c-34-66.8-36.1-70.8-52.1-116.2c16.7,31.8,40.6,73.4,59.6,103.9
		l8.6-13.6c-38.4-66.5-71.6-124-100.4-234.4l1.4-42.7l1.8-21.7l-6.1-41.9l-0.5-4.3c-8.8,39.3-33.8,89-50.4,91l-2.7-2.3
		c0.8,4.6,1.6,9.3,2.4,13.9c-0.5-2.8-0.9-5.5-1.4-8.3c2.8,13.5,6.6,31.5,9.4,45.1l2.8,12.4C234.2,1178.7,234.8,1180.8,235.5,1182.3"
		/>
	<path fill="#8A451F" d="M233.7,1177.1l-2.8-12.4l-9.5-45.2c1.2,7.8,2,12.3,3.6,20.1l4.3,20l15.9,59.1L233.7,1177.1"/>
	<path fill="#8A451F" d="M363.1,1449.2c-52.1-75-68.9-101-107.9-200.1l13.2,34.5c33.7,73.9,34.3,75.3,58.5,114.8l21.5,33l23,31.6
		L363.1,1449.2"/>
	<path fill="#8A451F" d="M224.7,1059.8c3.1,19.8,8.9,30.3,13.7,24.7c11.3-13,3.9-84.9-8.4-81.8l-2,1.4
		C221.2,1013.9,222,1042.6,224.7,1059.8"/>
	<path fill="#8A451F" d="M585.4,1423.2c-3.1-1.4-7-3.7-10-5.3c-0.2-2.9-0.5-6.8-0.7-9.7L554,1370c-0.4,2.7-0.5,3.2-1.3,6.5
		c-1.5-3.8-3.1-7.6-4.6-11.4c5,0.9,11.7,2.2,16.7,3.2c56.2,9.1,115.4,12.1,167.4-27.4c3,28.9,3,28.9,21.1,38.2
		c-3.1,9.6-7.3,22.3-10.4,31.9c23.8,62.6,44.4,116.6,92.1,187l-17.3,5c-18.1-23.5-41.1-55.6-57.6-80.2
		c19.9,52.2,21.1,55.3,39.4,84.1c-6.9,3.8-16.1,8.9-22.8,13.2c-38.5-43.6-59.6-78-89.9-134.3c-7.6-14.1-18-33.5-22.2-37.9
		c-5.7-5.8-5.8-5.9-28.3-10.8C619.3,1433.5,598.2,1428.9,585.4,1423.2 M750.2,1322.1L750.2,1322.1l0.5-0.9l0.2,1L750.2,1322.1"/>
	<path fill="#8A451F" d="M473.6,1479c19.9,12.2,44.7,6.4,65,17.3c3.2,1.8,3.2,1.8,37.2,38c55.8,59.3,96.7,90.6,141,119.2
		c1.9-4.4,4.5-10.2,7-14.3c-49.1-42-52.1-44.5-78.4-76c25.9,22.1,61.5,50.5,88.9,70.7l9.4-6.2c-53.4-43.9-99.5-81.7-162.4-170.2
		l-5.9-39.7l-0.7-9.7L554,1370c-2.7,18.2-19.2,76.4-119.5,59.8c8,11.9,8,11.9,27.4,35.8l3.6,7.2
		C467.9,1474.7,470.9,1477.4,473.6,1479"/>
	<path fill="#8A451F" d="M616.7,1329.8c15.4,29.9,53.4,36.4,62.6,10.6c8.6-24-14.6-57.6-46-54.9
		C608.7,1290.5,608.8,1314.4,616.7,1329.8"/>
	<path fill="#8A451F" d="M463.2,1388.1c17.3,23.5,42,30.4,45.5,12.7c4.2-21-24.3-63.7-49-57.2
		C444.8,1350.7,452.7,1373.9,463.2,1388.1"/>
	<path fill="#8A451F" d="M456.2,1546c9.8,5.1,21.5,2.6,31.2,8.1c15.8,8.9,28,22.3,42.1,33.2c69.2,53.8,123.8,81.2,168.1,101
		c-2.8-4.2-6.4-9.8-8.6-14.3c-62.9-35.4-66.7-37.5-103-65.2c30.9,18.9,73,42.6,105.3,59.2l1.3-6.7
		c-66.2-36.8-123.5-68.6-204.1-148.5c-7-12-16.9-27.6-23.2-40l-3.6-7.2l-18.6-22.9l-9.5-12.4c9.7,30.4,11.1,75.8-26.1,68.3
		c2.9,3.3,5.9,6.6,8.9,9.9c-1.4-1.9-2.9-3.8-4.3-5.7c9.2,9.4,21.6,21.8,30.8,31.2l7.8,8.6C452.4,1543.6,454.5,1545.1,456.2,1546"/>
	<path fill="#8A451F" d="M712.1,1711.6c-66.8-27.3-70.8-28.9-111.4-51.9c30.9,15.1,73,33.5,105,46l-6.8-6.4
		c-68.6-28.4-127.8-52.9-213.6-122.4l-34.5-34.4l-7.8-8.6l-31.1-31.7c29.8,38.8,36.9,48,47.6,58l38.2,33.6l28.6,22.5
		c94.3,70.3,177.6,97.5,209,107.7C728.2,1720.5,719.2,1715.1,712.1,1711.6"/>
	<path fill="#8A451F" d="M396.1,1457.3c14.7,16.7,28.2,24.1,28.9,15.8c1.3-16.3-40-65.8-49.7-59.5l-0.8,0.8
		C370.5,1422.7,384.7,1444.5,396.1,1457.3"/>
	<path fill="#8A451F" d="M444.2,1545.8c-7.1-7.2-43.7-46.7-51.5-55.9l10.8,12.6c12.3,13.1,28.3,31.1,41.1,43.8L444.2,1545.8"/>
	<path fill="#8A451F" d="M1559.1,986.5c6.9,9.7,20.8,23.7,32,34.9c30.6,30.8,30.6,30.8,27.5,47.1c-4.2,21.4-33.2,100.6-116.1,208.1
		c16.4,2.5,38.2,6,54.5,9.1c45.7-55.6,50.5-61.4,76.5-98.2c-14.3,33.3-34.8,77.1-51.1,109.4l22.8,9.1c36-64.7,70-125.8,98.8-232.7
		c9-11.6,21.2-27,29.5-39.1l7.4-44.5c-35.8,37-109.4-20-175.5-76.3c-1.2,4.3-2.4,8.6-3.6,12.9c3.7-2.3,4-2.5,6.5-4.5
		c-2.3,13.6-5.5,31.7-7.8,45.3l-8.1,8.4C1554.4,978.7,1556.9,983.3,1559.1,986.5"/>
	<path fill="#8A451F" d="M1303.1,884.5l-0.5,0.3c1.1-3.8,2.2-7.5,3.3-11.3l0.6,0.3c2.7,1.5,5.3,2.9,8,4.3
		C1311.2,880.2,1307.3,882.4,1303.1,884.5 M1304.8,948.1c-3.2-2.8-7-7-10-10c5-4.9,11.7-11.5,16.7-16.4l6.1-41.9
		c121.7,63,206,77.1,250.7,42c-2.3,13.6-5.5,31.7-7.8,45.3l-8.1,8.4l-35.8,35.4c-19.2,73.7-35.7,137.4-82.7,242.6l-34.9-5.1
		c12.1-34,27.2-79.6,37.8-114.1c-45.1,65.6-45.1,65.6-75.4,107.1c-21.5-0.5-50.2-1.1-71.8-1.2c36.7-59.7,99.7-175.2,102.5-229
		c0.4-7.8-2-9.2-42.5-33.2C1327.7,964.9,1312.6,954.9,1304.8,948.1"/>
	<path fill="#8A451F" d="M1653.5,925.5c-0.8,34.7,23.4,63,40.4,47.3c16.7-15.3,12.9-63.3-11.3-78.7
		C1663.2,885.2,1653.9,907.1,1653.5,925.5"/>
	<path fill="#8A451F" d="M1425.2,870.6c0.6,36.6,41.6,60.5,65.4,38.2c20.8-19.4,11.5-63.3-23.7-74
		C1437.6,829.1,1424.8,852.3,1425.2,870.6"/>
	<path fill="#8A451F" d="M1011.2,932.3c14.4,9.7,45.2,22.1,70,32.2c31.3,12.7,33.7,14.7,34.4,21.3c4.9,44.1-54,193.6-72.1,238.4
		c23.8-2.2,55.5-5.1,79.3-6.9c34.1-62.9,34.1-62.9,62.6-114.5c-5.2,35.1-12.6,81.9-18.5,117l41.7,0.8
		c17.8-72.1,34.5-140.2,52.9-249.9l33.3-32.6l16.7-16.4l6.1-41.9l0.6-4.3c-40.3,30-126.7,51.5-309.4-16.6c-1.2,4.5-2.4,9.1-3.6,13.6
		c3.9-2.6,4.5-3,7.4-5.4c-1,13.8-2.2,32.1-3.2,45.9l-9.6,10.4C1003.3,926,1007.6,929.9,1011.2,932.3"/>
	<path fill="#DD451F" d="M684.6,942.5c5.4,16.3,47,27.8,91.1,39.9c32.8,9.1,33.2,10.2,35.3,16.7c5.6,17.5,5.6,17.5-29.8,243.6
		c23-4.9,53.7-11.4,76.8-15.9c22.1-70.4,23-73.1,40.6-120c1.2,35.2,3,82.2,4.7,117.4l43.1-4c2.8-72.8,5-130.2,13.8-253l39.8-44.1
		l9.6-10.4l4.4-46.9c-28.3,23.1-116.2,71.2-319.3,19.4C684.1,941,684.1,941,684.6,942.5"/>
	<path fill="#8A451F" d="M1142.1,844.6c2.3,37.6,56.5,55.8,81.7,27.5c20.3-22.9,6.2-62-33.8-68.2
		C1155.1,801.7,1141,826.4,1142.1,844.6"/>
	<path fill="#DD451F" d="M826.5,853.3c3.9,37.4,61,49.3,86,18c18.3-22.9,6.7-62.5-37.9-64.1C838.2,809.1,824.6,835.3,826.5,853.3"/>
	<path fill="#8A451F" d="M1400.4,1390.4c7.3,21.1,40.1,37.3,22,63.1c-8.8,12.5-63.9,74.9-172.6,151.3c10.3,0.9,24,2.1,34.3,3.2
		c60.7-38.1,65.6-41.2,103.8-68c-26.2,22.9-62,52.4-89.6,73.6l14.1,4.4c61-43,113.7-80.1,189.3-163.8c14.7-9.2,34.4-21.4,48.9-30.9
		l28.1-35.4c-63.2,35.7-118-25.7-147.4-58.8c-2.6,3.7-5.2,7.3-7.8,11c2.4-1.2,3.9-1.9,7.1-3.8c-6.7,11.4-15.6,26.5-22.3,37.9
		l-10,7.2C1398.9,1384.1,1399.5,1387.8,1400.4,1390.4"/>
	<path fill="#8A451F" d="M1199.3,1356.1c4.6,10.5,24.9,25.5,39.8,36.5c19.1,14.1,21.1,15.9,19.3,22.3
		c-7.1,25.7-58.9,98.8-123.3,173.7c12.1-0.5,28.2-1.1,40.3-1.4c45.5-42.9,51.3-48.4,81.7-78c-17.9,24.9-42.6,57.5-61.8,81.3
		l19.5,2.1c44.9-48.6,83.7-90.6,141.6-181.4l41.8-29.8l10-7.2l22.8-38.2c-79.8,46.7-171.9-11-211.3-35.6c-6.7,14.3-6.7,14.3-15.4,40
		l-6.9,6.3C1198,1349.6,1198.2,1353.5,1199.3,1356.1"/>
	<path fill="#8A451F" d="M1510.9,1337.1c-13.1,26-4.4,47.6,16.5,40.5c26.9-9.1,48.6-53.8,26.9-67.7
		C1537.5,1302.8,1518.8,1321.5,1510.9,1337.1"/>
	<path fill="#8A451F" d="M1320.1,1295.6c-8.3,30.2,16.6,49.6,42.9,33.6c27.3-16.6,33.8-57,3.6-66.2
		C1341.9,1258.6,1324.6,1279.4,1320.1,1295.6"/>
	<path fill="#8A451F" d="M976.2,1355.1c10.6,7.9,33.1,18.1,51.2,26.3c23.2,10.5,23.3,11.7,24,17.2c1.2,10.5,1.2,10.5-48.4,183.2
		c12.3-1.9,28.6-4.3,40.9-5.9c25.3-48.8,26.3-50.7,46.2-85.2c-6.7,25.9-15.9,60.3-23.2,86l22.2-0.4c20.4-50.7,39.7-98.6,69.5-193.2
		c11.7-10.9,27.2-25.5,39-36.3l6.9-6.3l8.9-26.2l4.6-14.1c-80.5,57.2-204.8,7.3-245.7-9.1c-0.8,4-1.6,8-2.4,12.1
		c3-2.3,3.5-2.8,5.7-4.8c-0.3,12-0.8,28.1-1.2,40.1l-6.8,9C970.1,1349.8,973.4,1353.1,976.2,1355.1"/>
	<path fill="#8A451F" d="M735.5,1365.5c7.4,13.3,41.1,23.2,68.2,31.1c31.8,9.3,31.8,9.3,35.8,15.9c4.6,7.6,8.5,38.3,12.2,68
		c6.4,50.5,11.8,78.3,22,114.4c10.7-3.2,24.9-7.4,35.7-10.3c-0.7-49.1-0.7-52.1,3.8-87.2c5.2,25.7,12.7,59.9,18.8,85.4l21.4-2.9
		c-5.7-51.5-10.7-96-12.7-194.7l26.7-37.8l6.8-9l2.1-41c-31.8,30.6-100.4,58.8-246.7,19.4C734.1,1362.9,734.1,1362.9,735.5,1365.5"
		/>
	<path fill="#8A451F" d="M1078.4,1276.5c-0.4,32.2,36.5,47.6,60.7,25.4c22.4-20.5,16.5-57.9-18.2-63
		C1091.9,1237.6,1078.6,1260.1,1078.4,1276.5"/>
	<path fill="#8A451F" d="M828.1,1288.1c8.7,33.5,52.9,43.1,69.6,15.2c13.7-23-2.2-56-36.8-57C831.4,1248.3,824,1272,828.1,1288.1"/>
	<path fill="#8A451F" d="M864,1694.2c16.9,5.3,34.8,6.8,51,14.6c41.3,20,49.9,24.2,83.8,34.3l-3.6-1.4l3.6,1.4
		c-44.8-23.5-47.5-24.8-77.2-48.9l-12.7-19.8c-7.7-4.8-8.2-5.1-21.9-24.5c-2.3,25.7-21.5,25.9-78,13.6c3.1,2.1,6.2,4.2,9.3,6.3
		c-0.8-1-1.7-1.9-2.6-2.9c10,5.9,23.4,13.8,33.4,19.7l6.5,4.6C858.1,1692.2,861.5,1693.4,864,1694.2"/>
	<path fill="#8A451F" d="M783.5,1695.1l0.2,0.1c-3.5-1.4-6.9-2.8-10.4-4.3l0.3,0l2.5,0.3l1.2,0.2c1,0.4,1.9,1.1,2.8,1.6
		C781.3,1693.8,782.4,1694.4,783.5,1695.1 M842.4,1714.1c-7.8-1.4-17.7-5.3-25-8.2l-38.5-14.3c46,5.2,59.2,3.1,41.6-19
		c-0.9-1.2-2.8-3.5-5.2-6.1c10.2,6.1,23.7,14.1,33.9,20.2l6.5,4.6l29.7,17.6c66.4,24.1,70.3,25.5,113.5,34.2l-4.5-0.6
		c-21.6-3-21.6-3-104.2-21.5C874.3,1717.6,858.2,1717,842.4,1714.1"/>
	<path fill="#8A451F" d="M827,1646.2c15.2,12,38.8,22.7,37.1,12.2c-1.8-11-30.6-39.6-48.8-38.5C805,1622.3,813.3,1635.4,827,1646.2"
		/>
	<path fill="#8A451F" d="M770.2,1672.4c18.5,8.9,40.8,15.7,39.3,10.7c-2-6.6-53.4-37.2-67.2-34.3
		C736.4,1652,752,1663.6,770.2,1672.4"/>
	<path fill="#8A451F" d="M839,1732.1c1.3,0.1,137.3,11,159.8,11.1c-83.9-8.6-85.5-8.8-132.4-19.9l-33-11l-16-6.4l-38.5-14.3
		l-3.9-1.6c38.4,21.6,30.5,24,25.2,25.5c-7.1,2.1-22.3,1.6-31.4,1.4c4.3,1.2,8.6,2.4,12.9,3.6c-1.9-0.7-3.9-1.4-5.8-2.1
		c13.3,3.1,31.1,7.2,44.3,10.3l10.4,2.5C833.1,1731.5,836.4,1731.8,839,1732.1"/>
	<path fill="#8A451F" d="M884.5,1748.7c38-4.3,76.3-1.5,114.2-5.6c-37.2,0.4-87-1-124.1-3.7l-44.1-8.3l-10.4-2.5l-44.8-10.4
		c45.1,15.6,45.4,17.4,45.8,20.9c-1,1.2-1.6,1.8-5.9,3C837.9,1745.6,861,1747.8,884.5,1748.7"/>
	<path fill="#8A451F" d="M750.7,1700.4c15.5,5.1,34.2,9.5,37.4,7.9l0.1-0.4c-2.2-3.9-69.5-31.1-76.2-27.2
		C710.9,1684.1,729,1693.3,750.7,1700.4"/>
	<path fill="#8A451F" d="M772,1729.7c13,2.9,28.3,5.1,30.5,3.9c-2.8-4.1-70.5-19.9-74.1-19.2l-0.1,0.6
		C731.8,1718.2,750.6,1725,772,1729.7"/>
	<path fill="#8A451F" d="M1135,1675c-15.8,24.8-15.8,24.8-17.7,25.8c-11.3,5.7-53.4,25.5-118.5,42.4l33.2-7.1l-33.2,7.1
		c81.4-16.2,83-16.5,158.8-43.8c15.9-4.9,37.2-11.4,53.1-16.5l40.3-18.9c-64.9,20.1-67.7-1.7-70.6-24.8c-3.1,2.3-6.2,4.5-9.3,6.8
		c1.9-0.8,3.8-1.6,5.7-2.5c-8.9,6.7-20.8,15.7-29.7,22.4l-8.6,4.3C1137.4,1671.7,1135.9,1673.5,1135,1675"/>
	<path fill="#8A451F" d="M1078.6,1635.8l-0.2,0.2c1.4-2.1,2.9-4.2,4.3-6.4l0.1,0.1l1.8,2.2
		C1082.3,1633.6,1080.1,1634.9,1078.6,1635.8 M1061.4,1668.8c-0.2-1.4-0.1-3.3-0.2-4.6c3-2.7,6.9-6.2,9.9-8.9l14.3-22.6
		c16.5,18.5,33.5,37.7,91.4,10.9c-8.9,6.7-20.8,15.7-29.7,22.4l-8.6,4.3l-34.7,17.6c-53.5,33.4-56.7,35.4-104.9,55.3l16.2-7.5
		l-16.2,7.5l7.6-4.7c46.7-30.7,59.2-46.1,59.7-46.8c0.4-0.5,1.6-2-1.2-10.4C1062.6,1674.5,1061.7,1671.7,1061.4,1668.8"/>
	<path fill="#8A451F" d="M1226,1640c-11,8.1-24.7,20.7-17.6,22.5c12.1,2.9,67.1-27.3,62.3-39.1l-1.5-1.6
		C1260.7,1618.7,1240.9,1629.1,1226,1640"/>
	<path fill="#8A451F" d="M1132.9,1623.4c-7.7,10.7-12.9,25.4,0.1,22.9c19.7-3.7,50.2-35.2,38.5-44.3l-2.7-1.3
		C1157.1,1599,1141.9,1610.8,1132.9,1623.4"/>
	<path fill="#8A451F" d="M986.3,1667c2.8,3.1,6.8,6.5,13.1,11.7c5.2,4.3,9.5,8.1,9.9,10c0.6,3.6-1.7,13.4-4.2,23.7
		c-3.8,15.8-4.9,21.1-6.4,30.8l4.8-7.7l-4.8,7.7c23-27.6,23.9-28.6,44.9-62.2l17.6-16.8l9.9-8.9l14.3-22.6l1.5-2.4
		c-43.4,33.4-75.2,15-106-2.7c-0.1,2.6-0.2,5.2-0.3,7.7c1.2-1.7,1.6-2.3,2.3-3.4c0.5,7.5,1.2,17.6,1.7,25.2l-1.8,5.4
		C983.8,1663.9,985.2,1665.7,986.3,1667"/>
	<path fill="#8A451F" d="M902.1,1669.7l2.5,2c7,5.3,18.4,10.1,31.7,15.6c8.6,3.6,14.5,6.1,16.6,7.8c1.6,1.3,4.7,5.3,9,10.8
		c7.6,9.6,19,24.2,36.9,37.3l-3.6-4.6l3.6,4.6c-12.3-27.2-13-28.9-20.9-59l4.9-21.6l1.8-5.4l-1.6-25.4
		c-20.9,36.2-60.4,23.1-102.2,9.3C884,1645.8,897.9,1666,902.1,1669.7"/>
	<path fill="#8A451F" d="M1027.5,1617.5c-1.7,15.3,6.5,30,20.9,18.4c14.9-12.1,21.6-40.6,2.5-44
		C1037.6,1591.4,1028.9,1604.7,1027.5,1617.5"/>
	<path fill="#8A451F" d="M917.3,1624.8c8.5,15.8,27.3,28.2,32.5,13.6c4.8-13.5-6.3-39.7-25.3-40.8
		C911.5,1598.7,910.6,1612.3,917.3,1624.8"/>
	<path fill="#8A451F" d="M1635.8,513.8l-11.1-14.6c-11.9-14.2-27.3-33.5-39.8-47.2c7.7,8.5,9.3,10.5,20.1,23.5
		c7.5,9.1,13.6,19.3,21,28.5C1628.5,507.3,1633.3,510.5,1635.8,513.8"/>
	<path fill="#8A451F" d="M1631.8,541.1L1631.8,541.1l-0.6-1.2l0,0l0.7,0.6L1631.8,541.1 M1656.4,592.9c-3.5-4.6-7.3-12-7.2-17.7
		l-16.3-33.7c70.5,69.2,71.3,71.4,114.4,183.7l7.7,23.6c12.8,48.3,27.2,102.9,30.2,176.9l-7.2-11.6c-2.8-35.7-8.5-83-14.2-118.3
		c5.5,60.2,5.8,63.8,2.7,103.6c-8.7-5-20.5-11.5-29.6-15.6c5.5-41.3,10.2-105.4-11.7-184.6C1718.1,673.6,1718.1,673.6,1656.4,592.9"
		/>
	<path fill="#8A451F" d="M1663.2,556.5c10.9,17.7,25.8,40.7,28.3,44.1l-0.5-1.1c-12-19.7-27.8-46.2-40.7-65.3l-1.2-1.6
		C1649.4,533.8,1654.2,541.8,1663.2,556.5"/>
	<path fill="#8A451F" d="M838.4,215.9l-21.9,3.9c13.3-4.7,31-10.9,44.8-14.2l26.1-4.2C872.4,204.9,853.2,211.8,838.4,215.9
		 M795.7,223.7c-11.9,3-27.7,6.9-39.6,10.2c32-12,40.7-15,97.3-26.8C836,211.6,813,218.6,795.7,223.7"/>
	<polyline fill="#8A451F" points="723,243.6 729.6,241.1 713,247.3 723,243.6 	"/>
	<path fill="#8A451F" d="M1253.2,234.8l-5.3-1.8C1249.5,233.6,1251.6,234.3,1253.2,234.8"/>
	<path fill="#8A451F" d="M1213.9,223.6l-25.6-7.6l-23.8-5.4c10.3,3,24.3,6.2,34.3,9.9L1213.9,223.6"/>
	<path fill="#8A451F" d="M1180.6,216.9c-7.6-2.7-17.7-6.6-25.5-8.3c-10.2-1.9-23.9-4.4-34.2-6c1.6,0.3,3.7,0.6,5.3,1
		c4.3,1,14.4,3.4,21.2,7.7c1,0.6,2.1,1.8,3.2,2C1159.3,215.4,1171.6,215.6,1180.6,216.9"/>
	<path fill="#8A451F" d="M1098.6,205.9c-7.6-3.6-18.1-7.7-26.3-9.4l-16.7-1.3c7.3,1.9,16.7,5.6,23.1,9.5L1098.6,205.9"/>
	<path fill="#8A451F" d="M1056.7,203.5c0.2-1.8,0.5-4.3,0.6-6.1c-1-0.7-2-2.2-3.2-2.3l-13.6-0.8l-15.9-0.6c0.2,1.4-4.9,7.6-7,10.2
		C1029.4,203.7,1045,203.5,1056.7,203.5"/>
	<path fill="#8A451F" d="M921.8,206.1c28.2-10.4,29.8-11,43.5-12.1c-6.6,2-14.7,6.6-20.2,10.7l22.5-1.2c3.8-3.7,9.6-8.2,14.6-10.1
		l-10.6,0.3c-23.9,1.1-23.9,1.1-36.4,2.1l-2.2,0.2c-21.2,2-38.9,8.7-55.2,15.4C891.1,209.8,908.9,209.2,921.8,206.1"/>
	<path fill="#8A451F" d="M640,291.9c6.7,7,16.9,1.1,24.1,6.5c-2.3,3.6-3.5,4.8-18.3,18.6c-45.4,42.3-77.7,75.3-128.4,138.1
		c19.3-7,45.1-16.2,64.6-22.6c48.4-53.1,50.3-55.2,81.9-84.5c-14,22.4-31.6,53-43.8,76.4l39.1-8.7c27.1-50.1,50.5-93.4,99.3-142.5
		l37.4-19.1l-1-1.8c1.5-2.9,1.5-2.9,19.6-14.6c-68.9,22.7-118.7,27.5-128.1,26.6c-3.6-0.3-3.6-0.3-13.2,4.9c2.2-1,4.4-2,6.6-3
		c-8.8,5.4-20.5,12.6-29.3,18l-9.9,5.5L640,291.9"/>
	<path fill="#8A451F" d="M533.1,346.4l39.4-27.3l19.1-11.9l0.1,0c28.4-15.4,58.5-27.1,87.8-40.7c-8.6,5.3-20.1,12.4-28.7,17.7
		l-9.9,5.5l-42,24.9c-48,40.4-89.5,75.3-143.5,158.7l-25.5,12.1c17.5-25.8,42.3-59.2,61.9-83.5c-51,52.6-55.2,56.9-85,94.8
		c-11.7,8.2-27.3,19.3-38.5,28.3c34.3-47.9,79.7-105.4,156.2-169.2C533.7,347.9,533.7,347.9,533.1,346.4"/>
	<path fill="#8A451F" d="M744.9,244.4c-7.4,4.4-9.6,7.7-5.7,8.4c10.8,1.9,57.3-18.5,54.7-24c-0.6-1.3-5-0.6-7.1-0.3
		C772.5,231.4,754.3,238.8,744.9,244.4"/>
	<path fill="#8A451F" d="M626.2,287.5c-5.6,3.1-6.8,4-7.4,4.4c1,0.4,11.4-5.1,34.4-17.1c15.3-8,19-9.8,28.6-14.6
		c-16.3,7.8-38.2,18.1-54.3,26.5L626.2,287.5"/>
	<path fill="#8A451F" d="M346.3,540.9c18.6-25.9,44.4-59.7,64.8-84.1l-33.6,40c-12,16.6-28.5,38.5-39.8,55.6L346.3,540.9"/>
	<path fill="#8A451F" d="M428.2,580.1c-1.5-1.2-3-3.5-4.3-5c2.6-3.1,6.1-7.3,8.7-10.4l17.1-37.7c-1.8,1.8-3.2,3.1-7.1,6.7
		c2-3.5,4-6.9,6-10.3c3.5,0.3,8.3,0.8,11.8,1.2c73.9,8.1,142.8-15.6,187.6-37c-14.8,26.7-14.8,26.7,0.1,34.4
		c-10.3,9.8-24,22.9-34.3,32.8c-17.4,65.8-33.9,128-43.2,242l-44,11.3c2-36.1,5.8-84.2,9.6-120.1c-33.4,74.4-36.1,80.5-53.1,130.2
		c-20.8,8.5-48.5,20-69,29.4c17.4-70.3,28.3-106.7,55.5-185.5c18-52.1,18.4-56.7,17.3-64.7C468.6,587,445.3,594,428.2,580.1
		 M678.5,470.1L678.5,470.1l0.9-0.7l-0.3,0.8L678.5,470.1"/>
	<path fill="#8A451F" d="M289.8,653c-3.4,13.2,13.7,13.5,20.1,20.7c-0.9,7.2-1.6,9.7-9.4,35.2c-26.5,86.4-38.2,142.8-46.6,223.4
		c10.5-10.8,24.8-25,36.1-34.9c17-80.8,18-85.6,34.8-135.5c-4.2,36.4-8,85.2-9.5,121.9l27-14.9c5.8-77.7,10.8-144.8,46.6-248.6
		l35.1-45.1l8.7-10.4l17.1-37.7c-36.9,36-111.1,83.5-134.2,72.7C310.9,608.4,291.8,645.1,289.8,653"/>
	<path fill="#8A451F" d="M539.3,484.9c-6.7,20,11.7,28.4,36.5,16.5c30.1-14.4,44.9-47,24.7-54.5c-5.2-2-10.9-1.2-14.3-0.7
		C560.9,451.8,543.5,472.2,539.3,484.9"/>
	<path fill="#8A451F" d="M366.4,552.5c-7.3,15-6.3,23.7,2.3,21c20.4-6.2,54.9-60.7,41.5-65.5c-2-0.7-4,0.1-6.2,0.9
		C388.9,516.7,372.9,539.1,366.4,552.5"/>
	<path fill="#8A451F" d="M210.1,997.3c2.4-82.5,2.5-87.4,10.7-138.8c-3.8,36.9-6.8,86.3-7.5,123.4l6.4-17
		c2.7-78.7,5-146.7,41.8-255.1c8.3-18.1,19-42.4,28.1-60.1l18.7-40.1c-17.4,28.6-24,39.3-32.8,57.9l-21.6,55.1
		c-23.8,77.6-24.7,80.6-32.8,126.6c-10.8,82.5-11.2,85.7-11.5,133.4l0.3,24.7L210.1,997.3"/>
	<path fill="#8A451F" d="M1314.5,271.3c75.4,34.7,135,62.1,164.1,164.8c14.2,2.9,33,6.7,47.1,10.1c-18.1-41.4-19.2-43.9-36.3-67.2
		c19.6,22.4,44.5,53.5,62.1,77.6l21.1,8.8c-37.7-50.9-70.3-94.8-147.5-147.7l-11.4-7.7l-23.6-14l-19.2-10.5
		c-24.2-11.1-57.5-24.4-98.9-39.4c10.3,5.9,20.6,11.8,30.9,17.7l1.7,2.7C1307.7,268.1,1311.5,270,1314.5,271.3"/>
	<path fill="#8A451F" d="M1143.9,228.4l-0.2,0.1c-0.6-1-1.2-2-1.9-2.9l0.4,0.1c1.8,0.5,3.5,0.9,5.2,1.3
		C1146.5,227.5,1145.3,228,1143.9,228.4 M1165,248.1c-2.7-1-6.2-2.5-8.9-3.6c1.2-1.5,2.7-3.5,3.9-4.9l-10.6-12
		c44.3,11.1,118.5,29.8,128.8,23.4l0.2-1.4c7.4,4.4,17.2,10.2,24.5,14.5l1.7,2.7l4.5,12.4c33.7,33.3,62.9,62,96,135.9l-33.6-5.2
		c-10.9-22.3-26.6-51.5-39.4-72.8c3.9,36.8,4.2,39,1.7,66.4c-20.3-1.1-47.4-2.5-67.7-3.2c6.9-48.2,0.6-88.7-18.3-117.1
		c-6-9-10.8-11-15.5-13C1210.6,260.8,1187.2,256.4,1165,248.1"/>
	<path fill="#8A451F" d="M1305.3,255c7.1,3.1,14.1,6.4,21.1,9.6c11.4,5.3,20.5,9.5,22.6,10.1c-0.9-0.7-0.9-0.7-3.2-1.8
		c-17.1-7.8-39.9-18.1-57.3-25.2l-1.2-0.5C1292.8,249.4,1300.1,252.6,1305.3,255"/>
	<path fill="#8A451F" d="M1194.8,228.4c18.9,10.6,47.8,18.8,46.1,13.1c-1.4-4.8-27.2-15.7-46.8-19.9c-2.9-0.5-9.1-1.6-7.4,1
		C1187.1,223.2,1188.7,225,1194.8,228.4"/>
	<path fill="#8A451F" d="M987.7,240.2c8,3,26.4,7,44.2,11c24.4,5.4,24.4,5.6,25.6,11.6c4.3,21.9-17.5,77.8-41,123.6
		c23.6-1.6,55-3.6,78.6-4.8c20.4-41.7,22.6-46.1,31.6-68.3c4.2,21,9.2,49.1,12.5,70.3l41,1.1c-7.2-46.8-13.4-87.1-33.8-129.5
		l9.8-10.8l3.9-4.9l-10.6-12l-1.1-1.1c-4.1,2.7-31.2,15-160.2-7.3c-0.8,1.2-1.5,2.3-2.3,3.5c1.6-0.5,3.2-1,4.7-1.7
		c-1,3.9-2.4,9.2-3.5,13.1l-5.9,3.3C983.1,238.2,985.7,239.4,987.7,240.2"/>
	<path fill="#8A451F" d="M795.5,250.9c-3.1,5.6,14.4,8.1,38.6,11.6c12.8,1.8,14.1,2.3,17.2,3.5c0.9,5.1,0.9,5.1-102.9,139.9
		c24.3-4.4,56.7-10.3,81-14.2c39.4-48.4,39.4-48.4,62.7-74.8c-5.6,21.4-12.4,50.1-17.2,71.7l43.7-3.6c10.7-46.5,20-86.6,35.4-132.1
		l27.1-15.5l5.9-3.3l3.5-13.1c-31.1,12.1-103.5,17.8-158.1,12.5C811.4,231.4,795.7,250.7,795.5,250.9"/>
	<path fill="#8A451F" d="M1055,215.9c7,10.5,44.4,15.4,46.5,6.1c1.1-5.1-11.9-12.2-30.4-13.9C1053.6,207.2,1052.9,212.8,1055,215.9"
		/>
	<path fill="#8A451F" d="M896.7,220.2c-4.8,6.4,7.6,10.4,24.2,7.7c17.5-2.8,29.1-11.5,21.9-16.3c-3.9-2.6-11.4-2.4-14.2-2.4
		C912.5,210.3,900.2,215.7,896.7,220.2"/>
	<path fill="#8A451F" d="M1482.8,532c9.3,7.4,24.8,17.4,42.8,29c41.8,27,41.9,27.2,45.4,40.5c6.5,24.3,17.9,93.1-15,206.4
		c19.4,2.7,45.2,6.4,64.4,9.7c16.7-62.2,18-67.3,23.1-104.7c4.3,34.9,8.2,81.7,10,116.9l28.6,10c-2.2-73.4-4.1-136.9-36-232.6
		l3-24.5l0.1-7.6l-16.3-33.7l-0.9-1.8c-7.3,25.9-85.4-15.2-171.8-63.4c0.6,3.1,1.2,6.2,1.8,9.3c1-0.8,2.4-1.8,3.4-2.7
		c3.3,10.1,7.7,23.6,11.1,33.7l-4,6.4C1475.6,525.7,1479.6,529.5,1482.8,532"/>
	<path fill="#8A451F" d="M1223.8,491.6c10.3,9.5,45.1,24.6,70.5,35.6c39.3,17,39.3,17,42.7,30.5c5.4,22.1-1.9,99.1-44.8,211.7
		c25.6,0,59.8,0.2,85.5,0.6c26.9-64.7,29.7-71.5,43-109.6c1.9,35,3.4,81.8,3.6,116.9l42.6,5.3c2-74.3,3.8-138.5-13.4-231.6l19-28
		l4-6.4l-10.6-34.2c-18.5,18.1-75.7,26.3-243.6-37.9c-1.2,11.9-1.2,11.9,0.4,33.3l-5.4,5.4C1219.2,485.7,1221.5,489.4,1223.8,491.6"
		/>
	<path fill="#8A451F" d="M1536.5,487.4c15.6,27.3,49.8,50.2,53.1,35.5c2.8-12.2-21.4-45.5-45.1-56.9c-16.9-6.6-14.9,6.6-11.1,15.4
		C1534.3,483.3,1535.5,485.7,1536.5,487.4"/>
	<path fill="#8A451F" d="M1326.6,443.3c11.6,28.7,62.2,46.2,70.3,24.4c5.6-15-15.3-41-45.1-48.2
		C1324.6,415.1,1321.9,431.8,1326.6,443.3"/>
	<path fill="#8A451F" d="M1222.6,477.8l-1.6-22.2l-1-11.4c-11.8,8.2-80.7,46.1-280.9-7.8c-1.2,3.2-2.5,6.4-3.7,9.7
		c2.8-1.5,4.3-2.3,7.5-4.4c-1.5,10.2-3.6,23.7-5.1,33.9l-9.3,8.1c3.1,2,7.2,4.9,10.4,6.6c13.4,7.1,43.4,16.2,67.6,23.6
		c34.2,10.4,34.2,10.4,36,23.6c3.5,26-31.2,129.5-67.4,218.4c28.6-3.1,66.7-7.1,95.3-9.7c18.5-38.5,37.2-77,55.8-115.4
		c-0.4,35.1-1.3,81.9-2.2,117l50.3,0c5.4-76.2,10.1-142,9.5-231.8c10-9.8,23.5-22.8,33.4-32.7L1222.6,477.8z"/>
	<path fill="#8A451F" d="M636.4,510c-0.1,13,36.9,20.7,63.9,26.3c41.4,8.6,41.4,8.6,39.3,21.4c-3.9,23.8-3.9,23.8-80.4,228.9
		c27.9-6.5,65.1-15,93.1-21c35.9-75.7,36.6-77.1,61.1-123.1c-2.6,35.5-5.4,82.8-7.2,118.4l51.7-5.9c7.6-76,13.6-136.1,30.1-235.9
		l40.4-35.5l9.3-8.1l5.6-34.2c-48.2,31.1-161.1,49.7-283.7,25.3C636.4,508.1,636.4,508.1,636.4,510"/>
	<path fill="#8A451F" d="M1058.2,424.1c4.5,28,60.4,39.5,77.8,16c11.9-16-4.8-40.1-38.7-43.6C1067.1,395.5,1056.3,412,1058.2,424.1"
		/>
	<path fill="#8A451F" d="M779.1,438.3c-2.8,25.5,42.4,33.3,70.1,12c22.5-17.2,14.7-41.9-14.2-44.8c-2.4-0.2-5.6-0.2-7.9-0.2
		C796.3,407.8,780.5,426.1,779.1,438.3"/>
</g>
</svg>
