<?xml version="1.0" encoding="utf-8"?>
<!-- Generator: Adobe Illustrator 18.1.0, SVG Export Plug-In . SVG Version: 6.00 Build 0)  -->
<svg version="1.1" id="Layer_1" xmlns="http://www.w3.org/2000/svg" xmlns:xlink="http://www.w3.org/1999/xlink" x="0px" y="0px"
	 viewBox="0 0 2000 2000" enable-background="new 0 0 2000 2000" xml:space="preserve">
<g>
	<path fill="none" d="M828.4,1792.3c8.1,1.4,16.2,2.7,24.3,3.9c-6.3-7.6-9.6-21.1-10.8-35.5C838.1,1772.8,833.9,1784.2,828.4,1792.3
		z"/>
	<path fill="none" d="M914.4,1798.3c-12.8-1-18.5-12.9-20.9-26.3c-3,11.4-7.8,21.8-14.9,26.1c-0.8,0.5-1.4,0.6-2.2,1
		c27.5,3.1,55.4,4.7,83.7,4.7c9.5,0,18.9-0.4,28.3-0.7c-10-6.5-26.9-17.7-47.3-31.5C936.5,1786.6,928.7,1799.4,914.4,1798.3z"/>
	<path fill="none" d="M1090.6,1758.9c-2.5,13.4-8.1,25.4-21,26.3c-7.4,0.5-13-2.7-17.4-7.9c-16.3,11.3-29.9,19.3-39.5,24.6
		c33.9-2.4,67.3-6.8,99.8-13.6c-2.2-0.7-4.5-1.7-7-3.2C1098.4,1780.8,1093.7,1770.3,1090.6,1758.9z"/>
	<path fill="none" d="M1130.4,1784.2c8.2-1.9,16.4-3.9,24.6-6.1c-5.2-8-9.2-19-12.9-30.6C1140.8,1762.7,1137.3,1776.9,1130.4,1784.2
		z"/>
	<path fill="none" d="M1369,743.7c-1-0.4-1.5-1.1-1.2-1.9c0.4-0.8,1.6-1.4,2.9-1.4c-1.2-0.4-1.8-1.3-1.4-2.1c0.4-1,2.1-1.6,3.7-1.3
		l2,0.3c-4.5-2.8-6.5-7.1-4.8-11.1l5.3-13.6c0.9-2.3,2.9-4.3,5.4-5.8c2.1-1.3,4.7-2.2,7.5-2.7c0.2-8.6,0.3-17.7,0.3-27.2
		c0-18.1-1.9-37.6-6.5-57.7c-6.7,2.5-13.3,5-20.2,7.5c-0.2,0.1-0.4,0.2-0.6,0.2c-5.9,2.2-9.4,4.3-15.5,6.5c-2.7,1-1.8,1.5-1.8,1.5
		v-0.1c-17,6.5-39.8,12.7-59.7,18.9c8.6,19.8,14.4,46.5,16.3,82.3c0,0.1-0.6,0.2-0.6,0.4c3.1-3.5,5.9-7.1,8.8-10.5
		c18.3-21,36.8-38.5,51-62.7c27,18.2,7.7,66.7-13.1,82.8c6.2,0.8,10.3,3.7,13.1,7.6C1364,748.6,1367.4,745.2,1369,743.7z"/>
	<path fill="#F3776F" d="M853.1,1690c6.7-12.7,16.7-23.1,31.8-17c9.5,3.8,14.4,13,16.4,23.6c3.7-5.6,8.6-9.9,16-11.6
		c28.3-6.5,32.6,28.8,30,50.4c-0.9,7.9-2.3,23-6.4,36.5c20.4,13.8,37.3,25,47.3,31.5c8.2-0.3,16.4-0.8,24.5-1.3
		c9.5-5.2,23.2-13.3,39.5-24.6c-11.7-14.1-14.2-43-15.7-55.1c-2.4-21.6,1.8-56.9,30.1-50.4c7.4,1.7,12.3,6.1,16,11.6
		c2.1-10.6,6.9-19.7,16.4-23.5c15.2-6.1,25.1,4.3,31.9,17c8.6-31,37.4-50.9,58.3-15.2c14.8-5,29.4-10.5,43.5-17.5
		c72.5-35.9,93.9-88.3,104.7-164.1c5.4-38,1.2-84.8-18.6-118.3c-10.4-17.7-32.2-50.5-55.7-70.8c6.3-3.7,97.1-57.6,133.1-135.2
		c59-127.4,25.1-211.4-51.1-298.5c-1.2-1.4-2.5-2.7-3.7-4c1.2-2,2.3-4.1,3.4-6.1c-3.6,0.7-7.4,1.5-11.8,2.5
		c-19.5-36.9,9.8-77.4,26.5-96.2c-2.8-3.8-6.9-6.7-13.1-7.6c20.8-16,40-64.5,13-82.8c-14.2,24.2-32.8,41.7-51.1,62.7
		c-2.9,3.4-6,7-9.1,10.5c-0.6,34.1-86.8,114.7-339.3,125.1c-3-0.1-6,0-9-0.3c-0.3,0-0.6-0.1-0.9-0.1
		c-258.8-22.8-313-132.1-313-132.1s-0.6-6,0-15.6c-14.5-15.9-28.6-30.9-39.8-50.2c-27.1,18.2-7.7,66.7,13,82.8
		c-27.1,3.6-19.5,44.5,4.5,48.9c-12.6,6.4-16.1,17.9-11.7,33.2c1.2,4.1,5,12.3,9.6,20.7c-85.4,81.7-94.7,182.3-68.4,252
		c44.7,118.6,136,170.9,158.1,182.2c-26.3,19-51.9,57.2-63.4,76.9c-19.8,33.5-24,80.2-18.6,118.3c10.8,75.8,32.1,128.1,104.7,164.1
		c23.6,11.7,48.4,20,73.6,27C819.2,1641.8,845,1660.9,853.1,1690z M600.3,1075.1c0-101.9,82.6-184.6,184.5-184.6
		c101.9,0,184.6,82.6,184.6,184.6c0,32.2-8.3,62.4-22.7,88.8c25.8-2,52.9-0.3,76.6,2c0.9,0.1,1.6,0.3,2.4,0.4
		c-12.4-24.8-19.6-52.8-19.6-82.5c0-101.9,82.6-184.5,184.5-184.5c101.9,0,184.6,82.6,184.6,184.5c0,102-82.7,184.6-184.6,184.6
		c-59.3,0-111.9-28.1-145.7-71.6c-5.8,15.2-20,32.1-27.2,40.8c-16.7,20.3-30,47.9-56.8,31.4c-20.3-12.6-39.5-31.9-51.5-52.6
		c-0.6-1-1.3-2.3-2.1-3.6c-32.6,29-75.4,46.8-122.5,46.8C682.9,1259.7,600.3,1177.1,600.3,1075.1z"/>
	<path fill="#FBAF4A" d="M841.9,1760.6c1.3,14.4,4.5,27.9,10.8,35.5c7.8,1.1,15.7,2.2,23.5,3c0.8-0.4,1.4-0.5,2.2-1
		c7.2-4.3,11.9-14.7,14.9-26.1c2.5,13.4,8.1,25.3,20.9,26.3c14.3,1,22.2-11.8,26.7-26.6c4.1-13.4,5.5-28.5,6.4-36.5
		c2.5-21.6-1.8-56.9-30-50.4c-7.4,1.7-12.4,6.1-16,11.6c-2.1-10.6-7-19.7-16.4-23.6c-15.1-6.1-25.1,4.3-31.8,17
		c-8.1-29.1-33.9-48.1-54.4-20.9c-3.4,4.6-6.8,10.1-9.8,17.4c-5.1,12.4-8.1,67.3,1.3,97.9c12.6,2.9,25.4,5.5,38.3,7.8
		C833.9,1784.2,838.1,1772.8,841.9,1760.6z"/>
	<path fill="#FBAF4A" d="M1131,1676.9c-6.7-12.7-16.7-23.1-31.9-17c-9.5,3.8-14.3,13-16.4,23.5c-3.7-5.5-8.6-9.9-16-11.6
		c-28.3-6.5-32.6,28.8-30.1,50.4c1.4,12.2,3.9,41.1,15.7,55.1c4.4,5.2,10,8.5,17.4,7.9c12.9-1,18.5-12.9,21-26.3
		c3,11.4,7.8,21.9,14.9,26.2c2.5,1.5,4.8,2.5,7,3.2c6-1.2,11.9-2.7,17.8-4.1c6.9-7.4,10.4-21.5,11.7-36.7
		c3.6,11.6,7.7,22.6,12.9,30.6c13.6-3.7,27-7.7,40.3-12.1c7.6-31.3,4.7-80.9-0.1-92.6c-1.8-4.5-3.8-8.4-5.8-11.8
		C1168.4,1626,1139.6,1645.9,1131,1676.9z"/>
	<path fill="#C32026" d="M637.1,728.9c0,0,54.2,109.2,313,132.1c0.3,0,0.6,0.1,0.9,0.1c3,0.3,6,0.2,9,0.3
		c252.6-10.4,338.7-91,339.3-125.1c0-0.1,0-0.2,0-0.4c-1.9-35.8-6.4-62.5-15.1-82.3c19.9-6.1,42.7-12.4,59.7-18.9v0.1
		c0,0-0.9-0.5,1.8-1.5c6.1-2.2,10.9-4.3,16.7-6.5c0.2,0-0.2-0.1,0-0.2c6.9-2.5,13.2-5,19.9-7.5c4.7,20.1,6.4,39.5,6.4,57.7
		c0,9.5-0.2,18.6-0.3,27.2c-2.8,0.6-5.5,1.4-7.6,2.7c-2.6,1.5-4.5,3.5-5.4,5.8l-5.3,13.6c-1.6,4.1,0.4,8.3,4.8,11.1l-2-0.3
		c-1.6-0.3-3.2,0.3-3.7,1.3c-0.4,0.8,0.3,1.7,1.4,2.1c-1.3,0-2.6,0.6-2.9,1.4c-0.3,0.8,0.2,1.6,1.2,1.9c-1.6,1.5-5.1,5-9.3,9.7
		c-16.7,18.8-46,59.3-26.5,96.2c4.4-1,8.2-1.8,11.8-2.5c2.4-0.5,4.8-0.9,6.9-1.3c6.2-1.1,10.9-1.8,14.2-2.2c5-0.5,6.9-0.5,6.9-0.5
		s1.3-19.1,6.3-34.1c0.6-1.7,6.8-12.2,6.8,5.3c0,17.6-2.4,27.8-2.4,27.8s5.8-0.8,12.8,0.7c3.6,0.8,7.5,2,11.1,4.2
		c11.3-10.1,8.7-64.6,0.4-88.5c0.7-5.2,1.4-11.1,2-17.6c4.5-1.6,8-4.3,9.3-7.6l5.3-13.6c1.1-2.7,0.6-5.4-1.2-7.8
		c-2-2.7-5.7-5.1-10.6-6.2c-0.1,0-0.2,0-0.3-0.1c0.4-9.1,0.6-18.8,0.6-28.9c0-20.7-2.3-43.3-8.4-66.5
		c47.2-18.8,86.5-36.9,116.2-51.2c2.3-2.9,3.8-11.4,0-16.1c-11.5-4.5-27-9.1-45.3-13.8l-3.8,2l0.5-2.9
		c-62.8-15.9-159.1-32.8-259.2-47.5c-93.1-13.6-189.4-25.3-265.3-32.4c-43.7,2.7-158,21.5-268.8,41c-130.2,23-255.5,47-255.5,47
		c-6.6,8.4,0,16.1,0,16.1s95.5,38.1,242.6,82.8c-22.3,29.7-27.9,60.2-29.1,78C636.5,722.9,637.1,728.9,637.1,728.9z"/>
	<path fill="#05B195" d="M1700,470.2c-49.9,42.6-97,88.1-140.7,137.3c93.6,124.9,149,280.1,149,448.1
		c0,331.1-215.1,611.8-513.1,710.4c-13.3,4.4-26.7,8.5-40.3,12.1c-8.1,2.2-16.3,4.2-24.6,6.1c-5.9,1.4-11.8,2.9-17.8,4.1
		c-32.5,6.7-65.9,11.2-99.8,13.6c-8.1,0.6-16.3,1-24.5,1.3c-9.4,0.3-18.8,0.7-28.3,0.7c-28.3,0-56.2-1.7-83.7-4.7
		c-7.9-0.9-15.7-1.9-23.5-3c-8.2-1.2-16.3-2.5-24.3-3.9c-12.9-2.3-25.6-4.9-38.3-7.8c-97.7-22.7-188.2-64.5-267-121.2
		c-8.2,6.7-16.3,13.3-24.5,19.9c146.2,115.5,331,184.3,531.8,184.3c474.5,0,859.1-384.6,859.1-859
		C1889.4,804.6,1818.5,617.4,1700,470.2z"/>
	<path fill="#05B195" d="M361.5,1504.7c-94-125.1-149.7-280.6-149.7-449.1c0-413.3,335-748.3,748.3-748.3
		c151.3,0,292.2,45,409.9,122.2c50.2-42.5,100.8-84.5,152.3-125.5c-139.3-97.4-308.9-154.7-491.9-154.7
		c-474.4,0-859,384.7-859,859.1c0,194.1,64.4,373.2,173,517.1C350,1518.6,355.7,1511.6,361.5,1504.7z"/>
	<polygon fill="#3E81B5" points="428.1,1599.8 406.2,1555.3 384.2,1599.8 335.1,1606.9 370.7,1641.5 362.3,1690.4 406.2,1667.3 
		450.1,1690.4 441.7,1641.5 477.2,1606.9 	"/>
	<polygon fill="#3E81B5" points="1475.8,529.1 1542.3,494.1 1612.7,531.1 1599.2,452.7 1656.2,397.2 1577.5,385.8 1542.3,314.5 
		1507.1,385.8 1428.4,397.2 1485.4,452.7 1472.4,528.2 1471.9,531.1 	"/>
	<path fill="#752321" d="M897.6,1177.2c4.9-10.5,22.3-10.2,33.4-11.8c5.1-0.8,10.4-1.1,15.6-1.5c14.5-26.3,22.7-56.6,22.7-88.8
		c0-101.9-82.6-184.6-184.6-184.6c-102,0-184.5,82.6-184.5,184.6c0,102,82.6,184.6,184.5,184.6c47.1,0,89.9-17.8,122.5-46.8
		C901.7,1203.1,893.1,1186.8,897.6,1177.2z M784.9,1225.6c-83.1,0-150.5-67.4-150.5-150.5c0-83.1,67.4-150.5,150.5-150.5
		c83.1,0,150.5,67.4,150.5,150.5C935.3,1158.3,868,1225.6,784.9,1225.6z"/>
	<path fill="#1D1D1B" d="M832.8,1075.1c-27.5,0-49.8-22.3-49.8-49.8c0-16.8,8.4-31.7,21.1-40.7c-6.2-1.3-12.6-2-19.2-2
		c-51.1,0-92.5,41.4-92.5,92.5c0,51.1,41.4,92.5,92.5,92.5c51.1,0,92.5-41.4,92.5-92.5c0-7.9-1-15.5-2.8-22.8
		C865.7,1066,850.3,1075.1,832.8,1075.1z M751.3,1148.3c-14.2,0-25.8-11.6-25.8-25.8c0-14.3,11.5-25.7,25.8-25.7
		c14.2,0,25.7,11.5,25.7,25.7C777,1136.7,765.5,1148.3,751.3,1148.3z"/>
	<path fill="#FFFFFF" d="M751.3,1096.8c-14.2,0-25.8,11.5-25.8,25.7c0,14.2,11.5,25.8,25.8,25.8c14.2,0,25.7-11.6,25.7-25.8
		C777,1108.2,765.5,1096.8,751.3,1096.8z"/>
	<path fill="#752321" d="M1045,1196.9c33.8,43.5,86.4,71.6,145.7,71.6c101.9,0,184.6-82.6,184.6-184.6
		c0-101.9-82.7-184.5-184.6-184.5c-101.9,0-184.5,82.6-184.5,184.5c0,29.7,7.2,57.6,19.6,82.5
		C1048.4,1169.5,1050.6,1182.4,1045,1196.9z M1190.7,933.4c83.1,0,150.5,67.4,150.5,150.5c0,83.1-67.4,150.5-150.5,150.5
		c-83.1,0-150.5-67.4-150.5-150.5C1040.2,1000.8,1107.6,933.4,1190.7,933.4z"/>
	<path fill="#1D1D1B" d="M1190.7,1176.3c51.1,0,92.5-41.4,92.5-92.5c0-7.9-1-15.5-2.8-22.8c-8.9,13.7-24.3,22.8-41.8,22.8
		c-27.5,0-49.8-22.3-49.8-49.8c0-16.8,8.4-31.7,21.1-40.7c-6.2-1.3-12.6-2-19.2-2c-51.1,0-92.5,41.4-92.5,92.5
		C1098.2,1135,1139.6,1176.3,1190.7,1176.3z M1157.1,1105.5c14.2,0,25.7,11.5,25.7,25.8s-11.6,25.7-25.7,25.7
		c-14.2,0-25.8-11.5-25.8-25.7S1142.9,1105.5,1157.1,1105.5z"/>
	<path fill="#FFFFFF" d="M1157.1,1157c14.2,0,25.7-11.5,25.7-25.7s-11.6-25.8-25.7-25.8c-14.2,0-25.8,11.5-25.8,25.8
		S1142.9,1157,1157.1,1157z"/>
	<path fill="#FBAF4A" d="M897.6,1177.2c-4.6,9.6,4.1,25.9,9.8,35.7c0.8,1.3,1.5,2.5,2.1,3.6c12,20.7,31.2,40,51.5,52.6
		c26.8,16.5,40.1-11.1,56.8-31.4c7.2-8.7,21.3-25.6,27.2-40.8c5.6-14.5,3.4-27.4-19.2-30.5c-0.9-0.1-1.5-0.3-2.4-0.4
		c-23.7-2.3-50.9-4-76.6-2c-5.3,0.4-10.5,0.7-15.6,1.5C920,1167.1,902.6,1166.8,897.6,1177.2z"/>
</g>
</svg>
