<?xml version="1.0" encoding="utf-8"?>
<!-- Generator: Adobe Illustrator 18.1.0, SVG Export Plug-In . SVG Version: 6.00 Build 0)  -->
<svg version="1.1" id="Layer_1" xmlns="http://www.w3.org/2000/svg" xmlns:xlink="http://www.w3.org/1999/xlink" x="0px" y="0px"
	 viewBox="0 0 150 150" enable-background="new 0 0 150 150" xml:space="preserve">
<g>
	<circle fill="#5B784D" cx="75" cy="76.7" r="60.7"/>
	<g>
		<path fill="#92C83E" d="M119.2,63.5c0.2,0,0.4,0.1,0.6,0.2C119.7,63.7,119.5,63.5,119.2,63.5z"/>
		<path fill="#92C83E" d="M114.7,66.6L110,81.8c-23.2,10.2-14.5,34-14.5,34c21.5-11.2,16.5-30.3,15.3-33.7c1.6-5.5,4-13.7,5-16
			c1.1-2.4,2.5-2.6,3.3-2.5C115.7,62.7,114.7,66.6,114.7,66.6z"/>
		<path fill="#92C83E" d="M58.9,106.4L44,100.6c0,0-3.6-1.7-5.2,1.5c0.4-0.7,1.5-1.7,4-1c2.4,0.6,10.4,3.9,15.7,6.1
			c2,3,13.7,18.9,35.9,9.1C94.4,116.3,81.3,94.6,58.9,106.4z"/>
		<path fill="#92C83E" d="M38.8,102.1c-0.2,0.3-0.2,0.5-0.2,0.5C38.6,102.5,38.7,102.3,38.8,102.1z"/>
		<path fill="#92C83E" d="M86.6,97.4c20-10.4,15.3-28.1,14.2-31.3c1.5-5.1,3.7-12.7,4.7-14.9c1-2.3,2.3-2.5,3.1-2.4
			c-3.2-0.7-4.1,2.9-4.1,2.9L100,65.9C78.5,75.3,86.6,97.4,86.6,97.4z"/>
		<path fill="#92C83E" d="M108.5,48.9c0.2,0,0.3,0.1,0.5,0.1C109.1,49.1,108.9,48.9,108.5,48.9z"/>
		<path fill="#92C83E" d="M85.6,97.9c0,0-12.2-20.1-33-9.2l-13.8-5.4c0,0-3.4-1.6-4.8,1.4c0.4-0.6,1.4-1.5,3.7-0.9
			c2.3,0.6,9.7,3.6,14.5,5.6C54.1,92.2,65,107,85.6,97.9z"/>
		<path fill="#92C83E" d="M34,84.7c-0.2,0.3-0.2,0.5-0.2,0.5C33.9,85,34,84.9,34,84.7z"/>
		<path fill="#92C83E" d="M78.3,79.8C95.2,71,91.2,56,90.3,53.3c1.2-4.3,3.1-10.8,4-12.6c0.9-1.9,2-2.1,2.6-2
			c-2.7-0.6-3.5,2.4-3.5,2.4l-3.7,12C71.4,61.1,78.3,79.8,78.3,79.8z"/>
		<path fill="#92C83E" d="M96.9,38.7c0.1,0,0.3,0.1,0.4,0.1C97.3,38.8,97.1,38.7,96.9,38.7z"/>
		<path fill="#92C83E" d="M36.9,68.3c1.9,0.5,8.2,3.1,12.3,4.8c1.6,2.4,10.8,14.9,28.2,7.1c0,0-10.3-17-28-7.8l-11.7-4.6
			c0,0-2.8-1.3-4.1,1.2C34,68.5,34.8,67.7,36.9,68.3z"/>
		<path fill="#92C83E" d="M33.7,69.1c-0.1,0.2-0.2,0.4-0.2,0.4C33.6,69.3,33.6,69.2,33.7,69.1z"/>
		<path fill="#92C83E" d="M78.3,43.2c0.9-3.2,2.3-7.9,2.9-9.3c0.6-1.4,1.5-1.5,1.9-1.5c-2-0.5-2.6,1.8-2.6,1.8L77.8,43
			c-13.4,5.9-8.4,19.6-8.4,19.6C81.9,56.2,78.9,45.2,78.3,43.2z"/>
		<path fill="#92C83E" d="M83.1,32.5c0.1,0,0.2,0.1,0.3,0.1C83.4,32.5,83.3,32.5,83.1,32.5z"/>
		<path fill="#92C83E" d="M55,31.7c0.1-0.1,0.2-0.1,0.3-0.2C55.3,31.5,55.1,31.6,55,31.7z"/>
		<path fill="#92C83E" d="M57.8,39.1c-3.3,9.3,5.7,13.1,5.7,13.1c2.5-9-4.2-12.7-5.5-13.3c-1.1-1.9-2.8-4.8-3.2-5.7
			c-0.4-0.8-0.1-1.3,0.1-1.5c-1,0.8-0.2,2-0.2,2L57.8,39.1z"/>
		<path fill="#92C83E" d="M39,54.2c1.4,0.4,6,2.2,9.1,3.5c1.1,1.7,7.9,10.9,20.7,5.2c0,0-7.6-12.5-20.5-5.7l-8.6-3.4
			c0,0-2.1-1-3,0.9C36.9,54.4,37.5,53.8,39,54.2z"/>
		<path fill="#92C83E" d="M36.7,54.8c-0.1,0.2-0.1,0.3-0.1,0.3C36.6,55,36.7,54.9,36.7,54.8z"/>
	</g>
</g>
</svg>
