<?xml version="1.0" encoding="utf-8"?>
<!-- Generator: Adobe Illustrator 18.1.0, SVG Export Plug-In . SVG Version: 6.00 Build 0)  -->
<svg version="1.0" id="Layer_1" xmlns="http://www.w3.org/2000/svg" xmlns:xlink="http://www.w3.org/1999/xlink" x="0px" y="0px"
	 viewBox="0 0 150 150" enable-background="new 0 0 150 150" xml:space="preserve">
<g>
	<path fill="#FFEF00" d="M106.8,98.3l-2.6-1.1l28.4-1.9l-28.1-4.6l27.2-8.4l-28.4,2l24.5-14.5l-27.2,8.5l20.5-19.7L96.8,73.2
		l15.4-23.9L91.7,69l9.5-26.8l-15.3,24l3-28.3l-9.4,26.9l-3.6-28.2L73,64.8L63,38.1l3.6,28.2L50.8,42.7l10.1,26.6L40,50l15.9,23.6
		l-24.8-14l21,19.3l-27.4-8l24.8,13.9l-28.4-1.4l27.4,7.8l-28,5.2l28.5,1.3l-0.7,0.3C65.8,95.9,86.2,95.4,106.8,98.3z"/>
	<path fill="#008048" d="M137.9,109.1c-10.3-3.7-20.7-5.9-31.1-7.4c-20.7-3-41-2.4-58.6-0.2c-15.9,2-29.5,5.2-39.1,7.9
		c8.1-1.2,16-1.3,23.8-1.1c3.6,0.1,7.3,0.2,10.8,0.5c1.5,0.2,3,0.4,4.5,0.6c14.6,1.8,28.2,5.1,39.9,8.6c11.8,3.6,21.9,7.2,28.9,9.1
		L137.9,109.1z"/>
	<g>
		<path fill="#008048" d="M6.5,77.3c0-30.8,30.8-55.8,68.9-55.8c38,0,68.9,25,68.9,55.8c0,10.1-3.3,19.5-9.1,27.6
			c0.8,0.3,1.6,0.4,2.4,0.7c5.8-8.4,9-18,9-28.3c0-32.1-31.9-58.1-71.2-58.1c-39.3,0-71.2,26-71.2,58.1c0,10.1,3.3,19.6,8.9,27.9
			c0.8-0.2,1.5-0.4,2.4-0.6C9.8,96.5,6.5,87.2,6.5,77.3z"/>
		<path fill="#FFEF00" d="M141.8,77.3c0-4.7-0.8-9.3-2.2-13.8c-4-11.9-12.7-21.6-23.3-28.3c-12.1-7.7-26.6-11.4-40.9-11.4
			c-14.3,0-28.8,3.7-40.9,11.4c-10.6,6.6-19.3,16.3-23.3,28.3c-1.5,4.5-2.2,9.1-2.2,13.8c0,4.7,0.8,9.3,2.2,13.7
			c1.6,4.7,4,9,6.9,12.9c0.8-0.2,1.7-0.4,2.5-0.6c-3-4-5.6-8.3-7.2-13.1c-1.4-4.2-2.1-8.5-2.1-13c0-4.4,0.7-8.8,2.1-13
			c3.8-11.4,12.2-20.6,22.3-27c11.8-7.4,25.8-11,39.7-11c13.9,0,27.9,3.6,39.7,11c10.1,6.4,18.5,15.6,22.3,27
			c1.4,4.2,2.1,8.6,2.1,13c0,4.4-0.7,8.8-2.1,13c-1.6,4.8-4.2,9.2-7.2,13.2c0.8,0.2,1.6,0.5,2.4,0.7c3-4,5.5-8.4,7.1-13.2
			C141,86.6,141.8,81.9,141.8,77.3z"/>
	</g>
</g>
</svg>
