<?xml version="1.0" encoding="utf-8"?>
<!-- Generator: Adobe Illustrator 18.1.0, SVG Export Plug-In . SVG Version: 6.00 Build 0)  -->
<svg version="1.0" id="Layer_1" xmlns="http://www.w3.org/2000/svg" xmlns:xlink="http://www.w3.org/1999/xlink" x="0px" y="0px"
	 viewBox="0 0 150 150" enable-background="new 0 0 150 150" xml:space="preserve">
<g>
	<path fill="#EE3339" d="M101.9,113.1c-0.4,0.2-0.8,0.4-1.3,0.7c1.5-2.6,3.1-5.2,4.5-7.9l-9,11.4c1.4-0.5,2.9-1,4.3-1.6
		C100.9,114.8,101.4,114,101.9,113.1z"/>
	<path fill="#EE3339" d="M85.6,30.7c-1.4-2.2-4-2.4-5.8-0.5L48.5,66.1c2.7,1.9,5.3,3.5,7.9,4.7L85,37.9C86.7,36,86.9,32.8,85.6,30.7
		z"/>
	<path fill="#EE3339" d="M79.3,18.9c2.1-2.2,2.4-6.2,0.7-9c-1.8-2.9-5.1-3.4-7.3-1.1L33.1,51.1c2.8,3.4,5.5,6.4,8.1,8.9L79.3,18.9z"
		/>
	<path fill="#EE3339" d="M91.4,49.2c-0.9-1.9-3.1-2.2-4.8-0.6L61,72.6c2.9,1,5.8,1.6,8.6,2L90.2,55C91.7,53.6,92.3,51,91.4,49.2z"/>
	<path fill="#EE3339" d="M87.6,68.3c-0.8-1.5-2.8-1.6-4.4-0.3l-6,5.1c2.1,0,4.2-0.1,6.2-0.1c1.1,0,2.2-0.1,3.3-0.1
		C88,71.5,88.4,69.6,87.6,68.3z"/>
	<path fill="#EE3339" d="M103.4,120.6l-3,2.5c-1,1.7-2,3.4-2.8,5.1l5.7-4.7c0.8-0.7,1.5-1.9,1.6-2.6
		C104.9,120,104.3,119.9,103.4,120.6z"/>
	<path fill="#EE3339" d="M104.9,125.4c0.8-0.7,1.3-1.8,1.3-2.4c-0.1-0.6-0.8-0.6-1.6,0.2l-8.3,7.7c-0.6,1.4-1.1,2.8-1.4,4
		L104.9,125.4z"/>
	<path fill="#EE3339" d="M95.1,139.3l14.9-15.2c0.7-0.7,1.2-1.7,1-2.2c-0.1-0.5-0.8-0.4-1.5,0.4l-15,15.1
		C94.6,138.2,94.8,138.8,95.1,139.3z"/>
	<path fill="#EE3339" d="M110.7,124.4l-15,15.6c0.4,0.3,0.9,0.6,1.5,0.7l14-14.7c0.7-0.7,1.1-1.6,1-2.1
		C112.1,123.5,111.4,123.7,110.7,124.4z"/>
	<path fill="#EE3339" d="M96.4,141.7l0.2-0.2c-0.3,0-0.5,0.1-0.8,0.1C96,141.6,96.2,141.6,96.4,141.7z"/>
	<path fill="#EE3339" d="M90.1,116.8l19.5-23.7c0-0.3,0.1-0.5,0.1-0.8c-0.3-1-0.7-1.9-1.1-2.6l-21.4,25.9c-1,1.2-1.1,2.4-0.2,2.7
		C87.8,118.6,89.2,117.9,90.1,116.8z"/>
	<path fill="#EE3339" d="M92.6,118.2c1.2-0.3,2.3-0.6,3.5-1l9-11.4c1.6-3.1,3-6.2,3.8-9.4l-15.7,20C92.8,117,92.5,117.7,92.6,118.2z
		"/>
	<path fill="#EE3339" d="M87.1,111L104,92.2c1-1.2,2-2.3,3.1-3.5c-1-0.6-2.1-1-3.3-1.3c-0.1,0.2-0.3,0.3-0.3,0.4l-19.2,21.3
		c-1.1,1.2-1.3,2.6-0.5,3.1C84.5,112.8,86,112.2,87.1,111z"/>
	<path fill="#EE3339" d="M85.6,100.8c0.9,0.6,2.5,0.1,3.7-1.1l10.9-11.8c-2,0.3-4.2,0.7-6.5,1.3l-7.5,8.1
		C84.9,98.6,84.7,100.2,85.6,100.8z"/>
	<path fill="#26A7E0" d="M86,6.3c14.4,34.7,8.9,52.6,3.3,66.2l7.4-1.1C103.6,54.7,108.6,36.8,86,6.3z"/>
	<path fill="#26A7E0" d="M91.7,141.5c0.3,0.1,0.7,0.2,1,0.2c0.5,0.1,1,0.1,1.5,0.1c0.6,0,1.3,0,2,0c0.2,0,0.5,0,0.7-0.1
		c-0.2,0-0.4-0.1-0.6-0.1c-0.2,0-0.4-0.1-0.6-0.2c-0.4-0.1-0.8-0.3-1.1-0.5c-0.3-0.2-0.5-0.4-0.8-0.6c-0.4-0.4-0.7-1-0.9-1.6
		c-0.2-0.7-0.2-1.4-0.1-2.3c0.1-1.1,0.5-2.3,1-3.5c0.4-1,0.8-2,1.4-3c0.9-1.7,1.9-3.4,3-5.2c0.5-0.9,1.1-1.8,1.7-2.7
		c-1.1,0.5-2.2,1.1-3.3,1.6c-0.6,0.3-1.2,0.5-1.7,0.8c-1.4,2.2-2.8,4.3-3.9,6.3c-0.9,1.6-1.6,3.1-2,4.5c-0.3,1-0.5,1.9-0.4,2.8
		c0,0.8,0.3,1.5,0.7,2C89.8,140.7,90.6,141.2,91.7,141.5z"/>
	<path fill="#26A7E0" d="M91.1,84.7c10.7-1.8,18-1.6,20.6,5.3c-0.1,1.3-0.3,2.5-0.6,3.7c-0.7,2.8-1.7,5.7-3,8.4
		c-1.8,3.7-4,7.4-6.1,11c-0.5,0.9-1,1.7-1.5,2.5c1.6-0.7,3.3-1.4,4.8-2.1c8.1-14.1,18.9-30.6,4.1-36.4c-4.9-2.7-12.7-0.7-22.9,1
		c-12.2,2.1-30.8,5-51.3-15.5c-3.9-3.9-8-8.6-12.3-14.5C40.8,98.3,66.9,88.8,91.1,84.7z"/>
	<path fill="#26A7E0" d="M88.7,125.1c0.1,0,0.2,0,0.3-0.1c0.3,0,0.7-0.1,1-0.1c-0.1,0-0.2,0-0.3-0.1c2.1-0.6,4.2-1.3,6.2-2.1
		c0.5-0.2,1-0.4,1.5-0.6c1.1-0.4,2.1-0.8,3.1-1.2c0.4-0.2,0.8-0.3,1.2-0.4c1.8-0.7,3.5-1.3,5.1-1.7c5.7-1.6,9.6-0.9,8.7,6.5
		c1.4-4.7,1.7-7.9,1.2-9.9c-0.7-2.5-2.7-3.1-5.4-2.6c-2,0.4-4.5,1.3-7.1,2.3c-1.6,0.7-3.3,1.3-4.9,2c-2.7,1.1-5.5,2.1-8.2,2.6
		c-2.6,0.5-5.2,0.6-7.5-0.2c-0.1-0.2-0.2-0.5-0.3-0.7c-3-6.6-0.9-17.8,4.8-29.6l-1.8,0.3l-4.4,0.8c-5.5,11.2-9.7,22.8-6.7,29.4
		c0.8,1.8,2.2,3.2,4.1,4.1C81.9,125.9,85.1,126,88.7,125.1z"/>
</g>
</svg>
