<?xml version="1.0" encoding="utf-8"?>
<!-- Generator: Adobe Illustrator 18.1.0, SVG Export Plug-In . SVG Version: 6.00 Build 0)  -->
<svg version="1.1" id="Layer_1" xmlns="http://www.w3.org/2000/svg" xmlns:xlink="http://www.w3.org/1999/xlink" x="0px" y="0px"
	 viewBox="0 0 150 150" enable-background="new 0 0 150 150" xml:space="preserve">
<g>
	<path fill="none" d="M36.5,30c-4.1,0-7.4,3.3-7.4,7.4c0,4.1,3.3,7.4,7.4,7.4c4.1,0,7.4-3.3,7.4-7.4C43.9,33.3,40.6,30,36.5,30z
		 M36.8,39.9c-1.5,0-2.8-1.2-2.8-2.8c0-1.5,1.2-2.8,2.8-2.8c1.5,0,2.8,1.2,2.8,2.8C39.6,38.6,38.4,39.9,36.8,39.9z"/>
	<path fill="none" d="M61.1,43.5c3.7,0,6.8-3,6.8-6.8c0-3.7-3-6.8-6.8-6.8c-3.7,0-6.8,3-6.8,6.8C54.4,40.5,57.4,43.5,61.1,43.5z
		 M61.7,34c1.5,0,2.8,1.2,2.8,2.8c0,1.5-1.2,2.8-2.8,2.8c-1.5,0-2.8-1.2-2.8-2.8C59,35.3,60.2,34,61.7,34z"/>
	<path fill="none" d="M80.7,119.9c-0.9,0.1-1.6,0.3-1.9,0.3C78.3,120.3,79.2,120.2,80.7,119.9z"/>
	<path fill="#9A6241" d="M46.9,45.1c-0.5,0.2-0.8,0.4-0.8,0.4l1.5,0.7l2.4,2.9l2.2-3.2l0.7-1.1c0,0-0.1,0.4-0.2,1.2
		c0,0.3-0.1,0.7-0.1,1.1l0.4-0.5l1.2-1.6C51.7,43.2,48.4,44.4,46.9,45.1z"/>
	<circle fill="#7C5F47" cx="36.8" cy="37.1" r="2.8"/>
	<path fill="#7C5F47" d="M107.5,111.7c1.2-13.9-3.2-33.2-30.2-32.7l6.3,0.5L72.9,91.8L77.3,79c-3.7,0.1-7-0.1-9.8-0.5
		C58.3,76,54.4,68.6,53,61.4C67,59.6,77.5,51,77.5,40.7c0-3.6-1.5-6.9-3.5-9.8v-1c0-4.1-13.3-24.6-13.3-24.6l0.4,16.4l0.5,0.4
		c-4.2-1.6-9.1-2.5-14.2-2.5c-3.9,0-7.5,0.5-10.9,1.4L31.6,4.4L23,28.2l0.2-0.1c-3.8,3.5-6,7.9-6,12.6c0,10.3,10.5,18.8,24.3,20.7
		c0,0,0,0,0,0.1L41.2,62c0,0,0.1,0.2,0.3,0.7c-0.5,18.5-1.2,44.6-1.2,46.5c0,2.9-11.9-0.8-9.8,9c2.1,9.8,14.3,6.1,14.3,6.1
		s-0.4-3.6,0.4,1.3c0.8,4.9,5.7,2.4,13.5,2.4c7.8,0,7.8,0,7.8,0s4.5-5-0.4-8.7c-2.8-2.1-1.9-3.9-0.5-5.1c-0.8-0.1-3-0.2-4.6-0.4
		c-2-0.2-5.7-0.8-5.7-0.8s3.2-3,5.1-4.2c-0.9-0.8-5.3-5.4,0.3-6.7c2-0.4,2.9,0,3.3,0.9c0.5,0.1,3.1,0.6,2.4,2.7
		c-0.4,1.2-1.5,2.4-2.4,3.3c0.8,0.5,1.3,1,1.3,1s2.5-3.1,9.2-2.9c6,0.2,5.9,5.6,5.8,6.7l0.1,0c1-0.2,10.3-1.6,10,1.7
		c-0.3,2.7-6.4,3.8-9.7,4.4c-1.4,0.3-2.4,0.5-1.9,0.3c0.3-0.1,1-0.2,1.9-0.3c3.6-0.8,10.4-2.7,8.9-4.8c-1.8-2.5-9,0-12.2,1
		c-3.2,2.4-7.2,6.3-2.9,8.5c6.6,3.3,25,1.2,28.7,0.8c1-0.1,2.5-3.4,3.6-8.3c4.8-0.6,19,1.4,19.8,8.1c0.8,7.4-51.7,13.5-61.9,11.9
		c-10.2-1.6-16.4,7.4-4.9,7.4c11.5,0,72.6-4.5,76.7-18C140,114.3,113.4,112,107.5,111.7z M36.5,44.8c-4.1,0-7.4-3.3-7.4-7.4
		c0-4.1,3.3-7.4,7.4-7.4c4.1,0,7.4,3.3,7.4,7.4C43.9,41.5,40.6,44.8,36.5,44.8z M61.1,30c3.7,0,6.8,3,6.8,6.8c0,3.7-3,6.8-6.8,6.8
		c-3.7,0-6.8-3-6.8-6.8C54.4,33.1,57.4,30,61.1,30z M52.6,47c0-0.4,0.1-0.8,0.1-1.1c0.1-0.7,0.2-1.2,0.2-1.2l-0.7,1.1L50,49.1
		l-2.4-2.9l-1.5-0.7c0,0,0.3-0.2,0.8-0.4c1.5-0.7,4.8-1.8,7.2-0.1L53,46.6L52.6,47z M71.3,79.8l-11,9L60,89.1l0.1-0.2l6.1-10.3
		l2.4,0.3l3.4,0.4L71.3,79.8z M84,94.6l4.3-14.5l6.5,2.8L84,94.6z"/>
	<path fill="#7C5F47" d="M64,108.9c1.4-1.7,3.1-4.4,0.1-5.9c0.6,1.5-0.6,4.3-1.4,5.3C63.2,108.5,63.6,108.7,64,108.9z"/>
	<circle fill="#7C5F47" cx="61.7" cy="36.8" r="2.8"/>
	<polygon fill="#99816D" points="83.7,79.5 77.3,79 72.9,91.8 	"/>
	<polygon fill="#99816D" points="84,94.6 94.7,82.9 88.3,80.1 	"/>
	<polygon fill="#99816D" points="66.1,78.6 60.1,88.9 60,89.1 60.2,88.9 71.3,79.8 72,79.2 68.6,78.9 	"/>
</g>
</svg>
