<?xml version="1.0" encoding="utf-8"?>
<!-- Generator: Adobe Illustrator 18.1.0, SVG Export Plug-In . SVG Version: 6.00 Build 0)  -->
<svg version="1.0" id="Layer_1" xmlns="http://www.w3.org/2000/svg" xmlns:xlink="http://www.w3.org/1999/xlink" x="0px" y="0px"
	 viewBox="0 0 150 150" enable-background="new 0 0 150 150" xml:space="preserve">
<g>
	<polygon fill="#003056" points="10.9,75 10.9,92.2 27.4,75 	"/>
	<rect x="10.9" y="64.6" fill="#71BDCC" width="128.4" height="5.7"/>
	<polygon fill="#003056" points="10.9,61.1 10.9,62.2 139.3,62.2 139.3,61.3 74.6,48.4 	"/>
	<polygon fill="#003056" points="66.3,75 58.2,128.8 92.6,128.8 84.7,75 	"/>
	<path fill="#003056" d="M40.7,75L11,122.4c0.5,3.6,4.3,6.4,8.8,6.4H34L54.8,75H40.7z"/>
	<polygon fill="#003056" points="139.3,89.1 139.3,75 128.2,75 	"/>
	<path fill="#003056" d="M95.9,75l18.6,53.8h16c4.9,0,8.9-3.2,8.9-7.2v-2.8L111.8,75H95.9z"/>
	<path fill="#71BDCC" d="M74.2,43l65.2,13V31.1c0-4-4-7.2-8.9-7.2H19.8c-4.9,0-8.9,3.2-8.9,7.2v24.6l63.3-12.6L74.2,43z"/>
</g>
</svg>
