<?xml version="1.0" encoding="utf-8"?>
<!-- Generator: Adobe Illustrator 16.0.0, SVG Export Plug-In . SVG Version: 6.00 Build 0)  -->
<!DOCTYPE svg PUBLIC "-//W3C//DTD SVG 1.1//EN" "http://www.w3.org/Graphics/SVG/1.1/DTD/svg11.dtd">
<svg version="1.1" id="Layer_1" xmlns="http://www.w3.org/2000/svg" xmlns:xlink="http://www.w3.org/1999/xlink" x="0px" y="0px"
	 width="100px" height="100px" viewBox="0 0 100 100" enable-background="new 0 0 100 100" xml:space="preserve">
<g>
	<path fill-rule="evenodd" clip-rule="evenodd" fill="#F6921E" d="M86.723,41.065c-4.452,6.876-5.656,15.112-16.874,15.392
		c2.803-3.77,4.937-6.639,8.103-10.898c-11.221,2.654-17.833,0.108-16.057-12.135c-4.007,2.806-7.144,6.608-10.675,7.024
		c-3.256,0.379-6.935-2.877-10.433-4.531c-2.669,3.668,2.397,7.671-1.071,12.083c-3.564,4.531-8.582-0.416-11.697,3.523
		c0.684,4.33,8.775,3.464,7.151,9.136c-1.067,3.71-3.315,7.077-5.412,11.355c3.211-0.339,6.378-0.673,9.812-1.033
		c-4.46,7.095-6.75,7.742-19.807,5.386c3.327-5.264,6.419-10.151,9.497-15.009c-4.141-3.68-8.489-7.549-12.838-11.414
		c0.409-0.744,0.817-1.487,1.23-2.227c5.564-1.234,11.125-2.468,17.298-3.836c0-5.359,0-11.247,0-18.77
		c4.906,3.107,9.036,5.14,12.433,8.028c3.047,2.594,4.586,1.985,6.683-0.885c2.513-3.441,5.438-6.579,8.185-9.853
		c0.706,0.346,1.412,0.688,2.11,1.037c0.93,3.382,2.223,6.712,2.714,10.154c1.085,7.567,0.899,7.341,8.263,6.598
		C78.77,39.847,82.312,40.683,86.723,41.065z"/>
	<path fill-rule="evenodd" clip-rule="evenodd" fill="#808184" d="M9.443,73.595c13.031-1.007,27.898-1.441,42.54-3.49
		C66.615,68.061,80.204,62.244,93.696,54C79.342,73.8,32.19,83.683,9.443,73.595z"/>
	<path fill-rule="evenodd" clip-rule="evenodd" fill="#808184" d="M90.466,48.02C69.67,71.246,43.995,81.46,12.677,76.274
		C41.642,75.119,67.938,66.778,90.466,48.02z"/>
	<path fill-rule="evenodd" clip-rule="evenodd" fill="#808184" d="M84.006,42.805c-14.759,24.383-37.283,34.366-64.87,34.79
		c12.31-2.268,24.219-5.799,35.376-11.642C65.805,60.036,75.543,52.187,84.006,42.805z"/>
</g>
</svg>
