<?xml version="1.0" encoding="utf-8"?>
<!-- Generator: Adobe Illustrator 18.1.0, SVG Export Plug-In . SVG Version: 6.00 Build 0)  -->
<svg version="1.1" id="Layer_1" xmlns="http://www.w3.org/2000/svg" xmlns:xlink="http://www.w3.org/1999/xlink" x="0px" y="0px"
	 viewBox="0 0 150 150" enable-background="new 0 0 150 150" xml:space="preserve">
<g>
	<path fill="none" d="M71.7,95.7c0.3-0.4,0.1-1.1-0.5-1.4l-4.4-2.8c-0.3-0.2-0.7-0.2-1-0.2c-0.2,0.1-0.4,0.2-0.5,0.3l-2.8,4.4
		l-1.3,2.1c-0.2,0.3-0.1,0.6,0,0.9c0.1,0.2,0.2,0.4,0.5,0.5l4.4,2.8c0.5,0.3,1.2,0.3,1.5-0.2l1.6-2.5L71.7,95.7z"/>
	<path fill="none" d="M64.3,91.6c0.2-0.3,0.1-0.6,0-0.9c-0.1-0.2-0.3-0.4-0.5-0.5l-4.4-2.8c-0.3-0.2-0.6-0.2-0.9-0.2
		c-0.2,0-0.4,0.2-0.5,0.3L55,92.1l-1.2,2c-0.1,0.2-0.1,0.4-0.1,0.7c0.1,0.3,0.3,0.6,0.6,0.7l4.4,2.8c0.3,0.2,0.7,0.2,1,0.2
		c0.2,0,0.4-0.2,0.5-0.3l1.5-2.4L64.3,91.6z"/>
	<path fill="none" d="M56.9,87.7c0.2-0.3,0.1-0.7-0.2-1c-0.1-0.1-0.2-0.2-0.3-0.3l-4.4-2.8c-0.5-0.3-1.2-0.3-1.4,0l-2.8,4.4L47,89.3
		c-0.2,0.4,0,0.9,0.6,1.3l4.4,2.8c0.1,0.1,0.3,0.1,0.4,0.2c0.4,0.1,0.8,0,1-0.2l1-1.5L56.9,87.7z"/>
	<path fill="none" d="M79.2,98.8l-4.4-2.8c-0.5-0.3-1.2-0.3-1.5,0.2l-2.7,4.3l-1.4,2.2c-0.3,0.4-0.1,1.1,0.5,1.4l4.4,2.8
		c0.5,0.3,1.2,0.3,1.5-0.2l1.7-2.7l2.4-3.9C79.9,99.8,79.7,99.2,79.2,98.8z"/>
	<path fill="none" d="M80.9,101l-2.4,3.8l4,2.2l3.4-4.8L81.1,99C81.3,99.7,81.3,100.4,80.9,101z"/>
	<path fill="#2A338E" d="M108.2,80l1-0.8L78.7,64.6L77.4,64L77,64.2c0,0-0.7,0.3-1.7,0.8c-0.3,0.1-0.5,0.3-0.9,0.4
		c-2.4,1.1-6,2.7-8.5,3.4c-0.4,0.1-0.9,0.2-1.2,0.3c-1.6,0.3-3.4-0.9-4.9-2.2c-0.6-0.6-1.2-1.2-1.7-1.7c0.3-0.2,1.3-0.7,2.6-1.5
		c1.3-0.7,2.9-1.6,4.6-2.6c0,0,0.1,0,0.1-0.1c5.6-3.2,13-7.3,16.5-9.3c0.1-0.1,0.3-0.1,0.4-0.2L94,56.4L116,42
		c-0.3-0.4-0.6-0.7-0.9-1.1c0,0,0,0,0-0.1c-2-2.3-4.3-4.4-6.6-6.3c-0.1-0.1-0.2-0.2-0.3-0.3c-0.7-0.5-1.4-1.1-2.1-1.6
		c-0.1-0.1-0.2-0.2-0.4-0.3c-1.7-1.2-3.4-2.2-5.2-3.2c-0.1,0-0.1-0.1-0.2-0.1c-0.8-0.4-1.6-0.8-2.4-1.2c-0.2-0.1-0.4-0.2-0.7-0.3
		c-0.7-0.3-1.4-0.6-2.1-0.9c-0.3-0.1-0.5-0.2-0.8-0.3c-0.7-0.3-1.5-0.5-2.2-0.8c-0.2-0.1-0.4-0.1-0.6-0.2c-1-0.3-1.9-0.6-2.9-0.8
		c-0.1,0-0.2,0-0.3-0.1c-0.8-0.2-1.7-0.4-2.6-0.6c-0.3-0.1-0.6-0.1-0.9-0.2c-0.7-0.1-1.4-0.2-2.1-0.3c-0.3,0-0.7-0.1-1-0.1
		c-0.7-0.1-1.4-0.1-2.1-0.2c-0.3,0-0.6-0.1-1-0.1c-1-0.1-2-0.1-3.1-0.1c-0.8,0-1.6,0-2.4,0.1c-0.2,0-0.4,0-0.7,0
		c-0.7,0-1.3,0.1-2,0.1c-0.2,0-0.3,0-0.5,0c-0.8,0.1-1.6,0.2-2.3,0.3c-0.2,0-0.4,0.1-0.6,0.1c-0.6,0.1-1.2,0.2-1.8,0.3
		c-0.2,0-0.4,0.1-0.7,0.1c-0.7,0.2-1.5,0.3-2.2,0.5c-0.2,0-0.3,0.1-0.5,0.1c-0.6,0.2-1.2,0.3-1.7,0.5c-0.3,0.1-0.5,0.2-0.8,0.2
		c-0.5,0.2-1.1,0.4-1.6,0.5c-0.2,0.1-0.4,0.1-0.6,0.2c-0.7,0.2-1.3,0.5-2,0.8c-0.3,0.1-0.6,0.2-0.8,0.4c-0.4,0.2-0.8,0.4-1.2,0.6
		c-0.3,0.1-0.6,0.3-0.9,0.4c-0.6,0.3-1.2,0.6-1.8,0.9c-0.3,0.2-0.6,0.3-0.9,0.5c-0.3,0.2-0.7,0.4-1,0.6c-0.3,0.2-0.7,0.4-1,0.6
		c-0.3,0.2-0.6,0.4-0.9,0.6c-0.6,0.4-1.2,0.8-1.8,1.2c-0.2,0.2-0.4,0.3-0.7,0.5c-0.4,0.3-0.7,0.5-1.1,0.8c-0.2,0.1-0.4,0.3-0.5,0.4
		c-1.2,1-2.4,2-3.5,3.1c-0.1,0.1-0.2,0.2-0.3,0.3c-1.2,1.2-2.4,2.4-3.5,3.7c0,0-0.1,0.1-0.1,0.1c-1,1.2-2,2.4-2.9,3.7l25.2,12.1
		L68.2,52l4.1,2.9l0.4,0.3l-9.1,5l-8.3,4.5l0.6,0.7c0.1,0.1,0.7,1,1.8,2c1.8,1.8,4.6,4,7.4,3.5c3.2-0.5,9.2-3.3,11.7-4.5
		c0.3-0.1,0.5-0.3,0.7-0.3c0.7,0.3,21.8,10.8,29.7,14.6l0.4-0.3L108.2,80z"/>
	<path fill="#006DB6" d="M127.4,66.1l-0.6,0.4l0.3-0.5l-18,13.2l-1,0.8l-0.7,0.5l-0.4,0.3l0,0c1.7,1,3.7,2,3.7,2l-7,7L82.5,78.1
		l-1.2,1.6l19.8,10.9L96.8,96L77.1,85.2l-1.2,1.6l17.8,9.8l-4.7,5.9L72.8,91.9L72,93.1c0,0,0,0,0,0l-1.1-0.7l-0.2-0.1l0,0l-0.1-0.1
		l-0.3-0.1L70,91.8l-2.4-1.5c-0.6-0.4-1.4-0.5-2-0.4c-0.2-0.4-0.5-0.7-1-1l-4.4-2.8c-0.7-0.5-1.6-0.5-2.3-0.3
		c-0.2-0.2-0.4-0.4-0.7-0.6l-4.4-2.8c-1.2-0.8-2.7-0.6-3.4,0.5l-2.8,4.5L43,85.5v-3.7l-20.2-9.3c-0.1,1.1-0.1,2.2-0.1,3.3
		c0,29.2,23.7,52.9,52.8,52.9c29.2,0,52.8-23.7,52.8-52.9C128.3,72.5,128,69.3,127.4,66.1z M52.4,93.5c-0.1,0-0.3-0.1-0.4-0.2
		l-4.4-2.8c-0.5-0.3-0.8-0.9-0.6-1.3l0.7-1.1l2.8-4.4c0.2-0.4,0.9-0.4,1.4,0l4.4,2.8c0.1,0.1,0.2,0.2,0.3,0.3c0.3,0.3,0.4,0.7,0.2,1
		l-2.5,4l-1,1.5C53.2,93.6,52.8,93.6,52.4,93.5z M59.6,98.4c-0.3,0.1-0.6,0-1-0.2l-4.4-2.8c-0.3-0.2-0.5-0.5-0.6-0.7
		c-0.1-0.2,0-0.5,0.1-0.7l1.2-2l2.9-4.6c0.1-0.2,0.3-0.3,0.5-0.3c0.3-0.1,0.6,0,0.9,0.2l4.4,2.8c0.2,0.1,0.4,0.3,0.5,0.5
		c0.1,0.3,0.2,0.6,0,0.9l-2.6,4.1l-1.5,2.4C60,98.3,59.8,98.4,59.6,98.4z M66.1,102.4l-4.4-2.8c-0.2-0.1-0.4-0.3-0.5-0.5
		c-0.2-0.3-0.2-0.6,0-0.9l1.3-2.1l2.8-4.4c0.1-0.2,0.3-0.3,0.5-0.3c0.3-0.1,0.6,0,1,0.2l4.4,2.8c0.5,0.3,0.8,1,0.5,1.4l-2.5,4
		l-1.6,2.5C67.3,102.7,66.6,102.8,66.1,102.4z M75.6,106.8c-0.3,0.4-0.9,0.5-1.5,0.2l-4.4-2.8c-0.5-0.3-0.8-1-0.5-1.4l1.4-2.2
		l2.7-4.3c0.3-0.4,0.9-0.5,1.5-0.2l4.4,2.8c0.5,0.3,0.8,1,0.5,1.4l-2.4,3.9L75.6,106.8z M82.5,107l-4-2.2l2.4-3.8
		c0.4-0.6,0.4-1.3,0.2-2l4.8,3.1L82.5,107z"/>
</g>
</svg>
