<?xml version="1.0" encoding="iso-8859-1"?>
<!-- Generator: Adobe Illustrator 13.0.0, SVG Export Plug-In . SVG Version: 6.00 Build 14948)  -->
<!DOCTYPE svg PUBLIC "-//W3C//DTD SVG 1.1//EN" "http://www.w3.org/Graphics/SVG/1.1/DTD/svg11.dtd">
<svg version="1.1" id="Layer_1" xmlns="http://www.w3.org/2000/svg" xmlns:xlink="http://www.w3.org/1999/xlink" x="0px" y="0px"
	 width="100px" height="100px" viewBox="0 0 100 100" enable-background="new 0 0 100 100" xml:space="preserve">
<g>
	<g>
		<path fill="#313073" d="M44.484,47.092c2.528-0.335,5.552-0.314,8.101,0.203c2.87,0.426,12.206,2.444,15.481,6.536
			c1.564,1.991-0.307,4.358-0.363,6.467c-8.484-2.234-10.774-2.388-15.838-3.01c-2.395-0.307-10.579,0.076-11.208,0.294
			c-3.743,0.614-7.368,1.802-11.02,2.71c-0.293-2.27-1.718-4.875,0-6.914C32.955,49.529,42.871,47.301,44.484,47.092z
			 M44.282,48.754c2.892,1.836,2.43,5.58-0.782,6.746c-1.69,1.006,6.438,0.252,10.928,0.914c1.845,0.273,8.975,1.223,12.068,2.103
			c0.167-0.545,1.033-2.13,0.51-3.491c-1.956-5.063-10.398-5.615-14.01-6.278C50.986,48.377,46.279,48.195,44.282,48.754z"/>
	</g>
	<g>
		<path fill="#CB2229" d="M48.046,20.039c-0.049-1.948-0.558-3.757,0.964-6.355c1.578,2.402,0.119,5.656,1.11,8.31
			c0.308,1.348,2.242,1.445,2.892,2.577c0.377,0.67,0.299,1.033-0.043,1.424c-0.168,0.188-0.328,0.67-0.433,0.894
			c-0.524,1.41-0.51,2.793,0.035,4.155c1.173,1.382-0.741,0.418-1.53,0.32c-1.445-0.363-2.89-0.363-4.336,0
			c-0.656,0.126-1.278,0.356-1.92,0.538c1.362-1.78,0.901-4.323,0.036-6.25c-0.518-1.878,2.15-2.305,2.981-3.667
			C48.284,21.471,48.067,20.675,48.046,20.039z"/>
		<g>
			<path fill="#CB2229" d="M40.881,34.983c1.857-1.347,4.043-2.402,6.327-2.688c1.285-0.16,2.158-0.153,3.323-0.014
				c7.5,0.915,12.123,8.54,13.275,15.432c-0.133,0.021-0.397,0.063-0.537,0.078c-1.432-3.66-2.424-7.724-5.412-10.482
				c-3.359-3.617-8.959-4.791-13.52-2.961c-0.74,0.244-0.649,1.068,0.412,0.782c1.516-0.405,3.191,0.649,3.924,2.046
				c1.021,1.948-2.562,5.517-5.614,7.444c0.524-0.028,1.055-0.063,1.585-0.104c1.984,0.035,3.988-0.042,5.978,0.027
				c2.801,0.098,5.531,0.971,8.192,1.851c-0.224,0.077-0.656,0.217-0.866,0.287c-1.271,0.055-4.763-0.761-5.294-0.817
				c-5.251-0.593-9.44,0.042-9.951,0.209c-3.177,1.062-6.584,1.348-9.524,3.059C35.316,44.208,36.154,38.398,40.881,34.983z"/>
		</g>
		<g>
			<path fill="#CB2229" d="M72.09,65.472c-0.162,3.185,0.293,7.814-3.457,9.253c-0.028-2.939,0.51-5.915,0.055-8.826
				c-0.25-0.225-0.809-0.588-1.424-0.434c-0.621,3.143-0.594,6.571-0.523,10.412c-0.412,0.481-1.312,0.762-2.214,0.914
				c-0.133-4.482,0.392-8.729-0.084-12.199c0.035-0.307-1.284-0.789-1.487-0.09c-0.266,4.314,0.07,8.645-0.14,12.96
				c-0.921,0.286-1.857,0.552-2.821,0.523c-0.377-4.812,0.649-9.817-0.308-14.538c-0.125-0.511-1.347-0.496-1.48,0.006
				c-0.607,4.916-0.146,9.889-0.278,14.826c-0.908,0.447-1.509,0.447-2.871,0.517c-0.299-5.224,0.538-10.628-0.307-15.761
				c-0.307-0.357-0.762-0.454-1.341-0.301c-0.992,4.615-0.161,10.797-0.427,16.055c-0.712-0.007-2.144-0.007-2.87-0.007
				c-0.224-5.245,0.426-10.573-0.265-15.769c0.063-0.949-1.592-0.943-1.927-0.384c-0.615,5.376-0.14,10.81-0.286,16.208
				c-0.308-0.056-1.746-0.217-2.807-0.455c-0.343-5.097,0.418-10.348-0.378-15.348c-0.335-0.797-1.117-0.755-1.466,0.006
				c-1.229,4.771-0.112,9.512-0.97,15.077c-0.74-0.21-1.459-0.454-2.172-0.69c-0.356-4.624,0.601-9.449-0.314-13.98
				c-0.132-0.503-1.348-0.496-1.48,0.006c-0.586,4.414-0.175,8.883-0.287,13.324c-1.041-0.027-1.948-0.565-2.856-0.992
				c-0.502-3.491-0.363-9.44-0.426-11.396c-0.307,0-0.915,0.007-1.222,0.007c-0.077,3.562,0.028,7.116-0.021,10.685
				c-0.852-0.378-1.698-0.782-2.451-1.32c-0.259-2.724,0.287-6.083-0.049-8.415c-0.475,0.141-0.964-0.328-1.327,0.168
				c-0.405,2.396-0.119,4.867-0.545,7.27c-2.724-1.257-3.68-3.932-3.854-6.719c3.227-5.439,10.014-6.724,16.131-7.031
				C54.484,58.369,68.346,60.667,72.09,65.472z"/>
		</g>
	</g>
	<g>
		<path fill="#313073" d="M21.88,59.424l0.266,0.07c-1.243,3.346-1.334,7.227,0.831,10.23c4.867,7.158,13.645,10.14,21.787,11.746
			c0.489,0.223,7.885,1.229,11.725,0.475c6.852-1.348,12.521-3.506,16.355-7.989c2.192-3.009,2.534-7.052,1.075-10.446
			c0.091-0.091,0.259-0.287,0.335-0.385c1.452,1.768,2.939,3.862,3.023,6.188c0.049,1.369,0.279,2.793-0.006,4.142
			c-1.216,5.845-9.023,11.431-16.411,12.66c-3.548,0.586-11.369,1.181-18.017,0.028c-6.613-1.152-13.038-3.918-18.149-8.27
			c-2.591-2.346-5-5.391-5.454-8.944C18.786,65.346,20.532,60.898,21.88,59.424z"/>
	</g>
</g>
</svg>
