<?xml version="1.0" encoding="utf-8"?>
<!-- Generator: Adobe Illustrator 18.1.0, SVG Export Plug-In . SVG Version: 6.00 Build 0)  -->
<svg version="1.1" id="Layer_1" xmlns="http://www.w3.org/2000/svg" xmlns:xlink="http://www.w3.org/1999/xlink" x="0px" y="0px"
	 viewBox="0 0 1500 1500" enable-background="new 0 0 1500 1500" xml:space="preserve">
<g>
	<path fill="none" d="M976.9,490.5c-4.7,1.1-9.3,2.1-13.7,3.2c-11.8,23.1-34.9,47.4-47.7,57c0,0,10.4-7.5,23.9-18.8
		C952.6,520.6,968,505.5,976.9,490.5z"/>
	<path fill="none" d="M997.1,717.1c-11.1,3.5-22.6,7.1-34.4,10.6C991.5,734.8,1012.3,727.1,997.1,717.1z"/>
	<path fill="#385988" d="M864.6,520.8c-1.5,0.8-2.2,2.7-1.4,4.2c0.8,1.5,2.7,2.2,4.2,1.4c0.6-0.3,29.5-14.8,80.3-28.6
		c1.2-2.6,2-5,2.5-7.2C896.1,505,865.2,520.5,864.6,520.8z"/>
	<path fill="#385988" d="M939.4,531.9c-13.5,11.3-23.9,18.8-23.9,18.8S926.4,543.2,939.4,531.9z"/>
	<path fill="#385988" d="M785.2,766.8c-1.7,0.4-2.8,2.1-2.4,3.7c0.4,1.7,2.1,2.8,3.7,2.4c34.1-7.5,66-15.2,96.1-23
		c-1.8-1.7-3.3-3.5-4.5-5.3C848.9,752.2,817.9,759.6,785.2,766.8z"/>
	<path fill="#385988" d="M997.1,717.1c-0.8-0.6-1.6-1.1-2.7-1.7c-1.7-0.9-3.3-1.9-4.7-2.8c-12.3,3.9-25.1,7.8-38.3,11.7
		c3.8,1.4,7.6,2.5,11.2,3.4C974.5,724.2,986,720.7,997.1,717.1z"/>
	<path fill="#385988" d="M786.3,360.1c18-16.2-5.4-18-5.4-18c-9-5.4-16.2,9-23.4,21.6C750.3,376.3,768.3,376.3,786.3,360.1z"/>
	<path fill="#385988" d="M214.6,418.5c-15.7,50.1-14.3,75.8-14.3,75.8l51.5-70.1l-27.2,78.7L269,470c0,0,22.4-62.4,97-127
		c-51.8,52.2-68.4,107-68.4,107C379.1,328.3,569.4,294,558,315.4c-11.4,21.5-42.9,34.4-100.2,38.6c-57.2,4.3-115.9,64.4-85.8,44.4
		c30-20.1,115.9-27.2,153.1-27.2c37.2,0,73-58.7,113-85.8c40.1-27.2,74.4-22.9,74.4-22.9s-90.1-42.9-233.2,8.6
		c-4.4,1.6-8.7,3.2-12.8,4.9c26.2-13.3,55.6-25.7,88.7-36.4c0,0-0.6-0.5-1.8-1.4c-8-6-42.5-28.8-108.4-30
		c-75.8-1.4-133.1,21.5-133.1,21.5l-10,8.6c0,0,54.4-12.9,104.5-7.1c0,0-94.4,2.9-147.4,48.6l-7.2,14.3c0,0,39.2-13.2,81.3-25.5
		c-26.8,10.1-55.4,25.8-77.6,49.8C202.6,375.5,202,397,202,397v10c0,0,79.3-91.6,133.7-104.4C335.7,302.6,230.3,368.4,214.6,418.5z
		 M469.4,294.7c103.8-48.6,173.7-23.8,173.7-23.8L626.4,282C559.9,272.3,507.9,281,469.4,294.7C443.2,307,414.9,323.9,385,347
		C385,347,412.2,315.2,469.4,294.7z"/>
	<path fill="#385988" d="M667.3,518.4c-57.6-5.4-68.4-62.9-68.4-62.9c-3.6,66.5,48.6,91.7,93.5,88.1c38.9-3.1,95.3,16.7,109.8,22
		c-8.1-3.2-28.9-12.7-48.6-31C728.5,511.2,777,468,777,468C750.1,457.2,724.9,523.8,667.3,518.4z"/>
	<path fill="#385988" d="M504.6,517.2c-41.9-54.9-51.1-124.5-51.1-124.5s-30,34.3,14.3,107.3c11,18.1,23.3,31.7,35.7,41.9
		c37.3,31,74.5,31,74.5,31C546.4,561.5,522.5,540.6,504.6,517.2z"/>
	<path fill="#385988" d="M508.4,567.4c-28.3-22.6-47.7-44.5-47.7-44.5s17.2,65.8,64.4,91.6c22.3,12.2,45.9,13.1,64.6,10.8
		c20.8-2.6,35.6-9.3,35.6-9.3C585.4,620.5,541,593.5,508.4,567.4z"/>
	<path fill="#385988" d="M802.3,565.6c2.2,0.9,3.5,1.3,3.5,1.3S804.5,566.4,802.3,565.6z"/>
	<path fill="#385988" d="M540.8,641.7c-19.5-8.5-24.5-12.9-25.5-14c4.6,5.2,70.7,77.7,95.6,19.7C611,647.4,563.7,651.7,540.8,641.7z
		"/>
	<path fill="#385988" d="M393.3,554.5c8-9.3,8.7-15.8,8.7-15.8S399.5,545.2,393.3,554.5z"/>
	<path fill="#385988" d="M935.8,822c0,0-1.3,1.1-3.2,3C934.9,823.3,935.8,822,935.8,822z"/>
	<path fill="#385988" d="M814.1,1075.3c0,0,11.5-2.9,41.5,14.3c30,17.2,47.2,47.2,47.2,47.2s21.5-34.3-1.4-61.5
		c-22.9-27.2-90.1-57.2-90.1-57.2s34.3,2.8,61.5,14.3c27.2,11.4,31.5,24.3,31.5,24.3s25.8-15.7-17.2-42.9
		c-42.9-27.2-91.6-34.3-91.6-34.3s78.7,2.8,105.9,30c0,0,1.4-14.3-12.9-35.8c-7.7-11.6-25.8-19-40.8-23.3
		c13.2,1.2,28.5-0.8,36.5-13.9c15.7-25.8,17.2-40.1,17.2-40.1s-7.1,11.4-37.2,11.4c-30.1,0-47.2-5.7-47.2-5.7s53,0,67.2-8.6
		c14.3-8.6,28.6-34.3,28.6-34.3s-57.2,22.9-83,7.2c0,0,63,0,77.3-15.8c10.2-11.3,20.4-21,25.4-25.6c-5.2,3.7-17.5,9.4-44,8.5
		c-38.6-1.4-50.1-8.6-50.1-8.6s44.4,8.6,65.8-1.4c21.1-9.8,84.7-32,92.5-32.9c-7,0.4-65.7,2.2-108.2-2.9
		c-47.2-5.7-98.8,12.9-98.8,12.9s18.6,5.7,14.3,61.5c-4.3,55.8-34.3,115.9-61.5,133.1c-27.2,17.2-42.9-10-42.9-30.1
		c0-20-57.2-34.3-75.8-34.3l4.3,1.4c0,0,54.4,17.2,58.7,83c4.3,65.8,110.2,113,154.5,138.8c44.4,25.7,40.1,40,40.1,40
		s20-12.9,7.2-45.8C875.7,1115.3,814.1,1075.3,814.1,1075.3z"/>
	<path fill="#385988" d="M630.2,1129c-218.1,112.9-389.9,96.4-463.4,29.9c-35.6-32.2-46.8-74.1-30.6-115
		c49.2-124.4,285.9-160.9,288.3-161.2c1.7-0.3,2.9-1.8,2.7-3.6c-0.3-1.7-1.9-2.9-3.6-2.7c-9.9,1.5-242.7,37.3-293.2,165.1
		c-17.2,43.5-5.4,87.9,32.2,122c69.6,62.9,234.6,93.1,470.5-29c1.5-0.8,2.1-2.7,1.3-4.2C633.6,1128.8,631.7,1128.2,630.2,1129z"/>
	<path fill="#385988" d="M291.9,618.8c58.4-11.7,88.3-44.5,101.5-64.3c-9.2,10.6-28.1,24.9-67.1,37.1c-73,22.9-98.7-5.7-98.7-5.7
		s37.2,24.3,85.8,2.9c48.7-21.5,81.6-64.4,81.6-64.4s-28.6,37.2-81.6,42.9c-52.9,5.7-75.8-12.9-75.8-12.9s53,10,83-10
		c30-20,42.9-42.9,42.9-42.9s-24.3,35.8-64.4,34.3c-40.1-1.4-45.8-1.4-45.8-1.4s84.4-61.5,117.3-61.5c32.9,0,58.7,54.4,58.7,54.4
		s-1.4-50.1,10-78.7c0,0-71.5-27.2-151.7,31.5c-80.1,58.7-138.8,65.8-138.8,65.8S206,636,291.9,618.8z"/>
	<path fill="#385988" d="M997.3,790.5c-0.1,0-0.4,0.1-0.5,0.1C997.5,790.5,997.9,790.5,997.3,790.5z"/>
	<path fill="#385988" d="M486.5,884.6c72.3,24.1,141.6,36.1,141.6,36.1C601.6,904.2,548.2,898.6,486.5,884.6z"/>
	<path fill="#385988" d="M452.8,872.5c-6.5-1.8-14.1-4.7-22.2-9.1c-49.9-21.9-92.5-49.9-102.9-84.3C299,684.6,359.1,626,383.4,594.5
		c24.3-31.5-111.6,64.4-133.1,30c0,0-14.3,145.9,95.9,208.9c46.4,26.5,95.5,41,140.3,51.2C475.3,880.9,463.9,876.8,452.8,872.5z"/>
	<path fill="#385988" d="M779.8,919.3c15.7-10,28.6-97.3,1.4-107.3c-27.2-10-27.2,8.6-83-8.6c-55.8-17.2-68.7-60.1-68.7-60.1
		s-21.5-25.8-55.8-21.5c0,0-70.1-20-111.6,41.5c-41.5,61.5,51.5,118.8,148.8,134.5c97.3,15.7,107.3,47.2,103,68.7
		c-4.3,21.5,22.9,32.9,50.1-1.4c27.2-34.3-11.4-42.9-93-80.1c-35.3-16.1-62.3-32.7-81.2-46c22.1,13.9,53.8,29.8,91.2,37.4
		C751.2,890.7,764.1,929.3,779.8,919.3z"/>
	<path fill="#385988" d="M550.4,511.2c46.8,77.3,147.5,41.3,147.5,41.3s-55.8,18-97.1-27c-41.4-45-3.6-151.1,48.6-181.7
		c52.2-30.6-34.2,37.8-37.8,68.4c-3.6,30.6,59.4,16.2,59.4,16.2s61.1-21.6,68.3-41.4c7.2-19.8,9-66.5,55.8-64.7
		c1.5,0.1,2.8,0.2,4.1,0.3c3.3,1,6.7,2.1,10.3,3.1c19.5,11.7-18.3,49.8-41.4,55.9c-27,7.2,25.2,28.8,61.2,10.8
		c35.9-18,50.3-12.6,16.2,12.6c-34.2,25.2-77.3,84.5-59.3,84.5c18,0,77.3-73.7,156.5-82.7c74.8-8.5,88.5,16.8,56.4,72.7
		c-3.9,0.7-7.7,1.5-11.4,2.3c11.8-17.5,16.5-34.6,3.6-46.2c-37.8-34.2-113.3,10.8-113.3,10.8s88.1-21.6,104.3,12.6
		c3.4,7.3,2.4,15.6-1.4,24.3c-4.9,1.1-9.5,2.1-14.1,3.2c-1,2.4-2.1,4.8-3.3,7.3c4.4-1.1,9-2.2,13.7-3.2c-8.9,15-24.3,30.1-37.5,41.4
		c13.6-11.4,30.3-26.8,42.5-42.5c4.1-0.9,8.3-1.8,12.6-2.6c-0.6,0.9-1.1,1.8-1.7,2.8c-37,58.9-88.2,78.4-90.2,86.6
		C818.1,540.8,784.2,504,784.2,504c5.4,62.9,174.5,125.9,160.1,134.9c-14.4,9-143.9-37.8-154.7-37.8c-10.8,0-54,30.6-106.1,36
		c-52.1,5.4-70.1,27-7.2,39.6c62.9,12.6,95.3-36,111.5-37.8c16.2-1.8-50.4,59.4-170.9,50.4c-120.5-9-183.4-147.5-183.4-142.1
		c0,5.4,37.8,133.1,142.1,163.7c104.3,30.6,181.7-16.2,201.4-32.4c19.8-16.2,71.9,14.4,142.1,3.6c70.1-10.8,106.1-59.3,5.4-97.1
		c-6.2-2.3-12.1-4.6-17.8-7c14.6-4.5,64.8-48.9,109.5-91.9c1.3-1.3,2.5-2.5,3.8-3.8c44.6-7.2,97.7-11.6,157.3-8.8
		c62.4,2.9,102.8,23.5,105.4,53.6c4,47.1-78.9,113.8-266,176.8c2.6,1.5,5.3,2.8,8.3,4.1c196.4-66.8,267.9-135.4,264-181.5
		c-2.9-34-44.6-56.2-111.4-59.3c-56.8-2.7-107.6,1.1-151.1,7.7c39.4-47.3,31.6-105.9-73.3-85.9l19.8-18c0,0,1.8-23.4-73.7-55.8
		c-75.5-32.4-124.1-27-124.1-27l-0.9,2.2c-10.9-9.9-37-25.9-83.7-13C626,295.3,503.7,433.8,550.4,511.2z M743.4,306.2
		c0,0,10.5-3.6,27.3-6.1c4-0.6,8.4-1.2,13.1-1.6c35.5-3.2,88.7,0.7,136,39.3c0,0-51-34.6-113.3-29.8c-0.6,0-1.2,0-1.8,0.1
		c-14.5,1.3-26.7,2.7-37.1,4c-35,4.6-48.3,9-48.3,9s-13-18.6-39-11.1l24.1-16.7L743.4,306.2z"/>
	<path fill="#00A8DE" d="M340.9,1001.3c0,0-56.4,8.9-44.5,23.7c11.9,14.8,89,3,53.4-20.8L340.9,1001.3z"/>
	<path fill="#00A8DE" d="M1224,727.1c-10.7,7.1-5.3,17.8,12.5,5.4c17.8-12.5,23.2-42.8,23.2-42.8S1234.7,719.9,1224,727.1z"/>
	<path fill="#00A8DE" d="M812.6,1203c-47.5-26.7-5.9-47.5,26.7-8.9c32.6,38.6,17.8-20.8-50.4-59.3
		c-68.2-38.6-112.7-41.5-121.6-100.9l3-14.8c0,0-50.4-77.1-136.5-94.9c-86-17.8-41.5,17.8,0,32.6c41.5,14.8,65.3,47.5-41.5,17.8
		c-106.8-29.7-100.9,38.6-59.3,41.5c41.5,3,186.9-17.8,213.6,26.7c26.7,44.5-86-5.9-142.4,20.8c-56.4,26.7-8.9,59.3,35.6,32.6
		c44.5-26.7,109.7-23.7,154.3,14.8c44.5,38.6-5.9,17.8-26.7,35.6c-20.8,17.8-29.7,14.8,47.5,29.7C791.8,1191.1,869,1289,869,1289
		S860.1,1229.7,812.6,1203z"/>
	<path fill="#00A8DE" d="M1014.1,702.4c-27.7-16.9-45.2-3.5-24.4,10.3c1.4,0.9,3,1.8,4.7,2.8c1.1,0.6,1.8,1.1,2.7,1.7
		c15.2,10-5.6,17.7-34.4,10.6c-3.6-0.9-7.4-2-11.2-3.4c-7.9-2.9-16.2-6.8-24.2-12.2c-36.7-24.4-67.6,6.3-49.1,32.4
		c1.3,1.8,2.8,3.6,4.5,5.3c3.5,3.5,7.8,6.8,13.4,9.7c49.2,26.2,104.9,13.1,104.9,13.1s101.6-4.9,68.8-4.9
		c-32.8,0-80.3-19.7-27.9-19.7c52.4,0,59-22.9,59-22.9s-45.1-3.9-75.9-17.4c-2.9-1.3-5.7-2.6-8.3-4.1
		C1015.9,703.3,1015,702.9,1014.1,702.4z"/>
	<path fill="#00A8DE" d="M1207.9,960.9c-96.4,71.4-116,69.6-164.2,76.7c-48.2,7.1-51.8-3.6,35.7-35.7c87.5-32.1,66-42.8-10.7-21.4
		c-76.7,21.4-92.8-14.3-3.6-33.9c89.2-19.6,110.7-53.5,132.1-82.1c21.4-28.5-19.6,14.3-71.4,42.8c-51.8,28.6-149.9,16.1-21.4-25
		c128.5-41.1,208.8-132.1,212.4-164.2c3.6-32.1-23.2,44.6-123.1,108.9s-217.8,30.3-133.9,16.1c83.9-14.3,144.6-91,144.6-91
		s-30.3,23.2-94.6,57.1s-155.3,10.7-155.3,10.7c-16.1,0-26.8,35.7,17.9,37.5c44.6,1.8,67.8,26.8,30.3,32.1
		c-37.5,5.4-58.9,16-25,17.8c33.9,1.8,23.2,25-14.3,48.2c-37.5,23.2-44.6,73.2,3.6,78.5c48.2,5.4,28.6,28.6,5.4,44.6
		c-23.2,16.1-41.1,32.1,12.5,28.6c53.5-3.6,26.8,32.1-48.2,42.8c-75,10.7-41.1,33.9,12.5,32.1c53.5-1.8,26.8,8.9,1.8,14.3
		c-25,5.4-35.7,19.6,5.3,17.9c41.1-1.8,114.2-21.4,142.8-41.1c28.6-19.6,12.5-12.5-46.4,5.4c-58.9,17.8-87.5-5.4-25-19.6
		c62.5-14.3,101.7-50,132.1-71.4c30.3-21.4-28.6,8.9-69.6,17.8c-41,8.9-75,0,28.6-28.6c103.5-28.6,164.2-116,132.1-94.6
		c-32.1,21.4-91,39.3-21.4-12.5c69.6-51.8,83.9-82.1,83.9-94.6C1313.2,862.7,1304.3,889.5,1207.9,960.9z"/>
	<path fill="#00A8DE" d="M1207.9,1092.9c25-16.1,50-62.5,50-62.5C1207.9,1098.3,1182.9,1109,1207.9,1092.9z"/>
	<path fill="#00A8DE" d="M1329.3,787.7c-4.6,7.4-23.8,34.7-45.1,60.9C1313.6,820.1,1329.3,787.7,1329.3,787.7z"/>
	<path fill="#00A8DE" d="M719.2,321c0,0,13.3-4.4,48.3-9c10.4-1.4,22.6-2.7,37.1-4c0.6-0.1,1.2-0.1,1.8-0.1
		c62.3-4.8,113.3,29.8,113.3,29.8c-47.3-38.5-100.5-42.5-136-39.3c-4.7,0.4-9.1,1-13.1,1.6c-16.8,2.6-27.3,6.1-27.3,6.1l-39-13
		l-24.1,16.7C706.3,302.5,719.2,321,719.2,321z"/>
	<path fill="#00A8DE" d="M1345.6,680.3c9.8-2.5,21.2-31.6,27.5-49.8C1363.5,643,1333.5,683.3,1345.6,680.3z"/>
	<path fill="#00A8DE" d="M815.8,735.1c0,0-49.2-18-55.7,0C753.5,753.1,837.1,753.2,815.8,735.1z"/>
	<path fill="#00A8DE" d="M1373.1,630.4c1.7-2.3,2.9-3.8,2.9-3.8l1.8-10.7C1377.7,616,1376,622.1,1373.1,630.4z"/>
	<path fill="#00A8DE" d="M385,347c29.9-23.2,58.2-40,84.4-52.3C412.2,315.2,385,347,385,347z"/>
	<path fill="#00A8DE" d="M406.2,933c5.9,11.9,29.7-8.9,29.7-8.9S400.3,921.2,406.2,933z"/>
	<path fill="#00A8DE" d="M1229.3,902c13.7-6,35.2-29.2,54.8-53.3c-7.8,7.6-16.5,14.9-26.2,21.2
		C1211.5,900.2,1200.8,914.5,1229.3,902z"/>
	<path fill="#00A8DE" d="M626.4,282l16.7-11.1c0,0-69.9-24.8-173.7,23.8C507.9,281,559.9,272.3,626.4,282z"/>
	<path fill="#FBD9DB" d="M470.8,875.6c-20.1-6.2-37.5-13-52.7-20.5c4.2,3.3,8.4,5.9,12.5,8.2c8.1,4.5,15.7,7.4,22.2,9.1
		C463.4,875.4,470.8,875.6,470.8,875.6z"/>
	<path fill="#FBD9DB" d="M379.1,795c-23.5-79.4,54.8-146.5,54.8-146.5s-21.3-50.3-39.1-47c-16.5,3.1-154.5,166.6,23.3,253.6
		C402.7,843.3,387.8,824.6,379.1,795z"/>
	<path fill="#FBD9DB" d="M504.6,517.2c17.9,23.4,41.7,44.3,73.4,55.8c0,0-37.2,0-74.5-31c0.5,9.4,2.2,17.9,4.9,25.4
		c32.6,26.1,77,53.1,116.9,48.5c0,0-14.8,6.7-35.6,9.3c2.8,0.7,5.7,1.4,8.6,2c82.8,17.9,140.9-29.1,156.6-34.7
		c15.7-5.6,107.4,15.7,107.4,15.7s-43.6-26.8-53.7-33.6c-10.1-6.7-97.3-20.1-97.3-20.1l-34.7,15.7c0,0-60.4,21.2-109.6-7.8
		c-49.2-29.1-40.3-119.7-40.3-119.7C514.5,471.9,507.4,496.4,504.6,517.2z"/>
	<path fill="#FBD9DB" d="M963.2,493.7c1.2-2.4,2.4-4.9,3.3-7.3c7.9-19.6,5.7-37-20.4-42.3c-59.7-11.9-133.3,55.7-133.3,55.7l-6,8
		c0,0,39.8,33.8,53.7,35.8c13.9,2,43.8-19.9,43.8-19.9s-35.8,10-53.7,8c-17.9-2,63.6-55.7,93.5-51.7c5.9,0.8,7.3,4.8,6.1,10.6
		c-0.5,2.2-1.3,4.6-2.5,7.2c-11.3,25.2-50.4,66.6-32.2,52.9C928.3,541.2,951.4,516.9,963.2,493.7z"/>
</g>
</svg>
