<?xml version="1.0" encoding="utf-8"?>
<!-- Generator: Adobe Illustrator 18.1.0, SVG Export Plug-In . SVG Version: 6.00 Build 0)  -->
<svg version="1.0" id="Layer_1" xmlns="http://www.w3.org/2000/svg" xmlns:xlink="http://www.w3.org/1999/xlink" x="0px" y="0px"
	 viewBox="0 0 150 150" enable-background="new 0 0 150 150" xml:space="preserve">
<path fill="#9DD6C9" d="M96,16.4c0,0,0-0.1,0.1-0.1c-0.2,0.2-0.3,0.3-0.5,0.5C95.8,16.7,95.9,16.6,96,16.4z"/>
<g>
	<radialGradient id="SVGID_1_" cx="39.0619" cy="93.9923" r="41.6503" gradientUnits="userSpaceOnUse">
		<stop  offset="0" style="stop-color:#4262AA"/>
		<stop  offset="0.9466" style="stop-color:#204896"/>
		<stop  offset="1" style="stop-color:#1E4795"/>
	</radialGradient>
	<path fill="url(#SVGID_1_)" d="M5.8,78.3c0,0,62.2,26,66.4-32.9c0,0,4.2,77.6-55.3,97.2C17,142.6,54.2,106.5,5.8,78.3z"/>
	<radialGradient id="SVGID_2_" cx="42.4584" cy="65.8641" r="11.8382" gradientUnits="userSpaceOnUse">
		<stop  offset="0" style="stop-color:#4262AA"/>
		<stop  offset="0.9466" style="stop-color:#204896"/>
		<stop  offset="1" style="stop-color:#1E4795"/>
	</radialGradient>
	<path fill="url(#SVGID_2_)" d="M53.7,65.9c0,6.9-5,12.4-11.2,12.4c-6.2,0-11.3-5.6-11.3-12.4c0-6.8,5-12.4,11.3-12.4
		C48.7,53.5,53.7,59,53.7,65.9z"/>
	<radialGradient id="SVGID_3_" cx="109.9123" cy="91.5157" r="41.6498" gradientUnits="userSpaceOnUse">
		<stop  offset="0" style="stop-color:#4262AA"/>
		<stop  offset="0.9466" style="stop-color:#204896"/>
		<stop  offset="1" style="stop-color:#1E4795"/>
	</radialGradient>
	<path fill="url(#SVGID_3_)" d="M143.2,75.8c0,0-62.2,26-66.4-32.9c0,0-4.2,77.6,55.3,97.2C132,140.1,94.8,104,143.2,75.8z"/>
	<radialGradient id="SVGID_4_" cx="106.5171" cy="61.6161" r="11.8368" gradientUnits="userSpaceOnUse">
		<stop  offset="0" style="stop-color:#4262AA"/>
		<stop  offset="0.9466" style="stop-color:#204896"/>
		<stop  offset="1" style="stop-color:#1E4795"/>
	</radialGradient>
	<path fill="url(#SVGID_4_)" d="M95.3,61.6c0,6.9,5,12.4,11.2,12.4c6.2,0,11.2-5.5,11.2-12.4s-5-12.4-11.2-12.4
		C100.3,49.2,95.3,54.8,95.3,61.6z"/>
	<path fill="#BBBCBE" d="M19,143.9c0,0,48.7-17,111.8,0.3c0,0-56.3-11.7-55.6-98.1c0,0,0.9,85.1-56.3,97.1"/>
	<polygon fill="#EA2D3C" points="63.4,24.3 64.5,26.4 66.8,26.8 65.1,28.4 65.5,30.7 63.4,29.6 61.4,30.7 61.8,28.4 60.1,26.8 
		62.4,26.4 	"/>
	<polygon fill="#EA2D3C" points="79.1,21 74,17.5 69.1,21.2 70.9,15.3 65.9,11.8 72.1,11.7 73.9,5.8 75.8,11.6 82,11.5 77.1,15.2 	
		"/>
	<radialGradient id="SVGID_5_" cx="90.0741" cy="24.217" r="6.4127" gradientUnits="userSpaceOnUse">
		<stop  offset="0" style="stop-color:#4262AA"/>
		<stop  offset="0.9466" style="stop-color:#204896"/>
		<stop  offset="1" style="stop-color:#1E4795"/>
	</radialGradient>
	<polygon fill="url(#SVGID_5_)" points="94.2,30.4 90.1,27.5 86.1,30.5 87.6,25.7 83.5,22.8 88.5,22.7 90,18 91.6,22.7 96.6,22.6 
		92.6,25.6 	"/>
</g>
</svg>
