<?xml version="1.0" encoding="utf-8"?>
<!-- Generator: Adobe Illustrator 18.1.0, SVG Export Plug-In . SVG Version: 6.00 Build 0)  -->
<svg version="1.1" id="Layer_1" xmlns="http://www.w3.org/2000/svg" xmlns:xlink="http://www.w3.org/1999/xlink" x="0px" y="0px"
	 viewBox="0 0 150 150" enable-background="new 0 0 150 150" xml:space="preserve">
<g>
	<path fill="none" d="M119.7,95.2L119.7,95.2c0.1-0.2,0.2-0.3,0.4-0.4c0,0,0,0,0,0c0-0.1,0-0.2,0-0.3c0,0-0.1,0-0.1,0
		C120,94.7,119.9,95,119.7,95.2z"/>
	<path fill="none" d="M64,96.9v-5.2c0-3.7-2.6-4.6-2.6-4.6h-4.9c-0.1,0-0.3,0-0.4,1h3.7c0,0,3.2,0.3,3.2,3.4V98H52.4
		c-0.2,0-0.4,0.7-0.6,1.2c5.3,0,9.7-0.1,11.8-0.1L64,96.9z"/>
	<path fill="none" d="M43,85h1v-2.6c0,0,1.4-1,2.3-0.7c0.5,0.7,0.7,2,0.7,2l1.4,0.9L47,74h-7v14h3V85z"/>
	<path fill="none" d="M118.9,93.4l0.1,0.3c0.2,0,0.3-0.1,0.5,0c0-0.1,0-0.1,0-0.2C119.3,93.5,119,93.5,118.9,93.4z"/>
	<path fill="none" d="M120.9,92C120.9,92,120.9,92,120.9,92c0,0.1,0,0.2,0,0.2C120.9,92.1,120.9,92,120.9,92z"/>
	<path fill="none" d="M29.7,84.8l0.8-7.2L29.8,76H35v12.4c1,0.1,0.7,0.2,0.7,0.2c0,0,0.3,0,0.3,0V75h-6.8l-1.3,7.9
		C28.2,83.3,29,84,29.7,84.8z"/>
	<path fill="#655B58" d="M140.8,98.1c-0.4-8.3-6.8-10.3-7-10.4l-5.1-1.8c-3-8.1-10.7-29.1-10.7-29.5c0-0.4,0-2,0-2
		c0-1.9-1.9-3.1-2.1-3.2l-0.2-0.1l-0.2,0c-11.4-4.8-13.9-5.8-14.7-6c0.1,0,0.1,0,0.1,0c-3-1.1-5.2,0.8-5.9,2l-0.3,0.7l0.6,4.4h-2.1
		l-41-16.8c-15-6.4-16.7,9.3-16.7,9.3l-2.8,24.7l1.4-0.2h-9.4c-0.5,3,1.2,4.1,1.2,4.1l-1.4,7.4c-2.2-0.9-4.1-0.5-4.6-0.5
		c-0.1,0-5,0-5,0c-1.9,0-3.3,0.7-4.3,1.8c-1.2,1.3-1.6,2.9-1.6,3.7c0,0.1-0.2,0.2-0.2,0.2V98h9.8l-1.3,4h1.6l1.6-4h13.5l0.5,1.1
		c-3.2,0-5.4,0.1-5.5,0.2c-3.3,0.2-4.4,2.7-4.4,2.7h31.9l0.5,0.4l-5,0.6H60v2h-6l0,0h7v1h-1.9h-3.5l3.3,1.7v0.1l1,0.7v1.5h0.3
		l-0.3,0.9c0,0,0.7,0.1,1.4-0.9h2.4c1,1,2,1.7,2,1.7l3.5-0.1l4.2-0.5h3.1l4.9,0.6l9.1-0.3l2.8-0.3h3.8l3.5-0.7
		c0.5-0.5,1.3-0.8,1.8-0.4l4.8-1.1l-0.7-3.8l3.5-2.6l0.3-4.5c0,0-0.3-2.2,1-2.2c1.4,0,5.2-2.2,5.2-2.2l1-1l1.4-2.5h1.8
		c0,1,0,0.9,0,1.1c0,0-0.2,0.1-0.2,0.1c0,0.2,0.1,0.5,0.2,0.8c0,0,0.1,0,0.1-0.1c0,0.1,0,0.2,0,0.2c0-0.1-0.1-0.1-0.1-0.2
		c-0.1,0.1-0.2,0.3-0.3,0.4c0.2-0.1,0.3,0,0.5,0l1.1-0.7c0.4,0.7-0.3,1.4-0.3,1.5V94l-0.1-0.1c0,0.1-0.1,0.2,0,0.3l0,0l0.1-0.1
		c0,0,0,0,0,0l0.2,0c-0.1,0.4,0.1,0.6-0.4,0.8c0,0,0,0-0.1,0c0,0.3-0.2,0.5-0.3,0.8c0.2,0,0.6,0,0.6,0v0.7c0,1.2-1,1.1-1.4,0.6
		c-0.3,0-0.6-0.1-0.9-0.3l-0.2,0.2c0,0.2,0.1,0.4,0.1,0.6l0.4-0.2c0.1,0.1,0.1,0.1,0.2,0.2c0.1-0.1,0.2-0.2,0.4-0.3l0.2,0.2
		c0.2,0.2,0.4,0.2,0.4,0.5c0.3-0.4,0.7-0.6,1.2-0.7l0.2,0.4c0.5,0.5,0.8,1.3,0.2,1.8c-0.6-0.4-1.2-0.8-1.9-1.1
		c0-0.1,0.1-0.1,0.1-0.2c-0.1,0-0.2,0-0.3,0c0.2,0.5,0.1,1-0.3,1.2l0.1,0.1c0.1,0.1,0.3,0,0.5,0c-0.3,0.6-0.4,0.6-1.2,0.5
		c0-0.2,0-0.3,0-0.4c-0.3,0.1-0.6,0.1-0.9,0c-0.1-0.2-0.1-0.5-0.1-0.7c-0.4,0.2-0.8,0.2-1.1-0.1c-0.2,0.1-0.3,0.2-0.2,0.8
		c0.1,0,0.2,0.3,0.3,0.3c0,0.5,0.3,1.3,0.6,1.3h-1.3c-0.5,0-0.9-0.1-1,0.3l-0.4-0.2c-0.1,1.2,0.3,2,1.1,0.8c0.1,0,0.3,0,0.4-0.1
		c0.1,0.3,0.2,0.5,0.5,0.7c0.3-0.4,0.3-0.9,0.4-1.3c0.1-0.2,0.3-0.3,0.4-0.6c0.5,0.2,1.1,0.2,1.7,0c0.2,0.1,0.4,0.3,0.6,0.3h-1.9
		l-0.3,2h-0.7c0.7,2-1.5,1.7-1.4,0.2c0.2,0,0.3-0.2,0.5-0.2h-1.2l-1-0.4l-2.4-0.4l-0.3-3l-1.4,5.2l-1.4,1.5l0.7,4.4l1,1.8h2.4h2.4
		l3.3,0v1.9l17.1-4.7l0-0.1C138.5,108,141.2,105.1,140.8,98.1z M112.4,108.5c-0.3,0-0.1-0.2-0.2-0.4l0.3-0.4
		C112.6,108.1,112.6,108.2,112.4,108.5z M115,107.5C115,107.5,115,107.6,115,107.5c0,0.1,0,0.2,0,0.4
		C114.7,107.7,114.9,107.7,115,107.5c0,0,0-0.1,0-0.2V107.5z M121.8,90.4c0.1-0.3,0.3-0.9,0.5-1.2l0.5,0.2c0.1,0.3,0.3,0.7,0.1,1.1
		C122.6,90.6,122.1,90.6,121.8,90.4z M11.9,85.5c0-0.4,0-1.1,0.7-1.8C13.2,83,14,83,15.1,83h5h0.1l0.1-0.4c0.1,0,3.3-0.6,5.8,1.8
		l4.6,4.7l0.2,0l4.4,1.6c0.2,0.1,3.2,1.2,3.9,4.2c-1.7,0-26,0-27,0c0-1,0-9.4,0-9.4C12,85.6,11.9,85.6,11.9,85.5z M40,88V74h7
		l1.5,10.5l-1.3-0.8c0,0-0.5-1.3-0.9-2c-0.9-0.2-2.3,0.7-2.3,0.7V85h-1v3H40z M97.2,48c0.4-0.4,1.3-1.3,2.9-0.8
		c0.6,0.2,8.7,3.6,14.2,5.9c0.1,0.1,0.7,0.6,0.7,1.2v2.4c0,0,7.9,21.2,10.8,29.1l-0.6-0.2L99.7,48.8l-2.2,0.2l0,0.1
		C97.3,48.6,97.2,48.2,97.2,48z M124.6,89.4c-0.2,0-0.3,0-0.5,0c-0.1-0.4,0.1-0.7,0.2-0.9l0.2,0.4C124.4,89,124.7,89.1,124.6,89.4z
		 M124.4,89.4c0,0.3-0.1,0.5-0.3,0.6L124.4,89.4z M97.6,54l0.4,0c1.8,0.3,2,2.5,2,3.4c0,2.3-2.6,2.5-2.9,2.5H97l-14.4,2.1l-9.9,1.5
		c-2.6,0.4-3.9,0.6-4.5,0.8c0,0,0.1-0.1,0.1-0.1c-4.9,0.6-7.3,5.5-7.4,5.7c0,0-7.1,17.7-8.8,22c-0.6-4.4-2.8-19.8-2.9-20.2
		c0.3-0.4,5.8-10.1,5.8-10.1C59,54.1,65.5,54,65.8,54H97.6z M124,105v-2h1v-3h-1v-3h2v-3h-2v-3h2v-3.4c3,1,6.9,2.3,6.9,2.3
		c0.2,0.1,5.2,1.7,5.5,8.3c0,0.4,0.1,0.8,0.1,1.1c0,3.9-1,6.5-3.4,7.7c-0.2,0.1-12,3.4-14,3.8c0-0.5,0-0.8,0-1
		c1-0.4,2.5-1.8,2.5-1.8l0.5-0.2c0,0,0,0,0,0l1-1.9V105H124z M121.5,100.6c-0.1-0.4,0.1-0.5,0.2-0.7l0.5,0.4
		C121.9,100.4,121.9,100.7,121.5,100.6z M36,75v13.7c0,0-0.2,0-0.3,0c0,0,0.3-0.1-0.7-0.2V76h-5.2l0.7,1.6l-0.8,7.2
		c-0.8-0.8-1.5-1.5-1.9-1.8l1.3-7.9H36z M51.8,99.2c0.2-0.4,0.4-1.2,0.6-1.2H63v-6.6c0-3.2-3.2-3.4-3.2-3.4h-3.7c0.1-1,0.3-1,0.4-1
		h4.9c0,0,2.6,0.9,2.6,4.6v5.2l-0.4,2.2C61.5,99.1,57.1,99.2,51.8,99.2z M58.8,101l-0.2-1h5.9c3.1,0,4.5,1.8,4.5,4.4
		c0.2,5.1-2.8,4.6-2.8,4.6H64v-0.3c3,0,3.4-2.1,3.2-4.8c-0.2-2.6-1.8-2.9-1.8-2.9H58.8z M100.7,108.3c-0.2-0.2,0.1-0.2,0-0.4
		l0.7-0.2C101.2,108.1,101.3,108.4,100.7,108.3z M105.6,107.9c-0.3,0-0.6,0.1-0.8,0c0-0.4,0.2-0.5,0.5-0.7l0.3,0.2
		C105.6,107.5,105.6,107.7,105.6,107.9z M108.1,101.6l1-0.4c0.1,0.2,0.3,0.1,0.4,0.4C109,102.1,108.5,102.1,108.1,101.6z
		 M112.2,92.9l1,0.4C113.4,95.8,109.7,93.8,112.2,92.9z M114.3,88.1l0.2-0.2C114.5,88,114.5,88.1,114.3,88.1z M115.7,93.2
		c-0.3,0.1-0.5,0.1-0.8,0c0.1-0.3,0.3-0.6,0.5-0.9h0.3C115.7,92.7,115.7,93,115.7,93.2z M116.8,92.2c0-0.2,0-0.4,0-0.5l1-0.6
		C118.6,91.9,117.7,92.5,116.8,92.2z M120.1,89.4c-0.1-0.3,0-0.3,0.1-0.5l0.2,0.4C120.3,89.3,120.4,89.5,120.1,89.4z M122.7,93.5
		c-0.1,0.1,0,0.4,0,0.5c-0.2,0-0.3,0.1-0.5,0c0.1-0.5,0.4-0.6,0.7-0.9L122.7,93.5z M122.5,91.6l0.3,0.9
		C122.5,92.4,122.4,92,122.5,91.6z M123,95.6c0.1-0.3,0.2-0.1,0.4-0.2v0.4C123.2,95.7,123.1,95.9,123,95.6z M122.5,106.6
		c-0.2,0-0.3,0-0.5,0c-0.1-0.3,0.1-0.5,0.3-0.7L122.5,106.6z M120.8,104.5l-0.2,0.7c0.2,0.1,0.4,0,0.5,0.4c-0.4,0.3-0.4,0.4-1,0.3
		C120.2,105.6,120.5,105,120.8,104.5z M118.8,103h0.3c1.8,1,0.5,2.8-1.2,2.2C117.9,104.3,118.4,104,118.8,103z"/>
	<path fill="#FFB602" enable-background="new    " d="M39,95c-0.7-3-3.7-4.1-3.9-4.2l-4.4-1.6l-0.2-0.1L26,84.3
		c-2.5-2.5-5.6-1.7-5.8-1.7L20.2,83h-0.1h-5c-1.1,0-2,0-2.5,0.6c-0.7,0.8-0.7,1.6-0.7,2c0,0.1,0.1,0,0.1,0c0,0,0,8.4,0,9.4
		C13,95,37.3,95,39,95z"/>
	<path fill="#FFB602" enable-background="new    " d="M99.7,48.8l25.6,36.8l0.6,0.2C122.9,78,115,56.8,115,56.8v-2.4
		c0-0.6-0.6-1.1-0.7-1.2c-5.5-2.3-13.7-5.8-14.3-5.9c-1.6-0.6-2.5,0.3-2.9,0.8c0,0.2,0.1,0.5,0.2,1l0.1-0.1L99.7,48.8z"/>
	<path fill="#FFB602" enable-background="new    " d="M54.9,61.7c0,0-5.5,9.6-5.8,10.1c0.1,0.5,2.2,15.8,2.9,20.2
		c1.7-4.3,8.8-22,8.8-22c0.1-0.2,2.5-5.1,7.4-5.7c0,0-0.1,0.1-0.1,0.1c0.6-0.2,1.9-0.4,4.5-0.8l9.9-1.4L97,60h0.1
		c0.3,0,2.9-0.2,2.9-2.5c0-0.9-0.2-3.1-2-3.4L97.6,54H65.8C65.5,54,59,54.1,54.9,61.7z M64,61.9v2.4c0,0-1.6,1.5-3.5,4.9L53,87.7
		l-1.1-6.4l8.5-17.4c0,0,1.4-2.8,4.3-3.4c0,0,0.1,0,0.1,0c0,0,0.1,0,0.1,0C64.6,60.7,64,61.9,64,61.9z M67,63.4l-0.5-3.2L97.6,57
		c0,0,0.9-0.7,0.7-1.5c-0.2-0.7,1.9,0.9-0.7,3.4C97.3,59.2,67,63.4,67,63.4z"/>
	<path fill="#FFB602" enable-background="new    " d="M124,107.7C124,107.7,124,107.7,124,107.7l-0.5,0.3c0,0-1.5,1.5-2.5,1.8
		c0,0.3,0,0.5,0,1c2-0.5,13.9-3.8,14.1-3.8c2.4-1.1,3.5-3.7,3.5-7.7c0-0.4-0.1-0.7-0.1-1.1c-0.3-6.6-5.3-8.2-5.6-8.3
		c0,0-3.9-1.3-6.9-2.3V91h-2v3h2v3h-2v3h1v3h-1v2h1v0.9L124,107.7z"/>
	<path fill="#655B58" d="M46.8,103H9.7l-0.2,1h36.8l0,0c0,0-33.4,1-33.4,0c-4.5,0-6.6,1.1-6.4,4.9c0.2,3.7,4.7,4.1,4.7,4.1l35.7,2.6
		c3.3,0,7.3-0.6,7.3-6.8C54.1,101.9,46.8,103,46.8,103z M9.2,107.9c0,0,2.1-1.2,2.6,1.3C12.2,111.1,11.5,107.9,9.2,107.9z M18,107.5
		c0,0,3-1.8,3.7,1.8C22.3,112.2,21.3,107.5,18,107.5z M30.5,107.4c0,0,3.9-2.3,4.8,2.3C36.2,113.5,34.9,107.4,30.5,107.4z
		 M49.3,109.1c-0.5,1.7-2.3,1.2-2.3,1.2s1.2-0.7,1.2-2c0-1.2-1.6-1-1.6-1C47.5,105.9,49.8,107.4,49.3,109.1z"/>
	<path fill="#FFFFFE" d="M65.4,101c0,0,1.7,0.3,1.8,2.9c0.2,2.6-0.2,4.8-3.2,4.8v0.3h2.3c0,0,3,0.5,2.8-4.6c0-2.6-1.4-4.4-4.5-4.4
		h-5.9l0.2,1H65.4z"/>
	<polygon fill="#655B58" points="60,112.4 60,111 55.5,111 	"/>
	<polygon fill="#655B58" points="58.3,114.9 59.1,114 54.6,114 	"/>
	<path fill="#655B58" d="M60.4,63.9l-8.5,17.4l1,6.4l7.7-18.5c1.9-3.4,3.5-4.9,3.5-4.9v-2.4c0,0,0.6-1.1,0.8-1.3
		C61.9,61.1,60.4,63.9,60.4,63.9z"/>
	<path fill="#655B58" d="M64.6,60.6C64.7,60.6,64.7,60.6,64.6,60.6C64.7,60.5,64.7,60.5,64.6,60.6z"/>
	<path fill="#655B58" d="M97.6,58.9c2.6-2.4,0.5-4.1,0.7-3.4c0.2,0.7-0.7,1.5-0.7,1.5l-31.2,3.2l0.5,3.2
		C67,63.4,97.3,59.2,97.6,58.9z"/>
	<path fill="#FFFFFE" d="M46.5,107.4c0,0,1.6-0.2,1.6,1c0,1.2-1.2,2-1.2,2s1.9,0.5,2.3-1.2C49.8,107.4,47.5,105.9,46.5,107.4z"/>
	<path fill="#FFFFFE" d="M9.2,107.9c2.3,0,3,3.2,2.6,1.3C11.3,106.6,9.2,107.9,9.2,107.9z"/>
	<path fill="#FFFFFE" d="M18,107.5c3.3,0,4.3,4.7,3.7,1.8C21,105.7,18,107.5,18,107.5z"/>
	<path fill="#FFFFFE" d="M30.5,107.4c4.3,0,5.6,6.1,4.8,2.3C34.4,105.1,30.5,107.4,30.5,107.4z"/>
	<path fill="#655B58" d="M115,97.7c0-0.3,0.9-0.4,1.2-0.3l0.2,1.1c0,0.1,0,0.3,0,0.4c0.2,0.3,0.4,0.3,1-0.2c0.3-0.7,0-0.5,0-0.8
		l-0.4,0.2v-1l-2-0.4V97.7z"/>
	<path fill="#655B58" d="M115.1,101.3c0.8,0.7,0.4-0.1,0.6-0.3v-0.7C115.4,100.7,114.8,100.4,115.1,101.3z"/>
	<polygon fill="#655B58" points="117.8,97.6 117.8,97.6 117.8,97.6 	"/>
	<path fill="#655B58" d="M119.7,95.2C119.7,95.2,119.7,95.2,119.7,95.2L119.7,95.2C119.7,95.2,119.7,95.2,119.7,95.2z"/>
	<path fill="#655B58" d="M119.5,95.4c0,0,0.1,0,0.1,0c0,0,0-0.1,0-0.1C119.6,95.3,119.6,95.3,119.5,95.4z"/>
	<path fill="#655B58" d="M117.1,96.1l-0.3-0.7C116.6,95.8,116.7,96.1,117.1,96.1z"/>
	
		<line fill="none" stroke="#655B58" stroke-width="0" stroke-linecap="round" stroke-linejoin="round" x1="113" y1="98.8" x2="113" y2="98.8"/>
	<polygon fill="#655B58" points="114.3,98 114.3,98 114.3,98 	"/>
	<path fill="#655B58" d="M117.2,96.1c0.6,0.3,0.4-0.1,0.6-0.3l-0.3-0.4C117.3,95.7,116.9,95.5,117.2,96.1z"/>
	<path fill="#655B58" d="M119,93.7l-0.1-0.3c0.1,0.1,0.3,0.1,0.6,0.1l-0.3-0.4c-0.2,0.1-0.3,0.2-0.3,0.2l-0.1-0.2
		c-0.3,0.2-0.4,0.4-0.4,0.7c0,0.1,0,0.1,0,0.2C118.6,93.8,118.8,93.8,119,93.7z"/>
	<path fill="#655B58" d="M119.5,93.7l0.3,0.4c0.1,0.1,0.1,0.3,0.1,0.4c0,0,0.1,0,0.1,0c0.1-0.6,0.4-1.1,0.8-1.4
		c-0.2-0.1-0.3-0.2-0.4-0.4l-0.9-0.2c0.1,0.5,0.1,0.9,0.1,1.2l-0.1-0.1C119.5,93.6,119.5,93.6,119.5,93.7
		C119.5,93.7,119.5,93.7,119.5,93.7z"/>
	<path fill="#655B58" d="M118.5,97.2l-0.3-0.7c-0.3,0.2-0.6,0.2-0.7,0.7C117.8,97.3,118.1,97.3,118.5,97.2z"/>
	<path fill="#655B58" d="M114,100.1c0,0.3,0,0.5,0.1,0.8c0.7,0.2,0.7-0.2,0.9-0.6c-0.1,0-0.2,0-0.3-0.1
		C114.5,100.3,114.2,100.3,114,100.1z"/>
	<path fill="#655B58" d="M112.6,98.7l-0.3-0.7c-0.2,0.3-0.6,0.4-0.3,1.1C112.5,99.4,112.3,98.9,112.6,98.7z"/>
	<path fill="#655B58" d="M115.4,96.5l1-0.4C115.8,95.6,115.4,95.6,115.4,96.5z"/>
	<path fill="#655B58" d="M119.3,97.7l-0.6,0.2L119,98C119.1,97.9,119.2,97.8,119.3,97.7z"/>
	<path fill="#FFFFFE" d="M117.8,102.9h-0.9c-0.2,0.1-0.3,0.2-0.5,0.2C116.3,104.6,118.5,104.2,117.8,102.9z"/>
	<path fill="#FFFFFE" d="M123,90.5c0.1-0.4,0-0.8-0.1-1.1l-0.5-0.2c-0.2,0.3-0.4,0.9-0.5,1.2C122.1,90.6,122.6,90.6,123,90.5z"/>
	<path fill="#FFFFFE" d="M124.4,89.4l-0.3,0.6C124.3,89.9,124.4,89.7,124.4,89.4z"/>
	<path fill="#FFFFFE" d="M116.4,98.6l-0.2-1.1c-0.4-0.1-0.8,0-1.2,0.3c-0.2,0.1-0.3,0.2-0.5,0.4l-0.1-0.1c-0.1,0-0.1,0-0.2,0
		c0,0,0,0,0,0c-0.6,0-1,0.2-1.2,0.4c-0.5,0.5,0.2,1.4,0.8,1.8c0.3,0.1,0.5,0.2,0.7,0.1c0.1,0,0.2,0.1,0.3,0.1c0.6,0,1.3-0.6,1.4-1.4
		C116.4,98.8,116.4,98.7,116.4,98.6z"/>
	<path fill="#FFFFFE" d="M118.8,98.7c0,0.2,0,0.5,0.1,0.7c0.3,0.1,0.6,0.1,0.9,0c0,0.1,0,0.2,0,0.4c0.8,0.1,0.9,0.1,1.2-0.5
		c-0.2,0-0.4,0-0.5,0l-0.1-0.1c0.4-0.3,0.6-0.7,0.3-1.2c0.1,0,0.2,0,0.3,0c0,0.1-0.1,0.1-0.1,0.2c0.7,0.3,1.3,0.7,1.9,1.1
		c0.6-0.6,0.3-1.4-0.2-1.8l-0.2-0.4c-0.5,0.1-0.9,0.3-1.2,0.7c0-0.3-0.2-0.3-0.4-0.5l-0.2-0.2c-0.2,0.1-0.3,0.2-0.4,0.3
		c-0.1-0.1-0.1-0.1-0.2-0.2l-0.4,0.2l-0.3,0.2c0,0-0.1,0.1-0.1,0.1c-0.1,0.1-0.2,0.2-0.3,0.3l-0.4-0.2l-0.6-0.1
		c-0.1,0-0.1,0.2-0.2,0.2c0,0,0,0,0,0c-0.1,0-0.2-0.2-0.3-0.2c-0.1,0.5,0,0.7,0.3,0.9C118,99,118.4,99,118.8,98.7z"/>
	<path fill="#FFFFFE" d="M115.4,92.4c-0.2,0.3-0.4,0.6-0.5,0.9c0.3,0.1,0.5,0,0.8,0c0-0.3,0-0.6,0-0.9H115.4z"/>
	<path fill="#FFFFFE" d="M116.8,91.6c0,0.2,0,0.3,0,0.5c0.9,0.3,1.8-0.2,1-1.1L116.8,91.6z"/>
	<path fill="#FFFFFE" d="M120.1,89.4c0.3,0.2,0.2-0.1,0.3-0.2l-0.2-0.4C120.1,89,120,89.1,120.1,89.4z"/>
	<path fill="#FFFFFE" d="M109.1,101.2l-1,0.4c0.4,0.5,1,0.5,1.4,0C109.4,101.3,109.2,101.3,109.1,101.2z"/>
	<path fill="#FFFFFE" d="M121.1,105.7c-0.1-0.4-0.3-0.2-0.5-0.4l0.2-0.7c-0.3,0.4-0.5,1.1-0.7,1.5
		C120.7,106.1,120.7,105.9,121.1,105.7z"/>
	<path fill="#FFFFFE" d="M119.2,103h-0.3c-0.5,1-1,1.3-0.8,2.2C119.7,105.8,121,104,119.2,103z"/>
	<path fill="#FFFFFE" d="M122,106.6c0.2,0,0.3,0,0.5,0l-0.2-0.7C122.1,106.1,121.9,106.2,122,106.6z"/>
	<path fill="#FFFFFE" d="M121.6,99.9c-0.1,0.2-0.3,0.3-0.2,0.7c0.4,0.1,0.4-0.2,0.7-0.3L121.6,99.9z"/>
	<path fill="#FFFFFE" d="M122,96.3v-0.7c0,0-0.4,0-0.6,0c0.2-0.2,0.3-0.5,0.3-0.8c0,0,0,0,0.1,0c0.5-0.2,0.2-0.4,0.4-0.8l-0.2,0
		c0,0,0,0,0,0l-0.2,0.1l-0.1,0c0-0.1,0.2-0.2,0.2-0.3L122,94v-0.9c0-0.1,0.7-0.8,0.3-1.5l-1,0.7c-0.2,0-0.4,0-0.6,0
		c-0.1,0-0.1,0.1-0.2,0.1c0,0,0,0,0,0.1c0.1,0.2,0.2,0.3,0.4,0.4c-0.4,0.3-0.7,0.8-0.8,1.4c0,0.1,0,0.2,0,0.3c0,0,0,0,0,0
		c-0.2,0.1-0.3,0.2-0.4,0.4c0,0,0,0,0,0c0,0,0,0,0,0c0.2-0.2,0.3-0.5,0.3-0.7c0-0.1,0-0.3-0.1-0.4l-0.3-0.4c0,0,0,0,0,0
		c-0.1,0-0.3,0-0.5,0c-0.2,0-0.4,0.1-0.6,0.2c-0.5,0.4-0.9,1-0.5,1.6c0.4,0.5,1,0.3,1.5-0.2c0.1,0,0.1-0.1,0.2-0.1c0,0,0,0.1,0,0.1
		c-0.1,0.2-0.1,0.3-0.1,0.5c-0.3,0.3-0.1,0.6,0.2,0.8c0.3,0.2,0.6,0.3,0.9,0.3C121,97.4,122,97.6,122,96.3z"/>
	<path fill="#FFFFFE" d="M122.9,92.6l-0.3-0.9C122.4,92,122.5,92.4,122.9,92.6z"/>
	<path fill="#FFFFFE" d="M122.2,94c0.2,0.1,0.3,0,0.5,0c0-0.1,0-0.4,0-0.5l0.2-0.4C122.5,93.4,122.2,93.5,122.2,94z"/>
	<path fill="#FFFFFE" d="M123.4,95.7v-0.4c-0.2,0.1-0.3-0.1-0.4,0.2C123.1,95.9,123.2,95.7,123.4,95.7z"/>
	<path fill="#FFFFFE" d="M124.2,88.4c-0.1,0.2-0.3,0.5-0.2,0.9c0.2,0,0.3,0,0.5,0c0.1-0.3-0.2-0.3-0.2-0.5L124.2,88.4z"/>
	<path fill="#FFFFFE" d="M115,107.9c0-0.1,0-0.2,0-0.3C114.9,107.7,114.7,107.7,115,107.9z"/>
	<path fill="#FFFFFE" d="M115,107.5v-0.2C115,107.4,115,107.5,115,107.5C115,107.6,115,107.5,115,107.5z"/>
	<path fill="#FFFFFE" d="M112.4,108.5c0.2-0.2,0.2-0.4,0.2-0.7l-0.3,0.4C112.3,108.3,112.1,108.5,112.4,108.5z"/>
	<path fill="#FFFFFE" d="M105.3,107.2c-0.3,0.2-0.5,0.3-0.5,0.7c0.3,0.1,0.6,0,0.8,0c0-0.1,0-0.4,0-0.5L105.3,107.2z"/>
	<path fill="#FFFFFE" d="M100.7,110.2c-0.2,0.2-0.3-0.2-0.3,0.8h0c0.2,0,0.5-0.2,0.9-0.1l1.7-0.1c0-0.4-0.2-0.7-0.4-0.8
		C102,109.5,101.2,109.7,100.7,110.2z"/>
	<path fill="#FFFFFE" d="M100.7,108.3c0.6,0.1,0.5-0.2,0.7-0.6l-0.7,0.2C100.8,108.2,100.5,108.2,100.7,108.3z"/>
	<path fill="#FFFFFE" d="M113.3,93.3l-1-0.4C109.7,93.8,113.4,95.8,113.3,93.3z"/>
	<path fill="#FFFFFE" d="M114.5,87.9l-0.2,0.2C114.5,88.1,114.5,88,114.5,87.9z"/>
	<path fill="#655B58" d="M105,111.1l-0.2,1.2c0.7,0.6,1.6,0.7,2.5,0.5C107.4,111.4,106.2,110.4,105,111.1z"/>
	<path fill="#655B58" d="M110.4,114.1v-0.2c-1.2,0.7-0.5,1.6,0.5,0.7C110.8,114.1,110.5,114.3,110.4,114.1z"/>
	<path fill="#655B58" d="M100.4,110.9c-0.4,0.2-0.7,0.5-0.7,1.2c0.5,0.1,1.5,0.1,2,0c0.2-0.4,0-0.6-0.2-1l-0.2-0.2c0,0,0,0,0,0
		C100.9,110.8,100.6,110.8,100.4,110.9z"/>
</g>
</svg>
