<?xml version="1.0" encoding="utf-8"?>
<!-- Generator: Adobe Illustrator 18.1.0, SVG Export Plug-In . SVG Version: 6.00 Build 0)  -->
<svg version="1.1" id="Layer_1" xmlns="http://www.w3.org/2000/svg" xmlns:xlink="http://www.w3.org/1999/xlink" x="0px" y="0px"
	 viewBox="0 0 150 150" enable-background="new 0 0 150 150" xml:space="preserve">
<g>
	<g>
		<g>
			<path fill="#0073A2" d="M50.6,35.1c0,1.7,1.4,3.1,3.1,3.1c1.7,0,3.1-1.4,3.1-3.1c0-10.1,8.3-18.4,18.4-18.4
				c10.1,0,18.4,8.3,18.4,18.4c0,1.7,1.4,3.1,3.1,3.1c1.7,0,3.1-1.4,3.1-3.1c0-13.6-11.1-24.7-24.7-24.7
				C61.7,10.5,50.6,21.6,50.6,35.1z"/>
		</g>
		<circle fill="#0073A2" cx="75.2" cy="24.7" r="5.3"/>
	</g>
	<g>
		<g>
			<path fill="#909A34" d="M19.1,43.1c-3.3,5.7-4.2,12.3-2.5,18.7c1.7,6.4,5.8,11.7,11.5,15c1.5,0.9,3.4,0.4,4.3-1.1
				c0.9-1.5,0.3-3.4-1.1-4.3c-4.3-2.5-7.3-6.4-8.6-11.2c-1.3-4.7-0.6-9.7,1.8-14c5.1-8.8,16.4-11.8,25.1-6.7
				c1.5,0.9,3.4,0.4,4.3-1.1c0.9-1.5,0.4-3.4-1.1-4.3C41,27.3,25.9,31.3,19.1,43.1z"/>
		</g>
		<circle fill="#909A34" cx="31.4" cy="50.3" r="5.3"/>
	</g>
	<g>
		<g>
			<path fill="#00A9DE" d="M28.3,74.3c-11.8,6.8-15.8,21.9-9,33.7c3.3,5.7,8.6,9.8,15,11.5c6.4,1.7,13,0.8,18.7-2.5
				c1.5-0.9,2-2.8,1.1-4.3c-0.9-1.5-2.8-2-4.3-1.1c-4.3,2.5-9.2,3.1-14,1.8c-4.7-1.3-8.7-4.3-11.2-8.6c-5.1-8.8-2-20.1,6.7-25.1
				c1.5-0.9,2-2.8,1.1-4.3C31.7,74,29.8,73.5,28.3,74.3z"/>
		</g>
		<circle fill="#00A9DE" cx="31.6" cy="101" r="5.3"/>
	</g>
	<g>
		<g>
			<path fill="#FD9A2B" d="M94,115.7c0,10.1-8.3,18.4-18.4,18.4c-10.1,0-18.4-8.3-18.4-18.4c0-1.7-1.4-3.1-3.1-3.1
				c-1.7,0-3.1,1.4-3.1,3.1c0,13.6,11.1,24.7,24.7,24.7c13.6,0,24.7-11.1,24.7-24.7c0-1.7-1.4-3.1-3.1-3.1
				C95.4,112.6,94,114,94,115.7z"/>
		</g>
		<circle fill="#FD9A2B" cx="75.7" cy="126.2" r="5.3"/>
	</g>
	<g>
		<g>
			<path fill="#FF865E" d="M118.4,75.3c-0.9,1.5-0.4,3.4,1.1,4.3c4.3,2.5,7.3,6.4,8.6,11.2c1.3,4.7,0.6,9.7-1.8,14
				c-5.1,8.8-16.4,11.8-25.1,6.7c-1.5-0.9-3.4-0.3-4.3,1.1c-0.9,1.5-0.4,3.4,1.1,4.3c11.8,6.8,26.9,2.7,33.7-9
				c3.3-5.7,4.2-12.3,2.5-18.7c-1.7-6.4-5.8-11.7-11.5-15C121.2,73.2,119.3,73.8,118.4,75.3z"/>
		</g>
		<circle fill="#FF865E" cx="119.5" cy="100.6" r="5.3"/>
	</g>
	<g>
		<g>
			<path fill="#F581A2" d="M97.9,33.8c-1.5,0.9-2,2.8-1.1,4.3c0.9,1.5,2.8,2,4.3,1.1c8.8-5.1,20.1-2.1,25.1,6.7
				c5.1,8.8,2.1,20.1-6.7,25.1c-1.5,0.9-2,2.8-1.1,4.3c0.9,1.5,2.8,2,4.3,1.1c5.7-3.3,9.8-8.6,11.5-15c1.7-6.4,0.8-13-2.5-18.7
				C124.8,31.1,109.7,27,97.9,33.8z"/>
		</g>
		<circle fill="#F581A2" cx="119.2" cy="49.8" r="5.3"/>
	</g>
</g>
</svg>
