<?xml version="1.0" encoding="utf-8"?>
<!-- Generator: Adobe Illustrator 18.1.0, SVG Export Plug-In . SVG Version: 6.00 Build 0)  -->
<svg version="1.1" id="Layer_1" xmlns="http://www.w3.org/2000/svg" xmlns:xlink="http://www.w3.org/1999/xlink" x="0px" y="0px"
	 viewBox="0 0 150 150" enable-background="new 0 0 150 150" xml:space="preserve">
<g>
	<path fill="#35495E" d="M85.5,20.1c-30.7,0-55.6,24.9-55.6,55.6c0,30.7,24.9,55.6,55.6,55.6c10.9,0,21.2-3.2,29.8-8.6
		C104.7,131.6,91,137,76,137c-33.8,0-61.1-27.4-61.1-61.1c0-33.8,27.4-61.1,61.1-61.1c14.2,0,27.3,4.9,37.7,13
		C105.4,22.9,95.8,20.1,85.5,20.1z"/>
	<path fill="#35495E" d="M90.1,121c1.2-0.2,2.5-0.5,3.7-0.9c4.9-2.3,9.4-5.3,12.4-9.4V52.4L90.1,65.3V121z"/>
	<path fill="#E6362C" d="M49.1,104.1c4,5.9,9.5,10.7,16.1,13.8V80.1L49.1,91.5V104.1z"/>
	<path fill="#019589" d="M69.3,119.5c4.1,1.4,8.5,2.2,13.1,2.2c1,0,2-0.1,2.9-0.1V66.9L69.3,78V119.5z"/>
	<path fill="#0092C6" d="M111.9,113.9c17.8-17.8,17.8-46.8,0-64.6c-17.8-17.8-46.8-17.8-64.6,0C40.9,55.6,36.8,63.4,35,71.6
		c1-11.4,5.8-22.5,14.5-31.2c19.6-19.6,51.4-19.6,71.1,0c19.6,19.6,19.6,51.4,0,71.1c-8.3,8.3-18.7,13.1-29.5,14.4
		C98.7,123.8,105.9,119.9,111.9,113.9z"/>
</g>
</svg>
