<?xml version="1.0" encoding="utf-8"?>
<!-- Generator: Adobe Illustrator 18.1.0, SVG Export Plug-In . SVG Version: 6.00 Build 0)  -->
<svg version="1.1" id="Layer_1" xmlns="http://www.w3.org/2000/svg" xmlns:xlink="http://www.w3.org/1999/xlink" x="0px" y="0px"
	 viewBox="0 0 150 150" enable-background="new 0 0 150 150" xml:space="preserve">
<g>
	<polygon fill="none" points="88.7,109 88.7,109 79.7,93.4 	"/>
	<path fill="none" d="M76.9,127.8c-0.8-0.7-1.8-1.1-2.9-1.1c-0.1,0-0.2,0-0.4,0c-1,0.1-1.9,0.4-2.6,1c-1.1,0.9-1.8,2.2-1.8,3.7
		c0,2.6,2.1,4.7,4.7,4.7c2.6,0,4.7-2.1,4.7-4.7C78.7,130,78,128.7,76.9,127.8z"/>
	<polygon fill="none" points="73.6,94.1 73.6,94.1 73.6,95.7 	"/>
	<rect x="38" y="109" fill="#85B040" width="5" height="13"/>
	<rect x="43" y="109" fill="#4082C4" width="16" height="13"/>
	<polygon fill="#FDD500" points="73.5,109 59,109 59,122 74,122 74,109 	"/>
	<polygon fill="#F37621" points="88.7,109 74,109 74,122 89,122 89,109 	"/>
	<rect x="89" y="109" fill="#BF272D" width="14" height="13"/>
	<rect x="103" y="109" fill="#A157A1" width="7" height="13"/>
	<polygon fill="#85B040" points="61,67.2 61,58 55,58 55,94 61,94 	"/>
	<polygon fill="#4082C4" points="68,94 68,76 68,67 61,67 61,94 	"/>
	<rect x="68" y="76" fill="#FDD500" width="6" height="18"/>
	<polygon fill="#F37621" points="73.6,94 80,94 80,51 74,51 74,76 74,94 	"/>
	<polygon fill="#BF272D" points="85,94 85,39.7 85,33 80,33 80,50.9 80,94 	"/>
	<rect x="85" y="39" fill="#A157A1" width="7" height="55"/>
	<polygon fill="#72963E" points="61.4,94 55.3,94 38,103.7 38,109 43.4,109 	"/>
	<polygon fill="#327BBE" points="61.4,94 43.4,109 58.5,109 67.5,94 	"/>
	<polygon fill="#E4C020" points="74,94 67.5,94 58.5,109 73.5,109 74,95.7 	"/>
	<polygon fill="#E56D25" points="73.6,94 73.6,95.3 73.5,109 73.6,109 88.7,109 79.7,94 	"/>
	<polygon fill="#A52227" points="88.7,109 103.8,109 85.8,94 79.7,94 	"/>
	<path fill="#88498A" d="M91.9,94h-6.1l18,15h6.2v-4.8l-7.6-4.2c-1.2-0.6-2.4-1.2-3.2-1.8L91.9,94z"/>
	<path fill="#BF272D" d="M110.1,74.5c0-0.1-0.1-0.2-0.1-0.2c-0.2-0.3-0.4-0.6-0.6-0.8c-3.1-3.8-8.6-4.8-12.8-2
		c-4.5,2.9-5.8,8.9-2.9,13.4c1.5,2.4,4,3.8,6.6,4.3c0.5-0.1,0.9-0.1,1.4-0.1l-0.8-1.2c-2.3-0.3-4.5-1.5-5.9-3.6
		c-2.4-3.8-1.3-8.9,2.4-11.3c3.8-2.4,8.9-1.3,11.4,2.4c0.2,0.3,0.4,0.7,0.6,1.1c0.3,0.8,0.5,1.6,0.6,2.4c0,0,0.1,0,0.1-0.1
		c0,0,0.1-0.1,0.1-0.1c0.2-0.1,0.4-0.2,0.6-0.3c0.2-0.1,0.4-0.1,0.6-0.2c-0.1-0.7-0.3-1.4-0.6-2.1C110.6,75.4,110.4,74.9,110.1,74.5
		z"/>
	<path fill="#F37621" d="M99,75.1c2.4-1.5,5.7-0.8,7.2,1.5l0.4,0.7c0,0,0-0.1,0.1-0.1l1.8,2.7c0.1-1.3-0.2-2.8-1-4.1
		c-2-3.1-6.2-4-9.3-2c-3.1,2-4,6.1-2,9.3c0.9,1.4,2.2,2.3,3.5,2.7l-2.3-3.5C95.9,80,96.6,76.7,99,75.1z"/>
	<path fill="#15272D" d="M134.7,91.8c-0.3-1.4-0.9-2.8-1.7-4.1l-4.9-7.5c-0.3-0.5-0.7-0.9-1.2-1.2c-0.2-0.1-0.5-0.3-0.7-0.3
		c-0.2-0.1-0.5-0.1-0.7-0.2c-0.8-0.1-1.7,0.1-2.5,0.6c-0.8,0.5-1.2,1.1-1.5,1.8c-1.1-1.8-3.4-2.2-5.2-1.1c-0.8,0.5-1.3,1.2-1.6,2.1
		c-1.2-0.8-2.7-0.9-3.9-0.3c-0.1,0.1-0.2,0.1-0.3,0.2c-0.1,0.1-0.3,0.2-0.4,0.3c-0.3,0.3-0.5,0.5-0.7,0.8c-0.1,0.2-0.3,0.4-0.3,0.7
		l-3.3-5.1l-0.7-1.1c-1.1-1.8-3.4-2.2-5.2-1.1c-1.7,1.1-2.2,3.4-1.1,5.2l4.8,7.5l2.4,3.7c-3.4-0.5-6.8-0.6-8.1,1.3
		c-0.2,0.3-0.3,0.6-0.4,1c-0.3,1.3,0.3,2.3,1.5,3.2c0.8,0.6,1.8,1.2,3.1,1.8c2,1,4.6,2,7.3,3.2c0.2,0.1,0.6,0.2,0.8,0.3
		c0.2,0.1,0.8,0.2,0.8,0.3v1.2v4.7V125h-7.2H88.7H73.6H58.5H43.4H37v-15.3v-5.1V27h74v48.9c0,0.7,0.4,1.4,0.5,2.1c1-0.2,2,0,2.9,0.6
		c0.3-0.9,0.9-1.6,1.6-2.1c1.7-1.1,4-0.7,5.1,1.1c0.3-0.7,0.5-1.4,1.2-1.8c0.9-0.6,2.6-0.7,2.6-0.5V23c0-6.2-4.6-12-10.9-12H33.8
		C27.5,11,23,16.7,23,23v104.5c0,6.2,4.5,11.6,10.8,11.6h80.4c6.2,0,10.9-5.3,10.9-11.6V107c1-0.1,0.7-0.1,1-0.2
		c0.2-0.1,0.6-0.2,0.8-0.3c0.8-0.3,1.7-0.8,2.4-1.2C133.8,102.3,135.9,96.9,134.7,91.8z M73.9,136.2c-2.6,0-4.7-2.1-4.7-4.7
		c0-1.5,0.7-2.8,1.8-3.7c0.7-0.6,1.6-0.9,2.6-1c0.1,0,0.2,0,0.4,0c1.1,0,2.1,0.4,2.9,1.1c1.1,0.9,1.8,2.2,1.8,3.7
		C78.7,134.1,76.6,136.2,73.9,136.2z"/>
</g>
</svg>
