<?xml version="1.0" encoding="iso-8859-1"?>
<!-- Generator: Adobe Illustrator 13.0.0, SVG Export Plug-In . SVG Version: 6.00 Build 14948)  -->
<!DOCTYPE svg PUBLIC "-//W3C//DTD SVG 1.1//EN" "http://www.w3.org/Graphics/SVG/1.1/DTD/svg11.dtd">
<svg version="1.1" id="Layer_1" xmlns="http://www.w3.org/2000/svg" xmlns:xlink="http://www.w3.org/1999/xlink" x="0px" y="0px"
	 width="100px" height="100px" viewBox="0 0 100 100" enable-background="new 0 0 100 100" xml:space="preserve">
<g>
	<path fill="#272525" d="M81.208,45.41c-1.06-0.048-2.123,0.017-3.179,0.041c-1.373-0.008-2.742,0.121-4.108,0.234
		c-2.655,0.153-5.333,0.443-7.944,0.958c-11.246,1.684-22.195,6.22-30.869,13.648c-1.18,0.927-2.28,1.949-3.323,3.029l0.012,0.072
		c-2.147,2.111-4.093,4.432-5.801,6.913c0.866,1.538,1.925,2.989,3.029,4.374c0.084,0.041,0.258,0.105,0.342,0.129l-0.024,0.193
		c0.942,0.121,1.869,0.322,2.812,0.468c0.5-0.766,1.035-1.522,1.502-2.296c0.991-1.257,1.954-2.562,2.9-3.852
		c0.814-0.717,1.43-1.676,2.2-2.457c0.77-0.766,1.506-1.555,2.231-2.36c0.891-0.758,1.857-1.531,2.554-2.458
		c0.58-0.129,0.935-0.652,1.374-1.007c4.322-3.472,9.136-6.332,14.265-8.451l0.004-0.169c1.543-0.395,3.005-1.104,4.548-1.531
		l-0.032-0.104c1.382-0.347,2.735-0.806,4.129-1.12l0.053-0.169c0.732,0.008,1.43-0.274,2.15-0.387
		c1.761-0.403,3.553-0.652,5.33-0.942c2.719-0.347,5.467-0.524,8.205-0.451c0.399-0.105,0.75-0.314,1.148-0.427l0.057,0.032
		c0.508-0.427,0.548-1.289,0.499-1.869C83.919,45.435,82.562,45.378,81.208,45.41z"/>
	<path fill="#272525" d="M80.482,49.294c-1.707,0.088-3.403,0.338-5.087,0.652c-0.979,0.081-1.934,0.338-2.893,0.54
		c-2.188,0.475-4.37,1.039-6.478,1.797C57.82,55.03,50.15,59.566,44.031,65.689c-0.262,0.12-0.451,0.346-0.657,0.539
		c-2.852,2.877-5.41,6.035-7.702,9.37l0.016,0.104c-0.89,1.168-1.667,2.434-2.369,3.723c0.713,0.749,1.523,1.434,2.381,2.021
		l-0.02,0.098c2.606,1.965,5.362,3.803,8.383,5.059c2.059,0.967,4.222,1.7,6.413,2.297c0.342,0.072,0.693,0.241,1.055,0.137
		c4.629-1.12,9.064-3.078,12.979-5.793c2.88-1.941,5.382-4.383,7.714-6.953c0.129-0.209,0.407-0.37,0.411-0.636
		c0.608-0.483,0.995-1.177,1.503-1.765c1.309-1.812,2.631-3.666,3.613-5.672c3.295-5.922,5.515-12.415,6.881-19.038
		C83.25,49.101,81.865,49.205,80.482,49.294z"/>
	<radialGradient id="SVGID_1_" cx="56.6729" cy="28.5962" r="33.6117" gradientUnits="userSpaceOnUse">
		<stop  offset="0" style="stop-color:#CB2229"/>
		<stop  offset="0.3342" style="stop-color:#AA181D"/>
		<stop  offset="0.77" style="stop-color:#840C0F"/>
		<stop  offset="1" style="stop-color:#76070A"/>
	</radialGradient>
	<path fill="url(#SVGID_1_)" d="M86.812,22.812c-0.601-0.008-1.229,0.008-1.78,0.266c-1.277,0.178-2.534,0.403-3.799,0.548
		c-2.039,0.113-4.085,0.057-6.119-0.048c-0.436-0.331-1.06-0.137-1.566-0.25c-7.889-1.394-15.434-5.277-21.375-10.853
		c-0.358-0.338-0.62-0.942-1.213-0.685c-0.612,0.854-1.494,1.45-2.223,2.175c-5.289,4.383-11.585,7.654-18.2,9.047
		c-0.456,0.298-1.221-0.04-1.571,0.347c-0.874-0.121-1.68,0.274-2.538,0.258c-2.658,0.145-5.325,0.121-7.932-0.403
		c-0.926-0.032-1.776-0.483-2.699-0.507c-0.31,1.007-0.012,2.151-0.246,3.19c0,8.862,0.797,17.781,3.045,26.394
		c0.911,3.689,2.107,7.363,3.658,10.868c0.741,0.733,1.938,0.83,2.763,1.49c0.475-0.177,0.733-0.636,1.076-0.982
		c1.913-2.038,3.903-4.013,6.123-5.712c0.423-0.299,0.753-0.814,1.297-0.895l0.057-0.242c2.594-1.748,5.217-3.521,8.041-4.898
		c3.404-1.724,6.824-3.142,10.41-4.189c0.676-0.322,1.591-0.387,2.247-0.725c0.935-0.073,1.724-0.564,2.675-0.564l0.008-0.161
		c0.387,0.089,0.722,0.024,1.008-0.209c0.701,0,1.333-0.314,2.038-0.298c0.459-0.371,1.087-0.121,1.591-0.395
		c0.479-0.137,1.088,0.081,1.471-0.273c0.487-0.049,0.99-0.017,1.467-0.146c0.692-0.233,1.486,0.024,2.139-0.346
		c0.821-0.041,1.659-0.024,2.461-0.209c4.354-0.201,8.722-0.177,13.084-0.081c1.185,0.282,2.244-0.258,3.372-0.516
		c0.527-1.305,0.366-2.828,0.713-4.166C86.764,34.051,87.291,28.419,86.812,22.812z M53.59,31.859
		c0.432,2.957,0.914,5.913,1.39,8.87c0.024,0.242,0.036,0.476,0.053,0.717c-2.502,0.008-5.003,0-7.505,0l-0.057-0.097
		c0.161-1.361,0.427-2.707,0.597-4.068c0.226-1.579,0.451-3.166,0.721-4.737c0.25-1.45,0.455-2.893,0.689-4.351
		c0.008-0.121,0.028-0.379,0.036-0.508c-2.079-0.991-2.792-4.036-1.132-5.728c0.951-1.225,2.626-1.571,4.077-1.176
		c0.862,0.25,1.571,0.878,2.046,1.636c0.75,1.128,0.718,2.707-0.016,3.835c-0.379,0.516-0.802,1.104-1.426,1.313
		C52.981,28.999,53.438,30.433,53.59,31.859z"/>
</g>
</svg>
