<?xml version="1.0" encoding="utf-8"?>
<!-- Generator: Adobe Illustrator 18.1.0, SVG Export Plug-In . SVG Version: 6.00 Build 0)  -->
<svg version="1.1" id="Layer_1" xmlns="http://www.w3.org/2000/svg" xmlns:xlink="http://www.w3.org/1999/xlink" x="0px" y="0px"
	 viewBox="0 0 150 150" enable-background="new 0 0 150 150" xml:space="preserve">
<g>
	<path fill="#D7948F" d="M119.5,117.6c-0.3,0.3-0.6,0.6-1,0.9C118.9,118.2,119.2,117.9,119.5,117.6z"/>
	<path fill="#D7948F" d="M109.3,125.9c-0.7,0.5-1.5,1-2.3,1.4C107.8,126.9,108.6,126.4,109.3,125.9z"/>
	<path fill="#D7948F" d="M103.6,129.2c-0.7,0.4-1.4,0.7-2.2,1C102.1,129.9,102.9,129.6,103.6,129.2z"/>
	<path fill="#D7948F" d="M106.4,127.7c-0.7,0.4-1.4,0.8-2.2,1.2C105,128.5,105.7,128.1,106.4,127.7z"/>
	<path fill="#D7948F" d="M43.1,126.5c-0.7-0.4-1.3-0.8-1.9-1.3C41.8,125.6,42.4,126,43.1,126.5z"/>
	<path fill="#D7948F" d="M45.5,127.9c-0.7-0.4-1.4-0.8-2.1-1.2C44.1,127.1,44.8,127.5,45.5,127.9z"/>
	<path fill="#D7948F" d="M30.8,116.3c-0.6-0.7-1.2-1.4-1.8-2.1C29.6,115,30.2,115.6,30.8,116.3z"/>
	<path fill="#D7948F" d="M80,120v-6c-1,0-0.5,0-0.6,0c-1.2,2-12.3,12-12.3,12H67v7H55.9c6.2,1,12.9,2.8,19.8,2.8
		c4.3,0,8.6-0.8,12.7-1.8H80v-6c-1,0-0.5,0-0.6,0c-0.7,1-4.1,4.4-7.1,7.4c-2.1-0.1-4.1-0.1-6.1-0.4c3.1-3.1,11.2-11,11.2-11h1h33.9
		c-0.8,1-1.7,1.2-2.6,1.7c2.9-1.9,5.6-4.3,8.1-6.6c-0.4,0.4-0.8,0.9-1.2,0.9H80z"/>
	<path fill="#D7948F" d="M48.1,129.3c-0.7-0.4-1.5-0.8-2.2-1.2C46.6,128.5,47.3,128.9,48.1,129.3z"/>
	<path fill="#D7948F" d="M65.1,122c1.2-2,12.3-12,12.3-12h1H120v2v2.4v3.2c10-11.1,17.6-26.4,17.6-43.3c0-17.4-7.3-33-18.9-44.2
		c0.5,0.5,0.9,0.9,1.4,1.4l0.1,8.3c0,0-0.1,0-0.1,0v1v2.4V49H80v-6c-1,0-0.5,0-0.6,0c-1.2,1-12.3,13-12.3,13H67v6H29v-6.6v-2.4V50
		c0,0,0.1,0,0.3,0l29.6-24h17.5l9.9-4h20.9c0.5,0,1,0.3,1.4,0.6c-9.5-6-20.8-9.7-32.8-9.7c-34,0-61.5,27.5-61.5,61.5
		c0,15.2,5.8,29.1,14.8,39.8v-1.8V110v-3c0,0,34.3,0,36.1,0c1.2-1,12.3-12,12.3-12h1H120v2.8v2.4v5.9H80v-6c-1,0-0.5,0-0.6,0
		c-1.2,1-12.3,12-12.3,12H67v7H32.8c2.5,2,5.2,4.4,8.1,6.4c-1.4-1-2.8-2.4-4.1-3.4C47,122,63.9,122,65.1,122z M29,69.7v-2.4V65
		c0,0,34.3,0,36.1,0c1.2-1,12.3-12,12.3-12h1H120v2v2.4V64H80v-7c-1,0-0.5,0-0.6,0c-1.2,1-12.3,13-12.3,13H67v6H29V69.7z M29,83.9
		v-2.4V79c0,0,34.3,0,36.1,0c1.2-1,12.3-12,12.3-12h1H120v2.3v2.4V78H80v-7c-1,0-0.5,0-0.6,0c-1.2,2-12.3,13-12.3,13H67v6H29V83.9z
		 M80,92v-6c-1,0-0.5,0-0.6,0c-1.2,1-12.3,12-12.3,12H67v6H29v-5.8v-2.4V93c0,0,34.3,0,36.1,0c1.2-1,12.3-12,12.3-12h1H120v2.5v2.4
		V92H80z"/>
	<path fill="#D7948F" d="M109.2,22.7c1.5,1,3,2,4.4,3.2C112.2,24.7,110.8,23.7,109.2,22.7z"/>
	<path fill="#D7948F" d="M114.1,26.2c1.5,1.2,3,2.5,4.4,3.9C117.1,28.7,115.6,27.4,114.1,26.2z"/>
	<path fill="#D7948F" d="M32.8,118.3c-0.6-0.6-1.3-1.3-1.9-1.9C31.5,117,32.1,117.7,32.8,118.3z"/>
	<path fill="#D7948F" d="M97.7,131.8c-0.8,0.3-1.5,0.6-2.3,0.8C96.2,132.4,96.9,132.1,97.7,131.8z"/>
	<path fill="#D7948F" d="M94.7,132.9c-0.8,0.3-1.7,0.5-2.5,0.7C93,133.4,93.8,133.2,94.7,132.9z"/>
	<path fill="#D7948F" d="M50.6,130.5c-0.8-0.4-1.6-0.7-2.3-1.1C49.1,129.8,49.9,130.1,50.6,130.5z"/>
	<path fill="#D7948F" d="M100.7,130.6c-0.7,0.3-1.5,0.6-2.2,0.9C99.2,131.2,99.9,130.9,100.7,130.6z"/>
	<path fill="#D7948F" d="M53.3,131.6c-0.8-0.3-1.6-0.7-2.5-1C51.6,130.9,52.4,131.3,53.3,131.6z"/>
	<path fill="#D7948F" d="M55.9,132.6c-0.9-0.3-1.7-0.6-2.5-0.9C54.2,132,55,132.3,55.9,132.6z"/>
	<path fill="#D7948F" d="M91.6,133.8c-1,0.3-2,0.5-3.1,0.7C89.5,134.3,90.6,134.1,91.6,133.8z"/>
	<path fill="#C36C69" d="M86.3,22l-9.9,4H58.8L29.3,50c3.5,0,34.1,0,35.9,0c1.2,0,12.3-12,12.3-12h1H120v1.8c0,0,0.1,0,0.1,0l0-8.3
		c-0.5-0.5-1-1-1.5-1.4c0,0-0.1-0.1-0.1-0.1c-1.4-1.4-2.9-2.6-4.4-3.9c-0.1-0.1-0.3-0.2-0.4-0.3c-1.4-1.1-2.9-2.2-4.4-3.2
		c-0.2-0.1-0.4,0-0.6-0.1c-0.5-0.3-1-0.6-1.4-0.6H86.3z"/>
</g>
</svg>
