<?xml version="1.0" encoding="utf-8"?>
<!-- Generator: Adobe Illustrator 18.1.0, SVG Export Plug-In . SVG Version: 6.00 Build 0)  -->
<svg version="1.1" id="Layer_1" xmlns="http://www.w3.org/2000/svg" xmlns:xlink="http://www.w3.org/1999/xlink" x="0px" y="0px"
	 viewBox="0 0 150 150" enable-background="new 0 0 150 150" xml:space="preserve">
<g>
	<path fill="#A85963" d="M68.5,76.4c-5.2,0-16,0-21.5,0l10.8,10.8L68.5,76.4z M70.9,100.3c0-5,0-14.1,0-19.7l-9.8,9.8L70.9,100.3z
		 M44.1,100.8l10.3-10.3L44.1,80.2C44.1,86,44.1,95.8,44.1,100.8z M109.8,16.5c-9.1,0-16.6,7.4-16.6,16.6v9.6l5.7,8.9l-5.6,3.6
		c0,0-0.1-0.1-0.1-0.2v49.2c10.5-1.4,21.7-1.9,33.1-0.9V33.1C126.3,23.9,118.9,16.5,109.8,16.5z M58.4,31.5l-0.3-0.1l-0.2,0.1
		l-21.5,9.3L27.9,54v49.1c3.9-0.3,7.7-0.5,11.5-0.5v-31h33.9h2.4v32.5h12.8V54l-8.5-13.2L58.4,31.5z M70.9,58.9H45.4v-2.4
		c0-7,5.7-12.8,12.8-12.8c7,0,12.8,5.7,12.8,12.8V58.9z M58.2,48.4c-3.6,0-6.6,2.4-7.6,5.7c3.5,0,11.8,0,15.3,0
		C64.8,50.8,61.8,48.4,58.2,48.4z M48.8,102.8c1.7,0.1,3.5,0.2,5.2,0.4c4.6,0,9.6,0,13.2,0l-9.4-9.4L48.8,102.8z"/>
	<path fill="#7B6648" d="M93.2,42.6l-6-9.4L59.9,20.7L58.2,20l-1.3,0.6l-0.3,0.1L29.2,33.3L17.4,51.5l5.6,3.6
		c0,0,9.7-15.1,10.7-16.6c1.6-0.7,22.6-10.4,24.5-11.3c1.8,0.8,22.9,10.6,24.5,11.3c0.9,1.4,9.4,14.6,10.5,16.4
		c0.1,0.1,0.1,0.2,0.1,0.2l5.6-3.6L93.2,42.6z"/>
	<path fill="#6CAB36" enable-background="new    " d="M130.3,108.3c-14.8-1.7-29.1-0.9-42.3,1.4c19.2,5.6,34.2,13.1,42.3,17.6
		C130.3,120,130.3,110.6,130.3,108.3z"/>
	<path fill="#00A251" enable-background="new    " d="M77.4,111.8c-1.8-0.4-3.6-0.8-5.5-1.2c-1.7-0.3-3.4-0.7-5.2-1
		c-4.4-0.8-9-1.3-13.6-1.7c-3-0.3-6-0.4-9-0.5c-0.4,0-0.9,0-1.3,0c-1.1,0-2.3,0-3.5,0c-5.1,0-10.2,0.3-15.5,0.9c0,2.2,0,11.7,0,19
		c0,0.9,0,1.8,0,2.7c0,1,0,1.9,0,2.7c0,1.4,0,2.5,0,3.1c19.2,0,97.1,0,105.7,0c0-1.5,0-2.4,0-3.5
		C121.3,127.6,102.1,117.6,77.4,111.8z"/>
</g>
</svg>
