<?xml version="1.0" encoding="utf-8"?>
<!-- Generator: Adobe Illustrator 18.1.0, SVG Export Plug-In . SVG Version: 6.00 Build 0)  -->
<svg version="1.0" id="Layer_1" xmlns="http://www.w3.org/2000/svg" xmlns:xlink="http://www.w3.org/1999/xlink" x="0px" y="0px"
	 viewBox="0 0 150 150" enable-background="new 0 0 150 150" xml:space="preserve">
<path fill="#9DD6C9" d="M96,16.4c0,0,0-0.1,0.1-0.1c-0.2,0.2-0.3,0.3-0.5,0.5C95.8,16.7,95.9,16.6,96,16.4z"/>
<g>
	<path fill="#EC2A90" d="M100.6,116.7c-5,5.6-8.7,12.7-9,20.3c-0.1,2.2-0.1,4.4,0.1,6.6h31.8c3.3,0,5.9-2.7,5.9-5.9V94.5
		c-0.9,0.9-2,1.6-3,2.3C117.4,102.9,107.9,108.5,100.6,116.7z"/>
	<path fill="#EC2A90" d="M46.5,123.8c-4.1-6.7-10-12.2-14.5-18.6c-1.4-2-2.8-3.9-4.1-5.9v38.4c0,3.3,2.7,5.9,5.9,5.9H53
		C53.3,136.5,50.3,129.7,46.5,123.8z"/>
	<path fill="#00ADEE" d="M114,77.2c-11.1-0.9-21-9.9-22.8-20.9c-2.2-10.6,3.5-22.2,13.1-27.1c2.7-1.4,5.6-2.4,8.5-2.8
		c5.3-0.7,10.8,0.2,15.4,2.7c0.4,0.2,0.8,0.5,1.2,0.7V11.7c0-3.3-2.7-5.9-5.9-5.9H78.2c0.1,1.2,0.1,2.4,0.1,3.7l10.5,1.7L78.2,12
		c-0.2,2.8-0.7,5.5-1.4,8.1l0,0l9.8,4.3l-10.6-1.8c-0.9,2.6-2,5.1-3.4,7.5l8.4,6.6l-9.8-4.4c-1.5,2.3-3.2,4.4-5.1,6.4l6.6,8.6
		l-8.4-6.7c-2,1.8-4.2,3.5-6.5,4.9l4.2,10L55.5,47c-0.3,0.1-0.5,0.3-0.8,0.4c-2.2,1.1-4.5,2-6.8,2.7h0l1.6,10.7l-4.2-10
		c-2.7,0.7-5.4,1-8.1,1.2c0,0,0,0,0,0l-1.1,10.8l-1.6-10.8c-2.3,0-4.5-0.3-6.7-0.7v38.3c1.5-1.3,3.4-2,5.4-1.7
		c2.7,0.3,4.8,2.3,6.3,4.5c2.9,4.2,5.6,8.5,9,12.4c5.6,6.5,13.7,11,22.4,11.8c6.9,0,13.2-3.5,18.8-7.1c10.5-7,19.6-15.8,28-25.1
		c2-2.2,5.4-1.6,7.8-0.7c1.3,0.5,2.7,1.3,3.9,2.3V73.7C124.9,76.5,119.4,77.8,114,77.2z M86.4,96.5c-1.4,6.8-7.1,12.5-13.9,13.8
		c-6.4,1.4-13.5-1.5-17.2-6.9c-3.7-5-4.3-12-1.7-17.7c2.2-5.1,7-9.1,12.5-10.1c4.5-0.9,9.2,0,13,2.5C84.9,82,87.9,89.7,86.4,96.5z"
		/>
</g>
</svg>
