<?xml version="1.0" encoding="utf-8"?>
<!-- Generator: Adobe Illustrator 18.1.0, SVG Export Plug-In . SVG Version: 6.00 Build 0)  -->
<svg version="1.1" id="Layer_1" xmlns="http://www.w3.org/2000/svg" xmlns:xlink="http://www.w3.org/1999/xlink" x="0px" y="0px"
	 viewBox="0 0 150 150" enable-background="new 0 0 150 150" xml:space="preserve">
<g>
	<path fill="#415D2B" d="M64.2,77H37.7c-0.9,9,6.2,11,6.2,11h15.3c1.2,1,0,3,0,3H28c-2.3-2-2-3.2-2-3.2V64.1c0,0,0.3-4-1.6-7
		c-1.9-3-9.4-2.3-9.4-2.3v39.3c1.5,7.8,10.1,6.9,10.1,6.9H47v26h26V82.7C73,77.4,64.2,77,64.2,77z"/>
	<path fill="#415D2B" d="M27.4,60.4c0,0.1,0,0.8,0,1c0.4,4.3,0,26.6,0,26.6h11.4c0,0-3.1-3-3-7H32V63.7c0,0-0.1-7.6-7.4-8
		C24.6,55.7,26.9,56.5,27.4,60.4z"/>
	<path fill="#415D2B" d="M33,80h3v-2h-1V65.1c0,0-0.7-4.9-3.3-5.8c0,0,1.3,2.2,1.3,4.7V80z"/>
	<path fill="#415D2B" d="M126.6,57.1c-1.9,3-1.6,7-1.6,7v23.7c0,0,0.2,1.2-2.1,3.2H91.7c0,0-1.2-2,0-3h15.3c0,0,7.1-2,6.2-11H86.6
		c0,0-8.6,0.4-8.6,5.7V127h26v-26h21.7c0,0,8.8,0.9,10.3-6.9V54.8C136,54.8,128.6,54.1,126.6,57.1z"/>
	<path fill="#415D2B" d="M112,88h11.4c0,0-0.4-22.3,0-26.6c0-0.1,0-0.6,0-0.7c0.5-3.9,2.9-4.9,2.9-4.9c-7.2,0.4-7.3,7.9-7.3,7.9V81
		h-4C115.1,85,112,88,112,88z"/>
	<path fill="#415D2B" d="M118,64c0-2.5,1.3-4.7,1.3-4.7c-2.6,0.9-3.3,5.8-3.3,5.8V78h-1v2h3V64z"/>
	<path fill="#F99F1C" d="M109.8,74c0.4-2,0.6-4.2,0.6-6.3c0-19.5-15.8-35.3-35.3-35.3c-19.5,0-35.3,15.9-35.3,35.3
		c0,2.1,0.2,4.3,0.6,6.3H109.8z"/>
	<path fill="#415D2B" d="M99.4,15.6C72.7,17,74.1,29.7,74.1,29.7C94.4,31.4,99.4,15.6,99.4,15.6z"/>
	<path fill="#415D2B" d="M71.3,29.6c0,0,0-6.8-7.2-7.2C64.1,22.4,63.2,28.9,71.3,29.6z"/>
</g>
</svg>
