<?xml version="1.0" encoding="utf-8"?>
<!-- Generator: Adobe Illustrator 18.1.0, SVG Export Plug-In . SVG Version: 6.00 Build 0)  -->
<svg version="1.1" id="Layer_1" xmlns="http://www.w3.org/2000/svg" xmlns:xlink="http://www.w3.org/1999/xlink" x="0px" y="0px"
	 viewBox="0 0 150 150" enable-background="new 0 0 150 150" xml:space="preserve">
<g>
	<g>
		<path fill="none" d="M105.9,76c0,0-0.1,0.1-0.1,0.1v0.3C105.8,76.3,105.8,76.2,105.9,76z"/>
	</g>
	<g>
		<path fill="none" d="M46,109.6c-0.4,1.4,0.1,2,0.7,2.8c0.2,0,0.4,0,0.4,0.1c0.4-0.2,0.7-0.6,0.9-0.9c-0.4-0.5-0.6-1.1-0.8-1.7
			C46.9,110,46.5,110,46,109.6z"/>
	</g>
	<g>
		<path fill="none" d="M42.5,93.1c0.5,1,1.2,1.3,2,1.1v-1.1C43.9,92.8,43.2,93.1,42.5,93.1z"/>
	</g>
	<g>
		<path fill="none" d="M47.8,113.3c-0.1-0.3-0.3-0.4-0.6-0.3c0.1,0.1,0.2,0.3,0.3,0.4C47.7,113.4,47.8,113.4,47.8,113.3z"/>
	</g>
	<g>
		<path fill="none" d="M83.7,117.1c0.3,0.5,0.2,0.8,0.3,1.2c0.2-0.1,0.3-0.2,0.4-0.4C84,117.5,84.3,117,83.7,117.1z"/>
	</g>
	<g>
		<path fill="none" d="M99.6,110c0-0.2,0.1-0.4,0.2-0.6c0,0-0.1,0-0.1,0c-0.1,0.5-0.4,1.2,0.1,1.6c0.5-0.3,0.4-0.8,1.1-1
			C100.4,109.9,100,109.7,99.6,110z"/>
	</g>
	<g>
		<path fill="none" d="M97.2,56.2c-0.1,0.5-0.3,0.9-0.5,1.1l1.4,0.9C98.3,57.4,98.3,56.6,97.2,56.2z"/>
	</g>
	<g>
		<path fill="none" d="M44.5,79.4v-1C44.3,78.7,44.3,79,44.5,79.4z"/>
	</g>
	<g>
		<path fill="none" d="M44.4,70.9c0,0.1,0.1,0.1,0.1,0.2L44.4,70.9C44.5,70.9,44.5,70.9,44.4,70.9z"/>
	</g>
	<g>
		<path fill="none" d="M39.7,81.2c-0.7-0.6-0.2-1-0.5-1.5c-0.5,0.3-0.9,0.8-1.4,1.2c0.5,0.1,0.8,0.4,0.8,1.2
			c0.1-0.1,0.3-0.2,0.4-0.3c0,0,0,0,0,0C39,81.6,39.2,81.4,39.7,81.2z"/>
	</g>
	<g>
		<path fill="none" d="M110.2,63.5c0.4,1.4,1.2,0.5,1.3-0.5c-0.1-0.1-0.1-0.2-0.2-0.3C110.8,62.8,111,63.7,110.2,63.5z"/>
	</g>
	<g>
		<path fill="none" d="M107.3,106.3c-0.1,0-0.2,0.1-0.3,0.1c0.1,0.2-0.1,0.3,0,0.5c0.1,0,0.2-0.1,0.3-0.1
			C107.3,106.7,107.4,106.6,107.3,106.3z"/>
	</g>
	<g>
		<path fill="none" d="M118.1,82.3c-0.4-0.1-0.5-0.2-0.7,0.2C117.6,82.8,118,82.6,118.1,82.3z"/>
	</g>
	<g>
		<path fill="none" d="M114.6,83.1C114.6,83,114.6,83,114.6,83.1c-0.2-0.1-0.4-0.2-0.5-0.3c-0.4-0.2-0.8-0.1-1.1,0.5
			C113.5,83.3,114.5,83.4,114.6,83.1C114.7,83.1,114.6,83.1,114.6,83.1C114.6,83.1,114.6,83.1,114.6,83.1z"/>
	</g>
	<g>
		<path fill="none" d="M106.3,75.8c0,0.4,0,0.8,0.3,0.8c0.3-0.5,1.1-0.2,1.4-0.4c0-0.4-0.2-0.5-0.3-0.8
			C107.1,75.5,106.7,75.6,106.3,75.8z"/>
	</g>
	<g>
		<path fill="none" d="M111.5,61.7c-0.1,0-0.3-0.1-0.4-0.2c0,0.2,0,0.4,0.1,0.5C111.3,61.8,111.4,61.7,111.5,61.7z"/>
	</g>
	<g>
		<path fill="none" d="M115.3,82.8c0.4,0,0.9,0.1,0.9-0.2c-0.1-0.1-0.3-0.1-0.5-0.1C115.6,82.6,115.5,82.7,115.3,82.8z"/>
	</g>
	<g>
		<path fill="none" d="M54.2,118.2c0,0.1,0.1,0.2,0.1,0.3c0.2-0.1,0.3,0.1,0.5,0c0-0.1-0.1-0.2-0.1-0.3
			C54.6,118.2,54.5,118,54.2,118.2z"/>
	</g>
	<g>
		<path fill="none" d="M115.2,77.7c-0.1-0.3-0.9-0.1-0.8,0.2C114.7,77.8,115.2,78.4,115.2,77.7z"/>
	</g>
	<g>
		<path fill="none" d="M114.2,78.1c-0.1,0.4,0.5,0.7,0.6,0.3C114.4,78.5,114.5,78.1,114.2,78.1z"/>
	</g>
	<g>
		<path fill="none" d="M105.5,37.8c0.5,0.1,0.7,0,0.9-0.1c-0.2-0.2,0.2-0.7,0.5-0.6c0,0,0,0,0,0c0.1-0.1,0.2-0.2,0.4-0.4
			c-0.5-1-1.1-1.4-2.1-0.8C106.9,36.9,105.7,36.7,105.5,37.8z"/>
	</g>
	<g>
		<path fill="none" d="M112.3,40.2c-0.1-0.1-0.2-0.4-0.1-0.9c-0.5,0.2-0.6,0.5-0.8,0.8C111.7,40.2,112,40.3,112.3,40.2z"/>
	</g>
	<g>
		<path fill="none" d="M16.5,51.3c-0.2,0.1-0.4,0.1-0.7,0.1c0,0.2,0.1,0.4,0.1,0.6C16,51.8,16.2,51.5,16.5,51.3z"/>
	</g>
	<g>
		<path fill="none" d="M38.6,88c-0.4-0.9-1-1.3-1.7-1C37.4,87.6,38,88,38.6,88z"/>
	</g>
	<g>
		<path fill="none" d="M104.1,34.7c-0.5-0.7,0.7-1-0.2-1.9c-0.3,0.1-0.5,0.3-0.8,0.4c-0.2,0.2-0.4,0.3-0.1,0.6
			c1.7,0-2.2,0.3-1.1,1.6C102.8,34.6,103.2,35.4,104.1,34.7z"/>
	</g>
	<g>
		<path fill="none" d="M41.7,99.9c-2.2,0.3-3.5-3.2-6.3-0.8c0.3,0.5,0.3,0.9,0.3,1.3c2-0.9,0.6,1.2,1.2,1.8
			C37.8,100.3,40.9,101.5,41.7,99.9z"/>
	</g>
	<g>
		<path fill="none" d="M44.3,58.8c-0.5,0-0.8-0.4-1.1-0.9c-0.8,0.2-1.6,0.6-1.8,1.3C42.5,59.6,44.2,60.4,44.3,58.8z"/>
	</g>
	<g>
		<path fill="none" d="M109,58.1c0,0.1-0.1,0.2-0.1,0.3c-0.6,0.1-1.1,0-1.4-0.2c-0.3,0.6-0.7,0.4-1.4,0.7c0.2,1,0.7,0.7,1,1.5
			c-0.2,0-0.3,0-0.4,0c0.4,1.2,0.6,2.5,1.4,3.6c0.1,0,0,0.2-0.3,0.5c0.3,0,0.5-0.1,0.4-0.5c1.2,0.9,1.7-1.1,2.6-1.3
			c-0.3-0.3-0.5-0.6-0.1-1c-0.5-0.2-0.7,0-1.5,0c-0.3-0.7-0.1-1-0.6-1.4c0.1-0.5,0.5-0.7,1-0.9c-0.3-0.6-0.1-1,0.2-1.4
			C109.6,57.9,109.3,58,109,58.1z M108.1,61.7c0-0.3,0.1-0.6-0.1-0.6c0.1-0.2,0.2-0.3,0.4-0.4C108.4,61,108.7,61.6,108.1,61.7z
			 M108.4,62.8C108.5,62.1,109.2,62.9,108.4,62.8L108.4,62.8z"/>
	</g>
	<g>
		<path fill="none" d="M105.7,66.2c0.6-0.2,1.2-0.6,1.9-0.9c0-0.2,0-0.3,0-0.5c-0.5,0.5-1.2,1-1.9,1.1V66.2z"/>
	</g>
	<g>
		<path fill="none" d="M107,72.5c0,0.3-0.1,0.5-0.4,0.5c0.1-0.5-0.2-0.4-0.1-0.8c-0.2,0.1-0.5,0.1-0.7,0.1v1.3
			c0.1,0,0.2,0.1,0.3,0.2c0.5-0.1,0.9-0.9,1.4-0.4c0-0.7-0.4-0.9-0.6-1.3c-0.1,0.1-0.2,0.1-0.3,0.1C106.6,72.3,106.8,72.5,107,72.5z
			"/>
	</g>
	<g>
		<path fill="none" d="M107.8,72.5c-0.5,1.3,0.2,2,1.3,0.9C109,72.6,108.4,72.1,107.8,72.5z"/>
	</g>
	<g>
		<path fill="none" d="M104.1,50C104.1,50,104.1,50,104.1,50c0,0,0-0.1-0.1-0.1c-0.9,0.6-1.1,1.4-0.6,2.3c0.2-0.2,0.4-0.3,0.6-0.5
			C104,51.1,104,50.6,104.1,50z"/>
	</g>
	<g>
		<path fill="none" d="M109,46.1c0,0.1,0,0.3,0.1,0.4c-0.1,0-0.1,0-0.2-0.1c-0.1,0.4,0,0.7,0.4,0.7c0.1,1-0.5,1.3-0.9,1.7
			c0.2,0.1,0.4,0.1,0.6,0.1c0.4-0.2,0.9-0.5,1.2-0.4c0,0.2-0.1,0.3-0.2,0.5c0.5,0,1,0.1,1.4,0.6c0.2-0.4,0.5-0.9,0.8-1
			c-0.5-0.2-1.3-0.1-1.8-0.3c-0.3-0.8-0.4-1.1-0.3-2.4c0.2,0.1,0.4-0.1,0.6-0.4c-0.1,0.1-0.2,0.1-0.3,0.2c-0.2-0.2-0.2-0.3-0.2-0.5
			c-0.2,0-0.5,0-0.6-0.1c-0.1-0.3,0-0.4,0.1-0.5c-0.2,0.1-0.4,0.3-0.5,0.6c0,0,0,0,0,0C109.3,45.3,109.1,45.7,109,46.1z"/>
	</g>
	<g>
		<path fill="none" d="M108.3,49c-0.3,0.1-0.2-0.4-0.6-0.3c0,0.8,0.3,0.8,0.8,0.5C108.5,49.2,108.4,49.1,108.3,49z"/>
	</g>
	<g>
		<path fill="none" d="M111.4,50.1C111.4,50.1,111.4,50,111.4,50.1c-0.2,0.2-0.2,0.5-0.5,0.8c0.2,0.1,0.3,0.1,0.5,0.1
			c0.1-0.2,0.2-0.3,0.3-0.4c0-0.1-0.1-0.5-0.2-0.6C111.5,50,111.5,50,111.4,50.1C111.4,50,111.4,50,111.4,50.1z"/>
	</g>
	<g>
		<path fill="none" d="M110.9,44.5c-0.1,0-0.1,0-0.2,0c0,0.1,0,0.1,0,0.2C110.8,44.6,110.9,44.5,110.9,44.5z"/>
	</g>
	<g>
		<path fill="none" d="M97,112.5c-0.1,0.3-0.3,0.5-0.3,1c0,0.2,0.3,0.2,0.4,0.3c0.4-0.9-0.8-2,0.7-2.6c-0.1-0.4-0.3-0.4-0.4-0.6
			c-0.5,0.2-0.1,0.8-0.5,1c-0.1,0.1-0.3,0.1-0.4,0.1C96.4,112,96.4,112.5,97,112.5z"/>
	</g>
	<g>
		<path fill="none" d="M106.9,54.1c0.1-0.5-0.4-0.4-0.6-0.6c0.4-0.3,1,0.6,1.8,0.3c-0.2,0.7,0.5,0.4,0.4,0.9c0.2,0,0.3-0.2,0.6-0.2
			c-0.2-0.4-0.8-0.7-0.4-1.3c0.3,0.6,0.6-0.2,1.1-0.2c0.1,0.2,0.2,0.5,0.4,0.6c-0.2,0.3-0.5,0.4-0.4,1c-0.3,0-0.5,0-0.6,0.2
			c0.4,0,0.7,0.1,1.1,0c0.2-0.1,0.3-0.1,0.5-0.1c0,0,0.1,0,0.1,0c0.2-1-0.4-2.1,0.1-3c-0.6-0.3-1-0.6-1.3-0.9c-0.1,0-0.2,0-0.3,0
			c-0.1-0.1-0.2-0.4-0.1-0.6c-0.1-0.1-0.1-0.2-0.2-0.3c-0.5,0.4-0.9,0.7-0.5,1.2c-0.2,0.4-0.7,0.6-1,0.9c-0.2,0.6,0.3,0.4,0.3,0.9
			c-0.2,0.2-0.5,0.2-0.8,0.2c0.2-0.2,0.1-0.3,0-0.5c-0.8,0.7-1.7,0.2-2.5,0.2c-0.4,0.3-0.9,0.6-1.5,0.9c0.3,1.7,1.7,1.3,2.6,1.3
			C105.9,54.7,106.4,54.3,106.9,54.1z"/>
	</g>
	<g>
		<path fill="none" d="M104.7,56.9c-0.5,0.2-0.9,0.6-1.2,1.1c0.4,0.1,0.8,0.1,1.1,0.3c0,0,0.1-0.1,0.1-0.1
			C104.6,57.7,104.6,57.3,104.7,56.9z"/>
	</g>
	<g>
		<path fill="none" d="M99.2,113.5c0.4-0.6,0.8-1.5,1.5-0.7c0.1-0.2,0.1-0.4,0.1-0.6c0.1,0.1,0.3,0.3,0.4,0.6
			c0.1-0.1,0.2-0.2,0.3-0.3c0-0.2,0.5-0.3,0.3-0.6c-0.6-0.1-2.3,0.6-3.1-0.2c-0.5,0.5-0.5,1.3-1.1,1.8c0.4,0.3,0.9,0.1,1.4,0.2
			C99,113.4,99.1,113.4,99.2,113.5C99.2,113.4,99.2,113.5,99.2,113.5z"/>
	</g>
	<g>
		<path fill="none" d="M107.3,43.6c0.3-1,2.1-1.7,2.1-2.8c-0.3,0.1-0.7,0.1-0.9-0.2c0-0.5,0.3-0.6,0.6-0.8c0.4-0.1,0.5,0.2,0.8,0.3
			c0,0.1,0,0.2-0.1,0.3c0.1,0.1,0.3,0.1,0.5,0c0.6-0.9,0-1.6-0.9-2.2c0,0,0,0,0,0c-0.8,0.5-1.3,0.3-1.4-0.1c-1.9,1.7-6-0.5-5,3.1
			c0.3,0.4,0.9-0.1,1.4-0.3c0.5,2.1,1.1,4.7,3.1,6.7c0.3-0.5,0.5-1,0.8-1.5C107.5,45.2,109.4,43.8,107.3,43.6z M106.5,41.6
			c-0.3-1.2,1.9-0.7,1.2,0.3C107.2,42.1,107,41.4,106.5,41.6z"/>
	</g>
	<g>
		<path fill="none" d="M45,56.8c0,0.1-0.1,0.3-0.2,0.4c0.4,0.3,0.7,0.4,0.8,1.1c0.2-0.1,0.4-0.2,0.5-0.3c-0.6-0.7,0.6-1.1,0-1.8
			c-0.6,0.4-1-0.2-1.5,0.1C44.7,56.4,44.9,56.6,45,56.8z"/>
	</g>
	<g>
		<g>
			<path fill="#981A32" d="M84.9,135.8c0-0.2,0.2-0.3,0.3-0.5c-0.1,0-0.3,0-0.4,0C84.8,135.6,84.7,135.8,84.9,135.8z"/>
		</g>
		<g>
			<path fill="#981A32" d="M121.4,57.7c0.5-0.1,1-0.4,1-1c-0.3,0-0.5,0-0.8,0.1c-0.1,0.2-0.2,0.4-0.3,0.7
				C121.4,57.5,121.5,57.5,121.4,57.7z"/>
		</g>
		<g>
			<path fill="#981A32" d="M86,133c0.3,0,0.5-0.1,0.6-0.4C86.2,132.3,86.1,132.7,86,133z"/>
		</g>
		<g>
			<path fill="#981A32" d="M122.7,80.5c0.3-0.1,0.3,0.2,0.6,0.1c0-0.1,0.1-0.2,0.1-0.2c-0.1-0.1-0.3-0.2-0.3-0.3
				C122.8,80.2,122.7,80.4,122.7,80.5z"/>
		</g>
		<g>
			<path fill="#981A32" d="M115.3,36.6c0.9,0.1,1.1-0.5,1.8-0.6c0-0.9,0.6-1.2,1-1.7c-0.5-0.5-0.8,0.3-1.1,0.4c-0.2-0.3,0-0.2,0-0.6
				C116,34.4,114.5,35.3,115.3,36.6z"/>
		</g>
		<g>
			<path fill="#981A32" d="M113.8,50.5c0.2-0.2,0.4-0.4,0.6-0.6c0,0.3,0,0.6,0.3,0.5c0.1-0.3,0.1-1.1,0.4-1.3
				c0.4-0.2,0.2,0.5,0.6,0.4c-0.5-0.8,0.6-0.7,0.4-1c-0.5,0.1-1.5,0.8-1.7,0c0.9,0,1.1-0.8,1.5-1.4c-0.6-0.3-1.2,0.1-1.7,0.6
				c0-0.2-0.1-0.3-0.1-0.5c0.3-0.9,0.9-1.6,1.8-1.9c0.1-0.5-0.2-0.4-0.1-0.8c0.2,0,0.5,0,0.6-0.2c-0.2,0,0-0.2,0-0.5
				c-0.1-0.3-0.7,0.1-0.7-0.3c0.7-0.1-0.1-0.3-0.1-0.5c0.5-0.3,1.4-0.2,1.4-1.1c-0.7-0.4-1.3,0.4-1.8,0.6c-0.2-0.1-0.3-0.2-0.3-0.5
				c-0.4,0.5-0.9,0.7-1.4,0.7c-0.6,0.9-1.2,1.8-2.4,2.6c-0.2,0.3-0.4,0.5-0.6,0.4c-0.1,1.3-0.1,1.5,0.3,2.4c0.5,0.2,1.3,0.1,1.8,0.3
				c-0.3,0.2-0.6,0.7-0.8,1c0.1,0.1,0.2,0.1,0.2,0.2c-0.1,0-0.2,0.1-0.3,0.1c0.1,0.1,0.2,0.4,0.2,0.6c-0.1,0.1-0.2,0.2-0.3,0.4
				c0.7,0,1.5-0.6,2.2-0.7C113.7,50.3,113.7,50.4,113.8,50.5z"/>
		</g>
		<g>
			<path fill="#981A32" d="M117.4,57c-0.6-0.1-0.4-0.8-0.6-1.2c-0.5-0.4-1.2,0.2-1.5,0.4c-0.1,0.5,0.1,0.6,0.1,1
				c-0.6,0.6-1.6,0-1.9,0.6C115.1,57.4,116.5,59,117.4,57z"/>
		</g>
		<g>
			<path fill="#981A32" d="M119.1,62.5c0.2,0.2,1,0.2,1.2-0.1c0-0.6-0.5-0.6-1-0.7C119.5,62.2,119,62,119.1,62.5z"/>
		</g>
		<g>
			<path fill="#981A32" d="M130.7,53.9c-0.2,0-0.5,0-0.4,0.4c0.1,0,0.2,0,0.3,0C130.6,54.1,130.7,54,130.7,53.9z"/>
		</g>
		<g>
			<path fill="#981A32" d="M132.4,37.6c-0.3,0-0.2-0.4-0.6-0.3c0,0.2-0.2,0.2-0.1,0.5C131.9,38,132.3,37.9,132.4,37.6z"/>
		</g>
		<g>
			<path fill="#981A32" d="M114.4,53.9c0.1,0,0.2,0.1,0.3,0.1c0-0.2,0.2-0.2,0.1-0.5C114.5,53.5,114.4,53.7,114.4,53.9z"/>
		</g>
		<g>
			<path fill="#981A32" d="M134.9,45.9c-0.3-0.8-1.8-0.3-1.7,0.8C134,46.7,134.7,46.5,134.9,45.9z"/>
		</g>
		<g>
			<path fill="#981A32" d="M129.1,40.6c-1-0.6-2.9,1.2-1.1,1.4C128.4,41.5,128.9,41.3,129.1,40.6z"/>
		</g>
		<g>
			<path fill="#981A32" d="M80,127.5c-1,1.9,0.7,2.8,2.1,1.8C82.5,128.3,81.7,126.9,80,127.5z"/>
		</g>
		<g>
			<path fill="#981A32" d="M127.4,19.7c0.3-1-0.9-1-0.7-0.1C126.9,19.7,127.1,19.7,127.4,19.7z"/>
		</g>
		<g>
			<path fill="#981A32" d="M82.8,144.8c-0.4,0-0.5,0.3-0.6,0.7c0.4-0.2,0.3,0.4,0.7,0.3c0.1-0.2,0.2-0.4,0.1-0.8
				C83,144.9,82.8,145,82.8,144.8z"/>
		</g>
		<g>
			<path fill="#981A32" d="M87.2,123.6c0.4-0.1,0.4,0.3,0.8,0.3C88.2,123,87.5,123.3,87.2,123.6z"/>
		</g>
		<g>
			<path fill="#981A32" d="M117.7,59.4c-1.4,0.3-1.2,1.7-1.9,2.6C116.9,61.2,118.1,61.1,117.7,59.4z"/>
		</g>
		<g>
			<path fill="#981A32" d="M110.8,29.7c0.2,0,0.3-0.1,0.3-0.2c-0.1-0.1-0.2-0.3-0.2-0.4C110.7,29.3,110.6,29.6,110.8,29.7z"/>
		</g>
		<g>
			<path fill="#981A32" d="M114.6,34.1c-0.5-0.2-1.1,0.2-1.1,1c0.4,0,0.9,0,1.1-0.2C114.6,34.6,114.6,34.4,114.6,34.1z"/>
		</g>
		<g>
			<path fill="#981A32" d="M110.2,20.9c-0.2,0-0.2-0.2-0.1-0.5c-0.4,0-0.6,0.2-0.6,0.7C109.7,21,110.2,21.3,110.2,20.9z"/>
		</g>
		<g>
			<path fill="#981A32" d="M114.6,33C115.3,33.5,114.8,32,114.6,33L114.6,33z"/>
		</g>
		<g>
			<path fill="#981A32" d="M103.3,27.2c-0.3,0.1-0.8-0.2-0.7,0.4C102.8,27.8,103.3,27.7,103.3,27.2z"/>
		</g>
		<g>
			<path fill="#981A32" d="M109.5,27.1c0.7,0.1,1.3,0.1,1.3-1.1c-0.4-0.2-0.9,0-1.4,0.3C109.2,26.9,109.9,26.6,109.5,27.1z"/>
		</g>
		<g>
			<path fill="#981A32" d="M136.2,59.1c-0.3-0.5-1.1-0.4-1.7-0.5c0,0.4,0,0.8,0.1,1C135.1,59.4,136.1,59.7,136.2,59.1z"/>
		</g>
		<g>
			<path fill="#981A32" d="M116.9,46.3c0-0.1,0-0.2,0-0.3c-0.1,0-0.2,0-0.2,0c0-0.1,0-0.2,0-0.2c-0.1,0-0.2,0-0.2-0.2
				c0.8-0.5,2.7-0.7,3.2-2c-1.4,0.2-3.2,1.4-4.3,2.4C116.2,45.4,116.2,46.8,116.9,46.3z"/>
		</g>
		<g>
			<path fill="#981A32" d="M118,50.2c0.4,0,0.4-0.4,0.4-0.7C118,49.5,117.9,49.8,118,50.2z"/>
		</g>
		<g>
			<path fill="#981A32" d="M118.7,39.1c-0.3,0-0.4,0.2-0.4,0.5c0.1,0,0.3,0,0.4,0C118.7,39.4,118.7,39.2,118.7,39.1z"/>
		</g>
		<g>
			<path fill="#981A32" d="M114.2,25.5c0.5,0,0.8-0.4,0.8-1c-0.5,0-0.9,0.1-1,0.6C114.2,25,114.2,25.2,114.2,25.5z"/>
		</g>
		<g>
			<path fill="#981A32" d="M115,53.6c0.1,0.1,0.7,0.3,0.7-0.1C115.5,53.4,115.2,53.1,115,53.6z"/>
		</g>
		<g>
			<path fill="#981A32" d="M117,48.4c0-0.7,0.2-0.8-0.1-1.3C115.1,46.8,115.9,49.2,117,48.4z"/>
		</g>
		<g>
			<path fill="#981A32" d="M118.2,51c0.2-0.5-0.6-0.4-0.6-0.1C117.9,50.9,118,51.1,118.2,51z"/>
		</g>
		<g>
			<path fill="#981A32" d="M115.2,21c-0.5-0.1-0.7,0.2-1,0.4C114.2,22.4,115.5,22.1,115.2,21z"/>
		</g>
		<g>
			<path fill="#981A32" d="M114.6,58.7c0-0.2,0-0.4,0-0.6c-0.3,0.1-0.7,0.2-0.6,0.7C114.3,58.7,114.4,58.7,114.6,58.7z"/>
		</g>
		<g>
			<path fill="#981A32" d="M123.6,75.3c-0.1-0.1-0.7-0.3-0.6,0.2C123.3,75.5,123.6,75.5,123.6,75.3z"/>
		</g>
		<g>
			<path fill="#981A32" d="M75.8,132c0.4,0,0.6-0.2,0.7-0.5C76.2,131.1,75.8,131.5,75.8,132z"/>
		</g>
		<g>
			<path fill="#981A32" d="M107,72.5c-0.2-0.1-0.3-0.2-0.5-0.3c0,0,0,0,0,0c0,0.4,0.3,0.3,0.1,0.8C106.9,73.1,107,72.9,107,72.5z"/>
		</g>
		<g>
			<path fill="#981A32" d="M125.6,66.2c-0.7-0.3-1.3-0.2-1.5,0.6c0.2,0.3,0.7,0.2,1,0.4C125.1,66.8,125.5,66.7,125.6,66.2z"/>
		</g>
		<g>
			<path fill="#981A32" d="M76,138.4c1.4-0.1,1.3-1.8,0.7-2.3C75.6,136.1,75.3,137.8,76,138.4z"/>
		</g>
		<g>
			<path fill="#981A32" d="M76.3,127.7c-0.4-0.3-0.3-0.2-0.8-0.3c0,0.4-0.2,0.5-0.1,1c0.2,0.1,0.4,0.2,0.6,0.3
				C75.9,128.2,76.3,128.1,76.3,127.7z"/>
		</g>
		<g>
			<path fill="#981A32" d="M123.9,52.7C124.8,52.7,124,51.9,123.9,52.7L123.9,52.7z"/>
		</g>
		<g>
			<path fill="#981A32" d="M123.4,59c1.4,0.8,2.2-0.7,2.2-1.8C124.8,55.8,122.9,57.7,123.4,59z"/>
		</g>
		<g>
			<path fill="#981A32" d="M110.4,56.5c-0.1,0.1-0.1,0.2-0.2,0.3c0.3,0,0.5-0.1,0.7-0.3C110.7,56.5,110.5,56.5,110.4,56.5z"/>
		</g>
		<g>
			<path fill="#981A32" d="M124.8,73c-0.2-0.5-0.8,0.2-1-0.4c0.3-0.1,0.7-0.2,0.7-0.7c-0.9-0.4-1.8-1.1-2.5,0.2
				c0.2,0.4,0.3,0.8,0.6,1.1c0.5,0.2,1-0.6,1.4-0.1c-0.6,0.2-0.9,0.8-0.8,1.7c0.7,0.2,1.2-0.1,1.7-0.4
				C124.8,73.8,124.8,73.4,124.8,73z"/>
		</g>
		<g>
			<path fill="#981A32" d="M110.2,56.8c-0.1,0.3-0.1,0.4,0,0.6C110.2,57.2,110.2,57,110.2,56.8z"/>
		</g>
		<g>
			<path fill="#981A32" d="M123.5,37.9c0.2-0.1,0.7,0.1,0.6-0.4C123.8,37.5,123.6,37.6,123.5,37.9z"/>
		</g>
		<g>
			<path fill="#981A32" d="M109,58.1c-0.4,0.2-0.8,0.4-1,0.2c-0.6-1.7-2.1-2-3.3-1.5c-0.1,0.4-0.1,0.8,0.1,1.2c0,0-0.1,0.1-0.1,0.1
				c1.2,0.4,1.8,1.3,2.1,2.3c0.1,0,0.2,0,0.4,0c-0.3-0.8-0.8-0.5-1-1.5c0.7-0.4,1.1-0.1,1.4-0.7c0.3,0.3,0.8,0.3,1.4,0.2
				C109,58.3,109,58.2,109,58.1z"/>
		</g>
		<g>
			<path fill="#981A32" d="M108.4,62.8C109.2,62.9,108.5,62.1,108.4,62.8L108.4,62.8z"/>
		</g>
		<g>
			<path fill="#981A32" d="M74.5,135.3c0.1,0,0.3,0,0.4,0C75.1,134.8,74.2,134.9,74.5,135.3z"/>
		</g>
		<g>
			<path fill="#981A32" d="M108.4,60.7c-0.2,0-0.4,0.2-0.4,0.4c0.2,0,0.1,0.4,0.1,0.6C108.7,61.6,108.4,61,108.4,60.7z"/>
		</g>
		<g>
			<path fill="#981A32" d="M122.8,33.3c0.3,0,0.7-0.1,0.6-0.5c-0.2-0.3-0.5-0.1-0.7,0.1C122.7,33,122.8,33.1,122.8,33.3
				C122.8,33.3,122.8,33.3,122.8,33.3z"/>
		</g>
		<g>
			<path fill="#981A32" d="M127.1,62.1c-0.1,0.2-0.2,0.4-0.3,0.7c0.3,0,0.6,0,1-0.1C127.8,62.1,127.5,62.1,127.1,62.1z"/>
		</g>
		<g>
			<path fill="#981A32" d="M128.8,50.9c0,0.2-0.2,0.2-0.1,0.5C129,51.6,129.1,50.8,128.8,50.9z"/>
		</g>
		<g>
			<path fill="#981A32" d="M128.7,53.6c0.3,0,0.4-0.2,0.4-0.5c-0.1,0-0.3,0-0.4,0C128.7,53.3,128.7,53.4,128.7,53.6z"/>
		</g>
		<g>
			<path fill="#981A32" d="M133.5,98c-1.2-0.4-2.8-1-4.2-0.7C130.5,97.7,132.6,98.9,133.5,98z"/>
		</g>
		<g>
			<path fill="#981A32" d="M132,92.8c-0.1-0.7-1-0.6-1.8-0.5c0,0.2-0.1,0.4-0.1,0.5C130.7,92.8,131.3,93.1,132,92.8z"/>
		</g>
		<g>
			<path fill="#981A32" d="M81.4,146.4c0.1,0,0.3,0,0.4,0c0-0.2,0-0.3,0-0.5C81.5,145.9,81.4,146,81.4,146.4z"/>
		</g>
		<g>
			<path fill="#981A32" d="M132.3,86.1c0.1,0.6,0,0.6,0.1,1c0.7,0.1,0.9-0.4,1.1-0.9C133.5,85.6,132.5,85.8,132.3,86.1z"/>
		</g>
		<g>
			<path fill="#981A32" d="M133.7,77.3c-0.2,0-0.2-0.2-0.4-0.1c0,0.2,0,0.3,0,0.5c0.1,0,0.3,0,0.4,0
				C133.7,77.5,133.7,77.4,133.7,77.3z"/>
		</g>
		<g>
			<path fill="#981A32" d="M132.3,72.9c0.2-0.5-0.4-0.7-0.4-0.3c0.2,0.1,0.3,0.4,0.1,0.6c1-0.2,3.1-0.3,3.9-1.3
				C134.7,71.6,133.5,72.8,132.3,72.9z"/>
		</g>
		<g>
			<path fill="#981A32" d="M123.5,38.6c0.1-0.1,0.1-0.3,0.1-0.5c-0.1,0-0.2,0-0.2,0C123.5,38.2,123.5,38.4,123.5,38.6z"/>
		</g>
		<g>
			<path fill="#981A32" d="M126.8,74.1c0.1,0,0.3,0,0.4,0C127.5,73.6,126.6,73.7,126.8,74.1z"/>
		</g>
		<g>
			<path fill="#981A32" d="M77,128.7c0.7,0.5,1.9,0.8,2.2-0.3C79.1,126.7,76.3,126.6,77,128.7z"/>
		</g>
		<g>
			<path fill="#981A32" d="M123.7,17.4c-0.6-0.1-0.6,0.4-0.6,1C123.7,18.4,124,17.8,123.7,17.4z"/>
		</g>
		<g>
			<path fill="#981A32" d="M116.9,19.3c0,0.2-0.2,0.3-0.3,0.5C116.9,19.9,117.2,19.4,116.9,19.3z"/>
		</g>
		<g>
			<path fill="#981A32" d="M133.8,121.8c-0.2,0.3-0.2,0.7,0.3,0.6C134.1,122,134,121.8,133.8,121.8z"/>
		</g>
		<g>
			<path fill="#981A32" d="M116.7,29.4c-0.5,0-0.7,0.3-0.7,0.9C116.5,30.3,116.8,30,116.7,29.4z"/>
		</g>
		<g>
			<path fill="#981A32" d="M100.4,125.9c0.7-0.6-0.1-1,0.4-1.6c-0.4-0.7-1.8-0.7-2.4,0c-0.2,0.6,0.6,0.9,0.1,1.3
				c0.1-0.6-0.4-0.5-0.8-0.4c-0.1,0.4-0.3,0.8,0,1.1c0.8-0.3,1.9-1,2.4-0.3c-0.4,0.2-0.8,0.2-1,0.6c0.3,0.7,1.1,0.9,1.8,0.3
				C101.1,126.1,100.6,126.2,100.4,125.9z"/>
		</g>
		<g>
			<path fill="#981A32" d="M108.7,35.8c0,0.1,0,0.1,0,0.2c0.1,0,0.3,0.1,0.4,0.1C109,35.9,108.9,35.8,108.7,35.8z"/>
		</g>
		<g>
			<path fill="#981A32" d="M112.1,103.6c-0.3,0.1-1-0.2-0.8,0.4C111.5,104.4,112.3,104.5,112.1,103.6z"/>
		</g>
		<g>
			<path fill="#981A32" d="M116.3,38.5c0,0.1-0.1,0.2-0.1,0.2C116.2,38.7,116.3,38.6,116.3,38.5z"/>
		</g>
		<g>
			<path fill="#981A32" d="M114.8,79.9C114.8,79.9,114.8,79.8,114.8,79.9C114.7,79.8,114.7,79.8,114.8,79.9
				C114.7,79.8,114.7,79.9,114.8,79.9z"/>
		</g>
		<g>
			<path fill="#981A32" d="M113.8,80.1c0,0.1,0.1,0.2,0.1,0.2c0.3-0.2,0.5-0.3,0.8-0.5C114.3,79.9,113.9,79.9,113.8,80.1z"/>
		</g>
		<g>
			<path fill="#981A32" d="M113.8,109.4c-0.6-1.1-1.1-2.4-2.1-3.1c0.1,0.4-0.3,0.3-0.3,0.7C112.7,107.3,112.3,109.4,113.8,109.4z"/>
		</g>
		<g>
			<path fill="#981A32" d="M77.2,122c0.1-0.6-0.2-0.6-0.1-1.1c-0.2,0-0.3,0-0.5,0c-0.1,0.2-0.3,0.3-0.4,0.5
				C76.3,121.8,76.7,122.1,77.2,122z"/>
		</g>
		<g>
			<path fill="#981A32" d="M112.2,123.5c0.2,0,0.3,0.2,0.6,0.1c0.2-0.2,0.2-0.8,0-1C112.4,122.7,112.2,123,112.2,123.5z"/>
		</g>
		<g>
			<path fill="#981A32" d="M117.7,75.8c-0.7,0-1.1-0.5-1.9-0.3c0,0.6-0.2,1-0.6,1.3c0-0.3,0-0.6-0.3-0.5c-0.4,0.3,0.5,0.7,0.1,1
				c-0.4,0.1-0.6-0.1-0.6-0.6c-1,0.6-2.2,0.2-2.5,1.6c0.4,0.6,1.3,1,1.9,0.3c0.5,0.4,1.3,0.6,1.4,1.5c-0.1,0-0.1,0.1-0.2,0.1
				c0.5,0.5,0.8,0.9,0.9,1.3c0.2-0.2,0.5-0.2,0.8-0.3c-0.5-0.5,0-0.7-0.1-1.1c-1.1,0.1-1.1-0.9-1.7-1.5c0.3-0.4,0.7-0.7,1.4-0.7
				c0.1-0.5-0.2-0.5-0.3-0.8c0.3-0.2,0.6-0.4,1.1-0.4C117,76,117.7,76.3,117.7,75.8z M114.2,78.1c0.3,0,0.2,0.4,0.6,0.3
				C114.7,78.8,114.1,78.5,114.2,78.1z M114.3,77.9c-0.1-0.4,0.8-0.6,0.8-0.2C115.2,78.4,114.7,77.8,114.3,77.9z"/>
		</g>
		<g>
			<path fill="#981A32" d="M110.7,107.6c0.1-0.7-0.6-1-1-0.6C109.6,107.8,110.3,108,110.7,107.6z"/>
		</g>
		<g>
			<path fill="#981A32" d="M92.7,128.9c0.1,0.1,0.1,0.3,0.1,0.4c0.1,0,0.3-0.1,0.3-0.3C93,128.8,92.8,128.8,92.7,128.9z"/>
		</g>
		<g>
			<path fill="#981A32" d="M109.3,108C110.2,108.1,109.4,107.3,109.3,108L109.3,108z"/>
		</g>
		<g>
			<path fill="#981A32" d="M114.6,83.1C114.6,83,114.6,83,114.6,83.1C114.6,83,114.6,83,114.6,83.1
				C114.6,83.1,114.6,83.1,114.6,83.1z"/>
		</g>
		<g>
			<path fill="#981A32" d="M110,116.1c0.3,0.1,0,1,0.6,0.8c0.4-0.1,0.6-0.5,0.6-1.2C110.8,115.9,109.9,115.5,110,116.1z"/>
		</g>
		<g>
			<path fill="#981A32" d="M111.1,118c0,0.3,0,0.5,0,0.8C111.8,118.8,111.4,118.1,111.1,118z"/>
		</g>
		<g>
			<path fill="#981A32" d="M110.3,113.1c0,0.1,0,0.2,0,0.3c0.1,0,0.2,0.1,0.3,0.1C110.6,113.3,110.6,113,110.3,113.1z"/>
		</g>
		<g>
			<path fill="#981A32" d="M110.7,111.9c0-0.2,0-0.3,0-0.5c-0.3,0.1-0.8-0.2-0.7,0.4C110.3,111.9,110.5,112.2,110.7,111.9z"/>
		</g>
		<g>
			<path fill="#981A32" d="M114.2,138c-0.3,0.2-0.5,0.4-0.4,1c0.5,0.4,1.1,0.1,1.8-0.1C115.3,138,114.8,138.4,114.2,138z"/>
		</g>
		<g>
			<path fill="#981A32" d="M114.7,134.3c0.3,0.3,0.9,0.4,1.4,0.1c0-0.6-0.4-0.6-0.4-1.1C115.2,133.4,114.7,133.5,114.7,134.3z"/>
		</g>
		<g>
			<path fill="#981A32" d="M115.8,141.2c0,0.2-0.2,0.2-0.3,0.3c0.2,0,0.2,0.2,0.4,0.1c0-0.1,0-0.2,0-0.3
				C116,141.3,116,141.2,115.8,141.2z"/>
		</g>
		<g>
			<path fill="#981A32" d="M90,119.7c0.2,1,0.6,2.2,1,3.4c0.6,0,1.3-0.4,1.8-1C92.6,120.4,91.6,119.7,90,119.7z"/>
		</g>
		<g>
			<path fill="#981A32" d="M115,118.7c-0.1,0.6,0.4,0.6,0.4,1.1c0.5,0,0.9-0.2,1.1-0.6C116.4,118.5,115.6,118.3,115,118.7z"/>
		</g>
		<g>
			<path fill="#981A32" d="M113.2,114.8c0.1-0.2,0.1-0.6,0.3-0.8c-0.2,0-0.4,0-0.6-0.1C112.7,114.3,112.6,114.8,113.2,114.8z"/>
		</g>
		<g>
			<path fill="#981A32" d="M113.9,128.1c-0.3,0.8,0.1,1.1,0.7,1.2c0.2-0.6,0.4-0.8,0-1.3C114.2,127.9,114.2,128.3,113.9,128.1z"/>
		</g>
		<g>
			<path fill="#981A32" d="M115.3,115.3c0,0.2-0.1,0.4-0.1,0.5c0.1,0,0.3,0,0.4,0c0-0.1,0-0.2,0-0.3
				C115.4,115.4,115.4,115.3,115.3,115.3z"/>
		</g>
		<g>
			<path fill="#981A32" d="M106,131.1c-0.1,0.9,0.4,1,1.1,0.9C107.2,131,106.7,130.9,106,131.1z"/>
		</g>
		<g>
			<path fill="#981A32" d="M115,99.7c0.2-0.8-0.8-0.8-0.7-0.1C114.6,99.7,114.8,100,115,99.7z"/>
		</g>
		<g>
			<path fill="#981A32" d="M99.2,114.1C99.2,114.1,99.2,114.1,99.2,114.1C99.2,114.1,99.2,114.1,99.2,114.1
				C99.2,114.1,99.2,114.1,99.2,114.1z"/>
		</g>
		<g>
			<path fill="#981A32" d="M96.5,117.8c0.4-0.4,1.3-0.2,1.1,0.5c0.2-0.1,0.3-0.1,0.5-0.3c0.2-0.5,0.6-0.8,0.6-1.6
				c-0.3-0.4-0.5-0.6-0.6-1c-0.2,0-0.3-0.1-0.5-0.1c0,0.2-0.1,0.5-0.3,0.5C96.3,115.6,96.1,117,96.5,117.8z"/>
		</g>
		<g>
			<path fill="#981A32" d="M100.4,114.7c-0.2-0.1-0.5-0.3-0.7-0.5c0,0.1-0.1,0.3,0,0.5C99.9,114.8,100.1,114.8,100.4,114.7z"/>
		</g>
		<g>
			<path fill="#981A32" d="M116,106.7c-0.3,0.4-0.2,0.7,0,1.1c0.5,0,1-0.1,1-0.7C116.8,106.8,116.5,106.6,116,106.7z"/>
		</g>
		<g>
			<path fill="#981A32" d="M115.6,100c0.2,0.5,0.5,1.4,1,1.1C116.6,100.3,116.1,100.1,115.6,100z"/>
		</g>
		<g>
			<path fill="#981A32" d="M116.8,121.6c0.2,0,0.2,0.2,0.4,0.3C117.7,121.4,116.9,120.9,116.8,121.6z"/>
		</g>
		<g>
			<path fill="#981A32" d="M115.4,109.3c0.5,0.3,1.1,0,1.3-0.6C116.4,108.3,115.3,108.4,115.4,109.3z"/>
		</g>
		<g>
			<path fill="#981A32" d="M123.7,49.5C124.5,49.5,123.8,48.7,123.7,49.5L123.7,49.5z"/>
		</g>
		<g>
			<path fill="#981A32" d="M98.8,135.4c0-0.4-0.1-0.7-0.6-0.6C98.3,135.2,98.3,135.6,98.8,135.4z"/>
		</g>
		<g>
			<path fill="#981A32" d="M109.1,49c0.3,0,0.7,0,1.1,0c0.1-0.1,0.2-0.3,0.2-0.5C110,48.5,109.5,48.8,109.1,49z"/>
		</g>
		<g>
			<path fill="#981A32" d="M97.8,135.8c0,0.5,0.4,0.3,0.4,0.8c-0.3,0.3-0.3-0.1-0.7,0.1c-0.4,1.8,0.7,3,2.4,2.4
				C101.3,136.7,99.1,135.7,97.8,135.8z"/>
		</g>
		<g>
			<path fill="#981A32" d="M109.2,50.3c0,0.2,0,0.4,0.1,0.6c0.1,0,0.2,0,0.3,0C109.5,50.7,109.4,50.5,109.2,50.3z"/>
		</g>
		<g>
			<path fill="#981A32" d="M109.8,45c0.1,0.1,0.4,0.2,0.6,0.1c0-0.2,0.2-0.4,0.4-0.6c0-0.1,0-0.1,0-0.2c-0.3-0.1-0.6-0.1-0.9,0.1
				C109.8,44.7,109.7,44.8,109.8,45z"/>
		</g>
		<g>
			<path fill="#981A32" d="M110.3,54.9c0.2,0,0.3-0.1,0.5-0.1C110.6,54.8,110.4,54.8,110.3,54.9z"/>
		</g>
		<g>
			<path fill="#981A32" d="M111.4,50.1C111.4,50,111.4,50,111.4,50.1C111.4,50,111.4,50,111.4,50.1C111.4,50,111.4,50.1,111.4,50.1z
				"/>
		</g>
		<g>
			<path fill="#981A32" d="M98.9,129.7c0.1-0.8-0.9-0.4-1.1-0.9c0.4-0.3,0.1-0.4,0.1-1c-2,0.9-3.6,0.3-4.7,2.1
				c0.3,0.8,0.3,1.7,0,2.6c0.5-0.1,0.4,0.4,0.4,0.9c1.3,0.5,2.5-0.3,3.5,0.4c-0.1-0.5-0.5-0.5-0.7-0.9c1-0.7,2.4-1.4,3.1-3
				c-0.4,1,1,0.9,1.4,0.4c-0.1-0.5-0.1-0.5,0-1C100.2,128.7,99.5,129.4,98.9,129.7z"/>
		</g>
		<g>
			<path fill="#981A32" d="M107,52.8c0.1,0.2,0.2,0.3,0,0.5c0.3,0,0.7,0,0.8-0.2c0.1-0.5-0.4-0.3-0.3-0.9c0.3-0.3,0.7-0.5,1-0.9
				c-0.3-0.5,0-0.9,0.5-1.2c-0.2-0.2-0.3-0.5-0.5-0.7c-0.5,0.2-0.9,0.3-0.8-0.5c0.4-0.1,0.3,0.3,0.6,0.3c-0.1-0.1-0.2-0.3-0.4-0.4
				c0.2,0.1,0.4,0.2,0.6,0.3c0.4-0.5,1-0.7,0.9-1.7c-0.4,0-0.5-0.4-0.4-0.7c-0.3-0.1-0.5-0.2-0.6-0.3c-0.3,0.5-0.6,1-0.8,1.5
				c0.2,0.2,0.3,0.4,0.6,0.5c-1.3,0.5-0.7,1.5,0,2.4c-1.7,0.7-2.4,1.7-3.5,2.5C105.3,53,106.2,53.5,107,52.8z"/>
		</g>
		<g>
			<path fill="#981A32" d="M94.7,124.7c0.9,0.3,2.2-0.5,3.2-0.6c0-0.5-0.3-0.5-0.3-0.9c-0.4-0.2-0.8,0.4-0.8,0.1
				c0.6-1.5-1.1-2.1-2.5-1.6C93.2,122.8,93.5,124.3,94.7,124.7z"/>
		</g>
		<g>
			<path fill="#981A32" d="M89.2,137.4c-0.1,0.4-0.4,0.5-0.4,1c0.4,0.3,0.7,0.6,0.7,1.1c0.8,0,0.9-0.7,1.1-1.2
				C90.2,137.7,89.8,137.4,89.2,137.4z"/>
		</g>
		<g>
			<path fill="#981A32" d="M105.3,127.4c0.2,0.2,0.6,0.1,0.6-0.4C105.5,127,105.3,127.1,105.3,127.4z"/>
		</g>
		<g>
			<path fill="#981A32" d="M97.6,136.2c0-0.1,0-0.2,0-0.3c0-0.1-0.6-0.4-0.6-0.1C97.5,135.7,97.2,136.3,97.6,136.2z"/>
		</g>
		<g>
			<path fill="#981A32" d="M89.9,134.7c0-0.6-0.2-0.9-0.7-0.9c-0.2,0.2-0.2,0.6-0.1,1C89.6,134.7,89.4,134.9,89.9,134.7z"/>
		</g>
		<g>
			<path fill="#981A32" d="M109.4,45.1C109.3,45.1,109.3,45.1,109.4,45.1c-0.2,0.4-0.3,0.7-0.3,1C109.1,45.7,109.3,45.3,109.4,45.1z
				"/>
		</g>
		<g>
			<path fill="#981A32" d="M104.1,50C104.1,50,104.1,50,104.1,50c-0.1,0.7-0.1,1.2-0.1,1.7C104.5,51.2,104.8,50.7,104.1,50z"/>
		</g>
		<g>
			<path fill="#981A32" d="M109.8,53.1c-0.5,0-0.9,0.9-1.1,0.2c-0.4,0.5,0.3,0.9,0.4,1.3c-0.3,0-0.3,0.2-0.6,0.2
				c0.1-0.5-0.6-0.2-0.4-0.9c-0.8,0.2-1.4-0.6-1.8-0.3c0.2,0.2,0.6,0.1,0.6,0.6c-0.5,0.2-0.9,0.6-1.3,1c0.5,0,0.9,0,0.8,0.7
				c1.1-1,2-1,2.8-1c0.1-0.2,0.4-0.2,0.6-0.2c-0.1-0.6,0.2-0.7,0.4-1C110,53.5,109.9,53.3,109.8,53.1z"/>
		</g>
		<g>
			<path fill="#981A32" d="M99,120.8c0,0.5-0.1,1.2,0.1,1.4c1.3-0.1,2.3,1.2,2.9-0.5C101.7,120.4,100.2,121.3,99,120.8z"/>
		</g>
		<g>
			<path fill="#981A32" d="M113.2,136.5c0.1,0,0.2,0,0.3,0c0-0.2,0-0.3,0-0.5c-0.1,0-0.2,0-0.3,0
				C113.2,136.1,113.2,136.3,113.2,136.5z"/>
		</g>
		<g>
			<path fill="#981A32" d="M95.6,125.3c-0.3,0-0.6,0-1,0.1C94.3,126.8,95.8,126.6,95.6,125.3z"/>
		</g>
		<g>
			<path fill="#981A32" d="M103.9,128.2c-0.2,0.7,0.5,0.9,0.1,1.3c0.9,0,0.9,0.1,1.7-0.3c0-0.3,0-0.6,0-1
				C105.2,127.8,104.5,127.6,103.9,128.2z"/>
		</g>
		<g>
			<path fill="#981A32" d="M103.9,126.4c0.3,0.3,0.5,0,0.6-0.4C104.2,126.1,104,126.2,103.9,126.4z"/>
		</g>
		<g>
			<path fill="#981A32" d="M106.5,118.2c0-0.4,0-0.6-0.3-0.6C106,117.8,106.1,118.3,106.5,118.2z"/>
		</g>
		<g>
			<path fill="#981A32" d="M122.1,53.4c0.2-0.5-0.6-0.4-0.4,0C121.9,53.5,122,53.4,122.1,53.4z"/>
		</g>
		<g>
			<path fill="#981A32" d="M104.7,122.2c-0.2,0.3-0.1,0.8-0.1,1.3c0.3,0,0.6,0,0.6,0.4c0.5-0.2,0.8-0.5,1.1-0.9
				C106.1,122.3,105.6,122.1,104.7,122.2z"/>
		</g>
		<g>
			<path fill="#981A32" d="M95.3,118.7c-0.1-0.1-0.7-0.3-0.6,0.2C94.9,118.9,95.3,118.9,95.3,118.7z"/>
		</g>
		<g>
			<path fill="#981A32" d="M109.5,38.2C109.5,38.2,109.5,38.2,109.5,38.2c-0.3-0.2-0.6-0.4-1-0.6c-0.1,0.2-0.3,0.4-0.4,0.5
				C108.2,38.5,108.7,38.7,109.5,38.2z"/>
		</g>
		<g>
			<path fill="#981A32" d="M96,121.2c0.7,0.2,0.8-0.8,0.6-1.2C95.8,120.1,95.9,120.5,96,121.2z"/>
		</g>
		<g>
			<path fill="#981A32" d="M97.9,127.3c0-0.3,0-0.5,0-0.8c-1-0.5-1.5,0-1.5,1.1C97.1,127.4,97.1,127.7,97.9,127.3z"/>
		</g>
		<g>
			<path fill="#981A32" d="M109.1,40.1c0.3-0.1,0.5,0.1,0.7,0.3c0-0.1,0.1-0.2,0.1-0.3c-0.3-0.1-0.4-0.4-0.8-0.3
				c-0.2,0.2-0.5,0.4-0.6,0.8c0.2,0.3,0.6,0.3,0.9,0.2C109.4,40.6,109.3,40.4,109.1,40.1z"/>
		</g>
		<g>
			<path fill="#981A32" d="M122.1,49.6c0.2,0.2,0.9,0.1,0.8-0.4C122.7,49.1,122.2,49,122.1,49.6z"/>
		</g>
		<g>
			<path fill="#981A32" d="M97.2,119.7c-0.4,1,0.3,1.4,1,1.5c0-0.5,0.5-0.5,0.6-1C98.4,119.7,98,119.3,97.2,119.7z"/>
		</g>
		<g>
			<path fill="#981A32" d="M89.6,140.1c0.3-0.1,0.3,0.2,0.6,0.1c0-0.2,0-0.4,0-0.6C89.8,139.6,89.5,139.7,89.6,140.1z"/>
		</g>
		<g>
			<path fill="#981A32" d="M112.4,72.3c0,0.3,0.2,0.3,0.3,0.5c0,0.2-0.1,0.2-0.1,0.3C113.1,73.2,112.8,72,112.4,72.3z"/>
		</g>
		<g>
			<path fill="#981A32" d="M128.2,89.4c0,0.6,0.5,0.4,0.7,0.3C128.5,89.8,128.7,89.3,128.2,89.4z"/>
		</g>
		<g>
			<path fill="#981A32" d="M119.5,78.8c0.4,0,0.6-0.2,0.7-0.5c-0.4-0.3-0.7-0.3-0.8,0.2C119.5,78.6,119.5,78.6,119.5,78.8z"/>
		</g>
		<g>
			<path fill="#981A32" d="M128.9,102.4c0,0.2-0.2,0.3-0.1,0.6c0.2,0,0.4,0,0.6,0.1C129.4,102.7,129.4,102.3,128.9,102.4z"/>
		</g>
		<g>
			<path fill="#981A32" d="M119.5,94.9c0.2-0.8-0.7-0.7-0.6,0C119.1,94.9,119.3,94.9,119.5,94.9z"/>
		</g>
		<g>
			<path fill="#981A32" d="M129.9,124.6c0.2,1-0.8,0.5-0.7,1.3c0.7,0.2,0.6-0.8,1.7-0.4C131,124.7,130.6,124.4,129.9,124.6z"/>
		</g>
		<g>
			<path fill="#981A32" d="M100.9,110c0,0,0.1,0,0.1,0c-0.2-0.7-0.7-0.5-1.2-0.5c-0.1,0.2-0.2,0.4-0.2,0.6
				C100,109.7,100.4,109.9,100.9,110z"/>
		</g>
		<g>
			<path fill="#981A32" d="M125.3,92.4c0.5,0.6,0.8,0.5,0.3-0.2c0.4-0.1,0.8-0.1,1-0.4c-0.4-0.2-0.7-0.6-0.7-0.8
				c0.1-0.5-0.3,0.4-0.6-0.8c-1.2-0.1-1.9,0.4-2.4,1.1c-0.1-0.1-0.7-0.7-0.7,0.1c1.7,1.5,3.7,1.7,5.7,2.9
				C127.3,93.5,125.8,93.5,125.3,92.4z"/>
		</g>
		<g>
			<path fill="#981A32" d="M91.1,116.8c0.3,1.2,1.4,0.4,2.5,0.3c0.3-0.4,0.5-0.8,0.5-1.1c-0.3-0.2-0.6-0.4-0.9-0.9
				c-0.5,0.7-0.9,0-1.4-0.2c-0.4,0.3,0.3,0.5,0.3,0.8c-0.7-0.6-0.8,0.4-1.3,0c-0.3,0.2-0.2,0.4-0.1,0.8c-0.4,0.3-0.4-0.2-0.8-0.1
				c0,0.1,0,0.2,0,0.2C90.3,117,90.8,117.3,91.1,116.8z"/>
		</g>
		<g>
			<path fill="#981A32" d="M118.8,91.1c0.2,0,0.4,0,0.4-0.2c-0.1,0-0.2,0-0.1-0.2C118.9,90.8,118.7,90.8,118.8,91.1z"/>
		</g>
		<g>
			<path fill="#981A32" d="M118.2,92.9c-0.2,0,0-0.2,0-0.5c-0.4,0-0.6,0.1-0.6,0.5C117.8,93,118.2,93.3,118.2,92.9z"/>
		</g>
		<g>
			<path fill="#981A32" d="M118.5,75.5c-0.3,0.3-0.3,0.7-0.1,1.1c0.5-0.1,0.9-0.3,1-0.9C118.9,75.9,119,75.3,118.5,75.5z"/>
		</g>
		<g>
			<path fill="#981A32" d="M109.4,105.5c-0.4,0-0.6,0.1-0.8,0.4c0.4,0.1,0.4,0.7,0.8,0.8C109.1,106.2,109.3,105.9,109.4,105.5z"/>
		</g>
		<g>
			<path fill="#981A32" d="M135.7,87.7C136.4,88.1,136.2,87.1,135.7,87.7L135.7,87.7z"/>
		</g>
		<g>
			<path fill="#981A32" d="M132.1,142.6c0.8,0.7,1.1,2.7,2.1,2.6C133.6,144.4,132.9,142,132.1,142.6z"/>
		</g>
		<g>
			<path fill="#981A32" d="M115,74c0,0.3,0,0.6,0.3,0.5C115.3,74.2,115.2,74.1,115,74z"/>
		</g>
		<g>
			<path fill="#981A32" d="M95.4,114.5c0.3,0.4,0.7,0.7,1.3,0.7c0-0.3,0.4-0.9-0.1-1c0.2-0.1,0.4-0.3,0.4-0.5
				c-0.1-0.1-0.4-0.1-0.4-0.3c-0.1-0.5,0.2-0.6,0.3-1c-0.5,0-0.5-0.5-0.5-0.9c-0.3-0.1-0.5-0.5-0.9-0.5c-0.1,0.7,0.2,1.5-0.5,1.9
				c0.1,0,0.1,0.1,0.2,0.1C95.5,113.7,95.6,113.8,95.4,114.5z"/>
		</g>
		<g>
			<path fill="#981A32" d="M135.4,99.2c0.2,0.2,0.7,0.2,0.8-0.1c0-0.4,0-0.6-0.1-0.8C135.6,98.3,135.4,98.6,135.4,99.2z"/>
		</g>
		<g>
			<path fill="#981A32" d="M123.5,41c-0.7-0.3-1.5,0.5-1.7,1.2C122.5,41.9,123.2,41.6,123.5,41z"/>
		</g>
		<g>
			<path fill="#981A32" d="M134.8,85.7c0.2-0.4,0.3-0.3,0.1-0.8c-0.3,0-0.5,0.1-0.7,0.2c0,0.2,0,0.3,0,0.5
				C134.5,85.5,134.5,85.8,134.8,85.7z"/>
		</g>
		<g>
			<path fill="#981A32" d="M90.4,123.1c-0.2-1.2-0.4-2.3-0.7-3.2c0,0-0.1,0-0.1,0C88.5,121.6,89.3,122.8,90.4,123.1z"/>
		</g>
		<g>
			<path fill="#981A32" d="M134.3,105c-0.1,0.2-0.1,0.6-0.3,0.8c0.6,0,1-0.1,1-0.7C134.7,105.2,134.7,104.9,134.3,105z"/>
		</g>
		<g>
			<path fill="#981A32" d="M119.2,91.7c-0.4-0.1-0.5-0.2-0.7,0.2C118.7,92.2,119.2,92.4,119.2,91.7z"/>
		</g>
		<g>
			<path fill="#981A32" d="M119.6,92.3c0.3-0.1,0.3,0.3,0.7,0.1c0-0.1,0-0.2,0-0.3C120.2,91.7,119.7,92.1,119.6,92.3z"/>
		</g>
		<g>
			<path fill="#981A32" d="M120.3,70.9c0,0.2-0.2,0.3-0.1,0.6c0.1,0,0.2,0,0.3,0.1c0.2,0,0.4-0.1,0.4-0.4
				C120.6,71.2,120.7,70.8,120.3,70.9z"/>
		</g>
		<g>
			<path fill="#981A32" d="M118.1,89.4c-1.3-1.7-2.5,1.9-0.1,0.7C117.9,89.7,118.1,89.7,118.1,89.4z"/>
		</g>
		<g>
			<path fill="#981A32" d="M104.7,114.1c0.3,0.7,0.7,1.5,0.7,2.1c0.1-0.1,0.3-0.1,0.4-0.2c-0.1-0.7-0.4-1.4-0.8-1.8
				C105,114.2,104.9,114.1,104.7,114.1z"/>
		</g>
		<g>
			<path fill="#981A32" d="M119.8,72.5c0,0.2,0,0.3-0.1,0.7c0.4,0,0.6-0.2,0.7-0.5C120.2,72.9,120,72.8,119.8,72.5z"/>
		</g>
		<g>
			<path fill="#981A32" d="M120.6,51.1c-0.2,0.3,0,0.2,0,0.6C121.1,51.9,121.1,51,120.6,51.1z"/>
		</g>
		<g>
			<path fill="#981A32" d="M115.2,87.7c0.5,0.4,0.9,0.1,1.4-0.3C116.2,87.1,115.3,87,115.2,87.7z"/>
		</g>
		<g>
			<path fill="#981A32" d="M119.2,137.6C119.7,138.4,119.8,137,119.2,137.6L119.2,137.6z"/>
		</g>
		<g>
			<path fill="#981A32" d="M122.8,70.1c0.5-0.3,1.2-0.3,1.5-0.8c-0.6,0.1,0-0.5,0-0.6c-0.6,0.2-0.3-0.2-0.3-0.6
				C123.1,67.9,121.5,69.3,122.8,70.1z"/>
		</g>
		<g>
			<path fill="#981A32" d="M118.5,127.2c0.3-0.1,0.3,0.2,0.6,0.1c0.3-0.4-0.3-0.6-0.4-0.9C118.5,126.6,118.4,126.9,118.5,127.2z"/>
		</g>
		<g>
			<path fill="#981A32" d="M119.9,94.1c-0.2,0-0.3,0.1-0.3,0.3c0.2,0,0.4,0,0.4-0.2C119.9,94.2,119.9,94.2,119.9,94.1z"/>
		</g>
		<g>
			<path fill="#981A32" d="M124.2,130.7c0,0.2-0.2,0.3-0.3,0.5c0.1,0,0.3,0,0.4,0c0-0.1,0-0.2,0-0.3
				C124.3,130.7,124.3,130.6,124.2,130.7z"/>
		</g>
		<g>
			<path fill="#981A32" d="M125.9,123.5c0.1,0.6,1,2.1,1.4,0.9C126.5,124.4,126.5,123.5,125.9,123.5z"/>
		</g>
		<g>
			<path fill="#981A32" d="M123.1,101.4c0.1,0,0.2,0,0.3,0c0-0.2,0-0.3,0-0.5c-0.1,0-0.2,0-0.3,0C123.1,101,123.1,101.2,123.1,101.4
				z"/>
		</g>
		<g>
			<path fill="#981A32" d="M116.4,78.9c-0.1,0.2-0.2,0.4-0.1,0.8c0.2,0.2,0.9,0.2,1.1-0.1C117.4,79,117.1,78.7,116.4,78.9z"/>
		</g>
		<g>
			<path fill="#981A32" d="M99.2,113.5C99.2,113.5,99.2,113.4,99.2,113.5c-0.1-0.1-0.2-0.1-0.3,0C99,113.5,99.1,113.5,99.2,113.5
				C99.2,113.5,99.2,113.5,99.2,113.5z"/>
		</g>
		<g>
			<path fill="#981A32" d="M121.8,96.3c0,0.2-0.2,0.3-0.1,0.7c0.2-0.1,0.7,0.1,0.7-0.2C122.2,96.6,122.1,96.3,121.8,96.3z"/>
		</g>
		<g>
			<path fill="#981A32" d="M104.9,120.1c0.1-0.3,0.4-0.4,0.3-1c-0.2-0.3-0.6-0.5-0.8-0.7c0.2-0.2,0.5-0.4,0.8-0.5
				c0-0.7,0.1-0.8,0-1.3c-0.4,0.3-0.9,0.3-1.3,0.2c-0.4,0.4-1,0.6-1.8,0.5c-0.3-0.3-0.5-0.7-0.7-1c-0.1,0.5-0.1,1,0,1.6
				c0.8,0.5,1.4,0.5,1.9,1c-0.2,0.1-0.2,0.5-0.3,0.8C103.5,120,104,120.2,104.9,120.1z"/>
		</g>
		<g>
			<path fill="#981A32" d="M120.6,87.6c0.3,0,0.4-0.2,0.4-0.5c-0.1,0-0.3,0-0.4,0C120.6,87.3,120.6,87.4,120.6,87.6z"/>
		</g>
		<g>
			<path fill="#981A32" d="M122,91.8c-0.1-0.1-0.8-0.4-0.7,0.2C121.6,92.1,121.8,92.2,122,91.8z"/>
		</g>
		<g>
			<path fill="#981A32" d="M118.9,85.6c0-0.2-1-0.3-0.8,0.2C118.5,85.6,118.9,86.3,118.9,85.6z"/>
		</g>
		<g>
			<path fill="#981A32" d="M107,37.1C107,37.1,107,37.1,107,37.1c-0.4-0.2-0.7,0.3-0.5,0.6C106.6,37.5,106.8,37.3,107,37.1z"/>
		</g>
		<g>
			<path fill="#981A32" d="M116.6,75c0.1,0.1,0.7,0.3,0.7-0.1c-0.2-0.2-0.2-0.7-0.7-0.6C116.6,74.6,116.6,74.8,116.6,75z"/>
		</g>
		<g>
			<path fill="#981A32" d="M109.2,104c0.2-0.3,0.4-0.5,0.7-0.7c-0.2-0.2-0.5-0.3-0.6-0.7c-0.4,0.2-0.2,0.4-0.6,0.3
				C108.9,103.3,109,103.6,109.2,104C109.2,104,109.2,104,109.2,104z"/>
		</g>
		<g>
			<path fill="#981A32" d="M110.6,91.8c-0.4,0.1-0.6-0.5-1.1-0.1c0.1,0.4,0.3,0.6,0.5,0.7C110.3,92.3,110.6,92,110.6,91.8z"/>
		</g>
		<g>
			<path fill="#981A32" d="M135.9,32.3c0.1-0.4,0.7-0.3,0.7-0.7c-0.3,0-0.2-0.4-0.7-0.3C135.8,31.7,135.4,32.3,135.9,32.3z"/>
		</g>
		<g>
			<path fill="#981A32" d="M119.2,80.3c0.2-0.5-0.7-0.4-0.7-0.1C118.7,80.3,118.9,80.4,119.2,80.3z"/>
		</g>
		<g>
			<path fill="#981A32" d="M116.6,69.9C117.4,70,116.7,69.2,116.6,69.9L116.6,69.9z"/>
		</g>
		<g>
			<path fill="#981A32" d="M119.3,70.8c-0.1-0.1-0.9-0.3-1,0.1C118.7,70.7,119.1,71.3,119.3,70.8z"/>
		</g>
		<g>
			<path fill="#981A32" d="M118.8,68.3c-0.1-0.6-1.5,0.5-1.5,0.4C117.7,68.5,118.8,69,118.8,68.3z"/>
		</g>
		<g>
			<path fill="#981A32" d="M119.3,99.2c0-0.5-0.4-0.5-0.7-0.6c-0.1,0.2-0.2,0.4-0.3,0.7C118.6,99.6,119,99.3,119.3,99.2z"/>
		</g>
		<g>
			<path fill="#981A32" d="M117.5,73.4c-0.2,0-0.4,0-0.6,0C116.9,74,117.6,74,117.5,73.4z"/>
		</g>
		<g>
			<path fill="#981A32" d="M133.6,81.6c1.4,0.1,2.5,0.8,3.2-0.2C135.9,81.1,134.7,81.2,133.6,81.6z"/>
		</g>
		<g>
			<path fill="#981A32" d="M107.5,95.4c1.2-0.8,2.1-1.7,1.8-3.2c-0.7,0.2-0.2,0.9-0.4,1.3C107.9,93.5,107.6,94.7,107.5,95.4z"/>
		</g>
		<g>
			<path fill="#981A32" d="M113.9,74.4c0.3,0,0.4-0.3,0.8-0.2c0-0.2,0.1-0.4,0.1-0.5c-0.1,0-0.3,0-0.3-0.1c-0.3,0-0.3,0.2-0.6,0.2
				c-0.1,0.3,0.2,0.4,0,0.5C114,74.3,113.9,74.3,113.9,74.4z"/>
		</g>
		<g>
			<path fill="#981A32" d="M109.1,34.2C109.9,34.2,109.2,33.4,109.1,34.2L109.1,34.2z"/>
		</g>
		<g>
			<path fill="#981A32" d="M116.4,71c-0.2,0-0.3-0.2-0.6-0.1c0,0.2,0,0.4,0,0.6C116.2,71.6,116.3,71.3,116.4,71z"/>
		</g>
		<g>
			<path fill="#981A32" d="M80.4,120.1C80.4,120.1,80.3,120.1,80.4,120.1C80.3,120.2,80.4,120.2,80.4,120.1
				C80.4,120.2,80.4,120.1,80.4,120.1z"/>
		</g>
		<g>
			<path fill="#981A32" d="M112.5,56.4c0-0.2,0.1-0.2,0.1-0.3c-0.2,0-0.5,0-0.4,0.4C112.4,56.4,112.5,56.4,112.5,56.4z"/>
		</g>
		<g>
			<path fill="#981A32" d="M112.5,40.9c0-0.2,0-0.4,0-0.7c0,0-0.1,0-0.1-0.1c-0.3,0.1-0.6,0-0.8-0.1c-0.1,0.1-0.3,0.3-0.5,0.4
				C111.4,41,111.9,41,112.5,40.9z"/>
		</g>
		<g>
			<path fill="#981A32" d="M114.8,74.7c0.2,0,0.1,0.2,0.1,0.5c0.3,0,0.4,0.3,0.6-0.2C115.2,75,114.9,74.3,114.8,74.7z"/>
		</g>
		<g>
			<path fill="#981A32" d="M118.8,95.3c-0.7-0.4-1.8-0.5-2.5-0.9c0.8-1,0-1.6,0.3-2.6c-0.5-0.3-0.6,0.4-1.1,0.1c0.3-0.8,0.4-2.4,0-3
				c-1.1-0.1-1.9-0.9-1.8-2c-0.1-0.4-0.8,0.4-1-0.1c0.8-0.5,0.2-1.1,0-1.8c0-0.4,0.3-0.4,0.7-0.4c-0.2,0.2-0.2,0.4,0,0.6
				c0.7-0.1,1.5-0.2,1.5,0.5c0.7,0.1,0.9-0.3,1.3-0.6c0.2-0.5-0.5-0.6-0.1-0.8c0.4-0.1,0.4,0.3,0.8,0.3c0.6-1.5,1.7-0.8,3.1-1.2
				c0.3-1.7-1.3-1-1.5-2c-1,0.2-1.7,0.4-2.3,0.5c0,0.2-0.1,0.3-0.3,0.5c0.2,0,0.5,0.1,0.5,0.1c-0.1,0.3-0.6,0.2-0.9,0.2
				c-0.2,0.1-0.3,0.2-0.5,0.3c0,0-0.1,0-0.1-0.1c-0.2,0.3-1.2,0.2-1.8,0.1c0.4-0.6,0.7-0.7,1.1-0.5c-0.4-0.2-0.6-0.5-0.9-0.7
				c-0.1,0-0.2,0.1-0.3,0.1c-0.3-0.9-1.8-0.2-1.8-1.5c0.5-0.5,1-0.4,1.2,0.2c0.3-0.3,0.4-0.9,0.7-1.2c-0.3-0.7-1-0.4-1.5,0
				c-0.2-0.4-0.7-0.3-0.8-0.7c-0.1-0.5,0.5-0.5,0.1-0.8c-0.9,0.3-1.8-0.8-0.8-1.4c0.3,0.3,1,0.2,1.1,0.7c1.3-0.2,1.8-1.5,2.8-1.7
				c-0.8,0.2-0.3-1.3-0.8-1.4c-0.1-0.4,0.9-0.5,0.4-0.8c-0.4,0.5-1.8,0.7-2.5,1.3c0-0.4,0-0.6-0.3-0.6c-0.2,0.7-0.5,1.3-0.8,1.8
				c-0.3-0.4-1.3-0.8-0.8-1.7c0.4-0.4,0.1,0.2,0.6,0.1c0-0.5,0.1-0.8,0.4-1c0.3,0,0.3,0.5,0.7,0.4c-0.3-0.6-0.2-0.8,0.3-1.1
				c0.3,0.1,0.2,0.7,0.6,0.8c0-0.3,0.5-0.1,0.4-0.5c-0.2-0.2-0.6-0.1-0.6-0.6c0.3-0.1,0.5-0.3,1-0.2c0.2-0.4-0.3-0.8,0-0.8
				c0.4,0.2,0.7,0.7,1.1,0.9c-0.2,0.1-0.3,0.3-0.3,0.7c0.8,0,0.4-0.5,1-0.9c-0.2-0.1-0.4-0.3-0.6-0.6c0.5,0,0.5-0.5,1.1-0.4
				c-0.2,0.5-0.1,0.7,0.4,0.8c0-0.7,0.4-0.8,0-1.4c0.1,0,0.2-0.1,0.3-0.2c0.7,0.4,1.3,1,2.1,1.3c-0.1-0.7,0.6-0.5,0.7-1
				c-0.9,0.4-1.8,0.1-2.2-1c0.1-0.4,0.6-0.5,0.8-0.7c-0.6-0.6,0.2-0.3,0.4-0.5c0-0.2-0.8-0.4-0.4-0.6c0.9,0.4,1.8-0.3,2.6-0.5
				c0,0.5,0.2,0.7,0.7,0.6c0-0.8-0.6-0.2-0.6-0.8c0.5,0,0.5-0.6,1.3-0.4c0-0.4,0-0.6-0.1-0.8c-1,1-2.3,0.5-3.5,1.1
				c-0.2-0.1-0.3-0.2-0.4-0.5c0.6-0.5,1.1-0.2,1.5-1.1c-0.2-0.2-0.7-0.3-0.8-0.1c0.1-0.3,0.4-0.3,0.1-0.7c-0.6-0.6-1.6,0.9-1.9,0.1
				c0.8-0.7,1.8-0.5,2.2-1.5c-0.5,0.2-0.5-0.2-0.4-0.6c-0.5,0-0.9,0.1-1,0.6c0.1,0.1,0.3,0.3,0.4,0.5c-0.3,0.2-0.7,0.3-1.1,0.4
				c0-0.4,0.3-0.7,0-1c0.2-0.3,0.8-0.1,0.7-0.7c-0.1-0.2-0.2-0.4-0.4-0.4c-1.1,0.9-2,2.1-3.6,2.5c-0.2-0.3,0-0.2,0-0.6
				c-0.5-0.1-0.4,0.5-0.8,0.5c0.2-0.5,0.4-0.7,0.5-1.2c-0.3,0.1-0.6,0-0.7-0.2c0,1-0.9,1.9-1.3,0.5c0.8,0.2,0.6-0.7,1.1-0.9
				c-0.1-0.2-0.1-0.4,0-0.6c-0.1-0.1-0.1-0.3-0.1-0.5c0.1,0.1,0.2,0.1,0.4,0.2c0.2-0.1,0.4-0.1,0.8,0c0.3,0,0.7-0.1,1.1-0.1
				c0.1-0.5,0.4-0.7,0.4-1.3c-0.5-0.1-1.1-0.7-1.7-0.2c0-0.3,0.4-0.2,0.3-0.7c-0.4-0.1-0.5,0.7-0.7,0.2c0.4-0.5,0.6-1.2,1.5-1.1
				c-0.2-0.7,0.4-0.5,0.3-1.3c-0.6-0.2-0.4,0.4-0.8,0.4c-0.4-0.1-0.3-0.8-0.8-0.7c-0.6,0-0.5,0.9-0.8,0.2c-0.2,0.1-0.4,0.3-0.7,0.4
				c0.3,0.3,0.7,0.7,0.7,1.4c-0.5,0.2-0.7-0.5-1.1-0.8c0,0-0.1-0.1-0.1-0.1c-0.3,0.4-0.5,0.9-0.2,1.4c-0.4,0.2-0.9,0.4-1,0.9
				c0.5,0.4,0.3,0.7,0.6,1.4c0.8,0,1-0.1,1.5,0c-0.4,0.4-0.2,0.7,0.1,1c-1,0.3-1.5,2.2-2.6,1.3c0.1,0.4-0.1,0.5-0.4,0.5
				c0,0.1-0.1,0.1-0.2,0.2c0,0.2,0,0.3,0,0.5c-0.8,0.3-1.3,0.7-1.9,0.9v1.5c0.5,0.4,1,0.7,1.5,0.7c-0.2,1.1-1.4,1.9,0.1,3.4
				c-0.2,0.1-0.4,0.3-0.6,0.3c0.3,0.4,0.6,0.6,0.6,1.3c-0.5-0.5-0.9,0.3-1.4,0.4c-0.1-0.1-0.2-0.2-0.3-0.2l0,2.4
				c0,0,0.1-0.1,0.1-0.1c0,0.2-0.1,0.3-0.1,0.4v3.1c0.7,0.9,0.6,1.6,1,2.4c-0.4,0.2-0.7,0.2-1,0.2l0,9.9c0.2-0.5,0.3-1,0.5-1.5
				c0.2,0.6-0.2,1.3-0.5,2.1v2.2c0,0,0.1,0.1,0.1,0.1c0,0-0.1,0-0.1,0v0.3c0.5-0.5,0.8-1.8,2-1.5c0.7-1.7,2-3.3,1.8-4.6
				c0.7-0.6,1.7-0.3,1.5-1.4c1.5,0.8,2.5,3,1.1,4.4c0.2,0.5,0.8,0,1.1,0.3c0,0.5,0,1.1-0.1,1.5c0.2,0,0.4-0.1,0.8,0.2
				c-0.6,0.1-1.3,0.7-1.6,1.6c-0.3,0.1-0.3-0.5-0.7-0.3c0.4,0.6,0.9,1.3,0.1,1.6c-0.8-0.2-0.1-0.7-0.7-1.2c-0.3-0.1-0.6,0.6-1.1,0.5
				c-0.1-0.4-0.1-0.7-0.1-1.1c-1.6-0.7-2,1.7-2,2.9c0.4,0.4,1.1,0,1.5,0.1c0.1,0.3,0.3,0.6,0.4,1c-0.8-0.1-0.6,0.7-0.8,1.2
				c0.2,0.3,0.8-0.3,1.2-0.3c0.3,0.8,0,0.9-0.7,1c0.2,0.3,0.7,0.1,1.1,0.1c0.2,0.4,0.3,0.8,0.5,1.2c0.4-0.2,0.8-0.3,1.1-0.4
				c0-0.4,0-0.8-0.1-1c0.7-0.4,1.1-0.7,1.8-0.8c-0.8-2.3,1.5-1.7,2.1-2.7c-0.3,0-0.5-0.1-0.6-0.3c0.5-1.2,1.7-0.7,2.9-0.9
				C118.5,96.2,118.7,95.8,118.8,95.3z M118.1,82.3c-0.1,0.3-0.5,0.5-0.7,0.2C117.6,82.1,117.7,82.3,118.1,82.3z M109.3,65.9
				c0.3,0.5,0.6,0.9,0.9,1.4C109.1,67.6,107.5,66.8,109.3,65.9z M106.6,76.6c-0.3,0-0.3-0.4-0.3-0.8c0.4-0.2,0.9-0.4,1.4-0.4
				c0.1,0.3,0.3,0.4,0.3,0.8C107.7,76.4,106.8,76,106.6,76.6z M107.8,72.5c0.6-0.4,1.2,0.1,1.3,0.9C108,74.5,107.3,73.7,107.8,72.5z
				 M111.9,99.4c-1.2,1-2.2-0.5-1.9-1.3C110.9,98,112.1,98.6,111.9,99.4z"/>
		</g>
		<g>
			<path fill="#981A32" d="M113.7,37.3c-0.3,0.1-0.5,0.2-0.7,0.4c0,0.1,0,0.1,0,0.2c0,0,0,0,0,0C113.2,37.7,113.4,37.4,113.7,37.3z"
				/>
		</g>
		<g>
			<path fill="#981A32" d="M78.4,119.9c0.4,0.2,0.8,0.1,1.2,0.1C79.2,119.9,78.8,119.8,78.4,119.9z"/>
		</g>
		<g>
			<path fill="#981A32" d="M108.6,29.7c-0.1,0-0.3,0-0.4,0c0,0.1,0,0.2,0,0.3C108.3,29.9,108.5,29.8,108.6,29.7z"/>
		</g>
		<g>
			<path fill="#981A32" d="M138,36c0,0.2,0,0.3,0,0.5c0.4,0,0.8,0,0.7-0.5C138.4,35.7,138.4,36.1,138,36z"/>
		</g>
		<g>
			<path fill="#981A32" d="M117.8,72.2c-0.1,0.7,0.6,1.1,1,0.7C118.9,72.2,118.1,72,117.8,72.2z"/>
		</g>
		<g>
			<path fill="#981A32" d="M118.8,78.4c-0.1-0.4-0.2-0.7-0.4-0.9c0,0.3-0.5,0.1-0.4,0.5C118.2,78.2,118.3,78.5,118.8,78.4z"/>
		</g>
		<g>
			<path fill="#981A32" d="M136.3,58.5c0.4,0.1,0.4-0.3,0.6-0.5c-0.2,0-0.4,0-0.6,0C136.3,58.2,136.3,58.3,136.3,58.5z"/>
		</g>
	</g>
	<g>
		<g>
			<path fill="#F17F21" d="M40.2,118.5c0,0.3,0,0.5,0.1,0.8c0.1-0.1,0.2-0.2,0.4-0.2C40.5,118.7,40.3,118.6,40.2,118.5z"/>
		</g>
		<g>
			<path fill="#F17F21" d="M41.2,120.5c0.1,0.1,0.3,0.2,0.4,0.3c0.3-0.3,0.5-0.4,0.9-0.4C41.9,120,41.4,119.7,41.2,120.5z"/>
		</g>
		<g>
			<path fill="#F17F21" d="M43.1,118c0.2,0.5,0.5,0.7,0.8,0.9c0-0.4,0-0.8,0-1.1C43.6,117.9,43.4,118,43.1,118z"/>
		</g>
		<g>
			<path fill="#F17F21" d="M65.5,108.1c-0.6-0.4-1.1-0.9-1.6-1.4C64.3,107.5,64.8,108.2,65.5,108.1z"/>
		</g>
		<g>
			<path fill="#F17F21" d="M105.7,94.9V95c0,0,0.1,0,0.1,0C105.8,95,105.8,94.9,105.7,94.9z"/>
		</g>
		<g>
			<path fill="#F17F21" d="M113,94.1c0.1-0.5,0.1-1,0.1-1.5c-0.3-0.3-0.9,0.2-1.1-0.3c1.4-1.4,0.5-3.6-1.1-4.4
				c0.2,1-0.7,0.7-1.5,1.4c0.2,1.4-1.2,2.9-1.8,4.6c-1.2-0.3-1.5,1-2,1.5l0,8.9c0.1,0,0.1,0,0.1,0c0.4,0.1,0.7,0.5,0.9,1
				c-0.4,0.2-0.7,0.4-1.1,0.6v0.1h-0.4h-0.4h-6h-1.6h-0.6h-1.3H73.8c-0.6,1.1-0.9,2.2-2.1,2.8c0,0,0,0,0,0c0.1,0,0.3,0.1,0.4,0.1
				c-0.2,1.1-1.4,1.9,0.1,3.4c-3.1,2.1-5.8-1.7-10.4-4.8c0.8-0.7,1.2,0.2,2.1-0.7c-0.2-0.2-0.4-0.5-0.5-0.8h-1.2
				c-3,0.8-6.7,1.8-7,4.8c-2.6-0.9,1.5-2.5-1.3-3.6c1-0.5,1.9-0.8,2.7-0.6c0-0.2,0-0.4,0-0.6h-3.1c-0.1,0.9-0.3,1.7-0.9,2.4
				c-1.2-2.6-2.1,0.7-3.4-0.5c-0.5,0.5-1,1.6-1.7,2c0.2,0.6,0.4,1.2,0.8,1.7c-0.2,0.3-0.5,0.7-0.9,0.9c-0.1-0.1-0.3-0.2-0.4-0.1
				c0.2,0.2,0.4,0.4,0.6,0.7c0.2,0,0.5,0,0.6,0.3c-0.1,0-0.2,0.1-0.2,0.1c0.3,0.4,0.6,0.9,0.8,1.6c-0.8,0.3-1.3,0.6-1.7,0.9
				c0.4,0.4,0.8,0.7,1.2,1.1c1.2-0.2,0.9-1,1.6-1.4c0.6,0,1,0.3,1.2,1.2c0.2,0.4,0.7,0.1,0.8,0.6c0.7,2.1,2.8-0.2,3.5,2.3
				c0.9,0.3,1.8-0.1,2.2-0.9c0.7,0.5,1.5,0.8,2.1,1.6c1.2-1.5,2.6-1.8,3.8-0.1c-1,0.6-1.3,1.9-0.2,3.1c0.6,0.2,1.5-0.4,1.9,0.1
				c-0.1,0.8,0.6,2.7,1.7,2.5c0.6-0.6,0-1.8,1.2-2.1c0.1,0.4,0.3,0.6,0.5,0.7c0.8-0.6,0.7-1.5,0.6-2.5c-0.8-0.6-1.4-0.3-2.2-0.4
				c0.4,0.5-0.2,1.1-0.4,0.9c0-0.7-0.3-1.5,0.1-1.9c0.4,0,0.3,1,0.8,0.6c0.2-0.4-0.4-1.2,0.1-1.5c0.7,0,1.4-0.1,1.6,0.8
				c0.7-0.1,0.1-0.7,0.4-0.9c1.3,1.4,0,3.2,0.5,5.2c0.9-0.6,0.4-1.7,0.4-2.6c0.6-0.2,0.6-0.6,0.9-0.9c-0.3-0.6-0.3-0.7-0.9-0.9
				c0.1-0.2,0.1-0.6,0.4-0.7c0.4,0.1,0.9,0.1,1.2,0.6c-0.5,0.6-0.6,1.4-0.8,2.2c1.1,0.6,1.1-0.7,1.8-1.1c-0.5-0.3-0.4-1.7,0.3-1.1
				c-0.2,0.1-0.4,0.2-0.2,0.4c0.5,0.7,1.5-0.2,2-0.6c0.2,0.2,0.2,0.9,0.5,0.7c-0.1-0.2,0.2-0.3,0.3-0.1c-0.4,1-1.3,1.7-1,3
				c0.8-0.2,0.3-1.8,1.2-1.2c0-0.4,0.1-0.7,0.3-1.1c0.1-0.2,0.2-0.4,0.4-0.5c0.5-0.5,1.1-0.9,1.8-1c0.4-0.1,0.8,0,1.2,0.1
				c0.1,0,0.2,0.1,0.3,0.1c-0.2,0.6,0.6,2.9-1.1,2.8c0.4-0.5,0.6-2.7-0.5-2.6c-0.5,0.7-0.2,1.7-0.6,2.5c0.5,0.8,0.4,1.2,0.9,2.2
				c1.1-0.1,0.8,0.9,1.9,0.7c0-1.1,0.3-2.1,0.4-3.1c-0.4-0.2-0.4,0.4-0.8-0.1c0-0.8-0.4-1.9,0.2-2.5c0,0,0,0,0,0c0,0,0,0,0,0.1
				c-0.1,0.6,0.6,1.3,1.3,0.9c0.4-0.3-0.1-0.6,0.1-0.8c0.5-0.4,0.5,0.6,1,0.5c-0.1-0.9-0.7-0.5-0.8-1.1c0.3-0.4,0.1-1,0.3-1.4
				c0.3,0.2-0.3,0.7,0.3,0.6c0-0.3,0-0.6,0.4-0.7c0.6,0.3,0.8-0.2,1.3,0.4c-0.3,0.2-0.1,1.3,0.5,1.1c0.1-0.6-0.3-1.4,0-1.9
				c0.8-0.2,1.4,0.3,1.9,0.9c-0.1-0.4,0.3-1.2,0.5-1c0.1,0.2,0.2,0.4,0.3,0.6c-0.3,0.1-0.5,0.2-0.6,0.4c0.1,0.3,0.2,0.5,0.3,0.8
				c0.6,0,0.4-0.1,1-0.4c0.3,0.7,1,0.5,1.6,0.6c0,0,0.1,0,0.1,0c0.4,1,0.5,2.1,0.7,3.2c0.2,1,0.4,2,0.9,3.1c-0.3,0.2-0.4,0-0.7,0.1
				c0.5,0.8,1,1.8,1.5,2.7c-0.2,0-0.4-0.1-0.7,0.1c0.3,1,0.7,0.1,1.4,0.2c0,0,0,0,0,0c0-0.1-0.1-0.3-0.1-0.4
				c-0.2-0.5-0.5-0.8-0.7-1.2c0-1.2-0.5-2.9-1-4.5c-0.4-1.2-0.8-2.4-1-3.4c0-0.1,0-0.1,0-0.2c0.9-0.9,0.1-2,0.1-3c0-0.1,0-0.2,0-0.2
				c0.3-0.1,0.4,0.4,0.8,0.1c-0.2-0.3-0.2-0.6,0.1-0.8c0.5,0.4,0.6-0.5,1.3,0c0-0.3-0.7-0.5-0.3-0.8c0.5,0.2,0.9,0.8,1.4,0.2
				c0.3,0.5,0.6,0.7,0.9,0.9c1.3,0.7,1.7-1.6,0.7-2.8c0.1,0,0.1-0.1,0.2-0.1c0.7-0.4,0.4-1.2,0.5-1.9c0.4-0.1,0.6,0.4,0.9,0.5
				c0.1,0,0.2,0,0.4-0.1c0.4-0.2,0-0.8,0.5-1c0.1,0.2,0.3,0.2,0.4,0.6c-1.5,0.6-0.3,1.8-0.7,2.6c-0.1,0.2-0.2,0.3-0.4,0.5
				c0.5,0.1,0.1,0.7,0.1,1c0,0,0,0.1,0,0.1c0.3-0.1,0.6,0,1,0c0.2,0,0.3,0.1,0.5,0.1c0.7,0.2,1.4,0.4,1.9,0.2
				c-0.1-0.8-1-1.1-0.8-1.6c0,0,0,0,0,0c0-0.1,0-0.1,0.1-0.2c0.1,0.1,0.2,0.2,0.4,0.3c0.3,0.2,0.5,0.3,0.7,0.5
				c0.3,0.2,0.5,0.3,0.6,0.6c0,0,0,0,0,0c-0.3-0.9-0.3-1.8,0.2-2.5c-0.1-0.3-0.2-0.5-0.4-0.6c0,0.2,0,0.4-0.1,0.6
				c-0.7-0.7-1.1,0.1-1.5,0.7c0,0,0,0,0,0.1c-0.1,0-0.2,0-0.2-0.1c-0.4-0.1-1,0.1-1.4-0.2c0.6-0.5,0.6-1.2,1.1-1.8
				c0.7,0.8,2.4,0.1,3.1,0.2c0.2,0.3-0.3,0.4-0.3,0.6c0.1-0.1,0.2-0.3,0.4-0.4c1,0.1,1.7,0.6,2.1,1.3c0.7,1.1,0.7,2.7-0.1,3.4
				c0.4,0.1,0.9,0.1,1.3-0.2c0.1-0.1,0.2-0.1,0.3-0.2c0-0.1,0-0.1,0-0.2c-0.1-0.6-0.5-1.4-0.7-2.1c0.2,0.1,0.3,0.1,0.4,0.1
				c0.2,0,0.4-0.2,0.6-0.5c0.1,0.5,0.4,0.2,0.6,0.5c0.4-0.6,0.8-0.3,1.3-0.4c0.2-0.2-0.2-0.6,0.1-0.8c0.5,0.1,0.5,0.3,0.6-0.3
				c0.3,0.4,1.1,0.8,1.1,0.1c0.4,0.6-0.1,0.9-0.2,1.2c0.5,0.6,0.3,0.7,0.4,1.3c0.7-0.3,0.2-0.5,1-0.6c-0.1-2.3-1.6-1.8-2.3-2.6
				c0.9-0.8,0.7-2.1,0.5-3.4c-0.1-0.3-0.5,0-0.6-0.5c0-0.8,0-1.9,0.4-2.5c0.2-0.3,0.5-0.4,0.8-0.4c0.2,0,0.5,0.1,0.9,0.3
				c-0.6-0.8-0.9-1.3-1.1-1.8c-0.1-0.4-0.3-0.7-0.6-1.2c0.4,0.1,0.2-0.1,0.6-0.3c0.1,0.5,0.4,0.5,0.6,0.7c0,0,0.1,0.1,0.1,0.1
				c0.6-0.1,0.7-0.5,1.2-0.7c0,0,0-0.1,0-0.1c-0.2-0.4-0.3-0.8-0.5-1.2c-0.4,0-0.9,0.3-1.1-0.1c0.7-0.1,1-0.2,0.7-1
				c-0.4,0-1,0.6-1.2,0.3c0.2-0.5,0-1.4,0.8-1.2c-0.1-0.3-0.3-0.6-0.4-1c-0.5-0.1-1.2,0.3-1.5-0.1c-0.1-1.2,0.4-3.6,2-2.9
				c0,0.3,0,0.7,0.1,1.1c0.5,0.1,0.8-0.5,1.1-0.5c0.6,0.5-0.1,1,0.7,1.2c0.8-0.4,0.3-1.1-0.1-1.6c0.3-0.2,0.4,0.4,0.7,0.3
				c0.3-0.9,0.9-1.5,1.6-1.6C113.5,94,113.3,94.1,113,94.1z M54.4,118.5c0-0.1-0.1-0.2-0.1-0.3c0.2-0.1,0.3,0,0.5,0
				c0,0.1,0.1,0.2,0.1,0.3C54.7,118.6,54.6,118.4,54.4,118.5z M84.5,107.8c0.5-0.2,0.7,0.5,1.1,0.9c-0.6,0.5-0.9,0.1-1.2-0.3
				C84.7,108.2,84.6,108,84.5,107.8z M84,118.2c-0.1-0.4,0-0.7-0.3-1.2c0.6,0,0.2,0.5,0.7,0.8C84.4,118,84.3,118.2,84,118.2z
				 M99.8,111.1c-0.5-0.5-0.2-1.1-0.1-1.6c0,0,0.1,0,0.1,0c0.5,0.1,1-0.2,1.2,0.5c-0.1,0-0.1,0-0.1,0
				C100.2,110.2,100.3,110.8,99.8,111.1z M107.3,106.9c-0.1,0-0.2,0.1-0.3,0.1c-0.2-0.2,0-0.3,0-0.5c0.1,0,0.2-0.1,0.3-0.1
				C107.4,106.6,107.3,106.7,107.3,106.9z M107.5,95.4c0.1-0.7,0.4-2,1.4-1.9c0.2-0.4-0.3-1.1,0.4-1.3
				C109.6,93.7,108.7,94.6,107.5,95.4z M109.9,92.4c-0.2-0.1-0.4-0.3-0.5-0.7c0.6-0.4,0.7,0.2,1.1,0.1
				C110.6,92,110.3,92.3,109.9,92.4z"/>
		</g>
		<g>
			<path fill="#F17F21" d="M106.2,90.6c-0.2,0.5-0.3,1-0.5,1.5l0,0.6C106,91.9,106.5,91.2,106.2,90.6z"/>
		</g>
	</g>
	<g>
		<g>
			<path fill="#3EBAC4" d="M84.5,24c0.2-0.8-0.6-2-1.4-2.1c-1.5,0.6-0.5,1.7,0.3,2.8C83.8,24.4,84.2,24.2,84.5,24z"/>
		</g>
		<g>
			<path fill="#3EBAC4" d="M132.7,69.1c0.7-1.5-1.3-2.8-3.1-1.6C130.6,68.1,131.3,69.8,132.7,69.1z"/>
		</g>
		<g>
			<path fill="#3EBAC4" d="M65.2,32.6c-0.3-0.5-0.6-0.9-0.9-1.4c-1.5,0.6-2.7,0.9-2,2.6C62.9,34.8,65,33.4,65.2,32.6z"/>
		</g>
		<g>
			<path fill="#3EBAC4" d="M15.8,51.4c-1,0-2.1-0.9-2.2-2.3c0.1-0.2,0.2-0.3,0.3-0.4c-0.3-0.2-0.6-0.3-1-0.4
				c-3.6,1.7-2.1,8.6,1.7,8.3c0.5-0.7,1-1.7,1.2-2.7c-0.2-0.6-0.2-1.2,0.1-1.8C15.9,51.8,15.9,51.6,15.8,51.4z"/>
		</g>
		<g>
			<path fill="#3EBAC4" d="M73.5,21.5c-1-2.3-2.4-3-4.2-2.5c0.7,1.2-0.2,2,1.1,3.3C71.4,22.4,72.3,22.5,73.5,21.5z"/>
		</g>
		<g>
			<path fill="#3EBAC4" d="M81.3,15.1c-0.3-0.5,0.2-0.8-0.3-1.3c-0.4,0.2-0.8,0.4-1.1,0.7c0.2,0.4,0.5,0.7,0.7,1.1
				C80.8,15.4,81.1,15.2,81.3,15.1z"/>
		</g>
		<g>
			<path fill="#3EBAC4" d="M112.9,13.1c-0.6,0.5-2.1,0.7-1.1,1.6C112.8,14.3,113.2,13.8,112.9,13.1z"/>
		</g>
		<g>
			<path fill="#3EBAC4" d="M121.4,57.4c0.1-0.2,0.2-0.4,0.3-0.7c0.2-0.5,0.4-1,0.4-1.6c1-0.2,2.4,0.9,2.7-0.6
				c-2.5-0.9-5.6,0.8-8.2,0.3c1.2,2.9,2.9,4.4,5,4.5C121.2,58.6,121.2,58,121.4,57.4z"/>
		</g>
		<g>
			<path fill="#3EBAC4" d="M122.1,48.8c1-0.4,1.4-0.9,1.7-1.4c-0.8-0.7-1.6-1.4-2.7-0.9c0.6,0.6,0,1-0.1,1.5
				C121.5,47.8,121.8,48.3,122.1,48.8z"/>
		</g>
		<g>
			<path fill="#3EBAC4" d="M120.1,88.9L120.1,88.9C119,86.6,118.2,89.7,120.1,88.9z"/>
		</g>
		<g>
			<path fill="#3EBAC4" d="M107.4,14.3c-0.2-0.4-0.5-0.7-0.7-1.1C105.3,13.4,106.6,15.5,107.4,14.3z"/>
		</g>
		<g>
			<path fill="#3EBAC4" d="M112.3,104.1c0.5-0.3,0.8,0.2,1.4-0.3C113.7,102.6,111.7,103.5,112.3,104.1z"/>
		</g>
		<g>
			<path fill="#3EBAC4" d="M116.7,45.8c0,0.1,0,0.1,0,0.2c0.1,0,0.2,0,0.2,0c0.5,0,0.7,0.8,1.1,1.2C120.3,46.2,117,44.9,116.7,45.8z
				"/>
		</g>
		<g>
			<path fill="#3EBAC4" d="M111.6,31.9c-2.3,0.6,1,3.1,0.9,1.4C111.5,33.8,112.6,32.4,111.6,31.9z"/>
		</g>
		<g>
			<path fill="#3EBAC4" d="M28.9,121.5c0.1,0.2,0.2,0.5-0.1,0.6c0.3,0.4,0.7,0.8,1.2,0.3C29.6,121.9,29.3,121.3,28.9,121.5z"/>
		</g>
		<g>
			<path fill="#3EBAC4" d="M100,31.7c0.7-0.7,2.8-1,2.4-1.9c-1,0.4-1.6-0.6-2.4-0.6C100.6,30.2,99.3,30.7,100,31.7z"/>
		</g>
		<g>
			<path fill="#3EBAC4" d="M101.1,22.3c-0.8-1.3-1.9-1.7-3.1-1.6c0.1,0.8,0.2,1.7,0.6,2.6C99.3,23.4,100.2,22.9,101.1,22.3z"/>
		</g>
		<g>
			<path fill="#3EBAC4" d="M44.6,56.3c-0.1,0.1-0.2,0.1-0.4,0.3c0.2,0.3,0.4,0.4,0.5,0.6c0.1-0.1,0.2-0.3,0.2-0.4
				C44.9,56.6,44.7,56.4,44.6,56.3z"/>
		</g>
		<g>
			<path fill="#3EBAC4" d="M98.4,26.8c0.8-0.6,1.4-1.3,1.2-2.2c-0.4,0.1-0.6,0-0.8-0.5c-1,0.5-1.9,1-1.4,1.8
				C97.8,25.8,98.1,26.3,98.4,26.8z"/>
		</g>
		<g>
			<path fill="#3EBAC4" d="M126.8,14.5c-1.4,0.2-1.2,2.3-0.2,2.1C126.3,15.8,127.8,15.4,126.8,14.5z"/>
		</g>
		<g>
			<path fill="#3EBAC4" d="M104.3,26.3c-0.6,0.2-1-0.2-1.6-0.1c0.2,0.4,0.5,0.7,0.7,1.1C103.8,27,104.5,26.8,104.3,26.3z"/>
		</g>
		<g>
			<path fill="#3EBAC4" d="M123.3,44.2c-0.1-0.6,0-1.2-0.2-1.9c-0.9-0.1-1.9-0.2-3.1,0.8C121.1,44.2,121.1,45.4,123.3,44.2z"/>
		</g>
		<g>
			<path fill="#3EBAC4" d="M85.8,2.8c0.3,0.4,0.7,0.8,1.2,0.3c-0.3-0.4-0.6-1-1.1-0.8C86.1,2.4,86.2,2.7,85.8,2.8z"/>
		</g>
		<g>
			<path fill="#3EBAC4" d="M122.2,78.5c0.6,1,0.4,1.2,0.8,1.6c0.1,0.1,0.2,0.2,0.3,0.3c0.1,0.1,0.1,0.1,0.2,0.2
				c0.5-0.3,1-0.6,1.5-0.9c0.2-0.7-0.4-1.5-1-2.3C123.4,77.8,122.8,78.1,122.2,78.5z"/>
		</g>
		<g>
			<path fill="#3EBAC4" d="M20.7,77.9c0.2,0.2,0.3,0.5,0.5,0.7c0.4-0.2,0.8-0.4,1.1-0.6c-0.2-0.2-0.3-0.5-0.5-0.7
				C21.5,77.5,21.1,77.7,20.7,77.9z"/>
		</g>
		<g>
			<path fill="#3EBAC4" d="M114.8,79.9C114.7,79.9,114.7,79.8,114.8,79.9C114.7,79.8,114.7,79.8,114.8,79.9
				C114.7,79.8,114.7,79.8,114.8,79.9c-0.4,0.1-0.6,0.3-0.9,0.4c-0.4,0.2-0.7,0.4-1.1,0.6c0.1,0.5,0.2,0.8,0.4,1.1
				c0.2,0.3,0.5,0.5,0.9,0.7c0.2,0.1,0.3,0.2,0.5,0.3c0,0,0,0,0,0c0,0,0.1,0,0.1,0c0,0,0.1,0,0.1,0.1c0.2-0.1,0.4-0.2,0.5-0.3
				c0.2-0.1,0.3-0.2,0.4-0.4c0.1-0.2,0.2-0.3,0.3-0.5c0-0.1,0-0.3,0-0.4c-0.1-0.4-0.4-0.9-0.9-1.3C115,80.1,114.9,80,114.8,79.9z"/>
		</g>
		<g>
			<path fill="#3EBAC4" d="M121.4,74.1c-1.3,0.5-0.7,1.5,0,2.4C122.5,75.9,122.6,74.3,121.4,74.1z"/>
		</g>
		<g>
			<path fill="#3EBAC4" d="M124.6,35.2c0.5,0.1,0.9-0.8,0.9-1C125.2,32.5,123.5,35,124.6,35.2z"/>
		</g>
		<g>
			<path fill="#3EBAC4" d="M113.1,62.2c-0.3-0.3-0.6-0.4-0.8-0.5c-0.4-0.2-0.6-0.2-0.8,0c-0.1,0.1-0.2,0.2-0.2,0.3
				c-0.1,0.2,0,0.4,0,0.6c0,0.1,0.1,0.2,0.2,0.3c0.2,0.2,0.4,0.3,0.7,0.2C112.4,63.1,112.8,62.8,113.1,62.2z"/>
		</g>
		<g>
			<path fill="#3EBAC4" d="M7,80.8c0.9,1.5,2.4,0.7,4-0.3C10.3,78.4,8.5,80,7,80.8z"/>
		</g>
		<g>
			<path fill="#3EBAC4" d="M20.5,42.4c-0.2-0.6,0.1-1-0.5-1.6c-0.8-0.2-2.7,0.7-2,1.7C18.8,42.5,19.5,43.2,20.5,42.4z"/>
		</g>
		<g>
			<path fill="#3EBAC4" d="M24.4,43.6c0.4,0.6,0.8,1.2,1.2,1.8c0.4-0.2,0.8-0.4,1.1-0.6C26.2,43.7,25.5,42.8,24.4,43.6z"/>
		</g>
		<g>
			<path fill="#3EBAC4" d="M121.7,33.9c0.3-0.2,0.7-0.4,1-0.6c0,0,0.1,0,0.1-0.1c-0.1-0.1-0.2-0.2-0.2-0.3c-0.2-0.2-0.3-0.5-0.5-0.7
				c-0.3,0.1-0.5,0.3-0.8,0.4C121.7,33.1,121.3,33.4,121.7,33.9z"/>
		</g>
		<g>
			<path fill="#3EBAC4" d="M18.6,73.8c1.3,1.4,3,1,4.8,0.2c-0.5-0.6-0.1-1-0.5-1.6C21.6,72.2,20.2,72.7,18.6,73.8z"/>
		</g>
		<g>
			<path fill="#3EBAC4" d="M36.3,60.2c-0.8,0.3-0.6,0.9-1.3,1.2c0.5,1.2,1.5,0.7,2.6,0C37.3,60.8,36.8,60.4,36.3,60.2z"/>
		</g>
		<g>
			<path fill="#3EBAC4" d="M38.3,62.5c-0.2,0.2-0.4,0.3-0.2,0.6c0.6-0.2,1,0.2,1.6,0.1c-0.2-0.4-0.5-0.7-0.7-1.1
				C38.8,62.2,38.6,62.4,38.3,62.5z"/>
		</g>
		<g>
			<path fill="#3EBAC4" d="M53.4,24.2c-0.2,0.8,0.8,2.3,1.6,2.5c0.4-0.2,0.8-0.4,1.1-0.6C56.5,24.4,54.7,23.6,53.4,24.2z"/>
		</g>
		<g>
			<path fill="#3EBAC4" d="M124.8,63.3c-0.2-0.2-0.3-0.5-0.5-0.7c-1.3,0-0.3,1.8,0.3,1.3C124.5,63.7,124.4,63.5,124.8,63.3z"/>
		</g>
		<g>
			<path fill="#3EBAC4" d="M119.2,34.9c0.3-1-1.5-0.9,0.4-1.7C118.1,30.7,117,34.8,119.2,34.9z"/>
		</g>
		<g>
			<path fill="#3EBAC4" d="M121.8,41.2c1.3-0.4,0.7-1.3,2-1.7c-0.1-0.3-0.2-0.6-0.3-0.9c0-0.2-0.1-0.3-0.1-0.5
				c-0.2-0.9-0.5-1.6-1.7-1.7c1,1.8-0.6,1.2-1.7,1.4C118.7,38.8,120.4,41.2,121.8,41.2z"/>
		</g>
		<g>
			<path fill="#3EBAC4" d="M130.9,82.3c0.4,0.6,0.8,1.2,1.2,1.8c1-0.4,1.4-0.9,1.7-1.4C133,81.6,132.1,81.2,130.9,82.3z"/>
		</g>
		<g>
			<path fill="#3EBAC4" d="M126.7,82.2c-1.8,2.5,2.4,4.8,4.7,3.2C130.5,83.9,129.6,81.3,126.7,82.2z"/>
		</g>
		<g>
			<path fill="#3EBAC4" d="M113.7,37.3c-0.2,0.1-0.5,0.3-0.7,0.7c0,0,0,0,0,0c-1.4-3.6-1.1-1-2.1-3.2c-0.8,0.3-0.4,0.9-0.7,1.4
				c-0.4,0-0.7,0-1.1-0.1c-0.1,0-0.3,0-0.4-0.1c-0.4-0.1-0.8-0.3-1.2-0.8c1.5-0.5,1.7-1.2,0.6-2.3c0.8,0,2.3-1.7,2.3-2.8
				c-0.7,0.2-0.6,1.1-1.1,0.6c1-1.4-0.3-3-0.3-5.2c-1-0.5-2-0.7-3.1-0.7c0.7,1.9-0.6,4.6,2.2,4.8c0.1,0,0.3,0,0.4,0
				c-0.1,0.1-0.2,0.2-0.4,0.3c-1.3,0.9-2.2,0-3.2-0.2c0.9,1,0.7,1.8-0.6,2.3c-1.7-0.9,0.9-2.4-0.4-2.2c-0.5,1-0.9,2-2.3,2.8
				c-1.6-0.5-3.1-0.6-4.5,1.1c-0.6-1.5-1.8-0.3-3.4-0.5c0.1-1,0.2-1.8-1.2-1.8c0.6,0.8,0.1,1.4-0.2,2.1c-1.3-0.9-1.8-0.4-2.5-1.5
				c1.4-0.9,0.8-2.2,1.5-3.3c1.2,0.7,2.5,1.1,4.2,0c-0.1-1.6-1.2-1.7-2.1-3.2c-1.1,0.8-1.8,0.4-2.6,0c-0.2-0.5,0.1-1-0.5-1.6
				c1.1-0.5,2-1,0.8-1.9c-1.7-0.3-0.3,1.9-2.6,2.4c0,1.9,1.9,0.8,2.8,2.8c-2.1,0.4-2.4,1.5-3.3,2.9c2.4,2.2-1.1,4.7,2.5,5.4
				c-0.4,1.4-1.9,0.9-2.7,0.6c-0.2-2-1-2.6-2.2-4.1c-0.8,1.9-2.4,1.7-4.7,3.2c0.7,0.8-0.2,1.2,0.8,2c0.8,0.2,2-1.1,2.4,0.6
				c-2.3-0.8-2.3,2.4-4.3,1.5c-0.7-0.9-0.2-1.5,0.8-1.9c-0.6-0.9-1.2-2.2-2.1-1.7c0.7,2-1.3-0.1-2,0.2c-1.1,0.4-0.8,2.6-2.1,3.2
				c0.9,2.1,2.8,0.2,3.9,1.2c-1.6,0.6-2.9,0.5-4.6,1.7c0-2.1-2-0.7-3-2.2c-1.1,0.6-2.4,1.6-3.3,1.4c-0.6,1.1-0.5,4.1-2.7,3
				c1.2,1.7,3,1.6,4.3,2.9l6-4l15.3,10.2l0.6,0.4l1.6,1.1l0.7,0.5l3.4,2.3c0.3-0.2,0.4-0.6,0.5-1.1c1.1,0.4,1.1,1.2,0.8,2l4.7,3.1
				l2.5,1.7l0.5,0.3v2.5c0.8-0.1,1.5-0.6,1.9-1.1c0.1-0.1,0.1-0.1,0.2-0.2c0.3-0.3,0.4-0.5,0.3-0.5c-0.8-1.1-1-2.5-1.4-3.6
				c-0.3-1-0.9-1.8-2.1-2.3c-0.3-0.1-0.7-0.2-1.1-0.3c0.2-0.5,0.7-0.8,1.2-1.1c1.2-0.5,2.7-0.2,3.3,1.5c0.3,0.2,0.7,0,1-0.2
				c0.3-0.1,0.6-0.2,0.8-0.1c0,0,0.1,0,0.1,0.1c0.3,0.4,0.6,1,1.1,0.8c0-0.7-0.4-1.1-0.7-1.4c-0.1-0.1-0.1-0.1-0.2-0.2
				c-0.1-0.2-0.1-0.4,0-0.6c0,0,0,0,0,0c0.1-0.1,0.1-0.2,0.2-0.3c0.1,0.1,0.3,0,0.5,0c1-0.1,2.2-1.3,3-1c-0.4-1.2-1.3-0.7-1.8-1.9
				c0.9-0.6,1.8-1.1,2.5-0.9c-0.9-0.8-0.6-1.4-0.9-2.1c0-0.1-0.1-0.2-0.1-0.2c-0.7,0-1.5,0.6-2.2,0.7c-0.2,0-0.4,0-0.5-0.1
				c0.4-0.2,0.3-0.5,0.5-0.8c0,0,0,0,0,0c0,0,0.1,0,0.1-0.1c0.1-0.1,0.2-0.1,0.3-0.1c-0.1-0.1-0.1-0.2-0.2-0.2
				c-0.4-0.4-0.9-0.5-1.4-0.6c-0.4,0-0.7,0-1.1,0c-0.2,0-0.4,0-0.6-0.1c-0.2-0.1-0.4-0.1-0.6-0.3c0.2,0.1,0.3,0.3,0.4,0.4
				c0.1,0.1,0.2,0.2,0.2,0.3c0.2,0.2,0.4,0.5,0.5,0.7c0.1,0.1,0.1,0.2,0.2,0.3c0.1,0.2,0.3,0.4,0.4,0.5c0.3,0.3,0.7,0.7,1.3,0.9
				c-0.5,0.9,0.1,2-0.1,3c0,0-0.1,0-0.1,0c-0.2,0.1-0.3,0.1-0.5,0.1c-0.4,0-0.8,0-1.1,0c-0.8-0.1-1.7-0.1-2.8,1
				c0.1-0.7-0.3-0.8-0.8-0.7c-0.9,0.1-2.2,0.5-2.6-1.3c0.6-0.3,1.1-0.6,1.5-0.9c1.2-0.8,1.8-1.8,3.5-2.5c-0.7-1-1.3-1.9,0-2.4
				c-0.2-0.2-0.4-0.3-0.6-0.5c-2-1.9-2.6-4.6-3.1-6.7c-0.5,0.2-1,0.7-1.4,0.3c-0.9-3.6,3.2-1.4,5-3.1c0.2-0.1,0.3-0.3,0.4-0.5
				c0.3,0.2,0.7,0.4,1,0.6c0.9,0.6,1.5,1.4,0.9,2.2c-0.2,0.1-0.4,0.1-0.5,0c-0.2-0.1-0.4-0.4-0.7-0.3c0.2,0.3,0.3,0.5,0.3,0.7
				c0,1.1-1.8,1.8-2.1,2.8c2.1,0.2,0.2,1.6,1.1,2.4c0.1,0.1,0.3,0.2,0.6,0.3c0.1,0,0.1,0,0.2,0.1c-0.1-0.1-0.1-0.2-0.1-0.4
				c0-0.3,0.1-0.7,0.3-1c0.1-0.2,0.3-0.4,0.5-0.6c0.3-0.2,0.6-0.2,0.9-0.1c0.1,0,0.1,0,0.2,0c-0.1,0-0.1,0.1-0.2,0.1
				c-0.2,0.2-0.4,0.3-0.4,0.6c0,0.1,0.1,0.3,0.2,0.5c0.1-0.1,0.2-0.1,0.3-0.2c1.2-0.8,1.9-1.6,2.4-2.6c0.3-0.4,0.5-0.8,0.9-1.3
				c-0.4-0.8-1.1-0.7-1.8-0.7c-0.5,0.1-1.1,0.1-1.5-0.4c0.3-0.1,0.4-0.2,0.5-0.4c0.2-0.3,0.3-0.6,0.8-0.8c-0.1,0.5-0.1,0.8,0.1,0.9
				c0,0,0.1,0.1,0.1,0.1c0.6,0.2,1.9-0.7,2.4,0.5c0.8-0.6,1.1-1.3,1.4-2c0-0.1,0.1-0.2,0.1-0.2c0.2-0.5,0.4-1,0.8-1.4
				C115.5,37.5,114.7,36.7,113.7,37.3z M104,49.9C104.1,49.9,104.1,49.9,104,49.9c0.7,0.8,0.5,1.3,0,1.8c-0.2,0.2-0.4,0.3-0.6,0.5
				C102.9,51.2,103.1,50.5,104,49.9z M104.1,34.7c-0.8,0.7-1.2-0.2-2.1,0.7c-1.1-1.3,2.7-1.6,1.1-1.6c-0.3-0.3-0.1-0.4,0.1-0.6
				c0.3-0.1,0.5-0.3,0.8-0.4C104.8,33.7,103.6,34,104.1,34.7z M107,37.1c-0.2,0.2-0.4,0.4-0.5,0.6c-0.2,0.2-0.4,0.3-0.9,0.1
				c0.2-1.1,1.3-0.9-0.2-1.9c0.9-0.7,1.6-0.2,2.1,0.8C107.2,36.8,107.1,37,107,37.1z"/>
		</g>
		<g>
			<path fill="#3EBAC4" d="M120.5,71.5c-0.1,0-0.2-0.1-0.3-0.1c-0.3-0.1-0.7,0-1,0c0.2,0.3,0.4,0.8,0.7,1.1c0.2,0.2,0.4,0.3,0.7,0.2
				c0.1-0.1,0.2-0.1,0.3-0.3C121,71.9,120.8,71.7,120.5,71.5z"/>
		</g>
		<g>
			<path fill="#3EBAC4" d="M106.5,41.6c0.5-0.3,0.8,0.4,1.2,0.3C108.3,41,106.2,40.5,106.5,41.6z"/>
		</g>
		<g>
			<path fill="#3EBAC4" d="M96.5,117.8c-0.2,0.3-0.3,0.7,0.2,1.5h0c0.6-0.4,0.9-0.8,1-1.1C97.8,117.6,96.9,117.3,96.5,117.8z"/>
		</g>
		<g>
			<path fill="#3EBAC4" d="M109.3,65.9c-1.7,0.9-0.1,1.7,0.9,1.4C109.9,66.8,109.6,66.3,109.3,65.9z"/>
		</g>
		<g>
			<path fill="#3EBAC4" d="M110,98.1c-0.3,0.9,0.8,2.3,1.9,1.3C112.1,98.6,110.9,98,110,98.1z"/>
		</g>
		<g>
			<path fill="#3EBAC4" d="M105.7,79.6v2.6c0.3,0,0.6,0,1-0.2C106.3,81.1,106.4,80.4,105.7,79.6z"/>
		</g>
		<g>
			<path fill="#3EBAC4" d="M111.1,29.6c0,0,0.1,0.1,0.1,0.1c1.9-0.7,0.8-2,1.1-3.1c-0.9,0.5-0.7,1.3-2,1.7c0.2,0.3,0.4,0.6,0.6,0.9
				C110.9,29.3,111,29.4,111.1,29.6z"/>
		</g>
		<g>
			<path fill="#3EBAC4" d="M107.3,68.5c-0.6,0-1.1-0.3-1.5-0.7l0,4.3v0.4c0.2,0,0.5-0.1,0.7-0.1c0,0,0,0,0,0c0.1,0,0.2-0.1,0.3-0.1
				c0.2-0.1,0.4-0.2,0.6-0.3C105.9,70.4,107.1,69.5,107.3,68.5z"/>
		</g>
		<g>
			<path fill="#3EBAC4" d="M69.8,106.2c-0.3,0.2-0.1,0.6-0.5,0.8c0.8,0.6,1.5,1.5,2.3,1.8c0,0,0,0,0,0c1.3-0.7,1.5-1.7,2.1-2.8h-2.3
				C70.9,106.2,70.4,106.4,69.8,106.2z"/>
		</g>
		<g>
			<path fill="#3EBAC4" d="M101.8,112c-0.2,0.1-0.3,0.3-0.4,0.4c-0.1,0.1-0.2,0.2-0.3,0.3c-0.5,0.7-0.5,1.6-0.2,2.5
				c0.1,0.3,0.3,0.7,0.5,1c0.2,0.3,0.4,0.7,0.7,1c0.8,0.1,1.4-0.1,1.8-0.5c0.8-0.8,0.8-2.3,0.1-3.4
				C103.5,112.6,102.8,112.1,101.8,112z"/>
		</g>
		<g>
			<path fill="#3EBAC4" d="M63.3,105.9c0.2,0.3,0.3,0.5,0.5,0.8c0,0,0,0,0,0c0,0,0,0,0,0c0.5,0.5,1,1,1.6,1.4c0.1,0,0.2,0,0.3-0.1
				c-0.6-2.3,1.5-1.2,2.9-1.2c-0.1-0.3-0.3-0.6-0.5-0.9H63.3z"/>
		</g>
		<g>
			<path fill="#3EBAC4" d="M105.9,104.3c0,0-0.1,0-0.1,0v0.1v1.6c0.4-0.2,0.7-0.4,1.1-0.6C106.6,104.7,106.3,104.4,105.9,104.3z"/>
		</g>
		<g>
			<path fill="#3EBAC4" d="M84.5,107.8c0.1,0.2,0.2,0.5-0.1,0.6c0.3,0.4,0.7,0.8,1.2,0.3C85.2,108.2,85,107.6,84.5,107.8z"/>
		</g>
	</g>
	<g>
		<g>
			<path fill="#4FB84D" d="M47,105.9h-1.2h-1.3V94.2c-0.8,0.2-1.5-0.2-2-1.1c0.7,0,1.4-0.3,2,0v-2.5v-2.4v-8.8c-0.2-0.4-0.2-0.7,0-1
				v-0.8c-0.6,0.4-1,0.7-1.5,1.5c0.2,0.8,0.8,0.6,1.1,0.9c-0.3,0.2-0.4,0-0.6,0.1c1,1.1,0.3,1.8,0.1,2.7c-1.8,0.7-3.5,0.8-4.6-0.9
				c-0.1,0.1-0.3,0.2-0.4,0.3c0-0.9-0.3-1.1-0.8-1.2c-0.3,0.2-0.8,0.4-1.4,0.4c-0.5-0.4-0.8-0.8-1-1.2c-1.1,0.6-2.2,1.5-3.1,1.3
				c-0.6,1.1-0.5,4.1-2.7,3c1.4,2,3.5,1.5,4.9,3.5c-2.4,1,0.6,3.2-1.4,4.2c-0.2-0.4-0.6-0.2-0.8-0.5c-0.3-0.9,0.3-1.6-0.6-2.6
				c-1.6,0.9-2.3-2-4-0.6c0.9,0.8-0.3,1.1,0.2,1.9c0.6-0.4,1.2-0.3,1.6,0.1c-2.4,1.5-3.7,4.2-6.6,4.3c0.4,0.8-0.1,1.4-0.2,2.1
				c2.4-0.3,0.8,2,1.5,3.1c1.2,0,2.4-0.1,3.1,1.6c1.6-1.6,3.3-0.1,2.3,1.1c0.7-0.3,1.3,0.1,1.7,1c1.8-0.9,2.1-0.7,3.4-1.9
				c0.8,1.5,0.7,0.7,1.6,0.1c1,1.8,2.1,5.8,3.7,8.1c-2.3,1.1,0.2,1.4,0.8,2c-1.2,0.6-3,1.9-4.7,0.7c2-1.2,0.1-2-0.7-3.5
				c0.2-0.9,2.1-1.3,1-2.5c-2.1-0.3-2.1,1.8-3.6,2.5c0.7,0.8,0.8,1.4,0.8,2c2.6-0.1,3.3,3.9,4.3,5.8c-1.3,0.4-0.9,0.2-1.9,1.1
				c0.6,1.5,1.7,0.9,2.7,0.9c-0.2-0.5-0.4-0.9,0.3-1.1c0.4,0.4,1,0.5,1.5,0.8c0.2,0.1,0.3,0.3,0.4,0.5c-0.2,0.1-0.3,0.2-0.4,0.2
				c-0.4,0.5,0.4,1.3,0.9,1.4c0-0.1,0-0.1,0-0.1c0.2-0.8,0.7-0.5,1.3-0.2c0.6,0.3,1.4,0.7,2.1-0.1c0.2-0.8-0.2-0.9-0.6-1.2
				c-0.3-0.2-0.6-0.4-0.8-0.9c0.3-0.1,0.5-0.1,0.7-0.2c1.5-0.5,2-1.2,2.9-1.9c0.4-0.3,0.9-0.6,1.7-0.9c-0.3-0.7-0.5-1.2-0.8-1.6
				c-0.1-0.1-0.2-0.3-0.3-0.4c-0.2-0.2-0.4-0.5-0.6-0.7c-0.7-0.7-1.1-1.3-0.7-2.8c0.5,0.4,0.9,0.4,1.3,0.2c0.7-0.4,1.2-1.5,1.7-2
				c1.4,1.2,2.2-2.1,3.4,0.5c0.6-0.7,0.9-1.5,0.9-2.4H47L47,105.9z M38.6,88c-0.7,0.1-1.2-0.4-1.7-1C37.7,86.7,38.2,87.1,38.6,88z
				 M36.9,102.1c-0.6-0.6,0.8-2.7-1.2-1.8c0-0.4,0-0.8-0.3-1.3c2.8-2.4,4,1.1,6.3,0.8C40.9,101.5,37.8,100.3,36.9,102.1z"/>
		</g>
		<g>
			<path fill="#4FB84D" d="M72,108.9c-0.1,0-0.3,0-0.4-0.1c-0.9-0.3-1.6-1.1-2.3-1.8c0.4-0.2,0.3-0.5,0.5-0.8c0.5,0.2,1.1,0,1.6-0.3
				h-3.3c0.2,0.3,0.4,0.6,0.5,0.9c-1.4,0-3.5-1.2-2.9,1.2c-0.1,0.1-0.2,0.1-0.3,0.1c-0.7,0.1-1.2-0.6-1.6-1.4c0,0,0,0,0,0
				c0,0,0,0,0,0c-0.9,0.9-1.3,0.1-2.1,0.7c4.6,3.1,7.3,6.9,10.4,4.8C70.7,110.8,71.8,109.9,72,108.9z"/>
		</g>
		<g>
			<path fill="#4FB84D" d="M56.4,105.9c0,0.2,0,0.4,0,0.6c-0.8-0.2-1.8,0.1-2.7,0.6c2.8,1.2-1.3,2.8,1.3,3.6c0.3-3,4-4,7-4.8H56.4z"
				/>
		</g>
	</g>
	<g>
		<path fill="#312C1A" d="M65.4,46.7c-0.6-0.8-1.5-0.9-2.2-1.5c-0.7-1.5-2-4.1,0.8-4.7c0.1-0.5-0.3-1.2,0.4-1.6c-0.6-1-1.2-1.9-2-2
			c-2,1.3-5.2,3.3-4.2,5.8c-0.8,0.9-1.7,1.9-1.4,3c-1,0.4-2.4,0.6-3.4-0.8c-1.2,0.3-2.4,0.7-3.5,0.9c0.6,0.8,0.5,1.4,0.6,2.1
			c-0.5-0.6-1.4,0-2-0.4c-0.2-1.1-0.4-1.7,0.6-1.7c1,0,0.7-0.9,1.2-1.1c0.8-0.4,2.1,0,2.5-0.5c0-0.7,0.4-1.3,0.1-2.1
			c0.4,0,0.7,0.2,1.3-0.3c0-0.6,0-0.9-0.6-1.2c1.3-0.9,0.3-2.3,1.6-3.1c-0.7-0.4-1-1.5-0.4-2c-0.5-0.6-1.1-0.9-1.6-1.3
			c0.2-0.1,0.3-0.3,0.4-0.5c-0.7-0.7-1.4-1.3-2-2c-1.1,0.6-2.5-0.1-2.8-0.6c-2.3,0.4-3.8,1-4.9,2.8c-0.3,0.1-0.4-0.3-0.7,0
			c0.5,0.8-0.5,0.6-0.6,1c0.7,1-0.6,2.2-1.1,2.4c-0.2-0.7,0.1-1.4-0.2-2.1c-1.2,0.6-2.1,1.4-2.4,2.3c0.4-0.2,0.5,0.7,0.8,0.9
			c0.5,0.1,1.1-0.3,1.5-0.2c-0.1,1,0.7,2.3-0.1,3.2c0.8,1.4,0.6,2.3,0.9,3.3c-2.1,0.3-1.2,3-2.8,3.4c0.2,0.5,0.5,0.3,0.7,0.7
			c-0.5,0.6-1.1,0.9-2,0.7c-0.1-0.7-0.9-1.3-0.9-1.7c0.5-0.1,0.8,0.3,1.3,0.2c-0.1-2.9,1.8-5.4,2.4-8.1c-0.7,0.1-0.2-0.7-0.6-1
			c-0.4,0.1-1,0.9-1.3,0.5c-0.4-0.4,0-0.6-0.4-0.9c-1.4,0-2.8,1.7-4.2,1.7c-0.6-2-3.7-2.1-3.9,0c-0.3-0.3-0.9,0.4-1.3,0.5
			c-0.2,1.8,0,3.5,1.3,4.6c-0.3,0-0.6,0.1-1,0.3c1.7,2.4-0.8,3-1.7,4.8c-0.5-0.3-0.8-0.5-0.9-1c-1.4,0.5-1.2,1.4-2,2.1
			c-0.2-0.5-0.5-0.3-0.7-0.7c1.2-1.4,0.2-3.2-0.9-4.7c-0.6,0.2-0.7,0.6-1.1,0.9c-0.4-0.5-0.9-0.3-1.2-1.1c-1.1,1-1.7-0.1-2.8,0.9
			c-0.4-0.3-0.7-0.6-1-1.2c-0.8,0.5-1.2-0.3-2,0.2c-0.4,1.2-0.7,2-1.4,3.2c-0.1,0.2-0.2,0.3-0.3,0.4c0.1,1.4,1.2,2.3,2.2,2.3
			c0.2,0,0.5,0,0.7-0.1c-0.3,0.2-0.5,0.5-0.6,0.7c-0.3,0.6-0.3,1.2-0.1,1.8c0.5,1.5,2.3,2.9,3.7,2.5c-0.3-0.3-0.2-0.6,0.2-0.8
			c1.5,0.2,3-0.6,3.4-2.2c0.2,0.5,0.9-0.7,1.1-0.2c0.3,2.2,2.6,2.2,4.3,1.1c0-0.5,0-1,0-1.5c-0.7-0.2-1.7,0.7-2.3,0.2
			c0-0.9,0.7-0.2,1.3-0.5c0.3-0.9-0.9-0.8-0.5-1.5c0.8-0.3,1.3,0.7,1.9,1.1c-0.8,0.5,0.4,1.4,0.4,2c0.7-0.5,1,0.8,1.6,0.9
			c-0.4,0.4-0.5,0.8-0.3,1.3c0.7,0.2,0.9-0.2,1.5-0.6c0.9,0.9,2.2,1.4,1.8,2.8c0.4-0.3,0.7-0.3,0.9-0.1c0.9,1.7,2.6,0.4,3.6,1.5
			c0.6-0.4,1.3-0.9,1.8-0.6c-0.2,0.3,0.1,0.7,0.2,1c0.6,0.3,1.2,0.3,1.8,0.5c-2.1,1.5-0.4,4.8,1.6,5.8c-0.7,0.4-1.3,0-1.8-0.5
			c-0.3,0.2-0.7,0.4-1.1,0.6c0.1,0.4,0.3,0.9-0.2,1.2c-0.6,0-1.2-0.5-1.9-0.3c0.6,0.6,1.1,1.6-0.6,2.4c-0.9-0.7-2.4-1-2.6,0.4
			c0.3,0.8,0.8,0.2,1.1,0.9c-1.4,0,0,1.9-1.7,1.9c0.3,0.7,0.2,1.3-0.5,1.8c0.9,1.1,0.2,1.9-0.4,2.7c0.4,0.6,0.6,1.5,1.1,2.3
			c0.2,0.4,0.5,0.8,1,1.2c0.6,0,1-0.1,1.4-0.4c0.6-0.4,0.9-1,1.4-1.2c0.3,0.5-0.2,0.9,0.5,1.5c-0.4,0.2-0.7,0.4-0.8,0.7c0,0,0,0,0,0
			c1.2,1.7,2.8,1.6,4.6,0.9c0.2-0.8,0.9-1.6-0.1-2.7c0.2-0.1,0.4,0.1,0.6-0.1c-0.3-0.4-0.9-0.1-1.1-0.9c0.5-0.7,0.9-1.1,1.5-1.5
			v-1.3v-5.2c0-0.1,0-0.1-0.1-0.2c0,0,0.1,0,0.1,0v-7.6l13.5-9l0.2-0.1l6.3-4.2l1.7-1.1l2.9-2C68,46.1,66.5,45.7,65.4,46.7z
			 M41.3,59.1c0.3-0.7,1-1,1.8-1.3c0.3,0.5,0.6,1,1.1,0.9C44.2,60.4,42.5,59.6,41.3,59.1z M46.1,58c-0.2,0.1-0.3,0.2-0.5,0.3
			c-0.1-0.7-0.4-0.9-0.8-1.1c-0.2-0.1-0.3-0.3-0.5-0.6c0.1-0.1,0.2-0.2,0.4-0.3c0.6-0.3,0.9,0.3,1.5-0.1
			C46.7,56.9,45.6,57.3,46.1,58z"/>
	</g>
</g>
</svg>
