<?xml version="1.0" encoding="utf-8"?>
<!-- Generator: Adobe Illustrator 18.1.0, SVG Export Plug-In . SVG Version: 6.00 Build 0)  -->
<svg version="1.1" id="Layer_1" xmlns="http://www.w3.org/2000/svg" xmlns:xlink="http://www.w3.org/1999/xlink" x="0px" y="0px"
	 viewBox="0 0 150 150" enable-background="new 0 0 150 150" xml:space="preserve">
<g>
	<path fill="#14A989" d="M92.8,108.4c-7.8,5.8-18.4,5.9-26.3,0.2l-9.3,9.6c6.4,5.1,23.1,22.5,23.1,22.5s14.1-14.5,22.1-22.8
		L92.8,108.4z"/>
	<path fill="#231F20" d="M57.2,112.7L57.2,112.7L57.2,112.7z"/>
	<path fill="#27AAE1" d="M144.1,73.2c-1.9-12.9-10.2-18.3-21.5-15.9c-0.2-2.2-4.3-5.4-6-5.3c1.8-5.6,0.3-12.2-2.2-16
		c-3.9-6.9-14.1-10-19.9-8.4c-0.6,0.1-1.3,0.3-2,0.6c-7.3-9.2-18.1-15-30.2-15c-21.9,0-39.6,19-39.6,42.5c0,1.6,0.1,3.1,0.2,4.6
		c-4.3,2.1-8.4,5.5-11.8,10.7c-4.2,6.5-7.8,19.3,4,30.8c4.9,4.3,13.1,8.1,26.1,3.5c2.1,3.3,5.9,5.6,10.6,6.7
		c-10.7-13.8-9.9-33.7,2.6-46.6c13.7-14.1,36.3-14.5,50.4-0.8c14,13.6,14.5,35.9,1.1,50c3.3-1.1,6.8-2.8,10-5.5
		c2.9-2.5,9.2-10,9.7-14.3C134.1,93.4,145.4,86.3,144.1,73.2z"/>
	<circle fill="#14A989" cx="79.7" cy="92.1" r="15.8"/>
</g>
</svg>
