<?xml version="1.0" encoding="utf-8"?>
<!-- Generator: Adobe Illustrator 18.1.0, SVG Export Plug-In . SVG Version: 6.00 Build 0)  -->
<svg version="1.1" id="Layer_1" xmlns="http://www.w3.org/2000/svg" xmlns:xlink="http://www.w3.org/1999/xlink" x="0px" y="0px"
	 viewBox="0 0 2000 2000" enable-background="new 0 0 2000 2000" xml:space="preserve">
<g>
	<path fill="#0073A2" d="M1613.1,396.4C1271.4,242,1006.8,628.7,985.7,660.7C968.6,626.9,739.7,193.9,358,396.4
		c-11,5.9-21.6,12.3-31.9,19.2c154.1-40.6,349.3,60.9,436.7,171.6c85.7,108.6,184.5,219.4,227.4,266.8
		c76.4-91.3,260.4-266.5,484.1-167.2c297,131.9,307,723.9-376.8,1177.2C1947.2,1305.9,1973.9,559.6,1613.1,396.4z M1764.6,150.6
		c-63.8,0-115.5,51.7-115.5,115.5c0,63.8,51.7,115.5,115.5,115.5c63.8,0,115.5-51.7,115.5-115.5
		C1880.1,202.3,1828.4,150.6,1764.6,150.6z"/>
	<path fill="#64C4E8" d="M235.4,150.6c-63.8,0-115.5,51.7-115.5,115.5c0,63.8,51.7,115.5,115.5,115.5c63.8,0,115.5-51.7,115.5-115.5
		C350.9,202.3,299.2,150.6,235.4,150.6z M1474.2,686.9c-223.7-99.4-407.7,75.8-484.1,167.2c13.8,15.3,21.9,24,21.9,24
		c-19.9,10.7-39,17.8-57.4,22.2c-0.6,0.9-1.1,1.6-1.5,2.2c-0.3-0.5-0.5-1-0.9-1.7c-154.9,34.9-255.9-134.4-303-151.2
		c-52.9-18.9-18.9,34-18.9,34c56.7,185.1,385.4,419.3,476,472.2c90.7,52.9,94.5,68,102,90.7c7.5,22.6-34,49.1-34,49.1
		c-317.4-90.7-415.6-253.1-445.8-272c-30.2-18.9-22.6,18.9-22.6,18.9c158.7,211.6,442,290.9,472.2,294.7
		c30.2,3.8,83.1,22.7,83.1,60.4c0,37.8-41.6,41.6-41.6,41.6c-464.7-71.8-578-302.2-619.6-336.2c-41.6-34-30.2,7.6-30.2,7.6
		c102,222.9,434.4,324.9,502.5,343.8c24.4,6.8,75.5,18.9,60.4,45.4c-15.1,26.4-83.1,26.4-83.1,26.4
		c-498.7-86.9-653.6-434.4-638.5-343.8c15.2,90.7,241.8,234.2,321.2,279.6c60.3,34.5,151.1,68,143.5,90.7
		c-13.6,40.9-117.1-3.8-117.1-3.8C607.7,1589,488.6,1516.5,395.7,1437c117.2,158.7,306,328.3,587.9,495.7h3.1
		C1781.6,1472.8,1786.4,825.6,1474.2,686.9z"/>
</g>
</svg>
