<?xml version="1.0" encoding="utf-8"?>
<!-- Generator: Adobe Illustrator 18.1.0, SVG Export Plug-In . SVG Version: 6.00 Build 0)  -->
<svg version="1.0" id="Layer_1" xmlns="http://www.w3.org/2000/svg" xmlns:xlink="http://www.w3.org/1999/xlink" x="0px" y="0px"
	 viewBox="0 0 150 150" enable-background="new 0 0 150 150" xml:space="preserve">
<g>
	<path fill="none" d="M105,58.7c0-1.9-1-3.7-2.6-4.7c-1.3-0.8-3-1.3-4.3-0.4c-1.2,0.7-2.2,2.4-1.9,3.8L96,57.5l0,0.4v0.1
		c0,0.3,0.6,0.6,0.9,0.8c0.6,0.4,1.6,0.7,2.2,0.1c0.4-0.4,0.7-1.5,0-1.7c-0.5-0.2-0.5-0.7-0.2-1c0.2-0.3,0.6-0.5,1-0.5
		c1.2,0.2,1.9,1.2,1.9,2.4c0,1.2-0.6,2.1-1.6,2.8c-1.1,0.8-2.3,0.8-3.3,0.4l0.1,0.3v0.4v0.6v0.5v0.5v0.4v0.6v0.5l-1,0.5v0.5v0.6v0.4
		l0.2,0.7l0,0.5l-0.1,0.5L95.9,69l-0.1,0.5l-0.2,0.5l-0.1,0.5l-0.1,0.5l-0.2,0.3c1.3-1,2.5-2.1,3.7-3
		C101.8,65.8,105.1,62.6,105,58.7z"/>
	<path fill="none" d="M71.6,74.1l0.1-0.4l0.1-0.4l0.1-0.4l0.2-0.4l0.1-0.5l0.2-0.4l0.1-0.4l0.1-0.4l0.1-0.4l0-0.5l0.1-0.2v-0.5
		l0.4-0.4l0.2-0.4l0.1-0.3c-0.5,0.4-1,0.7-1.6,0.9c-2.8,1.1-6.6-0.2-7-3.8c-0.2-1.5,0.2-2.9,1.3-3.9c1.1-1,2.7-1.2,3.9-0.3
		c0.4,0.3,0.4,0.9,0.3,1.3c-0.1,0.6-0.6,1-1.2,0.7c-0.9-0.5-1.7,0.7-1.7,1.4c-0.1,1.1,1,1.7,1.9,2c2.6,0.7,4.1-1.9,4.3-4.1l0.1-0.1
		l0-0.2V62l-0.2-0.2l-0.2-0.5l-0.3-0.5l-0.3-0.5l-0.1-0.5l-0.4-0.5l-0.1-0.2c-0.8-0.7-1.7-1.1-2.7-1.4c-2.4-0.7-4.9-0.1-6.8,1.6
		c-3.9,3.3-4.1,9.3-3.9,14.1c0.3,5.6,0.8,12.1-0.3,17.7l0.3-0.3l0.5-0.5l0.6-0.4l0.4-0.5l0.5-0.5l0.5-0.5l0.6-0.5l0.1-0.4l0.4-0.2
		l0.1-0.2l0.4-0.2l0.2-0.4l0.2-0.2l0.2-0.2l0.2-0.2l0.2-0.4l0.2-0.2l0.2-0.4l0.2-0.4l0.2-0.2l0.2-0.4l0.2-0.2l0.2-0.4l0.2-0.4
		l0.2-0.4l0.2-0.2l0.2-0.4l0.2-0.4l0.2-0.4l0.2-0.2l0.2-0.4l0.2-0.4l0.1-0.4l0.2-0.4L69,79l0.1-0.4l0.1-0.4l0.2-0.4l0.2-0.4l0.2-0.4
		l0.2-0.4l0.1-0.4l0.2-0.4l0.1-0.4l0.2-0.4l0.2-0.4l0.2-0.2L71.6,74.1z"/>
	<path fill="none" d="M106.4,38.6l-0.4-0.1l-0.2-0.1l-0.2-0.2l-0.4-0.1l-0.4-0.1l-0.5-0.1l-0.4-0.2l-0.6-0.2l-0.4-0.1l-0.5-0.4
		l-0.4-0.1l-0.5-0.1l-0.5-0.2l-0.5-0.1l-0.4-0.2l-0.5-0.1l-0.5-0.4l-0.4-0.2l-0.2-0.1l-0.4-0.1l-0.2-0.2l-0.4-0.2l-0.2-0.1l-0.4-0.2
		L96.7,34l-0.4-0.2L96,33.5l-0.2-0.2l-0.2-0.1l-0.4-0.2l-0.4-0.2l-0.4-0.2l-0.2-0.2L93.9,32l-0.4-0.2l-0.2-0.2L93,31.4l-0.5-0.5
		l-0.4-0.2l-0.2-0.4L92,30l0-0.5v-0.5v-0.2v-0.2v-0.4V28v-0.4v-0.2v-0.5v-0.4V26v-0.5V25v-0.6l-0.6-0.2L91,23.9v-0.4l-0.2-0.2
		l-0.1-0.6l-0.2-0.4l-0.4-0.6l-0.2-0.5l-0.4-0.4l-0.4-0.5L88.7,20l-0.5-0.4l-0.4-0.5l-0.5-0.2L87,18.7l-0.1-0.1l-0.4-0.1l-0.2-0.1
		l-0.4-0.1L85.7,18l-0.4-0.1l-0.2,0l-0.4,0h-0.2h-0.2h-0.4h-0.2h-0.4h-0.4h-0.4h-0.4h-0.4h-0.4h-0.2h-0.2h-0.1h-0.4h-0.1l-0.4-0.2
		l-0.2,0l-0.5,0l-0.4,0.2l-0.4,0.1l-0.4,0.2l-0.4,0.1l-0.4,0.4l-0.5,0.2l-0.2,0.4l-0.2,0.2L76,20.1l-0.2,0.2l-0.1,0.4L75.4,21
		l-0.2,0.4L75,21.7l-0.1,0.5l-0.1,0.4l0.1,0.4l0.1,0.5v0.4v0.4l-1,0.5v0.5l1,0.4V26v0.4v0.4v0.5v0.4l-0.1,0.5l0.2,0.4l0.1,0.4
		l0.1,0.4l0.1,0.4l0.2,0.2l0.4,0.5l0.1,0.2l0.2,0.4l0.4,0.4l0.4,0.1l0.2,0.2l0.4,0.2l0.4,0.1l0.4,0.2l0.4,0.2l0.4,0.1l0.4,0.2
		l0.4,0.1l0.4,0.5l0.4,0.5H81h0.5h0.4h0.4h0.4h0.5h0.4h0.4h0.4h0.4H85h0.4h0.4h0.4h0.4h0.2H87h0.4h0.2h0.2h0.5h0.5h0.4h0.2h0.2
		l0.4-0.3l0.4,0l0.5,0.1l0.2,0.1l0.2,0.1l0.2,0.1l0.4,0.2l0.2,0.1l0.4,0.1l0.2,0.2l0.4,0.2l0.4,0.1l0.2,0.1l0.4,0.2l0.4,0.2l0.2,0.1
		l0.2,0.1l0.4,0.2l0.2,0.1l0.5,0.2l0.5,0.4l0.5,0.1l0.5,0.2l0.2,0.1l0.4,0.4l0.5,0.2l0.5,0.2l0.5,0.2l0.6,0.5l0.2,0.1l0.2,0.2
		l0.4,0.2l0.4,0.1l0.5,0.4l0.5,0.4l0.5,0.2l0.5,0.4l0.4,0.2l0.4,0.2l0.4,0.2l0.1,0.1h0.4l0.4-0.2l0.2-0.2l0.1-0.2l0.4-0.4l0.7-0.1
		v-0.4l0.1-0.4l-0.1-0.2v-0.4V39l-0.2-0.2L106.4,38.6z M87,22.8v0.5v0.2v0.4v0.4l-0.5,0.4l-0.3,0.2l-0.3,0.2l-0.2,0.4l-0.3,0.2
		L85.1,26l-0.3,0.1l-0.2,0.1l-0.4-0.2L83.9,26h-0.2l-0.4,1H83l-0.5-1h-0.4l-0.4,0.2l-0.2,0l-0.4,0l-0.2-0.1l-0.2-0.3l-0.2-0.1
		l-0.2-0.2L79.9,25l-0.1-0.4l-0.1-0.2L79.4,24L79,23.7v-0.2v-0.4v-0.4v-0.4V22l0.4-0.4l0.4-0.2L80,21l0.3-0.2l0.3-0.2l0.3-0.2
		l0.3-0.1l0.4-0.1l0.2-0.1l0.2,0.1h0.5l0.4-0.1l0.4,0.1h0.2h0.4l0.4-0.1l0.4,0.2l0.2,0.1l0.4,0.1l0.2,0.1l0.2,0.4l0.2,0.2l0.2,0.2
		l0.1,0.4l0.1,0.4l0.3,0.2l0.3,0.4V22.8z"/>
	<path fill="#18AD9A" d="M104.5,65.8c3-4.4,3.7-10.5-1.3-13.7c-1.9-1.2-4.4-1.4-6.4-0.3c-0.9,0.5-1.6,1.3-2,2.1l-0.2-0.3l-0.1-0.2
		L94.2,53L94,52.7l-0.1-0.4l-0.2-0.2l-0.2-0.4l-0.1-0.2L93,51.2l-0.1-0.4l-0.2-0.2l-0.2-0.4l-0.1-0.1L92,49.9l-0.4-0.5l-0.5-0.5
		l-0.4-0.4l-0.5-0.4l-0.4-0.4l-0.4-0.4l-0.4-0.2l-0.4-0.2l-0.2-0.2l-0.2-0.1l-0.2-0.2l-0.4-0.2L87.5,46l-0.2-0.1l-0.5-0.4l-0.5-0.2
		l-0.4-0.4l-0.5-0.1L85,44.5l-0.5-0.1L84,44l-0.5-0.1L83,43.5l-0.6-0.1l-0.2-0.1l-0.4-0.1l-0.2-0.2l-0.4-0.1l-0.4-0.2l-0.4-0.1
		l-0.2-0.2L79.8,42l-0.4-0.1l-0.4-0.2l-0.4-0.2l-0.4-0.1l-0.2-0.2l-0.4-0.2l-0.2-0.2l-0.2-0.1L76.7,40l-0.2-0.4l-0.4-0.4L76,38.9
		l-0.2-0.5L75.4,38L75,37.8v-0.2V37l0.1-0.2l-0.1-0.1l-0.3-0.4L74.1,36l-0.2-0.2l-0.2-0.2l-0.4-0.1L73,35.2l-0.2-0.1l-0.2-0.2
		l-0.4-0.1l-0.2-0.1l-0.2,0.2L71.3,35h-0.2h-0.1h-0.6l-0.2-0.1l0,0l0,0.1v0.2v0.6v0.4l0,0.5l0,0.4l0,0.2v0.2l0.4,0.5l0.6,0.2v0.4
		L70.9,39l0.1,0.4l0.1,0.2l0.1,0.2l0.1,0.4l0.1,0.2l0.4,0.5l0.4,0.6l0.4,0.5l0.4,0.5l0.4,0.4l0.4,0.4l0.4,0.4l0.5,0.4l0.5,0.4
		l0.4,0.4l0.5,0.4l0.5,0.2l0.4,0.2l0.5,0.2l0.4,0.4l0.5,0.1l0.5,0.2l0.5,0.2l0.4,0.1l0.5,0.2l0.4,0.2l0.4,0.1l0.5,0.2l0.4,0.2
		l0.4,0.1l0.4,0.4l0.4,0.1l0.4,0.2l0.2,0.2l0.4,0.1l0.2,0.2l0.4,0.2l0.2,0.1l0.2,0.2l0.4,0.1l0.4,0.4l0.2,0.1l0.4,0.1l0.2,0.2
		l0.2,0.2l0.2,0.2l0.4,0.2l0.2,0.2l0.2,0.2l0.2,0.2l0.2,0.2l0.2,0.4l0.2,0.4l0.2,0.2l0.2,0.5l0.1,0.4l0.4,0.5l0.1,0.4l0.2,0.4
		l0.4,0.5L91,57v0.2v0.2v0.4l0,0.2l0,0.2v0.4l0,0.4l0,0.4v0.2V60v0.2v0.4V61v0.2v0.4V62v0.2v0.2v0.4v0.4v0.2v0.2v0.4v0.4v0.2V65v0.4
		v0.2v0.2v0.4v0.2v0.2v0.4v0.2v0.4V68v0.2v0.2l-0.4,0.2l-0.3,0.4l-0.2,0.5l-0.4,0.6l-0.1,0.5l-0.4,0.6l-0.2,0.4l-0.4,0.5l-0.2,0.6
		l-0.2,0.5l-0.5,0.5l-0.4,0.4l-0.4,0.6l-0.2,0.4l-0.5,0.4l-0.4,0.5l-0.4,0.5L85,76.8l-0.5,0.4L84,77.5l-0.5,0.4l-0.4,0.5l-0.5,0.2
		L82.2,79l-0.4,0.4l-0.4,0.4L80.8,80l-0.5,0.2l-0.4,0.4l-0.5,0.2l-0.4,0.2l-0.5,0.4l-0.5,0.2l-0.5,0.4l-0.5,0.1l-0.4,0.2l-0.6,0.2
		l-0.4,0.2l-0.5,0.2l-0.5,0.1l-0.5,0.2l-0.4,0.2L73.4,84L73,84.1l-0.5,0.2l-0.5,0.1l-0.4,0.2l-0.5,0.1l0.2-0.4l0.2-0.5l0.5-0.5
		l0.4-0.6l0.4-0.4l0.2-0.5l0.5-0.6l0.2-0.5l0.3-0.5l0.4-0.5l0.4-0.5l0.2-0.5l0.2-0.6l0.4-0.5l0.4-0.4l0.2-0.5l0.2-0.6l0.2-0.5
		l0.2-0.4l0.1-0.5l0.4-0.4l0.1-0.6l0.2-0.4l0.1-0.5l0.2-0.5l0.1-0.4l0.1-0.5l0.1-0.5l0.1-0.4l0.1-0.5l0-0.4l0-0.4v-0.5V69v-0.5v-0.4
		v-0.4v-0.4V67v-0.4v-0.4v-0.4v-0.4V65v-0.4v-0.2v-0.4v-0.4v-0.4V63v-0.2v-0.4l0-0.4l0-0.2v-0.4l0.1-0.4L79,60.6v-0.2l-0.2-0.2
		l-0.2-0.4l-0.3-0.2l-0.1-0.4l-0.1-0.2L78,58.6l-0.2-0.2l-0.1-0.4l-0.1-0.2l-0.2-0.4l-0.1-0.2l-0.2-0.2l-0.1-0.2l-0.2-0.4L76.4,56
		l-0.2-0.2l-0.2-0.2l-0.5-0.6L75,54.4l-0.5-0.5L74,53.4l-0.6-0.5l-0.5-0.5l-0.4-0.2l-0.2-0.2l-0.4-0.2l-0.2-0.2l-0.5-0.6l-0.5-0.5
		l-0.4-0.2l-0.2-0.4l-0.2-0.2l-0.2-0.2l-0.4-0.4l-0.1-0.2l-0.4-0.4L68.6,48l-0.4-0.4l-0.1-0.2l-0.2-0.4l-0.2-0.4l-0.2-0.4l-0.2-0.2
		l-0.2-0.2l-0.1-0.4l-0.2-0.4l-0.2-0.4l-0.1-0.4L66,44.1l-0.2-0.4l-0.2-0.4l-0.1-0.2l-0.1-0.4L65,42.4L64.9,42l-0.1-0.5l-0.2-0.2
		l-0.1-0.4l-0.1-0.4l-0.1-0.5L64,39.8l-0.6-0.4L63,39.1v-0.5l0.2-0.2l-0.1-0.5L63,37.5v-0.4v-0.4v-0.2v-0.4v-0.4v-0.4v-0.5v-0.4
		v-0.4v-0.4v-0.4v-0.4v-0.4v-0.4V32v-0.4v-0.5v-0.2v-0.4v-0.4v-0.5v-0.2v-0.4v-0.2v-0.4v-0.2v-0.4l0.5-0.2l0.5-0.2v-0.2l0.1-0.5
		l0.3-0.5l0.1-0.4l0.1-0.4l0.1-0.4l0.2-0.4l0.1-0.4l0.1-0.2l0.2-0.2l0.1-0.2l0.4-0.4l0.2-0.4l0.2-0.2l0.4-0.2l0.4-0.4l0.5-0.2
		l0.2-0.2l0.1-0.2l0.1-0.4l0.4-0.4l0.1-0.4l0.2-0.5l0.1-0.5l0.4-0.5l0.1-0.4l0.1-0.5l0.1-0.5l0.1-0.2l0-0.4l0-0.2v-0.2l0-0.2h-0.4
		h-0.1l-0.2,1H69l-0.4-0.3l-0.4-0.1l-0.4,0l-0.4,0.1L67.1,17l-0.5,0.2l-0.4,0.2l-0.4,0.2L65.5,18l-0.6,0.4l-0.4,0.4L64,19.1
		l-0.4,0.5l-0.4,0.1l-0.1,0.4l-0.2,0.2l-0.1,0.4l-0.2,0.1l-0.2,0.4l-0.2,0.4L61.9,22l-0.2,0.2l-0.2,0.2l-0.1,0.4l-0.2,0.4L61,23.6
		l-0.1,0.4l-0.2,0.4l-0.1,0.5l-0.1,0.4l-0.1,0.5l-0.1,0.5L60,26.6l0,0.4v0.5l-0.3,0.6l-0.4,0.5L59,29.1v0.5V30v0.5v0.6v0.5v0.5v0.5
		v0.5v0.5v0.5v0.5v0.5l0.2,0.5L59.1,36L59,36.5V37v0.5v0.4l0.5,0.5l0.5,0.5v0.5l0.2,0.4l0.1,0.5l0.1,0.4l0.1,0.5l0.1,0.4l0.2,0.5
		l0.1,0.4l0.1,0.5l0.2,0.4l0.1,0.5l0.2,0.4l0.1,0.4l0.1,0.4l0.2,0.4l0.1,0.4l0.2,0.4l0.1,0.4l0.2,0.4l0.1,0.4l0.2,0.2l0.2,0.4
		l0.1,0.4l0.1,0.4l0.2,0.4l0.1,0.2l0.4,0.4l0.1,0.2l0.1,0.2l0.1,0.4l0.2,0.2l0.4,0.5l0.4,0.5l0.4,0.5l0.2,0.5l0.4,0.5l0.2,0.4
		l0.4,0.4l0.2,0.2l0.2,0.4l0.4,0.4l0.2,0.2L68.4,55c-1-0.1-1.4,0-3.4,0.2V55h0.6h-0.2c-4.6,2-7.7,5.9-8.9,10.8
		c-0.9,3.8-0.7,7.5-0.1,11.3c0.2,1.2,0.4,2.4,0.5,3.7c-1.2-2.9-3.5-5.3-6.9-6.3c-3.4-1-7.5-0.4-9.7,2.7c-1.9,2.6-2.7,6.5-0.2,9.1
		c2.1,2.2,5.5,3.3,7.9,0.8c1.3-1.4,2.3-4.7-0.4-5.5c-0.4-0.1-0.6,0.4-0.5,0.7c0.3,1,0.5,1.8-0.3,2.6c-0.9,0.9-1.6,1.2-2.8,0.8
		c-3.1-1.2-3.3-4.4-1.5-6.8c2-2.8,6.1-2.7,8.7-1c2.5,1.5,3.9,4,4.4,6.8c0.8,4.7-0.7,10.8-5,13.5c-1.7,1-4.9,1.9-6.6,0.2
		c-1.8-1.8,1.2-4.9,2.4-2.9c0.1,0.1,0.2,0.1,0.3,0.1c0.3-0.1,0.5-0.2,0.7-0.4c0.2-0.2,0.3-0.5,0.2-0.8c-0.4-1.1-1.6-1.7-2.8-1.7
		c-1.7,0-2.6,1.1-3.4,2.5c-1.4,2.7,0.6,5.5,3.3,6.2c3.1,0.9,5.9,0.2,8.2-1.2l0,0l-0.1,0.4l0.1,0.4l0.2,0.4v0.4l-1,0.4v0.4l0.1,0.4
		l-0.1,0.5v0.4v0.5v0.4l0,0.5l0,0.4v0.4v0.5v0.4v0.4v0.5l-1,0.4v0.6v0.4v0.5v0.4v0.5l1,0.4v0.5v0.5v0.5v0.5l0,0.4l0,0.5v0.5
		l-0.1,0.4l0.1,0.5l0.1,0.4l0.1,0.5l0.1,0.5l0.2,0.5l0.1,0.4l0.4,0.4l0.1,0.4l0.2,0.5l0.2,0.4l0.4,0.4l0.2,0.4l0.4,0.4l0.2,0.4
		l0.2,0.4l0.4,0.2l0.4,0.4l0.2,0.4l0.5,0.2l0.4,0.4l0.4,0.4l0.4,0.1l0.4,0.4l0.4,0.2l0.5,0.2l0.4,0.2l0.4,0.1l0.5,0.4l0.1,0.1
		c1.8,1.9,2.9,4.3,2.9,6.9c0,3.4-2.1,7.4-5.9,7.7c-3.3,0.2-6.2-1.7-5.6-5.3c0.2-1.4,1-1.9,2.3-2.2c1.3-0.3,1.8,0.4,2.6,1.2
		c0.3,0.3,0.9,0.3,1-0.1c0.8-3-3-3.9-5-3.4c-3.7,0.8-4.6,4.6-3.7,7.9c1,3.8,5.2,5.2,8.7,4.9c4.2-0.3,7-3.9,8-7.6
		c0.8-3.1,0.3-5.7-1.1-8.1l0.2,0.4h0.4h0.5c0.4,0,0.7,0.2,1.1,0.5c3.3,2.7,6.6,4.8,10.7,6.1c7.2,2.2,15.8,0.6,18.1-7.6
		c0.8-3.1,0.1-6.6-2.3-8.8c-2.8-2.5-7.2-2.9-10.2-0.6c-2.6,2-3.6,6.4-0.4,8.8c1.3,1,2.9,1.4,4.4,0.9c1.6-0.5,2.7-1.9,2.4-3.5
		c-0.1-0.5-0.6-0.9-1.1-1.1c-0.6-0.3-1.2,0-1.3,0.7c-0.1,1.1-1.6,1.2-2.3,0.8c-1.1-0.6-1.1-1.9-0.8-2.9c0.9-3.4,5.3-2.8,7.4-1
		c1.7,1.5,1.8,4,1.2,6.1c-0.7,2.7-2.7,4.7-5.3,5.6c-5.4,1.8-11.1-1.4-15.5-4.4c-0.3-0.2-0.7,0.2-1-0.8h0.2l0.4-0.2l0.5-0.1l0.4-0.1
		l0.5-0.1l0.5-0.2l0.5-0.2l0.4-0.2l0.5-0.2l0.4-0.2l0.5-0.2l0.4-0.4l0.4-0.2l0.4-0.4l0.4-0.4l0.4-0.4l0.4-0.4l0.2-0.4l0.4-0.2
		l0.2-0.5l0.2-0.2l0.4-0.5l0.1-0.4l0.2-0.4l0.2-0.4l0.2-0.4l0.2-0.4l0.1-0.5l0.1-0.4l0.2-0.4l0.1-0.4l0.2-0.5l0-0.4v-0.4V114v-0.4
		v-0.4v-0.5v-0.4v-0.4v-0.4v-0.5v-0.4v-0.5V110v-0.4v-0.5v-0.4v-0.4V108v-0.4l0-0.5l0-0.2l-0.1-0.5l-0.1-0.4l-0.1-0.4l-0.2-0.2
		l-0.1-0.4l-0.1-0.2l-0.2-0.4l-0.2-0.4l-0.1-0.4l-0.1-0.4l-0.4-0.2l-0.2-0.2l-0.2-0.4l-0.2-0.2l-0.2-0.4l-0.4-0.2l-0.2-0.2l-0.2-0.1
		l-0.4-0.4l-0.2-0.2l-0.4-0.1l-0.2-0.1l-0.4-0.2l-0.4-0.2l-0.4-0.1l-0.4-0.2l-0.4-0.3L73.8,99h-0.4l-0.2-0.1L72.8,99h-0.4h-0.4h-0.2
		l-0.4-1h-0.4h-0.4h-0.2h-0.4h-0.2h-0.4h-0.4h-0.2h-0.2h-0.4L68,99h-0.4h-0.4H67l-0.2,0.1l-0.5,0.2l-0.5,0.2l-0.6,0.2l-0.5,0.2
		l-0.5,0.2l-0.4,0.4l-0.5,0.2l-0.4,0.4l-0.4,0.4l-0.2,0.5l-0.4,0.4l-0.2,0.4l-0.4,0.4l-0.1,0.4l-0.1,0.5l0,0.4l0,0.5v0.4v0.4v0.4
		v0.5v0.4v0.4v0.4l0,0.4l0,0.5v0.4l0.1,0.2l0.1,0.4l0.1,0.4l0.1,0.4l0.2,0.2l0.1,0.4l0.2,0.2l0.4,0.6l0.5,0.5l0.2,0.2l0.4,0.1
		l0.2,0.2L64,113h0.4l0.2,0.3l0.2,0.1l0.4,0.3l0.4,0.3H66h0.4l0.5,0.1l0.4-0.1h0.4h0.2l0.4-0.3l0.2-0.4l0.2-0.3h0.4l0.1-0.1l0.5-0.2
		l0.4-0.2l0.2-0.3l0.4-0.4l0.3-0.4v-0.4v-0.4v-0.4l-0.3-0.4l-0.2-0.2l-0.3-0.4l-0.1-0.1l-0.5-0.2h-0.1l-0.2,0.4l-0.1,0.5l-0.4,0.5
		l-0.5,0.4l-0.2,0.1l-0.4,0.1h-0.4h-0.1h-0.4h-0.2h-0.2h-0.4l-0.2-0.1l-0.4-0.1l-0.5-0.4l-0.4-0.4l-0.2-0.1l-0.1-0.4l-0.2-0.1
		l-0.1-0.4l-0.1-0.2l-0.3-0.4l-0.3-0.2v-0.2v-0.4v-0.4v-0.4v-0.2v-0.4v-0.4l0.4-0.4l0.2-0.2l0.2-0.4l0.3-0.4l0.1-0.4l0.4-0.2
		l0.2-0.2l0.4-0.4l0.4-0.2l0.4-0.2l0.4-0.2l0.5-0.3l0.4-0.3h0.6l0.5-1h0.5H69h0.2h0.4l0.2,0.6l0.5,0.2l0.6,0.2h0.2l0.2,0.4l0.2,0.2
		l0.2,0.2l0.6,0.3l0.5,0.4l0.5,0.3l0.5,0.5l0.5,0.4l0.4,0.4l0.4,0.5l0.4,0.5l0.4,0.5l0.2,0.6l0.1,0.2l0.1,0.4l0.3,0.2l0.3,0.4v0.2
		v0.4v0.2v0.4v0.4v0.2v0.4v0.5v0.2v0.5v0.4v0.4v0.4l-0.3,0.4l-0.2,0.4l-0.2,0.5l-0.3,0.4l-0.1,0.4l-0.3,0.4l-0.1,0.4l-0.2,0.4
		l-0.2,0.2l-0.1,0.4l-0.2,0.4l-0.5,0.5l-0.4,0.5l-0.5,0.4l-0.4,0.6l-0.5,0.4l-0.5,0.2l-0.5,0.2l-0.5,0.4l-0.5,0.2l-0.5,0.1l-0.5-0.2
		l-0.5-0.1h-0.6H68h-0.5h-0.6l-0.5,0l-0.5,0h-0.6l-0.5,0.1l-0.6,0l-0.5-0.2l-0.5-0.1l-0.4-0.2l-0.6-0.2l-0.5-0.2l-0.4-0.2l-0.4-0.1
		l-0.5-0.4l-0.5-0.4l-0.4-0.4l-0.4-0.2l-0.5-0.5l-0.2-0.4l-0.2-0.4l-0.2-0.4l-0.4-0.5l-0.2-0.4l-0.2-0.5l-0.1-0.5l-0.2-0.5l0.1-0.5
		l0.1-0.5v-0.5l-0.5-0.2l-0.5-0.2v-0.4v-0.2v-0.5v-0.5v-0.4v-0.4V109v-0.4v-0.2V108l0.5-0.1l0.5-0.4v-0.2V107v-0.4v-0.2v-0.4v-0.2
		v-0.2v-0.2V105l0.1-0.4l0.1-0.2l0.1-0.2l0.1-0.2l0.1-0.2l0.1-0.4l0.1-0.2l0.1-0.4l0.1-0.4l0.1-0.2l0.2-0.4l0.1-0.2L59,101l0.1-0.4
		l0.2-0.4l0.2-0.4l0.2-0.4l0.2-0.5l0.4-0.4l0.2-0.4L61,98l0.4-0.5l0.4-0.4l0.1-0.2l0.3-0.1l0.1-0.2l0.4-0.1l0.2-0.2l0.4-0.2l0.4-0.1
		l0.2-0.2l0.2-0.1l0.4-0.2l0.2-0.2l0.2-0.1l0.4-0.2l0.2-0.2l0.4-0.2l0.2-0.1l0.2-0.1l0.4-0.4l0.2-0.2l0.4-0.1l0.2-0.4l0.4-0.1
		l0.4-0.2l0.4-0.2l0.4-0.4l0.5-0.1l0.2-0.4l0.5-0.1l0.4-0.2l0.5-0.2l0.5-0.2l0.5-0.2l0.4-0.2l0.5-0.2l0.4-0.2l0.5-0.1l0.4-0.2
		l0.5-0.2l0.5-0.2l0.5-0.1l0.5-0.4l0.5-0.2l0.5-0.1l0.5-0.2l0.4-0.2l0.5-0.1l0.5-0.1l0.5-0.2l0.5-0.2l0.4,0.1l0.4,0.3H81l0.4-0.6
		l0.2-0.3l0.2-0.2l0.2-0.2l0.2-0.1l0.4-0.3l0.2-0.1l0.4-0.2l0.2-0.1l0.2-0.2l0.4-0.1l0.2-0.2l0.2-0.1l0.4-0.2l0.2-0.2l0.4-0.2
		l0.4-0.2l0.4-0.2l0.2-0.2l0,0c-0.5,3.1,0.4,6.5,3.5,8.5c1.9,1.2,4.5,0.9,5.3-1.3c0.4-1.2,0.6-2.3-0.3-3.2c-0.6-0.7-1.6-1-2.4-0.7
		c-0.2,0.1-0.3,0.3-0.4,0.6c0,0.2,0,0.4,0.1,0.6c0,0.1,0.1,0.1,0.2,0.1c1.8-0.4,1.5,3-0.4,2.9c-1.8-0.1-3-2.4-3.3-3.9
		c-0.7-3.9,2-7.9,5.2-9.9c1.9-1.2,4.1-1.7,6.2-1c2.3,0.7,4.6,3,3.9,5.6c-0.5,2.3-2.4,3.8-4.7,2.7c-0.9-0.5-1.1-1-1-2
		c0-0.9,0.6-1.2,1.3-1.5c0.2-0.1,0.4-0.5,0.1-0.7c-1.8-1.1-3.2,1.2-3.3,2.6c-0.2,2.6,2.2,4,4.5,4.1c2.8,0.1,4.6-2.4,5.1-4.8
		c0.7-2.9-1.2-5.5-3.5-6.9c-2.4-1.5-4.9-1.5-7.2-0.7c0.8-0.6,1.6-1.1,2.4-1.6C100.6,70,102.8,68.3,104.5,65.8z M70.9,75.3l-0.2,0.4
		l-0.1,0.4l-0.2,0.4l-0.1,0.4L70,77.2l-0.2,0.4l-0.2,0.4l-0.2,0.4l-0.1,0.4L69,79l-0.4,0.4l-0.2,0.4l-0.1,0.4L68,80.5l-0.2,0.4
		l-0.2,0.2l-0.2,0.4L67,81.8l-0.2,0.4l-0.2,0.2l-0.2,0.4L66,83.2l-0.2,0.4l-0.2,0.2l-0.2,0.4L65,84.4l-0.2,0.4l-0.2,0.4l-0.2,0.2
		L64,85.7L63.8,86l-0.2,0.2l-0.2,0.2l-0.2,0.4l-0.4,0.2l-0.1,0.2l-0.4,0.2l-0.1,0.4l-0.6,0.5L61,88.9l-0.5,0.5l-0.4,0.5l-0.6,0.4
		L59,90.7l-0.3,0.3c1.2-5.6,0.6-12.1,0.3-17.7c-0.2-4.8,0-10.8,3.9-14.1c1.9-1.6,4.4-2.2,6.8-1.6c1,0.3,1.9,0.7,2.7,1.4l0.1,0.2
		l0.4,0.5l0.1,0.5l0.2,0.5l0.2,0.5l0.2,0.5L74,62v0.4l0,0.2l0,0.1c-0.1,2.3-1.7,4.9-4.3,4.1c-0.9-0.3-2-0.9-1.9-2
		c0.1-0.8,0.8-1.9,1.7-1.4c0.6,0.3,1.1-0.1,1.1-0.7c0-0.4,0-1-0.3-1.3c-1.2-1-2.8-0.7-3.9,0.3c-1.1,1-1.5,2.4-1.3,3.9
		c0.4,3.6,4.3,4.9,7.1,3.8c0.6-0.2,1.1-0.6,1.6-0.9l-0.1,0.3l-0.3,0.4L73,69.5v0.5l-0.1,0.2l0,0.5L72.8,71l-0.1,0.4l-0.1,0.4
		l-0.2,0.4l-0.1,0.5L71.9,73l-0.1,0.4l-0.1,0.4l-0.1,0.4l-0.1,0.6L71.2,75L70.9,75.3z M95.2,71.2l0.2-0.3l0.1-0.5l0.1-0.5l0.2-0.5
		L96,69l0.2-0.5l0.1-0.5l-0.2-0.5L96,66.8v-0.4v-0.6v-0.5l1-0.5v-0.5v-0.6v-0.4v-0.5v-0.5v-0.6v-0.4l-0.1-0.3c1,0.4,2.2,0.3,3.3-0.4
		c0.9-0.7,1.6-1.6,1.5-2.8c0-1.2-0.7-2.2-1.9-2.4c-0.4-0.1-0.7,0.2-0.9,0.5c-0.3,0.3-0.2,0.8,0.2,1c0.8,0.3,0.5,1.3,0.1,1.7
		c-0.6,0.6-1.7,0.3-2.3-0.1c-0.4-0.2-0.9-0.5-0.9-0.8v-0.1l0-0.4l0-0.2c-0.3-1.4,0.7-3.1,1.9-3.8c1.4-0.8,3.1-0.4,4.4,0.4
		c1.7,1,2.6,2.8,2.7,4.7c0.1,4-3.2,7.2-6.1,9.6C97.7,69.2,96.4,70.2,95.2,71.2z"/>
	<polygon fill="#587B5B" points="65,55 65,55.2 65,54.9 65.2,54.5 65.3,54.3 65.2,53.9 65.1,53.7 64.9,53.3 64.8,52.9 64.5,52.6 
		64.3,52.2 64,51.8 63.7,51.3 63.6,50.8 63.2,50.5 62.9,50.1 62.6,49.5 62.2,49 61.9,48.5 61.7,47.9 61.3,47.4 61.1,46.9 60.7,46.4 
		60.5,46 60.2,45.3 59.9,44.9 59.6,44.4 59.5,43.9 59.2,43.4 59,42.9 58.9,42.4 58.7,41.9 58.6,41.4 58.5,40.9 58.2,40.4 58.1,39.8 
		58,39.6 58,39.3 58,39 58,38.9 58,38.5 57.5,38.2 57,37.9 57,37.8 57,37.4 57,37 57,36.6 57,36.4 57,36.2 57,35.8 57,35.5 57,35.2 
		57,34.8 57,34.6 57,34.2 57,34 57,33.6 57,33.2 57,32.9 57,32.6 57,32.1 57,31.9 57,31.5 57,31.1 57,30.8 57,30.5 57,30 57,29.8 
		57,29.4 57,29.1 57,28.7 57,28.3 57,28 57,27.6 57,27.2 58,26.9 58,26.4 58,26.1 58.1,25.8 58.2,25.4 58.3,25 58.5,24.7 58.6,24.2 
		58.7,23.8 59,23.4 59.1,23.1 59.4,22.7 59.7,22.3 59.9,22 60.1,21.6 60.5,21.1 60.7,20.7 61,20.4 61.2,20 61.6,19.6 61.8,19.3 
		62.2,18.9 62.6,18.5 62.8,18.2 63.3,17.8 63.6,17.4 64,17.2 64.4,16.9 64.8,16.7 65.1,16.3 65.5,16 66,15.8 66.4,15.6 66.8,15.4 
		67.2,15.1 67.6,14.9 68.1,14.6 68.5,14.4 69,14.2 69.3,13.9 69.8,13.8 70.2,13.6 70.6,13.4 71.1,13.1 71.4,13 71.8,12.9 72.3,12.8 
		72.7,12.7 73.2,12.4 73.5,12.3 74,12 74.3,11.9 74.8,11.8 75.1,11.7 75.4,11.6 75.7,11.4 76.2,11.3 76.5,11.2 76.9,11.1 77.2,10.5 
		77.6,10 77.8,10 78.1,10 78.5,10 78.7,10.2 79.2,10.2 79.7,10 80.1,9.9 80.4,9.8 80.7,9.7 80.8,9.6 81,9.4 81,9.2 80.8,8.9 
		80.5,8.5 80.3,8.4 80.1,8.3 79.7,8 79.4,7.9 79.1,7.6 78.7,7.4 78.3,7.3 78,7 77.4,6.9 77,6.7 76.5,6.5 76.1,6.3 75.6,6.2 75,5.9 
		74.6,5.8 74.2,5.6 73.7,5.3 73.3,5 72.8,5 72.4,4.9 71.9,5 71.7,5 71.3,5 71.1,5 70.6,4.9 70.3,5 70.1,5 69.8,5.2 69.6,5.4 
		69.5,5.8 69.1,6.2 68.7,6.7 68.6,6.9 68.5,7.2 68.4,7.4 68.2,7.8 68,8.3 67.6,8.7 67.2,9.2 67,9.7 66.8,10.1 66.5,10.5 66.3,10.2 
		66.1,10 65.9,10 65.3,10 65,10 64.8,10 64.4,10 64.2,10 63.7,10 63.3,10 62.9,10 62.6,10 62.1,10 61.7,10 61.2,10 60.8,10 60.5,10 
		59.9,10 59.5,9 59.1,9 58.6,9 58.3,9 57.9,9 57.5,9 57.1,9 56.9,9 56.6,9 56.4,9 56,9 56,9.4 56,9.7 56,10.1 56,10.3 56,10.6 
		56,10.8 56,11.2 56,11.6 56,11.9 56,12.3 56,12.7 56,13 56,13.4 56,13.9 56,14.2 56,14.6 56,15.1 56,15.5 56,15.8 56,16.2 56,16.6 
		56,16.9 56,17.3 56,17.7 56,17.9 56,18.2 56,18.4 55.8,18.8 55.6,19 55.2,19.5 54.8,20 54.7,20 54.4,19.8 54.1,19.8 53.9,19.8 
		53.6,20 53.2,20 52.9,20.1 52.6,20.4 52.3,20.5 52,20.6 51.6,20.7 51.2,20.9 51,21 50.6,21.2 50.4,21.3 50,21.6 49.6,21.7 
		49.4,21.8 49,22 48.9,22.1 48.3,22.3 48,22.7 47.4,22.9 47,23.2 47,23.4 47.6,23.8 48,24.2 48.4,24.7 49,25 49.6,25.5 49.9,25.8 
		50.1,26.1 50.5,26.2 50.9,26.6 51,26.9 51.2,27.1 51.6,27.3 51.8,27.6 52.3,28.1 52.8,28.7 53.4,29.1 54,29.5 54,29.9 54,30.4 
		53.4,30.6 52.9,31.1 52.5,31.4 52.1,31.6 51.9,32 51.6,32.4 51.2,32.6 51,33 50.6,33.2 50.4,33.7 50,34.1 49.6,34.4 49.4,34.8 
		49,35.2 48.6,35.5 48.3,36 48,36.4 47.8,36.8 47.5,37.1 47.3,37.5 47,37.9 46.6,38.2 46,38.6 46,38.9 46,39.2 46,39.5 46,40 
		46.9,40 47,40 47.3,40.3 47.5,40.7 47.8,40.9 48,41 48.3,41.2 48.6,41.1 49,41 49.4,41 49.7,41.3 50.1,41.7 50.5,42 50.9,42 
		51.2,42 51.6,42 52,42 52.3,42 52.7,42.2 53.1,42.1 53.3,42 53.7,42 53.9,43 54.3,43 54.6,43 55,43.2 55.4,43.5 55.8,43.8 56,44.2 
		56,44.5 56,44.9 56,45.2 56,45.7 55.6,46.1 55.3,46.6 55.1,46.9 54.9,47.3 55,47.7 55,48.2 55,48.5 55,48.9 55,49.3 55,49.6 
		55.1,49.9 55.5,50.2 55.6,50.4 55.9,50.5 56,50.7 56.4,50.8 56.6,51 57,51.3 57.4,51.6 57.8,51.7 58.1,51.9 58.6,52.2 59,52.4 
		59.5,52.7 59.9,52.9 60.5,53.2 60.8,53.4 61.3,53.7 61.7,53.8 62.1,54 62.6,54.3 62.9,54.4 63.3,54.6 63.7,54.8 64,54.9 64.4,54.9 
		64.7,55 64.9,55 65.1,55 65.4,55 65.4,55 65.6,55 	"/>
	<path fill="#18AD9A" d="M111,37.6v-0.2l-0.3-0.4l-0.3-0.2l-0.3-0.2l-0.4-0.2l-0.5-0.4l-0.4-0.2l-0.5-0.2l-0.5-0.2l-0.5-0.2
		l-0.5-0.2l-0.6-0.2l-0.5-0.1l-0.2-0.2l-0.4,0l-0.2,0h-0.2l-0.4-0.1L104,34h-0.2l-0.4-0.1l-0.2,0.1h-0.2l-0.4-0.6l-0.2-0.3l-0.2-0.2
		l-0.4-0.2l-0.2-0.1l-0.2-0.1l-0.2-0.1l-0.4-0.1l-0.2-0.1l-0.2-0.1l-0.4-0.2L99,31.4l-0.4-0.2l-0.4-0.2l-0.4-0.1l-0.2-0.2l-0.4-0.4
		l-0.4-0.2l-0.1-0.2l-0.1-0.2l-0.4-0.5l-0.1-0.4l-0.1-0.5L96,27.5V27l0.1-0.6L96,26.1v-0.4v-0.2v-0.4v-0.5v-0.4v-0.4l-0.2-0.4
		l-0.2-0.5l-0.1-0.5l-0.3-0.5l-0.1-0.5l-0.2-0.4L94.7,21l-0.1-0.2l-0.2-0.2l-0.1-0.4L94,19.9l-0.1-0.2l-0.1-0.4l-0.2-0.4l-0.2-0.4
		l-0.4-0.2L92.8,18l-0.2-0.4l-0.2-0.2L92,17.2l-0.1-0.2l-0.6-0.5L90.8,16l-0.5-0.4l-0.5-0.2L89.3,15l-0.5-0.4l-0.6-0.2l-0.5-0.1
		l-0.5-0.4l-0.6-0.1l-0.5-0.1l-0.5-0.1l-0.5-0.1l-0.5-0.2L84,13h-0.5h-0.4h-0.5h-0.5h-0.4h-0.4H81h-0.4h-0.4h-0.2h-0.4l-0.2,0
		l-0.1,0h-0.5h-0.2h-0.4l-0.4,0.4l-0.5,0.3l-0.2,0.2l-0.4,0.3l-0.4,0.4L76,14.7l-0.1,0.1L75.6,15l-0.5,0.2l-0.4,0.1l-0.2,0.4
		l-0.4,0.1l-0.2,0.4l-0.4,0.4l-0.4,0.4L73,17.2l-0.1,0.2l-0.2,0.4L72.5,18l-0.2,0.4l-0.2,0.2l-0.2,0.2l-0.1,0.5l-0.1,0.4l-0.1,0.4
		l-0.2,0.5L71.1,21l-0.2,0.5L70.7,22l-0.1,0.4l-0.3,0.5L70,23.2v0.5V24v0.5v0.4v0.5v0.4v0.4v0.2v0.4l1,0.4v0.4v0.1v0.2v0.2v0.1v0.2
		v0.1l-0.1,0.4l0,0.4l0,0.1v0.2l0.1,0.4l0.2,0.4l0.1,0.2l0.1,0.2l0.1,0l0,0.1l0.1,0.4l0.2,0.2l0.2,0.4l0.2,0.2l0.4,0.2l0.2,0.4
		l0.2,0.4l0.4,0.2l0.2,0.4l0.4,0.2l0.4,0.4l0.4,0.2l0.5,0.4l0.4,0.4l0.5,0.4l0.2,0.1l0.5,0.2l0.4,0.1l0.4,0.2l0.4,0.1l0.4,0.1
		l0.4,0.1l0.5,0.1l0.2,0.1h0.5l0.4,0.5l0.5,0.5h0.4h0.4h0.4h0.5h0.4h0.2h0.4h0.5h0.4H85h0.2h0.4l0.2-0.5l0.4-0.5h0.2h0.4h0.4h0.5
		l0.1-0.1l0.4,0.1h0.4h0.4h0.4l0.5,0.6L90,38h0.2l0.2,0l0.4,0l0.2,0.1l0.4,0.1l0.2,0.1l0.2,0.1l0.4,0.1l0.2,0.1l0.2,0.2l0.4,0.1
		l0.4,0.2l0.2,0.1l0.4,0.1l0.4,0.2l0.4,0.1l0.4,0.2l0.2,0.1l0.4,0.4l0.4,0.1l0.2,0.2l0.4,0.2l0.4,0.1l0.4,0.1l0.2,0.2l0.4,0.2
		l0.4,0.1l0.2,0.1l0.4,0.4l0.2,0.1l0.2,0.2l0.4,0.2l0.2,0.1l0.4,0.2l0.2,0.2l0.6,0.2l0.5,0.4l0.4,0.4l0.6,0.4l0.2,0.4l0.4,0.2
		L104,46l0.4,0.4l0.4,0.2l0.5,0.2l0.5-0.1l0.5-0.1l0.5-0.2l0.5-0.5l0.2-0.4l0.4-0.2l0.1-0.2l0.4-0.2l0.1-0.5l0.4-0.4l0.1-0.4
		l0.2-0.2l0.2-0.5l0.1-0.4l0.2-0.5l0.2-0.4l0.1-0.4l0.1-0.4l0.2-0.4l0.1-0.4l0.1-0.4l0.1-0.4L111,39v-0.4v-0.4v-0.4V37.6z M107,39.5
		v0.4l0.1,0.2l-0.1,0.4v0.4l-0.7,0.1l-0.3,0.4l-0.2,0.2l-0.3,0.2l-0.4,0.2h-0.4l-0.1-0.1l-0.4-0.2l-0.4-0.2l-0.4-0.2l-0.5-0.4
		l-0.5-0.2l-0.5-0.4l-0.5-0.4l-0.4-0.1l-0.4-0.2l-0.2-0.2l-0.2-0.1l-0.6-0.5l-0.5-0.2l-0.5-0.2l-0.5-0.2l-0.4-0.4l-0.2-0.1l-0.5-0.2
		L96.7,37l-0.5-0.4l-0.5-0.2l-0.2-0.1L95.1,36l-0.2-0.1l-0.2-0.1l-0.4-0.2l-0.4-0.2l-0.2-0.1l-0.4-0.1l-0.4-0.2l-0.2-0.2l-0.4-0.1
		L92,34.3l-0.4-0.2L91.4,34l-0.2-0.1l-0.2-0.1l-0.5-0.2L90,33.7L89.7,34h-0.2h-0.2h-0.4h-0.5h-0.5h-0.2h-0.2H87h-0.2h-0.2h-0.4h-0.4
		h-0.4H85h-0.4h-0.4h-0.4h-0.4h-0.4h-0.5h-0.4h-0.4h-0.4H81h-0.4l-0.4-0.5l-0.4-0.3L79.6,33l-0.4-0.3l-0.4-0.1l-0.4-0.3L78.1,32
		l-0.4-0.1l-0.4-0.2l-0.2-0.3l-0.4-0.1l-0.4-0.4l-0.2-0.4L76,30.3l-0.4-0.5l-0.2-0.2l-0.1-0.4l-0.1-0.4L75,28.4l-0.1-0.4l0.1-0.5
		v-0.4v-0.5v-0.4V26v-0.5l-1-0.4v-0.5l1-0.5v-0.4v-0.4v-0.5v-0.4l0-0.4l0.1-0.5l0.1-0.4l0.2-0.4l0.2-0.2l0.1-0.4l0.2-0.2l0.4-0.4
		l0.2-0.2l0.2-0.4l0.5-0.2l0.4-0.4l0.4-0.1l0.4-0.2l0.4-0.1l0.4-0.2l0.5-0.1l0.2,0.2l0.4,0.2h0.1h0.4h0.1h0.2h0.2h0.4h0.4h0.4h0.4
		h0.4h0.4h0.2h0.4h0.2h0.2l0.4,0l0.2,0l0.4,0.1l0.1,0.1l0.4,0.1l0.2,0.1l0.4,0.1l0.1,0.1l0.4,0.2l0.5,0.2l0.4,0.5l0.5,0.4l0.5,0.4
		l0.4,0.5l0.4,0.4l0.2,0.5l0.4,0.6l0.2,0.4l0,0.6l0.2,0.2v0.4l0.4,0.2l0.6,0.2V25v0.5V26v0.5v0.4v0.5v0.2V28v0.2v0.4v0.2v0.2v0.5
		l0,0.5l0,0.2l0.2,0.4l0.3,0.2l0.5,0.5l0.2,0.1l0.2,0.2l0.4,0.2l0.2,0.1l0.2,0.2l0.4,0.2l0.4,0.2l0.4,0.2l0.2,0.1l0.2,0.2l0.4,0.2
		l0.4,0.2l0.4,0.1l0.4,0.2l0.2,0.1l0.4,0.2l0.2,0.2l0.4,0.1l0.2,0.1l0.4,0.2l0.5,0.4l0.5,0.1l0.4,0.2l0.5,0.1l0.5,0.2l0.5,0.1
		l0.4,0.1l0.5,0.4l0.4,0.1l0.6,0.2l0.4,0.2l0.5,0.1l0.4,0.1l0.4,0.1l0.2,0.2l0.2,0.1l0.4,0.1l0.3,0.1L107,39V39.5z"/>
	<polygon fill="#18AD9A" points="86.3,22 86.2,21.6 86.1,21.2 85.9,21 85.6,20.7 85.4,20.4 85.1,20.2 84.7,20.1 84.5,20 84.1,19.9 
		83.8,20 83.4,20 83.1,20 82.8,19.9 82.4,20 81.9,20 81.7,19.9 81.4,20.1 81,20.2 80.8,20.3 80.6,20.5 80.3,20.7 80.1,21 79.9,21.3 
		79.4,21.6 79,22 79,22.3 79,22.7 79,23.1 79,23.4 79,23.7 79.4,24 79.6,24.4 79.8,24.7 79.9,25 80.2,25.4 80.4,25.6 80.7,25.8 
		80.9,26.1 81.2,26.2 81.5,26.4 81.8,26.2 82.2,26 82.5,26 83,27 83.3,27 83.6,26 83.9,26 84.3,26.1 84.6,26.1 84.9,26 85.1,26 
		85.5,25.7 85.7,25.5 85.9,25.1 86.1,24.9 86.5,24.6 87,24.3 87,23.9 87,23.6 87,23.3 87,22.8 87,22.6 86.7,22.2 	"/>
</g>
</svg>
