<?xml version="1.0" encoding="utf-8"?>
<!-- Generator: Adobe Illustrator 18.1.0, SVG Export Plug-In . SVG Version: 6.00 Build 0)  -->
<svg version="1.0" id="Layer_1" xmlns="http://www.w3.org/2000/svg" xmlns:xlink="http://www.w3.org/1999/xlink" x="0px" y="0px"
	 viewBox="0 0 150 150" enable-background="new 0 0 150 150" xml:space="preserve">
<g>
	<path fill="none" d="M99.3,52.1h-1.8c0-12.3-10-22.2-22.3-22.3c-12.3,0-22.2,10-22.3,22.3H51C39.3,52.7,30,62.3,30,74.2
		c0,12.1,9.7,22,21.8,22.2h1.1c0,12.3,10,22.2,22.3,22.3c12.3,0,22.2-10,22.3-22.3h0.9c12.1-0.2,21.9-10,21.9-22.2
		C120.2,62.4,110.9,52.8,99.3,52.1z M62.6,49.9c0-2.9,2.4-5.3,5.4-5.3h1.6l-7,7V49.9z M45,67.5c0-2.9,2.4-5.3,5.3-5.3H52l-7,7V67.5z
		 M45,73.7l11.5-11.5h6v-6l11.5-11.5h8.1L45,81.8V73.7z M51.5,88h-1.2c-1.9,0-3.5-1-4.4-2.5l40-40c1.5,0.9,2.5,2.5,2.5,4.4v1.2
		L51.5,88z M56.1,88l32.3-32.3v6.5H90L62.6,89.6V88H56.1z M62.6,100.2v-6l32-32h6c0.6,0,1.2,0.2,1.7,0.3L62.9,102
		C62.7,101.4,62.6,100.9,62.6,100.2z M88.4,100.2c0,0.7-0.2,1.4-0.4,2.1l-2.9,2.9c-0.6,0.3-1.3,0.4-2.1,0.4h-6.5l11.8-11.8V100.2z
		 M106,82.7c0,0.7-0.2,1.4-0.4,2.1l-2.9,2.9c-0.6,0.3-1.3,0.4-2.1,0.4h-6.5L106,76.2V82.7z M106,71.6L89.6,88h-1.2v1.2L72,105.6
		h-4.1c-1.1,0-2.1-0.4-3-1l40-40c0.6,0.9,1,1.9,1,3V71.6z"/>
	<path fill="none" d="M75,15C42.2,15,15.6,41.6,15.5,74.4c0,32.9,26.6,59.4,59.5,59.5c32.8-0.1,59.4-26.6,59.5-59.5
		C134.4,41.6,107.8,15,75,15z M103.3,102.4c-2.8,13-14.3,22.8-28.1,22.8c-13.8,0-25.3-9.8-28.1-22.7C33.7,100,23.5,88.3,23.5,74.2
		c0-14.1,10.2-25.8,23.6-28.2c2.8-13,14.3-22.7,28.1-22.7s25.3,9.7,28.1,22.7c13.4,2.5,23.5,14.1,23.5,28.2
		C126.7,88.3,116.6,99.9,103.3,102.4z"/>
	<path fill="#F05A31" d="M75,8.5C38.6,8.5,9.1,38,9.1,74.4c0,36.4,29.5,65.9,65.9,65.9c36.4,0,65.9-29.5,65.9-65.9
		C140.9,38,111.4,8.5,75,8.5z M75,133.9c-32.8-0.1-59.4-26.6-59.5-59.5C15.6,41.6,42.2,15,75,15c32.8,0.1,59.4,26.6,59.5,59.5
		C134.4,107.3,107.8,133.8,75,133.9z"/>
	<path fill="#07151C" d="M103.2,46c-2.8-13-14.3-22.7-28.1-22.7S49.9,33.1,47.1,46c-13.4,2.4-23.6,14.1-23.6,28.2
		c0,14.1,10.2,25.8,23.6,28.2c2.8,13,14.3,22.7,28.1,22.7c13.8,0,25.3-9.8,28.1-22.8c13.3-2.5,23.5-14.1,23.5-28.2
		C126.7,60.1,116.6,48.5,103.2,46z M98.3,96.5h-0.9c0,12.3-10,22.2-22.3,22.3c-12.3,0-22.2-10-22.3-22.3h-1.1
		C39.7,96.2,30,86.4,30,74.2c0-11.9,9.3-21.5,21.1-22.1h1.8c0-12.3,10-22.2,22.3-22.3c12.3,0,22.2,10,22.3,22.3h1.8
		c11.7,0.7,20.9,10.3,21,22.1C120.2,86.4,110.4,96.3,98.3,96.5z"/>
	<path fill="#BC4625" d="M64.9,104.6c0.9,0.6,1.9,1,3,1H72l16.4-16.4V88h1.2L106,71.6v-4.1c0-1.1-0.4-2.1-1-3L64.9,104.6z"/>
	<path fill="#F05A31" d="M67.9,44.6c-3,0-5.4,2.4-5.4,5.3v1.6l7-7H67.9z"/>
	<path fill="#F05A31" d="M100.6,88c0.7,0,1.4-0.2,2.1-0.4l2.9-2.9c0.3-0.6,0.4-1.3,0.4-2.1v-6.5L94.2,88H100.6z"/>
	<path fill="#F05A31" d="M88.4,49.9c0-1.9-1-3.5-2.5-4.4l-40,40c0.9,1.5,2.5,2.5,4.4,2.5h1.2l36.9-36.9V49.9z"/>
	<polygon fill="#BC4625" points="74.1,44.6 62.6,56.1 62.6,62.2 56.5,62.2 45,73.7 45,81.8 82.2,44.6 	"/>
	<path fill="#F05A31" d="M100.6,62.2h-6l-32,32v6c0,0.6,0.2,1.2,0.4,1.7l39.4-39.4C101.8,62.4,101.2,62.2,100.6,62.2z"/>
	<polygon fill="#BC4625" points="62.6,89.6 90,62.2 88.4,62.2 88.4,55.7 56.1,88 62.6,88 	"/>
	<path fill="#F05A31" d="M50.3,62.2c-3,0-5.3,2.4-5.3,5.3v1.6l7-7H50.3z"/>
	<path fill="#F05A31" d="M83.1,105.6c0.7,0,1.4-0.2,2.1-0.4l2.9-2.9c0.3-0.6,0.4-1.3,0.4-2.1v-6.5l-11.8,11.8H83.1z"/>
</g>
</svg>
