<?xml version="1.0" encoding="utf-8"?>
<!-- Generator: Adobe Illustrator 14.0.0, SVG Export Plug-In . SVG Version: 6.00 Build 43363)  -->
<!DOCTYPE svg PUBLIC "-//W3C//DTD SVG 1.1//EN" "http://www.w3.org/Graphics/SVG/1.1/DTD/svg11.dtd">
<svg version="1.1" id="Layer_1" xmlns="http://www.w3.org/2000/svg" xmlns:xlink="http://www.w3.org/1999/xlink" x="0px" y="0px"
	 width="150px" height="150px" viewBox="0 0 150 150" enable-background="new 0 0 150 150" xml:space="preserve">
<g>
	<path fill="#DC1F26" d="M123.025,104.438c4.076-7.937,6.596-16.779,6.596-26.29c0-9.77-2.643-18.83-6.912-26.918
		c-8.475,5.474-31.375,20.388-45.324,30.177l13.502,6.666c5.817-4.735,15.672-4.133,23.517,1.905
		C119.516,93.916,122.326,99.273,123.025,104.438z"/>
	<path fill="#F7CD26" d="M76.238,83.731l1.141-2.325c-0.434,0.317-0.868,0.615-1.315,0.939L76.238,83.731z"/>
	<path fill="#007CA0" d="M68.361,20.612c-12.536,0.735-23.88,5.426-33.008,12.902c2.643,0.152,13.132,1.248,22.545,9.268
		C58.734,36.215,61.727,28.707,68.361,20.612z"/>
	<path fill="#DC1F26" d="M112.44,119.254c-5.384,1.004-11.7-0.26-17.161-4.438c-1.775-1.38-3.227-2.954-4.516-4.612
		c0.252,1.14,0.479,2.255,0.59,3.473c0.971,11.065-5.216,20.666-13.832,21.431c-8.623,0.751-16.404-7.612-17.389-18.717
		c-0.881-10.281,4.418-19.215,12.076-21.062l-1.127-9.472c-14.162,10.146-29.49,21.858-40.886,32.367
		c10.521,10.923,25.228,17.803,41.579,17.803C87.635,136.026,101.978,129.6,112.44,119.254z"/>
	<path fill="#DC1F26" d="M76.634,87.042l0.952,8.183c3.473,0.72,6.582,2.896,9.018,6.038c-0.582-3.116-0.336-6.187,0.908-8.837
		L76.634,87.042z"/>
	<path fill="#007CA0" d="M26.795,114.097c2.578-2.364,5.325-4.801,8.202-7.236c-3.926,0.687-8.124,1.296-12.128,1.853
		C24.048,110.604,25.415,112.36,26.795,114.097z"/>
	<path fill="#007CA0" d="M74.852,30.194l-0.797,0.777c0,0-3.427,15.422-5.429,26.526c0.842,1.847,1.594,3.855,2.248,6
		C71.14,54.711,72.047,39.195,74.852,30.194z"/>
	<path fill="#DC1F26" d="M117.539,108.104c-0.156-3.512-1.477-14.797-12.756-16.404c0,0,8.266,3.68,12.756,17.453
		C117.539,109.153,117.552,108.745,117.539,108.104z"/>
	<path fill="#DC1F26" d="M73.725,128.796c0.524,0.396,0.868,0.583,0.868,0.583c-9.186-11.207-7.839-20.174-7.839-20.174
		C62.031,119.597,70.816,126.794,73.725,128.796z"/>
	<path fill="#007CA0" d="M42.641,99.772l0.149,0.654c23.789-19.066,65.485-46.266,77.341-53.93
		c-8.662-13.232-22.604-22.575-38.839-25.289c4.892,9.582,8.888,26.698-7.14,47.62l-1.892-0.045c0.331,1.697,0.7,3.408,0.952,5.283
		l-2.455,2.352c-3.9-3.975-18.872-19.649-24.372-30.17v1.121c0,0,20.686,32.567,22.053,31.266l-1.367,1.302
		c0,0-33.85-0.79-32.36-45.877C22.104,44.667,13.955,60.377,13.955,78.141c0,9.181,2.332,17.758,6.174,25.52
		C27.857,102.643,36.616,101.295,42.641,99.772z"/>
	<path fill="#DC1F26" d="M144.016,74.889c-0.025-1.289-0.057-2.51-0.115-3.738c-0.584-9.844-3.252-19.245-7.334-27.385
		c-4.057-8.166-9.465-15.03-15.283-20.485c-5.863-5.439-12.004-9.627-17.945-12.377c-0.726-0.353-1.438-0.696-2.157-1.049
		c-0.712-0.305-1.451-0.603-2.151-0.862c-1.425-0.538-2.811-1.075-4.127-1.587c-2.701-0.842-5.234-1.451-7.508-2.096
		c-2.396-0.417-4.541-0.768-6.434-1.082c-1.904-0.311-3.174-0.285-4.393-0.418c-2.319-0.133-3.582-0.236-3.582-0.236h-0.143
		c-3.148-0.107-5.805,2.319-5.921,5.464c-0.11,3.152,2.339,5.805,5.468,5.925h0.026c0,0,1.264,0.045,3.583,0.146
		c1.107,0.081,2.733,0,4.165,0.227c1.478,0.223,3.155,0.463,5.041,0.735c1.924,0.463,4.113,0.942,6.414,1.606
		c1.14,0.418,2.325,0.787,3.557,1.241c0.615,0.224,1.236,0.437,1.871,0.654c0.616,0.295,1.244,0.593,1.859,0.891
		c5.157,2.154,10.535,5.591,15.724,10.129c5.171,4.544,10.056,10.375,13.812,17.388c3.752,7,6.344,15.15,7.141,23.834l0.213,3.262
		l0.104,1.658l-0.045,1.535l-0.143,3.569l-0.084,1.802l-0.227,1.587c-0.357,2.145-0.5,4.314-1.141,6.55
		c-0.537,2.189-1.037,4.438-1.885,6.569c-3,8.7-7.988,16.87-14.506,23.633c-6.614,6.699-14.706,11.946-23.4,15.225
		c-8.739,3.259-17.926,4.535-26.963,3.927c-8.811-0.558-17.285-3.007-24.612-6.68c-7.346-3.706-13.533-8.636-18.418-13.864
		c-4.878-5.306-8.636-10.838-11.065-16.202c-0.311-0.648-0.641-1.29-0.959-1.918c-0.252-0.693-0.492-1.335-0.764-1.97
		c-0.467-1.282-0.946-2.514-1.393-3.712c-0.764-2.449-1.302-4.71-1.859-6.731c-0.356-2.099-0.674-3.951-0.946-5.571
		c-0.285-1.619-0.233-3.019-0.343-4.159c-0.149-2.293-0.24-3.473-0.24-3.473v-0.077c-0.02-0.479-0.434-0.843-0.9-0.843
		c-0.499,0-0.868,0.421-0.855,0.92c0,0,0.045,1.244,0.104,3.583c0.097,1.134-0.013,2.591,0.24,4.282
		c0.227,1.685,0.499,3.589,0.784,5.753C6.789,92.62,7.301,94.979,8,97.519c0.434,1.257,0.888,2.546,1.334,3.899
		c0.253,0.674,0.493,1.36,0.732,2.048c0.304,0.66,0.628,1.366,0.939,2.06c2.364,5.649,6.089,11.558,11.039,17.246
		c4.956,5.688,11.344,11.065,19.021,15.218c7.632,4.166,16.572,7.055,26.167,7.942c9.446,0.946,19.61-0.123,29.166-3.388
		c9.595-3.266,18.619-8.74,26.103-15.886c7.424-7.243,13.273-16.17,16.902-25.777c1.018-2.378,1.684-4.827,2.338-7.314
		c0.777-2.397,1.076-5.027,1.543-7.619l0.316-1.904l0.117-1.801l0.252-3.551l0.072-0.868l0.039-0.446v-0.24l0.012-0.091v-0.337
		L144.016,74.889z"/>
</g>
</svg>
