<?xml version="1.0" encoding="utf-8"?>
<!-- Generator: Adobe Illustrator 18.1.0, SVG Export Plug-In . SVG Version: 6.00 Build 0)  -->
<svg version="1.0" id="Layer_1" xmlns="http://www.w3.org/2000/svg" xmlns:xlink="http://www.w3.org/1999/xlink" x="0px" y="0px"
	 viewBox="0 0 150 150" enable-background="new 0 0 150 150" xml:space="preserve">
<g>
	<path fill="none" d="M120.2,73.6l0.2-2.1l-0.2,1.4c0,0,0-39.7,0-45.8c-9.8-3.7-20.2-6.2-30.7-7.3c-0.2,0-0.4,0-0.7-0.1
		c-3.3-0.3-6.6-0.5-9.9-0.6c-2,0-2.9,0-4.6,0c-13.8,0.3-27.6,3-40.5,7.9c0,2.3,0,9.5,0,17.5l5.1-4.7l3.7,4l-2.4,4.4
		c-0.4,0.7-0.3,1.6,0.3,2.1c0.5,0.6,1.4,0.7,2.1,0.4l4.5-2.1l3.7,4l-17,15.9c0,2.6,0,4.3,0,4.3l-0.2-1.3l0.2,2.1c0,0.2,0,0.4,0,0.6
		c0,2,0.7,6.2,4.8,13.2l23.1-21.6l3.7,4L63,74.2c-0.4,0.7-0.3,1.6,0.3,2.1c0.5,0.6,1.4,0.7,2.1,0.4l4.5-2.1l3.7,4l-24.4,22.9
		c2,2.3,4.2,4.6,6.8,7.2c1.5,1.5,2.9,2.9,4.3,4.2l27.4-25.6l3.7,4L89,95.6c-0.4,0.7-0.3,1.6,0.3,2.1c0.5,0.6,1.4,0.7,2.1,0.4
		l4.5-2.1l3.7,4L72.8,125c1.8,1.7,3.2,3.1,4.3,4c3.1-2.9,9.1-8.6,21-20.4c20.1-20.3,22.2-31,22.2-34.5
		C120.2,74,120.2,73.8,120.2,73.6z M107,48c0.1-0.1,0.2-0.2,0.3-0.3c0.2-0.2,0.4-0.3,0.6-0.4c0.5-0.3,1-0.4,1.5-0.4
		c0.7,0,1.4,0.2,2,0.7c1.4,1.1,1.5,3.1,0.4,4.5c-0.6,0.7-1.5,1.2-2.4,1.2c-0.6,0-1.2-0.2-1.7-0.5c-0.1-0.1-0.2-0.1-0.3-0.2
		c-0.1-0.1-0.2-0.2-0.3-0.3c-0.2-0.2-0.3-0.4-0.4-0.6c-0.2-0.4-0.4-0.8-0.4-1.3c-0.1-0.7,0.1-1.5,0.5-2.1
		C106.9,48.2,107,48.1,107,48z M104.7,36.5c1.2,3.4,1.9,6.8,2.1,10.1c-0.2,0.2-0.5,0.4-0.7,0.6c-1.5,1.8-1.2,4.3,0.4,5.9
		c-0.2,1.6-0.5,3.1-1,4.7c-0.1,0-0.1,0-0.2,0c-2.4,0-5.2-0.6-8.7-2c0,0,3.9,2.2,7.6,5.7c-0.7,1.8-1.6,3.6-2.6,5.4
		c-1.4,2.6-3,4.8-4.6,6.8c0.7-2.3,0.8-4.6,0.4-7c-0.6-3.8-2.5-7.3-4.8-10.2c-0.2-0.2-0.3-0.4-0.5-0.6c-0.1-0.1-0.2-0.3-0.4-0.4
		c-2-2.3-4.2-4.3-6.2-5.8c1.5,0.3,3,0.4,4.3,0.4c1.1,0,2.1-0.1,3-0.3c0.2,0,0.3-0.1,0.5-0.1c0.2,0,0.5-0.1,0.7-0.2
		c2.3-0.6,4.3-1.8,5.9-3.5C102.9,43.2,104.1,39.5,104.7,36.5z M93.5,34.8c0.2-0.1,0.4-0.1,0.6-0.2c0.4-0.1,0.8-0.2,1.2-0.2
		c1,0,2,0.4,2.8,1c0.9,0.7,1.5,1.8,1.6,3c0.1,1.2-0.2,2.3-1,3.2c-0.8,1-2.1,1.6-3.4,1.6c-0.2,0-0.4,0-0.5,0c-0.2,0-0.4-0.1-0.6-0.1
		c-0.2,0-0.3-0.1-0.5-0.2c-0.4-0.2-0.8-0.4-1.2-0.7c-1.9-1.5-2.2-4.3-0.6-6.2c0.3-0.4,0.7-0.7,1.2-1C93.2,34.9,93.4,34.8,93.5,34.8z
		 M67.1,28.3c1.3-1.6,3.2-2.5,5.3-2.5c1.6,0,3.1,0.6,4.3,1.6c2.9,2.4,3.3,6.7,0.9,9.6c-1.3,1.6-3.2,2.5-5.3,2.5
		c-1.6,0-3.1-0.6-4.3-1.6C65.2,35.6,64.7,31.3,67.1,28.3z M57.1,42l-5.7,2.7l0.8,6.5l-4.5-4.7l-5.9,2.8l3.1-5.7l-4.5-4.7l6.4,1.2
		l3.1-5.7l0.8,6.5l5.9,1.1l0.5,0.1L57.1,42z M86.2,69.3c-2.6,4.7-5.7,8.8-8.4,11.9c1.7-4.1,2.2-8.2,1.6-12.4c0-0.2-0.1-0.4-0.1-0.7
		l-0.5,0.3l-0.5,0.2l-4.1,1.9L75,77l-4.5-4.7l-5.9,2.8l3.1-5.7l-4.5-4.7l6.4,1.2l3.1-5.7l0.8,6.5l4.3,0.8l0.6,0.1l0.6,0.1
		c-2.3-10.8-11.6-19.4-18.4-24.5c3,0.7,5.7,1.1,8.3,1.1c5.9,0,10.7-1.9,14.2-5.6c4.4-4.6,6-11,6.5-15.4c1.4,3.5,2.4,7.1,3.1,10.6
		c-0.7,0.3-1.3,0.8-1.9,1.5c-2,2.4-1.6,5.9,0.8,7.8c0.6,0.5,1.2,0.8,1.9,1c0,1.5-0.2,3-0.3,4.5c-1,0.2-2,0.3-3.2,0.3
		c-3,0-6.7-0.8-11.2-2.6c0,0,7.4,4.1,12.7,10.5C90.3,61,88.6,65.2,86.2,69.3z M100.9,98.4l-4.5-4.7l-5.9,2.8l3.1-5.7L89.2,86
		l6.4,1.2l3.1-5.7l0.8,6.5l6.4,1.2l-5.9,2.8L100.9,98.4z M114.3,71.7c-0.9,1.6-1.8,3-2.8,4.3c0.3-1.4,0.3-2.9,0.1-4.3
		c-0.6-4.1-3.2-7.6-5.9-10.4c-0.2-0.2-0.3-0.3-0.5-0.5c-0.1-0.1-0.3-0.3-0.4-0.4c-0.6-0.6-1.2-1.1-1.8-1.6c0.8,0.1,1.5,0.2,2.2,0.2
		c0.1,0,0.1,0,0.2,0c0.1,0,0.2,0,0.3,0c0.2,0,0.5,0,0.7,0c2.9-0.2,5.2-1.2,7.1-3.1c1.9-2,2.8-4.5,3.3-6.6
		C119.3,56.7,118.4,64.3,114.3,71.7z"/>
	<path fill="none" d="M130,73.9l0,0.1C130,74,130,74,130,73.9L130,73.9z"/>
	<path fill="#4BB1C5" d="M92.5,42.2c0.4,0.3,0.7,0.5,1.2,0.7c0.2,0.1,0.3,0.1,0.5,0.2c0.2,0.1,0.4,0.1,0.6,0.1c0.2,0,0.4,0,0.5,0
		c1.3,0,2.6-0.6,3.4-1.6c0.7-0.9,1.1-2.1,1-3.2c-0.1-1.2-0.7-2.2-1.6-3c-0.8-0.6-1.8-1-2.8-1c-0.4,0-0.8,0.1-1.2,0.2
		c-0.2,0.1-0.4,0.1-0.6,0.2c-0.2,0.1-0.3,0.2-0.5,0.3c-0.4,0.3-0.8,0.6-1.2,1C90.3,37.9,90.6,40.7,92.5,42.2z"/>
	<path fill="#4BB1C5" d="M93.6,49.7c-0.2,0-0.3,0.1-0.5,0.1c-1,0.2-2,0.3-3,0.3c-1.4,0-2.8-0.1-4.3-0.4c2,1.6,4.2,3.6,6.2,5.8
		c0.1,0.1,0.2,0.3,0.4,0.4c0.2,0.2,0.3,0.4,0.5,0.6c2.3,3,4.2,6.4,4.8,10.2c0.4,2.4,0.2,4.7-0.4,7c1.5-1.9,3.1-4.2,4.6-6.8
		c1-1.8,1.9-3.6,2.6-5.4c-3.7-3.6-7.6-5.7-7.6-5.7c3.5,1.4,6.4,2,8.7,2c0.1,0,0.1,0,0.2,0c0.4-1.6,0.8-3.1,1-4.7
		c-1.7-1.5-1.9-4.1-0.4-5.9c0.2-0.2,0.4-0.4,0.7-0.6c-0.2-3.4-0.9-6.8-2.1-10.1c-0.5,3-1.7,6.7-4.4,9.6c-1.6,1.7-3.6,2.9-5.9,3.5
		C94,49.6,93.8,49.6,93.6,49.7z"/>
	<polygon fill="#4BB1C5" points="79.2,67.6 78.5,67.5 77.9,67.4 73.6,66.6 72.8,60.1 69.7,65.8 63.3,64.6 67.7,69.4 64.6,75.1 
		70.5,72.3 75,77 74.1,70.6 78.2,68.6 78.7,68.4 79.3,68.1 80,67.8 	"/>
	<path fill="#4BB1C5" d="M69.9,74.6l-4.5,2.1c-0.7,0.3-1.6,0.2-2.1-0.4c-0.5-0.6-0.7-1.4-0.3-2.1l2.4-4.4l-3.7-4L38.6,87.3
		c2.3,3.8,5.7,8.5,10.6,14.1l24.4-22.9L69.9,74.6z"/>
	<path fill="#C32026" d="M106.7,51.6c0.1,0.2,0.3,0.4,0.4,0.6c0.1,0.1,0.2,0.2,0.3,0.3c0.1,0.1,0.2,0.1,0.3,0.2
		c0.5,0.3,1.1,0.5,1.7,0.5c1,0,1.8-0.4,2.4-1.2c1.1-1.4,0.9-3.4-0.4-4.5c-0.6-0.5-1.3-0.7-2-0.7c-0.5,0-1.1,0.1-1.5,0.4
		c-0.2,0.1-0.4,0.3-0.6,0.4c-0.1,0.1-0.2,0.2-0.3,0.3c-0.1,0.1-0.1,0.2-0.2,0.3c-0.4,0.6-0.6,1.3-0.5,2.1
		C106.4,50.8,106.5,51.2,106.7,51.6z"/>
	<path fill="#C32026" d="M113.5,55.8c-1.8,1.9-4.2,2.9-7.1,3.1c-0.2,0-0.4,0-0.7,0c-0.1,0-0.2,0-0.3,0c-0.1,0-0.1,0-0.2,0
		c-0.7,0-1.5-0.1-2.2-0.2c0.6,0.5,1.2,1,1.8,1.6c0.1,0.1,0.3,0.3,0.4,0.4c0.2,0.2,0.3,0.3,0.5,0.5c2.8,2.8,5.3,6.3,5.9,10.4
		c0.2,1.5,0.2,2.9-0.1,4.3c1-1.3,1.9-2.7,2.8-4.3c4.2-7.4,5-15,2.5-22.6C116.3,51.3,115.4,53.9,113.5,55.8z"/>
	<polygon fill="#C32026" points="99.6,88 98.7,81.5 95.6,87.2 89.2,86 93.7,90.7 90.6,96.5 96.4,93.7 100.9,98.4 100.1,92 106,89.2 
			"/>
	<path fill="#C32026" d="M95.9,96l-4.5,2.1c-0.7,0.3-1.6,0.2-2.1-0.4c-0.5-0.6-0.6-1.4-0.3-2.1l2.4-4.4l-3.7-4l-27.4,25.6
		c5.6,5.5,9.7,9.4,12.6,12.2l26.8-25.1L95.9,96z"/>
	<path fill="#F26A21" d="M72.4,39.5c2.1,0,4-0.9,5.3-2.5c2.4-2.9,2-7.2-0.9-9.6c-1.2-1-2.8-1.6-4.3-1.6c-2.1,0-4,0.9-5.3,2.5
		c-2.4,2.9-2,7.2,0.9,9.6C69.3,39,70.8,39.5,72.4,39.5z"/>
	<path fill="#F26A21" d="M78.8,46.3c4.5,1.8,8.2,2.6,11.2,2.6c1.2,0,2.2-0.1,3.2-0.3c0.2-1.5,0.3-3,0.3-4.5c-0.7-0.2-1.3-0.5-1.9-1
		c-2.4-2-2.7-5.5-0.8-7.8c0.5-0.6,1.2-1.1,1.9-1.5c-0.6-3.5-1.6-7.1-3.1-10.6c-0.5,4.4-2.1,10.8-6.5,15.4c-3.6,3.7-8.3,5.6-14.2,5.6
		c-2.5,0-5.3-0.4-8.3-1.1c6.8,5,16.2,13.7,18.4,24.5l0.9,0.2l-0.8,0.4c0,0.2,0.1,0.4,0.1,0.7c0.7,4.2,0.1,8.4-1.6,12.4
		c2.7-3.2,5.8-7.2,8.4-11.9c2.3-4.1,4.1-8.3,5.3-12.5C86.3,50.4,78.8,46.3,78.8,46.3z"/>
	<polygon fill="#F26A21" points="50.9,40.7 50,34.2 46.9,39.9 40.5,38.7 45,43.4 41.9,49.2 47.7,46.4 52.2,51.1 51.4,44.6 57.1,42 
		57.3,41.9 56.7,41.8 	"/>
	<path fill="#F26A21" d="M47.2,48.7l-4.5,2.1c-0.7,0.3-1.6,0.2-2.1-0.4c-0.5-0.6-0.6-1.4-0.3-2.1l2.4-4.4l-3.7-4l-5.1,4.7
		c0,8.8,0,18.5,0,23.9l17-15.9L47.2,48.7z"/>
	<path fill="#0F3D62" d="M130.2,74.2c0-0.5,0-0.9-0.1-1.3V20.2l-3.1-1.3c-14-5.8-29.1-8.9-44.2-9.6l0-0.2h0C80.7,9,78.5,9,76.4,9
		c-1.7,0-3.5,0-5.2,0.1h0v0.1C56,10,40.9,13.1,27,18.9l-3.1,1.3v12V54v18.9c0,0.4-0.1,0.9-0.1,1.4c0,0.2,0,0.4,0,0.6
		c0,0.9,0.1,1.8,0.3,2.8c0.7,4.2,2.7,9.7,7.1,16.6c2.6,4.1,6.1,8.7,10.7,13.9c2.1,2.4,4.4,4.8,7,7.5c1.4,1.4,2.7,2.7,4,4
		c2.4,2.3,4.5,4.5,6.4,6.3c2.3,2.3,4.3,4.2,6.1,5.9c0.8,0.8,1.6,1.5,2.3,2.2c3.4,3.2,5.6,5,7.2,6c-0.1,0-0.6,0-0.6,0
		c1,0.6,1.7,1,2.7,0.9c1,0.1,1.7-0.3,2.7-0.9c0,0-0.5,0-0.6,0c3.4-2.1,9.9-8.5,26-24.3C125.6,95.1,130.2,81.9,130.2,74.2z M130,73.9
		L130,73.9c0,0,0,0.1,0,0.1L130,73.9z M77,129c-1-1-2.4-2.3-4.3-4c-2.9-2.8-6.9-6.7-12.6-12.2c-1.3-1.3-2.8-2.7-4.3-4.2
		c-2.5-2.6-4.8-4.9-6.8-7.2c-4.9-5.6-8.3-10.2-10.6-14.1c-4.1-6.9-4.8-11.2-4.8-13.2c0-0.2,0-0.4,0-0.6l-0.2-2.1l0.2,1.3
		c0,0,0-1.7,0-4.3c0-5.4,0-15.2,0-23.9c0-8,0-15.2,0-17.5c12.9-4.9,26.7-7.6,40.5-7.9c1.7,0,2.6,0,4.6,0c3.3,0.1,6.6,0.3,9.9,0.6
		c0.2,0,0.4,0,0.7,0.1c10.5,1.1,20.8,3.6,30.7,7.3c0,6.1,0,45.8,0,45.8l0.2-1.4l-0.2,2.1c0,0.2,0,0.4,0,0.6
		c0,3.5-2.1,14.2-22.2,34.5C86.1,120.4,80.1,126.2,77,129z"/>
</g>
</svg>
