<?xml version="1.0" encoding="utf-8"?>
<!-- Generator: Adobe Illustrator 18.1.0, SVG Export Plug-In . SVG Version: 6.00 Build 0)  -->
<svg version="1.1" id="Layer_1" xmlns="http://www.w3.org/2000/svg" xmlns:xlink="http://www.w3.org/1999/xlink" x="0px" y="0px"
	 viewBox="0 0 1500 1500" enable-background="new 0 0 1500 1500" xml:space="preserve">
<g>
	<path d="M898.3,1290c-57.8,0-104.6,13.1-104.6,29.2s46.8,29.2,104.6,29.2c57.8,0,104.6-13.1,104.6-29.2S956.1,1290,898.3,1290z"/>
	<polygon fill="#1C180D" points="493.4,423.6 541.3,466.6 602.6,474.9 551.3,458.4 	"/>
	<path fill="#1C180D" d="M1214.5,600.5l-95.1-34.6l-11,8.5l-47.9-50.4c0,0-16.1-1.8-29.5-3.4l-23.6-26.3L997,459.1
		c0,0-18.3-2.8-41.4-6.2c-1.9-4.2-4.4-9.5-6.8-14.8c3.5-2.2,32.9-20.6,32.9-20.6L853,293.9l-3,38.8l-17.5,10.8l-1.8-2.5l0.4,3.4
		l-71.5,44.2l59.6-3.1l-12.5,6.3l18.8,3.2l13.5,23.7l0.3,2.8c-15.1-11.3-31.5-23.6-31.5-23.6s-57.9,18.4-71.4,22.7
		c-11.6-5.8-51.6-25.8-51.6-25.8s-57.1,25.7-66.8,30c-1.7-0.2-2.2-0.3-4.4-0.5c-3.7-11.1-12.4-37.3-12.4-37.3l-13.9-2
		c-43.4-6.4-86.4-16-109.7-24.1c2.4-2.9,13.8-16.5,13.8-16.5l-32.1-24.7c109.3-67.2,240.1-131.2,383.4-168.7l-3.3,1.3
		c12-3.3,23.4-6.2,34-8.9c39-9,78.8-16,119.3-20.5c48.7-2.5,55.2,9.5,55.2,9.5l-12.4,12.4l124.1-39.7c-60-7.1-122.5-4.4-164.7-0.8
		l-0.2-1.6C784.7,124.9,593,213.1,442.4,306.6l-23.7-18.2l-13.6,8.9L309,359.9l20.5,20c0.2,0.2,0.8,0.8,1.6,1.5
		C197.5,478.3,116.3,563,114.6,564.9l14.4,13.6c1.7-1.8,83.2-86.9,217.1-183.5c36.6,32.5,129,108.7,233.1,146.8l2.5,0.9
		c0,0,138.1,16.2,153.8,18.1c8.6,9.9,35,40.3,35,40.3s49.8,59.7,57.8,69.3c0.5,7.1,1.2,15.5,1.9,24.1c-21,24.9-43.3,56.1-43.3,76.7
		c0,14.3,4.6,58.2,7.4,84.1c-1.5,28.3,0.3,50.8,0.3,50.8L731,1027.4l-87.9,24.2c0,0-48.5,63.6-48.5,72.7c0,9.1-72,84.9-72,84.9
		l-38.6,12.1v36.4l-9.9,72.7l17,69.7l16.9-6.1v-42.4l31.2-54.5l155-175.8l109.3-63.6c3.5-3.5,7-7.1,10.4-10.7l17-3.4l87.8-127.7
		c3.9,0.4,7.5,0.7,10.4,0.7c10.5,0,28.8-4.5,62.8-13.2c19.8-5.1,55.2-14,84.3-19.4c-1.3,1.2-12.8,11.9-12.8,11.9l-0.4,9.4
		c-2.8,70.1-8.8,153.9-13.6,167.1l-37.5,78.1l-10.3,21.5l21.9,9.4l124.1,53.7l115.5-38.5c0,0-84.1-44.5-94.1-49.8
		c-4-8-12.6-25.2-17.6-35.1c5.7-17,110.8-329.2,110.8-329.2l-21.3-7.5c-7.4-2.6-180.8-63.2-252.4-70.1c5-23.8,12.1-57.6,16.6-79.2
		c37,17,82.4,22.3,82.4,22.3l138.7,2.9l29.2,43.3l23.7,5.8v-20.2l25.2-31.7L1214.5,600.5z M845.1,362l0.5-0.3l2.2-1.1l23.8-11.2
		l4.1-1.9l2.4-1.1l21.8,24.4l37,41.3l-8.6,3.9h-16.6c0,0-16.7,5.5-20.9,6.1c-0.2,0-0.6,0.2-0.7,0.2c-0.2,0-0.7-0.2-1.2-0.6
		c-0.3-0.2-0.7-0.5-1.1-0.8c-3.9-3.1-11.9-10.9-20.4-19.3c-8-7.9-16.1-16.2-21.3-21.5c-3.2-3.3-5.3-5.4-5.3-5.4L845.1,362z
		 M893.5,912.1L817.3,1023l-16,3.2l40-48l29.3-70.8l5-12.2c1.3,0.3,2.6,0.5,3.9,0.8c3.7,0.8,7.3,1.5,11,2.2c3.8,0.7,7.5,1.4,11,2.1
		L893.5,912.1z M1054.1,590.1l-24.4-19.8l-17.8-14.4l-3.1-2.5L996,533.2l-2-3.1l-10.7-16.9l-2.7,0.9l-1.5,0.5
		c0.4,1.4,0.8,2.8,1.2,4.2c1.7,5.7,3.5,11.8,5.2,17.8c3.8,12.8,7.5,25.3,10,34.1c0.2,0.7,0.4,1.4,0.6,2c0.8,2.8,1.5,5.2,2,6.9
		c-6.1,1.8-18.1,5.2-18.1,5.2l-1.2,5.9l-2-0.4l-10.7-2.1l-87.3-17.5l-60.4-48.3l-2.3-1.8l-51.3-30.5l-30.1-0.7l-44.4-1L644,473.2
		l43,24.8l50.9,2.6l13.7,0.7l11.2,3.3c2.7,9.8,6.1,18.6,10,26.8c0.8,1.6,1.5,3.4,2.2,4.9c13.6,27,32.4,45.6,49.6,58.2
		c23.9,17.4,44.7,23,44.7,23L888,696v-84.7l18.9-15.7l56.6,4.7l12.8,1.1l0.3,0l-0.3,1.6l-4.4,21l-15.2,72.6l-1.7,8.1
		c-4.3,4.7-10.6,10.9-16.8,16.8c-9.9,9.5-19.5,18.2-19.5,18.2l-34.8,1.7l29.8,6.6l20.2-4.2l27-5.7V734h24.4
		c57.4,12,198.1,54.1,235.3,66.9c-3.4,10.2-38.3,114.6-66.9,199.6c-1.2,3.6-2.4,7.5-3.6,11c-19,56.4-34.3,102.2-34.3,102.2
		l28.4,56.8c0,0,20.1,10.7,35.6,18.9c-14.7,4.9-27.2,9.1-30.9,10.3c-6-2.6-87.6-37.9-103.1-44.6c4.7-9.8,18.5-38.5,26.7-55.6
		c0.8-1.6,1.5-3.1,2.2-4.5l-0.5,5.5l23.7-42.4l37.5-66.9l-21.5,24.8c0,0-6.5-1.3-11.3-3.9c-2.9-1.5-5.3-3.6-5.3-6.1
		c0-3.7-2.1-30.2-4-52.5c0.7-12.4,1.2-23.5,1.6-32.3c0.2-4.2,0.3-7.8,0.5-10.8c3.2-2.9,21.4-19.9,35.2-32.9c0.6-0.6,1.3-1.2,1.9-1.8
		c8.2-7.6,14.5-13.5,14.5-13.5l-3.4-4.9l-0.2-1.6h0.3c0,0-0.3,1.3-0.7,1l-3.2-2.5c-3.2-3.2-7.8-5-13.7-6.3
		c-10.3-5.5-22.8-11-30.4-11c-2.7,0-8.8-0.1-17.1-0.3c-37.8-1.2-120.3-4.5-120.3-4.5L944.1,844l-12.2,9.9c0,0,4-1.9,9.5-4.1
		c8.1-3.3,19.3-7.5,25.2-7.5c6.8,0,37,1.6,55.3,6.3c8.3,2.1,14.2,5,14.2,8.6l5.7,0.1c-1.6,0.3-3.2,0.7-4.8,1.1
		c-7.2,1.6-14.8,3.4-22.6,5.3c-5.2,1.3-10.4,2.6-15.8,3.9c-4.9,1.2-10,2.5-15.1,3.8c-23.5,6-47.8,12.2-54.7,12.2
		c-1.2,0-2.6-0.1-4.2-0.2c-5.9-0.4-14-1.7-23.2-3.4c-2-0.3-4-0.7-6.1-1.1l-32.9-20.3l-18.5-11.4l-5.9-11.2l-16.1-30.3
		c-0.6-6.5-1.2-12.7-1.6-18.2c-0.5-7.1-0.9-12.9-0.9-16.4c0-3.1,2.6-8.7,6.7-15.6c7.9-13.4,21.6-31.7,34.8-46.8l2.8-3.1l-1.5-18.8
		l-2.2-29.3l-6.7-8.1l-17.7-21.2l-40.4-48.5L752,529.7c0,0-1.9-0.2-5.2-0.6c-27.4-3.2-155-18.2-157.3-18.5
		c-16.3-6-32.3-13.1-47.9-20.8c-7-3.5-13.9-7-20.7-10.7c-64.4-35-118.9-78.9-147.2-103.5c-4.7-4.1-8.9-7.8-12.1-10.7
		c14-9.1,47.2-30.8,55.6-36.3c3.1,2.4,7.6,5.9,12.4,9.5c4.9,3.8,10.2,7.9,14.6,11.3c-4.4,5.3-13.5,16.2-13.5,16.2l3.4,6
		c12.9,22.6,99.6,38.3,142.3,44.7c1.8,5.4,6.6,19.8,9.7,29.2c1.7,5,2.9,8.6,2.9,8.6l19.8,2.5l14.3,1.8c0,0,53.5-24.1,61-27.4
		c7.1,3.5,49.6,24.8,49.6,24.8s59.5-18.9,68-21.6c5.3,4,30.9,23.2,42.4,31.8c2.3,1.7,4.1,3,5,3.7c0.5,0.3,0.8,0.6,0.8,0.6
		s3.5,0.5,9.4,1.4c1.3,0.2,2.7,0.4,4.3,0.6l4.3-0.3l-2.8-9.3l-1.9-1.5V461l0.9-8.5l-0.2-10.3l0.1-3l-1.3-14.4c0,0,1.2,1.6,3,4
		c2.1,2.9,5.1,7,8.7,11.9c3.3,4.5,7,9.6,10.8,14.7c0.4,0.6,0.9,1.2,1.3,1.8c1.8,2.4,3.6,4.8,5.3,7.1c0.6,0.8,1.2,1.6,1.8,2.4
		c3.2,4.2,6.1,8.1,8.7,11.4c4.2,0.6,8.5,1.3,12.7,1.9c7.7,1.1,15.2,2.3,22.2,3.3c14.4,2.2,26.4,4,31.9,4.8c0.5,0.1,1,0.1,1.4,0.2
		l-0.3-0.9l1.2,1.6h0l0-0.3l9.8,10.8l5.6,6.2l3.5,3.9l0.9,1l-0.7,0.2l0.3,0.8l7.9,20.6l0.6,1.4l6.5,7l1.7,0.2l14,1.6l28,3.2
		l39.7,41.7L1054.1,590.1z M1235.9,628.2l-114-18.1l-1.4-1.9l-17.1-22.2l11-5.3l4.5-2.2l94.9,27.6l79.4,43.7l-18.1,14.6
		L1235.9,628.2z"/>
</g>
</svg>
