<?xml version="1.0" encoding="utf-8"?>
<!-- Generator: Adobe Illustrator 18.1.0, SVG Export Plug-In . SVG Version: 6.00 Build 0)  -->
<svg version="1.0" id="Layer_1" xmlns="http://www.w3.org/2000/svg" xmlns:xlink="http://www.w3.org/1999/xlink" x="0px" y="0px"
	 viewBox="0 0 150 150" enable-background="new 0 0 150 150" xml:space="preserve">
<g>
	<path fill="#576E7F" d="M72.1,31.2C72.1,31.2,72,31.2,72.1,31.2L72,76.1l37.3-21.5C102.6,41.4,89.8,31.2,72.1,31.2z"/>
	<path fill="#FF893D" d="M72,121c0.1,0,0.2,0,0.3,0c17.7,0,30.4-10.2,37-23.3L72,76.1V121z"/>
	<path fill="#51C8E7" d="M34.5,54.5c-3.3,6.5-5,13.9-5,21.4v0.2c0,7.7,1.8,15.1,5.1,21.6L72,76.1L34.5,54.5z"/>
	<path fill="#576E7F" d="M131.7,41.7l-22.4,12.9c3.4,6.8,5.2,14.3,5.2,21.7c0,7.3-1.8,14.7-5.2,21.4l22.4,12.9
		c5.9-10.1,9.3-21.9,9.3-34.5C140.9,63.6,137.6,51.8,131.7,41.7z"/>
	<path fill="#FF893D" d="M34.6,97.7l-22.4,12.9c11.4,19.6,32.8,33.6,59.5,33.6c0.1,0,0.2,0,0.3,0V121
		C54.8,120.9,41.4,111.3,34.6,97.7z"/>
	<path fill="#51C8E7" d="M72,31.2V8c0,0-0.1,0-0.1,0C47.1,8,24.4,20.5,12.2,41.6l22.3,12.9C41.3,41.1,54.4,31.3,72,31.2z"/>
</g>
</svg>
