<?xml version="1.0" encoding="utf-8"?>
<!-- Generator: Adobe Illustrator 18.1.0, SVG Export Plug-In . SVG Version: 6.00 Build 0)  -->
<svg version="1.0" id="Layer_1" xmlns="http://www.w3.org/2000/svg" xmlns:xlink="http://www.w3.org/1999/xlink" x="0px" y="0px"
	 viewBox="0 0 150 150" enable-background="new 0 0 150 150" xml:space="preserve">
<g>
	<g>
		<polygon fill="#CDCDCD" points="30.9,97.5 30.8,102.9 51.2,102.9 51.2,123.3 56.6,123.3 56.6,97.5 		"/>
		<polygon fill="#CDCDCD" points="85.7,31 85.7,38.8 109.9,38.8 76.9,71.8 82.4,77.2 115.4,44.2 115.4,68.4 121.7,68.4 123.1,68.6 
			123.2,31 		"/>
		<polygon fill="#CDCDCD" points="64.2,84.5 43.9,84.5 43.9,89.8 64.3,89.9 64.3,110.3 69.6,110.3 69.7,90 76.9,82.7 71.5,77.2 		
			"/>
		<polygon fill="#00A6B5" points="97.2,97.5 97.2,123.3 102.6,123.3 102.6,102.9 123,102.9 122.9,97.5 		"/>
		<polygon fill="#00A6B5" points="43.9,38.8 68.1,38.8 68.1,31 30.7,31 30.7,68.6 32.1,68.4 38.5,68.4 38.4,44.2 71.5,77.2 
			76.9,82.7 84.2,90 84.2,110.3 89.5,110.3 89.6,89.9 109.9,89.8 109.9,84.5 89.6,84.5 82.4,77.2 76.9,71.8 		"/>
	</g>
	<g>
		<path fill="#00A6B5" d="M9,136.8V15.4h132.9v116.9v4.6H9L9,136.8z M18.1,127.7h114.6V24.6H18.1V127.7L18.1,127.7z"/>
	</g>
</g>
</svg>
