<?xml version="1.0" encoding="utf-8"?>
<!-- Generator: Adobe Illustrator 18.1.0, SVG Export Plug-In . SVG Version: 6.00 Build 0)  -->
<svg version="1.0" id="Layer_1" xmlns="http://www.w3.org/2000/svg" xmlns:xlink="http://www.w3.org/1999/xlink" x="0px" y="0px"
	 viewBox="0 0 150 150" enable-background="new 0 0 150 150" xml:space="preserve">
<g>
	<g>
		<polygon fill="#0099C1" points="74.9,56.6 116.1,115.4 142,115.4 142.8,114.2 74.9,17.4 6.9,114.2 7.8,115.4 33.6,115.4 		"/>
	</g>
	<g>
		<polygon fill="#00657F" points="74.9,84.7 96.4,115.4 110,115.4 110.4,114.8 74.9,64.1 39.3,114.8 39.8,115.4 53.3,115.4 		"/>
	</g>
	<polygon fill="#0099C1" points="74.4,101.5 78.1,110.8 87.6,107.9 82.6,116.5 90.9,122.1 81,123.7 81.7,133.6 74.4,126.8 
		67.1,133.6 67.8,123.7 58,122.1 66.2,116.5 61.2,107.9 70.8,110.8 	"/>
</g>
</svg>
