<?xml version="1.0" encoding="utf-8"?>
<!-- Generator: Adobe Illustrator 18.1.0, SVG Export Plug-In . SVG Version: 6.00 Build 0)  -->
<svg version="1.1" id="Layer_1" xmlns="http://www.w3.org/2000/svg" xmlns:xlink="http://www.w3.org/1999/xlink" x="0px" y="0px"
	 viewBox="0 0 150 150" enable-background="new 0 0 150 150" xml:space="preserve">
<g>
	<path fill="none" d="M40.4,60.9c-0.4,1.4-0.6,3.1-0.8,4.3l0.3,4.7c0.4-2.7,1.4-3.9,2.7-4.5c1.6-0.6,5,0.3,5.8,3.2
		c0.3-0.3,0.5-0.6,0.8-0.9L40.4,60.9z"/>
	<path fill="none" d="M41.7,58.3c-0.2,0.1-0.3,0.3-0.4,0.5l2.1,1.3C43.2,58.8,42.9,57.4,41.7,58.3z"/>
	<path fill="none" d="M71.8,56.8l0-0.3c-0.5-3-1.3-6.4-2.7-7.3c-2.5-1.8-2.2,3.2-2.9,4.8c-0.7,1.4-1.6,2.8-3.1,3.4l0.7,1.1
		C66.4,57.6,69,57,71.8,56.8z"/>
	<path fill="none" d="M45.3,70.5c-0.7-1.4-0.4-5.9-2.7-4.3c-1.3,0.9-2.1,4.6-2.5,7.5l0.1,1.5l3.3,0.5c0.1,0,0.1-0.1,0.2-0.1
		c0.7-1.4,1.5-2.6,2.4-3.9C45.7,71.4,45.5,71,45.3,70.5z"/>
	<path fill="none" d="M39.4,62.7c0-0.9,0.1-1.6,0.3-2.2l-0.4-0.3L39.4,62.7z"/>
	<path fill="none" d="M40.4,81c0.2-1,0.4-1.9,0.6-2.6l-0.8-0.2L40.4,81z"/>
	<path fill="none" d="M34.2,74c-0.8-0.6-1.3-0.5-1.7-0.1l2,0.3C34.4,74.2,34.3,74.1,34.2,74z"/>
	<path fill="none" d="M37.6,78.4l0-0.8l-0.2,0C37.5,77.8,37.5,78.1,37.6,78.4z"/>
	<path fill="none" d="M35.8,52.5c-1.2-0.9-1.6,0.3-1.9,1.6l3.7,2.3C37.1,54.6,36.6,53,35.8,52.5z"/>
	<path fill="none" d="M74.5,35.5c-0.6,0.4-1.1,1.7-1.4,3.1l0.6,10.5c0.1-1.5,0.3-2.7,0.6-3.5L75,35.3C74.8,35.3,74.7,35.4,74.5,35.5
		z"/>
	<path fill="none" d="M112.1,55.7c-0.4-0.9-0.3-3.8-1.7-2.7c-0.6,0.4-1,1.6-1.3,2.9l0.2,4.5l4.6-2.8C113,57.4,112.5,56.5,112.1,55.7
		z"/>
	<path fill="none" d="M109.6,65.7c0.1-1.2,0.2-2.1,0.4-2.8l-0.6,0.4L109.6,65.7z"/>
	<path fill="none" d="M107.9,68.1l0.1-3.7l-1.6,1.1C107.1,66.1,107.6,66.9,107.9,68.1z"/>
	<path fill="none" d="M115.4,73.6c-0.7-1.4-0.4-5.9-2.7-4.3c-1.3,0.9-2,4.3-2.5,7.1l6.3-0.9C116.1,74.9,115.7,74.3,115.4,73.6z"/>
	<path fill="none" d="M107.8,76.7l0.1-4.2c-0.4-2.5-1.1-5.3-2.1-6.5l-2.6,1.9c-0.2,0.9-0.3,1.7-0.5,2.2c0,0,0,0,0,0
		c1.6,2,3,4.3,4.1,6.7L107.8,76.7z"/>
	<path fill="none" d="M73.9,51.9l0.1,1l0.1-2.5C74,51,73.9,51.5,73.9,51.9z"/>
	<path fill="none" d="M74.5,29.2c-0.8,0.6-1.3,2.7-1.6,4.5l0.1,2.7c0.3-0.8,0.9-1.3,1.5-1.6c0.1-0.1,0.3-0.1,0.5-0.1l0.3-5.8
		C75.1,29,74.9,29,74.5,29.2z"/>
	<path fill="none" d="M79.8,57c-0.5-1.8-0.5-5.3-2.5-4.1l0.2,3.9C78.3,56.8,79,56.9,79.8,57z"/>
	<path fill="#FFECC7" d="M77.3,52.9c-0.1,0-0.1,0.1-0.2,0.1c-0.8,0.5-1.4,2-1.9,3.7c0.8,0,1.5,0.1,2.3,0.1L77.3,52.9z"/>
	<path fill="#FFECC7" d="M76.1,44.5c-1.1,0.7-1.7,3.6-2.1,6l-0.1,2.5l0.2,3.7c0,0,0,0,0,0c0.5-2.7,1.5-4,2.9-4.5c0,0,0.1,0,0.1,0
		l-0.5-7.9C76.6,44.2,76.4,44.3,76.1,44.5z"/>
	<path fill="#FFECC7" d="M75,35.3l-0.6,10.4c0.4-1,1-1.5,1.8-1.8c0.2-0.1,0.4-0.1,0.6-0.1l-0.3-5.1c0-0.1-0.1-0.1-0.1-0.2
		C75.9,37.5,76,35,75,35.3z"/>
	<path fill="#FFECC7" d="M75.6,24.1l-0.3,4.5c0.2,0,0.3,0,0.5,0L75.6,24.1z"/>
	<path fill="#FFECC7" d="M75.3,29.1L75,34.8c0.4,0,0.8,0,1.3,0.1L76,30.5C75.9,29.8,75.7,29.2,75.3,29.1z"/>
	<path fill="#FFECC7" d="M106.8,30.2l-18.8,29c1.2,0.5,2.3,1,3.4,1.6L106.8,30.2z"/>
	<path fill="#FFECC7" d="M111.9,61.4c-0.2,0.1-0.3,0.3-0.5,0.6l1.1-0.8C112.3,61.1,112.1,61.2,111.9,61.4z"/>
	<path fill="#FFECC7" d="M99.9,67.1c1.3-2.1,4.1-2.7,5.5-2.2c0.4,0.1,0.7,0.4,1,0.6l1.6-1.1l0-3.2l-8.8,5.3
		C99.5,66.7,99.7,66.9,99.9,67.1z"/>
	<path fill="#FFECC7" d="M105.4,65.7c-1.5-1.1-1.9,0.5-2.2,2.2l2.6-1.9C105.6,65.9,105.5,65.8,105.4,65.7z"/>
	<path fill="#FFECC7" d="M115.4,58c0,0-0.1,0-1.2-0.2c-0.1,0-0.2-0.1-0.3-0.1l-4.6,2.8l0.2,2.9l0.6-0.4c0.4-1.2,1-1.8,1.8-2.2
		c0.3-0.1,0.8-0.2,1.3-0.1L131.7,47l-16.9,10.2C115.1,57.8,115.4,58,115.4,58z"/>
	<path fill="#FFECC7" d="M107.8,79.3l0-2.6l-1.1,0.2C107.1,77.7,107.5,78.5,107.8,79.3z"/>
	<path fill="#FFECC7" d="M120.5,77l24.8-5.7l-26,3.8C119.7,76.3,120.3,76.8,120.5,77z"/>
	<path fill="#FFECC7" d="M116.6,75.5l-6.3,0.9c0,0.1,0,0.3-0.1,0.4l0.1,2.6l9.8-2.3c-0.3,0-0.7-0.1-1.4-0.2
		C117.8,76.7,117.1,76.1,116.6,75.5z"/>
	<polygon fill="#FFECC7" points="145.1,98.2 110.9,89.9 111.1,92.9 	"/>
	<polygon fill="#FFECC7" points="5.3,96.4 37.4,92.1 37.4,89.4 	"/>
	<path fill="#FFECC7" d="M34.5,74.3l-2-0.3c-0.4,0.4-0.6,1.2-0.8,2.1l4.3,1.1C35.6,75.9,35.1,74.9,34.5,74.3z"/>
	<path fill="#FFECC7" d="M37.6,77.5l0-2.7l-1.4-0.2c0.5,0.7,0.9,1.7,1.2,2.9L37.6,77.5z"/>
	<path fill="#FFECC7" d="M40.3,78.2l0.8,0.2c0.5-1.4,1.3-2.2,2.3-2.7l-3.3-0.5L40.3,78.2z"/>
	<path fill="#FFECC7" d="M30,73.5l-24-4l22.1,5.6C28.6,74.4,29.3,73.9,30,73.5z"/>
	<path fill="#FFECC7" d="M47.8,64.3c0,0-0.1,0-1.4-0.2c-1.3-0.3-2.1-1.4-2.6-2.5c-0.2-0.3-0.3-0.9-0.4-1.5l-2.1-1.3
		c-0.4,0.5-0.7,1.3-0.9,2.2l8.8,6.8c0.8-0.8,1.6-1.6,2.5-2.4l-5.2-3.3C47,63.8,47.8,64.3,47.8,64.3z"/>
	<path fill="#FFECC7" d="M39.7,60.4c0.2-0.9,0.5-1.6,1-2.1l-1.5-1l0.1,2.7L39.7,60.4z"/>
	<path fill="#FFECC7" d="M37.6,56.4l-3.7-2.3c-0.1,0.6-0.2,1.1-0.3,1.6l4.3,3.3l0-1C37.8,57.4,37.7,56.9,37.6,56.4z"/>
	<path fill="#FFECC7" d="M20.5,45.6l10.4,8c0.2-0.4,0.5-0.7,0.8-0.9L20.5,45.6z"/>
	<path fill="#FFECC7" d="M63.1,57.3c-0.2,0.1-0.4,0.1-0.6,0.2c-1.9,0.4-2.1,0.3-2.1,0.3s0.9-0.5,1.5-2.3L46,29.4l14.3,30.4
		c1.1-0.5,2.3-1,3.4-1.3L63.1,57.3z"/>
	<path fill="#FFBF3D" d="M81.4,68.2c-0.5-2.4-0.7-5.8-3.1-4.1c-0.8,0.5-1.4,1.8-1.9,3.3C78.2,67.5,79.8,67.8,81.4,68.2z"/>
	<path fill="#FFBF3D" d="M50.6,85.6c-1.8-0.6-2.8-2.2-3.6-3.8c-0.8-1.7-0.5-7.2-3.2-5.2c-1.6,1.1-2.6,5.6-3.1,9.1l0.5,8.4
		c2.6-1.3,5.5-2.6,8.6-3.7C49.9,88.6,50.2,87.1,50.6,85.6z"/>
	<path fill="#FFBF3D" d="M85.6,61.4c0,0-0.2,0.1-2-0.3c-1.8-0.4-2.9-2-3.6-3.5c-0.1-0.2-0.1-0.4-0.2-0.6c-0.7-0.1-1.5-0.2-2.2-0.2
		c-0.8-0.1-1.5-0.1-2.3-0.1c-0.4,1.4-0.7,3-0.9,4.4l0.3,6.3c0.1,0,0.1,0,0.2,0c0.1,0,0.2,0,0.2,0c0.6-2.5,1.8-3.7,3.3-4.3
		c2.3-0.9,7.4,0.6,7.9,5.3c0.1,0.7,0.2,1.3,0.3,1.8c4.5,2.4,8.2,6.1,10.6,10.6c0.7-4.1,5.2-5.4,7.3-4.6c1.7,0.6,2.8,2.1,3.3,5.3
		l0-2.1c-0.3-0.8-0.7-1.6-1-2.4c-1.1-2.4-2.5-4.6-4.1-6.7c-0.7,1.4-1.7,2.9-3.4,3.3c-1.8,0.4-1.9,0.3-1.9,0.3s1.6-0.9,1.9-4.7
		c0.1-0.8,0.3-1.5,0.7-2c-0.2-0.2-0.4-0.4-0.7-0.6c-2.4-2.3-5-4.2-8-5.8c-1.1-0.6-2.2-1.1-3.4-1.6c-1.4-0.5-2.8-1-4.2-1.4
		C84.3,60.7,85.6,61.4,85.6,61.4z"/>
	<path fill="#FFBF3D" d="M74.1,56.9c0-0.1,0-0.2,0-0.3c0,0,0,0,0,0L74.1,56.9z"/>
	<path fill="#FFBF3D" d="M100,91.1c2.5,0.9,5,2,7.5,3.2l0.1-7.1c-0.5-3.6-1.4-8.9-3.2-10.1c-2.8-1.9-2.4,3.5-3.2,5.2
		c-0.5,1.1-1.2,2.2-2.1,3C99.6,87.2,99.9,89.1,100,91.1z"/>
	<path fill="#FFBF3D" d="M49.2,67.8c-0.3,0.3-0.5,0.6-0.8,0.9c0.1,0.3,0.2,0.6,0.2,0.9c0.3,3.6,1.9,4.5,1.9,4.5s-0.2,0.1-1.9-0.3
		c-1.2-0.2-2-1.1-2.7-2c-0.9,1.2-1.6,2.5-2.4,3.9c0.1,0,0.1-0.1,0.2-0.1c2.1-0.8,6.9,0.6,7.3,5c0.1,0.9,0.3,1.7,0.4,2.4
		c3.3-8,10.5-13.8,19.3-15.2c-0.6-2.8-1.5-5.4-2.7-6.3c-3-2.1-2.6,3.8-3.5,5.6c-0.9,1.9-2.2,3.8-4.4,4.2c-2.2,0.4-2.4,0.4-2.4,0.4
		s2-1.2,2.4-5.9c0.4-4.7,5.6-6.2,7.9-5.3c1.8,0.7,3,2.3,3.6,5.7l0.1-9.2c-2.8,0.2-5.5,0.8-8.1,1.6c-1.2,0.4-2.3,0.8-3.4,1.3
		c-3.2,1.4-6.1,3.3-8.6,5.6C50.8,66.1,50,66.9,49.2,67.8z"/>
	<path fill="#FFCF71" d="M86.5,70.2c0.7,3.2,2.2,4.1,2.2,4.1s-0.2,0.1-2.4-0.4c-2.2-0.4-3.5-2.4-4.4-4.2c-0.2-0.4-0.3-0.9-0.4-1.5
		c-1.6-0.4-3.3-0.7-5-0.8c-0.6,1.9-1.1,4.3-1.4,6.4l0,0.4c8.8,0.3,16.1,6.5,18.1,14.7c2.3,0.6,4.5,1.4,6.9,2.3c-0.1-2-0.4-3.9-1-5.8
		c-0.5,0.5-1.2,0.8-2,1c-2.1,0.4-2.3,0.3-2.3,0.3s1.9-1.1,2.3-5.5c0-0.1,0-0.3,0.1-0.4C94.8,76.2,91,72.5,86.5,70.2z"/>
	<path fill="#FFCF71" d="M74.7,67.3l0.1,1.5c0.1-0.6,0.2-1.1,0.3-1.5c-0.1,0-0.2,0-0.2,0C74.8,67.3,74.8,67.3,74.7,67.3z"/>
	<path fill="#FFCF71" d="M51.5,82.9c0.7,2.4,1.8,3.2,1.8,3.2s-0.2,0.1-2.3-0.3c-0.2,0-0.3-0.1-0.5-0.1c-0.4,1.5-0.7,3.1-0.9,4.7
		c1.9-0.7,4-1.4,6.1-1.9c2-7.3,8.1-12.8,15.7-14l0-2.1c-0.2-1.4-0.4-3-0.8-4.6C62.1,69.1,54.8,75,51.5,82.9z"/>
	<path fill="#FFF6E4" d="M75.1,74.2l0.6,12c5.5,0.2,11.3,1,17.4,2.7C91.1,80.6,83.9,74.5,75.1,74.2z"/>
	<path fill="#FFF6E4" d="M55.9,88.3c4.7-1.2,9.9-2.1,15.5-2.2l0.2-11.7C64,75.5,57.8,81.1,55.9,88.3z"/>
	<path fill="#80B652" d="M96.4,118c-20,12.3-42.1-6.2-42.1-6.2c1.4,0.9,2.9,2.2,4.5,2.2c0,0,0,0,0,0c-4.6-2-7.5-4.1-7.5-4.1
		s4.3,3.2,15.5,5.2c9.6,1.7,16.1-6.3,17.8-8.6c-3.9,3-12.1,6.6-25.8,0.4c-17.6-7.8-32.8-0.9-36.8,1.3c0,0-0.1,0-0.1,0
		c4-0.3,14.4,3.5,33.7,16.1c19.3,12.7,39.1,2.2,51.5-7.5c10.7-8.5,16.9-10.7,18.3-11.7c0,0,0,0,0,0C120.8,104,113.4,107.6,96.4,118z
		"/>
	<path fill="#80B652" d="M72.6,117.8c0.2,0,0.4,0,0.6,0C73,117.8,72.8,117.8,72.6,117.8z"/>
	<path fill="#80B652" d="M77.5,117.9c0.1,0,0.2,0,0.3,0C77.6,117.9,77.6,117.9,77.5,117.9z"/>
	<path fill="#80B652" d="M75.5,117.9c-0.2,0-0.4,0-0.7,0C75,117.9,75.3,117.9,75.5,117.9z"/>
	<path fill="#80B652" d="M70.5,117.5c0,0,0.1,0,0.1,0C70.6,117.5,70.6,117.5,70.5,117.5z"/>
	<path fill="#80B652" d="M68,117.1c0.1,0,0.3,0.1,0.4,0.1C68.3,117.1,68.2,117.1,68,117.1z"/>
	<path fill="#80B652" d="M66,116.6c0.2,0,0.3,0.1,0.5,0.1C66.3,116.7,66.1,116.6,66,116.6z"/>
	<path fill="#80B652" d="M64.1,116.1c0.1,0,0.1,0,0.2,0.1C64.2,116.1,64.2,116.1,64.1,116.1z"/>
	<path fill="#80B652" d="M87.9,115.8c0.2-0.1,0.3-0.1,0.5-0.2C88.2,115.7,88,115.8,87.9,115.8z"/>
	<path fill="#80B652" d="M92.8,113.6c0.2-0.1,0.5-0.3,0.7-0.4C93.3,113.3,93,113.4,92.8,113.6z"/>
	<path fill="#80B652" d="M80,117.7c0.2,0,0.4-0.1,0.6-0.1C80.4,117.7,80.2,117.7,80,117.7z"/>
	<path fill="#80B652" d="M60.4,114.7c0.1,0,0.1,0,0.2,0.1C60.5,114.8,60.4,114.7,60.4,114.7z"/>
	<path fill="#80B652" d="M90.3,114.8c0.3-0.1,0.5-0.2,0.8-0.4C90.8,114.6,90.5,114.7,90.3,114.8z"/>
	<path fill="#80B652" d="M82.4,117.4c0.3,0,0.5-0.1,0.8-0.1C82.9,117.3,82.6,117.3,82.4,117.4z"/>
	<path fill="#80B652" d="M84.9,116.8c0.2-0.1,0.4-0.1,0.6-0.2C85.3,116.7,85.1,116.7,84.9,116.8z"/>
	<path fill="#80B652" d="M84.8,106.2c0,0-0.1,0.1-0.1,0.1C84.8,106.2,84.8,106.2,84.8,106.2z"/>
	<path fill="#80B652" d="M85.1,105.8c0,0,0,0.1-0.1,0.1C85.1,105.8,85.1,105.8,85.1,105.8z"/>
	<path fill="#FFB602" d="M72.3,24.5l0.5-0.2c0.3-0.5,0.6-1,0.7-1.4c1-2.9-1.2-5.4-1.2-5.4S71.1,19,71,21.1c0,0.3,0,0.5,0,0.8
		c0.1,0.1,0.3,0.2,0.4,0.3C72.2,22.7,72.4,23.7,72.3,24.5z"/>
	<path fill="#FFB602" d="M38.2,39.7l0.5-0.2c0.3-0.4,0.5-0.9,0.7-1.3c0.9-2.7-1.1-5-1.1-5s-1.2,1.5-1.3,3.4c0,0.3,0,0.5,0,0.7
		c0.1,0.1,0.2,0.2,0.4,0.3C38.1,38,38.2,39,38.2,39.7z"/>
	<path fill="#0E955E" d="M111.1,92.9l-0.2-3l-0.1-1.2c0.5-3.5,1.5-7.9,3.1-9.1c2.8-1.9,2.4,3.5,3.2,5.2c0.8,1.7,2,3.5,4.1,3.9
		c2.1,0.4,2.3,0.3,2.3,0.3s-1.9-1.1-2.3-5.5c-0.4-4.4-5.2-5.8-7.3-5c-1.7,0.7-2.8,2.1-3.3,5.4l-0.3-4.7l-0.1-2.6
		c0-0.1,0-0.3,0.1-0.4c0.4-2.8,1.2-6.2,2.5-7.1c2.3-1.6,2,2.9,2.7,4.3c0.3,0.6,0.7,1.3,1.1,1.8c0.6,0.7,1.3,1.2,2.2,1.4
		c0.7,0.1,1.1,0.2,1.4,0.2c0.4,0.1,0.5,0,0.5,0s-0.1,0-0.1-0.1c-0.2-0.2-0.8-0.8-1.2-2c-0.2-0.6-0.4-1.4-0.5-2.5
		c-0.3-3.6-4.3-4.8-6-4.1c-1.4,0.5-2.3,1.8-2.7,4.5l-0.3-4.7c0.2-1.9,0.7-5,1.6-6.4c0.2-0.2,0.3-0.4,0.5-0.6
		c0.2-0.2,0.4-0.2,0.6-0.3c1.1-0.1,1,2.6,1.4,3.6c0.5,1.1,1.3,2.2,2.6,2.5c1.3,0.3,1.4,0.2,1.4,0.2s-1.2-0.7-1.4-3.5
		c-0.2-2.1-1.9-3.1-3.4-3.3c-0.5-0.1-0.9,0-1.3,0.1c-0.8,0.3-1.4,0.9-1.8,2.2c-0.2,0.7-0.4,1.6-0.4,2.8l-0.1-2.4l-0.2-2.9l-0.2-4.5
		c0.3-1.3,0.7-2.5,1.3-2.9c1.4-1,1.3,1.8,1.7,2.7c0.4,0.8,0.9,1.6,1.8,1.9c0.1,0,0.2,0.1,0.3,0.1c1.1,0.2,1.2,0.2,1.2,0.2
		s-0.3-0.2-0.6-0.8c-0.2-0.4-0.5-1.1-0.6-2.1c-0.2-2.3-2.7-3-3.8-2.6c-0.6,0.2-1.1,0.7-1.4,1.5l-0.1-2.5c0.3-1.7,0.8-3.7,1.5-4.2
		c1.4-1,1.3,1.8,1.7,2.7c0.4,0.9,1,1.8,2.1,2.1c1.1,0.2,1.2,0.2,1.2,0.2s-1-0.6-1.2-2.9c-0.2-2.3-2.7-3-3.8-2.6
		c-0.8,0.3-1.4,1-1.7,2.3l-0.2-3.6l0-1.5c0.2-0.4,0.4-0.8,0.8-1.1c1.6-1.1,1.7-2.8,1.7-2.8s-0.1,0.5-1.4,1.2
		c-0.1,0.1-0.2,0.1-0.3,0.2c-0.1,0.4-0.4,0.9-0.7,1.3l-0.5,0.2c0-0.7-0.1-1.7-0.8-2.2c-0.1-0.1-0.3-0.2-0.4-0.3
		c-0.9-0.7-1.1-1.2-1.1-1.2s-0.1,1.8,1,2.9c0.6,0.6,1,1.4,1.1,2.2c0,0.1,0,0.1,0,0.2l0.1,0.8l0,2.9c-0.3-1.3-0.9-1.9-1.6-2.2
		c-1.1-0.4-3.7,0.3-3.9,2.6c-0.2,2.3-1.2,2.9-1.2,2.9s0.1,0,1.2-0.2c1.1-0.2,1.7-1.2,2.2-2.1c0.4-0.9,0.3-3.8,1.7-2.8
		c0.8,0.6,1.3,2.8,1.6,4.6l-0.1,6.4c-0.5-1.4-1.2-2.1-2.2-2.5c-1.6-0.6-5.2,0.4-5.5,3.7c-0.3,3.3-1.7,4.2-1.7,4.2s0.2,0.1,1.7-0.3
		c1.6-0.3,2.4-1.7,3.1-3c0.6-1.3,0.4-5.4,2.4-3.9c1,0.7,1.7,3.2,2.1,5.5l0,0.2l0,3.2l-0.1,3.7c-0.3-1.2-0.9-2-1.5-2.6
		c-0.3-0.3-0.7-0.5-1-0.6c-1.4-0.6-4.2,0.1-5.5,2.2c-0.4,0.6-0.6,1.2-0.7,2c-0.4,3.7-1.9,4.7-1.9,4.7s0.2,0.1,1.9-0.3
		c1.7-0.3,2.7-1.8,3.4-3.3c0,0,0,0,0,0c0.2-0.5,0.4-1.4,0.5-2.2c0.3-1.7,0.7-3.3,2.2-2.2c0.1,0.1,0.2,0.2,0.3,0.3
		c1,1.1,1.7,4,2.1,6.5l-0.1,4.2l0,2.6l0,2.1c-0.5-3.2-1.7-4.6-3.3-5.3c-2.1-0.8-6.6,0.5-7.3,4.6c0,0.1,0,0.3-0.1,0.4
		c-0.4,4.4-2.3,5.5-2.3,5.5s0.2,0.1,2.3-0.3c0.8-0.2,1.4-0.5,2-1c0.9-0.8,1.6-1.9,2.1-3c0.8-1.7,0.5-7.2,3.2-5.2
		c1.8,1.2,2.8,6.5,3.2,10.1l-0.1,7.1c-2.5-1.2-5-2.3-7.5-3.2c-2.3-0.9-4.6-1.6-6.9-2.3c-6.1-1.7-11.9-2.6-17.4-2.7l-0.6-12l0-0.4
		c0.3-2.1,0.8-4.5,1.4-6.4c0.5-1.5,1.1-2.8,1.9-3.3c2.4-1.7,2.6,1.8,3.1,4.1c0.1,0.6,0.2,1.1,0.4,1.5c0.9,1.9,2.2,3.8,4.4,4.2
		c2.2,0.4,2.4,0.4,2.4,0.4s-1.5-0.9-2.2-4.1c-0.1-0.5-0.2-1.1-0.3-1.8c-0.4-4.7-5.6-6.2-7.9-5.3c-1.5,0.6-2.6,1.8-3.3,4.3
		c-0.1,0.5-0.2,1-0.3,1.5l-0.1-1.5L74.4,61c0.2-1.4,0.5-3,0.9-4.4c0.5-1.7,1.1-3.1,1.9-3.7c0.1,0,0.1-0.1,0.2-0.1
		c2-1.2,2,2.3,2.5,4.1c0.1,0.2,0.1,0.4,0.2,0.6c0.7,1.5,1.8,3.1,3.6,3.5c1.8,0.4,2,0.3,2,0.3s-1.3-0.8-1.8-3.6
		c-0.1-0.4-0.1-0.8-0.2-1.3c-0.4-3.8-4.4-5.1-6.3-4.4c0,0-0.1,0-0.1,0c-1.4,0.6-2.5,1.8-2.9,4.5c0,0.1,0,0.2,0,0.3l0-0.3l-0.2-3.7
		l-0.1-1c0.1-0.5,0.1-1,0.2-1.5c0.4-2.3,1-5.2,2.1-6c0.2-0.2,0.5-0.3,0.6-0.3c1.2-0.1,1.1,2.8,1.6,3.8c0.6,1.2,1.4,2.4,2.8,2.7
		c1.4,0.3,1.6,0.2,1.6,0.2s-1.3-0.8-1.6-3.8c-0.2-2.6-2.8-3.7-4.4-3.5c-0.2,0-0.4,0.1-0.6,0.1c-0.8,0.3-1.4,0.9-1.8,1.8
		c-0.3,0.8-0.6,2-0.6,3.5l-0.6-10.5c0.3-1.4,0.8-2.7,1.4-3.1c0.2-0.1,0.3-0.2,0.4-0.2c1.1-0.3,1,2.3,1.4,3.2c0,0.1,0.1,0.1,0.1,0.2
		c0.5,0.9,1.1,1.8,2.2,2c1.2,0.2,1.3,0.2,1.3,0.2s-1-0.6-1.3-3.1c-0.1-1.6-1.3-2.5-2.4-2.8c-0.4-0.1-0.9-0.2-1.3-0.1
		c-0.2,0-0.3,0.1-0.5,0.1c-0.6,0.2-1.1,0.7-1.5,1.6l-0.1-2.7c0.3-1.8,0.8-3.9,1.6-4.5c0.3-0.2,0.6-0.3,0.8-0.2
		c0.4,0.2,0.5,0.8,0.7,1.5c0.1,0.6,0.2,1.3,0.4,1.7c0.5,1,1.1,2,2.3,2.2c1.2,0.2,1.3,0.2,1.3,0.2s-1-0.6-1.3-3.1
		c-0.2-1.8-1.6-2.6-2.8-2.9c-0.2,0-0.4,0-0.5,0c-0.3,0-0.6,0-0.8,0.1c-0.9,0.3-1.5,1-1.8,2.5l-0.2-3.9l0-1.6
		c0.2-0.5,0.5-0.9,0.9-1.2c1.7-1.2,1.9-3,1.9-3s-0.2,0.5-1.5,1.2c-0.1,0.1-0.2,0.1-0.3,0.2c-0.2,0.5-0.4,0.9-0.7,1.4l-0.5,0.2
		c0-0.8-0.1-1.8-0.9-2.3c-0.2-0.1-0.3-0.2-0.4-0.3c-1-0.7-1.2-1.3-1.2-1.3s-0.1,2,1.1,3.1c0.7,0.6,1,1.5,1.2,2.3c0,0.1,0,0.1,0,0.2
		l0.1,0.9l0,3.1c-0.3-1.4-0.9-2.1-1.8-2.4c-1.2-0.5-3.9,0.3-4.2,2.8c-0.2,2.5-1.3,3.1-1.3,3.1s0.1,0,1.3-0.2
		c1.2-0.2,1.8-1.3,2.3-2.2c0.5-1,0.3-4.1,1.9-3c0.9,0.6,1.4,3,1.7,4.9l-0.1,6.9c-0.5-1.5-1.3-2.3-2.3-2.7c-1.7-0.7-5.6,0.4-5.9,4
		C63.5,45,62,45.9,62,45.9s0.2,0.1,1.8-0.3c1.7-0.3,2.6-1.8,3.3-3.2c0.7-1.4,0.4-5.8,2.6-4.2c1.1,0.8,1.8,3.4,2.3,5.9l-0.1,7.6
		c-0.5-2-1.5-2.9-2.7-3.4c-1.9-0.8-6.3,0.5-6.6,4.5c-0.1,1.1-0.3,2-0.6,2.7c-0.6,1.8-1.5,2.3-1.5,2.3s0.2,0.1,2.1-0.3
		c0.2,0,0.4-0.1,0.6-0.2c1.5-0.6,2.5-2,3.1-3.4c0.8-1.6,0.4-6.5,2.9-4.8c1.3,0.9,2.2,4.3,2.7,7.3l0,0.3L71.7,66
		c-0.5-3.4-1.8-5-3.6-5.7c-2.3-0.9-7.4,0.6-7.9,5.3c-0.4,4.7-2.4,5.9-2.4,5.9s0.2,0.1,2.4-0.4c2.2-0.4,3.5-2.4,4.4-4.2
		c0.9-1.9,0.5-7.7,3.5-5.6c1.2,0.9,2.1,3.5,2.7,6.3c0.3,1.6,0.6,3.2,0.8,4.6l0,2.1l-0.2,11.7c-5.6,0.2-10.8,1-15.5,2.2
		c-2.1,0.6-4.2,1.2-6.1,1.9c-3.1,1.1-6,2.4-8.6,3.7l-0.5-8.4c0.5-3.5,1.5-7.9,3.1-9.1c2.8-1.9,2.4,3.5,3.2,5.2
		c0.8,1.6,1.8,3.2,3.6,3.8c0.2,0.1,0.3,0.1,0.5,0.1c2.1,0.4,2.3,0.3,2.3,0.3s-1.1-0.7-1.8-3.2c-0.2-0.7-0.4-1.4-0.4-2.4
		c-0.4-4.4-5.2-5.8-7.3-5c-0.1,0-0.1,0.1-0.2,0.1c-0.1,0-0.1,0.1-0.2,0.1c-1,0.5-1.7,1.3-2.3,2.7c-0.3,0.7-0.5,1.5-0.6,2.6l-0.1-2.8
		l-0.2-3L40,73.7c0.4-2.9,1.2-6.5,2.5-7.5c2.3-1.6,2,2.9,2.7,4.3c0.2,0.4,0.4,0.8,0.7,1.2c0.6,1,1.5,1.8,2.7,2
		c1.7,0.3,1.9,0.3,1.9,0.3s-1.5-0.9-1.9-4.5c0-0.3-0.1-0.6-0.2-0.9c-0.8-2.9-4.2-3.8-5.8-3.2c-1.4,0.5-2.3,1.8-2.7,4.5l-0.3-4.7
		c0.1-1.2,0.4-2.9,0.8-4.3c0.2-0.9,0.5-1.7,0.9-2.2c0.1-0.2,0.3-0.4,0.4-0.5c1.2-0.8,1.5,0.5,1.7,1.8c0.1,0.6,0.2,1.2,0.4,1.5
		c0.5,1.1,1.3,2.2,2.6,2.5c1.3,0.3,1.4,0.2,1.4,0.2s-0.8-0.5-1.2-2.2c-0.1-0.4-0.2-0.8-0.2-1.3c-0.3-2.8-3.3-3.7-4.6-3.2
		c-0.4,0.2-0.7,0.4-1,0.7c-0.4,0.5-0.7,1.1-1,2.1c-0.1,0.6-0.2,1.3-0.3,2.2l-0.1-2.5l-0.1-2.7l-0.2-4.6c0.3-1.3,0.7-2.5,1.3-2.9
		c1.4-1,1.3,1.8,1.7,2.7c0.4,0.9,1,1.8,2.1,2.1c1.1,0.2,1.2,0.2,1.2,0.2s-1-0.6-1.2-2.9c-0.2-2.3-2.7-3-3.8-2.6
		c-0.6,0.2-1.1,0.7-1.4,1.5l-0.1-2.5c0.3-1.7,0.8-3.7,1.5-4.2c1.4-1,1.3,1.8,1.7,2.7c0.4,0.9,1,1.8,2.1,2.1c1.1,0.2,1.2,0.2,1.2,0.2
		s-1-0.6-1.2-2.9c-0.2-2.3-2.7-3-3.8-2.6c-0.8,0.3-1.4,1-1.7,2.4l-0.2-3.6l0-1.5c0.2-0.4,0.4-0.8,0.8-1.1c1.6-1.1,1.7-2.8,1.7-2.8
		s-0.1,0.5-1.4,1.2c-0.1,0.1-0.2,0.1-0.3,0.2c-0.1,0.4-0.4,0.9-0.7,1.3l-0.5,0.2c0-0.7-0.1-1.7-0.8-2.2c-0.1-0.1-0.3-0.2-0.4-0.3
		c-0.9-0.7-1.1-1.2-1.1-1.2s-0.1,1.8,1,2.9c0.6,0.6,1,1.4,1.1,2.2c0,0.1,0,0.1,0,0.2l0.1,0.8l0,2.9c-0.3-1.3-0.9-1.9-1.6-2.2
		c-1.1-0.4-3.7,0.3-3.9,2.6c-0.2,2.3-1.2,2.9-1.2,2.9s0.1,0,1.2-0.2c1.1-0.2,1.7-1.2,2.2-2.1c0.4-0.9,0.3-3.8,1.7-2.8
		c0.8,0.6,1.3,2.8,1.6,4.6l-0.1,6.4c-0.5-1.4-1.2-2.1-2.2-2.5c-1-0.4-2.8-0.1-4.1,0.9c-0.3,0.3-0.6,0.6-0.8,0.9
		c-0.3,0.5-0.6,1.1-0.6,1.8c-0.3,3.3-1.7,4.2-1.7,4.2s0.2,0,1.7-0.3c1.6-0.3,2.4-1.7,3.1-3c0.1-0.2,0.2-0.4,0.2-0.7
		c0.1-0.5,0.2-1.1,0.3-1.6c0.3-1.3,0.7-2.5,1.9-1.6c0.8,0.6,1.4,2.1,1.8,3.9c0.1,0.5,0.2,1,0.3,1.6l0,1l-0.1,6
		c-0.5-1.8-1.4-2.7-2.5-3.2c-1.8-0.7-5.8,0.5-6.2,4.2c-0.4,3.7-1.9,4.7-1.9,4.7s0.2,0.1,1.9-0.3c1.8-0.3,2.7-1.9,3.4-3.3
		c0.7-1.5,0.4-6.1,2.7-4.4c1.2,0.9,2,4,2.5,6.8l-0.1,5.3l0,2.7l0,0.8c0-0.3-0.1-0.6-0.2-0.9c-0.3-1.3-0.7-2.2-1.2-2.9
		c-0.5-0.7-1.2-1.2-2-1.5c-1-0.4-2.7-0.3-4.2,0.5c-0.7,0.4-1.4,0.9-2,1.6c-0.6,0.8-1,1.7-1.1,2.9c-0.4,4.4-2.3,5.5-2.3,5.5
		s0.2,0.1,2.3-0.3c2.1-0.4,3.2-2.2,4.1-3.9c0.3-0.7,0.5-2,0.7-3.2c0.2-0.9,0.4-1.7,0.8-2.1c0.4-0.4,0.9-0.5,1.7,0.1
		c0.1,0.1,0.2,0.2,0.3,0.2c0.6,0.6,1.1,1.6,1.5,2.9c0.7,2.1,1.2,4.9,1.4,7l-0.1,5.2l0,2.8l-0.1,4c-9.5,5.6-14.8,11.5-14.8,11.5
		l0.1,0c2.9-2.5,17.2-13.6,35.3-6.4c20.3,8.1,27.2,4.5,27.2,4.5s0,0,0,0.1c0,0,0,0-0.1,0.1c0,0.1-0.1,0.2-0.2,0.3c0,0,0,0.1-0.1,0.1
		c0,0-0.1,0.1-0.1,0.1c0,0,0,0,0,0c-1.7,2.4-8.2,10.4-17.8,8.6c-11.2-2-15.5-5.2-15.5-5.2s2.8,2.1,7.5,4.2c0.5,0.2,1,0.4,1.6,0.7
		c0.1,0,0.1,0,0.2,0.1c1.1,0.4,2.3,0.9,3.6,1.3c0.1,0,0.1,0,0.2,0.1c0.5,0.2,1.1,0.3,1.7,0.5c0.2,0,0.3,0.1,0.5,0.1
		c0.5,0.1,1.1,0.3,1.6,0.4c0.1,0,0.3,0.1,0.4,0.1c0.7,0.1,1.4,0.3,2.1,0.4c0,0,0.1,0,0.1,0c0.6,0.1,1.3,0.2,1.9,0.2
		c0.2,0,0.4,0,0.6,0c0.5,0,1.1,0.1,1.6,0.1c0.2,0,0.4,0,0.7,0c0.7,0,1.3,0,2,0c0.1,0,0.2,0,0.3,0c0.8,0,1.5-0.1,2.3-0.2
		c0.2,0,0.4-0.1,0.6-0.1c0.6-0.1,1.1-0.2,1.7-0.3c0.3,0,0.5-0.1,0.8-0.1c0.6-0.1,1.2-0.3,1.8-0.4c0.2-0.1,0.4-0.1,0.6-0.2
		c0.8-0.2,1.6-0.5,2.4-0.8c0.2-0.1,0.3-0.1,0.5-0.2c0.6-0.2,1.3-0.5,1.9-0.8c0.3-0.1,0.5-0.2,0.8-0.4c0.6-0.3,1.2-0.6,1.7-0.9
		c0.2-0.1,0.5-0.3,0.7-0.4c0.8-0.5,1.6-1,2.4-1.5c15-10.4,24-9.2,27.8-7.8c-4.2-3-8.4-5.5-12.5-7.7L111.1,92.9z"/>
	<path fill="#FFB602" d="M108.3,42.8l0.5-0.2c0.3-0.4,0.5-0.9,0.7-1.3c0.9-2.7-1.1-5-1.1-5s-1.2,1.5-1.3,3.4c0,0.3,0,0.5,0,0.7
		c0.1,0.1,0.2,0.2,0.4,0.3C108.2,41.1,108.4,42.1,108.3,42.8z"/>
	<path fill="#B1D191" d="M58.8,106.8c13.8,6.1,21.9,2.6,25.8-0.4c0,0,0,0,0,0c0-0.1,0.1-0.1,0.1-0.1c0,0,0.1-0.1,0.1-0.1
		c0.1-0.1,0.1-0.2,0.2-0.3c0,0,0.1-0.1,0.1-0.1c0,0,0-0.1,0-0.1s-6.9,3.7-27.2-4.5c-18.1-7.2-32.4,3.9-35.3,6.4
		c-0.4,0.3-0.6,0.5-0.6,0.5c0,0,0.1,0,0.1,0C26.1,106,41.2,99,58.8,106.8z"/>
	<path fill="#B1D191" d="M95.9,111.6c-0.8,0.6-1.6,1.1-2.4,1.5c-0.2,0.1-0.5,0.3-0.7,0.4c-0.6,0.3-1.2,0.6-1.7,0.9
		c-0.3,0.1-0.5,0.3-0.8,0.4c-0.6,0.3-1.3,0.6-1.9,0.8c-0.2,0.1-0.3,0.1-0.5,0.2c-0.8,0.3-1.6,0.6-2.4,0.8c-0.2,0.1-0.4,0.1-0.6,0.2
		c-0.6,0.2-1.2,0.3-1.8,0.4c-0.3,0.1-0.5,0.1-0.8,0.1c-0.6,0.1-1.1,0.2-1.7,0.3c-0.2,0-0.4,0.1-0.6,0.1c-0.8,0.1-1.5,0.2-2.3,0.2
		c-0.1,0-0.2,0-0.3,0c-0.7,0-1.3,0-2,0c-0.2,0-0.4,0-0.7,0c-0.5,0-1.1,0-1.6-0.1c-0.2,0-0.4,0-0.6,0c-0.7-0.1-1.3-0.1-1.9-0.2
		c0,0-0.1,0-0.1,0c-0.7-0.1-1.4-0.2-2.1-0.4c-0.1,0-0.3-0.1-0.4-0.1c-0.5-0.1-1.1-0.2-1.6-0.4c-0.2,0-0.3-0.1-0.5-0.1
		c-0.6-0.1-1.1-0.3-1.7-0.5c-0.1,0-0.1,0-0.2-0.1c-1.3-0.4-2.5-0.8-3.6-1.3c-0.1,0-0.1-0.1-0.2-0.1c-0.5-0.2-1.1-0.7-1.6-0.7
		c0,0,0,0,0,0c-1.5,0-3.1-1.3-4.5-2.2c0,0,22.3,18.5,42.3,6.2c16.9-10.4,24.3-13.6,29.3-13c0,0,0,0,0,0c0-0.1,0.1-0.1,0.1-0.1
		s-0.8-0.6-2.3-1.1C120,102.4,111,101.2,95.9,111.6z"/>
</g>
</svg>
