<?xml version="1.0" encoding="utf-8"?>
<!-- Generator: Adobe Illustrator 18.1.0, SVG Export Plug-In . SVG Version: 6.00 Build 0)  -->
<svg version="1.1" id="Layer_1" xmlns="http://www.w3.org/2000/svg" xmlns:xlink="http://www.w3.org/1999/xlink" x="0px" y="0px"
	 viewBox="0 0 150 150" enable-background="new 0 0 150 150" xml:space="preserve">
<g>
	<path fill="#CCE8F6" d="M15.5,95.2c0,11.3,5.2,21.4,13.2,28.1c-6.6-6.6-10.7-15.7-10.7-25.8c0-20.1,16.3-36.4,36.4-36.4
		c4,0,7.9,0.7,11.6,1.9c0.1-0.4,0.2-0.8,0.3-1.2c-4.4-1.9-9.3-3-14.4-3C31.8,58.8,15.5,75.1,15.5,95.2z"/>
	<path fill="#CCE8F6" d="M52.7,124c-7,0-13.3-2.5-18.3-6.6c5.2,5.2,12.4,8.4,20.3,8.4c15.9,0,28.8-12.9,28.8-28.8
		c0-1.8-0.2-3.6-0.5-5.4c-0.6-0.2-1.2-0.4-1.8-0.7c0.2,1.4,0.3,2.8,0.3,4.2C81.4,111.1,68.5,124,52.7,124z"/>
	<path fill="#57C1E7" d="M116.2,67.7c0-13.9-11.3-25.3-25.3-25.3c-10.4,0-19.3,6.3-23.2,15.2c-4.9-2-10.2-3.1-15.7-3.1
		c-10.9,0-21.2,4.3-29,12c-7.7,7.7-12,18-12,29c0,22.6,18.4,41,41,41c10.9,0,21.2-4.3,29-12c7.7-7.7,12-18,12-29
		c0-0.9,0-1.7-0.1-2.6C105.9,91.9,116.2,81,116.2,67.7z M52,133.9c-21.2,0-38.4-17.2-38.4-38.4c0-10.3,4-19.9,11.3-27.2
		c7.3-7.3,16.9-11.3,27.2-11.3c5.2,0,10.2,1,14.8,3c-0.2,0.6-0.3,1.1-0.5,1.7c-0.1,0.4-0.2,0.8-0.3,1.2c-0.3,1.5-0.4,3.1-0.4,4.7
		c0,10.5,6.4,19.5,15.5,23.3c0.6,0.3,1.2,0.5,1.8,0.7c2.3,0.8,4.8,1.2,7.4,1.3c0.1,0.8,0.1,1.7,0.1,2.5c0,10.3-4,19.9-11.3,27.2
		C71.9,129.9,62.3,133.9,52,133.9z M90.9,45c12.5,0,22.7,10.2,22.7,22.7c0,12.5-10.2,22.7-22.7,22.7c-12.5,0-22.7-10.2-22.7-22.7
		C68.2,55.2,78.4,45,90.9,45z"/>
	<path fill="#CCE8F6" d="M68.8,67.5c0,6.8,3.1,12.9,8,17c-4-4-6.5-9.5-6.5-15.6c0-12.2,9.9-22,22-22c5.3,0,10.2,1.9,14,5
		c-4-4-9.5-6.5-15.6-6.5C78.7,45.5,68.8,55.4,68.8,67.5z"/>
	<path fill="#CCE8F6" d="M103.6,55.2c3.1,3.1,5.1,7.5,5.1,12.3c0,9.6-7.8,17.4-17.4,17.4c-4.2,0-8.1-1.5-11.1-4
		c3.1,3.1,7.5,5.1,12.3,5.1c9.6,0,17.4-7.8,17.4-17.4C109.9,63.2,107.5,58.4,103.6,55.2z"/>
	<path fill="#57C1E7" d="M112.8,95.5c-10.3,0-18.7,8.4-18.7,18.7c0,10.3,8.4,18.7,18.7,18.7c10.3,0,18.7-8.4,18.7-18.7
		C131.5,103.9,123.1,95.5,112.8,95.5z M112.8,131.2c-9.4,0-17-7.6-17-17c0-9.4,7.6-17,17-17c9.4,0,17,7.6,17,17
		C129.8,123.6,122.2,131.2,112.8,131.2z"/>
	<path fill="#CCE8F6" d="M114,98.7c4,0,7.6,1.4,10.4,3.8c-3-3-7.1-4.8-11.6-4.8c-9.1,0-16.4,7.3-16.4,16.4c0,5.1,2.3,9.6,6,12.6
		c-3-3-4.8-7.1-4.8-11.6C97.6,106.1,104.9,98.7,114,98.7z"/>
	<path fill="#CCE8F6" d="M122.3,104.9c2.3,2.3,3.8,5.6,3.8,9.2c0,7.1-5.8,12.9-12.9,12.9c-3.1,0-6-1.1-8.2-3
		c2.3,2.3,5.6,3.8,9.2,3.8c7.2,0,12.9-5.8,12.9-12.9C127,110.9,125.1,107.3,122.3,104.9z"/>
	<path fill="#57C1E7" d="M121.6,39c7,0,12.8-5.7,12.8-12.8c0-7-5.7-12.8-12.8-12.8c-7,0-12.8,5.7-12.8,12.8
		C108.8,33.3,114.6,39,121.6,39z M121.6,14.8c6.3,0,11.5,5.2,11.5,11.5c0,6.3-5.2,11.5-11.5,11.5c-6.3,0-11.5-5.2-11.5-11.5
		C110.1,19.9,115.3,14.8,121.6,14.8z"/>
	<path fill="#CCE8F6" d="M114.5,34.8c-2-2-3.3-4.8-3.3-7.9c0-6.2,5-11.1,11.1-11.1c2.7,0,5.2,1,7.1,2.6c-2-2-4.8-3.3-7.9-3.3
		c-6.2,0-11.1,5-11.1,11.1C110.5,29.6,112,32.7,114.5,34.8z"/>
	<path fill="#CCE8F6" d="M128,20c1.6,1.6,2.6,3.8,2.6,6.2c0,4.9-3.9,8.8-8.8,8.8c-2.1,0-4.1-0.8-5.6-2c1.6,1.6,3.8,2.6,6.2,2.6
		c4.9,0,8.8-3.9,8.8-8.8C131.2,24,130,21.6,128,20z"/>
	<path fill="#57C1E7" d="M50,52c9.3,0,16.8-7.6,16.8-16.8c0-9.3-7.6-16.8-16.8-16.8c-4.5,0-8.7,1.8-11.9,4.9
		c-3.2,3.2-4.9,7.4-4.9,11.9c0,4.5,1.8,8.7,4.9,11.9C41.3,50.2,45.5,52,50,52z M50,20c8.4,0,15.2,6.8,15.2,15.2
		c0,8.4-6.8,15.2-15.2,15.2c-4,0-7.9-1.6-10.7-4.4c-2.9-2.9-4.4-6.7-4.4-10.7c0-4,1.6-7.9,4.4-10.7C42.2,21.6,46,20,50,20z"/>
	<path fill="#CCE8F6" d="M40.7,46.4C38,43.7,36.4,40,36.4,36c0-8.1,6.6-14.7,14.7-14.7c3.6,0,6.8,1.3,9.4,3.4
		c-2.7-2.7-6.3-4.3-10.4-4.3c-8.1,0-14.7,6.6-14.7,14.7C35.3,39.6,37.4,43.7,40.7,46.4z"/>
	<path fill="#CCE8F6" d="M58.5,26.9c2.1,2.1,3.4,5,3.4,8.2c0,6.4-5.2,11.6-11.6,11.6c-2.8,0-5.4-1-7.4-2.6c2.1,2.1,5,3.4,8.2,3.4
		c6.4,0,11.6-5.2,11.6-11.6C62.7,32.2,61.1,29,58.5,26.9z"/>
</g>
</svg>
