<?xml version="1.0" encoding="utf-8"?>
<!-- Generator: Adobe Illustrator 18.1.0, SVG Export Plug-In . SVG Version: 6.00 Build 0)  -->
<svg version="1.1" id="Layer_1" xmlns="http://www.w3.org/2000/svg" xmlns:xlink="http://www.w3.org/1999/xlink" x="0px" y="0px"
	 viewBox="0 0 150 150" enable-background="new 0 0 150 150" xml:space="preserve">
<g>
	<g>
		<path fill="#ADD697" d="M32.7,123.7c11.9-0.9,12.9-2.3,15.2-14l11.9-60.8c2.1-11,1.4-12.3-10.2-13.3C45.4,40,41.5,44.8,37.8,50
			c-24.4,34.8-27.5,74.7-7,89.1c14.4,10.1,36.5,5,56.8-10.8H31.7L32.7,123.7z"/>
	</g>
	<g>
		<path fill="#46875A" d="M119.2,13.1C102.9,1.7,76.6,9.7,54.3,30.9h38.1l-1.1,4.7c-11.7,1-12.6,2.3-14.7,13.4L65,109
			c-0.9,5.6-0.9,8.7,0.9,10.8c1.8,2,6.2,2.5,12.3,2.5c7.8,0,12.8-1.1,16.5-4.7c3.3-3.3,7.1-8.3,10.8-15.6l5,1.8
			c-0.2,0.4-0.3,0.9-0.5,1.4c0.8-1,1.5-2,2.2-3.1C136.6,67.4,139.7,27.5,119.2,13.1z"/>
	</g>
</g>
</svg>
