<?xml version="1.0" encoding="utf-8"?>
<!-- Generator: Adobe Illustrator 18.1.0, SVG Export Plug-In . SVG Version: 6.00 Build 0)  -->
<svg version="1.1" id="Layer_1" xmlns="http://www.w3.org/2000/svg" xmlns:xlink="http://www.w3.org/1999/xlink" x="0px" y="0px"
	 viewBox="0 0 150 150" enable-background="new 0 0 150 150" xml:space="preserve">
<g>
	<path fill="none" d="M41.1,56.8l2.7-0.8l0.4,0l1.3-0.4l1.1-0.2l0.8-0.1l0.8-1.9l1.5-3l0.5-0.8l0.8-1.3l-0.3,0l-0.4,0l-0.7,0l-0.2,0
		l-0.5-0.1l-0.5,0l-0.5,0l-0.6,0l-0.5,0l-0.6,0l-0.5,0l-0.6,0l-0.6,0l-0.1,0c-0.6,0.7-1.1,1.3-1.6,1.9c-0.3,0.4-0.6,0.8-0.9,1.2
		c-1.7,2.1-3.1,4.4-4.3,6.8l0.8-0.4L41.1,56.8z"/>
	<path fill="none" d="M108.8,78.3l2.9,3.1l0.8,0.9c0.7-4.2,0.7-8.4,0.1-12.7c0,0-0.1,0-0.1,0c-2.2,1.2-4.4,2.4-6.8,3.6
		c-0.2,0.1-0.3,0.2-0.5,0.2c-0.3,0.2-0.6,0.3-0.9,0.5l1.5,1.4L108.8,78.3z"/>
	<path fill="none" d="M34.3,72.6l0.5-0.9l0.6-0.8L36,70l0.6-0.8l0.6-0.7l0.6-0.7l0.8-0.6l0.8-0.6l0.6-0.3l0.2-0.2l0.8-0.5l1-0.4
		l0.9-0.3l1-0.2l0.4-0.1l0.3-1.5l1-3.3l0.1-0.4l0.6-1.5l-1.2,0.2l-0.8,0.2l-2.6,0.7l-2.4,0.9l-1.9,0.8L37,61l-0.8,0.4
		c-1.6,4.1-2.5,8.4-2.7,12.7l0.3-0.6L34.3,72.6z"/>
	<path fill="none" d="M55.5,45.8l0.5-0.1l1.5-0.2l0.6-0.1l1-0.2l1.4-0.3l1.4-0.4l1.4-0.4l1.3-0.4l1.3-0.5l1.4-0.5l1.3-0.5l1.4-0.5
		l1.5-0.4l1.4-0.4l1.5-0.4l1.6-0.3l1.5-0.3l1.7-0.1l1.7-0.1l1.9,0l1.9,0.1l2,0.2l2.2,0.3l2.2,0.5l1.9,0.5
		c-6.7-3.9-14.5-5.7-22.3-5.3c-2.5,0.2-5.1,0.6-7.5,1.2l-1.8,1.7l-2.1,2.2l-2,2.4L55.5,45.8z"/>
	<path fill="none" d="M47.9,45.9l0.6-0.1l0.5,0l0.5,0l0.5,0l0.5,0l0.4,0l0.4,0l0.4,0l0.4,0l0.3,0l0.1,0l0.9-1.3l0.1-0.2l1.9-2.4
		l0.8-0.9l1.4-1.6l0.5-0.6c-0.5,0.2-0.9,0.4-1.4,0.6c-0.3,0.2-0.7,0.3-1,0.5c-1.1,0.5-2.2,1.2-3.3,1.9c-1.4,0.9-2.9,2-4.3,3.1
		c-0.3,0.3-0.6,0-1,1h0.3L47.9,45.9z"/>
	<path fill="none" d="M55.4,104.4l2.7,3.3l2.2,2.4l0.9,0.8l3.4,3.3l0.6,0.5c2.1,0.4,4.3,0.7,6.4,0.8c0.5,0,1,0,1.4,0
		c2.4,0,4.9-0.1,7.2-0.6c1.7-0.3,3.5-0.7,5.1-1.2c1.3-0.4,2.4-0.9,3.6-1.4c0.4-0.1,0.7-0.2,1-0.4c1.9-0.9,3.6-1.9,5.3-3l-2.8-1.2
		l-2.8-1.4l-2.5-1.7l-2.5-1.7l-0.2-0.1l-2.1-1.7l-2.2-1.9l-2-2l-0.8-0.8l-1.1-1.2L74.5,93l-1.8-2.1l-0.9-1.1
		c-0.7,0.3-1.4,0.6-2.1,0.9c-0.1,0-0.2,0.1-0.2,0.1c-5.6,2.5-11.1,4.8-16.3,6.8c-0.6,0.2-1.2,0.5-1.8,0.7L53,101L55.4,104.4z"/>
	<path fill="none" d="M60,113.2l-0.6-0.5l-3.2-3.3l-2.8-3.5l-2.5-3.5l-1.8-3.1c-0.2,0.1-0.5,0.2-0.7,0.3c-0.2,0.1-0.4,0.2-0.6,0.2
		c-0.9,0.4-1.9,0.7-2.8,1.1c-0.7,0.3-1.3,0.5-2,0.7C47.7,106.9,53.5,110.9,60,113.2z"/>
	<path fill="none" d="M76.3,91.5l1.8,2.1l1.9,2l2,1.9l0.3,0.3l1.8,1.5l2.2,1.7l2.3,1.7l2.5,1.5l2.6,1.3l2.7,1.3l1.3,0.5
		c1.5-1.2,2.9-2.5,4.2-3.8c4.9-5.1,8.3-11.4,9.9-18.1l-1.9-2.3l-2.8-3l-2.9-2.8l-2.1-1.9c-0.1,0-0.2,0.1-0.3,0.1
		C95.6,78.6,89,81.9,82,85.2c-2.4,1.1-4.8,2.2-7.1,3.2c-0.3,0.1-0.6,0.3-0.9,0.4l0.5,0.6L76.3,91.5z"/>
	<path fill="#1587C1" d="M33.8,90.7c0.4,0.9,0.7,1.9,1.1,2.8c0.9,1.8,1.9,3.5,2.9,5.2c0.8-0.3,1.5-0.6,2.3-0.9
		c-1.1-1.7-2.2-3.4-3-5.3c-1.9-4-3-8.2-3.5-12.4l0.4-0.8l0.4-1l0.4-1l0.4-0.9l0.4-0.9l0.5-0.9l0.4-0.9l0.4-0.8l0.5-0.8l0.5-0.7
		l0.6-0.7l0.5-0.6l0.6-0.6l0.6-0.5l0.7-0.5l0.2-0.1l0.4-0.3l0.7-0.4l0.7-0.3l0.8-0.2l0.1-0.1l-0.4,2.7l-0.2,3l0,0.5l0,3.6l0.2,3.6
		l0.5,3.6l0.8,3.6l1.1,3.6l1.4,3.6c0.8-0.3,1.5-0.6,2.3-0.9l0,0l-1.4-3.4l-1-3.5l-0.8-3.4l-0.5-3.4l-0.2-2.3l0-1.1l0-3.4l0.3-3.3
		l0.6-3.3l0-0.1l0.7,0l1.7,0.1l0.7,0.2l0.9,0.2l0.8,0.3l0.8,0.3l1.5,0.8l1.4,1l1.5,1.1l1.4,1.4l1.4,1.5l1.5,1.6l1.4,1.7l1.5,1.8
		l0.9,1.2l0.6,0.7l1.5,2l1.5,2l1,1.3c0.7-0.3,1.5-0.7,2.3-1l-1.4-1.7l-1.5-2l-1.5-2l-1.5-2l-1.5-1.8l-1.5-1.8l-1.5-1.7l-0.5-0.5
		l-1-1.1L57.7,69l-1.6-1.3l-1.6-1.1l-1.8-0.9L50.9,65l-1.3-0.3L49,64.6l-0.9-0.1l-1-0.1l-0.2,0l0.1-0.7l0.3-1l0.6-1.8l0.1-0.4
		l1.2-3.1l0.6-0.1l2.8-0.3l1.1-0.1l1.8-0.1l2.9,0l0.9,0.1l2,0l2.3,0.3l0.7,0.1l3,0.4l3.1,0.7l3,0.9l3.1,1l3.2,1.1l3.2,1.4l0.3,0.1
		l2.8,1.4l3.1,1.7l3.1,1.9l3,2l2.7,2c0.8-0.4,1.6-0.8,2.4-1.2l-0.6-0.5L96.7,68l-3.2-2.1L90.4,64l-3.2-1.8L84,60.6l-2.2-0.9
		l-1.1-0.4l-3.3-1.3l-3.2-1L71,56.2l-3.2-0.7L64.7,55l-2.2-0.2l-0.9-0.1l-3.2-0.2l-0.2,0l-2.8-0.1l-2.8,0.2l-0.2,0l-2.2,0.3l0.2-0.4
		l1-2.1l0.4-0.8l1.6-2.8l0.3-0.4l0.7,0l0.7-0.1l1.1-0.1l1.7-0.2l1.2-0.2l0.4-0.1l1.6-0.3l1.5-0.4l1.5-0.5l1.4-0.4l1.3-0.5l1.3-0.5
		l1.4-0.5l1.4-0.5l1.3-0.5l1.4-0.4l0.4-0.1l1-0.2l1.5-0.3l1.5-0.2l1.5-0.1l1.6-0.2l1.7,0l1.7,0.1l1.9,0.2l2,0.3l2.1,0.4l2.2,0.6
		l2.3,0.7l2.5,0.9l2.1,0.8c4,3.6,7.3,7.9,9.7,13c0.9,1.9,1.6,3.8,2.1,5.7c0.7-0.4,1.4-0.8,2.1-1.2c-0.6-1.9-1.2-3.7-2.1-5.6
		C104,41.5,86.9,32.3,69.7,33.6c-4.8,0.4-9.5,1.6-14,3.7c-0.3,0.2-0.7,0.3-1,0.5c-1.1,0.6-2.2,1.2-3.3,1.9c-1.5,0.8-2.9,1.9-4.3,2.9
		c-1.9,1.5-3.6,3.2-5.2,5c-0.3,0.4-0.6,0.7-1,1.1c-2,2.5-3.8,5.1-5.2,8c-4.8,9.6-6,21-2.6,31.8c0,0,0,0,0.1,0
		C33.3,89.2,33.6,90,33.8,90.7z M61.4,38.9l1.8-1.7c2.5-0.6,5-1,7.5-1.2c7.8-0.4,15.5,1.4,22.3,5.3l-1.9-0.5L89,40.2l-2.2-0.3
		l-2-0.2L83,39.6l-1.9,0l-1.7,0.1L77.7,40l-1.5,0.3l-1.6,0.3L73.1,41l-1.4,0.4l-1.5,0.4l-1.4,0.5l-1.3,0.5L66,43.2l-1.3,0.5
		l-1.3,0.4L62,44.6L60.5,45l-1.4,0.3l-1,0.2l-0.6,0.1L56,45.8l-0.5,0.1l1.8-2.3l2-2.4L61.4,38.9z M48,45c1.4-1.1,2.8-2.2,4.3-3.1
		c1.1-0.7,2.2-1.4,3.3-1.9c0.3-0.2,0.7-0.3,1-0.5c0.5-0.2,0.9-0.4,1.4-0.7l-0.5,0.6l-1.4,1.6L55.4,42l-1.9,2.4l-0.1,0.2L52.5,46
		l-0.1,0l-0.3,0l-0.4,0l-0.4,0l-0.4,0l-0.4,0l-0.5,0l-0.5,0l-0.5,0l-0.5,0l-0.6,0.1L47.4,46h-0.3C47.4,45,47.7,45.3,48,45z M42,51.2
		c0.3-0.4,0.6-0.8,0.9-1.2c0.5-0.6,1.1-1.2,1.6-1.9l0.1,0l0.6,0l0.6,0l0.5,0l0.6,0l0.5,0l0.6,0l0.5,0l0.5,0l0.5,0.1l0.2,0l0.7,0
		l0.4,0l0.3,0l-0.8,1.3l-0.5,0.8l-1.5,3l-0.8,1.9l-0.8,0.1l-1.1,0.2l-1.3,0.4l-0.4,0l-2.7,0.8l-2.6,0.9l-0.8,0.4
		C38.8,55.7,40.3,53.4,42,51.2z M36.2,61.4L37,61l0.5-0.2l1.9-0.8l2.4-0.9l2.6-0.7l0.8-0.2l1.2-0.2l-0.6,1.5l-0.1,0.4l-1,3.3
		l-0.3,1.5L44,64.7l-1,0.2l-0.9,0.3l-1,0.4l-0.8,0.5L40,66.3l-0.6,0.3l-0.8,0.6l-0.8,0.6l-0.6,0.7l-0.6,0.7L36,70l-0.6,0.8l-0.6,0.8
		l-0.5,0.9l-0.5,0.9l-0.3,0.6C33.7,69.8,34.6,65.5,36.2,61.4z"/>
	<path fill="#F48120" d="M112.6,69.7c0.7,4.3,0.6,8.5-0.1,12.7l-0.8-0.9l-2.9-3.1l-2.9-2.8l-1.5-1.4c-0.1,0.1-0.2,0.1-0.3,0.2
		c-0.6,0.3-1.3,0.7-2,1l2.1,1.9l2.9,2.8l2.8,3l1.9,2.3c-1.7,6.7-5.1,13-9.9,18.1c-1.3,1.3-2.7,2.6-4.2,3.8l-1.3-0.5l-2.7-1.3
		l-2.6-1.3l-2.5-1.5l-2.3-1.7l-2.2-1.7l-1.8-1.5L82,97.4l-2-1.9l-1.9-2l-1.8-2.1l-1.7-2.1L74,88.8c-0.4,0.2-0.9,0.4-1.3,0.6
		c-0.3,0.1-0.6,0.3-0.9,0.4l0.9,1.1l1.8,2.1l1.9,2.1l1.1,1.2l0.8,0.8l2,2l2.2,1.9l2.1,1.7l0.2,0.1l2.5,1.7l2.5,1.7l2.8,1.4l2.8,1.2
		c-1.7,1.1-3.4,2.2-5.3,3c-0.3,0.1-0.7,0.3-1,0.4c-1.1,0.5-2.3,1-3.6,1.4c-1.6,0.5-3.4,0.9-5.1,1.2c-2.4,0.5-4.9,0.6-7.2,0.6
		c-0.5,0.1-1,0-1.4,0c-2.2-0.1-4.3-0.4-6.4-0.8l-0.6-0.5l-3.4-3.3l-0.9-0.8l-2.2-2.4l-2.7-3.3L53,101l-1.5-2.6
		c-0.1,0.1-0.3,0.1-0.4,0.2c-0.6,0.3-1.3,0.5-1.9,0.7l1.8,3.1l2.5,3.5l2.8,3.5l3.2,3.3l0.6,0.5c-6.5-2.3-12.3-6.3-16.9-11.6
		c-0.1,0-0.3,0.1-0.4,0.1c-0.7,0.3-1.4,0.5-2.1,0.8c5.9,7.2,14,12.1,22.7,14.3c3.1,0.7,6.3,1.2,9.4,1.1c0.5,0,1,0,1.4,0
		c2.4-0.1,4.8-0.3,7.2-0.7c1.7-0.3,3.5-0.8,5.1-1.3c1.3-0.4,2.4-0.9,3.6-1.4c0.3-0.2,0.7-0.3,1-0.5c4.5-2.1,8.5-4.9,12-8.3
		c9.7-9.7,14.2-23.6,11.9-37.3c-0.1,0-0.1,0.1-0.2,0.1C114,68.9,113.3,69.3,112.6,69.7z"/>
	<path fill="#87898B" d="M145.2,45.1c-1.3-1.5-6.4-1.1-14.5,1c-5.8,1.5-13.2,3.9-21.6,7c0.5,0.7,0.9,1.4,1.3,2.1
		c6.7-2.5,12.4-4.3,16.5-5.3c4-1,6.6-1.1,7.1-0.3c1,1.2-3.2,4.8-10.9,9.6c-2.5,1.6-5.4,3.3-8.6,5.1c-0.2,0.1-0.5,0.3-0.8,0.4
		c-0.7,0.4-1.4,0.8-2.1,1.2c-2.8,1.6-5.8,3.2-9,4.8c-0.2,0.1-0.3,0.2-0.5,0.2c-0.4,0.2-0.9,0.5-1.3,0.7c-0.8,0.4-1.5,0.8-2.3,1.2
		c-5.9,3-12.3,6.1-19,9.3c-2.4,1.1-4.8,2.2-7.1,3.3c-0.7,0.3-1.5,0.7-2.2,1c-1,0.5-2,0.9-3,1.3c-0.1,0-0.2,0.1-0.2,0.1
		c-5.4,2.4-10.6,4.6-15.5,6.6c-0.7,0.3-1.5,0.6-2.2,0.9c-0.9,0.3-1.7,0.7-2.6,1c-0.2,0.1-0.4,0.2-0.6,0.3c-1.2,0.5-2.4,0.9-3.5,1.3
		c-0.8,0.3-1.5,0.6-2.3,0.8c-0.8,0.3-1.7,0.6-2.5,0.9c-5.1,1.8-9.5,3.2-12.9,4.1c-4.4,1.1-7.2,1.4-7.8,0.5c-0.8-0.8,1-2.7,4.6-5.4
		c2.9-2.1,7-4.7,12.1-7.7c0-0.1-0.1-0.2-0.1-0.3c-0.2-0.7-0.5-1.4-0.7-2.2c0,0,0,0-0.1,0c-6.6,3.8-12.3,7.3-16.6,10.4
		C9,104.1,5.3,108,6.7,109.8c1.5,1.9,8.9,0.8,20.1-2.6c4-1.2,8.6-2.8,13.4-4.5c0.1-0.1,0.3-0.1,0.4-0.2c0.7-0.2,1.4-0.5,2.1-0.8
		c0.1-0.1,0.3-0.1,0.4-0.1c0.6-0.2,1.3-0.5,2-0.7c0.9-0.3,1.9-0.7,2.8-1.1c0.2-0.1,0.4-0.2,0.6-0.2c0.2-0.1,0.5-0.2,0.7-0.3
		c0.6-0.2,1.2-0.5,1.9-0.7c0.1-0.1,0.3-0.1,0.4-0.2c0.6-0.2,1.2-0.5,1.8-0.7c5.2-2.1,10.6-4.4,16.3-6.8c0.1,0,0.2-0.1,0.2-0.1
		c0.7-0.3,1.4-0.6,2.1-0.9c0.3-0.1,0.6-0.3,0.9-0.4c0.4-0.2,0.9-0.4,1.3-0.6c0.3-0.1,0.6-0.3,0.9-0.4c2.3-1.1,4.7-2.1,7.1-3.2
		c7-3.3,13.7-6.6,19.9-9.8c0.1,0,0.2-0.1,0.3-0.1c0.7-0.3,1.3-0.7,2-1c0.1-0.1,0.2-0.1,0.3-0.2c0.3-0.2,0.6-0.3,0.9-0.5
		c0.2-0.1,0.3-0.2,0.5-0.2c2.3-1.2,4.6-2.4,6.8-3.6c0,0,0.1,0,0.1,0c0.7-0.4,1.4-0.8,2.1-1.1c0.1,0,0.1-0.1,0.2-0.1
		c0.2-0.1,0.4-0.2,0.6-0.3c3.3-1.9,6.4-3.7,9.3-5.4C138.9,54.2,147.1,47.5,145.2,45.1z"/>
</g>
</svg>
