<?xml version="1.0" encoding="utf-8"?>
<!-- Generator: Adobe Illustrator 18.1.0, SVG Export Plug-In . SVG Version: 6.00 Build 0)  -->
<svg version="1.1" id="Layer_1" xmlns="http://www.w3.org/2000/svg" xmlns:xlink="http://www.w3.org/1999/xlink" x="0px" y="0px"
	 viewBox="0 0 2000 2000" enable-background="new 0 0 2000 2000" xml:space="preserve">
<g>
	<path fill-rule="evenodd" clip-rule="evenodd" fill="#183E6A" d="M1639.1,1230.3l276.1-177.8l-37.5-23.8l-721.6-0.2
		c-0.8,0-2.2,1.2-2.3,2l-22.8,160.9c-2.3,16.5-10.9,20-17.8,20c0,0,0,0-0.1,0c-6.9-0.1-15.6-3.6-17.7-20.3l-59.6-454.5l-63.1,316.4
		c-3.3,16.7-13.9,19-18.3,19.2c-4.2,0.3-15.1-1.1-19.9-17.4l-48.6-166.5l-38,122.3c-4.6,14.9-19.9,26.2-35.5,26.2l-659.3-1l0.2,0.2
		l-2.9,351.1c-23.5,15.7-57.4,53.3-64.2,141c0,0,21.5,21.9,85.3,22.5h0.1c0.1,0,0.2-0.2,0.2,0.1c63.7,0.3,85.5-21.2,85.5-21.2
		c-5.7-100-48.7-135.8-71-147.9l2.8-322.9l274.5,174.6l-1,128.9c0,0-53.5,77.1,241.9,90.4c365.4,16.5,970.1,41.6,933.5-80.2
		L1639.1,1230.3z"/>
	<g>
		<path fill-rule="evenodd" clip-rule="evenodd" fill="#BED637" d="M1454.2,760.1h7v-61.5h-61.5v27l-78.9-50h32.8v-79.4h-79.4v49.8
			l-224.6-142.4l-870.6,500.6l633.2,1c1.7,0,4.9-2.2,5.4-3.9L866.5,844c4.8-15.6,15.3-17.3,19.7-17.3c0,0,0.1,0,0.2,0
			c4.3,0.1,14.9,1.8,19.6,17.6l45.3,154.9l69.2-347.1c3.4-17,13.1-19.1,18.8-19.1c5.5,0.2,15.2,3.1,17.5,20.3l57,434.5l8.7-61.7
			c2.3-16.4,17.1-29.2,33.6-29.2l671.8,0.2L1454.2,760.1z"/>
		<rect x="1404.9" y="573.2" fill-rule="evenodd" clip-rule="evenodd" fill="#BED637" width="53.9" height="53.8"/>
	</g>
	<rect x="1481.7" y="488.7" fill-rule="evenodd" clip-rule="evenodd" fill="#BED637" width="46.1" height="46.1"/>
</g>
</svg>
