<?xml version="1.0" encoding="utf-8"?>
<!-- Generator: Adobe Illustrator 18.1.0, SVG Export Plug-In . SVG Version: 6.00 Build 0)  -->
<svg version="1.1" id="Layer_1" xmlns="http://www.w3.org/2000/svg" xmlns:xlink="http://www.w3.org/1999/xlink" x="0px" y="0px"
	 viewBox="0 0 150 150" enable-background="new 0 0 150 150" xml:space="preserve">
<g>
	<g>
		<path fill="#00B5C2" d="M30.3,85.1c36.8,0,83.6,29.5,91,44c0.6,1.2,0.9,2.2,1,3.1l1.6-1.6c4.6-5.5,4.8-5.7,7.1-9.2
			c3.3-5.7,4.1-7.1,6.7-14l0.3-1.1c-0.8-16-54.4-43.1-94.3-43.1c-14.8,0-25.8,3.7-32.8,10.9c-5.2,5.3-7.6,12.6-7.1,21.1
			c0.5,8.6,4,17.3,9.8,25.1c-5.6-8.7-7.7-17.4-5.3-24C10,91.4,15,85.5,28.4,85.1C29,85.1,29.7,85.1,30.3,85.1z"/>
	</g>
	<g>
		<path fill="#00B5C2" d="M68.4,14.5c8.4,0,16.8,1.4,24.9,4.1c15.6,5.2,29,15,37.9,27.5c-7.5-14.8-20.6-26.3-36.5-31.6
			c-6.5-2.2-13.2-3.3-20-3.3c-9.9,0-19.5,2.3-28.3,6.7C53.4,15.6,60.8,14.5,68.4,14.5z"/>
	</g>
	<g>
		<g>
			<path fill="#69BF7B" d="M68.2,133.8l25.1-0.1l-12.6-21.2l-2.1,3.7l-0.7-0.3c-16.1-6.4-31.9-9.4-44.5-8.6c-0.6,0-1.2,0.1-1.8,0.1
				c-9.2,0.9-15,4.2-16.5,9.4c-1.2,4.2,0.6,9.4,4.7,14.5c-1-2.5-1-4.6,0-6.4c1.5-2.6,5.1-4.1,10.3-4.5c8.7-0.6,21,2.1,33.7,7.2
				c1.7,0.7,3.5,1.5,5.4,2.4l0.8,0.4L68.2,133.8z"/>
		</g>
	</g>
	<g>
		<g>
			<path fill="#69BF7B" d="M39.8,39c40,0,91.6,29,101.3,46.9l0-0.7c-0.1-4.2-0.2-4.6-1.2-11.4c-0.2-1.1-0.5-2.5-0.8-3.7l-0.3-1.4
				c-1.2-3.4-3.9-6.4-6-8.3c-20.6-19.2-53.5-32.1-81.9-32.1c-9.2,0-17.5,1.3-24.7,4l-0.6,0.2l-3.4-6.3L11.1,44.7l21.6,0.7l-3.1-5.7
				l1.1-0.1C33.6,39.2,36.7,39,39.8,39z"/>
		</g>
	</g>
</g>
</svg>
