<?xml version="1.0" encoding="utf-8"?>
<!-- Generator: Adobe Illustrator 18.1.0, SVG Export Plug-In . SVG Version: 6.00 Build 0)  -->
<svg version="1.1" id="Layer_1" xmlns="http://www.w3.org/2000/svg" xmlns:xlink="http://www.w3.org/1999/xlink" x="0px" y="0px"
	 viewBox="0 0 150 150" enable-background="new 0 0 150 150" xml:space="preserve">
<g>
	<path fill="none" d="M106.8,53.6c-2.5,3.1-11.5,6.6-19.5,4.3c8.4,2.9,18,0.2,21-2.9c-13.5-18-29.4-9.5-31.8-7.7
		c1.2-0.2,2.6-0.2,4-0.1C85.8,44.4,96.2,42,106.8,53.6z"/>
	<path fill="none" d="M69.3,48.7c-0.1,0-0.1-0.1-0.2-0.1c0,0,0,0.1,0,0.1C69.1,48.7,69.2,48.7,69.3,48.7z"/>
	<path fill="none" d="M76.5,48c0.2,0.4,0.4,0.9,0.7,1.3c0.3-0.3,1-0.9,2-1.5C77.9,47.8,77,47.9,76.5,48z"/>
	<path fill="none" d="M40.1,55.6c-0.3-0.2,8.1-15.5,26.3-8.6c-5.7-2.5-17.9-5-28.6,9.3c4.5,4.6,24.2,8.6,31.6-6.8
		c-0.2,0-0.4-0.1-0.6-0.1C65.6,55.4,51.9,65.1,40.1,55.6z"/>
	<path fill="none" d="M79.6,13c7.2,15.3,0.4,24.6-4.4,28.8c-0.5,1.4-1.1,2.7-1.8,3.9c2.8-1.6,17.8-13.9,5.5-34.8
		c-4.3,1.7-11.1,10.1-11.6,19.7C68.3,21.7,75.4,14.2,79.6,13z"/>
	<path fill="none" d="M70.7,48.5L70.7,48.5C70.8,48.5,70.8,48.5,70.7,48.5L70.7,48.5z"/>
	<path fill="none" d="M73.9,42.8c-1,0.8-1.9,1.2-2.3,1.4c0.3,0.4,0.6,0.8,1,1.2C72.9,44.9,73.4,44.1,73.9,42.8z"/>
	<path fill="#ABC337" d="M40.1,55.6c11.8,9.5,25.6-0.3,28.7-6.3c-2.6-0.4-9.5-0.1-26.3,6.6c0,0,16.4-8.6,26.6-7.3c0,0,0-0.1,0-0.1
		c-0.5-0.4-1.5-0.9-2.8-1.5C48.2,40.1,39.8,55.4,40.1,55.6z"/>
	<path fill="#ABC337" d="M77.2,15.8c0,0,1.4,15.7-2.1,26C80,37.7,86.8,28.3,79.6,13c-4.2,1.2-11.3,8.7-12.3,17.6
		c-0.3,4.5,0.9,9.2,4.3,13.6c0.4-0.2,1.3-0.6,2.3-1.4C75.3,39.2,77,31.6,77.2,15.8z"/>
	<path fill="#ABC337" d="M77.1,49.3c2.5,4.5,6.2,7.2,10.1,8.5c8,2.3,17-1.1,19.5-4.3c-10.5-11.6-21-9.1-26.3-6.5
		c10.1,0.7,23,7.5,23,7.5c-13.6-5.4-20.7-6.7-24.4-6.7C78.1,48.5,77.4,49,77.1,49.3z"/>
	<path fill="#06643A" d="M73.9,48.6l1.6-0.2l0,0.1c3.8,7.9,10.4,10.5,15.2,11.3c7.6,1.2,15.4-1.2,18.2-4.2l0.6-0.6l-0.5-0.7
		c-5.1-6.8-11-10.6-17.7-11.5c-7.6-1-13.8,2.3-15.5,3.6l-2.1,1.6c-0.1-0.4-0.4-0.7-0.7-0.9l0.9-0.5c2.1-1.2,7.9-5.9,10-14
		c1.9-7,0.5-14.5-4.1-22.3l-0.5-0.8l-0.9,0.3c-4.1,1.6-9.8,8.4-11.7,16.4c-1.2,5.1-1.4,12.8,4.9,19.8l0.1,0.1l-0.6,1
		c-0.2,0.2-0.3,0.4-0.4,0.6l-0.3,0.5l-0.6-0.5c-1.7-1.3-7.9-4.6-15.4-3.6C47.9,45.1,42,49,36.9,55.7l-0.5,0.7L37,57
		c2.9,3,10.6,5.4,18.1,4.2c4.8-0.8,11.4-3.4,15.1-11.2l0-0.1l0.7,0.1c0.9,6.5,2.1,13.3,0.6,19.4c1-0.1,2.1-0.2,3.1-0.2
		C76,62.6,74.8,55.6,73.9,48.6z M80.5,47.1c-1.4-0.1-2.7-0.1-4,0.1c2.3-1.8,18.2-10.3,31.8,7.7c-3,3.1-12.7,5.9-21,2.9
		c-3.9-1.4-7.6-4-10.1-8.5c-0.2-0.4-0.5-0.8-0.7-1.3c0.5-0.1,1.4-0.2,2.7-0.2c3.6,0.1,10.8,1.3,24.4,6.7
		C103.5,54.6,90.6,47.8,80.5,47.1z M37.7,56.3C48.5,42,60.7,44.5,66.4,47c1.3,0.6,2.2,1.1,2.8,1.5c0.1,0,0.1,0.1,0.2,0.1
		c-0.1,0-0.2,0-0.2,0C58.9,47.3,42.5,56,42.5,56c16.8-6.7,23.6-7,26.3-6.6c0.2,0,0.4,0.1,0.6,0.1C61.9,64.9,42.2,61,37.7,56.3z
		 M71.6,44.2c-3.4-4.4-4.6-9.1-4.3-13.6c0.5-9.5,7.3-18,11.6-19.7c12.3,20.9-2.7,33.2-5.5,34.8c0.7-1.2,1.3-2.5,1.8-3.9
		c3.5-10.3,2.1-26,2.1-26c-0.2,15.7-1.9,23.3-3.4,27c-0.5,1.3-1,2.1-1.3,2.6C72.2,45,71.9,44.6,71.6,44.2z M70.7,48.5L70.7,48.5
		C70.8,48.5,70.8,48.5,70.7,48.5L70.7,48.5z"/>
	<path fill="#2DB7AC" d="M116.3,91.4l3.8-3.9c-0.5-0.5-0.9-1-1.4-1.4c-12.1-12-28.1-17.6-43.9-16.9c-1,0-2.1,0.1-3.1,0.2
		c-13.4,1.3-26.5,7-36.7,17.4c-2.5,2.6-4.8,5.3-6.8,8.2l17.7,17.4c2.2-3.8,4.9-7.3,8.1-10.6C70.7,84.8,96,81.3,116.3,91.4z"/>
	<path fill="#309191" d="M55.1,107.1c-3.2,3.2-5.9,6.8-8.1,10.6l25.3,24.9l45.1-45.8C97.1,86.6,71.8,90.1,55.1,107.1z"/>
</g>
</svg>
