<?xml version="1.0" encoding="utf-8"?>
<!-- Generator: Adobe Illustrator 18.1.0, SVG Export Plug-In . SVG Version: 6.00 Build 0)  -->
<svg version="1.1" id="Layer_1" xmlns="http://www.w3.org/2000/svg" xmlns:xlink="http://www.w3.org/1999/xlink" x="0px" y="0px"
	 viewBox="0 0 150 150" enable-background="new 0 0 150 150" xml:space="preserve">
<g>
	<path fill="#00A75C" d="M19.1,89.2c0-1.4-2.2-1.4-2.2,0c0,1.6,0,3.1,0.1,4.7c0.6,3.5,1.5,6.8,2.7,10C19.5,98.9,19.2,94,19.1,89.2z"
		/>
	<path fill="#00A75C" d="M22.8,85c-0.1-1.4-2.3-1.4-2.2,0c0.5,8,0.9,16,1.3,23.9c0.9,1.9,2,3.7,3.1,5.5
		C24.4,104.6,23.6,94.7,22.8,85z"/>
	<path fill="#A4CD39" d="M28.1,82.6c-0.3-1.4-2.6-1.1-2.5,0.3c1.5,11.9,2,23.7,2.2,35.5c1,1.3,2.1,2.6,3.2,3.8
		C31.1,108.9,30.5,95.6,28.1,82.6z"/>
	<path fill="#00A75C" d="M34.9,80.3c-0.1-1.6-2.4-1.6-2.4,0c-0.5,14.3,0.6,28.6,0.4,42.9c0,0.4,0,0.7,0,1.1c0.7,0.7,1.3,1.3,2,1.9
		C35,110.8,35.4,95.5,34.9,80.3z"/>
	<path fill="#00A75C" d="M39,80.3c0-1.4-2.2-1.4-2.2,0c0,16.1,0.6,32.3,1.2,48.4c1,0.8,2,1.5,3,2.2C40.4,114,39.2,97.1,39,80.3z"/>
	<path fill="#8BA43C" d="M42.7,80.8c-0.2-1.5-2.5-1.5-2.3,0c1.8,17.1,2.4,34.3,2.6,51.4c1,0.6,2,1.2,3,1.7
		C45.7,116.2,44.7,98.4,42.7,80.8z"/>
	<path fill="#016535" d="M51,136.4c0.4-17.7-0.8-35.2-1.3-52.9c0-1.7-2.6-1.7-2.6,0c0.1,17.3,1.2,34.4,1.2,51.7
		C49.2,135.6,50.1,136,51,136.4z"/>
	<path fill="#00A75C" d="M56.8,86.8c-0.2-1.3-2.6-1-2.4,0.3c2.2,16.8,0.8,33.6-0.3,50.4c1.1,0.4,2.3,0.8,3.4,1.1
		C58.5,121.3,59.3,104,56.8,86.8z"/>
	<path fill="#8BA43C" d="M62,138.6c-0.2-16.5,1.5-32.9,0.6-49.4c-0.1-1.5-2.4-1.5-2.4,0c1,16.5-0.4,32.9-0.6,49.4c0,0.2,0,0.4,0,0.6
		c0.8,0.2,1.6,0.4,2.4,0.5C62,139.3,62,138.9,62,138.6z"/>
	<path fill="#016535" d="M64.9,100.2c-0.3,13.2-1.2,26.5-1.7,39.7c1,0.2,1.9,0.3,2.9,0.4c0.5-13.4,1.3-26.8,1.3-40.1
		C67.4,98.6,64.9,98.6,64.9,100.2z"/>
	<path fill="#00A75C" d="M72.9,140.7c0.3,0,0.7,0,1,0c-0.4-13.5-1.5-26.9-3.8-39.7c-0.2-1-1.9-0.8-1.8,0.2c1.2,13,1.2,26.2,1.2,39.4
		C70.6,140.7,71.8,140.7,72.9,140.7z"/>
	<path fill="#00A75C" d="M75.7,92.9c0,15.9-0.5,31.9-0.6,47.8c0.9,0,1.9-0.1,2.8-0.2c-0.3-15.9-0.5-31.8-0.4-47.7
		C77.5,91.7,75.7,91.7,75.7,92.9z"/>
	<path fill="#00A75C" d="M86.2,88.2c0-1.6-2.5-1.6-2.5,0c-0.1,17.2,0.4,34.3,0.8,51.4c1-0.2,2-0.4,3-0.7C87,121.9,86,105,86.2,88.2z
		"/>
	<path fill="#8BA43C" d="M90.3,86.8c-0.3-1.6-2.7-0.9-2.4,0.7c2.6,16.9,1.4,34,0.7,51.1c1.3-0.4,2.6-0.8,3.8-1.2
		C93.2,120.3,93.6,103.4,90.3,86.8z"/>
	<path fill="#8BA43C" d="M96.4,84.5c0,17.2-0.7,34.5-1.1,51.7c0.9-0.4,1.8-0.8,2.7-1.3c0.4-16.8,0.6-33.6,0.7-50.4
		C98.6,83,96.4,83,96.4,84.5z"/>
	<path fill="#00A75C" d="M103.3,83.4c0-1.4-2.1-1.4-2.2,0c-0.4,16.8-0.2,33.6-1,50.4c0.6-0.4,1.3-0.7,1.9-1.1
		C102.6,116.3,103.7,99.8,103.3,83.4z"/>
	<path fill="#A4CD39" d="M106.6,82.9c-0.2-1.6-2.7-1.6-2.6,0c1.6,15.9,0.4,32.2,0.3,48.4c1.3-0.9,2.6-1.9,3.9-2.9
		C108.3,113.2,108.4,98,106.6,82.9z"/>
	<path fill="#8BA43C" d="M112.3,83.6c-0.4-1.6-2.8-0.9-2.5,0.7c2.5,13.5,2.7,27.1,2.3,40.6c1.1-1,2.1-2.1,3.1-3.2
		C115.6,108.9,115,96.1,112.3,83.6z"/>
	<path fill="#00A75C" d="M116.7,83.7c-0.2-1-2-0.8-1.9,0.3c1,12.3,1.2,24.6,1.3,36.8c1.5-1.8,2.9-3.6,4.2-5.5
		C120,104.5,119,93.9,116.7,83.7z"/>
	<path fill="#A4CD39" d="M122.6,86.1c-0.1-1.3-2-1.3-2,0c-0.3,9.1,0.5,18.2,1,27.3c0.7-1.1,1.3-2.3,1.9-3.4
		C123.2,102,123,94,122.6,86.1z"/>
	<path fill="#00A75C" d="M127.9,88.7c-0.1-1.4-2.3-1.4-2.2,0c0.3,4.8,0.6,9.5,0.8,14.3c0.8-2.4,1.5-4.8,2.1-7.4
		C128.3,93.3,128.1,91,127.9,88.7z"/>
	<path fill="#39C0C9" d="M70,27.3c13.1-0.8,25.5,2.6,35.8,9.1c6.2,0,13.2,0.8,20.7,2.1c-12.5-16.8-33-27.1-55.4-25.6
		C35.8,15.2,9,45.7,11.3,81c0.4,6.2,1.7,12.1,3.7,17.6c-0.5-2.5-0.8-5-1-7.6C11.8,58,36.9,29.4,70,27.3z"/>
	<path fill="#39C0C9" d="M117.5,46c9.3,9.8,15.3,22.8,16.3,37.4c0.7,10.9-1.5,21.2-6,30.3c8.1-11.5,12.4-25.7,11.5-40.9
		c-0.8-12.6-5.2-24.1-12.2-33.6C123,40.1,119.9,42.7,117.5,46z"/>
	<path fill="#362B14" d="M105.9,36.4c-23.8-0.1-37.2,10.4-31,38.5c-1.3,2.4-2.6,14.2-0.4,14.4c-0.2-0.3,0.2-5.5,1.1-9
		c1.2-4.2,3.1-8,3.6-9c1.8-3.5,4-6.8,6.4-9.9c3.6-4.4,7.9-8.3,12.7-11.7c0,0-0.4,0.4-1.1,1.2c-0.4,0.4-0.8,0.8-1.3,1.3
		c-0.5,0.5-1.1,1.1-1.7,1.7c-0.6,0.6-1.3,1.3-2,2c-0.7,0.7-1.4,1.5-2.1,2.3c-0.4,0.4-0.8,0.8-1.1,1.2c-0.4,0.4-0.7,0.9-1.1,1.3
		c-0.4,0.4-0.7,0.9-1.1,1.3c-0.4,0.4-0.7,0.9-1.1,1.4c-0.4,0.5-0.7,0.9-1.1,1.3c-0.3,0.5-0.7,0.9-1,1.4c-0.7,0.9-1.3,1.8-1.9,2.7
		c-0.3,0.4-0.5,0.9-0.8,1.4c-0.3,0.4-0.6,0.9-0.8,1.3c-0.2,0.4-0.5,0.9-0.7,1.3c-0.2,0.4-0.4,0.8-0.6,1.2c-0.2,0.4-0.4,0.8-0.5,1.1
		c-0.2,0.4-0.3,0.7-0.5,1c-0.2,0.5-0.4,1-0.5,1.4c15.5,0.8,29.6,5.4,34.6-18.8c0.8-3.9,2.5-8.9,5.5-12.9c2.4-3.3,5.5-5.9,9.6-6.8
		c0.5-0.1,1-0.2,1.5-0.3c-0.7-0.1-1.3-0.2-1.9-0.4C119.1,37.2,112.1,36.5,105.9,36.4z"/>
	<path fill="#362B14" d="M63.8,73.3C62,65.2,54.4,59.9,47.6,58c-7.1-2.1-15.6,2.8-16.5,4.6c-1.2,1.1-2.4,4.9-2.2,5.4
		c0-0.1,0.1-0.2,0.1-0.2c1-0.3,1.9-0.1,3.2,0.1c1.2,0.3,2.5,0.7,4.7,2.4c4.1,3.1,6.8,7.7,10.8,10.7c4.4,3.3,7.9,3.1,11.9,2.1
		c1.5-0.4,3.4-1.9,3.8-2.3c0,0-0.2-0.5-0.7-1.2c-0.5-0.8-1.2-1.9-2.1-3.1c-0.5-0.6-1-1.3-1.6-1.9c-0.6-0.7-1.2-1.3-1.9-2
		c-0.7-0.7-1.4-1.3-2.2-1.9c-0.8-0.6-1.6-1.2-2.5-1.8c-0.9-0.5-1.8-1-2.7-1.4c-0.5-0.2-0.9-0.4-1.4-0.6c-0.2-0.1-0.5-0.2-0.7-0.3
		c-0.2-0.1-0.5-0.2-0.7-0.2c-0.2-0.1-0.5-0.2-0.7-0.2c-0.2-0.1-0.5-0.1-0.7-0.2c-0.4-0.1-0.9-0.2-1.3-0.3c-0.9-0.2-1.7-0.3-2.5-0.4
		c-0.4,0-0.8-0.1-1.1-0.1c-0.4,0-0.7-0.1-1-0.1c-0.6,0-1.2-0.1-1.6-0.1c-0.9,0-1.4,0-1.4,0s0.5-0.1,1.3-0.2c9-1.1,14.2,3.1,14.2,3.1
		c2.6,1.6,5.1,3.7,7.1,5.9c1.4,1.5,2.4,3.2,3.5,5.1c0.3,0.5,3.1,4.6,3,9.3c1.2-4.5-0.2-7.4-1.2-9.2C64.7,77.1,64.2,74.7,63.8,73.3z"
		/>
</g>
</svg>
