<?xml version="1.0" encoding="utf-8"?>
<!-- Generator: Adobe Illustrator 18.1.0, SVG Export Plug-In . SVG Version: 6.00 Build 0)  -->
<svg version="1.1" id="Layer_1" xmlns="http://www.w3.org/2000/svg" xmlns:xlink="http://www.w3.org/1999/xlink" x="0px" y="0px"
	 viewBox="0 0 2000 2000" enable-background="new 0 0 2000 2000" xml:space="preserve">
<g>
	<path fill="#102930" d="M864.7,1455.8c7.6-0.4,13.7-4,13.7-10.8c0-6.8-6.2-9.8-13.7-9.4l-318.6-1.7l-5.4,58.3L864.7,1455.8z"/>
	<path fill="#102930" d="M414,826.1c-17.8-13.3-33.7-26.7-49-42.9L354,771c-3.7-4.1-6.6-8.8-9.9-13.2c-3.2-4.5-6.6-8.8-9.5-13.5
		l-8.1-14.4c-10.9-19.2-18.3-40.1-24.2-61.4c-2.5-10.7-4.4-21.6-6.3-32.5c-0.8-11-2.5-22.5-2.4-33.2l0.2-16.1
		c0.1-2.9-0.1-4.9,0.2-8.5l1-8.3l2-16.6c1-5.5,2.4-10.8,3.6-16.2c4.7-21.7,12.8-42.4,21.8-62.5c4.6-10,10.2-19.5,15.4-29.3
		c6.1-9.2,11.7-18.7,18.5-27.7c7.1-8.5,13.8-18.6,21.5-25.7l11.2-11.6c4.6-4.6,8.7-7.3,13.1-11.1c8.8-6.8,17-14.5,26.3-20.5
		l28.6-17.3c9.6-5.7,20.2-9.3,30.2-14c5.1-2.1,10.1-4.6,15.3-6.5l15.9-4.8c10.7-2.8,21.1-7.2,32.1-8.7l32.7-5.9
		c22-1.7,44.2-4.5,66.3-2.7c19.3-0.1,38.3,3.2,57.4,6.2c7.3-9.6,14.8-19,23.1-27.9c10.1-10.9,20.8-21.4,32.5-30.8
		c5.6-4.9,11.5-9.5,17.7-13.7c6-4.5,12.2-8.7,18.6-12.5c6.3-4,12.7-7.9,19.4-11.2c6.6-3.6,13.2-7,20.1-9.9
		c6.8-3.2,13.7-6.1,20.7-8.6c7-2.8,14-5.2,21.2-7.3c14.2-4.6,28.7-8.1,43.3-10.9c14.6-2.9,29.3-4.8,44-6.2c7.3-0.8,14.9-1,22.4-1.6
		l21.9-0.6c29.5,0,59.1,2.3,88.4,7.7c14.6,2.7,29.2,6.1,43.4,10.5c7.2,2,14.3,4.4,21.3,7.1c7.1,2.4,14,5.3,20.8,8.5
		c6.9,2.9,13.6,6.3,20.3,9.8c6.7,3.3,13.2,7.1,19.6,11.1c6.5,3.8,12.7,8,18.8,12.4c6.3,4.3,12.2,8.8,18,13.7
		c11.8,9.4,22.6,19.9,32.9,30.8c8,8.4,15.3,17.4,22.4,26.5c18.6-3.1,37.3-6.2,56.2-6.2c22.3-1.9,44.7,0.8,66.9,2.4l33,5.8
		c11.1,1.5,21.6,5.9,32.4,8.7l16.1,4.8c5.2,1.9,10.3,4.3,15.5,6.5c10.2,4.8,20.8,8.3,30.7,14.1L1598,346
		c9.6,6.1,17.1,13.2,25.8,19.7l6.3,5l3.1,2.5l2.4,2l1.5,1.5L1649,389c8.3,7.8,14.6,17.3,21.9,25.9c6.8,9,12.6,18.6,18.9,27.9
		c5.2,9.9,11.1,19.5,15.8,29.7c9.3,20.5,17.5,40.9,22.6,63.8c1.3,5.6,2.8,11.4,3.8,16.9l2,16l1,8c0.4,4.3,0.2,6.1,0.4,9.2l0.3,16.9
		c0.2,11.3-1.5,22.5-2.2,33.7c-1.8,11.1-3.7,22.3-6.3,33.2c-5.9,21.8-13.3,43.3-24.2,63.1l-8.1,14.9c-3,4.9-6.6,9.6-9.9,14.3
		c-3.4,4.6-6.6,9.8-10.2,13.9l-10.7,12c-15.6,17-31.9,31.1-49.7,44.7c-17.3,13.1-35.9,24.4-55.3,34.4c48.5-19,91.9-48.1,130-86.5
		c56.6-56.9,82.6-137.1,76.8-216.5c-5.2-71.8-46-153.1-100.3-202.5c-86.2-78.7-215.6-107-329.2-82.2
		c-85.1-117.2-207.5-148.6-313-148.6h-0.1c-0.1,0-0.1,0-0.1,0c-105.5,0-227.9,31.5-312.9,148.6c-113.6-24.8-243,2.6-329.2,81.3
		c-54.3,49.4-95,131.2-100.2,203c-5.7,79.5,20.2,159.9,76.8,216.8c20.3,20.4,42.3,38.1,65.5,53.2c0.5-0.3,1.1-0.5,1.7-0.7
		C421.2,830.7,417.5,828.6,414,826.1z"/>
	<path fill="#102930" d="M1459.2,1058.3l19.5,167.7c5.3,45.6,10.6,91.3,15.9,137c6.7-1,13.5-2.1,20.2-3.2
		c-18.2-152.2-37.6-310.2-47.7-400.9c-0.9-1.8-1.6-3.5-2.5-5.3c0.6,0.2,1.3,0.4,2,0.6c-2.6-23.3-4.5-41.9-5.6-54.3l-18.5,2.6
		C1447.3,954.1,1453.4,1006.3,1459.2,1058.3z"/>
	<path fill="#102930" d="M528.2,1648.5l-2.9,42c-0.6,13.4-3.8,29.7,1.5,39c5.8,9.8,18.3,15.9,31.4,19.1c13,3.7,26.8,5.8,40.6,7.6
		c27.6,3.3,55.6,5,83.7,6c112.2,4,224.9,2.9,337.4,2.6c112.5-0.8,225.2-0.5,337.2-5.9c27.9-1.6,55.9-3.3,83.3-7.2
		c6.9-0.8,13.7-1.9,20.3-3.4c6.8-1.1,13.3-2.7,19.5-4.8c12.3-3.8,25-9.2,28.7-17.7c0.7-2.3,2.2-4.1,2-7c0.4-2.8,0.6-4.7,0.1-8.7
		l-1.5-21.1c-1.1-14-1.9-28.1-3.6-42l-9-83.4c-0.6-4.8-1.2-9.6-1.7-14.4c-179.1,34.5-378.3,38.3-506.1,36
		c-41.7,31.9-98.2,46.9-193.4,52l-255.2-3.5l0-7.2l324.2-37.2c7.6-0.4,13.7-4,13.7-10.8c0-6.8-4.3-9.8-11.9-9.4l-322.5-1.7v-8.5
		l322.5-36.5c7.5-0.4,12.8-4,12.8-10.8c0-6.8-6.6-9.8-14.1-9.4l-324.5-2.4l-0.1-4.5l-6.4,69.1L528.2,1648.5z"/>
	<path fill="#102930" d="M1517,1561.6l8.5,84.5c1.6,14.1,2.3,28.1,3.3,42.2l1.4,21.1c0.5,3.1,0.3,8.1-0.4,12.3
		c-0.1,4.4-2.3,8.8-4,13.1c-1.9,4.2-5.4,7.4-8.3,10.9c-3.3,2.7-6.8,5-10.3,7.4c-7.1,3.4-14.4,6.9-21.5,8.6
		c-7.2,2.3-14.3,3.9-21.5,5.1c-7.1,1.5-14.3,2.6-21.4,3.4c-28.4,3.9-56.7,5.3-85,6.8c-112.9,4.6-225.5,3.6-338.1,3.5
		c-112.6-0.7-225.2-0.7-338-5.8c-28.2-1.3-56.4-3.3-84.6-6.9c-14.1-1.9-28.2-4.2-42.2-8.3l-10.5-3.4l-10.3-5
		c-3.4-1.5-6.4-4.6-9.6-6.9c-3.1-2.5-5.1-6.5-7.6-9.7c-7.4-16.9-2.5-29.9-2.3-44.2l3.3-42.2l6.7-84.4l34-336
		c9-85.6,17.7-171.3,26.2-257c-2,0.5-4,1-5.9,1.5c-8.7,91.3-23.7,239.1-37.8,382.3c1,0.2,2,0.5,3.1,0.7c-2.1,5.5-3.6,11.1-4.8,16.8
		c-17.5,177.8-33.1,341.6-33.1,378c0,53.5,67.8,57.9,516.6,57.9h0.2h0.2c448.8,0,533.1-4.4,533.1-57.9c0-24.4-8.6-106.3-20.7-212.1
		c-8.2,2.3-15.2,4.8-20.7,6.2C1515.7,1549.8,1516.4,1556,1517,1561.6z"/>
	<path fill="#102930" d="M546.9,1425.2l248.7-30.2c45-2.4,81.2-1.6,111.4,2.7c127.5,1,360.4-2.1,566-31.6
		c-5.6-45.8-11.2-91.7-16.9-137.5l-20.7-167.6c-6.7-56-13.7-111.6-19.1-168.4l-1.1-11.5l12.3-1.8l30.8-4.5l30.1-7.3
		c9.8-3.4,19.6-6.4,29.3-10c9.4-4.3,19-8,28.2-12.8c18.3-9.5,35.9-20.4,52.2-33.1c16.2-12.5,32.3-26.8,45.5-41.5l10.6-12.1
		c3.5-4,5.7-8.1,8.6-12.2c2.8-4.1,5.7-8,8.3-12.2l7.2-13.4c9.7-17.8,16.1-37.2,21.3-56.8c2.2-9.9,3.8-20,5.4-30
		c0.5-10.2,2-20.3,1.7-30.4l-0.4-15.3l-0.2-6.9l-1.1-8l-2.2-15.9c-1-5-2.4-9.6-3.5-14.4c-4.4-19-12.3-38.7-20.9-57
		c-4.4-9.2-9.8-18-14.7-27c-5.8-8.4-11.2-17.1-17.4-25.2c-6.7-7.6-12.3-16.3-19.8-23l-10.7-10.7l-1.2-1.2l-0.1,0l-0.8-0.6l-3.2-2.5
		l-6.3-5c-8.4-6.3-16.8-13.9-25.4-19.2l-25.7-15c-8.6-5-18.6-8.3-27.8-12.5c-4.7-1.9-9.4-4.2-14.2-5.9l-14.7-4.3
		c-9.9-2.5-19.5-6.6-29.7-7.8l-30.3-5.2c-20.5-1.3-41-3.9-61.5-1.9c-20.6,0-40.7,4.4-61,7.4l-10.6,1.6l-6.1-8
		c-8.4-10.8-16.7-21.7-26.1-31.5c-9.3-9.9-19-19.5-29.7-28c-5.1-4.5-10.5-8.6-16.1-12.4c-5.5-4.1-11.1-7.9-17-11.3
		c-5.7-3.6-11.6-7.1-17.7-10.1c-6-3.3-12-6.3-18.3-9c-6.2-2.8-12.5-5.5-18.9-7.8c-6.3-2.5-12.8-4.7-19.4-6.6
		c-13-4.2-26.5-7.3-40-9.8c-27-5.1-54.7-7.4-82.5-7.5l-21.1,0.4c-6.9,0.4-13.6,0.5-20.5,1.2c-13.8,1.2-27.5,2.8-41.1,5.3
		c-13.6,2.4-27,5.4-40.1,9.5c-6.6,1.8-13.1,4-19.5,6.5c-6.5,2.2-12.8,4.8-19.1,7.6c-6.3,2.6-12.5,5.6-18.5,8.9
		c-6.2,3-12,6.4-17.9,10c-5.9,3.4-11.6,7.2-17.1,11.2c-5.7,3.8-11.2,7.9-16.4,12.4c-10.8,8.4-20.7,18-30.1,27.9
		c-9.6,9.9-18,20.7-26.5,31.6l-5.2,6.7l-8.7-1.4c-20.4-3.2-40.7-7.6-61.5-7.7c-20.7-2.1-41.4,0.4-62,1.6l-30.7,5.1
		c-10.4,1.3-20,5.3-30,7.8l-14.9,4.3c-4.9,1.8-9.6,4-14.3,5.9c-9.4,4.3-19.4,7.5-28.3,12.6l-26.9,15.4c-8.8,5.4-16.5,12.4-24.8,18.5
		c-3.9,3.1-8.7,6.4-11.8,9.3l-11.4,11.3c-8.2,7.4-13.4,15.5-20.2,23.2c-6.3,8-11.9,16.9-17.8,25.4c-5,9.1-10.5,18-15,27.3
		c-8.9,18.8-17,38.1-21.8,58.3c-1.2,5-2.7,10-3.7,15.1l-2.2,15.3l-1.1,7.7c-0.3,1.7-0.2,5.1-0.4,7.6l-0.5,16.1
		c-0.3,10.7,1.1,20.6,1.6,30.9c1.5,10.2,3.2,20.6,5.3,30.8c5.2,20.1,11.6,40.1,21.3,58.6l7.2,13.9c2.6,4.5,5.7,8.7,8.6,13.1
		c3,4.3,5.6,8.9,9,12.9l10.2,11.9c13.5,15.5,30.1,30.5,46.2,43.3c4.6,3.7,9.6,6.9,14.4,10.3c14.1-6.3,22.7-9.7,22.7-9.7
		c168.5-62.3,362.7-97.3,487.3-115c41.6-68.5,110.9-133.2,230.9-152.5c162.4-26.1,308.9,48.7,322.9,130.2v0
		c13,81.6-103.6,198.6-265.9,224.6c-67.6,10.8-124.4,2.8-171.9-15.5c-53.9,4.7-262.9,25.5-471.1,78.6c-7.7,86.2-15.7,172.4-24,258.6
		L546.9,1425.2z"/>
	<path fill="#6FCCDD" d="M524.8,1563.7l-6.7,84.4l-3.3,42.2c-0.3,14.3-5.2,27.3,2.3,44.2c2.5,3.3,4.5,7.2,7.6,9.7
		c3.2,2.3,6.1,5.4,9.6,6.9l10.3,5l10.5,3.4c14,4.2,28.2,6.4,42.2,8.3c28.2,3.6,56.4,5.6,84.6,6.9c112.8,5.1,225.4,5,338,5.8
		c112.6,0,225.2,1,338.1-3.5c28.3-1.5,56.5-2.9,85-6.8c7.1-0.8,14.2-1.9,21.4-3.4c7.1-1.1,14.3-2.8,21.5-5.1
		c7.1-1.7,14.4-5.2,21.5-8.6c3.5-2.4,7-4.7,10.3-7.4c2.9-3.6,6.4-6.7,8.3-10.9c1.8-4.3,4-8.7,4-13.1c0.7-4.2,0.8-9.2,0.4-12.3
		l-1.4-21.1c-1-14-1.6-28-3.3-42.2l-8.5-84.5c-0.6-5.6-1.3-11.1-1.9-16.7c-9,2.3-14.2,3.4-14.2,3.4c-1.9,0.4-3.9,0.7-5.8,1.1
		c0.5,4.8,1.1,9.6,1.7,14.4l9,83.4c1.7,13.8,2.5,28,3.6,42l1.5,21.1c0.5,3.9,0.2,5.9-0.1,8.7c0.1,2.8-1.3,4.7-2,7
		c-3.7,8.5-16.4,14-28.7,17.7c-6.2,2-12.8,3.6-19.5,4.8c-6.6,1.5-13.4,2.5-20.3,3.4c-27.3,4-55.4,5.6-83.3,7.2
		c-112,5.3-224.7,5.1-337.2,5.9c-112.5,0.3-225.2,1.3-337.4-2.6c-28-1-56-2.8-83.7-6c-13.8-1.7-27.5-3.9-40.6-7.6
		c-13.1-3.3-25.6-9.3-31.4-19.1c-5.2-9.3-2-25.6-1.5-39l2.9-42l7.7-84l8.1-69.1v-3.2l-1.5,0l4.5-58.3l-6.1,0l-0.3-7.9l6.3-0.8
		l18.1-197c8.3-86.2,16.2-172.4,23.9-258.6c-1.3,0.3-2.7,0.7-4,1c-8.5,85.7-17.2,171.4-26.2,257L524.8,1563.7z"/>
	<path fill="#6FCCDD" d="M1664.1,788.3l10.7-12c3.6-4,6.8-9.3,10.2-13.9c3.3-4.8,6.8-9.5,9.9-14.3l8.1-14.9
		c10.9-19.8,18.3-41.3,24.2-63.1c2.5-10.9,4.4-22.1,6.3-33.2c0.7-11.2,2.4-22.4,2.2-33.7l-0.3-16.9c-0.1-3.2,0.1-4.9-0.4-9.2l-1-8
		l-2-16c-1-5.5-2.5-11.3-3.8-16.9c-5.1-22.8-13.3-43.2-22.6-63.8c-4.7-10.2-10.6-19.8-15.8-29.7c-6.3-9.3-12.1-18.9-18.9-27.9
		c-7.3-8.6-13.5-18.1-21.9-25.9l-11.9-12.2l-1.5-1.5l-2.4-2l-3.1-2.5l-6.3-5c-8.7-6.6-16.2-13.6-25.8-19.7l-29.7-17.7
		c-9.9-5.8-20.5-9.3-30.7-14.1c-5.2-2.2-10.3-4.6-15.5-6.5l-16.1-4.8c-10.8-2.8-21.3-7.2-32.4-8.7l-33-5.8
		c-22.2-1.6-44.6-4.4-66.9-2.4c-18.9,0-37.6,3.1-56.2,6.2c-7.1-9.1-14.4-18.1-22.4-26.5c-10.3-10.9-21.1-21.4-32.9-30.8
		c-5.7-4.9-11.7-9.5-18-13.7c-6.1-4.5-12.3-8.7-18.8-12.4c-6.4-4-12.9-7.8-19.6-11.1c-6.6-3.6-13.3-6.9-20.3-9.8
		c-6.8-3.1-13.7-6-20.8-8.5c-7-2.7-14.1-5.1-21.3-7.1c-14.2-4.5-28.8-7.8-43.4-10.5c-29.3-5.4-58.9-7.7-88.4-7.7l-21.9,0.6
		c-7.5,0.5-15,0.8-22.4,1.6c-14.7,1.4-29.4,3.3-44,6.2c-14.6,2.8-29.1,6.3-43.3,10.9c-7.2,2.1-14.2,4.5-21.2,7.3
		c-7,2.5-13.9,5.4-20.7,8.6c-6.9,2.9-13.6,6.3-20.1,9.9c-6.7,3.4-13.1,7.2-19.4,11.2c-6.5,3.8-12.6,8.1-18.6,12.5
		c-6.2,4.3-12.1,8.8-17.7,13.7c-11.6,9.4-22.3,19.9-32.5,30.8c-8.3,8.8-15.8,18.3-23.1,27.9c-19.1-3-38.1-6.3-57.4-6.2
		c-22.2-1.9-44.3,1-66.3,2.7l-32.7,5.9c-11,1.5-21.4,5.9-32.1,8.7l-15.9,4.8c-5.2,1.9-10.2,4.4-15.3,6.5c-10,4.7-20.6,8.3-30.2,14
		l-28.6,17.3c-9.4,6-17.5,13.7-26.3,20.5c-4.4,3.7-8.5,6.5-13.1,11.1l-11.2,11.6c-7.6,7.1-14.3,17.2-21.5,25.7
		c-6.7,9-12.3,18.5-18.5,27.7c-5.1,9.8-10.8,19.3-15.4,29.3c-9,20.2-17.1,40.8-21.8,62.5c-1.2,5.4-2.6,10.8-3.6,16.2l-2,16.6l-1,8.3
		c-0.3,3.6-0.1,5.6-0.2,8.5l-0.2,16.1c-0.1,10.7,1.6,22.2,2.4,33.2c1.9,10.9,3.8,21.8,6.3,32.5c5.9,21.2,13.2,42.2,24.2,61.4
		l8.1,14.4c2.9,4.6,6.3,9,9.5,13.5c3.3,4.4,6.2,9.1,9.9,13.2l11.1,12.2c15.3,16.3,31.2,29.6,49,42.9c3.4,2.6,7.1,4.7,10.7,7.1
		c3.4-1.6,6.6-3,9.5-4.3c-4.8-3.4-9.8-6.6-14.4-10.3c-16.2-12.8-32.8-27.8-46.2-43.3l-10.2-11.9c-3.4-4-5.9-8.6-9-12.9
		c-2.9-4.4-6-8.6-8.6-13.1l-7.2-13.9c-9.7-18.5-16.1-38.5-21.3-58.6c-2.1-10.2-3.7-20.5-5.3-30.8c-0.4-10.4-1.9-20.2-1.6-30.9
		l0.5-16.1c0.1-2.5,0.1-5.9,0.4-7.6l1.1-7.7l2.2-15.3c1-5.1,2.5-10.1,3.7-15.1c4.8-20.2,12.9-39.5,21.8-58.3
		c4.5-9.3,10.1-18.2,15-27.3c6-8.5,11.5-17.4,17.8-25.4c6.8-7.7,12-15.8,20.2-23.2l11.4-11.3c3-2.9,7.9-6.2,11.8-9.3
		c8.3-6.1,16-13.1,24.8-18.5l26.9-15.4c9-5.1,18.9-8.3,28.3-12.6c4.8-1.9,9.5-4.2,14.3-5.9l14.9-4.3c10-2.5,19.7-6.5,30-7.8
		l30.7-5.1c20.7-1.2,41.4-3.7,62-1.6c20.8,0.1,41.1,4.5,61.5,7.7l8.7,1.4l5.2-6.7c8.5-10.9,17-21.7,26.5-31.6
		c9.5-9.9,19.4-19.5,30.1-27.9c5.2-4.5,10.7-8.6,16.4-12.4c5.5-4,11.2-7.8,17.1-11.2c5.8-3.6,11.7-7.1,17.9-10
		c6-3.2,12.2-6.3,18.5-8.9c6.2-2.8,12.6-5.4,19.1-7.6c6.4-2.5,12.9-4.7,19.5-6.5c13.1-4.1,26.6-7.1,40.1-9.5
		c13.5-2.5,27.3-4.2,41.1-5.3c6.9-0.7,13.7-0.8,20.5-1.2l21.1-0.4c27.8,0.1,55.5,2.4,82.5,7.5c13.5,2.5,26.9,5.7,40,9.8
		c6.6,1.9,13.1,4.1,19.4,6.6c6.5,2.2,12.8,4.9,18.9,7.8c6.3,2.6,12.3,5.7,18.3,9c6.1,3,11.9,6.5,17.7,10.1c5.9,3.4,11.5,7.2,17,11.3
		c5.6,3.8,11,7.9,16.1,12.4c10.6,8.5,20.4,18,29.7,28c9.4,9.9,17.7,20.7,26.1,31.5l6.1,8l10.6-1.6c20.3-3,40.4-7.4,61-7.4
		c20.5-2,41,0.6,61.5,1.9l30.3,5.2c10.2,1.3,19.8,5.3,29.7,7.8l14.7,4.3c4.8,1.8,9.4,4,14.2,5.9c9.2,4.2,19.2,7.5,27.8,12.5l25.7,15
		c8.6,5.3,16.9,12.9,25.4,19.2l6.3,5l3.2,2.5l0.8,0.6l0.1,0l1.2,1.2l10.7,10.7c7.5,6.8,13.2,15.4,19.8,23c6.2,8,11.6,16.8,17.4,25.2
		c4.8,9,10.3,17.7,14.7,27c8.6,18.4,16.5,38,20.9,57c1.1,4.8,2.5,9.4,3.5,14.4l2.2,15.9l1.1,8l0.2,6.9l0.4,15.3
		c0.3,10.2-1.2,20.3-1.7,30.4c-1.6,10-3.2,20.1-5.4,30c-5.2,19.6-11.6,39-21.3,56.8l-7.2,13.4c-2.6,4.3-5.5,8.1-8.3,12.2
		c-2.9,4-5.1,8.1-8.6,12.2l-10.6,12.1c-13.2,14.8-29.3,29-45.5,41.5c-16.4,12.6-34,23.5-52.2,33.1c-9.1,4.8-18.8,8.5-28.2,12.8
		c-9.6,3.7-19.5,6.7-29.3,10l-30.1,7.3l-30.8,4.5l-12.3,1.8l1.1,11.5c5.4,56.8,12.5,112.4,19.1,168.4l20.7,167.6
		c5.7,45.8,11.3,91.7,16.9,137.5c7.2-1,14.3-2.1,21.5-3.2c-5.2-45.7-10.5-91.3-15.9-137l-19.5-167.7c-5.8-52-11.9-104.1-16.7-155.7
		l18.5-2.6l2.1-0.3l32.5-7.5c10.5-3.5,21.2-6.6,31.7-10.5c10.2-4.5,20.6-8.4,30.5-13.5c0.5-0.2,0.9-0.5,1.3-0.8
		c19.3-9.9,38-21.3,55.3-34.4C1632.1,819.4,1648.5,805.3,1664.1,788.3z"/>
	<path fill="#C82127" d="M528.5,1351.7c1.3,0.3,2.5,0.6,3.8,0.8c0.2-10.9,1.9-21.8,5.3-32.1c-1.2-15.8,1.1-31.5,6.6-46.2
		c0-1.7-0.1-3.4,0-5.1c-228.6-63.1-258.5-167.3-258.5-167.3c-34.8,54.5-28.6,97.3-8,129.3c30.3,30.5,70.1,47.7,70.1,47.7
		c60.1,25.3,124.7,45.2,184.4,60.9C530.8,1343.7,529.6,1347.7,528.5,1351.7z"/>
	<path fill="#C82127" d="M1232.1,906.6c162.4-26.1,278.9-143.1,265.9-224.6v0c-14-81.5-160.5-156.3-322.9-130.2
		c-120,19.2-189.1,84-230.7,152.5c-124.5,17.7-318.9,52.7-487.4,115c0,0-8.7,3.4-22.7,9.7c-3,1.3-6.1,2.7-9.6,4.3
		c-0.5,0.3-1.1,0.5-1.7,0.8c-60,28-182.8,93.4-226.2,178c0,0-37.1,62.3-9.7,166.4c0-1,0-2,0-3.1
		c-28.6-142.7,266.9-229.7,266.9-229.7c46.5-14.1,90-26.4,130.8-37.3c2.2-0.6,4.3-1.1,6.4-1.7c1.1-0.3,2.3-0.6,3.4-0.9
		c172.7-45.3,294.4-63.1,373.3-69.3c3.4,2.9,7,5.7,10.6,8.5c3.8,2.9,7.7,5.8,11.6,8.6c1.9,1.3,3.8,2.7,5.7,4c2.2,1.5,4.4,3,6.7,4.4
		c4.5,2.9,9.1,5.8,13.9,8.6c13.5,7.8,28.2,14.7,43.6,20.6C1107.7,909.3,1164.5,917.4,1232.1,906.6z"/>
	<path fill="#6AA543" d="M1476.8,981.7c-0.1-0.3-0.3-0.7-0.4-1c12.3,33.4,16.3,67.2,13.4,99.8c189.3,79.3,242.6,167.5,257.3,205.4
		c31.8-26.1,54.7-65.9,23.1-122.3C1770.2,1163.6,1716.7,1070,1476.8,981.7z"/>
	<path fill="#6AA543" d="M1833.1,1227.9c-0.2,1.1-0.3,2.3-0.5,3.4c5.7,149.3-308.1,189.3-308.1,189.3c-0.8,0.1-1.6,0.2-2.5,0.3
		c-7,0.9-13.7,1.8-20.5,2.7c-7,0.9-14.2,1.9-21.1,2.8c-215.6,27.1-365.7,28.8-463.4,23.3c-3.6-3.7-7.4-7.3-11.3-10.6
		c-4.4-3.8-8.9-7.3-13.6-10.6c-2.6-1.8-5.3-3.5-8-5.2c-3.8-2.3-7.8-4.5-12-6.6c-9.2-4.6-19.1-8.4-29.8-11.6
		c-10.8-3.2-22.5-5.7-35.3-7.5c-30.2-4.3-66.4-5.1-111.4-2.7l-248.7,30.2l-6.5,0.8l0,7.9l5.6,0l318.6,1.7c7.6-0.4,13.7,2.6,13.7,9.4
		c0,6.8-6.1,10.4-13.7,10.8l-322.2,36.4l1.5,0v3.2l-1.8,4.5l323.4,2.4c7.6-0.4,13.2,2.6,13.2,9.4c0,6.8-4.6,10.4-12.1,10.8
		L544,1559.1v8.5l322.5,1.7c7.6-0.4,12.8,2.6,12.8,9.4c0,6.8-6.6,10.4-14.1,10.8l-324.5,37.2l-0.1,7.2l255.1,3.5
		c95.2-5.1,151.7-20.1,193.3-52c127.8,2.3,327-1.5,506.1-36c1.9-0.4,3.9-0.7,5.8-1.1c0,0,5.2-1.1,14.2-3.4
		c5.6-1.4,12.6-3.3,20.7-5.6c64.7-18.2,201.9-64.7,260.3-144.1C1796.1,1395.2,1844,1338,1833.1,1227.9z"/>
</g>
</svg>
