<?xml version="1.0" encoding="utf-8"?>
<!-- Generator: Adobe Illustrator 18.1.0, SVG Export Plug-In . SVG Version: 6.00 Build 0)  -->
<svg version="1.1" id="Layer_1" xmlns="http://www.w3.org/2000/svg" xmlns:xlink="http://www.w3.org/1999/xlink" x="0px" y="0px"
	 viewBox="0 0 150 150" enable-background="new 0 0 150 150" xml:space="preserve">
<g>
	<path fill="#EE3B95" d="M135.4,59.4c2.2-2.8,0-4.7,0-4.7c-2.7-0.2-8.2-4.2-8.2-4.2c-3.3-2.6-3.6-8.7-3.6-8.7
		c0.6-13.5-9.7-22.7-9.7-22.7c-6.5-4.8-13.3-4.2-19.1-3.9c-4.1,0.2-7.5,0.8-10.3,1.8c-2.8-0.2-4.5-1.7-10.5-3.8
		c-9.3-3.2-22.5,4.3-28.1,13c-6.3,9.6-11.3,11.2-17.7,8.6C18,30.7,6.9,37.2,3.9,47.1c-0.8,2.7-0.2,2.7,0.8,0.5
		c1.2-2.9,8-12.8,15.2-10.4c3,1,6,1.1,8.7,1.6c7,1.3,10.3,1.2,17.1-7.5c4.1-5.3,7-8.6,13.3-12.1c4.9-2.7,11.2-4.5,16.3-2.5
		c2.5,1,4.5,1.5,6.3,1.6c-0.2,0.1-0.5,0.2-0.7,0.4c0.3-0.1,0.7-0.2,1.1-0.3c1.7,0,3.3-0.3,4.9-0.8c0.4-0.1,0.7-0.2,0.9-0.3
		c1.3-0.1,2.8-0.2,4.3-0.3c5.8-0.1,12.6-0.5,19,4.2c0,0,10.2,9,9.3,21.8c0,0,0.1,5.8,3.4,8.4c0,0,5.4,3.9,8.2,4.2
		c0,0,2.2,1.8-0.1,4.4c0,0-4.5,2.2-2.5,7.2c0,0,3.9,2.3-1.7,4.3c0,0,5.5,4.3-0.8,5.6c0,0-0.6,1.3,0.4,3.3c0,0,4.3,9.1-5.3,9.6
		L111,89.1c0,0.2,0,0.4,0,0.6c0,0.2-0.1,0.5-0.1,0.7l15.3,0.7c9.6-0.7,5.1-10.2,5.1-10.2c-1-2.1-0.5-3.5-0.5-3.5
		c6.3-1.5,0.7-5.9,0.7-5.9c5.6-2.2,1.6-4.5,1.6-4.5C131,61.9,135.4,59.4,135.4,59.4z"/>
	<path fill="#C12C7A" d="M91.8,24.4c-2.6,1.5-10.8,1.8-13.6,1.1c-9.1-2.3-14.8,5.8-16.3,9.7c-2.6,6.5-5.6,8.9-11.5,9
		c-6.9,0.1-12.1-2.3-17,3.5c-1.5,1.7-0.5,2,1,0.1c2.2-2.9,6.8-1.5,11.6,0.9c6.3,3.1,14.8-2,18.2-12.4c1.2-3.9,5.6-7.5,11.5-7.4
		C82,29,87.1,28.6,92.2,25C94.1,23.7,93.8,23.2,91.8,24.4z"/>
	<path fill="#EE3B95" d="M45.9,69.2c-0.1-2.3,5.1-4.8,8.1-6c6.8-2.8,16.3-16.7,18.6-22.2c1.1-2.6,0-2.1-0.7-0.7
		c-2.4,4.9-8.8,13-14.7,16.8c-3.2,2-8.1,2.9-11.4,6.4c-3.3,3.5-2.5,7.3-3.1,9.5C42,75.2,42,76.1,37.4,79c-5.5,3.5-9.3,9.5-8.9,12.8
		c0.2,1.5,0.5,2.2,0.8,0.5c0.8-4.9,4.2-7.7,8.2-9.8C41.4,80.4,46,75.1,45.9,69.2z"/>
	<path fill="#EE3B95" d="M37.3,63.1c2.4-2.2,1.3-1.7-0.3-0.6c-3.2,2.3-7.9,3.8-11.4,3.2c-3.9-0.7-7-4.4-5.5-8.3
		c2.2-5.5-1.9-9.5-6.2-9.2c-8.8,0.5-9.4,6.2-9.8,7.3c-0.4,1.2-0.1,2.3,1.2,0.1c1.7-3,3.7-4.5,7-4.9c4.2-0.5,7,1.6,5.7,5
		c-0.8,2.3-2.4,6.3,1.7,10.1C25.6,71.2,33.2,66.9,37.3,63.1z"/>
	<path fill="#EE3B95" d="M28.6,44.9c1.3,1.2,1.3,0.4,0.4-0.7c-3.2-4.1-11.8-4-15.6,1c-1.5,1.9-1,2.1,0.1,1.1
		C16.4,43.8,24.7,41.2,28.6,44.9z"/>
	<path fill="#C12C7A" d="M37.5,70.7c1.8-0.6,1.5-1.5-0.3-1c-11.4,3.4-16.2,13-11.4,24.9c1,2.5,1.5,2.1,0.9,0.1
		C23,82.7,32.7,72.4,37.5,70.7z"/>
	<path fill="#EE3B95" d="M105.5,23.2c1-1.9-0.3-1.4-0.8-0.4c-3.2,6.8-12.7,9.4-20.5,11.9c-6.5,2-11.8,9.2-11.3,14.7
		c0.2,2.9-1.1,5.9-5.4,7.3c-6.5,2.1-12.1,6.2-12.3,12.8c-0.2,5.1-2.3,8.4-8.1,11.7c-1.5,0.9-2.8,1.2,0.3,0.9
		c5.3-0.6,9.3-7.7,9.8-12.7c0.4-4,4.8-5.6,10.5-7.7c6-2.2,6.9-6.5,7.7-12.1c0.9-6.5,6.8-10.4,12.2-11.9
		C97.4,34.6,101.1,31.7,105.5,23.2z"/>
	<path fill="#EE3B95" d="M45.6,99.4c-3.5-4.2,0.2-10.2,3.6-13.4c2.5-2.4,1-2-0.8-0.4c-4.7,4-7.9,10.3-5.8,14.9
		c5.5,11.7-4.4,13.1-6.5,13.8c-0.9,0.3-1.3,0.9,0.4,1c1.2,0,5.7,0.1,9.1-3.4C49.6,107.7,47.9,102.2,45.6,99.4z"/>
	<path fill="#C12C7A" d="M77.3,68.6c1.1-3.2,3.1-6.7,4.4-8.1c1.3-1.4,0.5-1.2-0.5-0.4c-0.9,0.8-2.5,2.5-3.5,4.3
		c-2.9,6-7.2,7.5-13,8.9c-6.9,1.6-10.1,9.7-7.6,17.7c1.3,4.2,1.9,8.9-4.1,12c-1.6,0.8-1.1,1.6,1.2,0.6c5.8-2.6,7.8-8.6,5.9-13.7
		c-1.8-5-0.5-11.2,5.7-12.9C71.2,75.6,75.8,73,77.3,68.6z"/>
	<path fill="#EE3B95" d="M63.1,109.1c-5,0.8-6.8,3-7.7,7.3c-0.5,2,0.6,2.2,0.8,0.2c0.8-6.5,6.6-2.4,12.2-5.5
		c4.1-2.2,5.6-7.3,4.7-11.6c-0.9-4.3-2.7-12.4-0.4-18.6c0.7-2,0-2.2-0.7-0.3c-2.1,5.7-2.5,10.2-1.4,19.2
		C71.3,106.5,67.7,108.3,63.1,109.1z"/>
	<path fill="#EE3B95" d="M106,129.8c-5.8-0.6-7.3,2.7-7.5,7.4c-0.2,4.5-8,7-11.8,3.4c-4.9-4.5-6.3-5.8-11.3-4.1
		c-3.3,1.1-7.8-1.4-9.2-8.6c-1.4-7.6-8.9-8.2-14.6-3.8c-5.4,4.1-9.8-0.6-11.4-2.9c-0.8-1.1-1-0.6-0.5,1c1.3,4.1,7.8,9.2,17.2,3.8
		c3.6-2.1,6.3-0.6,7.2,3.4c1.4,6.1,5.6,11.8,9.9,9.1c2.5-1.5,4.7-2.3,6.3,0c8.6,12.5,20.8,5,19.7-1.7c-0.7-4.6,3.2-6,5.8-5.9
		C107.4,131.1,110.3,130.3,106,129.8z"/>
	<path fill="#EE3B95" d="M80.8,117c-2.8,2.1-5,8,0.7,10.7c5.7,2.7,7.1,5.3,7.6,7.2c0.6,1.9,1.3,2.4,0.9,0.4
		c-0.5-2.8-3.2-9.4-6.7-10.1c-3.5-0.7-4.1-3.7-0.7-6.1c4.7-3.3,6.2-11.1,0.1-17.7c-5.6-6.1-1.9-17.4,0-22.3c1.9-4.9,1.2-4.3-0.5-1.6
		c-1.7,2.7-7.8,14.6-4.6,23.2c3.3,8.5,5.1,6.8,5.9,8.9C84.6,112.2,84.3,114.3,80.8,117z"/>
	<path fill="#C12C7A" d="M108.1,124.7c-2.1-0.8-8-3.7-6.1-7.7c1.2-2.5,2.3-6.8-3-10.2c-7-4.5-6.5-10.2-5-14
		c2.5-6.2,8.4-7.3,6.9-18.6c-0.3-2.4-1.3-2-1-0.5c0.7,2.8-1.2,8.1-5.6,13.7c-5.8,7.3-6.3,17.2-0.2,20.3c5.8,3,5,5.6,4.7,7.6
		c-0.8,5.3,3.9,9,8.2,10.2C108.4,125.7,108.9,125,108.1,124.7z"/>
	<path fill="#EE3B95" d="M130.6,129.2c-5.1-0.6-9.8-4-10.7-10c-0.8-5.3-1.7-10.9-9.6-12.9c-7-1.7-9-9.3-6.2-11.7
		c8.8-7.8,6.7-16.4,3.9-24.4c-0.9-2.5-1.7-2.6-0.8,0.6c1.6,5.4,2.2,10.5-0.7,14.8c-1.7,2.5-4.4,4.1-6.5,10.6
		c-1.2,3.7-0.4,8.1,5.9,11.9c3.1,1.9,12,3.1,11.7,9.9c-0.3,5.6,2.6,13.2,13.1,12.2C133.9,130,132,129.3,130.6,129.2z"/>
	<path fill="#EE3B95" d="M110.7,121c0.4,2.2,3.5,4.3,5.4,4.3c1.9,0,1.2-0.6-0.1-0.8c-1.3-0.2-3.4-2.7-3.4-5.1c0-2.4-1.8-4.6-3.5-5.9
		c-1.6-1.3-2.2-1.1-0.8,0.5C109.7,115.3,110.3,118.7,110.7,121z"/>
	<path fill="#EE3B95" d="M130.2,131.2c-3.2-0.3-5.6,2-8.8,2.4c-3.8,0.4-9.2-3.8-10.4-4.5c-1.7-1-2.5-0.2-0.6,0.6
		c3.3,1.4,7.2,8.4,13.1,5.3c2.3-1.2,5.9-3.1,7-2.9C131.6,132.4,132.6,131.4,130.2,131.2z"/>
</g>
</svg>
