<?xml version="1.0" encoding="utf-8"?>
<!-- Generator: Adobe Illustrator 18.1.0, SVG Export Plug-In . SVG Version: 6.00 Build 0)  -->
<svg version="1.1" id="Layer_1" xmlns="http://www.w3.org/2000/svg" xmlns:xlink="http://www.w3.org/1999/xlink" x="0px" y="0px"
	 viewBox="0 0 150 150" enable-background="new 0 0 150 150" xml:space="preserve">
<g>
	<path fill="#4CA950" d="M107.4,82.5l11.9,2c0,0,0,0,0-0.1L107.4,82.5c4.1-4.9,8.4-6.5,12.4-6.4c0-0.2,0-0.4,0-0.6
		c-4.1,0.5-8.5-0.9-13-5.6l11.9-2.7c0,0,0,0,0-0.1l-12,2.7c2.1-6.2,5.5-9.2,9.4-10.6c-0.1-0.2-0.2-0.4-0.3-0.6
		c-3.6,2-8.3,2.5-14.4-0.2l10.3-7.1c0,0,0,0,0,0l-10.3,7.1c-0.4-6.6,1.8-10.8,5-13.5c-0.2-0.2-0.3-0.3-0.5-0.5
		c-2.6,3.4-6.8,5.7-13.6,5.4l7.1-10.7c0,0,0,0,0,0L92.3,50c-2.9-6.2-2.4-10.9-0.3-14.6c-0.2-0.1-0.4-0.2-0.7-0.3
		c-1.1,4.2-4.1,8.1-10.7,10.4l2.7-12.8c0,0,0,0-0.1,0l-2.7,12.8c-5.1-4.7-6.3-9.3-5.7-13.6c-0.3,0-0.5,0.1-0.8,0.1c0,0,0,0,0,0
		c0.6,4-0.7,9.1-6,13.7l-2.3-13.1c0,0,0,0-0.1,0l2.3,13.1c-6.6-2.5-9.5-6.5-10.4-10.8c-0.3,0.1-0.5,0.2-0.8,0.3
		c2.3,3.8,2.9,8.8-0.3,15.2l-7.1-11.4c0,0,0,0,0,0l7.1,11.4c-7.1,0.1-11.3-2.5-13.7-6.2c-0.2,0.2-0.4,0.4-0.6,0.6
		c3.6,2.7,6.1,7.1,5.4,14.3l-10.9-7.9c0,0,0,0,0,0l10.9,7.9c-6.5,2.7-11.4,1.9-15-0.6c-0.1,0.3-0.2,0.5-0.4,0.8
		c4.3,1.2,8.2,4.3,10.4,11.2l-12.9-3.2c0,0,0,0,0,0.1l12.9,3.2c-4.9,4.9-9.7,5.9-14,5.1c0,0.3,0,0.5,0,0.8c4.4-0.5,9.1,1,13.6,6.6
		l-13,1.8c0,0,0,0,0,0.1l13-1.8c-2.7,6.3-6.7,9.1-10.9,9.9c0.1,0.2,0.2,0.5,0.3,0.7c3.9-2,8.8-2.3,14.9,1.1l-11.2,6.4c0,0,0,0,0,0
		L46.5,95c-0.2,6.7-2.7,10.7-6.1,13.1c0.1,0.2,0.3,0.3,0.5,0.5c2.9-3.2,7.3-5.2,14-4.3l-7.8,9.9c0,0,0,0,0,0l7.8-9.9
		c0,0.1,0,0.1,0.1,0.2c0-2.5,0.4-12.9,10-11.4l-9.9,11.8c0,0,0,0,0,0l9.8-11.8c0.1,0.3,0.1,0.6,0.1,0.9V70.7l9.8,13.9L85,70.7v24.8
		c0-0.6,0.2-1.3,0.5-2l8.8,12.7c0,0,0,0,0,0l-8.9-12.6c9.7-0.7,9.3,9.5,9,12.1c0.2-0.6,0.4-1.1,0.6-1.7l7.1,9.5c0,0,0,0,0,0
		l-7.1-9.5c6.2-0.6,10.4,1.1,13.2,3.9c0.1-0.1,0.2-0.3,0.3-0.4c-3.1-2.5-5.4-6.5-5.3-12.9l10.2,6.2c0,0,0,0,0,0l-10.2-6.2
		c5.6-2.9,10.1-2.8,13.7-1.3c0.1-0.2,0.1-0.3,0.2-0.5C113.4,91.4,109.8,88.5,107.4,82.5z M107.1,73.6l-15.3,2.9
		C95.7,66,107.1,73.6,107.1,73.6z M107.1,73.6c0,0-7.8,11.2-15.3,2.9L107.1,73.6z M79,63.7l3.6-15.2C82.6,48.5,89.6,60.3,79,63.7z
		 M82.6,48.5L79,63.7C71,55.9,82.6,48.5,82.6,48.5z M72.6,63.6l-2.3-15.4C70.3,48.2,81.2,56.5,72.6,63.6z M70.3,48.2l2.3,15.4
		C62.3,59.3,70.3,48.2,70.3,48.2z M66.7,65.8l-7.9-13.4C58.8,52.4,72,56,66.7,65.8z M59.3,75.9l-15-4.2
		C44.3,71.6,56.4,65.1,59.3,75.9z M59.3,75.9c-8.2,7.6-15-4.2-15-4.2L59.3,75.9z M58.9,82.2l-15.5,1.7
		C43.4,83.9,52.2,73.3,58.9,82.2z M43.4,83.9l15.5-1.7C54.2,92.3,43.4,83.9,43.4,83.9z M60.9,88.2l-13.8,7.3
		C47.2,95.6,51.3,82.5,60.9,88.2z M47.2,95.6L61,88.3C60.3,99.4,47.2,95.6,47.2,95.6z M49.7,60.6L62,70.2
		C51.6,74.2,49.7,60.6,49.7,60.6z M62,70.1l-12.3-9.5C49.7,60.6,63.3,59,62,70.1z M58.8,52.4l7.9,13.4
		C55.5,65.7,58.8,52.4,58.8,52.4z M93.8,53.5l-9,12.7C80.4,55.9,93.8,53.5,93.8,53.5z M84.8,66.2l9-12.7C93.9,53.5,96,67,84.8,66.2z
		 M102.4,62.2l-13.1,8.4C89,59.5,102.4,62.2,102.4,62.2z M102.4,62.2c0,0-3.1,13.3-13.1,8.4L102.4,62.2z M89.7,88.8l13.1,8.5
		C102.8,97.3,89.4,100,89.7,88.8z M89.7,88.8c10-4.9,13.1,8.5,13.1,8.5L89.7,88.8z M92,82.9l15.3,3C107.3,85.9,95.8,93.3,92,82.9z
		 M92,82.8c7.5-8.3,15.3,3,15.3,3L92,82.8z"/>
	<path fill="#4CA950" d="M94.4,106.2c-0.8-0.2-8.4-1.8-9.4-7v22.6c3-0.9,7.2-2.2,10.5-3.9C93.7,114.8,93,111,94.4,106.2z"/>
	<path fill="#4CA950" d="M55,105c2,5.8,1.1,10.1-1,13.5c3.5,1.7,7,2.9,11,3.7V98.6C64,103.7,56.1,104.9,55,105z"/>
	<path fill="#009D77" d="M55.2,105c-0.1,0-0.1,0-0.1,0l0.1-0.1c0,0,0,0,0,0L55,105c0,0,0-0.2,0-0.6c0-0.1,0-0.1-0.1-0.2l-7.8,9.9
		l-11.3,14.2c0,0,13.2-1.7,18.4-9.9C56.4,115.1,57.2,110.8,55.2,105z"/>
	<path fill="#4CAE8C" d="M40.9,108.6c-6.4,7-5,19.8-5,19.8l11.3-14.2l7.8-9.9C48.1,103.4,43.7,105.4,40.9,108.6z"/>
	<path fill="#009D77" d="M46.5,95l-11.2,6.4l-15.5,8.9c0,0,12.7,3.3,20.6-2.2C43.8,105.7,46.4,101.7,46.5,95z"/>
	<path fill="#4CAE8C" d="M31.6,93.8c-8.3,4.3-11.8,16.4-11.8,16.4l15.5-8.9l11.2-6.4C40.4,91.6,35.5,91.9,31.6,93.8z"/>
	<path fill="#009D77" d="M42.2,83.2l-13,1.8l-17.5,2.4c0,0,10.3,7.6,19.6,5.7C35.5,92.3,39.5,89.5,42.2,83.2z"/>
	<path fill="#4CAE8C" d="M28.6,76.6c-9.2,1-16.8,10.7-16.8,10.7L29.2,85l13-1.8C37.7,77.7,33,76.2,28.6,76.6z"/>
	<path fill="#009D77" d="M42.6,70.7l-12.9-3.2l-16.9-4.2c0,0,6.6,10.8,15.8,12.6C32.9,76.7,37.6,75.6,42.6,70.7z"/>
	<path fill="#4CAE8C" d="M32.2,59.5c-8.9-2.4-19.5,3.7-19.5,3.7l16.9,4.2l12.9,3.2C40.5,63.8,36.6,60.6,32.2,59.5z"/>
	<path fill="#009D77" d="M47.6,59.2l-10.9-7.9l-14-10.2c0,0,2.1,12.3,9.9,17.5C36.2,61.1,41.1,62,47.6,59.2z"/>
	<path fill="#4CAE8C" d="M42.2,44.9c-7.4-5.5-19.4-3.8-19.4-3.8l14,10.2l10.9,7.9C48.2,52,45.8,47.6,42.2,44.9z"/>
	<path fill="#009D77" d="M56.5,50.5l-7.1-11.4l-9.2-14.7c0,0-2.6,12.2,2.6,19.9C45.3,47.9,49.5,50.6,56.5,50.5z"/>
	<path fill="#4CAE8C" d="M56.9,35.2c-4.7-7.9-16.6-10.8-16.6-10.8l9.2,14.7l7.1,11.4C59.8,44,59.2,39,56.9,35.2z"/>
	<path fill="#009D77" d="M68.1,45.7l-2.3-13.1l-3.1-17.2c0,0-7,10.4-5,19.5C58.6,39.1,61.6,43.1,68.1,45.7z"/>
	<path fill="#4CAE8C" d="M74.2,31.8c-1.4-9.2-11.4-16.4-11.4-16.4l3.1,17.2l2.3,13.1C73.5,41,74.8,36.2,74.2,31.8z"/>
	<path fill="#009D77" d="M80.6,45.5l2.7-12.8l3.6-17.3c0,0-10.5,7.1-11.9,16.4C74.3,36.1,75.6,40.8,80.6,45.5z"/>
	<path fill="#4CAE8C" d="M91.4,35.1c2.4-9.1-4.4-19.7-4.4-19.7l-3.6,17.3l-2.7,12.8C87.3,43.2,90.3,39.3,91.4,35.1z"/>
	<path fill="#009D77" d="M92.3,50l7.1-10.7l9.9-14.9c0,0-12.6,2.7-17.3,11C89.9,39.1,89.4,43.9,92.3,50z"/>
	<path fill="#4CAE8C" d="M106,44.7c5.8-7.5,3.4-20.2,3.4-20.2l-9.9,14.9l-7.1,10.7C99.2,50.4,103.4,48,106,44.7z"/>
	<path fill="#009D77" d="M101.4,58.6l10.3-7.1l15-10.3c0,0-13-2.2-20.4,3.9C103.2,47.8,101.1,52,101.4,58.6z"/>
	<path fill="#4CAE8C" d="M115.9,58.9c8.4-4.7,11-17.6,11-17.6l-15,10.3l-10.3,7.1C107.5,61.4,112.2,60.9,115.9,58.9z"/>
	<path fill="#009D77" d="M106.7,70l12-2.7l18.1-4c0,0-11.4-7-20.6-3.9C112.3,60.7,108.8,63.8,106.7,70z"/>
	<path fill="#4CAE8C" d="M119.8,75.6c9.6-1.1,17-12.3,17-12.3l-18.1,4L106.7,70C111.3,74.7,115.7,76.1,119.8,75.6z"/>
	<path fill="#009D77" d="M107.4,82.5l11.9,2l18.4,3c0,0-8.1-11-17.9-11.3C115.8,76,111.5,77.7,107.4,82.5z"/>
	<path fill="#4CAE8C" d="M117.2,92.5c9.4,2.7,20.5-5,20.5-5l-18.4-3l-11.9-2C109.8,88.5,113.4,91.4,117.2,92.5z"/>
	<path fill="#009D77" d="M103.3,94.3l10.2,6.2l16.1,9.8c0,0-3.4-13.3-12.5-17.2C113.4,91.5,108.9,91.4,103.3,94.3z"/>
	<path fill="#4CAE8C" d="M108.7,107.3c7.7,6.1,20.9,3.1,20.9,3.1l-16.1-9.8l-10.2-6.2C103.3,100.8,105.5,104.8,108.7,107.3z"/>
	<path fill="#009D77" d="M95.2,103.8l7.1,9.5l11.3,15.1c0,0,1.8-13.8-5.3-20.7C105.5,104.9,101.4,103.2,95.2,103.8z"/>
	<path fill="#4CAE8C" d="M94.5,105.6c0,0.4-0.1,0.6-0.1,0.6l-0.1-0.1c0,0,0,0,0,0l0.1,0.1c0,0,0,0-0.1,0c-1.4,4.8-0.8,8.6,1,11.7
		c4.9,8.5,18.2,10.6,18.2,10.6l-11.3-15.1l-7.1-9.5C94.9,104.4,94.7,105,94.5,105.6z"/>
	<path fill="#97A822" d="M55,105c1.1-0.1,9-1.3,10-6.4v-4.7c0-0.3,0-0.6-0.1-0.9l-9.8,11.8l-0.1,0.1C54.9,105,54.9,105,55,105z"/>
	<path fill="#A6B344" d="M55.1,104.9L65,93.1c-9.7-1.5-10.1,8.8-10,11.4c0,0.4,0,0.6,0,0.6L55.1,104.9z"/>
	<path fill="#97A822" d="M61,88.3l-13.8,7.3C47.2,95.6,60.3,99.4,61,88.3z"/>
	<path fill="#A6B344" d="M47.2,95.6l13.8-7.3C51.3,82.5,47.2,95.6,47.2,95.6z"/>
	<path fill="#97A822" d="M58.9,82.2l-15.5,1.7C43.4,83.9,54.2,92.3,58.9,82.2z"/>
	<path fill="#A6B344" d="M43.4,83.9l15.5-1.7C52.2,73.3,43.4,83.9,43.4,83.9z"/>
	<path fill="#97A822" d="M59.3,75.9l-15-4.2C44.3,71.7,51.2,83.5,59.3,75.9z"/>
	<path fill="#A6B344" d="M44.3,71.6l15,4.2C56.4,65.1,44.3,71.6,44.3,71.6z"/>
	<path fill="#97A822" d="M62,70.2l-12.3-9.5C49.7,60.6,51.6,74.2,62,70.2z"/>
	<path fill="#A6B344" d="M49.7,60.6L62,70.1C63.3,59,49.7,60.6,49.7,60.6z"/>
	<path fill="#97A822" d="M58.8,52.4c0,0-3.3,13.3,7.9,13.4L58.8,52.4z"/>
	<path fill="#A6B344" d="M58.8,52.4l7.9,13.4C72,56,58.8,52.4,58.8,52.4z"/>
	<path fill="#97A822" d="M72.6,63.6l-2.3-15.4C70.3,48.2,62.3,59.3,72.6,63.6z"/>
	<path fill="#A6B344" d="M70.3,48.2l2.3,15.4C81.2,56.5,70.3,48.2,70.3,48.2z"/>
	<path fill="#97A822" d="M82.6,48.5c0,0-11.6,7.3-3.6,15.2L82.6,48.5z"/>
	<path fill="#A6B344" d="M82.6,48.5L79,63.7C89.6,60.3,82.6,48.5,82.6,48.5z"/>
	<path fill="#97A822" d="M84.8,66.2l9-12.7C93.8,53.5,80.4,55.9,84.8,66.2z"/>
	<path fill="#A6B344" d="M93.9,53.5l-9,12.7C96,67,93.9,53.5,93.9,53.5z"/>
	<path fill="#97A822" d="M89.3,70.7l13.1-8.4C102.4,62.2,89,59.5,89.3,70.7z"/>
	<path fill="#A6B344" d="M102.4,62.2l-13.1,8.4C99.4,75.6,102.4,62.2,102.4,62.2z"/>
	<path fill="#97A822" d="M91.8,76.5l15.3-2.9C107.1,73.6,95.7,66,91.8,76.5z"/>
	<path fill="#A6B344" d="M107.1,73.6l-15.3,2.9C99.3,84.8,107.1,73.6,107.1,73.6z"/>
	<path fill="#97A822" d="M92,82.8l15.3,3C107.3,85.8,99.5,74.6,92,82.8z"/>
	<path fill="#A6B344" d="M107.3,85.9l-15.3-3C95.8,93.3,107.3,85.9,107.3,85.9z"/>
	<path fill="#97A822" d="M89.7,88.8l13.1,8.5C102.8,97.3,99.8,83.9,89.7,88.8z"/>
	<path fill="#A6B344" d="M102.8,97.3l-13.1-8.5C89.4,100,102.8,97.3,102.8,97.3z"/>
	<path fill="#97A822" d="M94.5,105.6c0.3-2.6,0.7-12.8-9-12.1l8.9,12.6l0.1,0.1C94.4,106.2,94.4,106,94.5,105.6z"/>
	<path fill="#A6B344" d="M94.4,106.2C94.5,106.2,94.4,106.2,94.4,106.2L94.4,106.2l-8.9-12.7c-0.3,0.7-0.6,1.3-0.6,2v3.8
		C86,104.4,93.6,106,94.4,106.2z"/>
	<polygon fill="#009D77" points="85,95.4 85,70.7 74.8,84.6 65,70.7 65,93.9 65,98.6 65,122.2 65,138 85,138 85,121.8 85,99.2 	"/>
</g>
</svg>
