<?xml version="1.0" encoding="utf-8"?>
<!-- Generator: Adobe Illustrator 18.1.0, SVG Export Plug-In . SVG Version: 6.00 Build 0)  -->
<svg version="1.0" id="Layer_1" xmlns="http://www.w3.org/2000/svg" xmlns:xlink="http://www.w3.org/1999/xlink" x="0px" y="0px"
	 viewBox="0 0 150 150" enable-background="new 0 0 150 150" xml:space="preserve">
<g>
	<polygon fill="none" points="99.1,98.8 93.6,45.8 93.4,45.5 97.6,98 	"/>
	<polygon fill="none" points="94.6,95.2 89.1,42.2 88.8,42 93.1,94.4 	"/>
	<polygon fill="none" points="103.1,102.2 97.6,49.2 97.3,48.9 101.6,101.4 	"/>
	<path fill="#6BABC6" d="M5.8,119.3c47.9-41,77.9,39.6,123.7-7.8C71.9,144.5,53.4,63.6,5.8,119.3z"/>
	<path fill="#6BABC6" d="M85.5,37.4l-0.7-10.2c0,0-22.3-11.7-27.3-0.4l-1,8.3l-0.3,3.2C60.2,24.2,83,36.1,85.5,37.4z"/>
	<path fill="#6BABC6" d="M87.1,60l-0.4-6.2c-21.6-10-29.3-5.5-32-1.7l-0.9,8.6C61.5,48,83.7,58.3,87.1,60z"/>
	<path fill="#6BABC6" d="M86.3,48.7l-0.5-7.1C62.5,30.7,57,37.8,55.8,40.8L55.1,48C61.6,36,83.4,47.2,86.3,48.7z"/>
	<path fill="#6BABC6" d="M88,72.3l-0.4-6.2c-22.4-9.3-31.1-4.3-34.5,0.5L52.3,74C60,59.4,85.9,71.3,88,72.3z"/>
	<path fill="#6BABC6" d="M89.7,96.2l-0.3-4C72.8,85.5,63,85.6,57.3,88c11.2,1.7,21.4,8.3,32.7,13.3L89.7,96.2z"/>
	<path fill="#6BABC6" d="M88.9,85.7l-0.5-7.3c-25-9.8-33.7-3.7-36.7,1.3l-0.9,8c0.1,0,0.3,0,0.4,0C59.3,71.3,86.8,84.6,88.9,85.7z"
		/>
	<path fill="#A4B478" d="M107,106.5L99.2,52c0,0,1.4-8-8.5-10.7l-4.4-2.7l3.4,57.6l0.3,5C95.3,103.6,100.9,105.6,107,106.5z
		 M97.6,49.2l5.5,53l-1.5-0.8l-4.3-52.5L97.6,49.2z M93.6,45.8l5.5,53L97.6,98l-4.3-52.5L93.6,45.8z M89.1,42.2l5.5,53l-1.5-0.8
		L88.8,42L89.1,42.2z"/>
	<path fill="#CBAC6A" d="M143.2,98.4c-14.2,8.1-25.9,9.7-36.2,8.2c-6.1-0.9-11.7-2.9-17.1-5.3c-11.3-5-21.5-11.6-32.7-13.3
		c-2-0.3-4-0.4-6-0.4c-0.1,0-0.3,0-0.4,0C41.4,88,31,92.3,18.6,104.1C65.2,69.9,97.5,145.8,143.2,98.4z"/>
</g>
</svg>
