<?xml version="1.0" encoding="utf-8"?>
<!-- Generator: Adobe Illustrator 16.0.0, SVG Export Plug-In . SVG Version: 6.00 Build 0)  -->
<!DOCTYPE svg PUBLIC "-//W3C//DTD SVG 1.1//EN" "http://www.w3.org/Graphics/SVG/1.1/DTD/svg11.dtd">
<svg version="1.1" id="Layer_1" xmlns="http://www.w3.org/2000/svg" xmlns:xlink="http://www.w3.org/1999/xlink" x="0px" y="0px"
	 width="100px" height="100px" viewBox="0 0 100 100" enable-background="new 0 0 100 100" xml:space="preserve">
<g>
	<radialGradient id="SVGID_1_" cx="51.2637" cy="31.5586" r="56.7232" gradientUnits="userSpaceOnUse">
		<stop  offset="0" style="stop-color:#44C7F4"/>
		<stop  offset="0.1775" style="stop-color:#22BAF1"/>
		<stop  offset="0.3758" style="stop-color:#00ADEE"/>
		<stop  offset="0.4645" style="stop-color:#00A6E6"/>
		<stop  offset="0.6041" style="stop-color:#0092CF"/>
		<stop  offset="0.7772" style="stop-color:#0072AA"/>
		<stop  offset="0.9754" style="stop-color:#004678"/>
		<stop  offset="1" style="stop-color:#004071"/>
	</radialGradient>
	<path fill="url(#SVGID_1_)" d="M64.92,9.663c6.521-0.076,13.04-0.008,19.56-0.038c3.358-0.091,6.814,1.69,8.323,4.746
		c0.989,1.909,0.747,4.105,0.771,6.173c-0.023,19.476,0.007,38.968-0.008,58.452c0.121,4.559-4.271,8.12-8.633,8.104
		c-22.224,0.053-44.454,0-66.677,0.022c-2.218,0.076-4.309-0.754-6.188-1.826c1.117-0.211,2.392-0.143,3.32-0.92
		c1.222-0.936,2.188-2.15,3.199-3.298c6.973-8.226,12.896-17.341,20.48-25.053c0.393,0.173,0.8,0.347,1.2,0.528
		c2.664-0.559,5.35-0.974,8.051-1.336c-0.792,0.928-2.196,1.6-2.233,2.966c-0.076,0.581-0.121,1.177-0.166,1.766
		c-0.476,0.415-0.951,0.83-1.418,1.237c-0.061,0.354-0.121,0.709-0.189,1.064c-1.403,0.286-1.351,1.901-1.75,2.988
		c-0.551,2.58-1.615,4.995-2.483,7.478c-2.022,1.026-4.188,1.796-6.143,2.958c-0.92,1.208-0.762,3.154-2.324,3.887
		c0.249,0.838,0.498,1.668,0.754,2.505c-0.868,0.611-1.736,1.23-2.596,1.849c2.233,0.121,4.459,0.362,6.686,0.227
		c1.856-0.528,3.471-1.622,5.131-2.565c1.389-0.747,2.219-2.188,3.532-3.033c0.785-0.151,1.6-0.182,2.399-0.249
		c0.053-0.249,0.151-0.755,0.204-1.004c1.758-0.626,3.539-1.215,5.275-1.917c0.604-1.509,2.188-1.97,3.448-2.762
		c1.759-1.411,2.875-3.501,4.762-4.776c1.222-0.83,2.482-1.63,3.849-2.196c1.223-0.642,2.505,0.295,3.772,0.188
		c0.619-0.075,1.23-0.271,1.842-0.43c0.468-0.951,1.479-1.185,2.43-1.403c0.181-0.498,0.362-0.996,0.551-1.494
		c0.506-0.03,1.026-0.053,1.547-0.076c1.871-2.482,4.301-4.459,6.406-6.73c0.793,0.219,1.593,0.445,2.423,0.551
		c1.735-1.569,1.954-4.09,2.286-6.264c0.34-3.652,0.453-7.372,0.038-11.01c-1.487-2.618-4.053-4.542-5.116-7.417
		c-1.328-3.411-2.626-6.844-4-10.24c-1.094-1.992-2.867-3.501-4.256-5.274c-0.943-1.321-2.656-1.494-4.104-1.894
		C68.512,11.964,66.777,10.599,64.92,9.663z"/>
	<g>
		<path fill="#37B34A" d="M49.451,10.84c3.607-0.483,7.214-1.049,10.866-1.064c-1.63,0.724-3.245,1.75-3.938,3.463
			c-1.51,3.426-0.106,7.214,0.95,10.549c-0.265,0.385-0.528,0.777-0.784,1.17c-0.016-0.287-0.061-0.868-0.068-1.155
			c-0.74,0.008-1.472,0.015-2.211,0.03c-0.709,1.094-1.789,2.045-2,3.396c-0.354,2.113-0.627,4.233-0.928,6.354
			c-0.227,1.532,0.286,3.033,0.573,4.513c-2.709,2.822-5.297,5.766-7.969,8.633c-0.853,1.034-2.347,0.498-3.501,0.664
			c-0.445,0.656-0.89,1.298-1.343,1.946c-0.604,0.016-1.207,0.03-1.796,0.054c-0.317,0.664-0.709,1.282-1.102,1.894
			c-0.023,0.393-0.045,0.792-0.061,1.185c-0.354,0.378-0.951,0.649-0.905,1.253c0.573,0.664,1.275,1.2,1.947,1.751
			c-6.444,8.111-12.904,16.231-19.937,23.846c-0.649,0.664-1.268,1.396-2.075,1.894c-2.045,0.227-4.044-0.43-6.044-0.731
			C8.929,67.292,9.11,54.095,9.027,40.896c-0.098-1.486,0.317-2.928,1.139-4.158c3.049-4.807,11.9-16.035,22.601-21.205
			C37.936,12.833,43.746,11.746,49.451,10.84z"/>
		<path fill="#37B34A" d="M59.872,31.351c0.257-0.015,0.777-0.038,1.026-0.053c-0.369,2.43,0.551,4.814,0.506,7.236
			c-0.597,1.095-1.23,2.174-1.532,3.389c-1.14,0.845-2.264,1.705-3.298,2.663c-0.121,0.604-0.241,1.215-0.361,1.826
			c-1.736,1.494-3.789,2.43-5.917,3.223c-1.984,1.555-4.618,0.618-6.927,0.95c0.785-2.603,3.026-4.286,4.588-6.398
			c1.532-2.067,3.32-3.924,5.176-5.705c0.71,0.656,1.494,1.207,2.324,1.721c0.092-0.544,0.182-1.087,0.303-1.615
			c0.573-0.988,0-2.604,1.283-3.078c0,0.807,0.021,1.614,0.074,2.422c0.695,0.687,1.095-0.423,1.51-0.792
			c0.468-0.498,0.514-1.192,0.559-1.826c0.182-0.121,0.573-0.34,0.754-0.453C59.91,33.689,59.88,32.513,59.872,31.351z"/>
	</g>
</g>
</svg>
