<?xml version="1.0" encoding="utf-8"?>
<!-- Generator: Adobe Illustrator 18.1.0, SVG Export Plug-In . SVG Version: 6.00 Build 0)  -->
<svg version="1.1" id="Layer_1" xmlns="http://www.w3.org/2000/svg" xmlns:xlink="http://www.w3.org/1999/xlink" x="0px" y="0px"
	 viewBox="0 0 150 150" enable-background="new 0 0 150 150" xml:space="preserve">
<g>
	<path fill="#FF452E" d="M39.2,62.9c11.9,0,28,14.7,28,14.7l15.2-13.8c-28-26.6-53.1-24.7-65-11.4c-11.9,13.3,1.4,28.5,1.4,28.5
		C16.4,64.8,27.4,62.9,39.2,62.9z"/>
	<path fill="#FF452E" d="M102.3,90.5c-0.4,0.4-0.8,0.8-1.2,1.1c-0.1,0.1-0.2,0.2-0.3,0.3c-0.5,0.4-0.9,0.9-1.4,1.3
		c-0.2,0.1-0.3,0.3-0.5,0.4c-0.4,0.4-0.9,0.8-1.4,1.2c-0.1,0.1-0.2,0.1-0.3,0.2c-0.5,0.4-1,0.8-1.5,1.3c-0.2,0.1-0.3,0.3-0.5,0.4
		c-0.5,0.4-1,0.9-1.6,1.3c-0.1,0.1-0.2,0.1-0.2,0.2c-0.5,0.4-1,0.8-1.4,1.1c-0.2,0.1-0.3,0.2-0.5,0.4c-0.5,0.4-1.1,0.8-1.7,1.2
		c0,0-0.1,0.1-0.1,0.1l37.1,30.6c0,0-8.5-20.3-23-43c-0.4,0.4-0.8,0.9-1.3,1.3C102.6,90.2,102.4,90.3,102.3,90.5z"/>
	<path fill="#050073" d="M108.3,84c-0.3,0.3-0.6,0.7-0.9,1C107.7,84.7,108,84.3,108.3,84z"/>
	<path fill="#050073" d="M85.6,103.8c-0.5,0.3-1,0.6-1.5,0.9C84.6,104.4,85.1,104.1,85.6,103.8z"/>
	<path fill="#050073" d="M87.7,102.5c-0.6,0.4-1.2,0.7-1.7,1.1C86.6,103.2,87.2,102.9,87.7,102.5z"/>
	<path fill="#050073" d="M89.7,101.2c-0.5,0.3-1,0.7-1.5,1C88.7,101.9,89.2,101.5,89.7,101.2z"/>
	<path fill="#050073" d="M83.7,105c-0.6,0.3-1.2,0.7-1.8,1C82.4,105.7,83,105.3,83.7,105z"/>
	<path fill="#050073" d="M105.4,87.2c-0.3,0.4-0.7,0.7-1,1.1C104.7,88,105.1,87.6,105.4,87.2z"/>
	<path fill="#050073" d="M81.4,106.2c-0.5,0.3-1.1,0.5-1.6,0.8C80.3,106.7,80.9,106.5,81.4,106.2z"/>
	<path fill="#050073" d="M111,80.8c-0.3,0.3-0.5,0.6-0.8,1C110.5,81.4,110.8,81.1,111,80.8z"/>
	<path fill="#050073" d="M109.8,82.3c-0.4,0.4-0.7,0.9-1.1,1.3C109.1,83.1,109.5,82.7,109.8,82.3z"/>
	<path fill="#050073" d="M107,85.5c-0.4,0.4-0.8,0.9-1.2,1.3C106.2,86.3,106.6,85.9,107,85.5z"/>
	<path fill="#050073" d="M16.2,83.3C16.2,83.3,16.2,83.4,16.2,83.3C16.2,83.4,16.2,83.3,16.2,83.3z"/>
	<path fill="#050073" d="M67.9,110.9c-0.7,0.1-1.4,0.3-2.1,0.4C66.5,111.2,67.2,111.1,67.9,110.9z"/>
	<path fill="#050073" d="M112.4,79.1c-0.3,0.4-0.7,0.8-1,1.2C111.7,79.9,112,79.5,112.4,79.1z"/>
	<path fill="#050073" d="M17,84.1C17,84.1,17,84.1,17,84.1C17,84.1,17,84.1,17,84.1z"/>
	<path fill="#050073" d="M15.4,82.6C15.4,82.6,15.4,82.6,15.4,82.6C15.4,82.6,15.4,82.6,15.4,82.6z"/>
	<path fill="#050073" d="M75,109c-0.7,0.2-1.3,0.5-2,0.7C73.7,109.4,74.3,109.2,75,109z"/>
	<path fill="#050073" d="M70.5,110.4c-0.7,0.2-1.4,0.3-2.1,0.5C69.1,110.7,69.8,110.5,70.5,110.4z"/>
	<path fill="#050073" d="M79.4,107.2c-0.6,0.3-1.3,0.6-1.9,0.8C78.1,107.7,78.8,107.5,79.4,107.2z"/>
	<path fill="#050073" d="M77,108.2c-0.6,0.2-1.2,0.5-1.7,0.7C75.9,108.6,76.5,108.4,77,108.2z"/>
	<path fill="#050073" d="M72.5,109.8c-0.6,0.2-1.3,0.4-1.9,0.5C71.3,110.2,71.9,110,72.5,109.8z"/>
	<path fill="#050073" d="M117.6,72.2c-0.2,0.2-0.3,0.4-0.5,0.7C117.2,72.6,117.4,72.4,117.6,72.2z"/>
	<path fill="#050073" d="M115.6,74.8c-0.2,0.3-0.4,0.5-0.6,0.8C115.3,75.4,115.5,75.1,115.6,74.8z"/>
	<path fill="#050073" d="M118.5,70.8c-0.1,0.2-0.2,0.4-0.4,0.5C118.2,71.2,118.3,71,118.5,70.8z"/>
	<path fill="#050073" d="M114.7,76.1c-0.3,0.4-0.6,0.8-0.9,1.1C114.1,76.9,114.4,76.5,114.7,76.1z"/>
	<path fill="#050073" d="M119.1,69.9c-0.1,0.1-0.2,0.3-0.3,0.4C118.9,70.1,119,70,119.1,69.9z"/>
	<path fill="#050073" d="M116.7,73.4c-0.2,0.3-0.4,0.5-0.6,0.8C116.3,73.9,116.5,73.6,116.7,73.4z"/>
	<path fill="#050073" d="M113.5,77.7c-0.2,0.3-0.5,0.6-0.7,0.9C113,78.3,113.2,78,113.5,77.7z"/>
	<path fill="#050073" d="M93.8,98.1c0.5-0.4,1.1-0.9,1.6-1.3C94.9,97.2,94.3,97.7,93.8,98.1z"/>
	<path fill="#050073" d="M99.4,93.3c0.5-0.4,0.9-0.9,1.4-1.3C100.3,92.4,99.9,92.8,99.4,93.3z"/>
	<path fill="#050073" d="M92.1,99.4c0.5-0.4,1-0.7,1.4-1.1C93.1,98.7,92.6,99,92.1,99.4z"/>
	<path fill="#050073" d="M95.9,96.4c0.5-0.4,1-0.8,1.5-1.3C96.8,95.6,96.3,96,95.9,96.4z"/>
	<path fill="#050073" d="M97.6,94.9c0.5-0.4,0.9-0.8,1.4-1.2C98.5,94.1,98,94.5,97.6,94.9z"/>
	<path fill="#050073" d="M102.3,90.5c-0.4,0.4-0.8,0.8-1.2,1.1C101.5,91.3,101.9,90.9,102.3,90.5z"/>
	<path fill="#050073" d="M90,101c0.6-0.4,1.1-0.8,1.7-1.2C91.1,100.2,90.5,100.6,90,101z"/>
	<path fill="#050073" d="M102.7,90c0.4-0.4,0.9-0.9,1.3-1.3c0,0,0,0,0,0C103.6,89.2,103.2,89.6,102.7,90z"/>
	<path fill="#4353E7" d="M132.2,77.1l5.2-56l-0.4,0.1c-0.5,2.2-4.5,18.6-18.6,21.7c-13.6,3-29.6-1.3-32.6-2.1l8.4-3.2l-9.1,3.5
		l12.7,9.7c-8.3,11.9-28.7,37.7-50.2,40.6c-14.7,2-24.1-2.1-29.8-6.5c0,0,0,0,0,0c13,11.5,44.5,26.6,101.4-15.6c0,0,0,0.1,0,0.1
		c0.3-0.5,0.6-0.9,0.9-1.4L132.2,77.1z"/>
	<path fill="#4300E7" d="M18,84.8C18,84.8,18,84.8,18,84.8c-0.3-0.2-0.6-0.5-0.9-0.7c0,0,0,0,0,0c-0.3-0.2-0.6-0.5-0.8-0.7
		c0,0,0,0,0,0c-0.3-0.2-0.5-0.5-0.8-0.7c0,0,0,0,0,0c-3.3-3.2-4.6-5.9-4.6-5.9c0,12.3,21.8,39.4,55,34.6c0.7-0.1,1.4-0.2,2.1-0.4
		c0.2,0,0.3-0.1,0.5-0.1c0.7-0.1,1.4-0.3,2.1-0.5c0.1,0,0.1,0,0.2,0c0.6-0.2,1.3-0.3,1.9-0.5c0.2,0,0.3-0.1,0.5-0.1
		c0.7-0.2,1.3-0.4,2-0.7c0.1,0,0.2-0.1,0.3-0.1c0.6-0.2,1.2-0.4,1.7-0.7c0.1-0.1,0.3-0.1,0.4-0.2c0.6-0.3,1.3-0.5,1.9-0.8
		c0.1-0.1,0.2-0.1,0.4-0.2c0.5-0.3,1.1-0.5,1.6-0.8c0.1-0.1,0.3-0.1,0.4-0.2c0.6-0.3,1.2-0.6,1.8-1c0.1-0.1,0.3-0.2,0.4-0.2
		c0.5-0.3,1-0.6,1.5-0.9c0.1-0.1,0.2-0.1,0.4-0.2c0.6-0.4,1.2-0.7,1.7-1.1c0.2-0.1,0.3-0.2,0.5-0.3c0.5-0.3,1-0.7,1.5-1
		c0.1,0,0.1-0.1,0.2-0.1c0,0,0.1-0.1,0.1-0.1c0.6-0.4,1.1-0.8,1.7-1.2c0.2-0.1,0.3-0.2,0.5-0.4c0.5-0.4,1-0.7,1.4-1.1
		c0.1-0.1,0.2-0.1,0.2-0.2c0.5-0.4,1.1-0.9,1.6-1.3c0.2-0.1,0.3-0.3,0.5-0.4c0.5-0.4,1-0.8,1.5-1.3c0.1-0.1,0.2-0.1,0.3-0.2
		c0.5-0.4,0.9-0.8,1.4-1.2c0.2-0.1,0.3-0.3,0.5-0.4c0.5-0.4,0.9-0.9,1.4-1.3c0.1-0.1,0.2-0.2,0.3-0.3c0.4-0.4,0.8-0.8,1.2-1.1
		c0.2-0.2,0.3-0.3,0.5-0.5c0.4-0.4,0.9-0.9,1.3-1.3c0.1-0.1,0.2-0.3,0.4-0.4c0.3-0.4,0.7-0.7,1-1.1c0.1-0.2,0.3-0.3,0.4-0.5
		c0.4-0.4,0.8-0.9,1.2-1.3c0.1-0.2,0.3-0.3,0.4-0.5c0.3-0.3,0.6-0.7,0.9-1c0.1-0.2,0.3-0.3,0.4-0.5c0.4-0.4,0.7-0.9,1.1-1.3
		c0.1-0.2,0.3-0.3,0.4-0.5c0.3-0.3,0.5-0.6,0.8-1c0.1-0.1,0.2-0.3,0.4-0.4c0.3-0.4,0.7-0.8,1-1.2c0.1-0.2,0.3-0.3,0.4-0.5
		c0.2-0.3,0.5-0.6,0.7-0.9c0.1-0.1,0.2-0.3,0.3-0.4c0.3-0.4,0.6-0.8,0.9-1.1c0.1-0.2,0.3-0.3,0.4-0.5c0.2-0.3,0.4-0.5,0.6-0.8
		c0.2-0.2,0.3-0.4,0.5-0.7c0.2-0.3,0.4-0.5,0.6-0.8c0.1-0.2,0.3-0.4,0.4-0.5c0.2-0.2,0.3-0.4,0.5-0.7c0.2-0.3,0.4-0.5,0.5-0.8
		c0.1-0.2,0.2-0.4,0.4-0.5c0.1-0.2,0.3-0.4,0.4-0.6c0.1-0.1,0.5-0.3,0.6-0.4c0.1-0.2,0.6-0.3,0.6-0.5c0,0,0,0,0,0
		c0-0.1-0.3-0.1-0.3-0.1C62.8,111.4,31,96.3,18,84.8z"/>
	<path fill="#4300E7" d="M118.5,43c14.1-3.1,18.1-19.5,18.6-21.7c0,0,0,0,0,0L94.3,37.6l-8.4,3.2C88.8,41.7,104.8,45.9,118.5,43z"/>
</g>
</svg>
