<?xml version="1.0" encoding="utf-8"?>
<!-- Generator: Adobe Illustrator 18.1.0, SVG Export Plug-In . SVG Version: 6.00 Build 0)  -->
<svg version="1.0" id="Layer_1" xmlns="http://www.w3.org/2000/svg" xmlns:xlink="http://www.w3.org/1999/xlink" x="0px" y="0px"
	 viewBox="0 0 150 150" enable-background="new 0 0 150 150" xml:space="preserve">
<g>
	<path fill="#76C4D5" d="M77.1,124.6c-2.4,0-5-0.2-7.4-0.7c-6.9-1.3-13.1-4.3-17.5-8.4c-2.1,0.8-4.3,1.5-6.7,1.9l-0.4,0
		c-0.4,0-0.7,0.1-1,0.2l-0.5,0.1c-4,0.5-8,0.4-12-0.4C14.3,114.1,2.4,100,5.1,85.9C7.1,75.1,17.1,67.2,30,65.9
		c-0.4-3.4-0.3-6.9,0.4-10.3C33.7,38,50.2,25.3,69.5,25.3c2.8,0,5.6,0.3,8.4,0.8c11.4,2.2,21.3,8.5,27.5,17.6c4-1.6,8.4-2,12.6-1.2
		c12.2,2.3,20.3,14.2,18,26.4c-0.3,1.7-0.8,3.3-1.5,4.8c8.1,6.1,12.1,13.9,10.7,21.2c-2,10.3-14.2,17.3-30.4,17.5h-0.4l-0.3-0.1
		c-0.6-0.1-1.2-0.1-1.7,0l-0.3,0.1l-0.4,0c-2.9-0.2-5.8-0.5-8.7-1c-0.9-0.2-1.8-0.3-2.6-0.5C98.4,119.1,89.2,124.6,77.1,124.6
		 M53.8,107.2l1.7,2c3.4,3.9,9.1,6.8,15.5,8.1c2.1,0.4,4.1,0.6,6.2,0.6c8.9,0,15.8-3.7,16.7-9c0.1-0.7,0.1-1.3,0.1-2l-0.5-5.1
		l4.9,1.5c1.8,0.5,3.8,1,6,1.5c2.4,0.5,5,0.8,7.5,0.9c1.1-0.1,2.2-0.1,3.4,0.1c12.5-0.2,22.2-5.1,23.5-11.9c1-5.2-2.9-11.2-10.3-16
		l-2.8-1.8l1.8-2.9c1-1.6,1.7-3.5,2.1-5.4c1.6-8.6-4-16.9-12.6-18.5c-3.7-0.7-7.6,0-10.9,1.9l-3,1.7l-1.7-3c-5-8.8-14-15-24.5-17
		c-2.4-0.5-4.7-0.7-7.1-0.7c-16.1,0-29.7,10.4-32.4,24.7c-0.7,3.8-0.6,7.7,0.2,11.5l0.9,4.2l-4.3,0c-11.5,0-20.6,6.1-22.2,14.7
		c-2,10.4,7.5,20.9,21.1,23.5c3.2,0.6,6.5,0.7,9.6,0.3c0.6-0.2,1.3-0.3,2-0.3c2.6-0.5,4.9-1.3,6.9-2.3L53.8,107.2z"/>
	<path fill="#888DAA" d="M94.9,56.6c0,1.9-1.5,3.4-3.4,3.4H51.1c-1.9,0-3.4-1.5-3.4-3.4l0,0c0-1.9,1.5-3.4,3.4-3.4h40.4
		C93.4,53.2,94.9,54.7,94.9,56.6L94.9,56.6z"/>
	<path fill="#888DAA" d="M112.1,68.8c0,1.9-1.5,3.4-3.4,3.4H51.1c-1.9,0-3.4-1.5-3.4-3.4l0,0c0-1.9,1.5-3.4,3.4-3.4h57.6
		C110.6,65.4,112.1,67,112.1,68.8L112.1,68.8z"/>
	<path fill="#888DAA" d="M117.9,80.2c0,1.9-1.5,3.4-3.4,3.4H51.1c-1.9,0-3.4-1.5-3.4-3.4l0,0c0-1.9,1.5-3.4,3.4-3.4h63.4
		C116.3,76.8,117.9,78.3,117.9,80.2L117.9,80.2z"/>
	<path fill="#888DAA" d="M123.6,92.4c0,1.9-1.5,3.4-3.4,3.4H51.1c-1.9,0-3.4-1.5-3.4-3.4l0,0c0-1.9,1.5-3.4,3.4-3.4h69.1
		C122.1,89,123.6,90.5,123.6,92.4L123.6,92.4z"/>
</g>
</svg>
