<?xml version="1.0" encoding="utf-8"?>
<!-- Generator: Adobe Illustrator 16.0.0, SVG Export Plug-In . SVG Version: 6.00 Build 0)  -->
<!DOCTYPE svg PUBLIC "-//W3C//DTD SVG 1.1//EN" "http://www.w3.org/Graphics/SVG/1.1/DTD/svg11.dtd">
<svg version="1.1" id="Layer_1" xmlns="http://www.w3.org/2000/svg" xmlns:xlink="http://www.w3.org/1999/xlink" x="0px" y="0px"
	 width="100px" height="100px" viewBox="0 0 100 100" enable-background="new 0 0 100 100" xml:space="preserve">
<g>
	<linearGradient id="SVGID_1_" gradientUnits="userSpaceOnUse" x1="69.6172" y1="73.4014" x2="6.732" y2="85.0712">
		<stop  offset="0" style="stop-color:#5C9F38"/>
		<stop  offset="1" style="stop-color:#B2D235"/>
	</linearGradient>
	<path fill="url(#SVGID_1_)" d="M69.045,70.544c-0.202,0.452-0.442,0.886-0.719,1.292c11.766,0.997,19.749,2.944,19.749,5.168
		c0,3.249-16.962,5.888-37.883,5.888c-20.921,0-37.874-2.639-37.874-5.888c0-1.338,2.852-2.565,7.668-3.553
		c-0.406-0.499-0.756-1.034-1.052-1.606c-8.823,1.292-14.323,3.129-14.323,5.159c0,3.923,20.404,7.087,45.58,7.087
		c25.184,0,45.588-3.164,45.588-7.087C95.78,74.134,84.826,71.66,69.045,70.544z"/>
	<g>
		
			<linearGradient id="SVGID_2_" gradientUnits="userSpaceOnUse" x1="-951.3599" y1="224.3066" x2="-930.0643" y2="220.9938" gradientTransform="matrix(-0.9601 0.2798 0.2798 0.9601 -948.9124 121.7727)">
			<stop  offset="0" style="stop-color:#5C9F38"/>
			<stop  offset="1" style="stop-color:#B2D235"/>
		</linearGradient>
		<path fill="url(#SVGID_2_)" d="M21.704,59.701c0.48-0.056,0.932-0.075,1.366-0.093c1.107,2.141,2.26,3.978,3.34,5.334
			c4.264,5.361,11.185,11.286,17.608,13.021c-2.002,1.587-4.337,2.972-6.552,3.525c-13.123,3.258-25.36-15.67-32.835-13.936
			C7.787,65.274,16.158,60.338,21.704,59.701z"/>
		
			<linearGradient id="SVGID_3_" gradientUnits="userSpaceOnUse" x1="-992.4004" y1="236.1025" x2="-946.0743" y2="189.7764" gradientTransform="matrix(-0.9601 0.2798 0.2798 0.9601 -948.9124 121.7727)">
			<stop  offset="0" style="stop-color:#5C9F38"/>
			<stop  offset="1" style="stop-color:#B2D235"/>
		</linearGradient>
		<path fill="url(#SVGID_3_)" d="M19.231,28.657c1.597,4.65,9.081,7.225,20.118,8.417c11.019,1.172,20.801,7.483,25.581,13.833
			c4.78,6.349,6.386,17.534,4.798,20.007c3.434,2.197,7.522,3.766,10.567,3.387c3.055-0.369-0.803,7.161-2.648,4.707
			c-1.846-2.465-4.891-5.952-8.602-6.857c-3.008,2.086-12.439,5.03-20.006,5.141c-7.549,0.13-16.74-7.337-22-13.953
			C21.777,56.729,14.819,39.297,19.231,28.657z M40.77,60.54c-4.946-3.322-15.928-12.356-20.708-25.673
			c2.861,13.585,12.495,23.098,19.176,27.611c6.682,4.513,18.973,7.799,26.227,7.771C58.341,68.643,45.716,63.871,40.77,60.54z"/>
		
			<linearGradient id="SVGID_4_" gradientUnits="userSpaceOnUse" x1="-990.5024" y1="204.4551" x2="-1001.0739" y2="174.7923" gradientTransform="matrix(-0.9601 0.2798 0.2798 0.9601 -948.9124 121.7727)">
			<stop  offset="0" style="stop-color:#5C9F38"/>
			<stop  offset="1" style="stop-color:#B2D235"/>
		</linearGradient>
		<path fill="url(#SVGID_4_)" d="M70.873,62.487c-0.646-4.273-2.326-9.505-5.075-13.15c-4.291-5.684-12.588-11.332-22.186-13.298
			c0.941-10.151,7.069-21.226,14.378-26.883c-1.182,3.535-0.84,12.772,6.829,21.401C71.942,38.577,79.012,53.518,70.873,62.487z"/>
		<path fill="#FFFFFF" d="M65.059,56.738c-1.587-5.427-8.435-12.449-15.872-14.857c-7.438-2.399-17.83-1.772-21.18-4.172
			c2.76,3.285,14.885,4.448,21.05,6.618C55.222,46.504,61.626,51.968,65.059,56.738z"/>
	</g>
</g>
</svg>
