<?xml version="1.0" encoding="utf-8"?>
<!-- Generator: Adobe Illustrator 18.1.0, SVG Export Plug-In . SVG Version: 6.00 Build 0)  -->
<svg version="1.1" id="Layer_1" xmlns="http://www.w3.org/2000/svg" xmlns:xlink="http://www.w3.org/1999/xlink" x="0px" y="0px"
	 viewBox="0 0 150 150" enable-background="new 0 0 150 150" xml:space="preserve">
<g>
	<polygon fill="none" points="72.2,64.8 72.4,64.5 81.3,53.3 80.2,52.4 71.1,63.8 70.9,64 70.4,64.6 66.8,69.2 63.3,73.5 64.5,74.4 
		68.3,69.7 71.7,65.4 	"/>
	<polygon fill="none" points="64.2,60 64.2,60 73.9,47.8 72.8,46.9 62.9,59.2 62.9,59.3 62.4,59.8 57.7,65.8 55.9,68 57,68.9 
		59.1,66.3 63.7,60.6 	"/>
	<path fill="none" d="M91.8,74.4c-0.3,0.1-0.7,0.2-1,0.3c-0.4,0.1-0.7,0.3-1,0.4c-0.9,0.4-1.7,0.9-2.4,1.6c-0.6,0.6-1.2,1.2-1.7,2
		l2.4,1.5c0.7-1,1.6-1.8,2.6-2.4c2.2-1.2,5-1.2,7.2,0.3l0.4-0.6l0.4-0.6l0.4-0.5l0.4-0.6C97,74.3,94.3,73.9,91.8,74.4z"/>
	<polygon fill="none" points="56.6,56.1 56.8,55.8 66,44 64.9,43.1 55.5,55.1 55.3,55.4 55.1,55.7 49.4,62.8 48.3,64.3 48.1,64.6 
		49.2,65.5 50.9,63.4 56.3,56.4 	"/>
	<polygon fill="none" points="54.5,40.7 46.8,50.4 46.3,51 46.2,51 40.1,58.7 37.6,61.8 38.7,62.7 41,59.8 47.6,51.7 47.6,51.6 
		48.1,51 55.6,41.6 	"/>
	<polygon fill="none" points="80.4,70.5 80.9,69.9 81.3,69.3 88,60.9 86.9,60 80,68.6 79.6,69.1 79.1,69.7 76.7,72.8 70,81.2 
		71.1,82.1 78.1,73.3 	"/>
	<path fill="none" d="M30.2,68.1c5-0.1,10,1.7,14.4,4.1C40,69.6,35,67.9,30.2,68.1z"/>
	<path fill="none" d="M109.9,78.6c-0.1-0.2-0.1-0.3-0.2-0.5c-0.5-1.4-1.2-2.8-2.2-4c-1.2-1.6-2.7-3.1-4.4-4.2
		c-6.1-4-13.9-3.5-19.4,0.7c-0.2,0.2-0.4,0.3-0.6,0.5c-0.2,0.2-0.4,0.4-0.6,0.5c-0.8,0.7-1.6,1.6-2.2,2.5c-0.2,0.2-0.4,0.5-0.5,0.7
		c-5.1,7.8-2.9,18.3,4.9,23.4c7.8,5.1,18.3,2.9,23.4-4.9c2.8-4.3,3.4-9.5,2-14.1C110,79.1,109.9,78.8,109.9,78.6z M104.5,91
		c-3.8,5.9-11.7,7.5-17.6,3.7c-5.9-3.8-7.5-11.7-3.7-17.6c0.4-0.5,0.8-1,1.2-1.5c0.6-0.7,1.4-1.4,2.1-1.9c0.2-0.2,0.5-0.3,0.7-0.5
		c0.3-0.2,0.6-0.3,0.8-0.5c3.9-2,8.7-1.9,12.7,0.7c1.3,0.8,2.3,1.8,3.2,3c0.3,0.4,0.6,0.8,0.8,1.2c0.1,0.2,0.3,0.4,0.4,0.7
		c0.1,0.2,0.2,0.4,0.3,0.7C107.1,82.8,106.9,87.3,104.5,91z"/>
	<path fill="#A8DDE9" d="M131.2,81.2l-0.5,0.8l-0.4,0.6c0.1,0,0.1,0,0.2,0.1l0.4-0.7c0,0,0.1,0,0.1,0l1.1-2h0l0,0l0,0.1L131.2,81.2z
		"/>
	<path fill="#A8DDE9" d="M100.4,57.6c-7.1-7.3-13.9-12.2-20.2-15.4c-0.2-0.1-0.5-0.2-0.7-0.4c-2.1-1-4.1-1.9-6-2.6
		c0.8,0.4,1.5,0.8,2.3,1.2c0.5,0.2,0.9,0.5,1.4,0.7c1,0.6,2.1,1.2,3.1,1.9c5.8,3.8,12,9.3,18.2,17.1c0,0,3.6,7.7,13.7,11.9
		c5.5,2.3,12.9,3.6,22.8,2.1c0.1,0,0.1,0,0.2,0l0.1-0.2l3.4-6.2C110.8,75.2,100.4,57.6,100.4,57.6z"/>
	<path fill="#00A1A9" d="M101.9,54.9c-7.5-6.1-14.4-10-20.7-12.4c6.6,3,13.8,7.7,21.5,15c0,0,10.5,16.4,36.5,9.4l3.5-6.8
		C117.2,72.2,101.9,54.9,101.9,54.9z"/>
	<path fill="#00A1A9" d="M15.3,75.7c0,0-0.1,0.1-0.2,0.3l0.5-0.6C15.5,75.5,15.4,75.6,15.3,75.7z"/>
	<path fill="#00A1A9" d="M49.9,99.2c2.3-11.1-5.6-16-5.6-16c-1-0.7-2-1.2-2.9-1.7c3.4,2,5.6,4.3,5.6,4.3l-8.1,15.3
		c-23-1.7-17.3-17.5-17.3-17.5c0.6-0.7,1.2-1.4,1.8-1.9c-0.8,0.7-1.5,1.4-2,2.1l-1.1,1.7c0,0,0.4-0.7,1.1-1.7l10-15.2
		c7.8-0.6,17.3,5.9,23.4,10.9c-3.1-2.7-6.5-5.3-10.2-7.4c-4.5-2.4-9.5-4.2-14.4-4.1c-0.1,0-0.2,0-0.3,0c-0.1,0-0.2,0-0.3,0
		c-5.1,0.3-10,2.6-14.6,8.1c-1.6,2.6-8.6,17,17.4,28.9c0,0,12,3,18-6.3L60.9,85h0L49.9,99.2z"/>
	<path fill="#36B7EA" d="M21.4,83.8c-0.7,1-1.1,1.7-1.1,1.7L21.4,83.8z"/>
	<path fill="#36B7EA" d="M21.4,83.8c0.5-0.6,1.2-1.4,2-2.1c0.4-0.3,0.8-0.7,1.3-1c5.8-4.1,12.2-1.9,16.6,0.8
		c0.9,0.5,1.9,1.1,2.9,1.7c0,0,7.9,4.9,5.6,16l11-14.1c-1-1-2.1-2.1-3.3-3.2c-0.9-0.8-1.9-1.6-2.8-2.4c-6.1-5-15.6-11.5-23.4-10.9
		L21.4,83.8z"/>
	<path fill="#A8DDE9" d="M24.7,80.8c-0.5,0.3-0.9,0.6-1.3,1c-0.6,0.6-1.2,1.2-1.8,1.9c0,0-5.7,15.8,17.3,17.5L47,85.9
		c0,0-2.3-2.3-5.6-4.3C36.9,78.8,30.5,76.7,24.7,80.8z"/>
	<g>
		<path fill="#1F6892" d="M134.3,75.6c-0.1,0-0.1,0-0.2,0c-10.6,1.6-18.4-0.1-24-2.8c-9-4.3-12.2-11.3-12.2-11.3
			c-9.6-12.1-19.1-18.6-27.4-22c-1.2-0.5-2.5-1-3.6-1.3c-0.8-0.3-1.6-0.5-2.4-0.7c-2.3-0.6-4.5-1-6.5-1.2c-8-0.9-13.1,0.9-13.1,0.9
			L18.3,71.9l-2.7,3.5L15.1,76l-0.3,0.4c0.1-0.1,0.2-0.2,0.3-0.3c4.5-5.4,9.5-7.7,14.6-8.1c0.1,0,0.2,0,0.3,0c0.1,0,0.2,0,0.3,0
			c4.9-0.2,9.8,1.5,14.4,4.1c3.7,2.1,7.1,4.7,10.2,7.4c0.9,0.8,2,1.6,2.8,2.4c1.2,1.1,2.3,2.2,3.3,3.2l0,0c3.8,4,6.2,7,6.2,7
			c12.4,19,22.6,24.9,29.6,25.9l-0.3-1.6l-2.7-12.7c2.9,0,5.7-0.6,8.3-1.7l2.9,13.8l0.1,0.5c0,0.2,0.1,0.4,0.1,0.6
			c2-0.9,3-1.9,3-1.9l22.2-32.5l0.4-0.6l0.5-0.8l0.7-1.1l0,0l3.1-4.5c-0.1,0-0.3,0-0.4,0.1C134.5,75.6,134.4,75.6,134.3,75.6z
			 M47.6,51.6L47.6,51.6L41,59.8l-2.3,2.9l-1.1-0.9l2.4-3.1l6.2-7.7l0.1-0.1l0.5-0.6l7.7-9.7l1.1,0.9L48.1,51L47.6,51.6z M49.2,65.5
			l-1.1-0.9l0.2-0.3l1.1-1.4l5.6-7.2l0.2-0.3l0.3-0.4l9.4-12L66,44l-9.2,11.8l-0.2,0.3l-0.2,0.3l-5.5,7L49.2,65.5z M59.1,66.3
			L57,68.9L55.9,68l1.8-2.2l4.8-6l0.4-0.5l0-0.1l9.9-12.4l1.1,0.9L64.2,60l0,0l-0.5,0.6L59.1,66.3z M64.5,74.4l-1.1-0.9l3.5-4.4
			l3.6-4.5l0.5-0.6l0.2-0.2l9.1-11.4l1.1,0.9l-8.9,11.2l-0.2,0.3l-0.5,0.6l-3.4,4.3L64.5,74.4z M70,81.2l6.7-8.4l2.4-3.1l0.5-0.6
			l0.4-0.5l6.9-8.6l1.1,0.9l-6.7,8.4l-0.4,0.5l-0.5,0.6l-2.3,2.9l-7,8.7L70,81.2z M108,93.3c-5.1,7.8-15.6,10-23.4,4.9
			c-7.8-5.1-10-15.6-4.9-23.4c0.2-0.3,0.4-0.5,0.5-0.7c0.7-0.9,1.4-1.8,2.2-2.5c0.2-0.2,0.4-0.4,0.6-0.5c0.2-0.2,0.4-0.3,0.6-0.5
			c5.5-4.2,13.3-4.7,19.4-0.7c1.8,1.2,3.3,2.6,4.4,4.2c0.9,1.2,1.6,2.6,2.2,4c0.1,0.2,0.1,0.3,0.2,0.5c0.1,0.2,0.1,0.4,0.2,0.6
			C111.4,83.9,110.9,89,108,93.3z"/>
	</g>
	<g>
		<path fill="#1F6892" d="M105.2,78.3c-0.1-0.2-0.2-0.4-0.4-0.7c-0.2-0.4-0.5-0.8-0.8-1.2c-0.9-1.1-1.9-2.2-3.2-3
			c-3.9-2.6-8.8-2.7-12.7-0.7c-0.3,0.1-0.6,0.3-0.8,0.5c-0.3,0.2-0.5,0.3-0.7,0.5c-0.8,0.5-1.5,1.2-2.1,1.9c-0.4,0.5-0.8,1-1.2,1.5
			c-3.8,5.9-2.2,13.7,3.7,17.6c5.9,3.8,13.7,2.2,17.6-3.7c2.4-3.7,2.6-8.2,1-12C105.4,78.8,105.3,78.5,105.2,78.3z M98.8,76.4
			L98.5,77l-0.4,0.6l-0.4,0.6c-2.2-1.5-5-1.5-7.2-0.3c-1,0.5-1.9,1.3-2.6,2.4l-2.4-1.5c0.5-0.8,1.1-1.4,1.7-2
			c0.7-0.6,1.5-1.2,2.4-1.6c0.3-0.2,0.7-0.3,1-0.4c0.3-0.1,0.7-0.2,1-0.3c2.5-0.5,5.2-0.1,7.5,1.4L98.8,76.4z"/>
	</g>
</g>
</svg>
