<?xml version="1.0" encoding="utf-8"?>
<!-- Generator: Adobe Illustrator 14.0.0, SVG Export Plug-In . SVG Version: 6.00 Build 43363)  -->
<!DOCTYPE svg PUBLIC "-//W3C//DTD SVG 1.1//EN" "http://www.w3.org/Graphics/SVG/1.1/DTD/svg11.dtd">
<svg version="1.1" id="Layer_1" xmlns="http://www.w3.org/2000/svg" xmlns:xlink="http://www.w3.org/1999/xlink" x="0px" y="0px"
	 width="150px" height="150px" viewBox="0 0 150 150" enable-background="new 0 0 150 150" xml:space="preserve">
<g>
	<path fill="#C81C6A" d="M96.207,45.194h0.088c3.173-0.25,6.29-1.59,8.621-4.086c0.175-0.171,0.53-0.63,0.53-0.63l16.115-23.297
		l-2.307-1.914l-19.98,24.286l-2.3-1.93l19.961-24.264l-2.512-2.063L94.318,35.734l-2.295-1.889l20.111-24.419l-2.692-2.207
		L89.355,31.647l-2.325-1.914l20.112-24.438l-2.127-1.717l-18.777,19.17c0,0-0.717,0.754-0.947,1.029
		c-2.631,3.186-3.497,7.253-2.719,11.019c0.556,14.869-11.863,19.335-13.583,21.43c-1.328,1.634-16.315,19.847-24.98,30.36h13.198
		c8.323-10.093,18.335-22.265,19.601-23.811C78.795,60.35,82.704,46.65,96.207,45.194"/>
	<path fill="#C81C6A" d="M97.461,104.248h0.074c3.186,0.236,6.283,1.596,8.635,4.064c0.162,0.187,0.535,0.648,0.535,0.648
		l16.115,23.291l-2.312,1.907l-19.986-24.275l-2.307,1.913l19.968,24.295l-2.5,2.045l-20.111-24.432l-2.307,1.889l20.104,24.42
		l-2.668,2.194l-20.092-24.42l-2.32,1.914l20.088,24.432l-2.12,1.733l-18.759-19.195c0,0-0.723-0.735-0.954-1.01
		c-2.631-3.186-3.503-7.275-2.73-11.021c0.549-14.866-11.87-19.326-13.565-21.434c-1.347-1.608-16.315-19.85-24.999-30.364h13.21
		c8.311,10.1,18.335,22.288,19.601,23.818C80.055,89.07,83.963,102.789,97.461,104.248"/>
	<path fill="#0086A0" d="M50.554,45.194h-0.068c-3.186-0.25-6.303-1.59-8.653-4.086c-0.162-0.171-0.536-0.63-0.536-0.63
		L25.188,17.181l2.312-1.914l19.987,24.286l2.301-1.93L29.813,13.359l2.512-2.063l20.105,24.438l2.307-1.889L34.632,9.426
		l2.687-2.207l20.074,24.429l2.338-1.914L39.62,5.295l2.107-1.717l18.784,19.17c0,0,0.717,0.754,0.948,1.029
		c2.625,3.186,3.503,7.253,2.73,11.019c-0.555,14.869,11.87,19.335,13.571,21.43c1.341,1.634,16.328,19.847,24.993,30.36H89.555
		c-8.316-10.093-18.347-22.265-19.612-23.811C67.966,60.35,64.058,46.65,50.554,45.194"/>
	<path fill="#0086A0" d="M49.301,104.248H49.22c-3.18,0.236-6.297,1.596-8.647,4.064c-0.156,0.187-0.518,0.648-0.518,0.648
		l-16.109,23.291l2.288,1.907l19.999-24.275l2.3,1.913l-19.962,24.295l2.513,2.045l20.105-24.432l2.294,1.889l-20.093,24.42
		l2.668,2.194l20.093-24.42l2.326,1.914l-20.112,24.432l2.126,1.733l18.777-19.195c0,0,0.717-0.735,0.948-1.01
		c2.631-3.186,3.503-7.275,2.712-11.021C62.38,99.774,74.805,95.314,76.514,93.207c1.34-1.608,16.333-19.85,24.98-30.364H88.303
		c-8.305,10.1-18.348,22.288-19.601,23.818C66.713,89.07,62.804,102.789,49.301,104.248"/>
</g>
</svg>
