<?xml version="1.0" encoding="utf-8"?>
<!-- Generator: Adobe Illustrator 16.0.0, SVG Export Plug-In . SVG Version: 6.00 Build 0)  -->
<!DOCTYPE svg PUBLIC "-//W3C//DTD SVG 1.1//EN" "http://www.w3.org/Graphics/SVG/1.1/DTD/svg11.dtd">
<svg version="1.1" id="Layer_1" xmlns="http://www.w3.org/2000/svg" xmlns:xlink="http://www.w3.org/1999/xlink" x="0px" y="0px"
	 width="100px" height="100px" viewBox="0 0 100 100" enable-background="new 0 0 100 100" xml:space="preserve">
<g>
	<g>
		<g>
			<path fill="#2992D0" d="M9.338,70.243c0,0,16.556-7.652,37.529-34.042c1.065-1.338,5.495-7.132,11.635-6.829
				c1.306,0.064,7.231,0.722,7.588,12.436c-0.867,0.867-2.96,2.242-2.96,2.242s2.016-12.814-5.062-12.508
				c-2.035,0.089-5.052,0.514-10.914,7.231C39.064,48.039,21.654,66.706,9.338,70.243z"/>
		</g>
		<defs>
			<filter id="Adobe_OpacityMaskFilter" filterUnits="userSpaceOnUse" x="9.338" y="29.361" width="56.752" height="40.882">
				
					<feColorMatrix  type="matrix" values="-1 0 0 0 1  0 -1 0 0 1  0 0 -1 0 1  0 0 0 1 0" color-interpolation-filters="sRGB" result="source"/>
			</filter>
		</defs>
		<mask maskUnits="userSpaceOnUse" x="9.338" y="29.361" width="56.752" height="40.882" id="SVGID_1_">
			<g filter="url(#Adobe_OpacityMaskFilter)">
				
					<image overflow="visible" width="276" height="204" xlink:href="6E71E2B0.jpg"  transform="matrix(0.2194 0 0 0.2194 7.5088 27.5317)">
				</image>
			</g>
		</mask>
		<g opacity="0.8" mask="url(#SVGID_1_)">
			<path fill="#2C5DA9" d="M9.338,70.243c0,0,16.556-7.652,37.529-34.042c1.065-1.338,5.495-7.132,11.635-6.829
				c1.306,0.064,7.231,0.722,7.588,12.436c-0.867,0.867-2.96,2.242-2.96,2.242s2.016-12.814-5.062-12.508
				c-2.035,0.089-5.052,0.514-10.914,7.231C39.064,48.039,21.654,66.706,9.338,70.243z"/>
		</g>
	</g>
	<g>
		<g>
			<path fill="#897147" d="M68.81,39.249c0,0,3.146-3.117,11.69-7.169c0.227-0.111-3.587,7.355-4.988,8.79
				C75.387,40.997,76.385,36.909,68.81,39.249z"/>
		</g>
		<defs>
			<filter id="Adobe_OpacityMaskFilter_1_" filterUnits="userSpaceOnUse" x="68.81" y="32.079" width="11.7" height="8.794">
				
					<feColorMatrix  type="matrix" values="-1 0 0 0 1  0 -1 0 0 1  0 0 -1 0 1  0 0 0 1 0" color-interpolation-filters="sRGB" result="source"/>
			</filter>
		</defs>
		<mask maskUnits="userSpaceOnUse" x="68.81" y="32.079" width="11.7" height="8.794" id="SVGID_2_">
			<g filter="url(#Adobe_OpacityMaskFilter_1_)">
				
					<image overflow="visible" width="70" height="57" xlink:href="6E71E2B1.jpg"  transform="matrix(0.2194 0 0 0.2194 66.9795 30.252)">
				</image>
			</g>
		</mask>
		<g opacity="0.6" mask="url(#SVGID_2_)">
			<path fill="#6B4720" d="M68.81,39.249c0,0,3.146-3.117,11.69-7.169c0.227-0.111-3.587,7.355-4.988,8.79
				C75.387,40.997,76.385,36.909,68.81,39.249z"/>
		</g>
	</g>
	<g>
		<g>
			<path fill="#897147" d="M79.925,39.613c0,0,3.004-3.182,11.289-7.448c0.225-0.117-3.313,7.4-4.647,8.862
				C86.444,41.156,87.305,37.074,79.925,39.613z"/>
		</g>
		<defs>
			<filter id="Adobe_OpacityMaskFilter_2_" filterUnits="userSpaceOnUse" x="79.925" y="32.164" width="11.299" height="8.867">
				
					<feColorMatrix  type="matrix" values="-1 0 0 0 1  0 -1 0 0 1  0 0 -1 0 1  0 0 0 1 0" color-interpolation-filters="sRGB" result="source"/>
			</filter>
		</defs>
		<mask maskUnits="userSpaceOnUse" x="79.925" y="32.164" width="11.299" height="8.867" id="SVGID_3_">
			<g filter="url(#Adobe_OpacityMaskFilter_2_)">
				
					<image overflow="visible" width="69" height="58" xlink:href="6E71E2B7.jpg"  transform="matrix(0.2194 0 0 0.2194 78.0986 30.3354)">
				</image>
			</g>
		</mask>
		<g opacity="0.6" mask="url(#SVGID_3_)">
			<path fill="#6B4720" d="M79.925,39.613c0,0,3.004-3.182,11.289-7.448c0.225-0.117-3.313,7.4-4.647,8.862
				C86.444,41.156,87.305,37.074,79.925,39.613z"/>
		</g>
	</g>
	<g>
		<g>
			<path fill="#2992D0" d="M66.157,47.258l-3.299,2.433l-0.442,3.618c0,0,2.934-1.375,3.62-2.126
				C66.157,49.623,66.157,47.258,66.157,47.258z"/>
		</g>
		<defs>
			<filter id="Adobe_OpacityMaskFilter_3_" filterUnits="userSpaceOnUse" x="62.416" y="47.258" width="3.741" height="6.051">
				
					<feColorMatrix  type="matrix" values="-1 0 0 0 1  0 -1 0 0 1  0 0 -1 0 1  0 0 0 1 0" color-interpolation-filters="sRGB" result="source"/>
			</filter>
		</defs>
		<mask maskUnits="userSpaceOnUse" x="62.416" y="47.258" width="3.741" height="6.051" id="SVGID_4_">
			<g filter="url(#Adobe_OpacityMaskFilter_3_)">
				
					<image overflow="visible" width="34" height="45" xlink:href="6E71E2B2.jpg"  transform="matrix(0.2194 0 0 0.2194 60.5889 45.4282)">
				</image>
			</g>
		</mask>
		<g opacity="0.8" mask="url(#SVGID_4_)">
			<path fill="#2C5DA9" d="M66.157,47.258l-3.299,2.433l-0.442,3.618c0,0,2.934-1.375,3.62-2.126
				C66.157,49.623,66.157,47.258,66.157,47.258z"/>
		</g>
	</g>
	<g>
		<g>
			<path fill="#2992D0" d="M74.01,40.401c-3.551,3.243-13.324,10.121-18.447,13.716c-0.764,0.532-14.585,11.093-7.292,17.515
				c1.287,1.134,10.097,2.988,13.154-13.343c1.119-0.183,3.489-0.558,3.8-1.303c-0.494,2.426-2.111,18.523-15.021,15.766
				c-1.065-0.224-9.681-3.395-6.355-10.591c0.59-1.298,2.882-6.398,11.469-11.722c1.499-0.932,10.721-7.794,13.898-10.161
				C70.177,39.559,75.447,39.095,74.01,40.401z"/>
		</g>
		<defs>
			<filter id="Adobe_OpacityMaskFilter_4_" filterUnits="userSpaceOnUse" x="43.088" y="39.575" width="31.169" height="33.494">
				
					<feColorMatrix  type="matrix" values="-1 0 0 0 1  0 -1 0 0 1  0 0 -1 0 1  0 0 0 1 0" color-interpolation-filters="sRGB" result="source"/>
			</filter>
		</defs>
		<mask maskUnits="userSpaceOnUse" x="43.088" y="39.575" width="31.169" height="33.494" id="SVGID_5_">
			<g filter="url(#Adobe_OpacityMaskFilter_4_)">
				
					<image overflow="visible" width="159" height="170" xlink:href="6E71E2B3.jpg"  transform="matrix(0.2194 0 0 0.2194 41.2568 37.7456)">
				</image>
			</g>
		</mask>
		<g opacity="0.8" mask="url(#SVGID_5_)">
			<path fill="#2C5DA9" d="M74.01,40.401c-3.551,3.243-13.324,10.121-18.447,13.716c-0.764,0.532-14.585,11.093-7.292,17.515
				c1.287,1.134,10.097,2.988,13.154-13.343c1.119-0.183,3.489-0.558,3.8-1.303c-0.494,2.426-2.111,18.523-15.021,15.766
				c-1.065-0.224-9.681-3.395-6.355-10.591c0.59-1.298,2.882-6.398,11.469-11.722c1.499-0.932,10.721-7.794,13.898-10.161
				C70.177,39.559,75.447,39.095,74.01,40.401z"/>
		</g>
	</g>
	<g>
		<g>
			<path fill="#448C46" d="M52.385,57.48l3.551-2.866c0,0,6.101,1.133,11.092-3.164c2.299-1.981,9.45-7.776,12.66-10.299
				c0.69-0.546,1.426-1.096,3.363-1.059c1.059,0.021,2.715,0.107,1.538,1.215c-0.963,0.908-13.042,10.59-17.622,13.806
				c-1.402,0.988-3.951,2.484-6.355,2.619C58.82,57.83,58.872,57.57,52.385,57.48z"/>
		</g>
		<defs>
			<filter id="Adobe_OpacityMaskFilter_5_" filterUnits="userSpaceOnUse" x="52.385" y="40.09" width="32.609" height="17.664">
				
					<feColorMatrix  type="matrix" values="-1 0 0 0 1  0 -1 0 0 1  0 0 -1 0 1  0 0 0 1 0" color-interpolation-filters="sRGB" result="source"/>
			</filter>
		</defs>
		<mask maskUnits="userSpaceOnUse" x="52.385" y="40.09" width="32.609" height="17.664" id="SVGID_6_">
			<g filter="url(#Adobe_OpacityMaskFilter_5_)">
				
					<image overflow="visible" width="166" height="98" xlink:href="6E71E2BE.jpg"  transform="matrix(0.2194 0 0 0.2194 50.5547 38.2622)">
				</image>
			</g>
		</mask>
		<g opacity="0.54" mask="url(#SVGID_6_)">
			<path fill="#396743" d="M52.385,57.48l3.551-2.866c0,0,6.101,1.133,11.092-3.164c2.299-1.981,9.45-7.776,12.66-10.299
				c0.69-0.546,1.426-1.096,3.363-1.059c1.059,0.021,2.715,0.107,1.538,1.215c-0.963,0.908-13.042,10.59-17.622,13.806
				c-1.402,0.988-3.951,2.484-6.355,2.619C58.82,57.83,58.872,57.57,52.385,57.48z"/>
		</g>
	</g>
	<g>
		<g>
			<path fill="#448C46" d="M48.562,54.983c0,0-2.105,2.003-2.26,2.157c-0.565,0.103-15.359-0.462-15.359-0.462l1.232-0.977
				L48.562,54.983z"/>
		</g>
		<defs>
			<filter id="Adobe_OpacityMaskFilter_6_" filterUnits="userSpaceOnUse" x="30.943" y="54.983" width="17.619" height="2.17">
				
					<feColorMatrix  type="matrix" values="-1 0 0 0 1  0 -1 0 0 1  0 0 -1 0 1  0 0 0 1 0" color-interpolation-filters="sRGB" result="source"/>
			</filter>
		</defs>
		<mask maskUnits="userSpaceOnUse" x="30.943" y="54.983" width="17.619" height="2.17" id="SVGID_7_">
			<g filter="url(#Adobe_OpacityMaskFilter_6_)">
				
					<image overflow="visible" width="97" height="27" xlink:href="6E71E2BF.jpg"  transform="matrix(0.2194 0 0 0.2194 29.1172 53.1543)">
				</image>
			</g>
		</mask>
		<g opacity="0.54" mask="url(#SVGID_7_)">
			<path fill="#396743" d="M48.562,54.983c0,0-2.105,2.003-2.26,2.157c-0.565,0.103-15.359-0.462-15.359-0.462l1.232-0.977
				L48.562,54.983z"/>
		</g>
	</g>
	<g>
		<g>
			<path fill="#448C46" d="M28.016,55.809c0,0-7.806,0.663-10.063,1.332c0.921-0.051,7.905-0.359,8.936-0.309
				C27.352,56.318,28.016,55.809,28.016,55.809z"/>
		</g>
		<defs>
			<filter id="Adobe_OpacityMaskFilter_7_" filterUnits="userSpaceOnUse" x="17.954" y="55.809" width="10.063" height="1.332">
				
					<feColorMatrix  type="matrix" values="-1 0 0 0 1  0 -1 0 0 1  0 0 -1 0 1  0 0 0 1 0" color-interpolation-filters="sRGB" result="source"/>
			</filter>
		</defs>
		<mask maskUnits="userSpaceOnUse" x="17.954" y="55.809" width="10.063" height="1.332" id="SVGID_8_">
			<g filter="url(#Adobe_OpacityMaskFilter_7_)">
				
					<image overflow="visible" width="63" height="23" xlink:href="6E71E2B4.jpg"  transform="matrix(0.2194 0 0 0.2194 16.124 53.9746)">
				</image>
			</g>
		</mask>
		<g opacity="0.54" mask="url(#SVGID_8_)">
			<path fill="#396743" d="M28.016,55.809c0,0-7.806,0.663-10.063,1.332c0.921-0.051,7.905-0.359,8.936-0.309
				C27.352,56.318,28.016,55.809,28.016,55.809z"/>
		</g>
	</g>
</g>
</svg>
