<?xml version="1.0" encoding="utf-8"?>
<!-- Generator: Adobe Illustrator 18.1.0, SVG Export Plug-In . SVG Version: 6.00 Build 0)  -->
<svg version="1.0" id="Layer_1" xmlns="http://www.w3.org/2000/svg" xmlns:xlink="http://www.w3.org/1999/xlink" x="0px" y="0px"
	 viewBox="0 0 150 150" enable-background="new 0 0 150 150" xml:space="preserve">
<path fill="#9DD6C9" d="M96,16.4c0,0,0-0.1,0.1-0.1c-0.2,0.2-0.3,0.3-0.5,0.5C95.8,16.7,95.9,16.6,96,16.4z"/>
<g>
	<g>
		<path fill="#28584E" d="M117.3,43.9C102.5,31.1,87.6,18.3,72.8,5.4C51.4,11.2,4,28.3,25.5,133.8l0.1,0.5l0.1,0.8
			c4.2,0.2,8.5,0.3,12.7,0.2c0-23.4-16.9-93.7,34.3-111.5c12.3,10.6,25.4,22.1,38,33.1l2.4-4.6C113.8,50.9,115.3,47.8,117.3,43.9z"
			/>
		<path fill="#00A98E" d="M71.1,44.5c-3.2,0-6.4,0-9.6,0c0,3.2,0,6.4,0,9.6c3.2,0,6.4,0,9.5,0.1C71.1,51,71.1,47.7,71.1,44.5z"/>
		<path fill="#00A98E" d="M83.9,44.5c-3.2,0-6.4,0-9.6,0c0,3.2,0,6.4,0,9.6c3.2,0,6.4,0,9.6,0.1C83.9,50.9,83.9,47.7,83.9,44.5z"/>
		<path fill="#00A98E" d="M61.5,66.9c3.2,0,6.4,0,9.5,0c0-3.2,0-6.4,0.1-9.6c-3.2,0-6.4,0-9.6,0C61.5,60.5,61.5,63.7,61.5,66.9z"/>
		<path fill="#00A98E" d="M74.3,66.9c3.2,0,6.3,0,9.5,0c0-3.2,0-6.4,0-9.6c-3.2,0-6.4,0-9.6,0.1C74.3,60.5,74.3,63.7,74.3,66.9z"/>
	</g>
	<g>
		<path fill="#00A98E" d="M120.4,100.3c-2.4-1.6-5.1-2.9-7.6-4.5c-2.2,3.1-4,6.4-5.9,9.7c-1.1,1.6-2.1,3.2-3.1,4.8
			c-1.5,2.1-3,4.1-4.5,6.2c-1.9,2.4-4,4.7-5.9,7c-7,7.4-14.9,15.1-25.2,17.5c7.6,2.6,16.5,4.5,24.1,0.7c8.1-4.2,14.4-11.2,19.9-18.3
			h0.1c1.7-2.3,3.4-4.6,4.9-7c0.8-1.1,1.7-2.3,2.5-3.4c1.2-1.9,2.3-3.8,3.3-5.8C123.5,104.7,122.7,101.8,120.4,100.3z"/>
		<path fill="#00A98E" d="M120.3,46c-2.4,4.9-1.2,2.6-3.5,7.5c-2.7,5.3-5.5,10.6-8.1,16c4.4,2.6,8.9,4.9,13.2,7.6
			c3.9-6.6,5.7-10.7,9.3-17.5l2-3.7c-0.2,0-1.2,2.4,0,0C133.4,55.8,124.6,49.4,120.3,46z"/>
		<path fill="#00A98E" d="M110.6,76.1c-3.6-2.2-7.2-4.8-11.4-5.7c-3.8-0.7-6.1,3.1-7.4,6.1c-0.4,0.6-1.2,1.8-1.6,2.5
			c2,1.2,4.1,2.4,6.2,3.5c3,1.7,5.9,3.4,8.9,5.1c5.8,3.3,11.6,6.6,17.4,9.8c2-3.3,4.5-6.7,3.9-10.7
			C125.4,83.8,113.8,77.6,110.6,76.1z"/>
		<path fill="#00A98E" d="M78.8,111.7c1.8-2.2,3.5-4.6,5-7.1l0.2,0c2-3.1,4-6.3,6-9.4c1.8-3.1,3.7-6.2,5.3-9.4c-4-3-9-5.7-14.2-4.2
			c-4.2,1.4-5.7,6-7.3,9.7c-2.2,4.2-4.7,8.3-7.2,12.4c-1.9,2.7-3.8,5.4-5.8,8.1c-4.6,5.5-9.7,12-17.2,13.3c3,2.8,6,6.2,10.4,6.6
			c4.7,0.2,9-2.5,12.3-5.7C70.9,121.5,75,116.7,78.8,111.7z"/>
		<path fill="#00A98E" d="M94.8,118.2c1.8-2.2,3.5-4.6,5.2-6.9c1.5-2.3,3.2-4.5,4.4-6.9c2-2.7,3.6-5.6,5.3-8.5l0.7-0.3
			c-3.7-3.6-8.8-5.5-13.3-7.9c-1.6,3-3.4,5.9-5,8.9c-1.5,2.2-3,4.4-4.3,6.6c-1.2,1.7-2.3,3.5-3.4,5.2c-2.2,2.9-4.5,5.9-6.8,8.8
			c-6.2,7.1-13.1,15-22.8,16.9c6.4,5.5,16.3,6.4,23.3,1.5C84.6,130.8,89.7,124.4,94.8,118.2z"/>
	</g>
</g>
</svg>
