<?xml version="1.0" encoding="utf-8"?>
<!-- Generator: Adobe Illustrator 18.1.0, SVG Export Plug-In . SVG Version: 6.00 Build 0)  -->
<svg version="1.0" id="Layer_1" xmlns="http://www.w3.org/2000/svg" xmlns:xlink="http://www.w3.org/1999/xlink" x="0px" y="0px"
	 viewBox="0 0 150 150" enable-background="new 0 0 150 150" xml:space="preserve">
<g>
	<path fill="#7C993D" d="M32.1,71.8C31.5,54.4,38.2,38.6,49,27.9c-16.4,10-26.5,28.2-24.3,47.8C26.4,92,36.3,105.6,50,113.2
		C39.5,103.2,32.5,88.4,32.1,71.8z"/>
	<path fill="#00AFEF" d="M98.6,89.9c6.3-10.1,15.6-18.2,26.7-22.7c-3-24.2-24.8-41.5-49.1-38.9c-19.7,2.2-35,16.8-38.8,35.2
		c4.2-1.1,8.6-1.7,13.1-1.7C70.8,61.9,88.9,73.2,98.6,89.9z"/>
	<path fill="#ED9522" d="M88.8,116.6c23-4,39.2-25.2,36.7-48.8c-0.1-1.2-0.3-2.4-0.6-3.5C102.5,71.8,87.4,93,88.8,116.6z"/>
	<path fill="#F0A263" d="M95.4,114.9c17.4-5.9,29.6-22.2,30.2-40.8C109.2,81.8,97.7,97.1,95.4,114.9z"/>
	<path fill="#7C993D" d="M85.9,117c7.6-0.8,14.6-3.6,20.5-7.6C102.6,78.8,73.8,57,41.7,60.5c-1.3,0.1-2.5,0.4-3.7,0.6
		c-1.4,5.2-1.9,10.7-1.3,16.4C39.4,102,61.4,119.7,85.9,117z"/>
	<path fill="#B5D453" d="M36.5,71.3c-0.1,2,0,4.1,0.2,6.2c2.7,24.5,24.7,42.2,49.2,39.5c4.5-0.5,8.9-1.7,12.8-3.4
		C92,87,65.8,68.7,36.5,71.3z"/>
	<path fill="#D4E1A4" d="M37.4,81.8c4.6,22.2,25.5,37.7,48.5,35.2c0.5-0.1,1-0.2,1.6-0.3C79.3,97,59.9,83.3,37.4,81.8z"/>
	<path fill="#7C993D" d="M21.3,67c-1.3,5.2-6.5,8.3-11.7,7c-5.2-1.3-8.3-6.5-7-11.7c1.3-5.2,6.5-8.3,11.7-7
		C19.5,56.6,22.6,61.8,21.3,67z"/>
	<path fill="#ED9522" d="M107.4,112.9c-14.5,9.7-31.4,12.4-46.2,8.9c17.1,8.6,37.9,7.5,53.4-4.7c12.9-10.2,19.2-25.7,18.4-41.4
		C130.1,89.9,121.2,103.6,107.4,112.9z"/>
	<path fill="#ED9522" d="M109,124.5c5.1-1.6,10.5,1.1,12.1,6.2c1.6,5-1.1,10.5-6.2,12.1c-5.1,1.6-10.5-1.1-12.1-6.2
		C101.1,131.6,103.9,126.1,109,124.5z"/>
	<path fill="#00AFEF" d="M102.6,28.7c15.6,7.8,26.3,21.1,30.6,35.7c-1-19.2-12.3-36.7-30.6-44.1c-15.2-6.2-31.8-3.9-45.1,4.6
		C71.5,20.3,87.7,21.2,102.6,28.7z"/>
	<path fill="#00AFEF" d="M111.9,21.5c-3.9-3.6-4.2-9.7-0.6-13.6c3.6-3.9,9.7-4.2,13.6-0.6c3.9,3.6,4.2,9.7,0.6,13.6
		C122,24.8,115.9,25.1,111.9,21.5z"/>
	<path d="M91.6,47.3l3.7,3.3c0,0,1.1-2.9,3.3-2.9c0,0-2.6,1.4-3.3,3.5C95.3,51.2,94.3,50,91.6,47.3z"/>
	<path d="M88.7,42.7l3,2.7c0,0,0.9-2.4,2.7-2.4c0,0-2.1,1.1-2.7,2.9C91.7,45.9,90.9,44.9,88.7,42.7z"/>
	<path d="M85.2,36.4l2.2,1.9c0,0,0.6-1.7,1.9-1.7c0,0-1.5,0.8-1.9,2.1C87.3,38.7,86.8,38,85.2,36.4z"/>
</g>
</svg>
