<?xml version="1.0" encoding="utf-8"?>
<!-- Generator: Adobe Illustrator 18.1.0, SVG Export Plug-In . SVG Version: 6.00 Build 0)  -->
<svg version="1.1" id="Layer_1" xmlns="http://www.w3.org/2000/svg" xmlns:xlink="http://www.w3.org/1999/xlink" x="0px" y="0px"
	 viewBox="0 0 150 150" enable-background="new 0 0 150 150" xml:space="preserve">
<g>
	<path fill="none" d="M45.8,94.9c2.9,2.6,6.1,4.8,9.3,6.6C47.7,95.3,43,86,43,75.5c0-9.7,4.1-18.5,10.8-24.7c0.5-0.4,1-0.9,1.4-1.3
		c-0.8,0.4-1.5,0.9-2.2,1.3c-0.6,0.4-1.1,0.7-1.7,1.1c-8.2,5.5-15.1,13.5-20,23.6C35,83.3,40,89.8,45.8,94.9z"/>
	<path fill="none" d="M58.1,69.5c1.2,1.3,3,2.1,4.9,2.1c3.8,0,6.8-3.1,6.8-6.8c0-2.5-1.3-4.7-3.4-5.9c-1-0.6-2.2-1-3.5-1
		c-3.8,0-6.8,3.1-6.8,6.8C56.2,66.6,57,68.2,58.1,69.5z"/>
	<path fill="none" d="M110.6,75.5c0,7.3-2.3,14-6.2,19.5c-1.7,2.4-3.7,4.6-6,6.4c4.3-2.3,8.3-5.3,11.9-8.9c4.7-4.7,8.9-10.4,12.1-17
		c-5.7-11.6-14.1-20.6-24-26C105.8,55.8,110.6,65.1,110.6,75.5z"/>
	<path fill="none" d="M76.8,12.9C58.5,12.9,39,19,26.1,24.2L25,24.5v49v1.9l0.6-1c0.5-1,0.8-2,1.3-2.9c0.4-0.7,1-1.5,1-2.2V26.6
		l1.8-0.6c11.8-4.7,29.4-10.3,46.2-10.3c17.1,0,35.1,5.5,47,10l1.9,0.6v31.4c-11-11.7-24.9-18.5-39.7-18.5c0,0-0.2,0-0.2,0
		c16,2.7,30.3,13.3,39.6,29.2c1.1,1.9,2.1,3.9,3.1,5.9l0.5,1.1l-0.5,1.1c0,0,0.1,0.1,0.1,0.1c-0.9,2-1.9,3.9-2.9,5.8v3.8
		c0,7-9.5,18-25.1,29.5c-8,5.9-16.3,10.9-21.8,14l-1.3,0.7l-1.3-0.7c-5.5-3-13.8-7.9-22-13.8c-12.5-9-21-17.7-23.9-24.4
		c10.9,13.9,26.2,22.1,42.6,22.1c5.6,0,11.1-1,16.4-2.8c-3.4,0.8-6.9,1.3-10.5,1.4c-0.3,0-0.7,0-1,0c-0.1,0-0.2,0-0.3,0
		c-19.4,0-37.5-11.6-48.3-30.7c-0.9-1.7-2-3.4-2.8-5.1l-0.6-1v10.1v5c0,7.1,10.6,19,27.4,31.1c8.9,6.4,18.2,11.8,24.3,15.1l0.8,0.4
		l0.8-0.4c6-3.4,14.9-8.9,23.8-15.4c16.6-12.3,26.9-24.4,26.9-31.6V76.1V63.3v-39l-0.9-0.4C115,18.9,95.5,12.9,76.8,12.9z"/>
	<path fill="#5ABB92" d="M76.8,103.6c15.5,0,28.1-12.6,28.1-28.1S92.3,47.4,76.8,47.4S48.7,60,48.7,75.5S61.3,103.6,76.8,103.6z
		 M63.1,57.9c1.3,0,2.5,0.4,3.5,1c3-1.8,6.5-2.9,10.2-2.9c10.8,0,19.6,8.8,19.6,19.6c0,10.8-8.8,19.6-19.6,19.6
		c-10.8,0-19.6-8.8-19.6-19.6c0-2.1,0.3-4.2,1-6.1c-1.2-1.2-1.9-2.9-1.9-4.7C56.2,61,59.3,57.9,63.1,57.9z"/>
	<path fill="#F69220" d="M28.5,81.8c10.8,19.1,28.9,30.7,48.3,30.7c0.1,0,0.2,0,0.3,0c0.3,0,0.7,0,1,0c3.6-0.1,7.1-0.6,10.5-1.4
		c14.5-3.6,27.5-13.7,36.1-28.5c1.1-1.9,2.1-3.8,3.1-5.8c0,0,0-0.1,0.1-0.1l0.5-1.1l-0.5-1.1c-1-2.1-2-4-3.1-5.9
		c-9.3-15.9-23.7-26.5-39.7-29.2c-2.7-0.5-5.4-0.7-8.2-0.7c-19.4,0-37.5,11.6-48.3,30.7c-0.4,0.7-0.8,1.4-1.2,2.2
		c-0.5,1-1.2,1.9-1.6,2.9l-0.6,1v0.3l0.6,1C26.5,78.4,27.5,80.1,28.5,81.8z M122.4,75.5c-3.2,6.6-7.3,12.3-12.1,17
		c-3.6,3.6-7.6,6.6-11.9,8.9c2.3-1.9,4.3-4,6-6.4c3.9-5.5,6.2-12.3,6.2-19.5c0-10.4-4.8-19.8-12.2-26
		C108.2,54.9,116.7,63.9,122.4,75.5z M76.8,47.4c15.5,0,28.1,12.6,28.1,28.1s-12.6,28.1-28.1,28.1S48.7,91,48.7,75.5
		S61.3,47.4,76.8,47.4z M51.2,52c0.6-0.4,1.1-0.7,1.7-1.1c0.7-0.5,1.5-0.9,2.2-1.3c-0.5,0.4-1,0.8-1.4,1.3C47.1,57,43,65.8,43,75.5
		c0,10.4,4.7,19.8,12.2,26c-3.3-1.8-6.4-4-9.3-6.6C40,89.8,35,83.3,31.2,75.5C36.1,65.5,43.1,57.4,51.2,52z"/>
	<path fill="#2E4548" d="M76.5,38.6c2.8,0,5.6,0.2,8.3,0.7c0,0,0.3,0,0.4,0c14.9,0,28.8,6.8,39.8,18.5V26.4l-1.8-0.6
		c-11.9-4.6-29.8-10-46.9-10c-16.8,0-34.6,5.6-46.4,10.3L28,26.6v42.7C39,50.2,57.1,38.6,76.5,38.6z"/>
	<path fill="#2E4548" d="M88.7,111.1c-5.3,1.8-10.8,2.8-16.5,2.8c-16.3,0-31.7-8.2-42.6-22.1c2.9,6.7,11.4,15.4,23.9,24.4
		c8.1,5.8,16.4,10.7,21.9,13.8l1.3,0.7l1.3-0.7c5.5-3.1,13.9-8.1,21.9-14c15.6-11.5,25.1-22.5,25.1-29.5v-3.8
		C116,97.3,103.3,107.5,88.7,111.1z"/>
	<path fill="#2E4548" d="M69.9,64.7c0,3.8-3.1,6.8-6.8,6.8c-1.9,0-3.7-0.8-4.9-2.1c-0.6,1.9-1,3.9-1,6.1c0,10.8,8.8,19.6,19.6,19.6
		c10.8,0,19.6-8.8,19.6-19.6c0-10.8-8.8-19.6-19.6-19.6c-3.8,0-7.3,1.1-10.2,2.9C68.5,60,69.9,62.2,69.9,64.7z"/>
	<path fill="#2E4548" d="M129.2,21.4C115.9,16.2,96,10.1,76.9,10.1c-18.8,0-38.3,6.2-51.4,11.5L23,22.7v52.2v6v9.9
		c0,8.2,10.1,20.4,28.2,33.3c9,6.5,18.2,11.9,24.4,15.3l2.1,1.2l2.1-1.2c6.1-3.4,15.2-9,24.2-15.6c17.9-13.2,28.2-25.5,28.2-33.8
		V76.1v-8.7v-45L129.2,21.4z M129,63.3v12.8v13.8c0,7.2-10.3,19.3-26.9,31.6c-8.9,6.6-17.9,12-23.9,15.4l-0.7,0.4l-0.8-0.4
		c-6.1-3.4-15.4-8.7-24.3-15.1C35.6,109.7,25,97.8,25,90.7v-5V75.7v-0.3v-1.9v-49l1.1-0.4C39,19,58.4,12.9,76.8,12.9
		c18.7,0,38.2,6,51.3,11l0.9,0.4V63.3z"/>
</g>
</svg>
