<?xml version="1.0" encoding="utf-8"?>
<!-- Generator: Adobe Illustrator 18.1.0, SVG Export Plug-In . SVG Version: 6.00 Build 0)  -->
<svg version="1.0" id="Layer_1" xmlns="http://www.w3.org/2000/svg" xmlns:xlink="http://www.w3.org/1999/xlink" x="0px" y="0px"
	 viewBox="0 0 150 150" enable-background="new 0 0 150 150" xml:space="preserve">
<g>
	<g>
		<path fill="#A9D16E" d="M60.6,24.9c4.5-3.6,10.2,3.3,14.2-1.6c-2.4-2.2-5.7-3.4-9.3-2.2c4-1.8,7-0.8,9.7,1
			C74.8,14.8,63,15.7,60.6,24.9L60.6,24.9z"/>
		<path fill="#A9D16E" d="M122.1,46.6c-0.1-1.9-3-1.7-2.7-3.7c1,0.1,2.1,0.6,2.6,1.8c-0.4-1.3-1.3-1.9-2.4-2.1
			C121.4,41,123.8,44,122.1,46.6L122.1,46.6z"/>
		<path fill="#A9D16E" d="M44.2,33.3c-2.4,0.5-3.2-3.2-5.6-2.1c0.5,1.3,1.5,2.4,3.1,2.6c-1.8-0.1-2.8-1-3.5-2.2
			C37,34.4,41.5,36.3,44.2,33.3L44.2,33.3z"/>
		<path fill="#A9D16E" d="M119,62.4c0.9-1.5-1.3-2.9,0-4.3c0.7,0.6,1.2,1.6,0.9,2.7c0.4-1.2,0-2.1-0.6-2.9
			C121.6,57.8,121.7,61.3,119,62.4L119,62.4z"/>
		<path fill="#A9D16E" d="M122.8,72.4c0.8,2.3,4.4,1.2,4.7,3.9c-1.4,0.2-2.8-0.1-3.9-1.4c1,1.6,2.3,1.9,3.7,1.9
			C125.5,79.4,121.5,76.3,122.8,72.4L122.8,72.4z"/>
		<path fill="#20816D" d="M134,69.5c-1.4,3.1-6.2,1.1-6.9,4.7c1.8,0.5,3.9,0.2,5.4-1.4c-1.6,2-3.4,2.3-5.3,2.1
			C129.4,78.6,135.3,74.9,134,69.5L134,69.5z"/>
		<path fill="#A9D16E" d="M122.3,80.2c3.5,1.1,5.3-4.3,8.8-2.2c-1,1.8-2.6,3.3-5.1,3.4c2.8,0.2,4.4-1.1,5.6-2.8
			C133,83.1,125.8,85.2,122.3,80.2L122.3,80.2z"/>
		<path fill="#A9D16E" d="M137.7,87.4c-0.7-2.6-4.8-1.6-5-4.6c1.5-0.2,3.1,0.3,4.2,1.8c-1-1.8-2.5-2.2-4-2.3
			C135.1,79.6,139.3,83.2,137.7,87.4L137.7,87.4z"/>
		<path fill="#A9D16E" d="M134.5,74.1c2.3-1.6-0.1-5.1,2.7-6.2c0.7,1.4,0.8,3.1-0.3,4.6c1.4-1.6,1.3-3.1,0.9-4.6
			C141.1,69.1,139.1,74.3,134.5,74.1L134.5,74.1z"/>
		<path fill="#98C856" d="M131.6,82.8c-3,3.8-8.9-0.6-11.2,4.2c2.4,1.3,5.3,1.6,8-0.1c-2.9,2.2-5.5,2-8.1,1.2
			C122.2,93.9,131.5,90.8,131.6,82.8L131.6,82.8z"/>
		<path fill="#A9D16E" d="M17.5,69.9c-1.2,1.4,0.9,3.4-0.8,4.6c-0.7-0.8-1-1.9-0.6-3.1c-0.6,1.3-0.4,2.3,0.2,3.2
			C13.9,74.4,14.4,70.6,17.5,69.9L17.5,69.9z"/>
		<path fill="#A9D16E" d="M98.7,28.5c-0.7-2-3.8-0.9-4.1-3.2c1.2-0.2,2.4,0,3.3,1.1c-0.9-1.3-2-1.6-3.2-1.5
			C96.2,22.7,99.7,25.2,98.7,28.5L98.7,28.5z"/>
		<path fill="#A9D16E" d="M122.4,119.7c-0.1-2.9,4.3-3.1,3.4-6.2c-1.6,0.3-3,1.3-3.6,3.1c0.4-2.1,1.7-3,3.2-3.6
			C122.5,111.1,119.4,116.1,122.4,119.7L122.4,119.7z"/>
		<path fill="#A9D16E" d="M119.1,107.3c-0.3-1.7,2.2-2.1,1.6-3.8c-0.9,0.3-1.7,1-1.8,2.1c0.1-1.2,0.8-1.9,1.6-2.3
			C118.5,102.3,117.1,105.4,119.1,107.3L119.1,107.3z"/>
		<path fill="#A9D16E" d="M109.6,113.7c0-3.2,4.9-3.4,4.1-6.9c-1.8,0.3-3.5,1.4-4.1,3.4c0.6-2.4,2-3.4,3.8-4
			C109.9,104,106.3,109.5,109.6,113.7L109.6,113.7z"/>
		<path fill="#A9D16E" d="M117.4,123.6c1.5-2.4-2-4.8,0.2-6.9c1.2,1.1,1.9,2.6,1.5,4.4c0.7-2,0.1-3.4-0.9-4.7
			C121.7,116.3,121.8,122.1,117.4,123.6L117.4,123.6z"/>
		<path fill="#A9D16E" d="M106.3,117c0.7-2.3-2.8-3.3-1.5-5.6c1.2,0.6,2.2,1.6,2.2,3.2c0.1-1.8-0.8-2.8-1.9-3.5
			C108,110.1,109.5,114.7,106.3,117L106.3,117z"/>
		<path fill="#A9D16E" d="M98.9,123.2c0.8-3.6,6.4-2.5,6.4-6.6c-2.1-0.1-4.2,0.6-5.5,2.7c1.3-2.5,3.2-3.2,5.3-3.5
			C101.8,112.4,96.3,117.6,98.9,123.2L98.9,123.2z"/>
		<path fill="#A9D16E" d="M100.5,130.3c1.1,1.5-1.1,3.2,0.4,4.5c0.7-0.8,1.1-1.8,0.7-3c0.6,1.3,0.2,2.2-0.4,3.1
			C103.6,134.9,103.4,131.2,100.5,130.3L100.5,130.3z"/>
		<path fill="#A9D16E" d="M102.5,130.4c2.1,1,3.7-2.2,5.7-0.6c-0.7,1.1-1.9,1.9-3.4,1.7c1.7,0.3,2.8-0.3,3.7-1.3
			C108.9,133.1,104.3,133.8,102.5,130.4L102.5,130.4z"/>
		<path fill="#A9D16E" d="M107.5,128.6c4-2.2,0.8-8.5,5.7-9.8c0.8,2.5,0.7,5.2-1.4,7.5c2.6-2.3,2.8-4.9,2.4-7.4
			C119.4,121.5,115,129.8,107.5,128.6L107.5,128.6z"/>
		<path fill="#98C856" d="M110.1,119.4c2-4.5,8.9-1.6,10-6.9c-2.7-0.7-5.6-0.3-7.9,2.1c2.3-2.9,4.9-3.4,7.7-3.1
			C116.7,106.2,108.2,111.5,110.1,119.4L110.1,119.4z"/>
		<path fill="#3C5B56" d="M107.8,117.5c-1.2,5.3-9.3,3.6-9.3,9.6c3.1,0.2,6.1-0.9,8-4c-1.8,3.6-4.6,4.7-7.6,5.1
			C103.5,133.2,111.5,125.6,107.8,117.5L107.8,117.5z"/>
		<path fill="#A9D16E" d="M83.4,129.3c0.5-2.7-3.6-3.5-2.4-6.2c1.4,0.5,2.7,1.6,2.9,3.4c-0.1-2-1.2-3.1-2.6-3.8
			C84.5,121.1,86.7,126.2,83.4,129.3L83.4,129.3z"/>
		<path fill="#A9D16E" d="M74.8,126.5c1-1.9,4-0.4,4.7-2.7c-1.2-0.4-2.5-0.3-3.6,0.7c1.1-1.2,2.3-1.3,3.5-1.1
			C78.1,120.8,74.2,122.9,74.8,126.5L74.8,126.5z"/>
		<path fill="#98C856" d="M97.2,122.7c-0.6,3-5.1,2.1-5,5.5c1.7,0,3.4-0.6,4.4-2.3c-1,2.1-2.5,2.7-4.2,2.9
			C95.1,131.6,99.4,127.2,97.2,122.7L97.2,122.7z"/>
		<path fill="#A9D16E" d="M86.2,122.2c0.9,2.4,4.6,1.2,4.9,4c-1.4,0.2-3-0.1-4-1.4c1.1,1.6,2.4,2,3.9,2
			C89.1,129.4,84.9,126.3,86.2,122.2L86.2,122.2z"/>
		<path fill="#A9D16E" d="M92.7,136.3c3.1-1.3,1.2-6.2,4.9-6.8c0.4,1.9,0.2,3.9-1.5,5.4c2.1-1.5,2.4-3.4,2.3-5.3
			C101.9,131.9,98.1,137.7,92.7,136.3L92.7,136.3z"/>
		<path fill="#A9D16E" d="M82.2,11c1.6,1.8,4.3-0.6,5.5,1.7c-1.1,0.7-2.5,1-3.9,0.2c1.5,1,2.7,0.8,4,0.3
			C87.1,16.1,82.5,14.9,82.2,11L82.2,11z"/>
		<path fill="#A9D16E" d="M16.8,58.6c-1.9-0.3-1.5-3.3-3.6-3.2c0,1.1,0.4,2.2,1.6,2.8c-1.3-0.6-1.8-1.6-1.9-2.7
			C11,57.3,13.9,60,16.8,58.6L16.8,58.6z"/>
		<path fill="#A9D16E" d="M66.7,139.7c-1.7-1.8-4.6,0.7-5.9-1.7c1.2-0.8,2.7-1.1,4.1-0.3c-1.6-1-2.9-0.8-4.2-0.2
			C61.3,134.4,66.3,135.6,66.7,139.7L66.7,139.7z"/>
		<path fill="#20816D" d="M63.8,124.4c3.9-0.6,4.9,5.4,8.9,3.8c-0.7-2.1-2.2-3.9-4.8-4.4c2.9,0.3,4.4,1.9,5.4,3.9
			C75.6,123.2,68.4,119.7,63.8,124.4L63.8,124.4z"/>
		<path fill="#A9D16E" d="M65.1,125.8c-2.3,2.1-5.6-1.4-7.5,1.4c1.4,1.1,3.2,1.6,5.1,0.8c-2.1,1.1-3.7,0.7-5.3-0.2
			C57.9,131.8,64.1,130.9,65.1,125.8L65.1,125.8z"/>
		<path fill="#A9D16E" d="M64,121.5c-2.3,0.9-3.8-2.7-6.1-1.1c0.7,1.2,1.9,2.1,3.6,2.1c-1.9,0.2-3-0.6-3.9-1.6
			C56.8,123.9,61.8,125.1,64,121.5L64,121.5z"/>
		<path fill="#A9D16E" d="M49.4,119.3c2.4,1.3,4.4-2.4,6.7-0.4c-0.9,1.2-2.3,2.1-4.1,1.8c2,0.5,3.3-0.2,4.4-1.3
			C56.8,122.8,51.3,123.4,49.4,119.3L49.4,119.3z"/>
		<path fill="#A9D16E" d="M37.4,104.8c0.4,2.9,4.9,2.4,4.6,5.7c-1.7-0.1-3.3-0.8-4.2-2.6c0.8,2.1,2.3,2.8,3.9,3.1
			C38.9,113.6,34.9,109.1,37.4,104.8L37.4,104.8z"/>
		<path fill="#A9D16E" d="M26.2,99.9c-2.4-1.2-0.7-4.8-3.5-5.5c-0.4,1.4-0.3,3,1,4.3c-1.5-1.3-1.7-2.7-1.5-4.2
			C19.2,96.1,21.9,100.8,26.2,99.9L26.2,99.9z"/>
		<path fill="#A9D16E" d="M30,89.4c-1.4,3.9,4.6,6.1,2.1,10c-2-1.1-3.6-3.1-3.6-5.8c-0.3,3.1,1.1,4.9,2.9,6.4
			C26.4,101.3,24.3,93.1,30,89.4L30,89.4z"/>
		<path fill="#A9D16E" d="M24.8,74.3c1.4-2.5-2.4-4.7-0.3-7c1.3,1,2.1,2.5,1.8,4.4c0.6-2.1-0.2-3.5-1.2-4.7
			C28.6,66.6,29.1,72.4,24.8,74.3L24.8,74.3z"/>
		<path fill="#A9D16E" d="M28.8,62.8c-1.1,1.5-3.5-0.1-4.3,1.9c1,0.4,2.1,0.5,3.1-0.2c-1.1,0.9-2.1,0.9-3.1,0.6
			C25.4,67.3,29,65.9,28.8,62.8L28.8,62.8z"/>
		<path fill="#A9D16E" d="M32.2,51.9c1.5-1.8-1.2-4.1,0.9-5.6c0.8,1,1.3,2.3,0.7,3.8c0.8-1.6,0.4-2.8-0.3-3.9
			C36.5,46.3,36,51,32.2,51.9L32.2,51.9z"/>
		<path fill="#A9D16E" d="M107.3,36.4c-1.1,1.4,0.9,3.2-0.6,4.4c-0.7-0.8-1-1.8-0.6-2.9c-0.6,1.2-0.3,2.2,0.2,3
			C104,40.7,104.4,37.1,107.3,36.4L107.3,36.4z"/>
		<path fill="#A9D16E" d="M108.1,39.5c0.9,2.6,4.9,1.3,5.2,4.3c-1.5,0.2-3.1-0.1-4.3-1.6c1.1,1.7,2.6,2.1,4.1,2.1
			C111.1,47.2,106.7,43.8,108.1,39.5L108.1,39.5z"/>
		<path fill="#3C5B56" d="M104.7,37.2c-3.2-1.3-1.4-6.3-5.1-6.8c-0.4,1.9-0.1,4,1.7,5.5c-2.1-1.5-2.5-3.4-2.4-5.3
			C95.2,33,99.2,38.8,104.7,37.2L104.7,37.2z"/>
		<path fill="#A9D16E" d="M19,44c2.1-1,0.6-4.3,3.1-4.8c0.4,1.3,0.2,2.7-0.9,3.8c1.4-1.1,1.5-2.4,1.4-3.7C25.2,40.7,22.8,44.8,19,44
			L19,44z"/>
		<path fill="#A9D16E" d="M73.6,28.9c-1.7-1.3-3.9,1.3-5.4-0.6c0.9-0.8,2.2-1.3,3.6-0.9c-1.5-0.7-2.7-0.3-3.7,0.4
			C68.1,25.1,72.6,25.4,73.6,28.9L73.6,28.9z"/>
		<path fill="#A9D16E" d="M52.6,26.6c-1.9-1.3-4,1.5-5.6-0.5c0.9-0.9,2.2-1.4,3.7-1c-1.6-0.7-2.8-0.2-3.8,0.5
			C46.9,22.8,51.5,23,52.6,26.6L52.6,26.6z"/>
		<path fill="#20816D" d="M117.4,58.1c1.3-5.3-6.7-7.5-4-12.8c2.8,1.3,5.1,3.6,5.4,7.2c0-4.1-2-6.3-4.5-8
			C120.8,42.1,124.5,52.5,117.4,58.1L117.4,58.1z"/>
		<path fill="#20816D" d="M73.2,25.9c2.7,1.2,4.7-2.9,7.3-1c-0.9,1.4-2.4,2.4-4.4,2.3c2.2,0.4,3.6-0.5,4.8-1.7
			C81.6,29.2,75.6,30.3,73.2,25.9L73.2,25.9z"/>
		<path fill="#A9D16E" d="M86.2,20.7c0.1,3.4-5.1,3.7-4.2,7.4c1.9-0.4,3.6-1.5,4.3-3.7c-0.5,2.5-2.1,3.6-3.9,4.3
			C86.2,31.1,89.9,25.1,86.2,20.7L86.2,20.7z"/>
		<path fill="#A9D16E" d="M88.8,28.4c2.7,1.8,5.6-2.3,8,0.4c-1.3,1.3-3.1,2.2-5.2,1.6c2.3,0.8,4,0.2,5.4-1
			C97.2,33.5,90.6,33.5,88.8,28.4L88.8,28.4z"/>
		<path fill="#A9D16E" d="M67.2,29.1c-3.1-1.5-5.4,3.2-8.4,0.9c1.1-1.6,2.8-2.7,5.1-2.5c-2.5-0.5-4.1,0.5-5.5,1.8
			C57.7,25.1,64.6,24,67.2,29.1L67.2,29.1z"/>
		<path fill="#A9D16E" d="M49.3,36.1C46,36,45.7,41,42.2,40c0.4-1.8,1.5-3.4,3.6-4c-2.4,0.5-3.5,1.9-4.2,3.6
			C39.5,36.1,45.2,32.6,49.3,36.1L49.3,36.1z"/>
		<path fill="#A9D16E" d="M36.6,47.1c1.5-4.4-5.1-6.8-2.5-11.1c2.3,1.3,4.1,3.4,4.1,6.5C38.6,39,37,37,35,35.3
			C40.6,33.8,43,42.8,36.6,47.1L36.6,47.1z"/>
		<path fill="#A9D16E" d="M105,35.5c0.5-4.5-6.4-5.4-4.8-10.1c2.5,0.7,4.6,2.4,5.3,5.3c-0.5-3.4-2.4-5-4.7-6.1
			C105.9,21.8,110.2,30,105,35.5L105,35.5z"/>
		<path fill="#3C5B56" d="M43.3,130.9c3-0.4,3.7,4.2,6.8,3.1c-0.5-1.6-1.6-3.1-3.6-3.5c2.3,0.3,3.4,1.5,4.1,3.1
			C52.4,130.2,46.9,127.4,43.3,130.9L43.3,130.9z"/>
		<path fill="#A9D16E" d="M11.9,92c3.5,1.9,0.6,7.3,4.8,8.5c0.7-2.1,0.7-4.5-1.1-6.5c2.2,2,2.3,4.2,2,6.4
			C22.1,98.3,18.4,91.1,11.9,92L11.9,92z"/>
		<path fill="#A9D16E" d="M37.3,31.4c0.1-2.9-4.4-3.1-3.6-6.2c1.6,0.3,3.1,1.3,3.7,3.1c-0.5-2.1-1.8-3.1-3.3-3.6
			C37.1,22.6,40.3,27.6,37.3,31.4L37.3,31.4z"/>
		<path fill="#98C856" d="M61.7,19.8c-3.7,0.9-2.5,6.7-6.7,6.7c-0.1-2.2,0.5-4.4,2.7-5.8c-2.6,1.3-3.3,3.3-3.5,5.5
			C50.5,23,55.8,17.2,61.7,19.8L61.7,19.8z"/>
		<path fill="#A9D16E" d="M127.5,96.5c-1.3-2-4.4-0.1-5.3-2.6c1.2-0.5,2.7-0.5,3.9,0.5c-1.3-1.2-2.6-1.3-3.9-1
			C123.4,90.6,127.8,92.6,127.5,96.5L127.5,96.5z"/>
		<path fill="#A9D16E" d="M114.6,108.7c1.3-2.7-2.8-4.7-0.8-7.3c1.4,1,2.4,2.4,2.1,4.4c0.4-2.2-0.4-3.6-1.6-4.8
			C118,100.4,118.9,106.4,114.6,108.7L114.6,108.7z"/>
		<path fill="#A9D16E" d="M132.8,104.6c-0.8-3.1,3.9-4.5,2.2-7.6c-1.6,0.8-3,2.2-3.1,4.3c0-2.4,1.1-3.8,2.6-4.8
			C130.7,95.1,128.6,101.3,132.8,104.6L132.8,104.6z"/>
		<path fill="#20816D" d="M13.4,74.2c-0.1-5.8,8.8-6.2,7.2-12.4c-3.2,0.6-6.2,2.5-7.3,6.2c0.9-4.3,3.6-6.1,6.6-7.3
			C13.7,56.7,7.4,66.7,13.4,74.2L13.4,74.2z"/>
		<path fill="#20816D" d="M22.6,66c-1.9,3.2,2.9,6.3,0.1,9.2c-1.6-1.4-2.6-3.4-2.1-5.8c-0.8,2.7,0,4.6,1.4,6.2
			C17.2,75.9,16.9,68.3,22.6,66L22.6,66z"/>
		<path fill="#A9D16E" d="M31.3,54c-2,3.9-8,1-9.2,5.6c2.4,0.7,5,0.6,7.1-1.5c-2.2,2.5-4.5,2.7-7,2.4C24.8,65.4,32.5,61.1,31.3,54
			L31.3,54z"/>
		<path fill="#A9D16E" d="M24,55.9c3.3-3-1.3-8.1,3-10.6c1.4,2.1,1.9,4.7,0.5,7.3c1.8-2.8,1.5-5.2,0.4-7.5
			C33.5,46.4,31.4,55.2,24,55.9L24,55.9z"/>
		<path fill="#3C5B56" d="M34.8,44.9c-4.9-2.4-1.4-9.9-7.2-11.2c-0.8,2.9-0.5,6.2,2,8.7c-3.1-2.6-3.5-5.6-3.2-8.6
			C20.5,37.2,26,46.7,34.8,44.9L34.8,44.9z"/>
		<path fill="#A9D16E" d="M37.3,33.6c-3-2.2-6.4,2.3-9-0.7c1.5-1.4,3.5-2.3,5.9-1.6c-2.6-1-4.5-0.3-6.2,0.8
			C28.1,27.5,35.6,27.8,37.3,33.6L37.3,33.6z"/>
		<path fill="#98C856" d="M25.8,44.2c-4.9,3.6,0.5,11.3-5.7,14c-1.5-3.1-1.9-6.8,0.5-10.2c-3,3.6-2.8,6.9-1.8,10.2
			C11.3,55.8,15.6,44.1,25.8,44.2L25.8,44.2z"/>
		<path fill="#A9D16E" d="M54.7,15.4c3.8-0.9,5.2,4.9,9.1,3.1c-0.9-2-2.5-3.7-5.1-4c2.9,0,4.5,1.5,5.7,3.4
			C66.2,13.3,58.8,10.4,54.7,15.4L54.7,15.4z"/>
		<path fill="#A9D16E" d="M57.2,17.8c-4.4-0.3-4.9,6.4-9.5,5.1c0.6-2.4,2-4.6,4.9-5.4c-3.2,0.6-4.7,2.5-5.6,4.8
			C44,17.6,51.7,13,57.2,17.8L57.2,17.8z"/>
		<path fill="#A9D16E" d="M74.2,16.5c-2.7-2.3-6.3,1.8-8.6-1.3c1.5-1.3,3.5-2,5.7-1.1c-2.4-1.2-4.3-0.6-6,0.4
			C65.7,10,72.9,10.7,74.2,16.5L74.2,16.5z"/>
		<path fill="#A9D16E" d="M95.8,15.8c-3.9-0.5-4.8,5.5-8.9,4c0.7-2.1,2.1-4,4.7-4.6c-3,0.3-4.4,2-5.4,4
			C83.9,14.8,91.1,11.2,95.8,15.8L95.8,15.8z"/>
		<path fill="#A9D16E" d="M92.4,19c-1.6,2.9,2.9,5.5,0.4,8.2c-1.5-1.2-2.5-2.9-2.1-5.1c-0.6,2.4,0.2,4.1,1.5,5.5
			C87.9,28,87.3,21.3,92.4,19L92.4,19z"/>
		<path fill="#A9D16E" d="M72.4,11.3c5.6,2.6,1.7,11.3,8.3,12.7c0.9-3.3,0.6-7-2.4-9.9c3.6,2.9,4.1,6.3,3.7,9.7
			C88.8,20,82.4,9.2,72.4,11.3L72.4,11.3z"/>
		<path fill="#A9D16E" d="M106.8,21c3.2,2.1,0.1,7,4,8.5c0.9-2,1-4.2-0.6-6.2c1.9,2.1,2,4.2,1.4,6.3C116,27.7,113.1,20.6,106.8,21
			L106.8,21z"/>
		<path fill="#3C5B56" d="M106.1,23.5c-3.8-3.4-9.1,2.4-12.4-2.2c2.2-1.8,5.2-2.7,8.3-1.4c-3.4-1.8-6.1-1-8.6,0.4
			C94.2,13.9,104.5,15.3,106.1,23.5L106.1,23.5z"/>
		<path fill="#A9D16E" d="M22.5,111c3.8,1.2,2,7,6.4,7.4c0.3-2.2-0.2-4.5-2.4-6.1c2.5,1.6,3.1,3.7,3.2,5.9
			C33.7,115.2,28.7,108.9,22.5,111L22.5,111z"/>
		<path fill="#98C856" d="M29.2,110.4c-3-4.4-9.9,0.1-12.1-5.4c2.7-1.3,6-1.5,8.9,0.7c-3-2.7-6-2.6-8.9-1.8
			C19.4,97.5,29.6,101.5,29.2,110.4L29.2,110.4z"/>
		<path fill="#A9D16E" d="M50.5,118.7c-2-2.4-5.7,0.6-7.2-2.4c1.5-0.9,3.3-1.2,5.1-0.1c-1.9-1.4-3.6-1.2-5.2-0.6
			C44.2,111.8,50.3,113.6,50.5,118.7L50.5,118.7z"/>
		<path fill="#3C5B56" d="M30.9,111.8c2.1-3.8-3.7-7.2-0.5-10.8c1.9,1.5,3.3,3.8,2.8,6.7c0.8-3.2-0.3-5.3-1.9-7.1
			C36.7,100,37.6,108.9,30.9,111.8L30.9,111.8z"/>
		<path fill="#98C856" d="M28.3,84c-2.5-2.4,1.2-6.3-2.1-8.3c-1.1,1.6-1.6,3.6-0.6,5.7c-1.4-2.2-1-4.1-0.2-5.9
			C21.2,76.4,22.6,83.3,28.3,84L28.3,84z"/>
		<path fill="#3C5B56" d="M21.7,82.9c2.8,2.6-1.1,6.9,2.6,9c1.2-1.8,1.6-4,0.4-6.3c1.6,2.4,1.3,4.5,0.4,6.4
			C29.9,91,28,83.5,21.7,82.9L21.7,82.9z"/>
		<path fill="#A9D16E" d="M43.2,112.3c-3.3,2.8-7.8-2.1-10.6,1.7c1.9,1.6,4.4,2.4,7.1,1.3c-2.9,1.5-5.2,0.8-7.4-0.4
			C32.9,120.4,41.7,119.4,43.2,112.3L43.2,112.3z"/>
		<path fill="#A9D16E" d="M63.5,130.2c-3.2,3.2-8.2-1.7-10.9,2.5c2.1,1.5,4.7,2.2,7.5,0.9c-3,1.7-5.4,1.2-7.7,0.1
			C53.3,139.3,62.4,137.7,63.5,130.2L63.5,130.2z"/>
		<path fill="#A9D16E" d="M75,138.9c-4.6-2.1-1.5-9.2-6.9-10.3c-0.7,2.7-0.4,5.8,2.1,8.1c-3-2.4-3.4-5.1-3.1-8
			C61.4,131.9,66.8,140.7,75,138.9L75,138.9z"/>
		<path fill="#20816D" d="M89.8,137.2c-4.9-2.4-8.8,5.1-13.5,1.3c1.8-2.5,4.6-4.3,8.3-3.9c-4.1-0.9-6.7,0.6-8.9,2.8
			C74.6,130.5,85.7,129,89.8,137.2L89.8,137.2z"/>
		<path fill="#A9D16E" d="M83.9,130.5c3.9-0.3,4.4,5.6,8.5,4.4c-0.5-2.1-1.9-4-4.4-4.7c2.9,0.5,4.2,2.2,5,4.2
			C95.5,130.2,88.7,126.2,83.9,130.5L83.9,130.5z"/>
		<path fill="#3C5B56" d="M86.7,120.5c3.5,1.6,6-3.8,9.4-1.2c-1.2,1.8-3.1,3.1-5.7,2.9c2.9,0.5,4.7-0.6,6.1-2.2
			C97.5,124.8,89.8,126.1,86.7,120.5L86.7,120.5z"/>
		<path fill="#98C856" d="M31.1,119.4c5.8,4.1,12.3-4.6,17.4,1.2c-2.9,2.8-6.8,4.5-11.3,3.1c5,2,8.6,0.6,11.9-1.7
			C49,131.1,34.5,130.7,31.1,119.4L31.1,119.4z"/>
		<path fill="#A9D16E" d="M123.1,51.7c0.7,2.7-3.4,3.9-2,6.6c1.4-0.7,2.6-1.9,2.7-3.7c0,2.1-1,3.3-2.3,4.1
			C124.9,59.9,126.8,54.5,123.1,51.7L123.1,51.7z"/>
		<path fill="#A9D16E" d="M129.4,59.3c3.1-1.7,0.5-6.5,4.2-7.6c0.7,1.9,0.6,4-1,5.7c1.9-1.8,2.1-3.7,1.7-5.7
			C138.4,53.8,135.2,60.2,129.4,59.3L129.4,59.3z"/>
		<path fill="#A9D16E" d="M130,44c-2.1-2.3-5.7,0.8-7.4-2.2c1.5-0.9,3.3-1.3,5.2-0.3c-1.9-1.3-3.6-1.1-5.3-0.4
			C123.5,37.3,129.6,38.9,130,44L130,44z"/>
		<path fill="#A9D16E" d="M59.7,125.4c-4.1-0.6-5.2,5.7-9.5,4c0.7-2.2,2.3-4.1,5.1-4.7c-3.1,0.3-4.7,2-5.8,4.1
			C47.2,124,54.9,120.4,59.7,125.4L59.7,125.4z"/>
		<path fill="#A9D16E" d="M115.7,98.8c4,1.6,6.5-4.6,10.5-1.9c-1.3,2.1-3.3,3.7-6.2,3.6c3.2,0.4,5.2-1,6.7-2.8
			C128,103,119.4,104.9,115.7,98.8L115.7,98.8z"/>
		<path fill="#A9D16E" d="M119.4,89.7c0.8,2.8-3.4,4.1-1.8,6.9c1.5-0.7,2.6-2,2.7-4c0.1,2.2-0.9,3.4-2.2,4.4
			C121.5,98.2,123.3,92.6,119.4,89.7L119.4,89.7z"/>
		<path fill="#A9D16E" d="M138.5,82.9c-0.4-3.3-5.5-2.7-5.2-6.3c1.9,0.1,3.7,0.8,4.7,2.8c-0.9-2.3-2.6-3.1-4.4-3.5
			C136.7,73.2,141.2,78.2,138.5,82.9L138.5,82.9z"/>
		<path fill="#A9D16E" d="M129.9,69.6c3.6-2.5-0.2-8.2,4.4-10c1.1,2.3,1.3,4.9-0.5,7.3c2.2-2.5,2.1-5,1.4-7.4
			C140.5,61.5,137.2,69.9,129.9,69.6L129.9,69.6z"/>
		<path fill="#A9D16E" d="M129.4,65.2c-1.3,3.1-6.1,1.3-6.7,4.9c1.9,0.4,3.9,0.1,5.4-1.6c-1.5,2.1-3.3,2.4-5.2,2.3
			C125.2,74.4,130.9,70.6,129.4,65.2L129.4,65.2z"/>
		<path fill="#3C5B56" d="M57.3,27c-3.5,3.6-9-1.7-11.9,3c2.3,1.6,5.2,2.3,8.2,0.8c-3.2,2-5.9,1.5-8.4,0.3
			C46.4,37.2,56.3,35.1,57.3,27L57.3,27z"/>
		<path fill="#20816D" d="M129.1,98.2c1.1-4.8,8.6-3.2,8.6-8.7c-2.8-0.2-5.6,0.7-7.4,3.5c1.7-3.3,4.3-4.3,7.1-4.6
			C133.2,83.9,125.8,90.7,129.1,98.2L129.1,98.2z"/>
		<path fill="#20816D" d="M129,99.3c-1.2,5.3-9.3,3.6-9.3,9.6c3,0.1,6.1-0.9,8-4c-1.8,3.6-4.6,4.7-7.6,5.1
			C124.8,115.1,132.8,107.5,129,99.3L129,99.3z"/>
		<path fill="#20816D" d="M114.6,27.2c3.9,4.5-3,10.6,2.3,14.5c2.2-2.6,3.3-6,1.8-9.7c2,4,1.1,7.2-0.6,10.1
			C125.6,41.3,124.2,29.3,114.6,27.2L114.6,27.2z"/>
		<path fill="#20816D" d="M116.9,63.5c4.8,1,6.5-6.2,11.4-4c-1,2.5-3,4.7-6.3,5.1c3.7-0.1,5.6-2,7-4.3
			C131.4,66,122.2,69.7,116.9,63.5L116.9,63.5z"/>
		<path fill="#98C856" d="M114.7,41.9c-3.1-3.3,1.8-8.2-2.4-11c-1.5,2.1-2.3,4.7-1,7.5c-1.7-3-1.2-5.4,0-7.7
			C105.7,31.5,107.2,40.7,114.7,41.9L114.7,41.9z"/>
		<path fill="#A9D16E" d="M44.1,32.7C41.9,28.5,48.3,25,45,21c-2.2,1.6-3.7,4-3.2,7.2c-0.8-3.5,0.5-5.8,2.3-7.7
			C38.1,19.6,36.9,29.3,44.1,32.7L44.1,32.7z"/>
		<path fill="#20816D" d="M127.8,57.7c0.9-5.1-6.9-6.7-4.6-11.9c2.7,1,5.1,3.1,5.6,6.5c-0.2-3.9-2.3-5.9-4.9-7.3
			C129.9,42.3,134.1,51.9,127.8,57.7L127.8,57.7z"/>
		<path fill="#A9D16E" d="M22.9,93.3c-5.4-5.1,2.2-13.5-4.9-17.6c-2.3,3.5-3.2,7.9-0.9,12.3c-3-4.7-2.4-8.7-0.7-12.5
			C7.2,77.3,10.6,92,22.9,93.3L22.9,93.3z"/>
		<path fill="#A9D16E" d="M74,133c1.6-3.3,6.7-0.9,7.7-4.8c-2-0.6-4.2-0.4-5.9,1.3c1.8-2.1,3.8-2.4,5.8-2.1
			C79.3,123.4,72.9,127.1,74,133L74,133z"/>
	</g>
	<g>
		<path fill="#A9D16E" d="M41.4,84.7c-2.3-2.9,2.1-6.5-1-9c-1.4,1.5-2.2,3.6-1.4,6c-1.1-2.5-0.5-4.5,0.6-6.2
			C35,75.6,35.5,83.1,41.4,84.7L41.4,84.7z"/>
		<path fill="#A9D16E" d="M55.3,45.4c-1.2,0.1-1.1,1.9-2.4,1.7c0.1-0.7,0.4-1.3,1.1-1.6c-0.9,0.3-1.2,0.9-1.4,1.5
			C51.7,45.8,53.6,44.3,55.3,45.4L55.3,45.4z"/>
		<path fill="#A9D16E" d="M46.8,95.1c0.3,1.5-2,2-1.3,3.6c0.8-0.3,1.5-0.9,1.7-2c-0.1,1.2-0.7,1.8-1.4,2.2
			C47.5,99.8,48.7,96.8,46.8,95.1L46.8,95.1z"/>
		<path fill="#A9D16E" d="M65.4,47.4c-0.9-0.6-1.9,0.8-2.7,0c0.4-0.5,1-0.8,1.7-0.6c-0.8-0.3-1.3,0-1.8,0.4
			C62.5,45.7,64.7,45.6,65.4,47.4L65.4,47.4z"/>
		<path fill="#A9D16E" d="M71.8,44.9c1.5-0.5,0.8-2.8,2.5-3c0.1,0.9-0.1,1.8-0.9,2.5c1-0.6,1.2-1.5,1.2-2.4
			C76.2,43.2,74.3,45.8,71.8,44.9L71.8,44.9z"/>
		<path fill="#20816D" d="M69.9,37.8c2,0.9,0.7,3.9,3,4.4c0.3-1.2,0.1-2.5-0.9-3.5c1.3,1,1.5,2.2,1.4,3.4
			C75.7,40.7,73.4,37,69.9,37.8L69.9,37.8z"/>
		<path fill="#A9D16E" d="M76.8,45.3c0.7-2.3-2.7-3.4-1.4-5.6c1.2,0.6,2.1,1.7,2.2,3.3c0.1-1.8-0.7-2.8-1.8-3.6
			C78.6,38.4,80,43,76.8,45.3L76.8,45.3z"/>
		<path fill="#A9D16E" d="M81.4,35.4c-1.7,0.5-1,3.1-2.9,3.2c-0.1-1,0.2-2,1.1-2.7c-1.1,0.7-1.4,1.6-1.5,2.6
			C76.4,37.1,78.7,34.4,81.4,35.4L81.4,35.4z"/>
		<path fill="#A9D16E" d="M72.9,37.5c-1-1.4-3.3,0.1-4-1.7c0.9-0.4,2-0.5,2.9,0.2c-1-0.9-2-0.9-2.9-0.6C69.7,33.2,73,34.5,72.9,37.5
			L72.9,37.5z"/>
		<path fill="#98C856" d="M78.4,39.3c2.4,1.9-0.4,5.7,2.7,7.1c0.8-1.5,1.1-3.4-0.1-5.1c1.4,1.8,1.3,3.5,0.7,5.2
			C85.5,45.3,83.5,39.4,78.4,39.3L78.4,39.3z"/>
		<path fill="#A9D16E" d="M70.2,112.2c0.9,0.8,2.1-0.6,2.9,0.5c-0.5,0.4-1.2,0.7-2,0.4c0.8,0.4,1.4,0.2,2-0.1
			C73,114.5,70.6,114.2,70.2,112.2L70.2,112.2z"/>
		<path fill="#A9D16E" d="M43.7,60.3c-1.3,0.5-0.6,2.4-2,2.6c-0.1-0.7,0-1.5,0.7-2.1c-0.8,0.6-1,1.3-1,2.1
			C40,61.9,41.6,59.7,43.7,60.3L43.7,60.3z"/>
		<path fill="#A9D16E" d="M102,45.2c-1.8,0.1-2-2.7-3.9-2.2c0.2,1,0.8,1.9,2,2.3c-1.4-0.3-1.9-1.1-2.3-2.1
			C96.5,45.1,99.7,47.1,102,45.2L102,45.2z"/>
		<path fill="#A9D16E" d="M94.1,47.3c-1.1,0.2-1.3-1.4-2.4-1c0.2,0.6,0.6,1.1,1.3,1.2c-0.8-0.1-1.2-0.5-1.5-1
			C90.9,47.7,92.8,48.6,94.1,47.3L94.1,47.3z"/>
		<path fill="#A9D16E" d="M98.2,53.4c-2.1,0-2.2-3.1-4.4-2.6c0.2,1.1,0.9,2.2,2.2,2.6c-1.5-0.4-2.2-1.3-2.6-2.4
			C91.9,53.2,95.5,55.5,98.2,53.4L98.2,53.4z"/>
		<path fill="#A9D16E" d="M104.5,48.4c-1.5-1-3.1,1.3-4.4-0.1c0.7-0.7,1.7-1.2,2.8-0.9c-1.3-0.4-2.2-0.1-3,0.6
			C99.8,45.6,103.5,45.6,104.5,48.4L104.5,48.4z"/>
		<path fill="#A9D16E" d="M100.3,55.4c-1.4-0.4-2.1,1.8-3.6,1c0.4-0.8,1-1.4,2-1.4c-1.1,0-1.8,0.5-2.3,1.2
			C95.9,54.4,98.8,53.4,100.3,55.4L100.3,55.4z"/>
		<path fill="#A9D16E" d="M104.2,60.2c-2.3-0.5-1.6-4.1-4.2-4.1c-0.1,1.3,0.4,2.7,1.7,3.5c-1.6-0.8-2.1-2-2.2-3.4
			C97.3,58.3,100.6,61.8,104.2,60.2L104.2,60.2z"/>
		<path fill="#A9D16E" d="M108.8,59.2c0.9-0.7,2.1,0.7,2.9-0.3c-0.5-0.5-1.1-0.7-1.9-0.5c0.8-0.4,1.4-0.1,2,0.2
			C111.7,57.2,109.3,57.3,108.8,59.2L108.8,59.2z"/>
		<path fill="#A9D16E" d="M108.8,57.9c0.6-1.3-1.4-2.3-0.4-3.6c0.7,0.5,1.2,1.2,1.1,2.2c0.2-1.1-0.2-1.8-0.8-2.4
			C110.5,53.8,111,56.8,108.8,57.9L108.8,57.9z"/>
		<path fill="#A9D16E" d="M107.7,54.7c-1.4-2.6-5.4-0.5-6.3-3.7c1.6-0.5,3.3-0.4,4.8,0.9c-1.5-1.6-3.1-1.8-4.7-1.5
			C103.1,47.1,108.4,49.9,107.7,54.7L107.7,54.7z"/>
		<path fill="#98C856" d="M101.8,53.1c-2.9-1.3-1-5.7-4.4-6.4c-0.4,1.7-0.2,3.6,1.3,5c-1.9-1.5-2.2-3.2-2-4.9
			C93.3,48.8,96.7,54.3,101.8,53.1L101.8,53.1z"/>
		<path fill="#3C5B56" d="M100.5,54.5c3.4,0.8,2.3,6,6.1,5.9c0.1-2-0.6-3.9-2.5-5.1c2.3,1.2,3,2.9,3.2,4.9
			C110.6,57.2,105.8,52.1,100.5,54.5L100.5,54.5z"/>
		<path fill="#A9D16E" d="M108.1,70.1c-1.7-0.3-2.2,2.3-4,1.6c0.3-0.9,1-1.7,2.2-1.9c-1.3,0.1-2,0.8-2.4,1.6
			C102.9,69.4,106.1,68,108.1,70.1L108.1,70.1z"/>
		<path fill="#A9D16E" d="M106.3,75.6c-1.2-0.7-0.3-2.6-1.7-3c-0.3,0.7-0.2,1.6,0.4,2.3c-0.8-0.7-0.8-1.5-0.7-2.3
			C102.7,73.5,104,76,106.3,75.6L106.3,75.6z"/>
		<path fill="#98C856" d="M103.9,61.3c1.9,0.4,1.4,3.3,3.5,3.2c0-1.1-0.4-2.2-1.5-2.8c1.3,0.6,1.7,1.6,1.9,2.7
			C109.6,62.6,106.8,59.9,103.9,61.3L103.9,61.3z"/>
		<path fill="#A9D16E" d="M103.6,68.3c1.5-0.5,0.8-3,2.6-3.2c0.2,0.9,0,1.9-0.9,2.6c1-0.7,1.3-1.6,1.2-2.5
			C108.2,66.5,106.2,69.2,103.6,68.3L103.6,68.3z"/>
		<path fill="#A9D16E" d="M112.6,64.2c-0.8-2-3.9-0.8-4.4-3.1c1.2-0.3,2.5-0.1,3.5,1c-1-1.3-2.2-1.5-3.4-1.4
			C109.8,58.3,113.5,60.7,112.6,64.2L112.6,64.2z"/>
		<path fill="#A9D16E" d="M32.6,70.9c1.1-1-0.4-2.7,1.1-3.5c0.4,0.7,0.6,1.6,0.1,2.5c0.6-0.9,0.5-1.7,0.2-2.5
			C35.8,67.7,35,70.7,32.6,70.9L32.6,70.9z"/>
		<path fill="#A9D16E" d="M62.9,112.7c-0.2,1.2-2.1,0.9-2,2.3c0.7,0,1.4-0.3,1.8-1c-0.4,0.9-1,1.1-1.7,1.2
			C62.1,116.3,63.9,114.5,62.9,112.7L62.9,112.7z"/>
		<path fill="#A9D16E" d="M114.8,80.8c-1.2,1.1,0.5,2.9-1.1,3.8c-0.5-0.8-0.7-1.7-0.2-2.6c-0.7,1-0.5,1.9-0.2,2.7
			C111.4,84.2,112.1,81,114.8,80.8L114.8,80.8z"/>
		<path fill="#20816D" d="M105,82.6c-0.4-2.5,3.4-3.1,2.4-5.7c-1.3,0.4-2.5,1.4-2.8,3c0.2-1.9,1.2-2.8,2.5-3.5
			C104.2,75.1,102,79.7,105,82.6L105,82.6z"/>
		<path fill="#A9D16E" d="M105.9,81.8c1.3,1.5-0.9,3.6,0.9,4.8c0.7-0.9,1-2,0.5-3.2c0.7,1.3,0.4,2.4-0.1,3.4
			C109.7,86.4,109.1,82.4,105.9,81.8L105.9,81.8z"/>
		<path fill="#A9D16E" d="M103.1,82.5c0.6,1.5-1.7,2.4-0.7,3.9c0.8-0.5,1.4-1.2,1.3-2.3c0.1,1.2-0.4,1.9-1.1,2.5
			C104.7,87.1,105.4,83.9,103.1,82.5L103.1,82.5z"/>
		<path fill="#A9D16E" d="M101.7,91.8c0.8-1.5-1.5-2.8-0.3-4.3c0.8,0.6,1.3,1.5,1.1,2.6c0.3-1.3-0.1-2.1-0.8-2.8
			C104,87.1,104.3,90.6,101.7,91.8L101.7,91.8z"/>
		<path fill="#A9D16E" d="M92.5,99.5c1.9-0.2,1.6-3.1,3.6-2.9c-0.1,1.1-0.5,2.1-1.6,2.7c1.3-0.5,1.8-1.4,2-2.5
			C98.1,98.6,95.2,101.1,92.5,99.5L92.5,99.5z"/>
		<path fill="#A9D16E" d="M89.3,106.7c-0.7,1.5-3.1,0.4-3.5,2.2c0.9,0.3,1.9,0.2,2.7-0.6c-0.8,1-1.7,1.1-2.7,1
			C86.9,111.1,89.9,109.4,89.3,106.7L89.3,106.7z"/>
		<path fill="#A9D16E" d="M82.6,104.2c2.5,0.9,3.9-2.9,6.4-1.3c-0.7,1.3-2,2.3-3.7,2.3c2,0.2,3.1-0.7,4.1-1.8
			C90.2,106.5,85,107.9,82.6,104.2L82.6,104.2z"/>
		<path fill="#A9D16E" d="M73,107.6c-1.6-0.9-3,1.5-4.5,0.2c0.6-0.8,1.6-1.4,2.8-1.1c-1.3-0.4-2.2,0.1-3,0.8
			C68,105.1,71.7,104.8,73,107.6L73,107.6z"/>
		<path fill="#A9D16E" d="M65.6,105c1,0.7,0,2.2,1.2,2.7c0.3-0.6,0.3-1.3-0.1-2c0.6,0.7,0.6,1.3,0.4,2
			C68.5,107.2,67.6,104.9,65.6,105L65.6,105z"/>
		<path fill="#A9D16E" d="M58.6,102.8c-1.1-1-2.6,0.8-3.6-0.5c0.6-0.5,1.5-0.8,2.4-0.5c-1-0.5-1.8-0.3-2.5,0.2
			C55.1,100.1,58.1,100.4,58.6,102.8L58.6,102.8z"/>
		<path fill="#A9D16E" d="M48.8,54.8c0.9,0.7,2-0.6,2.8,0.4c-0.5,0.4-1.1,0.6-1.9,0.4c0.8,0.4,1.4,0.2,1.9-0.1
			C51.5,56.9,49.2,56.7,48.8,54.8L48.8,54.8z"/>
		<path fill="#A9D16E" d="M50.7,54.3c1.7-0.6,0.8-3.1,2.8-3.3c0.2,1-0.1,2-1,2.7c1.1-0.7,1.4-1.6,1.4-2.6
			C55.6,52.4,53.5,55.2,50.7,54.3L50.7,54.3z"/>
		<path fill="#3C5B56" d="M49.3,56.5c-0.8,2.1-4,0.9-4.4,3.3c1.2,0.3,2.5,0,3.5-1.1c-1,1.4-2.2,1.6-3.4,1.6
			C46.6,62.6,50.3,60,49.3,56.5L49.3,56.5z"/>
		<path fill="#A9D16E" d="M53.6,111.3c-0.6-1.3-2.7-0.4-3.1-2c0.8-0.2,1.7-0.1,2.4,0.6c-0.7-0.9-1.5-1-2.4-0.9
			C51.5,107.3,54.1,108.9,53.6,111.3L53.6,111.3z"/>
		<path fill="#A9D16E" d="M44,76.4c-0.9,1.1,0.8,2.5-0.4,3.5c-0.5-0.6-0.8-1.4-0.5-2.3c-0.4,1-0.2,1.7,0.3,2.4
			C41.5,79.9,41.7,77,44,76.4L44,76.4z"/>
		<path fill="#A9D16E" d="M42.5,89.8c-0.9,1.2,0.9,2.5-0.3,3.6c-0.6-0.6-0.9-1.4-0.6-2.3c-0.4,1-0.1,1.8,0.3,2.5
			C40.1,93.4,40.2,90.5,42.5,89.8L42.5,89.8z"/>
		<path fill="#20816D" d="M62.6,48.4c-3.4-0.9-4.8,4.3-8.2,2.5c0.8-1.8,2.3-3.3,4.6-3.5c-2.6,0-4,1.3-5.1,2.9
			C52.4,46.2,59.1,43.8,62.6,48.4L62.6,48.4z"/>
		<path fill="#20816D" d="M42.1,76.6c0.8-1.7-1.9-3-0.6-4.7c0.9,0.6,1.6,1.5,1.5,2.8c0.2-1.4-0.3-2.3-1.1-3.1
			C44.2,71.2,44.8,75.1,42.1,76.6L42.1,76.6z"/>
		<path fill="#A9D16E" d="M38.7,68.3c2.2-0.1,2.4,3.3,4.7,2.7c-0.3-1.2-1-2.3-2.4-2.8c1.6,0.3,2.3,1.3,2.8,2.5
			C45.4,68.3,41.5,66,38.7,68.3L38.7,68.3z"/>
		<path fill="#A9D16E" d="M43.7,66.6c1.2-1.7-1.5-3.6,0.2-5.1c0.8,0.8,1.4,2,1,3.3c0.5-1.5,0.1-2.5-0.6-3.5
			C46.9,61.3,46.9,65.5,43.7,66.6L43.7,66.6z"/>
		<path fill="#A9D16E" d="M44.1,80.5c-0.9,2,2.1,3.5,0.6,5.4c-1-0.7-1.7-1.8-1.6-3.3c-0.3,1.6,0.3,2.6,1.2,3.5
			C41.5,86.5,40.9,82.1,44.1,80.5L44.1,80.5z"/>
		<path fill="#A9D16E" d="M48.6,91.9c-0.1,2.1,3.1,2.3,2.5,4.5c-1.1-0.3-2.2-1-2.6-2.3c0.3,1.5,1.2,2.2,2.3,2.7
			C48.5,98.2,46.4,94.5,48.6,91.9L48.6,91.9z"/>
		<path fill="#A9D16E" d="M55.6,100c-2.8-1-4.4,3.3-7.1,1.6c0.8-1.5,2.2-2.6,4.1-2.6c-2.2-0.2-3.5,0.8-4.5,2.1
			C47.1,97.4,52.9,95.9,55.6,100L55.6,100z"/>
		<path fill="#A9D16E" d="M48.2,56.3c-2.9-0.3-3.5,4.1-6.5,3.1c0.5-1.6,1.5-3,3.4-3.4c-2.2,0.3-3.2,1.5-3.9,3
			C39.4,55.7,44.7,53,48.2,56.3L48.2,56.3z"/>
		<path fill="#3C5B56" d="M109.2,95.7c-0.2-1.9,2.7-2.4,2-4.4c-1,0.3-2,1-2.2,2.3c0.2-1.5,1-2.2,2-2.6
			C108.7,89.9,106.9,93.4,109.2,95.7L109.2,95.7z"/>
		<path fill="#A9D16E" d="M84.3,115.8c1.2-2.2,4.7-0.4,5.4-3.1c-1.3-0.5-2.9-0.4-4.1,0.7c1.3-1.4,2.7-1.5,4.1-1.2
			C88.3,109.3,83.7,111.6,84.3,115.8L84.3,115.8z"/>
		<path fill="#A9D16E" d="M45.6,99.6c-1.9,0-2,2.8-4,2.3c0.2-1,0.8-2,2-2.4c-1.4,0.3-2,1.2-2.3,2.1C39.9,99.7,43.1,97.6,45.6,99.6
			L45.6,99.6z"/>
		<path fill="#98C856" d="M38.1,84c0.6,2.4,4.3,1.6,4.3,4.3c-1.4,0.1-2.8-0.3-3.7-1.7c0.9,1.6,2.1,2.1,3.5,2.2
			C40.2,91.1,36.5,87.7,38.1,84L38.1,84z"/>
		<path fill="#A9D16E" d="M87.2,41.9c-1.3,0.8-0.1,2.8-1.7,3.4c-0.3-0.8-0.3-1.7,0.3-2.5c-0.8,0.8-0.8,1.7-0.6,2.5
			C83.4,44.5,84.7,41.7,87.2,41.9L87.2,41.9z"/>
		<path fill="#A9D16E" d="M95,50.2c-1.7-0.8-3,1.8-4.7,0.5c0.6-0.9,1.6-1.5,2.8-1.4c-1.4-0.3-2.3,0.3-3,1C89.7,48,93.5,47.4,95,50.2
			L95,50.2z"/>
		<path fill="#A9D16E" d="M92.3,38.6c-2,0.5-2.9-2.5-4.9-1.4c0.5,1,1.4,1.9,2.8,2c-1.5,0-2.4-0.7-3.1-1.7
			C86.3,39.9,90.2,41.3,92.3,38.6L92.3,38.6z"/>
		<path fill="#20816D" d="M72.9,114.8c-3.7,0.1-4-5.6-7.9-4.6c0.4,2,1.6,3.9,4,4.7c-2.7-0.6-3.9-2.3-4.6-4.2
			C61.8,114.6,68.1,118.7,72.9,114.8L72.9,114.8z"/>
		<path fill="#20816D" d="M67.7,108.9c2,1.2,4-1.9,5.9,0c-0.9,1-2.2,1.7-3.7,1.4c1.7,0.5,2.9,0,3.9-0.9
			C74,112.4,69.1,112.6,67.7,108.9L67.7,108.9z"/>
		<path fill="#A9D16E" d="M60,103.4c2.5,1.3,0.6,5.1,3.6,5.9c0.5-1.5,0.4-3.2-0.9-4.5c1.6,1.4,1.8,2.9,1.5,4.5
			C67.3,107.6,64.5,102.6,60,103.4L60,103.4z"/>
		<path fill="#A9D16E" d="M61.2,108c-1.9-2.1-5.2,0.8-6.7-1.9c1.3-0.9,3-1.2,4.7-0.3c-1.8-1.2-3.3-0.9-4.8-0.3
			C55.1,102,60.8,103.3,61.2,108L61.2,108z"/>
		<path fill="#3C5B56" d="M54.2,101.1c-1.5,3.1-6.3,0.9-7.2,4.6c1.9,0.5,3.9,0.4,5.6-1.3c-1.7,2-3.6,2.3-5.5,2
			C49.3,110.3,55.3,106.8,54.2,101.1L54.2,101.1z"/>
		<path fill="#A9D16E" d="M47,99.6c-1.4,1.9,1.5,4.1-0.5,5.8c-0.9-1-1.5-2.3-1-3.7c-0.7,1.6-0.2,2.8,0.5,3.9
			C43.1,105.4,43.3,100.7,47,99.6L47,99.6z"/>
		<path fill="#98C856" d="M53.8,106.9c2.3,3.2,7.2-0.3,9,3.7c-2,1-4.3,1.2-6.5-0.3c2.3,1.9,4.4,1.8,6.5,1.1
			C61.2,116.2,53.7,113.4,53.8,106.9L53.8,106.9z"/>
		<path fill="#A9D16E" d="M35.3,88.5c-0.6-2.4,3.1-3.3,2-5.8c-1.3,0.5-2.4,1.6-2.5,3.2c0-1.9,1-2.9,2.2-3.6
			C34,81.1,32.2,85.8,35.3,88.5L35.3,88.5z"/>
		<path fill="#A9D16E" d="M36.9,86.9c-0.2,2.8,4.1,3.1,3.3,6.1c-1.5-0.4-2.9-1.3-3.4-3.1c0.4,2.1,1.6,3,3.1,3.6
			C36.7,95.3,33.8,90.4,36.9,86.9L36.9,86.9z"/>
		<path fill="#A9D16E" d="M36,76c-1.5,1.7,1.2,4-0.8,5.5c-0.8-1-1.3-2.3-0.7-3.7c-0.7,1.5-0.4,2.7,0.3,3.8
			C31.9,81.4,32.4,76.8,36,76L36,76z"/>
		<path fill="#A9D16E" d="M35.6,62.2c-0.3,2.5,3.5,3.1,2.6,5.7c-1.4-0.4-2.6-1.4-2.9-3c0.2,1.9,1.3,2.8,2.6,3.4
			C35,69.8,32.6,65.2,35.6,62.2L35.6,62.2z"/>
		<path fill="#A9D16E" d="M37.6,64.4c1.9,1,3.5-1.8,5.3-0.3c-0.7,0.9-1.9,1.6-3.3,1.4c1.6,0.4,2.6-0.1,3.5-1
			C43.4,67.2,39.1,67.6,37.6,64.4L37.6,64.4z"/>
		<path fill="#A9D16E" d="M32.7,77.1c1.7-3.5,7.2-1.1,8.1-5.3c-2.1-0.6-4.5-0.4-6.3,1.5c1.9-2.3,4-2.6,6.2-2.4
			C38.3,66.7,31.4,70.7,32.7,77.1L32.7,77.1z"/>
		<path fill="#A9D16E" d="M38.9,55.2c1.3-2,4.5,0,5.4-2.5c-1.3-0.5-2.7-0.6-4,0.4c1.3-1.2,2.7-1.2,4-0.9
			C43.2,49.2,38.7,51.2,38.9,55.2L38.9,55.2z"/>
		<path fill="#3C5B56" d="M40.5,55.6c-2.1,2.4,1.5,5.8-1.4,7.9c-1.1-1.4-1.7-3.3-0.9-5.3c-1.1,2.2-0.7,3.9,0.2,5.5
			C34.4,63.2,35.3,56.7,40.5,55.6L40.5,55.6z"/>
		<path fill="#A9D16E" d="M96.5,109c0.8-2.4,4.5-1.3,4.7-4.1c-1.4-0.2-2.9,0.1-3.9,1.5c1-1.6,2.3-2,3.8-2
			C99.1,101.9,95.1,105.1,96.5,109L96.5,109z"/>
		<path fill="#98C856" d="M96.1,104.7c-2.8,1.9,0.1,6.3-3.4,7.7c-0.8-1.8-0.9-3.8,0.4-5.7c-1.7,1.9-1.7,3.8-1.2,5.7
			C87.8,111,90.4,104.5,96.1,104.7L96.1,104.7z"/>
		<path fill="#A9D16E" d="M101.4,91.1c-1.5,1.3,0.4,3.6-1.5,4.6c-0.6-1-0.7-2.1-0.1-3.3c-0.9,1.2-0.8,2.3-0.4,3.3
			C97,95.1,98.1,91.3,101.4,91.1L101.4,91.1z"/>
		<path fill="#3C5B56" d="M97,103.6c-2.4-1.3-4.6,2.4-6.9,0.3c1-1.2,2.4-2.1,4.3-1.8c-2-0.5-3.4,0.2-4.6,1.2
			C89.4,99.9,95.1,99.4,97,103.6L97,103.6z"/>
		<path fill="#98C856" d="M79.2,105.3c-1.6,1.6-4-0.8-5.3,1.3c1,0.7,2.3,1,3.7,0.4c-1.4,0.9-2.6,0.6-3.7,0.1
			C74.3,109.9,78.7,109,79.2,105.3L79.2,105.3z"/>
		<path fill="#3C5B56" d="M78.5,109.5c1.6-1.8,4.4,0.7,5.8-1.7c-1.2-0.7-2.6-1-4-0.3c1.5-1,2.8-0.8,4.1-0.3
			C83.7,104.3,78.8,105.5,78.5,109.5L78.5,109.5z"/>
		<path fill="#A9D16E" d="M97.3,95.8c1.8,2.1-1.4,5,1.1,6.8c1-1.2,1.5-2.8,0.8-4.5c1,1.9,0.5,3.3-0.3,4.7
			C102.5,102.4,101.8,96.7,97.3,95.8L97.3,95.8z"/>
		<path fill="#A9D16E" d="M108.7,82.8c2,2.1-1.1,5.2,1.6,7c1-1.3,1.4-3,0.6-4.8c1.1,1.9,0.8,3.5,0,4.9
			C114.5,89.3,113.5,83.5,108.7,82.8L108.7,82.8z"/>
		<path fill="#A9D16E" d="M114.2,75.5c-1.3,2.9-5.9,1-6.6,4.4c1.8,0.5,3.7,0.2,5.2-1.3c-1.5,1.9-3.3,2.2-5.1,2
			C109.8,84.2,115.4,80.7,114.2,75.5L114.2,75.5z"/>
		<path fill="#20816D" d="M113.1,66c-1.5,3.2,3.3,5.6,0.8,8.6c-1.6-1.2-2.8-2.9-2.5-5.3c-0.6,2.6,0.4,4.3,1.8,5.7
			C108.9,75.7,107.9,68.6,113.1,66L113.1,66z"/>
		<path fill="#A9D16E" d="M108.9,69.8c-0.2-2.5,3.6-2.8,2.8-5.4c-1.4,0.3-2.6,1.2-3,2.8c0.3-1.8,1.4-2.7,2.7-3.2
			C108.7,62.3,106.2,66.7,108.9,69.8L108.9,69.8z"/>
		<path fill="#3C5B56" d="M102.5,68c1-2.2-2.4-3.9-0.8-6c1.2,0.8,2,2,1.9,3.6c0.3-1.8-0.4-3-1.4-3.9C105.2,61.1,106.1,66,102.5,68
			L102.5,68z"/>
		<path fill="#98C856" d="M101.8,103.5c2.6-3.7-2.9-7.8,0.8-11.1c1.8,1.8,2.9,4.3,2,7.2c1.3-3.2,0.4-5.5-1.1-7.6
			C109.3,92.1,109,101.3,101.8,103.5L101.8,103.5z"/>
		<path fill="#A9D16E" d="M58.5,44.7c1.7-0.5,2.5,2.2,4.2,1.3c-0.4-0.9-1.2-1.7-2.4-1.7c1.3,0,2.1,0.6,2.6,1.5
			C63.8,43.6,60.3,42.4,58.5,44.7L58.5,44.7z"/>
		<path fill="#A9D16E" d="M63.4,40.7c-1.1-2-4.1-0.3-4.8-2.7c1.2-0.4,2.6-0.4,3.7,0.6c-1.2-1.2-2.4-1.3-3.6-1.1
			C59.9,35,63.9,37,63.4,40.7L63.4,40.7z"/>
		<path fill="#A9D16E" d="M53.6,40.3c-1.5,1.3,0.5,3.6-1.4,4.7c-0.6-1-0.8-2.1-0.2-3.3c-0.8,1.2-0.7,2.3-0.3,3.4
			C49.3,44.5,50.3,40.6,53.6,40.3L53.6,40.3z"/>
		<path fill="#A9D16E" d="M105.6,85.3c-0.4,2.6,3.6,3.3,2.5,6c-1.4-0.5-2.6-1.5-3-3.3c0.2,2,1.3,3,2.6,3.7
			C104.7,93.2,102.4,88.3,105.6,85.3L105.6,85.3z"/>
		<path fill="#A9D16E" d="M88.7,49.5c1-2.6-2.9-4.2-1.2-6.7c1.3,0.8,2.4,2.1,2.3,4c0.3-2.1-0.6-3.3-1.8-4.3
			C91.3,41.6,92.6,47.1,88.7,49.5L88.7,49.5z"/>
		<path fill="#A9D16E" d="M82.8,47.1c1.8-0.5,2.7,2.2,4.4,1.2c-0.5-0.9-1.3-1.7-2.5-1.7c1.4-0.1,2.2,0.6,2.8,1.4
			C88.3,45.7,84.6,44.6,82.8,47.1L82.8,47.1z"/>
		<path fill="#A9D16E" d="M78.5,34.9c-2.1,0.3-1.7,3.5-4,3.3c0-1.2,0.5-2.4,1.8-3c-1.5,0.6-2,1.6-2.2,2.8
			C72.2,36,75.4,33.2,78.5,34.9L78.5,34.9z"/>
		<path fill="#A9D16E" d="M70,40.4c-1.6-2.3-5.2,0.1-6.4-2.8c1.4-0.7,3.1-0.8,4.7,0.3c-1.6-1.4-3.2-1.4-4.7-0.9
			C64.8,33.6,70.2,35.7,70,40.4L70,40.4z"/>
		<path fill="#A9D16E" d="M67.1,40.7c2,0.8,0.8,3.9,3.2,4.3c0.3-1.2,0.1-2.5-1-3.4c1.3,1,1.6,2.1,1.5,3.3
			C73,43.4,70.6,39.8,67.1,40.7L67.1,40.7z"/>
		<path fill="#3C5B56" d="M42.7,86.8c2.3,2.2-1.1,5.8,1.9,7.6c1-1.5,1.5-3.3,0.5-5.2c1.3,2,0.9,3.7,0.2,5.4
			C49.3,93.7,48,87.4,42.7,86.8L42.7,86.8z"/>
		<path fill="#20816D" d="M88.3,40.9c-3.1-0.7-2.1-5.5-5.5-5.5c-0.1,1.8,0.5,3.6,2.3,4.7c-2.1-1.1-2.7-2.7-2.9-4.5
			C79.1,38.3,83.5,43,88.3,40.9L88.3,40.9z"/>
		<path fill="#20816D" d="M89,40.9c3.4,0.8,2.3,6,6.1,5.9c0.1-1.9-0.6-3.9-2.5-5.1c2.3,1.2,3,2.9,3.2,4.9C99,43.7,94.2,38.5,89,40.9
			L89,40.9z"/>
		<path fill="#20816D" d="M42.9,50.2c2.9-2.5,6.8,1.9,9.3-1.5c-1.7-1.4-3.8-2.1-6.2-1.2c2.6-1.3,4.6-0.7,6.4,0.4
			C51.9,43.1,44.2,44,42.9,50.2L42.9,50.2z"/>
		<path fill="#20816D" d="M66.1,48.7c0.7-3-4-4.1-2.5-7.3c1.6,0.7,3,1.9,3.2,4c-0.1-2.3-1.3-3.6-2.8-4.5
			C67.7,39.4,70,45.3,66.1,48.7L66.1,48.7z"/>
		<path fill="#98C856" d="M52.3,50.1c-2.1,2-5.3-1.2-7,1.5c1.3,1,3,1.4,4.8,0.6c-1.9,1.1-3.5,0.7-4.9,0
			C45.6,55.9,51.5,54.9,52.3,50.1L52.3,50.1z"/>
		<path fill="#A9D16E" d="M46.4,95.2c-2.7,1.4-4.9-2.7-7.5-0.6c1,1.4,2.6,2.3,4.6,2.1c-2.2,0.5-3.7-0.3-4.9-1.5
			C38.1,99.1,44.2,99.8,46.4,95.2L46.4,95.2z"/>
		<path fill="#20816D" d="M62.4,41.8c-3.3-0.6-4.3,4.4-7.6,2.9c0.6-1.8,2-3.3,4.2-3.6c-2.5,0.2-3.8,1.5-4.7,3.1
			C52.5,40.4,58.7,37.7,62.4,41.8L62.4,41.8z"/>
		<path fill="#A9D16E" d="M85.1,108.8c-3.2,3.5-8.6-1.4-11.3,3.1c2.2,1.5,5,2.1,7.8,0.6c-3,1.9-5.6,1.5-8,0.4
			C74.9,118.8,84.3,116.6,85.1,108.8L85.1,108.8z"/>
		<path fill="#A9D16E" d="M110.5,76.1c-2.1-1-0.5-4.3-3.1-4.9c-0.4,1.3-0.3,2.7,0.8,3.8c-1.3-1.1-1.5-2.4-1.3-3.7
			C104.3,72.7,106.7,76.8,110.5,76.1L110.5,76.1z"/>
	</g>
	<g>
		<path fill="#A9D16E" d="M57.2,80.6c-1.2-1.5,1.1-3.4-0.5-4.7c-0.7,0.8-1.1,1.9-0.7,3.1c-0.6-1.3-0.3-2.3,0.3-3.2
			C53.9,75.9,54.1,79.8,57.2,80.6L57.2,80.6z"/>
		<path fill="#A9D16E" d="M64.4,60.2c-0.6,0-0.6,1-1.2,0.9c0-0.3,0.2-0.7,0.6-0.8c-0.4,0.1-0.6,0.4-0.7,0.8
			C62.5,60.4,63.5,59.7,64.4,60.2L64.4,60.2z"/>
		<path fill="#A9D16E" d="M60,86c0.2,0.8-1,1-0.7,1.9c0.4-0.2,0.8-0.5,0.9-1c0,0.6-0.3,0.9-0.7,1.1C60.3,88.4,61,86.9,60,86L60,86z"
			/>
		<path fill="#A9D16E" d="M69.6,61.3c-0.5-0.3-1,0.4-1.4,0c0.2-0.2,0.5-0.4,0.9-0.3c-0.4-0.1-0.7,0-0.9,0.2
			C68.1,60.4,69.2,60.4,69.6,61.3L69.6,61.3z"/>
		<path fill="#A9D16E" d="M72.9,60c0.8-0.3,0.4-1.5,1.3-1.6c0.1,0.5,0,0.9-0.5,1.3c0.5-0.3,0.6-0.8,0.6-1.2
			C75.2,59.1,74.2,60.4,72.9,60L72.9,60z"/>
		<path fill="#20816D" d="M71.9,56.3c1,0.5,0.4,2,1.6,2.3c0.2-0.6,0.1-1.3-0.5-1.8c0.7,0.5,0.8,1.1,0.7,1.8
			C74.9,57.8,73.7,55.9,71.9,56.3L71.9,56.3z"/>
		<path fill="#A9D16E" d="M75.5,60.2c0.4-1.2-1.4-1.8-0.7-2.9c0.6,0.3,1.1,0.9,1.1,1.7c0.1-0.9-0.4-1.4-0.9-1.9
			C76.4,56.6,77.1,59,75.5,60.2L75.5,60.2z"/>
		<path fill="#A9D16E" d="M77.9,55.1c-0.9,0.2-0.5,1.6-1.5,1.6c-0.1-0.5,0.1-1,0.6-1.4c-0.6,0.3-0.7,0.8-0.8,1.3
			C75.3,55.9,76.5,54.5,77.9,55.1L77.9,55.1z"/>
		<path fill="#A9D16E" d="M73.5,56.1c-0.5-0.7-1.7,0-2.1-0.9c0.5-0.2,1-0.3,1.5,0.1c-0.5-0.5-1-0.4-1.5-0.3
			C71.8,53.9,73.5,54.6,73.5,56.1L73.5,56.1z"/>
		<path fill="#98C856" d="M76.3,57.1c1.3,1-0.2,3,1.4,3.7c0.4-0.8,0.5-1.7,0-2.7c0.7,1,0.7,1.8,0.4,2.7C80,60.2,79,57.1,76.3,57.1
			L76.3,57.1z"/>
		<path fill="#A9D16E" d="M72.1,94.8c0.5,0.4,1.1-0.3,1.5,0.3c-0.3,0.2-0.6,0.3-1,0.2c0.4,0.2,0.7,0.1,1.1-0.1
			C73.6,96,72.3,95.8,72.1,94.8L72.1,94.8z"/>
		<path fill="#A9D16E" d="M58.4,68c-0.7,0.2-0.3,1.3-1.1,1.4c-0.1-0.4,0-0.8,0.4-1.1c-0.4,0.3-0.5,0.7-0.5,1.1
			C56.5,68.8,57.3,67.6,58.4,68L58.4,68z"/>
		<path fill="#A9D16E" d="M88.6,60.1c-0.9,0-1-1.4-2-1.1c0.1,0.5,0.4,1,1,1.2c-0.7-0.1-1-0.6-1.2-1.1C85.7,60.1,87.4,61.1,88.6,60.1
			L88.6,60.1z"/>
		<path fill="#A9D16E" d="M84.4,61.2c-0.5,0.1-0.7-0.7-1.3-0.5c0.1,0.3,0.3,0.5,0.7,0.6c-0.4,0-0.6-0.3-0.8-0.5
			C82.8,61.4,83.8,61.9,84.4,61.2L84.4,61.2z"/>
		<path fill="#A9D16E" d="M86.6,64.4c-1.1,0-1.1-1.6-2.3-1.4c0.1,0.6,0.5,1.1,1.1,1.4c-0.8-0.2-1.1-0.7-1.3-1.2
			C83.3,64.3,85.2,65.5,86.6,64.4L86.6,64.4z"/>
		<path fill="#A9D16E" d="M89.9,61.8c-0.8-0.5-1.6,0.7-2.3-0.1c0.4-0.4,0.9-0.6,1.5-0.5c-0.7-0.2-1.1,0-1.5,0.3
			C87.4,60.3,89.3,60.3,89.9,61.8L89.9,61.8z"/>
		<path fill="#A9D16E" d="M87.6,65.4c-0.7-0.2-1.1,0.9-1.8,0.5c0.2-0.4,0.5-0.7,1.1-0.7c-0.6,0-0.9,0.3-1.2,0.6
			C85.4,64.9,86.9,64.4,87.6,65.4L87.6,65.4z"/>
		<path fill="#A9D16E" d="M89.7,67.9c-1.2-0.3-0.8-2.1-2.2-2.1c0,0.7,0.2,1.4,0.9,1.8c-0.8-0.4-1.1-1-1.1-1.7
			C86.1,66.9,87.8,68.8,89.7,67.9L89.7,67.9z"/>
		<path fill="#A9D16E" d="M92.1,67.4c0.5-0.4,1.1,0.4,1.5-0.1c-0.3-0.2-0.6-0.4-1-0.2c0.4-0.2,0.7-0.1,1,0.1
			C93.6,66.3,92.3,66.4,92.1,67.4L92.1,67.4z"/>
		<path fill="#A9D16E" d="M92.1,66.7c0.3-0.7-0.7-1.2-0.2-1.9c0.4,0.2,0.6,0.6,0.6,1.1c0.1-0.6-0.1-0.9-0.4-1.2
			C93,64.6,93.2,66.1,92.1,66.7L92.1,66.7z"/>
		<path fill="#A9D16E" d="M91.5,65.1c-0.7-1.3-2.8-0.3-3.2-1.9c0.8-0.3,1.7-0.2,2.5,0.5c-0.8-0.8-1.6-0.9-2.5-0.8
			C89.1,61.1,91.9,62.6,91.5,65.1L91.5,65.1z"/>
		<path fill="#98C856" d="M88.5,64.2c-1.5-0.7-0.5-3-2.3-3.3c-0.2,0.9-0.1,1.9,0.7,2.6c-1-0.8-1.1-1.6-1-2.6
			C84.1,62,85.8,64.8,88.5,64.2L88.5,64.2z"/>
		<path fill="#3C5B56" d="M87.8,65C89.6,65.4,89,68,91,68c0.1-1-0.3-2-1.3-2.7c1.2,0.6,1.6,1.5,1.7,2.5C93,66.4,90.5,63.7,87.8,65
			L87.8,65z"/>
		<path fill="#A9D16E" d="M91.7,73c-0.9-0.2-1.2,1.2-2.1,0.8c0.2-0.5,0.5-0.9,1.1-1c-0.7,0-1,0.4-1.3,0.8C89,72.7,90.7,71.9,91.7,73
			L91.7,73z"/>
		<path fill="#A9D16E" d="M90.8,75.9c-0.6-0.3-0.1-1.3-0.9-1.5c-0.1,0.4-0.1,0.8,0.2,1.2c-0.4-0.4-0.4-0.8-0.4-1.2
			C88.9,74.8,89.6,76.1,90.8,75.9L90.8,75.9z"/>
		<path fill="#98C856" d="M89.5,68.5c1,0.2,0.7,1.7,1.8,1.7c0-0.6-0.2-1.1-0.8-1.5c0.7,0.3,0.9,0.8,1,1.4
			C92.5,69.2,91,67.7,89.5,68.5L89.5,68.5z"/>
		<path fill="#A9D16E" d="M89.4,72.1c0.8-0.3,0.4-1.5,1.3-1.6c0.1,0.5,0,1-0.5,1.3c0.5-0.4,0.7-0.8,0.6-1.3
			C91.8,71.1,90.7,72.5,89.4,72.1L89.4,72.1z"/>
		<path fill="#A9D16E" d="M94,70c-0.4-1-2-0.4-2.3-1.6c0.6-0.1,1.3-0.1,1.8,0.5c-0.5-0.7-1.1-0.8-1.7-0.8C92.6,66.9,94.5,68.2,94,70
			L94,70z"/>
		<path fill="#A9D16E" d="M52.6,73.4c0.6-0.5-0.2-1.4,0.6-1.8c0.2,0.4,0.3,0.8,0.1,1.3c0.3-0.5,0.3-0.9,0.1-1.3
			C54.3,71.8,53.9,73.3,52.6,73.4L52.6,73.4z"/>
		<path fill="#A9D16E" d="M68.3,95.1c-0.1,0.6-1.1,0.5-1.1,1.2c0.4,0,0.7-0.1,0.9-0.5c-0.2,0.4-0.5,0.6-0.9,0.6
			C67.9,97,68.8,96,68.3,95.1L68.3,95.1z"/>
		<path fill="#A9D16E" d="M95.2,78.6c-0.6,0.6,0.2,1.5-0.6,2c-0.3-0.4-0.4-0.9-0.1-1.4c-0.3,0.5-0.3,1-0.1,1.4
			C93.4,80.3,93.8,78.7,95.2,78.6L95.2,78.6z"/>
		<path fill="#20816D" d="M90.1,79.5c-0.2-1.3,1.8-1.6,1.3-2.9c-0.7,0.2-1.3,0.7-1.5,1.6c0.1-1,0.6-1.5,1.3-1.8
			C89.7,75.6,88.6,78,90.1,79.5L90.1,79.5z"/>
		<path fill="#A9D16E" d="M90.6,79.1c0.7,0.8-0.5,1.8,0.5,2.5c0.4-0.5,0.5-1,0.3-1.7c0.4,0.7,0.2,1.2-0.1,1.7
			C92.5,81.5,92.2,79.4,90.6,79.1L90.6,79.1z"/>
		<path fill="#A9D16E" d="M89.2,79.4c0.3,0.8-0.9,1.3-0.4,2c0.4-0.2,0.7-0.6,0.7-1.2c0.1,0.6-0.2,1-0.5,1.3
			C89.9,81.8,90.3,80.2,89.2,79.4L89.2,79.4z"/>
		<path fill="#A9D16E" d="M88.4,84.3c0.4-0.8-0.8-1.5-0.1-2.2c0.4,0.3,0.7,0.8,0.6,1.4c0.2-0.7-0.1-1.1-0.4-1.5
			C89.6,81.8,89.8,83.6,88.4,84.3L88.4,84.3z"/>
		<path fill="#A9D16E" d="M83.6,88.3c1-0.1,0.8-1.6,1.9-1.5c0,0.6-0.3,1.1-0.8,1.4c0.7-0.3,0.9-0.7,1-1.3
			C86.5,87.8,85,89.1,83.6,88.3L83.6,88.3z"/>
		<path fill="#A9D16E" d="M82,92c-0.4,0.8-1.6,0.2-1.8,1.2c0.5,0.1,1,0.1,1.4-0.3c-0.4,0.5-0.9,0.6-1.4,0.5
			C80.8,94.3,82.3,93.4,82,92L82,92z"/>
		<path fill="#A9D16E" d="M78.5,90.7c1.3,0.5,2-1.5,3.3-0.7c-0.4,0.7-1,1.2-1.9,1.2c1,0.1,1.6-0.3,2.1-1
			C82.5,91.9,79.8,92.6,78.5,90.7L78.5,90.7z"/>
		<path fill="#A9D16E" d="M73.5,92.4c-0.8-0.5-1.6,0.8-2.3,0.1c0.3-0.4,0.8-0.7,1.4-0.6c-0.7-0.2-1.1,0.1-1.5,0.4
			C71,91.2,72.9,91,73.5,92.4L73.5,92.4z"/>
		<path fill="#A9D16E" d="M69.7,91.1c0.5,0.4,0,1.1,0.6,1.4c0.1-0.3,0.2-0.7-0.1-1c0.3,0.4,0.3,0.7,0.2,1
			C71.2,92.2,70.8,91,69.7,91.1L69.7,91.1z"/>
		<path fill="#A9D16E" d="M66.1,90c-0.6-0.5-1.4,0.4-1.9-0.3c0.3-0.3,0.8-0.4,1.2-0.2c-0.5-0.3-0.9-0.1-1.3,0.1
			C64.3,88.5,65.8,88.7,66.1,90L66.1,90z"/>
		<path fill="#A9D16E" d="M61,65.1c0.5,0.4,1-0.3,1.4,0.2c-0.3,0.2-0.6,0.3-1,0.2c0.4,0.2,0.7,0.1,1-0.1
			C62.4,66.2,61.2,66.1,61,65.1L61,65.1z"/>
		<path fill="#A9D16E" d="M62,64.8c0.9-0.3,0.4-1.6,1.4-1.7c0.1,0.5,0,1-0.5,1.4c0.6-0.4,0.7-0.9,0.7-1.4
			C64.6,63.9,63.4,65.3,62,64.8L62,64.8z"/>
		<path fill="#3C5B56" d="M61.3,66c-0.4,1.1-2.1,0.5-2.3,1.7c0.6,0.1,1.3,0,1.8-0.6c-0.5,0.7-1.1,0.8-1.8,0.8
			C59.9,69.1,61.8,67.8,61.3,66L61.3,66z"/>
		<path fill="#A9D16E" d="M63.5,94.3c-0.3-0.7-1.4-0.2-1.6-1c0.4-0.1,0.9-0.1,1.2,0.3c-0.4-0.5-0.8-0.5-1.2-0.5
			C62.4,92.3,63.8,93.1,63.5,94.3L63.5,94.3z"/>
		<path fill="#A9D16E" d="M58.5,76.3c-0.4,0.6,0.4,1.3-0.2,1.8c-0.3-0.3-0.4-0.7-0.3-1.2c-0.2,0.5-0.1,0.9,0.1,1.2
			C57.3,78.1,57.4,76.6,58.5,76.3L58.5,76.3z"/>
		<path fill="#A9D16E" d="M57.8,83.2c-0.4,0.6,0.5,1.3-0.1,1.9c-0.3-0.3-0.5-0.7-0.3-1.2c-0.2,0.5-0.1,0.9,0.2,1.3
			C56.5,85.1,56.5,83.6,57.8,83.2L57.8,83.2z"/>
		<path fill="#20816D" d="M68.2,61.8c-1.7-0.4-2.5,2.2-4.2,1.3c0.4-0.9,1.2-1.7,2.4-1.8c-1.4,0-2.1,0.7-2.7,1.5
			C62.9,60.7,66.3,59.4,68.2,61.8L68.2,61.8z"/>
		<path fill="#20816D" d="M57.5,76.4c0.4-0.9-1-1.6-0.3-2.4c0.5,0.3,0.8,0.8,0.8,1.5c0.1-0.7-0.2-1.2-0.6-1.6
			C58.6,73.6,59,75.6,57.5,76.4L57.5,76.4z"/>
		<path fill="#A9D16E" d="M55.8,72.1c1.1,0,1.2,1.7,2.4,1.4c-0.1-0.6-0.5-1.2-1.2-1.4c0.8,0.2,1.2,0.7,1.4,1.3
			C59.2,72.1,57.3,70.9,55.8,72.1L55.8,72.1z"/>
		<path fill="#A9D16E" d="M58.4,71.2c0.6-0.9-0.8-1.9,0.1-2.7c0.4,0.4,0.7,1,0.5,1.7c0.3-0.8,0.1-1.3-0.3-1.8
			C60.1,68.4,60,70.6,58.4,71.2L58.4,71.2z"/>
		<path fill="#A9D16E" d="M58.6,78.4c-0.5,1,1.1,1.8,0.3,2.8c-0.5-0.4-0.9-0.9-0.8-1.7c-0.2,0.8,0.2,1.4,0.6,1.8
			C57.2,81.5,56.9,79.2,58.6,78.4L58.6,78.4z"/>
		<path fill="#A9D16E" d="M60.9,84.3c-0.1,1.1,1.6,1.2,1.3,2.3c-0.6-0.1-1.1-0.5-1.3-1.2c0.2,0.8,0.6,1.2,1.2,1.4
			C60.9,87.6,59.8,85.7,60.9,84.3L60.9,84.3z"/>
		<path fill="#A9D16E" d="M64.5,88.5c-1.4-0.5-2.3,1.7-3.7,0.8C61.3,88.5,62,88,63,88c-1.1-0.1-1.8,0.4-2.3,1.1
			C60.1,87.2,63.1,86.4,64.5,88.5L64.5,88.5z"/>
		<path fill="#A9D16E" d="M60.7,65.9c-1.5-0.2-1.8,2.1-3.4,1.6c0.2-0.8,0.8-1.5,1.8-1.8c-1.1,0.2-1.7,0.8-2,1.6
			C56.2,65.6,58.9,64.2,60.7,65.9L60.7,65.9z"/>
		<path fill="#3C5B56" d="M92.3,86.3c-0.1-1,1.4-1.2,1-2.3c-0.5,0.2-1,0.5-1.2,1.2c0.1-0.8,0.5-1.1,1-1.4
			C92,83.3,91.1,85.1,92.3,86.3L92.3,86.3z"/>
		<path fill="#A9D16E" d="M79.4,96.7c0.6-1.1,2.4-0.2,2.8-1.6c-0.7-0.2-1.5-0.2-2.1,0.4c0.7-0.7,1.4-0.8,2.1-0.6
			C81.5,93.3,79.1,94.5,79.4,96.7L79.4,96.7z"/>
		<path fill="#A9D16E" d="M59.3,88.3c-1,0-1,1.5-2.1,1.2c0.1-0.5,0.4-1,1-1.2c-0.7,0.2-1,0.6-1.2,1.1C56.4,88.3,58.1,87.3,59.3,88.3
			L59.3,88.3z"/>
		<path fill="#98C856" d="M55.5,80.2c0.3,1.2,2.2,0.8,2.2,2.2c-0.7,0-1.4-0.2-1.9-0.9c0.4,0.8,1.1,1.1,1.8,1.2
			C56.6,83.9,54.7,82.1,55.5,80.2L55.5,80.2z"/>
		<path fill="#A9D16E" d="M80.9,58.4c-0.7,0.4,0,1.5-0.9,1.7c-0.2-0.4-0.2-0.9,0.2-1.3c-0.4,0.4-0.4,0.9-0.3,1.3
			C78.9,59.8,79.6,58.3,80.9,58.4L80.9,58.4z"/>
		<path fill="#A9D16E" d="M84.9,62.7c-0.9-0.4-1.6,0.9-2.4,0.3c0.3-0.5,0.8-0.8,1.5-0.7c-0.7-0.1-1.2,0.1-1.6,0.5
			C82.2,61.6,84.2,61.3,84.9,62.7L84.9,62.7z"/>
		<path fill="#A9D16E" d="M83.5,56.7c-1,0.3-1.5-1.3-2.5-0.7c0.3,0.5,0.7,1,1.4,1c-0.8,0-1.2-0.4-1.6-0.9
			C80.4,57.4,82.5,58.1,83.5,56.7L83.5,56.7z"/>
		<path fill="#20816D" d="M73.5,96.2c-1.9,0-2.1-2.9-4.1-2.4c0.2,1.1,0.8,2,2.1,2.4c-1.4-0.3-2-1.2-2.4-2.2
			C67.7,96.1,71,98.2,73.5,96.2L73.5,96.2z"/>
		<path fill="#20816D" d="M70.8,93.1c1.1,0.6,2.1-1,3,0c-0.5,0.5-1.1,0.9-1.9,0.7c0.9,0.3,1.5,0,2-0.5C74.1,94.9,71.5,95,70.8,93.1
			L70.8,93.1z"/>
		<path fill="#A9D16E" d="M66.8,90.3c1.3,0.7,0.3,2.6,1.9,3c0.2-0.8,0.2-1.6-0.5-2.3c0.8,0.7,0.9,1.5,0.8,2.3
			C70.6,92.4,69.2,89.9,66.8,90.3L66.8,90.3z"/>
		<path fill="#A9D16E" d="M67.4,92.7c-1-1.1-2.7,0.4-3.5-1c0.7-0.5,1.6-0.6,2.4-0.2c-0.9-0.6-1.7-0.5-2.5-0.1
			C64.3,89.5,67.2,90.2,67.4,92.7L67.4,92.7z"/>
		<path fill="#3C5B56" d="M63.8,89.1c-0.8,1.6-3.3,0.5-3.7,2.4c1,0.3,2,0.2,2.9-0.7c-0.9,1-1.8,1.2-2.8,1.1
			C61.2,93.8,64.4,92,63.8,89.1L63.8,89.1z"/>
		<path fill="#A9D16E" d="M60.1,88.3c-0.7,1,0.8,2.1-0.2,3c-0.5-0.5-0.8-1.2-0.5-1.9c-0.3,0.8-0.1,1.5,0.3,2
			C58,91.3,58.1,88.9,60.1,88.3L60.1,88.3z"/>
		<path fill="#98C856" d="M63.6,92.1c1.2,1.6,3.7-0.2,4.6,1.9c-1,0.5-2.2,0.6-3.4-0.2c1.2,1,2.3,0.9,3.4,0.6
			C67.4,96.9,63.5,95.5,63.6,92.1L63.6,92.1z"/>
		<path fill="#A9D16E" d="M54,82.5c-0.3-1.3,1.6-1.7,1-3c-0.7,0.3-1.2,0.8-1.3,1.7c0-1,0.5-1.5,1.1-1.9C53.3,78.7,52.4,81.2,54,82.5
			L54,82.5z"/>
		<path fill="#A9D16E" d="M54.8,81.7c-0.1,1.4,2.1,1.6,1.7,3.1c-0.8-0.2-1.5-0.7-1.8-1.6c0.2,1.1,0.8,1.6,1.6,1.9
			C54.8,86.1,53.3,83.5,54.8,81.7L54.8,81.7z"/>
		<path fill="#A9D16E" d="M54.4,76.1C53.6,77,55,78.1,54,78.9c-0.4-0.5-0.7-1.2-0.4-1.9c-0.4,0.8-0.2,1.4,0.1,2
			C52.3,78.9,52.5,76.5,54.4,76.1L54.4,76.1z"/>
		<path fill="#A9D16E" d="M54.2,68.9c-0.2,1.3,1.8,1.6,1.3,2.9c-0.7-0.2-1.3-0.7-1.5-1.6c0.1,1,0.7,1.5,1.3,1.8
			C53.8,72.9,52.6,70.5,54.2,68.9L54.2,68.9z"/>
		<path fill="#A9D16E" d="M55.2,70.1c1,0.5,1.8-0.9,2.7-0.1c-0.4,0.5-1,0.8-1.7,0.7c0.8,0.2,1.3-0.1,1.8-0.5
			C58.2,71.5,56,71.7,55.2,70.1L55.2,70.1z"/>
		<path fill="#A9D16E" d="M52.7,76.7c0.9-1.8,3.7-0.6,4.2-2.7c-1.1-0.3-2.3-0.2-3.3,0.8c1-1.2,2.1-1.4,3.2-1.2
			C55.6,71.2,52,73.4,52.7,76.7L52.7,76.7z"/>
		<path fill="#A9D16E" d="M55.9,65.3c0.7-1,2.3,0,2.8-1.3c-0.6-0.3-1.4-0.3-2.1,0.2c0.7-0.6,1.4-0.6,2.1-0.5
			C58.1,62.2,55.8,63.2,55.9,65.3L55.9,65.3z"/>
		<path fill="#3C5B56" d="M56.7,65.5c-1.1,1.3,0.8,3-0.7,4.1c-0.6-0.7-0.9-1.7-0.5-2.8c-0.6,1.1-0.3,2,0.1,2.9
			C53.6,69.5,54,66.1,56.7,65.5L56.7,65.5z"/>
		<path fill="#A9D16E" d="M85.7,93.2c0.4-1.2,2.3-0.7,2.4-2.1c-0.7-0.1-1.5,0.1-2,0.8c0.5-0.8,1.2-1,2-1.1
			C87.1,89.5,85,91.1,85.7,93.2L85.7,93.2z"/>
		<path fill="#98C856" d="M85.5,91c-1.5,1,0,3.3-1.8,4c-0.4-0.9-0.5-2,0.2-2.9C83,93,83,94,83.3,95C81.2,94.2,82.5,90.8,85.5,91
			L85.5,91z"/>
		<path fill="#A9D16E" d="M88.2,83.9c-0.8,0.7,0.2,1.9-0.8,2.4c-0.3-0.5-0.4-1.1,0-1.7c-0.5,0.6-0.4,1.2-0.2,1.7
			C85.9,86,86.5,84,88.2,83.9L88.2,83.9z"/>
		<path fill="#3C5B56" d="M85.9,90.4c-1.3-0.7-2.4,1.2-3.6,0.2c0.5-0.6,1.3-1.1,2.2-0.9c-1.1-0.3-1.8,0.1-2.4,0.6
			C82,88.5,85,88.2,85.9,90.4L85.9,90.4z"/>
		<path fill="#98C856" d="M76.7,91.3c-0.8,0.8-2.1-0.4-2.7,0.7c0.5,0.4,1.2,0.5,1.9,0.2c-0.7,0.5-1.4,0.3-1.9,0.1
			C74.2,93.6,76.5,93.1,76.7,91.3L76.7,91.3z"/>
		<path fill="#3C5B56" d="M76.4,93.4c0.8-0.9,2.3,0.3,3-0.9c-0.6-0.4-1.3-0.5-2.1-0.1c0.8-0.5,1.5-0.4,2.1-0.1
			C79.1,90.7,76.6,91.3,76.4,93.4L76.4,93.4z"/>
		<path fill="#A9D16E" d="M86.1,86.3c0.9,1.1-0.7,2.6,0.6,3.5c0.5-0.6,0.8-1.5,0.4-2.3c0.5,1,0.3,1.7-0.1,2.4
			C88.8,89.7,88.4,86.8,86.1,86.3L86.1,86.3z"/>
		<path fill="#A9D16E" d="M92,79.6c1.1,1.1-0.6,2.7,0.8,3.6c0.5-0.7,0.7-1.6,0.3-2.5c0.6,1,0.4,1.8,0,2.5C95,83,94.5,80,92,79.6
			L92,79.6z"/>
		<path fill="#A9D16E" d="M94.9,75.8c-0.7,1.5-3,0.5-3.4,2.3c0.9,0.2,1.9,0.1,2.7-0.7c-0.8,1-1.7,1.1-2.6,1
			C92.6,80.3,95.5,78.5,94.9,75.8L94.9,75.8z"/>
		<path fill="#20816D" d="M94.3,70.9c-0.8,1.6,1.7,2.9,0.4,4.5c-0.8-0.6-1.4-1.5-1.3-2.7c-0.3,1.3,0.2,2.2,0.9,2.9
			C92.1,75.9,91.6,72.3,94.3,70.9L94.3,70.9z"/>
		<path fill="#A9D16E" d="M92.1,72.9c-0.1-1.3,1.9-1.5,1.5-2.8c-0.7,0.2-1.3,0.6-1.6,1.4c0.2-1,0.7-1.4,1.4-1.7
			C92,69,90.7,71.3,92.1,72.9L92.1,72.9z"/>
		<path fill="#3C5B56" d="M88.8,71.9c0.5-1.2-1.3-2-0.4-3.1c0.6,0.4,1,1,1,1.9c0.2-0.9-0.2-1.5-0.7-2C90.2,68.4,90.7,70.9,88.8,71.9
			L88.8,71.9z"/>
		<path fill="#98C856" d="M88.5,90.3c1.4-1.9-1.5-4.1,0.4-5.8c0.9,0.9,1.5,2.2,1,3.7c0.7-1.6,0.2-2.9-0.6-3.9
			C92.3,84.4,92.2,89.2,88.5,90.3L88.5,90.3z"/>
		<path fill="#A9D16E" d="M66,59.9c0.9-0.2,1.3,1.1,2.2,0.7c-0.2-0.5-0.6-0.9-1.2-0.9c0.7,0,1.1,0.3,1.4,0.8
			C68.8,59.3,67,58.7,66,59.9L66,59.9z"/>
		<path fill="#A9D16E" d="M68.6,57.8c-0.6-1-2.1-0.2-2.5-1.4c0.6-0.2,1.3-0.2,1.9,0.3c-0.6-0.6-1.2-0.7-1.9-0.6
			C66.7,54.8,68.9,55.9,68.6,57.8L68.6,57.8z"/>
		<path fill="#A9D16E" d="M63.5,57.6c-0.8,0.7,0.3,1.9-0.7,2.4c-0.3-0.5-0.4-1.1-0.1-1.7c-0.4,0.6-0.4,1.2-0.1,1.7
			C61.3,59.8,61.8,57.7,63.5,57.6L63.5,57.6z"/>
		<path fill="#A9D16E" d="M90.4,80.9c-0.2,1.4,1.9,1.7,1.3,3.1c-0.7-0.2-1.4-0.8-1.5-1.7c0.1,1,0.7,1.5,1.3,1.9
			C90,85,88.8,82.5,90.4,80.9L90.4,80.9z"/>
		<path fill="#A9D16E" d="M81.6,62.4c0.5-1.3-1.5-2.2-0.6-3.5c0.7,0.4,1.2,1.1,1.2,2c0.1-1.1-0.3-1.7-0.9-2.2
			C83,58.3,83.7,61.1,81.6,62.4L81.6,62.4z"/>
		<path fill="#A9D16E" d="M78.6,61.1c0.9-0.3,1.4,1.1,2.3,0.6c-0.2-0.5-0.7-0.9-1.3-0.9c0.7,0,1.1,0.3,1.4,0.7
			C81.4,60.4,79.6,59.8,78.6,61.1L78.6,61.1z"/>
		<path fill="#A9D16E" d="M76.4,54.8c-1.1,0.1-0.9,1.8-2.1,1.7c0-0.6,0.3-1.2,0.9-1.6c-0.8,0.3-1,0.8-1.1,1.5
			C73.2,55.4,74.8,53.9,76.4,54.8L76.4,54.8z"/>
		<path fill="#A9D16E" d="M72,57.6c-0.8-1.2-2.7,0.1-3.3-1.4c0.7-0.4,1.6-0.4,2.4,0.2c-0.8-0.7-1.6-0.7-2.4-0.5
			C69.3,54.1,72.1,55.2,72,57.6L72,57.6z"/>
		<path fill="#A9D16E" d="M70.5,57.8c1,0.4,0.4,2,1.6,2.2c0.1-0.6,0-1.3-0.5-1.8c0.7,0.5,0.8,1.1,0.8,1.7
			C73.6,59.2,72.3,57.3,70.5,57.8L70.5,57.8z"/>
		<path fill="#3C5B56" d="M57.9,81.7c1.2,1.1-0.5,3,1,3.9c0.5-0.8,0.8-1.7,0.3-2.7c0.7,1.1,0.5,1.9,0.1,2.8
			C61.3,85.3,60.6,82,57.9,81.7L57.9,81.7z"/>
		<path fill="#20816D" d="M81.4,57.9c-1.6-0.4-1.1-2.8-2.9-2.9c-0.1,0.9,0.2,1.9,1.2,2.5c-1.1-0.6-1.4-1.4-1.5-2.3
			C76.7,56.6,79,59,81.4,57.9L81.4,57.9z"/>
		<path fill="#20816D" d="M81.8,57.9C83.6,58.3,83,61,85,61c0-1-0.3-2-1.3-2.7c1.2,0.6,1.6,1.5,1.7,2.5C87,59.3,84.5,56.7,81.8,57.9
			L81.8,57.9z"/>
		<path fill="#20816D" d="M57.9,62.7c1.5-1.3,3.5,1,4.8-0.8c-0.9-0.7-2-1.1-3.2-0.6c1.3-0.7,2.4-0.4,3.3,0.2
			C62.6,59.1,58.6,59.5,57.9,62.7L57.9,62.7z"/>
		<path fill="#20816D" d="M70,61.9c0.3-1.6-2.1-2.1-1.3-3.8c0.8,0.3,1.6,1,1.7,2.1c0-1.2-0.7-1.9-1.4-2.3C70.8,57.1,72,60.2,70,61.9
			L70,61.9z"/>
		<path fill="#98C856" d="M62.8,62.7c-1.1,1-2.7-0.6-3.6,0.8c0.7,0.5,1.6,0.8,2.5,0.3c-1,0.6-1.8,0.4-2.6,0
			C59.4,65.7,62.4,65.1,62.8,62.7L62.8,62.7z"/>
		<path fill="#A9D16E" d="M59.8,86c-1.4,0.7-2.5-1.4-3.9-0.3c0.5,0.7,1.3,1.2,2.4,1.1c-1.2,0.3-1.9-0.2-2.6-0.8
			C55.5,88,58.6,88.4,59.8,86L59.8,86z"/>
		<path fill="#20816D" d="M68.1,58.3c-1.7-0.3-2.2,2.3-3.9,1.5c0.3-0.9,1-1.7,2.2-1.9c-1.3,0.1-1.9,0.8-2.4,1.6
			C62.9,57.6,66.1,56.2,68.1,58.3L68.1,58.3z"/>
		<path fill="#A9D16E" d="M79.8,93.1c-1.7,1.8-4.5-0.7-5.8,1.6c1.2,0.8,2.6,1.1,4.1,0.3c-1.6,1-2.9,0.8-4.1,0.2
			C74.5,98.2,79.4,97.1,79.8,93.1L79.8,93.1z"/>
		<path fill="#A9D16E" d="M93,76.1c-1.1-0.5-0.3-2.2-1.6-2.5c-0.2,0.7-0.1,1.4,0.4,2c-0.7-0.6-0.8-1.3-0.7-1.9
			C89.8,74.4,91,76.5,93,76.1L93,76.1z"/>
	</g>
</g>
</svg>
