<?xml version="1.0" encoding="utf-8"?>
<!-- Generator: Adobe Illustrator 18.1.0, SVG Export Plug-In . SVG Version: 6.00 Build 0)  -->
<svg version="1.0" id="Layer_1" xmlns="http://www.w3.org/2000/svg" xmlns:xlink="http://www.w3.org/1999/xlink" x="0px" y="0px"
	 viewBox="0 0 150 150" enable-background="new 0 0 150 150" xml:space="preserve">
<g>
	<polygon fill="none" points="74.3,140.3 74.3,140.3 74.3,140.3 	"/>
	<path fill="#333037" d="M74.3,139.3c0.3-0.2,0.7-1.7,1-2.6l0.1-0.4c1.3-4.8,4.7-7.6,7.9-9.7c2.9-2,6.2-3.7,9.3-5.4
		c1.7-0.9,3.4-1.8,5-2.7c10.9-6.3,17.5-13.2,21.2-22.4c2.8-6.8,3-16.8,3.3-26.4c0.1-4.6,0.3-9.4,0.7-13.9c0.9-9.7,2.2-24.3,8.4-31.4
		c0.2-0.3,0.5-0.5,0.7-0.8c0.5-0.5,1.3-1.4,1.3-1.7c-0.3-0.6-2.9-1.5-3.8-1.9l-0.8-0.3c-14.2-5.4-28.9-8.3-46.5-9.1l-7.7,0
		c-20.6,0.2-37.8,3-54,8.8c-0.3,0.1-0.6,0.2-1,0.3c-2.7,0.9-4.1,1.6-4.2,2.1c-0.1,0.3,0.1,0.6,0.9,1.3c0.4,0.3,0.7,0.7,1.1,1.1
		c2.5,3,4,7.4,5.2,11.3c1.7,5.9,2.7,13.2,3.2,18.2c0.5,4.9,0.6,10.2,0.7,15.4c0.1,8.5,0.3,17.3,2.2,24c4.4,14.6,15.6,21.1,27.5,28
		c1.5,0.9,3,1.8,4.6,2.7c4.6,2.8,9.9,5.9,11.7,10.5c0.2,0.5,0.2,1.2,0.4,1.9c0.3,1.3,1.3,3,1.3,3v1c0,0,0.1,0,0.1,0L74.3,139.3z
		 M30.9,33c0.2-1.1,3-1.9,4.3-2.4c11.6-4.3,24.4-6.6,40-6.6c1.9,0,3.8,0,5.7,0c13.4,1,24.4,2.9,34.4,6.9c1.2,0.5,3.6,1.2,3.8,2.2
		c0.1,0.7-0.8,1.5-1.6,2.5c-4.3,5-5.3,15.2-6,23.2c-0.9,10.2,0.1,22.8-3,30.5c-0.6,1.5-1.3,3-2.1,4.3l-1.5-1.3l-10.9-9.1l0.3-0.1
		H61.4c0,0-0.1-0.1-0.1-0.1L61.2,83h-0.1l0-0.1L46.8,95l-1.5,1.2c-2-2.6-3.6-5.6-4.7-9.2c-2.4-8.2-1.2-20.2-2.2-29.8
		c-0.4-4.4-1.2-9.5-2.4-13.6c-0.8-2.8-1.9-6.1-3.7-8.3C31.7,34.4,30.7,34,30.9,33z M72.9,118.1c-1.2-3.2-4.9-5.5-8.3-7.5
		C58.8,107,53,104,48.4,99.6l1.5-1.3l14.9-12.7l12.9,10.2l12.5-9.9l12,10.1l1.5,1.3c-3.1,3.7-6.9,6.6-11.2,9.2
		c-3.3,1.9-7.1,3.7-10.4,6.1c-2.3,1.6-4.7,3.6-5.5,6.9c-0.4,1.5-0.7,2.7-1.4,2.8c0,0-0.1,0-0.1,0C73.5,122.2,73.4,119.5,72.9,118.1z
		"/>
	<path fill="#F37421" d="M135.1,21.6c-0.2-1.6-2.3-2.4-5-3.4l-0.7-0.3C115,12.4,100,9.5,82.2,8.6h-7.8c-20.9,0.2-38.2,3-54.6,8.9
		c-0.3,0.1-0.6,0.2-0.9,0.3c-2.4,0.8-5.3,1.8-5.6,3.7c-0.2,1.5,0.7,2.3,1.5,3.1c0.3,0.3,0.6,0.6,0.9,0.9c2.3,2.7,3.7,6.9,4.8,10.6
		c1.7,5.8,2.7,12.9,3.2,17.9c0.5,4.8,0.6,10.1,0.6,15.3c0.1,8.7,0.3,17.6,2.3,24.5c4.6,15.4,16.2,22.1,28.4,29.2
		c1.5,0.9,3,1.8,4.6,2.7c4.4,2.6,9.3,5.5,10.8,9.5c0.2,0.5,0.3,1.1,0.5,1.7c0.5,1.9,1.1,4.5,3.4,4.5l0.2,0c1.7-0.2,2.2-2.1,2.7-4.1
		l0.1-0.4c1.1-4.2,4.2-6.6,7.1-8.6c2.8-2,6-3.6,9.1-5.3c1.7-0.9,3.4-1.8,5-2.7c11.2-6.5,18.2-13.9,22.1-23.4
		c2.9-7.1,3.2-17.3,3.4-27.1c0.1-4.6,0.2-9.4,0.7-13.7c0.9-9.4,2.2-23.6,7.9-30.3c0.2-0.3,0.5-0.5,0.7-0.7
		C134.4,23.9,135.3,22.8,135.1,21.6z M74.3,140.3v-1c-0.7,0-1.1-1.7-1.4-3c-0.2-0.7-0.3-1.4-0.5-1.9c-1.8-4.6-7-7.8-11.7-10.5
		c-1.5-0.9-3.1-1.8-4.6-2.7c-11.9-6.9-23.1-13.4-27.5-28c-2-6.6-2.1-15.4-2.2-24c-0.1-5.2-0.2-10.6-0.7-15.4
		c-0.5-5.1-1.5-12.3-3.2-18.2c-1.2-3.9-2.7-8.4-5.2-11.3c-0.4-0.4-0.7-0.8-1.1-1.1c-0.8-0.7-1-0.9-0.9-1.3c0.1-0.5,1.5-1.2,4.2-2.1
		c0.3-0.1,0.7-0.2,1-0.3c16.2-5.8,33.3-8.7,54-8.8l7.7,0c17.5,0.8,32.3,3.7,46.5,9.1l0.8,0.3c0.9,0.3,3.5,1.3,3.8,1.9
		c0,0.3-0.8,1.2-1.3,1.7c-0.2,0.3-0.5,0.5-0.7,0.8c-6.2,7.1-7.5,21.7-8.4,31.4c-0.4,4.4-0.5,9.2-0.7,13.9
		c-0.3,9.6-0.5,19.6-3.3,26.4c-3.7,9.2-10.3,16.1-21.2,22.4c-1.6,0.9-3.3,1.8-5,2.7c-3.1,1.7-6.3,3.4-9.3,5.4
		c-3.2,2.2-6.6,4.9-7.9,9.7l-0.1,0.4c-0.2,0.9-0.6,2.4-1,2.6L74.3,140.3L74.3,140.3L74.3,140.3z"/>
	<path fill="#F37421" d="M65.6,108.8c3.4,2.1,7.6,4.6,9.1,8.5c0.1,0.2,0.1,0.3,0.2,0.5c1.2-3.2,3.6-5.3,6-7c2.2-1.6,4.6-2.9,6.9-4.1
		c1.3-0.7,2.5-1.3,3.6-2c4.6-2.7,8-5.5,10.7-8.7l-12-10.1l-12.5,9.9L64.8,85.6L49.9,98.3c3.5,3.3,7.7,5.8,12.3,8.5
		C63.4,107.5,64.5,108.1,65.6,108.8z"/>
	<path fill="#F37421" d="M108.9,69c0.1-3.5,0.2-7.1,0.5-10.5c0.9-9.8,2.1-19.1,6.5-24.3c0.2-0.2,0.4-0.4,0.6-0.6
		c0,0,0.1-0.1,0.1-0.1c-0.5-0.2-1.1-0.4-1.4-0.6c-0.2-0.1-0.4-0.1-0.6-0.2c-10.3-4-21-5.7-33.7-6.7h-5.7c-15,0-27.5,2.2-39.3,6.5
		c-0.2,0.1-0.5,0.1-0.7,0.2c-0.4,0.1-1.2,0.4-1.7,0.7c0.2,0.2,0.4,0.4,0.7,0.7c2,2.4,3.2,5.9,4.1,9c1.3,4.5,2,10.1,2.4,13.9
		c0.4,3.7,0.4,7.8,0.5,11.7c0.1,6.3,0.2,12.9,1.6,17.7c1,3.4,2.4,6.1,4.2,8.5l14.3-12.1l0,0.1h0.1l0.1-0.1c0,0,0.1,0.1,0.1,0.1h32.8
		l-0.3,0.1l10.9,9.2c0.7-1.2,1.3-2.5,1.8-3.7C108.5,83.6,108.7,76.2,108.9,69z M62.9,68l-0.6,1.7l0.4-14.1c0,0-8.3-3.3-9.1-5.8
		c-0.8-2.5-1.7-10-1.7-10l16.6,13.3L62.9,68z M97.5,49.8c-0.8,2.5-9.1,5.8-9.1,5.8l0.4,14.1L88.2,68l-5.6-14.9l16.6-13.3
		C99.2,39.9,98.4,47.3,97.5,49.8z"/>
	<path fill="#EF4C31" d="M38.5,57.2c1,9.6-0.2,21.6,2.2,29.8c1.1,3.7,2.7,6.6,4.7,9.2l1.5-1.3c-1.8-2.4-3.3-5.1-4.2-8.5
		c-1.4-4.8-1.5-11.4-1.6-17.7c-0.1-3.9-0.1-8-0.5-11.7c-0.4-3.9-1.1-9.4-2.4-13.9c-0.9-3.1-2.1-6.5-4.1-9c-0.2-0.3-0.5-0.5-0.7-0.7
		c0.6-0.3,1.3-0.5,1.7-0.7c0.3-0.1,0.5-0.2,0.7-0.3c11.8-4.3,24.2-6.4,39.3-6.6h5.7c12.7,0.6,23.5,2.7,33.7,6.8
		c0.2,0.1,0.4,0.1,0.6,0.2c0.3,0.1,0.9,0.3,1.4,0.6c0,0-0.1,0.1-0.1,0.1c-0.2,0.2-0.4,0.4-0.6,0.6c-4.4,5.2-5.6,14.5-6.5,24.3
		c-0.3,3.4-0.4,7-0.5,10.5c-0.2,7.1-0.4,14.5-2.3,19.4c-0.5,1.3-1.1,2.5-1.8,3.7l1.5,1.3c0.8-1.3,1.5-2.8,2.1-4.3
		c3.1-7.7,2-20.3,3-30.5c0.7-8,1.7-18.2,6-23.2c0.8-1,1.8-1.8,1.6-2.5c-0.2-1-2.6-1.7-3.8-2.2c-10.1-3.9-21-6.3-34.4-6.9
		c-1.9,0-3.8,0-5.7,0c-15.6,0.1-28.3,2.4-40,6.7c-1.3,0.5-4.1,1.3-4.3,2.4c-0.2,1,0.8,1.4,1.6,2.4c1.8,2.2,2.9,5.5,3.7,8.3
		C37.3,47.7,38.1,52.8,38.5,57.2z"/>
	<path fill="#EF4C31" d="M75,122.2c0,0,0.1,0,0.1,0c0.8-0.1,1-1.3,1.4-2.8c0.9-3.3,3.2-5.3,5.5-6.9c3.3-2.3,7.1-4.1,10.4-6.1
		c4.3-2.5,8.1-5.4,11.2-9.2l-1.5-1.3c-2.6,3.2-6.1,6-10.7,8.7c-1.1,0.7-2.3,1.3-3.6,2c-2.3,1.3-4.7,2.6-6.9,4.1
		c-2.4,1.7-4.8,3.8-6,7c0-0.2-0.1-0.3-0.2-0.5c-1.5-3.9-5.7-6.5-9.1-8.5c-1.1-0.7-2.3-1.4-3.4-2c-4.6-2.7-8.8-5.2-12.3-8.5l-1.5,1.3
		c4.6,4.4,10.4,7.4,16.2,10.9c3.3,2,7.1,4.3,8.3,7.5C73.4,119.5,73.5,122.2,75,122.2z"/>
	<path fill="#423948" d="M88.2,68l0.6,1.7l-0.4-14.1c0,0,8.3-3.3,9.1-5.8c0.8-2.5,1.7-10,1.7-10L82.6,53.2L88.2,68z"/>
	<path fill="#423948" d="M53.6,49.8c0.8,2.5,9.1,5.8,9.1,5.8l-0.4,14.1l0.6-1.7l5.6-14.9L51.9,39.9C51.9,39.9,52.7,47.3,53.6,49.8z"
		/>
</g>
</svg>
