<?xml version="1.0" encoding="utf-8"?>
<!-- Generator: Adobe Illustrator 18.1.0, SVG Export Plug-In . SVG Version: 6.00 Build 0)  -->
<svg version="1.1" id="Layer_1" xmlns="http://www.w3.org/2000/svg" xmlns:xlink="http://www.w3.org/1999/xlink" x="0px" y="0px"
	 viewBox="0 0 1500 1500" enable-background="new 0 0 1500 1500" xml:space="preserve">
<g>
	<path fill="none" d="M671.8,814.7c-5.5,11.4-9.8,25.2-9.8,40.5c0,13.9,3.7,29,13.2,44.6c0.5-1.8,0.8-3.5,1.1-5.2
		c-7.4-25.9-1.6-54.2,5.7-75.4c-4.8-1.1-8.4-2.6-9.9-4.1C672,815,671.9,814.8,671.8,814.7z"/>
	<path fill="#00A9DE" d="M951.6,171.1c76,64.6,124.2,160.8,124.2,268.3c0,174.5-126.9,319.2-293.4,347.2
		c26.1,6.9,53.4,10.6,81.6,10.6c176.3,0,319.2-142.9,319.2-319.2C1183.1,332.2,1085.2,209.2,951.6,171.1z M913,774.8
		c63.2-19.6,122.1-81.4,122.1-81.4l14,22.4C1002.8,763.5,913,774.8,913,774.8z"/>
	<path fill="#D14F53" d="M711,778.5c0,0-1.3,0.3-3,0.7c-4.3,1-12,2.8-13.6,3.2c-1.1,1.1-3.6,3.6-6.6,7.4c-4.7,5.7-10.8,14.3-16,24.9
		c0.1,0.1,0.1,0.3,0.2,0.4c1.5,1.5,5.2,3,9.9,4.1c2.4,0.5,5.2,1,8.1,1.2c0.4,0,0.7,0.1,1.1,0.1c14.8,1.1,33.7-2.4,40.9-18.1
		c1.2-2.6,1.5-4.9,1.5-7.1c0-0.9-0.1-1.8-0.3-2.6c-0.1-0.5-0.2-0.9-0.4-1.3c-0.1-0.2-0.1-0.4-0.2-0.5c-0.4-1-0.9-1.9-1.5-2.8
		c-3.5-5.2-10.1-9.1-17.2-11.9C713.4,777.3,712.4,778.2,711,778.5z"/>
	<path fill="#D14F53" d="M688.9,775c0.6-0.6,1.3-1,2.1-1.1l0.1,0l8.6-2l9.2-2.2c1.8-0.4,3.5,0.3,4.6,1.6c0.3,0.4,0.6,0.9,0.8,1.5
		c4.8-1.7,9.6-3.6,14.3-5.6c0.5-0.2,1.1-0.4,1.6-0.7C844.7,717.9,925,604.5,925,472.4c0-127.9-75.2-238.1-183.8-289.1
		c-41.1-19.3-87-30.1-135.4-30.1c-40,0-78.2,7.4-113.5,20.9c-120.2,45.8-205.7,162-205.7,298.3c0,176.3,142.9,319.2,319.2,319.2
		c19.6,0,38.8-1.9,57.5-5.3c6.4-1.2,12.8-2.5,19-4C686.1,777.7,688.8,775.1,688.9,775z M871,403.7c14.7,92.6-4.2,155.7-4.2,155.7
		c-2.1-124.2-84.2-176.8-77.9-214.7C795.2,306.9,856.2,311.1,871,403.7z M753.1,237.4c19.8,0,35.8,13.7,35.8,30.5
		c0,16.9-16,30.5-35.8,30.5c-19.7,0-35.8-13.7-35.8-30.5C717.3,251.1,733.4,237.4,753.1,237.4z"/>
	<path d="M743.7,788.6l-2.3-0.1l-10.3-0.5c0.6,0.9,1.1,1.8,1.5,2.8c0.1,0.2,0.1,0.4,0.2,0.5c0.2,0.4,0.3,0.9,0.4,1.3
		c0.2,0.8,0.3,1.7,0.3,2.6l9.3-1.1c0.2,0,0.4-0.2,0.6-0.3c0.5-0.2,0.8-0.6,1.1-1.1c0.7-0.3,1.3-0.9,1.4-1.8c0-0.1-0.1-0.1-0.1-0.2
		C745.8,789.7,744.9,788.7,743.7,788.6z"/>
	<path d="M802.3,1045.2c-14.8-2.5-25.2-8.2-30.7-17c-7.9-12.5-3.6-27.5-3.5-27.6c0.7-2.4-0.7-5-3.1-5.7c-2.4-0.7-5,0.7-5.7,3.1
		c-0.2,0.8-5.5,19,4.5,35c7,11.2,19.4,18.4,37,21.3c20.3,3.4,35,15,40.4,31.8c5.5,17.3,0.3,37.3-13.4,50.9c-1.8,1.8-1.8,4.7,0,6.5
		c1.8,1.8,4.7,1.8,6.5,0c16.1-16.1,22.2-39.7,15.7-60.2C843.4,1063.1,826,1049.2,802.3,1045.2z"/>
	<path d="M768.2,840.3c2.6,2.2,5.7,2.9,9.4,2.3c1.3-0.2,2.1-1.4,1.9-2.6c-0.2-1.2-1.4-2.1-2.6-1.9c-2.4,0.4-4.2,0-5.7-1.3
		c-3.5-2.9-4.2-9.8-4.2-12.2c0-1.3-1-2.3-2.3-2.3c-1.3,0-2.3,1-2.3,2.3C762.4,825,762.5,835.4,768.2,840.3z"/>
	<path d="M690.1,820.5c-2.9-0.3-5.6-0.7-8.1-1.2c-7.3,21.2-13.2,49.5-5.7,75.4c-0.3,1.7-0.6,3.4-1.1,5.2
		c-9.5-15.6-13.2-30.7-13.2-44.6c0-15.3,4.3-29.1,9.8-40.5c5.1-10.6,11.3-19.2,16-24.9c3.1-3.7,5.5-6.3,6.6-7.4
		c1.6-0.4,9.2-2.2,13.6-3.2c1.8-0.4,3-0.7,3-0.7c1.3-0.3,2.3-1.2,2.9-2.4c0.3-0.6,0.6-1.3,0.6-2.1c0-0.3,0-0.7-0.1-1.1
		c0-0.1-0.1-0.2-0.2-0.4c-0.2-0.5-0.4-1-0.8-1.5c-1.1-1.3-2.8-2-4.6-1.6l-9.2,2.2l-8.6,2l-0.1,0c-0.8,0.2-1.5,0.6-2.1,1.1
		c-0.1,0.1-2.8,2.7-6.6,7.3c-1.5,1.8-3.1,3.9-4.8,6.2c-16.7,22.6-42,70.8-6.2,122.1c-7.3,16.4-21.8,35.3-41.7,55.2
		c1.9-7.3,2.6-15,1.7-22.9c-3.8-35.4-35.6-61.1-71-57.4c-35.5,3.8-61.1,35.6-57.4,71c3.7,35,34.8,60.4,69.7,57.4
		c-14.4,10.6-29.9,21-46.4,31.1c-84.8,51.9-58.4,114.6-58.4,114.6c18.6,36.1,69.6,17.8,86.6-34.4c5.8-17.9,21.5-35.4,41.4-51.8
		c26.9,44.1,46.8,104.5,39.6,123.8c-8.8,23.6-74,20.5-74,20.5l-5,67.8c0,0,100.3,36.1,147.3-42.2c0.2,86.7-33,126.6-33,126.6
		c20.1,55.8,61.6,48.9,61.6,48.9s33.2-6,50.7-133.9c14.4-105.9-53.3-239.1-77-281.9c5.3-3.1,10.5-6.1,15.1-8.9
		c50.4-30.5,52.1-93.7,13.7-109.8c-25.1-10.5-42.2-3.6-51.1,2.5c-4.5-21.5,0.1-44.5,6.1-62.6c0.4-1.2,0.8-2.4,1.2-3.5
		C690.8,820.5,690.4,820.5,690.1,820.5z"/>
	<path d="M777.9,815.4c4.2,1,8.3,0.1,12.3-2.7c12.1-8.4,28.7,4,28.9,4.1c1,0.8,2.5,0.6,3.2-0.4c0.8-1,0.6-2.4-0.4-3.2
		c-0.8-0.6-19.4-14.6-34.3-4.3c-2.9,2-5.7,2.7-8.7,2c-7.1-1.6-12.2-10.6-12.2-10.7c-0.6-1.1-2-1.5-3.1-0.9c-1.1,0.6-1.5,2-0.9,3.1
		C762.9,803,768.8,813.3,777.9,815.4z"/>
	<path fill="#FFAF3A" d="M866.8,559.4c0,0,18.9-63.1,4.2-155.7c-14.7-92.6-75.8-96.8-82.1-58.9C782.6,382.6,864.6,435.2,866.8,559.4
		z"/>
	<path fill="#FFAF3A" d="M663.3,786.3c4.7,0.8,9.4,1.5,14.2,2.2c1.7-2.3,3.4-4.4,4.8-6.2C676,783.8,669.7,785.2,663.3,786.3z"/>
	<path fill="#FFAF3A" d="M733.6,795.3c0.1,2.2-0.3,4.6-1.5,7.1c-7.2,15.6-26.1,19.2-40.9,18.1c-0.4,1.2-0.8,2.3-1.2,3.5
		c0.3,5.4,2.5,9.9,7.3,12.8c22.3,13.4,63.1,6,46.2-43c-0.2,0.1-0.4,0.3-0.6,0.3L733.6,795.3z"/>
	<path fill="#FFAF3A" d="M753.1,298.4c19.8,0,35.8-13.7,35.8-30.5c0-16.9-16-30.5-35.8-30.5c-19.7,0-35.8,13.7-35.8,30.5
		C717.3,284.8,733.4,298.4,753.1,298.4z"/>
	<path fill="#FFAF3A" d="M1075.8,439.4c0-107.5-48.2-203.7-124.2-268.3c-61.4-52.3-141-83.8-227.9-83.8
		c-88.6,0-169.5,32.8-231.4,86.8c35.3-13.4,73.5-20.9,113.5-20.9c48.4,0,94.3,10.8,135.4,30.1C849.8,234.3,925,344.5,925,472.4
		c0,132.1-80.3,245.5-194.8,294c-0.5,0.2-1.1,0.4-1.6,0.7c-4.7,2-9.5,3.8-14.3,5.6c0.1,0.1,0.2,0.2,0.2,0.4c0.1,0.4,0.1,0.7,0.1,1.1
		c0,0.8-0.2,1.5-0.6,2.1c7.1,2.8,13.7,6.7,17.2,11.9l10.3,0.5l2.3,0.1c1.2,0,2.1,1,2.1,2.2c12.3-0.8,24.5-2.2,36.5-4.2
		C948.9,758.7,1075.8,613.9,1075.8,439.4z"/>
	<path fill="#FFFFFE" d="M913,774.8c0,0,89.8-11.2,136.1-58.9l-14-22.4C1035.1,693.4,976.2,755.1,913,774.8z"/>
</g>
</svg>
