<?xml version="1.0" encoding="utf-8"?>
<!-- Generator: Adobe Illustrator 18.1.0, SVG Export Plug-In . SVG Version: 6.00 Build 0)  -->
<svg version="1.1" id="Layer_1" xmlns="http://www.w3.org/2000/svg" xmlns:xlink="http://www.w3.org/1999/xlink" x="0px" y="0px"
	 viewBox="0 0 1500 1500" enable-background="new 0 0 1500 1500" xml:space="preserve">
<g>
	<path fill="#FD4F57" d="M555.1,508.5c27.5-54.1,156.6-295.1,322.1-402.1c-43.5,26.6-87.3,64.4-126.6,111.6
		C640.1,83.8,492.3,23.4,419.2,82.9c-73.6,59.9-43.4,218.7,67.3,354.7C508.2,464.2,531.3,487.9,555.1,508.5z"/>
	<path fill="#FD4F57" d="M1029.5,63.7c3,0.4,6,1,8.9,1.6C1035.5,64.7,1032.5,64.1,1029.5,63.7z"/>
	<path fill="#FD4F57" d="M1062.8,74c2.2,1.1,4.4,2.3,6.5,3.6C1067.2,76.3,1065,75.1,1062.8,74z"/>
	<path fill="#FD4F57" d="M1052.2,69.4c2.6,1,5.2,2,7.7,3.2C1057.4,71.4,1054.8,70.4,1052.2,69.4z"/>
	<path fill="#FD4F57" d="M1071.9,79.2c2.9,1.9,5.6,3.8,8.3,6C1077.5,83,1074.7,81,1071.9,79.2z"/>
	<path fill="#FD4F57" d="M555.1,508.5c5.8,5,11.7,9.9,17.6,14.5c-3.1-2.4-6.1-5-9.2-7.6c4.1,3.4,8.2,6.8,12.3,10
		c-0.4-0.3-0.7-0.5-1.1-0.8c12,9.4,24.1,18,36.2,25.7c-3.4-2.2-6.8-4.6-10.2-6.9c4.1,2.7,8.1,5.5,12.2,8.1c-0.1,0-0.1-0.1-0.2-0.1
		c0.1,0.1,0.2,0.1,0.3,0.2c0.5,0.3,0.9,0.6,1.4,0.9c4.7,2.9,9.4,5.7,14.1,8.4c-2.9-1.6-5.8-3.4-8.7-5.2c3.9,2.3,7.7,4.7,11.6,6.8
		c0.4,0.2,0.8,0.4,1.2,0.7c11.3,6.2,22.6,11.7,33.6,16.3c-2.4-1-4.8-2.2-7.2-3.2c3,1.4,6.1,2.8,9.1,4c1,0.4,1.9,0.7,2.9,1.1
		c4.1,1.6,8.1,3.1,12.2,4.5c-1.3-0.5-2.6-1-4-1.5c2.3,0.8,4.6,1.8,6.9,2.6c0.6,0.2,1.2,0.3,1.8,0.5c5.3,1.7,10.6,3.3,15.9,4.7
		c78.9,32.1,209.6-30,309.1-152.2c4.5-5.5,8.8-11.1,13-16.7c1.1-1.5,2.2-3,3.3-4.4c3.8-5.1,7.4-10.1,11-15.2
		c0.4-0.6,0.8-1.1,1.2-1.7c3.9-5.7,7.7-11.5,11.4-17.3c0.7-1.2,1.4-2.3,2.2-3.5c3.4-5.4,6.6-10.8,9.7-16.2c0.3-0.4,0.5-0.9,0.8-1.3
		c3.5-6.1,6.8-12.2,10-18.3c0.2-0.5,0.5-0.9,0.7-1.4c3.1-6,6.1-12,8.9-18c0.1-0.1,0.1-0.2,0.2-0.3c5.9-12.6,11.1-25.2,15.5-37.6
		c0,0,0-0.1,0-0.1c0,0,0,0,0,0c-285.9,4-497.8,182.7-542.3,223.2C557.3,510.3,556.2,509.4,555.1,508.5z M581.9,529.9
		c4.1,3.1,8.3,6.2,12.4,9.1C590.1,536.2,586,533,581.9,529.9z M639.2,566.5c3.5,1.9,7.1,3.8,10.6,5.5
		C646.3,570.3,642.7,568.4,639.2,566.5z"/>
	<path fill="#FD4F57" d="M1015.4,62.4c-7.8-0.3-15.9,0-24.2,0.9C999.5,62.4,1007.6,62.1,1015.4,62.4z"/>
	<path fill="#FD4F57" d="M1040.2,65.7c3.5,0.8,6.9,1.8,10.2,3C1047.1,67.5,1043.7,66.6,1040.2,65.7z"/>
	<path fill="#FD4F57" d="M877.3,106.3c19.5-11.9,39-21.6,57.9-28.8C916.3,84.7,896.8,94.3,877.3,106.3z"/>
	<path fill="#FD4F57" d="M978.3,65.3c3.8-0.7,7.6-1.3,11.3-1.7C985.9,64,982.1,64.6,978.3,65.3z"/>
	<path fill="#FD4F57" d="M935.9,77.2c13.9-5.3,27.6-9.2,40.8-11.7C963.5,68.1,949.8,72,935.9,77.2z"/>
	<path fill="#FD4F57" d="M1017.6,62.5c3.1,0.2,6.1,0.4,9.1,0.8C1023.7,63,1020.7,62.7,1017.6,62.5z"/>
	<path fill="#FF7371" d="M563.5,515.4c3.1,2.5,6.1,5.1,9.2,7.6c0.7,0.5,1.3,1.1,2,1.6c0.4,0.3,0.7,0.5,1.1,0.8
		C571.6,522.2,567.6,518.8,563.5,515.4z"/>
	<path fill="#FF7371" d="M1052.7,384.6c-3.7,5.8-7.4,11.5-11.4,17.3C1045.3,396.1,1049.1,390.4,1052.7,384.6z"/>
	<path fill="#FF7371" d="M1040.2,403.5c-3.5,5.1-7.2,10.2-11,15.2C1033,413.7,1036.6,408.6,1040.2,403.5z"/>
	<path fill="#FF7371" d="M619.8,555.6c2.9,1.7,5.8,3.5,8.7,5.2c1,0.6,2,1.1,2.9,1.7C627.5,560.3,623.6,557.9,619.8,555.6z"/>
	<path fill="#FF7371" d="M600.6,543.4c3.4,2.3,6.8,4.7,10.2,6.9c0.6,0.4,1.2,0.7,1.8,1.1c0.1,0,0.1,0.1,0.2,0.1
		C608.8,548.9,604.7,546.1,600.6,543.4z"/>
	<path fill="#FF7371" d="M1085,326c-2.8,6-5.8,12-8.9,18C1079.2,337.9,1082.2,332,1085,326z"/>
	<path fill="#FF7371" d="M1064.6,365c-3.1,5.4-6.4,10.8-9.7,16.2C1058.3,375.7,1061.5,370.4,1064.6,365z"/>
	<path fill="#FF7371" d="M1100.6,288.1c-4.4,12.4-9.6,24.9-15.5,37.6C1091,313,1096.2,300.5,1100.6,288.1z"/>
	<path fill="#FF7371" d="M659,576.2c2.4,1.1,4.8,2.2,7.2,3.2c0.6,0.3,1.2,0.5,1.9,0.8C665,579,662,577.5,659,576.2z"/>
	<path fill="#FF7371" d="M1075.4,345.4c-3.2,6.1-6.5,12.2-10,18.3C1068.9,357.6,1072.2,351.5,1075.4,345.4z"/>
	<path fill="#FF7371" d="M1025.9,423.2c-4.2,5.6-8.5,11.1-13,16.7C1017.4,434.4,1021.7,428.8,1025.9,423.2z"/>
	<path fill="#FF7371" d="M679.1,584.3c1.3,0.5,2.6,1,4,1.5c1,0.3,2,0.8,3,1.1C683.8,586.2,681.4,585.2,679.1,584.3z"/>
	<path fill="#FF7371" d="M649.8,572c-3.5-1.7-7-3.6-10.6-5.5C642.7,568.4,646.3,570.3,649.8,572z"/>
	<path fill="#FF7371" d="M555.1,508.5L555.1,508.5C555.1,508.5,555.1,508.5,555.1,508.5c1.1,1,2.2,1.8,3.3,2.7
		c44.4-40.5,256.4-218.9,542.3-223.2c31.1-86.8,26.3-164.8-20.5-202.9c-2.7-2.2-5.4-4.1-8.3-6c-0.8-0.6-1.7-1.1-2.6-1.6
		c-2.1-1.3-4.3-2.5-6.5-3.6c-0.9-0.5-1.9-1-2.9-1.4c-2.5-1.2-5.1-2.2-7.7-3.2c-0.6-0.2-1.2-0.5-1.8-0.7c-3.3-1.1-6.7-2.1-10.2-3
		c-0.6-0.1-1.2-0.2-1.8-0.4c-2.9-0.7-5.9-1.2-8.9-1.6c-0.9-0.1-1.9-0.3-2.8-0.4c-3-0.4-6-0.6-9.1-0.8c-0.7,0-1.4-0.1-2.1-0.1
		c-7.8-0.3-15.9,0-24.2,0.9c-0.5,0.1-1.1,0.1-1.6,0.2c-3.7,0.5-7.5,1-11.3,1.7c-0.5,0.1-1.1,0.2-1.6,0.3
		c-13.2,2.5-26.8,6.4-40.8,11.7c-0.2,0.1-0.5,0.2-0.7,0.3c-18.9,7.2-38.4,16.8-57.9,28.8c0,0-0.1,0-0.1,0c0,0,0,0,0,0
		C711.7,213.4,582.6,454.4,555.1,508.5z"/>
	<path fill="#FF7371" d="M594.3,539.1c-4.1-2.9-8.3-6-12.4-9.1C586,533,590.1,536.2,594.3,539.1z"/>
	<path fill="#FFC03B" d="M518.6,1424.3c-4.6,0.8-9.2,1.4-13.8,1.8C509.3,1425.7,513.9,1425.1,518.6,1424.3z"/>
	<path fill="#FFC03B" d="M596.9,1397c-10.5,5.4-20.9,10-31.1,14C576,1407.1,586.4,1402.4,596.9,1397z"/>
	<path fill="#FFC03B" d="M564.6,1411.5c-10.1,3.9-20.1,7-29.9,9.5C544.4,1418.5,554.4,1415.3,564.6,1411.5z"/>
	<path fill="#FFC03B" d="M533.5,1421.2c-4.3,1.1-8.6,2-12.9,2.7C524.8,1423.2,529.1,1422.3,533.5,1421.2z"/>
	<path fill="#FFC03B" d="M476.9,1426.3c-4-0.4-7.9-0.9-11.7-1.6C469,1425.4,472.9,1425.9,476.9,1426.3z"/>
	<path fill="#FFC03B" d="M428.2,1410.4c-3.1-2-6.1-4.1-9-6.4C422,1406.3,425.1,1408.4,428.2,1410.4z"/>
	<path fill="#FFC03B" d="M438.7,1416.2c-2.7-1.3-5.4-2.7-8-4.2C433.4,1413.5,436,1414.9,438.7,1416.2z"/>
	<path fill="#FFC03B" d="M925.5,965.2c3.5,2.7,6.9,5.7,10.4,8.6c-4.1-3.4-8.2-6.8-12.4-10.1c0.3,0.2,0.6,0.5,0.9,0.7
		c-12.1-9.5-24.3-18.1-36.5-25.8c3.5,2.2,7.1,4.7,10.6,7.1c-4-2.7-8.1-5.5-12.1-8c-0.4-0.2-0.8-0.5-1.2-0.7c-5-3.1-10-6.1-14.9-8.9
		c3.1,1.8,6.2,3.7,9.4,5.6c-3.9-2.4-7.9-4.8-11.8-7c-0.3-0.2-0.6-0.3-0.9-0.5c-11.4-6.3-22.7-11.8-33.9-16.5
		c2.9,1.2,5.8,2.6,8.7,3.9c-3.5-1.6-7.1-3.3-10.5-4.7c-0.9-0.4-1.8-0.6-2.7-1c-4.1-1.6-8.2-3.2-12.3-4.6c2,0.7,4,1.5,6,2.3
		c-3-1.1-6.1-2.4-9.1-3.4c-0.6-0.2-1.1-0.3-1.7-0.5c-5.3-1.7-10.7-3.3-15.9-4.7c-78.9-32.1-209.6,30-309.1,152.3
		c-4.6,5.6-9,11.3-13.2,17c-1.1,1.4-2.2,2.9-3.2,4.3c-4.1,5.5-8,11-11.9,16.5c-0.1,0.2-0.3,0.4-0.4,0.6c-4,5.8-7.8,11.7-11.5,17.5
		c-0.8,1.3-1.6,2.6-2.4,3.9c-3.6,5.7-7,11.5-10.3,17.2c0,0.1-0.1,0.2-0.1,0.2c-3.5,6.1-6.7,12.1-9.8,18.1c-0.5,1-1,2-1.5,2.9
		c-6.2,12.1-11.8,24.2-16.6,36.2c-0.3,0.7-0.6,1.4-0.9,2.1c-2.4,6-4.7,11.9-6.8,17.8c291.3-5,505.7-190.7,543.4-225.7
		c0.8,0.6,1.5,1.2,2.3,1.9c-22.1,44-141.1,270.5-297.7,387.3c-16.1,11.4-32.3,21.2-48.3,29.4c51.4-26.5,104.6-69.4,151.3-125.5
		c110.5,134.1,258.4,194.5,331.5,135c73.6-59.9,43.4-218.7-67.3-354.7C985.5,1017.9,955.8,989,925.5,965.2z M917.3,959.1
		c-4.1-3.1-8.2-6.2-12.3-9.1C909.1,952.9,913.2,956,917.3,959.1z M860.8,922.9c-3.8-2-7.6-4.1-11.4-5.9
		C853.2,918.8,857,920.9,860.8,922.9z"/>
	<path fill="#FFC03B" d="M504.6,1426.2c-4.3,0.4-8.4,0.6-12.5,0.6C496.2,1426.7,500.4,1426.5,504.6,1426.2z"/>
	<path fill="#FFC03B" d="M489.3,1426.8c-3.9,0-7.7-0.1-11.4-0.5C481.6,1426.7,485.4,1426.8,489.3,1426.8z"/>
	<path fill="#FFC03B" d="M451,1421.1c-3.5-1.1-7-2.4-10.3-3.9C444,1418.6,447.5,1419.9,451,1421.1z"/>
	<path fill="#FFC03B" d="M462.5,1424.1c-3-0.6-6-1.4-9-2.3C456.4,1422.7,459.4,1423.4,462.5,1424.1z"/>
	<path fill="#FFCF6D" d="M898.5,945.6c-3.5-2.4-7.1-4.9-10.6-7.1c-0.5-0.3-1-0.6-1.5-0.9C890.5,940.1,894.5,942.9,898.5,945.6z"/>
	<path fill="#FFCF6D" d="M841.7,913.5c-2.9-1.3-5.8-2.7-8.7-3.9c-0.6-0.3-1.2-0.5-1.8-0.8C834.7,910.3,838.2,912,841.7,913.5z"/>
	<path fill="#FFCF6D" d="M879.7,933.6c-3.1-1.9-6.2-3.8-9.4-5.6c-0.8-0.5-1.6-0.9-2.4-1.4C871.8,928.8,875.8,931.2,879.7,933.6z"/>
	<path fill="#FFCF6D" d="M849.5,917c3.8,1.8,7.6,3.9,11.4,5.9C857,920.9,853.2,918.8,849.5,917z"/>
	<path fill="#FFCF6D" d="M905,950c4.1,2.9,8.2,6,12.3,9.1C913.2,956,909.1,952.9,905,950z"/>
	<path fill="#FFCF6D" d="M822.3,905.5c-2-0.7-4-1.6-6-2.3c-1-0.3-2-0.8-3-1.1C816.2,903.1,819.3,904.4,822.3,905.5z"/>
	<path fill="#FFCF6D" d="M935.9,973.7c-3.5-2.9-6.9-5.8-10.4-8.6c-0.3-0.3-0.7-0.5-1-0.8c-0.3-0.2-0.6-0.5-0.9-0.7
		C927.7,966.9,931.8,970.3,935.9,973.7z"/>
	<path fill="#FFCF6D" d="M943.5,979.9c-0.8-0.6-1.5-1.2-2.3-1.9c-37.8,34.9-252.1,220.6-543.4,225.7c2.1-5.9,4.3-11.9,6.8-17.8
		c-37.3,92.7-34.8,177.8,14.7,218.1c2.9,2.3,5.9,4.4,9,6.4c0.9,0.5,1.7,1.1,2.6,1.6c2.6,1.5,5.2,2.9,8,4.2c0.7,0.3,1.3,0.7,2,1
		c3.3,1.5,6.8,2.8,10.3,3.9c0.8,0.3,1.7,0.5,2.5,0.7c2.9,0.9,5.9,1.6,9,2.3c0.9,0.2,1.8,0.4,2.7,0.6c3.8,0.7,7.7,1.3,11.7,1.6
		c0.3,0,0.6,0,1,0.1c3.7,0.3,7.6,0.4,11.4,0.5c0.9,0,1.9,0,2.8,0c4.1-0.1,8.3-0.2,12.5-0.6c0.1,0,0.1,0,0.2,0
		c4.5-0.4,9.1-1.1,13.8-1.8c0.7-0.1,1.4-0.2,2-0.4c4.3-0.8,8.5-1.7,12.9-2.7c0.4-0.1,0.8-0.2,1.2-0.3c9.8-2.4,19.7-5.6,29.9-9.5
		c0.4-0.2,0.8-0.3,1.2-0.5c10.2-4,20.6-8.6,31.1-14c0.2-0.1,0.4-0.2,0.6-0.3c16-8.2,32.2-18.1,48.3-29.4
		C802.3,1250.5,921.3,1023.9,943.5,979.9z"/>
	<path fill="#FFCF6D" d="M405.4,1183.8c4.9-12,10.4-24.1,16.6-36.2C415.8,1159.7,410.3,1171.8,405.4,1183.8z"/>
	<path fill="#FFCF6D" d="M423.5,1144.7c3.1-6,6.4-12.1,9.8-18.1C429.9,1132.6,426.6,1138.6,423.5,1144.7z"/>
	<path fill="#FFCF6D" d="M473.2,1066.2c4.3-5.7,8.7-11.3,13.2-17C481.9,1054.9,477.5,1060.5,473.2,1066.2z"/>
	<path fill="#FFCF6D" d="M433.5,1126.3c3.3-5.8,6.8-11.5,10.3-17.2C440.2,1114.8,436.8,1120.5,433.5,1126.3z"/>
	<path fill="#FFCF6D" d="M446.2,1105.2c3.7-5.8,7.5-11.7,11.5-17.5C453.7,1093.5,449.9,1099.3,446.2,1105.2z"/>
	<path fill="#FFCF6D" d="M458.2,1087.1c3.8-5.5,7.8-11,11.9-16.5C465.9,1076,462,1081.5,458.2,1087.1z"/>
	<path fill="#00A9DE" d="M1411.4,414c-59.9-73.6-218.7-43.4-354.7,67.3c-26.3,21.4-49.8,44.3-70.2,67.8
		c26,12.9,171.5,87.5,292.2,194.4C1411.1,633.2,1470.5,486.7,1411.4,414z"/>
	<path fill="#11B8E4" d="M916.6,837c-1-2.3-2.1-4.5-3-6.8C914.5,832.4,915.6,834.7,916.6,837z"/>
	<path fill="#11B8E4" d="M909.7,820.7c-1.5-3.9-2.9-7.8-4.2-11.6C906.8,813,908.2,816.8,909.7,820.7z"/>
	<path fill="#11B8E4" d="M895,763.4c-0.6-5-1-9.9-1.1-14.7C894,753.5,894.4,758.4,895,763.4z"/>
	<path fill="#11B8E4" d="M898.3,783.4c-1.1-4.9-1.9-9.7-2.6-14.4C896.4,773.7,897.2,778.5,898.3,783.4z"/>
	<path fill="#11B8E4" d="M902.6,799.8c-1-3.3-1.9-6.6-2.7-9.8C900.7,793.2,901.6,796.5,902.6,799.8z"/>
	<path fill="#11B8E4" d="M893.9,745.7c0-4.4,0.1-8.8,0.5-13C894,737,893.8,741.3,893.9,745.7z"/>
	<path fill="#11B8E4" d="M1054.4,1007.8c-6.5-5.3-12.7-10.7-18.9-16.2C1041.6,997,1047.9,1002.5,1054.4,1007.8z"/>
	<path fill="#11B8E4" d="M1027.7,984.5c-3.1-2.8-6-5.6-9-8.5C1021.6,978.9,1024.6,981.7,1027.7,984.5z"/>
	<path fill="#11B8E4" d="M927.6,859.1c-1-1.8-1.9-3.5-2.8-5.3C925.7,855.6,926.6,857.4,927.6,859.1z"/>
	<path fill="#11B8E4" d="M897.7,712.4c1.2-4.7,2.6-9.3,4.4-13.7C900.3,703,898.9,707.6,897.7,712.4z"/>
	<path fill="#11B8E4" d="M894.6,729.3c0.5-4.8,1.3-9.5,2.4-14C895.9,719.9,895.1,724.5,894.6,729.3z"/>
	<path fill="#11B8E4" d="M1112.3,1049.3c-6-3.8-12.1-7.7-18.1-11.8C1100.2,1041.6,1106.3,1045.5,1112.3,1049.3z"/>
	<path fill="#11B8E4" d="M1134.1,1062.3c-6.3-3.5-12.5-7.3-18.8-11.1C1121.6,1055,1127.8,1058.7,1134.1,1062.3z"/>
	<path fill="#11B8E4" d="M1153.4,1072.6c-6.4-3.3-12.8-6.7-19.2-10.3C1140.5,1065.9,1146.9,1069.3,1153.4,1072.6z"/>
	<path fill="#11B8E4" d="M1093.9,1037.2c-6-4.1-12-8.4-17.9-12.8C1081.9,1028.9,1087.9,1033.1,1093.9,1037.2z"/>
	<path fill="#11B8E4" d="M919.1,651.6c-1.4,3.1-2.9,6.2-4.2,9.2c-0.2,0.5-0.5,1-0.7,1.6C915.7,658.9,917.4,655.2,919.1,651.6z"/>
	<path fill="#11B8E4" d="M910,673.7c-0.5,1.4-1.1,2.8-1.6,4.2c-0.3,0.9-0.7,1.9-1,2.8C908.2,678.4,909.2,676,910,673.7z"/>
	<path fill="#11B8E4" d="M929.3,630.9c-2.1,3.9-4.3,7.9-6.2,11.8c-0.2,0.4-0.4,0.7-0.6,1.1c0,0,0,0.1-0.1,0.1
		C924.6,639.6,927,635.3,929.3,630.9z"/>
	<path fill="#11B8E4" d="M1276.3,745.5c0.8-0.6,1.5-1.3,2.3-1.9c0,0,0,0,0,0C1158,636.6,1012.5,562.1,986.5,549.1c0,0,0,0,0,0
		c-0.1,0.1-0.2,0.3-0.3,0.4c-0.2,0.3-0.5,0.6-0.7,0.8c27,28.7,223.8,247.5,228.3,547.8c-19.3-6.5-39-14.8-58.9-24.8
		c106.3,53.6,208.8,57.6,254.3,1.7C1468.3,1002.4,1408.8,855.8,1276.3,745.5z"/>
	<path fill="#11B8E4" d="M981.2,555.4c-3.1,3.6-6.1,7.2-9,10.9c-0.6,0.8-1.3,1.6-1.9,2.4C973.8,564.3,977.5,559.8,981.2,555.4z"/>
	<path fill="#11B8E4" d="M953.2,592c-3,4.4-6,8.7-8.8,13.1c-0.3,0.4-0.6,0.9-0.8,1.3C946.6,601.6,949.9,596.8,953.2,592z"/>
	<path fill="#11B8E4" d="M1072,1021.5c-5.9-4.4-11.8-9-17.6-13.7C1060.2,1012.5,1066.1,1017,1072,1021.5z"/>
	<path fill="#11B8E4" d="M966.8,573.4c-3.2,4.2-6.4,8.3-9.4,12.5c-0.3,0.4-0.6,0.8-0.9,1.2c-0.1,0.1-0.2,0.3-0.3,0.4
		C959.6,582.8,963.2,578.1,966.8,573.4z"/>
	<path fill="#11B8E4" d="M940.8,611.1c-2.3,3.8-4.7,7.6-6.8,11.4c-0.5,0.9-1.1,1.8-1.6,2.7C935,620.5,937.9,615.8,940.8,611.1z"/>
	<path fill="#00A9DE" d="M985.4,550.4c0.2-0.3,0.5-0.6,0.7-0.8C985.9,549.8,985.7,550.1,985.4,550.4
		C985.4,550.4,985.4,550.4,985.4,550.4c-0.1,0.1-0.2,0.3-0.4,0.4c-4.4,5.2-8.7,10.3-12.8,15.5c2.9-3.6,6-7.3,9-10.9
		c-3.7,4.4-7.4,8.8-10.9,13.3c-0.3,0.4-0.6,0.8-0.9,1.2c-4.1,5.3-8.2,10.7-12,16c3-4.2,6.2-8.4,9.4-12.5c-3.6,4.7-7.2,9.4-10.6,14.2
		c0.1-0.1,0.2-0.3,0.3-0.4c-4.3,6-8.3,12-12.1,18c2.8-4.4,5.8-8.7,8.8-13.1c-3.3,4.8-6.6,9.6-9.6,14.4c-0.3,0.5-0.6,1-0.9,1.6
		c-3.1,4.9-6,9.7-8.7,14.6c2.2-3.8,4.5-7.6,6.8-11.4c-2.9,4.7-5.8,9.4-8.4,14.1c-0.3,0.5-0.5,1-0.8,1.5c-3,5.3-5.8,10.7-8.4,16
		c1.9-3.9,4.1-7.9,6.2-11.8c-2.3,4.3-4.7,8.7-6.8,13c0,0,0-0.1,0.1-0.1c-2.8,5.7-5.3,11.4-7.7,17.1c1.3-3.1,2.8-6.2,4.2-9.2
		c-1.6,3.6-3.4,7.2-4.9,10.8c-0.4,0.9-0.7,1.8-1,2.8c-1.7,4.3-3.3,8.5-4.7,12.7c0.5-1.4,1.1-2.8,1.6-4.2c-0.9,2.3-1.8,4.7-2.6,7
		c-0.2,0.6-0.3,1.2-0.5,1.8c-1.8,5.4-3.4,10.8-4.7,16.1c-1.8,4.4-3.2,9-4.4,13.7c-0.3,1-0.5,2-0.7,3c-1,4.6-1.8,9.2-2.4,14
		c-0.1,1.1-0.2,2.3-0.3,3.4c-0.4,4.3-0.5,8.6-0.5,13c0,1,0,2,0,3c0.1,4.8,0.6,9.7,1.1,14.7c0.2,1.9,0.4,3.7,0.7,5.6
		c0.7,4.7,1.5,9.5,2.6,14.4c0.5,2.2,1.1,4.4,1.6,6.5c0.8,3.2,1.7,6.5,2.7,9.8c0.9,3.1,1.9,6.2,2.9,9.4c1.3,3.8,2.7,7.7,4.2,11.6
		c1.2,3.1,2.5,6.3,3.9,9.5c1,2.2,2,4.5,3,6.8c2.5,5.6,5.3,11.2,8.2,16.9c0.9,1.8,1.8,3.5,2.8,5.3c21.3,39.4,52.2,79.5,91.1,116.9
		c3,2.8,5.9,5.7,9,8.5c2.6,2.4,5.2,4.7,7.8,7.1c6.2,5.5,12.4,10.9,18.9,16.2c5.8,4.7,11.7,9.3,17.6,13.7c1.3,1,2.6,2,4,3
		c5.9,4.4,11.9,8.7,17.9,12.8c0.1,0.1,0.3,0.2,0.4,0.3c6,4.1,12,8,18.1,11.8c1,0.6,2,1.3,3,1.9c6.3,3.9,12.5,7.6,18.8,11.1
		c0,0,0,0,0,0c6.4,3.6,12.8,7,19.2,10.3c0.5,0.2,1,0.5,1.4,0.7c19.9,10,39.7,18.3,58.9,24.8C1209.2,797.8,1012.5,579,985.4,550.4z"
		/>
	<path fill="#6CAB36" d="M68.1,499.3c-0.5-5.1-0.6-10.1-0.6-15C67.4,489.2,67.6,494.2,68.1,499.3z"/>
	<path fill="#6CAB36" d="M67.4,482.5c0.1-4.8,0.4-9.4,0.9-13.9C67.8,473.1,67.5,477.8,67.4,482.5z"/>
	<path fill="#6CAB36" d="M515.5,936.9C515.5,936.9,515.5,936.9,515.5,936.9c0.1-0.1,0.2-0.3,0.3-0.4c4.2-4.9,8.2-9.8,12.1-14.7
		c-2.2,2.8-4.5,5.5-6.8,8.2c2.9-3.6,5.9-7.1,8.7-10.7c-0.1,0.2-0.2,0.3-0.3,0.5c0.3-0.4,0.6-0.7,0.9-1.1c0.1-0.1,0.1-0.1,0.2-0.2
		c9-11.6,17.3-23.3,24.7-34.9c-2.2,3.4-4.6,6.9-6.9,10.3c2.7-4,5.4-7.9,7.9-11.9c0.3-0.5,0.6-0.9,0.9-1.4c3-4.9,5.9-9.7,8.7-14.6
		c-1.8,3.1-3.7,6.2-5.5,9.3c2.4-4,4.9-8,7.1-12c0.2-0.4,0.4-0.8,0.6-1.2c6.3-11.4,11.8-22.8,16.5-34c-1.2,2.9-2.6,5.8-3.9,8.7
		c1.6-3.5,3.3-7,4.7-10.5c0.4-0.9,0.6-1.7,1-2.6c1.7-4.2,3.3-8.4,4.7-12.6c-0.6,1.8-1.4,3.6-2,5.4c1-2.8,2.2-5.6,3.1-8.3
		c0.2-0.6,0.3-1.2,0.5-1.7c1.8-5.4,3.4-10.7,4.7-16c32.1-78.9-30-209.6-152.3-309.1c-5.6-4.6-11.3-8.9-17-13.2
		c-1.4-1.1-2.9-2.2-4.3-3.3c-5.5-4-10.9-8-16.4-11.8c-0.2-0.2-0.5-0.3-0.7-0.5c-5.8-4-11.6-7.8-17.4-11.5c-1.3-0.8-2.6-1.7-4-2.5
		c-5.7-3.5-11.3-6.9-17-10.2c-0.2-0.1-0.3-0.2-0.5-0.3c-6-3.4-12-6.7-18-9.8c-1-0.5-2.1-1.1-3.1-1.6c-5.9-3-11.7-5.9-17.6-8.6
		c-0.1,0-0.1-0.1-0.2-0.1c-6.1-2.8-12.1-5.4-18.2-7.9c-0.8-0.3-1.7-0.7-2.5-1c-5.8-2.3-11.2-4.5-16.9-6.5c-0.1-0.1-0.2-0.1-0.2-0.2
		c0,0,0,0,0,0c4,290.1,187.9,504.2,224.7,544.2c-0.7,0.8-1.5,1.7-2.2,2.6c-35.6-18-175.6-91.7-291.2-195.1c0.3-0.2,0.5-0.4,0.7-0.7
		C89,854.1,28.5,1002,88,1075c59.9,73.6,218.7,43.4,354.7-67.3C470.2,985.4,494.5,961.5,515.5,936.9z M535.3,912.1
		c2.9-3.8,5.8-7.6,8.5-11.5C541.1,904.5,538.1,908.3,535.3,912.1z M571.1,856.2c2-3.8,4.1-7.7,6-11.5
		C575.2,848.5,573.1,852.3,571.1,856.2z"/>
	<path fill="#6CAB36" d="M70.3,515.5c-1-5.4-1.7-10.7-2.2-16C68.6,504.8,69.3,510.1,70.3,515.5z"/>
	<path fill="#6CAB36" d="M74.4,533.9c-1.5-5.6-2.7-11.1-3.8-16.5C71.7,522.8,72.9,528.3,74.4,533.9z"/>
	<path fill="#6CAB36" d="M71.3,452.3c1.1-4.2,2.4-8.2,4-12.2C73.7,444.1,72.3,448.1,71.3,452.3z"/>
	<path fill="#6CAB36" d="M76.1,438c1.6-3.9,3.5-7.6,5.5-11.2C79.5,430.4,77.7,434.1,76.1,438z"/>
	<path fill="#6CAB36" d="M223,743.6c-5.6-4.6-11-9.3-16.3-14.1C212.1,734.3,217.5,739,223,743.6z"/>
	<path fill="#6CAB36" d="M68.6,466.2c0.6-4.6,1.4-9.1,2.5-13.4C70,457.1,69.2,461.6,68.6,466.2z"/>
	<path fill="#6CAB36" d="M82.9,424.7c2.2-3.7,4.6-7.3,7.4-10.6C87.5,417.4,85.1,421,82.9,424.7z"/>
	<path fill="#6CAB36" d="M87,570c-5.2-12.1-9.3-24-12.5-35.7C77.7,546,81.9,557.9,87,570z"/>
	<path fill="#6CAB36" d="M160.6,683.1c-32.6-36.9-57.4-75.4-73.3-112.3c22.2,51.7,62.1,106.6,116.1,155.8
		c-5.2-4.8-10.4-9.6-15.3-14.4C178.7,702.6,169.5,692.9,160.6,683.1z"/>
	<path fill="#96C26E" d="M329,408.3c5.8,2.7,11.7,5.6,17.6,8.6C340.7,413.8,334.8,411,329,408.3z"/>
	<path fill="#96C26E" d="M577.1,844.7c-1.9,3.8-3.9,7.7-6,11.5C573.1,852.3,575.2,848.5,577.1,844.7z"/>
	<path fill="#96C26E" d="M291,392.8c5.7,2,11.4,4.2,17.2,6.5C302.4,397,296.6,394.8,291,392.8z"/>
	<path fill="#96C26E" d="M389.1,441.1c5.8,3.7,11.6,7.5,17.4,11.5C400.8,448.6,394.9,444.8,389.1,441.1z"/>
	<path fill="#96C26E" d="M588.9,816.6c0.7-1.8,1.4-3.6,2-5.4c0.3-1,0.7-1.9,1.1-2.9C591.1,811,590,813.8,588.9,816.6z"/>
	<path fill="#96C26E" d="M580.6,836.8c1.3-2.9,2.7-5.8,3.9-8.7c0.2-0.6,0.5-1.2,0.8-1.7C583.9,829.8,582.2,833.3,580.6,836.8z"/>
	<path fill="#96C26E" d="M543.8,900.6c-2.7,3.8-5.6,7.7-8.5,11.5C538.1,908.3,541.1,904.5,543.8,900.6z"/>
	<path fill="#96C26E" d="M310.6,400.3c6,2.5,12.1,5.1,18.2,7.9C322.7,405.4,316.7,402.8,310.6,400.3z"/>
	<path fill="#96C26E" d="M560.3,875.2c1.9-3.1,3.8-6.2,5.5-9.3c0.5-0.9,1.1-1.8,1.6-2.7C565.2,867.2,562.7,871.2,560.3,875.2z"/>
	<path fill="#96C26E" d="M513.4,939.4c0.7-0.8,1.4-1.7,2.1-2.6c-36.8-40.1-220.6-254.1-225-544.2c-85.7-30.1-162.6-24.9-200.3,21.4
		c-2.7,3.4-5.2,7-7.4,10.6c-0.4,0.7-0.9,1.4-1.3,2.1c-2.1,3.6-3.9,7.3-5.5,11.2c-0.3,0.7-0.6,1.4-0.8,2.2c-1.5,3.9-2.9,8-4,12.2
		c0,0.2-0.1,0.3-0.1,0.5c-1.1,4.3-1.9,8.8-2.5,13.4c-0.1,0.8-0.2,1.6-0.3,2.4c-0.5,4.5-0.8,9.2-0.9,13.9c0,0.6,0,1.2,0,1.8
		c0,4.9,0.2,9.9,0.6,15c0,0.1,0,0.1,0,0.2c0.5,5.2,1.3,10.6,2.2,16c0.1,0.6,0.2,1.2,0.3,1.8c1,5.4,2.3,10.9,3.8,16.5
		c0,0.1,0.1,0.3,0.1,0.4C77.7,546,81.9,557.9,87,570c0.1,0.2,0.2,0.5,0.3,0.7c15.8,36.9,40.7,75.4,73.3,112.3
		c8.8,9.9,18,19.6,27.5,29c5,4.9,10.1,9.7,15.3,14.4c1.1,1,2.2,2,3.3,3c5.3,4.8,10.7,9.5,16.3,14.1c-0.3,0.2-0.5,0.4-0.8,0.7
		C337.9,847.7,477.8,921.4,513.4,939.4z"/>
	<path fill="#96C26E" d="M368.2,428.5c5.7,3.2,11.3,6.7,17,10.2C379.5,435.1,373.8,431.7,368.2,428.5z"/>
	<path fill="#96C26E" d="M407.3,453.1c5.5,3.8,11,7.7,16.4,11.8C418.2,460.8,412.8,456.9,407.3,453.1z"/>
	<path fill="#96C26E" d="M349.7,418.4c6,3.1,12,6.3,18,9.8C361.7,424.8,355.7,421.5,349.7,418.4z"/>
	<path fill="#96C26E" d="M428.1,468.1c5.7,4.3,11.3,8.7,17,13.2C439.4,476.8,433.7,472.4,428.1,468.1z"/>
	<path fill="#96C26E" d="M548.4,893.8c2.3-3.4,4.7-6.9,6.9-10.3c0.3-0.5,0.7-1.1,1-1.6C553.8,885.8,551,889.8,548.4,893.8z"/>
	<path fill="#96C26E" d="M521.2,930c2.3-2.7,4.6-5.5,6.8-8.2c0.5-0.7,1-1.3,1.6-2c0.1-0.2,0.2-0.3,0.3-0.5
		C527.1,922.9,524.1,926.4,521.2,930z"/>
</g>
</svg>
