<?xml version="1.0" encoding="utf-8"?>
<!-- Generator: Adobe Illustrator 18.1.0, SVG Export Plug-In . SVG Version: 6.00 Build 0)  -->
<svg version="1.1" id="Layer_1" xmlns="http://www.w3.org/2000/svg" xmlns:xlink="http://www.w3.org/1999/xlink" x="0px" y="0px"
	 viewBox="0 0 1500 1500" enable-background="new 0 0 1500 1500" xml:space="preserve">
<g>
	<path fill="#4B4B4B" d="M1260.4,860.9c-3.1,19.6-6.9,42.8-8.9,52.8c-1.9,9.3-6.5,26.2-11,41.6c19,3.3,34.2,6,46.3,8.4
		c12.1-29.2,21.9-59.7,29.1-91.1c-11.7-2.2-23.2-4.4-32.1-6.6C1277.8,864.7,1269.1,862.8,1260.4,860.9z"/>
	<path fill="#4B4B4B" d="M244.3,860.9c-8.7,1.9-17.4,3.8-23.5,5.2c-9.4,2.3-21.7,4.6-34.2,7c7.3,31.4,17,61.8,29.2,91.1
		c12.5-2.4,28.2-5.3,48.4-8.8c-4.5-15.5-9.2-32.3-11-41.7C251.2,903.7,247.4,880.6,244.3,860.9z"/>
	<path fill="#CE2027" d="M262.1,724.4c7.1-4,14.2-6,21.2-6c0,0,2.5,0,2.8,0c5.7-6,13.1-11.3,22.5-16.5l2-1.1
		C331,475.4,520.5,298.7,751.2,298.7c230.3,0,419.5,176,440.6,400.8l4.2,2.3c9.4,5.2,16.8,10.5,22.5,16.5c0.5,0,1,0.1,1.4,0.1l1.4,0
		c7,0,14.1,2,21.3,6c13.4,3.3,61.9,13.9,88.3,19.6c0-0.9,0.1-1.8,0.1-2.7c0-320.2-259.6-579.8-579.8-579.8
		c-320.2,0-579.8,259.6-579.8,579.8c0,1.1,0.1,2.1,0.1,3.2C197.2,739,247.7,728,262.1,724.4z M1217.5,548.7l8.8-19.4l10.1,18.8
		l21.2,2.3l-14.7,15.3l4.3,20.8l-19.2-9.3l-18.4,10.6l2.9-21.1l-15.7-14.3L1217.5,548.7z M1139.3,418.4l2.6-21.1l15.2,14.9l20.9-4.1
		l-9.5,19.1l10.3,18.6l-21.1-3.1l-14.5,15.6l-3.5-21l-19.3-9L1139.3,418.4z M1022,296.5l18.9,9.7l18.8-10.1l-3.4,21l15.4,14.7
		l-21,3.3l-9.2,19.2l-9.6-19l-21.1-2.8l15.1-15L1022,296.5z M877.5,235.9l21,3.6l14.9-15.2l3.1,21.1l19.1,9.4l-19.1,9.4l-3.1,21.1
		L898.5,270l-21,3.6l9.9-18.8L877.5,235.9z M742.7,218.4l9.6-19l9.2,19.2l21,3.3l-15.4,14.7l3.4,21.1l-18.8-10.1l-18.9,9.7l3.9-20.9
		l-15.1-15L742.7,218.4z M587.6,244.6l3.5-21l14.5,15.6l21.1-3.1l-10.3,18.6l9.4,19.1l-20.9-4.1l-15.2,14.9l-2.6-21.1l-18.9-9.9
		L587.6,244.6z M444.5,294.7l18.5,10.5l19.2-9.2l-4.3,20.8l14.7,15.4l-21.1,2.3l-10.1,18.7l-8.7-19.4l-20.9-3.8l15.7-14.3
		L444.5,294.7z M325.7,406.3l20.8,4.6l15.5-14.5l2.1,21.2l18.6,10.3l-19.5,8.5l-4,20.9l-14.1-15.9l-21.1,2.6l10.8-18.4L325.7,406.3z
		 M266.8,546.4l10.5-18.5l8.3,19.6l20.8,4.3l-16.1,13.9l2.4,21.1l-18.2-11l-19.4,8.8l4.8-20.7l-14.3-15.7L266.8,546.4z"/>
	<path fill="#231E20" d="M1194.8,1035.8c-21.9-4.7-36.8-14.3-44.5-28.5c-1-0.5-2-1.1-2.9-1.7c-2.3,0-4.4-0.2-6.6-0.5
		c-8.3,2-20,3.2-37.1,3.9c-80.8,106.3-208.6,174.9-352.4,174.9c-143.9,0-271.7-68.7-352.5-175c-15.9-0.7-26.8-1.9-34.8-3.8
		c-2.1,0.3-4.3,0.4-6.6,0.5c-1,0.6-2,1.2-3,1.7c-7.7,14.2-22.6,23.8-44.4,28.5c-5.8,1.2-12.3,2.7-19.4,4.3
		c-10.4,2.4-21.2,4.8-31.8,7c102.3,164.4,284.6,273.9,492.5,273.9c208.1,0,390.5-109.7,492.8-274.4c-10-2.1-20.2-4.4-29.9-6.6
		C1207.1,1038.6,1200.5,1037.1,1194.8,1035.8z"/>
	<g>
		<path fill="#4B4B4B" d="M1421.1,809.1c-4.9-18.5-15.2-25.3-24.6-29.4l-2.2-1l-1.3-2.1c-9.9-16.5-33.2-19.6-44.2-21.1
			c-1.3-0.2-2.5-0.3-3.5-0.5c-2.7-0.5-8.5-1.8-15.9-3.4c-27.9-6-75.6-16.4-88.6-19.6l-1-0.2l-0.9-0.5c-5.9-3.3-11.7-5-18.5-5
			c-0.1,0-5.3-0.2-5.3-0.2l-2.1-2.2c-5-5.3-11.8-10.2-20.6-15.1l-7.8-4.3l-0.4-4.1c-21-224.5-207.1-393.8-432.9-393.8
			c-226.4,0-412.6,169.8-433,395.1l-0.4,4.1l-5.6,3.1c-8.9,4.9-15.6,9.8-20.6,15.1l-2.1,2.2l-3.1,0.2l-3.2,0.1
			c-5.6,0-11.5,1.7-17.4,5l-0.9,0.5l-1,0.2c-14.9,3.7-66.2,14.9-90.8,20.1c-6.4,1.4-11.3,2.4-13.8,2.9c-1.1,0.2-2.4,0.4-4.6,0.7
			c-9.9,1.3-33.1,4.5-43.1,21l-1.3,2.1l-2.2,1c-9.4,4.2-19.8,11-24.9,30.6c-6.4,23.1-9.5,61.8,23.1,157.5
			c11.3,33.1,24.6,53.8,40.8,63.3l0.7,0.4l0.6,0.5c12.2,11.1,26.7,12.9,40.8,14.6l3.7,0.5c2.6,0.3,5.5,0.5,8.7,0.5
			c16.1,0,39.4-4.5,55.5-7.9c10.6-2.2,21.4-4.7,31.7-7c7.1-1.6,13.7-3.1,19.5-4.4c19.5-4.2,32.7-12.5,39.3-24.6l1.1-2.1l2.1-1.1
			c0.8-0.4,1.6-0.9,2.4-1.4l1.9-1.2l2.2,0c1.9,0,3.8-0.1,5.6-0.4l1.4-0.2l1.4,0.3c7.8,1.8,18.4,3,33.4,3.6l3.6,0.2l2.2,2.9
			c83.1,109.3,209.3,172,346.4,172c137,0,263.2-62.7,346.3-171.9l2.2-2.9l3.6-0.1c16.3-0.6,27.6-1.8,35.6-3.7l1.4-0.3l1.4,0.2
			c1.8,0.2,3.7,0.4,5.6,0.4l2.2,0l1.9,1.2c0.8,0.5,4.5,2.5,4.5,2.5l1.1,2.1c6.6,12.1,19.8,20.4,39.3,24.7c5.6,1.2,11.9,2.6,19.5,4.4
			c9.7,2.2,19.8,4.5,29.8,6.6c18.2,3.9,41.2,8.3,57.4,8.3c3.2,0,6.1-0.2,8.8-0.5l3.7-0.5c14-1.7,28.6-3.5,40.8-14.6l0.6-0.5l0.7-0.4
			c16.2-9.5,29.6-30.2,40.8-63.3C1430.9,872.1,1427.6,832.8,1421.1,809.1z M727.4,445.5l26.1-51.3l24.8,51.9l56.8,8.9l-41.6,39.7
			l9.1,56.9l-50.7-27.4l-51.1,26.1l10.4-56.6l-40.8-40.6L727.4,445.5z M620.5,1035.6c10.5,4.7,23.1,5.5,28.3,17.9
			c-6.3-3.5-12.6-7-18.9-10.5c-0.2,0.3-0.3,0.6-0.5,0.8c6.9,4.2,13.8,8.4,21,12.8C635.9,1059.5,624.6,1051.6,620.5,1035.6z
			 M640.1,1019.4c0.2,2.9,0.6,5.8,1.1,8.7c0.5,3,1.1,6,1.7,9.1c-6.9-5.6-9-12.2-6.5-20c1.4-4.2,2.7-8.4,4.2-13.1
			c3.6,7.5,9,14,9.1,22.7c0,4.1-1.4,7.5-5.3,11.8c-1.5-10-2.9-19-4.4-28.6C640,1013.6,639.9,1016.5,640.1,1019.4z M634.9,1070.2
			c4-0.3,8.2-0.5,12.3-1.1c8.6-1.3,16.2,0.4,22.6,5.9c-7.3-0.6-14.8-1.1-22.2-1.7c0,0.4-0.1,0.7-0.1,1.1c8.1,1,16.2,2.1,24.5,3.1
			C658.1,1088.7,641.6,1083,634.9,1070.2z M662,1107.5c-1.9-0.4-3.7-1.5-5.4-2.2c6.1-4.8,11.9-9.7,18-13.9c2.7-1.9,6.1-3.1,9.4-3.6
			c4.1-0.6,8.3-0.1,12.5-0.1c0,0.4,0.1,0.8,0.1,1.1c-3.3,0.5-6.6,1.1-9.3,1.6c-4.9,2.9-9.6,5.6-14.3,8.4c0,0.1,0.1,0.1,0.1,0.2
			c4.4-1.5,8.9-3.1,13.3-4.6c0,0,0.1-0.1,0.1-0.1c0.1,0,0.2,0,0.3,0c3.9-1.5,7.9-2.9,12.8-4.7c-2.1,5.4-4.3,9.2-8.8,11.2v0
			c-0.5,0.2-1.1,0.4-1.4,0.7C681.8,1110.6,672,1109.5,662,1107.5z M702.9,1122c-6.1,2.7-12.3,4.5-18.8,0.7
			c3.9-4.2,7.5-8.2,11.1-12.1c0.4-0.4,0.5-1,0.6-1.6c1-3.2,2.5-5.9,6.2-6.9c1.2-0.3,1.9-2.4,3.2-2.9c4.1-1.5,8.4-2.7,12.8-3.5
			c-7.8,4.7-13.5,11.4-19.7,17.5c0.2,0.2,0.5,0.4,0.7,0.6c7.1-5.5,14.2-10.9,21.2-16.4c0.3,0.3,0.6,0.6,0.9,0.9
			C718.3,1108.6,713.4,1117.4,702.9,1122z M757.2,1120c-3-4-5.8-7.9-9.3-12.6c-3.5,4.6-6.4,8.5-9.4,12.5c-1.3-0.5-2.9-1.2-5.3-2.2
			c3.6-4.4,6.9-8.5,10.3-12.7c-3.3-2.3-6.7-5.1-10.4-7.2c-2.7-1.4-5.9-1.7-8.8-2.7c-1.1-0.4-2.1-1.2-3.1-1.9l-0.1,0l0-0.1
			c-1,0.1-2.1,0.5-3,0.2c-5.2-1.6-10.4-3.3-15.6-5.2c-4-1.5-7.8-4-11.9-4.8c-8.7-1.7-15.4-6.8-22.1-11.7c-8.2-6-15.2-13.4-20.2-22.4
			c-1.1-1.9-1.9-3.9-2.9-5.9c0.3-0.1,0.5-0.3,0.8-0.4c1.3,2.1,2.5,4.2,3.9,6.1c8.9,12.4,20.2,22.1,34.2,28.1
			c11.8,5,24.1,8.9,36.2,13.2c0.6,0.2,1.3,0.5,1.7,0.7c-0.4,0.8-0.7,1.5-1.1,2.1c0,0,0.1,0,0.1,0c4.3-1.2,8.4-2,11.4,2.6
			c0.2,0.2,0.6,0.5,0.9,0.5c5.2-0.7,8.6,3.1,12.8,5c0.9,0.4,2.4,0.6,3.1,0.1c12.2-7.6,25.9-11.5,39.6-15.6
			c15.8-4.7,30.8-10.9,43.4-21.9c7.5-6.6,13.7-14.1,18.6-22.8c-1.4,6-4.5,11.1-8.3,15.9c-12.4,15.5-28.7,25-47.3,31.1
			c-12.8,4.2-25.4,9.2-38,13.9c-1.8,0.7-3.4,2-5.1,3c3.5,4.2,6.8,8.3,10.6,12.8C760.3,1118.7,758.6,1119.4,757.2,1120z
			 M661.5,1030.3c-1.6,7.9-3.3,15.9-4.9,23.7c-6-13.5-2.4-24.5,9.1-33.1c5.8,11.5,4.2,25.8-4.3,33.8c-0.8,0.8-1.8,1.4-2.7,2.1
			c-0.3-0.1-0.6-0.3-1-0.4c1.6-8.7,3.1-17.3,4.7-26L661.5,1030.3z M682.3,1074.1c-11.1-11.6-11.6-29.3-2.3-39.9
			c2.3,4.8,4.4,9.6,6.9,14.2c4.7,8.6,4.5,17.3,0.5,26c-0.3,0.6-0.7,1.1-1.1,1.7c-0.4,0-0.8,0.1-1.2,0.1c-2.1-10.5-4.2-20.9-6.4-31.8
			C678.1,1054.7,679.8,1064.3,682.3,1074.1z M703,1081.9c-0.2,0-0.5,0-0.6-0.1c-1-4.7-5-8.1-5.8-12.7c-0.9-5-1.1-10.2-0.7-15.3
			c0.4-5.6,4.8-11.4,9.5-14.4c1.8,5.7,3.2,11.4,5.3,16.8c3.2,8.3,0.8,15.9-2.1,23.5c-0.6,1.4-1.8,2.6-2.7,3.9l-1.2-0.1l-3.5-32.3
			C700.1,1061.5,700.7,1071.7,703,1081.9z M724.7,1087.7c-8.9-8.9-8.3-30.7,0.8-39c9.7,17.5,13.1,24.8,2,40.9
			c-1.2-10.1-2.5-20.3-3.7-30.4c-0.1,0-0.1-0.1-0.1-0.1c-0.2,3.2-0.4,6.4-0.6,9.6c-0.2,3.2-1,6.4-0.7,9.6
			C722.7,1081.4,724.1,1084.5,724.7,1087.7z M772.1,1058.7c-1.2,10.8-2.4,20.8-3.6,31.5c-6.8-6.7-9-18.7-5.5-27.1
			c2.1-5,4.7-9.7,7-14.6c9.5,7.8,10.3,27.3,1.2,40C772.7,1078.3,773.5,1068.9,772.1,1058.7z M794.6,1051.6
			c-1.1,10.6-2.2,21.2-3.3,31.8c-0.5,0.1-1,0.1-1.6,0.2c-1.1-1.8-2.5-3.5-3.3-5.5c-3.1-7.1-4-14.4-1.2-21.9c2-5.5,3.5-11.2,5.2-16.9
			c14.7,9.3,11.8,31.1,2.6,42.2C794.7,1071.3,796.1,1061.5,794.6,1051.6z M817.2,1044.6l-6.4,31.5c-0.5,0-1-0.1-1.5-0.1
			c-4.3-8.3-5.5-16.7-1.3-25.5c2.6-5.4,5.3-10.9,7.9-16.2c9.3,10.3,8.8,27.7-1.5,39.2c1.1-9.1,2.4-19,3.6-28.8
			C817.7,1044.6,817.4,1044.6,817.2,1044.6z M838.1,1056.6c-0.4,0.1-0.9,0.2-1.3,0.4c-6.1-5-10.7-10.8-9.8-19.4
			c0.6-5.8,1.8-11.6,2.6-17c11.5,8.8,15.9,19.7,9.6,33.4c-1.7-8.1-3.5-16.5-5.3-24.8c-0.3,0.1-0.6,0.1-0.9,0.2
			C834.8,1038.4,836.4,1047.5,838.1,1056.6z M855.7,1010.8c-1.4,9-2.7,18-4.1,27c-0.4,0-0.8,0-1.2,0c-3.9-4.4-5.6-9.8-3.7-15.4
			c2.1-6.2,5.2-12,8.8-17.8c1.7,6,3.9,11.9,4.9,18c1,6.2-3.1,10.7-7.1,14.8c1.1-8.9,2.2-17.7,3.2-26.5
			C856.3,1010.8,856,1010.8,855.7,1010.8z M804.3,1124.7c-15.2-0.8-26.6-10.3-29.6-27.6c7,5,13.4,9.6,19.8,14.2
			c0.2-0.2,0.3-0.4,0.5-0.6c-5.7-4.9-11.4-9.8-17.5-15c7.7,0.5,14.4,2.7,19.5,8.3c2.4,2.7,4.2,5.9,6.4,8.8c2.5,3.2,5.1,6.4,8.1,10.3
			C809.2,1123.7,806.7,1124.8,804.3,1124.7z M796.2,1090.5l0.5-1c8.7,3.1,17.5,6.3,26.2,9.4c0.1-0.1,0.2-0.3,0.2-0.5
			c-4-1.9-7.8-4-11.9-5.7c-4-1.7-8.1-2.9-12.8-4.6c9.3-1.9,17.4-1.1,24.6,4.5c5.4,4.1,10.6,8.4,15.8,12.5
			C827.3,1114.7,803.8,1107,796.2,1090.5z M823.6,1077.5c8.6-1.1,16.7-2.1,24.9-3.1c0-0.3-0.1-0.7-0.1-1.1c-7.5,0.6-15,1.1-22.4,1.7
			c6.4-5.5,14.1-7.2,22.7-5.9c4.1,0.6,8.4,0.8,12.3,1.1C853.7,1083.5,837.7,1088.3,823.6,1077.5z M845.2,1056.9
			c7.6-4.6,14.6-8.9,21.7-13.2c-0.1-0.3-0.3-0.5-0.4-0.8c-6.5,3.5-12.9,7.1-19.4,10.6c5.2-12.2,17.5-13.2,28.1-17.8
			C871.9,1050.5,861,1059.3,845.2,1056.9z M1383.8,967.9c-10.5,30.9-22.3,49.3-36.1,56.1c-9,9.3-20.1,10.7-34,12.4l-3.8,0.5
			c-2,0.2-4.3,0.4-6.8,0.4c-20.1,0-55.4-8-83.9-14.5c-7.1-1.6-13.8-3.1-19.6-4.4c-15-3.2-24.8-9-29.1-17.1c-1.1-2.2-1.8-4.4-2.1-6.5
			c-7.8-2.5-10.2-3.9-13-7.9c0,0-0.1-0.1-0.2-0.2c-1.1,0.4-2.2,0.6-3.5,0.7c-1.5,0.2-2.9,0.2-4.1,0.2c-2.9,0-5.6-0.4-7.9-1.2
			c-7.3,2.8-23.8,5.1-68.7,5.1c-27.3,0-57.6-0.8-84.4-1.6c-18.8-0.5-35.2-1-46.1-1c-45.4-0.1-158.9-30.3-177.2-42.6
			c-4.2-2.8-7.9-6.5-11.2-11.2c-3.3,4.6-7.1,8.4-11.2,11.2c-18.3,12.3-131.8,42.5-177.2,42.6c-10.8,0-27.2,0.5-46,1
			c-26.8,0.7-57.1,1.6-84.4,1.6c-44.9,0-61.4-2.3-68.7-5.1c-2.3,0.8-4.9,1.2-7.8,1.2c-1.2,0-2.6-0.1-4.1-0.2
			c-1.2-0.1-2.4-0.4-3.5-0.8c0,0.1-0.1,0.2-0.1,0.2c-2.8,4.2-5.2,5.5-13,8c-0.3,2.1-0.9,4.3-2.1,6.4c-4.3,8.1-14,13.9-29.1,17.1
			c-5.8,1.2-12.4,2.7-19.5,4.4c-28.4,6.5-63.8,14.5-83.9,14.5c-2.5,0-4.8-0.1-6.8-0.4l-3.8-0.5c-13.9-1.7-25-3-34-12.4
			c-13.8-6.8-25.6-25.2-36.1-56.1C85.7,864.5,94.7,831.8,98.5,818.2c3.5-13.3,10.2-17,17.9-20.1c2-0.8,4.2-1.6,6.2-2.4
			c3.3-15.5,22.6-18.1,34.2-19.7c2.1-0.3,4.1-0.5,5.6-0.9c10.3-2.1,96.7-20.7,108.7-24.1c4.5-2.9,8.5-4.4,12.2-4.4l1.6,0.1
			c1-0.1,2.5-0.2,4.2-0.2c2.9,0,5.7,0.3,8.1,1c3.4-7,9.7-13.2,22.6-20.3l9.9-5.5c64-35.4,151.1-83.2,168.7-88.9l2.5-0.8
			c16.4-5.3,41.1-13.4,68-13.4c10.1,0,19.8,1.2,28.8,3.5c10.7-7.5,21-13.4,33.9-13.4c4.2,0,8.4,0.6,12.9,1.8
			c2.7,0.7,5.9,1.5,9.4,2.3c19.7,4.7,49.5,11.9,65.2,29.6c16.4,18.6,27.9,63.8,33.3,91.3c5.4-27.6,16.9-72.8,33.3-91.3
			c15.7-17.7,45.4-24.8,65.2-29.6c3.5-0.8,6.7-1.6,9.4-2.3c4.5-1.2,8.8-1.8,12.9-1.8c12.9,0,23.2,5.9,33.9,13.4
			c9-2.3,18.7-3.5,28.8-3.5c26.9,0,51.7,8.1,68,13.4l2.5,0.8c17.6,5.7,104.7,53.5,168.7,88.9l9.9,5.5c12.8,7.1,19.1,13.3,22.6,20.3
			c2.5-0.6,5.2-1,8.1-1c1.5,0,2.8,0.1,3.7,0.2l0.2-0.1h1.9c3.6,0,7.7,1.5,12.2,4.4c12.1,3.4,98.5,22,108.7,24.1
			c1.5,0.3,3.5,0.6,5.6,0.9c11.6,1.6,30.9,4.2,34.2,19.6c2,0.7,4.2,1.6,6.2,2.4c7.7,3.1,14.4,6.7,18.3,21.3
			C1409.9,831.8,1418.9,864.5,1383.8,967.9z"/>
	</g>
	<path fill="#CE2027" d="M1385.4,805.3c-3.5-1.4-7.5-2.8-10.4-3.8c-0.1-1.2-0.3-2.3-0.4-3.3c-1.9-13.2-24.5-13.5-33.9-15.4
		c-9.4-1.9-102.4-21.9-110.6-24.6c-7.2-5-10.1-3.5-10.1-3.5s-11.6-2-17,4c-1.9-8.9-5.4-15.5-21.9-24.6
		c-16.5-9-155.9-86.9-177.2-93.8c-21.4-6.9-61.1-20.8-98.4-9.6c-15.3-11-26.2-17.2-43.4-12.6c-17.2,4.7-54.1,10.7-70.8,29.6
		c-17.8,20.1-30.8,79.3-34.2,103.4c-1,7.2-2.8,14.7-4.9,22.9c-2-8.2-3.9-15.7-4.9-22.9c-3.4-24.1-16.4-83.3-34.2-103.4
		c-16.7-18.9-53.6-24.9-70.8-29.6c-17.2-4.6-28.1,1.6-43.4,12.6c-37.3-11.2-77.1,2.7-98.4,9.6c-21.3,6.9-160.8,84.8-177.2,93.8
		c-16.4,9-20,15.7-21.9,24.6c-5.4-6-17-4-17-4s-2.9-1.5-10.1,3.5c-8.1,2.7-101.2,22.7-110.6,24.6c-9.4,1.9-32,2.2-33.9,15.4
		c-0.1,0.9-0.3,2.1-0.4,3.3c-2.9,1-6.9,2.4-10.4,3.8c-6.3,2.5-10.6,4.6-13.3,14.9c-2.7,10.3-13.6,39.8,22.3,145.3
		c11.3,33.3,22.9,47.8,33.5,52.3c7.9,9,17.9,9.5,34.1,11.5c21.1,2.6,76.8-11.8,107.7-18.4c30.9-6.7,24.8-21.6,24.8-21.6
		c17.4-5.2,11.4-4,17.7-10.5c1.9-1.9,2.6-2.7,3-2.8c0.6-0.1-0.7,3.2,4.8,3.9c5.2,0.6,8.2-0.3,9.7-1c1-0.5,1.5-0.9,1.5-0.9
		c13.3,11.1,154,3.6,199,3.5C609,981.2,720.4,951,736.8,940c6.2-4.2,11.4-11.1,15.5-20.6c4.1,9.6,9.3,16.4,15.6,20.6
		c16.4,11,127.8,41.2,172.9,41.3c45.1,0.1,185.7,7.6,199-3.5c0,0,0.5,0.4,1.5,0.9c1.5,0.7,4.5,1.6,9.7,1c5.5-0.6,4.2-3.9,4.8-3.9
		c0.4,0.1,1.1,0.9,3,2.8c6.3,6.5,0.4,5.3,17.7,10.5c0,0-6.1,15,24.8,21.6c30.9,6.6,86.6,21,107.7,18.4c16.2-2,26.2-2.6,34.1-11.5
		c10.5-4.5,22.1-18.9,33.5-52.3c35.9-105.5,25-135,22.3-145.3C1396,809.9,1391.7,807.8,1385.4,805.3z M181.3,1008.9
		c-14-32.5-17.2-49-20.9-71.5c-3.7-22.6-11.5-72.7-12.9-83.1c20-4.1,48.9-8.9,66.1-13c17.3-4.1,56.1-12,56.1-12s10.1,65.5,13.8,83.5
		c3.6,18.1,20.4,72.3,20.4,72.3S190.8,1003.9,181.3,1008.9z M1344.2,937.4c-3.7,22.6-6.9,39-20.9,71.5c-9.5-5-122.5-23.7-122.5-23.7
		s16.7-54.2,20.4-72.3c3.6-18.1,13.8-83.5,13.8-83.5s38.8,7.9,56.1,12c17.3,4.1,46.1,8.9,66.1,13
		C1355.7,864.7,1347.9,914.8,1344.2,937.4z"/>
</g>
</svg>
