<?xml version="1.0" encoding="utf-8"?>
<!-- Generator: Adobe Illustrator 18.1.0, SVG Export Plug-In . SVG Version: 6.00 Build 0)  -->
<svg version="1.1" id="Layer_1" xmlns="http://www.w3.org/2000/svg" xmlns:xlink="http://www.w3.org/1999/xlink" x="0px" y="0px"
	 viewBox="0 0 150 150" enable-background="new 0 0 150 150" xml:space="preserve">
<g>
	<path fill="#E42D2E" d="M142.7,67l-11.5-8.5v0h0l-10.4-7.7V20.6h-15.4v18.8L80.3,20.8c-2.3-1.7-6.1-1.7-8.4-0.1L7.1,67.1
		c-2.3,1.7-2,3,0.7,3H21v56.6h46.9l-18.7-18.7C42,100.9,38,91.2,38,81c0-10.2,4-19.8,11.2-27.1c0.5-0.5,1-0.9,1.5-1.3l0.4-0.3
		c3-2.7,6.4-4.8,10.1-6.4c4.8-2.1,10-3.2,15.2-3.2c5.3,0,10.6,1.1,15.5,3.3c3.7,1.6,7.1,3.9,10.2,6.6c0.2,0.1,0.3,0.3,0.5,0.4
		c0.3,0.3,0.6,0.5,0.9,0.8c7.2,7.2,11.2,16.8,11.2,27.1c0,10.2-4,19.8-11.2,27.1l-18.7,18.7h46.5V70.1H142
		C144.7,70.1,145.1,68.7,142.7,67z"/>
	<path fill="#03A8DD" d="M101,56.3c-0.2-0.2-0.5-0.5-0.8-0.7c-0.2-0.1-0.3-0.3-0.5-0.4c-2.8-2.5-5.9-4.6-9.3-6.1
		c-4.5-2-9.3-3-14.2-3c-4.8,0-9.4,1-13.8,2.9c-3.3,1.4-6.4,3.4-9.2,5.8l-0.4,0.3c-0.4,0.4-0.9,0.8-1.3,1.2
		C45,62.9,41.4,71.7,41.4,81c0,9.3,3.6,18.1,10.2,24.7l21,21l3.6,3.6l3.6-3.6l21-21c6.6-6.6,10.2-15.4,10.2-24.7
		C111.2,71.7,107.6,62.9,101,56.3z M76,99.9c-10.5,0-19.1-8.6-19.1-19.1c0-2.2,0.4-4.3,1.1-6.3c-1-1.5-1.6-3.2-1.6-5.1c0-5,4-9,9-9
		c2.1,0,4.1,0.7,5.6,2c1.6-0.4,3.3-0.7,5-0.7c10.5,0,19.1,8.5,19.1,19.1C95.1,91.3,86.6,99.9,76,99.9z"/>
	<path fill="#1D4077" d="M76,61.7c-1.7,0-3.4,0.3-5,0.7c2.1,1.6,3.4,4.2,3.4,7c0,5-4,9-9,9c-3.1,0-5.8-1.5-7.4-3.9
		c-0.7,2-1.1,4.1-1.1,6.3c0,10.5,8.5,19.1,19.1,19.1s19.1-8.6,19.1-19.1C95.1,70.3,86.6,61.7,76,61.7z M80.7,76.9
		c-2.5,0-4.4-2-4.4-4.4c0-2.5,2-4.4,4.4-4.4c2.5,0,4.4,2,4.4,4.4C85.1,74.9,83.2,76.9,80.7,76.9z"/>
</g>
</svg>
