<?xml version="1.0" encoding="utf-8"?>
<!-- Generator: Adobe Illustrator 18.1.0, SVG Export Plug-In . SVG Version: 6.00 Build 0)  -->
<svg version="1.1" id="Layer_1" xmlns="http://www.w3.org/2000/svg" xmlns:xlink="http://www.w3.org/1999/xlink" x="0px" y="0px"
	 viewBox="0 0 150 150" enable-background="new 0 0 150 150" xml:space="preserve">
<g>
	<path fill="#48B2E8" d="M103.3,131.3c0,0-35.2-5.3-24.7-37.9c0,0,8.9-19.5,7.4-24.7c0,0,10.3-1.8,6,12.1c0,0-6,13.7,5.3,13.1
		c0,0,31.6-6,32.3-36.5c0,0-0.3-14.5,7.4-12.6c0,0-0.3,13.9-1.3,21c-1.3,8.6-11.6,25.2-20.8,32.3
		C105.7,105.2,97.3,119.2,103.3,131.3z"/>
	<path fill="#0081C3" d="M99.4,90.3c0,0,18.4-1.1,26.3-21.6c0,0-1.1-21.8,0.3-23.9c0,0-6.1-2.1-6.6,12.9
		c-0.5,15.3-1.8,15.8-1.8,15.8s0.1,1.2-0.9-17.1c-0.1-1.9,0.8-4,0.6-6.3c0,0-8.2-3.7-6.6,16.6c0,0,0.8,10-1.1,13.1l-0.5-22.9
		c0,0-5.8-0.3-5.5,10.3C103.9,77.6,102.3,87.6,99.4,90.3z"/>
	<path fill="#48B2E8" d="M45.1,131.8c0,0,35.2-5.3,24.7-37.9c0,0-8.9-19.5-7.4-24.7c0,0-10.3-1.8-6,12.1c0,0,6,13.7-5.3,13.1
		c0,0-31.6-6-32.3-36.5c0,0,0.3-14.5-7.4-12.6c0,0,0.3,13.9,1.3,21C14,75,24.3,91.6,33.5,98.7C42.7,105.8,51.2,119.7,45.1,131.8z"/>
	<path fill="#0081C3" d="M49.1,90.8c0,0-18.4-1.1-26.3-21.6c0,0,1.1-21.8-0.3-23.9c0,0,6.1-2.1,6.6,12.9C29.6,73.4,30.9,74,30.9,74
		s-0.1,1.2,0.9-17.1c0.1-1.9-0.8-4-0.6-6.3c0,0,8.2-3.7,6.6,16.6c0,0-0.8,10,1.1,13.1l0.5-22.9c0,0,5.8-0.3,5.5,10.3
		C44.6,78.2,46.2,88.2,49.1,90.8z"/>
	<linearGradient id="SVGID_1_" gradientUnits="userSpaceOnUse" x1="97.8461" y1="63.4712" x2="91.9874" y2="10.7454">
		<stop  offset="0" style="stop-color:#4CA950"/>
		<stop  offset="1" style="stop-color:#36845B"/>
	</linearGradient>
	<path fill="url(#SVGID_1_)" d="M72.4,59.6c-0.5,1-2.2-44.7,45.4-42.1c0,0-2.6,3.3-3.3,7c-0.7,3.7-4,43.6-39.5,36.2
		c0,0,9.5-26,34.8-35.9C109.7,24.8,88.5,28.1,72.4,59.6z"/>
	<linearGradient id="SVGID_2_" gradientUnits="userSpaceOnUse" x1="58.1238" y1="67.8863" x2="52.2648" y2="15.1573">
		<stop  offset="0" style="stop-color:#4CA950"/>
		<stop  offset="1" style="stop-color:#36845B"/>
	</linearGradient>
	<path fill="url(#SVGID_2_)" d="M71.4,60.2c0.4,0.7,1.5-31.3-31.9-29.6c0,0,1.8,2.3,2.3,4.9c0.5,2.6,2.8,30.6,27.8,25.4
		c0,0-6.7-18.2-24.4-25.2C45.2,35.8,60.1,38.1,71.4,60.2z"/>
</g>
</svg>
