<?xml version="1.0" encoding="utf-8"?>
<!-- Generator: Adobe Illustrator 18.1.0, SVG Export Plug-In . SVG Version: 6.00 Build 0)  -->
<svg version="1.1" id="Layer_1" xmlns="http://www.w3.org/2000/svg" xmlns:xlink="http://www.w3.org/1999/xlink" x="0px" y="0px"
	 viewBox="0 0 150 150" enable-background="new 0 0 150 150" xml:space="preserve">
<g>
	<path fill="#024F77" d="M54.7,13.3l1.4,8.4c-4.6,1.8-9,4.3-13.1,7.4l-6.5-5.6c-2.8-2.4-7-2.1-9.4,0.7l-6.7,7.8
		c-2.4,2.8-2.1,7,0.7,9.4l6.5,5.6c-2.4,4.5-4.2,9.2-5.3,14.1L13.7,61c-3.7,0-6.7,2.9-6.7,6.6L6.9,77.8c0,3.7,2.9,6.7,6.6,6.7
		l8.5,0.1c1,4.9,2.7,9.7,5,14.2l-6.6,5.4c-2.8,2.3-3.3,6.5-0.9,9.4l6.5,8c2.3,2.8,6.5,3.3,9.4,0.9l6.6-5.4c4,3.2,8.4,5.8,12.9,7.7
		l-1.6,8.4c-0.7,3.6,1.7,7.1,5.3,7.8l10.1,1.9c0.5,0.1,1,0.1,1.5,0.1V109c-6.2-1.1-12.1-3.8-17.2-8.2c-15.1-13-16.8-35.8-3.8-50.9
		c5.6-6.6,13.1-10.6,21-12V4.1l-10,1.6C56.6,6.3,54.1,9.7,54.7,13.3z"/>
	<path fill="#EE3F24" d="M143.5,67.8c-0.1-4.4-3.7-8.1-8.1-8.1l-5,0.1c-0.7-1.1-1.8-1.9-3-2.1c-1-3.5-2.3-6.9-4-10.1l5.5-4.8
		c1.7-1.4,2.6-3.4,2.8-5.6c0.2-2.2-0.5-4.3-1.9-5.9l-1-1.2c0.2-0.5,0.3-1.1,0.3-1.7c0-2.5-2.1-4.6-4.6-4.6c-0.4,0-0.7,0.1-1.1,0.1
		l-0.4-0.4c-1.5-1.8-3.8-2.8-6.2-2.8c-1.9,0-3.8,0.7-5.3,2l-5.5,4.8c-3.5-2.6-7.3-4.7-11.4-6.4l1.2-7.2c0.7-4.4-2.3-8.6-6.7-9.4
		L77.3,2.6v37l1.2,0.2c3,0.5,5.9,1.5,8.6,2.7c0,0.1,0,0.2,0,0.3c0,2.5,2.1,4.6,4.6,4.6c0.9,0,1.6-0.2,2.3-0.7
		c1.7,1.3,3.3,2.8,4.7,4.5c12.4,14.5,10.8,36.3-3.7,48.8c-0.6,0.5-1.1,0.9-1.7,1.4c-0.8-0.6-1.8-1-2.8-1c-2.5,0-4.6,2.1-4.6,4.6
		c0,0.2,0,0.4,0.1,0.7c-2.4,1-4.9,1.8-7.4,2.2l-1.2,0.2v30.7c-1.1,0.8-1.8,2.1-1.8,3.6c0,2.5,2.1,4.6,4.6,4.6c2,0,3.7-1.3,4.3-3.1
		l6.3-1.2c2.1-0.4,4-1.6,5.2-3.4c1.2-1.8,1.7-4,1.3-6.1l-1.4-7.2c4-1.8,7.7-4,11.2-6.7l5.7,4.6c1.5,1.2,3.3,1.8,5.2,1.8
		c2.4,0,4.6-1,6.1-2.8c0.6,0.3,1.3,0.5,2,0.5c2.5,0,4.6-2.1,4.6-4.6c0-1-0.4-2-1-2.8l1-1.3c1.4-1.7,2-3.8,1.8-6
		c-0.2-2.2-1.3-4.1-2.9-5.5l-5.7-4.6c1.9-3.9,3.3-8.1,4.3-12.3l7.3-0.1c4.5-0.1,8.1-3.8,8.1-8.3L143.5,67.8z M124.8,59.9
		c0.5-0.3,1-0.5,1.6-0.5c1.5,0,2.8,1.3,2.8,2.8c0,0.2,0,0.4-0.1,0.6c-0.3,1.3-1.4,2.2-2.7,2.2c-1.5,0-2.8-1.3-2.8-2.8
		C123.7,61.3,124.1,60.5,124.8,59.9z M122.1,27c0.5-0.8,1.4-1.4,2.4-1.4c0.1,0,0.3,0,0.4,0c1.4,0.2,2.4,1.3,2.4,2.8c0,0,0,0,0,0
		c0,1.2-0.7,2.1-1.8,2.5c-0.3,0.1-0.7,0.2-1,0.2c-1.5,0-2.8-1.3-2.8-2.8C121.7,27.9,121.8,27.4,122.1,27z M94.4,43.3
		c-0.2,1.1-1,1.9-2.1,2.2c-0.2,0.1-0.4,0.1-0.7,0.1c-1.3,0-2.5-0.9-2.7-2.2c0-0.2-0.1-0.4-0.1-0.6c0-0.9,0.4-1.7,1.1-2.2
		c0.5-0.4,1-0.6,1.7-0.6c1.5,0,2.8,1.3,2.8,2.8C94.5,43,94.5,43.2,94.4,43.3z M87.7,104.8c0.1-1.5,1.3-2.7,2.8-2.7
		c0.5,0,0.9,0.1,1.3,0.3c0.9,0.5,1.5,1.4,1.5,2.5c0,0,0,0.1,0,0.1c-0.1,1.5-1.3,2.7-2.8,2.7c-0.5,0-0.9-0.1-1.3-0.3
		c-0.9-0.5-1.5-1.4-1.5-2.5C87.7,104.9,87.7,104.9,87.7,104.8z M82.1,144.3c-0.5,0.5-1.2,0.8-2,0.8c-0.5,0-1-0.2-1.5-0.4
		c-0.8-0.5-1.3-1.4-1.3-2.4c0,0,0,0,0,0c0,0,0,0,0,0c0-1.5,1.3-2.8,2.8-2.8c0.1,0,0.1,0,0.2,0c1,0.1,1.9,0.7,2.3,1.6
		c0.2,0.4,0.3,0.8,0.3,1.2C82.9,143.1,82.6,143.8,82.1,144.3z M126.1,121.6c-0.3,0-0.5-0.1-0.8-0.1c-1-0.3-1.8-1.2-2-2.3
		c0-0.1,0-0.2,0-0.3c0-1.5,1.1-2.7,2.6-2.8c0.1,0,0.1,0,0.2,0c1.1,0,2,0.6,2.5,1.5c0.2,0.4,0.3,0.8,0.3,1.3
		C128.9,120.4,127.6,121.6,126.1,121.6z M135.5,83.3l-9.7,0.1l-0.2,1.2c-1,4.8-2.6,9.5-4.8,13.8l-0.5,1.1l7.5,6.2
		c1.1,0.9,1.7,2.1,1.9,3.5c0.1,1.4-0.3,2.7-1.1,3.8l-1.2,1.5c-0.4-0.1-0.7-0.2-1.1-0.2c-2.5,0-4.6,2.1-4.6,4.6c0,0.7,0.2,1.4,0.5,2
		l0,0c-1,1.2-2.4,1.9-4,1.9c-1.2,0-2.3-0.4-3.3-1.2l-7.5-6.2l-0.9,0.8c-3.8,3.1-8.1,5.6-12.6,7.5l-1.1,0.5l1.8,9.6
		c0.3,1.4,0,2.7-0.8,3.9c-0.8,1.1-1.9,1.9-3.3,2.2l-5.8,1.1c-0.6-1.7-2.2-3-4.1-3.1v-27.2c2.4-0.5,4.8-1.3,7-2.2
		c0.8,0.8,1.9,1.3,3.1,1.3c2.5,0,4.6-2.1,4.6-4.6c0-0.4-0.1-0.7-0.1-1.1c0.7-0.5,1.4-1.1,2-1.6c15.7-13.5,17.5-37.3,4-53
		c-1.5-1.8-3.2-3.4-5-4.8c0.2-0.5,0.3-1.1,0.3-1.7c0-2.5-2.1-4.6-4.6-4.6c-1.3,0-2.5,0.6-3.4,1.5c-2.6-1.2-5.2-2.1-8-2.7V6.1
		l8.3,1.4c2.8,0.5,4.7,3.1,4.3,5.9L91.3,23l1.1,0.4c4.6,1.8,8.9,4.2,12.8,7.2l1,0.7l7.4-6.3c0.9-0.8,2.1-1.2,3.4-1.2
		c1.5,0,2.9,0.7,3.9,1.8l0.1,0.1c-0.6,0.8-1,1.7-1,2.8c0,2.5,2.1,4.6,4.6,4.6c0.8,0,1.6-0.2,2.2-0.6l0.8,0.9c0.9,1,1.3,2.4,1.2,3.7
		c-0.1,1.4-0.7,2.6-1.8,3.5l-7.4,6.3l0.6,1.1c1.8,3.2,3.2,6.6,4.2,10.2c-1.5,0.8-2.5,2.3-2.5,4.1c0,2.5,2.1,4.6,4.6,4.6
		c2.3,0,4.2-1.8,4.5-4l4.3-0.1c2.8,0,5.1,2.3,5.2,5.1l0.1,10.3C140.6,80.9,138.4,83.3,135.5,83.3z"/>
</g>
</svg>
