<?xml version="1.0" encoding="utf-8"?>
<!-- Generator: Adobe Illustrator 18.1.0, SVG Export Plug-In . SVG Version: 6.00 Build 0)  -->
<svg version="1.1" id="Layer_1" xmlns="http://www.w3.org/2000/svg" xmlns:xlink="http://www.w3.org/1999/xlink" x="0px" y="0px"
	 viewBox="0 0 150 150" enable-background="new 0 0 150 150" xml:space="preserve">
<g>
	<path fill="#9C3637" d="M75.3,6c-35,0.1-62.8,28.4-62.8,67.7c0,39.2,27.8,71.7,62.8,71.8c35-0.1,62.7-32.5,62.8-71.8
		C138,34.4,110.3,6.1,75.3,6z M75.3,139.3c-30.9-0.1-56.7-29.2-56.7-65.6C18.6,37.2,44.4,8.1,75.3,8c30.9,0,56.7,29.1,56.7,65.7
		C131.9,110.2,106.2,139.3,75.3,139.3z"/>
	<ellipse fill="#3291CF" cx="75.3" cy="74" rx="54.8" ry="63.2"/>
	<g>
		<path fill="#9C3637" d="M92.5,41.1l-0.3,0.1l-1,0.1c-4.8,0.5-9.3,2-13.5,4.4c-4.2,2.4-7.6,5.4-10,8.9C65.3,58,64,61.6,64,65.4
			c0,3.5,1.6,6.4,4.7,8.7c1.1,0.9,1.8,1.5,2.2,2c0.4,0.5,0.5,1.1,0.5,1.9c0,1.1-0.4,2.1-1.3,2.9c-0.9,0.8-2,1.2-3.3,1.2
			c-1.1,0-2.3-0.3-3.5-0.9c-1.2-0.6-2.5-1.6-3.7-2.8c-1.6-1.7-2.7-3.6-3.5-5.9c-0.8-2.3-1.2-4.7-1.2-7.1c0-4.1,1.1-8.1,3.3-12.1
			s5.2-7.5,8.9-10.6c3.7-3.1,8-5.5,12.8-7.3c4.8-1.8,9.7-2.7,14.7-2.7c2.7,0,4.8,0.5,6.2,1.4c1.4,0.9,2.1,2.3,2.1,4
			c0,1.5-0.7,3.7-2.1,6.6c-0.3,0.6-0.5,1.1-0.6,1.3L75.9,97.7c-2.8,6-5.6,10.4-8.6,13.3c-3,2.9-6.1,4.3-9.5,4.3
			c-1.3,0-2.4-0.4-3.3-1.2c-0.9-0.8-1.3-1.8-1.3-3c0-1.8,0.8-3,2.6-3.7l1.5-0.6c2.2-0.8,4-2.1,5.5-3.9c1.4-1.7,3.2-4.8,5.2-9.2
			L92.5,41.1z"/>
	</g>
</g>
</svg>
