<?xml version="1.0" encoding="utf-8"?>
<!-- Generator: Adobe Illustrator 18.1.0, SVG Export Plug-In . SVG Version: 6.00 Build 0)  -->
<svg version="1.1" id="Layer_1" xmlns="http://www.w3.org/2000/svg" xmlns:xlink="http://www.w3.org/1999/xlink" x="0px" y="0px"
	 viewBox="0 0 150 150" enable-background="new 0 0 150 150" xml:space="preserve">
<g>
	<path fill="none" d="M62.1,73.3C42.3,52.8,20.7,41.7,13.6,48.5c-7.3,6.9,3,29.6,23,50.7c4.8,5.1,9.8,9.7,14.7,13.5
		C46.4,105.2,50.9,89.6,62.1,73.3z M39.8,87.8C28.1,74.1,21.3,59.5,21.6,50.4l2,0c1.2,9.6,7.7,22.7,18.2,35.1c2.6,3,5.2,5.8,7.9,8.3
		l-1.2,3C45.5,94.1,42.6,91.1,39.8,87.8z"/>
	<path fill="#FFC818" d="M138.2,43.2c-1.6-1.5-3.7-2.3-6.2-2.5c1.1,0.4,2,1,2.8,1.7c8.6,7.8-0.6,32.2-20.7,54.4
		c-19.8,22-42.7,33.7-51.6,26.5c0.5,0.8,1,1.4,1.7,2c8.9,8,32.7-3.9,53.2-26.6C137.8,76.1,147.1,51.2,138.2,43.2z"/>
	<path fill="#FFC818" d="M62.1,73.3c-11.2,16.3-15.7,31.9-10.8,39.4c1.7,1.4,3.4,2.6,5,3.8c10.5,3.5,30.7-7.4,48.1-26.7
		C123.9,68.1,132.5,44,123.6,36c-8.6-7.7-30.1,2.2-49.1,22.2c0.8,0.8,1.5,1.7,2.3,2.5c17.4-18.8,37-28.6,44.3-22.1
		c7.5,6.7-0.9,28.1-18.6,47.8c-17.7,19.7-38.1,30.2-45.6,23.5c-5.7-5.1-2.2-18.8,7.7-33.8c-0.5-0.6-1.1-1.2-1.6-1.8
		C62.7,73.9,62.4,73.6,62.1,73.3z"/>
	<path fill="#FFC818" d="M89.4,68.7c10.8-12,23-20.2,32.4-22.7l-0.2-2c-9.1,0.9-22.6,9.6-34.7,23c-0.9,1-1.7,2-2.6,3
		c0.6,0.8,1.2,1.7,1.8,2.5C87.1,71.3,88.2,70,89.4,68.7z"/>
	<path fill="#FFC818" d="M68.3,108.4l1.7-0.7c-0.2-5.1,1.6-11.6,5.2-18.7c-0.7-0.9-1.3-1.8-2-2.7C68.3,95.3,66.4,103.4,68.3,108.4z"
		/>
	<path fill="#CCA215" d="M56.3,116.5c-1.7-1.2-3.3-2.5-5-3.8c-4.9-3.9-9.8-8.4-14.7-13.5c-20-21.1-30.3-43.9-23-50.7
		c7.2-6.8,28.8,4.3,48.5,24.9c0.3,0.3,0.6,0.6,0.9,0.9c0.6,0.6,1.1,1.2,1.6,1.8c3.1,3.4,6,6.8,8.6,10.2c0.7,0.9,1.4,1.8,2,2.7
		c3,4.2,5.6,8.3,7.6,12.2l1.4-0.8c-3.8-9.6-11-20.7-20.9-31.1c-4.2-4.5-8.6-8.5-13-12c2.5,1.1,5.4,1.1,8.2,1.2
		c3.1,0.1,6.2,0.1,8.9,1.6c3,1.7,3.1,5.3,3.3,8.7l0,1.4c0.1,3,1,5.8,2.4,8.2c1.5,2.5,3.6,3.2,5.7,3.8c0.5,0.2,1.1,0.3,1.6,0.5
		c1.2,0.4,2.7,1,4,1.7c2.2,1.2,3.6,2.8,4.1,4.9c0.6,2.6-0.2,5.8-2.2,8.7l1.4,0.9c2.3-3.3,3.2-7,2.5-10.1c-0.6-2.5-2.3-4.6-4.9-6
		c-1.4-0.7-2.9-1.3-4.2-1.8c-0.6-0.2-1.1-0.4-1.7-0.5c-2.1-0.6-3.6-1.1-4.8-3.1c-1.3-2.1-2-4.7-2.2-7.4l0-1.3
		c-0.1-3.6-0.3-8-4.1-10.1c-3-1.6-6.4-1.7-9.6-1.8c-4.5-0.1-8.7-0.2-11.4-4.2c-0.9-1.3-1.5-2.8-2.1-4.4c-0.5-1.3-1-2.6-1.7-3.8
		c-1.1-1.9-5-8-11.4-7.8c-2.3,0.1-4.7,0.9-7.3,1.9c-5.3,1.9-10.3,3.7-13.5-1.4l-1.4,0.9c3.9,6.2,10,4.1,15.4,2.1
		c2.5-0.9,4.8-1.7,6.8-1.8c4.3-0.2,8,3.5,9.9,6.9c0.6,1.1,1.1,2.3,1.6,3.6c0.6,1.6,1.2,3.2,2.2,4.7c0.2,0.3,0.4,0.5,0.6,0.8
		c-14.8-10.6-28.8-14.5-35.1-8.5c-8.7,8.2,0.5,32.1,20.6,53.4c13.3,14.1,28,23.4,39,25.7C66.4,123,61.4,120.2,56.3,116.5z"/>
	<path fill="#CCA215" d="M73.3,56.9c-21-22.2-45.1-33.5-53.8-25.3c-1.6,1.5-2.5,3.5-2.9,6c0.5-1,1.1-1.9,1.9-2.7
		c8.5-8,32,3.2,52.6,25c3.5,3.7,6.6,7.4,9.5,11.1c-2.9-0.2-3.1,1.6-3.1,1.6c1.9,0.7,3.1-1.6,3.1-1.6c5.5,7.2,9.7,14.3,12.3,20.7
		l2.6-2.6c-2.2-5.2-5.3-10.9-9.4-16.8c-0.6-0.8-1.2-1.7-1.8-2.5c-2.3-3.1-4.8-6.3-7.6-9.4c-0.7-0.8-1.5-1.7-2.3-2.5
		C74.1,57.7,73.7,57.3,73.3,56.9z"/>
	<path fill="#CCA215" d="M41.7,85.5c-10.5-12.3-17-25.4-18.2-35.1l-2,0c-0.3,9.1,6.5,23.7,18.2,37.4c2.8,3.3,5.7,6.3,8.6,9l1.2-3
		C47,91.3,44.3,88.5,41.7,85.5z"/>
	<path fill="#FFC818" d="M131,66.4c-0.1,4.4-4.1,7.9-7.8,9.7c-1.2,0.6-2.4,1-3.8,1.4c-1.7,0.5-3.4,1-5,2c-5.1,3-5.5,8-5.9,12.8
		c-0.3,3.1-0.5,6.4-2.2,9c-1.9,3-5.6,2.9-9.1,2.8l-1.4,0c-3.1,0-6,0.6-8.5,1.9c-2.7,1.4-3.5,3.4-4.3,5.6c-0.2,0.5-0.4,1.1-0.6,1.6
		c-0.5,1.2-1.2,2.7-2,4c-1.3,2.2-3.1,3.5-5.3,3.9c-2.7,0.5-5.9-0.6-8.8-2.8l-1,1.3c3.3,2.6,7,3.7,10.1,3.2c2.6-0.5,4.8-2.1,6.4-4.7
		c0.9-1.4,1.5-2.9,2.1-4.2c0.3-0.6,0.5-1.2,0.7-1.7c0.8-2.1,1.4-3.6,3.5-4.7c2.3-1.2,4.9-1.8,7.7-1.7l1.4,0
		c3.7,0.1,8.2,0.3,10.6-3.5c1.9-2.9,2.2-6.4,2.5-9.8c0.4-4.6,0.8-8.9,5.1-11.4c1.4-0.8,3-1.3,4.6-1.8c1.3-0.4,2.7-0.8,4-1.5
		c2-1,8.5-4.6,8.7-11.2c0.1-2.3-0.7-4.9-1.4-7.6c-1.6-5.6-3.1-10.8,2.4-13.7l-0.8-1.5c-6.7,3.6-4.8,10-3.2,15.7
		C130.3,61.9,131,64.3,131,66.4z"/>
	<path fill="#FFC818" d="M91.2,111.3c1.9,0.7,3.1-1.6,3.1-1.6C91.4,109.5,91.2,111.3,91.2,111.3z"/>
	<path fill="#FFC818" d="M94.1,113.6c-1.3-2.6-3-1.9-3-1.9C91.5,113.6,94.1,113.6,94.1,113.6z"/>
	<path fill="#FFC818" d="M90.8,111.8c-1.5,1.3-0.2,3.5-0.2,3.5C92.3,112.9,90.8,111.8,90.8,111.8z"/>
	<path fill="#FFC818" d="M90.5,111.6c-1.9-0.7-3.1,1.6-3.1,1.6C90.3,113.4,90.5,111.6,90.5,111.6z"/>
	<path fill="#FFC818" d="M87.7,109.3c1.2,2.7,2.9,2,2.9,2C90.3,109.3,87.7,109.3,87.7,109.3z"/>
	<path fill="#FFC818" d="M90.9,111.1c1.6-1.2,0.3-3.5,0.3-3.5C89.5,110,90.9,111.1,90.9,111.1z"/>
	<path fill="#FFC818" d="M75.2,117.1c1.7,0.6,2.9-1.5,2.9-1.5C75.4,115.4,75.2,117.1,75.2,117.1z"/>
	<path fill="#FFC818" d="M77.9,119.1c-1.2-2.4-2.7-1.8-2.7-1.8C75.5,119.2,77.9,119.1,77.9,119.1z"/>
	<path fill="#FFC818" d="M74.9,117.5c-1.4,1.2-0.2,3.3-0.2,3.3C76.3,118.5,74.9,117.5,74.9,117.5z"/>
	<path fill="#FFC818" d="M74.7,117.3c-1.7-0.7-2.9,1.4-2.9,1.4C74.4,119,74.7,117.3,74.7,117.3z"/>
	<path fill="#FFC818" d="M72,115.1c1.1,2.5,2.7,1.8,2.7,1.8C74.5,115.1,72,115.1,72,115.1z"/>
	<path fill="#FFC818" d="M75,116.9c1.5-1.1,0.3-3.2,0.3-3.2C73.7,115.8,75,116.9,75,116.9z"/>
	<path fill="#FFC818" d="M102.3,98.4c1.9,0.7,3.1-1.6,3.1-1.6C102.5,96.6,102.3,98.4,102.3,98.4z"/>
	<path fill="#FFC818" d="M105.2,100.7c-1.3-2.6-3-1.9-3-1.9C102.6,100.7,105.2,100.7,105.2,100.7z"/>
	<path fill="#FFC818" d="M101.9,98.9c-1.5,1.3-0.2,3.5-0.2,3.5C103.4,100,101.9,98.9,101.9,98.9z"/>
	<path fill="#FFC818" d="M101.7,98.7c-1.9-0.7-3.1,1.6-3.1,1.6C101.4,100.5,101.7,98.7,101.7,98.7z"/>
	<path fill="#FFC818" d="M98.9,96.4c1.2,2.7,2.9,2,2.9,2C101.5,96.4,98.9,96.4,98.9,96.4z"/>
	<path fill="#FFC818" d="M102.1,98.2c1.6-1.2,0.3-3.5,0.3-3.5C100.6,97.1,102.1,98.2,102.1,98.2z"/>
	<path fill="#CCA215" d="M34.4,42.4c1.9,0.7,3.1-1.6,3.1-1.6C34.6,40.6,34.4,42.4,34.4,42.4z"/>
	<path fill="#CCA215" d="M37.3,44.6c-1.3-2.6-3-1.9-3-1.9C34.7,44.7,37.3,44.6,37.3,44.6z"/>
	<path fill="#CCA215" d="M34,42.9c-1.5,1.3-0.2,3.5-0.2,3.5C35.5,44,34,42.9,34,42.9z"/>
	<path fill="#CCA215" d="M33.8,42.6c-1.9-0.7-3.1,1.6-3.1,1.6C33.5,44.5,33.8,42.6,33.8,42.6z"/>
	<path fill="#CCA215" d="M30.9,40.3c1.2,2.7,2.9,2,2.9,2C33.5,40.3,30.9,40.3,30.9,40.3z"/>
	<path fill="#CCA215" d="M34.2,42.2c1.6-1.2,0.3-3.5,0.3-3.5C32.7,41,34.2,42.2,34.2,42.2z"/>
	<path fill="#CCA215" d="M52.9,48.2c1.9,0.7,3.1-1.6,3.1-1.6C53.1,46.4,52.9,48.2,52.9,48.2z"/>
	<path fill="#CCA215" d="M55.8,50.4c-1.3-2.6-3-1.9-3-1.9C53.2,50.5,55.8,50.4,55.8,50.4z"/>
	<path fill="#CCA215" d="M52.5,48.7c-1.5,1.3-0.2,3.5-0.2,3.5C54,49.8,52.5,48.7,52.5,48.7z"/>
	<path fill="#CCA215" d="M52.3,48.4c-1.9-0.7-3.1,1.6-3.1,1.6C52,50.3,52.3,48.4,52.3,48.4z"/>
	<path fill="#CCA215" d="M49.4,46.1c1.2,2.7,2.9,2,2.9,2C52,46.1,49.4,46.1,49.4,46.1z"/>
	<path fill="#CCA215" d="M52.7,48c1.6-1.2,0.3-3.5,0.3-3.5C51.2,46.8,52.7,48,52.7,48z"/>
	<path fill="#CCA215" d="M64.5,63.5c1.9,0.7,3.1-1.6,3.1-1.6C64.7,61.7,64.5,63.5,64.5,63.5z"/>
	<path fill="#CCA215" d="M67.4,65.8c-1.3-2.6-3-1.9-3-1.9C64.8,65.8,67.4,65.8,67.4,65.8z"/>
	<path fill="#CCA215" d="M64.2,64c-1.5,1.3-0.2,3.5-0.2,3.5C65.6,65.1,64.2,64,64.2,64z"/>
	<path fill="#CCA215" d="M63.9,63.8c-1.9-0.7-3.1,1.6-3.1,1.6C63.6,65.6,63.9,63.8,63.9,63.8z"/>
	<path fill="#CCA215" d="M61.1,61.5c1.2,2.7,2.9,2,2.9,2C63.7,61.5,61.1,61.5,61.1,61.5z"/>
	<path fill="#CCA215" d="M64.3,63.3c1.6-1.2,0.3-3.5,0.3-3.5C62.8,62.2,64.3,63.3,64.3,63.3z"/>
	<path fill="#CCA215" d="M80.4,75c-1.3-2.6-3-1.9-3-1.9C77.8,75.1,80.4,75,80.4,75z"/>
	<path fill="#CCA215" d="M77.1,73.2c-1.5,1.3-0.2,3.5-0.2,3.5C78.6,74.4,77.1,73.2,77.1,73.2z"/>
	<path fill="#CCA215" d="M76.8,73c-1.9-0.7-3.1,1.6-3.1,1.6C76.6,74.9,76.8,73,76.8,73z"/>
	<path fill="#CCA215" d="M74,70.7c1.2,2.7,2.9,2,2.9,2C76.6,70.7,74,70.7,74,70.7z"/>
	<path fill="#CCA215" d="M77.5,69.1c-1.7,2.3-0.3,3.5-0.3,3.5C78.8,71.4,77.5,69.1,77.5,69.1z"/>
	<path fill="#CCA215" d="M82.8,87.9c1.9,0.7,3.1-1.6,3.1-1.6C83,86,82.8,87.9,82.8,87.9z"/>
	<path fill="#CCA215" d="M85.7,90.1c-1.3-2.6-3-1.9-3-1.9C83,90.2,85.7,90.1,85.7,90.1z"/>
	<path fill="#CCA215" d="M82.4,88.3c-1.5,1.3-0.2,3.5-0.2,3.5C83.9,89.4,82.4,88.3,82.4,88.3z"/>
	<path fill="#CCA215" d="M82.1,88.1c-1.9-0.7-3.1,1.6-3.1,1.6C81.9,89.9,82.1,88.1,82.1,88.1z"/>
	<path fill="#CCA215" d="M79.3,85.8c1.2,2.7,2.9,2,2.9,2C81.9,85.8,79.3,85.8,79.3,85.8z"/>
	<path fill="#CCA215" d="M82.5,87.7c1.6-1.2,0.3-3.5,0.3-3.5C81.1,86.5,82.5,87.7,82.5,87.7z"/>
	<path fill="#FFC818" d="M116.9,86.6c1.9,0.7,3.1-1.6,3.1-1.6C117.1,84.8,116.9,86.6,116.9,86.6z"/>
	<path fill="#FFC818" d="M119.8,88.8c-1.3-2.6-3-1.9-3-1.9C117.2,88.9,119.8,88.8,119.8,88.8z"/>
	<path fill="#FFC818" d="M116.5,87.1c-1.5,1.3-0.2,3.5-0.2,3.5C118,88.2,116.5,87.1,116.5,87.1z"/>
	<path fill="#FFC818" d="M116.2,86.8c-1.9-0.7-3.1,1.6-3.1,1.6C116,88.7,116.2,86.8,116.2,86.8z"/>
	<path fill="#FFC818" d="M113.4,84.5c1.2,2.7,2.9,2,2.9,2C116,84.5,113.4,84.5,113.4,84.5z"/>
	<path fill="#FFC818" d="M116.6,86.4c1.6-1.2,0.3-3.5,0.3-3.5C115.2,85.2,116.6,86.4,116.6,86.4z"/>
	<path fill="#FFC818" d="M125.2,66.8c1.9,0.7,3.1-1.6,3.1-1.6C125.4,64.9,125.2,66.8,125.2,66.8z"/>
	<path fill="#FFC818" d="M128,69c-1.3-2.6-3-1.9-3-1.9C125.4,69.1,128,69,128,69z"/>
	<path fill="#FFC818" d="M124.8,67.2c-1.5,1.3-0.2,3.5-0.2,3.5C126.3,68.3,124.8,67.2,124.8,67.2z"/>
	<path fill="#FFC818" d="M124.5,67c-1.9-0.7-3.1,1.6-3.1,1.6C124.3,68.8,124.5,67,124.5,67z"/>
	<path fill="#FFC818" d="M121.7,64.7c1.2,2.7,2.9,2,2.9,2C124.3,64.7,121.7,64.7,121.7,64.7z"/>
	<path fill="#FFC818" d="M124.9,66.6c1.6-1.2,0.3-3.5,0.3-3.5C123.5,65.4,124.9,66.6,124.9,66.6z"/>
	<path fill="#FFC818" d="M134.3,51.4c1.9,0.7,3.1-1.6,3.1-1.6C134.5,49.6,134.3,51.4,134.3,51.4z"/>
	<path fill="#FFC818" d="M137.2,53.6c-1.3-2.6-3-1.9-3-1.9C134.5,53.7,137.2,53.6,137.2,53.6z"/>
	<path fill="#FFC818" d="M133.9,51.9c-1.5,1.3-0.2,3.5-0.2,3.5C135.4,53,133.9,51.9,133.9,51.9z"/>
	<path fill="#FFC818" d="M133.6,51.6c-1.9-0.7-3.1,1.6-3.1,1.6C133.4,53.5,133.6,51.6,133.6,51.6z"/>
	<path fill="#FFC818" d="M133.7,51.3c-0.3-2-2.9-2-2.9-2C132,52,133.7,51.3,133.7,51.3z"/>
	<path fill="#FFC818" d="M134,51.2c1.6-1.2,0.3-3.5,0.3-3.5C132.6,50,134,51.2,134,51.2z"/>
</g>
</svg>
