<?xml version="1.0" encoding="utf-8"?>
<!-- Generator: Adobe Illustrator 18.1.0, SVG Export Plug-In . SVG Version: 6.00 Build 0)  -->
<svg version="1.1" id="Layer_1" xmlns="http://www.w3.org/2000/svg" xmlns:xlink="http://www.w3.org/1999/xlink" x="0px" y="0px"
	 viewBox="0 0 1500 1500" enable-background="new 0 0 1500 1500" xml:space="preserve">
<g>
	<path fill="#C4E1F6" d="M127.9,868.2c-0.4-2.4-0.8-4.9-1.1-7.3C127.2,863.4,127.5,865.8,127.9,868.2z"/>
	<path fill="#C4E1F6" d="M133.9,900.5c-0.7-3.4-1.4-6.8-2-10.2C132.5,893.8,133.2,897.2,133.9,900.5z"/>
	<path fill="#C4E1F6" d="M175.4,1027.9c-7.2-16.1-13.7-32.6-19.6-49.4C161.6,995.3,168.2,1011.7,175.4,1027.9z"/>
	<path fill="#C4E1F6" d="M142.3,935.2c-1.1-4.2-2.3-8.3-3.3-12.5C140.1,926.8,141.2,931,142.3,935.2z"/>
	<path fill="#C4E1F6" d="M123.7,836.7c-0.2-2.3-0.5-4.6-0.7-6.9C123.2,832.1,123.5,834.4,123.7,836.7z"/>
	<path fill="#C4E1F6" d="M153,970.2c-2.5-7.5-4.9-15.1-7.1-22.7C148.1,955.1,150.4,962.7,153,970.2z"/>
	<path fill="#C4E1F6" d="M245.2,385.8c2.2-3,4.5-6,6.8-9C249.7,379.8,247.4,382.8,245.2,385.8z"/>
	<path fill="#C4E1F6" d="M225.2,414.5c2.1-3.1,4.1-6.3,6.2-9.4C229.3,408.3,227.3,411.4,225.2,414.5z"/>
	<path fill="#C4E1F6" d="M120.9,802.3c-0.1-2-0.2-3.9-0.3-5.9C120.7,798.3,120.8,800.3,120.9,802.3z"/>
	<path fill="#C4E1F6" d="M210.5,437.9c2-3.4,4.1-6.8,6.2-10.1C214.6,431.2,212.5,434.5,210.5,437.9z"/>
	<path fill="#C4E1F6" d="M284.8,337.3c2.3-2.5,4.6-5,6.9-7.5C289.4,332.3,287,334.8,284.8,337.3z"/>
	<path fill="#C4E1F6" d="M262,364.1c2.3-2.9,4.6-5.8,7-8.6C266.6,358.4,264.3,361.3,262,364.1z"/>
	<path fill="#C4E1F6" d="M126,679.2c1-7.5,2.2-14.9,3.4-22.2C128.1,664.4,127,671.8,126,679.2z"/>
	<path fill="#C4E1F6" d="M120.6,737.7c0.1-2.2,0.2-4.3,0.3-6.5C120.8,733.4,120.7,735.6,120.6,737.7z"/>
	<path fill="#C4E1F6" d="M122.8,706.1c0.4-3.8,0.8-7.5,1.2-11.3C123.6,698.5,123.2,702.3,122.8,706.1z"/>
	<path fill="#C4E1F6" d="M235.1,1133.7c-3.9-5.6-7.7-11.2-11.4-16.9C227.5,1122.5,231.2,1128.1,235.1,1133.7z"/>
	<path fill="#C4E1F6" d="M1048.2,1341.4c-4,2-7.9,4-11.9,5.9C1040.3,1345.4,1044.3,1343.4,1048.2,1341.4z"/>
	<path fill="#C4E1F6" d="M929.3,1386.6c-3.4,0.9-6.7,1.8-10.1,2.7C922.5,1388.5,925.9,1387.6,929.3,1386.6z"/>
	<path fill="#C4E1F6" d="M1073.8,1328c-4.1,2.3-8.3,4.6-12.5,6.8C1065.5,1332.5,1069.6,1330.3,1073.8,1328z"/>
	<path fill="#C4E1F6" d="M1176.6,1256.7c-4.6,3.9-9.3,7.7-14,11.5C1167.3,1264.4,1172,1260.6,1176.6,1256.7z"/>
	<path fill="#C4E1F6" d="M894,1395.1c-1,0.2-2,0.5-3.1,0.7C892,1395.6,893,1395.4,894,1395.1z"/>
	<path fill="#C4E1F6" d="M1098.2,1313.7c-4.2,2.6-8.5,5-12.7,7.5C1089.7,1318.7,1094,1316.3,1098.2,1313.7z"/>
	<path fill="#C4E1F6" d="M1155.2,1274.1c-4.6,3.6-9.2,7.1-13.9,10.6C1146,1281.2,1150.6,1277.7,1155.2,1274.1z"/>
	<path fill="#C4E1F6" d="M291.6,1203.7c-4.2-4.5-8.3-9.1-12.4-13.8C283.3,1194.5,287.4,1199.1,291.6,1203.7z"/>
	<path fill="#C4E1F6" d="M431.6,1317.4c-3.6-2.2-7.1-4.4-10.7-6.7C424.5,1312.9,428,1315.2,431.6,1317.4z"/>
	<path fill="#C4E1F6" d="M357.2,1265.1c-4.1-3.3-8.1-6.8-12.2-10.2C349.1,1258.3,353.1,1261.8,357.2,1265.1z"/>
	<path fill="#C4E1F6" d="M337.3,1248.2c-4.1-3.6-8.2-7.3-12.3-11.1C329.1,1240.9,333.2,1244.5,337.3,1248.2z"/>
	<path fill="#C4E1F6" d="M636.3,1396.5c-2.2-0.4-4.5-0.9-6.7-1.4C631.9,1395.6,634.1,1396,636.3,1396.5z"/>
	<path fill="#C4E1F6" d="M832.1,1404.9c-2.4,0.3-4.7,0.5-7.1,0.8C827.4,1405.5,829.8,1405.2,832.1,1404.9z"/>
	<path fill="#C4E1F6" d="M732.2,1408.1c-1.9-0.1-3.8-0.2-5.7-0.3C728.4,1407.9,730.3,1408,732.2,1408.1z"/>
	<path fill="#C4E1F6" d="M861.8,1401c-2.3,0.4-4.7,0.7-7,1C857.1,1401.7,859.4,1401.4,861.8,1401z"/>
	<path fill="#C4E1F6" d="M192.1,1063c-0.4,0-0.8-1.8-1.2-2.6c-0.3-0.5-0.5-1.1-0.8-1.6c9.7,18.9,20.3,37.5,31.7,55.3
		C211.2,1097.5,201.3,1082,192.1,1063C192.1,1063,192.1,1063,192.1,1063z"/>
	<path fill="#C4E1F6" d="M1090.5,215.3c2,1.2,4.1,2.4,6.1,3.6C1094.6,217.7,1092.5,216.5,1090.5,215.3z"/>
	<path fill="#C4E1F6" d="M1210.4,1225.9c-1.2,1.2-2.4,2.3-3.6,3.4c-6.4,6.2-12.9,12.2-19.6,18.1c-0.6,0.6-1.2,1.2-1.8,1.7
		c15.9-14,31.2-28.8,45.6-44.3C1224.4,1212,1217.4,1219,1210.4,1225.9z"/>
	<path fill="#C4E1F6" d="M1182.4,1251.7c0.8-0.7,1.6-1.3,2.3-2c-0.3,0.3-0.6,0.5-0.9,0.8C1183.3,1250.9,1182.9,1251.3,1182.4,1251.7
		z"/>
	<path fill="#C4E1F6" d="M827,128.1c0.8,0.1,1.5,0.2,2.3,0.3C828.6,128.3,827.8,128.2,827,128.1z"/>
	<path fill="#C4E1F6" d="M1291,403.3c1.9,2.8,3.9,5.7,5.8,8.5C1294.9,409,1293,406.2,1291,403.3z"/>
	<path fill="#C4E1F6" d="M478.2,1342.7c-0.2-0.1-0.5-0.2-0.7-0.4c3.4,1.7,6.8,3.3,10.2,5c-0.8-0.4-1.6-0.8-2.5-1.2
		C482.8,1345,480.5,1343.9,478.2,1342.7z"/>
	<path fill="#C4E1F6" d="M892.7,533.3c0.8-3,5.1-5.7,5.5-8.6c0.7-5.2-3.8-10.5-1.9-15.7c0.9-2.5,1.8-4.9,3-6.9l-95,82.6
		c0,0-30.1,106.1-194.5,79.6c0,0-23.6,2.3-55.9,4c60.7,29.4,105.9,56.6,160,44.3c104.4-23.7,154.2-78.3,154.2-78.3s6-33.2,20.4-56.9
		C876.8,569.8,889.9,543.7,892.7,533.3z"/>
	<path fill="#C4E1F6" d="M855.8,131.7c2.3,0.3,4.6,0.7,6.9,1C860.4,132.4,858.1,132,855.8,131.7z"/>
	<path fill="#C4E1F6" d="M659.8,133c2.5-0.4,4.9-0.8,7.4-1.2C664.7,132.2,662.3,132.6,659.8,133z"/>
	<path fill="#C4E1F6" d="M695.5,128.2c1.1-0.1,2.3-0.2,3.4-0.3C697.8,128,696.6,128.1,695.5,128.2z"/>
	<path fill="#C4E1F6" d="M314.6,1227.1c-6.7-6.5-13.3-13.1-19.7-20c7.9,8.4,16.1,16.6,24.4,24.5c-1.4-1.3-2.8-2.7-4.2-4
		C314.9,1227.4,314.7,1227.2,314.6,1227.1z"/>
	<path fill="#C4E1F6" d="M724.8,125.9c2.6-0.1,5.1-0.3,7.7-0.4C729.9,125.7,727.3,125.8,724.8,125.9z"/>
	<path fill="#C4E1F6" d="M1065.5,201.1c2.2,1.2,4.4,2.4,6.6,3.7C1069.9,203.5,1067.7,202.3,1065.5,201.1z"/>
	<path fill="#C4E1F6" d="M181.5,1041.1c-0.7-1.5-1.5-2.9-2.2-4.4l0-0.1c-1-2.1-2-4.2-3-6.4c3.9,8.7,8,17.3,12.3,25.7
		c-0.7-1.4-1.4-2.9-2.1-4.4C184.9,1048.1,183.2,1044.6,181.5,1041.1z"/>
	<path fill="#C4E1F6" d="M791.3,125.5c2.3,0.1,4.7,0.2,7,0.4C796,125.8,793.6,125.6,791.3,125.5z"/>
	<path fill="#C4E1F6" d="M1118,232.7c2.3,1.6,4.7,3.2,7,4.8C1122.7,235.8,1120.4,234.2,1118,232.7z"/>
	<path fill="#C4E1F6" d="M1273.6,379.1c2.1,2.7,4.1,5.5,6.1,8.2C1277.7,384.6,1275.6,381.9,1273.6,379.1z"/>
	<path fill="#C4E1F6" d="M1309.2,1102.1c-10.5,17-21.7,33.5-33.6,49.5c-1.4,1.9-2.9,3.8-4.3,5.6c-2.2,2.8-4.3,5.7-6.5,8.5
		c20-25.2,38.1-51.9,54.2-79.9c-1.8,3.1-3.7,6.1-5.5,9.2C1312,1097.4,1310.6,1099.8,1309.2,1102.1z"/>
	<path fill="#C4E1F6" d="M452.5,1329.4c3.2,1.8,6.5,3.5,9.8,5.2c-0.3-0.2-0.6-0.3-0.9-0.5C458.4,1332.6,455.4,1331,452.5,1329.4z"/>
	<path fill="#C4E1F6" d="M1036,186.2c2.1,1,4.2,2,6.4,3C1040.2,188.2,1038.1,187.2,1036,186.2z"/>
	<path fill="#C4E1F6" d="M984.3,1369.2L984.3,1369.2c-3,1.1-6.1,2.1-9.2,3.2c3.5-1.2,7-2.4,10.4-3.7c0,0,0,0,0,0
		C985.1,1368.9,984.7,1369,984.3,1369.2z"/>
	<path fill="#C4E1F6" d="M978.5,162.4c2.2,0.8,4.4,1.5,6.5,2.3C982.9,163.9,980.7,163.1,978.5,162.4z"/>
	<path fill="#C4E1F6" d="M1009.8,174.5c2,0.9,4,1.8,6.1,2.6C1013.9,176.2,1011.9,175.3,1009.8,174.5z"/>
	<path fill="#C4E1F6" d="M1251.9,1181.2c-0.9,1-1.7,2.1-2.6,3.1c4.8-5.6,9.5-11.2,14.1-16.9c-2.3,2.9-4.8,5.8-7.2,8.7
		C1254.8,1177.8,1253.4,1179.5,1251.9,1181.2z"/>
	<path fill="#C4E1F6" d="M1246.5,1187.7c-4.8,5.5-9.6,10.9-14.6,16.3C1236.8,1198.6,1241.7,1193.2,1246.5,1187.7z"/>
	<path fill="#C4E1F6" d="M1007.6,1360c3.9-1.6,7.7-3.3,11.5-5c0,0,0,0,0,0C1015.3,1356.7,1011.5,1358.4,1007.6,1360z"/>
	<path fill="#C4E1F6" d="M241.8,1143C241.8,1143,241.8,1143,241.8,1143c-0.7-1-1.4-1.9-2-2.8c0,0,0,0,0,0c0-0.1-0.1-0.1-0.1-0.2
		c0,0,0,0,0,0c-0.9-1.2-1.8-2.4-2.6-3.6c11.8,16.8,24.4,32.9,37.8,48.5c-11.5-13.4-22.5-27.3-32.8-41.7
		C241.9,1143.1,241.9,1143,241.8,1143z"/>
	<path fill="#C4E1F6" d="M1342.9,1040.1c0,0-0.1,0-0.1,0c-4.5,9.5-9.2,18.8-14.1,28.1c-1.3,2.5-2.7,4.9-4,7.4
		c-1.7,3.1-3.4,6.3-5.2,9.4c20.3-35.6,37.3-73.2,50.7-112.6c-7.8,23.2-17,45.8-27.3,67.7C1342.8,1040.1,1342.8,1040.1,1342.9,1040.1
		z"/>
	<path fill="#C4E1F6" d="M957.4,1378.4C957.4,1378.4,957.4,1378.4,957.4,1378.4c-3.4,1.1-6.9,2.2-10.4,3.2c3.7-1.1,7.4-2.2,11-3.4
		c-0.2,0.1-0.4,0.1-0.6,0.2C957.5,1378.3,957.5,1378.4,957.4,1378.4z"/>
	<path fill="#C4E1F6" d="M918.4,144.1c2.2,0.6,4.5,1.1,6.7,1.7C922.8,145.2,920.6,144.7,918.4,144.1z"/>
	<path fill="#C4E1F6" d="M1108.1,1307.3c8.4-5.4,16.6-10.9,24.7-16.7c-0.1,0-0.1,0.1-0.2,0.1
		C1124.6,1296.5,1116.4,1302,1108.1,1307.3z"/>
	<path fill="#C4E1F6" d="M399.9,1296.9c-0.9-0.6-1.9-1.3-2.8-1.9c3.8,2.6,7.6,5.2,11.5,7.8c-1.8-1.2-3.5-2.4-5.3-3.6
		C402.1,1298.4,401,1297.7,399.9,1296.9z"/>
	<path fill="#C4E1F6" d="M951.3,153.2c1.7,0.5,3.5,1.1,5.2,1.7C954.8,154.4,953.1,153.8,951.3,153.2z"/>
	<path fill="#C4E1F6" d="M508,1356.6c2.4,1.1,4.9,2.1,7.4,3.1c-0.1,0-0.2-0.1-0.3-0.1C512.7,1358.6,510.4,1357.6,508,1356.6z"/>
	<path fill="#C4E1F6" d="M890.3,137.7c1.3,0.3,2.6,0.6,4,0.9C892.9,138.3,891.6,137.9,890.3,137.7z"/>
	<path fill="#C4E1F6" d="M1233.5,331.3c2.2,2.3,4.3,4.7,6.5,7.1C1237.8,336.1,1235.7,333.7,1233.5,331.3z"/>
	<path fill="#C4E1F6" d="M399.1,237.2c2.6-1.8,5.3-3.6,7.9-5.4C404.4,233.6,401.7,235.4,399.1,237.2z"/>
	<path fill="#C4E1F6" d="M425,220.3c1.7-1,3.3-2.1,4.9-3.1C428.3,218.2,426.7,219.3,425,220.3z"/>
	<path fill="#C4E1F6" d="M368,1273.6c5.7,4.5,11.5,8.8,17.4,13.1c-0.4-0.3-0.7-0.5-1-0.8C378.9,1281.9,373.4,1277.8,368,1273.6z"/>
	<path fill="#C4E1F6" d="M374.8,254.6c2.2-1.7,4.5-3.3,6.7-5C379.3,251.3,377,253,374.8,254.6z"/>
	<path fill="#C4E1F6" d="M693.8,1405.2c1.5,0.2,3.1,0.3,4.6,0.5c-1.1-0.1-2.1-0.2-3.2-0.3C694.7,1405.3,694.3,1405.2,693.8,1405.2z"
		/>
	<path fill="#C4E1F6" d="M479.2,190.3c1.9-1,3.8-1.9,5.8-2.9C483.1,188.4,481.2,189.4,479.2,190.3z"/>
	<path fill="#C4E1F6" d="M537.2,1368.3c3,1.1,6,2.2,9,3.2c-2-0.7-4-1.5-6.1-2.2C539.1,1369,538.2,1368.7,537.2,1368.3z"/>
	<path fill="#C4E1F6" d="M452.6,204.2c2.6-1.4,5.1-2.8,7.7-4.2C457.7,201.4,455.1,202.8,452.6,204.2z"/>
	<path fill="#C4E1F6" d="M792.1,1408.1c1.8-0.1,3.7-0.2,5.5-0.3c-1.4,0.1-2.9,0.1-4.3,0.2C792.9,1408,792.5,1408,792.1,1408.1z"/>
	<path fill="#C4E1F6" d="M303.5,317.5c2.5-2.6,5-5.1,7.6-7.7C308.5,312.4,306,314.9,303.5,317.5z"/>
	<path fill="#C4E1F6" d="M321.8,610.5c-18.8-2.2-68.9-11-51.6-40c0,0,382-21.2,405-38.9c11.2-8.6,94.2-101.6,176.6-194.9
		c-12.1-5.8-26.6-8.4-44.3-7.3c-5.3,15.4-23.9,44-37.7,47.1c-0.5,0.1-14.3-7.5-18.6-7.6c-8.9-0.3-16.5,8.7-24,8.3
		c-17.4-1-89.3-37.1-92.6,4.1c-30.7-28.8-53.8-46.2-96.7-33.9c-63,18.1-121.2,70.6-118.1,140.1c-30.8-37.9-93.1-56.8-140-55
		c-20,0.8-53.9,10.2-81.1,26.1c0.1-0.2,0.2-0.3,0.3-0.5c-32.5,59.2-55.9,124-68.4,192.7c2.1-11.2,4.4-22.4,7-33.4
		C188.3,612.6,249.9,609.8,321.8,610.5z"/>
	<path fill="#C4E1F6" d="M1212.6,309.7c2.3,2.3,4.6,4.6,6.9,6.9C1217.2,314.3,1214.9,312,1212.6,309.7z"/>
	<path fill="#C4E1F6" d="M599.9,1388.2c1.4,0.4,2.7,0.7,4.1,1c-0.5-0.1-0.9-0.2-1.4-0.4C601.7,1388.6,600.8,1388.4,599.9,1388.2z"/>
	<path fill="#C4E1F6" d="M663.7,1401.3c0.6,0.1,1.1,0.2,1.7,0.2c0,0-0.1,0-0.1,0C664.7,1401.5,664.2,1401.4,663.7,1401.3z"/>
	<path fill="#C4E1F6" d="M328.8,292.9c2.1-1.9,4.2-3.7,6.3-5.6C333,289.2,330.9,291,328.8,292.9z"/>
	<path fill="#C4E1F6" d="M349.3,275c2.6-2.2,5.2-4.4,7.9-6.5C354.5,270.7,351.9,272.9,349.3,275z"/>
	<path fill="#C4E1F6" d="M568.5,1379.1c1.7,0.5,3.3,1,5,1.6c-0.3-0.1-0.6-0.2-0.9-0.3C571.3,1380,569.9,1379.6,568.5,1379.1z"/>
	<path fill="#C4E1F6" d="M1174.2,274.9c-2.3-1.9-4.6-3.8-6.9-5.7l0,0C1169.7,271,1172,272.9,1174.2,274.9z"/>
	<path fill="#C4E1F6" d="M1189.5,288c1.7,1.6,3.5,3.1,5.2,4.6C1193,291.1,1191.2,289.6,1189.5,288z"/>
	<path fill="#C4E1F6" d="M568.9,154.4c2.2-0.7,4.4-1.3,6.5-2C573.2,153.1,571,153.7,568.9,154.4z"/>
	<path fill="#C4E1F6" d="M597,146.3c2.3-0.6,4.6-1.3,7-1.8C601.6,145,599.3,145.7,597,146.3z"/>
	<path fill="#C4E1F6" d="M1254,354.6c2.2,2.6,4.3,5.2,6.4,7.8C1258.3,359.8,1256.1,357.2,1254,354.6z"/>
	<path fill="#C4E1F6" d="M1234.5,444.9c-26.2-19.5-58-34.7-85-8.4c-1.3-32.1-95.1-94.5-95.6-47.3c-3-4.7-6.5-8.8-10.1-12.6
		l-140.3,122c1.8-0.7,4.1-0.7,7.2,0.6c0.5-10.7,10.7-15.7,20.8-13.8c8.2-23.7,22.4,6.3,25.4,14.2c2.8,0.9,11.9,1.6,13.9,1.3
		c-0.4-21.9,4.2-36.3,14.3-53.9c11.7-1.6,41.9,18.2,40.8,29.3c11.8-2.6,28.7,3.9,32.9,15.2c3.6,9.6-2.1,25.3-11.9,34
		c28.7-9.8,61-17.3,98.9-23.9c130.9-23,254.7,150.3,206.9,291.8c-14.5,42.9-39.9,75.5-68.2,100.2c25.2,22.1,58.1,50.9,85.8,78.4
		c21.7-64.4,33.7-133.4,33.7-205.2c0-122.8-34.5-237.6-94.4-335.1c0.1,0.2,0.3,0.5,0.5,0.7C1283.1,428.1,1254.4,431.4,1234.5,444.9z
		"/>
	<path fill="#C4E1F6" d="M631.1,138.2c1.8-0.4,3.6-0.7,5.3-1C634.6,137.5,632.8,137.8,631.1,138.2z"/>
	<path fill="#C4E1F6" d="M509.2,176.5c2.4-1,4.9-2,7.3-3C514.1,174.5,511.7,175.5,509.2,176.5z"/>
	<path fill="#C4E1F6" d="M536.7,165.5c2.2-0.8,4.3-1.7,6.5-2.4C541,163.9,538.8,164.7,536.7,165.5z"/>
	<path fill="#C4E1F6" d="M1141.8,249.3c1.9,1.4,3.8,2.8,5.7,4.2C1145.6,252.1,1143.7,250.7,1141.8,249.3z"/>
	<path opacity="0.44" fill="#FFFFFE" d="M1134.2,243.9c2.5,1.8,5.1,3.6,7.6,5.4c-5.5-4-11.1-8-16.7-11.9c0.5,0.3,1,0.7,1.5,1.1
		C1129.1,240.3,1131.6,242.1,1134.2,243.9z"/>
	<path opacity="0.44" fill="#FFFFFE" d="M1167,268.8c-6.4-5.2-12.9-10.4-19.5-15.3c5.1,3.9,10.2,7.9,15.2,11.9
		C1164.1,266.6,1165.6,267.7,1167,268.8z"/>
	<path opacity="0.44" fill="#FFFFFE" d="M460.3,200c6.3-3.3,12.6-6.6,18.9-9.7C472.8,193.5,466.5,196.7,460.3,200z"/>
	<path opacity="0.44" fill="#FFFFFE" d="M575.4,152.4c7.1-2.2,14.3-4.2,21.6-6.1C589.7,148.2,582.6,150.2,575.4,152.4z"/>
	<path opacity="0.44" fill="#FFFFFE" d="M543.1,163.1c8.5-3.1,17.1-6,25.7-8.7C560.2,157.1,551.6,160,543.1,163.1z"/>
	<path opacity="0.44" fill="#FFFFFE" d="M430,217.2c7.4-4.5,15-8.8,22.6-13C444.9,208.4,437.4,212.7,430,217.2z"/>
	<path opacity="0.44" fill="#FFFFFE" d="M516.5,173.5c6.7-2.8,13.4-5.4,20.1-7.9C529.9,168.1,523.2,170.7,516.5,173.5z"/>
	<path opacity="0.44" fill="#FFFFFE" d="M485,187.4c8-3.8,16.1-7.5,24.2-10.9C501.1,180,493,183.6,485,187.4z"/>
	<path opacity="0.44" fill="#FFFFFE" d="M311,309.8c5.8-5.7,11.7-11.4,17.8-16.9C322.8,298.4,316.9,304.1,311,309.8z"/>
	<path opacity="0.44" fill="#FFFFFE" d="M998.3,169.9c0.1,0,0.1,0.1,0.2,0.1c3.8,1.5,7.6,2.9,11.3,4.5c-8.2-3.4-16.4-6.7-24.8-9.8
		C989.5,166.4,993.9,168.2,998.3,169.9C998.3,169.9,998.3,169.9,998.3,169.9z"/>
	<path opacity="0.44" fill="#FFFFFE" d="M231.4,405.2c4.5-6.6,9.1-13,13.8-19.4C240.5,392.2,235.9,398.6,231.4,405.2z"/>
	<path opacity="0.44" fill="#FFFFFE" d="M269,355.5c5.1-6.2,10.4-12.2,15.8-18.2C279.4,343.3,274.1,349.3,269,355.5z"/>
	<path opacity="0.44" fill="#FFFFFE" d="M216.7,427.8c2.8-4.5,5.6-8.9,8.5-13.3C222.3,418.9,219.5,423.3,216.7,427.8z"/>
	<path opacity="0.44" fill="#FFFFFE" d="M252,376.8c3.3-4.3,6.6-8.5,10-12.7C258.6,368.3,255.3,372.5,252,376.8z"/>
	<path opacity="0.44" fill="#FFFFFE" d="M1111.4,228.4c2.2,1.4,4.5,2.8,6.7,4.3c-7.1-4.7-14.2-9.3-21.5-13.8c2.7,1.7,5.4,3.5,8,5.2
		C1106.9,225.5,1109.1,226.9,1111.4,228.4z"/>
	<path opacity="0.44" fill="#FFFFFE" d="M357.2,268.5c5.8-4.7,11.7-9.4,17.6-13.9C368.9,259.2,363,263.8,357.2,268.5z"/>
	<path opacity="0.44" fill="#FFFFFE" d="M335.1,287.3c4.7-4.2,9.4-8.2,14.2-12.3C344.5,279.1,339.8,283.2,335.1,287.3z"/>
	<path opacity="0.44" fill="#FFFFFE" d="M381.5,249.7c5.8-4.3,11.6-8.4,17.6-12.5C393.2,241.2,387.3,245.4,381.5,249.7z"/>
	<path opacity="0.44" fill="#FFFFFE" d="M407,231.8c5.9-3.9,11.9-7.8,18-11.5C419,224,413,227.9,407,231.8z"/>
	<path opacity="0.44" fill="#FFFFFE" d="M198.9,458.1c3.7-6.8,7.6-13.5,11.6-20.1C206.5,444.6,202.7,451.3,198.9,458.1z"/>
	<path opacity="0.44" fill="#FFFFFE" d="M1087.7,213.7c0.9,0.5,1.9,1,2.8,1.6c-6-3.6-12.2-7.1-18.3-10.5c4.3,2.4,8.5,4.8,12.7,7.3
		C1085.8,212.6,1086.8,213.1,1087.7,213.7z"/>
	<path opacity="0.44" fill="#FFFFFE" d="M925.1,145.8c8.8,2.3,17.6,4.8,26.3,7.5C942.6,150.6,933.9,148.1,925.1,145.8z"/>
	<path opacity="0.44" fill="#FFFFFE" d="M291.7,329.9c3.9-4.2,7.8-8.3,11.8-12.4C299.5,321.6,295.6,325.7,291.7,329.9z"/>
	<path opacity="0.44" fill="#FFFFFE" d="M1260.4,362.4c4.5,5.5,8.9,11.1,13.1,16.7C1269.3,373.5,1264.9,367.9,1260.4,362.4z"/>
	<path opacity="0.44" fill="#FFFFFE" d="M1279.7,387.4c3.9,5.3,7.6,10.6,11.3,16C1287.3,398,1283.5,392.6,1279.7,387.4z"/>
	<path opacity="0.44" fill="#FFFFFE" d="M1296.8,411.8c4.3,6.5,8.6,13.1,12.7,19.8C1305.4,425,1301.1,418.4,1296.8,411.8z"/>
	<path opacity="0.44" fill="#FFFFFE" d="M1042.3,189.2c7.8,3.8,15.5,7.8,23.2,11.9C1057.9,197,1050.1,193,1042.3,189.2z"/>
	<path opacity="0.44" fill="#FFFFFE" d="M1240,338.4c4.8,5.3,9.4,10.7,14,16.2C1249.4,349.1,1244.7,343.7,1240,338.4z"/>
	<path opacity="0.44" fill="#FFFFFE" d="M1174.2,274.9c5.1,4.3,10.2,8.7,15.2,13.2C1184.5,283.6,1179.4,279.2,1174.2,274.9z"/>
	<path opacity="0.44" fill="#FFFFFE" d="M1219.4,316.6c4.8,4.8,9.4,9.7,14,14.7C1228.9,326.4,1224.2,321.5,1219.4,316.6z"/>
	<path opacity="0.44" fill="#FFFFFE" d="M604,144.4c9-2.3,18-4.4,27.1-6.3C622,140.1,612.9,142.2,604,144.4z"/>
	<path opacity="0.44" fill="#FFFFFE" d="M1015.9,177.1c6.8,2.9,13.5,5.9,20.1,9.1C1029.3,183.1,1022.6,180,1015.9,177.1z"/>
	<path opacity="0.44" fill="#FFFFFE" d="M1194.7,292.7c6.1,5.6,12,11.3,17.9,17C1206.7,303.9,1200.8,298.2,1194.7,292.7z"/>
	<path opacity="0.44" fill="#FFFFFE" d="M732.5,125.5c9.8-0.4,19.5-0.7,29.4-0.7C752,124.8,742.2,125.1,732.5,125.5z"/>
	<path opacity="0.44" fill="#FFFFFE" d="M956.5,154.9c7.4,2.3,14.7,4.8,22,7.4C971.2,159.8,963.9,157.3,956.5,154.9z"/>
	<path opacity="0.44" fill="#FFFFFE" d="M698.9,127.9c8.6-0.8,17.2-1.5,25.8-2C716.1,126.4,707.5,127.1,698.9,127.9z"/>
	<path opacity="0.44" fill="#FFFFFE" d="M667.2,131.8c9.4-1.4,18.8-2.6,28.3-3.6C686,129.2,676.6,130.4,667.2,131.8z"/>
	<path opacity="0.44" fill="#FFFFFE" d="M636.4,137.1c7.8-1.5,15.6-2.9,23.4-4.2C652,134.2,644.2,135.6,636.4,137.1z"/>
	<path opacity="0.44" fill="#FFFFFE" d="M761.9,124.8c9.9,0,19.6,0.3,29.4,0.7C781.5,125.1,771.7,124.8,761.9,124.8z"/>
	<path opacity="0.44" fill="#FFFFFE" d="M894.3,138.5c8.1,1.7,16.1,3.6,24.1,5.6C910.4,142.1,902.4,140.2,894.3,138.5z"/>
	<path opacity="0.44" fill="#FFFFFE" d="M798.3,125.9c9.6,0.5,19.2,1.2,28.7,2.2C817.5,127.1,807.9,126.4,798.3,125.9z"/>
	<path opacity="0.44" fill="#FFFFFE" d="M862.7,132.7c9.3,1.5,18.5,3.1,27.6,4.9C881.2,135.8,872,134.2,862.7,132.7z"/>
	<path opacity="0.44" fill="#FFFFFE" d="M829.4,128.3c8.9,0.9,17.7,2.1,26.5,3.4C847.1,130.4,838.2,129.3,829.4,128.3z"/>
	<path fill="#C4E1F6" d="M1126.5,238.5c-0.5-0.3-1-0.7-1.5-1.1c-2.3-1.6-4.6-3.2-7-4.8c-2.2-1.5-4.5-2.8-6.7-4.3
		C1116.5,231.7,1121.5,235,1126.5,238.5z"/>
	<path opacity="0.44" fill="#FFFFFE" d="M1126.5,238.5c-0.5-0.3-1-0.7-1.5-1.1c-2.3-1.6-4.6-3.2-7-4.8c-2.2-1.5-4.5-2.8-6.7-4.3
		C1116.5,231.7,1121.5,235,1126.5,238.5z"/>
	<path fill="#C4E1F6" d="M1104.6,224.1c-2.7-1.7-5.3-3.5-8-5.2c-2-1.2-4.1-2.4-6.1-3.6c-0.9-0.5-1.9-1.1-2.8-1.6
		C1093.4,217,1099,220.5,1104.6,224.1z"/>
	<path opacity="0.44" fill="#FFFFFE" d="M1104.6,224.1c-2.7-1.7-5.3-3.5-8-5.2c-2-1.2-4.1-2.4-6.1-3.6c-0.9-0.5-1.9-1.1-2.8-1.6
		C1093.4,217,1099,220.5,1104.6,224.1z"/>
	<path fill="#C4E1F6" d="M1162.6,265.4c-5-4-10-8.1-15.2-11.9c-1.9-1.4-3.8-2.8-5.7-4.2c-2.5-1.8-5.1-3.6-7.6-5.4
		C1143.9,250.8,1153.4,258,1162.6,265.4z"/>
	<path opacity="0.44" fill="#FFFFFE" d="M1162.6,265.4c-5-4-10-8.1-15.2-11.9c-1.9-1.4-3.8-2.8-5.7-4.2c-2.5-1.8-5.1-3.6-7.6-5.4
		C1143.9,250.8,1153.4,258,1162.6,265.4z"/>
	<path fill="#C4E1F6" d="M1043.7,376.6c3.6,3.8,7.1,7.8,10.1,12.6c0.5-47.2,94.3,15.2,95.6,47.3c27.1-26.2,58.9-11,85,8.4
		c20-13.5,48.6-16.8,75.5-12.5c-0.1-0.2-0.3-0.5-0.5-0.7c-4.1-6.7-8.4-13.3-12.7-19.8c-1.9-2.9-3.8-5.7-5.8-8.5
		c-3.7-5.4-7.5-10.7-11.3-16c-2-2.8-4.1-5.5-6.1-8.2c-4.3-5.7-8.7-11.2-13.1-16.7c-2.1-2.6-4.3-5.2-6.4-7.8
		c-4.6-5.5-9.2-10.9-14-16.2c-2.1-2.4-4.3-4.7-6.5-7.1c-4.6-5-9.3-9.9-14-14.7c-2.3-2.3-4.6-4.6-6.9-6.9c-5.9-5.8-11.8-11.5-17.9-17
		c-1.7-1.6-3.5-3.1-5.2-4.6c-5-4.5-10.1-8.9-15.2-13.2c-2.3-1.9-4.6-3.8-6.9-5.7L1043.7,376.6z"/>
	<path opacity="0.44" fill="#FFFFFE" d="M1043.7,376.6c3.6,3.8,7.1,7.8,10.1,12.6c0.5-47.2,94.3,15.2,95.6,47.3
		c27.1-26.2,58.9-11,85,8.4c20-13.5,48.6-16.8,75.5-12.5c-0.1-0.2-0.3-0.5-0.5-0.7c-4.1-6.7-8.4-13.3-12.7-19.8
		c-1.9-2.9-3.8-5.7-5.8-8.5c-3.7-5.4-7.5-10.7-11.3-16c-2-2.8-4.1-5.5-6.1-8.2c-4.3-5.7-8.7-11.2-13.1-16.7
		c-2.1-2.6-4.3-5.2-6.4-7.8c-4.6-5.5-9.2-10.9-14-16.2c-2.1-2.4-4.3-4.7-6.5-7.1c-4.6-5-9.3-9.9-14-14.7c-2.3-2.3-4.6-4.6-6.9-6.9
		c-5.9-5.8-11.8-11.5-17.9-17c-1.7-1.6-3.5-3.1-5.2-4.6c-5-4.5-10.1-8.9-15.2-13.2c-2.3-1.9-4.6-3.8-6.9-5.7L1043.7,376.6z"/>
	<path fill="#C4E1F6" d="M279.8,432.5c46.9-1.8,109.2,17.1,140,55c-3.1-69.5,55.1-122,118.1-140.1c42.9-12.3,66,5.1,96.7,33.9
		c3.4-41.3,75.2-5.1,92.6-4.1c7.5,0.4,15.1-8.6,24-8.3c4.3,0.1,18.1,7.7,18.6,7.6c13.8-3,32.4-31.6,37.7-47.1
		c17.8-1.1,32.3,1.5,44.3,7.3c57.2-64.8,114.2-129.8,146.5-166.7c-4.4-1.8-8.8-3.6-13.3-5.2c-2.2-0.8-4.4-1.6-6.5-2.3
		c-7.3-2.6-14.6-5.1-22-7.4c-1.7-0.6-3.5-1.1-5.2-1.7c-8.7-2.7-17.4-5.1-26.3-7.5c-2.2-0.6-4.5-1.1-6.7-1.7c-8-2-16-3.9-24.1-5.6
		c-1.3-0.3-2.6-0.6-4-0.9c-9.1-1.9-18.3-3.5-27.6-4.9c-2.3-0.4-4.6-0.7-6.9-1c-8.8-1.3-17.6-2.4-26.5-3.4c-0.8-0.1-1.5-0.2-2.3-0.3
		c-9.5-1-19.1-1.6-28.7-2.2c-2.3-0.1-4.7-0.2-7-0.4c-9.7-0.4-19.5-0.7-29.4-0.7c-9.9,0-19.6,0.3-29.4,0.7c-2.6,0.1-5.1,0.3-7.7,0.4
		c-8.7,0.5-17.3,1.1-25.8,2c-1.1,0.1-2.3,0.2-3.4,0.3c-9.5,1-18.9,2.2-28.3,3.6c-2.5,0.4-4.9,0.8-7.4,1.2
		c-7.9,1.3-15.7,2.6-23.4,4.2c-1.8,0.4-3.6,0.7-5.3,1c-9.1,1.9-18.1,4-27.1,6.3c-2.3,0.6-4.7,1.2-7,1.8c-7.2,1.9-14.4,4-21.6,6.1
		c-2.2,0.7-4.4,1.3-6.5,2c-8.7,2.7-17.2,5.6-25.7,8.7c-2.2,0.8-4.3,1.6-6.5,2.4c-6.8,2.5-13.5,5.2-20.1,7.9c-2.4,1-4.9,2-7.3,3
		c-8.2,3.5-16.2,7.1-24.2,10.9c-1.9,0.9-3.9,1.9-5.8,2.9c-6.4,3.1-12.7,6.4-18.9,9.7c-2.6,1.4-5.2,2.8-7.7,4.2
		c-7.6,4.2-15.2,8.5-22.6,13c-1.7,1-3.3,2.1-4.9,3.1c-6.1,3.7-12.1,7.6-18,11.5c-2.7,1.8-5.3,3.6-7.9,5.4
		c-5.9,4.1-11.8,8.2-17.6,12.5c-2.2,1.7-4.5,3.3-6.7,5c-6,4.5-11.8,9.1-17.6,13.9c-2.6,2.2-5.3,4.3-7.9,6.5
		c-4.8,4-9.5,8.1-14.2,12.3c-2.1,1.9-4.2,3.7-6.3,5.6c-6,5.5-11.9,11.2-17.8,16.9c-2.6,2.5-5.1,5.1-7.6,7.7
		c-4,4.1-7.9,8.2-11.8,12.4c-2.3,2.5-4.7,4.9-6.9,7.5c-5.4,6-10.6,12-15.8,18.2c-2.4,2.8-4.7,5.7-7,8.6c-3.4,4.2-6.7,8.4-10,12.7
		c-2.3,3-4.6,5.9-6.8,9c-4.7,6.4-9.3,12.8-13.8,19.4c-2.1,3.1-4.1,6.2-6.2,9.4c-2.9,4.4-5.7,8.8-8.5,13.3c-2.1,3.4-4.2,6.7-6.2,10.1
		c-4,6.6-7.8,13.3-11.6,20.1c-0.1,0.2-0.2,0.3-0.3,0.5C225.9,442.7,259.8,433.3,279.8,432.5z"/>
	<path opacity="0.44" fill="#FFFFFE" d="M279.8,432.5c46.9-1.8,109.2,17.1,140,55c-3.1-69.5,55.1-122,118.1-140.1
		c42.9-12.3,66,5.1,96.7,33.9c3.4-41.3,75.2-5.1,92.6-4.1c7.5,0.4,15.1-8.6,24-8.3c4.3,0.1,18.1,7.7,18.6,7.6
		c13.8-3,32.4-31.6,37.7-47.1c17.8-1.1,32.3,1.5,44.3,7.3c57.2-64.8,114.2-129.8,146.5-166.7c-4.4-1.8-8.8-3.6-13.3-5.2
		c-2.2-0.8-4.4-1.6-6.5-2.3c-7.3-2.6-14.6-5.1-22-7.4c-1.7-0.6-3.5-1.1-5.2-1.7c-8.7-2.7-17.4-5.1-26.3-7.5
		c-2.2-0.6-4.5-1.1-6.7-1.7c-8-2-16-3.9-24.1-5.6c-1.3-0.3-2.6-0.6-4-0.9c-9.1-1.9-18.3-3.5-27.6-4.9c-2.3-0.4-4.6-0.7-6.9-1
		c-8.8-1.3-17.6-2.4-26.5-3.4c-0.8-0.1-1.5-0.2-2.3-0.3c-9.5-1-19.1-1.6-28.7-2.2c-2.3-0.1-4.7-0.2-7-0.4
		c-9.7-0.4-19.5-0.7-29.4-0.7c-9.9,0-19.6,0.3-29.4,0.7c-2.6,0.1-5.1,0.3-7.7,0.4c-8.7,0.5-17.3,1.1-25.8,2
		c-1.1,0.1-2.3,0.2-3.4,0.3c-9.5,1-18.9,2.2-28.3,3.6c-2.5,0.4-4.9,0.8-7.4,1.2c-7.9,1.3-15.7,2.6-23.4,4.2c-1.8,0.4-3.6,0.7-5.3,1
		c-9.1,1.9-18.1,4-27.1,6.3c-2.3,0.6-4.7,1.2-7,1.8c-7.2,1.9-14.4,4-21.6,6.1c-2.2,0.7-4.4,1.3-6.5,2c-8.7,2.7-17.2,5.6-25.7,8.7
		c-2.2,0.8-4.3,1.6-6.5,2.4c-6.8,2.5-13.5,5.2-20.1,7.9c-2.4,1-4.9,2-7.3,3c-8.2,3.5-16.2,7.1-24.2,10.9c-1.9,0.9-3.9,1.9-5.8,2.9
		c-6.4,3.1-12.7,6.4-18.9,9.7c-2.6,1.4-5.2,2.8-7.7,4.2c-7.6,4.2-15.2,8.5-22.6,13c-1.7,1-3.3,2.1-4.9,3.1
		c-6.1,3.7-12.1,7.6-18,11.5c-2.7,1.8-5.3,3.6-7.9,5.4c-5.9,4.1-11.8,8.2-17.6,12.5c-2.2,1.7-4.5,3.3-6.7,5
		c-6,4.5-11.8,9.1-17.6,13.9c-2.6,2.2-5.3,4.3-7.9,6.5c-4.8,4-9.5,8.1-14.2,12.3c-2.1,1.9-4.2,3.7-6.3,5.6
		c-6,5.5-11.9,11.2-17.8,16.9c-2.6,2.5-5.1,5.1-7.6,7.7c-4,4.1-7.9,8.2-11.8,12.4c-2.3,2.5-4.7,4.9-6.9,7.5
		c-5.4,6-10.6,12-15.8,18.2c-2.4,2.8-4.7,5.7-7,8.6c-3.4,4.2-6.7,8.4-10,12.7c-2.3,3-4.6,5.9-6.8,9c-4.7,6.4-9.3,12.8-13.8,19.4
		c-2.1,3.1-4.1,6.2-6.2,9.4c-2.9,4.4-5.7,8.8-8.5,13.3c-2.1,3.4-4.2,6.7-6.2,10.1c-4,6.6-7.8,13.3-11.6,20.1
		c-0.1,0.2-0.2,0.3-0.3,0.5C225.9,442.7,259.8,433.3,279.8,432.5z"/>
	<path fill="#C4E1F6" d="M1084.8,212c-4.2-2.5-8.4-4.9-12.7-7.3c-2.2-1.2-4.4-2.5-6.6-3.7c-7.6-4.1-15.4-8.1-23.2-11.9
		c-2.1-1-4.2-2-6.4-3c-6.6-3.1-13.3-6.2-20.1-9.1c-2-0.9-4-1.8-6.1-2.6c-3.7-1.6-7.6-3-11.3-4.5C1028.5,181.9,1057.3,196,1084.8,212
		z"/>
	<path opacity="0.44" fill="#FFFFFE" d="M1084.8,212c-4.2-2.5-8.4-4.9-12.7-7.3c-2.2-1.2-4.4-2.5-6.6-3.7
		c-7.6-4.1-15.4-8.1-23.2-11.9c-2.1-1-4.2-2-6.4-3c-6.6-3.1-13.3-6.2-20.1-9.1c-2-0.9-4-1.8-6.1-2.6c-3.7-1.6-7.6-3-11.3-4.5
		C1028.5,181.9,1057.3,196,1084.8,212z"/>
	<path fill="#C1D1CD" d="M717.4,1407.3c-2.8-0.2-5.5-0.4-8.3-0.6C711.9,1406.8,714.7,1407.1,717.4,1407.3z"/>
	<path fill="#C1D1CD" d="M623.4,1393.8c-2.8-0.6-5.6-1.3-8.5-2C617.7,1392.5,620.5,1393.2,623.4,1393.8z"/>
	<path fill="#C1D1CD" d="M644.3,1398.1c-1.5-0.3-3-0.6-4.6-0.9C641.3,1397.4,642.8,1397.8,644.3,1398.1z"/>
	<path fill="#C1D1CD" d="M561.9,1376.9c-3.1-1-6.3-2-9.4-3.1C555.6,1374.9,558.7,1375.9,561.9,1376.9z"/>
	<path fill="#C1D1CD" d="M739.6,1408.4c-2.4-0.1-4.7-0.2-7.1-0.3C734.9,1408.2,737.2,1408.3,739.6,1408.4z"/>
	<path fill="#C1D1CD" d="M841.7,1403.9c-2.6,0.3-5.1,0.6-7.7,0.8C836.5,1404.4,839.1,1404.2,841.7,1403.9z"/>
	<path fill="#C1D1CD" d="M873.9,1399c-3.8,0.7-7.6,1.4-11.4,2C866.3,1400.3,870.1,1399.6,873.9,1399z"/>
	<path fill="#C1D1CD" d="M818.1,1406.3c-2.9,0.3-5.8,0.5-8.7,0.7C812.3,1406.8,815.2,1406.6,818.1,1406.3z"/>
	<path fill="#C1D1CD" d="M1313.4,1095.1c1.8-3.1,3.7-6.1,5.5-9.2c0.2-0.3,0.4-0.6,0.5-0.9c1.8-3.1,3.4-6.3,5.2-9.4
		C1321,1082.1,1317.2,1088.6,1313.4,1095.1z"/>
	<path fill="#C1D1CD" d="M466.5,1336.9c3.6,1.9,7.3,3.7,10.9,5.5c0.2,0.1,0.5,0.2,0.7,0.4C474.3,1340.8,470.4,1338.9,466.5,1336.9z"
		/>
	<path fill="#C1D1CD" d="M485.1,1346.1c0.8,0.4,1.6,0.8,2.5,1.2c2.9,1.4,5.8,2.7,8.7,4C492.6,1349.7,488.8,1347.9,485.1,1346.1z"/>
	<path fill="#C1D1CD" d="M418.4,1309.2c0.8,0.5,1.7,1,2.5,1.6c3.5,2.2,7.1,4.5,10.7,6.7c6.9,4.1,13.9,8.1,20.9,12
		c2.9,1.6,5.9,3.2,8.9,4.7C446.7,1326.4,432.4,1318,418.4,1309.2z"/>
	<path fill="#C1D1CD" d="M504.1,1354.8c1.3,0.6,2.6,1.2,3.9,1.7c2.4,1,4.7,2,7.1,3C511.4,1358.1,507.8,1356.5,504.1,1354.8z"/>
	<path fill="#C1D1CD" d="M1206.8,1229.3c-6.4,6.2-12.9,12.2-19.6,18.1C1193.9,1241.5,1200.4,1235.5,1206.8,1229.3z"/>
	<path fill="#C1D1CD" d="M572.7,1380.4c0.3,0.1,0.6,0.2,0.9,0.3c2.9,0.9,5.8,1.7,8.6,2.5C579,1382.3,575.8,1381.4,572.7,1380.4z"/>
	<path fill="#C1D1CD" d="M403.2,1299.2c1.8,1.2,3.5,2.4,5.3,3.6c2.6,1.7,5.2,3.4,7.9,5.1C412,1305,407.6,1302.1,403.2,1299.2z"/>
	<path fill="#C1D1CD" d="M665.2,1401.6c0,0,0.1,0,0.1,0c2.4,0.4,4.8,0.7,7.1,1C670.1,1402.2,667.6,1401.9,665.2,1401.6z"/>
	<path fill="#C1D1CD" d="M687,1404.4c2.3,0.3,4.6,0.5,6.9,0.8c0.5,0,0.9,0.1,1.4,0.1C692.5,1405,689.7,1404.8,687,1404.4z"/>
	<path fill="#C1D1CD" d="M785.6,1408.3c2.1-0.1,4.3-0.2,6.4-0.3c0.4,0,0.8-0.1,1.2-0.1C790.7,1408.1,788.2,1408.2,785.6,1408.3z"/>
	<path fill="#C1D1CD" d="M593.4,1386.4c2.2,0.6,4.4,1.2,6.6,1.8c0.9,0.2,1.8,0.4,2.7,0.7C599.6,1388.1,596.5,1387.2,593.4,1386.4z"
		/>
	<path fill="#C1D1CD" d="M1256.2,1176c2.4-2.9,4.8-5.7,7.2-8.7c0.4-0.5,0.8-1.1,1.3-1.6c2.2-2.8,4.4-5.7,6.5-8.5
		C1266.3,1163.6,1261.4,1169.9,1256.2,1176z"/>
	<path fill="#C1D1CD" d="M241.8,1142.9c9.3-2.7,20.8-5.9,34.1-9.2c-18,2.7-30.6,5.2-36.1,6.4C240.5,1141.1,241.2,1142,241.8,1142.9z
		"/>
	<path fill="#C1D1CD" d="M314.6,1227.1c-26.5-25.8-50.8-53.9-72.6-83.9c10.4,14.3,21.3,28.3,32.8,41.7c1.5,1.7,2.9,3.4,4.4,5.1
		c4.1,4.6,8.2,9.3,12.4,13.8c1.1,1.2,2.2,2.3,3.3,3.4C301.3,1213.9,307.9,1220.5,314.6,1227.1z"/>
	<path fill="#C1D1CD" d="M186.6,1051.6c0.7,1.4,1.4,2.9,2.1,4.4c0.5,0.9,1,1.9,1.4,2.8c0.3,0.5,0.5,1,0.8,1.5
		C189.4,1057.4,188,1054.5,186.6,1051.6z"/>
	<path fill="#C1D1CD" d="M179.4,1036.7c0.7,1.5,1.5,2.9,2.2,4.4c-0.7-1.5-1.4-3-2.1-4.5L179.4,1036.7z"/>
	<path fill="#C1D1CD" d="M315.1,1227.6c1.4,1.3,2.8,2.7,4.2,4c1.9,1.8,3.8,3.7,5.8,5.5c4,3.7,8.1,7.4,12.3,11.1
		c2.6,2.3,5.1,4.5,7.7,6.7c4,3.4,8.1,6.9,12.2,10.2c3.5,2.9,7.2,5.7,10.8,8.5c5.4,4.2,10.9,8.3,16.4,12.3
		C359.9,1268.1,336.8,1248.6,315.1,1227.6z"/>
	<path fill="#C1D1CD" d="M387,1287.9c3.3,2.4,6.7,4.8,10.1,7.1c0.9,0.7,1.9,1.3,2.8,1.9C395.6,1294,391.3,1290.9,387,1287.9z"/>
	<path fill="#C1D1CD" d="M1320.4,1044c7.1-0.9,14.3-1.8,21.7-2.4c-4.3,9-8.8,17.8-13.5,26.6c4.9-9.2,9.7-18.6,14.1-28.1
		C1342.4,1040.1,1334.2,1041.2,1320.4,1044z"/>
	<path fill="#C1D1CD" d="M1275.6,1151.6c12-15.9,23.2-32.4,33.6-49.5C1298.7,1119.1,1287.5,1135.7,1275.6,1151.6z"/>
	<path fill="#C1D1CD" d="M523.7,1363.1c4.5,1.8,9,3.6,13.5,5.3c1,0.4,1.9,0.7,2.9,1C534.6,1367.3,529.2,1365.2,523.7,1363.1z"/>
	<path fill="#C1D1CD" d="M1017.1,1355.9c-4.3,1.9-8.6,3.7-12.9,5.5c1.1-0.5,2.2-0.9,3.3-1.3c3.9-1.6,7.7-3.3,11.5-5
		C1018.5,1355.3,1017.8,1355.6,1017.1,1355.9z"/>
	<path fill="#C1D1CD" d="M884.4,1397c2.2-0.4,4.3-0.8,6.5-1.2c1-0.2,2-0.5,3.1-0.7c1-0.2,1.9-0.4,2.9-0.7
		C892.8,1395.4,888.6,1396.2,884.4,1397z"/>
	<path fill="#C1D1CD" d="M1134.6,1289.4c2.2-1.6,4.5-3.1,6.6-4.7c4.7-3.4,9.3-7,13.9-10.6c2.5-1.9,5-3.9,7.5-5.9
		c4.7-3.8,9.4-7.6,14-11.5c2-1.7,3.9-3.4,5.8-5c0.5-0.4,0.9-0.8,1.4-1.2C1168.1,1264.2,1151.6,1277.2,1134.6,1289.4z"/>
	<path fill="#C1D1CD" d="M1246.5,1187.7c1-1.1,1.9-2.2,2.9-3.4c0.9-1,1.7-2.1,2.6-3.1c-13.1,15.5-27,30.4-41.5,44.6
		c7-6.9,13.9-13.8,20.6-21c0.3-0.3,0.6-0.6,0.8-0.9C1236.8,1198.6,1241.7,1193.2,1246.5,1187.7z"/>
	<path fill="#C1D1CD" d="M1108,1307.4C1108,1307.4,1108.1,1307.4,1108,1307.4c8.4-5.4,16.6-10.9,24.6-16.6
		C1124.6,1296.5,1116.4,1302,1108,1307.4z"/>
	<path fill="#C1D1CD" d="M1049.8,1340.7c3.9-1.9,7.7-3.9,11.5-5.9c4.2-2.2,8.4-4.5,12.5-6.8c3.9-2.2,7.8-4.5,11.7-6.7
		c4.3-2.5,8.5-5,12.7-7.5c2.6-1.6,5.1-3.3,7.7-4.9C1087.8,1320.3,1069.1,1331,1049.8,1340.7z"/>
	<path fill="#C1D1CD" d="M1020.5,1354.5c5.3-2.3,10.6-4.7,15.9-7.2c4-1.9,8-3.9,11.9-5.9c0.3-0.2,0.6-0.3,1-0.5
		C1039.8,1345.7,1030.2,1350.2,1020.5,1354.5z"/>
	<path fill="#C1D1CD" d="M985.5,1368.7C985.5,1368.7,985.5,1368.7,985.5,1368.7c3.9-1.5,7.8-3,11.7-4.6
		C993.3,1365.7,989.5,1367.3,985.5,1368.7z"/>
	<path fill="#C1D1CD" d="M984.5,1368.9c-5.9,2.2-11.9,4.2-17.9,6.3c0,0,0,0.1,0,0.1c-1,0.3-2.1,0.6-3.1,1c-2,0.7-3.9,1.4-5.9,2.1
		c0.2-0.1,0.4-0.1,0.6-0.2c5.7-1.8,11.4-3.8,17-5.8c3.1-1.1,6.2-2.1,9.2-3.3L984.5,1368.9z"/>
	<path fill="#C1D1CD" d="M957.5,1378.2c-5.2,1.7-10.3,3.4-15.5,4.9c0.4-59.7,24.1-314.8,400.8-343c10.3-21.9,19.5-44.5,27.3-67.7
		c0-0.1,0.1-0.2,0.1-0.4c0,0,0,0,0,0c-27.7-27.5-60.6-56.3-85.8-78.4c-39.6,34.5-84.8,53.4-114.3,62.9c18.9,32.5-5,75.6-79.2,103.9
		c-111.4,42.4-222.9,24.8-222.9,24.8l-163.3-126c-83.4,9-178.1,18.3-180.7,14.3c-4.7-7.1,7.1,71.2-113.9,83.1
		c-46.1,4.5-130.8,5.9-217.9,6c9.1,17.6,19,34.7,29.7,51.3c0.6,1,1.2,2,1.9,2.9c3.7,5.7,7.5,11.3,11.4,16.9c0.6,0.9,1.3,1.8,1.9,2.7
		c0.9,1.2,1.8,2.4,2.6,3.6c547-165.5,679.3,184.7,697.6,244.4c-6.2,1.7-12.4,3.3-18.6,4.8c0,0.1,0.1,0.2,0.1,0.2
		c-4.3,1.1-8.6,2.1-13,3.1c4.5-1,9-2,13.4-3.2c3.4-0.9,6.7-1.8,10.1-2.7c6-1.6,11.9-3.3,17.8-5.1c3.5-1,6.9-2.1,10.4-3.2
		C957.4,1378.3,957.5,1378.2,957.5,1378.2z"/>
	<path fill="#6EC829" d="M918.6,1389.2c-3,0.7-5.9,1.6-8.9,2.3c-155.3-301.9-514.5-275.8-633.8-257.8c-13.3,3.3-24.8,6.3-34.1,9.3
		c0,0,0,0,0,0c0,0,0.1,0.1,0.1,0.1c21.8,30,46.1,58.1,72.6,83.9c0.2,0.2,0.4,0.3,0.5,0.5c21.7,21,44.8,40.5,69.3,58.4
		c0.3,0.3,0.7,0.5,1,0.8c0.5,0.4,1.1,0.8,1.6,1.1c4.3,3.1,8.6,6.1,12.9,9.1c1.1,0.8,2.2,1.5,3.3,2.2c4.4,2.9,8.7,5.9,13.2,8.7
		c0.7,0.4,1.4,0.9,2,1.3c14,8.9,28.3,17.2,43,25c0.3,0.2,0.6,0.3,0.9,0.5c1.4,0.7,2.8,1.5,4.2,2.2c3.9,2,7.8,3.9,11.7,5.9
		c2.3,1.1,4.6,2.3,7,3.4c3.7,1.8,7.5,3.5,11.2,5.2c2.6,1.2,5.2,2.3,7.8,3.5c3.6,1.6,7.3,3.2,11,4.7c0.1,0,0.2,0.1,0.3,0.1
		c2.8,1.2,5.6,2.2,8.4,3.4c5.4,2.2,10.9,4.3,16.4,6.3c2,0.7,4,1.5,6.1,2.2c2.1,0.7,4.2,1.5,6.3,2.3c3.1,1.1,6.3,2.1,9.4,3.1
		c2.2,0.7,4.4,1.5,6.7,2.2c1.4,0.4,2.8,0.9,4.1,1.3c3.2,1,6.3,1.9,9.5,2.8c3.7,1.1,7.4,2.1,11.2,3.2c3.1,0.8,6.2,1.7,9.3,2.5
		c0.5,0.1,0.9,0.2,1.4,0.4c3.6,0.9,7.2,1.8,10.9,2.6c2.8,0.7,5.6,1.3,8.5,2c2.1,0.5,4.2,0.9,6.3,1.3c2.2,0.5,4.5,0.9,6.7,1.4
		c1.1,0.2,2.3,0.5,3.4,0.7c1.5,0.3,3,0.6,4.6,0.9c6.4,1.2,12.9,2.3,19.4,3.3c0.5,0.1,1,0.1,1.6,0.2c2.4,0.4,4.8,0.7,7.2,1
		c4.8,0.7,9.6,1.3,14.5,1.9c2.7,0.3,5.5,0.6,8.3,0.9c1.1,0.1,2.1,0.2,3.2,0.3c3.6,0.4,7.1,0.7,10.7,0.9c2.8,0.2,5.5,0.4,8.3,0.6
		c3,0.2,6.1,0.4,9.1,0.6c1.9,0.1,3.8,0.2,5.7,0.3c0.1,0,0.2,0,0.3,0c2.4,0.1,4.7,0.2,7.1,0.3c7.4,0.3,14.8,0.4,22.3,0.4
		c8,0,15.9-0.2,23.8-0.5c2.5-0.1,5.1-0.2,7.6-0.4c1.4-0.1,2.9-0.1,4.3-0.2c3.9-0.2,7.9-0.5,11.8-0.8c2.9-0.2,5.8-0.4,8.7-0.7
		c2.3-0.2,4.6-0.4,7-0.6c2.4-0.2,4.8-0.5,7.1-0.8c0.6-0.1,1.2-0.1,1.8-0.2c2.6-0.3,5.1-0.5,7.7-0.8c4.4-0.5,8.7-1.2,13.1-1.8
		c2.3-0.3,4.7-0.6,7-1c0.2,0,0.5-0.1,0.7-0.1c3.8-0.6,7.6-1.3,11.4-2c3.5-0.6,7-1.2,10.5-1.9c4.2-0.8,8.3-1.6,12.5-2.5
		c3-0.6,5.9-1.3,8.8-2c4.3-1,8.7-2,13-3.1C918.6,1389.4,918.6,1389.3,918.6,1389.2z M432.9,1199.2l443,199l-0.6,0.4
		c-23.1,4.1-46.6,7-70.5,8.6L432.9,1199.2z"/>
	<path fill="#6EC829" d="M1206.8,1229.3c1.2-1.1,2.4-2.3,3.6-3.4c14.5-14.2,28.4-29.1,41.5-44.6c1.5-1.7,2.9-3.5,4.3-5.2
		c5.1-6.2,10.1-12.4,15-18.8c1.4-1.9,2.9-3.7,4.3-5.6c12-15.9,23.2-32.4,33.6-49.5c1.4-2.3,2.8-4.7,4.2-7c3.8-6.4,7.6-13,11.2-19.5
		c1.4-2.5,2.7-4.9,4-7.4c4.7-8.8,9.2-17.6,13.5-26.6c-7.4,0.7-14.6,1.6-21.7,2.4c-75.1,15.3-315,83.3-353.8,331.2
		c6-2,12-4.1,17.9-6.3l180.6-209.5l-144.6,195c-1.1,0.5-2.3,1-3.4,1.5c0.6-0.3,1.3-0.5,2-0.8c0,0,0,0,0,0c0.4-0.2,0.9-0.4,1.3-0.6
		c9.7-4.3,19.3-8.8,28.7-13.5c0.2-0.1,0.4-0.2,0.6-0.3c19.3-9.7,38-20.4,56.1-31.9c0.7-0.5,1.4-0.9,2.1-1.4
		c8.3-5.3,16.5-10.9,24.6-16.6c0.1,0,0.1-0.1,0.2-0.1c0.6-0.4,1.2-0.8,1.8-1.3c17-12.2,33.4-25.2,49.2-38.9c0.3-0.3,0.6-0.5,0.9-0.8
		c0.2-0.2,0.4-0.4,0.7-0.6c0.6-0.6,1.2-1.1,1.8-1.7C1193.9,1241.5,1200.4,1235.5,1206.8,1229.3z"/>
	<path fill="#6EC829" d="M957.4,1378.4C957.4,1378.4,957.4,1378.4,957.4,1378.4c0,0,0.1,0,0.1,0c2-0.6,3.9-1.4,5.9-2.1
		c-2,0.7-4,1.2-6,1.9C957.5,1378.2,957.4,1378.3,957.4,1378.4z"/>
	<path fill="#387167" d="M1352.6,793.3c47.8-141.5-76.1-314.8-206.9-291.8c-37.9,6.7-70.2,14.1-98.9,23.9c-4,3.6-8.6,6-13.7,6.3
		c13.5,2.2,22.9,6.3,34.8,14.1c-2.3,0.4-5.8,1.4-9.5,1.7c14.4,1.3,16.2,11.3,12.7,20.8c38.4-5.2,78.5-0.9,110.1,25.5
		c87.8,73.5,135.3,170.8,106.8,239.6c-10.9,26.2-49.4,53.1-96,76.4c3.1-16.7,7.9-50.7-11.1-68.9v3.5c0,0-25.6-1.3-9.7,11
		c12.9,10.1,19.2,39.7,19.8,55.2c-15.2,7.5-30.9,14.6-47.5,21.2c12,6.9,21,15.2,26.3,24.4c29.5-9.5,74.8-28.5,114.4-62.9
		C1312.6,868.9,1338.1,836.3,1352.6,793.3z"/>
	<path fill="#FFFFFE" d="M1144,932.1c-0.3,0.1-0.5,0.2-0.8,0.3c-24.4-22.8-67.4-39.9-118.7-46.2c-1.6-0.2-3.1-0.4-4.7-0.6
		c-12.6-1.4-25.6-2.1-39-2.1c-5,0-9.8,0.2-14.7,0.4c-1.4,0.1-2.9,0-4.3,0.1c-30.9,1.6-59.5,7-83.9,15.3
		c-31.5,10.7-55.9,26.2-69.5,44.4c-1,1.4-2.1,2.8-3,4.2c-23.4,2.7-60.6,6.9-100.5,11.2l163.3,126c0,0,111.4,17.7,222.9-24.8
		c74.2-28.3,98.1-71.4,79.2-103.9C1164.8,947.3,1156,939,1144,932.1z M832.6,1009.1c-19.5-40.7,15.9-65.4,15.9-65.4
		c-38.9,77.8,51.3,100.8,109.6,113.2c58.4,12.4,183.9-30.1,164.5-84.9c-19.5-54.8-201.6-7.1-183.9,19.5
		c17.7,26.5,100.8-1.8,100.8-1.8c-44.2,24.8-127.3,28.3-123.8-8.8c3.5-37.1,145-67.2,198.1-37.1c53.1,30.1,44.2,88.4-61.9,116.7
		C945.8,1088.7,852.1,1049.8,832.6,1009.1z"/>
	<path fill="#F0B78C" d="M181.5,1041.1c1.7,3.5,3.4,7,5.1,10.5c1.4,2.9,2.9,6,4.3,8.8c0.4,0.8,0.8,2.6,1.2,2.6c0,0,0,0,0.1,0
		c87.2,0,171.8-1.7,217.9-6.2c121-11.9,109.2-90.3,113.9-83.2c2.6,4,97.4-5.4,180.7-14.4c39.9-4.3,77.2-8.6,100.5-11.3
		c0.9-1.4,2-2.8,3-4.2c-25.6,0.6-42.9,5.2-42.9,5.2s35.4-260,63.7-237c0,0-24.7,120.3-5.3,152.1c10.8,17.7,34.9,28.9,54,35.3
		c24.5-8.3,53.1-13.7,83.9-15.3l-33.6-62.4c0,0,41.8,16.2,37.9,62.3c4.9-0.2,9.7-0.4,14.7-0.4c13.4,0,26.5,0.8,39,2.1l-3.2-14.5
		c0-21.2,23,12.4,23,12.4l-15.1,2.7c51.3,6.3,94.2,23.3,118.7,46.2c0.3-0.1,0.5-0.2,0.8-0.3c16.6-6.6,32.8-13.7,48-21.2
		c-0.6-15.5-7.7-45.2-20.7-55.2c-15.9-12.4,9.7-11,9.7-11v-3.5c19,18.2,14.2,52.1,11.1,68.9c46.5-23.3,84.2-50.2,95.1-76.4
		c28.5-68.8-18.5-166.1-106.3-239.6c-31.5-26.4-71.4-30.8-109.8-25.5c-1.2,3.2-2.8,6.3-5,9c-12.9,16.4-47.7,23.2-68.9,21.1
		c-0.3-2.2,0.1-4,0.7-5.6c-3.2,2.3-6.4,4.4-9.8,6.1c-1.3-0.8-1.2-2.7-1.5-2.9c-3.1,8.5-8.1,17-15.7,22c-1.4-1.1-1.1-1.7-2.3-2.9
		c-5.6,4.7-15.2,9.7-22.8,9.8c-15.4,0.2-10-5.6-19-10.5c-7.3-4-18.3,0.9-15.3-12.2c-7-5.9-9.6-18.4-2.8-24.7l-8.8,1.8
		c-5.2,0.5-8.9-0.3-11.4-2c-14.4,23.7-20.4,56.9-20.4,56.9l8.8,5.2c0,0-14,9.1-22.9,18.2l-7.1,11.8c0-3.4,3-7.6,7.1-11.8l14.1-23.5
		c0,0-49.8,54.6-154.2,78.3c-54.1,12.3-99.3-14.9-160-44.3c32.4-1.8,55.9-4,55.9-4c164.5,26.5,194.5-79.6,194.5-79.6l95-82.6l4-3.5
		l140.3-122l123.6-107.4l0,0l0,0c-0.1-0.1-0.2-0.2-0.4-0.3c-1.4-1.2-2.9-2.3-4.4-3.4c-9.3-7.4-18.8-14.6-28.5-21.5
		c-2.5-1.8-5.1-3.7-7.6-5.4c-5-3.5-10.1-6.8-15.2-10.1c-2.2-1.5-4.5-2.9-6.7-4.3c-5.6-3.5-11.2-7-16.9-10.4c-1-0.6-1.9-1.1-2.9-1.7
		c-27.6-16-56.4-30.1-86.3-42c-0.1,0-0.1-0.1-0.2-0.1c0,0,0,0,0,0c-32.3,36.9-89.2,101.9-146.5,166.7
		C769.5,430,686.4,523,675.2,531.6c-23,17.7-405,38.9-405,38.9c-17.4,29,32.8,37.8,51.6,40c-71.9-0.7-133.5,2.1-184.2,6.9
		c-2.6,11-4.9,22.2-7,33.4c-0.4,2.1-0.7,4.1-1.1,6.2c-1.3,7.4-2.4,14.8-3.4,22.2c-0.7,5.2-1.4,10.3-2,15.5
		c-0.4,3.7-0.8,7.5-1.2,11.3c-0.8,8.3-1.4,16.7-1.9,25.2c-0.1,2.2-0.2,4.3-0.3,6.5c-0.4,9.6-0.7,19.3-0.7,29.1
		c0,9.9,0.3,19.7,0.7,29.5c0.1,2,0.2,3.9,0.3,5.9c0.5,9.2,1.2,18.4,2.1,27.6c0.2,2.3,0.5,4.6,0.7,6.9c0.9,8.1,1.9,16.2,3.1,24.2
		c0.4,2.4,0.7,4.9,1.1,7.3c1.2,7.4,2.5,14.8,4,22.1c0.7,3.4,1.3,6.8,2,10.2c1.6,7.4,3.3,14.8,5.1,22.1c1,4.2,2.2,8.4,3.3,12.5
		c1.1,4.1,2.3,8.2,3.5,12.3c2.2,7.6,4.6,15.2,7.1,22.7c0.9,2.8,1.8,5.5,2.8,8.3c5.9,16.8,12.4,33.3,19.6,49.4
		c0.4,0.8,0.7,1.6,1.1,2.4c1,2.1,2,4.2,3,6.4C180.1,1038.1,180.8,1039.6,181.5,1041.1z M931.7,858.8l7.1,23
		C929.9,880,931.7,858.8,931.7,858.8z M1020.1,849.9L1006,834C1006,834,1027.2,842.9,1020.1,849.9z M1150.5,912.7l-25.2-53.1
		C1125.3,859.7,1197,874.3,1150.5,912.7z M1133.3,906.5c-10.6,0-23-47.8-23-47.8L1133.3,906.5z M1057.7,882.2l-11.9-11.9
		c91.5-69,128.7-33.2,128.7-33.2C1138.6,818.5,1057.7,882.2,1057.7,882.2z M1158.1,701.4c3.5,38.9,3.5,67.2,3.5,67.2
		s-12.4,0-12.4-7.1c0-7.1,0-51.3-8.9-70.7c-8.8-19.5-28.3-47.8-28.3-47.8S1154.5,662.5,1158.1,701.4z M1093.5,766.8l-4-102.1
		C1089.5,664.7,1175.7,693.8,1093.5,766.8z M1069.6,678.4l10.6,81.4C1044.9,738.5,1069.6,678.4,1069.6,678.4z M1128,252.1
		c18.6,0,29.2,15.9,29.2,15.9L817.6,562.5L1128,252.1z M192.4,1051.6l-10.6-53.1c14.1,46,244.1,46,244.1,46L192.4,1051.6z
		 M350.7,628.9l45.1,39.8C356,668.7,350.7,628.9,350.7,628.9z M570.9,965.8l-53,7.1l56.6-145C622.2,820.8,570.9,965.8,570.9,965.8z
		 M677,766.8c-39.8,23.9-257.3-39.8-270.6-90.2c-1.2-4.4-1-8.2,0.1-11.6c1.8,0.3,3.4,0.7,5.2,1c35.4,5.4,86.5,4.8,128,3
		C551.2,673.8,715.4,743.8,677,766.8z M549.6,618.2c0,0-82.2,5.3-145.9,8c-52.4,2.2-72.5-15.4-77.9-21.7c-1-0.7-1.7-1.4-1.7-2.2
		c0,0,0.5,0.9,1.7,2.2C345.7,618.2,549.6,618.2,549.6,618.2z M119.9,769.9c0-0.8,0-1.6,0-2.3c37.2-10.3,127-33.2,125.6-14.9
		L119.9,769.9z"/>
	<path fill="#E9A470" d="M411.7,666c-1.8-0.3-3.5-0.7-5.2-1c-1.1,3.4-1.2,7.2-0.1,11.6C419.6,727,637.2,790.7,677,766.8
		c38.4-23-125.8-93-137.3-97.9C498.2,670.8,447.1,671.4,411.7,666z"/>
	<path fill="#FFFFFE" d="M1058.5,547.6c3.6-0.3,7.2-1.4,9.5-1.7c-11.9-7.9-21.3-12-34.8-14.1c5-0.3,9.7-2.7,13.7-6.3
		c9.8-8.7,15.5-24.4,11.9-34c-4.2-11.2-21-17.7-32.9-15.2c1.1-11.1-29.1-30.8-40.8-29.3c-10.1,17.7-14.7,32-14.3,53.9
		c-2,0.2-11.1-0.4-13.9-1.3c-3-7.9-17.2-38-25.4-14.2c-10.1-1.9-20.3,3.1-20.8,13.8c-3.1-1.2-5.4-1.2-7.2-0.6l-4,3.5
		c-1.2,2-2.1,4.4-3,6.9c-1.9,5.3,2.6,10.5,1.9,15.7c-0.4,2.9-4.7,5.6-5.5,8.6c-2.7,10.4-15.9,36.5-4.2,44.1c2.5,1.6,6.2,2.4,11.4,2
		l8.8-1.8c-6.8,6.3-4.2,18.8,2.8,24.7c-3,13.1,8,8.2,15.3,12.2c9,5,3.5,10.7,19,10.5c7.5-0.1,17.1-5.1,22.8-9.8
		c1.2,1.1,0.9,1.7,2.3,2.9c7.6-5,12.6-13.5,15.7-22c0.3,0.2,0.2,2.1,1.5,2.9c3.4-1.7,6.6-3.9,9.8-6.1c-0.6,1.6-1,3.4-0.7,5.6
		c21.2,2.1,56-4.8,69-21.1c2.1-2.7,3.9-5.8,5.1-9C1074.7,558.9,1072.9,548.9,1058.5,547.6z M979.4,531.6c8.8,0,15.9,7.5,15.9,16.8
		c0,9.3-7.1,16.8-15.9,16.8c-8.8,0-15.9-7.5-15.9-16.8C963.5,539.1,970.6,531.6,979.4,531.6z"/>
	<path fill="#D77D31" d="M979.4,565.2c8.8,0,15.9-7.5,15.9-16.8c0-9.3-7.1-16.8-15.9-16.8c-8.8,0-15.9,7.5-15.9,16.8
		C963.5,557.7,970.6,565.2,979.4,565.2z"/>
	<path fill="#E9A470" d="M574.4,827.8l-56.6,145l53-7.1C570.9,965.8,622.2,820.8,574.4,827.8z"/>
	<path fill="#E9A470" d="M877.8,899.4c-19.1-6.4-43.2-17.5-54-35.3c-19.4-31.8,5.3-152.1,5.3-152.1c-28.3-23-63.7,237-63.7,237
		s17.3-4.6,42.9-5.2C821.9,925.6,846.3,910.1,877.8,899.4z"/>
	<path fill="#387167" d="M1080.2,759.7l-10.6-81.4C1069.6,678.4,1044.9,738.5,1080.2,759.7z"/>
	<path fill="#387167" d="M1149.2,761.5c0,7.1,12.4,7.1,12.4,7.1s0-28.3-3.5-67.2c-3.5-38.9-46-58.4-46-58.4s19.4,28.3,28.3,47.8
		C1149.2,710.2,1149.2,754.4,1149.2,761.5z"/>
	<path fill="#387167" d="M1133.3,906.5l-23-47.8C1110.3,858.8,1122.7,906.5,1133.3,906.5z"/>
	<path fill="#387167" d="M1006,834l14.1,15.9C1027.2,842.9,1006,834,1006,834z"/>
	<path fill="#E9A470" d="M928.1,821.6l33.6,62.4c1.4-0.1,2.9-0.1,4.3-0.1C969.9,837.8,928.1,821.6,928.1,821.6z"/>
	<path fill="#E9A470" d="M938.7,881.8l-7.1-23C931.7,858.8,929.9,880,938.7,881.8z"/>
	<path fill="#387167" d="M1039.6,883.5c0,0-23-33.6-23-12.4l3.2,14.5c1.6,0.2,3.1,0.4,4.7,0.6L1039.6,883.5z"/>
	<path fill="#387167" d="M846.8,669.5l7.1-11.8C849.8,661.9,846.8,666.2,846.8,669.5z"/>
	<path fill="#387167" d="M876.8,639.5l-8.8-5.2l-14.1,23.5C862.8,648.6,876.8,639.5,876.8,639.5z"/>
	<path fill="#E9A470" d="M119.9,767.6c0,0.8,0,1.5,0,2.3l125.5-17.3C246.8,734.4,157.1,757.3,119.9,767.6z"/>
	<path fill="#E9A470" d="M403.7,626.2c63.7-2.7,145.9-8,145.9-8s-204,0-223.8-13.7C331.3,610.8,351.3,628.4,403.7,626.2z"/>
	<path fill="#E9A470" d="M325.8,604.5c-1.2-1.3-1.7-2.2-1.7-2.2C324.1,603.1,324.8,603.8,325.8,604.5z"/>
	<path fill="#E9A470" d="M395.8,668.7l-45.1-39.8C350.7,628.9,356,668.7,395.8,668.7z"/>
	<path fill="#E9A470" d="M1157.2,268.1c0,0-10.6-15.9-29.2-15.9L817.6,562.5L1157.2,268.1z"/>
	<path fill="#CFDBD8" d="M1051.9,1060.4c106.1-28.3,115-86.7,61.9-116.7c-53.1-30.1-194.6,0-198.1,37.1
		c-3.5,37.1,79.6,33.6,123.8,8.8c0,0-83.1,28.3-100.8,1.8c-17.7-26.5,164.5-74.3,183.9-19.5c19.4,54.8-106.1,97.3-164.5,84.9
		c-58.4-12.4-148.5-35.4-109.6-113.2c0,0-35.4,24.8-15.9,65.4C852.1,1049.8,945.8,1088.7,1051.9,1060.4z"/>
	<path fill="#E9A470" d="M1045.7,870.3l11.9,11.9c0,0,80.9-63.7,116.7-45.1C1174.4,837.1,1137.3,801.3,1045.7,870.3z"/>
	<path fill="#E9A470" d="M1089.5,664.7l4,102.1C1175.7,693.8,1089.5,664.7,1089.5,664.7z"/>
	<path fill="#E9A470" d="M1125.3,859.7l25.2,53.1C1197,874.3,1125.3,859.7,1125.3,859.7z"/>
	<path fill="#E9A470" d="M181.8,998.5l10.6,53.1l233.5-7.1C425.9,1044.5,195.9,1044.5,181.8,998.5z"/>
	<path fill="#FFFFFE" d="M1342.9,1040.1c0,0-0.1,0-0.1,0c-376.7,28.1-400.4,283.2-400.8,343c5.2-1.5,10.3-3.2,15.5-4.9
		c2-0.6,4-1.2,6-1.9c1-0.3,2.1-0.6,3.1-1c0,0,0-0.1,0-0.1c38.7-247.9,278.7-315.9,353.8-331.2c13.8-2.8,22-3.9,22.4-3.9
		C1342.8,1040.1,1342.9,1040.1,1342.9,1040.1z"/>
	<path fill="#FFFFFE" d="M239.8,1140.2C239.8,1140.2,239.8,1140.2,239.8,1140.2c5.6-1.2,18.2-3.7,36.2-6.4
		c119.3-18,478.5-44.1,633.8,257.8c3-0.7,5.9-1.6,8.9-2.3c6.2-1.6,12.5-3.1,18.6-4.8c-18.3-59.7-150.6-409.9-697.6-244.4
		c0,0,0,0,0,0C239.7,1140,239.7,1140.1,239.8,1140.2z"/>
	<path fill="#FFFFFE" d="M1017.1,1355.9c1.1-0.5,2.3-1,3.4-1.5l144.6-195l-180.6,209.5l-0.2,0.2l-0.1,0.1c0.4-0.2,0.8-0.3,1.2-0.5
		c3.9-1.5,7.8-3,11.7-4.6c2.3-0.9,4.7-1.8,7-2.8C1008.6,1359.6,1012.9,1357.7,1017.1,1355.9z"/>
	<path fill="#FFFFFE" d="M875.3,1398.6l0.6-0.4l-443-199l371.9,208C828.7,1405.7,852.2,1402.8,875.3,1398.6z"/>
</g>
</svg>
