<?xml version="1.0" encoding="utf-8"?>
<!-- Generator: Adobe Illustrator 18.1.0, SVG Export Plug-In . SVG Version: 6.00 Build 0)  -->
<svg version="1.0" id="Layer_1" xmlns="http://www.w3.org/2000/svg" xmlns:xlink="http://www.w3.org/1999/xlink" x="0px" y="0px"
	 viewBox="0 0 150 150" enable-background="new 0 0 150 150" xml:space="preserve">
<g>
	<g>
		<g>
			<path fill="none" d="M71.3,66.7c2.5,2.7,6.1,0.3,8-1.2C75.7,64.3,72.2,63.2,71.3,66.7z"/>
			<g>
				<path fill="#846353" d="M97.2,68.4c-1.4,2.6-5.8,5-8.3,2.5c10-0.8,21.1-18.2,1.8-16.1c0.5-11-6.4-18.4-17.3-22.2
					C59.8,28,51.1,22.7,50.8,9c-1.7,9.6-1.1,15.5,3.8,21.1c7.6,8.7,26.5,8.7,26.4,21.9C69,50.6,48.7,48,44.7,35.7
					c-1.6,11.3,8.1,16.3,20,20.1c-3.7,5.3-15,12.9-17.4,10.3c-1,2.2-2.3,4-1.8,6.4c2.7,0.7,7.6,2.8,10.4,5
					c-4.3-0.3-7.1-3.7-10.3-2.9c-1,2.5,1.5,3.1,2.1,4.7c15.1-1.5,38.2,18.7,43.1-3.1c0.2,12.6-9.1,15.4-18.9,13.4
					c-0.1,0-0.1,0-0.1,0c-3.7,4.2-3.5,22.2-0.3,29.1c0,0,12.5-21.5,30.7-16.8l0,0c0,0-0.9,0,0,0C102.6,89.8,100.9,77.9,97.2,68.4z
					 M71.3,66.7c0.9-3.5,4.4-2.4,8-1.2C77.4,67,73.8,69.4,71.3,66.7z"/>
			</g>
		</g>
	</g>
	<g>
		<path fill="#006156" d="M77.7,130.5c28.7,0,52.1-23.3,52.1-52.1h-1.1c0,28.1-22.9,51-51,51V130.5z"/>
		<path fill="#006156" d="M136.6,103c0,0-5.4,10.6-15.2,7C121.4,110,125,100.5,136.6,103"/>
		<path fill="#006156" d="M116.5,88.6c0,0,8.5,8.3,2.1,16.6C118.6,105.2,110.6,98.9,116.5,88.6"/>
		<path fill="#006156" d="M127.7,115.5c0,0-6.6,9.9-15.9,5.1C111.8,120.6,116.5,111.6,127.7,115.5"/>
		<path fill="#006156" d="M110.6,98.5c0,0,7.4,9.2,0.2,16.7C110.7,115.1,103.5,108,110.6,98.5"/>
		<path fill="#006156" d="M141.7,88.8c0,0-3.7,11.3-13.9,9.1C127.7,98,129.9,88.1,141.7,88.8"/>
		<path fill="#006156" d="M120.1,76.4c0,0,9.6,7,4.5,16.1C124.7,92.5,115.8,87.4,120.1,76.4"/>
		<path fill="#006156" d="M127.1,57.6c0,0,9.6,9.6,2.2,19C129.2,76.5,120.2,69.3,127.1,57.6"/>
		<path fill="#006156" d="M144.2,74.2c0,0-2.6,11.6-13,10.5C131.2,84.7,132.4,74.6,144.2,74.2"/>
		<path fill="#006156" d="M115.7,127.5c0,0-9.1,7.6-16.7,0.4C99,127.9,106.1,120.6,115.7,127.5"/>
		<path fill="#006156" d="M104.1,106.3c0,0,4.5,11-4.6,16C99.5,122.3,94.7,113.4,104.1,106.3"/>
		<path fill="#006156" d="M100.8,135.1c0,0-10.5,5.6-16.4-2.9C84.4,132.2,92.7,126.4,100.8,135.1"/>
		<path fill="#006156" d="M93.7,112c0,0,2.2,11.7-7.7,14.8C86,126.8,83,117.1,93.7,112"/>
		<path fill="#006156" d="M72.6,130.5c-28.7,0-52.1-23.3-52.1-52.1h1.1c0,28.1,22.9,51,51,51V130.5z"/>
		<path fill="#006156" d="M13.8,103c0,0,5.4,10.6,15.2,7C29,110,25.4,100.5,13.8,103"/>
		<path fill="#006156" d="M33.9,88.6c0,0-8.5,8.3-2.1,16.6C31.8,105.2,39.8,98.9,33.9,88.6"/>
		<path fill="#006156" d="M22.7,115.5c0,0,6.6,9.9,15.9,5.1C38.5,120.6,33.9,111.6,22.7,115.5"/>
		<path fill="#006156" d="M39.8,98.5c0,0-7.4,9.2-0.2,16.7C39.7,115.1,46.8,108,39.8,98.5"/>
		<path fill="#006156" d="M8.7,88.8c0,0,3.7,11.3,13.9,9.1C22.7,98,20.5,88.1,8.7,88.8"/>
		<path fill="#006156" d="M30.3,76.4c0,0-9.6,7-4.5,16.1C25.7,92.5,34.5,87.4,30.3,76.4"/>
		<path fill="#006156" d="M23.3,57.6c0,0-9.6,9.6-2.2,19C21.1,76.5,30.2,69.3,23.3,57.6"/>
		<path fill="#006156" d="M6.1,74.2c0,0,2.6,11.6,13,10.5C19.2,84.7,18,74.6,6.1,74.2"/>
		<path fill="#006156" d="M34.7,127.5c0,0,9.1,7.6,16.7,0.4C51.4,127.9,44.3,120.6,34.7,127.5"/>
		<path fill="#006156" d="M46.2,106.3c0,0-4.5,11,4.6,16C50.9,122.3,55.7,113.4,46.2,106.3"/>
		<path fill="#006156" d="M49.6,135.1c0,0,10.5,5.6,16.4-2.9C66,132.2,57.7,126.4,49.6,135.1"/>
		<path fill="#006156" d="M56.7,112c0,0-2.2,11.7,7.7,14.8C64.4,126.8,67.4,117.1,56.7,112"/>
	</g>
</g>
</svg>
