<?xml version="1.0" encoding="utf-8"?>
<!-- Generator: Adobe Illustrator 18.1.0, SVG Export Plug-In . SVG Version: 6.00 Build 0)  -->
<svg version="1.0" id="Layer_1" xmlns="http://www.w3.org/2000/svg" xmlns:xlink="http://www.w3.org/1999/xlink" x="0px" y="0px"
	 viewBox="0 0 150 150" enable-background="new 0 0 150 150" xml:space="preserve">
<path fill="none" d="M62.1,136.1c1.3,0.3,2.5,0.6,3.8,0.8l0-0.3L62.1,136.1z"/>
<g>
	<path fill="#00B3F0" d="M50.2,61h-0.1c0.1,0.1,0.1,0.2,0.1,0.2V61z"/>
	<path fill="#00B3F0" d="M50.2,120v-0.1h-0.3C50,119.9,50.1,120,50.2,120z"/>
	<path fill="#00B3F0" d="M10.1,80.1c5.7,15.1,16.8,27.7,31.2,35.7V86.9c-3.6,2.7-8,4.3-12.7,4.3C20.7,91.2,13.7,86.9,10.1,80.1z"/>
	<path fill="#00B3F0" d="M5.8,57.2c0,5,0.6,9.8,1.7,14.5h4.4c-0.4-3,0-6,1.2-8.9c1.3-3.3,3.7-6.2,6.8-8.4c2.2-1.5,4.6-2.5,7.1-3.1
		v-0.2v-3.5v-3.9h3.9h8.4v-0.3v-2v-3.9h3.9h30.1V14.8C35.7,16.9,5.8,20.9,5.8,57.2z"/>
	<path fill="#00B3F0" d="M74.5,14.7c-0.2,0-0.4,0-0.6,0C74.1,14.8,74.3,14.8,74.5,14.7L74.5,14.7z"/>
	<path d="M118.9,91.2c-4.9,0-9.5-1.7-13.2-4.7V116v0.2c15.8-8.5,27.8-22.6,33.1-39.4C135.9,85.4,128,91.2,118.9,91.2z"/>
	<path d="M138.9,76.8L138.9,76.8c0,0,0,0,0,0.1C138.8,76.8,138.9,76.8,138.9,76.8z"/>
	<path d="M96.8,61.3c0.1-0.1,0.1-0.2,0.1-0.3h-0.1V61.3z"/>
	<path d="M74.5,14.8c-0.2,0-0.4,0-0.6-0.1c-0.2,0-0.4,0-0.6,0v0.1v22.8h30.5h3.9v3.9v2v0.3h8.4h3.9v3.9v3.5v0.2
		c2.5,0.6,4.9,1.6,7.1,3.1c3.1,2.1,5.5,5.1,6.8,8.4c1.2,2.9,1.5,5.9,1.2,8.9h0.1h5c1.1-4.7,1.7-9.5,1.7-14.5
		C141.9,20.9,112,16.9,74.5,14.8z"/>
	<rect x="54.7" y="128.2" width="18.7" height="2.8"/>
	<rect x="93.5" y="128.2" width="0" height="2.8"/>
	<rect x="104.4" y="55.1" width="0" height="2"/>
	<rect x="43.8" y="55.1" width="29.7" height="2"/>
	<rect x="104.4" y="41.5" width="0" height="2"/>
	<rect x="43.8" y="41.5" width="29.7" height="2"/>
	<rect x="116.7" y="47.6" width="0" height="3.5"/>
	<rect x="31.4" y="47.6" width="42" height="3.5"/>
	<rect x="54.7" y="59.4" width="6.1" height="66.4"/>
	<rect x="65.6" y="59.4" width="6.1" height="66.4"/>
	<rect x="93.5" y="59.4" width="0" height="66.4"/>
	<rect x="82.6" y="59.4" width="0" height="66.4"/>
	<path d="M45.4,60.3c-3.5-4.3-9.4-6.5-15-5.8c-2.8,0.3-5.5,1.4-7.8,3c-2.3,1.6-4.3,3.9-5.4,6.6c-2.2,5.4-0.7,12.1,3.8,16
		c2.3,2,5.3,3,8.3,2.8c3-0.1,5.8-1.5,7.8-3.7c2.1-2.3,2.9-5.4,2.3-8.3c-0.7-2.9-2.6-5.4-5.5-6.3c-2.8-0.9-6,0.1-7.6,2.3
		c-0.9,1.1-1.3,2.5-1.1,3.8c0.1,1.3,0.8,2.4,1.6,3.3c0,0,0,0.1,0.1,0.1c0,0,0-0.1,0-0.1c-1.5-2-1.2-4.8,0.4-6.3c1.6-1.6,4.1-2,6-1.1
		c1.8,0.8,3.1,2.8,3.4,4.8c0.3,2-0.5,4.1-1.9,5.4c-1.5,1.4-3.5,2.2-5.5,2.2c-2,0-4-0.7-5.4-2c-1.5-1.4-2.6-3.2-3-5.2
		c-0.5-2-0.3-4.1,0.5-6c1.4-3.8,5.5-6.5,9.6-7.1c4.2-0.7,8.8,0.8,11.8,4c2.6,2.6,4.3,6,4.9,9.7c0,0.2,0.1,3.1,0.1,3.1h-4.1l-0.5,1.2
		c-2.5,5.4-8,9-14.1,9c-6.5,0-12.4-4.1-14.6-10.2h-1.7c2.3,7,8.9,11.8,16.3,11.8c6.4,0,12.1-3.6,15-9h1.5V116h4.5l0-43.3
		C50.1,68.2,48.4,63.8,45.4,60.3z"/>
	<rect x="102.4" y="78.3" width="0" height="37.7"/>
	<path d="M111.6,71.5c-0.3,2,0.5,4.1,1.9,5.4c1.5,1.4,3.5,2.2,5.5,2.2h0c-2,0-3.9-0.8-5.5-2.2C112.1,75.6,111.4,73.5,111.6,71.5
		c0.2-2,1.6-4,3.4-4.8c0.5-0.2,1-0.4,1.5-0.4c-0.5,0.1-1,0.2-1.5,0.4C113.2,67.5,111.8,69.6,111.6,71.5z"/>
	<path d="M130.9,64.2c2.2,5.4,0.7,12.1-3.8,16c-2.3,2-5.3,3-8.3,2.8l0,0c3,0.2,6-0.8,8.3-2.8C131.6,76.3,133.1,69.6,130.9,64.2
		c-1-2.7-3.1-5.1-5.4-6.6c-2.3-1.6-5-2.7-7.8-3c0,0,0,0,0,0c2.8,0.3,5.5,1.4,7.8,3C127.8,59.1,129.8,61.5,130.9,64.2z"/>
	<path d="M119.5,87.3L119.5,87.3c7.4,0,14-4.8,16.3-11.8h0C133.5,82.5,126.9,87.3,119.5,87.3z"/>
	<path d="M119.5,85.8L119.5,85.8c-6.5,0-12.3-4.2-14.6-10.2h0C107.1,81.6,113,85.8,119.5,85.8z"/>
	<path d="M100.4,72c-0.1,0.3-0.2,3.5-0.2,3.5h0C100.3,75.5,100.4,72.4,100.4,72c0.7-3.5,2.4-6.8,4.9-9.3c2.3-2.4,5.4-3.8,8.6-4.1
		c-3.2,0.3-6.3,1.7-8.7,4.1C102.8,65.2,101.1,68.5,100.4,72z"/>
	<path d="M123,70.8c-0.1,1.3-0.7,2.4-1.6,3.2c0,0,0,0.1-0.1,0.1C122.2,73.3,122.9,72.1,123,70.8c0.1-1.3-0.2-2.7-1.1-3.8
		c-1.2-1.6-3.3-2.6-5.5-2.6c2.1,0,4.2,1,5.5,2.6C122.7,68.1,123.1,69.5,123,70.8z"/>
	<rect x="73.5" y="128.2" fill="#00B3F0" width="20" height="2.8"/>
	<rect x="73.5" y="55.1" fill="#00B3F0" width="31" height="2"/>
	<rect x="73.5" y="41.5" fill="#00B3F0" width="31" height="2"/>
	<rect x="73.5" y="47.6" fill="#00B3F0" width="43.3" height="3.5"/>
	<polygon fill="#00B3F0" points="87.4,59.4 87.4,125.8 87.4,125.8 93.5,125.8 93.5,59.4 87.4,59.4 	"/>
	<polygon fill="#00B3F0" points="76.5,59.4 76.5,125.8 76.5,125.8 82.6,125.8 82.6,59.4 76.5,59.4 	"/>
	<path fill="#00B3F0" d="M119.5,87.3C119.5,87.3,119.5,87.3,119.5,87.3c7.4,0,14-4.8,16.3-11.8h-1.6h0c-2.2,6.1-8,10.2-14.6,10.2h0
		c-6.5,0-12.4-4.1-14.6-10.2h-4.6h0c0,0,0.1-3.2,0.2-3.5c0.7-3.5,2.4-6.8,4.9-9.3c2.3-2.4,5.5-3.8,8.7-4.1c1.1-0.1,2.1-0.1,3.2,0.1
		c4.2,0.6,8.2,3.4,9.6,7.1c0.8,1.9,1,4,0.5,6c-0.4,2-1.5,3.8-3,5.2c-1.4,1.3-3.4,2.1-5.3,2h0c-2,0-4-0.8-5.5-2.2
		c-1.4-1.3-2.1-3.4-1.9-5.4c0.2-2,1.5-4,3.4-4.8c0.5-0.2,1-0.4,1.5-0.4c1.5-0.2,3.2,0.3,4.5,1.5c1.6,1.4,1.9,4.4,0.3,6.3
		c0,0,0.1-0.1,0.1-0.1c0.9-0.8,1.5-2,1.6-3.2c0.1-1.3-0.3-2.7-1.1-3.8c-1.2-1.6-3.3-2.6-5.5-2.6c-0.7,0-1.4,0.1-2.1,0.3
		c-2.9,0.9-4.8,3.4-5.5,6.3c-0.7,2.9,0.2,6,2.3,8.3c1.9,2.1,4.8,3.5,7.8,3.7h0c3,0.2,6-0.8,8.3-2.8c4.5-3.8,6-10.5,3.8-16
		c-1.1-2.7-3.1-5.1-5.4-6.6c-2.3-1.6-5-2.7-7.8-3c-5.6-0.7-11.4,1.5-14.9,5.8c-3,3.4-4.7,7.9-4.9,12.3l0,43.3h0h4.5V78.3h0h2
		C107.4,83.8,113.1,87.3,119.5,87.3z"/>
</g>
</svg>
