<?xml version="1.0" encoding="utf-8"?>
<!-- Generator: Adobe Illustrator 18.1.0, SVG Export Plug-In . SVG Version: 6.00 Build 0)  -->
<svg version="1.1" id="Layer_1" xmlns="http://www.w3.org/2000/svg" xmlns:xlink="http://www.w3.org/1999/xlink" x="0px" y="0px"
	 viewBox="0 0 150 150" enable-background="new 0 0 150 150" xml:space="preserve">
<g>
	<path fill="#B73726" d="M52.1,99.6h37.7l9.9,21.7c7.3-2.8,13.7-6.8,19-11.7L82.2,30c-2.5-0.3-5-0.4-7.5-0.4c-1.9,0-3.7,0.1-5.6,0.2
		l-38.2,80c3.6,3.3,7.7,6.1,12.2,8.5L52.1,99.6z M71.4,59.1l14.4,31.4H56.5L71.4,59.1z"/>
	<path fill="#B73726" d="M146.2,77.8c0-32.6-32.1-59.1-71.6-59.1S3.1,45.2,3.1,77.8c0,16.6,8.3,31.6,21.7,42.3
		c3.8,3.1,8,5.7,12.6,8.1c10.9,5.5,23.6,8.8,37.3,8.8s26.4-3.2,37.3-8.8c4.6-2.3,8.9-5,12.7-8.1C138,109.3,146.2,94.4,146.2,77.8z
		 M122.9,116.2c-5.7,4.8-12.5,8.7-20.1,11.5c-8.6,3.2-18.1,5.1-28.2,5.1c-12.9,0-24.9-3-35.1-8.1c-4.7-2.4-9.1-5.1-12.9-8.3
		c-12-9.9-19.4-23.5-19.4-38.5c0-30.3,30.3-55,67.4-55s67.4,24.7,67.4,55C142.1,92.7,134.8,106.3,122.9,116.2z"/>
	<path fill="#671400" d="M74.7,129.4c9.5,0,18.5-1.8,26.6-5c7.6-2.9,14.3-7.1,19.8-12.1c10-9.1,16.2-21.2,16.2-34.5
		c0-26.4-24.3-48.2-55.4-51.2c-2.4-0.2-4.7-0.4-7.2-0.4c-1.7,0-3.4,0.1-5.2,0.2C37.4,28.7,12,50.8,12,77.8
		c0,13.3,6.2,25.5,16.4,34.7c3.7,3.4,8,6.3,12.7,8.8C50.9,126.4,62.3,129.4,74.7,129.4z M13.4,77.8c0-26.1,24.4-47.5,55.4-49.9
		c1.9-0.1,3.9-0.2,5.8-0.2c2.7,0,5.3,0.2,7.9,0.5c30.1,3.2,53.4,24.2,53.4,49.7c0,12.7-5.9,24.3-15.4,33.2
		c-5.5,5.1-12.2,9.2-19.8,12.2c-7.9,3.1-16.7,4.8-26.1,4.8c-12.1,0-23.4-2.9-32.9-7.9c-4.7-2.5-9-5.5-12.7-8.9
		C19.4,102.3,13.4,90.6,13.4,77.8z"/>
</g>
</svg>
