<?xml version="1.0" encoding="utf-8"?>
<!-- Generator: Adobe Illustrator 18.1.0, SVG Export Plug-In . SVG Version: 6.00 Build 0)  -->
<svg version="1.1" id="Layer_1" xmlns="http://www.w3.org/2000/svg" xmlns:xlink="http://www.w3.org/1999/xlink" x="0px" y="0px"
	 viewBox="0 0 150 150" enable-background="new 0 0 150 150" xml:space="preserve">
<g>
	<polygon fill="none" points="69.7,83.9 76,86.8 76,86.8 83.3,83.6 77,80.7 77,80.8 	"/>
	<polygon fill="none" points="66.8,76.1 59.8,72.9 52.7,76.1 59.8,79.2 	"/>
	<polygon fill="none" points="28.5,55.1 35.5,58.2 42.5,55.1 35.5,52 	"/>
	<polygon fill="none" points="86.9,107.3 93.8,110.4 94,110.3 94,110.3 94,110.1 100.6,107.2 93.9,104.2 	"/>
	<polygon fill="none" points="42.5,102.4 35.5,99.2 28.5,102.4 35.5,105.5 	"/>
	<polygon fill="none" points="28.5,86.6 35.5,89.7 42.5,86.6 35.5,83.5 	"/>
	<polygon fill="none" points="28.5,70.9 35.5,74 42.5,70.9 35.5,67.7 	"/>
	<polygon fill="none" points="86.9,123 93.9,126.1 100.9,123 93.9,119.9 	"/>
	<polygon fill="none" points="76.6,33.3 69.7,36.4 76.6,39.5 83.6,36.4 	"/>
	<polygon fill="none" points="86.9,28.5 93.9,31.6 100.9,28.5 93.9,25.4 	"/>
	<polygon fill="none" points="52.7,91.8 59.8,94.9 66.8,91.8 59.8,88.7 	"/>
	<polygon fill="none" points="76.6,49 69.7,52.1 76.6,55.2 83.6,52.1 	"/>
	<polygon fill="none" points="87,60 93.9,63.1 94,63.1 94,63 94,62.9 100.6,59.9 93.9,56.9 	"/>
	<polygon fill="none" points="86.9,91.5 93.8,94.6 94,94.6 94,94.5 94,94.4 100.6,91.4 93.9,88.4 	"/>
	<polygon fill="none" points="86.9,75.8 93.8,78.9 94,78.8 94,78.8 94,78.6 100.6,75.7 93.9,72.7 	"/>
	<polygon fill="none" points="76.6,64.8 69.7,67.9 76.6,71 83.6,67.9 	"/>
	<polygon fill="none" points="87,44.3 93.9,47.4 100.9,44.3 93.9,41.2 	"/>
	<polygon fill="none" points="111,80.5 104.5,83.5 111.3,86.5 118.4,83.4 111.3,80.2 111,80.3 111,80.4 	"/>
	<polygon fill="none" points="111,64.8 104.5,67.7 111.3,70.7 118.4,67.6 111.3,64.5 111,64.6 111,64.6 	"/>
	<polygon fill="none" points="111,112 104.5,115 111.3,118 118.4,114.9 111.3,111.7 111,111.8 111,111.9 	"/>
	<polygon fill="none" points="111,96.3 104.5,99.2 111.3,102.2 118.4,99.1 111.3,96 111,96.1 111,96.1 	"/>
	<polygon fill="#6EC829" points="83.6,36.4 76.7,33.3 76.6,33.3 83.6,36.4 	"/>
	<polygon fill="#6EC829" points="76.6,23.9 76.6,24 76.6,24 	"/>
	<polygon fill="#00B7E4" points="94,41 94,41.2 93.9,41.2 100.8,44.3 111,39.7 111,39.5 104.1,36.4 94,31.9 	"/>
	<polygon fill="#6EC829" points="83.6,52.1 76.7,49 76.6,49 83.6,52.1 	"/>
	<polygon fill="#00B7E4" points="94,56.7 94,56.9 93.9,56.9 100.7,59.9 111.2,55.3 104.2,52.1 94,47.6 	"/>
	<polygon fill="#6EC829" points="83.6,67.9 76.7,64.8 76.6,64.8 83.6,67.9 	"/>
	<polygon fill="#6EC829" points="111,64.8 111,64.6 111,64.6 104.3,67.6 104.5,67.7 	"/>
	<polygon fill="#00B7E4" points="94,72.5 94,72.7 93.9,72.7 100.7,75.7 101.1,75.5 94,72.4 94,72.2 94,63.4 94,63.4 	"/>
	<polygon fill="#6EC829" points="111,80.5 111,80.4 111,80.3 104.3,83.4 104.5,83.5 	"/>
	<polygon fill="#00B7E4" points="83.3,83.6 76,86.8 76,86.8 77,87.1 77,87.2 86.8,91.5 93.9,88.4 100.7,91.4 101.1,91.2 94,88.1 
		94,87.9 94,79.2 93.7,79.1 	"/>
	<polygon fill="#6EC829" points="111,96.3 111,96.1 111,96.1 104.3,99.1 104.5,99.2 	"/>
	<polygon fill="#6EC829" points="94,94.9 94,94.6 93.8,94.6 86.8,91.5 77,87.2 77,87.2 77,96.4 77,96.5 83.6,99.4 93.8,94.8 	"/>
	<polygon fill="#00B7E4" points="93.9,104.2 100.7,107.2 101.1,107 94,103.9 94,103.7 94,94.9 93.8,94.8 83.3,99.4 76,102.5 
		76,102.7 86.6,107.3 	"/>
	<polygon fill="#6EC829" points="111,112 111,111.9 111,111.8 104.3,114.9 104.5,115 	"/>
	<polygon fill="#6EC829" points="94,110.7 94,110.3 93.8,110.4 86.6,107.3 76,102.7 76,111.9 76,112 83.3,115.2 93.7,110.6 	"/>
	<polygon fill="#00B7E4" points="93.9,119.9 100.9,123 101.3,122.8 94,119.6 94,119.4 94,110.7 93.8,110.6 83.3,115.2 76,118.3 
		76,118.4 86.6,123 	"/>
	<polygon fill="#6EC829" points="100.9,123 93.9,126.1 86.6,123 76,118.4 76,127.6 76,127.8 93.5,135.5 111,127.8 111,127.6 
		111,127.2 101.2,122.8 	"/>
	<polygon fill="#FFCF6D" points="111.5,55.2 111.2,55.3 100.7,59.9 94,62.9 94,63 104.3,67.6 111.2,64.6 111.4,64.5 118.6,67.6 
		129,63 129,62.9 	"/>
	<polygon fill="#FF675D" points="111.4,70.7 104.6,67.7 104.3,67.6 94,63 94,63.1 94,63.4 94,72.2 94,72.4 101.1,75.5 111.4,70.9 
		121.8,75.5 129,72.4 129,72.2 129,63 118.6,67.6 	"/>
	<polygon fill="#FFCF6D" points="101.1,75.5 100.6,75.7 94,78.6 94,78.8 104.3,83.4 111.2,80.3 111.4,80.2 118.6,83.4 129,78.8 
		129,78.6 121.8,75.5 111.5,70.9 	"/>
	<polygon fill="#FF675D" points="111.4,86.5 104.6,83.5 104.3,83.4 94,78.8 94,78.8 94,79.2 94,87.9 94,88.1 101.1,91.2 111.4,86.7 
		121.8,91.2 129,88.1 129,87.9 129,78.8 118.6,83.4 	"/>
	<polygon fill="#FFCF6D" points="101.1,91.2 100.6,91.4 94,94.4 94,94.5 104.3,99.1 111.2,96.1 111.4,96 118.6,99.1 129,94.5 
		129,94.4 121.8,91.2 111.5,86.7 	"/>
	<polygon fill="#FF675D" points="111.4,102.2 104.6,99.2 104.3,99.1 94,94.5 94,94.6 94,94.9 94,103.7 94,103.9 101.1,107 
		111.4,102.4 121.8,107 129,103.9 129,103.7 129,94.5 118.6,99.1 	"/>
	<polygon fill="#FFCF6D" points="101.1,107 100.6,107.2 94,110.1 94,110.3 104.3,114.9 111.2,111.8 111.4,111.7 118.6,114.9 
		129,110.3 129,110.1 121.8,107 111.5,102.4 	"/>
	<polygon fill="#FF675D" points="111.4,118 104.6,115 104.3,114.9 94,110.3 94,110.3 94,110.7 94,119.4 94,119.6 101.3,122.8 
		111.2,127.2 111.5,127.3 129,119.6 129,119.4 129,110.3 118.6,114.9 	"/>
	<polygon fill="#92A86A" points="35.5,105.5 28.4,102.4 18,106.9 18,107.1 35.5,114.8 53,107.1 53,106.9 42.6,102.4 	"/>
	<polygon fill="#6987D8" points="43,96.6 43,96.4 43,96 35.8,99.1 25.3,94.5 18,97.6 18,97.8 18,106.9 28.4,102.4 35.5,99.2 
		42.6,102.4 53,106.9 53,101.2 	"/>
	<polygon fill="#92A86A" points="43,96 43,87.2 43,87.1 43.3,86.8 42.7,86.6 35.6,89.7 28.4,86.6 18,91.2 18,91.4 25.1,94.5 
		35.7,99.1 	"/>
	<polygon fill="#6987D8" points="35.5,83.5 42.5,86.6 43,86.8 49.7,83.9 43,80.8 43,80.6 43,80.2 35.8,83.3 25.3,78.7 18,81.9 
		18,82 18,91.2 28.4,86.6 	"/>
	<polygon fill="#92A86A" points="43,80.2 43,71.5 43,71.3 43.3,71.1 42.7,70.9 35.6,74 28.4,70.9 18,75.4 18,75.6 25.1,78.7 
		35.7,83.3 	"/>
	<polygon fill="#6987D8" points="35.5,67.7 42.5,70.9 43.1,71.1 53,66.7 53,66.3 53,66.1 45.9,63 35.6,67.6 25.1,63 18,66.1 
		18,66.3 18,75.4 28.4,70.9 	"/>
	<polygon fill="#92A86A" points="45.9,63 53,59.9 53,59.7 42.6,55.1 35.6,58.2 28.4,55.1 18,59.7 18,59.9 25.1,63 35.5,67.6 	"/>
	<polygon fill="#6987D8" points="35.5,52 42.6,55.1 53,59.7 53,50.5 53,50.3 35.5,42.7 18,50.3 18,50.5 18,59.7 28.4,55.1 	"/>
	<polygon fill="#C652B4" points="66.7,91.8 59.7,94.9 53,91.8 43,96.4 43,96.6 53.1,101.2 59.9,104.3 77,96.6 77,96.5 77,96.4 	"/>
	<polygon fill="#FFC03B" points="76.6,86.8 70,83.9 59.8,88.5 49.5,83.9 43.3,86.8 43,87.1 43,87.2 43,96 43,96.4 53,91.8 
		59.9,88.7 66.8,91.8 77,96.4 77,87.2 77,87.2 77,87.1 	"/>
	<polygon fill="#C652B4" points="59.8,88.5 70,83.9 77,80.8 77,80.7 77,80.6 66.7,76.1 59.7,79.2 53,76.1 43,80.6 43,80.8 
		49.7,83.9 	"/>
	<polygon fill="#FFC03B" points="43,71.3 43,71.5 43,80.2 43,80.6 53,76.1 59.9,72.9 66.8,76.1 77,80.6 77,80.2 77,80.4 60,72.7 
		60,72.5 60,63.8 53.2,66.7 43.4,71.1 	"/>
	<polygon fill="#00B7E4" points="76.6,33.3 76.7,33.3 83.6,36.4 83.6,36.4 76.6,39.5 76.7,39.5 94,31.8 94,31.6 93.9,31.6 
		86.9,28.5 93.9,25.4 100.8,28.5 111,23.9 111,23.8 93.5,16.1 76,23.8 76,23.9 76.3,24 76.8,24 60,31.6 60,31.8 70,36.4 	"/>
	<polygon fill="#6EC829" points="76.7,39.7 87,44.3 93.9,41.2 94,41.2 94,41 94,31.9 104.1,36.4 111,33.3 111,33.1 111,23.9 
		100.8,28.5 93.9,31.6 94,31.6 94,31.8 76.7,39.5 76.6,39.5 70,36.4 60,31.8 60,41 60,41.2 66.7,44.3 	"/>
	<polygon fill="#00B7E4" points="76.6,49 76.7,49 83.6,52.1 83.6,52.1 76.6,55.2 76.7,55.3 94,47.6 94,47.4 93.9,47.4 87,44.3 
		76.7,39.7 66.7,44.3 60,47.4 60,47.6 70,52.1 	"/>
	<polygon fill="#6EC829" points="76.7,55.4 87,60 93.9,56.9 94,56.9 94,56.7 94,47.6 104.1,52.1 111,49 111,48.9 111,39.7 
		100.8,44.3 93.9,47.4 94,47.4 94,47.6 76.7,55.3 76.6,55.2 70,52.1 60,47.6 60,56.7 60,56.9 66.7,60 	"/>
	<polygon fill="#00B7E4" points="76.6,64.8 76.7,64.8 83.6,67.9 83.6,67.9 76.6,71 76.7,71 94,63.3 94,63.1 93.9,63.1 87,60 
		76.7,55.4 66.7,60 60,63.1 60,63.3 70,67.9 	"/>
	<polygon fill="#6EC829" points="60,72.7 77,80.4 77,80.2 77,80.6 77,80.7 83.6,83.6 93.8,79.1 94,79.2 94,78.8 93.8,78.9 
		86.9,75.8 93.9,72.7 94,72.7 94,72.5 94,63.4 94,63.4 94,63.1 93.9,63.1 94,63.1 94,63.3 76.7,71 76.6,71 70,67.9 60,63.3 60,63.8 
		60,72.5 	"/>
</g>
</svg>
