<?xml version="1.0" encoding="utf-8"?>
<!-- Generator: Adobe Illustrator 16.0.0, SVG Export Plug-In . SVG Version: 6.00 Build 0)  -->
<!DOCTYPE svg PUBLIC "-//W3C//DTD SVG 1.1//EN" "http://www.w3.org/Graphics/SVG/1.1/DTD/svg11.dtd">
<svg version="1.1" id="Layer_1" xmlns="http://www.w3.org/2000/svg" xmlns:xlink="http://www.w3.org/1999/xlink" x="0px" y="0px"
	 width="100px" height="100px" viewBox="0 0 100 100" enable-background="new 0 0 100 100" xml:space="preserve">
<g>
	<path fill="#006838" d="M45.801,14.479c0.063,0.094,0.125,0.184,0.184,0.278c11.476,3.209,21.704,14.824,24.291,28.663
		c3.052,16.318-5.676,29.544-19.488,29.544c-8.665,0-17.267-5.2-23.233-13.109c-2.936-2.095-5.59-5.17-6.562-8.038l-0.013-0.014
		c4.914,16.135,19.067,28.564,33.398,28.564c15.647,0,25.565-14.819,22.146-33.094C73.381,30.476,60.079,16.619,45.801,14.479z"/>
	<path fill="#8BC53F" d="M71.842,44.798c-3.124-16.721-16.838-30.39-31.125-31.42c6.602,1.213,12.913,5.412,17.64,11.346
		c4.265,4.919,7.434,11.154,8.696,17.944c2.954,15.889-5.622,28.77-19.157,28.77s-26.904-12.881-29.862-28.77
		c-0.608-3.295-0.716-6.454-0.394-9.399c-0.537,3.571-0.479,7.457,0.282,11.529c3.254,17.389,17.961,31.487,32.848,31.487
		C65.656,76.285,75.096,62.187,71.842,44.798z"/>
	<path fill="#F9EC31" d="M18.034,42.668c2.958,15.889,16.328,28.77,29.862,28.77s22.111-12.881,19.157-28.77
		c-1.263-6.79-4.432-13.025-8.696-17.944c3.674,4.619,6.396,10.281,7.541,16.404c2.9,15.531-5.402,28.117-18.547,28.117
		c-13.141,0-26.156-12.586-29.057-28.117c-0.609-3.268-0.721-6.405-0.398-9.328c-0.099,0.484-0.184,0.976-0.255,1.468
		C17.318,36.214,17.425,39.373,18.034,42.668z"/>
	<g>
		<linearGradient id="SVGID_1_" gradientUnits="userSpaceOnUse" x1="32.5586" y1="21.2314" x2="38.0415" y2="62.9011">
			<stop  offset="0" style="stop-color:#298B43"/>
			<stop  offset="1" style="stop-color:#15572C"/>
		</linearGradient>
		<path fill="url(#SVGID_1_)" d="M21.758,31.201c-0.121,1.079-0.376,4.252,1.616,3.549c2.583-0.899-0.206-3.155-0.09-3.205
			c0.703-0.322,12.232-4.803,21.855-9.153l-0.465-0.43C34.487,26.139,21.816,30.677,21.758,31.201z"/>
		<linearGradient id="SVGID_2_" gradientUnits="userSpaceOnUse" x1="40.2124" y1="20.2236" x2="45.696" y2="61.8987">
			<stop  offset="0" style="stop-color:#298B43"/>
			<stop  offset="1" style="stop-color:#15572C"/>
		</linearGradient>
		<path fill="url(#SVGID_2_)" d="M36.582,28.771c2.659-1.124,6.186,0.505,10.813,0.895c3.853,0.161-2.041-6.611-3.491-8.33
			c2.318,1.307,7.475,5.049,8.451,7.676c1.396,3.737-4.476,5.294-7.296,4.776c6.213,6.024,4.78,22.732-2.175,33.103
			c1.343-4.874,3.357-11.969,1.316-16.932c-4.104,5.822-6.75,14.04-8.45,20.53c-0.779-7.085,0.591-14.412,3.231-21.059
			c1.889-4.754,4.14-6.606,0.779-11.056C39.097,37.498,33.538,30.055,36.582,28.771z"/>
		<linearGradient id="SVGID_3_" gradientUnits="userSpaceOnUse" x1="38.124" y1="20.5" x2="43.6076" y2="62.1752">
			<stop  offset="0" style="stop-color:#298B43"/>
			<stop  offset="1" style="stop-color:#15572C"/>
		</linearGradient>
		<path fill="url(#SVGID_3_)" d="M40.717,22.441c1.406,1.526,1.611,3.621,0.457,4.682c-1.146,1.061-3.222,0.681-4.628-0.846
			c-1.405-1.531-1.611-3.63-0.457-4.686C37.235,20.535,39.312,20.916,40.717,22.441z"/>
	</g>
</g>
</svg>
