<?xml version="1.0" encoding="utf-8"?>
<!-- Generator: Adobe Illustrator 16.0.0, SVG Export Plug-In . SVG Version: 6.00 Build 0)  -->
<!DOCTYPE svg PUBLIC "-//W3C//DTD SVG 1.1//EN" "http://www.w3.org/Graphics/SVG/1.1/DTD/svg11.dtd">
<svg version="1.1" id="Layer_1" xmlns="http://www.w3.org/2000/svg" xmlns:xlink="http://www.w3.org/1999/xlink" x="0px" y="0px"
	 width="100px" height="100px" viewBox="0 0 100 100" enable-background="new 0 0 100 100" xml:space="preserve">
<g>
	<g>
		<path fill="#F48120" d="M70.376,40.063c-0.314,1.044-0.984,1.991-1.833,2.753c-0.858,0.757-1.889,1.303-2.937,1.702
			c-2.111,0.789-4.29,1.056-6.376,1.294c-2.088,0.238-4.139,0.388-5.994,0.952c-0.923,0.284-1.79,0.69-2.538,1.306
			c-0.769,0.601-1.362,1.449-1.872,2.408c0.027-1.085,0.386-2.192,1.061-3.149c0.674-0.959,1.656-1.687,2.688-2.195
			c2.092-1.001,4.309-1.299,6.407-1.542c2.111-0.234,4.174-0.349,6.126-0.753C67.061,42.449,68.912,41.692,70.376,40.063z"/>
		<path fill="#F48120" d="M66.023,34.021c-0.11,0.943-0.56,1.856-1.192,2.629c-0.638,0.771-1.455,1.377-2.309,1.854
			c-1.721,0.955-3.558,1.452-5.313,1.902c-1.755,0.452-3.482,0.81-4.987,1.478c-0.752,0.34-1.44,0.764-2.019,1.355
			c-0.583,0.588-1.025,1.36-1.377,2.239c-0.133-0.934,0.01-1.945,0.469-2.86c0.463-0.92,1.22-1.685,2.046-2.256
			c1.684-1.14,3.554-1.665,5.32-2.122c1.778-0.452,3.521-0.782,5.142-1.33C63.413,36.365,64.904,35.562,66.023,34.021z"/>
		<path fill="#F48120" d="M61.803,29.079c0.068,0.821-0.151,1.69-0.574,2.455c-0.422,0.769-1.027,1.425-1.684,1.968
			c-1.328,1.092-2.826,1.794-4.254,2.434c-1.427,0.64-2.835,1.181-4.015,1.939c-0.587,0.376-1.11,0.816-1.527,1.383
			c-0.427,0.567-0.712,1.273-0.913,2.072c-0.282-0.769-0.331-1.666-0.088-2.533c0.248-0.872,0.78-1.656,1.404-2.275
			c1.275-1.249,2.795-1.982,4.235-2.632c1.447-0.64,2.877-1.163,4.171-1.837C59.853,31.382,61.009,30.536,61.803,29.079z"/>
		<path fill="#F48120" d="M60.026,26.124c0.095,0.716-0.078,1.486-0.436,2.163c-0.355,0.684-0.879,1.264-1.445,1.755
			c-1.149,0.973-2.445,1.59-3.676,2.14c-1.233,0.553-2.44,1.005-3.452,1.625c-0.505,0.312-0.954,0.667-1.328,1.136
			c-0.377,0.466-0.647,1.067-0.856,1.759c-0.275-0.663-0.342-1.452-0.14-2.223c0.197-0.769,0.661-1.468,1.202-2.023
			c1.105-1.11,2.428-1.76,3.668-2.317c1.253-0.555,2.482-0.996,3.596-1.546C58.273,28.035,59.274,27.367,60.026,26.124z"/>
		<path fill="#F48120" d="M55.741,21.049c0.296,0.555,0.396,1.232,0.333,1.895c-0.064,0.667-0.301,1.317-0.606,1.895
			c-0.626,1.161-1.498,2.064-2.352,2.863c-0.855,0.803-1.721,1.496-2.475,2.237c-0.753,0.746-1.397,1.535-1.811,2.732
			c-0.271-0.569-0.344-1.246-0.257-1.906c0.087-0.663,0.335-1.298,0.651-1.87c0.643-1.141,1.519-2.035,2.367-2.829
			c0.854-0.796,1.712-1.489,2.446-2.241C54.773,23.077,55.386,22.265,55.741,21.049z"/>
		<path fill="#F48120" d="M53.701,18.422c0.347,0.436,0.53,1.007,0.576,1.594c0.041,0.587-0.064,1.18-0.243,1.726
			c-0.372,1.099-1.005,2.005-1.647,2.794c-0.646,0.799-1.335,1.478-1.959,2.164c-0.626,0.69-1.202,1.333-1.583,2.379
			c-0.294-0.482-0.386-1.079-0.344-1.661c0.041-0.585,0.216-1.147,0.438-1.656c0.457-1.026,1.095-1.872,1.719-2.643
			c0.633-0.766,1.269-1.45,1.811-2.161C53.011,20.246,53.461,19.512,53.701,18.422z"/>
	</g>
	<g>
		<path fill="#F48120" d="M27.282,40.063c1.461,1.629,3.315,2.386,5.265,2.775c1.955,0.404,4.015,0.519,6.126,0.753
			c2.101,0.243,4.317,0.541,6.407,1.542c1.03,0.509,2.015,1.236,2.691,2.195c0.672,0.957,1.029,2.064,1.055,3.149
			c-0.505-0.959-1.101-1.808-1.867-2.408c-0.753-0.615-1.615-1.021-2.542-1.306c-1.854-0.564-3.904-0.714-5.992-0.952
			c-2.083-0.238-4.263-0.505-6.375-1.294c-1.049-0.399-2.079-0.945-2.935-1.702C28.266,42.055,27.592,41.107,27.282,40.063z"/>
		<path fill="#F48120" d="M31.629,34.021c1.124,1.542,2.613,2.345,4.226,2.889c1.619,0.548,3.363,0.878,5.139,1.33
			c1.769,0.457,3.639,0.982,5.32,2.122c0.828,0.571,1.585,1.336,2.044,2.256c0.464,0.915,0.605,1.927,0.468,2.86
			c-0.349-0.879-0.789-1.651-1.372-2.239c-0.58-0.592-1.266-1.016-2.019-1.355c-1.51-0.668-3.234-1.025-4.987-1.478
			c-1.758-0.45-3.598-0.947-5.316-1.902c-0.853-0.477-1.67-1.082-2.31-1.854C32.191,35.876,31.744,34.963,31.629,34.021z"/>
		<path fill="#F48120" d="M35.853,29.079c0.797,1.457,1.95,2.303,3.242,2.973c1.296,0.674,2.726,1.197,4.175,1.837
			c1.437,0.649,2.96,1.383,4.235,2.632c0.619,0.619,1.156,1.403,1.399,2.275c0.248,0.867,0.197,1.765-0.082,2.533
			c-0.204-0.799-0.491-1.505-0.916-2.072c-0.415-0.566-0.938-1.007-1.527-1.383c-1.178-0.758-2.588-1.299-4.018-1.939
			c-1.425-0.64-2.92-1.342-4.249-2.434c-0.656-0.543-1.264-1.2-1.688-1.968C36.004,30.77,35.782,29.9,35.853,29.079z"/>
		<path fill="#F48120" d="M37.626,26.124c0.753,1.243,1.753,1.911,2.868,2.468c1.115,0.551,2.345,0.991,3.597,1.546
			c1.244,0.558,2.565,1.207,3.671,2.317c0.539,0.555,1.003,1.255,1.202,2.023c0.2,0.771,0.134,1.56-0.142,2.223
			c-0.212-0.692-0.478-1.293-0.856-1.759c-0.374-0.468-0.823-0.824-1.328-1.136c-1.014-0.62-2.221-1.071-3.45-1.625
			c-1.229-0.55-2.528-1.167-3.676-2.14c-0.568-0.491-1.092-1.071-1.449-1.755C37.709,27.61,37.534,26.84,37.626,26.124z"/>
		<path fill="#F48120" d="M41.914,21.049c0.355,1.216,0.966,2.028,1.705,2.776c0.731,0.752,1.59,1.445,2.442,2.241
			c0.85,0.794,1.724,1.688,2.368,2.829c0.316,0.571,0.562,1.207,0.651,1.87c0.09,0.661,0.017,1.337-0.257,1.906
			c-0.411-1.197-1.058-1.987-1.811-2.732c-0.752-0.741-1.619-1.434-2.475-2.237c-0.852-0.798-1.728-1.702-2.352-2.863
			c-0.306-0.578-0.542-1.228-0.606-1.895C41.518,22.281,41.618,21.604,41.914,21.049z"/>
		<path fill="#F48120" d="M43.953,18.422c0.239,1.09,0.693,1.824,1.237,2.535c0.539,0.711,1.177,1.395,1.806,2.161
			c0.626,0.771,1.264,1.617,1.721,2.643c0.222,0.509,0.396,1.071,0.44,1.656c0.039,0.583-0.053,1.179-0.345,1.661
			c-0.383-1.046-0.959-1.689-1.585-2.379c-0.622-0.686-1.314-1.365-1.959-2.164c-0.646-0.789-1.273-1.695-1.647-2.794
			c-0.179-0.546-0.284-1.138-0.241-1.726C43.424,19.43,43.609,18.858,43.953,18.422z"/>
	</g>
	<path fill="#37B34A" d="M47.151,61.849c1.879-2.257,3.618-4.615,5.605-6.813c0.995-1.095,2.053-2.147,3.204-3.106
		c1.152-0.959,2.409-1.803,3.74-2.523c2.666-1.445,5.634-2.275,8.609-2.68c2.985-0.422,5.995-0.432,8.964-0.238l0.993,0.066
		l-0.075,1.012c-0.255,3.533-0.776,7.162-2.437,10.528c-0.828,1.667-2.001,3.243-3.506,4.443c-0.748,0.602-1.569,1.108-2.418,1.523
		c-0.849,0.413-1.729,0.729-2.611,0.991c-1.766,0.516-3.537,0.803-5.271,1.066c-1.732,0.26-3.441,0.505-5.106,0.835
		c-1.666,0.326-3.293,0.762-4.827,1.393c-1.537,0.629-2.974,1.464-4.272,2.487l-1.312-1.314c1.629-1.904,3.326-3.749,5.127-5.499
		c1.801-1.748,3.719-3.382,5.74-4.868c2.028-1.482,4.189-2.79,6.472-3.834c2.29-1.025,4.722-1.775,7.204-1.966
		c-1.223,0.22-2.411,0.58-3.561,1.022c-1.152,0.437-2.263,0.964-3.336,1.556c-2.159,1.17-4.159,2.606-6.052,4.157
		c-1.896,1.551-3.662,3.26-5.351,5.038c-1.688,1.775-3.28,3.647-4.802,5.575l-1.31-1.313c1.401-1.184,2.994-2.146,4.671-2.879
		c1.675-0.737,3.425-1.248,5.171-1.632c3.494-0.766,7.009-1,10.182-1.95c1.576-0.479,3.047-1.151,4.278-2.124
		c1.234-0.968,2.212-2.246,2.948-3.689c0.739-1.445,1.234-3.042,1.615-4.675c0.379-1.643,0.615-3.327,0.773-5.034l0.92,1.079
		c-1.437-0.129-2.877-0.207-4.313-0.214c-1.436-0.019-2.872,0.025-4.295,0.172c-2.84,0.278-5.639,0.945-8.215,2.152
		c-2.581,1.207-4.889,2.969-6.986,4.987C51.21,57.591,49.258,59.803,47.151,61.849z"/>
	<path fill="#37B34A" d="M47.151,61.854c-1.851-1.775-3.569-3.696-5.414-5.438c-1.84-1.753-3.858-3.275-6.107-4.317
		c-2.244-1.037-4.676-1.61-7.151-1.849c-1.237-0.12-2.485-0.156-3.735-0.138c-1.253,0.007-2.508,0.08-3.76,0.192l0.922-1.078
		c0.138,1.486,0.349,2.955,0.679,4.377c0.333,1.423,0.762,2.809,1.404,4.052c0.633,1.248,1.478,2.345,2.537,3.178
		c1.06,0.832,2.327,1.41,3.694,1.828c2.744,0.826,5.815,1.032,8.879,1.707c1.527,0.337,3.064,0.789,4.537,1.438
		c1.474,0.649,2.875,1.493,4.106,2.539l-1.312,1.317c-1.321-1.688-2.705-3.322-4.176-4.878c-1.466-1.553-2.996-3.051-4.646-4.409
		c-1.646-1.358-3.382-2.62-5.261-3.654c-0.931-0.521-1.899-0.986-2.902-1.374c-1-0.396-2.033-0.714-3.1-0.918
		c2.17,0.151,4.304,0.794,6.309,1.679c2.003,0.904,3.9,2.042,5.681,3.332c1.773,1.294,3.457,2.714,5.037,4.239
		c1.579,1.523,3.072,3.139,4.499,4.797l-1.31,1.314c-1.129-0.885-2.375-1.604-3.707-2.147c-1.333-0.543-2.744-0.917-4.194-1.199
		c-1.45-0.287-2.938-0.498-4.455-0.723c-1.519-0.229-3.07-0.479-4.623-0.937c-1.551-0.444-3.113-1.145-4.439-2.223
		c-1.331-1.063-2.368-2.452-3.1-3.926c-1.463-2.969-1.911-6.157-2.131-9.25l-0.073-1.009l0.991-0.064
		c2.602-0.17,5.24-0.156,7.853,0.223c2.608,0.359,5.21,1.099,7.545,2.376c1.165,0.634,2.262,1.379,3.27,2.224
		c1.005,0.844,1.925,1.773,2.792,2.734C44.022,57.802,45.527,59.871,47.151,61.854z"/>
	<path fill="#37B34A" d="M82.335,72.734c-2.134-0.021-4.226-0.075-6.325-0.082c-2.099-0.007-4.191,0.016-6.278,0.114
		c-2.084,0.104-4.171,0.269-6.231,0.599c-1.027,0.166-2.051,0.374-3.051,0.666c-1.003,0.293-1.989,0.658-2.882,1.225
		c0.805-0.688,1.757-1.204,2.726-1.647c0.973-0.436,1.982-0.798,3.005-1.114c2.04-0.634,4.13-1.102,6.222-1.505
		c2.098-0.399,4.203-0.723,6.31-1.015c2.104-0.293,4.221-0.541,6.286-0.812c0.984-0.134,1.886,0.558,2.017,1.541
		c0.131,0.979-0.558,1.886-1.542,2.015C82.51,72.728,82.416,72.734,82.335,72.734z"/>
	<path fill="#37B34A" d="M85.088,79.677c-1.813-0.029-3.629-0.204-5.377-0.431c-1.758-0.228-3.465-0.505-5.171-0.695
		c-1.703-0.197-3.407-0.303-5.126-0.239c-1.716,0.06-3.441,0.285-5.144,0.656c1.618-0.656,3.3-1.182,5.034-1.541
		c1.734-0.37,3.512-0.561,5.281-0.666c1.771-0.103,3.528-0.124,5.244-0.197c1.721-0.071,3.386-0.199,5.043-0.461
		c0.981-0.153,1.899,0.519,2.053,1.498c0.154,0.982-0.516,1.902-1.498,2.056c-0.101,0.014-0.199,0.021-0.298,0.021H85.088z"/>
	<path fill="#37B34A" d="M16.804,65.134c4.483,1.228,9.037,2.365,13.559,3.639c4.524,1.269,9.028,2.652,13.449,4.274
		c4.419,1.622,8.764,3.48,12.894,5.737c4.125,2.258,8.052,4.929,11.397,8.204c-3.547-3.056-7.597-5.439-11.802-7.405
		c-4.212-1.964-8.601-3.52-13.052-4.839c-4.453-1.318-8.975-2.397-13.528-3.36c-4.552-0.978-9.138-1.817-13.747-2.77
		c-0.968-0.199-1.594-1.145-1.395-2.112c0.202-0.971,1.147-1.593,2.115-1.393C16.731,65.116,16.772,65.125,16.804,65.134z"/>
	<path fill="#37B34A" d="M15.799,75.853c0.886-0.014,1.684,0.023,2.501,0.058c0.814,0.039,1.62,0.089,2.427,0.145
		c1.61,0.114,3.216,0.266,4.817,0.436c3.201,0.352,6.387,0.801,9.549,1.386c3.159,0.592,6.3,1.313,9.369,2.262
		c3.061,0.959,6.084,2.125,8.796,3.82c-2.856-1.43-5.928-2.292-9.021-2.953c-3.1-0.651-6.242-1.068-9.39-1.354
		c-3.15-0.284-6.309-0.436-9.468-0.481c-1.578-0.022-3.159-0.019-4.733,0.016c-0.785,0.019-1.571,0.044-2.352,0.081
		c-0.771,0.036-1.569,0.078-2.273,0.158c-0.984,0.112-1.872-0.599-1.98-1.581c-0.11-0.981,0.599-1.872,1.581-1.982
		c0.057-0.004,0.112-0.009,0.167-0.009H15.799z"/>
	<path fill="#F48120" d="M48.829,24.757c-0.462-0.716-0.705-1.434-0.874-2.147c-0.166-0.716-0.241-1.437-0.243-2.152
		c-0.005-0.716,0.073-1.432,0.238-2.152c0.17-0.715,0.413-1.431,0.879-2.147c0.466,0.716,0.709,1.432,0.878,2.147
		c0.166,0.721,0.243,1.437,0.239,2.152c0,0.715-0.078,1.436-0.241,2.152C49.531,23.323,49.29,24.041,48.829,24.757z"/>
</g>
</svg>
