<?xml version="1.0" encoding="utf-8"?>
<!-- Generator: Adobe Illustrator 14.0.0, SVG Export Plug-In . SVG Version: 6.00 Build 43363)  -->
<!DOCTYPE svg PUBLIC "-//W3C//DTD SVG 1.1//EN" "http://www.w3.org/Graphics/SVG/1.1/DTD/svg11.dtd">
<svg version="1.1" id="Layer_1" xmlns="http://www.w3.org/2000/svg" xmlns:xlink="http://www.w3.org/1999/xlink" x="0px" y="0px"
	 width="100px" height="100px" viewBox="0 0 100 100" enable-background="new 0 0 100 100" xml:space="preserve">
<g>
	<g>
		<g>
			<path fill="#6FC6B1" d="M20.877,31.427c-4.231-5.633-6.434-13.912-0.518-15.191c6.186-1.338,6.991,6.751,3.321,14.952
				C21.513,31.604,20.877,31.427,20.877,31.427z"/>
		</g>
		<g>
			<path fill="#6FC6B1" d="M22.981,30.752c2.767-6.477,8.835-12.522,12.899-8.035c4.25,4.69-2.355,9.428-11.293,10.347
				C23.146,31.392,22.981,30.752,22.981,30.752z"/>
		</g>
		<g>
			<path fill="#6FC6B1" d="M24.614,32.244c6.995-0.84,15.267,1.394,13.409,7.156c-1.94,6.025-9.346,2.673-14.603-4.612
				C24.143,32.699,24.614,32.244,24.614,32.244z"/>
		</g>
		<g>
			<path fill="#6FC6B1" d="M24.143,34.399c4.224,5.641,6.414,13.919,0.499,15.191c-6.19,1.327-6.983-6.764-3.301-14.956
				C23.511,34.219,24.143,34.399,24.143,34.399z"/>
		</g>
		<g>
			<path fill="#6FC6B1" d="M22.039,35.069c-2.775,6.474-8.855,12.507-12.911,8.017c-4.247-4.698,2.367-9.425,11.309-10.328
				C21.878,34.431,22.039,35.069,22.039,35.069z"/>
		</g>
		<g>
			<path fill="#6FC6B1" d="M20.41,33.578c-6.999,0.829-15.261-1.42-13.396-7.179c1.947-6.025,9.346-2.654,14.598,4.639
				C20.881,33.12,20.41,33.578,20.41,33.578z"/>
		</g>
	</g>
	<g>
		<g>
			<path fill="#6FC6B1" d="M52.316,20.24c-4.232-5.633-6.438-13.912-0.523-15.188C57.98,3.71,58.789,11.801,55.118,20
				C52.947,20.417,52.316,20.24,52.316,20.24z"/>
		</g>
		<g>
			<path fill="#6FC6B1" d="M54.415,19.565c2.771-6.477,8.84-12.522,12.903-8.036c4.25,4.691-2.355,9.429-11.294,10.348
				C54.581,20.205,54.415,19.565,54.415,19.565z"/>
		</g>
		<g>
			<path fill="#6FC6B1" d="M56.052,21.057c6.992-0.84,15.262,1.394,13.406,7.156c-1.939,6.029-9.343,2.673-14.603-4.612
				C55.581,21.512,56.052,21.057,56.052,21.057z"/>
		</g>
		<g>
			<path fill="#6FC6B1" d="M55.581,23.212c4.221,5.641,6.414,13.919,0.495,15.19c-6.19,1.328-6.984-6.763-3.302-14.955
				C54.946,23.031,55.581,23.212,55.581,23.212z"/>
		</g>
		<g>
			<path fill="#6FC6B1" d="M53.474,23.883c-2.771,6.473-8.855,12.506-12.911,8.016C36.32,27.2,42.935,22.474,51.871,21.57
				C53.312,23.243,53.474,23.883,53.474,23.883z"/>
		</g>
		<g>
			<path fill="#6FC6B1" d="M51.844,22.391c-6.994,0.829-15.261-1.421-13.396-7.18c1.951-6.025,9.351-2.653,14.598,4.64
				C52.316,21.932,51.844,22.391,51.844,22.391z"/>
		</g>
	</g>
	<g>
		<path fill="#4E61AB" d="M34.502,93.424c6.972,0.232,11.301-8.604,9.582-15.808c-1.72-7.203-0.754-14.613,0.949-22.472
			c1.705-7.855,1.457-15.945-4.042-22.084c0,0-3.721-3.184-8.684-2.41l-0.172-0.09c-5.005-0.385-8.471,3.082-8.471,3.082
			c-5.001,6.543-4.616,14.63-2.308,22.331c2.308,7.702,3.851,15.014,2.696,22.331c-1.154,7.316,3.847,15.784,10.779,15.015
			L34.502,93.424z"/>
	</g>
	<g>
		<path fill="#FFFFFF" d="M34.671,92.184c-0.086,0-0.172,0-0.259,0l0,0L34.4,92.109c-0.055,0.004-0.11,0.004-0.161,0.008l0,0l0,0
			l-0.028-0.656c0.161-0.008,0.322-0.02,0.487-0.039l0,0l0.023,0.106c0.436-0.007,0.86-0.048,1.272-0.125l0,0l0.125,0.647
			c-0.463,0.086-0.938,0.133-1.429,0.133l0,0C34.69,92.184,34.679,92.184,34.671,92.184L34.671,92.184z M30.887,91.509l0.26-0.604
			c0.479,0.204,0.98,0.357,1.499,0.451l0,0L32.528,92C31.963,91.897,31.413,91.732,30.887,91.509L30.887,91.509z M37.493,90.936
			c0.479-0.203,0.935-0.467,1.367-0.776l0,0l0.385,0.541c-0.471,0.329-0.966,0.612-1.488,0.841l0,0L37.493,90.936L37.493,90.936z
			 M28.068,89.617L28.068,89.617l0.459-0.476c0.385,0.377,0.797,0.711,1.229,1.005l0,0l-0.37,0.542
			C28.924,90.378,28.485,90.017,28.068,89.617L28.068,89.617z M40.535,89.593l-0.471-0.463c0.368-0.373,0.711-0.781,1.024-1.221l0,0
			l0.538,0.385C41.289,88.762,40.928,89.193,40.535,89.593L40.535,89.593L40.535,89.593L40.535,89.593z M26.003,86.955l0.566-0.33
			c0.274,0.468,0.573,0.911,0.895,1.328l0,0l-0.522,0.404C26.601,87.917,26.287,87.446,26.003,86.955L26.003,86.955z M41.933,86.547
			c0.247-0.467,0.468-0.954,0.664-1.459l0,0l0.612,0.235c-0.2,0.529-0.436,1.044-0.698,1.534l0,0L41.933,86.547L41.933,86.547z
			 M24.662,83.873L24.662,83.873l0.627-0.191c0.157,0.518,0.346,1.021,0.558,1.507l0,0l-0.604,0.263
			C25.023,84.941,24.826,84.412,24.662,83.873L24.662,83.873z M43.723,83.721l-0.636-0.164c0.133-0.515,0.235-1.045,0.313-1.574l0,0
			l0.652,0.09C43.974,82.63,43.864,83.184,43.723,83.721L43.723,83.721L43.723,83.721L43.723,83.721z M24.042,80.573l0.655-0.051
			c0.039,0.537,0.11,1.066,0.208,1.598l0,0l-0.647,0.117C24.155,81.688,24.081,81.13,24.042,80.573L24.042,80.573z M44.197,80.396
			l-0.654-0.02c0.003-0.141,0.007-0.285,0.007-0.427l0,0c0-0.393-0.015-0.789-0.051-1.174l0,0l0.656-0.06
			c0.034,0.409,0.05,0.821,0.05,1.233l0,0c0,0.148,0,0.298-0.008,0.451l0,0V80.396L44.197,80.396z M24.018,78.885
			c0.02-0.482,0.071-0.97,0.149-1.448l0,0c0.012-0.075,0.02-0.145,0.032-0.22l0,0v0.004l0.652,0.094
			c-0.012,0.075-0.02,0.149-0.036,0.225l0,0c-0.071,0.454-0.118,0.914-0.137,1.378l0,0L24.018,78.885L24.018,78.885z M43.2,76.91
			c-0.105-0.443-0.204-0.891-0.285-1.338l0,0l0.643-0.126c0.086,0.439,0.181,0.875,0.282,1.314l0,0
			c0.024,0.095,0.044,0.188,0.063,0.287l0,0h0.004l-0.648,0.137C43.244,77.096,43.225,77.001,43.2,76.91L43.2,76.91z M24.395,75.604
			c0.051-0.542,0.086-1.083,0.11-1.625l0,0l0,0l0.66,0.027c-0.023,0.554-0.063,1.107-0.114,1.661l0,0L24.395,75.604L24.395,75.604z
			 M42.463,72.278l0.655-0.059c0.043,0.541,0.106,1.08,0.182,1.621l0,0l-0.652,0.091C42.569,73.378,42.506,72.827,42.463,72.278
			L42.463,72.278z M24.48,70.72v-0.003l0.66-0.032c0.031,0.55,0.047,1.107,0.05,1.661l0,0l-0.659,0.003
			C24.528,71.808,24.512,71.263,24.48,70.72L24.48,70.72z M42.334,69.15c0-0.063,0-0.127,0-0.193l0,0l0.655,0.005
			c0,0.062,0,0.125,0,0.188l0,0c0,0.479,0.007,0.961,0.026,1.444l0,0l-0.654,0.023C42.342,70.128,42.334,69.641,42.334,69.15
			L42.334,69.15z M24.175,67.467l0.651-0.083c0.075,0.549,0.137,1.095,0.188,1.645l0,0l-0.652,0.063
			C24.308,68.55,24.245,68.012,24.175,67.467L24.175,67.467z M43.028,67.329l-0.656-0.028c0.023-0.55,0.056-1.099,0.103-1.652l0,0
			l0.656,0.051c-0.044,0.547-0.075,1.092-0.099,1.63l0,0H43.028L43.028,67.329z M23.633,64.243l0.644-0.129
			c0.109,0.541,0.212,1.086,0.302,1.629l0,0l-0.647,0.109C23.837,65.315,23.743,64.781,23.633,64.243L23.633,64.243z M43.283,64.07
			h0.004H43.283L43.283,64.07z M42.632,64.001c0.059-0.547,0.125-1.096,0.203-1.646l0,0l0.652,0.095
			c-0.074,0.542-0.141,1.084-0.204,1.621l0,0L42.632,64.001L42.632,64.001z M22.911,61.044L22.911,61.044l0.64-0.157
			c0.133,0.538,0.263,1.072,0.381,1.605l0,0l-0.636,0.146C23.174,62.107,23.048,61.578,22.911,61.044L22.911,61.044z M43.727,60.828
			l-0.647-0.105c0.086-0.542,0.18-1.084,0.282-1.63l0,0l0.647,0.118c-0.098,0.541-0.191,1.08-0.277,1.617l0,0H43.727L43.727,60.828z
			 M22.059,57.877L22.059,57.877l0.632-0.182c0.153,0.53,0.302,1.061,0.443,1.591l0,0l-0.636,0.172
			C22.353,58.933,22.208,58.406,22.059,57.877L22.059,57.877z M43.668,57.473c0.11-0.539,0.22-1.076,0.338-1.613l0,0l0.643,0.137
			c-0.113,0.533-0.223,1.071-0.333,1.605l0,0L43.668,57.473L43.668,57.473z M21.148,54.7L21.148,54.7l0.636-0.161
			c0.141,0.522,0.287,1.049,0.44,1.57l0,0l-0.628,0.189C21.435,55.769,21.286,55.234,21.148,54.7L21.148,54.7z M44.335,54.249
			c0.103-0.533,0.196-1.067,0.274-1.609l0,0l0.648,0.098c-0.078,0.547-0.169,1.093-0.271,1.638l0,0L44.335,54.249L44.335,54.249z
			 M20.457,51.455l0.647-0.106c0.087,0.533,0.188,1.067,0.307,1.602l0,0l-0.644,0.138C20.649,52.546,20.548,52,20.457,51.455
			L20.457,51.455z M44.814,51.026c0.055-0.546,0.094-1.087,0.125-1.625l0,0l0.655,0.032c-0.027,0.554-0.069,1.105-0.129,1.656l0,0
			L44.814,51.026L44.814,51.026z M20.084,48.153l0.656-0.035c0.031,0.533,0.078,1.075,0.137,1.617l0,0l-0.652,0.075
			C20.159,49.257,20.116,48.703,20.084,48.153L20.084,48.153z M44.92,46.147l0.659-0.044c0.035,0.554,0.055,1.107,0.055,1.665l0,0
			l-0.655,0.004C44.975,47.23,44.959,46.686,44.92,46.147L44.92,46.147z M20.045,46.485c0.007-0.559,0.031-1.115,0.078-1.664l0,0
			l0.651,0.051c-0.039,0.533-0.066,1.079-0.07,1.621l0,0L20.045,46.485L20.045,46.485z M44.477,42.937l0.645-0.138
			c0.117,0.542,0.211,1.092,0.286,1.645l0,0l-0.651,0.091C44.681,43.996,44.59,43.466,44.477,42.937L44.477,42.937z M45.407,44.443
			v0.005V44.443L45.407,44.443z M20.32,43.156c0.09-0.545,0.2-1.094,0.337-1.636l0,0l0,0l0.636,0.161
			c-0.129,0.522-0.235,1.052-0.321,1.586l0,0L20.32,43.156L20.32,43.156z M43.535,39.851l0.607-0.247
			c0.209,0.518,0.397,1.044,0.558,1.578l0,0l-0.632,0.193C43.915,40.855,43.738,40.346,43.535,39.851L43.535,39.851z M21.132,39.914
			c0.184-0.521,0.393-1.044,0.624-1.554l0,0l0.601,0.274c-0.224,0.491-0.424,0.989-0.601,1.5l0,0L21.132,39.914L21.132,39.914z
			 M42.055,36.982l0.557-0.354c0.304,0.476,0.581,0.958,0.833,1.453l0,0l-0.581,0.302C42.616,37.904,42.349,37.441,42.055,36.982
			L42.055,36.982z M22.526,36.868c0.274-0.479,0.573-0.95,0.899-1.414l0,0l0,0l0.538,0.381c-0.314,0.443-0.605,0.899-0.868,1.362
			l0,0L22.526,36.868L22.526,36.868z M40.371,34.756c0,0-0.099-0.083-0.299-0.227l0,0l0.388-0.534
			c0.216,0.157,0.331,0.259,0.37,0.294l0,0c0.286,0.318,0.554,0.639,0.812,0.97l0,0l-0.519,0.408
			C40.877,35.345,40.614,35.035,40.371,34.756L40.371,34.756z M24.626,34.198c0.349-0.27,0.825-0.601,1.405-0.93l0,0l0.33,0.569
			c-0.554,0.314-1.001,0.628-1.335,0.883l0,0L24.626,34.198L24.626,34.198z M37.246,33.045l0.224-0.62
			c0.581,0.212,1.099,0.447,1.55,0.679l0,0l-0.008,0.004l-0.302,0.581C38.29,33.469,37.799,33.245,37.246,33.045L37.246,33.045z
			 M26.031,33.264h0.004l-0.004,0.004l0,0V33.264L26.031,33.264z M27.558,32.534c0.499-0.196,1.041-0.373,1.618-0.506l0,0l0,0
			l0.145,0.644c-0.542,0.122-1.052,0.287-1.52,0.471l0,0L27.558,32.534L27.558,32.534z M34.129,32.436l0.02-0.659
			c0.594,0.02,1.159,0.09,1.688,0.196l0,0l-0.125,0.644C35.213,32.519,34.683,32.452,34.129,32.436L34.129,32.436z M32.179,32.507
			l-0.094-0.051c-0.22-0.016-0.44-0.023-0.652-0.023l0,0c-0.18,0-0.36,0.004-0.537,0.016l0,0l-0.039-0.656
			c0.191-0.016,0.38-0.02,0.576-0.02l0,0c0.251,0,0.507,0.011,0.762,0.032l0,0l0.066,0.003l0.063,0.031l0.063,0.036
			c0.023-0.004,0.047-0.008,0.066-0.008l0,0l0.008,0.043l0.023,0.016l-0.02,0.036l0.078,0.553c-0.051,0.012-0.106,0.02-0.161,0.028
			l0,0l-0.105,0.016L32.179,32.507L32.179,32.507z M35.836,31.973v-0.003V31.973L35.836,31.973L35.836,31.973z"/>
	</g>
	<g>
		<g>
			<path fill="#6FC6B1" d="M22.883,66.305c0.043-9.006,1.782-17.606,5.696-21.856l0,0c1.319-1.41,3.03-2.344,4.957-2.336l0,0
				c0.154,0,0.307,0.005,0.452,0.016l0,0c3.391,0.263,6.061,2.874,7.842,6.583l0,0c1.803,3.74,2.827,8.769,2.831,14.54l0,0
				c0,1.581-0.079,3.214-0.239,4.897l0,0L41.8,67.894c0.157-1.598,0.228-3.147,0.228-4.643l0,0
				c0.004-5.453-0.994-10.141-2.567-13.398l0,0c-1.589-3.289-3.651-4.973-5.676-5.095l0,0c-0.087-0.012-0.165-0.012-0.248-0.012l0,0
				c-1.087,0.004-2.045,0.467-3.042,1.512l0,0c-0.985,1.036-1.904,2.645-2.649,4.663l0,0c-1.507,4.035-2.332,9.637-2.328,15.384l0,0
				c0,0.698,0.012,1.404,0.035,2.111l0,0h0.004l-2.634,0.09C22.895,67.772,22.883,67.035,22.883,66.305L22.883,66.305z"/>
		</g>
	</g>
	<g>
		<g>
			<path fill="#FFFFFF" d="M33.646,69.013c0.047-0.016,0.063-0.048,0.043-0.103C33.655,68.935,33.643,68.965,33.646,69.013z
				 M33.749,68.758l0.114-0.004C33.804,68.628,33.768,68.632,33.749,68.758z"/>
		</g>
		<g>
			<path fill="#FFFFFF" d="M33.799,66.689c0.043-0.048,0.036-0.071-0.028-0.071L33.799,66.689z M34.117,66.967
				c0.047-0.051,0.047-0.117,0.012-0.191C34.062,66.814,34.059,66.881,34.117,66.967z M34.176,67.172
				c0.047-0.048,0.041-0.07-0.023-0.075L34.176,67.172z M34.408,67.254c0.047-0.039,0.039-0.062-0.027-0.066L34.408,67.254z
				 M34.647,67.575c0.055-0.058,0.06-0.125,0.024-0.199C34.632,67.435,34.624,67.501,34.647,67.575z M34.749,67.528l0.052-0.02
				C34.769,67.431,34.749,67.435,34.749,67.528z M34.848,67.489c0.153-0.152,0.137-0.208-0.043-0.169L34.848,67.489z M35.26,66.418
				c0.042-0.047,0.034-0.074-0.032-0.074L35.26,66.418z M35.346,66.332l0.07-0.008C35.377,66.261,35.354,66.261,35.346,66.332z
				 M35.394,66.504c0.042-0.039,0.039-0.059-0.024-0.055L35.394,66.504z M36.32,66.838c0.042-0.047,0.034-0.07-0.024-0.074
				L36.32,66.838z"/>
		</g>
	</g>
	<path fill="#4E61AB" d="M92.154,72.836c5.534-4.244,3.277-13.821-2.622-18.297c-5.904-4.479-9.857-10.817-13.527-17.97
		c-3.667-7.156-8.988-13.255-17.135-14.508c0,0-4.898-0.098-8.242,3.643l-0.186,0.043C46.329,28.625,45.85,33.5,45.85,33.5
		c0.283,8.235,5.708,14.242,12.378,18.728c6.672,4.487,12.502,9.162,16.25,15.553c3.749,6.387,12.993,9.755,17.861,4.765
		L92.154,72.836z"/>
	<path fill="#FFFFFF" d="M84.754,73.971l0.052-0.656c0.264,0.024,0.526,0.032,0.785,0.032l0,0c0.271,0,0.537-0.008,0.805-0.035l0,0
		l0.059,0.659c-0.286,0.023-0.576,0.039-0.863,0.039l0,0C85.312,74.01,85.033,73.998,84.754,73.971L84.754,73.971z M81.465,73.221
		l0.232-0.616c0.506,0.192,1.017,0.345,1.53,0.467l0,0l-0.146,0.64C82.536,73.586,81.999,73.421,81.465,73.221L81.465,73.221z
		 M87.946,73.024c0.501-0.149,0.985-0.35,1.448-0.604l0,0l0.317,0.576c-0.506,0.279-1.032,0.495-1.581,0.656l0,0L87.946,73.024
		L87.946,73.024z M81.465,73.221L81.465,73.221L81.465,73.221L81.465,73.221L81.465,73.221L81.465,73.221z M78.475,71.689
		l0.364-0.549c0.447,0.297,0.915,0.573,1.386,0.816l0,0l-0.299,0.585C79.428,72.287,78.945,72,78.475,71.689L78.475,71.689z
		 M90.674,71.513c0.121-0.109,0.239-0.228,0.361-0.345l0,0l0.083,0.066c0.338-0.282,0.64-0.585,0.906-0.91l0,0l0.506,0.424
		c-0.36,0.427-0.77,0.828-1.24,1.185l0,0l-0.051-0.047c-0.043,0.039-0.082,0.078-0.126,0.114l0,0L90.674,71.513L90.674,71.513z
		 M75.903,69.527L75.903,69.527l0.479-0.452c0.369,0.389,0.762,0.754,1.169,1.1l0,0l-0.424,0.506
		C76.7,70.319,76.288,69.935,75.903,69.527L75.903,69.527z M92.888,69.017c0.24-0.467,0.424-0.957,0.565-1.472l0,0l0.636,0.172
		c-0.152,0.554-0.357,1.091-0.616,1.598l0,0L92.888,69.017L92.888,69.017z M74.019,67.035c-0.039-0.068-0.078-0.135-0.117-0.201l0,0
		l0.565-0.338c0.039,0.066,0.078,0.138,0.117,0.204l0,0c0.235,0.394,0.486,0.778,0.761,1.146l0,0l-0.525,0.393
		C74.529,67.854,74.262,67.45,74.019,67.035L74.019,67.035z M93.729,65.986c0.027-0.294,0.042-0.593,0.042-0.892l0,0
		c0-0.235-0.011-0.467-0.022-0.702l0,0l0.654-0.043c0.021,0.247,0.024,0.494,0.027,0.745l0,0c-0.003,0.314-0.015,0.637-0.047,0.95
		l0,0L93.729,65.986L93.729,65.986z M72.08,64.137l0.525-0.396c0.333,0.443,0.656,0.895,0.966,1.354l0,0l-0.546,0.365
		C72.723,65.013,72.405,64.573,72.08,64.137L72.08,64.137z M69.995,61.634L69.995,61.634l0.487-0.444
		c0.372,0.408,0.737,0.824,1.091,1.248l0,0l-0.506,0.424C70.722,62.445,70.364,62.033,69.995,61.634L69.995,61.634z M93.12,61.256
		l0.623-0.208c0.181,0.537,0.326,1.079,0.437,1.625l0,0l-0.647,0.133C93.43,62.285,93.292,61.767,93.12,61.256L93.12,61.256z
		 M67.695,59.32v-0.003l0.447-0.482c0.408,0.38,0.801,0.761,1.193,1.152l0,0l-0.467,0.465C68.487,60.07,68.096,59.69,67.695,59.32
		L67.695,59.32z M91.772,58.34l0.562-0.341c0.295,0.482,0.559,0.98,0.794,1.487l0,0l-0.601,0.274
		C92.303,59.278,92.052,58.799,91.772,58.34L91.772,58.34z M65.226,57.166L65.226,57.166l0.421-0.51
		c0.427,0.353,0.851,0.71,1.263,1.071l0,0l-0.432,0.494C66.07,57.869,65.654,57.515,65.226,57.166L65.226,57.166z M89.81,55.8
		l0.473-0.459c0.388,0.4,0.757,0.828,1.103,1.271l0,0l-0.522,0.401C90.537,56.588,90.183,56.184,89.81,55.8L89.81,55.8z
		 M62.643,55.156l0.394-0.529c0.443,0.329,0.883,0.662,1.314,1l0,0l-0.404,0.518C63.518,55.812,63.083,55.482,62.643,55.156
		L62.643,55.156z M88.4,54.556c-0.368-0.279-0.726-0.565-1.078-0.855l0,0l0.424-0.507c0.341,0.286,0.694,0.565,1.052,0.836l0,0
		c0.078,0.059,0.153,0.118,0.231,0.177l0,0l-0.408,0.521C88.547,54.669,88.476,54.61,88.4,54.556L88.4,54.556z M89.029,54.206v0.004
		V54.206L89.029,54.206z M59.97,53.249l0.377-0.546c0.455,0.313,0.903,0.632,1.35,0.95l0,0l-0.38,0.537
		C60.873,53.872,60.425,53.559,59.97,53.249L59.97,53.249z M84.884,51.438l0.476-0.459c0.38,0.389,0.765,0.77,1.166,1.138l0,0
		l-0.451,0.479C85.67,52.225,85.272,51.835,84.884,51.438L84.884,51.438z M57.253,51.372l0.393-0.534
		c0.436,0.321,0.88,0.633,1.335,0.938l0,0l-0.368,0.546C58.152,52.012,57.697,51.698,57.253,51.372L57.253,51.372z M54.662,49.299
		l0.432-0.493c0.409,0.353,0.825,0.706,1.253,1.04l0,0l-0.412,0.521C55.503,50.018,55.074,49.664,54.662,49.299L54.662,49.299z
		 M82.683,48.958l0.51-0.416c0.346,0.424,0.694,0.836,1.056,1.244l0,0v0.005l-0.49,0.432C83.393,49.811,83.035,49.39,82.683,48.958
		L82.683,48.958z M54.662,49.299L54.662,49.299L54.662,49.299L54.662,49.299L54.662,49.299L54.662,49.299z M52.275,46.979h0.005
		l0.487-0.443c0.36,0.396,0.741,0.785,1.13,1.165l0,0l-0.459,0.472C53.037,47.784,52.652,47.388,52.275,46.979L52.275,46.979z
		 M80.692,46.309l0.541-0.377c0.314,0.451,0.633,0.892,0.958,1.326l0,0l0,0l-0.53,0.394C81.335,47.211,81.011,46.764,80.692,46.309
		L80.692,46.309z M50.196,44.381l0.542-0.373c0.305,0.44,0.627,0.875,0.969,1.299l0,0l-0.515,0.409
		C50.844,45.279,50.51,44.836,50.196,44.381L50.196,44.381z M78.886,43.541l0.562-0.345c0.287,0.466,0.578,0.926,0.872,1.382l0,0
		l-0.551,0.356C79.467,44.476,79.176,44.012,78.886,43.541L78.886,43.541z M48.52,41.492L48.52,41.492l0.594-0.282
		c0.23,0.487,0.482,0.966,0.757,1.428l0,0l-0.569,0.334C49.018,42.489,48.759,41.995,48.52,41.492L48.52,41.492z M77.222,40.683
		l0.573-0.318c0.271,0.479,0.538,0.954,0.816,1.425l0,0h-0.008l-0.565,0.33C77.764,41.649,77.492,41.17,77.222,40.683L77.222,40.683
		z M47.366,38.352l0.635-0.169c0.142,0.521,0.302,1.036,0.487,1.539l0,0l-0.617,0.227C47.68,39.427,47.511,38.894,47.366,38.352
		L47.366,38.352z M75.668,37.774l0.584-0.306c0.252,0.494,0.507,0.977,0.767,1.456l0,0h-0.005l-0.581,0.31
		C76.178,38.751,75.918,38.266,75.668,37.774L75.668,37.774z M47.366,38.352L47.366,38.352L47.366,38.352L47.366,38.352
		L47.366,38.352L47.366,38.352z M46.812,35.05h-0.005L47.467,35c0.041,0.545,0.107,1.08,0.193,1.605l0,0l-0.651,0.106
		C46.918,36.168,46.852,35.616,46.812,35.05L46.812,35.05z M74.093,34.905l0.565-0.342c0.282,0.479,0.559,0.958,0.824,1.444l0,0
		l-0.576,0.315C74.639,35.844,74.372,35.373,74.093,34.905L74.093,34.905z M72.291,32.188l0.53-0.392
		c0.325,0.447,0.644,0.903,0.95,1.362l0,0l-0.546,0.365C72.919,33.068,72.614,32.625,72.291,32.188L72.291,32.188z M46.945,33.319
		c0.098-0.436,0.259-0.993,0.494-1.617l0,0l0.617,0.235c-0.225,0.593-0.377,1.123-0.472,1.531l0,0L46.945,33.319L46.945,33.319z
		 M70.215,29.685l0.479-0.452c0.377,0.404,0.747,0.825,1.104,1.252l0,0l0,0l-0.506,0.42C70.941,30.485,70.585,30.077,70.215,29.685
		L70.215,29.685z M48.158,30.167c0.26-0.468,0.565-0.946,0.931-1.413l0,0h0.003l0.52,0.404c-0.346,0.44-0.637,0.887-0.88,1.327l0,0
		L48.158,30.167L48.158,30.167z M67.833,27.486l0.411-0.518c0.437,0.345,0.856,0.71,1.265,1.087l0,0l-0.443,0.487
		C68.664,28.173,68.257,27.82,67.833,27.486L67.833,27.486z M50.238,27.502c0.314-0.29,0.664-0.573,1.037-0.836l0,0l0.059-0.039
		l0.063-0.012l0.074-0.016c0.015-0.016,0.031-0.035,0.047-0.051l0,0l0,0l0.035,0.032h0.021l0.007,0.027l0.42,0.389
		c-0.039,0.043-0.074,0.082-0.113,0.122l0,0L51.816,27.2l-0.105,0.02l-0.114,0.027c-0.329,0.236-0.631,0.483-0.914,0.738l0,0
		L50.238,27.502L50.238,27.502z M65.147,25.696l0.313-0.577c0.49,0.267,0.97,0.554,1.434,0.864l0,0l-0.37,0.549
		C66.081,26.234,65.618,25.951,65.147,25.696L65.147,25.696z M52.774,25.402c0.467-0.357,0.951-0.659,1.43-0.918l0,0l0.306,0.581
		c-0.447,0.24-0.895,0.526-1.335,0.86l0,0L52.774,25.402L52.774,25.402z M62.188,24.417l0.203-0.624
		c0.534,0.172,1.057,0.373,1.566,0.588l0,0l-0.263,0.604C63.208,24.778,62.701,24.585,62.188,24.417L62.188,24.417z M55.75,23.8
		c0.584-0.208,1.135-0.353,1.63-0.456l0,0v-0.004l0.133,0.648c-0.463,0.098-0.989,0.235-1.542,0.432l0,0L55.75,23.8L55.75,23.8z
		 M59.439,23.765c-0.055,0-0.168,0-0.341,0.012l0,0l-0.039-0.659c0.184-0.008,0.317-0.012,0.38-0.012l0,0
		c0.036,0,0.056,0.004,0.083,0.004l0,0c0.424,0.067,0.844,0.146,1.252,0.24l0,0l0,0l-0.145,0.64
		C60.237,23.902,59.833,23.824,59.439,23.765L59.439,23.765z"/>
	<g>
		<path fill="#6FC6B1" d="M56.477,39.467c-0.021-2.363,0.804-4.605,2.736-5.955l0,0c1.287-0.911,2.834-1.334,4.454-1.331l0,0
			c6.207,0.082,13.881,5.617,20.114,14.822l0,0l-2.187,1.468c-5.853-8.812-13.357-13.738-17.928-13.656l0,0
			c-1.185,0-2.143,0.291-2.936,0.849l0,0c-1.084,0.776-1.602,1.947-1.621,3.804l0,0c-0.059,4.808,4.291,12.996,10.257,19.713l0,0
			v0.004l-1.975,1.734C61.211,53.838,56.539,45.61,56.477,39.467L56.477,39.467z"/>
	</g>
	<polygon fill="#9FD1E4" points="33.184,39.894 33.913,42.14 36.273,42.14 34.364,43.529 35.095,45.774 33.184,44.385 
		31.271,45.774 32.002,43.529 30.094,42.14 32.453,42.14 	"/>
	<polygon fill="#9FD1E4" points="57.219,32.299 59.291,33.425 61.002,31.8 60.574,34.124 62.651,35.251 60.307,35.557 59.88,37.881 
		58.863,35.75 56.52,36.055 58.23,34.431 	"/>
</g>
</svg>
