<?xml version="1.0" encoding="iso-8859-1"?>
<!-- Generator: Adobe Illustrator 13.0.0, SVG Export Plug-In . SVG Version: 6.00 Build 14948)  -->
<!DOCTYPE svg PUBLIC "-//W3C//DTD SVG 1.1//EN" "http://www.w3.org/Graphics/SVG/1.1/DTD/svg11.dtd">
<svg version="1.1" id="Layer_1" xmlns="http://www.w3.org/2000/svg" xmlns:xlink="http://www.w3.org/1999/xlink" x="0px" y="0px"
	 width="100px" height="100px" viewBox="0 0 100 100" enable-background="new 0 0 100 100" xml:space="preserve">
<g>
	<g>
		<path fill="#272525" d="M91.444,49.155c-0.356-1.39-1.279-2.658-2.354-3.908c-1.074-1.239-2.374-2.368-3.988-3.474
			c-1.191-0.798-2.504-1.54-3.893-2.206c-3.192-1.516-6.841-2.668-10.857-3.438c-3.207-0.596-6.432-0.897-9.586-0.897
			c-0.504,0-1.011,0.006-1.522,0.023c-3.017,0.092-5.717,0.446-8.29,1.071c-1.294,0.325-2.666,0.724-4.014,1.383
			c-0.813-1.921-1.896-3.733-3.205-5.372c-1.931-2.431-4.335-4.486-7.163-6.136c-3.132-1.812-6.736-3.045-10.403-3.56
			c-1.855-0.267-3.809-0.237-5.821,0.11c-1.751,0.312-3.392,0.868-4.871,1.65c-1.763,0.938-3.216,2.154-4.318,3.612
			c-0.15,0.197-0.287,0.399-0.423,0.602c-3.369,10.791,1.057,14.345,2.666,15.688c0.793,0.66,1.726,1.146,2.666,1.562
			c0.715,0.318,1.372,0.521,1.957,0.701c0.197,0.063,0.391,0.121,0.588,0.191c0.049,0.012,0.104,0.035,0.159,0.046
			c0.701,0.214,1.438,0.417,2.255,0.631c0.061,0.018,0.116,0.029,0.174,0.041c1.06,0.231,2.113,0.475,3.167,0.724
			c1.6,0.376,2.883,0.741,4.055,1.164c4.868,1.725,9.363,4.608,13.005,8.341c2.984,3.068,5.363,6.605,7.079,10.547
			c0.165,0.378,0.342,0.684,0.469,0.893c-1.939,1.302-3.354,3.334-3.896,5.603c-0.637,2.594-0.11,5.443,1.404,7.619
			c1.3,1.893,3.32,3.276,5.552,3.809c0.355,0.087,0.72,0.155,1.088,0.197c0.376,0.045,0.759,0.069,1.138,0.069
			c2.062,0,4.084-0.671,5.69-1.904c1.743-1.303,2.984-3.189,3.499-5.333c0.01-0.034,0.018-0.062,0.023-0.098
			c0.29-1.337,0.317-2.634,0.084-3.85c-0.018-0.093-0.043-0.18-0.062-0.267c0.489,0.853,1.086,1.639,1.78,2.305
			c1.535,1.505,3.552,2.524,5.688,2.877c0.166,0.029,0.327,0.053,0.489,0.069c0.422,0.059,0.852,0.081,1.276,0.081
			c1.893,0,3.745-0.498,5.332-1.436c1.779-1.03,3.206-2.523,4.121-4.313c1.065-2.072,1.433-4.469,1.039-6.737
			c-0.223-1.303-0.693-2.559-1.372-3.682c0.889-0.341,1.755-0.719,2.565-1.141c1.157-0.596,2.24-1.354,3.302-2.16
			C90.483,58.77,92.772,54.348,91.444,49.155z"/>
	</g>
	<g>
		<g>
			<path fill="#CFD0D2" d="M51.342,65.144c0.094,0.174,0.18,0.348,0.312,0.498c-0.046-0.29-0.158-0.556-0.237-0.835
				c-1.673-5.364-4.266-10.437-7.601-14.958c-4.182-5.667-9.528-10.46-15.577-14.061c-0.539-0.324-1.106-0.602-1.665-0.891
				c-0.75-0.389-1.502-0.776-2.255-1.158c-0.57-0.318-1.103-0.712-1.508-1.228c-0.367-0.469-0.599-1.1-0.48-1.702
				c0.115-0.59,0.547-1.083,1.039-1.407c0.694-0.452,1.525-0.643,2.335-0.672c0.752-0.04,1.5,0.053,2.237,0.157
				c2.872,0.411,5.662,1.465,8.047,3.126c2.092,1.453,3.878,3.38,5.088,5.627c0.503,0.92,0.903,1.893,1.207,2.888
				c0.063,0.209,0.101,0.428,0.191,0.631c-0.003-0.307-0.099-0.602-0.156-0.897c-0.614-2.669-1.858-5.175-3.569-7.312
				c-1.629-2.05-3.67-3.757-5.934-5.071c-2.712-1.575-5.74-2.582-8.836-3.016c-1.477-0.214-2.982-0.168-4.443,0.082
				c-1.248,0.226-2.466,0.613-3.587,1.209c-1.111,0.597-2.13,1.39-2.891,2.397c-0.452,0.596-0.802,1.262-1.033,1.968
				c-0.122,0.354-0.177,0.724-0.266,1.089c-0.359,1.296-0.278,2.708,0.214,3.959c0.454,1.158,1.242,2.165,2.2,2.941
				c0.64,0.521,1.352,0.949,2.107,1.279c0.698,0.312,1.441,0.498,2.165,0.741c0.698,0.209,1.401,0.405,2.11,0.591
				c1.077,0.231,2.153,0.486,3.233,0.735c1.525,0.353,3.039,0.77,4.515,1.302c5.528,1.957,10.583,5.209,14.672,9.412
				c3.334,3.416,6.041,7.444,7.946,11.821C51.041,64.651,51.203,64.894,51.342,65.144z"/>
			<path fill="#CFD0D2" d="M51.654,70.001c-1.232,0-2.448-0.521-3.293-1.5c-0.42-0.486-0.671-0.943-0.805-1.188l-0.026-0.057
				c-0.008-0.012-0.017-0.023-0.025-0.042L47.438,67.1c-0.13-0.214-0.324-0.544-0.507-0.955c-1.713-3.931-4.089-7.474-7.073-10.535
				c-3.642-3.74-8.139-6.623-13.005-8.348c-1.172-0.417-2.455-0.782-4.058-1.158c-1.054-0.255-2.11-0.498-3.164-0.729
				c-0.058-0.012-0.116-0.023-0.174-0.041c-0.819-0.209-1.557-0.417-2.258-0.625c-0.049-0.018-0.104-0.029-0.159-0.047
				c-0.191-0.069-0.385-0.127-0.582-0.191c-0.584-0.18-1.244-0.388-1.962-0.706c-1.097-0.48-2.145-1.112-3.074-1.87
				c-1.586-1.291-2.799-2.929-3.508-4.736c-0.828-2.107-0.961-4.463-0.376-6.646C7.555,30.439,7.57,30.37,7.584,30.3
				c0.066-0.295,0.153-0.7,0.307-1.151c0.379-1.164,0.952-2.246,1.696-3.23c1.105-1.459,2.559-2.674,4.321-3.612
				c1.479-0.788,3.12-1.343,4.871-1.656c2.009-0.336,3.965-0.376,5.824-0.104c3.661,0.515,7.265,1.748,10.4,3.56
				c2.828,1.644,5.236,3.705,7.164,6.136c2.124,2.651,3.652,5.783,4.402,9.042c0.006,0.041,0.017,0.081,0.026,0.127l0.023,0.099
				c0.058,0.243,0.145,0.613,0.188,1.076c0.026,0.186,0.038,0.377,0.038,0.574c0,1.378-0.639,2.61-1.638,3.403
				c0.735,0.88,1.444,1.783,2.122,2.698c3.659,4.955,6.437,10.426,8.252,16.243c0.014,0.047,0.028,0.093,0.04,0.134l0.028,0.091
				c0.091,0.268,0.234,0.714,0.315,1.263c0.29,1.917-0.726,3.799-2.485,4.608C52.891,69.867,52.271,70.001,51.654,70.001z
				 M19.764,36.373c0.359,0.11,0.732,0.214,1.131,0.324c-0.573-0.446-1.079-0.943-1.507-1.488c-1.208-1.557-1.685-3.45-1.34-5.233
				c-0.015,0.012-0.032,0.018-0.049,0.029c-0.623,0.33-1.126,0.741-1.459,1.181c-0.165,0.214-0.289,0.451-0.368,0.688
				c-0.003,0.012-0.011,0.029-0.017,0.053c-0.012,0.045-0.029,0.127-0.043,0.214c-0.041,0.179-0.081,0.359-0.125,0.533
				c-0.009,0.034-0.014,0.063-0.023,0.093c-0.107,0.376-0.081,0.828,0.067,1.204c0.165,0.41,0.481,0.821,0.897,1.158
				c0.318,0.26,0.686,0.48,1.097,0.66c0.281,0.127,0.643,0.237,1.024,0.359C19.29,36.216,19.526,36.297,19.764,36.373z"/>
		</g>
		<g>
			<path fill="#CFD0D2" d="M85.96,49.096c-0.312-1.152-0.965-2.188-1.734-3.091c-0.909-1.054-1.989-1.939-3.133-2.709
				c-1.057-0.717-2.172-1.343-3.325-1.887c-3.1-1.47-6.417-2.449-9.783-3.085c-3.352-0.625-6.764-0.915-10.17-0.811
				c-2.478,0.081-4.961,0.359-7.373,0.95c-1.253,0.312-2.509,0.677-3.642,1.313c-0.639,0.359-1.253,0.782-1.756,1.32
				c-0.379,0.411-0.697,0.891-0.865,1.429c-0.186,0.608-0.168,1.268,0.028,1.87c0.208,0.654,0.591,1.245,1.037,1.76
				c0.165,0.18,0.312,0.371,0.503,0.521c0.052-0.335,0.058-0.677,0.17-0.996c0.244-0.741,0.732-1.377,1.317-1.881
				c0.943-0.816,2.09-1.354,3.268-1.749c1.907-0.625,3.919-0.885,5.919-0.938c3.393-0.076,6.801,0.434,10.005,1.551
				c2.021,0.729,4.001,1.708,5.587,3.184c0.455,0.399,0.86,0.857,1.21,1.349c0.813,1.117,1.366,2.466,1.346,3.861
				c-0.006,1.297-0.541,2.542-1.357,3.531c-0.498,0.603-1.091,1.123-1.728,1.569c-0.44,0.307-0.909,0.567-1.36,0.851
				c-0.48,0.302-0.989,0.556-1.514,0.781c-3.709,1.754-6.964,4.517-9.179,7.977c-0.193,0.325-0.422,0.631-0.57,0.979
				c0.206-0.202,0.365-0.45,0.559-0.677c1.899-2.223,4.432-3.837,7.141-4.897c0.495-0.19,0.993-0.364,1.499-0.527
				c0.8-0.254,1.622-0.435,2.44-0.624c0.556-0.134,1.113-0.255,1.682-0.348c0.791-0.133,1.577-0.272,2.353-0.457
				c0.797-0.174,1.578-0.424,2.364-0.632c1.364-0.382,2.689-0.892,3.949-1.539c1.104-0.567,2.128-1.28,3.063-2.096
				c0.945-0.84,1.747-1.898,2.071-3.144C86.229,50.932,86.193,49.982,85.96,49.096z"/>
			<path fill="#CFD0D2" d="M58.861,71.112c-0.839,0-1.688-0.245-2.425-0.741c-1.739-1.158-2.406-3.398-1.59-5.326
				c0.253-0.597,0.551-1.055,0.751-1.366c0.034-0.059,0.074-0.115,0.109-0.174c0.015-0.028,0.034-0.059,0.052-0.086
				c2.619-4.094,6.42-7.404,10.983-9.569c0.053-0.023,0.105-0.047,0.154-0.07c0.365-0.15,0.654-0.301,0.895-0.451
				c0.212-0.133,0.422-0.267,0.64-0.394c0.215-0.128,0.419-0.255,0.559-0.353c0.351-0.238,0.637-0.498,0.859-0.771
				c0.249-0.302,0.358-0.603,0.362-0.771c0.003-0.301-0.131-0.752-0.513-1.279c-0.19-0.266-0.37-0.475-0.552-0.625
				c-0.036-0.035-0.067-0.063-0.103-0.098c-0.938-0.869-2.271-1.609-4.075-2.269c-2.672-0.92-5.53-1.36-8.449-1.297
				c-1.794,0.046-3.322,0.284-4.656,0.724c-0.787,0.26-1.387,0.562-1.772,0.897c-0.014,0.092-0.026,0.185-0.04,0.278
				c-0.247,1.511-1.265,2.784-2.689,3.351c-1.423,0.568-3.039,0.348-4.257-0.584c-0.493-0.371-0.825-0.747-1.019-0.973l-0.058-0.064
				c-0.032-0.034-0.061-0.069-0.089-0.104c-0.883-1.024-1.517-2.125-1.882-3.271c-0.472-1.447-0.489-3.045-0.041-4.493
				c0.336-1.111,0.958-2.159,1.832-3.108c0.756-0.804,1.679-1.516,2.826-2.153c1.571-0.885,3.192-1.36,4.708-1.743
				c2.573-0.625,5.276-0.972,8.291-1.071c0.515-0.017,1.021-0.028,1.529-0.028c3.153,0,6.374,0.306,9.578,0.903
				c4.021,0.764,7.668,1.921,10.857,3.438c1.398,0.66,2.709,1.401,3.896,2.206c1.612,1.094,2.912,2.229,3.988,3.467
				c1.312,1.54,2.198,3.149,2.648,4.816c0.449,1.685,0.457,3.409,0.019,4.996c-0.516,1.927-1.683,3.739-3.378,5.25
				c-1.251,1.088-2.57,1.991-3.966,2.709c-1.461,0.759-3.071,1.391-4.764,1.864c-0.021,0.007-0.035,0.007-0.05,0.018
				c-0.243,0.058-0.48,0.127-0.721,0.197c-0.567,0.155-1.152,0.323-1.798,0.469c-0.892,0.214-1.776,0.37-2.604,0.51
				c-0.014,0-0.028,0.005-0.044,0.005c-0.379,0.063-0.801,0.15-1.365,0.278l-0.385,0.092c-0.628,0.151-1.223,0.291-1.739,0.452
				c-0.433,0.138-0.847,0.284-1.229,0.429c-2.24,0.88-4.109,2.147-5.4,3.67c-0.024,0.023-0.043,0.046-0.067,0.076l-0.06,0.074
				c-0.142,0.185-0.359,0.463-0.654,0.758C61.119,70.666,59.996,71.112,58.861,71.112z M77.812,46.37
				c0.758,1.522,1.144,3.144,1.117,4.764c-0.004,0.707-0.095,1.425-0.269,2.131c0.057-0.029,0.121-0.063,0.176-0.093
				c0.782-0.399,1.523-0.908,2.209-1.511c0.442-0.388,0.668-0.759,0.717-0.956c0.01-0.028,0.016-0.051,0.021-0.08
				c0.012-0.029,0.026-0.18-0.035-0.399c-0.106-0.388-0.396-0.874-0.839-1.389c-0.549-0.637-1.299-1.28-2.267-1.939
				C78.379,46.717,78.101,46.543,77.812,46.37z"/>
		</g>
		<g>
			<path fill="#CFD0D2" d="M59.038,43.47c-0.211,0.006-0.402,0.104-0.596,0.186c-1.202,0.486-2.307,1.181-3.358,1.939
				c-0.153,0.098-0.351,0.075-0.524,0.086c-1.739,0.122-3.466,0.423-5.14,0.909c-0.327,0.104-0.665,0.18-0.975,0.33
				c0.333,0.012,0.657-0.069,0.99-0.093c1.068-0.093,2.146-0.116,3.219-0.069c0.324,0.012,0.651,0.029,0.97,0.069
				c-0.492,0.596-0.976,1.204-1.367,1.87c-0.065,0.098-0.121,0.243-0.266,0.243c-0.706,0.087-1.404,0.231-2.101,0.382
				c-0.078,0.018-0.156,0.046-0.229,0.087c0.683,0.075,1.375,0.058,2.055,0.185c-0.086,0.278-0.225,0.532-0.323,0.805
				c-0.819,1.992-1.1,4.208-0.796,6.344c0.025,0.151,0.025,0.308,0.086,0.446c0.406-2.356,1.176-4.648,2.312-6.75
				c0.102-0.173,0.169-0.382,0.313-0.527c0.289,0.029,0.573,0.128,0.862,0.191c1.826,0.452,3.612,1.082,5.305,1.91
				c0.247,0.128,0.504,0.231,0.733,0.4c-0.113,0.179-0.276,0.318-0.418,0.474c-0.361,0.406-0.705,0.828-1.029,1.263
				c-0.087,0.115-0.162,0.243-0.264,0.347c-0.191-0.058-0.355-0.173-0.541-0.255c-1.474-0.683-3.138-0.948-4.753-0.758
				c0.031,0.093,0.147,0.093,0.229,0.122c1.396,0.271,2.75,0.746,4.018,1.384c0.165,0.086,0.335,0.155,0.48,0.271
				c-0.061,0.203-0.202,0.37-0.301,0.562c-0.318,0.613-0.661,1.204-0.93,1.835c-0.689,1.517-1.149,3.132-1.4,4.782
				c-0.085,0.688-0.188,1.383-0.18,2.083c0.099,0.075,0.134-0.075,0.162-0.14c1.04-2.865,2.519-5.562,4.312-8.017
				c0.14,0.069,0.258,0.18,0.377,0.272c0.494,0.405,0.949,0.856,1.377,1.332c0.125,0.133,0.22,0.295,0.336,0.438
				c0.055-0.139-0.015-0.283-0.061-0.411c-0.246-0.636-0.593-1.227-1.01-1.76c-0.142-0.19-0.33-0.347-0.481-0.532
				c0.059-0.121,0.154-0.226,0.24-0.341c0.402-0.498,0.82-0.996,1.251-1.471c0.127-0.133,0.24-0.289,0.386-0.405
				c0.135,0.063,0.244,0.168,0.363,0.255c0.545,0.388,1.063,0.805,1.54,1.268c0.339,0.307,0.628,0.654,0.947,0.967
				c-0.146-0.526-0.376-1.036-0.648-1.511c-0.287-0.516-0.665-0.967-1.062-1.396c-0.119-0.133-0.257-0.249-0.358-0.394
				c0.102-0.133,0.231-0.237,0.35-0.364c0.449-0.435,0.906-0.857,1.378-1.263c0.107-0.092,0.202-0.191,0.321-0.26
				c0.043,0.018,0.081,0.035,0.119,0.058c1.389,0.972,2.68,2.09,3.811,3.357c0.166,0.174,0.293,0.388,0.469,0.562
				c-0.008-0.29-0.095-0.556-0.174-0.828c-0.462-1.517-1.376-2.859-2.499-3.965c-0.107-0.104-0.227-0.196-0.325-0.312
				c0.119-0.121,0.264-0.208,0.4-0.312c1.203-0.886,2.46-1.708,3.773-2.42c-0.637,0.012-1.244,0.214-1.849,0.388
				c-1.069,0.324-2.107,0.741-3.107,1.239c-0.114,0.058-0.222,0.126-0.35,0.167c-0.046-0.023-0.089-0.052-0.133-0.082
				c-1.16-0.827-2.442-1.47-3.778-1.957c-1.504-0.55-3.091-0.88-4.688-1.03c0.651-0.625,1.313-1.245,2.037-1.782
				C58.711,43.742,58.907,43.643,59.038,43.47z M59.841,48.211c1.191,0.44,2.357,0.961,3.452,1.609
				c-0.142,0.127-0.307,0.22-0.46,0.33c-0.382,0.278-0.752,0.573-1.12,0.879c-0.15,0.116-0.274,0.262-0.443,0.365
				c-0.118-0.058-0.223-0.139-0.329-0.22c-2.069-1.39-4.53-2.171-7.017-2.281c0.336-0.562,0.741-1.083,1.137-1.592
				c0.073-0.093,0.134-0.185,0.232-0.255c0.084-0.012,0.168,0.006,0.255,0.017C57.01,47.308,58.45,47.696,59.841,48.211z"/>
			<path fill="#CFD0D2" d="M55.168,68.905c-0.972,0-1.93-0.329-2.705-0.919c-1.057-0.816-1.688-2.073-1.705-3.41
				c-0.009-0.897,0.092-1.69,0.18-2.386l0.034-0.283c0.003-0.041,0.009-0.087,0.017-0.133c0.012-0.075,0.023-0.156,0.039-0.237
				c-1.847,0.15-3.593-0.886-4.339-2.6c-0.304-0.689-0.374-1.285-0.403-1.552c-0.003-0.011-0.005-0.022-0.005-0.028
				c-0.243-1.702-0.217-3.421,0.069-5.112c-0.483-0.562-0.828-1.256-0.972-2.026c-0.018-0.081-0.029-0.162-0.038-0.237
				c-0.573-0.584-0.987-1.325-1.163-2.171c-0.408-1.968,0.579-3.965,2.396-4.828c0.527-0.254,1.004-0.394,1.32-0.486
				c0.061-0.018,0.118-0.035,0.179-0.052c0.041-0.018,0.084-0.029,0.127-0.041c1.708-0.498,3.485-0.839,5.292-1.007
				c1.154-0.77,2.225-1.343,3.308-1.783l0.061-0.018c0.313-0.139,1.055-0.452,2.032-0.486c1.688-0.052,3.251,0.862,4.026,2.362
				c0.223,0.44,0.37,0.903,0.437,1.372c0.716,0.284,1.404,0.608,2.067,0.961c0.619-0.243,1.244-0.463,1.873-0.654
				c0.022-0.011,0.04-0.017,0.057-0.023l0.186-0.052c0.691-0.197,1.645-0.48,2.79-0.504c2.032-0.046,3.789,1.303,4.302,3.248
				c0.515,1.945-0.364,3.988-2.134,4.943c-0.006,0-0.012,0.006-0.017,0.006c0.306,0.619,0.559,1.25,0.756,1.887
				c0.008,0.023,0.014,0.053,0.019,0.076l0.021,0.063c0.083,0.289,0.208,0.724,0.277,1.268c0.041,0.231,0.058,0.463,0.058,0.706
				c0,2.391-1.922,4.329-4.309,4.359c-0.426,0-0.843-0.053-1.251-0.168c-0.628,0.678-1.474,1.146-2.422,1.313
				c-0.618,1.308-1.845,2.229-3.283,2.442c-0.523,0.087-1.054,0.071-1.558-0.039c-0.547,1.048-1.016,2.118-1.403,3.188
				c-0.029,0.075-0.062,0.157-0.09,0.231C58.58,67.806,56.968,68.905,55.168,68.905z"/>
		</g>
		<g>
			<path fill="#CFD0D2" d="M75.961,63.487c-0.853-1.019-2.045-1.748-3.339-2.055c-0.237-0.052-0.472-0.093-0.709-0.122
				c-0.544-0.063-1.1-0.068-1.644,0.012c-1.879,0.244-3.602,1.413-4.548,3.046c-0.779,1.337-1.042,2.964-0.737,4.479
				c0.251,1.222,0.879,2.367,1.776,3.242c0.911,0.891,2.104,1.482,3.363,1.69c0.093,0.013,0.188,0.023,0.287,0.04
				c1.337,0.162,2.728-0.114,3.895-0.799c1.027-0.597,1.892-1.487,2.432-2.547c0.628-1.222,0.852-2.651,0.616-4
				C77.166,65.374,76.68,64.333,75.961,63.487z M73.322,68.731c-0.261,0.412-0.652,0.729-1.095,0.926
				c-0.414,0.174-0.87,0.238-1.319,0.186c-0.246-0.034-0.493-0.103-0.718-0.196c-0.694-0.312-1.241-0.942-1.415-1.684
				c-0.14-0.562-0.058-1.176,0.218-1.686c0.307-0.584,0.858-1.03,1.493-1.204c0.332-0.098,0.683-0.127,1.024-0.081
				c0.121,0.012,0.24,0.034,0.359,0.064c0.826,0.22,1.521,0.896,1.75,1.724C73.803,67.435,73.702,68.164,73.322,68.731z"/>
			<path fill="#CFD0D2" d="M71.163,78.226L71.163,78.226c-0.432,0-0.859-0.028-1.279-0.074c-0.166-0.024-0.327-0.047-0.489-0.075
				c-2.133-0.348-4.153-1.372-5.685-2.873c-1.502-1.452-2.572-3.409-2.996-5.486c-0.518-2.554-0.066-5.303,1.242-7.543
				c1.624-2.808,4.51-4.741,7.716-5.17c0.889-0.127,1.827-0.139,2.768-0.023c0.368,0.047,0.75,0.11,1.125,0.197
				c0.021,0.006,0.039,0.012,0.059,0.012c2.203,0.515,4.221,1.76,5.673,3.489c1.219,1.437,2.037,3.19,2.356,5.062
				c0.394,2.269,0.026,4.658-1.036,6.726c-0.915,1.796-2.345,3.293-4.122,4.329C74.9,77.729,73.05,78.226,71.163,78.226z
				 M69.672,66.348c-0.315,0.491-0.402,1.064-0.249,1.608c0.181,0.654,0.663,1.142,1.323,1.315c0.096,0.022,0.174,0.04,0.249,0.051
				c0.191,0.018,0.469,0,0.709-0.062c0.495-0.151,0.897-0.481,1.14-0.938c0.174-0.319,0.25-0.689,0.221-1.061
				c-0.003-0.011-0.003-0.027-0.005-0.046c-0.062-0.336-0.206-0.653-0.424-0.907c-0.254-0.308-0.619-0.533-0.986-0.62
				c-0.091-0.022-0.178-0.034-0.255-0.046c-0.197-0.023-0.359-0.023-0.494-0.007c-0.024,0.007-0.051,0.007-0.073,0.012
				c-0.348,0.047-0.697,0.22-0.979,0.476C69.789,66.19,69.725,66.267,69.672,66.348z"/>
		</g>
		<g>
			<path fill="#CFD0D2" d="M55.872,70.897c-0.648-0.526-1.43-0.874-2.249-1.024c-0.104-0.019-0.215-0.035-0.321-0.046
				c-1.175-0.146-2.402,0.127-3.392,0.781c-1.077,0.7-1.87,1.816-2.163,3.067c-0.344,1.39-0.072,2.935,0.752,4.109
				c0.698,1.024,1.789,1.772,2.993,2.05c0.194,0.052,0.389,0.087,0.592,0.116c1.29,0.151,2.639-0.196,3.67-0.996
				c0.942-0.694,1.614-1.736,1.889-2.871c0.151-0.7,0.197-1.425,0.059-2.125C57.489,72.761,56.826,71.655,55.872,70.897z
				 M54.61,76.386c-0.423,0.532-1.086,0.867-1.763,0.908c-0.15,0.012-0.301,0-0.449-0.012c-0.488-0.063-0.961-0.272-1.332-0.597
				c-0.563-0.492-0.876-1.262-0.798-2.002c0.061-0.683,0.452-1.321,1.013-1.703c0.489-0.335,1.1-0.484,1.688-0.41
				c0.018,0,0.035,0.006,0.053,0.006c0.951,0.121,1.794,0.857,2.02,1.795C55.221,75.065,55.057,75.823,54.61,76.386z"/>
			<path fill="#CFD0D2" d="M52.688,84.345L52.688,84.345c-0.375,0-0.758-0.023-1.129-0.069c-0.367-0.041-0.734-0.109-1.097-0.203
				c-2.237-0.533-4.263-1.928-5.563-3.82c-1.499-2.147-2.029-5.002-1.389-7.606c0.55-2.315,2.015-4.388,4.012-5.685
				c1.525-1.001,3.311-1.534,5.166-1.534c0.38,0,0.765,0.023,1.141,0.068c0.18,0.019,0.388,0.053,0.594,0.087
				c1.531,0.284,2.979,0.945,4.188,1.917c1.762,1.395,2.973,3.415,3.378,5.662c0.234,1.21,0.206,2.507-0.081,3.844
				c-0.01,0.035-0.018,0.069-0.026,0.098c-0.519,2.142-1.757,4.035-3.499,5.337C56.771,83.668,54.752,84.345,52.688,84.345z
				 M52.861,74.168l-0.145,1.453c0.162-0.006,0.307-0.063,0.376-0.115c0.023-0.019,0.047-0.035,0.07-0.053
				c0.081-0.058,0.182-0.191,0.231-0.353c0.037-0.203,0.029-0.302,0.029-0.302c-0.01-0.028-0.013-0.053-0.019-0.087
				c-0.023-0.14-0.121-0.307-0.237-0.399C53.062,74.231,52.963,74.186,52.861,74.168z M52.688,74.145
				c-0.164,0-0.298,0.053-0.369,0.099c-0.016,0.012-0.027,0.019-0.041,0.022c-0.133,0.087-0.252,0.255-0.287,0.405
				c-0.006,0.019-0.006,0.035-0.012,0.053c-0.043,0.181-0.003,0.423,0.096,0.566c0.11,0.157,0.27,0.268,0.414,0.303
				c0.021,0.004,0.041,0.011,0.061,0.017c0.021,0.006,0.043,0.006,0.059,0.012c0.006,0,0.012,0,0.017,0l0.19-1.465
				c-0.008,0-0.014,0-0.02,0C52.746,74.145,52.717,74.145,52.688,74.145z"/>
		</g>
	</g>
	<g>
		<g>
			<path fill="#FFFFFF" d="M51.342,65.144c0.094,0.174,0.18,0.348,0.312,0.498c-0.046-0.29-0.158-0.556-0.237-0.835
				c-1.673-5.364-4.266-10.437-7.601-14.958c-4.182-5.667-9.528-10.46-15.577-14.061c-0.539-0.324-1.106-0.602-1.665-0.891
				c-0.75-0.389-1.502-0.776-2.255-1.158c-0.57-0.318-1.103-0.712-1.508-1.228c-0.367-0.469-0.599-1.1-0.48-1.702
				c0.115-0.59,0.547-1.083,1.039-1.407c0.694-0.452,1.525-0.643,2.335-0.672c0.752-0.04,1.5,0.053,2.237,0.157
				c2.872,0.411,5.662,1.465,8.047,3.126c2.092,1.453,3.878,3.38,5.088,5.627c0.503,0.92,0.903,1.893,1.207,2.888
				c0.063,0.209,0.101,0.428,0.191,0.631c-0.003-0.307-0.099-0.602-0.156-0.897c-0.614-2.669-1.858-5.175-3.569-7.312
				c-1.629-2.05-3.67-3.757-5.934-5.071c-2.712-1.575-5.74-2.582-8.836-3.016c-1.477-0.214-2.982-0.168-4.443,0.082
				c-1.248,0.226-2.466,0.613-3.587,1.209c-1.111,0.597-2.13,1.39-2.891,2.397c-0.452,0.596-0.802,1.262-1.033,1.968
				c-0.122,0.354-0.177,0.724-0.266,1.089c-0.359,1.296-0.278,2.708,0.214,3.959c0.454,1.158,1.242,2.165,2.2,2.941
				c0.64,0.521,1.352,0.949,2.107,1.279c0.698,0.312,1.441,0.498,2.165,0.741c0.698,0.209,1.401,0.405,2.11,0.591
				c1.077,0.231,2.153,0.486,3.233,0.735c1.525,0.353,3.039,0.77,4.515,1.302c5.528,1.957,10.583,5.209,14.672,9.412
				c3.334,3.416,6.041,7.444,7.946,11.821C51.041,64.651,51.203,64.894,51.342,65.144z"/>
			<path fill="#FFFFFF" d="M51.654,68.912c-0.926,0-1.834-0.394-2.471-1.13c-0.342-0.394-0.547-0.764-0.668-0.995l-0.032-0.058
				c-0.046-0.081-0.081-0.134-0.11-0.186c-0.122-0.209-0.29-0.486-0.443-0.839c-1.763-4.047-4.217-7.699-7.292-10.854
				c-3.757-3.855-8.399-6.836-13.421-8.614c-1.21-0.434-2.53-0.815-4.174-1.198c-1.06-0.249-2.122-0.498-3.181-0.724
				c-0.046-0.011-0.087-0.023-0.13-0.029c-0.808-0.214-1.534-0.417-2.22-0.619c-0.041-0.011-0.079-0.023-0.119-0.035
				c-0.203-0.069-0.408-0.139-0.611-0.197c-0.556-0.174-1.184-0.371-1.84-0.666c-1.017-0.44-1.98-1.031-2.832-1.72
				c-1.438-1.175-2.541-2.657-3.178-4.289c-0.75-1.893-0.868-4.018-0.338-5.974c0.02-0.087,0.037-0.168,0.055-0.255
				c0.063-0.29,0.142-0.654,0.283-1.065c0.327-1.013,0.845-1.997,1.522-2.888c1.007-1.337,2.344-2.449,3.962-3.312
				c1.381-0.735,2.912-1.25,4.55-1.54c1.89-0.324,3.733-0.353,5.476-0.104c3.531,0.498,6.999,1.679,10.012,3.427
				c2.709,1.575,5.013,3.549,6.857,5.87c2.026,2.529,3.479,5.505,4.191,8.608c0.009,0.028,0.015,0.063,0.021,0.098
				c0.008,0.041,0.023,0.087,0.035,0.133c0.055,0.237,0.13,0.562,0.167,0.955c0.018,0.145,0.029,0.29,0.029,0.446
				c0,1.447-0.944,2.674-2.246,3.103c1.034,1.181,2.015,2.397,2.938,3.647c3.589,4.862,6.312,10.217,8.093,15.925
				c0.008,0.028,0.019,0.064,0.026,0.099c0.014,0.046,0.031,0.093,0.048,0.14c0.082,0.248,0.203,0.624,0.271,1.081
				c0.218,1.441-0.544,2.848-1.863,3.456C52.584,68.813,52.117,68.912,51.654,68.912z M21.315,37.936
				c1.074,0.237,2.148,0.486,3.216,0.735c1.441,0.335,2.683,0.672,3.82,1.042c-0.587-0.382-1.184-0.753-1.786-1.111
				c-0.014-0.012-0.028-0.018-0.043-0.029c-0.286-0.179-0.636-0.359-1.01-0.539c-0.151-0.086-0.301-0.162-0.452-0.237l-0.509-0.266
				c-0.57-0.295-1.146-0.59-1.722-0.879c-0.026-0.018-0.052-0.029-0.078-0.047c-1.021-0.556-1.864-1.256-2.506-2.066
				c-1.013-1.302-1.416-2.888-1.123-4.359c0.142-0.712,0.434-1.389,0.866-1.991c-0.906,0.173-1.754,0.463-2.501,0.856
				c-0.761,0.405-1.389,0.915-1.815,1.482c-0.237,0.312-0.42,0.654-0.535,1.007c-0.029,0.093-0.067,0.254-0.093,0.376
				c-0.035,0.168-0.07,0.336-0.113,0.498c-0.006,0.023-0.011,0.046-0.017,0.069c-0.168,0.608-0.13,1.297,0.104,1.893
				c0.231,0.59,0.654,1.146,1.222,1.604c0.394,0.324,0.851,0.597,1.352,0.816c0.327,0.146,0.721,0.267,1.134,0.4
				c0.237,0.075,0.475,0.145,0.712,0.226C20.016,37.583,20.629,37.756,21.315,37.936z M29.929,32.992
				c2.842,1.69,5.54,3.642,8.043,5.801c-0.938-1.586-2.258-2.987-3.847-4.093c-1.563-1.083-3.375-1.875-5.3-2.321
				C29.174,32.558,29.553,32.761,29.929,32.992z"/>
		</g>
		<g>
			<path fill="#FFFFFF" d="M85.96,49.096c-0.312-1.152-0.965-2.188-1.734-3.091c-0.909-1.054-1.989-1.939-3.133-2.709
				c-1.057-0.717-2.172-1.343-3.325-1.887c-3.1-1.47-6.417-2.449-9.783-3.085c-3.352-0.625-6.764-0.915-10.17-0.811
				c-2.478,0.081-4.961,0.359-7.373,0.95c-1.253,0.312-2.509,0.677-3.642,1.313c-0.639,0.359-1.253,0.782-1.756,1.32
				c-0.379,0.411-0.697,0.891-0.865,1.429c-0.186,0.608-0.168,1.268,0.028,1.87c0.208,0.654,0.591,1.245,1.037,1.76
				c0.165,0.18,0.312,0.371,0.503,0.521c0.052-0.335,0.058-0.677,0.17-0.996c0.244-0.741,0.732-1.377,1.317-1.881
				c0.943-0.816,2.09-1.354,3.268-1.749c1.907-0.625,3.919-0.885,5.919-0.938c3.393-0.076,6.801,0.434,10.005,1.551
				c2.021,0.729,4.001,1.708,5.587,3.184c0.455,0.399,0.86,0.857,1.21,1.349c0.813,1.117,1.366,2.466,1.346,3.861
				c-0.006,1.297-0.541,2.542-1.357,3.531c-0.498,0.603-1.091,1.123-1.728,1.569c-0.44,0.307-0.909,0.567-1.36,0.851
				c-0.48,0.302-0.989,0.556-1.514,0.781c-3.709,1.754-6.964,4.517-9.179,7.977c-0.193,0.325-0.422,0.631-0.57,0.979
				c0.206-0.202,0.365-0.45,0.559-0.677c1.899-2.223,4.432-3.837,7.141-4.897c0.495-0.19,0.993-0.364,1.499-0.527
				c0.8-0.254,1.622-0.435,2.44-0.624c0.556-0.134,1.113-0.255,1.682-0.348c0.791-0.133,1.577-0.272,2.353-0.457
				c0.797-0.174,1.578-0.424,2.364-0.632c1.364-0.382,2.689-0.892,3.949-1.539c1.104-0.567,2.128-1.28,3.063-2.096
				c0.945-0.84,1.747-1.898,2.071-3.144C86.229,50.932,86.193,49.982,85.96,49.096z"/>
			<path fill="#FFFFFF" d="M58.861,70.023c-0.629,0-1.265-0.186-1.817-0.562c-1.305-0.868-1.806-2.547-1.191-3.993
				c0.214-0.504,0.473-0.903,0.658-1.198c0.044-0.07,0.087-0.134,0.126-0.196c0.012-0.024,0.025-0.041,0.04-0.064
				c2.512-3.931,6.153-7.098,10.534-9.176c0.039-0.017,0.076-0.035,0.115-0.052c0.422-0.18,0.766-0.359,1.061-0.544
				c0.174-0.11,0.389-0.237,0.606-0.371c0.23-0.139,0.45-0.266,0.618-0.388c0.429-0.295,0.79-0.625,1.08-0.973
				c0.385-0.469,0.604-0.996,0.607-1.459c0.009-0.602-0.245-1.273-0.718-1.927c-0.236-0.33-0.478-0.596-0.718-0.805
				c-0.026-0.023-0.052-0.046-0.074-0.069c-1.055-0.978-2.516-1.794-4.474-2.506c-2.76-0.961-5.766-1.424-8.82-1.355
				c-1.905,0.052-3.538,0.307-4.974,0.776c-0.941,0.312-1.647,0.677-2.147,1.111c-0.194,0.168-0.29,0.307-0.33,0.382
				c-0.003,0.023-0.006,0.052-0.006,0.075c-0.021,0.156-0.038,0.312-0.064,0.463c-0.182,1.141-0.949,2.095-2.017,2.519
				c-1.065,0.428-2.278,0.26-3.189-0.435c-0.408-0.312-0.692-0.637-0.866-0.828l-0.069-0.082c-0.023-0.028-0.046-0.052-0.07-0.075
				c-0.784-0.92-1.349-1.893-1.67-2.9c-0.405-1.233-0.419-2.599-0.037-3.826c0.292-0.961,0.83-1.87,1.592-2.698
				c0.677-0.724,1.51-1.36,2.559-1.939c1.458-0.828,2.999-1.274,4.44-1.639c2.495-0.608,5.125-0.949,8.063-1.042
				c0.501-0.018,1-0.029,1.493-0.029c3.083,0,6.239,0.301,9.382,0.886c3.919,0.747,7.479,1.875,10.588,3.352
				c1.346,0.637,2.61,1.355,3.751,2.125c1.531,1.042,2.765,2.113,3.774,3.282c1.202,1.401,2.012,2.871,2.42,4.382
				c0.398,1.499,0.408,3.022,0.021,4.422c-0.461,1.726-1.515,3.357-3.055,4.724c-1.175,1.025-2.422,1.877-3.736,2.56
				c-1.403,0.724-2.938,1.325-4.563,1.782c-0.281,0.075-0.525,0.145-0.77,0.215c-0.56,0.155-1.14,0.324-1.762,0.462
				c-0.786,0.181-1.582,0.331-2.526,0.487c-0.438,0.075-0.886,0.162-1.476,0.307l-0.389,0.087c-0.647,0.15-1.256,0.295-1.813,0.475
				c-0.457,0.138-0.892,0.295-1.3,0.451c-2.405,0.943-4.423,2.315-5.836,3.978c-0.022,0.028-0.045,0.053-0.069,0.08
				c-0.022,0.029-0.052,0.07-0.083,0.11c-0.137,0.168-0.319,0.406-0.574,0.66C60.556,69.688,59.713,70.023,58.861,70.023z
				 M74.239,43.452c0.595,0.527,1.146,1.146,1.642,1.841c1.309,1.795,1.991,3.815,1.957,5.824c-0.006,1.395-0.395,2.819-1.115,4.104
				c0.921-0.295,1.804-0.66,2.616-1.082c0.854-0.439,1.667-0.995,2.423-1.649c0.545-0.493,0.933-1.031,1.057-1.511
				c0.004-0.018,0.008-0.035,0.012-0.059c0.081-0.266,0.069-0.614-0.028-0.979c-0.151-0.556-0.511-1.169-1.062-1.817
				c-0.622-0.712-1.438-1.418-2.483-2.125c-0.859-0.584-1.838-1.135-2.885-1.632C75.687,44.043,74.978,43.736,74.239,43.452z"/>
		</g>
		<g>
			<path fill="#FFFFFF" d="M59.038,43.47c-0.211,0.006-0.402,0.104-0.596,0.186c-1.202,0.486-2.307,1.181-3.358,1.939
				c-0.153,0.098-0.351,0.075-0.524,0.086c-1.739,0.122-3.466,0.423-5.14,0.909c-0.327,0.104-0.665,0.18-0.975,0.33
				c0.333,0.012,0.657-0.069,0.99-0.093c1.068-0.093,2.146-0.116,3.219-0.069c0.324,0.012,0.651,0.029,0.97,0.069
				c-0.492,0.596-0.976,1.204-1.367,1.87c-0.065,0.098-0.121,0.243-0.266,0.243c-0.706,0.087-1.404,0.231-2.101,0.382
				c-0.078,0.018-0.156,0.046-0.229,0.087c0.683,0.075,1.375,0.058,2.055,0.185c-0.086,0.278-0.225,0.532-0.323,0.805
				c-0.819,1.992-1.1,4.208-0.796,6.344c0.025,0.151,0.025,0.308,0.086,0.446c0.406-2.356,1.176-4.648,2.312-6.75
				c0.102-0.173,0.169-0.382,0.313-0.527c0.289,0.029,0.573,0.128,0.862,0.191c1.826,0.452,3.612,1.082,5.305,1.91
				c0.247,0.128,0.504,0.231,0.733,0.4c-0.113,0.179-0.276,0.318-0.418,0.474c-0.361,0.406-0.705,0.828-1.029,1.263
				c-0.087,0.115-0.162,0.243-0.264,0.347c-0.191-0.058-0.355-0.173-0.541-0.255c-1.474-0.683-3.138-0.948-4.753-0.758
				c0.031,0.093,0.147,0.093,0.229,0.122c1.396,0.271,2.75,0.746,4.018,1.384c0.165,0.086,0.335,0.155,0.48,0.271
				c-0.061,0.203-0.202,0.37-0.301,0.562c-0.318,0.613-0.661,1.204-0.93,1.835c-0.689,1.517-1.149,3.132-1.4,4.782
				c-0.085,0.688-0.188,1.383-0.18,2.083c0.099,0.075,0.134-0.075,0.162-0.14c1.04-2.865,2.519-5.562,4.312-8.017
				c0.14,0.069,0.258,0.18,0.377,0.272c0.494,0.405,0.949,0.856,1.377,1.332c0.125,0.133,0.22,0.295,0.336,0.438
				c0.055-0.139-0.015-0.283-0.061-0.411c-0.246-0.636-0.593-1.227-1.01-1.76c-0.142-0.19-0.33-0.347-0.481-0.532
				c0.059-0.121,0.154-0.226,0.24-0.341c0.402-0.498,0.82-0.996,1.251-1.471c0.127-0.133,0.24-0.289,0.386-0.405
				c0.135,0.063,0.244,0.168,0.363,0.255c0.545,0.388,1.063,0.805,1.54,1.268c0.339,0.307,0.628,0.654,0.947,0.967
				c-0.146-0.526-0.376-1.036-0.648-1.511c-0.287-0.516-0.665-0.967-1.062-1.396c-0.119-0.133-0.257-0.249-0.358-0.394
				c0.102-0.133,0.231-0.237,0.35-0.364c0.449-0.435,0.906-0.857,1.378-1.263c0.107-0.092,0.202-0.191,0.321-0.26
				c0.043,0.018,0.081,0.035,0.119,0.058c1.389,0.972,2.68,2.09,3.811,3.357c0.166,0.174,0.293,0.388,0.469,0.562
				c-0.008-0.29-0.095-0.556-0.174-0.828c-0.462-1.517-1.376-2.859-2.499-3.965c-0.107-0.104-0.227-0.196-0.325-0.312
				c0.119-0.121,0.264-0.208,0.4-0.312c1.203-0.886,2.46-1.708,3.773-2.42c-0.637,0.012-1.244,0.214-1.849,0.388
				c-1.069,0.324-2.107,0.741-3.107,1.239c-0.114,0.058-0.222,0.126-0.35,0.167c-0.046-0.023-0.089-0.052-0.133-0.082
				c-1.16-0.827-2.442-1.47-3.778-1.957c-1.504-0.55-3.091-0.88-4.688-1.03c0.651-0.625,1.313-1.245,2.037-1.782
				C58.711,43.742,58.907,43.643,59.038,43.47z M59.841,48.211c1.191,0.44,2.357,0.961,3.452,1.609
				c-0.142,0.127-0.307,0.22-0.46,0.33c-0.382,0.278-0.752,0.573-1.12,0.879c-0.15,0.116-0.274,0.262-0.443,0.365
				c-0.118-0.058-0.223-0.139-0.329-0.22c-2.069-1.39-4.53-2.171-7.017-2.281c0.336-0.562,0.741-1.083,1.137-1.592
				c0.073-0.093,0.134-0.185,0.232-0.255c0.084-0.012,0.168,0.006,0.255,0.017C57.01,47.308,58.45,47.696,59.841,48.211z"/>
			<path fill="#FFFFFF" d="M55.168,67.816c-0.731,0-1.455-0.254-2.04-0.699c-0.796-0.613-1.268-1.551-1.279-2.553
				c-0.009-0.828,0.087-1.58,0.168-2.234l0.038-0.283c0.002-0.041,0.006-0.071,0.014-0.105c0.104-0.683,0.237-1.354,0.4-2.008
				c-0.408,0.266-0.883,0.439-1.391,0.503c-1.432,0.174-2.813-0.608-3.395-1.934c-0.237-0.55-0.292-1.019-0.318-1.25l0.006,0.046
				c-0.006-0.034-0.009-0.069-0.015-0.098c-0.251-1.771-0.188-3.572,0.174-5.314c-0.55-0.469-0.94-1.123-1.082-1.87
				c-0.035-0.186-0.055-0.371-0.055-0.55c-0.573-0.463-0.99-1.117-1.149-1.881c-0.31-1.477,0.434-2.97,1.797-3.618
				c0.451-0.214,0.859-0.336,1.158-0.423c0.069-0.023,0.142-0.04,0.208-0.069c0.032-0.006,0.064-0.011,0.098-0.029
				c1.726-0.497,3.529-0.833,5.357-0.989c1.188-0.799,2.262-1.39,3.346-1.83l0.073-0.035c0.281-0.116,0.868-0.365,1.646-0.394
				c1.269-0.046,2.438,0.648,3.017,1.771c0.269,0.516,0.385,1.083,0.359,1.645c0.008,0,0.012,0,0.017,0
				c1.068,0.393,2.084,0.856,3.03,1.4c0.738-0.318,1.499-0.59,2.259-0.822c0.016-0.006,0.031-0.012,0.048-0.018l0.183-0.052
				c0.672-0.197,1.505-0.44,2.509-0.463c1.525-0.029,2.841,0.973,3.225,2.438c0.39,1.458-0.274,2.993-1.601,3.71
				c-0.317,0.173-0.643,0.358-0.963,0.55c0.506,0.839,0.906,1.725,1.181,2.622c0.007,0.018,0.011,0.035,0.018,0.053l0.018,0.069
				c0.081,0.272,0.193,0.654,0.248,1.123c0.029,0.18,0.044,0.358,0.044,0.544c0,1.795-1.45,3.259-3.244,3.271
				c-0.56-0.006-1.097-0.133-1.586-0.394c-0.567,0.956-1.604,1.598-2.794,1.604c-0.015,0-0.028,0-0.047,0
				c-0.031,0.121-0.074,0.243-0.121,0.364c-0.426,1.077-1.396,1.853-2.547,2.026c-0.663,0.104-1.332,0-1.916-0.289
				c-0.758,1.36-1.398,2.744-1.907,4.144c-0.021,0.06-0.044,0.117-0.066,0.181C57.637,67.257,56.254,67.816,55.168,67.816z"/>
		</g>
		<g>
			<path fill="#FFFFFF" d="M75.961,63.487c-0.853-1.019-2.045-1.748-3.339-2.055c-0.237-0.052-0.472-0.093-0.709-0.122
				c-0.544-0.063-1.1-0.068-1.644,0.012c-1.879,0.244-3.602,1.413-4.548,3.046c-0.779,1.337-1.042,2.964-0.737,4.479
				c0.251,1.222,0.879,2.367,1.776,3.242c0.911,0.891,2.104,1.482,3.363,1.69c0.093,0.013,0.188,0.023,0.287,0.04
				c1.337,0.162,2.728-0.114,3.895-0.799c1.027-0.597,1.892-1.487,2.432-2.547c0.628-1.222,0.852-2.651,0.616-4
				C77.166,65.374,76.68,64.333,75.961,63.487z M73.322,68.731c-0.261,0.412-0.652,0.729-1.095,0.926
				c-0.414,0.174-0.87,0.238-1.319,0.186c-0.246-0.034-0.493-0.103-0.718-0.196c-0.694-0.312-1.241-0.942-1.415-1.684
				c-0.14-0.562-0.058-1.176,0.218-1.686c0.307-0.584,0.858-1.03,1.493-1.204c0.332-0.098,0.683-0.127,1.024-0.081
				c0.121,0.012,0.24,0.034,0.359,0.064c0.826,0.22,1.521,0.896,1.75,1.724C73.803,67.435,73.702,68.164,73.322,68.731z"/>
			<path fill="#FFFFFF" d="M71.163,77.132L71.163,77.132c-0.385,0-0.772-0.018-1.149-0.069c-0.147-0.018-0.292-0.035-0.439-0.063
				c-1.913-0.313-3.726-1.229-5.103-2.576c-1.35-1.309-2.308-3.062-2.689-4.927c-0.469-2.298-0.061-4.765,1.113-6.779
				c1.46-2.518,4.051-4.254,6.928-4.636c0.796-0.109,1.638-0.116,2.485-0.012c0.333,0.04,0.678,0.099,1.022,0.174
				c2.02,0.474,3.826,1.585,5.132,3.138c1.094,1.29,1.829,2.865,2.113,4.545c0.355,2.03,0.025,4.189-0.933,6.049
				c-0.821,1.603-2.102,2.945-3.696,3.871C74.519,76.686,72.855,77.132,71.163,77.132z M70.585,66.943
				c-0.103,0.168-0.197,0.417-0.113,0.718c0.055,0.196,0.2,0.463,0.556,0.556c0.043,0.012,0.072,0.019,0.102,0.019
				c0.055,0.012,0.173,0.005,0.269-0.024c0.214-0.069,0.376-0.202,0.483-0.398c0.099-0.192,0.127-0.412,0.069-0.638
				c-0.055-0.231-0.206-0.422-0.446-0.526c-0.048-0.023-0.127-0.046-0.208-0.053c-0.101-0.012-0.246,0.007-0.373,0.058
				C70.793,66.712,70.676,66.811,70.585,66.943z"/>
		</g>
		<g>
			<path fill="#FFFFFF" d="M55.872,70.897c-0.648-0.526-1.43-0.874-2.249-1.024c-0.104-0.019-0.215-0.035-0.321-0.046
				c-1.175-0.146-2.402,0.127-3.392,0.781c-1.077,0.7-1.87,1.816-2.163,3.067c-0.344,1.39-0.072,2.935,0.752,4.109
				c0.698,1.024,1.789,1.772,2.993,2.05c0.194,0.052,0.389,0.087,0.592,0.116c1.29,0.151,2.639-0.196,3.67-0.996
				c0.942-0.694,1.614-1.736,1.889-2.871c0.151-0.7,0.197-1.425,0.059-2.125C57.489,72.761,56.826,71.655,55.872,70.897z
				 M54.61,76.386c-0.423,0.532-1.086,0.867-1.763,0.908c-0.15,0.012-0.301,0-0.449-0.012c-0.488-0.063-0.961-0.272-1.332-0.597
				c-0.563-0.492-0.876-1.262-0.798-2.002c0.061-0.683,0.452-1.321,1.013-1.703c0.489-0.335,1.1-0.484,1.688-0.41
				c0.018,0,0.035,0.006,0.053,0.006c0.951,0.121,1.794,0.857,2.02,1.795C55.221,75.065,55.057,75.823,54.61,76.386z"/>
			<path fill="#FFFFFF" d="M52.688,83.256L52.688,83.256c-0.332,0-0.671-0.022-0.998-0.064c-0.324-0.034-0.648-0.098-0.97-0.178
				c-1.977-0.469-3.769-1.697-4.92-3.376c-1.334-1.909-1.797-4.445-1.224-6.756c0.475-2.025,1.777-3.867,3.562-5.024
				c1.317-0.867,2.9-1.342,4.55-1.342c0.336,0,0.678,0.022,1.008,0.057c0.174,0.023,0.361,0.053,0.547,0.087
				c1.319,0.238,2.608,0.828,3.682,1.69c1.543,1.221,2.64,3.051,2.989,5.009c0.209,1.07,0.183,2.223-0.074,3.414
				c-0.006,0.029-0.009,0.053-0.018,0.075c-0.457,1.898-1.555,3.572-3.098,4.725C56.303,82.654,54.517,83.256,52.688,83.256z
				 M52.877,74.046l-0.18,1.771c0.152,0,0.301-0.047,0.434-0.138c0.274-0.192,0.367-0.465,0.391-0.673
				c0.021-0.231-0.026-0.544-0.315-0.798C53.125,74.139,53.01,74.081,52.877,74.046z M52.58,75.817c0.006,0,0.012,0,0.019,0
				l0.231-1.776c-0.012-0.006-0.026-0.006-0.035-0.012c-0.061,0-0.121,0-0.182,0c-0.258,0.017-0.455,0.18-0.573,0.33
				c-0.18,0.237-0.238,0.515-0.171,0.804c0.058,0.221,0.229,0.58,0.7,0.654C52.572,75.817,52.578,75.817,52.58,75.817z"/>
		</g>
	</g>
	<g>
		<radialGradient id="SVGID_1_" cx="50.5361" cy="40.2495" r="76.2742" gradientUnits="userSpaceOnUse">
			<stop  offset="0" style="stop-color:#ECBA31"/>
			<stop  offset="0.3576" style="stop-color:#CB2229"/>
			<stop  offset="0.6606" style="stop-color:#A22430"/>
			<stop  offset="1" style="stop-color:#540000"/>
		</radialGradient>
		<path fill="url(#SVGID_1_)" d="M51.342,65.144c0.094,0.174,0.18,0.348,0.312,0.498c-0.046-0.29-0.158-0.556-0.237-0.835
			c-1.673-5.364-4.266-10.437-7.601-14.958c-4.182-5.667-9.528-10.46-15.577-14.061c-0.539-0.324-1.106-0.602-1.665-0.891
			c-0.75-0.389-1.502-0.776-2.255-1.158c-0.57-0.318-1.103-0.712-1.508-1.228c-0.367-0.469-0.599-1.1-0.48-1.702
			c0.115-0.59,0.547-1.083,1.039-1.407c0.694-0.452,1.525-0.643,2.335-0.672c0.752-0.04,1.5,0.053,2.237,0.157
			c2.872,0.411,5.662,1.465,8.047,3.126c2.092,1.453,3.878,3.38,5.088,5.627c0.503,0.92,0.903,1.893,1.207,2.888
			c0.063,0.209,0.101,0.428,0.191,0.631c-0.003-0.307-0.099-0.602-0.156-0.897c-0.614-2.669-1.858-5.175-3.569-7.312
			c-1.629-2.05-3.67-3.757-5.934-5.071c-2.712-1.575-5.74-2.582-8.836-3.016c-1.477-0.214-2.982-0.168-4.443,0.082
			c-1.248,0.226-2.466,0.613-3.587,1.209c-1.111,0.597-2.13,1.39-2.891,2.397c-0.452,0.596-0.802,1.262-1.033,1.968
			c-0.122,0.354-0.177,0.724-0.266,1.089c-0.359,1.296-0.278,2.708,0.214,3.959c0.454,1.158,1.242,2.165,2.2,2.941
			c0.64,0.521,1.352,0.949,2.107,1.279c0.698,0.312,1.441,0.498,2.165,0.741c0.698,0.209,1.401,0.405,2.11,0.591
			c1.077,0.231,2.153,0.486,3.233,0.735c1.525,0.353,3.039,0.77,4.515,1.302c5.528,1.957,10.583,5.209,14.672,9.412
			c3.334,3.416,6.041,7.444,7.946,11.821C51.041,64.651,51.203,64.894,51.342,65.144z"/>
		<radialGradient id="SVGID_2_" cx="50.5352" cy="40.2485" r="76.2693" gradientUnits="userSpaceOnUse">
			<stop  offset="0" style="stop-color:#ECBA31"/>
			<stop  offset="0.3576" style="stop-color:#CB2229"/>
			<stop  offset="0.6606" style="stop-color:#A22430"/>
			<stop  offset="1" style="stop-color:#540000"/>
		</radialGradient>
		<path fill="url(#SVGID_2_)" d="M85.96,49.096c-0.312-1.152-0.965-2.188-1.734-3.091c-0.909-1.054-1.989-1.939-3.133-2.709
			c-1.057-0.717-2.172-1.343-3.325-1.887c-3.1-1.47-6.417-2.449-9.783-3.085c-3.352-0.625-6.764-0.915-10.17-0.811
			c-2.478,0.081-4.961,0.359-7.373,0.95c-1.253,0.312-2.509,0.677-3.642,1.313c-0.639,0.359-1.253,0.782-1.756,1.32
			c-0.379,0.411-0.697,0.891-0.865,1.429c-0.186,0.608-0.168,1.268,0.028,1.87c0.208,0.654,0.591,1.245,1.037,1.76
			c0.165,0.18,0.312,0.371,0.503,0.521c0.052-0.335,0.058-0.677,0.17-0.996c0.244-0.741,0.732-1.377,1.317-1.881
			c0.943-0.816,2.09-1.354,3.268-1.749c1.907-0.625,3.919-0.885,5.919-0.938c3.393-0.076,6.801,0.434,10.005,1.551
			c2.021,0.729,4.001,1.708,5.587,3.184c0.455,0.399,0.86,0.857,1.21,1.349c0.813,1.117,1.366,2.466,1.346,3.861
			c-0.006,1.297-0.541,2.542-1.357,3.531c-0.498,0.603-1.091,1.123-1.728,1.569c-0.44,0.307-0.909,0.567-1.36,0.851
			c-0.48,0.302-0.989,0.556-1.514,0.781c-3.709,1.754-6.964,4.517-9.179,7.977c-0.193,0.325-0.422,0.631-0.57,0.979
			c0.206-0.202,0.365-0.45,0.559-0.677c1.899-2.223,4.432-3.837,7.141-4.897c0.495-0.19,0.993-0.364,1.499-0.527
			c0.8-0.254,1.622-0.435,2.44-0.624c0.556-0.134,1.113-0.255,1.682-0.348c0.791-0.133,1.577-0.272,2.353-0.457
			c0.797-0.174,1.578-0.424,2.364-0.632c1.364-0.382,2.689-0.892,3.949-1.539c1.104-0.567,2.128-1.28,3.063-2.096
			c0.945-0.84,1.747-1.898,2.071-3.144C86.229,50.932,86.193,49.982,85.96,49.096z"/>
		<radialGradient id="SVGID_3_" cx="50.5342" cy="40.25" r="76.2715" gradientUnits="userSpaceOnUse">
			<stop  offset="0" style="stop-color:#ECBA31"/>
			<stop  offset="0.3576" style="stop-color:#CB2229"/>
			<stop  offset="0.6606" style="stop-color:#A22430"/>
			<stop  offset="1" style="stop-color:#540000"/>
		</radialGradient>
		<path fill="url(#SVGID_3_)" d="M59.038,43.47c-0.211,0.006-0.402,0.104-0.596,0.186c-1.202,0.486-2.307,1.181-3.358,1.939
			c-0.153,0.098-0.351,0.075-0.524,0.086c-1.739,0.122-3.466,0.423-5.14,0.909c-0.327,0.104-0.665,0.18-0.975,0.33
			c0.333,0.012,0.657-0.069,0.99-0.093c1.068-0.093,2.146-0.116,3.219-0.069c0.324,0.012,0.651,0.029,0.97,0.069
			c-0.492,0.596-0.976,1.204-1.367,1.87c-0.065,0.098-0.121,0.243-0.266,0.243c-0.706,0.087-1.404,0.231-2.101,0.382
			c-0.078,0.018-0.156,0.046-0.229,0.087c0.683,0.075,1.375,0.058,2.055,0.185c-0.086,0.278-0.225,0.532-0.323,0.805
			c-0.819,1.992-1.1,4.208-0.796,6.344c0.025,0.151,0.025,0.308,0.086,0.446c0.406-2.356,1.176-4.648,2.312-6.75
			c0.102-0.173,0.169-0.382,0.313-0.527c0.289,0.029,0.573,0.128,0.862,0.191c1.826,0.452,3.612,1.082,5.305,1.91
			c0.247,0.128,0.504,0.231,0.733,0.4c-0.113,0.179-0.276,0.318-0.418,0.474c-0.361,0.406-0.705,0.828-1.029,1.263
			c-0.087,0.115-0.162,0.243-0.264,0.347c-0.191-0.058-0.355-0.173-0.541-0.255c-1.474-0.683-3.138-0.948-4.753-0.758
			c0.031,0.093,0.147,0.093,0.229,0.122c1.396,0.271,2.75,0.746,4.018,1.384c0.165,0.086,0.335,0.155,0.48,0.271
			c-0.061,0.203-0.202,0.37-0.301,0.562c-0.318,0.613-0.661,1.204-0.93,1.835c-0.689,1.517-1.149,3.132-1.4,4.782
			c-0.085,0.688-0.188,1.383-0.18,2.083c0.099,0.075,0.134-0.075,0.162-0.14c1.04-2.865,2.519-5.562,4.312-8.017
			c0.14,0.069,0.258,0.18,0.377,0.272c0.494,0.405,0.949,0.856,1.377,1.332c0.125,0.133,0.22,0.295,0.336,0.438
			c0.055-0.139-0.015-0.283-0.061-0.411c-0.246-0.636-0.593-1.227-1.01-1.76c-0.142-0.19-0.33-0.347-0.481-0.532
			c0.059-0.121,0.154-0.226,0.24-0.341c0.402-0.498,0.82-0.996,1.251-1.471c0.127-0.133,0.24-0.289,0.386-0.405
			c0.135,0.063,0.244,0.168,0.363,0.255c0.545,0.388,1.063,0.805,1.54,1.268c0.339,0.307,0.628,0.654,0.947,0.967
			c-0.146-0.526-0.376-1.036-0.648-1.511c-0.287-0.516-0.665-0.967-1.062-1.396c-0.119-0.133-0.257-0.249-0.358-0.394
			c0.102-0.133,0.231-0.237,0.35-0.364c0.449-0.435,0.906-0.857,1.378-1.263c0.107-0.092,0.202-0.191,0.321-0.26
			c0.043,0.018,0.081,0.035,0.119,0.058c1.389,0.972,2.68,2.09,3.811,3.357c0.166,0.174,0.293,0.388,0.469,0.562
			c-0.008-0.29-0.095-0.556-0.174-0.828c-0.462-1.517-1.376-2.859-2.499-3.965c-0.107-0.104-0.227-0.196-0.325-0.312
			c0.119-0.121,0.264-0.208,0.4-0.312c1.203-0.886,2.46-1.708,3.773-2.42c-0.637,0.012-1.244,0.214-1.849,0.388
			c-1.069,0.324-2.107,0.741-3.107,1.239c-0.114,0.058-0.222,0.126-0.35,0.167c-0.046-0.023-0.089-0.052-0.133-0.082
			c-1.16-0.827-2.442-1.47-3.778-1.957c-1.504-0.55-3.091-0.88-4.688-1.03c0.651-0.625,1.313-1.245,2.037-1.782
			C58.711,43.742,58.907,43.643,59.038,43.47z M59.841,48.211c1.191,0.44,2.357,0.961,3.452,1.609
			c-0.142,0.127-0.307,0.22-0.46,0.33c-0.382,0.278-0.752,0.573-1.12,0.879c-0.15,0.116-0.274,0.262-0.443,0.365
			c-0.118-0.058-0.223-0.139-0.329-0.22c-2.069-1.39-4.53-2.171-7.017-2.281c0.336-0.562,0.741-1.083,1.137-1.592
			c0.073-0.093,0.134-0.185,0.232-0.255c0.084-0.012,0.168,0.006,0.255,0.017C57.01,47.308,58.45,47.696,59.841,48.211z"/>
		<radialGradient id="SVGID_4_" cx="50.5352" cy="40.2446" r="76.2823" gradientUnits="userSpaceOnUse">
			<stop  offset="0" style="stop-color:#ECBA31"/>
			<stop  offset="0.3576" style="stop-color:#CB2229"/>
			<stop  offset="0.6606" style="stop-color:#A22430"/>
			<stop  offset="1" style="stop-color:#540000"/>
		</radialGradient>
		<path fill="url(#SVGID_4_)" d="M75.961,63.487c-0.853-1.019-2.045-1.748-3.339-2.055c-0.237-0.052-0.472-0.093-0.709-0.122
			c-0.544-0.063-1.1-0.068-1.644,0.012c-1.879,0.244-3.602,1.413-4.548,3.046c-0.779,1.337-1.042,2.964-0.737,4.479
			c0.251,1.222,0.879,2.367,1.776,3.242c0.911,0.891,2.104,1.482,3.363,1.69c0.093,0.013,0.188,0.023,0.287,0.04
			c1.337,0.162,2.728-0.114,3.895-0.799c1.027-0.597,1.892-1.487,2.432-2.547c0.628-1.222,0.852-2.651,0.616-4
			C77.166,65.374,76.68,64.333,75.961,63.487z M73.322,68.731c-0.261,0.412-0.652,0.729-1.095,0.926
			c-0.414,0.174-0.87,0.238-1.319,0.186c-0.246-0.034-0.493-0.103-0.718-0.196c-0.694-0.312-1.241-0.942-1.415-1.684
			c-0.14-0.562-0.058-1.176,0.218-1.686c0.307-0.584,0.858-1.03,1.493-1.204c0.332-0.098,0.683-0.127,1.024-0.081
			c0.121,0.012,0.24,0.034,0.359,0.064c0.826,0.22,1.521,0.896,1.75,1.724C73.803,67.435,73.702,68.164,73.322,68.731z"/>
		<radialGradient id="SVGID_5_" cx="50.5361" cy="40.2544" r="76.2691" gradientUnits="userSpaceOnUse">
			<stop  offset="0" style="stop-color:#ECBA31"/>
			<stop  offset="0.3576" style="stop-color:#CB2229"/>
			<stop  offset="0.6606" style="stop-color:#A22430"/>
			<stop  offset="1" style="stop-color:#540000"/>
		</radialGradient>
		<path fill="url(#SVGID_5_)" d="M55.872,70.897c-0.648-0.526-1.43-0.874-2.249-1.024c-0.104-0.019-0.215-0.035-0.321-0.046
			c-1.175-0.146-2.402,0.127-3.392,0.781c-1.077,0.7-1.87,1.816-2.163,3.067c-0.344,1.39-0.072,2.935,0.752,4.109
			c0.698,1.024,1.789,1.772,2.993,2.05c0.194,0.052,0.389,0.087,0.592,0.116c1.29,0.151,2.639-0.196,3.67-0.996
			c0.942-0.694,1.614-1.736,1.889-2.871c0.151-0.7,0.197-1.425,0.059-2.125C57.489,72.761,56.826,71.655,55.872,70.897z
			 M54.61,76.386c-0.423,0.532-1.086,0.867-1.763,0.908c-0.15,0.012-0.301,0-0.449-0.012c-0.488-0.063-0.961-0.272-1.332-0.597
			c-0.563-0.492-0.876-1.262-0.798-2.002c0.061-0.683,0.452-1.321,1.013-1.703c0.489-0.335,1.1-0.484,1.688-0.41
			c0.018,0,0.035,0.006,0.053,0.006c0.951,0.121,1.794,0.857,2.02,1.795C55.221,75.065,55.057,75.823,54.61,76.386z"/>
	</g>
</g>
</svg>
