<?xml version="1.0" encoding="utf-8"?>
<!-- Generator: Adobe Illustrator 18.1.0, SVG Export Plug-In . SVG Version: 6.00 Build 0)  -->
<svg version="1.0" id="Layer_1" xmlns="http://www.w3.org/2000/svg" xmlns:xlink="http://www.w3.org/1999/xlink" x="0px" y="0px"
	 viewBox="0 0 150 150" enable-background="new 0 0 150 150" xml:space="preserve">
<g>
	<path fill="none" d="M68.9,56.2c0,0-0.1,0.2-0.1,0.3l0.5-0.5C69.1,56.1,68.9,56.1,68.9,56.2z"/>
	<path fill="#F27151" d="M69.5,36.3c-0.5,0.3-1.1,0.5-1.7,0.7l-0.4,1c0-0.1,0-0.2,0-0.3l-0.2,0L67.1,38c-0.7-0.1-1.5-0.3-1.7-0.6
		c-0.3-0.6,0.5-1,0.4-1.8c-0.1-0.7-1.4-1.9-1.4-1.9s0.9,1.5,0.8,2.2c-0.1,0.7-1,1-0.6,1.7c0.2,0.5,1.6,0.5,2.5,0.5l0,0.1
		c0.3,0,0.6,0.1,0.9,0.2l0.1,1.9c0.5-0.1,0.9-0.2,1.4-0.3L69.5,36.3z"/>
	<path fill="#F27151" d="M52,54.9c0.4-1.8,1.4-3.6,2.5-5.3c-5-2.2-10.9-5.6-12.8-12.1l-35,35L29.1,95l26.6-26.6
		c-0.5-0.4-0.9-0.8-1.3-1.2C51.9,64.4,50.9,59.2,52,54.9z"/>
	<path fill="#F27151" d="M81.7,22.7l0,2.4c2.2-2.8,6.1-4.6,10.9-4.8L86.3,14C86.2,17.5,84.5,20.7,81.7,22.7z"/>
	<path fill="#F27151" d="M67.4,37.2C67.4,37.2,67.4,37.2,67.4,37.2C67.4,37.2,67.4,37.2,67.4,37.2L67.4,37.2z"/>
	<path fill="#F27151" d="M69.4,24.8v-1.9c-2.8-1.8-4.5-4.9-4.8-8.3L59,20.3C63.5,20.6,67.2,22.2,69.4,24.8z"/>
	<path fill="#F27151" d="M84.2,38.7c0.1,0,0.1,0,0.2,0l0-0.1c-0.3,0-0.6,0-0.6,0s0.2,0,0.6,0l-0.1-0.3c0.3,0,3,0.2,3.3-0.5
		c0.3-0.8-0.5-1.1-0.6-1.7c-0.1-0.7,0.8-2.2,0.8-2.2s-1.3,1.2-1.4,1.9c-0.1,0.8,0.7,1.2,0.4,1.8c-0.3,0.5-2.2,0.7-2.4,0.7l-0.1-0.2
		l-0.1,0.4l-0.3-0.7L83.7,37c-0.8-0.2-1.5-0.6-2.1-1l0,2.9c0.2,0,0.5,0,0.7-0.1L84.2,38.7z"/>
	<path fill="#F89F5C" d="M96.8,49.7C96.7,49.8,96.7,49.8,96.8,49.7c3.1,4.9,3.4,11.9,0.5,15.9c-1.8,2.4-4.2,4.1-6.8,5.5
		c1.7,1.2,3,2.8,3.8,4.7l27-27l-11.4-11.4C107.9,44,101.8,47.5,96.8,49.7z"/>
	<path fill="#F89F5C" d="M59.6,97c0.5-2.1,1.4-3.7,2.5-5.1c-2.9-1.3-5.3-3.8-6.4-6.9c-1.3-3.8-0.7-8,1.6-11.4
		c0.6-0.9,1.4-1.7,2.3-2.5c-0.8-0.5-2-1.2-3.3-2.1L29.7,95.6l22.4,22.4l10.6-10.6C59.8,105.1,58.6,101.4,59.6,97z"/>
	<path fill="#F89F5C" d="M97.5,33.5c-0.4,0-1.2,0.6-1.8,1c-1.1,0.8-2.5,1.9-4.3,2.4c-0.6,0.1-1.2,0.2-1.7,0.3c0,0.1,0,0.2,0,0.3
		C92.8,36.6,95.4,35.3,97.5,33.5C97.5,33.5,97.5,33.5,97.5,33.5z"/>
	<path fill="#893D28" d="M67,119.6c-2.6-1.1-4.5-3.2-4.9-5.9c-0.3-2.1,0.2-3.9,1.1-5.5l-10.5,10.5l7.9,7.9
		C62.2,123.9,64.5,121.5,67,119.6z"/>
	<path fill="#893D28" d="M89.5,92.1c-0.1,0.1-0.3,0.2-0.5,0.3c0.6,1.3,1.2,2.9,1.3,4.6c0.3,4.5-1.2,7.6-3.4,9.8l0.1,0.2
		c1.6,3.6,2.1,9.9-1.7,12.6c0,0-0.1,0-0.1,0.1c2.4,1.5,4.5,3.2,5.9,5.2l0.1,0.2l53-53l-22.4-22.4L94.6,77c0.2,0.8,0.4,1.6,0.5,2.4
		C95.5,84.5,93.3,89.5,89.5,92.1z"/>
	<path fill="#893D28" d="M68.8,127.1c-2,0.7-3.8,1.4-5.4,2.1l8.4,8.4c-0.2-2.9-0.5-6.6-0.7-11.3C70.3,126.6,69.5,126.9,68.8,127.1z"
		/>
	<path fill="#893D28" d="M79.5,136.9l8.3-8.3c-2.7-0.2-5.5-1.4-7.6-2.6C79.9,130.5,79.7,134.1,79.5,136.9z"/>
	<path fill="#FFFFFF" d="M66.5,26.7c-0.5,0-0.8,0.4-0.8,0.8c0,0.4,0.3,0.8,0.8,0.8s0.8-0.4,0.8-0.8C67.3,27.1,67,26.7,66.5,26.7z"/>
	<path fill="#FFFFFF" d="M84.9,27.5c0,0.4,0.4,0.8,0.8,0.8c0.5,0,0.8-0.4,0.8-0.8c0-0.4-0.4-0.8-0.8-0.8
		C85.2,26.7,84.9,27.1,84.9,27.5z"/>
	<path fill="#F27151" d="M84.4,117.3c2.3-1.8,2.2-6.5,0.8-9.7c-1.6,1-5.9,2.8-5.9,2.8s0.8,3.2-0.5,4.5c-1.5,1.4-6,3.9-7.5,4.7
		c-3.5,1.9-6.8,4.4-8.9,7.1C68.5,124.2,79.3,121.1,84.4,117.3z"/>
	<path fill="#F27151" d="M82.3,53.3c2.3,0.9,3.4,2.1,2.9,5c-1,6-9.7,6.7-15.2,9.2c-3.7,1.7-8.2,4.2-10.2,7.1
		c-4.1,5.8-1.2,13.4,4.7,15.2c7.7-4-0.9,0.4,7.7-4c-2.5-1.2-4.3-3.7-3.2-7c0.5-1.7,3.8-3.6,6.3-4.5c7-2.5,16.1-4.6,20.4-10.5
		c2.4-3.2,2-9.3-0.8-13.4C90.8,51.3,86.5,52.4,82.3,53.3z"/>
	<path fill="#F27151" d="M80,95.2c0,0,0.9,0.9,0.6,3.8c-0.3,2.9-16.7,5.3-15.7,14.1c0.3,2.8,3.8,5,7.1,4.5c1.3-0.9-1.8-5.1,0.3-6
		c5.3-3.1,16.8-3.9,16-14.7c-0.1-1.3-0.6-2.7-1.2-4C84.4,93.8,80,95.2,80,95.2z"/>
	<path fill="#F27151" d="M80.5,74.7c0,0,4.6,7.6-0.6,10.3c-6.2,3.3-15.8,3.8-17.6,12.1c-0.8,3.9,0.2,7.1,2.9,8.6
		c2.1-1.5,4.3-2.8,6.6-4c-3.5-4.7,3.2-6.9,7.5-8.3c3.3-1.1,6.8-2,9.2-3.7c5.7-3.9,6.5-14.8-0.5-17.8C78.3,75.4,90.1,71.2,80.5,74.7z
		"/>
	<path fill="#F27151" d="M78.9,121.9c0,0,6.6,4.6,10.7,4c-1.8-2.5-4.2-4.3-7.1-5.8C81.3,120.8,80.1,121.3,78.9,121.9z"/>
	<path fill="#F27151" d="M44.3,29.7c-1.9,10,5.2,14.6,12.1,17.5c3.1-3.1,6.8-5.6,11.8-6.8c-6.2-0.8-11.7-2.2-15.5-5.5
		c-1.3-1.6-0.6-2.8,0-3.7c2.7-2.4,5,2,8.4,2.9c1,0.3,2.2,0.5,3.4,0.5c-0.4-1.2-1.5-3.5-3.5-4.5c0,0,3,1,5.2,4.5
		c1.4-0.1,2.6-0.6,3.3-1.5c1-1.4,0.2-4.8-0.5-6C64.8,19.4,45.8,21.2,44.3,29.7z M66.5,28.4c-0.5,0-0.8-0.4-0.8-0.8
		c0-0.4,0.3-0.8,0.8-0.8s0.8,0.4,0.8,0.8C67.3,28,67,28.4,66.5,28.4z"/>
	<path fill="#F27151" d="M83.3,27.1c-0.7,1.2-1.5,4.7-0.5,6c0.7,0.9,1.9,1.3,3.3,1.5c2.3-3.5,5.2-4.5,5.2-4.5c-2,1-3,3.3-3.5,4.5
		c1.2,0,2.4-0.2,3.3-0.5c3.4-0.9,5.7-5.3,8.4-2.9c0.6,0.9,1.3,2.1,0,3.7c-3.7,3.3-8.5,5-14.7,5.8c-2,0.1-13.1,0.6-16.9,1.8
		c-6.6,2-11.8,7.2-13.1,12.6c-0.9,3.6-0.1,7.9,1.8,9.9c2.1,2.3,5.5,3.9,5.5,3.9l9.6-5c0,0-4.7-3.3-5.1-6c-1-6.9,8.4-6.2,14.9-6.8
		c4.9-0.5,10.2-1.9,14.7-4.1l0,0c6.7-2.9,13.6-7.5,11.7-17.4C106.4,21.2,87.4,19.4,83.3,27.1z M85.7,26.7c0.5,0,0.8,0.4,0.8,0.8
		c0,0.4-0.4,0.8-0.8,0.8c-0.4,0-0.8-0.4-0.8-0.8C84.9,27.1,85.2,26.7,85.7,26.7z"/>
	<path fill="#F27151" d="M79.6,52.9l-7.4,0.7c0,3.5,0.1,6.8,0.1,10.1l7.2-1.9C79.6,58.9,79.6,56,79.6,52.9z"/>
	<path fill="#F27151" d="M67.4,13.4c0,3.4,2.1,6.4,5,7.7l-0.1,0c0,3.5,0.1,15.3,0.1,18.5l7.2-0.6c0-2.7,0.1-12.5,0.1-18.1
		c2.7-1.4,4.6-4.2,4.6-7.5c0-4.7-3.8-8.4-8.4-8.4C71.1,5,67.4,8.8,67.4,13.4z"/>
	<path fill="#F27151" d="M72.5,77.7c0,2.7,0.1,5.2,0.1,7.7l6.6-2.1c0-2.6,0.1-5.3,0.1-8.2L72.5,77.7z"/>
	<path fill="#F27151" d="M78.2,122.2l-4.4,1.9c1,21.7,2.1,21,2.2,20.9C76.1,145.1,77.2,145.8,78.2,122.2z"/>
	<path fill="#F27151" d="M79,95.6l-6.1,2.4c0,1.1,0.1,2.3,0.1,3.3l5.9-2.6C79,97.7,79,96.6,79,95.6z"/>
	<path fill="#F27151" d="M78.6,110.7l-5.3,2.2c0,1.3,0.1,2.6,0.1,3.8l5-2.9C78.5,113.2,78.6,111.3,78.6,110.7z"/>
</g>
</svg>
