<?xml version="1.0" encoding="utf-8"?>
<!-- Generator: Adobe Illustrator 18.1.0, SVG Export Plug-In . SVG Version: 6.00 Build 0)  -->
<svg version="1.1" id="Layer_1" xmlns="http://www.w3.org/2000/svg" xmlns:xlink="http://www.w3.org/1999/xlink" x="0px" y="0px"
	 viewBox="0 0 150 150" enable-background="new 0 0 150 150" xml:space="preserve">
<g>
	<path fill="none" d="M73.6,91.7c0-0.7-0.5-1.1-1.2-1l-3.3,0.7c-0.7,0.2-1.2,0.8-1.2,1.5v23.4c1.8,0,3.8,0,5.7,0V91.7z"/>
	<path fill="none" d="M107.6,57c0,2.2,4.3-1.7,4.7-2.1c0.1-0.1,0.2-0.1,0.3-0.2c-0.2-4.8-2-9.1-5-12.5V57z"/>
	<path fill="none" d="M92.5,35.4H51.7c-11.1,0-20.1,9-20.1,20.1v31.3c0.6-0.1,1.3-0.3,1.8-0.5c0.7-0.2,1.2-0.7,1.2-1.4v-9.2
		c0-0.6,0.5-1.2,1.2-1.2h11.4c0.6,0,1.2,0.5,1.2,1.2v6.9c0,0.7,1.7,0.8,2.3,0.7c0.6-0.2,2.3-0.5,2.7-0.6c0.5-0.1,0.8-0.7,0.8-1.4
		V64.5c0-0.6,0.5-1.2,1.2-1.2h11.5c0.6,0,1.2,0.5,1.2,1.2v13.1c0,0.7,0.6,1,1.2,0.8l3.4-1.2c0.7-0.3,1.2-1,1.2-1.7V53.3
		c0-0.6,0.5-1.2,1.2-1.2h11.5c0.6,0,1.2,0.5,1.2,1.2v16c0,0.7,0.5,1,1.1,0.7l3.6-1.9c0.6-0.3,1.1-1.1,1.1-1.8V42.1
		c0-0.6,0.5-1.2,1.2-1.2h11.5C102.7,37.5,97.8,35.4,92.5,35.4z"/>
	<path fill="none" d="M93.2,85.7c0-0.7-0.5-1-1.1-0.8l-3.4,1.3c-0.7,0.2-1.2,0.9-1.2,1.6v28.3c2.3,0,4.3,0,5.7,0V85.7z"/>
	<path fill="none" d="M95.4,116.1C95.4,116.1,95.4,116.1,95.4,116.1C95.4,116.1,95.4,116.1,95.4,116.1L95.4,116.1z"/>
	<path fill="none" d="M34.4,106.3V93.7c0-0.7-0.5-0.7-1.1-0.9c-0.4-0.1-1-0.2-1.7-0.3v3.8C31.6,99.9,32.6,103.3,34.4,106.3z"/>
	<path fill="none" d="M54,116.3V94.5c0-0.7-0.5-1.2-1.2-1.2l-3.3,0.1c-0.6,0-1.2,0.5-1.2,1.2V116c0.1,0,0.2,0,0.3,0L54,116.3z"/>
	<path fill="#5E7074" d="M121.7,45.2c0.5-0.8,1-1.7,1.2-2.4l-0.9-1.6l-10.2,4c-1.6-2.1-3.3-4-5.2-5.8l4.3-11l-2.8-1.6l-7.2-4.2
		L98,20.9l-6.6,8.3c-2.5-1-5-1.8-7.6-2.5L82,15.3h-3.3h-8.3H67l-1.6,10.5c-2.7,0.4-5.3,0.9-7.9,1.7l-7.2-9l-2.9,1.7l-7.2,4.2
		L37.4,26l3.9,10c-2.1,1.6-4,3.4-5.8,5.3l-11-4.3l-1.6,2.8L18.7,47l-1.6,3l8.6,6.9c-0.9,2.4-1.7,4.8-2.3,7.3L11.5,66v3.3v8.3v3.3
		l11,1.7c0.2,1.7,0.5,3.4,0.9,5.1h8.1c1.1,0.1,2.2,0.1,2.9,0.1c20-1.2,28-1.8,53.1-13.7c20-9.5,25-18.6,25-18.6
		c0-0.1,0.1-0.1,0.1-0.2c0,0.1,0,0.1,0,0.2v0.2c1.3-1.2,4.3-4.2,6.8-7.3l-4-1.6L121.7,45.2z M93.6,42.1v24.2c0,0.7-0.5,1.5-1.1,1.8
		L88.9,70c-0.6,0.3-1.1,0-1.1-0.7v-16c0-0.7-0.6-1.2-1.2-1.2H75.1c-0.7,0-1.2,0.6-1.2,1.2v22.2c0,0.7-0.5,1.4-1.2,1.7l-3.4,1.2
		c-0.6,0.2-1.2-0.1-1.2-0.8V64.5c0-0.7-0.6-1.2-1.2-1.2H55.4c-0.7,0-1.2,0.6-1.2,1.2v16.8c0,0.7-0.3,1.3-0.8,1.4
		c-0.4,0.1-2.1,0.4-2.7,0.6c-0.6,0.1-2.3,0-2.3-0.7v-6.9c0-0.7-0.6-1.2-1.2-1.2H35.8c-0.7,0-1.2,0.6-1.2,1.2v9.2
		c0,0.7-0.5,1.2-1.2,1.4c-0.5,0.2-1.2,0.4-1.8,0.5V55.5c0-11.1,9-20.1,20.1-20.1h40.8c5.3,0,10.2,2.1,13.8,5.5H94.8
		C94.1,40.9,93.6,41.5,93.6,42.1z M112.3,54.9c-0.4,0.4-4.7,4.3-4.7,2.1V42.3c2.9,3.4,4.8,7.7,5,12.5
		C112.5,54.8,112.4,54.8,112.3,54.9z"/>
	<path fill="#5E7074" d="M95.4,116.1L95.4,116.1C95.4,116.1,95.4,116.1,95.4,116.1c-0.7,0.1-1.5,0.2-2.2,0.2v-0.2
		c-1.4,0-3.4,0-5.7,0v0.3H73.6v-0.2c-1.9,0-3.9,0-5.7,0v0.1H54v-0.1l-5.4-0.3c-0.1,0-0.2,0-0.3,0v0.2c-5.9-1-10.9-4.5-13.9-9.4v-0.5
		c-1.8-3-2.8-6.4-2.8-10v-3.8c0,0-0.1,0-0.1,0l-0.8-0.2c-2.3-0.4-5.4-0.8-7.8-1.2l-8.2,6.6l1.7,2.9l4.2,7.2l1.7,2.8l10.2-4
		c0.3,0.3,0.5,0.7,0.8,1c0,0,0,0,0,0c0,0,0,0,0,0c0.3,0.4,0.7,0.8,1,1.2c1.1,1.4,2.5,3.2,3.2,3.9l-4.3,11l2.9,1.7l7.2,4.2l2.9,1.6
		l6.6-8.3c2.4,1,5,1.8,7.6,2.5l1.8,11.4h3.3h8.3h3.3l1.6-10.5c2.7-0.4,5.3-0.9,7.9-1.7l7.2,9l2.9-1.7l7.2-4.2l2.9-1.6l-3.9-10.1
		c2-1.6,4-3.4,5.7-5.3l11,4.3l1.6-2.9l4.2-7.2l1.6-2.9l-8.6-6.9c1-2.4,1.7-4.8,2.3-7.3l11.9-1.8v-3.3v-8.4v-3.3l-9.2-1.4
		c-4.3,3.4-8.7,6.6-10.8,7.5v19.5c0,5.1-2.4,9.4-5.6,12.9C104.2,113,100,115.3,95.4,116.1z"/>
	<path fill="#00E7E4" d="M121.7,45.2l-6.3,1.6l4,1.6l4.5,1.7c-10.1,13.5-24.8,24-46.3,32.3c-17.9,6.9-42.9,9.1-58,8
		c0.6,0.2,1.8,0.4,3.2,0.6l0.2-0.1l7.7,1.4l0.8,0.2c0,0,0.1,0,0.1,0c0.7,0.1,1.3,0.2,1.7,0.3c0.6,0.2,1.1,0.2,1.1,0.9v12.6v0.5
		c3,4.9,8,8.4,13.9,9.4V116V94.6c0-0.7,0.6-1.2,1.2-1.2l3.3-0.1c0.7,0,1.2,0.5,1.2,1.2v21.8v0.1h13.9v-0.1V92.9
		c0-0.7,0.5-1.3,1.2-1.5l3.3-0.7c0.7-0.1,1.2,0.3,1.2,1v24.5v0.2h13.9v-0.3V87.8c0-0.7,0.5-1.4,1.2-1.6l3.4-1.3
		c0.6-0.2,1.1,0.1,1.1,0.8v30.4v0.2c0.7,0,1.4-0.1,2.2-0.2c0,0,0,0,0,0c4.6-0.8,8.8-3.1,11.7-6.5V78.1c0-0.7,0.5-1.5,1-1.9
		c0,0,0.3-0.2,0.7-0.4c9.9-5.6,18-12,24.6-19.3l3.8,8.2l1.3-23.8L121.7,45.2z"/>
	<path fill="none" d="M34.7,109.4c-0.1,0-0.1-0.1-0.2-0.1"/>
</g>
</svg>
