<?xml version="1.0" encoding="utf-8"?>
<!-- Generator: Adobe Illustrator 16.0.0, SVG Export Plug-In . SVG Version: 6.00 Build 0)  -->
<!DOCTYPE svg PUBLIC "-//W3C//DTD SVG 1.1//EN" "http://www.w3.org/Graphics/SVG/1.1/DTD/svg11.dtd">
<svg version="1.1" id="Layer_1" xmlns="http://www.w3.org/2000/svg" xmlns:xlink="http://www.w3.org/1999/xlink" x="0px" y="0px"
	 width="100px" height="100px" viewBox="0 0 100 100" enable-background="new 0 0 100 100" xml:space="preserve">
<g>
	<g>
		<path fill="#EC297B" d="M51.271,22.175c0,0,0.231-0.073,0.637-0.244c0.402-0.181,0.998-0.448,1.58-1.03
			c0.285-0.293,0.557-0.682,0.683-1.174c0.135-0.487,0.099-1.047-0.063-1.576c-0.344-1.061-1.098-2.01-1.96-2.859
			c-0.881-0.854-1.81-1.54-2.688-2.109c-0.22-0.145-0.438-0.276-0.645-0.407c-0.226-0.13-0.38-0.221-0.524-0.379
			c-0.276-0.298-0.425-0.686-0.515-1.051c-0.172-0.732-0.144-1.378-0.126-1.812c0.027-0.433,0.073-0.672,0.073-0.672
			s-0.082,0.23-0.163,0.663c-0.081,0.429-0.189,1.07-0.09,1.883c0.063,0.398,0.181,0.854,0.497,1.265
			c0.149,0.204,0.402,0.383,0.587,0.505l0.614,0.439c0.822,0.601,1.708,1.305,2.548,2.118c0.83,0.813,1.553,1.68,1.896,2.587
			c0.173,0.448,0.227,0.903,0.15,1.314c-0.068,0.411-0.277,0.768-0.502,1.062c-0.479,0.581-1.03,0.921-1.396,1.146
			C51.488,22.066,51.267,22.175,51.271,22.175z"/>
	</g>
	<g>
		<path fill="#EC297B" d="M47.975,21.371c0,0.005-0.51-0.338-0.939-1.17c-0.442-0.807-0.876-2.031-1.138-3.404
			c-0.073-0.365-0.085-0.619-0.036-0.939c0.045-0.308,0.135-0.605,0.244-0.886c0.212-0.56,0.474-1.052,0.705-1.458
			c0.474-0.813,0.822-1.292,0.822-1.292s-0.461,0.371-1.075,1.116c-0.303,0.371-0.642,0.84-0.935,1.432
			c-0.14,0.289-0.266,0.614-0.348,0.984c-0.032,0.181-0.059,0.375-0.054,0.578c0,0.1,0.013,0.203,0.027,0.303l0.045,0.271
			c0.276,1.467,0.885,2.696,1.481,3.469C47.37,21.167,47.984,21.381,47.975,21.371z"/>
	</g>
	<g>
		<path fill="#EC297B" d="M47.528,19.24c0.005,0,0.257,0.348,0.764,0.836c0.262,0.234,0.564,0.527,1.028,0.73
			c0.063,0.023,0.127,0.041,0.201,0.059c0.059,0.015,0.181,0.01,0.225,0c0.154-0.031,0.262-0.066,0.394-0.122
			c0.248-0.107,0.483-0.262,0.69-0.442c0.84-0.749,1.237-1.67,1.499-2.308c0.249-0.659,0.335-1.083,0.335-1.083
			s-0.172,0.397-0.506,0.998c-0.334,0.596-0.813,1.445-1.567,2.11c-0.189,0.166-0.388,0.303-0.596,0.402
			c-0.1,0.049-0.222,0.084-0.303,0.112c-0.072,0.013-0.072,0.013-0.127,0.008c-0.044-0.003-0.09-0.018-0.135-0.031
			c-0.397-0.13-0.741-0.384-1.016-0.573C47.857,19.524,47.533,19.24,47.528,19.24z"/>
	</g>
	<g>
		<path fill="#EC297B" d="M47.831,46.638c0.018,0.005-0.307-1.712-0.027-4.461c0.072-0.682,0.181-1.438,0.316-2.237
			c0.126-0.804,0.289-1.665,0.348-2.601c0.063-0.934,0.005-1.95-0.293-2.948c-0.317-0.977-0.678-1.929-1.043-2.926
			c-0.746-1.978-1.432-3.866-1.883-5.619c-0.221-0.889-0.443-1.733-0.569-2.52c-0.117-0.767-0.154-1.576,0.23-2.046
			c0.402-0.514,1.097-0.369,1.558-0.135c0.487,0.231,0.876,0.511,1.192,0.732c0.614,0.469,0.984,0.7,0.984,0.69
			c-0.005,0.01-0.343-0.257-0.93-0.763c-0.298-0.248-0.659-0.56-1.156-0.84c-0.249-0.13-0.533-0.257-0.876-0.288
			c-0.343-0.038-0.741,0.107-1.002,0.392c-0.276,0.293-0.388,0.7-0.438,1.092c-0.045,0.399-0.028,0.804,0.018,1.221
			c0.094,0.83,0.284,1.688,0.479,2.586c0.411,1.812,1.07,3.731,1.811,5.713c0.371,0.99,0.746,1.964,1.057,2.886
			c0.29,0.917,0.37,1.851,0.343,2.746c-0.032,0.898-0.153,1.756-0.248,2.568c-0.099,0.814-0.172,1.573-0.204,2.268
			C47.365,44.958,47.849,46.646,47.831,46.638z"/>
	</g>
	<g>
		<path fill="#EC297B" d="M63.438,46.552c0.005,0-0.107-0.41-0.1-1.17l0.027-1.385c-0.005-0.28-0.01-0.57-0.063-0.886
			c-0.054-0.303-0.117-0.624-0.188-0.962c-0.145-0.659-0.361-1.41-0.705-2.146c-0.338-0.74-0.781-1.494-1.292-2.24
			c-0.257-0.379-0.527-0.753-0.808-1.133c-0.271-0.384-0.598-0.763-0.84-1.147c-0.254-0.384-0.394-0.791-0.43-1.26
			c-0.041-0.448,0-0.998-0.018-1.514c-0.01-1.039-0.023-2.042,0.063-2.989c0.084-0.949,0.352-1.842,0.537-2.741
			c0.198-0.896,0.257-1.802,0.104-2.624c-0.145-0.814-0.47-1.576-1.048-2.059c-0.271-0.221-0.596-0.384-0.911-0.458
			c-0.326-0.071-0.646-0.036-0.913,0.041c-0.542,0.172-0.922,0.465-1.228,0.696c-0.598,0.469-0.932,0.731-0.932,0.726
			c0,0.005,0.356-0.225,0.985-0.649c0.32-0.199,0.718-0.46,1.224-0.578c0.502-0.132,1.105,0.008,1.581,0.464
			c0.455,0.421,0.726,1.129,0.821,1.88c0.107,0.767,0.023,1.593-0.195,2.446c-0.201,0.863-0.504,1.776-0.613,2.787
			c-0.112,1.003-0.1,2.028-0.09,3.062c0.009,0.524-0.027,1.007,0.019,1.563c0.044,0.542,0.247,1.102,0.545,1.527
			c0.295,0.443,0.61,0.786,0.891,1.161c0.289,0.374,0.569,0.735,0.826,1.097c0.524,0.718,0.98,1.428,1.342,2.127
			c0.364,0.7,0.596,1.387,0.784,2.042c0.181,0.654,0.339,1.237,0.354,1.769l0.071,1.387C63.292,46.155,63.442,46.552,63.438,46.552z
			"/>
	</g>
	<g>
		<path fill="#EC297B" d="M57.95,28.266c-0.428-0.619-0.803-1.087-1.003-1.576c-0.211-0.474-0.198-0.907-0.076-1.178
			c0.122-0.271,0.262-0.384,0.254-0.389c0.008,0.005-0.154,0.082-0.335,0.343c-0.189,0.254-0.298,0.764-0.136,1.319
			c0.136,0.56,0.507,1.157,0.85,1.753c0.339,0.601,0.573,1.3,0.446,2.041c-0.122,0.736-0.51,1.387-1.079,1.639
			c-0.568,0.275-1.219,0.211-1.716,0.091c-1.021-0.285-1.54-0.778-1.545-0.76c0.01-0.021,0.397,0.587,1.445,1.048
			c0.515,0.213,1.237,0.392,2.019,0.104c0.385-0.145,0.746-0.42,0.998-0.786c0.249-0.361,0.417-0.799,0.488-1.242"/>
	</g>
	<g>
		<path fill="#EC297B" d="M50.875,32.033c0,0-0.117,0.091-0.354,0.213c-0.229,0.117-0.591,0.262-1.029,0.229
			c-0.876-0.031-1.915-0.975-2.271-2.24c-0.167-0.624-0.068-1.26,0.103-1.843c0.163-0.583,0.367-1.12,0.471-1.593
			c0.234-0.972-0.019-1.573-0.005-1.558c-0.005-0.005,0.077,0.609-0.294,1.462c-0.172,0.43-0.433,0.921-0.668,1.523
			c-0.234,0.596-0.415,1.377-0.208,2.162c0.424,1.54,1.811,2.524,2.877,2.395c0.519-0.054,0.871-0.285,1.079-0.453
			C50.783,32.15,50.875,32.033,50.875,32.033z"/>
	</g>
	<g>
		<path fill="#EC297B" d="M48.273,28.597c0,0,0.135-0.028,0.375-0.135c0.239-0.094,0.552-0.316,0.926-0.524
			c0.723-0.461,2.009-0.145,2.845,0.804l0.117,0.135l0.298,0.339l0.209-0.384c0.274-0.51,0.748-0.825,1.25-0.944
			c0.501-0.122,0.997-0.071,1.399,0.028c0.81,0.208,1.242,0.573,1.242,0.56c-0.005,0.018-0.315-0.466-1.143-0.845
			c-0.41-0.176-0.962-0.324-1.594-0.244c-0.623,0.063-1.328,0.475-1.697,1.143l0.509-0.049l-0.14-0.153
			c-0.491-0.552-1.155-0.931-1.807-1.025c-0.339-0.045-0.614-0.055-0.93,0.018c-0.298,0.072-0.537,0.211-0.723,0.356
			c-0.371,0.298-0.605,0.555-0.813,0.705C48.399,28.528,48.273,28.592,48.273,28.597z"/>
	</g>
	<g>
		<path fill="#EC297B" d="M54.045,15.319c-0.01-0.004,0.365-0.243,0.776-0.83c0.415-0.574,0.845-1.532,0.822-2.661
			c-0.01-1.134-0.578-2.104-1.157-2.542c-0.568-0.46-1.016-0.533-1.003-0.542c-0.013,0.009,0.376,0.24,0.786,0.754
			c0.415,0.52,0.741,1.364,0.759,2.344c0.018,0.979-0.217,1.878-0.479,2.497C54.298,14.963,54.035,15.315,54.045,15.319z"/>
	</g>
	<g>
		<path fill="#EC297B" d="M45.437,13.635c0.045,0.022-0.664-1.477,0.204-2.913c0.392-0.731,0.862-1.409,1.106-1.951
			c0.257-0.533,0.33-0.899,0.334-0.899c-0.005,0-0.217,0.299-0.597,0.731c-0.365,0.448-0.943,0.999-1.391,1.83
			c-0.226,0.415-0.353,0.876-0.365,1.301c-0.014,0.424,0.085,0.794,0.203,1.074C45.175,13.374,45.446,13.63,45.437,13.635z"/>
	</g>
	<g>
		<path fill="#EC297B" d="M53.385,6.247c0,0-0.199-0.122-0.586-0.303c-0.199-0.09-0.438-0.198-0.741-0.275
			c-0.157-0.037-0.325-0.072-0.533-0.037c-0.1,0.023-0.225,0.072-0.307,0.181c-0.086,0.113-0.108,0.244-0.114,0.357l0.006-0.019
			c-0.006,0.186,0.072,0.253,0.127,0.326c0.054,0.072,0.117,0.131,0.181,0.185c0.122,0.113,0.252,0.213,0.396,0.308
			c0.28,0.194,0.57,0.375,0.917,0.551l-0.023-0.014c0.29,0.167,0.578,0.312,0.949,0.397c0.1,0.019,0.198,0.037,0.339,0.019
			c0.068-0.014,0.157-0.032,0.249-0.1c0.099-0.071,0.161-0.203,0.171-0.302c0-0.361-0.131-0.483-0.222-0.664l0.022,0.041
			c-0.152-0.303-0.374-0.438-0.577-0.569c-0.209-0.122-0.425-0.217-0.637-0.298l-0.239-0.086l0.026,0.009
			c-0.537-0.208-1.021-0.307-1.525-0.383c-0.254-0.037-0.506-0.06-0.761-0.046c-0.252,0.023-0.532,0.027-0.812,0.257
			c-0.14,0.122-0.212,0.334-0.199,0.492c0.005,0.073,0.028,0.181,0.045,0.222C49.556,6.541,49.574,6.6,49.6,6.667
			c0.119,0.239,0.285,0.406,0.453,0.542c0.343,0.266,0.695,0.415,1.021,0.533c1.311,0.438,2.158,0.352,2.15,0.361
			c0.008-0.004-0.84-0.081-2.033-0.637c-0.288-0.144-0.605-0.321-0.868-0.569c-0.125-0.122-0.234-0.262-0.288-0.411
			c-0.073-0.198-0.054-0.293,0-0.32c0.063-0.055,0.275-0.095,0.478-0.085c0.209,0,0.434,0.027,0.659,0.063
			c0.448,0.086,0.944,0.208,1.369,0.379l0.014,0.005h0.01l0.216,0.081c0.199,0.077,0.385,0.158,0.551,0.249
			c0.157,0.09,0.298,0.212,0.338,0.293l0.01,0.018l0.014,0.018c0.035,0.063,0.081,0.122,0.104,0.181
			c0.014,0.023,0.023,0.055,0.028,0.072c0.021,0.023-0.041,0.018,0.084,0.023c0.073,0.004,0.082,0.031,0.056,0.004
			c-0.022-0.014-0.056-0.154-0.056-0.113c-0.025,0.005-0.089,0.005-0.152-0.004c-0.263-0.041-0.556-0.158-0.8-0.28l-0.022-0.014l0,0
			c-0.308-0.131-0.623-0.289-0.894-0.443c-0.14-0.082-0.271-0.158-0.384-0.244c-0.059-0.041-0.112-0.086-0.153-0.127
			c-0.022-0.018-0.041-0.041-0.051-0.054l-0.01-0.018l-0.03,0.004C51.398,6.18,51.389,6.18,51.381,6.18l0.059,0.009V6.162
			c-0.01-0.149,0.022-0.217,0.148-0.262c0.127-0.041,0.289-0.037,0.435-0.023c0.279,0.036,0.532,0.104,0.74,0.167
			C53.168,6.162,53.385,6.251,53.385,6.247z"/>
	</g>
	<g>
		<path fill="#EC297B" d="M54.343,40.37c-0.018-0.013,1.721-1.404,3.36-3.599l0.135-0.186l0.244-0.333l-0.394-0.137
			c-0.166-0.062-0.41-0.23-0.713-0.311l0.181,0.415c0.094-0.204,0.274-0.407,0.447-0.532l0.311-0.222l-0.293-0.213
			c-0.216-0.158-0.511-0.234-0.723-0.239c-0.117-0.008-0.152-0.018-0.145-0.008c-0.013,0-0.046-0.082-0.054-0.153
			c-0.063-0.34-0.018-0.646,0.036-0.904c0.108-0.519,0.262-0.804,0.257-0.804c0.005,0-0.222,0.229-0.446,0.74
			c-0.108,0.252-0.226,0.596-0.221,0.998c0.008,0.104,0,0.221,0.103,0.384c0.14,0.171,0.325,0.176,0.411,0.198
			c0.194,0.036,0.326,0.09,0.466,0.207l0.018-0.433c-0.279,0.167-0.516,0.394-0.694,0.713l-0.173,0.308l0.352,0.109
			c0.181,0.059,0.361,0.198,0.679,0.329l-0.149-0.474l-0.131,0.181C55.606,38.545,54.325,40.357,54.343,40.37z"/>
	</g>
	<g>
		<path fill="#EC297B" d="M49.687,48.562c0.01,0-0.067-0.231-0.041-0.628c0.046-0.415,0.095-1.007,0.227-1.733
			c0.234-1.445,0.75-3.42,1.413-5.545c0.361-1.043,0.763-2.16,0.519-3.248c-0.247-1.038-0.88-1.738-1.291-2.331
			c-0.438-0.586-0.732-1.102-0.844-1.495c-0.122-0.389-0.112-0.628-0.117-0.623c0.005-0.005-0.046,0.226,0.023,0.646
			c0.063,0.42,0.298,0.998,0.677,1.639c0.361,0.649,0.894,1.369,1.039,2.275c0.149,0.876-0.217,1.871-0.592,2.937
			c-0.682,2.185-1.043,4.217-1.137,5.707c-0.051,0.745-0.023,1.355-0.015,1.766C49.579,48.354,49.696,48.562,49.687,48.562z"/>
	</g>
	<g>
		<path fill="#EC297B" d="M70.762,89.955c0.01-0.005-0.649-0.497-1.657-1.567c-1.007-1.069-2.325-2.746-3.657-5.009
			c-1.333-2.253-2.695-5.075-3.807-8.358c-0.551-1.648-1.139-3.374-1.591-5.189c-0.225-0.911-0.42-1.847-0.527-2.799
			c-0.109-0.963-0.145-1.901,0.059-2.863c0.379-1.933,0.998-3.808,1.53-5.617c0.547-1.813,1.058-3.573,1.46-5.28
			c0.402-1.703,0.7-3.345,0.794-4.908c0.104-1.563-0.005-3.058-0.46-4.331c-0.425-1.265-1.049-2.326-1.708-3.148
			c-0.659-0.827-1.301-1.458-1.797-1.996c-1.016-1.066-1.499-1.726-1.504-1.726c0.005,0,0.456,0.682,1.423,1.797
			c0.938,1.106,2.542,2.646,3.273,5.176c0.398,1.232,0.465,2.668,0.33,4.19s-0.461,3.135-0.891,4.814
			c-0.428,1.675-0.96,3.418-1.521,5.226c-0.551,1.81-1.182,3.67-1.576,5.686c-0.094,0.501-0.166,1.025-0.157,1.544
			c0.005,0.515,0.045,1.012,0.099,1.513c0.117,0.994,0.326,1.946,0.561,2.873c0.483,1.855,1.102,3.581,1.68,5.225
			c1.184,3.296,2.639,6.114,4.051,8.351c1.413,2.234,2.81,3.869,3.866,4.899C70.085,89.494,70.771,89.95,70.762,89.955z"/>
	</g>
	<g>
		<path fill="#EC297B" d="M56.723,74.809c0,0,0.041,0.614,0.239,1.711c0.194,1.098,0.605,2.66,1.166,4.565
			c0.55,1.906,1.227,4.169,1.453,6.766c0.127,1.287,0.104,2.654,0.1,4.092c0,0.713,0.005,1.448,0.054,2.204
			c0.032,0.379,0.081,0.767,0.198,1.16c0.059,0.198,0.137,0.4,0.262,0.596c0.117,0.199,0.308,0.397,0.565,0.507
			c0.257,0.103,0.537,0.089,0.754,0.035c0.23-0.055,0.425-0.145,0.605-0.244c0.361-0.203,0.669-0.447,0.957-0.691
			c0.577-0.492,1.089-1.021,1.59-1.53c0.506-0.515,0.98-0.975,1.518-1.414c0.519-0.438,1.038-0.854,1.575-1.174
			c0.552-0.326,1.094-0.542,1.685-0.573c0.29-0.018,0.583-0.005,0.84,0.049c0.262,0.059,0.453,0.186,0.507,0.366
			s-0.019,0.443-0.128,0.664c-0.117,0.234-0.27,0.451-0.438,0.654c-0.329,0.397-0.708,0.751-1.097,1.039
			c-1.591,1.147-3.247,1.414-4.332,1.495c-1.104,0.067-1.72-0.045-1.72-0.032c0-0.013,0.605,0.14,1.725,0.132
			c1.098-0.022,2.8-0.195,4.518-1.328c0.423-0.29,0.825-0.632,1.201-1.052c0.188-0.213,0.369-0.442,0.515-0.709
			c0.135-0.268,0.279-0.596,0.186-0.985c-0.051-0.193-0.178-0.369-0.331-0.479c-0.152-0.112-0.325-0.181-0.488-0.227
			c-0.329-0.089-0.659-0.104-0.983-0.089h-0.118l-0.08,0.008l-0.061,0.01c-0.076,0.008-0.147,0.013-0.239,0.031
			c-0.176,0.032-0.338,0.076-0.501,0.127c-0.324,0.108-0.637,0.252-0.935,0.42c-0.596,0.334-1.147,0.759-1.68,1.196
			c-0.542,0.42-1.084,0.926-1.58,1.428c-0.515,0.501-1.021,1.016-1.571,1.476c-0.271,0.231-0.557,0.448-0.85,0.615
			c-0.289,0.161-0.61,0.258-0.794,0.171c-0.19-0.068-0.358-0.361-0.448-0.677c-0.099-0.325-0.149-0.677-0.176-1.035
			c-0.055-0.713-0.063-1.436-0.073-2.148c-0.018-1.428-0.018-2.817-0.181-4.146c-0.288-2.647-1.061-4.933-1.688-6.806
			c-0.642-1.884-1.13-3.41-1.382-4.489C56.805,75.418,56.728,74.809,56.723,74.809z"/>
	</g>
	<g>
		<path fill="#EC297B" d="M50.314,94.562c0,0.008-0.433-0.163-1.265-0.275c-0.831-0.127-2.041-0.168-3.518-0.276
			c-0.736-0.059-1.544-0.144-2.372-0.361c-0.406-0.107-0.822-0.258-1.201-0.474c-0.196-0.109-0.363-0.227-0.532-0.37
			c-0.188-0.162-0.332-0.313-0.495-0.493c-0.303-0.333-0.605-0.781-0.56-1.097c0.014-0.28,0.481-0.507,0.962-0.593
			c0.978-0.171,2.106-0.103,3.137,0.163c0.234,0.063,0.479,0.181,0.736,0.298l0.745,0.353l1.445,0.741
			c0.948,0.501,1.861,0.979,2.755,1.413c1.779,0.872,3.458,1.531,4.94,1.834c1.481,0.32,2.729,0.242,3.54,0.041
			c0.822-0.204,1.22-0.461,1.22-0.448c0-0.013-0.424,0.209-1.237,0.349c-0.813,0.14-2.028,0.13-3.449-0.262
			c-1.423-0.376-3.035-1.089-4.764-2.006c-0.863-0.455-1.766-0.957-2.706-1.473c-0.47-0.262-0.957-0.52-1.454-0.771
			c-0.248-0.122-0.501-0.249-0.759-0.371c-0.252-0.112-0.523-0.248-0.83-0.334c-1.174-0.288-2.313-0.347-3.443-0.14
			c-0.283,0.059-0.567,0.145-0.841,0.308c-0.266,0.147-0.558,0.45-0.589,0.83c-0.036,0.371,0.106,0.664,0.249,0.903
			c0.146,0.244,0.318,0.447,0.494,0.637c0.177,0.177,0.375,0.371,0.558,0.519c0.199,0.16,0.427,0.303,0.641,0.417
			c0.443,0.222,0.895,0.364,1.337,0.464c0.88,0.19,1.711,0.231,2.456,0.254c1.495,0.026,2.696-0.018,3.526,0.049
			C49.867,94.439,50.314,94.569,50.314,94.562z"/>
	</g>
	<g>
		<path fill="#EC297B" d="M35.063,40.966c0-0.005,0.249,0.104,0.719,0.249c0.47,0.135,1.172,0.303,2.063,0.32
			c0.885,0.018,1.969-0.132,3.066-0.615c1.093-0.469,2.177-1.283,3.017-2.388c0.849-1.107,1.3-2.349,1.616-3.474
			c0.308-1.133,0.434-2.189,0.434-3.075c0.027-1.794-0.547-2.796-0.533-2.777c-0.009-0.01,0.402,1.039,0.226,2.759
			c-0.082,0.858-0.28,1.865-0.632,2.945c-0.353,1.064-0.831,2.24-1.604,3.25c-0.772,1.016-1.75,1.797-2.746,2.285
			c-0.998,0.501-2.005,0.718-2.854,0.776C36.119,41.337,35.062,40.935,35.063,40.966z"/>
	</g>
	<g>
		<path fill="#EC297B" d="M42.646,46.529c0,0.013-0.766-0.654-2.333-1.188c-0.772-0.27-1.729-0.5-2.759-0.84
			c-0.246-0.084-0.538-0.176-0.763-0.288c-0.257-0.122-0.515-0.252-0.757-0.402c-0.49-0.29-0.917-0.695-1.061-1.229l0.01,0.032
			c-0.055-0.315-0.032-0.646,0.114-0.832c0.135-0.181,0.434-0.252,0.759-0.207c0.33,0.036,0.644,0.184,0.978,0.356
			c0.328,0.171,0.64,0.361,0.94,0.564c0.601,0.402,1.156,0.84,1.686,1.26c1.059,0.845,2.049,1.604,2.97,2.1
			c0.917,0.506,1.748,0.736,2.321,0.807c0.578,0.073,0.894,0.041,0.894,0.056c0.028-0.028-1.345,0.003-3.057-1.125
			c-0.854-0.552-1.766-1.351-2.793-2.245c-0.518-0.443-1.066-0.908-1.685-1.346c-0.309-0.216-0.636-0.425-0.986-0.613
			c-0.338-0.181-0.734-0.379-1.19-0.43c-0.221-0.031-0.454-0.026-0.691,0.037c-0.235,0.062-0.472,0.207-0.631,0.415
			c-0.313,0.433-0.28,0.921-0.214,1.301l0.002,0.018l0.004,0.018c0.219,0.736,0.813,1.229,1.359,1.527
			c0.281,0.153,0.558,0.275,0.829,0.387c0.3,0.132,0.558,0.19,0.831,0.272c1.077,0.285,2.036,0.443,2.818,0.649
			C41.811,45.979,42.646,46.539,42.646,46.529z"/>
	</g>
</g>
</svg>
