<?xml version="1.0" encoding="utf-8"?>
<!-- Generator: Adobe Illustrator 18.1.0, SVG Export Plug-In . SVG Version: 6.00 Build 0)  -->
<svg version="1.0" id="Layer_1" xmlns="http://www.w3.org/2000/svg" xmlns:xlink="http://www.w3.org/1999/xlink" x="0px" y="0px"
	 viewBox="0 0 150 150" enable-background="new 0 0 150 150" xml:space="preserve">
<g>
	<path fill="#EA2227" d="M73.8,47.3c0,3.6,1.6,6.9,4,9.2l2.2-7l5-1.3V34.8C78.7,35.5,73.8,40.8,73.8,47.3z"/>
	<path fill="#EA2227" d="M95.7,55.7c2-2.2,3.3-5.2,3.3-8.4c0-6.5-4.9-11.8-11.2-12.5v13.5l4.9,0.7L95.7,55.7z"/>
	<path fill="#EA2227" d="M85,53.1v-1.8l-0.6,2C84.6,53.2,84.8,53.2,85,53.1z"/>
	<path fill="#EA2227" d="M87.8,51.5v1.7c0.3,0.1,0.6,0.1,0.8,0.2L87.8,51.5z"/>
	<path fill="#EA2227" d="M121.6,26.4H90.5v0.2h0v0.1h-2.7v4.8c8.1,0.7,14.5,7.4,14.5,15.8c0,4.6-2,8.7-5.1,11.6l1,2.2
		c-0.1,0-0.2,0-0.2,0.1c-1.7,0.8-4.8-2.6-1.1,5.7c3.7,8.3,5.1,7.7,6.8,7c0.1,0,0.1-0.1,0.2-0.1l9.7,21.5c-1.4,1.4-1.3,2.2,0.9,6.9
		c1.3,3,2.6,5.6,3.8,7.1c0.4-0.6,0.9-1.1,1.6-1.5c2.2-1,4.7,0.1,5.8,2.4c1,2.3,0.1,4.9-2,5.9c-0.2,0.1-0.4,0.1-0.6,0.1l2.6,5.8
		c0.7-3.7,1.4-6.1,1.7-6.1c0.3,0.1,0,3.5-0.7,8.3l2.3,5.2l-3.4,1.5c-1,5.9-2.1,10.3-2.4,10.2c-0.3,0,0-4.1,0.8-9.5L92.5,62
		c-0.5,0.2-1,0.3-1.4,0.5c-1.1,1.4-2.7,2.4-4.7,2.4c-1.9,0-3.5-1-4.6-2.4c-0.1,0-0.2-0.1-0.3-0.1l-22.3,69.8l-1.3-0.4l-2.4,7.6
		l0.1,2.1l-0.8,0c-0.6,0-1.3,0.1-1.9,0.1c-12.5,0-23.8-6.9-29.5-17.9c-4-7.9-4.7-16.8-2-25.3c2.8-8.4,8.7-15.3,16.6-19.4
		c4.7-2.4,9.8-3.7,15.2-3.7l1.3,0l-0.6,1.1c-0.2,0.3-0.3,0.6-0.4,0.9L53.2,78l-0.5,0c-4.7,0.1-9.3,1.2-13.4,3.4
		C32,85.1,26.5,91.4,24,99.2c-2.5,7.8-1.9,16,1.8,23.3c5.3,10.3,16,16.7,27.7,16.5l2.5-7.7l-1.9-0.6l4.3-13.4c-0.2,0-0.4,0-0.6-0.1
		c-2.2-0.7-3.3-3.1-2.6-5.5c0.7-2.3,3.1-3.6,5.3-2.9c0.7,0.2,1.3,0.7,1.7,1.2c1-1.6,1.9-4.2,2.9-7.2c1.5-4.8,1.6-5.5,0.1-6.7
		L72,74.4c0.1,0,0.1,0.1,0.2,0.1c1.7,0.5,3.1,0.9,5.7-7.4c2.7-8.4,0-4.9-1.6-5.4c-0.1,0-0.1,0-0.2,0l0.6-1.8
		c-3.8-2.9-6.2-7.4-6.2-12.5c0-8.3,6.4-15,14.5-15.8v-4.4c0,0,0,0,0,0l0-0.4h-2.7v-0.3H28.9c-6.6,0-12,5.4-12,12v92.7
		c0,6.6,5.4,12,12,12h92.7c6.6,0,12-5.4,12-12V38.4C133.6,31.8,128.2,26.4,121.6,26.4z"/>
	<rect x="82.3" y="7.2" fill="#EA2227" width="0" height="19.2"/>
	<rect x="87.8" y="26.6" fill="#EA2227" width="2.7" height="0.1"/>
	<polygon fill="#EA2227" points="85,26.7 85,27.1 85,27.1 85,26.6 82.3,26.6 82.3,26.4 82.3,26.4 82.3,26.7 	"/>
	<rect x="82.3" y="7.2" fill="#EA2227" width="8.1" height="19.2"/>
	<path fill="#EA2227" d="M82.3,26.4v0.2H85v0.5c0.9-0.1,1.8-0.2,2.8-0.2v-0.2h0v-0.1h2.7v-0.2H82.3z"/>
</g>
</svg>
