<?xml version="1.0" encoding="utf-8"?>
<!-- Generator: Adobe Illustrator 18.1.0, SVG Export Plug-In . SVG Version: 6.00 Build 0)  -->
<svg version="1.0" id="Layer_1" xmlns="http://www.w3.org/2000/svg" xmlns:xlink="http://www.w3.org/1999/xlink" x="0px" y="0px"
	 viewBox="0 0 150 150" enable-background="new 0 0 150 150" xml:space="preserve">
<g>
	<g>
		<path fill="#2FABA3" d="M84.7,46.8l0.7,0.3l0.1-1.1l-0.4-1.1l-0.7-1.2c-0.1-0.8-0.1-0.8-0.1-0.8l-1.4,0.3l0.3,1.2l1.1,1.1
			L84.7,46.8z"/>
		<path fill="#2FABA3" d="M75.7,27.6l0.7-0.5l-0.9-0.7l-1.1,0.1l-1.1-0.3c0,0-2.4,0.5-0.4,0.9l1.8,0.4H75.7z"/>
		<path fill="#2FABA3" d="M75.5,32.5c0.4,0,1.6,0.1,2,0.1c0.4,0,0.9-0.7,1.5-1.1c0.5-0.4,0-0.9,0-0.9s-0.5,0-0.9,0.1
			c-0.4,0.1-1.5,0.3-1.5,0.3s-0.1-0.7-0.4-0.8c-0.3-0.1,0,0-0.8-0.1c-0.8-0.1,0.7,0.1-0.5,0.8c-1.2,0.7-1.1,0.4-1.5,0.5
			c0,0-0.1,0.8,0.3,1.1C73.6,32.5,75.1,32.5,75.5,32.5z"/>
		<path fill="#2FABA3" d="M89.2,51.9c-0.8,1.2-0.8,1.2-0.8,1.2s1.5,0.9,1.9,0.7c0.4-0.3,1.2,0,1.6-0.1c0.4-0.1,0.4-0.1,0.4-0.1
			s1.1,1.3,0.7,1.8c-0.4,0.4-0.7,0.7-0.7,1.2c0,0.5-0.1,1,0.3,1.5c0.4,0.5,0.8,1.8,0.8,1.8s1.2-0.9,1.1-1.3
			c-0.1-0.4-0.8-0.9-0.4-1.5s0.9-0.8,1.4-0.7c0.4,0.1,1.3,1.1,1.3,1.1s0.5,0.5,0.5,0.9c0,0.4-0.5,1.1-0.4,1.6
			c0.1,0.5,0.4,1.1,0.8,1.1c0.4,0,1.5,0,1.5,0s0.3-0.4,0.1-0.9c-0.1-0.5,0-0.4,0.4-0.5c0.4-0.1,1.1,0.5,1.1,0.5h0.6
			c0.1-0.5,0.3-0.9,0.4-1.4c-0.4,0.2-0.6,0.4-0.6,0.4s-0.1,0.1-0.5,0c-0.4-0.1-0.1-0.8-0.5-0.9C99.7,58,99.4,58,99,58.2
			c-0.4,0.3-0.4,0.3-0.4,0.3s-0.8-0.9-0.3-1.3c0.5-0.4,0.5-0.4,1.2-0.7c0.7-0.3,0.8-1.2,0.8-1.2s-0.4-0.7-0.9-0.7
			c-0.5,0-1.9,0.3-1.9,0.3l-1.1-0.1h-1.4l-0.8-0.3c0,0,0-0.7,0.4-1.3c0.4-0.7,0.4,0,0.4-0.7c0-0.7-0.4-1.3-0.4-1.3
			c-0.7-0.5-1.3-0.8-1.3-0.8c-0.5,0.3,0.7-0.9-2.2,0.9C88.4,53.1,90,50.7,89.2,51.9z"/>
		<path fill="#2FABA3" d="M95.8,74.8C95.8,74.8,95.8,74.7,95.8,74.8c0-0.1-1.1-0.1-1.5-0.2c-0.4-0.1-1.2-0.5-2-0.9
			c-0.8-0.4-1.6-0.7-2.2-0.7c-0.5,0-1.2,0.1-1.6,0.8c-0.4,0.7-1.1,0.5-1.5,0.4c-0.4-0.1-1.2-0.5-1.9-1c-0.7-0.4-1.8-0.1-1.8-0.1
			h-1.6c0,0-1.5,0.3-2.3,0.7c-0.8,0.4-1.2,0.1-1.6,0.4c-0.4,0.3-0.4,0.5-0.4,1.1c0,0.5,0.4,0.9,0.4,0.9S77.4,76.7,77,77
			c-0.4,0.3-0.5,0.1-0.5,0.7c0,0.5,0.5,0.9,0.5,0.9s-0.1,0.7-0.4,1.2c-0.3,0.5-0.4,0.7-0.7,1.2c-0.3,0.5,0.3,1.3,0.3,1.3
			s0.4,0.9,0.8,1.2c0.4,0.3,0.9,0.5,1.1,0.9c0.1,0.4,0.8,1.9,0.8,1.9l1.6,0.9l2-0.1l1.4-0.3l1.5-1.1l1.2-0.9l1.2-0.7l1.8-0.3
			c0,0,0.3,0.8,0.1,1.2c-0.1,0.4-0.3,0.8-0.3,0.8s-0.1,1.4-0.7,1.4l-0.9,0.7l-0.3,1.2l-0.7,0.3l-0.7,1.1l0.4,1.2l0.5-0.1
			c1.2-2.1,2.4-4.3,3.6-6.5C92.6,81.8,94.3,78.3,95.8,74.8z"/>
		<path fill="#2FABA3" d="M58.8,19.2c-0.5,0.4-0.1,0.7-0.1,0.7l1.1,0.9c0,0,1.3-0.9,1.8-0.9c0.4,0,1.5-0.1,1.5-0.1l2.7-0.7l1.9-0.3
			l1.5,1.1l0.5,1.5l2,1.8l1.8-0.8c0,0,1.1,0.4,0.8,0.8c-0.3,0.4,1.1,0.5,1.1,0.5l2,0.3l1.3,2l0.7,0.4l1.2,0.1l0.5,0.8l0.8,0.3
			l0.8,0.7l1.5-0.5c0,0,1.1,0.1,1.5,0.3c0.4,0.1,2,0.7,2.3,1.1c0.3,0.4,1.8-0.8,1.8-0.8s0-0.7-0.7-1.6c0,0,0,0-0.3-0.8
			c-0.3-0.8,0.1,0.8-1.2-0.9c-1.4-1.8,0.4-0.7,0.4-0.7l1.5,1.3c0,0,0.5,0.4,0.8,0.8c0.3,0.4,0.8,1.5,0.8,1.5s0,0,0.1,0.5
			c0.1,0.5,0.9,1.1,0.9,1.1l0.7,1.2l-0.7,1.8c0,0,0,0-0.5,0.3c-0.5,0.3-0.9,1.1-1.1,1.5c-0.1,0.4-1.2,0.9-1.6,1.3
			c-0.4,0.4-1.2,1.2-1.2,1.6c0,0.4,1,0.5,1,0.5l0.3,1.2l0.3,1.3l2,0.4c0,0,0.7,0.7,1.1,0.8c0.4,0.1,0.9,1.1,0.9,1.1l0.9,1.1
			c0,0,2,0.3,2.4,0.3c0.4,0,0.7,0.8,0.7,0.8s0.1,1.9,0.1,2.4c0,0.5,1.5,0.9,1.5,0.9s0.8,0.7,1.1,1.1c0.3,0.4,1.1-0.3,1.5-0.7
			c0.4-0.4,0.1-1.6,0.1-2.4c0-0.8-0.5-0.9-0.5-1.8c0-0.8,0.5-0.9,1.1-1.6c0.5-0.7-0.3-1.4-0.9-2c-0.7-0.7-0.5-1.2-0.7-2.6
			c-0.1-1.3,0.3-1.2,0.8-0.8c0.5,0.4,0.9,0.8,0.9,0.8s1.5,0.4,1.9,0.7c0.4,0.3,0.7,0.4,0.7,0.4l0.8,0.8c0.2-2.4,0.3-4.8,0.2-7
			c-0.1,0.5-0.7,0-0.9-0.4c-0.3-0.4-1.1-0.8-1.1-0.8s-0.4,1.4,0.1,1.6c0.2,0.1,0.3,0.2,0.5,0.3c0.4,0.3,0.6,0.6,0.6,0.6
			s0.8,0,0.5,0.7c-0.3,0.7-0.9,1.2-0.9,1.2l-0.9-0.1l-1.1-1.2c0,0-0.3-0.8,0.3-0.7c0.5,0.1,1.2,0.5,1.2,0.5l-1.3-1.3l-0.7-0.7
			c0,0-0.4-0.5-0.1-0.9c0.3-0.4,0-1.2-0.4-1.3c-0.4-0.1-1.2,0.3-1.1,0.7c0.1,0.4,0.5,1.5,0.5,1.5l0.1,0.8H100c0,0-0.7-1.1-0.5-1.5
			c0.1-0.4,0.5-1.8,0.4-2.2c-0.1-0.4,0-1.2,0-1.2l-0.5-0.7l-1.5-0.7l-1.5-1.1l-1.1,0.3c0,0-0.4,0.9,0.3,1.1c0.7,0.1,0.9,0.8,0.9,1.2
			c0,0.4,0.5,1.5,0,1.6c-0.5,0.1-1.6,0.3-1.8-0.1c-0.1-0.4-0.8-2-0.8-2l0.3-1.1c0,0-0.5-0.4-0.9-0.7c-0.4-0.3-0.8-1.2-0.5-1.6
			c0.3-0.4,0.7-0.4,0.8-0.8c0.1-0.4-0.7-0.9-0.7-0.9l-1.3-0.5c0,0-1.8-0.9-1.6-1.3c0.1-0.4,0.5-1.1,0.9-1.3c0.4-0.3,0.4-0.3,0.4-0.3
			l-0.6-1.2c-5-1.3-10.2-2.1-15.5-2.1c-5.2,0-10.3,0.7-15.2,2C59.5,18.5,59.1,19,58.8,19.2z M80,20.2l1.2,0.3h0.9l0.7,0.3l0.7,0.8
			l0.7,0.3l1.1,0.4l0.9,0.8l0.5,1.2c0,0-0.1,0.7-0.5,0.7c-0.4,0-0.7,0.9-0.7,0.9s0,0-0.4,0.1c-0.4,0.1-1.8-0.3-1.8-0.3
			s-0.4-0.5-0.8-0.5c-0.4,0-0.5-0.4-1.3-0.4c-0.8,0-0.9-0.4-1.8-0.5c-0.8-0.1,0.3-0.8,0.3-0.8s1.5,0.4,2,0.7
			c0.5,0.3,0.9-0.7,0.9-0.7L82,23.1c0,0-0.9-0.4-1.8-0.7c-0.8-0.3,0,0,1.4-0.4L81.2,21L80,21.8c0,0,0,0-0.5,0.1
			c-0.5,0.1,0.5-0.1-0.9-0.8C77,20.4,79.4,20.3,80,20.2z"/>
		<path fill="#2FABA3" d="M95.6,24.6c0.5-0.1,1.6-0.4,1.9,0.1c0.3,0.5,0.1,0.7,0.9,1.3c0.8,0.7,1.5,1.2,2,1.6
			c0.5,0.4,1.3,1.1,1.3,1.5c0,0.4,1.4,1.1,1.4,1.1s1.2-0.1,1.5,0.3c0.3,0.4,0.7,0.8,0.8,1.4c0.1,0.3,0.2,0.4,0.2,0.5
			c-0.1-2.2-0.4-4.2-0.8-6.1c-0.4,0-0.6,0-0.6,0l-1.5-1.6l-1.5-1.1c0,0-1.2-1.1-1.8-1.1c-0.5,0-2.3,0.5-2.3,0.5l-1.6-1.2l-0.8-1.6
			l-0.9-0.7l-0.5,0.4c0,0,0.5,1.4,0.9,1.8c0.4,0.4,0.9,1.1,0.8,1.6S95.1,24.7,95.6,24.6z"/>
		<path fill="#2FABA3" d="M85,93c-0.4,0-1.6-0.9-2-1.1c-0.4-0.1-1.1-1.3-1.3-1.8c-0.3-0.4-0.9-0.8-1.3-0.9c-0.4-0.1-2.2-0.4-2.2-0.4
			h-1.4c0,0-1.2-0.3-1.6-0.4c-0.4-0.1-0.9-0.8-1.5-0.8c-0.5,0-1.4-1.2-2.2-1.3c-0.8-0.1-1.5-1.3-1.9-1.5c-0.4-0.1-1.8-0.5-1.9-1.1
			c-0.1-0.5-0.8-0.9-1.2-1.6c-0.4-0.7-0.4-0.7-0.4-1.2c0-0.5,0.3-0.9,0.3-1.3c0-0.4,0-1.1,0-1.5c0-0.4-0.4-1.2-0.4-1.8
			c0-0.5-1.2-1.2-1.5-1.6c-0.3-0.4-0.8-0.9-1.1-1.4c-0.3-0.4,0.1-0.7,0.1-1.1c0-0.4-0.7-1.3-1.1-2.2c-0.4-0.8-0.7-1.3-1.2-2.3
			c-0.5-0.9,0-0.9,0.1-1.3c0.1-0.4-0.5-1.2-0.7-1.6c-0.1-0.4-0.8-0.8-1.2-0.8c-0.4,0-0.7,0.1-0.8,0.7c-0.1,0.5,0,1.1,0.8,2
			c0,0,0.1,0.9-0.1,1.3C59,68.4,59,69.1,59,69.1l0.8,0.3c0,0,0.5,1.2,0.5,1.6c0,0.4,0.4,1.8,0.4,1.8l0.7,3.6c0,0-0.5-1.2-0.9-1.6
			c-0.4-0.4-0.8-1.2-0.9-1.9c-0.1-0.7-0.5-1.6-0.5-1.6l-0.5-0.9l-1.1-1.2l0.5-0.7l0.5-0.7l-0.3-1.1l-0.9-2.2l-0.1-2l-0.5-1.9
			c0,0-0.8-0.9-1.2-1.2c-0.4-0.3-0.5-1.3-0.7-1.8c-0.1-0.4-0.4-1.8-0.4-2.4c0-0.7,0.3-2.7,0.4-3.2c0.1-0.5,0.8-2.2,0.8-2.2l0.9-2
			l1.3-2.3l0.7-0.9l0.4-1.2l-0.3-0.9c0,0,0-0.7,0.7-0.5c0,0,0.7,1.2,1.2,1.5l-0.1-0.9l-0.9-1.1l-0.9-0.8l0.8-0.8c0,0,0,0,0.5,0.5
			c0.5,0.5,0.8,0.8,1.3,2.2c0,0,0.3-1.1,0.1-1.9c-0.1-0.8-0.5-1.3-0.5-1.3l-1.1-1.5c0,0-0.3-0.9,0-1.5c0.3-0.5,0.8-0.7,0.7-1.1
			c-0.1-0.4-0.3-0.9-0.3-1.4c0-0.4,0.5-0.9,1.1-1.5c0.5-0.5-0.5-1.5-0.5-1.5l0.3-1.1c0,0-0.1-1.4-0.3-1.9c-0.1-0.5-0.8-0.4-1.2-0.5
			c-0.4-0.1-0.8-0.7-1.1-1.2c-0.3-0.5-1.2-1.1-1.2-1.1s-0.9-0.3-1.6,0.1c-0.7,0.4-0.8,0.4-1.5,0.7c-0.7,0.3-1.2-0.3-1.6-0.4
			c-0.4-0.1,0-0.8,0-0.8s0.3-0.7,0.8-1.1c0.5-0.4,0.9-0.8,1.5-1c0.5-0.1,1.5-0.3,1.5-0.3l1.5-0.4L58,21l-0.7-0.5l-0.9-0.1
			c0,0-0.8,0-1.5,0.4c-0.7,0.4-1.3-0.3-1.3-0.3l0.5-0.4c-22.5,8.5-38.5,30.2-38.5,55.7c0,24.1,14.4,44.9,35,54.2
			c11.8-4.8,24.8-18.4,35.8-36.8C85.9,93.1,85.2,93,85,93z"/>
	</g>
	<path fill-rule="evenodd" clip-rule="evenodd" fill="#263C47" d="M97,12.2c-8.2-4.3-18.8-2.5-29.6,4.1c0.4,0,0.8-0.1,1.3-0.1
		C78,10.6,86.9,9,93.8,12.7c15.9,8.4,15,41.5-2.1,73.9S47.9,138.4,31.9,130c-8.5-4.5-12.2-15.9-11.2-30.6c-0.3-0.5-0.6-1.1-0.8-1.7
		c-1.3,16.8,3.1,30.3,13.2,35.6c17.8,9.4,47.6-8.7,65.2-42.1C115.9,57.8,114.8,21.6,97,12.2z"/>
	<g>
		<path fill="#F69320" d="M82.5,101.2c0,0.1-0.1,0.3-0.1,0.4c0.2-0.3,0.4-0.6,0.6-0.8C82.9,101,82.7,101.1,82.5,101.2z"/>
		<path fill="#F69320" d="M114.9,31.7c0.1,0.4,0.3,1.7,0.6,2c0.4,0.4,0.9,1.4,1.4,1.6c0.4,0.3,0.5,1.8,0.5,1.8l-0.7,0.8l-0.9-0.7
			l-2.3-1.5l-1.9-1.3l-0.7-1.6l-1.2-1.9l-0.3-0.3c0.9,3.8,1.4,7.9,1.5,12.4C111,42.9,111,43,111,43l0.9,1.6c0,0,1.2,0.7,2,1.2
			c0.8,0.5,1,0.8,1,0.8l-0.8,0.5c0,0-0.4,0.5-0.1,0.9c0.3,0.4,0.8,0,0.8,0s0.8-0.5,1.8,0c0.4,0.2-0.5,1.2-0.5,1.2l-0.5,1.1
			c0,0-0.7,0.4-1.1,0.7c-0.4,0.3-0.7-0.1-1.1-0.1c-0.4,0-1.1-0.4-1.8-0.4c-0.4,0-0.7,0.3-0.9,0.5c-0.1,0.7-0.1,1.4-0.2,2
			c0.2-0.4,0.5-0.8,0.9-1c0.7-0.4,0.7,0.8,0.7,0.8s-0.1,0.9,0.3,1.2c0.4,0.3,0.5,1.3,0.5,1.3l-1.5,1.3l-1.2,0.7c0,0-0.2,0.2-0.3,0.4
			c-1.8,10.7-5.6,22.2-11.5,33.4c-1.4,2.7-2.9,5.3-4.5,7.8l0.8,0.1l1.2-0.3h1.5l1.1,0.4l0.1,1.3c0,0-0.7-0.3-1.8-0.7c0,0,0,0-0.5,0
			c-0.5,0-0.8,0.3-0.8,0.3s-0.8,0.1-1.2,0.1c-0.3,0-0.6-0.1-1-0.4c-10.3,16-23.2,27.4-35.5,32.6c5.5,1.7,11.3,2.6,17.3,2.6
			c2.6,0,5.2-0.2,7.7-0.5c-0.5,0-0.7,0-0.7,0s2.3-0.6,2.9-0.9c0.5-0.3,1.3-0.4,1.5-0.9c0.1-0.5,1.4-0.9,2-1.2
			c0.7-0.3,3.2-1.2,3.6-1.3c0.4-0.1,1.8-1.6,2.2-1.9c0.4-0.3,1.6-1.8,1.6-1.8s2.2-1.4,2.4-1.8c0.3-0.4,1.2-1.5,1.5-2.2
			c0.3-0.7-0.7-1.2-0.8-1.6c-0.1-0.4-0.5-0.4-1.5-0.5c-0.9-0.1-0.7-0.7-1.8-0.9c-1.1-0.3-0.5-0.7-1.1-1.6c-0.5-1-0.1-1.1,0-1.6
			c0.1-0.5-0.7-1.2-0.9-1.6c-0.3-0.4-0.7-0.5-1.1-0.4c-0.4,0.1-0.5-0.9-1.1-1.2c-0.5-0.3-0.3-1.8,0-2c0.3-0.3,0.8,0.1,1.8-0.4
			c0,0,0.8-0.7,0.9-1.5l-0.7,0.5l-1.1-0.1c0,0,0.8-0.8,1.2-1.1c0.4-0.3,1.2-1.3,1.8-2c0.5-0.7,1.5-1.8,1.5-1.8s1.1,0,1.5,0
			c0.4,0,0.4-0.8,0.4-0.8l-0.1-1.2l0.4-0.7l0.1-1.1l-0.3-1l0.8-0.5l2.6-1.9l0.9-1.1c0,0,1.8-0.5,2.6-0.7c0.8-0.1,0.7,0.7,0.7,0.7
			s0,0-0.5,0.5c-0.5,0.5-0.1,1.1-0.3,1.5c-0.1,0.4,0.8,0.5,1.5,0.7c0.7,0.1,0.8-0.9,0.8-1.6c0-0.7-0.7-0.8-0.4-1.2
			c0.3-0.4,1.3-0.5,1.8-0.5c0.4,0,1.5,0.8,1.9,1.2c0.4,0.4,1.3-0.3,1.3-0.3s1.8-0.4,2.3-0.4c0.5,0,0.7,0.3,0.3,0.7
			c-0.4,0.4-0.1,1.1-0.1,1.5c0,0.4,1.1-0.4,1.5-0.8c0.4-0.4,1.9-0.4,2.3-0.4c0.4,0,0,0.8-0.5,1.1c-0.5,0.3-0.5,1.1-0.5,1.1l1.4,0.4
			c0,0,1.5-0.3,1.9-0.5c0.4-0.3,2.2,0,2.8,0.8c0,0,0.1,0.5,0,1.5c-0.1,0.9,0,0-0.1,0.4c-0.1,0.4-0.8,0.9-1.2,1.5
			c-0.4,0.5-1.2,0.8-1.6,1.2c-0.4,0.4-0.8,0.7-1.5,1.2s-1.5,1.2-1.5,1.2s0.9,0.1,1.5,0.1c0.5,0,1.4-0.9,1.9-1.4
			c0.5-0.4,0.9-0.9,1.9-1.8c0.3-0.3-0.7,1.8-0.5,2.2c0.1,0.4,0.9-0.8,1.4-1.2c0.4-0.4,0.8-0.8,1.2-1.2c0.4-0.4,1.2-0.7,1.2-0.7
			l0.8,0.3l0.5-0.1c4.4-8.3,6.9-17.7,6.9-27.8C134.5,58.2,126.9,42.5,114.9,31.7z"/>
	</g>
</g>
</svg>
