<?xml version="1.0" encoding="utf-8"?>
<!-- Generator: Adobe Illustrator 18.1.0, SVG Export Plug-In . SVG Version: 6.00 Build 0)  -->
<svg version="1.1" id="Layer_1" xmlns="http://www.w3.org/2000/svg" xmlns:xlink="http://www.w3.org/1999/xlink" x="0px" y="0px"
	 viewBox="0 0 1500 1500" enable-background="new 0 0 1500 1500" xml:space="preserve">
<g>
	<path fill="#3A5675" d="M530.8,429.4c28.4,13.7,52,37.6,70.3,60.6H753V148.9c-284,0.9-528.7,205.9-584.6,478.3
		c0.8-1.6,1.9-2.9,2.7-4.5C249.9,458.3,411.2,372,530.8,429.4z"/>
	<path fill="#3A5675" d="M1002,434.2c121.9-49.5,275.3,44.7,344.7,211c-47.4-272.4-276.7-482-561.7-495.6V490h143.3
		C948.2,467,972.9,446,1002,434.2z"/>
	<path fill="#00A9DE" d="M938.8,902H563.8c-85.6,118-217.1,172.3-318.7,123.4c-11-5.3-21.2-12.3-30.7-19.6
		c96.2,202.7,302.7,342.5,542,342.5c232.1,0,433.5-132.1,533.1-325.1c-12,8.9-25,17.8-39.2,23.5
		C1145.4,1089.5,1016.8,1020,938.8,902z M759,1298.6c-141.3,0-255.9-44.6-255.9-99.6c0-55,114.6-99.6,255.9-99.6
		c141.3,0,255.9,44.6,255.9,99.6C1014.9,1254,900.3,1298.6,759,1298.6z"/>
	<path opacity="0.32" fill="#BAC1CE" d="M1341.7,715.2l-43,15.6c30.7,303.3-156.2,281.2-156.2,281.2
		C1400.3,1047.3,1341.7,715.2,1341.7,715.2z"/>
	<path opacity="0.32" fill="#BAC1CE" d="M303.9,1011.1C460.2,1018.9,565.7,846,565.7,846h339.8l3.9-42L511,800.7
		c0,0-289.1,343.5-359.4-47.1C151.6,753.5,147.7,1003.3,303.9,1011.1z"/>
	<path fill="#3A5675" d="M389.6,809.8c18.5,16.9,51.4,11,73.4-13.1c16.9-18.5,22.5-42.3,16-60.1c-0.7,14-7,29.2-18.6,41.9
		c-22.1,24.1-55,30-73.4,13.1c-4.3-3.9-7.4-8.8-9.4-14.2C377,790,380.8,801.7,389.6,809.8z"/>
	<path fill="#3A5675" d="M381,644.3c16.9-18.5,22.6-42.4,15.9-60.1c-0.7,14-7,29.2-18.6,41.9c-22.1,24.1-55,30-73.4,13.1
		c-4.3-3.9-7.4-8.8-9.4-14.2c-0.6,12.7,3.3,24.4,12,32.4C326.1,674.3,358.9,668.4,381,644.3z"/>
	<path fill="#3A5675" d="M225.6,825.4c18.5,16.9,51.3,11,73.4-13.1c16.9-18.5,22.6-42.3,16-60.1c-0.7,14-7,29.2-18.6,41.8
		c-22.1,24.1-55,30-73.4,13.1c-4.3-3.9-7.4-8.8-9.4-14.2C212.9,805.6,216.8,817.4,225.6,825.4z"/>
	<path fill="#00A9DE" d="M460.4,778.4c11.6-12.7,17.9-27.8,18.6-41.9c0.6-12.7-3.2-24.4-12-32.4c-18.5-16.9-51.4-11-73.4,13.1
		c-16.9,18.5-22.6,42.3-16,60.1c2,5.4,5.1,10.3,9.4,14.2C405.5,808.4,438.4,802.6,460.4,778.4z"/>
	<path fill="#00A9DE" d="M378.4,626.1c11.6-12.7,17.9-27.9,18.6-41.9c0.6-12.7-3.3-24.4-12-32.4c-18.5-16.9-51.4-11-73.4,13.1
		c-16.9,18.5-22.5,42.3-15.9,60.1c2,5.4,5.1,10.3,9.4,14.2C323.5,656.1,356.3,650.2,378.4,626.1z"/>
	<path fill="#00A9DE" d="M296.4,794c11.6-12.7,17.8-27.8,18.6-41.8c0.6-12.7-3.3-24.4-12-32.4c-18.5-16.9-51.4-11-73.4,13.1
		c-16.9,18.5-22.5,42.3-16,60.1c2,5.4,5.1,10.3,9.4,14.2C241.5,824,274.3,818.2,296.4,794z"/>
	<path fill="#3A5675" d="M1193.9,751H1149v8h44.9c17.3,0,31.3-14.1,31.3-31.3c0-1.8-0.2-2.3-0.5-4
		C1222.1,738.5,1209.4,751,1193.9,751z"/>
	<path fill="#3A5675" d="M1041.6,751c-15.5,0-28.2-12.6-30.7-27.3c-0.3,1.7-0.5,2.8-0.5,4.6c0,17.3,14,30.7,31.2,30.7h44.4v-8
		H1041.6z"/>
	<path fill="#3A5675" d="M1117.5,824.6c-17.3,0-31.5-14-31.5-31.2v10.4c0,17.3,14.2,31.3,31.5,31.3c17.3,0,31.5-14,31.5-31.3v-10.4
		C1149,810.6,1134.8,824.6,1117.5,824.6z"/>
	<path fill="#00A9DE" d="M1117.5,824.6c17.3,0,31.5-14,31.5-31.2v-34.5V751h44.9c15.5,0,28.2-12.6,30.7-27.3c0.3-1.7,0.5-3,0.5-4.8
		c0-17.3-14-30.9-31.3-30.9H1149v-36.5V641c0-17.3-14.2-31.2-31.5-31.2c-17.3,0-31.5,14-31.5,31.2v10.4V688h-44.4
		c-17.3,0-31.2,13-31.2,30.2c0,1.8,0.2,4.3,0.5,6c2.5,14.8,15.2,26.8,30.7,26.8h44.4v7.9v34.5C1086,810.6,1100.2,824.6,1117.5,824.6
		z"/>
	<path fill="#11B8E4" d="M759,1099.4c-141.3,0-255.9,44.6-255.9,99.6c0,55,114.6,99.6,255.9,99.6c141.3,0,255.9-44.6,255.9-99.6
		C1014.9,1143.9,900.3,1099.4,759,1099.4z"/>
</g>
</svg>
