<?xml version="1.0" encoding="utf-8"?>
<!-- Generator: Adobe Illustrator 18.1.0, SVG Export Plug-In . SVG Version: 6.00 Build 0)  -->
<svg version="1.1" id="Layer_1" xmlns="http://www.w3.org/2000/svg" xmlns:xlink="http://www.w3.org/1999/xlink" x="0px" y="0px"
	 viewBox="0 0 150 150" enable-background="new 0 0 150 150" xml:space="preserve">
<g>
	<path fill="#005E80" d="M132.6,9H27.8c20.8,13.2,69.5,46.4,90.4,80.4c0.4,0.5,11.2,16.1,5.9,30.9c-3,8.3-10.5,14.5-22.1,18.6h30.6
		V9z"/>
	<path fill="#7D98B0" d="M91,120.6c5.2-8.4,4.5-19.2-2-32c-0.1-0.2-12.7-23.2-34.5-43c8.8,15.4,19.8,42.1,8.2,65.5l-5.3,5.4l1.1-7.3
		C58.6,108.8,71.6,75.3,17.2,9h-0.2v129.9h43.5C72.8,135.6,85.1,130.1,91,120.6z"/>
	<path fill="#FFFFFF" d="M116.2,90.6C89.9,47.7,17,5,17,5c58.8,70.3,43.6,105,43.6,105c16.8-33.8-16.3-75.8-16.3-75.8
		C74,55.9,91.1,87.5,91.1,87.5c29.7,58.7-66.9,58.3-66.9,58.3c47,1.9,71.5-7.4,71.5-7.4C141.7,126.4,116.2,90.6,116.2,90.6z"/>
	<path fill="#7BC7B3" d="M116.2,90.6C89.9,47.7,17,5,17,5c58.8,70.3,43.6,105,43.6,105c16.8-33.8-16.3-75.8-16.3-75.8
		C74,55.9,91.1,87.5,91.1,87.5c29.7,58.7-66.9,58.3-66.9,58.3c47,1.9,71.5-7.4,71.5-7.4C141.7,126.4,116.2,90.6,116.2,90.6z"/>
</g>
</svg>
