<?xml version="1.0" encoding="iso-8859-1"?>
<!-- Generator: Adobe Illustrator 13.0.0, SVG Export Plug-In . SVG Version: 6.00 Build 14948)  -->
<!DOCTYPE svg PUBLIC "-//W3C//DTD SVG 1.1//EN" "http://www.w3.org/Graphics/SVG/1.1/DTD/svg11.dtd">
<svg version="1.1" id="Layer_1" xmlns="http://www.w3.org/2000/svg" xmlns:xlink="http://www.w3.org/1999/xlink" x="0px" y="0px"
	 width="100px" height="100px" viewBox="0 0 100 100" enable-background="new 0 0 100 100" xml:space="preserve">
<g>
	<ellipse fill="#CBCCCE" cx="46.445" cy="77.292" rx="30.591" ry="1.212"/>
	<g>
		<path fill="#38683D" d="M77.59,46.083c5.524-24.8-13.776-32.066-19.496-33.633C69.705,23.429,75.147,35.882,77.59,46.083z"/>
		<path fill="#FFFFFF" d="M77.092,66.137c0,0,3.499-31.104-22.42-53.822c0,0-23.802,22.238-22.161,44.429
			c0.508,0.486,1.036,0.966,1.569,1.443c0.94-7.99,4.843-23.641,20.552-38.639C54.632,19.547,72.437,36.044,77.092,66.137z"/>
		<radialGradient id="SVGID_1_" cx="54.8398" cy="39.2256" r="24.7631" gradientUnits="userSpaceOnUse">
			<stop  offset="0.1212" style="stop-color:#D7DD3F"/>
			<stop  offset="0.4545" style="stop-color:#9DC44D"/>
			<stop  offset="0.7455" style="stop-color:#51924B"/>
			<stop  offset="1" style="stop-color:#1E4324"/>
		</radialGradient>
		<path fill="url(#SVGID_1_)" d="M77.092,66.137c0,0,3.499-31.104-22.42-53.822c0,0-23.802,22.238-22.161,44.429
			c0.508,0.486,1.036,0.966,1.569,1.443c0.94-7.99,4.843-23.641,20.552-38.639C54.632,19.547,72.437,36.044,77.092,66.137z"/>
		<path fill="#38683D" d="M84.561,45.937c3.008,6.937,3.17,13.722-0.228,18.819c-7.004,10.553-26.528,9.908-43.616-1.432
			c-1.594-1.061-3.086-2.19-4.525-3.353c-0.723-0.587-1.429-1.18-2.112-1.785c-0.533-0.478-1.061-0.957-1.569-1.443
			c-0.847-0.816-1.656-1.649-2.428-2.493c-9.467-10.37-12.934-22.551-7.607-30.577c1.683-2.534,4.091-4.414,7.007-5.661
			c-6.247,0.809-11.224,3.401-13.911,7.833c-5.865,9.682,1.056,24.937,15.638,36.749c0.609,0.489,1.216,0.978,1.848,1.454
			c2,1.515,4.115,2.978,6.365,4.337c20.042,12.142,41.87,12.783,48.751,1.424C92.039,63.426,90.352,54.603,84.561,45.937z"/>
		<path fill="#38683D" d="M39.229,47.127c14.527,1.586,30.072,0,30.072,0C59.199,44.634,39.229,47.127,39.229,47.127z"/>
		<path fill="#38683D" d="M43.927,43.909c9.99,1.091,20.676,0,20.676,0C57.659,42.196,43.927,43.909,43.927,43.909z"/>
		<path fill="#38683D" d="M43.927,50.001c9.99,1.09,20.676,0,20.676,0C57.659,48.288,43.927,50.001,43.927,50.001z"/>
	</g>
</g>
</svg>
