<?xml version="1.0" encoding="utf-8"?>
<!-- Generator: Adobe Illustrator 18.1.0, SVG Export Plug-In . SVG Version: 6.00 Build 0)  -->
<svg version="1.1" id="Layer_1" xmlns="http://www.w3.org/2000/svg" xmlns:xlink="http://www.w3.org/1999/xlink" x="0px" y="0px"
	 viewBox="0 0 150 150" enable-background="new 0 0 150 150" xml:space="preserve">
<g>
	<polygon fill="#0C3A5B" points="129.8,74.4 81.3,74.4 81.3,86.1 129.8,86.1 129.8,95.7 142.8,95.7 142.8,86.1 142.8,74.4 	"/>
	<g>
		<path fill="#97A73A" d="M78.5,110.4c-19.8,0-36-16.1-36-36c0-19.8,16.1-36,36-36c8.6,0,16.5,3.1,22.7,8.2h15.6
			C108.2,34.8,94.3,27,78.5,27c-26.2,0-47.4,21.3-47.4,47.5c0,26.2,21.3,47.5,47.4,47.5c15.2,0,28.6-7.3,37.3-18.4H99.5
			C93.6,107.8,86.4,110.4,78.5,110.4z"/>
		<path fill="#0C3A5B" d="M129.3,103.7c-10.1,17.6-29.1,29.4-50.8,29.4c-32.4,0-58.7-26.3-58.7-58.7c0-32.4,26.3-58.7,58.7-58.7
			c21.7,0,40.7,11.9,50.8,29.4c0.3,0.5,0.5,1,0.8,1.4h12.7c-1.1-2.5-2.2-4.9-3.5-7.2c-12.1-21-34.8-35.2-60.8-35.2
			C39.8,4.3,8.3,35.7,8.3,74.4c0,38.7,31.5,70.2,70.2,70.2c26,0,48.7-14.2,60.8-35.2c1.1-1.9,2.1-3.9,3-6h-12.9
			C129.4,103.5,129.4,103.6,129.3,103.7z"/>
	</g>
</g>
</svg>
