<?xml version="1.0" encoding="utf-8"?>
<!-- Generator: Adobe Illustrator 18.1.0, SVG Export Plug-In . SVG Version: 6.00 Build 0)  -->
<svg version="1.1" id="Layer_1" xmlns="http://www.w3.org/2000/svg" xmlns:xlink="http://www.w3.org/1999/xlink" x="0px" y="0px"
	 viewBox="0 0 150 150" enable-background="new 0 0 150 150" xml:space="preserve">
<g>
	<path fill="#00A85D" d="M62.9,133.8c-0.2,0-0.5-0.1-0.7-0.1C62.4,133.7,62.7,133.7,62.9,133.8z"/>
	<path fill="#00A85D" d="M66,134.3c-0.2,0-0.4-0.1-0.6-0.1C65.6,134.3,65.8,134.3,66,134.3z"/>
	<path fill="#00A85D" d="M71.9,134.9c-0.2,0-0.4,0-0.6,0C71.5,134.9,71.7,134.9,71.9,134.9z"/>
	<path fill="#00A85D" d="M40.5,109.2c-2.2-0.7-3.6-3-3-5.3l17.4-72.3c0.6-2.4,3-3.9,5.4-3.3l48.9,11.8c1.3,0.3,2.3,1.1,2.8,2.2
		l22,26.9c0.2,2,0.3,4,0.3,6c0-33-26.8-59.7-59.7-59.7c-33,0-59.7,26.8-59.7,59.7c0,27.9,19.2,51.4,45.1,57.9
		c-0.1,0-0.2-0.1-0.4-0.1L40.5,109.2z"/>
	<path fill="#00A85D" d="M68.7,134.7c-0.2,0-0.3,0-0.5-0.1C68.4,134.6,68.5,134.6,68.7,134.7z"/>
	<path fill="#10B36F" d="M134.1,69.2l-22-26.9c0.5,0.9,0.7,2.1,0.4,3.2l-17.4,72.3c-0.6,2.4-3,3.9-5.4,3.3l-48.9-11.8
		c-0.1,0-0.2-0.1-0.3-0.1l19.2,23.9c0.1,0,0.2,0.1,0.4,0.1c0.7,0.2,1.5,0.3,2.2,0.5c0.2,0.1,0.5,0.1,0.7,0.1
		c0.8,0.2,1.6,0.3,2.5,0.4c0.2,0,0.4,0.1,0.6,0.1c0.7,0.1,1.5,0.2,2.2,0.3c0.2,0,0.3,0,0.5,0.1c0.9,0.1,1.7,0.2,2.6,0.2
		c0.2,0,0.4,0,0.6,0c0.9,0,1.8,0.1,2.7,0.1c33,0,59.7-26.8,59.7-59.7C134.4,73.2,134.3,71.2,134.1,69.2z"/>
	<path fill="#E6E7E8" d="M109.2,40.1L60.3,28.3c-2.4-0.6-4.8,0.9-5.4,3.3l-17.4,72.3c-0.6,2.3,0.8,4.6,3,5.3c0.1,0,0.2,0.1,0.3,0.1
		l48.9,11.8c2.4,0.6,4.8-0.9,5.4-3.3l17.4-72.3c0.3-1.1,0.1-2.2-0.4-3.2C111.5,41.2,110.5,40.4,109.2,40.1z M56.1,54.5l11.6,2.8
		L65.9,65l-11.6-2.8L56.1,54.5z M68.2,79.1l1.9-7.7l11.6,2.8l-1.9,7.7L68.2,79.1z M82.9,69.1l-11.6-2.8l1.9-7.7l11.6,2.8L82.9,69.1z
		 M53,67.3l11.6,2.8l-1.9,7.7L51.2,75L53,67.3z M56.6,103.3L45,100.5l1.9-7.7l11.6,2.8L56.6,103.3z M48.1,87.7L50,80l11.6,2.8
		l-1.9,7.7L48.1,87.7z M73.7,107.4l-11.6-2.8l1.9-7.7l11.6,2.8L73.7,107.4z M76.8,94.7l-11.6-2.8l1.9-7.7L78.6,87L76.8,94.7z
		 M90.8,111.5l-11.6-2.8L81,101l11.6,2.8L90.8,111.5z M93.9,98.8L82.2,96l1.9-7.7l11.6,2.8L93.9,98.8z M96.9,86l-11.6-2.8l1.9-7.7
		l11.6,2.8L96.9,86z M100,73.3l-11.6-2.8l1.9-7.7l11.6,2.8L100,73.3z M104,58.9L57.8,47.7l2.9-11.9L106.8,47L104,58.9z"/>
	
		<rect x="76.2" y="23.6" transform="matrix(0.2344 -0.9722 0.9722 0.2344 16.978 116.2423)" fill="#8F9194" width="12.2" height="47.5"/>
	
		<rect x="55" y="55.8" transform="matrix(0.9722 0.2343 -0.2343 0.9722 15.7067 -12.6272)" fill="#BCBDC0" width="11.9" height="7.9"/>
	
		<rect x="72.1" y="59.9" transform="matrix(-0.9721 -0.2345 0.2345 -0.9721 138.9586 144.3196)" fill="#BCBDC0" width="11.9" height="7.9"/>
	
		<rect x="89.2" y="64.1" transform="matrix(-0.9721 -0.2345 0.2345 -0.9721 171.6588 156.4468)" fill="#BCBDC0" width="11.9" height="7.9"/>
	
		<rect x="51.9" y="68.6" transform="matrix(0.9721 0.2345 -0.2345 0.9721 18.6268 -11.5581)" fill="#BCBDC0" width="11.9" height="7.9"/>
	
		<rect x="69" y="72.7" transform="matrix(0.9721 0.2347 -0.2347 0.9721 20.0863 -15.4571)" fill="#BCBDC0" width="11.9" height="7.9"/>
	
		<rect x="86.1" y="76.8" transform="matrix(-0.9721 -0.2344 0.2344 -0.9721 162.6136 180.879)" fill="#BCBDC0" width="11.9" height="7.9"/>
	
		<rect x="48.9" y="81.3" transform="matrix(0.9721 0.2344 -0.2344 0.9721 21.5204 -10.4759)" fill="#BCBDC0" width="11.9" height="7.9"/>
	
		<rect x="65.9" y="85.5" transform="matrix(-0.9721 -0.2345 0.2345 -0.9721 120.8356 193.1981)" fill="#BCBDC0" width="11.9" height="7.9"/>
	
		<rect x="83" y="89.6" transform="matrix(-0.9721 -0.2346 0.2346 -0.9721 153.5305 205.329)" fill="#BCBDC0" width="11.9" height="7.9"/>
	
		<rect x="47.8" y="92.1" transform="matrix(0.2344 -0.9721 0.9721 0.2344 -55.7005 125.3821)" fill="#00B06B" width="7.9" height="11.9"/>
	
		<rect x="62.9" y="98.2" transform="matrix(-0.9721 -0.2346 0.2346 -0.9721 111.7614 217.6415)" fill="#BCBDC0" width="11.9" height="7.9"/>
	
		<rect x="79.9" y="102.3" transform="matrix(-0.9721 -0.2345 0.2345 -0.9721 144.4794 229.7616)" fill="#BCBDC0" width="11.9" height="7.9"/>
</g>
</svg>
