<?xml version="1.0" encoding="utf-8"?>
<!-- Generator: Adobe Illustrator 18.1.0, SVG Export Plug-In . SVG Version: 6.00 Build 0)  -->
<svg version="1.1" id="Layer_1" xmlns="http://www.w3.org/2000/svg" xmlns:xlink="http://www.w3.org/1999/xlink" x="0px" y="0px"
	 viewBox="0 0 150 150" enable-background="new 0 0 150 150" xml:space="preserve">
<g>
	<g>
		
			<rect x="86.5" y="59.1" transform="matrix(-0.866 0.5 -0.5 -0.866 233.2626 67.1103)" fill="#EF9E23" width="42.4" height="11.5"/>
		<g>
			<g>
				
					<rect x="81.2" y="75.4" transform="matrix(-0.866 0.5 -0.5 -0.866 231.6561 100.1388)" fill="#9F2D22" width="42.4" height="11.5"/>
			</g>
		</g>
		<g>
			<g>
				
					<rect x="76" y="91.7" transform="matrix(-0.866 0.5 -0.5 -0.866 230.0485 133.1735)" fill="#1D8A91" width="42.4" height="11.5"/>
			</g>
		</g>
		<g>
			<g>
				<polygon fill="#0B1419" points="69.3,120 107.4,98.1 113.2,108.1 69.2,134 				"/>
			</g>
		</g>
		
			<rect x="122.5" y="62.4" transform="matrix(-0.5 -0.866 0.866 -0.5 132.8195 211.6106)" fill="#DC4533" width="10" height="10.1"/>
		
			<rect x="117.5" y="78.6" transform="matrix(-0.5 -0.866 0.866 -0.5 111.3257 231.5318)" fill="#21B4B4" width="10" height="10.1"/>
		<rect x="112.5" y="94.8" transform="matrix(-0.5 -0.866 0.866 -0.5 89.8372 251.4539)" fill="#183B61" width="10" height="10.1"/>
	</g>
	<g>
		<rect x="19.9" y="42.7" transform="matrix(0.866 0.5 -0.5 0.866 29.7265 -14.0315)" fill="#EF9E23" width="42.4" height="11.5"/>
		<g>
			<g>
				
					<rect x="36.6" y="39.1" transform="matrix(0.866 0.5 -0.5 0.866 30.1551 -22.8818)" fill="#9F2D22" width="42.4" height="11.5"/>
			</g>
		</g>
		<g>
			<g>
				
					<rect x="53.3" y="35.5" transform="matrix(0.866 0.5 -0.5 0.866 30.5876 -31.7335)" fill="#1D8A91" width="42.4" height="11.5"/>
			</g>
		</g>
		<g>
			<g>
				<polygon fill="#0B1419" points="108,54 70,32 75.8,22 120.2,47.2 				"/>
			</g>
		</g>
		<rect x="28.4" y="24.9" transform="matrix(-0.5 0.866 -0.866 -0.5 76.0398 15.9491)" fill="#DC4533" width="10" height="10.1"/>
		<rect x="44.9" y="21.1" transform="matrix(-0.5 0.866 -0.866 -0.5 97.5362 -3.972)" fill="#21B4B4" width="10" height="10.1"/>
		<rect x="61.4" y="17.4" transform="matrix(-0.5 0.866 -0.866 -0.5 119.0307 -23.8952)" fill="#183B61" width="10" height="10.1"/>
	</g>
	<g>
		<rect x="54.8" y="93.1" fill="#EF9E23" width="11.5" height="42.4"/>
		<g>
			<g>
				<rect x="43.3" y="80.4" fill="#9F2D22" width="11.5" height="42.4"/>
			</g>
		</g>
		<g>
			<g>
				<rect x="31.8" y="67.7" fill="#1D8A91" width="11.5" height="42.4"/>
			</g>
		</g>
		<g>
			<g>
				<polygon fill="#0B1419" points="31.9,53.5 31.8,97.4 20.3,97.4 19.9,46.4 				"/>
			</g>
		</g>
		<rect x="43.3" y="125.1" fill="#DC4533" width="10" height="10.1"/>
		<rect x="31.8" y="112.7" fill="#21B4B4" width="10" height="10.1"/>
		<rect x="20.3" y="100.3" fill="#183B61" width="10" height="10.1"/>
	</g>
</g>
</svg>
