<?xml version="1.0" encoding="utf-8"?>
<!-- Generator: Adobe Illustrator 18.1.0, SVG Export Plug-In . SVG Version: 6.00 Build 0)  -->
<svg version="1.0" id="Layer_1" xmlns="http://www.w3.org/2000/svg" xmlns:xlink="http://www.w3.org/1999/xlink" x="0px" y="0px"
	 viewBox="0 0 150 150" enable-background="new 0 0 150 150" xml:space="preserve">
<g>
	<path fill="none" d="M21.9,38.7l16.2,30.5L18,52.9l15,22.6L12.5,62.2c-0.4,2.1-0.7,4.2-0.8,6.4l15.5,15.1l-15.5-5.7
		c0.1,1.3,0.2,2.6,0.4,3.9l5.3,4.3c-1.4,0.4-2.9,0.9-4.3,1.4c1.7,7.4,4.6,14.3,8.6,20.5l0.1-0.1c0,0,0,0.1,0,0.1l9.3-5.5
		c1-0.6,2.1-1,3.3-1c0.1,0,0.1,0,0.2,0h0l6.1-11.5c0.4-0.8,1-1.5,1.7-2.1l6-4.8c1.2-0.9,2.6-1.4,4.1-1.4c0.4,0,0.8,0,1.2,0.1
		c1.9,0.4,3.5,1.5,4.5,3.2l0.5,0.9c3.5-6.9,7-13.9,10.4-20.8c1.1-2.2,3.3-3.6,5.7-3.7c0.1,0,0.1,0,0.2,0c2.4,0,4.6,1.3,5.7,3.3
		l10.3,17.9c0.4-0.1,0.7-0.1,1.1-0.1c1.7,0,3.4,0.7,4.7,1.9l7,6.9c0.5,0.5,1,1.1,1.3,1.8l3.3,6.7c0.1,0,0.1,0,0.2,0
		c1.2,0,2.4,0.3,3.5,1l13.8,8.6c0.6,0.3,1,0.8,1.4,1.3c4.9-6.8,8.4-14.5,10.4-22.9l-13.6,3.3l14.9-11.9c0.1-0.8,0.1-1.6,0.1-2.3
		l-18.8,6.9l18.5-18.2c-0.2-1.8-0.5-3.7-0.9-5.5l-22.9,14.9l14.8-22.3l-20.4,16.5L127.4,36c-0.6-0.8-1.1-1.6-1.8-2.3L102.3,63
		l7.8-26.3L95.3,59.5l8.6-43.3c-0.5-0.3-1.1-0.5-1.6-0.8L86.4,55.9l0.1-27.7l-7.7,26.7l-4-45.3c0.4,0,0.8-0.1,1.2-0.1
		c2.3,0,4.5,0.1,6.7,0.4c-2.3-0.3-4.6-0.4-7-0.4C46.3,9.5,21.7,29.1,14,55.8C15.8,49.7,18.5,44,21.9,38.7z M73.2,9.7l-3.9,44.9
		l-7.6-26.4l0.1,28L46.2,16.8C54.3,12.6,63.5,10.1,73.2,9.7z M44.4,17.8l8.3,41.4L38,36.7L46,63.3l-22-27.4
		C29.4,28.5,36.3,22.3,44.4,17.8z"/>
	<path fill="none" d="M93.4,12.1c0.5,0.1,1,0.3,1.5,0.4C94.4,12.3,93.9,12.2,93.4,12.1z"/>
	<path fill="none" d="M12.6,61.6c0.4-1.8,0.8-3.5,1.3-5.3C13.4,58.1,12.9,59.8,12.6,61.6z"/>
	<path fill="none" d="M85.3,10.3c1.2,0.2,2.4,0.3,3.5,0.6C87.7,10.7,86.5,10.5,85.3,10.3z"/>
	<path fill="none" d="M25.6,113.6c1.7,2.1,3.5,4.1,5.5,6l3.5-11.4L25.6,113.6z"/>
	<path fill="none" d="M99.4,96.2l-7-6.9l-5.4,31.2l0.7-30.8L75.2,68.2C65.5,87.6,55.7,107,46,126.4L56.9,96l-4.3-7.5l-6,4.8
		l-14.5,27.4c11.4,10.6,26.7,17.1,43.5,17.1c14.3,0,27.5-4.8,38.2-12.7L99.4,96.2z"/>
	<path fill="none" d="M123.4,116.2l-0.7-1l-13.8-8.6l5.7,17.7C117.8,121.9,120.7,119.2,123.4,116.2z"/>
	<polygon fill="#511E1E" points="116.7,130.9 116.7,131 116.7,130.9 	"/>
	<path fill="#FDBC11" d="M74.7,9.6l4,45.3l7.7-26.7l-0.1,27.7l15.9-40.5c-2.4-1.1-4.8-2.1-7.4-2.9c-0.5-0.1-1-0.3-1.5-0.4
		c-1.5-0.4-3-0.8-4.5-1.2c-1.2-0.2-2.3-0.4-3.5-0.6c-0.9-0.1-1.8-0.3-2.8-0.4c-2.2-0.2-4.4-0.4-6.7-0.4C75.5,9.5,75.1,9.6,74.7,9.6z
		"/>
	<path fill="#F89A1C" d="M38,36.7l14.6,22.5l-8.3-41.4c-8,4.5-15,10.7-20.4,18.1l22,27.4L38,36.7z"/>
	<path fill="#FDBC11" d="M130.1,52.9l-14.8,22.3l22.9-14.9c-1.9-8.9-5.7-17.1-10.9-24.2l-17.7,33.4L130.1,52.9z"/>
	<path fill="#F89A1C" d="M110.1,36.7L102.3,63l23.4-29.3c-5.9-7.3-13.3-13.3-21.8-17.5l-8.6,43.3L110.1,36.7z"/>
	<path fill="#FDBC11" d="M61.6,28.2l7.6,26.4l3.9-44.9c-9.7,0.4-18.8,2.9-27,7.2l15.6,39.4L61.6,28.2z"/>
	<path fill="#F89A1C" d="M11.7,68.7c-0.1,1.6-0.3,3.3-0.3,5c0,1.5,0.1,3,0.2,4.5l15.5,5.7L11.7,68.7z"/>
	<path fill="#FDBC11" d="M12,82c0.3,1.9,0.6,3.8,1,5.6c1.5-0.5,2.9-1,4.3-1.4L12,82z"/>
	<path fill="#FDBC11" d="M138,88c0.6-2.8,1.1-5.7,1.4-8.6l-14.9,11.9L138,88z"/>
	<path fill="#FDBC11" d="M18,52.9l20.2,16.3L21.9,38.7c-3.4,5.2-6.1,11-7.9,17.1c0,0.2-0.1,0.3-0.1,0.5c-0.5,1.7-0.9,3.5-1.3,5.3
		c0,0.2-0.1,0.4-0.1,0.6l20.4,13.3L18,52.9z"/>
	<path fill="#F89A1C" d="M139.5,77c0.1-1.1,0.2-2.3,0.2-3.4c0-2.7-0.2-5.3-0.6-7.9l-18.5,18.2L139.5,77z"/>
	<path fill="#511E1E" d="M75.6,4.1C37.1,4.1,6,35.2,6,73.6c0,38.4,31.1,69.5,69.6,69.5c38.4,0,69.5-31.1,69.5-69.5
		C145.1,35.2,114,4.1,75.6,4.1z M75.6,9.5c2.4,0,4.7,0.2,7,0.4c0.9,0.1,1.8,0.3,2.8,0.4c1.2,0.2,2.4,0.3,3.5,0.6
		c1.5,0.3,3,0.8,4.5,1.2c0.5,0.1,1,0.3,1.5,0.4c2.5,0.8,5,1.8,7.4,2.9c0.5,0.2,1.1,0.5,1.6,0.8c8.5,4.2,15.9,10.2,21.8,17.5
		c0.6,0.8,1.2,1.5,1.8,2.3c5.2,7.1,9,15.3,10.9,24.2c0.4,1.8,0.7,3.6,0.9,5.5c0.3,2.6,0.5,5.2,0.6,7.9c0,1.1-0.1,2.3-0.2,3.4
		c0,0.8,0,1.6-0.1,2.3c-0.3,2.9-0.7,5.8-1.4,8.6c-1.9,8.4-5.5,16.1-10.4,22.9c-0.4-0.5-0.9-1-1.4-1.3l-13.8-8.6
		c-1.1-0.7-2.3-1-3.5-1c-0.1,0-0.1,0-0.2,0l-3.3-6.7c-0.3-0.7-0.8-1.3-1.3-1.8l-7-6.9c-1.3-1.2-2.9-1.9-4.7-1.9
		c-0.4,0-0.7,0-1.1,0.1L80.9,64.9c-1.2-2.1-3.4-3.3-5.7-3.3c-0.1,0-0.1,0-0.2,0c-2.4,0.1-4.6,1.5-5.7,3.7c-3.5,6.9-7,13.9-10.4,20.8
		l-0.5-0.9c-1-1.7-2.6-2.8-4.5-3.2c-0.4-0.1-0.8-0.1-1.2-0.1c-1.5,0-2.9,0.5-4.1,1.4l-6,4.8c-0.7,0.6-1.3,1.3-1.7,2.1l-6.1,11.5h0
		c-0.1,0-0.1,0-0.2,0c-1.2,0-2.3,0.4-3.3,1l-9.3,5.5c0,0,0-0.1,0-0.1l-0.1,0.1c-4-6.2-6.9-13.1-8.6-20.5c-0.4-1.8-0.7-3.7-1-5.6
		c-0.2-1.3-0.3-2.6-0.4-3.9c-0.1-1.5-0.2-3-0.2-4.5c0-1.7,0.1-3.3,0.3-5c0.2-2.2,0.4-4.3,0.8-6.4c0-0.2,0.1-0.4,0.1-0.6
		c0.3-1.8,0.8-3.5,1.3-5.3c0-0.2,0.1-0.3,0.1-0.5C21.7,29.1,46.3,9.5,75.6,9.5z M114.6,124.4l-5.7-17.7l13.8,8.6l0.7,1
		C120.7,119.2,117.8,121.9,114.6,124.4z M25.6,113.6l9-5.3L31,119.7C29.1,117.8,27.3,115.8,25.6,113.6z M32.1,120.6l14.5-27.4l6-4.8
		l4.3,7.5L46,126.4c9.7-19.4,19.5-38.8,29.2-58.2l12.4,21.5l-0.7,30.8l5.4-31.2l7,6.9l14.3,28.8c-10.7,7.9-23.8,12.7-38.2,12.7
		C58.7,137.7,43.5,131.2,32.1,120.6z"/>
</g>
</svg>
