<?xml version="1.0" encoding="utf-8"?>
<!-- Generator: Adobe Illustrator 18.1.0, SVG Export Plug-In . SVG Version: 6.00 Build 0)  -->
<svg version="1.1" id="Layer_1" xmlns="http://www.w3.org/2000/svg" xmlns:xlink="http://www.w3.org/1999/xlink" x="0px" y="0px"
	 viewBox="0 0 150 150" enable-background="new 0 0 150 150" xml:space="preserve">
<g>
	<g>
		<path fill="#00A8D5" d="M86.3,8.6c0.8,6.4,2,12.8,3.8,19.1c0.8,0.2,1.6,0.5,2.3,0.8l6.1-8.9l13.3,7.7l-4.7,9.7
			c2.4,2,4.5,4.1,6.5,6.5l9.7-4.7l7.7,13.3l-8.9,6.1c1,2.8,1.9,5.8,2.4,8.9l10.7,0.8v15.4l-10.7,0.8c-0.1,0.7-0.3,1.5-0.4,2.2
			c4.5,4.5,9.2,8.6,14.2,12.4c2.7-7.3,4.2-15.2,4.2-23.5C142.5,41.7,118.2,13.9,86.3,8.6z"/>
		<path fill="#00A8D5" d="M93.5,38.4c2.6,7,5.8,13.8,9.6,20.5c3.9,6.8,8.4,13.2,13.3,19c0-0.8,0.1-1.5,0.1-2.3
			C116.5,59.3,107.1,45.2,93.5,38.4z"/>
	</g>
	<g>
		<path fill="#00A75C" d="M98.7,109.6c-7.7-1.4-15.6-2.1-23.7-2.1c-8.1,0-16,0.7-23.7,2.1c6.7,4.7,14.9,7.4,23.7,7.4
			C83.8,117,92,114.3,98.7,109.6z"/>
		<path fill="#00A75C" d="M109.4,112c-0.8,0.7-1.5,1.4-2.3,2.1l4.7,9.7l-13.3,7.7l-6.1-8.9c-2.8,1-5.8,1.8-8.9,2.4l-0.8,10.7H67.4
			L66.5,125c-3.1-0.5-6-1.3-8.9-2.4l-6.1,8.9l-13.3-7.7l4.7-9.7c-0.8-0.7-1.6-1.4-2.3-2.1c-6,1.6-11.9,3.6-17.6,6.1
			c12.4,14.9,31.1,24.5,52,24.5c20.9,0,39.6-9.5,52-24.5C121.4,115.7,115.5,113.7,109.4,112z"/>
	</g>
	<g>
		<path fill="#9BBB41" d="M33.6,75.6c0,0.8,0,1.6,0.1,2.3c4.9-5.8,9.4-12.2,13.3-19c3.8-6.6,7-13.5,9.6-20.5
			C42.9,45.2,33.6,59.3,33.6,75.6z"/>
		<path fill="#9BBB41" d="M7.6,75.1c0,8.3,1.5,16.2,4.2,23.5c5-3.7,9.8-7.9,14.2-12.4c-0.2-0.7-0.3-1.4-0.4-2.2l-10.7-0.8V67.9
			l10.7-0.8c0.5-3.1,1.3-6,2.4-8.9l-8.9-6.1l7.7-13.3l9.7,4.7c2-2.3,4.1-4.5,6.5-6.5l-4.7-9.7l13.3-7.7l6.1,8.9
			c0.8-0.3,1.6-0.5,2.3-0.8c1.7-6.3,3-12.7,3.8-19.1C31.9,13.9,7.6,41.7,7.6,75.1z"/>
	</g>
</g>
</svg>
