<?xml version="1.0" encoding="utf-8"?>
<!-- Generator: Adobe Illustrator 18.1.0, SVG Export Plug-In . SVG Version: 6.00 Build 0)  -->
<svg version="1.0" id="Layer_1" xmlns="http://www.w3.org/2000/svg" xmlns:xlink="http://www.w3.org/1999/xlink" x="0px" y="0px"
	 viewBox="0 0 150 150" enable-background="new 0 0 150 150" xml:space="preserve">
<g>
	<path fill="#0174BA" d="M118.3,70.6c-3-6.4-6.7-13-10.7-19.6c-0.2-0.2-0.3-0.3-0.5-0.5c-0.2-0.2-0.2-0.4,0-0.4
		C92.7,26.6,74.7,4.7,74.7,4.7s-19,23.2-33.6,47.5c16.3-14.7,47.3-19.9,62,0.7c2.9,4.1,4.4,7.9,5,13c1.8,14.4-7,27.8-16.3,35.9
		c-22.9,19.7-58.2,18.2-67.1-3.2c0.6,6.4,2.4,12.5,5.2,18c2.2,2.6,5.4,5.3,9.9,7.5C77,142.6,122.9,103.2,118.3,70.6z"/>
	<path fill="#34B2E6" d="M123,82.5c-0.1,1.7-0.3,3.4-0.6,5.1c-7.2,38.7-61.6,60.2-87,37.7c4.7,5.9,10.7,10.7,17.6,14
		c0.4,0.2,0.8,0.4,1.2,0.6c6.5,2.8,13.2,4.2,19.7,4.3c0.1,0,0.2,0,0.3,0c0.7,0,1.3,0,2,0c23.6-0.7,43.1-17.6,47.8-40
		c0.7-3.3,1.1-6.8,1.1-10.3C125,90.5,124.3,86.7,123,82.5z"/>
	<path fill="#8ACFD6" d="M39.1,104.4c24.7,10.8,60.7-9.9,61.5-36.1c0.8-27.5-32.3-34.5-52.6-19.9c-16.5,11.9-15.5,31.9,1.7,34.5
		c10.9,1.7,21.5-4.4,25.9-12.2c3-5.3,2.9-10.9-1-15.5c-0.5-0.6-1.3-1.4-2.3-2C63.6,48,51,55.5,53,62.4c1.3,4.5,7.5,3.9,9.3,0.9
		c0.5-0.9,0.4-1.7-0.1-2.1C62,61.1,62,61,62,61c0-0.1,0.1-0.1,0.2-0.1c2.2,0.6,2.3,4-1.6,6.4c-6.1,3.8-14.3,0-12.4-7.8
		c2.8-11.3,23.1-18.3,33.9-7.4c4,4.1,5.3,10.3,4.1,15.8c-1.6,7.4-7.2,14.9-15.6,19.6c-20,11.2-41.2,1.9-40.2-15.6
		c-2.7,6-4.7,11.6-5.6,16.6C26.7,95.4,31.6,101.1,39.1,104.4z"/>
</g>
</svg>
