<?xml version="1.0" encoding="utf-8"?>
<!-- Generator: Adobe Illustrator 18.1.0, SVG Export Plug-In . SVG Version: 6.00 Build 0)  -->
<svg version="1.1" id="Layer_1" xmlns="http://www.w3.org/2000/svg" xmlns:xlink="http://www.w3.org/1999/xlink" x="0px" y="0px"
	 viewBox="0 0 2000 2000" enable-background="new 0 0 2000 2000" xml:space="preserve">
<g>
	<path fill="#FFC26D" d="M666.2,987.8c-37.1-44.8-59.1-100.6-59.1-161.1c0-147.3,130.2-266.7,290.7-266.7
		c103.5,0,194.3,49.6,245.8,124.3c47.5-68.9,128.4-116.4,221.8-123.3c-82.3-142.1-236.8-237-412.7-234.9
		c-259.6,3.2-467.4,216.2-464.3,475.8c3.2,259.6,216.2,467.5,475.8,464.3c17.4-0.2,34.6-1.4,51.6-3.5
		C879.2,1177.2,740,1099.6,666.2,987.8z"/>
	<path fill="#616264" d="M1125,1337.7v408c0,0-216.7-14.9-263,67s410.9,87.5,633.7,9.3c0,0-360,40-482-8.4
		c-121.9-48.4,85.4-71.7,274.6-27c0,0-33.5-26-109.2-48.4c-75.7-22.3,0.1-11.2,0.1-11.2l-13-391.2c-6.7,4.8-15.3,9.5-21.9,14.4
		C1138.6,1346.1,1138,1341.9,1125,1337.7z"/>
	<path fill="#C26F73" d="M1679.9,814.8c0.1-2.7,0.2,1.2,0.2-10.8h-0.6c-9.5-139-135.8-246.9-290.1-246.9c-8.1,0-16,1.8-23.9,2.4
		c-93.4,7-174.3,55.2-221.8,124.1c-51.5-74.7-142.3-124-245.8-124c-160.6,0-290.7,119.6-290.7,266.9c0,60.6,22,116.5,59.1,161.2
		c73.8,111.8,213,189.4,349.6,274.9c38.4,24.1,76.6,48.8,113.1,75.1c5.8,4.2,11.6,8.4,17.4,12.7c6.7-4.9,13.3-9.7,20-14.4
		c222.7-158.5,444.1-239.3,500.2-428.3c8.9-25.5,13.7-54.2,13.7-82.4C1680.1,822.2,1680,817.8,1679.9,814.8z M1190.4,837.9
		c5.9,9,0,24.7,0,24.7c-38.9-6.8-2.2-63.8-2.2-63.8C1177,822.7,1184.5,828.9,1190.4,837.9z M784.1,1035
		c274.7,104.5,481,33.7,561.6-43.9c80.6-77.6,68.6-223.9-35.8-244.8c-104.4-20.9-122.4,53.7-122.4,53.7
		c9-152.2,298.5-131.3,358.2,20.9c59.7,152.2-118.3,315-331.4,370.2C1016.6,1242.2,784.1,1035,784.1,1035z"/>
	<path fill="#89A15F" d="M1031.5,1546.4c0,0-58-132.8-206-158.1c0,0,126.7-10.7,267.2,136c0,0,5.6-187.8-194.3-191.7
		c-199.9-3.9-222.8-36-222.8-36S859.3,1617.5,1031.5,1546.4z"/>
	<path fill="#89A15F" d="M1265.5,1446.7c117.8,48.6,243.4-171,243.4-171s-15.6,22-152.4,24.7c-136.8,2.6-132.9,131.2-132.9,131.2
		c96.2-100.4,182.9-93.1,182.9-93.1C1305.2,1355.8,1265.5,1446.7,1265.5,1446.7z"/>
	<path fill="#FFFFFF" d="M1545.7,820.9c-59.7-152.2-349.3-173.1-358.2-20.9c0,0,17.9-74.6,122.4-53.7
		c104.5,20.9,116.4,167.2,35.8,244.8c-80.6,77.6-286.9,148.4-561.6,43.9c0,0,232.5,207.2,430.2,156.1
		C1427.3,1135.9,1605.3,973.1,1545.7,820.9z"/>
	<path fill="#FFFFFF" d="M1190.4,862.7c0,0,5.9-15.7,0-24.7c-6-9-13.4-15.2-2.2-39.1C1188.2,798.8,1151.6,855.9,1190.4,862.7z"/>
	<path fill="#FFC26D" d="M960.7,261.4c17.9,0,32.5-96.6,32.5-119.5c0-46.5-14.5-48.7-32.5-48.7c-17.9,0-32.5,2.2-32.5,48.7
		C928.2,164.7,942.7,261.4,960.7,261.4z"/>
	<path fill="#FFC26D" d="M777.6,292.9c18.8-6.9-2.9-113.7-11.6-137.6c-17.8-48.7-33.8-45.5-52.6-38.7c-18.8,6.9-33.2,14.7-15.4,63.4
		C706.7,203.9,758.8,299.7,777.6,292.9z"/>
	<path fill="#FFC26D" d="M616.4,385c16.8-14.1-45.6-116.3-63.6-137.7c-36.6-43.6-52-34.2-68.8-20.1c-16.8,14.1-28.7,27.7,7.9,71.2
		C509.8,319.9,599.6,399.2,616.4,385z"/>
	<path fill="#FFC26D" d="M371.4,493.7c20.7,11.9,115.7,49.3,125.1,33.1c9.4-16.2-70.5-79.9-91.2-91.8c-42-24.2-51.7-12.3-61,3.9
		C334.9,455.2,329.3,469.5,371.4,493.7z"/>
	<path fill="#FFC26D" d="M313,711.9c21.7,3.8,116.2,6.2,119.2-10.8c3-17.1-86.5-47.1-108.3-50.9c-44.2-7.8-48.8,5.7-51.8,22.7
		C269.1,689.9,268.8,704.1,313,711.9z"/>
	<path fill="#FFC26D" d="M430.3,880.3c-3.3-18.8-107.3-16.2-131.2-11.9c-48.7,8.6-48.4,24.2-45.1,43c3.3,18.8,8.4,33.6,57,25
		C335,932.2,433.6,899.1,430.3,880.3z"/>
	<path fill="#FFC26D" d="M369.7,1085.3c-40.3,23.2-34.9,37-26,52.5c9,15.5,18.2,27,58.5,3.8c19.8-11.5,96.4-72.5,87.4-88
		C480.6,1038.1,389.6,1073.9,369.7,1085.3z"/>
	<path fill="#FFC26D" d="M524.5,1265.9c-26,31-17.5,40.6-5.6,50.6c11.9,10,22.9,16.7,48.9-14.3c12.8-15.2,57.2-87.8,45.2-97.8
		C601.1,1194.3,537.3,1250.6,524.5,1265.9z"/>
	<path fill="#FFC26D" d="M1391.9,500.2c6.5,11.2,71.9-14.5,86.1-22.7c28.9-16.7,25.1-26.6,18.7-37.7c-6.5-11.2-13.1-19.4-42-2.7
		C1440.4,445.3,1385.4,489.1,1391.9,500.2z"/>
	<path fill="#FFC26D" d="M1383.1,332.8c23.3-27.7,15.7-36.4,5-45.3c-10.7-9-20.5-14.9-43.8,12.8c-11.4,13.6-51.2,78.6-40.5,87.6
		C1314.6,396.9,1371.7,346.4,1383.1,332.8z"/>
	<path fill="#FFC26D" d="M1143.4,294.4c15.7,5.7,59.2-74.3,66.5-94.3c14.8-40.7,2.8-47.3-12.9-53c-15.7-5.7-29.1-8.4-43.9,32.3
		C1145.8,199.3,1127.7,288.6,1143.4,294.4z"/>
</g>
</svg>
