<?xml version="1.0" encoding="utf-8"?>
<!-- Generator: Adobe Illustrator 18.1.0, SVG Export Plug-In . SVG Version: 6.00 Build 0)  -->
<svg version="1.1" id="Layer_1" xmlns="http://www.w3.org/2000/svg" xmlns:xlink="http://www.w3.org/1999/xlink" x="0px" y="0px"
	 viewBox="0 0 150 150" enable-background="new 0 0 150 150" xml:space="preserve">
<g>
	<g>
		<g opacity="0.65">
			<polygon fill="#C2C4C6" points="36.1,133.2 53.8,133.2 27.7,61.4 9.8,61.4 			"/>
			<g>
				<polygon fill="#C2C4C6" points="88.1,93.9 102.4,133.2 84.7,133.2 70.2,93.9 				"/>
			</g>
			<g>
				<polygon fill="#C2C4C6" points="58,77.9 78.1,133.2 60.4,133.2 40.1,77.9 				"/>
			</g>
		</g>
		<g>
			<linearGradient id="SVGID_1_" gradientUnits="userSpaceOnUse" x1="101.2383" y1="33.304" x2="73.3353" y2="148.8">
				<stop  offset="0" style="stop-color:#5DB65F"/>
				<stop  offset="1" style="stop-color:#5B784D"/>
			</linearGradient>
			<path fill="url(#SVGID_1_)" d="M56.6,76.8l-20.5,56.4H54l20.5-56.4H56.6z M86.7,60.7l-26.3,72.5h17.9l26.3-72.5H86.7z M135.7,21
				l-23.1,23.5h4.3l-32.2,88.7h17.8l32.2-88.7h4.8L135.7,21z"/>
		</g>
	</g>
	<polygon opacity="0.3" fill="#FFFFFF" points="57.3,77.9 37.3,132.7 39.3,132.7 59.8,78.1 	"/>
	<polygon opacity="0.3" fill="#FFFFFF" points="87.6,61.8 62,132.3 64.6,132.3 90.1,61.8 	"/>
	<polyline opacity="0.3" fill="#FFFFFF" points="86.1,132.6 118.6,43.4 115.3,43.4 135,23.3 119.3,41.5 121.7,41.5 88.1,132.3 	"/>
</g>
</svg>
