<?xml version="1.0" encoding="utf-8"?>
<!-- Generator: Adobe Illustrator 18.1.0, SVG Export Plug-In . SVG Version: 6.00 Build 0)  -->
<svg version="1.1" id="Layer_1" xmlns="http://www.w3.org/2000/svg" xmlns:xlink="http://www.w3.org/1999/xlink" x="0px" y="0px"
	 viewBox="0 0 150 150" enable-background="new 0 0 150 150" xml:space="preserve">
<g>
	<g>
		<path fill="#11BDC5" d="M85.9,15.2l4.2,0.9l-19.9,97.8c-1.3,6.3-7.7,10.6-14,9.3c-6.3-1.3-10.6-7.6-9.3-13.9
			c1.3-6.3,7.6-10.5,14-9.3c1.5,0.3,2.9,0.9,4,1.7l1.6-7.7c-1.3-0.6-2.7-1-4.1-1.3c-10.4-2.1-20.8,4.7-22.9,15.2
			c-2.2,10.4,4.7,20.8,15.2,22.9c10.4,2.1,20.8-4.8,22.9-15.2l19.9-97.8l4.3,0.9L96.8,2L85.9,15.2z"/>
	</g>
	<path fill="#F15E47" d="M94.3,49.3l4.3,0.9l-13.5,66.7c-2.9,14.5-17.3,24.1-31.8,21.1c-14.5-2.9-24-17.2-21.1-31.7
		C35.1,91.6,49.5,82.1,64,85.1c1.4,0.2,2.8,0.7,4.1,1.2l1.5-7.5c-1.3-0.5-2.7-0.8-4.2-1.1c-18.7-3.8-37,8.4-40.7,27
		c-3.8,18.6,8.3,36.9,27,40.6c18.6,3.8,36.9-8.4,40.7-27L106,51.9l0.1-0.3l0.2,0l4.1,0.8l-4.9-16.4L94.3,49.3z"/>
</g>
</svg>
