<?xml version="1.0" encoding="utf-8"?>
<!-- Generator: Adobe Illustrator 18.1.0, SVG Export Plug-In . SVG Version: 6.00 Build 0)  -->
<svg version="1.1" id="Layer_1" xmlns="http://www.w3.org/2000/svg" xmlns:xlink="http://www.w3.org/1999/xlink" x="0px" y="0px"
	 viewBox="0 0 150 150" enable-background="new 0 0 150 150" xml:space="preserve">
<g>
	<path fill="#27628E" d="M120.7,66.6c-1.7-27-23.5-48.5-50.6-49.8V39c15.2,1.2,27.2,13.3,28.5,28.5h15.5
		c-1.6,14.8-13.5,26.4-28.4,27.6v14.8c0,0,0,0,0,0v7.4c27.4-1.3,49.3-23.3,50.6-50.6H120.7z M99.5,86.4c0-3-2.5-5.5-5.5-5.5
		c-3,0-5.5,2.5-5.5,5.5s2.5,5.5,5.5,5.5C97.1,91.9,99.5,89.4,99.5,86.4z M80.1,43.5c-3,0-5.5,2.5-5.5,5.5c0,3,2.5,5.5,5.5,5.5
		c3,0,5.5-2.5,5.5-5.5C85.6,46,83.1,43.5,80.1,43.5z"/>
	<path fill="#4CA950" d="M85.8,109.9c-15.2-1.2-27.2-13.3-28.5-28.5H41.7c1.4-15,13.4-26.8,28.4-28V31.2
		c-27.4,1.3-49.3,23.2-50.6,50.6h15.7c1.5,27.2,23.4,48.9,50.6,50.2L85.8,109.9C85.8,109.9,85.8,109.9,85.8,109.9z M75.7,105.8
		c3,0,5.5-2.5,5.5-5.5c0-3-2.5-5.5-5.5-5.5c-3,0-5.5,2.5-5.5,5.5C70.2,103.4,72.6,105.8,75.7,105.8z M45.3,71.1c0,3,2.5,5.5,5.5,5.5
		c3,0,5.5-2.5,5.5-5.5c0-3-2.5-5.5-5.5-5.5C47.8,65.6,45.3,68,45.3,71.1z"/>
</g>
</svg>
