<?xml version="1.0" encoding="utf-8"?>
<!-- Generator: Adobe Illustrator 18.1.0, SVG Export Plug-In . SVG Version: 6.00 Build 0)  -->
<svg version="1.1" id="Layer_1" xmlns="http://www.w3.org/2000/svg" xmlns:xlink="http://www.w3.org/1999/xlink" x="0px" y="0px"
	 viewBox="0 0 2000 2000" enable-background="new 0 0 2000 2000" xml:space="preserve">
<g>
	<path d="M1844.2,684h-90.9c3,12,2.7,23-0.9,35h91.9c8.6,0,15.5-8.9,15.5-17.5C1859.7,692.9,1852.8,684,1844.2,684z"/>
	<path d="M238,684h-72.3c-8.6,0-15.5,8.9-15.5,17.5c0,8.6,6.9,17.5,15.5,17.5h71.9c-0.9-12-1.4-11.5-1.4-16.5
		C236.1,696.8,236.8,684,238,684z"/>
	<path d="M387,696v-12h-2.7c1.2,0,1.9,12.8,1.9,18.5c0,5-0.5,4.5-1.4,16.5H457v-23H387z"/>
	<path d="M1534.4,684H1499v12h-40.9c-4.2,0-8.5,11-12.7,23h90C1531.6,707,1531.4,696,1534.4,684z"/>
	<path fill="#FFFFFF" d="M1283,706.8c13.2,0,25.5-10.8,35.8-10.8h-71.6C1257.5,696,1269.8,706.8,1283,706.8z"/>
	<path fill="#AF6148" d="M1185.1,406.2c4.6,2.1,9.1,4.3,13.6,6.6C1194.2,410.5,1189.7,408.3,1185.1,406.2z"/>
	<path fill="#AF6148" d="M1386.8,576.7c1.7,2.2,3.4,4.3,5,6.5C1390.2,581,1388.5,578.9,1386.8,576.7z"/>
	<path fill="#AF6148" d="M1378.4,566.2c1.9,2.3,3.7,4.7,5.6,7C1382.2,570.8,1380.3,568.5,1378.4,566.2z"/>
	<path fill="#AF6148" d="M1369.7,555.5c2.2,2.6,4.3,5.1,6.3,7.7C1373.9,560.7,1371.8,558.1,1369.7,555.5z"/>
	<path fill="#AF6148" d="M1394.7,586.9c1.6,2,3.1,4.1,4.6,6.1C1397.7,591,1396.2,589,1394.7,586.9z"/>
	<path fill="#AF6148" d="M1360.5,544.8c2.5,2.9,5,5.8,7.4,8.6C1365.5,550.6,1363,547.7,1360.5,544.8z"/>
	<path fill="#AF6148" d="M1409.3,606.9c1.2,1.7,2.5,3.5,3.7,5.2C1411.8,610.3,1410.6,608.6,1409.3,606.9z"/>
	<path fill="#AF6148" d="M1402.2,597c1.4,1.9,2.7,3.8,4.1,5.6C1405,600.8,1403.6,598.9,1402.2,597z"/>
	<path fill="#AF6148" d="M1226.7,428.4c4.1,2.5,8.1,5,12.1,7.6C1234.8,433.5,1230.7,430.9,1226.7,428.4z"/>
	<path fill="#AF6148" d="M1264.8,454.4c3.9,2.9,7.8,5.9,11.6,9C1272.5,460.3,1268.7,457.3,1264.8,454.4z"/>
	<path fill="#AF6148" d="M1199.3,413.1c4.4,2.2,8.7,4.5,12.9,6.9C1208,417.7,1203.7,415.3,1199.3,413.1z"/>
	<path fill="#AF6148" d="M905.3,411.9c6.1-3,12.2-5.8,18.3-8.5C917.5,406,911.4,408.8,905.3,411.9z"/>
	<path fill="#AF6148" d="M1213.2,420.5c4.2,2.4,8.3,4.8,12.4,7.3C1221.5,425.3,1217.4,422.9,1213.2,420.5z"/>
	<path fill="#AF6148" d="M1252.5,445.4c3.9,2.8,7.8,5.6,11.6,8.4C1260.3,451,1256.4,448.2,1252.5,445.4z"/>
	<path fill="#AF6148" d="M1239.8,436.8c4,2.6,7.9,5.3,11.8,8C1247.7,442,1243.7,439.4,1239.8,436.8z"/>
	<path fill="#AF6148" d="M1416,616.4c1.1,1.6,2.2,3.2,3.3,4.7C1418.2,619.6,1417.1,618,1416,616.4z"/>
	<path fill="#AF6148" d="M1443.1,657.9c0.4,0.7,0.9,1.5,1.3,2.2C1444,659.4,1443.5,658.7,1443.1,657.9z"/>
	<path fill="#AF6148" d="M1456.5,680.8c0.4,0.7,0.7,1.2,1,1.8C1457.1,682,1456.8,681.5,1456.5,680.8z"/>
	<polygon fill="#AF6148" points="614.4,684 459.4,440.4 614.4,684 	"/>
	<path fill="#AF6148" d="M1447.2,664.8c0.3,0.5,0.6,1.1,0.9,1.6C1447.9,665.8,1447.5,665.3,1447.2,664.8z"/>
	<path fill="#AF6148" d="M1451.1,671.3c0.1,0.2,0.2,0.4,0.3,0.6C1451.3,671.7,1451.2,671.5,1451.1,671.3z"/>
	<path fill="#AF6148" d="M1185,406.2c-75.4-34.7-163.6-45-261.4-2.8C1021.4,361.2,1109.7,371.5,1185,406.2z"/>
	<path fill="#AF6148" d="M886.4,421.8C805.2,467,718,549.1,626.4,683.1C717.9,549.1,805.2,467,886.4,421.8z"/>
	<path fill="#AF6148" d="M1359.8,544c-24-27.6-52-55.6-83.4-80.7C1307.9,488.5,1335.8,516.5,1359.8,544z"/>
	<path fill="#AF6148" d="M1428.1,634.2c0.9,1.3,1.8,2.7,2.6,4C1429.8,636.9,1429,635.6,1428.1,634.2z"/>
	<path fill="#AF6148" d="M1422.3,625.5c1,1.5,2,2.9,2.9,4.4C1424.3,628.5,1423.3,627,1422.3,625.5z"/>
	<path fill="#AF6148" d="M1438.6,650.6c0.6,0.9,1.2,1.9,1.7,2.7C1439.7,652.4,1439.1,651.5,1438.6,650.6z"/>
	<path fill="#AF6148" d="M1433.5,642.6c0.7,1.1,1.5,2.3,2.2,3.4C1435,644.9,1434.3,643.8,1433.5,642.6z"/>
	<path fill="#AF6148" d="M886.5,421.7c6.2-3.5,12.4-6.7,18.5-9.7C898.9,415,892.7,418.2,886.5,421.7z"/>
	<path fill="#AF6148" d="M1318.8,696c-10.3,0-22.6,10.8-35.8,10.8c-13.2,0-25.5-10.8-35.8-10.8H638.4c-2.4,0-4.8,6.4-7.2,9.8
		c0,0,1.9-9.8,5.5-9.8H457v19v249l161.7-237c0,0,465,588.3,826.1-10.6c4.3-7.1,9.1-20.3,13.3-20.3H1318.8z M747,841.3
		c356.9,263.5,665.2-80.4,665.2-80.4C1089,1183.3,747,841.3,747,841.3z"/>
	<path fill="#AF6148" d="M631.2,702.8c2.4-3.3,4.8-5.8,7.2-9.8h-1.7C633.1,700,631.2,702.8,631.2,702.8z"/>
	<path opacity="0.21" fill="#FFFFFE" d="M631.2,702.8c2.4-3.3,4.8-5.8,7.2-9.8h-1.7C633.1,700,631.2,702.8,631.2,702.8z"/>
	<path fill="#AF6148" d="M747,841.3c0,0,342,342,665.2-80.4C1412.3,761,1104,1104.8,747,841.3z"/>
	<path opacity="0.21" fill="#FFFFFE" d="M747,841.3c0,0,342,342,665.2-80.4C1412.3,761,1104,1104.8,747,841.3z"/>
	<path fill="#F7901E" d="M1753.3,683.9c-2.3-7.7-6.2-15-12.3-21.1l-62.1-62.1c-19.4-19.3-50.8-19.3-70.1,0l-62.1,62.1
		c-6.1,6.1-10,13.4-12.3,21.1c-3,10.2-2.7,21,0.9,31c2.4,6.5,6.1,12.7,11.4,17.9l62.1,62.1c19.3,19.3,50.7,19.3,70.1,0l62.1-62.1
		c5.2-5.2,8.9-11.4,11.3-17.9C1756,705,1756.3,694.1,1753.3,683.9z M1574.1,743.5c-35.9-26.6-21.1-67.2-21.1-67.2l68-69.5
		c-30.5,30.5-42.2,65.6-39.9,86c2.4,20.3,39.9,103.1,39.9,103.1L1574.1,743.5z"/>
	<path fill="#F7901E" d="M1581.1,692.7c-2.3-20.3,9.4-55.5,39.9-86l-68,69.5c0,0-14.8,40.6,21.1,67.2l46.9,52.4
		C1621,795.8,1583.5,713,1581.1,692.7z"/>
	<path opacity="0.4" fill="#FFFFFF" d="M1581.1,692.7c-2.3-20.3,9.4-55.5,39.9-86l-68,69.5c0,0-14.8,40.6,21.1,67.2l46.9,52.4
		C1621,795.8,1583.5,713,1581.1,692.7z"/>
	<path fill="#6CAB36" d="M384.3,683.9c-7.5-33.5-37.4-58.5-73.1-58.5c-35.8,0-65.6,25-73.1,58.5c-1.2,5.3-1.9,10.8-1.9,16.5
		c0,5,0.5,9.8,1.4,14.5c6.8,34.5,37.1,60.5,73.6,60.5c36.4,0,66.8-26,73.6-60.5c0.9-4.7,1.4-9.5,1.4-14.5
		C386.2,694.8,385.5,689.3,384.3,683.9z M271.4,674c0-15.4,12.5-27.9,27.9-27.9c15.4,0,28,12.5,28,27.9c0,15.4-12.5,27.9-28,27.9
		C283.9,701.9,271.4,689.4,271.4,674z"/>
	<path fill="#BFD9A4" d="M299.4,701.9c15.4,0,28-12.5,28-27.9c0-15.4-12.5-27.9-28-27.9c-15.4,0-27.9,12.5-27.9,27.9
		C271.4,689.4,283.9,701.9,299.4,701.9z"/>
	<path d="M1602.3,1299H1534v23h67.5c-0.2,0-0.4-6.4-0.4-8.9C1601.2,1308.9,1601.6,1310,1602.3,1299z"/>
	<path d="M275.8,1286H153.3c-8.6,0-15.5,9.4-15.5,18c0,8.6,7,18,15.5,18h119.3C270.3,1310,271.4,1299,275.8,1286z"/>
	<path d="M1831.8,1286h-84.5c2.5,13,3.9,17.9,3.9,26.3c0,2.4-0.1,9.7-0.4,9.7h81c8.6,0,15.5-9.4,15.5-18
		C1847.3,1295.4,1840.4,1286,1831.8,1286z"/>
	<path d="M502,1299v-13h-11.8c4.4,13,5.5,24,3.2,36H551c-3.9,0-7.7-12-11.6-23H502z"/>
	<path fill="#FFFFFF" d="M714.5,1309.8c13.2,0,25.5,0.2,35.8-10.8h-71.6C689,1310,701.3,1309.8,714.5,1309.8z"/>
	<path fill="#9D903D" d="M577.2,1232.1c0.9-1.3,1.8-2.6,2.7-4C579,1229.5,578.1,1230.8,577.2,1232.1z"/>
	<path fill="#9D903D" d="M571.4,1240.8c0.8-1.2,1.6-2.5,2.5-3.7C573,1238.4,572.2,1239.6,571.4,1240.8z"/>
	<path fill="#9D903D" d="M545.5,1282.6c0.5-0.8,1-1.7,1.5-2.6C546.5,1280.9,545.9,1281.8,545.5,1282.6z"/>
	<path fill="#9D903D" d="M682.1,1107.1c2.8-2.7,5.7-5.4,8.6-8.1C687.8,1101.7,684.9,1104.4,682.1,1107.1z"/>
	<path fill="#9D903D" d="M830.8,1007.9c4.5-1.8,9.1-3.5,13.7-5.1C840,1004.4,835.4,1006.1,830.8,1007.9z"/>
	<path fill="#9D903D" d="M624.5,1169.1c1.8-2.2,3.6-4.4,5.5-6.6C628.1,1164.8,626.3,1167,624.5,1169.1z"/>
	<path fill="#9D903D" d="M816.5,1013.9c4.4-2,8.9-3.9,13.5-5.7C825.4,1010,820.9,1011.9,816.5,1013.9z"/>
	<path fill="#9D903D" d="M540.6,1291.3c0.4-0.7,0.8-1.5,1.3-2.3C541.4,1289.8,540.9,1290.6,540.6,1291.3z"/>
	<path fill="#9D903D" d="M542.8,1287.3c0.4-0.8,0.9-1.6,1.4-2.4C543.7,1285.7,543.2,1286.5,542.8,1287.3z"/>
	<path fill="#9D903D" d="M616.1,1179.5c1.7-2.1,3.4-4.2,5.1-6.3C619.5,1175.3,617.7,1177.4,616.1,1179.5z"/>
	<path fill="#9D903D" d="M560.9,1257c0.7-1.1,1.4-2.3,2.2-3.4C562.3,1254.8,561.6,1255.9,560.9,1257z"/>
	<path fill="#9D903D" d="M565.9,1249.2c0.8-1.2,1.5-2.3,2.3-3.6C567.4,1246.8,566.7,1248,565.9,1249.2z"/>
	<path fill="#9D903D" d="M556.4,1264.2c0.6-1,1.3-2,1.9-3.1C557.7,1262.2,557.1,1263.2,556.4,1264.2z"/>
	<path fill="#9D903D" d="M600.3,1199.8c1.5-2,3-3.9,4.5-5.9C603.3,1195.9,601.8,1197.8,600.3,1199.8z"/>
	<polygon fill="#9D903D" points="1538.1,1049.3 1384.4,1291 1384.4,1291 	"/>
	<path fill="#9D903D" d="M593.1,1209.6c1.4-1.9,2.9-3.9,4.3-5.8C596,1205.7,594.5,1207.7,593.1,1209.6z"/>
	<path fill="#9D903D" d="M845.3,1002.5c4.7-1.6,9.4-3.1,14.2-4.5C854.8,999.4,850,1000.9,845.3,1002.5z"/>
	<path fill="#9D903D" d="M548.7,1277.1c0.5-0.9,1-1.8,1.6-2.7C549.7,1275.3,549.2,1276.2,548.7,1277.1z"/>
	<path fill="#9D903D" d="M552.3,1271c0.6-0.9,1.1-1.9,1.7-2.9C553.5,1269.1,552.9,1270,552.3,1271z"/>
	<path fill="#9D903D" d="M583.5,1223.1c2.1-3,4.3-6.1,6.5-9.2C587.7,1217,585.6,1220.1,583.5,1223.1z"/>
	<path fill="#9D903D" d="M1370.3,1291L1370.3,1291C1175,1006,999.3,956.4,860,997.3C999.2,956.5,1175,1006,1370.3,1291z"/>
	<path fill="#9D903D" d="M608,1189.7c1.5-2,3.1-4,4.7-6C611.2,1185.7,609.6,1187.7,608,1189.7z"/>
	<path fill="#9D903D" d="M702.5,1088.4c29.8-25.9,63.2-49.7,99.7-67.8C765.7,1038.8,732.3,1062.5,702.5,1088.4z"/>
	<path fill="#9D903D" d="M661.8,1127.3c2.4-2.5,4.8-4.9,7.2-7.4C666.5,1122.4,664.1,1124.9,661.8,1127.3z"/>
	<path fill="#9D903D" d="M633.3,1158.7c1.9-2.3,3.9-4.5,5.9-6.8C637.2,1154.2,635.2,1156.5,633.3,1158.7z"/>
	<path fill="#9D903D" d="M692.5,1097.4c3.2-2.9,6.4-5.8,9.7-8.6C698.9,1091.6,695.6,1094.5,692.5,1097.4z"/>
	<path fill="#9D903D" d="M802.4,1020.5c4.4-2.2,8.9-4.3,13.4-6.3C811.3,1016.2,806.8,1018.3,802.4,1020.5z"/>
	<path fill="#9D903D" d="M652,1137.7c2.2-2.4,4.4-4.7,6.7-7.1C656.4,1133,654.1,1135.3,652,1137.7z"/>
	<path fill="#9D903D" d="M642.4,1148.2c2.1-2.3,4.1-4.6,6.2-6.9C646.6,1143.6,644.5,1145.9,642.4,1148.2z"/>
	<path fill="#9D903D" d="M671.8,1117.1c2.6-2.6,5.2-5.1,7.8-7.7C677,1112,674.4,1114.5,671.8,1117.1z"/>
	<path fill="#9D903D" d="M1360.8,1299c3.6,11,5.5,9.8,5.5,9.8c-2.4-3.3-4.8,1.2-7.2-9.8H750.3c-10.3,11-22.5,10.8-35.8,10.8
		c-13.2,0-25.5,0.2-35.8-10.8H539.4c3.8,11,7.7,15.2,11.6,21.7c361.2,602.1,824.5,14.9,824.5,14.9l158.4,237.9v-250.9V1299H1360.8z
		 M585.2,1370.5c0,0,308.3,343.8,665.2,80.3C1250.5,1450.9,908.5,1792.9,585.2,1370.5z"/>
	<path fill="#9D903D" d="M1366.3,1312.8c0,0-1.9-3.8-5.5-9.8h-1.7C1361.5,1307,1363.9,1309.5,1366.3,1312.8z"/>
	<path opacity="0.21" fill="#FFFFFE" d="M1366.3,1312.8c0,0-1.9-3.8-5.5-9.8h-1.7C1361.5,1307,1363.9,1309.5,1366.3,1312.8z"/>
	<path fill="#9D903D" d="M585.2,1370.5c323.3,422.3,665.2,80.3,665.2,80.3C893.6,1714.4,585.2,1370.5,585.2,1370.5z"/>
	<path opacity="0.21" fill="#FFFFFE" d="M585.2,1370.5c323.3,422.3,665.2,80.3,665.2,80.3C893.6,1714.4,585.2,1370.5,585.2,1370.5z"
		/>
	<path fill="#00A9DE" d="M490.2,1291.5c-2.4-5.3-5.6-10.4-10-14.7l-62.1-62.1c-19.3-19.3-50.7-19.3-70.1,0l-62.1,62.1
		c-4.4,4.4-7.6,9.4-10,14.7c-4.4,9.8-5.5,20.7-3.2,31c2,8.9,6.3,17.4,13.2,24.3L348,1409c19.3,19.4,50.7,19.4,70.1,0l62.1-62.1
		c6.9-6.9,11.3-15.4,13.2-24.3C495.7,1312.2,494.6,1301.3,490.2,1291.5z M313.3,1357.5c-35.9-26.6-21.1-67.2-21.1-67.2l68-69.6
		c-30.5,30.5-42.2,65.6-39.9,86c2.4,20.3,39.9,103.2,39.9,103.2L313.3,1357.5z"/>
	<path fill="#00A9DE" d="M320.3,1306.7c-2.4-20.3,9.4-55.5,39.9-86l-68,69.6c0,0-14.8,40.6,21.1,67.2l46.9,52.4
		C360.1,1409.8,322.6,1327,320.3,1306.7z"/>
	<path opacity="0.4" fill="#FFFFFF" d="M320.3,1306.7c-2.4-20.3,9.4-55.5,39.9-86l-68,69.6c0,0-14.8,40.6,21.1,67.2l46.9,52.4
		C360.1,1409.8,322.6,1327,320.3,1306.7z"/>
	<path fill="#C652B4" d="M1747.3,1291.5c-10-29.8-38-51.2-71.1-51.2c-33,0-59.2,21.3-69.2,50.9c1.6-4.7-4-9.2,8-13.4v21.3h-12.7
		c-0.7,11-1.1,10.1-1.1,14.4c0,2.4,0.1,5.8,0.4,8.2c3.7,38,35.7,68.2,74.7,68.2c39,0,71-29.5,74.7-67.5c0.2-2.4,0.4-4.7,0.4-7.1
		C1751.2,1306.9,1749.8,1299,1747.3,1291.5z M1636.5,1288.8c0-15.4,12.5-27.9,27.9-27.9c15.4,0,27.9,12.5,27.9,27.9
		c0,15.4-12.5,27.9-27.9,27.9C1649,1316.8,1636.5,1304.2,1636.5,1288.8z"/>
	<path fill="#EAB3DD" d="M1664.4,1316.8c15.4,0,27.9-12.5,27.9-27.9c0-15.4-12.5-27.9-27.9-27.9c-15.4,0-27.9,12.5-27.9,27.9
		C1636.5,1304.2,1649,1316.8,1664.4,1316.8z"/>
	<path opacity="0.22" fill="#FFFFFE" d="M639.2,1151.9c1.1-1.2,2.2-2.5,3.3-3.7C641.3,1149.5,640.2,1150.7,639.2,1151.9z"/>
	<path opacity="0.22" fill="#FFFFFE" d="M580,1228.1c1.1-1.7,2.3-3.4,3.5-5.1C582.3,1224.8,581.1,1226.5,580,1228.1z"/>
	<path opacity="0.22" fill="#FFFFFE" d="M597.4,1203.7c1-1.3,1.9-2.6,2.9-3.9C599.3,1201.1,598.4,1202.4,597.4,1203.7z"/>
	<path opacity="0.22" fill="#FFFFFE" d="M604.8,1193.9c1.1-1.4,2.1-2.8,3.2-4.2C606.9,1191.1,605.9,1192.5,604.8,1193.9z"/>
	<path opacity="0.22" fill="#FFFFFE" d="M630,1162.6c1.1-1.3,2.2-2.6,3.3-3.9C632.2,1160,631.1,1161.3,630,1162.6z"/>
	<path opacity="0.22" fill="#FFFFFE" d="M612.8,1183.7c1.1-1.4,2.2-2.8,3.3-4.2C614.9,1180.9,613.9,1182.3,612.8,1183.7z"/>
	<path opacity="0.22" fill="#FFFFFE" d="M573.9,1237.1c1.1-1.6,2.2-3.3,3.4-5C576.1,1233.8,575,1235.5,573.9,1237.1z"/>
	<path opacity="0.22" fill="#FFFFFE" d="M621.2,1173.2c1.1-1.3,2.2-2.7,3.3-4C623.4,1170.5,622.3,1171.8,621.2,1173.2z"/>
	<path opacity="0.22" fill="#FFFFFE" d="M590,1213.9c1-1.4,2-2.9,3.1-4.3C592,1211,591,1212.5,590,1213.9z"/>
	<path opacity="0.22" fill="#FFFFFE" d="M550.3,1274.4c0.7-1.1,1.3-2.2,2-3.4C551.6,1272.2,550.9,1273.3,550.3,1274.4z"/>
	<path opacity="0.22" fill="#FFFFFE" d="M547,1280c0.5-0.9,1.1-1.9,1.7-2.9C548.1,1278.1,547.5,1279.1,547,1280z"/>
	<path opacity="0.22" fill="#FFFFFE" d="M568.2,1245.6c1-1.6,2.1-3.2,3.2-4.8C570.3,1242.4,569.3,1244,568.2,1245.6z"/>
	<path opacity="0.22" fill="#FFFFFE" d="M541.8,1289c0.3-0.6,0.6-1.1,1-1.7C542.4,1287.9,542.1,1288.4,541.8,1289z"/>
	<path opacity="0.22" fill="#FFFFFE" d="M544.2,1284.9c0.4-0.7,0.9-1.5,1.3-2.3C545,1283.4,544.6,1284.2,544.2,1284.9z"/>
	<path opacity="0.22" fill="#FFFFFE" d="M563.1,1253.6c0.9-1.4,1.9-2.9,2.9-4.4C565,1250.7,564,1252.2,563.1,1253.6z"/>
	<path opacity="0.22" fill="#FFFFFE" d="M554.1,1268.1c0.8-1.3,1.6-2.6,2.4-3.9C555.6,1265.6,554.8,1266.8,554.1,1268.1z"/>
	<path opacity="0.22" fill="#FFFFFE" d="M558.3,1261.1c0.8-1.3,1.7-2.7,2.6-4.1C560,1258.4,559.2,1259.8,558.3,1261.1z"/>
	<path opacity="0.22" fill="#FFFFFE" d="M1605.2,1291.1c0,0.1-0.1,0.3-0.2,0.4h0C1605.1,1291.4,1605.2,1291.3,1605.2,1291.1z"/>
	<path opacity="0.22" fill="#FFFFFE" d="M802.2,1020.6c0.1,0,0.1-0.1,0.2-0.1C802.3,1020.6,802.3,1020.6,802.2,1020.6z"/>
	<path opacity="0.22" fill="#FFFFFE" d="M702.1,1088.8c0.1-0.1,0.3-0.2,0.4-0.4C702.4,1088.5,702.3,1088.7,702.1,1088.8z"/>
	<path opacity="0.22" fill="#FFFFFE" d="M815.8,1014.2c0.2-0.1,0.4-0.2,0.7-0.3C816.3,1014,816.1,1014.1,815.8,1014.2z"/>
	<path opacity="0.22" fill="#FFFFFE" d="M690.7,1099c0.6-0.5,1.2-1.1,1.8-1.6C691.9,1097.9,691.3,1098.5,690.7,1099z"/>
	<path opacity="0.22" fill="#FFFFFE" d="M859.6,998c0.2,0,0.3-0.1,0.5-0.1C859.9,997.9,859.7,997.9,859.6,998z"/>
	<path opacity="0.22" fill="#FFFFFE" d="M830,1008.2c0.3-0.1,0.6-0.2,0.9-0.3C830.6,1008,830.3,1008.1,830,1008.2z"/>
	<path opacity="0.22" fill="#FFFFFE" d="M844.6,1002.8c0.2-0.1,0.5-0.2,0.8-0.3C845.1,1002.6,844.8,1002.7,844.6,1002.8z"/>
	<path opacity="0.22" fill="#FFFFFE" d="M540.6,1291.3c0,0.1-0.1,0.2-0.1,0.2h0C540.5,1291.5,540.5,1291.4,540.6,1291.3z"/>
	<path opacity="0.22" fill="#FFFFFE" d="M679.6,1109.4c0.8-0.8,1.6-1.6,2.5-2.4C681.3,1107.8,680.5,1108.6,679.6,1109.4z"/>
	<path opacity="0.22" fill="#FFFFFE" d="M648.7,1141.3c1.1-1.2,2.2-2.4,3.3-3.6C650.9,1138.9,649.8,1140.1,648.7,1141.3z"/>
	<path opacity="0.22" fill="#FFFFFE" d="M658.6,1130.6c1-1.1,2.1-2.2,3.2-3.3C660.7,1128.4,659.7,1129.5,658.6,1130.6z"/>
	<path opacity="0.22" fill="#FFFFFE" d="M669,1119.9c0.9-0.9,1.9-1.9,2.8-2.8C670.9,1118,669.9,1119,669,1119.9z"/>
	<path d="M1384.4,1291h-14c2.4,4,4.9,6.9,7.3,10.6L1384.4,1291z"/>
	<path opacity="0.22" fill="#FFFFFE" d="M1384.4,1291h-14c2.4,4,4.9,6.9,7.3,10.6L1384.4,1291z"/>
	<path d="M1602.3,1299c0.7,0,1.6,0,2.8-13h0H1534v13H1602.3z"/>
	<path opacity="0.22" fill="#FFFFFE" d="M1602.3,1299c0.7,0,1.6,0,2.8-13h0H1534v13H1602.3z"/>
	<path d="M539.4,1299c-0.9,0-3.5-1.1-4.4-2.6c0,0,1.9-4,1.9-8.3v-2.1h-35v13H539.4z"/>
	<path opacity="0.22" fill="#FFFFFE" d="M539.4,1299c-0.9,0-3.5-1.1-4.4-2.6c0,0,1.9-4,1.9-8.3v-2.1h-35v13H539.4z"/>
	<path fill="#FFFFFF" d="M779.5,1246.7c0-35.9-29.1-64-65-64c-35.9,0-65,27.6-65,63.5c0,22.7,11.6,39.8,29.2,52.8h71.6
		C767.9,1286,779.5,1269.4,779.5,1246.7z"/>
	<path opacity="0.22" fill="#FFFFFE" d="M779.5,1246.7c0-35.9-29.1-64-65-64c-35.9,0-65,27.6-65,63.5c0,22.7,11.6,39.8,29.2,52.8
		h71.6C767.9,1286,779.5,1269.4,779.5,1246.7z"/>
	<path fill="#9D903D" d="M536.8,1296.4c0.9,1.6,1.8,2.6,2.6,2.6h139.3c-17.6-13-29.2-29.6-29.2-52.3c0-35.9,29.1-64,65-64
		c35.9,0,65,27.6,65,63.5c0,22.7-11.6,39.8-29.2,52.8h608.8c-317-429-630-222.4-651.2-207.8c-0.4,0.3-0.8,1.5-1.2,1.8
		c0,0,0.4-1.7,1.2-2.3C1067,830.4,1321,1229,1360.8,1299H1534v-7.5v-241.7L1382.3,1286h1l-6.2,10.6c-2.4-3.6-4.6,2.4-7.1-10.6h0.1
		c-195.3-278-371-331.8-510.2-290.9c-0.2,0-0.3,1.5-0.4,1.5c-4.8,1.4-9.5,3.6-14.2,5.2c-0.2,0.1-0.5,0.5-0.7,0.6
		c-4.6,1.6-9.2,3.5-13.7,5.3c-0.3,0.1-0.6,0.3-0.9,0.4c-4.5,1.8-9,3.7-13.5,5.7c-0.2,0.1-0.4,0.2-0.7,0.3c-4.5,2-9,4.1-13.4,6.3
		c-0.1,0-0.1,0.1-0.2,0.1c-36.5,18.1-69.9,41.9-99.7,67.8c-0.1,0.1-0.3,0.2-0.4,0.4c-3.3,2.9-6.5,5.7-9.7,8.6
		c-0.6,0.5-1.2,1.1-1.8,1.6c-2.9,2.7-5.8,5.4-8.6,8.1c-0.8,0.8-1.7,1.6-2.5,2.4c-2.7,2.6-5.3,5.1-7.8,7.7c-0.9,0.9-1.9,1.9-2.8,2.8
		c-2.4,2.5-4.8,4.9-7.2,7.4c-1.1,1.1-2.1,2.2-3.2,3.3c-2.2,2.4-4.5,4.7-6.7,7.1c-1.1,1.2-2.2,2.4-3.3,3.6c-2.1,2.3-4.2,4.6-6.2,6.9
		c-1.1,1.2-2.2,2.5-3.3,3.7c-2,2.3-4,4.5-5.9,6.8c-1.1,1.3-2.2,2.6-3.3,3.9c-1.9,2.2-3.7,4.4-5.5,6.6c-1.1,1.3-2.2,2.7-3.3,4
		c-1.7,2.1-3.5,4.2-5.1,6.3c-1.1,1.4-2.2,2.8-3.3,4.2c-1.6,2-3.2,4-4.7,6c-1.1,1.4-2.1,2.8-3.2,4.2c-1.5,2-3,4-4.5,5.9
		c-1,1.3-1.9,2.6-2.9,3.9c-1.4,2-2.9,3.9-4.3,5.8c-1.1,1.5-2.1,2.9-3.1,4.3c-2.2,3.1-4.4,6.2-6.5,9.2c-1.2,1.7-2.4,3.4-3.5,5.1
		c-0.9,1.4-1.8,2.7-2.7,4c-1.1,1.7-2.3,3.3-3.4,5c-0.8,1.3-1.6,2.5-2.5,3.7c-1.1,1.6-2.1,3.2-3.2,4.8c-0.8,1.2-1.5,2.4-2.3,3.6
		c-1,1.5-1.9,3-2.9,4.4c-0.7,1.2-1.4,2.3-2.2,3.4c-0.9,1.4-1.8,2.8-2.6,4.1c-0.7,1.1-1.3,2.1-1.9,3.1c-0.8,1.3-1.6,2.6-2.4,3.9
		c-0.6,1-1.2,1.9-1.7,2.9c-0.7,1.2-1.4,2.3-2,3.4c-0.5,0.9-1.1,1.8-1.6,2.7c-0.6,1-1.1,2-1.7,2.9c-0.5,0.9-1,1.8-1.5,2.6
		c-0.5,0.8-0.9,1.5-1.3,2.3c-0.5,0.8-0.9,1.7-1.4,2.4c-0.3,0.6-0.6,1.1-1,1.7c-0.4,0.8-0.9,1.6-1.3,2.3c0,0.1-0.1-0.8-0.1-0.7
		C538.1,1294.9,536.8,1296.4,536.8,1296.4z"/>
	<path opacity="0.22" fill="#FFFFFE" d="M536.8,1296.4c0.9,1.6,1.8,2.6,2.6,2.6h139.3c-17.6-13-29.2-29.6-29.2-52.3
		c0-35.9,29.1-64,65-64c35.9,0,65,27.6,65,63.5c0,22.7-11.6,39.8-29.2,52.8h608.8c-317-429-630-222.4-651.2-207.8
		c-0.4,0.3-0.8,1.5-1.2,1.8c0,0,0.4-1.7,1.2-2.3C1067,830.4,1321,1229,1360.8,1299H1534v-7.5v-241.7L1382.3,1286h1l-6.2,10.6
		c-2.4-3.6-4.6,2.4-7.1-10.6h0.1c-195.3-278-371-331.8-510.2-290.9c-0.2,0-0.3,1.5-0.4,1.5c-4.8,1.4-9.5,3.6-14.2,5.2
		c-0.2,0.1-0.5,0.5-0.7,0.6c-4.6,1.6-9.2,3.5-13.7,5.3c-0.3,0.1-0.6,0.3-0.9,0.4c-4.5,1.8-9,3.7-13.5,5.7c-0.2,0.1-0.4,0.2-0.7,0.3
		c-4.5,2-9,4.1-13.4,6.3c-0.1,0-0.1,0.1-0.2,0.1c-36.5,18.1-69.9,41.9-99.7,67.8c-0.1,0.1-0.3,0.2-0.4,0.4c-3.3,2.9-6.5,5.7-9.7,8.6
		c-0.6,0.5-1.2,1.1-1.8,1.6c-2.9,2.7-5.8,5.4-8.6,8.1c-0.8,0.8-1.7,1.6-2.5,2.4c-2.7,2.6-5.3,5.1-7.8,7.7c-0.9,0.9-1.9,1.9-2.8,2.8
		c-2.4,2.5-4.8,4.9-7.2,7.4c-1.1,1.1-2.1,2.2-3.2,3.3c-2.2,2.4-4.5,4.7-6.7,7.1c-1.1,1.2-2.2,2.4-3.3,3.6c-2.1,2.3-4.2,4.6-6.2,6.9
		c-1.1,1.2-2.2,2.5-3.3,3.7c-2,2.3-4,4.5-5.9,6.8c-1.1,1.3-2.2,2.6-3.3,3.9c-1.9,2.2-3.7,4.4-5.5,6.6c-1.1,1.3-2.2,2.7-3.3,4
		c-1.7,2.1-3.5,4.2-5.1,6.3c-1.1,1.4-2.2,2.8-3.3,4.2c-1.6,2-3.2,4-4.7,6c-1.1,1.4-2.1,2.8-3.2,4.2c-1.5,2-3,4-4.5,5.9
		c-1,1.3-1.9,2.6-2.9,3.9c-1.4,2-2.9,3.9-4.3,5.8c-1.1,1.5-2.1,2.9-3.1,4.3c-2.2,3.1-4.4,6.2-6.5,9.2c-1.2,1.7-2.4,3.4-3.5,5.1
		c-0.9,1.4-1.8,2.7-2.7,4c-1.1,1.7-2.3,3.3-3.4,5c-0.8,1.3-1.6,2.5-2.5,3.7c-1.1,1.6-2.1,3.2-3.2,4.8c-0.8,1.2-1.5,2.4-2.3,3.6
		c-1,1.5-1.9,3-2.9,4.4c-0.7,1.2-1.4,2.3-2.2,3.4c-0.9,1.4-1.8,2.8-2.6,4.1c-0.7,1.1-1.3,2.1-1.9,3.1c-0.8,1.3-1.6,2.6-2.4,3.9
		c-0.6,1-1.2,1.9-1.7,2.9c-0.7,1.2-1.4,2.3-2,3.4c-0.5,0.9-1.1,1.8-1.6,2.7c-0.6,1-1.1,2-1.7,2.9c-0.5,0.9-1,1.8-1.5,2.6
		c-0.5,0.8-0.9,1.5-1.3,2.3c-0.5,0.8-0.9,1.7-1.4,2.4c-0.3,0.6-0.6,1.1-1,1.7c-0.4,0.8-0.9,1.6-1.3,2.3c0,0.1-0.1-0.8-0.1-0.7
		C538.1,1294.9,536.8,1296.4,536.8,1296.4z"/>
	<path fill="#9D903D" d="M707.9,1089.3c21.2-14.6,334.3-219.3,651.2,209.7h1.7C1321,1229,1067,828.9,707.9,1089.3z"/>
	<path opacity="0.21" fill="#FFFFFE" d="M707.9,1089.3c21.2-14.6,334.3-219.3,651.2,209.7h1.7C1321,1229,1067,828.9,707.9,1089.3z"
		/>
	<path opacity="0.22" fill="#FFFFFE" d="M707.9,1089.3c21.2-14.6,334.3-219.3,651.2,209.7h1.7C1321,1229,1067,828.9,707.9,1089.3z"
		/>
	<path fill="#9D903D" d="M707.9,1093.1c-0.8,0.5-1.2,0.8-1.2,0.8C707.1,1093.7,707.5,1093.4,707.9,1093.1z"/>
	<path opacity="0.21" fill="#FFFFFE" d="M707.9,1093.1c-0.8,0.5-1.2,0.8-1.2,0.8C707.1,1093.7,707.5,1093.4,707.9,1093.1z"/>
	<path opacity="0.22" fill="#FFFFFE" d="M707.9,1093.1c-0.8,0.5-1.2,0.8-1.2,0.8C707.1,1093.7,707.5,1093.4,707.9,1093.1z"/>
	<path fill="#C652B4" d="M1602.3,1299h12.7v-21.3c-12,4.3-6.4,8.7-8,13.4c0,0.1-1-1.6-1-1.5C1604.7,1293.3,1602.9,1299,1602.3,1299z
		"/>
	<path opacity="0.22" fill="#FFFFFE" d="M1602.3,1299h12.7v-21.3c-12,4.3-6.4,8.7-8,13.4c0,0.1-1-1.6-1-1.5
		C1604.7,1293.3,1602.9,1299,1602.3,1299z"/>
	<path opacity="0.22" fill="#FFFFFE" d="M1406.3,602.7c1,1.4,2,2.8,3,4.2C1408.3,605.5,1407.3,604.1,1406.3,602.7z"/>
	<path opacity="0.22" fill="#FFFFFE" d="M1399.3,593c1,1.3,2,2.7,3,4C1401.3,595.7,1400.3,594.4,1399.3,593z"/>
	<path opacity="0.22" fill="#FFFFFE" d="M1419.3,621.1c1,1.5,2,3,3,4.4C1421.3,624.1,1420.3,622.6,1419.3,621.1z"/>
	<path opacity="0.22" fill="#FFFFFE" d="M1425.2,629.9c1,1.5,1.9,2.9,2.9,4.3C1427.1,632.8,1426.2,631.4,1425.2,629.9z"/>
	<path opacity="0.22" fill="#FFFFFE" d="M1458.2,683.9c-0.2-0.4-0.5-0.9-0.7-1.3C1457.7,683.1,1458,683.5,1458.2,683.9L1458.2,683.9
		z"/>
	<path opacity="0.22" fill="#FFFFFE" d="M1430.7,638.2c1,1.5,1.9,3,2.8,4.4C1432.6,641.2,1431.7,639.7,1430.7,638.2z"/>
	<path opacity="0.22" fill="#FFFFFE" d="M1376,563.2c0.8,1,1.6,2,2.4,3C1377.6,565.2,1376.8,564.2,1376,563.2z"/>
	<path opacity="0.22" fill="#FFFFFE" d="M1384,573.2c0.9,1.2,1.9,2.4,2.8,3.5C1385.9,575.5,1384.9,574.3,1384,573.2z"/>
	<path opacity="0.22" fill="#FFFFFE" d="M1391.8,583.2c1,1.3,1.9,2.5,2.9,3.8C1393.7,585.7,1392.8,584.4,1391.8,583.2z"/>
	<path opacity="0.22" fill="#FFFFFE" d="M1451.4,671.9c2,3.5,3.7,6.5,5.1,9C1455.1,678.4,1453.4,675.4,1451.4,671.9z"/>
	<path opacity="0.22" fill="#FFFFFE" d="M1435.7,646c1,1.6,1.9,3.1,2.9,4.6C1437.6,649.1,1436.7,647.6,1435.7,646z"/>
	<path opacity="0.22" fill="#FFFFFE" d="M626.4,683.1c-0.2,0.3-0.4,0.6-0.6,0.8h0C626.1,683.7,626.2,683.4,626.4,683.1z"/>
	<path opacity="0.22" fill="#FFFFFE" d="M1367.9,553.4c0.6,0.7,1.2,1.4,1.8,2.1C1369.1,554.8,1368.5,554.1,1367.9,553.4z"/>
	<path opacity="0.22" fill="#FFFFFE" d="M1448.1,666.3c1,1.8,2,3.4,2.9,5C1450.2,669.8,1449.2,668.1,1448.1,666.3z"/>
	<path opacity="0.22" fill="#FFFFFE" d="M1440.3,653.3c1,1.6,1.9,3.1,2.8,4.6C1442.2,656.4,1441.3,654.9,1440.3,653.3z"/>
	<path opacity="0.22" fill="#FFFFFE" d="M1444.4,660.2c1,1.6,1.9,3.1,2.8,4.6C1446.3,663.3,1445.4,661.8,1444.4,660.2z"/>
	<path opacity="0.22" fill="#FFFFFE" d="M1413,612.1c1,1.5,2,2.9,3,4.3C1415,615,1414,613.5,1413,612.1z"/>
	<path opacity="0.22" fill="#FFFFFE" d="M905,412c0.1,0,0.2-0.1,0.2-0.1C905.2,411.9,905.1,411.9,905,412z"/>
	<path opacity="0.22" fill="#FFFFFE" d="M923.5,403.4c0,0,0.1,0,0.1-0.1C923.6,403.4,923.6,403.4,923.5,403.4z"/>
	<path opacity="0.22" fill="#FFFFFE" d="M1185,406.2c0,0,0.1,0,0.1,0.1C1185.1,406.2,1185.1,406.2,1185,406.2z"/>
	<path opacity="0.22" fill="#FFFFFE" d="M886.4,421.8c0,0,0.1,0,0.1-0.1C886.5,421.7,886.4,421.7,886.4,421.8z"/>
	<path opacity="0.22" fill="#FFFFFE" d="M1359.8,544c0.2,0.3,0.5,0.5,0.7,0.8C1360.3,544.6,1360.1,544.3,1359.8,544z"/>
	<path opacity="0.22" fill="#FFFFFE" d="M1212.3,420c0.3,0.2,0.6,0.3,0.9,0.5C1212.9,420.4,1212.6,420.2,1212.3,420z"/>
	<path opacity="0.22" fill="#FFFFFE" d="M1198.7,412.8c0.2,0.1,0.4,0.2,0.6,0.3C1199.1,413,1198.9,412.9,1198.7,412.8z"/>
	<path opacity="0.22" fill="#FFFFFE" d="M1225.6,427.8c0.3,0.2,0.7,0.4,1,0.6C1226.3,428.2,1226,428,1225.6,427.8z"/>
	<path opacity="0.22" fill="#FFFFFE" d="M1251.6,444.8c0.3,0.2,0.6,0.4,0.9,0.7C1252.2,445.2,1251.9,445,1251.6,444.8z"/>
	<path opacity="0.22" fill="#FFFFFE" d="M1276.3,463.3C1276.4,463.3,1276.4,463.4,1276.3,463.3
		C1276.4,463.4,1276.4,463.3,1276.3,463.3z"/>
	<path opacity="0.22" fill="#FFFFFE" d="M1264.1,453.9c0.2,0.2,0.4,0.3,0.7,0.5C1264.5,454.2,1264.3,454,1264.1,453.9z"/>
	<path opacity="0.22" fill="#FFFFFE" d="M1238.7,436.1c0.3,0.2,0.7,0.5,1,0.7C1239.4,436.5,1239.1,436.3,1238.7,436.1z"/>
	<rect x="387" y="684" width="70" height="12"/>
	<rect x="387" y="684" opacity="0.22" fill="#FFFFFE" width="70" height="12"/>
	<path d="M625.9,684L625.9,684h-11.4l5.5,8.6C621.9,689.7,623.9,687,625.9,684z"/>
	<path opacity="0.22" fill="#FFFFFE" d="M625.9,684L625.9,684h-11.4l5.5,8.6C621.9,689.7,623.9,687,625.9,684z"/>
	<path d="M1457.7,690.1c-0.9,1.5,1.3,5.9,0.4,5.9h40.9v-12h-47v0.7C1465,687.8,1457.7,690.1,1457.7,690.1z"/>
	<path opacity="0.22" fill="#FFFFFE" d="M1457.7,690.1c-0.9,1.5,1.3,5.9,0.4,5.9h40.9v-12h-47v0.7
		C1465,687.8,1457.7,690.1,1457.7,690.1z"/>
	<path fill="#FFFFFF" d="M1348,640.4c0-35.9-29.1-65.7-65-65.7c-35.9,0-65,30.1-65,66c0,22.7,11.6,43.2,29.2,55.2h71.6
		C1336.4,684,1348,663.1,1348,640.4z"/>
	<path opacity="0.22" fill="#FFFFFE" d="M1348,640.4c0-35.9-29.1-65.7-65-65.7c-35.9,0-65,30.1-65,66c0,22.7,11.6,43.2,29.2,55.2
		h71.6C1336.4,684,1348,663.1,1348,640.4z"/>
	<path fill="#AF6148" d="M636.7,696c39.8-70,293.8-471.5,653-211.1c0.8,0.5,1.2,0.1,1.2,0.1c-0.4-0.3-0.8,0.5-1.2,0.2
		C1268.4,470.6,955.4,267,638.4,696h608.8c-17.6-12-29.2-32.9-29.2-55.6c0-35.9,29.1-65.7,65-65.7c35.9,0,65,30.1,65,66
		c0,22.7-11.6,43.2-29.2,55.2h139.3c0.9,0,1.8-4.3,2.6-5.9c0,0-0.9-2.4-2.6-5.5c-0.2-0.4-0.5-1.2-0.7-1.7c-0.3-0.6-0.6-1.3-1-1.9
		c-1.4-2.5-3.1-5.6-5.1-9c-0.1-0.2-0.2-0.4-0.3-0.6c-0.9-1.6-1.9-3.3-2.9-5c-0.3-0.5-0.6-1.1-0.9-1.6c-0.9-1.5-1.8-3-2.8-4.6
		c-0.4-0.7-0.9-1.5-1.3-2.2c-0.9-1.5-1.8-3-2.8-4.6c-0.5-0.9-1.1-1.8-1.7-2.7c-0.9-1.5-1.9-3-2.9-4.6c-0.7-1.1-1.4-2.3-2.2-3.4
		c-0.9-1.5-1.9-2.9-2.8-4.4c-0.8-1.3-1.7-2.6-2.6-4c-0.9-1.4-1.9-2.9-2.9-4.3c-1-1.4-1.9-2.9-2.9-4.4c-1-1.5-2-2.9-3-4.4
		c-1.1-1.6-2.2-3.1-3.3-4.7c-1-1.4-2-2.9-3-4.3c-1.2-1.7-2.4-3.4-3.7-5.2c-1-1.4-2-2.8-3-4.2c-1.3-1.9-2.7-3.7-4.1-5.6
		c-1-1.3-2-2.7-3-4c-1.5-2-3-4-4.6-6.1c-0.9-1.2-1.9-2.5-2.9-3.8c-1.7-2.2-3.3-4.3-5-6.5c-0.9-1.2-1.9-2.4-2.8-3.5
		c-1.8-2.3-3.7-4.6-5.6-7c-0.8-1-1.6-2-2.4-3c-2.1-2.6-4.2-5.1-6.3-7.7c-0.6-0.7-1.2-1.4-1.8-2.1c-2.4-2.9-4.9-5.7-7.4-8.6
		c-0.2-0.3-0.5-0.5-0.7-0.8c-24-27.5-52-55.6-83.4-80.7c0,0,0,0,0,0c-3.8-3-7.7-6-11.6-9c-0.2-0.2-0.4-0.3-0.7-0.5
		c-3.8-2.9-7.7-5.7-11.6-8.4c-0.3-0.2-0.6-0.4-0.9-0.7c-3.9-2.7-7.8-5.4-11.8-8c-0.3-0.2-0.7-0.5-1-0.7c-4-2.6-8-5.1-12.1-7.6
		c-0.3-0.2-0.7-0.4-1-0.6c-4.1-2.5-8.3-4.9-12.4-7.3c-0.3-0.2-0.6-0.3-0.9-0.5c-4.3-2.4-8.6-4.7-12.9-6.9c-0.2-0.1-0.4-0.2-0.6-0.3
		c-4.5-2.3-9-4.5-13.6-6.6c0,0-0.1,0-0.1-0.1c-75.4-34.7-163.6-45-261.4-2.8c0,0-0.1,0-0.1,0.1c-6.1,2.6-12.2,5.4-18.3,8.5
		c-0.1,0-0.2,0.1-0.2,0.1c-6.1,3-12.3,6.3-18.5,9.7c0,0-0.1,0-0.1,0.1c-81.2,45.2-168.5,127.4-260,261.3c-0.2,0.3-0.4,0.6-0.6,0.8
		c-2,2.9-4,5.7-6,8.7l-5.5-8.6h-1.6L457,440.3v243.6V696H636.7z"/>
	<path opacity="0.22" fill="#FFFFFE" d="M636.7,696c39.8-70,293.8-471.5,653-211.1c0.8,0.5,1.2,0.1,1.2,0.1
		c-0.4-0.3-0.8,0.5-1.2,0.2C1268.4,470.6,955.4,267,638.4,696h608.8c-17.6-12-29.2-32.9-29.2-55.6c0-35.9,29.1-65.7,65-65.7
		c35.9,0,65,30.1,65,66c0,22.7-11.6,43.2-29.2,55.2h139.3c0.9,0,1.8-4.3,2.6-5.9c0,0-0.9-2.4-2.6-5.5c-0.2-0.4-0.5-1.2-0.7-1.7
		c-0.3-0.6-0.6-1.3-1-1.9c-1.4-2.5-3.1-5.6-5.1-9c-0.1-0.2-0.2-0.4-0.3-0.6c-0.9-1.6-1.9-3.3-2.9-5c-0.3-0.5-0.6-1.1-0.9-1.6
		c-0.9-1.5-1.8-3-2.8-4.6c-0.4-0.7-0.9-1.5-1.3-2.2c-0.9-1.5-1.8-3-2.8-4.6c-0.5-0.9-1.1-1.8-1.7-2.7c-0.9-1.5-1.9-3-2.9-4.6
		c-0.7-1.1-1.4-2.3-2.2-3.4c-0.9-1.5-1.9-2.9-2.8-4.4c-0.8-1.3-1.7-2.6-2.6-4c-0.9-1.4-1.9-2.9-2.9-4.3c-1-1.4-1.9-2.9-2.9-4.4
		c-1-1.5-2-2.9-3-4.4c-1.1-1.6-2.2-3.1-3.3-4.7c-1-1.4-2-2.9-3-4.3c-1.2-1.7-2.4-3.4-3.7-5.2c-1-1.4-2-2.8-3-4.2
		c-1.3-1.9-2.7-3.7-4.1-5.6c-1-1.3-2-2.7-3-4c-1.5-2-3-4-4.6-6.1c-0.9-1.2-1.9-2.5-2.9-3.8c-1.7-2.2-3.3-4.3-5-6.5
		c-0.9-1.2-1.9-2.4-2.8-3.5c-1.8-2.3-3.7-4.6-5.6-7c-0.8-1-1.6-2-2.4-3c-2.1-2.6-4.2-5.1-6.3-7.7c-0.6-0.7-1.2-1.4-1.8-2.1
		c-2.4-2.9-4.9-5.7-7.4-8.6c-0.2-0.3-0.5-0.5-0.7-0.8c-24-27.5-52-55.6-83.4-80.7c0,0,0,0,0,0c-3.8-3-7.7-6-11.6-9
		c-0.2-0.2-0.4-0.3-0.7-0.5c-3.8-2.9-7.7-5.7-11.6-8.4c-0.3-0.2-0.6-0.4-0.9-0.7c-3.9-2.7-7.8-5.4-11.8-8c-0.3-0.2-0.7-0.5-1-0.7
		c-4-2.6-8-5.1-12.1-7.6c-0.3-0.2-0.7-0.4-1-0.6c-4.1-2.5-8.3-4.9-12.4-7.3c-0.3-0.2-0.6-0.3-0.9-0.5c-4.3-2.4-8.6-4.7-12.9-6.9
		c-0.2-0.1-0.4-0.2-0.6-0.3c-4.5-2.3-9-4.5-13.6-6.6c0,0-0.1,0-0.1-0.1c-75.4-34.7-163.6-45-261.4-2.8c0,0-0.1,0-0.1,0.1
		c-6.1,2.6-12.2,5.4-18.3,8.5c-0.1,0-0.2,0.1-0.2,0.1c-6.1,3-12.3,6.3-18.5,9.7c0,0-0.1,0-0.1,0.1c-81.2,45.2-168.5,127.4-260,261.3
		c-0.2,0.3-0.4,0.6-0.6,0.8c-2,2.9-4,5.7-6,8.7l-5.5-8.6h-1.6L457,440.3v243.6V696H636.7z"/>
	<path fill="#AF6148" d="M1289.6,483.6c0.4,0.3,0.8,0.5,1.2,0.8C1290.8,484.4,1290.4,484.1,1289.6,483.6z"/>
	<path opacity="0.21" fill="#FFFFFE" d="M1289.6,483.6c0.4,0.3,0.8,0.5,1.2,0.8C1290.8,484.4,1290.4,484.1,1289.6,483.6z"/>
	<path opacity="0.22" fill="#FFFFFE" d="M1289.6,483.6c0.4,0.3,0.8,0.5,1.2,0.8C1290.8,484.4,1290.4,484.1,1289.6,483.6z"/>
	<path fill="#AF6148" d="M1289.6,486.3C930.4,225.9,676.4,626,636.7,696h1.7C955.4,267,1268.4,471.6,1289.6,486.3z"/>
	<path opacity="0.21" fill="#FFFFFE" d="M1289.6,486.3C930.4,225.9,676.4,626,636.7,696h1.7C955.4,267,1268.4,471.6,1289.6,486.3z"
		/>
	<path opacity="0.22" fill="#FFFFFE" d="M1289.6,486.3C930.4,225.9,676.4,626,636.7,696h1.7C955.4,267,1268.4,471.6,1289.6,486.3z"
		/>
</g>
</svg>
