<?xml version="1.0" encoding="utf-8"?>
<!-- Generator: Adobe Illustrator 18.1.0, SVG Export Plug-In . SVG Version: 6.00 Build 0)  -->
<svg version="1.1" id="Layer_1" xmlns="http://www.w3.org/2000/svg" xmlns:xlink="http://www.w3.org/1999/xlink" x="0px" y="0px"
	 viewBox="0 0 2000 2000" enable-background="new 0 0 2000 2000" xml:space="preserve">
<g>
	<radialGradient id="SVGID_1_" cx="1055.666" cy="1057.1912" r="668.8631" gradientUnits="userSpaceOnUse">
		<stop  offset="0.3034" style="stop-color:#0E955E"/>
		<stop  offset="1" style="stop-color:#48645A"/>
	</radialGradient>
	<path fill="url(#SVGID_1_)" d="M1688.1,1444.6c1.5-3.1,2.8-6.2,4.3-9.3c-1.5,3.2-3.2,6.4-4.8,9.6L1688.1,1444.6z"/>
	<radialGradient id="SVGID_2_" cx="1055.666" cy="1057.1912" r="668.8631" gradientUnits="userSpaceOnUse">
		<stop  offset="0.3034" style="stop-color:#0E955E"/>
		<stop  offset="1" style="stop-color:#48645A"/>
	</radialGradient>
	<path fill="url(#SVGID_2_)" d="M1711.7,1390.9c-5.2,13.1-10.7,26-16.6,38.7C1700.9,1416.9,1706.5,1404,1711.7,1390.9z"/>
	<radialGradient id="SVGID_3_" cx="1055.6661" cy="1057.1912" r="668.863" gradientUnits="userSpaceOnUse">
		<stop  offset="0.3034" style="stop-color:#0E955E"/>
		<stop  offset="1" style="stop-color:#48645A"/>
	</radialGradient>
	<path fill="url(#SVGID_3_)" d="M1144.6,1435.2c310.2-116.9,447.4-101.8,569.2-49.6c30.3-78.7,47.2-164.1,47.2-253.5
		c0-220.3-101-416.9-259.2-546.2c10.9,40.7,16.8,83.4,16.8,127.4c0,111.2-36.9,213.7-99,296.1l1.1,0.2c0,0-3.9,4.1-9.8,10.9
		c-4.1,5.1-8.2,10-12.5,14.9c-26.3,32.8-63.2,88-36.5,111.3c39.2,34.3-73.5,102.8-151.8,112.7c-1.2,0.5-2.5,0.9-3.8,1.3l7.4-0.1
		c0,0-4.2,0.3-10.7,1.2c-10.2,3.3-22.8,6.2-37.5,8.5c-27.1,8.9-54.8,25.5-51,56.4c25.7,66.1-51.4,69.8-40.4,11
		c6.3-33.5-17.3-50.6-86.9-71.9c-154.5-28.1-339.9-124.1-420.7-376.7c-20.9-54.6-32.5-113.9-32.5-175.8c0-20.3,1.4-40.2,3.8-59.8
		c-116.3,125.7-187.4,293.8-187.4,478.6c0,119.4,29.7,231.9,82,330.4c0,0,0.2,0.2,0.6,0.5c-18.2-34.2-33.8-70.1-46.2-107.4
		C415.8,1384.6,671.1,1613.6,1144.6,1435.2z"/>
	<path fill="#FDBA12" d="M566.5,889.2c80.8,252.6,266.2,348.7,420.7,376.7c69.5,21.3,93.2,38.5,86.9,71.9
		c-11,58.8,66.1,55.1,40.4-11c-3.9-31,23.9-47.6,51-56.4c14.7-2.3,27.4-5.2,37.5-8.5c6.5-0.9,10.7-1.2,10.7-1.2l-7.4,0.1
		c1.3-0.4,2.6-0.9,3.8-1.3c78.4-9.8,191-78.4,151.8-112.7c-26.7-23.4,10.2-78.5,36.5-111.3c4.2-4.9,8.4-9.9,12.5-14.9
		c5.9-6.8,9.8-10.9,9.8-10.9l-1.1-0.2c62.1-82.4,99-184.9,99-296.1c0-44.1-5.9-86.8-16.8-127.4c-56.2-210-247.7-364.8-475.5-364.8
		c-6.8,0-16.3,0.2-23,0.5c-7.5,28.5-12.3,56-24.3,48.5v-9.8V223c-11,1.4-30.4,3.6-46.7,6.7c-18.7,33.3-37.7,64.6-59.5,93.9
		c-0.2,0.2,0.4,0.4,0.2,0.7c-7.6,10.3-15.1,20.4-23.1,30.2c-0.4,0.5-0.6,0.9-0.9,1.4c-7.8,9.6-15.7,19-23.7,28.2
		c-0.5,0.6-1,1.2-1.6,1.8c-7.9,9-16,17.8-24.1,26.4c-0.7,0.7-1.3,1.4-2,2.1c-8.1,8.4-16.2,16.7-24.5,24.7c-0.8,0.7-1.5,1.5-2.3,2.2
		c-8.2,7.9-16.5,15.7-24.8,23.3c-0.8,0.8-1.7,1.5-2.5,2.3c-8.3,7.5-16.7,14.8-25.1,21.9c-0.9,0.7-1.7,1.4-2.6,2.1
		c-8.4,7.1-16.8,14-25.3,20.7c-0.8,0.7-1.7,1.3-2.5,2c-8.5,6.7-17,13.2-25.5,19.5c-0.8,0.6-1.6,1.1-2.4,1.7
		c-8.6,6.3-17.2,12.5-25.8,18.5c-0.6,0.4-1.3,0.9-1.9,1.3c-8.6,5.9-17.1,11.7-25.6,17.3c-0.6,0.4-1.1,0.7-1.7,1.1
		c-8.3,5.4-16.5,10.6-24.7,15.7c-0.9,0.6-1.9,1.2-2.8,1.7c-8,4.9-15.9,9.6-23.7,14.2c-1.3,0.8-2.7,1.6-4,2.4c-1.7,1-3.4,1.9-5,2.9
		c-3.1,14.3-5.5,28.9-7.2,43.7c-2.4,19.6-3.8,39.6-3.8,59.8C534.1,775.3,545.6,834.5,566.5,889.2z"/>
	<path fill="#FDBA12" d="M1711.7,1390.9c0.7-1.8,1.5-3.5,2.2-5.3c0,0,0,0-0.1,0c-121.8-52.2-259-67.3-569.2,49.6
		c-473.5,178.4-728.8-50.6-757.8-79.5c12.5,37.3,28,73.1,46.2,107.4c118.5,222.7,352.8,374.4,622.6,374.4
		c277.1,0,516.7-160,632-392.5c1.6-3.2,3.2-6.4,4.8-9.6c0.9-1.9,1.7-3.8,2.6-5.7C1700.9,1416.9,1706.5,1404,1711.7,1390.9z"/>
	<path fill="#0E955E" d="M979,270.1c12,7.6,16.8-20,24.3-48.5c7-26.8,11.4-54.4,11.4-54.4c-14.7-14.7-35.7,4.9-35.7,4.9V223v37.3
		V270.1z"/>
	<linearGradient id="SVGID_4_" gradientUnits="userSpaceOnUse" x1="222.0477" y1="558.6292" x2="384.1522" y2="815.2942">
		<stop  offset="0" style="stop-color:#0E955E"/>
		<stop  offset="0.8371" style="stop-color:#48645A"/>
	</linearGradient>
	<path fill="url(#SVGID_4_)" d="M324,709.6c-3.8,1.3-7.5,2.5-11,3.6C316.5,712.1,320.2,710.9,324,709.6z"/>
	<linearGradient id="SVGID_5_" gradientUnits="userSpaceOnUse" x1="327.3777" y1="492.1049" x2="489.4822" y2="748.7698">
		<stop  offset="0" style="stop-color:#0E955E"/>
		<stop  offset="0.8371" style="stop-color:#48645A"/>
	</linearGradient>
	<path fill="url(#SVGID_5_)" d="M445.5,661.2c-6,2.8-11.8,5.4-17.6,8C433.7,666.7,439.6,664,445.5,661.2z"/>
	<linearGradient id="SVGID_6_" gradientUnits="userSpaceOnUse" x1="349.9066" y1="477.8761" x2="512.0111" y2="734.541">
		<stop  offset="0" style="stop-color:#0E955E"/>
		<stop  offset="0.8371" style="stop-color:#48645A"/>
	</linearGradient>
	<path fill="url(#SVGID_6_)" d="M470.4,649.4c-6.3,3.1-12.6,6.1-18.7,8.9C457.9,655.5,464.1,652.5,470.4,649.4z"/>
	<linearGradient id="SVGID_7_" gradientUnits="userSpaceOnUse" x1="548.4355" y1="352.4891" x2="710.54" y2="609.1541">
		<stop  offset="0" style="stop-color:#0E955E"/>
		<stop  offset="0.8371" style="stop-color:#48645A"/>
	</linearGradient>
	<path fill="url(#SVGID_7_)" d="M603.8,460.7L880.8,243l77.7-57.7l0.9-1.8c-7.7,15.9-15.9,31.2-24.4,46.2c0.1,0,0.1,0,0.2,0
		c8.7-15.5,17.1-31.4,25-47.7c0,0-480,4.9-695.5,543.7c0,0.6,8-0.8,22.2-4.7c-10,2.7-16.8,4.2-20,4.6L603.8,460.7z"/>
	<linearGradient id="SVGID_8_" gradientUnits="userSpaceOnUse" x1="306.0833" y1="505.554" x2="468.1878" y2="762.2189">
		<stop  offset="0" style="stop-color:#0E955E"/>
		<stop  offset="0.8371" style="stop-color:#48645A"/>
	</linearGradient>
	<path fill="url(#SVGID_8_)" d="M421.7,672c-5.6,2.5-11.1,4.8-16.5,7.1C410.6,676.8,416.1,674.4,421.7,672z"/>
	<linearGradient id="SVGID_9_" gradientUnits="userSpaceOnUse" x1="235.6385" y1="550.0455" x2="397.7431" y2="806.7104">
		<stop  offset="0" style="stop-color:#0E955E"/>
		<stop  offset="0.8371" style="stop-color:#48645A"/>
	</linearGradient>
	<path fill="url(#SVGID_9_)" d="M340.1,704.1c-4,1.4-8,2.8-11.8,4C332.1,706.9,336.1,705.6,340.1,704.1z"/>
	<linearGradient id="SVGID_10_" gradientUnits="userSpaceOnUse" x1="210.2218" y1="566.0982" x2="372.3264" y2="822.7632">
		<stop  offset="0" style="stop-color:#0E955E"/>
		<stop  offset="0.8371" style="stop-color:#48645A"/>
	</linearGradient>
	<path fill="url(#SVGID_10_)" d="M310.1,714.1c-3.8,1.2-7.3,2.3-10.7,3.2C302.7,716.4,306.3,715.3,310.1,714.1z"/>
	<linearGradient id="SVGID_11_" gradientUnits="userSpaceOnUse" x1="200.0402" y1="572.5287" x2="362.1447" y2="829.1937">
		<stop  offset="0" style="stop-color:#0E955E"/>
		<stop  offset="0.8371" style="stop-color:#48645A"/>
	</linearGradient>
	<path fill="url(#SVGID_11_)" d="M297.8,717.8c-3.7,1.1-7.1,2-10.2,2.9C290.7,719.9,294.1,718.9,297.8,717.8z"/>
	<linearGradient id="SVGID_12_" gradientUnits="userSpaceOnUse" x1="286.1326" y1="518.1544" x2="448.2371" y2="774.8194">
		<stop  offset="0" style="stop-color:#0E955E"/>
		<stop  offset="0.8371" style="stop-color:#48645A"/>
	</linearGradient>
	<path fill="url(#SVGID_12_)" d="M399.1,681.6c-5.3,2.2-10.5,4.3-15.5,6.3C388.6,685.9,393.8,683.8,399.1,681.6z"/>
	<linearGradient id="SVGID_13_" gradientUnits="userSpaceOnUse" x1="250.7337" y1="540.5117" x2="412.8383" y2="797.1766">
		<stop  offset="0" style="stop-color:#0E955E"/>
		<stop  offset="0.8371" style="stop-color:#48645A"/>
	</linearGradient>
	<path fill="url(#SVGID_13_)" d="M358.2,697.6c-4.6,1.7-9,3.3-13.3,4.8C349.1,701,353.6,699.3,358.2,697.6z"/>
	<linearGradient id="SVGID_14_" gradientUnits="userSpaceOnUse" x1="267.5909" y1="529.865" x2="429.6955" y2="786.53">
		<stop  offset="0" style="stop-color:#0E955E"/>
		<stop  offset="0.8371" style="stop-color:#48645A"/>
	</linearGradient>
	<path fill="url(#SVGID_14_)" d="M377.9,690.1c-5,1.9-9.9,3.8-14.6,5.6C368,694,372.9,692.1,377.9,690.1z"/>
	<path fill="#FDBA12" d="M874.3,323.6c21.7-29.3,42.2-60.6,60.9-93.9c-0.1,0-0.1,0-0.2,0C916.3,263,896,294.3,874.3,323.6z"/>
	<linearGradient id="SVGID_15_" gradientUnits="userSpaceOnUse" x1="837.3709" y1="170.0032" x2="999.4754" y2="426.6682">
		<stop  offset="0" style="stop-color:#0E955E"/>
		<stop  offset="0.8371" style="stop-color:#48645A"/>
	</linearGradient>
	<path fill="url(#SVGID_15_)" d="M874.3,323.6c21.7-29.3,42.2-60.6,60.9-93.9c-0.1,0-0.1,0-0.2,0C916.3,263,896,294.3,874.3,323.6z"
		/>
	<path fill="#FDBA12" d="M716.1,490.8c-8.4,7.1-16.8,14-25.3,20.7C699.2,504.8,707.7,497.9,716.1,490.8z"/>
	<linearGradient id="SVGID_16_" gradientUnits="userSpaceOnUse" x1="592.0953" y1="324.9145" x2="754.1998" y2="581.5794">
		<stop  offset="0" style="stop-color:#0E955E"/>
		<stop  offset="0.8371" style="stop-color:#48645A"/>
	</linearGradient>
	<path fill="url(#SVGID_16_)" d="M716.1,490.8c-8.4,7.1-16.8,14-25.3,20.7C699.2,504.8,707.7,497.9,716.1,490.8z"/>
	<path fill="#FDBA12" d="M688.2,513.5c-8.5,6.7-17,13.2-25.5,19.5C671.2,526.7,679.7,520.2,688.2,513.5z"/>
	<linearGradient id="SVGID_17_" gradientUnits="userSpaceOnUse" x1="562.1547" y1="343.8243" x2="724.2592" y2="600.4893">
		<stop  offset="0" style="stop-color:#0E955E"/>
		<stop  offset="0.8371" style="stop-color:#48645A"/>
	</linearGradient>
	<path fill="url(#SVGID_17_)" d="M688.2,513.5c-8.5,6.7-17,13.2-25.5,19.5C671.2,526.7,679.7,520.2,688.2,513.5z"/>
	<path fill="#FDBA12" d="M743.7,466.8c-8.3,7.5-16.7,14.8-25.1,21.9C727,481.6,735.4,474.3,743.7,466.8z"/>
	<linearGradient id="SVGID_18_" gradientUnits="userSpaceOnUse" x1="622.4969" y1="305.7133" x2="784.6015" y2="562.3783">
		<stop  offset="0" style="stop-color:#0E955E"/>
		<stop  offset="0.8371" style="stop-color:#48645A"/>
	</linearGradient>
	<path fill="url(#SVGID_18_)" d="M743.7,466.8c-8.3,7.5-16.7,14.8-25.1,21.9C727,481.6,735.4,474.3,743.7,466.8z"/>
	<path fill="#FDBA12" d="M632.7,554.5c-8.6,5.9-17.1,11.7-25.6,17.3C615.6,566.2,624.1,560.5,632.7,554.5z"/>
	<linearGradient id="SVGID_19_" gradientUnits="userSpaceOnUse" x1="504.3788" y1="380.3144" x2="666.4834" y2="636.9794">
		<stop  offset="0" style="stop-color:#0E955E"/>
		<stop  offset="0.8371" style="stop-color:#48645A"/>
	</linearGradient>
	<path fill="url(#SVGID_19_)" d="M632.7,554.5c-8.6,5.9-17.1,11.7-25.6,17.3C615.6,566.2,624.1,560.5,632.7,554.5z"/>
	<path fill="#FDBA12" d="M660.3,534.7c-8.6,6.3-17.2,12.5-25.8,18.5C643.2,547.2,651.8,541.1,660.3,534.7z"/>
	<linearGradient id="SVGID_20_" gradientUnits="userSpaceOnUse" x1="532.7753" y1="362.3798" x2="694.8798" y2="619.0447">
		<stop  offset="0" style="stop-color:#0E955E"/>
		<stop  offset="0.8371" style="stop-color:#48645A"/>
	</linearGradient>
	<path fill="url(#SVGID_20_)" d="M660.3,534.7c-8.6,6.3-17.2,12.5-25.8,18.5C643.2,547.2,651.8,541.1,660.3,534.7z"/>
	<path fill="#FDBA12" d="M873.8,324.3c-7.6,10.3-15.5,20.4-23.4,30.2C858.4,344.6,866.2,334.6,873.8,324.3z"/>
	<linearGradient id="SVGID_21_" gradientUnits="userSpaceOnUse" x1="778.5833" y1="207.1323" x2="940.6878" y2="463.7972">
		<stop  offset="0" style="stop-color:#0E955E"/>
		<stop  offset="0.8371" style="stop-color:#48645A"/>
	</linearGradient>
	<path fill="url(#SVGID_21_)" d="M873.8,324.3c-7.6,10.3-15.5,20.4-23.4,30.2C858.4,344.6,866.2,334.6,873.8,324.3z"/>
	<path fill="#FDBA12" d="M849.3,355.8c-7.8,9.6-15.7,19-23.8,28.2C833.6,374.8,841.5,365.5,849.3,355.8z"/>
	<linearGradient id="SVGID_22_" gradientUnits="userSpaceOnUse" x1="747.1411" y1="226.9906" x2="909.2456" y2="483.6555">
		<stop  offset="0" style="stop-color:#0E955E"/>
		<stop  offset="0.8371" style="stop-color:#48645A"/>
	</linearGradient>
	<path fill="url(#SVGID_22_)" d="M849.3,355.8c-7.8,9.6-15.7,19-23.8,28.2C833.6,374.8,841.5,365.5,849.3,355.8z"/>
	<path fill="#FDBA12" d="M823.9,385.8c-7.9,9-16,17.8-24.2,26.4C807.9,403.6,816,394.8,823.9,385.8z"/>
	<linearGradient id="SVGID_23_" gradientUnits="userSpaceOnUse" x1="715.72" y1="246.8355" x2="877.8245" y2="503.5005">
		<stop  offset="0" style="stop-color:#0E955E"/>
		<stop  offset="0.8371" style="stop-color:#48645A"/>
	</linearGradient>
	<path fill="url(#SVGID_23_)" d="M823.9,385.8c-7.9,9-16,17.8-24.2,26.4C807.9,403.6,816,394.8,823.9,385.8z"/>
	<path fill="#FDBA12" d="M605.4,572.9c-8.3,5.4-16.5,10.6-24.7,15.7C588.8,583.5,597.1,578.3,605.4,572.9z"/>
	<linearGradient id="SVGID_24_" gradientUnits="userSpaceOnUse" x1="477.2461" y1="397.4509" x2="639.3506" y2="654.1159">
		<stop  offset="0" style="stop-color:#0E955E"/>
		<stop  offset="0.8371" style="stop-color:#48645A"/>
	</linearGradient>
	<path fill="url(#SVGID_24_)" d="M605.4,572.9c-8.3,5.4-16.5,10.6-24.7,15.7C588.8,583.5,597.1,578.3,605.4,572.9z"/>
	<path fill="#FDBA12" d="M771,441.3c-8.2,7.9-16.5,15.7-24.8,23.3C754.5,457,762.8,449.2,771,441.3z"/>
	<linearGradient id="SVGID_25_" gradientUnits="userSpaceOnUse" x1="653.3138" y1="286.25" x2="815.4183" y2="542.915">
		<stop  offset="0" style="stop-color:#0E955E"/>
		<stop  offset="0.8371" style="stop-color:#48645A"/>
	</linearGradient>
	<path fill="url(#SVGID_25_)" d="M771,441.3c-8.2,7.9-16.5,15.7-24.8,23.3C754.5,457,762.8,449.2,771,441.3z"/>
	<path fill="#FDBA12" d="M797.7,414.3c-8.1,8.5-16.2,16.7-24.5,24.7C781.5,431,789.7,422.7,797.7,414.3z"/>
	<linearGradient id="SVGID_26_" gradientUnits="userSpaceOnUse" x1="684.409" y1="266.6109" x2="846.5135" y2="523.2759">
		<stop  offset="0" style="stop-color:#0E955E"/>
		<stop  offset="0.8371" style="stop-color:#48645A"/>
	</linearGradient>
	<path fill="url(#SVGID_26_)" d="M797.7,414.3c-8.1,8.5-16.2,16.7-24.5,24.7C781.5,431,789.7,422.7,797.7,414.3z"/>
	<linearGradient id="SVGID_27_" gradientUnits="userSpaceOnUse" x1="390.5583" y1="833.7408" x2="262.2126" y2="671.6198">
		<stop  offset="0" style="stop-color:#0E955E"/>
		<stop  offset="0.8371" style="stop-color:#48645A"/>
	</linearGradient>
	<path fill="url(#SVGID_27_)" d="M299.4,717.4c-0.5,0.2-1.1,0.3-1.6,0.5C298.3,717.7,298.9,717.5,299.4,717.4z"/>
	<linearGradient id="SVGID_28_" gradientUnits="userSpaceOnUse" x1="400.4322" y1="825.924" x2="272.0864" y2="663.803">
		<stop  offset="0" style="stop-color:#0E955E"/>
		<stop  offset="0.8371" style="stop-color:#48645A"/>
	</linearGradient>
	<path fill="url(#SVGID_28_)" d="M313,713.2c-1,0.3-2,0.6-3,0.9C311,713.8,312,713.5,313,713.2z"/>
	<linearGradient id="SVGID_29_" gradientUnits="userSpaceOnUse" x1="531.9188" y1="721.8304" x2="403.573" y2="559.7095">
		<stop  offset="0" style="stop-color:#0E955E"/>
		<stop  offset="0.8371" style="stop-color:#48645A"/>
	</linearGradient>
	<path fill="url(#SVGID_29_)" d="M476.4,646.5c-2,1-4,2-6,3C472.4,648.4,474.4,647.4,476.4,646.5z"/>
	<linearGradient id="SVGID_30_" gradientUnits="userSpaceOnUse" x1="382.0103" y1="840.508" x2="253.6645" y2="678.3871">
		<stop  offset="0" style="stop-color:#0E955E"/>
		<stop  offset="0.8371" style="stop-color:#48645A"/>
	</linearGradient>
	<path fill="url(#SVGID_30_)" d="M287.6,720.7c-0.2,0.1-0.5,0.1-0.7,0.2C287.1,720.9,287.4,720.8,287.6,720.7z"/>
	<linearGradient id="SVGID_31_" gradientUnits="userSpaceOnUse" x1="510.8981" y1="738.4717" x2="382.5523" y2="576.3508">
		<stop  offset="0" style="stop-color:#0E955E"/>
		<stop  offset="0.8371" style="stop-color:#48645A"/>
	</linearGradient>
	<path fill="url(#SVGID_31_)" d="M451.7,658.4c-2.1,1-4.1,1.9-6.2,2.9C447.6,660.3,449.6,659.3,451.7,658.4z"/>
	<linearGradient id="SVGID_32_" gradientUnits="userSpaceOnUse" x1="491.0117" y1="754.2151" x2="362.666" y2="592.0942">
		<stop  offset="0" style="stop-color:#0E955E"/>
		<stop  offset="0.8371" style="stop-color:#48645A"/>
	</linearGradient>
	<path fill="url(#SVGID_32_)" d="M427.9,669.2c-2.1,0.9-4.2,1.8-6.2,2.7C423.8,671.1,425.8,670.1,427.9,669.2z"/>
	<linearGradient id="SVGID_33_" gradientUnits="userSpaceOnUse" x1="454.9462" y1="782.7671" x2="326.6004" y2="620.6461">
		<stop  offset="0" style="stop-color:#0E955E"/>
		<stop  offset="0.8371" style="stop-color:#48645A"/>
	</linearGradient>
	<path fill="url(#SVGID_33_)" d="M383.6,687.9c-1.9,0.8-3.8,1.5-5.7,2.2C379.8,689.4,381.6,688.7,383.6,687.9z"/>
	<linearGradient id="SVGID_34_" gradientUnits="userSpaceOnUse" x1="438.9178" y1="795.4562" x2="310.5721" y2="633.3352">
		<stop  offset="0" style="stop-color:#0E955E"/>
		<stop  offset="0.8371" style="stop-color:#48645A"/>
	</linearGradient>
	<path fill="url(#SVGID_34_)" d="M363.3,695.7c-1.7,0.7-3.4,1.3-5.1,1.9C359.9,697,361.5,696.4,363.3,695.7z"/>
	<linearGradient id="SVGID_35_" gradientUnits="userSpaceOnUse" x1="411.7477" y1="816.9658" x2="283.4019" y2="654.8449">
		<stop  offset="0" style="stop-color:#0E955E"/>
		<stop  offset="0.8371" style="stop-color:#48645A"/>
	</linearGradient>
	<path fill="url(#SVGID_35_)" d="M328.4,708.2c-1.5,0.5-2.9,1-4.3,1.4C325.5,709.2,326.9,708.7,328.4,708.2z"/>
	<linearGradient id="SVGID_36_" gradientUnits="userSpaceOnUse" x1="424.4767" y1="806.8887" x2="296.1309" y2="644.7678">
		<stop  offset="0" style="stop-color:#0E955E"/>
		<stop  offset="0.8371" style="stop-color:#48645A"/>
	</linearGradient>
	<path fill="url(#SVGID_36_)" d="M344.8,702.5c-1.6,0.6-3.2,1.1-4.7,1.7C341.7,703.6,343.2,703.1,344.8,702.5z"/>
	<linearGradient id="SVGID_37_" gradientUnits="userSpaceOnUse" x1="472.3391" y1="768.9977" x2="343.9933" y2="606.8768">
		<stop  offset="0" style="stop-color:#0E955E"/>
		<stop  offset="0.8371" style="stop-color:#48645A"/>
	</linearGradient>
	<path fill="url(#SVGID_37_)" d="M405.2,679.1c-2,0.9-4,1.7-6,2.5C401.1,680.7,403.1,679.9,405.2,679.1z"/>
	<path fill="#FDBA12" d="M718.6,488.7c-0.9,0.7-1.7,1.4-2.6,2.1C716.9,490.1,717.8,489.4,718.6,488.7z"/>
	<linearGradient id="SVGID_38_" gradientUnits="userSpaceOnUse" x1="758.8425" y1="542.1824" x2="630.4967" y2="380.0614">
		<stop  offset="0" style="stop-color:#0E955E"/>
		<stop  offset="0.8371" style="stop-color:#48645A"/>
	</linearGradient>
	<path fill="url(#SVGID_38_)" d="M718.6,488.7c-0.9,0.7-1.7,1.4-2.6,2.1C716.9,490.1,717.8,489.4,718.6,488.7z"/>
	<path fill="#FDBA12" d="M690.8,511.5c-0.8,0.7-1.7,1.3-2.5,2C689.1,512.8,689.9,512.2,690.8,511.5z"/>
	<linearGradient id="SVGID_39_" gradientUnits="userSpaceOnUse" x1="730.6629" y1="564.4912" x2="644.118" y2="455.1715">
		<stop  offset="0" style="stop-color:#0E955E"/>
		<stop  offset="0.8371" style="stop-color:#48645A"/>
	</linearGradient>
	<path fill="url(#SVGID_39_)" d="M690.8,511.5c-0.8,0.7-1.7,1.3-2.5,2C689.1,512.8,689.9,512.2,690.8,511.5z"/>
	<path fill="#FDBA12" d="M850.4,354.5c-0.4,0.5-0.7,0.9-1.1,1.4C849.7,355.4,850,354.9,850.4,354.5z"/>
	<linearGradient id="SVGID_40_" gradientUnits="userSpaceOnUse" x1="905.8132" y1="425.8305" x2="777.4674" y2="263.7096">
		<stop  offset="0" style="stop-color:#0E955E"/>
		<stop  offset="0.8371" style="stop-color:#48645A"/>
	</linearGradient>
	<path fill="url(#SVGID_40_)" d="M850.4,354.5c-0.4,0.5-0.7,0.9-1.1,1.4C849.7,355.4,850,354.9,850.4,354.5z"/>
	<path fill="#FDBA12" d="M773.3,439c-0.8,0.7-1.5,1.5-2.3,2.2C771.7,440.5,772.5,439.8,773.3,439z"/>
	<linearGradient id="SVGID_41_" gradientUnits="userSpaceOnUse" x1="816.6489" y1="496.4189" x2="688.3031" y2="334.298">
		<stop  offset="0" style="stop-color:#0E955E"/>
		<stop  offset="0.8371" style="stop-color:#48645A"/>
	</linearGradient>
	<path fill="url(#SVGID_41_)" d="M773.3,439c-0.8,0.7-1.5,1.5-2.3,2.2C771.7,440.5,772.5,439.8,773.3,439z"/>
	<path fill="#FDBA12" d="M746.2,464.5c-0.8,0.8-1.7,1.5-2.5,2.3C744.5,466,745.3,465.3,746.2,464.5z"/>
	<linearGradient id="SVGID_42_" gradientUnits="userSpaceOnUse" x1="787.5264" y1="519.4743" x2="659.1806" y2="357.3534">
		<stop  offset="0" style="stop-color:#0E955E"/>
		<stop  offset="0.8371" style="stop-color:#48645A"/>
	</linearGradient>
	<path fill="url(#SVGID_42_)" d="M746.2,464.5c-0.8,0.8-1.7,1.5-2.5,2.3C744.5,466,745.3,465.3,746.2,464.5z"/>
	<path fill="#FDBA12" d="M607,571.8c-0.6,0.4-1.1,0.7-1.7,1.1C605.9,572.5,606.5,572.2,607,571.8z"/>
	<linearGradient id="SVGID_43_" gradientUnits="userSpaceOnUse" x1="650.3406" y1="628.0798" x2="521.9948" y2="465.9588">
		<stop  offset="0" style="stop-color:#0E955E"/>
		<stop  offset="0.8371" style="stop-color:#48645A"/>
	</linearGradient>
	<path fill="url(#SVGID_43_)" d="M607,571.8c-0.6,0.4-1.1,0.7-1.7,1.1C605.9,572.5,606.5,572.2,607,571.8z"/>
	<path fill="#FDBA12" d="M825.5,384c-0.5,0.6-1.1,1.2-1.6,1.8C824.4,385.2,825,384.6,825.5,384z"/>
	<linearGradient id="SVGID_44_" gradientUnits="userSpaceOnUse" x1="875.8701" y1="449.5356" x2="747.5242" y2="287.4146">
		<stop  offset="0" style="stop-color:#0E955E"/>
		<stop  offset="0.8371" style="stop-color:#48645A"/>
	</linearGradient>
	<path fill="url(#SVGID_44_)" d="M825.5,384c-0.5,0.6-1.1,1.2-1.6,1.8C824.4,385.2,825,384.6,825.5,384z"/>
	<path fill="#FDBA12" d="M580.6,588.6c-0.9,0.6-1.9,1.2-2.8,1.7C578.8,589.8,579.7,589.2,580.6,588.6z"/>
	<linearGradient id="SVGID_45_" gradientUnits="userSpaceOnUse" x1="625.4193" y1="647.8091" x2="497.0735" y2="485.6882">
		<stop  offset="0" style="stop-color:#0E955E"/>
		<stop  offset="0.8371" style="stop-color:#48645A"/>
	</linearGradient>
	<path fill="url(#SVGID_45_)" d="M580.6,588.6c-0.9,0.6-1.9,1.2-2.8,1.7C578.8,589.8,579.7,589.2,580.6,588.6z"/>
	<path fill="#FDBA12" d="M634.6,553.2c-0.6,0.4-1.3,0.9-1.9,1.3C633.3,554.1,633.9,553.7,634.6,553.2z"/>
	<linearGradient id="SVGID_46_" gradientUnits="userSpaceOnUse" x1="676.1807" y1="607.623" x2="547.8348" y2="445.5021">
		<stop  offset="0" style="stop-color:#0E955E"/>
		<stop  offset="0.8371" style="stop-color:#48645A"/>
	</linearGradient>
	<path fill="url(#SVGID_46_)" d="M634.6,553.2c-0.6,0.4-1.3,0.9-1.9,1.3C633.3,554.1,633.9,553.7,634.6,553.2z"/>
	<path fill="#FDBA12" d="M799.7,412.2c-0.7,0.7-1.3,1.4-2,2.1C798.4,413.6,799.1,412.9,799.7,412.2z"/>
	<linearGradient id="SVGID_47_" gradientUnits="userSpaceOnUse" x1="846.1203" y1="473.0874" x2="717.7745" y2="310.9665">
		<stop  offset="0" style="stop-color:#0E955E"/>
		<stop  offset="0.8371" style="stop-color:#48645A"/>
	</linearGradient>
	<path fill="url(#SVGID_47_)" d="M799.7,412.2c-0.7,0.7-1.3,1.4-2,2.1C798.4,413.6,799.1,412.9,799.7,412.2z"/>
	<path fill="#FDBA12" d="M662.7,533c-0.8,0.6-1.6,1.1-2.4,1.7C661.1,534.1,661.9,533.6,662.7,533z"/>
	<linearGradient id="SVGID_48_" gradientUnits="userSpaceOnUse" x1="703.074" y1="586.3325" x2="574.7282" y2="424.2115">
		<stop  offset="0" style="stop-color:#0E955E"/>
		<stop  offset="0.8371" style="stop-color:#48645A"/>
	</linearGradient>
	<path fill="url(#SVGID_48_)" d="M662.7,533c-0.8,0.6-1.6,1.1-2.4,1.7C661.1,534.1,661.9,533.6,662.7,533z"/>
	<path fill="#FDBA12" d="M874.3,323.6c-0.2,0.2-0.3,0.4-0.5,0.7C874,324.1,874.1,323.8,874.3,323.6z"/>
	<linearGradient id="SVGID_49_" gradientUnits="userSpaceOnUse" x1="935.8655" y1="402.0391" x2="807.5197" y2="239.9182">
		<stop  offset="0" style="stop-color:#0E955E"/>
		<stop  offset="0.8371" style="stop-color:#48645A"/>
	</linearGradient>
	<path fill="url(#SVGID_49_)" d="M874.3,323.6c-0.2,0.2-0.3,0.4-0.5,0.7C874,324.1,874.1,323.8,874.3,323.6z"/>
	<linearGradient id="SVGID_50_" gradientUnits="userSpaceOnUse" x1="266.8823" y1="453.7504" x2="960.1484" y2="453.7504">
		<stop  offset="0" style="stop-color:#0E955E"/>
		<stop  offset="0.8371" style="stop-color:#48645A"/>
	</linearGradient>
	<path fill="url(#SVGID_50_)" d="M880.8,243L603.8,460.7L266.9,725.6c3.2-0.4,10-1.9,20-4.6c0.2-0.1,0.5-0.1,0.7-0.2
		c3.1-0.8,6.5-1.8,10.2-2.9c0.5-0.1,1.1-0.3,1.6-0.5c3.3-1,6.9-2.1,10.7-3.2c1-0.3,2-0.6,3-0.9c3.5-1.1,7.2-2.3,11-3.6
		c1.4-0.5,2.9-0.9,4.3-1.4c3.8-1.3,7.7-2.6,11.8-4c1.6-0.5,3.1-1.1,4.7-1.7c4.3-1.5,8.8-3.2,13.3-4.8c1.7-0.6,3.4-1.2,5.1-1.9
		c4.7-1.8,9.6-3.7,14.6-5.6c1.9-0.7,3.8-1.5,5.7-2.2c5.1-2,10.3-4.1,15.5-6.3c2-0.8,4-1.7,6-2.5c5.4-2.3,10.9-4.6,16.5-7.1
		c2.1-0.9,4.1-1.8,6.2-2.7c5.8-2.6,11.6-5.2,17.6-8c2.1-0.9,4.1-1.9,6.2-2.9c6.1-2.9,12.4-5.9,18.7-8.9c2-1,4-2,6-3
		c6.5-3.2,13.1-6.6,19.8-10c1.9-1,3.7-1.9,5.6-2.9c6.9-3.6,13.9-7.4,21-11.2c1.6-0.9,3.3-1.8,5-2.7c5.7-3.2,11.5-6.5,17.3-9.8
		c1.7-1,3.3-1.9,5-2.8c1.3-0.8,2.7-1.6,4-2.4c7.9-4.6,15.8-9.3,23.7-14.2c0.9-0.6,1.9-1.2,2.8-1.7c8.2-5.1,16.5-10.3,24.7-15.7
		c0.6-0.4,1.1-0.7,1.7-1.1c8.5-5.6,17.1-11.3,25.6-17.3c0.6-0.4,1.3-0.9,1.9-1.3c8.6-6,17.2-12.2,25.8-18.5c0.8-0.6,1.6-1.1,2.4-1.7
		c8.5-6.3,17-12.8,25.5-19.5c0.8-0.7,1.7-1.3,2.5-2c8.5-6.7,16.9-13.6,25.3-20.7c0.9-0.7,1.7-1.4,2.6-2.1
		c8.4-7.1,16.7-14.4,25.1-21.9c0.8-0.8,1.7-1.5,2.5-2.3c8.3-7.6,16.6-15.3,24.8-23.3c0.8-0.7,1.5-1.5,2.3-2.2
		c8.2-8,16.4-16.3,24.5-24.7c0.7-0.7,1.3-1.4,2-2.1c8.2-8.6,16.2-17.4,24.2-26.4c0.5-0.6,1.1-1.2,1.6-1.8c8.1-9.2,16-18.6,23.8-28.2
		c0.4-0.5,0.7-0.9,1.1-1.4c7.9-9.8,15.8-19.9,23.4-30.2c0.2-0.2,0.3-0.4,0.5-0.7c21.7-29.3,69.8-104.6,85.9-141.7L880.8,243z"/>
</g>
</svg>
