<?xml version="1.0" encoding="iso-8859-1"?>
<!-- Generator: Adobe Illustrator 13.0.0, SVG Export Plug-In . SVG Version: 6.00 Build 14948)  -->
<!DOCTYPE svg PUBLIC "-//W3C//DTD SVG 1.1//EN" "http://www.w3.org/Graphics/SVG/1.1/DTD/svg11.dtd">
<svg version="1.1" id="Layer_1" xmlns="http://www.w3.org/2000/svg" xmlns:xlink="http://www.w3.org/1999/xlink" x="0px" y="0px"
	 width="100px" height="100px" viewBox="0 0 100 100" enable-background="new 0 0 100 100" xml:space="preserve">
<g>
	<g>
		<defs>
			<path id="SVGID_1_" d="M11.359,70.68c0,5.531,17.455,10.008,38.987,10.008c21.531,0,38.987-4.477,38.987-10.008
				c0-5.521-17.456-9.997-38.987-9.997C28.814,60.683,11.359,65.158,11.359,70.68"/>
		</defs>
		<clipPath id="SVGID_2_">
			<use xlink:href="#SVGID_1_"  overflow="visible"/>
		</clipPath>
		
			<radialGradient id="SVGID_3_" cx="-438.7295" cy="321.0322" r="5.0281" gradientTransform="matrix(7.7543 0 0 -1.9893 3452.3867 709.314)" gradientUnits="userSpaceOnUse">
			<stop  offset="0" style="stop-color:#030403"/>
			<stop  offset="0.039" style="stop-color:#111211"/>
			<stop  offset="0.2476" style="stop-color:#585958"/>
			<stop  offset="0.4444" style="stop-color:#949494"/>
			<stop  offset="0.6234" style="stop-color:#C2C2C2"/>
			<stop  offset="0.7814" style="stop-color:#E3E3E3"/>
			<stop  offset="0.9123" style="stop-color:#F8F8F8"/>
			<stop  offset="1" style="stop-color:#FFFFFF"/>
		</radialGradient>
		<rect x="11.359" y="60.683" clip-path="url(#SVGID_2_)" fill="url(#SVGID_3_)" width="77.975" height="20.005"/>
	</g>
	<g>
		<path fill="#C3D34B" d="M85.458,60.806c0,4.447-15.437,8.049-34.476,8.049c-19.051,0-34.483-3.602-34.483-8.049
			c0-4.444,15.433-8.053,34.483-8.053C70.021,52.753,85.458,56.361,85.458,60.806"/>
	</g>
	<g>
		<defs>
			<path id="SVGID_4_" d="M11.898,41.627l17.46,8.31l0.236,8.372c0,0,8.328,1.366,19.617,1.415
				c12.494,0.056,21.333-1.728,21.333-1.728l0.74-9.095l17.436-9.543L51.494,20.152L11.898,41.627z"/>
		</defs>
		<clipPath id="SVGID_5_">
			<use xlink:href="#SVGID_4_"  overflow="visible"/>
		</clipPath>
		
			<linearGradient id="SVGID_6_" gradientUnits="userSpaceOnUse" x1="-469.1982" y1="541.0703" x2="-464.173" y2="541.0703" gradientTransform="matrix(6.5625 -23.3191 -23.3191 -6.5625 15725.1562 -7274.1055)">
			<stop  offset="0" style="stop-color:#7EC1C4"/>
			<stop  offset="0.2857" style="stop-color:#1E2E4B"/>
			<stop  offset="0.3352" style="stop-color:#1E2E4B"/>
			<stop  offset="0.3626" style="stop-color:#1E2E4B"/>
			<stop  offset="0.5989" style="stop-color:#1F2D4B"/>
			<stop  offset="1" style="stop-color:#71ADE0"/>
		</linearGradient>
		<polygon clip-path="url(#SVGID_5_)" fill="url(#SVGID_6_)" points="1.564,56.874 17.537,0.12 99.054,23.062 83.084,79.815 		"/>
	</g>
	<g>
		<defs>
			<path id="SVGID_7_" d="M29.709,50.032l0.129,8.145c0,0,11.492,1.834,21.017,1.698c12.755-0.184,19.564-2.187,19.564-2.187
				l0.607-8.627c0,0-7.725-3.237-19.182-3.237C45.416,45.824,37.799,46.847,29.709,50.032"/>
		</defs>
		<clipPath id="SVGID_8_">
			<use xlink:href="#SVGID_7_"  overflow="visible"/>
		</clipPath>
		
			<linearGradient id="SVGID_9_" gradientUnits="userSpaceOnUse" x1="-458.4155" y1="582.2812" x2="-453.386" y2="582.2812" gradientTransform="matrix(-13.4969 0.2202 0.2202 13.4969 -6237.2021 -7705.5889)">
			<stop  offset="0" style="stop-color:#6DBAB9"/>
			<stop  offset="0.2857" style="stop-color:#5A9BD2"/>
			<stop  offset="0.4066" style="stop-color:#1E2E4B"/>
			<stop  offset="0.4066" style="stop-color:#1E2E4B"/>
			<stop  offset="0.6593" style="stop-color:#20383A"/>
			<stop  offset="1" style="stop-color:#6DBAB9"/>
		</linearGradient>
		<polygon clip-path="url(#SVGID_8_)" fill="url(#SVGID_9_)" points="71.26,60.011 29.727,60.686 29.486,45.828 71.016,45.148 		"/>
	</g>
	<g>
		<defs>
			<polygon id="SVGID_10_" points="50.215,20.982 87.276,40.041 88.231,39.47 51.494,20.152 			"/>
		</defs>
		<clipPath id="SVGID_11_">
			<use xlink:href="#SVGID_10_"  overflow="visible"/>
		</clipPath>
		
			<linearGradient id="SVGID_12_" gradientUnits="userSpaceOnUse" x1="-457.5146" y1="493.9014" x2="-452.4852" y2="493.9014" gradientTransform="matrix(6.9572 -3.2564 -3.2564 -6.9572 4892.7441 1961.3799)">
			<stop  offset="0" style="stop-color:#6DBAB9"/>
			<stop  offset="0.2857" style="stop-color:#1E2E4B"/>
			<stop  offset="0.3352" style="stop-color:#1E2E4B"/>
			<stop  offset="0.3626" style="stop-color:#1E2E4B"/>
			<stop  offset="0.6593" style="stop-color:#1E2E4B"/>
			<stop  offset="1" style="stop-color:#6DBAB9"/>
		</linearGradient>
		<polygon clip-path="url(#SVGID_11_)" fill="url(#SVGID_12_)" points="42.582,23.726 81.401,5.557 95.868,36.468 57.053,54.636 		
			"/>
	</g>
	<g>
		<polygon fill="#687E40" points="45.119,48.865 55.865,48.865 56.178,59.668 50.195,59.979 45.4,59.771 		"/>
		<path fill="#9BAE48" d="M31.077,73.566c-11.537-1.472-14.482-7.528-14.482-7.528s-0.036-1.096-0.036-5.101
			c1.722,5.111,14.518,6.451,14.518,6.451V73.566z"/>
		<path fill="#9BAE48" d="M71.487,73.366C83.18,72,85.458,66.229,85.458,66.229s-0.304-1.271,0-5.071
			c-1.718,5.119-13.971,6.029-13.971,6.029V73.366z"/>
		<path fill="#8F9E45" d="M45.467,59.703l-2.174,0.676c0,0-9.927-0.473-13.687-2.055C32.447,58.947,42.43,59.771,45.467,59.703"/>
		<path fill="#8F9E45" d="M56.126,59.668l1.842,0.507c0,0,8.744-0.851,12.504-2.438C67.631,58.355,58.748,59.739,56.126,59.668"/>
	</g>
	<g>
		<defs>
			<path id="SVGID_13_" d="M45.144,48.766c0,0.447,0.044,4.556,0.036,4.556c0.964-0.089,8.96-0.591,10.766,0.043
				c-0.004-0.052-0.075-4.599-0.075-4.599H45.144z"/>
		</defs>
		<clipPath id="SVGID_14_">
			<use xlink:href="#SVGID_13_"  overflow="visible"/>
		</clipPath>
		
			<linearGradient id="SVGID_15_" gradientUnits="userSpaceOnUse" x1="-417.7544" y1="555.1758" x2="-412.7237" y2="555.1758" gradientTransform="matrix(0.5709 12.6642 12.6642 -0.5709 -6743.3359 5624.957)">
			<stop  offset="0" style="stop-color:#7EC1C4"/>
			<stop  offset="0.2857" style="stop-color:#1E2E4B"/>
			<stop  offset="0.3352" style="stop-color:#1E2E4B"/>
			<stop  offset="0.3626" style="stop-color:#1E2E4B"/>
			<stop  offset="0.5989" style="stop-color:#1F2D4B"/>
			<stop  offset="1" style="stop-color:#71ADE0"/>
		</linearGradient>
		<polygon clip-path="url(#SVGID_14_)" fill="url(#SVGID_15_)" points="55.921,48.277 56.15,53.353 45.168,53.849 44.936,48.772 		
			"/>
	</g>
	<g>
		<rect x="75.943" y="42.292" fill="#2C4D6F" width="3.409" height="24.144"/>
		<polygon fill="#2C4D6F" points="73.733,63.664 81.314,63.664 77.602,71.56 		"/>
		<polygon fill="#687E40" points="71.487,73.366 52.422,59.724 71.487,67.188 		"/>
		<polygon fill="#687E40" points="31.077,73.566 50.423,58.644 31.077,67.389 		"/>
		<path fill="#4E88BF" d="M46.17,71.192c-4.447-0.108-9.167-0.879-13.618-1.655c0,0,16.505-9.838,17.644-10.974
			c2.27,1.207,19.518,10.799,19.518,10.799S58.811,71.505,46.17,71.192"/>
		<path fill="#40709A" d="M32.496,69.466l0.056,4.612c0,0,3.037,1.247,18.291,1.613c4.823-0.12,9.378,0.049,18.799-1.738
			c0.151-1.818,0.016-4.639,0.016-4.639S49.684,73.111,32.496,69.466"/>
		<path fill="#FFFFFF" d="M49.843,59.991c0.049-0.165,0.353-0.156,0.58-0.145c0.224,0.004,0.507,0.004,0.56,0.164
			c0.188,0.583,0.275,0.847,0.442,1.347c0.792,0.107,1.604,0.276,2.18,0.388c0.114,0.024,0.347,0.359,0.507,0.672
			c0.152,0.323,0.248,0.622,0.08,0.615c-0.783-0.056-2.758-0.28-3.793-0.231c-0.556,0.024-1.783,0.078-2.361,0.606
			c-0.551,0.5-0.363,0.815,0.567,0.96c0.751,0.111,4.512,0.439,5.442,0.471c3.572,0.141,4.389,0.756,5.016,1.95
			c0.521,0.983,0.384,2.298-5.375,2.666c0.181,0.472,0.276,0.715,0.479,1.263c0.076,0.188-2.341,0.239-4.063,0.229
			c-1.667-0.016-4.052-0.113-4.014-0.276c0.125-0.54,0.189-0.791,0.297-1.259c-3.401-0.248-5.615-0.743-6.302-1.139
			c-0.129-0.077,0.464-0.301,1.086-0.544c0.623-0.243,1.254-0.5,1.446-0.436c0.676,0.195,4.661,0.899,7.785,0.839
			c3.223-0.071,4.691-0.535,4.86-1.046c0.172-0.536-0.896-0.844-3.35-0.976c-0.863-0.044-3.701-0.352-4.931-0.575
			c-2.238-0.399-2.861-1.2-1.519-2.247c1.546-1.198,2.81-1.582,3.889-1.738C49.508,61.033,49.655,60.59,49.843,59.991"/>
		<path fill="#D0D2D2" d="M46.071,70.72l0.139,4.788c0,0,1.624,0.201,4.045,0.201c1.178,0,2.385-0.08,3.996-0.104
			c0-1.45-0.092-4.855-0.092-4.855S46.591,70.881,46.071,70.72"/>
	</g>
</g>
</svg>
