<?xml version="1.0" encoding="utf-8"?>
<!-- Generator: Adobe Illustrator 18.1.0, SVG Export Plug-In . SVG Version: 6.00 Build 0)  -->
<svg version="1.1" id="Layer_1" xmlns="http://www.w3.org/2000/svg" xmlns:xlink="http://www.w3.org/1999/xlink" x="0px" y="0px"
	 viewBox="0 0 2000 2000" enable-background="new 0 0 2000 2000" xml:space="preserve">
<g>
	<g>
		<path fill="#FFAF3A" d="M247.4,284.9v849.8c0,0,7.1,223.6,326,231c357.8,8.3,389.6,165,397.5,222.8v-759
			c0,0,23.8-272.3-310.1-313.5C287.2,483,247.4,284.9,247.4,284.9z"/>
		<path fill="#00B3E6" d="M947.1,1613.3c0,0-15.9-181.5-310.1-206.3c-270.3-16.5-421.4-99-421.4-239.3V400.4c0,0-55.6-33-55.6-57.7
			v808.5c0,0,63.6,297,397.5,321.8C883.5,1497.7,923.2,1563.7,947.1,1613.3z"/>
		<path fill="#00B3E6" d="M963,1720.5c0,0-15.9-181.5-310.1-206.3c-270.3-16.5-453.2-82.5-516.8-354.8V458.2c0,0-39.7-33-39.7-57.8
			V1143c0,0,143.1,396,477,420.8C923.2,1588.5,939.1,1671,963,1720.5z"/>
		<path fill="#D77145" d="M1716.1,271.3v849.8c0,0-7.1,223.7-326,231c-357.8,8.3-389.6,165-397.5,222.8v-759
			c0,0-23.8-272.3,310.1-313.5C1676.4,469.3,1716.1,271.3,1716.1,271.3z"/>
		<path fill="#00B3E6" d="M1016.5,1599.6c0,0,15.9-181.5,310.1-206.3c270.3-16.5,421.4-99,421.4-239.2V386.8c0,0,55.6-33,55.6-57.7
			v808.5c0,0-63.6,297-397.5,321.8C1080.1,1484.1,1040.3,1550.1,1016.5,1599.6z"/>
		<path fill="#00B3E6" d="M1000.6,1706.8c0,0,15.9-181.5,310.1-206.3c270.3-16.5,453.2-82.5,516.8-354.8V444.5
			c0,0,39.7-33,39.7-57.8v742.5c0,0-143.1,396-477,420.8C1040.3,1574.8,1024.4,1657.3,1000.6,1706.8z"/>
	</g>
	<path fill="#00B3E6" d="M909.4,565.3c0,0-57.8-46.7-25.6-116.1c32.2-69.4,162.8-60.8,163.1,29.2c0.3,90.1-122.3,69.7-107.2,7.5
		c11.6-37,45.9-6.4,46.9,9.8c0.9,16.2,30.7,10.7,8-34.3c-22.7-44.9-91.1-38.4-87.3,26.4c6.5,68.4,84,66.4,84,66.4s31.4,19.4,4.6,36
		C953.7,616.5,909.4,565.3,909.4,565.3z"/>
</g>
</svg>
