<?xml version="1.0" encoding="utf-8"?>
<!-- Generator: Adobe Illustrator 18.1.0, SVG Export Plug-In . SVG Version: 6.00 Build 0)  -->
<svg version="1.1" id="Layer_1" xmlns="http://www.w3.org/2000/svg" xmlns:xlink="http://www.w3.org/1999/xlink" x="0px" y="0px"
	 viewBox="0 0 150 150" enable-background="new 0 0 150 150" xml:space="preserve">
<g>
	<g>
		<path fill="#FBA5BA" d="M104.8,48c-1.6-0.4-3.3-0.7-5-0.9c-9.1,8.4-24.2,9.2-28.7,9.2c10.6-0.2,18.4-8.7,21.2-12.2
			c1.3-2.3,2.3-4.8,2.8-7.4c1.7-9-2-17.7-9.1-23c-5.6,0.3-15.9,3.4-19.3,21.2C62.1,58.8,51.8,68.2,40,70.7c-0.2,0.2-0.4,0.5-0.6,0.8
			c3.3,2,15.7,10.8,19.2,28.9c0,0,0,0,0,0c0.6-1.5,1.4-2.9,2.5-4.2c5.6-6.8,14.8-4.9,14.8-4.9c-4.4,12.9,8.8,21.7,25.1,18.3
			c-7.5-3.5-12-11.8-10.3-20.8c2-10.9,12.2-18.5,22.8-17c10.5,1.5,17.5,11.4,15.4,22.3c-1.2,6.5-5.3,11.8-10.7,14.7
			c3.9,0.7,7.1,1.9,9.6,3.1c1.8-2.5,3.5-5.2,4.9-8C144.9,79.1,132.4,54.2,104.8,48z"/>
	</g>
	<path fill="#D580B8" d="M40.1,70.6C40.1,70.6,40.1,70.7,40.1,70.6c11.7-2.5,22-11.8,26.6-35.7C70.1,17.2,80.4,14.1,86,13.8
		c-3.5-2.7-7.9-4.5-12.8-5.2C69.1,8,65,8.3,61.2,9.4l0,0c-1-0.1-20.1,5.2-23,25.5C35.3,55.1,30,58.7,26,56.4c-4-2.3,1-7.7,3.1-5.9
		c0,0,2.4-6.5-6.2-4.4c-8.6,2.1-7.7,23.7,11.6,24.7C36.4,71,38.3,70.9,40.1,70.6z M88.8,129.3c-22.7-1.4-35-16.9-30.2-28.9
		c-3.4-18.2-15.9-26.9-19.2-28.9c-2.6,3.2-4.8,6.6-6.6,10.2c-12.2,24.7,0.3,49.7,27.9,55.8c16.9,3.8,35.6-0.5,50.3-10
		C105.7,128.9,98.5,129.9,88.8,129.3z"/>
</g>
</svg>
