<?xml version="1.0" encoding="utf-8"?>
<!-- Generator: Adobe Illustrator 18.1.0, SVG Export Plug-In . SVG Version: 6.00 Build 0)  -->
<svg version="1.0" id="Layer_1" xmlns="http://www.w3.org/2000/svg" xmlns:xlink="http://www.w3.org/1999/xlink" x="0px" y="0px"
	 viewBox="0 0 150 150" enable-background="new 0 0 150 150" xml:space="preserve">
<path fill="#CA92C1" d="M160.8,246.4c-0.2-0.7-0.9-1.2-1.7-1c-0.7,0.2-1.1,0.8-1,1.5c0-0.6,0.4-1.1,1-1.2c0.7-0.2,1.3,0.2,1.5,0.9
	c0.1,0.6-0.1,1.1-0.6,1.4C160.6,247.7,161,247.1,160.8,246.4"/>
<path fill="#C64D9B" d="M159.8,248.5c-0.9,0.2-1.8-0.3-2-1.1c-0.2-0.8,0.2-1.6,0.9-2c-0.6,0.3-0.9,1-0.7,1.7c0.2,0.8,1.1,1.3,1.8,1
	c0.7-0.2,1.1-0.8,1.1-1.5C161.1,247.5,160.6,248.3,159.8,248.5"/>
<g>
	<path fill="#0697CC" d="M159.8,247.2L159.8,247.2C159.8,247.2,159.8,247.2,159.8,247.2z"/>
	<path fill="#0697CC" d="M159.7,246.9C159.7,246.9,159.7,246.9,159.7,246.9C159.7,246.9,159.7,246.9,159.7,246.9z"/>
	<path fill="#C64D9B" d="M159.8,247.2c0.3-0.1,0.4-0.4,0.4-0.4s-0.2,0-0.5,0c0,0,0,0,0,0c0,0,0,0,0,0c0-0.1,0.1-0.2,0.1-0.2
		s-0.1,0-0.1,0c0,0,0,0,0,0c0,0,0,0,0,0c0.1-0.3,0-0.6,0-0.6s-0.1,0-0.1,0.1c0-0.2-0.1-0.3-0.1-0.3s-0.4,0.5-0.4,1
		c0,0,0-0.1-0.1-0.1c0-0.1-0.1-0.1-0.3,0c-0.1,0-0.2,0.1-0.3,0.1c0.2,0,0.6,0.2,0.7,0.4c0,0,0,0,0,0c0,0.2-0.1,0.4-0.3,0.4
		c0.2,0,0.4-0.2,0.4-0.4c0,0,0,0,0-0.1c0,0,0-0.1,0-0.1C159.4,247.3,159.6,247.3,159.8,247.2C159.8,247.3,159.8,247.2,159.8,247.2
		L159.8,247.2"/>
</g>
<g>
	<path fill="#91D3D4" d="M114.4,82.5c-0.1,0.4-0.1,0.8-0.2,1.2c2.4,1.7,6.8,5.1,11.7,10.7c-4.9,3.7-10.5,7.2-17,10.3
		c-0.2-0.4-10.2,16.3-10.2,16.3c4.9-10,6.1-20.3,5.2-30c-0.7-2.9-1.1-5.8-1.3-8.6c-4.9-23.5-19.9-42-19.9-42
		c15.3-1.8,27.6,3.8,27.7,3.6c20.5,6.7,32.1,18.9,35.6,24.2c0.1-0.3,0.1-0.6,0.1-0.8c-0.5-1.9-6.1-9.5-16.8-16.7
		c-9.2-17.9-27.8-30.2-49.3-30.2c-26.1,0-48,18.1-53.8,42.4c-1.7-0.4-3.4-0.8-5.2-1c0,0-10.7,5.3-17.3,23.2c0,0,0.9-0.2,2.5-0.4
		c6.6-15.1,15.9-19.8,15.9-19.8c42.9,6.1,61.7,45.8,61.7,45.8C68.7,90.5,43.5,86.4,25.7,86.3c4.8,25.7,27.4,45.1,54.4,45.1
		c26.8,0,49.2-19,54.3-44.3c-0.4,0.4-0.8,0.8-1.3,1.2C129.1,85.8,122.8,83,114.4,82.5z M92.5,116.4C90.7,74.1,40,53.2,40,53.2
		c15.5-11,27.4-9.4,27.4-9.4C99.4,72.9,92.5,116.4,92.5,116.4z"/>
	<path fill="#91D3D4" d="M116.6,58.1c-3.4,1.5-4.9,5.5-3.4,8.9c1.5,3.4,5.5,4.9,8.9,3.4c3.4-1.5,4.9-5.5,3.4-8.9
		C124,58.1,120.1,56.5,116.6,58.1z"/>
</g>
</svg>
