<?xml version="1.0" encoding="utf-8"?>
<!-- Generator: Adobe Illustrator 18.1.0, SVG Export Plug-In . SVG Version: 6.00 Build 0)  -->
<svg version="1.1" id="Layer_1" xmlns="http://www.w3.org/2000/svg" xmlns:xlink="http://www.w3.org/1999/xlink" x="0px" y="0px"
	 viewBox="0 0 2000 2000" enable-background="new 0 0 2000 2000" xml:space="preserve">
<g>
	<g>
		<path fill="#9D6470" d="M989,112.8v-2l-6.5,1l-6.5-1v2L112,238.1c0,0,0,653.4,0,746.8s1.8,386.7,384.2,560.1
			c283.1,128.3,429.9,271.9,484,337.5l1.5-0.3l-6.3-19.1l-35.5-96.2h0c0.1,0,0.2,0.6,0.3,0.5l-0.5-0.5h0.1l-61.7-162.5
			c0.1,0,0.1,0.6,0.1,0.6l-0.2-1.5c1-0.5,2-3.6,3.1-3.6h-3l37.3-446l-8.8-2.8l-37.1-12.9c-64.3,41.9-144.5,27-144.5,27v-6.8
			c14,0.4,27.4-0.7,39.2-2.7c11.8-2,22.8-5,32.3-8.4c9.5-3.4,18.1-7.2,25.3-10.9c6.6-3.4,12.2-6.6,16.7-9.4l-92.9-38.1l-8.6-3.4
			l4.6-15.9l0.3,0.1l0-0.1l0.2,0l0-0.1l0.9,0.1l176,44.7l17.3-224.8c0.7,1.3,1.5,2.6,2.2,4l0.3-4.5c-0.3-0.5-0.6-1-0.9-1.5
			c0,0,1.1-0.1,1-0.1l-0.1,1.6c16.1,27.6,39.9,56.6,74.2,73.9l22.8,186l171.9-141.4c0,0,0.1,0.1,0.2,0.1l0.1-0.1
			c0,0,10.1,4.5,10.4,11.6c0,1-0.1,2-0.5,3.1c-0.6,1.6-7.4,12.3-18.2,25.4c-18,21.8-47,51.1-76.8,93.1c0,0,0,0,0,0
			c13.9,0,47.8,8,82.1,8.5c20.5,0.3,35-2.3,49-9.2v-0.7c0,0,0-0.4,0-0.4l11.5,5c0,0,2.5,0.1,2.5,0.2v0l1,0.2c0,0-63,46-161.4,10
			c-23,26.9-45.2,50.8-62.2,70.6c0,0,0-1.3,0-1.3L1092,1600h-2.2c1.3,0,2.2,3.8,2.2,3.8l-0.1,1c0.1,0.2,0.1,0.8,0.1,0.8l-63.5,162.1
			c0.1,0,0.2,0.1,0.2,0.2l-0.1,0.3c0,0,0.1-1.1,0.1-1.1l-44.7,112h0.4c54.1-70,201.5-207.6,484.6-335.9
			c382.4-173.4,383.9-464.8,383.9-558.1s0-746.8,0-746.8L989,112.8z M1697.6,687.3c34.1,87.8,14.4,161.5-61.4,229
			c9.5-65.7,26.8-130.7,45.3-182.4c-23.9,41.7-47.1,98.5-54.3,178.8C1609,829.5,1622.3,744.5,1697.6,687.3z M1261.2,302.7
			c128.8,52.6,210.1,139.9,165.5,276c-15.4-117.1-61.4-178.7-129.4-219.5c58.3,56.6,105.2,122,118.7,227.2
			C1294,521.4,1244.1,430,1261.2,302.7z M1129.6,261.2c3.2,111.5-63.7,146.9-132.5,165.9c29.6-71,75.5-69.4,93.7-112.1
			c-19.8,31.6-74.4,22.9-105.2,102C999.1,293.6,1101.9,307.1,1129.6,261.2z M1054.2,646.3c3.7,44,79.8,59,80.5,133.2
			c-72.6-38.6-102.4-92.9-92.3-168.7c12.9,66.7,123.4,41.8,98.7,164.1C1146.8,694,1069.8,686.4,1054.2,646.3z M1056.8,468.9
			c-15.3,106.3-84.1,169.4-213.6,196c38.3-81.9,98-124.8,166.1-158C936,525.3,878,565.2,835,656.4C826.9,537.1,924,484,1056.8,468.9
			z M941.8,248.9c38.3,79.7,25.1,150.1-40.8,218.8c-13.6-71.8,3.1-124.6,29.2-174c-35.8,41.2-52.8,91.3-37.9,171.3
			C834,385.3,868.7,310.8,941.8,248.9z M732,290.6c80.9,42.7,107.1,121.7,102.8,203.8c-19.6-75.4-50.7-125.9-80.2-161.9
			c25.9,46.4,52.7,105.7,72.2,166.8C743.9,447,713.3,379.8,732,290.6z M611.7,341.3c67.1,42.4,84.4,112.4,75.1,183.1
			c-11.9-66.5-35.3-112.2-58.3-145.4c19.3,41.8,38.4,94.9,51.1,149.1C611.4,477.2,589.5,417.1,611.7,341.3z M636.6,613.8
			c-33.7-82.3-79-118.3-136.2-134.9c53.3,30,99.9,68.6,129.9,142.6c-101.3-24-155.1-80.9-167.1-176.8
			C566.9,458.2,642.9,506.2,636.6,613.8z M603.1,712.7c-79.3-64.5-151.4-93.7-210.5-108.9c63.4,28.9,137.7,70.8,205.8,120.3
			c-128.3,9-212.8-38.2-262.3-147C454.8,559.4,543.8,622.5,603.1,712.7z M387.6,1120.6c-10.3-182.3-119-145.7-149.8-220.2
			c8.6,82.3,134,89.9,138,229c-137.5-69.7-174.5-158.6-158.5-300.9C243.9,953.2,429.4,890.5,387.6,1120.6z M289.9,653.1
			C309.1,713.3,430.6,726,412.3,871c-13.7-99-78.6-104-92.6-145.7c9.2,53.9,62.2,64.6,76.7,154C322.7,838.9,255.8,780.1,289.9,653.1
			z M644.8,1172c-117.2-20.5-233.7-68.5-246.3-254.1c53.3,71.7,221.7,33,263.7,235.5c-63.8-126.3-153-103.2-190.8-152.5
			C508.5,1068.9,584.3,1059,644.8,1172z M675,970C631.8,864.3,573.6,818.1,500,796.7c68.4,38.5,128.3,88.1,166.8,183.1
			c-130-30.8-199.1-103.9-214.5-227.1C585.5,770.2,683.1,831.8,675,970z M716.9,830.4c-60.4-125.4,55.1-213.7,24.9-290.7
			c6.9,80.3-116.1,156.9-39.4,288.3c-142.9-185.1,63.6-234.8,29.9-357.7C811.9,589.2,806.9,705.2,716.9,830.4z M824.1,1002.6
			c-16.6-74.3-1-130,24.6-182.4c-35.9,44.2-52,97-33.7,179.8c-63.4-81-29.8-159.9,44.3-226.9C901.9,854.9,890.6,928.8,824.1,1002.6z
			 M935.1,887.8v-0.1C935.1,887.7,935.1,887.8,935.1,887.8C935.1,887.8,935.1,887.8,935.1,887.8z M1134.6,958.2
			c-108.3-29.9-213.5-85.6-208.5-261.1c43.6,72.2,205.4,51.1,226.6,245.3c-48.6-124.5-134.5-110.8-165.6-160.6
			C1015.7,849,1088,846.5,1134.6,958.2z M1204.4,686.7c76.3-131.7-47-207.9-40.4-288.2c-29.9,77.1,85.8,165.1,25.9,290.7
			c-90.5-124.8-95.9-240.8-16.6-360.1C1140,452.1,1346.6,501.1,1204.4,686.7z M1257.7,821.6c15.6-54.6,37.6-107.8,59.3-149.5
			c-25.1,32.6-51.2,78.2-66.4,145.4c-6.1-72.5,14.9-143.1,85.3-183.1C1354.7,712.8,1329.6,773.1,1257.7,821.6z M1430.6,669.1
			c48,135,14.6,246.1-103.5,345.3c-27.7-136.4,105.9-193.6,95.6-275.7c-13,79.5-151.1,123.5-109.1,269.8
			C1220.7,793.9,1433,796.5,1430.6,669.1z M1317.8,1207.4c37.1-70.1,82.5-136.3,124.2-187.1c-43.7,37.4-92.5,92-132.8,179.4
			c12.7-100.9,61.8-191.1,169.5-225.4C1481.9,1086.8,1430.1,1161.8,1317.8,1207.4z M1506.8,451.6c94.7,73.6,110.5,181.5,86.2,286.6
			c-8.1-101.8-36.7-174.1-66.6-227.3c22.9,65.8,43.9,148.4,55.1,231.8C1486.5,656.1,1462.4,562.5,1506.8,451.6z M1521.4,793.9
			c19.6,50.7-45.7,123.7,28.9,194.4c-127.6-93-3.1-164.3-48.2-237.6c74.2,62.1,92.8,138.3,58.1,236.4
			C1497.3,917.3,1555.5,838.2,1521.4,793.9z M1599,1182c-5-139,136.2-173.7,139.4-256.4c-25.9,76.3-169.3,97.2-151.7,248.3
			c-56.7-226.9,152.4-189.6,170.9-315.7C1782.8,999.3,1731.7,1103.5,1599,1182z"/>
	</g>
	<path fill="#B8B7B9" d="M1027.3,1765.8c-0.1,0-0.2-0.1-0.2-0.1c-0.1-0.1-0.3-0.1-0.4-0.2c-12.5-5.4-26.2-8.5-40.7-8.5
		c-17,0-33.1,4.2-47.2,11.6c-0.1,0-0.2,0.1-0.3,0.1h0l35.6,94.1l6.7,17.7l0.6,1.6l0.6-1.6l0.7-1.7L1027.3,1765.8
		C1027.4,1765.8,1027.4,1765.8,1027.3,1765.8z"/>
</g>
</svg>
