<?xml version="1.0" encoding="iso-8859-1"?>
<!-- Generator: Adobe Illustrator 13.0.0, SVG Export Plug-In . SVG Version: 6.00 Build 14948)  -->
<!DOCTYPE svg PUBLIC "-//W3C//DTD SVG 1.1//EN" "http://www.w3.org/Graphics/SVG/1.1/DTD/svg11.dtd">
<svg version="1.1" id="Layer_1" xmlns="http://www.w3.org/2000/svg" xmlns:xlink="http://www.w3.org/1999/xlink" x="0px" y="0px"
	 width="100px" height="100px" viewBox="0 0 100 100" enable-background="new 0 0 100 100" xml:space="preserve">
<g>
	<g>
		<path fill="#E7AE4A" d="M16.037,68.041c2.755-17.15,18.886-28.813,36.033-26.064c13.937,2.24,24.215,13.33,26.105,26.607h3.964
			c-0.474-3.74-1.509-7.34-3.083-10.67c0.067,0.143,0.145,0.281,0.21,0.428l7.501-4.977l-8.484,2.992
			c0.202,0.385,0.386,0.779,0.582,1.172c-1.36-2.789-3.087-5.375-5.115-7.71c0.289,0.331,0.589,0.658,0.866,1.001l6.009-6.666
			l-7.453,4.993c0.027,0.034,0.054,0.067,0.087,0.104c-3.58-3.951-8.073-7.101-13.213-9.123c0.159,0.064,0.327,0.117,0.486,0.182
			l2.036-8.665l-4.094,7.891c0.185,0.06,0.362,0.141,0.547,0.207c-2.024-0.726-4.132-1.292-6.329-1.646
			c-3.454-0.556-6.864-0.568-10.165-0.14c0.184-0.025,0.367-0.06,0.551-0.08L40.71,29.38l0.214,8.81
			c0.212-0.038,0.422-0.062,0.637-0.095c-5.489,0.87-10.63,3.004-15.046,6.16c0.027-0.02,0.057-0.043,0.084-0.063l-6.122-6.269
			l4.4,7.572c0.347-0.283,0.709-0.542,1.068-0.807c-2.442,1.817-4.647,3.949-6.554,6.349c0.214-0.275,0.424-0.558,0.649-0.828
			l-7.47-4.525l6.137,6.22c0.045-0.061,0.095-0.117,0.14-0.178c-3.373,4.461-5.746,9.781-6.694,15.689
			c-0.062,0.393-0.092,0.777-0.144,1.168h3.959C15.997,68.402,16.007,68.223,16.037,68.041z"/>
		<path fill="#E7AE4A" d="M51.783,29.136l-1.997,8.627c0.731,0.055,1.448,0.132,2.172,0.232L51.783,29.136z"/>
		<path fill="#E7AE4A" d="M34.446,39.986l-4.391-7.611l2.39,8.45C33.106,40.525,33.77,40.25,34.446,39.986z"/>
		<path fill="#E7AE4A" d="M81.905,66.783l8.519-2.967l-8.974,0.785C81.623,65.32,81.774,66.047,81.905,66.783z"/>
		<path fill="#E7AE4A" d="M72.387,36.76l-5.95,6.651c0.616,0.41,1.213,0.826,1.807,1.263L72.387,36.76z"/>
		<path fill="#E7AE4A" d="M15.207,57.691l-8.348-2.525l7.473,4.492C14.607,58.986,14.894,58.336,15.207,57.691z"/>
		<path fill="#E7AE4A" d="M3.666,65.768l8.377,2.498c0.037-0.285,0.065-0.566,0.112-0.85c0.067-0.43,0.155-0.855,0.242-1.277
			L3.666,65.768z"/>
	</g>
	<text transform="matrix(1 0 0 1 29.3105 80.0039)" fill="#46B3D9" font-family="'Arvo-Bold'" font-size="45.2023">Q</text>
</g>
</svg>
