<?xml version="1.0" encoding="utf-8"?>
<!-- Generator: Adobe Illustrator 16.0.0, SVG Export Plug-In . SVG Version: 6.00 Build 0)  -->
<!DOCTYPE svg PUBLIC "-//W3C//DTD SVG 1.1//EN" "http://www.w3.org/Graphics/SVG/1.1/DTD/svg11.dtd">
<svg version="1.1" id="Layer_1" xmlns="http://www.w3.org/2000/svg" xmlns:xlink="http://www.w3.org/1999/xlink" x="0px" y="0px"
	 width="100px" height="100px" viewBox="0 0 100 100" enable-background="new 0 0 100 100" xml:space="preserve">
<g>
	<radialGradient id="SVGID_1_" cx="62.1621" cy="56.1221" r="60.0565" gradientUnits="userSpaceOnUse">
		<stop  offset="0.004" style="stop-color:#FFF1DB"/>
		<stop  offset="0.309" style="stop-color:#D6B089"/>
		<stop  offset="0.7508" style="stop-color:#91562D"/>
		<stop  offset="0.7809" style="stop-color:#8C5027"/>
		<stop  offset="1" style="stop-color:#551714"/>
	</radialGradient>
	<path fill="url(#SVGID_1_)" d="M54.197,31.791c-5.904-5.693-5.34-7.656-5.34-7.656c0-4.359-2.953-6.396-2.953-6.396
		c-6.183-9.275-12.996-6.674-12.996-6.674c-11.279,2.177-8.151,12.718-8.151,12.718c0.455,2.528,2.422,6.044,2.422,6.044
		c3.128,5.692,5.692,1.758,5.692,1.758c2.81-2.461,4.144-10.011,4.144-10.011c-0.206-3.516,0.358-3.41,0.358-3.41
		c1.539-0.352,1.333,0.909,1.333,0.909c-0.252,6.15-2.355,9.998-2.355,9.998c-5.692,12.221-11.066,1.002-11.066,1.002
		c-4.166-6.058-1.937-14.583-1.937-14.583C8.735,26.802,6.489,44.794,6.489,44.794c-4.22,31.474,22.623,43.417,22.623,43.417
		s10.258-1.4,10.118-2.389c-0.139-0.982,13.21-1.965,13.21-1.965l1.963-5.766C27.567,59.264,34.805,42.863,34.805,42.863
		c2.421-6.468,9.341-1.798,9.341-1.798c5.168,2.741,7.099,0.884,7.099,0.884c1.407-1.194,3.935-1.653,3.935-1.653
		C60.799,38.75,54.197,31.791,54.197,31.791z M43.762,28.526c-1.154,0-2.089-0.697-2.089-1.546c0-0.855,0.935-1.545,2.089-1.545
		s2.09,0.69,2.09,1.545C45.852,27.83,44.916,28.526,43.762,28.526z"/>
	<path fill="#E85E40" d="M87.623,45.955c-6.197-8.466-17.35-6.601-17.35-6.601c-5.791,0.802-8.552-1.267-8.552-1.267
		c-0.678,2.322,2.269,5.585,2.269,5.585c-1.931,3.795-0.563,7.279-0.563,7.279c0.869,1.758,0.205,3.104,0.205,3.104
		c-1.984,1.473,0.797,3.025,0.797,3.025c3.092,1.845,5.765-1.147,5.765-1.147c1.925-2.813,5.407-4.744,5.407-4.744
		c2.229-0.702,2.229,0.352,2.229,0.352c0.378,1.121-0.623,1.022-0.981,1.088c-3.861,0.717-8.167,8.327-8.167,8.327
		C63.34,68.168,50.19,71.444,50.19,71.444c-23.542,7.218-29.792,0.459-29.792,0.459c-7.274-5.401-3.785-11.776-3.785-11.776
		c2.246-3.67,5.036-2.163,5.036-2.163c0.583,1.067,1.37,0.936,1.37,0.936c0.707-0.027,0.849-0.843,0.849-0.843
		c0.511-1.633-2.193-2.368-2.193-2.368c-4.16-0.844-6.767,2.422-6.767,2.422c-5.487,7.94,0.567,17.567,0.567,17.567
		c12.629,22.689,43.938,15.319,43.938,15.319c14.676-2.321,26.093-16.222,26.093-16.222C98.211,58.348,87.623,45.955,87.623,45.955z
		 M66.816,51.787c-0.683,0-1.24-0.518-1.24-1.155c0-0.637,0.558-1.153,1.24-1.153c0.684,0,1.241,0.517,1.241,1.153
		C68.058,51.27,67.5,51.787,66.816,51.787z"/>
</g>
</svg>
