<?xml version="1.0" encoding="utf-8"?>
<!-- Generator: Adobe Illustrator 16.0.0, SVG Export Plug-In . SVG Version: 6.00 Build 0)  -->
<!DOCTYPE svg PUBLIC "-//W3C//DTD SVG 1.1//EN" "http://www.w3.org/Graphics/SVG/1.1/DTD/svg11.dtd">
<svg version="1.1" id="Layer_1" xmlns="http://www.w3.org/2000/svg" xmlns:xlink="http://www.w3.org/1999/xlink" x="0px" y="0px"
	 width="100px" height="100px" viewBox="0 0 100 100" enable-background="new 0 0 100 100" xml:space="preserve">
<g>
	<polygon fill="#ECBD23" points="79.828,89.968 60.285,49.013 83.76,22.244 51.566,31.063 42.173,13.272 36.778,35.856 
		19.533,42.26 32.835,53.946 27.55,85.068 46.578,65.097 	"/>
	<polygon fill="#3180BC" points="35.533,52.403 32.05,53.259 32.835,53.946 27.55,85.068 41.548,70.369 	"/>
	<polygon fill="#ED8132" points="67.179,80.506 73.431,76.564 64.318,57.466 51.849,69.045 	"/>
	<polygon fill="#E13034" points="79.828,89.968 73.093,75.854 66.621,80.09 	"/>
	<polygon fill="#E13034" points="41.79,40.502 26.006,47.954 32.835,53.946 32.771,54.335 64.419,57.687 60.285,49.013 
		62.634,46.332 	"/>
	<polygon fill="#3180BC" points="51.566,31.063 47.94,24.193 41.621,40.945 60.488,49.452 60.285,49.013 83.76,22.244 	"/>
</g>
</svg>
