<?xml version="1.0" encoding="utf-8"?>
<!-- Generator: Adobe Illustrator 18.1.0, SVG Export Plug-In . SVG Version: 6.00 Build 0)  -->
<svg version="1.1" id="Layer_1" xmlns="http://www.w3.org/2000/svg" xmlns:xlink="http://www.w3.org/1999/xlink" x="0px" y="0px"
	 viewBox="0 0 150 150" enable-background="new 0 0 150 150" xml:space="preserve">
<g>
	<path d="M112.3,112.4c-2.5,3.8-5.7,6.7-9.6,8.8s-8.4,3.2-13.4,3.2c-4.4,0-8.6-0.9-12.4-2.7c-3.8-1.8-7.2-4.3-10-7.5
		c-2.8-3.2-5.1-7-6.7-11.4c-1.6-4.4-2.4-9.2-2.4-14.5c0-5.2,0.8-10,2.4-14.4c1.6-4.4,3.9-8.2,6.8-11.5c2.9-3.2,6.3-5.7,10.3-7.5
		c3.9-1.8,8.2-2.7,12.9-2.7c4.6,0,8.7,0.8,12.2,2.4c3.5,1.6,6.5,3.9,8.9,6.8l19-15.5c-2.4-3.1-5.2-5.6-8.2-7.7
		c-3.1-2.1-6.2-3.8-9.6-5.1c-3.3-1.3-6.7-2.2-10.1-2.8c-3.4-0.6-6.7-0.9-9.9-0.9c-8.7,0-16.8,1.4-24.2,4.1c-2.4,0.9-4.5,2.1-6.7,3.3
		v15H48.9V66H36c-2.5,6.8-3.9,14.2-3.9,22.3c0,9,1.5,17.1,4.5,24.3c3,7.3,7.2,13.5,12.6,18.6c5.4,5.1,11.7,9,19.1,11.8
		c7.4,2.7,15.4,4.1,24.2,4.1c7.7,0,15.2-1.6,22.4-4.7c7.3-3.2,13.3-8.1,18-14.7L112.3,112.4z"/>
	<path fill="#FFFFFF" d="M23.5,48.9v-6.9h6.6v6.9H23.5z M31.8,39.1v-6.9h6.6v6.9H31.8z M17.6,36.7v-6.9h6.6v6.9H17.6z M27.8,22.9
		h6.6v6.9h-6.6V22.9z"/>
	<path fill="#FFFFFF" d="M13.8,8.9V2h6.6v6.9H13.8z"/>
	<path fill="#FFFFFF" d="M25.9,18.8V12h6.6v6.9H25.9z"/>
	<path fill="#FFFFFF" d="M13.2,23.3v-6.9h6.6v6.9H13.2z"/>
	<rect x="48.5" y="38.8" fill="#26A9E0" width="10.8" height="11.3"/>
	<rect x="37.1" y="54.3" width="9.5" height="9.9"/>
	<rect x="36.5" y="43.3" fill="#26A9E0" width="7.9" height="8.2"/>
	<rect x="31.8" y="32.3" fill="#26A9E0" width="6.6" height="6.9"/>
	<rect x="27.8" y="22.9" width="6.6" height="6.9"/>
	<rect x="13.8" y="2" fill="#26A9E0" width="6.6" height="6.9"/>
	<rect x="25.9" y="12" fill="#26A9E0" width="6.6" height="6.9"/>
	<rect x="17.6" y="29.8" fill="#26A9E0" width="6.6" height="6.9"/>
	<rect x="13.2" y="16.4" width="6.6" height="6.9"/>
	<rect x="23.5" y="42.1" width="6.6" height="6.9"/>
</g>
</svg>
