<?xml version="1.0" encoding="utf-8"?>
<!-- Generator: Adobe Illustrator 18.1.0, SVG Export Plug-In . SVG Version: 6.00 Build 0)  -->
<svg version="1.0" id="Layer_1" xmlns="http://www.w3.org/2000/svg" xmlns:xlink="http://www.w3.org/1999/xlink" x="0px" y="0px"
	 viewBox="0 0 150 150" enable-background="new 0 0 150 150" xml:space="preserve">
<path fill="#CA92C1" d="M160.8,246.4c-0.2-0.7-0.9-1.2-1.7-1c-0.7,0.2-1.1,0.8-1,1.5c0-0.6,0.4-1.1,1-1.2c0.7-0.2,1.3,0.2,1.5,0.9
	c0.1,0.6-0.1,1.1-0.6,1.4C160.6,247.7,161,247.1,160.8,246.4"/>
<path fill="#C64D9B" d="M159.8,248.5c-0.9,0.2-1.8-0.3-2-1.1c-0.2-0.8,0.2-1.6,0.9-2c-0.6,0.3-0.9,1-0.7,1.7c0.2,0.8,1.1,1.3,1.8,1
	c0.7-0.2,1.1-0.8,1.1-1.5C161.1,247.5,160.6,248.3,159.8,248.5"/>
<g>
	<path fill="#0697CC" d="M159.8,247.2L159.8,247.2C159.8,247.2,159.8,247.2,159.8,247.2z"/>
	<path fill="#0697CC" d="M159.7,246.9C159.7,246.9,159.7,246.9,159.7,246.9C159.7,246.9,159.7,246.9,159.7,246.9z"/>
	<path fill="#C64D9B" d="M159.8,247.2c0.3-0.1,0.4-0.4,0.4-0.4s-0.2,0-0.5,0c0,0,0,0,0,0c0,0,0,0,0,0c0-0.1,0.1-0.2,0.1-0.2
		s-0.1,0-0.1,0c0,0,0,0,0,0c0,0,0,0,0,0c0.1-0.3,0-0.6,0-0.6s-0.1,0-0.1,0.1c0-0.2-0.1-0.3-0.1-0.3s-0.4,0.5-0.4,1
		c0,0,0-0.1-0.1-0.1c0-0.1-0.1-0.1-0.3,0c-0.1,0-0.2,0.1-0.3,0.1c0.2,0,0.6,0.2,0.7,0.4c0,0,0,0,0,0c0,0.2-0.1,0.4-0.3,0.4
		c0.2,0,0.4-0.2,0.4-0.4c0,0,0,0,0-0.1c0,0,0-0.1,0-0.1C159.4,247.3,159.6,247.3,159.8,247.2C159.8,247.3,159.8,247.2,159.8,247.2
		L159.8,247.2"/>
</g>
<g>
	<path fill="#540B2C" d="M126.5,97.7c5.5-8.1,8.6-17.5,8.6-27.4C135,39.7,105.9,15,69.8,15c-36,0-65.2,24.8-65.2,55.3
		c0,30.5,29.2,55.3,65.2,55.3c8.9,0,17.4-1.5,25.1-4.3c11.5-1.6,14,10.2,50.4,13.7C145.3,135,122.8,115.1,126.5,97.7z M76.6,39.6
		c1.8-8.7,7.8-14.8,13.5-13.6c5.6,1.2,8.8,9.1,7,17.8c-1.8,8.7-7.8,14.8-13.5,13.6C78,56.2,74.8,48.2,76.6,39.6z M56.7,26
		c5.6-1.2,11.7,4.9,13.5,13.6s-1.3,16.6-7,17.8s-11.7-4.9-13.5-13.6C47.9,35.1,51.1,27.1,56.7,26z M31.4,65.8
		c-3.2-8.1-1.5-16.4,3.8-18.5S47.6,50,50.8,58.1c3.2,8.1,1.5,16.4-3.8,18.5C41.6,78.7,34.7,73.9,31.4,65.8z M98.8,98.9
		c-7.5,11.9-19.2,2.9-25.4,2.9c-6.2,0-17.9,9-25.4-2.9C40.6,87.1,59,64.3,73.4,64.3C87.7,64.3,106.2,87.1,98.8,98.9z M115.3,65.8
		c-3.2,8.1-10.2,12.9-15.5,10.8c-5.4-2.1-7.1-10.4-3.8-18.5c3.2-8.1,10.2-12.9,15.5-10.8C116.8,49.4,118.6,57.7,115.3,65.8z"/>
</g>
</svg>
