<?xml version="1.0" encoding="utf-8"?>
<!-- Generator: Adobe Illustrator 16.0.0, SVG Export Plug-In . SVG Version: 6.00 Build 0)  -->
<!DOCTYPE svg PUBLIC "-//W3C//DTD SVG 1.1//EN" "http://www.w3.org/Graphics/SVG/1.1/DTD/svg11.dtd">
<svg version="1.1" id="Layer_1" xmlns="http://www.w3.org/2000/svg" xmlns:xlink="http://www.w3.org/1999/xlink" x="0px" y="0px"
	 width="100px" height="100px" viewBox="0 0 100 100" enable-background="new 0 0 100 100" xml:space="preserve">
<g>
	<path fill-rule="evenodd" clip-rule="evenodd" d="M40.683,85.415h0.012c0.004-0.009,0.007-0.014,0.011-0.027
		c0.258-0.739,0.383-1.499,0.492-2.275c-1.103,0.604-3.025,0.219-4.697,0.29c0.49-1.963,3.365-2.576,5.426-1.766
		c0.012-0.192,0.022-0.366,0.039-0.492c0.002-0.005,0.004-0.01,0.004-0.01c-0.327-0.384,0.359-0.697,0.262-1.137
		c-0.874-0.259-0.553,0.684-1.393,0.463c-0.397-0.121-0.033-1.002-0.62-0.932c-0.013,0.557-0.412,0.726-0.775,0.932
		c-1.396,0.159-1.5-2.463-2.479-1.704c0.561-0.038,0.349,1.498,0.153,1.704c-0.387-0.285-0.238-1.104-1.084-0.932
		c0.1,1.217-0.021,1.371,0.311,1.859c-0.688,0.141-0.62,1.035-1.705,0.776c-0.095,0.418,0.199,1.228-0.154,1.392
		c-1.507,0.062-2.845-0.047-4.183-0.154c-0.195,0.617-2.829,0.327-2.014,0.931c0.057,0.23,1.686,0.244,2.324,0.773
		c0.65-0.665,1.377-0.07,1.859,0.309C34.527,84.461,39.06,83.271,40.683,85.415z"/>
	<path fill-rule="evenodd" clip-rule="evenodd" d="M83.286,80.461c-0.737-0.062-1.117,0.328-1.702,0
		c-0.307-0.37,0.093-1.438-0.464-1.55c-0.309,0.474-0.301,1.25-1.242,1.087c-0.075-0.549-0.229-1.012-0.154-1.705
		c-0.838-0.014-0.559,1.092-0.771,1.705c-0.485-0.02-0.745,0.187-1.088,0.309c-0.495-0.174-0.063-1.284-0.62-1.396
		c-0.25,0.422-0.6,0.744-1.239,0.772c-0.341-0.533,0.062-1.813-0.463-2.167c-0.843,0.552-0.922,1.873-2.015,2.167
		c-0.01-0.127-0.015-0.253-0.017-0.379c-0.208,0.342-0.307,0.776-0.399,1.151c1.507,0.08,2.389,0.783,2.894,1.864
		c-0.696,0.692-2.228,0.562-2.168,2.013c1.063-0.018,2.249,0.08,2.79-0.468c0.402,0.684,1.718,0.511,1.854-0.309
		c-0.463-0.618-1.107-1.059-1.702-1.546c1.218,0.023,3.072-1.545,3.873,0c1.286-0.098,2.734,0.464,3.874,0
		C84.031,81.571,83.573,81.103,83.286,80.461z"/>
	<path fill-rule="evenodd" clip-rule="evenodd" d="M60.589,77.517c0.277-0.016,0.326,0.19,0.618,0.157
		c-0.032,0.966,1.377,3.62,2.789,2.169c0.472,0.099,0.424,0.708,0.775,0.927c0.925-0.257,1.325-1.049,1.857-1.704
		c0.591-0.122,0.195,0.735,0.311,1.087c0.178-0.023,0.274,0.032,0.312,0.154c0.786,0.116,0.972-0.37,1.238-0.777
		c0.359,0.313,1.218,0.126,1.236,0.777c-1.151,0.553-2.4,1.007-3.408,1.704c-2.517,0.09-4.886,0.033-5.885-1.396
		c-1.323,0.174-3.418-0.421-4.028,0.468c-0.671,0-1.282-0.06-1.083-0.931c0.669,0,1.342,0,2.015,0
		c0.723-0.618,1.234-1.448,1.548-2.479c0.577,0.301,0.343,1.41,1.392,1.237C60.51,78.573,60.543,78.04,60.589,77.517z"/>
	<path fill-rule="evenodd" clip-rule="evenodd" d="M50.443,84.644c-2.048-0.02-4.182,0.051-5.422-0.778
		C45.774,82.193,50.438,82.694,50.443,84.644z"/>
	<path fill-rule="evenodd" clip-rule="evenodd" d="M65.472,84.333c-1.137,0-2.273,0-3.41,0
		C61.895,82.493,65.663,82.424,65.472,84.333z"/>
	<path fill-rule="evenodd" clip-rule="evenodd" d="M54.628,83.093c0.566,0.469,1.563,0.501,1.394,1.705
		c-1.07,0.014-1.183,0.987-2.634,0.617c-0.1-0.463-0.427-0.707-1.085-0.617C52.536,83.688,53.915,83.725,54.628,83.093z"/>
	<g>
		<path fill="#231F20" d="M32.81,42.117c0,0,1.367,1.742-1.134,4.364c0,0,0.607,2.037,0.047,5.223
			c-0.327,1.85-0.231,2.973-0.178,3.671c0.136,1.816,0.817,3.413,0.817,3.413c-0.968-1.414-1.151-2.402-1.151-2.402
			c-0.291,1.161-1.094,4.195,0.088,6.838c0.049,0.106,0.371,0.895,1.145,1.718l-1.336-1.213c-0.983,0.506-4.378,2.132-6.255,1.387
			c0,0-1.745,1.306-1.375,2.875c0.366,1.573,1.649,5.193,1.649,6.238c0,0,3.024,3.184,5.041,3.924c0,0,1.699-1.789,0-3.399
			c0,0-1.557,0.857-1.741-1.457c0,0-3.711-2.623-1.86-5.479c0,0-0.478-0.192-0.706-0.314c-0.221-0.111-0.438-0.263-0.438-0.263
			s0.541,0.254,1.45,0.446c1.179,0.253,7.535,1.452,11.765-1.864c0,0-0.748,0.932-1.894,1.644c0,0,5.85,10.12,5.301,13.263
			c0,0-2.706,2.921-2.706,4.401c0,0,1.832,1.705,3.117,0c0,0,0.504-2.177,0.549-2.701c0,0,1.595,0,1.595-2.094
			c0,0-2.233-4.188-1.845-7.554c0.262-2.281,0.068-3.789-0.098-4.485c0,0-1.771-1.514-2.232-2.399l0,0c0,0,0.64,0.792,2.374,1.873
			c0.794,0.498,4.159,2.613,10.832,0.09c1.517-0.571,3.041-1.783,3.041-1.783s-0.368,0.401-0.987,0.969
			c-0.452,0.416-1.437,1.035-1.437,1.035c2.831,4.026,5.298,5.202,5.298,5.202c-0.579-0.21-1.405-0.627-1.405-0.627
			c-1.531,2.823-5.492,4.677-6.101,5.062c0,0-0.504,2.182-1.193,2.834c0,0-0.011,2.022-0.164,2.631c0,0,2.628-0.347,3.36-1.598
			c0,0-0.089-1.02-0.334-1.601c0,0,0.615-0.062,0.881-0.178c0.845-0.38,0.465-0.688,0.616-0.969
			c0.672-1.246,4.053-3.766,7.336-5.396c0.575-0.285,0.304-1.218-1.19-2.211c-1.404-0.927-1.319-1.737-1.38-3.001
			c0,0-1.218-1.457-1.68-4.875c0,0,0.592,5.839,9.105,9.6c1.103,0.487,3.396,1.012,3.396,1.012s-0.104,0.037-1.198-0.136
			c-0.98-0.154-0.98-0.154-0.98-0.154c1.021,0.983,2.984,3.399,2.82,6.341c-0.216,3.808-0.365,3.545-1.101,4.734
			c-0.735,1.193-1.132,1.429-1.438,1.892c0,0,1.896,1.831,4.157-0.463c0,0,0.672-1.574,0.49-2.184c0,0,0.971,0.202,1-1.133
			c0.021-1.007-1.825-3.26-0.848-9.539c0,0-7.091-3.554-3.455-9.318c0,0,1.375-2.397-0.212-6.262c0,0,1.741-0.642,1.496,2.528
			c-0.245,3.166-2.752,9.011,3.608,12.471c0,0-3.148-4.776-0.919-8.737c2.235-3.967,1.924-8.664-1.403-9.23
			c-2.05-0.348-2.538,1.368-4.189,0.87c0,0-3.759-3.488-8.314-3.108c-4.552,0.38-8.557,1.845-10.774,1.367
			c-2.828-0.614-4.745-1.273-5.699-6.018c-1.223-6.079-8.62-12.124-15.822-10.293l0.707,1.41c0,0-1.775-2.894-4.541-3.241
			c0,0,0.116,1.025,0.756,1.859c0.022,0.028,0.045,0.056,0.07,0.089c0,0-0.716-0.875-1.579-1.222c0,0,0.009,1.087,0.743,1.967
			c0,0,0.293-0.131,0.959-0.253c0,0-1.07,0.281-1.243,0.754c0,0,0.785,0.207,0.785,1.138c0,0.932-0.507,2.037,0.502,6.706
			c0.439,2.033-0.351,4.252,0.903,4.983c0,0,1.417,0.664,1.955-1.63c0,0-0.051,1.798,0.643,1.803
			c0.424,0.005,1.222-0.014,1.374-3.082c0.054-1.048,0.639-2.201,1.158-2.646C33.946,43.874,32.81,42.117,32.81,42.117z"/>
		<path fill="#FFFFFF" d="M34.943,39.94c0,0,7.427,2.355,6.785,10.471C41.729,50.411,42.008,43.944,34.943,39.94z"/>
		<path fill="#FFFFFF" d="M27.493,42.131c0,0-0.701,0.407-1.132,0.319C26.361,42.45,26.854,43.41,27.493,42.131z"/>
	</g>
	<path fill="#72AFDF" d="M85.347,76.831c1.396-3.184,2.398-6.508,2.989-9.871c0.588-3.371,0.76-6.785,0.51-10.152
		c-0.235-3.367-0.895-6.682-1.943-9.853c-0.529-1.583-1.146-3.128-1.859-4.632c-0.716-1.498-1.534-2.946-2.421-4.346
		c-0.889-1.391-1.871-2.73-2.93-3.994c-1.059-1.265-2.188-2.473-3.392-3.597c-2.413-2.239-5.081-4.196-7.96-5.765
		c-2.871-1.573-5.932-2.8-9.101-3.596c-3.165-0.815-6.435-1.227-9.706-1.212c-3.266-0.01-6.536,0.397-9.7,1.212
		c-3.167,0.801-6.229,2.023-9.1,3.601c-2.879,1.569-5.545,3.526-7.955,5.765c-1.206,1.124-2.336,2.327-3.393,3.596
		c-1.061,1.265-2.038,2.604-2.929,3.995c-0.889,1.395-1.704,2.847-2.419,4.346c-0.717,1.499-1.333,3.048-1.861,4.631
		c-1.05,3.166-1.707,6.481-1.947,9.848c-0.247,3.367-0.076,6.781,0.51,10.147c0.589,3.368,1.59,6.692,2.984,9.876
		c-3.725-5.886-5.749-12.947-5.842-20.089c-0.022-1.785,0.073-3.578,0.283-5.361c0.208-1.785,0.55-3.56,0.997-5.307
		c0.446-1.746,1.021-3.465,1.701-5.142c0.682-1.676,1.474-3.315,2.379-4.894c3.593-6.317,8.919-11.675,15.26-15.355
		c3.167-1.85,6.589-3.26,10.138-4.219c3.551-0.946,7.226-1.423,10.894-1.428c3.672,0.009,7.35,0.478,10.9,1.428
		c3.546,0.965,6.971,2.374,10.134,4.224c6.346,3.676,11.664,9.043,15.259,15.356c0.906,1.573,1.688,3.212,2.376,4.893
		c0.684,1.672,1.257,3.391,1.701,5.142c0.903,3.493,1.325,7.095,1.278,10.663C91.095,63.884,89.071,70.945,85.347,76.831z"/>
</g>
</svg>
