<?xml version="1.0" encoding="utf-8"?>
<!-- Generator: Adobe Illustrator 16.0.0, SVG Export Plug-In . SVG Version: 6.00 Build 0)  -->
<!DOCTYPE svg PUBLIC "-//W3C//DTD SVG 1.1//EN" "http://www.w3.org/Graphics/SVG/1.1/DTD/svg11.dtd">
<svg version="1.1" id="Layer_1" xmlns="http://www.w3.org/2000/svg" xmlns:xlink="http://www.w3.org/1999/xlink" x="0px" y="0px"
	 width="100px" height="100px" viewBox="0 0 100 100" enable-background="new 0 0 100 100" xml:space="preserve">
<g>
	<path fill="#B54926" d="M54.922,74.953c0,0.201-0.139,0.387-0.297,0.531c-0.16,0.148-0.344,0.279-0.533,0.391
		c-0.385,0.23-0.787,0.422-1.201,0.592c-0.82,0.348-1.66,0.631-2.509,0.896c-0.846,0.256-1.698,0.496-2.555,0.707
		c-0.856,0.215-1.716,0.406-2.579,0.572c-1.734,0.305-3.429,0.527-5.188,0.646c-0.866,0.025-1.73,0.008-2.593-0.123
		c-0.434-0.066-0.865-0.156-1.297-0.33c-0.215-0.092-0.433-0.201-0.651-0.377c-0.106-0.092-0.215-0.199-0.312-0.361
		c-0.045-0.078-0.089-0.166-0.12-0.27c-0.015-0.055-0.029-0.113-0.037-0.172c-0.005-0.025-0.009-0.055-0.009-0.086
		c-0.002-0.016-0.002-0.025-0.003-0.045c0-0.025,0-0.037,0-0.061c0-0.021,0-0.016,0.001-0.066c0.002-0.039,0.005-0.068,0.011-0.102
		c0.008-0.057,0.02-0.119,0.037-0.174c0.031-0.113,0.072-0.217,0.12-0.305c0.097-0.184,0.205-0.318,0.312-0.438
		c0.219-0.234,0.436-0.396,0.651-0.545c0.432-0.283,0.863-0.482,1.297-0.66c0.862-0.348,1.727-0.588,2.592-0.779
		c1.735-0.324,3.432-0.537,5.188-0.676c0.863-0.051,1.723-0.078,2.579-0.078c0.857-0.008,1.708,0.014,2.555,0.061
		c0.849,0.047,1.689,0.119,2.509,0.258c0.414,0.064,0.816,0.154,1.201,0.285c0.189,0.07,0.373,0.145,0.533,0.254
		C54.783,74.609,54.922,74.758,54.922,74.953z M54.922,74.953c0-0.195-0.145-0.344-0.297-0.445c-0.166-0.109-0.348-0.184-0.541-0.25
		c-0.381-0.127-0.793-0.203-1.199-0.266c-0.828-0.111-1.674-0.152-2.523-0.152c-1.725,0.059-3.402,0.197-5.114,0.418
		c-0.851,0.127-1.7,0.279-2.543,0.461c-0.844,0.174-1.685,0.387-2.514,0.627c-0.829,0.248-1.652,0.52-2.436,0.871
		c-0.389,0.174-0.771,0.373-1.103,0.598c-0.166,0.113-0.319,0.236-0.425,0.355c-0.05,0.055-0.087,0.113-0.105,0.146
		c-0.006,0.014-0.012,0.025-0.012,0.027c-0.002,0.006,0,0.006,0,0.006s0-0.006,0-0.012c0-0.021,0,0.014,0,0.025
		c0-0.008,0-0.014,0-0.014s0-0.006,0-0.008l0,0l0,0c0,0-0.002-0.004,0,0c0,0.002,0.006,0.014,0.012,0.027
		c0.017,0.029,0.055,0.078,0.105,0.119c0.105,0.092,0.259,0.18,0.425,0.248c0.332,0.141,0.714,0.242,1.103,0.32
		c0.783,0.152,1.606,0.217,2.436,0.25c0.829,0.031,1.669,0.031,2.514-0.008c0.843-0.033,1.692-0.098,2.545-0.186
		c1.732-0.219,3.407-0.508,5.112-0.885c0.849-0.219,1.695-0.467,2.523-0.791c0.406-0.166,0.818-0.344,1.199-0.568
		c0.193-0.113,0.375-0.236,0.541-0.385C54.777,75.34,54.922,75.154,54.922,74.953z"/>
	<path fill="#B54926" d="M47.93,71.748c0.083,0.334,0.134,0.67,0.175,1.004c0.042,0.338,0.067,0.676,0.086,1.016
		c0.011,0.338,0.023,0.68,0.011,1.02c-0.014,0.344-0.062,0.689-0.107,1.033c-0.009,0.092-0.014,0.135-0.026,0.221
		c-0.069,0-0.102,0-0.172,0c-0.441,0-0.884,0.016-1.322,0.078c-0.442,0.059-0.884,0.148-1.326,0.254
		c-0.439,0.105-0.879,0.217-1.322,0.293c-0.442,0.08-0.882,0.156-1.324,0.229c-0.142,0.023-0.209,0.037-0.354,0.059
		c-0.003-0.156-0.005-0.232-0.009-0.385c-0.013-0.363-0.011-0.725,0-1.092c0.009-0.363,0.034-0.729,0.056-1.092
		c0.019-0.221,0.027-0.33,0.045-0.551c0.022-0.219,0.035-0.328,0.058-0.549c0.044-0.363,0.094-0.732,0.169-1.098
		c0.028-0.004,0.042-0.004,0.07-0.008c0.073,0.355,0.122,0.711,0.167,1.07c0.025,0.213,0.035,0.322,0.061,0.531
		c0.018,0.215,0.027,0.324,0.045,0.537c0.022,0.359,0.045,0.715,0.058,1.074c0.009,0.359,0.011,0.719,0,1.08
		c-0.145-0.129-0.222-0.197-0.367-0.326c0.442-0.039,0.882-0.074,1.324-0.107c0.443-0.037,0.883-0.037,1.322-0.045
		c0.442-0.006,0.884-0.025,1.326-0.078c0.438-0.055,0.881-0.15,1.322-0.262c-0.08,0.084-0.12,0.131-0.2,0.217
		c-0.045-0.336-0.092-0.67-0.105-1.016c-0.015-0.336-0.001-0.686,0.011-1.025c0.017-0.346,0.042-0.693,0.086-1.033
		c0.042-0.354,0.09-0.697,0.173-1.047C47.888,71.748,47.902,71.748,47.93,71.748z"/>
	<path fill="#B54926" d="M69.977,61.834c0.018,1.672-0.807,3.438-2.246,4.85c-0.715,0.707-1.564,1.334-2.504,1.824
		c-0.936,0.49-1.955,0.838-2.984,1.016c-4.063,0.686-8.125,1.389-12.183,2.119c-8.143,1.506-16.26,3.123-24.368,4.799
		c-1.217,0.25-1.827,0.377-3.044,0.635c-0.166,0.029-0.245,0.047-0.41,0.08c-0.165,0.025-0.316,0.047-0.463,0.063
		c-0.299,0.035-0.598,0.053-0.897,0.053c-0.595,0.004-1.187-0.064-1.759-0.203c-2.294-0.543-4.273-2.264-5.347-4.762
		c-0.541-1.24-0.858-2.666-0.929-4.133c-0.044-1.449-0.067-2.176-0.111-3.627c-0.062-2.387-0.142-4.77-0.188-7.16
		c-0.212-9.576-0.328-19.152-0.35-28.735c-0.001-1.578,0.27-3.138,0.785-4.531c0.517-1.396,1.277-2.623,2.222-3.584
		c1.879-1.948,4.565-2.739,7.224-2.289c2.068,0.356,4.072,0.736,6.111,1.106c2.03,0.367,4.061,0.758,6.092,1.139
		c8.127,1.549,16.246,3.156,24.365,4.734c1.219,0.235,1.828,0.352,3.047,0.584c0.158,0.032,0.242,0.047,0.402,0.08
		c0.156,0.032,0.301,0.065,0.445,0.102c0.291,0.076,0.574,0.163,0.857,0.257c0.566,0.192,1.117,0.425,1.643,0.7
		c2.115,1.092,3.791,2.79,4.619,4.596c0.412,0.903,0.623,1.833,0.607,2.735c-0.035,1.001-0.061,1.498-0.102,2.499
		c-0.064,1.662-0.141,3.326-0.188,4.991C70.113,48.46,70.006,55.145,69.977,61.834z M69.977,61.834
		c-0.025-6.699-0.143-13.396-0.35-20.092c-0.051-1.68-0.123-3.362-0.188-5.049c-0.029-0.834-0.066-1.698-0.109-2.514
		c-0.064-0.78-0.305-1.56-0.711-2.289c-0.813-1.469-2.293-2.729-3.969-3.443c-0.422-0.174-0.85-0.323-1.283-0.431
		c-0.219-0.055-0.436-0.098-0.652-0.135c-0.111-0.018-0.219-0.032-0.313-0.047c-0.145-0.015-0.217-0.021-0.363-0.04
		c-1.219-0.124-1.828-0.189-3.047-0.313c-8.119-0.816-16.246-1.606-24.365-2.448c-2.031-0.218-4.062-0.424-6.092-0.657
		c-2.022-0.232-4.079-0.45-6.073-0.693c-1.411-0.16-2.748,0.355-3.722,1.364c-0.976,1.009-1.523,2.514-1.514,4.103
		c-0.02,9.34-0.139,18.677-0.35,28.018c-0.047,2.336-0.127,4.678-0.188,7.025c-0.043,1.385-0.063,2.078-0.105,3.467
		c-0.018,0.896,0.114,1.781,0.399,2.592c0.559,1.621,1.734,2.924,3.234,3.467c0.372,0.139,0.764,0.232,1.168,0.279
		c0.203,0.021,0.404,0.033,0.611,0.033c0.12,0,0.18-0.004,0.299-0.008c0.139-0.01,0.21-0.016,0.354-0.029
		c1.217-0.119,1.827-0.178,3.044-0.301c8.134-0.818,16.255-1.701,24.368-2.703c4.066-0.518,8.125-1.063,12.183-1.625
		c2.01-0.289,4.027-1.301,5.455-2.709C69.139,65.266,69.979,63.51,69.977,61.834z"/>
	<path fill="#FAAF3B" d="M25.689,25.713c1.703,0.058,3.41,0.167,5.116,0.254c2.047,0.134,3.069,0.203,5.117,0.344
		c3.414,0.236,6.823,0.53,10.232,0.834c3.412,0.312,6.824,0.65,10.232,1.009c1.023,0.109,1.531,0.159,2.559,0.272
		c1.033,0.108,2.145,0.413,3.156,0.878c2.037,0.928,3.768,2.496,4.678,4.287c0.461,0.889,0.723,1.836,0.76,2.764
		c0.029,0.867,0.041,1.302,0.072,2.166c0.039,1.712,0.057,2.568,0.102,4.273c0.072,2.847,0.115,5.688,0.166,8.528
		c0.018,1.705,0.029,2.553,0.051,4.254c0.018,1.713,0.027,2.568,0.045,4.281c0.004,0.947-0.24,1.959-0.689,2.908
		c-0.451,0.955-1.119,1.869-1.945,2.674c-0.826,0.813-1.818,1.516-2.902,2.061c-1.08,0.551-2.262,0.928-3.424,1.104
		c-3.41,0.5-6.82,1-10.235,1.494c-3.408,0.479-6.818,0.951-10.232,1.422c-3.408,0.457-6.818,0.914-10.232,1.338
		c-1.023,0.127-1.534,0.191-2.558,0.32c-0.173,0.021-0.189,0.025-0.384,0.043c-0.165,0.014-0.29,0.021-0.434,0.025
		c-0.279,0.01-0.557,0.004-0.834-0.018c-0.552-0.045-1.094-0.146-1.609-0.32c-2.075-0.678-3.744-2.395-4.582-4.654
		c-0.419-1.123-0.635-2.379-0.626-3.635c0.031-1.201,0.046-1.803,0.078-2.996c0.067-2.365,0.1-3.543,0.167-5.904
		c0.125-3.926,0.261-7.85,0.406-11.775c0.16-3.906,0.332-7.813,0.524-11.72c0.107-2.14,0.994-4.099,2.354-5.282
		C22.177,25.76,23.979,25.329,25.689,25.713c-0.854-0.033-1.678,0.116-2.421,0.439s-1.4,0.816-1.93,1.447
		c-1.076,1.24-1.616,3.003-1.517,4.763c0.192,3.877,0.363,7.755,0.524,11.633c0.144,3.863,0.281,7.722,0.406,11.582
		c0.067,2.314,0.1,3.465,0.167,5.775c0.031,1.139,0.047,1.709,0.08,2.844c0.04,0.689,0.188,1.35,0.45,1.934
		c0.513,1.172,1.472,2.023,2.574,2.326c0.274,0.074,0.555,0.123,0.843,0.137c0.144,0.008,0.287,0.008,0.434,0
		c0.067-0.004,0.156-0.014,0.203-0.018c0.02-0.004,0.217-0.029,0.253-0.037c1.023-0.145,1.534-0.213,2.558-0.357
		c3.409-0.488,6.821-0.938,10.232-1.391c3.414-0.436,6.825-0.869,10.232-1.307c3.415-0.408,6.825-0.82,10.235-1.232
		c1.078-0.119,2.125-0.617,2.895-1.363c0.385-0.371,0.695-0.799,0.902-1.244c0.215-0.451,0.32-0.904,0.332-1.395
		c0.043-3.521,0.061-5.285,0.102-8.799c0.045-2.942,0.088-5.88,0.16-8.815c0.043-1.759,0.063-2.64,0.107-4.4
		c0.025-0.863,0.037-1.298,0.066-2.162c0.006-0.516-0.096-1.038-0.32-1.542c-0.436-1.005-1.334-1.945-2.475-2.518
		c-0.572-0.29-1.168-0.482-1.838-0.58c-1.027-0.152-1.535-0.225-2.559-0.377c-3.416-0.504-6.826-1.037-10.232-1.589
		c-3.417-0.554-6.829-1.135-10.232-1.759c-2.048-0.377-3.07-0.569-5.117-0.954C29.099,26.41,27.392,26.083,25.689,25.713z"/>
	<path fill="#FFF0A3" d="M60.867,57.971c0,2.553-2.354,4.871-5.256,5.172c-8.923,0.922-17.844,1.852-26.763,2.771
		c-2.901,0.301-5.257-2.063-5.257-5.281c0-8.291,0-16.583,0-24.875c0-3.218,2.356-5.598,5.257-5.314
		c8.919,0.867,17.84,1.734,26.763,2.601c2.902,0.283,5.256,2.583,5.256,5.14C60.867,44.778,60.867,51.377,60.867,57.971z"/>
	<g>
		<path fill="#B54926" d="M59.424,69.822c0,0,0.18,0.25,0.496,0.684c0.16,0.219,0.379,0.465,0.611,0.752
			c0.219,0.297,0.52,0.596,0.826,0.936c0.316,0.33,0.668,0.686,1.045,1.041c0.391,0.352,0.797,0.719,1.248,1.063
			c0.434,0.371,0.928,0.693,1.406,1.043c0.504,0.311,1.002,0.648,1.537,0.92c0.518,0.305,1.068,0.541,1.598,0.791
			c0.547,0.207,1.074,0.449,1.609,0.6c0.262,0.08,0.523,0.158,0.777,0.238c0.258,0.063,0.512,0.119,0.754,0.178
			c0.486,0.131,0.967,0.174,1.396,0.246c0.432,0.08,0.838,0.072,1.186,0.105c0.354,0.037,0.662,0.029,0.916,0.025
			c0.508-0.012,0.793-0.012,0.793-0.012v2.039c0,0-0.322-0.029-0.896-0.082c-0.281-0.023-0.623-0.051-1.014-0.131
			c-0.385-0.08-0.83-0.121-1.299-0.254c-0.471-0.131-0.979-0.232-1.5-0.432c-0.264-0.092-0.529-0.182-0.801-0.275
			c-0.268-0.113-0.537-0.23-0.813-0.35c-0.559-0.217-1.092-0.533-1.648-0.811c-0.535-0.328-1.086-0.637-1.594-1.01
			c-0.529-0.346-1.018-0.746-1.498-1.127c-0.461-0.412-0.934-0.795-1.34-1.217c-0.422-0.402-0.797-0.822-1.156-1.223
			c-0.352-0.398-0.664-0.795-0.953-1.156c-0.268-0.381-0.539-0.711-0.734-1.033c-0.201-0.32-0.398-0.584-0.529-0.816
			C59.58,70.09,59.424,69.822,59.424,69.822z"/>
	</g>
	<path fill="#B54926" d="M81.982,81.875c3.223,0,6.303-0.254,9.156-0.715c-1.785-3.221-5.217-5.4-9.156-5.4
		c-3.943,0-7.379,2.18-9.154,5.4C75.674,81.621,78.762,81.875,81.982,81.875z"/>
	<path fill="#FFFFFF" d="M80.902,78.963h-6.449c-0.27,0.279-0.523,0.576-0.764,0.889h8.111v-0.445c0-1.285-0.355-2.504-1.031-3.57
		c-0.326,0.033-0.645,0.084-0.963,0.152C80.443,76.865,80.82,77.881,80.902,78.963z"/>
</g>
</svg>
