<?xml version="1.0" encoding="utf-8"?>
<!-- Generator: Adobe Illustrator 18.1.0, SVG Export Plug-In . SVG Version: 6.00 Build 0)  -->
<svg version="1.0" id="Layer_1" xmlns="http://www.w3.org/2000/svg" xmlns:xlink="http://www.w3.org/1999/xlink" x="0px" y="0px"
	 viewBox="0 0 150 150" enable-background="new 0 0 150 150" xml:space="preserve">
<g>
	<path fill="none" d="M75.7,126.9c1-0.4,2-1,3-1.5c0-1.1,0-2.1,0-3.2c-0.9,0.5-1.7,1-2.6,1.4C76,124.6,75.8,125.8,75.7,126.9z"/>
	<path fill="none" d="M60.3,119.9c-4.2-17.8-9.2-28.3-9.2-28.3c-0.5-0.9-1.1-1.7-1.6-2.6C48.4,103.4,52.7,114.6,60.3,119.9z"/>
	<path fill="none" d="M62,127.9c-0.3-1.3-0.5-2.6-0.8-3.9c-9.6-4.5-15.6-19.4-13.4-37.7c-0.7-1.1-1.5-2.2-2.2-3.2
		C42.6,105,49.1,123.8,62,127.9z"/>
	<path fill="none" d="M66.9,125.4c0,1.2,0,2.3-0.1,3.3c0.7,0,1.4,0,2.1,0c-0.1-1.1-0.2-2.2-0.3-3.3
		C68.1,125.5,67.5,125.5,66.9,125.4z"/>
	<path fill="none" d="M86.6,114.6c6.4-6.5,12-16.4,15.3-28.2c-0.1,0.3-0.1,0.5-0.2,0.8c-3.2,12-8.9,22.1-15.5,28.9
		c-0.4,1.4-0.7,2.9-1.1,4.4c7.9-7.3,14.8-18.9,18.5-32.8c1.1-4.2,1.8-8.3,2.3-12.3c-4,4.6-7.9,9.9-11.4,16.1
		C94.5,91.6,90.5,100,86.6,114.6z"/>
	<path fill="#035BA9" d="M76.4,121.7C84.4,66.9,98.8,7,98.8,7C85.8,31.8,74.7,59,74.7,59C59,24,50.5,8.6,50.5,8.6
		c8.9,15.9,14.8,72.9,18,114.4C71.1,123.3,73.8,122.8,76.4,121.7z"/>
	<path fill="#035BA9" d="M68.7,125.4c0.1,1.1,0.2,2.2,0.3,3.3c2.2-0.2,4.5-0.8,6.8-1.8c0.1-1.1,0.3-2.3,0.5-3.4
		C73.7,124.6,71.2,125.3,68.7,125.4z"/>
	<path fill="#035BA9" d="M74.7,34.1c4.9,0,8.9-4,8.9-8.9c0-4.9-4-9-8.9-9c-4.9,0-8.9,4-8.9,9C65.7,30.1,69.7,34.1,74.7,34.1z"/>
	<path fill="#58595B" d="M61.2,124c-0.3-1.4-0.6-2.8-0.9-4.1c-7.5-5.3-11.9-16.5-10.8-30.9c-0.5-0.9-1.1-1.8-1.6-2.7
		C45.6,104.6,51.7,119.6,61.2,124z"/>
	<path fill="#58595B" d="M101.9,86.4C98.6,98.2,93,108,86.6,114.6c-0.1,0.5-0.3,1-0.4,1.6c6.6-6.8,12.3-16.9,15.5-28.9
		C101.8,87,101.9,86.7,101.9,86.4z"/>
	<path fill="#58595B" d="M66.9,125.4c0.6,0,1.2,0,1.8,0c2.5-0.1,5-0.8,7.5-1.9c0.9-0.4,1.7-0.9,2.6-1.4c0-0.5,0-1,0.1-1.5
		c-0.8,0.4-1.6,0.8-2.4,1.1c-2.6,1.1-5.3,1.5-7.9,1.3c-0.5-0.1-1.1-0.2-1.6-0.3C66.9,123.7,66.9,124.5,66.9,125.4z"/>
	<path fill="#58595B" d="M75.7,126.9c-2.3,1-4.5,1.6-6.8,1.8c-0.7,0.1-1.4,0.1-2.1,0c-0.3,8.2-1.3,13.9-1.8,16.2
		c1.7,0,3.4-0.1,5-0.5c1.2-0.3,2.4-0.6,3.6-1.1c2.1-0.8,4.1-1.9,6.2-3.2c-0.5-3.6-1-8.6-1-14.9C77.7,126,76.7,126.5,75.7,126.9z"/>
	<path fill="#58595B" d="M105.9,75.5c-0.5,4-1.2,8.1-2.3,12.3c-3.8,13.9-10.6,25.5-18.5,32.8c-1.3,5.4-2.5,11.6-3.4,18.3
		c10.6-7.9,20.1-22.6,25-40.9c2.5-9.3,3.5-18.4,3.2-26.8C108.6,72.5,107.3,74,105.9,75.5z"/>
	<path fill="#58595B" d="M45.6,83.1c-0.6-0.9-1.2-1.8-1.9-2.6c0,0.1-0.1,0.3-0.1,0.4c-8.2,30.3-0.7,58.8,16.7,63.5
		c1.4,0.4,2.8,0.5,4.2,0.6c-0.7-6.1-1.6-11.8-2.6-17C49.1,123.8,42.6,105,45.6,83.1z"/>
	<path fill="#035BA9" d="M86.2,116.1c0.1-0.5,0.3-1,0.4-1.6c3.9-14.6,7.9-23,7.9-23c3.5-6.2,7.4-11.6,11.4-16.1c1.3-1.5,2.7-3,4-4.3
		c14.8-14.9,29.5-19.6,29.5-19.6c-11.6,2.2-22.8,6.8-30.5,10.4c-0.9,0.5-1.9,0.9-2.7,1.3c-4.5,2.2-7.2,3.8-7.2,3.8
		c1.9-5.3,3.8-10.3,5.6-14.6c0.3-0.8,0.7-1.6,1-2.4c3.6-8.8,6.4-14.5,6.4-14.5c-2.9,3.7-5.6,7.5-8.1,11.3c-0.2,0.4-0.5,0.7-0.7,1.1
		C89.2,70.3,82.9,92.8,82.9,92.8c-2.7,10.4-3.9,19.9-4.1,27.8c0,0.5-0.1,1-0.1,1.5c0,1.1,0,2.2,0,3.2c0,6.2,0.5,11.3,1,14.9
		c0.5,3.8,1.1,5.9,1.1,5.9c0.3-2.5,0.6-4.9,0.9-7.3c0.9-6.7,2.1-12.8,3.4-18.3C85.5,119,85.8,117.6,86.2,116.1z"/>
	<path fill="#035BA9" d="M107.7,50.3c0,3.3,2.7,6,6,6c3.4,0,6-2.7,6-6s-2.7-6-6-6C110.4,44.3,107.7,47,107.7,50.3z"/>
	<path fill="#035BA9" d="M66.9,125.4c0-0.9,0-1.7,0-2.7c-0.2-8.4-1.2-18.6-4.2-30c0,0-3-10.9-9.6-25c-0.1-0.1-0.1-0.2-0.1-0.3
		c-0.7-1.4-1.3-2.7-2-4.2c-0.1-0.2-0.2-0.4-0.3-0.7c-4.4-8.8-10.1-18.3-17.1-27.2c0,0,6.7,13.9,13,31.5c0,0-19.5-11.6-40.3-15.5
		c0,0,20.7,6.7,37.7,29c0.6,0.8,1.2,1.7,1.9,2.6c0.8,1.1,1.5,2.1,2.2,3.2c0.5,0.8,1.1,1.8,1.6,2.7c0.5,0.9,1.1,1.7,1.6,2.6
		c0,0,5,10.5,9.2,28.3c0.3,1.3,0.6,2.7,0.9,4.1c0.3,1.3,0.5,2.6,0.8,3.9c1,5.2,1.9,10.9,2.6,17c0,0.4,0.1,0.7,0.1,1.1
		c0,0,0.1-0.4,0.3-1.1c0.5-2.3,1.6-8,1.8-16.2C66.9,127.7,66.9,126.6,66.9,125.4z"/>
	<path fill="#035BA9" d="M31.8,56.3c3.3,0,6-2.7,6-6s-2.7-6-6-6c-3.3,0-6,2.7-6,6S28.5,56.3,31.8,56.3z"/>
</g>
</svg>
