<?xml version="1.0" encoding="utf-8"?>
<!-- Generator: Adobe Illustrator 18.1.0, SVG Export Plug-In . SVG Version: 6.00 Build 0)  -->
<svg version="1.1" id="Layer_1" xmlns="http://www.w3.org/2000/svg" xmlns:xlink="http://www.w3.org/1999/xlink" x="0px" y="0px"
	 viewBox="0 0 150 150" enable-background="new 0 0 150 150" xml:space="preserve">
<g>
	<path fill="#AB529F" d="M32.8,50.5c1.8,5,8.5,18.8,21.8,7.5c0,0-5.3-1-9.5-8.5c-4.3-7.5-13.5-10-18.1-6.8
		C27,42.8,31,45.5,32.8,50.5z"/>
	<path fill="#AB529F" d="M57.2,53.2c-11-6.5-10.8-16.8-10-22.1c0.8-5.3,1.8-10-1-10c-2.8,0-8.3,2.5-6.8,14.5
		C40.9,47.7,57.2,53.2,57.2,53.2z"/>
	<path fill="#AB529F" d="M64.5,55.2c10.5,0,17.8-12.5,17.8-12.5c-25.1,8.5-31.8-11.5-31.8-11.5C50.2,33.1,53.9,55.2,64.5,55.2z"/>
	<path fill="#AB529F" d="M66.5,38.6c0,0-7.5-6.8-9-12.3c-1.5-5.5,9.5-9.5,10.3-9.3c0.8,0.3-8-3-12.5,0.5
		C50.7,21.1,50.4,37.9,66.5,38.6z"/>
	<path fill="#AB529F" d="M112.9,122.4c0,0-12.6-7.5-3.2-23.3c0,0-9.6,3.1-11.1,10.3C97,116.5,111.5,122.3,112.9,122.4z"/>
	<path fill="#AB529F" d="M82.8,14.1C81,11.3,70,9,61.5,13.8c0,0,8.5,0,17.6,7.3C79,21.1,84.5,16.8,82.8,14.1z"/>
	<path fill="#AB529F" d="M124.9,112.7c0.1,0.5-4.3,7.5-7.8,5.6c-3.5-1.8-7-7.9-7-7.9c-1.8,11,9.6,13.3,12.7,10.7
		C125.8,118.6,124.9,112.2,124.9,112.7z"/>
	<path fill="#AB529F" d="M99.6,123.4c-4.5-4-4.4-7.7-4.4-7.7c-9.6,7.4-1.2,14,1.9,15.9c3.1,1.9,4.4,5,4.4,5
		C104.4,134.1,104,127.4,99.6,123.4z"/>
	<path fill="#AB529F" d="M129.2,103c-1.6-1.6-5.3,1.5-5.3,1.5c3.6,7.2,2.4,13,2.4,13C130.7,112.4,130.8,104.5,129.2,103z"/>
	<path fill="#AB529F" d="M112.4,124.6c-3.7-0.3-10.7-1.6-13.5-10c0,0,1.4,11.9,9.3,14.7c8,2.8,10.5-0.6,10.9-2.5
		C119.5,124.9,116.1,124.9,112.4,124.6z"/>
	<path fill="#AB529F" d="M123.5,109.2l-2.6-0.9c-0.7,5.7-5,6.6-5,6.6C122.8,119.4,123.5,109.2,123.5,109.2z"/>
	<path fill="#AB529F" d="M122.5,106c0,0-8.3-2.1-10.7,0c-2.4,2.2,2.5,7.3,3.7,7.7C115.4,113.7,117.5,107.6,122.5,106z"/>
	<path fill="#AB529F" d="M77.8,51.9c0,0,11.8-5.3,16.3,3.5l10.5-12.5c0,0-2.8-5.3-9-5.3C89.3,37.6,81.5,47.9,77.8,51.9z"/>
	<path fill="#AB529F" d="M102.7,100.8c3.3-2,11.4-5.8,12.3-10c0.9-4.3-2.3-6.9-2.3-6.9l-10.1,5.3C108,93.6,102.7,100.8,102.7,100.8z
		"/>
	<path fill="#AB529F" d="M124.3,103.2c0,0,2.1-10.4-3.1-11.4c-5.1-0.9-12,10.1-12.2,15.5C109,107.4,114.2,100.6,124.3,103.2z"/>
	<path fill="#AB529F" d="M85.3,68.2c4.3-2.3,12-14.3-12-12.3C60.1,57,54,55.8,51.1,54.5c2.9,2.4,8.6,5.9,17.1,7
		C81.5,63.2,81,70.5,85.3,68.2z"/>
	<path fill="#AB529F" d="M72.7,24.1l-0.5-4c0,0-14.5-2-10.3,9C62,29.1,64.5,23.3,72.7,24.1z"/>
	<path fill="#AB529F" d="M73.3,37.6c3.8-2.8,3.3-15,3.3-15c-3.8,6.5-13,7.5-13,7.5C63.7,31.9,69.5,40.4,73.3,37.6z"/>
	<path fill="#AB529F" d="M70.5,41.1c7.8,1.3,25.3-5,25.6-12.5c0.3-7.5-15-7.8-15-7.8C81.5,35.9,70.5,41.1,70.5,41.1z"/>
	<path fill="#AB529F" d="M92.7,93.4c-2.2,2.6,2.9,3.3,2.1,12.6c-0.5,6,1.1,10.3,2.3,12.6c-0.5-2.1-0.4-6.4,2.2-15.2
		C104.2,87.3,94.9,90.8,92.7,93.4z"/>
	<path fill="#718F40" d="M92.1,110.9c-15-8.2-27.5-6-36.5-1.2c6.9-11.2,10.7-26.3,4.8-45.9l-2.1-1.2C34.9,59,34.4,82.5,34.4,82.5
		C54,80.8,57.5,68.9,58.2,64.3l0.9-0.1c0,0,8.5,29.7-12.3,51.6c-1.2,1.1-2.3,2.2-3.3,3.2c-5.5,4.9-12.7,9.3-22.1,12.7l3.3,4.2
		c0,0,7.3-2.9,15.6-9.4l0.1,0.1c0.1-0.1,0.1-0.2,0.2-0.3c4.5-3.6,9.4-8.2,13.4-14c18.2-11.6,37.7-0.5,37.7-0.5l-0.2,0.6
		c-3.2-0.2-11.8,0.4-15.8,13.5c0,0,16,3,17-13.3L92.1,110.9z"/>
	<path fill="#718F40" d="M90.4,109.8c0,0,6.9-10.4-6.8-20.6C83.6,89.2,75.3,103.3,90.4,109.8z"/>
	<path fill="#718F40" d="M88.4,82.4c-10.2-22.3-27-15.8-27-15.8C66,89.8,88.4,82.4,88.4,82.4z"/>
</g>
</svg>
