<?xml version="1.0" encoding="utf-8"?>
<!-- Generator: Adobe Illustrator 18.1.0, SVG Export Plug-In . SVG Version: 6.00 Build 0)  -->
<svg version="1.1" id="Layer_1" xmlns="http://www.w3.org/2000/svg" xmlns:xlink="http://www.w3.org/1999/xlink" x="0px" y="0px"
	 viewBox="0 0 150 150" enable-background="new 0 0 150 150" xml:space="preserve">
<g>
	<path fill="#004E4F" d="M76,3.7L15,38.8v70.3l61,35.2l61-35.2V38.8L76,3.7z M130,105.7l-54.5,31.7L21,105.7V42.3l54.5-31.7
		L130,42.3V105.7z"/>
	<path fill="#6552A1" d="M21,42.3v63.3l54.5,31.7l54.5-31.7V42.3L75.5,10.7L21,42.3z M116,102h-12V60.7c0-0.4-0.5-0.7-1-0.7H82.8
		c-0.4,0-0.8,0.3-0.8,0.7V102H70V60.7c0-0.4-0.2-0.7-0.6-0.7H49.1c-0.4,0-1.1,0.3-1.1,0.7V102H36V48h67c3.5,0,6.6,1.2,9.1,3.7
		c2.5,2.5,3.9,5.5,3.9,9V102z"/>
	<path fill="#004E4F" d="M103,48H36v54h12V60.7c0-0.4,0.7-0.7,1.1-0.7h20.3c0.4,0,0.6,0.3,0.6,0.7V102h12V60.7
		c0-0.4,0.4-0.7,0.8-0.7H103c0.5,0,1,0.3,1,0.7V102h12V60.7c0-3.5-1.4-6.5-3.9-9C109.6,49.2,106.5,48,103,48z"/>
</g>
</svg>
