<?xml version="1.0" encoding="utf-8"?>
<!-- Generator: Adobe Illustrator 14.0.0, SVG Export Plug-In . SVG Version: 6.00 Build 43363)  -->
<!DOCTYPE svg PUBLIC "-//W3C//DTD SVG 1.1//EN" "http://www.w3.org/Graphics/SVG/1.1/DTD/svg11.dtd">
<svg version="1.1" id="Layer_1" xmlns="http://www.w3.org/2000/svg" xmlns:xlink="http://www.w3.org/1999/xlink" x="0px" y="0px"
	 width="100px" height="100px" viewBox="0 0 100 100" enable-background="new 0 0 100 100" xml:space="preserve">
<g>
	<path fill-rule="evenodd" clip-rule="evenodd" fill="#FFE400" d="M53.453,11.333c15.333,0,28.849,7.783,36.819,19.605
		C79.79,29.124,66.586,33.887,65.531,45.89c-0.134,1.886,0.454,3.696,0.315,5.506c-0.416,4.775-6.93,1.055-8.786-0.205
		c-9.932-6.905-11.625-19.807-8.094-30.676c-0.6,0.353-1.163,0.755-1.709,1.201c-3.586,11.155-1.738,23.057,7.01,31.255
		c4.742,4.166,11.878,6.316,11.122,13.927c-0.938,7.207-6.46,12.448-12.739,15.447c-12.851,5.485-26.757,2.125-38.084-5.232
		c-3.498-6.351-5.493-13.634-5.493-21.396C9.073,31.208,28.947,11.333,53.453,11.333z"/>
	<path fill-rule="evenodd" clip-rule="evenodd" fill="#52C2C1" d="M88.131,28.024c0.752,0.936,1.47,1.911,2.142,2.915
		C79.79,29.124,66.586,33.887,65.531,45.89c-0.134,1.886,0.454,3.696,0.315,5.506c-0.416,4.775-6.93,1.055-8.786-0.205
		c-9.932-6.905-11.625-19.807-8.094-30.676c-0.6,0.353-1.163,0.755-1.709,1.201c-3.586,11.155-1.738,23.057,7.01,31.255
		c4.742,4.166,11.878,6.316,11.122,13.927c-0.938,7.207-6.46,12.448-12.739,15.447c-12.851,5.485-26.757,2.125-38.084-5.232
		c-0.562-1.017-1.079-2.059-1.562-3.116c-0.482-2.73-0.734-5.536-0.734-8.4c0-26.194,21.095-47.434,47.11-47.434
		C70.201,18.162,80.177,21.841,88.131,28.024z"/>
	<path fill-rule="evenodd" clip-rule="evenodd" fill="#FFFFFF" d="M63.667,47.729v0.004c-0.03,0.075-0.059,0.155-0.089,0.231
		c-0.033,0.072-0.066,0.146-0.101,0.218c-0.033,0.075-0.066,0.151-0.109,0.218c-0.033,0.076-0.07,0.143-0.113,0.21
		c-0.083,0.156-0.025,0.051-0.117,0.202c-0.097,0.155-0.037,0.059-0.135,0.197c-0.1,0.139-0.033,0.05-0.143,0.188
		c-0.105,0.135-0.037,0.056-0.151,0.185c-0.101,0.118-0.037,0.047-0.154,0.168c-0.118,0.118-0.047,0.059-0.174,0.168
		c-0.116,0.105-0.046,0.046-0.175,0.151c-0.126,0.104-0.06,0.049-0.189,0.142l-0.03,0.025V35.558l0.16,0.16
		c0.134,0.159,0.055,0.059,0.172,0.21c0.122,0.16,0.042,0.05,0.16,0.21c0.051,0.071,0.1,0.143,0.146,0.218
		c0.047,0.072,0.089,0.143,0.135,0.218c0.042,0.076,0.084,0.151,0.126,0.227c0.041,0.067,0.079,0.151,0.117,0.227
		s0.072,0.151,0.105,0.227c0.038,0.076,0.071,0.16,0.101,0.235c0.03,0.076,0.063,0.151,0.092,0.235
		c0.03,0.076,0.06,0.151,0.089,0.231c0.025,0.08,0.05,0.164,0.08,0.244c0.025,0.08,0.046,0.155,0.071,0.239
		c0.029,0.084,0.05,0.16,0.072,0.244c0.021,0.084,0.041,0.16,0.066,0.244c0.017,0.084,0.037,0.168,0.059,0.244
		c0.017,0.084,0.034,0.167,0.05,0.251c0.022,0.084,0.038,0.168,0.056,0.248c0.016,0.08,0.028,0.164,0.046,0.247
		c0.013,0.084,0.029,0.169,0.042,0.253c0.017,0.083,0.029,0.167,0.041,0.251c0.013,0.08,0.025,0.164,0.035,0.249
		c0.016,0.083,0.024,0.167,0.033,0.247c0.008,0.084,0.021,0.168,0.029,0.248c0.008,0.084,0.017,0.164,0.029,0.248
		c0.004,0.083,0.012,0.167,0.021,0.256l0.021,0.247l0.018,0.248l0.016,0.239l0.008,0.194c0.702-2.579,1.991-4.931,3.865-6.964
		c5.581-6.048,15.186-8.005,23.061-6.484l0.874,0.168l0.433,0.781c0.298,0.529,0.554,1.084,0.748,1.663
		c0.444,1.336-0.622,2.545-1.928,2.512c-0.071,0-0.139-0.009-0.21-0.009c-0.207-0.017-0.407-0.025-0.618-0.042
		c-0.597-0.042-1.201-0.084-1.802-0.126c-0.748-0.046-1.608-0.139-2.353-0.135c-1.579,0.076-3.171,0.328-4.69,0.765
		c-5.745,1.629-10.764,5.732-9.987,12.229c0.088,0.605,0.243,1.193,0.429,1.765c1.939,5.921,3.611,10.785,2.81,17.156l-0.004,0.025
		v0.029c-1.109,7.241-5.595,13.111-11.357,17.396l-0.037,0.021l-0.034,0.024c-0.457,0.312-0.924,0.609-1.395,0.899V71.45
		c0.753-1.461,1.281-3.058,1.509-4.775c0.159-1.671-0.118-3.188-1.059-4.606c-0.139-0.202-0.29-0.395-0.45-0.592v-9.909
		c0.668,0.21,1.525,0.42,1.819,0.235c0.084-0.092,0.126-0.44,0.139-0.566c0.013-0.134,0.017-0.269,0.017-0.407
		c0.004-0.731-0.109-1.479-0.197-2.209C63.729,48.322,63.692,48.027,63.667,47.729z M61.986,50.039l-0.159,0.11
		c-0.134,0.08-0.062,0.042-0.205,0.118c-0.131,0.07-0.063,0.034-0.211,0.108c-0.134,0.063-0.066,0.03-0.205,0.084
		c-0.135,0.059-0.068,0.033-0.218,0.084c-0.14,0.046-0.068,0.025-0.215,0.059c-0.151,0.042-0.08,0.024-0.223,0.055
		c-0.151,0.028-0.075,0.016-0.227,0.041c-0.139,0.021-0.063,0.01-0.22,0.021c-0.049,0.01-0.074,0.01-0.074,0.01
		c0.39,0.205,0.802,0.395,1.201,0.562c0.142,0.06,0.424,0.169,0.755,0.277v9.909c-1.503-1.854-3.956-3.365-5.842-4.676
		c-1.079-0.751-2.146-1.528-3.138-2.394l-0.024-0.025l-0.021-0.017c-9.29-8.71-11.331-21.39-7.517-33.238l0.172-0.537l0.441-0.354
		c0.613-0.504,1.256-0.961,1.936-1.369l4.355-2.595l-1.57,4.83c-2.713,8.35-2.192,18.094,3.352,24.826
		c-0.235-0.693-0.379-1.428-0.462-2.143c-0.004-0.07-0.013-0.139-0.021-0.206c-0.004-0.062-0.008-0.125-0.017-0.192
		c-0.004-0.067-0.008-0.135-0.013-0.202c-0.004-0.067-0.008-0.143-0.013-0.21l-0.008-0.185c-0.005-0.075-0.005-0.143-0.005-0.21
		c-0.003-0.067-0.003-0.134-0.003-0.201c0-0.072,0-0.135,0-0.207c0.003-0.072,0.003-0.139,0.003-0.21
		c0.005-0.071,0.009-0.138,0.013-0.205c0-0.067,0.005-0.134,0.009-0.202c0.055-0.916,0.214-1.831,0.491-2.705
		c0.025-0.067,0.046-0.134,0.071-0.201c0.025-0.071,0.047-0.135,0.072-0.202s0.054-0.134,0.084-0.21
		c0.024-0.063,0.05-0.126,0.08-0.189c0.028-0.071,0.054-0.13,0.087-0.197c0.034-0.067,0.063-0.134,0.098-0.193
		c0.028-0.072,0.062-0.134,0.101-0.202c0.033-0.063,0.071-0.126,0.109-0.193c0.037-0.059,0.075-0.126,0.113-0.185
		c0.038-0.067,0.079-0.126,0.121-0.189c0.042-0.063,0.081-0.122,0.127-0.181c0.041-0.067,0.088-0.122,0.134-0.185
		c0.051-0.059,0.092-0.118,0.143-0.176c0.05-0.059,0.097-0.113,0.147-0.168c0.051-0.059,0.104-0.117,0.159-0.176
		c0.055-0.051,0.109-0.101,0.164-0.16c0.055-0.05,0.112-0.101,0.172-0.155c0.055-0.046,0.117-0.101,0.177-0.147
		c0.147-0.122,0.051-0.05,0.193-0.146c0.462-0.34,0.97-0.609,1.511-0.786c0.232-0.071,0.094-0.033,0.308-0.084
		c0.218-0.059,0.088-0.025,0.307-0.071c0.227-0.039,0.105-0.021,0.315-0.042c0.218-0.021,0.108-0.013,0.318-0.021
		c1.076-0.017,2.028,0.412,2.771,1.168V50.039L61.986,50.039z M61.986,71.45v12.822c-5.187,3.188-10.957,5.011-17.072,5.465
		c-10.545,0.771-21.167-2.597-30.054-8.145l-0.403-0.248l-0.235-0.41c-0.63-1.076-1.256-2.16-1.878-3.243l-4.019-7.022l6.736,4.485
		c6.62,4.41,14.376,7.534,22.377,7.954c4.973,0.257,9.84-0.549,14.422-2.502C56.026,78.61,59.892,75.532,61.986,71.45z"/>
	<linearGradient id="SVGID_1_" gradientUnits="userSpaceOnUse" x1="15.272" y1="54.2246" x2="92.6201" y2="54.2246">
		<stop  offset="0.0385" style="stop-color:#211D21"/>
		<stop  offset="1" style="stop-color:#000000"/>
	</linearGradient>
	<path fill-rule="evenodd" clip-rule="evenodd" fill="url(#SVGID_1_)" d="M70.949,47.217c-1.155-9.55,8.194-14.804,16.526-15.162
		c0.723-0.008,5.157,0.336,5.145,0.302c-0.151-0.461-0.364-0.906-0.604-1.335c-10.559-2.041-24.14,2.688-25.211,14.868
		c-0.136,1.886,0.453,3.696,0.311,5.506c-0.32,3.701-4.301,2.307-6.942,0.904v4.086c3.679,2.54,7.018,5.187,6.483,10.512
		c-0.6,4.637-3.103,8.467-6.483,11.399v5.534c1.154-0.604,2.297-1.284,3.41-2.04c5.359-3.974,9.579-9.417,10.609-16.153
		c0.764-6.081-0.882-10.689-2.73-16.321C71.239,48.629,71.058,47.932,70.949,47.217L70.949,47.217z M60.173,48.662V36.339
		l0.017-0.004l0,0c0.059-0.013,0.117-0.021,0.172-0.029l0,0c0.056,0,0.104-0.009,0.164-0.009c0.588-0.008,1.066,0.248,1.466,0.693
		l0,0c0.033,0.038,0.066,0.08,0.104,0.126l0,0c0.034,0.046,0.067,0.088,0.105,0.13l0,0c0.028,0.05,0.059,0.101,0.092,0.143l0,0
		c0.034,0.05,0.063,0.101,0.098,0.151l0,0c0.025,0.055,0.054,0.109,0.084,0.16l0,0c0.029,0.05,0.058,0.109,0.083,0.168l0,0
		c0.03,0.05,0.059,0.109,0.084,0.168l0,0c0.025,0.059,0.047,0.118,0.072,0.176l0,0c0.028,0.063,0.054,0.126,0.075,0.185l0,0
		c0.025,0.067,0.046,0.126,0.067,0.193l0,0c0.024,0.063,0.047,0.126,0.067,0.193l0,0c0.021,0.067,0.041,0.134,0.062,0.201l0,0
		c0.017,0.068,0.038,0.135,0.055,0.202c0.021,0.067,0.037,0.138,0.055,0.209c0.021,0.067,0.033,0.139,0.051,0.21
		c0.017,0.072,0.037,0.144,0.05,0.215c0.013,0.072,0.03,0.146,0.043,0.214c0.016,0.076,0.028,0.151,0.046,0.227
		c0.013,0.067,0.025,0.142,0.037,0.218c0.013,0.075,0.021,0.151,0.034,0.226c0.012,0.076,0.021,0.143,0.033,0.223
		c0.009,0.071,0.021,0.147,0.029,0.223c0.008,0.076,0.018,0.151,0.025,0.228c0.013,0.075,0.021,0.151,0.025,0.226
		c0.008,0.076,0.016,0.151,0.025,0.228l0.017,0.226l0.017,0.223l0.013,0.223l0.013,0.223l0.009,0.213l0.008,0.218l0.005,0.21
		l0.003,0.21v0.206v0.197l-0.003,0.198l-0.005,0.194l-0.008,0.185l-0.005,0.18l-0.008,0.177l-0.013,0.159l-0.013,0.164l-0.013,0.156
		l-0.014,0.143l-0.016,0.134l-0.018,0.126c-0.003,0.042-0.008,0.084-0.016,0.122l-0.018,0.108c-0.008,0.038-0.017,0.072-0.021,0.097
		c-0.013,0.076-0.03,0.143-0.047,0.21c-0.013,0.067-0.029,0.134-0.046,0.193c-0.018,0.068-0.033,0.126-0.054,0.194
		c-0.018,0.059-0.035,0.118-0.056,0.177c-0.017,0.054-0.037,0.113-0.059,0.167s-0.042,0.109-0.062,0.164
		c-0.021,0.046-0.047,0.101-0.067,0.147c-0.025,0.051-0.047,0.102-0.071,0.151c-0.025,0.043-0.051,0.092-0.076,0.135
		c-0.025,0.042-0.05,0.083-0.08,0.126c-0.025,0.042-0.051,0.08-0.079,0.121c-0.025,0.038-0.051,0.076-0.08,0.114l0,0
		c-0.025,0.033-0.059,0.067-0.089,0.1l0,0c-0.028,0.034-0.059,0.067-0.088,0.093l0,0c-0.029,0.033-0.059,0.063-0.092,0.092l0,0
		c-0.03,0.03-0.063,0.059-0.093,0.084h-0.005c-0.028,0.025-0.059,0.05-0.092,0.075h-0.004c-0.029,0.021-0.063,0.042-0.097,0.068l0,0
		c-0.033,0.017-0.063,0.034-0.101,0.058l0,0c-0.034,0.017-0.067,0.035-0.104,0.051l0,0c-0.035,0.017-0.068,0.033-0.102,0.042l0,0
		c-0.037,0.016-0.075,0.034-0.105,0.042l0,0c-0.037,0.008-0.075,0.025-0.108,0.034l0,0c-0.033,0.008-0.076,0.017-0.114,0.025l0,0
		c-0.033,0.003-0.07,0.016-0.108,0.016l0,0c-0.038,0.009-0.076,0.009-0.113,0.013l0,0c-0.038,0.004-0.076,0.009-0.076,0.009h-0.033
		c-0.038,0.003-0.075,0.003-0.113,0l0,0c-0.043,0-0.08-0.005-0.118-0.009l0,0c-0.038-0.003-0.076-0.003-0.117-0.013l0,0
		c0,0-0.075-0.008-0.118-0.016l0,0c-0.038-0.008-0.075-0.013-0.117-0.025l0,0c-0.034-0.008-0.075-0.013-0.113-0.025l0,0
		c-0.042-0.013-0.08-0.025-0.118-0.034l0,0c-0.038-0.016-0.075-0.025-0.113-0.042l0,0H60.173z M60.173,52.3
		c-0.769-0.412-1.424-0.824-1.84-1.105C48.4,44.285,46.7,31.392,50.24,20.515c-0.602,0.353-1.164,0.755-1.709,1.201
		c-3.591,11.155-1.743,23.057,7.009,31.255c1.419,1.252,3.058,2.326,4.633,3.415V52.3L60.173,52.3z M60.173,78.297
		c-1.873,1.628-4.011,2.981-6.254,4.048c-13.062,5.569-27.215,2.012-38.647-5.603c0.622,1.083,1.243,2.158,1.869,3.234
		c13.02,8.122,29.281,11.078,43.032,3.854V78.297L60.173,78.297z M60.173,36.339v12.323l-0.114-0.046l0,0
		c-0.037-0.013-0.075-0.034-0.113-0.046l0,0c-0.041-0.022-0.079-0.042-0.117-0.059l0,0c-0.042-0.017-0.08-0.042-0.118-0.059l0,0
		c-0.037-0.025-0.075-0.046-0.113-0.067h-0.003c-0.038-0.025-0.076-0.046-0.11-0.072l0,0c-0.041-0.022-0.079-0.051-0.117-0.071l0,0
		c-0.038-0.025-0.075-0.059-0.113-0.084l0,0c-0.033-0.025-0.076-0.054-0.109-0.08l0,0c-0.038-0.03-0.075-0.063-0.113-0.092l0,0
		c-0.038-0.03-0.076-0.059-0.109-0.089l0,0c-0.034-0.034-0.07-0.067-0.108-0.101l0,0c-0.034-0.033-0.072-0.067-0.105-0.101l0,0
		c-0.033-0.033-0.067-0.067-0.105-0.1l0,0c-0.033-0.038-0.071-0.072-0.1-0.11l0,0c-0.035-0.033-0.072-0.076-0.105-0.109l0,0
		c-0.034-0.042-0.063-0.08-0.102-0.118l0,0c-0.029-0.037-0.059-0.075-0.096-0.116l0,0c-0.03-0.046-0.059-0.084-0.089-0.127l0,0
		c-0.033-0.042-0.062-0.08-0.097-0.126l0,0c-0.269-0.377-0.504-0.802-0.688-1.251c-0.235-0.579-0.404-1.297-0.487-2.074l0,0
		c-0.004-0.051-0.017-0.105-0.021-0.16l0,0c-0.005-0.059-0.009-0.118-0.013-0.167l0,0c-0.005-0.059-0.013-0.118-0.013-0.172l0,0
		c-0.009-0.056-0.009-0.114-0.009-0.173l0,0l-0.009-0.167l0,0c-0.004-0.063-0.004-0.118-0.004-0.176l0,0c0-0.059,0-0.118,0-0.177
		l0,0c0-0.059,0-0.118,0-0.177l0,0c0-0.058,0-0.108,0.004-0.175l0,0c0-0.059,0-0.114,0.005-0.173l0,0
		c0.004-0.058,0.004-0.113,0.008-0.172v-0.003c0.051-0.765,0.177-1.525,0.408-2.23l0,0c0.017-0.051,0.033-0.11,0.051-0.161l0,0
		c0.021-0.05,0.036-0.108,0.059-0.159l0,0c0.021-0.05,0.037-0.101,0.059-0.155l0,0c0.021-0.05,0.046-0.097,0.067-0.155l0,0
		c0.021-0.051,0.046-0.101,0.066-0.151l0,0c0.025-0.051,0.051-0.092,0.072-0.147l0,0c0.025-0.046,0.049-0.097,0.074-0.143l0,0
		c0.025-0.051,0.056-0.097,0.08-0.143l0,0c0.025-0.046,0.056-0.097,0.084-0.139l0,0c0.025-0.042,0.055-0.092,0.085-0.134l0,0
		c0.028-0.046,0.063-0.084,0.092-0.13l0,0c0.029-0.046,0.063-0.084,0.097-0.126l0,0c0.034-0.042,0.062-0.088,0.096-0.126l0,0
		c0.034-0.038,0.068-0.08,0.105-0.118l0,0c0.033-0.038,0.068-0.076,0.105-0.113h0.004c0.034-0.038,0.072-0.075,0.105-0.109l0,0
		c0.038-0.038,0.075-0.067,0.113-0.105h0.004c0.038-0.038,0.075-0.063,0.118-0.097l0,0c0.042-0.033,0.08-0.067,0.121-0.096
		c0.29-0.214,0.622-0.391,0.979-0.509c0.067-0.021,0.126-0.033,0.186-0.05l0,0L60.173,36.339z"/>
</g>
</svg>
