<?xml version="1.0" encoding="iso-8859-1"?>
<!-- Generator: Adobe Illustrator 13.0.0, SVG Export Plug-In . SVG Version: 6.00 Build 14948)  -->
<!DOCTYPE svg PUBLIC "-//W3C//DTD SVG 1.1//EN" "http://www.w3.org/Graphics/SVG/1.1/DTD/svg11.dtd">
<svg version="1.1" id="Layer_1" xmlns="http://www.w3.org/2000/svg" xmlns:xlink="http://www.w3.org/1999/xlink" x="0px" y="0px"
	 width="100px" height="100px" viewBox="0 0 100 100" enable-background="new 0 0 100 100" xml:space="preserve">
<g>
	<path fill="none" d="M36.092,52.113c0.172-0.646,0.374-1.266,0.448-2.007c0.027-0.363,0.043-0.491-0.33-0.559
		c0.131-0.761,0.748-2.404-0.098-2.781c0.693-3.307-0.481-7.064-1.188-10.263c-1.159,0.539-1.131-0.909-1.667-1.347
		c-0.438,0.303-0.684,0.801-0.892,1.34c-0.488-0.074-0.135-0.983-0.667-1.01c0.623,2.007-0.525,3.098-0.909,4.68
		c-0.499-0.215-0.714-0.693-0.882-1.232c-0.165,0.503-0.121,1.026-0.008,1.527c1.325,0.803,2.538,1.976,3.59,3.477
		c-0.087,0.007-0.175,0.026-0.276,0.054c-0.121,0.033-0.242,0.074-0.363,0.107l-0.155,0.007c-0.292,0.054-0.596,0.107-0.889,0.169
		c-0.182,0.013-0.357,0.026-0.545,0.047c-0.256-0.034-0.515-0.054-0.774-0.061c-0.155-0.211-0.315-0.399-0.477-0.581
		c-0.099,0.818-0.159,1.673-0.244,2.5c-0.605-0.714-1.057-1.576-1.371-2.508c-1.688-0.194-3.336-0.602-4.757-2.078
		c-0.115,0.384,0.606,0.552,0.539,1.051c-0.081,0.195-0.333,0.141-0.62,0.087c-0.249-0.047-0.525-0.101-0.72,0.013
		c0.454,0.62-0.243,1.011-0.047,1.59c4.222,2.875,7.502,6.147,11.226,10.04c0.015,0.011,0.048,0.047,0.072,0.07
		c0.722-0.27,1.458-0.535,2.202-0.799C36.344,52.84,36.31,52.394,36.092,52.113z"/>
	<path fill="#C5E4F9" d="M29.907,38.935c0.168,0.539,0.384,1.017,0.882,1.232c0.384-1.583,1.532-2.673,0.909-4.68
		c0.532,0.027,0.179,0.936,0.667,1.01c0.208-0.539,0.455-1.037,0.892-1.34c0.536,0.438,0.508,1.886,1.667,1.347
		c0.707,3.199,1.882,6.956,1.188,10.263c0.845,0.377,0.229,2.021,0.098,2.781c0.374,0.067,0.357,0.195,0.33,0.559
		c-0.074,0.741-0.276,1.36-0.448,2.007c0.218,0.28,0.252,0.727,0.196,1.534c0.884-0.313,1.785-0.62,2.697-0.924
		c-0.032-0.212-0.068-0.419-0.112-0.644c0.199-0.067,0.226-0.169,0.226-0.169v-0.013c-0.037-0.809-0.226-3.004-0.323-3.232
		c-0.821-4.546-1.629-8.445-3.286-12.492c0.131-0.499,0.808-0.451,0.774-1.111c0.428,0.027,0.73,0.754,1.007,0.559
		c0.286-0.323-0.145-0.781,0.118-0.997c0.354,1.906,1.512,3.003,2.771,4.02c0.118-0.505,0.138-1.125,0.34-1.562
		c0.202,0.862,0.471,1.656,0.525,2.673c0.185,0.135,0.364,0.27,0.525,0.411c0.142,0.074,0.276,0.148,0.411,0.222
		c0.239,0.101,0.478,0.195,0.721,0.303l0.107,0.061c0.108,0.041,0.216,0.067,0.323,0.101l0.209,0.087
		c-0.131-4.606-2.522-7.893-7.159-8.216c0.545-0.087,0.929-0.343,1.455-0.438c-0.141-0.377-0.579-0.471-0.774-0.788
		c1.316,0.761,2.468,0.25,4.118,0.014c-0.01-0.431-0.98-0.977-0.552-1.118c0.737,0.121,1.424,1.017,2.333,1.239
		c1.145,0.276,2.4,0.027,3.347,0.35c-1.724-3.407-8.586-4.983-10.809-0.936c0.465-4.646-2.263-7.084-7.104-6.828
		c1.34,1.272,2.62,2.572,4.556,3.252c-0.455-0.02-0.909-0.027-1.222,0.108c0.481,1.138,1.499,2.29,2.283,2.896
		c-0.162-0.081-0.374-0.114-0.623-0.108c-0.108,0.209,0.327,0.377,0,0.445c-2.31-4.108-9.728-2.074-10.593,1.185
		c1.034-0.256,2.098-0.499,3.451-0.438c0.66-0.498,1.717-1.171,2.458-1.212c-0.344,0.33-0.728,0.613-0.781,1.226
		c0.451,0.067,2.653,0.68,4.118-0.101c0.206,0.142-0.623,0.788-0.562,0.788c0.562,0.222,1.259,0.31,1.677,0.667
		c-0.313,0.633-1.054,0.532-1.569,0.774c-2.077,0.993-3.223,3.343-3.445,5.869c0.683,0.203,1.342,0.507,1.976,0.891
		C29.786,39.96,29.742,39.438,29.907,38.935z"/>
	<path fill="#C5E4F9" d="M30.009,43.681c-0.57-0.64-1.169-1.131-1.752-1.682c0.087,0.545,0.455,1.165,0.667,1.73
		c-0.177-0.017-0.353-0.037-0.529-0.057c0.314,0.932,0.766,1.794,1.371,2.508C29.85,45.354,29.91,44.499,30.009,43.681z"/>
	<path fill="#A1C6E0" d="M34.015,54.376c-3.724-3.893-7.004-7.165-11.226-10.04c-0.195-0.579,0.501-0.97,0.047-1.59
		c0.195-0.114,0.471-0.061,0.72-0.013c0.286,0.054,0.539,0.108,0.62-0.087c0.067-0.499-0.653-0.667-0.539-1.051
		c1.42,1.476,3.068,1.884,4.757,2.078c0.176,0.02,0.353,0.04,0.529,0.057c-0.212-0.565-0.579-1.185-0.667-1.73
		c0.583,0.551,1.182,1.042,1.752,1.682c0.162,0.182,0.322,0.37,0.477,0.581c0.259,0.007,0.519,0.026,0.774,0.061
		c0.188-0.021,0.364-0.034,0.545-0.047c0.293-0.062,0.596-0.115,0.889-0.169L32.85,44.1c0.121-0.033,0.242-0.074,0.363-0.107
		c0.101-0.027,0.189-0.047,0.276-0.054c-1.053-1.5-2.266-2.674-3.59-3.477c-0.634-0.384-1.293-0.688-1.976-0.891
		c-2.074-0.616-4.348-0.363-6.69,0.96c0.472-0.438,0.687-0.922,1.131-1.36c-0.384-0.27-0.855-0.081-1.259-0.256
		c1.774-0.115,2.566-1.347,4.03-2.646c-0.292-0.404-1.585-0.31-1.256-0.728c0.384-0.168,0.889-0.148,1.428-0.141
		c0.542,0.02,1.121,0.034,1.64-0.155c1.283-0.464,2.354-1.501,3.475-1.805c-3.862-2.215-11.562,0.66-11.128,6.027
		c-2.532-4.829-6.744-5.441-11.3-2.081c2.111,0.377,4.215,0.822,6.525,0.229c-0.458,0.29-0.902,0.566-1.125,0.896
		c1.212,0.802,2.922,1.273,4.081,1.36c-0.202,0.021-0.434,0.128-0.673,0.296c0.034,0.27,0.569,0.155,0.283,0.438
		C12.209,38.08,6.29,44.82,7.536,48.558c0.838-0.916,1.721-1.838,3.084-2.64c0.316-0.909,0.909-2.249,1.616-2.761
		c-0.125,0.532-0.32,1.057,0.02,1.69c0.488-0.223,3.02-1.037,3.957-2.734c0.272,0-0.118,1.158-0.058,1.111
		c0.69-0.135,1.428-0.499,2.061-0.418c0.108,0.822-0.677,1.199-1.023,1.765c-2.693,4.458,1.293,11.664,6.445,13.179
		c-0.774-1.509-1.717-3.051-2.155-4.485c-0.768-0.687-2.017-1.44-2.357-2.652c0.509,0.41,1.037,0.733,1.65,0.626
		c-0.653-1.798-0.222-3.597-2.111-5.146c0.266-0.154,0.471,0.055,0.667,0.27c0.178,0.209,0.367,0.404,0.626,0.29
		c-0.135-0.66-0.223-1.307,0.017-1.872c0.795,0.08,1.704,1.502,2.478,0.229c2.738,2.667,6.303,5.569,7.751,9.239
		c0.6-0.096,1.003,0.507,1.31,1.192c0.843-0.335,1.697-0.667,2.574-0.994C34.062,54.423,34.029,54.387,34.015,54.376z"/>
	<path fill="#A1C6E0" d="M56.305,45.271c-0.182-0.646-0.384-1.259-0.465-2c-0.017-0.364-0.033-0.492,0.337-0.565
		c-0.131-0.768-0.747-2.404,0.101-2.788c-0.696-3.3,0.481-7.058,1.186-10.25c1.158,0.539,1.132-0.909,1.667-1.347
		c0.438,0.303,0.687,0.801,0.893,1.333c0.491-0.074,0.134-0.977,0.666-1.01c-0.623,2,0.529,3.091,0.913,4.687
		c0.498-0.216,0.71-0.707,0.878-1.232c0.341,1.03-0.201,2.155-0.424,3.003c0.363,1.239,0.418,2.788,0.569,4.236
		c2.979-3.522,2.424-10.546-1.606-12.472c-0.516-0.243-1.253-0.148-1.569-0.774c0.421-0.357,1.118-0.451,1.677-0.667
		c0.064,0-0.754-0.653-0.559-0.788c1.461,0.774,3.663,0.168,4.114,0.101c-0.054-0.62-0.438-0.902-0.781-1.226
		c0.741,0.033,1.812,0.713,2.458,1.212c1.357-0.061,2.418,0.168,3.452,0.438c-0.866-3.266-8.28-5.293-10.59-1.185
		c-0.33-0.074,0.107-0.242,0-0.444c-0.253-0.014-0.465,0.02-0.626,0.101c0.784-0.6,1.805-1.751,2.282-2.896
		c-0.31-0.128-0.768-0.121-1.219-0.107c1.933-0.673,3.219-1.98,4.553-3.253c-4.849-0.249-7.569,2.182-7.104,6.835
		c-2.22-4.047-9.085-2.479-10.806,0.936c0.946-0.323,2.202-0.074,3.344-0.35c0.909-0.229,1.596-1.125,2.337-1.246
		c0.428,0.148-0.546,0.694-0.553,1.118c1.65,0.242,2.799,0.754,4.118-0.007c-0.198,0.31-0.623,0.397-0.777,0.774
		c0.538,0.108,0.909,0.343,1.454,0.444c-4.633,0.323-7.023,3.603-7.158,8.223l0.216-0.101c0.107-0.02,0.208-0.061,0.319-0.087
		l0.104-0.074c0.242-0.094,0.485-0.188,0.724-0.29c0.132-0.081,0.267-0.155,0.411-0.222c0.158-0.155,0.34-0.283,0.525-0.411
		c0.051-1.017,0.319-1.812,0.528-2.68c0.195,0.438,0.223,1.058,0.344,1.562c1.249-1.017,2.411-2.121,2.765-4.021
		c0.259,0.216-0.172,0.68,0.117,0.997c0.276,0.195,0.572-0.532,0.997-0.559c-0.027,0.667,0.649,0.613,0.784,1.111
		c-1.66,4.047-2.461,7.939-3.289,12.492c-0.098,0.236-0.283,2.417-0.323,3.239v0.007c0,0,0.03,0.102,0.226,0.176
		c-0.179,0.91-0.246,1.523-0.31,3.458c1.013-0.238,2.015-0.46,3.01-0.674C56.051,46.398,55.989,45.669,56.305,45.271z"/>
	<path fill="#E79740" d="M87.35,47.716c-0.128-0.04-0.263-0.087-0.404-0.128c0.142,0.041,0.276,0.088,0.411,0.135L87.35,47.716z"/>
	<path fill="#E79740" d="M94.578,49.992c-1.542-5.665-18.049-6.325-38.364-1.963c-0.995,0.213-1.997,0.436-3.01,0.674
		c-1.516,0.356-3.047,0.738-4.594,1.148c-3.34,0.886-6.558,1.852-9.625,2.873c-0.912,0.304-1.813,0.61-2.697,0.924
		c-0.744,0.264-1.479,0.529-2.202,0.799c-0.876,0.327-1.731,0.659-2.574,0.994C17.001,61.203,7.631,68.005,8.909,72.7
		c1.731,6.351,22.314,6.411,45.968,0.142C78.541,66.565,96.31,56.343,94.578,49.992z M91.161,51.662
		c-0.001,0.002-0.003,0.004-0.004,0.007c-0.14,2.581-3.448,5.767-8.977,9.004c-0.037-0.027-0.074-0.061-0.111-0.081
		c3.788-2.363,6.041-4.64,6.223-6.546c0.027-0.289,0.007-0.565-0.063-0.835c-0.415-1.616-2.536-2.7-5.93-3.259
		c-1.812-0.304-3.987-0.451-6.451-0.451c-7.489,0-17.671,1.373-28.634,4.114c-21.354,5.32-37.6,13.771-36.297,18.869
		c0.047,0.182,0.111,0.351,0.195,0.512c0.266,0.505,0.721,0.95,1.34,1.34c2.02,1.246,5.832,1.872,10.855,1.872
		c1.687,0,3.508-0.073,5.438-0.215c-0.007,0.081-0.017,0.154-0.024,0.235c-1.899,0.135-3.69,0.209-5.357,0.209
		c-5.743,0-10.018-0.812-12.073-2.43c-0.016-0.012-0.031-0.024-0.046-0.036c-0.2-0.161-0.385-0.327-0.541-0.504l-0.007-0.007
		c-0.01-0.007-0.017-0.021-0.023-0.033c-0.067-0.074-0.128-0.148-0.188-0.229h0.007c-0.216-0.303-0.374-0.619-0.468-0.963
		c-1.569-5.737,15.31-15.199,37.688-21.139c11.441-3.037,22.102-4.559,30.001-4.559c2.781,0,5.219,0.188,7.229,0.565
		c0.721,0.135,1.388,0.296,1.997,0.484h0.007c0.142,0.041,0.276,0.088,0.404,0.128c0,0,0.013,0.014,0.023,0.014
		c0.063,0.021,0.124,0.04,0.182,0.061c0.014,0.007,0.027,0.007,0.04,0.014c0.044,0.014,0.085,0.033,0.128,0.047
		c0.024,0.007,0.044,0.014,0.061,0.021c0.051,0.021,0.098,0.04,0.142,0.061c0.03,0.007,0.054,0.021,0.081,0.027
		c0.023,0.013,0.051,0.02,0.077,0.033c0.048,0.021,0.102,0.047,0.155,0.067c0.014,0,0.04,0.021,0.04,0.021
		c0.034,0.013,0.071,0.026,0.108,0.047c1.312,0.593,2.195,1.354,2.575,2.29c0.018,0.04,0.034,0.087,0.051,0.128
		c0.003,0.013,0.01,0.026,0.021,0.054c0,0,0.007,0.02,0.007,0.04c0.013,0.034,0.026,0.067,0.033,0.102
		c0.01,0.047,0.021,0.08,0.03,0.121c0.031,0.141,0.049,0.287,0.057,0.435c0.007,0.098,0.004,0.197,0.001,0.297
		C91.16,51.615,91.162,51.639,91.161,51.662z"/>
	<path fill="#FFFFFF" d="M91.16,51.296c-0.008-0.147-0.025-0.294-0.057-0.435c-0.01-0.041-0.021-0.074-0.03-0.121
		c-0.007-0.034-0.021-0.067-0.033-0.102c0-0.021-0.007-0.04-0.007-0.04c-0.011-0.027-0.018-0.041-0.021-0.054
		c-0.017-0.041-0.033-0.088-0.051-0.128c-0.38-0.937-1.263-1.697-2.575-2.29c-0.037-0.021-0.074-0.034-0.108-0.047
		c0,0-0.026-0.021-0.04-0.021c-0.054-0.021-0.107-0.047-0.155-0.067c-0.026-0.014-0.054-0.021-0.077-0.033
		c-0.027-0.007-0.051-0.021-0.081-0.027c-0.044-0.021-0.091-0.04-0.142-0.061c-0.017-0.007-0.036-0.014-0.061-0.021
		c-0.043-0.014-0.084-0.033-0.128-0.047c-0.013-0.007-0.026-0.007-0.04-0.014c-0.058-0.021-0.118-0.04-0.182-0.061
		c-0.011,0-0.023-0.014-0.023-0.014l0.007,0.007c-0.135-0.047-0.27-0.094-0.411-0.135h-0.007c-0.609-0.188-1.276-0.35-1.997-0.484
		c0,0,0,0,0.001,0.001c-0.001,0-0.003-0.001-0.004-0.001h0.003c-2.01-0.377-4.447-0.565-7.229-0.565
		c-7.899,0-18.56,1.521-30.001,4.559C25.334,57.036,8.455,66.498,10.024,72.235c0.094,0.344,0.252,0.66,0.468,0.963
		c0.054,0.081,0.114,0.155,0.182,0.229c0.007,0.013,0.014,0.026,0.023,0.033l0.007,0.007c0.155,0.177,0.341,0.343,0.541,0.504
		c0.016,0.012,0.031,0.024,0.046,0.036c2.055,1.617,6.33,2.43,12.073,2.43c1.667,0,3.458-0.074,5.357-0.209
		c0.007-0.081,0.017-0.154,0.024-0.235c-1.93,0.142-3.751,0.215-5.438,0.215c-5.024,0-8.835-0.626-10.855-1.872
		c-0.62-0.39-1.074-0.835-1.34-1.34c-0.084-0.161-0.148-0.33-0.195-0.512c-1.303-5.098,14.943-13.549,36.297-18.869
		c10.963-2.741,21.145-4.114,28.634-4.114c2.464,0,4.64,0.147,6.451,0.451c3.394,0.559,5.515,1.643,5.93,3.259
		c0.07,0.27,0.091,0.546,0.063,0.835c-0.182,1.906-2.435,4.183-6.223,6.546c0.037,0.021,0.074,0.054,0.111,0.081
		c5.528-3.237,8.837-6.423,8.977-9.004c0.001-0.003,0.003-0.005,0.004-0.007c0.001-0.023-0.001-0.047,0-0.069
		C91.164,51.493,91.167,51.394,91.16,51.296z"/>
	<path fill="none" stroke="#4775B7" stroke-width="0" stroke-linecap="round" stroke-linejoin="round" d="M86.945,47.588
		c0.142,0.041,0.276,0.088,0.404,0.128"/>
	<polygon fill="#4775B7" points="84.942,47.104 84.941,47.104 84.938,47.104 	"/>
	<path fill="#4775B7" d="M10.485,73.198c0.061,0.081,0.121,0.155,0.188,0.229c-0.067-0.074-0.128-0.148-0.182-0.229H10.485z"/>
</g>
</svg>
