<?xml version="1.0" encoding="utf-8"?>
<!-- Generator: Adobe Illustrator 18.1.0, SVG Export Plug-In . SVG Version: 6.00 Build 0)  -->
<svg version="1.0" id="Layer_1" xmlns="http://www.w3.org/2000/svg" xmlns:xlink="http://www.w3.org/1999/xlink" x="0px" y="0px"
	 viewBox="0 0 150 150" enable-background="new 0 0 150 150" xml:space="preserve">
<g>
	<path fill="#ED3324" d="M76.5,24.1c26.7,0.1,48.6,19.8,52.3,45.6c4.4,0.9,8.3,2.9,11.5,5.9c-0.8-34.5-29-62.3-63.7-62.3
		c-34.4,0-62.4,27.3-63.7,61.4c3.2-2.7,7.1-4.5,11.5-5.2C28,43.8,49.8,24.1,76.5,24.1z"/>
	<path fill="#7B0E00" d="M31.5,84.1c-1.2-1.6-2.3-3.6-3.3-6c-0.6-1.3-0.9-2.5-1.1-3.7c-10,0.3-18,8.3-18,18.4c0,1.4,0.2,2.8,0.5,4.1
		l0,0.2c0.1,0.7,0.4,1.6,0.8,2.4c0.6,1.4,1.3,2.8,2.2,4c8.6,13.4,32.3,34.7,32.3,34.7s9.2-8.9,17.9-18.9
		C52.7,109.6,38.5,95,31.5,84.1z"/>
	<path fill="#7B0E00" d="M125.2,74.5c-3.6,12.7-22.4,33.5-34.5,46c9,9.5,18.1,17.7,18.1,17.7s32.3-31.2,33.1-42.5
		c0.1-0.7,0.1-1.4,0.1-2.1c0-0.3,0-0.6,0-0.9C142,83.1,134.6,75.3,125.2,74.5z"/>
	<path fill="#ED3324" d="M36.4,62c3.4,8.8,8.8,25.6,21.5,21.2c12.4-4.3,16.2,10.7,10.2,18.5c-0.5,0.7-1.5,0.3-1.4-0.5
		c1.5-8.2-0.5-13.7-4-12.6c-9.6,2.9,5.3,23.6,14.7,35.3c9.4-11.7,24.3-32.3,14.7-35.3c-3.5-1.1-5.5,4.5-4,12.6
		c0.1,0.8-0.8,1.2-1.3,0.5c-6-7.8-2.2-22.8,10.2-18.5c12.7,4.4,18.1-12.4,21.5-21.2c0.2-0.6,0.6-0.6,0.6-0.1
		c-0.5,10.2-4.3,20.2-10,29.6c6.3-8.1,11.1-15.7,11.4-20.5c0.1-1,0.1-1.9,0.1-2.7c0-0.4,0.1-0.7,0.1-1.1c0-13.1-10.6-23.7-23.7-23.7
		c-8.9,0-16.7,4.9-20.8,12.3c-4-7.4-11.8-12.3-20.8-12.3c-13.1,0-23.7,10.6-23.7,23.7c0,1.9,0.2,3.6,0.6,5.3l0,0.3
		c0.2,0.9,0.5,2,1,3.2c0.7,1.8,1.7,3.6,2.8,5.2c3.8,5.9,9.9,13,16.2,19.8c-9.1-11.9-15.8-25.4-16.4-39C35.8,61.5,36.2,61.5,36.4,62z
		 M99.3,71.8c1.9-2,4.7-1.7,6.3,0.7c1.6,2.4,1.4,6.1-0.5,8.1c-1.9,2-4.7,1.6-6.3-0.8C97.3,77.4,97.5,73.8,99.3,71.8z M49.2,72.6
		c1.6-2.4,4.4-2.8,6.3-0.7c1.9,2,2.1,5.6,0.5,8.1c-1.6,2.4-4.4,2.8-6.3,0.8C47.8,78.6,47.6,75,49.2,72.6z"/>
</g>
</svg>
