<?xml version="1.0" encoding="utf-8"?>
<!-- Generator: Adobe Illustrator 18.1.0, SVG Export Plug-In . SVG Version: 6.00 Build 0)  -->
<svg version="1.0" id="Layer_1" xmlns="http://www.w3.org/2000/svg" xmlns:xlink="http://www.w3.org/1999/xlink" x="0px" y="0px"
	 viewBox="0 0 150 150" enable-background="new 0 0 150 150" xml:space="preserve">
<g>
	<path fill="#4D6890" d="M15,87c0,0-21.5,6.4,6.5,13.7c0,0,20.9,5.9,52.5,5.5c0,0-18.8,2.5-38.8,0.8c0,0,13.2,31.1,48.4,27.2
		c0,0,29.2-3,38-33c0,0,12.5-2,20-6.8c0,0,8.6-5.5-5.8-8.8c0,0,1.5,9.1-30.3,12.8C105.5,98.4,18.3,107.2,15,87z"/>
	<g>
		<path fill="#4D6890" d="M91.4,69.2c0,0,33.3-8.2,36.9-57.6C128.3,11.6,87.9,25.1,91.4,69.2z"/>
		<path fill="#7F8CAB" d="M73.6,88.5c0,0,29-22.1,11.5-71.8C85.1,16.8,51.5,47,73.6,88.5z"/>
		<path fill="#AA583D" d="M78.3,92.5c0,0,11.9-34.4,64.6-33.4C142.9,59.1,124.6,100.5,78.3,92.5z"/>
		<g>
			<path fill="#DB5736" d="M51.2,75.8c0,0-24.4,2.2-38.1-30.4C13,45.5,43.3,45.3,51.2,75.8z"/>
			<path fill="#EDB095" d="M67.2,84.9c0,0-21-7-20.6-38.9C46.5,46,71.7,56.8,67.2,84.9z"/>
			<path fill="#783620" d="M65.3,88.1c0,0-13.6-17.4-43.6-6.5C21.7,81.6,40.3,101.8,65.3,88.1z"/>
		</g>
	</g>
</g>
</svg>
