<?xml version="1.0" encoding="iso-8859-1"?>
<!-- Generator: Adobe Illustrator 13.0.0, SVG Export Plug-In . SVG Version: 6.00 Build 14948)  -->
<!DOCTYPE svg PUBLIC "-//W3C//DTD SVG 1.1//EN" "http://www.w3.org/Graphics/SVG/1.1/DTD/svg11.dtd">
<svg version="1.1" id="Layer_1" xmlns="http://www.w3.org/2000/svg" xmlns:xlink="http://www.w3.org/1999/xlink" x="0px" y="0px"
	 width="100px" height="100px" viewBox="0 0 100 100" enable-background="new 0 0 100 100" xml:space="preserve">
<g>
	<g>
		<path fill="#272525" d="M42.889,30.801v6.808c0,1.647,0.275,2.786,0.828,3.416c0.551,0.632,1.749,0.947,3.587,0.947v2.917h-18.58
			v-2.917h0.551c1.787,0,2.946-0.329,3.481-0.985c0.535-0.659,0.801-1.782,0.801-3.377V16.532c0-1.63-0.274-2.764-0.828-3.404
			c-0.551-0.64-1.704-0.958-3.455-0.958h-0.551V9.252h19v2.917h-0.58c-1.769,0-2.919,0.327-3.454,0.985
			c-0.536,0.656-0.802,1.783-0.802,3.378v9.933l9.646-8.881c1.68-1.543,2.522-2.805,2.522-3.785c0-1.086-1.06-1.629-3.18-1.629
			V9.252h15.769v2.917c-1.438,0-2.943,0.368-4.521,1.106c-1.575,0.737-3.811,2.449-6.701,5.134l-3.26,2.986l9.829,14.558
			c1.647,2.454,3.011,4.071,4.088,4.851c1.076,0.779,2.519,1.168,4.323,1.168v2.917H50.931v-2.917c2.662,0,3.995-0.534,3.995-1.603
			c0-0.456-0.543-1.472-1.629-3.048l-6.763-9.854L42.889,30.801z"/>
	</g>
	<g>
		<g>
			<path fill="#272525" d="M70.629,49.704h-42.33c-0.569,0-1.028-0.619-1.028-1.381c0-0.758,0.458-1.376,1.028-1.376h42.33
				c0.569,0,1.025,0.618,1.025,1.376C71.654,49.085,71.198,49.704,70.629,49.704z"/>
			<g>
				<path fill="#272525" d="M64.653,89.467H34.271c-0.403,0-0.735-0.334-0.735-0.733c0-0.41,0.332-0.742,0.735-0.742h30.383
					c0.407,0,0.736,0.332,0.736,0.742C65.39,89.133,65.061,89.467,64.653,89.467z"/>
			</g>
			<g>
				<path fill="#272525" d="M68.221,92.33H30.705c-0.408,0-0.734-0.324-0.734-0.731c0-0.409,0.327-0.741,0.734-0.741h37.516
					c0.409,0,0.737,0.332,0.737,0.741C68.958,92.006,68.63,92.33,68.221,92.33z"/>
			</g>
			<g>
				<path fill="#272525" d="M72.584,95.121l-46.239-0.064c-0.408,0-0.739-0.326-0.739-0.733s0.331-0.741,0.739-0.741l46.239,0.065
					c0.407,0,0.734,0.325,0.734,0.732C73.318,94.788,72.991,95.121,72.584,95.121z"/>
			</g>
			<path fill="#272525" d="M65.049,60.182h-31.17c-1.016,0-1.835,0.822-1.835,1.838c0,1.008,0.82,1.833,1.835,1.833h4.93v22.174
				h5.065V63.853h2.746v22.174h5.061V63.853h2.75v22.174h5.061V63.853h5.557c1.015,0,1.835-0.825,1.835-1.833
				C66.884,61.004,66.063,60.182,65.049,60.182z"/>
			<path fill="#272525" d="M73.173,51.317c-0.07,0-0.138,0.006-0.208,0.012c0.008-0.006,0.008-0.006,0.008-0.012H56.156H53.5H25.957
				c0,0.006,0,0.006,0.004,0.012c-0.069-0.006-0.14-0.012-0.206-0.012c-2.89,0-5.233,2.342-5.233,5.233
				c0,2.885,2.343,5.226,5.233,5.226c2.887,0,5.229-2.341,5.229-5.226c0-1.259-0.44-2.407-1.173-3.306
				c1.173,1.064,1.926,2.653,1.926,4.289H53.5h2.656h11.031c0-1.636,0.753-3.225,1.929-4.289c-0.734,0.898-1.176,2.047-1.176,3.306
				c0,2.885,2.341,5.226,5.232,5.226c2.889,0,5.23-2.341,5.23-5.226C78.403,53.659,76.062,51.317,73.173,51.317z"/>
		</g>
	</g>
</g>
</svg>
