<?xml version="1.0" encoding="utf-8"?>
<!-- Generator: Adobe Illustrator 18.1.0, SVG Export Plug-In . SVG Version: 6.00 Build 0)  -->
<svg version="1.1" id="Layer_1" xmlns="http://www.w3.org/2000/svg" xmlns:xlink="http://www.w3.org/1999/xlink" x="0px" y="0px"
	 viewBox="0 0 2000 2000" enable-background="new 0 0 2000 2000" xml:space="preserve">
<g>
	<path fill="#CD1F38" d="M560.4,479.2c16.7,31.2,36.4,59.2,57.5,85.8c-1.5-139.7,61.4-185.6,101.6-200.4c0.1-0.3,0.1-0.7,0.3-1.1
		c81-41.8,143.2,65.3,171.8,111.6c66.4,107,112.2,220.6,130.5,369c9.3-4.3,39.3-3.8,43.6-2.4c-26-191.2-90.2-425.2-202.4-536
		c-35.2-34.8-69.3-72.2-113.4-99.7c-111.5-69.5-219.5-34.7-230.7,108.7c1.4,20,2.8,40,4.3,60C531.4,411.2,543.9,448.4,560.4,479.2z"
		/>
	<path fill="#FFCA0D" d="M617.9,565c8.9,11.2,17.6,22.4,27.1,32.9c89.6,98.9,207,170.9,324.3,252.8l2.1,0.3
		c2.7-37.5-2.4-92.3-16.8-120.9c-21.2-20-42.6-39.9-63.9-59.8c-47.4-44.9-93.9-98.9-128.5-154.5c-14.7-23.5-35.3-50.5-45.2-80.6
		c-7.1-21.7-8.6-45.2,2.4-70.5C679.3,379.4,616.4,425.3,617.9,565z"/>
	<path fill="#CD1F38" d="M1487.9,478.3c0.4,0,0.7-0.1,1.1,0c64.7,64.1-17.8,156.2-53,197.9c-81.2,96.3-175.1,174.9-310.6,238.1
		c7,7.4,15.9,36.2,15.8,40.7c173.8-83.8,376.5-217.2,447.2-358.1c22.1-44.3,47.2-88.2,59.6-138.6c31.7-127.4-34.8-219.5-174.6-185.8
		c-18.6,7.5-37.2,15.1-55.7,22.6c-32.2,18.8-63.7,42.2-87.9,67.4c-24.5,25.6-45,53-63.8,81.3C1398.3,399,1461.4,444.7,1487.9,478.3z
		"/>
	<path fill="#FFCA0D" d="M1213,814.9c12.4-26.4,24.7-52.8,37.2-79.2c28.1-59,65-119.8,107.2-169.9c17.9-21.3,37.1-49.2,62.7-67.9
		c18.4-13.4,40.3-22.2,67.7-19.5c-26.5-33.6-89.5-79.2-222-34.6c-7.9,11.8-15.9,23.6-23,36c-66.3,115.7-98.4,249.6-140.2,386.5
		l0.4,2C1139.6,859.3,1190.3,837.4,1213,814.9z"/>
	<path fill="#CD1F38" d="M1808.5,1166.7c-12.9-15.3-25.8-30.7-38.7-46c-27.8-24.8-59.9-47.5-91.3-62.7c-31.8-15.4-64.3-26.4-97-35.6
		c83.3,112.2,59.5,186.2,35.6,221.8c0.2,0.4,0.4,0.6,0.4,1.1c-40.9,81.4-154.1,31.3-204.5,10.8c-116.8-47.6-220.5-112.6-322.4-222
		c-5,9-29.5,26.2-33.9,27.6c133.4,139.3,323,290.8,478.8,314.5c49,7.5,98.5,17.6,150.3,14
		C1816.8,1380.9,1883.7,1289.3,1808.5,1166.7z"/>
	<path fill="#FFCA0D" d="M1581.5,1022.4c-13.8-3.8-27.4-7.7-41.2-10.7c-130.7-27.2-268-16.5-411-13.8l-1.8,1
		c19.8,31.9,56.2,73.3,84.7,87.9c29,3.7,57.8,7.2,86.9,10.9c64.7,8.4,134,24.9,194.7,49.5c25.7,10.4,58.2,20,84,38.6
		c18.5,13.5,33.5,31.6,39.4,58.5C1641,1208.6,1664.9,1134.6,1581.5,1022.4z"/>
	<path fill="#CD1F38" d="M928.8,1603.9c-0.3,0.3-0.6,0.5-1,0.7c-89.9-13.9-77.3-136.9-73.3-191.3c9.1-125.6,38.9-244.5,111.3-375.2
		c-10-2-34-20.1-36.6-23.7c-91.4,170-176.9,397-151.3,552.6c8.2,48.9,13.8,99.1,33.2,147.3c49.4,121.7,157.2,157.1,250.5,47.7
		c10.5-17.1,21.2-34.1,31.8-51.1c15-34.2,26.7-71.6,31.4-106.2c4.9-35,5.3-69.3,3.9-103.2C1047.8,1615.4,969.9,1615.6,928.8,1603.9z
		"/>
	<path fill="#FFCA0D" d="M1128.6,1501.4c-0.6-14.3-1.2-28.5-2.6-42.6c-14.3-132.6-67-259.9-113.7-395.2l-1.5-1.4
		c-24.2,28.7-52.3,76.1-57.5,107.7c5.4,28.7,11,57.3,16.5,86c11.9,64.3,17.8,135.2,13.1,200.5c-1.9,27.7-1,61.6-10.8,91.8
		c-7.1,21.8-19.6,41.6-43.3,55.6C969.9,1615.6,1047.8,1615.4,1128.6,1501.4z"/>
	<path fill="#CD1F38" d="M373.9,1060.3c-0.3-0.2-0.6-0.4-1-0.7c-14.5-89.9,106.3-115.9,159.2-129c122.4-30.1,244.6-38.5,391.3-10
		c-1.3-10.2,8.5-38.6,11.3-42.1c-189.9-34.4-432.3-45.6-572.3,26.9c-43.9,22.7-90.1,43.6-129.8,77c-100.5,84.6-100.8,198.1,32.1,253
		c19.5,4.8,38.9,9.7,58.4,14.4c37,3.7,76.4,3.3,110.8-2.8c34.9-6.2,67.5-16.4,99.3-28.2C399.8,1177,375.6,1103,373.9,1060.3z"/>
	<path fill="#FFCA0D" d="M914.3,970.9c-34.9-14.3-88.6-26.3-120.2-21.4c-25.6,14.1-51,28.2-76.6,42.3
		c-57.5,31.1-123.1,58.6-186.6,74.4c-27.1,6.7-59,18-90.7,18.1c-22.9,0-45.7-5.8-66.3-24c1.7,42.7,25.9,116.7,159.1,158.5
		c13.4-5,26.8-9.9,39.8-15.7c121.6-54.7,226.4-144.1,340.6-230.3L914.3,970.9z"/>
</g>
</svg>
