<?xml version="1.0" encoding="utf-8"?>
<!-- Generator: Adobe Illustrator 18.1.0, SVG Export Plug-In . SVG Version: 6.00 Build 0)  -->
<svg version="1.0" id="Layer_1" xmlns="http://www.w3.org/2000/svg" xmlns:xlink="http://www.w3.org/1999/xlink" x="0px" y="0px"
	 viewBox="0 0 150 150" enable-background="new 0 0 150 150" xml:space="preserve">
<g>
	<path fill="none" d="M126.9,49.2c0,0-24.1-1-34.4,2.9c-10.3,3.9-15,8.2-15,8.2l-0.4,3.2c0,0,0.6-0.1,0.9,0.5c0.3,0.6,0.6,3.6,0.4,4
		c-0.2,0.4-2,1.4-2,1.4l-0.1,1l48.1-2.6L126.9,49.2z"/>
	<path fill="none" d="M26.5,74.7c0,0-5.2,0.8-6.1,1.3c-0.9,0.6-4.1,5-4.1,5l15.8-1.4C32.1,79.5,27.5,74.9,26.5,74.7z"/>
	<path fill="none" d="M47.4,86.6V94l5.2-5.2C51.2,87.6,49.4,86.8,47.4,86.6z"/>
	<path fill="none" d="M124.9,73.5l-8.9,0.5c0,0-1.1,0.3-1.1,0.7c0,0.5,0.9,0.6,0.9,0.6l9.2-0.1c0,0,0.6-0.2,0.6-0.8
		C125.6,73.7,124.9,73.5,124.9,73.5z"/>
	<path fill="none" d="M54.3,103.3c1.2-1.5,2-3.3,2.2-5.2h-7.4L54.3,103.3z"/>
	<path fill="none" d="M38.2,90.4c-1.2,1.5-2,3.3-2.2,5.2h7.4L38.2,90.4z"/>
	<path fill="none" d="M45.1,107.1v-7.4l-5.2,5.3C41.3,106.1,43.1,106.9,45.1,107.1z"/>
	<path fill="#00AEAE" d="M34.7,83c7.3-4.4,16.6-5.7,23.1,2c6.5,7.7,5.3,17.4,5.3,17.4l66-0.3c0.8-1.8,1.6-3.5,2.3-5.4
		c1.1-3,1.9-6.2,2.5-9.4c-15.9,0.5-39,1.3-40.8,1.1c-2.2-0.2-2.1-3.1-2.1-3.1s21.6-0.9,43.5-1.3c0.6-4.4,0.7-8.8,0.3-13.2
		c-0.8-8.6-3.6-17-7.8-24.3c-0.9,0-1.9-0.1-2.7-0.1c-13.5-0.1-28.4,0.6-33.5,3.4l1.3,0.8l0.4,0.5C84.6,53.3,66,66.7,66,66.7h-5.3
		l-0.5-0.8c0,0-23.8,2.5-34.8,6.7C17.8,75.3,15.3,82,15.3,82s-1.2,0.2-1.1,2.8c0,0-0.5-0.1-0.8,0.5c-0.3,0.6-0.2,3.3-0.2,3.3
		l0.8,0.8c0,0-0.2,4,0.6,4.6l-1.1,1l0.3,1.4c0,0-0.2,1.9,0.2,2.1c0.4,0.2,1.5,1.9,1.5,1.9l13.6,1.7c0,0-0.1-0.5-0.1-1.3
		C28.8,97,28.7,86.5,34.7,83z M125,75.2l-9.2,0.1c0,0-1-0.1-0.9-0.6c0-0.5,1.1-0.7,1.1-0.7l8.9-0.5c0,0,0.8,0.2,0.7,0.9
		C125.6,75,125,75.2,125,75.2z M76.4,69.4c0,0,1.8-1,2-1.4c0.2-0.4-0.1-3.4-0.4-4c-0.3-0.6-0.9-0.5-0.9-0.5l0.4-3.2
		c0,0,4.7-4.3,15-8.2c10.4-3.9,34.4-2.9,34.4-2.9l-2.5,18.6l-48.1,2.6L76.4,69.4z M20.4,76c0.9-0.6,6.1-1.3,6.1-1.3
		c1,0.3,5.6,4.9,5.6,4.9L16.3,81C16.3,81,19.5,76.5,20.4,76z"/>
	<path fill="#00AEAE" d="M46.2,111.4c6.2,0,11.4-3.9,13.5-9.3c0.6-1.6,1-3.4,1-5.2c0-8-6.5-14.5-14.5-14.5c-8,0-14.5,6.5-14.5,14.5
		c0,1.1,0.2,2.2,0.4,3.3C33.6,106.6,39.4,111.4,46.2,111.4z M56.5,98c-0.2,2-1,3.8-2.2,5.2L49.1,98H56.5z M47.4,86.6
		c2,0.2,3.8,1,5.2,2.2L47.4,94V86.6z M45.1,107.1c-2-0.2-3.8-1-5.2-2.2l5.2-5.3V107.1z M38.2,90.4l5.2,5.2H36
		C36.2,93.7,37,91.9,38.2,90.4z"/>
	<path fill="#005D5D" d="M143.3,70.3c-0.1-0.9-0.2-1.9-0.3-2.8c-0.7-6.4-2.2-12.6-4.6-18.5c-0.4-1.1-0.9-2.1-1.4-3.1
		c-0.7-1.4-1.3-2.9-2-4.2c-1.1-2.2-2.5-4.3-3.9-6.3c-1.3-2.1-3-4-4.6-5.9l-1.2-1.4l-1.2-1.2l-2.5-2.4l-0.6-0.6l-0.3-0.3l-0.2-0.2
		l-0.1-0.1l-0.2-0.2l-1.4-1.1c-1-0.7-1.9-1.5-2.8-2.2C108.2,13.7,99.6,9.8,91,7.6C82.4,5.5,73.9,5.2,66.2,6
		c-7.7,0.9-14.7,2.8-20.4,5.4c-0.7,0.3-1.5,0.6-2.1,0.9c-0.7,0.4-1.3,0.7-2,1.1c-1.3,0.7-2.6,1.4-3.8,2c-2.3,1.4-4.4,2.9-6.3,4.2
		c-1.8,1.5-3.4,2.9-4.9,4.1c-1.4,1.2-2.2,2.2-3.1,3c-1.6,1.6-2.4,2.5-2.4,2.5c0,0-0.1,0.1-0.1,0.1c-2.1,2.2-1.9,5.7,0.3,7.8
		c2.2,2.1,5.7,1.9,7.8-0.3l0,0c0,0,0.8-0.9,2.4-2.6c0.8-0.8,1.7-2,2.8-2.9c1.1-1,2.3-2,3.7-3.3c1.6-1.1,3.3-2.4,5.2-3.7
		c1-0.6,2.1-1.2,3.2-1.8c0.5-0.3,1.1-0.6,1.7-1c0.6-0.3,1.2-0.6,1.8-0.8c4.8-2.4,10.8-4.3,17.4-5.2c6.6-1,14-0.9,21.5,0.7
		c7.5,1.6,15.2,4.9,22.1,9.8l2.5,1.9l1.3,1l1.1,1l2.5,2.3l1.3,1.2l1,1.2c1.4,1.6,2.9,3.1,4.1,5c1.3,1.8,2.6,3.6,3.7,5.5
		c0.1,0.1,0.1,0.2,0.2,0.3c4.4,7.6,7.3,16.4,8.2,25.3c0.4,4.6,0.3,9.2-0.3,13.7c-0.1,1.1-0.4,2.2-0.6,3.4c-0.6,3.3-1.4,6.6-2.6,9.8
		c-0.7,1.9-1.5,3.8-2.4,5.6c-3,6.3-6.9,11.9-11.7,16.8c-6,6.1-13.1,10.9-20.5,13.9c-7.3,3.1-14.9,4.6-21.8,4.9
		c-7,0.3-13.4-0.5-18.9-2c-0.7-0.2-1.4-0.4-2-0.5c-0.7-0.2-1.3-0.5-1.9-0.7c-1.3-0.5-2.5-0.9-3.6-1.3c-2.3-1-4.3-2-6.2-2.9
		c-1.8-1.1-3.3-2-4.7-2.8c-1.4-0.8-2.4-1.7-3.3-2.3c-1.8-1.3-2.7-2-2.7-2l0,0c-0.4-0.3-0.9-0.2-1.2,0.2c-0.3,0.4-0.2,0.9,0.1,1.2
		c0,0,0.9,0.8,2.7,2.2c0.9,0.7,1.9,1.7,3.3,2.6c1.4,0.9,3,1.9,4.7,3.1c1.9,1,4,2.1,6.3,3.2c1.2,0.5,2.4,1,3.7,1.5
		c0.6,0.2,1.3,0.5,2,0.8c0.7,0.2,1.4,0.4,2.1,0.6c5.6,1.8,12.4,2.8,19.7,2.7c7.3-0.1,15.3-1.4,23.2-4.4c7.9-3,15.7-7.8,22.4-14.3
		c5.7-5.5,10.6-12.4,14.2-20.1c0.6-1.2,1.2-2.4,1.7-3.6c1.5-3.8,2.6-7.8,3.4-11.9c0.2-1.1,0.5-2.2,0.6-3.3
		C143.3,79.8,143.6,75,143.3,70.3z"/>
</g>
</svg>
