<?xml version="1.0" encoding="utf-8"?>
<!-- Generator: Adobe Illustrator 18.1.0, SVG Export Plug-In . SVG Version: 6.00 Build 0)  -->
<svg version="1.1" id="Layer_1" xmlns="http://www.w3.org/2000/svg" xmlns:xlink="http://www.w3.org/1999/xlink" x="0px" y="0px"
	 viewBox="0 0 1500 1500" enable-background="new 0 0 1500 1500" xml:space="preserve">
<g>
	<path fill="none" d="M514,963.5c-1.8-2.9-3.5-5.7-5.3-8.5C510.5,957.8,512.2,960.6,514,963.5z"/>
	<path fill="none" d="M613.3,790.5c119.9-50.3,254.6-29.9,327.2-12.1c-110.7-46.1-266.3-65.1-386.1-21.2
		c-15.2,5.6-28.1,12.4-38.8,20.4C505.2,801.8,545.7,818.9,613.3,790.5z"/>
	<path fill="none" d="M1045.8,1136.5c-19.6-20.8-35.6-37.8-42.5-45.1c-80.7,15.1-155.3,4.8-211.6-18.6
		C883.6,1130.9,1001.7,1136.6,1045.8,1136.5z"/>
	<path fill="#FFAF3A" d="M791.8,1072.7c-33.9-14.1-61.1-33-79.1-54.1c-24.3-28.5-31.5-61.2-19.9-89.6c11.3-27.5,45-62.1,141.2-70.3
		c75-6.4,139.4,8,193.3,32c2.1,1,4.2,2,6.3,3c1.9,0.9,3.7,1.8,5.5,2.7c141.7,70.5,179.1,190.4,174.5,192.7
		c52.4,13.1,125.6,52.4,125.6,52.4l-329.5-326.6c-19.9-13.3-43.4-25.5-69.3-36.3c-72.6-17.7-207.3-38.2-327.2,12.1
		c-67.6,28.4-108,11.3-97.8-12.9c-20.5,15.1-33.2,34.4-37.5,57.9c-1.1,6.2-1.7,12.7-1.7,19.4c0,30.5,11.7,65.4,32.5,100.1
		c1.7,2.8,3.5,5.7,5.3,8.5c18.1,28.1,42.1,55.8,70.9,80.8c14.2,12.3,26.5,23.7,37.3,34.3c22.5,25.4,50.2,68.9,15.4,102
		c-2.5,2.5,106.2-4.7,91.3-112.3l39.1,33.5c116.6,99.9,265.1,111.2,347.1,108.4c-22.6-24-48-51.1-69.3-73.7
		C1001.7,1136.6,883.6,1130.9,791.8,1072.7z M1286.9,1112.5c-15.7-10.5-68.1-26.2-68.1-28.8c-23.6-110-180.6-196.3-180.6-196.3
		C1153.4,937.1,1289.5,1115.1,1286.9,1112.5z M629.9,856c78.5-62.8,206.8-13.1,206.8-13.1s-175.4,18.3-157.1,123
		C682.2,1018.3,553.9,926.6,629.9,856z M606.3,1057.5c-91.6-83.8,157.1,65.5,41.9,115.2C648.2,1172.7,697.9,1141.3,606.3,1057.5z
		 M1093.2,1201.5c0,0-185.9,15.7-337.7-117.8c0,0,125.7,96.8,290.6,65.4L1093.2,1201.5z"/>
	<path fill="#7D5465" d="M839.3,921.3c222.3-18.9,336.9,179.8,341.7,188.2l5.8,10.4l11.3,4l231.1,80.4l-377.7-437.4l-3.4-2.3
		c-119.7-81.6-345.2-128.8-515.4-66.4c-82.8,30.3-109,85.2-116.5,125.9c-1.9,10.1-2.8,20.6-2.8,31.2c0,76.9,47.8,164.8,130.4,236.4
		c38.2,33.1,55.8,53.2,64.3,64.8c-1,8-7.4,57.6-7.4,57.6c1,0.2,2.2,0.1,3.2,0.3l0,0.1c0.8,0.1,1.5,0,2.3,0.1
		c6.3,0.8,12.7,1.2,19.2,0.8c54.2,1.2,95.7-9.8,123-33.2c3.8-3.2,6.1-6.5,9-9.8c188.1,136.6,420.2,96,430.5,94.1l56.4-10.6
		l-219.3-233l-17.6,4.1c-124.7,29.2-217.7-14.6-247-49.1c-3.1-3.7-13.1-16.4-9.6-25C754.7,943.6,777.6,926.5,839.3,921.3z
		 M1003.3,1091.3c6.9,7.3,22.9,24.4,42.5,45.1c21.3,22.6,46.7,49.6,69.3,73.7c-82,2.8-230.5-8.5-347.1-108.4l-39.1-33.5
		c14.9,107.6-93.9,114.8-91.3,112.3c34.8-33.1,7.1-76.6-15.4-102c-10.8-10.6-23.1-21.9-37.3-34.3c-28.8-25-52.8-52.7-70.9-80.8
		c-1.8-2.8-3.6-5.7-5.3-8.5c-20.8-34.7-32.5-69.6-32.5-100.1c0-6.7,0.6-13.2,1.7-19.4c4.3-23.4,17-42.7,37.5-57.9
		c10.8-8,23.6-14.8,38.8-20.4c119.8-43.9,275.5-24.9,386.1,21.2c25.9,10.8,49.4,23,69.3,36.3l329.5,326.6c0,0-73.3-39.3-125.6-52.4
		c4.6-2.3-32.7-122.1-174.5-192.7c-1.8-0.9-3.7-1.8-5.5-2.7c-2.1-1-4.2-2-6.3-3c-53.9-24-118.2-38.4-193.3-32
		c-96.1,8.2-129.8,42.7-141.2,70.3c-11.7,28.4-4.5,61.1,19.9,89.6c17.9,21.1,45.2,40,79.1,54.1
		C848.1,1096.2,922.7,1106.4,1003.3,1091.3z"/>
	<path fill="#7D5465" d="M801.8,650.9l-101.2-94.2c0,0-366.5,48.9-310.6,282.7C393.4,835.9,369,612.5,801.8,650.9z"/>
	<path fill="#C46158" d="M121.2,472.9c3.1-10.6,6.6-20.6,10.4-30.5c-27.5,42-41.8,91.6-41.8,145.6c0,125.5,70,169.8,138,183.4
		C136.4,746.3,77,654.6,121.2,472.9z"/>
	<path fill="#C46158" d="M568.1,553.1c-0.1,0-0.1,0-0.2,0.1c-143.1,7-286.2-7-268.8-55.8c17.5-48.9,167.5-90.7,541,108.2
		c422.3,209.4,600.3-87.3,600.3-87.3s-94.2,136.1-572.4-94.2c-41.4-19.9-81.2-36.8-119.7-51.3c-51.4-10.8-100-19-145.7-24.8
		c59.9,19.4,127.3,49.8,200,97.1c248.3,161.5,358.9,125.5,374.8,118.8c1.3-0.6,2.1-1,2.1-1s-0.8,0.4-2.1,1
		c-16.5,7.2-132.7,51.2-309.4-48.1C677,408.3,512.1,295.8,310.5,358.6l2.9-4.3c-23,5.9-43.9,13.4-62.7,22.5
		c-34.4,18.3-60.2,40.8-79.5,64.3c-12.8,17.6-22.7,37.4-29.1,59.7C86.3,692.8,355,769.6,355,769.6
		C398.8,619.3,552.2,558.9,568.1,553.1z"/>
	<path fill="#C46158" d="M568.1,553.1C570,552.5,569.9,552.5,568.1,553.1L568.1,553.1z"/>
	<path fill="#FFAF3A" d="M142.1,500.8c6.5-22.3,16.3-42.1,29.1-59.7c-63.2,77.4-56.4,166.7-57.1,158.2
		C97.7,383.5,237.2,325.1,373.4,318.3c35.2-3.3,92.4-3.9,165.5,12.2c46.7,8.3,77.8,17.6,77.8,17.6c-9.3-1.6-18.4-3-27.3-4.4
		c4.4,1.3,8.8,2.7,13.2,4.2c45.7,5.8,94.3,14,145.7,24.8c63.6,13.3,131.6,30.5,203.5,51.3c289.7,83.8,342-45.4,342-45.4
		s-41.9,104.7-394.4-59.3C591.3,175.9,232.3,182.6,131.6,442.5c-3.8,9.8-7.4,19.9-10.4,30.5C77,654.6,136.4,746.3,227.8,771.5
		c38.5,10.6,82.7,9.5,127.2-1.9C355,769.6,86.3,692.8,142.1,500.8z M820.9,332.4c233.5,106.5,309.9,99.2,326.2,95.4
		c2.3-0.6,3.7-1.1,3.7-1.1s-1.1,0.5-3.7,1.1c-19,5.4-117.4,26.9-297.4-45.6C648.2,301,499,219.9,341.9,264.4
		C341.9,264.4,517.3,175.4,820.9,332.4z"/>
	<path fill="#FFAF3A" d="M250.7,376.8c18.8-9.1,39.7-16.6,62.7-22.5l2.4-3.4C291.2,357.9,269.7,366.8,250.7,376.8z"/>
	<path fill="#FFDD30" d="M755.5,1083.7c151.8,133.5,337.7,117.8,337.7,117.8l-47.1-52.4C881.2,1180.6,755.5,1083.7,755.5,1083.7z"/>
	<path fill="#FFDD30" d="M679.6,965.9c-18.3-104.7,157.1-123,157.1-123S708.4,793.1,629.9,856C553.9,926.6,682.2,1018.3,679.6,965.9
		z"/>
	<path fill="#FFDD30" d="M1218.8,1083.7c0,2.6,52.4,18.3,68.1,28.8c2.6,2.6-133.5-175.4-248.7-225.1
		C1038.2,887.4,1195.3,973.8,1218.8,1083.7z"/>
	<path fill="#FFDD30" d="M606.3,1057.5c91.6,83.8,41.9,115.2,41.9,115.2C763.4,1123,514.7,973.8,606.3,1057.5z"/>
	<path fill="#C46158" d="M171.2,441.2c19.3-23.6,45-46,79.5-64.3C217.3,393.1,190.7,414.5,171.2,441.2z"/>
	<path opacity="0.76" fill="#FFDD30" d="M171.2,441.2c19.3-23.6,45-46,79.5-64.3C217.3,393.1,190.7,414.5,171.2,441.2z"/>
	<path fill="#FFAF3A" d="M334.1,324.6c0,0,14-3.8,39.4-6.2c-136.2,6.8-275.8,65.2-259.3,281.1c0.6,8.4-6.1-80.8,57.1-158.2
		c19.5-26.7,46.1-48.1,79.5-64.3c19-10.1,40.5-18.9,65.1-25.9L334.1,324.6z"/>
	<path opacity="0.76" fill="#FFDD30" d="M334.1,324.6c0,0,14-3.8,39.4-6.2c-136.2,6.8-275.8,65.2-259.3,281.1
		c0.6,8.4-6.1-80.8,57.1-158.2c19.5-26.7,46.1-48.1,79.5-64.3c19-10.1,40.5-18.9,65.1-25.9L334.1,324.6z"/>
	<path fill="#FFAF3A" d="M616.8,348.1c0,0-31.1-9.3-77.8-17.6c16.1,3.5,33,7.9,50.5,13.2C598.4,345.1,607.5,346.5,616.8,348.1z"/>
	<path opacity="0.76" fill="#FFDD30" d="M616.8,348.1c0,0-31.1-9.3-77.8-17.6c16.1,3.5,33,7.9,50.5,13.2
		C598.4,345.1,607.5,346.5,616.8,348.1z"/>
	<path fill="#C46158" d="M313.4,354.3l-2.9,4.3c201.6-62.8,366.5,49.7,557.6,157.1c176.7,99.2,292.9,55.3,309.4,48.1
		c-15.9,6.7-126.5,42.8-374.8-118.8c-72.6-47.3-140.1-77.7-200-97.1C486,333.2,388.7,335.1,313.4,354.3z"/>
	<path opacity="0.74" fill="#FFDD30" d="M313.4,354.3l-2.9,4.3c201.6-62.8,366.5,49.7,557.6,157.1c176.7,99.2,292.9,55.3,309.4,48.1
		c-15.9,6.7-126.5,42.8-374.8-118.8c-72.6-47.3-140.1-77.7-200-97.1C486,333.2,388.7,335.1,313.4,354.3z"/>
	<path fill="#C46158" d="M1177.5,563.7c1.4-0.6,2.1-1,2.1-1S1178.8,563.2,1177.5,563.7z"/>
	<path opacity="0.74" fill="#FFDD30" d="M1177.5,563.7c1.4-0.6,2.1-1,2.1-1S1178.8,563.2,1177.5,563.7z"/>
	<path fill="#FFAF3A" d="M538.9,330.5c-73.1-16.1-130.3-15.5-165.5-12.2C433.9,315.3,493.7,322.5,538.9,330.5z"/>
	<path opacity="0.74" fill="#FFDD30" d="M538.9,330.5c-73.1-16.1-130.3-15.5-165.5-12.2C433.9,315.3,493.7,322.5,538.9,330.5z"/>
	<path fill="#FFAF3A" d="M315.8,350.9l-2.4,3.4c75.3-19.2,172.5-21.1,289.2-6.4c-4.5-1.4-8.9-2.8-13.2-4.2
		C471.3,326.1,382.5,331.9,315.8,350.9z"/>
	<path opacity="0.74" fill="#FFDD30" d="M315.8,350.9l-2.4,3.4c75.3-19.2,172.5-21.1,289.2-6.4c-4.5-1.4-8.9-2.8-13.2-4.2
		C471.3,326.1,382.5,331.9,315.8,350.9z"/>
	<path fill="#FFAF3A" d="M315.8,350.9c66.7-19,155.5-24.8,273.6-7.2c-17.6-5.3-34.4-9.7-50.5-13.2c-45.2-8.1-105-15.2-165.5-12.2
		c-25.4,2.4-39.4,6.2-39.4,6.2L315.8,350.9z"/>
	<path opacity="0.76" fill="#FFDD30" d="M315.8,350.9c66.7-19,155.5-24.8,273.6-7.2c-17.6-5.3-34.4-9.7-50.5-13.2
		c-45.2-8.1-105-15.2-165.5-12.2c-25.4,2.4-39.4,6.2-39.4,6.2L315.8,350.9z"/>
	<path opacity="0.74" fill="#FFDD30" d="M315.8,350.9c66.7-19,155.5-24.8,273.6-7.2c-17.6-5.3-34.4-9.7-50.5-13.2
		c-45.2-8.1-105-15.2-165.5-12.2c-25.4,2.4-39.4,6.2-39.4,6.2L315.8,350.9z"/>
	<path fill="#FFAF3A" d="M849.7,382.2c180,72.5,278.4,51,297.4,45.6c-16.3,3.9-92.7,11.2-326.2-95.4c-303.6-157.1-479-68.1-479-68.1
		C499,219.9,648.2,301,849.7,382.2z"/>
	<path opacity="0.74" fill="#FFDD30" d="M849.7,382.2c180,72.5,278.4,51,297.4,45.6c-16.3,3.9-92.7,11.2-326.2-95.4
		c-303.6-157.1-479-68.1-479-68.1C499,219.9,648.2,301,849.7,382.2z"/>
	<path fill="#FFAF3A" d="M1147.1,427.8c2.5-0.6,3.7-1.1,3.7-1.1S1149.4,427.1,1147.1,427.8z"/>
	<path opacity="0.74" fill="#FFDD30" d="M1147.1,427.8c2.5-0.6,3.7-1.1,3.7-1.1S1149.4,427.1,1147.1,427.8z"/>
</g>
</svg>
