<?xml version="1.0" encoding="utf-8"?>
<!-- Generator: Adobe Illustrator 18.1.0, SVG Export Plug-In . SVG Version: 6.00 Build 0)  -->
<svg version="1.1" id="Layer_1" xmlns="http://www.w3.org/2000/svg" xmlns:xlink="http://www.w3.org/1999/xlink" x="0px" y="0px"
	 viewBox="0 0 150 150" enable-background="new 0 0 150 150" xml:space="preserve">
<g>
	<g>
		<rect x="24.6" y="23.7" fill="#87D1D8" width="14.9" height="14.9"/>
	</g>
	<g>
		<rect x="24.6" y="59.7" fill="#87D1D8" width="14.9" height="14.9"/>
	</g>
	<g>
		<rect x="24.6" y="95.1" fill="#87D1D8" width="14.9" height="14.9"/>
	</g>
	<g>
		<rect x="41.2" y="5.4" fill="#87D1D8" width="14.9" height="14.9"/>
	</g>
	<g>
		<rect x="41.2" y="41.4" fill="#87D1D8" width="14.9" height="14.9"/>
	</g>
	<g>
		<rect x="41.2" y="59.7" fill="#87D1D8" width="14.9" height="14.9"/>
	</g>
	<g>
		<rect x="41.2" y="95.1" fill="#87D1D8" width="14.9" height="14.9"/>
	</g>
	<g>
		<rect x="41.2" y="131.1" fill="#87D1D8" width="14.9" height="14.9"/>
	</g>
	<g>
		<rect x="57.8" y="5.4" fill="#87D1D8" width="14.9" height="14.9"/>
	</g>
	<g>
		<rect x="57.8" y="23.7" fill="#87D1D8" width="14.9" height="14.9"/>
	</g>
	<g>
		<rect x="57.8" y="76.9" fill="#87D1D8" width="14.9" height="14.9"/>
	</g>
	<g>
		<rect x="57.8" y="112.8" fill="#87D1D8" width="14.9" height="14.9"/>
	</g>
	<g>
		<rect x="57.8" y="131.1" fill="#87D1D8" width="14.9" height="14.9"/>
	</g>
	<g>
		<rect x="76.1" y="5.4" fill="#55A4A1" width="49.7" height="32.6"/>
	</g>
	<g>
		<rect x="76.6" y="53.4" fill="#6DC5C0" width="34.8" height="22.3"/>
	</g>
</g>
</svg>
