<?xml version="1.0" encoding="utf-8"?>
<!-- Generator: Adobe Illustrator 14.0.0, SVG Export Plug-In . SVG Version: 6.00 Build 43363)  -->
<!DOCTYPE svg PUBLIC "-//W3C//DTD SVG 1.1//EN" "http://www.w3.org/Graphics/SVG/1.1/DTD/svg11.dtd">
<svg version="1.1" id="Layer_1" xmlns="http://www.w3.org/2000/svg" xmlns:xlink="http://www.w3.org/1999/xlink" x="0px" y="0px"
	 width="150px" height="150px" viewBox="0 0 150 150" enable-background="new 0 0 150 150" xml:space="preserve">
<g>
	<path fill="none" d="M140.403,90.653l0.271-1.309c-0.045,0.167-0.127,0.503-0.237,1.127L140.403,90.653z"/>
	<path fill="none" d="M123.487,121.646c-2.257,2.242-3.173,3.068-5.186,5.133l0.931-0.702c-2.321,2.275-1.706,1.101-4.516,3.411
		c-1.038,1.155-4.491,3.137-4.4,3.427c0.317-0.334-2.022,1.052-3.061,1.771c-1.104,0.854-4.848,2.797-3.65,2.33
		c1.013-0.521,2.306-1.337,3.191-1.618l-1.943,1.048l1.365-0.541c-0.69,0.314-0.569,0.394-0.172,0.423l2.247-1.269l2.109-1.514
		c-1.432,0.846-2.432,1.259-0.539-0.055c-0.133,0.162,0.487-0.123-0.162,0.345c1.341-0.753,4.274-2.513,3.368-2.257
		c-2.186,1.696-0.981,0.354-2.28,1.272c0.882-0.688,1.822-1.229,2.644-1.878c-0.912,0.826,0.428,0.104,1.888-1.007
		c0.614-0.552,2.341-1.869,3.354-2.754c-0.48,0.182,0.376-0.609-1.355,0.708c0.615-0.502,1.525-1.317,2.548-2.256
		c-0.374,0.388-1.043,1.081-0.952,1.081c0.725-0.507,1.481-1.239,1.933-1.617l0.978-0.974l-0.272,0.187l1.004-1.155
		c-1.412,1.479-0.731,0.614-0.776,0.525c0.09,0.153,0.955-0.904,1.445-1.376l-1.22,0.924
		C122.485,122.709,123.903,121.504,123.487,121.646z M107.699,134.764l1.978-1.288C109.864,133.49,108.016,134.637,107.699,134.764z
		"/>
	<path fill="none" d="M124.841,120.659c-1.229,1.38-0.89,1.135-1.011,1.4l1.228-1.495
		C124.886,120.732,124.785,120.811,124.841,120.659z"/>
	<path fill="none" d="M139.366,94.517l0.388-1.18c-0.119,0.104-0.233,0.241-0.412,0.729L139.366,94.517z"/>
	<path fill="none" d="M131.93,111.238l0.262-0.556c-0.584,1.092-1.904,2.764-2.97,4.474c-0.65,1.5-3.676,5.812-3.596,5.821
		c0.453-0.364,0.908-1.092,1.615-1.878l-0.341,0.256c2.229-2.438,3.946-5.3,5.755-7.887
		C129.129,115.997,126.626,119.031,131.93,111.238z"/>
	<path fill="none" d="M134.692,105.133c-0.185,0.742-1.397,2.969-1.279,3.21c-0.032,0.167,0.244-0.285,0.56-0.797l1.038-1.878
		c-0.017-0.039,0.045-0.187,0.112-0.433c-0.365,0.659-0.672,1.072-0.638,0.737c1.148-1.563,0.509-1.646,1.421-3.516
		C136.023,101.799,134.883,104.532,134.692,105.133z"/>
	<path fill="none" d="M88.155,142.403l0.447-0.107c-3.325,0.472-6.391,1.554-10.521,1.544l-0.278,0.049l-0.739,0.261l2.45-0.192
		l-2.802,0.276c-1.061-0.04,0.386-0.139-0.842-0.207c-1.329,0.068-3.092,0.113-1.113,0.245c-0.649,0.02-2.436-0.132-3.656-0.078
		c-0.101,0.01-0.302,0.049-0.759,0.069l0.759-0.069c0.514-0.054-2.512-0.354-3.1-0.452c0.381-0.079,3.547,0.202,5.276,0.029
		c0.135-0.02,0.275-0.039,0.668-0.039l-0.668,0.039l-0.317,0.059c4.228-0.146,0.452,0.33,4.591,0.114l0.251-0.055l0.116-0.039
		l0.162-0.01c1.976-0.325,1.877-0.305,4.025-0.836l-2.103,0.305c0.553-0.266-1.538,0.044-3.108,0.182l1.364-0.379
		c0.932-0.02,3.359-0.216,3.275-0.274c-0.524,0.167,3.23-0.021,5.198-0.576c-0.24-0.123-4.424,0.743-2.604,0.114
		c-1.624,0.452-1.878,0.167-3.607,0.441c1.661-0.274,0.402-0.274,1.615-0.521l-2.854,0.324c-0.071-0.05,4.154-0.507,1.797-0.491
		c-1.138,0.187-4.185,0.349-4.229,0.54l-0.071-0.049c-2.148-0.029-0.941,0.265-3.574,0.157c-0.029,0.088,0.47,0.153,1.416,0.143
		c0.794-0.055,0.92-0.112,2.547-0.241c0.75,0.138-1.955,0.069-0.82,0.276c0.569,0.137,4.323-0.503,3.15-0.09l-2.148,0.158
		c-0.047,0.226-1.607,0.25-1.561,0.373c-1.33,0.06-2.569-0.147-3.924,0.011c-0.568,0.107,0.409,0.363-1.821,0.216
		c-1.726-0.486-6.866-0.786-8.734-1.308l-1.681-0.217c0.116,0.138,3.161,0.625,2.067,0.546l-2.59-0.477l0.216-0.03
		c-0.851-0.206-1.768-0.24-2.538-0.433c0.819,0.099,2.683,0.473,2.355,0.227c-1.192-0.295-1.389-0.329-2.483-0.629l-0.713-0.187
		l0.713,0.187c0.244,0.059,0.445,0.107,0.423,0.068c-2.365-0.807-2.365-0.501-2.979-0.629c-2.492-0.501,2.368,0.963,2.004,1.062
		c-2.345-0.762-4.804-1.229-7.062-2.228c0.614,0.183,1.212,0.364,1.02,0.192c-1.639-0.767,0.012-0.147-2.33-1.12
		c0.091,0.255-3.085-0.975-4.685-1.79c-0.706-0.502-0.841-0.6,0.769,0.285c-0.111-0.246-2.296-1.377-3.061-1.824
		c-0.464-0.212-1.239-0.59-1.738-0.825c0.604,0.407,0.253,0.383-1.163-0.355l-0.091-0.024c2.257,1.309,5.735,3.525,7.34,3.992
		l-0.467-0.107c2.773,1.293,6.178,2.395,7.461,2.989c-0.157,0.078,0.568,0.191,0.467,0.363l2.196,0.521l-0.478-0.053
		c1.227,0.318,2.437,0.791,3.7,0.969l-0.105,0.028c1.817,0.188,3.233,0.33,4.354,0.443c0.018-0.079-0.088-0.123,0.514-0.06
		c0.59,0.098,1.047,0.163,1.455,0.196l0.422-0.024c0.077-0.02,0.057-0.074,0.716-0.009c0.595-0.011,0.897,0,0.241,0.009l0.634,0.093
		c0.219,0.099-0.418,0.035-1.453-0.068H64.2c0.922,0.118,1.526,0.311,2.665,0.462l-3.515-0.368c-0.307,0.073-0.034,0.33,1.682,0.576
		c-0.715-0.069-1.011,0.009-0.145,0.107c0.101-0.024,2.33,0.147,1.5-0.05c3.323,0.354,8.85,1.013,13.926,0.147
		c-3.655,0.478,2.965-0.098-1.119,0.33c2.866-0.104,2.458-0.33,5.322-0.781c0.264,0.038-1.557,0.295-2.204,0.471
		c4.822-0.608,7.983-1.721,12.466-3.062l0.25,0.104c0.841-0.236,1.753-0.609,2.685-1.022c-1.431,0.167-3.027,0.452-9.089,1.986
		C88.45,142.345,88.325,142.375,88.155,142.403z M56.469,141.725c0.461,0.114,1.136,0.296,1.816,0.434
		C57.615,142.035,57.288,142.064,56.469,141.725z M94.176,141.086l0.327-0.054l-1.863,0.59L94.176,141.086z M88.044,142.66
		c0.613-0.09,2.079-0.408,2.321-0.433C89.68,142.645,88.91,142.487,88.044,142.66z"/>
	<polygon fill="none" points="143.482,76.945 143.482,76.936 143.469,76.887 	"/>
	<path fill="none" d="M143.53,77.664l-0.048-0.719C143.482,77.369,143.503,77.654,143.53,77.664z"/>
	<path fill="none" d="M88.68,142.28l-0.077,0.016c0.008,0,0.013,0,0.02,0C88.633,142.296,88.657,142.296,88.68,142.28z"/>
	<path fill="none" d="M139.114,86.061l0.207-1.543C139.231,84.871,139.202,85.467,139.114,86.061z"/>
	<path fill="none" d="M33.33,129.921l0.523,0.535l1.797,1.023c-0.408-0.423-1.782-1.322-2.638-2.036
		c-0.091-0.029-2.935-2.153-3.756-2.698l1.662,1.549l0.422,0.373l-0.422-0.373c-0.999-0.89-3.272-2.655-4.15-3.57
		c-0.14,0.099,1.694,1.918,2.099,1.967c0.153,0.296-2.133-1.617-0.779-0.31c-1.807-1.343-4.098-4.104-5.222-5.3l-0.024-0.349
		c-1.067-1.455-0.976-0.776-2.205-2.552c1.662,2.06-0.091-0.487,1.229,1.136c-0.354-0.575,0.17-0.157-1.138-1.795
		c-1.3-1.21-1.3-1.774-2.392-3.023c-0.524-0.979,0.801,0.885-0.337-0.939c-1.48-2.011-1.49-1.823-1.768-1.844
		c1.219,2.006,1.652,2.051,2.653,3.668l-2.365-2.96c0.332,0.6,0.603,1.043,0.851,1.406c-0.428-0.629-0.826-1.155-1.194-1.587
		l-0.568-0.665c1.163,1.8,2.205,3.442,2.311,3.767l-0.241-0.188c0.297,0.723,1.182,1.633,1.595,2.045l-0.514-0.638
		c0.182,0.205,0.533,0.599,0.629,0.752l-0.116-0.114c1.202,1.516,2.522,2.951,2.682,3.363l-0.521-0.516
		c1.48,1.873,1.821,1.927,3.864,4.14c-0.201-0.207-0.294-0.231-0.294-0.231c4.395,3.934,8.35,6.687,10.988,8.417
		c-0.408-0.501-2.719-2.113-3.709-3.008L33.33,129.921z M17.405,113.879c0.408,0.58,0.73,0.949,1.119,1.538
		c-0.025,0.094,0.256,0.527,0.433,0.821C18.292,115.383,17.885,114.518,17.405,113.879z M30.962,128.127l1.047,0.786
		C32.489,129.522,31.169,128.27,30.962,128.127z"/>
	<path fill="none" d="M141.677,81.94l-0.297,2.321c-0.117-0.147,0.45-4.916,0.018-2.822c-0.235,4.164-0.733,5.959-1.301,9.872
		c0.461-1.149,1.133-5.059,1.455-7.62c-0.136,1.072-0.136,1.991-0.265,2.881c0.317-2.404,0.673-4.971,0.878-7.719l-0.07-0.619
		c0.009,1.371-0.157,2.408-0.235,2.944c-0.037,0.182-0.048,0.305-0.037,0.35c-0.011-0.045,0-0.168,0.037-0.35
		c0.278-2.285-0.037-4.184-0.197-4.337v0.434l-0.067-0.885l-0.054,2.158C141.938,77.359,141.595,82.235,141.677,81.94z"/>
	<path fill="#F8A245" d="M41.68,67.722h-0.024c0,0.079,0,0.139-0.02,0.207c-0.046,0.295-0.066,0.589-0.091,0.885
		C40.397,79.247,45.254,89.345,54.93,94.09c41.577,20.438,72.292-26.809,30.863-35.148c-13.343-2.665-29.282,7.256-22.173,17.06
		c10.468,14.415,38.657-4.769,21.397-7.94c4.28,9.656-16.492,11.309-11.598,1.52c5.955-11.938,29.275-2.793,23.031,8.446
		c-5.222,9.352-19.689,15.551-34.395,6.824c-4.496-2.646-8.043-6.701-9.364-12.011c-0.432-3.171,0.308-10.537,13.879-16.765
		c17.596-8.078,24.473-23.457,9.803-40.212c0,0,4.617,9.395,1.994,19.863C75.1,48.667,44.731,48.676,41.68,67.722z"/>
	<path fill="none" stroke="#AF6F29" stroke-width="0" stroke-linecap="round" stroke-linejoin="round" d="M91.705,119.571
		c1.607-0.674,3.191-1.405,4.737-2.217"/>
	<path fill="#AF6F29" d="M103.898,98.774c-22.633,8.511-41.992,5.025-62.447-7.846c0.413,2.089,0.595,3.028,0.956,4.798
		c20.291,12.262,39.608,13.205,61.403,3.433C103.854,99.001,103.863,98.922,103.898,98.774z"/>
	<path fill="#AF6F29" d="M102.533,103.918c-20.575,10.693-41.718,4.926-59.99-7.522c0.364,1.74,0.524,2.526,0.868,4.051
		c19.481,12.537,37.933,13.595,59.055,3.776C102.499,104.095,102.509,104.025,102.533,103.918z"/>
	<path fill="#AF6F29" d="M100.42,112.084c0.02-0.094,0.037-0.138,0.057-0.241c-20.104,9.75-38.287,6.903-56.019-6.677
		c0.317,1.387,0.472,2.075,0.794,3.462C61.152,123.544,82.549,121.765,100.42,112.084z"/>
	<path fill="#AF6F29" d="M45.39,109.164c0.317,1.391,0.477,2.089,0.818,3.604c12.572,13.088,30.202,13.215,45.497,6.804
		C76.157,125.664,57.25,121.352,45.39,109.164z"/>
	<path fill="#AF6F29" d="M97.983,119.601c-15.275,11.761-39.056,8.25-51.637-6.253c0.352,1.509,0.533,2.305,0.91,4.047
		c12.259,14.566,36.489,14.493,50.627,2.502C97.929,119.788,97.939,119.715,97.983,119.601z"/>
	<path fill="#AF6F29" d="M99.383,115.531c-0.957,0.657-1.939,1.258-2.94,1.823c0.966-0.507,1.926-1.027,2.861-1.588
		C99.337,115.668,99.348,115.629,99.383,115.531z"/>
	<path fill="#AF6F29" d="M96.097,124.503c-17.29,10.501-34.17,7.965-48.684-6.436c0.388,1.774,0.59,2.713,1.037,4.809
		c11.997,16.391,33.339,11.878,47.501,2.006C96.015,124.72,96.052,124.665,96.097,124.503z"/>
	<path fill="#AF6F29" d="M101.397,108.372c0.035-0.098,0.045-0.157,0.069-0.256c-20.998,9.292-39.263,6.254-57.931-7.09
		c0.327,1.515,0.489,2.203,0.806,3.609C62.838,117.507,81.175,118.476,101.397,108.372z"/>
	<path fill="none" stroke="#AF6F29" stroke-width="0" stroke-linecap="round" stroke-linejoin="round" d="M103.626,15.181
		c0.226,0.127,0.522,0.271,0.936,0.487"/>
	
		<line fill="none" stroke="#AF6F29" stroke-width="0" stroke-linecap="round" stroke-linejoin="round" x1="5.896" y1="63.367" x2="5.716" y2="64.482"/>
	
		<line fill="none" stroke="#AF6F29" stroke-width="0" stroke-linecap="round" stroke-linejoin="round" x1="116.558" y1="131.991" x2="117.028" y2="131.578"/>
	
		<line fill="none" stroke="#AF6F29" stroke-width="0" stroke-linecap="round" stroke-linejoin="round" x1="55.945" y1="141.116" x2="56.658" y2="141.303"/>
	
		<line fill="none" stroke="#AF6F29" stroke-width="0" stroke-linecap="round" stroke-linejoin="round" x1="114.355" y1="21.753" x2="113.861" y2="21.474"/>
	
		<line fill="none" stroke="#AF6F29" stroke-width="0" stroke-linecap="round" stroke-linejoin="round" x1="30.918" y1="128.294" x2="31.341" y2="128.667"/>
	
		<line fill="none" stroke="#AF6F29" stroke-width="0" stroke-linecap="round" stroke-linejoin="round" x1="117.777" y1="130.201" x2="117.912" y2="130.043"/>
	
		<line fill="none" stroke="#AF6F29" stroke-width="0" stroke-linecap="round" stroke-linejoin="round" x1="94.819" y1="9.227" x2="93.969" y2="8.981"/>
	
		<line fill="none" stroke="#AF6F29" stroke-width="0" stroke-linecap="round" stroke-linejoin="round" x1="38.893" y1="133.171" x2="39.2" y2="133.387"/>
	<path fill="none" stroke="#AF6F29" stroke-width="0" stroke-linecap="round" stroke-linejoin="round" d="M103.283,13.012
		c0.322,0.128,0.478,0.191,0.568,0.226"/>
	<path fill="none" stroke="#AF6F29" stroke-width="0" stroke-linecap="round" stroke-linejoin="round" d="M140.207,66.971
		c-0.093-0.375-0.293-0.886-0.443-1.501"/>
	
		<line fill="none" stroke="#AF6F29" stroke-width="0" stroke-linecap="round" stroke-linejoin="round" x1="133.016" y1="105.973" x2="133.131" y2="105.599"/>
	<path fill="none" stroke="#AF6F29" stroke-width="0" stroke-linecap="round" stroke-linejoin="round" d="M128.33,113.594
		c-0.111,0.196-0.156,0.314-0.201,0.413"/>
	<path fill="none" stroke="#AF6F29" stroke-width="0" stroke-linecap="round" stroke-linejoin="round" d="M120.598,28.657
		c0.297,0.28,0.547,0.496,0.719,0.639"/>
	<path fill="none" stroke="#AF6F29" stroke-width="0" stroke-linecap="round" stroke-linejoin="round" d="M135.752,51.282
		c-0.096-0.236-0.118-0.374-0.137-0.442"/>
	<path fill="none" stroke="#AF6F29" stroke-width="0" stroke-linecap="round" stroke-linejoin="round" d="M141.859,81.179
		c-0.037,0.182-0.048,0.305-0.037,0.35"/>
	
		<line fill="none" stroke="#AF6F29" stroke-width="0" stroke-linecap="round" stroke-linejoin="round" x1="32.806" y1="132.989" x2="31.85" y2="132.365"/>
	
		<line fill="none" stroke="#AF6F29" stroke-width="0" stroke-linecap="round" stroke-linejoin="round" x1="88.532" y1="144.98" x2="87.167" y2="145.304"/>
	
		<line fill="none" stroke="#AF6F29" stroke-width="0" stroke-linecap="round" stroke-linejoin="round" x1="72.165" y1="5.662" x2="74.296" y2="5.687"/>
	<path fill="none" stroke="#AF6F29" stroke-width="0" stroke-linecap="round" stroke-linejoin="round" d="M44.618,12.147
		c1.337-0.58,2.701-1.15,4.065-1.662c0.811-0.319,1.608-0.624,2.412-0.904"/>
	<path fill="#AF6F29" d="M30.962,128.127c0.207,0.143,1.527,1.396,1.047,0.786L30.962,128.127z"/>
	<path fill="#AF6F29" d="M127.182,115.305c-0.695,1.051-1.238,1.907-0.988,1.681c0.229-0.245,0.396-0.54,0.591-0.811
		c-0.109,0.152-0.211,0.304-0.384,0.517L127.182,115.305z"/>
	<polygon fill="#AF6F29" points="127.126,36.218 126.089,35.043 126.18,35.175 127.217,36.371 	"/>
	<path fill="#AF6F29" d="M133.475,44.595c0.281,0.787,1.068,2.164,1.341,2.606C133.973,45.584,134.381,46.277,133.475,44.595z"/>
	<polygon fill="#AF6F29" points="77.804,143.889 78.082,143.84 77.92,143.85 	"/>
	<path fill="#AF6F29" d="M17.405,113.879c0.479,0.639,0.887,1.504,1.551,2.359c-0.177-0.294-0.458-0.728-0.433-0.821
		C18.135,114.828,17.813,114.459,17.405,113.879z"/>
	<path fill="#AF6F29" d="M72.961,143.829l0.317-0.059c-1.729,0.173-4.895-0.108-5.276-0.029c0.587,0.099,3.614,0.398,3.1,0.452
		c1.22-0.054,3.007,0.098,3.656,0.078c-1.979-0.132-0.216-0.177,1.113-0.245c1.228,0.068-0.219,0.167,0.842,0.207l2.802-0.276
		l-2.45,0.192l0.739-0.261l-0.251,0.055C73.414,144.159,77.189,143.683,72.961,143.829z"/>
	<path fill="#AF6F29" d="M88.622,142.296c-0.007,0-0.012,0-0.02,0l-0.447,0.107C88.325,142.375,88.45,142.345,88.622,142.296z"/>
	<polygon fill="#AF6F29" points="133.475,47.088 132.624,45.584 132.68,45.746 	"/>
	<path fill="#AF6F29" d="M73.279,143.771l0.668-0.039C73.554,143.731,73.414,143.751,73.279,143.771z"/>
	<path fill="#AF6F29" d="M71.103,144.193l-0.759,0.069C70.8,144.242,71.002,144.203,71.103,144.193z"/>
	<path fill="#AF6F29" d="M18.76,116.563l0.514,0.638l0.116,0.114C19.293,117.162,18.941,116.769,18.76,116.563z"/>
	<polygon fill="#AF6F29" points="136.839,53.096 137.497,54.733 137.296,54.064 	"/>
	<path fill="#AF6F29" d="M23.492,30.687l-0.592,0.816C23.529,30.722,23.583,30.603,23.492,30.687z"/>
	<path fill="#AF6F29" d="M17.648,36.842c-0.002,0.005-0.005,0.015-0.01,0.02C17.644,36.857,17.646,36.847,17.648,36.842z"/>
	<path fill="#AF6F29" d="M140.394,67.103l0.019,0.413c0.045,0.025,0.067-0.02,0.067-0.227L140.394,67.103z"/>
	<path fill="#AF6F29" d="M141.479,72.964l0.125,1.082c0.011-1.122-0.225-2.409-0.422-3.968L141.479,72.964z"/>
	<path fill="#AF6F29" d="M17.639,36.862c-0.226,0.388-0.521,0.821-0.686,1.16C17.282,37.506,17.442,37.201,17.639,36.862z"/>
	<path fill="#AF6F29" d="M140.078,63.337c-0.046-0.246-0.111-0.541-0.144-0.747C139.978,62.835,140.026,63.091,140.078,63.337z"/>
	<polygon fill="#AF6F29" points="143.53,77.664 143.575,77.645 143.482,76.936 143.482,76.945 	"/>
	<path fill="#AF6F29" d="M64.126,7.594c0.18-0.069,0.895-0.157,0.145-0.099L64.126,7.594z"/>
	<path fill="#AF6F29" d="M45.493,12.943c-0.081,0.029-0.096,0.069-0.096,0.069c0.241-0.118,0.514-0.256,0.755-0.354L45.493,12.943z"
		/>
	<path fill="#AF6F29" d="M111.536,17.609l0.005,0.005C111.539,17.614,111.539,17.614,111.536,17.609z"/>
	<path fill="#AF6F29" d="M112.225,17.934l-0.684-0.319C111.883,17.781,112.906,18.42,112.225,17.934z"/>
	<path fill="#AF6F29" d="M58.285,142.158c-0.68-0.138-1.354-0.319-1.816-0.434C57.288,142.064,57.615,142.035,58.285,142.158z"/>
	<path fill="#AF6F29" d="M66.213,143.465l-0.634-0.093c0.656-0.009,0.354-0.02-0.241-0.009c-0.659-0.065-0.639-0.011-0.716,0.009
		l-0.422,0.024h0.561C65.795,143.5,66.432,143.563,66.213,143.465z"/>
	<polygon fill="#AF6F29" points="22.661,118.077 22.137,117.575 23.517,119.237 	"/>
	<path fill="#AF6F29" d="M6.965,73.077c0.044,0.448,0.079,0.856,0.101,0.684L6.965,73.077z"/>
	<path fill="#AF6F29" d="M18.895,36.965c0.561-0.954,1.878-2.664,2.483-3.421c-0.514,0.639-1.591,1.785-1.807,2.399l0.02-0.108
		L18.895,36.965z"/>
	<path fill="#AF6F29" d="M6.034,65.618l0.297-1.185C6.304,64.31,6.24,64.38,6.375,63.681L6.034,65.618z"/>
	<path fill="#AF6F29" d="M5.861,66.268c-0.044-0.64,0.352-2.188,0.145-1.909C6.087,64.331,5.554,67.167,5.861,66.268z"/>
	<polygon fill="#AF6F29" points="55.033,143.49 53.428,143.078 53.578,143.146 55.193,143.563 	"/>
	<path fill="#AF6F29" d="M140.207,66.971l0.235,1.125l-0.03-0.58C140.369,67.478,140.276,67.29,140.207,66.971z"/>
	<polygon fill="#AF6F29" points="58.763,140.609 58.239,140.536 57.334,140.496 	"/>
	<path fill="#AF6F29" d="M101.431,14.261c0.729,0.324,1.517,0.521,2.195,0.919c-0.478-0.281-0.636-0.398-0.822-0.556
		C102.625,14.615,101.16,14.06,101.431,14.261z"/>
	<path fill="#AF6F29" d="M88.541,140.742c-1.706,0.473,2.845-0.178-0.125,0.525c3.882-0.771-0.326-0.063,2.482-0.811
		C89.257,140.919,88.383,140.815,88.541,140.742z"/>
	<path fill="#AF6F29" d="M102.578,135.865c-1.272,0.688-2.898,1.278-3.498,1.661l0.543-0.187l-2.377,1.19
		C98.874,137.772,102.976,136.062,102.578,135.865z"/>
	<polygon fill="#AF6F29" points="23.084,119.247 22.57,118.657 22.391,118.555 	"/>
	<path fill="#AF6F29" d="M109.677,133.476l-1.978,1.288C108.016,134.637,109.864,133.49,109.677,133.476z"/>
	<path fill="#AF6F29" d="M126.919,115.992c-0.043,0.06-0.09,0.119-0.135,0.183C126.823,116.12,126.885,116.041,126.919,115.992z"/>
	<path fill="#AF6F29" d="M90.365,142.228c-0.242,0.024-1.708,0.343-2.321,0.433C88.91,142.487,89.68,142.645,90.365,142.228z"/>
	<path fill="#AF6F29" d="M106.047,138.333c-0.397,0.197-1.058,0.442-0.826,0.206C104.663,138.903,103.967,139.508,106.047,138.333z"
		/>
	<path fill="#AF6F29" d="M126.919,115.992c0.238-0.349,0.5-0.678,0.74-1.017C127.28,115.274,127.266,115.461,126.919,115.992z"/>
	<polygon fill="#AF6F29" points="94.176,141.086 92.64,141.622 94.503,141.032 	"/>
	<polygon fill="#AF6F29" points="132.085,115.334 130.992,117.006 132.212,115.201 	"/>
	<path fill="#AF6F29" d="M144.702,76.219c-0.024-0.57,0.054,2.586-0.082,2.163c-0.032-0.354-0.053-0.698-0.065-1.013
		c-0.049,3.047-0.433,6.076-0.8,7.601c0.277-3.151,0.54-8.388,0.136-10.197c-0.09,0.688,0.207,2.512-0.065,3.413l0.172,0.969
		c0.043,1.105-0.217,3.652-0.39,3.858c0.218-3.019,0.103-3.815-0.077-5.349c-0.027-0.01-0.048-0.295-0.048-0.719l-0.014-0.059
		l0.014,0.049c-0.024-0.909,0-2.364-0.034-3.195c0.034-1.062,0.135-0.335,0.17-0.216c-0.115-3.619-0.611-6.121-1.308-9.863
		c0.149-0.068-0.373-2.979-0.136-2.094c-0.315-2.222-0.945-3.333-1.421-4.72c0.021-0.344-0.922-3.289-0.478-2.241l-0.819-1.874
		c-0.455-1.342-1.639-4.006-1.673-4.518c-0.648-1.406-0.306-0.339-1.21-2.271c0.082,0.074,0.019-0.079,0.222,0.305
		c-0.375-0.875-1.447-2.97-2.003-3.82c0.634,1.362,0.115,0.329,0.897,1.932c-0.11,0.01-1.094-1.731-1.988-3.54
		c1.615,2.242-0.946-1.967-0.183-0.919c-2.277-3.776-4.025-5.62-6.528-8.294c-2.743-3.284-6.529-7.09-9.305-9.017l0.336,0.295
		l-1.609-1.185c-0.912-0.713,0.182-0.271-1.334-1.254c0.685,0.118,2.458,1.947,3.972,3.009c-2.287-2.208,2.377,1.726,0.878,0.246
		c-1.147-0.521-5.212-4.297-7.729-5.536c-0.813-0.58-0.862-0.654-0.663-0.556l-0.082-0.034c-0.864-0.639-1.118-0.875-1.051-0.934
		c-2.109-1.219-4.478-2.537-6.552-3.402c0.45,0.227-1.454-0.433,0.687,0.604c-0.822-0.437-2.71-1.047-4.401-1.824
		c1.681,0.659-2.118-1.199,1.547,0.408c-0.424-0.408-1.834-0.733-3.47-1.44c0.866,0.275,2.793,0.944,2.639,0.85
		c-2.513-0.969-8.112-3.033-9.17-3.151c-1.923-0.374-4.928-0.703-7.259-1.022c-2.33-0.433-4.943-0.639-7.596-0.826l0.477-0.093
		c-1.499-0.045-3.844,0.019-6.062-0.025l-0.512-0.147c-1.526,0.191-4.37,0.452-6.691,0.688c-0.02,0.074,2.119-0.118,1.125,0.074
		c1.148-0.104,2.131-0.212,1.708-0.271c1.148-0.103,1.217,0.03,2.176,0.02l-4.452,0.526c-0.361,0.01-0.489,0.01-0.509,0.01
		l-0.297,0.227c-1.136,0.216-1.48,0.241-1.298,0.137c-2.456,0.576-3.296,0.802-5.846,1.456c0.762-0.339,1.354-0.556,2.357-0.782
		L57.263,9c1.3-0.492,6.485-1.362,5.553-1.475c-3.302,0.58-7.975,1.972-10.674,3.078c-1.543,0.246-3.569,1.406-5.971,2.247
		c-0.26,0.074-0.774,0.226-0.774,0.162c-2.874,1.337-5.971,2.955-8.141,4.641l-1.399,0.668c-4.319,2.792,0.888-0.388-3.296,2.744
		c-1.138,0.625-5.13,3.914-5.302,4.051c-0.684,0.703-1.022,1.013-1.022,1.181c0.661-0.59,2.025-1.986,1.339-1.116
		c-1.253,1.283-1.932,1.814-2.955,2.797c0.045-0.079,0.706-0.875,0.317-0.462c-2.173,2.163-5.521,6.312-7.289,9.326
		c0.202-0.339,0.442-0.718,0.939-1.377c0.047,0.064-0.452,0.792-0.612,1.111c0.271-0.044,0.794-1.519,2.003-2.772
		c-0.59,0.752-1.022,1.627-1.526,2.453l1.047-1.249l-3.323,5.644c3.073-4.395,3.994-6.794,7.099-9.956
		c-0.408,0.58,0.066,0.083,0.216-0.01c0.787-1.185,2.06-2.276,2.569-2.955l1.605-1.554c0.044,0.074-0.292,0.64-1.409,1.79
		c5.266-5.299,9.988-9.1,16.89-12.517c0.323-0.109-0.921,0.55-0.374,0.29c0.796-0.467,2.061-1.156,2.331-1.362
		c-0.106,0.089-0.27,0.236-0.784,0.512c3.705-1.834,5.89-2.331,8.346-3.324c0.163,0.01-1.907,0.679-1.571,0.649
		c3.918-1.092,5.807-2.242,9.877-2.916c-1.297,0.408,0.932,0,2.026-0.113c3.296-0.792,10.472-1.323,15.58-0.999
		c-1.364,0.28,5.674,0.497,6.032,1.018c1.102,0.231,2.84,0.526,2.989,0.413c-0.63-0.069-2.128-0.462-1.913-0.502
		c1.644,0.31,4.131,0.796,4.392,0.699c0.674,0.157,1.283,0.477,1.944,0.723c0.15-0.094,0.818-0.04,1.912,0.29
		c2.32,1.062-0.191-0.31,3.224,0.954c-0.832-0.147-1.574-0.25-1.879-0.226c1.646,0.531,1.456,0.354,2.619,0.821
		c0.326,0.236-1.22-0.261-2.529-0.541c0.705,0.261,1.41,0.467,2.078,0.807c2.031,0.703,5.726,1.696,8.681,3.574
		c-0.543-0.172-1.536-0.703-0.821-0.137c1.324,0.727,3.252,1.356,4.823,2.566c-0.227-0.133-0.091-0.02-0.317-0.152
		c2.96,1.814,2.129,1.509,4.698,3.299l-0.155-0.04c0.567,0.31,1.066,0.723,1.58,1.092c3.226,2.414,3.397,2.95,4.969,4.769
		l-0.399-0.349c0.888,1.234,4.508,4.469,5.179,5.718c-0.97-1.421-0.263-0.521-0.888-1.647c-1.083-1.037-0.947-0.546-2.628-2.399
		c0.353,0.099,2.673,2.276,3.16,2.729c0.888,1.101,1.23,2.035,1.23,2.222c2.275,2.66,3.161,4.435,5.539,7.994
		c0.875,1.249,1.74,2.124,3.161,5.438l-0.058-0.049c0.254,0.344,0.66,1.573,0.94,2.134c-0.26-1.229,0.697,1.381,0.313-0.108
		c0.796,1.947,0.658,2.389,0.581,2.635c0.918,1.244,1.226,3.958,2.259,6.991c-0.271-0.531-1.273-3.869-0.996-2.439l1.455,3.855
		l-0.498-1.76c1.086,2.935,0.793,3.923,1.113,5.683c-0.021,0.267-0.156-0.27-0.291-0.923c0.172,0.904,0.399,1.966,0.633,2.931
		c-0.062-0.266-0.116-0.375-0.092-0.207l0.196,0.742c0.238,1.259,0.546,3.795,0.8,4.947l0.026,0.526l-0.058-0.241l0.078,0.673
		l-0.01,1.663l-0.048-0.325l0.037,0.64l-0.047,1.706l0.067,0.885v-0.434c0.16,0.153,0.476,2.052,0.197,4.337
		c0.078-0.536,0.244-1.573,0.235-2.944l0.07,0.619c-0.205,2.748-0.561,5.314-0.878,7.719c0.129-0.89,0.129-1.809,0.265-2.881
		c-0.322,2.562-0.994,6.471-1.455,7.62c0.567-3.913,1.065-5.708,1.301-9.872c0.433-2.094-0.135,2.675-0.018,2.822l0.297-2.321
		c-0.082,0.295,0.261-4.581-0.136-3.392c-0.286,5.143-1.172,10.167-2.257,14.469l-0.604-4.453c0.062,0,0.172-0.866,0.334-1.845
		c0.021,0.212,0.054,0.428,0.281-0.708c0.394-2.32,0.187-3.638,0.394-5.319l-0.024,0.521c0.315-1.583,0.215-3.639,0.11-4.868
		c0.274-1.288,0.043,4.611,0.287,2.139c-0.072,1.775-0.272,4.302-0.354,5.664c0.282-2.276,0.75-4.218,0.832-3.574
		c0.056-4.961-0.515-0.029-0.56-4.342l0.069-2.969l-0.36-1.002c-0.187-1.775,0.326,1.067,0.055-1.647
		c-0.196-0.728-0.241-2.507-0.377-3.029c0.043,0.069,0.181,0.079-0.024-1.308c-0.058-0.079-0.14,0.06-0.34-1.022
		c0.157-0.796,0.545,2.788,0.601,1.48c-0.626-3.289-0.626-1.804-0.852-2.493c0.044,0.089,0.056,0.261,0.136,0.688
		c-0.101-0.03-0.271-1.347-0.353-1.19l0.332,1.485c-0.317-0.916,0.183,1.543,0.183,2.497c0.388,2.149,0.726,6.608,0.586,9.598
		c0-0.262-0.032-0.777-0.078-0.453c0.011,4.258-0.354,6.008-1.022,10.797l0.101,0.619c-0.832,4.14,0.16,2.109,0.006,3.157
		c-0.125,0.928-0.297,1.74-0.619,2.517l0.052-0.473c-0.722,2.605-0.037,0.876-0.767,3.167c-0.443,1.897,0.532-1.627,0.286-0.413
		c-0.83,2.434,0.048,1.69-1.711,5.335c0-0.207-0.408,0.319,0.481-1.854l-1.037,2.051c0.959-2.518,0.399-0.969,1.365-3.551
		c0.172-1.272-0.045-1.037,0.127-2.206c-0.252,0.997-0.022,0.854-0.498,2.329c-0.729,1.731,0.043-0.294-0.024-0.521
		c-0.595,2.409-1.23,2.478-1.845,4.592c0.399-0.295,0.227,0.107,0.976-1.308c-0.519,1.494-1.454,3.265-1.589,3.038l0.045,0.389
		c-0.172,0.319-0.795,1.382-0.867,1.44l-0.179,0.512c0.708-0.939,1.227-1.706,1.896-3.604c-0.19,0.796,0.74-0.886-0.235,1.528
		c-0.435,1.042-0.138,0.079-0.228,0.123c-2.663,5.188-2.88,5.108-5.427,8.903c0.604-0.978,2.284-3.229,3.124-5.26
		c-0.803,1.052-1.246,2.566-2.056,3.568c0.582-0.978,0.619-1.174-0.203-0.117l-0.215,0.521c-0.453,0.659-1.251,1.868-1.365,1.918
		c0.021,0.054,0.235-0.217,0.679-0.797c-0.91,1.839-3.182,4.888-5.638,7.512c-0.026-0.358,3.182-3.991,1.363-2.133
		c-0.982,1.092-1.363,2.359-3.346,3.972c0.662-0.846-0.933,0.699-0.979,0.61l-2.32,2.675c-1.317,1.082-2.898,2.242-4.073,3.294
		c0.394-0.349,0.937-0.781,1.607-1.278c-1.672,1.77-3.535,2.659-6.062,4.347l1.111-0.846c-1.962,1.185-3.407,2.32-5.04,3.166
		l-0.028-0.188c-0.072,0.188-1.415,1.013-2.628,1.682c3.15-1.612,3.434-1.249,7.3-4.002c-1.59,1.343-2.809,2.232-4.722,3.393
		c-0.772,0.374-1.089,0.501-1.181,0.477c-0.592,0.423-0.712,0.659-1.877,1.343l-0.396,0.079c-3.575,1.308-3.016,1.72-6.465,2.9
		c-0.726,0.078,2.835-1.397,4.823-2.37c-1.635,0.482,3.286-1.499,1.335-0.974l-0.947,0.546c-1.047,0.407-0.979,0.251-0.341-0.025
		c-1.354,0.605-1.043,0.408-1.513,0.738c-5.312,2.064,0.499-0.369-4.813,1.313c0.595-0.218,2.075-0.684,1.729-0.724l2.798-1.052
		l-0.021-0.197c-3.458,1.495-5.571,2.124-7.143,2.95c3.231-1.125,0.413,0.088,2.16-0.329c-0.613,0.271-1.253,0.397-1.612,0.441
		c-0.231,0.134-1.893,0.64-1.64,0.679c-0.897-0.132-8.191,1.136-6.596,0.424c-2.084,0.23-8.535,0.987-13.129,0.82l1.254-0.128
		c-4.327-0.521-4.266-0.123-6.37-0.123c0.524-0.033-2.925-0.466-3.721-0.865c-2.158-0.31-4.017-0.279-6.952-1.312
		c-0.568-0.358-0.553-0.658-2.431-1.259l-1.32-0.245c-1.806-0.787-4.272-1.672-5.391-2.272l0.25,0.095
		c-1.966-0.989-2.129-0.861-0.614-0.03l-1.913-0.88l-0.044-0.094c-2.502-1.214-4.976-2.158-8.599-4.725
		c1.082,0.507-2.574-2.163,0.75,0.04c-1.003-0.591,0.423,0.501,0.568,0.692c1.185,0.861,2.357,1.437,2.901,1.766
		c-0.352-0.329,0.125-0.32,0.875-0.089c-2.657-1.116-8.907-6.121-9.61-6.322c-2.729-2.231-6.042-5.507-8.463-8.722l0.172,0.369
		l-2.003-2.856l0.534,0.609c-0.418-0.629-0.897-1.229-1.239-1.928c-0.056-0.241,0.443,0.492,1.072,1.185
		c0.363,0.408,0.609,0.826,0.263,0.442c1.645,1.819-1.2-1.651-0.081-0.506c0.351,0.481,0.875,1.076,1.121,1.415
		c-1.669-2.202-2.576-3.175-3.287-4.753c-0.866-1.023-2.502-3.221-3.434-5.576c0.545,0.812-1.283-2.434-0.506-1.421
		c-0.605-0.786-1.345-2.92-1.588-3.239c0.187,0.29,0.55,1.352,0.858,2.04c-0.503-0.905-0.624-0.993-1.084-2.173l0.02-0.099
		c-0.723-1.504-0.624-0.349-1.711-3.077c-2.355-7.316,0.681,0.924,0.533-0.187c-0.297-0.188-1.226-3.442-1.59-4.922L9.9,93.701
		c-0.253-0.747-0.706-1.795-0.767-2.636c-0.246-0.432-0.587-1.283-0.804-1.823l-0.681-3.378l0.236,0.688
		c-0.189-0.768-0.327-1.436-0.371-2.144c0.125-0.305,0.101,0.718,0.398,1.73c-0.012-0.57-0.115-1.269-0.297-2.035l0.034,0.413
		c-0.16-0.856-0.659-4.102-0.467-1.514c-0.308-1.918-0.091-2.538-0.283-3.86c0.091-0.132,0.246,1.067,0.273,0.407
		c-0.118-1.283,0.01-2.137-0.071-3.195c-0.047,1.033-0.111-0.285-0.182,1.328c-0.054-0.609-0.081-2.262-0.135-2.193
		c0.02,0.536,0.063,0.89,0,1.809c-0.035-1.73-0.091-3.574,0.091-5.344c0.024,0.064,0.024,0.246,0.034,0.453
		c0.081-2.32,0.352-5.812,0.443-7.37l-0.18,0.674c-0.027,0.556-0.105,1.716-0.206,2.143c0.115-1.75-0.344,1.209-0.249-0.634
		c0.13-2.572,1.022-4.74,0.998-6.166c-0.523,2.39-1.32,5.596-1.205,6.608l0.172-1.559l-0.062,3.594
		c-0.111,0.127-0.29,3.151-0.381,3.098c0.01-1.254,0.179-2.37,0.246-3.324c-0.091,0.216-0.452,3.274-0.361,4.572l0.064-1.628
		c0.162,2.925-0.054,6.653,0.469,9.464c-0.354-2.202,0.135,2.832-0.182,1.067c-0.126-0.525-0.135-1.303-0.13-1.539
		c-0.163-0.138,0.118,1.711,0.049,2.297c0.091,0.294,0.523,3.146,0.433,1.454c0.056,0.93,0.639,2.905,0.75,4.184
		c0.138-0.422,0.524,2.32,0.777,2.744c0.135,0.541,0.236,1.013,0.292,1.387c-0.433-1.107-0.816-2.508-1.158-3.973
		c-0.091-0.6-0.297-1.716-0.273-1.371l-0.071-0.016c-0.86-2.9-1.121-5.93-1.384-7.454l0.158,0.723
		c-0.546-2.256-0.202-4.562-0.383-6.907c0.039,0.093,0.039,0.364,0.066-0.069c-0.047-2.901-0.027-4.071,0.295-6.367l0.066,0.29
		c0.015-0.187,0.072-1.563-0.081-1.317c-0.155,1.957-0.145,2.32-0.346,4.061c-0.025-0.703,0.054-2.282,0.167-3.422l-0.167-0.148
		c-0.096-1.514,0.489-2.95,0.6-4.425L5.67,64.763l0.046-0.281c-0.163,0.763-0.253,1.431-0.207,1.623
		c-0.163,2.61-0.561,3.918-0.706,4.332c-0.182,1.22-0.182-0.462-0.307-0.324c-0.162,1.977,0.01,1.878,0.057,3.854
		c-0.037,0.629-0.081,0.236-0.091-0.034l0.091,1.475c-0.047,0.074-0.111,3.446-0.229,1.434c0-0.279,0-0.84,0.01-1.272
		c-0.305,2.763,0.096,7.566-0.121,7.443c0.121,1.524,0.066,1.102,0.383,3.5c0.361,1.072,0.278-0.137,0.866,2.425l-0.317-2.04
		l-0.322-1.23l0.433,2.135c-0.327-1.333-0.361-1.082-0.563-1.456c-0.457-3.304-0.196-4.267-0.322-5.93
		c0.216,1.015,0.342,2.783,0.467,2.115c0.01,1.661,0.264,1.809,0.418,3.722l-0.111-0.34c0.417,1.516,0.292,1.74,0.661,2.99
		l-0.047,0.25c0.615,2.729-0.044-0.86,0.645,1.863c0.469,2.435-0.111,0.865-0.055,1.549c-1.093-4.056-0.292,0.158-1.344-4.282
		c-0.226,0.064,0.049,1.839,0.568,4.238c-0.227-1.584,0.528,0.905,0.288-1.195c0.966,3.506,1.445,3.044,2.331,7.007l-0.064-0.094
		l0.745,1.5l0.754,2.153c-0.729-1.229-1.344-2.877-1.777-3.914c0.674,2.729,1.581,3.422,2.734,6.401
		c0.77,2.596-1.398-2.94-1.595-2.861c0.312,0.58,0.841,2.261,0.71,2.104c-1.052-2.856-0.831-1.662-1.959-4.849
		c0.678,1.505-0.024-0.255,0.207-0.02c-0.25-0.422-1.143-3.451-1.733-5.599c-0.317-0.458,0.389,1.888,0.72,3.278
		c0.816,2.537,1.691,5.172,2.623,7.026c1.084,2.66-0.074,0.279-0.044,0.433c0.912,2.443,0.595,0.978,0.966,1.705
		c1.949,3.412,1.716,4.032,3.176,6.417c1.354,1.912,4.481,6.607,7.099,9.631c-0.366-0.314-0.096,0.127,0,0.373
		c1.844,1.529,1.178,0.974,3.378,2.961l-1.649-1.878c1.433,1.405,2.682,2.413,3.84,3.824c-1.591-1.829,2.574,1.932,3.791,2.763
		c1.436,1.456,3.289,2.37,4.083,3.152l-0.227-0.143l2.402,1.691l-0.447,0.029c1.571,1.347,3.96,2.197,3.357,1.839
		c1.832,1.081,0.713,0.511,0.919,0.771c-1.091-0.497-3.522-1.515-3.97-2.198c0.141,0.113,0.502,0.374,0.603,0.413
		c-4.526-3.254-1.682-0.742-4.027-2.256c1.183,0.846,2.003,1.568,3.324,2.389c0.558,0.487,3.242,1.716,4.574,2.365
		c-1.831-0.896-2.733-1.437-4.006-2.375c1.103,0.763,1.435,0.645,2.376,1.303l-0.354-0.138l1.345,0.62
		c0.111,0.261,3.516,2.001,1.456,1.115c1.787,0.91,0.659,0.227,2.32,0.979l-3.151-1.756l0.145-0.122
		c1.199,0.51,1.416,0.786,2.689,1.454l-0.025-0.235l2.277,1.17c-0.229-0.24,1.543,0.58,2.067,0.747
		c1.275,0.61,0.297,0.61,2.608,1.289l-0.16-0.07c1.344,0.34,2.128,0.547,3.992,1.171c-0.115,0-0.634-0.138-0.907-0.191
		c2.579,1.066,7.003,1.549,8.161,2.094c-0.246,0.113-1.349-0.217-1.455-0.049c-4.118-1.066-3.001-0.251-7.788-1.864
		c-0.116-0.373-4.107-1.081-4.828-1.936c1.777,0.89,4.359,1.445,4.042,1.278c-1.772-0.408-4.051-1.555-5.209-2.052
		c0.966,0.566,0.558,0.626-0.249,0.443c2.705,1.155,7.7,3.132,11.755,4.12l-0.396-0.33c3.574,0.536-0.48,0.123,2.284,0.708
		l1.253,0.064l0.172,0.045l2.06,0.206c-1.436-0.271-0.812,0.024-2.368-0.389c-1.364-0.359,0.101-0.162,0.524-0.226
		c0.912,0.343,4.356,0.703,2.215,0.614l3.79,0.128c-0.034,0.099-0.865,0.044-1.244,0.054l2.719,0.226l-0.111,0.035
		c2.205,0.172,5.278-0.011,6.964-0.118c-3.731-0.207,1.772-0.172,1.429-0.369c1.319-0.137,1.777,0.379-1.067,0.659
		c-0.773-0.157-2.728,0.025-4.174,0.034c1.854,0.099,2.443-0.02,3.904-0.034c-1.028,0.133,1.956,0.152,1.922,0.173
		c-0.196,0.088-0.787,0.383-2.689,0.26c-2.803-0.02-0.293-0.227-1.129-0.183c-0.735-0.279-3.906,0.109-5.593-0.235
		c-0.181-0.034,0.379-0.015,0.649,0.011c-1.46-0.139-4.516-0.458-4.767-0.315l3.666,0.246c0.784,0.138-1.138,0.044-0.025,0.25
		c0.855,0.024,1.841,0.183,2.923,0.207l-0.204,0.063c2.22,0.069,5.723,0.285,8.27-0.137c0.545-0.404,1.853-0.738,2.91-1.226
		c3.731-0.466,7.667-1.086,11.51-2.241c-0.86,0.418-3.272,1.273-6.038,1.682l1.147-0.311c-2.204,0.384-3.011,0.665-3.911,0.916
		c0.093-0.046-0.08-0.046-0.433-0.025c-1.958,0.31-3.001,0.546-1.958,0.595l0.648-0.117h1.411c0.467-0.452,4.54-0.955,6.68-1.623
		c-1.449,0.545-2.708,1.008-4.711,1.204l0.241,0.129c-1.696,0.358-3.098,0.442-4.039,0.658l1.998-0.3l-0.018,0.112
		c1.41-0.279,3.16-0.771,4.48-0.909c1.128-0.295,2.139-0.737,5.105-1.593l-0.091,0.069c1.947-0.767,5.597-1.662,7.019-2.409
		c0.729-0.64-3.208,1.14-4.23,1.377c1.185-0.571,2.527-0.944,1.431-0.694c2.757-1.253,1.777-0.413,4.025-1.549l-1.354,0.457
		c1.009-0.534,2.771-1.164,3.678-1.867c0.045-0.271-1.651,0.929-3.706,1.588l0.83-0.517l-3.905,1.745
		c-1.09,0.698,0.043,0.394-2.479,1.327c-1.389,0.227-2.239,0.168-1.726-0.205c1.128-0.227,3.099-0.886,3.099-0.698
		c1.095-0.591,4.246-2.021,3.565-1.928l0.418-0.196c1.445-0.271,3.469-1.082,6.998-2.892c0.681-0.339,0.727-0.501,0.48-0.575
		c0.769-0.31,1.429-0.732,2.104-1.136c-0.354,0.256-0.58,0.551-1.084,0.896c1.536-0.914,3.026-1.889,4.553-2.837l-0.345,0.334
		c0.643-0.477,1.32-0.92,1.9-1.465c-1.013,0.885-2.876,1.907-2.538,1.499c2.275-1.515,3.495-2.492,5.191-4.07
		c0.201,0.271,0.85-0.187,0.361,0.442l-0.227,0.167c-0.567,0.688-1.922,1.991-3.026,2.931c4.049-3.146,3.072-2.271,6.461-5.212
		c0.488-0.059-2.982,2.892-2.115,2.281l-3.395,2.557c0.552-0.452,0.596-0.54,0.855-0.767c-2.173,1.976-3.287,2.251-4.982,3.657
		c-1.214,0.688,1.743-1.293,0.443-0.486c1.07-0.742,2.003-1.588,2.452-2.061c-2.834,1.751-1.46,1.239-3.793,2.847l-1.888,0.979
		c-1.126,0.6,0.436-0.079,0.5-0.112c-1.331,0.796-1.934,0.929-2.98,1.475c0.321-0.113,1.071-0.442,0.91-0.29
		c-1.816,0.732-3.446,1.829-5.239,2.242c1.021-0.281-0.974,0.736-1.743,1.071c1.183-0.394,2.413-0.693,3.561-1.189
		c4.264-2.153,6.88-3.56,11.09-6.529l-0.19,0.241c6.65-4.687,5.035-4.489,9.963-9.287c0.397,0.117,2.068-2.43,2.105-2.046
		c-1.365,1.583-1.029,1.317-0.55,0.943c0.73-0.982,1.093-1.696,2.663-3.432c-0.453,0.738,0.976-0.767-0.479,1.032
		c2.175-2.34,2.991-3.913,3.755-5.348c2.696-4.405,1.24-1.053,3.627-5.615l-0.283,0.703l1.501-2.827l-0.603,0.855
		c0.539-1.131,1.151-2.231,1.558-3.441c0.772-2.193-0.521,0.806-0.5,0.491l-0.158,0.782c-0.75,1.322-1.64,3.289-1.912,3.505
		c1.162-2.192,0.75-1.74,1.147-2.649l-1.058,2.129l-0.498,0.595c-1.068,2.104-2.113,3.564-2.801,4.794
		c0.615-0.768,0.777-1.387,1.37-2.036c-0.457,1.082-2.073,3.511-3.643,5.89c-0.093,0.011-0.681,0.708-0.476,0.384
		c0.021-0.063,0.364-0.433,0.519-0.658c-0.25,0.078,0.721-1.171-1.013,0.865c0.537-0.807,1.381-2.636,1.31-2.592
		c0.822-1.312,2.023-3.097,2.773-4.096l-0.021,0.104c0.761-1.105,1.898-3.722,2.188-3.819c0.351-0.742,1.384-2.743,0.19-0.767
		c0.568-1.151,1.201-2.242,1.615-3.442c0.037,0.714,1.492-2.575,0.238,1.023c0.045-0.129,0.549-1.426,1.369-3.491l-0.017,0.099
		l-0.063,0.3c-0.183,0.408-0.278,0.658-0.354,0.713c-0.322,1.308,0.483-0.478,1.32-2.399l0.021-0.502
		c0.774-1.652,1.138-2.674,1.796-4.975c0.407-1.825,0.604-3.702,0.729-5.58l0.283-1.608c0.272-0.688,0.604-3.127,0.639-2.144
		c0.121-0.227,0.029,0.59-0.225,1.627c-0.062,0.172-0.011-0.093-0.072,0.055c0.062,0.314,0.147,0.481,0.513-0.786
		c-0.287,1.308-0.341,1.475-0.451,2.403l0.293-1.322c-0.354,1.972-0.726,5.034-0.58,5.034c-0.082-0.639,0.373-1.857,0.623-2.93
		c-0.125,0.826-0.36,2.586-0.071,1.248c0.028-0.485,0.64-4.124,0.028-1.577c0.158-1.102,0.386-2.566,0.638-3.786
		c-0.142,1.479,0.093,0.536,0.156,0.959c0.137-1.323-0.101-1.312-0.125-1.529C144.188,81.961,144.938,80.477,144.702,76.219z
		 M139.321,84.518l-0.207,1.543C139.202,85.467,139.231,84.871,139.321,84.518z M25.004,123.957c0,0,0.093,0.024,0.294,0.231
		c-2.043-2.213-2.384-2.267-3.864-4.14l0.521,0.516c-0.16-0.412-1.48-1.848-2.682-3.363c-0.413-0.412-1.298-1.322-1.595-2.045
		l0.241,0.188c-0.106-0.324-1.148-1.967-2.311-3.767l0.568,0.665c0.368,0.432,0.767,0.958,1.194,1.587
		c-0.248-0.363-0.519-0.807-0.851-1.406l2.365,2.96c-1-1.617-1.434-1.662-2.653-3.668c0.278,0.021,0.288-0.167,1.768,1.844
		c1.138,1.824-0.187-0.039,0.337,0.939c1.091,1.249,1.091,1.813,2.392,3.023c1.308,1.638,0.784,1.22,1.138,1.795
		c-1.32-1.623,0.433,0.924-1.229-1.136c1.229,1.775,1.138,1.097,2.205,2.552l0.024,0.349c1.124,1.195,3.415,3.957,5.222,5.3
		c-1.354-1.308,0.932,0.605,0.779,0.31c-0.405-0.049-2.239-1.868-2.099-1.967c0.877,0.915,3.151,2.681,4.15,3.57l-1.662-1.549
		c0.821,0.545,3.665,2.669,3.756,2.698c0.856,0.714,2.23,1.613,2.638,2.036l-1.797-1.023l-0.523-0.535l-1.047-0.555
		c0.99,0.895,3.301,2.507,3.709,3.008C33.354,130.644,29.399,127.891,25.004,123.957z M95.026,141.332l-0.25-0.104
		c-4.482,1.342-7.644,2.454-12.466,3.062c0.647-0.176,2.468-0.433,2.204-0.471c-2.864,0.451-2.456,0.678-5.322,0.781
		c4.084-0.428-2.536,0.147,1.119-0.33c-5.076,0.865-10.603,0.207-13.926-0.147c0.831,0.197-1.399,0.025-1.5,0.05
		c-0.866-0.099-0.57-0.177,0.145-0.107c-1.716-0.246-1.989-0.503-1.682-0.576l3.515,0.368c-1.138-0.151-1.743-0.344-2.665-0.462
		c-0.408-0.033-0.865-0.099-1.455-0.196c-0.603-0.063-0.497-0.02-0.514,0.06c-1.121-0.113-2.537-0.256-4.354-0.443l0.105-0.028
		c-1.263-0.178-2.473-0.65-3.7-0.969l0.478,0.053l-2.196-0.521c0.101-0.172-0.624-0.285-0.467-0.363
		c-1.283-0.595-4.688-1.696-7.461-2.989l0.467,0.107c-1.605-0.467-5.083-2.684-7.34-3.992l0.091,0.024
		c1.416,0.738,1.767,0.763,1.163,0.355c0.499,0.235,1.273,0.613,1.738,0.825c0.765,0.447,2.95,1.578,3.061,1.824
		c-1.61-0.885-1.475-0.787-0.769-0.285c1.6,0.815,4.776,2.045,4.685,1.79c2.342,0.973,0.691,0.354,2.33,1.12
		c0.192,0.172-0.405-0.01-1.02-0.192c2.259,0.999,4.717,1.466,7.062,2.228c0.364-0.099-4.496-1.562-2.004-1.062
		c0.615,0.128,0.615-0.178,2.979,0.629c0.022,0.039-0.179-0.01-0.423-0.068c1.094,0.3,1.291,0.334,2.483,0.629
		c0.327,0.246-1.536-0.128-2.355-0.227c0.77,0.192,1.687,0.227,2.538,0.433l-0.216,0.03l2.59,0.477
		c1.094,0.079-1.951-0.408-2.067-0.546l1.681,0.217c1.869,0.521,7.009,0.821,8.734,1.308c2.23,0.147,1.253-0.108,1.821-0.216
		c1.354-0.158,2.594,0.049,3.924-0.011c-0.047-0.123,1.514-0.147,1.561-0.373l2.148-0.158c1.173-0.413-2.581,0.227-3.15,0.09
		c-1.135-0.207,1.57-0.139,0.82-0.276c-1.627,0.129-1.753,0.187-2.547,0.241c-0.946,0.011-1.445-0.055-1.416-0.143
		c2.633,0.107,1.426-0.187,3.574-0.157l0.071,0.049c0.044-0.191,3.091-0.354,4.229-0.54c2.357-0.016-1.868,0.441-1.797,0.491
		l2.854-0.324c-1.213,0.246,0.046,0.246-1.615,0.521c1.729-0.274,1.983,0.011,3.607-0.441c-1.82,0.629,2.363-0.237,2.604-0.114
		c-1.968,0.556-5.723,0.743-5.198,0.576c0.084,0.059-2.344,0.255-3.275,0.274l-1.364,0.379c1.57-0.138,3.661-0.447,3.108-0.182
		l2.103-0.305c-2.148,0.531-2.05,0.511-4.025,0.836c4.13,0.01,7.195-1.072,10.521-1.544l0.077-0.016
		c-0.022,0.016-0.047,0.016-0.058,0.016c6.062-1.534,7.658-1.819,9.089-1.986C96.779,140.723,95.867,141.096,95.026,141.332z
		 M123.226,122.335c-0.49,0.472-1.355,1.529-1.445,1.376c0.045,0.089-0.636,0.954,0.776-0.525l-1.004,1.155l0.272-0.187
		l-0.978,0.974c-0.451,0.378-1.208,1.11-1.933,1.617c-0.091,0,0.578-0.693,0.952-1.081c-1.022,0.938-1.933,1.754-2.548,2.256
		c1.731-1.317,0.875-0.526,1.355-0.708c-1.013,0.885-2.739,2.202-3.354,2.754c-1.46,1.11-2.8,1.833-1.888,1.007
		c-0.821,0.649-1.762,1.19-2.644,1.878c1.299-0.919,0.095,0.424,2.28-1.272c0.906-0.256-2.027,1.504-3.368,2.257
		c0.649-0.468,0.029-0.183,0.162-0.345c-1.893,1.313-0.893,0.9,0.539,0.055l-2.109,1.514l-2.247,1.269
		c-0.397-0.029-0.519-0.108,0.172-0.423l-1.365,0.541l1.943-1.048c-0.886,0.281-2.179,1.097-3.191,1.618
		c-1.197,0.467,2.547-1.476,3.65-2.33c1.038-0.719,3.378-2.104,3.061-1.771c-0.091-0.29,3.362-2.271,4.4-3.427
		c2.81-2.311,2.194-1.136,4.516-3.411l-0.931,0.702c2.013-2.064,2.929-2.891,5.186-5.133c0.416-0.143-1.002,1.062-1.481,1.612
		L123.226,122.335z M123.83,122.06c0.121-0.266-0.218-0.021,1.011-1.4c-0.056,0.151,0.045,0.073,0.217-0.095L123.83,122.06z
		 M126.9,119.355l0.341-0.256c-0.707,0.786-1.162,1.514-1.615,1.878c-0.08-0.009,2.945-4.321,3.596-5.821
		c1.065-1.71,2.386-3.382,2.97-4.474l-0.262,0.556c-5.304,7.793-2.801,4.759,0.726,0.23
		C130.847,114.056,129.129,116.917,126.9,119.355z M134.485,105.973c-0.034,0.335,0.272-0.078,0.638-0.737
		c-0.067,0.246-0.129,0.394-0.112,0.433l-1.038,1.878c-0.315,0.512-0.592,0.964-0.56,0.797c-0.118-0.241,1.095-2.468,1.279-3.21
		c0.19-0.601,1.331-3.334,1.214-2.676C134.994,104.326,135.634,104.409,134.485,105.973z M139.366,94.517l-0.024-0.451
		c0.179-0.487,0.293-0.625,0.412-0.729L139.366,94.517z M140.403,90.653l0.033-0.182c0.11-0.624,0.192-0.96,0.237-1.127
		L140.403,90.653z"/>
	<path fill="#AF6F29" d="M117.028,26.208c0.896,0.57,1.138,0.895,0.985,0.516c1.471,1.047,1.642,1.156,2.584,1.933
		c-1.49-1.563-4.949-4.592-7.27-6.077c-1.396-0.664-0.807,0.113-1.013,0.359c0.206,0.104,3.186,2.581,3.414,2.547
		c-1.295-1.283,2.048,1.489-0.503-0.752c-0.134-0.305,1.187,0.6,2.369,1.672C117.416,26.434,116.342,25.476,117.028,26.208z"/>
	<path fill="#AF6F29" d="M40.751,134.007c-0.096-0.172,2.249,1.199,0.841,0.29C40.363,133.652,40.545,133.835,40.751,134.007z"/>
	<path fill="#AF6F29" d="M117.706,27.58c0.614,0.551,0.848,0.703,1.209,1.057C118.915,28.44,118.229,27.993,117.706,27.58z"/>
	<path fill="#AF6F29" d="M8.214,59.512c0.366-0.246-0.43,2.566-0.248,3.294c0.558-2.773,0.442-3.708,1.158-5.959
		C8.853,57.29,8.499,58.391,8.214,59.512z"/>
	<path fill="#AF6F29" d="M29.564,21.611c0.312-0.182,0.442-0.271,0.811-0.546L29.564,21.611z"/>
	<polygon fill="#AF6F29" points="75.896,5.731 74.296,5.687 75.94,5.751 	"/>
	<path fill="#AF6F29" d="M10.126,49.404c0.361-0.895,0.793-1.652,0.703-1.293c0.661-1.888,0.796-1.878,0.686-2.208
		c0.514-1.18,1.32-2.311,0.706-0.973l1.64-3.324l-1.096,1.908c0.115-0.61,1.752-3.068,1.878-3.815l-1.908,3.545l0.03-0.207
		c-0.364,0.841-1.249,2.394-1.566,2.916c0,0,0-0.059,0.01-0.128c-1.605,3.56-0.035,0.958-1.48,4.494
		C9.819,50.092,9.944,49.807,10.126,49.404z"/>
	<path fill="#AF6F29" d="M11.208,45.825c0.081-0.177,0.158-0.354,0.263-0.57C11.279,45.608,11.218,45.746,11.208,45.825z"/>
	<path fill="#AF6F29" d="M66.673,5.957c0.442-0.02,1.077-0.054,1.61-0.123C68.32,5.731,67.207,5.893,66.673,5.957z"/>
	<path fill="#AF6F29" d="M63.804,6.621c-1.878,0.442-1.033-0.04-2.311,0.433c0.068,0.142,2.39-0.433,2.94-0.492l0.155-0.433
		C62.519,6.503,62.676,6.754,63.804,6.621z"/>
	<path fill="#AF6F29" d="M59.097,7.525l2.513-0.728l-3.995,0.787l-0.251,0.236c0.332-0.138,1.721-0.472,2.286-0.521L59.097,7.525z"
		/>
	<path fill="#AF6F29" d="M8.111,100.378c-0.16-0.433-0.372-1.013-0.669-1.604C7.398,98.941,7.875,99.871,8.111,100.378z"/>
	<polygon fill="#AF6F29" points="7.911,64.016 8.147,62.443 8.081,62.59 7.85,64.173 	"/>
	<path fill="#AF6F29" d="M7.715,62.688c0.069-0.855,0.135-1.485,0.351-2.577C7.75,61.41,7.558,62.615,7.715,62.688z"/>
	<path fill="#AF6F29" d="M7.009,58.189c0.071-0.26,0.207-0.781,0.342-1.194c0.027,0.33-0.932,3.653-0.504,2.9
		c0.445-2.193,0.711-2.478,0.913-3.854c0.658-1.937,1.047-3.377,1.541-4.218c0.202-0.581,0.12-0.708,0.398-1.426l-0.196,0.491
		l-0.307-0.034l-0.706,1.853l0.932-3.205c-0.729,0.86-1.752,4.002-2.161,5.255c0.726-1.48-0.26,1.274,0.868-1.696l-0.253,1.706
		l-0.895,2.689C7.053,57.531,6.53,59.512,7.009,58.189z"/>
	<path fill="#AF6F29" d="M8.066,60.112c0.045-0.207,0.091-0.393,0.148-0.6c-0.022,0.01-0.022,0-0.042,0.01
		C8.127,59.738,8.101,59.925,8.066,60.112z"/>
	<path fill="#AF6F29" d="M140.947,53.116c-0.078-0.133-0.283-0.526-0.505-0.949l0.72,2.144
		C141.209,54.281,141.183,54.016,140.947,53.116z"/>
	<path fill="#AF6F29" d="M30.058,130.673l0.634,0.836c-0.341-0.473,2.254,1.333,1.957,0.914
		C30.736,131.17,31.624,132.001,30.058,130.673z"/>
	<path fill="#AF6F29" d="M114.058,18.361c-0.806-0.472-1.91-1.259-2.549-1.755c-0.308-0.083,0.59,0.645,0.408,0.669
		c2.674,2.095,3.56,1.765,6.042,4.007c-0.182,0.02-1.048-0.561,0.64,0.826l-0.442-0.334c2.738,2.148,1.897,1.952,3.761,3.137
		l-0.157,0.088c1.183,1.037,3.333,3.235,4.545,4.459l-0.089-0.044c3.217,3.628,1.809,2.04,5.142,6.347
		c-0.479-0.684-1.091-1.264-1.662-1.893c1.114,1.504,1.504,1.76,2.22,2.916c-0.067-0.054-0.058,0.157-0.443-0.359
		c1.184,1.662,2.411,3.274,3.504,5c0.841,1.332-0.045-0.359-0.082-0.615c0.379,0.472,1.628,3.063,1.609,3.245
		c-0.234-0.324-0.984-1.672-0.597-0.787l1.298,1.898c1.215,2.763-1.398-1.888-2.163-3.151c1.298,2.778,2.095,3.407,3.303,6.45
		c-0.357-0.899-0.478-1.509-0.66-1.991c0.203-0.207,1.216,2.685,2.044,4.7c-0.433-1.318-0.063-0.605,0.387,0.314l0.183,0.354
		l0.146,0.325l-0.101-0.256v-0.25c-0.726-1.682-1.086-3.063-1.535-4.165c0.242,1.175-1.761-3.648-2.604-4.887l-0.819-1.524
		l-0.294-0.57c-0.034-0.128,0.111,0,0.611,0.84c-0.356-0.732-1.908-3.003-1.826-2.738c-1.177-1.721-2.152-3.584-3.522-5.152
		l-0.291-0.457c-0.149-0.163-0.18-0.163-0.18-0.163c-5.201-6.755-11.672-12.537-18.94-17.026c0.624,0.448,1.219,0.91,1.896,1.392
		C111.012,16.228,114.671,18.514,114.058,18.361z"/>
	<path fill="#AF6F29" d="M141.822,57.325c-0.228-1.136,0.377,0.787,0.498,0.958l-1.158-3.972l-0.293-0.236L141.822,57.325z"/>
	<path fill="#AF6F29" d="M142.597,60.388c-0.09-0.492-0.229-1.082-0.444-1.938C142.311,59.212,142.46,59.841,142.597,60.388z"/>
	<path fill="#AF6F29" d="M142.714,62.511c-0.024-1.25-1.027-5.074-0.254-2.478c-0.356-1.603-1.322-4.73-1.591-5.428l0.313,1.386
		c-0.588-2.281-1.548-4.396-2.091-5.207c1.115,2.689,1.32,2.513,2.324,6.087c0.966,3.889-0.426-0.88,0.089,1.716l0.795,2.744
		l-0.226-1.333c0.318,0.378,0.804,4.332,1.023,3.938c0.385,2.901,0.433,3.756,0.567,6.951c0.16,0.749,0.054-0.432-0.01-1.327
		c0.125,1.608,0.467,1.691,0.397,3.816c-0.07,0.944,0.228,0.486,0.155-0.935c0.107,1.411,0.035,2.793,0.035,4.337l0.197-1.834v1.896
		l0.09-1.597c0.024,0.35,0.024,0.703,0.037,1.042c0.053-1.632,0.353-2.66,0.11-4.631l-0.172,0.761
		c-0.115-0.826-0.326-2.836-0.453-3.829c0.069-0.266-0.045-3.137,0.228-1.033c-0.418-3.908-0.912-4.042-1.684-7.167
		c0.156,0.855,0.228,1.406,0.474,2.581C142.57,60.987,142.915,62.698,142.714,62.511z"/>
	<path fill="#AF6F29" d="M84.448,6.631c3.012,0.61,7.474,1.593,7.759,1.558c-0.116,0-0.317,0.01,0.263,0.226l1.764,0.32
		l-1.619-0.556c0.584,0.074,1.56,0.33,2.625,0.654c-3.359-1.048-6.769-1.928-10.245-2.522C82.354,5.957,86.408,6.798,84.448,6.631z"
		/>
	<path fill="#AF6F29" d="M75.483,5.49l0.413,0.241c0.73,0.044,1.465-0.025,2.195,0.104C77.865,5.662,77.603,5.46,75.483,5.49z"/>
	<polygon fill="#AF6F29" points="80.124,5.957 79.537,5.992 80.98,6.164 	"/>
	<path fill="#AF6F29" d="M79.537,5.992l-1.445-0.157c0.101,0.059,0.191,0.123,0.418,0.207L79.537,5.992z"/>
	<path fill="#AF6F29" d="M94.866,9.03c0.18,0.127,0.956,0.467-0.047,0.196c5.146,1.49,9.482,3.638,14.406,6.18
		c-3.742-2.286,2.6,1.234,1.523,0.345l-2.138-1.067l0.215,0.03l-2.572-1.377c0.463,0.398,0.85,0.62,0.695,0.659
		c-3.416-1.858-0.966-0.806-3.506-2.124l-4.017-1.682l0.347,0.103c-0.347-0.143-0.502-0.172-0.629-0.216
		c-0.8-0.3-1.634-0.506-2.441-0.777c1.837,0.614,3.618,1.323,4.077,1.687C97.691,9.827,99.21,10.485,94.866,9.03z"/>
	<path fill="#AF6F29" d="M95.239,8.833c0.49,0.152,0.979,0.305,1.464,0.467C96.209,9.133,95.719,8.981,95.239,8.833z"/>
	<polygon fill="#AF6F29" points="5.716,67.576 5.702,67.654 5.736,67.693 	"/>
	<polygon fill="#AF6F29" points="7.145,65.786 7.171,65.712 7.191,65.516 	"/>
	<path fill="#AF6F29" d="M91.504,140.644c0,0,0.154-0.009,0.386-0.055C91.955,140.564,91.865,140.564,91.504,140.644z"/>
	<path fill="#AF6F29" d="M6.346,81.41c0.002,0,0.002-0.02,0.004-0.015C6.35,81.302,6.348,81.321,6.346,81.41z"/>
	<path fill="#AF6F29" d="M6.058,61.488c-0.14-0.191,0.337-2.615,0.705-3.647c-0.277,0.737-0.027-0.423-0.162-0.216
		c-0.135,0.541-0.308,1.155-0.477,2.021c-0.172,0.398,0-0.969,0.386-1.981c-0.487,1.259,0.327-1.632-0.297,0.128
		c-0.841,3.904-1.424,6.691-1.364,9.498c0.071-2.271,0.74-4.734,1.113-6.538l0.035,0.792c-0.523,2.041-0.831,3.289-1.01,5.333
		c0.125-1.524,0.587-3.008,0.885-4.523c0.585-2.084,0.342-0.658,0.024,1.014c0.091-0.413,0.182-0.777,0.229-0.866
		C6.102,62.295,6.918,57.486,6.058,61.488z"/>
	<path fill="#AF6F29" d="M139.889,64.38c-0.418-1.617-0.479-0.969-0.955-3.412c0.269,0.944,0.634,1.111,0.115-1.239
		c-1.87-5.767-3.731-9.366-6.621-14.091c0.11-0.31-1.993-4.12-3.223-5.87c0.586,0.584,1.541,1.858,2.382,3.269
		c-0.478-0.919-1.48-2.385-2.175-3.5l-0.578-0.251c-3.253-4.936,1.021,1.047-0.397-1.263c-0.902-1.372-1.48-1.672-2.114-2.468
		c2.944,3.643-0.604-0.339,2.089,3.505c-0.514-0.467-2.15-2.616-3.107-3.884c-0.94-1.553,1.107,1.131,1.552,1.308
		c-1.209-1.45-1.037-1.155-1.642-1.711c-1.681-2.448-4.274-4.346-5.242-5.88c-1.514-1.529-1.56-1.259-2.556-1.981
		c-0.312-0.015,2.296,2.188,2.638,2.955l-0.207-0.344l1.255,1.347c-1.164-1.308,0.336,0,1.005,0.659
		c0.479,0.491,1.427,1.455,1.233,1.376l-0.74-0.708c0.888,0.983,1.98,2.144,2.776,3.304l-0.425-0.354
		c1.082,1.16,2.13,2.251,3.424,4.184l-0.931-0.978c1.209,1.396,3.572,4.926,4.631,7.665c-0.107-0.3-0.353-0.826-0.146-0.546
		c0.84,1.505,1.269,2.734,0.791,2.075c1.024,1.367,2.335,5.91,3.32,7.965c1.48,3.206,2.754,6.52,3.723,9.96l-0.307-1.229
		C139.502,63.269,139.366,62.742,139.889,64.38z"/>
	<polygon fill="#AF6F29" points="141.57,76.119 141.541,78.549 141.595,76.391 	"/>
	<polygon fill="#AF6F29" points="131.833,43.484 131.587,43.037 131.814,43.484 	"/>
	<path fill="#AF6F29" d="M135.615,50.839c-0.127-0.561,0.996,1.662-0.322-1.337c0.115,0.236,0.07,0.063,0.181,0.315
		c-0.615-2.045-1.304-2.665-2.113-4.288c-0.423-1.013,0.94,1.514,0.515,0.58c-1.005-2.045-3.334-6.313-3.641-5.949
		c-0.923-1.377-0.968-1.613-1.184-2.065c-1.709-1.986-5.825-7.788-6.278-7.336c0.715,0.629,1.726,1.805,2.638,2.862l-0.262,0.202
		c1.293,1.607,0.342,0.044,2.16,2.335l-0.524-0.694c1.524,1.5,3.314,4.754,4.713,6.81c-0.187-0.207,0.614,1.392,0.336,1.209
		c0.822,1.509,1.617,2.975,2.167,3.688C134.485,48.111,135.158,49.566,135.615,50.839z"/>
	<path fill="#AF6F29" d="M140.979,71.637c-0.067-0.694-0.159-0.891-0.205-0.984c0.363,2.577,0.181,5.147,0.205,7.718
		c0.082-0.227,0.183-2.457,0.229-0.982c0.089-0.659,0.021-2.684-0.082-2.97l0.117,0.546c-0.106-1.775,0.08-3.009,0.25-1.844
		l-0.015-0.157l-1.037-4.868C140.572,69.905,140.774,69.454,140.979,71.637z"/>
	<path fill="#AF6F29" d="M102.775,136.081c-0.515,0.266-1.083,0.57-1.769,0.949C101.33,136.897,102.024,136.514,102.775,136.081z"/>
	<polygon fill="#AF6F29" points="5.146,86.843 5.146,86.897 5.212,87.104 	"/>
	<polygon fill="#AF6F29" points="88.795,144.921 88.704,144.931 88.532,144.98 	"/>
	<path fill="#AF6F29" d="M99.921,141.705c-0.433,0.158-1.104,0.433-1.45,0.522C98.395,142.395,100.339,141.538,99.921,141.705z"/>
	<path fill="#AF6F29" d="M127.145,122.32l-0.703,0.998l1.003-1.146C127.145,122.482,127.514,121.773,127.145,122.32z"/>
	<path fill="#AF6F29" d="M93.618,143.563c-2.206,0.61-1.824,0.728-3.143,1.151c2.503-0.747,3.042-0.837,6.031-1.775
		C94.151,143.563,93.536,143.731,93.618,143.563z"/>
	<polygon fill="#AF6F29" points="43.544,139.302 45.095,140.02 43.922,139.404 	"/>
	<path fill="#AF6F29" d="M30.601,130.295c-0.226-0.252-0.812-0.807-0.489-0.605C29.578,129.326,29.507,129.479,30.601,130.295z"/>
	<polygon fill="#AF6F29" points="137.161,107.487 137.376,107.191 138.001,105.658 137.829,105.963 	"/>
	<path fill="#AF6F29" d="M46.299,140.176l-0.686-0.348C45.638,139.857,45.886,139.995,46.299,140.176z"/>
	<path fill="#AF6F29" d="M140.683,99.297l0.901-3.511c-0.061,0.481,0.419-1.186,0.294-0.433c0.06-0.266,0.422-1.524,0.26-1.19
		l-0.2,0.714c0.297-1.889-0.025-0.782,0.418-3.909c-0.496,1.879-0.578,2.733-0.804,3.746l-0.254,0.905l-0.544,2.949L140.683,99.297z
		"/>
	<path fill="#AF6F29" d="M32.172,131.509c-2.675-2.011-3.948-2.832-6.529-5.073c3.262,3.106,4.617,3.756,7.596,6.076L32.172,131.509
		z"/>
	<path fill="#AF6F29" d="M136.531,107.502l0.582-1.15C136.818,106.917,136.656,107.251,136.531,107.502z"/>
	<path fill="#AF6F29" d="M129.945,118.599l0.047-0.035C130.106,118.372,130.037,118.451,129.945,118.599z"/>
</g>
</svg>
