<?xml version="1.0" encoding="utf-8"?>
<!-- Generator: Adobe Illustrator 18.1.0, SVG Export Plug-In . SVG Version: 6.00 Build 0)  -->
<svg version="1.1" id="Layer_1" xmlns="http://www.w3.org/2000/svg" xmlns:xlink="http://www.w3.org/1999/xlink" x="0px" y="0px"
	 viewBox="0 0 150 150" enable-background="new 0 0 150 150" xml:space="preserve">
<g>
	<path fill="#A7CA44" d="M82.6,92.9H65.2l16.4-42l7.1-16.8c0.4-5.4,1.4-10.8,3-15.6H69.7L22.5,140.8h24.2l10-25.2H90
		c-3.2-7.1-5-13-5.4-14.4C83.8,98.4,83.2,95.7,82.6,92.9z"/>
	<path fill="#92B23B" d="M121.2,84.8c-4.9-17-11-28.6-16-43c-4-11.6-7.1-25.8-2.6-36.8c-10.9,9.1-13,29.3-11.6,44.2
		c1.4,15.4,5.4,26.3,11.6,40.5c8,18.3,13.8,32.2,14.5,52c-3.1-18.1-10.7-30.8-19-45.3c-10.8-18.8-15.9-40.1-8-58.7
		c-3.1,4.5-5.6,13.4-6.4,20.1c-1.9,14.6-0.9,29.4,2.9,42.8c3.3,11.4,14.5,39.6,34.2,45.9C125.2,123.4,125.6,100.1,121.2,84.8z"/>
</g>
</svg>
