<?xml version="1.0" encoding="utf-8"?>
<!-- Generator: Adobe Illustrator 18.1.0, SVG Export Plug-In . SVG Version: 6.00 Build 0)  -->
<svg version="1.1" id="Layer_1" xmlns="http://www.w3.org/2000/svg" xmlns:xlink="http://www.w3.org/1999/xlink" x="0px" y="0px"
	 viewBox="0 0 2000 2000" enable-background="new 0 0 2000 2000" xml:space="preserve">
<g>
	<path fill="none" d="M398.8,1379.4c312.3,206.3,559.3-60.2,437.5-289.8C761.3,948.4,684,881.5,638.8,805.7
		c12.5,26,29.1,53.5,51.3,81.7c111,140.7,185.4,267.9,101.5,387c-83.9,119.1-259.2,81.8-324.8-36.5
		c-69.1-124.5-62.3-197.6-138.1-194.9c-75.8,2.7-192.4,14.6-197-311.4C131.7,731.7,58.8,1154.7,398.8,1379.4z"/>
	<path fill="none" d="M1652.3,1043.1c-75.8-2.7-69,70.4-138,194.9c-65.6,118.4-240.9,155.6-324.8,36.5
		c-83.9-119.1-9.5-246.3,101.5-387c22.2-28.2,38.8-55.7,51.3-81.7c-45.3,75.7-122.5,142.6-197.4,283.8
		c-121.8,229.6,125.2,496.1,437.5,289.8c340-224.7,267-647.7,267-647.7C1844.7,1057.7,1728.1,1045.8,1652.3,1043.1z"/>
	<linearGradient id="SVGID_1_" gradientUnits="userSpaceOnUse" x1="545.7685" y1="2134.1694" x2="545.7685" y2="771.2495">
		<stop  offset="0" style="stop-color:#B6E1EE"/>
		<stop  offset="0.1108" style="stop-color:#ACDEEC"/>
		<stop  offset="0.3027" style="stop-color:#90D6E8"/>
		<stop  offset="0.5526" style="stop-color:#62C9E1"/>
		<stop  offset="0.8476" style="stop-color:#23B7D8"/>
		<stop  offset="1" style="stop-color:#00ADD2"/>
	</linearGradient>
	<path fill="url(#SVGID_1_)" d="M673.9,741.3c-46-70.4-21.6-184.1,55.5-208.4c77.1-24.4,117.2,47.4,159.7,106.9
		c33.8,47.4,88.9,41,97.5,32.5c8.5-8.5,4-25.7-45.1-23c-28.3,1.6-28.4-39.8-14.2-45.5c14.2-5.7,7.9-54.7-92.3-92.6
		c-99.2-37.6-208,13.7-231.1,117.7C563,739.4,626.8,890,706.4,980.2c81.2,92,120.4,217.2-12.2,282.2c-132.6,65-201-83.9-233.5-186.7
		c-32.5-102.9-84.6-88-195.6-98.8c-111-10.8-133.4-245.1-133.4-245.1c4.6,326,121.2,314.1,197,311.4c75.8-2.7,69,70.4,138.1,194.9
		c65.6,118.4,240.9,155.6,324.8,36.5c83.9-119.1,9.5-246.3-101.5-387c-22.2-28.2-38.8-55.7-51.3-81.7
		c45.2,75.8,122.5,142.6,197.5,283.9c121.8,229.6-125.2,496.1-437.5,289.8c-340-224.7-267-647.7-267-647.7
		c-15.7,16.1-57.4,199.1-3.3,394c54.2,194.9,261.2,368.1,496.7,366.7c235.5-1.3,326.2-133.9,338.3-254.4
		c12.2-120.5-27-204.4-90.7-268C809.2,906.4,719.9,811.7,673.9,741.3z"/>
	<linearGradient id="SVGID_2_" gradientUnits="userSpaceOnUse" x1="1435.3171" y1="2134.1658" x2="1435.3171" y2="771.2535">
		<stop  offset="0" style="stop-color:#B6E1EE"/>
		<stop  offset="0.1108" style="stop-color:#ACDEEC"/>
		<stop  offset="0.3027" style="stop-color:#90D6E8"/>
		<stop  offset="0.5526" style="stop-color:#62C9E1"/>
		<stop  offset="0.8476" style="stop-color:#23B7D8"/>
		<stop  offset="1" style="stop-color:#00ADD2"/>
	</linearGradient>
	<path fill="url(#SVGID_2_)" d="M1849.3,731.7c0,0,73,423.1-267,647.7c-312.3,206.3-559.3-60.2-437.5-289.8
		c74.9-141.2,152.2-208.1,197.4-283.8c-12.5,26-29.1,53.5-51.3,81.7c-111,140.7-185.4,267.9-101.5,387
		c83.9,119.1,259.2,81.8,324.8-36.5c69-124.5,62.3-197.6,138-194.9C1728.1,1045.8,1844.7,1057.7,1849.3,731.7
		c0,0-22.4,234.3-133.4,245.1c-111,10.8-163.1-4-195.6,98.8c-32.5,102.8-100.8,251.7-233.5,186.7c-132.6-65-93.4-190.1-12.2-282.2
		C1354.3,890,1418,739.5,1377.2,629c-23-104-131.8-155.4-231.1-117.8c-100.1,37.9-106.4,86.9-92.3,92.6c14.2,5.7,14.2,47-14.2,45.5
		c-49.2-2.7-53.6,14.4-45.1,23c8.5,8.5,63.6,14.9,97.4-32.5c42.5-59.5,82.6-131.3,159.7-106.9c77.1,24.3,101.5,138,55.5,208.4
		c-46,70.4-135.3,165.1-198.9,228.7c-63.6,63.6-102.9,147.5-90.7,268c12.2,120.5,102.8,253.1,338.3,254.4
		c235.5,1.4,442.6-171.8,496.7-366.7C1906.8,930.8,1865,747.8,1849.3,731.7z"/>
	<linearGradient id="SVGID_3_" gradientUnits="userSpaceOnUse" x1="928.6251" y1="1358.5767" x2="1048.4166" y2="280.4202">
		<stop  offset="0" style="stop-color:#FDC0D3"/>
		<stop  offset="0.1728" style="stop-color:#FCB6CC"/>
		<stop  offset="0.4718" style="stop-color:#F79ABB"/>
		<stop  offset="0.8587" style="stop-color:#EF6CA0"/>
		<stop  offset="1" style="stop-color:#EB5A95"/>
	</linearGradient>
	<path fill="url(#SVGID_3_)" d="M1102.8,856.5l2.6-2.6l-0.1-0.1c12.2-14.1,19.6-32.4,19.6-52.5c0-44.3-35.9-80.2-80.2-80.2
		c-20.1,0-39.7,7.7-53.8,19.8l-0.2,0.2c-14.1-12.2-34.1-20.1-54.2-20.1c-44.3,0-80.2,35.9-80.2,80.2c0,20.1,7.4,38.4,19.6,52.5
		l-0.1,0.1l2.6,2.6c0.9,1,1.9,2,2.9,2.9l109.2,109.3l109.2-109.2C1100.8,858.6,1101.8,857.5,1102.8,856.5z"/>
</g>
</svg>
