<?xml version="1.0" encoding="utf-8"?>
<!-- Generator: Adobe Illustrator 18.1.0, SVG Export Plug-In . SVG Version: 6.00 Build 0)  -->
<svg version="1.1" id="Layer_1" xmlns="http://www.w3.org/2000/svg" xmlns:xlink="http://www.w3.org/1999/xlink" x="0px" y="0px"
	 viewBox="0 0 150 150" enable-background="new 0 0 150 150" xml:space="preserve">
<g>
	<path fill="#005179" d="M64,33.7c-1.1-3.5-4.8-5.4-8.3-4.3c-3.5,1.1-5.4,4.8-4.3,8.3c1.1,3.5,4.8,5.4,8.3,4.4
		C63.2,40.9,65.1,37.2,64,33.7"/>
	<path fill="#005179" d="M58.3,10.5c18,25.2,4,47.2-6.2,50.6c5.7-11.4-3-26.8-14.7-26.5c1.8,1,3.3,2.5,4.5,4
		c2.9,3.9,4.2,8.8,3.6,13.6c-1,9-8.1,16.7-18.9,16.5c3.3,1.7,6.5,3,9.9,3.5C70.8,77.9,87.1,32.2,58.3,10.5"/>
	<path fill="#008044" d="M86,33.7c1.1-3.5,4.8-5.4,8.3-4.3c3.5,1.1,5.4,4.8,4.3,8.3c-1.1,3.5-4.8,5.4-8.3,4.4
		C86.8,40.9,84.9,37.2,86,33.7"/>
	<path fill="#008044" d="M91.7,10.5c-18,25.2-4,47.2,6.1,50.6c-5.7-11.4,3-26.8,14.7-26.5c-1.8,1-3.3,2.5-4.5,4
		c-2.9,3.9-4.2,8.8-3.6,13.6c1,9,8.1,16.7,18.9,16.5c-3.3,1.7-6.5,3-9.9,3.5C79.1,77.9,62.9,32.2,91.7,10.5"/>
	<path fill="#8D603D" d="M64,113.9c-1.1,3.5-4.8,5.4-8.3,4.3c-3.5-1.1-5.4-4.8-4.3-8.3c1.1-3.5,4.8-5.4,8.3-4.3
		C63.2,106.7,65.1,110.4,64,113.9"/>
	<path fill="#8D603D" d="M58.3,137.2c18-25.2,4-47.2-6.2-50.6c5.7,11.5-3,26.8-14.7,26.5c1.8-1,3.3-2.5,4.5-4
		c2.9-3.9,4.2-8.9,3.6-13.6c-1-9-8.1-16.7-18.9-16.5c3.3-1.7,6.5-3,9.9-3.5C70.8,69.7,87.1,115.4,58.3,137.2"/>
	<path fill="#5A3772" d="M86,113.9c1.1,3.5,4.8,5.4,8.3,4.3c3.5-1.1,5.4-4.8,4.3-8.3c-1.1-3.5-4.8-5.4-8.3-4.3
		C86.8,106.7,84.9,110.4,86,113.9"/>
	<path fill="#5A3772" d="M91.7,137.2c-18-25.2-4-47.2,6.1-50.6c-5.7,11.5,3,26.8,14.7,26.5c-1.8-1-3.3-2.5-4.5-4
		c-2.9-3.9-4.2-8.9-3.6-13.6c1-9,8.1-16.7,18.9-16.5c-3.3-1.7-6.5-3-9.9-3.5C79.1,69.7,62.9,115.4,91.7,137.2"/>
</g>
</svg>
