<?xml version="1.0" encoding="utf-8"?>
<!-- Generator: Adobe Illustrator 18.1.0, SVG Export Plug-In . SVG Version: 6.00 Build 0)  -->
<svg version="1.1" id="Layer_1" xmlns="http://www.w3.org/2000/svg" xmlns:xlink="http://www.w3.org/1999/xlink" x="0px" y="0px"
	 viewBox="0 0 150 150" enable-background="new 0 0 150 150" xml:space="preserve">
<g>
	<g>
		<path fill="#00BDD7" d="M50.5,36.4c8-10,19.1-17.9,31.7-20.9c-9.1,6.1-17.3,14.1-21.8,24.2c23.4,5.3,48.1,4.7,71.3-1.4
			c0.8-0.2,1.5-0.3,2.3-0.4c-6.4,3.8-13.6,6-20.8,7.7c-18.4,4.2-37.6,4.8-56.2,1.7C55,52.8,54,58.5,53.7,64.2
			c-5.1,0.5-10.3,0.6-15.5,0.3c1.1-6.9,3.5-13.5,6.7-19.8c-4.3-1.4-8.7-2.8-12.4-5.4c-1.6-1.2-3.2-2.7-3.5-4.8
			c0.2-3.8,4.1-5.7,7.1-7.1c6.2-2.4,12.8-3.9,19.5-4.3c-4.1,1.1-9.1,2.2-11.1,6.4C43.8,33.2,47.8,35.1,50.5,36.4z"/>
	</g>
	<g>
		<g>
			<path fill="#FFD330" d="M83.4,67.8c22.4-3.5,44.4-10.2,64.4-20.9c-5.6,5.7-12.8,9.4-19.8,13.1c-22.7,11.2-47.2,19.2-72.3,22.6
				C59,94.7,66.2,105.8,76,113.7c11.9,9.7,27.6,14.6,42.9,13.2c3.9-0.2,7.8-1.4,11.7-1.8c-9.9,6-21.4,9.4-33,9.3
				c-15.4-0.1-30.7-6.4-41.7-17.2c-9.3-8.9-15.5-20.9-17.6-33.6c-9.3-0.1-19-0.7-27.7-4.3c-3.5-1.6-7.3-3.9-8.3-7.9
				c-0.9-4.2,2.4-7.6,5.4-10c8.5-6.6,18.8-10.2,28.9-13.6c-4.9,2.6-10.4,5.1-13.5,9.9c-1.6,2.3-0.9,5.5,1.4,7
				c4,2.9,9.1,3.7,13.9,4.4C53.4,71.1,68.5,69.9,83.4,67.8z"/>
		</g>
	</g>
</g>
</svg>
