<?xml version="1.0" encoding="utf-8"?>
<!-- Generator: Adobe Illustrator 18.1.0, SVG Export Plug-In . SVG Version: 6.00 Build 0)  -->
<svg version="1.0" id="Layer_1" xmlns="http://www.w3.org/2000/svg" xmlns:xlink="http://www.w3.org/1999/xlink" x="0px" y="0px"
	 viewBox="0 0 150 150" enable-background="new 0 0 150 150" xml:space="preserve">
<g>
	<path fill="none" d="M59.4,61.7c-1.6-0.3-3.1-0.7-4.7-1.2c-0.9-0.3-1.8-0.7-2.7-1.2c0.9,1.9,1.4,4,1.5,6.3
		C55.8,65.1,57.7,63.8,59.4,61.7z"/>
	<path fill="none" d="M95.3,62c1.4,0.3,3.1,0.3,4.8,0.2c1.8-0.1,3.5-0.7,5.3-1.7c2-1.1,3.4-2.7,4.1-4.6c0.7-2,0.6-3.8-0.4-5.6
		c-1-1.8-2.6-2.9-4.6-3.4c-2.1-0.5-4.1-0.2-6.1,1c-1.8,1-3.2,2.2-4.2,3.6c-1,1.4-1.8,2.8-2.4,4.1c-0.6,1.6-1,3.1-1.3,4.7
		c0,0.1,0.5,0.3,1.4,0.7C92.7,61.4,93.8,61.7,95.3,62z"/>
	<path fill="none" d="M61.3,111.1c1.2-1.4,2.2-2.8,3-4.3c0.1-1,0.3-2,0.6-3c0.3-1,0.7-2,1.2-3c0-0.6,0.1-1.2,0-1.8
		c-2.7,0.2-5,1-6.8,2.4c-2.1,1.7-3.6,3.8-4.6,6.4c-1,2.6-1.4,5.5-1.2,8.8c0,0.1,0,0.1,0,0.2c0.1,0,0.1,0,0.2-0.1
		C56.8,115.2,59.3,113.4,61.3,111.1z"/>
	<path fill="none" d="M61.1,58.4c0.4-0.9,0.7-2,1-3.5c0.3-1.4,0.3-3.1,0.2-4.8c-0.1-1.8-0.7-3.5-1.7-5.3c-1.1-2-2.7-3.4-4.6-4.1
		c-2-0.7-3.8-0.6-5.6,0.4c-1.8,1-2.9,2.6-3.4,4.6c-0.5,2.1-0.2,4.1,1,6.1c1,1.8,2.2,3.1,3.6,4.2c1.4,1,2.8,1.8,4.1,2.4
		c1.6,0.6,3.1,1,4.7,1.3C60.5,59.7,60.7,59.2,61.1,58.4z"/>
	<path fill="none" d="M43.9,51.5c0.2,0.1,0.5,0.3,0.7,0.4c-0.2-0.5-0.4-1-0.6-1.5c-0.2-0.8-0.4-1.7-0.4-2.7c-0.1-1,0-2.1,0.3-3.2
		c0.3-1.1,0.7-2.2,1.4-3.2c0.7-1,1.6-1.9,2.8-2.7c1.5-1,3-1.5,4.5-1.6c1.5-0.1,2.8,0.1,4.1,0.6c1.2,0.5,2.4,1.1,3.4,2
		c1,0.9,1.8,1.8,2.5,2.7c0.8,1.2,1.4,2.6,1.8,4.2c0.4,1.6,0.5,3.1,0.5,4.7c0,1.6-0.2,3.1-0.6,4.6c-0.4,1.5-0.9,2.9-1.5,4.1
		c1.1,0.1,2.4,0.1,3.8,0c1.4-0.1,2.9-0.5,4.4-1c1.5-0.5,3-1.3,4.4-2.3c1.5-1,2.8-2.3,3.9-3.9c-0.9-0.2-2.1-0.6-3.4-1.2
		c-1.4-0.6-2.7-1.3-4.1-2.3c-1.4-1-2.7-2.2-3.9-3.6c-1.2-1.4-2.1-3-2.7-4.7c-0.4-1.2-0.6-2.4-0.6-3.8c-0.1-1.3,0.1-2.6,0.5-3.9
		c0.4-1.2,1-2.4,1.9-3.4c0.9-1,1.9-1.8,3.2-2.5c2.8-1.3,5.3-1.4,7.7-0.5c2.4,0.9,4.4,2.5,5.9,4.7c0.8,1.2,1.5,2.7,1.9,4.3
		c0.2,0.7,0.3,1.4,0.4,2.1c0.3-0.4,0.6-0.7,0.9-1.1c2.3-2.7,5.1-4.9,8.4-6.5c0.4-0.2,0.7-0.3,1.1-0.5c-0.4-2.1-1.1-4.1-2.1-6.2
		c-1.5-3.1-3.4-5.8-5.8-8.1c-2.3-2.3-4.9-4.1-7.6-5.4c-2.8-1.3-5.7-2-8.7-2c-3-0.1-6,0.6-9,1.9c-2.4,1.1-4.5,2.7-6.2,4.7
		c-1.8,2.1-3.2,4.3-4.2,6.7c-0.8,2-2.2,3-4.1,3.1c-0.9,0.1-2.1,0.2-3.5,0.5c-1.4,0.2-2.6,0.6-3.5,1c-2.5,1.2-4.6,2.9-6.3,4.9
		c-1.7,2-2.8,4.3-3.6,6.8c-0.7,2.4-0.9,5-0.7,7.7c0.1,1.3,0.4,2.7,0.8,4c0.5,0,1.1-0.1,1.6-0.1C37.4,49.4,40.9,50.1,43.9,51.5z"/>
	<path fill="none" d="M51.7,106.2c0.1-0.3,0.3-0.5,0.4-0.7c-0.5,0.2-1,0.4-1.5,0.6c-0.8,0.2-1.7,0.4-2.7,0.4c-1,0.1-2.1,0-3.2-0.3
		c-1.1-0.2-2.2-0.7-3.2-1.4c-1-0.7-1.9-1.6-2.7-2.8c-1-1.5-1.5-3-1.6-4.5c-0.1-1.5,0.1-2.8,0.6-4.1c0.5-1.2,1.1-2.4,2-3.4
		c0.9-1,1.8-1.8,2.7-2.5c1.2-0.8,2.6-1.4,4.2-1.8c1.6-0.4,3.1-0.5,4.7-0.5c1.6,0,3.1,0.2,4.6,0.6c1.5,0.4,2.9,0.9,4.1,1.5
		c0.1-1.1,0.1-2.4,0-3.8c-0.1-1.4-0.5-2.9-1-4.4c-0.5-1.5-1.3-3-2.3-4.4c-1-1.5-2.3-2.8-3.9-3.9c-0.2,0.9-0.6,2.1-1.2,3.4
		c-0.6,1.4-1.3,2.7-2.3,4.1c-1,1.4-2.2,2.7-3.6,3.9c-1.4,1.2-3,2.1-4.7,2.7c-1.2,0.4-2.4,0.6-3.8,0.6c-1.3,0-2.6-0.1-3.9-0.5
		c-1.2-0.4-2.4-1-3.4-1.9c-1-0.9-1.8-1.9-2.5-3.2c-1.3-2.8-1.4-5.3-0.5-7.7c0.9-2.4,2.5-4.4,4.7-5.9c1.2-0.8,2.7-1.5,4.3-1.9
		c0.7-0.2,1.4-0.3,2.1-0.4c-0.4-0.3-0.7-0.6-1.1-0.9c-2.7-2.3-4.9-5.1-6.5-8.4c-0.2-0.4-0.3-0.7-0.5-1.1c-2.1,0.4-4.1,1.1-6.2,2.1
		c-3.1,1.5-5.8,3.4-8.1,5.8c-2.3,2.3-4.1,4.9-5.4,7.6c-1.3,2.8-1.9,5.7-2,8.7c-0.1,3,0.6,6,1.9,9c1.1,2.4,2.7,4.5,4.7,6.2
		c2.1,1.8,4.3,3.2,6.7,4.2c2,0.8,3,2.2,3.1,4.1c0.1,0.9,0.2,2.1,0.5,3.5c0.2,1.4,0.6,2.6,1,3.5c1.2,2.5,2.9,4.6,4.9,6.3
		c2,1.7,4.3,2.8,6.7,3.6c2.5,0.7,5,0.9,7.7,0.7c1.3-0.1,2.7-0.4,4-0.8c0-0.5-0.1-1.1-0.1-1.6C49.6,112.8,50.3,109.3,51.7,106.2z"/>
	<path fill="none" d="M39.1,61.1c1.4,1.2,2.8,2.2,4.3,3c1,0.1,2,0.3,3,0.6c1,0.3,2,0.7,3,1.2c0.6,0,1.2,0.1,1.8,0
		c-0.2-2.7-1-5-2.4-6.8c-1.7-2.1-3.8-3.6-6.4-4.6c-2.6-1-5.5-1.4-8.8-1.2c-0.1,0-0.1,0-0.2,0c0,0.1,0,0.1,0.1,0.2
		C34.9,56.6,36.8,59.1,39.1,61.1z"/>
	<path fill="none" d="M89,38.9c-1.2,1.4-2.2,2.8-3,4.3c-0.1,1-0.3,2-0.6,3c-0.3,1-0.7,2-1.2,3c0,0.6-0.1,1.2,0,1.8
		c2.7-0.2,5-1,6.8-2.4c2.1-1.7,3.6-3.8,4.6-6.4c1-2.6,1.4-5.5,1.2-8.8c0-0.1,0-0.1,0-0.2c-0.1,0-0.1,0-0.2,0.1
		C93.6,34.8,91,36.6,89,38.9z"/>
	<path fill="none" d="M91,88.3c1.6,0.3,3.1,0.7,4.7,1.2c0.9,0.3,1.8,0.7,2.7,1.2c-0.9-1.9-1.4-4-1.5-6.3
		C94.6,84.9,92.6,86.2,91,88.3z"/>
	<path fill="none" d="M55.1,88c-1.4-0.3-3.1-0.3-4.8-0.2c-1.8,0.1-3.5,0.7-5.3,1.7c-2,1.1-3.4,2.7-4.1,4.6c-0.7,2-0.6,3.8,0.4,5.6
		c1,1.8,2.6,2.9,4.6,3.4c2.1,0.5,4.1,0.2,6.1-1c1.8-1,3.2-2.2,4.2-3.6c1-1.4,1.8-2.8,2.4-4.1c0.6-1.6,1-3.1,1.3-4.7
		c0-0.1-0.5-0.3-1.4-0.7C57.7,88.6,56.5,88.3,55.1,88z"/>
	<path fill="none" d="M61.9,90.8c-0.3,1.6-0.7,3.1-1.2,4.7c-0.3,0.9-0.7,1.8-1.2,2.7c1.9-0.9,4-1.4,6.3-1.5
		C65.2,94.4,63.9,92.4,61.9,90.8z"/>
	<path fill="none" d="M107.6,83.1c0.5,0.1,1,0.1,1.6,0.1c1.8,0.1,3.6-0.3,5.6-1.1c1.1-0.5,2.1-1.1,2.9-1.9c0.8-0.8,1.4-1.6,1.8-2.5
		c0.4-0.9,0.7-1.9,0.7-2.9c0-1-0.2-2-0.5-2.9c-0.8-2-2.3-3.3-4.4-3.9c-2.1-0.6-4.2-0.5-6.4,0.4c-1.9,0.9-3.5,2-4.7,3.3
		c-1.2,1.4-2.2,2.7-2.9,4c-0.7,1.3-1.2,2.5-1.4,3.4c-0.2,1-0.3,1.5-0.3,1.6c0.5,0.3,1.1,0.6,1.7,0.9c1.1,0.1,2.3,0.3,3.4,0.6
		C105.7,82.3,106.6,82.7,107.6,83.1z"/>
	<path fill="none" d="M42.8,66.9c-0.5,0-1-0.1-1.6-0.1c-1.8-0.1-3.6,0.3-5.6,1.1c-1.1,0.5-2.1,1.1-2.9,1.9c-0.8,0.8-1.4,1.6-1.8,2.5
		c-0.4,0.9-0.7,1.9-0.7,2.9c0,1,0.2,2,0.5,2.9c0.8,2,2.3,3.3,4.4,3.9c2.1,0.6,4.2,0.5,6.4-0.4c1.9-0.9,3.5-2,4.7-3.3
		c1.2-1.3,2.2-2.7,2.9-4c0.7-1.3,1.2-2.5,1.4-3.4c0.2-1,0.3-1.5,0.3-1.6c-0.5-0.3-1.1-0.6-1.7-0.9c-1.1-0.1-2.3-0.3-3.4-0.6
		C44.7,67.7,43.7,67.3,42.8,66.9z"/>
	<path fill="none" d="M88.5,59.2c0.3-1.6,0.7-3.1,1.2-4.7c0.3-0.9,0.7-1.8,1.2-2.7c-1.9,0.9-4,1.4-6.3,1.5
		C85.1,55.6,86.4,57.6,88.5,59.2z"/>
	<path fill="none" d="M89.2,91.6c-0.4,0.9-0.7,2-1,3.5c-0.3,1.4-0.3,3.1-0.2,4.8c0.1,1.8,0.7,3.5,1.7,5.3c1.1,2,2.7,3.4,4.6,4.1
		c2,0.7,3.8,0.6,5.6-0.4c1.8-1,2.9-2.6,3.4-4.6c0.5-2.1,0.2-4.1-1-6.1c-1-1.8-2.2-3.1-3.6-4.2c-1.4-1-2.8-1.8-4.1-2.4
		c-1.6-0.6-3.1-1-4.7-1.3C89.9,90.3,89.6,90.8,89.2,91.6z"/>
	<path fill="none" d="M67.1,107.4c0,0.5-0.1,1-0.1,1.6c-0.1,1.8,0.3,3.6,1.1,5.6c0.5,1.1,1.1,2.1,1.9,2.9c0.8,0.8,1.6,1.4,2.5,1.9
		c0.9,0.4,1.9,0.7,2.9,0.7c1,0,2-0.2,2.9-0.5c2-0.8,3.3-2.3,3.9-4.4c0.6-2.1,0.5-4.2-0.4-6.4c-0.9-1.9-2-3.5-3.3-4.7
		c-1.3-1.2-2.7-2.2-4-2.9c-1.3-0.7-2.5-1.2-3.4-1.4c-1-0.2-1.5-0.3-1.6-0.3c-0.3,0.5-0.6,1.1-0.9,1.7c-0.1,1.1-0.3,2.3-0.6,3.4
		C67.9,105.5,67.5,106.5,67.1,107.4z"/>
	<path fill="none" d="M98.6,43.8c-0.1,0.2-0.3,0.5-0.4,0.7c0.5-0.2,1-0.4,1.5-0.6c0.8-0.2,1.7-0.4,2.7-0.4c1-0.1,2.1,0,3.2,0.3
		c1.1,0.2,2.2,0.7,3.2,1.4c1,0.7,1.9,1.6,2.7,2.8c1,1.5,1.5,3.1,1.6,4.5c0.1,1.5-0.1,2.8-0.6,4.1c-0.5,1.2-1.1,2.4-2,3.4
		c-0.8,1-1.8,1.8-2.7,2.5c-1.2,0.8-2.6,1.4-4.2,1.8c-1.6,0.3-3.1,0.5-4.7,0.5c-1.6,0-3.1-0.2-4.6-0.6c-1.5-0.4-2.9-0.9-4.1-1.5
		c-0.1,1.1-0.1,2.4,0,3.8c0.1,1.4,0.5,2.9,1,4.4c0.5,1.5,1.3,3,2.3,4.4c1,1.5,2.3,2.8,3.9,3.9c0.2-0.9,0.6-2.1,1.2-3.5
		c0.6-1.4,1.3-2.7,2.3-4.1c1-1.4,2.2-2.7,3.6-3.9c1.4-1.2,3-2.1,4.7-2.7c1.2-0.4,2.4-0.6,3.8-0.6c1.3,0,2.6,0.1,3.9,0.5
		c1.2,0.4,2.4,1,3.4,1.9c1,0.9,1.8,1.9,2.5,3.2c1.3,2.8,1.4,5.3,0.5,7.7c-0.9,2.4-2.5,4.4-4.7,5.9c-1.2,0.8-2.7,1.5-4.3,1.9
		c-0.7,0.2-1.4,0.3-2.1,0.4c0.4,0.3,0.7,0.6,1.1,0.9c2.7,2.3,4.9,5.1,6.5,8.4c0.2,0.4,0.3,0.7,0.5,1.1c2.1-0.4,4.1-1.1,6.2-2.1
		c3.1-1.5,5.8-3.4,8.1-5.8c2.3-2.3,4.1-4.9,5.4-7.6c1.3-2.8,1.9-5.7,2-8.7c0.1-3-0.6-6-1.9-9c-1.1-2.4-2.7-4.5-4.7-6.2
		c-2.1-1.8-4.3-3.1-6.7-4.2c-2-0.8-3-2.2-3.1-4.1c-0.1-0.9-0.2-2.1-0.5-3.5c-0.2-1.4-0.6-2.6-1-3.5c-1.2-2.5-2.9-4.6-4.9-6.3
		c-2-1.7-4.3-2.8-6.8-3.6c-2.4-0.7-5-0.9-7.7-0.7c-1.3,0.1-2.7,0.4-4,0.8c0,0.5,0.1,1.1,0.1,1.6C100.7,37.2,100.1,40.7,98.6,43.8z"
		/>
	<path fill="none" d="M82.3,35.4c-0.5-1.1-1.1-2.1-1.9-2.9c-0.8-0.8-1.6-1.4-2.5-1.8C77,30.2,76,30,75,30c-1,0-2,0.2-2.9,0.5
		c-2,0.8-3.3,2.3-3.9,4.4c-0.6,2.1-0.5,4.2,0.4,6.4c0.9,1.9,2,3.5,3.3,4.7c1.3,1.2,2.7,2.2,4,2.9c1.3,0.7,2.5,1.2,3.4,1.4
		c1,0.2,1.5,0.3,1.6,0.3c0.3-0.5,0.6-1.1,0.9-1.7c0.1-1.1,0.3-2.3,0.6-3.4c0.3-1,0.6-1.9,1-2.8c0.1-0.5,0.1-1,0.1-1.6
		C83.5,39.3,83.1,37.4,82.3,35.4z"/>
	<path fill="none" d="M111.3,88.9c-1.4-1.2-2.8-2.2-4.3-3c-1-0.1-2-0.3-3-0.6c-1-0.3-2-0.7-3-1.2c-0.6,0-1.2-0.1-1.8,0
		c0.2,2.7,1,5,2.4,6.8c1.7,2.1,3.8,3.6,6.4,4.6c2.6,1,5.5,1.4,8.8,1.2c0.1,0,0.1,0,0.2,0c0-0.1,0-0.1-0.1-0.2
		C115.4,93.4,113.5,90.9,111.3,88.9z"/>
	<path fill="none" d="M106.4,98.5c-0.3-0.1-0.5-0.3-0.7-0.4c0.2,0.5,0.4,1,0.6,1.5c0.2,0.8,0.4,1.7,0.4,2.7c0.1,1,0,2.1-0.3,3.2
		c-0.2,1.1-0.7,2.2-1.4,3.2c-0.7,1-1.6,1.9-2.8,2.7c-1.5,1-3.1,1.5-4.5,1.6c-1.5,0.1-2.8-0.1-4.1-0.6c-1.2-0.5-2.4-1.1-3.4-2
		c-1-0.8-1.8-1.8-2.5-2.7c-0.8-1.2-1.4-2.6-1.8-4.2c-0.4-1.6-0.5-3.1-0.5-4.7c0-1.6,0.2-3.1,0.6-4.6c0.4-1.5,0.9-2.9,1.5-4.1
		c-1.1-0.1-2.4-0.1-3.8,0c-1.4,0.1-2.9,0.5-4.4,1c-1.5,0.5-3,1.3-4.4,2.3c-1.5,1-2.8,2.3-3.9,3.9c0.9,0.2,2.1,0.6,3.4,1.2
		c1.4,0.6,2.7,1.3,4.1,2.3c1.4,1,2.7,2.2,3.9,3.6c1.2,1.4,2.1,3,2.7,4.7c0.4,1.2,0.6,2.4,0.6,3.8c0.1,1.3-0.1,2.6-0.5,3.9
		c-0.4,1.2-1,2.4-1.9,3.4c-0.9,1-1.9,1.8-3.2,2.5c-2.8,1.3-5.3,1.4-7.7,0.5c-2.4-0.9-4.4-2.5-5.9-4.7c-0.8-1.2-1.5-2.7-1.9-4.3
		c-0.2-0.7-0.3-1.4-0.4-2.1c-0.3,0.4-0.6,0.7-0.9,1.1c-2.3,2.7-5.1,4.9-8.4,6.5c-0.4,0.2-0.7,0.3-1.1,0.5c0.4,2.1,1.1,4.1,2.1,6.2
		c1.5,3.1,3.4,5.8,5.8,8.1c2.3,2.3,4.9,4.1,7.6,5.4c2.8,1.3,5.7,1.9,8.7,2c3,0.1,6-0.6,9-1.9c2.4-1.1,4.5-2.7,6.2-4.7
		c1.8-2.1,3.2-4.3,4.2-6.7c0.8-2,2.2-3,4.1-3.1c0.9-0.1,2.1-0.2,3.5-0.5c1.4-0.2,2.6-0.6,3.5-1c2.5-1.2,4.6-2.9,6.3-4.9
		c1.7-2.1,2.8-4.3,3.6-6.8c0.7-2.5,0.9-5,0.7-7.7c-0.1-1.3-0.4-2.7-0.8-4c-0.5,0-1.1,0.1-1.6,0.1C113,100.5,109.5,99.9,106.4,98.5z"
		/>
	<path fill="none" d="M76.6,58.5c-1.9,1.2-3.8,2.1-5.7,2.7c-1.9,0.5-3.6,0.8-5.2,0.9c-1.6,0-3,0-4-0.2c-1.9,3.1-4.4,5-7.2,5.9
		c-0.4,0.1-0.7,0.2-1.1,0.3c0,0.1,0,0.1,0,0.2c2.3,1.6,4.1,3.3,5.4,5.2c1.3,1.9,2.1,3.8,2.7,5.7c0.5,1.9,0.8,3.6,0.9,5.2
		c0,1.6,0,3-0.2,4c3.1,1.9,5,4.4,5.9,7.2c0.1,0.4,0.2,0.7,0.3,1.1c0.1,0,0.1,0,0.2,0c1.6-2.3,3.3-4.1,5.2-5.4
		c1.9-1.3,3.8-2.1,5.7-2.7c1.9-0.5,3.6-0.8,5.3-0.9c1.6,0,3,0,4,0.2c1.9-3.1,4.4-5,7.2-5.9c0.4-0.1,0.7-0.2,1.1-0.3
		c0-0.1,0-0.1,0-0.2c-2.3-1.6-4.1-3.3-5.4-5.2c-1.2-1.9-2.1-3.8-2.7-5.7c-0.5-1.9-0.8-3.6-0.9-5.2c-0.1-1.6,0-3,0.2-4
		c-3.1-1.9-5-4.4-5.9-7.2c-0.1-0.4-0.2-0.7-0.3-1.1c-0.1,0-0.1,0-0.2,0C80.3,55.5,78.6,57.3,76.6,58.5z"/>
	<g>
		<path fill="#B2334E" d="M45.8,119c-2.7,0.3-5.2,0-7.7-0.7c-2.4-0.7-4.7-1.9-6.7-3.6c-2.1-1.7-3.7-3.8-4.9-6.3
			c-0.4-0.9-0.8-2.1-1-3.5c-0.2-1.4-0.4-2.6-0.5-3.5c-0.1-1.9-1.1-3.3-3.1-4.1c-2.4-1-4.6-2.4-6.7-4.2c-2.1-1.8-3.6-3.8-4.7-6.2
			c-1.4-2.9-2-5.9-1.9-9c0.1-3,0.8-5.9,2-8.7c1.3-2.8,3.1-5.3,5.4-7.6c2.3-2.3,5-4.3,8.1-5.8c2-1,4.1-1.7,6.2-2.1
			c1.1-0.2,2.1-0.4,3.2-0.5c0.1,0,0.1,0,0.2,0c3.2-0.2,6.2,0.2,8.8,1.2c2.6,1,4.8,2.5,6.4,4.6c1.5,1.9,2.3,4.1,2.4,6.8
			c0.7,0,1.4-0.1,2.1-0.3c0,0,0.1,0,0.1,0c-0.1-2.3-0.5-4.4-1.5-6.3c-0.6-0.3-1.2-0.6-1.7-1c-1.4-0.9-2.6-2-3.7-3.3
			c-0.8-0.9-1.4-1.9-1.9-3.1c-0.2-0.1-0.5-0.3-0.7-0.4c-3.1-1.4-6.5-2.1-10.4-2c-0.5,0-1.1,0-1.6,0.1c-1.1,0.1-2.1,0.3-3.2,0.5
			c-2.2,0.5-4.5,1.2-6.6,2.3c-4.1,2-7.4,4.4-10.1,7.3c-2.7,2.9-4.7,5.9-6,9.2C4.7,72.2,4.1,75.5,4.2,79c0.1,3.5,0.9,6.8,2.3,9.9
			c0.7,1.7,1.7,3.2,2.8,4.5c1.1,1.3,2.4,2.6,3.7,3.6s2.7,2,4.1,2.7c1.4,0.7,2.7,1.2,4,1.6c0,1.7,0.1,3.3,0.3,4.7
			c0.3,1.4,0.7,2.8,1.5,4.2c1.3,2.7,3.2,5,5.5,6.9c2.3,1.9,4.9,3.3,7.8,4.2c2.9,0.9,5.9,1.2,9.2,1c1.7-0.1,3.3-0.4,4.9-0.9
			c-0.2-1-0.4-2.1-0.5-3.2C48.5,118.6,47.2,118.9,45.8,119z"/>
		<path fill="#B2334E" d="M43.4,64.1c0.9,0.5,1.8,0.9,2.8,1.2c1.1,0.3,2.2,0.5,3.3,0.6c-0.9-0.5-1.9-0.9-3-1.2
			C45.4,64.4,44.4,64.2,43.4,64.1z"/>
		<path fill="#B2334E" d="M68.3,96.8c-0.1-0.4-0.2-0.7-0.3-1.1c-0.9-2.9-2.8-5.3-5.9-7.2c0.2-1.1,0.2-2.4,0.2-4
			c0-1.6-0.3-3.4-0.9-5.2c-0.5-1.9-1.4-3.8-2.7-5.7c-1.2-1.9-3-3.7-5.4-5.2c0-0.1,0-0.1,0-0.2c-1.4,0.3-2.9,0.5-4.3,0.4
			c0.6,0.3,1.1,0.5,1.7,0.9c0,0.1-0.1,0.6-0.3,1.6c-0.2,1-0.7,2.1-1.4,3.4c-0.7,1.3-1.7,2.7-2.9,4c-1.2,1.3-2.8,2.4-4.7,3.3
			c-2.2,0.9-4.3,1.1-6.4,0.4c-2.1-0.6-3.5-1.9-4.4-3.9c-0.4-0.9-0.6-1.9-0.5-2.9c0-1,0.3-2,0.7-2.9c0.4-0.9,1.1-1.8,1.8-2.5
			c0.8-0.8,1.7-1.4,2.9-1.9c2-0.8,3.9-1.2,5.6-1.1c0.6,0,1.1,0.1,1.6,0.1c-1.6-0.7-3.1-1.6-4.6-2.8c-0.7,0.1-1.4,0.2-2.1,0.4
			c-1.6,0.4-3,1-4.3,1.9c-2.2,1.5-3.8,3.5-4.7,5.9c-0.9,2.4-0.7,5,0.5,7.7c0.6,1.3,1.4,2.3,2.5,3.2c1,0.9,2.2,1.5,3.4,1.9
			c1.2,0.4,2.5,0.6,3.9,0.5c1.3,0,2.6-0.2,3.8-0.6c1.8-0.6,3.3-1.4,4.7-2.7c1.4-1.2,2.6-2.5,3.6-3.9c1-1.4,1.7-2.8,2.3-4.1
			c0.6-1.4,1-2.5,1.2-3.4c1.6,1.2,2.9,2.5,3.9,3.9c1,1.5,1.8,2.9,2.3,4.4c0.5,1.5,0.9,3,1,4.4c0.1,1.4,0.1,2.7,0,3.8
			c-1.2-0.6-2.6-1.1-4.1-1.5c-1.5-0.4-3-0.6-4.6-0.6c-1.6,0-3.1,0.2-4.7,0.5c-1.6,0.3-3,0.9-4.2,1.8c-1,0.6-1.9,1.4-2.7,2.5
			c-0.9,1-1.5,2.2-2,3.4c-0.5,1.2-0.7,2.6-0.6,4.1c0.1,1.5,0.6,3,1.6,4.5c0.7,1.2,1.6,2.1,2.7,2.8c1,0.7,2.1,1.1,3.2,1.4
			c1.1,0.3,2.2,0.3,3.2,0.3c1-0.1,1.9-0.2,2.7-0.4c0.5-0.2,1-0.4,1.5-0.6c1.2-0.5,2.2-1.2,3.1-1.9c1.3-1.1,2.4-2.3,3.3-3.7
			c0.4-0.6,0.7-1.1,1-1.7c0.4-0.9,0.9-1.8,1.2-2.7c0.5-1.6,1-3.2,1.2-4.7c2.1,1.6,3.4,3.6,3.9,5.9c0,0,0,0.1,0,0.1
			c0.2,0.7,0.2,1.4,0.3,2.1c0,0.6,0,1.2,0,1.8c-0.1,1.1-0.3,2.2-0.6,3.3c-0.3,0.9-0.7,1.8-1.2,2.8c-0.8,1.5-1.7,2.9-3,4.3
			c-2,2.3-4.6,4.1-7.6,5.7c-0.1,0-0.1,0-0.2,0.1c0.1,1.1,0.2,2.1,0.5,3.2c0.4-0.2,0.7-0.3,1.1-0.5c3.3-1.6,6.1-3.8,8.4-6.5
			c0.3-0.4,0.6-0.7,0.9-1.1c1.1-1.5,2.1-3,2.8-4.6c0.4-0.9,0.8-1.9,1-2.8c0.3-1.1,0.5-2.3,0.6-3.4C68.8,99.7,68.7,98.2,68.3,96.8z
			 M58.6,94.4c-0.6,1.3-1.3,2.7-2.4,4.1c-1,1.4-2.4,2.6-4.2,3.6c-2,1.1-4,1.5-6.1,1c-2.1-0.5-3.6-1.6-4.6-3.4
			c-1-1.8-1.2-3.6-0.4-5.6c0.7-2,2.1-3.5,4.1-4.6c1.8-1,3.5-1.6,5.3-1.7c1.8-0.1,3.4-0.1,4.8,0.2c1.4,0.3,2.6,0.6,3.5,1
			c0.9,0.4,1.3,0.6,1.4,0.7C59.6,91.3,59.2,92.9,58.6,94.4z"/>
	</g>
	<g>
		<path fill="#15A096" d="M107.6,83.1c-0.9-0.4-1.9-0.8-2.8-1c-1.1-0.3-2.3-0.5-3.4-0.6c1,0.5,2,0.8,3,1.1
			C105.3,82.8,106.4,83,107.6,83.1z"/>
		<path fill="#15A096" d="M64.3,112c0.1,0.7,0.2,1.4,0.4,2.1c0.4,1.6,1,3,1.9,4.3c1.5,2.2,3.5,3.8,5.9,4.7c2.4,0.9,5,0.7,7.7-0.5
			c1.3-0.6,2.3-1.4,3.2-2.5c0.9-1,1.5-2.2,1.9-3.4c0.4-1.2,0.6-2.5,0.5-3.9c0-1.3-0.2-2.6-0.6-3.8c-0.6-1.8-1.4-3.3-2.7-4.7
			c-1.2-1.4-2.5-2.6-3.9-3.6c-1.4-1-2.8-1.7-4.1-2.3c-1.4-0.6-2.5-1-3.4-1.2c1.2-1.6,2.5-2.9,3.9-3.9c1.5-1,2.9-1.8,4.4-2.3
			c1.5-0.5,3-0.9,4.4-1c1.4-0.1,2.7-0.1,3.8,0c-0.6,1.2-1.1,2.6-1.5,4.1c-0.4,1.5-0.6,3-0.6,4.6c0,1.6,0.2,3.2,0.5,4.7
			c0.3,1.6,0.9,3,1.8,4.2c0.6,1,1.4,1.9,2.5,2.7c1,0.9,2.1,1.5,3.4,2c1.2,0.5,2.6,0.7,4.1,0.6c1.5-0.1,3-0.6,4.5-1.6
			c1.2-0.7,2.1-1.6,2.8-2.7c0.7-1,1.1-2.1,1.4-3.2c0.2-1.1,0.3-2.2,0.3-3.2c-0.1-1-0.2-1.9-0.4-2.7c-0.2-0.5-0.4-1-0.6-1.5
			c-2.7-1.4-4.9-3.4-6.6-6c-0.3-0.4-0.5-0.9-0.7-1.3c-0.9-0.4-1.8-0.9-2.7-1.2c-1.6-0.5-3.2-1-4.7-1.2c1.6-2.1,3.6-3.4,5.9-3.9
			c0-0.8,0-1.7,0.1-2.5c-0.4,0.1-0.7,0.2-1.1,0.3c-2.9,0.9-5.3,2.9-7.2,5.9c-1.1-0.2-2.4-0.2-4-0.2c-1.6,0-3.4,0.3-5.3,0.9
			c-1.9,0.5-3.8,1.4-5.7,2.7c-1.9,1.2-3.7,3-5.2,5.4c-0.1,0-0.1,0-0.2,0c0.3,1.4,0.5,2.9,0.4,4.3c0.3-0.6,0.5-1.1,0.9-1.7
			c0.1,0,0.6,0.1,1.6,0.3c1,0.2,2.1,0.7,3.4,1.4c1.3,0.7,2.7,1.7,4,2.9c1.3,1.2,2.4,2.8,3.3,4.7c0.9,2.2,1.1,4.3,0.4,6.4
			c-0.6,2.1-1.9,3.5-3.9,4.4c-0.9,0.4-1.9,0.6-2.9,0.5c-1,0-2-0.3-2.9-0.7c-0.9-0.4-1.8-1.1-2.5-1.9c-0.8-0.8-1.4-1.7-1.9-2.9
			c-0.8-2-1.2-3.9-1.1-5.6c0-0.6,0.1-1.1,0.1-1.6C66.4,109,65.4,110.5,64.3,112z M88.2,95.1c0.3-1.4,0.6-2.6,1-3.5
			c0.4-0.9,0.6-1.3,0.7-1.3c1.6,0.3,3.1,0.7,4.7,1.3c1.3,0.6,2.7,1.3,4.1,2.4c1.4,1,2.6,2.4,3.6,4.2c1.1,2,1.5,4,1,6.1
			c-0.5,2.1-1.6,3.6-3.4,4.6c-1.8,1-3.6,1.2-5.6,0.4c-2-0.7-3.5-2.1-4.6-4.1c-1-1.8-1.6-3.5-1.7-5.3C87.9,98.2,88,96.5,88.2,95.1z"
			/>
		<path fill="#15A096" d="M101,84.1c-0.6-0.3-1.3-0.7-1.9-1.1c0,0.4,0,0.7,0,1.1C99.8,84,100.4,84.1,101,84.1z"/>
		<path fill="#15A096" d="M122.5,104.8c-0.1-1.6-0.4-3.3-0.9-4.9c-0.3-1.2-0.8-2.5-1.4-3.7c-0.2-0.4-0.3-0.7-0.5-1.1
			c-1.6-3.3-3.8-6.1-6.5-8.4c-0.4-0.3-0.7-0.6-1.1-0.9c-1,0.1-1.9,0.2-2.9,0.2c-0.8,0-1.5-0.1-2.2-0.2c1.5,0.8,2.9,1.7,4.3,3
			c2.3,2,4.1,4.5,5.7,7.6c0,0.1,0,0.1,0.1,0.2c0.6,1.2,1.1,2.4,1.4,3.7c0.4,1.3,0.6,2.6,0.8,4c0.3,2.7,0,5.2-0.7,7.7
			c-0.7,2.4-1.9,4.7-3.6,6.8c-1.7,2-3.8,3.7-6.3,4.9c-0.9,0.4-2.1,0.8-3.5,1c-1.4,0.2-2.6,0.4-3.5,0.5c-1.9,0.1-3.3,1.1-4.1,3.1
			c-1,2.4-2.4,4.6-4.2,6.7c-1.8,2.1-3.8,3.6-6.2,4.7c-2.9,1.4-5.9,2-9,1.9c-3-0.1-5.9-0.8-8.7-2c-2.8-1.3-5.3-3.1-7.6-5.4
			c-2.3-2.3-4.3-5-5.8-8.1c-1-2-1.7-4.1-2.1-6.2c-0.2-1.1-0.4-2.1-0.5-3.2c0-0.1,0-0.1,0-0.2c-0.2-3.2,0.2-6.2,1.2-8.8
			c1-2.6,2.5-4.8,4.6-6.4c1.9-1.5,4.1-2.3,6.8-2.4c0-0.7-0.1-1.4-0.3-2.1c0,0,0-0.1,0-0.1c-2.3,0.1-4.4,0.5-6.3,1.5
			c-0.3,0.6-0.6,1.2-1,1.7c-0.9,1.4-2,2.6-3.3,3.7c-0.9,0.8-1.9,1.4-3.1,1.9c-0.1,0.2-0.3,0.5-0.4,0.7c-1.4,3.1-2.1,6.5-2,10.4
			c0,0.5,0,1.1,0.1,1.6c0.1,1.1,0.3,2.1,0.5,3.2c0.5,2.2,1.2,4.5,2.3,6.6c2,4.1,4.4,7.4,7.3,10.1c2.9,2.7,5.9,4.7,9.2,6
			c3.3,1.3,6.6,1.9,10.1,1.9c3.4-0.1,6.8-0.9,9.9-2.3c1.7-0.7,3.2-1.7,4.5-2.8c1.4-1.1,2.6-2.4,3.6-3.7c1.1-1.3,2-2.7,2.7-4.1
			c0.7-1.4,1.2-2.7,1.6-4c1.7,0,3.3-0.1,4.7-0.3c1.4-0.3,2.8-0.7,4.2-1.5c2.7-1.3,5-3.2,6.9-5.5c1.9-2.3,3.3-4.9,4.2-7.8
			C122.4,111.1,122.7,108.1,122.5,104.8z"/>
		<path fill="#15A096" d="M64.9,103.8c-0.3,1-0.5,2-0.6,3c0.5-0.9,0.9-1.8,1.2-2.8c0.3-1.1,0.5-2.2,0.6-3.3
			C65.6,101.7,65.2,102.7,64.9,103.8z"/>
	</g>
	<g>
		<path fill="#F6931E" d="M143.9,61.1c-0.7-1.7-1.7-3.2-2.8-4.5c-1.2-1.3-2.4-2.6-3.7-3.6c-1.3-1.1-2.7-2-4.1-2.7
			c-1.4-0.7-2.7-1.2-4-1.6c0-1.7-0.1-3.3-0.3-4.7c-0.3-1.4-0.7-2.8-1.5-4.2c-1.3-2.7-3.2-5-5.5-6.9c-2.3-1.9-4.9-3.3-7.8-4.2
			c-2.9-0.9-5.9-1.2-9.2-1c-1.7,0.1-3.3,0.4-4.9,0.9c0.2,1,0.4,2.1,0.5,3.2c1.3-0.4,2.6-0.6,4-0.8c2.7-0.3,5.2,0,7.7,0.7
			c2.4,0.7,4.7,1.9,6.8,3.6c2.1,1.7,3.7,3.8,4.9,6.3c0.4,0.9,0.8,2.1,1,3.5c0.2,1.4,0.4,2.6,0.5,3.5c0.1,1.9,1.1,3.3,3.1,4.1
			c2.4,1,4.6,2.4,6.7,4.2c2.1,1.8,3.6,3.8,4.7,6.2c1.4,2.9,2,5.9,1.9,9c-0.1,3-0.8,5.9-2,8.7c-1.3,2.8-3.1,5.3-5.4,7.6
			c-2.3,2.3-5,4.3-8.1,5.8c-2,1-4.1,1.7-6.2,2.1c0.5,1.2,1,2.4,1.4,3.7c2.2-0.5,4.5-1.2,6.6-2.3c4.1-2,7.4-4.4,10.1-7.3
			c2.7-2.9,4.7-5.9,6-9.2c1.3-3.3,1.9-6.6,1.9-10.1C146.1,67.6,145.3,64.3,143.9,61.1z"/>
		<path fill="#F6931E" d="M122.8,70c-0.6-1.3-1.4-2.3-2.5-3.2c-1-0.9-2.1-1.5-3.4-1.9c-1.2-0.4-2.5-0.6-3.9-0.5
			c-1.3,0.1-2.6,0.3-3.8,0.6c-1.8,0.6-3.3,1.4-4.7,2.7c-1.4,1.2-2.6,2.5-3.6,3.9c-1,1.4-1.7,2.7-2.3,4.1c-0.6,1.4-1,2.5-1.2,3.5
			c-1.6-1.2-2.9-2.5-3.9-3.9c-1-1.5-1.8-2.9-2.3-4.4c-0.5-1.5-0.9-3-1-4.4c-0.1-1.4-0.1-2.7,0-3.8c1.2,0.6,2.6,1.1,4.1,1.5
			c1.5,0.4,3,0.6,4.6,0.6c1.6,0,3.2-0.2,4.7-0.5c1.6-0.3,3-0.9,4.2-1.8c1-0.6,1.9-1.4,2.7-2.5c0.9-1,1.5-2.1,2-3.4
			c0.5-1.2,0.7-2.6,0.6-4.1c-0.1-1.5-0.6-3-1.6-4.5c-0.7-1.2-1.6-2.1-2.7-2.8c-1-0.7-2.1-1.1-3.2-1.4c-1.1-0.2-2.2-0.3-3.2-0.3
			c-1,0.1-1.9,0.2-2.7,0.4c-0.5,0.2-1,0.4-1.5,0.6c-1.2,0.5-2.2,1.2-3.1,1.9c-1.3,1.1-2.4,2.3-3.3,3.7c-0.4,0.6-0.7,1.2-1,1.7
			c-0.4,0.9-0.8,1.8-1.2,2.7c-0.5,1.6-1,3.2-1.2,4.7c-2.1-1.6-3.4-3.6-3.9-5.9c0,0,0-0.1,0-0.1c-0.2-0.7-0.2-1.4-0.3-2.1
			c0-0.6,0-1.2,0-1.8c0.1-1.1,0.3-2.2,0.6-3.3c0.3-0.9,0.7-1.8,1.2-2.8c0.8-1.5,1.7-2.9,3-4.3c2-2.3,4.6-4.1,7.6-5.7
			c0.1,0,0.1,0,0.2-0.1c-0.1-1.1-0.2-2.1-0.5-3.2c-0.4,0.2-0.7,0.3-1.1,0.5c-3.3,1.6-6.1,3.8-8.4,6.5c-0.3,0.4-0.6,0.7-0.9,1.1
			c-1.1,1.5-2.1,3-2.8,4.6c-0.4,0.9-0.8,1.9-1,2.8c-0.3,1.1-0.5,2.3-0.6,3.4c-0.1,1.5,0,2.9,0.4,4.3c0.1,0.4,0.2,0.7,0.3,1.1
			c0.9,2.9,2.9,5.3,5.9,7.2c-0.2,1.1-0.2,2.4-0.2,4c0,1.6,0.3,3.4,0.9,5.2c0.5,1.9,1.4,3.8,2.7,5.7c1.3,1.9,3,3.7,5.4,5.2
			c0,0.1,0,0.1,0,0.2c-0.1,0.9-0.1,1.7-0.1,2.5c0.1,2.3,0.5,4.4,1.5,6.3c0.2,0.5,0.5,0.9,0.7,1.3c1.7,2.6,3.9,4.6,6.6,6
			c0.2,0.1,0.5,0.3,0.7,0.4c3.1,1.4,6.5,2.1,10.4,2c0.5,0,1.1,0,1.6-0.1c-0.4-1.2-0.8-2.5-1.4-3.7c-0.1,0-0.1,0-0.2,0
			c-3.2,0.2-6.2-0.2-8.8-1.2c-2.6-1-4.8-2.5-6.4-4.6c-1.5-1.9-2.3-4.1-2.4-6.8c0-0.3,0-0.7,0-1.1c0.6,0.4,1.2,0.8,1.9,1.1
			c0.9,0.5,1.9,0.9,3,1.2c1,0.3,2,0.5,3,0.6c0.7,0.1,1.5,0.2,2.2,0.2c1,0,2,0,2.9-0.2c0.7-0.1,1.4-0.2,2.1-0.4c1.6-0.4,3-1,4.3-1.9
			c2.2-1.5,3.8-3.5,4.7-5.9C124.2,75.3,124.1,72.7,122.8,70z M91.8,55.6c0.6-1.3,1.3-2.7,2.4-4.1c1-1.4,2.4-2.6,4.2-3.6
			c2-1.1,4-1.5,6.1-1c2.1,0.5,3.6,1.6,4.6,3.4c1,1.8,1.2,3.6,0.4,5.6c-0.7,2-2.1,3.5-4.1,4.6c-1.8,1-3.5,1.6-5.3,1.7
			c-1.8,0.1-3.4,0.1-4.8-0.2c-1.4-0.3-2.6-0.6-3.5-1c-0.9-0.4-1.3-0.6-1.4-0.7C90.7,58.7,91.2,57.1,91.8,55.6z M119.5,77.7
			c-0.4,0.9-1.1,1.8-1.8,2.5c-0.8,0.8-1.7,1.4-2.9,1.9c-2,0.8-3.9,1.2-5.6,1.1c-0.6,0-1.1-0.1-1.6-0.1c-1.1-0.1-2.2-0.3-3.2-0.5
			c-1-0.3-2-0.7-3-1.1c-0.6-0.3-1.1-0.5-1.7-0.9c0-0.1,0.1-0.6,0.3-1.6c0.2-1,0.7-2.1,1.4-3.4c0.7-1.3,1.7-2.7,2.9-4
			c1.2-1.3,2.8-2.4,4.7-3.3c2.2-0.9,4.3-1.1,6.4-0.4c2.1,0.6,3.5,1.9,4.4,3.9c0.4,0.9,0.6,1.9,0.5,2.9
			C120.2,75.8,119.9,76.8,119.5,77.7z"/>
	</g>
	<g>
		<path fill="#E65025" d="M85.5,46.2c0.3-1,0.5-2,0.6-3c-0.5,0.9-0.9,1.8-1.2,2.8c-0.3,1.1-0.5,2.2-0.6,3.3
			C84.8,48.3,85.2,47.3,85.5,46.2z"/>
		<path fill="#E65025" d="M86.1,38c-0.1-0.7-0.2-1.4-0.4-2.1c-0.4-1.6-1-3-1.9-4.3c-1.5-2.2-3.5-3.8-5.9-4.7c-2.4-0.9-5-0.7-7.7,0.5
			c-1.3,0.6-2.3,1.4-3.2,2.5c-0.9,1-1.5,2.2-1.9,3.4c-0.4,1.2-0.6,2.5-0.5,3.9c0.1,1.3,0.3,2.6,0.6,3.8c0.6,1.8,1.4,3.3,2.7,4.7
			c1.2,1.4,2.5,2.6,3.9,3.6c1.4,1,2.8,1.7,4.1,2.3c1.4,0.6,2.5,1,3.4,1.2c-1.2,1.6-2.5,2.9-3.9,3.9c-1.5,1-2.9,1.8-4.4,2.3
			c-1.5,0.5-3,0.9-4.4,1c-1.4,0.1-2.7,0.1-3.8,0c0.6-1.2,1.1-2.6,1.5-4.1c0.4-1.5,0.6-3,0.6-4.6c0-1.6-0.2-3.1-0.5-4.7
			c-0.3-1.6-0.9-3-1.8-4.2c-0.6-1-1.4-1.9-2.5-2.7c-1-0.9-2.1-1.5-3.4-2c-1.2-0.5-2.6-0.7-4.1-0.6c-1.5,0.1-3,0.6-4.5,1.6
			c-1.2,0.7-2.1,1.6-2.8,2.7c-0.7,1-1.1,2.1-1.4,3.2c-0.2,1.1-0.3,2.2-0.3,3.2c0.1,1,0.2,1.9,0.4,2.7c0.2,0.5,0.4,1,0.6,1.5
			c0.5,1.2,1.1,2.2,1.9,3.1c1.1,1.3,2.3,2.4,3.7,3.3c0.6,0.4,1.2,0.7,1.7,1c0.9,0.4,1.8,0.9,2.7,1.2c1.6,0.5,3.1,0.9,4.7,1.2
			c-1.6,2.1-3.6,3.4-5.9,3.9c0,0-0.1,0-0.1,0c-0.7,0.2-1.4,0.2-2.1,0.3c-0.6,0-1.2,0-1.8,0c-1.1-0.1-2.2-0.3-3.3-0.6
			c-0.9-0.3-1.8-0.7-2.8-1.2c-1.5-0.8-2.9-1.7-4.3-3c-2.3-2-4.1-4.6-5.7-7.6c0-0.1,0-0.1-0.1-0.2c-1.1,0.1-2.1,0.2-3.2,0.5
			c0.2,0.4,0.3,0.7,0.5,1.1c1.6,3.3,3.8,6.1,6.5,8.4c0.4,0.3,0.7,0.6,1.1,0.9c1.5,1.1,3,2.1,4.6,2.8c0.9,0.4,1.9,0.8,2.8,1
			c1.1,0.3,2.3,0.5,3.4,0.6c1.4,0.1,2.9,0,4.3-0.4c0.4-0.1,0.7-0.2,1.1-0.3c2.9-0.9,5.3-2.8,7.2-5.9c1.1,0.2,2.4,0.2,4,0.2
			c1.6,0,3.4-0.3,5.2-0.9c1.9-0.5,3.8-1.4,5.7-2.7c1.9-1.2,3.7-3,5.2-5.4c0.1,0,0.1,0,0.2,0c-0.3-1.4-0.5-2.9-0.4-4.3
			c-0.3,0.6-0.5,1.1-0.9,1.7c-0.1,0-0.6-0.1-1.6-0.3c-1-0.2-2.1-0.7-3.4-1.4c-1.3-0.7-2.7-1.7-4-2.9c-1.3-1.2-2.4-2.8-3.3-4.7
			c-0.9-2.2-1.1-4.3-0.4-6.4c0.6-2.1,1.9-3.5,3.9-4.4C73,30.1,73.9,30,75,30c1,0,2,0.3,2.9,0.7c0.9,0.4,1.8,1.1,2.5,1.8
			c0.8,0.8,1.4,1.7,1.9,2.9c0.8,2,1.2,3.9,1.1,5.6c0,0.6-0.1,1.1-0.1,1.6C84,41,84.9,39.5,86.1,38z M62.1,54.9
			c-0.3,1.4-0.6,2.6-1,3.5c-0.4,0.9-0.6,1.3-0.7,1.4c-1.6-0.3-3.1-0.7-4.7-1.3c-1.3-0.6-2.7-1.3-4.1-2.4c-1.4-1-2.6-2.4-3.6-4.2
			c-1.1-2-1.4-4-1-6.1c0.5-2.1,1.6-3.6,3.4-4.6c1.8-1,3.6-1.2,5.6-0.4c2,0.7,3.5,2.1,4.6,4.1c1,1.8,1.6,3.5,1.7,5.3
			C62.5,51.8,62.4,53.5,62.1,54.9z"/>
		<path fill="#E65025" d="M100.5,31.7c-0.1-1.1-0.3-2.1-0.5-3.2c-0.5-2.2-1.2-4.5-2.3-6.6c-2-4.1-4.4-7.4-7.3-10.1
			c-2.9-2.7-5.9-4.7-9.2-6C78,4.5,74.7,3.9,71.2,4c-3.4,0.1-6.8,0.9-9.9,2.3c-1.7,0.7-3.2,1.7-4.5,2.8c-1.3,1.2-2.6,2.4-3.6,3.7
			c-1.1,1.3-2,2.7-2.7,4.1c-0.7,1.4-1.2,2.7-1.6,4c-1.7,0-3.3,0.1-4.7,0.3c-1.4,0.3-2.8,0.7-4.2,1.5c-2.7,1.3-5,3.2-6.9,5.5
			c-1.9,2.3-3.3,4.9-4.2,7.8c-0.9,2.9-1.2,5.9-1,9.2c0.1,1.7,0.4,3.3,0.9,4.9c1-0.2,2.1-0.4,3.2-0.5c-0.4-1.3-0.6-2.6-0.8-4
			c-0.3-2.7,0-5.3,0.7-7.7c0.7-2.4,1.9-4.7,3.6-6.8c1.7-2.1,3.8-3.7,6.3-4.9c0.9-0.4,2.1-0.8,3.5-1c1.4-0.2,2.6-0.4,3.5-0.5
			c1.9-0.1,3.3-1.1,4.1-3.1c1-2.4,2.4-4.6,4.2-6.7c1.8-2.1,3.8-3.6,6.2-4.7c2.9-1.4,5.9-2,9-1.9c3,0.1,5.9,0.8,8.7,2
			c2.8,1.3,5.3,3.1,7.6,5.4c2.3,2.3,4.3,5,5.8,8.1c1,2,1.7,4.1,2.1,6.2c0.2,1.1,0.4,2.1,0.5,3.2c0,0.1,0,0.1,0,0.2
			c0.2,3.2-0.2,6.2-1.2,8.8c-1,2.6-2.5,4.8-4.6,6.4c-1.9,1.5-4.1,2.3-6.8,2.4c0,0.7,0.1,1.4,0.3,2.1c0,0,0,0.1,0,0.1
			c2.3-0.1,4.4-0.5,6.3-1.5c0.3-0.6,0.6-1.2,1-1.7c0.9-1.4,2-2.6,3.3-3.7c0.9-0.8,1.9-1.4,3.1-1.9c0.1-0.2,0.3-0.5,0.4-0.7
			c1.4-3.1,2.1-6.5,2-10.4C100.6,32.8,100.6,32.3,100.5,31.7z"/>
	</g>
</g>
</svg>
