<?xml version="1.0" encoding="utf-8"?>
<!-- Generator: Adobe Illustrator 18.1.0, SVG Export Plug-In . SVG Version: 6.00 Build 0)  -->
<svg version="1.1" id="Layer_1" xmlns="http://www.w3.org/2000/svg" xmlns:xlink="http://www.w3.org/1999/xlink" x="0px" y="0px"
	 viewBox="0 0 150 150" enable-background="new 0 0 150 150" xml:space="preserve">
<g>
	<g>
		<linearGradient id="SVGID_1_" gradientUnits="userSpaceOnUse" x1="80.0193" y1="24.2196" x2="86.4618" y2="24.0381">
			<stop  offset="2.247200e-02" style="stop-color:#6CAB36"/>
			<stop  offset="0.7809" style="stop-color:#357D57"/>
		</linearGradient>
		<path fill="url(#SVGID_1_)" d="M84.3,31.4l-2.8,6V11c4.5-0.3,4.1,3.2,3.7,4.6C85.1,16,85,20.5,85,20.5L84.3,31.4z"/>
		<linearGradient id="SVGID_2_" gradientUnits="userSpaceOnUse" x1="93.6472" y1="44.4703" x2="49.4976" y2="50.8791">
			<stop  offset="0.3764" style="stop-color:#6CAB36"/>
			<stop  offset="1" style="stop-color:#357D57"/>
		</linearGradient>
		<path fill="url(#SVGID_2_)" d="M55.5,43.7c0,0,28.1-13.2,29.9-29.3V76c0,0-16.2,9.1-29.9-11.1V43.7z"/>
		<linearGradient id="SVGID_3_" gradientUnits="userSpaceOnUse" x1="85.9444" y1="38.8277" x2="96.5465" y2="38.529">
			<stop  offset="0" style="stop-color:#00A8DE"/>
			<stop  offset="0.7584" style="stop-color:#415863"/>
		</linearGradient>
		<path fill="url(#SVGID_3_)" d="M93.1,49.1l-4.8,8.6v-38c8.4-0.5,6.4,5.3,6.4,6.9c0,0.2-0.1,1.6-0.1,1.6L93.1,49.1z"/>
		<linearGradient id="SVGID_4_" gradientUnits="userSpaceOnUse" x1="107.5935" y1="67.8652" x2="34.8864" y2="78.4194">
			<stop  offset="0.2416" style="stop-color:#00A8DE"/>
			<stop  offset="1" style="stop-color:#415863"/>
		</linearGradient>
		<path fill="url(#SVGID_4_)" d="M44.2,67c0,0,46.3-18.5,50.5-41.4c0.1-0.3,0.1-0.7,0.2-1v88.9c0,0-27.5,13.1-50.7-16.1V67z"/>
		<g>
			<linearGradient id="SVGID_5_" gradientUnits="userSpaceOnUse" x1="94.8134" y1="57.4886" x2="109.8137" y2="57.0661">
				<stop  offset="0" style="stop-color:#FFAD26"/>
				<stop  offset="1" style="stop-color:#D77145"/>
			</linearGradient>
			<path fill="url(#SVGID_5_)" d="M106.6,43.7l-1.7,25.9L98,79.9V34.9C112,34.2,106.6,43.7,106.6,43.7"/>
			<linearGradient id="SVGID_6_" gradientUnits="userSpaceOnUse" x1="122.6929" y1="86.2872" x2="23.1568" y2="100.7359">
				<stop  offset="0" style="stop-color:#FFAD26"/>
				<stop  offset="1" style="stop-color:#D77145"/>
			</linearGradient>
			<path fill="url(#SVGID_6_)" d="M34.4,90.8c0,0,68.6-22.6,72.9-50.1v94.5c0,0-39.6,15.5-72.9-19V90.8z"/>
		</g>
	</g>
	<path fill="#E8E8E8" d="M70.1,101.4c-16.5,8.3-29.6,10.2-35.7,10.6v4c5.9-0.3,18.9-1.9,35.7-10v4.1l8.8-11.4l-8.8-0.2V101.4z
		 M92.4,75.7L81.6,77v3.5c-24.1,15.6-42.4,19.2-47.2,20v4.8c4.1-0.5,22.4-3.6,47.2-19.1v5.1L92.4,75.7z M59.2,118.9
		c-6.4,2.3-12.3,3.6-17.2,4.2c1.3,1.1,2.6,2,3.9,3c4-0.7,8.4-1.7,13.2-3.3v3.4l7.3-8.5l-7.3-1.2V118.9z"/>
</g>
</svg>
