<?xml version="1.0" encoding="utf-8"?>
<!-- Generator: Adobe Illustrator 18.1.0, SVG Export Plug-In . SVG Version: 6.00 Build 0)  -->
<svg version="1.1" id="Layer_1" xmlns="http://www.w3.org/2000/svg" xmlns:xlink="http://www.w3.org/1999/xlink" x="0px" y="0px"
	 viewBox="0 0 1500 1500" enable-background="new 0 0 1500 1500" xml:space="preserve">
<g>
	<path fill="#6EC2BC" d="M717.6,942.9c-27.6,72.1-51.5,127.5-120.2,103.9c-53.9-18.5-57-105.7-34.6-147.1
		c8.6-15.8,21.1-29.1,36-39.2c8.8-6,18.3-10.8,28.1-14.7c22.1-8.7,98.8-21.8,114.4-23.3c9.1-0.9,12.2-7.7,15.2-14.2
		c6.4-13.9,15.8-7.7,27.9-13.9c0,0,58.3-30,44.7-53.4c-35.6-4.8-285-1.1-350.2,147.5c-65.1,148.6-184.1,373-264.8,392.3
		c0,0,490.3,73.6,577.4-390C791.5,890.8,745.2,870.9,717.6,942.9z"/>
	<path fill="#FF8B8F" d="M677.9,718.6c0,0-136.7-168.3-103.4-387.7c0,0,171.6,151.5,145,361.5c0,0,165.7-242.5-185.2-539
		C534.4,153.3,337.7,459.3,677.9,718.6z"/>
	<path fill="#FF8B98" d="M588.7,748.9c0,0-181.3,37.6-334.7-73.8c0,0,182.3-70.7,331.2,31.9c0,0-118.9-220.9-481.6-71.1
		C103.5,635.9,258.4,905.2,588.7,748.9z"/>
	<path fill="#FF7976" d="M996.2,338.9c0,0,30.6,226.8-126.9,368.2c0,0,284-74.9,212.7-528.8c0,0-348.9,102.6-261.4,521.4
		C820.5,699.7,827.3,483.1,996.2,338.9z"/>
	<path fill="#E27B78" d="M902,807.9c0,0,137-142.4,339.3-136.8c0,0-117.9,172.2-310.9,171.6c0,0,237.9,122.9,467-227.8
		C1397.4,614.9,1098.6,471.1,902,807.9z"/>
	<path fill="#C6817F" d="M900.8,920.2c0,0,188.5,22.6,301.2,181c0,0-200.3,9.2-311.5-139.1c0,0,43.4,253.6,444.9,226.3
		C1335.5,1188.4,1272.8,876.1,900.8,920.2z"/>
	<path fill="#FF717B" d="M825.2,1023.1c0,0,102.6,114.6,86.5,271.3c0,0-126.8-101.5-115.2-251.3c0,0-109.2,177.5,149.8,375.7
		C946.4,1418.9,1075.3,1195.3,825.2,1023.1z"/>
	<path fill="#FFB602" d="M841.9,801.5c-10.7-3.6-23.1,2.5-27.6,12.3c-5.7,12.5-24.7,19.2-24.7,19.2c-30.2,5.5-19.5,24.4-5.5,38.4
		c16.1,16.1,57.1,41,68.5,24.7c15.6-22.3,10.3-50,3.1-74.2C853.2,813,851.5,804.8,841.9,801.5z"/>
</g>
</svg>
