<?xml version="1.0" encoding="utf-8"?>
<!-- Generator: Adobe Illustrator 18.1.0, SVG Export Plug-In . SVG Version: 6.00 Build 0)  -->
<svg version="1.1" id="Layer_1" xmlns="http://www.w3.org/2000/svg" xmlns:xlink="http://www.w3.org/1999/xlink" x="0px" y="0px"
	 viewBox="0 0 150 150" enable-background="new 0 0 150 150" xml:space="preserve">
<g>
	<path fill="none" d="M95.7,44.8c-3.5,0-7.4-1-11.9-3.4c-10.6-5.7-16.4-3.5-17.7-2.6c0,0,0.3-0.6,0.9-1.3
		c-17.4,3.3-30.6,18.7-30.6,37c0,3.2,0.4,6.4,1.2,9.4c0.5,1.3,1,2.7,1.6,3.9c0.9,0,1.7,0.1,2.6,0.5c0.1,0,0.1,0.1,0.2,0.1
		c10.8-3.5,19.5-9.6,28.4-14c9.8-4.8,20.6-9.6,36.7-12.6C105,55.2,101,49.3,95.7,44.8z M63.6,44.4c0-1.7,1.4-3.1,3.1-3.1h3.7h2.5
		c1.7,0,3.1,1.4,3.1,3.1v3.4h-5.6h-6.8V44.4z M88.2,63.9c-6.7,2.3-12.4,4.9-17.8,7.5c-1.6,0.8-3.2,1.6-4.8,2.4
		c-7.6,3.8-14.8,7.4-24,10V66.1c0-1.4,0.7-2.7,1.8-3.5l6.8-4.7c0.6-0.4,1.6-0.7,2.3-0.7h11v-6.5h6.8H76v6.5h9.5
		c1.5,0,2.8,1.2,2.8,2.8V63.9z"/>
	<path fill="none" d="M119.4,59.4l-2.4,1c1.3-0.2,2.5-0.3,3.9-0.4C120.3,59.8,119.8,59.6,119.4,59.4z"/>
	<path fill="#73CAC5" d="M42,88.5c-0.1,0-0.1-0.1-0.2-0.1c-0.9-0.4-1.7-0.5-2.6-0.5c0.2,0.4,0.4,0.9,0.6,1.3
		C40.6,88.9,41.3,88.7,42,88.5z"/>
	<path fill="#73CAC5" d="M39.8,89.1c-0.2-0.4-0.4-0.8-0.6-1.3c-0.1,0-0.2,0-0.3,0c0.2,0.5,0.4,0.9,0.5,1.4
		C39.6,89.2,39.7,89.2,39.8,89.1z"/>
	<path fill="#73CAC5" d="M43.7,95.1c1.6-2.1,0.5-5.3-1.7-6.6c-0.7,0.2-1.4,0.4-2.1,0.6C40.9,91.3,42.2,93.3,43.7,95.1z"/>
	<path fill="#73CAC5" d="M39.4,89.3c0.4,1,0.9,1.9,1.3,2.8c0.2,0.2,0.3,0.4,0.3,0.6c0.6,1.1,1.3,2.2,2,3.2c0,0,0.1-0.1,0.1-0.1
		c0.2-0.2,0.4-0.4,0.6-0.6c-1.5-1.9-2.8-3.8-3.9-6C39.7,89.2,39.6,89.2,39.4,89.3z"/>
	<g>
		<path fill="#F2D41D" d="M76,47.7v-3.4c0-1.7-1.4-3.1-3.1-3.1h-2.5h-3.7c-1.7,0-3.1,1.4-3.1,3.1v3.4h6.8H76z"/>
		<path fill="#F2D41D" d="M85.4,57.2H76v-6.5h-5.6h-6.8v6.5h-11c-0.7,0-1.8,0.3-2.3,0.7l-6.8,4.7c-1.1,0.8-1.8,2.1-1.8,3.5v17.8
			c9.2-2.7,16.4-6.3,24-10c1.6-0.8,3.2-1.6,4.8-2.4c5.4-2.6,11.1-5.2,17.8-7.5V60C88.2,58.5,87,57.2,85.4,57.2z"/>
		<path fill="#F2D41D" d="M114.6,32.7c0.2-0.2,0.3-0.5,0.3-0.6C114.9,32.1,114.8,32.3,114.6,32.7z"/>
		<path fill="#F2D41D" d="M99.3,39.1c-0.5,0-1,0-1.5,0c-3.4-0.1-7.1-0.8-11.2-2.4c-9.9-4-15.4-2.3-18.1-0.4
			c-0.6,0.4-1.1,0.9-1.5,1.3c-0.7,0.7-0.9,1.3-0.9,1.3c1.3-0.9,7.1-3.1,17.7,2.6c4.5,2.4,8.4,3.4,11.9,3.4c0.5,0,0.9,0,1.4,0
			c2.2-0.1,4.2-0.7,6-1.4c0.3-0.1,0.6-0.3,0.9-0.4c6-2.9,9.5-8.3,10.5-10.2C113.1,34.9,107.5,38.8,99.3,39.1z"/>
	</g>
	<g>
		<path fill="#3ABDA9" d="M120.8,59.9c1.4-0.1,2.8-0.3,4.3-0.4l10.4-4.4c1.6-0.7,2.9-1.9,3.5-3.6c0.7-1.6,0.6-3.4,0-5
			c-0.7-1.6-1.9-2.9-3.5-3.5c-1.6-0.7-3.4-0.6-5,0l-10.6,4.5c-1.6,0.7-2.8,1.9-3.5,3.5c-0.1,0.2-0.2,0.4-0.2,0.7l-4,1.7
			c-2.2-3.9-4.9-7.5-8.2-10.5c-0.3,0.1-0.6,0.3-0.9,0.4c-1.8,0.8-3.8,1.3-6,1.4c-0.5,0-0.9,0-1.4,0c5.3,4.5,9.3,10.4,11.4,17.1
			c3.1-0.6,6.4-1.1,9.9-1.5l2.4-1C119.8,59.6,120.3,59.8,120.8,59.9z"/>
		<path fill="#3ABDA9" d="M135.8,92.1l-10.7-4.4c-0.2-0.1-0.4-0.2-0.6-0.2c-1.7,3.5-3.5,6.8-5.4,9.7c-0.3,0.5-0.5,1.1-0.5,1.7
			c0.5,0.4,1,0.7,1.6,0.9l10.7,4.4c3.3,1.4,7.1-0.3,8.5-3.6C140.7,97.3,139.1,93.5,135.8,92.1z"/>
		<path fill="#3ABDA9" d="M101.1,98.9c-0.7,0.6,0.2,1.5,1.1,1.8c1.4,0.3,2.6-0.4,3.2-1.6c1.3-2.5-0.3-5.1-2.6-6.2
			c-0.4-0.2-0.9-0.3-1.3-0.4c-0.2,0-0.4-0.1-0.5-0.1c-2.8-0.2-5.4,1.7-6.5,4.1c-0.2,0.4-0.3,0.8-0.4,1.1c-0.8,3.8-4.7,6.5-8.4,5.3
			c-0.8-0.2-1.5-0.6-2-1.2c-0.9-1.1-1.3-2.6-1-4.1c0.3-1.5,1.8-2.8,3.4-2.5c0.4,0.1,1.1,0.4,1.3,0.9c0.2,0.4,0.2,1-0.4,1.1
			c-0.5,0-1.2-0.1-1.4,0.3c-0.2,0.6-0.1,1.1,0.3,1.6c0.8,0.8,2.2,0.8,3.2,0.3c1.3-0.8,1.9-2.1,1.8-3.5c-0.1-2.3-3.7-5.2-7.8-3.6
			c-1.8,0.7-3.3,2.4-4.2,4.2c0,0-0.1,0.3-0.4,1.1c-0.9,2.9-4,5-7,4.6c-1.8-0.3-3.4-1.2-4.2-3c-0.5-1.3-0.5-2.6,0.2-3.8
			c0.7-1.2,2-1.8,3.4-1.6c0.7,0.2,1,0.7,1.3,1.2c0.2,1.1-1,1.1-1.5,1.7c-0.7,0.6,0.2,1.5,1.1,1.8c1.4,0.3,2.6-0.4,3.2-1.6
			c1.5-2.9-0.9-6-3.9-6.6c-3-0.5-5.8,1.4-7,4c-0.2,0.4-0.3,0.8-0.4,1.1c-0.8,3.8-4.7,6.5-8.4,5.3c-2.1-0.6-3.5-2.4-3.6-4.6
			c0-1.5,0.7-3,2.1-3.6c1.3-0.5,2.9-0.2,3.3,1.2c0.1,0.5,0,1.2-0.6,1.3c-0.5,0-1.2-0.1-1.4,0.3c-0.2,0.6-0.1,1.1,0.3,1.6
			c0.9,0.8,2.2,0.8,3.2,0.3c1.3-0.8,1.9-2.1,1.8-3.5c-0.1-2.3-1.8-4-4-4.6c-3.4-0.9-6,1.3-7.6,3.9c-0.2,0.4-0.4,0.8-0.7,1.8
			c-0.1,0.3-0.3,0.8-0.5,1.1c0,0,0,0,0,0c-0.3,0.7-0.7,1.3-1.2,1.8c-0.3,0.3-0.6,0.6-1,0.8c-0.8-0.9-1.5-1.9-2.1-2.8
			c-0.7-1-1.4-2.1-2-3.2c-0.1-0.2-0.2-0.4-0.3-0.6c-0.5-0.9-0.9-1.8-1.3-2.8c-0.2-0.5-0.4-0.9-0.5-1.4c0.1,0,0.2,0,0.3,0
			c-0.6-1.3-1.1-2.6-1.6-3.9c-0.8-3-1.2-6.2-1.2-9.4c0-18.4,13.2-33.7,30.6-37c0.4-0.4,0.8-0.8,1.5-1.3c2.7-1.9,8.2-3.6,18.1,0.4
			c4.1,1.7,7.8,2.4,11.2,2.4c0.5,0,1,0,1.5,0c-1.6-1.2-3.4-2.2-5.1-3.1c0.3-1,0.6-2,0.9-3c0.1-0.4,0.2-0.9,0.3-1.3
			c2-0.5,3.7-1.9,4.5-3.8l4.4-10.7c1.4-3.3-0.3-7.1-3.6-8.5c-3.3-1.4-7.1,0.2-8.5,3.6l-4.4,10.7c-0.8,1.9-0.6,4.1,0.5,5.9
			c-0.2,0.4-0.4,0.8-0.7,1.2c-0.5,0.9-1,1.9-1.5,2.8c-3.8-1.1-7.8-1.7-12-1.7c-4.5,0-8.9,0.7-13,2l-1.8-4.3c0.1-0.2,0.2-0.4,0.3-0.6
			c0.7-1.6,0.6-3.4,0-4.9l-4.5-10.6c-0.7-1.6-1.9-2.9-3.6-3.5c-1.6-0.7-3.4-0.6-5,0c-1.6,0.7-2.9,1.9-3.5,3.6c-0.7,1.6-0.6,3.4,0,5
			l4.5,10.6c0.8,1.8,2.3,3.2,4.2,3.7l1.8,4.3c-7.5,4-13.7,10.2-17.7,17.6c-1-0.3-1.9-0.6-2.9-0.9c-0.4-0.1-0.9-0.2-1.3-0.3
			c-0.5-2-1.9-3.7-3.8-4.5l-10.7-4.4c-3.3-1.4-7.1,0.2-8.5,3.6c-1.4,3.3,0.3,7.1,3.6,8.5l10.7,4.4c1.9,0.8,4.1,0.6,5.9-0.5
			c0.4,0.2,0.8,0.4,1.1,0.7c0.9,0.5,1.7,0.9,2.6,1.4c-1.2,4-1.9,8.3-1.9,12.8c0,4.3,0.6,8.5,1.8,12.5l-3.8,1.6
			c-1.7-0.9-3.8-1-5.6-0.3l-10.6,4.5c-1.6,0.7-2.9,1.9-3.5,3.6c-0.7,1.6-0.6,3.4,0,5c0.7,1.6,1.9,2.9,3.5,3.5c1.6,0.7,3.4,0.6,5,0
			l10.6-4.5c1.6-0.7,2.8-1.9,3.5-3.5c0.1-0.2,0.2-0.4,0.2-0.7l3.7-1.6c4,7.7,10.4,14.1,18,18.3c-0.2,0.7-0.4,1.4-0.6,2.1
			c-0.1,0.4-0.2,0.9-0.3,1.3c-2,0.5-3.7,1.9-4.5,3.8l-4.4,10.7c-1.4,3.3,0.2,7.1,3.6,8.5c3.3,1.4,7.1-0.2,8.5-3.6l4.4-10.7
			c0.8-1.9,0.6-4.1-0.5-5.9c0.2-0.4,0.4-0.8,0.7-1.1c0.4-0.6,0.7-1.3,1-1.9c4,1.2,8.3,1.9,12.7,1.9c4.6,0,9-0.7,13.1-2l1.4,3.3
			c-0.1,0.2-0.2,0.4-0.3,0.6c-0.7,1.6-0.6,3.4,0,4.9l4.5,10.6c0.7,1.6,1.9,2.9,3.6,3.5c1.6,0.7,3.4,0.6,5,0c0.8-0.4,1.6-0.9,2.2-1.5
			c0.6-0.6,1-1.3,1.3-2c0.7-1.6,0.6-3.4,0-5l-4.5-10.6c-0.8-1.8-2.3-3.2-4.2-3.7l-1.4-3.3c2.1-1.2,4.2-2.5,6.1-4
			c0,0,0.1-0.1,0.1-0.1c-0.6-0.2-1.1-0.5-1.5-0.8c0,0-0.1-0.1-0.1-0.1c-1.2-0.8-2.1-1.9-2.6-3.2c-0.3-0.8-0.5-1.6-0.5-2.5
			c0-0.8,0.2-1.6,0.4-2.3c0.2-0.6,0.6-1.2,1-1.8c0.1-0.2,0.2-0.4,0.3-0.5c0.6-0.9,1.5-1.5,2.5-1.6c0.3,0,0.5,0,0.8,0
			c0.8,0.2,1,0.7,1.3,1.2C102.8,98.3,101.6,98.4,101.1,98.9z"/>
	</g>
	<g>
		<path fill="#5C3918" d="M130.3,59.2c-1.8,0.1-3.5,0.2-5.2,0.4c-1.5,0.1-2.9,0.3-4.3,0.4c-1.3,0.1-2.6,0.3-3.9,0.4
			c-3.5,0.4-6.8,0.9-9.9,1.5c-16.2,3-26.9,7.8-36.7,12.6C61.5,78.9,52.8,85,42,88.5c2.3,1.3,3.4,4.5,1.7,6.6
			c-0.2,0.2-0.3,0.4-0.6,0.6c0,0-0.1,0.1-0.1,0.1c0.7,1,1.4,1.9,2.1,2.8c0.3-0.2,0.7-0.5,1-0.8c0.5-0.5,0.9-1.1,1.2-1.8c0,0,0,0,0,0
			c0.2-0.3,0.4-0.8,0.5-1.1c0.3-1,0.5-1.4,0.7-1.8c1.6-2.6,4.2-4.9,7.6-3.9c2.2,0.6,3.9,2.3,4,4.6c0,1.4-0.5,2.7-1.8,3.5
			c-1,0.5-2.3,0.6-3.2-0.3c-0.4-0.5-0.5-1-0.3-1.6c0.2-0.4,1-0.4,1.4-0.3c0.6-0.1,0.7-0.9,0.6-1.3c-0.3-1.4-2-1.7-3.3-1.2
			c-1.4,0.6-2.2,2.1-2.1,3.6c0.1,2.2,1.5,4,3.6,4.6c3.7,1.2,7.6-1.5,8.4-5.3c0.1-0.4,0.2-0.8,0.4-1.1c1.2-2.6,4-4.6,7-4
			c3,0.6,5.4,3.7,3.9,6.6c-0.6,1.2-1.8,1.8-3.2,1.6c-0.9-0.2-1.7-1.2-1.1-1.8c0.5-0.6,1.7-0.6,1.5-1.7c-0.3-0.5-0.5-1-1.3-1.2
			c-1.4-0.3-2.6,0.4-3.4,1.6c-0.7,1.2-0.7,2.5-0.2,3.8c0.8,1.8,2.4,2.7,4.2,3c3,0.4,6.1-1.6,7-4.6c0.3-0.8,0.4-1.1,0.4-1.1
			c0.9-1.8,2.4-3.5,4.2-4.2c4.1-1.6,7.7,1.3,7.8,3.6c0,1.4-0.5,2.7-1.8,3.5c-1,0.5-2.3,0.6-3.2-0.3c-0.4-0.5-0.5-1-0.3-1.6
			c0.2-0.4,1-0.4,1.4-0.3c0.6-0.1,0.6-0.6,0.4-1.1c-0.2-0.5-0.9-0.8-1.3-0.9c-1.7-0.3-3.1,1-3.4,2.5c-0.3,1.5,0.1,2.9,1,4.1
			c0.6,0.5,1.2,0.9,2,1.2c3.7,1.2,7.6-1.5,8.4-5.3c0.1-0.4,0.2-0.8,0.4-1.1c1.1-2.4,3.7-4.3,6.5-4.1c0.2,0,0.3,0,0.5,0.1
			c0.5,0.1,0.9,0.2,1.3,0.4c2.3,1.1,3.8,3.7,2.6,6.2c-0.6,1.2-1.8,1.8-3.2,1.6c-0.9-0.2-1.7-1.2-1.1-1.8c0.5-0.6,1.7-0.6,1.5-1.7
			c-0.3-0.5-0.5-1-1.3-1.2c-0.3-0.1-0.5-0.1-0.8,0c-1,0.1-2,0.7-2.5,1.6c-0.1,0.2-0.2,0.4-0.3,0.5c-0.4,0.5-0.7,1.1-1,1.8
			c-0.3,0.7-0.4,1.5-0.4,2.3c0,0.9,0.2,1.7,0.5,2.5c0.5,1.3,1.4,2.4,2.6,3.2c0,0,0.1,0.1,0.1,0.1c0.5,0.3,1,0.6,1.5,0.8
			c0,0-0.1,0.1-0.1,0.1l0.6,0c0.8,0.3,1.7,0.4,2.6,0.4c0.4,0,0.9,0,1.3-0.1l14.7,1.2c2.4,0.2,4-2.5,2.6-4.5l-3.7-5.5
			c-0.3-0.4-0.4-0.9-0.4-1.4c0-0.6,0.1-1.2,0.5-1.7c1.9-2.9,3.7-6.2,5.4-9.7c4-8.3,7.1-17.8,8.2-25.9
			C132.8,60.3,131.7,59.1,130.3,59.2z"/>
		<path fill="#5C3918" d="M41,92.6c0-0.2-0.1-0.4-0.3-0.6C40.9,92.2,40.9,92.4,41,92.6z"/>
	</g>
</g>
</svg>
