<?xml version="1.0" encoding="iso-8859-1"?>
<!-- Generator: Adobe Illustrator 13.0.0, SVG Export Plug-In . SVG Version: 6.00 Build 14948)  -->
<!DOCTYPE svg PUBLIC "-//W3C//DTD SVG 1.1//EN" "http://www.w3.org/Graphics/SVG/1.1/DTD/svg11.dtd">
<svg version="1.1" id="Layer_1" xmlns="http://www.w3.org/2000/svg" xmlns:xlink="http://www.w3.org/1999/xlink" x="0px" y="0px"
	 width="100px" height="100px" viewBox="0 0 100 100" enable-background="new 0 0 100 100" xml:space="preserve">
<g>
	<g>
		<radialGradient id="SVGID_1_" cx="38.438" cy="58.1318" r="26.3912" gradientUnits="userSpaceOnUse">
			<stop  offset="0" style="stop-color:#919395"/>
			<stop  offset="0.6727" style="stop-color:#424243"/>
			<stop  offset="1" style="stop-color:#272525"/>
		</radialGradient>
		<path fill="url(#SVGID_1_)" d="M72.752,36.032c-0.86-2.46-3.497-3.505-5.848-3.996c0.406,1.451,0.664,2.935,0.895,4.422
			c1.189,0.755,2.659,1.391,3.23,2.782c0.803,1.728,0.155,3.602-0.177,5.353C72.152,41.984,73.742,39.01,72.752,36.032z"/>
		<radialGradient id="SVGID_2_" cx="38.4497" cy="58.1357" r="26.3837" gradientUnits="userSpaceOnUse">
			<stop  offset="0" style="stop-color:#919395"/>
			<stop  offset="0.6727" style="stop-color:#424243"/>
			<stop  offset="1" style="stop-color:#272525"/>
		</radialGradient>
		<path fill="url(#SVGID_2_)" d="M29.623,62.157c-0.684-2.897,0.948-5.636,2.373-8.032c-0.201-2.018-0.414-4.032-0.636-6.045
			c-2.935,3.52-6.508,7.632-5.812,12.559c0.684,3.332,4.365,4.221,7.209,4.819C31.522,64.581,30.012,63.75,29.623,62.157z"/>
	</g>
	<g>
		<radialGradient id="SVGID_3_" cx="54.7539" cy="67.5508" r="49.3429" gradientUnits="userSpaceOnUse">
			<stop  offset="0" style="stop-color:#00ABEB"/>
			<stop  offset="0.029" style="stop-color:#22AAE7"/>
			<stop  offset="0.0603" style="stop-color:#3FA8E3"/>
			<stop  offset="0.0914" style="stop-color:#53A8E0"/>
			<stop  offset="0.122" style="stop-color:#60A7DF"/>
			<stop  offset="0.1515" style="stop-color:#64A7DE"/>
			<stop  offset="0.3273" style="stop-color:#4674B7"/>
			<stop  offset="0.5212" style="stop-color:#333B8B"/>
			<stop  offset="0.7576" style="stop-color:#211C51"/>
			<stop  offset="1" style="stop-color:#171043"/>
		</radialGradient>
		<path fill="url(#SVGID_3_)" d="M69.184,54.707c0.199-1.615,0.4-3.224,0.588-4.841c0.791,4.626,1.428,9.275,2.168,13.913
			c0.335,1.94,0.268,4.095-0.928,5.755c-0.902,1.405-2.608,1.877-4.133,2.24c-7.273,1.657-14.537,3.383-21.811,5.061
			c-0.715,0.15-1.434,0.314-2.14,0.49c-2.075,0.579-4.348,1.15-6.375,0.092c-3.235-2.215-2.62-6.588-3.125-9.974
			c1.654,0.425,3.343,0.706,5.052,0.86c1.059,2.264,3.165,4.614,5.94,3.979c6.034-1.26,11.997-2.898,18.003-4.303
			c2.336-0.42,4.305-2.302,4.521-4.72c0.196-3.25-0.823-6.429-1.005-9.664c0.174-0.241,0.534-0.715,0.713-0.959
			C67.492,53.328,68.336,54.018,69.184,54.707z"/>
		<g>
			<radialGradient id="SVGID_4_" cx="54.7529" cy="67.5498" r="49.3371" gradientUnits="userSpaceOnUse">
				<stop  offset="0" style="stop-color:#00ABEB"/>
				<stop  offset="0.029" style="stop-color:#22AAE7"/>
				<stop  offset="0.0603" style="stop-color:#3FA8E3"/>
				<stop  offset="0.0914" style="stop-color:#53A8E0"/>
				<stop  offset="0.122" style="stop-color:#60A7DF"/>
				<stop  offset="0.1515" style="stop-color:#64A7DE"/>
				<stop  offset="0.3273" style="stop-color:#4674B7"/>
				<stop  offset="0.5212" style="stop-color:#333B8B"/>
				<stop  offset="0.7576" style="stop-color:#211C51"/>
				<stop  offset="1" style="stop-color:#171043"/>
			</radialGradient>
			<path fill="url(#SVGID_4_)" d="M41.867,17.965c0.908-1.45,2.305-2.77,4.096-2.897c1.759-0.258,3.267,0.834,4.549,1.887
				c4.564,3.843,9.137,7.668,13.73,11.478c1.176,0.951,2.194,2.148,2.662,3.604c0.406,1.451,0.664,2.935,0.895,4.422
				c0.443,3.173,0.945,6.335,1.41,9.5c-1.441,0.27-2.883,0.531-4.324,0.803c-0.387-2.333-0.43-4.771-1.332-6.982
				c-0.786-1.78-2.682-3.074-4.66-2.867c-5.395,0.363-10.773,0.968-16.171,1.359c-1.899,0.176-4.09,0.29-5.43,1.856
				c-1.433,1.444-1.683,3.604-1.399,5.534c0.823,6.82,1.646,13.646,2.48,20.469c-1.694,0.139-3.403,0.145-5.103,0.065
				c-0.431-4.024-0.834-8.049-1.274-12.071c-0.201-2.018-0.414-4.032-0.636-6.045c-0.298-3.332-0.774-6.644-0.987-9.976
				c-0.134-1.646,0.522-3.213,1.427-4.55C35.197,28.389,38.501,23.159,41.867,17.965z M45.568,17.874
				c-1.686,0.78-1.811,3.406-0.216,4.354c1.621,1.133,4.195-0.267,3.931-2.285C49.24,18.158,47.098,16.997,45.568,17.874z"/>
		</g>
	</g>
	<g>
		<radialGradient id="SVGID_5_" cx="50.395" cy="44.709" r="29.1182" gradientUnits="userSpaceOnUse">
			<stop  offset="0" style="stop-color:#00ABEB"/>
			<stop  offset="0.029" style="stop-color:#22AAE7"/>
			<stop  offset="0.0603" style="stop-color:#3FA8E3"/>
			<stop  offset="0.0914" style="stop-color:#53A8E0"/>
			<stop  offset="0.122" style="stop-color:#60A7DF"/>
			<stop  offset="0.1515" style="stop-color:#64A7DE"/>
			<stop  offset="0.3273" style="stop-color:#4674B7"/>
			<stop  offset="0.5212" style="stop-color:#333B8B"/>
			<stop  offset="0.7576" style="stop-color:#211C51"/>
			<stop  offset="1" style="stop-color:#171043"/>
		</radialGradient>
		<polygon fill="url(#SVGID_5_)" points="50.92,44.958 57.301,44.198 58.014,50.516 51.724,51.248 		"/>
		<radialGradient id="SVGID_6_" cx="50.396" cy="44.708" r="29.1128" gradientUnits="userSpaceOnUse">
			<stop  offset="0" style="stop-color:#00ABEB"/>
			<stop  offset="0.029" style="stop-color:#22AAE7"/>
			<stop  offset="0.0603" style="stop-color:#3FA8E3"/>
			<stop  offset="0.0914" style="stop-color:#53A8E0"/>
			<stop  offset="0.122" style="stop-color:#60A7DF"/>
			<stop  offset="0.1515" style="stop-color:#64A7DE"/>
			<stop  offset="0.3273" style="stop-color:#4674B7"/>
			<stop  offset="0.5212" style="stop-color:#333B8B"/>
			<stop  offset="0.7576" style="stop-color:#211C51"/>
			<stop  offset="1" style="stop-color:#171043"/>
		</radialGradient>
		<polygon fill="url(#SVGID_6_)" points="43.005,45.94 49.271,45.154 50.049,51.494 43.976,52.179 		"/>
		<radialGradient id="SVGID_7_" cx="50.395" cy="44.7061" r="29.119" gradientUnits="userSpaceOnUse">
			<stop  offset="0" style="stop-color:#00ABEB"/>
			<stop  offset="0.029" style="stop-color:#22AAE7"/>
			<stop  offset="0.0603" style="stop-color:#3FA8E3"/>
			<stop  offset="0.0914" style="stop-color:#53A8E0"/>
			<stop  offset="0.122" style="stop-color:#60A7DF"/>
			<stop  offset="0.1515" style="stop-color:#64A7DE"/>
			<stop  offset="0.3273" style="stop-color:#4674B7"/>
			<stop  offset="0.5212" style="stop-color:#333B8B"/>
			<stop  offset="0.7576" style="stop-color:#211C51"/>
			<stop  offset="1" style="stop-color:#171043"/>
		</radialGradient>
		<path fill="url(#SVGID_7_)" d="M51.979,53.385c2.039-0.329,6.312-0.846,6.312-0.846s0.329,1.891,0.533,2.768
			c-1.098,1.294-2.182,2.6-3.363,3.811c-0.326,0.131-0.973,0.39-1.293,0.518c-0.369-0.029-1.102-0.082-1.474-0.108
			C52.419,57.482,52.155,55.434,51.979,53.385z"/>
		<radialGradient id="SVGID_8_" cx="50.395" cy="44.71" r="29.1068" gradientUnits="userSpaceOnUse">
			<stop  offset="0" style="stop-color:#00ABEB"/>
			<stop  offset="0.029" style="stop-color:#22AAE7"/>
			<stop  offset="0.0603" style="stop-color:#3FA8E3"/>
			<stop  offset="0.0914" style="stop-color:#53A8E0"/>
			<stop  offset="0.122" style="stop-color:#60A7DF"/>
			<stop  offset="0.1515" style="stop-color:#64A7DE"/>
			<stop  offset="0.3273" style="stop-color:#4674B7"/>
			<stop  offset="0.5212" style="stop-color:#333B8B"/>
			<stop  offset="0.7576" style="stop-color:#211C51"/>
			<stop  offset="1" style="stop-color:#171043"/>
		</radialGradient>
		<path fill="url(#SVGID_8_)" d="M44.061,54.424l6.363-0.761l0.667,6.286c0,0-4.172,0.528-6.261,0.746
			C44.591,58.607,44.061,54.424,44.061,54.424z"/>
	</g>
	<radialGradient id="SVGID_9_" cx="38.4512" cy="58.1348" r="26.3832" gradientUnits="userSpaceOnUse">
		<stop  offset="0" style="stop-color:#919395"/>
		<stop  offset="0.6727" style="stop-color:#424243"/>
		<stop  offset="1" style="stop-color:#272525"/>
	</radialGradient>
	<path fill="url(#SVGID_9_)" d="M69.209,45.958c-1.441,0.27-2.883,0.531-4.324,0.803c-1.275,0.235-2.541,0.479-3.814,0.727
		c0.754,0.707,1.504,1.422,2.258,2.134c-1.433,1.953-2.963,3.826-4.504,5.685c-1.098,1.294-4.336,4.2-4.656,4.328
		c-3.259,2.015-6.44,4.299-10.189,5.315c-1.836,0.534-3.707,0.962-5.605,1.181c-1.694,0.139-3.403,0.145-5.103,0.065
		c-1.677-0.108-3.326-0.44-4.989-0.687c1.694,0.697,3.38,1.43,5.148,1.933c1.654,0.425,3.343,0.706,5.052,0.86
		c2.021,0.027,4.053-0.117,6.042-0.503c4.583-1.033,8.906-3.103,12.658-5.915c3.184-2.461,6.209-5.168,8.758-8.29
		c0.174-0.241,0.534-0.715,0.713-0.959c0.84,0.692,1.684,1.382,2.531,2.071c0.199-1.615,0.4-3.224,0.588-4.841
		c0.122-1.351,0.189-2.713,0.307-4.07C69.856,45.835,69.426,45.915,69.209,45.958z"/>
</g>
</svg>
