<?xml version="1.0" encoding="iso-8859-1"?>
<!-- Generator: Adobe Illustrator 13.0.0, SVG Export Plug-In . SVG Version: 6.00 Build 14948)  -->
<!DOCTYPE svg PUBLIC "-//W3C//DTD SVG 1.1//EN" "http://www.w3.org/Graphics/SVG/1.1/DTD/svg11.dtd">
<svg version="1.1" id="Layer_1" xmlns="http://www.w3.org/2000/svg" xmlns:xlink="http://www.w3.org/1999/xlink" x="0px" y="0px"
	 width="100px" height="100px" viewBox="0 0 100 100" enable-background="new 0 0 100 100" xml:space="preserve">
<g>
	<g>
		<g>
			<path fill="#EDE95F" d="M72.228,27.642C36.281,26.978,44.601,55.27,44.601,55.27S72.893,63.59,72.228,27.642z"/>
			<path fill="#EDE95F" d="M44.601,55.27C8.653,54.6,16.979,82.892,16.979,82.892S45.265,91.212,44.601,55.27z"/>
			<path fill="#EDE95F" d="M72.228,82.892C72.893,46.944,44.601,55.27,44.601,55.27S36.281,83.556,72.228,82.892z"/>
			<path fill="#EDE95F" d="M44.601,55.27c0.665-35.947-27.622-27.627-27.622-27.627S8.653,55.935,44.601,55.27z"/>
			<path fill="#EDE95F" d="M44.601,16.201c-25.887,24.943,0,39.069,0,39.069S70.488,41.144,44.601,16.201z"/>
			<path fill="#EDE95F" d="M44.601,55.27c-25.887,24.943,0,39.063,0,39.063S70.488,80.213,44.601,55.27z"/>
			<path fill="#EDE95F" d="M83.671,55.27c-24.95-25.891-39.07,0-39.07,0S58.721,81.15,83.671,55.27z"/>
			<path fill="#EDE95F" d="M44.601,55.27c-24.95-25.891-39.069,0-39.069,0S19.651,81.15,44.601,55.27z"/>
		</g>
	</g>
	<g>
		<path fill="#FFFFFF" d="M57.478,68.352c0,0.767-0.3,1.461-0.902,2.076c-0.599,0.62-1.283,0.928-2.051,0.928
			c-0.702,0-1.354-0.268-1.955-0.802l-9.764-8.914c-0.668,0.201-1.337,0.384-2.003,0.551v7.213c0,1.001-0.368,1.876-1.104,2.629
			c-0.734,0.75-1.602,1.127-2.603,1.127c-1.371,0-2.053-0.751-2.053-2.254V62.74c-0.801-0.031-1.461-0.315-1.979-0.851
			c-0.519-0.533-0.777-1.2-0.777-2.003c0-1.836,0.918-2.788,2.756-2.855v-5.559c0-1.002,0.357-1.878,1.076-2.629
			c0.717-0.75,1.576-1.127,2.579-1.127c1.402,0,2.104,0.75,2.104,2.254v6.26c3.737-1.067,6.542-2.771,8.412-5.107
			c0.768-0.968,1.152-1.853,1.152-2.656c0-1.368-0.885-2.402-2.655-3.105c-1.334-0.533-2.804-0.8-4.406-0.8
			c-2.337,0-4.191,0.483-5.559,1.453c-0.568,0.4-1.135,0.6-1.703,0.6c-0.801,0-1.478-0.309-2.029-0.926
			c-0.55-0.619-0.826-1.327-0.826-2.13c0-0.9,0.418-1.653,1.252-2.252c2.47-1.734,5.308-2.605,8.514-2.605
			c3.172,0,6.077,0.819,8.715,2.456c3.004,1.901,4.507,4.357,4.507,7.36c0,2.104-0.819,4.176-2.455,6.21
			c-1.335,1.638-3.055,3.091-5.159,4.358l7.915,7.161C57.144,66.848,57.478,67.551,57.478,68.352z"/>
	</g>
</g>
</svg>
