<?xml version="1.0" encoding="utf-8"?>
<!-- Generator: Adobe Illustrator 18.1.0, SVG Export Plug-In . SVG Version: 6.00 Build 0)  -->
<svg version="1.1" id="Layer_1" xmlns="http://www.w3.org/2000/svg" xmlns:xlink="http://www.w3.org/1999/xlink" x="0px" y="0px"
	 viewBox="0 0 2000 2000" enable-background="new 0 0 2000 2000" xml:space="preserve">
<g>
	<path fill="#F0EAE6" enable-background="new    " d="M1764,1762c13,0,27,0,27,0c0-13,0-1574,0-1574c-14,0-1177,0-1191,0
		c0,0,0,0,0,14h1164V1762z"/>
	<path fill="#717375" d="M1805,175h-5H600v41h-82v124.6l14,10.9c0-75.6,0-121.5,0-121.5c14,0,1177,0,1191,0c0,13,0,1574,0,1587
		c-14,0-1177,0-1191,0c0-13,0-377.4,0-756.2l-14-10.9V1817h1218v-2.3V216h-8.3H600.2l-1-14h0.8c0-14,0-14,0-14c14,0,1177,0,1191,0
		c0,0,0,1561,0,1574c0,0-14,0-27,0v8.8v5.2h41V175z"/>
	<polygon fill="#E8E0DA" enable-background="new    " points="1764,1764.8 1764,202 605.5,202 599.2,202 600.2,216 1727.7,216 
		1736,216 1736,1817 1764,1817 1764,1775.7 1764,1770.8 	"/>
	<path fill="#F0EAE6" enable-background="new    " d="M669,481.1V476h451v27H683.2l34.8,28h402v27H742.9l34.8,41H1120v27H802.6
		l34.8,28H1120v27H862.2l34.8,28H1120v27H921.9l34.8,41H1120v27H981.6l207.4,209v-17h452v27h-440.5l34.8,28H1641v27h-380.9l34.8,41
		h346v14h-321.2l34.8,41H1641v27h-261.5l16.3,14.7l-1-1.6l23.5,14.9H1641v27h-212.6l7.5,41H1641v14h-199.7l7.5,41H1641v27h-186.8
		l71.5,331.8l-172.7-43.1v-0.3l-288.3-71.7l4.4-4.2l-28.7-22.6l-508.4-508c0,378.8,0,743.2,0,756.2c14,0,1177,0,1191,0
		c0-13,0-1574,0-1587c-14,0-1177,0-1191,0c0,0,0,45.9,0,121.5L669,481.1z M669,353h451v27H669V353z M669,449v-28h451v28H669z
		 M1189,955v-27h452v27H1189z M1641,900h-452v-27h452V900z M1189,298h452v27h-452V298z M1189,353h452v27h-452V353z M1189,421h452v28
		h-452V421z M1189,476h452v27h-452V476z M1189,531h452v27h-452V531z M1189,599h452v27h-452V599z M1189,654h452v27h-452V654z
		 M1189,709h452v27h-452V709z M1189,777h452v27h-452V777z M1120,298v27H669v-27H1120z"/>
	<rect x="1189" y="298" fill="#AEB0B2" width="452" height="27"/>
	<rect x="1189" y="353" fill="#AEB0B2" width="452" height="27"/>
	<rect x="1189" y="421" fill="#AEB0B2" width="452" height="28"/>
	<rect x="1189" y="476" fill="#AEB0B2" width="452" height="27"/>
	<rect x="1189" y="531" fill="#AEB0B2" width="452" height="27"/>
	<rect x="1189" y="599" fill="#AEB0B2" width="452" height="27"/>
	<rect x="1189" y="654" fill="#AEB0B2" width="452" height="27"/>
	<rect x="1189" y="709" fill="#AEB0B2" width="452" height="27"/>
	<rect x="1189" y="777" fill="#AEB0B2" width="452" height="27"/>
	<rect x="1189" y="873" fill="#AEB0B2" width="452" height="27"/>
	<rect x="1189" y="928" fill="#AEB0B2" width="452" height="27"/>
	<polygon fill="#AEB0B2" points="1641,1023 1641,996 1189,996 1189,1013 1200.5,1023 	"/>
	<polygon fill="#AEB0B2" points="1641,1078 1641,1051 1235.3,1051 1260.1,1078 	"/>
	<polygon fill="#AEB0B2" points="1641,1133 1641,1119 1295,1119 1319.8,1133 	"/>
	<polygon fill="#AEB0B2" points="1641,1201 1641,1174 1354.6,1174 1379.5,1201 	"/>
	<polygon fill="#AEB0B2" points="1641,1256 1641,1229 1418.3,1229 1423.9,1234.3 1428.4,1256 	"/>
	<polygon fill="#AEB0B2" points="1641,1311 1641,1297 1435.9,1297 1441.3,1311 	"/>
	<polygon fill="#AEB0B2" points="1641,1379 1641,1352 1448.9,1352 1454.2,1379 	"/>
	<rect x="669" y="298" fill="#AEB0B2" width="451" height="27"/>
	<rect x="669" y="353" fill="#AEB0B2" width="451" height="27"/>
	<rect x="669" y="421" fill="#AEB0B2" width="451" height="28"/>
	<polygon fill="#AEB0B2" points="1120,503 1120,476 669,476 669,481.1 683.2,503 	"/>
	<polygon fill="#AEB0B2" points="1120,558 1120,531 718,531 742.9,558 	"/>
	<polygon fill="#AEB0B2" points="1120,626 1120,599 777.7,599 802.6,626 	"/>
	<polygon fill="#AEB0B2" points="1120,681 1120,654 837.4,654 862.2,681 	"/>
	<polygon fill="#AEB0B2" points="1120,736 1120,709 897.1,709 921.9,736 	"/>
	<polygon fill="#AEB0B2" points="1120,777 956.7,777 981.6,804 1120,804 	"/>
	<path fill="#FA8A3B" d="M364.7,326.6l-12.8,12.8c-11.3,11.3-14.8,27.3-10.9,41.7l24.4-24.8C361.6,346.8,361.5,336.3,364.7,326.6z"
		/>
	<path fill="#F1ECE8" d="M1129.8,1480.1l-88.7,88.7l28.3,22.6l354.5-354.5l-5.7-4.2l-23.5-17.5l-87.6,87.6L374.9,370.6
		c-4.2-4.2-7.4-9.1-9.5-14.3L341,381.1l-22.2,22.5c5,2.1,9.8,5.2,13.9,9.3l932.2,932.2l-88.7,88.7L244.1,501.5
		c-3.9-3.9-6.8-8.4-8.9-13.2l-24.6,24.9l-25.7,26c4.6,2.1,9,4.9,12.8,8.7L1129.8,1480.1z"/>
	<path fill="#B55366" d="M365.5,356.3c2.1,5.2,5.2,10.1,9.5,14.3l932.2,932.2l87.6-87.6l1-1l-16.3-16.3l-24.8-24.8l-34.8-34.8
		l-24.8-24.8l-34.8-34.8l-24.9-24.9l-34.8-34.8l-5.8-5.8L981.6,799.9l-24.8-24.8l-34.8-34.8l-24.8-24.8l-34.8-34.8l-24.9-24.9
		l-34.8-34.8L777.7,596l-34.8-34.8L718,536.3l-34.8-34.8l-20.4-20.4L533.2,351.5l-10.9-10.9l-58.7-58.7c-16.8-16.8-44-16.8-60.8,0
		l-27.9,27.9c-4.9,4.9-8.2,10.7-10.2,16.8C361.5,336.3,361.6,346.8,365.5,356.3z"/>
	<path fill="#B55366" d="M533.2,1060.8l508,508l88.7-88.7L197.6,547.9c-3.8-3.8-8.1-6.6-12.8-8.7c-15.8-7.1-35-4.3-48,8.7L109,575.8
		c-16.8,16.8-16.8,44,0,60.8l413.3,413.3L533.2,1060.8z"/>
	<path fill="#FA8A3B" d="M244.1,501.5l932.2,932.2l88.7-88.7L332.7,412.8c-4.1-4.1-8.8-7.2-13.9-9.3c-15.6-6.5-34.2-3.4-46.9,9.3
		l-27.8,27.8c-4.9,4.9-8.2,10.7-10.2,16.8l-12.8,12.8c-11.6,11.6-15,28.3-10.5,43l24.6-24.9C237.3,493.1,240.2,497.6,244.1,501.5z"
		/>
	<polygon fill="#FFCBC5" points="1354.1,1667.1 1488,1533.1 1526.3,1709.7 1454.2,1376.8 1448.9,1352 1441.3,1317.2 1435.9,1292.3 
		1428.4,1257.5 1423.9,1236.9 1069.4,1591.4 1065.3,1595.5 	"/>
	<polygon points="1354.1,1667.1 1354.1,1667.1 1526.3,1709.7 1488,1533.1 	"/>
</g>
</svg>
