<?xml version="1.0" encoding="utf-8"?>
<!-- Generator: Adobe Illustrator 18.1.0, SVG Export Plug-In . SVG Version: 6.00 Build 0)  -->
<svg version="1.0" id="Layer_1" xmlns="http://www.w3.org/2000/svg" xmlns:xlink="http://www.w3.org/1999/xlink" x="0px" y="0px"
	 viewBox="0 0 150 150" enable-background="new 0 0 150 150" xml:space="preserve">
<g>
	<ellipse fill="#CCCBCB" cx="74.4" cy="125.6" rx="28" ry="3.3"/>
	<path fill="#01528F" d="M144,68.8c-0.1-1.2-0.5-2.3-1.3-3.4c-0.7-1.1-1.7-2.2-3-3.1l-26.4-19.4l0.1-0.1c-0.4-0.2-22.4-15.8-22.8-16
		c-1-0.3-2.2-0.6-3.4-0.7c-1.2-0.1-2.5-0.1-3.7,0c-1.2,0.1-2.5,0.3-3.6,0.7L18.2,45.7c-1.8,0.6-3.4,1.2-4.9,2
		c-1.4,0.8-2.7,1.7-3.6,2.7c-1,1-1.7,2-2,3c-0.3,1-0.3,2,0.2,3L20.3,81l-0.1,0.1l19.3,39c1,2,2.5,3.6,4.3,4.8c1.9,1.2,4.1,2,6.6,2.2
		c2.4,0.3,5.1,0.1,7.7-0.5c2.6-0.6,5.2-1.7,7.7-3.3l74.8-48.2c1.3-0.8,2.2-1.8,2.7-2.9C143.9,71.1,144.1,70,144,68.8z M52.1,107.1
		L31.9,72.2l0,0l-9-15.6l5.6-2.2l1.3-0.4l15-5.2l42-14.4l17.9,14.1l0,0l21.4,17.1L52.1,107.1z"/>
	<g>
		<path fill-rule="evenodd" clip-rule="evenodd" fill="#BDD438" d="M37.3,44.2c-0.9,2.2,0.3,5.9,3,8.5c2.6,2.3,5.1,2.6,6.2,0.7
			c0.9-1.9-0.3-5.1-2.6-8C41,42.7,38.3,42.1,37.3,44.2z"/>
		<path fill-rule="evenodd" clip-rule="evenodd" fill="#BDD438" d="M36.4,58.8c-1,2.2,0.5,5.2,3.3,7.1c2.8,1.9,5.4,1.9,6.5,0
			c1-1.8-0.2-4.6-2.9-6.8C40.4,57.1,37.6,56.7,36.4,58.8z"/>
		<path fill-rule="evenodd" clip-rule="evenodd" fill="#BDD438" d="M38.6,70.8c-0.8,1.6,0.6,3.5,3.1,4.9c2.5,1.1,4.9,0.7,5.8-0.5
			c0.8-1.5-0.3-3.4-2.7-4.7C42.1,69.2,39.5,69.2,38.6,70.8z"/>
		<path fill-rule="evenodd" clip-rule="evenodd" fill="#BDD438" d="M41.5,82c-0.7,1.2,0.6,2.6,2.8,3.3c2.3,0.6,4.3,0.3,5.1-0.7
			c0.7-1.1-0.3-2.5-2.5-3.2C44.6,80.6,42.3,80.8,41.5,82z"/>
		<path fill-rule="evenodd" clip-rule="evenodd" fill="#BDD438" d="M44.3,89.9c-0.7,1,0.4,1.9,2.5,2.3c2,0.3,3.9,0,4.6-0.8
			c0.6-0.8-0.3-1.6-2.3-2.2C47.1,88.8,44.9,89.1,44.3,89.9z"/>
		<path fill-rule="evenodd" clip-rule="evenodd" fill="#BDD438" d="M46.8,95.4c-0.5,0.6,0.5,1.4,2.3,1.5c1.8,0.2,3.5-0.2,4.1-0.8
			c0.6-0.7-0.3-1.2-2-1.5C49.3,94.5,47.4,94.8,46.8,95.4z"/>
		<path fill-rule="evenodd" clip-rule="evenodd" fill="#BDD438" d="M49.1,99.4c-0.5,0.6,0.4,0.9,2,1c1.6,0,3.1-0.4,3.7-0.8
			c0.4-0.6-0.3-0.8-1.9-1C51.3,98.5,49.6,99,49.1,99.4z"/>
		<path fill-rule="evenodd" clip-rule="evenodd" fill="#BDD438" d="M51.1,102.1c-0.4,0.4,0.3,0.7,1.8,0.7c1.4,0,2.8-0.3,3.4-0.7
			c0.4-0.4-0.2-0.6-1.7-0.7C53.2,101.5,51.7,101.7,51.1,102.1z"/>
		<path fill-rule="evenodd" clip-rule="evenodd" fill="#BDD438" d="M58.9,97.5c1.5,0,3-0.4,3.6-1c0.5-0.6,0-1.1-1.5-1.1
			c-1.5-0.1-3.1,0.2-3.8,1C56.7,97,57.3,97.5,58.9,97.5z"/>
		<path fill-rule="evenodd" clip-rule="evenodd" fill="#BDD438" d="M58.5,99.6c-0.5,0.5,0.1,0.8,1.5,0.7c1.4-0.1,2.7-0.5,3.3-0.9
			c0.5-0.5,0-0.7-1.4-0.7C60.5,98.7,59,99.2,58.5,99.6z"/>
		<path fill-rule="evenodd" clip-rule="evenodd" fill="#BDD438" d="M66.6,94.1c1.3,0.1,2.8-0.5,3.5-1.1c0.6-0.7,0.2-1.2-1.2-1.3
			c-1.4,0-2.9,0.4-3.6,1.2C64.7,93.5,65.2,94.1,66.6,94.1z"/>
		<path fill-rule="evenodd" clip-rule="evenodd" fill="#BDD438" d="M65.9,96.5c-0.5,0.5,0,0.9,1.2,0.9c1.2-0.1,2.7-0.7,3.2-1.1
			c0.6-0.6,0.1-0.9-1.1-0.9C67.9,95.5,66.5,96,65.9,96.5z"/>
		<path fill-rule="evenodd" clip-rule="evenodd" fill="#BDD438" d="M74.3,90.2c1.2-0.1,2.6-0.6,3.3-1.2c0.7-0.7,0.3-1.2-0.8-1.4
			c-1.3,0.1-2.7,0.5-3.5,1.3C72.7,89.6,73.1,90.1,74.3,90.2z"/>
		<path fill-rule="evenodd" clip-rule="evenodd" fill="#BDD438" d="M73.1,92.9c-0.6,0.6-0.1,1,0.9,1c1.2-0.1,2.4-0.6,3-1.2
			c0.6-0.6,0.2-1-0.8-1C75.2,91.8,73.9,92.3,73.1,92.9z"/>
		<path fill-rule="evenodd" clip-rule="evenodd" fill="#BDD438" d="M81.8,86c1.1,0.1,2.3-0.5,3.1-1.3c0.7-0.9,0.6-1.5-0.5-1.6
			c-1.1,0-2.5,0.4-3.3,1.3C80.4,85.2,80.7,86,81.8,86z"/>
		<path fill-rule="evenodd" clip-rule="evenodd" fill="#BDD438" d="M80.3,89c-0.6,0.7-0.3,1.2,0.6,1.1c1,0,2.3-0.7,2.9-1.2
			c0.7-0.7,0.4-1.2-0.5-1.2C82.3,87.8,81.1,88.2,80.3,89z"/>
		<path fill-rule="evenodd" clip-rule="evenodd" fill="#BDD438" d="M88.7,79.8c-0.7,0.9-0.5,1.6,0.3,1.8c1-0.1,2.2-0.5,2.9-1.3
			c0.8-0.9,0.7-1.6-0.2-1.8C90.7,78.4,89.4,79,88.7,79.8z"/>
		<path fill-rule="evenodd" clip-rule="evenodd" fill="#BDD438" d="M87.3,84.8c-0.7,0.8-0.4,1.2,0.4,1.3c0.9,0,2.1-0.5,2.7-1.3
			c0.7-0.7,0.5-1.2-0.3-1.3C89.2,83.6,88,84.1,87.3,84.8z"/>
		<path fill-rule="evenodd" clip-rule="evenodd" fill="#BDD438" d="M95.9,75c-0.8,0.9-0.6,1.7,0.1,1.9c0.8,0.1,1.9-0.3,2.7-1.3
			c0.8-0.8,0.8-1.7,0.1-1.9C97.9,73.5,96.8,74,95.9,75z"/>
		<path fill-rule="evenodd" clip-rule="evenodd" fill="#BDD438" d="M94,80.5c-0.7,0.8-0.7,1.5,0.1,1.5c0.7,0.1,1.8-0.5,2.6-1.3
			c0.7-0.8,0.7-1.4,0-1.5C95.9,79.1,94.7,79.7,94,80.5z"/>
		<path fill-rule="evenodd" clip-rule="evenodd" fill="#BDD438" d="M100.4,76c-0.7,0.9-0.6,1.5-0.1,1.6c0.7,0.1,1.6-0.4,2.4-1.3
			c0.7-0.8,0.7-1.4,0.2-1.7C102.1,74.6,101.2,75.2,100.4,76z"/>
		<path fill-rule="evenodd" clip-rule="evenodd" fill="#BDD438" d="M93.8,74.4c0.8-1,0.8-2.1-0.1-2.4c-1-0.3-2.4,0.3-3.2,1.3
			c-0.9,1.2-0.7,2.2,0.3,2.4C91.6,76,93,75.5,93.8,74.4z"/>
		<path fill-rule="evenodd" clip-rule="evenodd" fill="#BDD438" d="M86.2,79.4c0.8-0.9,0.6-2-0.5-2.2c-1.2-0.2-2.7,0.4-3.5,1.3
			c-0.8,1.1-0.5,1.8,0.6,2.2C84,80.8,85.4,80.4,86.2,79.4z"/>
		<path fill-rule="evenodd" clip-rule="evenodd" fill="#BDD438" d="M87.8,72.5c0.8-1.1,0.8-2.3-0.4-2.9c-1.2-0.5-2.9-0.1-3.8,1.3
			c-0.9,1.2-0.6,2.5,0.6,3C85.4,74.1,86.9,73.6,87.8,72.5z"/>
		<path fill-rule="evenodd" clip-rule="evenodd" fill="#BDD438" d="M77.4,82.2c-1.3-0.3-2.9,0.4-3.8,1.3c-0.7,1-0.2,1.7,1,2
			c1.4,0,2.8-0.4,3.6-1.3C79,83.3,78.7,82.3,77.4,82.2z"/>
		<path fill-rule="evenodd" clip-rule="evenodd" fill="#BDD438" d="M79.1,77.8c0.8-1.1,0.6-2.3-0.8-2.7c-1.4-0.4-3.2-0.1-4.1,1.2
			c-0.8,1.2-0.3,2.2,1,2.8C76.7,79.3,78.2,78.8,79.1,77.8z"/>
		<path fill-rule="evenodd" clip-rule="evenodd" fill="#BDD438" d="M80.3,69.4c0.9-1.4,0.6-2.9-0.8-3.7c-1.6-0.8-3.4-0.3-4.5,1.1
			c-0.9,1.5-0.4,2.9,1,3.8C77.6,71.2,79.3,70.7,80.3,69.4z"/>
		<path fill-rule="evenodd" clip-rule="evenodd" fill="#BDD438" d="M70.4,74.9c0.9-1.3,0.3-2.7-1.3-3.6c-1.8-0.8-3.9-0.3-4.9,1
			c-0.8,1.4-0.2,3,1.6,3.6C67.5,76.7,69.4,76.2,70.4,74.9z"/>
		<path fill-rule="evenodd" clip-rule="evenodd" fill="#BDD438" d="M70.9,64.4c1-1.7,0.5-3.8-1.3-5c-2-1.3-4.2-1.1-5.4,0.7
			c-1,1.7-0.3,4,1.6,5.1C67.7,66.4,69.8,65.9,70.9,64.4z"/>
		<path fill-rule="evenodd" clip-rule="evenodd" fill="#BDD438" d="M55.1,81c2,0.6,3.9,0.3,4.9-1c0.8-1.2-0.1-2.4-1.9-3.4
			c-2.1-0.7-4.2-0.5-5.2,0.8C52.1,79,53.1,80.3,55.1,81z"/>
		<path fill-rule="evenodd" clip-rule="evenodd" fill="#BDD438" d="M56.4,88.4c1.8,0.3,3.6-0.1,4.4-1c0.7-0.9,0-2-1.8-2.3
			c-1.9-0.4-3.9,0-4.7,1C53.6,87,54.6,87.9,56.4,88.4z"/>
		<path fill-rule="evenodd" clip-rule="evenodd" fill="#BDD438" d="M61.7,92.7c0.7-0.8,0-1.5-1.6-1.6c-1.6-0.2-3.5,0.2-4.2,1
			c-0.6,0.8,0.1,1.6,1.8,1.6C59.3,93.8,61,93.3,61.7,92.7z"/>
		<path fill-rule="evenodd" clip-rule="evenodd" fill="#BDD438" d="M64.8,88c-0.7,1-0.1,1.6,1.4,1.8c1.5,0.1,3.1-0.3,3.8-1.2
			c0.7-0.8,0.2-1.5-1.2-1.8C67.3,86.6,65.6,87.2,64.8,88z"/>
		<path fill-rule="evenodd" clip-rule="evenodd" fill="#BDD438" d="M65.9,83.9c1.7,0.3,3.4-0.3,4.2-1.2c0.8-1.2,0.3-2-1.3-2.5
			c-1.7-0.3-3.5-0.1-4.4,1.1C63.6,82.5,64.3,83.6,65.9,83.9z"/>
		<path fill-rule="evenodd" clip-rule="evenodd" fill="#BDD438" d="M57.3,65.3c-2.3-1.3-4.8-1.1-5.8,0.6c-0.9,1.7,0.1,3.8,2.3,5
			c2.3,1,4.5,0.7,5.5-0.7C60.2,68.7,59.4,66.7,57.3,65.3z"/>
		<path fill-rule="evenodd" clip-rule="evenodd" fill="#BDD438" d="M59.9,59.8c1-2,0.3-4.9-2.1-6.8c-2.6-2.1-5.2-2.1-6.5,0
			c-1.1,2.3,0,5.2,2.5,7.2C56.3,61.9,58.8,61.6,59.9,59.8z"/>
	</g>
</g>
</svg>
