<?xml version="1.0" encoding="utf-8"?>
<!-- Generator: Adobe Illustrator 18.1.0, SVG Export Plug-In . SVG Version: 6.00 Build 0)  -->
<svg version="1.0" id="Layer_1" xmlns="http://www.w3.org/2000/svg" xmlns:xlink="http://www.w3.org/1999/xlink" x="0px" y="0px"
	 viewBox="0 0 150 150" enable-background="new 0 0 150 150" xml:space="preserve">
<g>
	<g>
		<path fill="#0090D0" d="M23.2,43.3l-0.3-0.5c-6.1,9.6-9.6,21-9.6,33.2c0,17.6,7.3,33.5,19,44.8l3.4-2.1
			c-11.1-11.5-19.9-29.5-19.9-46.4C15.8,61.9,18.6,52,23.2,43.3z"/>
		<path fill="#0090D0" d="M72.5,137.8c-1.4,0-2.7-0.2-4.1-0.3l-0.7,0.4c2.7,0.3,5.3,0.6,8.1,0.6c26.7,0,49.4-16.8,58.4-40.4l-5,3
			C119.3,122.7,97.8,137.8,72.5,137.8z"/>
		<path fill="#0090D0" d="M134.8,58.3l0.8-0.4c-7.8-25.6-31.6-44.3-59.8-44.3c-7.7,0-15,1.4-21.7,4l2.6,4.1
			c6.2-2.1,12.9-3.4,19.8-3.4C103.1,18.3,125.8,34.9,134.8,58.3z"/>
	</g>
	<path fill="#0090D0" d="M52.5,18.1C52.4,18.1,52.4,18.1,52.5,18.1l0,0.2L52.5,18.1z"/>
	<polygon fill="#0090D0" points="126.8,67.6 125.8,68.2 125.3,68.5 124.4,67.1 121.8,68.6 121.8,68.6 120.2,69.6 120.3,69.7 
		123.6,75.2 125.2,74.2 122.7,70.1 125.2,68.6 128.5,74.1 130.2,73.1 127.8,69.2 128.9,68.5 129,68.4 128.1,66.8 	"/>
	<polygon fill="#0090D0" points="138.5,83.7 139.9,82.8 137.4,78.6 138.8,77.8 132.9,68 131.4,68.9 131.3,69 131.2,68.9 130.4,67.6 
		129,68.5 129.1,68.5 129.9,69.9 131.3,69.1 137.1,78.8 135.7,79.6 138.3,83.8 136.8,84.7 138.5,87.5 127,94.3 125.4,91.5 
		123.9,92.4 122.2,89.6 121,90.4 120.8,90.5 120.7,90.3 119.1,87.7 117.7,88.6 117.6,88.6 117.6,88.5 115.7,85.4 114.3,86.2 
		113.5,84.9 112.1,85.8 112,85.8 111.9,85.7 110.4,83.1 113.2,81.4 112.3,80 109.5,81.7 108.3,82.4 108.2,82.4 110.7,86.6 112,85.9 
		112.9,87.2 114.4,86.4 116.2,89.4 117.6,88.6 119.3,91.5 120.8,90.5 122.5,93.3 123.8,92.5 125.5,95.3 125.6,95.5 126.3,96.7 
		141,87.9 140.1,86.5 	"/>
	<polygon fill="#0090D0" points="111.6,65.3 110.7,63.9 107.9,65.5 108.7,66.8 108.8,67 111.4,65.4 111.6,65.3 111.7,65.5 119.2,78 
		120.8,77.1 117.3,71.3 120.1,69.6 120.2,69.6 119.3,68.2 116.5,69.8 113.2,64.3 	"/>
	<polygon fill="#0090D0" points="108.7,67 108.5,67.1 107.1,68 114.6,80.6 113.2,81.4 113.3,81.4 114.1,82.9 115.5,82 118.3,86.7 
		119.9,85.7 	"/>
	<polygon fill="#0090D0" points="94.9,86.7 93.8,87.3 93.3,87.7 92.4,86.2 89.9,87.7 88.2,88.7 88.3,88.8 91.6,94.4 93.2,93.4 
		90.7,89.2 93.3,87.7 96.6,93.2 98.2,92.2 95.8,88.3 96.9,87.7 97,87.6 96.1,86 	"/>
	<polygon fill="#0090D0" points="106.5,102.8 107.9,102 105.4,97.8 106.8,97 100.9,87.2 99.4,88.1 99.3,88.2 99.2,88 98.5,86.8 
		97.1,87.6 97.1,87.7 97.9,89 99.3,88.2 105.1,97.9 103.8,98.7 106.3,103 104.9,103.8 106.5,106.6 95.1,113.5 93.4,110.7 
		91.9,111.6 90.2,108.8 89,109.5 88.8,109.6 88.7,109.4 87.2,106.8 85.7,107.7 85.6,107.8 85.6,107.7 83.7,104.6 82.4,105.4 
		81.6,104 80.1,104.9 80,105 79.9,104.8 78.4,102.3 81.2,100.6 80.3,99.1 77.5,100.8 76.3,101.5 76.2,101.6 78.7,105.8 80.1,105 
		80.9,106.4 82.4,105.5 84.2,108.6 85.6,107.8 87.3,110.6 88.9,109.7 90.5,112.4 91.8,111.6 93.5,114.4 93.6,114.7 94.4,115.9 
		109,107.1 108.2,105.6 	"/>
	<polygon fill="#0090D0" points="84.5,89 81.2,83.5 79.6,84.4 79.7,84.6 87.2,97.2 88.9,96.2 85.4,90.4 88.1,88.8 88.2,88.7 
		87.4,87.3 	"/>
	<polygon fill="#0090D0" points="76.7,86.2 76.5,86.3 75.1,87.1 82.6,99.7 81.2,100.6 81.3,100.6 82.1,102 83.5,101.2 86.3,105.8 
		87.9,104.9 	"/>
	<polygon fill="#0090D0" points="76.8,86.1 79.4,84.5 79.6,84.5 78.7,83 75.9,84.7 76.7,86 	"/>
	<polygon fill="#0090D0" points="47,24.6 46,25.2 45.4,25.5 44.5,24.1 42,25.6 42,25.6 40.3,26.6 40.4,26.7 43.7,32.2 45.3,31.2 
		42.9,27.1 45.4,25.6 48.7,31.1 50.3,30.1 48,26.2 49.1,25.5 49.2,25.5 48.2,23.8 	"/>
	<polygon fill="#0090D0" points="53,25 51.6,25.9 51.4,26 51.3,25.9 50.6,24.7 49.2,25.5 49.2,25.6 50,26.9 51.4,26.1 57.2,35.8 
		55.9,36.6 58.4,40.8 57,41.7 58.7,44.5 47.2,51.3 45.5,48.5 44,49.4 42.4,46.6 41.1,47.4 40.9,47.5 40.8,47.3 39.3,44.7 37.8,45.6 
		37.7,45.6 37.7,45.5 35.8,42.4 34.5,43.2 33.7,41.9 32.2,42.8 32.1,42.8 32.1,42.7 30.5,40.1 33.3,38.4 32.5,37 29.7,38.7 
		28.4,39.4 28.4,39.4 30.9,43.7 32.2,42.9 33,44.3 34.5,43.4 36.3,46.4 37.7,45.6 39.4,48.5 41,47.5 42.6,50.3 43.9,49.5 45.6,52.3 
		45.7,52.5 46.5,53.7 61.2,44.9 60.3,43.5 58.6,40.7 60.1,39.8 57.5,35.6 58.9,34.8 	"/>
	<polygon fill="#0090D0" points="31.7,22.3 30.8,20.9 28.1,22.5 28.8,23.8 28.9,24 31.6,22.4 31.7,22.3 31.8,22.5 39.3,35.1 
		41,34.1 37.5,28.3 40.2,26.6 40.3,26.6 39.5,25.2 36.6,26.9 33.3,21.3 	"/>
	<polygon fill="#0090D0" points="28.9,24 28.7,24.1 27.2,25 34.8,37.6 33.4,38.4 33.4,38.5 34.2,39.8 35.6,39 38.4,43.7 40.1,42.7 	
		"/>
	<polygon fill="#D7443F" points="81.1,48.7 81.1,48.7 79.5,49.7 79.6,49.8 82.9,55.3 84.5,54.4 82,50.2 84.5,48.7 87.8,54.2 
		89.5,53.2 87.1,49.3 88.2,48.6 88.3,48.6 87.4,46.9 86.1,47.7 85.1,48.3 84.6,48.6 83.7,47.2 	"/>
	<polygon fill="#D7443F" points="92.2,48.1 90.7,49 90.6,49.1 90.5,49 89.7,47.7 88.3,48.6 88.4,48.7 89.2,50 90.6,49.2 96.4,58.9 
		95,59.7 97.6,63.9 96.1,64.8 97.8,67.6 86.4,74.4 84.7,71.6 83.2,72.5 81.5,69.7 80.3,70.5 80.1,70.6 80,70.4 78.4,67.8 77,68.7 
		76.9,68.7 76.9,68.6 75,65.5 73.7,66.3 72.8,65 71.4,65.9 71.3,65.9 71.2,65.8 69.7,63.2 72.5,61.5 71.6,60.1 68.8,61.8 67.6,62.5 
		67.5,62.5 70,66.7 71.3,66 72.2,67.4 73.7,66.5 75.5,69.5 76.9,68.7 78.6,71.6 80.1,70.6 81.8,73.4 83.1,72.6 84.8,75.4 84.9,75.6 
		85.6,76.8 100.3,68 99.4,66.6 97.8,63.8 99.2,62.9 96.7,58.7 98.1,57.9 	"/>
	<polygon fill="#D7443F" points="70.9,45.4 71,45.6 78.5,58.2 80.1,57.2 76.6,51.3 79.4,49.7 79.5,49.7 78.6,48.3 75.8,49.9 
		72.5,44.4 	"/>
	<polygon fill="#D7443F" points="68,47.1 67.8,47.2 66.4,48.1 73.9,60.7 72.5,61.5 72.6,61.6 73.4,62.9 74.8,62.1 77.6,66.8 
		79.2,65.8 	"/>
	<polygon fill="#D7443F" points="70,44 67.2,45.6 68,46.9 68.1,47.1 70.7,45.5 70.9,45.4 	"/>
	<polygon fill="#0090D0" points="54.2,66.8 53.1,67.4 52.6,67.8 51.7,66.3 49.2,67.9 49.2,67.8 47.5,68.8 47.6,68.9 50.9,74.5 
		52.5,73.5 50,69.3 52.6,67.8 55.9,73.3 57.5,72.4 55.1,68.4 56.2,67.8 56.3,67.7 55.4,66.1 	"/>
	<polygon fill="#0090D0" points="44.9,87.9 46.6,90.7 48.2,89.8 49.8,92.5 51.1,91.7 52.8,94.5 52.9,94.8 53.6,96 68.3,87.2 
		67.5,85.7 65.8,83 67.2,82.1 64.7,77.9 66.1,77.1 60.2,67.3 58.7,68.2 58.6,68.3 58.5,68.1 57.8,66.9 56.4,67.7 56.4,67.8 
		57.2,69.1 58.6,68.3 64.4,78 63.1,78.8 65.6,83.1 64.2,83.9 65.8,86.7 54.4,93.6 52.7,90.8 51.2,91.7 49.5,88.9 48.3,89.6 
		48.1,89.7 48,89.6 46.4,86.9 45,87.8 44.9,87.9 44.9,87.8 43,84.7 41.7,85.5 40.9,84.1 39.4,85 39.3,85.1 39.2,85 37.7,82.4 
		40.5,80.7 39.6,79.2 36.8,80.9 35.6,81.6 35.5,81.7 38,85.9 39.3,85.1 40.2,86.5 41.7,85.6 43.5,88.7 	"/>
	<polygon fill="#0090D0" points="36,66.3 35.8,66.4 34.4,67.2 41.9,79.8 40.6,80.7 40.6,80.7 41.4,82.1 42.8,81.3 45.6,85.9 
		47.2,85 	"/>
	<polygon fill="#0090D0" points="38,63.1 35.2,64.8 36,66.1 36.1,66.2 38.7,64.7 38.9,64.6 39,64.7 46.5,77.3 48.2,76.3 44.7,70.5 
		47.4,68.9 47.5,68.8 46.7,67.4 43.8,69.1 40.5,63.6 38.9,64.5 	"/>
	<polygon fill="#0090D0" points="60.7,107.1 59.7,107.8 59.2,108.1 58.3,106.7 55.7,108.2 55.7,108.2 54.1,109.2 54.2,109.2 
		57.5,114.8 59.1,113.8 56.6,109.7 59.1,108.2 62.4,113.7 64.1,112.7 61.7,108.8 62.8,108.1 62.9,108 62,106.4 	"/>
	<polygon fill="#0090D0" points="72.4,123.3 73.8,122.4 71.3,118.2 72.7,117.4 66.8,107.6 65.3,108.5 65.2,108.6 65.1,108.5 
		64.3,107.2 62.9,108.1 63,108.1 63.8,109.5 65.2,108.6 71,118.3 69.6,119.2 72.2,123.4 70.7,124.3 72.4,127 60.9,133.9 59.3,131.1 
		57.8,132 56.1,129.2 54.9,130 54.7,130.1 54.6,129.9 53,127.3 51.6,128.2 51.5,128.2 51.5,128.1 49.6,125 48.2,125.8 47.4,124.5 
		46,125.3 45.9,125.4 45.8,125.3 44.3,122.7 47.1,121 46.2,119.6 43.4,121.2 42.2,122 42.1,122 44.6,126.2 45.9,125.4 46.8,126.8 
		48.3,125.9 50.1,129 51.5,128.2 53.2,131.1 54.7,130.1 56.4,132.9 57.7,132.1 59.4,134.9 59.5,135.1 60.2,136.3 74.9,127.5 
		74.1,126.1 	"/>
	<polygon fill="#0090D0" points="50.4,109.4 47.1,103.9 45.5,104.9 44.6,103.4 41.8,105.1 42.6,106.4 42.7,106.6 45.3,105 
		45.5,104.9 45.6,105.1 53.1,117.6 54.7,116.7 51.2,110.8 54,109.2 54.1,109.1 53.2,107.7 	"/>
	<polygon fill="#0090D0" points="42.6,106.6 42.4,106.7 41,107.6 48.5,120.2 47.1,121 47.2,121 48,122.4 49.4,121.6 52.2,126.2 
		53.8,125.3 	"/>
</g>
</svg>
