<?xml version="1.0" encoding="iso-8859-1"?>
<!-- Generator: Adobe Illustrator 13.0.0, SVG Export Plug-In . SVG Version: 6.00 Build 14948)  -->
<!DOCTYPE svg PUBLIC "-//W3C//DTD SVG 1.1//EN" "http://www.w3.org/Graphics/SVG/1.1/DTD/svg11.dtd">
<svg version="1.1" id="Layer_1" xmlns="http://www.w3.org/2000/svg" xmlns:xlink="http://www.w3.org/1999/xlink" x="0px" y="0px"
	 width="100px" height="100px" viewBox="0 0 100 100" enable-background="new 0 0 100 100" xml:space="preserve">
<g>
	<path fill="#9EBF4C" d="M75.239,47.527c-0.821,0.558-1.599,1.205-2.31,1.938c-5.639,5.869-5.376,15.471,0.186,22.632
		c0.832-0.559,1.599-1.204,2.311-1.943C81.064,64.29,80.802,54.688,75.239,47.527"/>
	<path fill="#9EBF4C" d="M41.089,67.574c0.581-0.399,1.205-0.744,1.884-1.018c5.343-2.168,11.639,0.602,14.924,6.246
		c-0.581,0.4-1.205,0.739-1.884,1.019C50.67,75.983,44.374,73.214,41.089,67.574"/>
	<path fill="#9EBF4C" d="M47.374,32.548c0.241,0.345,0.449,0.712,0.624,1.117c1.336,3.165-0.252,6.937-3.58,8.945
		c-0.241-0.345-0.449-0.711-0.624-1.111C42.447,38.341,44.046,34.563,47.374,32.548"/>
	<path fill="#E7AE4C" d="M65.418,54.589c0,1.889-1.532,3.427-3.427,3.427c-1.884,0-3.427-1.538-3.427-3.427
		c0-1.894,1.543-3.427,3.427-3.427C63.886,51.162,65.418,52.695,65.418,54.589"/>
	<path fill="#637F41" d="M34.432,24.829c-6.339-5.228-17.661-9.745-22.303-5.376c-4.369,4.643,0.142,15.964,5.376,22.304
		c4.861,6,12.953,7.489,18.405,3.569c13.796,14.825,27.592,29.645,41.377,44.465c1.084,1.182,3.723,1.587,5.233,0.055
		c1.533-1.522,1.128-4.155-0.055-5.234c-14.813-13.785-29.64-27.58-44.464-41.376C41.922,37.776,40.433,29.69,34.432,24.829
		 M27.677,46.06c-3.449-0.416-6.745-2.277-9.11-5.195c-5.376-6.521-8.923-16.955-5.431-20.667c2.518-2.365,8.255-1.423,13.708,1.15
		c-3.482-0.849-6.569-0.745-8.233,0.821c-3.493,3.706,0.055,14.146,5.431,20.672C25.093,44.133,26.33,45.211,27.677,46.06
		 M81.35,88.652c-0.537,0.536-1.281,0.646-1.96,0.53c0.328-1.067,0.065-2.288-0.559-2.929c-8.311-8.798-16.621-17.606-24.942-26.409
		c0.132,0.087,0.252,0.164,0.361,0.273c9.033,8.458,18.044,16.911,27.077,25.364C82.039,86.134,82.28,87.737,81.35,88.652
		 M36.184,43.301c-0.679,0.618-1.445,1.105-2.244,1.521c0.537-0.339,1.062-0.706,1.533-1.144c2.081-2.25,3.099-5.245,2.879-8.453
		c-0.273-3.882-2.299-7.626-5.562-10.276c-0.318-0.257-0.635-0.498-0.964-0.745c0.624,0.438,1.237,0.887,1.807,1.358
		c3.099,2.518,5.025,6.055,5.277,9.734C39.118,38.33,38.155,41.176,36.184,43.301"/>
	<path fill="#637F41" d="M74.134,36.26c3.536-4.128,0.011,0.011,0.011,0.011c0.022-0.027,16.621-19.479,16.216-19.895
		c-0.416-0.411-10.577,10.347-17.781,17.535l-1.183-1.188c6.712-7.675,16.807-18.504,16.391-18.915s-10.905,10.013-18.34,16.965
		l-1.193-1.193c6.953-7.445,17.365-17.935,16.96-18.345c-0.416-0.416-11.244,9.668-18.92,16.391l-1.193-1.199
		C72.283,19.224,83.035,9.062,82.63,8.652c-0.416-0.416-15.744,12.75-19.884,16.221c-3.612,3.027-5.091,8.354-2.868,12.143
		C45.141,50.729,30.403,64.443,15.676,78.162c-1.183,1.068-1.587,3.707-0.055,5.229c1.522,1.539,4.15,1.122,5.223-0.061
		c13.719-14.737,27.427-29.464,41.147-44.19C65.714,41.406,70.762,40.213,74.134,36.26 M16.815,82.219
		c-0.537-0.541-0.646-1.291-0.537-1.965c1.073,0.317,2.289,0.065,2.924-0.553c8.814-8.316,17.617-16.627,26.42-24.942
		c-0.088,0.115-0.175,0.241-0.273,0.361c-8.464,9.027-16.917,18.044-25.369,27.071C19.333,82.903,17.735,83.15,16.815,82.219
		 M61.586,37.3c-1.456-1.642-1.653-3.569-1.565-4.905c0.175-2.486,1.467-4.966,3.46-6.636l2.748-2.326
		c-0.712,0.7-2.945,2.929-2.945,2.929l2.891,2.896c0,0,2.463-2.152,3.285-2.885c-0.745,0.783-2.989,3.187-2.989,3.187l2.879,2.868
		c0,0,2.321-2.157,3.066-2.868c-0.69,0.777-2.781,3.153-2.781,3.153l2.88,2.885c0,0,2.354-2.349,3.12-3.12
		c-0.395,0.46-0.788,0.936-1.204,1.412c-0.296,0.329-0.712,0.815-1.303,1.506c-0.252,0.295-0.526,0.58-0.8,0.849l-8.552-8.546
		c-1.204,1.511-1.981,3.328-2.146,5.135c-0.12,1.309,0.033,3.187,1.412,4.752c0.788,0.701,1.697,1.161,2.693,1.391
		C64.181,38.91,62.758,38.341,61.586,37.3"/>
</g>
</svg>
