<?xml version="1.0" encoding="utf-8"?>
<!-- Generator: Adobe Illustrator 18.1.0, SVG Export Plug-In . SVG Version: 6.00 Build 0)  -->
<svg version="1.0" id="Layer_1" xmlns="http://www.w3.org/2000/svg" xmlns:xlink="http://www.w3.org/1999/xlink" x="0px" y="0px"
	 viewBox="0 0 150 150" enable-background="new 0 0 150 150" xml:space="preserve">
<g>
	<path fill="none" d="M111.5,72.6c0.7,0.2,1.5,0.5,2.2,0.8l25.2-1c-0.1-1.1-0.2-2.1-0.4-3.2h-29.9C110.3,71.3,111.5,72.7,111.5,72.6
		z"/>
	<path fill="none" d="M106.3,66.4l31.5-1.2c-0.3-1.3-0.7-2.6-1.1-3.9h-34.6C103.5,63,105,64.8,106.3,66.4z"/>
	<path fill="none" d="M77.4,51.1c6.7-0.7,17.8,0,17.8,0l0.1,0.5l36.4-1.4c-0.8-1.3-1.6-2.5-2.5-3.8H95.4c-0.1,0.8-0.3,1.5-0.4,2.2
		c-3.1-0.4-5.9-0.6-8.8-0.6c-2.9,0-5.6,0.1-8.7,0.5c-0.1-0.7-0.3-1.4-0.4-2.1h-31c-1.7,2.3-3.2,4.7-4.5,7.3l35.5-1.4L77.4,51.1z
		 M77.4,50.2c0-0.2,0-0.4,0-0.6c0-0.2,0-0.4,0-0.6c0,0,0,0,0,0c0.2,0,0.3,0,0.5,0c0.1,0,0.3,0,0.4,0c0.1,0,0.3,0,0.4,0
		c0.1,0,0.3,0,0.4,0c0.2,0,0.3,0,0.5,0c0.2,0,0.4,0,0.6,0c0.1,0,0.2,0,0.3,0c0.2,0,0.4,0,0.6,0c0.3,0,0.5,0,0.8,0c0.2,0,0.4,0,0.6,0
		c0.2,0,0.4,0,0.6,0c0.1,0,0.2,0,0.3,0c0.2,0,0.4,0,0.6,0c0.1,0,0.2,0,0.3,0c0.4,0,0.7,0,1.1,0c0.3,0,0.6,0,0.9,0c0.4,0,0.7,0,1.1,0
		c0.3,0,0.5,0,0.8,0c0.2,0,0.5,0,0.7,0c0.3,0,0.6,0,0.9,0c0.2,0,0.5,0,0.7,0c0.3,0,0.6,0,0.9,0c0.2,0,0.5,0,0.7,0c0.2,0,0.4,0,0.6,0
		c0.2,0,0.4,0,0.5,0c0.2,0,0.3,0,0.5,0c0.2,0,0.3,0,0.4,0c0.1,0,0.3,0,0.4,0c0.1,0,0.3,0,0.4,0c0,0,0,0,0,0l0,0.1c0,0.2,0,0.3,0,0.5
		c0,0.2,0,0.4,0,0.6c0,0.2,0,0.4,0,0.6c0,0,0,0.1,0,0.1c0,0,0,0,0,0c-0.2,0-0.4,0-0.6-0.1c-0.2,0-0.4,0-0.6,0c-0.2,0-0.4,0-0.6,0
		c-0.2,0-0.3,0-0.5,0c-0.2,0-0.3,0-0.5,0c-0.1,0-0.2,0-0.3,0c-0.2,0-0.4,0-0.6,0c-0.2,0-0.5,0-0.7,0c-0.2,0-0.4,0-0.6,0
		c-0.2,0-0.5,0-0.7,0c-0.2,0-0.4,0-0.6,0c-0.2,0-0.4,0-0.6,0c-0.3,0-0.5,0-0.8,0c-0.6,0-1.2,0-1.9,0c-0.2,0-0.3,0-0.5,0
		c-0.3,0-0.6,0-0.9,0c-0.2,0-0.5,0-0.7,0c-0.3,0-0.6,0-0.9,0c-0.2,0-0.5,0-0.7,0c-0.3,0-0.6,0-0.8,0c-0.3,0-0.6,0-0.8,0
		c-0.2,0-0.5,0-0.7,0c-0.2,0-0.4,0-0.7,0.1c-0.1,0-0.3,0-0.4,0c-0.2,0-0.4,0-0.5,0.1c-0.2,0-0.3,0-0.5,0c0,0,0,0,0,0
		C77.4,50.6,77.4,50.4,77.4,50.2z"/>
	<path fill="none" d="M95.6,54.1c0.5,0.2,0.9,0.4,1.2,0.8c0.8,0.9,1.9,2.3,3.2,3.8l35.2-1.4c-0.5-1.1-1-2.2-1.5-3.3L95.6,54.1
		L95.6,54.1z"/>
	<path fill="none" d="M80.3,46.4c0.3-0.3,0.5-0.7,0.6-1.2c0-0.2,0.1-0.3,0.1-0.5c2.2,1.5,3.8,1,4.8-0.3c0.2-0.2,0.3-0.5,0.5-0.8
		c0.2,0.2,0.3,0.5,0.5,0.7c0.5,0.6,1,1.1,1.9,1.2c1.1,0.1,2-0.2,2.9-0.9c0.1,0.3,0.1,0.5,0.2,0.7c0.1,0.4,0.3,0.8,0.6,1
		c0.4,0.3,0.9,0.4,1.5,0.3c0.4-0.1,0.8-0.2,1.2-0.3h-1.5c0,0-0.1,0-0.1,0c-0.2,0-0.4,0-0.5,0c-0.4-0.1-0.7-0.4-0.8-0.9
		c-0.1-0.4-0.2-0.9-0.2-1.3c0-0.1,0-0.2,0-0.3c-0.1,0.1-0.2,0.2-0.3,0.3c-0.8,0.8-1.7,1.2-2.9,1.1c-0.7-0.1-1.2-0.4-1.6-0.9
		c-0.3-0.4-0.6-1-0.8-1.5c-0.2,0.6-0.5,1.2-0.8,1.6c-0.4,0.5-0.8,0.8-1.5,0.9c-1,0.1-1.8-0.1-2.5-0.7c-0.2-0.2-0.4-0.5-0.6-0.7
		c0,0.3,0,0.5,0,0.8c0,0.1,0,0.1,0,0.2c0,0.3-0.1,0.6-0.2,0.9c-0.2,0.5-0.5,0.7-0.9,0.7c-0.1,0-0.2,0.1-0.4,0.1
		c-0.2,0-0.4,0-0.6-0.1h-0.9c0.3,0.1,0.7,0.2,1,0.3C79.3,46.9,79.9,46.8,80.3,46.4z"/>
	<path fill="none" d="M73.9,41.9c0,0-0.1-0.1-0.1-0.1c0.7-0.1,1.5,0.3,1.9,1c0.1,0.2,0.3,0.4,0.6,0.4c0.4,0.1,0.5,0.3,0.5,0.7
		c0,0.1,0,0.3,0.1,0.4c0.2,0.1,0.4,0.3,0.6,0.5c0.3,0.2,0.6,0.4,1,0.6c0.6,0.3,1.1,0,1.3-0.6c0,0,0-0.1,0-0.1c0.2-0.6,0.2-1.3,0.3-2
		c0-0.1-0.1-0.2-0.2-0.2c-0.3-0.1-0.4-0.4-0.2-0.7c0.1-0.1,0.4-0.2,0.6-0.2c0.3,0.1,0.3,0.4,0.1,0.7c0,0,0,0.1-0.1,0.1
		c0.6,0.9,1.4,1.6,2.5,1.8c0.7,0.2,1.3,0,1.8-0.5c0.5-0.6,0.9-1.3,1.2-2c0.1-0.1-0.1-0.5-0.2-0.6c-0.2-0.1-0.5-0.2-0.7-0.2
		c-0.2,0.1-0.5,0.3-0.7,0.4c-0.2-0.9,0.1-1.2,1.3-1.4c0.1-0.3,0.2-0.6,0.2-0.9H52.5c-2.2,2.1-4.2,4.3-6.1,6.8l29.8-1.2
		C75.6,43.7,74.9,42.7,73.9,41.9z"/>
	<path fill="none" d="M87,40c1.1,0.1,1.5,0.5,1.3,1.4c-0.1-0.1-0.2-0.2-0.3-0.3c-0.5-0.4-1-0.4-1.3,0.2c-0.1,0.1-0.1,0.3,0,0.4
		c0.3,0.5,0.5,1.1,0.8,1.5c0.5,0.7,1.1,1,1.9,0.9l0.1,0c0.2,0,0.5-0.1,0.8-0.2c0.8-0.3,1.3-0.8,1.8-1.5c0.1-0.1,0-0.3,0-0.4
		c-0.1-0.3-0.1-0.5,0.2-0.6c0.2,0,0.5,0,0.6,0.2c0.2,0.2,0.1,0.5-0.2,0.6c-0.1,0-0.2,0.2-0.2,0.3c0,0.5,0.1,1,0.2,1.5
		c0,0.2,0,0.3,0.1,0.5c0.2,0.8,0.8,1,1.5,0.7c0.5-0.3,1-0.7,1.5-1c0.1,0,0.1-0.2,0.1-0.3c0,0,0-0.1,0-0.1c0-0.5,0.1-0.7,0.5-0.8
		c0.2,0,0.3-0.2,0.4-0.3c0.5-0.7,1.1-1.1,2-1.1c-0.4,0.3-0.7,0.6-1,0.9c-0.3,0.4-0.6,0.8-0.9,1.2l29.5-1.1c-1.1-1.3-2.3-2.5-3.5-3.6
		H86.8C86.9,39.5,86.9,39.8,87,40z"/>
	<polygon fill="none" points="95.3,51.6 95.4,52.5 95.4,52.5 	"/>
	<path fill="none" d="M87.6,25.3c-8.2,0-16,2-22.9,5.4l42.1-1.6C100.9,26.7,94.4,25.3,87.6,25.3z"/>
	<path fill="none" d="M124,77.4c2.5,1.1,2.6,2.9,2.6,3l12.4-0.5c0.1-1,0.1-2.1,0.1-3.1c0-0.1,0-0.3,0-0.4h-17.3
		C122.7,76.8,123.5,77.2,124,77.4z"/>
	<path fill="none" d="M103.4,91.3c-3.1,0-5.7,2-6.6,4.8c-0.3,0.7-0.4,1.5-0.4,2.3c0,0.1,0,0.1,0,0.1c0,1.8,0.8,3.5,2,4.7
		c1.3,1.3,3.1,2.2,5.1,2.2c2.2,0,4.1-1,5.4-2.6c1-1.2,1.6-2.7,1.6-4.3c0,0,0-0.1,0-0.1c0-1-0.2-2-0.6-2.8
		C108.7,93.1,106.2,91.3,103.4,91.3z"/>
	<path fill="none" d="M126.6,87.7l11.5-0.4c0.2-1.1,0.4-2.1,0.5-3.2h-12V87.7z"/>
	<path fill="none" d="M112.8,31.9H62.5c-3.3,1.8-6.3,4-9.1,6.5l65.4-2.5C116.9,34.4,114.9,33.1,112.8,31.9z"/>
	<path fill="none" d="M84.6,76h-4.7c-0.3,0-1.2-0.3-1.2-0.1v0.5v2.2c0,0.2,0.9,0.3,1.2,0.3h4.7c0.3,0,0.8-0.1,0.8-0.3v-2.2v-0.5
		C85.4,75.8,84.9,76,84.6,76z"/>
	<path fill="none" d="M72.4,126l34.2-1.3c2.8-1.1,5.5-2.5,8.1-4.1H60.5C64.2,122.9,68.2,124.7,72.4,126z"/>
	<path fill="none" d="M87.6,128.3c3.1,0,6.1-0.3,9.1-0.8H78.6C81.5,128,84.5,128.3,87.6,128.3z"/>
	<path fill="none" d="M30.4,91.3c-3.9,0-7.1,3.2-7.1,7.1c0,3.9,3.2,7.1,7.1,7.1c3.8,0,7-3.1,7-6.9c0,0,0-0.1,0-0.1v0
		C37.5,94.5,34.3,91.3,30.4,91.3z"/>
	<path fill="none" d="M59,119.6l60.4-2.4c1.6-1.2,3-2.5,4.4-3.9H51.4C53.7,115.7,56.3,117.8,59,119.6z"/>
	<path fill="none" d="M76.8,54H41.5c-1.1,2.3-2.1,4.6-2.9,7.1l38.1-1.5V54z"/>
	<path fill="none" d="M105.9,69.2c-0.5-0.7-1.3-1.7-2.1-2.7c-1.4-1.7-3.1-3.6-4.5-5.2c-0.9-1-1.6-1.8-2.2-2.5
		c-0.3-0.3-0.5-0.6-0.6-0.7c-0.9-1.1-1.7-2.1-3.2-2.1H82c-1.3,0-3.3,1.7-3.3,3v0.6v1.7v6.2v1.7v1.6c0,1.3,2,1.4,3.3,1.4h22.2
		c2.2,0,3-0.4,2.4-2C106.5,70,106.3,69.7,105.9,69.2z"/>
	<path fill="#C9C9C9" d="M86.2,37.6c0.1,0,0.1,0,0.2,0c0.1,0.5,0.3,1.1,0.4,1.6h35.9c-1.2-1.2-2.5-2.3-3.9-3.3l-65.4,2.5
		c-0.3,0.2-0.6,0.5-0.8,0.8h33.2C85.9,38.6,86,38.1,86.2,37.6z"/>
	<path fill="#C9C9C9" d="M106.9,29.1l-42.1,1.6c-0.8,0.4-1.6,0.8-2.3,1.2h50.3C110.9,30.9,108.9,29.9,106.9,29.1z"/>
	<path fill="#C9C9C9" d="M77.1,46.2c0.2,0.1,0.4,0.1,0.6,0.2h0.9c-0.6-0.1-1.2-0.4-1.7-0.8c-0.1-0.1-0.2-0.2-0.2-0.3
		c-0.1-0.2-0.3-0.4-0.4-0.6l-29.8,1.2c-0.1,0.2-0.2,0.3-0.4,0.5h31C77.1,46.4,77.1,46.3,77.1,46.2z"/>
	<path fill="#C9C9C9" d="M95.8,45.3c-0.2,0.2-0.4,0.5-0.6,0.6c-0.6,0.2-1.2,0.5-1.8,0.6h1.5c0.2-0.1,0.4-0.1,0.6-0.2
		c0,0.1,0,0.1,0,0.2h33.7c-0.9-1.2-1.9-2.4-2.9-3.6L96.8,44C96.5,44.4,96.1,44.8,95.8,45.3z"/>
	<path fill="#C9C9C9" d="M95.4,52.5L95.4,52.5l0.2,1.6h38.1c-0.6-1.3-1.3-2.6-2.1-3.8l-36.4,1.4L95.4,52.5z"/>
	<path fill="#C9C9C9" d="M76.8,53.5c0,0,0.1,0,0.1,0l0.3-1.2l-35.5,1.4c-0.1,0.1-0.1,0.2-0.2,0.3h35.3V53.5z"/>
	<polygon fill="#C9C9C9" points="34,54 34.6,54 34.6,54 	"/>
	<path fill="#C9C9C9" d="M38.6,61.1c0,0.1,0,0.1-0.1,0.2h38.2v-1.7L38.6,61.1z"/>
	<path fill="#C9C9C9" d="M102.1,61.3h34.6c-0.4-1.3-0.9-2.7-1.4-4L100,58.7C100.7,59.5,101.4,60.4,102.1,61.3z"/>
	<path fill="#C9C9C9" d="M108.6,69.2h29.9c-0.2-1.4-0.5-2.7-0.8-4l-31.5,1.2C107.1,67.4,107.9,68.4,108.6,69.2z"/>
	<polygon fill="#C9C9C9" points="38.3,69.2 76.8,69.2 76.8,67.5 	"/>
	<path fill="#C9C9C9" d="M121.8,76.4h17.3c0-1.4-0.1-2.7-0.2-4.1l-25.2,1C116.6,74.4,119.6,75.6,121.8,76.4z"/>
	<path fill="#C9C9C9" d="M126.6,80.5V84h12c0.2-1.3,0.3-2.7,0.4-4.1L126.6,80.5L126.6,80.5z"/>
	<path fill="#C9C9C9" d="M126.6,87.7v3.6H137c0.4-1.3,0.7-2.7,1-4L126.6,87.7z"/>
	<path fill="#C9C9C9" d="M119.4,95.2h10.1v3.3h4.8c0.6-1.3,1.2-2.6,1.7-4L119.4,95.2z"/>
	<path fill="#C9C9C9" d="M41.9,105.7c0,0,0.4,0,0.8,0l52,0.1c-0.6-0.7-1.1-1.5-1.5-2.3L41.9,105.7z"/>
	<path fill="#C9C9C9" d="M113.9,102.7c-0.1,0.2-0.1,0.3-0.2,0.5c-0.4,1-1,1.8-1.7,2.6h18.2c0.8-1.2,1.6-2.5,2.4-3.8L113.9,102.7z"/>
	<polygon fill="#C9C9C9" points="139.9,101.6 140.3,101.6 139.9,101.6 	"/>
	<path fill="#C9C9C9" d="M51.4,113.4h72.5c1.2-1.2,2.3-2.4,3.3-3.6l-79.9,3.1h3.6C51,113,51.2,113.2,51.4,113.4z"/>
	<path fill="#C9C9C9" d="M60.5,120.6h54.1c1.6-1,3.2-2.1,4.7-3.3L59,119.6C59.5,120,60,120.3,60.5,120.6z"/>
	<path fill="#C9C9C9" d="M78.6,127.5h18.1c3.4-0.6,6.8-1.6,9.9-2.8L72.4,126C74.4,126.6,76.5,127.1,78.6,127.5z"/>
	<path fill="#00B3D0" d="M94.9,46.4c-0.4,0.1-0.8,0.2-1.2,0.3c-0.6,0.1-1.1,0-1.5-0.3c-0.3-0.2-0.5-0.6-0.6-1
		c-0.1-0.2-0.1-0.5-0.2-0.7c-0.9,0.7-1.8,1-2.9,0.9c-0.8-0.1-1.4-0.6-1.9-1.2c-0.2-0.2-0.3-0.5-0.5-0.7c-0.1,0.3-0.3,0.5-0.5,0.8
		c-1,1.4-2.6,1.9-4.8,0.3c0,0.2-0.1,0.3-0.1,0.5c-0.1,0.5-0.3,0.9-0.6,1.2c-0.4,0.3-0.9,0.5-1.6,0.3c-0.3-0.1-0.7-0.2-1-0.3
		c-0.2-0.1-0.4-0.1-0.6-0.2c0,0.1,0,0.1,0,0.2c0.1,0.7,0.3,1.4,0.4,2.1c3.1-0.3,5.8-0.5,8.7-0.5c2.9,0,5.7,0.1,8.8,0.6
		c0.1-0.8,0.3-1.5,0.4-2.2c0-0.1,0-0.1,0-0.2C95.3,46.3,95.1,46.4,94.9,46.4z"/>
	<path fill="#00B3D0" d="M79.5,46.4c0.4-0.1,0.8-0.3,0.9-0.7c0.1-0.3,0.2-0.6,0.2-0.9c0-0.1,0-0.1,0-0.2c0-0.2,0-0.5,0-0.8
		c0.2,0.3,0.4,0.5,0.6,0.7c0.7,0.6,1.5,0.9,2.5,0.7c0.7-0.1,1.2-0.4,1.5-0.9c0.3-0.5,0.6-1,0.8-1.6c0.2,0.6,0.5,1.1,0.8,1.5
		c0.4,0.5,0.9,0.8,1.6,0.9c1.1,0.2,2.1-0.2,2.9-1.1c0.1-0.1,0.2-0.2,0.3-0.3c0,0.1,0,0.2,0,0.3c0.1,0.5,0.1,0.9,0.2,1.3
		c0.1,0.5,0.4,0.8,0.8,0.9c0.2,0,0.3,0,0.5,0c0,0,0.1,0,0.1,0c0.6-0.1,1.2-0.3,1.8-0.6c0.2-0.1,0.4-0.4,0.6-0.6
		c0.3-0.4,0.6-0.8,0.9-1.3c0.3-0.4,0.6-0.8,0.9-1.2c0.3-0.3,0.6-0.6,1-0.9c-0.9,0-1.6,0.4-2,1.1c-0.1,0.1-0.3,0.2-0.4,0.3
		c-0.5,0.1-0.6,0.3-0.5,0.8c0,0,0,0,0,0.1c0,0.1,0,0.2-0.1,0.3c-0.5,0.4-0.9,0.7-1.5,1c-0.7,0.4-1.3,0.1-1.5-0.7
		c0-0.2-0.1-0.3-0.1-0.5c-0.1-0.5-0.1-1-0.2-1.5c0-0.1,0.1-0.2,0.2-0.3c0.3-0.2,0.4-0.4,0.2-0.6c-0.1-0.1-0.4-0.2-0.6-0.2
		c-0.3,0.1-0.3,0.3-0.2,0.6c0,0.1,0.1,0.3,0,0.4c-0.5,0.7-1,1.2-1.8,1.5c-0.3,0.1-0.5,0.2-0.8,0.2l-0.1,0c-0.7,0.1-1.3-0.2-1.9-0.9
		c-0.3-0.5-0.6-1-0.8-1.5c-0.1-0.1,0-0.3,0-0.4c0.3-0.6,0.8-0.6,1.3-0.2c0.1,0.1,0.2,0.2,0.3,0.3c0.2-0.9-0.1-1.3-1.3-1.4
		c-0.1-0.3-0.2-0.6-0.2-0.9c-0.1-0.5-0.3-1.1-0.4-1.6c-0.1,0-0.1,0-0.2,0c-0.1,0.5-0.3,1.1-0.4,1.6c-0.1,0.3-0.1,0.6-0.2,0.9
		c-1.2,0.1-1.5,0.5-1.3,1.4c0.2-0.2,0.4-0.4,0.7-0.4c0.2,0,0.5,0,0.7,0.2c0.1,0.1,0.3,0.4,0.2,0.6c-0.4,0.7-0.7,1.4-1.2,2
		c-0.4,0.5-1.1,0.7-1.8,0.5c-1.1-0.2-1.8-0.9-2.5-1.8c0,0,0-0.1,0.1-0.1c0.2-0.3,0.2-0.6-0.1-0.7c-0.2-0.1-0.5,0-0.6,0.2
		c-0.2,0.3-0.1,0.5,0.2,0.7c0.1,0,0.2,0.1,0.2,0.2c-0.1,0.7-0.1,1.4-0.3,2c0,0,0,0.1,0,0.1c-0.2,0.6-0.7,0.9-1.3,0.6
		c-0.4-0.2-0.7-0.4-1-0.6c-0.2-0.1-0.4-0.3-0.6-0.5c-0.1-0.1-0.1-0.3-0.1-0.4c0-0.4-0.1-0.6-0.5-0.7c-0.3,0-0.4-0.2-0.6-0.4
		c-0.4-0.7-1.2-1-1.9-1c0,0,0.1,0.1,0.1,0.1c1,0.8,1.7,1.8,2.4,2.8c0.1,0.2,0.3,0.4,0.4,0.6c0,0.1,0.1,0.2,0.2,0.3
		c0.5,0.3,1.1,0.6,1.7,0.8c0.2,0,0.4,0.1,0.6,0.1C79.3,46.5,79.4,46.5,79.5,46.4z"/>
	<path fill="#00B3D0" d="M78,50.8c0.2,0,0.4,0,0.5-0.1c0.1,0,0.3,0,0.4,0c0.2,0,0.4,0,0.7-0.1c0.2,0,0.5,0,0.7,0c0.3,0,0.6,0,0.8,0
		c0.3,0,0.6,0,0.8,0c0.2,0,0.5,0,0.7,0c0.3,0,0.6,0,0.9,0c0.2,0,0.5,0,0.7,0c0.3,0,0.6,0,0.9,0c0.2,0,0.3,0,0.5,0c0.6,0,1.2,0,1.9,0
		c0.3,0,0.5,0,0.8,0c0.2,0,0.4,0,0.6,0c0.2,0,0.4,0,0.6,0c0.2,0,0.5,0,0.7,0c0.2,0,0.4,0,0.6,0c0.2,0,0.5,0,0.7,0c0.2,0,0.4,0,0.6,0
		c0.1,0,0.2,0,0.3,0c0.2,0,0.3,0,0.5,0c0.2,0,0.3,0,0.5,0c0.2,0,0.4,0,0.6,0c0.2,0,0.4,0,0.6,0c0.2,0,0.4,0,0.6,0.1c0,0,0,0,0,0
		c0,0,0-0.1,0-0.1c0-0.2,0-0.4,0-0.6c0-0.2,0-0.4,0-0.6c0-0.2,0-0.3,0-0.5l0-0.1c0,0,0,0,0,0c-0.2,0-0.3,0-0.5,0c-0.1,0-0.3,0-0.4,0
		c-0.1,0-0.3,0-0.4,0c-0.2,0-0.3,0-0.5,0c-0.2,0-0.4,0-0.5,0c-0.2,0-0.4,0-0.6,0c-0.2,0-0.5,0-0.7,0c-0.3,0-0.6,0-0.9,0
		c-0.2,0-0.5,0-0.7,0c-0.3,0-0.6,0-0.9,0c-0.2,0-0.5,0-0.7,0c-0.3,0-0.5,0-0.8,0c-0.4,0-0.7,0-1.1,0c-0.3,0-0.6,0-0.9,0
		c-0.4,0-0.7,0-1.1,0c-0.1,0-0.2,0-0.3,0c-0.2,0-0.4,0-0.6,0c-0.1,0-0.2,0-0.3,0c-0.2,0-0.4,0-0.6,0c-0.2,0-0.4,0-0.6,0
		c-0.3,0-0.5,0-0.8,0c-0.2,0-0.4,0-0.6,0c-0.1,0-0.2,0-0.3,0c-0.2,0-0.4,0-0.6,0c-0.2,0-0.3,0-0.5,0c-0.1,0-0.3,0-0.4,0
		c-0.1,0-0.3,0-0.4,0c-0.1,0-0.3,0-0.4,0c-0.2,0-0.3,0-0.5,0c0,0,0,0,0,0c0,0.2,0,0.4,0,0.6c0,0.2,0,0.4,0,0.6c0,0.2,0,0.4,0,0.6
		c0,0,0,0,0,0C77.6,50.8,77.8,50.8,78,50.8z"/>
	<path fill="#747981" d="M39.3,91.3c-0.1-0.1-0.1-0.1-0.2-0.2C37,88.6,33.9,87,30.4,87C24.1,87,19,92.1,19,98.4c0,1.7,0.4,3.3,1,4.8
		c1.8,3.9,5.8,6.6,10.3,6.6c3.5,0,6.6-1.6,8.7-4c0.1-0.1,0.1-0.1,0.2-0.2c0.6-0.7,1.1-1.6,1.5-2.4c0.6-1.4,1-3,1-4.6
		c0,0,0-0.1,0-0.1c0,0,0-0.1,0-0.2C41.8,95.6,40.8,93.2,39.3,91.3z M37.5,98.4c0,0,0,0.1,0,0.1c-0.1,3.8-3.2,6.9-7,6.9
		c-3.9,0-7.1-3.2-7.1-7.1c0-3.9,3.2-7.1,7.1-7.1C34.3,91.3,37.5,94.5,37.5,98.4L37.5,98.4z"/>
	<polygon fill="#00B3D0" points="119.4,95.2 117,95.2 117,95.3 117,98.5 117,100 129.5,100 129.5,98.5 129.5,95.2 	"/>
	<path fill="#747981" d="M113.9,102.7c0.5-1.3,0.8-2.7,0.8-4.1c0,0,0-0.1,0-0.1c0-1-0.1-2-0.4-3c-0.4-1.5-1.1-2.9-2.1-4.1
		c-0.9-1.2-2.1-2.2-3.5-2.9c-1.6-0.9-3.5-1.4-5.4-1.4c-2.3,0-4.4,0.7-6.2,1.8c-1,0.7-2,1.5-2.7,2.5c-1.1,1.4-1.9,3.1-2.3,5
		C92,97,92,97.7,92,98.4c0,0,0,0.1,0,0.1c0,1.6,0.4,3.2,1,4.6c0.1,0.1,0.1,0.2,0.2,0.3c0.4,0.8,0.9,1.6,1.5,2.3c2.1,2.4,5.2,4,8.7,4
		c3.5,0,6.6-1.6,8.7-4c0.7-0.8,1.3-1.7,1.7-2.6C113.8,103,113.8,102.8,113.9,102.7z M110.4,98.5c0,1.7-0.6,3.1-1.6,4.3
		c-1.3,1.6-3.2,2.6-5.4,2.6c-2,0-3.8-0.8-5.1-2.2c-1.2-1.2-1.9-2.9-2-4.7c0,0,0-0.1,0-0.1c0-0.8,0.2-1.6,0.4-2.3
		c1-2.8,3.6-4.8,6.6-4.8c2.9,0,5.4,1.7,6.5,4.2c0.4,0.9,0.6,1.8,0.6,2.8C110.4,98.4,110.4,98.5,110.4,98.5z"/>
	<path fill="#00B3D0" d="M126.6,84v-3.6v0c0-0.2-0.1-2-2.6-3c-0.5-0.2-1.3-0.6-2.3-0.9c-2.2-0.9-5.2-2.1-8.1-3.1
		c-0.8-0.3-1.5-0.6-2.2-0.8c0,0.1-1.2-1.3-2.9-3.3c-0.7-0.9-1.5-1.8-2.3-2.8c-1.3-1.6-2.8-3.4-4.2-5.1c-0.7-0.9-1.4-1.8-2.1-2.6
		c-1.3-1.5-2.4-2.9-3.2-3.8c-0.3-0.4-0.8-0.6-1.2-0.8l0,0l-0.2-1.6l-0.1-0.8l-0.1-0.5c0,0-11.1-0.7-17.8,0l-0.3,1.2l-0.3,1.2
		c0,0-0.1,0-0.1,0V54v5.6v1.7v6.3v1.7v0.9H6.6v15.8h3.9l0,14.1h6.3c-0.1-0.5-0.1-1.1-0.1-1.6c0-2,0.4-3.9,1.2-5.6
		c1.3-3,3.7-5.4,6.7-6.8c1.8-0.8,3.8-1.3,5.9-1.3c4.9,0,9.2,2.6,11.6,6.4c0.1,0.1,0.1,0.2,0.2,0.3c1.2,2,1.9,4.4,2,6.9
		c0,0.1,0,0.1,0,0.2c0,0.1,0,0.1,0,0.2c0,0.5,0,1-0.1,1.5h32.7h1.9h11.2c-0.1,0-0.1-0.8-0.2-1.5c0-0.2,0-0.4,0-0.6
		c0-0.5,0-1.1,0.1-1.6c0.2-1.8,0.8-3.5,1.7-5.1c0.5-0.8,1-1.6,1.7-2.3c2.5-2.7,6.1-4.4,10.2-4.4c3.6,0,6.8,1.4,9.2,3.7
		c0.9,0.9,1.7,1.9,2.4,3.1c0.2,0.3,0.4,0.7,0.6,1.1h11v-1.1v-3.6V84z M85.4,76.4v2.2c0,0.2-0.5,0.3-0.8,0.3h-4.7
		c-0.3,0-1.2-0.1-1.2-0.3v-2.2v-0.5c0-0.2,0.9,0.1,1.2,0.1h4.7c0.3,0,0.8-0.3,0.8-0.1V76.4z M104.2,72.2H82c-1.3,0-3.3-0.1-3.3-1.4
		v-1.6v-1.7v-6.2v-1.7v-0.6c0-1.3,2-3,3.3-3h11.3c1.5,0,2.2,1.1,3.2,2.1c0.2,0.2,0.4,0.4,0.6,0.7c0.6,0.6,1.3,1.5,2.2,2.5
		c1.4,1.6,3.1,3.5,4.5,5.2c0.9,1.1,1.6,2,2.1,2.7c0.3,0.5,0.6,0.8,0.7,1.1C107.3,71.9,106.5,72.2,104.2,72.2z"/>
	<path fill="#747981" d="M139.9,52.4c-0.4-0.8-0.8-1.6-1.2-2.4c-0.6-1.2-1.3-2.4-2-3.5c-0.8-1.3-1.7-2.6-2.6-3.9
		c-0.9-1.2-1.8-2.3-2.7-3.3c-1.1-1.3-2.2-2.5-3.4-3.7c-1.3-1.3-2.6-2.5-4-3.6c-1.5-1.2-3-2.3-4.5-3.3c-9.1-6-20-9.5-31.7-9.5
		c-13.3,0-25.6,4.5-35.3,12.1c-0.3,0.2-0.6,0.5-0.9,0.7c-2.6,2.1-4.9,4.4-7.1,6.8c-0.1,0.1-0.2,0.3-0.3,0.4
		c-1.9,2.2-3.7,4.6-5.2,7.1c0,0.1-0.1,0.1-0.1,0.2c-1.5,2.4-2.8,4.9-4,7.6l0,0c-1.3,3-2.4,6.2-3.1,9.4h6.4c0.2-0.7,0.5-1.5,0.7-2.2
		c0-0.1,0-0.1,0.1-0.2c0.8-2.4,1.7-4.8,2.9-7.1c0.1-0.1,0.1-0.2,0.2-0.3c1.3-2.6,2.8-5,4.5-7.3c0.1-0.2,0.2-0.3,0.4-0.5
		c1.8-2.4,3.8-4.7,6.1-6.8c0.3-0.3,0.6-0.5,0.8-0.8c2.8-2.5,5.8-4.7,9.1-6.5c0.8-0.4,1.5-0.8,2.3-1.2c6.9-3.4,14.6-5.4,22.9-5.4
		c6.8,0,13.3,1.4,19.3,3.8c2,0.8,4,1.8,5.9,2.8c2.1,1.2,4.1,2.5,6,3.9c1.4,1,2.7,2.1,3.9,3.3c1.2,1.1,2.4,2.4,3.5,3.6
		c1,1.2,2,2.3,2.9,3.6c0.9,1.2,1.7,2.5,2.5,3.8c0.7,1.2,1.4,2.5,2.1,3.8c0.5,1.1,1,2.2,1.5,3.3c0.5,1.3,1,2.6,1.4,4
		c0.4,1.3,0.8,2.6,1.1,3.9c0.3,1.3,0.6,2.7,0.8,4c0.2,1,0.3,2.1,0.4,3.2c0.1,1.3,0.2,2.7,0.2,4.1c0,0.1,0,0.3,0,0.4
		c0,1,0,2.1-0.1,3.1c-0.1,1.4-0.2,2.7-0.4,4.1c-0.2,1.1-0.3,2.1-0.5,3.2c-0.3,1.4-0.6,2.7-1,4c-0.3,1.1-0.7,2.2-1.1,3.3
		c-0.5,1.3-1.1,2.7-1.7,4c-0.5,1.2-1.1,2.3-1.7,3.4c-0.7,1.3-1.5,2.6-2.4,3.8c-0.9,1.4-1.9,2.7-3,4c-1.1,1.3-2.2,2.5-3.3,3.6
		c-1.4,1.4-2.9,2.7-4.4,3.9c-1.5,1.2-3.1,2.3-4.7,3.3c-2.6,1.6-5.3,2.9-8.1,4.1c-3.2,1.3-6.5,2.2-9.9,2.8c-2.9,0.5-6,0.8-9.1,0.8
		c-3.1,0-6.1-0.3-9-0.8c-2.1-0.4-4.2-0.9-6.2-1.5c-4.2-1.3-8.2-3.1-11.9-5.4c-0.5-0.3-1-0.6-1.5-1c-2.8-1.9-5.3-3.9-7.7-6.3
		c-0.2-0.2-0.4-0.3-0.5-0.5h-3.6h-4.7c0,0.1,0.1,0.1,0.2,0.2c0.1,0.1,0.2,0.2,0.3,0.3c1.9,2.4,4.1,4.6,6.4,6.7
		c0.2,0.2,0.5,0.4,0.7,0.6c2.6,2.2,5.4,4.2,8.3,6c0.6,0.3,1.1,0.6,1.7,0.9c8.2,4.5,17.6,7,27.6,7c10,0,19.4-2.6,27.6-7
		c1.9-1,3.7-2.2,5.4-3.4c1.6-1.1,3.1-2.3,4.5-3.5c1.4-1.2,2.7-2.4,3.9-3.7c1.1-1.1,2.2-2.3,3.2-3.5c1-1.3,2-2.6,3-3.9
		c0.8-1.2,1.6-2.4,2.3-3.6c0.8-1.3,1.5-2.7,2.2-4.1c3.6-7.5,5.6-15.9,5.6-24.8C145.3,68.1,143.4,59.8,139.9,52.4z"/>
</g>
</svg>
