<?xml version="1.0" encoding="utf-8"?>
<!-- Generator: Adobe Illustrator 18.1.0, SVG Export Plug-In . SVG Version: 6.00 Build 0)  -->
<svg version="1.0" id="Layer_1" xmlns="http://www.w3.org/2000/svg" xmlns:xlink="http://www.w3.org/1999/xlink" x="0px" y="0px"
	 viewBox="0 0 150 150" enable-background="new 0 0 150 150" xml:space="preserve">
<g>
	<g>
		<path fill="none" d="M131.8,75.1v0.3C131.8,75.4,131.8,75.2,131.8,75.1L131.8,75.1z"/>
		<path fill="#027696" d="M132,75.4c0-0.5,0-0.9-0.1-1.4V18.1l-3.4-1.4c-14.9-6.1-30.8-9.5-47-10.2l0.1-0.1h-0.1
			c-2.3-0.1-4.6-0.1-6.9-0.1c-1.8,0-3.7,0-5.6,0.1l0,0v0.1c-16,0.8-32.1,4.1-47,10.2l-3.3,1.4V74c-0.1,0.4-0.1,0.9-0.1,1.4
			c0,8.1,5,22.1,26.8,43.9c3.3,3.3,6.1,6.1,8.7,8.6l4.9-10c-1.9-1.8-3.9-3.8-6.1-6.1C31.6,90.4,29.4,79,29.4,75.4c0-0.3,0-0.5,0-0.7
			l-0.2-2.2l0.3,1.5V25.4c13.7-5.2,28.3-8.1,43-8.4c1.9,0,2.8,0,4.9,0c15,0.2,29.9,3.1,43.8,8.5V74l0.3-1.5l-0.2,2.3
			c0,0.2,0.1,0.3,0.1,0.6c0,3.8-2.3,15-23.6,36.6c-2.1,1.9-3.8,3.7-5.5,5.3l4.9,10c2.5-2.3,5.1-4.9,8.1-7.8
			C127.1,97.5,132,83.5,132,75.4z M131.8,75.1L131.8,75.1c0,0.1,0,0.3,0,0.3V75.1z"/>
		<path fill="#027696" d="M79.7,129.4c-1.8,1.9-3.3,3.1-4.4,4.2c-1-0.9-2.1-2.1-3.7-3.6l-4,8.1l-1,2c2.9,2.7,4.9,4.3,6.4,5.3h-0.7
			c1,0.6,1.8,1,2.9,0.8c1.1,0.2,1.8-0.3,2.9-0.8h-0.6c1.6-1,3.8-2.9,7-5.9L84,138L79.7,129.4z"/>
		<path fill="#002D3C" d="M77,102.9l12.8-26l1-0.2h0.1l0,0l0,0v-0.1c0-0.2,0.1-0.4,0.1-0.6l-0.1-0.1c0.8-2.1,2.1-4.5,3.4-6.9
			c0.4,0.8,1,1.8,2.1,2.3c0.8,0.4,1.6,0.5,2.9,0.4c2.7-0.3,4.2-1.6,5.1-3.5c0.1-0.1,0.1-0.2,0.2-0.3c0,0,0.1-0.1,0.1-0.2
			c0-0.1,0.1-0.1,0.1-0.3c0,0,0-0.1,0.1-0.2c0.1-0.1,0.1-0.2,0.1-0.3c0-0.1,0.1-0.1,0.1-0.3c0,0,0-0.2,0-0.3c0,0,0.1-0.1,0.1-0.1
			l0,0c0.3-1,0.5-2.2,0.7-3.4l0,0c0.2-0.5,0.3-1.1,0.3-1.7c0-0.1,0.1-0.1,0.1-0.2c0.1-0.1,0.1-0.3,0.1-0.4s0-0.2,0.1-0.4
			c0,0,0.1-0.2,0.1-0.2c0-0.2,0.1-0.4,0.1-0.6c0-0.1,0-0.1,0-0.3c0-0.2,0.1-0.3,0.1-0.4c0-0.1,0-0.2,0-0.2c0-0.2,0.1-0.3,0.1-0.5
			v-0.2c0.1-0.3,0.1-0.5,0.2-0.7c1.7-5.5,4.5-6.3,4.5-6.3c-0.1,0-0.2,0-0.3,0c-0.1,0.1-0.1,0.1-0.1,0.1c-0.1,0-0.2,0-0.3,0.1
			c-0.1,0-0.1,0.1-0.1,0.1c-0.1,0-0.1,0-0.3,0.1c0,0-0.1,0.1-0.2,0.1c-0.1,0.1-0.1,0.1-0.2,0.1c0,0-0.1,0.1-0.1,0.1
			c-0.1,0.1-0.1,0.1-0.2,0.2c-0.1,0-0.1,0-0.1,0.1c-0.1,0.1-0.1,0.2-0.3,0.2c0,0,0,0-0.1,0.1c-0.1,0.1-0.2,0.2-0.3,0.3l0,0
			c-0.1,0.1-0.3,0.2-0.3,0.3c0,0.1-0.1,0.1-0.1,0.1c-0.1,0.1-0.1,0.2-0.3,0.3c0,0.1,0,0.1-0.1,0.1c-0.1,0.1-0.1,0.2-0.2,0.3
			c0,0-0.1,0.1-0.1,0.2c0,0-0.1,0.1-0.1,0.3c-0.1,0-0.1,0.1-0.1,0.1c-0.1,0.1-0.1,0.3-0.1,0.4c-0.1,0.1-0.1,0.1-0.1,0.1
			c-0.1,0.1-0.1,0.3-0.2,0.3c-0.1,0.1-0.1,0.1-0.1,0.1c-0.1,0.2-0.2,0.4-0.3,0.5l0,0c-0.1,0.1-0.2,0.4-0.3,0.5v0.1
			c-0.1,0.2-0.1,0.3-0.3,0.5v0.1c-0.1,0.2-0.1,0.3-0.2,0.4c-0.1,0.1-0.1,0.1-0.1,0.1c-0.1,0.1-0.1,0.3-0.1,0.4
			c-0.1,0.1-0.1,0.1-0.1,0.1c0,0.2-0.1,0.3-0.1,0.4c0,0.1,0,0.1-0.1,0.1c-0.1,0.2-0.1,0.4-0.1,0.5C105,59,105,59,105,59
			c-0.1,0.3-0.3,0.8-0.4,1.1v0.1c0,0.1-0.1,0.3-0.1,0.4c0,0.1,0,0.1,0,0.2c-0.1,0.2-0.1,0.2-0.1,0.4c0,0,0,0.1-0.1,0.1
			c-0.1,0.1-0.1,0.2-0.1,0.3c0,0.1-0.1,0.1-0.1,0.1c-0.1,0.1-0.1,0.3-0.1,0.4c-0.1,0.1-0.1,0.1-0.1,0.2c-0.1,0.1-0.1,0.2-0.1,0.3
			s0,0.1-0.1,0.1c-0.1,0.1-0.1,0.3-0.1,0.4c0,0.1,0,0.1,0,0.1v0.1l0,0c-0.1,0.6-0.3,1.1-0.4,1.4c-0.5,3.2-3,4.7-5.5,3.7
			c-0.1-0.1-0.2-0.1-0.3-0.2c-0.2,0-0.2,0-0.2,0c-0.1-0.1-0.2-0.1-0.3-0.2c0-0.1-0.1-0.1-0.1-0.1c0-0.1-0.2-0.1-0.2-0.2
			c0,0-0.1-0.1-0.1-0.1c0-0.1,0-0.1-0.1-0.1c-0.1-0.1-0.1-0.2-0.1-0.2c-0.1-0.1-0.1-0.1-0.1-0.2v-0.1c-0.1-0.1-0.1-0.1-0.1-0.3
			c-0.1,0-0.1-0.1-0.1-0.1c0-0.1,0-0.1,0-0.2c0-0.1,0-0.1,0-0.2c0-0.1,0-0.1,0-0.2v-0.1c0-0.1,0-0.2,0-0.2s0-0.1,0-0.2v-0.1
			c2.9-4.9,6.2-9.8,7.6-13.1c1.5-3.4,4-11.6,5.9-18.1l0,0c0,0.1-0.1,0.2-0.2,0.3c-4,5.3-8.8,12.1-10.6,15.3
			c-1.4,2.6-2.9,6.6-4.4,10.8c-0.3,1-0.7,1.9-1,2.8c0,0-0.1,0.1-0.1,0.1c-0.1,0.1-0.1,0.1-0.2,0.3c-0.1,0.1-0.1,0.1-0.1,0.1
			s-0.1,0-0.1,0.1c0,0.1-0.1,0.1-0.1,0.1c0,0.1-0.1,0.1-0.1,0.1c0,0.1-0.1,0.1-0.1,0.1c-0.1,0.1-0.1,0.1-0.1,0.1
			c-0.1,0-0.2,0.1-0.3,0.1l0,0c-0.1,0.1-0.3,0.2-0.3,0.2c-0.1,0-0.1,0-0.1,0c-0.1,0.1-0.2,0.1-0.3,0.1c-0.1,0-0.1,0-0.1,0.1
			c-0.1,0-0.2,0-0.3,0c0,0-0.1,0.1-0.1,0.1c-0.1,0-0.1,0-0.3,0l0,0c-0.1,0-0.3-0.1-0.4-0.1c0,0-0.1,0-0.2,0c0,0-0.1,0-0.3-0.1
			c-0.1,0-0.1,0-0.2-0.1c-2.3-1.4-2.6-4.2-0.4-6.6c0.1-0.1,0.2-0.2,0.3-0.3c0.1-0.1,0.1-0.2,0.1-0.2c0.1-0.1,0.2-0.1,0.2-0.3
			c0.1,0,0.1,0,0.1-0.1c0.1-0.1,0.2-0.2,0.3-0.3c0,0,0.1,0,0.1-0.1c0.1-0.1,0.2-0.3,0.3-0.4c0-0.1,0-0.1,0-0.1
			c1.1-1.3,2.3-3.1,3.4-5l0,0c0,0,0.1-0.1,0.1-0.1c0.1-0.1,0.1-0.2,0.2-0.3c0-0.1,0.1-0.1,0.1-0.3c0-0.1,0.1-0.2,0.1-0.3
			c0-0.1,0.1-0.1,0.2-0.3c0-0.2,0.1-0.2,0.1-0.3c0-0.1,0.1-0.2,0.1-0.3c0-0.1,0.1-0.3,0.1-0.3c0-0.1,0.1-0.1,0.2-0.2
			c0-0.2,0-0.3,0.1-0.3c0.1-0.1,0.1-0.2,0.1-0.3c0.1-0.1,0.1-0.2,0.1-0.3c0-0.1,0.1-0.2,0.1-0.3c0-0.1,0-0.2,0-0.2
			c0.1-0.1,0.2-0.2,0.2-0.2c0-0.2,0-0.3,0.1-0.4c0-0.1,0.1-0.1,0.1-0.2c0-0.2,0-0.2,0-0.3c0.1-0.1,0.1-0.1,0.1-0.3
			c0-0.1,0-0.1,0-0.3c0-0.1,0-0.1,0-0.2c0-0.1,0-0.2,0-0.3c0-0.1,0-0.1,0-0.2c0-0.1,0-0.1,0-0.3c0-0.1,0-0.2,0-0.2
			c0-0.1,0-0.1,0-0.2c0-0.2,0-0.2,0-0.2c0-0.1-0.1-0.2-0.1-0.3c0-0.1,0-0.1,0-0.1c0-0.1-0.1-0.2-0.1-0.3c0,0,0,0,0-0.1
			c-0.1-0.1-0.2-0.2-0.3-0.4c0,0,1.1,2.7-2.3,7.4c-0.1,0.1-0.1,0.2-0.2,0.3c-0.3,0.4-0.8,1-1.2,1.4c-3.6,4.1-8.7,7.9-5.5,13.2
			c0.6,1,1.4,1.6,2.1,2.1c1.1,0.5,2.3,0.4,3.3,0.1c-1.2,2.7-2.4,5-3.7,7l-0.1-0.1c-0.2,0.2-0.3,0.3-0.5,0.5l0,0l0,0l0,0l0,0l0.4,0.9
			l-12.1,24.6L63.6,76l0.5-0.9h0.1h-0.1l0,0l0,0c-0.2-0.2-0.3-0.3-0.5-0.5l-0.1,0.1c-1.2-2-2.5-4.4-3.5-7c0.9,0.3,2,0.4,3.2-0.1
			c0.8-0.4,1.4-1,2.1-2.1c3.1-5.2-1.9-9.1-5.5-13.2c-0.5-0.5-0.9-1-1.2-1.4c-0.1-0.1-0.1-0.2-0.2-0.3C55,45.9,56,43.1,56,43.1
			c0,0.1-0.1,0.2-0.1,0.4c-0.1,0.1-0.1,0.1-0.1,0.1c0,0.1,0,0.2-0.1,0.3c0,0.1-0.1,0.1-0.1,0.1c0,0.1,0,0.2,0,0.3
			c0,0.1-0.1,0.1-0.1,0.2c0,0.1,0,0.1,0,0.2c-0.1,0.1-0.1,0.1-0.1,0.2c0,0.1,0,0.2,0,0.3c0,0.1,0,0.1,0.1,0.2c0,0.1,0,0.2,0,0.3
			c0,0.1,0,0.1,0,0.2c0.1,0.2,0.1,0.2,0.1,0.3c0,0.1,0,0.2,0,0.3c0,0.1,0.1,0.1,0.1,0.3c0,0.1,0,0.1,0,0.2c0,0.1,0.1,0.2,0.1,0.3
			c0,0,0,0.1,0,0.2c0.1,0.1,0.1,0.2,0.1,0.3c0,0.1,0,0.2,0.1,0.3c0.1,0.1,0.1,0.2,0.1,0.3c0.1,0.1,0.1,0.2,0.1,0.3
			c0,0,0.1,0.2,0.1,0.3c0,0.1,0.1,0.1,0.1,0.2c0,0.1,0.1,0.2,0.2,0.3c0,0.1,0,0.1,0.1,0.3c0.1,0.1,0.1,0.1,0.2,0.3
			c0,0.1,0,0.1,0.1,0.3c0.1,0.1,0.1,0.2,0.2,0.3c0,0.1,0,0.2,0.1,0.3c0.1,0.1,0.1,0.2,0.2,0.3c0,0.1,0,0.1,0,0.1c0.1,0,0.1,0,0.1,0
			c1,1.9,2.3,3.7,3.4,5c0,0,0,0,0,0.1c0.1,0.1,0.2,0.3,0.3,0.4c0,0.1,0,0.1,0.1,0.1c0.1,0.2,0.2,0.3,0.3,0.3c0,0.1,0.1,0.1,0.1,0.1
			c0.1,0.1,0.1,0.2,0.3,0.3c0,0,0,0.1,0,0.2c0.1,0.1,0.2,0.1,0.3,0.3c2.2,2.5,1.9,5.3-0.4,6.6c-0.1,0.1-0.1,0.1-0.3,0.1
			c0,0.1-0.2,0.1-0.2,0.1c-0.1,0-0.1,0-0.2,0c-0.1,0.1-0.2,0.1-0.3,0.1h-0.1c-0.1,0-0.2,0-0.3,0c0,0,0-0.1-0.2-0.1c0,0-0.1,0-0.2,0
			c-0.1-0.1-0.1-0.1-0.1-0.1c-0.1,0-0.2,0-0.3-0.1l-0.1-0.1c-0.1,0-0.2-0.1-0.3-0.2h-0.1c-0.1-0.1-0.2-0.1-0.3-0.1
			c-0.1,0-0.1-0.1-0.1-0.1c-0.1,0-0.1,0-0.3-0.1c0,0,0,0,0-0.1c-0.1,0-0.1-0.1-0.3-0.1c0-0.1,0-0.1,0-0.1c-0.1,0-0.1,0-0.1-0.1
			c0-0.1-0.2-0.2-0.2-0.3c0-0.1,0-0.1,0-0.1c-0.4-0.9-0.8-1.9-1.1-2.9c-1.6-4.2-3.1-8.2-4.5-10.8c-1.7-3.2-6.5-10-10.5-15.3
			c-0.1-0.1-0.1-0.3-0.3-0.3l0,0c1.9,6.5,4.4,14.7,6,18.1c1.4,3.3,4.6,8.2,7.6,13.1v0.1c0,0.1,0,0.1,0,0.1c0,0.1,0,0.2,0,0.3v0.2
			c0,0.1,0,0.2,0,0.2c0,0.1,0,0.1,0,0.2c-0.1,0.1-0.1,0.2-0.1,0.2c-0.1,0.1-0.1,0.1-0.1,0.1c0,0.2,0,0.2,0,0.3
			C55.2,67,55.2,67,55.2,67c0,0.1,0,0.1,0,0.2c-0.1,0.1-0.1,0.1-0.1,0.2c0,0,0,0.1-0.1,0.1c0,0.1,0,0.1-0.1,0.1
			c-0.1,0.2-0.1,0.2-0.2,0.2C54.6,68,54.6,68,54.5,68c0,0.1-0.1,0.1-0.2,0.2l-0.1,0.1c-0.1,0.1-0.2,0.1-0.3,0.2
			c-2.5,1-4.9-0.5-5.5-3.7c0-0.3-0.1-0.8-0.3-1.4l0,0v-0.1c0,0,0,0-0.1-0.1c-0.1-0.1-0.1-0.2-0.1-0.4c0,0,0-0.1,0-0.1
			c-0.1-0.1-0.1-0.2-0.1-0.3c0-0.2,0-0.2,0-0.2c-0.1-0.1-0.1-0.2-0.1-0.4c0,0,0-0.1,0-0.1c-0.1-0.1-0.1-0.3-0.1-0.3
			c0-0.1,0-0.1,0-0.1c-0.1-0.2-0.1-0.3-0.1-0.4c0-0.1-0.1-0.1-0.1-0.2c-0.1-0.1-0.1-0.3-0.2-0.4v-0.1c-0.1-0.3-0.3-0.8-0.3-1.1
			c-0.1-0.1-0.1-0.1-0.1-0.1c0-0.1-0.1-0.3-0.1-0.5c0,0-0.1,0-0.1-0.1c-0.1-0.1-0.1-0.3-0.2-0.4c0,0,0-0.1,0-0.1
			c-0.1-0.1-0.2-0.3-0.2-0.4c0,0-0.1-0.1-0.1-0.1c0-0.1-0.1-0.3-0.1-0.4l-0.1-0.1c-0.1-0.2-0.2-0.3-0.2-0.5c0,0,0-0.1-0.1-0.1
			c-0.1-0.1-0.2-0.4-0.2-0.5h-0.1c-0.1-0.1-0.2-0.3-0.3-0.5c0,0-0.1-0.1-0.1-0.1c0-0.1-0.1-0.2-0.2-0.3c0-0.1-0.1-0.1-0.1-0.1
			c-0.1-0.1-0.2-0.2-0.2-0.4c-0.1,0-0.1-0.1-0.1-0.1c-0.1-0.1-0.1-0.2-0.3-0.3c0-0.2,0-0.2-0.1-0.2c-0.1-0.1-0.1-0.2-0.2-0.3
			c0-0.1-0.1-0.1-0.1-0.1c0-0.1-0.1-0.2-0.2-0.3c0-0.1-0.1-0.1-0.1-0.1c-0.1-0.1-0.2-0.2-0.3-0.3c0,0,0,0-0.1,0
			c0-0.1-0.1-0.3-0.3-0.3c0-0.1-0.1-0.1-0.1-0.1c0-0.1-0.1-0.1-0.2-0.2c-0.1-0.1-0.1-0.1-0.1-0.1c-0.1-0.1-0.2-0.1-0.3-0.2l-0.1-0.1
			c-0.1-0.1-0.1-0.1-0.2-0.1c-0.1,0-0.1,0-0.2-0.1c0-0.1-0.1-0.1-0.1-0.1c-0.2,0-0.2-0.1-0.2-0.1c-0.1-0.1-0.2-0.1-0.3-0.1
			c-0.1,0-0.1,0-0.1,0c-0.2-0.1-0.3-0.1-0.4-0.1c0,0,2.9,0.9,4.5,6.3c0.1,0.2,0.1,0.4,0.1,0.7c0.1,0,0.1,0.2,0.2,0.2
			c0,0.2,0,0.3,0.1,0.5c0,0.1,0.1,0.1,0.1,0.2c0,0.1,0,0.3,0.1,0.4c0,0.1,0.1,0.1,0.1,0.3c0,0.2,0,0.4,0.1,0.6c0,0.1,0,0.2,0,0.2
			c0,0.2,0.1,0.3,0.1,0.4s0.1,0.3,0.1,0.4c0,0.1,0,0.1,0,0.2c0.1,0.5,0.2,1.2,0.3,1.7l0,0c0.3,1.2,0.5,2.4,0.8,3.4l0,0
			c0,0.1,0,0.1,0,0.1c0,0.1,0.1,0.3,0.1,0.3c0,0.1,0,0.2,0.1,0.3c0.1,0.1,0.1,0.1,0.1,0.3c0,0.1,0.1,0.2,0.1,0.2
			c0.1,0.1,0.1,0.2,0.1,0.3c0.1,0.1,0.1,0.2,0.1,0.2c0.1,0.1,0.1,0.3,0.1,0.3c1,1.9,2.5,3.2,5.1,3.5c1.1,0.2,2.1,0,2.9-0.4
			c1-0.5,1.7-1.5,2-2.3c1.4,2.5,2.7,4.9,3.4,6.9L60.8,76c0.1,0.2,0.1,0.4,0.1,0.6v0.1l0,0l0,0l0,0l1,0.2l13,26l-15.4,31.1l1.8,0.8
			l14.7-29.6l14.7,29.6l1.8-0.8L77,102.9z"/>
	</g>
	<polygon fill="#027696" points="76.3,31.1 78.1,38.9 86,38.2 79.1,42.2 82.3,49.5 76.3,44.2 70.4,49.5 73.6,42.2 66.7,38.2 
		74.6,38.9 	"/>
</g>
</svg>
