<?xml version="1.0" encoding="utf-8"?>
<!-- Generator: Adobe Illustrator 18.1.0, SVG Export Plug-In . SVG Version: 6.00 Build 0)  -->
<svg version="1.0" id="Layer_1" xmlns="http://www.w3.org/2000/svg" xmlns:xlink="http://www.w3.org/1999/xlink" x="0px" y="0px"
	 viewBox="0 0 150 150" enable-background="new 0 0 150 150" xml:space="preserve">
<g>
	<path fill="#00A987" d="M66.3,91.7L66.3,91.7c22.3-0.3,40.2-18.4,40.5-40.6h0l0-30.2l0-3.1h3l-8.1-9.2l-8.1,9.2h4.2l0,32.9
		c0,17.7-14.4,32.1-32.1,32.1v0H21.4v9H66.3z"/>
	<path fill="#01528F" d="M57.6,80.4L57.6,80.4C74.8,80,88.7,66.1,89,48.8h0l0-19.7h0l0,0V28h3.5l-8.1-9.2L76.3,28h3.6v1.1l0,19.2h0
		c0,12.7-10.3,23-23,23H29.7L29.6,62l41.7-25.1l6.7,3.7L78,30l-6.9-3.8L21.4,56v24.4H57.6z"/>
	<path fill="#01528F" d="M123.2,71.1c-0.1,0.2-0.1,0.4-0.2,0.6c-0.1,0.3-0.2,0.5-0.3,0.8c0,0.1-0.1,0.3-0.1,0.4
		c-0.1,0.3-0.2,0.6-0.3,0.8c0,0.1-0.1,0.2-0.1,0.3c-0.1,0.3-0.2,0.6-0.3,0.9c0,0.1-0.1,0.2-0.1,0.3c-0.1,0.3-0.2,0.5-0.3,0.7
		c-0.1,0.1-0.1,0.3-0.2,0.4c-0.1,0.3-0.2,0.5-0.3,0.8c-0.1,0.1-0.1,0.2-0.2,0.4c-0.1,0.3-0.2,0.5-0.4,0.8c-0.1,0.1-0.1,0.2-0.2,0.3
		c-0.1,0.3-0.3,0.6-0.4,0.8c0,0.1-0.1,0.2-0.1,0.3c-0.2,0.3-0.3,0.6-0.5,0.9c0,0-0.1,0.1-0.1,0.1c-0.2,0.3-0.3,0.6-0.5,0.9
		c0,0,0,0.1-0.1,0.1c-0.2,0.3-0.4,0.7-0.6,1c0,0,0,0,0,0c-0.2,0.3-0.4,0.6-0.6,0.9c0,0,0,0.1-0.1,0.1c-0.2,0.3-0.4,0.7-0.7,1
		c0,0,0,0,0,0c-0.7,1.1-1.5,2.1-2.3,3.2l0.4,21L73,134.2l-41.2-23.3v-5.6h41.5v0c17.2-0.3,32.3-9,41.3-22.3c0,0,0,0,0,0
		c0.2-0.3,0.4-0.7,0.7-1c0,0,0-0.1,0.1-0.1c0.2-0.3,0.4-0.6,0.6-0.9c0,0,0,0,0,0c0.2-0.3,0.4-0.7,0.6-1c0,0,0-0.1,0.1-0.1
		c0.2-0.3,0.4-0.6,0.5-0.9c0,0,0.1-0.1,0.1-0.1c0.2-0.3,0.3-0.6,0.5-0.9c0-0.1,0.1-0.2,0.1-0.3c0.1-0.3,0.3-0.6,0.4-0.8
		c0.1-0.1,0.1-0.2,0.2-0.3c0.1-0.3,0.2-0.5,0.4-0.8c0-0.1,0.1-0.2,0.2-0.4c0.1-0.3,0.2-0.5,0.3-0.8c0.1-0.1,0.1-0.3,0.2-0.4
		c0.1-0.2,0.2-0.5,0.3-0.7c0-0.1,0.1-0.2,0.1-0.3c0.1-0.3,0.2-0.6,0.3-0.9c0-0.1,0.1-0.2,0.1-0.3c0.1-0.3,0.2-0.6,0.3-0.8
		c0-0.1,0.1-0.3,0.1-0.4c0.1-0.3,0.2-0.5,0.3-0.8c0.1-0.2,0.1-0.4,0.2-0.6c0.1-0.2,0.1-0.4,0.2-0.6c0.1-0.2,0.1-0.5,0.2-0.7
		c0-0.2,0.1-0.4,0.1-0.5c0-0.2,0.1-0.4,0.1-0.6c0.1-0.2,0.1-0.4,0.2-0.7c0-0.2,0.1-0.3,0.1-0.5c0.1-0.2,0.1-0.5,0.2-0.7
		c0-0.2,0.1-0.4,0.1-0.6c0-0.2,0.1-0.5,0.1-0.7c0-0.2,0.1-0.4,0.1-0.6c0-0.2,0.1-0.5,0.1-0.7c0-0.3,0.1-0.6,0.1-1c0-0.1,0-0.2,0-0.3
		c0-0.3,0.1-0.6,0.1-0.9c0-0.1,0-0.3,0-0.4c0.2-1.6,0.2-3.2,0.3-4.8h0l0-42.4h2.8L118,3.4l-8.1,9.2h3.7l0,12.3l0,29.7
		c0,22.7-18.4,41.1-45.5,41.1l-46.7-0.3v20.9L73.2,145l50.9-30.6l-0.8-43.6C123.3,70.9,123.3,71,123.2,71.1z"/>
	<polygon fill="#00A987" points="21.3,95.4 21.2,105.3 21.2,110.8 21.2,112.6 21.2,112.6 21.2,116.2 21.4,116.3 21.4,95.4 	"/>
</g>
</svg>
