<?xml version="1.0" encoding="utf-8"?>
<!-- Generator: Adobe Illustrator 18.1.0, SVG Export Plug-In . SVG Version: 6.00 Build 0)  -->
<svg version="1.0" id="Layer_1" xmlns="http://www.w3.org/2000/svg" xmlns:xlink="http://www.w3.org/1999/xlink" x="0px" y="0px"
	 viewBox="0 0 150 150" enable-background="new 0 0 150 150" xml:space="preserve">
<g>
	<path fill="#0071BA" d="M89.2,104c-4.3,1.2-5.7-2.5-4.6-4.8c0.7-1.5,0.7-1.5,8-4.3c14.3-5.6,31.3-12.9,43.8-21.1V70
		c-7.3,4.8-17.4,10.2-31.6,16.4c-4.7,1.5-6.1-2.8-4.8-5.5c0.8-1.6,0.8-1.6,8.3-4.9c7-3.1,18.5-8.6,28-15.3V41.3
		c-11.3,9.3-31.2,18.9-56.5,29.3c-5.2,1.5-7.1-4.1-5.3-6.9c0.8-1.2,0.8-1.2,8.1-4.2c22.6-9.5,43.6-19.5,53.7-29.6v-4.7
		c-11.4,12.9-44.4,26.4-89.9,45c-4.9,1.4-6.7-4.3-4.9-7.1c0.7-1.1,0.7-1.1,13.3-6.2c38.2-15.4,72.1-29.1,79.2-43.1h-119v97.3
		c0,0.3,0.1,0.5,0,0.6v23.3h121.3v-34.5c-4.3,2.9-10,6.1-17.9,9.8c-3.1,1.1-2.6-1.9-2-3.1c1-2.3,1-2.3,7.5-5.4c4-1.9,8.4-4.3,12.5-7
		v-2.8c-1.6,1-3.3,2.1-5.2,3.2c-2.9,1.3-2.9-2.2-1.9-4.4c0.9-2.1,0.9-2.1,6.4-5.4c0.3-0.2,0.4-0.3,0.7-0.5V82
		C125,89.3,108.8,96.4,89.2,104z M28.7,68.9c0.6-1.4,1.4-1.7,2.9-2.4c2.9-1,5.3,1.7,5.4,4.7c0,3-1.9,3.8-3.3,4.4
		C30.1,76.9,27.3,72.2,28.7,68.9z M23.5,107.1c-2.7,1.1-6.5-4-5.5-6.3c0.2-0.5,0.3-0.5,1.3-1c1.9-0.7,4.5,1.6,5.4,4
		C25.5,106.1,24.3,106.7,23.5,107.1z M38,100.5c-0.1,0.1-0.1,0.1-6.4,2.8c-3.8,1-6.8-4.2-5.4-6.5c0.4-0.6,0.4-0.6,6.9-3.4
		c3.3-0.9,5.4,2.2,5.7,4C39.1,98.1,39.2,99.6,38,100.5z M47.9,88.3c0.6-1,0.6-1,7.1-3.6c46.3-18.3,57.5-23.6,72.1-32.3
		c3.1-1.4,4.5,2.1,4.6,4.2c0.1,3.2,0.1,4.3-16.4,12.3c-15.2,7.3-28.9,12.7-62,25.7C48.7,95.7,46.5,90.7,47.9,88.3z M58.1,115.8
		c-3.2,1-6.4-2.6-5.3-4.9c0.4-0.8,0.9-1,2.2-1.5c2.5-0.8,5.1,1.1,5.5,3.3S59.2,115.3,58.1,115.8z M68.8,111.7
		c-4.3,1.1-6.2-3-4.9-5.1c0.6-0.9,0.6-0.9,9-4.1c3.7-1,5.4,1.7,5.3,3.4C78,108.2,78,108.2,68.8,111.7z M101.3,116.1
		c-0.8,2-2.6,2.7-3.9,3.2c-3,1-4.1-1.4-3.1-3.3c0.8-1.6,2.1-2.1,3.6-2.7C100.6,112.3,102,114,101.3,116.1z M113,111.3
		c-1,2.2-2.7,2.9-4,3.4c-2.8,1-3.5-1.2-2.5-3.2c0.9-2,2.4-2.6,3.9-3.2C113,107.3,114,109.1,113,111.3z"/>
	<path fill="#FFFFFF" d="M9.2,106c-0.1,0.2,0.1,0.6,0.2,0.9v-1.2C9.3,105.8,9.2,105.9,9.2,106z"/>
	<path fill="#004275" d="M142.3,78v-8.4v-3.8V56V35.7V20.9v-5.8v-0.9v-0.3V9.5V8.1H138h-1.5h-0.9H15.2h-4.4H9.4v5.8v91.9v1.2v28.2
		v4.4v1.4h5.8h121.3h4.4h1.4v-1.4v-4.4V96.4v-5.5v-2.6v-7V78z M139.5,92.9v5.7v36.6v3h-3.1H15.2h-3.1l0-3v-24.1v-4.4V13.9v-3.1l3,0
		h120.1h1.1h3l0,3v6.7v5.8v12.3v19.7v9.6v3.8v8.3v3.3v7.1V92.9z"/>
</g>
</svg>
