<?xml version="1.0" encoding="utf-8"?>
<!-- Generator: Adobe Illustrator 18.1.0, SVG Export Plug-In . SVG Version: 6.00 Build 0)  -->
<svg version="1.0" id="Layer_1" xmlns="http://www.w3.org/2000/svg" xmlns:xlink="http://www.w3.org/1999/xlink" x="0px" y="0px"
	 viewBox="0 0 150 150" enable-background="new 0 0 150 150" xml:space="preserve">
<g>
	<polygon fill="#008AB5" points="18.7,121 18.7,126.3 75.2,141.8 131.7,126.3 131.7,121 75.1,135.8 	"/>
	<polygon fill="#00B4EC" points="75.1,128.3 18.7,113.5 18.7,118.9 75.2,134.3 131.7,118.9 131.7,113.5 	"/>
	<path fill="#00B4EC" d="M74.8,8.1l-46,23V112l46,10.3V8.1z M56.3,32.7l10.3-4.4v15.1l-10.3,2.8V32.7z M56.3,61.7l10.3-1.6v15.1
		H56.3V61.7z M36.1,40.3l8.9-3.8v13L36.1,52V40.3z M36.1,65.4L45,64v13h-8.9V65.4z M45,101h-8.9V89.4l9.3,0.3L45,101z M66.7,103.1
		H56.3V89.6L67.1,90L66.7,103.1z"/>
	<path fill="#008AB5" d="M122.2,112V31.8L74.8,8.1v114.2L122.2,112z M105.2,36.6l8.9,3.8V52l-8.9-2.4V36.6z M105.2,64l8.9,1.4V77
		h-8.9V64z M114.1,89.4V101h-8.9l-0.3-11.3L114.1,89.4z M83.5,28.3l10.3,4.4v13.5l-10.3-2.8V28.3z M83.5,60.1l10.3,1.6v13.5H83.5
		V60.1z M93.9,89.6v13.5H83.5L83.1,90L93.9,89.6z"/>
</g>
</svg>
