<?xml version="1.0" encoding="utf-8"?>
<!-- Generator: Adobe Illustrator 18.1.0, SVG Export Plug-In . SVG Version: 6.00 Build 0)  -->
<svg version="1.1" id="Layer_1" xmlns="http://www.w3.org/2000/svg" xmlns:xlink="http://www.w3.org/1999/xlink" x="0px" y="0px"
	 viewBox="0 0 150 150" enable-background="new 0 0 150 150" xml:space="preserve">
<g>
	<path fill="none" d="M86.5,97.4c0,0.3,0,0.7,0,0.9C86.5,98,86.5,97.7,86.5,97.4z"/>
	<path fill="none" d="M60,100.3c0.3,0.1,0.3-0.8,0.3-0.8c0,0,0,0,0,0C60.4,99.5,60.4,100.3,60,100.3z"/>
	<path fill="none" d="M56.4,94.7c0-1.8,0.8-4,1.7-5.9c0,0,0.1,0,0,0C57.3,90.7,56.3,92.9,56.4,94.7c0,0-0.4,1-0.4,2.3c0,0,0,0,0,0
		c0,1.6,0.4,3.6,1.5,4.8c0,0-0.2,0.5-0.8,0.5c0.6,0,0.8-0.5,0.8-0.5c-1.1-1.3-1.4-3.3-1.4-4.8c0,0,0,0,0,0
		C56,95.7,56.4,94.7,56.4,94.7z"/>
	<path fill="none" d="M129.8,102.1c-0.8,0.6-1.7,1.1-2.6,1.5l-6.2,2.5l-7.8,3.1l-4.3,1.8l-3.2,1.3l-6.9,2.8l-6.6,2.7l-6.5,2.6
		c-0.4,0.1-0.8,0.3-1.2,0.4c-1.7,0.6-3.8,1-6,1.1c2.2-0.2,4.2-0.6,6-1.1c0.4-0.1,0.8-0.3,1.2-0.4l6.5-2.6l6.6-2.7l6.9-2.8l3.2-1.3
		l4.3-1.8l7.8-3.1l6.2-2.5C128.1,103.2,129,102.7,129.8,102.1c3.8-2.7,6.7-7.4,7.2-11.9c0,0,0,0.1-0.1,0.1
		C136.5,94.8,133.6,99.5,129.8,102.1z"/>
	<path fill="none" d="M86.4,98.3c0,0.2,0,0.4,0,0.5C86.4,98.7,86.4,98.5,86.4,98.3z"/>
	<path fill="none" d="M55,102.5c0.3,0.1,0.3-0.8,0.3-0.8c0,0,0,0,0,0C55.3,101.8,55.3,102.6,55,102.5z"/>
	<path fill="none" d="M77.7,88.6c-1.4,0.2-3.1,0.4-4.9,0.5C74.6,89,76.3,88.8,77.7,88.6z"/>
	<path fill="none" d="M84,102.4c0.4,0.4,0.9,0.6,1.5,0.6C84.9,102.9,84.4,102.8,84,102.4c-0.1-0.1-0.2-0.2-0.2-0.4l-0.4-1.3
		c0,0,0,0,0,0l0.4,1.3C83.9,102.1,83.9,102.2,84,102.4z"/>
	<path fill="none" d="M86.5,97.4c0-0.7,0-1.5,0-2.3c0-1,0-1.9,0-1.9v0c0,0,0,0.8,0,1.9C86.5,95.8,86.5,96.7,86.5,97.4z"/>
	<path fill="none" d="M61.6,92.4c0-1.7,0.6-3.7,1.4-5.5l0,0C62.2,88.8,61.6,90.8,61.6,92.4c0,0-0.6,3.2,0.2,5.6
		c0.2,0.6,0.5,1.1,0.8,1.5c0,0-0.3,0.5-1,0.5c0.6,0,1-0.5,1-0.5c-0.4-0.4-0.6-1-0.8-1.5C61,95.6,61.6,92.4,61.6,92.4z"/>
	<path fill="none" d="M15.3,55.3c-0.2,0-0.5,1-0.6,1.5c-0.2,0.7-0.4,1.4-0.6,2.1c0.1-0.7,0.4-1.4,0.6-2.1
		C14.9,56.4,15.1,55.3,15.3,55.3z"/>
	<path fill="none" d="M133.9,52.1c-1.8-2.2-4.1-4.5-6.7-5.5l-6.5-2.6l6.5,2.6C129.7,47.6,132.1,49.9,133.9,52.1z"/>
	<path fill="none" d="M14.3,92.2C14.3,92.2,14.3,92.2,14.3,92.2C14.4,92.2,14.3,92.2,14.3,92.2C14.3,92.2,14.3,92.2,14.3,92.2z"/>
	<path fill="none" d="M75.5,28.2c-3.9,0-7.6,0.6-10.3,1.7L29,44.5l36.2-14.6C67.9,28.8,71.6,28.2,75.5,28.2z"/>
	<path fill="none" d="M136.9,59c0,0,0,0.1,0,0.1c0.1,0.7,0.2,1.5,0.2,2.2c0-0.7-0.1-1.5-0.2-2.2C136.9,59.1,136.9,59,136.9,59z"/>
	<path fill="none" d="M137,83C137,83,137,83,137,83c-6.8,6.6-12.2,14.5-16,23.1C124.8,97.5,130.1,89.6,137,83C137,83,137,83,137,83
		L137,83C137,82.9,137,82.9,137,83L137,83z"/>
	<path fill="none" d="M83,96.7C83,96.7,83,96.7,83,96.7c0,0.2-0.3,0.3-0.3,0.5c-0.1,1.3-0.2,2.5-0.2,2.5s0.2,2.3,0.5,2.4
		c0,0,0,0,0,0c-0.3-0.1-0.6-2.4-0.6-2.4s0.3-1.2,0.3-2.5C82.7,97,83,96.8,83,96.7C83,96.7,83,96.7,83,96.7c0-1-0.1-1.9,0-2.3
		c0,0-1.8-2.3-1.7-4.2c-0.1,2,1.8,4.2,1.8,4.2C82.9,94.7,83,95.7,83,96.7z"/>
	<path fill="#E1F3F8" d="M127.2,46.5l-6.5-2.6l-34.9-14c-2.7-1.1-6.4-1.7-10.3-1.7c-3.9,0-7.6,0.6-10.3,1.7L29,44.5l-5.2,2.1
		c-2.5,1-4.9,5.5-6.7,5.5h116.7C132.1,50,129.7,47.6,127.2,46.5z M45.6,49l-2.4-1.3L40.8,49l0.5-2.7l-2-1.9L42,44l1.2-2.4l1.2,2.4
		l2.7,0.4l-2,1.9L45.6,49z M61.1,45.6l-2.4-1.3l-2.4,1.3l0.5-2.7l-2-1.9l2.7-0.4l1.2-2.4l1.2,2.4l2.7,0.4l-2,1.9L61.1,45.6z
		 M80.5,47.4l-5.1-2.7l-5.1,2.7l1-5.7l-4.1-4l5.7-0.8l2.5-5.2l2.5,5.2l5.7,0.8l-4.1,4L80.5,47.4z M92.7,45l-2.4-1.3L87.9,45l0.5-2.7
		l-2-1.9l2.7-0.4l1.2-2.4l1.2,2.4l2.7,0.4l-2,1.9L92.7,45z M108.2,48.4l-2.4-1.3l-2.4,1.3l0.5-2.7l-2-1.9l2.7-0.4l1.2-2.4l1.2,2.4
		l2.7,0.4l-2,1.9L108.2,48.4z"/>
	<path fill="#E1F3F8" d="M86.5,93.2c0,0-0.5,0.9-0.7,2.1c0.2-0.1,0.5-0.2,0.7-0.3C86.5,94.1,86.5,93.2,86.5,93.2z"/>
	<path fill="#E1F3F8" d="M70.2,99.8c0.6,0.1,1.3,0.3,1.9,0.4c0.4,0.1,0.8,0.2,1.3,0.3c0.5-0.2,1-0.4,1.4-0.6
		c0.8-0.4,1.6-0.7,2.4-1.1c0.7-0.3,1.5-0.6,2.3-0.9c0.9-0.4,1.8-0.7,2.6-1.1c0.1,0,0.2-0.1,0.3-0.1c0.1-1,0.1-1.9,0.3-2.3
		c0,0-1.7-2.3-1.6-4.2c0.1-2,0-2.5-0.5-2.2c-0.1,0.1-1.3,0.4-3,0.7c-1.4,0.2-3.1,0.4-4.9,0.5c-3.2,0.1-6.9-0.4-9.7-2.1
		c-0.8,1.8-1.4,3.8-1.4,5.5c0,0-0.6,3.2,0.2,5.6c1.4,0.3,2.8,0.5,4.1,0.8c0.2,0,0.3,0.1,0.5,0.1c0,0,0,0,0,0
		C67.7,99.2,69,99.5,70.2,99.8z"/>
	<path fill="#E1F3F8" d="M58.2,88.8c-0.8,1.9-1.6,4.1-1.5,5.9c0,0-0.2,1-0.2,2.3c0,0,0,0,0,0c0.8,0.1,1.5,0.3,2.3,0.4
		c0-0.4,0.1-0.7,0.2-1.2C59.6,94.2,58.9,91.1,58.2,88.8z"/>
	<path fill="#E1F3F8" d="M91.7,93.2c0.9-0.3,1.9-0.6,2.8-0.9c0.5-0.1,0.9-0.3,1.4-0.4c1.4-0.4,2.7-0.8,4.1-1.2
		c0.2-0.1,0.5-0.1,0.7-0.2c0,0,0,0,0,0c0.2-0.1,0.5-0.1,0.7-0.2c-2.6,0.6-6.7,0.9-10.3-1.5c0,0-1.4,0-1.4,2.3c0,1.2-0.2,2.2-0.4,3.1
		C90.1,93.8,90.9,93.5,91.7,93.2C91.7,93.2,91.7,93.2,91.7,93.2z"/>
	<path fill="#E1F3F8" d="M136.9,59c-0.1-0.7-0.4-1.6-0.6-2.3c-0.2-0.5-0.4-1.7-0.6-1.7H15.3c-0.2,0-0.4,1.2-0.6,1.7
		c-0.2,0.7-0.5,1.5-0.6,2.2c0,0,0.1,0.1,0.1,0.2C14,59.8,14,60.6,14,61.3v27.6c0,1.1-0.1,2.2,0.2,3.3c0,0-0.2,0-0.2,0c0,0,0,0,0,0
		c2,0,2.5,0.1,3.7,0.1c0,0,0.1,0,0.1,0c1.4,0.1,2.8,0.2,4.2,0.3c-1-1-1.6-2.2-2-3.5c2-1.8,4.8-2.5,7.5-1.7c2.5,0.8,4.3,2.7,5.1,5
		l-4.9-1.2l-5.2-1.3l5.1,1.8l4.7,1.7c-0.1,0-0.1,0.1-0.2,0.1c0.6,0.1,1.1,0.1,1.7,0.2c-1-2-1.7-4.1-2.1-6.5c-0.8-4.6-0.1-9,1.5-12.7
		c-0.9,2.3-1.7,12.3,3,19.4c0.1,0,0.1,0,0.2,0c0,0,0,0,0,0c3.1,0.4,6.2,0.8,9.3,1.2c0,0,0,0,0,0c1.9,0.3,3.9,0.6,5.8,0.9
		c0.4,0.1,0.7,0.1,1.1,0.2c0.5,0.1,1,0.2,1.5,0.3c0-2.3-0.8-5-1.4-6.7c-0.8-2.3-1.7-2.2-1.7-4.5c0,0-7.6-5.6-4-17.2
		c0,0-2.5,0.6-2.8,5.4c0,0-1.2-1.1-0.1-3.6c1.1-2.5,1.7-4.3,4.8-4c0,0,3.7-5.9,15.6-5.8c11.9,0.1,22.1,2.6,25,3.4
		c2.9,0.8,10.8,4.4,12.4,7c1.6,2.5,3.4,3.6,3.6,3.2c0.2-0.4,2.9-4,5-4.7c0,0,1.9-0.2,1.5,2.2c-0.4,2.4-0.6,4.5-2.9,5.4
		c-2.4,0.9-1.6,2.6-1.8,3.5c-0.2,0.9,1.7,2.9,2.3,2.9c0.6,0,2.6-0.3,2.3,1.7c-0.1,0.9-0.3,2-0.7,2.8c0.2,0,0.4-0.1,0.6-0.1
		c1.5-0.4,3.1-0.7,4.6-1.1c0,0,0,0,0,0c0.1,0,0.2-0.1,0.3-0.1c0.2,0,0.4-0.1,0.6-0.1c1.1-5.2,0.5-10.2-0.1-11.7
		c1.5,3.3,2.2,7.2,1.7,11.4c0.9-0.2,1.8-0.4,2.8-0.6c-0.6-0.2-1.2-0.4-1.7-0.8l4.8-2.4l5.2-2.6l-5.4,2.1l-5.1,2
		c0.5-2.6,2.2-4.8,4.8-6c2.8-1.2,5.9-0.8,8.2,0.8c-0.3,2.2-1.4,4.2-3.2,5.6c0.5-0.1,0.9-0.2,1.4-0.2c0,0,0,0-0.1,0.1
		c2.2-0.3,4.3-0.6,6.4-0.9c0,0,0,0,0-0.1c0,0,0,0,0,0v0c0,0,0,0,0,0V61.3c0-0.7,0-1.5-0.2-2.2C136.8,59.1,136.9,59,136.9,59z
		 M26,81.7l-5.4-2.1l5.2,2.6l4.8,2.4c-2.3,1.3-5.1,1.6-7.7,0.4c-2.8-1.2-4.6-3.8-4.9-6.6c2.3-1.6,5.4-2,8.2-0.8
		c2.6,1.1,4.3,3.4,4.8,6L26,81.7z M31.8,76.6l-3.5-3.8l-3.8-4.1l3.4,4.4l3.2,4.1c-2.5,0.2-5.1-0.8-6.8-2.8c-1.9-2.2-2.3-5.2-1.5-7.8
		c2.7-0.4,5.5,0.5,7.4,2.8C31.9,71.5,32.4,74.2,31.8,76.6z M38.9,65.2c-0.7,2.8-2.7,4.9-5.2,5.9l1.1-5.4l1.2-5.8l-1.7,5.6l-1.6,5.3
		c-1.7-2-2.5-4.9-1.8-7.6c0.8-3,3-5.2,5.8-6.1C38.7,59.2,39.7,62.2,38.9,65.2z M116.2,65.5l-1.7-5.6l1.2,5.8l1.1,5.4
		c-2.5-1-4.5-3.1-5.2-5.9c-0.8-3,0.2-6.1,2.2-8.1c2.8,0.8,5,3.1,5.8,6.1c0.7,2.8,0,5.6-1.8,7.6L116.2,65.5z M126.3,74.4
		c-1.7,2.1-4.3,3-6.8,2.8l3.2-4.1l3.4-4.4l-3.8,4.1l-3.5,3.8c-0.6-2.4-0.1-5.1,1.7-7.2c1.9-2.2,4.7-3.2,7.4-2.8
		C128.6,69.2,128.2,72.2,126.3,74.4z"/>
	<path fill="#E1F3F8" d="M104.2,89.3c0,0-0.5,0.2-1.4,0.5c0.5-0.1,1.1-0.3,1.6-0.4C104.3,89.4,104.3,89.3,104.2,89.3z"/>
	<path fill="#A7C53C" d="M137.6,97.7C137.6,97.7,137.6,97.7,137.6,97.7c-0.1,0.1-0.3,0.3-0.3,0.4C137.4,98,137.5,97.8,137.6,97.7z"
		/>
	<path fill="#A7C53C" d="M117.7,100.1c-0.1,0.1-0.1,0.2-0.2,0.3l3.5-0.3L117.7,100.1z"/>
	<path fill="#A7C53C" d="M82.3,99.6c0,0,0-1.2,0.1-2.5c-1.4,1.5-2.7,3-3.9,4.6c1.7,0.4,3.3,0.8,5,1.3c0.2-0.2,0.4-0.5,0.5-0.7
		c-0.1-0.1-0.2-0.2-0.2-0.4l-0.4-1.3c0,0.1-0.2,1.3-0.5,1.3c0,0,0,0,0,0c0,0,0,0,0,0C82.6,101.9,82.3,99.6,82.3,99.6z"/>
	<path fill="#A7C53C" d="M127.1,87.4c1.2,0.3,2.4,0.9,3.3,1.7c-0.7,2.5-2.6,4.7-5.3,5.5c-1.3,0.4-2.7,0.4-4,0.1
		c-0.6,0.9-1.3,1.8-1.8,2.7c1.6,0.3,2.9,1.3,3.7,2.6c-1,1.8-2.9,3-5.1,3.1c-0.6,0-1.3-0.1-1.8-0.2c-1.1,2.1-2.1,4.2-3,6.3l7.8-3.1
		c3.8-8.6,9.2-16.5,16-23.1c-2.1,0.3-4.3,0.5-6.4,0.9C129.4,85,128.3,86.2,127.1,87.4z"/>
	<path fill="#A7C53C" d="M124.2,90.9c-0.1,0.2-0.3,0.4-0.4,0.5l4.2-1.5L124.2,90.9z"/>
	<path fill="#A7C53C" d="M137,90.3c-2.7,3.7-5.2,7.7-7.2,11.8C133.6,99.5,136.5,94.8,137,90.3z"/>
	<path fill="#A7C53C" d="M86.4,98.8c0-0.1,0-0.3,0-0.5c0-0.2,0-0.6,0-0.9c0-0.7,0-1.5,0-2.3c-0.2,0.1-0.5,0.2-0.7,0.3v0
		c-0.2,0.7-0.2,1.5-0.1,2.3c0.1,0.6,0.3,1.3,0.5,1.9c0.1-0.2,0.3-0.3,0.4-0.5C86.5,99,86.4,98.9,86.4,98.8z"/>
	<path fill="#A7C53C" d="M117.8,90.8c1.5-1.8,3.2-3.5,4.9-5.2c-0.4-0.1-0.7-0.2-1.1-0.3c-0.9,0.2-1.8,0.4-2.8,0.6
		c0,0.4-0.1,0.8-0.2,1.3C118.5,88.5,118.2,89.7,117.8,90.8z"/>
	<path fill="#A7C53C" d="M104.5,100.7c8.1-2,11.5-8.4,12.8-14.4c-0.2,0-0.4,0.1-0.6,0.1c-0.1,0-0.2,0.1-0.3,0.1
		C111.8,90.7,107.8,95.5,104.5,100.7z"/>
	<path fill="#A7C53C" d="M111.8,87.5c-0.2,0-0.4,0.1-0.6,0.1c0,0,0,0,0,0C111.4,87.6,111.6,87.5,111.8,87.5z"/>
	<path fill="#A7C53C" d="M102.3,108.7C102.3,108.7,102.3,108.7,102.3,108.7c1.2,0.4,2.4,0.8,3.6,1.2c1.3-3.1,2.8-6,4.6-8.8
		c-1.8,1.2-3.9,2.1-6,2.3c-0.2-0.2-0.4-1-0.7-1.6c-1.2,2-2.4,4.1-3.4,6.3c0.2,0.1,0.3,0.1,0.5,0.2
		C101.3,108.4,101.8,108.5,102.3,108.7z"/>
	<path fill="#A7C53C" d="M89.3,94.1c-0.1,0.7-0.2,1.3-0.1,1.9c0.8-0.9,1.7-1.8,2.6-2.7C90.9,93.5,90.1,93.8,89.3,94.1z"/>
	<path fill="#A7C53C" d="M89.1,104.6c0,0,0.1,0,0.1,0c0,0,0,0,0,0c1,0.3,2,0.6,3,0.9c0.7,0.2,1.4,0.4,2.1,0.6
		c3.4-6.1,7.7-11.7,12.7-16.6c-0.8,0.1-1.9,0.1-2.7-0.2c-0.5,0.1-1.1,0.3-1.6,0.4c-0.4,0.1-0.9,0.3-1.4,0.4
		c-0.2,0.1-0.5,0.1-0.7,0.2C96.3,94.7,92.4,99.4,89.1,104.6z"/>
	<path fill="#E1F3F8" d="M137.1,82.9L137.1,82.9C137.1,82.9,137.1,82.9,137.1,82.9c-0.1,0-0.1,0-0.1,0.1C137,83,137.1,83,137.1,82.9
		L137.1,82.9z"/>
	<path opacity="0.1" d="M137.1,82.9L137.1,82.9C137.1,82.9,137.1,82.9,137.1,82.9c-0.1,0-0.1,0-0.1,0.1C137,83,137.1,83,137.1,82.9
		L137.1,82.9z"/>
	<path fill="#A7C53C" d="M121,106.1l6.2-2.5c0.9-0.4,1.8-0.9,2.6-1.5c2-4.2,4.4-8.1,7.2-11.8c0,0-0.1-0.1,0-0.1c0.1-0.4,0-0.9,0-1.3
		V83c0,0,0,0-0.1,0C130.2,89.6,124.8,97.5,121,106.1z"/>
	<path opacity="0.1" d="M121,106.1l6.2-2.5c0.9-0.4,1.8-0.9,2.6-1.5c2-4.2,4.4-8.1,7.2-11.8c0,0-0.1-0.1,0-0.1c0.1-0.4,0-0.9,0-1.3
		V83c0,0,0,0-0.1,0C130.2,89.6,124.8,97.5,121,106.1z"/>
	<path fill="#E1F3F8" d="M130.6,83.9C130.6,83.9,130.6,83.8,130.6,83.9c-0.4,0-0.9,0.1-1.4,0.2c0,0,0,0-0.1,0
		C129.6,84,130.1,84,130.6,83.9z"/>
	<path opacity="0.1" d="M130.6,83.9C130.6,83.9,130.6,83.8,130.6,83.9c-0.4,0-0.9,0.1-1.4,0.2c0,0,0,0-0.1,0
		C129.6,84,130.1,84,130.6,83.9z"/>
	<path fill="#A7C53C" d="M127.5,85.1c-1.6,0.7-3.2,0.9-4.8,0.6c-1.7,1.6-3.4,3.4-4.9,5.2c-1.5,4.4-4.2,8.1-7.4,10.3
		c-1.7,2.8-3.2,5.8-4.6,8.8c1,0.4,2,0.7,3,1.1l4.3-1.8c0.9-2.2,1.9-4.3,3-6.3c-1.3-0.4-2.4-1.1-3.1-2.1l3.9-0.3l0.6,0
		c0.1-0.1,0.1-0.2,0.2-0.3l-0.8,0L113,100c1.1-1.6,2.8-2.6,4.8-2.7c0.5,0,1,0,1.5,0.1c0.6-0.9,1.2-1.8,1.8-2.7
		c-1.1-0.3-2.1-0.7-3-1.4l4.7-1.7l0.8-0.3c0.1-0.2,0.3-0.4,0.4-0.5l-1.4,0.4l-4.9,1.2c0.8-2.3,2.6-4.2,5.1-5
		c1.4-0.4,2.8-0.4,4.2-0.1c1.1-1.2,2.2-2.4,3.4-3.5c-0.5,0.1-0.9,0.1-1.4,0.2C128.7,84.5,128.1,84.8,127.5,85.1z"/>
	<path opacity="0.1" d="M127.5,85.1c-1.6,0.7-3.2,0.9-4.8,0.6c-1.7,1.6-3.4,3.4-4.9,5.2c-1.5,4.4-4.2,8.1-7.4,10.3
		c-1.7,2.8-3.2,5.8-4.6,8.8c1,0.4,2,0.7,3,1.1l4.3-1.8c0.9-2.2,1.9-4.3,3-6.3c-1.3-0.4-2.4-1.1-3.1-2.1l3.9-0.3l0.6,0
		c0.1-0.1,0.1-0.2,0.2-0.3l-0.8,0L113,100c1.1-1.6,2.8-2.6,4.8-2.7c0.5,0,1,0,1.5,0.1c0.6-0.9,1.2-1.8,1.8-2.7
		c-1.1-0.3-2.1-0.7-3-1.4l4.7-1.7l0.8-0.3c0.1-0.2,0.3-0.4,0.4-0.5l-1.4,0.4l-4.9,1.2c0.8-2.3,2.6-4.2,5.1-5
		c1.4-0.4,2.8-0.4,4.2-0.1c1.1-1.2,2.2-2.4,3.4-3.5c-0.5,0.1-0.9,0.1-1.4,0.2C128.7,84.5,128.1,84.8,127.5,85.1z"/>
	<path fill="#E1F3F8" d="M116.4,86.4c-1.6,0.3-3.1,0.7-4.6,1.1C113.3,87.1,114.8,86.8,116.4,86.4C116.4,86.5,116.4,86.4,116.4,86.4z
		"/>
	<path opacity="0.1" d="M116.4,86.4c-1.6,0.3-3.1,0.7-4.6,1.1C113.3,87.1,114.8,86.8,116.4,86.4C116.4,86.5,116.4,86.4,116.4,86.4z"
		/>
	<path fill="#A7C53C" d="M108.3,89.4c0,0-0.5,0.1-1.2,0.2c-5,4.9-9.3,10.5-12.7,16.6c0.2,0.1,0.4,0.1,0.6,0.2
		c1.1,0.4,2.3,0.7,3.4,1.1c0.7,0.2,1.3,0.4,2,0.6c1-2.1,2.2-4.2,3.4-6.3c-0.1-0.4-0.3-0.8-0.4-0.9c0.4-0.1,0.7-0.2,1.1-0.3
		c3.3-5.2,7.3-10,11.9-14.2c-1.5,0.3-3.1,0.7-4.6,1c-0.2,0-0.4,0.1-0.6,0.1C110.7,88.7,109.9,89.5,108.3,89.4z"/>
	<path opacity="0.1" d="M108.3,89.4c0,0-0.5,0.1-1.2,0.2c-5,4.9-9.3,10.5-12.7,16.6c0.2,0.1,0.4,0.1,0.6,0.2
		c1.1,0.4,2.3,0.7,3.4,1.1c0.7,0.2,1.3,0.4,2,0.6c1-2.1,2.2-4.2,3.4-6.3c-0.1-0.4-0.3-0.8-0.4-0.9c0.4-0.1,0.7-0.2,1.1-0.3
		c3.3-5.2,7.3-10,11.9-14.2c-1.5,0.3-3.1,0.7-4.6,1c-0.2,0-0.4,0.1-0.6,0.1C110.7,88.7,109.9,89.5,108.3,89.4z"/>
	<path fill="#E1F3F8" d="M91.7,93.3c0.9-0.3,1.9-0.6,2.8-0.9C93.6,92.6,92.7,92.9,91.7,93.3C91.7,93.2,91.7,93.2,91.7,93.3z"/>
	<path opacity="0.1" d="M91.7,93.3c0.9-0.3,1.9-0.6,2.8-0.9C93.6,92.6,92.7,92.9,91.7,93.3C91.7,93.2,91.7,93.2,91.7,93.3z"/>
	<path fill="#A7C53C" d="M84,102.4c-0.2,0.2-0.4,0.5-0.5,0.7c1.9,0.5,3.8,1,5.6,1.6c3.2-5.2,7.1-10,11.6-14.2c0,0,0,0,0,0
		c-0.2,0.1-0.5,0.1-0.7,0.2c-1.4,0.4-2.8,0.8-4.1,1.2c-0.5,0.1-0.9,0.3-1.4,0.4c-0.9,0.3-1.9,0.6-2.8,0.9C90.8,94.1,90,95,89.2,96
		c0,0.2,0.1,0.3,0.1,0.5c0.5,1.5,2.2,3.1,1.5,3.6c-0.7,0.5-2,0.7-2.4,0.1c-0.4-0.6-0.9-1.5-0.9-1.5c-0.2,0.7-0.8,0.7-1,0.4
		c-0.1,0.2-0.3,0.3-0.4,0.5c0,0,0,0,0,0c0.5,1.6,1.1,3,0.7,3.2c-0.3,0.1-0.8,0.2-1.3,0.2C84.9,102.9,84.4,102.8,84,102.4z"/>
	<path opacity="0.1" d="M84,102.4c-0.2,0.2-0.4,0.5-0.5,0.7c1.9,0.5,3.8,1,5.6,1.6c3.2-5.2,7.1-10,11.6-14.2c0,0,0,0,0,0
		c-0.2,0.1-0.5,0.1-0.7,0.2c-1.4,0.4-2.8,0.8-4.1,1.2c-0.5,0.1-0.9,0.3-1.4,0.4c-0.9,0.3-1.9,0.6-2.8,0.9C90.8,94.1,90,95,89.2,96
		c0,0.2,0.1,0.3,0.1,0.5c0.5,1.5,2.2,3.1,1.5,3.6c-0.7,0.5-2,0.7-2.4,0.1c-0.4-0.6-0.9-1.5-0.9-1.5c-0.2,0.7-0.8,0.7-1,0.4
		c-0.1,0.2-0.3,0.3-0.4,0.5c0,0,0,0,0,0c0.5,1.6,1.1,3,0.7,3.2c-0.3,0.1-0.8,0.2-1.3,0.2C84.9,102.9,84.4,102.8,84,102.4z"/>
	<path fill="#E1F3F8" d="M82.4,96.7c-0.1,0-0.2,0.1-0.3,0.1C82.2,96.7,82.3,96.7,82.4,96.7C82.4,96.7,82.4,96.7,82.4,96.7z"/>
	<path opacity="0.1" d="M82.4,96.7c-0.1,0-0.2,0.1-0.3,0.1C82.2,96.7,82.3,96.7,82.4,96.7C82.4,96.7,82.4,96.7,82.4,96.7z"/>
	<path fill="#E1F3F8" d="M74.8,99.9c-0.5,0.2-1,0.4-1.4,0.6c0,0,0,0,0,0C73.8,100.3,74.3,100.1,74.8,99.9z"/>
	<path opacity="0.1" d="M74.8,99.9c-0.5,0.2-1,0.4-1.4,0.6c0,0,0,0,0,0C73.8,100.3,74.3,100.1,74.8,99.9z"/>
	<path fill="#A7C53C" d="M82.4,96.7c-0.1,0-0.2,0.1-0.3,0.1c-0.9,0.4-1.8,0.7-2.6,1.1c-0.8,0.3-1.5,0.6-2.3,0.9
		c-0.8,0.4-1.6,0.7-2.4,1.1c-0.5,0.2-1,0.4-1.4,0.6c1,0.2,1.9,0.5,2.9,0.7c0.5,0.1,1.1,0.3,1.6,0.4c0.1,0,0.2,0,0.2,0.1c0,0,0,0,0,0
		c0.1,0,0.3,0.1,0.4,0.1c1.2-1.6,2.5-3.1,3.9-4.6C82.4,97,82.4,96.8,82.4,96.7z"/>
	<path opacity="0.1" d="M82.4,96.7c-0.1,0-0.2,0.1-0.3,0.1c-0.9,0.4-1.8,0.7-2.6,1.1c-0.8,0.3-1.5,0.6-2.3,0.9
		c-0.8,0.4-1.6,0.7-2.4,1.1c-0.5,0.2-1,0.4-1.4,0.6c1,0.2,1.9,0.5,2.9,0.7c0.5,0.1,1.1,0.3,1.6,0.4c0.1,0,0.2,0,0.2,0.1c0,0,0,0,0,0
		c0.1,0,0.3,0.1,0.4,0.1c1.2-1.6,2.5-3.1,3.9-4.6C82.4,97,82.4,96.8,82.4,96.7z"/>
	<path fill="#8CC640" d="M32.5,103.2c-2.2-0.1-4.1-1.3-5.1-3.1c0.8-1.2,2.1-2.2,3.5-2.6c-0.8-0.9-1.6-1.8-2.4-2.6
		c-1,0.1-2.1,0.1-3.2-0.3c-1.3-0.4-2.4-1.1-3.3-2c-1.4-0.1-2.8-0.2-4.1-0.3c3.9,4.1,7.5,8.5,10.7,13.1l12.1,4.9
		c-1.7-2.7-3.6-5.3-5.5-7.8C34.3,103,33.4,103.2,32.5,103.2z"/>
	<path fill="#8CC640" d="M33.4,100.5c-0.1-0.1-0.2-0.2-0.3-0.4l-3.7,0.1L33.4,100.5z"/>
	<path fill="#8CC640" d="M95,106.4c-0.2-0.1-0.4-0.1-0.6-0.2c-0.7-0.2-1.4-0.4-2.1-0.6C93.2,105.8,94.1,106.1,95,106.4z"/>
	<path fill="#8CC640" d="M102.3,108.7c1.2,1.2,2.3,2.4,3.4,3.6l3.2-1.3c-1-0.4-2-0.7-3-1.1C104.7,109.5,103.5,109.1,102.3,108.7z"/>
	<path fill="#8CC640" d="M45.8,95.3c-3.1-0.5-6.2-0.9-9.3-1.2c1.5,1.5,3,3,4.4,4.5c1.7,1.1,3.7,1.9,6.2,2.4
		c-0.4,0.3-0.7,2.2-1.1,2.5c-0.4,0-0.7-0.1-1-0.2c3.2,3.9,6.2,8.1,8.8,12.5l11.5,4.6c0.1,0,0.2,0.1,0.3,0.1
		C60.3,111.2,53.7,102.6,45.8,95.3z"/>
	<path fill="#8CC640" d="M89.3,104.7c0,0-0.1,0-0.1,0c-1.9-0.5-3.7-1.1-5.6-1.6c-1.7-0.4-3.3-0.9-5-1.3c-0.1,0-0.3-0.1-0.4-0.1
		c5.3,4.9,10,10.3,14.1,16.1l6.6-2.7C95.9,111.4,92.7,107.9,89.3,104.7z"/>
	<path fill="#8CC640" d="M100.3,108.1c-0.6-0.2-1.3-0.4-2-0.6c0.8,0.3,1.7,0.5,2.5,0.8C100.7,108.2,100.5,108.1,100.3,108.1z"/>
	<path fill="#8CC640" d="M66.5,99c-0.2,0-0.3-0.1-0.5-0.1c-1.4-0.3-2.8-0.6-4.1-0.8c0.2,0.6,0.5,1.1,0.8,1.5c0,0-0.3,0.5-1,0.5
		c-0.4,0-0.8-0.1-1.4-0.6c0,0,0,0.8-0.3,0.8c0,0-0.1,0-0.2-0.1c-0.4-0.3-1.3-1.1-1.1-2.8c0,0,0,0,0,0c-0.8-0.1-1.5-0.3-2.3-0.4
		c7.9,7.3,14.6,15.7,20,25c0.8,0,1.5-0.1,2.2-0.1c2.2-0.2,4.2-0.6,6-1.1C79.6,112.8,73.5,105.4,66.5,99z"/>
	<path fill="#E1F3F8" d="M17.7,92.4c-1.2-0.1-1.7-0.1-3.7-0.1c0,0,0,0,0,0c0,0,0.2,0,0.2,0C15.4,92.3,16.5,92.3,17.7,92.4
		C17.7,92.4,17.7,92.4,17.7,92.4z"/>
	<path opacity="0.15" d="M17.7,92.4c-1.2-0.1-1.7-0.1-3.7-0.1c0,0,0,0,0,0c0,0,0.2,0,0.2,0C15.4,92.3,16.5,92.3,17.7,92.4
		C17.7,92.4,17.7,92.4,17.7,92.4z"/>
	<path fill="#8CC640" d="M14.4,92.2c1.3,4.8,5.1,9.6,9.4,11.4l4.7,1.9c-3.2-4.6-6.8-9-10.7-13.1C16.7,92.3,15.5,92.3,14.4,92.2z"/>
	<path opacity="0.15" d="M14.4,92.2c1.3,4.8,5.1,9.6,9.4,11.4l4.7,1.9c-3.2-4.6-6.8-9-10.7-13.1C16.7,92.3,15.5,92.3,14.4,92.2z"/>
	<path fill="#E1F3F8" d="M33.8,93.7C33.8,93.7,33.8,93.7,33.8,93.7c-0.6-0.1-1.1-0.1-1.7-0.2c0,0,0,0,0,0
		C32.7,93.6,33.3,93.7,33.8,93.7z"/>
	<path opacity="0.15" d="M33.8,93.7C33.8,93.7,33.8,93.7,33.8,93.7c-0.6-0.1-1.1-0.1-1.7-0.2c0,0,0,0,0,0
		C32.7,93.6,33.3,93.7,33.8,93.7z"/>
	<path fill="#E1F3F8" d="M36.5,94C36.5,94,36.5,94,36.5,94c-0.1,0-0.2,0-0.2,0c0,0,0,0,0,0C36.4,94,36.5,94,36.5,94z"/>
	<path opacity="0.15" d="M36.5,94C36.5,94,36.5,94,36.5,94c-0.1,0-0.2,0-0.2,0c0,0,0,0,0,0C36.4,94,36.5,94,36.5,94z"/>
	<path fill="#8CC640" d="M40.9,98.6C39.5,97,38,95.5,36.5,94c-0.1,0-0.2,0-0.2,0C37.5,95.8,39,97.3,40.9,98.6z"/>
	<path opacity="0.15" d="M40.9,98.6C39.5,97,38,95.5,36.5,94c-0.1,0-0.2,0-0.2,0C37.5,95.8,39,97.3,40.9,98.6z"/>
	<path fill="#8CC640" d="M33.8,93.7c-0.6-0.1-1.1-0.1-1.7-0.2c-1.1,0.8-2.3,1.3-3.6,1.4c0.8,0.9,1.6,1.7,2.4,2.6
		c0.5-0.1,1.1-0.2,1.7-0.2c2,0.1,3.8,1.1,4.8,2.7l-3.9,0.1l-0.4,0c0.1,0.1,0.2,0.2,0.3,0.4l0.1,0l3.9,0.3c-0.6,0.8-1.4,1.4-2.3,1.8
		c2,2.5,3.8,5.1,5.5,7.8l13.1,5.3c-2.6-4.4-5.6-8.5-8.8-12.5C40.4,102.3,36.3,98.7,33.8,93.7z"/>
	<path opacity="0.15" d="M33.8,93.7c-0.6-0.1-1.1-0.1-1.7-0.2c-1.1,0.8-2.3,1.3-3.6,1.4c0.8,0.9,1.6,1.7,2.4,2.6
		c0.5-0.1,1.1-0.2,1.7-0.2c2,0.1,3.8,1.1,4.8,2.7l-3.9,0.1l-0.4,0c0.1,0.1,0.2,0.2,0.3,0.4l0.1,0l3.9,0.3c-0.6,0.8-1.4,1.4-2.3,1.8
		c2,2.5,3.8,5.1,5.5,7.8l13.1,5.3c-2.6-4.4-5.6-8.5-8.8-12.5C40.4,102.3,36.3,98.7,33.8,93.7z"/>
	<path fill="#E1F3F8" d="M54.2,96.6C54.2,96.6,54.2,96.6,54.2,96.6c-0.5-0.1-1-0.2-1.5-0.3C53.2,96.4,53.7,96.5,54.2,96.6
		C54.2,96.6,54.2,96.6,54.2,96.6z"/>
	<path opacity="0.15" d="M54.2,96.6C54.2,96.6,54.2,96.6,54.2,96.6c-0.5-0.1-1-0.2-1.5-0.3C53.2,96.4,53.7,96.5,54.2,96.6
		C54.2,96.6,54.2,96.6,54.2,96.6z"/>
	<path fill="#E1F3F8" d="M45.8,95.2C45.8,95.3,45.8,95.3,45.8,95.2c1.9,0.3,3.9,0.6,5.8,0.9C49.7,95.8,47.7,95.5,45.8,95.2z"/>
	<path opacity="0.15" d="M45.8,95.2C45.8,95.3,45.8,95.3,45.8,95.2c1.9,0.3,3.9,0.6,5.8,0.9C49.7,95.8,47.7,95.5,45.8,95.2z"/>
	<polygon fill="#E1F3F8" points="56.4,97 56.4,97 56.4,97 	"/>
	<polygon opacity="0.15" points="56.4,97 56.4,97 56.4,97 	"/>
	<path fill="#8CC640" d="M56.4,97C56.4,97,56.4,97,56.4,97c0,1.6,0.2,3.6,1.3,4.8c0,0-0.3,0.5-1,0.5c-0.4,0-0.8-0.1-1.4-0.6
		c0,0,0,0.8-0.3,0.8c0,0-0.1,0-0.2-0.1c-0.5-0.4-1.8-1.5-1-3.9C54,98,54,97.3,54,96.6c0,0,0,0,0,0c0-0.1-0.9-0.2-1.4-0.3
		c-0.4-0.1-0.7-0.1-1-0.2c-1.9-0.3-3.9-0.6-5.8-0.9c7.8,7.4,14.5,15.9,19.8,25.2c2.7,1,6.2,1.6,9.9,1.6c0.3,0,0.6,0,0.9,0
		C71,112.8,64.3,104.3,56.4,97z"/>
	<path opacity="0.15" d="M56.4,97C56.4,97,56.4,97,56.4,97c0,1.6,0.2,3.6,1.3,4.8c0,0-0.3,0.5-1,0.5c-0.4,0-0.8-0.1-1.4-0.6
		c0,0,0,0.8-0.3,0.8c0,0-0.1,0-0.2-0.1c-0.5-0.4-1.8-1.5-1-3.9C54,98,54,97.3,54,96.6c0,0,0,0,0,0c0-0.1-0.9-0.2-1.4-0.3
		c-0.4-0.1-0.7-0.1-1-0.2c-1.9-0.3-3.9-0.6-5.8-0.9c7.8,7.4,14.5,15.9,19.8,25.2c2.7,1,6.2,1.6,9.9,1.6c0.3,0,0.6,0,0.9,0
		C71,112.8,64.3,104.3,56.4,97z"/>
	<path fill="#E1F3F8" d="M72.1,100.2c0.4,0.1,0.8,0.2,1.3,0.3c0,0,0,0,0,0C72.9,100.4,72.5,100.3,72.1,100.2z"/>
	<path opacity="0.15" d="M72.1,100.2c0.4,0.1,0.8,0.2,1.3,0.3c0,0,0,0,0,0C72.9,100.4,72.5,100.3,72.1,100.2z"/>
	<path fill="#E1F3F8" d="M66.5,99C66.5,99,66.5,99,66.5,99c1.3,0.3,2.5,0.5,3.7,0.8C69,99.5,67.7,99.2,66.5,99z"/>
	<path opacity="0.15" d="M66.5,99C66.5,99,66.5,99,66.5,99c1.3,0.3,2.5,0.5,3.7,0.8C69,99.5,67.7,99.2,66.5,99z"/>
	<polygon fill="#E1F3F8" points="73.4,100.5 73.4,100.5 73.4,100.5 73.4,100.5 	"/>
	<polygon opacity="0.1" points="73.4,100.5 73.4,100.5 73.4,100.5 73.4,100.5 	"/>
	<polygon opacity="0.15" points="73.4,100.5 73.4,100.5 73.4,100.5 73.4,100.5 	"/>
	<path fill="#A7C53C" d="M73.4,100.5c1,0.2,1.9,0.5,2.9,0.7C75.3,101,74.3,100.8,73.4,100.5C73.4,100.5,73.4,100.5,73.4,100.5z"/>
	<path opacity="0.1" d="M73.4,100.5c1,0.2,1.9,0.5,2.9,0.7C75.3,101,74.3,100.8,73.4,100.5C73.4,100.5,73.4,100.5,73.4,100.5z"/>
	<path opacity="0.15" d="M73.4,100.5c1,0.2,1.9,0.5,2.9,0.7C75.3,101,74.3,100.8,73.4,100.5C73.4,100.5,73.4,100.5,73.4,100.5z"/>
	<path fill="#A7C53C" d="M77.9,101.6c0.1,0,0.2,0,0.3,0.1c0,0,0,0,0,0C78,101.6,77.9,101.6,77.9,101.6z"/>
	<path opacity="0.1" d="M77.9,101.6c0.1,0,0.2,0,0.3,0.1c0,0,0,0,0,0C78,101.6,77.9,101.6,77.9,101.6z"/>
	<path opacity="0.15" d="M77.9,101.6c0.1,0,0.2,0,0.3,0.1c0,0,0,0,0,0C78,101.6,77.9,101.6,77.9,101.6z"/>
	<path fill="#8CC640" d="M78.1,101.7c-0.1,0-0.2,0-0.3-0.1c-0.5-0.1-1.1-0.3-1.6-0.4c-1-0.2-1.9-0.5-2.9-0.7c0,0,0,0,0,0
		c-0.4-0.1-0.8-0.2-1.3-0.3c-0.6-0.1-1.3-0.3-1.9-0.4c-1.2-0.3-2.5-0.6-3.7-0.8c7,6.4,13.1,13.8,18.1,21.8c0.4-0.1,0.8-0.3,1.2-0.4
		l6.5-2.6C88.1,111.9,83.4,106.5,78.1,101.7z"/>
	<path opacity="0.15" d="M78.1,101.7c-0.1,0-0.2,0-0.3-0.1c-0.5-0.1-1.1-0.3-1.6-0.4c-1-0.2-1.9-0.5-2.9-0.7c0,0,0,0,0,0
		c-0.4-0.1-0.8-0.2-1.3-0.3c-0.6-0.1-1.3-0.3-1.9-0.4c-1.2-0.3-2.5-0.6-3.7-0.8c7,6.4,13.1,13.8,18.1,21.8c0.4-0.1,0.8-0.3,1.2-0.4
		l6.5-2.6C88.1,111.9,83.4,106.5,78.1,101.7z"/>
	<path fill="#A7C53C" d="M100.8,108.2c0.5,0.2,1,0.3,1.5,0.5c0,0,0,0,0,0C101.8,108.5,101.3,108.4,100.8,108.2z"/>
	<path opacity="0.15" d="M100.8,108.2c0.5,0.2,1,0.3,1.5,0.5c0,0,0,0,0,0C101.8,108.5,101.3,108.4,100.8,108.2z"/>
	<path fill="#A7C53C" d="M89.3,104.7c1,0.3,2,0.6,3,0.9C91.3,105.3,90.3,104.9,89.3,104.7C89.3,104.7,89.3,104.7,89.3,104.7z"/>
	<path opacity="0.15" d="M89.3,104.7c1,0.3,2,0.6,3,0.9C91.3,105.3,90.3,104.9,89.3,104.7C89.3,104.7,89.3,104.7,89.3,104.7z"/>
	<path fill="#8CC640" d="M100.8,108.2c-0.8-0.3-1.6-0.5-2.5-0.8c-1.1-0.4-2.3-0.7-3.4-1.1c-0.9-0.3-1.8-0.5-2.7-0.8
		c-1-0.3-2-0.6-3-0.9c3.4,3.3,6.6,6.7,9.6,10.4l6.9-2.8c-1.1-1.2-2.2-2.4-3.4-3.6C101.8,108.6,101.3,108.4,100.8,108.2z"/>
	<path opacity="0.15" d="M100.8,108.2c-0.8-0.3-1.6-0.5-2.5-0.8c-1.1-0.4-2.3-0.7-3.4-1.1c-0.9-0.3-1.8-0.5-2.7-0.8
		c-1-0.3-2-0.6-3-0.9c3.4,3.3,6.6,6.7,9.6,10.4l6.9-2.8c-1.1-1.2-2.2-2.4-3.4-3.6C101.8,108.6,101.3,108.4,100.8,108.2z"/>
	<path fill="#00834F" d="M128.3,43.9L86.9,27.2c-3-1.2-7.1-1.9-11.4-1.9c-4.3,0-8.3,0.7-11.4,1.9L22.7,43.9
		C16.3,46.6,11,54.4,11,61.3v27.6c0,4.6,2,9.1,5.4,13.1h0.1c0,0,0.1,0.1,0.2,0.1c0,0,0,0,0.1,0c1.7,1.8,3.8,3.3,5.9,4.1L64.1,123
		c3,1.2,7.1,1.9,11.4,1.9c4.3,0,8.3-0.7,11.4-1.9l41.4-16.7c3.6-1.5,6.8-4.5,9-8.2c0,0,0,0,0,0c0.1-0.1,0.2-0.3,0.3-0.4
		c0.1-0.1,0-0.2,0.1-0.4c1.4-2.7,2.3-5.6,2.3-8.4V61.3C140,54.4,134.7,46.6,128.3,43.9z M23.8,46.5l5.2-2.1l36.2-14.6
		c2.7-1.1,6.4-1.7,10.3-1.7c3.9,0,7.6,0.6,10.3,1.7l34.9,14l6.5,2.6c2.5,1,4.9,3.5,6.7,5.5H17.1C18.9,52,21.3,47.6,23.8,46.5z
		 M137,82.9L137,82.9v6c0,0.4,0,0.9,0,1.3c-0.5,4.5-3.4,9.2-7.2,11.9c-0.8,0.6-1.7,1.1-2.6,1.5l-6.2,2.5l-7.8,3.1l-4.3,1.8l-3.2,1.3
		l-6.9,2.8l-6.6,2.7l-6.5,2.6c-0.4,0.1-0.8,0.3-1.2,0.4c-1.7,0.6-3.8,1-6,1.1c-0.7,0.1-1.5,0.1-2.2,0.1c-0.3,0-0.6,0-0.9,0
		c-3.8,0-7.3-0.6-9.9-1.6c-0.1,0-0.2-0.1-0.3-0.1l-11.5-4.6l-13.1-5.3l-12.1-4.9l-4.7-1.9c-4.4-1.8-8.2-6.5-9.4-11.4c0,0,0.1,0,0,0
		C14.1,91.1,14,90,14,88.9V61.3c0-0.7,0-1.5,0.2-2.2c0,0,0-0.1,0-0.1c0.1-0.7,0.3-1.6,0.6-2.3c0.2-0.5,0.4-1.7,0.6-1.7h120.4
		c0.2,0,0.4,1.2,0.6,1.7c0.2,0.7,0.5,1.5,0.6,2.2c0,0-0.1,0.1-0.1,0.2c0.1,0.7,0.2,1.5,0.2,2.3V82.9z"/>
	<path fill="#6C903D" d="M104.5,100.7c-0.4,0.1-0.7,0.2-1.1,0.3c0.1,0.1,0.3,0.5,0.4,0.9c0.2,0.6,0.4,1.4,0.7,1.6
		c2.1-0.3,4.1-1.1,6-2.3c3.3-2.2,6-5.8,7.4-10.3c0.4-1.1,0.7-2.3,0.9-3.6c0.1-0.4,0.1-0.9,0.2-1.3c0.5-4.1-0.2-8.1-1.7-11.4
		c0.6,1.5,1.2,6.5,0.1,11.7C116,92.3,112.6,98.7,104.5,100.7z"/>
	<path fill="#6C903D" d="M125.2,94.7c2.7-0.8,4.6-3,5.3-5.5c-0.9-0.8-2.1-1.4-3.3-1.7c-1.3-0.3-2.8-0.3-4.2,0.1
		c-2.5,0.8-4.3,2.7-5.1,5l4.9-1.2l1.4-0.4l3.8-1l-4.2,1.5l-0.8,0.3l-4.7,1.7c0.9,0.7,1.9,1.2,3,1.4
		C122.5,95.1,123.8,95.1,125.2,94.7z"/>
	<path fill="#6C903D" d="M123.1,100.1c-0.9-1.3-2.2-2.3-3.7-2.6c-0.5-0.1-1-0.2-1.5-0.1c-2,0.1-3.8,1.1-4.8,2.7l3.9,0.1l0.8,0
		l3.3,0.1l-3.5,0.3l-0.6,0l-3.9,0.3c0.8,1,1.9,1.8,3.1,2.1c0.6,0.2,1.2,0.3,1.8,0.2C120.2,103.1,122.1,101.9,123.1,100.1z"/>
	<path fill="#6C903D" d="M127.5,85.1c0.6-0.3,1.1-0.6,1.6-1c0,0,0,0,0.1,0c1.8-1.4,2.9-3.4,3.2-5.6c-2.3-1.6-5.4-2-8.2-0.8
		c-2.6,1.1-4.3,3.4-4.8,6l5.1-2l5.4-2.1l-5.2,2.6l-4.8,2.4c0.5,0.3,1.1,0.6,1.7,0.8c0.4,0.1,0.7,0.2,1.1,0.3
		C124.3,85.9,126,85.8,127.5,85.1z"/>
	<path fill="#6C903D" d="M120.4,69.4c-1.7,2.1-2.3,4.8-1.7,7.2l3.5-3.8l3.8-4.1l-3.4,4.4l-3.2,4.1c2.5,0.2,5.1-0.8,6.8-2.8
		c1.9-2.2,2.3-5.2,1.5-7.8C125.1,66.2,122.3,67.2,120.4,69.4z"/>
	<path fill="#6C903D" d="M119.6,63.2c-0.8-3-3-5.2-5.8-6.1c-2,2.1-2.9,5.1-2.2,8.1c0.7,2.8,2.7,4.9,5.2,5.9l-1.1-5.4l-1.2-5.8
		l1.7,5.6l1.6,5.3C119.5,68.8,120.3,65.9,119.6,63.2z"/>
	<path fill="#6C903D" d="M45,103.3c0.3,0.1,0.7,0.1,1,0.2c0.4-0.3,0.7-2.1,1.1-2.5c-2.4-0.5-4.5-1.3-6.2-2.4
		c-1.9-1.2-3.5-2.8-4.6-4.6c0,0,0,0,0,0c-4.7-7.1-3.9-17.1-3-19.4c-1.7,3.6-2.3,8-1.5,12.7c0.4,2.3,1.1,4.5,2.1,6.5c0,0,0,0,0,0
		C36.3,98.7,40.4,102.3,45,103.3z"/>
	<path fill="#6C903D" d="M28.5,95c1.3-0.2,2.6-0.7,3.6-1.4c0,0,0,0,0,0c0.1,0,0.1-0.1,0.2-0.1l-4.7-1.7l-5.1-1.8l5.2,1.3l4.9,1.2
		c-0.8-2.3-2.6-4.2-5.1-5c-2.7-0.8-5.5-0.1-7.5,1.7c0.3,1.3,1,2.5,2,3.5c0.9,0.9,2,1.6,3.3,2C26.4,95,27.5,95.1,28.5,95z"/>
	<path fill="#6C903D" d="M27.4,100.2c1,1.8,2.9,3,5.1,3.1c1,0,1.9-0.2,2.7-0.5c0.9-0.4,1.7-1,2.3-1.8l-3.9-0.3l-0.1,0l-4-0.3
		l3.7-0.1l0.4,0l3.9-0.1c-1.1-1.6-2.8-2.6-4.8-2.7c-0.6,0-1.2,0.1-1.7,0.2C29.5,98,28.2,98.9,27.4,100.2z"/>
	<path fill="#6C903D" d="M26.2,77.7c-2.8-1.2-5.9-0.8-8.2,0.8c0.4,2.8,2.1,5.4,4.9,6.6c2.6,1.1,5.4,0.9,7.7-0.4l-4.8-2.4l-5.2-2.6
		l5.4,2.1l5.1,2C30.5,81.1,28.8,78.9,26.2,77.7z"/>
	<path fill="#6C903D" d="M22.7,66.7c-0.9,2.6-0.4,5.5,1.5,7.8c1.7,2.1,4.3,3,6.8,2.8l-3.2-4.1l-3.4-4.4l3.8,4.1l3.5,3.8
		c0.6-2.4,0.1-5.1-1.7-7.2C28.2,67.2,25.4,66.3,22.7,66.7z"/>
	<path fill="#6C903D" d="M30.9,63.2c-0.7,2.8,0,5.6,1.8,7.6l1.6-5.3l1.7-5.6l-1.2,5.8l-1.1,5.4c2.5-1,4.5-3.1,5.2-5.9
		c0.8-3-0.2-6.1-2.2-8.1C33.9,58,31.7,60.2,30.9,63.2z"/>
	<path fill="#774B47" d="M54,96.6C54,96.6,54,96.6,54,96.6c0,0.7,0,1.3-0.1,1.9c-0.8,2.5,0.4,3.5,0.9,3.9c0.1,0.1,0.1,0.1,0.2,0.1
		c0.3,0,0.3-0.8,0.3-0.8c0,0,0,0,0,0c0.6,0.5,1,0.6,1.4,0.6c0.6,0,0.8-0.5,0.8-0.5c-1.1-1.3-1.5-3.3-1.5-4.8c0,0,0,0,0,0
		c0-1.3,0.4-2.3,0.4-2.3c0-1.8,0.8-4,1.7-5.9c0,0,0.1,0,0.1,0c0.7,2.3,1.5,5.2,0.8,7.3c-0.1,0.4-0.2,1-0.2,1h0c-0.1,2,0.7,2.6,1.1,3
		c0.1,0,0.1,0.2,0.2,0.2c0.3,0.1,0.3-0.7,0.3-0.7c0,0,0,0,0,0c0.6,0.5,1,0.6,1.4,0.6c0.6,0,1-0.5,1-0.5c-0.4-0.4-0.6-1-0.8-1.5
		c-0.8-2.5-0.2-5.6-0.2-5.6c0-1.7,0.6-3.7,1.4-5.5l0,0c2.8,1.7,6.5,2.1,9.7,2.1c1.9,0,3.6-0.2,4.9-0.5c1.7-0.3,2.8-0.6,3-0.7
		c0.5-0.3,0.6,0.2,0.5,2.2C81,92,83,94.3,83,94.3c-0.1,0.4,0,1.4,0,2.3c0,0,0,0,0,0c0,0.2-0.3,0.3-0.3,0.5c-0.1,1.3-0.2,2.5-0.2,2.5
		s0.2,2.2,0.5,2.4c0,0,0,0,0,0c0.3,0.1,0.4-1.1,0.5-1.3c0,0,0,0,0,0l0.4,1.3c0.1,0.2,0.1,0.3,0.2,0.4c0.3,0.4,0.9,0.6,1.5,0.6
		c0.5,0,1.1-0.1,1.3-0.2c0.4-0.1-0.2-1.6-0.7-3.2c0,0,0,0,0,0c-0.2-0.6-0.4-1.3-0.5-1.9c-0.1-0.8,0-1.6,0.1-2.3l0,0
		c0.3-1.2,0.7-2.1,0.7-2.1l0,0c0,0,0,0.8,0,1.9c0,0.7,0,1.6,0,2.3c0,0.3,0,0.7,0,0.9c0,0.2,0,0.4,0,0.5c0,0.1,0,0.2,0.1,0.3
		c0.2,0.4,0.8,0.4,1-0.4c0,0,0.5,0.9,0.9,1.5c0.4,0.6,1.7,0.4,2.4-0.1c0.7-0.5-1-2.2-1.5-3.6c-0.1-0.2-0.1-0.3-0.1-0.5
		c-0.1-0.6,0-1.2,0.1-1.9c0.2-0.9,0.4-2,0.4-3.1c0-2.3,1.4-2.3,1.4-2.3c3.6,2.4,7.7,2.1,10.3,1.5c0.5-0.1,1-0.3,1.4-0.4
		c0.9-0.3,1.4-0.5,1.4-0.5c0.1,0,0.1,0.1,0.2,0.1c0.8,0.3,1.9,0.3,2.7,0.2c0.7-0.1,1.2-0.2,1.2-0.2c1.6,0.1,2.4-0.7,2.9-1.8
		c0,0,0,0,0,0c0.4-0.9,0.5-1.9,0.7-2.8c0.3-2-1.7-1.7-2.3-1.7c-0.6,0-2.5-2.1-2.3-2.9c0.2-0.9-0.6-2.6,1.8-3.5
		c2.4-0.9,2.6-3,2.9-5.4c0.4-2.4-1.5-2.2-1.5-2.2c-2.1,0.7-4.8,4.3-5,4.7c-0.2,0.4-2.1-0.7-3.6-3.2c-1.6-2.6-9.4-6.2-12.4-7
		c-2.9-0.8-13.1-3.3-25-3.4C52.7,60.1,49,66,49,66c-3.1-0.3-3.7,1.5-4.8,4c-1.1,2.6,0.1,3.6,0.1,3.6c0.4-4.8,2.8-5.4,2.8-5.4
		c-3.5,11.6,4,17.2,4,17.2c0,2.4,0.8,2.3,1.6,4.5C53.3,91.6,54,94.3,54,96.6C54,96.6,54,96.6,54,96.6C54,96.6,54,96.6,54,96.6z"/>
	<polygon fill="#774B47" points="77.9,36.9 75.4,31.7 72.8,36.9 67.2,37.7 71.3,41.7 70.3,47.4 75.4,44.7 80.5,47.4 79.5,41.7 
		83.6,37.7 	"/>
	<polygon fill="#774B47" points="59.9,40.6 58.7,38.1 57.5,40.6 54.8,41 56.8,42.9 56.3,45.6 58.7,44.3 61.1,45.6 60.7,42.9 
		62.6,41 	"/>
	<polygon fill="#774B47" points="44.4,44 43.2,41.6 42,44 39.3,44.4 41.3,46.3 40.8,49 43.2,47.7 45.6,49 45.2,46.3 47.1,44.4 	"/>
	<polygon fill="#774B47" points="91.5,40 90.3,37.6 89.1,40 86.4,40.4 88.4,42.3 87.9,45 90.3,43.7 92.7,45 92.3,42.3 94.2,40.4 	
		"/>
	<polygon fill="#774B47" points="107,43.4 105.8,41 104.6,43.4 101.9,43.8 103.9,45.7 103.4,48.4 105.8,47.2 108.2,48.4 107.8,45.7 
		109.7,43.8 	"/>
</g>
</svg>
