<?xml version="1.0" encoding="iso-8859-1"?>
<!-- Generator: Adobe Illustrator 13.0.0, SVG Export Plug-In . SVG Version: 6.00 Build 14948)  -->
<!DOCTYPE svg PUBLIC "-//W3C//DTD SVG 1.1//EN" "http://www.w3.org/Graphics/SVG/1.1/DTD/svg11.dtd">
<svg version="1.1" id="Layer_1" xmlns="http://www.w3.org/2000/svg" xmlns:xlink="http://www.w3.org/1999/xlink" x="0px" y="0px"
	 width="100px" height="100px" viewBox="0 0 100 100" enable-background="new 0 0 100 100" xml:space="preserve">
<g>
	<g>
		<polygon fill-rule="evenodd" clip-rule="evenodd" fill="#272525" points="83.276,16.884 83.438,16.804 83.602,16.798 
			83.76,16.798 83.276,16.722 83.276,16.884 		"/>
		<path fill-rule="evenodd" clip-rule="evenodd" fill="#802124" d="M80.499,27.943l0.079-0.077
			c-0.646-1.314-0.768-3.268-1.135-4.899c-0.256-1.166-1.708-3.091-2.464-3.626c-0.537-0.374-1.036-0.95-1.628-1.329
			c-0.305-0.198-0.807-0.338-1.018-0.509c-0.269-0.217-0.515-0.463-0.804-0.715c-0.396-0.336-1.306-1.027-1.712-1.313
			c-1.136-0.825-0.662-0.818-1.3-1.741l-0.399-0.092l-0.24,0.004c0.369,1.521,0.794,3.51,1.47,4.725
			c0.803,1.439,1.27,2.685,2.194,4.056c1.103,1.623,1.998,1.687,3.471,2.77C78.184,26.063,79.366,27.206,80.499,27.943
			L80.499,27.943z"/>
		<polygon fill-rule="evenodd" clip-rule="evenodd" fill="#272525" points="80.499,27.943 80.746,28.099 80.578,27.866 
			80.499,27.943 		"/>
		<path fill-rule="evenodd" clip-rule="evenodd" fill="#802124" d="M31.447,13.993l-0.481,0.005
			c-0.114,1.554-2.908,3.322-4.028,4.13c-0.814,0.594-1.558,1.123-2.336,1.754c-0.496,0.396-1.659,2.104-1.966,2.191v0.237
			c0.004,0.238-0.253,1.323-0.336,1.652c-0.167,0.687-0.172,0.991-0.188,1.8c-0.024,0.987-0.732,2.116-0.936,3.04
			c0.462-0.127,1.285-1.103,1.649-1.469c0.583-0.603,0.987-1.018,1.663-1.545c0.643-0.495,1.233-0.706,1.836-1.29
			c0.488-0.468,1.244-1.09,1.601-1.593c0.474-0.662,0.885-0.966,1.347-1.776c0.264-0.459,0.865-1.654,1.034-2.156
			C30.914,17.162,31.526,16.375,31.447,13.993L31.447,13.993z"/>
		<path fill-rule="evenodd" clip-rule="evenodd" fill="#272525" d="M83.085,30.644l0.162,0.077
			c-0.005-0.333,0.045-0.672-0.087-0.882C83.161,30.089,83.228,30.523,83.085,30.644L83.085,30.644z"/>
		<path fill-rule="evenodd" clip-rule="evenodd" fill="#802124" d="M16.613,37.883l0.082,0.16c0.083-0.32,0.967-1.879,1.178-2.255
			c0.217-0.382,0.361-0.674,0.577-1.098c0.129-0.254,0.484-0.979,0.604-1.149c0.628-0.917,1.329-0.625,2.589-0.87
			c1.255-0.241,1.866-0.219,2.935-0.607c1.244-0.448,3.35-1.905,4.231-2.747c0.448-0.44,3.876-2.815,3.872-3.091
			c-0.002-0.222-0.041-0.225-0.082-0.403c-0.185-0.042-0.185-0.079-0.401-0.079l-1.361,0.016c-0.641,0.003-1.449,0.115-1.94,0.242
			c-0.489,0.12-1.446,0.18-1.658,0.586c-1.365,0.014-3.427,1.667-4.157,2.417c-0.561,0.575-1.109,1.051-1.593,1.691
			c-0.525,0.708-0.941,1.136-1.718,1.558l-0.18-1.206l-0.958,0.18c-0.021-2.412,1.086-3.817,1.068-5.848l-0.01-1.445
			c-0.008-0.699-0.351-2.833-0.495-3.45c-0.15-0.616-0.256-1.029-0.398-1.612c-0.141-0.538-0.43-1.071-0.528-1.48
			c-0.839,0.023-1.273,2.15-1.53,2.938c-0.281,0.877-0.74,2.734-0.73,3.802l0.007,0.642c0.024,2.892,1.806,5.191,1.832,8.14
			l0.006,0.478C17.874,35.627,16.721,36.442,16.613,37.883L16.613,37.883z"/>
		<polygon fill-rule="evenodd" clip-rule="evenodd" fill="#272525" points="16.695,38.043 16.613,37.883 16.542,38.135 
			16.695,38.043 		"/>
		<polygon fill-rule="evenodd" clip-rule="evenodd" fill="#272525" points="16.71,39.725 16.391,39.643 16.311,39.817 16.71,39.725 
					"/>
		<polygon fill-rule="evenodd" clip-rule="evenodd" fill="#272525" points="25.104,47.006 25.18,46.751 24.783,46.846 
			25.104,46.845 25.104,47.006 		"/>
		<polygon fill-rule="evenodd" clip-rule="evenodd" fill="#272525" points="9.523,59.702 9.688,59.63 9.43,59.549 9.523,59.702 		
			"/>
		<polygon fill-rule="evenodd" clip-rule="evenodd" fill="#272525" points="80.456,67.861 80.379,67.7 80.297,67.861 80.456,67.861 
					"/>
		<path fill-rule="evenodd" clip-rule="evenodd" fill="#802124" d="M83.276,16.884c-0.398,1.784-1.247,3.625-1.223,5.77l0.019,2.876
			c0.018,1.524,1.034,2.745,1.088,4.309c0.132,0.209,0.082,0.549,0.087,0.882l-0.162-0.077l-0.805-0.397l0.011,1.369
			c-1.118-0.022-2.263-1.793-2.962-2.479c-0.712-0.697-2.419-1.881-2.846-2.514c-1.17,0.012-3.093-1.248-4.976-1.236l-1.764,0.021
			c-0.44,0-0.533,0.159-0.872,0.245c0.223,0.309,3.686,2.819,4.269,3.242c0.731,0.528,1.392,1.069,2.144,1.612
			c0.917,0.656,1.408,0.819,2.604,1.147c2.452,0.663,4.448-0.195,5.463,2.031c0.818,1.786,1.767,3.019,2.289,5.178l-0.093,0.151
			c-0.316,0.039-0.165,0.094-0.464,0.094c-0.648,0.005-1.87-1.722-2.322-2.164c-0.876-0.859-1.139-1.456-2.236-2.244
			c-1.762-1.267-4.103-1.838-7.107-1.809l-0.722,0.007c0.34,1.396,8.234,6.963,10.069,6.945l0.883-0.007l1.275-0.192
			c0.946-0.143,1.309,2.71,1.321,3.767c0.005,0.828,0.013,1.654,0.021,2.482c0.005,0.953,0.248,1.293,0.256,2.235l0.002,0.159
			c0.004,0.217-0.037,0.223-0.075,0.401c-0.178,0.044-0.183,0.087-0.399,0.087h-0.478c-0.139-0.549-1.047-2.703-1.338-3.403
			c-0.44-1.049-1.012-2.285-1.845-2.887c-1.106-0.79-4.396-3.473-5.955-3.465h-0.083c-0.343,0.005-0.431,0.101-0.719,0.17
			c0.064,0.258,3.421,5.389,3.784,5.834c0.317,0.388,0.887,0.674,1.257,1.146c0.386,0.474,0.748,0.793,1.182,1.219
			c0.62,0.614,1.928,1.728,3.079,1.714c0.244,0.16,1.362,0.672,1.372,0.949l0.012,1.437c0.002,0.904-0.859,2.535-1.095,3.452
			c-0.161,0.644-0.685,3.208-0.685,3.844l-0.481,0.006c-0.034-0.364-0.259-0.617-0.313-0.894c-0.049-0.232-0.023-0.903-0.023-1.18
			c-0.005-0.655-0.025-1.708-0.131-2.293c-0.319-1.705-0.613-2.19-1.285-3.454c-0.438-0.837-1.52-1.939-2.203-2.6
			c-0.407-0.404-0.656-0.973-1.19-1.211c-0.535-0.239-0.867-0.791-1.533-0.787h-0.398L76.86,46.71
			c0.886,1.331,1.981,5.668,2.583,7.574c0.335,1.06,1.477,2.094,2.219,2.825c0.552,0.543,2.079,2.034,2.091,2.962
			c0.007,0.918-1.506,2.932-1.954,3.634c-0.381,0.591-0.694,1.118-1.09,1.705c-0.27,0.402-0.646,1.534-1.143,1.573l-0.007-0.955
			c-0.014-1.458,0.699-2.646,0.681-4.33c-0.016-1.961-0.768-3.455-1.372-4.895c-0.48-1.151-0.372-1.085-1.15-1.979
			c-0.236-0.271-1.247-1.473-1.318-1.729l-0.233,0.103l0.064,7.586c0.015,1.718,0.509,2.833,1.154,3.904
			c0.172,0.286,1.792,3.211,1.792,3.265l0.005,0.154c0.013,1.257-4.041,1.772-4.531,3.959c0.641-0.342,1.564-1.213,2.206-1.718
			c0.728-0.564,1.689-1.003,2.589-1.342c0.952-0.353,1.948-0.728,2.935-1.008c0.912-0.262,2.215-0.526,3.066-0.87
			c2.162-0.875,3.19-1.659,4.605-3.256c1.054-1.186,2.501-3.162,2.898-4.923l-0.64,0.005c-0.825,0.006-5.889,2.982-6.909,3.529
			c-1.148,0.604-1.896,1.559-2.584,2.623c-0.441,0.68-1.521,2.674-2.361,2.754h-0.159l0.082-0.161
			c0.517-1.106,0.59-1.803,1.286-2.856c0.561-0.849,1.056-1.625,1.61-2.465c1.146-1.741,2.135-3.218,4.466-3.784
			c0.046-0.469,0.876-0.698,1.239-0.923c0.383-0.23,0.859-0.6,1.212-0.871c0.817-0.623,1.374-1.359,1.983-2.173
			c1.116-1.501,1.682-5.043,2.44-5.936l-0.014-1.435l-0.562-0.239c-0.801,0.553-1.865,1.734-2.714,2.414
			c-1.049,0.832-1.608,1.636-2.393,2.723c-0.807,1.113-1.363,1.797-1.971,3.144c-0.427,0.933-0.686,3.222-1.785,3.322l-0.012-1.203
			c-0.017-1.784,0.754-3.953,1.314-5.21c0.36-0.818,0.687-1.425,1.104-2.169c0.409-0.725,0.939-1.192,1.423-1.856
			c0.673-0.922,2.352-2.747,2.778-3.77c0.443-1.047,1.637-3.616,1.627-4.903l-0.026-2.964c0-0.012-0.169-0.983-0.182-1.027
			c-0.076-0.237-0.406-0.08-0.869-0.08c-0.899,0.613-2.464,3.949-3.092,5.131c-0.731,1.381-1.545,4.502-1.529,6.589l0.015,1.435
			l-0.707,0.58l-0.537-5.206l-0.024-2.88c-0.02-1.827,0.792-3.031,1.562-4.089c0.24-0.333,0.418-0.403,0.587-0.854
			c0.135-0.351,0.212-0.707,0.358-0.996c0.291-0.592,0.548-1.372,0.537-2.24l-0.028-3.361c-0.001-0.693-0.411-1.103-0.419-2.161
			l-0.768-1.168l-0.124-0.02c-0.051,0.638-1.499,2.534-1.633,3.469c-0.113,0.782-0.221,1.401-0.322,2.22
			c-0.064,0.52-0.461,1.63-0.454,2.008v0.482c0.018,1.476,0.667,2.762,0.678,4.153c-0.57-0.145-1.267-1.906-1.566-2.519
			c-0.158-0.323-1.2-2.629-1.2-2.815c-0.021-1.923,0.939-4.121,1.713-5.291c-0.007-0.822,0.394-0.951,0.382-1.767l-0.026-3.118
			c-0.034-3.374-1.445-4.011-1.979-6.223h-0.158l-0.164,0.006L83.276,16.884L83.276,16.884z"/>
		<polygon fill-rule="evenodd" clip-rule="evenodd" fill="#272525" points="74.492,72.396 74.585,72.238 74.416,72.309 
			74.492,72.396 		"/>
		<path fill-rule="evenodd" clip-rule="evenodd" fill="#802124" d="M7.416,47.889l0.008,1.276c0.31,0.345,0.899,2.448,1.164,3.098
			c0.344,0.846,0.993,2.011,1.453,2.798c0.588,0.99,1.082,1.569,1.888,2.358c0.71,0.706,1.711,1.024,2.604,1.555
			c0.843,0.495,1.83,1.083,2.609,1.616c0.991,0.686,1.342,1.136,1.955,2.215c0.595,1.043,3.143,4.207,3.153,5.266l0.006,0.315
			c-1.027-0.011-2.158-1.955-2.638-2.729c-0.895-1.437-1.323-1.768-2.692-2.662c-1.146-0.742-2.153-1.312-3.462-1.886
			c-1.208-0.532-2.591-0.935-3.775-1.48l-0.165,0.072c0.007,0.897,0.998,2.384,1.423,2.993c0.722,1.04,1.337,1.554,1.989,2.418
			c0.317,0.421,1.965,1.584,2.526,1.87c1.073,0.546,1.946,0.865,3.118,1.271c2.148,0.727,4.297,1.663,6.482,2.282
			c0.921,0.258,4.37,3.36,4.38,4.346v0.48c-0.273,0.079-0.211,0.158-0.314,0.161c-1.057,0.011-2.325-1.314-3.081-1.795
			c-1.154-0.738-1.589-1.317-3.107-1.76c-1.183-0.345-2.622-0.759-3.813-1.045c-0.748-0.176-3.909-0.487-4.221-0.628
			c0.095,0.988,0.917,1.976,1.56,2.45c0.38,0.281,0.929,0.499,1.214,0.775c0.38,0.383,0.613,0.548,1.075,0.849
			c0.859,0.562,4.408,2.167,5.657,2.154c1.504-0.012,2.798-0.326,4.162-0.437c1.271-0.099,2.312,0.494,3.313,0.98
			c1.933,0.935,4.436,1.824,5.927,3.096c-2.637,0.02-4.639-1.797-7.301-1.777l-0.88,0.009l-6.479,0.936l-0.236,0.007
			c0.193,2.134,7.771,4.163,10.702,3.525c1.671-0.362,3.165-2.003,5.394-1.867c0.074,0.008,1.141,0.438,1.308,0.497
			c0.239,0.087,1.278,0.225,1.592,0.237c1.086,0.025,2.183-0.024,3.445-0.034c-0.703-0.597-2.032-0.305-3.127-0.299
			c-2.852,0.035-1.99-1.171-3.059-1.729c-0.009-1.081,0.058-4.037-0.201-4.713c-0.326-0.857-0.235-0.906-0.71-1.7
			c-0.306-0.516-0.611-0.991-0.895-1.512c-0.349-0.649-3.396-5.94-3.684-5.94l-0.321,0.01c-0.009,0.559-0.312,0.585-0.306,1.2v0.32
			c0.034,3.436,0.627,4.671,1.593,7.094c0.209,0.506,0.297,1.14,0.714,1.456c0.443,0.336,0.729,0.647,1.123,1.035
			c0.676,0.66,1.598,1.451,2.041,2.28c-1.662,0.013-3.403-1.172-4.577-1.792c-0.852-0.456-1.238-0.307-2.204-0.99
			c-0.488-0.345-1.102-1.337-1.109-2.101v-0.246c-0.008-0.487,0.417-1.573,0.52-2.101c0.151-0.772,0.248-1.384,0.237-2.304v-0.161
			c-0.032-3.508-2.147-5.977-2.248-9.099h-0.235c-0.259,0.007-0.407,0.802-0.506,1.093c-0.121,0.352-0.338,0.742-0.485,1.11
			c-0.302,0.752-0.497,1.674-0.487,2.691l0.022,2.562c0.009,1.206,0.374,2.076,0.699,3.005c0.292,0.824,1.024,1.719,1.036,2.579
			c-1.099-0.569-1.538-2.301-3.611-3.35c-2.514-1.281-1.955-2.107-0.62-4.133c0.989-1.519,1.338-3.09,1.306-5.607
			c-0.012-0.957,0.077-2.225-0.093-3.216c-0.065-0.395-0.04-3.188-0.282-3.183c-0.742,0.008-2.078,2.188-2.367,2.833
			c-0.461,1.026-1.187,2.569-1.178,3.998l0.004,0.64l0.699,5.191v0.8c-0.645-0.162-1.797-2.14-2.149-2.82
			c-0.243-0.479-1.749-2.939-1.753-3.223l-0.006-0.798c-0.014-1.628,0.994-2.294,1.795-3.158c0.874-0.931,1.415-1.682,1.996-2.873
			c0.347-0.719,0.474-0.83,0.659-1.813c0.111-0.62,0.294-1.322,0.46-1.93c0.35-1.3,0.784-2.604,1.055-3.798v-0.161l-0.321,0.001
			c-0.812,0.074-2.489,1.549-2.834,2.059c-0.338,0.49,0,0.242-0.554,0.645c-0.183,0.133-0.448,0.423-0.607,0.595
			c-0.355,0.389-0.717,0.936-0.958,1.442c-0.571,1.186-0.784,2.327-0.995,3.854c-0.111,0.822-0.263,3.686-0.906,3.867
			c-0.712-1.454-0.493-2.361-0.854-4.058c-0.245-1.105-1.288-2.493-1.3-3.602V51.57c-0.015-1.499,2.014-1.861,3.101-2.513
			c0.886-0.53,2.386-1.788,3.006-2.599c0.491-0.642,0.743-0.789,1.202-1.596c0.329-0.572,0.718-1.131,1.07-1.718
			c0.359-0.603,1.977-3.09,2.084-3.506l-1.279,0.009c-0.032,0-2.887,1.42-3.111,1.552c-0.693,0.416-2.007,1.546-2.466,2.175
			c-0.744,1.043-1.178,1.678-1.552,3.075c-0.332,1.258-0.655,2.315-1.593,2.956c-0.868-1.271-0.342-2.443-0.361-4.239
			c-0.012-1.49,0.297-2.896,0.285-4.479c0.754-0.066,1.35-0.314,2.149-0.428c0.573-0.081,1.619-0.256,2.149-0.423
			c0.936-0.295,2.688-1.104,3.41-1.657c0.905-0.681,5.123-3.954,5.192-4.887l-0.559,0.006c-1.4,0.012-2.931,0.203-4.125,0.468
			c-0.539,0.123-2.653,1.195-3.092,1.487c-0.215,0.14-1.776,2.052-2.13,2.429c-0.662,0.7-1.197,2.003-2.444,2.044l-0.399,0.093
			l0.08-0.174l0.171-1.357l-0.528,0.863l-0.37,0.02l0.613-4.875l-0.025-0.726c-0.005-1.226-0.707-2.717-1.061-3.601
			c-0.201-0.5-0.515-1.054-0.771-1.556c-0.122-0.228-0.599-1.539-0.787-1.539l-0.642,0.006c0.017,1.566-0.772,2.996-0.761,4.407
			l0.006,0.718c0.02,2.27,0.86,4.575,1.817,5.902c1.349,1.89,1.625,2.888,1.655,6.062l0.006,0.879l-0.625,4.964l-0.684-0.407
			c-0.04-3.249-0.296-5.601-1.398-7.849c-0.367-0.748-3.116-5.61-3.536-5.61c-0.392,0.009-0.8,0.462-0.794,0.891l0.032,3.363
			c0.008,1.516,1.057,3.922,1.562,5.022c0.397,0.86,0.823,1.207,1.442,1.846c0.529,0.541,0.812,1.329,1.341,1.943
			c0.768,0.902,2.347,2.708,2.747,3.828c0.501,1.426,1.296,3.371,1.315,5.276l0.012,0.961c0,0.157-0.026,0.141-0.08,0.244
			l-1.011-1.375c-0.063-1.997-2.188-4.736-3.281-5.808c-1.534-1.505-2.971-3.065-4.781-4.253L7.416,47.889L7.416,47.889z"/>
		<path fill-rule="evenodd" clip-rule="evenodd" fill="#802124" d="M74.492,72.396l-0.076-0.087l-0.998,0.86l1.264-3.268
			l0.345-1.451l0.167-1.096l-0.034-1.209c-0.015-1.337-0.133-2.298-0.369-3.418c-0.071-0.323-0.966-2.645-1.126-2.645
			c-0.847,0.007-0.871,2.29-1.201,3.106c-0.217,0.551-0.33,1.06-0.541,1.602c-0.264,0.679-0.258,1.021-0.454,1.699
			c-0.271,0.929-0.362,2.695-0.144,3.882c0.222,1.241,0.69,2.387,0.703,3.641l0.002,0.4c0.019,1.718-2.301,2.137-3.498,2.757
			c-1.041,0.533-2.944,1.863-4.311,1.878c0.8-1.702,2.494-2.582,3.409-4.19c0.991-1.729,1.736-3.114,1.71-5.858l-0.021-2.229
			l-0.191-1.286c-0.85,0.086-1.377,1.469-1.768,2.128c-0.497,0.824-0.96,1.58-1.429,2.407c-0.937,1.66-1.885,3.189-2.247,5.404
			c-0.402,2.416,0.585,5.094-2.019,5.628c-1.071,0.225-2.515,0.027-3.646,0.232c-1.038,0.187-2.198,0.478-3.377,0.487
			c0.319-1.431,1.692-1.642,2.815-2.312c1.475-0.872,1.638-1.146,2.769-2.276c1.418-1.426,2.983-4.242,2.956-7.087
			c0-0.209-0.133-0.202-0.165-0.561l-0.639,0.008c-0.015,1.187-2.229,2.334-3.049,2.953c-1.026,0.771-2.186,2.015-3.006,2.999
			c-1.172,1.408-1.206,2.298-1.896,4.086c-0.374,0.982-1.065,3.724-2.173,3.73l-1.279,0.014c-1.904,0.018-2.028-2.238-2.543-3.713
			c-0.597-1.7-0.936-3.006-2.114-4.145c-1.477-1.438-4.973-4.838-6.676-5.721l-0.203,2.087c0.552,1.05,0.806,2.235,1.484,3.232
			c0.5,0.738,1.404,2.215,1.985,2.741c0.962,0.874,1.715,1.204,2.793,1.914c0.672,0.449,2.512,1.285,2.538,2.185l-1.841,0.02
			l0.773,0.654l-0.606,0.065c-0.756,0.006-3.255-0.256-4.053-0.399c-0.687-0.122-2.906,0.604-3.494,0.842
			c-1.189,0.491-2.142,0.642-3.184,1.313c-0.876,0.568-1.771,1.236-3.173,1.249c0.522,0.969,3.431,1.571,5.055,1.552l0.723-0.004
			c1.739-0.016,4.938-0.547,6.023-1.148c0.713-0.399,3.876-3.022,4.107-3.022c0.11,0,0.402,0.188,0.402,0.396
			c0.006,0.408-1.875,2.867-2.208,3.385v0.311c0.962-0.468,1.106-0.729,1.713-1.566c0.359-0.492,1.095-1.333,1.864-1.342
			l2.481-0.021c1.537-0.015,1.742,2.478,3.391,2.847c-0.141-1.544-2.343-2.276-2.354-3.658c-0.004-0.224,0.274-0.402,0.558-0.406
			h0.238c0.125,0,1.615,1.62,1.916,1.845c0.748,0.56,1.502,0.874,2.424,1.253c1.497,0.604,4.287,0.901,6.421,0.881H65.5
			c1.534-0.007,4.059-0.696,4.549-1.642c-2.1-0.148-4.412-1.909-6.321-2.53c-3.072-1.007-4.343-0.487-7.959-0.456
			c0.975-0.858,2.575-0.741,4.394-0.756c0.819-0.011,1.773,0.033,2.438-0.154c0.706-0.197,0.719-0.68,1.803-0.684
			c2.305-0.025,3.363,1.884,5.702,1.864l1.28-0.012c2.926-0.027,7.9-2.077,8.852-3.92c-1.498,0.012-2.297,0.031-3.732-0.24
			c-0.894-0.17-2.822-0.417-3.719-0.415l-0.643,0.004c-2.464,0.03-4.684,1.964-7.346,1.994c0.562-0.855,4-2.485,5.237-2.952
			c2.658-0.997,3.482-1.049,7.133-1.083c3.524-0.031,10.064-3.192,10.277-6.012c-1.99-0.448-6.586,0.759-8.025,1.483
			c-1.302,0.656-1.839,1.2-2.946,1.941c-0.682,0.46-2.192,1.652-3.153,1.666l-0.011-0.806
			C73.306,73.528,74.334,73.004,74.492,72.396L74.492,72.396z"/>
		<g>
			<path fill-rule="evenodd" clip-rule="evenodd" fill="#FFFFFF" d="M51.613,50.244l-23.358,0.209l0.146,15.733
				c0.117,13.252,20.445,7.74,23.373,12.924L51.613,50.244L51.613,50.244z"/>
			<path fill="#272525" d="M51.029,79.526c-0.786-1.882-6.579-2.181-12.144-3.011l0,0c-5.476-0.856-11.295-3.102-11.344-10.323l0,0
				l-0.14-15.732c-0.001-0.474,0.371-0.856,0.848-0.861l0,0l23.35-0.207c0.23-0.007,0.445,0.083,0.609,0.24l0,0
				c0.164,0.163,0.252,0.378,0.255,0.604l0,0L52.629,79.1c0,0.389-0.265,0.732-0.639,0.829l0,0
				c-0.074,0.021-0.146,0.034-0.216,0.034l0,0C51.468,79.963,51.184,79.8,51.029,79.526L51.029,79.526z M29.115,51.289l0.136,14.89
				c0.072,6.034,4.48,7.661,9.923,8.653l0,0c4.341,0.827,8.987,0.683,11.735,2.345l0,0l-0.146-26.072L29.115,51.289L29.115,51.289z
				 M50.759,50.249l0.853-0.005L50.759,50.249L50.759,50.249z"/>
		</g>
		<g>
			<path fill-rule="evenodd" clip-rule="evenodd" fill="#802124" d="M51.774,79.11c0.091,0.167,0.17,0.345,0.223,0.532
				c1.943-5.85,22.94-0.194,22.813-13.876l-0.146-15.734l-23.051,0.211L51.774,79.11L51.774,79.11z"/>
			<path fill="#272525" d="M51.983,80.497c-0.376-0.006-0.696-0.258-0.806-0.618l0,0c-0.032-0.112-0.086-0.232-0.154-0.356l0,0
				l0.229-0.125l-0.229,0.125l-0.104-0.41l-0.161-28.863c0-0.467,0.38-0.856,0.842-0.856l0,0l23.061-0.213
				c0.466-0.005,0.854,0.371,0.859,0.847l0,0l0.137,15.802c0,0,0,0,0,0.062l0,0c0.051,5.449-3.347,8.264-7.281,9.558l0,0
				c-3.931,1.353-8.582,1.575-11.806,2.316l0,0c-2.189,0.485-3.501,1.217-3.763,2.146l0,0c-0.114,0.351-0.447,0.586-0.816,0.586l0,0
				C51.99,80.497,51.987,80.497,51.983,80.497L51.983,80.497z M52.465,51.085l0.152,26.42c0.949-0.69,2.216-1.089,3.572-1.406l0,0
				c2.312-0.521,5.098-0.79,7.784-1.29l0,0c5.443-1.084,9.96-2.756,9.98-8.918l0,0c0-0.02-0.006-0.073,0-0.117l0,0l-0.141-14.883
				L52.465,51.085L52.465,51.085z"/>
		</g>
		<g>
			<polygon fill-rule="evenodd" clip-rule="evenodd" fill="#FFFFFF" points="51.613,50.34 74.664,50.033 74.416,22.648 
				51.146,22.859 51.613,50.34 			"/>
			<path fill="#272525" d="M50.759,50.356l-0.47-27.481c0-0.229,0.086-0.45,0.246-0.612l0,0c0.155-0.165,0.374-0.26,0.603-0.26l0,0
				l23.271-0.208c0.47-0.004,0.856,0.375,0.859,0.846l0,0l0.251,27.386c0.001,0.468-0.375,0.85-0.844,0.854l0,0l-23.051,0.314
				c-0.006,0-0.006,0-0.006,0h-0.004C51.146,51.194,50.765,50.822,50.759,50.356L50.759,50.356z M51.613,50.34l0.851-0.011
				L51.613,50.34L51.613,50.34z M52.013,23.705l0.438,25.773l21.353-0.289l-0.235-25.682L52.013,23.705L52.013,23.705z"/>
		</g>
		<g>
			<polygon fill-rule="evenodd" clip-rule="evenodd" fill="#802124" points="51.528,50.348 28.167,50.378 27.918,22.988 
				51.293,22.81 51.528,50.348 			"/>
			<path fill="#272525" d="M27.312,50.379L27.065,23c-0.004-0.223,0.085-0.448,0.247-0.604l0,0c0.159-0.163,0.376-0.254,0.601-0.254
				l0,0l23.369-0.183c0.474-0.006,0.86,0.377,0.862,0.846l0,0l0.238,27.537l-0.854,0.012v-0.854v0.854l0.854-0.012
				c0.003,0.231-0.086,0.446-0.24,0.609l0,0c-0.165,0.164-0.381,0.253-0.606,0.253l0,0l-23.368,0.025
				C27.703,51.228,27.318,50.848,27.312,50.379L27.312,50.379z M28.779,23.84l0.232,25.684l21.658-0.02l-0.224-25.833L28.779,23.84
				L28.779,23.84z"/>
		</g>
		<path fill-rule="evenodd" clip-rule="evenodd" fill="#802124" d="M49.063,87.017c0.034-0.581-0.474-1.107-1.048-1.104
			c-0.64-0.027-1.101,0.44-1.133,1.052c-0.03,0.602,0.474,1.1,1.049,1.134C48.575,88.091,49.071,87.657,49.063,87.017L49.063,87.017
			z"/>
		<path fill-rule="evenodd" clip-rule="evenodd" fill="#802124" d="M55.649,87.202c0.029-0.608-0.438-1.103-1.049-1.134
			c-0.607,0.006-1.099,0.475-1.134,1.084c0.007,0.569,0.474,1.104,1.085,1.104C55.158,88.281,55.654,87.813,55.649,87.202
			L55.649,87.202z"/>
		<path fill-rule="evenodd" clip-rule="evenodd" fill="#FFFFFF" d="M64.511,63.673c2.118,0.2,3.76,0.846,5.379,1.682v-6.91
			c-1.625,0.835-3.314,1.492-5.486,1.696c0.21-2.126,0.86-3.775,1.693-5.383h-6.909c0.838,1.62,1.496,3.307,1.705,5.476
			c-2.112-0.216-3.748-0.859-5.357-1.685v6.905c1.622-0.83,3.293-1.477,5.439-1.682c-0.218,2.077-0.855,3.714-1.681,5.295H66.2
			C65.38,67.462,64.716,65.803,64.511,63.673L64.511,63.673z"/>
		<path fill="#FFFFFF" d="M42.466,35.209l3.737-5.228l-5.347,3.824c-0.096-0.04-0.189-0.076-0.292-0.106l1.407-4.599
			c-1.245-0.384-2.596-0.482-3.968-0.223c-0.417,0.083-0.823,0.189-1.214,0.327l1.692,4.54c-0.168,0.062-0.337,0.145-0.498,0.233
			l-5.575-3.995l4.086,5.718c-0.013,0.036-0.034,0.069-0.045,0.108l-4.725-1.444c-0.438,1.293-0.555,2.722-0.286,4.16
			c0.083,0.439,0.203,0.862,0.35,1.266l4.693-1.754c0.007,0.015,0.013,0.021,0.016,0.034l-4.055,5.68l5.541-3.971
			c0.216,0.122,0.444,0.216,0.672,0.283l-1.475,4.83c1.227,0.361,2.559,0.454,3.908,0.202c0.527-0.102,1.034-0.254,1.52-0.446
			l-1.748-4.673l5.396,3.859l-3.79-5.296c0.118-0.205,0.213-0.416,0.283-0.632l4.705,1.438c0.368-1.229,0.457-2.553,0.2-3.904
			c-0.092-0.473-0.225-0.932-0.388-1.375l-4.541,1.694C42.657,35.569,42.564,35.386,42.466,35.209L42.466,35.209z"/>
	</g>
	<text transform="matrix(1 0 0 1 54.9014 41.6055)" fill="#272525" font-family="'BankGothicBT-Medium'" font-size="19.8624">G</text>
	<text transform="matrix(1 0 0 1 32.1846 67.5654)" fill="#272525" font-family="'BankGothicBT-Medium'" font-size="19.8624">G</text>
</g>
</svg>
