<?xml version="1.0" encoding="utf-8"?>
<!-- Generator: Adobe Illustrator 18.1.0, SVG Export Plug-In . SVG Version: 6.00 Build 0)  -->
<svg version="1.0" id="Layer_1" xmlns="http://www.w3.org/2000/svg" xmlns:xlink="http://www.w3.org/1999/xlink" x="0px" y="0px"
	 viewBox="0 0 150 150" enable-background="new 0 0 150 150" xml:space="preserve">
<g>
	<g>
		<path fill="#DE6826" d="M112.9,77.6c0.6-1.2,1-2.4,1.4-3.9c0-0.1,0-0.2,0-0.3c0-0.2-0.2-0.3-0.5-0.3c-0.7,0.1-2.1,1.1-2.3,2.2
			c-0.6,2.8-1.6,5.1-3,7c0.1-0.4,0.1-0.8,0.2-1.1c0.1-0.9,0.2-1.9,0.2-2.8c0-0.9-2.5,0.3-3,1.7c-0.7,2.2-1.6,4-2.7,5.5
			C107,84.4,110.7,82,112.9,77.6"/>
	</g>
	<polygon fill="#DE6826" points="39.5,30.3 40.8,33 43.8,33.4 41.7,35.6 42.2,38.5 39.5,37.1 36.8,38.5 37.3,35.6 35.2,33.4 
		38.2,33 	"/>
	<polygon fill="#DE6826" points="113.2,30.3 114.5,33 117.5,33.4 115.3,35.6 115.8,38.5 113.2,37.1 110.5,38.5 111,35.6 108.8,33.4 
		111.8,33 	"/>
	<polygon fill="#DE6826" points="57.9,28.2 59.6,31.6 63.4,32.1 60.6,34.8 61.3,38.5 57.9,36.8 54.6,38.5 55.2,34.8 52.5,32.1 
		56.2,31.6 	"/>
	<polygon fill="#DE6826" points="94.7,28.2 96.4,31.6 100.2,32.1 97.5,34.8 98.1,38.5 94.7,36.8 91.4,38.5 92,34.8 89.3,32.1 
		93.1,31.6 	"/>
	<g>
		<path fill="#093553" d="M99,46.7l-15.1-2.2l-6.8-13.7l-6.8,13.7l-15.1,2.2l10.9,10.7l-2.6,15.1l13.5-7.1l13.5,7.1L88,57.4L99,46.7
			z M78.1,63.3l-1-0.5l-1,0.5l-9.5,5l1.8-10.5l0.2-1.2l-0.8-0.8L60,48.3l10.6-1.5l1.2-0.2l0.5-1.1l4.7-9.6l4.7,9.6l0.5,1.1l1.2,0.2
			l10.6,1.5l-7.7,7.5l-0.9,0.8l0.2,1.2l1.8,10.5L78.1,63.3z"/>
		<polygon fill="#DE6826" points="84.1,55.8 84.8,55.1 91.2,48.9 82.4,47.7 81.4,47.5 81,46.6 77.1,38.7 73.1,46.6 72.7,47.5 
			71.7,47.7 62.9,48.9 69.3,55.1 70,55.8 69.8,56.8 68.3,65.6 76.2,61.4 77.1,61 77.9,61.4 85.8,65.6 84.3,56.8 		"/>
	</g>
	<g>
		<path fill="none" d="M82.6,124.5c3.6-2.4,7.9-5.4,12.4-8.9v0l-12.4,8.7V124.5z"/>
		<path fill="none" d="M56.8,115.6c4.4,3.5,8.8,6.5,12.4,8.9v-0.2L56.8,115.6L56.8,115.6z"/>
	</g>
	<g>
		<path fill="#093553" d="M134.2,12.7L134.2,12.7L17.5,12.6v0.1H11v8.8h6.5v60.2c0.8,21.8,28.7,46,58.4,62.4
			c29.7-16.4,57.6-40.6,58.4-62.4V21.5h6.3v-8.8H134.2z M120.8,81.8c0,6.9-5.3,14.7-12.4,21.9v-8.4L95,102.8v12.7l-0.1,0.1v0
			c-4.4,3.5-19.2,13.5-19.2,13.5s-14.6-10-19-13.5v-0.1v-12.7l-13.5-7.5v8.4c-7.1-7.2-12.4-15-12.4-21.9V26.1h12.4h13.5h12.4h13.5
			H95H95h13.4h12.4V81.8z"/>
	</g>
	<g>
		<path fill="#DE6826" d="M74.5,106.8c0,0,0-0.2,0-0.4c0,0.1,0,0.1,0,0.1C74.5,106.6,74.5,106.7,74.5,106.8z"/>
		<path fill="#DE6826" d="M117.6,70c-0.6-0.2-2.3,1-2.5,2.3c-0.5,3.5-1.7,6.3-3.5,8.5c-4.4,5.6-12,7.4-18.4,6.5
			c-1.5-0.2-2.3-1.1-2.1-2.7c0-0.2,0.1-0.4,0.2-0.6c1-2.1,2.1-4.2,3.4-6.2c1.3-2.2,1.7-5.8,0.7-5.3c-2.1,1-4,2.3-5.7,3.9
			c-0.7,0.6-1.4,1.3-2,2.1c-1.9,2.1-3.5,4.5-4.7,7c-0.1,0.2-0.2,0.5-0.3,0.7c-1.4,2.6-2.4,5.3-3.1,8.4c-0.8,3.6-1.1,7.4-0.9,11.3
			c0,0.2,0,0.4,0,0.6c0,0.4,0,1,0,1.6l-0.1,10l5.5-10.3c0,0,0.7-2.2,2.4-4.1c0.7-0.3,1.4-0.6,2.1-0.9c11.1-5,23.4-11.5,26.4-17.4
			c1-1.6,1.8-3.4,2.3-5.4c0.1-0.5,0.2-0.9,0.3-1.4c0.2-0.7,0.3-1.5,0.4-2.2C118.1,74.2,118,72.1,117.6,70z"/>
		<g>
			<path fill="#DE6826" d="M38.7,77.6c-0.6-1.2-1-2.4-1.3-3.9c0-0.1,0-0.2,0-0.3c0-0.2,0.2-0.3,0.5-0.3c0.7,0.1,2.1,1.1,2.3,2.2
				c0.6,2.8,1.6,5.1,3,7C43.1,82,43,81.6,43,81.2c-0.1-0.9-0.2-1.9-0.2-2.8c0-0.9,2.5,0.3,3,1.7c0.7,2.2,1.6,4,2.7,5.5
				C44.6,84.4,40.9,82,38.7,77.6"/>
		</g>
		<path fill="#DE6826" d="M34,70c0.6-0.2,2.3,1,2.5,2.3c0.5,3.5,1.7,6.3,3.5,8.5c4.4,5.6,12,7.4,18.4,6.5c1.5-0.2,2.3-1.1,2.1-2.7
			c0-0.2-0.1-0.4-0.2-0.6c-1-2.1-2.2-4.2-3.4-6.2c-1.3-2.2-1.7-5.8-0.7-5.3c2.1,1,4,2.3,5.7,3.9c0.7,0.6,1.4,1.3,2,2.1
			c1.9,2.1,3.5,4.5,4.7,7c0.1,0.2,0.2,0.5,0.3,0.7c1.4,2.6,2.4,5.3,3.1,8.4c0.8,3.6,1.1,7.4,0.9,11.3c0,0.2,0,0.4,0,0.6
			c0,0.4,0,1,0,1.6l0.1,10l-5.5-10.3c0,0-0.8-2.2-2.4-4.1c-0.7-0.3-1.4-0.6-2.1-0.9c-11.1-5-23.4-11.5-26.3-17.4
			c-1-1.6-1.8-3.4-2.3-5.4c-0.1-0.5-0.2-0.9-0.3-1.4c-0.2-0.7-0.3-1.5-0.4-2.2C33.5,74.2,33.6,72.1,34,70z"/>
		<path fill="#DE6826" d="M78.6,106.8c0-0.1,0-0.2,0-0.3C78.6,102.4,78.6,106.8,78.6,106.8z"/>
	</g>
</g>
</svg>
