<?xml version="1.0" encoding="utf-8"?>
<!-- Generator: Adobe Illustrator 16.0.0, SVG Export Plug-In . SVG Version: 6.00 Build 0)  -->
<!DOCTYPE svg PUBLIC "-//W3C//DTD SVG 1.1//EN" "http://www.w3.org/Graphics/SVG/1.1/DTD/svg11.dtd">
<svg version="1.1" id="Layer_1" xmlns="http://www.w3.org/2000/svg" xmlns:xlink="http://www.w3.org/1999/xlink" x="0px" y="0px"
	 width="100px" height="100px" viewBox="0 0 100 100" enable-background="new 0 0 100 100" xml:space="preserve">
<g>
	<path fill-rule="evenodd" clip-rule="evenodd" fill="#26A9E0" d="M20.733,57.322c0.362-11.917,9.12-23.084,21.821-25.904
		c16.017-3.554,31.899,7.851,33.54,24.185c0.864,8.628-1.832,16.011-7.683,22.32c-1.103,1.189-2.106,1.866-3.986,1.206
		c-3.161-1.105-6.581,0.947-7.308,4.227c-0.328,1.474-1.063,2.01-2.402,2.291c-4.3,0.908-8.594,0.965-12.834-0.181
		c-0.74-0.201-1.614-1.055-1.852-1.792c-1.259-3.952-4.207-5.543-8.29-4.421c-0.646,0.174-1.691-0.027-2.17-0.469
		C23.318,73.004,20.552,65.759,20.733,57.322z M48.449,78.118c11.411,0.021,20.481-8.966,20.501-20.307
		C68.97,46.336,59.93,37.32,48.422,37.33c-11.361,0.013-20.424,9.06-20.444,20.407C27.958,69.042,37.054,78.099,48.449,78.118z"/>
	<path fill-rule="evenodd" clip-rule="evenodd" fill="#26A9E0" d="M34.053,89.935c-2.787,0.004-5.071-2.214-5.108-4.957
		c-0.04-2.776,2.375-5.158,5.185-5.117c2.72,0.043,5.057,2.418,5.024,5.107C39.121,87.748,36.874,89.935,34.053,89.935z"/>
	<path fill-rule="evenodd" clip-rule="evenodd" fill="#26A9E0" d="M57.954,84.981c-0.014-2.854,2.11-5.078,4.88-5.121
		c2.848-0.041,5.161,2.254,5.148,5.104c-0.011,2.773-2.244,4.98-5.048,4.98C60.031,89.948,57.967,87.889,57.954,84.981z"/>
	<path fill-rule="evenodd" clip-rule="evenodd" fill="#8BC53F" d="M66.174,60.052c0.016,7.928-4.67,14.372-11.881,15.983
		c-4.384,0.978-8.862,0.954-13.166-0.412c-6.159-1.959-9.221-6.803-10.118-12.768c-1.447-9.626,4.187-17.363,12.587-19.802
		C54.957,39.762,66.15,48.232,66.174,60.052z M59.116,58.803c-0.978,4.887-3.745,7.954-8.373,9.281
		c-1.085,0.312-1.561,0.776-1.38,1.872c0.134,0.824,0.275,1.645,0.422,2.465c0.208,1.169,0.888,1.36,1.977,1.105
		c8.801-2.043,13.227-10.748,11.746-17.778c-1.625-7.724-8.257-12.908-16.462-12.426c-7.315,0.432-13.759,7.111-13.896,14.868
		c-0.144,8.052,5.761,14.358,12.932,15.36c0.285-1.567,0.573-3.148,0.877-4.803c-0.777-0.182-1.206-0.278-1.634-0.386
		c-6.347-1.591-9.043-4.658-10.001-11.149c-0.245-1.651,0.452-1.99,1.798-1.729c5.446,1.055,9.928,3.275,11.097,9.455
		C50.401,60.27,54.431,57.952,59.116,58.803z"/>
	<path fill-rule="evenodd" clip-rule="evenodd" fill="#8BC53F" d="M66.495,63.2c1.607-13.927-9.104-21.215-17.558-21.439
		c-9.204-0.245-20.21,7.71-18.428,21.325c-2.352-6.343,0.583-14.653,6.287-19.158c6.682-5.275,16.235-5.382,23.043-0.268
		C65.638,48.014,68.876,56.344,66.495,63.2z"/>
	<path fill-rule="evenodd" clip-rule="evenodd" fill="#8BC53F" d="M28.922,60.065c-0.917-7.751,1.682-14.128,8.015-18.623
		c6.843-4.853,14.275-5.269,21.516-1.011c7.52,4.417,10.601,11.294,9.556,19.988c0.101-5.667-1.394-10.771-5.339-14.968
		c-3.932-4.18-8.842-6.283-14.533-6.18c-5.537,0.104-10.316,2.244-14.05,6.407C30.433,49.756,28.848,54.626,28.922,60.065z"/>
	<g>
		<g>
			<path fill-rule="evenodd" clip-rule="evenodd" fill="#FFFFFF" d="M51.493,9.467c0.05,0.737,0.141,1.477,0.141,2.217
				c0.014,4.712,0.07,9.428-0.007,14.141c-0.12,7.472-0.291,14.941-0.559,22.407c-0.031,0.747-0.801,2.023-1.344,2.09
				c-1.483,0.181-1.363-1.172-1.37-2.197c-0.014-2.649,0.07-5.299-0.02-7.941c-0.201-6.025-0.664-12.044-0.657-18.066
				c0.007-3.255,0.636-6.535,1.25-9.753c0.218-1.146,1.222-2.137,1.869-3.198C51.027,9.266,51.262,9.366,51.493,9.467z"/>
			<path fill="#FFFFFF" d="M48.154,49.9c-0.184-0.456-0.188-0.952-0.191-1.4l0,0c0-0.101,0.003-0.194,0.003-0.285l0,0
				c0-0.027,0-0.063,0-0.087l0,0c0-0.225-0.003-0.452-0.003-0.673l0,0c0-1.474,0.023-2.944,0.023-4.408l0,0
				c0-0.955-0.007-1.906-0.037-2.854l0,0c-0.201-5.958-0.66-11.931-0.66-17.922l0,0c0-0.05,0-0.104,0-0.158l0,0
				c0.007-3.306,0.643-6.605,1.253-9.824l0,0c0.268-1.316,1.32-2.317,1.922-3.329l0,0l0.174-0.285l0.309,0.131
				c0.234,0.1,0.469,0.201,0.7,0.301l0,0L51.49,9.467l0.157-0.358l0.214,0.094l0.018,0.238c0.047,0.724,0.141,1.47,0.144,2.241l0,0
				c0.007,2.877,0.03,5.757,0.03,8.638l0,0c0,1.835-0.01,3.67-0.041,5.513l0,0c-0.12,7.473-0.291,14.945-0.559,22.414l0,0
				c-0.023,0.492-0.248,1.025-0.536,1.491l0,0c-0.308,0.458-0.616,0.87-1.146,0.971l0,0c-0.107,0.01-0.208,0.017-0.305,0.017l0,0
				c-0.02,0-0.037,0-0.054,0l0,0C48.79,50.724,48.321,50.349,48.154,49.9L48.154,49.9z M49.306,12.438
				c-0.613,3.215-1.236,6.471-1.239,9.687l0,0c-0.003,0.04,0,0.09,0,0.147l0,0c-0.003,5.952,0.456,11.914,0.656,17.896l0,0
				c0.03,0.961,0.041,1.922,0.041,2.88l0,0c0,1.47-0.023,2.94-0.023,4.408l0,0c0,0.218,0.003,0.442,0.003,0.697l0,0
				c0,0,0,0.027,0,0.063l0,0c0,0.097-0.003,0.191-0.003,0.285l0,0c-0.003,0.432,0.023,0.854,0.13,1.099l0,0
				c0.121,0.234,0.184,0.328,0.596,0.352l0,0c0.067,0,0.137-0.003,0.211-0.014l0,0c0.023,0.014,0.362-0.224,0.583-0.612l0,0
				c0.238-0.372,0.415-0.851,0.419-1.105l0,0c0.268-7.462,0.438-14.932,0.559-22.4l0,0c0.027-1.835,0.037-3.667,0.037-5.5l0,0
				c0-2.877-0.023-5.754-0.03-8.635l0,0c0-0.636-0.07-1.286-0.124-1.956l0,0c-0.061-0.027-0.12-0.054-0.178-0.081l0,0
				C50.277,10.646,49.463,11.547,49.306,12.438L49.306,12.438z"/>
		</g>
		<g>
			<path fill-rule="evenodd" clip-rule="evenodd" fill="#FFFFFF" d="M60.419,17.14c0.157,0.586,0.426,1.169,0.446,1.762
				c0.057,1.869,0.12,3.751-0.021,5.613c-0.061,0.804-0.657,1.558-0.941,2.358c-0.265,0.754-0.616,1.534-0.623,2.308
				c-0.054,5.875-0.03,11.75-0.03,17.624c0,0.452,0.021,0.904-0.01,1.356c-0.074,1.032-0.037,2.274-1.508,2.227
				c-1.393-0.047-1.238-1.252-1.238-2.204c-0.014-6.327,0.033-12.654-0.057-18.98c-0.014-0.881-0.678-1.755-1.053-2.626
				c-0.05-0.111-0.184-0.181-0.261-0.285c-0.831-1.095-0.7-7.837,0.589-9.687c0.175,1.494,0.339,2.475,0.393,3.463
				c0.057,1.052,0.014,2.107,0.014,3.162c0.248,0.01,0.495,0.02,0.743,0.03c0.047-1.018,0.073-2.033,0.144-3.048
				c0.07-1.025,0.332-2.214,0.761-3.246c1.104,2.432,0.623,4.2,1.028,6.411c0.194,0.014,0.389,0.027,0.582,0.04
				C59.494,21.37,59.93,17.214,60.419,17.14z"/>
			<path fill="#FFFFFF" d="M57.811,50.774c-0.041,0-0.067,0-0.091,0l0,0c-0.66-0.007-1.159-0.312-1.38-0.747l0,0
				c-0.225-0.426-0.238-0.888-0.241-1.313l0,0c0-0.181,0.003-0.355,0.003-0.516l0,0c0.007-0.003,0.007-0.007,0.004-0.014l0,0l0,0
				c0-0.003,0-0.006,0-0.01l0,0c-0.004-0.01-0.007-0.023,0-0.044l0,0c-0.004-0.871-0.007-1.745-0.007-2.616l0,0
				c0-2.05,0.007-4.093,0.007-6.139l0,0c0-3.393-0.01-6.779-0.061-10.166l0,0c0.01-0.687-0.596-1.541-1.008-2.461l0,0
				c-0.004-0.003-0.018-0.014-0.03-0.027l0,0c-0.04-0.037-0.114-0.094-0.19-0.194l0,0c-0.47-0.677-0.587-2.066-0.607-3.758l0,0
				c0.018-2.375,0.328-5.121,1.186-6.387l0,0l0.587-0.834l0.117,1.011c0.174,1.487,0.335,2.469,0.392,3.487l0,0
				c0.023,0.422,0.03,0.841,0.03,1.259l0,0c0,0.365-0.007,0.73-0.01,1.095l0,0c0.03-0.737,0.057-1.474,0.106-2.214l0,0
				c0.078-1.072,0.346-2.291,0.787-3.366l0,0l0.342-0.824l0.372,0.811c0.998,2.204,0.761,3.885,0.938,5.66l0,0
				c0.15-1.869,0.432-4.401,0.834-5.289l0,0c0.086-0.147,0.141-0.341,0.472-0.425l0,0l0.342-0.054l0.091,0.338
				c0.137,0.542,0.428,1.149,0.455,1.849l0,0c0.033,1.028,0.066,2.066,0.066,3.104l0,0c0,0.848-0.023,1.698-0.087,2.549l0,0
				c-0.091,0.975-0.72,1.735-0.961,2.458l0,0c-0.274,0.774-0.603,1.527-0.603,2.184l0,0c-0.027,3.098-0.034,6.196-0.034,9.297l0,0
				c0,2.69,0.003,5.379,0.003,8.069l0,0c0,0.087,0,0.167,0,0.251l0,0c0,0.251,0.008,0.506,0.008,0.767l0,0
				c0,0.205-0.004,0.409-0.018,0.62l0,0c-0.04,0.492-0.037,1.078-0.248,1.611l0,0c-0.19,0.532-0.729,0.978-1.504,0.978l0,0
				C57.854,50.777,57.83,50.777,57.811,50.774L57.811,50.774z M57.811,50.001c0.579-0.023,0.696-0.178,0.847-0.493l0,0
				c0.141-0.328,0.161-0.857,0.194-1.373l0,0c0.014-0.184,0.014-0.372,0.014-0.566l0,0c0-0.248-0.004-0.502-0.004-0.757l0,0
				c-0.003-0.094-0.003-0.178-0.003-0.261l0,0c0-2.689,0-5.379,0-8.069l0,0c0-3.101,0.007-6.203,0.034-9.308l0,0
				c0.01-0.888,0.391-1.698,0.646-2.432l0,0c0.325-0.881,0.888-1.625,0.918-2.257l0,0c0.063-0.828,0.083-1.658,0.083-2.492l0,0
				c0-1.021-0.029-2.053-0.063-3.081l0,0c-0.004-0.194-0.047-0.405-0.111-0.626l0,0c-0.076,0.368-0.154,0.82-0.225,1.306l0,0
				c-0.18,1.293-0.317,2.837-0.378,3.852l0,0l-0.021,0.392l-0.392-0.03c-0.194-0.013-0.388-0.023-0.583-0.04l0,0l-0.301-0.02
				l-0.054-0.295c-0.353-1.986-0.061-3.51-0.63-5.355l0,0c-0.211,0.724-0.345,1.474-0.392,2.144l0,0
				c-0.067,1.005-0.097,2.02-0.142,3.041l0,0l-0.02,0.385l-0.385-0.017c-0.248-0.01-0.5-0.02-0.747-0.03l0,0l-0.372-0.017v-0.369
				c0-0.649,0.018-1.292,0.018-1.926l0,0c0-0.409-0.008-0.814-0.027-1.216l0,0c-0.033-0.613-0.11-1.232-0.207-1.996l0,0
				c-0.342,1.266-0.533,3.095-0.523,4.676l0,0c-0.02,1.598,0.225,3.058,0.445,3.289l0,0c-0.014,0.017,0.158,0.077,0.309,0.365l0,0
				c0.335,0.817,1.052,1.705,1.085,2.777l0,0c0.044,3.39,0.054,6.782,0.054,10.175l0,0c0,2.046,0,4.093,0,6.139l0,0
				c0,0.888,0,1.779,0.004,2.669l0,0v0.161l-0.008,0.003c0,0.124,0,0.245,0,0.365l0,0c-0.006,0.395,0.034,0.75,0.148,0.948l0,0
				c0.113,0.185,0.234,0.309,0.699,0.339l0,0c0.014,0,0.027,0,0.037,0l0,0C57.787,50.001,57.8,50.001,57.811,50.001L57.811,50.001z"
				/>
		</g>
		<g>
			<path fill-rule="evenodd" clip-rule="evenodd" fill="#FFFFFF" d="M38.103,41.165c0-1.614-0.027-8.977,0.007-10.591
				c0.04-1.869-0.101-3.574-1.192-5.309c-1.306-2.077-1.075-4.498,0.231-6.625c1.252-2.046,3.514-2.05,4.937-0.121
				c1.527,2.066,1.376,5.456-0.137,7.657c-0.573,0.827-0.992,1.936-1.022,2.931c-0.11,4.059-0.043,13.876-0.047,17.942
				c0,0.583,0.158,1.256-0.087,1.718c-0.332,0.636-0.975,1.109-1.484,1.648c-0.398-0.566-1.108-1.119-1.135-1.705
				c-0.131-2.509-0.057-5.031-0.057-7.546C38.113,41.165,38.106,41.165,38.103,41.165z"/>
			<path fill="#FFFFFF" d="M38.99,50.641c-0.325-0.52-1.115-1.032-1.206-1.91l0,0c-0.06-1.179-0.077-2.358-0.077-3.537l0,0
				c0-1.219,0.017-2.435,0.02-3.644l0,0h-0.014v-0.385c0-0.988-0.01-4.137-0.01-6.799l0,0c0-1.685,0.003-3.165,0.02-3.798l0,0
				c0-0.167,0-0.332,0-0.496l0,0c0-1.648-0.194-3.102-1.135-4.599l0,0c-0.637-1.008-0.935-2.103-0.935-3.205l0,0
				c0-1.313,0.418-2.623,1.162-3.832l0,0c0.687-1.129,1.711-1.738,2.776-1.738l0,0c1.032,0,2.047,0.563,2.804,1.591l0,0
				c0.787,1.068,1.149,2.432,1.149,3.808l0,0c0,1.521-0.436,3.068-1.28,4.3l0,0c-0.532,0.764-0.931,1.826-0.951,2.717l0,0
				c-0.054,1.872-0.067,4.98-0.067,8.182l0,0c0,3.543,0.017,7.201,0.017,9.432l0,0c0,0.107,0,0.211,0,0.312l0,0l0.003,0.167l0,0
				c0.01,0.258,0.043,0.556,0.047,0.861l0,0c-0.003,0.285-0.03,0.586-0.177,0.881l0,0c-0.399,0.744-1.075,1.222-1.547,1.732l0,0
				l-0.329,0.348L38.99,50.641L38.99,50.641z M38.504,40.776v0.389c0,1.343-0.023,2.689-0.023,4.029l0,0
				c0,1.169,0.017,2.334,0.077,3.497l0,0c-0.027,0.238,0.378,0.667,0.78,1.149l0,0c0.452-0.438,0.895-0.824,1.109-1.25l0,0
				c0.06-0.114,0.09-0.292,0.09-0.522l0,0c0-0.294-0.047-0.65-0.05-1.015l0,0c0-0.014,0-0.03,0-0.043l0,0c0-0.091,0-0.188,0-0.282
				l0,0c0-2.227-0.017-5.885-0.017-9.432l0,0c0-3.205,0.017-6.313,0.07-8.203l0,0c0.033-1.092,0.479-2.25,1.085-3.138l0,0
				c0.74-1.079,1.146-2.489,1.142-3.858l0,0c0.003-1.246-0.328-2.448-0.995-3.346l0,0c-0.65-0.877-1.437-1.276-2.181-1.276l0,0
				c-0.764,0.003-1.53,0.418-2.117,1.367l0,0c-0.68,1.105-1.045,2.281-1.045,3.426l0,0c0,0.961,0.254,1.906,0.814,2.79l0,0
				c1.045,1.658,1.256,3.309,1.256,5.014l0,0c0,0.171,0,0.338-0.007,0.513l0,0c-0.01,0.613-0.013,2.1-0.013,3.781l0,0
				c0,2.375,0.007,5.138,0.01,6.411l0,0H38.504L38.504,40.776z M38.491,41.165h-0.389H38.491L38.491,41.165z"/>
		</g>
	</g>
	<g>
		<path fill-rule="evenodd" clip-rule="evenodd" fill="#8BC53F" d="M51.493,9.467c0.05,0.737,0.141,1.477,0.141,2.217
			c0.014,4.712,0.07,9.428-0.007,14.141c-0.12,7.472-0.291,14.941-0.559,22.407c-0.031,0.747-0.801,2.023-1.344,2.09
			c-1.483,0.181-1.363-1.172-1.37-2.197c-0.014-2.649,0.07-5.299-0.02-7.941c-0.201-6.025-0.664-12.044-0.657-18.066
			c0.007-3.255,0.636-6.535,1.25-9.753c0.218-1.146,1.222-2.137,1.869-3.198C51.027,9.266,51.262,9.366,51.493,9.467z"/>
		<path fill-rule="evenodd" clip-rule="evenodd" fill="#8BC53F" d="M60.419,17.14c0.157,0.586,0.426,1.169,0.446,1.762
			c0.057,1.869,0.12,3.751-0.021,5.613c-0.061,0.804-0.657,1.558-0.941,2.358c-0.265,0.754-0.616,1.534-0.623,2.308
			c-0.054,5.875-0.03,11.75-0.03,17.624c0,0.452,0.021,0.904-0.01,1.356c-0.074,1.032-0.037,2.274-1.508,2.227
			c-1.393-0.047-1.238-1.252-1.238-2.204c-0.014-6.327,0.033-12.654-0.057-18.98c-0.014-0.881-0.678-1.755-1.053-2.626
			c-0.05-0.111-0.184-0.181-0.261-0.285c-0.831-1.095-0.7-7.837,0.589-9.687c0.175,1.494,0.339,2.475,0.393,3.463
			c0.057,1.052,0.014,2.107,0.014,3.162c0.248,0.01,0.495,0.02,0.743,0.03c0.047-1.018,0.073-2.033,0.144-3.048
			c0.07-1.025,0.332-2.214,0.761-3.246c1.104,2.432,0.623,4.2,1.028,6.411c0.194,0.014,0.389,0.027,0.582,0.04
			C59.494,21.37,59.93,17.214,60.419,17.14z"/>
		<path fill-rule="evenodd" clip-rule="evenodd" fill="#8BC53F" d="M38.103,41.165c0-1.614-0.027-8.977,0.007-10.591
			c0.04-1.869-0.101-3.574-1.192-5.309c-1.306-2.077-1.075-4.498,0.231-6.625c1.252-2.046,3.514-2.05,4.937-0.121
			c1.527,2.066,1.376,5.456-0.137,7.657c-0.573,0.827-0.992,1.936-1.022,2.931c-0.11,4.059-0.043,13.876-0.047,17.942
			c0,0.583,0.158,1.256-0.087,1.718c-0.332,0.636-0.975,1.109-1.484,1.648c-0.398-0.566-1.108-1.119-1.135-1.705
			c-0.131-2.509-0.057-5.031-0.057-7.546C38.113,41.165,38.106,41.165,38.103,41.165z"/>
	</g>
</g>
</svg>
