<?xml version="1.0" encoding="utf-8"?>
<!-- Generator: Adobe Illustrator 18.1.0, SVG Export Plug-In . SVG Version: 6.00 Build 0)  -->
<svg version="1.0" id="Layer_1" xmlns="http://www.w3.org/2000/svg" xmlns:xlink="http://www.w3.org/1999/xlink" x="0px" y="0px"
	 viewBox="0 0 150 150" enable-background="new 0 0 150 150" xml:space="preserve">
<g>
	<path fill="#F37421" d="M137.4,78.7c0-27.7-22.4-50.1-50.1-50.1c-27.7,0-50.1,22.4-50.1,50.1c0,19.6,11.2,36.5,27.5,44.7V75.7
		c0-2.1,1.7-3.7,3.8-3.7c2.1,0,3.8,1.7,3.8,3.7v50.8c1.7,0.5,3.5,1,5.2,1.3V75.7c0-2.1,1.7-3.7,3.7-3.7s3.8,1.7,3.8,3.7v52.5
		c0,0.2,0,0.4-0.1,0.5c0.8,0,1.6,0.1,2.4,0.1c1,0,2,0,2.9-0.1c0-0.2-0.1-0.3-0.1-0.5V75.7c0-2.1,1.7-3.7,3.8-3.7
		c2.1,0,3.7,1.7,3.7,3.7v52c1.8-0.4,3.5-0.8,5.2-1.4V75.7c0-2.1,1.7-3.7,3.7-3.7c2.1,0,3.8,1.7,3.8,3.7v47.5
		C126.5,114.8,137.4,98.1,137.4,78.7z M109.2,68.7H65.9c-1.8,0-3.3-1.5-3.3-3.3c0-1.8,1.5-3.3,3.3-3.3h43.3c1.8,0,3.3,1.5,3.3,3.3
		C112.5,67.2,111,68.7,109.2,68.7z M117.9,60.4H57.3c-2.6,0-4.7-1.7-4.7-3.7c0-2.1,2.1-3.7,4.7-3.7h60.6c2.6,0,4.7,1.7,4.7,3.7
		C122.6,58.7,120.5,60.4,117.9,60.4z"/>
	<path fill="#F37421" d="M87.2,139.3c-35.4,0-64.1-28.5-64.1-63.6c0-35.1,28.7-63.6,64.1-63.6c11.5,0,22.3,3,31.7,8.3
		C107.9,12.8,94.4,8.3,79.9,8.3c-37.8,0-68.4,30.4-68.4,67.8c0,37.5,30.6,67.8,68.4,67.8c17.1,0,32.7-6.2,44.7-16.5
		C114.1,134.9,101.2,139.3,87.2,139.3z"/>
	<path fill="#333037" d="M65.8,131.5c-5.9-2.5-11.4-6.1-16.3-10.8c-2.8-2.7-5.2-5.7-7.3-8.9c-16-22.5-14.6-53.4,4.7-73.4
		c21.8-22.6,58.2-22.6,81.4-0.1c3.7,3.6,6.8,7.7,9.4,11.9c-2.9-6.3-6.9-12.3-12.1-17.4C102.4,10.3,65,11.4,42,35.2
		c-23,23.9-23,61.5,0.1,84c9.4,9.2,21.1,14.4,33.3,15.8C72.2,134.2,68.9,133,65.8,131.5z"/>
</g>
</svg>
