<?xml version="1.0" encoding="utf-8"?>
<!-- Generator: Adobe Illustrator 18.1.0, SVG Export Plug-In . SVG Version: 6.00 Build 0)  -->
<svg version="1.1" id="Layer_1" xmlns="http://www.w3.org/2000/svg" xmlns:xlink="http://www.w3.org/1999/xlink" x="0px" y="0px"
	 viewBox="0 0 2000 2000" enable-background="new 0 0 2000 2000" xml:space="preserve">
<g>
	<path fill="#FD4F57" d="M844.7,839c180.9,147.2,337.3-67.5,337.3-67.5s-88.9,95.1-208.5-3.1c-119.6-98.1-76.7-257.6,6.1-435.5
		c82.8-177.9,18.4-223.9,18.4-223.9c39.9,55.2-24.5,156.4-95,236.1C832.4,425,659.6,688.5,844.7,839z"/>
	<path fill="#FFAD48" d="M1157.5,651.2c-32.3,56.6-79.7,85.9-147.2,70.5c0,0,113.5,61.3,202.4-18.4c63-56.5,52.1-171.7-82.8-337.3
		C1129.9,365.9,1218.8,543.8,1157.5,651.2z"/>
	<path fill="#FD4F57" d="M999.6,587.6c0,28,22.7,50.6,50.6,50.6c27.9,0,50.6-22.6,50.6-50.6c0-27.9-22.7-50.6-50.6-50.6
		C1022.2,537,999.6,559.6,999.6,587.6z"/>
	<path fill="#FD4F57" d="M1167,1188.4c-181-147.2-337.4,67.5-337.4,67.5s88.9-95.1,208.6,3c119.6,98.2,76.6,257.6-6.1,435.5
		c-82.8,177.9-18.4,223.8-18.4,223.8c-39.9-55.2,24.5-156.4,95-236.1C1179.2,1602.4,1352,1339,1167,1188.4z"/>
	<path fill="#FFAD48" d="M854.1,1376.3c32.4-56.6,79.7-85.9,147.2-70.5c0,0-113.5-61.3-202.4,18.4c-63,56.5-52.1,171.7,82.8,337.3
		C881.7,1661.5,792.8,1483.7,854.1,1376.3z"/>
	<path fill="#FD4F57" d="M1012.1,1439.9c0-28-22.7-50.6-50.6-50.6c-28,0-50.6,22.6-50.6,50.6s22.6,50.6,50.6,50.6
		C989.4,1490.5,1012.1,1467.8,1012.1,1439.9z"/>
	<path fill="#FD4F57" d="M1683,919.6c-79.7-70.5-343.2-243.3-493.7-58.3c-147.2,180.9,67.5,337.3,67.5,337.3s-95.1-88.9,3.1-208.5
		c98.1-119.6,257.6-76.7,435.5,6.1c177.9,82.8,223.9,18.4,223.9,18.4C1864,1054.6,1762.8,990.2,1683,919.6z"/>
	<path fill="#FFAD48" d="M1377.2,1174.2c-56.6-32.3-85.9-79.7-70.5-147.2c0,0-61.3,113.5,18.4,202.4c56.5,63,171.7,52.1,337.3-82.8
		C1662.4,1146.6,1484.5,1235.6,1377.2,1174.2z"/>
	<path fill="#FD4F57" d="M1491.4,1066.9c0-28-22.7-50.6-50.6-50.6c-28,0-50.6,22.7-50.6,50.6c0,28,22.7,50.6,50.6,50.6
		C1468.7,1117.5,1491.4,1094.8,1491.4,1066.9z"/>
	<path fill="#FD4F57" d="M811.1,1183.6c147.2-180.9-67.5-337.3-67.5-337.3s95.1,88.9-3.1,208.5c-98.1,119.6-257.6,76.7-435.5-6.1
		c-177.9-82.8-223.9-18.4-223.9-18.4c55.2-39.9,156.4,24.5,236.2,95.1C397.1,1195.9,660.5,1368.7,811.1,1183.6z"/>
	<path fill="#FFAD48" d="M623.2,870.8c56.6,32.4,85.9,79.7,70.5,147.2c0,0,61.3-113.5-18.4-202.4c-56.5-63-171.7-52.1-337.3,82.8
		C338,898.4,515.8,809.5,623.2,870.8z"/>
	<path fill="#FD4F57" d="M509,978.1c0,28,22.7,50.6,50.6,50.6c28,0,50.6-22.7,50.6-50.6s-22.6-50.6-50.6-50.6
		C531.7,927.6,509,950.2,509,978.1z"/>
</g>
</svg>
