<?xml version="1.0" encoding="utf-8"?>
<!-- Generator: Adobe Illustrator 16.0.0, SVG Export Plug-In . SVG Version: 6.00 Build 0)  -->
<!DOCTYPE svg PUBLIC "-//W3C//DTD SVG 1.1//EN" "http://www.w3.org/Graphics/SVG/1.1/DTD/svg11.dtd">
<svg version="1.1" id="Layer_1" xmlns="http://www.w3.org/2000/svg" xmlns:xlink="http://www.w3.org/1999/xlink" x="0px" y="0px"
	 width="100px" height="100px" viewBox="0 0 100 100" enable-background="new 0 0 100 100" xml:space="preserve">
<g>
	<path fill="#58595B" d="M35.493,30.882c1.19-0.571,2.439-1.022,3.704-1.408c1.266-0.389,2.554-0.704,3.854-0.968
		c2.604-0.519,5.261-0.804,7.935-0.875c5.344-0.133,10.76,0.622,15.899,2.311c5.139,1.677,9.977,4.303,14.143,7.696
		c4.156,3.4,7.673,7.517,10.166,12.157c-1.987-1.73-3.938-3.423-5.966-4.985c-2.02-1.569-4.085-3.03-6.223-4.355
		c-4.256-2.66-8.778-4.774-13.496-6.326c-4.721-1.552-9.631-2.539-14.647-3.046c-2.513-0.262-5.048-0.396-7.608-0.43
		C40.691,30.62,38.115,30.681,35.493,30.882z"/>
	<path fill="#58595B" d="M81.16,73.77c-1.194,0.564-2.442,1.012-3.709,1.387c-1.268,0.383-2.558,0.691-3.86,0.949
		c-2.604,0.512-5.265,0.783-7.939,0.842c-5.344,0.104-10.758-0.68-15.886-2.389c-5.131-1.699-9.96-4.35-14.108-7.762
		c-4.139-3.418-7.639-7.551-10.109-12.205c1.979,1.744,3.922,3.443,5.942,5.016c2.012,1.576,4.073,3.051,6.201,4.385
		c4.247,2.682,8.756,4.814,13.466,6.389c4.714,1.572,9.621,2.582,14.637,3.117c2.508,0.27,5.045,0.416,7.604,0.461
		C75.959,74.006,78.537,73.957,81.16,73.77z"/>
	<g>
		<path fill="#00ADEE" d="M73.354,63.096c-2.263-1.961-4.651-3.797-7.192-5.436c-2.829-1.814-5.852-3.393-9.094-4.537
			c-1.924-0.68-3.933-1.199-5.992-1.508c-0.071-1.203-0.133-2.311-0.078-3.369c0.064-1.466,0.318-2.793,0.785-4.061
			c0.466-1.265,1.152-2.486,2.018-3.703c0.58-0.824,1.232-1.637,1.94-2.483l0.63,0.164l0.877,0.239
			c1.162,0.325,2.308,0.688,3.436,1.065c2.257,0.764,4.459,1.612,6.571,2.623c2.104,1.025,4.109,2.242,5.936,3.685
			c1.82,1.449,3.477,3.118,4.805,5.042c0.664,0.963,1.238,1.984,1.678,3.074c0.433,1.092,0.73,2.25,0.684,3.463l0.433,0.098
			c0.503-1.229,0.535-2.617,0.374-3.934c-0.174-1.326-0.574-2.611-1.109-3.833c-1.072-2.443-2.695-4.617-4.598-6.469
			c-1.905-1.856-4.097-3.393-6.431-4.62c-2.327-1.242-4.815-2.144-7.359-2.701c-1.271-0.285-2.55-0.479-3.834-0.614l-0.965-0.083
			l-0.952-0.07c-0.652-0.042-1.295-0.065-1.941-0.076c-2.587-0.022-5.148,0.169-7.668,0.559c-2.518,0.394-5.011,0.975-7.403,1.962
			c-1.191,0.502-2.361,1.093-3.463,1.849c-1.089,0.763-2.125,1.69-2.942,2.862c-0.239,0.345-0.456,0.712-0.649,1.098
			c-0.002-0.003-0.006-0.003-0.01-0.005c-0.574-0.222-1.171-0.37-1.776-0.443c-1.209-0.156-2.436,0.002-3.526,0.388
			c-0.546,0.193-1.063,0.438-1.546,0.718c-0.498,0.29-0.903,0.577-1.325,0.867c-0.834,0.572-1.619,1.179-2.385,1.494
			c-0.385,0.161-0.766,0.239-1.176,0.227c-0.411-0.013-0.847-0.114-1.282-0.269c-0.874-0.315-1.732-0.812-2.565-1.341
			c-1.667-1.07-3.261-2.297-4.839-3.534c1.41,1.429,2.831,2.844,4.39,4.151c0.784,0.646,1.597,1.277,2.559,1.773
			c0.48,0.244,1.008,0.451,1.596,0.547c0.585,0.098,1.221,0.053,1.787-0.101c0.571-0.151,1.076-0.38,1.549-0.614
			c0.473-0.232,0.917-0.474,1.356-0.7c0.436-0.227,0.884-0.461,1.281-0.627c0.409-0.171,0.825-0.302,1.239-0.39
			c0.83-0.177,1.655-0.164,2.418,0.04c0.382,0.101,0.749,0.244,1.09,0.433c0.113,0.06,0.218,0.131,0.325,0.202
			c-0.007,0.063-0.019,0.126-0.024,0.189c-0.136,1.503,0.136,3.02,0.666,4.365c0.131,0.34,0.276,0.67,0.433,0.992
			c0.078,0.158,0.157,0.32,0.24,0.477l0.127,0.234l0.117,0.213c0.355,0.604,0.705,1.162,1.1,1.713
			c0.775,1.098,1.631,2.119,2.532,3.086c3.615,3.855,8.011,6.965,12.955,8.922c4.93,1.936,10.425,2.689,15.675,1.822
			c5.246-0.857,10.107-3.314,13.751-6.836l-0.254-0.361C76.684,61.818,75.029,62.523,73.354,63.096z M35.688,50.691l-0.25-0.346
			c-0.077-0.111-0.149-0.223-0.223-0.333c-0.146-0.221-0.281-0.448-0.406-0.678c-0.49-0.919-0.828-1.881-0.896-2.871
			c-0.072-0.99,0.116-2.015,0.585-2.98c0.464-0.968,1.183-1.869,2.053-2.635c0.864-0.773,1.872-1.426,2.948-1.948
			c2.156-1.055,4.559-1.65,6.977-1.856c2.423-0.196,4.868,0.005,7.229,0.483c-0.624,0.295-1.222,0.655-1.784,1.078
			c-1.438,1.081-2.656,2.605-3.317,4.406c-0.678,1.793-0.735,3.807-0.25,5.573c0.291,1.04,0.74,2.005,1.335,2.855
			c-0.949-0.094-1.909-0.148-2.877-0.139c-1.776,0.012-3.574,0.205-5.347,0.623c-0.888,0.207-1.769,0.471-2.64,0.801
			c-0.357,0.139-0.714,0.291-1.07,0.453c-0.35-0.375-0.693-0.756-1.019-1.146C36.375,51.592,36.005,51.137,35.688,50.691z
			 M69.739,64.092c-0.582,0.125-1.165,0.234-1.751,0.322c-1.168,0.176-2.34,0.27-3.506,0.309c-4.68,0.133-9.278-0.902-13.559-2.709
			c-2.149-0.889-4.22-1.982-6.213-3.211c-1.259-0.789-2.481-1.648-3.644-2.574c0.476-0.221,0.967-0.422,1.469-0.602
			c1.422-0.508,2.929-0.846,4.469-1.027c3.088-0.367,6.303-0.096,9.442,0.637c3.146,0.73,6.222,1.918,9.168,3.381
			c2.63,1.311,5.164,2.844,7.608,4.525c-0.574,0.191-1.156,0.371-1.738,0.531C70.906,63.832,70.324,63.969,69.739,64.092z"/>
		<path fill="#00ADEE" d="M45.581,46.51c0.128-0.738-0.369-1.44-1.107-1.566l-5.827-1c-0.738-0.129-1.439,0.368-1.566,1.105
			c-0.101,0.582,0.186,1.139,0.673,1.414c0.131,0.073,0.277,0.125,0.434,0.151l5.828,1.003
			C44.752,47.745,45.456,47.249,45.581,46.51z"/>
	</g>
</g>
</svg>
