<?xml version="1.0" encoding="utf-8"?>
<!-- Generator: Adobe Illustrator 14.0.0, SVG Export Plug-In . SVG Version: 6.00 Build 43363)  -->
<!DOCTYPE svg PUBLIC "-//W3C//DTD SVG 1.1//EN" "http://www.w3.org/Graphics/SVG/1.1/DTD/svg11.dtd">
<svg version="1.1" id="Layer_1" xmlns="http://www.w3.org/2000/svg" xmlns:xlink="http://www.w3.org/1999/xlink" x="0px" y="0px"
	 width="150px" height="150px" viewBox="0 0 150 150" enable-background="new 0 0 150 150" xml:space="preserve">
<g>
	<path fill="#962F35" d="M99.436,25.627v10.22H92.12v3l1.214,0.223c1.823,0.319,3.045,2.053,2.721,3.881s-2.068,3.047-3.889,2.716
		l-0.046-0.002v6.275l1.214,0.226c1.823,0.319,3.045,2.059,2.721,3.884c-0.324,1.82-2.068,3.042-3.889,2.723l-0.046-0.015v6.283
		l1.214,0.218c1.823,0.321,3.045,2.061,2.721,3.886s-2.068,3.04-3.889,2.72l-0.046-0.012v6.28l1.214,0.224
		c1.823,0.316,3.045,2.061,2.721,3.885c-0.324,1.823-2.068,3.04-3.889,2.717l-0.046-0.01v0.299L78.154,99.889l-5.769,6.712
		l1.011-5.49l-16.66-15.864v-6.561l-1.206-0.211c-1.826-0.326-3.042-2.058-2.725-3.888c0.33-1.823,2.068-3.04,3.892-2.716
		l0.04,0.008v-6.283L55.53,65.38c-1.826-0.326-3.042-2.061-2.725-3.888c0.33-1.823,2.068-3.042,3.892-2.718l0.04,0.01v-6.292
		l-1.206-0.208c-1.826-0.327-3.042-2.066-2.725-3.888c0.33-1.823,2.068-3.04,3.892-2.716l0.04,0.005v-6.28l-1.206-0.216
		c-1.637-0.294-2.725-1.732-2.707-3.341h-3.401V25.64C36.53,33.892,27.967,48.309,27.967,64.75
		c0,25.662,20.802,46.462,46.461,46.462c25.662,0,46.462-20.8,46.462-46.462C120.891,48.304,112.328,33.882,99.436,25.627"/>
	<path fill="#4D311D" d="M74.429,119.306c-30.144,0-54.672-24.897-54.672-55.493c0-30.598,24.528-55.493,54.672-55.493
		c30.145,0,54.67,24.895,54.67,55.493C129.1,94.408,104.574,119.306,74.429,119.306 M74.429,14.289
		c-26.907,0-48.794,22.216-48.794,49.524c0,27.308,21.887,49.521,48.794,49.521c26.904,0,48.793-22.213,48.793-49.521
		C123.223,36.504,101.333,14.289,74.429,14.289"/>
	<path fill-rule="evenodd" clip-rule="evenodd" fill="#962F35" d="M61.964,140.12c0.645-2.583,1.584-5.301,4.054-7.845
		c2.467-2.549,4.961-2.289,5.939-0.95"/>
	<path fill-rule="evenodd" clip-rule="evenodd" fill="#962F35" d="M71.957,131.325c0.977,1.34,0.663,4.075-2.135,6.165
		c-2.804,2.088-5.424,2.497-7.857,2.63"/>
	<path fill-rule="evenodd" clip-rule="evenodd" fill="#962F35" d="M62.029,131.276c0.75,1.45,0.072,4.03-2.917,5.573
		c-2.986,1.541-5.568,1.497-7.925,1.21c0.979-2.37,2.263-4.835,4.991-6.869C58.908,129.154,61.277,129.827,62.029,131.276"/>
	<path fill-rule="evenodd" clip-rule="evenodd" fill="#962F35" d="M52.583,129.488c0.522,1.528-0.487,3.888-3.574,4.874
		c-3.085,0.986-5.562,0.516-7.792-0.149c1.268-2.122,2.847-4.273,5.75-5.782C49.874,126.925,52.058,127.97,52.583,129.488"/>
	<path fill-rule="evenodd" clip-rule="evenodd" fill="#962F35" d="M43.877,126.456c0.23,1.565-1.158,3.604-4.271,3.881
		c-3.119,0.274-5.398-0.704-7.405-1.822c1.587-1.747,3.471-3.459,6.511-4.271C41.751,123.432,43.651,124.889,43.877,126.456"/>
	<path fill-rule="evenodd" clip-rule="evenodd" fill="#962F35" d="M35.929,121.785c0.01,1.538-1.592,3.275-4.629,3.04
		c-3.034-0.236-5.092-1.554-6.874-2.944c1.764-1.425,3.799-2.771,6.828-3.062C34.286,118.532,35.917,120.242,35.929,121.785"/>
	<path fill-rule="evenodd" clip-rule="evenodd" fill="#962F35" d="M28.922,116.038c-0.192,1.486-1.969,2.892-4.852,2.183
		c-2.883-0.719-4.686-2.309-6.213-3.933c1.887-1.089,4.022-2.051,6.971-1.85C27.782,112.649,29.119,114.556,28.922,116.038"/>
	<path fill-rule="evenodd" clip-rule="evenodd" fill="#962F35" d="M22.929,109.446c-0.385,1.391-2.274,2.458-4.949,1.31
		c-2.675-1.15-4.192-2.968-5.441-4.776c1.952-0.738,4.135-1.324,6.941-0.645C22.283,106.009,23.313,108.055,22.929,109.446"/>
	<path fill-rule="evenodd" clip-rule="evenodd" fill="#962F35" d="M17.975,102.209c-0.556,1.271-2.514,1.99-4.921,0.452
		c-2.406-1.541-3.62-3.53-4.574-5.466c1.971-0.396,4.147-0.597,6.741,0.508C17.819,98.81,18.533,100.937,17.975,102.209"/>
	<path fill-rule="evenodd" clip-rule="evenodd" fill="#962F35" d="M14.066,94.519c-0.706,1.124-2.683,1.489-4.773-0.388
		c-2.097-1.866-2.984-3.977-3.632-5.993c1.942-0.041,4.049,0.12,6.388,1.609C14.385,91.236,14.775,93.388,14.066,94.519"/>
	<path fill-rule="evenodd" clip-rule="evenodd" fill="#962F35" d="M11.379,86.335c-0.791,1.003-2.726,1.124-4.562-0.925
		c-1.836-2.046-2.488-4.176-2.919-6.191c1.876,0.182,3.888,0.584,5.999,2.289C12,83.21,12.17,85.329,11.379,86.335"/>
	<path fill-rule="evenodd" clip-rule="evenodd" fill="#962F35" d="M9.552,78.247c-0.894,0.829-2.761,0.61-4.223-1.658
		c-1.47-2.27-1.789-4.411-1.914-6.408c1.764,0.488,3.627,1.212,5.4,3.206C10.588,75.372,10.449,77.426,9.552,78.247"/>
	<path fill-rule="evenodd" clip-rule="evenodd" fill="#962F35" d="M8.867,70.031c-0.944,0.682-2.713,0.258-3.896-2.097
		c-1.184-2.357-1.282-4.458-1.206-6.388c1.647,0.68,3.366,1.607,4.871,3.727C10.146,67.392,9.809,69.35,8.867,70.031"/>
	<path fill-rule="evenodd" clip-rule="evenodd" fill="#962F35" d="M8.895,62.098c-1.001,0.488-2.624-0.226-3.417-2.669
		c-0.789-2.448-0.585-4.467-0.233-6.292c1.472,0.932,2.979,2.105,4.109,4.386C10.487,59.804,9.89,61.615,8.895,62.098"/>
	<path fill-rule="evenodd" clip-rule="evenodd" fill="#962F35" d="M9.982,54.322c-1,0.353-2.486-0.528-3.004-2.966
		c-0.52-2.441-0.118-4.35,0.391-6.064c1.322,1.07,2.65,2.377,3.51,4.7C11.741,52.315,10.985,53.971,9.982,54.322"/>
	<path fill-rule="evenodd" clip-rule="evenodd" fill="#962F35" d="M11.846,46.916c-0.995,0.218-2.337-0.8-2.588-3.199
		c-0.255-2.399,0.314-4.178,0.975-5.758c1.158,1.183,2.306,2.593,2.896,4.916C13.725,45.201,12.838,46.697,11.846,46.916"/>
	<path fill-rule="evenodd" clip-rule="evenodd" fill="#962F35" d="M14.25,39.988c-0.978,0.04-2.102-1.16-2.009-3.479
		c0.092-2.321,0.885-3.913,1.735-5.306c0.931,1.322,1.824,2.855,2.06,5.167C16.275,38.675,15.222,39.954,14.25,39.988"/>
	<path fill-rule="evenodd" clip-rule="evenodd" fill="#962F35" d="M17.465,33.531c-0.933-0.079-1.896-1.352-1.58-3.557
		c0.321-2.203,1.231-3.636,2.181-4.862c0.763,1.372,1.462,2.939,1.462,5.179C19.528,32.518,18.4,33.617,17.465,33.531"/>
	<path fill-rule="evenodd" clip-rule="evenodd" fill="#962F35" d="M21.216,27.629c-0.884-0.191-1.673-1.516-1.155-3.579
		c0.522-2.073,1.532-3.324,2.557-4.376c0.59,1.394,1.103,2.976,0.882,5.105C23.28,26.908,22.098,27.815,21.216,27.629"/>
	<path fill-rule="evenodd" clip-rule="evenodd" fill="#962F35" d="M25.27,22.254c-0.808-0.324-1.369-1.717-0.587-3.579
		c0.786-1.867,1.917-2.887,3.035-3.709c0.362,1.423,0.625,3.005,0.119,4.982C27.328,21.928,26.082,22.585,25.27,22.254"/>
	<path fill-rule="evenodd" clip-rule="evenodd" fill="#962F35" d="M29.89,17.549c-0.736-0.412-1.131-1.803-0.199-3.483
		c0.937-1.673,2.115-2.504,3.263-3.15c0.199,1.401,0.287,2.937-0.396,4.75C31.88,17.485,30.624,17.958,29.89,17.549"/>
	<path fill-rule="evenodd" clip-rule="evenodd" fill="#962F35" d="M71.629,127.761c-1.089,1.231-3.594,1.234-5.832-1.555
		c-2.241-2.794-2.941-5.596-3.37-8.235c2.415,0.38,4.99,1.064,7.598,3.435C72.64,123.772,72.715,126.529,71.629,127.761"/>
	<path fill-rule="evenodd" clip-rule="evenodd" fill="#962F35" d="M61.312,127.183c-1.188,1.03-3.591,0.677-5.406-2.316
		c-1.821-2.992-2.16-5.782-2.258-8.362c2.268,0.704,4.655,1.722,6.877,4.361C62.748,123.51,62.501,126.162,61.312,127.183"/>
	<path fill-rule="evenodd" clip-rule="evenodd" fill="#962F35" d="M51.262,124.869c-1.292,0.75-3.519-0.039-4.772-3.233
		c-1.258-3.187-1.143-5.904-0.832-8.383c2.045,1.104,4.154,2.522,5.851,5.459C53.206,121.648,52.554,124.121,51.262,124.869"/>
	<path fill-rule="evenodd" clip-rule="evenodd" fill="#962F35" d="M42.242,120.657c-1.316,0.542-3.367-0.516-4.213-3.744
		c-0.846-3.221-0.434-5.804,0.144-8.14c1.839,1.338,3.696,2.983,4.991,6.021C44.462,117.833,43.561,120.107,42.242,120.657"/>
	<path fill-rule="evenodd" clip-rule="evenodd" fill="#962F35" d="M33.956,115.032c-1.338,0.279-3.124-1.102-3.443-4.32
		c-0.319-3.221,0.462-5.598,1.364-7.708c1.539,1.603,3.059,3.503,3.84,6.629C36.492,112.75,35.288,114.755,33.956,115.032"/>
	<path fill-rule="evenodd" clip-rule="evenodd" fill="#962F35" d="M27.059,108.121c-1.309,0.089-2.864-1.459-2.823-4.58
		c0.041-3.112,1.042-5.291,2.129-7.188c1.301,1.725,2.555,3.738,2.957,6.827C29.729,106.271,28.368,108.025,27.059,108.121"/>
	<path fill-rule="evenodd" clip-rule="evenodd" fill="#962F35" d="M21.166,100.234c-1.251-0.147-2.5-1.892-1.992-4.845
		c0.5-2.951,1.776-4.835,3.092-6.442c0.978,1.88,1.862,4.009,1.789,7.017C23.977,98.964,22.421,100.384,21.166,100.234"/>
	<path fill-rule="evenodd" clip-rule="evenodd" fill="#962F35" d="M16.86,91.653c-1.181-0.302-2.181-2.137-1.382-4.887
		c0.802-2.753,2.224-4.384,3.65-5.745c0.731,1.918,1.347,4.075,0.944,6.925C19.679,90.81,18.038,91.96,16.86,91.653"/>
	<path fill-rule="evenodd" clip-rule="evenodd" fill="#962F35" d="M13.906,82.641c-1.093-0.451-1.846-2.33-0.787-4.848
		c1.066-2.514,2.596-3.881,4.11-4.992c0.482,1.925,0.834,4.06,0.146,6.726C16.686,82.199,14.999,83.082,13.906,82.641"/>
	<path fill-rule="evenodd" clip-rule="evenodd" fill="#962F35" d="M12.306,73.434c-0.99-0.569-1.502-2.458-0.216-4.712
		c1.283-2.26,2.894-3.361,4.454-4.22c0.254,1.899,0.353,3.974-0.594,6.43C15.001,73.38,13.298,74,12.306,73.434"/>
	<path fill-rule="evenodd" clip-rule="evenodd" fill="#962F35" d="M12.014,64.274c-0.879-0.667-1.165-2.532,0.302-4.516
		c1.467-1.978,3.117-2.816,4.693-3.43c0.039,1.837-0.093,3.827-1.253,6.035C14.584,64.576,12.898,64.946,12.014,64.274"/>
	<path fill-rule="evenodd" clip-rule="evenodd" fill="#962F35" d="M12.961,55.379c-0.768-0.748-0.846-2.556,0.757-4.259
		c1.604-1.7,3.265-2.289,4.825-2.674c-0.156,1.751-0.487,3.631-1.826,5.586C15.375,55.987,13.732,56.122,12.961,55.379"/>
	<path fill-rule="evenodd" clip-rule="evenodd" fill="#962F35" d="M15.063,46.933c-0.655-0.805-0.547-2.537,1.146-3.959
		c1.699-1.425,3.334-1.786,4.856-1.96c-0.324,1.646-0.824,3.39-2.296,5.093C17.302,47.804,15.722,47.732,15.063,46.933"/>
	<path fill-rule="evenodd" clip-rule="evenodd" fill="#962F35" d="M18.207,39.097c-0.551-0.841-0.282-2.478,1.465-3.638
		c1.745-1.163,3.337-1.32,4.809-1.317c-0.47,1.536-1.11,3.138-2.667,4.59C20.254,40.182,18.757,39.937,18.207,39.097"/>
	<path fill-rule="evenodd" clip-rule="evenodd" fill="#962F35" d="M22.249,31.993c-0.45-0.859-0.048-2.382,1.719-3.305
		c1.762-0.917,3.292-0.893,4.691-0.733c-0.58,1.406-1.336,2.868-2.946,4.08C24.1,33.247,22.695,32.852,22.249,31.993"/>
	<path fill-rule="evenodd" clip-rule="evenodd" fill="#962F35" d="M27.041,25.713c-0.354-0.863,0.153-2.279,1.915-2.976
		c1.758-0.694,3.212-0.52,4.532-0.223c-0.671,1.286-1.512,2.598-3.154,3.591C28.697,27.089,27.396,26.574,27.041,25.713"/>
	<path fill-rule="evenodd" clip-rule="evenodd" fill="#962F35" d="M32.503,20.471c-0.309-0.841,0.235-2.171,1.944-2.755
		c1.71-0.579,3.092-0.343,4.346,0c-0.688,1.2-1.55,2.417-3.155,3.282C34.032,21.867,32.806,21.312,32.503,20.471"/>
	<path fill-rule="evenodd" clip-rule="evenodd" fill="#962F35" d="M35.61,14.713c-0.6-0.626-0.608-2.083,0.726-3.398
		c1.335-1.305,2.685-1.72,3.951-1.975c-0.175,1.401-0.492,2.897-1.627,4.423C37.529,15.285,36.202,15.339,35.61,14.713"/>
	<path fill-rule="evenodd" clip-rule="evenodd" fill="#962F35" d="M87.174,140.12c-0.65-2.583-1.585-5.301-4.055-7.845
		c-2.467-2.549-4.966-2.289-5.943-0.95"/>
	<path fill-rule="evenodd" clip-rule="evenodd" fill="#962F35" d="M77.176,131.325c-0.977,1.34-0.662,4.075,2.141,6.165
		c2.801,2.088,5.424,2.497,7.857,2.63"/>
	<path fill-rule="evenodd" clip-rule="evenodd" fill="#962F35" d="M87.104,131.276c-0.75,1.45-0.067,4.03,2.917,5.573
		c2.991,1.541,5.568,1.497,7.93,1.21c-0.985-2.37-2.263-4.835-4.993-6.869C90.227,129.154,87.859,129.827,87.104,131.276"/>
	<path fill-rule="evenodd" clip-rule="evenodd" fill="#962F35" d="M96.551,129.488c-0.525,1.528,0.488,3.888,3.575,4.874
		s5.562,0.516,7.79-0.149c-1.27-2.122-2.842-4.273-5.75-5.782C99.259,126.925,97.079,127.97,96.551,129.488"/>
	<path fill-rule="evenodd" clip-rule="evenodd" fill="#962F35" d="M105.256,126.456c-0.229,1.565,1.155,3.604,4.275,3.881
		c3.119,0.274,5.396-0.704,7.405-1.822c-1.593-1.747-3.474-3.459-6.516-4.271C107.38,123.432,105.484,124.889,105.256,126.456"/>
	<path fill-rule="evenodd" clip-rule="evenodd" fill="#962F35" d="M113.209,121.785c-0.01,1.538,1.592,3.275,4.624,3.04
		c3.037-0.236,5.094-1.554,6.878-2.944c-1.764-1.425-3.803-2.771-6.833-3.062C114.846,118.532,113.219,120.242,113.209,121.785"/>
	<path fill-rule="evenodd" clip-rule="evenodd" fill="#962F35" d="M120.212,116.038c0.193,1.486,1.967,2.892,4.851,2.183
		c2.884-0.719,4.686-2.309,6.215-3.933c-1.884-1.089-4.02-2.051-6.971-1.85C121.354,112.649,120.019,114.556,120.212,116.038"/>
	<path fill-rule="evenodd" clip-rule="evenodd" fill="#962F35" d="M126.208,109.446c0.381,1.391,2.273,2.458,4.946,1.31
		c2.673-1.15,4.19-2.968,5.443-4.776c-1.957-0.738-4.137-1.324-6.94-0.645C126.854,106.009,125.821,108.055,126.208,109.446"/>
	<path fill-rule="evenodd" clip-rule="evenodd" fill="#962F35" d="M131.159,102.209c0.558,1.271,2.513,1.99,4.924,0.452
		c2.406-1.541,3.617-3.53,4.569-5.466c-1.972-0.396-4.143-0.597-6.738,0.508C131.312,98.81,130.599,100.937,131.159,102.209"/>
	<path fill-rule="evenodd" clip-rule="evenodd" fill="#962F35" d="M135.064,94.519c0.709,1.124,2.685,1.489,4.779-0.388
		c2.093-1.866,2.979-3.977,3.627-5.993c-1.941-0.041-4.049,0.12-6.386,1.609S134.359,93.388,135.064,94.519"/>
	<path fill-rule="evenodd" clip-rule="evenodd" fill="#962F35" d="M137.756,86.335c0.789,1.003,2.723,1.124,4.56-0.925
		c1.841-2.046,2.492-4.176,2.919-6.191c-1.874,0.182-3.887,0.584-5.994,2.289C137.133,83.21,136.965,85.329,137.756,86.335"/>
	<path fill-rule="evenodd" clip-rule="evenodd" fill="#962F35" d="M139.582,78.247c0.896,0.829,2.762,0.61,4.226-1.658
		c1.465-2.27,1.786-4.411,1.914-6.408c-1.765,0.488-3.632,1.212-5.403,3.206C138.545,75.372,138.684,77.426,139.582,78.247"/>
	<path fill-rule="evenodd" clip-rule="evenodd" fill="#962F35" d="M140.271,70.031c0.939,0.682,2.711,0.258,3.896-2.097
		c1.184-2.357,1.279-4.458,1.203-6.388c-1.647,0.68-3.365,1.607-4.873,3.727S139.323,69.35,140.271,70.031"/>
	<path fill-rule="evenodd" clip-rule="evenodd" fill="#962F35" d="M140.242,62.098c0.995,0.488,2.62-0.226,3.412-2.669
		c0.794-2.448,0.585-4.467,0.235-6.292c-1.472,0.932-2.979,2.105-4.108,4.386C138.646,59.804,139.247,61.615,140.242,62.098"/>
	<path fill-rule="evenodd" clip-rule="evenodd" fill="#962F35" d="M139.149,54.322c1.003,0.353,2.49-0.528,3.005-2.966
		c0.521-2.441,0.12-4.35-0.393-6.064c-1.321,1.07-2.649,2.377-3.507,4.7C137.395,52.315,138.147,53.971,139.149,54.322"/>
	<path fill-rule="evenodd" clip-rule="evenodd" fill="#962F35" d="M137.289,46.916c0.994,0.218,2.334-0.8,2.589-3.199
		c0.254-2.399-0.319-4.178-0.979-5.758c-1.158,1.183-2.302,2.593-2.895,4.916C135.409,45.201,136.294,46.697,137.289,46.916"/>
	<path fill-rule="evenodd" clip-rule="evenodd" fill="#962F35" d="M134.885,39.988c0.978,0.04,2.104-1.16,2.012-3.479
		c-0.098-2.321-0.887-3.913-1.741-5.306c-0.932,1.322-1.818,2.855-2.057,5.167C132.857,38.675,133.914,39.954,134.885,39.988"/>
	<path fill-rule="evenodd" clip-rule="evenodd" fill="#962F35" d="M131.672,33.531c0.932-0.079,1.892-1.352,1.575-3.557
		c-0.319-2.203-1.231-3.636-2.179-4.862c-0.76,1.372-1.459,2.939-1.464,5.179C129.604,32.518,130.735,33.617,131.672,33.531"/>
	<path fill-rule="evenodd" clip-rule="evenodd" fill="#962F35" d="M127.921,27.629c0.885-0.191,1.674-1.516,1.151-3.579
		c-0.521-2.073-1.53-3.324-2.556-4.376c-0.592,1.394-1.103,2.976-0.884,5.105C125.851,26.908,127.034,27.815,127.921,27.629"/>
	<path fill-rule="evenodd" clip-rule="evenodd" fill="#962F35" d="M123.864,22.254c0.812-0.324,1.372-1.717,0.586-3.579
		c-0.781-1.867-1.917-2.887-3.032-3.709c-0.361,1.423-0.628,3.005-0.116,4.982C121.807,21.928,123.056,22.585,123.864,22.254"/>
	<path fill-rule="evenodd" clip-rule="evenodd" fill="#962F35" d="M119.247,17.549c0.736-0.412,1.126-1.803,0.193-3.483
		c-0.932-1.673-2.114-2.504-3.258-3.15c-0.203,1.401-0.294,2.937,0.392,4.75C117.255,17.485,118.509,17.958,119.247,17.549"/>
	<path fill-rule="evenodd" clip-rule="evenodd" fill="#962F35" d="M77.506,127.761c1.086,1.231,3.594,1.234,5.834-1.555
		c2.242-2.794,2.939-5.596,3.363-8.235c-2.408,0.38-4.982,1.064-7.596,3.435C76.5,123.772,76.422,126.529,77.506,127.761"/>
	<path fill-rule="evenodd" clip-rule="evenodd" fill="#962F35" d="M87.822,127.183c1.186,1.03,3.589,0.677,5.408-2.316
		c1.818-2.992,2.16-5.782,2.258-8.362c-2.268,0.704-4.654,1.722-6.877,4.361C86.387,123.51,86.634,126.162,87.822,127.183"/>
	<path fill-rule="evenodd" clip-rule="evenodd" fill="#962F35" d="M97.87,124.869c1.29,0.75,3.521-0.039,4.775-3.233
		c1.256-3.187,1.144-5.904,0.829-8.383c-2.043,1.104-4.149,2.522-5.851,5.459C95.932,121.648,96.581,124.121,97.87,124.869"/>
	<path fill-rule="evenodd" clip-rule="evenodd" fill="#962F35" d="M106.893,120.657c1.318,0.542,3.363-0.516,4.214-3.744
		c0.846-3.221,0.434-5.804-0.146-8.14c-1.831,1.338-3.69,2.983-4.991,6.021C104.67,117.833,105.572,120.107,106.893,120.657"/>
	<path fill-rule="evenodd" clip-rule="evenodd" fill="#962F35" d="M115.18,115.032c1.335,0.279,3.123-1.102,3.439-4.32
		c0.321-3.221-0.46-5.598-1.364-7.708c-1.539,1.603-3.059,3.503-3.835,6.629C112.644,112.75,113.847,114.755,115.18,115.032"/>
	<path fill-rule="evenodd" clip-rule="evenodd" fill="#962F35" d="M122.073,108.121c1.309,0.089,2.866-1.459,2.828-4.58
		c-0.039-3.112-1.042-5.291-2.132-7.188c-1.301,1.725-2.553,3.738-2.957,6.827C119.405,106.271,120.77,108.025,122.073,108.121"/>
	<path fill-rule="evenodd" clip-rule="evenodd" fill="#962F35" d="M127.967,100.234c1.254-0.147,2.496-1.892,1.997-4.845
		c-0.506-2.951-1.779-4.835-3.095-6.442c-0.98,1.88-1.862,4.009-1.788,7.017C125.155,98.964,126.711,100.384,127.967,100.234"/>
	<path fill-rule="evenodd" clip-rule="evenodd" fill="#962F35" d="M132.277,91.653c1.176-0.302,2.178-2.137,1.382-4.887
		c-0.802-2.753-2.224-4.384-3.652-5.745c-0.731,1.918-1.345,4.075-0.952,6.925C129.456,90.81,131.095,91.96,132.277,91.653"/>
	<path fill-rule="evenodd" clip-rule="evenodd" fill="#962F35" d="M135.229,82.641c1.092-0.451,1.843-2.33,0.783-4.848
		c-1.065-2.514-2.595-3.881-4.105-4.992c-0.486,1.925-0.839,4.06-0.146,6.726C132.447,82.199,134.139,83.082,135.229,82.641"/>
	<path fill-rule="evenodd" clip-rule="evenodd" fill="#962F35" d="M136.829,73.434c0.989-0.569,1.5-2.458,0.216-4.712
		c-1.286-2.26-2.896-3.361-4.451-4.22c-0.259,1.899-0.359,3.974,0.59,6.43C134.132,73.38,135.834,74,136.829,73.434"/>
	<path fill-rule="evenodd" clip-rule="evenodd" fill="#962F35" d="M137.118,64.274c0.885-0.667,1.17-2.532-0.3-4.516
		c-1.467-1.978-3.115-2.816-4.692-3.43c-0.039,1.837,0.091,3.827,1.256,6.035C134.545,64.576,136.236,64.946,137.118,64.274"/>
	<path fill-rule="evenodd" clip-rule="evenodd" fill="#962F35" d="M136.174,55.379c0.768-0.748,0.844-2.556-0.76-4.259
		c-1.605-1.7-3.258-2.289-4.82-2.674c0.151,1.751,0.484,3.631,1.826,5.586C133.76,55.987,135.404,56.122,136.174,55.379"/>
	<path fill-rule="evenodd" clip-rule="evenodd" fill="#962F35" d="M134.07,46.933c0.658-0.805,0.548-2.537-1.147-3.959
		c-1.693-1.425-3.328-1.786-4.858-1.96c0.326,1.646,0.832,3.39,2.299,5.093C131.835,47.804,133.415,47.732,134.07,46.933"/>
	<path fill-rule="evenodd" clip-rule="evenodd" fill="#962F35" d="M130.925,39.097c0.551-0.841,0.285-2.478-1.462-3.638
		c-1.748-1.163-3.335-1.32-4.807-1.317c0.464,1.536,1.105,3.138,2.666,4.59C128.881,40.182,130.378,39.937,130.925,39.097"/>
	<path fill-rule="evenodd" clip-rule="evenodd" fill="#962F35" d="M126.884,31.993c0.452-0.859,0.053-2.382-1.714-3.305
		c-1.768-0.917-3.296-0.893-4.691-0.733c0.578,1.406,1.331,2.868,2.946,4.08C125.038,33.247,126.438,32.852,126.884,31.993"/>
	<path fill-rule="evenodd" clip-rule="evenodd" fill="#962F35" d="M122.097,25.713c0.353-0.863-0.158-2.279-1.917-2.976
		c-1.762-0.694-3.215-0.52-4.535-0.223c0.674,1.286,1.515,2.598,3.153,3.591C120.436,27.089,121.739,26.574,122.097,25.713"/>
	<path fill-rule="evenodd" clip-rule="evenodd" fill="#962F35" d="M116.635,20.471c0.304-0.841-0.236-2.171-1.947-2.755
		c-1.713-0.579-3.095-0.343-4.346,0c0.69,1.2,1.551,2.417,3.157,3.282C115.103,21.867,116.328,21.312,116.635,20.471"/>
	<path fill-rule="evenodd" clip-rule="evenodd" fill="#962F35" d="M113.527,14.713c0.598-0.626,0.604-2.083-0.73-3.398
		c-1.337-1.305-2.686-1.72-3.946-1.975c0.173,1.401,0.491,2.897,1.623,4.423C111.608,15.285,112.931,15.339,113.527,14.713"/>
</g>
</svg>
