<?xml version="1.0" encoding="utf-8"?>
<!-- Generator: Adobe Illustrator 18.1.0, SVG Export Plug-In . SVG Version: 6.00 Build 0)  -->
<svg version="1.1" id="Layer_1" xmlns="http://www.w3.org/2000/svg" xmlns:xlink="http://www.w3.org/1999/xlink" x="0px" y="0px"
	 viewBox="0 0 2000 2000" enable-background="new 0 0 2000 2000" xml:space="preserve">
<g>
	<path fill="#935550" d="M1693,1244.4L1440.9,209.1c0,0-360.1,9-414.1,477.2c0,0-405.1-234.1-918.3,117l1152.4,621.2L1693,1244.4z"
		/>
	<polygon fill="#FFCAA5" points="1855,1811.6 1670.8,1699.2 1770.9,1652.1 1622.3,1354.9 1671.5,1333 1783.4,1646.2 1810.5,1633.5 
		1855,1811.6 1729,1307.4 1323.8,1487.5 	"/>
	<polygon fill="#3F5962" points="1783.4,1646.2 1822,1754.3 1770.9,1652.1 1670.8,1699.2 1855,1811.6 1810.5,1633.5 	"/>
	<path fill="#C69F9A" d="M976.4,620.8c-466.9-256.8-817,31.1-817,31.1l31.1,62.2C540.7,418.5,976.4,620.8,976.4,620.8z"/>
	<path fill="#C69F9A" d="M1256.5,216.2l-38.9-62.2c0,0-194.5,38.9-217.9,443.5C999.8,597.5,1062,255.1,1256.5,216.2z"/>
	<polygon fill="#DCDDDE" points="564,1839 1840.1,1839 805.2,1691.2 	"/>
	<polygon fill="#FFFFFF" points="1783.4,1646.2 1671.5,1333 1622.3,1354.9 1770.9,1652.1 1822,1754.3 	"/>
</g>
</svg>
