<?xml version="1.0" encoding="utf-8"?>
<!-- Generator: Adobe Illustrator 18.1.0, SVG Export Plug-In . SVG Version: 6.00 Build 0)  -->
<svg version="1.0" id="Layer_1" xmlns="http://www.w3.org/2000/svg" xmlns:xlink="http://www.w3.org/1999/xlink" x="0px" y="0px"
	 viewBox="0 0 150 150" enable-background="new 0 0 150 150" xml:space="preserve">
<g>
	<path fill="none" d="M103.5,121.4v5c0.4-0.2,0.7-0.4,1.1-0.6v-4.9C104.3,121,103.9,121.2,103.5,121.4z"/>
	<path fill="#BBD3D9" d="M28.5,90.9V75.6c0-2.6,1.9-5,4.7-5.6l2-0.4l4.2,8.3l3.1-6v16c0,2.5,1.7,4.6,4.1,5v24.2
		c0.3,0.2,0.7,0.4,1.1,0.6V92c-2.2,0-4.1-1.8-4.1-4.1V71.2c0-2.9,2.2-5.5,5.1-6.1l2.2-0.5l4.6,9.1l3.6-7.2c0,0.1,0,0.1,0,0.1v22
		c0,2.7,1.9,4.7,4.3,5.7v30c0.7,0.2,1.4,0.5,2.1,0.6V94c-2.9,0-5.3-2.4-5.3-5.4V66.7c0-3.8,2.8-7.2,6.7-8l2.9-0.6l6,11.9l6-11.9
		l2.9,0.6c3.9,0.8,6.7,4.1,6.7,8v21.9c0,3-2.4,5.4-5.3,5.4V125c0.7-0.2,1.4-0.4,2.1-0.6V94c2.2,0,4.2-2.4,4.2-5.4V66.7
		c0,0,0-0.1,0-0.2l3.6,7.2l4.6-9.1l2.2,0.5c3,0.6,5.1,3.2,5.1,6.1v16.8c0,2.2-1.8,4.1-4.1,4.1v25.9c0.4-0.2,0.7-0.4,1.1-0.6V92
		c1.8,1.1,4.1-1.2,4.1-4.1v-16l3,6l4.2-8.3l2,0.4c2.8,0.6,4.7,2.9,4.7,5.6v15.3c0,2-1.6,3.7-3.7,3.7v8.8c6.1-8.6,9.8-19.1,9.8-30.5
		c-0.1-29.3-23.7-53-53-53c-29.3,0-53,23.7-53,53c0,11.2,3.6,21.6,9.6,30.2v-8.6C30.1,94.7,28.5,93,28.5,90.9z M106.9,61.9
		c0.2-2.8,1.8-4.7,4.8-4.7c3.2,0,4.5,2.1,4.7,4.7c0.8,0,0.8,1,0.7,1.8c-0.1,0.7-0.7,1.6-1.3,2c-1.7,5.4-6.7,5.4-8.4,0
		c-0.6-0.3-1.2-1.2-1.3-2C106.1,63,106.2,61.9,106.9,61.9z M90.5,56.1c0.2-3.1,1.9-5.1,5.3-5.1c3.5,0,5,2.3,5.1,5.1
		c0.9,0,0.9,1.1,0.8,2c-0.1,0.8-0.8,1.8-1.4,2.1c-1.9,5.9-7.3,5.9-9.3,0c-0.6-0.3-1.3-1.3-1.4-2.1C89.6,57.2,89.6,56.1,90.5,56.1z
		 M68.7,47c0.3-4,2.6-6.6,6.9-6.6c4.5,0,6.4,3,6.7,6.6c1.1,0,1.2,1.5,1.1,2.6c-0.2,1.1-1,2.4-1.9,2.8c-2.5,7.7-9.6,7.7-12.1,0
		c-0.8-0.4-1.7-1.8-1.8-2.8C67.4,48.5,67.6,47,68.7,47z M50.1,56.1c0.2-3.1,2-5.1,5.3-5.1c3.4,0,5,2.3,5.2,5.1c0.8,0,0.9,1.1,0.8,2
		c-0.1,0.8-0.8,1.8-1.4,2.1c-1.9,5.9-7.3,5.9-9.3,0c-0.7-0.3-1.3-1.3-1.4-2.1C49.1,57.2,49.2,56.1,50.1,56.1z M34.6,61.9
		c0.2-2.8,1.7-4.7,4.8-4.7c3.1,0,4.5,2.1,4.7,4.7c0.8,0,0.9,1,0.7,1.8c-0.1,0.7-0.7,1.6-1.3,2c-1.8,5.4-6.7,5.4-8.5,0
		c-0.6-0.3-1.2-1.2-1.2-2C33.7,63,33.8,61.9,34.6,61.9z"/>
	<path fill="#00517C" d="M115.9,65.7c0.6-0.3,1.2-1.2,1.3-2c0.1-0.8,0-1.8-0.7-1.8c-0.2-2.5-1.5-4.7-4.7-4.7c-3,0-4.7,1.8-4.8,4.7
		c-0.8,0-0.8,1-0.8,1.8c0.1,0.7,0.8,1.6,1.3,2C109.3,71.1,114.2,71.1,115.9,65.7z"/>
	<path fill="#00517C" d="M122.5,90.9V75.6c0-2.6-1.9-5-4.7-5.6l-2-0.4l-4.2,8.3l-3-6v16c0,2.9-2.3,5.2-4.1,4.1v25.3
		c5.5-3.7,10.4-8.4,14.2-13.8v-8.8C120.9,94.7,122.5,93,122.5,90.9z"/>
	<path fill="#00517C" d="M43.5,65.7c0.6-0.3,1.2-1.2,1.3-2c0.1-0.8,0.1-1.8-0.7-1.8c-0.2-2.5-1.5-4.7-4.7-4.7
		c-3.1,0-4.6,1.8-4.8,4.7c-0.8,0-0.9,1-0.7,1.8c0.1,0.7,0.7,1.6,1.2,2C36.9,71.1,41.8,71.1,43.5,65.7z"/>
	<path fill="#00517C" d="M46.4,117.1V92.9c-2.4-0.5-4.1-2.5-4.1-5v-16l-3.1,6l-4.2-8.3l-2,0.4c-2.7,0.6-4.7,2.9-4.7,5.6v15.3
		c0,2,1.6,3.7,3.7,3.7v8.6C36,108.7,40.8,113.4,46.4,117.1z"/>
	<path fill="#00517C" d="M100.4,60.2c0.6-0.3,1.3-1.3,1.4-2.1c0.1-0.9,0-2-0.8-2c-0.2-2.8-1.7-5.1-5.1-5.1c-3.3,0-5.1,2-5.3,5.1
		c-0.9,0-0.9,1.1-0.8,2c0.1,0.8,0.7,1.8,1.4,2.1C93,66.1,98.4,66.1,100.4,60.2z"/>
	<path fill="#00517C" d="M107.6,87.9V71.2c0-2.9-2.1-5.5-5.1-6.1l-2.2-0.5l-4.6,9.1l-3.6-7.2c0,0.1,0,0.1,0,0.1v22
		c0,3-2.1,5.4-4.2,5.4v30.4c5.6-1.3,10.9-3.6,15.6-6.5V92C105.8,92,107.6,90.2,107.6,87.9z"/>
	<path fill="#00517C" d="M59.9,60.2c0.7-0.3,1.3-1.3,1.4-2.1c0.1-0.9,0-2-0.8-2c-0.2-2.8-1.7-5.1-5.2-5.1c-3.3,0-5.1,2-5.3,5.1
		c-0.9,0-0.9,1.1-0.8,2c0.1,0.8,0.7,1.8,1.4,2.1C52.6,66.1,58,66.1,59.9,60.2z"/>
	<path fill="#00517C" d="M58.9,88.6V66.7c0,0,0-0.1,0-0.2l-3.6,7.2l-4.6-9.1l-2.2,0.5c-3,0.6-5.1,3.2-5.1,6.1v16.8
		c0,2.2,1.9,4.1,4.1,4.1v25.7c4.8,3,10,5.2,15.7,6.6v-30C60.7,93.4,58.9,91.4,58.9,88.6z"/>
	<path fill="#008EA3" d="M69.5,52.5c2.5,7.7,9.6,7.7,12.1,0c0.8-0.4,1.7-1.8,1.9-2.8c0.1-1.2,0.1-2.6-1.1-2.6
		c-0.3-3.6-2.3-6.6-6.7-6.6c-4.4,0-6.7,2.6-6.9,6.6c-1.1,0-1.2,1.5-1.1,2.6C67.8,50.7,68.6,52.1,69.5,52.5z"/>
	<path fill="#008EA3" d="M91.1,88.6V66.7c0-3.8-2.8-7.2-6.7-8l-2.9-0.6l-6,11.9l-6-11.9l-2.9,0.6c-3.9,0.8-6.7,4.1-6.7,8v21.9
		c0,3,2.4,5.4,5.3,5.4v30.9c3.3,0.7,6.8,1.1,10.4,1.1c3.4,0,6.8-0.4,10.1-1V94C88.7,94,91.1,91.6,91.1,88.6z"/>
	<path fill="#BBD3D9" d="M140,73c0-35.6-28.8-64.4-64.4-64.4C40.1,8.6,11.3,37.5,11.3,73c0,18.5,7.9,35.1,20.4,46.8
		c4.3,4,9.1,7.3,14.4,10c0.4,0.2,0.7,0.4,1.1,0.6c4.6,2.3,9.3,4.1,14.4,5.3c1.2,0.2,2.4,0.4,3.6,0.6c3.4,0.6,6.9,1.1,10.5,1.1
		c3.5,0,6.9-0.5,10.2-1.1c1.3-0.2,2.5-0.3,3.8-0.6c5.1-1.1,9.8-3,14.3-5.2c0.4-0.2,0.7-0.4,1.1-0.6c5.3-2.7,10.1-6,14.4-10
		C132,108.3,140,91.7,140,73z M105,126.4c-0.3,0.2-0.7,0.4-1.1,0.6c-5,2.6-10.2,4.8-15.8,6c-0.7,0.1-1.5,0.1-2.3,0.3
		c-3.3,0.6-6.7,1-10.2,1c-3.6,0-7.1-0.5-10.5-1.1c-0.7-0.2-1.5-0.2-2.2-0.3c-5.6-1.2-10.9-3.4-15.8-6c-0.4-0.2-0.7-0.4-1.1-0.6
		c-5.3-2.9-10.2-6.5-14.4-10.9c-10.6-11-17.2-25.9-17.2-42.3c0-33.7,27.5-61.2,61.2-61.2c33.7,0,61.2,27.5,61.2,61.2
		c0,16.6-6.7,31.6-17.4,42.6C115.2,120,110.3,123.5,105,126.4z"/>
	<path fill="#00517C" d="M45.2,122.7c0.4,0.2,0.8,0.4,1.1,0.6c5.1,2.9,10.5,5.3,16.3,6.6c0.7,0.2,1.5,0.3,2.2,0.5
		c3.5,0.7,7.1,1.1,10.8,1.1c3.6,0,7.1-0.4,10.5-1.1c0.7-0.2,1.5-0.3,2.2-0.4c5.8-1.3,11.3-3.6,16.3-6.6c0.4-0.2,0.8-0.4,1.1-0.6
		c5.6-3.5,10.6-7.8,14.8-13c8.2-10,13.5-22.8,13.5-36.8c-0.1-32.3-26.3-58.5-58.5-58.5S17.2,40.8,17.1,73.1
		c0,13.8,5.1,26.4,13.2,36.5C34.6,114.7,39.5,119.2,45.2,122.7z M20.4,73c0.1-30.5,24.7-55.2,55.2-55.2c30.4,0,55.1,24.6,55.2,55.2
		c0,11.8-3.8,22.8-10.2,31.8c-4,5.6-9.1,10.5-14.8,14.4c-0.4,0.2-0.7,0.3-1.1,0.6c-5,3.1-10.4,5.4-16.3,6.8
		c-0.7,0.2-1.5,0.4-2.2,0.6c-3.4,0.7-6.9,1.1-10.5,1.1c-3.7,0-7.3-0.4-10.8-1.1c-0.7-0.1-1.5-0.4-2.2-0.6
		c-5.8-1.4-11.4-3.8-16.3-6.9c-0.4-0.2-0.7-0.3-1.1-0.6c-5.8-3.8-10.8-8.8-14.8-14.5C24.2,95.5,20.4,84.7,20.4,73z"/>
</g>
</svg>
