<?xml version="1.0" encoding="utf-8"?>
<!-- Generator: Adobe Illustrator 18.1.0, SVG Export Plug-In . SVG Version: 6.00 Build 0)  -->
<svg version="1.1" id="Layer_1" xmlns="http://www.w3.org/2000/svg" xmlns:xlink="http://www.w3.org/1999/xlink" x="0px" y="0px"
	 viewBox="0 0 150 150" enable-background="new 0 0 150 150" xml:space="preserve">
<g>
	<path fill="#0B232B" d="M43,43.7c8-3.1,19.7-6.8,30.8-6.8c11.3,0,23.2,3.6,31.2,6.7V46h5v-5.7l-2.6-1C99,36,86.4,32.1,74.1,32.1
		c-12,0-24.3,4-32.7,7.3L39,40.4V46h4V43.7z"/>
	<path fill="#0B232B" d="M89.1,102.2c-5.4,4-10.8,7.3-14.5,9.4c-3.8-2.1-9.3-5.4-14.7-9.3C55,98.8,51.5,96,48.9,93h-6.4
		c4,5,10.2,10.1,14.5,13.2c5.7,4.1,11.6,7.6,15.5,9.7l2.1,1.2l2.1-1.2c3.8-2.2,9.6-5.7,15.3-9.9c4.2-3.1,10.1-8,14.1-13h-6.4
		C97.2,96,93.7,98.8,89.1,102.2z"/>
	<path fill="#3FAFD2" d="M137.5,68.4c-2,0-3.8,1.4-4.4,3.3c-1.4-0.1-2.7-0.1-4.3,0.7c-0.8,0.4-1.1,1.2-1.4,1.8
		c-0.4,1-0.7,1.5-1.7,1.4l-2.9,0c-1.2,0-2,0-3.3-0.1c-1-0.1-1.4-0.7-2.1-1.8c-0.5-0.8-1.1-1.8-2.2-2.1c1.2-0.2,1.8-1.3,2.3-2.2
		c0.6-1.1,1-1.7,1.7-1.7c1.2-0.1,1.8,0,2.9,0l1.2,0c0.3,0.9,1.2,1.6,2.2,1.6c1.3,0,2.4-1.1,2.4-2.4c0-1.4-1-2.5-2.3-2.5
		c-0.6,0-1.1,0.2-1.5,0.6l-1.8,0c-0.5,0-0.9,0-1.3,0c-0.5,0-1.1,0-1.8,0c-2.1,0.1-3.1,1.9-3.8,3c-0.2,0.3-0.4,0.7-0.6,0.9
		c-0.3,0-0.5,0-0.8,0.1c-1.2,0.1-2.4,0.1-3.7,0.1c-1.6,0-3.2,0-4.8-0.1c-1.2-0.1-2.4-0.2-3.7-0.2v-6.1c0.7,0,1.5-0.1,2.3-0.6
		c0.6-0.3,1-0.8,1.3-1.3c0.4-0.5,0.6-1.1,0.9-1.6c0.3-0.7,0.7-1.4,1.1-1.7c0.6-0.4,1.8-0.5,2.8-0.5c0.4,0,0.7,0,1,0l0.6,0v0
		c0.5,0,1,0,1.5,0.1c0.2,0,0.4,0,0.6,0c0.7,0,1.5,0.1,2.3,0.1c1.4,0.1,1.5,0.8,1.8,2c0.2,1.2,0.6,3,2.9,3c1.9,0.1,3.8,0.1,5.8,0.1
		c0.5,1.6,1.9,2.8,3.6,2.8c2.1,0,3.8-1.7,3.8-3.9c0-2.2-1.6-4-3.7-4c-1.9,0-3.6,1.5-3.8,3.5c-1.9,0-3.8-0.1-5.6-0.1
		c-1.1,0-1.2-0.4-1.4-1.7c-0.2-1.1-0.5-2.7-2.4-3.2c1.8-0.5,2.1-2,2.4-3.1c0.3-1.3,0.4-1.6,1.5-1.7l0.8,0c0.2,1.2,1.1,2.1,2.3,2.1
		c1.3,0,2.4-1.1,2.4-2.4c0-1.4-1-2.5-2.3-2.5c-0.8,0-1.6,0.5-2,1.2l-1.2,0c-2.4,0-2.7,1.8-3,3c-0.3,1.2-0.4,1.9-1.8,1.9
		c-0.8,0-1.5,0-2.2,0c-0.2,0-0.5,0-0.7,0c-0.9,0-1.9,0-3,0.1c-0.1,0-0.2,0-0.3,0l0,0c-1.4,0-3,0.2-4.1,1c-0.2,0.1-0.3,0.3-0.4,0.4
		c-0.6,0.7-1.1,1.5-1.4,2.3c-0.3,0.7-0.7,1.5-1.1,1.7c-0.3,0.2-0.7,0.3-1.1,0.3v-9.1l3.7,0l4.4,0.1c0.1,0.2,0.2,0.3,0.4,0.5
		c0.4,0.4,1,0.7,1.6,0.7c0.9,0,1.7-0.5,2.1-1.2c0.2-0.3,0.3-0.7,0.3-1.1c0-0.4-0.1-0.8-0.3-1.1c-0.4-0.7-1.1-1.2-2-1.2
		c-0.6,0-1.2,0.3-1.6,0.7c0,0-0.1,0.1-0.1,0.1l-4.7-0.1l-3.7,0v0c-1.3-0.5-2.8-1-4.4-1.6c-6.6-2.2-14.9-4.3-22.9-4.3
		c-7.7,0-15.8,2-22.2,4.3c-1.6,0.6-3.2,1.1-4.6,1.7v0.3l-4.3-0.1l-4.8-0.1l-4.1,0l-8.9-0.1c-0.4-0.8-1.1-1.3-2.1-1.3
		c-1.3,0-2.3,1-2.4,2.3c0,1.3,1,2.3,2.3,2.4c0.7,0,1.3-0.3,1.8-0.8l9.3,0.1l4.1,0.1l4.8,0.1l4.3,0.1v5.3l-4.3-0.1l-4.8-0.1l-2.5,0
		c-0.3-0.6-0.9-1.1-1.6-1.2c-0.2,0-0.3-0.1-0.5-0.1c-1.3,0-2.3,1-2.4,2.3c0,1.3,1,2.3,2.3,2.4c0.2,0,0.3,0,0.5-0.1
		c0.5-0.1,0.9-0.4,1.2-0.7l2.9,0l4.8,0.1l4.3,0.1v6.6c-1.4,0-2.9,0-4.3,0c-1.6,0-3.2-0.1-4.8-0.2c-1-0.1-2-0.1-3-0.3
		c-0.2-0.1-0.5-0.6-0.7-1c-0.1-0.2-0.3-0.5-0.4-0.7c-0.7-1.1-1.8-2.2-3.7-2.4c-0.3,0-0.6,0-0.9,0c-0.4-1.3-1.7-4.8-4.9-4.9
		c-1.4-0.1-1.8-0.1-2.4,0l-1.2,0c-0.4-0.7-1.1-1.2-2-1.2c-1.3,0-2.4,1.1-2.4,2.4c0,1.4,1,2.5,2.3,2.5c1.2,0,2.1-0.9,2.3-2l0.9,0
		c0.6,0,1,0,2.4,0c1.8,0.1,2.8,2,3.3,3.2c-0.3,0-0.6,0-0.9,0l-2.9,0c-2.7,0-3.6,2-4.1,3.1c-0.1,0.2-0.2,0.4-0.2,0.5
		C19.4,64.9,18.8,65,18,65c-0.3,0-0.6,0-0.9,0c-0.5-2-2.3-3.6-4.3-3.6c-2.5,0-4.6,2.1-4.6,4.8c0,2.7,2,4.8,4.5,4.9
		c2,0,3.8-1.4,4.4-3.3c1.4,0.1,2.7,0.1,4.3-0.7c0.8-0.4,1.1-1.2,1.4-1.8c0.4-1,0.7-1.5,1.7-1.4l2.9,0c1.2,0,2,0,3.3,0.1
		c1,0.1,1.4,0.7,2.1,1.8c0.4,0.7,0.9,1.5,1.8,1.9c0.1,0.1,0.3,0.1,0.5,0.2c-0.2,0-0.3,0.1-0.5,0.1c-0.9,0.4-1.4,1.3-1.9,2.1
		c-0.6,1.1-1,1.7-1.7,1.7c-1.2,0.1-1.8,0-2.9,0l-1.2,0c-0.3-0.9-1.2-1.6-2.2-1.6c-1.3,0-2.4,1.1-2.4,2.4c0,1.4,1,2.5,2.3,2.5
		c0.6,0,1.1-0.2,1.5-0.6l1.8,0c0.5,0,0.9,0,1.3,0c0.5,0,1.1,0,1.8,0c1.8-0.1,2.8-1.3,3.4-2.4c0.1-0.2,0.3-0.4,0.4-0.6
		c0.2-0.3,0.4-0.7,0.6-0.9c1-0.1,2.1-0.2,3.2-0.2c1.6,0,3.2,0,4.8,0.1c1.4,0.1,2.9,0.2,4.3,0.3v6.2c-0.6,0.1-1.2,0.2-1.7,0.5
		c-1.1,0.6-1.7,1.8-2.2,2.9c-0.1,0.3-0.3,0.5-0.4,0.8c-0.2,0.4-0.5,0.8-0.7,1c-0.8,0.6-2.7,0.5-3.9,0.5l-0.2,0l-0.3,0v0
		c-0.5,0-1,0-1.5-0.1c-0.8,0-1.5-0.1-2.3-0.1c-0.2,0-0.4,0-0.6,0c-1.4-0.1-1.5-0.8-1.8-2c-0.2-1.2-0.6-3-2.9-3
		c-1.9-0.1-3.8-0.1-5.8-0.1c-0.5-1.6-1.9-2.8-3.6-2.8c-2.1,0-3.8,1.7-3.8,3.9c0,2.2,1.6,4,3.7,4c1.9,0,3.6-1.5,3.8-3.5
		c1.9,0,3.8,0.1,5.6,0.1c1.1,0,1.2,0.4,1.4,1.7c0.2,1.1,0.5,2.7,2.4,3.2c-1.8,0.5-2.1,2-2.4,3.1c-0.3,1.3-0.4,1.6-1.5,1.7l-0.8,0
		c-0.2-1.2-1.1-2.1-2.3-2.1c-1.3,0-2.4,1.1-2.4,2.4c0,1.4,1,2.5,2.3,2.5c0.8,0,1.6-0.5,2-1.2l1.2,0c2.3,0,2.7-1.8,3-3
		c0.3-1.2,0.4-1.9,1.8-1.9c0.2,0,0.3,0,0.5,0c0.8,0,1.6,0,2.4,0c0.6,0,1.2,0,1.8,0c0.5,0,1,0,1.5,0l0,0c1.1,0,2.3-0.1,3.3-0.6
		c0.3-0.1,0.5-0.3,0.8-0.5c0.9-0.7,1.4-1.8,1.9-2.7c0.3-0.7,0.7-1.5,1.1-1.7c0.2-0.1,0.3-0.2,0.5-0.2v3.7c0,1.2,0.8,3,2.6,5.3
		l-5.1-0.1l-4.9-0.1c-0.2-0.4-0.6-0.7-1-0.9c-0.3-0.2-0.6-0.3-1-0.3c-1.3,0-2.3,1-2.4,2.3c0,1.3,1,2.3,2.3,2.4
		c0.7,0,1.3-0.3,1.8-0.8l1.2,0l6.1,0.1l5.2,0.1c0-0.1,0-0.2,0-0.3c0.6,0.6,1.3,1.3,2,2c2,1.9,4.5,3.9,7.6,6.1
		c4.7,3.4,9.5,6.2,12.8,8.1c3.2-1.9,8-4.7,12.7-8.2c2.9-2.2,5.3-4.2,7.2-6c1-0.9,1.8-1.8,2.6-2.6l4.5,0.1l5.9,0.1l6.1,0.1l3.5,0
		c0.4,0.8,1.1,1.3,2.1,1.3c1.3,0,2.3-1,2.4-2.3c0-1.3-1-2.3-2.3-2.4c-0.7,0-1.3,0.3-1.8,0.8l-3.8,0l-4.7-0.1l-5.4-0.1l-4.3-0.1
		c1.5-2.1,2.2-3.7,2.3-4.9l3.7,0l4.8,0.1l3.7,0l0.1,0c0.4,0.8,1.1,1.3,2.1,1.3c1.3,0,2.3-1,2.4-2.3c0-1.3-1-2.3-2.3-2.4
		c-0.7,0-1.3,0.3-1.8,0.8l-0.5,0l-3.7,0l-4.8-0.1l-3.7,0v-6.6c1.2,0,2.4,0,3.7,0c1.6,0,3.2,0,4.8,0.1c1.2,0.1,2.4,0.1,3.7,0.3
		c0.2,0,0.4,0,0.6,0.1c0.2,0.1,0.5,0.6,0.7,1c0.7,1.2,1.8,2.9,4.1,3.1c0.3,0,0.6,0,0.9,0c0.4,1.3,1.7,4.8,4.9,4.9
		c1.4,0.1,1.8,0.1,2.4,0l1.2,0c0.4,0.7,1.1,1.2,2,1.2c1.3,0,2.4-1.1,2.4-2.4c0-1.4-1-2.5-2.3-2.5c-1.2,0-2.1,0.9-2.3,2l-0.9,0
		c-0.6,0-1,0-2.4,0c-1.8-0.1-2.8-2-3.3-3.2c0.3,0,0.6,0,0.9,0l2.9,0c2.7,0,3.6-2,4.1-3.1c0.1-0.2,0.2-0.4,0.2-0.5
		c0.7-0.3,1.3-0.4,2.1-0.4c0.3,0,0.6,0,0.9,0c0.5,2,2.3,3.6,4.3,3.6c2.5,0,4.6-2.1,4.6-4.8C142,70.6,140,68.4,137.5,68.4z
		 M79.8,76.3c0,1.6-1.3,3-3,3h-3c-1.7,0-3-1.3-3-3l2.3-12.9c-1.4-0.8-2.4-2.3-2.4-4.1c0-2.6,2.1-4.7,4.7-4.7c2.6,0,4.7,2.1,4.7,4.7
		c0,1.9-1.1,3.5-2.7,4.2L79.8,76.3z"/>
	<path fill="#35495E" d="M80.2,59.3c0-2.6-2.1-4.7-4.7-4.7c-2.6,0-4.7,2.1-4.7,4.7c0,1.8,1,3.3,2.4,4.1l-2.3,12.8
		c0,1.6,1.3,2.9,3,2.9h3c1.6,0,3-1.2,3-2.9l-2.3-12.7C79.1,62.7,80.2,61.2,80.2,59.3z"/>
</g>
</svg>
