<?xml version="1.0" encoding="utf-8"?>
<!-- Generator: Adobe Illustrator 18.1.0, SVG Export Plug-In . SVG Version: 6.00 Build 0)  -->
<svg version="1.1" id="Layer_1" xmlns="http://www.w3.org/2000/svg" xmlns:xlink="http://www.w3.org/1999/xlink" x="0px" y="0px"
	 viewBox="0 0 150 150" enable-background="new 0 0 150 150" xml:space="preserve">
<g>
	<g>
		<g>
			<path fill="#00AFB5" d="M76.8,15.3c35.3,0,64,28.6,64,64c0,8.5-1.7,16.6-4.7,24c3.8-8.2,5.9-17.2,5.9-26.8c0-35.3-28.6-64-64-64
				c-26.8,0-49.8,16.5-59.3,40C28.9,30.6,51,15.3,76.8,15.3z"/>
		</g>
	</g>
	<path fill="#00AFB5" d="M82.1,49.2c0,5.3-4.3,9.5-9.5,9.5c-5.3,0-9.5-4.3-9.5-9.5c0-5.3,4.3-9.5,9.5-9.5
		C77.8,39.7,82.1,44,82.1,49.2z"/>
	<g>
		<path fill="none" d="M91.3,139.2c25.9-7.2,44.9-30.8,44.9-58.9c0-27.3-18.1-50.5-42.9-58.3c-5.6-1.7-11.5-2.6-17.6-2.6
			c-2,0-4,0.1-6,0.3c-14.5,2.6-25.5,15.1-25.5,30.2c0,16.3,12.8,29.6,28.9,30.7c0.7,0,3.4,0,4.1,0c16.1,1,28.9,14.4,28.9,30.7
			c0,13.7-9,25.3-21.5,29.3c0.9-0.1,1.8-0.2,2.6-0.4c0.4-0.1,0.8-0.2,1.2-0.2C89.4,139.7,90.4,139.5,91.3,139.2z"/>
		<path fill="#00AFB5" d="M106.1,111.3c0-16.3-12.7-29.6-28.9-30.7c-0.7,0-3.4,0-4.1,0c-16.1-1-28.9-14.4-28.9-30.7
			c0-15.1,11-27.7,25.5-30.2c-30.6,3-54.6,29.1-54.6,60.6c0,33.6,27.2,61,60.6,61c3,0,5.9-0.3,8.8-0.7
			C97.1,136.6,106.1,125.1,106.1,111.3z M75.8,121c-5.3,0-9.5-4.3-9.5-9.5c0-5.3,4.3-9.5,9.5-9.5s9.5,4.3,9.5,9.5
			C85.3,116.7,81,121,75.8,121z"/>
		<path fill="#00AFB5" d="M93.3,22c-5.9-1.9-12.1-2.9-18.5-2.9c-8.5,0-8.5,0-0.1,0c-1.7,0-3.3,0.2-4.9,0.5c2-0.2,4-0.3,6-0.3
			C81.9,19.4,87.8,20.3,93.3,22z"/>
		<path fill="#00AFB5" d="M87.2,140.2c0.4-0.1,0.8-0.2,1.2-0.2C88.1,140,87.6,140.1,87.2,140.2z"/>
		<path fill="#00AFB5" d="M136.2,80.3c0,28-19.1,51.7-44.9,58.9c25.9-6.9,45.1-30.6,45.1-58.9c0-27.5-18.2-50.7-43-58.3
			C118.2,29.9,136.2,53,136.2,80.3z"/>
		<path fill="#00AFB5" d="M91.3,139.2c-0.9,0.2-1.9,0.5-2.8,0.7C89.4,139.7,90.4,139.5,91.3,139.2z"/>
		<path fill="#00AFB5" d="M84,140.8c1.1-0.2,2.2-0.4,3.2-0.6c-0.9,0.2-1.7,0.3-2.6,0.4C84.4,140.7,84.2,140.8,84,140.8z"/>
	</g>
</g>
</svg>
