<?xml version="1.0" encoding="utf-8"?>
<!-- Generator: Adobe Illustrator 18.1.0, SVG Export Plug-In . SVG Version: 6.00 Build 0)  -->
<svg version="1.1" id="Layer_1" xmlns="http://www.w3.org/2000/svg" xmlns:xlink="http://www.w3.org/1999/xlink" x="0px" y="0px"
	 viewBox="0 0 150 150" enable-background="new 0 0 150 150" xml:space="preserve">
<g>
	<path fill="#CD3F33" d="M129.3,36.6c-2.4-6.2-17.4-6.3-33.6-0.2C84,40.8,74.9,47.3,71.6,52.9c4.2-4.6,12.6-9.8,23-13.7
		c16.2-6.1,31-6.8,33-1.4c2,5.3-9.5,14.6-25.7,20.7c-7.9,3-15.4,4.7-21.3,5c6.3,0.4,14.8-1.1,23.7-4.5
		C120.5,52.8,131.7,42.8,129.3,36.6z"/>
	<path fill="#CD3F33" d="M24.2,113.4c4.6,4.8,18.5-1.1,30.9-13.1c9-8.7,14.8-18.3,15.6-24.7c-2,5.9-7.7,14-15.6,21.7
		c-12.4,12-25.8,18.5-29.7,14.4c-4-4.1,2.9-17.2,15.4-29.2c6.1-5.9,12.3-10.4,17.6-13c-5.9,2.2-13.2,6.9-20,13.5
		C25.9,95,19.6,108.6,24.2,113.4z"/>
	<path fill="#5D235F" d="M40,66c-15.9-7-26.9-16.8-24.6-22c2.3-5.2,17-3.8,32.9,3.2c9.6,4.2,17.4,9.5,21.5,14.1
		c-2.2-6-11.9-13.4-24.9-18.3c-16.2-6.1-31.2-6-33.6,0.2c-2.4,6.2,8.9,16.3,25.1,22.4c3.6,1.4,7.2,2.4,10.6,3.2
		C44.7,67.9,42.3,67,40,66z"/>
	<path fill="#5D235F" d="M109.8,71.3c15.9,7,26.9,16.8,24.6,22c-2.3,5.2-17,3.8-32.9-3.2C91.9,86,84.1,80.8,80,76.1
		c2.2,6,11.9,13.4,24.9,18.3c16.2,6.1,31.3,6,33.6-0.2c2.4-6.2-8.9-16.3-25.1-22.4c-3.6-1.4-7.2-2.4-10.6-3.2
		C105.1,69.4,107.4,70.3,109.8,71.3z"/>
	<path fill="#5D235F" d="M49.8,33.5c-5.3,0-10.2,2.4-14.5,6.7c3.6-2.6,7.5-4.1,11.6-4.1C63,36,76.1,58.5,76.1,86.3
		c0,19.2-6.3,36-15.5,44.4C71.4,123.3,79,105.2,79,83.9C79,56,65.9,33.5,49.8,33.5z"/>
</g>
</svg>
