<?xml version="1.0" encoding="utf-8"?>
<!-- Generator: Adobe Illustrator 16.0.0, SVG Export Plug-In . SVG Version: 6.00 Build 0)  -->
<!DOCTYPE svg PUBLIC "-//W3C//DTD SVG 1.1//EN" "http://www.w3.org/Graphics/SVG/1.1/DTD/svg11.dtd">
<svg version="1.1" id="Layer_1" xmlns="http://www.w3.org/2000/svg" xmlns:xlink="http://www.w3.org/1999/xlink" x="0px" y="0px"
	 width="100px" height="100px" viewBox="0 0 100 100" enable-background="new 0 0 100 100" xml:space="preserve">
<g>
	<radialGradient id="SVGID_1_" cx="49.8452" cy="16.2036" r="39.0478" gradientUnits="userSpaceOnUse">
		<stop  offset="0" style="stop-color:#8BC53F"/>
		<stop  offset="0.3455" style="stop-color:#50B749"/>
		<stop  offset="0.6485" style="stop-color:#009345"/>
		<stop  offset="1" style="stop-color:#006838"/>
	</radialGradient>
	<path fill="url(#SVGID_1_)" d="M94.376,66.072c0,0-5.758-0.424-14.704-0.857c-1.384-17.26-14.165-30.778-29.729-30.778
		c-15.453,0-28.161,13.331-29.695,30.413c-5.167,0.28-10.141,0.678-14.737,1.223H94.376z"/>
	<path fill="#FFFFFF" d="M77.6,64.224c-1.255-16.404-13.155-29.269-27.656-29.269c-14.499,0-26.399,12.864-27.653,29.269H77.6z"/>
	<path fill="#90D8F7" d="M29.867,46.457h40.072c-4.823-6.562-12.009-10.728-20.035-10.728
		C41.875,35.729,34.689,39.895,29.867,46.457z"/>
	<path fill="#FFFFFF" d="M42.129,42.128c0.074-0.119,0.118-0.259,0.118-0.41c0-0.416-0.336-0.753-0.753-0.753
		c-0.085,0-0.165,0.015-0.242,0.039c-0.185-0.261-0.49-0.434-0.836-0.434c-0.426,0-0.792,0.259-0.946,0.631
		c-0.165-0.116-0.365-0.182-0.581-0.182c-0.565,0-1.025,0.458-1.025,1.023c0,0.147,0.032,0.288,0.088,0.412
		c-0.227,0.16-0.375,0.424-0.375,0.719c0,0.488,0.395,0.883,0.88,0.883c0.363,0,0.677-0.222,0.81-0.535
		c0.155,0.257,0.434,0.426,0.754,0.426c0.402,0,0.74-0.271,0.845-0.638c0.146,0.108,0.327,0.17,0.52,0.17
		c0.487,0,0.881-0.395,0.881-0.877C42.267,42.427,42.216,42.264,42.129,42.128z"/>
	<path fill="#FFFFFF" d="M58.245,40.637c-0.419-0.156-0.857-0.156-1.252-0.035c-0.094-0.069-0.199-0.128-0.315-0.17
		c-0.131-0.049-0.265-0.074-0.396-0.076c-0.137-0.518-0.516-0.964-1.056-1.161c-0.663-0.247-1.383-0.052-1.839,0.438
		c-0.189-0.276-0.466-0.495-0.802-0.621c-0.882-0.325-1.863,0.126-2.188,1.008c-0.084,0.229-0.118,0.463-0.103,0.692
		c-0.444,0.119-0.826,0.444-0.998,0.907c-0.279,0.757,0.105,1.6,0.865,1.878c0.567,0.212,1.181,0.047,1.572-0.364
		c0.094,0.488,0.43,0.917,0.927,1.1c0.629,0.231,1.312,0.007,1.688-0.508c0.165,0.251,0.407,0.454,0.713,0.567
		c0.483,0.178,1.001,0.084,1.386-0.202c0.133,0.091,0.275,0.17,0.436,0.229c1.019,0.377,2.147-0.143,2.521-1.161
		C59.778,42.143,59.261,41.014,58.245,40.637z"/>
	<path fill="#FADA00" d="M57.362,46.476c0.06-0.222,0.094-0.451,0.094-0.69c0-1.494-1.212-2.704-2.706-2.704
		s-2.704,1.21-2.704,2.704c0,0.239,0.035,0.468,0.092,0.69H57.362z"/>
	<g>
		<linearGradient id="SVGID_2_" gradientUnits="userSpaceOnUse" x1="40.8237" y1="40.2505" x2="40.8237" y2="77.1369">
			<stop  offset="0" style="stop-color:#8BC53F"/>
			<stop  offset="0.3455" style="stop-color:#50B749"/>
			<stop  offset="0.6485" style="stop-color:#009345"/>
			<stop  offset="1" style="stop-color:#006838"/>
		</linearGradient>
		<path fill="url(#SVGID_2_)" d="M44.313,58.249c0.262-1.52,0.552-3.022,0.875-4.511l0.5-2.23c0.175-0.738,0.34-1.482,0.527-2.217
			c0.234-0.949,0.478-1.893,0.737-2.834h-5.08c-0.78,1.885-1.569,3.759-2.352,5.639l-2.83,6.636
			c-0.47,1.109-0.936,2.222-1.396,3.338c-0.195,0.466-0.396,0.924-0.602,1.381h8.72l0.116-0.653
			C43.795,61.28,44.057,59.767,44.313,58.249z"/>
		<linearGradient id="SVGID_3_" gradientUnits="userSpaceOnUse" x1="59.1006" y1="40.2505" x2="59.1006" y2="77.1369">
			<stop  offset="0" style="stop-color:#8BC53F"/>
			<stop  offset="0.3455" style="stop-color:#50B749"/>
			<stop  offset="0.6485" style="stop-color:#009345"/>
			<stop  offset="1" style="stop-color:#006838"/>
		</linearGradient>
		<path fill="url(#SVGID_3_)" d="M64.967,61.459c-0.702-1.272-1.407-2.54-2.119-3.802c-0.708-1.267-1.389-2.562-2.047-3.885
			l-0.973-2.001c-0.315-0.676-0.639-1.344-0.947-2.032c-0.493-1.074-0.974-2.164-1.435-3.283h-5.309
			c0.482,2.859,0.95,5.718,1.429,8.575l1.368,8.419h11.129L64.967,61.459z"/>
		<linearGradient id="SVGID_4_" gradientUnits="userSpaceOnUse" x1="49.2056" y1="40.2505" x2="49.2056" y2="77.1369">
			<stop  offset="0" style="stop-color:#8BC53F"/>
			<stop  offset="0.3455" style="stop-color:#50B749"/>
			<stop  offset="0.6485" style="stop-color:#009345"/>
			<stop  offset="1" style="stop-color:#006838"/>
		</linearGradient>
		<path fill="url(#SVGID_4_)" d="M53.062,55.197c-0.372-2.914-0.749-5.825-1.117-8.741h-4.609c-0.124,1.055-0.266,2.098-0.419,3.138
			c-0.105,0.767-0.231,1.528-0.35,2.292l-0.38,2.281c-0.266,1.517-0.562,3.017-0.887,4.506c-0.331,1.488-0.653,2.978-0.976,4.469
			l-0.065,0.309h9.895L53.062,55.197z"/>
		<linearGradient id="SVGID_5_" gradientUnits="userSpaceOnUse" x1="69.3691" y1="40.2505" x2="69.3691" y2="77.1362">
			<stop  offset="0" style="stop-color:#8BC53F"/>
			<stop  offset="0.3455" style="stop-color:#50B749"/>
			<stop  offset="0.6485" style="stop-color:#009345"/>
			<stop  offset="1" style="stop-color:#006838"/>
		</linearGradient>
		<path fill="url(#SVGID_5_)" d="M68.035,50.874l5.076,5.048c0.702,0.694,1.407,1.385,2.112,2.071
			c-1.032-4.304-2.861-8.224-5.294-11.537h-6.414C65.026,47.921,66.527,49.404,68.035,50.874z"/>
		<linearGradient id="SVGID_6_" gradientUnits="userSpaceOnUse" x1="66.9561" y1="40.2505" x2="66.9561" y2="77.1369">
			<stop  offset="0" style="stop-color:#8BC53F"/>
			<stop  offset="0.3455" style="stop-color:#50B749"/>
			<stop  offset="0.6485" style="stop-color:#009345"/>
			<stop  offset="1" style="stop-color:#006838"/>
		</linearGradient>
		<path fill="url(#SVGID_6_)" d="M75.068,59.666c-0.809-0.92-1.622-1.832-2.436-2.738l-4.898-5.423
			c-1.493-1.686-2.989-3.353-4.476-5.048h-5.428c0.557,0.858,1.095,1.73,1.627,2.618c0.372,0.608,0.729,1.237,1.095,1.859
			l1.066,1.887c0.703,1.272,1.384,2.568,2.039,3.897c0.648,1.33,1.304,2.657,1.962,3.98l1.375,2.752h9.086
			c-0.079-1.043-0.204-2.068-0.372-3.076C75.495,60.139,75.28,59.905,75.068,59.666z"/>
		<linearGradient id="SVGID_7_" gradientUnits="userSpaceOnUse" x1="32.6826" y1="40.2505" x2="32.6826" y2="77.1369">
			<stop  offset="0" style="stop-color:#8BC53F"/>
			<stop  offset="0.3455" style="stop-color:#50B749"/>
			<stop  offset="0.6485" style="stop-color:#009345"/>
			<stop  offset="1" style="stop-color:#006838"/>
		</linearGradient>
		<path fill="url(#SVGID_7_)" d="M34.443,61.215c0.525-1.054,1.044-2.113,1.561-3.173l3.087-6.38
			c0.856-1.732,1.709-3.473,2.569-5.206h-5.545c-1.043,1.489-2.094,2.958-3.141,4.441l-1.79,2.494l-1.8,2.48
			c-0.596,0.831-1.19,1.667-1.78,2.51c-0.594,0.836-1.208,1.64-1.842,2.406L24.8,61.917c-0.328,0.366-0.649,0.744-0.984,1.097
			c-0.026,0.028-0.055,0.057-0.082,0.085c-0.01,0.119-0.019,0.232-0.029,0.352h9.702C33.741,62.692,34.084,61.945,34.443,61.215z"/>
		<linearGradient id="SVGID_8_" gradientUnits="userSpaceOnUse" x1="29.8999" y1="40.251" x2="29.8999" y2="77.1354">
			<stop  offset="0" style="stop-color:#8BC53F"/>
			<stop  offset="0.3455" style="stop-color:#50B749"/>
			<stop  offset="0.6485" style="stop-color:#009345"/>
			<stop  offset="1" style="stop-color:#006838"/>
		</linearGradient>
		<path fill="url(#SVGID_8_)" d="M24.197,60.891l0.882-1.267c0.597-0.833,1.213-1.631,1.849-2.394
			c0.642-0.757,1.277-1.521,1.912-2.29l1.892-2.322l1.902-2.302c1.077-1.284,2.148-2.579,3.228-3.86h-6.003
			c-3.038,4.136-5.137,9.224-5.918,14.821C24.026,61.147,24.112,61.021,24.197,60.891z"/>
	</g>
</g>
</svg>
