<?xml version="1.0" encoding="utf-8"?>
<!-- Generator: Adobe Illustrator 18.1.0, SVG Export Plug-In . SVG Version: 6.00 Build 0)  -->
<svg version="1.1" id="Layer_1" xmlns="http://www.w3.org/2000/svg" xmlns:xlink="http://www.w3.org/1999/xlink" x="0px" y="0px"
	 viewBox="0 0 150 150" enable-background="new 0 0 150 150" xml:space="preserve">
<g>
	<g>
		<path fill="#035BA9" d="M74.6,33.1c-23.8,0-43.2,19.3-43.2,43.2c0,23.8,19.3,43.2,43.2,43.2c23.8,0,43.2-19.3,43.2-43.2
			C117.7,52.4,98.4,33.1,74.6,33.1z M46.3,99.6c0.7,0.8,1.4,1.5,2.2,2.2C47.7,101.1,47,100.4,46.3,99.6z M60.7,109.5
			c-1-0.4-2-0.8-3-1.3C58.7,108.7,59.7,109.1,60.7,109.5z M57.5,108V88.7c0-9.5,0-19.1,0-28.6c1.6,1.6,2.6,3.3,3.3,5.4
			c0,8.6,0,17.3,0,25.9v18.1C59.6,109,58.5,108.6,57.5,108z M49.6,88.7v14.1c-1.1-1-2.2-2-3.3-3.1v-8.3c0-8.6,0-17.3,0-25.9
			c0.7-2.2,1.6-3.9,3.3-5.4C49.6,69.6,49.6,79.2,49.6,88.7z M52.2,104.9c-0.9-0.7-1.9-1.4-2.7-2.1C50.4,103.5,51.3,104.3,52.2,104.9
			z M53,105.5c1.2,0.8,2.4,1.5,3.7,2.2C55.4,107,54.2,106.3,53,105.5z M70.4,78.7v33.1c-1.1-0.1-2.2-0.3-3.3-0.5V82.4
			c0-11.6,0-23.3,0-34.9c0.4-2.3,0.9-6.1,3.3-7.3C70.4,53,70.4,65.9,70.4,78.7z M69.2,111.7c-0.9-0.1-1.8-0.2-2.6-0.4
			C67.5,111.5,68.4,111.6,69.2,111.7z M70.5,111.9c1.3,0.1,2.7,0.2,4,0.2C73.2,112.1,71.8,112.1,70.5,111.9z M81.5,82.4v29
			c-1.1,0.2-2.2,0.3-3.3,0.5V78.7c0-12.9,0-25.7,0-38.6c2.3,1.2,2.9,5,3.3,7.3C81.5,59.1,81.5,70.8,81.5,82.4z M79.5,111.8
			c-0.3,0-0.7,0.1-1,0.2C78.8,111.9,79.1,111.8,79.5,111.8z M91.1,88.7V108l-3.3,1.4V91.4c0-8.6,0-17.3,0-25.9
			c0.7-2.2,1.7-3.9,3.3-5.4C91.1,69.6,91.1,79.2,91.1,88.7z M90.8,108.5c-0.9,0.4-1.8,0.8-2.8,1.2C89,109.3,89.9,108.9,90.8,108.5z
			 M100.2,102.3c0.8-0.7,1.5-1.4,2.3-2.2C101.7,100.9,100.9,101.6,100.2,102.3z M92.1,107.9c1-0.5,2-1.1,3-1.7
			C94.1,106.8,93.1,107.3,92.1,107.9z M95.9,105.7c1.2-0.8,2.3-1.7,3.4-2.6C98.2,104,97.1,104.9,95.9,105.7z M99,103.3V88.7
			c0-9.5,0-19.1,0-28.6c1.6,1.6,2.6,3.3,3.3,5.4c0,8.6,0,17.3,0,25.9v8.9C101.2,101.3,100.1,102.3,99,103.3z M102.9,99.5V65.4
			c-0.8-2.5-1.8-4.2-3.7-6c-2.8,0-5.6,0-8.4,0c-1.9,1.8-2.9,3.5-3.7,6V110c-1.6,0.6-3.3,1.1-5,1.4V47.4c0-2.8-1-6.5-3.8-7.9
			c-2.7,0-5.5,0-8.2,0c-2.7,1.4-3.8,5.1-3.8,7.9l0,63.8c-1.7-0.4-3.4-0.9-5-1.5V65.4c-0.8-2.5-1.8-4.2-3.7-6c-2.8,0-5.6,0-8.4,0
			c-1.9,1.8-2.9,3.5-3.7,6v33.5c-5.9-6.7-9.4-15.5-9.4-25.2c0-21.2,17.2-38.4,38.4-38.4c21.2,0,38.4,17.2,38.4,38.4
			C112.9,83.7,109.1,92.7,102.9,99.5z"/>
	</g>
	<g>
		<path fill="#FAAF40" d="M133.6,72.9l6.6-1.2l-13.4-0.9c0,0.5,0.1,1.1,0.1,1.6c-0.2-4-0.9-8-2-11.8c0,0.2,0.1,0.3,0.1,0.5l12.2-5.6
			l-13.2,2.4c0.1,0.2,0.1,0.3,0.1,0.5c-1.1-3.3-2.5-6.5-4.3-9.5c0,0,0,0,0,0.1l10.4-8.4l-12.1,5.6c0,0,0,0,0,0
			c-1.8-2.8-3.9-5.4-6.2-7.8l7.9-10.7l-10.3,8.4c0,0,0,0,0,0c-2.4-2.2-5.1-4.2-8-6l5-12.2l-7.9,10.6c0,0,0,0,0,0
			c-2.6-1.4-5.3-2.5-8.2-3.5c-0.3-0.1-0.7-0.2-1-0.3l1.8-13.1L86.5,24c-3.3-0.8-6.6-1.2-9.9-1.4l-1.5-13l-1.7,13
			c-3.4,0.1-6.7,0.4-9.9,1.1l-4.7-12.2l1.5,13c-3.2,0.9-6.4,2.1-9.4,3.6l-7.5-10.6l4.7,12.1l0,0c-2.9,1.7-5.7,3.6-8.2,5.8L30,27
			l7.6,10.6c-2.4,2.3-4.6,4.9-6.5,7.7l0,0l-11.7-5.7l10,8.3c-1.7,2.8-3.2,5.9-4.4,9.1l-12.7-2.6L23.9,60c-1,3.3-1.6,6.6-2,9.9
			L9,70.6l11.7,2.3h7c0.2-4.1,0.9-8.2,2.2-12.2c8-24.6,34.4-38,59-29.9c1.6,0.5,3.2,1.2,4.7,1.8l1.1,0.5c15.6,7.5,25.6,23,26.4,39.8
			H133.6z"/>
	</g>
	<g>
		<path fill="#FAAF40" d="M133.6,79.1l6.6,1.2l-13.4,0.9c0-0.5,0.1-1.1,0.1-1.6c-0.2,4-0.9,8-2,11.8c0-0.2,0.1-0.3,0.1-0.5l12.2,5.6
			L124.1,94c0.1-0.2,0.1-0.3,0.1-0.5c-1.1,3.3-2.5,6.5-4.3,9.5c0,0,0-0.1,0-0.1l10.4,8.4l-12.1-5.6c0,0,0,0,0,0
			c-1.8,2.8-3.9,5.4-6.2,7.8l7.9,10.7l-10.3-8.4c0,0,0,0,0,0c-2.4,2.2-5.1,4.2-8,6l5,12.3l-7.9-10.6c0,0,0,0,0,0
			c-2.6,1.4-5.3,2.5-8.2,3.5c-0.3,0.1-0.7,0.2-1,0.3l1.8,13.1L86.5,128c-3.3,0.8-6.6,1.2-9.9,1.4l-1.5,13l-1.7-13
			c-3.4-0.1-6.7-0.4-9.9-1.1l-4.7,12.2l1.5-13c-3.2-0.9-6.4-2.1-9.4-3.6l-7.5,10.6l4.7-12.1l0,0c-2.9-1.7-5.7-3.6-8.2-5.8L30,125
			l7.6-10.6c-2.4-2.3-4.6-4.9-6.5-7.7c0,0,0,0,0,0l-11.7,5.7l10-8.3c-1.7-2.8-3.2-5.9-4.4-9.1l-12.7,2.6l11.7-5.6
			c-1-3.3-1.6-6.6-2-9.9L9,81.4l11.7-2.3h7c0.2,4.1,0.9,8.2,2.2,12.2c8,24.6,34.4,38,59,29.9c1.6-0.5,3.2-1.1,4.7-1.8l1.1-0.5
			c15.6-7.5,25.6-23,26.4-39.8H133.6z"/>
	</g>
</g>
</svg>
