<?xml version="1.0" encoding="utf-8"?>
<!-- Generator: Adobe Illustrator 18.1.0, SVG Export Plug-In . SVG Version: 6.00 Build 0)  -->
<svg version="1.1" id="Layer_1" xmlns="http://www.w3.org/2000/svg" xmlns:xlink="http://www.w3.org/1999/xlink" x="0px" y="0px"
	 viewBox="0 0 1500 1500" enable-background="new 0 0 1500 1500" xml:space="preserve">
<g>
	<path fill="#366994" d="M1031.8,492.6c-5.6,19.9-15,37.8-29.7,51c38,59.6,57.5,128.6,55.7,197.8c50.4-17.1,104.3-32.6,162.3-46.1
		l1.9,2.7c-54.1,222.4-208.4,704.6-539.2,758.5c0,0-149.2-21.3-261.8-221.5l-0.4-2.4c0,0,36.4-85.2,139.7-191
		c32.8,29.1,61.3,38,61.3,38s119.8-1.5,72.5-2.8c-10.9-0.3-27.6-4.2-47-12.5c-64.6-27.6-159-104.2-167.3-263.3
		c-4.3-82.9-22.7-128.8-43.1-154c13.7-22.1,28.7-41.8,44.6-59.7c129.6,267.7,382.2,356.4,478.6,381.1c24.2,6.2,38.7,8.5,38.7,8.5
		s22.2-21.7,9.1-26.2c-8.9-1.9-17.4-4.1-26-6.2c-280.3-68.8-427.9-251.7-494.4-364.1c19-20.6,39.3-38.3,60.2-53.8
		c24,31.7,76.2,58.4,172,75.6c209.6,25.3,251.8,72.6,251.8,72.6s-22.5-51.5-257.1-94.5C633.5,564.9,589,539.9,565.1,514
		c102.4-68.8,214.3-84.6,263.6-88.2c-121.4,5.8-209.8,35.5-274,75c-23.9-35.8-13.2-70.5-9-80.7c-15.1,31.7-20.8,63.1-7.5,91.4
		c-23.7,16.3-43.9,33.8-60.8,51.8c-25.1-45.2-35.7-75.4-35.7-75.4c9,28.6,19.4,55.4,30.8,80.8c-20,22.1-35.4,44.7-47.3,66.3
		C398,611.3,371,617.7,371,617.7c21.5,3.5,37.3,10.9,49.6,26c-32.5,63.1-35,114.8-33.7,113.1c11.6-36.9,26.4-69.5,43.3-98.7
		c17.1,32,26.4,87.7,37,184.4c11.1,99.1,50.4,158.6,86.6,193.2c-7.3-3.3-14.5-6.7-21.6-10.5C354.9,931,285,718,376.1,549.5
		c23.3-43.1,54.9-78.8,91.9-107c-88.5,17.8-140.3,41.8-140.3,41.8L315,465c-70.4,946.7,377.4,1010.7,377.4,1010.7
		c431.7-70.4,562.9-869.9,562.9-869.9C1178.7,556.7,1103.8,519.9,1031.8,492.6z"/>
	<path fill="#6688AB" d="M981.6,944.5c8.6,2.1,17.1,4.3,26,6.2c13.1,4.4-9.1,26.2-9.1,26.2s-14.4-2.2-38.7-8.5
		c-80.2,79.9-197.5,115.4-312.8,95.9c19.4,8.3,36.1,12.2,47,12.5c47.2,1.4-72.5,2.8-72.5,2.8s-28.5-8.9-61.3-38
		c-103.3,105.8-139.7,191-139.7,191l0.4,2.4c112.6,200.1,261.8,221.5,261.8,221.5c330.8-53.9,485.2-536.1,539.2-758.5l-1.9-2.7
		c-58,13.5-111.9,29-162.3,46.1c-1.3,50.8-14.1,101.7-39.7,149.1C1007.6,910,995.3,928,981.6,944.5z"/>
	<path fill="#F3A153" d="M376.1,549.5C285,718,354.9,931,532.2,1025.2c7.1,3.8,14.4,7.2,21.6,10.5c-36.2-34.6-75.6-94.1-86.6-193.2
		c-10.5-96.8-19.9-152.4-37-184.4c-16.9,29.2-31.7,61.7-43.3,98.7c-1.3,1.7,1.2-50,33.7-113.1c-12.3-15-28.1-22.4-49.6-26
		c0,0,27-6.4,54.2,17.3c11.9-21.6,27.3-44.2,47.3-66.3c-11.4-25.4-21.8-52.2-30.8-80.8c0,0,10.5,30.2,35.7,75.4
		c16.9-18,37.1-35.5,60.8-51.8c-13.3-28.3-7.6-59.8,7.5-91.4c1.1-2.7,1.8-3.7,1.2-2.6c-0.4,0.9-0.8,1.7-1.2,2.6
		c-4.2,10.3-14.9,44.9,9,80.7c64.2-39.5,152.6-69.2,274-75c16.3-1.2,25.8-1.1,25.8-1.1c-8.9,0.2-17.3,0.7-25.8,1.1
		c-49.3,3.6-161.2,19.4-263.6,88.2c23.9,25.8,68.4,50.9,149.1,66.3c234.6,42.9,257.1,94.5,257.1,94.5s-42.3-47.3-251.8-72.6
		c-95.9-17.2-148.1-44-172-75.6c-20.8,15.5-41.1,33.2-60.2,53.8c66.5,112.4,214.1,295.3,494.4,364.1c13.7-16.5,26-34.5,36.5-54
		c25.6-47.4,38.4-98.3,39.7-149.1c1.8-69.2-17.7-138.2-55.7-197.8c14.7-13.2,24-31.1,29.7-51c20-70.8-7-166.9-7-166.9l-25.6,76.7
		C871.3,517.6,820.1,300.1,890.5,293.7c70.4-6.4,64-140.7,64-140.7c-32,44.8-70.4,38.4-83.1-19.2c-12.8-57.6,38.4-108.7,38.4-108.7
		c-70.4,0-83.2,51.2-83.2,140.7c0,89.5-121.5,134.3-159.9,102.4c-38.4-32,70.4-89.6,70.4-89.6c-169,5.6-204,184.9-210,227.5
		c-20.8,10-40.5,22.3-58.9,36.3C431,470.6,399.4,506.4,376.1,549.5z"/>
	<path fill="#F3A153" d="M959.8,968.4c-96.4-24.8-348.9-113.5-478.6-381.1c-15.9,17.9-30.9,37.7-44.6,59.7
		c20.4,25.2,38.8,71.1,43.1,154c8.2,159.1,102.6,235.7,167.3,263.3C762.3,1083.8,879.6,1048.3,959.8,968.4z"/>
	<path fill="#366994" d="M545.7,420.1c0.4-0.9,0.8-1.7,1.2-2.6C547.5,416.4,546.8,417.4,545.7,420.1z"/>
	<path fill="#366994" d="M828.7,425.8c8.5-0.4,16.9-0.9,25.8-1.1C854.5,424.8,844.9,424.6,828.7,425.8z"/>
</g>
</svg>
