<?xml version="1.0" encoding="utf-8"?>
<!-- Generator: Adobe Illustrator 18.1.0, SVG Export Plug-In . SVG Version: 6.00 Build 0)  -->
<svg version="1.1" id="Layer_1" xmlns="http://www.w3.org/2000/svg" xmlns:xlink="http://www.w3.org/1999/xlink" x="0px" y="0px"
	 viewBox="0 0 150 150" enable-background="new 0 0 150 150" xml:space="preserve">
<g>
	<path fill="none" d="M56.1,94.4c2.5-0.4,4.7-1.8,6.2-3.9c0.4-0.6,0.8-1.3,1.1-2L63.3,89l-0.1,0.7l-0.1,0.4c0.2-0.2,0.3-0.5,0.5-0.8
		c0.9-1.6,1.3-3.5,0.9-5.3c-1-4.3-5.6-7-10.4-5.9s-7.9,5.4-6.9,9.7c0.2,0.8,0.6,1.6,1,2.3c0.2,0.2,0.3,0.5,0.5,0.7s0.4,0.4,0.6,0.6
		c-0.4,0.2-0.7,0.4-1.1,0.6c1.7,1.5,4,2.5,6.4,2.5C55,94.5,55.6,94.5,56.1,94.4z M50.3,90.1c-0.2-0.2-0.4-0.4-0.5-0.7
		c-0.4-0.6-0.7-1.2-0.8-1.9c-0.8-3.4,1.7-6.9,5.5-7.7s7.5,1.3,8.2,4.7c0.4,2-0.2,4-1.6,5.5c-0.4,0.4-0.8,0.8-1.3,1.1
		c-0.7,0.5-1.5,0.8-2.4,1c-0.1,0-0.1,0.1-0.2,0.1c-2.4,0.5-4.7-0.1-6.3-1.5C50.6,90.5,50.5,90.3,50.3,90.1z"/>
	<path fill="none" d="M63.8,91.1l0.6-0.1c0,0,2-0.5,5.3-1.2c-2.5,0.6-4.8,1-6.6,1.4l0,0L63.8,91.1z"/>
	<path fill="#170A00" d="M59.9,114.6c4.1,2.1,8.4,3.7,13,4.5c-2.3-1.7-4.5-3.5-6.5-5.6L59.9,114.6z"/>
	<path fill="#170A00" d="M74.2,112.3c3.2,2.6,6.7,4.7,10.4,6.3l-1.3-7.8L74.2,112.3z"/>
	<path fill="#170A00" d="M61.3,107.7c-0.9-1.2-1.8-2.5-2.6-3.8c-0.7,0.5-1.5,0.9-2.4,1.2c-1.9,0.7-4.2,1.1-7.2,1.4c1,1,2,2,3.1,2.9
		l9.2-1.5L61.3,107.7z"/>
	<path fill="#170A00" d="M68.4,106.7l13.8-2.3l-1.6-9.8l-13.1,3.3c-1.1,1.3-2.2,2.4-3.3,3.3c0.9,1.4,1.9,2.7,2.9,4
		C67.5,105.7,67.9,106.2,68.4,106.7z"/>
	<path fill="#170A00" d="M107,54.5l11.9-2c-2.5-4.2-5.7-7.9-9.4-11.1l-9.3,1.5C102.8,46.5,105.1,50.3,107,54.5z"/>
	<path fill="#170A00" d="M102,114.3c4.1-2.2,7.8-5.1,10.9-8.4l-6.5,1.1C105.2,109.6,103.7,112,102,114.3z"/>
	<path fill="#170A00" d="M90.9,117.5c3-2.7,5.6-5.8,7.8-9.3l-9.1,1.5L90.9,117.5z"/>
	<path fill="#170A00" d="M117.6,85.4l-5.3,1.3c-0.4,4.5-1.4,8.9-2.8,13.1l-0.1,0.2l9.2-1.5c2.4-4,4.2-8.3,5.3-13
		c-1.2,0-2.3-0.3-3.4-0.6L117.6,85.4z"/>
	<path fill="#170A00" d="M103.1,99.3c1.3-3.5,2.2-7.2,2.8-11l-19.1,4.8l1.7,10.3l13.8-2.3C102.7,100.5,102.9,99.9,103.1,99.3z"/>
	<path fill="#170A00" d="M93.2,44.1l-14,2.3l1.7,10.3c2.3-0.5,4.4-0.8,6.3-1.1c2.1-0.3,4.4-0.4,7-0.4c2.1,0,4.3,0.1,6.6,0.3l0,0
		c-1.8-3.7-4-7-6.5-10.1C93.9,45,93.6,44.6,93.2,44.1z"/>
	<path fill="#170A00" d="M87.5,38.6c-3.3-2.7-6.9-4.9-10.7-6.5l1.3,8.1L87.5,38.6z"/>
	<path fill="#170A00" d="M101.9,36.2c-4.2-2.3-8.7-3.9-13.4-4.7c2.4,1.7,4.7,3.7,6.8,5.8L101.9,36.2z"/>
	<path fill="#170A00" d="M58.2,51.4c-1.2,3.2-2.1,6.6-2.7,10.1c1,0.3,1.9,0.6,2.8,1l2.9-0.5c4.5-1.4,9-2.7,13.3-3.8l-1.8-10.7
		l-14,2.3C58.6,50.3,58.4,50.8,58.2,51.4z"/>
	<path fill="#170A00" d="M59.3,36.3c-4.2,2.3-8,5.3-11.2,8.8l6.6-1.1C56.1,41.3,57.6,38.7,59.3,36.3z"/>
	<path fill="#170A00" d="M70.5,33.1c-3.1,2.8-5.8,6-8,9.6l9.3-1.5L70.5,33.1z"/>
	<path fill="#170A00" d="M41.8,61.3c1.6,0,3,0.2,4.5,0.4l0.6-2.3c0.9,0.1,1.9,0.3,2.8,0.5c0.5-3.1,1.3-6.1,2.3-9l0,0l-9.4,1.5
		c-1.7,2.8-3.1,5.8-4.1,8.9c0.8-0.1,1.7-0.1,2.6-0.1L41.8,61.3z"/>
	<path fill="#DC2426" d="M31.9,73.5c0.3,0.1,0.5,0.2,0.8,0.3c0.3,0.1,0.5,0.3,0.8,0.4l0.2-0.1l-0.8-0.7L31.9,73.5z"/>
	<path fill="#DC2426" d="M29.5,71.4l8.1-1c-2-0.8-3.6-1.3-4.8-1.5c-0.4-0.1-0.9-0.1-1.4-0.1c-1.2-0.2-2.5,0.2-3.8,1.2
		c-0.4,0.3-1,0.8-1.7,1.5c-0.2,0.4-0.4,0.8-0.6,1.3c-0.2,0.4-0.4,0.8-0.5,1c-0.4,0.9-0.6,1.6-0.7,2.1s-0.2,0.9-0.2,1.2
		c1.4-1.9,2.4-3,3-3.5c0.5-0.3,1.3-0.5,2.3-0.5c-0.2-0.1-0.4-0.2-0.6-0.4C28.1,72.1,28.5,71.5,29.5,71.4z"/>
	<path fill="#DC2426" d="M59.6,64.2c-3.3-1.3-8.4-1.6-12.4-2.2c3,1.2,5,2.3,6.1,3.3c0.1,0.1,0.3,0.5,0.4,0.9c-0.1,0-0.1,0-0.1-0.1
		c-3-1.2-6.3-1.9-10-1.9c-3.2-0.1-5.8,0.3-7.7,1.1c0.9,0.1,1.5,0.2,2,0.3c1.7,0.3,3,0.6,3.9,1s1.5,0.8,1.7,1.2
		c0.3,0.3,0.5,0.4,0.6,0.6c0.4,0.5,0.5,1,0.3,1.6c-0.1,0.1,0.4,1.4,0.6,2.3C48.1,70.2,53.1,67,59.6,64.2z"/>
	<path fill="#DC2426" d="M13,99.5c-1.2,0.2-2.4,0.1-3.7-0.4c-0.7-0.3-1.4-0.7-2-1.1c-0.1,0-0.2-0.2-0.4-0.3c0.6,1,1.2,1.7,1.9,2.4
		c0.7,0.6,1.3,1,1.8,1.2c0.4,0.2,0.7,0.3,0.9,0.3s0.4,0,0.5,0c1.4-0.1,2.4-0.3,3.1-0.8c0.7-0.4,1.2-1.1,1.5-1.9
		c0.2-0.5,0.4-1.3,0.6-2.2l0,0C16,98.3,14.6,99.3,13,99.5z"/>
	<path fill="#DC2426" d="M64.5,91l-0.6,0.1l-0.6,0.1l0,0c-0.4,0.1-0.8,0.2-1.2,0.3c0.3-0.3,0.6-0.7,0.9-1.1c0.1-0.1,0.1-0.2,0.2-0.2
		l0.1-0.4l0.1-0.7l0.1-0.6c-0.3,0.7-0.6,1.4-1.1,2c-1.5,2.1-3.7,3.5-6.2,3.9c-0.6,0.1-1.1,0.1-1.7,0.1c-2.4,0-4.7-0.9-6.4-2.5
		c-2,0.9-4.3,2-5.6,2.3c-0.4,0.1-2.6,0.6-4.8,0.3c0,0.2,0.1,0.3,0,0.5c-0.1,0.6-0.2,1.1-0.2,1.4c-0.1,0.3-0.1,0.6-0.2,0.9
		c-0.5,1.3-2.3,2.2-5.3,2.7c-1,0.1-2.4,0.2-4.3,0.3c2,0.4,4,0.9,6,1.3c4.6,0.5,7.7,0.1,9.3-1.4c0.5-0.5,1.5-1.8,2.9-4.1
		c0.7-1.2,2-1.8,3.9-1.8c0.6,0,1.1,0.1,1.6,0.3c0.8,0.3,1.3,0.8,1.6,1.4s0.3,1.3,0,2.2c-0.3,0.8-1,1.6-2.1,2.5s-2.7,1.7-4.7,2.6
		c4.4-0.1,7.8-0.5,10.1-1.4c2.6-1,4.4-2.7,5.4-5c0.1-0.4,0.6-1.3,1.3-2.5c0.2-0.4,0.6-1,1.2-1.8c0.6-0.3,1-0.4,1.2-0.3
		c0.3,0.1,0.3,0.4,0.2,0.9c-0.1,0.5-0.3,1.2-0.7,2c-0.3,0.7-0.6,1.3-0.9,1.9c-0.3,0.6-0.6,1.1-0.9,1.6c1.4-1.1,2.7-2.5,3.9-4
		l0.1,0.1l45.6-14.1c-14.4,3-31.5,6.6-42.5,9C66.5,90.5,64.5,91,64.5,91z"/>
	<path fill="#DC2426" d="M34.9,76.1c0,0.2,0,0.3-0.1,0.5c0.2-0.1,0.5-0.2,0.8-0.3C35.4,76.3,35.2,76.2,34.9,76.1z"/>
	<path fill="#DC2426" d="M32.3,91L31,85.2l1.5,0.6c0.1-0.3,0.6-1.7-0.6-7.1c-1,0.2-2.3,0.3-3.9,0.3c-3.8-0.2-6.1,0.8-6.9,2.8
		c-0.1,0.3-0.3,0.7-0.4,1c0,0.4,0,0.7-0.1,0.9c0.7-0.5,1.3-0.8,1.7-1c1.4-0.6,2.6-0.7,3.5-0.3c0.5,0.2,0.9,0.5,1.3,1s0.6,1.1,0.8,2
		c0.1,0.3,0,0.6-0.1,0.9c-0.3,0.8-1.5,1.4-3.4,1.9c-2.1,0.4-3.5,0.7-4,0.8c-0.5,0.1-0.9,0.4-1.3,0.8s-0.7,0.9-0.9,1.4
		c-0.3,0.7-0.5,1.6-0.7,3c-0.1,0.4-0.1,0.7-0.2,1c0-0.1,0-0.2,0.1-0.2c0.2-0.4,0.4-0.8,0.6-1s0.8-0.4,1.6-0.4c1.4,0,2.6,0.3,3.6,0.6
		c0.4,0.2,0.9,0.4,1.5,0.8c0.5,0.4,0.9,0.6,1.2,0.7c0.4,0.2,0.8,0.2,1.2,0.2c0.9,0,1.7-0.3,2.4-0.9c1.2-1.1,2.7-1.6,4.5-1.5
		c-0.4-0.4-0.7-1-0.9-1.6L32.3,91z"/>
	<path fill="#170A00" d="M143.7,72.7c0-0.3-0.1-1.1-2.5-1.4c0.4-3.7-0.6-6.5-2.8-8.4c-4.3-3.6-11.7-2.5-13.1-2.3l-3-0.7h-0.2
		c-3.2-0.1-14.8,2.1-16.5,2.5c-3-0.6-3.3-2-5.5-2.6c-6.2-2.7-15.1-2.4-28.3,0.5c-4.4,1-8.5,2.4-12.2,4c-6.5,2.8-11.5,6-14.4,8.1
		c-1.3,0.9-2.2,1.6-2.6,1.9c-0.9,0.3-1.8,0.5-2.6,0.8l-2.8-2.2l2.5-0.3c1-0.1,1.4-0.7,0.8-1.3c-0.6-0.6-1.9-1-2.9-0.8h-0.2l-8.1,1
		c-1,0.1-1.4,0.7-0.8,1.3c0.1,0.1,0.3,0.3,0.6,0.4c0.6,0.3,1.6,0.5,2.3,0.4h0.4l0.9-0.1l0.8,0.7l2.7,2.1c-0.2,0.1-0.5,0.1-0.7,0.2
		c-0.3,0.1-0.5,0.2-0.8,0.3c-3.1,1-3.1,1.3-2.9,1.9c0,0.1,0,0.2,0.1,0.3c1.2,5.3,0.7,6.8,0.6,7.1L31,85.5l1.3,5.8l1,0.7
		c0.1,0.6,0.4,1.2,0.9,1.6c0.2,0.2,0.4,0.3,0.6,0.5c0.8,0.5,1.8,0.8,2.9,0.9c2.2,0.2,4.5-0.3,4.8-0.3c1.3-0.3,3.7-1.3,5.6-2.3
		c0.4-0.2,0.8-0.4,1.1-0.6c-0.2-0.2-0.4-0.4-0.6-0.6c-0.2-0.2-0.3-0.5-0.5-0.7c-0.4-0.7-0.8-1.5-1-2.3c-1-4.3,2.2-8.7,6.9-9.7
		c4.8-1.1,9.4,1.6,10.4,5.9c0.4,1.9,0,3.7-0.9,5.3c-0.1,0.3-0.3,0.5-0.5,0.8c-0.1,0.1-0.1,0.2-0.2,0.2c-0.3,0.4-0.6,0.7-0.9,1.1
		c0.4-0.1,0.8-0.2,1.2-0.3c1.8-0.4,4-0.9,6.6-1.4c11-2.4,28.1-6.1,42.5-9c2.5-0.5,4.8-1,7.1-1.4c-0.3-0.2-0.6-0.4-0.9-0.7
		c-0.3-0.2-0.5-0.4-0.8-0.7c-1-1-1.7-2.2-2-3.6c-1-4.3,2.2-8.7,6.9-9.7c4.8-1.1,9.4,1.6,10.4,5.9c0.3,1.6,0.1,3.1-0.5,4.6
		c-0.1,0.3-0.3,0.6-0.5,0.9s-0.4,0.7-0.7,1c1.8-0.3,3.3-0.7,4.6-0.9C142.6,74.5,143.8,73.7,143.7,72.7z"/>
	<path fill="#170A00" d="M57.2,92.2c0.1,0,0.1-0.1,0.2-0.1c0.9-0.2,1.7-0.6,2.4-1c0.5-0.3,0.9-0.7,1.3-1.1c1.4-1.5,2.1-3.5,1.6-5.5
		c-0.8-3.4-4.5-5.5-8.2-4.7s-6.2,4.3-5.5,7.7c0.2,0.7,0.5,1.3,0.8,1.9c0.2,0.2,0.3,0.5,0.5,0.7s0.4,0.4,0.6,0.6
		C52.5,92.1,54.8,92.7,57.2,92.2z"/>
	<path fill="#170A00" d="M131.2,70.9c-0.8-3.4-4.5-5.5-8.2-4.7c-3.8,0.8-6.3,4.3-5.5,7.7c0.3,1.5,1.2,2.7,2.5,3.6
		c0.3,0.2,0.7,0.4,1.1,0.6c0.5,0.2,1.1,0.4,1.6,0.5c1,0.2,2,0.2,3,0c0.9-0.2,1.7-0.6,2.4-1c0.5-0.3,0.9-0.7,1.3-1.1
		c0.3-0.3,0.6-0.6,0.8-1C131.2,74.1,131.6,72.5,131.2,70.9z"/>
</g>
</svg>
