<?xml version="1.0" encoding="utf-8"?>
<!-- Generator: Adobe Illustrator 16.0.0, SVG Export Plug-In . SVG Version: 6.00 Build 0)  -->
<!DOCTYPE svg PUBLIC "-//W3C//DTD SVG 1.1//EN" "http://www.w3.org/Graphics/SVG/1.1/DTD/svg11.dtd">
<svg version="1.1" id="Layer_1" xmlns="http://www.w3.org/2000/svg" xmlns:xlink="http://www.w3.org/1999/xlink" x="0px" y="0px"
	 width="100px" height="100px" viewBox="0 0 100 100" enable-background="new 0 0 100 100" xml:space="preserve">
<g>
	<g>
		<g>
			<polygon fill="#351433" points="69.272,78.762 50.064,89.041 30.98,78.762 30.98,73.527 69.272,73.527 			"/>
			<polygon fill="#FFF0A3" points="42.789,83.759 50.064,87.676 57.465,83.717 57.465,74.731 42.789,74.731 			"/>
			<g>
				<path fill="#351433" stroke="#351433" stroke-width="0.9204" d="M68.675,66.154c8.022,0,14.902-4.878,17.839-11.838h-6.792
					l-11.42-17.375c2.313-0.06,4.168-1.945,4.168-4.27c0-2.361-1.913-4.271-4.277-4.271c-1.712,0-3.189,1.013-3.87,2.469
					c-2.294,0.366-5.41,1.242-9.785,2.991c0.107-0.379,0.165-0.779,0.165-1.185c0-2.523-2.052-4.573-4.575-4.573
					c-2.521,0-4.571,2.05-4.571,4.573c0,0.406,0.057,0.806,0.161,1.185c-5.062-2.026-8.443-2.883-10.811-3.125
					c-0.709-1.386-2.146-2.334-3.809-2.334c-2.357,0-4.271,1.91-4.271,4.271c0,2.327,1.857,4.216,4.167,4.27L20.492,54.316h-6.75
					c2.935,6.96,9.815,11.838,17.838,11.838c6.163,0,11.65-2.885,15.194-7.373v5.363c-6.091,0.828-11.477,3.87-15.315,8.297h37.337
					c-3.84-4.427-9.225-7.469-15.315-8.297v-5.356C57.025,63.27,62.511,66.154,68.675,66.154z M53.481,39.504
					c4.934-2.133,8.923-3.466,11.616-3.896c0.756,0.801,1.815,1.306,2.997,1.333L57.584,54.316h-4.103V39.504z M42.626,54.316
					L31.21,36.941c1.228-0.033,2.324-0.585,3.083-1.44c2.663,0.248,6.985,1.628,12.481,4.003v14.812H42.626z"/>
				<path fill="#FFF0A3" d="M68.675,66.154c8.022,0,14.902-4.878,17.839-11.838h-6.792l-11.42-17.375
					c2.313-0.06,4.168-1.945,4.168-4.27c0-2.361-1.913-4.271-4.277-4.271c-1.712,0-3.189,1.013-3.87,2.469
					c-2.294,0.366-5.41,1.242-9.785,2.991c0.107-0.379,0.165-0.779,0.165-1.185c0-2.523-2.052-4.573-4.575-4.573
					c-2.521,0-4.571,2.05-4.571,4.573c0,0.406,0.057,0.806,0.161,1.185c-5.062-2.026-8.443-2.883-10.811-3.125
					c-0.709-1.386-2.146-2.334-3.809-2.334c-2.357,0-4.271,1.91-4.271,4.271c0,2.327,1.857,4.216,4.167,4.27L20.492,54.316h-6.75
					c2.935,6.96,9.815,11.838,17.838,11.838c6.163,0,11.65-2.885,15.194-7.373v5.363c-6.091,0.828-11.477,3.87-15.315,8.297h37.337
					c-3.84-4.427-9.225-7.469-15.315-8.297v-5.356C57.025,63.27,62.511,66.154,68.675,66.154z M53.481,39.504
					c4.934-2.133,8.923-3.466,11.616-3.896c0.756,0.801,1.815,1.306,2.997,1.333L57.584,54.316h-4.103V39.504z M42.626,54.316
					L31.21,36.941c1.228-0.033,2.324-0.585,3.083-1.44c2.663,0.248,6.985,1.628,12.481,4.003v14.812H42.626z"/>
				<path fill="#351433" d="M31.129,34.364c0.935,0,1.692-0.757,1.692-1.69c0-0.935-0.757-1.692-1.692-1.692
					s-1.694,0.757-1.694,1.692C29.435,33.607,30.194,34.364,31.129,34.364z M44.809,57.04H17.446
					c3.318,3.832,8.215,6.255,13.683,6.255C36.597,63.295,41.491,60.872,44.809,57.04z M68.705,34.364
					c0.936,0,1.692-0.757,1.692-1.69c0-0.935-0.757-1.692-1.692-1.692c-0.938,0-1.693,0.757-1.693,1.692
					C67.012,33.607,67.768,34.364,68.705,34.364z M55.021,57.04c3.32,3.832,8.216,6.255,13.687,6.255
					c5.465,0,10.36-2.423,13.682-6.255H55.021z M50.601,34.297h-0.025c0.714-0.193,1.246-0.844,1.246-1.623
					c0-0.935-0.758-1.692-1.696-1.692c-0.932,0-1.69,0.757-1.69,1.692c0,0.779,0.531,1.43,1.249,1.623h-0.03v32.883
					c-3.713,0.065-7.234,0.908-10.407,2.386h21.765c-3.175-1.478-6.694-2.32-10.41-2.386V34.297z"/>
			</g>
		</g>
	</g>
	<path fill="#351433" d="M85.983,81.201c3.989-6.804,6.214-14.482,6.283-22.145c0.147-7.655-1.785-15.237-5.454-21.782
		c-3.704-6.526-9.056-12.08-15.495-15.81c-6.397-3.783-13.787-5.814-21.203-5.755c-7.416-0.051-14.81,1.967-21.198,5.761
		c-6.441,3.724-11.791,9.283-15.494,15.807c-3.67,6.548-5.6,14.124-5.454,21.779c0.067,7.662,2.292,15.336,6.278,22.145
		c-4.953-6.159-8.035-13.929-8.833-21.995C4.631,51.14,6.108,42.75,9.826,35.377c3.625-7.421,9.494-13.714,16.534-18.134
		c7.077-4.387,15.418-6.717,23.754-6.747c8.336,0.038,16.678,2.36,23.752,6.755c7.039,4.412,12.901,10.71,16.531,18.132
		c3.718,7.37,5.19,15.756,4.413,23.823C94.013,67.272,90.932,75.042,85.983,81.201z"/>
</g>
</svg>
