<?xml version="1.0" encoding="utf-8"?>
<!-- Generator: Adobe Illustrator 18.1.0, SVG Export Plug-In . SVG Version: 6.00 Build 0)  -->
<svg version="1.1" id="Layer_1" xmlns="http://www.w3.org/2000/svg" xmlns:xlink="http://www.w3.org/1999/xlink" x="0px" y="0px"
	 viewBox="0 0 150 150" enable-background="new 0 0 150 150" xml:space="preserve">
<g>
	<g>
		<path fill="#7DAAC8" d="M67.7,67.2c0.5-0.2,1-0.4,1.5-0.5h0.1c-0.4,0.2-0.9,0.3-1.4,0.5c0.2,0,0.4,0,0.6,0
			c0.4-0.2,0.7-0.3,1.1-0.5h0.1c-0.3,0.1-0.7,0.3-1,0.4c0.2,0,0.4,0,0.6,0c0.2-0.1,0.5-0.3,0.7-0.4h0.1c-0.2,0.1-0.4,0.3-0.7,0.4
			c2.1-0.1,4.2-0.2,6.4-0.3c0-0.2,0-0.4,0-0.7C68.4,66.3,61.2,67,54.6,68c0,0.2,0,0.4,0.1,0.6C58.8,68,63.2,67.5,67.7,67.2z"/>
	</g>
	<g>
		<path fill="#7DAAC8" d="M47.8,69.7c-0.2,0.1-0.4,0.2-0.5,0.3c1.2-0.3,2.5-0.5,3.7-0.7c0-0.2,0-0.4,0-0.5c0,0,0,0,0-0.1
			c-0.9,0.2-1.9,0.4-2.8,0.5C48.2,69.4,48.1,69.6,47.8,69.7z"/>
	</g>
	<g>
		<path fill="#7DAAC8" d="M42.3,71.1c0,0,0-0.1,0.1-0.1c0.1-0.2,0.3-0.4,0.4-0.5c-5.2,1.3-10,2.9-14.2,4.7c0.5-0.1,1.1-0.1,1.6-0.1
			C33.8,73.5,37.9,72.2,42.3,71.1z"/>
	</g>
	<g>
		<path fill="#7DAAC8" d="M119.5,71.4c5.9,1.6,11.3,3.5,15.8,5.6c0-0.1,0.1-0.3,0.1-0.4c-4.5-2.2-9.8-4.1-15.7-5.7
			C119.8,71.1,119.6,71.3,119.5,71.4z"/>
	</g>
	<g>
		<path fill="#7DAAC8" d="M17.9,81.1c-0.1,0.1-0.2,0.2-0.4,0.2c0,0.1,0.1,0.2,0.1,0.3c0.8-0.6,1.6-1.1,2.5-1.6
			C19.3,80.3,18.6,80.7,17.9,81.1z"/>
	</g>
	<g>
		<g>
			<path fill="#5E6E3E" d="M30,85.1c8.9-3.5,16.3-2.5,21.6-2.5c2.8,0,5.8,0.2,9.2,0.1c-0.9-1.1-1.8-2.4-2.3-3.9
				c-3.6-0.3-6.9-0.7-10.3-1c-6.3-0.5-13.2-2-23.1,0.5c-1.8,0.5-3.4,1-4.9,1.6c-0.9,0.5-1.7,1.1-2.5,1.6c0.4,0.9,0.8,1.7,1.1,2.5
				c1,2.1,2,4,3.1,5.9c2-1.8,4.5-3.5,7.9-4.9C29.9,85.1,29.9,85.1,30,85.1z"/>
		</g>
		<g>
			<path fill="#5E6E3E" d="M57.3,88.7c1.6-0.2,3.3-0.5,5.3-0.8c0.6-0.1,1.3-0.2,2-0.4c-0.9-1.3-1.9-2.4-2.7-3.3
				c-0.1-0.1-0.2-0.2-0.3-0.3c-2.8,0.2-5.4,0.1-7.7,0.2c-4.3,0.2-10.3-0.3-17.1,1.5c-1.4,0.4-2.8,0.9-4.3,1.5
				c-3.9,1.7-6.7,3.7-8.7,5.9c0.4,0.5,0.7,1.1,1.1,1.6c2,2.8,4,4.7,5.9,6c1.7-2.6,4.4-5.3,8.8-7.5C46.2,89.7,52.8,89.4,57.3,88.7z"
				/>
		</g>
		<g>
			<path fill="#5E6E3E" d="M65,88.9c-2.4,0.6-4.6,1-6.5,1.4c-4.3,0.9-10.9,1.6-16.8,5c-1.7,1-3.1,2-4.2,3
				c10.2-3.4,19.9-5.2,28.8-5.9c0-0.1,0-0.2,0-0.3c0.1-1.2-0.4-2.4-1-3.5C65.2,88.7,65.1,88.8,65,88.9z"/>
		</g>
		<g>
			<path fill="#5E6E3E" d="M48.2,76.4c3.2,0.4,6.4,0.8,9.8,1.2c-0.1-0.5-0.1-1.1-0.1-1.6c0.4-4.7,5.6-7.2,9.8-8.8
				c-4.5,0.3-8.9,0.8-13.1,1.5c0,0.2,0,0.4,0,0.5c0,0.4-0.1,0.2-0.3,0.4c-0.3,0.2-0.1,0.9-0.5,1.1c-0.1,0.4-0.1,0.8-0.5,0.9
				c-1,0.4-4.6,0.8-3.9-0.5c0.3-0.6,0.8-1.2,1.4-1.5c0.2-0.1,0.2-0.3,0.3-0.4c-1.3,0.2-2.5,0.5-3.7,0.7c-0.3,0.2-0.5,0.4-0.5,0.8
				c0,0.3-0.2,0.6-0.7,0.8c-1.3,0.2-4,0.1-3.8-0.5c-4.4,1.1-8.5,2.4-12.2,3.9C37.3,74.5,42.9,75.8,48.2,76.4z"/>
		</g>
	</g>
	<g>
		<g>
			<path fill="#7A7F35" d="M95.2,90.1c-1.5-0.3-2.9-0.5-4.2-0.8c-0.8-0.2-1.8-0.4-2.7-0.6c0.9,0.5,1.7,1,2.6,1.6
				c1.5,1,2.8,2.1,4,3.4c7.7,1.4,14,3.3,18.6,5c-1.4-1.5-3.3-2.9-5.6-4.3C103.6,91.9,99,90.8,95.2,90.1z"/>
		</g>
		<g>
			<path fill="#7A7F35" d="M117,86.2c-0.1,0-0.2-0.1-0.2-0.1c-0.7,0.1-1.8,0.1-2.5,0c-0.2-0.1-0.4-0.2-0.4-0.3
				c-0.1-0.1-0.1-0.2-0.1-0.4c0-0.3,0-0.4-0.2-0.5c-1.1-0.3-2.1-0.6-3.1-0.8c0,0.2,0.1,0.3,0.2,0.4c0.4,0.3,0.8,0.7,1.1,1.2
				c0.5,1-2.3,0.7-3.1,0.4c-0.3-0.1-0.3-0.5-0.4-0.7c-0.3-0.2-0.2-0.7-0.4-0.9c-0.2-0.2-0.3,0-0.3-0.3c0-0.1,0-0.3,0-0.5
				c-4.7-0.6-8.8-0.4-12-0.5c-3.3-0.2-7,0-11.2-0.5c0,0.1,0.1,0.3,0.1,0.4c0.1,0.1,0.4,0,0.4,0.3c0.7,0.1,0.7,0.8,0.9,1.3
				c0.1,0.5-0.7,0.4-1.1,0.4c-0.6,0-1.7-0.2-2-0.4c-0.2-0.1-0.2-0.5-0.3-0.7c0-0.2-0.2-0.2-0.2-0.4c0-0.2-0.1-0.2-0.3-0.3
				c-0.3-0.1-0.5-0.4-0.3-0.7c0.1-0.1,0.1-0.3,0.1-0.4c-0.8-0.2-1.7-0.4-2.6-0.6c0,0.8,0.2,1.6,0.4,2.3c0.8,0.5,1.7,0.9,2.5,1.4
				c0.6,0.3,1.2,0.7,1.8,1c3.2,0.7,6.1,1.1,8.4,1.5c2.2,0.4,5,0.6,8.1,1.2c3.1,0.6,6.4,1.5,9.6,3.2c5.2,2.7,8,5.9,9.6,9
				c0,0,0.1,0,0.1,0c2.1-1.3,4.3-3.3,6.6-6.4c0.2-0.3,0.5-0.7,0.7-1C125,91,121.9,88.3,117,86.2z"/>
		</g>
		<g>
			<path fill="#7A7F35" d="M73.8,74.2c0-0.5,0.2-0.9,0.4-1c0.3-0.2,0.4-0.5,0.5-0.9c-0.1-0.4,0-0.6,0.1-0.9c0.2-0.3,0.3,0,0.5-0.5
				c0.4-1,0.3-2.6,0.4-3.3c0.1-0.3,0.1-0.6,0.1-0.9c-2.2,0-4.3,0.1-6.4,0.2c-0.1,0-0.1,0.1-0.2,0.1c-1.8,1.1-3.3,2.5-3.6,4.2
				c2,1.8,4.6,3.3,7.9,4.3C73.7,75,73.8,74.3,73.8,74.2z"/>
		</g>
		<g>
			<path fill="#7A7F35" d="M107.5,74.6c0-0.2-0.1-0.3-0.1-0.3c-0.1-0.6-0.8-0.4-1-0.7c0-0.2-0.2-0.4-0.5-0.5
				c-0.3-0.1-1.4-0.2-1.9-0.2c-2.8,0.7-5.7,0.9-6.3,1c-0.7,0.2-0.8,0.1-1.1,0.6c-0.2,0.5-0.1,1.1-0.5,1.4c0,0,0,0.1,0,0.1
				c1.7-0.2,3.5-0.5,5.2-0.6C103.3,75.2,105.4,74.9,107.5,74.6z"/>
		</g>
		<g>
			<path fill="#7A7F35" d="M84.1,79.8c0.1,0.5,0.1,1,0.1,1.6c5.3,0.6,9.7,0.1,13.8,0.2c2.7,0,6-0.2,9.8,0c0.1-1,0.3-1.9,0.3-1.8
				c0.1-0.2,0-0.5,0-0.7c-0.6-0.6-0.3-1.5-0.4-2.2c0-0.1,0-0.3,0-0.6c-2.2,0.2-4.2,0.4-6.2,0.6c-2,0.2-4,0.4-6.1,0.6
				c0,0.1,0,0.1,0,0.2c0,0.5-0.3,0.5-0.4,0c0,0,0-0.1,0-0.1c-3.4,0.3-6.9,0.6-10.9,0.4C84.1,78.5,84.3,79.2,84.1,79.8z"/>
		</g>
		<g>
			<path fill="#7A7F35" d="M81.4,77.7c-0.5,0-1.1-0.1-1.6-0.2c-0.2,1-0.3,2-0.6,2.9c0.8,0.2,1.6,0.4,2.4,0.5
				C81.6,80,81.5,78.8,81.4,77.7z"/>
		</g>
		<g>
			<path fill="#7A7F35" d="M119.6,71.5c-0.3,0.4-0.6,0.9-1.1,1.2c-0.4,0.3-0.6,0.8-0.9,1.3c2.9,0.1,6.1,0.5,9.7,1.4
				c3,0.7,5.5,1.8,7.7,3c0.1-0.4,0.3-0.7,0.4-1.1C130.8,75,125.5,73.1,119.6,71.5z"/>
		</g>
		<g>
			<path fill="#7A7F35" d="M124.6,77.4c-3-0.8-5.8-1.2-8.3-1.3c-0.2,0.1-0.4,0.3-0.4,0.8c-0.1,1.3-1,2.4-0.5,3.7
				c0.1,0.3,0,1.4,0.1,2.2c1.4,0.4,2.8,0.8,4.3,1.4c0.2,0.1,0.3,0.1,0.5,0.2c4.1,1.7,6.9,3.9,8.9,6.1c1.7-2.8,3.3-5.9,4.7-9.1
				c0,0,0,0-0.1,0C131.3,79.8,128.3,78.4,124.6,77.4z"/>
		</g>
		<g>
			<path fill="#7A7F35" d="M73.5,76.2c-1.5-0.5-2.8-1.1-4-1.7c-0.1,0-0.2,0.1-0.3,0.1c0.1,0,0.2-0.1,0.3-0.1
				c-1.5-0.8-2.8-1.8-3.9-2.8c0,0.8,0.1,1.6,0.6,2.4c1.8,1.7,4.1,3.3,7.1,4.5C73.4,77.8,73.4,76.9,73.5,76.2z"/>
		</g>
		<g>
			<path fill="#7A7F35" d="M112.8,79.6c-0.1-0.4-0.2-0.7-0.4-1c-0.2-0.1-0.5-1.1-0.5-0.3c0.2,0.8-0.7,0.8-1.1,1.3
				c-0.2,0.7-0.3,1.4-0.4,2.2c0.8,0.1,1.7,0.2,2.5,0.4C113,81.3,113,80.5,112.8,79.6z"/>
		</g>
		<g>
			<path fill="#7A7F35" d="M74.7,79.2C74.7,79,74.7,79,74.7,79.2C74.6,79.1,74.7,79.2,74.7,79.2z"/>
		</g>
		<g>
			<path fill="#7A7F35" d="M76.4,80.7C76.3,80.7,76.3,80.7,76.4,80.7c-0.1,0.2-0.1,0.5-0.2,0.7c-0.1,0.3-0.3,0.7-0.4-0.1
				c0-0.3,0-0.6,0-0.9c-0.1,0-0.2-0.1-0.2-0.1c-0.1,0.2-0.2,0.4-0.2,0.6c-0.1,0.5-0.4,0.4-0.3-0.1c0-0.2,0.1-0.4,0.1-0.6
				c-0.1,0-0.2-0.1-0.3-0.1c0,0.1,0,0.1-0.1,0.2c-0.1,0.2-0.3,0.5-0.3-0.1c0-0.1,0-0.1,0-0.2c-0.3-0.1-0.6-0.3-0.9-0.4
				c-0.1,0.1-0.1,0-0.2-0.1c-2.2-1-4-2.1-5.5-3.3c0.1,0.1,0.1,0.1,0.1,0.1c2.5,2.4,5.3,4.2,8.3,5.8c0-0.1,0.1-0.2,0.1-0.3
				c0.1-0.4,0.1-0.7,0.1-1.1C76.5,80.8,76.4,80.7,76.4,80.7z"/>
		</g>
		<g>
			<path fill="#7A7F35" d="M81,76c-0.3,0.2-0.6,0.4-0.8,0.7c0.4,0,0.8,0.1,1.1,0.1C81.2,76.3,81.1,76,81,76z"/>
		</g>
		<g>
			<path fill="#7A7F35" d="M94,75.2c-0.1-0.6-0.7-1-1.2-1.3c-2.1-1-2.8-0.7-5-3.3c-0.1-0.2-0.6-0.7-1-0.4c-1.2,0.7-1.3,2.3-1.4,3.5
				c0,1.1-0.5,2.1-1.1,3c0,0,0,0.1-0.1,0.1c3.7,0.1,7.1-0.2,10.3-0.6C94.3,75.9,94.2,75.6,94,75.2z"/>
		</g>
		<g>
			<path fill="#7A7F35" d="M74.2,79c0-0.1,0-0.2-0.1-0.2c0,0.1,0,0.1-0.1,0.2C74.1,78.9,74.1,78.9,74.2,79z"/>
		</g>
	</g>
	<g>
		<g>
			<path fill="#4D6143" d="M87.8,90.1c-2.4-1.7-5.1-3.1-7.3-4.4c-0.1-0.1-0.2-0.1-0.4-0.2c-0.1,0.1-0.2,0.2-0.4,0.2
				c-0.1,0-0.2,0-0.2,0c-0.3,0.3-2.1-0.1-2.4-0.3c-0.5-0.3-0.3-1-0.4-1.5c0-0.1-0.1-0.2-0.2-0.3c-0.4-0.1-0.4-0.2-0.4-0.5
				c-3.2-1.8-6.3-3.7-9-6.4c-1-1.1-1.7-2.1-2-3c0,0-0.1-0.1-0.1-0.1c0-0.1,0-0.2,0-0.3c-0.7-2.8,1.6-4.8,4.2-6.3c-0.2,0-0.4,0-0.6,0
				c-3.6,1.7-7.7,4.5-5.3,9.1c2.2,4.2,7.1,6.7,10.4,9.1c1.5,1.1,3.7,2.4,5.6,4c1,0.9,2,1.8,2.7,2.8c3.3,0.2,6.4,0.5,9.3,0.9
				C90.3,92,89.1,91,87.8,90.1z"/>
		</g>
		<g>
			<path fill="#4D6143" d="M76.5,89.1c-1.9-1.8-4.1-3.2-5.7-4.4c-2.7-2.2-6.7-4.5-8.4-8.2c-2.2-4.9,2.3-7.7,6.1-9.4
				c-0.2,0-0.4,0-0.6,0c-4,1.5-9,4.1-8.9,8.8c0.1,3.5,3.3,6.4,5.2,8.4c1,1.1,2.5,2.4,3.7,4c0.9,1.1,1.5,2.4,1.7,3.8
				c3.2-0.2,6.3-0.2,9.3-0.1C78.3,91,77.4,90,76.5,89.1z"/>
		</g>
	</g>
	<g>
		<path fill="#00834F" d="M69.2,74.8c0.1,0,0.2-0.1,0.3-0.1c0,0,0,0,0,0C69.4,74.7,69.3,74.7,69.2,74.8z"/>
	</g>
	<g>
		<path fill="#00834F" d="M70.1,74.3c-0.2,0.1-0.4,0.2-0.6,0.3c0,0,0,0,0,0C69.7,74.5,69.9,74.4,70.1,74.3L70.1,74.3z"/>
	</g>
	<g>
		<path fill="#7DAAC8" d="M28.6,75.1c4.2-1.8,9-3.4,14.2-4.7c0.3-0.4,0.5-0.9,1.1-1c0-0.3,0.8-1,0.9-2c0.1-1,0-2.4,0.1-2.8
			c0.6-1.7-0.4-3-0.6-4.7c-0.1-1-0.6-0.9-1-1.4c-1.1-1.2-1.3-3.1-2.4-3.9c-1.4-1.1-2.2-2.9-2.8-4.4c-0.5-1.3-1.1-2.7-1.6-4.1
			c-0.5-1.3-1.8-2-2.6-2.9c-5.1,2.5-9,3.6-11.3,3.6c-0.8,0-1.3-0.1-1.6-0.3c-0.5-0.2-1-0.4-1.6-0.4c-0.7,0-1.4,0.3-2,0.7
			c-3.8,2.7-6.7,8.7-4.6,18.9c0.9,4.5,2.1,8.7,3.6,12.6c1.8-0.8,3.7-1.5,6-2.1C24.5,75.7,26.6,75.4,28.6,75.1z"/>
	</g>
	<g>
		<path fill="#7DAAC8" d="M17.5,81.2C17.5,81.3,17.5,81.3,17.5,81.2c0.1,0,0.3-0.1,0.4-0.2C17.7,81.1,17.6,81.2,17.5,81.2z"/>
	</g>
	<g>
		<path fill="#7DAAC8" d="M76,61.3c0.1-0.8,0.2-1.6,0.2-2.4c-0.1-0.7,0.2-2.1,0.3-2.5c0.8-2.3,1.3-2.3,3.2-2.6
			c0.8-0.1,1.8-0.2,2.7-0.1c-0.2-0.8-0.7-1.6-1.5-2c-0.6-0.3-1.1,0.3-1.3,0.5c-2.8,3.4-3.7,2.9-6.4,4.2c-0.7,0.3-1.4,0.8-1.5,1.6
			c-0.4,1-0.9,1.9-1.2,2.9c-0.2,0.6-0.5,0.6-0.5,0c0-0.5,0-1-0.5-1.3c-0.2-0.2-0.5-0.5-0.5-0.9c-0.5-0.5-0.4-1.2-0.6-1.8
			c-0.3-0.7-0.4-0.6-1.3-0.8c-0.7-0.2-4.4-0.3-7.9-1.3c-0.6,0-2,0.1-2.4,0.2c-0.3,0.1-0.5,0.3-0.6,0.6c-0.4,0.5-1.2,0.2-1.3,0.9
			c-0.2,0.4-0.4,2.6-0.4,3.3c-0.2,0.9,0.2,2-0.5,2.8c0,0.3-0.1,0.6,0,0.8c0-0.2,0.4,2.6,0.6,4.5c6.7-1.1,13.8-1.7,21.3-1.9
			C75.9,64.5,75.7,62.9,76,61.3z"/>
	</g>
	<g>
		<path fill="#7DAAC8" d="M94.3,37.3c0,1,0.1,2,0.2,3.1c0.4,2.6-0.2,5.4,0.4,8c0.2,0.9,0.1,2.8,0.5,4.1c0.2,0.7,0.4,0.3,0.6,0.7
			c0.1,0.3,0.2,0.6,0.2,0.9c0.1,0,0.2,0,0.3,0c1.9-0.1,2.4,0,4.2-0.2c1.1-0.1,3.7-0.8,4-0.9c1.1-0.3,6.1-1.4,6.7-1.5
			c1.1-0.1,5.4-0.4,6.9-0.8c1.1-0.3,2.2-0.5,3.3-0.9c0.5-0.2,1-0.4,1.5-0.8c0.5-0.4,0.9-0.9,2.1-1.3c1.1-0.3,2.1,0.2,2.9,0.8
			c0.6,0,1.4,0.1,1.9-0.2c0.3-0.2,0.5,0,0.2,0.3c-0.4,0.3-0.6,0.8-1.1,1c0.2,0.3,0.4,0.5,0.7,0.7c0.9,0.8,1.3,2.4,1.4,3.1
			c0.3,1.2,0.5,2.4,1.4,3.3c0.7,0.6,1.1,1.6,1.5,2.5c0.4,0.1,0.7,0.3,0.9,0.5c0.7,0.7,0.4,1.6-0.8,1.5c-0.2,0-0.5-0.1-0.7-0.2
			c-0.4,0.8-0.6,0.6-1.4,0.8c0,0.1-0.1,0.1-0.1,0.2c-0.3,0.4-1.1,0.4-1.6,0.2c-0.4-0.1-0.7-0.3-1.1-0.5c-0.2,0-0.4,0.1-0.6,0.1
			c-1.4,0.5-2.3,1-3.9,0c-0.4,0.2-0.5,0.5-0.6,0.9c-0.4,1.2-2,1.8-2.5,3.1c-0.4,1.1-0.8,2.3-1.3,3.3c-0.2,0.6-0.5,1.2-0.8,1.8
			c5.9,1.6,11.2,3.5,15.7,5.7c1.2-3.4,2.2-7.1,3-11c2-10.2-0.9-16.2-4.6-18.9c-0.6-0.4-1.3-0.7-2-0.7c-0.6,0-1.1,0.1-1.6,0.4
			c-0.3,0.1-0.8,0.3-1.6,0.3c-2.6,0-7.1-1.3-13.1-4.5c-6.6-3.5-13.9-6-21.4-7.6C94.2,35.5,94.4,36.6,94.3,37.3z"/>
	</g>
	<g>
		<path fill="#7DAAC8" d="M50.6,63.4c-0.5-0.6-1.6-0.6-1.4-1.6c-0.1-1-0.4,0.3-0.7,0.4c-0.3,0.4-0.4,0.8-0.5,1.2
			c-0.4,1.6-0.3,3.1,0.1,5c0.1,0.3,0.1,0.5,0,0.7c0.9-0.2,1.9-0.4,2.8-0.5C51.1,66.9,51.2,65,50.6,63.4z"/>
	</g>
	<g>
		<path fill="#63838E" d="M111.8,119.7l-1.5,2.6l20.3,12.7l-0.9-10.8l9.8-3.5l-17.6-11l0.4,14.1
			C118.7,122.2,115.2,120.8,111.8,119.7z"/>
	</g>
	<g>
		<path fill="#63838E" d="M28.8,110.9l-15.6,10l10.2,3.8L22.3,135l20.6-13.2l-1.5-2.2c-8,2.6-12.6,5.2-12.6,5.2V110.9z"/>
	</g>
	<g>
		<g>
			<path fill="#3D515A" d="M136.3,43.4c-1.2-0.9-2.7-1.5-4.5-1.5c-1,0-1.9,0.2-2.7,0.5c-0.3,0.1-0.6,0.1-0.8,0.1
				c-1.7-0.1-5.4-1.1-10.8-4c-12.6-6.7-27.3-9.9-41.8-9.9c-5.5,0-11,0.5-16.5,1.4c-0.5-0.1-0.9-0.2-1-0.3c-1.4-0.3-7.7-1.8-8.4-1.8
				c-1.4-0.2-6.9-0.5-8.7-1c-1.4-0.4-2.8-0.6-4.2-1.2c-0.6-0.2-1.3-0.5-1.8-1c-0.6-0.5-1.2-1.1-2.6-1.6c-1.4-0.3-2.6,0.2-3.7,1
				c-0.7,0-1.7,0.1-2.4-0.3c-0.4-0.2-0.6,0-0.2,0.3c0.5,0.4,0.8,1,1.3,1.3c-0.2,0.4-0.5,0.6-0.9,0.9c-1.1,1.1-1.6,3-1.8,3.9
				c-0.4,1.5-0.6,3-1.8,4.1c-0.8,0.8-1.5,2.1-2,3.2c-0.5,0.2-0.9,0.4-1.2,0.7c-0.9,0.9-0.5,2,1,1.9c0.3,0,0.6-0.1,0.9-0.2
				c0.5,1,0.8,0.8,1.8,1c0,0.1,0.1,0.2,0.1,0.2c0.4,0.5,1.3,0.5,2,0.3c0.5-0.2,0.9-0.4,1.4-0.6c0.2,0,0.5,0.1,0.7,0.2
				c0.1,0,0.2,0.1,0.2,0.1C25.6,42,24,42.4,23,42.5c-0.3,0-0.6,0-0.8-0.1c-0.8-0.3-1.7-0.5-2.7-0.5c-1.8,0-3.3,0.6-4.5,1.5
				c-5.5,3.9-8.6,11.9-6.3,23.2c1,4.9,2.3,9.5,4,13.8c0.2,0.6,0.5,1.1,0.7,1.7c0.3,0.7,0.6,1.4,0.9,2.1c2.1,4.8,4.6,9.1,7.4,12.9
				c2.4,3.4,4.9,5.7,7.4,7.3v0.2v6v0.3v14c0,0,4.6-2.6,12.6-5.2c14.7-4.9,40.7-10,70.4,0c3.4,1.2,6.9,2.5,10.4,4.1l-0.4-14.1
				l-0.1-4.8c2.6-1.6,5.3-4,8-7.7c3.8-5.2,7-11.4,9.5-18.4c1.4-3.8,2.5-7.9,3.4-12.2C144.9,55.2,141.8,47.3,136.3,43.4z M135.5,76.7
				c0,0.1-0.1,0.3-0.1,0.4c-0.1,0.4-0.3,0.7-0.4,1.1c-0.4,1-0.8,2.1-1.2,3.1c0,0,0,0,0,0.1c-1.4,3.3-3,6.3-4.7,9.2
				c-0.7,1.1-1.3,2.1-2,3.1c-0.2,0.3-0.5,0.7-0.7,1c-2.3,3.2-4.5,5.2-6.6,6.5c0,0-0.1,0-0.1,0c-1.4-0.6-3.4-1.5-6.1-2.5
				c-4.6-1.7-10.9-3.5-18.6-4.9c-1.2-0.2-2.3-0.4-3.6-0.6c-2.9-0.4-6-0.7-9.3-0.9c-1-0.1-2.1-0.1-3.2-0.1c-3-0.1-6.1-0.1-9.3,0.1
				c-1.1,0.1-2.3,0.1-3.4,0.2c-8.9,0.7-18.6,2.5-28.8,5.9c-2.2,0.7-4.3,1.5-6.5,2.4c0,0-0.1,0-0.1-0.1c-1.9-1.3-3.8-3.2-5.9-6
				c-0.4-0.5-0.7-1.1-1.1-1.6c-0.7-1-1.3-2-1.9-3c-1.1-1.9-2.2-3.8-3.1-5.9c-0.4-0.8-0.8-1.7-1.1-2.5c0-0.1-0.1-0.2-0.1-0.3
				c0,0,0,0,0-0.1c-0.4-1-0.8-2-1.2-3c-1.5-3.9-2.7-8.1-3.6-12.6c-2-10.2,0.9-16.2,4.6-18.9c0.6-0.4,1.3-0.7,2-0.7
				c0.6,0,1.1,0.1,1.6,0.4c0.3,0.1,0.8,0.3,1.6,0.3c2.3,0,6.2-1,11.3-3.6c0.8,0.9,2.1,1.6,2.6,2.9c0.5,1.4,1.1,2.8,1.6,4.1
				c0.6,1.5,1.4,3.3,2.8,4.4c1.1,0.8,1.3,2.7,2.4,3.9c0.4,0.6,0.8,0.4,1,1.4c0.2,1.6,1.2,3,0.6,4.7c-0.1,0.4-0.1,1.8-0.1,2.8
				c-0.1,1-0.9,1.7-0.9,2c-0.6,0.1-0.8,0.6-1.1,1c-0.1,0.2-0.2,0.4-0.4,0.5c0,0-0.1,0.1-0.1,0.1c-0.2,0.6,2.6,0.7,3.8,0.5
				c0.6-0.2,0.7-0.5,0.7-0.8c-0.1-0.5,0.2-0.7,0.5-0.8c0.2-0.1,0.4-0.2,0.5-0.3c0.2-0.1,0.4-0.3,0.4-0.5c0-0.2,0-0.4,0-0.7
				c-0.5-1.9-0.5-3.4-0.1-5c0.1-0.4,0.3-0.9,0.5-1.2c0.3-0.1,0.6-1.4,0.7-0.4c-0.2,1,0.8,1,1.4,1.6c0.6,1.6,0.5,3.5,0.4,5.2
				c0,0,0,0,0,0.1c0,0.2,0,0.4,0,0.5c0,0.2-0.1,0.3-0.3,0.4c-0.6,0.3-1.1,0.9-1.4,1.5c-0.7,1.3,2.9,0.9,3.9,0.5
				c0.4-0.2,0.4-0.6,0.5-0.9c0.4-0.3,0.2-0.9,0.5-1.1c0.2-0.2,0.3,0,0.3-0.4c0-0.1,0-0.3,0-0.5c0-0.2,0-0.4-0.1-0.6
				c-0.2-1.8-0.6-4.7-0.6-4.5c-0.1-0.3,0-0.6,0-0.8c0.8-0.8,0.3-1.9,0.5-2.8c0-0.7,0.2-2.9,0.4-3.3c0.1-0.7,1-0.5,1.3-0.9
				c0.1-0.3,0.3-0.5,0.6-0.6c0.4-0.1,1.8-0.2,2.4-0.2c3.5,1,7.2,1.1,7.9,1.3c0.9,0.2,1,0.1,1.3,0.8c0.3,0.6,0.2,1.3,0.6,1.8
				c0,0.4,0.3,0.6,0.5,0.9c0.4,0.3,0.4,0.8,0.5,1.3c0,0.6,0.4,0.6,0.5,0c0.3-1,0.8-1.9,1.2-2.9c0.2-0.8,0.8-1.2,1.5-1.6
				c2.7-1.3,3.6-0.8,6.4-4.2c0.2-0.2,0.7-0.9,1.3-0.5c0.8,0.5,1.2,1.2,1.5,2c-0.9,0-1.9,0-2.7,0.1c-1.9,0.3-2.4,0.3-3.2,2.6
				c-0.1,0.4-0.5,1.8-0.3,2.5c0,0.8-0.1,1.6-0.2,2.4c-0.2,1.6,0,3.2-0.1,4.8c0,0.2,0,0.4,0,0.7c0,0.3-0.1,0.6-0.1,0.9
				c-0.2,0.7-0.1,2.2-0.4,3.3c-0.2,0.6-0.3,0.2-0.5,0.5c-0.1,0.3-0.2,0.5-0.1,0.9c-0.1,0.4-0.2,0.7-0.5,0.9c-0.2,0.1-0.3,0.6-0.4,1
				c0,0.1-0.1,0.8-0.2,1.3c0,0.2-0.1,0.5-0.1,0.6c0,0.1,0,0.1,0,0.2c-0.1,0.7-0.1,1.6-0.1,2.4c0,0.2,0,0.3,0,0.4
				c0,0.2,0,0.4,0.1,0.5c0,0.1,0.1,0.1,0.2,0.1c0.1-0.1,0.2-0.4,0.3-0.5c0-0.1,0.1-0.2,0.1-0.3c0-0.1,0-0.1,0.1-0.2
				c0.1,0,0.1,0.2,0.1,0.2c0,0,0,0,0,0c0.1,0.1,0,0.3,0,0.4c-0.1,0.3,0.1,0.5,0.3,0.1c0-0.1,0.1-0.1,0.1-0.2c0-0.1,0.1-0.1,0.1-0.1
				c0.1-0.1,0.1-0.1,0.1,0c0,0,0,0.1,0,0.2c-0.1,0.2-0.1,0.5-0.1,0.7c0,0.1,0,0.2,0,0.2c0,0.5,0.2,0.3,0.3,0.1c0-0.1,0-0.1,0.1-0.2
				c0.1-0.1,0.1-0.3,0.1-0.4c0.1-0.3,0.1-0.3,0.1,0c0,0.2,0,0.3,0,0.5c0,0.2,0,0.4-0.1,0.6c-0.1,0.5,0.1,0.6,0.3,0.1
				c0.1-0.2,0.1-0.4,0.2-0.6c0-0.1,0.1-0.2,0.1-0.4c0.1,0.1,0.1,0.3,0.1,0.5c0,0.3,0,0.6,0,0.9c0.1,0.8,0.3,0.4,0.4,0.1
				c0.1-0.2,0.1-0.5,0.1-0.8c0-0.2,0-0.4,0.1-0.6c0,0.2,0.1,0.4,0.1,0.6c0,0.4,0,0.7-0.1,1.1c0,0.1-0.1,0.2-0.1,0.3
				c-0.1,0.3-0.2,0.6-0.2,0.9c0,0,0,0,0,0c0,0.3,0.1,0.4,0.4,0.5c0.1,0,0.2,0.1,0.2,0.3c0.1,0.5-0.2,1.1,0.4,1.5
				c0.3,0.2,2.1,0.6,2.4,0.3c0.1-0.1,0.1-0.1,0.2,0c0.2-0.1,0.4-0.1,0.4-0.2c0-0.1,0.1-0.2,0.1-0.2c0-0.3-0.5-1.1-0.7-1.2
				c0,0,0,0,0-0.1c-0.2-0.7-0.4-1.5-0.4-2.3c0-0.3,0-0.6,0.1-0.8c0-0.1,0-0.1,0-0.2c0.3-0.9,0.4-2,0.6-2.9c0-0.2,0.1-0.4,0.1-0.6
				c0.1-0.1,0.1-0.3,0.2-0.4c0.2-0.3,0.6-0.5,0.8-0.7c0.1,0,0.2,0.3,0.3,0.8c0,0.3,0.1,0.6,0.1,1c0.1,1,0.1,2.3,0.2,3.3
				c0,0.2,0,0.4,0.1,0.5c0,0.2,0,0.4-0.1,0.6c0,0.1,0,0.3-0.1,0.4c-0.2,0.4,0,0.6,0.3,0.7c0.1,0,0.2,0.1,0.3,0.3
				c0,0.2,0.2,0.2,0.2,0.4c0.1,0.2,0.1,0.6,0.3,0.7c0.3,0.2,1.4,0.4,2,0.4c0.4,0,1.2,0.1,1.1-0.4c-0.1-0.5-0.2-1.2-0.9-1.3
				c0.1-0.3-0.2-0.2-0.4-0.3c-0.1-0.1-0.1-0.3-0.1-0.4c-0.1-0.4-0.2-0.8-0.2-1.2c0-0.5,0-1.1-0.1-1.6c0.2-0.6,0-1.3-0.1-1.9
				c0-0.4,0-0.7,0.1-1.1c0,0,0-0.1,0.1-0.1c0.6-0.9,1.1-1.9,1.1-3c0.1-1.2,0.2-2.8,1.4-3.5c0.5-0.3,0.9,0.2,1,0.4
				c2.2,2.7,2.9,2.3,5,3.3c0.6,0.3,1.1,0.6,1.2,1.3c0.1,0.3,0.3,0.7,0.4,1c0.2,0.4,0.3,0.8,0.5,1.3c0,0,0,0.1,0,0.1
				c0.1,0.5,0.4,0.5,0.4,0c0-0.1,0-0.1,0-0.2c0-0.3,0.1-0.7,0.4-0.9c0.2-0.2,0.3-0.3,0.4-0.6c0,0,0-0.1,0-0.1c0.4-0.4,0.3-1,0.5-1.4
				c0.2-0.5,0.3-0.5,1.1-0.6c0.6-0.1,3.5-0.3,6.3-1c0.4,0,1.6,0,1.9,0.2c0.2,0,0.4,0.2,0.5,0.5c0.3,0.4,1,0.2,1,0.7
				c0,0.1,0.1,0.2,0.1,0.3c0.1,0.4,0.2,1.1,0.2,1.7c0,0.2,0,0.5,0,0.6c0.2,0.7-0.2,1.6,0.4,2.2c0,0.2,0.1,0.5,0,0.7
				c0-0.1-0.1,0.8-0.3,1.8c-0.1,0.7-0.2,1.5-0.2,2.1c0,0.2,0,0.4,0,0.5c0,0.3,0.1,0.2,0.3,0.3c0.2,0.2,0.1,0.7,0.4,0.9
				c0,0.3,0.1,0.6,0.4,0.7c0.8,0.3,3.6,0.6,3.1-0.4c-0.3-0.5-0.6-0.9-1.1-1.2c-0.1-0.1-0.2-0.3-0.2-0.4c0-0.1,0-0.2,0-0.3
				c0-0.7-0.1-1.3,0-2c0-0.8,0.1-1.5,0.4-2.2c0.4-0.4,1.2-0.5,1.1-1.3c0.1-0.8,0.3,0.2,0.5,0.3c0.2,0.3,0.3,0.6,0.4,1
				c0.2,0.9,0.2,1.7,0.1,2.6c0,0.4-0.1,0.9-0.2,1.4c-0.1,0.5-0.1,0.8,0.3,1c0.2,0.1,0.4,0.2,0.6,0.3c0.1,0.1,0.2,0.3,0.2,0.5
				c0,0.1,0,0.2,0.1,0.4c0.1,0.1,0.2,0.2,0.4,0.3c0.7,0.1,1.8,0.1,2.5,0c0.4-0.1,0.7-0.3,0.5-0.5c-0.1-0.2-0.2-0.3-0.3-0.5
				c-0.2-0.3-0.4-0.6-0.8-0.7c0-0.3-0.6-0.8-0.7-1.6c0,0,0,0,0,0c0-0.8,0-1.9-0.1-2.2c-0.5-1.3,0.4-2.4,0.5-3.7
				c0.1-0.5,0.2-0.6,0.4-0.8c0.1-0.1,0.2-0.2,0.3-0.3c0.5-0.5,0.7-1.2,1-1.8c0.2-0.5,0.5-1,0.9-1.3c0.4-0.3,0.8-0.8,1.1-1.2
				c0.1-0.2,0.2-0.3,0.3-0.5c0.3-0.6,0.6-1.2,0.8-1.8c0.4-1,0.9-2.2,1.3-3.3c0.5-1.3,2.1-1.9,2.5-3.1c0.1-0.4,0.2-0.7,0.6-0.9
				c1.7,1,2.5,0.5,3.9,0c0.1-0.1,0.4-0.1,0.6-0.1c0.4,0.1,0.7,0.3,1.1,0.5c0.5,0.2,1.2,0.2,1.6-0.2c0-0.1,0.1-0.1,0.1-0.2
				c0.8-0.1,1.1,0,1.4-0.8c0.3,0.1,0.5,0.2,0.7,0.2c1.1,0.1,1.5-0.8,0.8-1.5c-0.2-0.2-0.5-0.4-0.9-0.5c-0.4-0.9-0.9-1.9-1.5-2.5
				c-1-0.9-1.1-2.1-1.4-3.3c-0.2-0.7-0.6-2.3-1.4-3.1c-0.3-0.2-0.5-0.4-0.7-0.7c0.5-0.2,0.7-0.7,1.1-1c0.3-0.3,0.2-0.5-0.2-0.3
				c-0.5,0.3-1.3,0.2-1.9,0.2c-0.9-0.6-1.8-1.1-2.9-0.8c-1.2,0.4-1.6,0.9-2.1,1.3c-0.4,0.3-0.9,0.6-1.5,0.8
				c-1.1,0.4-2.2,0.6-3.3,0.9c-1.4,0.4-5.8,0.7-6.9,0.8c-0.6,0.1-5.6,1.2-6.7,1.5c-0.3,0.1-2.9,0.8-4,0.9c-1.9,0.3-2.4,0.1-4.2,0.2
				c-0.1,0-0.2,0-0.3,0c0-0.3-0.1-0.6-0.2-0.9c-0.3-0.4-0.4,0-0.6-0.7c-0.4-1.3-0.3-3.3-0.5-4.1c-0.5-2.6,0.1-5.4-0.4-8
				c-0.1-1-0.2-2-0.2-3.1c0.1-0.7-0.1-1.8-0.3-2.5c7.5,1.5,14.8,4.1,21.4,7.6c6.1,3.2,10.6,4.5,13.1,4.5c0.8,0,1.3-0.1,1.6-0.3
				c0.5-0.2,1-0.4,1.6-0.4c0.7,0,1.4,0.3,2,0.7c3.8,2.7,6.7,8.7,4.6,18.9C137.7,69.6,136.7,73.2,135.5,76.7z M45.1,58.8
				c0.4,0,0.8,0.1,1.2,0.2c0.1,0.3-0.2,0.3-0.2,0.9c-1,0.2-1.3-0.9-2-1.3c-1-0.6-1.8-2.7-1.8-2.8c-0.1-0.1-0.1-0.2,0.1-0.1
				c0.2,0.2,0.4,0.4,0.7,0.6c0.6,0.4,1.3,0.6,1.8,1c0.6,0.4,1.3,0.9,0.1,0.9c-0.1,0-0.2,0-0.3,0.1C44.6,58.7,44.9,58.7,45.1,58.8z
				 M47.7,69.3c-0.3,0.4-0.9,0.6-1.4,0.5c-0.2,0-0.4,0-0.7-0.1c-0.5-0.1-1-0.2-1.4-0.5c0.7-1.4,0.9-2.1,0.9-3.6c0-0.5,0-0.8,0.1-1.3
				c0.2,0.4,0.6,0.2,0.7,0c0.1-0.1,0.3-0.2,0.4-0.1c0.2,0.5-0.5,1.2,0,1.5c0.2,0.2,1-0.4,1,0.1c-0.1,1.2,0.4,1.7,0.4,2.9
				C47.9,69,47.8,69.2,47.7,69.3z M43.3,71.1c0.2-0.1,0.3-0.2,0.5-0.3c0.1-0.1,0.2-0.2,0.3-0.3c0.4-0.3-0.1-0.3-0.1-0.3
				c-0.3,0.1-0.5,0.4-0.8,0.6c-0.4,0.2-0.2,0.1-0.1-0.1c0.1-0.1,0.2-0.2,0.2-0.3c0.2-0.3,0.5-0.5,0.8-0.6c0.1,0,0.3,0.1,0.7,0.2
				c0.2,0.1,0.5,0.2,0.7,0.2c0,0.1,0,0.2-0.1,0.2c-0.1,0.4-0.4,0.7-0.6,1c-0.3,0.1-1.2,0.1-1.7-0.1C43.1,71.2,43.2,71.1,43.3,71.1z
				 M46.3,61c0.2,0.6,0.8,0.1,1.1,0.5c0.1,0.5-1.2,0-1.1,0.7c0.3,0.4,0.9,0.3,0.9,0.9c0,0.7-0.3,0.2-0.5,0c-0.3-0.3-0.9-0.1-1.2,0.1
				c-0.1-1.2-0.7-2.2-0.8-3.3c1,0.8,1.9,0.4,3.1,0.4c0.3,0,0.4,0.3,0,0.4C47.4,60.7,46.4,60.7,46.3,61z M51.5,65.4
				c0.1-0.5,0.2-0.9,0.7-0.9c0.5-0.1,0.7,0.6,1.2,0.2c0.2-0.1,0.4,0,0.5,0.3c0.2,0.9,0.2,2,0.3,2.9c0,0.1,0,0.1,0,0.2
				c0,0.2,0.1,0.4,0.1,0.6c0,0.2,0.1,0.4,0,0.6c-0.2,0.1-0.8-0.1-0.8,0.3c-0.1,0.1,0.3,0.2,0.2,0.3c-0.7,0.6-2.3,0.2-2.5,0.1
				c0.1-0.3,0.3-0.5,0.2-0.8c0,0,0-0.1,0-0.1c0-0.2,0-0.3,0-0.5C51.5,67.5,51.5,66.4,51.5,65.4z M51.9,71.6c-0.5,0-1,0.2-1.5,0.1
				c0.2-0.2,0.3-0.3,0.5-0.5c0.2-0.4-0.1-0.4-0.3-0.2c-0.3,0.2-0.4,0.5-0.8,0.6c0.2-0.5,0.5-1,0.9-1.2c0.3,0,0.7,0.5,1.5,0.5
				C52.1,71,51.8,71.2,51.9,71.6z M69,55.3c0.2,0,0.3-0.1,0.5-0.2c1.1,0.3,2.7-0.8,3.3-1C71.3,56,70.9,55.4,69,55.3z M91.9,52.1
				c0.1-0.7,0.9-2.4,1.1-3.5c0-0.2,0.1-0.2,0.1,0c0.1,2.4-0.1,3.7-0.3,5.5c-0.3,0-0.6,0-0.9,0C91.8,53.5,91.8,52.8,91.9,52.1z
				 M90.2,54.4c0.4,0,0.8,0,1,0c0.3,0,0.6,0,0.9,0c0.3,0,0.6,0,0.8,0c0.1,0,0.3,0,0.4,0c1,0,2,0,2.8,0c0.1,0,0.2,0,0.3,0
				c0.5,0,0.8,0,1,0c0.1,0,3.1,0,5.9-0.6c0.6-0.2,1.3-0.4,2-0.6c0.4-0.1,2.8-0.6,3.3-0.7c1.1-0.3,2.8-0.7,3.2-0.7
				c0.8,0,1.6-0.1,2.4-0.2c0.6-0.1,1.8-0.2,2.5-0.2c-1.1,0.5-1.3,1.2-1.5,1.7c-0.4,1.4-0.2,4.1,1,5.2c0.3,0.3,0.8,0.5,0.7,1
				c-0.2,0.9,0.1,1.8,0.2,2.7c0,0.3,0.1,0.6,0.3,0.8c0.2,0.3,0.5,0.5,0.7,0.7c0.3,0.1-0.1,0.5-0.1,0.6c-0.3,0.5,0.1,1-0.3,1.6
				c-0.6,0.8,0,0.9,0,1.4c-0.5,0.5-1,1.1-1.2,1.8c-0.2,1.1,1,1.8,1.5,0.8c0.2-0.6,0.4-1.1,0.8-1.6c0.1-0.1,0.2-0.2,0.3-0.2
				c0.4-0.2,0.7,0.3,0.2,0.6c-0.2,0.1-0.6,0.2-0.8,0.4c-0.2,0.2-0.4,0.5-0.2,0.8c0.2,0.2,0.5,0,0.7,0.1c0,0.2,0,0.3,0.1,0.5
				c0.1,0.4,0.6,0.1,0.9-0.1c-0.1,0.3-0.2,0.6-0.3,0.8c-0.1,0.2-0.2,0.3-0.3,0.5c-0.4,0.5-0.9,1-1.3,1.5c-0.1,0-0.2,0-0.1-0.3
				c0.3-0.7-0.2-0.6-0.5-0.6c-0.3,0-0.8,0.1-1-0.1c-0.1-0.1,0.1-0.3,0-0.4c-0.1-0.4-0.6-0.1-0.9-0.3c-0.3-0.3-0.3-0.6-0.1-0.9
				c0.1-0.1,0.2-0.2,0.2-0.3c0-0.1,0.1-0.1,0.1-0.2c0.2-0.3,0.1-0.6-0.3-0.6c-0.1,0-0.3,0.1-0.4,0c-0.1-0.3-0.5,0.1-0.6-0.3
				c-0.1-0.3,0.1-0.6,0.2-0.8c0.4-0.6,0-0.9-0.4-0.9c-0.8-0.1-1.9,0.7-1.5,1.9c0.1,0.2,0.2,0.4,0.3,0.7l0,0c0.6,0.9,0.2,1.4-0.1,2.3
				c-0.2,0.5-0.4,1.1-0.7,1.8c-0.2,0.7-0.5,1.3-0.6,1.9c0,0.2-0.1,0.4-0.1,0.5c0,0.3,0,1.4,0.1,1.7c0,0.7-0.7,0.8-1,1.1
				c-0.5-0.4-1,0.5-1.4,0c-0.2-0.3-0.3-0.7-0.8-0.6c-0.1-0.3-0.5-0.7-0.2-1c0,0.2,0.3,0.4,0.4,0.5c0.3,0.1,0.3-0.1,0.3-0.2
				c0.1-0.2,0.1-0.4,0.3-0.2c0.7,0.5,0.8-0.3,0.7-0.5c0-0.1-0.1-0.6-0.2-0.7c-0.3-0.4-0.1-0.6,0.3-0.5c0.1,0,0.2,0.1,0.4,0
				c0.1,0,0.1-0.1,0.1-0.1c0.2-0.2,0.1-0.5,0.3-0.7c0.2-0.1,0.4-0.2,0.6-0.3c0.6-0.3,0.6-1-0.2-0.7c-0.6,0.2-0.6,0.1-0.3-0.1
				c0.2-0.1,0.5-0.3,1-0.4c0.6-0.2,0.4-0.8-0.3-0.6c-0.2,0.1-0.4,0.1-0.5,0.2c-0.3,0.1-0.3,0,0-0.2c0.5-0.3,0.1-0.7-0.5-0.4
				c-0.9,0.5-1.3,0.1-2.2-0.2c-0.4-0.1-0.6-0.3-0.4-0.6c0.2-0.3,0.4-0.6,0-0.7c-0.5-0.1-1.4-1-0.2-2.3c0,0,0,0,0.1-0.1
				c0.1-0.1,0.1-0.1,0.1-0.2c0-0.2-0.3,0-0.3-0.1c0-0.1,0.1-0.2,0.1-0.3c0.3-0.3,1-0.5,0.8-0.2c0,0.1-0.1,0.2-0.1,0.3
				c-0.1,0.2-0.2,0.4-0.3,0.5c0,0,0,0,0,0.1c-0.7,1.1-0.2,2,1,1.3c0.3-0.2,0.5-0.5,0.8-0.8c0.1-0.1,0.2-0.2,0.3-0.2
				c0.2,0,0.3,0,0.5,0c0.5,0,0.9-0.1,0.9-0.3c0-0.1-0.1-0.2-0.2-0.3c-0.5-0.4,0.1-0.4,0.5-0.5c1.1-0.2,0.4-1.1-0.8-1
				c-1.1,0.1-1.4-0.2-1.9-0.7c-0.6-0.5-1.1-0.6-1.2,0.3c-0.1,1.2-0.8,0.6-1.1,0c-0.3-0.7-0.8-0.2-1.1,0.7c-0.1,0.2-0.1,0.4-0.2,0.5
				c-0.1,0.1-0.2,0.1-0.3,0c0,0,0-0.1-0.1-0.1c-0.3-0.6-0.7-0.5-0.6,0c0,0.1,0,0.2,0.1,0.3c0.1,0.1,0.1,0.3,0.1,0.4
				c0.2,0.4,0.2,0.8,0.2,1.3c0,0.8-1.1,0.6-2.5-0.1c-0.7-0.4-1.7,0-2.4,0.2c-1.3,0.4-2-0.2-3.5-0.7c-1.1-0.3-1.2,0.4-2.2,0
				c-0.2-0.1-0.4-0.2-0.7-0.4c-0.1-0.1-0.2-0.1-0.3-0.2c-0.5-0.3-1-0.8-1.7-1.4c-0.2-0.2-0.3-0.3-0.5-0.5c-0.1-0.1-0.1-0.1-0.2-0.2
				c0,0,0,0,0,0c-0.1-0.1-0.2-0.2-0.3-0.3c-0.7-0.5-1-0.5-1.4,0.2c0,0,0,0,0,0c-0.3,0.5-0.5,0.4-0.9,0c-0.1-0.1-0.2-0.3-0.3-0.4
				c-0.2-0.4-0.4-0.7-0.6-1c-0.1-0.1-0.2-0.2-0.3-0.3c-0.1-0.2-0.2-0.3-0.4-0.4c-1.1-1.2-1,0.3-1,0.6c0,0.4-0.2,0.6-0.5,0.5
				C85.2,65,85.1,65,85,64.9c-0.2,0-0.4,0-0.5,0.2c-0.1,0.1-0.2,0.1-0.3,0.2c0,0-0.1,0-0.1,0.1c-0.5,0.2-0.6-0.2-0.8-0.4
				c-0.5-0.6-1.6,0.2-1.2,0.8c0.1,0.1,0.1,0.2,0.2,0.3c0.1,0.2,0.2,0.4,0.1,0.6c0,0-0.1,0.1-0.1,0.1c-0.7,0.5-0.1,1.3,0.6,1.5
				c0.1,0,0.1,0,0.2,0c0.1,0,0.1,0,0.1,0c0.3,0.1,0.4,0.3,0.4,0.6c0,0.3-0.2,0.5-0.5,0.6c-0.1,0-0.2,0-0.3,0.1c-0.1,0-0.1,0-0.2,0
				c0,0,0,0,0,0c0,0.2,0.1,0.4,0.2,0.6c0,0,0,0,0,0c0.1,0.4-0.3,0.9-0.8,0.8c-0.4-0.1-0.2,0.3-0.1,0.5c0.2,0.6,0.1,1-0.3,1.1
				c-0.3,0.1-0.5,0.2-0.5,0.4c0,0.2,0,0.3-0.1,0.4c-0.1-0.1-0.1-0.3-0.1-0.4c-0.2-0.1-0.4,0-0.6,0.1c-0.2,0-0.3-0.1-0.4-0.2
				c-0.4-0.4-0.7,0.4-0.4,0.7c0.1,0.1,0.3,0.3,0.3,0.4c0.2,0.7-0.5,0.4-0.7,0.6c-0.2,0.3,0.3,0.8,0,1.2c-0.2,0.1-0.4,0.3-0.4,0.5
				c0,0.1,0,0.1,0,0.2c0.1,0.2,0.2,0.2,0.3,0.3c0.1,0.2,0.1,0.3,0.1,0.5c0,0,0,0.1,0,0.1c-0.1,0.2-0.2,0.8,0.2,1
				c-0.1,0.6-0.2,1.2-0.3,1.8c0,0.2-0.1,0.4-0.1,0.6c0,0.2,0,0.3-0.1,0.5c0,0.4,0,0.7,0,1.1c0,0.4,0.1,0.7,0.2,1.1c0,0,0,0,0,0
				c-0.5,0.2-1.1,0.1-1.6,0.2c-0.1,0-0.2,0-0.3,0.1c-0.1-0.2-0.2-0.3-0.4-0.5c0,0-0.1-0.1-0.1-0.1c-0.4-0.2-0.3-0.6-0.1-1.1
				c0.1-0.2,0.2-0.4,0.2-0.6c0.1-0.2,0.1-0.5,0.2-0.8c0.1-0.3,0.1-0.7,0.1-1c0-0.4,0.1-0.7,0.1-0.9c0.1,0.3,0.1,0.7,0.2,1
				c0,0,0,0.1,0,0.1c0.2,0.9,0.4,0.9,0.5,0.1c0,0,0-0.1,0-0.1c0.1-0.9,0.1-1.8,0.1-2.7c0-0.3,0-0.6-0.1-0.9
				c-0.1-0.6-0.1-1.2-0.2-1.7c0-0.2-0.1-0.7-0.1-0.8c0-0.1,0-0.2,0.2-0.2c0.2,0,0.2-0.6,0.3-0.8c0.2-0.1,0.2,0.2,0.4,0.2
				c0.1,0,0.1-0.2,0.2-0.3c0.1-0.2,0.1-0.4,0.3,0c0.2,0.4,0.5,0.2,0.5-0.3c0.1-2.3,1.3-2.5,2.3-2.1c0.3,0.1,0.4,0,0.5-0.1
				c0.1-0.1,0-0.3-0.1-0.5c-0.1-0.1-0.2-0.3-0.3-0.3c-0.7-0.6-2.3-1.7-2.5-1.8c-0.3-0.2-0.5-0.3-0.8-0.8c-0.1-0.2-0.2-0.4-0.4-0.7
				c-0.1-0.1-0.1-0.2-0.2-0.4c-0.6-1.2-0.4-1.7-0.5-2.9c0-0.7,0-1.4,0-2c0-0.6-0.1-1.2-0.1-1.9c0-0.6,0-0.8,0.2-1.1
				c0.4-0.7,0.9-1.4,1.4-2c0.4-0.5,0.1-0.5-0.3-0.1c-0.7,0.6-1,1.5-1.6,2.3c-0.5,0.7-0.5,1.6-0.5,2.5c0.1,0.6,0,1.2,0,1.8
				c0,0.2,0,1.6,0,1.7c0.1,0.7,0.1,1.3,0.1,2c0,0.2,0,0.4,0,0.7c0,0.2,0,0.3,0,0.5c-0.1,2.4,0.2,4.9,0.6,7.3
				c0.1,0.4,0.2,1.1,0.2,1.9c0,0.3,0,0.6,0.1,0.9c0,0.7,0,1.5-0.1,2.3c-0.1-0.4-0.2-0.9-0.3-1.4c0-0.3-0.1-0.5-0.3-0.3
				c-0.2,0.3-0.2,0.2-0.1-0.1c0-0.2,0.1-0.4,0.1-0.6c0-0.2,0.1-0.3,0.1-0.4c0.1-0.5-0.1-0.5-0.3,0c0,0.1-0.1,0.3-0.1,0.4
				c-0.1,0.6,0,1.3,0.1,1.9c0,0.3,0,0.6-0.1,0.8c0,0.1,0,0.3-0.1,0.4c0-0.1,0-0.3-0.1-0.4c0-0.2-0.1-0.4-0.1-0.5
				c-0.1-0.4-0.3-0.4-0.3,0c0,0.1,0,0.3-0.1,0.4c0,0.2-0.1,0.4-0.1,0.6c0,0.3-0.1,0.3-0.1,0c0-0.2,0-0.3,0-0.5c0-0.1,0-0.1,0-0.2
				c0-0.1,0-0.3-0.1-0.3c0.1-0.8,0.2-1.5,0.4-2.3c0-0.2,0.1-0.3,0.1-0.5c0-0.1,0.1-0.2,0.1-0.3c0-0.2-0.1-0.2-0.2,0
				c0,0.1-0.1,0.2-0.1,0.3c0,0.1-0.1,0.3-0.1,0.5c-0.1,0.6-0.3,1.3-0.4,1.7c-0.1,0.3-0.1,0.6-0.2,0.8c0,0.1,0,0.1-0.1,0.2
				c0-0.1,0-0.2,0-0.2c0-0.2,0-0.4-0.1-0.5c0.3-0.6,0.3-1.1,0.3-1.8c0-0.1,0-0.1,0-0.2c0-0.3,0.1-0.6,0.1-0.8c0-0.2,0.1-0.3,0.1-0.3
				c0.1-0.2-0.1-0.3-0.2-0.1c-0.1,0.1-0.1,0.3-0.2,0.4c0,0.2,0,0.3-0.1,0.5c0,0.1,0,0.2,0,0.3c0,0.9-0.2,1.9-0.5,2.5
				c0,0,0,0.1-0.1,0.1c0,0,0-0.1,0-0.1c0.1-0.9,0.3-1.6,0.4-2.5c0-0.1,0-0.3,0-0.4c0-0.5-0.3-0.5-0.3,0c0,0,0,0.2,0,0.3
				c0,0.6-0.2,1.6-0.4,2c-0.1,0.1-0.2,0-0.1-0.1c-0.1-0.2-0.3-0.1-0.3-0.3c0.2-0.6,0.3-1.2,0.4-1.7c0,0,0-0.1,0-0.1
				c0-0.2,0.1-0.6-0.1-0.7c-0.1-0.1-0.1,0-0.2,0c0,0.2,0,0.4-0.1,0.7c0,0.6-0.1,1.2-0.3,1.8c0,0.2-0.2,0.2-0.2,0
				c0-0.7,0.1-1.4,0.1-1.9c0-0.3,0.1-0.5,0.1-0.7c0.1-0.5,0.2-0.9,0.3-1.4c0.2-0.8,0.3-0.9,0.5-1.1c0.2-0.3,0.2-1,0.3-1.2
				c0-0.3,0.5-0.4,0.6-0.7c0.3-1.2,0.2-2.9,0.5-3.9c0-0.2,0.1-0.4,0.1-0.7c0-0.2,0-0.4,0-0.7c0.1-1.8-0.1-3.8,0.1-5
				c0.4-2-0.1-4.4,1.2-6c0.8-1,2.1-1.1,3.5-1.2c0.4-0.1,1-0.1,1.5,0c1.6,0,3.6,0.3,4.3,0.3c0,0,0.1,0,0.2,0
				C87.5,54.3,89,54.4,90.2,54.4z M123.2,55.1c0.5,0,0.9-0.3,1.2-0.6c0,0,0.1,0,0.1,0.1c-0.3,0.5-0.8,0.7-1.3,0.7
				c-0.7,0.1-2.1-0.8-1.8-2c0.1-0.3,0.3-0.8,0.7-1c0.1-0.1,0.2,0,0.1,0.1c-0.2,0.2-0.4,0.4-0.5,0.7
				C121.3,53.9,122.5,55.1,123.2,55.1z M124.3,50.9c-0.1,0.5-2,0.7-3.2,0.6c-0.9-0.1-0.4-0.1,0-0.3c0.9-0.3,1.8-0.8,2.7-1.4
				c0.1-0.1,0.2-0.2,0.4-0.2c0.4,0.2,0.2,0.5,0,0.7C124,50.6,124.3,50.6,124.3,50.9z M121.2,51.9c0.3,0,0.7,0,1,0
				c-0.9,0.7-1.6,2.2-0.2,3.1c0.1,0.1,0.4,0.2,0.1,0.3c-0.5,0.3,0.3,1.5,0.7,1.4c0.6,0,0.5,0.3,0.6,0.6c0.3,1.3,0.4,1.4,1.2,1.3
				c0.2,0,0.1,0.4,0.4,0.5c0.2,0.1,0.4,0.1,0.6,0.1c0.1,0,0.1,0,0.1,0.1c0.2,1.3,2.4,1.9,2.5,0.5c0-0.1,0-0.3,0-0.4
				c0.1-0.2,0.2,0.1,0.4,0c0.1-0.1,0.2-0.1,0.3-0.1c1,0.1,1.5-1,0.8-2.3c-0.2-0.4-0.4-0.7-0.7-1c-0.3-0.2-0.1-0.5,0-0.8
				c0-1-0.7-1.7-1.2-2.4c-0.4-0.6-1.3-0.6-1.5-0.6c-0.2,0-0.7-0.2-0.6-0.4c0-0.1,0.1-0.2,0.1-0.3c-0.2-0.4-0.6,0-1-0.1
				c-0.1-0.1-0.1-0.3,0-0.4c-0.1-0.1-0.2-0.2-0.2-0.4c0-0.1,0.1-0.3,0.2-0.4c0.1-0.4-0.3-0.6-0.4-0.9c-0.2-0.3,0.2-0.9,0.6-1.1
				c0.4-0.5,1.3-0.4,1.9-0.2c0.9,0.3,1.6,1,2.2,1.8c0.9,0.6,1.5,1.7,1.8,2.8c0.4,1,0.5,2.2,1,3.2c0.4,0.7,1.2,1.3,1.1,1.6
				c-0.5,0.6-1.1,0.4-1.7,0.6c-0.5,0.2-0.7,0.8-0.7,1.3c0,0.2-0.5,0.4-0.1,0.5c0.5-0.1,0.4-0.7,0.5-1c0.4-0.9,1.6-0.3,2.1-1.1
				c0.4,0.7,1.3,1.5,0.9,2.5c0,0.1-0.2,0.1-0.2,0c-0.1-0.1-0.1-0.3-0.2-0.4c-0.1-0.1-0.4-0.1-0.4,0.1c0,0.4-0.2,0.3-0.4-0.1
				c-0.1-0.2-0.6-0.3-0.7,0.2c0,0.6,0.7,1,1,1.1c0.7,0.1,0.4,0.5-0.1,0.6c-0.1,0-0.4,0.1-0.8-0.1c-1.1,0.4-1.9,0-2.6-0.3
				c-0.3-0.2-0.6-0.4-1-0.3c-0.1,0.1,0,0.2,0.1,0.3c0.4,0,0.7,0.2,1,0.4c-0.7,0-3.3,1.4-4.3,0c-0.2-0.2-0.4-1-0.5-1.5
				c0-0.2-0.3-0.1-0.3,0.1c0,0.1,0.1,1,0.2,1.3c0.1,0.3-0.1,0.2-0.1,0.1c-0.2-0.4-0.2-0.7-0.3-1.1c0-0.2-0.3-0.2-0.3,0
				c0,0.3,0.1,0.6,0.1,0.9c0.1,0.2,0.3,0.4,0.3,0.6c0,0.4-0.5,1.2-0.9,1.5c-0.6,0.7-1.5,1.1-1.8,2.1c-0.3,0.7-0.4,1.5-0.8,2
				c0-0.1-0.1-0.3-0.2-0.4c0-0.8,0.5-1.5,0.9-2.1c0.3-0.4,0.6-0.8,0.8-1.3c0.1-0.3,0-0.5-0.1-0.8c0-0.4,0.2-0.5,0.4-0.7
				c0.3-0.3,0.4-1,0-1.3c0-0.3,0-0.5,0-0.7c0.2-1.6,0.5-2.3-0.8-3.2c-0.2,0-0.4,0-0.5,0c-0.1,0.1-0.1-0.1-0.2-0.2
				c-0.3-1.2-1.4-0.6-2.3,0.7c-0.1,0.2-0.4,0-0.4-0.1c0-0.3,0-0.7,0-1c0.1-0.4,0.3-0.7,0.4-1.1c0-0.1,0.3-0.2,0.4-0.1
				c0.3,0.4,0.6,0.1,0.8-0.2C120.7,54.4,121.3,52.3,121.2,51.9z M128.3,56.1C128.4,56.1,128.4,56.1,128.3,56.1c0,0.1,0,0.1,0.1,0.2
				c0.1,0.1-0.3,0.3-0.6,0.2c-0.4-0.1-0.8-0.4-0.9-0.6c0,0,0,0,0,0C127.6,56.4,128.1,56.2,128.3,56.1z M127.4,55.2
				c0-0.1,0.1-0.1,0.2-0.1c0,0,0,0.1,0,0.2c0,0.1-0.1,0.1-0.2,0.1C127.4,55.4,127.4,55.3,127.4,55.2z M128.2,55.5
				c0.2,0.1,0.2,0.2,0.2,0.3c0.1,0.2,0,0.2-0.1,0.2c-0.1,0-0.2,0.1-0.3,0.1C128.2,55.8,128.2,55.7,128.2,55.5z M127,55
				c-0.3,0-0.3,0.1-0.4,0.1c-0.1,0-0.1,0,0-0.1c0.2-0.1,1.1-0.2,1.3-0.1c0.3,0.1,0.5,0.3,0.6,0.6c0.1,0.1,0,0.1-0.1,0.1
				C128.2,55.2,128.1,54.8,127,55z M126.8,55.6C126.8,55.6,126.8,55.6,126.8,55.6c-0.2-0.1-0.2-0.2-0.3-0.4c0.1,0,0.2,0,0.3,0
				c0,0,0,0,0,0C126.8,55.3,126.8,55.5,126.8,55.6z M134.3,60.9c0.7,0.1,1-0.3,0.7-0.7c-0.1-0.2-0.4-0.4-0.7-0.5l0.1-0.1
				c0.2,0.1,0.5,0.2,0.7,0.5c0.6,0.6,0.1,1.2-0.7,1.2c-0.4,0-1-0.2-1.3-0.5c-0.3-0.2-0.1-0.3,0.1-0.2
				C133.5,60.6,133.9,60.8,134.3,60.9z M134,60.5c0.1-0.1,0.3-0.7,0.3-0.8c0,0,0.8,0.3,0.6,0.8C134.7,60.9,133.9,60.6,134,60.5z
				 M131.8,62c-0.3,0.2-1,0.1-1.5,0c-0.3-0.1-0.2-0.2,0.1-0.1C131,61.9,131.3,61.9,131.8,62C131.8,61.9,131.9,61.9,131.8,62z
				 M115.8,76c-0.4,0.4-0.7,0.9-1.4,0.8c0-0.5-0.2-0.5-0.2-0.7c0.2,0,0.3-0.1,0.5-0.1c0.1,0,0.3,0,0.4-0.1c0.1-0.1,0.3-0.1,0.4-0.3
				c0-0.1-0.1-0.1-0.2-0.1c-1,0-0.4-0.4,0.1-0.7c0.5-0.3,1-0.5,1.5-0.8c0,0,0.1-0.1,0.1-0.1c0.2-0.1,0.3-0.2,0.4-0.4
				c0.2-0.2,0.2-0.1,0.1,0c0,0-0.1,0.2-0.2,0.4c-0.2,0.5-0.7,1.5-1.3,1.9C115.9,75.8,115.8,75.9,115.8,76z M116.8,85.3
				c0.1,0.2,0.2,0.3-0.1,0.1c-0.1-0.1-0.2-0.1-0.3-0.2c-0.1-0.1-0.2-0.2-0.4-0.3c-0.1,0-0.4,0-0.1,0.2c0,0,0.1,0.1,0.1,0.1
				c0.2,0.2,0.3,0.3,0.5,0.4c0.1,0,0.1,0,0.1,0.1c-0.1,0-0.2,0.1-0.4,0.1c-0.4,0.1-0.8,0-1,0c-0.1-0.1-0.2-0.2-0.3-0.4
				c0,0-0.1-0.1-0.1-0.1c-0.1-0.1-0.2-0.3-0.2-0.5c0.4,0,1-0.3,1.1-0.3c0.3,0.1,0.5,0.3,0.7,0.5C116.7,85.2,116.7,85.3,116.8,85.3z
				 M114.1,84.6c-0.4,0-1.2-0.3-1.2-0.7c0-0.7,0.2-1.1,0.3-1.7c0-0.2,0-0.3,0-0.5c0-0.4,0.7,0,0.8-0.1c0.4-0.3-0.2-0.8,0-1.2
				c0.1-0.1,0.2,0,0.3,0c0.1,0.1,0.4,0.3,0.6,0c0.1,0.3,0.1,0.6,0.1,1c0,0.5,0,0.9,0.1,1.3c0.1,0.5,0.3,0.9,0.6,1.5
				C115.3,84.5,114.7,84.6,114.1,84.6z M114.9,79.4c-0.2-0.1-0.7-0.3-0.9-0.1c-0.2,0.2-0.4,0.6-0.4,0c0-0.5,0.5-0.4,0.7-0.7
				c0.1-0.5-0.9-0.1-0.9-0.5c0.2-0.3,0.7,0,0.8-0.4c-0.1-0.2-0.9-0.2-1.1-0.3c-0.3-0.1-0.3-0.3,0-0.3c0.9,0,1.7,0.3,2.4-0.3
				C115.4,77.6,115,78.5,114.9,79.4z M110.1,84.1L110.1,84.1c-0.1,0.3,0,0.5,0.1,0.7c-0.1,0.1-1.4,0.4-2-0.1c0-0.1,0.2-0.1,0.2-0.3
				c0-0.3-0.5-0.1-0.6-0.2c-0.1-0.2,0-0.4,0-0.6c0-0.2,0.1-0.3,0.1-0.5c0.1-0.5,0.1-1.1,0.1-1.6c0-0.2,0.1-0.5,0.1-0.7
				c0.1-0.2,0.3-0.3,0.4-0.2c0.4,0.3,0.6-0.3,1-0.2c0.4,0,0.5,0.3,0.5,0.7c0,0.2,0,0.4,0,0.6C110.1,82.5,110,83.3,110.1,84.1z
				 M110.6,85.6c0.1,0.2,0.2,0.3,0.4,0.4c-0.5,0.1-0.8,0-1.2,0c0.1-0.3-0.2-0.4-0.2-0.6c0.7,0,1-0.4,1.2-0.4
				c0.4,0.2,0.6,0.5,0.7,0.9c-0.3-0.1-0.4-0.3-0.7-0.5C110.6,85.4,110.4,85.3,110.6,85.6z M85.9,70.1c-0.8,0.3-1.6,0.8-2.3,1.9
				c-0.1,0.1-0.1,0-0.1,0c0.4-0.7,1-1.5,1.7-1.8c0.2-0.1,0.4-0.2,0.6-0.2C85.9,70,85.9,70,85.9,70.1C86,70,86,70,85.9,70.1z
				 M83.8,74.5c-0.4,0.1-1.8,1-0.8,1.3c0.6,0.2,0.4,0.8-0.3,0.7c-0.1,0-0.2,0.1-0.2,0.2c0,0,0,0.1-0.1,0.1c-0.1,0.1-0.2,0.1-0.3,0
				c0,0,0,0,0,0c-0.2,0-0.3-0.2-0.5,0c0,0,0,0,0,0c-0.1,0.3,0,0.6,0.2,0.8c0.1,0.1,0.2,0.1,0.3,0.2c0.3,0.2,0.6,0.4,0.9,0.6
				c0.1,0.2,0.1,0.6,0.1,0.8c0.1,0.2,0.3,0.4,0.6,0.3c0.1,0.4,0.2,1.1,0.2,1.8c0,0.4,0.1,0.8,0.1,1.2c0,0.3,0.1,0.5,0.1,0.7
				c-0.5,0.4-1.3,0.3-1.9,0.1c-0.1-0.3-0.4-0.3-0.7-0.5c0.1-0.2,0.2-0.4,0.2-0.7c0.1-0.4,0-0.8,0-1.1c0-0.2-0.1-0.5-0.1-0.7
				c-0.1-0.4-0.1-1.9-0.2-2.2c0-0.1,0-0.2,0-0.4c0-0.3-0.1-0.7-0.2-1c-0.1-0.4-0.1-0.8-0.2-1c0.9-0.9,1.4-1.6,1.8-3
				c0.1,0.4,0.3,0.8,0.6,1.1C83.7,74,84.6,74.4,83.8,74.5z M84.7,84.3c0.1,0.1,0.3,0.2,0.2,0.4c-0.3,0.1-0.7,0.1-1.1,0
				c-0.2-0.2-0.3-0.5-0.4-0.8c0.4-0.1,1-0.3,1.3-0.5c0.3,0,0.8,0.9,0.7,1.3c-0.2-0.2-0.3-0.7-0.6-0.7C84.6,84,84.5,84.1,84.7,84.3z
				 M95.8,73c0.1,0.1,0.3,0.1,0.4,0.2c-1.5,0.1-1.8,0.5-3-1C93.6,72.4,94.9,73.2,95.8,73z M79.8,85.3c-0.1,0.1-0.2,0.2-0.3,0.1
				c0,0-0.1-0.2-0.2-0.4c-0.1-0.1-0.1-0.3-0.2-0.3c-0.1-0.1-0.3-0.1-0.3,0c0,0,0,0,0,0.1c0.1,0.2,0.3,0.4,0.4,0.7
				c-0.2,0.2-0.6,0-0.8-0.1c0-0.3-0.2-0.6-0.3-1c0,0,0.1,0,0.2,0c0.4,0,0.9-0.2,1-0.1C79.7,84.5,79.8,84.9,79.8,85.3
				C79.9,85.2,79.9,85.3,79.8,85.3z M77.1,67.9c0-0.1,0.1-0.1,0.1,0c0.2,0.9,0.8,2.2,0.9,2.8c0.2,1.2,0,2.2-0.6,2.9
				C77.2,71.2,77,70.3,77.1,67.9z M84.9,53.8c-0.8-1.4-1.8-2-2.9-2.4c-0.2-0.1-0.1-0.2,0-0.1c1.3,0.2,2.3,1.4,2.9,2.5c0,0,0,0,0,0
				C85,53.8,84.9,53.8,84.9,53.8z M46.6,27.9c1,0.1,2.1,0.2,3,0.3c0.5,0,2.6,0.6,4,0.9c0.6,0.1,3.7,0.8,4.1,0.9
				c0.2,0.1,0.5,0.1,0.7,0.2c0.6,0.2,1.3,0.4,1.9,0.6c3.5,0.8,7.3,0.7,7.4,0.7c0.3,0,0.9,0,1.7,0c1.7,0,4.1,0.1,6,0.1
				c0.4,0,1.2,0,2.1,0c1.5,0,3.2-0.1,3.4-0.1c1.1-0.1,5.3-0.6,7.4-0.4c1.5,0.2,2.9,0.3,4,1.1c0.1,0.1,0.3,0.3,0.4,0.4
				c0.5,0.6,0.8,1.3,1,2.1c0.4,1.7,0.3,3.7,0.6,5.5c0.3,1.8-0.1,5.4,0.3,7.9c0.3,1.2,0.2,3.3,0.6,4.9c0.2,0.4,0.7,0.4,0.8,0.8
				c0,0,0,0.2,0,0.3c-0.9,0-1.8,0-2.7,0c0.3-2.1,0.4-4.2,0.3-6.3c0-1.3,0-2.6,0.1-4c0-0.2,0.1-1.9,0.1-2.2c0-0.8-0.1-1.5,0-2.3
				c0-1.1,0-2.3-0.7-3.2c-0.5-0.6-0.9-1.3-1.3-1.9c-0.2-0.3-0.5-0.7-0.8-0.9c-0.5-0.4-1-0.5-0.4,0.1c0.2,0.2,0.4,0.5,0.5,0.7
				c0.5,0.6,0.9,1.2,1.3,1.9c0.2,0.4,0.3,0.6,0.3,1.3c-0.1,0.8-0.1,1.6-0.2,2.3c0,0.8,0,1.7,0,2.5c0,1.5,0.2,2.1-0.6,3.7
				c-0.8,1.7-1.2,1.9-1.8,2.3c-0.3,0.2-2.3,1.6-3.2,2.3c-0.5,0.4-0.8,1.5,0.2,1.2c1.3-0.4,2.7-0.2,2.9,2.5c-0.9,0-2.1-0.1-3.2-0.2
				c0-0.2,0.1-0.3,0.1-0.5c0.1-0.3,0.4-0.8-0.1-0.6c-0.6,0.2-1.1-0.5-1-1c0.1-0.3,0.2-0.5,0.2-0.8c-0.2-0.1-0.4-0.1-0.6-0.1
				c-0.8-0.2-0.8-1.5,0.1-1.5c0.9-0.1,1.9-1.3,1-2c-0.5-0.5,0.1-0.9,0.3-1.4c0.4-0.8-0.9-1.8-1.5-1.1c-0.3,0.3-0.5,0.8-1.1,0.6
				c-0.4-0.2-0.6-0.6-1.1-0.5c-0.2,0-0.3,0.1-0.4,0.2c-0.4,0.2-0.6-0.1-0.6-0.6c0-0.4,0.2-2.3-1.2-0.8c-0.6,0.7-1.2,1.4-1.6,2.3
				c-0.6,0.9-1.1,1.5-1.5,0.6c-0.6-1.2-1.1-0.9-2.5,0.4c-1.8,1.7-3.1,2.8-4,3.1c-1.3,0.5-1.4-0.4-2.8,0c-1.9,0.6-2.8,1.4-4.4,0.9
				c-0.9-0.3-2.2-0.7-3-0.3c-1.8,1-3.2,1.2-3.1,0.2c0-0.8,0.1-1.3,0.4-2.1c0.4-0.9-0.3-1.2-0.7-0.4c-0.3,0.6-0.5,0.3-0.7-0.5
				c-0.3-1.1-0.9-1.7-1.3-0.9c-0.3,0.8-1.2,1.5-1.4,0c-0.1-1.2-0.8-1.1-1.5-0.4c-0.7,0.7-1,0.9-2.4,0.9c-1.5-0.1-2.4,1.1-1,1.3
				c0.5,0.1,1.3,0.1,0.7,0.6c-0.7,0.5-0.1,0.9,0.8,0.8c0.4,0,0.8,0,1.1,0.3c0.3,0.4,0.6,0.8,1,1c1.4,0.9,2.1-0.2,1.2-1.6
				c-0.2-0.4-0.5-0.7-0.6-1.2c-0.4-0.6,1.2,0.1,1.1,0.6c0,0.2-0.3-0.1-0.4,0.2c0,0.1,0.1,0.2,0.2,0.4c1.5,1.7,0.4,2.8-0.3,2.9
				c-0.5,0.1-0.2,0.5,0,0.8c0.3,0.4,0,0.6-0.5,0.7c-1.1,0.4-1.6,0.9-2.7,0.3c-0.8-0.5-1.3,0.1-0.7,0.5c0.3,0.2,0.3,0.3-0.1,0.2
				c-0.2-0.1-0.5-0.2-0.7-0.2c-0.8-0.2-1.2,0.6-0.4,0.8c1.4,0.4,2,1,0.8,0.6c-1-0.3-1,0.5-0.2,0.9c0.2,0.1,0.5,0.3,0.8,0.4
				c0.3,0.3,0,0.9,0.4,1c0.1,0.1,0.3,0,0.5,0c0.5-0.1,0.8,0.1,0.4,0.6c-0.1,0.2-0.2,0.8-0.2,0.9c-0.1,0.2,0,1.2,0.9,0.6
				c0.2-0.2,0.3,0,0.4,0.3c0.1,0.2,0.1,0.4,0.4,0.3c0.2-0.1,0.5-0.4,0.5-0.6c0.3,0.4-0.1,0.9-0.3,1.3c-0.7-0.1-0.8,0.3-1.1,0.7
				c-0.5,0.6-1.2-0.5-1.8,0c-0.4-0.4-1.3-0.5-1.3-1.4c0.1-0.4,0.1-1.8,0.1-2.2c-0.2-1.5-1.3-4.1-1.8-5.4c-0.4-1.2-0.9-1.8-0.1-2.9
				c1.4-1.9-0.4-3.4-1.6-3.2c-0.4,0-0.9,0.5-0.5,1.2c0.2,0.3,0.4,0.6,0.3,1c-0.1,0.5-0.6-0.1-0.8,0.4c-0.1,0.1-0.3,0-0.5,0
				c-0.6-0.1-0.7,0.4-0.3,0.9c0.3,0.4,0.8,0.9,0.2,1.5c-0.3,0.2-1-0.2-1.1,0.3c0,0.2,0.2,0.3,0.1,0.5c-0.3,0.2-0.9,0.2-1.3,0.1
				c-0.3,0-1-0.1-0.6,0.7c0.1,0.3,0,0.3-0.1,0.3c-0.9-1-2.1-2.1-2.4-3.5c0.3,0.3,1,0.6,1.1,0.1c0-0.3,0.1-0.4,0.1-0.7
				c0.3-0.1,0.7,0.1,0.9-0.1c0.3-0.4,0-0.8-0.3-1c-0.2-0.2-0.7-0.3-0.9-0.5c-0.6-0.3-0.2-1,0.3-0.7c0.1,0.1,0.3,0.2,0.4,0.3
				c0.5,0.5,0.8,1.3,1,2c0.7,1.3,2.1,0.5,1.9-1c-0.3-0.9-0.9-1.6-1.6-2.3c0-0.6,0.8-0.7,0-1.7c-0.5-0.8,0-1.5-0.4-2.1
				c0-0.1-0.4-0.6-0.1-0.7c0.3-0.3,0.6-0.6,0.9-0.9c0.2-0.2,0.3-0.6,0.4-1c0.1-0.7,0.2-1.5,0.3-2.2c0-0.2,0-0.4,0-0.7
				c0-0.2,0-0.4-0.1-0.6c-0.1-0.6,0.5-0.9,0.9-1.3c0.7-0.7,1.1-1.7,1.3-2.8c0.2-1.3,0.2-2.8,0-3.7c-0.2-0.6-0.5-1.4-1.8-2.1
				C44.4,27.7,45.9,27.8,46.6,27.9z M33.8,25.6c0.2,0,0.3,0.2,0.4,0.3c1,0.7,2.2,1.3,3.4,1.7c0.5,0.2,1.2,0.2,0,0.3
				c-1.5,0.1-3.9-0.1-4-0.7c0-0.3,0.3-0.4,0.3-0.7C33.5,26.3,33.3,25.8,33.8,25.6z M36.7,29.8c-0.2-0.3-0.4-0.6-0.6-0.9
				c-0.1-0.1,0-0.2,0.1-0.1c0.6,0.3,0.8,1,0.9,1.3c0.4,1.5-1.4,2.7-2.3,2.6c-0.6-0.1-1.2-0.3-1.6-0.9c0-0.1,0.1-0.1,0.1-0.1
				c0.4,0.4,1,0.7,1.5,0.7C35.8,32.5,37.3,30.9,36.7,29.8z M21.3,39.3c0.1,0.1-0.9,0.5-1.1,0c-0.2-0.6,0.7-1,0.7-1
				C21,38.5,21.2,39.2,21.3,39.3z M20.7,40.1c-1,0.1-1.6-0.7-0.8-1.5c0.3-0.3,0.7-0.5,0.9-0.6l0.1,0.2c-0.4,0.2-0.7,0.4-0.9,0.7
				c-0.4,0.6-0.1,1,0.8,0.9c0.5-0.1,1.1-0.3,1.4-0.5c0.3-0.2,0.5-0.1,0.1,0.2C22,39.8,21.3,40,20.7,40.1z M25.9,41.1
				c-0.6,0.2-1.5,0.3-1.9,0c-0.1,0,0-0.1,0.1-0.1c0.6,0.1,1,0.1,1.7-0.1C26.2,40.9,26.3,41,25.9,41.1z M27,40.7
				c0.3-0.2,0.8-0.5,1.3-0.5c0.1,0,0.2-0.2,0.1-0.3c-0.5-0.2-0.9,0.1-1.3,0.4c-0.8,0.4-1.8,0.9-3.2,0.4c-0.5,0.2-0.9,0.1-1,0.1
				c-0.6-0.1-1.1-0.6-0.1-0.7c0.4-0.1,1.3-0.6,1.3-1.4c-0.2-0.5-0.8-0.4-0.9-0.2c-0.3,0.6-0.5,0.6-0.5,0.2c0-0.2-0.4-0.2-0.5-0.1
				c-0.1,0.1-0.2,0.3-0.2,0.5c-0.1,0.1-0.2,0.1-0.3,0c-0.6-1.2,0.6-2.2,1.1-3.1c0.7,1,2.1,0.2,2.7,1.4c0.1,0.5,0,1.2,0.6,1.3
				c0.5-0.1-0.1-0.4-0.1-0.6c-0.1-0.6-0.3-1.3-0.9-1.6c-0.7-0.2-1.5,0-2.1-0.8c-0.2-0.5,0.9-1.2,1.4-2.1c0.7-1.2,0.8-2.7,1.3-4
				c0.4-1.3,1.2-2.7,2.3-3.5c0.7-1.1,1.7-1.9,2.8-2.3c0.7-0.3,1.8-0.4,2.3,0.3c0.5,0.3,1,1.1,0.8,1.4c-0.2,0.3-0.7,0.6-0.6,1.1
				c0.2,0.1,0.3,0.3,0.2,0.5c0,0.2-0.2,0.3-0.3,0.5c0,0.2,0.1,0.4-0.1,0.6C32.4,28,32,27.5,31.7,28c0,0.1,0,0.2,0.1,0.3
				c0.1,0.3-0.4,0.5-0.7,0.6c-0.2,0-1.3,0.1-1.8,0.8c-0.7,1-1.6,1.8-1.6,3.1c0.1,0.3,0.3,0.7,0,1c-0.4,0.4-0.6,0.8-0.9,1.3
				c-0.8,1.7-0.2,3.1,1.1,3c0.1,0,0.3,0,0.4,0.1c0.2,0.1,0.4-0.3,0.5,0c0,0.2,0,0.4,0,0.6c0.1,1.8,2.9,0.9,3.1-0.6
				c0-0.1,0-0.2,0.2-0.1c0.3,0.1,0.6,0.1,0.8-0.1c0.4-0.1,0.2-0.7,0.5-0.7c1,0.1,1,0,1.5-1.6c0.1-0.4,0-0.8,0.8-0.8
				c0.4,0,1.5-1.5,0.8-1.8c-0.4-0.2,0.1-0.4,0.2-0.4c1.8-1.2,0.9-3.1-0.2-4c0.4,0,0.8,0,1.2,0c-0.1,0.5,0.6,3.1,1.3,4.4
				c0.2,0.4,0.5,0.7,1,0.2c0.1-0.1,0.4,0.1,0.4,0.2c0.2,0.4,0.4,0.9,0.5,1.4c0,0.2,0,0.5,0,0.7c0,0.2,0,0.3,0,0.5
				c0,0.2-0.4,0.3-0.5,0.1c-0.1-0.1-0.2-0.2-0.2-0.3c-1.1-1.4-2.3-2.1-2.6-0.6c0,0.1-0.1,0.3-0.2,0.2c-0.2-0.1-0.4-0.1-0.6,0
				c-0.9,0.6-1.2,1.2-1.2,2c0,0.1,0,0.2,0,0.3c0,0.1,0,0.2,0,0.3c0,0.4,0.1,0.9,0.2,1.4c0,0.3,0.1,0.5,0.1,0.8
				c-0.3,0.2-0.3,0.6-0.3,0.9c0,0.3,0.1,0.5,0.3,0.7c0.2,0.2,0.3,0.3,0.4,0.5c0,0.1,0.1,0.2,0.1,0.4c-0.1,0.3-0.2,0.6-0.1,1
				c0.3,0.6,0.7,1.1,1,1.7c0.6,0.7,1.2,1.6,1.1,2.6c-0.2,0.1-0.2,0.3-0.3,0.5c-0.5-0.7-0.6-1.7-1-2.6c-0.4-1.2-1.5-1.8-2.3-2.6
				c0,0-0.1-0.1-0.1-0.1c-0.3-0.3-0.7-0.9-0.9-1.4c-0.1-0.2-0.1-0.3-0.1-0.4c0-0.2,0.3-0.5,0.4-0.7c0.1-0.4,0.2-0.7,0.2-1.1
				c0-0.3-0.3-0.4-0.4,0c-0.1,0.4-0.1,0.9-0.4,1.3c-0.1,0.2-0.3,0.2-0.2-0.1c0.1-0.4,0.3-1.5,0.3-1.7c0-0.1,0-0.1-0.1-0.2
				c-0.1-0.1-0.3-0.1-0.3,0c0,0,0,0.1,0,0.1c-0.1,0.7-0.3,1.5-0.5,1.8c-0.8,1.2-2.7,0.7-4,0.3C27.7,40.8,27.2,40.7,27,40.7z
				 M30.3,32.7C30.3,32.7,30.3,32.6,30.3,32.7c0.2-0.1,0.3-0.1,0.4-0.1c-0.1,0.3-0.2,0.4-0.3,0.5c0,0-0.1,0-0.1,0
				C30.4,33,30.4,32.8,30.3,32.7z M30.7,32.4c-0.1,0-0.2-0.1-0.6-0.1c-1.4-0.2-1.6,0.3-1.8,0.6c-0.1,0.1-0.1,0.1-0.1-0.1
				c0.1-0.3,0.4-0.6,0.7-0.7C29.3,32,30.4,32.3,30.7,32.4C30.8,32.4,30.8,32.5,30.7,32.4z M28.9,33.7c-0.2,0.1-0.3-0.1-0.4-0.1
				c-0.1,0-0.2,0.1-0.1-0.2c0.1-0.1,0.1-0.3,0.3-0.4C28.6,33.2,28.6,33.4,28.9,33.7z M28.4,33.8C28.4,33.8,28.4,33.8,28.4,33.8
				c0.4,0.1,1,0.4,1.7-0.3c0,0,0.1,0,0.1,0c-0.1,0.3-0.6,0.6-1.1,0.7c-0.3,0.1-0.9-0.2-0.7-0.3C28.4,34,28.4,33.9,28.4,33.8z
				 M29.4,32.6c0.1,0,0.1,0,0.2,0.1c0.1,0.1,0,0.2,0,0.2c-0.1,0-0.1,0-0.2-0.1C29.3,32.7,29.3,32.6,29.4,32.6z"/>
		</g>
	</g>
</g>
</svg>
