<?xml version="1.0" encoding="utf-8"?>
<!-- Generator: Adobe Illustrator 16.0.0, SVG Export Plug-In . SVG Version: 6.00 Build 0)  -->
<!DOCTYPE svg PUBLIC "-//W3C//DTD SVG 1.1//EN" "http://www.w3.org/Graphics/SVG/1.1/DTD/svg11.dtd">
<svg version="1.1" id="Layer_1" xmlns="http://www.w3.org/2000/svg" xmlns:xlink="http://www.w3.org/1999/xlink" x="0px" y="0px"
	 width="100px" height="100px" viewBox="0 0 100 100" enable-background="new 0 0 100 100" xml:space="preserve">
<g>
	<g>
		<polygon fill="#231F20" points="53.903,16.827 48.573,55.229 9.238,49.766 7.867,47.994 23.151,38.97 37.864,40.693 
			40.168,26.381 52.532,15.059 		"/>
		<polygon fill="#231F20" points="48.023,87.069 46.651,85.302 53.354,48.676 91.316,52.36 92.684,54.136 78.778,64.929 
			64.063,63.207 61.757,77.521 		"/>
		<polygon fill="#231F20" points="20.951,54.977 46.714,56.976 48.086,58.748 44.229,86.548 36.597,76.713 37.815,66.313 
			27.698,64.691 26.326,62.916 		"/>
		<polygon fill="#231F20" points="80.763,48.892 53.837,45.152 52.469,43.381 57.701,17.357 65.326,27.182 64.11,37.584 
			74.071,39.186 		"/>
	</g>
	<g>
		<polygon fill="#A6A8AB" points="52.532,15.059 47.201,53.454 7.867,47.994 21.779,37.197 36.493,38.921 38.797,24.605 		"/>
		<polygon fill="#A6A8AB" points="46.651,85.302 51.981,46.901 91.316,52.36 77.407,63.159 62.694,61.432 60.386,75.749 		"/>
		<polygon fill="#1B75BB" points="19.579,53.209 46.714,56.976 42.856,84.772 35.225,74.94 36.444,64.545 26.326,62.916 		"/>
		<polygon fill="#1B75BB" points="79.604,47.148 52.469,43.381 56.329,15.581 63.958,25.413 62.738,35.813 72.856,37.438 		"/>
	</g>
</g>
</svg>
