<?xml version="1.0" encoding="utf-8"?>
<!-- Generator: Adobe Illustrator 18.1.0, SVG Export Plug-In . SVG Version: 6.00 Build 0)  -->
<svg version="1.1" id="Layer_1" xmlns="http://www.w3.org/2000/svg" xmlns:xlink="http://www.w3.org/1999/xlink" x="0px" y="0px"
	 viewBox="0 0 150 150" enable-background="new 0 0 150 150" xml:space="preserve">
<g>
	<path fill="none" d="M84.2,86.6c-0.6-1.7-0.3-3.2,2.7-2.8c-1.1-0.6-2.1-1-3-1.1C82.1,82.6,83.2,85,84.2,86.6z"/>
	<path fill="none" d="M52.9,109.8c0-0.1,0.1-0.3,0.2-0.4c-0.1,0-0.3-0.1-0.4-0.1C52.8,109.5,52.8,109.6,52.9,109.8z"/>
	<path fill="#D9AA9A" d="M80.1,82.4c-0.5-3.6,0.2-6.5,1.2-5.8c2,1.3,18.3,6.5,18.9,1.3c2.2-14.2,14-14.8,19.9-13.9
		c-3.4-2-1.2-6.2-1-7.6c0.3-1.6-7.8-1.6-13.4-1.6c-5.5,0-4.6-6.5-13.4-11.4C83.5,38.4,65.5,44,65.5,44l8.5,0.7
		c0,0-18.9,6.2-20.2,23.2c-0.3,8.6,3.4,14.6,8.3,18.6c-0.1-0.1-0.2-0.2-0.3-0.3c0,0-9.3-11.2-2.7-29c6.9-13.9,17.8-6.2,15.8,1.9
		c-1.9,8.1-3.9,13.9,0,22c2.5,5.3,0.1,10.2-4.4,10.2c6.6,2.6,13.1,3,15.1,2.2C81.7,90.6,78.2,86.4,80.1,82.4z M99.4,53.6
		c1.8,1.1,1.1,9.4-2.2,9.4c-2.2-0.7-1.1-3.6-1.1-3.6s2.2-0.7,1.4-2.5c-0.7-1.8-2.5-2.2-2.5-2.2S97.5,52.5,99.4,53.6z"/>
	<path fill="#F6CFD0" d="M141.1,74.3c0.1,0.2,0.1,0.5,0.2,0.8C141.2,74.8,141.1,74.5,141.1,74.3z"/>
	<path fill="#F6CFD0" d="M64.2,108.4c-0.1,0-0.3,0-0.4,0c0.2,0,0.4,0.1,0.6,0.1C64.3,108.4,64.3,108.4,64.2,108.4z"/>
	<path fill="#F6CFD0" d="M62.3,123c7.9,3.1,17.3,4.1,25.7,3.6c18.2-1,33.6-9.4,45.4-22.5c7.2-10.8,9.2-22.7,7.9-29
		c0.3,1.5,0.4,3.3,0.4,5.3c-1.9,4.5-6.3,9.9-13.3,13c-18.1,8.1-33-2.4-35.5-6.1c0,0,20.1,9.8,37.5-8.1c4.8-4.9,8.2-6.7,10.2-6.4
		c0.2,0.4,0.4,0.9,0.6,1.4c-1.3-4.5-4.6-5.4-8.9,0.4c-2.9,3.8-5.9,6.7-9.1,8.7c-0.2,0.1-0.3,0.3-0.5,0.4c-6.4,5.1-14.5,6.5-22.4,4.9
		c-3.1-0.6-6.1-1.5-9-2.6c-1.1-0.5-2.7-1.5-4.1-2.2c-3-0.4-3.3,1-2.7,2.8c0.4,0.6,0.8,1.2,1.1,1.4c2.6,2.5,5.5,3.8,8.6,5.3
		c2.1,1,3.2,2.9,1.5,5c-1.8,2.2-5,2.4-7.6,2.7c-6.3,0.6-12.9-0.1-19-1.5c-3.1-0.7-6.2-1.5-9.2-2.7c-1.1-0.4-3-1.6-4.4-1.3
		c0,0.1,0.1,0.2,0.1,0.4c0.2,0.6,0.4,1.1,0.8,1.6c1,1.4,2.1,2.6,3.5,3.6c4.4,3.1,9.5,4.9,14.8,5.8c2.3,0.4,11.4-0.6,10.1,3.6
		c-0.8,2.4-3.3,2.7-5.5,3c-5.7,0.7-12,0.2-17.5-1.3c-2.5-0.6-4.8-1.6-7.3-2.4c-0.3-0.1-0.7-0.2-1.1-0.3c-0.1,0.1-0.1,0.3-0.2,0.4
		c4.8,8.4,19.4,9.5,27.6,9.1c1.8-0.1,0.2,3.9-1.5,4c-6.2,0.3-15.6-0.3-22.3-3.9c1.2,1.7,2.6,3.1,4.4,4.3
		C61.5,123,61.9,122.9,62.3,123z"/>
	<path fill="#F9DADB" d="M24.9,78.9c-0.1-1.7,3-4.3,3.1-1.7c0.3,6.3,2.7,20.8,11,22.2c1.9,0.3-0.4-1.8-1-3.2c-1-2.5-2-5-2.5-7.6
		c-1-4.5-1.4-9-1.1-13.6c0.1-1.6,2.9-16.9,7.4-12.9c0.9,0.8,1.2,2.3,1.2,3.5c0.1,3.3,0.9,6.7,2.6,9.6c1,1.8,2.3,3.9,4,5.1
		c1.6-4.3-3.9-26.6,6.7-41.2c1.6-2.2,2.9-4.3,3.8-6.2c-0.7,1.3-1.5,2.6-2.6,4c-9.3,12-8.8,26.2-8.6,39.7c0,0-0.1-0.3-0.3-0.8
		c-1.5-4.4-7.8-25.7,2.7-45c7-11.9,12.1-9.3,10.4-2.2c2.7-9.7-4.2-13.5-12.7-7.8c0,0-41.1,32-34.6,65.3c0.7,3.6,2,6.7,3.6,9.5
		c-1.1-3-1.8-6.1-2-9.2c-0.1-1.7,3-4.3,3.1-1.7c0.2,3.8,1.4,7.9,3.1,11.3c1.7,3.3,3.9,6.6,6.9,8.9c0.4,0.3,1.3,1,2.4,1.7
		c2.5,0.3,4.5-0.8,5.1-3.5c-0.9-0.3-1.9-0.8-2.8-1.5C27.5,96,25.3,87.2,24.9,78.9z"/>
	<path fill="#99614C" d="M138.6,97.7c-1.6,2.3-3.4,4.4-5.2,6.4c-11.8,13.1-27.2,21.6-45.4,22.5c-8.4,0.4-17.8-0.5-25.7-3.6
		c-0.4-0.2-0.8-0.1-1.2,0.2c-1.2,0.8-2.1,3.1-0.9,3.6c8.9,3.5,19.1,4.4,28.6,3.7c21.3-1.5,39.1-13.6,51.5-30.5
		C141.5,98.2,140.3,95.4,138.6,97.7z"/>
	<path fill="#99614C" d="M53.3,73c-1.2-10.7-0.3-23.3,8.8-30.5c11.5-9,37.5-6.2,42.8,9c0.1,0.4,0.3,0.7,0.8,0.7
		c5.2,0.4,10.3,1,15.4,1.8c2.8,0.5,5.8,0.9,8.3,2.3c3,1.7-2.8,3.4-4.2,3.2c-0.7-0.1-1.4-0.4-2-0.8c-1.6-0.9-3.7,2.9-2.2,3.8
		c6.3,3.4,10.8-1.4,11.9-7.5c0.9-5-15.4-5.8-18.1-6.1c-1.8-0.2-3.6-0.4-5.4-0.6c-1.8-0.2-1.8-0.7-1.5,0.5c-0.7-2-1.9-3.7-3.2-5.4
		c-6.5-8.2-17.7-10.3-27.6-9.6c-22.9,1.6-28.9,23.1-26.7,42.7c0.2,1.9,2.3,5.6-0.4,4c-0.1-0.1-0.2-0.2-0.4-0.2c-1.7-1.2-3-3.3-4-5.1
		c-1.7-2.9-2.4-6.3-2.6-9.6c0-1.1-0.3-2.7-1.2-3.5c-4.6-4-7.3,11.3-7.4,12.9c-0.3,4.6,0.2,9.1,1.1,13.6c0.6,2.6,1.5,5.1,2.5,7.6
		c0.6,1.4,2.8,3.5,1,3.2c-8.3-1.5-10.7-15.9-11-22.2c-0.1-2.6-3.2,0.1-3.1,1.7c0.4,8.3,2.6,17.2,9.2,22.7c0.9,0.7,1.8,1.2,2.8,1.5
		c2.7,0.7,5.3-0.6,6.1-4c0.4-2-1.1-3.8-1.9-5.5c-1.8-3.9-2.8-8.3-3.4-12.5c-0.6-4.5-0.9-11.5,1.9-15.5c-1.1,1.6,1.8,9.4,2.6,11.4
		c1.3,3,3.4,6,6.2,7.7C55.5,88.9,53.6,75,53.3,73z"/>
	<path fill="#99614C" d="M22.5,96c-1.7-3.4-3-7.5-3.1-11.3c-0.1-2.6-3.2,0.1-3.1,1.7c0.2,3.1,0.8,6.2,2,9.2c1.3,3.4,3.1,6.6,5.3,9.3
		c3.5,4.4,12.3,11.1,15.4,2.8c1-2.7-2-2.3-2.8-0.3c-0.5,1.3-2.6,0.3-4.3-0.8c-1.1-0.7-2-1.4-2.4-1.7C26.5,102.5,24.2,99.3,22.5,96z"
		/>
	<path fill="#99614C" d="M21.8,105.1c-10.5-7.2-11.4-25.2-10.3-36.2c2-20.6,17.9-40.7,36.5-49.3c1.5-0.7,2.3-4.7-0.1-3.6
		C28.3,25,13.2,45.2,9,66.2c-2.5,12.6-1.5,34.3,10.6,42.7C21.1,109.8,23.3,106.1,21.8,105.1z"/>
	<path fill="#99614C" d="M79,122.9c1.7-0.1,3.3-4.1,1.5-4c-8.2,0.4-22.8-0.7-27.6-9.1c-0.1-0.2-0.2-0.3-0.3-0.5c0.1,0,0.3,0,0.4,0.1
		c0.4,0.1,0.7,0.2,1.1,0.3c2.5,0.8,4.8,1.8,7.3,2.4c5.6,1.4,11.8,1.9,17.5,1.3c2.2-0.3,4.7-0.6,5.5-3c1.3-4.2-7.8-3.2-10.1-3.6
		c-5.2-0.9-10.4-2.7-14.8-5.8c-1.4-1-2.5-2.2-3.5-3.6c-0.4-0.5-0.6-1.1-0.8-1.6c-0.1-0.1-0.1-0.3-0.1-0.4c1.4-0.3,3.3,0.9,4.4,1.3
		c3,1.2,6.1,2,9.2,2.7c6.1,1.4,12.7,2.1,19,1.5c2.6-0.3,5.8-0.5,7.6-2.7c1.7-2.1,0.6-3.9-1.5-5c-3.1-1.6-6-2.8-8.6-5.3
		c-0.2-0.2-0.6-0.7-1.1-1.4c-1.1-1.6-2.1-3.9-0.3-3.8c0.9,0,1.9,0.5,3,1.1c1.5,0.8,3,1.8,4.1,2.2c2.9,1.2,6,2,9,2.6
		c7.9,1.6,16,0.2,22.4-4.9c0.2-0.1,0.3-0.3,0.5-0.4c5.6-4.7,9.5-12.4,10.6-19.6c0.4-2.8-2.8-1.1-3,0.8
		c-1.9,12.2-11.3,21.1-23.9,20.8c-6.4-0.2-12.5-2.5-18.3-5.1c-2.5-1.1-4.2-2.3-6.6-0.1c-0.8,0.8-1.4,1.5-1.7,2.3
		c-1.8,4,1.7,8.1,5.5,11.1c1.9,1.4,3.8,2.5,5.2,3.2c0.1,0,0.1,0,0.2,0.1c-2.4,0.4-5,0.4-7.5,0.4c-8-0.1-16.1-1.9-23.6-4.8
		c-3.9-1.5-7.6-0.3-7.9,4.4c-0.4,5.8,7.3,9.8,12.1,11.7c0.1,0,0.1,0.1,0.2,0.1c-0.2,0-0.4-0.1-0.6-0.1c-0.3-0.1-0.6-0.1-0.8-0.2
		c-3-0.7-8.5-4.4-11.8-2.3c-2,1.3-2.4,3.9-1.5,6c1.4,3.1,4,5.4,7.1,7.1C63.4,122.5,72.8,123.1,79,122.9z"/>
	<path fill="#99614C" d="M74.9,81.1c-3.9-8.1-1.9-13.9,0-22c1.9-8.1-8.9-15.8-15.8-1.9c-6.6,17.8,2.7,29,2.7,29
		c0.1,0.1,0.2,0.2,0.3,0.3c3.1,3.4,6,4.8,8.4,4.8C75.1,91.3,77.5,86.4,74.9,81.1z"/>
	<path fill="#99614C" d="M97.5,56.9c0.7,1.8-1.4,2.5-1.4,2.5S95,62.3,97.2,63c3.3,0,4-8.3,2.2-9.4c-1.8-1.1-4.3,1.1-4.3,1.1
		S96.8,55.1,97.5,56.9z"/>
	<circle fill="#99614C" cx="113.4" cy="75.1" r="1"/>
	<circle fill="#99614C" cx="118.4" cy="71.6" r="0.6"/>
	<circle fill="#99614C" cx="113.7" cy="70.9" r="0.6"/>
	<circle fill="#99614C" cx="117.2" cy="77" r="0.6"/>
	<path fill="#99614C" d="M105.5,76.3c0,0.3,0.3,0.6,0.6,0.6c0.3,0,0.6-0.3,0.6-0.6c0-0.3-0.3-0.6-0.6-0.6
		C105.7,75.7,105.5,76,105.5,76.3z"/>
	<path opacity="0.48" fill="#EBA9AC" d="M61.9,28.6c-0.4,1.3-0.9,2.8-1.7,4.3C61,31.3,61.6,29.9,61.9,28.6z"/>
	<path fill="#F9DADB" d="M51.5,30.8C41,50,47.3,71.4,48.8,75.7c0.2,0.5,0.3,0.8,0.3,0.8c-0.2-13.5-0.7-27.7,8.6-39.7
		c1.1-1.4,1.9-2.7,2.6-4c0.8-1.5,1.3-3,1.7-4.3C63.6,21.5,58.5,18.9,51.5,30.8z"/>
	<path opacity="0.48" fill="#EBA9AC" d="M51.5,30.8C41,50,47.3,71.4,48.8,75.7c0.2,0.5,0.3,0.8,0.3,0.8c-0.2-13.5-0.7-27.7,8.6-39.7
		c1.1-1.4,1.9-2.7,2.6-4c0.8-1.5,1.3-3,1.7-4.3C63.6,21.5,58.5,18.9,51.5,30.8z"/>
	<path opacity="0.48" fill="#EBA9AC" d="M141,74.2C141,74.3,141.1,74.3,141,74.2C141.1,74.3,141,74.3,141,74.2z"/>
	<path opacity="0.48" fill="#EBA9AC" d="M141.3,75.1C141.3,75.1,141.3,75.1,141.3,75.1C141.3,75.1,141.3,75.1,141.3,75.1z"/>
	<path fill="#F6CFD0" d="M130.3,79.2c-17.4,17.9-37.5,8.1-37.5,8.1c2.4,3.7,17.4,14.2,35.5,6.1c6.9-3.1,11.4-8.5,13.3-13
		c0.1-2-0.1-3.8-0.4-5.3c0,0,0,0,0-0.1c-0.1-0.3-0.1-0.5-0.2-0.8c0,0,0,0,0-0.1c-0.2-0.5-0.3-1-0.6-1.4
		C138.5,72.6,135.1,74.3,130.3,79.2z"/>
	<path opacity="0.48" fill="#EBA9AC" d="M130.3,79.2c-17.4,17.9-37.5,8.1-37.5,8.1c2.4,3.7,17.4,14.2,35.5,6.1
		c6.9-3.1,11.4-8.5,13.3-13c0.1-2-0.1-3.8-0.4-5.3c0,0,0,0,0-0.1c-0.1-0.3-0.1-0.5-0.2-0.8c0,0,0,0,0-0.1c-0.2-0.5-0.3-1-0.6-1.4
		C138.5,72.6,135.1,74.3,130.3,79.2z"/>
	<path fill="#E0898F" d="M119.1,39.4c-2.6-4.9-6.2-2-6.2-2s-0.3-5.2-5.9-3.9c-5.5,1.3,1.6,12.4,1.6,12.4
		C108.3,44.3,121.7,44.3,119.1,39.4z"/>
</g>
</svg>
