<?xml version="1.0" encoding="utf-8"?>
<!-- Generator: Adobe Illustrator 16.0.0, SVG Export Plug-In . SVG Version: 6.00 Build 0)  -->
<!DOCTYPE svg PUBLIC "-//W3C//DTD SVG 1.1//EN" "http://www.w3.org/Graphics/SVG/1.1/DTD/svg11.dtd">
<svg version="1.1" id="Layer_1" xmlns="http://www.w3.org/2000/svg" xmlns:xlink="http://www.w3.org/1999/xlink" x="0px" y="0px"
	 width="100px" height="100px" viewBox="0 0 100 100" enable-background="new 0 0 100 100" xml:space="preserve">
<g>
	<g>
		<g>
			<g>
				<g>
					<path fill="#D15A27" d="M79.51,61.656c0.031-0.493,0.045-0.991,0.045-1.498c0-14.229-11.539-25.763-25.767-25.763
						c-1.44,0-2.854,0.117-4.233,0.35c-0.125,0.984-0.251,1.563-0.251,1.563s-1.305-0.186-3.225-0.736
						c-10.461,3.273-18.053,13.044-18.053,24.586c0,0.507,0.014,1.005,0.047,1.498H79.51z M68.457,56.438
						c0-0.34,0.273-0.612,0.609-0.612c0.334,0,0.604,0.272,0.604,0.612c0,0.335-0.27,0.604-0.604,0.604
						C68.73,57.042,68.457,56.772,68.457,56.438z M55.69,44.731c0.751,0,1.366,0.616,1.366,1.37c0,0.755-0.615,1.37-1.366,1.37
						c-0.759,0-1.37-0.615-1.37-1.37C54.32,45.347,54.932,44.731,55.69,44.731z M57.818,40.933c0,0.671-0.547,1.214-1.217,1.214
						c-0.674,0-1.217-0.543-1.217-1.214c0-0.67,0.543-1.221,1.217-1.221C57.271,39.712,57.818,40.263,57.818,40.933z M62.527,40.627
						c0,0.503-0.408,0.911-0.911,0.911s-0.911-0.408-0.911-0.911c0-0.502,0.408-0.915,0.911-0.915S62.527,40.125,62.527,40.627z
						 M62.834,45.336c0,0.506-0.408,0.915-0.912,0.915c-0.502,0-0.914-0.409-0.914-0.915c0-0.499,0.412-0.904,0.914-0.904
						C62.426,44.432,62.834,44.837,62.834,45.336z M63.592,54.003c0,0.838-0.678,1.522-1.52,1.522s-1.521-0.685-1.521-1.522
						c0-0.839,0.679-1.517,1.521-1.517S63.592,53.164,63.592,54.003z M67.389,49.443c0,0.419-0.338,0.758-0.758,0.758
						c-0.419,0-0.758-0.339-0.758-0.758s0.339-0.758,0.758-0.758C67.051,48.685,67.389,49.024,67.389,49.443z M71.041,44.88
						c0,0.846-0.682,1.523-1.52,1.523c-0.842,0-1.52-0.678-1.52-1.523c0-0.838,0.678-1.516,1.52-1.516
						C70.359,43.364,71.041,44.042,71.041,44.88z M72.863,51.269c0,0.668-0.543,1.218-1.213,1.218c-0.676,0-1.223-0.55-1.223-1.218
						c0-0.677,0.547-1.217,1.223-1.217C72.32,50.052,72.863,50.592,72.863,51.269z M76.209,56.283c0,0.503-0.408,0.912-0.912,0.912
						c-0.506,0-0.91-0.409-0.91-0.912c0-0.502,0.404-0.91,0.91-0.91C75.801,55.373,76.209,55.781,76.209,56.283z"/>
				</g>
			</g>
		</g>
		<g>
			<g>
				<g>
					<path fill="#D15A27" d="M28.118,64.907c1.106,13.208,12.178,23.58,25.67,23.58c13.491,0,24.56-10.372,25.671-23.58H28.118z"/>
				</g>
			</g>
		</g>
		<g>
			<g>
				<g>
					<path fill="#2E9571" d="M49.303,36.309c0,0,0.126-0.58,0.251-1.563c0.421-3.226,0.851-10.795-3.138-16.528
						c-5.203-7.479-15.959-8.991-15.959-8.991s-2.319,10.613,2.886,18.091c3.392,4.873,9.141,7.212,12.734,8.255
						C47.999,36.123,49.303,36.309,49.303,36.309z M47.021,32.416c0.026-0.014-2.823-5.037-6.764-10.744
						c-3.803-5.806-8.06-9.666-8.129-9.622c-0.04-0.128,5.563,2.485,9.598,8.608C45.832,26.621,47.063,32.449,47.021,32.416z"/>
				</g>
			</g>
		</g>
	</g>
</g>
</svg>
