<?xml version="1.0" encoding="iso-8859-1"?>
<!-- Generator: Adobe Illustrator 13.0.0, SVG Export Plug-In . SVG Version: 6.00 Build 14948)  -->
<!DOCTYPE svg PUBLIC "-//W3C//DTD SVG 1.1//EN" "http://www.w3.org/Graphics/SVG/1.1/DTD/svg11.dtd">
<svg version="1.1" id="Layer_1" xmlns="http://www.w3.org/2000/svg" xmlns:xlink="http://www.w3.org/1999/xlink" x="0px" y="0px"
	 width="100px" height="100px" viewBox="0 0 100 100" enable-background="new 0 0 100 100" xml:space="preserve">
<g>
	<g>
		<linearGradient id="SVGID_1_" gradientUnits="userSpaceOnUse" x1="31.5347" y1="50.8711" x2="56.96" y2="50.8711">
			<stop  offset="0" style="stop-color:#92242C"/>
			<stop  offset="0.3736" style="stop-color:#AE1D28"/>
			<stop  offset="0.6033" style="stop-color:#A81E29"/>
			<stop  offset="0.9032" style="stop-color:#98222B"/>
			<stop  offset="1" style="stop-color:#91242C"/>
		</linearGradient>
		<path fill="url(#SVGID_1_)" d="M56.96,38.483l-0.747-2.601l-4.542,6.668l-0.658-1.592l4.204-6.543
			c-0.452-0.89-0.051-2.17,0.725-3.76l-2.508-0.061l1.087-2.169l-0.354-1.707l2.17-2.446l-1.264-2.97
			C41.899,40.065,32.095,60.512,31.535,80.439h14.376C44.571,68.065,47.74,52.802,56.96,38.483z"/>
		<path fill="#2D5180" d="M56.34,45.769l-0.795,0.861c-0.643,4.497-0.415,8.856,0.678,13.073L52.9,53.938l-0.482,1.662l1.79,8.715
			l-2.556-4.057l-1.022,0.428l5.487,19.753h19.047C66.264,71.418,58.406,61.386,56.34,45.769z"/>
	</g>
	<g>
		<polygon fill="none" points="25.758,79.978 25.762,79.978 25.762,79.978 		"/>
		<path fill="#2D5180" d="M51.233,13.598c-21.181,0.002-38.343,17.166-38.346,38.344c0,9.541,3.494,18.29,9.264,24.997
			c0.084,0.1,1.932,1.877,3.607,3.053c0-0.002,0.004-0.01,0.004-0.015c-0.004,0-0.004,0-0.004,0s0,0,0.004,0
			c0.064-1.057,0.24-3.76,0.462-5.992c-5.188-5.886-8.333-13.581-8.333-22.043c0-9.215,3.726-17.533,9.766-23.575
			c6.041-6.035,14.36-9.762,23.576-9.766c9.217,0.004,17.534,3.731,23.577,9.766c6.036,6.042,9.763,14.36,9.763,23.575
			c0,7.688-2.595,14.749-6.957,20.389c-0.074,0.095-1.121,1.56-1.192,1.651l3.205,3.87c0.064-0.085,0.929-1.105,1.891-2.383
			c5.05-6.49,8.062-14.669,8.062-23.527C89.578,30.764,72.412,13.598,51.233,13.598z"/>
	</g>
</g>
</svg>
