<?xml version="1.0" encoding="iso-8859-1"?>
<!-- Generator: Adobe Illustrator 13.0.0, SVG Export Plug-In . SVG Version: 6.00 Build 14948)  -->
<!DOCTYPE svg PUBLIC "-//W3C//DTD SVG 1.1//EN" "http://www.w3.org/Graphics/SVG/1.1/DTD/svg11.dtd">
<svg version="1.1" id="Layer_1" xmlns="http://www.w3.org/2000/svg" xmlns:xlink="http://www.w3.org/1999/xlink" x="0px" y="0px"
	 width="100px" height="100px" viewBox="0 0 100 100" enable-background="new 0 0 100 100" xml:space="preserve">
<g>
	<g>
		<g>
			<path fill="#5C94CF" d="M73.884,22.155c-34.198-0.631-26.283,26.283-26.283,26.283S74.515,56.353,73.884,22.155z"/>
			<path fill="#5C94CF" d="M47.601,48.438c-34.197-0.638-26.276,26.276-26.276,26.276S48.233,82.629,47.601,48.438z"/>
			<path fill="#5C94CF" d="M73.884,74.715c0.631-34.198-26.283-26.276-26.283-26.276S39.686,75.347,73.884,74.715z"/>
			<path fill="#5C94CF" d="M47.601,48.438c0.633-34.198-26.276-26.283-26.276-26.283S13.403,49.069,47.601,48.438z"/>
			<path fill="#5C94CF" d="M47.601,11.271c-24.626,23.729,0,37.167,0,37.167S72.228,35,47.601,11.271z"/>
			<path fill="#5C94CF" d="M47.601,48.438c-24.626,23.729,0,37.161,0,37.161S72.228,72.167,47.601,48.438z"/>
			<path fill="#5C94CF" d="M84.769,48.438c-23.736-24.631-37.168,0-37.168,0S61.032,73.059,84.769,48.438z"/>
			<path fill="#5C94CF" d="M47.601,48.438c-23.734-24.631-37.167,0-37.167,0S23.867,73.059,47.601,48.438z"/>
		</g>
	</g>
	<text transform="matrix(1 0 0 1 27.2305 61.332)" fill="#FFFFFF" font-family="'Airbus-Special'" font-size="53.5161">p</text>
</g>
</svg>
