<?xml version="1.0" encoding="utf-8"?>
<!-- Generator: Adobe Illustrator 18.1.0, SVG Export Plug-In . SVG Version: 6.00 Build 0)  -->
<svg version="1.0" id="Layer_1" xmlns="http://www.w3.org/2000/svg" xmlns:xlink="http://www.w3.org/1999/xlink" x="0px" y="0px"
	 viewBox="0 0 150 150" enable-background="new 0 0 150 150" xml:space="preserve">
<g>
	<path fill="#F89E1B" d="M109.5,111.2c-0.2-0.6-0.3-1-0.3-1.4c-0.2-1-0.3-1.5-0.9-2.6c-2.7-4.6-7.8-7.5-13.1-7.5
		c-1.3,0-2.5,0.2-3.7,0.5c-5.8,1.5-10.2,6.2-11.3,12.1c-0.4,1.9,0.1,3.6,0.5,5.5c0.3,1.3,0.6,2.5,0.7,3.9c0.4,4.8-0.8,9.4-3.2,13.2
		c14.3-0.8,27.2-6.5,37.1-15.5C112.5,117.5,110.4,114.6,109.5,111.2z"/>
	<path fill="none" d="M79.3,62.4c-5.9,0.3-10.9-4.3-11.2-10.2c-0.3-5.9,4.3-10.9,10.2-11.2c5.9-0.3,10.9,4.3,11.2,10.2
		C89.7,57.1,85.2,62.1,79.3,62.4z"/>
	<path fill="#F89E1B" d="M78.3,41c-5.9,0.3-10.5,5.3-10.2,11.2c0.3,5.9,5.3,10.5,11.2,10.2c5.9-0.3,10.5-5.3,10.2-11.2
		C89.2,45.3,84.2,40.8,78.3,41z"/>
	<path fill="#2675BB" d="M38.6,122.6c-14.3-11-23.5-28.1-23.5-47.5c0-33.1,26.8-59.9,59.9-60c33.1,0.1,59.9,26.8,60,60
		c0,7.5-1.5,14.7-4,21.4c1.7,1.2,3.2,2.8,4.2,4.6c3.4-8,5.4-16.8,5.4-26c0-36.2-29.3-65.6-65.5-65.6C38.8,9.5,9.5,38.8,9.5,75
		c0,23.1,12,43.4,30.1,55.1c-0.2-0.5-0.3-0.9-0.5-1.3C38.6,126.7,38.5,124.6,38.6,122.6z"/>
	<path fill="#FFFFFF" d="M125.9,119.2c-6.3,1.6-12.6-2.2-14.2-8.5c-0.5-2-0.4-2.7-1.5-4.7c-3.8-6.5-11.6-10-19.3-8.1
		c-6.9,1.7-11.8,7.3-12.9,13.8c-0.7,3.7,0.9,6.5,1.2,10.1c0.9,9.3-5.2,18.1-14.5,20.5c-10.3,2.6-20.8-3.7-23.4-14
		c-2.6-10.3,3.7-20.8,14-23.4c5.9-1.5,8.8,1.3,14.1-2.4c4.4-3.1,6.6-8.6,5.3-14.1c-1.5-6-6.8-10-12.7-10c-4.9,0-7.6,3.2-12.2,4.3
		C39.5,85.3,29,79,26.4,68.7c-2.6-10.3,3.7-20.8,14-23.3c10.3-2.6,20.8,3.7,23.4,14c0.8,3.1,0.5,3.9,2.6,6.7
		c4.2,5.3,11.1,7.9,18,6.2c7.6-1.9,12.8-8.5,13.3-15.9c0.2-2.5-0.3-3-0.9-5.2c-1.6-6.3,2.3-12.6,8.5-14.2c6.3-1.6,12.6,2.2,14.2,8.5
		c1.6,6.3-2.2,12.6-8.5,14.2c-2.9,0.7-3.7,0.4-6.6,2.3c-6.6,4.5-10.1,12.7-8.1,20.9c2.2,8.8,10.1,14.7,18.7,14.8
		c2.4,0,2.8-0.6,5.1-1.1c6.2-1.6,12.6,2.3,14.1,8.5C136,111.3,132.1,117.6,125.9,119.2z"/>
	<path fill="#2675BB" d="M120.2,96.5c-2.3,0.6-2.7,1.2-5.1,1.1c-8.7-0.1-16.5-6-18.7-14.8c-2.1-8.2,1.4-16.5,8.1-20.9
		c2.9-1.9,3.6-1.6,6.6-2.3c6.3-1.6,10.1-7.9,8.5-14.2c-1.6-6.3-7.9-10.1-14.2-8.5c-6.3,1.6-10.1,7.9-8.5,14.2
		c0.6,2.3,1.1,2.7,0.9,5.2c-0.5,7.4-5.7,14-13.3,15.9c-6.9,1.7-13.9-0.9-18-6.2c-2.2-2.8-1.9-3.6-2.6-6.7c-2.6-10.3-13-16.6-23.4-14
		c-10.3,2.6-16.6,13-14,23.3c2.6,10.3,13,16.6,23.4,14c4.6-1.1,7.3-4.4,12.2-4.3c5.9,0,11.2,4,12.7,10c1.4,5.5-0.9,11-5.3,14.1
		c-5.3,3.7-8.1,0.9-14.1,2.4c-10.3,2.6-16.6,13-14,23.4c2.6,10.3,13.1,16.6,23.4,14c9.3-2.3,15.4-11.1,14.5-20.5
		c-0.3-3.5-1.8-6.4-1.2-10.1c1.2-6.5,6.1-12.1,12.9-13.8c7.7-1.9,15.5,1.6,19.3,8.1c1.1,2,1,2.6,1.5,4.7c1.6,6.2,7.9,10.1,14.2,8.5
		c6.3-1.6,10.1-7.9,8.5-14.2C132.8,98.7,126.5,94.9,120.2,96.5z"/>
</g>
</svg>
