<?xml version="1.0" encoding="iso-8859-1"?>
<!-- Generator: Adobe Illustrator 13.0.0, SVG Export Plug-In . SVG Version: 6.00 Build 14948)  -->
<!DOCTYPE svg PUBLIC "-//W3C//DTD SVG 1.1//EN" "http://www.w3.org/Graphics/SVG/1.1/DTD/svg11.dtd">
<svg version="1.1" id="Layer_1" xmlns="http://www.w3.org/2000/svg" xmlns:xlink="http://www.w3.org/1999/xlink" x="0px" y="0px"
	 width="100px" height="100px" viewBox="0 0 100 100" enable-background="new 0 0 100 100" xml:space="preserve">
<g>
	<path fill="#256157" d="M12.915,11.187c7.884,2.047,15.991,3.078,24.107,3.67c-2.975,4.51-5.629,9.69-5.229,15.248
		c0.288,4.757,3.605,8.843,7.66,11.082c-1.599-2.935-1.559-6.764,0.496-9.459c1.623-2.407,4.726-3.206,6.292-5.661
		c0.888-1.199,1.095-2.743,0.872-4.198c1.271,1.991,2.271,4.406,1.623,6.796c-0.879,3.678-4.997,5.749-5.253,9.667
		c-0.104,2.694,2.19,4.597,4.229,5.949c-5.349,0.112-10.706,0.016-16.055,0.048c0,1.071,0,2.151,0,3.222
		c2.135,0.976,4.75,1.975,5.293,4.557c2.798,9.596,3.838,19.59,5.205,29.473c0.496,3.877,0.959,7.764,1.407,11.649
		c-4.854-3.966-9.555-8.164-13.521-13.041c-8.812-10.666-13.553-24.123-15.68-37.659C12.779,32.175,12.22,21.637,12.915,11.187z"/>
	<path fill="#00322C" d="M59.154,10.171c-0.137,1.247-0.504,2.631,0.279,3.742c0.455,0.768,1.479,0.775,2.271,0.711
		c7.132-0.608,14.24-1.655,21.181-3.438c0.576,7.492,0.279,15.04-0.424,22.523c-1.199,11.689-4.014,23.363-9.523,33.806
		c-4.933,9.675-12.496,17.662-20.564,24.811c1.088-9.898,2.343-19.781,4.03-29.592c0.735-3.782,1.343-7.628,2.679-11.25
		c0.711-2.239,3.158-2.982,5.053-3.926c0.008-1.08,0.008-2.159,0.008-3.23c-5.469-0.032-10.953,0.072-16.431-0.048
		c-2.039-1.352-4.333-3.254-4.229-5.949c0.256-3.918,4.374-5.989,5.253-9.667c0.647-2.391-0.352-4.806-1.623-6.796
		c-0.176-0.304-0.544-0.919-0.72-1.223c2.359,1.575,4.485,3.718,5.493,6.428c0.775,2.207,0.575,4.973-1.191,6.676
		c-0.983,1.016-2.623,1.959-2.191,3.638c0.816,2.007,4.221,2.327,5.038,0.16c1.207-3.582-0.049-7.388-0.792-10.93
		c2.159,3.07,4.262,6.492,4.374,10.354c0.072,1.863-0.744,3.606-1.831,5.069c2.87-1.623,5.725-3.598,7.3-6.588
		c2.158-3.894,1.751-8.763-0.032-12.721c-1.095-2.462-3.342-4.125-4.646-6.444C56.898,14.201,58.387,12.066,59.154,10.171z"/>
	<path fill="#256157" d="M46.041,56.193c0.592-1.879,1.191-3.766,1.863-5.621c0.664,1.855,1.263,3.742,1.855,5.621
		c1.959,0,3.934,0.008,5.901-0.008c-1.592,1.199-3.238,2.318-4.79,3.559c0.672,1.822,1.287,3.67,1.808,5.541
		c-1.607-1.111-3.19-2.295-4.774-3.438c-1.599,1.144-3.167,2.327-4.781,3.446c0.52-1.887,1.143-3.734,1.807-5.565
		c-1.567-1.224-3.198-2.351-4.79-3.542C42.107,56.201,44.074,56.193,46.041,56.193z"/>
</g>
</svg>
