<?xml version="1.0" encoding="utf-8"?>
<!-- Generator: Adobe Illustrator 18.1.0, SVG Export Plug-In . SVG Version: 6.00 Build 0)  -->
<svg version="1.0" id="Layer_1" xmlns="http://www.w3.org/2000/svg" xmlns:xlink="http://www.w3.org/1999/xlink" x="0px" y="0px"
	 viewBox="0 0 150 150" enable-background="new 0 0 150 150" xml:space="preserve">
<g>
	<path fill="none" d="M53.1,53.4c-2.7,3.5-3.3,8.6-3.3,16.1c3.9-2.2,9.5-5.4,12-10c3.1-6,0.8-11.3,1-15.8
		C60.6,47.8,56.3,49.2,53.1,53.4z"/>
	<path fill="none" d="M52.7,73.6c-2.4,3.5-3.2,7.5-3.2,17c4.5-3.8,10-7,12.9-11.7c4-6.6,2.5-12.5,2.7-17.2
		C62.2,67.6,56,68.8,52.7,73.6z"/>
	<path fill="none" d="M47,31.1c-1.7-3.8-4.7-4.4-5.1-7.8c-0.7,3.2-1.6,6.9-1,10.2c0.7,3.9,4.2,5.9,7,8.7
		C47.9,37.5,48.2,33.9,47,31.1z"/>
	<path fill="none" d="M88.5,144.6h-0.2v0c0,0,0,0,0.1,0.1C88.4,144.7,88.4,144.6,88.5,144.6z"/>
	<path fill="none" d="M58.5,42.8c1.7-4.8,0.3-8.6-0.1-14.1c-1.4,5.2-5.5,5.5-7.8,9.9c-1.7,3.2-1.3,7.9-1.3,13.5
		C52.1,49.9,56.8,47.4,58.5,42.8z"/>
	<path fill="none" d="M26.4,59.2c0-14.6,4-32.9,14.8-42C29.5,23.9,20.1,43.1,19.5,70c-0.3,13.7,4,24.2,10,31.9c7,9,15.7,17.5,18,22
		c0-4.7,0-8.5,0-12.8c0-10.4-7.6-14.5-13-22.1C27.4,79,26.4,70.1,26.4,59.2z"/>
	<path fill="none" d="M33.7,69.6c0.2,4.7,0.2,11,2.7,16.4c2.6,5.7,8.2,8.4,11.8,10.6c0-4.7,0.4-11.7-2.1-15.3
		C42.8,76.6,36.6,75.4,33.7,69.6z"/>
	<path fill="none" d="M47.7,14.5c-4,5.7-4.2,7.9,0.5,12.8c0.7-3.3,0.9-4.9,0.5-6.9C48.4,18.5,47.6,16.6,47.7,14.5z"/>
	<path fill="none" d="M55.2,28.5c0.8-2.9-1.8-7-2.9-9.7c0.1,2.1-1.1,3.8-1.9,6.3c-1,2.9-1.4,5.4-1.4,10C50.9,33.2,54.3,32,55.2,28.5
		z"/>
	<path fill="none" d="M34.7,51.8c0.2,4.6-1.1,10.3,2.7,16.7c2.7,4.5,6,6.5,10.9,9c0-5.5,0.3-11.5-2.2-15.2
		C42.7,57.3,37.5,57.4,34.7,51.8z"/>
	<path fill="none" d="M52,93c-2,2.6-2.1,7.1-2.1,12.7c4-2.9,7-4.4,9.5-8c3.3-4.6,3.5-9.2,3.6-14.3C60.6,88.1,55.1,89,52,93z"/>
	<path fill="none" d="M37.5,36.1c-0.2,3.7-1.6,7.9,1,13.5c1.8,3.9,5.6,7,9.3,9.2c0-5.2,0.4-9.8-1.4-13
		C44.1,41.4,39.3,40.9,37.5,36.1z"/>
	<path fill="#C15927" d="M136.1,121.1v-4.2c0,0,0,0,0,0L136.1,121.1C136.1,121.1,136.1,121.1,136.1,121.1z"/>
	<polygon fill="#C15927" points="88.2,144.6 88.3,144.6 88.3,144.6 	"/>
	<path fill="#C15927" d="M136,87.1C136.1,87.1,136.1,87.1,136,87.1l0-29.1h0V87.1z"/>
	<path fill="#C15927" d="M88.9,62.4c-0.4,0.9-0.6,1.9-0.6,2.9V121c0.1-0.1,0.2-0.3,0.2-0.4V64.4C88.5,63.7,88.7,63,88.9,62.4z"/>
	<path fill="#C15927" d="M136.1,58v-0.2c0,0,0,0-0.4,0.1H95.6c-0.1,0-0.3,0.1-0.4,0.1H136.1C135.7,57.9,135.7,57.9,136.1,58z"/>
	<path fill="#C15927" d="M136.1,134.3v-5.7c0,0,0,0,0,0L136.1,134.3C136.1,134.4,136.1,134.3,136.1,134.3z"/>
	<path fill="#C15927" d="M136.1,109.8v-4.6c0,0,0,0,0,0L136.1,109.8C136.1,109.8,136.1,109.8,136.1,109.8z"/>
	<path fill="#C15927" d="M88.5,144.5v-7.2c-0.1,0.3-0.2,0.7-0.2,1v6.2L88.5,144.5C88.5,144.6,88.5,144.6,88.5,144.5z"/>
	<path fill="#C15927" d="M136.1,97.7v-4c0,0,0,0,0,0L136.1,97.7C136.1,97.7,136.1,97.7,136.1,97.7z"/>
	<path fill="#C15927" d="M88.3,144.6v0.1C88.3,144.7,88.3,144.7,88.3,144.6C88.3,144.7,88.3,144.6,88.3,144.6z"/>
	<path fill="#C15927" d="M88.3,144.9c0.2,0,0.2-0.1,0.2-0.1h-0.2V144.9z"/>
	<path fill="#EEA91F" d="M71.6,7.1H15.4C14.8,7,14.8,7,14.8,7v111.6c0,5.7,4.6,10.3,10.3,10.3h4.6c-7-11.4-11.3-28.8-11.6-47.3
		c1.8,21.1,16.4,32.3,25.5,43.9c0.9,1.1,1.5,2.3,2,3.4h4.8c0-4,0-10,0-10c0-9.8,7.9-14.7,13.1-22c6.6-9.2,8.3-20.6,8.3-31.6
		c0-14.5-2.9-31.5-10.9-40.9C69.4,32,78,51.2,78.6,78c0.3,13.7-4,24.2-10,31.9c-5.8,7.4-12.1,13.5-16,19h5
		c6.4-7.5,15.2-15.9,19.2-25.5c-2,10.1-5.3,18.8-9.5,25.5H82V17.5C82,11.8,77.3,7.1,71.6,7.1z M40.9,33.6c-0.6-3.3,0.3-7,1-10.2
		c0.4,3.3,3.4,3.9,5.1,7.8c1.3,2.8,0.9,6.3,0.9,11.1C45.1,39.5,41.6,37.5,40.9,33.6z M47.8,58.8c-3.7-2.2-7.5-5.3-9.3-9.2
		c-2.6-5.6-1.2-9.8-1-13.5c1.8,4.8,6.6,5.3,9,9.7C48.2,49.1,47.8,53.6,47.8,58.8z M47.5,123.8c-2.4-4.5-11.1-13.1-18-22
		c-6-7.7-10.3-18.1-10-31.9c0.6-26.8,10-46,21.7-52.7c-10.7,9.1-14.8,27.4-14.8,42c0,10.9,1,19.8,8.1,29.8c5.4,7.6,13,11.7,13,22.1
		C47.5,115.3,47.5,119.1,47.5,123.8z M48.2,96.7c-3.7-2.2-9.2-4.9-11.8-10.6c-2.5-5.4-2.5-11.7-2.7-16.4c2.9,5.8,9.1,6.9,12.4,11.8
		C48.6,84.9,48.2,92,48.2,96.7z M48.3,77.5c-4.9-2.5-8.2-4.5-10.9-9c-3.8-6.4-2.5-12.1-2.7-16.7c2.8,5.6,7.9,5.5,11.4,10.5
		C48.6,66,48.3,71.9,48.3,77.5z M48.2,27.3c-4.7-4.9-4.5-7.1-0.5-12.8c-0.1,2.2,0.7,4,1,5.9C49,22.4,48.9,24,48.2,27.3z M50.4,25.1
		c0.8-2.5,1.9-4.2,1.9-6.3c1.1,2.6,3.7,6.7,2.9,9.7c-0.9,3.6-4.3,4.8-6.2,6.6C49,30.5,49.4,28,50.4,25.1z M50.6,38.6
		c2.3-4.3,6.4-4.7,7.8-9.9c0.4,5.5,1.9,9.3,0.1,14.1c-1.7,4.6-6.4,7-9.2,9.3C49.3,46.5,48.8,41.8,50.6,38.6z M59.4,97.8
		c-2.5,3.5-5.5,5.1-9.5,8c0-5.7,0.2-10.1,2.1-12.7c3.1-4,8.6-4.9,11-9.5C62.9,88.6,62.7,93.2,59.4,97.8z M62.4,79
		c-2.8,4.6-8.3,7.9-12.9,11.7c0-9.5,0.7-13.5,3.2-17c3.3-4.9,9.5-6,12.5-11.8C64.9,66.5,66.4,72.4,62.4,79z M62.7,43.7
		c-0.2,4.5,2.1,9.8-1,15.8c-2.4,4.6-8.1,7.8-12,10c0-7.5,0.6-12.6,3.3-16.1C56.3,49.2,60.6,47.8,62.7,43.7z"/>
	<path fill="#00A551" d="M110.2,114.1l3.8,1.1c-3.6,12.2-1.9,21.9,1.9,29.5h14.5c3.1,0,5.7-2.8,5.7-6.4v-4v-5.7v-7.5v-4.2v-7.1v-4.6
		v-7.5v-4v-6.6V58H95.2h-1c-2.5,0-4.6,1.9-5.3,4.4c-0.2,0.6-0.4,1.3-0.4,2v56.3v16.7v7.2c-0.1,0,0,0-0.1,0c-0.1,0-0.1,0.1-0.1,0.1
		c0,0-0.1,0-0.1,0.1h0.2h23.1C108,136.6,106.5,126.4,110.2,114.1z M121.7,112.2l-8.3,0.2c1.8-4.5,5.9-5.7,5.9-5.7l8-0.2
		C126.8,110.4,121.7,112.2,121.7,112.2z M124.1,101.6l-8.3,0.6c1.5-4.6,5.6-6,5.6-6l8-0.6C129.1,99.5,124.1,101.6,124.1,101.6z
		 M126.9,92l-8.3,0.6c1.5-4.5,5.6-6,5.6-6l8-0.6C131.9,89.9,126.9,92,126.9,92z M126.9,64.7c0,0,4.8,6.2-2.7,12.9
		C124.2,77.6,123.1,68,126.9,64.7z M126.6,79.1l5.7-0.5c-0.1,2.8-3.7,4.3-3.7,4.3l-5.9,0.4C123.7,80.1,126.6,79.1,126.6,79.1z
		 M119.2,72.2l3.1,4.8c0,0,0.9,2.9-1,5.8l-3.3-5C118,77.8,117,74.1,119.2,72.2z M113.8,77.1l4.3,6.7c0,0,1.3,4.1-1.4,8.1l-4.6-7
		C112.2,84.9,110.8,79.6,113.8,77.1z M108.6,87.7l5.7,5.6c0,0,2.1,3.7,0.3,8.2l-5.9-5.8C108.7,95.7,106.2,90.8,108.6,87.7z
		 M106.2,98.4l5.7,5.6c0,0,2.1,3.7,0.3,8.2l-5.9-5.8C106.3,106.4,103.8,101.5,106.2,98.4z"/>
	<path fill="#00A551" d="M136,58L136,58C135.7,57.9,135.7,57.9,136,58z"/>
</g>
</svg>
