<?xml version="1.0" encoding="iso-8859-1"?>
<!-- Generator: Adobe Illustrator 13.0.0, SVG Export Plug-In . SVG Version: 6.00 Build 14948)  -->
<!DOCTYPE svg PUBLIC "-//W3C//DTD SVG 1.1//EN" "http://www.w3.org/Graphics/SVG/1.1/DTD/svg11.dtd">
<svg version="1.1" id="Layer_1" xmlns="http://www.w3.org/2000/svg" xmlns:xlink="http://www.w3.org/1999/xlink" x="0px" y="0px"
	 width="100px" height="100px" viewBox="0 0 100 100" enable-background="new 0 0 100 100" xml:space="preserve">
<g>
	<path fill-rule="evenodd" clip-rule="evenodd" fill="#4454A0" d="M2.41,6.479c5.221,0.412,12.087-0.83,16.262,0.627
		C16.494,9.933,9.148,7.586,4.914,8.355c-1.862,3.554,0.613,11.452-1.248,15.007C1.041,20.279,2.862,9.677,2.41,6.479z"/>
	<path fill-rule="evenodd" clip-rule="evenodd" fill="#4454A0" d="M94.957,6.479c-0.412,5.423,0.83,12.499-0.627,16.883
		c-2.834-2.374-0.479-9.942-1.248-14.381c-3.393-2.231-12.641,1.383-15.008-1.875C82.513,5.71,89.494,6.851,94.957,6.479z"/>
	<path fill-rule="evenodd" clip-rule="evenodd" d="M54.94,12.105c1.064-0.23,1.18,0.493,1.247,1.254
		c-6.158,6.705-17.686,14.206-13.753,26.886c8.816,8.478,26.583,2.232,38.771,1.255c-5.383,2.333-13.875,1.55-16.889,6.252
		c2.59,5.126,10.277,5.146,16.26,6.879c-13.26-0.883-40.846-10.657-43.146,6.873c-1.444,11.008,7.622,15.466,8.127,26.266
		c-4.775-7.541-30.965-22.002-20.012-35.021c-3.265-1.732-6.677-3.317-9.375-5.625c1.335-3.521,5.336-6.791,10.002-5.004
		C25.728,22.081,43.419,20.179,54.94,12.105z"/>
	<path fill-rule="evenodd" clip-rule="evenodd" fill="#4454A0" d="M2.41,76.512c0.627,0,1.255,0,1.875,0c0,4.797,0,9.592,0,14.381
		c4.593,0.418,10.832-0.823,14.387,0.627C15.59,94.144,4.987,92.322,1.79,92.774C3.072,88.423,2.121,81.854,2.41,76.512z"/>
	<path fill-rule="evenodd" clip-rule="evenodd" fill="#4454A0" d="M93.082,76.512c0.627,0,1.248,0,1.875,0
		c0,5.632,0,11.258,0,16.883c-4.682-1.152-11.25-0.426-16.883-0.62c1.652-3.98,10.347-0.912,15.008-1.882
		C93.082,86.104,93.082,81.309,93.082,76.512z"/>
</g>
</svg>
