<?xml version="1.0" encoding="utf-8"?>
<!-- Generator: Adobe Illustrator 18.1.0, SVG Export Plug-In . SVG Version: 6.00 Build 0)  -->
<svg version="1.0" id="Layer_1" xmlns="http://www.w3.org/2000/svg" xmlns:xlink="http://www.w3.org/1999/xlink" x="0px" y="0px"
	 viewBox="0 0 150 150" enable-background="new 0 0 150 150" xml:space="preserve">
<g>
	<polygon fill="#49C4D8" points="52.1,102.2 57.5,103.9 57.5,84.9 	"/>
	<path fill="#0F2446" d="M111.9,32.4L94.1,6.5c0,0-0.7-1-1.2-2.3c-0.1-0.1-0.1-0.3-0.2-0.5v16v95.7l19.2,6.3V32.4z"/>
	<g>
		<path fill="#01528F" d="M54.6,132.6c-0.1,0.1-0.2,0.3-0.3,0.4c0,0.2,0,0.4,0,0.6L54.6,132.6z"/>
		<polygon fill="#01528F" points="47.6,116.6 45.6,122.8 56.6,126.2 57,124.9 47.6,122 49.1,117.1 		"/>
		<polygon fill="#01528F" points="46,126.9 44.5,126.4 42.6,132.6 53.5,136 54,134.7 44.5,131.8 		"/>
		<polygon fill="#01528F" points="53.7,97 51.8,103.2 62.7,106.6 63.1,105.3 53.7,102.3 55.2,97.5 		"/>
		<polygon fill="#01528F" points="64.3,101.6 64.6,100.4 64.3,100.3 		"/>
		<polygon fill="#01528F" points="52.1,107.3 50.6,106.8 48.7,113 59.7,116.4 60.1,115.1 50.6,112.1 		"/>
		
			<rect x="64.7" y="59.3" transform="matrix(0.9547 0.2975 -0.2975 0.9547 21.7917 -18.1201)" fill="#01528F" width="11.5" height="6.5"/>
		<path fill="#01528F" d="M41.5,136.3l-1.2,3.8c0.1,0.2,0.3,0.3,0.5,0.4c0.1,0,0.2,0,0.3,0c0.4,0,0.8-0.3,0.9-0.7l1-3.1L41.5,136.3z
			"/>
		<path fill="#01528F" d="M99,117.5L99,117.5l-16.5-5l0.2-0.1l-5.4-1.7l-12.4,7c0,0,0,0,0-0.1c0-0.1,0-0.2,0-0.4l3.2-9.8l15.3,5v-52
			l0.2-0.5c-0.1-0.2-0.1-0.3-0.2-0.5V33.5L65.7,11c0,0-0.7-0.8-1.2-2c-0.1-0.1-0.1-0.3-0.2-0.4v13.9v27.6l0.4-1.3
			c0.3-1,1.4-1.6,2.4-1.3c1,0.3,1.6,1.4,1.3,2.4L67,54.1l11,3.4l1.3-4.1c0.3-1,1.4-1.6,2.4-1.3c1,0.3,1.6,1.4,1.3,2.4l-17.1,55
			c0,0,0,0,0,0c0,0,0,0,0,0l-11.4,36.6c0,0,0,0,0,0c0,0,0,0,0.1,0c0.1,0,0.2,0,0.3,0c0.2,0,0.3,0,0.4-0.1c1,0.1,1.9,0,2.4-0.3
			l46.9-26.6L99,117.5z M59.3,140l-1.6-0.5l0.6-1.7c0.3-0.1,0.5-0.3,0.6-0.6c0.1-0.3,0-0.6-0.1-0.8l0.3-0.9l5.3,1.6L59.3,140z
			 M67.3,135.5l-7.5-2.3l1.3-4l11.2,3.4L67.3,135.5z M75.2,131l-13.3-4.1c0,0,0-0.1,0-0.1l1-3.2l0.8-0.5l16.5,5.1L75.2,131z
			 M83.1,126.5l-16.5-5.1l5-2.8l16.5,5.1L83.1,126.5z M91.1,122L74.6,117l5-2.8l16.5,5.1L91.1,122z"/>
		<path fill="#01528F" d="M73.8,71l-11-3.4l-1.9,6.2l11,3.4L73.8,71z M64.3,73.3l-1.4-0.4l1.4-4.6V73.3z"/>
		<polygon fill="#01528F" points="64.3,89.5 64.3,94.9 56.7,92.5 58.2,87.7 56.7,87.2 54.8,93.4 65.8,96.8 67.7,90.6 		"/>
		<polygon fill="#01528F" points="70.8,80.8 64.3,78.8 64.3,84.1 59.8,82.7 61.3,77.8 59.8,77.4 57.9,83.5 68.8,87 		"/>
	</g>
	<path fill="#49C4D8" d="M57.5,75.2V38L39.7,20.2c0,0-0.7-0.7-1.2-1.6c-0.1-0.1-0.1-0.2-0.2-0.3v11v67l2,2l9.1,3L57.5,75.2z"/>
</g>
</svg>
