<?xml version="1.0" encoding="utf-8"?>
<!-- Generator: Adobe Illustrator 18.1.0, SVG Export Plug-In . SVG Version: 6.00 Build 0)  -->
<svg version="1.0" id="Layer_1" xmlns="http://www.w3.org/2000/svg" xmlns:xlink="http://www.w3.org/1999/xlink" x="0px" y="0px"
	 viewBox="0 0 150 150" enable-background="new 0 0 150 150" xml:space="preserve">
<path fill="#CA92C1" d="M160.8,246.4c-0.2-0.7-0.9-1.2-1.7-1c-0.7,0.2-1.1,0.8-1,1.5c0-0.6,0.4-1.1,1-1.2c0.7-0.2,1.3,0.2,1.5,0.9
	c0.1,0.6-0.1,1.1-0.6,1.4C160.6,247.7,161,247.1,160.8,246.4"/>
<path fill="#C64D9B" d="M159.8,248.5c-0.9,0.2-1.8-0.3-2-1.1c-0.2-0.8,0.2-1.6,0.9-2c-0.6,0.3-0.9,1-0.7,1.7c0.2,0.8,1.1,1.3,1.8,1
	c0.7-0.2,1.1-0.8,1.1-1.5C161.1,247.5,160.6,248.3,159.8,248.5"/>
<g>
	<path fill="#0697CC" d="M159.8,247.2L159.8,247.2C159.8,247.2,159.8,247.2,159.8,247.2z"/>
	<path fill="#0697CC" d="M159.7,246.9C159.7,246.9,159.7,246.9,159.7,246.9C159.7,246.9,159.7,246.9,159.7,246.9z"/>
	<path fill="#C64D9B" d="M159.8,247.2c0.3-0.1,0.4-0.4,0.4-0.4s-0.2,0-0.5,0c0,0,0,0,0,0c0,0,0,0,0,0c0-0.1,0.1-0.2,0.1-0.2
		s-0.1,0-0.1,0c0,0,0,0,0,0c0,0,0,0,0,0c0.1-0.3,0-0.6,0-0.6s-0.1,0-0.1,0.1c0-0.2-0.1-0.3-0.1-0.3s-0.4,0.5-0.4,1
		c0,0,0-0.1-0.1-0.1c0-0.1-0.1-0.1-0.3,0c-0.1,0-0.2,0.1-0.3,0.1c0.2,0,0.6,0.2,0.7,0.4c0,0,0,0,0,0c0,0.2-0.1,0.4-0.3,0.4
		c0.2,0,0.4-0.2,0.4-0.4c0,0,0,0,0-0.1c0,0,0-0.1,0-0.1C159.4,247.3,159.6,247.3,159.8,247.2C159.8,247.3,159.8,247.2,159.8,247.2
		L159.8,247.2"/>
</g>
<g>
	<path fill="none" d="M94.5,44c0.2-0.3,0.4-0.9,0.4-1.2l-1.2,0.4C94.1,43.4,94.4,43.6,94.5,44z"/>
	<path fill="none" d="M81.5,37.6c1.1,1.4,2.8,2.4,4.8,2.6c2.7-0.6,5.5-1.1,8.3-1.1C90.1,37.8,85.7,37.4,81.5,37.6z"/>
	<g>
		<g>
			<path fill="#596B2F" d="M81.8,84.8c10.2-0.1,19.8,1.5,28.4,4.5c-10.1-4.6-22-7.2-34.7-7c-18,0.2-34.2,6-46.1,15
				c-10.1,7.8-17.1,18-19.1,29.4c3.2-4.8,7.5-9.3,12.6-13.2c1.6-2.5,3.5-4.9,5.6-7.1C40.4,93.5,59.8,85.1,81.8,84.8z"/>
			<path fill="#596B2F" d="M144.4,117.3c-4.1-6.5-10-12.3-17.1-16.9c-0.4-0.3-0.9-0.6-1.4-0.8c-11.6-7-26.2-11.2-42.2-11
				c-12.5,0.2-24.2,3-34.1,7.7c-5.7,2.7-10.9,6.1-15.3,10c-2,1.8-3.8,3.6-5.5,5.6c3.6-3.3,7.7-6.2,12.3-8.7
				c5.5-3.1,11.7-5.5,18.4-7.1c6.1-1.5,12.6-2.4,19.4-2.5c0.9,0,1.8,0,2.7,0c13.7,0.2,26.4,3.7,36.9,9.5c0.3,0.2,0.6,0.3,1,0.5
				c3.5,2,6.7,4.3,9.7,6.8c6.7,3,12.7,6.6,17.7,10.9C146,119.9,145.2,118.6,144.4,117.3z"/>
		</g>
		<path fill="#540B2C" d="M118.6,60.3c-0.8-1.8-0.6-3,0.3-5.2c1.7-3.7,4.9-6.5,7.3-9.7c0.7-0.9,7-10.1-2.6-9.3
			c-3.6,3.4-8.4,5.8-13.3,7.2c-0.7,0.2-2.5,0.4-2.5,0.4c-0.9-1.6-2.9-2-4-3.4c-1.5-1.7-1.8-4.1-0.7-6.1c0,0-2.8-0.7-2.1,4.7
			c-1.9-1.1-4.4-2-6.4-2.7c-1.1-3.9-3.8-6.7-7.2-8.3c0,0.2,5.1,4.9,3.9,7.4c-2.8-0.7-8.2-1.7-9.4-1.6c-0.6-0.6-0.3-2.5-0.2-3.4
			c-0.8,0.9-0.8,2.2-1.1,3.2c-1.7,0.2-3.3,0.5-5-0.1c-2.5-2.6-4-5.2-2.1-8.4c-3.8,2.7-1.8,7.1-0.4,9c-5.8,0-11.3,5-17.2,3
			c-2.7-1.1-4.7-3.6-4.7-6.5c-2.7,1,0.8,6.5,2.3,7.7c-6.9,1.3-15.1-0.7-21.2-4.7c0,0,0.2,2.4,6.8,5.5c-3.1,2.3-7,3.9-10.6,4.5
			c0,0.2,3.4,2.1,13.6-3.2C55.5,44.3,68,35.6,81,37.1c0,0-0.5,1.8,1.6,3.7c-4.8,0.8-9.2,3.4-13.8,5.5c-5,1.2-11.4-0.4-14.9-4.3
			c0.5,3.5,4.1,5,6.9,6.6L60,49.2c-14.1,5.4-24.5,0.9-34.2-3.7c0,0,1.7,3.9,7.2,5.9c-1.2,0.4-2.8,1.2-3.8,2.1
			c-0.4,0.5-1.3,0.9-1.2,1.7c3.2-1.6,6.9-2.5,10.4-2.3c7.1,1.5,13.7,1.9,20.7,0.2c6.3-2.6,12.4-4.5,18.6-6.6
			c4.6-1.5,22.6-6.6,25.5,0.8c-5.3,5.7-2.9,14.3-8.2,19.9c0.1,0,5.1-0.7,7.8-5.7c1,3.6,2,7.1,0,10.1c-1.1,1.7-3.6,1.9-5.3,2.5
			c0,0.1,0.1,0.2,0.1,0.3c-34.4,4-34.8-9.4-44.6-11.8c-6.2-1.5-14.4-0.9-22.5,4c-0.9-2.5-3.2-3.5-5.7-4c-7.1-1.2-15,0.3-21.1,4.9
			c-0.3,0.4-0.6,1,0.1,1.1c0,0,6.6-1.5,5.4,0.1c-0.8,0.4-1.8,0.8-1.6,1.8c2.2,0.4,4.5-0.7,6.7-0.7c-0.1,0.4-0.7,1.4,0.3,1.4
			c2.2-0.1,4.6-0.8,6.7-0.6c0,0-1.9,0.5-1.8,1.3c1.3,1.6,5.3,0,7.7,0.4c-2,5.3-2.2,10.9-0.6,16.1c0.9,2.9,2.2,5.9,2.8,8.8
			c11.9-9.1,28.1-14.8,46.1-15c12.7-0.2,24.5,2.4,34.7,7c6.1,2.1,11.7,5,16.7,8.3C129.3,87.3,123.4,71.4,118.6,60.3z M86.3,40.2
			c-1.9-0.1-3.6-1.2-4.8-2.6c4.2-0.2,8.6,0.2,13,1.5C91.8,39,89,39.6,86.3,40.2z"/>
	</g>
</g>
</svg>
