<?xml version="1.0" encoding="utf-8"?>
<!-- Generator: Adobe Illustrator 18.1.0, SVG Export Plug-In . SVG Version: 6.00 Build 0)  -->
<svg version="1.0" id="Layer_1" xmlns="http://www.w3.org/2000/svg" xmlns:xlink="http://www.w3.org/1999/xlink" x="0px" y="0px"
	 viewBox="0 0 150 150" enable-background="new 0 0 150 150" xml:space="preserve">
<g>
	<g>
		<path fill-rule="evenodd" clip-rule="evenodd" fill="#EF4C33" d="M118.6,100.4c-0.9,0-1.7-0.1-2.6,0c-2.4,0.2-3.2-0.8-3.1-3.2
			c0.1-5.2,0-5.3-5.1-5.2c-2.9,0-4.1-1-3.4-3.9c0.1-0.5,0.1-1.1,0.1-1.6c0.1-2-0.4-4.6,0.6-6c0.8-1.1,3.6-0.8,5.4-1
			c2.3-0.2,2.3-1.9,2.4-3.5c0.2-4.9,0.2-4.9,5.2-4.9c0.6,0,1.3,0,2,0c4.7,0,4.9,0,4.8,4.9c-0.1,3,1.1,3.7,3.9,3.7
			c4.7-0.1,4.7,0,4.7,4.6c0,0.7,0,1.3,0,2c-0.1,5.3,0.9,6.1-5.6,5.8c-2-0.1-3.1,0.7-3,2.8C125.3,101.1,124.7,100.3,118.6,100.4z"/>
	</g>
	<g>
		<path fill="#29B473" d="M140.5,145.4c0,0-24-11-41.1-19c-17-8-26.8-13.3-15-36.2c11.8-22.9,11.8-22.9,11.8-22.9
			s-30.6,50.2-49.3,30.1C28.1,77.4,4,58.6,4,58.6s28.5,14.2,43.8,19.2c15.3,5,30.4,6.7,56.3-30C130.1,11.2,135,4.6,135,4.6
			s-23.1,40.8-33.1,65.8c-10,24.9-5.4,38.2,14.3,54.2C135.9,140.6,140.5,145.4,140.5,145.4z"/>
		<path fill="#29B473" d="M73.7,54.1c0,7.1-5.7,12.8-12.8,12.8C53.8,67,48,61.2,48,54.1c0-7.1,5.7-12.8,12.8-12.8
			C67.9,41.3,73.7,47,73.7,54.1z"/>
	</g>
</g>
</svg>
