<?xml version="1.0" encoding="utf-8"?>
<!-- Generator: Adobe Illustrator 18.1.0, SVG Export Plug-In . SVG Version: 6.00 Build 0)  -->
<svg version="1.1" id="Layer_1" xmlns="http://www.w3.org/2000/svg" xmlns:xlink="http://www.w3.org/1999/xlink" x="0px" y="0px"
	 viewBox="0 0 150 150" enable-background="new 0 0 150 150" xml:space="preserve">
<g>
	<g>
		<path fill="#F16522" d="M38.2,89.3c1.4-7,4.8-13.3,10.1-18.7c7.3-7.3,16.2-11,26.4-11c10.2,0,19.1,3.7,26.4,11
			c5.9,6,9.5,13,10.5,21.1l0.1,0.7h9.7l-0.1-0.9c-1.1-10.6-5.7-19.9-13.4-27.7c-9.1-9.1-20.3-13.7-33.1-13.7
			c-12.9,0-24,4.6-33.1,13.7c-1.2,1.2-2.4,2.5-3.4,3.8V5.6H29v86.7h9.2L38.2,89.3z"/>
	</g>
	<g>
		<path fill="#F4EA13" d="M32.4,117.7h85.9c1-2.2,1.9-4.4,2.5-6.8h-91C30.6,113.3,31.4,115.6,32.4,117.7z"/>
	</g>
	<g>
		<path fill="#F4EA13" d="M122.5,98H28.4c0,0.5,0,0.9,0,1.4c0,1.8,0.1,3.6,0.3,5.4h93.5c0.2-1.8,0.3-3.5,0.3-5.4
			C122.5,98.9,122.5,98.5,122.5,98z"/>
	</g>
	<g>
		<path fill="#F4EA13" d="M41.1,130.1h68.5c1.9-1.9,3.6-4,5.1-6.2H36C37.5,126.2,39.2,128.2,41.1,130.1z"/>
	</g>
	<g>
		<path fill="#F4EA13" d="M75.4,144.3c9.9,0,19.1-2.9,26.7-7.9H48.7C56.3,141.3,65.5,144.3,75.4,144.3z"/>
	</g>
</g>
</svg>
