<?xml version="1.0" encoding="iso-8859-1"?>
<!-- Generator: Adobe Illustrator 13.0.0, SVG Export Plug-In . SVG Version: 6.00 Build 14948)  -->
<!DOCTYPE svg PUBLIC "-//W3C//DTD SVG 1.1//EN" "http://www.w3.org/Graphics/SVG/1.1/DTD/svg11.dtd">
<svg version="1.1" id="Layer_1" xmlns="http://www.w3.org/2000/svg" xmlns:xlink="http://www.w3.org/1999/xlink" x="0px" y="0px"
	 width="100px" height="100px" viewBox="0 0 100 100" enable-background="new 0 0 100 100" xml:space="preserve">
<g>
	<g>
		<path fill="#31579B" d="M66.666,13.769c-0.264,2.89-2.954,5.042-6.029,4.795c-3.076-0.24-5.354-2.781-5.096-5.676
			c0.258-2.896,2.961-5.042,6.029-4.802C64.646,8.332,66.924,10.879,66.666,13.769z"/>
		<g>
			<path fill="#CB2529" d="M65.023,56.485c-9.507-2.704-22.599-8.033,8.836-20.748c0,0-21.723,12.672-5.551,20.465
				c1.99,0.779,8.65,3.614,8.099,6.539c-0.359,1.877-3.184,4.407-23.594,4.809l-0.024-1.091c19.691-0.391,22.275-2.866,22.474-3.909
				C75.263,62.551,75.993,59.607,65.023,56.485z"/>
			<g>
				<path fill="#31579B" d="M36.664,64.817c2.368,1.168,5.947,2.062,10.911,2.451c2.247,0.181,4.771,0.276,7.57,0.282v-1.151
					c-15.459-0.043-19.547-2.77-20.267-5.053c-1.24-3.957,5.767-9.304,8.968-11.282l1.03-0.593
					C99.73,17.821,33.991,16.58,33.991,16.58c15.58,9.981,10.143,24.223,5.065,32.316c0,0-6.007,7.235-5.503,11.935
					C33.553,60.831,33.883,63.45,36.664,64.817z"/>
			</g>
		</g>
	</g>
	<g>
		<path fill="#31579B" d="M31.863,85.192c-3.519,0-5.869-1.025-6.689-3.669c-0.953-3.069-0.773-5.347,0.534-6.768
			c1.235-1.349,3.417-1.852,6.312-1.475c14.944,1.978,20.147-0.084,21.873-2.152c1.319-1.576,0.63-3.261,0.6-3.333l1.302-0.497
			c0.041,0.096,1.024,2.434-0.779,4.615c-2.83,3.436-10.634,4.333-23.192,2.673c-1.673-0.215-3.909-0.221-5.054,1.032
			c-0.977,1.061-1.061,2.925-0.251,5.526c1.307,4.214,7.996,3.213,21.573-0.449c5.827-1.57,23.564-6.348,28.965,3.303l-1.24,0.611
			c-3.231-5.767-12.434-6.659-27.341-2.644C41.718,83.789,35.993,85.192,31.863,85.192z"/>
	</g>
	<g>
		<path fill="#31579B" d="M82.396,85.192c0,2.78-2.386,5.035-5.341,5.035c-2.949,0-5.347-2.255-5.347-5.035
			c0-2.776,2.397-5.036,5.347-5.036C80.01,80.156,82.396,82.416,82.396,85.192z"/>
		<path fill="#FFFFFF" d="M80.279,85.192c0,1.678-1.438,3.045-3.225,3.045c-1.785,0-3.231-1.367-3.231-3.045
			c0-1.679,1.446-3.04,3.231-3.04C78.841,82.152,80.279,83.514,80.279,85.192z"/>
		<path fill="#31579B" d="M78.098,85.192c0,0.545-0.462,0.982-1.043,0.982c-0.576,0-1.044-0.438-1.044-0.982
			c0-0.546,0.468-0.983,1.044-0.983C77.636,84.209,78.098,84.646,78.098,85.192z"/>
	</g>
</g>
</svg>
