<?xml version="1.0" encoding="utf-8"?>
<!-- Generator: Adobe Illustrator 18.1.0, SVG Export Plug-In . SVG Version: 6.00 Build 0)  -->
<svg version="1.1" id="Layer_1" xmlns="http://www.w3.org/2000/svg" xmlns:xlink="http://www.w3.org/1999/xlink" x="0px" y="0px"
	 viewBox="0 0 150 150" enable-background="new 0 0 150 150" xml:space="preserve">
<g>
	<path fill="#E6E6E6" d="M34.7,111.9c-0.6,7.8,19.6,13.5,34.6,19.6c8.1,3.3,15.9,3.8,22.7,2.6c-5.7,0.6-12-0.1-18.5-2.8
		c-13.8-5.6-32.5-11-32-18.2c0.2-2.1,2.2-4.8,5.5-7.5c-1.9-0.9-3.6-1.8-5.3-2.7C37.6,106.1,34.9,109.3,34.7,111.9z"/>
	<path fill="#999999" d="M57.7,109.8c-4-1.3-7.6-2.7-10.7-4.2c-3.2,2.7-5.3,5.4-5.5,7.5c-0.5,7.2,18.2,12.5,32,18.2
		c6.5,2.7,12.8,3.3,18.5,2.8c-6.8,1.2-14.6,0.7-22.7-2.6c-14.9-6.1-35.1-11.8-34.6-19.6c0.2-2.6,2.9-5.8,7-9
		c-3.8-2.2-6.9-4.5-9.3-6.9c-7.4,4.9-12.5,10.3-12.8,14.2c-0.7,9.9,24.9,17.1,43.8,24.9c31.7,13,59.4-8.6,60.2-18.5c0,0,0,0,0-0.1
		C106.7,119.1,78.7,116.6,57.7,109.8z"/>
	<path fill="#19191A" d="M102.2,76.8c0.3-1.5,0.5-3.1,0.6-4.7c13.5-6.6,24.1-16.1,24.3-22.7c0-0.3,0-0.7,0-1
		c-2.8,9.2-28.2,18.8-47.1,18.3c-17.5-0.4-24.8-14.2-24.7-21.6c0.1-3.4,2.3-6.4,5.9-9c-0.4-1.7-0.7-3.4-0.8-5
		c-11.1,3.5-18.6,9.3-18.8,16.2c0,0.4,0,0.7,0,1.1C25,54.5,11.3,71.2,11.3,79.7c0,3.5,6.9,6.1,15.4,7.9c0.5,1.1,1.1,2.3,1.8,3.5
		c-8,6.4-12.8,15-13.4,23.5c-0.9,11.7,29.5,22.6,28.5,16.6c-0.1-0.3,16.6,4.1,16.9,4.1c19,2.9,57.5,20.9,64.2-18.9
		c7.4-1.2,12.6-3.5,13.6-6.8C141.2,100.2,126.3,86.8,102.2,76.8z M19.7,69.8c0-6.4,9.9-13.9,22.3-17.6c1.6,11.6,9.8,27.2,30.3,27.7
		c8.6,0.2,18.1-2.2,26.8-6C95.9,83.5,82,97.7,56.4,89.3C38.9,83.6,19.7,78.7,19.7,69.8z M123.6,116.6c-0.7,9.9-28.4,31.4-60.2,18.5
		c-18.9-7.7-44.5-15-43.8-24.9c0.3-4,5.4-9.4,12.8-14.2c2.4,2.4,5.4,4.7,9.3,6.9c1.6,0.9,3.4,1.8,5.3,2.7c3.2,1.5,6.7,2.9,10.7,4.2
		C78.7,116.6,106.7,119.1,123.6,116.6C123.5,116.6,123.6,116.6,123.6,116.6z M133.4,109.2c-3,9.1-41.8,8.6-67.9,0.1
		c-16.6-5.4-24-12.6-26.5-19.6c2.4,0.3,4.8,0.6,6.9,0.9c2.8,5.5,9.5,11,22.5,15.2c23,7.4,57.3,8,59.9-0.1c2.3-7-9-17.2-27.2-24.6
		c0-0.1,0.1-0.2,0.1-0.3C122.6,89.2,136,101,133.4,109.2z"/>
	<path fill="#999999" d="M101.2,80.8c0,0.1-0.1,0.2-0.1,0.3c18.2,7.4,29.5,17.6,27.2,24.6c-2.6,8.1-36.9,7.6-59.9,0.1
		c-13-4.2-19.7-9.7-22.5-15.2c-2.1-0.2-4.5-0.5-6.9-0.9c2.5,6.9,9.9,14.2,26.5,19.6c26.1,8.4,64.9,9,67.9-0.1
		C136,101,122.6,89.2,101.2,80.8z"/>
	<path fill="#999999" d="M56.4,89.3c25.6,8.4,39.5-5.8,42.7-15.5c-8.7,3.8-18.2,6.2-26.8,6c-20.5-0.5-28.7-16.2-30.3-27.7
		c-12.4,3.7-22.3,11.3-22.3,17.6C19.7,78.7,38.9,83.6,56.4,89.3z"/>
	<path fill="#19191A" d="M78.5,29.6c4.2-0.7,8.7-1.1,13.4-1.1c0.1-0.2,0.1-0.4,0.2-0.5c-1.9-0.2-3.8-0.3-5.7-0.3
		c-3.3-0.1-6.6,0-9.7,0.3C77.3,28.5,78,29.1,78.5,29.6z"/>
	<path fill="#999999" d="M94.8,52.5c0,0,9.8-9.7,11.6-16.1c0,0-5.9,9-14.4,11.8c0,0-4.1-9.6-0.1-19.6c-4.7,0-9.2,0.3-13.4,1.1
		c8.5,8.7,5,21.3,5,21.3c-5.3-3.6-8.2-8.4-8.2-8.4C74.5,49.2,81.5,54,81.5,54c-13.4-3.5-18.5-11-20.3-17.9c-3.7,2.6-5.8,5.6-5.9,9
		c-0.2,7.5,7.2,21.2,24.7,21.6c18.9,0.5,44.3-9.1,47.1-18.3c0.2-0.5,0.3-1,0.3-1.5c0.1-3.9-2.3-7.6-6.6-10.7
		C116.7,43.3,108.9,49.7,94.8,52.5z"/>
	<path fill="#ADD137" d="M81.5,54c0,0-7.1-4.8-6.2-11.4c0,0,2.9,4.8,8.2,8.4c0,0,3.5-12.6-5-21.3c-0.6-0.6-1.2-1.1-1.8-1.7
		c-3.4-2.8-8.3-4.9-15.3-5.9c0,0-1.2,3.9-0.9,9c0.1,1.6,0.3,3.3,0.8,5C63,42.9,68.2,50.5,81.5,54z"/>
	<path fill="#ADD137" d="M92,48.1c8.5-2.8,14.4-11.8,14.4-11.8c-1.8,6.5-11.6,16.1-11.6,16.1c14.1-2.7,21.9-9.1,26-16.2
		c7.4-12.7,3.2-27.6,3.2-27.6C104.1,12.1,95.5,20.1,92.1,28c-0.1,0.2-0.1,0.4-0.2,0.5C87.9,38.5,92,48.1,92,48.1z"/>
</g>
</svg>
