<?xml version="1.0" encoding="utf-8"?>
<!-- Generator: Adobe Illustrator 18.1.0, SVG Export Plug-In . SVG Version: 6.00 Build 0)  -->
<svg version="1.1" id="Layer_1" xmlns="http://www.w3.org/2000/svg" xmlns:xlink="http://www.w3.org/1999/xlink" x="0px" y="0px"
	 viewBox="0 0 150 150" enable-background="new 0 0 150 150" xml:space="preserve">
<g>
	<path fill="#009247" d="M30.7,77.6C56.3,48.5,8,30.5,8,30.5C-8,85.6,27.4,78.6,27.4,78.6c3.4,7.1,13.1,10,15.3,10.6
		c0.3,0.1,0.4,0.1,0.4,0.1C29.8,81.5,30.7,77.6,30.7,77.6z M13.3,51.7c0,0,6,17.2,15.8,26.3C29,78,12.9,69,13.3,51.7z"/>
	<g>
		<path fill="#95C23D" d="M102.2,113.7c11-5.7,20.8-14.8,28.3-23.2C115.6,92.7,104,102.1,102.2,113.7z"/>
		<path fill="#95C23D" d="M93.2,99.8c5.4-8,17.9-13.6,32.6-13.6c2.7,0,5.3,0.2,7.8,0.6c7.5-9.1,12-16.5,12-16.5
			C52.5,22.9,44.1,78,43.3,88.8c5.1-1.8,10.9-2.8,17.2-2.8C75.3,86,87.9,91.7,93.2,99.8z M93.5,77.8c4.9,0,8.9,4,8.9,8.9
			c0,4.9-4,8.9-8.9,8.9c-4.9,0-8.9-4-8.9-8.9C84.6,81.7,88.6,77.8,93.5,77.8z"/>
		<path fill="#95C23D" d="M48.9,89.7c-1.9,0-3.8,0.1-5.7,0.3c0,0.3,0,0.5,0,0.5c-15.3,4.1-24.7,22.1-26.7,26.2
			c-0.3,0.5-0.4,0.8-0.4,0.8C36.7,94.3,44,97.5,44,97.5c13.3,17.2,27.2,22.7,40.1,21.7c0.1-0.9,0.2-1.7,0.2-2.6
			C84.3,101.8,68.4,89.7,48.9,89.7z"/>
	</g>
</g>
</svg>
