<?xml version="1.0" encoding="utf-8"?>
<!-- Generator: Adobe Illustrator 18.1.0, SVG Export Plug-In . SVG Version: 6.00 Build 0)  -->
<svg version="1.1" id="Layer_1" xmlns="http://www.w3.org/2000/svg" xmlns:xlink="http://www.w3.org/1999/xlink" x="0px" y="0px"
	 viewBox="0 0 150 150" enable-background="new 0 0 150 150" xml:space="preserve">
<g>
	<g>
		<path fill="#402312" d="M111,39.3c-3.1,0.9-1.9,4.8-0.4,6.4c2.7,3,6.8,1.7,9.3-0.9c2.9-3,1.9-7.6-0.2-10.7
			c-2.6-3.7-7.4-4.3-11.4-3.1c-4.1,1.2-6.7,4-8.2,7.5c0.2-1.5,0.4-2.9,0.6-4.3c0.7-4.6,1-8.8-0.1-13.3C98.6,13,92.4,5.9,83.7,8.3
			c-3.3,0.9-6.1,3.5-6.8,6.9c-0.8,4,1.3,8.1,5.1,9.6c3.3,1.3,7.8-0.2,8.3-4.5c0.2-1.7-0.3-3.4-1.6-4.6c-1.3-1.2-3.2-1.5-4.6-0.3
			c-0.4,0.4-0.4,1.1-0.4,1.6c0.1,0.7,0.7,1.1,1.4,0.8c1.1-0.6,2,0.8,2,1.7c0.1,1.3-1.1,2-2.3,2.4c-3.6,1-5.5-3.4-4.9-6.3
			c0.4-2.4,2.7-3.9,4.9-4.5c2.9-0.8,5.8-0.1,8,1.8c4.6,4,4.9,10.9,4.6,16.6c-0.2,3.9-0.5,8.2-0.4,12.4c-2-7.5-7.9-13.3-15.4-15.2
			c-3.5-1.4-7.8-1.6-11.6-0.5c-5.9,0.6-11.1,3.5-14.6,7.9c-0.1-1.4-0.2-2.8-0.2-4.1c-0.2-5.7,0-12.7,4.6-16.6c2.2-1.9,5.2-2.7,8-1.8
			c2.2,0.6,4.4,2.1,4.9,4.5c0.5,2.9-1.4,7.3-4.9,6.3c-1.1-0.3-2.4-1-2.3-2.4c0.1-0.9,1-2.3,2-1.7c0.7,0.4,1.3-0.1,1.4-0.8
			c0-0.5,0-1.2-0.4-1.6c-1.4-1.2-3.3-0.9-4.6,0.3c-1.3,1.2-1.8,2.9-1.6,4.6c0.5,4.3,5,5.8,8.3,4.5c3.8-1.5,5.9-5.7,5.1-9.6
			c-0.7-3.4-3.5-6-6.8-6.9c-8.7-2.4-14.9,4.7-16.8,12.5c-1.1,4.5-0.8,8.7-0.1,13.3c0.2,1.3,0.4,2.7,0.6,4.1c0,0,0,0.1,0,0.1
			c-1.5-3.4-4.1-6.1-8.1-7.3c-4-1.2-8.8-0.5-11.4,3.1c-2.2,3.1-3.2,7.7-0.2,10.7c2.5,2.6,6.5,3.9,9.3,0.9c1.5-1.6,2.7-5.5-0.4-6.4
			c-0.4-0.1-0.7,0.4-0.6,0.8c0.3,1.2,0.6,2.1-0.4,3.1c-1,1.1-1.9,1.4-3.3,0.9c-3.7-1.4-3.8-5.1-1.8-8.1c2.3-3.3,7.2-3.1,10.3-1.2
			c2.9,1.8,4.6,4.7,5.2,8c0,0,0,0.1,0,0.1c-0.3,1.3-0.4,2.7-0.4,4.1v3.6c-0.9,3.3-2.7,6.3-5.6,8c-2,1.2-5.8,2.2-7.7,0.2
			c-2.1-2.1,1.4-5.8,2.8-3.4c0.1,0.1,0.2,0.2,0.3,0.1c0.3-0.1,0.6-0.2,0.8-0.4c0.2-0.3,0.4-0.6,0.3-1c-0.5-1.3-1.9-2-3.3-2
			c-2,0-3.1,1.3-4,2.9c-1.6,3.2,0.7,6.4,3.9,7.4c5,1.4,9.4-0.5,12.5-3.8v8.4c-4.2-1.9-9.4-1.4-12.6,2.3c-3.3,3.8-3.9,10,0,13.6
			c3.5,3.3,11.4,3.3,12.5-2.6c0.4-2.3-0.9-5.1-3.1-5.8c-1.6-0.5-6.4,1.4-3.7,3.1c0.7,0.4,4.3-3.5,5,1c0.5,2.9-2.7,4.6-5.2,4.1
			c-6.7-1.3-5.9-10.8-0.3-13c6.3-2.4,11.2,4.1,10.1,9.8c-0.3,1.8-1,3.5-1.9,5.1c-6.8,5.3-11.6,12.9-13.1,21.6c0,0,0.1,0,0.1,0
			c-0.2,1.6-0.2,3.2,0.1,4.9c0,0.2,0.1,0.5,0.1,0.7l0.1,0c-0.4,0.9-0.8,1.5-1.1,1.9c-0.2,0.2-0.4,0.3-0.5,0.5c-1.5,1.5-3,4-3,7.8
			c0,5.2,6,8.5,6,12.4v3.9c-1,0.1-2,0.2-3.1,0.4c-1.4,1.9-1.4,2.9,0,4.8h10v-9.2c0-4.4-5.7-8.2-5.7-12.2c0-3.9,2.8-6.5,5.4-8
			c0.4-0.2,1-0.4,1.6-0.6h10.2c1.7,0.5,2.6,1.2,4.7,1.2c1.1,0,2-0.5,2.3-1.2h0.8c0.8,0.7,2,1.3,3.6,1.8c0-0.1,0-0.2,0-0.2
			c0-0.6,0.5-1.1,1.2-1.5h6.2c0.7,0.4,1.2,0.9,1.2,1.5c0,0.1,0,0.2,0,0.2c1.5-0.4,2.8-1,3.6-1.8h0.8c0.4,0.7,1.3,1.2,2.3,1.2
			c2.1,0,3-0.7,4.7-1.2h10.4c1.8,0.5,2.7,1.2,2.7,1.2l0,0c2.3,1.6,4.4,3.9,4.4,7.3c0,4-5.7,7.8-5.7,12.2c0,2.8,0,7.2,0,7.2h0v2h10
			c1.4-1.9,1.4-2.9,0-4.8c-1.1-0.2-2.1-0.4-3.1-0.5v-3.9c0-4,6-7.2,6-12.4c0-3.8-1.5-6.3-3-7.8l0,0c0,0,0,0-0.1-0.1
			c-0.1-0.1-0.2-0.2-0.4-0.3c-0.6-0.6-1.3-2-1.8-4.9l0.1,0c0-3.1-0.9-5.8-2.2-8.4c-2-5.6-5.5-10.6-9.9-14.5
			c-0.9-1.4-1.7-2.9-2.3-4.5c-1.9-5.1-0.2-11.1,6-12c6.1-0.9,10.9,7.3,6,11.8c-6.3,5.7-10.7-5.1-5.1-5c1,0,2.1,2.8,2.5,0.7
			c0.3-1.3-0.7-2-1.8-2.4c-2.4-0.9-4.6,1.3-5.3,3.4c-1.8,6.1,5.7,8.8,10.2,6.5c4.7-2.3,5.9-8,3.7-12.5c-2.6-5.3-8.5-7.2-13.8-5V50.1
			c0.1,0.5,0.2,1.1,0.3,1.6c1.7,6.7,8.2,13.1,16.3,10.9c3.2-0.9,5.5-4.2,3.9-7.4c-0.9-1.7-2-3-4-2.9c-1.4,0-2.8,0.7-3.3,2
			c-0.1,0.4,0,0.7,0.3,1c0.2,0.2,0.5,0.4,0.8,0.4c0.1,0,0.3,0,0.3-0.1c1.4-2.4,4.9,1.3,2.8,3.4c-2,2-5.7,1-7.7-0.2
			c-5.2-3.1-6.9-10.3-6-15.9c0.6-3.3,2.3-6.3,5.2-8c3.2-1.9,8-2.1,10.3,1.2c2,2.9,1.8,6.7-1.8,8.1c-1.4,0.6-2.3,0.2-3.3-0.9
			c-1-1-0.7-1.9-0.4-3.1C111.7,39.7,111.4,39.2,111,39.3z M87,35.5c0.3,4-3.6,8.4-7.5,12.3c-1.4-1-2.8-2.1-4.1-3.1
			c3.5-3.7,6.2-7.6,4.8-9.9c-1.1-3.1-6.9-5.5-10.7-1.7c-3.5,3.6-0.3,7.8,4.2,11.7c-1.3,1.3-2.6,2.5-3.9,3.7c-3.9-3.7-8.2-9-7.3-13.2
			c0.1-1.2,0.6-2.2,1.3-3.2c2.5-1.4,5.4-2.1,8.4-2.1h4.5c3.5,0,6.8,1.1,9.6,2.9C86.6,33.6,86.9,34.5,87,35.5z M87,71.5
			c-0.3,3.4-2.5,5.7-5.6,7c-2.4-0.5-4.9-0.8-7.5-0.8c-2,0-4,0.2-6,0.5c-2.9-1.3-5-3.4-5.4-6.3c-0.9-4.2,3.5-9.5,7.3-13.3
			c1.3,1.1,2.6,2.4,3.9,3.6c-4.6,3.9-7.7,8.2-4.2,11.7c3.9,3.8,9.6,1.3,10.7-1.7c1.4-2.3-1.3-6.2-4.8-9.9c1.3-1.1,2.6-2.1,4-3.1
			C83.4,63,87.3,67.5,87,71.5z M103.5,102.6c0.4,1,0.7,2,0.9,3c0,0-0.1,0-0.1,0C104.1,104.6,103.8,103.6,103.5,102.6z M74.6,45.5
			c1.3,1.1,2.7,2.1,4.1,3.1c-1.4,1.3-2.7,2.6-3.9,3.7l-0.3,0.3c-0.8-0.6-2.3-1.8-3.9-3.3C71.9,48,73.3,46.8,74.6,45.5z M74.5,43.9
			c-3.2-2.8-4.9-5.9-4.4-8.5c0.2-0.9,0.8-1.5,1.7-1.9c1.3-0.5,3-0.5,4.4,0c0.9,0.3,1.7,0.9,2.2,1.6C79.5,37,77.7,40.5,74.5,43.9z
			 M73.8,53.3c-0.5,0.4-2.2,1.7-4.1,3.5c-1.8-1.5-3.4-2.8-4.3-3.5c0.9-0.7,2.5-1.9,4.3-3.5C71.7,51.7,73.3,52.9,73.8,53.3z
			 M74.6,54.5l0.3,0.3c1.1,1.1,2.5,2.3,3.8,3.6c-1.3,1-2.7,2-4,3.1c-1.3-1.3-2.6-2.5-3.9-3.7C72.3,56.3,73.8,55.1,74.6,54.5z
			 M78.4,71.8c-1.6,2.6-7.5,2.7-8.2-0.3c-0.6-2.6,1.2-5.7,4.4-8.5C77.7,66.4,79.6,69.9,78.4,71.8z M79.5,57.7
			c-1.1-1.1-2.3-2.3-3.5-3.4c-0.3-0.3-0.5-0.5-0.8-0.8c0,0,0,0,0,0c0,0,0,0,0,0c0.3-0.3,0.5-0.5,0.8-0.8c1.2-1.2,2.4-2.3,3.6-3.5
			c0.3,0.3,0.7,0.5,1,0.8c1.8,1.3,3.4,2.5,4.6,3.5c0,0,0,0,0,0c0,0,0,0,0,0c0,0,0,0,0,0c-1.1,1-2.8,2.2-4.6,3.5
			C80.3,57.2,79.9,57.4,79.5,57.7z M54.5,70.2V52.8c0.1-0.2,0.1-0.4,0.2-0.6c0.9-3.5,1.1-7.3,1.1-11.2c1.2-3,3.2-5.6,5.7-7.5
			c-0.2,0.5-0.3,1-0.4,1.6c-1,4.6,3.8,10.2,7.8,14.1c-2.1,1.8-3.9,3.2-4.8,3.9C64,53.2,64,53.3,64,53.5c-0.1,0.1,0,0.3,0.1,0.4
			c0.9,0.7,2.7,2.1,4.7,3.9c-4,3.9-8.8,9.7-7.8,14.2c0.5,2.9,2.2,5.1,4.5,6.7c-2.9,0.7-5.7,1.7-8.3,3.1
			C58.1,77.6,57.4,73.3,54.5,70.2z M83.8,79c2.5-1.6,4.3-4.1,4.6-7.5c0.3-3.7-3.4-8.2-8.1-13c0.5-0.4,1-0.7,1.4-1
			c1.8-1.3,3.5-2.5,4.7-3.5c0.2-0.1,0.2-0.3,0.1-0.5c0.1-0.1,0.1-0.3-0.1-0.5c-1.2-1-2.8-2.2-4.7-3.5c-0.5-0.3-0.9-0.7-1.4-1
			c4.7-4.8,8.3-9.2,8-13c0-0.4-0.1-0.8-0.2-1.2c3.7,3.2,6,8,6,13.3v22.3c-3,3-4.1,7.5-3.3,11.9c0,0.1,0,0.1,0,0.2
			C88.8,80.7,86.4,79.7,83.8,79z"/>
	</g>
</g>
</svg>
