<?xml version="1.0" encoding="utf-8"?>
<!-- Generator: Adobe Illustrator 18.1.0, SVG Export Plug-In . SVG Version: 6.00 Build 0)  -->
<svg version="1.1" id="Layer_1" xmlns="http://www.w3.org/2000/svg" xmlns:xlink="http://www.w3.org/1999/xlink" x="0px" y="0px"
	 viewBox="0 0 150 150" enable-background="new 0 0 150 150" xml:space="preserve">
<g>
	<path fill="none" d="M96.4,118.4c2.2,0.7,4.5,1.3,6.9,1.2c0.2,0,0.5,0,0.7,0c1.1-1.6,2-3.4,3-5.2c-1.9,0-3.8,0.1-5.6,0.1
		C100.1,115.7,98.4,117,96.4,118.4z"/>
	<path fill="none" d="M49.7,114.5c-1.4,0-2.9,0-4.3,0c1,1.8,1.9,3.6,3,5.2c2.5,0,5.1-0.1,7.6-0.2C53.1,117.8,50.9,116,49.7,114.5z"
		/>
	<path fill="none" d="M95.1,129.9c0.1-0.1,0.2-0.2,0.3-0.3c-0.3,0.1-0.6,0.3-0.8,0.3C94.8,130,94.9,130,95.1,129.9z"/>
	<path fill="none" d="M59.9,128.2c-1.5,0-3,0-4.6,0c0.6,0.6,1.2,1.1,1.8,1.6c1.1-0.3,2.1-0.6,3.2-0.9L59.9,128.2z"/>
	<path fill="none" d="M95.9,129.2c0.5-0.5,1-0.9,1.5-1.4c-1.8,0.1-3.6,0.4-5.4,0.8C93.3,128.7,94.6,128.9,95.9,129.2z"/>
	<path fill="none" d="M56.7,107.1c-0.8-1.4-2.3-1.8-3.8-2c3.4-0.9,6.9-0.6,10.5-0.7c0.2-0.5,0.2-1.1-0.1-1.7c1,0.5,1.8,1.1,2.4,1.6
		c1.4-0.1,2.7-0.3,4-0.8c0.1-0.4,0.3-1.2,0.4-1.5c0.5,0,1.1,0,1.7,0c0.1-4.6,0.2-8.8,0.3-11.3c0.4-7.3-1.6-9.8-8.1-16.6
		c-4.1-4.3-4.4-6.2-5-9.6c2.6,2.4,2.7,5.1,6.4,7.8c3,2.2,6.3,4.5,7.8,8.1c1-7.5,1.9-18,2.1-25c2.7,7.7,1.3,24.9,1.3,34.5
		c3.3-5.4,8.6-5.1,18-14.5c-5.8,12.2-18.4,13.2-17.4,25.4c0,0.4,0.1,0.8,0.1,1.2c2.7,0,5.3,0,8,0c-0.1,0.5-0.3,1.6-0.4,2.1
		c2.3,0.1,4.7,0.2,7,0.2c0-0.2,0-0.5,0-0.7c0.1,0.2,0.1,0.5,0.2,0.7c3.5,0.1,7,0.1,10.5,0.2c-0.3,0.5-1,1.5-1.3,2
		c3,0.2,6.1,0.2,9.1,0.1c3.5-9.3,5.5-20,5.5-31.6c0-17.6-4.7-33.5-12.1-44.8c-7.4-11.3-17.3-17.9-27.7-17.8c0,0,0,0,0,0
		c-10.5,0-20.3,6.5-27.7,17.8C41,41.4,36.3,57.3,36.3,74.9c0,11.9,2.2,22.9,5.8,32.3C47,107.4,51.8,107.4,56.7,107.1z M48.9,90.8
		c11-10.3,22.5-0.6,21.9,9.1C65.7,94,60.2,104.9,48.9,90.8z M71.4,87.9c-3.5-3.2-12.4,0.9-14.6-6.5C64.4,76.8,68.9,80.8,71.4,87.9z
		 M72.4,76.1c-0.3-3.7-6.4-1-3.9-8.4C74.1,67.1,73.8,71.8,72.4,76.1z M65.1,70.5c-6.3-9.6-2.2-18.4,6.4-17.3
		C78,68.3,65,62.3,65.1,70.5z M79.5,85.1c3.5-5-6.1-11.6,6.4-17.1C90.7,74.5,87.9,80.9,79.5,85.1z M89.7,75.8
		c2.5-5.4-3.2-3.8,0-11.3C95.2,67.7,92.9,73.5,89.7,75.8z M78.1,71.5C77,54.8,82.1,50.1,93.5,51.4C96.6,68.2,83.1,59.9,78.1,71.5z
		 M78.5,101.7c0.2-7.4,3.8-10.3,11.6-8.7C86.9,103.4,83,96.9,78.5,101.7z M84.4,89.6C92,79.9,99.2,79,105.3,84
		C99,97,91.7,90.1,84.4,89.6z M96.8,79.2c2.9-3.7,9.6-5,11.1-0.9C105.2,82.9,101.8,78.3,96.8,79.2z M109.1,60.7
		c1.3,8.7-2.3,16-14,13.8C91.6,63.5,100.1,59.3,109.1,60.7z M99.8,48.6c6.7,10.3-0.7,11.3-5.6,14.1C97.7,58.2,92.2,53.8,99.8,48.6z
		 M97.1,40.5c1.3,14.4-10.4,5.7-14.8,11.6C83,41.9,88.4,39.5,97.1,40.5z M82.5,33c6.4,1.5,3.7,8.7,0.9,11.2
		C84.7,40.1,78.4,38.3,82.5,33z M72.4,32.2c9.2,4,12.6,17.3,3.1,21.9C62.5,48,68.9,34.5,72.4,32.2z M64.3,38
		c5.6,10.9-2.2,10.1-2.5,17.3C55.4,47.6,56.8,40.5,64.3,38z M54.8,38.6c3.2,3.5,0.4,6,1.3,9.3C50.5,45.8,51.7,39.6,54.8,38.6z
		 M58.9,63.2c-13.1,2.6-12.1-10.7-13.3-15.4C60.6,46,61.9,58.2,58.9,63.2z M56.4,68.6c-5.4-2.5-8.6,3.7-13.9-4.8
		C48.5,61.5,53.8,64,56.4,68.6z M41.6,76.1c5.7-9.6,17.4-7.9,23.5,1.8C57,75.7,49.8,88.2,41.6,76.1z M44,83.6
		c7.7-3.5,7.6,2.2,12,0.6C52.7,86.8,47.5,91.1,44,83.6z"/>
	<linearGradient id="SVGID_1_" gradientUnits="userSpaceOnUse" x1="53.6983" y1="116.471" x2="62.4451" y2="216.4295">
		<stop  offset="0" style="stop-color:#A2DDF8"/>
		<stop  offset="0.1166" style="stop-color:#9CD5F3"/>
		<stop  offset="0.3018" style="stop-color:#8BBEE4"/>
		<stop  offset="0.5325" style="stop-color:#7098CC"/>
		<stop  offset="0.797" style="stop-color:#4B64AB"/>
		<stop  offset="1" style="stop-color:#2B388F"/>
	</linearGradient>
	<path fill="url(#SVGID_1_)" d="M51.8,112.7c-0.2-0.9-0.6-1.4-2.2-1.3c2.4-3.1,6,0.5,6.5,2.3c1.9-2.4,0.7-4.9,2.3-9.2
		c-0.8,4.8,1.5,6.3,1,9c1.6-1.2,1-2.8,0-4.4c3,1.2,3.9,4.2,3.6,5.9c2.1-3.3-0.2-3.9-0.5-6.2c-0.3-2.2,0.6-3.3,1-4.4
		c-3.5,0.1-7.1-0.3-10.5,0.7c1.4,0.3,3,0.7,3.8,2c-4.8,0.4-9.7,0.4-14.5,0.2c1,2.5,2.1,5,3.2,7.2c1.4,0,2.9,0,4.3,0
		C47.8,112.3,48.1,111,51.8,112.7z"/>
	<linearGradient id="SVGID_2_" gradientUnits="userSpaceOnUse" x1="101.2288" y1="112.3128" x2="109.971" y2="212.219">
		<stop  offset="0" style="stop-color:#A2DDF8"/>
		<stop  offset="0.1166" style="stop-color:#9CD5F3"/>
		<stop  offset="0.3018" style="stop-color:#8BBEE4"/>
		<stop  offset="0.5325" style="stop-color:#7098CC"/>
		<stop  offset="0.797" style="stop-color:#4B64AB"/>
		<stop  offset="1" style="stop-color:#2B388F"/>
	</linearGradient>
	<path fill="url(#SVGID_2_)" d="M101.3,106.5c0.3-0.5,1-1.5,1.3-2c-3.5-0.1-7-0.1-10.5-0.2c1.2,4-1.8,7.2-0.1,10.3
		c0.3-3.8,4.8-7.5,10.3-5.7c-1.4,0.8-1.3,1.7-1.5,2.8c4.1-2.3,3.7-0.3,0.4,2.8c1.9,0,3.8-0.1,5.6-0.1c1.3-2.5,2.4-5.1,3.5-7.9
		C107.4,106.6,104.4,106.6,101.3,106.5z"/>
	<linearGradient id="SVGID_3_" gradientUnits="userSpaceOnUse" x1="75.7288" y1="114.5489" x2="84.4756" y2="214.507">
		<stop  offset="0" style="stop-color:#A2DDF8"/>
		<stop  offset="0.1166" style="stop-color:#9CD5F3"/>
		<stop  offset="0.3018" style="stop-color:#8BBEE4"/>
		<stop  offset="0.5325" style="stop-color:#7098CC"/>
		<stop  offset="0.797" style="stop-color:#4B64AB"/>
		<stop  offset="1" style="stop-color:#2B388F"/>
	</linearGradient>
	<path fill="url(#SVGID_3_)" d="M96.4,118.4c-5.3,3.5-12.8,6.8-21,6.8c-7.7,0-14.5-2.7-19.4-5.7c-2.5,0.1-5.1,0.1-7.6,0.2
		c0,0,0,0,0,0c2.1,3.2,4.4,6,6.9,8.4c1.5,0,3,0,4.6,0l0.4,0.7c-1.1,0.3-2.1,0.6-3.2,0.9c5.8,5,12.3,7.8,19.1,7.8
		c6.7,0,13.2-2.7,18.9-7.6c-0.2,0-0.3,0-0.5,0c0.2-0.1,0.5-0.2,0.8-0.3c0.2-0.2,0.3-0.3,0.5-0.5c-1.3-0.2-2.6-0.4-3.8-0.6
		c1.8-0.4,3.6-0.7,5.4-0.8c2.3-2.3,4.5-5,6.5-8c0,0,0-0.1,0.1-0.1c-0.2,0-0.5,0-0.7,0C100.9,119.7,98.6,119.1,96.4,118.4z"/>
	<linearGradient id="SVGID_4_" gradientUnits="userSpaceOnUse" x1="69.2031" y1="115.1162" x2="77.9537" y2="215.1181">
		<stop  offset="0" style="stop-color:#A2DDF8"/>
		<stop  offset="0.1166" style="stop-color:#9CD5F3"/>
		<stop  offset="0.3018" style="stop-color:#8BBEE4"/>
		<stop  offset="0.5325" style="stop-color:#7098CC"/>
		<stop  offset="0.797" style="stop-color:#4B64AB"/>
		<stop  offset="1" style="stop-color:#2B388F"/>
	</linearGradient>
	<path fill="url(#SVGID_4_)" d="M65.6,115.9c0.6-1.8,3.9-1.8,4.4-6.5c0.5,1.6,1,4,1.8,6c0-4.2,0-9,0-13.4c-0.6,0-1.1,0-1.7,0
		c-0.1,0.4-0.3,1.2-0.4,1.5c-1.3,0.4-2.7,0.6-4,0.8C71.8,109.3,64.5,113.9,65.6,115.9z"/>
	<linearGradient id="SVGID_5_" gradientUnits="userSpaceOnUse" x1="85.426" y1="113.6952" x2="94.1747" y2="213.6753">
		<stop  offset="0" style="stop-color:#A2DDF8"/>
		<stop  offset="0.1166" style="stop-color:#9CD5F3"/>
		<stop  offset="0.3018" style="stop-color:#8BBEE4"/>
		<stop  offset="0.5325" style="stop-color:#7098CC"/>
		<stop  offset="0.797" style="stop-color:#4B64AB"/>
		<stop  offset="1" style="stop-color:#2B388F"/>
	</linearGradient>
	<path fill="url(#SVGID_5_)" d="M81.1,105.4c-1.4,6.2-1.2,9.8,1.2,11.4c-1.6-2.3,1.7-3.7,0-6.8c2.5,0.6,1,3.8,3.3,4.7
		c0.6-2.6-2.2-4.4,0.1-7.9c4.7,3.4,1.1,6.4,3.1,5.9c1.4-1.3,3.1-5.4,3.2-8.5c-2.3-0.1-4.7-0.1-7-0.2c0.1-0.5,0.3-1.6,0.4-2.1
		c-2.6,0-5.3,0-8,0c0.2,2.7,0.4,7,0.7,11C78.4,110.6,79.1,107.9,81.1,105.4z"/>
	<path fill="#00AC93" d="M82.4,52.1c4.4-5.9,16.1,2.8,14.8-11.6C88.4,39.5,83,41.9,82.4,52.1z"/>
	<path fill="#00AC93" d="M78.1,71.5c5-11.6,18.4-3.4,15.3-20.1C82.1,50.1,77,54.8,78.1,71.5z"/>
	<path fill="#00AC93" d="M79.5,85.1c8.5-4.1,11.2-10.6,6.4-17.1C73.3,73.5,83,80.1,79.5,85.1z"/>
	<path fill="#00AC93" d="M75.5,54.1c9.5-4.6,6.1-17.9-3.1-21.9C68.9,34.5,62.5,48,75.5,54.1z"/>
	<path fill="#00AC93" d="M83.4,44.2c2.8-2.5,5.5-9.7-0.9-11.2C78.4,38.3,84.7,40.1,83.4,44.2z"/>
	<path fill="#00AC93" d="M89.7,64.5c-3.2,7.5,2.5,5.9,0,11.3C92.9,73.5,95.2,67.7,89.7,64.5z"/>
	<path fill="#00AC93" d="M95.1,74.5c11.7,2.2,15.3-5.1,14-13.8C100.1,59.3,91.6,63.5,95.1,74.5z"/>
	<path fill="#00AC93" d="M84.4,89.6C91.7,90.1,99,97,105.3,84C99.2,79,92,79.9,84.4,89.6z"/>
	<path fill="#00AC93" d="M78.5,101.7c4.5-4.9,8.4,1.7,11.6-8.7C82.3,91.4,78.7,94.3,78.5,101.7z"/>
	<path fill="#00AC93" d="M96.8,79.2c5-0.9,8.3,3.7,11.1-0.9C106.5,74.2,99.8,75.5,96.8,79.2z"/>
	<path fill="#00AC93" d="M94.2,62.7c4.8-2.8,12.3-3.8,5.6-14.1C92.2,53.8,97.7,58.2,94.2,62.7z"/>
	<path fill="#00AC93" d="M56.4,68.6c-2.6-4.6-7.9-7.1-13.9-4.8C47.8,72.3,51,66.1,56.4,68.6z"/>
	<path fill="#00AC93" d="M48.9,90.8c11.2,14.1,16.8,3.2,21.9,9.1C71.4,90.2,59.9,80.5,48.9,90.8z"/>
	<path fill="#00AC93" d="M65.1,70.5C65,62.3,78,68.3,71.6,53.2C62.9,52.1,58.9,61,65.1,70.5z"/>
	<path fill="#00AC93" d="M55.9,84.2c-4.4,1.6-4.2-4.1-12-0.6C47.5,91.1,52.7,86.8,55.9,84.2z"/>
	<path fill="#00AC93" d="M56.8,81.4c2.2,7.3,11.1,3.2,14.6,6.5C68.9,80.8,64.4,76.8,56.8,81.4z"/>
	<path fill="#00AC93" d="M65.1,77.9c-6.1-9.7-17.8-11.3-23.5-1.8C49.8,88.2,57,75.7,65.1,77.9z"/>
	<path fill="#00AC93" d="M58.9,63.2c3.1-5,1.8-17.2-13.3-15.4C46.7,52.4,45.7,65.8,58.9,63.2z"/>
	<path fill="#00AC93" d="M68.5,67.7c-2.5,7.3,3.6,4.7,3.9,8.4C73.8,71.8,74.1,67.1,68.5,67.7z"/>
	<path fill="#00AC93" d="M64.3,38c-7.4,2.5-8.9,9.6-2.5,17.3C62.1,48.2,69.8,48.9,64.3,38z"/>
	<path fill="#00AC93" d="M56.1,47.9c-0.9-3.2,1.9-5.7-1.3-9.3C51.7,39.6,50.5,45.8,56.1,47.9z"/>
	<path fill="#00AC93" d="M91.9,104.3c-0.1,3.1-1.8,7.1-3.2,8.5c-2.1,0.5,1.5-2.5-3.1-5.9c-2.3,3.5,0.5,5.3-0.1,7.9
		c-2.3-0.9-0.8-4.1-3.3-4.7c1.8,3.1-1.6,4.5,0,6.8c-2.3-1.6-2.6-5.3-1.2-11.4c-1.9,2.6-2.6,5.3-3,7.5c-0.3-4-0.5-8.3-0.7-11
		c0-0.4-0.1-0.9-0.1-1.2c-1-12.2,11.6-13.2,17.4-25.4c-9.4,9.4-14.7,9-18,14.5c0.1-9.6,1.4-26.7-1.3-34.5c-0.3,7-1.1,17.5-2.1,25
		c-1.5-3.7-4.7-6-7.8-8.1c-3.7-2.7-3.8-5.4-6.4-7.8c0.6,3.4,0.9,5.3,5,9.6c6.5,6.8,8.6,9.3,8.1,16.6c-0.1,2.5-0.2,6.7-0.3,11.3
		c-0.1,4.4-0.1,9.2,0,13.4c-0.8-2-1.3-4.4-1.8-6c-0.4,4.7-3.8,4.7-4.4,6.5c-1-1.9,6.2-6.6,0.2-11.6c-0.7-0.5-1.4-1.1-2.4-1.6
		c0.3,0.7,0.2,1.2,0.1,1.7c-0.3,1.1-1.2,2.3-1,4.4c0.3,2.4,2.6,3,0.5,6.2c0.3-1.7-0.5-4.7-3.6-5.9c1,1.6,1.6,3.1,0,4.4
		c0.4-2.7-1.8-4.2-1-9c-1.6,4.3-0.4,6.8-2.3,9.2c-0.4-1.7-4.1-5.4-6.5-2.3c1.6-0.1,2,0.4,2.2,1.3c-3.7-1.7-4-0.4-2.1,1.8
		c1.2,1.4,3.4,3.2,6.3,5c4.9,3,11.7,5.7,19.4,5.7c8.2,0,15.8-3.3,21-6.8c2-1.3,3.7-2.6,4.9-3.8c3.3-3.1,3.7-5.1-0.4-2.8
		c0.1-1.1,0.1-2,1.5-2.8c-5.5-1.8-9.9,1.8-10.3,5.7c-1.7-3.2,1.2-6.4,0.1-10.3c-0.1-0.2-0.1-0.5-0.2-0.7
		C92,103.8,91.9,104,91.9,104.3z"/>
	<path fill="#00AC93" d="M122.3,74.9c0-18.7-4.9-35.7-13.1-48.3C101.1,14.2,89.4,5.9,76.2,5.9c-13.3,0-24.9,8.2-33.1,20.7
		C34.9,39.2,30,56.2,30,74.9c0,11.3,1.8,21.9,5.1,31.4c0,0.1,0.1,0.3,0.1,0.4c0.2,0.6,0.4,1.2,0.7,1.8c0.8,2,1.6,4,2.5,5.9
		c0.9,1.8,1.8,3.6,2.7,5.3c0.7,1.2,1.3,2.4,2.1,3.5c1.1,1.7,2.3,3.3,3.5,4.9c0.6,0.8,1.3,1.5,1.9,2.3c5,5.5,10.8,9.7,17.3,11.9
		c3.3,1.1,6.8,1.7,10.3,1.7c4.1,0,8.1-0.8,11.9-2.3c5.9-2.3,11.2-6.3,15.8-11.4c0.6-0.7,1.2-1.4,1.8-2.2c1.2-1.5,2.4-3.1,3.5-4.8
		c0.8-1.1,1.4-2.4,2.1-3.6c1-1.7,1.9-3.4,2.7-5.2c1.2-2.6,2.3-5.2,3.2-8C120.5,96.9,122.3,86.2,122.3,74.9z M104,119.6
		c0,0-0.1,0.1-0.1,0.1c-2,3-4.2,5.7-6.5,8c-0.5,0.5-1,0.9-1.5,1.4c-0.2,0.2-0.3,0.3-0.5,0.5c-0.1,0.1-0.2,0.2-0.3,0.3
		c-5.7,4.9-12.2,7.6-18.9,7.6c-6.8,0-13.3-2.8-19.1-7.8c-0.6-0.5-1.2-1.1-1.8-1.6c-2.5-2.4-4.8-5.2-6.9-8.4c0,0,0,0,0,0
		c-1.1-1.6-2.1-3.4-3-5.2c-1.2-2.3-2.3-4.7-3.2-7.2c-3.6-9.4-5.8-20.5-5.8-32.3c0-17.6,4.7-33.5,12.1-44.8
		c7.4-11.3,17.2-17.8,27.7-17.8c0,0,0,0,0,0c10.5,0,20.3,6.5,27.7,17.8c7.4,11.3,12.1,27.2,12.1,44.8c0,11.6-2.1,22.3-5.5,31.6
		c-1,2.8-2.2,5.4-3.5,7.9C106,116.2,105,118,104,119.6z"/>
</g>
</svg>
