<?xml version="1.0" encoding="utf-8"?>
<!-- Generator: Adobe Illustrator 18.1.0, SVG Export Plug-In . SVG Version: 6.00 Build 0)  -->
<svg version="1.1" id="Layer_1" xmlns="http://www.w3.org/2000/svg" xmlns:xlink="http://www.w3.org/1999/xlink" x="0px" y="0px"
	 viewBox="0 0 150 150" enable-background="new 0 0 150 150" xml:space="preserve">
<g>
	<path fill="#00B4E2" d="M93.1,130.7c-0.4,0.1-0.9,0.3-1.3,0.4C92.2,131,92.6,130.9,93.1,130.7z"/>
	<path fill="#00B4E2" d="M64.3,132.7c-0.9-0.2-1.9-0.4-2.8-0.6C62.4,132.3,63.3,132.5,64.3,132.7z"/>
	<path fill="#00B4E2" d="M100.9,127.5c-0.5,0.2-0.9,0.5-1.4,0.7C100,127.9,100.4,127.7,100.9,127.5z"/>
	<path fill="#00B4E2" d="M72.1,133.6c-0.3,0-0.5,0-0.8,0C71.6,133.6,71.8,133.6,72.1,133.6z"/>
	<path fill="#00B4E2" d="M112.4,119.8c-0.5,0.4-1,0.8-1.5,1.2C111.5,120.6,112,120.2,112.4,119.8z"/>
	<path fill="#00B4E2" d="M84.7,132.8c-0.4,0.1-0.8,0.2-1.3,0.2C83.8,133,84.3,132.9,84.7,132.8z"/>
	<path fill="#00B4E2" d="M110.3,121.6c-0.5,0.4-1,0.7-1.4,1.1C109.3,122.3,109.8,121.9,110.3,121.6z"/>
	<path fill="#00B4E2" d="M105.7,124.7c-0.5,0.3-0.9,0.6-1.4,0.9C104.8,125.3,105.3,125,105.7,124.7z"/>
	<path fill="#00B4E2" d="M90.3,131.5c-0.4,0.1-0.9,0.2-1.3,0.4C89.4,131.8,89.9,131.7,90.3,131.5z"/>
	<path fill="#00B4E2" d="M108,123.2c-0.5,0.3-0.9,0.6-1.4,1C107.1,123.9,107.6,123.5,108,123.2z"/>
	<path fill="#00B4E2" d="M87.5,132.2c-0.4,0.1-0.9,0.2-1.3,0.3C86.7,132.4,87.1,132.3,87.5,132.2z"/>
	<path fill="#00B4E2" d="M66.5,133.1c-0.4-0.1-0.9-0.1-1.3-0.2C65.6,132.9,66,133,66.5,133.1z"/>
	<path fill="#00B4E2" d="M103.3,126.2c-0.5,0.3-0.9,0.5-1.4,0.8C102.4,126.7,102.9,126.4,103.3,126.2z"/>
	<path fill="#00B4E2" d="M95.7,129.8c-0.5,0.2-0.9,0.3-1.4,0.5C94.8,130.1,95.3,129.9,95.7,129.8z"/>
	<path fill="#00B4E2" d="M98.3,128.7c-0.5,0.2-0.9,0.4-1.4,0.6C97.4,129.1,97.9,128.9,98.3,128.7z"/>
	<path fill="#00B4E2" d="M118.4,114.1c-0.5,0.6-1,1.1-1.6,1.7C117.3,115.2,117.9,114.6,118.4,114.1z"/>
	<path fill="#00B4E2" d="M78.6,133.5c-0.3,0-0.7,0.1-1,0.1C78,133.6,78.3,133.5,78.6,133.5z"/>
	<path fill="#00B4E2" d="M50,115.4V112h14.3l0.2-16.8c-32.8,4.4-34.8-29.8-34.8-29.8c25-1.3,32.6,12.3,34.9,21.6l0.5-46.1
		C56.5,33.4,65,25.2,65,25.2c8.9,9.3,0.3,15.9,0.3,15.9c0,0,0,0,0,0l1.2,23.1c3-21.9,27.6-20.5,27.6-20.5
		c-1.9,28.3-23.4,27.2-27.3,26.7l1.5,30c2.8-12.6,13.4-37,53.8-32c0,0-0.1,0.5-0.2,1.4l0.3-0.1l10.9,9.7
		c-0.9,13.2-6.2,25.2-14.5,34.6c9.1-10.3,14.6-23.8,14.6-38.7c0-32.3-26.2-58.5-58.5-58.5c-32.3,0-58.5,26.2-58.5,58.5
		c0,27.6,19.1,50.7,44.8,56.8c-0.6-0.1-1.2-0.3-1.8-0.4L50,115.4z M47.3,39.6c20.2,1.2,17.4,18,17.4,18
		C46.3,58.4,47.3,39.6,47.3,39.6z"/>
	<path fill="#00B4E2" d="M116.5,116.1c-0.5,0.5-1,1-1.5,1.5C115.5,117.1,116,116.6,116.5,116.1z"/>
	<path fill="#00B4E2" d="M114.5,118c-0.5,0.5-1,0.9-1.5,1.3C113.5,118.9,114,118.5,114.5,118z"/>
	<path fill="#00B4E2" d="M81.7,133.2c-0.4,0-0.8,0.1-1.2,0.1C81,133.3,81.3,133.3,81.7,133.2z"/>
	<path fill="#00B4E2" d="M69.2,133.4c-0.4,0-0.7-0.1-1.1-0.1C68.4,133.3,68.8,133.4,69.2,133.4z"/>
	<linearGradient id="SVGID_1_" gradientUnits="userSpaceOnUse" x1="80.8194" y1="163.8015" x2="48.3677" y2="101.3945">
		<stop  offset="0" style="stop-color:#FFFFFF"/>
		<stop  offset="1" style="stop-color:#231F20"/>
	</linearGradient>
	<path opacity="0.59" fill="url(#SVGID_1_)" d="M65.1,132.9c-0.3,0-0.6-0.1-0.9-0.2C64.5,132.8,64.8,132.8,65.1,132.9z"/>
	<linearGradient id="SVGID_2_" gradientUnits="userSpaceOnUse" x1="130.834" y1="137.794" x2="98.3824" y2="75.3869">
		<stop  offset="0" style="stop-color:#FFFFFF"/>
		<stop  offset="1" style="stop-color:#231F20"/>
	</linearGradient>
	<path opacity="0.59" fill="url(#SVGID_2_)" d="M118.5,113.9c-0.1,0.1-0.1,0.1-0.2,0.2C118.4,114,118.5,113.9,118.5,113.9z"/>
	<linearGradient id="SVGID_3_" gradientUnits="userSpaceOnUse" x1="128.6246" y1="138.9429" x2="96.1729" y2="76.5358">
		<stop  offset="0" style="stop-color:#FFFFFF"/>
		<stop  offset="1" style="stop-color:#231F20"/>
	</linearGradient>
	<path opacity="0.59" fill="url(#SVGID_3_)" d="M116.8,115.7c-0.1,0.1-0.2,0.2-0.3,0.3C116.6,116,116.7,115.9,116.8,115.7z"/>
	<linearGradient id="SVGID_4_" gradientUnits="userSpaceOnUse" x1="82.6779" y1="162.8351" x2="50.2262" y2="100.428">
		<stop  offset="0" style="stop-color:#FFFFFF"/>
		<stop  offset="1" style="stop-color:#231F20"/>
	</linearGradient>
	<path opacity="0.59" fill="url(#SVGID_4_)" d="M68,133.3c-0.5-0.1-1.1-0.1-1.6-0.2C67,133.1,67.5,133.2,68,133.3z"/>
	<linearGradient id="SVGID_5_" gradientUnits="userSpaceOnUse" x1="84.8955" y1="161.6819" x2="52.4439" y2="99.2749">
		<stop  offset="0" style="stop-color:#FFFFFF"/>
		<stop  offset="1" style="stop-color:#231F20"/>
	</linearGradient>
	<path opacity="0.59" fill="url(#SVGID_5_)" d="M71.3,133.6c-0.7,0-1.4-0.1-2.2-0.2C69.9,133.5,70.6,133.5,71.3,133.6z"/>
	<linearGradient id="SVGID_6_" gradientUnits="userSpaceOnUse" x1="78.3832" y1="165.0683" x2="45.9316" y2="102.6612">
		<stop  offset="0" style="stop-color:#FFFFFF"/>
		<stop  offset="1" style="stop-color:#231F20"/>
	</linearGradient>
	<path opacity="0.59" fill="url(#SVGID_6_)" d="M61.4,132.1c-0.1,0-0.3-0.1-0.4-0.1C61.2,132.1,61.3,132.1,61.4,132.1z"/>
	<linearGradient id="SVGID_7_" gradientUnits="userSpaceOnUse" x1="97.2169" y1="155.2749" x2="64.7652" y2="92.8678">
		<stop  offset="0" style="stop-color:#FFFFFF"/>
		<stop  offset="1" style="stop-color:#231F20"/>
	</linearGradient>
	<path opacity="0.59" fill="url(#SVGID_7_)" d="M86.2,132.5c-0.5,0.1-1,0.2-1.6,0.3C85.2,132.7,85.7,132.6,86.2,132.5z"/>
	<linearGradient id="SVGID_8_" gradientUnits="userSpaceOnUse" x1="116.8886" y1="145.0456" x2="84.4369" y2="82.6385">
		<stop  offset="0" style="stop-color:#FFFFFF"/>
		<stop  offset="1" style="stop-color:#231F20"/>
	</linearGradient>
	<path opacity="0.59" fill="url(#SVGID_8_)" d="M106.6,124.2c-0.3,0.2-0.6,0.4-0.9,0.6C106,124.6,106.3,124.4,106.6,124.2z"/>
	<linearGradient id="SVGID_9_" gradientUnits="userSpaceOnUse" x1="87.3203" y1="160.4211" x2="54.8687" y2="98.014">
		<stop  offset="0" style="stop-color:#FFFFFF"/>
		<stop  offset="1" style="stop-color:#231F20"/>
	</linearGradient>
	<path opacity="0.59" fill="url(#SVGID_9_)" d="M74.7,133.7c-0.9,0-1.8,0-2.6-0.1C72.9,133.6,73.8,133.7,74.7,133.7z"/>
	<linearGradient id="SVGID_10_" gradientUnits="userSpaceOnUse" x1="112.0055" y1="147.5848" x2="82.1178" y2="90.1083">
		<stop  offset="0" style="stop-color:#FFFFFF"/>
		<stop  offset="1" style="stop-color:#231F20"/>
	</linearGradient>
	<path opacity="0.59" fill="url(#SVGID_10_)" d="M101.9,126.9c-0.4,0.2-0.7,0.4-1.1,0.5C101.2,127.3,101.6,127.1,101.9,126.9z"/>
	<linearGradient id="SVGID_11_" gradientUnits="userSpaceOnUse" x1="109.5448" y1="148.8643" x2="77.0932" y2="86.4572">
		<stop  offset="0" style="stop-color:#FFFFFF"/>
		<stop  offset="1" style="stop-color:#231F20"/>
	</linearGradient>
	<path opacity="0.59" fill="url(#SVGID_11_)" d="M99.5,128.2c-0.4,0.2-0.8,0.4-1.2,0.5C98.7,128.5,99.1,128.3,99.5,128.2z"/>
	<linearGradient id="SVGID_12_" gradientUnits="userSpaceOnUse" x1="114.4553" y1="146.3109" x2="82.0037" y2="83.9038">
		<stop  offset="0" style="stop-color:#FFFFFF"/>
		<stop  offset="1" style="stop-color:#231F20"/>
	</linearGradient>
	<path opacity="0.59" fill="url(#SVGID_12_)" d="M104.3,125.6c-0.3,0.2-0.7,0.4-1,0.6C103.7,126,104,125.8,104.3,125.6z"/>
	<linearGradient id="SVGID_13_" gradientUnits="userSpaceOnUse" x1="124.0421" y1="141.3258" x2="91.5905" y2="78.9187">
		<stop  offset="0" style="stop-color:#FFFFFF"/>
		<stop  offset="1" style="stop-color:#231F20"/>
	</linearGradient>
	<path opacity="0.59" fill="url(#SVGID_13_)" d="M113,119.3c-0.2,0.2-0.4,0.3-0.6,0.5C112.6,119.7,112.8,119.5,113,119.3z"/>
	<linearGradient id="SVGID_14_" gradientUnits="userSpaceOnUse" x1="121.6876" y1="142.5501" x2="89.2359" y2="80.143">
		<stop  offset="0" style="stop-color:#FFFFFF"/>
		<stop  offset="1" style="stop-color:#231F20"/>
	</linearGradient>
	<path opacity="0.59" fill="url(#SVGID_14_)" d="M111,121c-0.2,0.2-0.5,0.4-0.7,0.5C110.5,121.4,110.8,121.2,111,121z"/>
	<linearGradient id="SVGID_15_" gradientUnits="userSpaceOnUse" x1="119.3009" y1="143.7912" x2="86.8493" y2="81.3841">
		<stop  offset="0" style="stop-color:#FFFFFF"/>
		<stop  offset="1" style="stop-color:#231F20"/>
	</linearGradient>
	<path opacity="0.59" fill="url(#SVGID_15_)" d="M108.9,122.6c-0.3,0.2-0.5,0.4-0.8,0.6C108.3,123,108.6,122.8,108.9,122.6z"/>
	<linearGradient id="SVGID_16_" gradientUnits="userSpaceOnUse" x1="107.0775" y1="150.1474" x2="74.6258" y2="87.7403">
		<stop  offset="0" style="stop-color:#FFFFFF"/>
		<stop  offset="1" style="stop-color:#231F20"/>
	</linearGradient>
	<path opacity="0.59" fill="url(#SVGID_16_)" d="M97,129.3c-0.4,0.2-0.8,0.3-1.2,0.5C96.1,129.6,96.6,129.4,97,129.3z"/>
	<linearGradient id="SVGID_17_" gradientUnits="userSpaceOnUse" x1="104.6075" y1="151.4318" x2="72.1558" y2="89.0247">
		<stop  offset="0" style="stop-color:#FFFFFF"/>
		<stop  offset="1" style="stop-color:#231F20"/>
	</linearGradient>
	<path opacity="0.59" fill="url(#SVGID_17_)" d="M94.4,130.3c-0.4,0.2-0.9,0.3-1.3,0.4C93.5,130.6,93.9,130.4,94.4,130.3z"/>
	<linearGradient id="SVGID_18_" gradientUnits="userSpaceOnUse" x1="92.2838" y1="157.8401" x2="59.8321" y2="95.433">
		<stop  offset="0" style="stop-color:#FFFFFF"/>
		<stop  offset="1" style="stop-color:#231F20"/>
	</linearGradient>
	<path opacity="0.59" fill="url(#SVGID_18_)" d="M80.6,133.4c-0.6,0.1-1.3,0.1-1.9,0.1C79.3,133.5,79.9,133.4,80.6,133.4z"/>
	<linearGradient id="SVGID_19_" gradientUnits="userSpaceOnUse" x1="89.5165" y1="159.279" x2="57.0649" y2="96.8719">
		<stop  offset="0" style="stop-color:#FFFFFF"/>
		<stop  offset="1" style="stop-color:#231F20"/>
	</linearGradient>
	<path opacity="0.59" fill="url(#SVGID_19_)" d="M77.7,133.6c-1,0-2,0.1-2.9,0.1C75.7,133.7,76.7,133.6,77.7,133.6z"/>
	<linearGradient id="SVGID_20_" gradientUnits="userSpaceOnUse" x1="94.7617" y1="156.5515" x2="62.3101" y2="94.1444">
		<stop  offset="0" style="stop-color:#FFFFFF"/>
		<stop  offset="1" style="stop-color:#231F20"/>
	</linearGradient>
	<path opacity="0.59" fill="url(#SVGID_20_)" d="M83.4,133c-0.6,0.1-1.1,0.1-1.7,0.2C82.3,133.2,82.9,133.1,83.4,133z"/>
	<linearGradient id="SVGID_21_" gradientUnits="userSpaceOnUse" x1="126.3571" y1="140.122" x2="93.9054" y2="77.7149">
		<stop  offset="0" style="stop-color:#FFFFFF"/>
		<stop  offset="1" style="stop-color:#231F20"/>
	</linearGradient>
	<path opacity="0.59" fill="url(#SVGID_21_)" d="M115,117.6c-0.2,0.1-0.3,0.3-0.5,0.4C114.7,117.9,114.8,117.7,115,117.6z"/>
	<linearGradient id="SVGID_22_" gradientUnits="userSpaceOnUse" x1="102.1394" y1="152.7152" x2="69.6877" y2="90.3081">
		<stop  offset="0" style="stop-color:#FFFFFF"/>
		<stop  offset="1" style="stop-color:#231F20"/>
	</linearGradient>
	<path opacity="0.59" fill="url(#SVGID_22_)" d="M91.7,131.1c-0.5,0.1-0.9,0.3-1.4,0.4C90.8,131.4,91.3,131.3,91.7,131.1z"/>
	<linearGradient id="SVGID_23_" gradientUnits="userSpaceOnUse" x1="99.6747" y1="153.9968" x2="67.2231" y2="91.5897">
		<stop  offset="0" style="stop-color:#FFFFFF"/>
		<stop  offset="1" style="stop-color:#231F20"/>
	</linearGradient>
	<path opacity="0.59" fill="url(#SVGID_23_)" d="M89,131.9c-0.5,0.1-1,0.2-1.5,0.3C88,132.1,88.5,132,89,131.9z"/>
	<path fill="#00B4E2" d="M118.4,114.1c0.1-0.1,0.1-0.1,0.2-0.2c8.3-9.4,13.6-21.4,14.5-34.6l-10.9-9.7l-0.3,0.1
		c-1.5,8-10.9,46.8-53.2,37.9l0.2,4.4H69v3H50.2l9.1,16.4c0.6,0.2,1.2,0.4,1.7,0.5c0.1,0,0.3,0.1,0.4,0.1c0.9,0.2,1.9,0.4,2.8,0.6
		c0.3,0.1,0.6,0.1,0.9,0.2c0.4,0.1,0.9,0.1,1.3,0.2c0.5,0.1,1.1,0.1,1.6,0.2c0.4,0,0.7,0.1,1.1,0.1c0.7,0.1,1.4,0.1,2.2,0.2
		c0.3,0,0.5,0,0.8,0c0.9,0,1.7,0.1,2.6,0.1c1,0,2,0,2.9-0.1c0.3,0,0.7-0.1,1-0.1c0.6,0,1.3-0.1,1.9-0.1c0.4,0,0.8-0.1,1.2-0.1
		c0.6-0.1,1.1-0.1,1.7-0.2c0.4-0.1,0.8-0.1,1.3-0.2c0.5-0.1,1-0.2,1.6-0.3c0.4-0.1,0.9-0.2,1.3-0.3c0.5-0.1,1-0.2,1.5-0.3
		c0.4-0.1,0.9-0.2,1.3-0.4c0.5-0.1,0.9-0.3,1.4-0.4c0.5-0.1,0.9-0.3,1.3-0.4c0.4-0.1,0.9-0.3,1.3-0.4c0.5-0.2,0.9-0.3,1.4-0.5
		c0.4-0.2,0.8-0.3,1.2-0.5c0.5-0.2,0.9-0.4,1.4-0.6c0.4-0.2,0.8-0.3,1.2-0.5c0.5-0.2,0.9-0.4,1.4-0.7c0.4-0.2,0.7-0.4,1.1-0.5
		c0.5-0.2,0.9-0.5,1.4-0.8c0.3-0.2,0.7-0.4,1-0.6c0.5-0.3,0.9-0.6,1.4-0.9c0.3-0.2,0.6-0.4,0.9-0.6c0.5-0.3,0.9-0.6,1.4-1
		c0.3-0.2,0.5-0.4,0.8-0.6c0.5-0.3,1-0.7,1.4-1.1c0.2-0.2,0.5-0.4,0.7-0.5c0.5-0.4,1-0.8,1.5-1.2c0.2-0.2,0.4-0.3,0.6-0.5
		c0.5-0.4,1-0.9,1.5-1.3c0.2-0.1,0.3-0.3,0.5-0.4c0.5-0.5,1-1,1.5-1.5c0.1-0.1,0.2-0.2,0.3-0.3C117.3,115.2,117.9,114.6,118.4,114.1
		z"/>
	<linearGradient id="SVGID_24_" gradientUnits="userSpaceOnUse" x1="116.5744" y1="145.209" x2="84.1227" y2="82.8019">
		<stop  offset="0" style="stop-color:#FFFFFF"/>
		<stop  offset="1" style="stop-color:#231F20"/>
	</linearGradient>
	<path opacity="0.59" fill="url(#SVGID_24_)" d="M118.4,114.1c0.1-0.1,0.1-0.1,0.2-0.2c8.3-9.4,13.6-21.4,14.5-34.6l-10.9-9.7
		l-0.3,0.1c-1.5,8-10.9,46.8-53.2,37.9l0.2,4.4H69v3H50.2l9.1,16.4c0.6,0.2,1.2,0.4,1.7,0.5c0.1,0,0.3,0.1,0.4,0.1
		c0.9,0.2,1.9,0.4,2.8,0.6c0.3,0.1,0.6,0.1,0.9,0.2c0.4,0.1,0.9,0.1,1.3,0.2c0.5,0.1,1.1,0.1,1.6,0.2c0.4,0,0.7,0.1,1.1,0.1
		c0.7,0.1,1.4,0.1,2.2,0.2c0.3,0,0.5,0,0.8,0c0.9,0,1.7,0.1,2.6,0.1c1,0,2,0,2.9-0.1c0.3,0,0.7-0.1,1-0.1c0.6,0,1.3-0.1,1.9-0.1
		c0.4,0,0.8-0.1,1.2-0.1c0.6-0.1,1.1-0.1,1.7-0.2c0.4-0.1,0.8-0.1,1.3-0.2c0.5-0.1,1-0.2,1.6-0.3c0.4-0.1,0.9-0.2,1.3-0.3
		c0.5-0.1,1-0.2,1.5-0.3c0.4-0.1,0.9-0.2,1.3-0.4c0.5-0.1,0.9-0.3,1.4-0.4c0.5-0.1,0.9-0.3,1.3-0.4c0.4-0.1,0.9-0.3,1.3-0.4
		c0.5-0.2,0.9-0.3,1.4-0.5c0.4-0.2,0.8-0.3,1.2-0.5c0.5-0.2,0.9-0.4,1.4-0.6c0.4-0.2,0.8-0.3,1.2-0.5c0.5-0.2,0.9-0.4,1.4-0.7
		c0.4-0.2,0.7-0.4,1.1-0.5c0.5-0.2,0.9-0.5,1.4-0.8c0.3-0.2,0.7-0.4,1-0.6c0.5-0.3,0.9-0.6,1.4-0.9c0.3-0.2,0.6-0.4,0.9-0.6
		c0.5-0.3,0.9-0.6,1.4-1c0.3-0.2,0.5-0.4,0.8-0.6c0.5-0.3,1-0.7,1.4-1.1c0.2-0.2,0.5-0.4,0.7-0.5c0.5-0.4,1-0.8,1.5-1.2
		c0.2-0.2,0.4-0.3,0.6-0.5c0.5-0.4,1-0.9,1.5-1.3c0.2-0.1,0.3-0.3,0.5-0.4c0.5-0.5,1-1,1.5-1.5c0.1-0.1,0.2-0.2,0.3-0.3
		C117.3,115.2,117.9,114.6,118.4,114.1z"/>
	<path fill="#FFFFFF" d="M68.2,100.4l-1.5-30c3.9,0.4,25.5,1.6,27.3-26.7c0,0-24.6-1.4-27.6,20.5l-1.2-23.1c0,0,0,0,0,0
		c0,0,8.6-6.6-0.3-15.9c0,0-8.5,8.2,0.1,15.8L64.6,87c-2.3-9.2-9.9-22.8-34.9-21.5c0,0,2,34.1,34.8,29.6L64.3,112H50v3h19v-3h-0.2
		l-0.2-4.4c42.3,8.9,51.8-30,53.2-38c0.2-0.9,0.2-1.4,0.2-1.4C81.7,63.3,71,87.7,68.2,100.4z"/>
	<path fill="#FFFFFF" d="M64.7,57.6c0,0,2.8-16.8-17.4-18C47.3,39.6,46.3,58.4,64.7,57.6z"/>
</g>
</svg>
