<?xml version="1.0" encoding="iso-8859-1"?>
<!-- Generator: Adobe Illustrator 13.0.0, SVG Export Plug-In . SVG Version: 6.00 Build 14948)  -->
<!DOCTYPE svg PUBLIC "-//W3C//DTD SVG 1.1//EN" "http://www.w3.org/Graphics/SVG/1.1/DTD/svg11.dtd">
<svg version="1.1" id="Layer_1" xmlns="http://www.w3.org/2000/svg" xmlns:xlink="http://www.w3.org/1999/xlink" x="0px" y="0px"
	 width="100px" height="100px" viewBox="0 0 100 100" enable-background="new 0 0 100 100" xml:space="preserve">
<g>
	<path fill="#CCCCCC" d="M69.319,87.397c0,0.569-12.161,1.029-27.157,1.029c-15,0-27.159-0.46-27.159-1.029
		c0-0.564,12.159-1.024,27.159-1.024C57.158,86.373,69.319,86.833,69.319,87.397z"/>
	<g>
		<path d="M36.185,63.363l0.232-2.044c0.108-0.313,0.162-0.919,0.162-1.808l6.053-34.142H23.99l-5.663,32.252
			c-0.156,0.682-0.261,1.193-0.314,1.532c-0.053,0.342-0.145,0.932-0.275,1.769c-0.13,0.841-0.194,1.591-0.194,2.245
			c0,0.655,0,1.325,0,2.006c0,6.558,2.001,11.273,6.015,14.158c3.911,2.81,9.577,4.227,16.946,4.297l1.971-14.022
			C38.301,69.352,36.185,67.286,36.185,63.363z"/>
		<path fill="#CD3D32" d="M85.728,27.274L69.472,11.776L53.213,27.274h6.396l-5.647,32.237c-0.629,3.408-1.782,5.951-3.46,7.626
			c-1.619,1.622-3.912,2.44-6.851,2.498l-1.968,13.983c8.612-0.099,15.553-2.149,20.775-6.215
			c5.35-4.169,8.807-10.762,10.385-19.782l5.4-30.348H85.728z"/>
	</g>
</g>
</svg>
