<?xml version="1.0" encoding="utf-8"?>
<!-- Generator: Adobe Illustrator 18.1.0, SVG Export Plug-In . SVG Version: 6.00 Build 0)  -->
<svg version="1.0" id="Layer_1" xmlns="http://www.w3.org/2000/svg" xmlns:xlink="http://www.w3.org/1999/xlink" x="0px" y="0px"
	 viewBox="0 0 150 150" enable-background="new 0 0 150 150" xml:space="preserve">
<g>
	<path fill="#4D5EA9" d="M61.5,85.3c-0.3-3.1-1.1-6.1-1.5-9.2c-0.3-2.2-0.7-4.4-0.3-6.5c1.1-6.6,5.1-10.9,11.7-12.7
		c3.2-0.9,6.6-1.2,9.9-1.8c4.6-0.8,8.5-2.6,11.1-6.5c2.8-4.2,2.6-9.1-1-12.7c-1.8-1.8-6.1-4.8-6.2-4.7c-6.6-3.6-13.6-6.1-21-6.6
		c-6.8-0.4-12.8,1.2-17.3,6.2c-3.7,4.2-6.1,9.2-6.9,14.8c-0.8,5-1,10-1.4,15.1c-0.5,5.9-1.8,11.6-4.8,16.7c-0.8,1.3-1.5,2.7-2,4.1
		c-1.7,4.8-1.6,9.6,1.7,14.1c2,2.7,4.9,4.2,8,5.5c5.6,2.5,10.8,1.7,14.5-2.1C59.6,95.3,62,90.8,61.5,85.3"/>
	<path fill="#4D5EA9" d="M103.1,33.3c3.3-1,5.6-3.1,7.5-6.1c0.2-0.5,0.6-1.3,0.9-2.1c0.2-0.7,0.4-1.4,0.5-2.2c0.7-4.8-2.7-7.9-7.5-7
		c-4.8,0.9-9.6,6.4-9.6,11.3C94.7,32,98.4,34.8,103.1,33.3"/>
	<path fill="#4D5EA9" d="M77.1,19.1c1.8-0.6,3-1.8,4-3.3c0.9-1.6,1.4-3.3,1-5.2c-0.5-2.3-2.5-3.5-4.8-2.9c-3.3,0.9-5.9,5.1-5.2,8.5
		C72.7,18.6,74.8,19.9,77.1,19.1"/>
	<path fill="#4D5EA9" d="M68,17.4c2.3-1.2,3.6-4.9,2.5-7.4c-0.8-1.9-2.7-2.6-4.3-1.6c-0.8,0.5-1.4,1.2-2,1.8
		c-0.9,1.8-1.2,3.7-0.4,5.6C64.4,17.7,66.2,18.3,68,17.4"/>
	<path fill="#4D5EA9" d="M58.6,18.7c1-0.4,1.8-1.3,2.7-2c0.2-1.1,0.5-2.1,0.4-3.1c-0.1-1.7-1.6-2.6-3.2-2.1c-2,0.6-3.6,3-3.3,5.1
		C55.5,18.5,57,19.5,58.6,18.7"/>
	<path fill="#BAD76A" d="M104.3,77.9c0.1-0.1-3.9-3.6-6.1-4.9c-4.4-2.7-9.3-1.8-12.9,1.7c-3.4,3.3-4.4,7.4-4.2,12
		c0.2,3.2,0.5,6.5,0.4,9.8c-0.4,6.7-3.8,11.4-10.2,13.8c-2,0.8-4.3,0.9-6.6,1.1c-3.2,0.3-6.4,0.1-9.5,0.5c-5.7,0.7-9.6,4-12.6,8.3
		c-3.1,4.4-2.7,9.4,1,14.3c2,2.6,4.1,5.1,7.2,6.4c5.3,2.2,10.1,1.3,14.5-1.4c1.3-0.8,2.5-1.8,3.7-2.8c4.5-3.9,9.9-6.4,15.7-8.1
		c5-1.4,10-2.8,14.8-4.5c5.4-2,9.9-5.3,13.3-9.7c4.1-5.3,4.4-11.4,2.5-17.8C113.3,89.5,109.3,83.4,104.3,77.9"/>
	<path fill="#BAD76A" d="M106.3,67.7c4.8-1.1,9.4-6.8,9.3-11.6c-0.1-4.8-4-7.4-8.6-5.7c-0.7,0.3-1.4,0.6-2.1,1
		c-0.8,0.5-1.5,1-1.9,1.3c-2.6,2.5-4.2,5.1-4.5,8.4C98,65.9,101.5,68.8,106.3,67.7"/>
	<path fill="#BAD76A" d="M115.9,77.4c1.6-0.2,3.1-0.9,4.4-2.1c1.6-1.4,2.7-3.1,2.9-5.3c0.4-3.3-2-5.5-5.3-4.9
		c-3.7,0.6-7.1,4.5-7,8.1C110.9,76,113,77.8,115.9,77.4"/>
	<path fill="#4D5EA9" d="M88.6,23.1c1.6-0.2,3.1-0.9,4.4-2.2c1.6-1.4,2.6-3.1,2.9-5.3c0.4-3.3-2-5.5-5.3-4.9c-3.7,0.6-7.1,4.4-7,8.1
		C83.7,21.7,85.7,23.4,88.6,23.1"/>
	<path fill="#BAD76A" d="M121.9,86.7c3.2-0.1,6.6-3.2,6.8-6.2c0.1-2.1-1.3-3.6-3.6-3.6c-1.9,0-3.3,0.8-4.6,1.9
		c-1.2,1.2-2.1,2.5-2.3,4.2C118,85.2,119.5,86.8,121.9,86.7"/>
	<path fill="#BAD76A" d="M121.2,98.5c2.5,1.1,6.2-0.1,7.4-2.4c0.8-1.6,0.2-3.3-1.5-4c-1.4-0.6-2.8-0.5-4.2-0.1
		c-1.3,0.5-2.5,1.2-3.2,2.4C118.7,96,119.3,97.7,121.2,98.5"/>
	<path fill="#BAD76A" d="M121.3,107.4c1.9,0.8,4.5-0.1,5.5-1.8c0.6-1.2,0.2-2.4-1.1-3c-1.1-0.5-2.1-0.4-3.1-0.1
		c-1,0.4-1.8,0.9-2.4,1.8C119.5,105.6,120,106.8,121.3,107.4"/>
</g>
</svg>
