<?xml version="1.0" encoding="utf-8"?>
<!-- Generator: Adobe Illustrator 18.1.0, SVG Export Plug-In . SVG Version: 6.00 Build 0)  -->
<svg version="1.1" id="Layer_1" xmlns="http://www.w3.org/2000/svg" xmlns:xlink="http://www.w3.org/1999/xlink" x="0px" y="0px"
	 viewBox="0 0 1500 1500" enable-background="new 0 0 1500 1500" xml:space="preserve">
<g>
	<line fill="#000773" x1="1281" y1="1378" x2="1266" y2="1378"/>
	<polygon fill="#000773" points="574.4,399.3 551.9,356.5 529.5,399.3 481.8,407.4 515.6,442 508.7,489.8 551.9,468.4 595.2,489.8 
		588.3,442 621.9,407.4 	"/>
	<polygon fill="#000773" points="508.7,687.5 551.9,666.1 595.2,687.5 588.3,639.7 621.9,605.1 574.4,596.9 551.9,554.2 
		529.5,596.9 481.8,605.1 515.6,639.7 	"/>
	<polygon fill="#000773" points="508.7,885.2 551.9,863.8 595.2,885.2 588.3,837.4 621.9,802.8 574.4,794.6 551.9,751.9 
		529.5,794.6 481.8,802.8 515.6,837.4 	"/>
	<polygon fill="#000773" points="508.7,1082.8 551.9,1061.4 595.2,1082.8 588.3,1035.1 621.9,1000.5 574.4,992.3 551.9,949.6 
		529.5,992.3 481.8,1000.5 515.6,1035.1 	"/>
	<path fill="#000773" d="M1266,1348.2V252.9V225v-17.1v-105l-516-1.6l306,152l180-0.4V1363H961.7c1.4-15,2.8-29.8,4.1-32.3
		c3.9-7.8,14.8-41.4,16.4-100.7c1.6-59.3-2.3-95.2,3.1-108.5c5.5-13.3,17.2-42.1,18.7-67.9c1.6-25.7-2.9-120.6-8.3-137
		c-5.5-16.4-14.3-46.7-20.5-55.2c-6.2-8.6,4.9-40,8.1-68.1c3.1-28.1,4.4-80.4-4.9-103c-9.4-22.6-25.7-64-25.7-64l13.3-7.8l-0.8-18.7
		l25-6.2l3.1-19.5c0,0,28.1-7,44.5-14c16.4-7,20.5-21.6,35.1-48.6c13.7-25.4,20.2-66.8,20.2-66.8l8.2-3.4v-21.3l0.9-4.7
		c0,0,5.7-43.2-4.8-56.2c-10.4-13-18.8-20.8-27.1-25c-8.3-4.2-10.7-5.7-14.3-7.3c-3.6-1.6-9.5-3.1-13.7-5.7
		c-4.2-2.6-13.1-13-30.7-13c-17.7,0-15.6,2.6-19.3,4.2c-3.6,1.6-4.7-0.5-11.5-6.2c-6.8-5.7-3.1-7.8-7.8-17.7
		c-4.7-9.9-20.3-6.2-16.1,5.7l1.6,5.2L564.4,103c0,0-13-5.7-26,4.2c-13,9.9-32.8,34.3-22.9,51c9.9,16.6,20.8,3.6,31.2-15.6
		c10.4-19.2-1.6-25.5,8.8-27.6c10.4-2.1,20.8,6.2,35.4,14.6c14.6,8.3,374.6,190.6,374.6,190.6s13,29.1,19.2,42.6
		c6.2,13.5,16.1,18.2,16.1,18.2s-1,52-5.7,64c-4.7,12-16.1,62.4-24.4,63.4c-8.3,1-58.2-5.2-68.6-5.2c-10.4,0-26.5-3.1-26.5-3.1
		s2.5-20.7-1.2-25.5c-3.7-4.9-10.7-7.4-8.6-9.9c2.1-2.5,8-9.6,0-13.5c-8-3.9-13.7-16.4-15-23.6c-1.4-7.2-1.4-9.9-1.4-9.9
		s32.9-12.9,32.6-27.3c-0.4-14.4-8-16.4-18.5-13.3c-10.5,3.1-38.8,11.5-38.8,11.5s-32.7-24.2-76.4-3.9
		c-43.7,20.3-41.3,75.6-17.9,104.5c0,0,3.1,5.5,10.9,5.5c0,0,13.3,19.5,17.2,22.6c3.9,3.1,2.3,3.1-5.5,8.6
		c-7.8,5.5-11.7,14-5.5,23.4c6.2,9.4,10.9,13.3,0.8,35.9c-10.1,22.6-3.9,40.6,7,65.5c10.9,25,33.5,60.8,34.3,83.5
		c0.8,22.6,3.9,98.3-0.8,113.1c0,0-17.9,35.9-17.9,63.9c0,28.1-8.6,77.2-3.1,93.6c5.5,16.4,20.3,16.4,20.3,31.2
		c0,14.8,0.8,69.4-10.1,83.4c-10.9,14-1.6,28.9-12.5,32c-10.9,3.1-13.3,4.7-25,21.1c-11.7,16.4-99.1,135.7-107.6,136.5
		c-8.6,0.8-27.3,19.7-39.8,22.8c-7.9,2-17.8,16.5-24.1,31.5H321V253h135.1l-3-150h-37.7H306v104.9V225v27.9v1095.3v18.9v10.5v0.7
		v14.7h960v-14.7v-0.7v-10.5V1348.2z M743.3,1357.6c-0.1,0.8-0.3,5.4-0.4,5.4h0.3c0.1,0,0.2-3,0.3-3.9c3.1-5,5.9-10.5,9.3-14.2
		c18-19.3,64.7-75.4,80.3-100.4c15.6-25,32-52.5,38.2-52.5c0,0,2,46.9-3.2,68.8c-14.6,61.7-16.4,87.1-14.2,102.1h-117
		C739.4,1363,741.5,1360.5,743.3,1357.6z"/>
</g>
</svg>
