<?xml version="1.0" encoding="iso-8859-1"?>
<!-- Generator: Adobe Illustrator 13.0.0, SVG Export Plug-In . SVG Version: 6.00 Build 14948)  -->
<!DOCTYPE svg PUBLIC "-//W3C//DTD SVG 1.1//EN" "http://www.w3.org/Graphics/SVG/1.1/DTD/svg11.dtd">
<svg version="1.1" id="Layer_1" xmlns="http://www.w3.org/2000/svg" xmlns:xlink="http://www.w3.org/1999/xlink" x="0px" y="0px"
	 width="100px" height="100px" viewBox="0 0 100 100" enable-background="new 0 0 100 100" xml:space="preserve">
<g>
	<path fill="none" d="M77.082,15.1c-2.103-0.798-4.393-0.715-6.611-0.742c-12.365,0.027-24.752,0.018-37.128,0.018
		c-2.366,0.009-4.761-0.093-7.079,0.413c-4.658,1.278-8.134,5.833-8.078,10.697c-0.018,17.296-0.057,34.594,0.02,51.892
		c0,5.718,5.088,10.705,10.779,10.762c13.587,0.085,27.178-0.03,40.755,0.037c2.226-0.012,4.526,0.206,6.649-0.582
		c4.337-1.324,7.698-5.588,7.643-10.171c0.021-17.326,0-34.642,0.021-51.968C84.238,20.948,81.104,16.845,77.082,15.1z
		 M81.211,56.653h-1.216c-0.146,0.014-0.26,0.049-0.391,0.071c-0.001,4.111,0.006,8.222-0.001,12.335
		c0.001,0.054,0.007,0.128,0.007,0.172v10.435c0,1.828-1.481,3.309-3.309,3.309h-4.977c-0.025,0.007-0.04,0.015-0.067,0.021
		c-1.104,0-2.21-0.001-3.317-0.007l-0.06,0.15h-4.298l-0.067-0.161c-0.377,0.003-0.751-0.004-1.129-0.003
		c0,0-0.002-0.001-0.004-0.001h-7.686h-8.916h-7.784c-0.041,0.008-0.062,0.024-0.103,0.033c-2.691,0.018-6.216,0.024-8.49-0.033
		c-3.155,0.026-5.841-3.155-5.483-6.263c0.074-12.453-0.188-24.906,0.151-37.348c1.632,8.358,3.641,16.622,5.173,24.997
		c-0.085-8.001-0.987-15.953-1.69-23.907c0.33,0.046,0.948,0.15,1.258,0.206c2.527,5.229,5.4,10.29,8.169,15.4
		c0.403,0.901,0.648,1.878,0.939,2.836c0.085-2.836-1.229-5.409-1.924-8.096c-1.193-4.807-3.25-9.36-4.133-14.253
		c4.489,5.512,8.912,11.081,13.728,16.322c-2.383-3.975-4.177-8.264-6.553-12.247c-1.222-2.469-3.042-4.743-3.334-7.578
		c0.33,0.478,0.675,0.948,1.005,1.426c7.701,5.571,15.493,10.979,23.083,16.707c-7.138-7.156-14.386-14.171-21.654-21.176
		c4.385,0.733,8.562,2.319,12.855,3.457c4.179,1.398,8.536,2.215,12.704,3.644c-8.075-4.019-15.993-8.358-24.171-12.124
		c7.438-0.413,14.865,0.422,22.301,0.056c-2.215-1.24-4.77-1.381-7.172-1.981C49.614,22.021,44.636,20.707,39.547,20
		c6.761-0.581,13.567-0.648,20.357-0.383c5.118-0.179,10.283-0.32,15.402,0.177c2.891,0.498,4.384,3.653,4.301,6.348
		c-0.007,9.344-0.004,18.691-0.003,28.036h1.606V56.653z"/>
	<path fill="#6A7A83" d="M88.277,26.95c0-3.126-0.283-6.422-2.038-9.089c-2.525-4.537-7.561-7.56-12.752-7.607
		c-14.104-0.029-28.219,0.018-42.322-0.029c-1.597,0.02-3.211,0-4.79,0.253c-6.988,1.231-12.544,7.833-12.302,14.959
		c-0.027,17.344-0.065,34.689,0,52.033c-0.057,7.859,6.958,14.876,14.818,14.772c14.368,0.111,28.736,0,43.104,0.055
		c3.306,0.049,6.705-0.63,9.466-2.488c4.375-2.816,6.854-8.038,6.817-13.175C88.304,60.08,88.398,43.515,88.277,26.95z
		 M84.032,77.424c0.056,4.583-3.306,8.847-7.643,10.171c-2.123,0.788-4.424,0.57-6.649,0.582
		c-13.577-0.067-27.168,0.048-40.755-0.037c-5.691-0.057-10.779-5.044-10.779-10.762c-0.077-17.298-0.038-34.596-0.02-51.892
		c-0.057-4.864,3.42-9.419,8.078-10.697c2.318-0.506,4.713-0.404,7.079-0.413c12.376,0,24.763,0.009,37.128-0.018
		c2.219,0.027,4.509-0.056,6.611,0.742c4.021,1.745,7.156,5.848,6.971,10.356C84.032,42.782,84.053,60.098,84.032,77.424z"/>
	<path fill="#56B7D5" d="M53.77,59.562c-0.088-0.173-0.16-0.331-0.218-0.478c-0.059-0.145-0.131-0.287-0.216-0.434
		c-0.087-0.146-0.161-0.274-0.218-0.389c-0.463-0.783-0.97-1.232-1.521-1.349c-0.636-0.144-1.549-0.218-2.735-0.218l-0.042-2.519
		h13.982v2.476h-2.735c-0.638,0.029-1.086,0.117-1.349,0.261c-0.261,0.175-0.39,0.465-0.39,0.871c0,0.114,0.028,0.26,0.087,0.432
		c0.028,0.088,0.049,0.182,0.064,0.282c0.014,0.102,0.049,0.212,0.108,0.326l8.077,19.668l6.687-17.713
		c0.114-0.29,0.223-0.565,0.326-0.825c0.101-0.263,0.179-0.507,0.236-0.74c0.117-0.433,0.175-0.78,0.175-1.041
		c0-0.492-0.158-0.866-0.478-1.13c-0.375-0.23-0.883-0.348-1.519-0.348l-2.519-0.043v-2.476h10.029
		c-0.001-9.344-0.004-18.691,0.003-28.036c0.083-2.695-1.41-5.85-4.301-6.348c-5.119-0.498-10.284-0.356-15.402-0.177
		c-6.79-0.265-13.596-0.197-20.357,0.383c5.088,0.707,10.067,2.021,15.109,3.053c2.402,0.601,4.957,0.742,7.172,1.981
		c-7.436,0.366-14.862-0.469-22.301-0.056c8.178,3.765,16.096,8.104,24.171,12.124c-4.168-1.429-8.525-2.246-12.704-3.644
		c-4.293-1.138-8.471-2.723-12.855-3.457c7.269,7.005,14.517,14.02,21.654,21.176c-7.59-5.728-15.381-11.136-23.083-16.707
		c-0.33-0.478-0.675-0.948-1.005-1.426c0.292,2.835,2.113,5.108,3.334,7.578c2.375,3.982,4.169,8.272,6.553,12.247
		c-4.816-5.241-9.239-10.81-13.728-16.322c0.883,4.894,2.939,9.446,4.133,14.253c0.695,2.687,2.009,5.26,1.924,8.096
		c-0.291-0.958-0.536-1.935-0.939-2.836c-2.77-5.11-5.642-10.17-8.169-15.4c-0.31-0.056-0.928-0.16-1.258-0.206
		c0.704,7.954,1.605,15.906,1.69,23.907c-1.532-8.375-3.541-16.639-5.173-24.997c-0.339,12.441-0.077,24.895-0.151,37.348
		c-0.358,3.107,2.328,6.289,5.483,6.263c2.274,0.058,5.799,0.051,8.49,0.033c0.041-0.009,0.062-0.025,0.103-0.033h7.784h8.916h7.686
		c0.002,0,0.002,0.001,0.002,0.001c0.38-0.001,0.754,0.006,1.131,0.003l-9.486-22.852C53.944,59.926,53.856,59.737,53.77,59.562z"/>
	<path fill="#56B7D5" d="M77.649,58.392c-0.029,0.06-0.058,0.114-0.084,0.174c-0.03,0.058-0.06,0.115-0.088,0.172
		c-0.029,0.061-0.059,0.132-0.089,0.217c-0.028,0.089-0.058,0.16-0.086,0.218L67.94,82.989c1.107,0.006,2.213,0.007,3.317,0.007
		c0.027-0.007,0.042-0.015,0.067-0.021h4.977c1.827,0,3.309-1.48,3.309-3.309V69.231c0-0.044-0.006-0.118-0.007-0.172
		c0.007-4.113,0-8.224,0.001-12.335c-0.392,0.07-0.739,0.167-0.999,0.319C78.286,57.248,77.969,57.696,77.649,58.392z"/>
</g>
</svg>
