<?xml version="1.0" encoding="utf-8"?>
<!-- Generator: Adobe Illustrator 18.1.0, SVG Export Plug-In . SVG Version: 6.00 Build 0)  -->
<svg version="1.0" id="Layer_1" xmlns="http://www.w3.org/2000/svg" xmlns:xlink="http://www.w3.org/1999/xlink" x="0px" y="0px"
	 viewBox="0 0 150 150" enable-background="new 0 0 150 150" xml:space="preserve">
<g>
	<path fill="#E7B22F" d="M107.8,31.7c-7,0-12.7,5.7-12.7,12.7c0,3.4,1.4,6.5,3.6,8.8c-11.3,10.2-17.9,23.8-21.3,33L78,42.5
		c5.9-1.1,10.3-6.2,10.3-12.4c0-7-5.7-12.7-12.7-12.7c-7,0-12.7,5.7-12.7,12.7c0,6.7,5.3,12.2,11.9,12.6l-0.6,43.1
		c-5.5-15.4-16.6-29.3-21-34.4c1.3-2,2.1-4.4,2.1-7c0-7-5.7-12.7-12.7-12.7s-12.7,5.7-12.7,12.7S35.8,57,42.8,57
		c3.3,0,6.3-1.3,8.5-3.4c5.5,6.5,20.2,25.3,22.9,43.2h0l-0.6,39.5c0.1,0,0.2,0,0.4,0c0.9,0,1.8,0.1,2.7,0.1l0.6-39.8
		c0.7-2.7,7-26.6,23.9-41.6c1.9,1.2,4.2,1.9,6.6,1.9c7,0,12.7-5.7,12.7-12.7C120.4,37.4,114.8,31.7,107.8,31.7z"/>
	<path fill="#3BB990" d="M128.1,62.6C128,62.7,105.6,74.9,96.9,86c-9,11.4-13.4,27.1-15.2,35.4c-1,4.4-3,10.2-5.6,15.1
		c2.3-0.7,4.7-1.3,7.3-1.2c19.3,0.5,33.7-6.6,41.5-20.5c6.5-11.4,10.1-27.8,13.6-43.7c1.7-7.6,3.3-14.9,5.2-21.5
		C139.3,54.3,133.8,59.6,128.1,62.6z M88,128.3c30.5-29.6,43.5-63.2,43.5-63.2C124.8,114.5,88,128.3,88,128.3z"/>
	<path fill="#3BB990" d="M68.3,121.5c-1.8-8.3-6.2-24-15.2-35.4c-8.7-11.1-31-23.3-31.2-23.4c-5.7-3-11.2-8.2-15.5-13.1
		c1.9,6.6,3.5,13.9,5.2,21.5c3.5,15.9,7.1,32.2,13.5,43.7c7.9,13.9,22.2,21,41.5,20.5c2.6-0.1,5,0.4,7.3,1.2
		C71.3,131.7,69.3,125.9,68.3,121.5z M19.6,67.7c0,0,14.4,33,46,61.4C65.6,129,28.4,116.7,19.6,67.7z"/>
</g>
</svg>
