<?xml version="1.0" encoding="utf-8"?>
<!-- Generator: Adobe Illustrator 18.1.0, SVG Export Plug-In . SVG Version: 6.00 Build 0)  -->
<svg version="1.1" id="Layer_1" xmlns="http://www.w3.org/2000/svg" xmlns:xlink="http://www.w3.org/1999/xlink" x="0px" y="0px"
	 viewBox="0 0 1500 1500" enable-background="new 0 0 1500 1500" xml:space="preserve">
<g>
	<path fill="#FD4F57" d="M788.9,449.5c-328.1,231-390,558.9-399.5,718.6C418.8,790,624.7,568,788.9,449.5z"/>
	<path fill="#FD4F57" d="M1001.9,334.8c-4.6,2-9.1,2.6-13.7,4.6c5.8-2.3,9-4.1,9-4.1C478,581,399.6,1063.5,387.9,1219.2
		c0,28,1.6,43.8,1.6,43.8l-3.6,4.7c0,0.8,0-7.7,0,5.3h415.2C345.1,767,1001.9,334.8,1001.9,334.8z"/>
	<path fill="#FD4F57" d="M381.1,1267h4.7c0-1,0-1.4,0-2.5L381.1,1267z"/>
	<path fill="#FD4F57" d="M80.5,1267.2c-3.4-221.7,59.3-391.5,153.5-521.4C76.5,957.7,74.2,1181,80.5,1267.2z"/>
	<linearGradient id="SVGID_1_" gradientUnits="userSpaceOnUse" x1="681.6598" y1="442.4859" x2="321.3789" y2="987.195">
		<stop  offset="0" style="stop-color:#9A5260"/>
		<stop  offset="1" style="stop-color:#FD4F57"/>
	</linearGradient>
	<path fill="url(#SVGID_1_)" d="M1001.9,331.9c0,0-505.7,52.1-767.8,413.9C361.7,573.9,591.5,409.5,1001.9,331.9z"/>
	<path fill="#FD4F57" d="M385.9,1264.7l3.6-1.9c0,0-1.6-16-1.6-44c-1.2,16.6-1.7,29.4-1.9,37.9
		C385.9,1259.4,385.9,1262,385.9,1264.7z"/>
	<linearGradient id="SVGID_2_" gradientUnits="userSpaceOnUse" x1="845.1723" y1="550.6361" x2="484.8914" y2="1095.3453">
		<stop  offset="0" style="stop-color:#9A5260"/>
		<stop  offset="1" style="stop-color:#FD4F57"/>
	</linearGradient>
	<path fill="url(#SVGID_2_)" d="M385.9,1264.7l3.6-1.9c0,0-1.6-16-1.6-44c-1.2,16.6-1.7,29.4-1.9,37.9
		C385.9,1259.4,385.9,1262,385.9,1264.7z"/>
	<path fill="#FD4F57" d="M385.9,1256.7c0.1-30.4,1.2-60,3.5-88.7c9.5-159.7,71.4-487.6,399.5-718.6
		c93.5-67.5,173.3-101.4,199.3-111.5c4.6-2,9-4.1,13.7-6C591.5,409.5,361.7,576.8,234,748.7C139.9,878.6,77.2,1046,80.5,1273h300.6
		l4.7-5.4C385.8,1265.7,385.9,1260.1,385.9,1256.7z"/>
	<linearGradient id="SVGID_3_" gradientUnits="userSpaceOnUse" x1="682.4744" y1="444.2325" x2="320.8436" y2="990.9826">
		<stop  offset="0" style="stop-color:#9A5260"/>
		<stop  offset="1" style="stop-color:#FD4F57"/>
	</linearGradient>
	<path fill="url(#SVGID_3_)" d="M385.9,1256.7c0.1-30.4,1.2-60,3.5-88.7c9.5-159.7,71.4-487.6,399.5-718.6
		c93.5-67.5,173.3-101.4,199.3-111.5c4.6-2,9-4.1,13.7-6C591.5,409.5,361.7,576.8,234,748.7C139.9,878.6,77.2,1046,80.5,1273h300.6
		l4.7-5.4C385.8,1265.7,385.9,1260.1,385.9,1256.7z"/>
	<linearGradient id="SVGID_4_" gradientUnits="userSpaceOnUse" x1="872.8055" y1="531.6035" x2="560.6732" y2="1003.5166">
		<stop  offset="0" style="stop-color:#FD4F57"/>
		<stop  offset="0.573" style="stop-color:#FFFFFE"/>
		<stop  offset="1" style="stop-color:#9A5260"/>
	</linearGradient>
	<path fill="url(#SVGID_4_)" d="M385.8,1268.5c0-0.4,0-0.8,0-1.3h0C385.8,1268,385.8,1268.5,385.8,1268.5z"/>
	<path fill="#FD4F57" d="M385.8,1264.6c0,1.1,0,1.4,0,2.4h0C385.9,1266,385.9,1265.4,385.8,1264.6L385.8,1264.6z"/>
	<linearGradient id="SVGID_5_" gradientUnits="userSpaceOnUse" x1="861.6877" y1="546.3865" x2="556.1508" y2="1008.3282">
		<stop  offset="0" style="stop-color:#FD4F57"/>
		<stop  offset="0.573" style="stop-color:#FFFFFE"/>
		<stop  offset="1" style="stop-color:#9A5260"/>
	</linearGradient>
	<path fill="url(#SVGID_5_)" d="M385.8,1264.6c0,1.1,0,1.4,0,2.4h0C385.9,1266,385.9,1265.4,385.8,1264.6L385.8,1264.6z"/>
	<path fill="#FD4F57" d="M389.4,1168c-1.2,19.6-1.6,36.7-1.5,50.8c11.7-155.7,90.2-638.5,609.3-884.2c0,0-3.2,1.1-9,3.4
		c-75.5,33.2-141.5,70.9-199.3,111.5C624.7,568,418.8,790,389.4,1168z"/>
	<linearGradient id="SVGID_6_" gradientUnits="userSpaceOnUse" x1="795.8334" y1="480.6927" x2="483.7012" y2="952.6058">
		<stop  offset="0" style="stop-color:#FD4F57"/>
		<stop  offset="0.573" style="stop-color:#FFFFFE"/>
		<stop  offset="1" style="stop-color:#9A5260"/>
	</linearGradient>
	<path fill="url(#SVGID_6_)" d="M389.4,1168c-1.2,19.6-1.6,36.7-1.5,50.8c11.7-155.7,90.2-638.5,609.3-884.2c0,0-3.2,1.1-9,3.4
		c-75.5,33.2-141.5,70.9-199.3,111.5C624.7,568,418.8,790,389.4,1168z"/>
	<path fill="#FD4F57" d="M385.8,1264.8L385.8,1264.8c0-2.7,0.1-5.4,0.1-8C385.9,1260.1,385.8,1262.8,385.8,1264.8z"/>
	<linearGradient id="SVGID_7_" gradientUnits="userSpaceOnUse" x1="852.4048" y1="555.4198" x2="492.1239" y2="1100.1289">
		<stop  offset="0" style="stop-color:#9A5260"/>
		<stop  offset="1" style="stop-color:#FD4F57"/>
	</linearGradient>
	<path fill="url(#SVGID_7_)" d="M385.8,1264.8L385.8,1264.8c0-2.7,0.1-5.4,0.1-8C385.9,1260.1,385.8,1262.8,385.8,1264.8z"/>
	<linearGradient id="SVGID_8_" gradientUnits="userSpaceOnUse" x1="869.572" y1="529.4647" x2="557.4397" y2="1001.3779">
		<stop  offset="0" style="stop-color:#FD4F57"/>
		<stop  offset="0.573" style="stop-color:#FFFFFE"/>
		<stop  offset="1" style="stop-color:#9A5260"/>
	</linearGradient>
	<path fill="url(#SVGID_8_)" d="M385.8,1264.8L385.8,1264.8c0-2.7,0.1-5.4,0.1-8C385.9,1260.1,385.8,1262.8,385.8,1264.8z"/>
	<path fill="#FD4F57" d="M988.2,337.9c-26,10.1-105.8,44-199.3,111.5C846.6,408.8,912.7,371.2,988.2,337.9z"/>
	<linearGradient id="SVGID_9_" gradientUnits="userSpaceOnUse" x1="803.1231" y1="522.824" x2="442.8422" y2="1067.5331">
		<stop  offset="0" style="stop-color:#9A5260"/>
		<stop  offset="1" style="stop-color:#FD4F57"/>
	</linearGradient>
	<path fill="url(#SVGID_9_)" d="M988.2,337.9c-26,10.1-105.8,44-199.3,111.5C846.6,408.8,912.7,371.2,988.2,337.9z"/>
	<linearGradient id="SVGID_10_" gradientUnits="userSpaceOnUse" x1="820.2903" y1="496.8689" x2="508.1581" y2="968.782">
		<stop  offset="0" style="stop-color:#FD4F57"/>
		<stop  offset="0.573" style="stop-color:#FFFFFE"/>
		<stop  offset="1" style="stop-color:#9A5260"/>
	</linearGradient>
	<path fill="url(#SVGID_10_)" d="M988.2,337.9c-26,10.1-105.8,44-199.3,111.5C846.6,408.8,912.7,371.2,988.2,337.9z"/>
	<path fill="#FD4F57" d="M385.9,1256.7c0.2-8.5,0.7-21.3,1.9-37.9c0-14.1,0.4-31.1,1.5-50.8C387.2,1196.7,386,1226.3,385.9,1256.7z"
		/>
	<linearGradient id="SVGID_11_" gradientUnits="userSpaceOnUse" x1="831.3891" y1="541.5197" x2="471.1082" y2="1086.2288">
		<stop  offset="0" style="stop-color:#9A5260"/>
		<stop  offset="1" style="stop-color:#FD4F57"/>
	</linearGradient>
	<path fill="url(#SVGID_11_)" d="M385.9,1256.7c0.2-8.5,0.7-21.3,1.9-37.9c0-14.1,0.4-31.1,1.5-50.8
		C387.2,1196.7,386,1226.3,385.9,1256.7z"/>
	<linearGradient id="SVGID_12_" gradientUnits="userSpaceOnUse" x1="848.5563" y1="515.5646" x2="536.4241" y2="987.4777">
		<stop  offset="0" style="stop-color:#FD4F57"/>
		<stop  offset="0.573" style="stop-color:#FFFFFE"/>
		<stop  offset="1" style="stop-color:#9A5260"/>
	</linearGradient>
	<path fill="url(#SVGID_12_)" d="M385.9,1256.7c0.2-8.5,0.7-21.3,1.9-37.9c0-14.1,0.4-31.1,1.5-50.8
		C387.2,1196.7,386,1226.3,385.9,1256.7z"/>
	<path d="M827.2,1261.5c333.7-317.2,83.5-579.2,83.5-579.2c131.9,276.6-63.5,550-83.7,577.2c-34.5-71.7-219.5-518.4,278.2-962.3
		c0,0-692.1,417.1-279.5,963.5c-0.4,0.5-0.6,0.7-0.6,0.7c0.2-0.2,0.4,1.5,0.7,1.3c2.1,2.7,4-2.8,6.1,10.2h0
		C831.8,1273,830,1267.3,827.2,1261.5z"/>
	<path fill="#FD4F57" d="M964.9,1196c218.5-153.6,253.7-374,257.8-472.3C1206.7,973.2,1072,1118.8,964.9,1196z"/>
	<path fill="#FD4F57" d="M1224.5,671.6l3-1.6h-3C1224.6,670,1224.6,670.9,1224.5,671.6z"/>
	<path fill="#FD4F57" d="M1420.8,670c2.2,142.6-38.2,251.8-98.7,335.3C1423.4,869,1424.9,725.4,1420.8,670z"/>
	<path fill="#FD4F57" d="M831.5,1269.6c334.3-158.2,384.4-469.3,391.8-568.8c0-17.8-1-28-1-28l2.3-3.7c0-0.5,0-4.1,0-4.1h-267
		c277.5,317-85.8,582-125.6,608h0c-2.2,0-3.5,0.4-3.5,0.4c2.5-1,4.7-3.2,7.1-4.3C833,1270.1,831.5,1269.6,831.5,1269.6z"/>
	
		<linearGradient id="SVGID_13_" gradientUnits="userSpaceOnUse" x1="449.8734" y1="315.085" x2="218.225" y2="665.3145" gradientTransform="matrix(-1 0 0 -1 1484.2129 1515.3301)">
		<stop  offset="0" style="stop-color:#9A5260"/>
		<stop  offset="1" style="stop-color:#FD4F57"/>
	</linearGradient>
	<path fill="url(#SVGID_13_)" d="M828.5,1271.4c0,0,325.1-33.5,493.6-266.1C1240,1115.8,1092.2,1221.4,828.5,1271.4z"/>
	<path fill="#FD4F57" d="M1222.2,672.8c0,0,1,10.2,1,28c0.5-6.4,0.8-12,1-16.5c0.1-4.3,0.3-8.4,0.3-12.7L1222.2,672.8z"/>
	
		<linearGradient id="SVGID_14_" gradientUnits="userSpaceOnUse" x1="555.0729" y1="384.6659" x2="323.4245" y2="734.8954" gradientTransform="matrix(-1 0 0 -1 1484.2129 1515.3301)">
		<stop  offset="0" style="stop-color:#9A5260"/>
		<stop  offset="1" style="stop-color:#FD4F57"/>
	</linearGradient>
	<path fill="url(#SVGID_14_)" d="M1222.2,672.8c0,0,1,10.2,1,28c0.5-6.4,0.8-12,1-16.5c0.1-4.3,0.3-8.4,0.3-12.7L1222.2,672.8z"/>
	<path fill="#FD4F57" d="M1322.1,1002.8c60.5-83.5,100.9-185.8,98.7-337.8h-193.3l-3,4.1c0,2.4-0.1,7.9-0.3,13.9
		c-0.2,13.4-0.6,27.1-1.5,40c-4.1,98.4-39.3,319-257.8,472.7c-62.1,44.8-114.8,66.7-129.4,72.3c-2.4,1.1-4.7,1-7.1,2.1
		C1092.2,1220.1,1240,1113.3,1322.1,1002.8z"/>
	
		<linearGradient id="SVGID_15_" gradientUnits="userSpaceOnUse" x1="450.0633" y1="317.2931" x2="217.5633" y2="668.8101" gradientTransform="matrix(-1 0 0 -1 1484.2129 1515.3301)">
		<stop  offset="0" style="stop-color:#9A5260"/>
		<stop  offset="1" style="stop-color:#FD4F57"/>
	</linearGradient>
	<path fill="url(#SVGID_15_)" d="M1322.1,1002.8c60.5-83.5,100.9-185.8,98.7-337.8h-193.3l-3,4.1c0,2.4-0.1,7.9-0.3,13.9
		c-0.2,13.4-0.6,27.1-1.5,40c-4.1,98.4-39.3,319-257.8,472.7c-62.1,44.8-114.8,66.7-129.4,72.3c-2.4,1.1-4.7,1-7.1,2.1
		C1092.2,1220.1,1240,1113.3,1322.1,1002.8z"/>
	
		<linearGradient id="SVGID_16_" gradientUnits="userSpaceOnUse" x1="572.7635" y1="372.3928" x2="372.0766" y2="675.8117" gradientTransform="matrix(-1 0 0 -1 1484.2129 1515.3301)">
		<stop  offset="0" style="stop-color:#FD4F57"/>
		<stop  offset="0.573" style="stop-color:#FFFFFE"/>
		<stop  offset="1" style="stop-color:#9A5260"/>
	</linearGradient>
	<path fill="url(#SVGID_16_)" d="M1224.5,669.2c0,0.3,0,0.5,0,0.8h0C1224.5,669.6,1224.5,669.2,1224.5,669.2z"/>
	<path fill="#FD4F57" d="M831.5,1269.6c0,0,1.5-0.5,4.1-1.5c49-21.5,91.9-45.8,129.4-72.1c107.1-77.1,241.8-222.8,257.8-472.3
		c0.4-8.5,0.5-16.3,0.5-22.8C1215.8,800.4,1165.8,1111.4,831.5,1269.6z"/>
	
		<linearGradient id="SVGID_17_" gradientUnits="userSpaceOnUse" x1="523.3391" y1="339.7025" x2="322.6521" y2="643.1214" gradientTransform="matrix(-1 0 0 -1 1484.2129 1515.3301)">
		<stop  offset="0" style="stop-color:#FD4F57"/>
		<stop  offset="0.573" style="stop-color:#FFFFFE"/>
		<stop  offset="1" style="stop-color:#9A5260"/>
	</linearGradient>
	<path fill="url(#SVGID_17_)" d="M831.5,1269.6c0,0,1.5-0.5,4.1-1.5c49-21.5,91.9-45.8,129.4-72.1
		c107.1-77.1,241.8-222.8,257.8-472.3c0.4-8.5,0.5-16.3,0.5-22.8C1215.8,800.4,1165.8,1111.4,831.5,1269.6z"/>
	<path fill="#FD4F57" d="M1224.5,671.6c0-0.7,0-1.2,0-1.6h0C1224.5,670.5,1224.5,671,1224.5,671.6L1224.5,671.6z"/>
	
		<linearGradient id="SVGID_18_" gradientUnits="userSpaceOnUse" x1="572.2177" y1="372.0317" x2="371.5307" y2="675.4506" gradientTransform="matrix(-1 0 0 -1 1484.2129 1515.3301)">
		<stop  offset="0" style="stop-color:#FD4F57"/>
		<stop  offset="0.573" style="stop-color:#FFFFFE"/>
		<stop  offset="1" style="stop-color:#9A5260"/>
	</linearGradient>
	<path fill="url(#SVGID_18_)" d="M1224.5,671.6c0-0.7,0-1.2,0-1.6h0C1224.5,670.5,1224.5,671,1224.5,671.6L1224.5,671.6z"/>
	<path fill="#FD4F57" d="M1224.2,684.3c0.2-6,0.3-10.3,0.3-12.7l-0.1,0C1224.5,675.9,1224.3,680,1224.2,684.3z"/>
	
		<linearGradient id="SVGID_19_" gradientUnits="userSpaceOnUse" x1="558.0142" y1="386.6114" x2="326.3658" y2="736.8409" gradientTransform="matrix(-1 0 0 -1 1484.2129 1515.3301)">
		<stop  offset="0" style="stop-color:#9A5260"/>
		<stop  offset="1" style="stop-color:#FD4F57"/>
	</linearGradient>
	<path fill="url(#SVGID_19_)" d="M1224.2,684.3c0.2-6,0.3-10.3,0.3-12.7l-0.1,0C1224.5,675.9,1224.3,680,1224.2,684.3z"/>
	
		<linearGradient id="SVGID_20_" gradientUnits="userSpaceOnUse" x1="569.0453" y1="369.9335" x2="368.3583" y2="673.3524" gradientTransform="matrix(-1 0 0 -1 1484.2129 1515.3301)">
		<stop  offset="0" style="stop-color:#FD4F57"/>
		<stop  offset="0.573" style="stop-color:#FFFFFE"/>
		<stop  offset="1" style="stop-color:#9A5260"/>
	</linearGradient>
	<path fill="url(#SVGID_20_)" d="M1224.2,684.3c0.2-6,0.3-10.3,0.3-12.7l-0.1,0C1224.5,675.9,1224.3,680,1224.2,684.3z"/>
	<path fill="#FD4F57" d="M1222.8,723.6c0.8-12.8,1.3-26,1.5-39.4c-0.2,4.6-0.5,10.1-1,16.5C1223.3,707.4,1223.1,715.1,1222.8,723.6z
		"/>
	
		<linearGradient id="SVGID_21_" gradientUnits="userSpaceOnUse" x1="546.6469" y1="379.0927" x2="314.9984" y2="729.3223" gradientTransform="matrix(-1 0 0 -1 1484.2129 1515.3301)">
		<stop  offset="0" style="stop-color:#9A5260"/>
		<stop  offset="1" style="stop-color:#FD4F57"/>
	</linearGradient>
	<path fill="url(#SVGID_21_)" d="M1222.8,723.6c0.8-12.8,1.3-26,1.5-39.4c-0.2,4.6-0.5,10.1-1,16.5
		C1223.3,707.4,1223.1,715.1,1222.8,723.6z"/>
	
		<linearGradient id="SVGID_22_" gradientUnits="userSpaceOnUse" x1="557.6779" y1="362.4149" x2="356.9909" y2="665.8337" gradientTransform="matrix(-1 0 0 -1 1484.2129 1515.3301)">
		<stop  offset="0" style="stop-color:#FD4F57"/>
		<stop  offset="0.573" style="stop-color:#FFFFFE"/>
		<stop  offset="1" style="stop-color:#9A5260"/>
	</linearGradient>
	<path fill="url(#SVGID_22_)" d="M1222.8,723.6c0.8-12.8,1.3-26,1.5-39.4c-0.2,4.6-0.5,10.1-1,16.5
		C1223.3,707.4,1223.1,715.1,1222.8,723.6z"/>
	<path fill="#FD4F57" d="M964.9,1196c-37.5,26.3-80.4,50.7-129.4,72.1C850.1,1262.5,902.8,1240.7,964.9,1196z"/>
	
		<linearGradient id="SVGID_23_" gradientUnits="userSpaceOnUse" x1="528.5245" y1="367.1063" x2="296.8761" y2="717.3359" gradientTransform="matrix(-1 0 0 -1 1484.2129 1515.3301)">
		<stop  offset="0" style="stop-color:#9A5260"/>
		<stop  offset="1" style="stop-color:#FD4F57"/>
	</linearGradient>
	<path fill="url(#SVGID_23_)" d="M964.9,1196c-37.5,26.3-80.4,50.7-129.4,72.1C850.1,1262.5,902.8,1240.7,964.9,1196z"/>
	
		<linearGradient id="SVGID_24_" gradientUnits="userSpaceOnUse" x1="539.5556" y1="350.4284" x2="338.8687" y2="653.8474" gradientTransform="matrix(-1 0 0 -1 1484.2129 1515.3301)">
		<stop  offset="0" style="stop-color:#FD4F57"/>
		<stop  offset="0.573" style="stop-color:#FFFFFE"/>
		<stop  offset="1" style="stop-color:#9A5260"/>
	</linearGradient>
	<path fill="url(#SVGID_24_)" d="M964.9,1196c-37.5,26.3-80.4,50.7-129.4,72.1C850.1,1262.5,902.8,1240.7,964.9,1196z"/>
	<polygon fill="#FD4F57" points="1165.4,264.5 1195.8,287.2 1210.8,239.1 1260.4,205.1 1217.7,198.1 1217.9,154.4 1176.5,198.1 
		1127.1,205.1 1144.2,239.1 1113.5,287.2 	"/>
</g>
</svg>
