<?xml version="1.0" encoding="utf-8"?>
<!-- Generator: Adobe Illustrator 14.0.0, SVG Export Plug-In . SVG Version: 6.00 Build 43363)  -->
<!DOCTYPE svg PUBLIC "-//W3C//DTD SVG 1.1//EN" "http://www.w3.org/Graphics/SVG/1.1/DTD/svg11.dtd">
<svg version="1.1" id="Layer_1" xmlns="http://www.w3.org/2000/svg" xmlns:xlink="http://www.w3.org/1999/xlink" x="0px" y="0px"
	 width="150px" height="150px" viewBox="0 0 150 150" enable-background="new 0 0 150 150" xml:space="preserve">
<g>
	<path fill="#00264B" d="M74.09,45.039l53.449-16.715c0.538-9.103,0-15.269,0-15.269L74.09,28.324L20.634,13.055
		c0,0-0.537,6.166,0,15.269L74.09,45.039z"/>
	<path fill="#00AEB3" d="M83.403,114.304c-0.604,0.24-1.271,0.476-1.995,0.66c-0.724,0.188-1.495,0.353-2.302,0.484
		c-0.803,0.146-1.644,0.229-2.496,0.309c-0.854,0.074-1.725,0.101-2.596,0.107c-0.874-0.007-1.75-0.033-2.596-0.107
		c-0.853-0.081-1.693-0.163-2.498-0.31c-0.804-0.131-1.577-0.297-2.3-0.485c-0.725-0.188-1.391-0.418-1.995-0.658
		c-0.592-0.265-1.132-0.521-1.566-0.817c-0.224-0.143-0.421-0.286-0.583-0.447c-0.069-0.056-0.128-0.116-0.186-0.178
		c-0.089-0.092-0.167-0.185-0.236-0.275c-0.131-0.144-0.192-0.297-0.263-0.43c-0.032-0.064-0.062-0.127-0.092-0.181
		c-0.012-0.06-0.023-0.119-0.034-0.166c-0.008-0.041-0.015-0.076-0.022-0.107c-0.009-0.04-0.016-0.076-0.022-0.103
		c-0.012-0.064-0.02-0.102-0.02-0.102s0.007,0.109,0.024,0.318c0.005,0.052,0.009,0.109,0.014,0.176
		c0.023,0.06,0.044,0.126,0.071,0.197c0.05,0.146,0.102,0.316,0.224,0.477c0.104,0.168,0.225,0.353,0.397,0.518
		c0.153,0.185,0.348,0.354,0.563,0.523c0.423,0.355,0.957,0.671,1.558,0.974c0.61,0.286,1.284,0.564,2.016,0.798
		c0.731,0.236,1.512,0.459,2.334,0.609c0.82,0.167,1.676,0.297,2.551,0.377c0.885,0.087,1.769,0.124,2.66,0.136
		c0.892-0.012,1.783-0.049,2.661-0.136c0.873-0.084,1.729-0.21,2.548-0.381c0.824-0.146,1.604-0.373,2.335-0.605
		c0.732-0.235,1.406-0.512,2.018-0.798c0.601-0.303,1.136-0.62,1.558-0.974c0.217-0.17,0.408-0.339,0.562-0.523
		c0.173-0.166,0.295-0.35,0.397-0.521c0.121-0.154,0.175-0.33,0.228-0.478c0.023-0.071,0.047-0.138,0.067-0.196
		c0.006-0.066,0.009-0.121,0.016-0.175c0.014-0.207,0.021-0.316,0.021-0.316s-0.004,0.028-0.015,0.082
		c-0.007,0.029-0.014,0.073-0.025,0.122c-0.007,0.036-0.014,0.066-0.021,0.107c-0.013,0.051-0.022,0.106-0.036,0.169
		c-0.028,0.056-0.06,0.117-0.095,0.182c-0.066,0.132-0.126,0.282-0.258,0.426c-0.071,0.091-0.15,0.186-0.237,0.277
		c-0.061,0.061-0.113,0.122-0.186,0.176c-0.16,0.161-0.359,0.305-0.583,0.447C84.54,113.787,83.995,114.039,83.403,114.304z"/>
	<path fill="#00AEB3" d="M71.664,89.168l-31.22-43.556l-0.341,0.247l-0.843-1.173l2.913-2.088l0.842,1.173l-0.343,0.245
		l30.676,42.799l30.677-42.799l-0.344-0.245l0.844-1.173l2.912,2.088l-0.841,1.173l-0.344-0.247L75.034,89.168l15.719,21.93
		c2.172,2.264,3.02,2.309,4.9,3.045l0.189,0.065c21.486-23.462,28.485-59.234,30.72-82.587L74.089,51.352L21.609,31.621
		c2.221,23.219,9.164,58.707,30.363,82.174c1.297-0.476,2.194-0.842,3.973-2.697L71.664,89.168z M103.782,87.953l-4.732-2.488
		l-4.733,2.488l0.904-5.27l-3.828-3.732l5.291-0.771l2.366-4.793l2.367,4.793l5.291,0.771l-3.83,3.732L103.782,87.953z
		 M71.671,58.975l2.366-4.794l2.365,4.794l5.292,0.771l-3.83,3.731l0.905,5.271l-4.732-2.489l-4.732,2.489l0.903-5.271l-3.829-3.731
		L71.671,58.975z M52.417,88.623l-4.732-2.488l-4.732,2.488l0.904-5.269l-3.83-3.732l5.292-0.772l2.366-4.792l2.367,4.792
		l5.29,0.772l-3.828,3.732L52.417,88.623z"/>
	<path fill="#00AEB3" d="M73.348,91.521l-18.29,25.519c5.443,5.374,11.742,9.981,19.031,13.481
		c6.938-3.331,12.965-7.68,18.224-12.726c-0.202-0.171-0.38-0.347-0.514-0.532L73.348,91.521z M86.455,113.147
		c0,0-0.337,0.436-0.388,0.514c-0.048,0.086-0.129,0.166-0.224,0.293c-0.085,0.126-0.227,0.27-0.399,0.431
		c-0.177,0.152-0.343,0.362-0.594,0.52c-0.237,0.17-0.494,0.353-0.765,0.548c-0.289,0.176-0.616,0.321-0.942,0.496
		c-0.33,0.173-0.667,0.359-1.044,0.466c-0.37,0.128-0.747,0.259-1.125,0.388c-0.37,0.149-0.764,0.23-1.152,0.302
		c-0.385,0.078-0.766,0.156-1.134,0.23c-0.371,0.063-0.723,0.175-1.071,0.182c-0.343,0.03-0.669,0.056-0.969,0.081
		c-1.208,0.099-2.01,0.166-2.01,0.166s0.807-0.02,2.016-0.049c0.304-0.009,0.634-0.019,0.981-0.025
		c0.352,0.012,0.709-0.082,1.086-0.124c0.378-0.056,0.768-0.109,1.162-0.167c0.397-0.05,0.801-0.108,1.19-0.239
		c0.392-0.112,0.788-0.222,1.172-0.33c0.398-0.089,0.758-0.264,1.11-0.423c0.351-0.16,0.701-0.296,1.015-0.464
		c0.302-0.191,0.59-0.374,0.854-0.54c0.275-0.151,0.477-0.371,0.677-0.53c0.199-0.166,0.43-0.388,0.554-0.546v0.517
		c0,0-0.337,0.446-0.388,0.527c-0.048,0.085-0.129,0.164-0.224,0.289c-0.085,0.129-0.227,0.27-0.399,0.43
		c-0.177,0.153-0.343,0.367-0.594,0.52c-0.237,0.171-0.494,0.355-0.765,0.553c-0.289,0.174-0.616,0.321-0.942,0.496
		c-0.33,0.171-0.667,0.357-1.044,0.464c-0.37,0.129-0.747,0.258-1.125,0.39c-0.37,0.149-0.764,0.229-1.152,0.302
		c-0.385,0.076-0.766,0.154-1.134,0.229c-0.371,0.062-0.723,0.177-1.071,0.184c-0.343,0.028-0.669,0.054-0.969,0.079
		c-1.208,0.099-2.01,0.165-2.01,0.165s0.807-0.021,2.016-0.051c0.304-0.007,0.634-0.014,0.981-0.022
		c0.352,0.014,0.709-0.083,1.086-0.124c0.378-0.054,0.768-0.11,1.162-0.166c0.397-0.053,0.801-0.108,1.19-0.24
		c0.392-0.112,0.788-0.224,1.172-0.33c0.398-0.09,0.758-0.265,1.11-0.421c0.351-0.161,0.701-0.298,1.015-0.464
		c0.302-0.193,0.59-0.374,0.854-0.542c0.275-0.152,0.477-0.371,0.677-0.53c0.199-0.165,0.43-0.387,0.554-0.546v0.569
		c0,0-0.337,0.392-0.388,0.473c-0.048,0.087-0.129,0.166-0.224,0.293c-0.085,0.125-0.227,0.269-0.399,0.429
		c-0.177,0.154-0.343,0.363-0.594,0.519c-0.237,0.17-0.494,0.356-0.765,0.551c-0.289,0.176-0.616,0.324-0.942,0.498
		c-0.33,0.168-0.667,0.358-1.044,0.466c-0.37,0.129-0.747,0.256-1.125,0.387c-0.37,0.15-0.764,0.229-1.152,0.301
		c-0.385,0.078-0.766,0.154-1.134,0.23c-0.371,0.064-0.723,0.178-1.071,0.185c-0.343,0.026-0.669,0.055-0.969,0.077
		c-1.208,0.1-2.01,0.164-2.01,0.164s0.807-0.018,2.016-0.048c0.304-0.007,0.634-0.016,0.981-0.025
		c0.352,0.016,0.709-0.081,1.086-0.122c0.378-0.053,0.768-0.108,1.162-0.166c0.397-0.053,0.801-0.11,1.19-0.239
		c0.392-0.111,0.788-0.224,1.172-0.332c0.398-0.089,0.758-0.266,1.11-0.419c0.351-0.164,0.701-0.297,1.015-0.467
		c0.302-0.193,0.59-0.374,0.854-0.54c0.275-0.15,0.477-0.371,0.677-0.529c0.191-0.159,0.427-0.349,0.554-0.505v0.546
		c0,0-0.337,0.374-0.388,0.454c-0.048,0.085-0.129,0.166-0.224,0.294c-0.085,0.124-0.227,0.267-0.399,0.428
		c-0.177,0.154-0.343,0.363-0.594,0.519c-0.237,0.171-0.494,0.355-0.765,0.552c-0.289,0.177-0.616,0.322-0.942,0.495
		c-0.33,0.172-0.667,0.359-1.044,0.465c-0.37,0.13-0.747,0.261-1.125,0.388c-0.37,0.15-0.764,0.23-1.152,0.3
		c-0.385,0.081-0.766,0.159-1.134,0.234c-0.371,0.062-0.723,0.174-1.071,0.182c-0.343,0.027-0.669,0.056-0.969,0.08
		c-1.208,0.099-2.01,0.164-2.01,0.164s0.807-0.018,2.016-0.049c0.304-0.007,0.634-0.017,0.981-0.023
		c0.352,0.014,0.709-0.081,1.086-0.123c0.378-0.055,0.768-0.112,1.162-0.168c0.397-0.05,0.801-0.109,1.19-0.241
		c0.392-0.109,0.788-0.22,1.172-0.332c0.398-0.085,0.758-0.261,1.11-0.418c0.351-0.161,0.701-0.297,1.015-0.465
		c0.302-0.191,0.59-0.373,0.854-0.539c0.275-0.152,0.477-0.372,0.677-0.531c0.086-0.071,0.15-0.138,0.208-0.207
		c0.055-0.098,0.146-0.192,0.185-0.295c-0.054,0.118-0.113,0.211-0.185,0.295c-1.243,2.262-6.161,3.959-12.095,3.959
		c-6.87,0-12.441-2.266-12.441-5.066v-7.506c0-2.799,5.571-5.067,12.441-5.067c6.873,0,12.44,2.269,12.44,5.067V113.147z"/>
	<path fill="#00264B" d="M113.133,114.715c-0.521,0.069-1.327,0.143-2.308,0.207l-0.87,0.052c-0.031,0-0.065,0.004-0.101,0.008
		l-1.143,0.049l-1.521,0.058h-0.074l-0.63,0.016c-0.077,0.001-0.155,0.003-0.232,0.003l-1.295,0.019h-0.16h-0.325
		c-0.091,0-0.186,0-0.279,0l-1.568-0.021c-0.049-0.004-0.096-0.006-0.144-0.006l-1.333-0.051c-0.049,0-0.098-0.005-0.143-0.007
		l-0.938-0.059c-0.046-0.004-0.09-0.008-0.136-0.011l-0.447-0.037l-1.314-0.147l-0.442-0.069c-0.015-0.002-0.03-0.003-0.046-0.005
		l-0.859-0.178c-0.015-0.004-0.031-0.004-0.045-0.007l-0.936-0.319l-0.189-0.065c-1.881-0.736-2.729-0.781-4.9-3.045l-15.719-21.93
		l31.218-43.556l0.344,0.247l0.841-1.173l-2.912-2.088l-0.844,1.173l0.344,0.245L73.348,86.814L42.671,44.016l0.343-0.245
		l-0.842-1.173l-2.913,2.088l0.843,1.173l0.341-0.247l31.22,43.556l-15.719,21.93c-1.778,1.855-2.675,2.222-3.973,2.697
		c-0.288,0.105-0.587,0.215-0.929,0.348l-1.124,0.385c-0.014,0.003-0.03,0.003-0.046,0.007l-0.858,0.178
		c-0.016,0.002-0.033,0.003-0.046,0.005l-0.443,0.069l-1.316,0.147l-0.447,0.037c-0.042,0.003-0.09,0.007-0.135,0.011l-0.938,0.059
		c-0.046,0.002-0.095,0.007-0.142,0.007l-1.335,0.051c-0.048,0-0.094,0.002-0.143,0.006l-1.57,0.021c-0.092,0-0.186,0-0.278,0
		h-0.327h-0.159l-1.294-0.019c-0.077,0-0.154-0.002-0.23-0.003l-0.633-0.016h-0.072l-1.523-0.058l-1.143-0.049
		c-0.032-0.004-0.065-0.008-0.099-0.008l-0.872-0.052c-0.981-0.064-1.788-0.138-2.306-0.207c-2.837-0.371-2.771,3.555-0.261,5.466
		c0.502,0.383,1.574,0.637,2.975,0.774l0,0l0.111,0.009c0.29,0.024,0.59,0.051,0.903,0.065l0.069,0.007h0.047
		c0.319,0.016,0.652,0.023,0.993,0.029l0.111,0.003h0.072c0.93,0.012,1.926-0.014,2.957-0.073l0.006,0.026l0.663-0.066l0.333-0.027
		c0.515-0.046,1.032-0.09,1.552-0.147l0.016-0.002l0.325-0.034l0.003-0.002l0.229-0.028v-0.003c0.372-0.042,0.748-0.092,1.117-0.144
		l0.043-0.004l0.012-0.007c0.375-0.053,0.749-0.113,1.118-0.178l0.123-0.021l0,0c0.475-0.084,0.94-0.171,1.397-0.27l0.007-0.001
		l0.678-0.152l0.029-0.007c0.38-0.091,0.75-0.186,1.11-0.288l0.118-0.029l0.131-0.042c0.213-0.063,0.421-0.126,0.623-0.192
		l0.169-0.051v-0.001c1.68-0.564,2.976-1.252,3.555-2.062l0.16-0.224l18.29-25.519l18.451,25.742
		c0.134,0.186,0.312,0.361,0.514,0.532c0.686,0.583,1.746,1.093,3.044,1.53v0.001l0.168,0.051c0.203,0.066,0.408,0.129,0.622,0.192
		l0.132,0.042l0.119,0.029c0.356,0.103,0.727,0.197,1.107,0.288l0.029,0.007l0.679,0.152l0.005,0.001
		c0.456,0.099,0.924,0.186,1.396,0.27l0,0l0.125,0.021c0.37,0.064,0.74,0.125,1.117,0.178l0.014,0.007l0.045,0.004
		c0.367,0.052,0.74,0.102,1.115,0.144v0.003l0.229,0.028l0.004,0.002l0.32,0.034l0.021,0.002c0.519,0.058,1.036,0.102,1.548,0.147
		l0.335,0.027l0.662,0.066l0.009-0.026c1.028,0.06,2.024,0.085,2.956,0.073h0.071l0.108-0.003c0.342-0.006,0.677-0.014,0.996-0.029
		h0.047l0.066-0.007c0.314-0.015,0.615-0.041,0.904-0.065l0.11-0.009h0.002c1.401-0.138,2.472-0.392,2.974-0.774
		C115.904,118.27,115.972,114.344,113.133,114.715z"/>
	<path fill="#00264B" d="M86.294,119.487c-0.039,0.103-0.13,0.197-0.185,0.295C86.181,119.698,86.24,119.605,86.294,119.487z"/>
	<path fill="#00264B" d="M74.015,106.102c-6.87,0-12.441,2.269-12.441,5.067v7.506c0,2.801,5.571,5.066,12.441,5.066
		c5.934,0,10.852-1.697,12.095-3.959c-0.058,0.069-0.122,0.136-0.208,0.207c-0.2,0.159-0.401,0.379-0.677,0.531
		c-0.264,0.166-0.552,0.348-0.854,0.539c-0.313,0.168-0.664,0.304-1.015,0.465c-0.353,0.157-0.712,0.333-1.11,0.418
		c-0.384,0.112-0.78,0.223-1.172,0.332c-0.39,0.132-0.793,0.191-1.19,0.241c-0.395,0.056-0.784,0.113-1.162,0.168
		c-0.377,0.042-0.734,0.137-1.086,0.123c-0.348,0.007-0.678,0.017-0.981,0.023c-1.209,0.031-2.016,0.049-2.016,0.049
		s0.802-0.065,2.01-0.164c0.3-0.024,0.626-0.053,0.969-0.08c0.349-0.008,0.7-0.119,1.071-0.182c0.368-0.075,0.749-0.153,1.134-0.234
		c0.389-0.069,0.782-0.149,1.152-0.3c0.378-0.127,0.755-0.258,1.125-0.388c0.377-0.105,0.714-0.293,1.044-0.465
		c0.326-0.173,0.653-0.318,0.942-0.495c0.271-0.196,0.527-0.381,0.765-0.552c0.251-0.155,0.417-0.364,0.594-0.519
		c0.173-0.161,0.314-0.304,0.399-0.428c0.095-0.128,0.176-0.209,0.224-0.294c0.051-0.08,0.388-0.454,0.388-0.454v-0.546
		c-0.127,0.156-0.362,0.346-0.554,0.505c-0.2,0.158-0.401,0.379-0.677,0.529c-0.264,0.166-0.552,0.347-0.854,0.54
		c-0.313,0.17-0.664,0.303-1.015,0.467c-0.353,0.153-0.712,0.33-1.11,0.419c-0.384,0.108-0.78,0.221-1.172,0.332
		c-0.39,0.129-0.793,0.187-1.19,0.239c-0.395,0.058-0.784,0.113-1.162,0.166c-0.377,0.041-0.734,0.138-1.086,0.122
		c-0.348,0.01-0.678,0.019-0.981,0.025c-1.209,0.03-2.016,0.048-2.016,0.048s0.802-0.064,2.01-0.164
		c0.3-0.022,0.626-0.051,0.969-0.077c0.349-0.007,0.7-0.12,1.071-0.185c0.368-0.076,0.749-0.152,1.134-0.23
		c0.389-0.072,0.782-0.15,1.152-0.301c0.378-0.131,0.755-0.258,1.125-0.387c0.377-0.107,0.714-0.298,1.044-0.466
		c0.326-0.174,0.653-0.322,0.942-0.498c0.271-0.194,0.527-0.381,0.765-0.551c0.251-0.155,0.417-0.364,0.594-0.519
		c0.173-0.16,0.314-0.304,0.399-0.429c0.095-0.127,0.176-0.206,0.224-0.293c0.051-0.081,0.388-0.473,0.388-0.473v-0.569
		c-0.124,0.159-0.354,0.381-0.554,0.546c-0.2,0.159-0.401,0.378-0.677,0.53c-0.264,0.168-0.552,0.349-0.854,0.542
		c-0.313,0.166-0.664,0.303-1.015,0.464c-0.353,0.156-0.712,0.331-1.11,0.421c-0.384,0.106-0.78,0.218-1.172,0.33
		c-0.39,0.132-0.793,0.188-1.19,0.24c-0.395,0.056-0.784,0.112-1.162,0.166c-0.377,0.041-0.734,0.138-1.086,0.124
		c-0.348,0.009-0.678,0.016-0.981,0.022c-1.209,0.03-2.016,0.051-2.016,0.051s0.802-0.066,2.01-0.165
		c0.3-0.025,0.626-0.051,0.969-0.079c0.349-0.007,0.7-0.121,1.071-0.184c0.368-0.074,0.749-0.152,1.134-0.229
		c0.389-0.073,0.782-0.152,1.152-0.302c0.378-0.132,0.755-0.261,1.125-0.39c0.377-0.106,0.714-0.293,1.044-0.464
		c0.326-0.175,0.653-0.322,0.942-0.496c0.271-0.197,0.527-0.382,0.765-0.553c0.251-0.152,0.417-0.366,0.594-0.52
		c0.173-0.16,0.314-0.301,0.399-0.43c0.095-0.125,0.176-0.204,0.224-0.289c0.051-0.081,0.388-0.527,0.388-0.527v-0.517
		c-0.124,0.158-0.354,0.38-0.554,0.546c-0.2,0.159-0.401,0.379-0.677,0.53c-0.264,0.166-0.552,0.349-0.854,0.54
		c-0.313,0.168-0.664,0.304-1.015,0.464c-0.353,0.159-0.712,0.334-1.11,0.423c-0.384,0.108-0.78,0.218-1.172,0.33
		c-0.39,0.131-0.793,0.189-1.19,0.239c-0.395,0.058-0.784,0.111-1.162,0.167c-0.377,0.042-0.734,0.136-1.086,0.124
		c-0.348,0.007-0.678,0.017-0.981,0.025c-1.209,0.029-2.016,0.049-2.016,0.049s0.802-0.067,2.01-0.166
		c0.3-0.025,0.626-0.051,0.969-0.081c0.349-0.007,0.7-0.118,1.071-0.182c0.368-0.074,0.749-0.152,1.134-0.23
		c0.389-0.071,0.782-0.152,1.152-0.302c0.378-0.129,0.755-0.26,1.125-0.388c0.377-0.106,0.714-0.293,1.044-0.466
		c0.326-0.175,0.653-0.32,0.942-0.496c0.271-0.195,0.527-0.378,0.765-0.548c0.251-0.157,0.417-0.367,0.594-0.52
		c0.173-0.161,0.314-0.305,0.399-0.431c0.095-0.127,0.176-0.207,0.224-0.293c0.051-0.078,0.388-0.514,0.388-0.514v-1.979
		C86.455,108.37,80.888,106.102,74.015,106.102z M85.738,112.863c0.087-0.092,0.166-0.187,0.237-0.277
		c0.132-0.144,0.191-0.294,0.258-0.426c0.035-0.064,0.066-0.126,0.095-0.182c0.014-0.062,0.023-0.118,0.036-0.169
		c0.008-0.041,0.015-0.071,0.021-0.107c0.012-0.049,0.019-0.093,0.025-0.122c0.011-0.054,0.015-0.082,0.015-0.082
		s-0.008,0.109-0.021,0.316c-0.007,0.054-0.01,0.108-0.016,0.175c-0.021,0.059-0.044,0.125-0.067,0.196
		c-0.053,0.147-0.106,0.323-0.228,0.478c-0.103,0.171-0.225,0.354-0.397,0.521c-0.154,0.185-0.346,0.354-0.562,0.523
		c-0.422,0.354-0.957,0.671-1.558,0.974c-0.611,0.286-1.285,0.562-2.018,0.798c-0.73,0.232-1.511,0.459-2.335,0.605
		c-0.819,0.171-1.675,0.297-2.548,0.381c-0.878,0.087-1.769,0.124-2.661,0.136c-0.891-0.012-1.775-0.049-2.66-0.136
		c-0.875-0.08-1.731-0.21-2.551-0.377c-0.823-0.15-1.604-0.373-2.334-0.609c-0.731-0.233-1.405-0.512-2.016-0.798
		c-0.601-0.303-1.135-0.618-1.558-0.974c-0.215-0.17-0.41-0.339-0.563-0.523c-0.172-0.165-0.293-0.35-0.397-0.518
		c-0.122-0.16-0.174-0.331-0.224-0.477c-0.027-0.071-0.048-0.138-0.071-0.197c-0.005-0.066-0.009-0.124-0.014-0.176
		c-0.017-0.209-0.024-0.318-0.024-0.318s0.007,0.037,0.02,0.102c0.006,0.026,0.013,0.062,0.022,0.103
		c0.007,0.031,0.014,0.066,0.022,0.107c0.01,0.047,0.022,0.106,0.034,0.166c0.03,0.054,0.06,0.116,0.092,0.181
		c0.07,0.133,0.131,0.286,0.263,0.43c0.068,0.091,0.147,0.184,0.236,0.275c0.058,0.062,0.117,0.122,0.186,0.178
		c0.162,0.161,0.359,0.305,0.583,0.447c0.435,0.297,0.974,0.553,1.566,0.817c0.604,0.24,1.271,0.471,1.995,0.658
		c0.724,0.188,1.497,0.354,2.3,0.485c0.805,0.146,1.645,0.229,2.498,0.31c0.845,0.074,1.722,0.101,2.596,0.107
		c0.871-0.007,1.742-0.033,2.596-0.107c0.853-0.079,1.693-0.163,2.496-0.309c0.807-0.132,1.578-0.296,2.302-0.484
		c0.725-0.185,1.391-0.42,1.995-0.66c0.592-0.265,1.137-0.517,1.566-0.817c0.224-0.143,0.423-0.286,0.583-0.447
		C85.625,112.985,85.678,112.924,85.738,112.863z"/>
	<path fill="#1B3142" d="M119.578,103.805c-3.293,0.635-5.723,2.964-5.414,5.206c0.302,2.245,3.223,3.54,6.524,2.901
		c3.296-0.63,7.35-5.58,7.35-5.58S122.879,103.169,119.578,103.805z"/>
	<path fill="#1B3142" d="M116.075,100.144c0.654-2.973-1.453-7.835-1.453-7.835s-3.944,3.426-4.594,6.396
		c-0.659,2.966,0.168,5.693,1.839,6.097C113.537,105.195,115.416,103.106,116.075,100.144z"/>
	<path fill="#1B3142" d="M116.529,91.096c0.058,3.034,1.495,5.422,3.209,5.333c1.725-0.091,3.066-2.619,3.016-5.648
		c-0.055-3.037-3.249-7.117-3.249-7.117S116.478,88.064,116.529,91.096z"/>
	<path fill="#1B3142" d="M126.076,86.343c1.729-0.194,2.938-2.8,2.736-5.824c-0.221-3.018-3.62-6.887-3.62-6.887
		s-2.805,4.569-2.589,7.593C122.814,84.248,124.365,86.538,126.076,86.343z"/>
	<path fill="#1B3142" d="M127.441,70.941c0.623,2.568,2.312,4.274,3.769,3.806c1.469-0.465,2.146-2.919,1.538-5.491
		c-0.621-2.571-4.143-5.313-4.143-5.313S126.821,68.375,127.441,70.941z"/>
	<path fill="#1B3142" d="M129.922,61.184c0.77,2.28,2.446,3.67,3.752,3.104c1.31-0.552,1.737-2.867,0.964-5.141
		c-0.773-2.277-4.204-4.443-4.204-4.443S129.159,58.907,129.922,61.184z"/>
	<path fill="#1B3142" d="M134.354,53.846c1.018-0.701,1.035-2.685,0.056-4.442c-0.979-1.756-4.181-2.937-4.181-2.937
		s-0.46,3.714,0.526,5.463C131.738,53.686,133.35,54.539,134.354,53.846z"/>
	<path fill="#1B3142" d="M133.504,45.228c1.015-0.691,1.045-2.682,0.072-4.446c-0.966-1.757-4.169-2.957-4.169-2.957
		s-0.472,3.71,0.512,5.473C130.888,45.057,132.497,45.918,133.504,45.228z"/>
	<path fill="#1B3142" d="M128.02,95.609c-3.156,1.266-5.181,4.01-4.523,6.149c0.666,2.13,3.762,2.84,6.924,1.578
		c3.167-1.258,6.374-6.901,6.374-6.901S131.188,94.342,128.02,95.609z"/>
	<path fill="#1B3142" d="M133.387,85.872c-2.87,1.948-4.325,5.095-3.274,7.018c1.062,1.928,4.242,1.896,7.108-0.056
		c2.867-1.945,4.959-8.167,4.959-8.167S136.254,83.916,133.387,85.872z"/>
	<path fill="#1B3142" d="M137.486,75.456c-1.935,2.298-2.482,5.21-1.211,6.489c1.271,1.284,3.872,0.464,5.813-1.831
		c1.941-2.302,2.358-7.842,2.358-7.842S139.438,73.153,137.486,75.456z"/>
	<path fill="#1B3142" d="M138.796,63.938c-1.562,2.743-1.583,5.789-0.056,6.801c1.525,1.019,4.022-0.387,5.572-3.122
		c1.558-2.737,0.961-8.397,0.961-8.397S140.347,61.201,138.796,63.938z"/>
	<path fill="#1B3142" d="M139.383,53.145c-1.152,2.576-0.922,5.271,0.52,6.01c1.442,0.745,3.541-0.744,4.698-3.322
		c1.154-2.572,0.159-7.523,0.159-7.523S140.542,50.564,139.383,53.145z"/>
	<path fill="#1B3142" d="M138.938,48.997c1.238,0.514,2.877-0.84,3.686-3.034c0.809-2.193-0.29-6.19-0.29-6.19
		s-3.352,2.134-4.156,4.33C137.368,46.3,137.719,48.485,138.938,48.997z"/>
	<path fill="#1B3142" d="M136.848,42.122c1.299,0.193,2.606-1.509,2.943-3.808c0.335-2.284-1.543-5.823-1.543-5.823
		s-2.798,2.854-3.136,5.152C134.788,39.935,135.562,41.933,136.848,42.122z"/>
	<path fill="#1B3142" d="M136.067,61.532c-0.988,7.042-3.096,13.915-5.964,20.332c-2.903,6.408-6.678,12.321-11.05,17.56
		c-4.36,5.275-9.642,9.653-15.704,12.475l0.056,0.203c6.473-1.687,12.28-6.03,17.022-11.229c4.758-5.277,8.302-11.672,11.07-18.316
		c2.76-6.649,4.708-13.703,5.522-20.901c0.386-3.603,0.475-7.237,0.113-10.819c-0.374-3.568-1.216-7.118-2.828-10.208l-0.171,0.095
		C137.075,47.085,137.031,54.562,136.067,61.532z"/>
	<path fill="#1B3142" d="M36.143,109.011c0.31-2.242-2.12-4.571-5.415-5.206c-3.3-0.636-8.459,2.527-8.459,2.527
		s4.053,4.95,7.349,5.58C32.92,112.551,35.841,111.256,36.143,109.011z"/>
	<path fill="#1B3142" d="M38.44,104.802c1.671-0.403,2.498-3.131,1.839-6.097c-0.65-2.971-4.594-6.396-4.594-6.396
		s-2.106,4.862-1.455,7.835C34.89,103.106,36.771,105.195,38.44,104.802z"/>
	<path fill="#1B3142" d="M30.568,96.429c1.716,0.089,3.152-2.299,3.208-5.333c0.053-3.031-2.974-7.433-2.974-7.433
		s-3.194,4.08-3.249,7.117C27.502,93.81,28.843,96.338,30.568,96.429z"/>
	<path fill="#1B3142" d="M21.496,80.519c-0.202,3.024,1.008,5.63,2.735,5.824c1.711,0.195,3.263-2.095,3.474-5.118
		c0.216-3.023-2.591-7.593-2.591-7.593S21.716,77.501,21.496,80.519z"/>
	<path fill="#1B3142" d="M17.56,69.257c-0.608,2.572,0.069,5.026,1.537,5.491c1.457,0.468,3.146-1.238,3.771-3.806
		c0.619-2.566-1.166-6.998-1.166-6.998S18.181,66.686,17.56,69.257z"/>
	<path fill="#1B3142" d="M16.634,64.288c1.305,0.566,2.982-0.824,3.751-3.104c0.763-2.277-0.512-6.48-0.512-6.48
		s-3.43,2.166-4.204,4.443C14.897,61.421,15.325,63.736,16.634,64.288z"/>
	<path fill="#1B3142" d="M19.551,51.929c0.986-1.749,0.528-5.463,0.528-5.463s-3.202,1.181-4.182,2.937
		c-0.979,1.758-0.962,3.742,0.056,4.442C16.959,54.539,18.57,53.686,19.551,51.929z"/>
	<path fill="#1B3142" d="M16.803,45.228c1.008,0.69,2.618-0.171,3.586-1.929c0.982-1.763,0.512-5.473,0.512-5.473
		s-3.203,1.199-4.169,2.957C15.759,42.546,15.788,44.537,16.803,45.228z"/>
	<path fill="#1B3142" d="M26.811,101.759c0.657-2.14-1.366-4.884-4.522-6.149c-3.169-1.268-8.774,0.826-8.774,0.826
		s3.207,5.644,6.373,6.901C23.049,104.599,26.144,103.889,26.811,101.759z"/>
	<path fill="#1B3142" d="M20.194,92.89c1.051-1.923-0.404-5.069-3.273-7.018c-2.868-1.956-8.792-1.205-8.792-1.205
		s2.09,6.222,4.958,8.167C15.954,94.786,19.134,94.817,20.194,92.89z"/>
	<path fill="#1B3142" d="M14.032,81.945c1.271-1.279,0.725-4.191-1.21-6.489c-1.952-2.303-6.961-3.184-6.961-3.184
		s0.418,5.541,2.359,7.842C10.16,82.409,12.761,83.229,14.032,81.945z"/>
	<path fill="#1B3142" d="M11.568,70.739c1.527-1.012,1.505-4.059-0.058-6.801c-1.549-2.736-6.477-4.718-6.477-4.718
		s-0.597,5.66,0.962,8.397C7.546,70.352,10.042,71.757,11.568,70.739z"/>
	<path fill="#1B3142" d="M10.405,59.155c1.441-0.74,1.673-3.434,0.52-6.01c-1.158-2.581-5.377-4.834-5.377-4.834
		s-0.996,4.951,0.159,7.523C6.863,58.411,8.963,59.9,10.405,59.155z"/>
	<path fill="#1B3142" d="M11.369,48.997c1.219-0.511,1.57-2.696,0.761-4.895c-0.806-2.196-4.158-4.33-4.158-4.33
		s-1.098,3.997-0.29,6.19C8.492,48.156,10.131,49.511,11.369,48.997z"/>
	<path fill="#1B3142" d="M13.459,42.122c1.286-0.189,2.062-2.187,1.736-4.479c-0.338-2.299-3.135-5.152-3.135-5.152
		s-1.879,3.54-1.543,5.823C10.853,40.613,12.16,42.315,13.459,42.122z"/>
	<path fill="#1B3142" d="M13.287,61.653c0.813,7.199,2.762,14.252,5.522,20.901c2.769,6.645,6.312,13.039,11.069,18.316
		c4.743,5.199,10.549,9.543,17.022,11.229l0.057-0.203c-6.063-2.821-11.345-7.199-15.703-12.475
		c-4.375-5.238-8.148-11.151-11.051-17.56c-2.868-6.417-4.976-13.29-5.964-20.332c-0.964-6.97-1.008-14.446,1.933-20.811
		l-0.17-0.095c-1.614,3.089-2.454,6.64-2.83,10.208C12.811,54.417,12.901,58.051,13.287,61.653z"/>
</g>
</svg>
