<?xml version="1.0" encoding="utf-8"?>
<!-- Generator: Adobe Illustrator 18.1.0, SVG Export Plug-In . SVG Version: 6.00 Build 0)  -->
<svg version="1.1" id="Layer_1" xmlns="http://www.w3.org/2000/svg" xmlns:xlink="http://www.w3.org/1999/xlink" x="0px" y="0px"
	 viewBox="0 0 150 150" enable-background="new 0 0 150 150" xml:space="preserve">
<g>
	<path fill="none" d="M122.6,93.7c0-0.4,0-0.8-0.2-1.3l-0.5-2.6l-0.1-0.6l0.1-0.2l0.1,0c0,0,0,0,0,0l-0.1,0l-0.1-0.3l-0.4-1.2
		l-1.5-5c-0.5-1.7-1.2-3.2-1.8-4.9c-1.1-3.3-2.7-6.4-4-9.6c-0.7-1.6-1.5-3.1-2.3-4.7c-0.8-1.5-1.5-3.1-2.4-4.6
		c-1.7-3-3.3-6.1-5.2-9.1c-0.9-1.5-1.8-3-2.7-4.5l-2.9-4.4c-0.9-1.5-2-2.9-2.9-4.3c-1-1.4-2-2.9-3-4.3l-3.1-4.2l-3.2-4.2
		c-2.2-2.8-4.3-5.5-6.6-8.2c-1.9-2.3-3.9-4.6-6-6.8c-2.2,2.1-4.3,4.3-6.4,6.6c-2.4,2.6-4.7,5.3-7,8c-1.2,1.3-2.2,2.7-3.4,4.1
		c-1.1,1.4-2.2,2.8-3.3,4.2c-2.2,2.8-4.2,5.7-6.3,8.6c-1,1.5-2,2.9-2.9,4.4l-1.5,2.2l-1.4,2.3L39,53.6l-2.6,4.6
		c-0.4,0.8-0.9,1.5-1.3,2.3L33.9,63l-2.4,4.8l-2.1,4.9L28.4,75c-0.3,0.8-0.6,1.7-0.9,2.5l-1.9,5c-0.6,1.6-1,3.3-1.5,5l-0.6,2.6
		l-0.3,1.3L23,92.7l-0.4,2.6L22.5,98c-0.1,3.5,0.1,7,0.9,10.5c0.8,3.4,2.1,6.7,3.8,9.8c3.5,6.1,8.8,11.2,14.7,15.1
		c3,1.9,6.1,3.6,9.4,5c3.2,1.4,6.6,2.7,10,3.5l0.1,0l1.5,0.4c0.5,0.1,1.1,0.2,1.6,0.3c0.5,0.1,1.1,0.2,1.6,0.2
		c0.5,0.1,1.1,0.1,1.6,0.2c1.1,0.1,2.2,0.2,3.3,0.2c0.5,0,1.1,0,1.6,0c0.6,0,1.1,0,1.6,0c2.2,0,4.4-0.1,6.6-0.3
		c2.2-0.2,4.4-0.4,6.5-0.7c1.7-0.5,3.3-0.9,5-1.4c1.6-0.7,3.2-1.3,4.8-2c3.1-1.6,6-3.4,8.7-5.6l2-1.7c0.6-0.6,1.2-1.2,1.8-1.8
		c0.6-0.6,1.2-1.2,1.8-1.9l1.6-2c1.1-1.3,2-2.8,2.9-4.2c0.5-0.7,0.9-1.5,1.3-2.2l1.2-2.3l1-2.4c0.3-0.8,0.7-1.5,0.9-2.4
		c0.5-1.6,1.1-3.2,1.4-4.9l0.6-2.5l0.3-2.5c0.3-1.7,0.2-3.4,0.3-5c0.1-0.8-0.1-1.6-0.1-2.5L122.6,93.7z M69,89.2
		c-12.7-6.9-27.6-16.7-31.9-25.5c0,0.1-0.1,0.1-0.1,0.2c1.6,4.6,6.4,14.9,17.1,21.4c4.2,2.6,8.8,5.9,13,9.5
		c-2,5.7-4.3,11.1-6.3,15.7c-3.8,8.4-2.8,18.3-1.4,24.9c-11.2-3.5-40.7-16.4-30.2-51.4c2.1-7,4.8-13.7,7.9-20.1
		c-0.5-1.5-0.7-2.3-0.7-2.3c0.2,0.7,0.5,1.4,0.8,2.2C45,47.5,55,33.8,62.2,25c4.1,7.7,10.8,21.9,11.6,33.6
		C74.4,68.2,72.2,79,69,89.2z M79.8,121.6c-1.5,2.6-3.4,5-5.3,7.3c-2.4-5.9-4-14,0.5-21.4c0.5-0.9,1-1.8,1.5-2.9
		C80.8,110.6,82.7,116.7,79.8,121.6z M97.1,132.9c0-0.6,0.1-1.3,0.2-1.9c0.3-2.6,1-5.7,2.4-8.6c0.7-1.5,1.5-2.9,2.6-4.2
		c1.1-1.3,2.3-2.5,3.8-3.6l0.1-0.1l0.1-0.1l0,0l0,0c0.1,0-0.1,0.1,0.2-0.1c0,0,0.3-0.2,0.3-0.2c5.5-4,9.3-9.6,10.5-16.3
		c0.6-3.3,0.7-6.6,0.4-9.9c-0.2-1.9-0.5-3.7-1-5.5c-0.1-0.5-0.2-0.7-0.2-0.7s0,0.3,0,0.8c0,4.9-0.9,9.9-2.9,14.3
		c-2.3,5-6.5,8.4-11.1,10.3l-0.1,0L102,107c-1.8,0.7-3.6,1.6-5.2,2.7c-2.7-5.8-7.5-11-13-13.3c-1.3-0.5-2.8-1.2-4.4-2
		c3.5-18.1,1.5-47.1-16.4-70.4c5.2-6.3,8.8-9.8,8.8-9.8s36.6,36.6,46.7,72.7C123,103.1,114.5,123.7,97.1,132.9z"/>
	<path fill="#F15A2B" d="M73.8,58.6C73.1,46.9,66.4,32.7,62.2,25C55,33.8,45,47.5,37.2,63.7c4.2,8.9,19.2,18.6,31.9,25.5
		C72.2,79,74.4,68.2,73.8,58.6z"/>
	<path fill="#F7971F" d="M71.8,14.2c0,0-3.6,3.6-8.8,9.8c17.9,23.3,19.9,52.2,16.4,70.4c1.6,0.8,3.1,1.4,4.4,2
		c5.5,2.3,10.3,7.5,13,13.3c1.6-1.1,3.4-2,5.2-2.7l0.2-0.1l0.1,0c4.6-1.9,8.8-5.3,11.1-10.3c2.1-4.4,3-9.4,2.9-14.3
		c0-0.5,0-0.8,0-0.8s0.1,0.3,0.2,0.7c0.5,1.8,0.8,3.7,1,5.5c0.4,3.3,0.3,6.7-0.4,9.9c-1.3,6.7-5,12.3-10.5,16.3c0,0-0.3,0.2-0.3,0.2
		c-0.3,0.1-0.1,0-0.2,0.1l0,0l0,0l-0.1,0.1l-0.1,0.1c-1.4,1.1-2.7,2.3-3.8,3.6c-1.1,1.3-1.9,2.7-2.6,4.2c-1.4,2.9-2.1,5.9-2.4,8.6
		c-0.1,0.7-0.1,1.3-0.2,1.9c17.4-9.2,25.9-29.8,21.4-46C108.4,50.8,71.8,14.2,71.8,14.2z"/>
	<path fill="#603916" d="M59.5,135.4c-1.4-6.6-2.4-16.4,1.4-24.9c2.1-4.6,4.3-10,6.3-15.7c-4.2-3.7-8.8-7-13-9.5
		c-10.7-6.5-15.4-16.8-17.1-21.4c-3.1,6.3-5.8,13.1-7.9,20.1C18.8,119,48.3,131.8,59.5,135.4z"/>
	<path fill="#603916" d="M74.9,107.5c-4.4,7.4-2.8,15.6-0.5,21.4c1.9-2.3,3.8-4.8,5.3-7.3c3-5,1-11-3.4-17
		C75.9,105.7,75.4,106.7,74.9,107.5z"/>
	<path fill="#603916" d="M37.1,63.9c0-0.1,0.1-0.1,0.1-0.2c-0.3-0.7-0.6-1.4-0.8-2.2C36.3,61.5,36.6,62.4,37.1,63.9z"/>
	<path fill="#603916" d="M126.3,94.6c-0.1-0.9-0.1-1.9-0.3-2.8l-0.5-2.6l-0.1-0.6l0-0.2l0-0.1l0-0.1l0,0l-0.1-0.3l-0.4-1.3l-1.5-5.2
		c-0.5-1.7-1.2-3.4-1.8-5c-1.2-3.4-2.7-6.6-4.1-9.9c-0.7-1.6-1.6-3.2-2.4-4.8c-0.8-1.6-1.6-3.2-2.5-4.7c-1.8-3.1-3.5-6.2-5.4-9.2
		c-1-1.5-1.9-3-2.8-4.5l-3-4.4c-1-1.5-2-2.9-3.1-4.3c-1-1.4-2-2.9-3.1-4.3L91.9,26l-3.3-4.2c-2.2-2.8-4.5-5.5-6.8-8.2
		c-2.3-2.7-4.6-5.3-7.1-7.9l-1-1l-1,1c-2.6,2.6-5,5.1-7.4,7.8c-2.4,2.7-4.7,5.4-7,8.2c-1.2,1.4-2.2,2.8-3.3,4.2
		c-1.1,1.4-2.2,2.8-3.2,4.3c-2.2,2.9-4.2,5.8-6.2,8.7c-1,1.5-1.9,3-2.9,4.5l-1.5,2.3L39.9,48l-2.7,4.6l-2.6,4.7
		c-0.4,0.8-0.9,1.6-1.3,2.4l-1.2,2.4L29.9,67l-2.1,5l-1,2.5c-0.3,0.8-0.6,1.7-0.9,2.5l-1.8,5c-0.6,1.7-1,3.5-1.5,5.2l-0.5,2.7
		l-0.3,1.3l-0.2,1.3l-0.3,2.7l-0.1,2.7c0,3.6,0.2,7.2,1.2,10.7c0.9,3.5,2.3,6.8,4.2,9.9c1.8,3.1,4.1,5.9,6.7,8.4
		c2.6,2.5,5.4,4.7,8.4,6.6c3,1.9,6.2,3.5,9.4,5c3.3,1.4,6.6,2.5,10.1,3.5h0l1.6,0.5c0.5,0.1,1.1,0.3,1.6,0.4
		c0.5,0.1,1.1,0.2,1.6,0.3c0.5,0.1,1.1,0.2,1.6,0.2c2.2,0.2,4.4,0.3,6.6,0.4c4.4,0.1,8.8-0.1,13.2-0.5l0,0l0,0
		c1.7-0.4,3.5-0.8,5.2-1.3c1.7-0.6,3.4-1.1,5-1.9c3.2-1.5,6.4-3.2,9.3-5.4l2.1-1.6c0.7-0.6,1.3-1.2,2-1.8c0.6-0.6,1.3-1.2,1.9-1.9
		l1.8-2c1.3-1.3,2.2-2.9,3.3-4.3c0.6-0.7,1-1.5,1.4-2.3l1.4-2.3l1.2-2.5c0.4-0.8,0.8-1.6,1.1-2.5c0.6-1.7,1.3-3.4,1.7-5.2l0.7-2.7
		l0.4-2.7c0.3-1.8,0.3-3.6,0.4-5.5C126.4,96.5,126.3,95.5,126.3,94.6z M122.8,97.4c-0.1,1.7,0,3.4-0.3,5l-0.3,2.5l-0.6,2.5
		c-0.3,1.7-0.9,3.3-1.4,4.9c-0.2,0.8-0.6,1.6-0.9,2.4l-1,2.4l-1.2,2.3c-0.4,0.8-0.8,1.5-1.3,2.2c-1,1.4-1.8,2.9-2.9,4.2l-1.6,2
		c-0.6,0.7-1.2,1.2-1.8,1.9c-0.6,0.6-1.2,1.3-1.8,1.8l-2,1.7c-2.6,2.2-5.6,4-8.7,5.6c-1.5,0.8-3.2,1.3-4.8,2c-1.6,0.5-3.3,1-5,1.4
		c-2.2,0.3-4.3,0.5-6.5,0.7c-2.2,0.2-4.4,0.3-6.6,0.3c-0.5,0-1.1,0-1.6,0c-0.5,0-1.1,0-1.6,0c-1.1,0-2.2-0.1-3.3-0.2
		c-0.5,0-1.1-0.1-1.6-0.2c-0.5-0.1-1.1-0.1-1.6-0.2c-0.5-0.1-1.1-0.2-1.6-0.3l-1.5-0.4l-0.1,0c-3.4-0.9-6.8-2.1-10-3.5
		c-3.2-1.4-6.4-3.1-9.4-5c-5.9-3.9-11.2-8.9-14.7-15.1c-1.8-3.1-3-6.4-3.8-9.8c-0.8-3.4-1-7-0.9-10.5l0.2-2.6l0.4-2.6l0.2-1.3
		l0.3-1.3l0.6-2.6c0.5-1.7,1-3.4,1.5-5l1.9-5c0.3-0.8,0.6-1.7,0.9-2.5l1.1-2.4l2.1-4.9l2.4-4.8l1.2-2.4c0.4-0.8,0.9-1.6,1.3-2.3
		l2.6-4.6l2.8-4.5l1.4-2.3l1.5-2.2c1-1.5,1.9-3,2.9-4.4c2.1-2.9,4.1-5.8,6.3-8.6c1.1-1.4,2.1-2.8,3.3-4.2c1.1-1.4,2.2-2.8,3.4-4.1
		c2.3-2.7,4.6-5.4,7-8c2.1-2.3,4.2-4.5,6.4-6.6c2,2.2,4,4.5,6,6.8c2.2,2.7,4.4,5.4,6.6,8.2l3.2,4.2l3.1,4.2c1,1.4,2,2.9,3,4.3
		c1,1.4,2,2.9,2.9,4.3l2.9,4.4c1,1.5,1.8,3,2.7,4.5c1.9,3,3.5,6,5.2,9.1c0.9,1.5,1.6,3.1,2.4,4.6c0.8,1.6,1.6,3.1,2.3,4.7
		c1.4,3.2,2.9,6.3,4,9.6c0.6,1.6,1.3,3.2,1.8,4.9l1.5,5l0.4,1.2l0.2,0.3l0.1,0c0,0,0,0,0,0l-0.1,0l0,0.2l0.1,0.6l0.5,2.6
		c0.1,0.4,0.1,0.8,0.1,1.3l0.1,1.2C122.7,95.8,122.9,96.5,122.8,97.4z"/>
</g>
</svg>
