<?xml version="1.0" encoding="utf-8"?>
<!-- Generator: Adobe Illustrator 18.1.0, SVG Export Plug-In . SVG Version: 6.00 Build 0)  -->
<svg version="1.0" id="Layer_1" xmlns="http://www.w3.org/2000/svg" xmlns:xlink="http://www.w3.org/1999/xlink" x="0px" y="0px"
	 viewBox="0 0 150 150" enable-background="new 0 0 150 150" xml:space="preserve">
<g>
	<path fill="#4CA950" d="M103.4,130.2c-0.1,2-2.3,3.8-4,3.3c-0.9-0.2-1.6-1-2.6-0.8c-0.9,0.2-1,0.5-1.7,1.7c0,0,0,0,0,0l0,0.1
		c0,0,0,0,0,0l0,0.1c0,0,0,0,0,0l-0.1,0.1l0,0c0,0,0,0,0,0l0,0c0,0,0,0,0,0l0,0c0,0,0,0,0,0c0,0,0,0,0,0l0,0.1l0,0l0,0.1l0,0l0,0
		c0,0-0.1,0-0.1,0l0,0l0,0l0,0l0,0c0,0,0,0,0,0l0,0c0,0,0,0,0,0c0,0,0,0,0,0c0,0-0.1,0-0.1,0c0,0,0,0,0,0c0,0,0,0,0,0l0,0
		c0,0-0.1,0-0.1,0c0,0,0,0,0,0c0,0,0,0,0,0c0,0,0,0,0,0c0,0-0.1,0-0.1,0c0,0,0,0,0,0c0,0,0,0,0,0l0,0.1c0,0-0.1,0-0.1,0l0,0
		c0,0-0.1,0-0.1,0l-0.1,0.1c-0.1,0-0.2,0.1-0.3,0.1l0,0c0,0-0.1,0-0.1,0c-2.7,0.8-5.3-1.2-4.1-3.3c0.5-0.8,1.3-1.1,1.7-1.2
		c0.1,0,0.2-0.1,0.3-0.1c0,0,0,0,0,0c0.1,0,0.2,0,0.2-0.1l0.1,0c0,0,0.1,0,0.1-0.1l0.1,0c0,0,0.1,0,0.1,0l0.1,0c0,0,0.1,0,0.1,0
		l0.1,0c0,0,0,0,0,0l0.1,0c0,0,0,0,0,0l0.1,0c0,0,0,0,0,0c0,0,0,0,0,0c0,0,0.1,0,0.1,0l0.1,0l0.1,0c0,0,0,0,0.1,0l0.1,0l0.1,0
		c0,0,0.1,0,0.1,0l0,0c0,0,0,0,0,0c0,0,0,0,0,0c0,0,0,0,0.1,0l0.1,0l0.1,0c0,0,0,0,0,0c0,0,0,0.1,0,0.1l0,0l0.1,0c0,0,0,0,0,0
		s0,0,0.1,0c0,0,0,0,0,0l0.1,0c0,0,0,0,0,0l0,0l0.1,0l0.1,0c0,0,0,0,0,0l0,0c0,0,0,0,0,0c0.7,0.4,2.8,1.5,4-1.4
		c0.5-1.1,1-1.6,2.3-2.2C102.3,127.6,103.5,128.7,103.4,130.2"/>
	<path fill="#4CA950" d="M97.3,138.7c0.4,1.4-2.2,2.1-3.6,1.3c-2.4-1.4-2.4-1.4-4-1.6c-2-0.3-3.9,0.7-5.8,0.4c-3.3-0.4-5.1-3-2.1-4
		c2.2-0.6,4.1,0.4,4.8,1.1c2.4,2.7,6.1,2.6,8,2c0,0,0,0,0,0C96,137.4,97.1,137.9,97.3,138.7"/>
	<g>
		<path fill="#4CA950" d="M51.7,141.1l-0.4-0.2c1.7,0.6,2.9,0.9,3.5,1.1L51.7,141.1"/>
		<path fill="#4CA950" d="M73.2,144.8c1,0,1.6,0,2,0l-0.8,0c-5.8-0.2-6-0.2-9.2-0.6c1,0.1,1.4,0.2,1.8,0.2c0.1,0,0.1,0,0.1,0
			C69,144.5,71.1,144.7,73.2,144.8"/>
	</g>
	<path fill="#4CA950" d="M91,140.8c0.3,0.2,1.1,0.8-0.2,1.1c-0.7,0.2-2.1,0.4-4-0.2c-6.8-2-12.4-0.6-9.9,0.9c1.8,1.2,4,0.8,5.9,1.3
		c-0.3,0.4-7.6,0.6-8.2-0.3c0.4-0.3,1.6-0.2,1.2-0.9c-0.3-0.6-1.3-1.3-2.9-2.2c-1.2-0.7-3.9-2.1-1.1-2.9c1.7-0.4,3.5,0,5.5,1.2
		c0,0,0.1,0,0.1,0.1c3.8,2.1,7.8,1.9,9.5,1.4C88.6,139.8,90.3,140.3,91,140.8"/>
	<path fill="#4CA950" d="M63.6,142.1c1.5,0.5,2.3,0.9,2.5,1.2c-0.3,0.5-3.1-0.1-4.3-0.3c-1.9-0.4-2.2-0.4-2.4-0.3c0,0,0,0.1,0,0.1
		c0.1,0.1,0.1,0.1,1.2,0.5c0,0,0.1,0,0.1,0l0.1,0h0l0.2,0h0l0.1,0l0,0c0,0,0.1,0,0.1,0c0,0,0,0,0,0c0,0,0,0,0.1,0l0,0
		c0,0,0.1,0,0.1,0h0l0.1,0l0,0l0.1,0c0,0,0,0,0,0c0,0,0,0,0,0s0,0,0,0c0,0,0,0,0.1,0c0,0,0,0,0,0l0,0l0.1,0h0l0,0c0,0,0,0,0,0
		c0,0,0.1,0,0.1,0h0c0,0,0,0,0.1,0h0l0,0c0,0,0,0,0,0c0,0,0.1,0,0.1,0c0,0,0,0,0,0c0,0,0,0,0.1,0c0,0,0,0,0,0c0,0,0,0,0,0s0,0,0,0
		l0.1,0h0l0.1,0c0,0,0,0,0,0l0,0c0,0-0.1,0-0.1,0l0.1,0c0,0,0,0,0,0c-2.3-0.2-9.5-2.1-9.8-2.8c0.1,0,0.1,0,0.2,0c0,0,0.1,0,0.1,0
		c0,0,0,0,0.1,0c0,0,0.1,0,0.1,0l0.1,0c0,0,0,0,0.1,0l0.1,0c0,0,0,0,0,0l0.1,0c0,0,0,0,0,0l0.1,0c0,0,0,0,0,0l0.1,0h0l0.1,0h0
		c0,0,0,0,0,0c0,0,0,0,0.1,0l0.1,0l0.2,0h0l0.1,0l0.2,0.1c0,0,0,0,0,0c0,0,0.1,0,0.1,0c0,0,0,0,0,0c0,0,0,0,0.1,0h0l0.1,0l0.1,0h0
		c0,0,0.1,0,0.1,0.1h0l0.1,0c0,0,0,0,0.1,0h0c0,0,0.1,0,0.1,0l0.1,0c0,0,0,0,0,0c0,0,0,0,0.1,0l0.1,0l0.1,0c0,0,0,0,0.1,0l0,0
		c0,0,0,0,0,0c1.2,0.3,2.7,0.7,3.2,0.6c0,0,0-0.1,0-0.1c-0.2-0.2-0.3-0.2-1-0.6c-0.7-0.4-0.9-0.5-0.9-0.7c0.1-0.1,0.1-0.1,0.4-0.2
		C58.5,140.5,61.5,141.3,63.6,142.1"/>
	<path fill="#4CA950" d="M70.1,140.8c1.3,0.6,2.2,1.3,1.3,1.6c-1,0.3-1.7,0.5-0.6,1.1c1.4,0.7,2.9,0.8,8.4,1
		c-0.9,0.3-7.7,0.3-9.2-0.3c0,0,0-0.1,0-0.1c0,0,0.1,0,0.1,0c0,0,0,0-0.1,0c0.4-0.1,0.4-0.1,0.5-0.2c0-0.4-3.4-1.7-4.9-2.2
		c-4.5-1.7-2.4-2.3-2.1-2.4C65.5,139.1,68.3,139.9,70.1,140.8"/>
	<g>
		<path fill="#4CA950" d="M119.3,128.7c1.5-1.2,1.5-1.2,5.8-5.4l0.1-0.1c0.2-0.2,0.3-0.3,0.7-0.7
			C121.9,126.6,121.8,126.7,119.3,128.7"/>
		<path fill="#4CA950" d="M132,115.1c-1.5,2.1-3.1,4.1-3.5,4.4c0-0.1,0-0.1,0.6-1c0.5-0.7,0.9-1.4,0.9-1.6c-0.1,0-0.1,0-2.1,2.3
			c0,0,0,0,0,0.1l-0.1,0.1l0,0l-0.1,0.2l0,0l-0.1,0.1l-0.1,0.1c0,0,0,0,0,0.1c0,0,0,0,0,0c0,0,0,0-0.1,0.1l-0.1,0.1c0,0,0,0,0,0.1
			l0,0l-0.1,0.1l-0.1,0.1l-0.1,0.1c0,0,0,0,0,0c0,0,0,0,0,0.1c0,0,0,0,0,0l0,0c0,0,0,0,0,0l-0.1,0.1l-0.1,0.1c0,0,0,0,0,0l-0.1,0.1
			l0,0c0,0,0,0,0,0.1c0,0,0,0,0,0c0,0,0,0,0,0.1l0,0l-0.1,0.1l0,0c0,0,0,0,0,0c0,0,0,0-0.1,0c0,0,0,0,0,0.1c0,0,0,0,0,0
			c0,0,0,0-0.1,0.1c0,0,0,0,0,0l-0.1,0.1c0,0,0,0-0.1,0l-0.1,0.1c0,0,0,0-0.1,0l-0.1,0.1c0,0-0.1,0.1-0.1,0.1l-0.1,0.1
			c0,0,0,0-0.1,0c-0.2,0.1-0.2,0.1-0.3,0.1c-0.2-0.7,3.6-6.7,5.3-7.9c0,0,0.1-0.1,0.1-0.1c0,0,0,0,0,0.1c0,0,0.1-0.1,0.1-0.1l0,0
			c0,0,0,0,0.1,0l0,0c0,0,0,0,0,0l0,0l0,0l0,0c0,0,0,0,0,0l0,0.1c0,0,0,0,0,0l0,0c0,0,0,0,0,0c0,0,0,0,0,0.1c0,0,0,0,0,0l0,0l0,0.1
			l0,0l0,0.1l0,0.1c0,0,0,0,0,0c0,0,0,0,0,0.1l0,0c0,0,0,0,0,0.1c0,0,0,0,0,0l0,0l0,0.1c0,0,0,0,0,0c0,0,0,0.1-0.1,0.1l0,0l0,0
			c0,0,0,0,0,0l0,0c0,0,0,0,0,0.1l0,0.1l0,0c0,0,0,0,0,0.1l0,0.1l0,0c0,0,0,0,0,0s0,0,0,0c0,0,0,0,0,0.1c-0.4,1-0.5,1.1-0.4,1.3
			c0.1,0,0.4-0.1,2.3-2.9c1.1-1.6,1.4-1.9,1.6-2.1c0,0,0.1,0,0.1-0.1c0,0,0.1,0,0.1,0C134.3,111.4,133.4,113,132,115.1"/>
		<path fill="#4CA950" d="M119.9,128.1c-1.9,1.7-3.8,3-4.1,3.2c1.5-1.7,3.4-2.9,4.8-4.6c1.4-1.7,1.6-2.6,1.2-2.6
			c-0.5,0-0.9,0.8-1.4,0.4c-0.1-0.1-0.2-0.5,0.2-1.5c0.6-1.6,2.2-4.1,3.6-5.3c0.3-0.3,0.5-0.4,0.7-0.5c1.4-0.7,1,0.7,0.8,1.2
			c-0.2,0.6-0.5,1.1-1.1,2c-1.2,2.1-2.6,4.6-2.5,4.9c0.1,0,0.2,0,0.4-0.2c0,0,0,0,0,0c0,0,0.1,0,0.1,0c0,0,0,0,0,0
			C122.5,125.7,121.3,126.9,119.9,128.1"/>
		<path fill="#E24301" d="M145.2,75.8c-0.2,6.9-3.9,21.2-5.5,22.1c0,0-0.1,0-0.1-0.1c-0.5-1.5,1.2-8.4,2.4-9.9c0,0,0-0.1,0-0.1
			c1.5-1.6,2.6-7.1,2.6-12.9c0-1.2,0-5.1,0.2-6c0,0,0.1,0,0.1,0.1c0.1,0.5,0.2,1.6,0.3,4.3L145.2,75.8"/>
		<path fill="#E24301" d="M138.2,95.7c-0.8,3.6-2.9,6.6-3.7,5.4c-0.4-0.6-0.4-2-0.2-3c0.7-4.8-0.7-6.5-1.6-7.1
			c-1.2-0.8-2.4-0.2-3.2,0.2c-2.4,1.1-3.3-1.8-3.3-1.9c-0.9-3.1,0.2-6.9,2.4-8.3c1.5-0.7,3.4-0.5,3.7,4.2c0.1,1.8,1.4,8.2,4.8,6.3
			c0.1,0,0.1,0,0.1,0C138.6,90.9,138.8,93.1,138.2,95.7"/>
		<path fill="#E24301" d="M143.8,76.8c0,3.7-1,6.9-1.8,5.8c-0.2-0.3-0.3-0.9-0.5-1.4c-0.3-1.5-0.8-1.5-0.9-1.5c-0.3,0-0.3,0-1.4,3.3
			c0,0,0,0.1,0,0.1l0,0.2c0,0,0,0,0,0l0,0.3l0,0l-0.1,0.2l0,0.1c0,0,0,0.1,0,0.1c0,0,0,0,0,0c0,0,0,0.1,0,0.1l0,0.1c0,0,0,0.1,0,0.1
			c0,0,0,0,0,0l0,0.1l0,0.1l0,0.1c0,0,0,0,0,0c0,0,0,0.1,0,0.1c0,0,0,0.1-0.1,0.1c0,0,0,0,0,0.1l0,0l0,0.1l0,0.1c0,0,0,0,0,0l0,0.1
			l0,0c0,0,0,0.1,0,0.1c0,0,0,0-0.1,0c0,0,0,0.1,0,0.1c0,0,0,0,0,0l0,0.1c0,0,0,0,0,0c0,0,0,0.1,0,0.1c0,0,0,0-0.1,0
			c0,0,0,0.1,0,0.1c0,0,0,0-0.1,0c0,0,0,0,0,0.1c0,0,0,0-0.1,0l0,0.1c0,0-0.1,0-0.1,0.1l0,0.1c0,0-0.1,0-0.1,0.1l-0.1,0.1
			c-0.1,0-0.2,0.1-0.2,0.1l0,0.1c0,0-0.1,0-0.1,0.1c-2.2,1.2-3.1-3.9-2-7.8c0.5-1.9,1.2-2.3,1.5-2.6c0.1,0,0.1-0.1,0.2-0.1
			c0,0,0,0,0,0.1c0.1,0,0.1-0.1,0.2-0.1l0.1,0c0,0,0.1,0,0.1-0.1l0.1,0c0,0,0,0,0.1,0l0,0c0,0,0,0,0.1,0l0,0.1c0,0,0,0,0,0l0,0.1
			c0,0,0,0,0,0l0,0c0,0,0,0,0,0c0,0,0,0.1,0,0.1c0,0,0,0,0.1,0l0.1,0l0.1,0.1c0,0,0,0,0,0l0,0.1l0,0l0,0.1c0,0,0,0,0.1,0
			c0,0,0,0.1,0,0.1c0,0,0,0,0,0c0,0,0,0.1,0,0.1c0,0,0,0,0,0l0,0.1l0,0.1c0,0,0,0,0,0c0,0,0,0.1,0,0.2c0,0,0,0,0,0l0,0.1
			c0,0,0,0.1,0,0.1c0,0,0,0,0,0c0,0,0,0.1,0,0.1l0,0.1l0,0c0,0,0,0.1,0,0.1l0.1,0.1c0,0,0,0,0,0.1c0,0,0,0,0,0c0,0,0,0.1,0,0.1
			c0.3,0.8,1.1,2.5,1.9,0.8c0.8-1.9,0.1-4.2,1.6-5.9C143.3,71.3,143.8,74,143.8,76.8"/>
		<path fill="#FF893D" d="M134,54.5c1.4,3.8,0.4,7.2-1.8,6.4c-1.2-0.5-2.4-2.1-3-3.5c-0.5-1.1-1.7-4.1-4.4-6.1
			c-3.3-2.4-5.5-1.4-6.6-0.9c-1.1,0.5-2.3,0.4-3.6-0.4c-0.7-0.4-1.1-0.8-1.2-0.9c-2.5-2.5-3.4-6.5-0.9-8.1c1.2-0.6,3.7-0.9,6.5,3.6
			c1.7,2.6,6.6,7.7,10.3,5.7c0.1,0,0.1,0,0.1,0C131.1,49.5,133,51.9,134,54.5"/>
		<path fill="#FF893D" d="M130.5,35.9c2,3,2.5,5.8,0.9,5.5c-0.6-0.1-1.4-0.9-1.9-1.3c-1.4-1.3-1.9-1.2-2.2-1.2
			c-0.2,0-0.5,0.2-0.5,1.1c0,0.7,0.3,1.3,0.4,2c0,0,0,0.1,0.1,0.1l0.1,0.2l0,0l0.1,0.2c0,0,0,0,0,0l0,0.2l0,0.1c0,0,0,0.1,0,0.1
			c0,0,0,0,0,0c0,0,0,0.1,0,0.1l0,0.1c0,0,0,0,0,0.1c0,0,0,0,0,0l0,0.1l0,0.1l0,0.1c0,0,0,0,0,0c0,0,0,0.1,0,0.1c0,0,0,0-0.1,0
			c0,0,0,0,0,0.1c0,0,0,0,0,0l0,0.1l0,0.1c0,0,0,0,0,0v0.1c0,0,0,0,0,0c0,0,0,0.1,0,0.1c0,0,0,0-0.1,0c0,0,0,0,0,0.1l0,0v0.1
			c0,0,0,0-0.1,0c0,0,0,0,0,0.1c0,0,0,0-0.1,0c0,0,0,0,0,0.1c0,0,0,0-0.1,0c0,0,0,0.1,0,0.1c0,0,0,0-0.1,0l0,0.1c0,0-0.1,0-0.1,0.1
			l0,0.1c0,0-0.1,0-0.1,0.1l0,0.1c-0.1,0.1-0.2,0.1-0.2,0.2l0,0.1c0,0-0.1,0-0.1,0.1c-3,1.6-7.7-5.2-6.8-8.3
			c0.2-0.5,0.4-0.7,0.6-0.9c0.1,0,0.1-0.1,0.2-0.1c0,0,0,0,0,0.1c0.1,0,0.1-0.1,0.2-0.1l0.1,0c0,0,0.1,0,0.1-0.1l0.1,0
			c0,0,0,0,0.1,0l0.1,0c0,0,0,0,0.1,0l0.1,0c0,0,0,0,0,0l0.1,0l0,0l0.1,0c0,0,0,0,0,0c0,0,0,0,0.1,0.1c0,0,0,0,0,0l0.1,0l0.2,0.1
			c0,0,0,0,0,0l0.1,0l0.1,0l0.1,0c0,0,0,0,0.1,0c0,0,0,0,0.1,0.1c0,0,0,0,0,0c0,0,0,0,0,0.1c0,0,0,0,0,0l0.1,0.1l0.1,0c0,0,0,0,0,0
			c0,0,0.1,0.1,0.1,0.1c0,0,0,0,0,0l0.1,0c0,0,0,0,0,0.1l0,0c0,0,0,0,0,0.1l0.1,0.1c0,0,0,0,0,0c0,0,0,0,0,0.1l0.2,0.1
			c0,0,0,0,0,0.1c0,0,0,0,0,0c0,0,0,0.1,0.1,0.1c2.3,1.6,3.3,1.6,2.9-0.3c-0.2-1-0.8-1.9-1-3c-0.2-0.8-0.1-1.1,0.2-1.4
			C126.7,31.6,128.9,33.6,130.5,35.9"/>
		<path fill="#003056" d="M98.6,8.2c2.7,1,3.9,1.8,3.9,1.8c0.1,0,0.1,0.1,0.2,0.1c0.3,0.2,0.3,0.3,0.3,0.4c0,0.2,0,0.6,2.8,2.8
			c2.3,1.7,4.8,3.2,7,5c1,0.8,2.7,2.6,1.7,3.1c-1.6,0.8-9.2-4.4-8.7-6c0,0,0-0.1,0.1-0.1c0,0,0,0-0.1,0c1-1.3-2.8-4.2-8.5-6.3
			c-4.3-1.6-4.5-2-4.5-2.2C93.4,6.5,96.3,7.3,98.6,8.2"/>
		<path fill="#003056" d="M97.7,10c2.4,1,4.4,2.5,3.4,2.9c-0.6,0.3-2.1-0.2-3-0.5C96.9,12,96.3,12,96,12c-0.8,0-0.7,0.3-0.6,0.5
			c0.2,0.6,0.8,0.8,1.2,1.3c0,0,0,0,0.1,0l0.1,0.1c0,0,0,0,0,0l0.2,0.1c0,0,0,0,0,0l0.1,0.1l0,0c0,0,0,0,0.1,0c0,0,0,0,0,0
			c0,0,0,0,0.1,0l0,0c0,0,0,0,0.1,0c0,0,0,0,0,0l0,0.1l0,0l0.1,0.1c0,0,0,0,0,0c0,0,0,0,0.1,0c0,0,0,0,0,0c0,0,0,0,0,0c0,0,0,0,0,0
			l0,0.1l0.1,0.1l0,0l0,0l0,0c0,0,0,0,0.1,0c0,0,0,0,0,0c0,0,0,0,0.1,0l0,0l0,0c0,0,0,0,0,0c0,0,0,0,0.1,0c0,0,0,0,0,0
			c0,0,0,0,0.1,0c0,0,0,0,0,0c0,0,0,0,0.1,0c0,0,0,0,0,0l0,0.1c0,0,0,0-0.1,0.1l0,0.1c0,0,0,0-0.1,0l0,0.1c-0.1,0-0.1,0.1-0.2,0.1
			l0,0.1c0,0,0,0-0.1,0c-2.4,1.3-9.9-3.1-9.4-4.3c0-0.1,0.1-0.2,0.2-0.2c0,0,0.1,0,0.1-0.1c0,0,0,0,0.1,0c0,0,0.1,0,0.1-0.1l0.1,0
			c0,0,0,0,0.1,0h0.1c0,0,0,0,0,0l0.1,0c0,0,0,0,0,0l0.1,0l0,0l0.1,0l0,0l0.1,0l0,0c0,0,0,0,0.1,0l0,0h0.1l0.2,0c0,0,0,0,0,0l0.1,0
			l0.1,0l0.1,0c0,0,0,0,0,0c0,0,0.1,0,0.1,0c0,0,0,0,0,0c0,0,0.1,0,0.1,0l0,0l0.1,0l0.1,0c0,0,0,0,0,0c0.1,0,0.1,0,0.1,0.1
			c0,0,0,0,0,0l0.1,0c0,0,0,0,0,0c0,0,0,0,0,0c0,0,0.1,0,0.1,0l0.1,0l0,0c0,0,0,0,0.1,0l0.2,0c0,0,0,0,0.1,0c0,0,0,0,0,0
			c0,0,0,0,0.1,0c1,0.2,3.5,0.8,3,0c-0.3-0.4-1.3-1-1.8-1.3c-1.3-0.8-1.1-1.1-1.1-1.2C92.1,8.3,95,8.9,97.7,10"/>
		<path fill="#003056" d="M108.2,20.7c2.6,2.1,3.1,4.3,1.1,4.5c-0.6,0-1.2-0.1-1.5-0.2c-1.1-0.3-2.5-1.1-3.5-1.9
			c-1-0.8-3.9-3.2-8.2-4.1c-2.9-0.6-5.8,1.1-8.7-0.1c-2.6-1.1-5.1-3.4-4.3-4.5c0.1-0.1,0.2-0.2,0.3-0.2c0.7-0.3,2.7-0.7,6.8,1.6
			c0.1,0,8.1,4.6,11.6,2.7c0.1,0,0.1,0,0.1,0C103.3,17.8,106.2,19.1,108.2,20.7"/>
		<path fill="#00A896" d="M56.3,6.2C64.7,4,76,4.9,76.7,5.5C76,6.1,66.3,5.3,66.2,5.3c0,0-0.1,0-0.1,0C65.2,4.7,57.9,5.5,50.5,8
			C51.5,7.6,53.7,6.9,56.3,6.2"/>
		<path fill="#00A896" d="M70.9,6.1c1,0.1,3.3,0.3,3.7,0.9c-0.1,0.2-0.4,0.6-5.4,0c-1.7-0.2-4-0.4-7.3-0.2c-0.1,0-10.6,1.1-11.4,1.2
			c3.4-0.7,5.1-0.9,9.9-1.2c3-0.2,3.8-0.3,4.3-0.5c0,0,0.1,0,0.1,0C65.7,6,68.4,5.9,70.9,6.1"/>
		<path fill="#00A896" d="M56.2,6.5c2.6-0.6,4.4-0.8,4.7-0.7c-0.1,0.1-0.2,0.1-2.1,0.4c-1.7,0.3-2.5,0.5-2.8,0.6
			c0.7,0.2,1.3-0.2,2-0.2c0,0,0.1,0,0.1,0l0.2,0h0l0.2,0c0,0,0,0,0,0l0.1,0l0.1,0c0,0,0.1,0,0.1,0c0,0,0,0,0,0c0,0,0.1,0,0.1,0
			l0.1,0c0,0,0.1,0,0.1,0h0l0.1,0H59l0.1,0c0,0,0,0,0,0c0,0,0,0,0.1,0c0,0,0,0,0,0c0,0,0,0,0.1,0l0,0l0.1,0l0.1,0h0h0.1h0
			c0,0,0.1,0,0.1,0c0,0,0,0,0,0c0,0,0.1,0,0.1,0h0h0.1l0,0c0,0,0.1,0,0.1,0l0,0c0,0,0.1,0,0.1,0l0,0c0,0,0,0,0.1,0c0,0,0,0,0,0h0.1
			c0,0,0,0,0,0h0.1c0,0,0,0,0,0H60c0,0,0,0,0,0H60c0,0,0,0,0,0c-0.2,0.1-0.9,0.2-2.4,0.4c-1.9,0.2-4.4,0.5-7,1.2l0,0l0.1,0l0,0
			l0.1,0l0,0l0.1,0l0,0c0,0,0.1,0,0.1,0l0,0l0.1,0l0.1,0l0,0l0.1,0l0.1,0l0.1,0l0,0c0,0,0.1,0,0.1,0l0,0c0,0,0,0,0.1,0l0,0l0.1,0
			l0.1,0l0,0c0,0,0.1,0,0.1,0l0,0l0.1,0c0,0,0,0,0,0l0,0c0,0,0.1,0,0.1,0l0.1,0l0,0c0,0,0,0,0.1,0l0.2,0c0,0,0,0,0,0l0,0
			c0,0,0,0,0.1,0c0.8-0.2,1.5-0.3,2.3-0.5c-0.2,0-2.3,0.5-4.2,1C51.5,7.7,53.7,7,56.2,6.5"/>
		<path fill="#4CA950" d="M111.3,126.9c-0.3,1-0.9,1.8-1.2,2.1c-0.8,1-1.4,1.3-1.9,1.5c-0.6,0.3-2.1,0.9-3.6,2.7
			c-1.1,1.3-1.7,2.6-1.8,3.2c-0.1,0.2-0.1,0.6-0.7,1.1c-0.1,0.1-0.2,0.2-0.3,0.3c-0.9,0.9-2.3,1.2-2.7,0.3c-0.3-0.7,0.3-1.9,1.8-2.6
			c0,0,0,0,0,0c1.8-0.7,4.9-3.2,5.2-6.8c0.1-1,1-3,3.1-4C111.3,123.9,111.9,125.2,111.3,126.9"/>
		<path fill="#4CA950" d="M116.9,130c-1.5,1.4-3.6,2.9-4,3c0-0.1,0.1-0.2,1.3-1.5c4.1-4.1,2.6-5,0.8-4.1c-2.9,1.5-5.4,4.7-6.6,6.4
			c-1.6,2.4-4.4,3.9-3.9,2.1c0.1-0.4,0.4-1,1-1.7c0.9-1,1.6-1.3,1.9-1.5c2.8-1.3,4.7-4,5.2-4.8c1-1.5,1.4-3.3,2.4-4.8
			c0,0,1.1-1.6,2.6-2.3c0.8-0.4,2.1-0.5,1.3,1.7c-0.1,0.2-0.2,0.4-0.3,0.6c0,0.1,0,0.1-0.1,0.1c-0.9,2.2-2,5-0.4,4.4
			c0.2-0.1,0.4-0.2,0.6-0.3c0,0,0.1,0.1,0.1,0.1C118.9,128.1,117.4,129.6,116.9,130"/>
		<path fill="#E24301" d="M131.8,99.7c-0.7,3.8-3.8,7.3-5.2,5.2c-0.3-0.5-0.5-1.3-0.4-2.4c0.4-6.7-3.9-6.8-4.8-6.8
			c-2.8,0.1-7.4,3.6-8.6,9.7c-0.3,1.6,0,3.2-0.4,4.7c-0.1,0.6-0.4,1.7-1.6,3c-1.5,1.6-4,2.1-5.2,0.1c-0.5-0.7-1-2.5-0.1-4.4
			c0.1-0.1,0.1-0.3,0.2-0.4c0.8-1.6,2.1-2.2,2.6-2.5c1.2-0.6,3.3-1.6,5-4.9c1.7-3.2,1.7-5.9,1.4-7.6c-0.3-1.7-0.2-3,0.7-4.7
			c0.2-0.4,0.9-1.6,2.4-2.3c1.3-0.6,3.7-0.9,4.5,3.3c0,0.1,0,0.1,0,0.2c1.5,8,5.8,6.7,7.1,6.1C131.6,95.1,132.3,97.2,131.8,99.7"/>
		<path fill="#E24301" d="M110.8,95.6c0.1,1.1-0.1,2.3-0.6,3.4c-0.8,1.7-2,2.3-2.6,2.6c-2.7,1.3-4.6,3.2-5.7,5.8
			c-1.4,3.2-0.8,5.8-0.8,5.9c0.3,1.3,0.1,2.6-0.7,3.7c-1.7,2.4-4.3,2.5-5.9,1.4c-2.1-1.5-2.3-5.6,1.4-7.3c0,0,0,0,0-0.1
			c4.2-1.6,7.7-6.4,6.3-12.6c-0.4-1.7,0.1-4.9,3.2-6.4C108.4,90.9,110.5,93,110.8,95.6"/>
		<path fill="#E24301" d="M98.1,100.9c0.8,4.2-3.6,7.6-7,5.4c-3.7-2.3-4.7-1.6-6.3,1.8c0,0,0,0,0,0.1l0,0.2c0,0,0,0-0.1,0l0,0.2
			c0,0-0.1,0-0.1,0l-0.1,0.2l0,0.1c0,0,0,0.1,0,0.1c0,0,0,0-0.1,0c0,0,0,0.1,0,0.1l0,0.1c0,0,0,0,0,0.1c0,0-0.1,0-0.1,0l0,0.1l0,0.1
			l0,0.1c0,0,0,0-0.1,0c0,0,0,0,0,0.1c0,0-0.1,0-0.1,0c0,0,0,0,0,0.1c0,0,0,0-0.1,0l0,0.1l0,0.1c0,0,0,0-0.1,0l0,0.1c0,0,0,0-0.1,0
			c0,0,0,0.1,0,0.1c0,0-0.1,0-0.1,0.1c0,0,0,0,0,0.1c0,0,0,0,0,0l-0.1,0.1c0,0-0.1,0-0.1,0c0,0,0,0.1,0,0.1c0,0-0.1,0-0.1,0
			c0,0,0,0,0,0c0,0-0.1,0.1-0.1,0.1c0,0,0,0,0,0.1c0,0-0.1,0-0.1,0l0,0.1c-0.1,0-0.1,0.1-0.2,0.1l0,0.1c-0.1,0-0.1,0-0.2,0.1
			l-0.1,0.1c-0.2,0.1-0.3,0.1-0.4,0.2l0,0.1c-0.1,0-0.1,0-0.2,0.1c-4.7,1.4-8.1-3.4-6.1-7c0.8-1.4,1.9-1.8,2.5-2
			c0.1-0.1,0.3-0.1,0.4-0.1c0,0,0,0,0,0.1c0.1,0,0.2-0.1,0.3-0.1l0.2,0c0.1,0,0.1,0,0.2-0.1l0.2,0c0,0,0.1,0,0.1,0l0.1,0
			c0,0,0.1,0,0.1,0l0.1,0.1c0,0,0,0,0.1,0l0.1,0.1c0,0,0.1,0,0.1,0l0.1,0c0,0,0,0,0.1,0c0,0,0,0,0,0.1c0,0,0.1,0,0.1-0.1l0.2,0
			l0.2,0.1c0,0,0.1,0,0.1,0l0.1,0l0.1,0l0.1,0.1c0,0,0.1,0,0.1-0.1c0,0,0,0.1,0,0.1c0,0,0,0,0.1,0c0,0,0,0,0,0c0,0,0.1,0,0.1,0
			l0.1,0.1l0.1,0.1c0,0,0.1,0,0.1,0c0,0.1,0,0.1,0.1,0.1c0,0,0,0,0,0l0.1,0.1c0,0,0,0,0,0.1c0,0,0,0,0.1,0c0,0,0,0.1,0,0.1l0.1,0.1
			c0,0,0,0,0.1,0c0,0,0,0,0,0l0.2,0.1c0,0,0,0,0,0.1c0,0,0.1,0,0.1,0c0,0,0,0,0.1,0.1c4.1,2.7,5.6-0.2,6.2-2.2
			c0.5-1.9,1.3-2.8,3.1-3.6C95.2,96.4,97.6,98.4,98.1,100.9"/>
		<path fill="#E24301" d="M89.4,118.4c0.9,3.3-3,6.3-6.6,4.1c-1-0.6-1.4-1.4-1.4-1.4c-2.2-4.3-6.3-5.4-8-5.6c-3.2-0.5-6.7,1.5-9.7-1
			c-2-1.7-3-6,1-7.4c3.3-0.9,5.7,1.3,6.5,2.9c2.7,5.7,8.5,7.2,12.7,5.7c0,0,0,0,0,0.1C86.4,114.9,88.8,116.1,89.4,118.4"/>
		<path fill="#FF893D" d="M96.8,55.2c0.6,1.6,0.4,2.9,0.2,3.6c-0.5,1.9-1.7,2.5-2.3,2.8c-1.2,0.6-3.7,1.8-5,5.5
			c-1.5,4.2,0,8.2,0.1,8.4c0.5,1.1,0.8,2.4,0.2,4.4c-0.1,0.2-0.1,0.4-0.2,0.5c-1.2,2.6-4,3.2-6,2.4c-4.1-1.7-5.2-8.2-0.7-10.4
			c0,0,0-0.1,0-0.1c4.6-1.7,7.9-7.3,4.9-14.2c-0.7-1.7-0.8-5,2.1-6.4C92.9,50.6,95.8,52.6,96.8,55.2"/>
		<path fill="#003056" d="M61.9,42.2c1.1,4-2.5,6.7-5.4,5.2c-1.6-0.9-2.1-2.5-2.2-2.8c-0.2-1-0.9-3.5-3-5.4
			c-2.5-2.3-4.5-1.8-5.5-1.5c-0.4,0.1-1.2,0.3-2-0.4c-0.1-0.1-0.4-0.3-0.7-0.8c-1.1-1.8-0.3-6.1,2.3-7.2c2.1-0.5,2.9,2,3,2.9
			c0.8,6.2,5.3,7.4,8.4,6.4c0,0,0,0,0.1,0.1C59.1,38.1,61.2,39.6,61.9,42.2"/>
		<path fill="#003056" d="M102.1,24.5c2.6,2.6,1.9,4.9-0.6,5c-0.6,0-2.7-0.1-4.9-2.3c-5.8-5.6-11.5-4.5-11.6-4.5
			c-6.1,1.4-2.9,7.4-0.9,10.9c1.7,3.3-0.7,6.2-4.2,5c-3.6-1.2-5-5.6-3.2-7.5c0.7-0.7,1.8-0.9,2.5-1.7c0.8-0.8,0.9-1.5,1.1-2.2
			c0.1-0.8,0.3-2.9-1.8-5.3c-2.2-2.5-3.2-3.8-1.5-4.7c0.8-0.4,2.7-0.6,5.8,1.6c0.1,0,0.1,0.1,0.2,0.1c7,5,11.2,3.7,12.4,3.2
			C97.2,21.4,100.3,22.8,102.1,24.5"/>
		<path fill="#003056" d="M75.3,22.8c1,1.3,0.9,2.3,0.9,2.7c-0.1,1-1,1.4-1.3,1.6c-0.7,0.3-2.9,1.4-3.2,4.7
			c-0.3,2.9,1.1,5.5,1.1,5.6c0.4,0.7,1,1.8,0.6,3.5c-0.8,2.8-3.5,2.7-3.8,2.7c-4-0.3-5.7-5.8-3.3-8.1c0.3-0.3,0.6-0.4,0.9-0.6
			c0,0,0,0,0-0.1c3-1.1,5.7-5,2.1-10.2c-0.5-0.8-1.6-3.1,0.4-4.1C71.4,19.9,74,21.2,75.3,22.8"/>
		<path fill="#003056" d="M66.6,26.4c1.6,3-0.9,5.5-3.5,4.5c-1.3-0.5-2.1-1.9-3.7-1.7c-0.9,0.1-1,0.3-1.8,2.5c0,0,0,0,0,0l0,0.2
			c0,0,0,0-0.1,0l0,0.2c0,0,0,0-0.1,0l-0.1,0.2l0,0.1c0,0,0,0,0,0.1c0,0,0,0-0.1,0c0,0,0,0,0,0.1l0,0.1c0,0,0,0,0,0.1c0,0,0,0,0,0
			l0,0.1l0,0.1l0,0.1c0,0,0,0-0.1,0c0,0,0,0,0,0.1c0,0-0.1,0-0.1,0c0,0,0,0,0,0.1c0,0,0,0,0,0l0,0.1l0,0.1c0,0,0,0-0.1,0l0,0.1
			c0,0,0,0-0.1,0c0,0,0,0,0,0.1c0,0-0.1,0-0.1,0c0,0,0,0,0,0.1c0,0,0,0-0.1,0l0,0.1c0,0-0.1,0-0.1,0c0,0,0,0,0,0c0,0-0.1,0-0.1,0
			c0,0,0,0,0,0.1c0,0-0.1,0-0.1,0c0,0,0,0,0,0.1c0,0-0.1,0-0.1,0l0,0.1c-0.1,0-0.1,0-0.2,0.1l0,0.1c-0.1,0-0.1,0-0.2,0l-0.1,0.1
			c-0.1,0-0.2,0.1-0.3,0.1l0,0.1c0,0-0.1,0-0.1,0.1c-3.3,1-5.2-3.3-3.6-6.3c0.5-1,1.2-1.3,1.6-1.4c0.1,0,0.2-0.1,0.2-0.1
			c0,0,0,0,0,0c0.1,0,0.1,0,0.2-0.1l0.1,0c0,0,0.1,0,0.1,0l0.1,0c0,0,0.1,0,0.1,0l0.1,0c0,0,0.1,0,0.1,0l0.1,0c0,0,0,0,0,0l0.1,0
			l0,0l0.1,0c0,0,0,0,0,0c0,0,0,0,0,0c0,0,0.1,0,0.1,0l0.1,0l0.1,0.1l0,0l0.1,0l0.1,0l0.1,0c0,0,0.1,0,0.1,0c0,0,0,0,0,0.1
			c0,0,0,0,0,0c0,0,0,0,0,0.1c0,0,0,0,0,0l0.1,0l0.1,0c0,0,0,0,0,0c0,0,0,0.1,0,0.1c0,0,0,0,0,0l0.1,0c0,0,0,0,0,0.1c0,0,0,0,0,0
			c0,0,0,0,0,0.1l0.1,0c0,0,0,0,0,0c0,0,0,0,0,0.1l0.1,0.1c0,0,0,0,0,0c0,0,0,0,0,0c0,0,0,0,0,0c2.4,2,3.7,0.7,3.9-1.3
			c0.1-1.3,0.5-1.9,1.6-2.4C63.6,23.1,65.7,24.6,66.6,26.4"/>
		<path fill="#00A896" d="M53.2,8.2c1.4,0.2,1.9,0.6,1.7,0.8c-0.3,0.2-0.7,0.6,1.2,2.9c1.3,1.7,1.3,1.7,1.4,1.8c0.2,0.4,0.2,1,0,1.4
			c-0.9,1.5-4.2-0.3-3.9-3c0.1-0.5,0.3-0.6,0.4-0.7c0,0,0,0,0,0c1.2-0.4,0.9-1.8-1.1-2.7c0,0-1.4-0.6-2.4-0.7
			C51.6,8,52.3,8,53.2,8.2"/>
		<path fill="#00A896" d="M52.5,14.6c0.5,2-0.9,3.3-2,2.8c-0.3-0.2-0.6-0.5-0.8-1c0-0.1-0.1-0.2-0.1-0.2c-0.1-0.3-0.1-0.7-0.1-1
			c0-1.1-0.3-2.3-0.6-3.3c-0.2-0.6-0.4-0.7-0.7-0.6c-0.1,0-0.2,0-0.2-0.1c0-0.9,1.7-2.6,2.5-3.3c-1.4,1.6-2,4.6-0.3,4.7
			c0.1,0,0.3,0,0.4-0.1c0,0,0,0,0,0C51.5,12.5,52.2,13.5,52.5,14.6"/>
		<path fill="#00A896" d="M68.5,7.6C70.7,8,71.7,8.7,71.3,9c-0.1,0.1-1,0.7-5.2-0.3c-4.4-1-8.9-0.9-9.4-0.5c0,0.3,1.3,1.2,3.8,2.6
			c3.2,1.8,1.6,2.6,1.5,2.6c-0.7,0.3-2.4,0.1-4.1-1.4c-0.2-0.2-1.6-1.5-0.8-1.9c0.8-0.4,0.2-1-0.5-1.3C55.3,8,52.2,7.8,50.5,8
			c1.7-0.2,2.3-0.2,3.4-0.3c0.1,0,0.1,0,0.2,0c2.5,0,5,0.2,7.6,0c0.9-0.1,1.8-0.4,2.7-0.4C64.9,7.3,66.5,7.3,68.5,7.6"/>
		<path fill="#00A896" d="M52,8.7c1,0.6,1,1.2,0.6,1.2c-0.4,0.1-0.8-0.3-1-0.4c-0.1-0.1-0.3-0.3-0.5-0.4C51,9,51,9.1,51,9.1
			c-0.1,0.2,0,0.4-0.1,0.6l0,0v0c0,0,0,0,0,0l0,0.1l0,0l0,0.1l0,0c0,0,0,0,0,0c0,0,0,0,0,0c0,0,0,0,0,0v0l0,0h0l0,0l0,0l0,0l0,0l0,0
			c0,0,0,0,0,0s0,0,0,0l0,0v0l0,0l0,0l0,0h0c0,0,0,0,0,0c0,0,0,0,0,0v0l0,0l0,0c0,0,0,0,0,0l0,0c0,0,0,0,0,0v0c0,0,0,0,0,0l0,0l0,0
			l0,0c0,0,0,0,0,0l0,0c0,0,0,0,0,0l0,0c0,0-0.1,0-0.1,0l0,0c0,0,0,0,0,0c-0.5,0.1-0.5-0.7-0.5-0.7c0-0.3,0.1-0.6,0.1-0.7
			c0.1-0.4,0.3-0.8,0.5-1.3v0l0,0v0l0,0v0l0,0v0l0,0v0l0,0v0l0,0l0,0v0v0l0,0h0c0,0,0,0,0,0v0l0,0l0,0v0l0,0l0,0c0,0,0,0,0,0v0l0,0
			l0,0l0,0v0l0,0l0,0l0,0l0,0l0,0l0,0c0,0,0,0,0,0c0.2,0.5,0.3,0.4,0.3,0.4C51,8.6,50.8,8.2,50.5,8C51,8.2,51.6,8.4,52,8.7"/>
		<path fill="#E24301" d="M37.5,131.6c1.6,1.3,2.4,2.2,2.2,2.6c-2.4,0.4-15.9-10.7-16-10.8c-1.8-1.5-6.5-7.2-6.7-8.2
			c0,0,0.1,0,0.1,0c0.9,0.6,3.7,4,3.7,4.1c6.5,7.9,10.2,8.6,10.6,8.7c0.1,0,0.1,0,0.1,0.1C32.8,128.2,35.5,129.9,37.5,131.6"/>
		<path fill="#E24301" d="M34.4,119.9c1.5,2.2,1.6,4.4-0.7,3.9c-2.2-0.4-3.5-2.7-5.7-3.2c-0.8-0.2-0.8-0.2-0.2,1.8c0,0,0,0,0.1,0.1
			l0.1,0.1c0,0,0,0,0,0l0.1,0.2h0l0,0.1l0,0.1c0,0,0,0,0,0s0,0,0,0c0,0,0,0,0.1,0.1l0,0c0,0,0,0,0.1,0.1c0,0,0,0,0,0l0,0.1l0,0.1
			l0,0.1h0c0,0,0,0,0.1,0.1c0,0,0,0,0,0c0,0,0,0,0,0.1c0,0,0,0,0,0l0,0.1l0,0.1h0l0,0.1c0,0,0,0,0,0c0,0,0,0,0.1,0.1c0,0,0,0,0,0
			c0,0,0,0,0,0.1c0,0,0,0,0,0l0,0c0,0,0,0-0.1,0c0,0,0,0,0.1,0.1c0,0,0,0-0.1,0c0,0,0,0,0.1,0.1c0,0,0,0-0.1,0c0,0,0,0,0,0.1
			c0,0,0,0-0.1,0l0,0.1c0,0-0.1,0-0.1,0l0,0.1c0,0-0.1,0-0.1,0l0,0.1c-0.1,0-0.1,0-0.2,0l0,0.1c0,0-0.1,0-0.1,0
			c-3.1-0.4-8.1-7.5-6.9-8.2c0.1,0,0.2-0.1,0.3-0.1c0.1,0,0.1,0,0.2,0c0,0,0,0,0,0c0.1,0,0.1,0,0.2,0l0.1,0.1c0,0,0.1,0,0.1,0
			l0.1,0.1c0,0,0,0,0.1,0l0.1,0.1c0,0,0,0,0,0l0.1,0.1h0l0.1,0.1c0,0,0,0,0,0l0.1,0.1h0c0,0,0,0,0,0.1c0,0,0,0,0,0l0.1,0.1l0.1,0.1
			h0l0.1,0.1l0.1,0.1l0.1,0.1c0,0,0,0,0.1,0c0,0,0,0,0.1,0.1c0,0,0,0,0,0c0,0,0,0,0.1,0.1c0,0,0,0,0,0l0.1,0.1l0.1,0.1h0
			c0,0,0.1,0.1,0.1,0.1h0l0.1,0.1c0,0,0,0,0,0c0,0,0,0,0,0c0,0,0,0,0.1,0.1l0.1,0.1c0,0,0,0,0,0c0,0,0,0,0,0.1l0.2,0.1
			c0,0,0,0,0,0.1c0,0,0,0,0,0c0,0,0,0,0,0.1c3,2.7,3.4,1.8,3.4,1.1c0-0.8-0.6-1.6-0.4-2.4c0.2-0.7,0.7-0.9,1.1-0.9
			C30.2,115.5,32.9,117.7,34.4,119.9"/>
		<path fill="#E24301" d="M44.8,117.9c0.4,0.7,0.6,1.4,0.7,2c0.1,1.9-1.2,2.3-1.7,2.4c-2.2,0.6-3.2,1.8-2.8,3.6
			c0.2,1,0.9,2.7,3.3,4.8c0.4,0.4,1.7,1.6,1.7,2.7c0,0.4-0.6,0.8-2.2,0.3c-3.7-1.1-7.9-5-6.4-5.9c0.1-0.1,0.3-0.1,0.4-0.1
			c0,0,0,0-0.1-0.1c3.7-0.7,2-5.2-0.6-8.8c-0.9-1.3-1.8-4.1,0.9-4.8C40.7,113.5,43.5,115.7,44.8,117.9"/>
		<path fill="#E24301" d="M75.9,122.9c1.3,2.8-1.5,5.5-5.5,3.9c-1.4-0.5-2.1-1.4-2.4-1.8c-3.9-5.3-9.9-5.7-10.5-5.7
			c-3.7-0.1-7.9,2.2-5.9,6.8c0.5,1.2,1.2,1.9,1.9,2.6c0.5,0.6,1.4,1.7,1.1,2.8c-0.3,0.8-1.9,1.4-4.8,0.2c-3.6-1.5-5.6-4.7-3.6-5.7
			c3.3-1.6,3.3-1.6,3.6-2.7c0.4-1.2,0.5-3.1-0.9-5.9c-1.3-2.5-2.7-5.3,1.1-6.5c1.7-0.4,4.3-0.1,6.5,3.3c0,0.1,0.1,0.1,0.1,0.2
			c3.7,5.5,9.1,6.5,12.9,5.5C72.7,119.3,75.2,121.3,75.9,122.9"/>
		<path fill="#FF893D" d="M59.9,86.9c1.2,4.6-2.7,7.9-6.6,5.7c-1.6-0.9-2.3-2.2-2.7-3.2c-3.2-8.8-10-8.8-10.3-8.8
			c-5.4,0.1-8.9,5.9-7.2,12.3c2.4,9.2-4.1,6.6-4.2,6.5c-3.9-2.2-4.8-9-1.4-10.2c6.1-2.1,6.5-7.9,5.9-12.5c-0.7-4.7,1.7-6.2,3.2-6.7
			c1.7-0.4,3.9,0.1,5,4.3c0,0.1,0,0.2,0.1,0.2c2.2,7.4,7.7,8.9,11.7,7.9C56.8,81.6,59.2,84.6,59.9,86.9"/>
		<path fill="#FF893D" d="M132,33.1c1.4,1.9,2.2,3.5,2.5,4.3c0.6,1.5,0.4,3.2,0.9,4.8c1,3.1,2.5,6.1,3.5,9.2
			c0.1,0.2,0.1,0.4,0.2,0.5c0.7,2.4,0.8,4.9-0.4,4.7c-1.8-0.2-5.4-8.3-3.9-10.4c0,0,0-0.1,0-0.1c1.5-1.8-0.1-6.7-3.9-12
			c-1.3-1.8-2.8-4.3-2.7-5c0,0,0.1-0.1,0.1-0.1C129.3,29.5,131.5,32.5,132,33.1"/>
		<path fill="#FF893D" d="M83.8,60.6c1.4,4.3-2.4,8.1-6.3,6.2c-1-0.5-1.7-1.3-2.7-1.7c-0.6-0.3-1.3-0.4-1.8-0.2
			c-1.4,0.3-1.5,0.5-2.7,3.5c0,0,0,0.1,0,0.1l0,0.2c0,0,0,0-0.1,0l0,0.3c0,0,0,0-0.1,0L70.1,69l0,0.1c0,0,0,0.1,0,0.1c0,0,0,0-0.1,0
			c0,0,0,0.1,0,0.1l0,0.1c0,0,0,0.1,0,0.1c0,0,0,0-0.1,0l0,0.1l0,0.1l0,0.1c0,0,0,0-0.1,0c0,0,0,0.1,0,0.1c0,0-0.1,0-0.1,0.1
			c0,0,0,0,0,0.1c0,0-0.1,0-0.1,0l0,0.1l0,0.1c0,0,0,0-0.1,0l0,0.1c0,0-0.1,0-0.1,0c0,0,0,0.1,0,0.1c0,0-0.1,0-0.1,0c0,0,0,0,0,0.1
			c0,0-0.1,0-0.1,0l0,0.1c0,0-0.1,0-0.1,0c0,0,0,0.1,0,0.1c-0.1,0-0.1,0-0.1,0c0,0,0,0.1,0,0.1c-0.1,0-0.1,0-0.1,0.1c0,0,0,0,0,0
			c0,0-0.1,0.1-0.1,0.1l0,0.1c-0.1,0-0.1,0-0.2,0.1l0,0.1c-0.1,0-0.1,0-0.2,0.1L68,71.7c-0.2,0.1-0.3,0.1-0.5,0.2l0,0.1
			c-0.1,0-0.1,0.1-0.2,0.1c-4.9,1.4-8.1-4.3-5.9-8.3c0.8-1.4,1.9-1.9,2.5-2.1c0.1-0.1,0.3-0.1,0.4-0.1c0,0,0,0,0,0
			c0.1,0,0.2-0.1,0.3-0.1l0.2,0c0.1,0,0.1,0,0.2-0.1l0.2,0c0,0,0.1,0,0.1,0l0.1,0c0,0,0.1,0,0.1,0l0.1,0.1c0,0,0,0,0.1,0l0.1,0.1
			c0,0,0,0,0.1,0l0.1,0c0,0,0,0,0.1,0c0,0,0,0.1,0,0.1c0,0,0.1,0,0.1,0l0.2,0l0.2,0.1c0,0,0,0,0.1,0l0.1,0.1l0.1,0.1l0.1,0.1
			c0,0,0.1,0,0.1,0c0,0,0,0.1,0,0.1c0,0,0,0,0,0c0,0,0,0,0,0.1c0,0,0,0,0.1,0l0.1,0.1l0.1,0.1c0,0,0,0,0.1,0c0,0,0,0.1,0.1,0.1
			c0,0,0,0,0.1,0l0.1,0.1c0,0,0,0,0,0.1c0,0,0,0,0,0c0,0,0,0,0.1,0.1l0.1,0.1c0,0,0,0,0.1,0c0,0,0,0,0,0.1l0.2,0.1c0,0,0,0.1,0,0.1
			c0,0,0,0,0.1,0c0,0,0,0.1,0,0.1c4.6,3.4,5.8-0.8,6.1-2.1c0.4-2,1.1-2.9,2.8-3.6C80.2,55.8,82.9,58,83.8,60.6"/>
		<path fill="#FF893D" d="M126.4,59.3c1.4,4.2-0.9,8-4,6.6c-0.8-0.4-2-1.2-2.8-3.2c-2.5-5.8-6.5-7-8.1-7.3c-4.4-0.7-8.2,2.6-8.9,7.5
			c-0.5,3.5,0.4,6.1,0.9,7.4c0.4,1.2,0.5,3.1-0.2,4.7c-1.5,2.9-4.9,3.5-7.3,1.1c-0.3-0.2-2.5-2.5-1.7-6.1c0.5-2.3,2.2-3.2,2.7-3.4
			c1.4-0.7,3.6-1.8,4.7-5.5c1-3.4,0.1-6.2-0.8-8c-0.9-1.7-1.2-2.9-0.6-4.6c0.1-0.3,0.6-1.5,1.9-2.2c1.6-0.7,4-0.7,6.4,3
			c0,0.1,0.1,0.1,0.1,0.2c4.2,6.6,9,7.4,12.1,5.9C123.3,54.2,125.6,57,126.4,59.3"/>
		<path fill="#FF893D" d="M75.9,81.5c1.3,4.6-3.1,8.3-7,5.9c-1.8-1.1-2.4-2.7-2.5-2.9c-1.8-4.9-5-7-7.4-7.8
			c-2.5-0.9-4.3-0.4-5.5-0.1c-1.8,0.5-3.4-0.1-4.7-1.6c-2-2.4-2-7.5,1.9-9c3.6-0.9,5.4,2.3,5.8,3.5c2.2,7.2,8.3,9.3,12.9,7.7
			c0,0,0,0,0.1,0.1C72.2,76.6,75,78.4,75.9,81.5"/>
		<path fill="#FF893D" d="M18.7,80c0.3,4.3-1.9,6.4-3.7,4.8c-0.6-0.5-0.9-1.2-1.2-1.9c-0.6-1.2-1-1.9-1.6-2.2
			c-0.2-0.1-0.6-0.1-1,0.6c-0.3,0.6-0.3,1.2-0.5,1.8c0,0,0,0.1,0,0.1l0,0.2h0v0.2h0l0,0.2l0,0.1c0,0,0,0.1,0,0.1c0,0,0,0,0,0
			c0,0,0,0.1,0,0.1l0,0.1c0,0,0,0.1,0,0.1c0,0,0,0,0,0l0,0.1l0,0.1l0,0.1c0,0,0,0,0,0c0,0,0,0.1,0,0.1c0,0,0,0,0,0c0,0,0,0.1,0,0.1
			l0,0l0,0.1l0,0.1c0,0,0,0,0,0l0,0.1h0c0,0,0,0.1,0,0.1c0,0,0,0-0.1,0c0,0,0,0.1,0,0.1c0,0,0,0,0,0l0,0.1c0,0,0,0-0.1,0
			c0,0,0,0.1,0,0.1c0,0,0,0-0.1,0c0,0,0,0.1,0,0.1c0,0,0,0-0.1,0c0,0,0,0.1,0,0.1c0,0,0,0-0.1,0l0,0.1c0,0-0.1,0-0.1,0l0,0.1
			c0,0-0.1,0-0.1,0l0,0.1c-0.1,0-0.1,0-0.2,0l0,0.1c0,0-0.1,0-0.1,0C6.9,85.3,6.3,76.5,8,75c0.2-0.2,0.4-0.2,0.5-0.2
			c0.1,0,0.1,0,0.2,0c0,0,0,0,0,0.1c0,0,0.1,0,0.1,0l0.1,0.1c0,0,0.1,0,0.1,0L9.1,75c0,0,0,0,0,0l0.1,0.1c0,0,0,0,0.1,0l0,0.1h0
			l0,0.1h0l0,0.1h0c0,0,0,0.1,0,0.1c0,0,0,0,0.1,0l0.1,0.1l0.1,0.2h0l0,0.1l0,0.1l0,0.1c0,0,0,0,0,0c0,0,0,0.1,0,0.1c0,0,0,0,0,0
			c0,0,0,0.1,0,0.1c0,0,0,0,0,0l0,0.1l0,0.1c0,0,0,0,0,0c0,0.1,0,0.1,0,0.2c0,0,0,0,0,0l0,0.1c0,0,0,0.1,0,0.1h0c0,0,0,0.1,0,0.1
			l0,0.1c0,0,0,0,0,0c0,0,0,0.1,0,0.1l0.1,0.2c0,0,0,0.1,0,0.1h0c0,0,0,0.1,0,0.1c1.3,3.7,2.2,2.2,2.6,1.4c0.4-1,0.5-2.1,1.1-3.1
			c0.6-0.9,1.1-1,1.5-1.1C17.3,74.3,18.5,77.3,18.7,80"/>
		<path fill="#FF893D" d="M14.1,97.2c0.8,2.8,0.7,5.3-0.8,4.6c-0.8-0.4-1.7-1.8-2.3-3c-0.1-0.2-0.2-0.3-0.2-0.5
			c-1.4-3.2-2.2-6.6-3.5-9.8c-1.1-2.5-1.6-3.3-1.9-3.5c-0.3-0.3-0.4-0.3-0.6-1C3.9,81.3,3.6,74.6,4.5,74c0,0,0.1,0,0.1,0
			c0.7,0.8,1.1,4.4,1.1,5.5c0.5,6.5,2.4,11.3,4.7,11.7c0.1,0,0.1,0.1,0.1,0.1C11.7,91.6,13.3,94.1,14.1,97.2"/>
		<path fill="#FF893D" d="M29.4,78c0.2,1.6-0.1,2.5-0.3,3.1c-0.4,1.4-1.3,2.3-2.5,2.6c-0.9,0.2-3.7,1-4.7,4.9
			c-0.4,1.5-0.7,4.1,0.5,7.5c0.5,1.5,0.5,3.3,0.1,4.3c-0.7,1.7-2.2,1.3-3.2,0.5c-3-2.4-4.5-9.2-1.6-10c0,0,0-0.1,0-0.1
			c4-0.8,5.1-6.7,4.4-12.2c-0.2-1.6,0.3-5.1,3-5.8C27.4,72.5,29.1,75.2,29.4,78"/>
		<path fill="#003056" d="M23.4,39.3c-1.6,3.8-3.9,5.5-4.4,4.1c-0.2-0.5-0.1-1.1,0-1.7c0.2-0.9,0.2-1.7-0.1-1.9
			c-0.3-0.2-0.3-0.2-2.1,2.1c0,0,0,0.1,0,0.1l-0.1,0.1h0l-0.1,0.2c0,0,0,0,0,0l-0.1,0.2l-0.1,0.1c0,0,0,0.1,0,0.1h0c0,0,0,0.1,0,0.1
			l-0.1,0.1c0,0,0,0,0,0.1c0,0,0,0,0,0l-0.1,0.1L16.2,43l-0.1,0.1c0,0,0,0,0,0c0,0,0,0.1,0,0.1c0,0,0,0,0,0c0,0,0,0,0,0.1h0L16,43.3
			l-0.1,0.1c0,0,0,0,0,0l-0.1,0.1c0,0,0,0,0,0c0,0,0,0,0,0.1c0,0,0,0,0,0c0,0,0,0.1,0,0.1h0l-0.1,0.1c0,0,0,0,0,0c0,0,0,0,0,0.1h0
			c0,0,0,0,0,0c0,0,0,0-0.1,0c0,0,0,0.1,0,0.1c0,0,0,0,0,0l-0.1,0.1c0,0,0,0-0.1,0L15.2,44c0,0,0,0-0.1,0l-0.1,0.1c0,0-0.1,0-0.1,0
			l-0.1,0.1c0,0,0,0,0,0c-1.7-0.4,2.4-7.9,4.5-9.2c0.2-0.1,0.3-0.2,0.4-0.2c0,0,0.1,0,0.1,0c0,0,0,0,0,0.1c0,0,0.1,0,0.1,0l0,0.1
			c0,0,0,0,0.1,0l0,0.1c0,0,0,0,0,0l0,0.1h0l0,0.1h0l0,0.1h0l0,0.1c0,0,0,0,0,0c0,0,0,0,0,0.1h0v0.1l0,0.1h0l0,0.1l0,0.1l0,0.1
			c0,0,0,0,0,0c0,0,0,0,0,0.1c0,0,0,0,0,0c0,0,0,0,0,0.1c0,0,0,0,0,0l0,0.1l0,0.1h0c0,0-0.1,0.1-0.1,0.1h0l0,0.1c0,0,0,0,0,0.1
			c0,0,0,0,0,0c0,0,0,0.1,0,0.1l0,0.1c0,0,0,0,0,0c0,0,0,0,0,0.1l0,0.1c0,0,0,0,0,0.1c0,0,0,0,0,0c0,0,0,0,0,0.1
			c-0.5,1.5-0.5,2.2,0,2c0.3-0.1,1-0.8,1.9-2c1.1-1.5,1.7-2,2.4-2.2C25.1,34.5,24.3,37.4,23.4,39.3"/>
		<path fill="#003056" d="M12.8,54.7c-0.9,3.3-2.4,5.4-3.1,4.4c-0.4-0.6-0.3-2-0.2-2.7c0-0.3,0.1-0.7,0.2-1c0.6-3.2,1.7-6.2,2.3-9.3
			c0.2-1.1-0.3-2.3,0.1-3.4c0.8-2.7,4.3-8.2,5.3-8.3c0.1,0.1,0.2,0.5-2,4.5c-3.3,5.9-3.8,9.9-2.4,10.2c0,0,0,0.1,0,0.1
			C13.8,49.4,13.5,52.1,12.8,54.7"/>
		<path fill="#003056" d="M49.2,46.5c0.4,4-3.2,7-5.9,4.9c-1-0.8-1.4-2.1-1.5-2.9c-0.5-5-2.6-7-4.3-7.7c-1.9-0.9-5.2,0.7-7.4,4.8
			c-1.6,3-1.9,5.3-2,6.5c-0.2,1.4-0.8,3-1.5,4c-1.6,2.1-3.7,2-4.4-0.3c-0.4-1.3-0.2-4,1.1-6c1.5-2.5,4.7-2.9,6.5-5.2
			c1.6-2.1,2.8-4.7,3.4-7.5c0.2-0.8,0.5-2.1,1.5-3.5c0.3-0.4,1.1-1.4,2.2-1.7c1.4-0.3,2,0.9,1.9,3.6c0,0.1,0,0.1,0,0.2
			c-0.3,5.9,2.9,7.7,6.2,6.9C47.5,41.9,49,44.5,49.2,46.5"/>
		<path fill="#003056" d="M30.5,37.9c-0.3,1-0.7,1.8-1.2,2.6c-1.2,1.8-2.1,2-2.4,2.2c-0.7,0.2-2.7,0.7-4.8,4.2
			c-1.3,2.1-2.2,4.4-2.6,6.9c-0.2,1.1-0.8,2.8-1.7,4.1c-1,1.3-2.1,1.5-2.7,0.4c-1.3-2.5,0.8-8.8,3.2-9.4c0,0,0-0.1,0-0.1
			c2.6-0.5,5.6-4.6,7.7-10.6c0.5-1.2,2-4.2,3.8-4.7C31.2,33.4,31.2,35.7,30.5,37.9"/>
		<path fill="#00A896" d="M47.2,10.2c-2.1,1.6-4.5,2.9-6.6,4.6c-1.4,1.1-3,2.4-4.8,4.4c-1,1.1-3.3,3.5-4.1,3.5
			c-0.8-0.9,5.4-6.4,6.8-6.8c0,0,0,0,0.1,0c0.7-0.2,1.6-0.9,4.3-2.9c3.6-2.7,5-3.5,7.6-4.9C49.8,8.4,48.8,9,47.2,10.2"/>
		<path fill="#00A896" d="M47.5,16.3c-0.5,2.6-2.2,3.7-2.9,2.9c-0.5-0.7-0.1-1.9,0.3-2.8c1.9-5.1,1.9-5.6-1.5-2.5
			c-2.3,2-3.5,3.7-4.1,4.5c-1,1.3-1.8,2.3-2.5,2.9c-1.2,1.1-2,1-1.1-0.6c0,0,1-1.9,3.8-4.3c0.2-0.1,0.4-0.3,0.5-0.4
			c0.9-0.7,2-1.1,2.8-1.7c1.9-1.5,3.7-3.3,5.6-4.8c0.7-0.5,1.4-1,2.1-1.5c-0.8,0.6-1.5,1.2-2,1.7c0,0-0.1,0.1-0.1,0.1
			c-3,3.1-2.2,4.1-1.7,4C47,13.8,48,13.7,47.5,16.3"/>
		<path fill="#00A896" d="M46.3,10.4c-3.9,2.4-3.9,2.4-3.9,2.4c0-0.1,0-0.1,0.8-0.7c0.8-0.6,1.7-1.1,2.5-1.6
			c-0.3,0.1-0.5,0.2-2.1,1.1c0,0,0,0-0.1,0l-0.1,0.1h0l-0.2,0.1h0L43,11.9l-0.1,0c0,0,0,0-0.1,0h0c0,0,0,0-0.1,0l-0.1,0
			c0,0-0.1,0-0.1,0l0,0l-0.1,0.1l-0.1,0l-0.1,0h0c0,0,0,0-0.1,0h0c0,0,0,0-0.1,0l0,0l-0.1,0l-0.1,0h0l-0.1,0h0c0,0,0,0-0.1,0
			c0,0,0,0,0,0c0,0,0,0-0.1,0l0,0l-0.1,0c0,0,0,0,0,0c0,0,0,0-0.1,0h0c0,0,0,0-0.1,0h0c0,0,0,0-0.1,0h0l-0.1,0h0l-0.1,0h0l-0.1,0
			c0,0,0,0,0,0l-0.1,0l0,0c0-0.1,2.6-2.1,9.3-4.9l0,0l0,0l-0.1,0l0,0l-0.1,0l0,0l-0.1,0l0,0c0,0-0.1,0-0.1,0l0,0l-0.1,0L50,8.2l0,0
			l-0.1,0l-0.1,0l-0.1,0l0,0c0,0,0,0,0,0l0,0c0,0,0,0-0.1,0l0,0l-0.1,0l-0.1,0l0,0c0,0-0.1,0-0.1,0.1l0,0l-0.1,0c0,0,0,0-0.1,0l0,0
			c0,0,0,0-0.1,0l-0.1,0h0c0,0,0,0-0.1,0l-0.1,0.1c0,0,0,0-0.1,0l0,0c0,0-0.1,0-0.1,0c-0.4,0.2-1.5,0.7-2,1C48,9.4,49.2,8.6,50.5,8
			C49.2,8.6,47.8,9.4,46.3,10.4"/>
		<path fill="#00A896" d="M33,19.6c-3.3,3-3.8,3.2-4.1,3.2c0-1.5,8.9-8.2,11.7-10.2c0.1-0.1,3-2,9.8-4.6c-6.6,2.6-12.5,6.3-13.7,7.7
			c0,0,0,0.1,0,0.1c0,0,0,0-0.1,0.1C36.7,16.2,36.7,16.2,33,19.6"/>
	</g>
</g>
</svg>
