<?xml version="1.0" encoding="utf-8"?>
<!-- Generator: Adobe Illustrator 18.1.0, SVG Export Plug-In . SVG Version: 6.00 Build 0)  -->
<svg version="1.0" id="Layer_1" xmlns="http://www.w3.org/2000/svg" xmlns:xlink="http://www.w3.org/1999/xlink" x="0px" y="0px"
	 viewBox="0 0 150 150" enable-background="new 0 0 150 150" xml:space="preserve">
<g>
	<path fill="#1B75BB" d="M90.4,129.3l-1.3-0.2c-4.2-0.8-8.5-1.3-12.9-1.3c-4.6,0-8.9,0.5-13.1,1.3l-0.1,0l-2.3,0.5
		c-3.9,0.8-7.5,2.2-10.9,3.7c8,4.1,16.9,6.6,26.5,6.6c9.6,0,18.5-2.5,26.5-6.6c-3.4-1.4-6.9-2.8-10.8-3.7L90.4,129.3z"/>
	<path fill="#1B75BB" d="M125.7,112.4c5.7-9,9.1-19.6,9.1-31.1c0-32.4-26.2-58.6-58.6-58.6c-32.4,0-58.6,26.2-58.6,58.6
		c0,11.6,3.5,22.3,9.3,31.4V85.9c0-5,3-9.2,7.2-11.1c-1.5-2.3-2.7-4.9-2.7-7.9c0-8,6.4-14.4,14.3-14.4c7.5,0,13.5,5.8,14.1,13.2
		c1.2-1.7,2.8-3.1,4.7-4c-1.6-2.3-2.8-5-2.8-8.1c0-7.9,6.4-14.3,14.3-14.3c7.9,0,14.4,6.4,14.4,14.3c0,3.1-1.2,5.7-2.8,8.1
		c2.1,0.9,3.8,2.5,5.1,4.5c0.4-7.6,6.5-13.7,14.1-13.7c7.9,0,14.4,6.4,14.4,14.4c0,3-1.1,5.6-2.7,7.9c4.2,1.9,7.2,6.1,7.2,11V112.4z
		"/>
	<path fill="#1B75BB" d="M62.2,72.8v51.4c4.5-0.8,9.2-1.4,14-1.4c4.8,0,9.3,0.5,13.7,1.3V72.8c0-4-3.2-7.2-7.2-7.2H69.4
		C65.4,65.6,62.2,68.8,62.2,72.8z"/>
	<path fill="#1B75BB" d="M76.1,63c5.2,0,9.4-4.2,9.4-9.4c0-5.2-4.2-9.4-9.4-9.4c-5.2,0-9.3,4.2-9.3,9.4C66.7,58.8,70.9,63,76.1,63z"
		/>
	<path fill="#F16947" d="M31.9,85.8v52.3c7.1-6.2,16.6-10.9,27.7-13.3v-39c0-4-3.2-7.2-7.2-7.2H39C35.1,78.6,31.9,81.9,31.9,85.8z"
		/>
	<path fill="#F16947" d="M113.5,78.6h-13.3c-4,0-7.2,3.2-7.2,7.2v39c11.1,2.5,20.7,7.1,27.7,13.4V85.8
		C120.7,81.9,117.4,78.6,113.5,78.6z"/>
	<path fill="#F16947" d="M45.7,76.2c5.2,0,9.4-4.2,9.4-9.4c0-5.2-4.2-9.3-9.4-9.3c-5.2,0-9.4,4.2-9.4,9.3
		C36.4,72,40.6,76.2,45.7,76.2z"/>
	<path fill="#F16947" d="M106.8,76.2c5.2,0,9.4-4.2,9.4-9.4c0-5.2-4.2-9.3-9.4-9.3c-5.2,0-9.4,4.2-9.4,9.3
		C97.4,72,101.7,76.2,106.8,76.2z"/>
	<path fill="#F16947" d="M141,71.3c-1.2-7.7-3.9-15.2-7.8-22.1c-3.9-6.8-9.1-12.9-15.1-17.9c-6.1-5-13-8.9-20.5-11.5
		c-7.5-2.5-15.4-3.7-23.3-3.5c-7.9,0.2-15.8,1.9-23.1,4.9c-14.6,5.9-27,17.5-34.1,31.8c-3.5,7.1-5.8,14.9-6.6,22.8
		c-0.8,8-0.1,16,1.9,23.7c2.9,8.4,7.8,15.8,13.6,22.2c-1.6-2-3.3-4.4-5.2-7.6c-2.7-4.7-5.4-10.8-7-18.1c-1.6-7.4-2.2-16-0.6-25.2
		c1.6-9.1,5.4-18.7,11.8-27.3c6.4-8.5,15.3-15.9,26-20.5c5.3-2.3,11.1-4,17-4.7c5.9-0.8,12.1-0.7,18.1,0.2c6,0.9,12,2.7,17.6,5.3
		c5.6,2.6,10.9,6.1,15.5,10.2c4.7,4.2,8.7,9,12,14.3c3.3,5.3,5.8,11,7.3,17c1.6,5.9,2.3,12.1,2.2,18.1c-0.1,6-1.1,12-2.8,17.6
		c-1.7,5.7-4.2,10.9-7.3,15.7c-1.7,2.7-4,4.8-6,7.1v1.8c2.7-2.9,5.1-6,7.2-9.3c4.1-6.6,7.1-14,8.6-21.7
		C142.1,87,142.3,79.1,141,71.3z"/>
	<path fill="#F16947" d="M27.2,123c-0.4-0.4-0.7-0.9-1.1-1.3c0.4,0.5,0.8,1,1.1,1.4V123z"/>
</g>
</svg>
