<?xml version="1.0" encoding="utf-8"?>
<!-- Generator: Adobe Illustrator 18.1.0, SVG Export Plug-In . SVG Version: 6.00 Build 0)  -->
<svg version="1.1" id="Layer_1" xmlns="http://www.w3.org/2000/svg" xmlns:xlink="http://www.w3.org/1999/xlink" x="0px" y="0px"
	 viewBox="0 0 2000 2000" enable-background="new 0 0 2000 2000" xml:space="preserve">
<g>
	<path fill="#BADBE7" d="M1120.5,968.9c-11.1-8.2-23.3-19.3-36.6-33.9c0,0-19.2-11-22.6-12.1c0,0,39.6-13.3,79.9-2.6
		c-4.1-5.9-8.3-12.2-12.6-19.1c-15.9-0.7-68.4-4.6-123-26.5c19.6,39.3,36.2,78.9,50.1,118.4C1072.4,983.6,1094.8,973.6,1120.5,968.9
		z"/>
	<path fill="#BADBE7" d="M1231.1,1578.3c46.9-20.1,86.8-54.2,114.7-97.2C1314.7,1501.7,1275,1532.7,1231.1,1578.3z"/>
	<path fill="#BADBE7" d="M1094.4,1130.6c5.9-12.9,14.4-28.3,26.1-43.4c-10.8,0-23.1-1-37.1-3.1
		C1087.4,1099.7,1091.1,1115.2,1094.4,1130.6z"/>
	<path fill="#BADBE7" d="M1786.2,890.5c15.2-41.6,23.5-86.7,23.5-133.9c0-210.7-165.9-381.5-370.6-381.5
		c-65.6,0-127.2,17.6-180.7,48.4c-36.5-135.1-156.8-234.3-299.7-234.3c-47.8,0-93,11.3-133.4,31.2c16.2,19.8,37.5,49.9,53.6,86.4
		c8.5-17.5,19.9-36.9,34.8-58.4c0,0,10.4-33.8,10.9-39.5c0,0,32.5,53.6,32.3,117.5c6-6.1,12.3-12.2,18.9-18.5c0,0,25.7-45,28.3-52.8
		c0,0,22.4,70.1,9.4,150.9c16.6-7.6,36.1-15,59-21.9c0,0,29.2-20,33.1-24.1c0,0-6.4,50.8-37.2,97.5c23.7-0.9,50.3-0.2,80.5,2.8
		c0,0,47.8-11.3,55.1-14.7c0,0-31.8,57.6-88.8,103.3c19.1,3.8,40.8,9.7,65.4,18.6c0,0,35.3,1.3,41,0.4c0,0-39.6,41.3-97,59.1
		c11.1,6.1,22.4,12.6,34.3,19.9c0,0,50.1,13.2,58.3,13.8c0,0-51.4,32.8-122,45c16.3,15.7,33.8,36.2,52.5,63.2c0,0,28,21.6,33.2,24.1
		c0,0-66,12.5-127.6-13.4c11.9,19.1,23.7,41.5,35.3,67.7c12.3,0.1,56.3,2,98.4,24.2c-1.3-10.3-2.2-21.8-2.3-34.8c0,0-7-21-8.8-24.1
		c0,0,33.8,14.5,56.9,45.1l2.1-6.1c0.5,2.1,0.9,4.2,1.5,6.3c3.1-17.9,8.6-38.3,17.4-61.8c0,0,0.9-30.7,0-35.7
		c0,0,29.7,28.5,48.2,70.3c5.3-11,12.4-23.1,21.8-36.5c0,0,6.5-21.2,6.8-24.7c0,0,20.4,33.5,20.2,73.5c3.7-3.8,7.7-7.7,11.8-11.6
		c0,0,16-28.2,17.7-33.1c0,0,14,43.8,5.9,94.4c10.4-4.8,22.6-9.4,36.9-13.7c0,0,18.2-12.5,20.7-15.1c0,0-4.1,31.8-23.3,61
		c14.9-0.6,31.5-0.1,50.4,1.7c0,0,29.9-7.1,34.5-9.2c0,0-19.9,36.1-55.6,64.7c12,2.3,25.5,6,41,11.6c0,0,22.1,0.8,25.6,0.2
		c0,0-24.8,25.8-60.7,37c6.9,3.8,14,7.9,21.5,12.4c0,0,31.3,8.3,36.5,8.6c0,0-32.2,20.6-76.4,28.1c10.2,9.8,21.2,22.6,32.8,39.5
		c0,0,17.5,13.5,20.7,15.1c0,0-41.3,7.8-79.9-8.5c8.7,13.9,17.3,30.6,25.8,50.5c0,0,20.5,22.9,24.5,25.9c0,0-42.1-0.3-84.6-18.6
		c2.4,9.2,4.5,19.4,6.2,30.9c0,0,9.8,19.8,12,22.6c0,0-33.9-9.3-60.7-35c-0.1,7.4-0.2,15-0.7,23.2c0,0,7.7,31.5,9.8,36.2
		c0,0-40.3-22.2-69.1-64.5c-3.6,8.9-8.2,18.6-14,29.1c-17.4,156.7-64.9,287-103,371.1c6.8-0.7,13.6-1.6,20.3-2.9
		c46.7-62.4,111.1-127,186.3-145.2c11.7-25,19.7-52.1,23.2-80.7c-26.5,6.9-57.4,6.3-90.1-11.9c0,0-19-13.8-46.5,13.2
		c0,0,9-84.5,98.8-70c89.9,14.5,122.6,14.8,122.6,14.8s-24.8,29.4-63.3,46.3c43.1,24.4,92.6,38.4,145.3,38.4
		c166.8,0,301.9-139.2,301.9-310.8C1855.4,1013.3,1829.4,944.3,1786.2,890.5z"/>
	<path fill="#BADBE7" d="M692.8,343.6c-4.1,7-8,14.1-11.6,21.4c4.8,2.2,9.5,4.5,14.3,7C694.3,363.2,693.4,353.7,692.8,343.6z"/>
	<path fill="#BADBE7" d="M1121.6,889.8c-3.1-5.4-6.2-10.9-9.4-16.8c0,0-13.3-13.4-21.5-21c1.2,2.7,2.4,5.3,3.6,8.1
		C1094.3,860,1109.8,877.4,1121.6,889.8z"/>
	<path fill="#BADBE7" d="M1111.3,1036.1c-14.1-3.9-29.5-9.2-46.5-16c4.1,12.7,8,25.3,11.5,37.9
		C1085.8,1050,1097.5,1041.9,1111.3,1036.1z"/>
	<path fill="#BADBE7" d="M1226.8,1197.3c-10.4,10.6-22.8,21.7-37.8,33.3c0,0-16.9,25.7-18.7,30.4c0,0-12-46.5-2.2-96.1
		c-9.7,5.9-21.1,11.9-34.7,17.8c0,0-16.6,14.6-18.8,17.4c0,0,0.3-29.8,14.3-59.9c-4.5,1.1-9.1,2.1-13.9,3.1c0,0-8,4.4-16.2,9
		c35.6,180.8,25.4,345.2,12.2,445.1c7.1,0.6,14.2,1.1,21.5,1.1c3.2,0,6.4-0.1,9.6-0.2c56.5-134,86.7-253.2,101.2-354.4
		C1237.5,1233,1230.2,1216.5,1226.8,1197.3z M1149.3,1359.9c7.9-63.6,7.2-86.7,7.2-86.7s68.7,53.9,34.1,122.1
		c0,0-9.2,13.7,10.5,32.4C1201.1,1427.7,1141.4,1423.6,1149.3,1359.9z"/>
	<path fill="#BADBE7" d="M773.2,356.4c4.7-29.9,13.8-64.6,28.8-104.9c0,0,0.2-8.3,0.4-18.5c-31,18.6-58.8,42.4-81.7,70.6
		C738.1,316.3,757.6,333.8,773.2,356.4z"/>
	<path fill="#BADBE7" d="M1094.5,1194.8c-39.9,10.6-39.5,36.9-39.5,36.9c-15,138.1-172.9,151.7-172.9,151.7s23.8-34.4,75-139
		c41.4-84.5,111.3-66.1,136.5-55.9c-1.6-10.2-3.3-20.2-5.1-30.1c-2.8,1.7-4.9,3-5.8,3.8c0,0,1.2-4.9,4.1-12.9
		c-4.4-23-9.4-45.1-14.8-66.2c-2.3,0.3-5.5,0.8-9,1.3c3.5,9.2,5,15.6,5,15.6c-11-12.6,0,0-68.9,2.6c-68.9,2.6-156.9-67.1-156.9-67.1
		s35.4,2.3,119.6-16c56-12.1,84.5,27.5,97.3,55.4c2.4-2.7,5.2-5.8,8.5-8.9c-4.6-16.8-9.4-32.9-14.4-48.4c-9.8-0.9-26.4-2.4-30-2
		c0,0,8.7-7.7,23.6-17.1c-13.6-39.4-28.5-74.5-43.5-105.5c1.8,8.8,3.5,18.1,5.1,28.1c0,0,15.7,31.7,19.2,36.2c0,0-54.2-14.9-97.1-56
		c-0.1,11.8-0.4,24-1.1,37c0,0,12.3,50.3,15.7,57.8c0,0-64.4-35.5-110.4-103.2c-6.8,17-15.9,35.7-27.9,56.4c0,0-7.4,34.6-7.5,40.3
		c0,0-30.2-41.4-39.9-96.4c-16.6,16.9-36.4,34.7-60.4,53.3c0,0-27,41.1-29.9,48.5c0,0-19.2-74.3-3.5-153.6
		c-15.5,9.4-33.8,18.9-55.5,28.4c0,0-26.6,23.4-30,27.9c0,0,0.3-47.5,22.7-95.6c-7.1,1.7-14.3,3.4-21.9,5c0,0-45.5,24.8-51.9,30.1
		c0,0,15.4-61.6,60.5-120c-20.7-0.1-44.7-2.2-72.9-7.1c0,0-35,4.8-40.4,6.7c0,0,37.2-55.4,98.6-81.2c-24.4-6.8-51.2-16-81.2-28.3
		c0,0-51.5-5.1-59.8-4.4c0,0,65.1-58,155.7-74.8c-17.7-13.2-37.2-30.8-58.6-54.1c0,0-30.7-17.6-36.1-19.4c0,0,63.3-21.2,127.6-4.1
		c-8.6-12.2-17.3-25.7-26.2-40.6c-160.4,12.8-286.8,150.7-286.8,319.2c0,34.4,5.3,67.5,15.1,98.6
		C213.5,873.9,135.3,985.5,135.3,1116c0,171.7,135.2,310.8,301.9,310.8c2.3,0,4.7-0.1,7-0.2c40.5,122.5,153.1,210.6,285.8,210.6
		c91.7,0,173.7-42.1,229.1-108.5c26.5,25.1,58.3,44.4,93.3,56.2c-10.3-80-27.8-178.1-53-192.8c0,0,43.7,3.6,67.9,197.4
		c8.8,2.4,17.7,4.2,26.8,5.6C1115.3,1440.9,1111.6,1307.6,1094.5,1194.8z M663.7,1202.6c0,0,46.4-38.5,47-108.8
		c0.6-70.3,49.6-94.2,49.6-94.2l24.1-14.4C822.9,1123.6,663.7,1202.6,663.7,1202.6z M741.6,1393.5c0,0,30.4-37.1,20.2-92.1
		c-10.2-55,24.5-81.1,24.5-81.1l16.6-14.9C853.9,1307.6,741.6,1393.5,741.6,1393.5z M1056.7,1351.7c0,0,37.9,43.2,12.8,153.1
		L1056.7,1351.7z"/>
	<path fill="#73A957" d="M1064.7,1020.1c-1.4-0.6-2.8-1.1-4.3-1.7c0,0-3.1-0.3-7.4-0.7c5,15.5,9.9,31.7,14.4,48.4
		c2.7-2.6,5.6-5.3,8.8-8.1C1072.7,1045.4,1068.8,1032.8,1064.7,1020.1z"/>
	<path fill="#73A957" d="M1083.4,1084.1c-2.8-0.4-5.6-0.8-8.5-1.4c0,0-1.2,0.2-2.9,0.4c5.4,21.1,10.3,43.2,14.8,66.2
		c1.8-5.1,4.4-11.5,7.7-18.7C1091.1,1115.2,1087.4,1099.7,1083.4,1084.1z"/>
	<path fill="#73A957" d="M1098.9,1152.4c-3.7,2.1-7.5,4.3-10.5,6.1c1.8,9.9,3.5,19.9,5.1,30.1c-25.2-10.1-95.2-28.6-136.5,55.9
		c-51.2,104.5-75,139-75,139s157.9-13.7,172.9-151.7c0,0-0.4-26.4,39.5-36.9c17.1,112.8,20.8,246-0.4,400.5
		c-3.7,26.8-8,54.1-13.2,82.1c0,0,5.1,55.6,13.3,18.1c1.9-8.5,9.8-43.8,16.9-98C1124.3,1497.6,1134.6,1333.2,1098.9,1152.4z"/>
	<path fill="#73A957" d="M1005.5,874.8c-2.4-1-4.9-2-7.3-3.1c1.7,6.7,3.4,13.9,4.9,21.4c15,31,29.9,66.1,43.5,105.5
		c2.8-1.7,5.8-3.5,9-5.4C1041.7,953.7,1025.1,914.1,1005.5,874.8z"/>
	<path fill="#73A957" d="M1236.2,857.5c-0.5-2.1-0.9-4.2-1.5-6.3l-2.1,6.1c1,1.3,1.9,2.7,2.9,4
		C1235.8,860.1,1236,858.8,1236.2,857.5z"/>
	<path fill="#73A957" d="M1256.5,1232.4c0,0-4.7,21.6-4.7,25.2c0,0-3.7-5.1-8.4-13.7c-14.5,101.2-44.7,220.4-101.2,354.4
		c-17,40.2-36.1,81.6-58.1,124.4c0,0,4.7,5.3,20.7-23.8c4.5-8.3,26.1-44.2,52.1-101.5c38.1-84.1,85.6-214.4,103-371.1
		C1258.8,1228.3,1257.7,1230.3,1256.5,1232.4z"/>
	<path fill="#FFAF3A" d="M770.9,432.1c-2.6-21-2.3-46,2.4-75.7c-15.6-22.6-35.2-40.2-52.5-52.9c-23.5-17.3-43-25.7-43-25.7
		c2.8,4.9,14,38.5,14,38.5c0.1,9.6,0.5,18.6,1,27.2c0.6,10.1,1.5,19.6,2.7,28.5C722.3,386.2,748.5,405.7,770.9,432.1z"/>
	<path fill="#FFAF3A" d="M1068.5,457.5c30.7-46.6,37.2-97.5,37.2-97.5c-3.9,4.1-33.1,24.1-33.1,24.1c-22.9,6.9-42.4,14.2-59,21.9
		c-3.2,19.9-8.6,40.5-17,60.9C1016.8,461.9,1040.6,458.5,1068.5,457.5z"/>
	<path fill="#FFAF3A" d="M957,326.5c0.2-63.9-32.3-117.5-32.3-117.5c-0.6,5.7-10.9,39.5-10.9,39.5c-14.9,21.5-26.2,40.9-34.8,58.4
		c11.2,25.3,19.7,53.7,22.1,83.9C915.9,370.9,934.2,349.6,957,326.5z"/>
	<path fill="#CF9F24" d="M856.8,468.2c6.4-17,15.9-35.9,29.7-56.8c-2-60.7-22.7-133.9-72.6-189.2c0,0,36.6,50.4,24.9,155.7
		c-4.1,37-7.4,67-8.7,90.2C839.1,467.2,848,467.3,856.8,468.2z"/>
	<path fill="#E1BA69" d="M856.8,468.2c6.4-17,15.9-35.9,29.7-56.8c-2-60.7-22.7-133.9-72.6-189.2c0,0,36.6,50.4,24.9,155.7
		c-4.1,37-7.4,67-8.7,90.2C839.1,467.2,848,467.3,856.8,468.2z"/>
	<path fill="#CF9F24" d="M927.5,498.3c12.7-9.8,29.1-18.8,50.1-25.9c24.2-54.8,38.2-123.3,23.2-187.2c0,0,7.1,60.3-55.6,153.5
		c-12.2,18.2-23.1,34.4-32.6,48.9C917.8,490.9,922.8,494.4,927.5,498.3z"/>
	<path fill="#E1BA69" d="M927.5,498.3c12.7-9.8,29.1-18.8,50.1-25.9c24.2-54.8,38.2-123.3,23.2-187.2c0,0,7.1,60.3-55.6,153.5
		c-12.2,18.2-23.1,34.4-32.6,48.9C917.8,490.9,922.8,494.4,927.5,498.3z"/>
	<path fill="#FFAF3A" d="M1124.5,626.9c57.4-17.9,97-59.1,97-59.1c-5.6,0.9-41-0.4-41-0.4c-24.6-8.9-46.3-14.9-65.4-18.6
		c-20.4,16.4-44.1,31.1-70.7,41.2C1068.2,598.6,1094.8,610.6,1124.5,626.9z"/>
	<path fill="#FFAF3A" d="M988.3,703.7c20.9,16.2,42.9,40.3,64.9,75.6c61.6,26,127.6,13.4,127.6,13.4c-5.1-2.5-33.2-24.1-33.2-24.1
		c-18.7-27-36.2-47.5-52.5-63.2C1062.6,711.1,1025.9,712.2,988.3,703.7z"/>
	<path fill="#CF9F24" d="M973.9,573c13.7,1.4,28.8,4.2,45.7,9c57.3-18,121-56.5,160.8-117.8c0,0-39.2,48.4-144.1,64.1
		c-29.4,4.4-54.2,8.2-74.7,12c4.5,8.5,8.2,17.5,11,27.1C973.1,569.2,973.4,571.1,973.9,573z"/>
	<path fill="#E1BA69" d="M973.9,573c13.7,1.4,28.8,4.2,45.7,9c57.3-18,121-56.5,160.8-117.8c0,0-39.2,48.4-144.1,64.1
		c-29.4,4.4-54.2,8.2-74.7,12c4.5,8.5,8.2,17.5,11,27.1C973.1,569.2,973.4,571.1,973.9,573z"/>
	<path fill="#CF9F24" d="M1187.3,665.1c0,0-56.4,22.4-162.6-14.3c-18-6.2-34.3-11.8-49.1-16.8c-3.2,16.8-9.5,32.8-18.2,47.1
		C1023,700.5,1114.6,703.9,1187.3,665.1z"/>
	<path fill="#E1BA69" d="M1187.3,665.1c0,0-56.4,22.4-162.6-14.3c-18-6.2-34.3-11.8-49.1-16.8c-3.2,16.8-9.5,32.8-18.2,47.1
		C1023,700.5,1114.6,703.9,1187.3,665.1z"/>
	<path fill="#FFAF3A" d="M759.2,893.4c9.7,55,39.9,96.4,39.9,96.4c0.1-5.7,7.5-40.3,7.5-40.3c11.9-20.7,21-39.5,27.9-56.4
		c-11.4-16.7-21.6-35.4-29.5-55.9C793.8,854.6,778.8,873.4,759.2,893.4z"/>
	<path fill="#FFAF3A" d="M926.7,826.9c2.5,21.8,3.8,46.6,3.5,74.5c42.9,41.1,97.1,56,97.1,56c-3.5-4.5-19.2-36.2-19.2-36.2
		c-1.5-10-3.2-19.2-5.1-28.1c-1.5-7.5-3.2-14.7-4.9-21.4C973.4,861,948.5,846.6,926.7,826.9z"/>
	<path fill="#CF9F24" d="M902.1,732.1c8.6,18.2,15.9,41,21,69.7c43.2,42.7,108.5,81.7,182.8,87.6c0,0-61.2-11.4-125-96
		c-23.5-31.2-42.5-56.2-57.9-74.2C916.5,724.1,909.5,728.4,902.1,732.1z"/>
	<path fill="#E1BA69" d="M902.1,732.1c8.6,18.2,15.9,41,21,69.7c43.2,42.7,108.5,81.7,182.8,87.6c0,0-61.2-11.4-125-96
		c-23.5-31.2-42.5-56.2-57.9-74.2C916.5,724.1,909.5,728.4,902.1,732.1z"/>
	<path fill="#CF9F24" d="M835.2,745.7c0.1,20.6-5,45.5-20.3,74.4c20.1,56.5,57,115.9,111.7,152c0,0-46.6-38.9-65-149.7
		c-5-29.9-9.3-55.3-13.3-76.5C843.9,746,839.6,746,835.2,745.7z"/>
	<path fill="#E1BA69" d="M835.2,745.7c0.1,20.6-5,45.5-20.3,74.4c20.1,56.5,57,115.9,111.7,152c0,0-46.6-38.9-65-149.7
		c-5-29.9-9.3-55.3-13.3-76.5C843.9,746,839.6,746,835.2,745.7z"/>
	<path fill="#FFAF3A" d="M602.6,802.3c-22.4,48.1-22.7,95.6-22.7,95.6c3.5-4.5,30-27.9,30-27.9c21.7-9.4,40-19,55.5-28.4
		c4.4-21.9,11.4-44.2,22.3-65.5C663.8,785.6,635.7,794.4,602.6,802.3z"/>
	<path fill="#FFAF3A" d="M661.6,651.1c-24.4-1.2-53.2-5.8-87.1-15.3c-61.4,25.8-98.6,81.2-98.6,81.2c5.4-1.9,40.4-6.7,40.4-6.7
		c28.2,4.9,52.2,7,72.9,7.1C607.9,693.1,631.7,669.5,661.6,651.1z"/>
	<path fill="#FFAF3A" d="M697,531.3c-22.9-17-48.1-42.6-74.8-80.7c-64.4-17.1-127.6,4.1-127.6,4.1c5.4,1.8,36.1,19.4,36.1,19.4
		c21.3,23.4,40.9,41,58.6,54.1C622.4,522.1,659,521.5,697,531.3z"/>
	<path fill="#CF9F24" d="M774.7,726.5c-15.6,13.5-36.3,27-63.7,39.8c-30.2,52.7-51.1,125.8-37.6,199.1c0,0-4.7-62.1,60.6-145.5
		c27.5-35.1,48.6-62.3,62.1-82.8C788.6,734.1,781.5,730.6,774.7,726.5z"/>
	<path fill="#E1BA69" d="M774.7,726.5c-15.6,13.5-36.3,27-63.7,39.8c-30.2,52.7-51.1,125.8-37.6,199.1c0,0-4.7-62.1,60.6-145.5
		c27.5-35.1,48.6-62.3,62.1-82.8C788.6,734.1,781.5,730.6,774.7,726.5z"/>
	<path fill="#CF9F24" d="M690.3,650.8c-57.5,32.7-118.6,90-142.9,162.6c0,0,25.6-55.1,128-101.3c21.5-9.7,40.4-18.3,57-26.1
		c-7.7-11.5-13.9-24.3-18.1-38.3C707,649.1,699,650.2,690.3,650.8z"/>
	<path fill="#E1BA69" d="M690.3,650.8c-57.5,32.7-118.6,90-142.9,162.6c0,0,25.6-55.1,128-101.3c21.5-9.7,40.4-18.3,57-26.1
		c-7.7-11.5-13.9-24.3-18.1-38.3C707,649.1,699,650.2,690.3,650.8z"/>
	<path fill="#CF9F24" d="M720.8,547.9c-68.5-17.8-181.1-12.8-258.4,45.9c0,0,52.2-31.1,162.8-11.6c33.1,5.8,60.9,10.6,83.4,13.8
		C709.9,579.2,714,563,720.8,547.9z"/>
	<path fill="#E1BA69" d="M720.8,547.9c-68.5-17.8-181.1-12.8-258.4,45.9c0,0,52.2-31.1,162.8-11.6c33.1,5.8,60.9,10.6,83.4,13.8
		C709.9,579.2,714,563,720.8,547.9z"/>
	<path fill="#CF9F24" d="M697,531.3c-38.1-9.8-74.6-9.2-107.8-3.1C498.7,545,433.5,603,433.5,603c8.2-0.8,59.8,4.4,59.8,4.4
		c30,12.3,56.8,21.5,81.2,28.3c33.9,9.5,62.7,14.1,87.1,15.3c-29.9,18.5-53.7,42.1-72.4,66.2c-45.1,58.4-60.5,120-60.5,120
		c6.4-5.3,51.9-30.1,51.9-30.1c7.6-1.6,14.8-3.3,21.9-5c33.1-7.9,61.3-16.7,85.2-26.1c-10.9,21.2-18,43.5-22.3,65.5
		c-15.8,79.2,3.5,153.6,3.5,153.6c2.9-7.5,29.9-48.5,29.9-48.5c23.9-18.6,43.8-36.3,60.4-53.3c19.6-20,34.6-38.7,45.8-56.3
		c7.9,20.6,18.1,39.2,29.5,55.9c46.1,67.6,110.4,103.2,110.4,103.2c-3.5-7.5-15.7-57.8-15.7-57.8c0.7-13,1-25.2,1.1-37
		c0.2-27.9-1-52.7-3.5-74.5c21.8,19.7,46.7,34.2,71.5,44.8c2.4,1,4.9,2.1,7.3,3.1c54.6,21.9,107,25.8,123,26.5
		c4.3,6.9,8.5,13.2,12.6,19.1c16.7,23.8,32.5,39.8,46.8,50.5c-23.8-6.1-46.7-5.8-67.4-1.9c-25.7,4.8-48,14.8-64.8,24.3
		c-3.2,1.8-6.2,3.6-9,5.4c-14.9,9.4-23.6,17.1-23.6,17.1c3.6-0.3,20.1,1.1,30,2c4.4,0.4,7.4,0.7,7.4,0.7c1.5,0.6,2.8,1.1,4.3,1.7
		c17,6.8,32.5,12.1,46.5,16c21.2,5.9,39.2,8.8,54.5,9.6c-18.7,11.6-33.6,26.3-45.3,41.4c-11.7,15.1-20.1,30.5-26.1,43.4
		c-3.3,7.2-5.8,13.6-7.7,18.7c-2.9,8-4.1,12.9-4.1,12.9c0.9-0.7,3.1-2.1,5.8-3.8c3-1.8,6.7-3.9,10.5-6.1c8.1-4.6,16.2-9,16.2-9
		c4.8-1,9.4-2.1,13.9-3.1c20.6-4.9,38.2-10.4,53.1-16.3c-6.8,13.3-11.2,27.2-14,41c-9.9,49.6,2.2,96.1,2.2,96.1
		c1.8-4.7,18.7-30.4,18.7-30.4c15-11.6,27.4-22.7,37.8-33.3c12.2-12.5,21.6-24.2,28.6-35.2c4.9,12.9,11.3,24.5,18.5,35
		c28.8,42.3,69.1,64.5,69.1,64.5c-2.2-4.7-9.8-36.2-9.8-36.2c0.4-8.1,0.6-15.8,0.7-23.2c0.1-17.5-0.6-33-2.2-46.6
		c13.6,12.3,29.2,21.4,44.7,28c42.6,18.3,84.6,18.6,84.6,18.6c-4-3-24.5-25.9-24.5-25.9c-8.4-20-17.1-36.6-25.8-50.5
		c-13.7-22.1-27.5-37.1-40.6-47.3c23.6,5.3,46.5,4.6,66.9,1.1c44.2-7.6,76.4-28.1,76.4-28.1c-5.2-0.3-36.5-8.6-36.5-8.6
		c-7.5-4.6-14.6-8.6-21.5-12.4c-18.6-10.2-35.2-17.7-50.1-23.1c16.6-6.3,31.4-15.5,44.2-25.7c35.7-28.6,55.6-64.7,55.6-64.7
		c-4.5,2.1-34.5,9.2-34.5,9.2c-18.9-1.8-35.6-2.3-50.4-1.7c-17.5,0.7-32.3,2.8-44.9,5.9c5.2-12.7,8.6-25.6,10.6-38.1
		c8.1-50.6-5.9-94.4-5.9-94.4c-1.7,4.9-17.7,33.1-17.7,33.1c-4.1,3.9-8.1,7.8-11.8,11.6c-14.2,14.4-25.7,27.8-35,40.2
		c-1.5-18.9-6.8-36.6-13.8-52.5c-18.4-41.8-48.2-70.3-48.2-70.3c0.9,4.9,0,35.7,0,35.7c-8.8,23.5-14.3,43.9-17.4,61.8
		c-0.2,1.3-0.5,2.6-0.7,3.8c-2.9,18.6-3.1,34.2-1.5,47.3c-14-16.5-30.4-28.7-47.2-37.6c-42-22.2-86-24.1-98.4-24.2
		c-11.6-26.1-23.5-48.6-35.3-67.7c-22-35.3-44-59.4-64.9-75.6c37.6,8.5,74.3,7.4,106.9,1.8c70.7-12.1,122-45,122-45
		c-8.3-0.6-58.3-13.8-58.3-13.8c-11.9-7.3-23.3-13.8-34.3-19.9c-29.7-16.3-56.3-28.4-80-36.9c26.6-10.1,50.3-24.8,70.7-41.2
		c57-45.7,88.8-103.3,88.8-103.3c-7.2,3.4-55.1,14.7-55.1,14.7c-30.2-3-56.8-3.7-80.5-2.8c-27.9,1-51.7,4.4-71.9,9.4
		c8.4-20.4,13.8-40.9,17-60.9c13-80.8-9.4-150.9-9.4-150.9c-2.7,7.8-28.3,52.8-28.3,52.8c-6.6,6.3-12.9,12.5-18.9,18.5
		c-22.8,23-41.1,44.4-55.9,64.2c-2.4-30.2-10.9-58.5-22.1-83.9c-16.1-36.4-37.4-66.5-53.6-86.4c-13.5-16.5-23.4-26-23.4-26
		c0.8,4.7,0.7,23.7,0.5,38.5c-0.2,10.3-0.4,18.5-0.4,18.5c-15.1,40.3-24.1,75-28.8,104.9c-4.7,29.7-5,54.7-2.4,75.7
		c-22.4-26.4-48.6-45.9-75.4-60c-4.7-2.5-9.5-4.8-14.3-7c-74.6-34.4-148.5-31.6-148.5-31.6c6.8,4.7,43.3,41.4,43.3,41.4
		c6.7,12.6,13.4,24.1,19.9,35.1c8.9,14.9,17.6,28.4,26.2,40.6C649,488.7,674.1,514.3,697,531.3z M1247.3,937.2
		c2.6-1.1,5.2-2,7.9-2.9c5.3-1.6,10.6-2.6,15.9-3.1c0.8-14.5,2.9-33.3,5.4-56.4c7.4-65.9-15.5-97.4-15.5-97.4
		c31.3,34.6,44.2,80.4,45.4,118.4c-8.6,13-14.6,24.8-18.6,35.5c12.5,1.3,24.3,5.6,34.9,12.2c5.9-9.1,12.8-19.2,20.4-30.6
		c39.3-58.3,34.8-96,34.8-96c9.4,40,0.5,82.8-14.7,117.2c-13.1,4.4-23.3,10-31.2,16.1c8.6,7.1,15.9,15.9,21.3,26.2
		c12.8-2.3,28.4-4.7,46.8-7.5c65.6-9.8,90.1-40.1,90.1-40.1c-24.9,38.3-64.8,62.4-100.6,73.7c-10.5-3-20-4.7-28.5-5.6
		c3.2,12.9,3.4,25.9,1.1,38.2c9.3,3.1,19.4,6.6,30.7,10.5c66.4,22.9,101.7,8.9,101.7,8.9c-45.5,24.3-102.7,22.1-143.8,10
		c-5.6,9.2-12.9,17.3-21.5,23.9c9.6,11.3,21.5,26.9,36.2,46.4c39.9,52.9,78.2,60.1,78.2,60.1c-46.5-3.7-87.3-28.1-114.4-54.8
		c-3.2-17.9-7.8-32.2-13.1-43.6c-4.1,2-8.3,3.8-12.7,5.2c-7,2.1-14,3.2-20.9,3.4c2.5,13.2,5.2,29.1,8.3,47.8
		c11.5,69.3,40.7,93.7,40.7,93.7c-34.3-22.6-57.3-59.8-69.8-95.2c9.5-18,12.7-33.6,12.6-46.4c-8.5-0.5-16.7-2.4-24.5-5.4
		c-8.4,12.8-21.7,29.9-38.8,51.8c-40.9,52.2-37.9,91-37.9,91c-8.4-45.9,4.7-91.6,23.6-124.6c17.2-8,30.1-16.4,39.8-24.9
		c-10.4-6.3-19.5-14.9-26.5-25.3c-10.4,4.9-22.2,10.3-35.7,16.3c-64,29-80.1,63.4-80.1,63.4c15.2-45.5,53.6-81.3,89.6-101.7
		c5.3-0.4,10.3-1.1,14.8-2c-0.1-0.3-0.2-0.6-0.3-0.9c-3-10.5-4-21.1-3.2-31.4c-14.1-2-31.5-5-52.2-8.6
		c-69.2-12.2-101.9,7.3-101.9,7.3c48.4-36.7,118.8-39.8,161.7-28.7c4.5-10.1,10.9-19.3,18.9-27c-9.8-10.7-21.6-24.5-35.8-41
		c-45.7-53.4-83.2-59.2-83.2-59.2C1164.8,856.6,1222.2,900.9,1247.3,937.2z M1112.2,872.9c3.2,5.9,6.3,11.5,9.4,16.8
		c-11.8-12.4-27.3-29.7-27.3-29.7c-1.2-2.8-2.4-5.4-3.6-8.1C1098.9,859.5,1112.2,872.9,1112.2,872.9z M560.8,344.7
		c99.2,4,191.1,74.8,231.3,132.9c4.1-1.7,8.2-3.2,12.5-4.5c8.5-2.6,17-4.2,25.5-5c1.4-23.2,4.6-53.2,8.7-90.2
		c11.8-105.3-24.9-155.7-24.9-155.7c49.9,55.3,70.6,128.5,72.6,189.2c-13.8,20.9-23.3,39.8-29.7,56.8c19.9,2.2,38.9,8.9,55.8,19.5
		c9.5-14.5,20.4-30.7,32.6-48.9c62.8-93.2,55.6-153.5,55.6-153.5c14.9,63.8,1,132.3-23.2,187.2c-21,7.1-37.4,16.1-50.1,25.9
		c13.7,11.3,25.3,25.5,34,41.9c20.5-3.7,45.3-7.6,74.7-12c104.8-15.7,144.1-64.1,144.1-64.1c-39.8,61.3-103.5,99.8-160.8,117.8
		c-16.8-4.7-32-7.6-45.7-9c5.1,20.6,5.5,41.4,1.7,61.1c14.8,4.9,31.1,10.5,49.1,16.8c106.2,36.7,162.6,14.3,162.6,14.3
		c-72.7,38.8-164.2,35.4-229.9,16.1c-8.9,14.7-20.6,27.6-34.4,38c15.3,18,34.3,43,57.9,74.2c63.8,84.6,125,96,125,96
		c-74.3-5.9-139.6-44.9-182.8-87.6c-5.1-28.7-12.4-51.5-21-69.7c-6.5,3.2-13.2,6.1-20.3,8.3c-11.1,3.4-22.3,5.1-33.4,5.5
		c4.1,21.1,8.4,46.6,13.3,76.5c18.4,110.8,65,149.7,65,149.7c-54.7-36.1-91.6-95.5-111.7-152c15.3-28.9,20.4-53.8,20.3-74.4
		c-13.5-0.9-26.7-3.8-39.2-8.7c-13.5,20.5-34.6,47.8-62.1,82.8c-65.4,83.4-60.6,145.5-60.6,145.5c-13.4-73.3,7.5-146.4,37.6-199.1
		c27.5-12.7,48.2-26.3,63.7-39.8c-16.6-10.1-31.1-23.8-42.3-40.5c-16.6,7.8-35.5,16.4-57,26.1c-102.4,46.3-128,101.3-128,101.3
		c24.3-72.6,85.5-129.9,142.9-162.6c8.7-0.6,16.6-1.7,24-3.2c-0.2-0.5-0.4-1-0.5-1.5c-4.8-16.8-6.3-33.7-5.1-50.2
		c-22.6-3.2-50.3-8-83.4-13.8c-110.6-19.4-162.8,11.6-162.8,11.6c77.3-58.7,189.9-63.7,258.4-45.9c7.3-16.2,17.5-30.8,30.2-43.1
		c-15.7-17.1-34.6-39.1-57.2-65.5C620.8,354,560.8,344.7,560.8,344.7z"/>
	<path fill="#CF9F24" d="M693.8,439.4c22.6,26.4,41.5,48.4,57.2,65.5c11.7-11.3,25.5-20.7,41.1-27.2
		C751.9,419.5,660,348.8,560.8,344.7C560.8,344.7,620.8,354,693.8,439.4z"/>
	<path fill="#E1BA69" d="M693.8,439.4c22.6,26.4,41.5,48.4,57.2,65.5c11.7-11.3,25.5-20.7,41.1-27.2
		C751.9,419.5,660,348.8,560.8,344.7C560.8,344.7,620.8,354,693.8,439.4z"/>
	<path fill="#7C5F47" d="M751,504.9c-12.7,12.3-23,26.9-30.2,43.1c-6.7,15-10.9,31.3-12.1,48.1c-1.2,16.5,0.3,33.4,5.1,50.2
		c0.1,0.5,0.4,1,0.5,1.5c4.2,14,10.4,26.8,18.1,38.3c11.2,16.7,25.8,30.4,42.3,40.5c6.8,4.2,13.9,7.7,21.3,10.5
		c12.5,4.8,25.6,7.8,39.2,8.7c4.3,0.3,8.7,0.3,13.1,0.2c11.1-0.4,22.3-2.1,33.4-5.5c7.1-2.2,13.9-5,20.3-8.3
		c7.4-3.7,14.4-8,20.9-12.9c13.8-10.4,25.4-23.4,34.4-38c8.8-14.4,15-30.3,18.2-47.1c3.8-19.7,3.4-40.4-1.7-61.1
		c-0.5-1.9-0.8-3.8-1.3-5.6c-2.8-9.6-6.5-18.7-11-27.1c-8.7-16.4-20.3-30.6-34-41.9c-4.7-3.9-9.8-7.4-14.9-10.7
		c-16.9-10.5-35.9-17.3-55.8-19.5c-8.8-1-17.7-1-26.8-0.1c-8.5,0.8-17,2.5-25.5,5c-4.3,1.3-8.4,2.8-12.5,4.5
		C776.5,484.2,762.7,493.5,751,504.9z M895.4,534.5c-0.6-3.2,0.9-6.1,3.3-6.6c2.4-0.4,4.9,1.8,5.5,5c0.6,3.2-0.9,6.1-3.4,6.6
		C898.4,540,895.9,537.7,895.4,534.5z M781.4,616.5c-0.7-3.8,1.6-7.3,5.1-7.9c3.5-0.6,6.9,1.9,7.6,5.6c0.7,3.8-1.6,7.3-5.1,8
		C785.5,622.8,782.1,620.3,781.4,616.5z M751.1,536c-0.4-2.3,1-4.6,3.2-5c2.2-0.4,4.3,1.2,4.8,3.5c0.4,2.3-1,4.6-3.2,5
		C753.6,540,751.5,538.4,751.1,536z M816.2,634.5c-0.6-3.2,0.9-6.1,3.3-6.6c2.4-0.4,4.9,1.8,5.5,5c0.6,3.2-0.9,6.1-3.4,6.6
		C819.3,640,816.8,637.7,816.2,634.5z M793.6,569.9c-0.7-3.7,1.6-7.3,5.1-8c3.5-0.6,6.9,1.9,7.6,5.6c0.7,3.7-1.6,7.3-5.1,8
		C797.7,576.2,794.3,573.7,793.6,569.9z M809.7,543.5c-6.2,1.1-12.3-3.4-13.5-10c-1.2-6.7,2.9-13,9.1-14.1c6.2-1.1,12.3,3.4,13.5,10
		C819.9,536,815.9,542.4,809.7,543.5z M758.9,563.7c3.5-0.6,6.9,1.9,7.6,5.6c0.7,3.8-1.6,7.3-5.1,8c-3.5,0.6-6.9-1.9-7.6-5.6
		C753.1,567.9,755.4,564.4,758.9,563.7z M833.4,546c-0.7-3.8,1.6-7.3,5.1-8c3.5-0.6,6.9,1.9,7.6,5.6c0.7,3.8-1.6,7.3-5.1,8
		C837.4,552.3,834,549.8,833.4,546z M757.5,605.7c0.4,2.3-1,4.6-3.2,5c-2.2,0.4-4.3-1.2-4.8-3.5c-0.4-2.4,1-4.6,3.2-5
		C754.9,601.8,757,603.3,757.5,605.7z M751.2,671.4c-2.4,0.4-4.9-1.8-5.5-5c-0.6-3.2,0.9-6.1,3.4-6.6c2.4-0.4,4.9,1.8,5.4,5
		C755.1,668,753.6,671,751.2,671.4z M814,702c-2.4,0.4-4.9-1.8-5.4-5c-0.6-3.2,0.9-6.1,3.3-6.6c2.4-0.4,4.8,1.8,5.4,5
		C817.9,698.6,816.4,701.5,814,702z M859.9,506.2c0.6,3.2-0.9,6.1-3.3,6.6c-2.4,0.4-4.9-1.8-5.4-5c-0.6-3.2,0.9-6.1,3.3-6.6
		C856.9,500.7,859.4,503,859.9,506.2z M818.9,495.8c2.2-0.4,4.3,1.2,4.7,3.5c0.4,2.3-1,4.6-3.2,5c-2.2,0.4-4.3-1.2-4.7-3.5
		C815.3,498.4,816.7,496.2,818.9,495.8z"/>
	<path fill="#A68F7D" d="M805.3,519.3c-6.2,1.1-10.3,7.5-9.1,14.1c1.2,6.7,7.3,11.2,13.5,10c6.2-1.1,10.3-7.5,9.1-14.1
		C817.5,522.7,811.5,518.2,805.3,519.3z"/>
	<path fill="#A68F7D" d="M761.4,577.3c3.5-0.6,5.8-4.2,5.1-8c-0.7-3.8-4.1-6.3-7.6-5.6c-3.5,0.6-5.8,4.2-5.1,8
		C754.5,575.4,757.9,578,761.4,577.3z"/>
	<path fill="#A68F7D" d="M806.3,567.6c-0.7-3.7-4.1-6.3-7.6-5.6c-3.5,0.6-5.8,4.2-5.1,8c0.7,3.8,4.1,6.3,7.6,5.6
		C804.7,574.9,807,571.3,806.3,567.6z"/>
	<path fill="#A68F7D" d="M789,622.2c3.5-0.6,5.8-4.2,5.1-8c-0.7-3.7-4.1-6.3-7.6-5.6c-3.5,0.6-5.8,4.2-5.1,7.9
		C782.1,620.3,785.5,622.8,789,622.2z"/>
	<path fill="#A68F7D" d="M846,543.7c-0.7-3.7-4.1-6.3-7.6-5.6c-3.5,0.6-5.8,4.2-5.1,8c0.7,3.8,4.1,6.3,7.6,5.6
		C844.4,551,846.7,547.5,846,543.7z"/>
	<path fill="#A68F7D" d="M759,534.6c-0.4-2.4-2.6-3.9-4.8-3.5c-2.2,0.4-3.6,2.6-3.2,5c0.4,2.3,2.5,3.9,4.7,3.5
		C758,539.2,759.4,536.9,759,534.6z"/>
	<path fill="#A68F7D" d="M820.4,504.3c2.2-0.4,3.6-2.6,3.2-5c-0.4-2.4-2.5-3.9-4.7-3.5c-2.2,0.4-3.6,2.6-3.2,5
		C816.1,503.1,818.3,504.7,820.4,504.3z"/>
	<path fill="#A68F7D" d="M752.7,602.2c-2.2,0.4-3.6,2.6-3.2,5c0.4,2.3,2.6,3.9,4.8,3.5c2.2-0.4,3.6-2.6,3.2-5
		C757,603.3,754.9,601.8,752.7,602.2z"/>
	<path fill="#A28A78" d="M900.8,539.5c2.4-0.4,3.9-3.4,3.4-6.6c-0.6-3.2-3-5.4-5.5-5c-2.4,0.4-3.9,3.4-3.3,6.6
		C895.9,537.7,898.4,540,900.8,539.5z"/>
	<path fill="#A28A78" d="M851.2,507.7c0.6,3.2,3,5.4,5.4,5c2.4-0.4,3.9-3.4,3.3-6.6c-0.6-3.2-3-5.4-5.4-5
		C852.1,501.6,850.6,504.6,851.2,507.7z"/>
	<path fill="#A28A78" d="M825,632.9c-0.6-3.2-3-5.4-5.5-5c-2.4,0.4-3.9,3.4-3.3,6.6c0.6,3.2,3,5.4,5.4,5
		C824.1,639.1,825.6,636.1,825,632.9z"/>
	<path fill="#A28A78" d="M749.1,659.9c-2.4,0.4-3.9,3.4-3.4,6.6c0.6,3.2,3,5.4,5.5,5c2.4-0.4,3.9-3.4,3.3-6.6
		C754,661.7,751.5,659.4,749.1,659.9z"/>
	<path fill="#A28A78" d="M811.9,690.4c-2.4,0.4-3.9,3.4-3.3,6.6c0.6,3.2,3,5.4,5.4,5c2.4-0.4,3.9-3.4,3.3-6.6
		C816.7,692.2,814.3,690,811.9,690.4z"/>
	<path fill="#FFAF3A" d="M1234.1,908.7c-1.6-13.1-1.4-28.8,1.5-47.3c-0.9-1.4-1.9-2.7-2.9-4c-23.1-30.6-56.9-45.1-56.9-45.1
		c1.8,3.1,8.8,24.1,8.8,24.1c0.1,13.1,1,24.6,2.3,34.8C1203.7,880,1220.1,892.2,1234.1,908.7z"/>
	<path fill="#FFAF3A" d="M1420.3,924.6c19.2-29.2,23.3-61,23.3-61c-2.5,2.6-20.7,15.1-20.7,15.1c-14.3,4.3-26.5,8.9-36.9,13.7
		c-2,12.5-5.4,25.4-10.6,38.1C1387.9,927.4,1402.8,925.3,1420.3,924.6z"/>
	<path fill="#FFAF3A" d="M1350.5,842.7c0.1-40-20.2-73.5-20.2-73.5c-0.3,3.5-6.8,24.7-6.8,24.7c-9.3,13.5-16.4,25.6-21.8,36.5
		c7,15.9,12.3,33.6,13.8,52.5C1324.8,870.5,1336.3,857.1,1350.5,842.7z"/>
	<path fill="#CF9F24" d="M1287.9,931.3c4-10.6,10-22.4,18.6-35.5c-1.2-38-14.2-83.8-45.4-118.4c0,0,22.9,31.5,15.5,97.4
		c-2.6,23.2-4.6,41.9-5.4,56.4C1276.8,930.7,1282.4,930.7,1287.9,931.3z"/>
	<path fill="#E1BA69" d="M1287.9,931.3c4-10.6,10-22.4,18.6-35.5c-1.2-38-14.2-83.8-45.4-118.4c0,0,22.9,31.5,15.5,97.4
		c-2.6,23.2-4.6,41.9-5.4,56.4C1276.8,930.7,1282.4,930.7,1287.9,931.3z"/>
	<path fill="#CF9F24" d="M1332.1,950.1c7.9-6.1,18.1-11.7,31.2-16.1c15.2-34.3,24-77.2,14.7-117.2c0,0,4.5,37.7-34.8,96
		c-7.7,11.4-14.5,21.5-20.4,30.6C1326,945.5,1329.2,947.7,1332.1,950.1z"/>
	<path fill="#E1BA69" d="M1332.1,950.1c7.9-6.1,18.1-11.7,31.2-16.1c15.2-34.3,24-77.2,14.7-117.2c0,0,4.5,37.7-34.8,96
		c-7.7,11.4-14.5,21.5-20.4,30.6C1326,945.5,1329.2,947.7,1332.1,950.1z"/>
	<path fill="#FFAF3A" d="M1455.4,1030.6c35.9-11.2,60.7-37,60.7-37c-3.5,0.6-25.6-0.2-25.6-0.2c-15.5-5.6-29-9.3-41-11.6
		c-12.8,10.2-27.6,19.4-44.2,25.7C1420.2,1012.9,1436.8,1020.4,1455.4,1030.6z"/>
	<path fill="#FFAF3A" d="M1370.1,1078.6c13.1,10.1,26.8,25.2,40.6,47.3c38.6,16.3,79.9,8.5,79.9,8.5c-3.2-1.6-20.7-15.1-20.7-15.1
		c-11.7-16.9-22.6-29.7-32.8-39.5C1416.6,1083.3,1393.7,1084,1370.1,1078.6z"/>
	<path fill="#CF9F24" d="M1361.1,996.9c8.5,0.9,18,2.6,28.5,5.6c35.9-11.3,75.7-35.3,100.6-73.7c0,0-24.6,30.3-90.1,40.1
		c-18.4,2.8-34,5.1-46.8,7.5c2.8,5.3,5.1,11,6.9,17C1360.6,994.5,1360.8,995.7,1361.1,996.9z"/>
	<path fill="#E1BA69" d="M1361.1,996.9c8.5,0.9,18,2.6,28.5,5.6c35.9-11.3,75.7-35.3,100.6-73.7c0,0-24.6,30.3-90.1,40.1
		c-18.4,2.8-34,5.1-46.8,7.5c2.8,5.3,5.1,11,6.9,17C1360.6,994.5,1360.8,995.7,1361.1,996.9z"/>
	<path fill="#CF9F24" d="M1494.6,1054.5c0,0-35.3,14-101.7-8.9c-11.3-3.9-21.4-7.4-30.7-10.5c-2,10.5-5.9,20.4-11.4,29.4
		C1391.9,1076.6,1449.1,1078.8,1494.6,1054.5z"/>
	<path fill="#E1BA69" d="M1494.6,1054.5c0,0-35.3,14-101.7-8.9c-11.3-3.9-21.4-7.4-30.7-10.5c-2,10.5-5.9,20.4-11.4,29.4
		C1391.9,1076.6,1449.1,1078.8,1494.6,1054.5z"/>
	<path fill="#FFAF3A" d="M1255.4,1162.1c-7,11-16.4,22.7-28.6,35.2c3.4,19.2,10.7,35.8,16.6,46.6c4.7,8.6,8.4,13.7,8.4,13.7
		c0-3.6,4.7-25.2,4.7-25.2c1.2-2.1,2.3-4.1,3.4-6.2c5.8-10.5,10.4-20.3,14-29.1C1266.8,1186.7,1260.4,1175,1255.4,1162.1z"/>
	<path fill="#FFAF3A" d="M1333.8,1202.3c26.8,25.7,60.7,35,60.7,35c-2.2-2.8-12-22.6-12-22.6c-1.7-11.5-3.8-21.8-6.2-30.9
		c-15.5-6.7-31.1-15.7-44.7-28C1333.2,1169.3,1334,1184.8,1333.8,1202.3z"/>
	<path fill="#CF9F24" d="M1329.3,1140c27,26.7,67.8,51.1,114.4,54.8c0,0-38.3-7.2-78.2-60.1c-14.7-19.5-26.6-35.1-36.2-46.4
		c-4.1,3.1-8.4,5.8-13.1,8.1C1321.6,1107.8,1326.2,1122.1,1329.3,1140z"/>
	<path fill="#E1BA69" d="M1329.3,1140c27,26.7,67.8,51.1,114.4,54.8c0,0-38.3-7.2-78.2-60.1c-14.7-19.5-26.6-35.1-36.2-46.4
		c-4.1,3.1-8.4,5.8-13.1,8.1C1321.6,1107.8,1326.2,1122.1,1329.3,1140z"/>
	<path fill="#CF9F24" d="M1274.4,1104.9c0.1,12.9-3.1,28.4-12.6,46.4c12.5,35.4,35.6,72.6,69.8,95.2c0,0-29.2-24.3-40.7-93.7
		c-3.1-18.7-5.8-34.6-8.3-47.8C1279.8,1105.1,1277.1,1105.1,1274.4,1104.9z"/>
	<path fill="#E1BA69" d="M1274.4,1104.9c0.1,12.9-3.1,28.4-12.6,46.4c12.5,35.4,35.6,72.6,69.8,95.2c0,0-29.2-24.3-40.7-93.7
		c-3.1-18.7-5.8-34.6-8.3-47.8C1279.8,1105.1,1277.1,1105.1,1274.4,1104.9z"/>
	<path fill="#FFAF3A" d="M1129,1140.3c-14,30.1-14.3,59.9-14.3,59.9c2.2-2.8,18.8-17.4,18.8-17.4c13.6-5.9,25-11.9,34.7-17.8
		c2.7-13.7,7.2-27.7,14-41C1167.2,1129.9,1149.6,1135.4,1129,1140.3z"/>
	<path fill="#FFAF3A" d="M1083.4,1084.1c14,2.1,26.3,3.1,37.1,3.1c11.7-15.1,26.6-29.9,45.3-41.4c-15.3-0.7-33.3-3.7-54.5-9.6
		c-13.7,5.8-25.5,13.9-35,21.9c-3.2,2.7-6.1,5.4-8.8,8.1c-3.2,3.2-6.1,6.2-8.5,8.9c1.5,3.3,2.9,6.5,4,9.4c3.5-0.5,6.7-1,9-1.3
		c1.7-0.2,2.9-0.4,2.9-0.4C1077.8,1083.2,1080.6,1083.6,1083.4,1084.1z"/>
	<path fill="#FFAF3A" d="M1061.2,922.9c3.4,1.1,22.6,12.1,22.6,12.1c13.4,14.6,25.6,25.6,36.6,33.9c20.7-3.9,43.6-4.2,67.4,1.9
		c-14.3-10.6-30.1-26.7-46.8-50.5C1100.8,909.6,1061.2,922.9,1061.2,922.9z"/>
	<path fill="#CF9F24" d="M1236.5,1092.9c-9.7,8.4-22.7,16.9-39.8,24.9c-18.9,33-32,78.7-23.6,124.6c0,0-2.9-38.8,37.9-91
		c17.2-21.9,30.4-39,38.8-51.8C1245.2,1097.7,1240.8,1095.5,1236.5,1092.9z"/>
	<path fill="#E1BA69" d="M1236.5,1092.9c-9.7,8.4-22.7,16.9-39.8,24.9c-18.9,33-32,78.7-23.6,124.6c0,0-2.9-38.8,37.9-91
		c17.2-21.9,30.4-39,38.8-51.8C1245.2,1097.7,1240.8,1095.5,1236.5,1092.9z"/>
	<path fill="#CF9F24" d="M1183.9,1045.6c-36,20.5-74.4,56.2-89.6,101.7c0,0,16-34.5,80.1-63.4c13.5-6.1,25.3-11.5,35.7-16.3
		c-4.8-7.2-8.7-15.2-11.3-24C1194.2,1044.5,1189.3,1045.2,1183.9,1045.6z"/>
	<path fill="#E1BA69" d="M1183.9,1045.6c-36,20.5-74.4,56.2-89.6,101.7c0,0,16-34.5,80.1-63.4c13.5-6.1,25.3-11.5,35.7-16.3
		c-4.8-7.2-8.7-15.2-11.3-24C1194.2,1044.5,1189.3,1045.2,1183.9,1045.6z"/>
	<path fill="#CF9F24" d="M1202.8,981.2c-42.9-11.2-113.3-8-161.7,28.7c0,0,32.6-19.4,101.9-7.3c20.7,3.6,38.1,6.6,52.2,8.6
		C1195.9,1000.8,1198.5,990.6,1202.8,981.2z"/>
	<path fill="#E1BA69" d="M1202.8,981.2c-42.9-11.2-113.3-8-161.7,28.7c0,0,32.6-19.4,101.9-7.3c20.7,3.6,38.1,6.6,52.2,8.6
		C1195.9,1000.8,1198.5,990.6,1202.8,981.2z"/>
	<path fill="#CF9F24" d="M1185.9,913.3c14.1,16.5,26,30.3,35.8,41c7.3-7.1,15.9-12.9,25.7-17c-25.1-36.4-82.5-80.7-144.6-83.2
		C1102.7,854.1,1140.2,859.8,1185.9,913.3z"/>
	<path fill="#E1BA69" d="M1185.9,913.3c14.1,16.5,26,30.3,35.8,41c7.3-7.1,15.9-12.9,25.7-17c-25.1-36.4-82.5-80.7-144.6-83.2
		C1102.7,854.1,1140.2,859.8,1185.9,913.3z"/>
	<path fill="#7C5F47" d="M1221.7,954.2c-8,7.7-14.4,16.9-18.9,27c-4.2,9.4-6.8,19.5-7.6,30.1c-0.7,10.3,0.2,20.9,3.2,31.4
		c0.1,0.3,0.2,0.6,0.3,0.9c2.6,8.8,6.5,16.8,11.3,24c7,10.4,16.1,19,26.5,25.3c4.3,2.6,8.7,4.8,13.3,6.6c7.8,3,16,4.9,24.5,5.4
		c2.7,0.2,5.4,0.2,8.2,0.1c6.9-0.3,14-1.3,20.9-3.4c4.5-1.4,8.7-3.1,12.7-5.2c4.6-2.3,9-5,13.1-8.1c8.7-6.5,15.9-14.6,21.5-23.9
		c5.5-9,9.4-18.9,11.4-29.4c2.4-12.3,2.1-25.3-1.1-38.2c-0.3-1.2-0.5-2.4-0.8-3.5c-1.7-6-4.1-11.7-6.9-17
		c-5.4-10.3-12.7-19.1-21.3-26.2c-3-2.5-6.1-4.6-9.3-6.7c-10.6-6.6-22.4-10.8-34.9-12.2c-5.5-0.6-11.1-0.6-16.8-0.1
		c-5.3,0.5-10.6,1.5-15.9,3.1c-2.7,0.8-5.3,1.8-7.9,2.9C1237.6,941.3,1229,947.2,1221.7,954.2z M1312,972.8c-0.4-2,0.6-3.8,2.1-4.1
		c1.5-0.3,3.1,1.1,3.4,3.1c0.4,2-0.6,3.8-2.1,4.1C1313.9,976.2,1312.4,974.8,1312,972.8z M1240.7,1024.1c-0.4-2.4,1-4.6,3.2-5
		c2.2-0.4,4.3,1.2,4.7,3.5c0.4,2.4-1,4.6-3.2,5C1243.2,1028,1241.1,1026.4,1240.7,1024.1z M1221.7,973.7c-0.3-1.5,0.6-2.9,2-3.1
		c1.4-0.2,2.7,0.7,3,2.2c0.3,1.5-0.6,2.9-2,3.1C1223.3,976.2,1222,975.2,1221.7,973.7z M1251.5,990c2.2-0.4,4.3,1.2,4.8,3.5
		c0.4,2.4-1,4.6-3.2,5c-2.2,0.4-4.3-1.2-4.7-3.5C1247.9,992.6,1249.4,990.4,1251.5,990z M1262.5,1035.4c-0.4-2,0.6-3.8,2.1-4.1
		c1.5-0.3,3.1,1.1,3.4,3.1c0.4,2-0.6,3.8-2.1,4.1C1264.4,1038.8,1262.9,1037.4,1262.5,1035.4z M1258.4,978.4
		c-3.9,0.7-7.7-2.1-8.4-6.3c-0.8-4.2,1.8-8.1,5.7-8.8c3.9-0.7,7.7,2.1,8.4,6.3C1264.8,973.7,1262.3,977.7,1258.4,978.4z
		 M1226.6,991.1c2.2-0.4,4.3,1.2,4.7,3.5c0.4,2.4-1,4.6-3.2,5c-2.2,0.4-4.3-1.2-4.7-3.5C1223,993.7,1224.4,991.5,1226.6,991.1z
		 M1273.2,980c-0.4-2.3,1-4.6,3.2-5c2.2-0.4,4.3,1.2,4.8,3.5c0.4,2.4-1,4.6-3.2,5C1275.8,983.9,1273.6,982.4,1273.2,980z
		 M1225.7,1017.3c0.3,1.5-0.6,2.9-2,3.1c-1.4,0.3-2.7-0.7-3-2.2c-0.3-1.5,0.6-2.9,2-3.1C1224.1,1014.9,1225.4,1015.9,1225.7,1017.3z
		 M1223.9,1054.3c0.4,2-0.6,3.8-2.1,4.1c-1.5,0.3-3.1-1.1-3.4-3.1c-0.4-2,0.6-3.8,2.1-4.1C1222,1050.9,1223.5,1052.3,1223.9,1054.3z
		 M1261.1,1077.6c-1.5,0.3-3-1.1-3.4-3.1c-0.4-2,0.6-3.8,2.1-4.1c1.5-0.3,3.1,1.1,3.4,3.1
		C1263.5,1075.4,1262.6,1077.3,1261.1,1077.6z M1289.8,955c0.4,2-0.6,3.8-2.1,4.1c-1.5,0.3-3.1-1.1-3.4-3.1c-0.4-2,0.6-3.8,2.1-4.1
		C1288,951.7,1289.5,953.1,1289.8,955z M1264.2,948.6c1.4-0.2,2.7,0.7,3,2.2c0.3,1.5-0.6,2.9-2,3.1c-1.4,0.2-2.7-0.7-3-2.2
		C1261.9,950.2,1262.8,948.8,1264.2,948.6z"/>
	<path fill="#A68F7D" d="M1255.6,963.3c-3.9,0.7-6.4,4.7-5.7,8.8c0.8,4.2,4.5,7,8.4,6.3c3.9-0.7,6.4-4.7,5.7-8.8
		C1263.3,965.4,1259.5,962.6,1255.6,963.3z"/>
	<path fill="#A68F7D" d="M1228.2,999.6c2.2-0.4,3.6-2.6,3.2-5c-0.4-2.3-2.5-3.9-4.7-3.5c-2.2,0.4-3.6,2.6-3.2,5
		C1223.8,998.4,1226,1000,1228.2,999.6z"/>
	<path fill="#A68F7D" d="M1253.1,998.5c2.2-0.4,3.6-2.6,3.2-5c-0.4-2.3-2.6-3.9-4.8-3.5c-2.2,0.4-3.6,2.6-3.2,5
		C1248.8,997.3,1250.9,998.9,1253.1,998.5z"/>
	<path fill="#A68F7D" d="M1245.4,1027.6c2.2-0.4,3.6-2.6,3.2-5c-0.4-2.3-2.5-3.9-4.7-3.5c-2.2,0.4-3.6,2.6-3.2,5
		C1241.1,1026.4,1243.2,1028,1245.4,1027.6z"/>
	<path fill="#A68F7D" d="M1281.1,978.6c-0.4-2.3-2.6-3.9-4.8-3.5c-2.2,0.4-3.6,2.6-3.2,5c0.4,2.3,2.6,3.9,4.7,3.5
		C1280.1,983.1,1281.6,980.9,1281.1,978.6z"/>
	<path fill="#A68F7D" d="M1226.7,972.8c-0.3-1.5-1.6-2.5-3-2.2c-1.3,0.2-2.3,1.6-2,3.1c0.3,1.5,1.6,2.4,3,2.2
		C1226,975.7,1227,974.3,1226.7,972.8z"/>
	<path fill="#A68F7D" d="M1265.1,953.9c1.4-0.2,2.3-1.6,2-3.1c-0.3-1.5-1.6-2.4-3-2.2c-1.4,0.2-2.3,1.6-2,3.1
		C1262.4,953.2,1263.8,954.1,1265.1,953.9z"/>
	<path fill="#A68F7D" d="M1222.7,1015.1c-1.4,0.3-2.3,1.6-2,3.1c0.3,1.5,1.6,2.4,3,2.2c1.4-0.2,2.3-1.6,2-3.1
		C1225.4,1015.9,1224.1,1014.9,1222.7,1015.1z"/>
	<path fill="#A28A78" d="M1315.4,975.9c1.5-0.3,2.5-2.1,2.1-4.1c-0.4-2-1.9-3.4-3.4-3.1c-1.5,0.3-2.5,2.1-2.1,4.1
		C1312.4,974.8,1313.9,976.2,1315.4,975.9z"/>
	<path fill="#A28A78" d="M1284.3,956c0.4,2,1.9,3.4,3.4,3.1c1.5-0.3,2.4-2.1,2.1-4.1c-0.4-2-1.9-3.4-3.4-3.1
		C1284.9,952.2,1284,954.1,1284.3,956z"/>
	<path fill="#A28A78" d="M1268,1034.4c-0.4-2-1.9-3.4-3.4-3.1c-1.5,0.3-2.4,2.1-2.1,4.1c0.4,2,1.9,3.4,3.4,3.1
		C1267.4,1038.2,1268.4,1036.4,1268,1034.4z"/>
	<path fill="#A28A78" d="M1218.4,1055.3c0.4,2,1.9,3.4,3.4,3.1c1.5-0.3,2.4-2.1,2.1-4.1c-0.4-2-1.9-3.4-3.4-3.1
		C1219,1051.5,1218,1053.3,1218.4,1055.3z"/>
	<path fill="#A28A78" d="M1259.8,1070.3c-1.5,0.3-2.4,2.1-2.1,4.1c0.4,2,1.9,3.4,3.4,3.1c1.5-0.3,2.5-2.1,2.1-4.1
		C1262.8,1071.5,1261.3,1070.1,1259.8,1070.3z"/>
	<path fill="#73A957" d="M1471.5,1314.7c0,0-32.7-0.3-122.6-14.8c-89.9-14.5-98.8,70-98.8,70c27.5-27,46.5-13.2,46.5-13.2
		c32.7,18.1,63.6,18.8,90.1,11.9c7.6-2,14.8-4.6,21.6-7.6C1446.6,1344,1471.5,1314.7,1471.5,1314.7z"/>
	<path fill="#73A957" d="M1190.6,1395.3c34.7-68.2-34.1-122.1-34.1-122.1s0.6,23.1-7.2,86.7c-7.9,63.7,51.8,67.8,51.8,67.8
		C1181.4,1409,1190.6,1395.3,1190.6,1395.3z"/>
	<path fill="#73A957" d="M961.7,1019.7c-84.2,18.3-119.6,16-119.6,16s88,69.7,156.9,67.1c68.9-2.6,57.9-15.2,68.9-2.6
		c0,0-1.4-6.4-5-15.6c-1.1-2.9-2.4-6.1-4-9.4C1046.2,1047.2,1017.7,1007.5,961.7,1019.7z"/>
	<path fill="#FFAF3A" d="M784.4,985.2l-24.1,14.4c0,0-49.1,24-49.6,94.2c-0.6,70.3-47,108.8-47,108.8S822.9,1123.6,784.4,985.2z"/>
	<path fill="#FFAF3A" d="M786.2,1220.3c0,0-34.7,26.1-24.5,81.1c10.2,55-20.2,92.1-20.2,92.1s112.3-85.9,61.3-188.1L786.2,1220.3z"
		/>
	<path fill="#73A957" d="M1177.2,1594.5c-50.9,68-80.8,133.4-80.8,133.4l-20.4,60.1c53.2-91.4,106.8-159.4,155.2-209.6
		c44-45.7,83.6-76.6,114.7-97.2c42.2-27.9,68.7-36.7,68.7-36.7c-17.5-1-34.5,0.8-51,4.8C1288.3,1467.5,1223.9,1532.1,1177.2,1594.5z
		"/>
	<path fill="#73A957" d="M999.4,1392.2c25.2,14.7,42.7,112.9,53,192.8c7.5,58,11.1,106.4,11.1,106.4l15.9,47.1
		c-2.8-59.3-7-108.2-12.1-149C1043.2,1395.9,999.4,1392.2,999.4,1392.2z"/>
	<path fill="#73A957" d="M1056.7,1351.7l12.8,153.1C1094.7,1395,1056.7,1351.7,1056.7,1351.7z"/>
</g>
</svg>
