<?xml version="1.0" encoding="utf-8"?>
<!-- Generator: Adobe Illustrator 18.1.0, SVG Export Plug-In . SVG Version: 6.00 Build 0)  -->
<svg version="1.0" id="Layer_1" xmlns="http://www.w3.org/2000/svg" xmlns:xlink="http://www.w3.org/1999/xlink" x="0px" y="0px"
	 viewBox="0 0 150 150" enable-background="new 0 0 150 150" xml:space="preserve">
<g>
	<path fill="#00A550" d="M79.2,72.2c-0.1-2.2-0.6-4.3-1.7-6.2c-1.4,3.1-3.9,6-7.2,7c0.1,0.1,0.4,0.2,0.5,0.2
		c0.4,1.6-0.1,3.7-1.9,4.1c-0.2-0.8-0.5-1.6-0.4-2.4c0.2-0.8,0.9-1.2,1.5-1.8c-1.9,0.6-3.9,0.6-5.9,0.3c-0.4-0.1-0.8,0-1.1,0.2
		l0.4,0.2c-0.4,0.5-0.6,1.2-1.3,1.2c-0.3,0-0.8,0-1.1-0.1c0.4-0.7,0.9-1.3,1.8-1.4c0-0.1,0-0.4,0-0.6c-1.2,0.2-1.8-1-1.9-2.1
		c1.2,0,3.1,1,2.2,2.4c1.6-0.1,3.3,0,4.9-0.5c-0.6-0.4-1.5-0.6-1.8-1.4c-0.1-0.5,0-1.1,0.1-1.6c1.5,0.2,2.5,1.5,2.3,2.9
		c3.8-1.1,7-4.2,7.7-8.1c-0.2-0.1-0.5-0.5-0.7-0.6c-0.4,0.3-0.7,0.5-1.1,0.8c0.3,0.7,0.7,1.5,0.5,2.4c-0.1,0.9-0.8,1.5-1.4,2.1
		c-0.4-0.6-0.8-1.1-1-1.8c0-0.9,0.6-1.7,1.2-2.3c-2,1.3-4.5,1.5-6.8,0.9c0.6,1.5-0.1,3.2-1.6,3.8c-0.2-0.6-0.6-1.2-0.6-1.8
		c0.2-0.9,1-1.5,1.6-2.1c-1.6-0.2-3.2,0-4.8,0.4c0.9,1.6-0.3,3.4-1.7,4.2c-0.3-0.8-0.8-1.6-0.5-2.5c0.1-0.6,0.7-1,1.1-1.4
		c-1,0.5-2.1,1-3,1.7c0.1,1.4-1.1,2.3-2.3,2.6c0-0.7-0.2-1.6,0.3-2.2c0.7-0.7,1.8-0.6,2.5-1.2c1.8-1.5,4-2.5,6.3-2.6
		c1.8-0.2,3.5,0.5,5.2,0.4c2-0.1,3.8-0.9,5.2-2.2c-0.5-0.7-0.9-1.5-1.4-2.2c-0.5-1.1-1.8-1.5-2.7-2.1c0.3,0.7,0.5,1.6-0.3,2.1
		c-0.9,0.7-2.2-0.2-2.1-1.2c0.1-0.7,0.7-1,1.2-1.4c-0.2-0.1-0.7-0.2-0.9-0.2c-0.6,0.6-1.5,1.1-2.3,0.7c-0.6-0.2-0.7-0.8-1.1-1.3
		c-1.5-0.1-3,0.2-4.4,0.5c0-0.1-0.1-0.2-0.2-0.3c1.5-0.6,3.1-0.7,4.7-1c0.4-0.8,1.3-1.5,2.2-1.2c0.8,0.2,1.1,0.9,1.3,1.6
		c1.3,0.4,2.5,0.9,3.7,1.5c-0.6-1.7-1.8-3.1-3.1-4.5c-1.8-1.9-4.3-3.1-6.9-3.3c-0.5,0.4-1.1,0.1-1.7,0.1c-0.1,0.6,0.5,1.3,0.2,1.9
		c-0.2,0.8-0.9,1.3-1.5,1.8c-0.2-0.6-0.6-1.1-0.6-1.7c0.2-0.8,0.8-1.3,1.5-1.7c0-0.1,0.1-0.3,0.2-0.4c-0.9,0.1-1.8,0.2-2.7,0.4
		c0.6,0.6,1.1,1.5,0.4,2.2c-0.7,0.9-2.4,0.4-2.4-0.8c0-0.2,0.1-0.6,0.1-0.8c-0.1-0.1-0.3-0.2-0.4-0.3c0.6-0.3,1.3-0.6,1.9-0.8
		c-1.3,0.3-2.4-0.8-2.8-1.9c0.7-0.1,1.5-0.3,2.2,0.1c0.5,0.5,0.7,1.1,1.1,1.7c1.2-0.4,2.4-0.6,3.6-0.8c1.9,0.2,3.8,0.6,5.5,1.6
		c0.8-2.2,0.5-5-1.2-6.7c-0.7-0.7-1.4-2-0.5-2.7c0.3,0.3,0.5,0.8,0.7,1.2c-0.2,0.3-0.3,0.6-0.5,0.8c1.2,1,2.2,2.2,2.6,3.8
		c0.3,1.4,0.2,2.9,0,4.4c1.3,1,2.5,2.1,3.5,3.5c-0.2-2.5-0.1-5,0.7-7.4c-1.3-0.8-2.6-1.8-3.4-3.2c-0.6-1.1-1.3-2.2-2-3.3
		c-0.1,0.4-0.4,0.7-0.7,0.9c-0.1-0.2-0.2-0.6-0.2-0.8c0.2-0.1,0.6-0.2,0.8-0.2c-0.7-0.7-1.2-2-2.4-2c-0.6,0-0.7-0.7-0.7-1.2
		c-0.6,0.6-1.5,0.4-2.2,0.2c0.3-0.3,0.6-0.7,1-0.7c0.5,0.1,0.9,0.3,1.4,0.4c-0.3-0.5-0.8-1-0.7-1.6c0.3-0.2,0.6,0.1,0.9,0.3
		c0,0.3-0.1,0.8-0.2,1c0.4,0.1,1-0.2,1.3,0.2c0.2,0.5,0.2,1.1,0.6,1.5c1.1,1.2,2.1,2.6,2.9,4c-0.3-1.4,0.2-3,1.7-3.3
		c0.3,0.8,0.7,1.6,0.2,2.4c1.6,0.4,2.3,2.1,1.9,3.7c-0.9-0.3-1.8-0.8-2.3-1.7c-0.2-0.6,0.1-1.2,0.2-1.8c-0.5,0.4-1,0.7-1.5,1.1
		c1,1.2,2.2,2.3,3.6,3c0.3-0.8,0.7-1.6,1.1-2.3c0.5-1.2,0.9-2,2.2-3.3c-0.5,1-1.1,2.1-1.9,3.6c-1.5,3.4-2,7.3-1.3,11
		c0.5-1.1,1.7-1.4,2.8-1.2c-0.3,1.2-1.3,2.1-2.6,2.1c0.2,0.5,0.4,1.1,0.5,1.7c0.2-0.4,0.3-0.7,0.6-1.1c0.4-0.2,1-0.3,1.4-0.4
		c0.2,1.1-0.5,2.1-1.5,2.5c0.9,0.6,1.2,1.8,2.1,2.3c0.1,0.2,0.2,0.5,0.3,0.7c0.3-0.9,0.6-1.8,0.9-2.7c0.4-0.8,0.8-2.1,1.9-2.9
		c-0.8-0.1-1.6-0.1-2.3-0.5c-0.5-0.5-0.5-1.2-0.7-1.8c1.5-0.4,2.8,0.5,3.4,1.9c-0.4-1.1-0.8-2.2-0.9-3.4c0-0.8,0.3-1.5,0.4-2.2
		c-0.4-0.5-0.5-1.5,0.3-1.7c0.4,0.1,1.1,0,1.1,0.5c0.3,0.7-0.6,1.1-0.9,1.5c-0.3,1.5,0,3,0.5,4.4c1-1,2.2-2,3.4-2.8
		c-0.5-2.5-1-5.2-0.2-7.7c0.4-1.4,1.2-2.6,2.1-3.6c0-0.5-0.2-1.2,0.3-1.5c0.5-0.4,1.2-0.1,1.7-0.1c0,0.7,0.2,1.5-0.5,1.9
		c-0.4,0-0.8,0.1-1.2,0c-0.3,0.4-0.6,0.7-0.8,1.1c0.8-0.2,1.6-0.8,2.5-0.4c0.5,0.3,0.8,0.8,1.2,1.2c-1.2,0.9-2.9,0.8-3.9-0.4
		c-0.1,0.2-0.4,0.7-0.5,1c0.4,0.1,0.7,0.2,1.1,0.3c0,0.2,0,0.6-0.1,0.8c-0.2,0-0.5,0-0.7,0c-0.1-0.4-0.2-0.7-0.4-1.1
		c-0.3,1-0.6,1.9-0.7,3c0.3-0.3,0.5-0.7,0.8-1c0.5-0.2,1-0.2,1.5-0.3c0.1,1.3-0.9,2.4-2.2,2.6c-0.1-0.3-0.2-0.9-0.2-1.1
		c0.1,1.7,0.3,3.3,0.9,4.9c2.5-1.4,5.3-2.2,8.2-2.4c2.2-0.1,3.4-0.1,4.3,0.3c-1.2,0.2-2.5,0.1-4.2,0.1c-0.5,0-1,0.1-1.6,0.1
		c0.6,0.2,1.3,0.3,1.7,0.8c0.3,0.5,0.4,1.1,0.5,1.6c-1.5,0.4-3.2-0.5-3.5-2.1c-1.1,0.3-2.1,0.7-3.2,1.1c0.6,0.2,1.3,0.7,1.1,1.4
		c-0.1,0.9-1.3,1.3-1.9,0.7c-0.4-0.3-0.2-1-0.3-1.4c-0.8,0.6-1.7,1.1-2.5,1.7c0.5,0.3,1.2,0.5,1.6,1c-0.6,1.3-2.3,1.3-3.4,0.8
		c-0.4,0.5-0.8,1-1.2,1.5c-0.5,0.8-1,1.8-1.3,2.8c-0.3,0.7-0.5,1.6-0.7,2.4c1.1-2.3,3.9-2.8,6.3-2.6c-0.4-0.7-0.9-1.5-0.7-2.3
		c0.3-0.5,0.6-1,1-1.4c1.2,1,1.3,2.7,0.6,4.1c1.3-2.3,3.4-4.1,5.9-5c0-1.1,1.3-1.8,2.2-0.9c0.3-0.8,0.7-1.6,1.7-1.7
		c0.1,0.8-0.3,1.4-1.1,1.7c-0.7,0.2-0.2,1.3-0.8,1.7c-0.6,0.6-1.4,0.1-1.9-0.4c-0.5,0.2-1,0.5-1.5,0.8c1,0.2,2.2,0.1,3.1,0.8
		c0.6,0.6,0.5,1.6,0.8,2.3c-0.9,0-1.9,0.1-2.6-0.5c-0.9-0.5-1.3-1.5-1.6-2.4c-1.2,1.1-2.3,2.3-3,3.7c2.5,0.8,5.1,1,7.7,0.7
		c-0.7-0.5-0.4-1.5-0.1-2.1c0.3-0.7,1.1-1,1.8-1.2c0.1,0.6,0.2,1.1,0.2,1.7c-0.2,0.7-0.9,1.1-1.5,1.4c0.2,0,0.6,0.1,0.8,0.1l0,0.1
		c-0.8,0.4-1.7,0.6-2.6,0.8c1.1,0.4,1.6,1.6,1.5,2.7c-0.6-0.1-1.2-0.1-1.7-0.5c-0.5-0.6-0.4-1.4-0.5-2.1c-1.9,0.2-3.8-0.1-5.6-0.5
		c-1.5-0.4-3.1-0.6-4.5,0c-1.7,0.6-2.9,2.5-2.8,4.3c0.7-0.3,1.5-0.6,2.3-0.8c-0.1-1.6,1.1-3.1,2.8-3.1c0,0.6,0,1.2-0.1,1.9
		c-0.4,0.7-1.1,0.9-1.8,1.1c1.7-0.1,3.5,0,4.9,0.9c1.8,1.5,4.2,2.1,6.5,2.1c-0.5-1.9,1.1-3.4,2.9-3.8c0.3,1,0.2,2.2-0.6,3
		c-0.6,0.5-1.4,0.6-2.2,0.8c1.2,0,2.5-0.2,3.6-0.6c0.4-1.4,1.8-1.9,3.2-1.9c-0.2,0.8-0.4,1.8-1.1,2.2c-1,0.3-2.1,0-3,0.4
		c-2.6,0.9-5.7,1-8.1-0.5c0.6,0.6,1.3,1.4,1.4,2.3c0.1,0.5-0.1,1.1-0.2,1.6c-0.7-0.3-1.6-0.3-2.2-0.9c-0.7-1-0.6-2.3-0.5-3.4
		c0.4,0.1,0.8,0.2,1.2,0.3c-1.7-1.2-3.9-1.9-6-1.3c0.8,0.7,1.3,1.7,0.9,2.8c-0.5-0.2-1.1-0.3-1.5-0.6c-0.4-0.5-0.4-1.2-0.5-1.8
		c-0.4,0.2-0.7,0.5-1.1,0.7c0.7,2.1,0.5,4.4,1.2,6.6c1.2-0.5,2.5-1.1,3.8-1.6c-0.4,0.5-0.8,1-1.2,1.4c-0.6,0.4-1.2,0.7-1.7,1.2
		c-0.8,1-0.9,2.3-1.1,3.5c-0.3,2.2-0.5,4.5-0.2,6.7c0.1,1.1,0.6,2.2,1.3,3.1c10.4,0.3,20.8,1.2,31,3.2c1.3,0.2,2.6,0.5,4,0.8
		l15.8-15.8L76.1,19.5L19.2,76.3l15.2,15.2c1.2-0.2,2.3-0.5,3.4-0.7c11.6-1.9,23.3-2.9,35-2.7c1.1,0,2.2,0,3.3,0
		c0.3-0.4,0.7-0.8,0.8-1.3C78.6,82.1,79.5,77.2,79.2,72.2z M70.3,66.3c0.2,0.4,0.8,0.7,0.5,1.2c-0.2,0.5-1.1,0.6-1.3,0.1
		C69.1,67,69.9,66.6,70.3,66.3z M70.6,55.3c0.3,0.7,0.4,1.5,0.2,2.2c-1.4-0.3-2.3-1.6-2.1-3C69.3,54.7,70.2,54.6,70.6,55.3z
		 M70.1,47.9c1.4,0.1,2.1,1.5,1.9,2.7c-0.7-0.3-1.4-0.6-2-1.2C70,48.9,70,48.4,70.1,47.9z M71.7,53.1c-0.7,0.4-1.4-0.2-1.9-0.6
		c-0.2-0.5-0.1-1.1-0.2-1.6C70.7,51,72.1,51.9,71.7,53.1z M87.7,50.3c-0.3,0.6-0.9,0.9-1.5,1.2c-0.3-1.2-0.3-3.1,1.2-3.5
		C87.9,48.5,88.1,49.6,87.7,50.3z M88.6,58.3c0.8-0.5,1.4,0.8,0.6,1.2C88.4,59.9,87.8,58.6,88.6,58.3z M90.6,61
		c-0.6,0.2-1.3,0.1-1.9,0c0.3-1.1,1.5-1.6,2.6-1.3C91,60.1,90.9,60.6,90.6,61z M90.5,65.9c-0.6,0.3-1.3,0.9-1.9,0.6
		c-0.5-1.6,1-3.1,2.6-3.2C91.2,64.1,91.5,65.3,90.5,65.9z M91.7,67.4c-0.4-0.7-0.1-1.4,0.6-1.7c0.2,0.3,0.8,0.6,0.6,1
		C92.9,67.4,92.1,67.3,91.7,67.4z M94.4,72.9c-2-0.1-3-2.1-2.9-3.9c1,0.2,2.1,0.4,2.7,1.4C94.5,71.2,94.4,72.1,94.4,72.9z
		 M96.5,70.9c-0.8-0.5-0.9-1.5-1.2-2.3c1.5-0.2,3.1,0.9,3,2.5C97.7,71.1,97.1,71.2,96.5,70.9z M99,55.8c0.3,0.9,0.5,2,0,2.9
		c-0.5,0.6-1.3,0.9-2,1.3C96.1,58.2,97.5,56.5,99,55.8z M93.8,55.4c0.5-0.1,1.1-0.2,1.6-0.2c0.6,0.2,0.9,0.8,1.2,1.3
		C95.6,56.9,94.4,56.4,93.8,55.4z M97.2,64.1c-0.9-0.5-1.4-1.6-1.6-2.6c0.8,0,1.7-0.1,2.4,0.4c0.8,0.3,1.1,1.2,1.4,2
		C98.7,64.1,97.9,64.4,97.2,64.1z M99.2,62c-0.8,0-1.3-0.7-1.8-1.2c1.1-0.9,2.6-0.5,3.7,0.3C100.5,61.6,99.9,62,99.2,62z M97.4,50.2
		c0.8,0,1.7-0.2,2.3,0.5c0.5,0.5,0.5,1.1,0.6,1.7C99.1,52.5,97.3,51.7,97.4,50.2z M97.9,48.4c0.6-0.4,1.3-0.2,1.9-0.2
		c-0.4,1.1-1.5,2.1-2.7,1.8C97.3,49.4,97.5,48.8,97.9,48.4z M89.9,50c-0.1-1-0.2-2.2,0.5-3c0.5-0.2,1.2-0.6,1.7-0.4
		C92.6,48.1,91.5,49.7,89.9,50z M90.6,39.8c-0.6,0.8-2.4,1.3-2.6,0C88.8,39.3,89.8,39.3,90.6,39.8z M88.1,37.8
		c0.2,0.7,0.2,1.6-0.5,2C86.9,39.2,87.4,38.1,88.1,37.8z M76.4,45.2c0.4,0.2,0.8,0.5,1.2,0.7c-0.8,1.1-2.3,1.2-3.3,0.3
		C74.9,45.9,75.5,45.2,76.4,45.2z M76.5,61.8c-0.3-0.4-0.6-0.7-0.7-1.2c0.1-0.6,0.5-1,0.8-1.4C77.1,60.1,77.2,61.1,76.5,61.8z
		 M73.3,49.7c0.4-0.9,1-1.8,1.9-2.1c0.7,0,1.3,0.3,1.9,0.5C76.6,49.6,74.8,50.2,73.3,49.7z M77,51.8c0.5,0.1,1.1,0,1.6,0.4
		c0.6,0.3,0.5,1.1,0.6,1.7C78.4,53.7,77.1,53.5,77,51.8z M79.4,51.4c-0.7-0.1-1.4-0.2-1.9-0.8c-0.5-0.5-0.2-1.1-0.1-1.7
		C78.6,49.1,79.3,50.2,79.4,51.4z M79.5,48.1c-0.1-0.5,0.3-0.8,0.5-1.1c0.4,0.6,0.5,1.4,0.6,2.1C80.1,48.9,79.5,48.7,79.5,48.1z
		 M80.8,49c-0.2-0.9,1.1-1.3,1.8-1.1C82.2,48.5,81.7,49.6,80.8,49z M81.4,54.4c-0.6,0.7-1.6-0.3-1-1C81,52.8,82.1,53.8,81.4,54.4z
		 M80.1,53.2c0.2-0.9,0.3-1.9,1.1-2.5c0.6-0.3,1.2-0.1,1.8-0.2C83.1,52.1,81.7,53.3,80.1,53.2z M84.5,39.1c1,0.7,1.2,2.1,0.6,3.1
		c-0.5-0.5-1.2-1-1.2-1.8C84,39.9,84.3,39.5,84.5,39.1z M82.3,41c0.7,0.4,1.8,0.7,1.9,1.7c0.2,0.6-0.1,1.3-0.4,1.8
		c-0.6-0.5-1.3-1-1.6-1.8C82,42.2,82.2,41.6,82.3,41z M83.1,46.8c-0.9,0-1.9-0.1-2.6-0.7c-0.3-0.6-0.3-1.2-0.4-1.8
		C81.6,44.1,83,45.3,83.1,46.8z M79.7,36.6c-0.1,0.8,0.2,1.8-0.6,2.3c-0.5,0.4-1.1,0.4-1.7,0.6C77.5,38.1,78.2,36.6,79.7,36.6z
		 M76.9,41.3c0-0.3,0.1-0.8,0.2-1.1C76.9,40.5,76.9,40.9,76.9,41.3c0.6-0.7,1.4-1.5,2.4-1.2c0.4,0.2,1.2,0.2,1.1,0.8
		c-0.8,1-2.4,1.7-3.5,0.7C76.9,41.5,77,41.4,76.9,41.3C77,41.3,76.9,41.3,76.9,41.3z M75.6,37.2c0.5,0,0.7,0.6,0.9,1
		c0.4,1,0.2,2.1-0.7,2.8c-0.4-0.6-0.9-1.1-1.1-1.8C74.7,38.5,75.2,37.8,75.6,37.2z M67.6,39.2c0.3-0.3,0.7-0.8,1.2-0.7
		c0.6,1.1-0.1,2.2-0.9,2.9C67.5,40.7,67.1,39.8,67.6,39.2z M62.5,48.5c-0.2-0.7,0-1.4,0-2.1c1.5,0.2,2.2,1.8,2,3.2
		C63.7,49.8,62.9,49.2,62.5,48.5z M63.1,43.9c0.5-0.4,1-0.6,1.6-0.8v0.5l0.6-0.2C65.3,44.7,63.8,44.3,63.1,43.9z M67.1,48.4
		c0.3,0.6,0.4,1.2,0.5,1.9c-1.4,0-2.6-1.2-2.4-2.6C65.8,47.8,66.8,47.6,67.1,48.4z M68.3,46.8c-0.1-0.5-0.4-0.9-0.3-1.4
		c0.2-0.4,0.6-0.6,0.9-0.8C69.2,45.4,69.1,46.3,68.3,46.8z M68.6,44.2c-0.5-0.1-1.2,0.1-1.7-0.2c-0.4-0.2-0.4-0.8-0.6-1.2
		C67.4,42.7,68.4,43.1,68.6,44.2z M64.3,40.5c0.6-0.4,1.4,0,2,0.3c-0.1,1.1-1.7,1.3-2.5,0.7C63.5,41.1,64.1,40.7,64.3,40.5z M64,43
		c-0.9,0.2-1.8,0-2.2-0.8C62.6,41.7,63.5,42.2,64,43z M60.8,47.3c0.5,0.6,0.4,1.4,0.6,2.1c-0.8,0-1.6,0-2.2-0.5
		c-0.8-0.5-1.1-1.5-1.3-2.3C58.9,46.5,60.1,46.6,60.8,47.3z M55.9,65.8c0.5-0.4,0.8-0.9,1.5-1.1c0.9,0,1.6,0.6,2.3,1.2
		C58.6,67,56.9,66.8,55.9,65.8z M56.8,61.6c0.1-0.7-0.1-1.6,0.7-1.9c0.3-0.1,0.6-0.3,0.9-0.1c0,0.2,0.1,0.6,0.1,0.8
		C58.2,61,57.5,61.4,56.8,61.6z M63.7,64.5c-0.4-0.1-1.1-0.1-1.2-0.7c-0.5-1,1.3-1.6,1.6-0.6C64.4,63.7,63.8,64.1,63.7,64.5z
		 M66.3,61c1,0.5,1.4,1.6,1.7,2.6c0.3-0.4,0.6-1,1.2-1c1-0.2,1.8,0.9,1.4,1.8c-0.4,1.1-2.2,0.9-2.5-0.2c0,0.2,0,0.5,0,0.7
		c-1.2,0-2.5-0.3-3.3-1.2c-0.9-0.7-1-1.8-1.2-2.8C64.5,60.9,65.4,60.8,66.3,61z M62.6,58.7c0.7-0.7,1.9-1.2,2.8-0.9
		c0.4,0.8-0.3,1.7-0.8,2.3c-0.6,0.7-1.5,0.7-2.4,0.7C62.3,60.1,62.3,59.4,62.6,58.7z M62.7,64.4c-0.8,0.4-1.8,0.9-2.7,0.6
		c-0.8-0.4-1.2-1.2-1.8-1.8C59.7,62,61.8,63,62.7,64.4z M61.8,58c0.2,1.6-1,3-2.6,3c0-0.6-0.1-1.2,0.1-1.8
		C59.8,58.3,60.9,58.2,61.8,58z M66.7,52c-0.5,0.6-0.9,1.4-1.7,1.6c-0.7,0.1-1.2-0.3-1.8-0.5C63.9,51.8,65.4,51.3,66.7,52z M63.7,54
		c0.8,0.6,0.9,1.6,1.1,2.5c-1.5,0.1-2.8-1.1-2.9-2.6C62.5,53.9,63.1,53.9,63.7,54z M60.9,55.1c0.7,0.6,0.5,1.5,0.2,2.2
		c-0.2,0-0.5-0.1-0.7-0.1l0.4,0.5c-0.8-0.1-2-0.1-2.2-1.1C58,55.3,59.9,54.1,60.9,55.1z M51.7,54.7c0.1-0.4,0.2-0.9,0.4-1.2
		c0.4-0.6,1.3-0.3,1.9-0.7c0.4-0.2,0.7-0.5,1.1-0.8c-0.9,0.1-1.7-0.1-2.3-0.8c0.5-0.2,1-0.5,1.6-0.5c0.4,0.2,0.7,0.5,1.1,0.7
		L55,51.8c0.1,0.1,0.2,0.3,0.3,0.4c-0.5,0.3-1,0.6-1.5,0.9C53.7,54.2,52.7,54.7,51.7,54.7z M55.6,51.7c1.2,0.9,0.8,2.6-0.1,3.6
		c-0.4-0.5-0.8-1.1-0.8-1.8C55,52.9,55.4,52.4,55.6,51.7z M57,57.3c0.5,0.3,0.8,0.9,1.1,1.4c0.7-0.3,1.3-0.6,2-1
		c0.2,0.1,0.4,0.2,0.7,0.3c-1,0.1-1.9,0.7-2.8,0.8l-0.2,0c-0.5,0-1.1-0.1-1.6-0.1c-0.6-0.1-0.9-0.7-1.3-1.1
		C55.6,57.4,56.3,57,57,57.3z M67.1,76.5c-0.5,0.3-1.1,0.3-1.7,0.5c-0.3-1.5,0.8-2.8,2.2-3.2C67.8,74.7,67.7,75.8,67.1,76.5z
		 M75.4,73.3c-0.4,0.5-1,0.8-1.5,1.1C73,73,73.5,71.1,75,70.3C75.3,71.2,75.9,72.3,75.4,73.3z"/>
	<path fill="#4B705B" d="M138.8,102.2c-0.3-0.1-0.5-0.2-0.8-0.4c-3.5-1.8-7.3-3.3-11.1-4.2c-4.5-1.4-9.1-2.6-13.8-3.3
		c-4.5-0.9-9-1.5-13.5-2c-8.9-1-17.8-1.4-26.7-1.3c-4.2-0.1-8.5,0.1-12.7,0.3c-7.5,0.4-14.9,1.2-22.3,2.4c-4.5,0.8-9,1.7-13.4,2.9
		c-3.4,0.9-6.8,2-10.1,3.3c-1.4,0.6-2.9,1.3-4.3,2c-3.1,1.5-6,3.4-8.4,5.9c6.6-2.8,13.6-4.4,20.5-6.1l-0.4,0c3-0.2,5.8-1.1,8.8-1.4
		c3.7-0.6,7.4-1.1,11.2-1.5c2-0.2,4-0.5,6-0.7c3.7-0.2,7.4-0.4,11-0.6c2.5-0.1,5-0.3,7.5-0.3c-0.1,0.1-0.4,0.3-0.6,0.3
		c-2.8,0.8-5.5,2.2-8.1,3.7c-0.4,0.2-0.9,0.5-1.3,0.7c-2.4,1.3-4.6,3-6.7,4.7c-0.5,0.4-1,0.7-1.4,1.1c0.6-0.3,1.2-0.5,1.8-0.7
		c3-1.2,6.1-2.3,9.2-3.5c2.4-0.5,4.7-1.4,7.2-1.9c14.2-3.4,28.9-3.9,43.4-2.4c7,0.7,13.9,1.8,20.8,3.4c5.5,1.5,11,2.9,16.3,5.2
		C144.6,105.6,141.8,103.6,138.8,102.2z"/>
</g>
</svg>
